{
  "jsonPath": "Animes/Sailor Moon MIDI Collection/moon-tiara-a.json",
  "path": "Animes\\Sailor Moon MIDI Collection\\Moon Tiara A.mid",
  "name": "Moon Tiara A",
  "difficulty": "Advanced",
  "bpm": 89.00004005001803,
  "notes": [
    {
      "midi": 67,
      "hit": false,
      "t": 168.53924999999998,
      "d": 78.65164999999999,
      "v": 110
    },
    {
      "midi": 67,
      "hit": false,
      "t": 168.53924999999998,
      "d": 78.65164999999999,
      "v": 110
    },
    {
      "midi": 68,
      "hit": false,
      "t": 337.07849999999996,
      "d": 2331.459625,
      "v": 110
    },
    {
      "midi": 68,
      "hit": false,
      "t": 337.07849999999996,
      "d": 2331.459625,
      "v": 110
    },
    {
      "midi": 55,
      "hit": false,
      "t": 2359.5494999999996,
      "d": 162.92127500000015,
      "v": 100
    },
    {
      "midi": 38,
      "hit": false,
      "t": 2359.5494999999996,
      "d": 78.65164999999979,
      "v": 110
    },
    {
      "midi": 55,
      "hit": false,
      "t": 2359.5494999999996,
      "d": 162.92127500000015,
      "v": 100
    },
    {
      "midi": 36,
      "hit": false,
      "t": 2528.0887499999994,
      "d": 78.65164999999979,
      "v": 110
    },
    {
      "midi": 60,
      "hit": false,
      "t": 2528.08875,
      "d": 1005.6175250000001,
      "v": 110
    },
    {
      "midi": 51,
      "hit": false,
      "t": 2528.08875,
      "d": 162.92127500000015,
      "v": 100
    },
    {
      "midi": 51,
      "hit": false,
      "t": 2528.08875,
      "d": 162.92127500000015,
      "v": 100
    },
    {
      "midi": 60,
      "hit": false,
      "t": 2528.08875,
      "d": 1005.6175250000001,
      "v": 110
    },
    {
      "midi": 35,
      "hit": false,
      "t": 2696.6279999999992,
      "d": 117.97747500000014,
      "v": 110
    },
    {
      "midi": 60,
      "hit": false,
      "t": 2696.6279999999997,
      "d": 915.7299249999996,
      "v": 80
    },
    {
      "midi": 36,
      "hit": false,
      "t": 2696.628,
      "d": 1342.6960249999997,
      "v": 100
    },
    {
      "midi": 36,
      "hit": false,
      "t": 2696.628,
      "d": 1342.6960249999997,
      "v": 100
    },
    {
      "midi": 48,
      "hit": false,
      "t": 2719.0999,
      "d": 162.9212749999997,
      "v": 100
    },
    {
      "midi": 48,
      "hit": false,
      "t": 2719.0999,
      "d": 162.9212749999997,
      "v": 100
    },
    {
      "midi": 55,
      "hit": false,
      "t": 2865.16725,
      "d": 162.9212749999997,
      "v": 100
    },
    {
      "midi": 55,
      "hit": false,
      "t": 2865.16725,
      "d": 162.9212749999997,
      "v": 100
    },
    {
      "midi": 48,
      "hit": false,
      "t": 3033.7065,
      "d": 162.92127500000015,
      "v": 100
    },
    {
      "midi": 48,
      "hit": false,
      "t": 3033.7065,
      "d": 162.92127500000015,
      "v": 100
    },
    {
      "midi": 40,
      "hit": false,
      "t": 3044.9424499999996,
      "d": 146.0673499999998,
      "v": 110
    },
    {
      "midi": 55,
      "hit": false,
      "t": 3202.24575,
      "d": 162.92127500000015,
      "v": 100
    },
    {
      "midi": 55,
      "hit": false,
      "t": 3202.24575,
      "d": 162.92127500000015,
      "v": 100
    },
    {
      "midi": 35,
      "hit": false,
      "t": 3393.2568999999994,
      "d": 78.65164999999979,
      "v": 110
    },
    {
      "midi": 48,
      "hit": false,
      "t": 3404.49285,
      "d": 162.92127500000015,
      "v": 100
    },
    {
      "midi": 48,
      "hit": false,
      "t": 3404.49285,
      "d": 162.92127500000015,
      "v": 100
    },
    {
      "midi": 62,
      "hit": false,
      "t": 3539.32425,
      "d": 191.01114999999982,
      "v": 110
    },
    {
      "midi": 55,
      "hit": false,
      "t": 3539.32425,
      "d": 162.92127500000015,
      "v": 100
    },
    {
      "midi": 55,
      "hit": false,
      "t": 3539.32425,
      "d": 162.92127500000015,
      "v": 100
    },
    {
      "midi": 62,
      "hit": false,
      "t": 3539.32425,
      "d": 191.01114999999982,
      "v": 110
    },
    {
      "midi": 35,
      "hit": false,
      "t": 3556.178174999999,
      "d": 112.35950000000003,
      "v": 110
    },
    {
      "midi": 63,
      "hit": false,
      "t": 3707.8635,
      "d": 303.37064999999984,
      "v": 110
    },
    {
      "midi": 63,
      "hit": false,
      "t": 3707.8635,
      "d": 303.37064999999984,
      "v": 110
    },
    {
      "midi": 48,
      "hit": false,
      "t": 3730.3354000000004,
      "d": 162.9212749999997,
      "v": 100
    },
    {
      "midi": 48,
      "hit": false,
      "t": 3730.3354000000004,
      "d": 162.9212749999997,
      "v": 100
    },
    {
      "midi": 40,
      "hit": false,
      "t": 3735.953374999999,
      "d": 123.5954499999998,
      "v": 110
    },
    {
      "midi": 65,
      "hit": false,
      "t": 3876.4027499999997,
      "d": 157.30330000000004,
      "v": 110
    },
    {
      "midi": 65,
      "hit": false,
      "t": 3876.4027499999997,
      "d": 157.30330000000004,
      "v": 110
    },
    {
      "midi": 55,
      "hit": false,
      "t": 3876.40275,
      "d": 162.9212749999997,
      "v": 100
    },
    {
      "midi": 55,
      "hit": false,
      "t": 3876.40275,
      "d": 162.9212749999997,
      "v": 100
    },
    {
      "midi": 75,
      "hit": false,
      "t": 4044.941999999999,
      "d": 308.98862499999996,
      "v": 80
    },
    {
      "midi": 67,
      "hit": false,
      "t": 4044.9419999999996,
      "d": 337.0785000000001,
      "v": 110
    },
    {
      "midi": 67,
      "hit": false,
      "t": 4044.9419999999996,
      "d": 337.0785000000001,
      "v": 110
    },
    {
      "midi": 35,
      "hit": false,
      "t": 4056.177949999999,
      "d": 157.30330000000004,
      "v": 110
    },
    {
      "midi": 48,
      "hit": false,
      "t": 4056.17795,
      "d": 162.92127500000015,
      "v": 100
    },
    {
      "midi": 48,
      "hit": false,
      "t": 4056.17795,
      "d": 162.92127500000015,
      "v": 100
    },
    {
      "midi": 55,
      "hit": false,
      "t": 4213.48125,
      "d": 162.9212749999997,
      "v": 100
    },
    {
      "midi": 55,
      "hit": false,
      "t": 4213.48125,
      "d": 162.9212749999997,
      "v": 100
    },
    {
      "midi": 74,
      "hit": false,
      "t": 4382.020499999999,
      "d": 213.48304999999982,
      "v": 80
    },
    {
      "midi": 65,
      "hit": false,
      "t": 4382.0205,
      "d": 235.95494999999937,
      "v": 110
    },
    {
      "midi": 48,
      "hit": false,
      "t": 4382.0205,
      "d": 162.9212749999997,
      "v": 100
    },
    {
      "midi": 48,
      "hit": false,
      "t": 4382.0205,
      "d": 162.9212749999997,
      "v": 100
    },
    {
      "midi": 65,
      "hit": false,
      "t": 4382.0205,
      "d": 235.95494999999937,
      "v": 110
    },
    {
      "midi": 40,
      "hit": false,
      "t": 4393.256449999999,
      "d": 123.5954499999998,
      "v": 110
    },
    {
      "midi": 75,
      "hit": false,
      "t": 4550.5597499999985,
      "d": 196.62912500000039,
      "v": 80
    },
    {
      "midi": 67,
      "hit": false,
      "t": 4550.559749999999,
      "d": 117.97747499999969,
      "v": 110
    },
    {
      "midi": 55,
      "hit": false,
      "t": 4550.559749999999,
      "d": 162.9212749999997,
      "v": 100
    },
    {
      "midi": 55,
      "hit": false,
      "t": 4550.559749999999,
      "d": 162.9212749999997,
      "v": 100
    },
    {
      "midi": 67,
      "hit": false,
      "t": 4550.559749999999,
      "d": 117.97747499999969,
      "v": 110
    },
    {
      "midi": 35,
      "hit": false,
      "t": 4713.481024999999,
      "d": 101.12355000000025,
      "v": 110
    },
    {
      "midi": 48,
      "hit": false,
      "t": 4724.716974999999,
      "d": 162.9212749999997,
      "v": 100
    },
    {
      "midi": 48,
      "hit": false,
      "t": 4724.716974999999,
      "d": 162.9212749999997,
      "v": 100
    },
    {
      "midi": 72,
      "hit": false,
      "t": 4887.638249999999,
      "d": 146.06735000000026,
      "v": 110
    },
    {
      "midi": 55,
      "hit": false,
      "t": 4887.638249999999,
      "d": 162.9212749999997,
      "v": 100
    },
    {
      "midi": 77,
      "hit": false,
      "t": 4887.638249999999,
      "d": 185.39317500000016,
      "v": 80
    },
    {
      "midi": 35,
      "hit": false,
      "t": 4887.638249999999,
      "d": 106.74152500000037,
      "v": 110
    },
    {
      "midi": 55,
      "hit": false,
      "t": 4887.638249999999,
      "d": 162.9212749999997,
      "v": 100
    },
    {
      "midi": 72,
      "hit": false,
      "t": 4887.638249999999,
      "d": 146.06735000000026,
      "v": 110
    },
    {
      "midi": 48,
      "hit": false,
      "t": 5056.177499999999,
      "d": 162.9212749999997,
      "v": 100
    },
    {
      "midi": 48,
      "hit": false,
      "t": 5056.177499999999,
      "d": 162.9212749999997,
      "v": 100
    },
    {
      "midi": 40,
      "hit": false,
      "t": 5067.413449999999,
      "d": 151.68532500000038,
      "v": 110
    },
    {
      "midi": 55,
      "hit": false,
      "t": 5224.716749999999,
      "d": 162.9212749999997,
      "v": 100
    },
    {
      "midi": 55,
      "hit": false,
      "t": 5224.716749999999,
      "d": 162.9212749999997,
      "v": 100
    },
    {
      "midi": 63,
      "hit": false,
      "t": 5224.71675,
      "d": 1039.3253749999994,
      "v": 110
    },
    {
      "midi": 75,
      "hit": false,
      "t": 5224.71675,
      "d": 1011.2354999999998,
      "v": 80
    },
    {
      "midi": 42,
      "hit": false,
      "t": 5224.71675,
      "d": 134.83140000000003,
      "v": 110
    },
    {
      "midi": 63,
      "hit": false,
      "t": 5224.71675,
      "d": 1039.3253749999994,
      "v": 110
    },
    {
      "midi": 37,
      "hit": false,
      "t": 5308.9863749999995,
      "d": 134.83140000000003,
      "v": 110
    },
    {
      "midi": 44,
      "hit": false,
      "t": 5393.2559999999985,
      "d": 162.9212749999997,
      "v": 100
    },
    {
      "midi": 39,
      "hit": false,
      "t": 5393.2559999999985,
      "d": 668.5390249999991,
      "v": 100
    },
    {
      "midi": 44,
      "hit": false,
      "t": 5393.2559999999985,
      "d": 162.9212749999997,
      "v": 100
    },
    {
      "midi": 39,
      "hit": false,
      "t": 5393.2559999999985,
      "d": 668.5390249999991,
      "v": 100
    },
    {
      "midi": 35,
      "hit": false,
      "t": 5404.49195,
      "d": 140.44937500000015,
      "v": 110
    },
    {
      "midi": 51,
      "hit": false,
      "t": 5561.795249999998,
      "d": 162.9212749999997,
      "v": 100
    },
    {
      "midi": 51,
      "hit": false,
      "t": 5561.795249999998,
      "d": 162.9212749999997,
      "v": 100
    },
    {
      "midi": 40,
      "hit": false,
      "t": 5719.09855,
      "d": 134.83140000000003,
      "v": 110
    },
    {
      "midi": 44,
      "hit": false,
      "t": 5730.334499999998,
      "d": 162.9212749999997,
      "v": 100
    },
    {
      "midi": 44,
      "hit": false,
      "t": 5730.334499999998,
      "d": 162.9212749999997,
      "v": 100
    },
    {
      "midi": 51,
      "hit": false,
      "t": 5898.873749999998,
      "d": 162.9212749999997,
      "v": 100
    },
    {
      "midi": 51,
      "hit": false,
      "t": 5898.873749999998,
      "d": 162.9212749999997,
      "v": 100
    },
    {
      "midi": 35,
      "hit": false,
      "t": 6061.795024999999,
      "d": 84.2696249999999,
      "v": 110
    },
    {
      "midi": 44,
      "hit": false,
      "t": 6067.412999999998,
      "d": 162.9212749999997,
      "v": 100
    },
    {
      "midi": 44,
      "hit": false,
      "t": 6067.412999999998,
      "d": 162.9212749999997,
      "v": 100
    },
    {
      "midi": 51,
      "hit": false,
      "t": 6235.952249999998,
      "d": 162.9212749999997,
      "v": 100
    },
    {
      "midi": 51,
      "hit": false,
      "t": 6235.952249999998,
      "d": 162.9212749999997,
      "v": 100
    },
    {
      "midi": 60,
      "hit": false,
      "t": 6235.952249999999,
      "d": 168.5392499999998,
      "v": 110
    },
    {
      "midi": 72,
      "hit": false,
      "t": 6235.952249999999,
      "d": 191.01114999999936,
      "v": 80
    },
    {
      "midi": 35,
      "hit": false,
      "t": 6235.952249999999,
      "d": 89.88760000000002,
      "v": 110
    },
    {
      "midi": 60,
      "hit": false,
      "t": 6235.952249999999,
      "d": 168.5392499999998,
      "v": 110
    },
    {
      "midi": 44,
      "hit": false,
      "t": 6404.491499999997,
      "d": 162.9212749999997,
      "v": 100
    },
    {
      "midi": 44,
      "hit": false,
      "t": 6404.491499999997,
      "d": 162.9212749999997,
      "v": 100
    },
    {
      "midi": 62,
      "hit": false,
      "t": 6404.491499999999,
      "d": 196.62912499999948,
      "v": 110
    },
    {
      "midi": 74,
      "hit": false,
      "t": 6404.491499999999,
      "d": 185.39317500000016,
      "v": 80
    },
    {
      "midi": 62,
      "hit": false,
      "t": 6404.491499999999,
      "d": 196.62912499999948,
      "v": 110
    },
    {
      "midi": 40,
      "hit": false,
      "t": 6421.3454249999995,
      "d": 112.35949999999957,
      "v": 110
    },
    {
      "midi": 51,
      "hit": false,
      "t": 6573.030749999997,
      "d": 162.9212749999997,
      "v": 100
    },
    {
      "midi": 51,
      "hit": false,
      "t": 6573.030749999997,
      "d": 162.9212749999997,
      "v": 100
    },
    {
      "midi": 63,
      "hit": false,
      "t": 6573.030749999999,
      "d": 174.15722499999993,
      "v": 110
    },
    {
      "midi": 75,
      "hit": false,
      "t": 6573.030749999999,
      "d": 174.15722500000084,
      "v": 80
    },
    {
      "midi": 63,
      "hit": false,
      "t": 6573.030749999999,
      "d": 174.15722499999993,
      "v": 110
    },
    {
      "midi": 46,
      "hit": false,
      "t": 6741.569999999997,
      "d": 162.9212749999997,
      "v": 100
    },
    {
      "midi": 41,
      "hit": false,
      "t": 6741.569999999997,
      "d": 668.5390249999991,
      "v": 100
    },
    {
      "midi": 46,
      "hit": false,
      "t": 6741.569999999997,
      "d": 162.9212749999997,
      "v": 100
    },
    {
      "midi": 41,
      "hit": false,
      "t": 6741.569999999997,
      "d": 668.5390249999991,
      "v": 100
    },
    {
      "midi": 65,
      "hit": false,
      "t": 6741.569999999999,
      "d": 337.07850000000053,
      "v": 110
    },
    {
      "midi": 35,
      "hit": false,
      "t": 6741.569999999999,
      "d": 134.83140000000003,
      "v": 110
    },
    {
      "midi": 65,
      "hit": false,
      "t": 6741.569999999999,
      "d": 337.07850000000053,
      "v": 110
    },
    {
      "midi": 74,
      "hit": false,
      "t": 6741.57,
      "d": 308.98862499999996,
      "v": 80
    },
    {
      "midi": 53,
      "hit": false,
      "t": 6910.109249999997,
      "d": 162.9212749999997,
      "v": 100
    },
    {
      "midi": 53,
      "hit": false,
      "t": 6910.109249999997,
      "d": 162.9212749999997,
      "v": 100
    },
    {
      "midi": 40,
      "hit": false,
      "t": 7073.030524999999,
      "d": 123.5954499999998,
      "v": 110
    },
    {
      "midi": 46,
      "hit": false,
      "t": 7078.648499999997,
      "d": 162.9212749999997,
      "v": 100
    },
    {
      "midi": 46,
      "hit": false,
      "t": 7078.648499999997,
      "d": 162.9212749999997,
      "v": 100
    },
    {
      "midi": 63,
      "hit": false,
      "t": 7078.648499999999,
      "d": 185.39317500000016,
      "v": 110
    },
    {
      "midi": 72,
      "hit": false,
      "t": 7078.648499999999,
      "d": 202.2470999999996,
      "v": 80
    },
    {
      "midi": 63,
      "hit": false,
      "t": 7078.648499999999,
      "d": 185.39317500000016,
      "v": 110
    },
    {
      "midi": 53,
      "hit": false,
      "t": 7247.187749999996,
      "d": 162.9212749999997,
      "v": 100
    },
    {
      "midi": 53,
      "hit": false,
      "t": 7247.187749999996,
      "d": 162.9212749999997,
      "v": 100
    },
    {
      "midi": 65,
      "hit": false,
      "t": 7247.187749999999,
      "d": 146.06735000000026,
      "v": 110
    },
    {
      "midi": 74,
      "hit": false,
      "t": 7247.187749999999,
      "d": 157.30329999999958,
      "v": 80
    },
    {
      "midi": 65,
      "hit": false,
      "t": 7247.187749999999,
      "d": 146.06735000000026,
      "v": 110
    },
    {
      "midi": 35,
      "hit": false,
      "t": 7404.491049999999,
      "d": 89.88760000000002,
      "v": 110
    },
    {
      "midi": 46,
      "hit": false,
      "t": 7415.726999999996,
      "d": 162.9212749999997,
      "v": 100
    },
    {
      "midi": 46,
      "hit": false,
      "t": 7415.726999999996,
      "d": 162.9212749999997,
      "v": 100
    },
    {
      "midi": 35,
      "hit": false,
      "t": 7567.412324999998,
      "d": 117.97747499999969,
      "v": 110
    },
    {
      "midi": 53,
      "hit": false,
      "t": 7584.266249999996,
      "d": 162.9212749999997,
      "v": 100
    },
    {
      "midi": 53,
      "hit": false,
      "t": 7584.266249999996,
      "d": 162.9212749999997,
      "v": 100
    },
    {
      "midi": 75,
      "hit": false,
      "t": 7584.266249999999,
      "d": 252.80887499999972,
      "v": 80
    },
    {
      "midi": 67,
      "hit": false,
      "t": 7584.26625,
      "d": 168.5392499999998,
      "v": 110
    },
    {
      "midi": 67,
      "hit": false,
      "t": 7584.26625,
      "d": 168.5392499999998,
      "v": 110
    },
    {
      "midi": 46,
      "hit": false,
      "t": 7752.805499999996,
      "d": 162.9212749999997,
      "v": 100
    },
    {
      "midi": 46,
      "hit": false,
      "t": 7752.805499999996,
      "d": 162.9212749999997,
      "v": 100
    },
    {
      "midi": 40,
      "hit": false,
      "t": 7752.805499999998,
      "d": 134.83140000000003,
      "v": 110
    },
    {
      "midi": 53,
      "hit": false,
      "t": 7921.344749999996,
      "d": 162.9212749999997,
      "v": 100
    },
    {
      "midi": 53,
      "hit": false,
      "t": 7921.344749999996,
      "d": 162.9212749999997,
      "v": 100
    },
    {
      "midi": 42,
      "hit": false,
      "t": 7921.3447499999975,
      "d": 134.83140000000003,
      "v": 110
    },
    {
      "midi": 72,
      "hit": false,
      "t": 7921.344749999998,
      "d": 1016.8534749999999,
      "v": 80
    },
    {
      "midi": 60,
      "hit": false,
      "t": 7921.344749999999,
      "d": 999.9995499999995,
      "v": 110
    },
    {
      "midi": 60,
      "hit": false,
      "t": 7921.344749999999,
      "d": 999.9995499999995,
      "v": 110
    },
    {
      "midi": 37,
      "hit": false,
      "t": 8005.614374999997,
      "d": 134.83140000000003,
      "v": 110
    },
    {
      "midi": 35,
      "hit": false,
      "t": 8084.266024999997,
      "d": 134.83140000000094,
      "v": 110
    },
    {
      "midi": 48,
      "hit": false,
      "t": 8089.8839999999955,
      "d": 162.9212749999997,
      "v": 100
    },
    {
      "midi": 36,
      "hit": false,
      "t": 8089.8839999999955,
      "d": 1342.6960249999984,
      "v": 100
    },
    {
      "midi": 48,
      "hit": false,
      "t": 8089.8839999999955,
      "d": 162.9212749999997,
      "v": 100
    },
    {
      "midi": 36,
      "hit": false,
      "t": 8089.8839999999955,
      "d": 1342.6960249999984,
      "v": 100
    },
    {
      "midi": 55,
      "hit": false,
      "t": 8258.423249999994,
      "d": 162.9212750000006,
      "v": 100
    },
    {
      "midi": 55,
      "hit": false,
      "t": 8258.423249999994,
      "d": 162.9212750000006,
      "v": 100
    },
    {
      "midi": 48,
      "hit": false,
      "t": 8426.962499999994,
      "d": 162.9212750000006,
      "v": 100
    },
    {
      "midi": 48,
      "hit": false,
      "t": 8426.962499999994,
      "d": 162.9212750000006,
      "v": 100
    },
    {
      "midi": 40,
      "hit": false,
      "t": 8438.198449999998,
      "d": 106.74152499999946,
      "v": 110
    },
    {
      "midi": 55,
      "hit": false,
      "t": 8595.501749999994,
      "d": 162.9212750000006,
      "v": 100
    },
    {
      "midi": 55,
      "hit": false,
      "t": 8595.501749999994,
      "d": 162.9212750000006,
      "v": 100
    },
    {
      "midi": 35,
      "hit": false,
      "t": 8758.423024999998,
      "d": 89.88760000000002,
      "v": 110
    },
    {
      "midi": 48,
      "hit": false,
      "t": 8764.040999999994,
      "d": 162.9212750000006,
      "v": 100
    },
    {
      "midi": 48,
      "hit": false,
      "t": 8764.040999999994,
      "d": 162.9212750000006,
      "v": 100
    },
    {
      "midi": 55,
      "hit": false,
      "t": 8932.580249999994,
      "d": 162.9212750000006,
      "v": 100
    },
    {
      "midi": 55,
      "hit": false,
      "t": 8932.580249999994,
      "d": 162.9212750000006,
      "v": 100
    },
    {
      "midi": 62,
      "hit": false,
      "t": 8932.580249999999,
      "d": 185.39317499999925,
      "v": 110
    },
    {
      "midi": 74,
      "hit": false,
      "t": 8932.580249999999,
      "d": 157.30329999999958,
      "v": 80
    },
    {
      "midi": 35,
      "hit": false,
      "t": 8932.580249999999,
      "d": 101.12355000000025,
      "v": 110
    },
    {
      "midi": 62,
      "hit": false,
      "t": 8932.580249999999,
      "d": 185.39317499999925,
      "v": 110
    },
    {
      "midi": 48,
      "hit": false,
      "t": 9101.119499999993,
      "d": 162.9212750000006,
      "v": 100
    },
    {
      "midi": 48,
      "hit": false,
      "t": 9101.119499999993,
      "d": 162.9212750000006,
      "v": 100
    },
    {
      "midi": 63,
      "hit": false,
      "t": 9101.119499999999,
      "d": 224.71899999999914,
      "v": 110
    },
    {
      "midi": 75,
      "hit": false,
      "t": 9101.119499999999,
      "d": 174.15722499999902,
      "v": 80
    },
    {
      "midi": 63,
      "hit": false,
      "t": 9101.119499999999,
      "d": 224.71899999999914,
      "v": 110
    },
    {
      "midi": 40,
      "hit": false,
      "t": 9106.737475,
      "d": 129.21342499999992,
      "v": 110
    },
    {
      "midi": 55,
      "hit": false,
      "t": 9269.658749999993,
      "d": 162.9212750000006,
      "v": 100
    },
    {
      "midi": 55,
      "hit": false,
      "t": 9269.658749999993,
      "d": 162.9212750000006,
      "v": 100
    },
    {
      "midi": 65,
      "hit": false,
      "t": 9269.658749999999,
      "d": 207.8650749999997,
      "v": 110
    },
    {
      "midi": 74,
      "hit": false,
      "t": 9269.658749999999,
      "d": 179.77520000000004,
      "v": 80
    },
    {
      "midi": 65,
      "hit": false,
      "t": 9269.658749999999,
      "d": 207.8650749999997,
      "v": 110
    },
    {
      "midi": 48,
      "hit": false,
      "t": 9438.197999999993,
      "d": 162.9212750000006,
      "v": 100
    },
    {
      "midi": 48,
      "hit": false,
      "t": 9438.197999999993,
      "d": 162.9212750000006,
      "v": 100
    },
    {
      "midi": 67,
      "hit": false,
      "t": 9438.197999999999,
      "d": 353.93242499999906,
      "v": 110
    },
    {
      "midi": 75,
      "hit": false,
      "t": 9438.197999999999,
      "d": 342.6964749999988,
      "v": 80
    },
    {
      "midi": 67,
      "hit": false,
      "t": 9438.197999999999,
      "d": 353.93242499999906,
      "v": 110
    },
    {
      "midi": 35,
      "hit": false,
      "t": 9443.815975,
      "d": 123.59545000000071,
      "v": 110
    },
    {
      "midi": 55,
      "hit": false,
      "t": 9606.737249999993,
      "d": 162.9212750000006,
      "v": 100
    },
    {
      "midi": 55,
      "hit": false,
      "t": 9606.737249999993,
      "d": 162.9212750000006,
      "v": 100
    },
    {
      "midi": 65,
      "hit": false,
      "t": 9775.276499999998,
      "d": 207.8650749999997,
      "v": 110
    },
    {
      "midi": 74,
      "hit": false,
      "t": 9775.276499999998,
      "d": 191.01115000000027,
      "v": 80
    },
    {
      "midi": 65,
      "hit": false,
      "t": 9775.276499999998,
      "d": 207.8650749999997,
      "v": 110
    },
    {
      "midi": 48,
      "hit": false,
      "t": 9786.512449999993,
      "d": 162.9212749999988,
      "v": 100
    },
    {
      "midi": 48,
      "hit": false,
      "t": 9786.512449999993,
      "d": 162.9212749999988,
      "v": 100
    },
    {
      "midi": 40,
      "hit": false,
      "t": 9797.7484,
      "d": 129.21342499999992,
      "v": 110
    },
    {
      "midi": 55,
      "hit": false,
      "t": 9943.815749999992,
      "d": 162.9212749999988,
      "v": 100
    },
    {
      "midi": 55,
      "hit": false,
      "t": 9943.815749999992,
      "d": 162.9212749999988,
      "v": 100
    },
    {
      "midi": 67,
      "hit": false,
      "t": 9943.815749999998,
      "d": 112.35950000000048,
      "v": 110
    },
    {
      "midi": 75,
      "hit": false,
      "t": 9943.815749999998,
      "d": 168.5392499999998,
      "v": 80
    },
    {
      "midi": 67,
      "hit": false,
      "t": 9943.815749999998,
      "d": 112.35950000000048,
      "v": 110
    },
    {
      "midi": 48,
      "hit": false,
      "t": 10112.35499999999,
      "d": 162.9212750000006,
      "v": 100
    },
    {
      "midi": 48,
      "hit": false,
      "t": 10112.35499999999,
      "d": 162.9212750000006,
      "v": 100
    },
    {
      "midi": 35,
      "hit": false,
      "t": 10117.972975,
      "d": 78.65164999999979,
      "v": 110
    },
    {
      "midi": 55,
      "hit": false,
      "t": 10280.89424999999,
      "d": 162.9212750000006,
      "v": 100
    },
    {
      "midi": 55,
      "hit": false,
      "t": 10280.89424999999,
      "d": 162.9212750000006,
      "v": 100
    },
    {
      "midi": 72,
      "hit": false,
      "t": 10280.894249999998,
      "d": 146.06734999999935,
      "v": 110
    },
    {
      "midi": 77,
      "hit": false,
      "t": 10280.894249999998,
      "d": 179.77520000000004,
      "v": 80
    },
    {
      "midi": 72,
      "hit": false,
      "t": 10280.894249999998,
      "d": 146.06734999999935,
      "v": 110
    },
    {
      "midi": 35,
      "hit": false,
      "t": 10286.512225,
      "d": 89.88760000000002,
      "v": 110
    },
    {
      "midi": 48,
      "hit": false,
      "t": 10449.43349999999,
      "d": 162.9212750000006,
      "v": 100
    },
    {
      "midi": 48,
      "hit": false,
      "t": 10449.43349999999,
      "d": 162.9212750000006,
      "v": 100
    },
    {
      "midi": 40,
      "hit": false,
      "t": 10460.669450000001,
      "d": 129.21342499999992,
      "v": 110
    },
    {
      "midi": 55,
      "hit": false,
      "t": 10617.97274999999,
      "d": 162.9212750000006,
      "v": 100
    },
    {
      "midi": 55,
      "hit": false,
      "t": 10617.97274999999,
      "d": 162.9212750000006,
      "v": 100
    },
    {
      "midi": 63,
      "hit": false,
      "t": 10617.972749999997,
      "d": 943.8197999999993,
      "v": 110
    },
    {
      "midi": 75,
      "hit": false,
      "t": 10617.972749999997,
      "d": 999.9995500000005,
      "v": 80
    },
    {
      "midi": 63,
      "hit": false,
      "t": 10617.972749999997,
      "d": 943.8197999999993,
      "v": 110
    },
    {
      "midi": 42,
      "hit": false,
      "t": 10617.97275,
      "d": 134.83140000000094,
      "v": 110
    },
    {
      "midi": 37,
      "hit": false,
      "t": 10702.242375000002,
      "d": 134.83140000000094,
      "v": 110
    },
    {
      "midi": 44,
      "hit": false,
      "t": 10786.51199999999,
      "d": 162.9212750000006,
      "v": 100
    },
    {
      "midi": 39,
      "hit": false,
      "t": 10786.51199999999,
      "d": 668.539025,
      "v": 100
    },
    {
      "midi": 44,
      "hit": false,
      "t": 10786.51199999999,
      "d": 162.9212750000006,
      "v": 100
    },
    {
      "midi": 39,
      "hit": false,
      "t": 10786.51199999999,
      "d": 668.539025,
      "v": 100
    },
    {
      "midi": 35,
      "hit": false,
      "t": 10786.512000000002,
      "d": 89.88760000000002,
      "v": 110
    },
    {
      "midi": 51,
      "hit": false,
      "t": 10955.05124999999,
      "d": 162.9212750000006,
      "v": 100
    },
    {
      "midi": 51,
      "hit": false,
      "t": 10955.05124999999,
      "d": 162.9212750000006,
      "v": 100
    },
    {
      "midi": 44,
      "hit": false,
      "t": 11123.59049999999,
      "d": 162.9212750000006,
      "v": 100
    },
    {
      "midi": 44,
      "hit": false,
      "t": 11123.59049999999,
      "d": 162.9212750000006,
      "v": 100
    },
    {
      "midi": 40,
      "hit": false,
      "t": 11146.062400000003,
      "d": 129.21342499999992,
      "v": 110
    },
    {
      "midi": 51,
      "hit": false,
      "t": 11292.12974999999,
      "d": 162.9212750000006,
      "v": 100
    },
    {
      "midi": 51,
      "hit": false,
      "t": 11292.12974999999,
      "d": 162.9212750000006,
      "v": 100
    },
    {
      "midi": 44,
      "hit": false,
      "t": 11460.668999999989,
      "d": 162.9212750000006,
      "v": 100
    },
    {
      "midi": 44,
      "hit": false,
      "t": 11460.668999999989,
      "d": 162.9212750000006,
      "v": 100
    },
    {
      "midi": 35,
      "hit": false,
      "t": 11477.522925000003,
      "d": 117.97747499999969,
      "v": 110
    },
    {
      "midi": 51,
      "hit": false,
      "t": 11629.208249999989,
      "d": 162.9212750000006,
      "v": 100
    },
    {
      "midi": 51,
      "hit": false,
      "t": 11629.208249999989,
      "d": 162.9212750000006,
      "v": 100
    },
    {
      "midi": 60,
      "hit": false,
      "t": 11629.208249999996,
      "d": 196.62912499999948,
      "v": 110
    },
    {
      "midi": 60,
      "hit": false,
      "t": 11629.208249999996,
      "d": 196.62912499999948,
      "v": 110
    },
    {
      "midi": 72,
      "hit": false,
      "t": 11629.208249999998,
      "d": 185.39317499999925,
      "v": 80
    },
    {
      "midi": 35,
      "hit": false,
      "t": 11629.208250000003,
      "d": 101.12355000000025,
      "v": 110
    },
    {
      "midi": 44,
      "hit": false,
      "t": 11797.747499999989,
      "d": 162.9212750000006,
      "v": 100
    },
    {
      "midi": 44,
      "hit": false,
      "t": 11797.747499999989,
      "d": 162.9212750000006,
      "v": 100
    },
    {
      "midi": 62,
      "hit": false,
      "t": 11797.747499999996,
      "d": 196.62912499999948,
      "v": 110
    },
    {
      "midi": 62,
      "hit": false,
      "t": 11797.747499999996,
      "d": 196.62912499999948,
      "v": 110
    },
    {
      "midi": 74,
      "hit": false,
      "t": 11797.747499999998,
      "d": 174.15722499999902,
      "v": 80
    },
    {
      "midi": 40,
      "hit": false,
      "t": 11797.747500000003,
      "d": 123.59545000000071,
      "v": 110
    },
    {
      "midi": 51,
      "hit": false,
      "t": 11966.286749999988,
      "d": 162.9212750000006,
      "v": 100
    },
    {
      "midi": 51,
      "hit": false,
      "t": 11966.286749999988,
      "d": 162.9212750000006,
      "v": 100
    },
    {
      "midi": 63,
      "hit": false,
      "t": 11966.286749999996,
      "d": 151.68532500000038,
      "v": 110
    },
    {
      "midi": 63,
      "hit": false,
      "t": 11966.286749999996,
      "d": 151.68532500000038,
      "v": 110
    },
    {
      "midi": 75,
      "hit": false,
      "t": 11966.286749999997,
      "d": 191.01115000000027,
      "v": 80
    },
    {
      "midi": 46,
      "hit": false,
      "t": 12134.825999999988,
      "d": 162.9212750000006,
      "v": 100
    },
    {
      "midi": 41,
      "hit": false,
      "t": 12134.825999999988,
      "d": 668.539025,
      "v": 100
    },
    {
      "midi": 46,
      "hit": false,
      "t": 12134.825999999988,
      "d": 162.9212750000006,
      "v": 100
    },
    {
      "midi": 41,
      "hit": false,
      "t": 12134.825999999988,
      "d": 668.539025,
      "v": 100
    },
    {
      "midi": 65,
      "hit": false,
      "t": 12134.825999999995,
      "d": 370.7863500000003,
      "v": 110
    },
    {
      "midi": 65,
      "hit": false,
      "t": 12134.825999999995,
      "d": 370.7863500000003,
      "v": 110
    },
    {
      "midi": 74,
      "hit": false,
      "t": 12134.825999999997,
      "d": 342.6964749999988,
      "v": 80
    },
    {
      "midi": 35,
      "hit": false,
      "t": 12146.061950000003,
      "d": 101.12355000000025,
      "v": 110
    },
    {
      "midi": 53,
      "hit": false,
      "t": 12303.365249999988,
      "d": 162.9212750000006,
      "v": 100
    },
    {
      "midi": 53,
      "hit": false,
      "t": 12303.365249999988,
      "d": 162.9212750000006,
      "v": 100
    },
    {
      "midi": 46,
      "hit": false,
      "t": 12471.904499999988,
      "d": 162.9212750000006,
      "v": 100
    },
    {
      "midi": 46,
      "hit": false,
      "t": 12471.904499999988,
      "d": 162.9212750000006,
      "v": 100
    },
    {
      "midi": 63,
      "hit": false,
      "t": 12471.904499999995,
      "d": 191.01115000000027,
      "v": 110
    },
    {
      "midi": 63,
      "hit": false,
      "t": 12471.904499999995,
      "d": 191.01115000000027,
      "v": 110
    },
    {
      "midi": 72,
      "hit": false,
      "t": 12471.904499999997,
      "d": 185.39317499999925,
      "v": 80
    },
    {
      "midi": 40,
      "hit": false,
      "t": 12499.994375000004,
      "d": 106.74152499999946,
      "v": 110
    },
    {
      "midi": 53,
      "hit": false,
      "t": 12640.443749999988,
      "d": 162.9212750000006,
      "v": 100
    },
    {
      "midi": 53,
      "hit": false,
      "t": 12640.443749999988,
      "d": 162.9212750000006,
      "v": 100
    },
    {
      "midi": 65,
      "hit": false,
      "t": 12640.443749999995,
      "d": 134.83140000000094,
      "v": 110
    },
    {
      "midi": 65,
      "hit": false,
      "t": 12640.443749999995,
      "d": 134.83140000000094,
      "v": 110
    },
    {
      "midi": 74,
      "hit": false,
      "t": 12640.443749999997,
      "d": 151.68532499999856,
      "v": 80
    },
    {
      "midi": 46,
      "hit": false,
      "t": 12808.982999999987,
      "d": 162.9212750000006,
      "v": 100
    },
    {
      "midi": 46,
      "hit": false,
      "t": 12808.982999999987,
      "d": 162.9212750000006,
      "v": 100
    },
    {
      "midi": 35,
      "hit": false,
      "t": 12831.454900000002,
      "d": 73.03367500000058,
      "v": 110
    },
    {
      "midi": 53,
      "hit": false,
      "t": 12977.522249999987,
      "d": 162.9212750000006,
      "v": 100
    },
    {
      "midi": 53,
      "hit": false,
      "t": 12977.522249999987,
      "d": 162.9212750000006,
      "v": 100
    },
    {
      "midi": 75,
      "hit": false,
      "t": 12977.522249999995,
      "d": 157.30329999999958,
      "v": 80
    },
    {
      "midi": 67,
      "hit": false,
      "t": 12977.522249999996,
      "d": 146.06734999999935,
      "v": 110
    },
    {
      "midi": 67,
      "hit": false,
      "t": 12977.522249999996,
      "d": 146.06734999999935,
      "v": 110
    },
    {
      "midi": 35,
      "hit": false,
      "t": 12983.140225000003,
      "d": 95.50557499999923,
      "v": 110
    },
    {
      "midi": 40,
      "hit": false,
      "t": 13140.443525000002,
      "d": 117.97747499999969,
      "v": 110
    },
    {
      "midi": 46,
      "hit": false,
      "t": 13146.061499999987,
      "d": 162.9212750000006,
      "v": 100
    },
    {
      "midi": 46,
      "hit": false,
      "t": 13146.061499999987,
      "d": 162.9212750000006,
      "v": 100
    },
    {
      "midi": 53,
      "hit": false,
      "t": 13314.600749999987,
      "d": 162.9212750000006,
      "v": 100
    },
    {
      "midi": 53,
      "hit": false,
      "t": 13314.600749999987,
      "d": 162.9212750000006,
      "v": 100
    },
    {
      "midi": 75,
      "hit": false,
      "t": 13314.600749999994,
      "d": 207.8650749999997,
      "v": 80
    },
    {
      "midi": 67,
      "hit": false,
      "t": 13314.600749999996,
      "d": 117.97747499999969,
      "v": 110
    },
    {
      "midi": 67,
      "hit": false,
      "t": 13314.600749999996,
      "d": 117.97747499999969,
      "v": 110
    },
    {
      "midi": 42,
      "hit": false,
      "t": 13314.600750000001,
      "d": 134.83140000000094,
      "v": 110
    },
    {
      "midi": 37,
      "hit": false,
      "t": 13398.870375000002,
      "d": 134.83139999999912,
      "v": 110
    },
    {
      "midi": 44,
      "hit": false,
      "t": 13483.139999999987,
      "d": 162.9212750000006,
      "v": 100
    },
    {
      "midi": 39,
      "hit": false,
      "t": 13483.139999999987,
      "d": 331.4605250000004,
      "v": 100
    },
    {
      "midi": 44,
      "hit": false,
      "t": 13483.139999999987,
      "d": 162.9212750000006,
      "v": 100
    },
    {
      "midi": 39,
      "hit": false,
      "t": 13483.139999999987,
      "d": 331.4605250000004,
      "v": 100
    },
    {
      "midi": 77,
      "hit": false,
      "t": 13483.139999999994,
      "d": 84.269624999999,
      "v": 80
    },
    {
      "midi": 68,
      "hit": false,
      "t": 13483.139999999996,
      "d": 89.88760000000002,
      "v": 110
    },
    {
      "midi": 68,
      "hit": false,
      "t": 13483.139999999996,
      "d": 89.88760000000002,
      "v": 110
    },
    {
      "midi": 35,
      "hit": false,
      "t": 13494.375950000001,
      "d": 95.50557499999923,
      "v": 110
    },
    {
      "midi": 51,
      "hit": false,
      "t": 13651.679249999986,
      "d": 162.9212750000006,
      "v": 100
    },
    {
      "midi": 51,
      "hit": false,
      "t": 13651.679249999986,
      "d": 162.9212750000006,
      "v": 100
    },
    {
      "midi": 77,
      "hit": false,
      "t": 13651.679249999994,
      "d": 84.26962500000081,
      "v": 80
    },
    {
      "midi": 68,
      "hit": false,
      "t": 13651.679249999996,
      "d": 95.50557499999923,
      "v": 110
    },
    {
      "midi": 68,
      "hit": false,
      "t": 13651.679249999996,
      "d": 95.50557499999923,
      "v": 110
    },
    {
      "midi": 44,
      "hit": false,
      "t": 13820.218499999986,
      "d": 162.9212750000006,
      "v": 100
    },
    {
      "midi": 44,
      "hit": false,
      "t": 13820.218499999986,
      "d": 162.9212750000006,
      "v": 100
    },
    {
      "midi": 68,
      "hit": false,
      "t": 13820.218499999995,
      "d": 117.97747499999969,
      "v": 110
    },
    {
      "midi": 77,
      "hit": false,
      "t": 13820.218499999995,
      "d": 84.26962500000081,
      "v": 80
    },
    {
      "midi": 68,
      "hit": false,
      "t": 13820.218499999995,
      "d": 117.97747499999969,
      "v": 110
    },
    {
      "midi": 40,
      "hit": false,
      "t": 13831.454450000001,
      "d": 117.97747499999969,
      "v": 110
    },
    {
      "midi": 51,
      "hit": false,
      "t": 13988.757749999986,
      "d": 162.9212750000006,
      "v": 100
    },
    {
      "midi": 51,
      "hit": false,
      "t": 13988.757749999986,
      "d": 162.9212750000006,
      "v": 100
    },
    {
      "midi": 67,
      "hit": false,
      "t": 13988.757749999995,
      "d": 117.97747499999969,
      "v": 110
    },
    {
      "midi": 67,
      "hit": false,
      "t": 13988.757749999995,
      "d": 117.97747499999969,
      "v": 110
    },
    {
      "midi": 75,
      "hit": false,
      "t": 13988.757749999997,
      "d": 129.21342499999992,
      "v": 80
    },
    {
      "midi": 35,
      "hit": false,
      "t": 13988.75775,
      "d": 101.12355000000025,
      "v": 110
    },
    {
      "midi": 43,
      "hit": false,
      "t": 14157.296999999986,
      "d": 162.9212750000006,
      "v": 100
    },
    {
      "midi": 41,
      "hit": false,
      "t": 14157.296999999986,
      "d": 331.4605250000004,
      "v": 100
    },
    {
      "midi": 43,
      "hit": false,
      "t": 14157.296999999986,
      "d": 162.9212750000006,
      "v": 100
    },
    {
      "midi": 41,
      "hit": false,
      "t": 14157.296999999986,
      "d": 331.4605250000004,
      "v": 100
    },
    {
      "midi": 35,
      "hit": false,
      "t": 14157.297,
      "d": 84.26962500000081,
      "v": 110
    },
    {
      "midi": 50,
      "hit": false,
      "t": 14325.836249999986,
      "d": 162.9212750000006,
      "v": 100
    },
    {
      "midi": 50,
      "hit": false,
      "t": 14325.836249999986,
      "d": 162.9212750000006,
      "v": 100
    },
    {
      "midi": 67,
      "hit": false,
      "t": 14325.836249999995,
      "d": 157.30329999999958,
      "v": 110
    },
    {
      "midi": 67,
      "hit": false,
      "t": 14325.836249999995,
      "d": 157.30329999999958,
      "v": 110
    },
    {
      "midi": 74,
      "hit": false,
      "t": 14325.836249999997,
      "d": 157.30329999999958,
      "v": 80
    },
    {
      "midi": 35,
      "hit": false,
      "t": 14331.454225000001,
      "d": 95.50557499999923,
      "v": 110
    },
    {
      "midi": 43,
      "hit": false,
      "t": 14494.375499999986,
      "d": 162.9212750000006,
      "v": 100
    },
    {
      "midi": 43,
      "hit": false,
      "t": 14494.375499999986,
      "d": 162.9212750000006,
      "v": 100
    },
    {
      "midi": 40,
      "hit": false,
      "t": 14499.993475000001,
      "d": 117.97747499999969,
      "v": 110
    },
    {
      "midi": 50,
      "hit": false,
      "t": 14662.914749999985,
      "d": 162.9212750000006,
      "v": 100
    },
    {
      "midi": 50,
      "hit": false,
      "t": 14662.914749999985,
      "d": 162.9212750000006,
      "v": 100
    },
    {
      "midi": 63,
      "hit": false,
      "t": 14662.914749999994,
      "d": 101.12355000000025,
      "v": 110
    },
    {
      "midi": 63,
      "hit": false,
      "t": 14662.914749999994,
      "d": 101.12355000000025,
      "v": 110
    },
    {
      "midi": 72,
      "hit": false,
      "t": 14662.914749999996,
      "d": 101.12355000000025,
      "v": 80
    },
    {
      "midi": 48,
      "hit": false,
      "t": 14831.453999999985,
      "d": 162.9212750000006,
      "v": 100
    },
    {
      "midi": 43,
      "hit": false,
      "t": 14831.453999999985,
      "d": 668.539025,
      "v": 100
    },
    {
      "midi": 48,
      "hit": false,
      "t": 14831.453999999985,
      "d": 162.9212750000006,
      "v": 100
    },
    {
      "midi": 43,
      "hit": false,
      "t": 14831.453999999985,
      "d": 668.539025,
      "v": 100
    },
    {
      "midi": 67,
      "hit": false,
      "t": 14831.453999999994,
      "d": 134.83139999999912,
      "v": 110
    },
    {
      "midi": 67,
      "hit": false,
      "t": 14831.453999999994,
      "d": 134.83139999999912,
      "v": 110
    },
    {
      "midi": 75,
      "hit": false,
      "t": 14831.453999999996,
      "d": 168.5392499999998,
      "v": 80
    },
    {
      "midi": 35,
      "hit": false,
      "t": 14837.071975,
      "d": 84.26962500000081,
      "v": 110
    },
    {
      "midi": 55,
      "hit": false,
      "t": 14999.993249999985,
      "d": 162.9212750000006,
      "v": 100
    },
    {
      "midi": 55,
      "hit": false,
      "t": 14999.993249999985,
      "d": 162.9212750000006,
      "v": 100
    },
    {
      "midi": 40,
      "hit": false,
      "t": 15157.296550000001,
      "d": 146.06734999999935,
      "v": 110
    },
    {
      "midi": 48,
      "hit": false,
      "t": 15168.532499999985,
      "d": 162.9212750000006,
      "v": 100
    },
    {
      "midi": 48,
      "hit": false,
      "t": 15168.532499999985,
      "d": 162.9212750000006,
      "v": 100
    },
    {
      "midi": 67,
      "hit": false,
      "t": 15168.532499999994,
      "d": 921.3479000000007,
      "v": 110
    },
    {
      "midi": 67,
      "hit": false,
      "t": 15168.532499999994,
      "d": 921.3479000000007,
      "v": 110
    },
    {
      "midi": 75,
      "hit": false,
      "t": 15168.532499999996,
      "d": 488.763825,
      "v": 80
    },
    {
      "midi": 55,
      "hit": false,
      "t": 15337.071749999985,
      "d": 162.9212750000006,
      "v": 100
    },
    {
      "midi": 55,
      "hit": false,
      "t": 15337.071749999985,
      "d": 162.9212750000006,
      "v": 100
    },
    {
      "midi": 35,
      "hit": false,
      "t": 15337.071750000001,
      "d": 101.12355000000025,
      "v": 110
    },
    {
      "midi": 48,
      "hit": false,
      "t": 15505.610999999984,
      "d": 162.9212750000006,
      "v": 100
    },
    {
      "midi": 48,
      "hit": false,
      "t": 15505.610999999984,
      "d": 162.9212750000006,
      "v": 100
    },
    {
      "midi": 35,
      "hit": false,
      "t": 15516.846950000001,
      "d": 78.65164999999979,
      "v": 110
    },
    {
      "midi": 55,
      "hit": false,
      "t": 15674.150249999984,
      "d": 162.9212750000006,
      "v": 100
    },
    {
      "midi": 55,
      "hit": false,
      "t": 15674.150249999984,
      "d": 162.9212750000006,
      "v": 100
    },
    {
      "midi": 74,
      "hit": false,
      "t": 15674.150249999995,
      "d": 174.15722499999902,
      "v": 80
    },
    {
      "midi": 35,
      "hit": false,
      "t": 15685.3862,
      "d": 101.12355000000025,
      "v": 110
    },
    {
      "midi": 48,
      "hit": false,
      "t": 15842.689499999984,
      "d": 162.9212750000006,
      "v": 100
    },
    {
      "midi": 48,
      "hit": false,
      "t": 15842.689499999984,
      "d": 162.9212750000006,
      "v": 100
    },
    {
      "midi": 75,
      "hit": false,
      "t": 15842.689499999995,
      "d": 342.6964749999988,
      "v": 80
    },
    {
      "midi": 40,
      "hit": false,
      "t": 15853.92545,
      "d": 151.68532500000038,
      "v": 110
    },
    {
      "midi": 55,
      "hit": false,
      "t": 16011.228749999984,
      "d": 162.9212750000006,
      "v": 100
    },
    {
      "midi": 55,
      "hit": false,
      "t": 16011.228749999984,
      "d": 162.9212750000006,
      "v": 100
    },
    {
      "midi": 42,
      "hit": false,
      "t": 16011.22875,
      "d": 134.83140000000094,
      "v": 110
    },
    {
      "midi": 37,
      "hit": false,
      "t": 16095.498375000001,
      "d": 134.83139999999912,
      "v": 110
    },
    {
      "midi": 44,
      "hit": false,
      "t": 16179.767999999984,
      "d": 162.9212750000006,
      "v": 100
    },
    {
      "midi": 39,
      "hit": false,
      "t": 16179.767999999984,
      "d": 331.4605250000004,
      "v": 100
    },
    {
      "midi": 44,
      "hit": false,
      "t": 16179.767999999984,
      "d": 162.9212750000006,
      "v": 100
    },
    {
      "midi": 39,
      "hit": false,
      "t": 16179.767999999984,
      "d": 331.4605250000004,
      "v": 100
    },
    {
      "midi": 68,
      "hit": false,
      "t": 16179.767999999995,
      "d": 67.41569999999956,
      "v": 110
    },
    {
      "midi": 77,
      "hit": false,
      "t": 16179.767999999995,
      "d": 78.65164999999979,
      "v": 80
    },
    {
      "midi": 68,
      "hit": false,
      "t": 16179.767999999995,
      "d": 67.41569999999956,
      "v": 110
    },
    {
      "midi": 35,
      "hit": false,
      "t": 16202.2399,
      "d": 73.03367499999877,
      "v": 110
    },
    {
      "midi": 51,
      "hit": false,
      "t": 16348.307249999983,
      "d": 162.9212750000006,
      "v": 100
    },
    {
      "midi": 51,
      "hit": false,
      "t": 16348.307249999983,
      "d": 162.9212750000006,
      "v": 100
    },
    {
      "midi": 68,
      "hit": false,
      "t": 16348.307249999994,
      "d": 84.26962500000081,
      "v": 110
    },
    {
      "midi": 77,
      "hit": false,
      "t": 16348.307249999994,
      "d": 89.8875999999982,
      "v": 80
    },
    {
      "midi": 68,
      "hit": false,
      "t": 16348.307249999994,
      "d": 84.26962500000081,
      "v": 110
    },
    {
      "midi": 44,
      "hit": false,
      "t": 16516.846499999985,
      "d": 162.9212750000006,
      "v": 100
    },
    {
      "midi": 44,
      "hit": false,
      "t": 16516.846499999985,
      "d": 162.9212750000006,
      "v": 100
    },
    {
      "midi": 77,
      "hit": false,
      "t": 16516.846499999992,
      "d": 84.26962500000081,
      "v": 80
    },
    {
      "midi": 68,
      "hit": false,
      "t": 16516.846499999996,
      "d": 112.35949999999866,
      "v": 110
    },
    {
      "midi": 68,
      "hit": false,
      "t": 16516.846499999996,
      "d": 112.35949999999866,
      "v": 110
    },
    {
      "midi": 40,
      "hit": false,
      "t": 16550.55435,
      "d": 112.35949999999866,
      "v": 110
    },
    {
      "midi": 51,
      "hit": false,
      "t": 16685.385749999987,
      "d": 162.9212750000006,
      "v": 100
    },
    {
      "midi": 51,
      "hit": false,
      "t": 16685.385749999987,
      "d": 162.9212750000006,
      "v": 100
    },
    {
      "midi": 67,
      "hit": false,
      "t": 16685.385749999994,
      "d": 123.59545000000071,
      "v": 110
    },
    {
      "midi": 75,
      "hit": false,
      "t": 16685.385749999994,
      "d": 123.59545000000071,
      "v": 80
    },
    {
      "midi": 67,
      "hit": false,
      "t": 16685.385749999994,
      "d": 123.59545000000071,
      "v": 110
    },
    {
      "midi": 46,
      "hit": false,
      "t": 16853.92499999999,
      "d": 162.9212750000006,
      "v": 100
    },
    {
      "midi": 41,
      "hit": false,
      "t": 16853.92499999999,
      "d": 331.46052500000224,
      "v": 100
    },
    {
      "midi": 46,
      "hit": false,
      "t": 16853.92499999999,
      "d": 162.9212750000006,
      "v": 100
    },
    {
      "midi": 41,
      "hit": false,
      "t": 16853.92499999999,
      "d": 331.46052500000224,
      "v": 100
    },
    {
      "midi": 35,
      "hit": false,
      "t": 16882.014874999997,
      "d": 106.74152500000127,
      "v": 110
    },
    {
      "midi": 53,
      "hit": false,
      "t": 17022.46424999999,
      "d": 162.9212750000006,
      "v": 100
    },
    {
      "midi": 53,
      "hit": false,
      "t": 17022.46424999999,
      "d": 162.9212750000006,
      "v": 100
    },
    {
      "midi": 65,
      "hit": false,
      "t": 17022.464249999994,
      "d": 179.77520000000004,
      "v": 110
    },
    {
      "midi": 74,
      "hit": false,
      "t": 17022.464249999994,
      "d": 129.21342500000173,
      "v": 80
    },
    {
      "midi": 65,
      "hit": false,
      "t": 17022.464249999994,
      "d": 179.77520000000004,
      "v": 110
    },
    {
      "midi": 35,
      "hit": false,
      "t": 17022.464249999997,
      "d": 73.03367499999877,
      "v": 110
    },
    {
      "midi": 46,
      "hit": false,
      "t": 17191.00349999999,
      "d": 162.9212750000006,
      "v": 100
    },
    {
      "midi": 46,
      "hit": false,
      "t": 17191.00349999999,
      "d": 162.9212750000006,
      "v": 100
    },
    {
      "midi": 40,
      "hit": false,
      "t": 17207.857424999995,
      "d": 123.59545000000071,
      "v": 110
    },
    {
      "midi": 63,
      "hit": false,
      "t": 17359.542749999993,
      "d": 73.03367499999877,
      "v": 110
    },
    {
      "midi": 53,
      "hit": false,
      "t": 17359.542749999993,
      "d": 162.9212750000006,
      "v": 100
    },
    {
      "midi": 53,
      "hit": false,
      "t": 17359.542749999993,
      "d": 162.9212750000006,
      "v": 100
    },
    {
      "midi": 63,
      "hit": false,
      "t": 17359.542749999993,
      "d": 73.03367499999877,
      "v": 110
    },
    {
      "midi": 72,
      "hit": false,
      "t": 17359.542749999997,
      "d": 117.97747499999969,
      "v": 80
    },
    {
      "midi": 67,
      "hit": false,
      "t": 17528.08199999999,
      "d": 331.4605249999986,
      "v": 110
    },
    {
      "midi": 67,
      "hit": false,
      "t": 17528.08199999999,
      "d": 331.4605249999986,
      "v": 110
    },
    {
      "midi": 48,
      "hit": false,
      "t": 17528.081999999995,
      "d": 162.9212750000006,
      "v": 100
    },
    {
      "midi": 43,
      "hit": false,
      "t": 17528.081999999995,
      "d": 668.5390250000055,
      "v": 100
    },
    {
      "midi": 75,
      "hit": false,
      "t": 17528.081999999995,
      "d": 337.0784999999996,
      "v": 80
    },
    {
      "midi": 48,
      "hit": false,
      "t": 17528.081999999995,
      "d": 162.9212750000006,
      "v": 100
    },
    {
      "midi": 43,
      "hit": false,
      "t": 17528.081999999995,
      "d": 668.5390250000055,
      "v": 100
    },
    {
      "midi": 35,
      "hit": false,
      "t": 17550.553899999995,
      "d": 73.03367499999877,
      "v": 110
    },
    {
      "midi": 55,
      "hit": false,
      "t": 17696.621249999997,
      "d": 162.9212750000006,
      "v": 100
    },
    {
      "midi": 55,
      "hit": false,
      "t": 17696.621249999997,
      "d": 162.9212750000006,
      "v": 100
    },
    {
      "midi": 63,
      "hit": false,
      "t": 17865.16049999999,
      "d": 162.9212750000006,
      "v": 110
    },
    {
      "midi": 63,
      "hit": false,
      "t": 17865.16049999999,
      "d": 162.9212750000006,
      "v": 110
    },
    {
      "midi": 72,
      "hit": false,
      "t": 17865.160499999994,
      "d": 151.68532499999856,
      "v": 80
    },
    {
      "midi": 48,
      "hit": false,
      "t": 17865.160499999998,
      "d": 162.9212750000006,
      "v": 100
    },
    {
      "midi": 48,
      "hit": false,
      "t": 17865.160499999998,
      "d": 162.9212750000006,
      "v": 100
    },
    {
      "midi": 40,
      "hit": false,
      "t": 17882.014424999994,
      "d": 117.97747499999969,
      "v": 110
    },
    {
      "midi": 67,
      "hit": false,
      "t": 18033.699749999992,
      "d": 162.9212750000006,
      "v": 110
    },
    {
      "midi": 75,
      "hit": false,
      "t": 18033.699749999992,
      "d": 157.30329999999958,
      "v": 80
    },
    {
      "midi": 67,
      "hit": false,
      "t": 18033.699749999992,
      "d": 162.9212750000006,
      "v": 110
    },
    {
      "midi": 55,
      "hit": false,
      "t": 18033.69975,
      "d": 162.9212750000006,
      "v": 100
    },
    {
      "midi": 55,
      "hit": false,
      "t": 18033.69975,
      "d": 162.9212750000006,
      "v": 100
    },
    {
      "midi": 48,
      "hit": false,
      "t": 18202.239,
      "d": 162.9212750000006,
      "v": 100
    },
    {
      "midi": 48,
      "hit": false,
      "t": 18202.239,
      "d": 162.9212750000006,
      "v": 100
    },
    {
      "midi": 35,
      "hit": false,
      "t": 18213.474949999993,
      "d": 84.26962500000081,
      "v": 110
    },
    {
      "midi": 70,
      "hit": false,
      "t": 18370.778249999992,
      "d": 499.9997750000002,
      "v": 110
    },
    {
      "midi": 79,
      "hit": false,
      "t": 18370.778249999992,
      "d": 499.9997750000002,
      "v": 80
    },
    {
      "midi": 35,
      "hit": false,
      "t": 18370.778249999992,
      "d": 89.8875999999982,
      "v": 110
    },
    {
      "midi": 70,
      "hit": false,
      "t": 18370.778249999992,
      "d": 499.9997750000002,
      "v": 110
    },
    {
      "midi": 55,
      "hit": false,
      "t": 18370.778250000003,
      "d": 162.9212750000006,
      "v": 100
    },
    {
      "midi": 55,
      "hit": false,
      "t": 18370.778250000003,
      "d": 162.9212750000006,
      "v": 100
    },
    {
      "midi": 48,
      "hit": false,
      "t": 18539.317500000005,
      "d": 162.9212750000006,
      "v": 100
    },
    {
      "midi": 48,
      "hit": false,
      "t": 18539.317500000005,
      "d": 162.9212750000006,
      "v": 100
    },
    {
      "midi": 40,
      "hit": false,
      "t": 18561.78939999999,
      "d": 129.21342500000173,
      "v": 110
    },
    {
      "midi": 42,
      "hit": false,
      "t": 18707.85674999999,
      "d": 134.83139999999912,
      "v": 110
    },
    {
      "midi": 55,
      "hit": false,
      "t": 18707.856750000006,
      "d": 162.9212750000006,
      "v": 100
    },
    {
      "midi": 55,
      "hit": false,
      "t": 18707.856750000006,
      "d": 162.9212750000006,
      "v": 100
    },
    {
      "midi": 37,
      "hit": false,
      "t": 18792.126374999993,
      "d": 134.83139999999548,
      "v": 110
    },
    {
      "midi": 63,
      "hit": false,
      "t": 18876.395999999993,
      "d": 106.74152500000127,
      "v": 110
    },
    {
      "midi": 75,
      "hit": false,
      "t": 18876.395999999993,
      "d": 89.8875999999982,
      "v": 80
    },
    {
      "midi": 63,
      "hit": false,
      "t": 18876.395999999993,
      "d": 106.74152500000127,
      "v": 110
    },
    {
      "midi": 44,
      "hit": false,
      "t": 18876.396000000008,
      "d": 162.9212750000006,
      "v": 100
    },
    {
      "midi": 44,
      "hit": false,
      "t": 18876.396000000008,
      "d": 162.9212750000006,
      "v": 100
    },
    {
      "midi": 35,
      "hit": false,
      "t": 18893.24992499999,
      "d": 78.65164999999979,
      "v": 110
    },
    {
      "midi": 75,
      "hit": false,
      "t": 19044.93524999999,
      "d": 84.26962500000081,
      "v": 80
    },
    {
      "midi": 63,
      "hit": false,
      "t": 19044.935249999995,
      "d": 89.8875999999982,
      "v": 110
    },
    {
      "midi": 63,
      "hit": false,
      "t": 19044.935249999995,
      "d": 89.8875999999982,
      "v": 110
    },
    {
      "midi": 51,
      "hit": false,
      "t": 19044.93525000001,
      "d": 162.9212750000006,
      "v": 100
    },
    {
      "midi": 51,
      "hit": false,
      "t": 19044.93525000001,
      "d": 162.9212750000006,
      "v": 100
    },
    {
      "midi": 35,
      "hit": false,
      "t": 19050.55322499999,
      "d": 101.12355000000025,
      "v": 110
    },
    {
      "midi": 63,
      "hit": false,
      "t": 19213.474499999993,
      "d": 117.97747499999969,
      "v": 110
    },
    {
      "midi": 75,
      "hit": false,
      "t": 19213.474499999993,
      "d": 112.35949999999866,
      "v": 80
    },
    {
      "midi": 63,
      "hit": false,
      "t": 19213.474499999993,
      "d": 117.97747499999969,
      "v": 110
    },
    {
      "midi": 44,
      "hit": false,
      "t": 19213.47450000001,
      "d": 162.9212750000006,
      "v": 100
    },
    {
      "midi": 44,
      "hit": false,
      "t": 19213.47450000001,
      "d": 162.9212750000006,
      "v": 100
    },
    {
      "midi": 40,
      "hit": false,
      "t": 19219.09247499999,
      "d": 106.74152500000127,
      "v": 110
    },
    {
      "midi": 35,
      "hit": false,
      "t": 19376.39577499999,
      "d": 73.03367499999877,
      "v": 110
    },
    {
      "midi": 65,
      "hit": false,
      "t": 19382.01374999999,
      "d": 151.68532499999856,
      "v": 110
    },
    {
      "midi": 74,
      "hit": false,
      "t": 19382.01374999999,
      "d": 134.83139999999912,
      "v": 80
    },
    {
      "midi": 65,
      "hit": false,
      "t": 19382.01374999999,
      "d": 151.68532499999856,
      "v": 110
    },
    {
      "midi": 51,
      "hit": false,
      "t": 19382.013750000013,
      "d": 162.9212750000006,
      "v": 100
    },
    {
      "midi": 51,
      "hit": false,
      "t": 19382.013750000013,
      "d": 162.9212750000006,
      "v": 100
    },
    {
      "midi": 46,
      "hit": false,
      "t": 19550.553000000014,
      "d": 162.9212750000006,
      "v": 100
    },
    {
      "midi": 46,
      "hit": false,
      "t": 19550.553000000014,
      "d": 162.9212750000006,
      "v": 100
    },
    {
      "midi": 35,
      "hit": false,
      "t": 19561.788949999987,
      "d": 78.65164999999979,
      "v": 110
    },
    {
      "midi": 65,
      "hit": false,
      "t": 19719.09224999999,
      "d": 162.9212750000006,
      "v": 110
    },
    {
      "midi": 72,
      "hit": false,
      "t": 19719.09224999999,
      "d": 168.53925000000163,
      "v": 80
    },
    {
      "midi": 65,
      "hit": false,
      "t": 19719.09224999999,
      "d": 162.9212750000006,
      "v": 110
    },
    {
      "midi": 53,
      "hit": false,
      "t": 19719.092250000016,
      "d": 162.9212750000006,
      "v": 100
    },
    {
      "midi": 53,
      "hit": false,
      "t": 19719.092250000016,
      "d": 162.9212750000006,
      "v": 100
    },
    {
      "midi": 35,
      "hit": false,
      "t": 19730.328199999985,
      "d": 84.26962500000081,
      "v": 110
    },
    {
      "midi": 46,
      "hit": false,
      "t": 19887.631500000018,
      "d": 162.9212750000006,
      "v": 100
    },
    {
      "midi": 46,
      "hit": false,
      "t": 19887.631500000018,
      "d": 162.9212750000006,
      "v": 100
    },
    {
      "midi": 40,
      "hit": false,
      "t": 19893.249474999986,
      "d": 95.50557499999923,
      "v": 110
    },
    {
      "midi": 65,
      "hit": false,
      "t": 20056.17074999999,
      "d": 84.26962500000081,
      "v": 110
    },
    {
      "midi": 65,
      "hit": false,
      "t": 20056.17074999999,
      "d": 84.26962500000081,
      "v": 110
    },
    {
      "midi": 74,
      "hit": false,
      "t": 20056.170749999994,
      "d": 78.65164999999979,
      "v": 80
    },
    {
      "midi": 53,
      "hit": false,
      "t": 20056.17075000002,
      "d": 162.9212750000006,
      "v": 100
    },
    {
      "midi": 53,
      "hit": false,
      "t": 20056.17075000002,
      "d": 162.9212750000006,
      "v": 100
    },
    {
      "midi": 35,
      "hit": false,
      "t": 20067.406699999985,
      "d": 84.26962500000081,
      "v": 110
    },
    {
      "midi": 67,
      "hit": false,
      "t": 20224.709999999992,
      "d": 247.19090000000142,
      "v": 110
    },
    {
      "midi": 75,
      "hit": false,
      "t": 20224.709999999992,
      "d": 269.66279999999824,
      "v": 80
    },
    {
      "midi": 67,
      "hit": false,
      "t": 20224.709999999992,
      "d": 247.19090000000142,
      "v": 110
    },
    {
      "midi": 48,
      "hit": false,
      "t": 20224.71000000002,
      "d": 157.30329999999958,
      "v": 100
    },
    {
      "midi": 48,
      "hit": false,
      "t": 20224.71000000002,
      "d": 157.30329999999958,
      "v": 100
    },
    {
      "midi": 35,
      "hit": false,
      "t": 20241.563924999984,
      "d": 73.03367499999877,
      "v": 110
    },
    {
      "midi": 55,
      "hit": false,
      "t": 20393.24925000002,
      "d": 162.9212750000006,
      "v": 100
    },
    {
      "midi": 55,
      "hit": false,
      "t": 20393.24925000002,
      "d": 162.9212750000006,
      "v": 100
    },
    {
      "midi": 35,
      "hit": false,
      "t": 20404.48519999998,
      "d": 95.50557499999923,
      "v": 110
    },
    {
      "midi": 63,
      "hit": false,
      "t": 20561.78849999999,
      "d": 117.97747499999969,
      "v": 110
    },
    {
      "midi": 72,
      "hit": false,
      "t": 20561.78849999999,
      "d": 78.65164999999979,
      "v": 80
    },
    {
      "midi": 63,
      "hit": false,
      "t": 20561.78849999999,
      "d": 117.97747499999969,
      "v": 110
    },
    {
      "midi": 48,
      "hit": false,
      "t": 20561.78850000002,
      "d": 162.9212750000006,
      "v": 100
    },
    {
      "midi": 48,
      "hit": false,
      "t": 20561.78850000002,
      "d": 162.9212750000006,
      "v": 100
    },
    {
      "midi": 40,
      "hit": false,
      "t": 20573.02444999998,
      "d": 112.35949999999866,
      "v": 110
    },
    {
      "midi": 70,
      "hit": false,
      "t": 20730.32774999999,
      "d": 758.4266250000001,
      "v": 110
    },
    {
      "midi": 79,
      "hit": false,
      "t": 20730.32774999999,
      "d": 668.5390249999982,
      "v": 80
    },
    {
      "midi": 70,
      "hit": false,
      "t": 20730.32774999999,
      "d": 758.4266250000001,
      "v": 110
    },
    {
      "midi": 55,
      "hit": false,
      "t": 20730.327750000022,
      "d": 162.9212750000006,
      "v": 100
    },
    {
      "midi": 55,
      "hit": false,
      "t": 20730.327750000022,
      "d": 162.9212750000006,
      "v": 100
    },
    {
      "midi": 35,
      "hit": false,
      "t": 20741.563699999977,
      "d": 84.26962500000081,
      "v": 110
    },
    {
      "midi": 43,
      "hit": false,
      "t": 20898.867000000024,
      "d": 162.9212750000006,
      "v": 100
    },
    {
      "midi": 43,
      "hit": false,
      "t": 20898.867000000024,
      "d": 162.9212750000006,
      "v": 100
    },
    {
      "midi": 35,
      "hit": false,
      "t": 20915.720924999976,
      "d": 78.65164999999979,
      "v": 110
    },
    {
      "midi": 50,
      "hit": false,
      "t": 21067.406250000025,
      "d": 162.9212750000006,
      "v": 100
    },
    {
      "midi": 50,
      "hit": false,
      "t": 21067.406250000025,
      "d": 162.9212750000006,
      "v": 100
    },
    {
      "midi": 35,
      "hit": false,
      "t": 21078.642199999977,
      "d": 95.50557499999923,
      "v": 110
    },
    {
      "midi": 40,
      "hit": false,
      "t": 21235.945499999976,
      "d": 95.50557499999923,
      "v": 110
    },
    {
      "midi": 43,
      "hit": false,
      "t": 21235.945500000027,
      "d": 162.9212750000006,
      "v": 100
    },
    {
      "midi": 43,
      "hit": false,
      "t": 21235.945500000027,
      "d": 162.9212750000006,
      "v": 100
    },
    {
      "midi": 35,
      "hit": false,
      "t": 21404.484749999974,
      "d": 95.50557499999923,
      "v": 110
    },
    {
      "midi": 42,
      "hit": false,
      "t": 21404.484749999974,
      "d": 134.83139999999912,
      "v": 110
    },
    {
      "midi": 50,
      "hit": false,
      "t": 21404.48475000003,
      "d": 162.9212750000006,
      "v": 100
    },
    {
      "midi": 50,
      "hit": false,
      "t": 21404.48475000003,
      "d": 162.9212750000006,
      "v": 100
    },
    {
      "midi": 37,
      "hit": false,
      "t": 21488.754374999975,
      "d": 134.83139999999548,
      "v": 110
    },
    {
      "midi": 42,
      "hit": false,
      "t": 21573.023999999972,
      "d": 78.65164999999979,
      "v": 110
    },
    {
      "midi": 35,
      "hit": false,
      "t": 21573.023999999972,
      "d": 78.65164999999979,
      "v": 110
    },
    {
      "midi": 79,
      "hit": false,
      "t": 21573.023999999987,
      "d": 67.41570000000138,
      "v": 80
    },
    {
      "midi": 55,
      "hit": false,
      "t": 21573.02399999999,
      "d": 106.74152500000127,
      "v": 110
    },
    {
      "midi": 55,
      "hit": false,
      "t": 21573.02399999999,
      "d": 106.74152500000127,
      "v": 110
    },
    {
      "midi": 55,
      "hit": false,
      "t": 21573.02400000003,
      "d": 415.7301499999994,
      "v": 100
    },
    {
      "midi": 55,
      "hit": false,
      "t": 21573.02400000003,
      "d": 415.7301499999994,
      "v": 100
    },
    {
      "midi": 42,
      "hit": false,
      "t": 21741.56324999997,
      "d": 78.65164999999979,
      "v": 110
    },
    {
      "midi": 79,
      "hit": false,
      "t": 21741.56324999999,
      "d": 78.65164999999979,
      "v": 80
    },
    {
      "midi": 55,
      "hit": false,
      "t": 21741.563249999992,
      "d": 106.74152500000127,
      "v": 110
    },
    {
      "midi": 55,
      "hit": false,
      "t": 21741.563249999992,
      "d": 106.74152500000127,
      "v": 110
    },
    {
      "midi": 42,
      "hit": false,
      "t": 21910.102499999968,
      "d": 78.65164999999979,
      "v": 110
    },
    {
      "midi": 44,
      "hit": false,
      "t": 21910.102499999968,
      "d": 78.65164999999979,
      "v": 110
    },
    {
      "midi": 79,
      "hit": false,
      "t": 21910.102499999986,
      "d": 78.65164999999979,
      "v": 80
    },
    {
      "midi": 55,
      "hit": false,
      "t": 21910.102499999994,
      "d": 106.74152500000127,
      "v": 110
    },
    {
      "midi": 55,
      "hit": false,
      "t": 21910.102499999994,
      "d": 106.74152500000127,
      "v": 110
    },
    {
      "midi": 42,
      "hit": false,
      "t": 22078.641749999966,
      "d": 78.65164999999979,
      "v": 110
    },
    {
      "midi": 35,
      "hit": false,
      "t": 22078.641749999966,
      "d": 78.65164999999979,
      "v": 110
    },
    {
      "midi": 77,
      "hit": false,
      "t": 22078.641749999984,
      "d": 73.03367499999877,
      "v": 80
    },
    {
      "midi": 62,
      "hit": false,
      "t": 22078.641749999995,
      "d": 106.74152500000127,
      "v": 110
    },
    {
      "midi": 62,
      "hit": false,
      "t": 22078.641749999995,
      "d": 106.74152500000127,
      "v": 110
    },
    {
      "midi": 62,
      "hit": false,
      "t": 22078.641750000028,
      "d": 415.7301499999994,
      "v": 100
    },
    {
      "midi": 62,
      "hit": false,
      "t": 22078.641750000028,
      "d": 415.7301499999994,
      "v": 100
    },
    {
      "midi": 42,
      "hit": false,
      "t": 22247.180999999964,
      "d": 78.65164999999979,
      "v": 110
    },
    {
      "midi": 77,
      "hit": false,
      "t": 22247.180999999982,
      "d": 84.26962500000081,
      "v": 80
    },
    {
      "midi": 62,
      "hit": false,
      "t": 22247.180999999997,
      "d": 106.74152500000127,
      "v": 110
    },
    {
      "midi": 62,
      "hit": false,
      "t": 22247.180999999997,
      "d": 106.74152500000127,
      "v": 110
    },
    {
      "midi": 44,
      "hit": false,
      "t": 22415.720249999962,
      "d": 78.65164999999979,
      "v": 110
    },
    {
      "midi": 77,
      "hit": false,
      "t": 22415.720249999984,
      "d": 78.65164999999979,
      "v": 80
    },
    {
      "midi": 62,
      "hit": false,
      "t": 22415.72025,
      "d": 106.74152500000127,
      "v": 110
    },
    {
      "midi": 62,
      "hit": false,
      "t": 22415.72025,
      "d": 106.74152500000127,
      "v": 110
    },
    {
      "midi": 42,
      "hit": false,
      "t": 22584.25949999996,
      "d": 78.65164999999979,
      "v": 110
    },
    {
      "midi": 35,
      "hit": false,
      "t": 22584.25949999996,
      "d": 78.65164999999979,
      "v": 110
    },
    {
      "midi": 75,
      "hit": false,
      "t": 22584.259499999982,
      "d": 84.26962500000081,
      "v": 80
    },
    {
      "midi": 67,
      "hit": false,
      "t": 22584.2595,
      "d": 106.74152500000127,
      "v": 110
    },
    {
      "midi": 67,
      "hit": false,
      "t": 22584.2595,
      "d": 106.74152500000127,
      "v": 110
    },
    {
      "midi": 67,
      "hit": false,
      "t": 22584.259500000026,
      "d": 415.7301499999994,
      "v": 100
    },
    {
      "midi": 67,
      "hit": false,
      "t": 22584.259500000026,
      "d": 415.7301499999994,
      "v": 100
    },
    {
      "midi": 42,
      "hit": false,
      "t": 22752.798749999958,
      "d": 78.65164999999979,
      "v": 110
    },
    {
      "midi": 75,
      "hit": false,
      "t": 22752.798749999984,
      "d": 89.8875999999982,
      "v": 80
    },
    {
      "midi": 67,
      "hit": false,
      "t": 22752.79875,
      "d": 106.74152500000127,
      "v": 110
    },
    {
      "midi": 67,
      "hit": false,
      "t": 22752.79875,
      "d": 106.74152500000127,
      "v": 110
    },
    {
      "midi": 44,
      "hit": false,
      "t": 22921.337999999956,
      "d": 78.65164999999979,
      "v": 110
    },
    {
      "midi": 75,
      "hit": false,
      "t": 22921.33799999998,
      "d": 95.50557499999923,
      "v": 80
    },
    {
      "midi": 67,
      "hit": false,
      "t": 22921.338000000003,
      "d": 106.74152500000127,
      "v": 110
    },
    {
      "midi": 67,
      "hit": false,
      "t": 22921.338000000003,
      "d": 106.74152500000127,
      "v": 110
    },
    {
      "midi": 42,
      "hit": false,
      "t": 23089.877249999954,
      "d": 78.65164999999979,
      "v": 110
    },
    {
      "midi": 35,
      "hit": false,
      "t": 23089.877249999954,
      "d": 78.65164999999979,
      "v": 110
    },
    {
      "midi": 74,
      "hit": false,
      "t": 23089.87724999998,
      "d": 89.8875999999982,
      "v": 80
    },
    {
      "midi": 62,
      "hit": false,
      "t": 23089.877250000005,
      "d": 106.74152500000127,
      "v": 110
    },
    {
      "midi": 62,
      "hit": false,
      "t": 23089.877250000005,
      "d": 106.74152500000127,
      "v": 110
    },
    {
      "midi": 62,
      "hit": false,
      "t": 23089.877250000023,
      "d": 415.7301499999994,
      "v": 100
    },
    {
      "midi": 62,
      "hit": false,
      "t": 23089.877250000023,
      "d": 415.7301499999994,
      "v": 100
    },
    {
      "midi": 44,
      "hit": false,
      "t": 23258.416499999952,
      "d": 78.65164999999979,
      "v": 110
    },
    {
      "midi": 74,
      "hit": false,
      "t": 23258.416499999978,
      "d": 78.65164999999979,
      "v": 80
    },
    {
      "midi": 62,
      "hit": false,
      "t": 23258.416500000007,
      "d": 106.74152500000127,
      "v": 110
    },
    {
      "midi": 62,
      "hit": false,
      "t": 23258.416500000007,
      "d": 106.74152500000127,
      "v": 110
    },
    {
      "midi": 42,
      "hit": false,
      "t": 23426.95574999995,
      "d": 78.65164999999979,
      "v": 110
    },
    {
      "midi": 74,
      "hit": false,
      "t": 23426.955749999976,
      "d": 78.65164999999979,
      "v": 80
    },
    {
      "midi": 62,
      "hit": false,
      "t": 23426.95575000001,
      "d": 106.74152500000127,
      "v": 110
    },
    {
      "midi": 62,
      "hit": false,
      "t": 23426.95575000001,
      "d": 106.74152500000127,
      "v": 110
    },
    {
      "midi": 42,
      "hit": false,
      "t": 23595.494999999948,
      "d": 78.65164999999979,
      "v": 110
    },
    {
      "midi": 35,
      "hit": false,
      "t": 23595.494999999948,
      "d": 78.65164999999979,
      "v": 110
    },
    {
      "midi": 72,
      "hit": false,
      "t": 23595.494999999974,
      "d": 89.8875999999982,
      "v": 80
    },
    {
      "midi": 58,
      "hit": false,
      "t": 23595.49500000001,
      "d": 106.74152500000127,
      "v": 110
    },
    {
      "midi": 58,
      "hit": false,
      "t": 23595.49500000001,
      "d": 106.74152500000127,
      "v": 110
    },
    {
      "midi": 58,
      "hit": false,
      "t": 23595.49500000002,
      "d": 668.5390249999982,
      "v": 100
    },
    {
      "midi": 58,
      "hit": false,
      "t": 23595.49500000002,
      "d": 668.5390249999982,
      "v": 100
    },
    {
      "midi": 42,
      "hit": false,
      "t": 23764.034249999946,
      "d": 78.65164999999979,
      "v": 110
    },
    {
      "midi": 72,
      "hit": false,
      "t": 23764.03424999997,
      "d": 95.50557499999923,
      "v": 80
    },
    {
      "midi": 58,
      "hit": false,
      "t": 23764.03425000001,
      "d": 106.74152500000127,
      "v": 110
    },
    {
      "midi": 58,
      "hit": false,
      "t": 23764.03425000001,
      "d": 106.74152500000127,
      "v": 110
    },
    {
      "midi": 42,
      "hit": false,
      "t": 23932.573499999944,
      "d": 78.65164999999979,
      "v": 110
    },
    {
      "midi": 44,
      "hit": false,
      "t": 23932.573499999944,
      "d": 78.65164999999979,
      "v": 110
    },
    {
      "midi": 71,
      "hit": false,
      "t": 23932.57349999997,
      "d": 84.26962500000081,
      "v": 80
    },
    {
      "midi": 58,
      "hit": false,
      "t": 23932.573500000013,
      "d": 106.74152500000127,
      "v": 110
    },
    {
      "midi": 58,
      "hit": false,
      "t": 23932.573500000013,
      "d": 106.74152500000127,
      "v": 110
    },
    {
      "midi": 44,
      "hit": false,
      "t": 24101.112749999942,
      "d": 78.65164999999979,
      "v": 110
    },
    {
      "midi": 42,
      "hit": false,
      "t": 24101.112749999942,
      "d": 134.83139999999912,
      "v": 110
    },
    {
      "midi": 71,
      "hit": false,
      "t": 24101.11274999997,
      "d": 67.41570000000138,
      "v": 80
    },
    {
      "midi": 58,
      "hit": false,
      "t": 24101.112750000015,
      "d": 106.74152500000127,
      "v": 110
    },
    {
      "midi": 58,
      "hit": false,
      "t": 24101.112750000015,
      "d": 106.74152500000127,
      "v": 110
    },
    {
      "midi": 37,
      "hit": false,
      "t": 24185.382374999943,
      "d": 134.83139999999548,
      "v": 110
    },
    {
      "midi": 35,
      "hit": false,
      "t": 24269.65199999994,
      "d": 117.97747499999969,
      "v": 110
    },
    {
      "midi": 72,
      "hit": false,
      "t": 24269.651999999973,
      "d": 769.6625749999985,
      "v": 80
    },
    {
      "midi": 60,
      "hit": false,
      "t": 24269.652000000016,
      "d": 904.4939750000012,
      "v": 110
    },
    {
      "midi": 60,
      "hit": false,
      "t": 24269.652000000016,
      "d": 904.4939750000012,
      "v": 110
    },
    {
      "midi": 36,
      "hit": false,
      "t": 24269.65200000002,
      "d": 1342.6960250000084,
      "v": 100
    },
    {
      "midi": 36,
      "hit": false,
      "t": 24269.65200000002,
      "d": 1342.6960250000084,
      "v": 100
    },
    {
      "midi": 48,
      "hit": false,
      "t": 24292.12390000002,
      "d": 162.9212750000006,
      "v": 100
    },
    {
      "midi": 48,
      "hit": false,
      "t": 24292.12390000002,
      "d": 162.9212750000006,
      "v": 100
    },
    {
      "midi": 55,
      "hit": false,
      "t": 24438.19125000002,
      "d": 162.9212750000006,
      "v": 100
    },
    {
      "midi": 55,
      "hit": false,
      "t": 24438.19125000002,
      "d": 162.9212750000006,
      "v": 100
    },
    {
      "midi": 48,
      "hit": false,
      "t": 24606.730500000023,
      "d": 162.9212750000006,
      "v": 100
    },
    {
      "midi": 48,
      "hit": false,
      "t": 24606.730500000023,
      "d": 162.9212750000006,
      "v": 100
    },
    {
      "midi": 40,
      "hit": false,
      "t": 24617.966449999938,
      "d": 146.06735000000117,
      "v": 110
    },
    {
      "midi": 55,
      "hit": false,
      "t": 24775.269750000025,
      "d": 162.9212750000006,
      "v": 100
    },
    {
      "midi": 55,
      "hit": false,
      "t": 24775.269750000025,
      "d": 162.9212750000006,
      "v": 100
    },
    {
      "midi": 35,
      "hit": false,
      "t": 24966.28089999994,
      "d": 78.65164999999979,
      "v": 110
    },
    {
      "midi": 48,
      "hit": false,
      "t": 24977.516850000025,
      "d": 162.9212750000006,
      "v": 100
    },
    {
      "midi": 48,
      "hit": false,
      "t": 24977.516850000025,
      "d": 162.9212750000006,
      "v": 100
    },
    {
      "midi": 74,
      "hit": false,
      "t": 25112.34824999997,
      "d": 174.15722500000265,
      "v": 80
    },
    {
      "midi": 62,
      "hit": false,
      "t": 25112.348250000017,
      "d": 191.0111500000021,
      "v": 110
    },
    {
      "midi": 62,
      "hit": false,
      "t": 25112.348250000017,
      "d": 191.0111500000021,
      "v": 110
    },
    {
      "midi": 55,
      "hit": false,
      "t": 25112.348250000025,
      "d": 162.9212750000006,
      "v": 100
    },
    {
      "midi": 55,
      "hit": false,
      "t": 25112.348250000025,
      "d": 162.9212750000006,
      "v": 100
    },
    {
      "midi": 35,
      "hit": false,
      "t": 25129.20217499994,
      "d": 112.35949999999866,
      "v": 110
    },
    {
      "midi": 75,
      "hit": false,
      "t": 25280.88749999997,
      "d": 185.39317500000107,
      "v": 80
    },
    {
      "midi": 63,
      "hit": false,
      "t": 25280.88750000002,
      "d": 303.37065000000075,
      "v": 110
    },
    {
      "midi": 63,
      "hit": false,
      "t": 25280.88750000002,
      "d": 303.37065000000075,
      "v": 110
    },
    {
      "midi": 48,
      "hit": false,
      "t": 25303.359400000027,
      "d": 162.9212750000006,
      "v": 100
    },
    {
      "midi": 48,
      "hit": false,
      "t": 25303.359400000027,
      "d": 162.9212750000006,
      "v": 100
    },
    {
      "midi": 40,
      "hit": false,
      "t": 25308.97737499994,
      "d": 123.59545000000071,
      "v": 110
    },
    {
      "midi": 74,
      "hit": false,
      "t": 25449.426749999973,
      "d": 174.15722499999902,
      "v": 80
    },
    {
      "midi": 65,
      "hit": false,
      "t": 25449.42675000002,
      "d": 157.30329999999958,
      "v": 110
    },
    {
      "midi": 65,
      "hit": false,
      "t": 25449.42675000002,
      "d": 157.30329999999958,
      "v": 110
    },
    {
      "midi": 55,
      "hit": false,
      "t": 25449.426750000028,
      "d": 162.9212750000006,
      "v": 100
    },
    {
      "midi": 55,
      "hit": false,
      "t": 25449.426750000028,
      "d": 162.9212750000006,
      "v": 100
    },
    {
      "midi": 75,
      "hit": false,
      "t": 25617.96599999997,
      "d": 331.46052500000224,
      "v": 80
    },
    {
      "midi": 67,
      "hit": false,
      "t": 25617.96600000002,
      "d": 337.0784999999996,
      "v": 110
    },
    {
      "midi": 67,
      "hit": false,
      "t": 25617.96600000002,
      "d": 337.0784999999996,
      "v": 110
    },
    {
      "midi": 35,
      "hit": false,
      "t": 25629.20194999994,
      "d": 157.30329999999958,
      "v": 110
    },
    {
      "midi": 48,
      "hit": false,
      "t": 25629.201950000028,
      "d": 162.9212750000006,
      "v": 100
    },
    {
      "midi": 48,
      "hit": false,
      "t": 25629.201950000028,
      "d": 162.9212750000006,
      "v": 100
    },
    {
      "midi": 55,
      "hit": false,
      "t": 25786.505250000027,
      "d": 162.9212750000006,
      "v": 100
    },
    {
      "midi": 55,
      "hit": false,
      "t": 25786.505250000027,
      "d": 162.9212750000006,
      "v": 100
    },
    {
      "midi": 74,
      "hit": false,
      "t": 25955.044499999975,
      "d": 202.2471000000005,
      "v": 80
    },
    {
      "midi": 65,
      "hit": false,
      "t": 25955.044500000018,
      "d": 235.954950000003,
      "v": 110
    },
    {
      "midi": 65,
      "hit": false,
      "t": 25955.044500000018,
      "d": 235.954950000003,
      "v": 110
    },
    {
      "midi": 48,
      "hit": false,
      "t": 25955.04450000003,
      "d": 162.9212750000006,
      "v": 100
    },
    {
      "midi": 48,
      "hit": false,
      "t": 25955.04450000003,
      "d": 162.9212750000006,
      "v": 100
    },
    {
      "midi": 40,
      "hit": false,
      "t": 25966.28044999994,
      "d": 123.59545000000071,
      "v": 110
    },
    {
      "midi": 75,
      "hit": false,
      "t": 26123.583749999976,
      "d": 179.77520000000004,
      "v": 80
    },
    {
      "midi": 67,
      "hit": false,
      "t": 26123.58375000002,
      "d": 117.97747499999969,
      "v": 110
    },
    {
      "midi": 67,
      "hit": false,
      "t": 26123.58375000002,
      "d": 117.97747499999969,
      "v": 110
    },
    {
      "midi": 55,
      "hit": false,
      "t": 26123.58375000003,
      "d": 162.9212750000006,
      "v": 100
    },
    {
      "midi": 55,
      "hit": false,
      "t": 26123.58375000003,
      "d": 162.9212750000006,
      "v": 100
    },
    {
      "midi": 35,
      "hit": false,
      "t": 26286.50502499994,
      "d": 101.12355000000025,
      "v": 110
    },
    {
      "midi": 48,
      "hit": false,
      "t": 26297.74097500003,
      "d": 162.9212750000006,
      "v": 100
    },
    {
      "midi": 48,
      "hit": false,
      "t": 26297.74097500003,
      "d": 162.9212750000006,
      "v": 100
    },
    {
      "midi": 35,
      "hit": false,
      "t": 26460.66224999994,
      "d": 106.74152500000127,
      "v": 110
    },
    {
      "midi": 77,
      "hit": false,
      "t": 26460.662249999976,
      "d": 179.77520000000004,
      "v": 80
    },
    {
      "midi": 72,
      "hit": false,
      "t": 26460.66225000002,
      "d": 146.06735000000117,
      "v": 110
    },
    {
      "midi": 72,
      "hit": false,
      "t": 26460.66225000002,
      "d": 146.06735000000117,
      "v": 110
    },
    {
      "midi": 55,
      "hit": false,
      "t": 26460.66225000003,
      "d": 162.9212750000006,
      "v": 100
    },
    {
      "midi": 55,
      "hit": false,
      "t": 26460.66225000003,
      "d": 162.9212750000006,
      "v": 100
    },
    {
      "midi": 48,
      "hit": false,
      "t": 26629.201500000032,
      "d": 162.9212750000006,
      "v": 100
    },
    {
      "midi": 48,
      "hit": false,
      "t": 26629.201500000032,
      "d": 162.9212750000006,
      "v": 100
    },
    {
      "midi": 40,
      "hit": false,
      "t": 26640.43744999994,
      "d": 151.68532499999856,
      "v": 110
    },
    {
      "midi": 42,
      "hit": false,
      "t": 26797.74074999994,
      "d": 134.83139999999912,
      "v": 110
    },
    {
      "midi": 75,
      "hit": false,
      "t": 26797.740749999975,
      "d": 983.145625000001,
      "v": 80
    },
    {
      "midi": 63,
      "hit": false,
      "t": 26797.74075000002,
      "d": 1039.3253750000003,
      "v": 110
    },
    {
      "midi": 63,
      "hit": false,
      "t": 26797.74075000002,
      "d": 1039.3253750000003,
      "v": 110
    },
    {
      "midi": 55,
      "hit": false,
      "t": 26797.740750000034,
      "d": 162.9212750000006,
      "v": 100
    },
    {
      "midi": 55,
      "hit": false,
      "t": 26797.740750000034,
      "d": 162.9212750000006,
      "v": 100
    },
    {
      "midi": 37,
      "hit": false,
      "t": 26882.01037499994,
      "d": 134.83139999999912,
      "v": 110
    },
    {
      "midi": 44,
      "hit": false,
      "t": 26966.280000000035,
      "d": 162.9212750000006,
      "v": 100
    },
    {
      "midi": 39,
      "hit": false,
      "t": 26966.280000000035,
      "d": 668.5390250000055,
      "v": 100
    },
    {
      "midi": 44,
      "hit": false,
      "t": 26966.280000000035,
      "d": 162.9212750000006,
      "v": 100
    },
    {
      "midi": 39,
      "hit": false,
      "t": 26966.280000000035,
      "d": 668.5390250000055,
      "v": 100
    },
    {
      "midi": 35,
      "hit": false,
      "t": 26977.51594999994,
      "d": 140.44937500000015,
      "v": 110
    },
    {
      "midi": 51,
      "hit": false,
      "t": 27134.819250000037,
      "d": 162.9212750000006,
      "v": 100
    },
    {
      "midi": 51,
      "hit": false,
      "t": 27134.819250000037,
      "d": 162.9212750000006,
      "v": 100
    },
    {
      "midi": 40,
      "hit": false,
      "t": 27292.12254999994,
      "d": 134.83139999999912,
      "v": 110
    },
    {
      "midi": 44,
      "hit": false,
      "t": 27303.35850000004,
      "d": 162.9212750000006,
      "v": 100
    },
    {
      "midi": 44,
      "hit": false,
      "t": 27303.35850000004,
      "d": 162.9212750000006,
      "v": 100
    },
    {
      "midi": 51,
      "hit": false,
      "t": 27471.89775000004,
      "d": 162.9212750000006,
      "v": 100
    },
    {
      "midi": 51,
      "hit": false,
      "t": 27471.89775000004,
      "d": 162.9212750000006,
      "v": 100
    },
    {
      "midi": 35,
      "hit": false,
      "t": 27634.81902499994,
      "d": 84.26962500000081,
      "v": 110
    },
    {
      "midi": 44,
      "hit": false,
      "t": 27640.43700000004,
      "d": 162.9212750000006,
      "v": 100
    },
    {
      "midi": 44,
      "hit": false,
      "t": 27640.43700000004,
      "d": 162.9212750000006,
      "v": 100
    },
    {
      "midi": 35,
      "hit": false,
      "t": 27808.976249999938,
      "d": 89.8875999999982,
      "v": 110
    },
    {
      "midi": 72,
      "hit": false,
      "t": 27808.976249999978,
      "d": 235.954950000003,
      "v": 80
    },
    {
      "midi": 60,
      "hit": false,
      "t": 27808.976250000018,
      "d": 168.53925000000163,
      "v": 110
    },
    {
      "midi": 60,
      "hit": false,
      "t": 27808.976250000018,
      "d": 168.53925000000163,
      "v": 110
    },
    {
      "midi": 51,
      "hit": false,
      "t": 27808.976250000043,
      "d": 162.9212750000006,
      "v": 100
    },
    {
      "midi": 51,
      "hit": false,
      "t": 27808.976250000043,
      "d": 162.9212750000006,
      "v": 100
    },
    {
      "midi": 74,
      "hit": false,
      "t": 27977.51549999998,
      "d": 196.6291250000031,
      "v": 80
    },
    {
      "midi": 62,
      "hit": false,
      "t": 27977.51550000002,
      "d": 196.6291250000031,
      "v": 110
    },
    {
      "midi": 62,
      "hit": false,
      "t": 27977.51550000002,
      "d": 196.6291250000031,
      "v": 110
    },
    {
      "midi": 44,
      "hit": false,
      "t": 27977.515500000045,
      "d": 162.9212750000006,
      "v": 100
    },
    {
      "midi": 44,
      "hit": false,
      "t": 27977.515500000045,
      "d": 162.9212750000006,
      "v": 100
    },
    {
      "midi": 40,
      "hit": false,
      "t": 27994.369424999935,
      "d": 112.35949999999866,
      "v": 110
    },
    {
      "midi": 75,
      "hit": false,
      "t": 28146.05474999998,
      "d": 179.77520000000004,
      "v": 80
    },
    {
      "midi": 63,
      "hit": false,
      "t": 28146.05475000002,
      "d": 174.15722500000265,
      "v": 110
    },
    {
      "midi": 63,
      "hit": false,
      "t": 28146.05475000002,
      "d": 174.15722500000265,
      "v": 110
    },
    {
      "midi": 51,
      "hit": false,
      "t": 28146.054750000047,
      "d": 162.9212750000006,
      "v": 100
    },
    {
      "midi": 51,
      "hit": false,
      "t": 28146.054750000047,
      "d": 162.9212750000006,
      "v": 100
    },
    {
      "midi": 35,
      "hit": false,
      "t": 28314.593999999935,
      "d": 134.83139999999912,
      "v": 110
    },
    {
      "midi": 74,
      "hit": false,
      "t": 28314.593999999983,
      "d": 308.98862499999814,
      "v": 80
    },
    {
      "midi": 65,
      "hit": false,
      "t": 28314.594000000023,
      "d": 337.0784999999996,
      "v": 110
    },
    {
      "midi": 65,
      "hit": false,
      "t": 28314.594000000023,
      "d": 337.0784999999996,
      "v": 110
    },
    {
      "midi": 46,
      "hit": false,
      "t": 28314.59400000005,
      "d": 162.9212750000006,
      "v": 100
    },
    {
      "midi": 41,
      "hit": false,
      "t": 28314.59400000005,
      "d": 668.5390250000055,
      "v": 100
    },
    {
      "midi": 46,
      "hit": false,
      "t": 28314.59400000005,
      "d": 162.9212750000006,
      "v": 100
    },
    {
      "midi": 41,
      "hit": false,
      "t": 28314.59400000005,
      "d": 668.5390250000055,
      "v": 100
    },
    {
      "midi": 53,
      "hit": false,
      "t": 28483.13325000005,
      "d": 162.9212750000006,
      "v": 100
    },
    {
      "midi": 53,
      "hit": false,
      "t": 28483.13325000005,
      "d": 162.9212750000006,
      "v": 100
    },
    {
      "midi": 40,
      "hit": false,
      "t": 28646.054524999934,
      "d": 123.59545000000071,
      "v": 110
    },
    {
      "midi": 72,
      "hit": false,
      "t": 28651.672499999982,
      "d": 185.39317500000107,
      "v": 80
    },
    {
      "midi": 63,
      "hit": false,
      "t": 28651.672500000022,
      "d": 185.39317500000107,
      "v": 110
    },
    {
      "midi": 63,
      "hit": false,
      "t": 28651.672500000022,
      "d": 185.39317500000107,
      "v": 110
    },
    {
      "midi": 46,
      "hit": false,
      "t": 28651.67250000005,
      "d": 162.9212750000006,
      "v": 100
    },
    {
      "midi": 46,
      "hit": false,
      "t": 28651.67250000005,
      "d": 162.9212750000006,
      "v": 100
    },
    {
      "midi": 74,
      "hit": false,
      "t": 28820.211749999984,
      "d": 162.9212750000006,
      "v": 80
    },
    {
      "midi": 65,
      "hit": false,
      "t": 28820.211750000024,
      "d": 146.06735000000117,
      "v": 110
    },
    {
      "midi": 65,
      "hit": false,
      "t": 28820.211750000024,
      "d": 146.06735000000117,
      "v": 110
    },
    {
      "midi": 53,
      "hit": false,
      "t": 28820.211750000053,
      "d": 162.9212750000006,
      "v": 100
    },
    {
      "midi": 53,
      "hit": false,
      "t": 28820.211750000053,
      "d": 162.9212750000006,
      "v": 100
    },
    {
      "midi": 35,
      "hit": false,
      "t": 28977.515049999936,
      "d": 89.8875999999982,
      "v": 110
    },
    {
      "midi": 46,
      "hit": false,
      "t": 28988.751000000055,
      "d": 162.9212750000006,
      "v": 100
    },
    {
      "midi": 46,
      "hit": false,
      "t": 28988.751000000055,
      "d": 162.9212750000006,
      "v": 100
    },
    {
      "midi": 35,
      "hit": false,
      "t": 29140.436324999933,
      "d": 117.97747499999969,
      "v": 110
    },
    {
      "midi": 75,
      "hit": false,
      "t": 29157.290249999984,
      "d": 213.4830499999989,
      "v": 80
    },
    {
      "midi": 67,
      "hit": false,
      "t": 29157.290250000024,
      "d": 168.53925000000163,
      "v": 110
    },
    {
      "midi": 67,
      "hit": false,
      "t": 29157.290250000024,
      "d": 168.53925000000163,
      "v": 110
    },
    {
      "midi": 53,
      "hit": false,
      "t": 29157.290250000056,
      "d": 162.9212750000006,
      "v": 100
    },
    {
      "midi": 53,
      "hit": false,
      "t": 29157.290250000056,
      "d": 162.9212750000006,
      "v": 100
    },
    {
      "midi": 40,
      "hit": false,
      "t": 29325.829499999934,
      "d": 134.83139999999912,
      "v": 110
    },
    {
      "midi": 46,
      "hit": false,
      "t": 29325.829500000058,
      "d": 162.9212750000006,
      "v": 100
    },
    {
      "midi": 46,
      "hit": false,
      "t": 29325.829500000058,
      "d": 162.9212750000006,
      "v": 100
    },
    {
      "midi": 42,
      "hit": false,
      "t": 29494.368749999932,
      "d": 134.83139999999912,
      "v": 110
    },
    {
      "midi": 72,
      "hit": false,
      "t": 29494.368749999983,
      "d": 1033.7073999999993,
      "v": 80
    },
    {
      "midi": 60,
      "hit": false,
      "t": 29494.368750000027,
      "d": 999.9995500000005,
      "v": 110
    },
    {
      "midi": 60,
      "hit": false,
      "t": 29494.368750000027,
      "d": 999.9995500000005,
      "v": 110
    },
    {
      "midi": 53,
      "hit": false,
      "t": 29494.36875000006,
      "d": 162.9212750000006,
      "v": 100
    },
    {
      "midi": 53,
      "hit": false,
      "t": 29494.36875000006,
      "d": 162.9212750000006,
      "v": 100
    },
    {
      "midi": 37,
      "hit": false,
      "t": 29578.638374999933,
      "d": 134.83139999999912,
      "v": 110
    },
    {
      "midi": 35,
      "hit": false,
      "t": 29657.290024999933,
      "d": 134.83139999999912,
      "v": 110
    },
    {
      "midi": 48,
      "hit": false,
      "t": 29662.90800000006,
      "d": 162.9212750000006,
      "v": 100
    },
    {
      "midi": 36,
      "hit": false,
      "t": 29662.90800000006,
      "d": 1342.696025000012,
      "v": 100
    },
    {
      "midi": 48,
      "hit": false,
      "t": 29662.90800000006,
      "d": 162.9212750000006,
      "v": 100
    },
    {
      "midi": 36,
      "hit": false,
      "t": 29662.90800000006,
      "d": 1342.696025000012,
      "v": 100
    },
    {
      "midi": 55,
      "hit": false,
      "t": 29831.447250000063,
      "d": 162.9212750000006,
      "v": 100
    },
    {
      "midi": 55,
      "hit": false,
      "t": 29831.447250000063,
      "d": 162.9212750000006,
      "v": 100
    },
    {
      "midi": 48,
      "hit": false,
      "t": 29999.986500000065,
      "d": 162.9212750000006,
      "v": 100
    },
    {
      "midi": 48,
      "hit": false,
      "t": 29999.986500000065,
      "d": 162.9212750000006,
      "v": 100
    },
    {
      "midi": 40,
      "hit": false,
      "t": 30011.222449999932,
      "d": 106.74152500000127,
      "v": 110
    },
    {
      "midi": 55,
      "hit": false,
      "t": 30168.525750000066,
      "d": 162.9212750000006,
      "v": 100
    },
    {
      "midi": 55,
      "hit": false,
      "t": 30168.525750000066,
      "d": 162.9212750000006,
      "v": 100
    },
    {
      "midi": 35,
      "hit": false,
      "t": 30331.447024999932,
      "d": 89.8875999999982,
      "v": 110
    },
    {
      "midi": 48,
      "hit": false,
      "t": 30337.065000000068,
      "d": 162.9212750000006,
      "v": 100
    },
    {
      "midi": 48,
      "hit": false,
      "t": 30337.065000000068,
      "d": 162.9212750000006,
      "v": 100
    },
    {
      "midi": 35,
      "hit": false,
      "t": 30505.60424999993,
      "d": 101.12355000000025,
      "v": 110
    },
    {
      "midi": 74,
      "hit": false,
      "t": 30505.604249999982,
      "d": 191.0111500000021,
      "v": 80
    },
    {
      "midi": 62,
      "hit": false,
      "t": 30505.604250000026,
      "d": 185.39317500000107,
      "v": 110
    },
    {
      "midi": 62,
      "hit": false,
      "t": 30505.604250000026,
      "d": 185.39317500000107,
      "v": 110
    },
    {
      "midi": 55,
      "hit": false,
      "t": 30505.60425000007,
      "d": 162.9212750000006,
      "v": 100
    },
    {
      "midi": 55,
      "hit": false,
      "t": 30505.60425000007,
      "d": 162.9212750000006,
      "v": 100
    },
    {
      "midi": 75,
      "hit": false,
      "t": 30674.143499999984,
      "d": 196.6291250000031,
      "v": 80
    },
    {
      "midi": 63,
      "hit": false,
      "t": 30674.143500000027,
      "d": 224.71899999999732,
      "v": 110
    },
    {
      "midi": 63,
      "hit": false,
      "t": 30674.143500000027,
      "d": 224.71899999999732,
      "v": 110
    },
    {
      "midi": 48,
      "hit": false,
      "t": 30674.14350000007,
      "d": 162.9212750000006,
      "v": 100
    },
    {
      "midi": 48,
      "hit": false,
      "t": 30674.14350000007,
      "d": 162.9212750000006,
      "v": 100
    },
    {
      "midi": 40,
      "hit": false,
      "t": 30679.76147499993,
      "d": 129.21342500000173,
      "v": 110
    },
    {
      "midi": 74,
      "hit": false,
      "t": 30842.682749999985,
      "d": 207.86507500000153,
      "v": 80
    },
    {
      "midi": 65,
      "hit": false,
      "t": 30842.682750000025,
      "d": 207.8650749999979,
      "v": 110
    },
    {
      "midi": 65,
      "hit": false,
      "t": 30842.682750000025,
      "d": 207.8650749999979,
      "v": 110
    },
    {
      "midi": 55,
      "hit": false,
      "t": 30842.682750000073,
      "d": 162.9212750000006,
      "v": 100
    },
    {
      "midi": 55,
      "hit": false,
      "t": 30842.682750000073,
      "d": 162.9212750000006,
      "v": 100
    },
    {
      "midi": 75,
      "hit": false,
      "t": 31011.221999999987,
      "d": 303.37065000000075,
      "v": 80
    },
    {
      "midi": 67,
      "hit": false,
      "t": 31011.222000000023,
      "d": 353.93242499999906,
      "v": 110
    },
    {
      "midi": 67,
      "hit": false,
      "t": 31011.222000000023,
      "d": 353.93242499999906,
      "v": 110
    },
    {
      "midi": 48,
      "hit": false,
      "t": 31011.222000000074,
      "d": 162.9212750000006,
      "v": 100
    },
    {
      "midi": 48,
      "hit": false,
      "t": 31011.222000000074,
      "d": 162.9212750000006,
      "v": 100
    },
    {
      "midi": 35,
      "hit": false,
      "t": 31016.839974999933,
      "d": 123.59545000000071,
      "v": 110
    },
    {
      "midi": 55,
      "hit": false,
      "t": 31179.761250000076,
      "d": 162.9212750000006,
      "v": 100
    },
    {
      "midi": 55,
      "hit": false,
      "t": 31179.761250000076,
      "d": 162.9212750000006,
      "v": 100
    },
    {
      "midi": 74,
      "hit": false,
      "t": 31348.300499999987,
      "d": 196.6291250000031,
      "v": 80
    },
    {
      "midi": 65,
      "hit": false,
      "t": 31348.300500000023,
      "d": 207.8650749999979,
      "v": 110
    },
    {
      "midi": 65,
      "hit": false,
      "t": 31348.300500000023,
      "d": 207.8650749999979,
      "v": 110
    },
    {
      "midi": 48,
      "hit": false,
      "t": 31359.536450000076,
      "d": 162.9212750000006,
      "v": 100
    },
    {
      "midi": 48,
      "hit": false,
      "t": 31359.536450000076,
      "d": 162.9212750000006,
      "v": 100
    },
    {
      "midi": 40,
      "hit": false,
      "t": 31370.772399999933,
      "d": 129.21342500000173,
      "v": 110
    },
    {
      "midi": 75,
      "hit": false,
      "t": 31516.83974999999,
      "d": 174.15722500000265,
      "v": 80
    },
    {
      "midi": 67,
      "hit": false,
      "t": 31516.83975000002,
      "d": 112.35949999999866,
      "v": 110
    },
    {
      "midi": 67,
      "hit": false,
      "t": 31516.83975000002,
      "d": 112.35949999999866,
      "v": 110
    },
    {
      "midi": 55,
      "hit": false,
      "t": 31516.839750000076,
      "d": 162.9212750000006,
      "v": 100
    },
    {
      "midi": 55,
      "hit": false,
      "t": 31516.839750000076,
      "d": 162.9212750000006,
      "v": 100
    },
    {
      "midi": 48,
      "hit": false,
      "t": 31685.379000000077,
      "d": 162.9212750000006,
      "v": 100
    },
    {
      "midi": 48,
      "hit": false,
      "t": 31685.379000000077,
      "d": 162.9212750000006,
      "v": 100
    },
    {
      "midi": 35,
      "hit": false,
      "t": 31690.996974999933,
      "d": 78.65164999999979,
      "v": 110
    },
    {
      "midi": 77,
      "hit": false,
      "t": 31853.91824999999,
      "d": 185.39317500000107,
      "v": 80
    },
    {
      "midi": 72,
      "hit": false,
      "t": 31853.91825000002,
      "d": 146.06735000000117,
      "v": 110
    },
    {
      "midi": 72,
      "hit": false,
      "t": 31853.91825000002,
      "d": 146.06735000000117,
      "v": 110
    },
    {
      "midi": 55,
      "hit": false,
      "t": 31853.91825000008,
      "d": 162.9212750000006,
      "v": 100
    },
    {
      "midi": 55,
      "hit": false,
      "t": 31853.91825000008,
      "d": 162.9212750000006,
      "v": 100
    },
    {
      "midi": 35,
      "hit": false,
      "t": 31859.53622499993,
      "d": 89.8875999999982,
      "v": 110
    },
    {
      "midi": 48,
      "hit": false,
      "t": 32022.45750000008,
      "d": 162.9212750000006,
      "v": 100
    },
    {
      "midi": 48,
      "hit": false,
      "t": 32022.45750000008,
      "d": 162.9212750000006,
      "v": 100
    },
    {
      "midi": 40,
      "hit": false,
      "t": 32033.69344999993,
      "d": 129.21342500000173,
      "v": 110
    },
    {
      "midi": 42,
      "hit": false,
      "t": 32190.996749999933,
      "d": 134.83139999999912,
      "v": 110
    },
    {
      "midi": 75,
      "hit": false,
      "t": 32190.99674999999,
      "d": 1011.2355000000025,
      "v": 80
    },
    {
      "midi": 63,
      "hit": false,
      "t": 32190.99675000002,
      "d": 943.8197999999975,
      "v": 110
    },
    {
      "midi": 63,
      "hit": false,
      "t": 32190.99675000002,
      "d": 943.8197999999975,
      "v": 110
    },
    {
      "midi": 55,
      "hit": false,
      "t": 32190.996750000082,
      "d": 162.9212750000006,
      "v": 100
    },
    {
      "midi": 55,
      "hit": false,
      "t": 32190.996750000082,
      "d": 162.9212750000006,
      "v": 100
    },
    {
      "midi": 37,
      "hit": false,
      "t": 32275.266374999934,
      "d": 134.83139999999548,
      "v": 110
    },
    {
      "midi": 35,
      "hit": false,
      "t": 32359.53599999993,
      "d": 89.8875999999982,
      "v": 110
    },
    {
      "midi": 44,
      "hit": false,
      "t": 32359.536000000084,
      "d": 162.9212750000006,
      "v": 100
    },
    {
      "midi": 39,
      "hit": false,
      "t": 32359.536000000084,
      "d": 668.5390250000019,
      "v": 100
    },
    {
      "midi": 44,
      "hit": false,
      "t": 32359.536000000084,
      "d": 162.9212750000006,
      "v": 100
    },
    {
      "midi": 39,
      "hit": false,
      "t": 32359.536000000084,
      "d": 668.5390250000019,
      "v": 100
    },
    {
      "midi": 51,
      "hit": false,
      "t": 32528.075250000085,
      "d": 162.9212750000006,
      "v": 100
    },
    {
      "midi": 51,
      "hit": false,
      "t": 32528.075250000085,
      "d": 162.9212750000006,
      "v": 100
    },
    {
      "midi": 44,
      "hit": false,
      "t": 32696.614500000087,
      "d": 162.92127499999697,
      "v": 100
    },
    {
      "midi": 44,
      "hit": false,
      "t": 32696.614500000087,
      "d": 162.92127499999697,
      "v": 100
    },
    {
      "midi": 40,
      "hit": false,
      "t": 32719.086399999927,
      "d": 129.21342500000173,
      "v": 110
    },
    {
      "midi": 51,
      "hit": false,
      "t": 32865.153750000085,
      "d": 162.9212750000006,
      "v": 100
    },
    {
      "midi": 51,
      "hit": false,
      "t": 32865.153750000085,
      "d": 162.9212750000006,
      "v": 100
    },
    {
      "midi": 44,
      "hit": false,
      "t": 33033.69300000009,
      "d": 162.9212750000006,
      "v": 100
    },
    {
      "midi": 44,
      "hit": false,
      "t": 33033.69300000009,
      "d": 162.9212750000006,
      "v": 100
    },
    {
      "midi": 35,
      "hit": false,
      "t": 33050.54692499993,
      "d": 117.97747499999969,
      "v": 110
    },
    {
      "midi": 35,
      "hit": false,
      "t": 33202.23224999993,
      "d": 101.12354999999661,
      "v": 110
    },
    {
      "midi": 72,
      "hit": false,
      "t": 33202.232249999994,
      "d": 185.3931750000047,
      "v": 80
    },
    {
      "midi": 60,
      "hit": false,
      "t": 33202.232250000015,
      "d": 196.62912499999948,
      "v": 110
    },
    {
      "midi": 60,
      "hit": false,
      "t": 33202.232250000015,
      "d": 196.62912499999948,
      "v": 110
    },
    {
      "midi": 51,
      "hit": false,
      "t": 33202.23225000009,
      "d": 162.9212750000006,
      "v": 100
    },
    {
      "midi": 51,
      "hit": false,
      "t": 33202.23225000009,
      "d": 162.9212750000006,
      "v": 100
    },
    {
      "midi": 40,
      "hit": false,
      "t": 33370.77149999992,
      "d": 123.59545000000071,
      "v": 110
    },
    {
      "midi": 74,
      "hit": false,
      "t": 33370.771499999995,
      "d": 185.3931750000047,
      "v": 80
    },
    {
      "midi": 62,
      "hit": false,
      "t": 33370.77150000002,
      "d": 196.6291249999922,
      "v": 110
    },
    {
      "midi": 62,
      "hit": false,
      "t": 33370.77150000002,
      "d": 196.6291249999922,
      "v": 110
    },
    {
      "midi": 44,
      "hit": false,
      "t": 33370.77150000009,
      "d": 162.9212750000006,
      "v": 100
    },
    {
      "midi": 44,
      "hit": false,
      "t": 33370.77150000009,
      "d": 162.9212750000006,
      "v": 100
    },
    {
      "midi": 75,
      "hit": false,
      "t": 33539.31075,
      "d": 191.01114999999845,
      "v": 80
    },
    {
      "midi": 63,
      "hit": false,
      "t": 33539.31075000001,
      "d": 151.68532499999856,
      "v": 110
    },
    {
      "midi": 63,
      "hit": false,
      "t": 33539.31075000001,
      "d": 151.68532499999856,
      "v": 110
    },
    {
      "midi": 51,
      "hit": false,
      "t": 33539.31075000009,
      "d": 162.9212750000006,
      "v": 100
    },
    {
      "midi": 51,
      "hit": false,
      "t": 33539.31075000009,
      "d": 162.9212750000006,
      "v": 100
    },
    {
      "midi": 74,
      "hit": false,
      "t": 33707.85,
      "d": 303.3706499999971,
      "v": 80
    },
    {
      "midi": 65,
      "hit": false,
      "t": 33707.85000000001,
      "d": 370.78635000000213,
      "v": 110
    },
    {
      "midi": 65,
      "hit": false,
      "t": 33707.85000000001,
      "d": 370.78635000000213,
      "v": 110
    },
    {
      "midi": 46,
      "hit": false,
      "t": 33707.85000000009,
      "d": 162.9212750000006,
      "v": 100
    },
    {
      "midi": 41,
      "hit": false,
      "t": 33707.85000000009,
      "d": 668.5390250000055,
      "v": 100
    },
    {
      "midi": 46,
      "hit": false,
      "t": 33707.85000000009,
      "d": 162.9212750000006,
      "v": 100
    },
    {
      "midi": 41,
      "hit": false,
      "t": 33707.85000000009,
      "d": 668.5390250000055,
      "v": 100
    },
    {
      "midi": 35,
      "hit": false,
      "t": 33719.08594999992,
      "d": 101.12354999999661,
      "v": 110
    },
    {
      "midi": 53,
      "hit": false,
      "t": 33876.389250000095,
      "d": 162.9212750000006,
      "v": 100
    },
    {
      "midi": 53,
      "hit": false,
      "t": 33876.389250000095,
      "d": 162.9212750000006,
      "v": 100
    },
    {
      "midi": 72,
      "hit": false,
      "t": 34044.928499999995,
      "d": 202.2471000000005,
      "v": 80
    },
    {
      "midi": 63,
      "hit": false,
      "t": 34044.928500000016,
      "d": 191.01114999999845,
      "v": 110
    },
    {
      "midi": 63,
      "hit": false,
      "t": 34044.928500000016,
      "d": 191.01114999999845,
      "v": 110
    },
    {
      "midi": 46,
      "hit": false,
      "t": 34044.9285000001,
      "d": 162.9212750000006,
      "v": 100
    },
    {
      "midi": 46,
      "hit": false,
      "t": 34044.9285000001,
      "d": 162.9212750000006,
      "v": 100
    },
    {
      "midi": 40,
      "hit": false,
      "t": 34073.01837499992,
      "d": 106.74152499999764,
      "v": 110
    },
    {
      "midi": 74,
      "hit": false,
      "t": 34213.467749999996,
      "d": 174.15722499999538,
      "v": 80
    },
    {
      "midi": 65,
      "hit": false,
      "t": 34213.46775000002,
      "d": 134.83139999999548,
      "v": 110
    },
    {
      "midi": 65,
      "hit": false,
      "t": 34213.46775000002,
      "d": 134.83139999999548,
      "v": 110
    },
    {
      "midi": 53,
      "hit": false,
      "t": 34213.4677500001,
      "d": 162.9212750000006,
      "v": 100
    },
    {
      "midi": 53,
      "hit": false,
      "t": 34213.4677500001,
      "d": 162.9212750000006,
      "v": 100
    },
    {
      "midi": 46,
      "hit": false,
      "t": 34382.0070000001,
      "d": 162.9212750000006,
      "v": 100
    },
    {
      "midi": 46,
      "hit": false,
      "t": 34382.0070000001,
      "d": 162.9212750000006,
      "v": 100
    },
    {
      "midi": 35,
      "hit": false,
      "t": 34404.478899999915,
      "d": 73.03367499999877,
      "v": 110
    },
    {
      "midi": 75,
      "hit": false,
      "t": 34550.54624999999,
      "d": 179.7751999999964,
      "v": 80
    },
    {
      "midi": 67,
      "hit": false,
      "t": 34550.546250000014,
      "d": 146.06734999999753,
      "v": 110
    },
    {
      "midi": 67,
      "hit": false,
      "t": 34550.546250000014,
      "d": 146.06734999999753,
      "v": 110
    },
    {
      "midi": 53,
      "hit": false,
      "t": 34550.5462500001,
      "d": 162.9212750000006,
      "v": 100
    },
    {
      "midi": 53,
      "hit": false,
      "t": 34550.5462500001,
      "d": 162.9212750000006,
      "v": 100
    },
    {
      "midi": 35,
      "hit": false,
      "t": 34556.16422499991,
      "d": 95.50557500000286,
      "v": 110
    },
    {
      "midi": 40,
      "hit": false,
      "t": 34713.46752499991,
      "d": 117.97747499999969,
      "v": 110
    },
    {
      "midi": 46,
      "hit": false,
      "t": 34719.0855000001,
      "d": 162.9212750000006,
      "v": 100
    },
    {
      "midi": 46,
      "hit": false,
      "t": 34719.0855000001,
      "d": 162.9212750000006,
      "v": 100
    },
    {
      "midi": 42,
      "hit": false,
      "t": 34887.624749999915,
      "d": 134.83140000000276,
      "v": 110
    },
    {
      "midi": 75,
      "hit": false,
      "t": 34887.62474999999,
      "d": 162.9212750000006,
      "v": 80
    },
    {
      "midi": 67,
      "hit": false,
      "t": 34887.62475000001,
      "d": 117.97747499999969,
      "v": 110
    },
    {
      "midi": 67,
      "hit": false,
      "t": 34887.62475000001,
      "d": 117.97747499999969,
      "v": 110
    },
    {
      "midi": 53,
      "hit": false,
      "t": 34887.624750000105,
      "d": 162.9212750000006,
      "v": 100
    },
    {
      "midi": 53,
      "hit": false,
      "t": 34887.624750000105,
      "d": 162.9212750000006,
      "v": 100
    },
    {
      "midi": 37,
      "hit": false,
      "t": 34971.894374999916,
      "d": 134.83140000000276,
      "v": 110
    },
    {
      "midi": 77,
      "hit": false,
      "t": 35056.16399999999,
      "d": 73.03367499999877,
      "v": 80
    },
    {
      "midi": 68,
      "hit": false,
      "t": 35056.16400000001,
      "d": 89.88760000000184,
      "v": 110
    },
    {
      "midi": 68,
      "hit": false,
      "t": 35056.16400000001,
      "d": 89.88760000000184,
      "v": 110
    },
    {
      "midi": 44,
      "hit": false,
      "t": 35056.164000000106,
      "d": 162.9212750000006,
      "v": 100
    },
    {
      "midi": 39,
      "hit": false,
      "t": 35056.164000000106,
      "d": 331.46052500000224,
      "v": 100
    },
    {
      "midi": 44,
      "hit": false,
      "t": 35056.164000000106,
      "d": 162.9212750000006,
      "v": 100
    },
    {
      "midi": 39,
      "hit": false,
      "t": 35056.164000000106,
      "d": 331.46052500000224,
      "v": 100
    },
    {
      "midi": 35,
      "hit": false,
      "t": 35067.39994999992,
      "d": 95.50557500000286,
      "v": 110
    },
    {
      "midi": 77,
      "hit": false,
      "t": 35224.70324999999,
      "d": 89.88760000000184,
      "v": 80
    },
    {
      "midi": 68,
      "hit": false,
      "t": 35224.70325000001,
      "d": 95.50557500000286,
      "v": 110
    },
    {
      "midi": 68,
      "hit": false,
      "t": 35224.70325000001,
      "d": 95.50557500000286,
      "v": 110
    },
    {
      "midi": 51,
      "hit": false,
      "t": 35224.70325000011,
      "d": 162.9212750000006,
      "v": 100
    },
    {
      "midi": 51,
      "hit": false,
      "t": 35224.70325000011,
      "d": 162.9212750000006,
      "v": 100
    },
    {
      "midi": 77,
      "hit": false,
      "t": 35393.24249999999,
      "d": 84.26962500000081,
      "v": 80
    },
    {
      "midi": 68,
      "hit": false,
      "t": 35393.242500000015,
      "d": 117.97747499999969,
      "v": 110
    },
    {
      "midi": 68,
      "hit": false,
      "t": 35393.242500000015,
      "d": 117.97747499999969,
      "v": 110
    },
    {
      "midi": 44,
      "hit": false,
      "t": 35393.24250000011,
      "d": 162.9212750000006,
      "v": 100
    },
    {
      "midi": 44,
      "hit": false,
      "t": 35393.24250000011,
      "d": 162.9212750000006,
      "v": 100
    },
    {
      "midi": 40,
      "hit": false,
      "t": 35404.47844999992,
      "d": 117.97747499999969,
      "v": 110
    },
    {
      "midi": 35,
      "hit": false,
      "t": 35561.78174999992,
      "d": 101.12354999999661,
      "v": 110
    },
    {
      "midi": 75,
      "hit": false,
      "t": 35561.781749999995,
      "d": 123.59545000000071,
      "v": 80
    },
    {
      "midi": 67,
      "hit": false,
      "t": 35561.78175000002,
      "d": 117.97747499999969,
      "v": 110
    },
    {
      "midi": 67,
      "hit": false,
      "t": 35561.78175000002,
      "d": 117.97747499999969,
      "v": 110
    },
    {
      "midi": 51,
      "hit": false,
      "t": 35561.78175000011,
      "d": 162.9212750000006,
      "v": 100
    },
    {
      "midi": 51,
      "hit": false,
      "t": 35561.78175000011,
      "d": 162.9212750000006,
      "v": 100
    },
    {
      "midi": 35,
      "hit": false,
      "t": 35730.320999999916,
      "d": 84.26962500000081,
      "v": 110
    },
    {
      "midi": 43,
      "hit": false,
      "t": 35730.32100000011,
      "d": 162.9212750000006,
      "v": 100
    },
    {
      "midi": 41,
      "hit": false,
      "t": 35730.32100000011,
      "d": 331.46052500000224,
      "v": 100
    },
    {
      "midi": 43,
      "hit": false,
      "t": 35730.32100000011,
      "d": 162.9212750000006,
      "v": 100
    },
    {
      "midi": 41,
      "hit": false,
      "t": 35730.32100000011,
      "d": 331.46052500000224,
      "v": 100
    },
    {
      "midi": 74,
      "hit": false,
      "t": 35898.86025,
      "d": 123.59545000000071,
      "v": 80
    },
    {
      "midi": 67,
      "hit": false,
      "t": 35898.86025000002,
      "d": 157.30329999999958,
      "v": 110
    },
    {
      "midi": 67,
      "hit": false,
      "t": 35898.86025000002,
      "d": 157.30329999999958,
      "v": 110
    },
    {
      "midi": 50,
      "hit": false,
      "t": 35898.860250000114,
      "d": 162.9212750000006,
      "v": 100
    },
    {
      "midi": 50,
      "hit": false,
      "t": 35898.860250000114,
      "d": 162.9212750000006,
      "v": 100
    },
    {
      "midi": 35,
      "hit": false,
      "t": 35904.47822499992,
      "d": 95.50557500000286,
      "v": 110
    },
    {
      "midi": 43,
      "hit": false,
      "t": 36067.399500000116,
      "d": 162.9212750000006,
      "v": 100
    },
    {
      "midi": 43,
      "hit": false,
      "t": 36067.399500000116,
      "d": 162.9212750000006,
      "v": 100
    },
    {
      "midi": 40,
      "hit": false,
      "t": 36073.01747499992,
      "d": 117.97747499999969,
      "v": 110
    },
    {
      "midi": 72,
      "hit": false,
      "t": 36235.93875,
      "d": 129.21342500000173,
      "v": 80
    },
    {
      "midi": 63,
      "hit": false,
      "t": 36235.938750000016,
      "d": 101.12354999999661,
      "v": 110
    },
    {
      "midi": 63,
      "hit": false,
      "t": 36235.938750000016,
      "d": 101.12354999999661,
      "v": 110
    },
    {
      "midi": 50,
      "hit": false,
      "t": 36235.93875000012,
      "d": 162.9212750000006,
      "v": 100
    },
    {
      "midi": 50,
      "hit": false,
      "t": 36235.93875000012,
      "d": 162.9212750000006,
      "v": 100
    },
    {
      "midi": 75,
      "hit": false,
      "t": 36404.478,
      "d": 146.06734999999753,
      "v": 80
    },
    {
      "midi": 67,
      "hit": false,
      "t": 36404.47800000001,
      "d": 134.83140000000276,
      "v": 110
    },
    {
      "midi": 67,
      "hit": false,
      "t": 36404.47800000001,
      "d": 134.83140000000276,
      "v": 110
    },
    {
      "midi": 48,
      "hit": false,
      "t": 36404.47800000012,
      "d": 162.9212750000006,
      "v": 100
    },
    {
      "midi": 43,
      "hit": false,
      "t": 36404.47800000012,
      "d": 668.5390250000055,
      "v": 100
    },
    {
      "midi": 48,
      "hit": false,
      "t": 36404.47800000012,
      "d": 162.9212750000006,
      "v": 100
    },
    {
      "midi": 43,
      "hit": false,
      "t": 36404.47800000012,
      "d": 668.5390250000055,
      "v": 100
    },
    {
      "midi": 35,
      "hit": false,
      "t": 36410.095974999924,
      "d": 84.26962500000081,
      "v": 110
    },
    {
      "midi": 55,
      "hit": false,
      "t": 36573.01725000012,
      "d": 162.9212750000006,
      "v": 100
    },
    {
      "midi": 55,
      "hit": false,
      "t": 36573.01725000012,
      "d": 162.9212750000006,
      "v": 100
    },
    {
      "midi": 40,
      "hit": false,
      "t": 36730.320549999924,
      "d": 146.06734999999753,
      "v": 110
    },
    {
      "midi": 75,
      "hit": false,
      "t": 36741.5565,
      "d": 837.0782749999998,
      "v": 80
    },
    {
      "midi": 67,
      "hit": false,
      "t": 36741.55650000001,
      "d": 921.3479000000007,
      "v": 110
    },
    {
      "midi": 67,
      "hit": false,
      "t": 36741.55650000001,
      "d": 921.3479000000007,
      "v": 110
    },
    {
      "midi": 48,
      "hit": false,
      "t": 36741.55650000012,
      "d": 162.9212750000006,
      "v": 100
    },
    {
      "midi": 48,
      "hit": false,
      "t": 36741.55650000012,
      "d": 162.9212750000006,
      "v": 100
    },
    {
      "midi": 35,
      "hit": false,
      "t": 36910.09574999992,
      "d": 101.12354999999661,
      "v": 110
    },
    {
      "midi": 55,
      "hit": false,
      "t": 36910.095750000124,
      "d": 162.9212750000006,
      "v": 100
    },
    {
      "midi": 55,
      "hit": false,
      "t": 36910.095750000124,
      "d": 162.9212750000006,
      "v": 100
    },
    {
      "midi": 48,
      "hit": false,
      "t": 37078.635000000126,
      "d": 162.9212750000006,
      "v": 100
    },
    {
      "midi": 48,
      "hit": false,
      "t": 37078.635000000126,
      "d": 162.9212750000006,
      "v": 100
    },
    {
      "midi": 35,
      "hit": false,
      "t": 37089.87094999992,
      "d": 78.65164999999979,
      "v": 110
    },
    {
      "midi": 55,
      "hit": false,
      "t": 37247.17425000013,
      "d": 162.9212750000006,
      "v": 100
    },
    {
      "midi": 55,
      "hit": false,
      "t": 37247.17425000013,
      "d": 162.9212750000006,
      "v": 100
    },
    {
      "midi": 35,
      "hit": false,
      "t": 37258.41019999992,
      "d": 101.12354999999661,
      "v": 110
    },
    {
      "midi": 48,
      "hit": false,
      "t": 37415.71350000013,
      "d": 162.9212750000006,
      "v": 100
    },
    {
      "midi": 48,
      "hit": false,
      "t": 37415.71350000013,
      "d": 162.9212750000006,
      "v": 100
    },
    {
      "midi": 40,
      "hit": false,
      "t": 37426.94944999991,
      "d": 151.68532499999856,
      "v": 110
    },
    {
      "midi": 42,
      "hit": false,
      "t": 37584.25274999991,
      "d": 134.83140000000276,
      "v": 110
    },
    {
      "midi": 74,
      "hit": false,
      "t": 37584.25275,
      "d": 162.9212750000006,
      "v": 80
    },
    {
      "midi": 55,
      "hit": false,
      "t": 37584.25275000013,
      "d": 162.9212750000006,
      "v": 100
    },
    {
      "midi": 55,
      "hit": false,
      "t": 37584.25275000013,
      "d": 162.9212750000006,
      "v": 100
    },
    {
      "midi": 37,
      "hit": false,
      "t": 37668.52237499991,
      "d": 134.83140000000276,
      "v": 110
    },
    {
      "midi": 77,
      "hit": false,
      "t": 37752.792,
      "d": 123.59545000000071,
      "v": 80
    },
    {
      "midi": 68,
      "hit": false,
      "t": 37752.792000000016,
      "d": 67.41569999999774,
      "v": 110
    },
    {
      "midi": 68,
      "hit": false,
      "t": 37752.792000000016,
      "d": 67.41569999999774,
      "v": 110
    },
    {
      "midi": 44,
      "hit": false,
      "t": 37752.79200000013,
      "d": 162.9212750000006,
      "v": 100
    },
    {
      "midi": 39,
      "hit": false,
      "t": 37752.79200000013,
      "d": 331.46052500000224,
      "v": 100
    },
    {
      "midi": 44,
      "hit": false,
      "t": 37752.79200000013,
      "d": 162.9212750000006,
      "v": 100
    },
    {
      "midi": 39,
      "hit": false,
      "t": 37752.79200000013,
      "d": 331.46052500000224,
      "v": 100
    },
    {
      "midi": 35,
      "hit": false,
      "t": 37775.26389999992,
      "d": 73.03367499999877,
      "v": 110
    },
    {
      "midi": 77,
      "hit": false,
      "t": 37921.33125,
      "d": 89.88760000000184,
      "v": 80
    },
    {
      "midi": 68,
      "hit": false,
      "t": 37921.33125000001,
      "d": 84.26962500000081,
      "v": 110
    },
    {
      "midi": 68,
      "hit": false,
      "t": 37921.33125000001,
      "d": 84.26962500000081,
      "v": 110
    },
    {
      "midi": 51,
      "hit": false,
      "t": 37921.331250000134,
      "d": 162.9212750000006,
      "v": 100
    },
    {
      "midi": 51,
      "hit": false,
      "t": 37921.331250000134,
      "d": 162.9212750000006,
      "v": 100
    },
    {
      "midi": 77,
      "hit": false,
      "t": 38089.870500000005,
      "d": 106.74152499999764,
      "v": 80
    },
    {
      "midi": 68,
      "hit": false,
      "t": 38089.87050000001,
      "d": 112.35949999999866,
      "v": 110
    },
    {
      "midi": 68,
      "hit": false,
      "t": 38089.87050000001,
      "d": 112.35949999999866,
      "v": 110
    },
    {
      "midi": 44,
      "hit": false,
      "t": 38089.870500000136,
      "d": 162.9212750000006,
      "v": 100
    },
    {
      "midi": 44,
      "hit": false,
      "t": 38089.870500000136,
      "d": 162.9212750000006,
      "v": 100
    },
    {
      "midi": 40,
      "hit": false,
      "t": 38123.578349999916,
      "d": 112.35949999999866,
      "v": 110
    },
    {
      "midi": 75,
      "hit": false,
      "t": 38258.40975,
      "d": 162.9212750000006,
      "v": 80
    },
    {
      "midi": 67,
      "hit": false,
      "t": 38258.40975000001,
      "d": 123.59545000000071,
      "v": 110
    },
    {
      "midi": 67,
      "hit": false,
      "t": 38258.40975000001,
      "d": 123.59545000000071,
      "v": 110
    },
    {
      "midi": 51,
      "hit": false,
      "t": 38258.40975000014,
      "d": 162.9212750000006,
      "v": 100
    },
    {
      "midi": 51,
      "hit": false,
      "t": 38258.40975000014,
      "d": 162.9212750000006,
      "v": 100
    },
    {
      "midi": 46,
      "hit": false,
      "t": 38426.94900000014,
      "d": 162.9212750000006,
      "v": 100
    },
    {
      "midi": 41,
      "hit": false,
      "t": 38426.94900000014,
      "d": 331.46052500000224,
      "v": 100
    },
    {
      "midi": 46,
      "hit": false,
      "t": 38426.94900000014,
      "d": 162.9212750000006,
      "v": 100
    },
    {
      "midi": 41,
      "hit": false,
      "t": 38426.94900000014,
      "d": 331.46052500000224,
      "v": 100
    },
    {
      "midi": 35,
      "hit": false,
      "t": 38455.03887499992,
      "d": 106.74152499999764,
      "v": 110
    },
    {
      "midi": 35,
      "hit": false,
      "t": 38595.488249999915,
      "d": 73.03367499999877,
      "v": 110
    },
    {
      "midi": 74,
      "hit": false,
      "t": 38595.48825,
      "d": 157.30329999999958,
      "v": 80
    },
    {
      "midi": 65,
      "hit": false,
      "t": 38595.48825000002,
      "d": 179.7751999999964,
      "v": 110
    },
    {
      "midi": 65,
      "hit": false,
      "t": 38595.48825000002,
      "d": 179.7751999999964,
      "v": 110
    },
    {
      "midi": 53,
      "hit": false,
      "t": 38595.48825000014,
      "d": 162.9212750000006,
      "v": 100
    },
    {
      "midi": 53,
      "hit": false,
      "t": 38595.48825000014,
      "d": 162.9212750000006,
      "v": 100
    },
    {
      "midi": 46,
      "hit": false,
      "t": 38764.02750000014,
      "d": 162.9212750000006,
      "v": 100
    },
    {
      "midi": 46,
      "hit": false,
      "t": 38764.02750000014,
      "d": 162.9212750000006,
      "v": 100
    },
    {
      "midi": 40,
      "hit": false,
      "t": 38780.88142499991,
      "d": 123.59545000000071,
      "v": 110
    },
    {
      "midi": 72,
      "hit": false,
      "t": 38932.56675,
      "d": 140.4493749999965,
      "v": 80
    },
    {
      "midi": 63,
      "hit": false,
      "t": 38932.56675000001,
      "d": 73.03367499999877,
      "v": 110
    },
    {
      "midi": 63,
      "hit": false,
      "t": 38932.56675000001,
      "d": 73.03367499999877,
      "v": 110
    },
    {
      "midi": 53,
      "hit": false,
      "t": 38932.566750000144,
      "d": 162.9212750000006,
      "v": 100
    },
    {
      "midi": 53,
      "hit": false,
      "t": 38932.566750000144,
      "d": 162.9212750000006,
      "v": 100
    },
    {
      "midi": 75,
      "hit": false,
      "t": 39101.10599999999,
      "d": 342.6964750000043,
      "v": 80
    },
    {
      "midi": 67,
      "hit": false,
      "t": 39101.106000000014,
      "d": 331.46052500000224,
      "v": 110
    },
    {
      "midi": 67,
      "hit": false,
      "t": 39101.106000000014,
      "d": 331.46052500000224,
      "v": 110
    },
    {
      "midi": 48,
      "hit": false,
      "t": 39101.106000000145,
      "d": 162.9212750000006,
      "v": 100
    },
    {
      "midi": 43,
      "hit": false,
      "t": 39101.106000000145,
      "d": 668.5390250000055,
      "v": 100
    },
    {
      "midi": 48,
      "hit": false,
      "t": 39101.106000000145,
      "d": 162.9212750000006,
      "v": 100
    },
    {
      "midi": 43,
      "hit": false,
      "t": 39101.106000000145,
      "d": 668.5390250000055,
      "v": 100
    },
    {
      "midi": 35,
      "hit": false,
      "t": 39123.57789999992,
      "d": 73.03367499999877,
      "v": 110
    },
    {
      "midi": 55,
      "hit": false,
      "t": 39269.64525000015,
      "d": 162.9212750000006,
      "v": 100
    },
    {
      "midi": 55,
      "hit": false,
      "t": 39269.64525000015,
      "d": 162.9212750000006,
      "v": 100
    },
    {
      "midi": 74,
      "hit": false,
      "t": 39438.184499999996,
      "d": 168.53925000000163,
      "v": 80
    },
    {
      "midi": 63,
      "hit": false,
      "t": 39438.18450000002,
      "d": 162.9212750000006,
      "v": 110
    },
    {
      "midi": 63,
      "hit": false,
      "t": 39438.18450000002,
      "d": 162.9212750000006,
      "v": 110
    },
    {
      "midi": 48,
      "hit": false,
      "t": 39438.18450000015,
      "d": 162.9212750000006,
      "v": 100
    },
    {
      "midi": 48,
      "hit": false,
      "t": 39438.18450000015,
      "d": 162.9212750000006,
      "v": 100
    },
    {
      "midi": 40,
      "hit": false,
      "t": 39455.03842499992,
      "d": 117.97747499999969,
      "v": 110
    },
    {
      "midi": 72,
      "hit": false,
      "t": 39606.72375,
      "d": 179.7751999999964,
      "v": 80
    },
    {
      "midi": 67,
      "hit": false,
      "t": 39606.72375000002,
      "d": 162.9212750000006,
      "v": 110
    },
    {
      "midi": 67,
      "hit": false,
      "t": 39606.72375000002,
      "d": 162.9212750000006,
      "v": 110
    },
    {
      "midi": 55,
      "hit": false,
      "t": 39606.72375000015,
      "d": 162.9212750000006,
      "v": 100
    },
    {
      "midi": 55,
      "hit": false,
      "t": 39606.72375000015,
      "d": 162.9212750000006,
      "v": 100
    },
    {
      "midi": 48,
      "hit": false,
      "t": 39775.26300000015,
      "d": 162.9212750000006,
      "v": 100
    },
    {
      "midi": 48,
      "hit": false,
      "t": 39775.26300000015,
      "d": 162.9212750000006,
      "v": 100
    },
    {
      "midi": 35,
      "hit": false,
      "t": 39786.49894999992,
      "d": 84.26962500000081,
      "v": 110
    },
    {
      "midi": 35,
      "hit": false,
      "t": 39943.80224999992,
      "d": 89.88760000000184,
      "v": 110
    },
    {
      "midi": 74,
      "hit": false,
      "t": 39943.80224999999,
      "d": 460.6739499999967,
      "v": 80
    },
    {
      "midi": 70,
      "hit": false,
      "t": 39943.80225000002,
      "d": 499.9997749999966,
      "v": 110
    },
    {
      "midi": 70,
      "hit": false,
      "t": 39943.80225000002,
      "d": 499.9997749999966,
      "v": 110
    },
    {
      "midi": 55,
      "hit": false,
      "t": 39943.80225000015,
      "d": 162.9212750000006,
      "v": 100
    },
    {
      "midi": 55,
      "hit": false,
      "t": 39943.80225000015,
      "d": 162.9212750000006,
      "v": 100
    },
    {
      "midi": 48,
      "hit": false,
      "t": 40112.341500000155,
      "d": 162.9212750000006,
      "v": 100
    },
    {
      "midi": 48,
      "hit": false,
      "t": 40112.341500000155,
      "d": 162.9212750000006,
      "v": 100
    },
    {
      "midi": 40,
      "hit": false,
      "t": 40134.81339999992,
      "d": 129.21342500000173,
      "v": 110
    },
    {
      "midi": 42,
      "hit": false,
      "t": 40280.880749999924,
      "d": 134.83140000000276,
      "v": 110
    },
    {
      "midi": 55,
      "hit": false,
      "t": 40280.88075000016,
      "d": 162.9212750000006,
      "v": 100
    },
    {
      "midi": 55,
      "hit": false,
      "t": 40280.88075000016,
      "d": 162.9212750000006,
      "v": 100
    },
    {
      "midi": 37,
      "hit": false,
      "t": 40365.150374999925,
      "d": 134.83140000000276,
      "v": 110
    },
    {
      "midi": 72,
      "hit": false,
      "t": 40449.41999999999,
      "d": 89.88760000000184,
      "v": 80
    },
    {
      "midi": 63,
      "hit": false,
      "t": 40449.42000000002,
      "d": 106.74152499999764,
      "v": 110
    },
    {
      "midi": 63,
      "hit": false,
      "t": 40449.42000000002,
      "d": 106.74152499999764,
      "v": 110
    },
    {
      "midi": 44,
      "hit": false,
      "t": 40449.42000000016,
      "d": 162.9212750000006,
      "v": 100
    },
    {
      "midi": 44,
      "hit": false,
      "t": 40449.42000000016,
      "d": 162.9212750000006,
      "v": 100
    },
    {
      "midi": 35,
      "hit": false,
      "t": 40466.27392499993,
      "d": 78.65164999999979,
      "v": 110
    },
    {
      "midi": 72,
      "hit": false,
      "t": 40617.95924999999,
      "d": 84.26962500000081,
      "v": 80
    },
    {
      "midi": 63,
      "hit": false,
      "t": 40617.959250000014,
      "d": 89.88760000000184,
      "v": 110
    },
    {
      "midi": 63,
      "hit": false,
      "t": 40617.959250000014,
      "d": 89.88760000000184,
      "v": 110
    },
    {
      "midi": 51,
      "hit": false,
      "t": 40617.95925000016,
      "d": 162.9212750000006,
      "v": 100
    },
    {
      "midi": 51,
      "hit": false,
      "t": 40617.95925000016,
      "d": 162.9212750000006,
      "v": 100
    },
    {
      "midi": 35,
      "hit": false,
      "t": 40623.57722499993,
      "d": 101.12354999999661,
      "v": 110
    },
    {
      "midi": 72,
      "hit": false,
      "t": 40786.498499999994,
      "d": 89.88760000000184,
      "v": 80
    },
    {
      "midi": 63,
      "hit": false,
      "t": 40786.498500000016,
      "d": 117.97747499999969,
      "v": 110
    },
    {
      "midi": 63,
      "hit": false,
      "t": 40786.498500000016,
      "d": 117.97747499999969,
      "v": 110
    },
    {
      "midi": 44,
      "hit": false,
      "t": 40786.49850000016,
      "d": 162.9212750000006,
      "v": 100
    },
    {
      "midi": 44,
      "hit": false,
      "t": 40786.49850000016,
      "d": 162.9212750000006,
      "v": 100
    },
    {
      "midi": 40,
      "hit": false,
      "t": 40792.11647499992,
      "d": 106.74152499999764,
      "v": 110
    },
    {
      "midi": 35,
      "hit": false,
      "t": 40949.41977499992,
      "d": 73.03367499999877,
      "v": 110
    },
    {
      "midi": 74,
      "hit": false,
      "t": 40955.037749999996,
      "d": 140.4493749999965,
      "v": 80
    },
    {
      "midi": 65,
      "hit": false,
      "t": 40955.03775000002,
      "d": 151.68532499999856,
      "v": 110
    },
    {
      "midi": 65,
      "hit": false,
      "t": 40955.03775000002,
      "d": 151.68532499999856,
      "v": 110
    },
    {
      "midi": 51,
      "hit": false,
      "t": 40955.03775000016,
      "d": 162.9212750000006,
      "v": 100
    },
    {
      "midi": 51,
      "hit": false,
      "t": 40955.03775000016,
      "d": 162.9212750000006,
      "v": 100
    },
    {
      "midi": 46,
      "hit": false,
      "t": 41123.577000000165,
      "d": 162.9212750000006,
      "v": 100
    },
    {
      "midi": 46,
      "hit": false,
      "t": 41123.577000000165,
      "d": 162.9212750000006,
      "v": 100
    },
    {
      "midi": 35,
      "hit": false,
      "t": 41134.81294999992,
      "d": 78.65164999999979,
      "v": 110
    },
    {
      "midi": 74,
      "hit": false,
      "t": 41292.11624999999,
      "d": 123.59545000000071,
      "v": 80
    },
    {
      "midi": 65,
      "hit": false,
      "t": 41292.116250000014,
      "d": 162.9212750000006,
      "v": 110
    },
    {
      "midi": 65,
      "hit": false,
      "t": 41292.116250000014,
      "d": 162.9212750000006,
      "v": 110
    },
    {
      "midi": 53,
      "hit": false,
      "t": 41292.11625000017,
      "d": 162.9212750000006,
      "v": 100
    },
    {
      "midi": 53,
      "hit": false,
      "t": 41292.11625000017,
      "d": 162.9212750000006,
      "v": 100
    },
    {
      "midi": 35,
      "hit": false,
      "t": 41303.35219999992,
      "d": 84.26962500000081,
      "v": 110
    },
    {
      "midi": 46,
      "hit": false,
      "t": 41460.65550000017,
      "d": 162.9212750000006,
      "v": 100
    },
    {
      "midi": 46,
      "hit": false,
      "t": 41460.65550000017,
      "d": 162.9212750000006,
      "v": 100
    },
    {
      "midi": 40,
      "hit": false,
      "t": 41466.27347499992,
      "d": 95.50557500000286,
      "v": 110
    },
    {
      "midi": 74,
      "hit": false,
      "t": 41629.194749999995,
      "d": 112.35949999999866,
      "v": 80
    },
    {
      "midi": 65,
      "hit": false,
      "t": 41629.19475000002,
      "d": 84.26962500000081,
      "v": 110
    },
    {
      "midi": 65,
      "hit": false,
      "t": 41629.19475000002,
      "d": 84.26962500000081,
      "v": 110
    },
    {
      "midi": 53,
      "hit": false,
      "t": 41629.19475000017,
      "d": 162.9212750000006,
      "v": 100
    },
    {
      "midi": 53,
      "hit": false,
      "t": 41629.19475000017,
      "d": 162.9212750000006,
      "v": 100
    },
    {
      "midi": 35,
      "hit": false,
      "t": 41640.430699999924,
      "d": 84.26962500000081,
      "v": 110
    },
    {
      "midi": 75,
      "hit": false,
      "t": 41797.734,
      "d": 252.80887500000244,
      "v": 80
    },
    {
      "midi": 67,
      "hit": false,
      "t": 41797.73400000002,
      "d": 247.19090000000142,
      "v": 110
    },
    {
      "midi": 67,
      "hit": false,
      "t": 41797.73400000002,
      "d": 247.19090000000142,
      "v": 110
    },
    {
      "midi": 48,
      "hit": false,
      "t": 41797.73400000017,
      "d": 157.30329999999958,
      "v": 100
    },
    {
      "midi": 48,
      "hit": false,
      "t": 41797.73400000017,
      "d": 157.30329999999958,
      "v": 100
    },
    {
      "midi": 35,
      "hit": false,
      "t": 41814.58792499993,
      "d": 73.03367499999877,
      "v": 110
    },
    {
      "midi": 55,
      "hit": false,
      "t": 41966.27325000017,
      "d": 162.9212750000006,
      "v": 100
    },
    {
      "midi": 55,
      "hit": false,
      "t": 41966.27325000017,
      "d": 162.9212750000006,
      "v": 100
    },
    {
      "midi": 35,
      "hit": false,
      "t": 41977.50919999993,
      "d": 95.50557500000286,
      "v": 110
    },
    {
      "midi": 77,
      "hit": false,
      "t": 42134.8125,
      "d": 106.74152499999764,
      "v": 80
    },
    {
      "midi": 63,
      "hit": false,
      "t": 42134.81250000002,
      "d": 117.97747499999969,
      "v": 110
    },
    {
      "midi": 63,
      "hit": false,
      "t": 42134.81250000002,
      "d": 117.97747499999969,
      "v": 110
    },
    {
      "midi": 48,
      "hit": false,
      "t": 42134.812500000175,
      "d": 162.9212750000006,
      "v": 100
    },
    {
      "midi": 48,
      "hit": false,
      "t": 42134.812500000175,
      "d": 162.9212750000006,
      "v": 100
    },
    {
      "midi": 40,
      "hit": false,
      "t": 42146.04844999993,
      "d": 112.35949999999866,
      "v": 110
    },
    {
      "midi": 79,
      "hit": false,
      "t": 42303.351749999994,
      "d": 702.2468749999971,
      "v": 80
    },
    {
      "midi": 70,
      "hit": false,
      "t": 42303.35175000002,
      "d": 758.4266250000001,
      "v": 110
    },
    {
      "midi": 70,
      "hit": false,
      "t": 42303.35175000002,
      "d": 758.4266250000001,
      "v": 110
    },
    {
      "midi": 55,
      "hit": false,
      "t": 42303.351750000176,
      "d": 162.9212750000006,
      "v": 100
    },
    {
      "midi": 55,
      "hit": false,
      "t": 42303.351750000176,
      "d": 162.9212750000006,
      "v": 100
    },
    {
      "midi": 35,
      "hit": false,
      "t": 42314.58769999993,
      "d": 84.26962500000081,
      "v": 110
    },
    {
      "midi": 43,
      "hit": false,
      "t": 42471.89100000018,
      "d": 162.9212750000006,
      "v": 100
    },
    {
      "midi": 43,
      "hit": false,
      "t": 42471.89100000018,
      "d": 162.9212750000006,
      "v": 100
    },
    {
      "midi": 35,
      "hit": false,
      "t": 42488.74492499993,
      "d": 78.65164999999979,
      "v": 110
    },
    {
      "midi": 50,
      "hit": false,
      "t": 42640.43025000018,
      "d": 162.9212750000006,
      "v": 100
    },
    {
      "midi": 50,
      "hit": false,
      "t": 42640.43025000018,
      "d": 162.9212750000006,
      "v": 100
    },
    {
      "midi": 35,
      "hit": false,
      "t": 42651.666199999934,
      "d": 95.50557500000286,
      "v": 110
    },
    {
      "midi": 40,
      "hit": false,
      "t": 42808.969499999934,
      "d": 95.50557500000286,
      "v": 110
    },
    {
      "midi": 43,
      "hit": false,
      "t": 42808.96950000018,
      "d": 162.9212750000006,
      "v": 100
    },
    {
      "midi": 43,
      "hit": false,
      "t": 42808.96950000018,
      "d": 162.9212750000006,
      "v": 100
    },
    {
      "midi": 35,
      "hit": false,
      "t": 42977.508749999935,
      "d": 95.50557500000286,
      "v": 110
    },
    {
      "midi": 42,
      "hit": false,
      "t": 42977.508749999935,
      "d": 134.83140000000276,
      "v": 110
    },
    {
      "midi": 50,
      "hit": false,
      "t": 42977.50875000018,
      "d": 162.9212750000006,
      "v": 100
    },
    {
      "midi": 50,
      "hit": false,
      "t": 42977.50875000018,
      "d": 162.9212750000006,
      "v": 100
    },
    {
      "midi": 37,
      "hit": false,
      "t": 43061.778374999936,
      "d": 134.83140000000276,
      "v": 110
    },
    {
      "midi": 42,
      "hit": false,
      "t": 43146.04799999994,
      "d": 78.65164999999979,
      "v": 110
    },
    {
      "midi": 35,
      "hit": false,
      "t": 43146.04799999994,
      "d": 78.65164999999979,
      "v": 110
    },
    {
      "midi": 79,
      "hit": false,
      "t": 43146.04799999999,
      "d": 78.65164999999979,
      "v": 80
    },
    {
      "midi": 55,
      "hit": false,
      "t": 43146.048000000024,
      "d": 106.74152499999764,
      "v": 110
    },
    {
      "midi": 55,
      "hit": false,
      "t": 43146.048000000024,
      "d": 106.74152499999764,
      "v": 110
    },
    {
      "midi": 55,
      "hit": false,
      "t": 43146.048000000184,
      "d": 415.73015000000305,
      "v": 100
    },
    {
      "midi": 55,
      "hit": false,
      "t": 43146.048000000184,
      "d": 415.73015000000305,
      "v": 100
    },
    {
      "midi": 42,
      "hit": false,
      "t": 43314.58724999994,
      "d": 78.65164999999979,
      "v": 110
    },
    {
      "midi": 79,
      "hit": false,
      "t": 43314.58724999999,
      "d": 84.26962500000081,
      "v": 80
    },
    {
      "midi": 55,
      "hit": false,
      "t": 43314.58725000002,
      "d": 106.74152499999764,
      "v": 110
    },
    {
      "midi": 55,
      "hit": false,
      "t": 43314.58725000002,
      "d": 106.74152499999764,
      "v": 110
    },
    {
      "midi": 42,
      "hit": false,
      "t": 43483.12649999994,
      "d": 78.65164999999979,
      "v": 110
    },
    {
      "midi": 44,
      "hit": false,
      "t": 43483.12649999994,
      "d": 78.65164999999979,
      "v": 110
    },
    {
      "midi": 79,
      "hit": false,
      "t": 43483.12649999999,
      "d": 84.26962500000081,
      "v": 80
    },
    {
      "midi": 55,
      "hit": false,
      "t": 43483.12650000001,
      "d": 106.74152499999764,
      "v": 110
    },
    {
      "midi": 55,
      "hit": false,
      "t": 43483.12650000001,
      "d": 106.74152499999764,
      "v": 110
    },
    {
      "midi": 42,
      "hit": false,
      "t": 43651.66574999994,
      "d": 78.65164999999979,
      "v": 110
    },
    {
      "midi": 35,
      "hit": false,
      "t": 43651.66574999994,
      "d": 78.65164999999979,
      "v": 110
    },
    {
      "midi": 77,
      "hit": false,
      "t": 43651.66574999999,
      "d": 95.50557500000286,
      "v": 80
    },
    {
      "midi": 62,
      "hit": false,
      "t": 43651.66575000001,
      "d": 106.74152499999764,
      "v": 110
    },
    {
      "midi": 62,
      "hit": false,
      "t": 43651.66575000001,
      "d": 106.74152499999764,
      "v": 110
    },
    {
      "midi": 62,
      "hit": false,
      "t": 43651.66575000019,
      "d": 415.73015000000305,
      "v": 100
    },
    {
      "midi": 62,
      "hit": false,
      "t": 43651.66575000019,
      "d": 415.73015000000305,
      "v": 100
    },
    {
      "midi": 42,
      "hit": false,
      "t": 43820.20499999994,
      "d": 78.65164999999979,
      "v": 110
    },
    {
      "midi": 77,
      "hit": false,
      "t": 43820.204999999994,
      "d": 89.88760000000184,
      "v": 80
    },
    {
      "midi": 62,
      "hit": false,
      "t": 43820.205,
      "d": 106.74152499999764,
      "v": 110
    },
    {
      "midi": 62,
      "hit": false,
      "t": 43820.205,
      "d": 106.74152499999764,
      "v": 110
    },
    {
      "midi": 44,
      "hit": false,
      "t": 43988.744249999945,
      "d": 78.65164999999979,
      "v": 110
    },
    {
      "midi": 62,
      "hit": false,
      "t": 43988.744249999996,
      "d": 106.74152499999764,
      "v": 110
    },
    {
      "midi": 77,
      "hit": false,
      "t": 43988.744249999996,
      "d": 89.88760000000184,
      "v": 80
    },
    {
      "midi": 62,
      "hit": false,
      "t": 43988.744249999996,
      "d": 106.74152499999764,
      "v": 110
    },
    {
      "midi": 42,
      "hit": false,
      "t": 44157.28349999995,
      "d": 78.65164999999979,
      "v": 110
    },
    {
      "midi": 35,
      "hit": false,
      "t": 44157.28349999995,
      "d": 78.65164999999979,
      "v": 110
    },
    {
      "midi": 67,
      "hit": false,
      "t": 44157.28349999999,
      "d": 106.74152499999764,
      "v": 110
    },
    {
      "midi": 67,
      "hit": false,
      "t": 44157.28349999999,
      "d": 106.74152499999764,
      "v": 110
    },
    {
      "midi": 75,
      "hit": false,
      "t": 44157.2835,
      "d": 89.88760000000184,
      "v": 80
    },
    {
      "midi": 67,
      "hit": false,
      "t": 44157.283500000194,
      "d": 415.73015000000305,
      "v": 100
    },
    {
      "midi": 67,
      "hit": false,
      "t": 44157.283500000194,
      "d": 415.73015000000305,
      "v": 100
    },
    {
      "midi": 42,
      "hit": false,
      "t": 44325.82274999995,
      "d": 78.65164999999979,
      "v": 110
    },
    {
      "midi": 67,
      "hit": false,
      "t": 44325.822749999985,
      "d": 106.74152499999764,
      "v": 110
    },
    {
      "midi": 67,
      "hit": false,
      "t": 44325.822749999985,
      "d": 106.74152499999764,
      "v": 110
    },
    {
      "midi": 75,
      "hit": false,
      "t": 44325.82275,
      "d": 101.12354999999661,
      "v": 80
    },
    {
      "midi": 44,
      "hit": false,
      "t": 44494.36199999995,
      "d": 78.65164999999979,
      "v": 110
    },
    {
      "midi": 67,
      "hit": false,
      "t": 44494.36199999998,
      "d": 106.74152499999764,
      "v": 110
    },
    {
      "midi": 67,
      "hit": false,
      "t": 44494.36199999998,
      "d": 106.74152499999764,
      "v": 110
    },
    {
      "midi": 75,
      "hit": false,
      "t": 44494.361999999994,
      "d": 89.88760000000184,
      "v": 80
    },
    {
      "midi": 42,
      "hit": false,
      "t": 44662.90124999995,
      "d": 78.65164999999979,
      "v": 110
    },
    {
      "midi": 35,
      "hit": false,
      "t": 44662.90124999995,
      "d": 78.65164999999979,
      "v": 110
    },
    {
      "midi": 62,
      "hit": false,
      "t": 44662.90124999997,
      "d": 106.74152499999764,
      "v": 110
    },
    {
      "midi": 62,
      "hit": false,
      "t": 44662.90124999997,
      "d": 106.74152499999764,
      "v": 110
    },
    {
      "midi": 74,
      "hit": false,
      "t": 44662.901249999995,
      "d": 95.50557500000286,
      "v": 80
    },
    {
      "midi": 62,
      "hit": false,
      "t": 44662.9012500002,
      "d": 415.73015000000305,
      "v": 100
    },
    {
      "midi": 62,
      "hit": false,
      "t": 44662.9012500002,
      "d": 415.73015000000305,
      "v": 100
    },
    {
      "midi": 44,
      "hit": false,
      "t": 44831.44049999995,
      "d": 78.65164999999979,
      "v": 110
    },
    {
      "midi": 62,
      "hit": false,
      "t": 44831.44049999997,
      "d": 106.74152499999764,
      "v": 110
    },
    {
      "midi": 62,
      "hit": false,
      "t": 44831.44049999997,
      "d": 106.74152499999764,
      "v": 110
    },
    {
      "midi": 74,
      "hit": false,
      "t": 44831.4405,
      "d": 73.03367499999877,
      "v": 80
    },
    {
      "midi": 42,
      "hit": false,
      "t": 44999.979749999955,
      "d": 78.65164999999979,
      "v": 110
    },
    {
      "midi": 62,
      "hit": false,
      "t": 44999.97974999996,
      "d": 106.74152499999764,
      "v": 110
    },
    {
      "midi": 62,
      "hit": false,
      "t": 44999.97974999996,
      "d": 106.74152499999764,
      "v": 110
    },
    {
      "midi": 74,
      "hit": false,
      "t": 44999.97975,
      "d": 101.12354999999661,
      "v": 80
    },
    {
      "midi": 58,
      "hit": false,
      "t": 45168.51899999996,
      "d": 106.74152499999764,
      "v": 110
    },
    {
      "midi": 42,
      "hit": false,
      "t": 45168.51899999996,
      "d": 78.65164999999979,
      "v": 110
    },
    {
      "midi": 35,
      "hit": false,
      "t": 45168.51899999996,
      "d": 78.65164999999979,
      "v": 110
    },
    {
      "midi": 58,
      "hit": false,
      "t": 45168.51899999996,
      "d": 106.74152499999764,
      "v": 110
    },
    {
      "midi": 72,
      "hit": false,
      "t": 45168.51899999999,
      "d": 89.88760000000184,
      "v": 80
    },
    {
      "midi": 58,
      "hit": false,
      "t": 45168.519000000204,
      "d": 668.5390249999982,
      "v": 100
    },
    {
      "midi": 58,
      "hit": false,
      "t": 45168.519000000204,
      "d": 668.5390249999982,
      "v": 100
    },
    {
      "midi": 58,
      "hit": false,
      "t": 45337.05824999995,
      "d": 106.74152499999764,
      "v": 110
    },
    {
      "midi": 58,
      "hit": false,
      "t": 45337.05824999995,
      "d": 106.74152499999764,
      "v": 110
    },
    {
      "midi": 42,
      "hit": false,
      "t": 45337.05824999996,
      "d": 78.65164999999979,
      "v": 110
    },
    {
      "midi": 72,
      "hit": false,
      "t": 45337.058249999995,
      "d": 101.12354999999661,
      "v": 80
    },
    {
      "midi": 58,
      "hit": false,
      "t": 45505.597499999945,
      "d": 106.74152499999764,
      "v": 110
    },
    {
      "midi": 58,
      "hit": false,
      "t": 45505.597499999945,
      "d": 106.74152499999764,
      "v": 110
    },
    {
      "midi": 42,
      "hit": false,
      "t": 45505.59749999996,
      "d": 78.65164999999979,
      "v": 110
    },
    {
      "midi": 44,
      "hit": false,
      "t": 45505.59749999996,
      "d": 78.65164999999979,
      "v": 110
    },
    {
      "midi": 70,
      "hit": false,
      "t": 45505.59749999999,
      "d": 112.35949999999866,
      "v": 80
    },
    {
      "midi": 58,
      "hit": false,
      "t": 45674.13674999994,
      "d": 106.74152499999764,
      "v": 110
    },
    {
      "midi": 58,
      "hit": false,
      "t": 45674.13674999994,
      "d": 106.74152499999764,
      "v": 110
    },
    {
      "midi": 44,
      "hit": false,
      "t": 45674.13674999996,
      "d": 78.65164999999979,
      "v": 110
    },
    {
      "midi": 42,
      "hit": false,
      "t": 45674.13674999996,
      "d": 134.83140000000276,
      "v": 110
    },
    {
      "midi": 70,
      "hit": false,
      "t": 45674.13674999999,
      "d": 106.74152499999764,
      "v": 80
    },
    {
      "midi": 70,
      "hit": false,
      "t": 45842.675999999934,
      "d": 162.9212750000006,
      "v": 110
    },
    {
      "midi": 58,
      "hit": false,
      "t": 45842.675999999934,
      "d": 162.9212750000006,
      "v": 110
    },
    {
      "midi": 58,
      "hit": false,
      "t": 45842.675999999934,
      "d": 162.9212750000006,
      "v": 110
    },
    {
      "midi": 70,
      "hit": false,
      "t": 45842.675999999934,
      "d": 162.9212750000006,
      "v": 110
    },
    {
      "midi": 35,
      "hit": false,
      "t": 45842.67599999996,
      "d": 134.83140000000276,
      "v": 110
    },
    {
      "midi": 37,
      "hit": false,
      "t": 45842.67599999996,
      "d": 134.83140000000276,
      "v": 110
    },
    {
      "midi": 38,
      "hit": false,
      "t": 45842.67599999996,
      "d": 140.44937500000378,
      "v": 110
    },
    {
      "midi": 58,
      "hit": false,
      "t": 45842.6760000002,
      "d": 140.4493749999965,
      "v": 100
    },
    {
      "midi": 46,
      "hit": false,
      "t": 45842.6760000002,
      "d": 151.68532499999856,
      "v": 100
    },
    {
      "midi": 58,
      "hit": false,
      "t": 45842.6760000002,
      "d": 140.4493749999965,
      "v": 100
    },
    {
      "midi": 46,
      "hit": false,
      "t": 45842.6760000002,
      "d": 151.68532499999856,
      "v": 100
    },
    {
      "midi": 56,
      "hit": false,
      "t": 46179.75449999994,
      "d": 151.68532499999856,
      "v": 110
    },
    {
      "midi": 68,
      "hit": false,
      "t": 46179.75449999994,
      "d": 157.30329999999958,
      "v": 110
    },
    {
      "midi": 56,
      "hit": false,
      "t": 46179.75449999994,
      "d": 151.68532499999856,
      "v": 110
    },
    {
      "midi": 68,
      "hit": false,
      "t": 46179.75449999994,
      "d": 157.30329999999958,
      "v": 110
    },
    {
      "midi": 46,
      "hit": false,
      "t": 46179.754499999966,
      "d": 78.65164999999979,
      "v": 110
    },
    {
      "midi": 35,
      "hit": false,
      "t": 46179.754499999966,
      "d": 157.30329999999958,
      "v": 110
    },
    {
      "midi": 38,
      "hit": false,
      "t": 46179.754499999966,
      "d": 157.30329999999958,
      "v": 110
    },
    {
      "midi": 56,
      "hit": false,
      "t": 46179.7545000002,
      "d": 146.06734999999753,
      "v": 100
    },
    {
      "midi": 44,
      "hit": false,
      "t": 46179.7545000002,
      "d": 168.53924999999435,
      "v": 100
    },
    {
      "midi": 56,
      "hit": false,
      "t": 46179.7545000002,
      "d": 146.06734999999753,
      "v": 100
    },
    {
      "midi": 44,
      "hit": false,
      "t": 46179.7545000002,
      "d": 168.53924999999435,
      "v": 100
    },
    {
      "midi": 55,
      "hit": false,
      "t": 46516.83299999993,
      "d": 174.15722500000265,
      "v": 110
    },
    {
      "midi": 67,
      "hit": false,
      "t": 46516.83299999993,
      "d": 191.01115000000573,
      "v": 110
    },
    {
      "midi": 55,
      "hit": false,
      "t": 46516.83299999993,
      "d": 174.15722500000265,
      "v": 110
    },
    {
      "midi": 67,
      "hit": false,
      "t": 46516.83299999993,
      "d": 191.01115000000573,
      "v": 110
    },
    {
      "midi": 46,
      "hit": false,
      "t": 46516.83299999996,
      "d": 168.53925000000163,
      "v": 110
    },
    {
      "midi": 35,
      "hit": false,
      "t": 46516.83299999996,
      "d": 174.15722500000265,
      "v": 110
    },
    {
      "midi": 38,
      "hit": false,
      "t": 46516.83299999996,
      "d": 179.77520000000368,
      "v": 110
    },
    {
      "midi": 55,
      "hit": false,
      "t": 46516.833000000195,
      "d": 157.30329999999958,
      "v": 100
    },
    {
      "midi": 43,
      "hit": false,
      "t": 46516.833000000195,
      "d": 157.30329999999958,
      "v": 100
    },
    {
      "midi": 43,
      "hit": false,
      "t": 46516.833000000195,
      "d": 157.30329999999958,
      "v": 100
    },
    {
      "midi": 55,
      "hit": false,
      "t": 46516.833000000195,
      "d": 157.30329999999958,
      "v": 100
    },
    {
      "midi": 70,
      "hit": false,
      "t": 46853.91149999994,
      "d": 89.88760000000184,
      "v": 110
    },
    {
      "midi": 58,
      "hit": false,
      "t": 46853.91149999994,
      "d": 89.88760000000184,
      "v": 110
    },
    {
      "midi": 58,
      "hit": false,
      "t": 46853.91149999994,
      "d": 89.88760000000184,
      "v": 110
    },
    {
      "midi": 70,
      "hit": false,
      "t": 46853.91149999994,
      "d": 89.88760000000184,
      "v": 110
    },
    {
      "midi": 38,
      "hit": false,
      "t": 46853.911499999966,
      "d": 56.17975000000297,
      "v": 110
    },
    {
      "midi": 35,
      "hit": false,
      "t": 46853.911499999966,
      "d": 61.79772500000399,
      "v": 110
    },
    {
      "midi": 37,
      "hit": false,
      "t": 46853.911499999966,
      "d": 78.65165000000707,
      "v": 110
    },
    {
      "midi": 70,
      "hit": false,
      "t": 46853.91149999999,
      "d": 129.21342500000173,
      "v": 80
    },
    {
      "midi": 46,
      "hit": false,
      "t": 46853.91150000019,
      "d": 95.50557500000286,
      "v": 100
    },
    {
      "midi": 58,
      "hit": false,
      "t": 46853.91150000019,
      "d": 106.74152500000491,
      "v": 100
    },
    {
      "midi": 46,
      "hit": false,
      "t": 46853.91150000019,
      "d": 95.50557500000286,
      "v": 100
    },
    {
      "midi": 58,
      "hit": false,
      "t": 46853.91150000019,
      "d": 106.74152500000491,
      "v": 100
    },
    {
      "midi": 68,
      "hit": false,
      "t": 47022.45074999994,
      "d": 162.9212750000006,
      "v": 110
    },
    {
      "midi": 56,
      "hit": false,
      "t": 47022.45074999994,
      "d": 162.9212750000006,
      "v": 110
    },
    {
      "midi": 56,
      "hit": false,
      "t": 47022.45074999994,
      "d": 162.9212750000006,
      "v": 110
    },
    {
      "midi": 68,
      "hit": false,
      "t": 47022.45074999994,
      "d": 162.9212750000006,
      "v": 110
    },
    {
      "midi": 46,
      "hit": false,
      "t": 47022.450749999975,
      "d": 78.65164999999979,
      "v": 110
    },
    {
      "midi": 38,
      "hit": false,
      "t": 47022.450749999975,
      "d": 117.97747499999969,
      "v": 110
    },
    {
      "midi": 35,
      "hit": false,
      "t": 47022.450749999975,
      "d": 123.59545000000071,
      "v": 110
    },
    {
      "midi": 68,
      "hit": false,
      "t": 47022.45074999999,
      "d": 162.9212750000006,
      "v": 80
    },
    {
      "midi": 56,
      "hit": false,
      "t": 47022.45075000019,
      "d": 123.59545000000071,
      "v": 100
    },
    {
      "midi": 44,
      "hit": false,
      "t": 47022.45075000019,
      "d": 146.06734999999753,
      "v": 100
    },
    {
      "midi": 56,
      "hit": false,
      "t": 47022.45075000019,
      "d": 123.59545000000071,
      "v": 100
    },
    {
      "midi": 44,
      "hit": false,
      "t": 47022.45075000019,
      "d": 146.06734999999753,
      "v": 100
    },
    {
      "midi": 67,
      "hit": false,
      "t": 47359.52924999994,
      "d": 207.86507500000153,
      "v": 110
    },
    {
      "midi": 55,
      "hit": false,
      "t": 47359.52924999994,
      "d": 247.19090000000142,
      "v": 110
    },
    {
      "midi": 67,
      "hit": false,
      "t": 47359.52924999994,
      "d": 207.86507500000153,
      "v": 110
    },
    {
      "midi": 55,
      "hit": false,
      "t": 47359.52924999994,
      "d": 247.19090000000142,
      "v": 110
    },
    {
      "midi": 38,
      "hit": false,
      "t": 47359.52924999998,
      "d": 134.83140000000276,
      "v": 110
    },
    {
      "midi": 46,
      "hit": false,
      "t": 47359.52924999998,
      "d": 134.83140000000276,
      "v": 110
    },
    {
      "midi": 35,
      "hit": false,
      "t": 47359.52924999998,
      "d": 168.53925000000163,
      "v": 110
    },
    {
      "midi": 67,
      "hit": false,
      "t": 47359.52924999999,
      "d": 174.15722500000265,
      "v": 80
    },
    {
      "midi": 55,
      "hit": false,
      "t": 47359.52925000019,
      "d": 140.4493749999965,
      "v": 100
    },
    {
      "midi": 43,
      "hit": false,
      "t": 47359.52925000019,
      "d": 151.68532499999856,
      "v": 100
    },
    {
      "midi": 55,
      "hit": false,
      "t": 47359.52925000019,
      "d": 140.4493749999965,
      "v": 100
    },
    {
      "midi": 43,
      "hit": false,
      "t": 47359.52925000019,
      "d": 151.68532499999856,
      "v": 100
    },
    {
      "midi": 67,
      "hit": false,
      "t": 47696.607749999945,
      "d": 89.88760000000184,
      "v": 110
    },
    {
      "midi": 55,
      "hit": false,
      "t": 47696.607749999945,
      "d": 106.74152500000491,
      "v": 110
    },
    {
      "midi": 67,
      "hit": false,
      "t": 47696.607749999945,
      "d": 89.88760000000184,
      "v": 110
    },
    {
      "midi": 55,
      "hit": false,
      "t": 47696.607749999945,
      "d": 106.74152500000491,
      "v": 110
    },
    {
      "midi": 35,
      "hit": false,
      "t": 47696.60774999998,
      "d": 50.561775000001944,
      "v": 110
    },
    {
      "midi": 38,
      "hit": false,
      "t": 47696.60774999998,
      "d": 56.17975000000297,
      "v": 110
    },
    {
      "midi": 67,
      "hit": false,
      "t": 47696.607749999996,
      "d": 95.50557500000286,
      "v": 80
    },
    {
      "midi": 43,
      "hit": false,
      "t": 47696.607750000185,
      "d": 73.03367499999877,
      "v": 100
    },
    {
      "midi": 55,
      "hit": false,
      "t": 47696.607750000185,
      "d": 84.26962500000081,
      "v": 100
    },
    {
      "midi": 43,
      "hit": false,
      "t": 47696.607750000185,
      "d": 73.03367499999877,
      "v": 100
    },
    {
      "midi": 55,
      "hit": false,
      "t": 47696.607750000185,
      "d": 84.26962500000081,
      "v": 100
    },
    {
      "midi": 68,
      "hit": false,
      "t": 47865.146999999946,
      "d": 95.50557500000286,
      "v": 110
    },
    {
      "midi": 56,
      "hit": false,
      "t": 47865.146999999946,
      "d": 101.12355000000389,
      "v": 110
    },
    {
      "midi": 68,
      "hit": false,
      "t": 47865.146999999946,
      "d": 95.50557500000286,
      "v": 110
    },
    {
      "midi": 56,
      "hit": false,
      "t": 47865.146999999946,
      "d": 101.12355000000389,
      "v": 110
    },
    {
      "midi": 35,
      "hit": false,
      "t": 47865.14699999998,
      "d": 56.17975000000297,
      "v": 110
    },
    {
      "midi": 38,
      "hit": false,
      "t": 47865.14699999998,
      "d": 56.17975000000297,
      "v": 110
    },
    {
      "midi": 46,
      "hit": false,
      "t": 47865.14699999998,
      "d": 78.65164999999979,
      "v": 110
    },
    {
      "midi": 68,
      "hit": false,
      "t": 47865.147,
      "d": 78.65164999999979,
      "v": 80
    },
    {
      "midi": 44,
      "hit": false,
      "t": 47865.14700000019,
      "d": 61.79772499999672,
      "v": 100
    },
    {
      "midi": 56,
      "hit": false,
      "t": 47865.14700000019,
      "d": 84.26962499999354,
      "v": 100
    },
    {
      "midi": 44,
      "hit": false,
      "t": 47865.14700000019,
      "d": 61.79772499999672,
      "v": 100
    },
    {
      "midi": 56,
      "hit": false,
      "t": 47865.14700000019,
      "d": 84.26962499999354,
      "v": 100
    },
    {
      "midi": 58,
      "hit": false,
      "t": 48033.68624999995,
      "d": 1342.6960249999975,
      "v": 110
    },
    {
      "midi": 70,
      "hit": false,
      "t": 48033.68624999995,
      "d": 1342.6960249999975,
      "v": 110
    },
    {
      "midi": 70,
      "hit": false,
      "t": 48033.68624999995,
      "d": 1342.6960249999975,
      "v": 110
    },
    {
      "midi": 58,
      "hit": false,
      "t": 48033.68624999995,
      "d": 1342.6960249999975,
      "v": 110
    },
    {
      "midi": 49,
      "hit": false,
      "t": 48033.686249999984,
      "d": 78.65164999999979,
      "v": 110
    },
    {
      "midi": 40,
      "hit": false,
      "t": 48033.686249999984,
      "d": 78.65164999999979,
      "v": 110
    },
    {
      "midi": 46,
      "hit": false,
      "t": 48033.686249999984,
      "d": 741.572699999997,
      "v": 110
    },
    {
      "midi": 35,
      "hit": false,
      "t": 48033.686249999984,
      "d": 764.0445999999938,
      "v": 110
    },
    {
      "midi": 38,
      "hit": false,
      "t": 48033.686249999984,
      "d": 814.6063749999958,
      "v": 110
    },
    {
      "midi": 70,
      "hit": false,
      "t": 48033.68625,
      "d": 1213.482600000003,
      "v": 80
    },
    {
      "midi": 46,
      "hit": false,
      "t": 48033.68625000018,
      "d": 1162.920825000001,
      "v": 100
    },
    {
      "midi": 58,
      "hit": false,
      "t": 48033.68625000018,
      "d": 1162.920825000001,
      "v": 100
    },
    {
      "midi": 58,
      "hit": false,
      "t": 48033.68625000018,
      "d": 1162.920825000001,
      "v": 100
    },
    {
      "midi": 46,
      "hit": false,
      "t": 48033.68625000018,
      "d": 1162.920825000001,
      "v": 100
    }
  ]
}