{
  "jsonPath": "Animes/Sailor Moon MIDI Collection/rainy-day-man.json",
  "path": "Animes\\Sailor Moon MIDI Collection\\Rainy Day Man.mid",
  "name": "Rainy Day Man",
  "difficulty": "Advanced",
  "bpm": 124.000248000496,
  "notes": [
    {
      "midi": 38,
      "hit": false,
      "t": 0,
      "d": 1935.48,
      "v": 100
    },
    {
      "midi": 74,
      "hit": false,
      "t": 0,
      "d": 1935.48,
      "v": 54
    },
    {
      "midi": 77,
      "hit": false,
      "t": 0,
      "d": 1935.48,
      "v": 54
    },
    {
      "midi": 57,
      "hit": false,
      "t": 0,
      "d": 1935.48,
      "v": 46
    },
    {
      "midi": 62,
      "hit": false,
      "t": 0,
      "d": 1935.48,
      "v": 46
    },
    {
      "midi": 65,
      "hit": false,
      "t": 0,
      "d": 1935.48,
      "v": 46
    },
    {
      "midi": 50,
      "hit": false,
      "t": 0,
      "d": 1935.48,
      "v": 46
    },
    {
      "midi": 38,
      "hit": false,
      "t": 0,
      "d": 1935.48,
      "v": 46
    },
    {
      "midi": 36,
      "hit": false,
      "t": 0,
      "d": 161.29000000000002,
      "v": 127
    },
    {
      "midi": 38,
      "hit": false,
      "t": 0,
      "d": 1935.48,
      "v": 100
    },
    {
      "midi": 57,
      "hit": false,
      "t": 0,
      "d": 1935.48,
      "v": 40
    },
    {
      "midi": 62,
      "hit": false,
      "t": 0,
      "d": 1935.48,
      "v": 40
    },
    {
      "midi": 65,
      "hit": false,
      "t": 0,
      "d": 1935.48,
      "v": 40
    },
    {
      "midi": 50,
      "hit": false,
      "t": 0,
      "d": 1935.48,
      "v": 40
    },
    {
      "midi": 38,
      "hit": false,
      "t": 0,
      "d": 1935.48,
      "v": 40
    },
    {
      "midi": 38,
      "hit": false,
      "t": 0,
      "d": 1935.48,
      "v": 84
    },
    {
      "midi": 36,
      "hit": false,
      "t": 241.93500000000003,
      "d": 161.29,
      "v": 127
    },
    {
      "midi": 38,
      "hit": false,
      "t": 483.87,
      "d": 161.29000000000008,
      "v": 127
    },
    {
      "midi": 35,
      "hit": false,
      "t": 725.8050000000001,
      "d": 80.64499999999998,
      "v": 127
    },
    {
      "midi": 36,
      "hit": false,
      "t": 846.7725,
      "d": 80.64499999999998,
      "v": 127
    },
    {
      "midi": 35,
      "hit": false,
      "t": 1088.7075,
      "d": 80.64499999999998,
      "v": 127
    },
    {
      "midi": 36,
      "hit": false,
      "t": 1209.675,
      "d": 80.64499999999998,
      "v": 127
    },
    {
      "midi": 38,
      "hit": false,
      "t": 1451.61,
      "d": 80.64499999999998,
      "v": 127
    },
    {
      "midi": 36,
      "hit": false,
      "t": 1693.5449999999998,
      "d": 80.64499999999998,
      "v": 127
    },
    {
      "midi": 36,
      "hit": false,
      "t": 1935.4799999999998,
      "d": 161.2900000000002,
      "v": 127
    },
    {
      "midi": 34,
      "hit": false,
      "t": 1935.48,
      "d": 1935.48,
      "v": 100
    },
    {
      "midi": 70,
      "hit": false,
      "t": 1935.48,
      "d": 1935.48,
      "v": 54
    },
    {
      "midi": 74,
      "hit": false,
      "t": 1935.48,
      "d": 1935.48,
      "v": 54
    },
    {
      "midi": 53,
      "hit": false,
      "t": 1935.48,
      "d": 1935.48,
      "v": 46
    },
    {
      "midi": 58,
      "hit": false,
      "t": 1935.48,
      "d": 1935.48,
      "v": 46
    },
    {
      "midi": 62,
      "hit": false,
      "t": 1935.48,
      "d": 1935.48,
      "v": 46
    },
    {
      "midi": 46,
      "hit": false,
      "t": 1935.48,
      "d": 1935.48,
      "v": 46
    },
    {
      "midi": 34,
      "hit": false,
      "t": 1935.48,
      "d": 1935.48,
      "v": 46
    },
    {
      "midi": 34,
      "hit": false,
      "t": 1935.48,
      "d": 1935.48,
      "v": 100
    },
    {
      "midi": 53,
      "hit": false,
      "t": 1935.48,
      "d": 1935.48,
      "v": 40
    },
    {
      "midi": 58,
      "hit": false,
      "t": 1935.48,
      "d": 1935.48,
      "v": 40
    },
    {
      "midi": 62,
      "hit": false,
      "t": 1935.48,
      "d": 1935.48,
      "v": 40
    },
    {
      "midi": 46,
      "hit": false,
      "t": 1935.48,
      "d": 1935.48,
      "v": 40
    },
    {
      "midi": 34,
      "hit": false,
      "t": 1935.48,
      "d": 1935.48,
      "v": 40
    },
    {
      "midi": 34,
      "hit": false,
      "t": 1935.48,
      "d": 1935.48,
      "v": 84
    },
    {
      "midi": 36,
      "hit": false,
      "t": 2177.415,
      "d": 161.28999999999996,
      "v": 127
    },
    {
      "midi": 38,
      "hit": false,
      "t": 2419.35,
      "d": 161.28999999999996,
      "v": 127
    },
    {
      "midi": 35,
      "hit": false,
      "t": 2661.285,
      "d": 80.64499999999998,
      "v": 127
    },
    {
      "midi": 36,
      "hit": false,
      "t": 2782.2525,
      "d": 80.64499999999998,
      "v": 127
    },
    {
      "midi": 35,
      "hit": false,
      "t": 3024.1875,
      "d": 80.64499999999998,
      "v": 127
    },
    {
      "midi": 36,
      "hit": false,
      "t": 3145.155,
      "d": 80.64499999999998,
      "v": 127
    },
    {
      "midi": 38,
      "hit": false,
      "t": 3387.09,
      "d": 80.64499999999998,
      "v": 127
    },
    {
      "midi": 36,
      "hit": false,
      "t": 3629.025,
      "d": 80.64499999999998,
      "v": 127
    },
    {
      "midi": 36,
      "hit": false,
      "t": 3870.96,
      "d": 1935.4800000000005,
      "v": 100
    },
    {
      "midi": 77,
      "hit": false,
      "t": 3870.96,
      "d": 514.1118749999996,
      "v": 54
    },
    {
      "midi": 72,
      "hit": false,
      "t": 3870.96,
      "d": 3870.96,
      "v": 54
    },
    {
      "midi": 65,
      "hit": false,
      "t": 3870.96,
      "d": 725.8050000000003,
      "v": 46
    },
    {
      "midi": 62,
      "hit": false,
      "t": 3870.96,
      "d": 725.8050000000003,
      "v": 46
    },
    {
      "midi": 55,
      "hit": false,
      "t": 3870.96,
      "d": 725.8050000000003,
      "v": 46
    },
    {
      "midi": 48,
      "hit": false,
      "t": 3870.96,
      "d": 725.8050000000003,
      "v": 46
    },
    {
      "midi": 36,
      "hit": false,
      "t": 3870.96,
      "d": 725.8050000000003,
      "v": 46
    },
    {
      "midi": 36,
      "hit": false,
      "t": 3870.96,
      "d": 161.28999999999996,
      "v": 127
    },
    {
      "midi": 36,
      "hit": false,
      "t": 3870.96,
      "d": 1935.4800000000005,
      "v": 100
    },
    {
      "midi": 65,
      "hit": false,
      "t": 3870.96,
      "d": 725.8050000000003,
      "v": 40
    },
    {
      "midi": 62,
      "hit": false,
      "t": 3870.96,
      "d": 725.8050000000003,
      "v": 40
    },
    {
      "midi": 55,
      "hit": false,
      "t": 3870.96,
      "d": 725.8050000000003,
      "v": 40
    },
    {
      "midi": 48,
      "hit": false,
      "t": 3870.96,
      "d": 725.8050000000003,
      "v": 40
    },
    {
      "midi": 36,
      "hit": false,
      "t": 3870.96,
      "d": 725.8050000000003,
      "v": 40
    },
    {
      "midi": 36,
      "hit": false,
      "t": 3870.96,
      "d": 1935.4800000000005,
      "v": 84
    },
    {
      "midi": 36,
      "hit": false,
      "t": 4112.895,
      "d": 161.28999999999996,
      "v": 127
    },
    {
      "midi": 38,
      "hit": false,
      "t": 4354.830000000001,
      "d": 161.28999999999996,
      "v": 127
    },
    {
      "midi": 76,
      "hit": false,
      "t": 4596.764999999999,
      "d": 3145.1550000000007,
      "v": 54
    },
    {
      "midi": 64,
      "hit": false,
      "t": 4596.765,
      "d": 1209.6750000000002,
      "v": 46
    },
    {
      "midi": 60,
      "hit": false,
      "t": 4596.765,
      "d": 1209.6750000000002,
      "v": 46
    },
    {
      "midi": 55,
      "hit": false,
      "t": 4596.765,
      "d": 1209.6750000000002,
      "v": 46
    },
    {
      "midi": 48,
      "hit": false,
      "t": 4596.765,
      "d": 1209.6750000000002,
      "v": 46
    },
    {
      "midi": 36,
      "hit": false,
      "t": 4596.765,
      "d": 1209.6750000000002,
      "v": 46
    },
    {
      "midi": 64,
      "hit": false,
      "t": 4596.765,
      "d": 1209.6750000000002,
      "v": 40
    },
    {
      "midi": 60,
      "hit": false,
      "t": 4596.765,
      "d": 1209.6750000000002,
      "v": 40
    },
    {
      "midi": 55,
      "hit": false,
      "t": 4596.765,
      "d": 1209.6750000000002,
      "v": 40
    },
    {
      "midi": 48,
      "hit": false,
      "t": 4596.765,
      "d": 1209.6750000000002,
      "v": 40
    },
    {
      "midi": 36,
      "hit": false,
      "t": 4596.765,
      "d": 1209.6750000000002,
      "v": 40
    },
    {
      "midi": 35,
      "hit": false,
      "t": 4596.765000000001,
      "d": 80.64500000000044,
      "v": 127
    },
    {
      "midi": 36,
      "hit": false,
      "t": 4717.732500000002,
      "d": 80.64500000000044,
      "v": 127
    },
    {
      "midi": 35,
      "hit": false,
      "t": 4959.667500000002,
      "d": 80.64500000000044,
      "v": 127
    },
    {
      "midi": 36,
      "hit": false,
      "t": 5080.635000000003,
      "d": 80.64500000000044,
      "v": 127
    },
    {
      "midi": 38,
      "hit": false,
      "t": 5322.570000000003,
      "d": 80.64500000000044,
      "v": 127
    },
    {
      "midi": 36,
      "hit": false,
      "t": 5564.505000000004,
      "d": 80.64500000000044,
      "v": 127
    },
    {
      "midi": 36,
      "hit": false,
      "t": 5806.4400000000005,
      "d": 1935.4799999999996,
      "v": 100
    },
    {
      "midi": 48,
      "hit": false,
      "t": 5806.4400000000005,
      "d": 241.9350000000004,
      "v": 46
    },
    {
      "midi": 36,
      "hit": false,
      "t": 5806.4400000000005,
      "d": 1935.4799999999996,
      "v": 100
    },
    {
      "midi": 48,
      "hit": false,
      "t": 5806.4400000000005,
      "d": 241.9350000000004,
      "v": 40
    },
    {
      "midi": 36,
      "hit": false,
      "t": 5806.4400000000005,
      "d": 1935.4799999999996,
      "v": 84
    },
    {
      "midi": 36,
      "hit": false,
      "t": 5806.440000000004,
      "d": 161.28999999999996,
      "v": 127
    },
    {
      "midi": 55,
      "hit": false,
      "t": 6048.375000000001,
      "d": 241.9350000000004,
      "v": 46
    },
    {
      "midi": 55,
      "hit": false,
      "t": 6048.375000000001,
      "d": 241.9350000000004,
      "v": 40
    },
    {
      "midi": 36,
      "hit": false,
      "t": 6048.375000000005,
      "d": 161.28999999999996,
      "v": 127
    },
    {
      "midi": 60,
      "hit": false,
      "t": 6290.310000000001,
      "d": 241.9350000000004,
      "v": 46
    },
    {
      "midi": 60,
      "hit": false,
      "t": 6290.310000000001,
      "d": 241.9350000000004,
      "v": 40
    },
    {
      "midi": 38,
      "hit": false,
      "t": 6290.310000000005,
      "d": 161.28999999999996,
      "v": 127
    },
    {
      "midi": 62,
      "hit": false,
      "t": 6532.245000000002,
      "d": 483.8699999999999,
      "v": 46
    },
    {
      "midi": 62,
      "hit": false,
      "t": 6532.245000000002,
      "d": 483.8699999999999,
      "v": 40
    },
    {
      "midi": 35,
      "hit": false,
      "t": 6532.245000000005,
      "d": 80.64500000000044,
      "v": 127
    },
    {
      "midi": 36,
      "hit": false,
      "t": 6653.212500000006,
      "d": 80.64500000000044,
      "v": 127
    },
    {
      "midi": 35,
      "hit": false,
      "t": 6895.147500000006,
      "d": 80.64500000000044,
      "v": 127
    },
    {
      "midi": 64,
      "hit": false,
      "t": 7016.115000000002,
      "d": 725.8050000000003,
      "v": 46
    },
    {
      "midi": 64,
      "hit": false,
      "t": 7016.115000000002,
      "d": 725.8050000000003,
      "v": 40
    },
    {
      "midi": 36,
      "hit": false,
      "t": 7016.115000000007,
      "d": 80.64500000000044,
      "v": 127
    },
    {
      "midi": 38,
      "hit": false,
      "t": 7258.0500000000075,
      "d": 80.64500000000044,
      "v": 127
    },
    {
      "midi": 36,
      "hit": false,
      "t": 7499.985000000008,
      "d": 80.64500000000044,
      "v": 127
    },
    {
      "midi": 36,
      "hit": false,
      "t": 7741.92,
      "d": 1935.4799999999996,
      "v": 100
    },
    {
      "midi": 77,
      "hit": false,
      "t": 7741.92,
      "d": 514.1118750000005,
      "v": 54
    },
    {
      "midi": 72,
      "hit": false,
      "t": 7741.92,
      "d": 3870.960000000001,
      "v": 54
    },
    {
      "midi": 36,
      "hit": false,
      "t": 7741.92,
      "d": 1935.4799999999996,
      "v": 100
    },
    {
      "midi": 36,
      "hit": false,
      "t": 7741.92,
      "d": 1935.4799999999996,
      "v": 84
    },
    {
      "midi": 65,
      "hit": false,
      "t": 7741.920000000002,
      "d": 725.8050000000003,
      "v": 46
    },
    {
      "midi": 62,
      "hit": false,
      "t": 7741.920000000002,
      "d": 725.8050000000003,
      "v": 46
    },
    {
      "midi": 55,
      "hit": false,
      "t": 7741.920000000002,
      "d": 725.8050000000003,
      "v": 46
    },
    {
      "midi": 48,
      "hit": false,
      "t": 7741.920000000002,
      "d": 725.8050000000003,
      "v": 46
    },
    {
      "midi": 36,
      "hit": false,
      "t": 7741.920000000002,
      "d": 725.8050000000003,
      "v": 46
    },
    {
      "midi": 65,
      "hit": false,
      "t": 7741.920000000002,
      "d": 725.8050000000003,
      "v": 40
    },
    {
      "midi": 62,
      "hit": false,
      "t": 7741.920000000002,
      "d": 725.8050000000003,
      "v": 40
    },
    {
      "midi": 55,
      "hit": false,
      "t": 7741.920000000002,
      "d": 725.8050000000003,
      "v": 40
    },
    {
      "midi": 48,
      "hit": false,
      "t": 7741.920000000002,
      "d": 725.8050000000003,
      "v": 40
    },
    {
      "midi": 36,
      "hit": false,
      "t": 7741.920000000002,
      "d": 725.8050000000003,
      "v": 40
    },
    {
      "midi": 36,
      "hit": false,
      "t": 7741.920000000008,
      "d": 161.28999999999996,
      "v": 127
    },
    {
      "midi": 36,
      "hit": false,
      "t": 7983.855000000009,
      "d": 161.28999999999996,
      "v": 127
    },
    {
      "midi": 38,
      "hit": false,
      "t": 8225.790000000008,
      "d": 161.29000000000087,
      "v": 127
    },
    {
      "midi": 76,
      "hit": false,
      "t": 8467.725,
      "d": 3145.1550000000007,
      "v": 54
    },
    {
      "midi": 64,
      "hit": false,
      "t": 8467.725000000002,
      "d": 1209.6749999999993,
      "v": 46
    },
    {
      "midi": 60,
      "hit": false,
      "t": 8467.725000000002,
      "d": 1209.6749999999993,
      "v": 46
    },
    {
      "midi": 55,
      "hit": false,
      "t": 8467.725000000002,
      "d": 1209.6749999999993,
      "v": 46
    },
    {
      "midi": 48,
      "hit": false,
      "t": 8467.725000000002,
      "d": 1209.6749999999993,
      "v": 46
    },
    {
      "midi": 36,
      "hit": false,
      "t": 8467.725000000002,
      "d": 1209.6749999999993,
      "v": 46
    },
    {
      "midi": 64,
      "hit": false,
      "t": 8467.725000000002,
      "d": 1209.6749999999993,
      "v": 40
    },
    {
      "midi": 60,
      "hit": false,
      "t": 8467.725000000002,
      "d": 1209.6749999999993,
      "v": 40
    },
    {
      "midi": 55,
      "hit": false,
      "t": 8467.725000000002,
      "d": 1209.6749999999993,
      "v": 40
    },
    {
      "midi": 48,
      "hit": false,
      "t": 8467.725000000002,
      "d": 1209.6749999999993,
      "v": 40
    },
    {
      "midi": 36,
      "hit": false,
      "t": 8467.725000000002,
      "d": 1209.6749999999993,
      "v": 40
    },
    {
      "midi": 35,
      "hit": false,
      "t": 8467.72500000001,
      "d": 80.64500000000044,
      "v": 127
    },
    {
      "midi": 36,
      "hit": false,
      "t": 8588.69250000001,
      "d": 80.64500000000044,
      "v": 127
    },
    {
      "midi": 35,
      "hit": false,
      "t": 8830.627500000011,
      "d": 80.64500000000044,
      "v": 127
    },
    {
      "midi": 36,
      "hit": false,
      "t": 8951.595000000012,
      "d": 80.64500000000044,
      "v": 127
    },
    {
      "midi": 38,
      "hit": false,
      "t": 9193.530000000013,
      "d": 80.64500000000044,
      "v": 127
    },
    {
      "midi": 36,
      "hit": false,
      "t": 9435.465000000015,
      "d": 80.64500000000044,
      "v": 127
    },
    {
      "midi": 36,
      "hit": false,
      "t": 9677.4,
      "d": 1935.4799999999996,
      "v": 100
    },
    {
      "midi": 36,
      "hit": false,
      "t": 9677.4,
      "d": 1935.4799999999996,
      "v": 100
    },
    {
      "midi": 36,
      "hit": false,
      "t": 9677.4,
      "d": 1935.4799999999996,
      "v": 84
    },
    {
      "midi": 48,
      "hit": false,
      "t": 9677.400000000001,
      "d": 241.9349999999995,
      "v": 46
    },
    {
      "midi": 48,
      "hit": false,
      "t": 9677.400000000001,
      "d": 241.9349999999995,
      "v": 40
    },
    {
      "midi": 36,
      "hit": false,
      "t": 9677.400000000016,
      "d": 161.29000000000087,
      "v": 127
    },
    {
      "midi": 55,
      "hit": false,
      "t": 9919.335000000001,
      "d": 241.9349999999995,
      "v": 46
    },
    {
      "midi": 55,
      "hit": false,
      "t": 9919.335000000001,
      "d": 241.9349999999995,
      "v": 40
    },
    {
      "midi": 36,
      "hit": false,
      "t": 9919.335000000017,
      "d": 161.29000000000087,
      "v": 127
    },
    {
      "midi": 60,
      "hit": false,
      "t": 10161.27,
      "d": 241.9349999999995,
      "v": 46
    },
    {
      "midi": 60,
      "hit": false,
      "t": 10161.27,
      "d": 241.9349999999995,
      "v": 40
    },
    {
      "midi": 38,
      "hit": false,
      "t": 10161.270000000019,
      "d": 161.29000000000087,
      "v": 127
    },
    {
      "midi": 62,
      "hit": false,
      "t": 10403.205,
      "d": 483.8700000000008,
      "v": 46
    },
    {
      "midi": 62,
      "hit": false,
      "t": 10403.205,
      "d": 483.8700000000008,
      "v": 40
    },
    {
      "midi": 35,
      "hit": false,
      "t": 10403.20500000002,
      "d": 80.64500000000044,
      "v": 127
    },
    {
      "midi": 36,
      "hit": false,
      "t": 10524.17250000002,
      "d": 80.64500000000044,
      "v": 127
    },
    {
      "midi": 35,
      "hit": false,
      "t": 10766.107500000022,
      "d": 80.64500000000044,
      "v": 127
    },
    {
      "midi": 64,
      "hit": false,
      "t": 10887.075,
      "d": 725.8049999999985,
      "v": 46
    },
    {
      "midi": 64,
      "hit": false,
      "t": 10887.075,
      "d": 725.8049999999985,
      "v": 40
    },
    {
      "midi": 36,
      "hit": false,
      "t": 10887.075000000023,
      "d": 80.64500000000044,
      "v": 127
    },
    {
      "midi": 38,
      "hit": false,
      "t": 11129.010000000024,
      "d": 80.64500000000044,
      "v": 127
    },
    {
      "midi": 36,
      "hit": false,
      "t": 11370.945000000025,
      "d": 80.64500000000044,
      "v": 127
    },
    {
      "midi": 34,
      "hit": false,
      "t": 11612.88,
      "d": 1935.4799999999996,
      "v": 100
    },
    {
      "midi": 53,
      "hit": false,
      "t": 11612.88,
      "d": 1935.4799999999996,
      "v": 46
    },
    {
      "midi": 58,
      "hit": false,
      "t": 11612.88,
      "d": 1935.4799999999996,
      "v": 46
    },
    {
      "midi": 62,
      "hit": false,
      "t": 11612.88,
      "d": 1935.4799999999996,
      "v": 46
    },
    {
      "midi": 46,
      "hit": false,
      "t": 11612.88,
      "d": 3870.960000000001,
      "v": 46
    },
    {
      "midi": 34,
      "hit": false,
      "t": 11612.88,
      "d": 1935.4799999999996,
      "v": 100
    },
    {
      "midi": 53,
      "hit": false,
      "t": 11612.88,
      "d": 1935.4799999999996,
      "v": 40
    },
    {
      "midi": 58,
      "hit": false,
      "t": 11612.88,
      "d": 1935.4799999999996,
      "v": 40
    },
    {
      "midi": 62,
      "hit": false,
      "t": 11612.88,
      "d": 1935.4799999999996,
      "v": 40
    },
    {
      "midi": 46,
      "hit": false,
      "t": 11612.88,
      "d": 3870.960000000001,
      "v": 40
    },
    {
      "midi": 34,
      "hit": false,
      "t": 11612.88,
      "d": 1935.4799999999996,
      "v": 84
    },
    {
      "midi": 70,
      "hit": false,
      "t": 11612.880000000001,
      "d": 3870.959999999999,
      "v": 54
    },
    {
      "midi": 74,
      "hit": false,
      "t": 11612.880000000001,
      "d": 3870.959999999999,
      "v": 54
    },
    {
      "midi": 36,
      "hit": false,
      "t": 11612.880000000026,
      "d": 161.29000000000087,
      "v": 127
    },
    {
      "midi": 36,
      "hit": false,
      "t": 11854.815000000028,
      "d": 161.29000000000087,
      "v": 127
    },
    {
      "midi": 38,
      "hit": false,
      "t": 12096.75000000003,
      "d": 161.29000000000087,
      "v": 127
    },
    {
      "midi": 35,
      "hit": false,
      "t": 12338.68500000003,
      "d": 80.64500000000044,
      "v": 127
    },
    {
      "midi": 36,
      "hit": false,
      "t": 12459.652500000031,
      "d": 80.64500000000044,
      "v": 127
    },
    {
      "midi": 35,
      "hit": false,
      "t": 12701.587500000032,
      "d": 80.64500000000044,
      "v": 127
    },
    {
      "midi": 36,
      "hit": false,
      "t": 12822.555000000033,
      "d": 80.64500000000044,
      "v": 127
    },
    {
      "midi": 38,
      "hit": false,
      "t": 13064.490000000034,
      "d": 80.64500000000044,
      "v": 127
    },
    {
      "midi": 36,
      "hit": false,
      "t": 13306.425000000036,
      "d": 80.64500000000044,
      "v": 127
    },
    {
      "midi": 34,
      "hit": false,
      "t": 13548.359999999999,
      "d": 1935.4799999999996,
      "v": 100
    },
    {
      "midi": 34,
      "hit": false,
      "t": 13548.359999999999,
      "d": 1935.4799999999996,
      "v": 100
    },
    {
      "midi": 34,
      "hit": false,
      "t": 13548.359999999999,
      "d": 1935.4799999999996,
      "v": 84
    },
    {
      "midi": 60,
      "hit": false,
      "t": 13548.36,
      "d": 967.7399999999998,
      "v": 33
    },
    {
      "midi": 36,
      "hit": false,
      "t": 13548.360000000037,
      "d": 161.29000000000087,
      "v": 127
    },
    {
      "midi": 60,
      "hit": false,
      "t": 13790.294999999998,
      "d": 483.8700000000008,
      "v": 46
    },
    {
      "midi": 58,
      "hit": false,
      "t": 13790.294999999998,
      "d": 483.8700000000008,
      "v": 46
    },
    {
      "midi": 53,
      "hit": false,
      "t": 13790.294999999998,
      "d": 483.8700000000008,
      "v": 46
    },
    {
      "midi": 60,
      "hit": false,
      "t": 13790.294999999998,
      "d": 483.8700000000008,
      "v": 40
    },
    {
      "midi": 58,
      "hit": false,
      "t": 13790.294999999998,
      "d": 483.8700000000008,
      "v": 40
    },
    {
      "midi": 53,
      "hit": false,
      "t": 13790.294999999998,
      "d": 483.8700000000008,
      "v": 40
    },
    {
      "midi": 36,
      "hit": false,
      "t": 13790.295000000038,
      "d": 161.29000000000087,
      "v": 127
    },
    {
      "midi": 38,
      "hit": false,
      "t": 14032.23000000004,
      "d": 161.29000000000087,
      "v": 127
    },
    {
      "midi": 60,
      "hit": false,
      "t": 14274.164999999999,
      "d": 483.8700000000008,
      "v": 46
    },
    {
      "midi": 53,
      "hit": false,
      "t": 14274.164999999999,
      "d": 483.8700000000008,
      "v": 46
    },
    {
      "midi": 58,
      "hit": false,
      "t": 14274.164999999999,
      "d": 483.8700000000008,
      "v": 46
    },
    {
      "midi": 60,
      "hit": false,
      "t": 14274.164999999999,
      "d": 483.8700000000008,
      "v": 40
    },
    {
      "midi": 53,
      "hit": false,
      "t": 14274.164999999999,
      "d": 483.8700000000008,
      "v": 40
    },
    {
      "midi": 58,
      "hit": false,
      "t": 14274.164999999999,
      "d": 483.8700000000008,
      "v": 40
    },
    {
      "midi": 35,
      "hit": false,
      "t": 14274.16500000004,
      "d": 80.64500000000044,
      "v": 127
    },
    {
      "midi": 36,
      "hit": false,
      "t": 14395.132500000042,
      "d": 80.64500000000044,
      "v": 127
    },
    {
      "midi": 58,
      "hit": false,
      "t": 14516.1,
      "d": 967.7399999999998,
      "v": 28
    },
    {
      "midi": 35,
      "hit": false,
      "t": 14637.067500000043,
      "d": 80.64500000000044,
      "v": 127
    },
    {
      "midi": 62,
      "hit": false,
      "t": 14758.035,
      "d": 725.8050000000003,
      "v": 46
    },
    {
      "midi": 53,
      "hit": false,
      "t": 14758.035,
      "d": 725.8050000000003,
      "v": 46
    },
    {
      "midi": 58,
      "hit": false,
      "t": 14758.035,
      "d": 725.8050000000003,
      "v": 46
    },
    {
      "midi": 62,
      "hit": false,
      "t": 14758.035,
      "d": 725.8050000000003,
      "v": 40
    },
    {
      "midi": 53,
      "hit": false,
      "t": 14758.035,
      "d": 725.8050000000003,
      "v": 40
    },
    {
      "midi": 58,
      "hit": false,
      "t": 14758.035,
      "d": 725.8050000000003,
      "v": 40
    },
    {
      "midi": 36,
      "hit": false,
      "t": 14758.035000000044,
      "d": 80.64500000000044,
      "v": 127
    },
    {
      "midi": 38,
      "hit": false,
      "t": 14999.970000000045,
      "d": 80.64500000000044,
      "v": 127
    },
    {
      "midi": 40,
      "hit": false,
      "t": 14999.970000000045,
      "d": 80.64500000000044,
      "v": 127
    },
    {
      "midi": 40,
      "hit": false,
      "t": 15120.937500000045,
      "d": 80.64500000000044,
      "v": 127
    },
    {
      "midi": 36,
      "hit": false,
      "t": 15241.905000000046,
      "d": 80.64500000000044,
      "v": 127
    },
    {
      "midi": 40,
      "hit": false,
      "t": 15241.905000000046,
      "d": 80.64500000000044,
      "v": 127
    },
    {
      "midi": 40,
      "hit": false,
      "t": 15362.872500000047,
      "d": 80.64500000000044,
      "v": 127
    },
    {
      "midi": 38,
      "hit": false,
      "t": 15483.839999999998,
      "d": 1935.4800000000014,
      "v": 100
    },
    {
      "midi": 38,
      "hit": false,
      "t": 15483.839999999998,
      "d": 1935.4800000000014,
      "v": 100
    },
    {
      "midi": 38,
      "hit": false,
      "t": 15483.839999999998,
      "d": 1935.4800000000014,
      "v": 84
    },
    {
      "midi": 50,
      "hit": false,
      "t": 15483.84,
      "d": 1935.4799999999996,
      "v": 47
    },
    {
      "midi": 57,
      "hit": false,
      "t": 15483.84,
      "d": 967.7400000000016,
      "v": 46
    },
    {
      "midi": 53,
      "hit": false,
      "t": 15483.84,
      "d": 967.7400000000016,
      "v": 46
    },
    {
      "midi": 50,
      "hit": false,
      "t": 15483.84,
      "d": 967.7400000000016,
      "v": 46
    },
    {
      "midi": 38,
      "hit": false,
      "t": 15483.84,
      "d": 1935.4800000000032,
      "v": 46
    },
    {
      "midi": 57,
      "hit": false,
      "t": 15483.84,
      "d": 967.7400000000016,
      "v": 40
    },
    {
      "midi": 53,
      "hit": false,
      "t": 15483.84,
      "d": 967.7400000000016,
      "v": 40
    },
    {
      "midi": 50,
      "hit": false,
      "t": 15483.84,
      "d": 967.7400000000016,
      "v": 40
    },
    {
      "midi": 38,
      "hit": false,
      "t": 15483.84,
      "d": 1935.4800000000032,
      "v": 40
    },
    {
      "midi": 36,
      "hit": false,
      "t": 15483.840000000047,
      "d": 161.29000000000087,
      "v": 127
    },
    {
      "midi": 36,
      "hit": false,
      "t": 15725.775000000049,
      "d": 161.29000000000087,
      "v": 127
    },
    {
      "midi": 38,
      "hit": false,
      "t": 15967.71000000005,
      "d": 161.29000000000087,
      "v": 127
    },
    {
      "midi": 35,
      "hit": false,
      "t": 16209.645000000051,
      "d": 80.64500000000044,
      "v": 127
    },
    {
      "midi": 36,
      "hit": false,
      "t": 16330.612500000052,
      "d": 80.64499999999862,
      "v": 127
    },
    {
      "midi": 74,
      "hit": false,
      "t": 16451.58,
      "d": 241.9350000000013,
      "v": 127
    },
    {
      "midi": 35,
      "hit": false,
      "t": 16572.54750000005,
      "d": 80.64500000000044,
      "v": 127
    },
    {
      "midi": 57,
      "hit": false,
      "t": 16693.515000000003,
      "d": 483.869999999999,
      "v": 46
    },
    {
      "midi": 53,
      "hit": false,
      "t": 16693.515000000003,
      "d": 483.869999999999,
      "v": 46
    },
    {
      "midi": 50,
      "hit": false,
      "t": 16693.515000000003,
      "d": 483.869999999999,
      "v": 46
    },
    {
      "midi": 77,
      "hit": false,
      "t": 16693.515000000003,
      "d": 483.869999999999,
      "v": 127
    },
    {
      "midi": 57,
      "hit": false,
      "t": 16693.515000000003,
      "d": 483.869999999999,
      "v": 40
    },
    {
      "midi": 53,
      "hit": false,
      "t": 16693.515000000003,
      "d": 483.869999999999,
      "v": 40
    },
    {
      "midi": 50,
      "hit": false,
      "t": 16693.515000000003,
      "d": 483.869999999999,
      "v": 40
    },
    {
      "midi": 36,
      "hit": false,
      "t": 16693.51500000005,
      "d": 80.64500000000044,
      "v": 127
    },
    {
      "midi": 38,
      "hit": false,
      "t": 16935.45000000005,
      "d": 80.64500000000044,
      "v": 127
    },
    {
      "midi": 76,
      "hit": false,
      "t": 17177.385000000002,
      "d": 483.869999999999,
      "v": 127
    },
    {
      "midi": 36,
      "hit": false,
      "t": 17177.385000000053,
      "d": 80.64500000000044,
      "v": 127
    },
    {
      "midi": 36,
      "hit": false,
      "t": 17419.32,
      "d": 1935.4799999999996,
      "v": 100
    },
    {
      "midi": 52,
      "hit": false,
      "t": 17419.32,
      "d": 1935.4799999999996,
      "v": 49
    },
    {
      "midi": 36,
      "hit": false,
      "t": 17419.32,
      "d": 1935.4799999999996,
      "v": 100
    },
    {
      "midi": 36,
      "hit": false,
      "t": 17419.32,
      "d": 1935.4799999999996,
      "v": 84
    },
    {
      "midi": 60,
      "hit": false,
      "t": 17419.320000000003,
      "d": 1935.4799999999996,
      "v": 46
    },
    {
      "midi": 55,
      "hit": false,
      "t": 17419.320000000003,
      "d": 1935.4799999999996,
      "v": 46
    },
    {
      "midi": 52,
      "hit": false,
      "t": 17419.320000000003,
      "d": 1935.4799999999996,
      "v": 46
    },
    {
      "midi": 36,
      "hit": false,
      "t": 17419.320000000003,
      "d": 1935.4799999999996,
      "v": 46
    },
    {
      "midi": 48,
      "hit": false,
      "t": 17419.320000000003,
      "d": 1935.4799999999996,
      "v": 46
    },
    {
      "midi": 60,
      "hit": false,
      "t": 17419.320000000003,
      "d": 1935.4799999999996,
      "v": 40
    },
    {
      "midi": 55,
      "hit": false,
      "t": 17419.320000000003,
      "d": 1935.4799999999996,
      "v": 40
    },
    {
      "midi": 52,
      "hit": false,
      "t": 17419.320000000003,
      "d": 1935.4799999999996,
      "v": 40
    },
    {
      "midi": 36,
      "hit": false,
      "t": 17419.320000000003,
      "d": 1935.4799999999996,
      "v": 40
    },
    {
      "midi": 48,
      "hit": false,
      "t": 17419.320000000003,
      "d": 1935.4799999999996,
      "v": 40
    },
    {
      "midi": 36,
      "hit": false,
      "t": 17419.320000000054,
      "d": 161.29000000000087,
      "v": 127
    },
    {
      "midi": 36,
      "hit": false,
      "t": 17661.255000000056,
      "d": 161.29000000000087,
      "v": 127
    },
    {
      "midi": 74,
      "hit": false,
      "t": 17903.190000000002,
      "d": 241.9350000000013,
      "v": 127
    },
    {
      "midi": 38,
      "hit": false,
      "t": 17903.190000000057,
      "d": 161.29000000000087,
      "v": 127
    },
    {
      "midi": 72,
      "hit": false,
      "t": 18145.125000000004,
      "d": 483.869999999999,
      "v": 127
    },
    {
      "midi": 35,
      "hit": false,
      "t": 18145.12500000006,
      "d": 80.64500000000044,
      "v": 127
    },
    {
      "midi": 36,
      "hit": false,
      "t": 18266.092500000057,
      "d": 80.64500000000044,
      "v": 127
    },
    {
      "midi": 35,
      "hit": false,
      "t": 18508.02750000006,
      "d": 80.64500000000044,
      "v": 127
    },
    {
      "midi": 36,
      "hit": false,
      "t": 18628.995000000057,
      "d": 80.64500000000044,
      "v": 127
    },
    {
      "midi": 74,
      "hit": false,
      "t": 18870.930000000004,
      "d": 241.9350000000013,
      "v": 127
    },
    {
      "midi": 38,
      "hit": false,
      "t": 18870.93000000006,
      "d": 80.64500000000044,
      "v": 127
    },
    {
      "midi": 67,
      "hit": false,
      "t": 19112.865000000005,
      "d": 483.869999999999,
      "v": 127
    },
    {
      "midi": 36,
      "hit": false,
      "t": 19112.86500000006,
      "d": 80.64500000000044,
      "v": 127
    },
    {
      "midi": 34,
      "hit": false,
      "t": 19354.8,
      "d": 1935.4799999999996,
      "v": 100
    },
    {
      "midi": 53,
      "hit": false,
      "t": 19354.8,
      "d": 3870.959999999999,
      "v": 40
    },
    {
      "midi": 34,
      "hit": false,
      "t": 19354.8,
      "d": 1935.4799999999996,
      "v": 100
    },
    {
      "midi": 34,
      "hit": false,
      "t": 19354.8,
      "d": 1935.4799999999996,
      "v": 84
    },
    {
      "midi": 57,
      "hit": false,
      "t": 19354.800000000003,
      "d": 1935.4799999999996,
      "v": 46
    },
    {
      "midi": 53,
      "hit": false,
      "t": 19354.800000000003,
      "d": 1935.4799999999996,
      "v": 46
    },
    {
      "midi": 50,
      "hit": false,
      "t": 19354.800000000003,
      "d": 1935.4799999999996,
      "v": 46
    },
    {
      "midi": 46,
      "hit": false,
      "t": 19354.800000000003,
      "d": 1935.4799999999996,
      "v": 46
    },
    {
      "midi": 57,
      "hit": false,
      "t": 19354.800000000003,
      "d": 1935.4799999999996,
      "v": 40
    },
    {
      "midi": 53,
      "hit": false,
      "t": 19354.800000000003,
      "d": 1935.4799999999996,
      "v": 40
    },
    {
      "midi": 50,
      "hit": false,
      "t": 19354.800000000003,
      "d": 1935.4799999999996,
      "v": 40
    },
    {
      "midi": 46,
      "hit": false,
      "t": 19354.800000000003,
      "d": 1935.4799999999996,
      "v": 40
    },
    {
      "midi": 36,
      "hit": false,
      "t": 19354.80000000006,
      "d": 161.29000000000087,
      "v": 127
    },
    {
      "midi": 67,
      "hit": false,
      "t": 19596.735000000004,
      "d": 967.7400000000016,
      "v": 127
    },
    {
      "midi": 36,
      "hit": false,
      "t": 19596.735000000062,
      "d": 161.29000000000087,
      "v": 127
    },
    {
      "midi": 38,
      "hit": false,
      "t": 19838.670000000064,
      "d": 161.29000000000087,
      "v": 127
    },
    {
      "midi": 35,
      "hit": false,
      "t": 20080.605000000065,
      "d": 80.64500000000044,
      "v": 127
    },
    {
      "midi": 36,
      "hit": false,
      "t": 20201.572500000064,
      "d": 80.64500000000044,
      "v": 127
    },
    {
      "midi": 35,
      "hit": false,
      "t": 20443.507500000065,
      "d": 80.64500000000044,
      "v": 127
    },
    {
      "midi": 36,
      "hit": false,
      "t": 20564.475000000064,
      "d": 80.64500000000044,
      "v": 127
    },
    {
      "midi": 38,
      "hit": false,
      "t": 20806.410000000065,
      "d": 80.64500000000044,
      "v": 127
    },
    {
      "midi": 67,
      "hit": false,
      "t": 21048.345,
      "d": 483.869999999999,
      "v": 28
    },
    {
      "midi": 36,
      "hit": false,
      "t": 21048.345000000067,
      "d": 80.64500000000044,
      "v": 127
    },
    {
      "midi": 67,
      "hit": false,
      "t": 21169.3125,
      "d": 483.869999999999,
      "v": 18
    },
    {
      "midi": 34,
      "hit": false,
      "t": 21290.28,
      "d": 1935.4799999999996,
      "v": 100
    },
    {
      "midi": 34,
      "hit": false,
      "t": 21290.28,
      "d": 1935.4799999999996,
      "v": 100
    },
    {
      "midi": 34,
      "hit": false,
      "t": 21290.28,
      "d": 1935.4799999999996,
      "v": 84
    },
    {
      "midi": 46,
      "hit": false,
      "t": 21290.280000000002,
      "d": 241.9350000000013,
      "v": 46
    },
    {
      "midi": 46,
      "hit": false,
      "t": 21290.280000000002,
      "d": 241.9350000000013,
      "v": 40
    },
    {
      "midi": 36,
      "hit": false,
      "t": 21290.280000000068,
      "d": 161.29000000000087,
      "v": 127
    },
    {
      "midi": 67,
      "hit": false,
      "t": 21532.215,
      "d": 967.7400000000016,
      "v": 28
    },
    {
      "midi": 53,
      "hit": false,
      "t": 21532.215000000004,
      "d": 241.9350000000013,
      "v": 46
    },
    {
      "midi": 53,
      "hit": false,
      "t": 21532.215000000004,
      "d": 241.9350000000013,
      "v": 40
    },
    {
      "midi": 36,
      "hit": false,
      "t": 21532.21500000007,
      "d": 161.29000000000087,
      "v": 127
    },
    {
      "midi": 67,
      "hit": false,
      "t": 21653.1825,
      "d": 967.7400000000016,
      "v": 18
    },
    {
      "midi": 58,
      "hit": false,
      "t": 21774.150000000005,
      "d": 241.9350000000013,
      "v": 46
    },
    {
      "midi": 58,
      "hit": false,
      "t": 21774.150000000005,
      "d": 241.9350000000013,
      "v": 40
    },
    {
      "midi": 38,
      "hit": false,
      "t": 21774.15000000007,
      "d": 161.29000000000087,
      "v": 127
    },
    {
      "midi": 60,
      "hit": false,
      "t": 22016.085000000006,
      "d": 483.869999999999,
      "v": 46
    },
    {
      "midi": 60,
      "hit": false,
      "t": 22016.085000000006,
      "d": 483.869999999999,
      "v": 40
    },
    {
      "midi": 35,
      "hit": false,
      "t": 22016.085000000072,
      "d": 80.64500000000044,
      "v": 127
    },
    {
      "midi": 36,
      "hit": false,
      "t": 22137.05250000007,
      "d": 80.64500000000044,
      "v": 127
    },
    {
      "midi": 35,
      "hit": false,
      "t": 22378.987500000072,
      "d": 80.64500000000044,
      "v": 127
    },
    {
      "midi": 62,
      "hit": false,
      "t": 22499.955000000005,
      "d": 725.8050000000003,
      "v": 46
    },
    {
      "midi": 62,
      "hit": false,
      "t": 22499.955000000005,
      "d": 725.8050000000003,
      "v": 40
    },
    {
      "midi": 36,
      "hit": false,
      "t": 22499.95500000007,
      "d": 80.64500000000044,
      "v": 127
    },
    {
      "midi": 38,
      "hit": false,
      "t": 22741.890000000072,
      "d": 80.64500000000044,
      "v": 127
    },
    {
      "midi": 36,
      "hit": false,
      "t": 22983.825000000073,
      "d": 80.64500000000044,
      "v": 127
    },
    {
      "midi": 38,
      "hit": false,
      "t": 23225.76,
      "d": 1935.4799999999996,
      "v": 100
    },
    {
      "midi": 50,
      "hit": false,
      "t": 23225.76,
      "d": 1935.4799999999996,
      "v": 47
    },
    {
      "midi": 38,
      "hit": false,
      "t": 23225.76,
      "d": 1935.4799999999996,
      "v": 100
    },
    {
      "midi": 38,
      "hit": false,
      "t": 23225.76,
      "d": 1935.4799999999996,
      "v": 84
    },
    {
      "midi": 62,
      "hit": false,
      "t": 23225.760000000006,
      "d": 1935.4799999999996,
      "v": 46
    },
    {
      "midi": 57,
      "hit": false,
      "t": 23225.760000000006,
      "d": 1935.4799999999996,
      "v": 46
    },
    {
      "midi": 53,
      "hit": false,
      "t": 23225.760000000006,
      "d": 1935.4799999999996,
      "v": 46
    },
    {
      "midi": 38,
      "hit": false,
      "t": 23225.760000000006,
      "d": 1935.4799999999996,
      "v": 46
    },
    {
      "midi": 62,
      "hit": false,
      "t": 23225.760000000006,
      "d": 1935.4799999999996,
      "v": 40
    },
    {
      "midi": 57,
      "hit": false,
      "t": 23225.760000000006,
      "d": 1935.4799999999996,
      "v": 40
    },
    {
      "midi": 53,
      "hit": false,
      "t": 23225.760000000006,
      "d": 1935.4799999999996,
      "v": 40
    },
    {
      "midi": 38,
      "hit": false,
      "t": 23225.760000000006,
      "d": 1935.4799999999996,
      "v": 40
    },
    {
      "midi": 36,
      "hit": false,
      "t": 23225.760000000075,
      "d": 161.29000000000087,
      "v": 127
    },
    {
      "midi": 36,
      "hit": false,
      "t": 23467.695000000076,
      "d": 161.29000000000087,
      "v": 127
    },
    {
      "midi": 38,
      "hit": false,
      "t": 23709.630000000077,
      "d": 161.29000000000087,
      "v": 127
    },
    {
      "midi": 35,
      "hit": false,
      "t": 23951.56500000008,
      "d": 80.64500000000044,
      "v": 127
    },
    {
      "midi": 36,
      "hit": false,
      "t": 24072.532500000078,
      "d": 80.64500000000044,
      "v": 127
    },
    {
      "midi": 74,
      "hit": false,
      "t": 24193.500000000007,
      "d": 241.9350000000013,
      "v": 127
    },
    {
      "midi": 35,
      "hit": false,
      "t": 24314.46750000008,
      "d": 80.64500000000044,
      "v": 127
    },
    {
      "midi": 77,
      "hit": false,
      "t": 24435.43500000001,
      "d": 483.869999999999,
      "v": 127
    },
    {
      "midi": 36,
      "hit": false,
      "t": 24435.435000000078,
      "d": 80.64500000000044,
      "v": 127
    },
    {
      "midi": 38,
      "hit": false,
      "t": 24677.37000000008,
      "d": 80.64500000000044,
      "v": 127
    },
    {
      "midi": 79,
      "hit": false,
      "t": 24919.305000000008,
      "d": 483.869999999999,
      "v": 127
    },
    {
      "midi": 36,
      "hit": false,
      "t": 24919.30500000008,
      "d": 80.64500000000044,
      "v": 127
    },
    {
      "midi": 36,
      "hit": false,
      "t": 25161.239999999998,
      "d": 1935.4799999999996,
      "v": 100
    },
    {
      "midi": 52,
      "hit": false,
      "t": 25161.239999999998,
      "d": 1935.4799999999996,
      "v": 49
    },
    {
      "midi": 36,
      "hit": false,
      "t": 25161.239999999998,
      "d": 1935.4799999999996,
      "v": 100
    },
    {
      "midi": 36,
      "hit": false,
      "t": 25161.239999999998,
      "d": 1935.4799999999996,
      "v": 84
    },
    {
      "midi": 43,
      "hit": false,
      "t": 25161.240000000005,
      "d": 1935.4799999999996,
      "v": 46
    },
    {
      "midi": 52,
      "hit": false,
      "t": 25161.240000000005,
      "d": 1935.4799999999996,
      "v": 46
    },
    {
      "midi": 55,
      "hit": false,
      "t": 25161.240000000005,
      "d": 1935.4799999999996,
      "v": 46
    },
    {
      "midi": 60,
      "hit": false,
      "t": 25161.240000000005,
      "d": 1935.4799999999996,
      "v": 46
    },
    {
      "midi": 43,
      "hit": false,
      "t": 25161.240000000005,
      "d": 1935.4799999999996,
      "v": 40
    },
    {
      "midi": 52,
      "hit": false,
      "t": 25161.240000000005,
      "d": 1935.4799999999996,
      "v": 40
    },
    {
      "midi": 55,
      "hit": false,
      "t": 25161.240000000005,
      "d": 1935.4799999999996,
      "v": 40
    },
    {
      "midi": 60,
      "hit": false,
      "t": 25161.240000000005,
      "d": 1935.4799999999996,
      "v": 40
    },
    {
      "midi": 36,
      "hit": false,
      "t": 25161.24000000008,
      "d": 161.29000000000087,
      "v": 127
    },
    {
      "midi": 76,
      "hit": false,
      "t": 25403.175000000007,
      "d": 483.869999999999,
      "v": 127
    },
    {
      "midi": 36,
      "hit": false,
      "t": 25403.175000000083,
      "d": 161.29000000000087,
      "v": 127
    },
    {
      "midi": 38,
      "hit": false,
      "t": 25645.110000000084,
      "d": 161.29000000000087,
      "v": 127
    },
    {
      "midi": 74,
      "hit": false,
      "t": 25887.045000000006,
      "d": 483.869999999999,
      "v": 127
    },
    {
      "midi": 35,
      "hit": false,
      "t": 25887.045000000086,
      "d": 80.64500000000044,
      "v": 127
    },
    {
      "midi": 36,
      "hit": false,
      "t": 26008.012500000084,
      "d": 80.64500000000044,
      "v": 127
    },
    {
      "midi": 35,
      "hit": false,
      "t": 26249.947500000086,
      "d": 80.64500000000044,
      "v": 127
    },
    {
      "midi": 72,
      "hit": false,
      "t": 26370.915000000005,
      "d": 483.869999999999,
      "v": 127
    },
    {
      "midi": 36,
      "hit": false,
      "t": 26370.915000000085,
      "d": 80.64500000000044,
      "v": 127
    },
    {
      "midi": 38,
      "hit": false,
      "t": 26612.850000000086,
      "d": 80.64500000000044,
      "v": 127
    },
    {
      "midi": 36,
      "hit": false,
      "t": 26854.785000000087,
      "d": 80.64500000000044,
      "v": 127
    },
    {
      "midi": 34,
      "hit": false,
      "t": 27096.719999999998,
      "d": 1935.4799999999996,
      "v": 100
    },
    {
      "midi": 53,
      "hit": false,
      "t": 27096.719999999998,
      "d": 3870.959999999999,
      "v": 40
    },
    {
      "midi": 34,
      "hit": false,
      "t": 27096.719999999998,
      "d": 1935.4799999999996,
      "v": 100
    },
    {
      "midi": 34,
      "hit": false,
      "t": 27096.719999999998,
      "d": 1935.4799999999996,
      "v": 84
    },
    {
      "midi": 58,
      "hit": false,
      "t": 27096.720000000005,
      "d": 1935.4799999999996,
      "v": 46
    },
    {
      "midi": 53,
      "hit": false,
      "t": 27096.720000000005,
      "d": 1935.4799999999996,
      "v": 46
    },
    {
      "midi": 50,
      "hit": false,
      "t": 27096.720000000005,
      "d": 1935.4799999999996,
      "v": 46
    },
    {
      "midi": 46,
      "hit": false,
      "t": 27096.720000000005,
      "d": 3870.959999999999,
      "v": 46
    },
    {
      "midi": 74,
      "hit": false,
      "t": 27096.720000000005,
      "d": 725.8050000000003,
      "v": 127
    },
    {
      "midi": 58,
      "hit": false,
      "t": 27096.720000000005,
      "d": 1935.4799999999996,
      "v": 40
    },
    {
      "midi": 53,
      "hit": false,
      "t": 27096.720000000005,
      "d": 1935.4799999999996,
      "v": 40
    },
    {
      "midi": 50,
      "hit": false,
      "t": 27096.720000000005,
      "d": 1935.4799999999996,
      "v": 40
    },
    {
      "midi": 46,
      "hit": false,
      "t": 27096.720000000005,
      "d": 3870.959999999999,
      "v": 40
    },
    {
      "midi": 36,
      "hit": false,
      "t": 27096.72000000009,
      "d": 161.29000000000087,
      "v": 127
    },
    {
      "midi": 36,
      "hit": false,
      "t": 27338.65500000009,
      "d": 161.29000000000087,
      "v": 127
    },
    {
      "midi": 38,
      "hit": false,
      "t": 27580.59000000009,
      "d": 161.29000000000087,
      "v": 127
    },
    {
      "midi": 77,
      "hit": false,
      "t": 27822.525000000005,
      "d": 725.8050000000003,
      "v": 127
    },
    {
      "midi": 35,
      "hit": false,
      "t": 27822.525000000092,
      "d": 80.64500000000044,
      "v": 127
    },
    {
      "midi": 36,
      "hit": false,
      "t": 27943.49250000009,
      "d": 80.64500000000044,
      "v": 127
    },
    {
      "midi": 35,
      "hit": false,
      "t": 28185.427500000093,
      "d": 80.64500000000044,
      "v": 127
    },
    {
      "midi": 36,
      "hit": false,
      "t": 28306.39500000009,
      "d": 80.64500000000044,
      "v": 127
    },
    {
      "midi": 81,
      "hit": false,
      "t": 28548.330000000005,
      "d": 241.9350000000013,
      "v": 127
    },
    {
      "midi": 38,
      "hit": false,
      "t": 28548.330000000093,
      "d": 80.64500000000044,
      "v": 127
    },
    {
      "midi": 79,
      "hit": false,
      "t": 28790.265000000007,
      "d": 483.869999999999,
      "v": 127
    },
    {
      "midi": 36,
      "hit": false,
      "t": 28790.265000000094,
      "d": 80.64500000000044,
      "v": 127
    },
    {
      "midi": 34,
      "hit": false,
      "t": 29032.199999999997,
      "d": 1935.4799999999996,
      "v": 100
    },
    {
      "midi": 34,
      "hit": false,
      "t": 29032.199999999997,
      "d": 1935.4799999999996,
      "v": 100
    },
    {
      "midi": 34,
      "hit": false,
      "t": 29032.199999999997,
      "d": 1935.4799999999996,
      "v": 84
    },
    {
      "midi": 36,
      "hit": false,
      "t": 29032.200000000095,
      "d": 161.29000000000087,
      "v": 127
    },
    {
      "midi": 60,
      "hit": false,
      "t": 29274.135000000006,
      "d": 483.869999999999,
      "v": 46
    },
    {
      "midi": 58,
      "hit": false,
      "t": 29274.135000000006,
      "d": 483.869999999999,
      "v": 46
    },
    {
      "midi": 53,
      "hit": false,
      "t": 29274.135000000006,
      "d": 483.869999999999,
      "v": 46
    },
    {
      "midi": 50,
      "hit": false,
      "t": 29274.135000000006,
      "d": 483.869999999999,
      "v": 46
    },
    {
      "midi": 81,
      "hit": false,
      "t": 29274.135000000006,
      "d": 1693.545000000002,
      "v": 127
    },
    {
      "midi": 60,
      "hit": false,
      "t": 29274.135000000006,
      "d": 483.869999999999,
      "v": 40
    },
    {
      "midi": 58,
      "hit": false,
      "t": 29274.135000000006,
      "d": 483.869999999999,
      "v": 40
    },
    {
      "midi": 53,
      "hit": false,
      "t": 29274.135000000006,
      "d": 483.869999999999,
      "v": 40
    },
    {
      "midi": 50,
      "hit": false,
      "t": 29274.135000000006,
      "d": 483.869999999999,
      "v": 40
    },
    {
      "midi": 36,
      "hit": false,
      "t": 29274.135000000097,
      "d": 161.29000000000087,
      "v": 127
    },
    {
      "midi": 38,
      "hit": false,
      "t": 29516.070000000098,
      "d": 161.29000000000087,
      "v": 127
    },
    {
      "midi": 60,
      "hit": false,
      "t": 29758.005000000005,
      "d": 483.869999999999,
      "v": 46
    },
    {
      "midi": 58,
      "hit": false,
      "t": 29758.005000000005,
      "d": 483.869999999999,
      "v": 46
    },
    {
      "midi": 53,
      "hit": false,
      "t": 29758.005000000005,
      "d": 483.869999999999,
      "v": 46
    },
    {
      "midi": 50,
      "hit": false,
      "t": 29758.005000000005,
      "d": 483.869999999999,
      "v": 46
    },
    {
      "midi": 60,
      "hit": false,
      "t": 29758.005000000005,
      "d": 483.869999999999,
      "v": 40
    },
    {
      "midi": 58,
      "hit": false,
      "t": 29758.005000000005,
      "d": 483.869999999999,
      "v": 40
    },
    {
      "midi": 53,
      "hit": false,
      "t": 29758.005000000005,
      "d": 483.869999999999,
      "v": 40
    },
    {
      "midi": 50,
      "hit": false,
      "t": 29758.005000000005,
      "d": 483.869999999999,
      "v": 40
    },
    {
      "midi": 35,
      "hit": false,
      "t": 29758.0050000001,
      "d": 80.64500000000044,
      "v": 127
    },
    {
      "midi": 36,
      "hit": false,
      "t": 29878.972500000098,
      "d": 80.64500000000044,
      "v": 127
    },
    {
      "midi": 35,
      "hit": false,
      "t": 30120.9075000001,
      "d": 80.64500000000044,
      "v": 127
    },
    {
      "midi": 62,
      "hit": false,
      "t": 30241.875000000004,
      "d": 473.7893750000003,
      "v": 46
    },
    {
      "midi": 58,
      "hit": false,
      "t": 30241.875000000004,
      "d": 483.869999999999,
      "v": 46
    },
    {
      "midi": 53,
      "hit": false,
      "t": 30241.875000000004,
      "d": 483.869999999999,
      "v": 46
    },
    {
      "midi": 50,
      "hit": false,
      "t": 30241.875000000004,
      "d": 483.869999999999,
      "v": 46
    },
    {
      "midi": 62,
      "hit": false,
      "t": 30241.875000000004,
      "d": 473.7893750000003,
      "v": 40
    },
    {
      "midi": 58,
      "hit": false,
      "t": 30241.875000000004,
      "d": 483.869999999999,
      "v": 40
    },
    {
      "midi": 53,
      "hit": false,
      "t": 30241.875000000004,
      "d": 483.869999999999,
      "v": 40
    },
    {
      "midi": 50,
      "hit": false,
      "t": 30241.875000000004,
      "d": 483.869999999999,
      "v": 40
    },
    {
      "midi": 36,
      "hit": false,
      "t": 30241.8750000001,
      "d": 80.64500000000044,
      "v": 127
    },
    {
      "midi": 38,
      "hit": false,
      "t": 30483.8100000001,
      "d": 80.64500000000044,
      "v": 127
    },
    {
      "midi": 40,
      "hit": false,
      "t": 30483.8100000001,
      "d": 80.64500000000044,
      "v": 127
    },
    {
      "midi": 40,
      "hit": false,
      "t": 30604.7775000001,
      "d": 80.64500000000044,
      "v": 127
    },
    {
      "midi": 36,
      "hit": false,
      "t": 30725.745000000097,
      "d": 80.64500000000044,
      "v": 127
    },
    {
      "midi": 40,
      "hit": false,
      "t": 30725.745000000097,
      "d": 80.64500000000044,
      "v": 127
    },
    {
      "midi": 40,
      "hit": false,
      "t": 30846.712500000096,
      "d": 80.64500000000044,
      "v": 127
    },
    {
      "midi": 31,
      "hit": false,
      "t": 30967.679999999997,
      "d": 1935.4799999999996,
      "v": 100
    },
    {
      "midi": 50,
      "hit": false,
      "t": 30967.679999999997,
      "d": 1935.4799999999996,
      "v": 54
    },
    {
      "midi": 31,
      "hit": false,
      "t": 30967.679999999997,
      "d": 1935.4799999999996,
      "v": 100
    },
    {
      "midi": 31,
      "hit": false,
      "t": 30967.679999999997,
      "d": 1935.4799999999996,
      "v": 84
    },
    {
      "midi": 55,
      "hit": false,
      "t": 30967.680000000004,
      "d": 967.7400000000016,
      "v": 46
    },
    {
      "midi": 58,
      "hit": false,
      "t": 30967.680000000004,
      "d": 967.7400000000016,
      "v": 46
    },
    {
      "midi": 50,
      "hit": false,
      "t": 30967.680000000004,
      "d": 967.7400000000016,
      "v": 46
    },
    {
      "midi": 55,
      "hit": false,
      "t": 30967.680000000004,
      "d": 967.7400000000016,
      "v": 40
    },
    {
      "midi": 58,
      "hit": false,
      "t": 30967.680000000004,
      "d": 967.7400000000016,
      "v": 40
    },
    {
      "midi": 50,
      "hit": false,
      "t": 30967.680000000004,
      "d": 967.7400000000016,
      "v": 40
    },
    {
      "midi": 36,
      "hit": false,
      "t": 30967.680000000095,
      "d": 161.29000000000087,
      "v": 127
    },
    {
      "midi": 36,
      "hit": false,
      "t": 31209.615000000096,
      "d": 161.29000000000087,
      "v": 127
    },
    {
      "midi": 38,
      "hit": false,
      "t": 31451.550000000097,
      "d": 161.29000000000087,
      "v": 127
    },
    {
      "midi": 35,
      "hit": false,
      "t": 31693.4850000001,
      "d": 80.64500000000044,
      "v": 127
    },
    {
      "midi": 36,
      "hit": false,
      "t": 31814.452500000098,
      "d": 80.64500000000044,
      "v": 127
    },
    {
      "midi": 82,
      "hit": false,
      "t": 31935.42000000001,
      "d": 241.9350000000013,
      "v": 127
    },
    {
      "midi": 35,
      "hit": false,
      "t": 32056.3875000001,
      "d": 80.64500000000044,
      "v": 127
    },
    {
      "midi": 58,
      "hit": false,
      "t": 32177.355000000007,
      "d": 483.869999999999,
      "v": 46
    },
    {
      "midi": 55,
      "hit": false,
      "t": 32177.355000000007,
      "d": 483.869999999999,
      "v": 46
    },
    {
      "midi": 50,
      "hit": false,
      "t": 32177.355000000007,
      "d": 483.869999999999,
      "v": 46
    },
    {
      "midi": 58,
      "hit": false,
      "t": 32177.355000000007,
      "d": 483.869999999999,
      "v": 40
    },
    {
      "midi": 55,
      "hit": false,
      "t": 32177.355000000007,
      "d": 483.869999999999,
      "v": 40
    },
    {
      "midi": 50,
      "hit": false,
      "t": 32177.355000000007,
      "d": 483.869999999999,
      "v": 40
    },
    {
      "midi": 82,
      "hit": false,
      "t": 32177.35500000001,
      "d": 483.869999999999,
      "v": 127
    },
    {
      "midi": 36,
      "hit": false,
      "t": 32177.355000000098,
      "d": 80.64500000000044,
      "v": 127
    },
    {
      "midi": 38,
      "hit": false,
      "t": 32419.2900000001,
      "d": 80.64500000000044,
      "v": 127
    },
    {
      "midi": 81,
      "hit": false,
      "t": 32661.22500000001,
      "d": 483.869999999999,
      "v": 127
    },
    {
      "midi": 36,
      "hit": false,
      "t": 32661.2250000001,
      "d": 80.64500000000044,
      "v": 127
    },
    {
      "midi": 31,
      "hit": false,
      "t": 32903.159999999996,
      "d": 1935.4800000000032,
      "v": 100
    },
    {
      "midi": 48,
      "hit": false,
      "t": 32903.159999999996,
      "d": 1935.4800000000032,
      "v": 54
    },
    {
      "midi": 31,
      "hit": false,
      "t": 32903.159999999996,
      "d": 1935.4800000000032,
      "v": 100
    },
    {
      "midi": 31,
      "hit": false,
      "t": 32903.159999999996,
      "d": 1935.4800000000032,
      "v": 84
    },
    {
      "midi": 55,
      "hit": false,
      "t": 32903.16,
      "d": 725.8050000000003,
      "v": 46
    },
    {
      "midi": 52,
      "hit": false,
      "t": 32903.16,
      "d": 725.8050000000003,
      "v": 46
    },
    {
      "midi": 48,
      "hit": false,
      "t": 32903.16,
      "d": 725.8050000000003,
      "v": 46
    },
    {
      "midi": 55,
      "hit": false,
      "t": 32903.16,
      "d": 725.8050000000003,
      "v": 40
    },
    {
      "midi": 52,
      "hit": false,
      "t": 32903.16,
      "d": 725.8050000000003,
      "v": 40
    },
    {
      "midi": 48,
      "hit": false,
      "t": 32903.16,
      "d": 725.8050000000003,
      "v": 40
    },
    {
      "midi": 36,
      "hit": false,
      "t": 32903.1600000001,
      "d": 161.29000000000087,
      "v": 127
    },
    {
      "midi": 79,
      "hit": false,
      "t": 33145.09500000001,
      "d": 483.8700000000026,
      "v": 127
    },
    {
      "midi": 36,
      "hit": false,
      "t": 33145.095000000096,
      "d": 161.29000000000087,
      "v": 127
    },
    {
      "midi": 38,
      "hit": false,
      "t": 33387.03000000009,
      "d": 161.29000000000087,
      "v": 127
    },
    {
      "midi": 52,
      "hit": false,
      "t": 33628.965000000004,
      "d": 241.93499999999767,
      "v": 46
    },
    {
      "midi": 55,
      "hit": false,
      "t": 33628.965000000004,
      "d": 241.93499999999767,
      "v": 46
    },
    {
      "midi": 48,
      "hit": false,
      "t": 33628.965000000004,
      "d": 241.93499999999767,
      "v": 46
    },
    {
      "midi": 52,
      "hit": false,
      "t": 33628.965000000004,
      "d": 241.93499999999767,
      "v": 40
    },
    {
      "midi": 55,
      "hit": false,
      "t": 33628.965000000004,
      "d": 241.93499999999767,
      "v": 40
    },
    {
      "midi": 48,
      "hit": false,
      "t": 33628.965000000004,
      "d": 241.93499999999767,
      "v": 40
    },
    {
      "midi": 77,
      "hit": false,
      "t": 33628.96500000001,
      "d": 483.8700000000026,
      "v": 127
    },
    {
      "midi": 35,
      "hit": false,
      "t": 33628.96500000009,
      "d": 80.6449999999968,
      "v": 127
    },
    {
      "midi": 36,
      "hit": false,
      "t": 33749.93250000009,
      "d": 80.6449999999968,
      "v": 127
    },
    {
      "midi": 35,
      "hit": false,
      "t": 33991.86750000009,
      "d": 80.6449999999968,
      "v": 127
    },
    {
      "midi": 52,
      "hit": false,
      "t": 34112.835,
      "d": 241.93499999999767,
      "v": 46
    },
    {
      "midi": 55,
      "hit": false,
      "t": 34112.835,
      "d": 241.93499999999767,
      "v": 46
    },
    {
      "midi": 48,
      "hit": false,
      "t": 34112.835,
      "d": 241.93499999999767,
      "v": 46
    },
    {
      "midi": 52,
      "hit": false,
      "t": 34112.835,
      "d": 241.93499999999767,
      "v": 40
    },
    {
      "midi": 55,
      "hit": false,
      "t": 34112.835,
      "d": 241.93499999999767,
      "v": 40
    },
    {
      "midi": 48,
      "hit": false,
      "t": 34112.835,
      "d": 241.93499999999767,
      "v": 40
    },
    {
      "midi": 79,
      "hit": false,
      "t": 34112.835000000014,
      "d": 483.8700000000026,
      "v": 127
    },
    {
      "midi": 36,
      "hit": false,
      "t": 34112.83500000009,
      "d": 80.6449999999968,
      "v": 127
    },
    {
      "midi": 38,
      "hit": false,
      "t": 34354.770000000084,
      "d": 80.6449999999968,
      "v": 127
    },
    {
      "midi": 81,
      "hit": false,
      "t": 34596.705000000016,
      "d": 967.739999999998,
      "v": 127
    },
    {
      "midi": 36,
      "hit": false,
      "t": 34596.70500000008,
      "d": 80.6449999999968,
      "v": 127
    },
    {
      "midi": 41,
      "hit": false,
      "t": 34838.64,
      "d": 1935.4800000000032,
      "v": 100
    },
    {
      "midi": 53,
      "hit": false,
      "t": 34838.64,
      "d": 1935.4800000000032,
      "v": 54
    },
    {
      "midi": 57,
      "hit": false,
      "t": 34838.64,
      "d": 1451.6099999999933,
      "v": 46
    },
    {
      "midi": 60,
      "hit": false,
      "t": 34838.64,
      "d": 1451.6099999999933,
      "v": 46
    },
    {
      "midi": 65,
      "hit": false,
      "t": 34838.64,
      "d": 1935.479999999996,
      "v": 46
    },
    {
      "midi": 41,
      "hit": false,
      "t": 34838.64,
      "d": 1935.4800000000032,
      "v": 100
    },
    {
      "midi": 57,
      "hit": false,
      "t": 34838.64,
      "d": 1451.6099999999933,
      "v": 40
    },
    {
      "midi": 60,
      "hit": false,
      "t": 34838.64,
      "d": 1451.6099999999933,
      "v": 40
    },
    {
      "midi": 65,
      "hit": false,
      "t": 34838.64,
      "d": 1935.479999999996,
      "v": 40
    },
    {
      "midi": 41,
      "hit": false,
      "t": 34838.64,
      "d": 1935.4800000000032,
      "v": 84
    },
    {
      "midi": 36,
      "hit": false,
      "t": 34838.64000000008,
      "d": 161.29000000000087,
      "v": 127
    },
    {
      "midi": 36,
      "hit": false,
      "t": 35080.57500000008,
      "d": 161.29000000000087,
      "v": 127
    },
    {
      "midi": 38,
      "hit": false,
      "t": 35322.510000000075,
      "d": 161.29000000000087,
      "v": 127
    },
    {
      "midi": 35,
      "hit": false,
      "t": 35564.44500000007,
      "d": 80.6449999999968,
      "v": 127
    },
    {
      "midi": 36,
      "hit": false,
      "t": 35685.41250000007,
      "d": 80.6449999999968,
      "v": 127
    },
    {
      "midi": 48,
      "hit": false,
      "t": 35806.38,
      "d": 241.93499999999767,
      "v": 17
    },
    {
      "midi": 48,
      "hit": false,
      "t": 35806.38,
      "d": 241.93499999999767,
      "v": 14
    },
    {
      "midi": 35,
      "hit": false,
      "t": 35927.34750000007,
      "d": 80.6449999999968,
      "v": 127
    },
    {
      "midi": 53,
      "hit": false,
      "t": 36048.314999999995,
      "d": 241.93499999999767,
      "v": 16
    },
    {
      "midi": 53,
      "hit": false,
      "t": 36048.314999999995,
      "d": 241.93499999999767,
      "v": 14
    },
    {
      "midi": 79,
      "hit": false,
      "t": 36048.31500000002,
      "d": 241.93499999999767,
      "v": 127
    },
    {
      "midi": 36,
      "hit": false,
      "t": 36048.31500000007,
      "d": 80.6449999999968,
      "v": 127
    },
    {
      "midi": 60,
      "hit": false,
      "t": 36290.24999999999,
      "d": 483.8700000000026,
      "v": 46
    },
    {
      "midi": 57,
      "hit": false,
      "t": 36290.24999999999,
      "d": 483.8700000000026,
      "v": 46
    },
    {
      "midi": 60,
      "hit": false,
      "t": 36290.24999999999,
      "d": 483.8700000000026,
      "v": 40
    },
    {
      "midi": 57,
      "hit": false,
      "t": 36290.24999999999,
      "d": 483.8700000000026,
      "v": 40
    },
    {
      "midi": 77,
      "hit": false,
      "t": 36290.250000000015,
      "d": 241.93499999999767,
      "v": 127
    },
    {
      "midi": 38,
      "hit": false,
      "t": 36290.250000000065,
      "d": 80.6449999999968,
      "v": 127
    },
    {
      "midi": 81,
      "hit": false,
      "t": 36532.18500000001,
      "d": 2177.415000000001,
      "v": 127
    },
    {
      "midi": 36,
      "hit": false,
      "t": 36532.18500000006,
      "d": 80.6449999999968,
      "v": 127
    },
    {
      "midi": 61,
      "hit": false,
      "t": 36774.119999999995,
      "d": 483.8700000000026,
      "v": 46
    },
    {
      "midi": 57,
      "hit": false,
      "t": 36774.119999999995,
      "d": 483.8700000000026,
      "v": 46
    },
    {
      "midi": 64,
      "hit": false,
      "t": 36774.119999999995,
      "d": 483.8700000000026,
      "v": 46
    },
    {
      "midi": 61,
      "hit": false,
      "t": 36774.119999999995,
      "d": 483.8700000000026,
      "v": 40
    },
    {
      "midi": 57,
      "hit": false,
      "t": 36774.119999999995,
      "d": 483.8700000000026,
      "v": 40
    },
    {
      "midi": 64,
      "hit": false,
      "t": 36774.119999999995,
      "d": 483.8700000000026,
      "v": 40
    },
    {
      "midi": 45,
      "hit": false,
      "t": 36774.12,
      "d": 1935.4800000000032,
      "v": 100
    },
    {
      "midi": 52,
      "hit": false,
      "t": 36774.12,
      "d": 1935.4800000000032,
      "v": 54
    },
    {
      "midi": 45,
      "hit": false,
      "t": 36774.12,
      "d": 1935.4800000000032,
      "v": 100
    },
    {
      "midi": 45,
      "hit": false,
      "t": 36774.12,
      "d": 1935.4800000000032,
      "v": 84
    },
    {
      "midi": 36,
      "hit": false,
      "t": 36774.12000000006,
      "d": 161.29000000000087,
      "v": 127
    },
    {
      "midi": 36,
      "hit": false,
      "t": 37016.05500000006,
      "d": 161.29000000000087,
      "v": 127
    },
    {
      "midi": 38,
      "hit": false,
      "t": 37257.990000000056,
      "d": 161.29000000000087,
      "v": 127
    },
    {
      "midi": 64,
      "hit": false,
      "t": 37499.924999999996,
      "d": 241.93499999999767,
      "v": 46
    },
    {
      "midi": 61,
      "hit": false,
      "t": 37499.924999999996,
      "d": 241.93499999999767,
      "v": 46
    },
    {
      "midi": 57,
      "hit": false,
      "t": 37499.924999999996,
      "d": 241.93499999999767,
      "v": 46
    },
    {
      "midi": 64,
      "hit": false,
      "t": 37499.924999999996,
      "d": 241.93499999999767,
      "v": 40
    },
    {
      "midi": 61,
      "hit": false,
      "t": 37499.924999999996,
      "d": 241.93499999999767,
      "v": 40
    },
    {
      "midi": 57,
      "hit": false,
      "t": 37499.924999999996,
      "d": 241.93499999999767,
      "v": 40
    },
    {
      "midi": 35,
      "hit": false,
      "t": 37499.925000000054,
      "d": 80.6449999999968,
      "v": 127
    },
    {
      "midi": 40,
      "hit": false,
      "t": 37499.925000000054,
      "d": 80.6449999999968,
      "v": 127
    },
    {
      "midi": 36,
      "hit": false,
      "t": 37620.89250000005,
      "d": 80.6449999999968,
      "v": 127
    },
    {
      "midi": 35,
      "hit": false,
      "t": 37862.82750000005,
      "d": 80.6449999999968,
      "v": 127
    },
    {
      "midi": 64,
      "hit": false,
      "t": 37983.79499999999,
      "d": 241.93499999999767,
      "v": 46
    },
    {
      "midi": 61,
      "hit": false,
      "t": 37983.79499999999,
      "d": 241.93499999999767,
      "v": 46
    },
    {
      "midi": 57,
      "hit": false,
      "t": 37983.79499999999,
      "d": 241.93499999999767,
      "v": 46
    },
    {
      "midi": 64,
      "hit": false,
      "t": 37983.79499999999,
      "d": 241.93499999999767,
      "v": 40
    },
    {
      "midi": 61,
      "hit": false,
      "t": 37983.79499999999,
      "d": 241.93499999999767,
      "v": 40
    },
    {
      "midi": 57,
      "hit": false,
      "t": 37983.79499999999,
      "d": 241.93499999999767,
      "v": 40
    },
    {
      "midi": 36,
      "hit": false,
      "t": 37983.79500000005,
      "d": 80.6449999999968,
      "v": 127
    },
    {
      "midi": 40,
      "hit": false,
      "t": 37983.79500000005,
      "d": 80.6449999999968,
      "v": 127
    },
    {
      "midi": 38,
      "hit": false,
      "t": 38225.73000000005,
      "d": 80.6449999999968,
      "v": 127
    },
    {
      "midi": 36,
      "hit": false,
      "t": 38467.665000000045,
      "d": 80.6449999999968,
      "v": 127
    },
    {
      "midi": 47,
      "hit": false,
      "t": 38467.665000000045,
      "d": 80.6449999999968,
      "v": 127
    },
    {
      "midi": 45,
      "hit": false,
      "t": 38588.63250000004,
      "d": 80.6449999999968,
      "v": 127
    },
    {
      "midi": 62,
      "hit": false,
      "t": 38709.59999999999,
      "d": 967.739999999998,
      "v": 46
    },
    {
      "midi": 57,
      "hit": false,
      "t": 38709.59999999999,
      "d": 967.739999999998,
      "v": 46
    },
    {
      "midi": 53,
      "hit": false,
      "t": 38709.59999999999,
      "d": 967.739999999998,
      "v": 46
    },
    {
      "midi": 65,
      "hit": false,
      "t": 38709.59999999999,
      "d": 967.739999999998,
      "v": 46
    },
    {
      "midi": 62,
      "hit": false,
      "t": 38709.59999999999,
      "d": 967.739999999998,
      "v": 40
    },
    {
      "midi": 57,
      "hit": false,
      "t": 38709.59999999999,
      "d": 967.739999999998,
      "v": 40
    },
    {
      "midi": 53,
      "hit": false,
      "t": 38709.59999999999,
      "d": 967.739999999998,
      "v": 40
    },
    {
      "midi": 65,
      "hit": false,
      "t": 38709.59999999999,
      "d": 967.739999999998,
      "v": 40
    },
    {
      "midi": 77,
      "hit": false,
      "t": 38709.6,
      "d": 2903.220000000001,
      "v": 65
    },
    {
      "midi": 38,
      "hit": false,
      "t": 38709.600000000006,
      "d": 1935.4800000000032,
      "v": 100
    },
    {
      "midi": 69,
      "hit": false,
      "t": 38709.600000000006,
      "d": 1935.4800000000032,
      "v": 54
    },
    {
      "midi": 65,
      "hit": false,
      "t": 38709.600000000006,
      "d": 1935.4800000000032,
      "v": 54
    },
    {
      "midi": 38,
      "hit": false,
      "t": 38709.600000000006,
      "d": 1935.4800000000032,
      "v": 100
    },
    {
      "midi": 38,
      "hit": false,
      "t": 38709.600000000006,
      "d": 1935.4800000000032,
      "v": 84
    },
    {
      "midi": 81,
      "hit": false,
      "t": 38709.60000000001,
      "d": 725.8050000000003,
      "v": 127
    },
    {
      "midi": 77,
      "hit": false,
      "t": 38709.60000000001,
      "d": 725.8050000000003,
      "v": 127
    },
    {
      "midi": 43,
      "hit": false,
      "t": 38709.60000000004,
      "d": 80.6449999999968,
      "v": 127
    },
    {
      "midi": 36,
      "hit": false,
      "t": 38709.60000000004,
      "d": 161.2899999999936,
      "v": 127
    },
    {
      "midi": 36,
      "hit": false,
      "t": 38951.53500000003,
      "d": 161.29000000000087,
      "v": 127
    },
    {
      "midi": 38,
      "hit": false,
      "t": 39193.47000000003,
      "d": 161.29000000000087,
      "v": 127
    },
    {
      "midi": 79,
      "hit": false,
      "t": 39435.40500000001,
      "d": 483.8700000000026,
      "v": 127
    },
    {
      "midi": 76,
      "hit": false,
      "t": 39435.40500000001,
      "d": 483.8700000000026,
      "v": 127
    },
    {
      "midi": 35,
      "hit": false,
      "t": 39435.40500000003,
      "d": 80.6449999999968,
      "v": 127
    },
    {
      "midi": 36,
      "hit": false,
      "t": 39556.37250000003,
      "d": 80.6449999999968,
      "v": 127
    },
    {
      "midi": 35,
      "hit": false,
      "t": 39798.307500000024,
      "d": 80.6449999999968,
      "v": 127
    },
    {
      "midi": 77,
      "hit": false,
      "t": 39919.275000000016,
      "d": 725.8050000000003,
      "v": 127
    },
    {
      "midi": 74,
      "hit": false,
      "t": 39919.275000000016,
      "d": 725.8050000000003,
      "v": 127
    },
    {
      "midi": 36,
      "hit": false,
      "t": 39919.27500000002,
      "d": 80.6449999999968,
      "v": 127
    },
    {
      "midi": 65,
      "hit": false,
      "t": 40161.20999999999,
      "d": 483.8700000000026,
      "v": 46
    },
    {
      "midi": 53,
      "hit": false,
      "t": 40161.20999999999,
      "d": 483.8700000000026,
      "v": 46
    },
    {
      "midi": 62,
      "hit": false,
      "t": 40161.20999999999,
      "d": 483.8700000000026,
      "v": 46
    },
    {
      "midi": 57,
      "hit": false,
      "t": 40161.20999999999,
      "d": 483.8700000000026,
      "v": 46
    },
    {
      "midi": 65,
      "hit": false,
      "t": 40161.20999999999,
      "d": 483.8700000000026,
      "v": 40
    },
    {
      "midi": 53,
      "hit": false,
      "t": 40161.20999999999,
      "d": 483.8700000000026,
      "v": 40
    },
    {
      "midi": 62,
      "hit": false,
      "t": 40161.20999999999,
      "d": 483.8700000000026,
      "v": 40
    },
    {
      "midi": 57,
      "hit": false,
      "t": 40161.20999999999,
      "d": 483.8700000000026,
      "v": 40
    },
    {
      "midi": 38,
      "hit": false,
      "t": 40161.21000000002,
      "d": 80.6449999999968,
      "v": 127
    },
    {
      "midi": 36,
      "hit": false,
      "t": 40403.14500000002,
      "d": 80.6449999999968,
      "v": 127
    },
    {
      "midi": 62,
      "hit": false,
      "t": 40645.079999999994,
      "d": 241.93499999999767,
      "v": 46
    },
    {
      "midi": 58,
      "hit": false,
      "t": 40645.079999999994,
      "d": 241.93499999999767,
      "v": 46
    },
    {
      "midi": 50,
      "hit": false,
      "t": 40645.079999999994,
      "d": 241.93499999999767,
      "v": 46
    },
    {
      "midi": 53,
      "hit": false,
      "t": 40645.079999999994,
      "d": 241.93499999999767,
      "v": 46
    },
    {
      "midi": 62,
      "hit": false,
      "t": 40645.079999999994,
      "d": 241.93499999999767,
      "v": 40
    },
    {
      "midi": 58,
      "hit": false,
      "t": 40645.079999999994,
      "d": 241.93499999999767,
      "v": 40
    },
    {
      "midi": 50,
      "hit": false,
      "t": 40645.079999999994,
      "d": 241.93499999999767,
      "v": 40
    },
    {
      "midi": 53,
      "hit": false,
      "t": 40645.079999999994,
      "d": 241.93499999999767,
      "v": 40
    },
    {
      "midi": 74,
      "hit": false,
      "t": 40645.08,
      "d": 2903.219999999994,
      "v": 65
    },
    {
      "midi": 34,
      "hit": false,
      "t": 40645.08000000001,
      "d": 1935.4800000000032,
      "v": 100
    },
    {
      "midi": 70,
      "hit": false,
      "t": 40645.08000000001,
      "d": 1935.4800000000032,
      "v": 54
    },
    {
      "midi": 67,
      "hit": false,
      "t": 40645.08000000001,
      "d": 1935.4800000000032,
      "v": 54
    },
    {
      "midi": 34,
      "hit": false,
      "t": 40645.08000000001,
      "d": 1935.4800000000032,
      "v": 100
    },
    {
      "midi": 34,
      "hit": false,
      "t": 40645.08000000001,
      "d": 1935.4800000000032,
      "v": 84
    },
    {
      "midi": 36,
      "hit": false,
      "t": 40645.080000000016,
      "d": 161.29000000000087,
      "v": 127
    },
    {
      "midi": 74,
      "hit": false,
      "t": 40645.080000000016,
      "d": 967.739999999998,
      "v": 127
    },
    {
      "midi": 70,
      "hit": false,
      "t": 40645.080000000016,
      "d": 967.739999999998,
      "v": 127
    },
    {
      "midi": 36,
      "hit": false,
      "t": 40887.015000000014,
      "d": 161.29000000000087,
      "v": 127
    },
    {
      "midi": 38,
      "hit": false,
      "t": 41128.95000000001,
      "d": 161.29000000000087,
      "v": 127
    },
    {
      "midi": 62,
      "hit": false,
      "t": 41370.884999999995,
      "d": 241.93499999999767,
      "v": 46
    },
    {
      "midi": 58,
      "hit": false,
      "t": 41370.884999999995,
      "d": 241.93499999999767,
      "v": 46
    },
    {
      "midi": 50,
      "hit": false,
      "t": 41370.884999999995,
      "d": 241.93499999999767,
      "v": 46
    },
    {
      "midi": 53,
      "hit": false,
      "t": 41370.884999999995,
      "d": 241.93499999999767,
      "v": 46
    },
    {
      "midi": 62,
      "hit": false,
      "t": 41370.884999999995,
      "d": 241.93499999999767,
      "v": 40
    },
    {
      "midi": 58,
      "hit": false,
      "t": 41370.884999999995,
      "d": 241.93499999999767,
      "v": 40
    },
    {
      "midi": 50,
      "hit": false,
      "t": 41370.884999999995,
      "d": 241.93499999999767,
      "v": 40
    },
    {
      "midi": 53,
      "hit": false,
      "t": 41370.884999999995,
      "d": 241.93499999999767,
      "v": 40
    },
    {
      "midi": 35,
      "hit": false,
      "t": 41370.88500000001,
      "d": 80.6449999999968,
      "v": 127
    },
    {
      "midi": 36,
      "hit": false,
      "t": 41491.85250000001,
      "d": 80.6449999999968,
      "v": 127
    },
    {
      "midi": 74,
      "hit": false,
      "t": 41612.820000000014,
      "d": 483.8700000000026,
      "v": 127
    },
    {
      "midi": 77,
      "hit": false,
      "t": 41612.820000000014,
      "d": 483.8700000000026,
      "v": 127
    },
    {
      "midi": 35,
      "hit": false,
      "t": 41733.787500000006,
      "d": 80.6449999999968,
      "v": 127
    },
    {
      "midi": 62,
      "hit": false,
      "t": 41854.75499999999,
      "d": 241.93499999999767,
      "v": 46
    },
    {
      "midi": 58,
      "hit": false,
      "t": 41854.75499999999,
      "d": 241.93499999999767,
      "v": 46
    },
    {
      "midi": 50,
      "hit": false,
      "t": 41854.75499999999,
      "d": 241.93499999999767,
      "v": 46
    },
    {
      "midi": 53,
      "hit": false,
      "t": 41854.75499999999,
      "d": 241.93499999999767,
      "v": 46
    },
    {
      "midi": 62,
      "hit": false,
      "t": 41854.75499999999,
      "d": 241.93499999999767,
      "v": 40
    },
    {
      "midi": 58,
      "hit": false,
      "t": 41854.75499999999,
      "d": 241.93499999999767,
      "v": 40
    },
    {
      "midi": 50,
      "hit": false,
      "t": 41854.75499999999,
      "d": 241.93499999999767,
      "v": 40
    },
    {
      "midi": 53,
      "hit": false,
      "t": 41854.75499999999,
      "d": 241.93499999999767,
      "v": 40
    },
    {
      "midi": 36,
      "hit": false,
      "t": 41854.755000000005,
      "d": 80.6449999999968,
      "v": 127
    },
    {
      "midi": 38,
      "hit": false,
      "t": 42096.69,
      "d": 80.6449999999968,
      "v": 127
    },
    {
      "midi": 79,
      "hit": false,
      "t": 42096.69000000002,
      "d": 483.8700000000026,
      "v": 127
    },
    {
      "midi": 76,
      "hit": false,
      "t": 42096.69000000002,
      "d": 483.8700000000026,
      "v": 127
    },
    {
      "midi": 36,
      "hit": false,
      "t": 42338.625,
      "d": 80.6449999999968,
      "v": 127
    },
    {
      "midi": 60,
      "hit": false,
      "t": 42580.55999999999,
      "d": 967.739999999998,
      "v": 46
    },
    {
      "midi": 48,
      "hit": false,
      "t": 42580.55999999999,
      "d": 1935.479999999996,
      "v": 46
    },
    {
      "midi": 57,
      "hit": false,
      "t": 42580.55999999999,
      "d": 1935.479999999996,
      "v": 46
    },
    {
      "midi": 53,
      "hit": false,
      "t": 42580.55999999999,
      "d": 1935.479999999996,
      "v": 46
    },
    {
      "midi": 60,
      "hit": false,
      "t": 42580.55999999999,
      "d": 967.739999999998,
      "v": 40
    },
    {
      "midi": 48,
      "hit": false,
      "t": 42580.55999999999,
      "d": 1935.479999999996,
      "v": 40
    },
    {
      "midi": 57,
      "hit": false,
      "t": 42580.55999999999,
      "d": 1935.479999999996,
      "v": 40
    },
    {
      "midi": 53,
      "hit": false,
      "t": 42580.55999999999,
      "d": 1935.479999999996,
      "v": 40
    },
    {
      "midi": 72,
      "hit": false,
      "t": 42580.56,
      "d": 2903.219999999994,
      "v": 65
    },
    {
      "midi": 36,
      "hit": false,
      "t": 42580.56,
      "d": 161.29000000000087,
      "v": 127
    },
    {
      "midi": 29,
      "hit": false,
      "t": 42580.56000000001,
      "d": 1935.4800000000032,
      "v": 100
    },
    {
      "midi": 72,
      "hit": false,
      "t": 42580.56000000001,
      "d": 1935.4800000000032,
      "v": 54
    },
    {
      "midi": 69,
      "hit": false,
      "t": 42580.56000000001,
      "d": 1935.4800000000032,
      "v": 54
    },
    {
      "midi": 29,
      "hit": false,
      "t": 42580.56000000001,
      "d": 1935.4800000000032,
      "v": 100
    },
    {
      "midi": 29,
      "hit": false,
      "t": 42580.56000000001,
      "d": 1935.4800000000032,
      "v": 84
    },
    {
      "midi": 77,
      "hit": false,
      "t": 42580.56000000002,
      "d": 967.739999999998,
      "v": 127
    },
    {
      "midi": 81,
      "hit": false,
      "t": 42580.56000000002,
      "d": 967.739999999998,
      "v": 127
    },
    {
      "midi": 36,
      "hit": false,
      "t": 42822.494999999995,
      "d": 161.29000000000087,
      "v": 127
    },
    {
      "midi": 38,
      "hit": false,
      "t": 43064.42999999999,
      "d": 161.29000000000087,
      "v": 127
    },
    {
      "midi": 64,
      "hit": false,
      "t": 43306.36499999999,
      "d": 241.93499999999767,
      "v": 46
    },
    {
      "midi": 35,
      "hit": false,
      "t": 43306.36499999999,
      "d": 80.6449999999968,
      "v": 127
    },
    {
      "midi": 64,
      "hit": false,
      "t": 43306.36499999999,
      "d": 241.93499999999767,
      "v": 40
    },
    {
      "midi": 36,
      "hit": false,
      "t": 43427.33249999999,
      "d": 80.6449999999968,
      "v": 127
    },
    {
      "midi": 82,
      "hit": false,
      "t": 43548.30000000002,
      "d": 483.8700000000026,
      "v": 127
    },
    {
      "midi": 79,
      "hit": false,
      "t": 43548.30000000002,
      "d": 483.8700000000026,
      "v": 127
    },
    {
      "midi": 35,
      "hit": false,
      "t": 43669.26749999999,
      "d": 80.6449999999968,
      "v": 127
    },
    {
      "midi": 65,
      "hit": false,
      "t": 43790.234999999986,
      "d": 241.93499999999767,
      "v": 46
    },
    {
      "midi": 60,
      "hit": false,
      "t": 43790.234999999986,
      "d": 241.93499999999767,
      "v": 46
    },
    {
      "midi": 36,
      "hit": false,
      "t": 43790.234999999986,
      "d": 80.6449999999968,
      "v": 127
    },
    {
      "midi": 65,
      "hit": false,
      "t": 43790.234999999986,
      "d": 241.93499999999767,
      "v": 40
    },
    {
      "midi": 60,
      "hit": false,
      "t": 43790.234999999986,
      "d": 241.93499999999767,
      "v": 40
    },
    {
      "midi": 38,
      "hit": false,
      "t": 44032.169999999984,
      "d": 80.6449999999968,
      "v": 127
    },
    {
      "midi": 81,
      "hit": false,
      "t": 44032.17000000002,
      "d": 483.8700000000026,
      "v": 127
    },
    {
      "midi": 77,
      "hit": false,
      "t": 44032.17000000002,
      "d": 483.8700000000026,
      "v": 127
    },
    {
      "midi": 36,
      "hit": false,
      "t": 44274.10499999998,
      "d": 80.6449999999968,
      "v": 127
    },
    {
      "midi": 36,
      "hit": false,
      "t": 44516.03999999998,
      "d": 161.29000000000087,
      "v": 127
    },
    {
      "midi": 64,
      "hit": false,
      "t": 44516.039999999986,
      "d": 967.739999999998,
      "v": 46
    },
    {
      "midi": 60,
      "hit": false,
      "t": 44516.039999999986,
      "d": 967.739999999998,
      "v": 46
    },
    {
      "midi": 48,
      "hit": false,
      "t": 44516.039999999986,
      "d": 967.739999999998,
      "v": 46
    },
    {
      "midi": 55,
      "hit": false,
      "t": 44516.039999999986,
      "d": 1935.4799999999886,
      "v": 46
    },
    {
      "midi": 64,
      "hit": false,
      "t": 44516.039999999986,
      "d": 967.739999999998,
      "v": 40
    },
    {
      "midi": 60,
      "hit": false,
      "t": 44516.039999999986,
      "d": 967.739999999998,
      "v": 40
    },
    {
      "midi": 48,
      "hit": false,
      "t": 44516.039999999986,
      "d": 967.739999999998,
      "v": 40
    },
    {
      "midi": 55,
      "hit": false,
      "t": 44516.039999999986,
      "d": 1935.4799999999886,
      "v": 40
    },
    {
      "midi": 76,
      "hit": false,
      "t": 44516.03999999999,
      "d": 2903.219999999994,
      "v": 65
    },
    {
      "midi": 36,
      "hit": false,
      "t": 44516.040000000015,
      "d": 1935.4800000000032,
      "v": 100
    },
    {
      "midi": 72,
      "hit": false,
      "t": 44516.040000000015,
      "d": 1935.4800000000032,
      "v": 54
    },
    {
      "midi": 67,
      "hit": false,
      "t": 44516.040000000015,
      "d": 1935.4800000000032,
      "v": 54
    },
    {
      "midi": 36,
      "hit": false,
      "t": 44516.040000000015,
      "d": 1935.4800000000032,
      "v": 100
    },
    {
      "midi": 36,
      "hit": false,
      "t": 44516.040000000015,
      "d": 1935.4800000000032,
      "v": 84
    },
    {
      "midi": 79,
      "hit": false,
      "t": 44516.04000000002,
      "d": 967.739999999998,
      "v": 127
    },
    {
      "midi": 76,
      "hit": false,
      "t": 44516.04000000002,
      "d": 967.739999999998,
      "v": 127
    },
    {
      "midi": 36,
      "hit": false,
      "t": 44757.97499999998,
      "d": 161.29000000000087,
      "v": 127
    },
    {
      "midi": 38,
      "hit": false,
      "t": 44999.909999999974,
      "d": 161.29000000000087,
      "v": 127
    },
    {
      "midi": 35,
      "hit": false,
      "t": 45241.84499999997,
      "d": 80.6449999999968,
      "v": 127
    },
    {
      "midi": 62,
      "hit": false,
      "t": 45241.84499999999,
      "d": 241.93499999999767,
      "v": 46
    },
    {
      "midi": 58,
      "hit": false,
      "t": 45241.84499999999,
      "d": 241.93499999999767,
      "v": 46
    },
    {
      "midi": 62,
      "hit": false,
      "t": 45241.84499999999,
      "d": 241.93499999999767,
      "v": 40
    },
    {
      "midi": 58,
      "hit": false,
      "t": 45241.84499999999,
      "d": 241.93499999999767,
      "v": 40
    },
    {
      "midi": 36,
      "hit": false,
      "t": 45362.81249999997,
      "d": 80.6449999999968,
      "v": 127
    },
    {
      "midi": 48,
      "hit": false,
      "t": 45483.779999999984,
      "d": 241.93499999999767,
      "v": 20
    },
    {
      "midi": 48,
      "hit": false,
      "t": 45483.779999999984,
      "d": 241.93499999999767,
      "v": 17
    },
    {
      "midi": 77,
      "hit": false,
      "t": 45483.78000000002,
      "d": 483.8700000000026,
      "v": 127
    },
    {
      "midi": 74,
      "hit": false,
      "t": 45483.78000000002,
      "d": 483.8700000000026,
      "v": 127
    },
    {
      "midi": 35,
      "hit": false,
      "t": 45604.74749999997,
      "d": 80.6449999999968,
      "v": 127
    },
    {
      "midi": 36,
      "hit": false,
      "t": 45725.71499999997,
      "d": 80.6449999999968,
      "v": 127
    },
    {
      "midi": 64,
      "hit": false,
      "t": 45725.71499999998,
      "d": 241.93499999999767,
      "v": 46
    },
    {
      "midi": 60,
      "hit": false,
      "t": 45725.71499999998,
      "d": 241.93499999999767,
      "v": 46
    },
    {
      "midi": 64,
      "hit": false,
      "t": 45725.71499999998,
      "d": 241.93499999999767,
      "v": 40
    },
    {
      "midi": 60,
      "hit": false,
      "t": 45725.71499999998,
      "d": 241.93499999999767,
      "v": 40
    },
    {
      "midi": 38,
      "hit": false,
      "t": 45967.649999999965,
      "d": 80.6449999999968,
      "v": 127
    },
    {
      "midi": 48,
      "hit": false,
      "t": 45967.64999999998,
      "d": 241.93499999999767,
      "v": 18
    },
    {
      "midi": 48,
      "hit": false,
      "t": 45967.64999999998,
      "d": 241.93499999999767,
      "v": 16
    },
    {
      "midi": 79,
      "hit": false,
      "t": 45967.65000000002,
      "d": 483.8700000000026,
      "v": 127
    },
    {
      "midi": 76,
      "hit": false,
      "t": 45967.65000000002,
      "d": 483.8700000000026,
      "v": 127
    },
    {
      "midi": 36,
      "hit": false,
      "t": 46209.58499999996,
      "d": 80.6449999999968,
      "v": 127
    },
    {
      "midi": 36,
      "hit": false,
      "t": 46451.51999999996,
      "d": 161.29000000000087,
      "v": 127
    },
    {
      "midi": 62,
      "hit": false,
      "t": 46451.519999999975,
      "d": 967.739999999998,
      "v": 46
    },
    {
      "midi": 57,
      "hit": false,
      "t": 46451.519999999975,
      "d": 967.739999999998,
      "v": 46
    },
    {
      "midi": 53,
      "hit": false,
      "t": 46451.519999999975,
      "d": 967.739999999998,
      "v": 46
    },
    {
      "midi": 65,
      "hit": false,
      "t": 46451.519999999975,
      "d": 967.739999999998,
      "v": 46
    },
    {
      "midi": 62,
      "hit": false,
      "t": 46451.519999999975,
      "d": 967.739999999998,
      "v": 40
    },
    {
      "midi": 57,
      "hit": false,
      "t": 46451.519999999975,
      "d": 967.739999999998,
      "v": 40
    },
    {
      "midi": 53,
      "hit": false,
      "t": 46451.519999999975,
      "d": 967.739999999998,
      "v": 40
    },
    {
      "midi": 65,
      "hit": false,
      "t": 46451.519999999975,
      "d": 967.739999999998,
      "v": 40
    },
    {
      "midi": 77,
      "hit": false,
      "t": 46451.51999999999,
      "d": 2903.219999999994,
      "v": 65
    },
    {
      "midi": 38,
      "hit": false,
      "t": 46451.52000000002,
      "d": 1935.4800000000032,
      "v": 100
    },
    {
      "midi": 69,
      "hit": false,
      "t": 46451.52000000002,
      "d": 1935.4800000000032,
      "v": 54
    },
    {
      "midi": 65,
      "hit": false,
      "t": 46451.52000000002,
      "d": 1935.4800000000032,
      "v": 54
    },
    {
      "midi": 38,
      "hit": false,
      "t": 46451.52000000002,
      "d": 1935.4800000000032,
      "v": 100
    },
    {
      "midi": 38,
      "hit": false,
      "t": 46451.52000000002,
      "d": 1935.4800000000032,
      "v": 84
    },
    {
      "midi": 81,
      "hit": false,
      "t": 46451.520000000026,
      "d": 725.8050000000003,
      "v": 127
    },
    {
      "midi": 77,
      "hit": false,
      "t": 46451.520000000026,
      "d": 725.8050000000003,
      "v": 127
    },
    {
      "midi": 36,
      "hit": false,
      "t": 46693.45499999996,
      "d": 161.29000000000087,
      "v": 127
    },
    {
      "midi": 38,
      "hit": false,
      "t": 46935.389999999956,
      "d": 161.29000000000087,
      "v": 127
    },
    {
      "midi": 35,
      "hit": false,
      "t": 47177.32499999995,
      "d": 80.6449999999968,
      "v": 127
    },
    {
      "midi": 79,
      "hit": false,
      "t": 47177.325000000026,
      "d": 483.8700000000026,
      "v": 127
    },
    {
      "midi": 76,
      "hit": false,
      "t": 47177.325000000026,
      "d": 483.8700000000026,
      "v": 127
    },
    {
      "midi": 36,
      "hit": false,
      "t": 47298.29249999995,
      "d": 80.6449999999968,
      "v": 127
    },
    {
      "midi": 35,
      "hit": false,
      "t": 47540.22749999995,
      "d": 80.6449999999968,
      "v": 127
    },
    {
      "midi": 36,
      "hit": false,
      "t": 47661.19499999995,
      "d": 80.6449999999968,
      "v": 127
    },
    {
      "midi": 77,
      "hit": false,
      "t": 47661.19500000003,
      "d": 725.8050000000003,
      "v": 127
    },
    {
      "midi": 74,
      "hit": false,
      "t": 47661.19500000003,
      "d": 725.8050000000003,
      "v": 127
    },
    {
      "midi": 38,
      "hit": false,
      "t": 47903.12999999995,
      "d": 80.6449999999968,
      "v": 127
    },
    {
      "midi": 65,
      "hit": false,
      "t": 47903.129999999976,
      "d": 483.8700000000026,
      "v": 46
    },
    {
      "midi": 53,
      "hit": false,
      "t": 47903.129999999976,
      "d": 483.8700000000026,
      "v": 46
    },
    {
      "midi": 62,
      "hit": false,
      "t": 47903.129999999976,
      "d": 483.8700000000026,
      "v": 46
    },
    {
      "midi": 57,
      "hit": false,
      "t": 47903.129999999976,
      "d": 483.8700000000026,
      "v": 46
    },
    {
      "midi": 65,
      "hit": false,
      "t": 47903.129999999976,
      "d": 483.8700000000026,
      "v": 40
    },
    {
      "midi": 53,
      "hit": false,
      "t": 47903.129999999976,
      "d": 483.8700000000026,
      "v": 40
    },
    {
      "midi": 62,
      "hit": false,
      "t": 47903.129999999976,
      "d": 483.8700000000026,
      "v": 40
    },
    {
      "midi": 57,
      "hit": false,
      "t": 47903.129999999976,
      "d": 483.8700000000026,
      "v": 40
    },
    {
      "midi": 36,
      "hit": false,
      "t": 48145.064999999944,
      "d": 80.6449999999968,
      "v": 127
    },
    {
      "midi": 36,
      "hit": false,
      "t": 48386.99999999994,
      "d": 161.29000000000087,
      "v": 127
    },
    {
      "midi": 62,
      "hit": false,
      "t": 48386.99999999998,
      "d": 241.93499999999767,
      "v": 46
    },
    {
      "midi": 58,
      "hit": false,
      "t": 48386.99999999998,
      "d": 241.93499999999767,
      "v": 46
    },
    {
      "midi": 50,
      "hit": false,
      "t": 48386.99999999998,
      "d": 241.93499999999767,
      "v": 46
    },
    {
      "midi": 53,
      "hit": false,
      "t": 48386.99999999998,
      "d": 241.93499999999767,
      "v": 46
    },
    {
      "midi": 62,
      "hit": false,
      "t": 48386.99999999998,
      "d": 241.93499999999767,
      "v": 40
    },
    {
      "midi": 58,
      "hit": false,
      "t": 48386.99999999998,
      "d": 241.93499999999767,
      "v": 40
    },
    {
      "midi": 50,
      "hit": false,
      "t": 48386.99999999998,
      "d": 241.93499999999767,
      "v": 40
    },
    {
      "midi": 53,
      "hit": false,
      "t": 48386.99999999998,
      "d": 241.93499999999767,
      "v": 40
    },
    {
      "midi": 74,
      "hit": false,
      "t": 48386.999999999985,
      "d": 2903.219999999994,
      "v": 65
    },
    {
      "midi": 34,
      "hit": false,
      "t": 48387.00000000002,
      "d": 1935.4800000000032,
      "v": 100
    },
    {
      "midi": 70,
      "hit": false,
      "t": 48387.00000000002,
      "d": 1935.4800000000032,
      "v": 54
    },
    {
      "midi": 67,
      "hit": false,
      "t": 48387.00000000002,
      "d": 1935.4800000000032,
      "v": 54
    },
    {
      "midi": 34,
      "hit": false,
      "t": 48387.00000000002,
      "d": 1935.4800000000032,
      "v": 100
    },
    {
      "midi": 34,
      "hit": false,
      "t": 48387.00000000002,
      "d": 1935.4800000000032,
      "v": 84
    },
    {
      "midi": 74,
      "hit": false,
      "t": 48387.00000000003,
      "d": 967.739999999998,
      "v": 127
    },
    {
      "midi": 70,
      "hit": false,
      "t": 48387.00000000003,
      "d": 967.739999999998,
      "v": 127
    },
    {
      "midi": 36,
      "hit": false,
      "t": 48628.93499999994,
      "d": 161.29000000000087,
      "v": 127
    },
    {
      "midi": 38,
      "hit": false,
      "t": 48870.86999999994,
      "d": 161.29000000000087,
      "v": 127
    },
    {
      "midi": 35,
      "hit": false,
      "t": 49112.804999999935,
      "d": 80.6449999999968,
      "v": 127
    },
    {
      "midi": 62,
      "hit": false,
      "t": 49112.80499999998,
      "d": 241.93499999999767,
      "v": 46
    },
    {
      "midi": 58,
      "hit": false,
      "t": 49112.80499999998,
      "d": 241.93499999999767,
      "v": 46
    },
    {
      "midi": 50,
      "hit": false,
      "t": 49112.80499999998,
      "d": 241.93499999999767,
      "v": 46
    },
    {
      "midi": 53,
      "hit": false,
      "t": 49112.80499999998,
      "d": 241.93499999999767,
      "v": 46
    },
    {
      "midi": 62,
      "hit": false,
      "t": 49112.80499999998,
      "d": 241.93499999999767,
      "v": 40
    },
    {
      "midi": 58,
      "hit": false,
      "t": 49112.80499999998,
      "d": 241.93499999999767,
      "v": 40
    },
    {
      "midi": 50,
      "hit": false,
      "t": 49112.80499999998,
      "d": 241.93499999999767,
      "v": 40
    },
    {
      "midi": 53,
      "hit": false,
      "t": 49112.80499999998,
      "d": 241.93499999999767,
      "v": 40
    },
    {
      "midi": 36,
      "hit": false,
      "t": 49233.772499999934,
      "d": 80.6449999999968,
      "v": 127
    },
    {
      "midi": 74,
      "hit": false,
      "t": 49354.74000000003,
      "d": 483.8700000000026,
      "v": 127
    },
    {
      "midi": 77,
      "hit": false,
      "t": 49354.74000000003,
      "d": 483.8700000000026,
      "v": 127
    },
    {
      "midi": 35,
      "hit": false,
      "t": 49475.70749999993,
      "d": 80.6449999999968,
      "v": 127
    },
    {
      "midi": 36,
      "hit": false,
      "t": 49596.67499999993,
      "d": 80.6449999999968,
      "v": 127
    },
    {
      "midi": 62,
      "hit": false,
      "t": 49596.674999999974,
      "d": 241.93499999999767,
      "v": 46
    },
    {
      "midi": 58,
      "hit": false,
      "t": 49596.674999999974,
      "d": 241.93499999999767,
      "v": 46
    },
    {
      "midi": 50,
      "hit": false,
      "t": 49596.674999999974,
      "d": 241.93499999999767,
      "v": 46
    },
    {
      "midi": 53,
      "hit": false,
      "t": 49596.674999999974,
      "d": 241.93499999999767,
      "v": 46
    },
    {
      "midi": 62,
      "hit": false,
      "t": 49596.674999999974,
      "d": 241.93499999999767,
      "v": 40
    },
    {
      "midi": 58,
      "hit": false,
      "t": 49596.674999999974,
      "d": 241.93499999999767,
      "v": 40
    },
    {
      "midi": 50,
      "hit": false,
      "t": 49596.674999999974,
      "d": 241.93499999999767,
      "v": 40
    },
    {
      "midi": 53,
      "hit": false,
      "t": 49596.674999999974,
      "d": 241.93499999999767,
      "v": 40
    },
    {
      "midi": 38,
      "hit": false,
      "t": 49838.60999999993,
      "d": 80.6449999999968,
      "v": 127
    },
    {
      "midi": 79,
      "hit": false,
      "t": 49838.61000000003,
      "d": 483.8700000000026,
      "v": 127
    },
    {
      "midi": 76,
      "hit": false,
      "t": 49838.61000000003,
      "d": 483.8700000000026,
      "v": 127
    },
    {
      "midi": 36,
      "hit": false,
      "t": 50080.544999999925,
      "d": 80.6449999999968,
      "v": 127
    },
    {
      "midi": 36,
      "hit": false,
      "t": 50322.47999999992,
      "d": 161.29000000000087,
      "v": 127
    },
    {
      "midi": 60,
      "hit": false,
      "t": 50322.479999999974,
      "d": 967.739999999998,
      "v": 46
    },
    {
      "midi": 48,
      "hit": false,
      "t": 50322.479999999974,
      "d": 1935.479999999996,
      "v": 46
    },
    {
      "midi": 57,
      "hit": false,
      "t": 50322.479999999974,
      "d": 1935.479999999996,
      "v": 46
    },
    {
      "midi": 53,
      "hit": false,
      "t": 50322.479999999974,
      "d": 1935.479999999996,
      "v": 46
    },
    {
      "midi": 60,
      "hit": false,
      "t": 50322.479999999974,
      "d": 967.739999999998,
      "v": 40
    },
    {
      "midi": 48,
      "hit": false,
      "t": 50322.479999999974,
      "d": 1935.479999999996,
      "v": 40
    },
    {
      "midi": 57,
      "hit": false,
      "t": 50322.479999999974,
      "d": 1935.479999999996,
      "v": 40
    },
    {
      "midi": 53,
      "hit": false,
      "t": 50322.479999999974,
      "d": 1935.479999999996,
      "v": 40
    },
    {
      "midi": 72,
      "hit": false,
      "t": 50322.47999999998,
      "d": 2903.219999999994,
      "v": 65
    },
    {
      "midi": 29,
      "hit": false,
      "t": 50322.480000000025,
      "d": 1935.4800000000032,
      "v": 100
    },
    {
      "midi": 72,
      "hit": false,
      "t": 50322.480000000025,
      "d": 1935.479999999996,
      "v": 54
    },
    {
      "midi": 69,
      "hit": false,
      "t": 50322.480000000025,
      "d": 1935.479999999996,
      "v": 54
    },
    {
      "midi": 29,
      "hit": false,
      "t": 50322.480000000025,
      "d": 1935.4800000000032,
      "v": 100
    },
    {
      "midi": 29,
      "hit": false,
      "t": 50322.480000000025,
      "d": 1935.4800000000032,
      "v": 84
    },
    {
      "midi": 84,
      "hit": false,
      "t": 50322.48000000003,
      "d": 967.739999999998,
      "v": 127
    },
    {
      "midi": 81,
      "hit": false,
      "t": 50322.48000000003,
      "d": 967.739999999998,
      "v": 127
    },
    {
      "midi": 36,
      "hit": false,
      "t": 50564.41499999992,
      "d": 161.29000000000087,
      "v": 127
    },
    {
      "midi": 38,
      "hit": false,
      "t": 50806.34999999992,
      "d": 161.29000000000087,
      "v": 127
    },
    {
      "midi": 35,
      "hit": false,
      "t": 51048.284999999916,
      "d": 80.6449999999968,
      "v": 127
    },
    {
      "midi": 64,
      "hit": false,
      "t": 51048.284999999974,
      "d": 241.93499999999767,
      "v": 46
    },
    {
      "midi": 64,
      "hit": false,
      "t": 51048.284999999974,
      "d": 241.93499999999767,
      "v": 40
    },
    {
      "midi": 36,
      "hit": false,
      "t": 51169.252499999915,
      "d": 80.6449999999968,
      "v": 127
    },
    {
      "midi": 77,
      "hit": false,
      "t": 51290.22000000002,
      "d": 967.739999999998,
      "v": 54
    },
    {
      "midi": 82,
      "hit": false,
      "t": 51290.22000000003,
      "d": 483.8700000000026,
      "v": 127
    },
    {
      "midi": 79,
      "hit": false,
      "t": 51290.22000000003,
      "d": 483.8700000000026,
      "v": 127
    },
    {
      "midi": 35,
      "hit": false,
      "t": 51411.18749999991,
      "d": 80.6449999999968,
      "v": 127
    },
    {
      "midi": 36,
      "hit": false,
      "t": 51532.15499999991,
      "d": 80.6449999999968,
      "v": 127
    },
    {
      "midi": 65,
      "hit": false,
      "t": 51532.15499999997,
      "d": 241.93499999999767,
      "v": 46
    },
    {
      "midi": 60,
      "hit": false,
      "t": 51532.15499999997,
      "d": 241.93499999999767,
      "v": 46
    },
    {
      "midi": 65,
      "hit": false,
      "t": 51532.15499999997,
      "d": 241.93499999999767,
      "v": 40
    },
    {
      "midi": 60,
      "hit": false,
      "t": 51532.15499999997,
      "d": 241.93499999999767,
      "v": 40
    },
    {
      "midi": 38,
      "hit": false,
      "t": 51774.08999999991,
      "d": 80.6449999999968,
      "v": 127
    },
    {
      "midi": 81,
      "hit": false,
      "t": 51774.09000000003,
      "d": 483.8700000000026,
      "v": 127
    },
    {
      "midi": 77,
      "hit": false,
      "t": 51774.09000000003,
      "d": 483.8700000000026,
      "v": 127
    },
    {
      "midi": 36,
      "hit": false,
      "t": 52016.02499999991,
      "d": 80.6449999999968,
      "v": 127
    },
    {
      "midi": 36,
      "hit": false,
      "t": 52257.959999999905,
      "d": 161.29000000000087,
      "v": 127
    },
    {
      "midi": 64,
      "hit": false,
      "t": 52257.95999999997,
      "d": 967.739999999998,
      "v": 46
    },
    {
      "midi": 60,
      "hit": false,
      "t": 52257.95999999997,
      "d": 967.739999999998,
      "v": 46
    },
    {
      "midi": 48,
      "hit": false,
      "t": 52257.95999999997,
      "d": 967.739999999998,
      "v": 46
    },
    {
      "midi": 55,
      "hit": false,
      "t": 52257.95999999997,
      "d": 1935.4799999999886,
      "v": 46
    },
    {
      "midi": 64,
      "hit": false,
      "t": 52257.95999999997,
      "d": 967.739999999998,
      "v": 40
    },
    {
      "midi": 60,
      "hit": false,
      "t": 52257.95999999997,
      "d": 967.739999999998,
      "v": 40
    },
    {
      "midi": 48,
      "hit": false,
      "t": 52257.95999999997,
      "d": 967.739999999998,
      "v": 40
    },
    {
      "midi": 55,
      "hit": false,
      "t": 52257.95999999997,
      "d": 1935.4799999999886,
      "v": 40
    },
    {
      "midi": 76,
      "hit": false,
      "t": 52257.95999999998,
      "d": 1935.479999999996,
      "v": 65
    },
    {
      "midi": 72,
      "hit": false,
      "t": 52257.96000000002,
      "d": 1935.4800000000032,
      "v": 54
    },
    {
      "midi": 67,
      "hit": false,
      "t": 52257.96000000002,
      "d": 1935.4800000000032,
      "v": 54
    },
    {
      "midi": 36,
      "hit": false,
      "t": 52257.96000000003,
      "d": 1935.4800000000032,
      "v": 100
    },
    {
      "midi": 36,
      "hit": false,
      "t": 52257.96000000003,
      "d": 1935.4800000000032,
      "v": 100
    },
    {
      "midi": 36,
      "hit": false,
      "t": 52257.96000000003,
      "d": 1935.4800000000032,
      "v": 84
    },
    {
      "midi": 79,
      "hit": false,
      "t": 52257.960000000036,
      "d": 1935.4800000000032,
      "v": 127
    },
    {
      "midi": 76,
      "hit": false,
      "t": 52257.960000000036,
      "d": 1935.4800000000032,
      "v": 127
    },
    {
      "midi": 36,
      "hit": false,
      "t": 52499.8949999999,
      "d": 161.29000000000087,
      "v": 127
    },
    {
      "midi": 38,
      "hit": false,
      "t": 52741.8299999999,
      "d": 161.29000000000087,
      "v": 127
    },
    {
      "midi": 35,
      "hit": false,
      "t": 52983.7649999999,
      "d": 80.6449999999968,
      "v": 127
    },
    {
      "midi": 62,
      "hit": false,
      "t": 52983.76499999997,
      "d": 241.93499999999767,
      "v": 46
    },
    {
      "midi": 58,
      "hit": false,
      "t": 52983.76499999997,
      "d": 241.93499999999767,
      "v": 46
    },
    {
      "midi": 62,
      "hit": false,
      "t": 52983.76499999997,
      "d": 241.93499999999767,
      "v": 40
    },
    {
      "midi": 58,
      "hit": false,
      "t": 52983.76499999997,
      "d": 241.93499999999767,
      "v": 40
    },
    {
      "midi": 36,
      "hit": false,
      "t": 53104.7324999999,
      "d": 80.6449999999968,
      "v": 127
    },
    {
      "midi": 48,
      "hit": false,
      "t": 53225.69999999997,
      "d": 241.93499999999767,
      "v": 20
    },
    {
      "midi": 48,
      "hit": false,
      "t": 53225.69999999997,
      "d": 241.93499999999767,
      "v": 17
    },
    {
      "midi": 35,
      "hit": false,
      "t": 53346.667499999894,
      "d": 80.6449999999968,
      "v": 127
    },
    {
      "midi": 36,
      "hit": false,
      "t": 53467.63499999989,
      "d": 80.6449999999968,
      "v": 127
    },
    {
      "midi": 64,
      "hit": false,
      "t": 53467.634999999966,
      "d": 241.93499999999767,
      "v": 46
    },
    {
      "midi": 60,
      "hit": false,
      "t": 53467.634999999966,
      "d": 241.93499999999767,
      "v": 46
    },
    {
      "midi": 64,
      "hit": false,
      "t": 53467.634999999966,
      "d": 241.93499999999767,
      "v": 40
    },
    {
      "midi": 60,
      "hit": false,
      "t": 53467.634999999966,
      "d": 241.93499999999767,
      "v": 40
    },
    {
      "midi": 38,
      "hit": false,
      "t": 53709.56999999989,
      "d": 80.6449999999968,
      "v": 127
    },
    {
      "midi": 48,
      "hit": false,
      "t": 53709.56999999996,
      "d": 241.93499999999767,
      "v": 18
    },
    {
      "midi": 48,
      "hit": false,
      "t": 53709.56999999996,
      "d": 241.93499999999767,
      "v": 16
    },
    {
      "midi": 36,
      "hit": false,
      "t": 53951.50499999989,
      "d": 80.6449999999968,
      "v": 127
    },
    {
      "midi": 36,
      "hit": false,
      "t": 54193.439999999886,
      "d": 161.29000000000087,
      "v": 127
    },
    {
      "midi": 74,
      "hit": false,
      "t": 54193.43999999997,
      "d": 241.93499999999767,
      "v": 65
    },
    {
      "midi": 26,
      "hit": false,
      "t": 54193.44000000003,
      "d": 725.8050000000003,
      "v": 100
    },
    {
      "midi": 26,
      "hit": false,
      "t": 54193.44000000003,
      "d": 725.8050000000003,
      "v": 100
    },
    {
      "midi": 81,
      "hit": false,
      "t": 54193.44000000004,
      "d": 725.8050000000003,
      "v": 127
    },
    {
      "midi": 36,
      "hit": false,
      "t": 54435.37499999988,
      "d": 161.29000000000087,
      "v": 127
    },
    {
      "midi": 38,
      "hit": false,
      "t": 54677.30999999988,
      "d": 161.29000000000087,
      "v": 127
    },
    {
      "midi": 35,
      "hit": false,
      "t": 54919.24499999988,
      "d": 80.6449999999968,
      "v": 127
    },
    {
      "midi": 26,
      "hit": false,
      "t": 54919.24500000003,
      "d": 80.6449999999968,
      "v": 100
    },
    {
      "midi": 26,
      "hit": false,
      "t": 54919.24500000003,
      "d": 80.6449999999968,
      "v": 100
    },
    {
      "midi": 79,
      "hit": false,
      "t": 54919.24500000004,
      "d": 725.8050000000003,
      "v": 127
    },
    {
      "midi": 36,
      "hit": false,
      "t": 55040.21249999988,
      "d": 80.6449999999968,
      "v": 127
    },
    {
      "midi": 26,
      "hit": false,
      "t": 55040.21250000003,
      "d": 80.6449999999968,
      "v": 100
    },
    {
      "midi": 26,
      "hit": false,
      "t": 55040.21250000003,
      "d": 80.6449999999968,
      "v": 100
    },
    {
      "midi": 35,
      "hit": false,
      "t": 55282.147499999875,
      "d": 80.6449999999968,
      "v": 127
    },
    {
      "midi": 26,
      "hit": false,
      "t": 55282.14750000003,
      "d": 80.6449999999968,
      "v": 100
    },
    {
      "midi": 26,
      "hit": false,
      "t": 55282.14750000003,
      "d": 80.6449999999968,
      "v": 100
    },
    {
      "midi": 36,
      "hit": false,
      "t": 55403.114999999874,
      "d": 80.6449999999968,
      "v": 127
    },
    {
      "midi": 26,
      "hit": false,
      "t": 55403.11500000003,
      "d": 80.6449999999968,
      "v": 100
    },
    {
      "midi": 26,
      "hit": false,
      "t": 55403.11500000003,
      "d": 80.6449999999968,
      "v": 100
    },
    {
      "midi": 38,
      "hit": false,
      "t": 55645.04999999987,
      "d": 80.6449999999968,
      "v": 127
    },
    {
      "midi": 26,
      "hit": false,
      "t": 55645.050000000025,
      "d": 483.8700000000026,
      "v": 100
    },
    {
      "midi": 26,
      "hit": false,
      "t": 55645.050000000025,
      "d": 483.8700000000026,
      "v": 100
    },
    {
      "midi": 77,
      "hit": false,
      "t": 55645.05000000004,
      "d": 483.8700000000026,
      "v": 127
    },
    {
      "midi": 36,
      "hit": false,
      "t": 55886.98499999987,
      "d": 80.6449999999968,
      "v": 127
    },
    {
      "midi": 36,
      "hit": false,
      "t": 56128.91999999987,
      "d": 161.29000000000087,
      "v": 127
    },
    {
      "midi": 81,
      "hit": false,
      "t": 56128.92,
      "d": 725.8050000000003,
      "v": 28
    },
    {
      "midi": 26,
      "hit": false,
      "t": 56128.92000000003,
      "d": 725.8050000000003,
      "v": 100
    },
    {
      "midi": 26,
      "hit": false,
      "t": 56128.92000000003,
      "d": 725.8050000000003,
      "v": 100
    },
    {
      "midi": 74,
      "hit": false,
      "t": 56128.92000000004,
      "d": 1935.4800000000032,
      "v": 127
    },
    {
      "midi": 81,
      "hit": false,
      "t": 56249.8875,
      "d": 725.8050000000003,
      "v": 18
    },
    {
      "midi": 36,
      "hit": false,
      "t": 56370.854999999865,
      "d": 161.29000000000087,
      "v": 127
    },
    {
      "midi": 38,
      "hit": false,
      "t": 56612.78999999986,
      "d": 161.29000000000087,
      "v": 127
    },
    {
      "midi": 35,
      "hit": false,
      "t": 56854.72499999986,
      "d": 80.6449999999968,
      "v": 127
    },
    {
      "midi": 79,
      "hit": false,
      "t": 56854.725,
      "d": 725.8050000000003,
      "v": 28
    },
    {
      "midi": 26,
      "hit": false,
      "t": 56854.72500000003,
      "d": 80.6449999999968,
      "v": 100
    },
    {
      "midi": 26,
      "hit": false,
      "t": 56854.72500000003,
      "d": 80.6449999999968,
      "v": 100
    },
    {
      "midi": 36,
      "hit": false,
      "t": 56975.69249999986,
      "d": 80.6449999999968,
      "v": 127
    },
    {
      "midi": 79,
      "hit": false,
      "t": 56975.6925,
      "d": 725.8050000000003,
      "v": 18
    },
    {
      "midi": 26,
      "hit": false,
      "t": 56975.69250000003,
      "d": 80.6449999999968,
      "v": 100
    },
    {
      "midi": 26,
      "hit": false,
      "t": 56975.69250000003,
      "d": 80.6449999999968,
      "v": 100
    },
    {
      "midi": 35,
      "hit": false,
      "t": 57217.62749999986,
      "d": 80.6449999999968,
      "v": 127
    },
    {
      "midi": 26,
      "hit": false,
      "t": 57217.627500000024,
      "d": 80.6449999999968,
      "v": 100
    },
    {
      "midi": 26,
      "hit": false,
      "t": 57217.627500000024,
      "d": 80.6449999999968,
      "v": 100
    },
    {
      "midi": 36,
      "hit": false,
      "t": 57338.594999999856,
      "d": 80.6449999999968,
      "v": 127
    },
    {
      "midi": 26,
      "hit": false,
      "t": 57338.59500000002,
      "d": 80.6449999999968,
      "v": 100
    },
    {
      "midi": 26,
      "hit": false,
      "t": 57338.59500000002,
      "d": 80.6449999999968,
      "v": 100
    },
    {
      "midi": 38,
      "hit": false,
      "t": 57580.52999999985,
      "d": 80.6449999999968,
      "v": 127
    },
    {
      "midi": 77,
      "hit": false,
      "t": 57580.53,
      "d": 483.8700000000026,
      "v": 28
    },
    {
      "midi": 26,
      "hit": false,
      "t": 57580.53000000002,
      "d": 483.8700000000026,
      "v": 100
    },
    {
      "midi": 26,
      "hit": false,
      "t": 57580.53000000002,
      "d": 483.8700000000026,
      "v": 100
    },
    {
      "midi": 77,
      "hit": false,
      "t": 57701.4975,
      "d": 483.8700000000026,
      "v": 18
    },
    {
      "midi": 36,
      "hit": false,
      "t": 57822.46499999985,
      "d": 80.6449999999968,
      "v": 127
    },
    {
      "midi": 36,
      "hit": false,
      "t": 58064.39999999985,
      "d": 161.29000000000087,
      "v": 127
    },
    {
      "midi": 74,
      "hit": false,
      "t": 58064.4,
      "d": 1935.4800000000032,
      "v": 28
    },
    {
      "midi": 26,
      "hit": false,
      "t": 58064.40000000002,
      "d": 725.8050000000003,
      "v": 100
    },
    {
      "midi": 26,
      "hit": false,
      "t": 58064.40000000002,
      "d": 725.8050000000003,
      "v": 100
    },
    {
      "midi": 74,
      "hit": false,
      "t": 58185.3675,
      "d": 1935.4800000000032,
      "v": 18
    },
    {
      "midi": 36,
      "hit": false,
      "t": 58306.334999999846,
      "d": 161.29000000000087,
      "v": 127
    },
    {
      "midi": 38,
      "hit": false,
      "t": 58548.269999999844,
      "d": 161.29000000000087,
      "v": 127
    },
    {
      "midi": 35,
      "hit": false,
      "t": 58790.20499999984,
      "d": 80.6449999999968,
      "v": 127
    },
    {
      "midi": 26,
      "hit": false,
      "t": 58790.20500000002,
      "d": 80.6449999999968,
      "v": 100
    },
    {
      "midi": 26,
      "hit": false,
      "t": 58790.20500000002,
      "d": 80.6449999999968,
      "v": 100
    },
    {
      "midi": 36,
      "hit": false,
      "t": 58911.17249999984,
      "d": 80.6449999999968,
      "v": 127
    },
    {
      "midi": 26,
      "hit": false,
      "t": 58911.17250000002,
      "d": 80.6449999999968,
      "v": 100
    },
    {
      "midi": 26,
      "hit": false,
      "t": 58911.17250000002,
      "d": 80.6449999999968,
      "v": 100
    },
    {
      "midi": 35,
      "hit": false,
      "t": 59153.10749999984,
      "d": 80.6449999999968,
      "v": 127
    },
    {
      "midi": 26,
      "hit": false,
      "t": 59153.10750000002,
      "d": 80.6449999999968,
      "v": 100
    },
    {
      "midi": 26,
      "hit": false,
      "t": 59153.10750000002,
      "d": 80.6449999999968,
      "v": 100
    },
    {
      "midi": 36,
      "hit": false,
      "t": 59274.07499999984,
      "d": 80.6449999999968,
      "v": 127
    },
    {
      "midi": 26,
      "hit": false,
      "t": 59274.07500000002,
      "d": 80.6449999999968,
      "v": 100
    },
    {
      "midi": 26,
      "hit": false,
      "t": 59274.07500000002,
      "d": 80.6449999999968,
      "v": 100
    },
    {
      "midi": 38,
      "hit": false,
      "t": 59516.009999999835,
      "d": 80.6449999999968,
      "v": 127
    },
    {
      "midi": 26,
      "hit": false,
      "t": 59516.01000000002,
      "d": 483.8700000000026,
      "v": 100
    },
    {
      "midi": 26,
      "hit": false,
      "t": 59516.01000000002,
      "d": 483.8700000000026,
      "v": 100
    },
    {
      "midi": 36,
      "hit": false,
      "t": 59757.94499999983,
      "d": 80.6449999999968,
      "v": 127
    },
    {
      "midi": 36,
      "hit": false,
      "t": 59999.87999999983,
      "d": 161.29000000000087,
      "v": 127
    },
    {
      "midi": 50,
      "hit": false,
      "t": 59999.87999999996,
      "d": 241.93499999999767,
      "v": 46
    },
    {
      "midi": 50,
      "hit": false,
      "t": 59999.87999999996,
      "d": 241.93499999999767,
      "v": 40
    },
    {
      "midi": 26,
      "hit": false,
      "t": 59999.88000000002,
      "d": 725.8050000000003,
      "v": 100
    },
    {
      "midi": 26,
      "hit": false,
      "t": 59999.88000000002,
      "d": 725.8050000000003,
      "v": 100
    },
    {
      "midi": 36,
      "hit": false,
      "t": 60241.81499999983,
      "d": 161.29000000000087,
      "v": 127
    },
    {
      "midi": 57,
      "hit": false,
      "t": 60241.81499999996,
      "d": 241.93499999999767,
      "v": 46
    },
    {
      "midi": 57,
      "hit": false,
      "t": 60241.81499999996,
      "d": 241.93499999999767,
      "v": 40
    },
    {
      "midi": 38,
      "hit": false,
      "t": 60483.749999999825,
      "d": 161.29000000000087,
      "v": 127
    },
    {
      "midi": 62,
      "hit": false,
      "t": 60483.749999999956,
      "d": 241.93499999999767,
      "v": 46
    },
    {
      "midi": 62,
      "hit": false,
      "t": 60483.749999999956,
      "d": 241.93499999999767,
      "v": 40
    },
    {
      "midi": 35,
      "hit": false,
      "t": 60725.68499999982,
      "d": 80.6449999999968,
      "v": 127
    },
    {
      "midi": 64,
      "hit": false,
      "t": 60725.684999999954,
      "d": 483.8700000000026,
      "v": 46
    },
    {
      "midi": 64,
      "hit": false,
      "t": 60725.684999999954,
      "d": 483.8700000000026,
      "v": 40
    },
    {
      "midi": 26,
      "hit": false,
      "t": 60725.68500000002,
      "d": 80.6449999999968,
      "v": 100
    },
    {
      "midi": 26,
      "hit": false,
      "t": 60725.68500000002,
      "d": 80.6449999999968,
      "v": 100
    },
    {
      "midi": 36,
      "hit": false,
      "t": 60846.65249999982,
      "d": 80.6449999999968,
      "v": 127
    },
    {
      "midi": 26,
      "hit": false,
      "t": 60846.65250000002,
      "d": 80.6449999999968,
      "v": 100
    },
    {
      "midi": 26,
      "hit": false,
      "t": 60846.65250000002,
      "d": 80.6449999999968,
      "v": 100
    },
    {
      "midi": 35,
      "hit": false,
      "t": 61088.58749999982,
      "d": 80.6449999999968,
      "v": 127
    },
    {
      "midi": 26,
      "hit": false,
      "t": 61088.587500000016,
      "d": 80.6449999999968,
      "v": 100
    },
    {
      "midi": 26,
      "hit": false,
      "t": 61088.587500000016,
      "d": 80.6449999999968,
      "v": 100
    },
    {
      "midi": 36,
      "hit": false,
      "t": 61209.55499999982,
      "d": 80.6449999999968,
      "v": 127
    },
    {
      "midi": 65,
      "hit": false,
      "t": 61209.55499999996,
      "d": 483.8700000000026,
      "v": 46
    },
    {
      "midi": 65,
      "hit": false,
      "t": 61209.55499999996,
      "d": 483.8700000000026,
      "v": 40
    },
    {
      "midi": 26,
      "hit": false,
      "t": 61209.555000000015,
      "d": 80.6449999999968,
      "v": 100
    },
    {
      "midi": 26,
      "hit": false,
      "t": 61209.555000000015,
      "d": 80.6449999999968,
      "v": 100
    },
    {
      "midi": 38,
      "hit": false,
      "t": 61451.489999999816,
      "d": 80.6449999999968,
      "v": 127
    },
    {
      "midi": 40,
      "hit": false,
      "t": 61451.489999999816,
      "d": 80.6449999999968,
      "v": 127
    },
    {
      "midi": 26,
      "hit": false,
      "t": 61451.49000000001,
      "d": 483.8700000000026,
      "v": 100
    },
    {
      "midi": 26,
      "hit": false,
      "t": 61451.49000000001,
      "d": 483.8700000000026,
      "v": 100
    },
    {
      "midi": 40,
      "hit": false,
      "t": 61572.457499999815,
      "d": 80.6449999999968,
      "v": 127
    },
    {
      "midi": 36,
      "hit": false,
      "t": 61693.424999999814,
      "d": 80.6449999999968,
      "v": 127
    },
    {
      "midi": 40,
      "hit": false,
      "t": 61693.424999999814,
      "d": 80.6449999999968,
      "v": 127
    },
    {
      "midi": 62,
      "hit": false,
      "t": 61693.42499999996,
      "d": 241.93499999999767,
      "v": 46
    },
    {
      "midi": 62,
      "hit": false,
      "t": 61693.42499999996,
      "d": 241.93499999999767,
      "v": 40
    },
    {
      "midi": 40,
      "hit": false,
      "t": 61814.39249999981,
      "d": 80.6449999999968,
      "v": 127
    },
    {
      "midi": 36,
      "hit": false,
      "t": 61935.35999999981,
      "d": 161.29000000000087,
      "v": 127
    },
    {
      "midi": 49,
      "hit": false,
      "t": 61935.35999999981,
      "d": 1532.2549999999828,
      "v": 127
    },
    {
      "midi": 57,
      "hit": false,
      "t": 61935.35999999996,
      "d": 967.739999999998,
      "v": 46
    },
    {
      "midi": 53,
      "hit": false,
      "t": 61935.35999999996,
      "d": 967.739999999998,
      "v": 46
    },
    {
      "midi": 50,
      "hit": false,
      "t": 61935.35999999996,
      "d": 967.739999999998,
      "v": 46
    },
    {
      "midi": 38,
      "hit": false,
      "t": 61935.35999999996,
      "d": 1935.479999999996,
      "v": 46
    },
    {
      "midi": 57,
      "hit": false,
      "t": 61935.35999999996,
      "d": 967.739999999998,
      "v": 40
    },
    {
      "midi": 53,
      "hit": false,
      "t": 61935.35999999996,
      "d": 967.739999999998,
      "v": 40
    },
    {
      "midi": 50,
      "hit": false,
      "t": 61935.35999999996,
      "d": 967.739999999998,
      "v": 40
    },
    {
      "midi": 38,
      "hit": false,
      "t": 61935.35999999996,
      "d": 1935.479999999996,
      "v": 40
    },
    {
      "midi": 62,
      "hit": false,
      "t": 61935.35999999997,
      "d": 80.6449999999968,
      "v": 65
    },
    {
      "midi": 38,
      "hit": false,
      "t": 61935.360000000015,
      "d": 1935.4800000000032,
      "v": 100
    },
    {
      "midi": 38,
      "hit": false,
      "t": 61935.360000000015,
      "d": 1935.4800000000032,
      "v": 100
    },
    {
      "midi": 65,
      "hit": false,
      "t": 61935.36000000002,
      "d": 1935.4800000000032,
      "v": 54
    },
    {
      "midi": 62,
      "hit": false,
      "t": 61935.36000000002,
      "d": 1935.4800000000032,
      "v": 54
    },
    {
      "midi": 38,
      "hit": false,
      "t": 61935.36000000003,
      "d": 1935.4800000000032,
      "v": 84
    },
    {
      "midi": 36,
      "hit": false,
      "t": 62177.29499999981,
      "d": 161.29000000000087,
      "v": 127
    },
    {
      "midi": 69,
      "hit": false,
      "t": 62177.29499999997,
      "d": 161.29000000000087,
      "v": 65
    },
    {
      "midi": 38,
      "hit": false,
      "t": 62419.22999999981,
      "d": 161.29000000000087,
      "v": 127
    },
    {
      "midi": 74,
      "hit": false,
      "t": 62419.22999999997,
      "d": 161.29000000000087,
      "v": 65
    },
    {
      "midi": 35,
      "hit": false,
      "t": 62661.164999999804,
      "d": 80.6449999999968,
      "v": 127
    },
    {
      "midi": 36,
      "hit": false,
      "t": 62782.1324999998,
      "d": 80.6449999999968,
      "v": 127
    },
    {
      "midi": 76,
      "hit": false,
      "t": 62782.13249999997,
      "d": 161.29000000000087,
      "v": 65
    },
    {
      "midi": 74,
      "hit": false,
      "t": 62903.10000000004,
      "d": 241.93499999999767,
      "v": 127
    },
    {
      "midi": 35,
      "hit": false,
      "t": 63024.0674999998,
      "d": 80.6449999999968,
      "v": 127
    },
    {
      "midi": 36,
      "hit": false,
      "t": 63145.0349999998,
      "d": 80.6449999999968,
      "v": 127
    },
    {
      "midi": 57,
      "hit": false,
      "t": 63145.03499999995,
      "d": 483.8700000000026,
      "v": 46
    },
    {
      "midi": 53,
      "hit": false,
      "t": 63145.03499999995,
      "d": 483.8700000000026,
      "v": 46
    },
    {
      "midi": 50,
      "hit": false,
      "t": 63145.03499999995,
      "d": 483.8700000000026,
      "v": 46
    },
    {
      "midi": 57,
      "hit": false,
      "t": 63145.03499999995,
      "d": 483.8700000000026,
      "v": 40
    },
    {
      "midi": 53,
      "hit": false,
      "t": 63145.03499999995,
      "d": 483.8700000000026,
      "v": 40
    },
    {
      "midi": 50,
      "hit": false,
      "t": 63145.03499999995,
      "d": 483.8700000000026,
      "v": 40
    },
    {
      "midi": 74,
      "hit": false,
      "t": 63145.034999999974,
      "d": 1129.0299999999988,
      "v": 65
    },
    {
      "midi": 77,
      "hit": false,
      "t": 63145.03500000004,
      "d": 483.8700000000026,
      "v": 127
    },
    {
      "midi": 38,
      "hit": false,
      "t": 63386.9699999998,
      "d": 80.6449999999968,
      "v": 127
    },
    {
      "midi": 36,
      "hit": false,
      "t": 63628.904999999795,
      "d": 80.6449999999968,
      "v": 127
    },
    {
      "midi": 76,
      "hit": false,
      "t": 63628.90500000004,
      "d": 483.8700000000026,
      "v": 127
    },
    {
      "midi": 36,
      "hit": false,
      "t": 63870.83999999979,
      "d": 161.29000000000087,
      "v": 127
    },
    {
      "midi": 60,
      "hit": false,
      "t": 63870.83999999995,
      "d": 1935.479999999996,
      "v": 46
    },
    {
      "midi": 55,
      "hit": false,
      "t": 63870.83999999995,
      "d": 1935.479999999996,
      "v": 46
    },
    {
      "midi": 52,
      "hit": false,
      "t": 63870.83999999995,
      "d": 1935.479999999996,
      "v": 46
    },
    {
      "midi": 36,
      "hit": false,
      "t": 63870.83999999995,
      "d": 1935.479999999996,
      "v": 46
    },
    {
      "midi": 48,
      "hit": false,
      "t": 63870.83999999995,
      "d": 1935.479999999996,
      "v": 46
    },
    {
      "midi": 60,
      "hit": false,
      "t": 63870.83999999995,
      "d": 1935.479999999996,
      "v": 40
    },
    {
      "midi": 55,
      "hit": false,
      "t": 63870.83999999995,
      "d": 1935.479999999996,
      "v": 40
    },
    {
      "midi": 52,
      "hit": false,
      "t": 63870.83999999995,
      "d": 1935.479999999996,
      "v": 40
    },
    {
      "midi": 36,
      "hit": false,
      "t": 63870.83999999995,
      "d": 1935.479999999996,
      "v": 40
    },
    {
      "midi": 48,
      "hit": false,
      "t": 63870.83999999995,
      "d": 1935.479999999996,
      "v": 40
    },
    {
      "midi": 62,
      "hit": false,
      "t": 63870.839999999975,
      "d": 80.6449999999968,
      "v": 65
    },
    {
      "midi": 36,
      "hit": false,
      "t": 63870.84000000002,
      "d": 1935.4800000000032,
      "v": 100
    },
    {
      "midi": 36,
      "hit": false,
      "t": 63870.84000000002,
      "d": 1935.4800000000032,
      "v": 100
    },
    {
      "midi": 64,
      "hit": false,
      "t": 63870.840000000026,
      "d": 1935.479999999996,
      "v": 54
    },
    {
      "midi": 60,
      "hit": false,
      "t": 63870.840000000026,
      "d": 1935.479999999996,
      "v": 54
    },
    {
      "midi": 36,
      "hit": false,
      "t": 63870.84000000003,
      "d": 1935.4800000000032,
      "v": 84
    },
    {
      "midi": 36,
      "hit": false,
      "t": 64112.77499999979,
      "d": 161.29000000000087,
      "v": 127
    },
    {
      "midi": 69,
      "hit": false,
      "t": 64112.77499999997,
      "d": 161.29000000000087,
      "v": 65
    },
    {
      "midi": 38,
      "hit": false,
      "t": 64354.70999999979,
      "d": 161.29000000000087,
      "v": 127
    },
    {
      "midi": 74,
      "hit": false,
      "t": 64354.70999999997,
      "d": 161.29000000000087,
      "v": 65
    },
    {
      "midi": 74,
      "hit": false,
      "t": 64354.71000000004,
      "d": 241.93499999999767,
      "v": 127
    },
    {
      "midi": 35,
      "hit": false,
      "t": 64596.644999999786,
      "d": 80.6449999999968,
      "v": 127
    },
    {
      "midi": 72,
      "hit": false,
      "t": 64596.64500000004,
      "d": 483.8700000000026,
      "v": 127
    },
    {
      "midi": 36,
      "hit": false,
      "t": 64717.612499999785,
      "d": 80.6449999999968,
      "v": 127
    },
    {
      "midi": 76,
      "hit": false,
      "t": 64717.612499999974,
      "d": 161.29000000000087,
      "v": 65
    },
    {
      "midi": 35,
      "hit": false,
      "t": 64959.54749999978,
      "d": 80.6449999999968,
      "v": 127
    },
    {
      "midi": 36,
      "hit": false,
      "t": 65080.51499999978,
      "d": 80.6449999999968,
      "v": 127
    },
    {
      "midi": 74,
      "hit": false,
      "t": 65080.51499999998,
      "d": 1129.0299999999916,
      "v": 65
    },
    {
      "midi": 38,
      "hit": false,
      "t": 65322.44999999978,
      "d": 80.6449999999968,
      "v": 127
    },
    {
      "midi": 74,
      "hit": false,
      "t": 65322.45000000004,
      "d": 241.93499999999767,
      "v": 127
    },
    {
      "midi": 36,
      "hit": false,
      "t": 65564.38499999978,
      "d": 80.64500000000407,
      "v": 127
    },
    {
      "midi": 67,
      "hit": false,
      "t": 65564.38500000004,
      "d": 483.86999999999534,
      "v": 127
    },
    {
      "midi": 36,
      "hit": false,
      "t": 65806.31999999977,
      "d": 161.2899999999936,
      "v": 127
    },
    {
      "midi": 57,
      "hit": false,
      "t": 65806.31999999995,
      "d": 1935.479999999996,
      "v": 46
    },
    {
      "midi": 53,
      "hit": false,
      "t": 65806.31999999995,
      "d": 1935.479999999996,
      "v": 46
    },
    {
      "midi": 50,
      "hit": false,
      "t": 65806.31999999995,
      "d": 1935.479999999996,
      "v": 46
    },
    {
      "midi": 46,
      "hit": false,
      "t": 65806.31999999995,
      "d": 1935.479999999996,
      "v": 46
    },
    {
      "midi": 57,
      "hit": false,
      "t": 65806.31999999995,
      "d": 1935.479999999996,
      "v": 40
    },
    {
      "midi": 53,
      "hit": false,
      "t": 65806.31999999995,
      "d": 1935.479999999996,
      "v": 40
    },
    {
      "midi": 50,
      "hit": false,
      "t": 65806.31999999995,
      "d": 1935.479999999996,
      "v": 40
    },
    {
      "midi": 46,
      "hit": false,
      "t": 65806.31999999995,
      "d": 1935.479999999996,
      "v": 40
    },
    {
      "midi": 62,
      "hit": false,
      "t": 65806.31999999998,
      "d": 80.64500000000407,
      "v": 65
    },
    {
      "midi": 34,
      "hit": false,
      "t": 65806.32000000002,
      "d": 1935.479999999996,
      "v": 100
    },
    {
      "midi": 58,
      "hit": false,
      "t": 65806.32000000002,
      "d": 3870.9600000000064,
      "v": 54
    },
    {
      "midi": 62,
      "hit": false,
      "t": 65806.32000000002,
      "d": 3870.9600000000064,
      "v": 54
    },
    {
      "midi": 34,
      "hit": false,
      "t": 65806.32000000002,
      "d": 1935.479999999996,
      "v": 100
    },
    {
      "midi": 34,
      "hit": false,
      "t": 65806.32000000004,
      "d": 1935.479999999996,
      "v": 84
    },
    {
      "midi": 36,
      "hit": false,
      "t": 66048.25499999977,
      "d": 161.2899999999936,
      "v": 127
    },
    {
      "midi": 69,
      "hit": false,
      "t": 66048.25499999998,
      "d": 161.2899999999936,
      "v": 65
    },
    {
      "midi": 67,
      "hit": false,
      "t": 66048.25500000003,
      "d": 967.7399999999907,
      "v": 127
    },
    {
      "midi": 38,
      "hit": false,
      "t": 66290.18999999977,
      "d": 161.2899999999936,
      "v": 127
    },
    {
      "midi": 74,
      "hit": false,
      "t": 66290.18999999997,
      "d": 161.2899999999936,
      "v": 65
    },
    {
      "midi": 35,
      "hit": false,
      "t": 66532.12499999977,
      "d": 80.64500000000407,
      "v": 127
    },
    {
      "midi": 36,
      "hit": false,
      "t": 66653.09249999977,
      "d": 80.64500000000407,
      "v": 127
    },
    {
      "midi": 76,
      "hit": false,
      "t": 66653.09249999997,
      "d": 161.2899999999936,
      "v": 65
    },
    {
      "midi": 35,
      "hit": false,
      "t": 66895.02749999976,
      "d": 80.64500000000407,
      "v": 127
    },
    {
      "midi": 36,
      "hit": false,
      "t": 67015.99499999976,
      "d": 80.64500000000407,
      "v": 127
    },
    {
      "midi": 74,
      "hit": false,
      "t": 67015.99499999997,
      "d": 1129.0299999999988,
      "v": 65
    },
    {
      "midi": 38,
      "hit": false,
      "t": 67257.92999999976,
      "d": 80.64500000000407,
      "v": 127
    },
    {
      "midi": 36,
      "hit": false,
      "t": 67499.86499999976,
      "d": 80.64500000000407,
      "v": 127
    },
    {
      "midi": 67,
      "hit": false,
      "t": 67499.865,
      "d": 483.86999999999534,
      "v": 28
    },
    {
      "midi": 67,
      "hit": false,
      "t": 67620.8325,
      "d": 483.86999999999534,
      "v": 18
    },
    {
      "midi": 36,
      "hit": false,
      "t": 67741.79999999976,
      "d": 161.2899999999936,
      "v": 127
    },
    {
      "midi": 46,
      "hit": false,
      "t": 67741.79999999994,
      "d": 241.93499999999767,
      "v": 46
    },
    {
      "midi": 46,
      "hit": false,
      "t": 67741.79999999994,
      "d": 241.93499999999767,
      "v": 40
    },
    {
      "midi": 34,
      "hit": false,
      "t": 67741.80000000002,
      "d": 1935.479999999996,
      "v": 100
    },
    {
      "midi": 34,
      "hit": false,
      "t": 67741.80000000002,
      "d": 1935.479999999996,
      "v": 100
    },
    {
      "midi": 34,
      "hit": false,
      "t": 67741.80000000003,
      "d": 1935.479999999996,
      "v": 84
    },
    {
      "midi": 36,
      "hit": false,
      "t": 67983.73499999975,
      "d": 161.2899999999936,
      "v": 127
    },
    {
      "midi": 53,
      "hit": false,
      "t": 67983.73499999994,
      "d": 241.93499999999767,
      "v": 46
    },
    {
      "midi": 53,
      "hit": false,
      "t": 67983.73499999994,
      "d": 241.93499999999767,
      "v": 40
    },
    {
      "midi": 67,
      "hit": false,
      "t": 67983.735,
      "d": 967.7399999999907,
      "v": 28
    },
    {
      "midi": 67,
      "hit": false,
      "t": 68104.7025,
      "d": 967.7399999999907,
      "v": 18
    },
    {
      "midi": 38,
      "hit": false,
      "t": 68225.66999999975,
      "d": 161.2899999999936,
      "v": 127
    },
    {
      "midi": 58,
      "hit": false,
      "t": 68225.66999999994,
      "d": 241.93499999999767,
      "v": 46
    },
    {
      "midi": 58,
      "hit": false,
      "t": 68225.66999999994,
      "d": 241.93499999999767,
      "v": 40
    },
    {
      "midi": 35,
      "hit": false,
      "t": 68467.60499999975,
      "d": 80.64500000000407,
      "v": 127
    },
    {
      "midi": 60,
      "hit": false,
      "t": 68467.60499999994,
      "d": 483.86999999999534,
      "v": 46
    },
    {
      "midi": 60,
      "hit": false,
      "t": 68467.60499999994,
      "d": 483.86999999999534,
      "v": 40
    },
    {
      "midi": 36,
      "hit": false,
      "t": 68588.57249999975,
      "d": 80.64500000000407,
      "v": 127
    },
    {
      "midi": 35,
      "hit": false,
      "t": 68830.50749999975,
      "d": 80.64500000000407,
      "v": 127
    },
    {
      "midi": 36,
      "hit": false,
      "t": 68951.47499999974,
      "d": 80.64500000000407,
      "v": 127
    },
    {
      "midi": 62,
      "hit": false,
      "t": 68951.47499999993,
      "d": 725.8050000000076,
      "v": 46
    },
    {
      "midi": 62,
      "hit": false,
      "t": 68951.47499999993,
      "d": 725.8050000000076,
      "v": 40
    },
    {
      "midi": 55,
      "hit": false,
      "t": 68951.475,
      "d": 604.8375000000233,
      "v": 127
    },
    {
      "midi": 38,
      "hit": false,
      "t": 69193.40999999974,
      "d": 80.64500000000407,
      "v": 127
    },
    {
      "midi": 36,
      "hit": false,
      "t": 69435.34499999974,
      "d": 80.64500000000407,
      "v": 127
    },
    {
      "midi": 36,
      "hit": false,
      "t": 69677.27999999974,
      "d": 161.2899999999936,
      "v": 127
    },
    {
      "midi": 62,
      "hit": false,
      "t": 69677.27999999994,
      "d": 1935.479999999996,
      "v": 46
    },
    {
      "midi": 57,
      "hit": false,
      "t": 69677.27999999994,
      "d": 1935.479999999996,
      "v": 46
    },
    {
      "midi": 53,
      "hit": false,
      "t": 69677.27999999994,
      "d": 1935.479999999996,
      "v": 46
    },
    {
      "midi": 38,
      "hit": false,
      "t": 69677.27999999994,
      "d": 1935.479999999996,
      "v": 46
    },
    {
      "midi": 62,
      "hit": false,
      "t": 69677.27999999994,
      "d": 1935.479999999996,
      "v": 40
    },
    {
      "midi": 57,
      "hit": false,
      "t": 69677.27999999994,
      "d": 1935.479999999996,
      "v": 40
    },
    {
      "midi": 53,
      "hit": false,
      "t": 69677.27999999994,
      "d": 1935.479999999996,
      "v": 40
    },
    {
      "midi": 38,
      "hit": false,
      "t": 69677.27999999994,
      "d": 1935.479999999996,
      "v": 40
    },
    {
      "midi": 62,
      "hit": false,
      "t": 69677.27999999997,
      "d": 80.64500000000407,
      "v": 65
    },
    {
      "midi": 38,
      "hit": false,
      "t": 69677.28000000001,
      "d": 1935.479999999996,
      "v": 100
    },
    {
      "midi": 38,
      "hit": false,
      "t": 69677.28000000001,
      "d": 1935.479999999996,
      "v": 100
    },
    {
      "midi": 65,
      "hit": false,
      "t": 69677.28000000003,
      "d": 1935.479999999996,
      "v": 54
    },
    {
      "midi": 62,
      "hit": false,
      "t": 69677.28000000003,
      "d": 1935.479999999996,
      "v": 54
    },
    {
      "midi": 38,
      "hit": false,
      "t": 69677.28000000003,
      "d": 1935.479999999996,
      "v": 84
    },
    {
      "midi": 36,
      "hit": false,
      "t": 69919.21499999973,
      "d": 161.2899999999936,
      "v": 127
    },
    {
      "midi": 69,
      "hit": false,
      "t": 69919.21499999997,
      "d": 161.2899999999936,
      "v": 65
    },
    {
      "midi": 38,
      "hit": false,
      "t": 70161.14999999973,
      "d": 161.2899999999936,
      "v": 127
    },
    {
      "midi": 74,
      "hit": false,
      "t": 70161.14999999997,
      "d": 161.2899999999936,
      "v": 65
    },
    {
      "midi": 35,
      "hit": false,
      "t": 70403.08499999973,
      "d": 80.64500000000407,
      "v": 127
    },
    {
      "midi": 36,
      "hit": false,
      "t": 70524.05249999973,
      "d": 80.64500000000407,
      "v": 127
    },
    {
      "midi": 76,
      "hit": false,
      "t": 70524.05249999996,
      "d": 161.2899999999936,
      "v": 65
    },
    {
      "midi": 74,
      "hit": false,
      "t": 70645.02000000002,
      "d": 241.93499999999767,
      "v": 127
    },
    {
      "midi": 35,
      "hit": false,
      "t": 70765.98749999973,
      "d": 80.64500000000407,
      "v": 127
    },
    {
      "midi": 36,
      "hit": false,
      "t": 70886.95499999973,
      "d": 80.64500000000407,
      "v": 127
    },
    {
      "midi": 74,
      "hit": false,
      "t": 70886.95499999996,
      "d": 1129.0299999999843,
      "v": 65
    },
    {
      "midi": 77,
      "hit": false,
      "t": 70886.95500000002,
      "d": 483.86999999999534,
      "v": 127
    },
    {
      "midi": 38,
      "hit": false,
      "t": 71128.88999999972,
      "d": 80.64500000000407,
      "v": 127
    },
    {
      "midi": 36,
      "hit": false,
      "t": 71370.82499999972,
      "d": 80.64500000000407,
      "v": 127
    },
    {
      "midi": 79,
      "hit": false,
      "t": 71370.82500000001,
      "d": 483.86999999999534,
      "v": 127
    },
    {
      "midi": 36,
      "hit": false,
      "t": 71612.75999999972,
      "d": 161.2899999999936,
      "v": 127
    },
    {
      "midi": 43,
      "hit": false,
      "t": 71612.75999999994,
      "d": 1935.479999999996,
      "v": 46
    },
    {
      "midi": 52,
      "hit": false,
      "t": 71612.75999999994,
      "d": 1935.479999999996,
      "v": 46
    },
    {
      "midi": 55,
      "hit": false,
      "t": 71612.75999999994,
      "d": 1935.479999999996,
      "v": 46
    },
    {
      "midi": 60,
      "hit": false,
      "t": 71612.75999999994,
      "d": 1935.479999999996,
      "v": 46
    },
    {
      "midi": 43,
      "hit": false,
      "t": 71612.75999999994,
      "d": 1935.479999999996,
      "v": 40
    },
    {
      "midi": 52,
      "hit": false,
      "t": 71612.75999999994,
      "d": 1935.479999999996,
      "v": 40
    },
    {
      "midi": 55,
      "hit": false,
      "t": 71612.75999999994,
      "d": 1935.479999999996,
      "v": 40
    },
    {
      "midi": 60,
      "hit": false,
      "t": 71612.75999999994,
      "d": 1935.479999999996,
      "v": 40
    },
    {
      "midi": 62,
      "hit": false,
      "t": 71612.75999999995,
      "d": 80.64500000000407,
      "v": 65
    },
    {
      "midi": 36,
      "hit": false,
      "t": 71612.76000000001,
      "d": 1935.479999999996,
      "v": 100
    },
    {
      "midi": 36,
      "hit": false,
      "t": 71612.76000000001,
      "d": 1935.479999999996,
      "v": 100
    },
    {
      "midi": 64,
      "hit": false,
      "t": 71612.76000000002,
      "d": 1935.479999999996,
      "v": 54
    },
    {
      "midi": 60,
      "hit": false,
      "t": 71612.76000000002,
      "d": 1935.479999999996,
      "v": 54
    },
    {
      "midi": 36,
      "hit": false,
      "t": 71612.76000000002,
      "d": 1935.479999999996,
      "v": 84
    },
    {
      "midi": 36,
      "hit": false,
      "t": 71854.69499999972,
      "d": 161.2899999999936,
      "v": 127
    },
    {
      "midi": 69,
      "hit": false,
      "t": 71854.69499999995,
      "d": 161.2899999999936,
      "v": 65
    },
    {
      "midi": 76,
      "hit": false,
      "t": 71854.695,
      "d": 483.86999999999534,
      "v": 127
    },
    {
      "midi": 38,
      "hit": false,
      "t": 72096.62999999971,
      "d": 161.2899999999936,
      "v": 127
    },
    {
      "midi": 74,
      "hit": false,
      "t": 72096.62999999995,
      "d": 161.2899999999936,
      "v": 65
    },
    {
      "midi": 35,
      "hit": false,
      "t": 72338.56499999971,
      "d": 80.64500000000407,
      "v": 127
    },
    {
      "midi": 74,
      "hit": false,
      "t": 72338.565,
      "d": 483.86999999999534,
      "v": 127
    },
    {
      "midi": 36,
      "hit": false,
      "t": 72459.53249999971,
      "d": 80.64500000000407,
      "v": 127
    },
    {
      "midi": 76,
      "hit": false,
      "t": 72459.53249999994,
      "d": 161.2899999999936,
      "v": 65
    },
    {
      "midi": 35,
      "hit": false,
      "t": 72701.46749999971,
      "d": 80.64500000000407,
      "v": 127
    },
    {
      "midi": 36,
      "hit": false,
      "t": 72822.4349999997,
      "d": 80.64500000000407,
      "v": 127
    },
    {
      "midi": 74,
      "hit": false,
      "t": 72822.43499999994,
      "d": 1129.0299999999843,
      "v": 65
    },
    {
      "midi": 72,
      "hit": false,
      "t": 72822.435,
      "d": 483.86999999999534,
      "v": 127
    },
    {
      "midi": 38,
      "hit": false,
      "t": 73064.3699999997,
      "d": 80.64500000000407,
      "v": 127
    },
    {
      "midi": 36,
      "hit": false,
      "t": 73306.3049999997,
      "d": 80.64500000000407,
      "v": 127
    },
    {
      "midi": 36,
      "hit": false,
      "t": 73548.2399999997,
      "d": 161.2899999999936,
      "v": 127
    },
    {
      "midi": 62,
      "hit": false,
      "t": 73548.23999999993,
      "d": 80.64500000000407,
      "v": 65
    },
    {
      "midi": 58,
      "hit": false,
      "t": 73548.23999999993,
      "d": 1935.479999999996,
      "v": 46
    },
    {
      "midi": 53,
      "hit": false,
      "t": 73548.23999999993,
      "d": 1935.479999999996,
      "v": 46
    },
    {
      "midi": 50,
      "hit": false,
      "t": 73548.23999999993,
      "d": 1935.479999999996,
      "v": 46
    },
    {
      "midi": 46,
      "hit": false,
      "t": 73548.23999999993,
      "d": 3870.9599999999773,
      "v": 46
    },
    {
      "midi": 58,
      "hit": false,
      "t": 73548.23999999993,
      "d": 1935.479999999996,
      "v": 40
    },
    {
      "midi": 53,
      "hit": false,
      "t": 73548.23999999993,
      "d": 1935.479999999996,
      "v": 40
    },
    {
      "midi": 50,
      "hit": false,
      "t": 73548.23999999993,
      "d": 1935.479999999996,
      "v": 40
    },
    {
      "midi": 46,
      "hit": false,
      "t": 73548.23999999993,
      "d": 3870.9599999999773,
      "v": 40
    },
    {
      "midi": 74,
      "hit": false,
      "t": 73548.23999999999,
      "d": 725.804999999993,
      "v": 127
    },
    {
      "midi": 34,
      "hit": false,
      "t": 73548.24,
      "d": 1935.479999999996,
      "v": 100
    },
    {
      "midi": 34,
      "hit": false,
      "t": 73548.24,
      "d": 1935.479999999996,
      "v": 100
    },
    {
      "midi": 58,
      "hit": false,
      "t": 73548.24000000002,
      "d": 3870.9600000000064,
      "v": 54
    },
    {
      "midi": 62,
      "hit": false,
      "t": 73548.24000000002,
      "d": 3870.9600000000064,
      "v": 54
    },
    {
      "midi": 34,
      "hit": false,
      "t": 73548.24000000002,
      "d": 1935.479999999996,
      "v": 84
    },
    {
      "midi": 36,
      "hit": false,
      "t": 73790.1749999997,
      "d": 161.2899999999936,
      "v": 127
    },
    {
      "midi": 69,
      "hit": false,
      "t": 73790.17499999993,
      "d": 161.2899999999936,
      "v": 65
    },
    {
      "midi": 38,
      "hit": false,
      "t": 74032.1099999997,
      "d": 161.2899999999936,
      "v": 127
    },
    {
      "midi": 74,
      "hit": false,
      "t": 74032.10999999993,
      "d": 161.2899999999936,
      "v": 65
    },
    {
      "midi": 35,
      "hit": false,
      "t": 74274.04499999969,
      "d": 80.64500000000407,
      "v": 127
    },
    {
      "midi": 77,
      "hit": false,
      "t": 74274.04499999998,
      "d": 725.804999999993,
      "v": 127
    },
    {
      "midi": 36,
      "hit": false,
      "t": 74395.01249999969,
      "d": 80.64500000000407,
      "v": 127
    },
    {
      "midi": 76,
      "hit": false,
      "t": 74395.01249999992,
      "d": 161.2899999999936,
      "v": 65
    },
    {
      "midi": 35,
      "hit": false,
      "t": 74636.94749999969,
      "d": 80.64500000000407,
      "v": 127
    },
    {
      "midi": 36,
      "hit": false,
      "t": 74757.91499999969,
      "d": 80.64500000000407,
      "v": 127
    },
    {
      "midi": 74,
      "hit": false,
      "t": 74757.91499999992,
      "d": 1129.0299999999988,
      "v": 65
    },
    {
      "midi": 38,
      "hit": false,
      "t": 74999.84999999969,
      "d": 80.64500000000407,
      "v": 127
    },
    {
      "midi": 81,
      "hit": false,
      "t": 74999.84999999998,
      "d": 241.93499999999767,
      "v": 127
    },
    {
      "midi": 36,
      "hit": false,
      "t": 75241.78499999968,
      "d": 80.64500000000407,
      "v": 127
    },
    {
      "midi": 79,
      "hit": false,
      "t": 75241.78499999997,
      "d": 483.86999999999534,
      "v": 127
    },
    {
      "midi": 36,
      "hit": false,
      "t": 75483.71999999968,
      "d": 161.2899999999936,
      "v": 127
    },
    {
      "midi": 34,
      "hit": false,
      "t": 75483.72,
      "d": 1935.479999999996,
      "v": 100
    },
    {
      "midi": 34,
      "hit": false,
      "t": 75483.72,
      "d": 1935.479999999996,
      "v": 100
    },
    {
      "midi": 34,
      "hit": false,
      "t": 75483.72000000002,
      "d": 1935.479999999996,
      "v": 84
    },
    {
      "midi": 36,
      "hit": false,
      "t": 75725.65499999968,
      "d": 161.2899999999936,
      "v": 127
    },
    {
      "midi": 60,
      "hit": false,
      "t": 75725.65499999993,
      "d": 483.86999999999534,
      "v": 46
    },
    {
      "midi": 58,
      "hit": false,
      "t": 75725.65499999993,
      "d": 483.86999999999534,
      "v": 46
    },
    {
      "midi": 53,
      "hit": false,
      "t": 75725.65499999993,
      "d": 483.86999999999534,
      "v": 46
    },
    {
      "midi": 50,
      "hit": false,
      "t": 75725.65499999993,
      "d": 483.86999999999534,
      "v": 46
    },
    {
      "midi": 60,
      "hit": false,
      "t": 75725.65499999993,
      "d": 483.86999999999534,
      "v": 40
    },
    {
      "midi": 58,
      "hit": false,
      "t": 75725.65499999993,
      "d": 483.86999999999534,
      "v": 40
    },
    {
      "midi": 53,
      "hit": false,
      "t": 75725.65499999993,
      "d": 483.86999999999534,
      "v": 40
    },
    {
      "midi": 50,
      "hit": false,
      "t": 75725.65499999993,
      "d": 483.86999999999534,
      "v": 40
    },
    {
      "midi": 81,
      "hit": false,
      "t": 75725.65499999997,
      "d": 1693.5449999999983,
      "v": 127
    },
    {
      "midi": 70,
      "hit": false,
      "t": 75725.65500000003,
      "d": 80.64500000000407,
      "v": 107
    },
    {
      "midi": 58,
      "hit": false,
      "t": 75781.09843750003,
      "d": 80.64500000000407,
      "v": 127
    },
    {
      "midi": 38,
      "hit": false,
      "t": 75967.58999999968,
      "d": 161.2899999999936,
      "v": 127
    },
    {
      "midi": 35,
      "hit": false,
      "t": 76209.52499999967,
      "d": 80.64500000000407,
      "v": 127
    },
    {
      "midi": 60,
      "hit": false,
      "t": 76209.52499999992,
      "d": 483.86999999999534,
      "v": 46
    },
    {
      "midi": 58,
      "hit": false,
      "t": 76209.52499999992,
      "d": 483.86999999999534,
      "v": 46
    },
    {
      "midi": 53,
      "hit": false,
      "t": 76209.52499999992,
      "d": 483.86999999999534,
      "v": 46
    },
    {
      "midi": 50,
      "hit": false,
      "t": 76209.52499999992,
      "d": 483.86999999999534,
      "v": 46
    },
    {
      "midi": 60,
      "hit": false,
      "t": 76209.52499999992,
      "d": 483.86999999999534,
      "v": 40
    },
    {
      "midi": 58,
      "hit": false,
      "t": 76209.52499999992,
      "d": 483.86999999999534,
      "v": 40
    },
    {
      "midi": 53,
      "hit": false,
      "t": 76209.52499999992,
      "d": 483.86999999999534,
      "v": 40
    },
    {
      "midi": 50,
      "hit": false,
      "t": 76209.52499999992,
      "d": 483.86999999999534,
      "v": 40
    },
    {
      "midi": 69,
      "hit": false,
      "t": 76209.52500000002,
      "d": 80.64500000000407,
      "v": 105
    },
    {
      "midi": 58,
      "hit": false,
      "t": 76300.25062500003,
      "d": 80.64500000000407,
      "v": 127
    },
    {
      "midi": 36,
      "hit": false,
      "t": 76330.49249999967,
      "d": 80.64500000000407,
      "v": 127
    },
    {
      "midi": 35,
      "hit": false,
      "t": 76572.42749999967,
      "d": 80.64500000000407,
      "v": 127
    },
    {
      "midi": 36,
      "hit": false,
      "t": 76693.39499999967,
      "d": 80.64500000000407,
      "v": 127
    },
    {
      "midi": 62,
      "hit": false,
      "t": 76693.39499999992,
      "d": 473.789374999993,
      "v": 46
    },
    {
      "midi": 58,
      "hit": false,
      "t": 76693.39499999992,
      "d": 483.86999999999534,
      "v": 46
    },
    {
      "midi": 53,
      "hit": false,
      "t": 76693.39499999992,
      "d": 483.86999999999534,
      "v": 46
    },
    {
      "midi": 50,
      "hit": false,
      "t": 76693.39499999992,
      "d": 483.86999999999534,
      "v": 46
    },
    {
      "midi": 62,
      "hit": false,
      "t": 76693.39499999992,
      "d": 473.789374999993,
      "v": 40
    },
    {
      "midi": 58,
      "hit": false,
      "t": 76693.39499999992,
      "d": 483.86999999999534,
      "v": 40
    },
    {
      "midi": 53,
      "hit": false,
      "t": 76693.39499999992,
      "d": 483.86999999999534,
      "v": 40
    },
    {
      "midi": 50,
      "hit": false,
      "t": 76693.39499999992,
      "d": 483.86999999999534,
      "v": 40
    },
    {
      "midi": 67,
      "hit": false,
      "t": 76693.39500000003,
      "d": 80.64500000000407,
      "v": 107
    },
    {
      "midi": 57,
      "hit": false,
      "t": 76693.39500000003,
      "d": 161.29000000000815,
      "v": 127
    },
    {
      "midi": 58,
      "hit": false,
      "t": 76774.04000000004,
      "d": 80.64500000000407,
      "v": 127
    },
    {
      "midi": 38,
      "hit": false,
      "t": 76935.32999999967,
      "d": 80.64500000000407,
      "v": 127
    },
    {
      "midi": 40,
      "hit": false,
      "t": 76935.32999999967,
      "d": 80.64500000000407,
      "v": 127
    },
    {
      "midi": 55,
      "hit": false,
      "t": 76935.33000000005,
      "d": 604.8375000000233,
      "v": 127
    },
    {
      "midi": 40,
      "hit": false,
      "t": 77056.29749999967,
      "d": 80.64500000000407,
      "v": 127
    },
    {
      "midi": 36,
      "hit": false,
      "t": 77177.26499999966,
      "d": 80.64500000000407,
      "v": 127
    },
    {
      "midi": 47,
      "hit": false,
      "t": 77177.26499999966,
      "d": 80.64500000000407,
      "v": 127
    },
    {
      "midi": 45,
      "hit": false,
      "t": 77298.23249999966,
      "d": 80.64500000000407,
      "v": 127
    },
    {
      "midi": 43,
      "hit": false,
      "t": 77419.19999999966,
      "d": 80.64500000000407,
      "v": 127
    },
    {
      "midi": 36,
      "hit": false,
      "t": 77419.19999999966,
      "d": 161.29000000000815,
      "v": 127
    },
    {
      "midi": 55,
      "hit": false,
      "t": 77419.19999999991,
      "d": 967.7400000000052,
      "v": 46
    },
    {
      "midi": 58,
      "hit": false,
      "t": 77419.19999999991,
      "d": 967.7400000000052,
      "v": 46
    },
    {
      "midi": 50,
      "hit": false,
      "t": 77419.19999999991,
      "d": 967.7400000000052,
      "v": 46
    },
    {
      "midi": 55,
      "hit": false,
      "t": 77419.19999999991,
      "d": 967.7400000000052,
      "v": 40
    },
    {
      "midi": 58,
      "hit": false,
      "t": 77419.19999999991,
      "d": 967.7400000000052,
      "v": 40
    },
    {
      "midi": 50,
      "hit": false,
      "t": 77419.19999999991,
      "d": 967.7400000000052,
      "v": 40
    },
    {
      "midi": 31,
      "hit": false,
      "t": 77419.2,
      "d": 1935.479999999996,
      "v": 100
    },
    {
      "midi": 31,
      "hit": false,
      "t": 77419.2,
      "d": 1935.479999999996,
      "v": 100
    },
    {
      "midi": 31,
      "hit": false,
      "t": 77419.20000000001,
      "d": 1935.479999999996,
      "v": 84
    },
    {
      "midi": 70,
      "hit": false,
      "t": 77419.20000000003,
      "d": 1935.479999999996,
      "v": 54
    },
    {
      "midi": 67,
      "hit": false,
      "t": 77419.20000000003,
      "d": 1935.479999999996,
      "v": 54
    },
    {
      "midi": 36,
      "hit": false,
      "t": 77661.13499999967,
      "d": 161.2899999999936,
      "v": 127
    },
    {
      "midi": 38,
      "hit": false,
      "t": 77903.06999999967,
      "d": 161.2899999999936,
      "v": 127
    },
    {
      "midi": 35,
      "hit": false,
      "t": 78145.00499999967,
      "d": 80.64500000000407,
      "v": 127
    },
    {
      "midi": 36,
      "hit": false,
      "t": 78265.97249999967,
      "d": 80.64500000000407,
      "v": 127
    },
    {
      "midi": 82,
      "hit": false,
      "t": 78386.93999999997,
      "d": 241.93499999999767,
      "v": 127
    },
    {
      "midi": 35,
      "hit": false,
      "t": 78507.90749999967,
      "d": 80.64500000000407,
      "v": 127
    },
    {
      "midi": 36,
      "hit": false,
      "t": 78628.87499999967,
      "d": 80.64500000000407,
      "v": 127
    },
    {
      "midi": 58,
      "hit": false,
      "t": 78628.87499999991,
      "d": 483.86999999999534,
      "v": 46
    },
    {
      "midi": 55,
      "hit": false,
      "t": 78628.87499999991,
      "d": 483.86999999999534,
      "v": 46
    },
    {
      "midi": 50,
      "hit": false,
      "t": 78628.87499999991,
      "d": 483.86999999999534,
      "v": 46
    },
    {
      "midi": 58,
      "hit": false,
      "t": 78628.87499999991,
      "d": 483.86999999999534,
      "v": 40
    },
    {
      "midi": 55,
      "hit": false,
      "t": 78628.87499999991,
      "d": 483.86999999999534,
      "v": 40
    },
    {
      "midi": 50,
      "hit": false,
      "t": 78628.87499999991,
      "d": 483.86999999999534,
      "v": 40
    },
    {
      "midi": 82,
      "hit": false,
      "t": 78628.87499999997,
      "d": 483.86999999999534,
      "v": 127
    },
    {
      "midi": 38,
      "hit": false,
      "t": 78870.80999999966,
      "d": 80.64500000000407,
      "v": 127
    },
    {
      "midi": 36,
      "hit": false,
      "t": 79112.74499999966,
      "d": 80.64500000000407,
      "v": 127
    },
    {
      "midi": 81,
      "hit": false,
      "t": 79112.74499999997,
      "d": 483.86999999999534,
      "v": 127
    },
    {
      "midi": 36,
      "hit": false,
      "t": 79354.67999999966,
      "d": 161.2899999999936,
      "v": 127
    },
    {
      "midi": 55,
      "hit": false,
      "t": 79354.6799999999,
      "d": 725.804999999993,
      "v": 46
    },
    {
      "midi": 52,
      "hit": false,
      "t": 79354.6799999999,
      "d": 725.804999999993,
      "v": 46
    },
    {
      "midi": 48,
      "hit": false,
      "t": 79354.6799999999,
      "d": 725.804999999993,
      "v": 46
    },
    {
      "midi": 55,
      "hit": false,
      "t": 79354.6799999999,
      "d": 725.804999999993,
      "v": 40
    },
    {
      "midi": 52,
      "hit": false,
      "t": 79354.6799999999,
      "d": 725.804999999993,
      "v": 40
    },
    {
      "midi": 48,
      "hit": false,
      "t": 79354.6799999999,
      "d": 725.804999999993,
      "v": 40
    },
    {
      "midi": 31,
      "hit": false,
      "t": 79354.68,
      "d": 1935.479999999996,
      "v": 100
    },
    {
      "midi": 31,
      "hit": false,
      "t": 79354.68,
      "d": 1935.479999999996,
      "v": 100
    },
    {
      "midi": 31,
      "hit": false,
      "t": 79354.68000000001,
      "d": 1935.479999999996,
      "v": 84
    },
    {
      "midi": 72,
      "hit": false,
      "t": 79354.68000000002,
      "d": 1935.479999999996,
      "v": 54
    },
    {
      "midi": 69,
      "hit": false,
      "t": 79354.68000000002,
      "d": 1935.479999999996,
      "v": 54
    },
    {
      "midi": 36,
      "hit": false,
      "t": 79596.61499999966,
      "d": 161.2899999999936,
      "v": 127
    },
    {
      "midi": 79,
      "hit": false,
      "t": 79596.61499999996,
      "d": 483.86999999999534,
      "v": 127
    },
    {
      "midi": 38,
      "hit": false,
      "t": 79838.54999999965,
      "d": 161.2899999999936,
      "v": 127
    },
    {
      "midi": 35,
      "hit": false,
      "t": 80080.48499999965,
      "d": 80.64500000000407,
      "v": 127
    },
    {
      "midi": 52,
      "hit": false,
      "t": 80080.4849999999,
      "d": 241.93499999999767,
      "v": 46
    },
    {
      "midi": 55,
      "hit": false,
      "t": 80080.4849999999,
      "d": 241.93499999999767,
      "v": 46
    },
    {
      "midi": 48,
      "hit": false,
      "t": 80080.4849999999,
      "d": 241.93499999999767,
      "v": 46
    },
    {
      "midi": 52,
      "hit": false,
      "t": 80080.4849999999,
      "d": 241.93499999999767,
      "v": 40
    },
    {
      "midi": 55,
      "hit": false,
      "t": 80080.4849999999,
      "d": 241.93499999999767,
      "v": 40
    },
    {
      "midi": 48,
      "hit": false,
      "t": 80080.4849999999,
      "d": 241.93499999999767,
      "v": 40
    },
    {
      "midi": 77,
      "hit": false,
      "t": 80080.48499999996,
      "d": 483.86999999999534,
      "v": 127
    },
    {
      "midi": 36,
      "hit": false,
      "t": 80201.45249999965,
      "d": 80.64500000000407,
      "v": 127
    },
    {
      "midi": 35,
      "hit": false,
      "t": 80443.38749999965,
      "d": 80.64500000000407,
      "v": 127
    },
    {
      "midi": 36,
      "hit": false,
      "t": 80564.35499999965,
      "d": 80.64500000000407,
      "v": 127
    },
    {
      "midi": 52,
      "hit": false,
      "t": 80564.3549999999,
      "d": 241.93499999999767,
      "v": 46
    },
    {
      "midi": 55,
      "hit": false,
      "t": 80564.3549999999,
      "d": 241.93499999999767,
      "v": 46
    },
    {
      "midi": 48,
      "hit": false,
      "t": 80564.3549999999,
      "d": 241.93499999999767,
      "v": 46
    },
    {
      "midi": 52,
      "hit": false,
      "t": 80564.3549999999,
      "d": 241.93499999999767,
      "v": 40
    },
    {
      "midi": 55,
      "hit": false,
      "t": 80564.3549999999,
      "d": 241.93499999999767,
      "v": 40
    },
    {
      "midi": 48,
      "hit": false,
      "t": 80564.3549999999,
      "d": 241.93499999999767,
      "v": 40
    },
    {
      "midi": 79,
      "hit": false,
      "t": 80564.35499999995,
      "d": 483.86999999999534,
      "v": 127
    },
    {
      "midi": 38,
      "hit": false,
      "t": 80806.28999999964,
      "d": 80.64500000000407,
      "v": 127
    },
    {
      "midi": 36,
      "hit": false,
      "t": 81048.22499999964,
      "d": 80.64500000000407,
      "v": 127
    },
    {
      "midi": 81,
      "hit": false,
      "t": 81048.22499999995,
      "d": 967.7400000000052,
      "v": 127
    },
    {
      "midi": 36,
      "hit": false,
      "t": 81290.15999999964,
      "d": 161.2899999999936,
      "v": 127
    },
    {
      "midi": 57,
      "hit": false,
      "t": 81290.15999999989,
      "d": 1451.6100000000006,
      "v": 46
    },
    {
      "midi": 60,
      "hit": false,
      "t": 81290.15999999989,
      "d": 1451.6100000000006,
      "v": 46
    },
    {
      "midi": 65,
      "hit": false,
      "t": 81290.15999999989,
      "d": 1935.479999999996,
      "v": 46
    },
    {
      "midi": 57,
      "hit": false,
      "t": 81290.15999999989,
      "d": 1451.6100000000006,
      "v": 40
    },
    {
      "midi": 60,
      "hit": false,
      "t": 81290.15999999989,
      "d": 1451.6100000000006,
      "v": 40
    },
    {
      "midi": 65,
      "hit": false,
      "t": 81290.15999999989,
      "d": 1935.479999999996,
      "v": 40
    },
    {
      "midi": 41,
      "hit": false,
      "t": 81290.15999999999,
      "d": 1935.479999999996,
      "v": 100
    },
    {
      "midi": 41,
      "hit": false,
      "t": 81290.15999999999,
      "d": 1935.479999999996,
      "v": 100
    },
    {
      "midi": 41,
      "hit": false,
      "t": 81290.16,
      "d": 1935.479999999996,
      "v": 84
    },
    {
      "midi": 72,
      "hit": false,
      "t": 81290.16000000002,
      "d": 1935.479999999996,
      "v": 54
    },
    {
      "midi": 69,
      "hit": false,
      "t": 81290.16000000002,
      "d": 1935.479999999996,
      "v": 54
    },
    {
      "midi": 36,
      "hit": false,
      "t": 81532.09499999964,
      "d": 161.2899999999936,
      "v": 127
    },
    {
      "midi": 38,
      "hit": false,
      "t": 81774.02999999964,
      "d": 161.2899999999936,
      "v": 127
    },
    {
      "midi": 35,
      "hit": false,
      "t": 82015.96499999963,
      "d": 80.64500000000407,
      "v": 127
    },
    {
      "midi": 36,
      "hit": false,
      "t": 82136.93249999963,
      "d": 80.64500000000407,
      "v": 127
    },
    {
      "midi": 48,
      "hit": false,
      "t": 82257.89999999989,
      "d": 241.93499999999767,
      "v": 17
    },
    {
      "midi": 48,
      "hit": false,
      "t": 82257.89999999989,
      "d": 241.93499999999767,
      "v": 14
    },
    {
      "midi": 35,
      "hit": false,
      "t": 82378.86749999963,
      "d": 80.64500000000407,
      "v": 127
    },
    {
      "midi": 36,
      "hit": false,
      "t": 82499.83499999963,
      "d": 80.64500000000407,
      "v": 127
    },
    {
      "midi": 53,
      "hit": false,
      "t": 82499.83499999989,
      "d": 241.93499999999767,
      "v": 16
    },
    {
      "midi": 53,
      "hit": false,
      "t": 82499.83499999989,
      "d": 241.93499999999767,
      "v": 14
    },
    {
      "midi": 79,
      "hit": false,
      "t": 82499.83499999995,
      "d": 241.93499999999767,
      "v": 127
    },
    {
      "midi": 38,
      "hit": false,
      "t": 82741.76999999963,
      "d": 80.64500000000407,
      "v": 127
    },
    {
      "midi": 60,
      "hit": false,
      "t": 82741.76999999989,
      "d": 483.86999999999534,
      "v": 46
    },
    {
      "midi": 57,
      "hit": false,
      "t": 82741.76999999989,
      "d": 483.86999999999534,
      "v": 46
    },
    {
      "midi": 60,
      "hit": false,
      "t": 82741.76999999989,
      "d": 483.86999999999534,
      "v": 40
    },
    {
      "midi": 57,
      "hit": false,
      "t": 82741.76999999989,
      "d": 483.86999999999534,
      "v": 40
    },
    {
      "midi": 77,
      "hit": false,
      "t": 82741.76999999995,
      "d": 241.93499999999767,
      "v": 127
    },
    {
      "midi": 36,
      "hit": false,
      "t": 82983.70499999962,
      "d": 80.64500000000407,
      "v": 127
    },
    {
      "midi": 81,
      "hit": false,
      "t": 82983.70499999994,
      "d": 2177.4149999999936,
      "v": 127
    },
    {
      "midi": 36,
      "hit": false,
      "t": 83225.63999999962,
      "d": 161.2899999999936,
      "v": 127
    },
    {
      "midi": 61,
      "hit": false,
      "t": 83225.63999999988,
      "d": 483.86999999999534,
      "v": 46
    },
    {
      "midi": 57,
      "hit": false,
      "t": 83225.63999999988,
      "d": 483.86999999999534,
      "v": 46
    },
    {
      "midi": 64,
      "hit": false,
      "t": 83225.63999999988,
      "d": 483.86999999999534,
      "v": 46
    },
    {
      "midi": 61,
      "hit": false,
      "t": 83225.63999999988,
      "d": 483.86999999999534,
      "v": 40
    },
    {
      "midi": 57,
      "hit": false,
      "t": 83225.63999999988,
      "d": 483.86999999999534,
      "v": 40
    },
    {
      "midi": 64,
      "hit": false,
      "t": 83225.63999999988,
      "d": 483.86999999999534,
      "v": 40
    },
    {
      "midi": 45,
      "hit": false,
      "t": 83225.63999999998,
      "d": 1935.479999999996,
      "v": 100
    },
    {
      "midi": 45,
      "hit": false,
      "t": 83225.63999999998,
      "d": 1935.479999999996,
      "v": 100
    },
    {
      "midi": 45,
      "hit": false,
      "t": 83225.64,
      "d": 1935.479999999996,
      "v": 84
    },
    {
      "midi": 73,
      "hit": false,
      "t": 83225.64000000001,
      "d": 1935.479999999996,
      "v": 54
    },
    {
      "midi": 69,
      "hit": false,
      "t": 83225.64000000001,
      "d": 1935.479999999996,
      "v": 54
    },
    {
      "midi": 36,
      "hit": false,
      "t": 83467.57499999962,
      "d": 161.2899999999936,
      "v": 127
    },
    {
      "midi": 38,
      "hit": false,
      "t": 83709.50999999962,
      "d": 161.2899999999936,
      "v": 127
    },
    {
      "midi": 35,
      "hit": false,
      "t": 83951.44499999961,
      "d": 80.64500000000407,
      "v": 127
    },
    {
      "midi": 64,
      "hit": false,
      "t": 83951.44499999988,
      "d": 241.93499999999767,
      "v": 46
    },
    {
      "midi": 61,
      "hit": false,
      "t": 83951.44499999988,
      "d": 241.93499999999767,
      "v": 46
    },
    {
      "midi": 57,
      "hit": false,
      "t": 83951.44499999988,
      "d": 241.93499999999767,
      "v": 46
    },
    {
      "midi": 64,
      "hit": false,
      "t": 83951.44499999988,
      "d": 241.93499999999767,
      "v": 40
    },
    {
      "midi": 61,
      "hit": false,
      "t": 83951.44499999988,
      "d": 241.93499999999767,
      "v": 40
    },
    {
      "midi": 57,
      "hit": false,
      "t": 83951.44499999988,
      "d": 241.93499999999767,
      "v": 40
    },
    {
      "midi": 36,
      "hit": false,
      "t": 84072.41249999961,
      "d": 80.64500000000407,
      "v": 127
    },
    {
      "midi": 35,
      "hit": false,
      "t": 84314.34749999961,
      "d": 80.64500000000407,
      "v": 127
    },
    {
      "midi": 36,
      "hit": false,
      "t": 84435.31499999961,
      "d": 80.64500000000407,
      "v": 127
    },
    {
      "midi": 64,
      "hit": false,
      "t": 84435.31499999987,
      "d": 241.93499999999767,
      "v": 46
    },
    {
      "midi": 61,
      "hit": false,
      "t": 84435.31499999987,
      "d": 241.93499999999767,
      "v": 46
    },
    {
      "midi": 57,
      "hit": false,
      "t": 84435.31499999987,
      "d": 241.93499999999767,
      "v": 46
    },
    {
      "midi": 64,
      "hit": false,
      "t": 84435.31499999987,
      "d": 241.93499999999767,
      "v": 40
    },
    {
      "midi": 61,
      "hit": false,
      "t": 84435.31499999987,
      "d": 241.93499999999767,
      "v": 40
    },
    {
      "midi": 57,
      "hit": false,
      "t": 84435.31499999987,
      "d": 241.93499999999767,
      "v": 40
    },
    {
      "midi": 38,
      "hit": false,
      "t": 84677.2499999996,
      "d": 80.64500000000407,
      "v": 127
    },
    {
      "midi": 36,
      "hit": false,
      "t": 84919.1849999996,
      "d": 80.64500000000407,
      "v": 127
    },
    {
      "midi": 43,
      "hit": false,
      "t": 84919.1849999996,
      "d": 80.64500000000407,
      "v": 127
    },
    {
      "midi": 43,
      "hit": false,
      "t": 85040.1524999996,
      "d": 80.64500000000407,
      "v": 127
    },
    {
      "midi": 36,
      "hit": false,
      "t": 85161.1199999996,
      "d": 161.2899999999936,
      "v": 127
    },
    {
      "midi": 49,
      "hit": false,
      "t": 85161.1199999996,
      "d": 1532.25499999999,
      "v": 127
    },
    {
      "midi": 62,
      "hit": false,
      "t": 85161.11999999986,
      "d": 967.7400000000052,
      "v": 46
    },
    {
      "midi": 57,
      "hit": false,
      "t": 85161.11999999986,
      "d": 967.7400000000052,
      "v": 46
    },
    {
      "midi": 53,
      "hit": false,
      "t": 85161.11999999986,
      "d": 967.7400000000052,
      "v": 46
    },
    {
      "midi": 65,
      "hit": false,
      "t": 85161.11999999986,
      "d": 967.7400000000052,
      "v": 46
    },
    {
      "midi": 62,
      "hit": false,
      "t": 85161.11999999986,
      "d": 967.7400000000052,
      "v": 40
    },
    {
      "midi": 57,
      "hit": false,
      "t": 85161.11999999986,
      "d": 967.7400000000052,
      "v": 40
    },
    {
      "midi": 53,
      "hit": false,
      "t": 85161.11999999986,
      "d": 967.7400000000052,
      "v": 40
    },
    {
      "midi": 65,
      "hit": false,
      "t": 85161.11999999986,
      "d": 967.7400000000052,
      "v": 40
    },
    {
      "midi": 62,
      "hit": false,
      "t": 85161.11999999992,
      "d": 80.64500000000407,
      "v": 65
    },
    {
      "midi": 81,
      "hit": false,
      "t": 85161.11999999994,
      "d": 725.804999999993,
      "v": 127
    },
    {
      "midi": 77,
      "hit": false,
      "t": 85161.11999999994,
      "d": 725.804999999993,
      "v": 127
    },
    {
      "midi": 38,
      "hit": false,
      "t": 85161.11999999998,
      "d": 1935.479999999996,
      "v": 100
    },
    {
      "midi": 38,
      "hit": false,
      "t": 85161.11999999998,
      "d": 1935.479999999996,
      "v": 100
    },
    {
      "midi": 38,
      "hit": false,
      "t": 85161.12,
      "d": 1935.479999999996,
      "v": 84
    },
    {
      "midi": 69,
      "hit": false,
      "t": 85161.12000000001,
      "d": 1935.479999999996,
      "v": 54
    },
    {
      "midi": 65,
      "hit": false,
      "t": 85161.12000000001,
      "d": 1935.479999999996,
      "v": 54
    },
    {
      "midi": 36,
      "hit": false,
      "t": 85403.0549999996,
      "d": 161.2899999999936,
      "v": 127
    },
    {
      "midi": 69,
      "hit": false,
      "t": 85403.05499999992,
      "d": 161.2899999999936,
      "v": 65
    },
    {
      "midi": 38,
      "hit": false,
      "t": 85644.9899999996,
      "d": 161.2899999999936,
      "v": 127
    },
    {
      "midi": 74,
      "hit": false,
      "t": 85644.98999999992,
      "d": 161.2899999999936,
      "v": 65
    },
    {
      "midi": 35,
      "hit": false,
      "t": 85886.9249999996,
      "d": 80.64500000000407,
      "v": 127
    },
    {
      "midi": 79,
      "hit": false,
      "t": 85886.92499999993,
      "d": 483.86999999999534,
      "v": 127
    },
    {
      "midi": 76,
      "hit": false,
      "t": 85886.92499999993,
      "d": 483.86999999999534,
      "v": 127
    },
    {
      "midi": 36,
      "hit": false,
      "t": 86007.8924999996,
      "d": 80.64500000000407,
      "v": 127
    },
    {
      "midi": 76,
      "hit": false,
      "t": 86007.89249999991,
      "d": 161.2899999999936,
      "v": 65
    },
    {
      "midi": 35,
      "hit": false,
      "t": 86249.82749999959,
      "d": 80.64500000000407,
      "v": 127
    },
    {
      "midi": 36,
      "hit": false,
      "t": 86370.79499999959,
      "d": 80.64500000000407,
      "v": 127
    },
    {
      "midi": 74,
      "hit": false,
      "t": 86370.79499999991,
      "d": 1129.0299999999843,
      "v": 65
    },
    {
      "midi": 77,
      "hit": false,
      "t": 86370.79499999993,
      "d": 725.804999999993,
      "v": 127
    },
    {
      "midi": 74,
      "hit": false,
      "t": 86370.79499999993,
      "d": 725.804999999993,
      "v": 127
    },
    {
      "midi": 38,
      "hit": false,
      "t": 86612.72999999959,
      "d": 80.64500000000407,
      "v": 127
    },
    {
      "midi": 65,
      "hit": false,
      "t": 86612.72999999986,
      "d": 483.86999999999534,
      "v": 46
    },
    {
      "midi": 53,
      "hit": false,
      "t": 86612.72999999986,
      "d": 483.86999999999534,
      "v": 46
    },
    {
      "midi": 62,
      "hit": false,
      "t": 86612.72999999986,
      "d": 483.86999999999534,
      "v": 46
    },
    {
      "midi": 57,
      "hit": false,
      "t": 86612.72999999986,
      "d": 483.86999999999534,
      "v": 46
    },
    {
      "midi": 65,
      "hit": false,
      "t": 86612.72999999986,
      "d": 483.86999999999534,
      "v": 40
    },
    {
      "midi": 53,
      "hit": false,
      "t": 86612.72999999986,
      "d": 483.86999999999534,
      "v": 40
    },
    {
      "midi": 62,
      "hit": false,
      "t": 86612.72999999986,
      "d": 483.86999999999534,
      "v": 40
    },
    {
      "midi": 57,
      "hit": false,
      "t": 86612.72999999986,
      "d": 483.86999999999534,
      "v": 40
    },
    {
      "midi": 36,
      "hit": false,
      "t": 86854.66499999959,
      "d": 80.64500000000407,
      "v": 127
    },
    {
      "midi": 36,
      "hit": false,
      "t": 87096.59999999958,
      "d": 161.2899999999936,
      "v": 127
    },
    {
      "midi": 62,
      "hit": false,
      "t": 87096.59999999986,
      "d": 241.93499999999767,
      "v": 46
    },
    {
      "midi": 58,
      "hit": false,
      "t": 87096.59999999986,
      "d": 241.93499999999767,
      "v": 46
    },
    {
      "midi": 50,
      "hit": false,
      "t": 87096.59999999986,
      "d": 241.93499999999767,
      "v": 46
    },
    {
      "midi": 53,
      "hit": false,
      "t": 87096.59999999986,
      "d": 241.93499999999767,
      "v": 46
    },
    {
      "midi": 62,
      "hit": false,
      "t": 87096.59999999986,
      "d": 241.93499999999767,
      "v": 40
    },
    {
      "midi": 58,
      "hit": false,
      "t": 87096.59999999986,
      "d": 241.93499999999767,
      "v": 40
    },
    {
      "midi": 50,
      "hit": false,
      "t": 87096.59999999986,
      "d": 241.93499999999767,
      "v": 40
    },
    {
      "midi": 53,
      "hit": false,
      "t": 87096.59999999986,
      "d": 241.93499999999767,
      "v": 40
    },
    {
      "midi": 62,
      "hit": false,
      "t": 87096.5999999999,
      "d": 80.64500000000407,
      "v": 65
    },
    {
      "midi": 74,
      "hit": false,
      "t": 87096.59999999992,
      "d": 967.7400000000052,
      "v": 127
    },
    {
      "midi": 70,
      "hit": false,
      "t": 87096.59999999992,
      "d": 967.7400000000052,
      "v": 127
    },
    {
      "midi": 34,
      "hit": false,
      "t": 87096.59999999998,
      "d": 1935.479999999996,
      "v": 100
    },
    {
      "midi": 34,
      "hit": false,
      "t": 87096.59999999998,
      "d": 1935.479999999996,
      "v": 100
    },
    {
      "midi": 34,
      "hit": false,
      "t": 87096.59999999999,
      "d": 1935.479999999996,
      "v": 84
    },
    {
      "midi": 70,
      "hit": false,
      "t": 87096.6,
      "d": 1935.479999999996,
      "v": 54
    },
    {
      "midi": 67,
      "hit": false,
      "t": 87096.6,
      "d": 1935.479999999996,
      "v": 54
    },
    {
      "midi": 36,
      "hit": false,
      "t": 87338.53499999958,
      "d": 161.2899999999936,
      "v": 127
    },
    {
      "midi": 69,
      "hit": false,
      "t": 87338.5349999999,
      "d": 161.2899999999936,
      "v": 65
    },
    {
      "midi": 38,
      "hit": false,
      "t": 87580.46999999958,
      "d": 161.2899999999936,
      "v": 127
    },
    {
      "midi": 74,
      "hit": false,
      "t": 87580.4699999999,
      "d": 161.2899999999936,
      "v": 65
    },
    {
      "midi": 35,
      "hit": false,
      "t": 87822.40499999958,
      "d": 80.64500000000407,
      "v": 127
    },
    {
      "midi": 62,
      "hit": false,
      "t": 87822.40499999985,
      "d": 241.93499999999767,
      "v": 46
    },
    {
      "midi": 58,
      "hit": false,
      "t": 87822.40499999985,
      "d": 241.93499999999767,
      "v": 46
    },
    {
      "midi": 50,
      "hit": false,
      "t": 87822.40499999985,
      "d": 241.93499999999767,
      "v": 46
    },
    {
      "midi": 53,
      "hit": false,
      "t": 87822.40499999985,
      "d": 241.93499999999767,
      "v": 46
    },
    {
      "midi": 62,
      "hit": false,
      "t": 87822.40499999985,
      "d": 241.93499999999767,
      "v": 40
    },
    {
      "midi": 58,
      "hit": false,
      "t": 87822.40499999985,
      "d": 241.93499999999767,
      "v": 40
    },
    {
      "midi": 50,
      "hit": false,
      "t": 87822.40499999985,
      "d": 241.93499999999767,
      "v": 40
    },
    {
      "midi": 53,
      "hit": false,
      "t": 87822.40499999985,
      "d": 241.93499999999767,
      "v": 40
    },
    {
      "midi": 36,
      "hit": false,
      "t": 87943.37249999958,
      "d": 80.64500000000407,
      "v": 127
    },
    {
      "midi": 76,
      "hit": false,
      "t": 87943.3724999999,
      "d": 161.2899999999936,
      "v": 65
    },
    {
      "midi": 74,
      "hit": false,
      "t": 88064.33999999992,
      "d": 483.86999999999534,
      "v": 127
    },
    {
      "midi": 77,
      "hit": false,
      "t": 88064.33999999992,
      "d": 483.86999999999534,
      "v": 127
    },
    {
      "midi": 35,
      "hit": false,
      "t": 88185.30749999957,
      "d": 80.64500000000407,
      "v": 127
    },
    {
      "midi": 36,
      "hit": false,
      "t": 88306.27499999957,
      "d": 80.64500000000407,
      "v": 127
    },
    {
      "midi": 62,
      "hit": false,
      "t": 88306.27499999985,
      "d": 241.93499999999767,
      "v": 46
    },
    {
      "midi": 58,
      "hit": false,
      "t": 88306.27499999985,
      "d": 241.93499999999767,
      "v": 46
    },
    {
      "midi": 50,
      "hit": false,
      "t": 88306.27499999985,
      "d": 241.93499999999767,
      "v": 46
    },
    {
      "midi": 53,
      "hit": false,
      "t": 88306.27499999985,
      "d": 241.93499999999767,
      "v": 46
    },
    {
      "midi": 62,
      "hit": false,
      "t": 88306.27499999985,
      "d": 241.93499999999767,
      "v": 40
    },
    {
      "midi": 58,
      "hit": false,
      "t": 88306.27499999985,
      "d": 241.93499999999767,
      "v": 40
    },
    {
      "midi": 50,
      "hit": false,
      "t": 88306.27499999985,
      "d": 241.93499999999767,
      "v": 40
    },
    {
      "midi": 53,
      "hit": false,
      "t": 88306.27499999985,
      "d": 241.93499999999767,
      "v": 40
    },
    {
      "midi": 74,
      "hit": false,
      "t": 88306.27499999989,
      "d": 1129.0299999999988,
      "v": 65
    },
    {
      "midi": 38,
      "hit": false,
      "t": 88548.20999999957,
      "d": 80.64500000000407,
      "v": 127
    },
    {
      "midi": 79,
      "hit": false,
      "t": 88548.20999999992,
      "d": 483.86999999999534,
      "v": 127
    },
    {
      "midi": 76,
      "hit": false,
      "t": 88548.20999999992,
      "d": 483.86999999999534,
      "v": 127
    },
    {
      "midi": 36,
      "hit": false,
      "t": 88790.14499999957,
      "d": 80.64500000000407,
      "v": 127
    },
    {
      "midi": 36,
      "hit": false,
      "t": 89032.07999999957,
      "d": 161.2899999999936,
      "v": 127
    },
    {
      "midi": 60,
      "hit": false,
      "t": 89032.07999999984,
      "d": 967.7399999999907,
      "v": 46
    },
    {
      "midi": 48,
      "hit": false,
      "t": 89032.07999999984,
      "d": 1935.4799999999814,
      "v": 46
    },
    {
      "midi": 57,
      "hit": false,
      "t": 89032.07999999984,
      "d": 1935.4799999999814,
      "v": 46
    },
    {
      "midi": 53,
      "hit": false,
      "t": 89032.07999999984,
      "d": 1935.4799999999814,
      "v": 46
    },
    {
      "midi": 60,
      "hit": false,
      "t": 89032.07999999984,
      "d": 967.7399999999907,
      "v": 40
    },
    {
      "midi": 48,
      "hit": false,
      "t": 89032.07999999984,
      "d": 1935.4799999999814,
      "v": 40
    },
    {
      "midi": 57,
      "hit": false,
      "t": 89032.07999999984,
      "d": 1935.4799999999814,
      "v": 40
    },
    {
      "midi": 53,
      "hit": false,
      "t": 89032.07999999984,
      "d": 1935.4799999999814,
      "v": 40
    },
    {
      "midi": 77,
      "hit": false,
      "t": 89032.07999999991,
      "d": 967.7400000000052,
      "v": 127
    },
    {
      "midi": 81,
      "hit": false,
      "t": 89032.07999999991,
      "d": 967.7400000000052,
      "v": 127
    },
    {
      "midi": 29,
      "hit": false,
      "t": 89032.07999999997,
      "d": 1935.479999999996,
      "v": 100
    },
    {
      "midi": 29,
      "hit": false,
      "t": 89032.07999999997,
      "d": 1935.479999999996,
      "v": 100
    },
    {
      "midi": 29,
      "hit": false,
      "t": 89032.07999999999,
      "d": 1935.479999999996,
      "v": 84
    },
    {
      "midi": 72,
      "hit": false,
      "t": 89032.08,
      "d": 1935.479999999996,
      "v": 54
    },
    {
      "midi": 69,
      "hit": false,
      "t": 89032.08,
      "d": 1935.479999999996,
      "v": 54
    },
    {
      "midi": 36,
      "hit": false,
      "t": 89274.01499999956,
      "d": 161.2899999999936,
      "v": 127
    },
    {
      "midi": 38,
      "hit": false,
      "t": 89515.94999999956,
      "d": 161.2899999999936,
      "v": 127
    },
    {
      "midi": 35,
      "hit": false,
      "t": 89757.88499999956,
      "d": 80.64500000000407,
      "v": 127
    },
    {
      "midi": 64,
      "hit": false,
      "t": 89757.88499999983,
      "d": 241.93499999999767,
      "v": 46
    },
    {
      "midi": 64,
      "hit": false,
      "t": 89757.88499999983,
      "d": 241.93499999999767,
      "v": 40
    },
    {
      "midi": 36,
      "hit": false,
      "t": 89878.85249999956,
      "d": 80.64500000000407,
      "v": 127
    },
    {
      "midi": 82,
      "hit": false,
      "t": 89999.81999999992,
      "d": 483.86999999999534,
      "v": 127
    },
    {
      "midi": 79,
      "hit": false,
      "t": 89999.81999999992,
      "d": 483.86999999999534,
      "v": 127
    },
    {
      "midi": 35,
      "hit": false,
      "t": 90120.78749999955,
      "d": 80.64500000000407,
      "v": 127
    },
    {
      "midi": 36,
      "hit": false,
      "t": 90241.75499999955,
      "d": 80.64500000000407,
      "v": 127
    },
    {
      "midi": 65,
      "hit": false,
      "t": 90241.75499999983,
      "d": 241.93499999999767,
      "v": 46
    },
    {
      "midi": 60,
      "hit": false,
      "t": 90241.75499999983,
      "d": 241.93499999999767,
      "v": 46
    },
    {
      "midi": 65,
      "hit": false,
      "t": 90241.75499999983,
      "d": 241.93499999999767,
      "v": 40
    },
    {
      "midi": 60,
      "hit": false,
      "t": 90241.75499999983,
      "d": 241.93499999999767,
      "v": 40
    },
    {
      "midi": 38,
      "hit": false,
      "t": 90483.68999999955,
      "d": 80.64500000000407,
      "v": 127
    },
    {
      "midi": 81,
      "hit": false,
      "t": 90483.68999999992,
      "d": 483.86999999999534,
      "v": 127
    },
    {
      "midi": 77,
      "hit": false,
      "t": 90483.68999999992,
      "d": 483.86999999999534,
      "v": 127
    },
    {
      "midi": 36,
      "hit": false,
      "t": 90725.62499999955,
      "d": 80.64500000000407,
      "v": 127
    },
    {
      "midi": 36,
      "hit": false,
      "t": 90967.55999999955,
      "d": 161.2899999999936,
      "v": 127
    },
    {
      "midi": 64,
      "hit": false,
      "t": 90967.55999999982,
      "d": 967.7400000000052,
      "v": 46
    },
    {
      "midi": 60,
      "hit": false,
      "t": 90967.55999999982,
      "d": 967.7400000000052,
      "v": 46
    },
    {
      "midi": 48,
      "hit": false,
      "t": 90967.55999999982,
      "d": 967.7400000000052,
      "v": 46
    },
    {
      "midi": 55,
      "hit": false,
      "t": 90967.55999999982,
      "d": 1935.479999999996,
      "v": 46
    },
    {
      "midi": 64,
      "hit": false,
      "t": 90967.55999999982,
      "d": 967.7400000000052,
      "v": 40
    },
    {
      "midi": 60,
      "hit": false,
      "t": 90967.55999999982,
      "d": 967.7400000000052,
      "v": 40
    },
    {
      "midi": 48,
      "hit": false,
      "t": 90967.55999999982,
      "d": 967.7400000000052,
      "v": 40
    },
    {
      "midi": 55,
      "hit": false,
      "t": 90967.55999999982,
      "d": 1935.479999999996,
      "v": 40
    },
    {
      "midi": 79,
      "hit": false,
      "t": 90967.55999999991,
      "d": 967.7400000000052,
      "v": 127
    },
    {
      "midi": 76,
      "hit": false,
      "t": 90967.55999999991,
      "d": 967.7400000000052,
      "v": 127
    },
    {
      "midi": 36,
      "hit": false,
      "t": 90967.55999999997,
      "d": 1935.479999999996,
      "v": 100
    },
    {
      "midi": 36,
      "hit": false,
      "t": 90967.55999999997,
      "d": 1935.479999999996,
      "v": 100
    },
    {
      "midi": 36,
      "hit": false,
      "t": 90967.55999999998,
      "d": 1935.479999999996,
      "v": 84
    },
    {
      "midi": 72,
      "hit": false,
      "t": 90967.56,
      "d": 1935.479999999996,
      "v": 54
    },
    {
      "midi": 67,
      "hit": false,
      "t": 90967.56,
      "d": 1935.479999999996,
      "v": 54
    },
    {
      "midi": 36,
      "hit": false,
      "t": 91209.49499999954,
      "d": 161.2899999999936,
      "v": 127
    },
    {
      "midi": 38,
      "hit": false,
      "t": 91451.42999999954,
      "d": 161.2899999999936,
      "v": 127
    },
    {
      "midi": 35,
      "hit": false,
      "t": 91693.36499999954,
      "d": 80.64500000000407,
      "v": 127
    },
    {
      "midi": 62,
      "hit": false,
      "t": 91693.36499999983,
      "d": 241.93499999999767,
      "v": 46
    },
    {
      "midi": 58,
      "hit": false,
      "t": 91693.36499999983,
      "d": 241.93499999999767,
      "v": 46
    },
    {
      "midi": 62,
      "hit": false,
      "t": 91693.36499999983,
      "d": 241.93499999999767,
      "v": 40
    },
    {
      "midi": 58,
      "hit": false,
      "t": 91693.36499999983,
      "d": 241.93499999999767,
      "v": 40
    },
    {
      "midi": 36,
      "hit": false,
      "t": 91814.33249999954,
      "d": 80.64500000000407,
      "v": 127
    },
    {
      "midi": 48,
      "hit": false,
      "t": 91935.29999999983,
      "d": 241.93499999999767,
      "v": 20
    },
    {
      "midi": 48,
      "hit": false,
      "t": 91935.29999999983,
      "d": 241.93499999999767,
      "v": 17
    },
    {
      "midi": 77,
      "hit": false,
      "t": 91935.29999999992,
      "d": 483.86999999999534,
      "v": 127
    },
    {
      "midi": 74,
      "hit": false,
      "t": 91935.29999999992,
      "d": 483.86999999999534,
      "v": 127
    },
    {
      "midi": 35,
      "hit": false,
      "t": 92056.26749999954,
      "d": 80.64500000000407,
      "v": 127
    },
    {
      "midi": 36,
      "hit": false,
      "t": 92177.23499999953,
      "d": 80.64500000000407,
      "v": 127
    },
    {
      "midi": 64,
      "hit": false,
      "t": 92177.23499999983,
      "d": 241.93499999999767,
      "v": 46
    },
    {
      "midi": 60,
      "hit": false,
      "t": 92177.23499999983,
      "d": 241.93499999999767,
      "v": 46
    },
    {
      "midi": 64,
      "hit": false,
      "t": 92177.23499999983,
      "d": 241.93499999999767,
      "v": 40
    },
    {
      "midi": 60,
      "hit": false,
      "t": 92177.23499999983,
      "d": 241.93499999999767,
      "v": 40
    },
    {
      "midi": 38,
      "hit": false,
      "t": 92419.16999999953,
      "d": 80.64500000000407,
      "v": 127
    },
    {
      "midi": 48,
      "hit": false,
      "t": 92419.16999999982,
      "d": 241.93499999999767,
      "v": 18
    },
    {
      "midi": 48,
      "hit": false,
      "t": 92419.16999999982,
      "d": 241.93499999999767,
      "v": 16
    },
    {
      "midi": 79,
      "hit": false,
      "t": 92419.16999999991,
      "d": 483.86999999999534,
      "v": 127
    },
    {
      "midi": 76,
      "hit": false,
      "t": 92419.16999999991,
      "d": 483.86999999999534,
      "v": 127
    },
    {
      "midi": 36,
      "hit": false,
      "t": 92661.10499999953,
      "d": 80.64500000000407,
      "v": 127
    },
    {
      "midi": 36,
      "hit": false,
      "t": 92903.03999999953,
      "d": 161.2899999999936,
      "v": 127
    },
    {
      "midi": 62,
      "hit": false,
      "t": 92903.03999999982,
      "d": 967.7400000000052,
      "v": 46
    },
    {
      "midi": 57,
      "hit": false,
      "t": 92903.03999999982,
      "d": 967.7400000000052,
      "v": 46
    },
    {
      "midi": 53,
      "hit": false,
      "t": 92903.03999999982,
      "d": 967.7400000000052,
      "v": 46
    },
    {
      "midi": 65,
      "hit": false,
      "t": 92903.03999999982,
      "d": 967.7400000000052,
      "v": 46
    },
    {
      "midi": 62,
      "hit": false,
      "t": 92903.03999999982,
      "d": 967.7400000000052,
      "v": 40
    },
    {
      "midi": 57,
      "hit": false,
      "t": 92903.03999999982,
      "d": 967.7400000000052,
      "v": 40
    },
    {
      "midi": 53,
      "hit": false,
      "t": 92903.03999999982,
      "d": 967.7400000000052,
      "v": 40
    },
    {
      "midi": 65,
      "hit": false,
      "t": 92903.03999999982,
      "d": 967.7400000000052,
      "v": 40
    },
    {
      "midi": 62,
      "hit": false,
      "t": 92903.03999999989,
      "d": 80.64500000000407,
      "v": 65
    },
    {
      "midi": 81,
      "hit": false,
      "t": 92903.0399999999,
      "d": 725.804999999993,
      "v": 127
    },
    {
      "midi": 77,
      "hit": false,
      "t": 92903.0399999999,
      "d": 725.804999999993,
      "v": 127
    },
    {
      "midi": 38,
      "hit": false,
      "t": 92903.03999999996,
      "d": 1935.479999999996,
      "v": 100
    },
    {
      "midi": 38,
      "hit": false,
      "t": 92903.03999999996,
      "d": 1935.479999999996,
      "v": 100
    },
    {
      "midi": 38,
      "hit": false,
      "t": 92903.03999999998,
      "d": 1935.479999999996,
      "v": 84
    },
    {
      "midi": 69,
      "hit": false,
      "t": 92903.04,
      "d": 1935.479999999996,
      "v": 54
    },
    {
      "midi": 65,
      "hit": false,
      "t": 92903.04,
      "d": 1935.479999999996,
      "v": 54
    },
    {
      "midi": 36,
      "hit": false,
      "t": 93144.97499999953,
      "d": 161.2899999999936,
      "v": 127
    },
    {
      "midi": 69,
      "hit": false,
      "t": 93144.97499999989,
      "d": 161.2899999999936,
      "v": 65
    },
    {
      "midi": 38,
      "hit": false,
      "t": 93386.90999999952,
      "d": 161.2899999999936,
      "v": 127
    },
    {
      "midi": 74,
      "hit": false,
      "t": 93386.90999999989,
      "d": 161.2899999999936,
      "v": 65
    },
    {
      "midi": 35,
      "hit": false,
      "t": 93628.84499999952,
      "d": 80.64500000000407,
      "v": 127
    },
    {
      "midi": 79,
      "hit": false,
      "t": 93628.8449999999,
      "d": 483.86999999999534,
      "v": 127
    },
    {
      "midi": 76,
      "hit": false,
      "t": 93628.8449999999,
      "d": 483.86999999999534,
      "v": 127
    },
    {
      "midi": 36,
      "hit": false,
      "t": 93749.81249999952,
      "d": 80.64500000000407,
      "v": 127
    },
    {
      "midi": 76,
      "hit": false,
      "t": 93749.81249999988,
      "d": 161.2899999999936,
      "v": 65
    },
    {
      "midi": 35,
      "hit": false,
      "t": 93991.74749999952,
      "d": 80.64500000000407,
      "v": 127
    },
    {
      "midi": 36,
      "hit": false,
      "t": 94112.71499999952,
      "d": 80.64500000000407,
      "v": 127
    },
    {
      "midi": 74,
      "hit": false,
      "t": 94112.71499999988,
      "d": 1129.0299999999843,
      "v": 65
    },
    {
      "midi": 77,
      "hit": false,
      "t": 94112.7149999999,
      "d": 725.804999999993,
      "v": 127
    },
    {
      "midi": 74,
      "hit": false,
      "t": 94112.7149999999,
      "d": 725.804999999993,
      "v": 127
    },
    {
      "midi": 38,
      "hit": false,
      "t": 94354.64999999951,
      "d": 80.64500000000407,
      "v": 127
    },
    {
      "midi": 65,
      "hit": false,
      "t": 94354.64999999982,
      "d": 483.86999999999534,
      "v": 46
    },
    {
      "midi": 53,
      "hit": false,
      "t": 94354.64999999982,
      "d": 483.86999999999534,
      "v": 46
    },
    {
      "midi": 62,
      "hit": false,
      "t": 94354.64999999982,
      "d": 483.86999999999534,
      "v": 46
    },
    {
      "midi": 57,
      "hit": false,
      "t": 94354.64999999982,
      "d": 483.86999999999534,
      "v": 46
    },
    {
      "midi": 65,
      "hit": false,
      "t": 94354.64999999982,
      "d": 483.86999999999534,
      "v": 40
    },
    {
      "midi": 53,
      "hit": false,
      "t": 94354.64999999982,
      "d": 483.86999999999534,
      "v": 40
    },
    {
      "midi": 62,
      "hit": false,
      "t": 94354.64999999982,
      "d": 483.86999999999534,
      "v": 40
    },
    {
      "midi": 57,
      "hit": false,
      "t": 94354.64999999982,
      "d": 483.86999999999534,
      "v": 40
    },
    {
      "midi": 36,
      "hit": false,
      "t": 94596.58499999951,
      "d": 80.64500000000407,
      "v": 127
    },
    {
      "midi": 36,
      "hit": false,
      "t": 94838.51999999951,
      "d": 161.2899999999936,
      "v": 127
    },
    {
      "midi": 62,
      "hit": false,
      "t": 94838.51999999981,
      "d": 241.93499999999767,
      "v": 46
    },
    {
      "midi": 58,
      "hit": false,
      "t": 94838.51999999981,
      "d": 241.93499999999767,
      "v": 46
    },
    {
      "midi": 50,
      "hit": false,
      "t": 94838.51999999981,
      "d": 241.93499999999767,
      "v": 46
    },
    {
      "midi": 53,
      "hit": false,
      "t": 94838.51999999981,
      "d": 241.93499999999767,
      "v": 46
    },
    {
      "midi": 62,
      "hit": false,
      "t": 94838.51999999981,
      "d": 241.93499999999767,
      "v": 40
    },
    {
      "midi": 58,
      "hit": false,
      "t": 94838.51999999981,
      "d": 241.93499999999767,
      "v": 40
    },
    {
      "midi": 50,
      "hit": false,
      "t": 94838.51999999981,
      "d": 241.93499999999767,
      "v": 40
    },
    {
      "midi": 53,
      "hit": false,
      "t": 94838.51999999981,
      "d": 241.93499999999767,
      "v": 40
    },
    {
      "midi": 62,
      "hit": false,
      "t": 94838.51999999987,
      "d": 80.64500000000407,
      "v": 65
    },
    {
      "midi": 74,
      "hit": false,
      "t": 94838.51999999989,
      "d": 967.7400000000052,
      "v": 127
    },
    {
      "midi": 70,
      "hit": false,
      "t": 94838.51999999989,
      "d": 967.7400000000052,
      "v": 127
    },
    {
      "midi": 34,
      "hit": false,
      "t": 94838.51999999996,
      "d": 1935.479999999996,
      "v": 100
    },
    {
      "midi": 34,
      "hit": false,
      "t": 94838.51999999996,
      "d": 1935.479999999996,
      "v": 100
    },
    {
      "midi": 34,
      "hit": false,
      "t": 94838.51999999997,
      "d": 1935.479999999996,
      "v": 84
    },
    {
      "midi": 70,
      "hit": false,
      "t": 94838.51999999999,
      "d": 1935.479999999996,
      "v": 54
    },
    {
      "midi": 67,
      "hit": false,
      "t": 94838.51999999999,
      "d": 1935.479999999996,
      "v": 54
    },
    {
      "midi": 36,
      "hit": false,
      "t": 95080.4549999995,
      "d": 161.2899999999936,
      "v": 127
    },
    {
      "midi": 69,
      "hit": false,
      "t": 95080.45499999987,
      "d": 161.2899999999936,
      "v": 65
    },
    {
      "midi": 38,
      "hit": false,
      "t": 95322.3899999995,
      "d": 161.2899999999936,
      "v": 127
    },
    {
      "midi": 74,
      "hit": false,
      "t": 95322.38999999987,
      "d": 161.2899999999936,
      "v": 65
    },
    {
      "midi": 35,
      "hit": false,
      "t": 95564.3249999995,
      "d": 80.64500000000407,
      "v": 127
    },
    {
      "midi": 62,
      "hit": false,
      "t": 95564.32499999981,
      "d": 241.93499999999767,
      "v": 46
    },
    {
      "midi": 58,
      "hit": false,
      "t": 95564.32499999981,
      "d": 241.93499999999767,
      "v": 46
    },
    {
      "midi": 50,
      "hit": false,
      "t": 95564.32499999981,
      "d": 241.93499999999767,
      "v": 46
    },
    {
      "midi": 53,
      "hit": false,
      "t": 95564.32499999981,
      "d": 241.93499999999767,
      "v": 46
    },
    {
      "midi": 62,
      "hit": false,
      "t": 95564.32499999981,
      "d": 241.93499999999767,
      "v": 40
    },
    {
      "midi": 58,
      "hit": false,
      "t": 95564.32499999981,
      "d": 241.93499999999767,
      "v": 40
    },
    {
      "midi": 50,
      "hit": false,
      "t": 95564.32499999981,
      "d": 241.93499999999767,
      "v": 40
    },
    {
      "midi": 53,
      "hit": false,
      "t": 95564.32499999981,
      "d": 241.93499999999767,
      "v": 40
    },
    {
      "midi": 36,
      "hit": false,
      "t": 95685.2924999995,
      "d": 80.64500000000407,
      "v": 127
    },
    {
      "midi": 76,
      "hit": false,
      "t": 95685.29249999986,
      "d": 161.2899999999936,
      "v": 65
    },
    {
      "midi": 74,
      "hit": false,
      "t": 95806.2599999999,
      "d": 483.86999999999534,
      "v": 127
    },
    {
      "midi": 77,
      "hit": false,
      "t": 95806.2599999999,
      "d": 483.86999999999534,
      "v": 127
    },
    {
      "midi": 35,
      "hit": false,
      "t": 95927.2274999995,
      "d": 80.64500000000407,
      "v": 127
    },
    {
      "midi": 36,
      "hit": false,
      "t": 96048.1949999995,
      "d": 80.64500000000407,
      "v": 127
    },
    {
      "midi": 62,
      "hit": false,
      "t": 96048.1949999998,
      "d": 241.93499999999767,
      "v": 46
    },
    {
      "midi": 58,
      "hit": false,
      "t": 96048.1949999998,
      "d": 241.93499999999767,
      "v": 46
    },
    {
      "midi": 50,
      "hit": false,
      "t": 96048.1949999998,
      "d": 241.93499999999767,
      "v": 46
    },
    {
      "midi": 53,
      "hit": false,
      "t": 96048.1949999998,
      "d": 241.93499999999767,
      "v": 46
    },
    {
      "midi": 62,
      "hit": false,
      "t": 96048.1949999998,
      "d": 241.93499999999767,
      "v": 40
    },
    {
      "midi": 58,
      "hit": false,
      "t": 96048.1949999998,
      "d": 241.93499999999767,
      "v": 40
    },
    {
      "midi": 50,
      "hit": false,
      "t": 96048.1949999998,
      "d": 241.93499999999767,
      "v": 40
    },
    {
      "midi": 53,
      "hit": false,
      "t": 96048.1949999998,
      "d": 241.93499999999767,
      "v": 40
    },
    {
      "midi": 74,
      "hit": false,
      "t": 96048.19499999986,
      "d": 1129.0299999999988,
      "v": 65
    },
    {
      "midi": 38,
      "hit": false,
      "t": 96290.1299999995,
      "d": 80.64500000000407,
      "v": 127
    },
    {
      "midi": 79,
      "hit": false,
      "t": 96290.12999999989,
      "d": 483.86999999999534,
      "v": 127
    },
    {
      "midi": 76,
      "hit": false,
      "t": 96290.12999999989,
      "d": 483.86999999999534,
      "v": 127
    },
    {
      "midi": 36,
      "hit": false,
      "t": 96532.0649999995,
      "d": 80.64500000000407,
      "v": 127
    },
    {
      "midi": 36,
      "hit": false,
      "t": 96773.99999999949,
      "d": 161.2899999999936,
      "v": 127
    },
    {
      "midi": 60,
      "hit": false,
      "t": 96773.9999999998,
      "d": 967.7399999999907,
      "v": 46
    },
    {
      "midi": 48,
      "hit": false,
      "t": 96773.9999999998,
      "d": 1935.4799999999814,
      "v": 46
    },
    {
      "midi": 57,
      "hit": false,
      "t": 96773.9999999998,
      "d": 1935.4799999999814,
      "v": 46
    },
    {
      "midi": 53,
      "hit": false,
      "t": 96773.9999999998,
      "d": 1935.4799999999814,
      "v": 46
    },
    {
      "midi": 60,
      "hit": false,
      "t": 96773.9999999998,
      "d": 967.7399999999907,
      "v": 40
    },
    {
      "midi": 48,
      "hit": false,
      "t": 96773.9999999998,
      "d": 1935.4799999999814,
      "v": 40
    },
    {
      "midi": 57,
      "hit": false,
      "t": 96773.9999999998,
      "d": 1935.4799999999814,
      "v": 40
    },
    {
      "midi": 53,
      "hit": false,
      "t": 96773.9999999998,
      "d": 1935.4799999999814,
      "v": 40
    },
    {
      "midi": 84,
      "hit": false,
      "t": 96773.99999999988,
      "d": 967.7400000000052,
      "v": 127
    },
    {
      "midi": 81,
      "hit": false,
      "t": 96773.99999999988,
      "d": 967.7400000000052,
      "v": 127
    },
    {
      "midi": 29,
      "hit": false,
      "t": 96773.99999999996,
      "d": 1935.479999999996,
      "v": 100
    },
    {
      "midi": 29,
      "hit": false,
      "t": 96773.99999999996,
      "d": 1935.479999999996,
      "v": 100
    },
    {
      "midi": 29,
      "hit": false,
      "t": 96773.99999999997,
      "d": 1935.479999999996,
      "v": 84
    },
    {
      "midi": 72,
      "hit": false,
      "t": 96773.99999999999,
      "d": 1935.4800000000105,
      "v": 54
    },
    {
      "midi": 69,
      "hit": false,
      "t": 96773.99999999999,
      "d": 1935.4800000000105,
      "v": 54
    },
    {
      "midi": 36,
      "hit": false,
      "t": 97015.93499999949,
      "d": 161.2899999999936,
      "v": 127
    },
    {
      "midi": 38,
      "hit": false,
      "t": 97257.86999999949,
      "d": 161.2899999999936,
      "v": 127
    },
    {
      "midi": 35,
      "hit": false,
      "t": 97499.80499999948,
      "d": 80.64500000000407,
      "v": 127
    },
    {
      "midi": 64,
      "hit": false,
      "t": 97499.80499999979,
      "d": 241.93499999999767,
      "v": 46
    },
    {
      "midi": 64,
      "hit": false,
      "t": 97499.80499999979,
      "d": 241.93499999999767,
      "v": 40
    },
    {
      "midi": 36,
      "hit": false,
      "t": 97620.77249999948,
      "d": 80.64500000000407,
      "v": 127
    },
    {
      "midi": 82,
      "hit": false,
      "t": 97741.73999999989,
      "d": 483.86999999999534,
      "v": 127
    },
    {
      "midi": 79,
      "hit": false,
      "t": 97741.73999999989,
      "d": 483.86999999999534,
      "v": 127
    },
    {
      "midi": 77,
      "hit": false,
      "t": 97741.73999999999,
      "d": 967.7400000000052,
      "v": 54
    },
    {
      "midi": 35,
      "hit": false,
      "t": 97862.70749999948,
      "d": 80.64500000000407,
      "v": 127
    },
    {
      "midi": 36,
      "hit": false,
      "t": 97983.67499999948,
      "d": 80.64500000000407,
      "v": 127
    },
    {
      "midi": 65,
      "hit": false,
      "t": 97983.67499999978,
      "d": 241.93499999999767,
      "v": 46
    },
    {
      "midi": 60,
      "hit": false,
      "t": 97983.67499999978,
      "d": 241.93499999999767,
      "v": 46
    },
    {
      "midi": 65,
      "hit": false,
      "t": 97983.67499999978,
      "d": 241.93499999999767,
      "v": 40
    },
    {
      "midi": 60,
      "hit": false,
      "t": 97983.67499999978,
      "d": 241.93499999999767,
      "v": 40
    },
    {
      "midi": 38,
      "hit": false,
      "t": 98225.60999999948,
      "d": 80.64500000000407,
      "v": 127
    },
    {
      "midi": 81,
      "hit": false,
      "t": 98225.60999999988,
      "d": 483.86999999999534,
      "v": 127
    },
    {
      "midi": 77,
      "hit": false,
      "t": 98225.60999999988,
      "d": 483.86999999999534,
      "v": 127
    },
    {
      "midi": 36,
      "hit": false,
      "t": 98467.54499999947,
      "d": 80.64500000000407,
      "v": 127
    },
    {
      "midi": 36,
      "hit": false,
      "t": 98709.47999999947,
      "d": 161.2899999999936,
      "v": 127
    },
    {
      "midi": 64,
      "hit": false,
      "t": 98709.47999999978,
      "d": 967.7400000000052,
      "v": 46
    },
    {
      "midi": 60,
      "hit": false,
      "t": 98709.47999999978,
      "d": 967.7400000000052,
      "v": 46
    },
    {
      "midi": 48,
      "hit": false,
      "t": 98709.47999999978,
      "d": 967.7400000000052,
      "v": 46
    },
    {
      "midi": 55,
      "hit": false,
      "t": 98709.47999999978,
      "d": 1935.479999999996,
      "v": 46
    },
    {
      "midi": 64,
      "hit": false,
      "t": 98709.47999999978,
      "d": 967.7400000000052,
      "v": 40
    },
    {
      "midi": 60,
      "hit": false,
      "t": 98709.47999999978,
      "d": 967.7400000000052,
      "v": 40
    },
    {
      "midi": 48,
      "hit": false,
      "t": 98709.47999999978,
      "d": 967.7400000000052,
      "v": 40
    },
    {
      "midi": 55,
      "hit": false,
      "t": 98709.47999999978,
      "d": 1935.479999999996,
      "v": 40
    },
    {
      "midi": 79,
      "hit": false,
      "t": 98709.47999999988,
      "d": 1935.479999999996,
      "v": 127
    },
    {
      "midi": 76,
      "hit": false,
      "t": 98709.47999999988,
      "d": 1935.479999999996,
      "v": 127
    },
    {
      "midi": 36,
      "hit": false,
      "t": 98709.47999999995,
      "d": 1935.479999999996,
      "v": 100
    },
    {
      "midi": 36,
      "hit": false,
      "t": 98709.47999999995,
      "d": 1935.479999999996,
      "v": 100
    },
    {
      "midi": 36,
      "hit": false,
      "t": 98709.47999999997,
      "d": 1935.479999999996,
      "v": 84
    },
    {
      "midi": 72,
      "hit": false,
      "t": 98709.48,
      "d": 1935.479999999996,
      "v": 54
    },
    {
      "midi": 67,
      "hit": false,
      "t": 98709.48,
      "d": 1935.479999999996,
      "v": 54
    },
    {
      "midi": 36,
      "hit": false,
      "t": 98951.41499999947,
      "d": 161.2899999999936,
      "v": 127
    },
    {
      "midi": 38,
      "hit": false,
      "t": 99193.34999999947,
      "d": 161.2899999999936,
      "v": 127
    },
    {
      "midi": 35,
      "hit": false,
      "t": 99435.28499999947,
      "d": 80.64500000000407,
      "v": 127
    },
    {
      "midi": 62,
      "hit": false,
      "t": 99435.28499999979,
      "d": 241.93499999999767,
      "v": 46
    },
    {
      "midi": 58,
      "hit": false,
      "t": 99435.28499999979,
      "d": 241.93499999999767,
      "v": 46
    },
    {
      "midi": 62,
      "hit": false,
      "t": 99435.28499999979,
      "d": 241.93499999999767,
      "v": 40
    },
    {
      "midi": 58,
      "hit": false,
      "t": 99435.28499999979,
      "d": 241.93499999999767,
      "v": 40
    },
    {
      "midi": 36,
      "hit": false,
      "t": 99556.25249999946,
      "d": 80.64500000000407,
      "v": 127
    },
    {
      "midi": 48,
      "hit": false,
      "t": 99677.21999999978,
      "d": 241.93499999999767,
      "v": 20
    },
    {
      "midi": 48,
      "hit": false,
      "t": 99677.21999999978,
      "d": 241.93499999999767,
      "v": 17
    },
    {
      "midi": 35,
      "hit": false,
      "t": 99798.18749999946,
      "d": 80.64500000000407,
      "v": 127
    },
    {
      "midi": 36,
      "hit": false,
      "t": 99919.15499999946,
      "d": 80.64500000000407,
      "v": 127
    },
    {
      "midi": 64,
      "hit": false,
      "t": 99919.15499999978,
      "d": 241.93499999999767,
      "v": 46
    },
    {
      "midi": 60,
      "hit": false,
      "t": 99919.15499999978,
      "d": 241.93499999999767,
      "v": 46
    },
    {
      "midi": 64,
      "hit": false,
      "t": 99919.15499999978,
      "d": 241.93499999999767,
      "v": 40
    },
    {
      "midi": 60,
      "hit": false,
      "t": 99919.15499999978,
      "d": 241.93499999999767,
      "v": 40
    },
    {
      "midi": 38,
      "hit": false,
      "t": 100161.08999999946,
      "d": 80.64500000000407,
      "v": 127
    },
    {
      "midi": 40,
      "hit": false,
      "t": 100161.08999999946,
      "d": 80.64500000000407,
      "v": 127
    },
    {
      "midi": 48,
      "hit": false,
      "t": 100161.08999999978,
      "d": 241.93499999999767,
      "v": 18
    },
    {
      "midi": 48,
      "hit": false,
      "t": 100161.08999999978,
      "d": 241.93499999999767,
      "v": 16
    },
    {
      "midi": 40,
      "hit": false,
      "t": 100282.05749999946,
      "d": 80.64500000000407,
      "v": 127
    },
    {
      "midi": 36,
      "hit": false,
      "t": 100403.02499999946,
      "d": 80.64500000000407,
      "v": 127
    },
    {
      "midi": 40,
      "hit": false,
      "t": 100403.02499999946,
      "d": 80.64500000000407,
      "v": 127
    },
    {
      "midi": 40,
      "hit": false,
      "t": 100523.99249999945,
      "d": 80.64500000000407,
      "v": 127
    },
    {
      "midi": 36,
      "hit": false,
      "t": 100644.95999999945,
      "d": 161.2899999999936,
      "v": 127
    },
    {
      "midi": 49,
      "hit": false,
      "t": 100644.95999999945,
      "d": 1532.25499999999,
      "v": 127
    },
    {
      "midi": 69,
      "hit": false,
      "t": 100644.95999999986,
      "d": 80.64500000000407,
      "v": 65
    },
    {
      "midi": 81,
      "hit": false,
      "t": 100644.95999999988,
      "d": 725.804999999993,
      "v": 127
    },
    {
      "midi": 26,
      "hit": false,
      "t": 100644.95999999995,
      "d": 725.804999999993,
      "v": 100
    },
    {
      "midi": 26,
      "hit": false,
      "t": 100644.95999999995,
      "d": 725.804999999993,
      "v": 100
    },
    {
      "midi": 36,
      "hit": false,
      "t": 100886.89499999945,
      "d": 161.2899999999936,
      "v": 127
    },
    {
      "midi": 74,
      "hit": false,
      "t": 100886.89499999986,
      "d": 80.64500000000407,
      "v": 65
    },
    {
      "midi": 38,
      "hit": false,
      "t": 101128.82999999945,
      "d": 161.2899999999936,
      "v": 127
    },
    {
      "midi": 35,
      "hit": false,
      "t": 101370.76499999945,
      "d": 80.64500000000407,
      "v": 127
    },
    {
      "midi": 79,
      "hit": false,
      "t": 101370.76499999987,
      "d": 725.804999999993,
      "v": 127
    },
    {
      "midi": 26,
      "hit": false,
      "t": 101370.76499999994,
      "d": 80.64500000000407,
      "v": 100
    },
    {
      "midi": 26,
      "hit": false,
      "t": 101370.76499999994,
      "d": 80.64500000000407,
      "v": 100
    },
    {
      "midi": 36,
      "hit": false,
      "t": 101491.73249999945,
      "d": 80.64500000000407,
      "v": 127
    },
    {
      "midi": 26,
      "hit": false,
      "t": 101491.73249999994,
      "d": 80.64500000000407,
      "v": 100
    },
    {
      "midi": 26,
      "hit": false,
      "t": 101491.73249999994,
      "d": 80.64500000000407,
      "v": 100
    },
    {
      "midi": 35,
      "hit": false,
      "t": 101733.66749999944,
      "d": 80.64500000000407,
      "v": 127
    },
    {
      "midi": 26,
      "hit": false,
      "t": 101733.66749999994,
      "d": 80.64500000000407,
      "v": 100
    },
    {
      "midi": 26,
      "hit": false,
      "t": 101733.66749999994,
      "d": 80.64500000000407,
      "v": 100
    },
    {
      "midi": 36,
      "hit": false,
      "t": 101854.63499999944,
      "d": 80.64500000000407,
      "v": 127
    },
    {
      "midi": 26,
      "hit": false,
      "t": 101854.63499999994,
      "d": 80.64500000000407,
      "v": 100
    },
    {
      "midi": 26,
      "hit": false,
      "t": 101854.63499999994,
      "d": 80.64500000000407,
      "v": 100
    },
    {
      "midi": 38,
      "hit": false,
      "t": 102096.56999999944,
      "d": 80.64500000000407,
      "v": 127
    },
    {
      "midi": 77,
      "hit": false,
      "t": 102096.56999999986,
      "d": 483.86999999999534,
      "v": 127
    },
    {
      "midi": 26,
      "hit": false,
      "t": 102096.56999999993,
      "d": 483.86999999999534,
      "v": 100
    },
    {
      "midi": 26,
      "hit": false,
      "t": 102096.56999999993,
      "d": 483.86999999999534,
      "v": 100
    },
    {
      "midi": 36,
      "hit": false,
      "t": 102338.50499999944,
      "d": 80.64500000000407,
      "v": 127
    },
    {
      "midi": 36,
      "hit": false,
      "t": 102580.43999999943,
      "d": 161.2899999999936,
      "v": 127
    },
    {
      "midi": 74,
      "hit": false,
      "t": 102580.43999999986,
      "d": 1935.479999999996,
      "v": 127
    },
    {
      "midi": 26,
      "hit": false,
      "t": 102580.43999999993,
      "d": 725.804999999993,
      "v": 100
    },
    {
      "midi": 26,
      "hit": false,
      "t": 102580.43999999993,
      "d": 725.804999999993,
      "v": 100
    },
    {
      "midi": 81,
      "hit": false,
      "t": 102580.43999999999,
      "d": 725.804999999993,
      "v": 28
    },
    {
      "midi": 81,
      "hit": false,
      "t": 102701.40749999999,
      "d": 725.804999999993,
      "v": 18
    },
    {
      "midi": 36,
      "hit": false,
      "t": 102822.37499999943,
      "d": 161.2899999999936,
      "v": 127
    },
    {
      "midi": 38,
      "hit": false,
      "t": 103064.30999999943,
      "d": 161.2899999999936,
      "v": 127
    },
    {
      "midi": 35,
      "hit": false,
      "t": 103306.24499999943,
      "d": 80.64500000000407,
      "v": 127
    },
    {
      "midi": 26,
      "hit": false,
      "t": 103306.24499999992,
      "d": 80.64500000000407,
      "v": 100
    },
    {
      "midi": 26,
      "hit": false,
      "t": 103306.24499999992,
      "d": 80.64500000000407,
      "v": 100
    },
    {
      "midi": 79,
      "hit": false,
      "t": 103306.24499999998,
      "d": 725.804999999993,
      "v": 28
    },
    {
      "midi": 36,
      "hit": false,
      "t": 103427.21249999943,
      "d": 80.64500000000407,
      "v": 127
    },
    {
      "midi": 26,
      "hit": false,
      "t": 103427.21249999992,
      "d": 80.64500000000407,
      "v": 100
    },
    {
      "midi": 26,
      "hit": false,
      "t": 103427.21249999992,
      "d": 80.64500000000407,
      "v": 100
    },
    {
      "midi": 79,
      "hit": false,
      "t": 103427.21249999998,
      "d": 725.804999999993,
      "v": 18
    },
    {
      "midi": 35,
      "hit": false,
      "t": 103669.14749999942,
      "d": 80.64500000000407,
      "v": 127
    },
    {
      "midi": 26,
      "hit": false,
      "t": 103669.14749999992,
      "d": 80.64500000000407,
      "v": 100
    },
    {
      "midi": 26,
      "hit": false,
      "t": 103669.14749999992,
      "d": 80.64500000000407,
      "v": 100
    },
    {
      "midi": 36,
      "hit": false,
      "t": 103790.11499999942,
      "d": 80.64500000000407,
      "v": 127
    },
    {
      "midi": 57,
      "hit": false,
      "t": 103790.11499999977,
      "d": 241.93499999999767,
      "v": 46
    },
    {
      "midi": 57,
      "hit": false,
      "t": 103790.11499999977,
      "d": 241.93499999999767,
      "v": 40
    },
    {
      "midi": 26,
      "hit": false,
      "t": 103790.11499999992,
      "d": 80.64500000000407,
      "v": 100
    },
    {
      "midi": 26,
      "hit": false,
      "t": 103790.11499999992,
      "d": 80.64500000000407,
      "v": 100
    },
    {
      "midi": 38,
      "hit": false,
      "t": 104032.04999999942,
      "d": 80.64500000000407,
      "v": 127
    },
    {
      "midi": 62,
      "hit": false,
      "t": 104032.04999999977,
      "d": 241.93499999999767,
      "v": 46
    },
    {
      "midi": 62,
      "hit": false,
      "t": 104032.04999999977,
      "d": 241.93499999999767,
      "v": 40
    },
    {
      "midi": 26,
      "hit": false,
      "t": 104032.04999999992,
      "d": 483.86999999999534,
      "v": 100
    },
    {
      "midi": 26,
      "hit": false,
      "t": 104032.04999999992,
      "d": 483.86999999999534,
      "v": 100
    },
    {
      "midi": 77,
      "hit": false,
      "t": 104032.04999999997,
      "d": 483.86999999999534,
      "v": 28
    },
    {
      "midi": 77,
      "hit": false,
      "t": 104153.01749999997,
      "d": 483.86999999999534,
      "v": 18
    },
    {
      "midi": 36,
      "hit": false,
      "t": 104273.98499999942,
      "d": 80.64500000000407,
      "v": 127
    },
    {
      "midi": 64,
      "hit": false,
      "t": 104273.98499999977,
      "d": 241.93499999999767,
      "v": 46
    },
    {
      "midi": 64,
      "hit": false,
      "t": 104273.98499999977,
      "d": 241.93499999999767,
      "v": 40
    },
    {
      "midi": 36,
      "hit": false,
      "t": 104515.91999999942,
      "d": 80.64500000000407,
      "v": 127
    },
    {
      "midi": 35,
      "hit": false,
      "t": 104515.91999999942,
      "d": 80.64500000000407,
      "v": 127
    },
    {
      "midi": 62,
      "hit": false,
      "t": 104515.91999999977,
      "d": 3870.9600000000064,
      "v": 40
    },
    {
      "midi": 81,
      "hit": false,
      "t": 104515.91999999985,
      "d": 725.804999999993,
      "v": 127
    },
    {
      "midi": 74,
      "hit": false,
      "t": 104515.91999999997,
      "d": 1935.479999999996,
      "v": 28
    },
    {
      "midi": 81,
      "hit": false,
      "t": 104515.91999999997,
      "d": 725.804999999993,
      "v": 18
    },
    {
      "midi": 79,
      "hit": false,
      "t": 105241.72499999985,
      "d": 725.804999999993,
      "v": 127
    },
    {
      "midi": 79,
      "hit": false,
      "t": 105241.72499999996,
      "d": 725.804999999993,
      "v": 18
    },
    {
      "midi": 77,
      "hit": false,
      "t": 105967.52999999984,
      "d": 483.86999999999534,
      "v": 127
    },
    {
      "midi": 77,
      "hit": false,
      "t": 105967.52999999996,
      "d": 483.86999999999534,
      "v": 18
    },
    {
      "midi": 62,
      "hit": false,
      "t": 106451.39999999976,
      "d": 1935.479999999996,
      "v": 64
    },
    {
      "midi": 74,
      "hit": false,
      "t": 106451.39999999983,
      "d": 1935.479999999996,
      "v": 127
    },
    {
      "midi": 74,
      "hit": false,
      "t": 106451.39999999995,
      "d": 120.96749999999884,
      "v": 18
    }
  ]
}