{
  "jsonPath": "Animes/Sailor Moon MIDI Collection/tame-ni-koi-wo-shinaide.json",
  "path": "Animes\\Sailor Moon MIDI Collection\\Tame Ni Koi Wo Shinaide.mid",
  "name": "Tame Ni Koi Wo Shinaide",
  "difficulty": "Advanced",
  "bpm": 143.000143000143,
  "notes": [
    {
      "midi": 76,
      "hit": false,
      "t": 839.1600000000001,
      "d": 375.87375,
      "v": 104
    },
    {
      "midi": 78,
      "hit": false,
      "t": 1258.74,
      "d": 375.87375,
      "v": 104
    },
    {
      "midi": 80,
      "hit": false,
      "t": 1678.32,
      "d": 563.8106249999998,
      "v": 104
    },
    {
      "midi": 33,
      "hit": false,
      "t": 1678.32,
      "d": 493.880625,
      "v": 87
    },
    {
      "midi": 57,
      "hit": false,
      "t": 1678.3200000000002,
      "d": 375.8737500000002,
      "v": 104
    },
    {
      "midi": 61,
      "hit": false,
      "t": 1678.3200000000002,
      "d": 375.8737500000002,
      "v": 104
    },
    {
      "midi": 45,
      "hit": false,
      "t": 1687.06125,
      "d": 96.15374999999995,
      "v": 71
    },
    {
      "midi": 45,
      "hit": false,
      "t": 1896.85125,
      "d": 1433.5650000000003,
      "v": 56
    },
    {
      "midi": 56,
      "hit": false,
      "t": 2102.270625,
      "d": 524.4749999999999,
      "v": 66
    },
    {
      "midi": 61,
      "hit": false,
      "t": 2102.270625,
      "d": 524.4749999999999,
      "v": 66
    },
    {
      "midi": 64,
      "hit": false,
      "t": 2111.011875,
      "d": 493.8806249999998,
      "v": 66
    },
    {
      "midi": 76,
      "hit": false,
      "t": 2307.6899999999996,
      "d": 563.8106250000001,
      "v": 104
    },
    {
      "midi": 28,
      "hit": false,
      "t": 2307.69,
      "d": 489.50999999999976,
      "v": 87
    },
    {
      "midi": 52,
      "hit": false,
      "t": 2307.69,
      "d": 301.5731249999999,
      "v": 67
    },
    {
      "midi": 57,
      "hit": false,
      "t": 2307.6900000000005,
      "d": 187.93687499999987,
      "v": 104
    },
    {
      "midi": 61,
      "hit": false,
      "t": 2307.6900000000005,
      "d": 187.93687499999987,
      "v": 104
    },
    {
      "midi": 57,
      "hit": false,
      "t": 2517.4800000000005,
      "d": 375.8737500000002,
      "v": 104
    },
    {
      "midi": 61,
      "hit": false,
      "t": 2517.4800000000005,
      "d": 375.8737500000002,
      "v": 104
    },
    {
      "midi": 64,
      "hit": false,
      "t": 2521.850625,
      "d": 4.370625000000018,
      "v": 55
    },
    {
      "midi": 52,
      "hit": false,
      "t": 2521.850625,
      "d": 96.15374999999995,
      "v": 59
    },
    {
      "midi": 63,
      "hit": false,
      "t": 2622.375,
      "d": 4.370625000000018,
      "v": 74
    },
    {
      "midi": 63,
      "hit": false,
      "t": 2722.899375,
      "d": 4.370625000000018,
      "v": 86
    },
    {
      "midi": 56,
      "hit": false,
      "t": 2727.27,
      "d": 284.0906250000003,
      "v": 57
    },
    {
      "midi": 61,
      "hit": false,
      "t": 2727.27,
      "d": 284.0906250000003,
      "v": 57
    },
    {
      "midi": 64,
      "hit": false,
      "t": 2727.27,
      "d": 458.9156250000001,
      "v": 38
    },
    {
      "midi": 56,
      "hit": false,
      "t": 2727.27,
      "d": 568.1812500000001,
      "v": 35
    },
    {
      "midi": 52,
      "hit": false,
      "t": 2731.640625,
      "d": 284.0906250000003,
      "v": 62
    },
    {
      "midi": 69,
      "hit": false,
      "t": 2731.640625,
      "d": 284.0906250000003,
      "v": 62
    },
    {
      "midi": 73,
      "hit": false,
      "t": 2937.0599999999995,
      "d": 375.8737500000002,
      "v": 104
    },
    {
      "midi": 63,
      "hit": false,
      "t": 2937.06,
      "d": 4.370625000000018,
      "v": 78
    },
    {
      "midi": 33,
      "hit": false,
      "t": 2937.06,
      "d": 196.6781249999999,
      "v": 99
    },
    {
      "midi": 64,
      "hit": false,
      "t": 3146.85,
      "d": 4.370625000000018,
      "v": 82
    },
    {
      "midi": 52,
      "hit": false,
      "t": 3146.85,
      "d": 266.6081250000002,
      "v": 46
    },
    {
      "midi": 64,
      "hit": false,
      "t": 3146.8500000000004,
      "d": 174.82499999999982,
      "v": 52
    },
    {
      "midi": 52,
      "hit": false,
      "t": 3151.2206250000004,
      "d": 179.19562499999984,
      "v": 24
    },
    {
      "midi": 56,
      "hit": false,
      "t": 3155.5912500000004,
      "d": 174.82499999999982,
      "v": 24
    },
    {
      "midi": 61,
      "hit": false,
      "t": 3155.5912500000004,
      "d": 174.82499999999982,
      "v": 24
    },
    {
      "midi": 71,
      "hit": false,
      "t": 3356.64,
      "d": 375.8737500000002,
      "v": 104
    },
    {
      "midi": 28,
      "hit": false,
      "t": 3356.64,
      "d": 423.95062499999995,
      "v": 99
    },
    {
      "midi": 40,
      "hit": false,
      "t": 3356.6400000000003,
      "d": 196.6781249999999,
      "v": 58
    },
    {
      "midi": 52,
      "hit": false,
      "t": 3356.640000000001,
      "d": 375.8737500000002,
      "v": 104
    },
    {
      "midi": 56,
      "hit": false,
      "t": 3356.640000000001,
      "d": 375.8737500000002,
      "v": 104
    },
    {
      "midi": 47,
      "hit": false,
      "t": 3361.010625,
      "d": 568.1812500000001,
      "v": 62
    },
    {
      "midi": 56,
      "hit": false,
      "t": 3361.0106250000003,
      "d": 196.6781249999999,
      "v": 61
    },
    {
      "midi": 64,
      "hit": false,
      "t": 3365.38125,
      "d": 122.37750000000005,
      "v": 46
    },
    {
      "midi": 59,
      "hit": false,
      "t": 3365.38125,
      "d": 201.04874999999993,
      "v": 57
    },
    {
      "midi": 64,
      "hit": false,
      "t": 3570.800625,
      "d": 4.370625000000018,
      "v": 55
    },
    {
      "midi": 59,
      "hit": false,
      "t": 3575.17125,
      "d": 104.89499999999998,
      "v": 24
    },
    {
      "midi": 40,
      "hit": false,
      "t": 3575.1712500000003,
      "d": 1459.788749999997,
      "v": 64
    },
    {
      "midi": 56,
      "hit": false,
      "t": 3771.8493750000002,
      "d": 375.8737500000002,
      "v": 67
    },
    {
      "midi": 59,
      "hit": false,
      "t": 3776.22,
      "d": 244.7550000000001,
      "v": 56
    },
    {
      "midi": 64,
      "hit": false,
      "t": 3776.22,
      "d": 288.4612500000003,
      "v": 56
    },
    {
      "midi": 64,
      "hit": false,
      "t": 3776.2200000000003,
      "d": 375.87374999999975,
      "v": 67
    },
    {
      "midi": 63,
      "hit": false,
      "t": 3780.590625,
      "d": 4.370625000000018,
      "v": 86
    },
    {
      "midi": 59,
      "hit": false,
      "t": 3780.5906250000003,
      "d": 375.8737499999993,
      "v": 67
    },
    {
      "midi": 28,
      "hit": false,
      "t": 3986.0099999999998,
      "d": 91.78312499999993,
      "v": 99
    },
    {
      "midi": 47,
      "hit": false,
      "t": 3986.01,
      "d": 166.08374999999978,
      "v": 55
    },
    {
      "midi": 52,
      "hit": false,
      "t": 3986.010000000001,
      "d": 187.93687500000033,
      "v": 104
    },
    {
      "midi": 56,
      "hit": false,
      "t": 3986.010000000001,
      "d": 187.93687500000033,
      "v": 104
    },
    {
      "midi": 56,
      "hit": false,
      "t": 3990.380625,
      "d": 375.87375000000065,
      "v": 38
    },
    {
      "midi": 28,
      "hit": false,
      "t": 4195.799999999999,
      "d": 415.20937500000036,
      "v": 99
    },
    {
      "midi": 76,
      "hit": false,
      "t": 4195.8,
      "d": 375.87374999999975,
      "v": 104
    },
    {
      "midi": 47,
      "hit": false,
      "t": 4195.8,
      "d": 236.01374999999916,
      "v": 51
    },
    {
      "midi": 52,
      "hit": false,
      "t": 4195.800000000001,
      "d": 375.87374999999975,
      "v": 104
    },
    {
      "midi": 56,
      "hit": false,
      "t": 4195.800000000001,
      "d": 375.87374999999975,
      "v": 104
    },
    {
      "midi": 56,
      "hit": false,
      "t": 4401.219375,
      "d": 166.08374999999887,
      "v": 67
    },
    {
      "midi": 47,
      "hit": false,
      "t": 4405.589999999999,
      "d": 166.08374999999887,
      "v": 55
    },
    {
      "midi": 64,
      "hit": false,
      "t": 4405.589999999999,
      "d": 166.08374999999887,
      "v": 67
    },
    {
      "midi": 59,
      "hit": false,
      "t": 4409.960624999999,
      "d": 166.08374999999887,
      "v": 67
    },
    {
      "midi": 62,
      "hit": false,
      "t": 4409.960625,
      "d": 4.370624999999563,
      "v": 92
    },
    {
      "midi": 56,
      "hit": false,
      "t": 4409.960625,
      "d": 288.4612499999994,
      "v": 43
    },
    {
      "midi": 59,
      "hit": false,
      "t": 4615.379999999997,
      "d": 170.45437500000025,
      "v": 64
    },
    {
      "midi": 64,
      "hit": false,
      "t": 4615.379999999999,
      "d": 4.370624999999563,
      "v": 86
    },
    {
      "midi": 78,
      "hit": false,
      "t": 4615.38,
      "d": 375.87374999999975,
      "v": 104
    },
    {
      "midi": 59,
      "hit": false,
      "t": 4825.169999999999,
      "d": 135.4893749999992,
      "v": 33
    },
    {
      "midi": 28,
      "hit": false,
      "t": 4825.17,
      "d": 91.78312499999993,
      "v": 99
    },
    {
      "midi": 56,
      "hit": false,
      "t": 4829.540624999998,
      "d": 170.45437500000025,
      "v": 55
    },
    {
      "midi": 64,
      "hit": false,
      "t": 4829.540624999999,
      "d": 4.370624999999563,
      "v": 92
    },
    {
      "midi": 56,
      "hit": false,
      "t": 4829.540624999999,
      "d": 113.63624999999956,
      "v": 31
    },
    {
      "midi": 56,
      "hit": false,
      "t": 5030.589374999998,
      "d": 4.370624999999563,
      "v": 51
    },
    {
      "midi": 64,
      "hit": false,
      "t": 5030.589374999998,
      "d": 4.370624999999563,
      "v": 57
    },
    {
      "midi": 52,
      "hit": false,
      "t": 5034.959999999997,
      "d": 170.45437499999935,
      "v": 55
    },
    {
      "midi": 56,
      "hit": false,
      "t": 5034.959999999997,
      "d": 170.45437499999935,
      "v": 63
    },
    {
      "midi": 61,
      "hit": false,
      "t": 5034.959999999997,
      "d": 170.45437499999935,
      "v": 59
    },
    {
      "midi": 45,
      "hit": false,
      "t": 5034.959999999997,
      "d": 1534.0893749999977,
      "v": 64
    },
    {
      "midi": 52,
      "hit": false,
      "t": 5034.959999999998,
      "d": 83.04187499999989,
      "v": 61
    },
    {
      "midi": 56,
      "hit": false,
      "t": 5034.959999999998,
      "d": 83.04187499999989,
      "v": 61
    },
    {
      "midi": 64,
      "hit": false,
      "t": 5034.959999999998,
      "d": 96.15374999999949,
      "v": 61
    },
    {
      "midi": 80,
      "hit": false,
      "t": 5034.96,
      "d": 563.8106250000001,
      "v": 104
    },
    {
      "midi": 33,
      "hit": false,
      "t": 5034.96,
      "d": 419.5799999999999,
      "v": 99
    },
    {
      "midi": 57,
      "hit": false,
      "t": 5034.960000000001,
      "d": 375.87374999999975,
      "v": 104
    },
    {
      "midi": 61,
      "hit": false,
      "t": 5034.960000000001,
      "d": 375.87374999999975,
      "v": 104
    },
    {
      "midi": 64,
      "hit": false,
      "t": 5039.330624999997,
      "d": 170.45437499999935,
      "v": 59
    },
    {
      "midi": 56,
      "hit": false,
      "t": 5454.539999999998,
      "d": 201.04874999999993,
      "v": 57
    },
    {
      "midi": 56,
      "hit": false,
      "t": 5458.910624999996,
      "d": 380.2443750000002,
      "v": 59
    },
    {
      "midi": 61,
      "hit": false,
      "t": 5458.910624999996,
      "d": 380.2443750000002,
      "v": 63
    },
    {
      "midi": 64,
      "hit": false,
      "t": 5458.910624999996,
      "d": 380.2443750000002,
      "v": 59
    },
    {
      "midi": 63,
      "hit": false,
      "t": 5458.910624999999,
      "d": 4.370624999999563,
      "v": 86
    },
    {
      "midi": 64,
      "hit": false,
      "t": 5463.281249999998,
      "d": 78.67125000000033,
      "v": 64
    },
    {
      "midi": 52,
      "hit": false,
      "t": 5467.651874999996,
      "d": 380.2443750000002,
      "v": 61
    },
    {
      "midi": 52,
      "hit": false,
      "t": 5659.959374999998,
      "d": 139.85999999999967,
      "v": 23
    },
    {
      "midi": 76,
      "hit": false,
      "t": 5664.33,
      "d": 563.8106250000001,
      "v": 104
    },
    {
      "midi": 33,
      "hit": false,
      "t": 5664.33,
      "d": 100.52437499999996,
      "v": 95
    },
    {
      "midi": 57,
      "hit": false,
      "t": 5664.330000000001,
      "d": 187.93687500000033,
      "v": 104
    },
    {
      "midi": 61,
      "hit": false,
      "t": 5664.330000000001,
      "d": 187.93687500000033,
      "v": 104
    },
    {
      "midi": 63,
      "hit": false,
      "t": 5668.700624999999,
      "d": 4.370624999999563,
      "v": 42
    },
    {
      "midi": 56,
      "hit": false,
      "t": 5874.119999999997,
      "d": 209.78999999999996,
      "v": 54
    },
    {
      "midi": 33,
      "hit": false,
      "t": 5874.12,
      "d": 472.02750000000015,
      "v": 92
    },
    {
      "midi": 57,
      "hit": false,
      "t": 5874.120000000001,
      "d": 375.87374999999975,
      "v": 104
    },
    {
      "midi": 61,
      "hit": false,
      "t": 5874.120000000001,
      "d": 375.87374999999975,
      "v": 104
    },
    {
      "midi": 61,
      "hit": false,
      "t": 5887.231874999996,
      "d": 170.45437500000025,
      "v": 57
    },
    {
      "midi": 64,
      "hit": false,
      "t": 6083.909999999997,
      "d": 4.370624999999563,
      "v": 45
    },
    {
      "midi": 52,
      "hit": false,
      "t": 6083.909999999997,
      "d": 174.82499999999982,
      "v": 45
    },
    {
      "midi": 56,
      "hit": false,
      "t": 6083.909999999997,
      "d": 218.53125,
      "v": 41
    },
    {
      "midi": 62,
      "hit": false,
      "t": 6083.909999999998,
      "d": 4.370624999999563,
      "v": 95
    },
    {
      "midi": 52,
      "hit": false,
      "t": 6088.280624999996,
      "d": 585.6637499999997,
      "v": 67
    },
    {
      "midi": 61,
      "hit": false,
      "t": 6092.651249999995,
      "d": 585.6637499999997,
      "v": 67
    },
    {
      "midi": 64,
      "hit": false,
      "t": 6092.651249999995,
      "d": 585.6637499999997,
      "v": 55
    },
    {
      "midi": 56,
      "hit": false,
      "t": 6097.021874999995,
      "d": 585.6637499999997,
      "v": 67
    },
    {
      "midi": 64,
      "hit": false,
      "t": 6293.699999999998,
      "d": 4.370624999999563,
      "v": 47
    },
    {
      "midi": 80,
      "hit": false,
      "t": 6293.7,
      "d": 375.87374999999975,
      "v": 104
    },
    {
      "midi": 56,
      "hit": false,
      "t": 6503.489999999997,
      "d": 113.63625000000047,
      "v": 44
    },
    {
      "midi": 52,
      "hit": false,
      "t": 6503.489999999997,
      "d": 288.4612500000003,
      "v": 41
    },
    {
      "midi": 33,
      "hit": false,
      "t": 6503.49,
      "d": 100.52437499999996,
      "v": 99
    },
    {
      "midi": 64,
      "hit": false,
      "t": 6507.8606249999975,
      "d": 4.370624999999563,
      "v": 96
    },
    {
      "midi": 64,
      "hit": false,
      "t": 6512.231249999997,
      "d": 113.63625000000047,
      "v": 36
    },
    {
      "midi": 40,
      "hit": false,
      "t": 6713.279999999994,
      "d": 196.67812500000036,
      "v": 58
    },
    {
      "midi": 74,
      "hit": false,
      "t": 6713.28,
      "d": 2259.613124999999,
      "v": 104
    },
    {
      "midi": 78,
      "hit": false,
      "t": 6713.28,
      "d": 2259.613124999999,
      "v": 104
    },
    {
      "midi": 81,
      "hit": false,
      "t": 6713.28,
      "d": 2259.613124999999,
      "v": 104
    },
    {
      "midi": 28,
      "hit": false,
      "t": 6713.28,
      "d": 423.9506250000004,
      "v": 99
    },
    {
      "midi": 52,
      "hit": false,
      "t": 6713.280000000001,
      "d": 375.87374999999975,
      "v": 104
    },
    {
      "midi": 59,
      "hit": false,
      "t": 6713.280000000001,
      "d": 375.87374999999975,
      "v": 104
    },
    {
      "midi": 62,
      "hit": false,
      "t": 6713.280000000001,
      "d": 375.87374999999975,
      "v": 104
    },
    {
      "midi": 47,
      "hit": false,
      "t": 6717.6506249999975,
      "d": 196.67812499999945,
      "v": 59
    },
    {
      "midi": 64,
      "hit": false,
      "t": 6927.440624999997,
      "d": 4.370624999999563,
      "v": 55
    },
    {
      "midi": 40,
      "hit": false,
      "t": 6931.811249999994,
      "d": 1459.788749999997,
      "v": 64
    },
    {
      "midi": 50,
      "hit": false,
      "t": 7132.859999999994,
      "d": 91.78312499999902,
      "v": 67
    },
    {
      "midi": 57,
      "hit": false,
      "t": 7132.859999999994,
      "d": 91.78312499999902,
      "v": 67
    },
    {
      "midi": 47,
      "hit": false,
      "t": 7132.859999999997,
      "d": 222.90187499999956,
      "v": 64
    },
    {
      "midi": 62,
      "hit": false,
      "t": 7132.859999999997,
      "d": 384.6149999999998,
      "v": 54
    },
    {
      "midi": 54,
      "hit": false,
      "t": 7137.230624999994,
      "d": 104.89499999999953,
      "v": 66
    },
    {
      "midi": 63,
      "hit": false,
      "t": 7137.230624999997,
      "d": 4.370624999999563,
      "v": 86
    },
    {
      "midi": 66,
      "hit": false,
      "t": 7141.601249999993,
      "d": 74.30062499999985,
      "v": 67
    },
    {
      "midi": 54,
      "hit": false,
      "t": 7342.649999999997,
      "d": 148.6012499999997,
      "v": 35
    },
    {
      "midi": 52,
      "hit": false,
      "t": 7342.650000000001,
      "d": 187.93687500000033,
      "v": 104
    },
    {
      "midi": 59,
      "hit": false,
      "t": 7342.650000000001,
      "d": 187.93687500000033,
      "v": 104
    },
    {
      "midi": 62,
      "hit": false,
      "t": 7342.650000000001,
      "d": 187.93687500000033,
      "v": 104
    },
    {
      "midi": 28,
      "hit": false,
      "t": 7342.650000000001,
      "d": 91.78312499999993,
      "v": 99
    },
    {
      "midi": 52,
      "hit": false,
      "t": 7552.4400000000005,
      "d": 375.87374999999975,
      "v": 104
    },
    {
      "midi": 59,
      "hit": false,
      "t": 7552.4400000000005,
      "d": 375.87374999999975,
      "v": 104
    },
    {
      "midi": 62,
      "hit": false,
      "t": 7552.4400000000005,
      "d": 375.87374999999975,
      "v": 104
    },
    {
      "midi": 28,
      "hit": false,
      "t": 7552.4400000000005,
      "d": 415.20937500000036,
      "v": 99
    },
    {
      "midi": 54,
      "hit": false,
      "t": 7762.229999999993,
      "d": 388.98562499999935,
      "v": 67
    },
    {
      "midi": 57,
      "hit": false,
      "t": 7762.229999999993,
      "d": 388.98562499999935,
      "v": 67
    },
    {
      "midi": 62,
      "hit": false,
      "t": 7762.229999999997,
      "d": 26.22375000000011,
      "v": 45
    },
    {
      "midi": 54,
      "hit": false,
      "t": 7762.229999999997,
      "d": 83.04187499999989,
      "v": 40
    },
    {
      "midi": 47,
      "hit": false,
      "t": 7762.229999999997,
      "d": 139.85999999999967,
      "v": 45
    },
    {
      "midi": 50,
      "hit": false,
      "t": 7766.600624999993,
      "d": 388.98562499999935,
      "v": 67
    },
    {
      "midi": 66,
      "hit": false,
      "t": 7766.600624999993,
      "d": 388.98562499999935,
      "v": 67
    },
    {
      "midi": 62,
      "hit": false,
      "t": 7766.600624999997,
      "d": 4.370624999999563,
      "v": 92
    },
    {
      "midi": 64,
      "hit": false,
      "t": 7972.019999999997,
      "d": 4.370624999999563,
      "v": 86
    },
    {
      "midi": 50,
      "hit": false,
      "t": 8181.809999999992,
      "d": 170.45437499999935,
      "v": 63
    },
    {
      "midi": 54,
      "hit": false,
      "t": 8181.809999999997,
      "d": 187.93687500000033,
      "v": 37
    },
    {
      "midi": 47,
      "hit": false,
      "t": 8181.809999999997,
      "d": 201.04875000000084,
      "v": 35
    },
    {
      "midi": 52,
      "hit": false,
      "t": 8181.81,
      "d": 187.93687500000033,
      "v": 104
    },
    {
      "midi": 59,
      "hit": false,
      "t": 8181.81,
      "d": 187.93687500000033,
      "v": 104
    },
    {
      "midi": 62,
      "hit": false,
      "t": 8181.81,
      "d": 187.93687500000033,
      "v": 104
    },
    {
      "midi": 28,
      "hit": false,
      "t": 8181.810000000001,
      "d": 91.78312499999993,
      "v": 99
    },
    {
      "midi": 64,
      "hit": false,
      "t": 8186.180624999996,
      "d": 4.370624999999563,
      "v": 92
    },
    {
      "midi": 40,
      "hit": false,
      "t": 8391.599999999991,
      "d": 170.45437499999935,
      "v": 58
    },
    {
      "midi": 28,
      "hit": false,
      "t": 8391.6,
      "d": 423.9506249999995,
      "v": 99
    },
    {
      "midi": 47,
      "hit": false,
      "t": 8395.970624999996,
      "d": 196.67812500000036,
      "v": 59
    },
    {
      "midi": 52,
      "hit": false,
      "t": 8601.390000000001,
      "d": 187.93687499999942,
      "v": 104
    },
    {
      "midi": 59,
      "hit": false,
      "t": 8601.390000000001,
      "d": 187.93687499999942,
      "v": 104
    },
    {
      "midi": 62,
      "hit": false,
      "t": 8601.390000000001,
      "d": 187.93687499999942,
      "v": 104
    },
    {
      "midi": 64,
      "hit": false,
      "t": 8605.760624999997,
      "d": 4.370624999999563,
      "v": 55
    },
    {
      "midi": 40,
      "hit": false,
      "t": 8610.131249999991,
      "d": 1315.558124999996,
      "v": 64
    },
    {
      "midi": 50,
      "hit": false,
      "t": 8811.179999999991,
      "d": 91.78312499999811,
      "v": 59
    },
    {
      "midi": 57,
      "hit": false,
      "t": 8811.179999999991,
      "d": 91.78312499999811,
      "v": 52
    },
    {
      "midi": 54,
      "hit": false,
      "t": 8811.179999999997,
      "d": 56.81812499999978,
      "v": 50
    },
    {
      "midi": 62,
      "hit": false,
      "t": 8811.179999999997,
      "d": 209.78999999999905,
      "v": 54
    },
    {
      "midi": 47,
      "hit": false,
      "t": 8811.179999999997,
      "d": 222.90187499999956,
      "v": 64
    },
    {
      "midi": 54,
      "hit": false,
      "t": 8815.55062499999,
      "d": 104.89499999999862,
      "v": 48
    },
    {
      "midi": 63,
      "hit": false,
      "t": 8815.550624999996,
      "d": 4.370624999999563,
      "v": 86
    },
    {
      "midi": 66,
      "hit": false,
      "t": 8819.92124999999,
      "d": 74.30062499999985,
      "v": 62
    },
    {
      "midi": 62,
      "hit": false,
      "t": 8916.074999999995,
      "d": 4.370624999999563,
      "v": 72
    },
    {
      "midi": 45,
      "hit": false,
      "t": 9020.96999999999,
      "d": 170.45437499999935,
      "v": 68
    },
    {
      "midi": 28,
      "hit": false,
      "t": 9020.97,
      "d": 91.78312499999993,
      "v": 99
    },
    {
      "midi": 52,
      "hit": false,
      "t": 9020.970000000001,
      "d": 187.93687499999942,
      "v": 104
    },
    {
      "midi": 59,
      "hit": false,
      "t": 9020.970000000001,
      "d": 187.93687499999942,
      "v": 104
    },
    {
      "midi": 62,
      "hit": false,
      "t": 9020.970000000001,
      "d": 187.93687499999942,
      "v": 104
    },
    {
      "midi": 63,
      "hit": false,
      "t": 9025.340624999995,
      "d": 4.370624999999563,
      "v": 86
    },
    {
      "midi": 50,
      "hit": false,
      "t": 9230.75999999999,
      "d": 170.45437499999935,
      "v": 63
    },
    {
      "midi": 47,
      "hit": false,
      "t": 9230.759999999997,
      "d": 118.00687499999913,
      "v": 63
    },
    {
      "midi": 73,
      "hit": false,
      "t": 9230.759999999998,
      "d": 375.87375000000065,
      "v": 104
    },
    {
      "midi": 28,
      "hit": false,
      "t": 9230.759999999998,
      "d": 415.20937500000036,
      "v": 99
    },
    {
      "midi": 52,
      "hit": false,
      "t": 9230.76,
      "d": 375.87375000000065,
      "v": 104
    },
    {
      "midi": 59,
      "hit": false,
      "t": 9230.76,
      "d": 375.87375000000065,
      "v": 104
    },
    {
      "midi": 62,
      "hit": false,
      "t": 9230.76,
      "d": 375.87375000000065,
      "v": 104
    },
    {
      "midi": 54,
      "hit": false,
      "t": 9440.549999999988,
      "d": 388.98562499999935,
      "v": 48
    },
    {
      "midi": 57,
      "hit": false,
      "t": 9440.549999999988,
      "d": 388.98562499999935,
      "v": 59
    },
    {
      "midi": 62,
      "hit": false,
      "t": 9440.549999999996,
      "d": 847.9012499999972,
      "v": 45
    },
    {
      "midi": 50,
      "hit": false,
      "t": 9444.920624999988,
      "d": 388.98562499999935,
      "v": 67
    },
    {
      "midi": 66,
      "hit": false,
      "t": 9444.920624999988,
      "d": 388.98562499999935,
      "v": 67
    },
    {
      "midi": 64,
      "hit": false,
      "t": 9444.920624999995,
      "d": 4.370624999999563,
      "v": 92
    },
    {
      "midi": 63,
      "hit": false,
      "t": 9650.339999999995,
      "d": 4.370624999999563,
      "v": 86
    },
    {
      "midi": 74,
      "hit": false,
      "t": 9650.339999999998,
      "d": 375.87375000000065,
      "v": 104
    },
    {
      "midi": 54,
      "hit": false,
      "t": 9860.129999999996,
      "d": 26.2237499999992,
      "v": 37
    },
    {
      "midi": 47,
      "hit": false,
      "t": 9860.129999999996,
      "d": 201.04874999999993,
      "v": 35
    },
    {
      "midi": 28,
      "hit": false,
      "t": 9860.13,
      "d": 91.78312499999993,
      "v": 99
    },
    {
      "midi": 63,
      "hit": false,
      "t": 9864.500624999995,
      "d": 4.370624999999563,
      "v": 92
    },
    {
      "midi": 45,
      "hit": false,
      "t": 10069.919999999987,
      "d": 196.67812500000036,
      "v": 58
    },
    {
      "midi": 76,
      "hit": false,
      "t": 10069.919999999998,
      "d": 375.87375000000065,
      "v": 104
    },
    {
      "midi": 33,
      "hit": false,
      "t": 10069.919999999998,
      "d": 423.9506249999995,
      "v": 99
    },
    {
      "midi": 57,
      "hit": false,
      "t": 10069.92,
      "d": 375.87375000000065,
      "v": 104
    },
    {
      "midi": 61,
      "hit": false,
      "t": 10069.92,
      "d": 375.87375000000065,
      "v": 104
    },
    {
      "midi": 52,
      "hit": false,
      "t": 10074.290624999994,
      "d": 196.67812500000036,
      "v": 59
    },
    {
      "midi": 64,
      "hit": false,
      "t": 10284.080624999995,
      "d": 4.370624999999563,
      "v": 55
    },
    {
      "midi": 45,
      "hit": false,
      "t": 10288.451249999987,
      "d": 2993.878124999992,
      "v": 64
    },
    {
      "midi": 52,
      "hit": false,
      "t": 10489.499999999987,
      "d": 91.78312499999811,
      "v": 67
    },
    {
      "midi": 61,
      "hit": false,
      "t": 10489.499999999987,
      "d": 91.78312499999811,
      "v": 67
    },
    {
      "midi": 52,
      "hit": false,
      "t": 10489.499999999993,
      "d": 222.90187500000138,
      "v": 64
    },
    {
      "midi": 64,
      "hit": false,
      "t": 10489.499999999993,
      "d": 384.6149999999998,
      "v": 54
    },
    {
      "midi": 76,
      "hit": false,
      "t": 10489.499999999998,
      "d": 187.93687499999942,
      "v": 104
    },
    {
      "midi": 56,
      "hit": false,
      "t": 10493.870624999987,
      "d": 104.89499999999862,
      "v": 66
    },
    {
      "midi": 63,
      "hit": false,
      "t": 10493.870624999994,
      "d": 4.370624999999563,
      "v": 86
    },
    {
      "midi": 64,
      "hit": false,
      "t": 10498.241249999986,
      "d": 74.30062499999985,
      "v": 67
    },
    {
      "midi": 56,
      "hit": false,
      "t": 10699.289999999994,
      "d": 148.6012499999997,
      "v": 35
    },
    {
      "midi": 76,
      "hit": false,
      "t": 10699.289999999997,
      "d": 375.87375000000065,
      "v": 104
    },
    {
      "midi": 33,
      "hit": false,
      "t": 10699.289999999997,
      "d": 91.78312499999993,
      "v": 99
    },
    {
      "midi": 57,
      "hit": false,
      "t": 10699.29,
      "d": 187.93687499999942,
      "v": 104
    },
    {
      "midi": 61,
      "hit": false,
      "t": 10699.29,
      "d": 187.93687499999942,
      "v": 104
    },
    {
      "midi": 33,
      "hit": false,
      "t": 10909.079999999996,
      "d": 415.20937500000036,
      "v": 99
    },
    {
      "midi": 57,
      "hit": false,
      "t": 10909.08,
      "d": 375.87375000000065,
      "v": 104
    },
    {
      "midi": 61,
      "hit": false,
      "t": 10909.08,
      "d": 375.87375000000065,
      "v": 104
    },
    {
      "midi": 56,
      "hit": false,
      "t": 11118.869999999986,
      "d": 388.98562499999935,
      "v": 67
    },
    {
      "midi": 61,
      "hit": false,
      "t": 11118.869999999986,
      "d": 388.98562499999935,
      "v": 67
    },
    {
      "midi": 64,
      "hit": false,
      "t": 11118.869999999994,
      "d": 26.2237499999992,
      "v": 45
    },
    {
      "midi": 56,
      "hit": false,
      "t": 11118.869999999994,
      "d": 83.04187499999898,
      "v": 40
    },
    {
      "midi": 52,
      "hit": false,
      "t": 11118.869999999994,
      "d": 139.85999999999876,
      "v": 45
    },
    {
      "midi": 78,
      "hit": false,
      "t": 11118.869999999997,
      "d": 187.93687499999942,
      "v": 104
    },
    {
      "midi": 52,
      "hit": false,
      "t": 11123.240624999986,
      "d": 388.98562499999935,
      "v": 67
    },
    {
      "midi": 64,
      "hit": false,
      "t": 11123.240624999986,
      "d": 388.98562499999935,
      "v": 67
    },
    {
      "midi": 62,
      "hit": false,
      "t": 11123.240624999993,
      "d": 4.370624999999563,
      "v": 92
    },
    {
      "midi": 64,
      "hit": false,
      "t": 11328.659999999993,
      "d": 4.370624999999563,
      "v": 86
    },
    {
      "midi": 76,
      "hit": false,
      "t": 11328.659999999996,
      "d": 187.93687499999942,
      "v": 104
    },
    {
      "midi": 52,
      "hit": false,
      "t": 11538.449999999984,
      "d": 170.45437499999935,
      "v": 63
    },
    {
      "midi": 56,
      "hit": false,
      "t": 11538.449999999993,
      "d": 187.93687499999942,
      "v": 37
    },
    {
      "midi": 52,
      "hit": false,
      "t": 11538.449999999993,
      "d": 201.04874999999993,
      "v": 35
    },
    {
      "midi": 76,
      "hit": false,
      "t": 11538.449999999995,
      "d": 563.8106250000001,
      "v": 104
    },
    {
      "midi": 33,
      "hit": false,
      "t": 11538.449999999997,
      "d": 91.78312499999993,
      "v": 99
    },
    {
      "midi": 57,
      "hit": false,
      "t": 11538.45,
      "d": 187.93687499999942,
      "v": 104
    },
    {
      "midi": 61,
      "hit": false,
      "t": 11538.45,
      "d": 187.93687499999942,
      "v": 104
    },
    {
      "midi": 64,
      "hit": false,
      "t": 11542.820624999993,
      "d": 4.370624999999563,
      "v": 92
    },
    {
      "midi": 52,
      "hit": false,
      "t": 11748.239999999983,
      "d": 170.45437499999935,
      "v": 55
    },
    {
      "midi": 56,
      "hit": false,
      "t": 11748.239999999983,
      "d": 170.45437499999935,
      "v": 63
    },
    {
      "midi": 61,
      "hit": false,
      "t": 11748.239999999983,
      "d": 170.45437499999935,
      "v": 59
    },
    {
      "midi": 52,
      "hit": false,
      "t": 11748.239999999993,
      "d": 83.0418750000008,
      "v": 61
    },
    {
      "midi": 56,
      "hit": false,
      "t": 11748.239999999993,
      "d": 83.0418750000008,
      "v": 61
    },
    {
      "midi": 64,
      "hit": false,
      "t": 11748.239999999993,
      "d": 96.15375000000131,
      "v": 61
    },
    {
      "midi": 33,
      "hit": false,
      "t": 11748.239999999996,
      "d": 419.5799999999999,
      "v": 99
    },
    {
      "midi": 57,
      "hit": false,
      "t": 11748.24,
      "d": 375.87375000000065,
      "v": 104
    },
    {
      "midi": 61,
      "hit": false,
      "t": 11748.24,
      "d": 375.87375000000065,
      "v": 104
    },
    {
      "midi": 64,
      "hit": false,
      "t": 11752.610624999983,
      "d": 170.45437499999935,
      "v": 59
    },
    {
      "midi": 56,
      "hit": false,
      "t": 12167.819999999994,
      "d": 201.0487499999981,
      "v": 57
    },
    {
      "midi": 56,
      "hit": false,
      "t": 12172.190624999983,
      "d": 380.2443749999984,
      "v": 59
    },
    {
      "midi": 61,
      "hit": false,
      "t": 12172.190624999983,
      "d": 380.2443749999984,
      "v": 63
    },
    {
      "midi": 64,
      "hit": false,
      "t": 12172.190624999983,
      "d": 380.2443749999984,
      "v": 59
    },
    {
      "midi": 63,
      "hit": false,
      "t": 12172.190624999992,
      "d": 4.370624999999563,
      "v": 86
    },
    {
      "midi": 64,
      "hit": false,
      "t": 12176.561249999993,
      "d": 78.67124999999942,
      "v": 64
    },
    {
      "midi": 52,
      "hit": false,
      "t": 12180.931874999982,
      "d": 380.2443749999984,
      "v": 61
    },
    {
      "midi": 52,
      "hit": false,
      "t": 12373.239374999992,
      "d": 139.86000000000058,
      "v": 23
    },
    {
      "midi": 33,
      "hit": false,
      "t": 12377.609999999997,
      "d": 100.52437500000087,
      "v": 95
    },
    {
      "midi": 57,
      "hit": false,
      "t": 12377.61,
      "d": 187.93687499999942,
      "v": 104
    },
    {
      "midi": 61,
      "hit": false,
      "t": 12377.61,
      "d": 187.93687499999942,
      "v": 104
    },
    {
      "midi": 63,
      "hit": false,
      "t": 12381.980624999991,
      "d": 4.370624999999563,
      "v": 42
    },
    {
      "midi": 56,
      "hit": false,
      "t": 12587.399999999992,
      "d": 209.79000000000087,
      "v": 54
    },
    {
      "midi": 73,
      "hit": false,
      "t": 12587.399999999996,
      "d": 375.87375000000065,
      "v": 104
    },
    {
      "midi": 33,
      "hit": false,
      "t": 12587.399999999998,
      "d": 472.02750000000015,
      "v": 92
    },
    {
      "midi": 57,
      "hit": false,
      "t": 12587.4,
      "d": 375.87375000000065,
      "v": 104
    },
    {
      "midi": 61,
      "hit": false,
      "t": 12587.4,
      "d": 375.87375000000065,
      "v": 104
    },
    {
      "midi": 61,
      "hit": false,
      "t": 12600.51187499998,
      "d": 170.45437499999935,
      "v": 57
    },
    {
      "midi": 62,
      "hit": false,
      "t": 12797.189999999991,
      "d": 4.370624999999563,
      "v": 95
    },
    {
      "midi": 64,
      "hit": false,
      "t": 12797.189999999993,
      "d": 4.370624999999563,
      "v": 45
    },
    {
      "midi": 52,
      "hit": false,
      "t": 12797.189999999993,
      "d": 174.8249999999989,
      "v": 45
    },
    {
      "midi": 56,
      "hit": false,
      "t": 12797.189999999993,
      "d": 218.53124999999818,
      "v": 41
    },
    {
      "midi": 52,
      "hit": false,
      "t": 12801.56062499998,
      "d": 585.6637499999997,
      "v": 67
    },
    {
      "midi": 61,
      "hit": false,
      "t": 12805.93124999998,
      "d": 585.6637499999997,
      "v": 67
    },
    {
      "midi": 64,
      "hit": false,
      "t": 12805.93124999998,
      "d": 585.6637499999997,
      "v": 55
    },
    {
      "midi": 56,
      "hit": false,
      "t": 12810.30187499998,
      "d": 585.6637499999997,
      "v": 67
    },
    {
      "midi": 64,
      "hit": false,
      "t": 13006.97999999999,
      "d": 4.370624999999563,
      "v": 47
    },
    {
      "midi": 74,
      "hit": false,
      "t": 13006.979999999996,
      "d": 375.87375000000065,
      "v": 104
    },
    {
      "midi": 56,
      "hit": false,
      "t": 13216.769999999991,
      "d": 113.63624999999956,
      "v": 44
    },
    {
      "midi": 52,
      "hit": false,
      "t": 13216.769999999991,
      "d": 288.4612499999985,
      "v": 41
    },
    {
      "midi": 33,
      "hit": false,
      "t": 13216.769999999999,
      "d": 100.52437500000087,
      "v": 99
    },
    {
      "midi": 57,
      "hit": false,
      "t": 13216.77,
      "d": 187.93687499999942,
      "v": 104
    },
    {
      "midi": 61,
      "hit": false,
      "t": 13216.77,
      "d": 187.93687499999942,
      "v": 104
    },
    {
      "midi": 64,
      "hit": false,
      "t": 13221.14062499999,
      "d": 4.370624999999563,
      "v": 96
    },
    {
      "midi": 64,
      "hit": false,
      "t": 13225.51124999999,
      "d": 113.63624999999956,
      "v": 36
    },
    {
      "midi": 40,
      "hit": false,
      "t": 13426.55999999998,
      "d": 196.67812500000036,
      "v": 58
    },
    {
      "midi": 76,
      "hit": false,
      "t": 13426.559999999996,
      "d": 375.87375000000065,
      "v": 104
    },
    {
      "midi": 52,
      "hit": false,
      "t": 13426.56,
      "d": 375.87375000000065,
      "v": 104
    },
    {
      "midi": 55,
      "hit": false,
      "t": 13426.56,
      "d": 375.87375000000065,
      "v": 104
    },
    {
      "midi": 59,
      "hit": false,
      "t": 13426.56,
      "d": 375.87375000000065,
      "v": 104
    },
    {
      "midi": 28,
      "hit": false,
      "t": 13426.56,
      "d": 423.9506249999995,
      "v": 99
    },
    {
      "midi": 47,
      "hit": false,
      "t": 13430.93062499999,
      "d": 568.1812499999978,
      "v": 62
    },
    {
      "midi": 62,
      "hit": false,
      "t": 13435.30124999999,
      "d": 122.37750000000051,
      "v": 46
    },
    {
      "midi": 59,
      "hit": false,
      "t": 13435.30124999999,
      "d": 201.04874999999993,
      "v": 57
    },
    {
      "midi": 64,
      "hit": false,
      "t": 13640.72062499999,
      "d": 4.370624999999563,
      "v": 55
    },
    {
      "midi": 40,
      "hit": false,
      "t": 13645.09124999998,
      "d": 1459.788749999996,
      "v": 64
    },
    {
      "midi": 59,
      "hit": false,
      "t": 13645.091249999989,
      "d": 104.89500000000044,
      "v": 24
    },
    {
      "midi": 50,
      "hit": false,
      "t": 13846.13999999998,
      "d": 91.78312499999811,
      "v": 67
    },
    {
      "midi": 59,
      "hit": false,
      "t": 13846.13999999998,
      "d": 91.78312499999811,
      "v": 67
    },
    {
      "midi": 59,
      "hit": false,
      "t": 13846.139999999989,
      "d": 244.7549999999992,
      "v": 56
    },
    {
      "midi": 62,
      "hit": false,
      "t": 13846.139999999989,
      "d": 288.4612499999985,
      "v": 56
    },
    {
      "midi": 76,
      "hit": false,
      "t": 13846.139999999996,
      "d": 187.93687499999942,
      "v": 104
    },
    {
      "midi": 55,
      "hit": false,
      "t": 13850.510624999979,
      "d": 104.89499999999862,
      "v": 66
    },
    {
      "midi": 63,
      "hit": false,
      "t": 13850.51062499999,
      "d": 4.370624999999563,
      "v": 86
    },
    {
      "midi": 64,
      "hit": false,
      "t": 13854.881249999979,
      "d": 74.30062499999985,
      "v": 67
    },
    {
      "midi": 76,
      "hit": false,
      "t": 14055.929999999995,
      "d": 375.87375000000065,
      "v": 104
    },
    {
      "midi": 28,
      "hit": false,
      "t": 14055.929999999998,
      "d": 91.78312499999993,
      "v": 99
    },
    {
      "midi": 52,
      "hit": false,
      "t": 14055.93,
      "d": 187.93687499999942,
      "v": 104
    },
    {
      "midi": 55,
      "hit": false,
      "t": 14055.93,
      "d": 187.93687499999942,
      "v": 104
    },
    {
      "midi": 59,
      "hit": false,
      "t": 14055.93,
      "d": 187.93687499999942,
      "v": 104
    },
    {
      "midi": 55,
      "hit": false,
      "t": 14060.300624999987,
      "d": 375.87374999999884,
      "v": 38
    },
    {
      "midi": 47,
      "hit": false,
      "t": 14265.719999999987,
      "d": 236.01374999999825,
      "v": 51
    },
    {
      "midi": 28,
      "hit": false,
      "t": 14265.719999999998,
      "d": 415.20937500000036,
      "v": 99
    },
    {
      "midi": 52,
      "hit": false,
      "t": 14265.72,
      "d": 375.87375000000065,
      "v": 104
    },
    {
      "midi": 55,
      "hit": false,
      "t": 14265.72,
      "d": 375.87375000000065,
      "v": 104
    },
    {
      "midi": 59,
      "hit": false,
      "t": 14265.72,
      "d": 375.87375000000065,
      "v": 104
    },
    {
      "midi": 55,
      "hit": false,
      "t": 14475.509999999978,
      "d": 388.98562499999935,
      "v": 67
    },
    {
      "midi": 59,
      "hit": false,
      "t": 14475.509999999978,
      "d": 388.98562499999935,
      "v": 67
    },
    {
      "midi": 62,
      "hit": false,
      "t": 14475.509999999986,
      "d": 821.6774999999998,
      "v": 43
    },
    {
      "midi": 76,
      "hit": false,
      "t": 14475.509999999995,
      "d": 187.93687499999942,
      "v": 104
    },
    {
      "midi": 50,
      "hit": false,
      "t": 14479.880624999978,
      "d": 388.98562499999935,
      "v": 67
    },
    {
      "midi": 64,
      "hit": false,
      "t": 14479.880624999978,
      "d": 388.98562499999935,
      "v": 67
    },
    {
      "midi": 55,
      "hit": false,
      "t": 14479.880624999985,
      "d": 288.4612500000003,
      "v": 43
    },
    {
      "midi": 62,
      "hit": false,
      "t": 14479.880624999989,
      "d": 4.370624999999563,
      "v": 92
    },
    {
      "midi": 64,
      "hit": false,
      "t": 14685.299999999988,
      "d": 4.370624999999563,
      "v": 86
    },
    {
      "midi": 78,
      "hit": false,
      "t": 14685.299999999994,
      "d": 187.93687499999942,
      "v": 104
    },
    {
      "midi": 50,
      "hit": false,
      "t": 14895.089999999976,
      "d": 170.45437499999935,
      "v": 63
    },
    {
      "midi": 59,
      "hit": false,
      "t": 14895.089999999986,
      "d": 135.4893749999992,
      "v": 33
    },
    {
      "midi": 76,
      "hit": false,
      "t": 14895.089999999993,
      "d": 187.93687499999942,
      "v": 104
    },
    {
      "midi": 28,
      "hit": false,
      "t": 14895.089999999998,
      "d": 91.78312499999993,
      "v": 99
    },
    {
      "midi": 52,
      "hit": false,
      "t": 14895.09,
      "d": 187.93687499999942,
      "v": 104
    },
    {
      "midi": 55,
      "hit": false,
      "t": 14895.09,
      "d": 187.93687499999942,
      "v": 104
    },
    {
      "midi": 59,
      "hit": false,
      "t": 14895.09,
      "d": 187.93687499999942,
      "v": 104
    },
    {
      "midi": 55,
      "hit": false,
      "t": 14899.460624999985,
      "d": 113.63624999999956,
      "v": 31
    },
    {
      "midi": 64,
      "hit": false,
      "t": 14899.460624999989,
      "d": 4.370624999999563,
      "v": 92
    },
    {
      "midi": 52,
      "hit": false,
      "t": 15104.879999999976,
      "d": 170.45437499999935,
      "v": 55
    },
    {
      "midi": 55,
      "hit": false,
      "t": 15104.879999999976,
      "d": 170.45437499999935,
      "v": 63
    },
    {
      "midi": 61,
      "hit": false,
      "t": 15104.879999999976,
      "d": 170.45437499999935,
      "v": 59
    },
    {
      "midi": 43,
      "hit": false,
      "t": 15104.879999999976,
      "d": 1534.089374999996,
      "v": 64
    },
    {
      "midi": 52,
      "hit": false,
      "t": 15104.879999999985,
      "d": 83.0418750000008,
      "v": 61
    },
    {
      "midi": 55,
      "hit": false,
      "t": 15104.879999999985,
      "d": 83.0418750000008,
      "v": 61
    },
    {
      "midi": 64,
      "hit": false,
      "t": 15104.879999999985,
      "d": 96.15375000000131,
      "v": 61
    },
    {
      "midi": 76,
      "hit": false,
      "t": 15104.879999999992,
      "d": 375.87375000000065,
      "v": 104
    },
    {
      "midi": 31,
      "hit": false,
      "t": 15104.879999999997,
      "d": 419.5799999999999,
      "v": 99
    },
    {
      "midi": 55,
      "hit": false,
      "t": 15104.88,
      "d": 375.87375000000065,
      "v": 104
    },
    {
      "midi": 57,
      "hit": false,
      "t": 15104.88,
      "d": 375.87375000000065,
      "v": 104
    },
    {
      "midi": 61,
      "hit": false,
      "t": 15104.88,
      "d": 375.87375000000065,
      "v": 104
    },
    {
      "midi": 64,
      "hit": false,
      "t": 15109.250624999975,
      "d": 170.45437499999935,
      "v": 59
    },
    {
      "midi": 55,
      "hit": false,
      "t": 15524.459999999986,
      "d": 201.0487499999981,
      "v": 57
    },
    {
      "midi": 55,
      "hit": false,
      "t": 15528.830624999975,
      "d": 380.2443749999984,
      "v": 59
    },
    {
      "midi": 61,
      "hit": false,
      "t": 15528.830624999975,
      "d": 380.2443749999984,
      "v": 63
    },
    {
      "midi": 64,
      "hit": false,
      "t": 15528.830624999975,
      "d": 380.2443749999984,
      "v": 59
    },
    {
      "midi": 63,
      "hit": false,
      "t": 15528.830624999988,
      "d": 4.370624999999563,
      "v": 86
    },
    {
      "midi": 64,
      "hit": false,
      "t": 15533.201249999986,
      "d": 78.67124999999942,
      "v": 64
    },
    {
      "midi": 52,
      "hit": false,
      "t": 15537.571874999974,
      "d": 380.2443749999984,
      "v": 61
    },
    {
      "midi": 52,
      "hit": false,
      "t": 15729.879374999984,
      "d": 139.86000000000058,
      "v": 23
    },
    {
      "midi": 31,
      "hit": false,
      "t": 15734.249999999998,
      "d": 100.52437500000087,
      "v": 95
    },
    {
      "midi": 55,
      "hit": false,
      "t": 15734.25,
      "d": 187.93687499999942,
      "v": 104
    },
    {
      "midi": 57,
      "hit": false,
      "t": 15734.25,
      "d": 187.93687499999942,
      "v": 104
    },
    {
      "midi": 61,
      "hit": false,
      "t": 15734.25,
      "d": 187.93687499999942,
      "v": 104
    },
    {
      "midi": 63,
      "hit": false,
      "t": 15738.620624999987,
      "d": 4.370624999999563,
      "v": 42
    },
    {
      "midi": 55,
      "hit": false,
      "t": 15944.039999999985,
      "d": 209.79000000000087,
      "v": 54
    },
    {
      "midi": 69,
      "hit": false,
      "t": 15944.039999999992,
      "d": 375.87375000000065,
      "v": 104
    },
    {
      "midi": 55,
      "hit": false,
      "t": 15944.039999999999,
      "d": 375.87375000000065,
      "v": 104
    },
    {
      "midi": 57,
      "hit": false,
      "t": 15944.039999999999,
      "d": 375.87375000000065,
      "v": 104
    },
    {
      "midi": 61,
      "hit": false,
      "t": 15944.039999999999,
      "d": 375.87375000000065,
      "v": 104
    },
    {
      "midi": 31,
      "hit": false,
      "t": 15944.039999999999,
      "d": 472.0274999999983,
      "v": 92
    },
    {
      "midi": 61,
      "hit": false,
      "t": 15957.151874999972,
      "d": 170.45437499999935,
      "v": 57
    },
    {
      "midi": 64,
      "hit": false,
      "t": 16153.829999999985,
      "d": 4.370624999999563,
      "v": 45
    },
    {
      "midi": 52,
      "hit": false,
      "t": 16153.829999999985,
      "d": 174.8249999999989,
      "v": 45
    },
    {
      "midi": 55,
      "hit": false,
      "t": 16153.829999999985,
      "d": 218.53124999999818,
      "v": 41
    },
    {
      "midi": 62,
      "hit": false,
      "t": 16153.829999999987,
      "d": 4.370624999999563,
      "v": 95
    },
    {
      "midi": 52,
      "hit": false,
      "t": 16158.200624999972,
      "d": 585.6637499999997,
      "v": 67
    },
    {
      "midi": 61,
      "hit": false,
      "t": 16162.571249999972,
      "d": 585.6637499999997,
      "v": 67
    },
    {
      "midi": 64,
      "hit": false,
      "t": 16162.571249999972,
      "d": 585.6637499999997,
      "v": 55
    },
    {
      "midi": 55,
      "hit": false,
      "t": 16166.941874999971,
      "d": 585.6637499999997,
      "v": 67
    },
    {
      "midi": 64,
      "hit": false,
      "t": 16363.619999999986,
      "d": 4.370624999999563,
      "v": 47
    },
    {
      "midi": 71,
      "hit": false,
      "t": 16363.619999999992,
      "d": 375.87374999999884,
      "v": 104
    },
    {
      "midi": 55,
      "hit": false,
      "t": 16573.409999999985,
      "d": 113.63624999999956,
      "v": 44
    },
    {
      "midi": 52,
      "hit": false,
      "t": 16573.409999999985,
      "d": 288.46124999999665,
      "v": 41
    },
    {
      "midi": 31,
      "hit": false,
      "t": 16573.409999999996,
      "d": 100.52437500000087,
      "v": 99
    },
    {
      "midi": 55,
      "hit": false,
      "t": 16573.41,
      "d": 187.93687499999942,
      "v": 104
    },
    {
      "midi": 57,
      "hit": false,
      "t": 16573.41,
      "d": 187.93687499999942,
      "v": 104
    },
    {
      "midi": 61,
      "hit": false,
      "t": 16573.41,
      "d": 187.93687499999942,
      "v": 104
    },
    {
      "midi": 64,
      "hit": false,
      "t": 16577.780624999985,
      "d": 4.370624999999563,
      "v": 96
    },
    {
      "midi": 64,
      "hit": false,
      "t": 16582.151249999984,
      "d": 113.63624999999956,
      "v": 36
    },
    {
      "midi": 38,
      "hit": false,
      "t": 16783.19999999997,
      "d": 196.67812499999854,
      "v": 58
    },
    {
      "midi": 73,
      "hit": false,
      "t": 16783.19999999999,
      "d": 375.87374999999884,
      "v": 104
    },
    {
      "midi": 38,
      "hit": false,
      "t": 16783.199999999997,
      "d": 423.9506250000013,
      "v": 99
    },
    {
      "midi": 50,
      "hit": false,
      "t": 16783.2,
      "d": 375.87374999999884,
      "v": 104
    },
    {
      "midi": 54,
      "hit": false,
      "t": 16783.2,
      "d": 375.87374999999884,
      "v": 104
    },
    {
      "midi": 57,
      "hit": false,
      "t": 16783.2,
      "d": 375.87374999999884,
      "v": 104
    },
    {
      "midi": 50,
      "hit": false,
      "t": 16787.570624999982,
      "d": 568.1812499999978,
      "v": 62
    },
    {
      "midi": 66,
      "hit": false,
      "t": 16791.94124999998,
      "d": 122.37749999999869,
      "v": 46
    },
    {
      "midi": 61,
      "hit": false,
      "t": 16791.94124999998,
      "d": 201.0487499999981,
      "v": 57
    },
    {
      "midi": 64,
      "hit": false,
      "t": 16997.360624999987,
      "d": 4.370624999999563,
      "v": 55
    },
    {
      "midi": 38,
      "hit": false,
      "t": 17001.73124999997,
      "d": 1459.7887499999997,
      "v": 64
    },
    {
      "midi": 61,
      "hit": false,
      "t": 17001.73124999998,
      "d": 104.89500000000044,
      "v": 24
    },
    {
      "midi": 49,
      "hit": false,
      "t": 17202.779999999973,
      "d": 91.78312499999811,
      "v": 67
    },
    {
      "midi": 57,
      "hit": false,
      "t": 17202.779999999973,
      "d": 91.78312499999811,
      "v": 67
    },
    {
      "midi": 61,
      "hit": false,
      "t": 17202.77999999998,
      "d": 244.75500000000102,
      "v": 56
    },
    {
      "midi": 66,
      "hit": false,
      "t": 17202.77999999998,
      "d": 288.4612500000003,
      "v": 56
    },
    {
      "midi": 74,
      "hit": false,
      "t": 17202.779999999988,
      "d": 187.93687499999942,
      "v": 104
    },
    {
      "midi": 54,
      "hit": false,
      "t": 17207.150624999973,
      "d": 104.8949999999968,
      "v": 66
    },
    {
      "midi": 63,
      "hit": false,
      "t": 17207.150624999987,
      "d": 4.370624999999563,
      "v": 86
    },
    {
      "midi": 69,
      "hit": false,
      "t": 17211.521249999972,
      "d": 74.30062499999985,
      "v": 67
    },
    {
      "midi": 73,
      "hit": false,
      "t": 17412.56999999999,
      "d": 375.87374999999884,
      "v": 104
    },
    {
      "midi": 50,
      "hit": false,
      "t": 17412.57,
      "d": 187.93687499999942,
      "v": 104
    },
    {
      "midi": 54,
      "hit": false,
      "t": 17412.57,
      "d": 187.93687499999942,
      "v": 104
    },
    {
      "midi": 57,
      "hit": false,
      "t": 17412.57,
      "d": 187.93687499999942,
      "v": 104
    },
    {
      "midi": 38,
      "hit": false,
      "t": 17412.57,
      "d": 91.78312500000175,
      "v": 99
    },
    {
      "midi": 57,
      "hit": false,
      "t": 17416.94062499998,
      "d": 375.8737500000025,
      "v": 38
    },
    {
      "midi": 50,
      "hit": false,
      "t": 17622.359999999982,
      "d": 236.0137500000019,
      "v": 51
    },
    {
      "midi": 50,
      "hit": false,
      "t": 17622.36,
      "d": 375.87374999999884,
      "v": 104
    },
    {
      "midi": 54,
      "hit": false,
      "t": 17622.36,
      "d": 375.87374999999884,
      "v": 104
    },
    {
      "midi": 57,
      "hit": false,
      "t": 17622.36,
      "d": 375.87374999999884,
      "v": 104
    },
    {
      "midi": 38,
      "hit": false,
      "t": 17622.36,
      "d": 415.20937499999854,
      "v": 99
    },
    {
      "midi": 54,
      "hit": false,
      "t": 17832.14999999997,
      "d": 388.98562500000116,
      "v": 67
    },
    {
      "midi": 57,
      "hit": false,
      "t": 17832.14999999997,
      "d": 388.98562500000116,
      "v": 67
    },
    {
      "midi": 66,
      "hit": false,
      "t": 17832.149999999983,
      "d": 821.6774999999943,
      "v": 43
    },
    {
      "midi": 74,
      "hit": false,
      "t": 17832.149999999987,
      "d": 375.87374999999884,
      "v": 104
    },
    {
      "midi": 49,
      "hit": false,
      "t": 17836.52062499997,
      "d": 388.98562500000116,
      "v": 67
    },
    {
      "midi": 69,
      "hit": false,
      "t": 17836.52062499997,
      "d": 388.98562500000116,
      "v": 67
    },
    {
      "midi": 57,
      "hit": false,
      "t": 17836.520624999983,
      "d": 288.4612500000003,
      "v": 43
    },
    {
      "midi": 62,
      "hit": false,
      "t": 17836.520624999986,
      "d": 4.370624999999563,
      "v": 92
    },
    {
      "midi": 64,
      "hit": false,
      "t": 18041.939999999988,
      "d": 4.370624999999563,
      "v": 86
    },
    {
      "midi": 49,
      "hit": false,
      "t": 18251.72999999997,
      "d": 170.45437500000116,
      "v": 63
    },
    {
      "midi": 61,
      "hit": false,
      "t": 18251.72999999998,
      "d": 135.48937499999738,
      "v": 33
    },
    {
      "midi": 76,
      "hit": false,
      "t": 18251.729999999985,
      "d": 939.6843750000007,
      "v": 104
    },
    {
      "midi": 50,
      "hit": false,
      "t": 18251.73,
      "d": 187.93687499999942,
      "v": 104
    },
    {
      "midi": 54,
      "hit": false,
      "t": 18251.73,
      "d": 187.93687499999942,
      "v": 104
    },
    {
      "midi": 57,
      "hit": false,
      "t": 18251.73,
      "d": 187.93687499999942,
      "v": 104
    },
    {
      "midi": 38,
      "hit": false,
      "t": 18251.73,
      "d": 91.78312500000175,
      "v": 99
    },
    {
      "midi": 57,
      "hit": false,
      "t": 18256.10062499998,
      "d": 113.63624999999956,
      "v": 31
    },
    {
      "midi": 64,
      "hit": false,
      "t": 18256.10062499999,
      "d": 4.370624999999563,
      "v": 92
    },
    {
      "midi": 52,
      "hit": false,
      "t": 18461.51999999997,
      "d": 170.45437500000116,
      "v": 55
    },
    {
      "midi": 56,
      "hit": false,
      "t": 18461.51999999997,
      "d": 170.45437500000116,
      "v": 63
    },
    {
      "midi": 61,
      "hit": false,
      "t": 18461.51999999997,
      "d": 170.45437500000116,
      "v": 59
    },
    {
      "midi": 37,
      "hit": false,
      "t": 18461.51999999997,
      "d": 839.1599999999999,
      "v": 64
    },
    {
      "midi": 49,
      "hit": false,
      "t": 18461.51999999998,
      "d": 83.04187499999898,
      "v": 61
    },
    {
      "midi": 56,
      "hit": false,
      "t": 18461.51999999998,
      "d": 83.04187499999898,
      "v": 61
    },
    {
      "midi": 64,
      "hit": false,
      "t": 18461.51999999998,
      "d": 96.15374999999767,
      "v": 61
    },
    {
      "midi": 49,
      "hit": false,
      "t": 18461.52,
      "d": 375.87374999999884,
      "v": 104
    },
    {
      "midi": 56,
      "hit": false,
      "t": 18461.52,
      "d": 375.87374999999884,
      "v": 104
    },
    {
      "midi": 37,
      "hit": false,
      "t": 18461.52,
      "d": 419.58000000000175,
      "v": 99
    },
    {
      "midi": 68,
      "hit": false,
      "t": 18465.89062499997,
      "d": 170.45437500000116,
      "v": 59
    },
    {
      "midi": 56,
      "hit": false,
      "t": 18881.099999999977,
      "d": 201.0487499999981,
      "v": 57
    },
    {
      "midi": 56,
      "hit": false,
      "t": 18885.470624999973,
      "d": 380.2443749999984,
      "v": 59
    },
    {
      "midi": 61,
      "hit": false,
      "t": 18885.470624999973,
      "d": 380.2443749999984,
      "v": 63
    },
    {
      "midi": 68,
      "hit": false,
      "t": 18885.470624999973,
      "d": 380.2443749999984,
      "v": 59
    },
    {
      "midi": 63,
      "hit": false,
      "t": 18885.470624999987,
      "d": 4.370624999999563,
      "v": 86
    },
    {
      "midi": 64,
      "hit": false,
      "t": 18889.841249999976,
      "d": 78.67124999999942,
      "v": 64
    },
    {
      "midi": 52,
      "hit": false,
      "t": 18894.21187499997,
      "d": 380.2443749999984,
      "v": 61
    },
    {
      "midi": 49,
      "hit": false,
      "t": 19086.519374999974,
      "d": 139.86000000000058,
      "v": 23
    },
    {
      "midi": 49,
      "hit": false,
      "t": 19090.89,
      "d": 187.93687499999942,
      "v": 104
    },
    {
      "midi": 56,
      "hit": false,
      "t": 19090.89,
      "d": 187.93687499999942,
      "v": 104
    },
    {
      "midi": 37,
      "hit": false,
      "t": 19090.890000000003,
      "d": 100.52437500000087,
      "v": 95
    },
    {
      "midi": 63,
      "hit": false,
      "t": 19095.260624999988,
      "d": 4.370624999999563,
      "v": 42
    },
    {
      "midi": 41,
      "hit": false,
      "t": 19300.67999999997,
      "d": 629.369999999999,
      "v": 64
    },
    {
      "midi": 56,
      "hit": false,
      "t": 19300.679999999975,
      "d": 209.79000000000087,
      "v": 54
    },
    {
      "midi": 74,
      "hit": false,
      "t": 19300.679999999986,
      "d": 563.8106249999983,
      "v": 104
    },
    {
      "midi": 53,
      "hit": false,
      "t": 19300.68,
      "d": 375.87374999999884,
      "v": 104
    },
    {
      "midi": 56,
      "hit": false,
      "t": 19300.68,
      "d": 375.87374999999884,
      "v": 104
    },
    {
      "midi": 29,
      "hit": false,
      "t": 19300.680000000004,
      "d": 472.02750000000015,
      "v": 92
    },
    {
      "midi": 59,
      "hit": false,
      "t": 19313.79187499997,
      "d": 170.45437500000116,
      "v": 57
    },
    {
      "midi": 65,
      "hit": false,
      "t": 19510.469999999976,
      "d": 4.370624999999563,
      "v": 45
    },
    {
      "midi": 49,
      "hit": false,
      "t": 19510.469999999976,
      "d": 174.82500000000073,
      "v": 45
    },
    {
      "midi": 56,
      "hit": false,
      "t": 19510.469999999976,
      "d": 218.53125,
      "v": 41
    },
    {
      "midi": 62,
      "hit": false,
      "t": 19510.469999999987,
      "d": 4.370624999999563,
      "v": 95
    },
    {
      "midi": 53,
      "hit": false,
      "t": 19514.84062499997,
      "d": 415.20937499999854,
      "v": 67
    },
    {
      "midi": 59,
      "hit": false,
      "t": 19519.21124999997,
      "d": 410.838749999999,
      "v": 67
    },
    {
      "midi": 68,
      "hit": false,
      "t": 19519.21124999997,
      "d": 410.838749999999,
      "v": 55
    },
    {
      "midi": 56,
      "hit": false,
      "t": 19523.58187499997,
      "d": 406.4681249999994,
      "v": 67
    },
    {
      "midi": 64,
      "hit": false,
      "t": 19720.259999999987,
      "d": 4.370624999999563,
      "v": 47
    },
    {
      "midi": 42,
      "hit": false,
      "t": 19930.04999999997,
      "d": 65.55937500000073,
      "v": 64
    },
    {
      "midi": 73,
      "hit": false,
      "t": 19930.049999999985,
      "d": 563.8106249999983,
      "v": 104
    },
    {
      "midi": 53,
      "hit": false,
      "t": 19930.05,
      "d": 187.93687499999942,
      "v": 104
    },
    {
      "midi": 56,
      "hit": false,
      "t": 19930.05,
      "d": 187.93687499999942,
      "v": 104
    },
    {
      "midi": 30,
      "hit": false,
      "t": 19930.050000000003,
      "d": 100.52437500000087,
      "v": 99
    },
    {
      "midi": 57,
      "hit": false,
      "t": 19934.420624999977,
      "d": 288.4612500000003,
      "v": 43
    },
    {
      "midi": 64,
      "hit": false,
      "t": 19934.420624999988,
      "d": 4.370624999999563,
      "v": 96
    },
    {
      "midi": 42,
      "hit": false,
      "t": 20139.83999999997,
      "d": 170.45437500000116,
      "v": 58
    },
    {
      "midi": 54,
      "hit": false,
      "t": 20139.84,
      "d": 375.87374999999884,
      "v": 104
    },
    {
      "midi": 57,
      "hit": false,
      "t": 20139.84,
      "d": 375.87374999999884,
      "v": 104
    },
    {
      "midi": 30,
      "hit": false,
      "t": 20139.840000000004,
      "d": 423.9506250000013,
      "v": 99
    },
    {
      "midi": 49,
      "hit": false,
      "t": 20144.210624999978,
      "d": 568.1812499999978,
      "v": 62
    },
    {
      "midi": 61,
      "hit": false,
      "t": 20148.581249999977,
      "d": 48.076874999998836,
      "v": 57
    },
    {
      "midi": 66,
      "hit": false,
      "t": 20148.581249999977,
      "d": 122.37749999999869,
      "v": 46
    },
    {
      "midi": 57,
      "hit": false,
      "t": 20354.000624999975,
      "d": 375.87374999999884,
      "v": 38
    },
    {
      "midi": 64,
      "hit": false,
      "t": 20354.00062499999,
      "d": 4.370624999999563,
      "v": 55
    },
    {
      "midi": 42,
      "hit": false,
      "t": 20358.37124999997,
      "d": 1249.9987500000025,
      "v": 64
    },
    {
      "midi": 49,
      "hit": false,
      "t": 20559.419999999973,
      "d": 91.78312499999811,
      "v": 59
    },
    {
      "midi": 57,
      "hit": false,
      "t": 20559.419999999973,
      "d": 91.78312499999811,
      "v": 52
    },
    {
      "midi": 61,
      "hit": false,
      "t": 20559.419999999976,
      "d": 244.75499999999738,
      "v": 64
    },
    {
      "midi": 66,
      "hit": false,
      "t": 20559.419999999976,
      "d": 288.46124999999665,
      "v": 72
    },
    {
      "midi": 85,
      "hit": false,
      "t": 20559.419999999984,
      "d": 187.93687499999942,
      "v": 104
    },
    {
      "midi": 54,
      "hit": false,
      "t": 20563.790624999972,
      "d": 104.8949999999968,
      "v": 48
    },
    {
      "midi": 63,
      "hit": false,
      "t": 20563.79062499999,
      "d": 4.370624999999563,
      "v": 86
    },
    {
      "midi": 66,
      "hit": false,
      "t": 20568.161249999972,
      "d": 74.30062499999985,
      "v": 62
    },
    {
      "midi": 62,
      "hit": false,
      "t": 20664.31499999999,
      "d": 4.370624999999563,
      "v": 72
    },
    {
      "midi": 45,
      "hit": false,
      "t": 20769.20999999997,
      "d": 170.45437500000116,
      "v": 68
    },
    {
      "midi": 49,
      "hit": false,
      "t": 20769.209999999974,
      "d": 279.72000000000116,
      "v": 44
    },
    {
      "midi": 83,
      "hit": false,
      "t": 20769.209999999985,
      "d": 187.93687499999942,
      "v": 104
    },
    {
      "midi": 54,
      "hit": false,
      "t": 20769.21,
      "d": 187.93687499999942,
      "v": 104
    },
    {
      "midi": 57,
      "hit": false,
      "t": 20769.21,
      "d": 187.93687499999942,
      "v": 104
    },
    {
      "midi": 30,
      "hit": false,
      "t": 20769.210000000006,
      "d": 91.78312500000175,
      "v": 99
    },
    {
      "midi": 63,
      "hit": false,
      "t": 20773.58062499999,
      "d": 4.370624999999563,
      "v": 86
    },
    {
      "midi": 49,
      "hit": false,
      "t": 20978.99999999997,
      "d": 170.45437500000116,
      "v": 63
    },
    {
      "midi": 85,
      "hit": false,
      "t": 20978.999999999985,
      "d": 375.87374999999884,
      "v": 104
    },
    {
      "midi": 54,
      "hit": false,
      "t": 20979,
      "d": 375.87374999999884,
      "v": 104
    },
    {
      "midi": 57,
      "hit": false,
      "t": 20979,
      "d": 375.87374999999884,
      "v": 104
    },
    {
      "midi": 30,
      "hit": false,
      "t": 20979.000000000007,
      "d": 415.20937499999854,
      "v": 99
    },
    {
      "midi": 57,
      "hit": false,
      "t": 20983.370624999974,
      "d": 240.38437500000146,
      "v": 60
    },
    {
      "midi": 54,
      "hit": false,
      "t": 21188.78999999997,
      "d": 388.98562500000116,
      "v": 48
    },
    {
      "midi": 57,
      "hit": false,
      "t": 21188.78999999997,
      "d": 388.98562500000116,
      "v": 59
    },
    {
      "midi": 66,
      "hit": false,
      "t": 21188.789999999975,
      "d": 603.1462500000016,
      "v": 56
    },
    {
      "midi": 49,
      "hit": false,
      "t": 21193.16062499997,
      "d": 388.98562500000116,
      "v": 67
    },
    {
      "midi": 66,
      "hit": false,
      "t": 21193.16062499997,
      "d": 388.98562500000116,
      "v": 67
    },
    {
      "midi": 64,
      "hit": false,
      "t": 21193.16062499999,
      "d": 4.370624999999563,
      "v": 92
    },
    {
      "midi": 86,
      "hit": false,
      "t": 21398.579999999984,
      "d": 187.93687499999942,
      "v": 104
    },
    {
      "midi": 63,
      "hit": false,
      "t": 21398.57999999999,
      "d": 4.370624999999563,
      "v": 86
    },
    {
      "midi": 43,
      "hit": false,
      "t": 21608.369999999974,
      "d": 65.55937500000073,
      "v": 64
    },
    {
      "midi": 61,
      "hit": false,
      "t": 21608.369999999977,
      "d": 183.56624999999985,
      "v": 56
    },
    {
      "midi": 55,
      "hit": false,
      "t": 21608.369999999977,
      "d": 187.93687499999942,
      "v": 37
    },
    {
      "midi": 52,
      "hit": false,
      "t": 21608.369999999977,
      "d": 201.0487499999981,
      "v": 35
    },
    {
      "midi": 64,
      "hit": false,
      "t": 21608.369999999977,
      "d": 218.53124999999636,
      "v": 56
    },
    {
      "midi": 88,
      "hit": false,
      "t": 21608.369999999984,
      "d": 375.87374999999884,
      "v": 104
    },
    {
      "midi": 54,
      "hit": false,
      "t": 21608.37,
      "d": 187.93687499999942,
      "v": 104
    },
    {
      "midi": 57,
      "hit": false,
      "t": 21608.37,
      "d": 187.93687499999942,
      "v": 104
    },
    {
      "midi": 31,
      "hit": false,
      "t": 21608.370000000006,
      "d": 91.78312500000175,
      "v": 99
    },
    {
      "midi": 63,
      "hit": false,
      "t": 21612.74062499999,
      "d": 4.370624999999563,
      "v": 92
    },
    {
      "midi": 43,
      "hit": false,
      "t": 21818.159999999974,
      "d": 196.67812499999854,
      "v": 58
    },
    {
      "midi": 52,
      "hit": false,
      "t": 21818.159999999974,
      "d": 83.04187499999898,
      "v": 61
    },
    {
      "midi": 55,
      "hit": false,
      "t": 21818.16,
      "d": 375.87374999999884,
      "v": 104
    },
    {
      "midi": 57,
      "hit": false,
      "t": 21818.16,
      "d": 375.87374999999884,
      "v": 104
    },
    {
      "midi": 61,
      "hit": false,
      "t": 21818.16,
      "d": 375.87374999999884,
      "v": 104
    },
    {
      "midi": 31,
      "hit": false,
      "t": 21818.160000000007,
      "d": 187.93687499999942,
      "v": 99
    },
    {
      "midi": 62,
      "hit": false,
      "t": 21826.90124999999,
      "d": 4.370624999999563,
      "v": 62
    },
    {
      "midi": 52,
      "hit": false,
      "t": 22027.94999999997,
      "d": 253.49625000000015,
      "v": 48
    },
    {
      "midi": 86,
      "hit": false,
      "t": 22027.949999999983,
      "d": 375.87374999999884,
      "v": 104
    },
    {
      "midi": 82,
      "hit": false,
      "t": 22032.320624999993,
      "d": 30.594375000000582,
      "v": 81
    },
    {
      "midi": 55,
      "hit": false,
      "t": 22237.739999999972,
      "d": 1083.9150000000009,
      "v": 57
    },
    {
      "midi": 61,
      "hit": false,
      "t": 22237.739999999994,
      "d": 4.370624999999563,
      "v": 85
    },
    {
      "midi": 31,
      "hit": false,
      "t": 22237.740000000005,
      "d": 808.5656249999993,
      "v": 98
    },
    {
      "midi": 63,
      "hit": false,
      "t": 22242.110624999994,
      "d": 4.370624999999563,
      "v": 86
    },
    {
      "midi": 82,
      "hit": false,
      "t": 22242.110624999994,
      "d": 30.594375000000582,
      "v": 82
    },
    {
      "midi": 55,
      "hit": false,
      "t": 22246.48124999997,
      "d": 607.5168750000012,
      "v": 57
    },
    {
      "midi": 61,
      "hit": false,
      "t": 22246.48124999997,
      "d": 607.5168750000012,
      "v": 57
    },
    {
      "midi": 61,
      "hit": false,
      "t": 22246.48124999997,
      "d": 1354.893750000003,
      "v": 78
    },
    {
      "midi": 64,
      "hit": false,
      "t": 22250.85187499997,
      "d": 607.5168750000012,
      "v": 57
    },
    {
      "midi": 64,
      "hit": false,
      "t": 22255.22249999997,
      "d": 1346.1525000000038,
      "v": 64
    },
    {
      "midi": 85,
      "hit": false,
      "t": 22447.52999999998,
      "d": 187.93687499999942,
      "v": 104
    },
    {
      "midi": 55,
      "hit": false,
      "t": 22447.53,
      "d": 187.93687499999942,
      "v": 104
    },
    {
      "midi": 57,
      "hit": false,
      "t": 22447.53,
      "d": 187.93687499999942,
      "v": 104
    },
    {
      "midi": 61,
      "hit": false,
      "t": 22447.53,
      "d": 187.93687499999942,
      "v": 104
    },
    {
      "midi": 83,
      "hit": false,
      "t": 22657.31999999998,
      "d": 375.87374999999884,
      "v": 104
    },
    {
      "midi": 55,
      "hit": false,
      "t": 22657.32,
      "d": 375.87374999999884,
      "v": 104
    },
    {
      "midi": 57,
      "hit": false,
      "t": 22657.32,
      "d": 375.87374999999884,
      "v": 104
    },
    {
      "midi": 61,
      "hit": false,
      "t": 22657.32,
      "d": 375.87374999999884,
      "v": 104
    },
    {
      "midi": 62,
      "hit": false,
      "t": 22871.480624999993,
      "d": 4.370624999999563,
      "v": 99
    },
    {
      "midi": 69,
      "hit": false,
      "t": 23076.89999999998,
      "d": 375.87374999999884,
      "v": 104
    },
    {
      "midi": 61,
      "hit": false,
      "t": 23076.899999999994,
      "d": 4.370624999999563,
      "v": 85
    },
    {
      "midi": 31,
      "hit": false,
      "t": 23076.900000000005,
      "d": 388.98562500000116,
      "v": 99
    },
    {
      "midi": 64,
      "hit": false,
      "t": 23081.270624999972,
      "d": 69.92999999999665,
      "v": 66
    },
    {
      "midi": 52,
      "hit": false,
      "t": 23085.64124999997,
      "d": 52.4474999999984,
      "v": 66
    },
    {
      "midi": 61,
      "hit": false,
      "t": 23085.64124999997,
      "d": 61.188749999997526,
      "v": 66
    },
    {
      "midi": 64,
      "hit": false,
      "t": 23085.641249999993,
      "d": 4.370624999999563,
      "v": 86
    },
    {
      "midi": 64,
      "hit": false,
      "t": 23286.68999999999,
      "d": 4.370624999999563,
      "v": 65
    },
    {
      "midi": 55,
      "hit": false,
      "t": 23286.69,
      "d": 187.93687499999942,
      "v": 104
    },
    {
      "midi": 57,
      "hit": false,
      "t": 23286.69,
      "d": 187.93687499999942,
      "v": 104
    },
    {
      "midi": 61,
      "hit": false,
      "t": 23286.69,
      "d": 187.93687499999942,
      "v": 104
    },
    {
      "midi": 38,
      "hit": false,
      "t": 23496.479999999967,
      "d": 196.67812499999854,
      "v": 58
    },
    {
      "midi": 78,
      "hit": false,
      "t": 23496.479999999978,
      "d": 1127.6212500000001,
      "v": 104
    },
    {
      "midi": 50,
      "hit": false,
      "t": 23496.48,
      "d": 375.87374999999884,
      "v": 104
    },
    {
      "midi": 54,
      "hit": false,
      "t": 23496.48,
      "d": 375.87374999999884,
      "v": 104
    },
    {
      "midi": 57,
      "hit": false,
      "t": 23496.48,
      "d": 375.87374999999884,
      "v": 104
    },
    {
      "midi": 38,
      "hit": false,
      "t": 23496.480000000007,
      "d": 423.9506250000013,
      "v": 99
    },
    {
      "midi": 57,
      "hit": false,
      "t": 23500.850624999966,
      "d": 196.67812499999854,
      "v": 61
    },
    {
      "midi": 50,
      "hit": false,
      "t": 23500.850624999974,
      "d": 568.1812500000015,
      "v": 62
    },
    {
      "midi": 66,
      "hit": false,
      "t": 23505.221249999973,
      "d": 122.37750000000233,
      "v": 46
    },
    {
      "midi": 62,
      "hit": false,
      "t": 23505.221249999973,
      "d": 201.04875000000175,
      "v": 57
    },
    {
      "midi": 64,
      "hit": false,
      "t": 23710.640624999993,
      "d": 4.370624999999563,
      "v": 55
    },
    {
      "midi": 38,
      "hit": false,
      "t": 23715.011249999963,
      "d": 1459.788749999996,
      "v": 64
    },
    {
      "midi": 62,
      "hit": false,
      "t": 23715.011249999974,
      "d": 104.89500000000044,
      "v": 24
    },
    {
      "midi": 57,
      "hit": false,
      "t": 23911.68937499996,
      "d": 375.87374999999884,
      "v": 67
    },
    {
      "midi": 66,
      "hit": false,
      "t": 23916.05999999996,
      "d": 375.87374999999884,
      "v": 67
    },
    {
      "midi": 62,
      "hit": false,
      "t": 23916.059999999976,
      "d": 244.75500000000102,
      "v": 56
    },
    {
      "midi": 66,
      "hit": false,
      "t": 23916.059999999976,
      "d": 288.4612500000003,
      "v": 56
    },
    {
      "midi": 62,
      "hit": false,
      "t": 23920.43062499996,
      "d": 375.87374999999884,
      "v": 67
    },
    {
      "midi": 63,
      "hit": false,
      "t": 23920.430624999994,
      "d": 4.370624999999563,
      "v": 86
    },
    {
      "midi": 50,
      "hit": false,
      "t": 24125.849999999962,
      "d": 166.08374999999796,
      "v": 55
    },
    {
      "midi": 50,
      "hit": false,
      "t": 24125.85,
      "d": 187.93687499999942,
      "v": 104
    },
    {
      "midi": 54,
      "hit": false,
      "t": 24125.85,
      "d": 187.93687499999942,
      "v": 104
    },
    {
      "midi": 57,
      "hit": false,
      "t": 24125.85,
      "d": 187.93687499999942,
      "v": 104
    },
    {
      "midi": 38,
      "hit": false,
      "t": 24125.85000000001,
      "d": 91.78312500000175,
      "v": 99
    },
    {
      "midi": 57,
      "hit": false,
      "t": 24130.220624999976,
      "d": 375.8737500000025,
      "v": 38
    },
    {
      "midi": 50,
      "hit": false,
      "t": 24335.639999999978,
      "d": 236.0137500000019,
      "v": 51
    },
    {
      "midi": 50,
      "hit": false,
      "t": 24335.64,
      "d": 375.87374999999884,
      "v": 104
    },
    {
      "midi": 54,
      "hit": false,
      "t": 24335.64,
      "d": 375.87374999999884,
      "v": 104
    },
    {
      "midi": 57,
      "hit": false,
      "t": 24335.64,
      "d": 375.87374999999884,
      "v": 104
    },
    {
      "midi": 38,
      "hit": false,
      "t": 24335.64000000001,
      "d": 415.20937499999854,
      "v": 99
    },
    {
      "midi": 57,
      "hit": false,
      "t": 24541.05937499996,
      "d": 166.08374999999796,
      "v": 67
    },
    {
      "midi": 50,
      "hit": false,
      "t": 24545.42999999996,
      "d": 166.08374999999796,
      "v": 55
    },
    {
      "midi": 66,
      "hit": false,
      "t": 24545.42999999996,
      "d": 166.08374999999796,
      "v": 67
    },
    {
      "midi": 66,
      "hit": false,
      "t": 24545.42999999998,
      "d": 821.6774999999943,
      "v": 43
    },
    {
      "midi": 62,
      "hit": false,
      "t": 24549.80062499996,
      "d": 166.08374999999796,
      "v": 67
    },
    {
      "midi": 57,
      "hit": false,
      "t": 24549.800624999978,
      "d": 288.4612500000003,
      "v": 43
    },
    {
      "midi": 62,
      "hit": false,
      "t": 24549.800624999993,
      "d": 4.370624999999563,
      "v": 92
    },
    {
      "midi": 62,
      "hit": false,
      "t": 24755.219999999958,
      "d": 170.45437500000116,
      "v": 64
    },
    {
      "midi": 69,
      "hit": false,
      "t": 24755.21999999998,
      "d": 375.87374999999884,
      "v": 104
    },
    {
      "midi": 64,
      "hit": false,
      "t": 24755.219999999994,
      "d": 4.370624999999563,
      "v": 86
    },
    {
      "midi": 62,
      "hit": false,
      "t": 24965.009999999977,
      "d": 135.48937499999738,
      "v": 33
    },
    {
      "midi": 50,
      "hit": false,
      "t": 24965.01,
      "d": 187.93687499999942,
      "v": 104
    },
    {
      "midi": 54,
      "hit": false,
      "t": 24965.01,
      "d": 187.93687499999942,
      "v": 104
    },
    {
      "midi": 57,
      "hit": false,
      "t": 24965.01,
      "d": 187.93687499999942,
      "v": 104
    },
    {
      "midi": 38,
      "hit": false,
      "t": 24965.01000000001,
      "d": 91.78312500000175,
      "v": 99
    },
    {
      "midi": 57,
      "hit": false,
      "t": 24969.380624999958,
      "d": 170.45437500000116,
      "v": 55
    },
    {
      "midi": 57,
      "hit": false,
      "t": 24969.380624999976,
      "d": 113.63624999999956,
      "v": 31
    },
    {
      "midi": 64,
      "hit": false,
      "t": 24969.380624999994,
      "d": 4.370624999999563,
      "v": 92
    },
    {
      "midi": 57,
      "hit": false,
      "t": 25170.42937499996,
      "d": 4.370624999999563,
      "v": 51
    },
    {
      "midi": 66,
      "hit": false,
      "t": 25170.42937499996,
      "d": 4.370624999999563,
      "v": 57
    },
    {
      "midi": 59,
      "hit": false,
      "t": 25174.79999999996,
      "d": 104.89500000000044,
      "v": 57
    },
    {
      "midi": 40,
      "hit": false,
      "t": 25174.79999999996,
      "d": 1534.0893749999996,
      "v": 64
    },
    {
      "midi": 68,
      "hit": false,
      "t": 25174.799999999977,
      "d": 751.7475000000013,
      "v": 104
    },
    {
      "midi": 50,
      "hit": false,
      "t": 25174.8,
      "d": 375.87374999999884,
      "v": 104
    },
    {
      "midi": 52,
      "hit": false,
      "t": 25174.8,
      "d": 375.87374999999884,
      "v": 104
    },
    {
      "midi": 56,
      "hit": false,
      "t": 25174.8,
      "d": 375.87374999999884,
      "v": 104
    },
    {
      "midi": 59,
      "hit": false,
      "t": 25174.8,
      "d": 375.87374999999884,
      "v": 104
    },
    {
      "midi": 28,
      "hit": false,
      "t": 25174.80000000001,
      "d": 419.58000000000175,
      "v": 99
    },
    {
      "midi": 47,
      "hit": false,
      "t": 25179.170624999973,
      "d": 135.48937500000102,
      "v": 71
    },
    {
      "midi": 47,
      "hit": false,
      "t": 25183.54124999996,
      "d": 74.30062499999985,
      "v": 59
    },
    {
      "midi": 59,
      "hit": false,
      "t": 25384.58999999997,
      "d": 550.6987499999996,
      "v": 26
    },
    {
      "midi": 64,
      "hit": false,
      "t": 25393.33124999997,
      "d": 131.11875000000146,
      "v": 38
    },
    {
      "midi": 56,
      "hit": false,
      "t": 25590.00937499996,
      "d": 616.2581249999967,
      "v": 67
    },
    {
      "midi": 64,
      "hit": false,
      "t": 25590.00937499996,
      "d": 616.2581249999967,
      "v": 67
    },
    {
      "midi": 59,
      "hit": false,
      "t": 25594.37999999996,
      "d": 616.2581249999967,
      "v": 66
    },
    {
      "midi": 56,
      "hit": false,
      "t": 25598.75062499997,
      "d": 43.70624999999927,
      "v": 65
    },
    {
      "midi": 63,
      "hit": false,
      "t": 25598.750624999993,
      "d": 4.370624999999563,
      "v": 86
    },
    {
      "midi": 47,
      "hit": false,
      "t": 25603.12124999996,
      "d": 598.7756249999984,
      "v": 67
    },
    {
      "midi": 50,
      "hit": false,
      "t": 25804.17,
      "d": 187.93687499999942,
      "v": 104
    },
    {
      "midi": 52,
      "hit": false,
      "t": 25804.17,
      "d": 187.93687499999942,
      "v": 104
    },
    {
      "midi": 56,
      "hit": false,
      "t": 25804.17,
      "d": 187.93687499999942,
      "v": 104
    },
    {
      "midi": 59,
      "hit": false,
      "t": 25804.17,
      "d": 187.93687499999942,
      "v": 104
    },
    {
      "midi": 28,
      "hit": false,
      "t": 25804.170000000013,
      "d": 100.52437500000087,
      "v": 95
    },
    {
      "midi": 56,
      "hit": false,
      "t": 25808.540624999972,
      "d": 13.11187499999869,
      "v": 45
    },
    {
      "midi": 63,
      "hit": false,
      "t": 25808.540624999994,
      "d": 4.370624999999563,
      "v": 42
    },
    {
      "midi": 68,
      "hit": false,
      "t": 25812.911249999972,
      "d": 222.90187499999593,
      "v": 40
    },
    {
      "midi": 47,
      "hit": false,
      "t": 26013.95999999997,
      "d": 240.38437499999418,
      "v": 58
    },
    {
      "midi": 50,
      "hit": false,
      "t": 26013.96,
      "d": 375.87374999999884,
      "v": 104
    },
    {
      "midi": 52,
      "hit": false,
      "t": 26013.96,
      "d": 375.87374999999884,
      "v": 104
    },
    {
      "midi": 56,
      "hit": false,
      "t": 26013.96,
      "d": 375.87374999999884,
      "v": 104
    },
    {
      "midi": 59,
      "hit": false,
      "t": 26013.96,
      "d": 375.87374999999884,
      "v": 104
    },
    {
      "midi": 28,
      "hit": false,
      "t": 26013.960000000014,
      "d": 472.02750000000015,
      "v": 92
    },
    {
      "midi": 59,
      "hit": false,
      "t": 26022.70124999997,
      "d": 174.8249999999971,
      "v": 48
    },
    {
      "midi": 59,
      "hit": false,
      "t": 26219.379374999957,
      "d": 388.98562500000116,
      "v": 67
    },
    {
      "midi": 64,
      "hit": false,
      "t": 26219.379374999957,
      "d": 388.98562500000116,
      "v": 67
    },
    {
      "midi": 47,
      "hit": false,
      "t": 26223.749999999956,
      "d": 388.98562500000116,
      "v": 67
    },
    {
      "midi": 56,
      "hit": false,
      "t": 26223.749999999956,
      "d": 388.98562500000116,
      "v": 67
    },
    {
      "midi": 64,
      "hit": false,
      "t": 26223.749999999967,
      "d": 17.482499999998254,
      "v": 42
    },
    {
      "midi": 62,
      "hit": false,
      "t": 26223.749999999993,
      "d": 4.370624999999563,
      "v": 95
    },
    {
      "midi": 80,
      "hit": false,
      "t": 26433.53999999998,
      "d": 375.87374999999884,
      "v": 104
    },
    {
      "midi": 64,
      "hit": false,
      "t": 26433.539999999994,
      "d": 4.370624999999563,
      "v": 47
    },
    {
      "midi": 56,
      "hit": false,
      "t": 26638.95937499996,
      "d": 170.45437500000116,
      "v": 55
    },
    {
      "midi": 50,
      "hit": false,
      "t": 26643.329999999998,
      "d": 187.93687499999942,
      "v": 104
    },
    {
      "midi": 52,
      "hit": false,
      "t": 26643.329999999998,
      "d": 187.93687499999942,
      "v": 104
    },
    {
      "midi": 56,
      "hit": false,
      "t": 26643.329999999998,
      "d": 187.93687499999942,
      "v": 104
    },
    {
      "midi": 59,
      "hit": false,
      "t": 26643.329999999998,
      "d": 187.93687499999942,
      "v": 104
    },
    {
      "midi": 28,
      "hit": false,
      "t": 26643.330000000013,
      "d": 100.52437500000087,
      "v": 99
    },
    {
      "midi": 59,
      "hit": false,
      "t": 26647.700624999965,
      "d": 56.8181250000016,
      "v": 37
    },
    {
      "midi": 56,
      "hit": false,
      "t": 26647.700624999965,
      "d": 56.8181250000016,
      "v": 43
    },
    {
      "midi": 64,
      "hit": false,
      "t": 26647.700624999994,
      "d": 4.370624999999563,
      "v": 96
    },
    {
      "midi": 47,
      "hit": false,
      "t": 26848.74937499996,
      "d": 4.370624999999563,
      "v": 59
    },
    {
      "midi": 59,
      "hit": false,
      "t": 26848.74937499996,
      "d": 4.370624999999563,
      "v": 50
    },
    {
      "midi": 64,
      "hit": false,
      "t": 26848.74937499996,
      "d": 4.370624999999563,
      "v": 63
    },
    {
      "midi": 37,
      "hit": false,
      "t": 26853.11999999996,
      "d": 196.67812499999854,
      "v": 58
    },
    {
      "midi": 76,
      "hit": false,
      "t": 26853.119999999977,
      "d": 1127.6212500000001,
      "v": 104
    },
    {
      "midi": 49,
      "hit": false,
      "t": 26853.12,
      "d": 375.87374999999884,
      "v": 104
    },
    {
      "midi": 56,
      "hit": false,
      "t": 26853.12,
      "d": 375.87374999999884,
      "v": 104
    },
    {
      "midi": 59,
      "hit": false,
      "t": 26853.12,
      "d": 375.87374999999884,
      "v": 104
    },
    {
      "midi": 37,
      "hit": false,
      "t": 26853.120000000014,
      "d": 423.9506250000013,
      "v": 99
    },
    {
      "midi": 49,
      "hit": false,
      "t": 26857.490624999966,
      "d": 196.67812499999854,
      "v": 59
    },
    {
      "midi": 64,
      "hit": false,
      "t": 27067.280624999996,
      "d": 4.370624999999563,
      "v": 55
    },
    {
      "midi": 37,
      "hit": false,
      "t": 27071.65124999996,
      "d": 1459.7887499999997,
      "v": 64
    },
    {
      "midi": 52,
      "hit": false,
      "t": 27272.69999999996,
      "d": 91.78312499999811,
      "v": 67
    },
    {
      "midi": 59,
      "hit": false,
      "t": 27272.69999999996,
      "d": 91.78312499999811,
      "v": 67
    },
    {
      "midi": 49,
      "hit": false,
      "t": 27272.699999999964,
      "d": 222.90187499999956,
      "v": 64
    },
    {
      "midi": 64,
      "hit": false,
      "t": 27272.699999999964,
      "d": 384.6150000000016,
      "v": 54
    },
    {
      "midi": 56,
      "hit": false,
      "t": 27277.07062499996,
      "d": 104.8949999999968,
      "v": 66
    },
    {
      "midi": 63,
      "hit": false,
      "t": 27277.070624999997,
      "d": 4.370624999999563,
      "v": 86
    },
    {
      "midi": 68,
      "hit": false,
      "t": 27281.44124999996,
      "d": 74.30062499999985,
      "v": 67
    },
    {
      "midi": 56,
      "hit": false,
      "t": 27482.489999999965,
      "d": 148.6012499999997,
      "v": 35
    },
    {
      "midi": 49,
      "hit": false,
      "t": 27482.489999999998,
      "d": 187.93687499999942,
      "v": 104
    },
    {
      "midi": 56,
      "hit": false,
      "t": 27482.489999999998,
      "d": 187.93687499999942,
      "v": 104
    },
    {
      "midi": 59,
      "hit": false,
      "t": 27482.489999999998,
      "d": 187.93687499999942,
      "v": 104
    },
    {
      "midi": 37,
      "hit": false,
      "t": 27482.490000000016,
      "d": 91.78312500000175,
      "v": 99
    },
    {
      "midi": 49,
      "hit": false,
      "t": 27692.28,
      "d": 375.87374999999884,
      "v": 104
    },
    {
      "midi": 56,
      "hit": false,
      "t": 27692.28,
      "d": 375.87374999999884,
      "v": 104
    },
    {
      "midi": 59,
      "hit": false,
      "t": 27692.28,
      "d": 375.87374999999884,
      "v": 104
    },
    {
      "midi": 37,
      "hit": false,
      "t": 27692.280000000017,
      "d": 415.20937499999854,
      "v": 99
    },
    {
      "midi": 56,
      "hit": false,
      "t": 27902.069999999956,
      "d": 388.98562500000116,
      "v": 67
    },
    {
      "midi": 59,
      "hit": false,
      "t": 27902.069999999956,
      "d": 388.98562500000116,
      "v": 67
    },
    {
      "midi": 64,
      "hit": false,
      "t": 27902.069999999967,
      "d": 26.22375000000102,
      "v": 45
    },
    {
      "midi": 56,
      "hit": false,
      "t": 27902.069999999967,
      "d": 83.04187500000262,
      "v": 40
    },
    {
      "midi": 49,
      "hit": false,
      "t": 27902.069999999967,
      "d": 139.86000000000422,
      "v": 45
    },
    {
      "midi": 52,
      "hit": false,
      "t": 27906.440624999956,
      "d": 388.98562500000116,
      "v": 67
    },
    {
      "midi": 68,
      "hit": false,
      "t": 27906.440624999956,
      "d": 388.98562500000116,
      "v": 67
    },
    {
      "midi": 62,
      "hit": false,
      "t": 27906.440624999996,
      "d": 4.370624999999563,
      "v": 92
    },
    {
      "midi": 71,
      "hit": false,
      "t": 28111.85999999998,
      "d": 375.87374999999884,
      "v": 104
    },
    {
      "midi": 64,
      "hit": false,
      "t": 28111.859999999997,
      "d": 4.370624999999563,
      "v": 86
    },
    {
      "midi": 52,
      "hit": false,
      "t": 28321.649999999958,
      "d": 170.45437500000116,
      "v": 63
    },
    {
      "midi": 56,
      "hit": false,
      "t": 28321.64999999997,
      "d": 187.93687499999942,
      "v": 37
    },
    {
      "midi": 49,
      "hit": false,
      "t": 28321.64999999997,
      "d": 201.0487499999981,
      "v": 35
    },
    {
      "midi": 49,
      "hit": false,
      "t": 28321.649999999998,
      "d": 187.93687499999942,
      "v": 104
    },
    {
      "midi": 56,
      "hit": false,
      "t": 28321.649999999998,
      "d": 187.93687499999942,
      "v": 104
    },
    {
      "midi": 59,
      "hit": false,
      "t": 28321.649999999998,
      "d": 187.93687499999942,
      "v": 104
    },
    {
      "midi": 37,
      "hit": false,
      "t": 28321.650000000016,
      "d": 91.78312500000175,
      "v": 99
    },
    {
      "midi": 64,
      "hit": false,
      "t": 28326.020624999997,
      "d": 4.370624999999563,
      "v": 92
    },
    {
      "midi": 61,
      "hit": false,
      "t": 28531.43999999996,
      "d": 104.89500000000044,
      "v": 57
    },
    {
      "midi": 42,
      "hit": false,
      "t": 28531.43999999996,
      "d": 1534.0893749999996,
      "v": 64
    },
    {
      "midi": 70,
      "hit": false,
      "t": 28531.439999999977,
      "d": 751.7475000000013,
      "v": 104
    },
    {
      "midi": 54,
      "hit": false,
      "t": 28531.44,
      "d": 375.87374999999884,
      "v": 104
    },
    {
      "midi": 58,
      "hit": false,
      "t": 28531.44,
      "d": 375.87374999999884,
      "v": 104
    },
    {
      "midi": 30,
      "hit": false,
      "t": 28531.440000000017,
      "d": 419.58000000000175,
      "v": 99
    },
    {
      "midi": 49,
      "hit": false,
      "t": 28535.810624999966,
      "d": 135.48937500000102,
      "v": 71
    },
    {
      "midi": 49,
      "hit": false,
      "t": 28540.181249999958,
      "d": 74.30062499999985,
      "v": 59
    },
    {
      "midi": 61,
      "hit": false,
      "t": 28741.229999999967,
      "d": 550.6987499999996,
      "v": 26
    },
    {
      "midi": 66,
      "hit": false,
      "t": 28749.971249999966,
      "d": 131.11875000000146,
      "v": 38
    },
    {
      "midi": 58,
      "hit": false,
      "t": 28946.64937499996,
      "d": 616.2581249999967,
      "v": 67
    },
    {
      "midi": 66,
      "hit": false,
      "t": 28946.64937499996,
      "d": 616.2581249999967,
      "v": 67
    },
    {
      "midi": 61,
      "hit": false,
      "t": 28951.01999999996,
      "d": 616.2581249999967,
      "v": 66
    },
    {
      "midi": 58,
      "hit": false,
      "t": 28955.390624999967,
      "d": 43.70624999999927,
      "v": 65
    },
    {
      "midi": 63,
      "hit": false,
      "t": 28955.390624999996,
      "d": 4.370624999999563,
      "v": 86
    },
    {
      "midi": 49,
      "hit": false,
      "t": 28959.76124999996,
      "d": 598.7756249999984,
      "v": 67
    },
    {
      "midi": 54,
      "hit": false,
      "t": 29160.809999999998,
      "d": 187.93687499999942,
      "v": 104
    },
    {
      "midi": 58,
      "hit": false,
      "t": 29160.809999999998,
      "d": 187.93687499999942,
      "v": 104
    },
    {
      "midi": 30,
      "hit": false,
      "t": 29160.81000000002,
      "d": 100.52437500000087,
      "v": 95
    },
    {
      "midi": 58,
      "hit": false,
      "t": 29165.180624999968,
      "d": 13.11187499999869,
      "v": 45
    },
    {
      "midi": 63,
      "hit": false,
      "t": 29165.180624999997,
      "d": 4.370624999999563,
      "v": 42
    },
    {
      "midi": 70,
      "hit": false,
      "t": 29169.551249999968,
      "d": 222.90187499999593,
      "v": 40
    },
    {
      "midi": 49,
      "hit": false,
      "t": 29370.599999999966,
      "d": 240.38437499999418,
      "v": 58
    },
    {
      "midi": 54,
      "hit": false,
      "t": 29370.6,
      "d": 375.87374999999884,
      "v": 104
    },
    {
      "midi": 58,
      "hit": false,
      "t": 29370.6,
      "d": 375.87374999999884,
      "v": 104
    },
    {
      "midi": 30,
      "hit": false,
      "t": 29370.60000000002,
      "d": 472.02750000000015,
      "v": 92
    },
    {
      "midi": 61,
      "hit": false,
      "t": 29379.341249999965,
      "d": 174.8249999999971,
      "v": 48
    },
    {
      "midi": 61,
      "hit": false,
      "t": 29576.019374999956,
      "d": 388.98562500000116,
      "v": 67
    },
    {
      "midi": 66,
      "hit": false,
      "t": 29576.019374999956,
      "d": 388.98562500000116,
      "v": 67
    },
    {
      "midi": 49,
      "hit": false,
      "t": 29580.389999999956,
      "d": 388.98562500000116,
      "v": 67
    },
    {
      "midi": 58,
      "hit": false,
      "t": 29580.389999999956,
      "d": 388.98562500000116,
      "v": 67
    },
    {
      "midi": 66,
      "hit": false,
      "t": 29580.389999999963,
      "d": 17.482499999998254,
      "v": 42
    },
    {
      "midi": 62,
      "hit": false,
      "t": 29580.389999999996,
      "d": 4.370624999999563,
      "v": 95
    },
    {
      "midi": 71,
      "hit": false,
      "t": 29790.17999999998,
      "d": 187.93687499999942,
      "v": 104
    },
    {
      "midi": 64,
      "hit": false,
      "t": 29790.179999999997,
      "d": 4.370624999999563,
      "v": 47
    },
    {
      "midi": 58,
      "hit": false,
      "t": 29995.599374999958,
      "d": 170.45437500000116,
      "v": 55
    },
    {
      "midi": 73,
      "hit": false,
      "t": 29999.96999999998,
      "d": 187.93687499999942,
      "v": 104
    },
    {
      "midi": 54,
      "hit": false,
      "t": 29999.969999999998,
      "d": 187.93687499999942,
      "v": 104
    },
    {
      "midi": 58,
      "hit": false,
      "t": 29999.969999999998,
      "d": 187.93687499999942,
      "v": 104
    },
    {
      "midi": 30,
      "hit": false,
      "t": 29999.97000000002,
      "d": 100.52437500000087,
      "v": 99
    },
    {
      "midi": 61,
      "hit": false,
      "t": 30004.34062499996,
      "d": 56.8181250000016,
      "v": 37
    },
    {
      "midi": 58,
      "hit": false,
      "t": 30004.34062499996,
      "d": 56.8181250000016,
      "v": 43
    },
    {
      "midi": 64,
      "hit": false,
      "t": 30004.340624999997,
      "d": 4.370624999999563,
      "v": 96
    },
    {
      "midi": 49,
      "hit": false,
      "t": 30205.38937499996,
      "d": 4.370624999999563,
      "v": 59
    },
    {
      "midi": 61,
      "hit": false,
      "t": 30205.38937499996,
      "d": 4.370624999999563,
      "v": 50
    },
    {
      "midi": 66,
      "hit": false,
      "t": 30205.38937499996,
      "d": 4.370624999999563,
      "v": 63
    },
    {
      "midi": 47,
      "hit": false,
      "t": 30209.75999999996,
      "d": 196.67812499999854,
      "v": 58
    },
    {
      "midi": 74,
      "hit": false,
      "t": 30209.75999999998,
      "d": 375.87374999999884,
      "v": 104
    },
    {
      "midi": 47,
      "hit": false,
      "t": 30209.76,
      "d": 375.87374999999884,
      "v": 104
    },
    {
      "midi": 54,
      "hit": false,
      "t": 30209.76,
      "d": 375.87374999999884,
      "v": 104
    },
    {
      "midi": 35,
      "hit": false,
      "t": 30209.76000000002,
      "d": 423.9506250000013,
      "v": 99
    },
    {
      "midi": 47,
      "hit": false,
      "t": 30214.13062499996,
      "d": 196.67812499999854,
      "v": 59
    },
    {
      "midi": 64,
      "hit": false,
      "t": 30423.920625,
      "d": 4.370624999999563,
      "v": 55
    },
    {
      "midi": 47,
      "hit": false,
      "t": 30428.29124999996,
      "d": 1459.7887499999997,
      "v": 64
    },
    {
      "midi": 50,
      "hit": false,
      "t": 30629.33999999996,
      "d": 91.78312499999811,
      "v": 67
    },
    {
      "midi": 59,
      "hit": false,
      "t": 30629.33999999996,
      "d": 91.78312499999811,
      "v": 67
    },
    {
      "midi": 47,
      "hit": false,
      "t": 30629.33999999996,
      "d": 222.90187499999956,
      "v": 64
    },
    {
      "midi": 62,
      "hit": false,
      "t": 30629.33999999996,
      "d": 384.6150000000016,
      "v": 54
    },
    {
      "midi": 73,
      "hit": false,
      "t": 30629.33999999998,
      "d": 187.93687499999942,
      "v": 104
    },
    {
      "midi": 54,
      "hit": false,
      "t": 30633.71062499996,
      "d": 104.8949999999968,
      "v": 66
    },
    {
      "midi": 63,
      "hit": false,
      "t": 30633.710625,
      "d": 4.370624999999563,
      "v": 86
    },
    {
      "midi": 66,
      "hit": false,
      "t": 30638.08124999996,
      "d": 74.30062499999985,
      "v": 67
    },
    {
      "midi": 54,
      "hit": false,
      "t": 30839.12999999996,
      "d": 148.6012499999997,
      "v": 35
    },
    {
      "midi": 74,
      "hit": false,
      "t": 30839.12999999998,
      "d": 375.87374999999884,
      "v": 104
    },
    {
      "midi": 47,
      "hit": false,
      "t": 30839.129999999997,
      "d": 187.93687499999942,
      "v": 104
    },
    {
      "midi": 54,
      "hit": false,
      "t": 30839.129999999997,
      "d": 187.93687499999942,
      "v": 104
    },
    {
      "midi": 35,
      "hit": false,
      "t": 30839.130000000023,
      "d": 91.78312500000175,
      "v": 99
    },
    {
      "midi": 47,
      "hit": false,
      "t": 31048.92,
      "d": 375.87374999999884,
      "v": 104
    },
    {
      "midi": 54,
      "hit": false,
      "t": 31048.92,
      "d": 375.87374999999884,
      "v": 104
    },
    {
      "midi": 35,
      "hit": false,
      "t": 31048.920000000024,
      "d": 415.20937499999854,
      "v": 99
    },
    {
      "midi": 54,
      "hit": false,
      "t": 31258.709999999955,
      "d": 388.98562500000116,
      "v": 67
    },
    {
      "midi": 59,
      "hit": false,
      "t": 31258.709999999955,
      "d": 388.98562500000116,
      "v": 67
    },
    {
      "midi": 62,
      "hit": false,
      "t": 31258.709999999963,
      "d": 26.22375000000102,
      "v": 45
    },
    {
      "midi": 54,
      "hit": false,
      "t": 31258.709999999963,
      "d": 83.04187500000262,
      "v": 40
    },
    {
      "midi": 47,
      "hit": false,
      "t": 31258.709999999963,
      "d": 139.86000000000422,
      "v": 45
    },
    {
      "midi": 74,
      "hit": false,
      "t": 31258.709999999977,
      "d": 187.93687499999942,
      "v": 104
    },
    {
      "midi": 50,
      "hit": false,
      "t": 31263.080624999955,
      "d": 388.98562500000116,
      "v": 67
    },
    {
      "midi": 66,
      "hit": false,
      "t": 31263.080624999955,
      "d": 388.98562500000116,
      "v": 67
    },
    {
      "midi": 62,
      "hit": false,
      "t": 31263.080625,
      "d": 4.370624999999563,
      "v": 92
    },
    {
      "midi": 76,
      "hit": false,
      "t": 31468.499999999978,
      "d": 375.87374999999884,
      "v": 104
    },
    {
      "midi": 64,
      "hit": false,
      "t": 31468.5,
      "d": 4.370624999999563,
      "v": 86
    },
    {
      "midi": 50,
      "hit": false,
      "t": 31678.289999999957,
      "d": 170.45437500000116,
      "v": 63
    },
    {
      "midi": 54,
      "hit": false,
      "t": 31678.289999999964,
      "d": 187.93687499999942,
      "v": 37
    },
    {
      "midi": 47,
      "hit": false,
      "t": 31678.289999999964,
      "d": 201.0487499999981,
      "v": 35
    },
    {
      "midi": 47,
      "hit": false,
      "t": 31678.289999999997,
      "d": 187.93687499999942,
      "v": 104
    },
    {
      "midi": 54,
      "hit": false,
      "t": 31678.289999999997,
      "d": 187.93687499999942,
      "v": 104
    },
    {
      "midi": 35,
      "hit": false,
      "t": 31678.290000000023,
      "d": 91.78312500000175,
      "v": 99
    },
    {
      "midi": 64,
      "hit": false,
      "t": 31682.660625,
      "d": 4.370624999999563,
      "v": 92
    },
    {
      "midi": 50,
      "hit": false,
      "t": 31888.079999999958,
      "d": 170.45437500000116,
      "v": 55
    },
    {
      "midi": 53,
      "hit": false,
      "t": 31888.079999999958,
      "d": 170.45437500000116,
      "v": 63
    },
    {
      "midi": 57,
      "hit": false,
      "t": 31888.079999999958,
      "d": 170.45437500000116,
      "v": 59
    },
    {
      "midi": 38,
      "hit": false,
      "t": 31888.079999999958,
      "d": 1534.0893750000032,
      "v": 64
    },
    {
      "midi": 73,
      "hit": false,
      "t": 31888.079999999976,
      "d": 375.87374999999884,
      "v": 104
    },
    {
      "midi": 50,
      "hit": false,
      "t": 31888.079999999998,
      "d": 375.87374999999884,
      "v": 104
    },
    {
      "midi": 53,
      "hit": false,
      "t": 31888.079999999998,
      "d": 375.87374999999884,
      "v": 104
    },
    {
      "midi": 57,
      "hit": false,
      "t": 31888.079999999998,
      "d": 375.87374999999884,
      "v": 104
    },
    {
      "midi": 38,
      "hit": false,
      "t": 31888.080000000024,
      "d": 419.58000000000175,
      "v": 99
    },
    {
      "midi": 69,
      "hit": false,
      "t": 31892.450624999958,
      "d": 170.45437500000116,
      "v": 59
    },
    {
      "midi": 50,
      "hit": false,
      "t": 31892.45062499996,
      "d": 135.48937500000102,
      "v": 71
    },
    {
      "midi": 62,
      "hit": false,
      "t": 32097.869999999963,
      "d": 550.6987499999996,
      "v": 26
    },
    {
      "midi": 65,
      "hit": false,
      "t": 32106.61124999996,
      "d": 131.11875000000146,
      "v": 38
    },
    {
      "midi": 71,
      "hit": false,
      "t": 32307.659999999974,
      "d": 375.87374999999884,
      "v": 104
    },
    {
      "midi": 53,
      "hit": false,
      "t": 32312.03062499996,
      "d": 380.2443749999984,
      "v": 59
    },
    {
      "midi": 57,
      "hit": false,
      "t": 32312.03062499996,
      "d": 380.2443749999984,
      "v": 63
    },
    {
      "midi": 69,
      "hit": false,
      "t": 32312.03062499996,
      "d": 380.2443749999984,
      "v": 59
    },
    {
      "midi": 57,
      "hit": false,
      "t": 32312.030624999963,
      "d": 43.70624999999927,
      "v": 65
    },
    {
      "midi": 63,
      "hit": false,
      "t": 32312.030625,
      "d": 4.370624999999563,
      "v": 86
    },
    {
      "midi": 50,
      "hit": false,
      "t": 32320.77187499996,
      "d": 380.2443749999984,
      "v": 61
    },
    {
      "midi": 50,
      "hit": false,
      "t": 32517.449999999997,
      "d": 187.93687499999942,
      "v": 104
    },
    {
      "midi": 53,
      "hit": false,
      "t": 32517.449999999997,
      "d": 187.93687499999942,
      "v": 104
    },
    {
      "midi": 57,
      "hit": false,
      "t": 32517.449999999997,
      "d": 187.93687499999942,
      "v": 104
    },
    {
      "midi": 38,
      "hit": false,
      "t": 32517.450000000026,
      "d": 100.52437500000087,
      "v": 95
    },
    {
      "midi": 57,
      "hit": false,
      "t": 32521.820624999964,
      "d": 13.11187499999869,
      "v": 45
    },
    {
      "midi": 63,
      "hit": false,
      "t": 32521.820625,
      "d": 4.370624999999563,
      "v": 42
    },
    {
      "midi": 69,
      "hit": false,
      "t": 32526.191249999963,
      "d": 222.90187499999593,
      "v": 40
    },
    {
      "midi": 50,
      "hit": false,
      "t": 32727.23999999996,
      "d": 240.38437500000146,
      "v": 58
    },
    {
      "midi": 71,
      "hit": false,
      "t": 32727.239999999972,
      "d": 187.93687500000306,
      "v": 104
    },
    {
      "midi": 50,
      "hit": false,
      "t": 32727.239999999998,
      "d": 375.87374999999884,
      "v": 104
    },
    {
      "midi": 53,
      "hit": false,
      "t": 32727.239999999998,
      "d": 375.87374999999884,
      "v": 104
    },
    {
      "midi": 57,
      "hit": false,
      "t": 32727.239999999998,
      "d": 375.87374999999884,
      "v": 104
    },
    {
      "midi": 38,
      "hit": false,
      "t": 32727.240000000027,
      "d": 472.0274999999965,
      "v": 92
    },
    {
      "midi": 62,
      "hit": false,
      "t": 32735.98124999996,
      "d": 174.8249999999971,
      "v": 48
    },
    {
      "midi": 57,
      "hit": false,
      "t": 32740.351874999957,
      "d": 170.45437500000116,
      "v": 57
    },
    {
      "midi": 65,
      "hit": false,
      "t": 32937.029999999955,
      "d": 17.48250000000553,
      "v": 42
    },
    {
      "midi": 69,
      "hit": false,
      "t": 32937.02999999998,
      "d": 375.87374999999884,
      "v": 104
    },
    {
      "midi": 62,
      "hit": false,
      "t": 32937.03,
      "d": 4.370625000003201,
      "v": 95
    },
    {
      "midi": 50,
      "hit": false,
      "t": 32941.40062499996,
      "d": 585.6637499999997,
      "v": 67
    },
    {
      "midi": 57,
      "hit": false,
      "t": 32945.77124999996,
      "d": 585.6637499999997,
      "v": 67
    },
    {
      "midi": 69,
      "hit": false,
      "t": 32945.77124999996,
      "d": 585.6637499999997,
      "v": 55
    },
    {
      "midi": 53,
      "hit": false,
      "t": 32950.141874999965,
      "d": 585.6637499999997,
      "v": 67
    },
    {
      "midi": 64,
      "hit": false,
      "t": 33146.82,
      "d": 4.370625000003201,
      "v": 47
    },
    {
      "midi": 69,
      "hit": false,
      "t": 33356.60999999998,
      "d": 187.93687499999942,
      "v": 104
    },
    {
      "midi": 50,
      "hit": false,
      "t": 33356.60999999999,
      "d": 187.93687499999942,
      "v": 104
    },
    {
      "midi": 53,
      "hit": false,
      "t": 33356.60999999999,
      "d": 187.93687499999942,
      "v": 104
    },
    {
      "midi": 57,
      "hit": false,
      "t": 33356.60999999999,
      "d": 187.93687499999942,
      "v": 104
    },
    {
      "midi": 38,
      "hit": false,
      "t": 33356.61000000002,
      "d": 100.52437500000087,
      "v": 99
    },
    {
      "midi": 62,
      "hit": false,
      "t": 33360.98062499996,
      "d": 56.81812499999796,
      "v": 37
    },
    {
      "midi": 57,
      "hit": false,
      "t": 33360.98062499996,
      "d": 56.81812499999796,
      "v": 43
    },
    {
      "midi": 64,
      "hit": false,
      "t": 33360.980625000004,
      "d": 4.370625000003201,
      "v": 96
    },
    {
      "midi": 47,
      "hit": false,
      "t": 33566.39999999996,
      "d": 83.04187499999534,
      "v": 61
    },
    {
      "midi": 37,
      "hit": false,
      "t": 33566.399999999965,
      "d": 196.67812499999854,
      "v": 58
    },
    {
      "midi": 71,
      "hit": false,
      "t": 33566.39999999998,
      "d": 751.7474999999977,
      "v": 104
    },
    {
      "midi": 52,
      "hit": false,
      "t": 33566.399999999994,
      "d": 375.87374999999884,
      "v": 104
    },
    {
      "midi": 59,
      "hit": false,
      "t": 33566.399999999994,
      "d": 375.87374999999884,
      "v": 104
    },
    {
      "midi": 62,
      "hit": false,
      "t": 33566.399999999994,
      "d": 375.87374999999884,
      "v": 104
    },
    {
      "midi": 37,
      "hit": false,
      "t": 33566.40000000002,
      "d": 187.93687499999942,
      "v": 99
    },
    {
      "midi": 62,
      "hit": false,
      "t": 33575.14125000001,
      "d": 4.370625000003201,
      "v": 62
    },
    {
      "midi": 47,
      "hit": false,
      "t": 33776.18999999995,
      "d": 253.4962499999965,
      "v": 48
    },
    {
      "midi": 82,
      "hit": false,
      "t": 33780.56062500001,
      "d": 30.594375000000582,
      "v": 81
    },
    {
      "midi": 54,
      "hit": false,
      "t": 33985.97999999995,
      "d": 1083.9149999999936,
      "v": 57
    },
    {
      "midi": 61,
      "hit": false,
      "t": 33985.98000000001,
      "d": 4.370625000003201,
      "v": 85
    },
    {
      "midi": 37,
      "hit": false,
      "t": 33985.980000000025,
      "d": 808.5656250000029,
      "v": 98
    },
    {
      "midi": 63,
      "hit": false,
      "t": 33990.350625000014,
      "d": 4.370625000003201,
      "v": 86
    },
    {
      "midi": 82,
      "hit": false,
      "t": 33990.350625000014,
      "d": 30.594375000000582,
      "v": 82
    },
    {
      "midi": 57,
      "hit": false,
      "t": 33994.72124999995,
      "d": 1354.8937499999956,
      "v": 78
    },
    {
      "midi": 54,
      "hit": false,
      "t": 33994.721249999966,
      "d": 607.5168750000012,
      "v": 57
    },
    {
      "midi": 57,
      "hit": false,
      "t": 33994.721249999966,
      "d": 607.5168750000012,
      "v": 57
    },
    {
      "midi": 66,
      "hit": false,
      "t": 33999.09187499997,
      "d": 607.5168750000012,
      "v": 57
    },
    {
      "midi": 62,
      "hit": false,
      "t": 34003.46249999995,
      "d": 1346.1524999999965,
      "v": 64
    },
    {
      "midi": 52,
      "hit": false,
      "t": 34195.76999999999,
      "d": 187.93687499999942,
      "v": 104
    },
    {
      "midi": 59,
      "hit": false,
      "t": 34195.76999999999,
      "d": 187.93687499999942,
      "v": 104
    },
    {
      "midi": 62,
      "hit": false,
      "t": 34195.76999999999,
      "d": 187.93687499999942,
      "v": 104
    },
    {
      "midi": 52,
      "hit": false,
      "t": 34405.55999999999,
      "d": 375.87374999999884,
      "v": 104
    },
    {
      "midi": 59,
      "hit": false,
      "t": 34405.55999999999,
      "d": 375.87374999999884,
      "v": 104
    },
    {
      "midi": 62,
      "hit": false,
      "t": 34405.55999999999,
      "d": 375.87374999999884,
      "v": 104
    },
    {
      "midi": 62,
      "hit": false,
      "t": 34619.720625000016,
      "d": 4.370625000003201,
      "v": 99
    },
    {
      "midi": 61,
      "hit": false,
      "t": 34825.14000000002,
      "d": 4.370625000003201,
      "v": 85
    },
    {
      "midi": 37,
      "hit": false,
      "t": 34825.14000000003,
      "d": 388.98562500000116,
      "v": 99
    },
    {
      "midi": 66,
      "hit": false,
      "t": 34829.51062499997,
      "d": 69.93000000000757,
      "v": 66
    },
    {
      "midi": 50,
      "hit": false,
      "t": 34833.88124999998,
      "d": 52.44750000000204,
      "v": 66
    },
    {
      "midi": 57,
      "hit": false,
      "t": 34833.88124999998,
      "d": 61.188750000001164,
      "v": 66
    },
    {
      "midi": 64,
      "hit": false,
      "t": 34833.88125000003,
      "d": 4.370625000003201,
      "v": 86
    },
    {
      "midi": 52,
      "hit": false,
      "t": 35034.929999999986,
      "d": 187.93687499999942,
      "v": 104
    },
    {
      "midi": 59,
      "hit": false,
      "t": 35034.929999999986,
      "d": 187.93687499999942,
      "v": 104
    },
    {
      "midi": 62,
      "hit": false,
      "t": 35034.929999999986,
      "d": 187.93687499999942,
      "v": 104
    },
    {
      "midi": 64,
      "hit": false,
      "t": 35034.93000000003,
      "d": 4.370625000003201,
      "v": 65
    },
    {
      "midi": 37,
      "hit": false,
      "t": 35244.71999999998,
      "d": 170.45437500000116,
      "v": 58
    },
    {
      "midi": 37,
      "hit": false,
      "t": 35244.72000000003,
      "d": 423.9506249999977,
      "v": 99
    },
    {
      "midi": 47,
      "hit": false,
      "t": 35249.090624999946,
      "d": 196.67812499999854,
      "v": 59
    },
    {
      "midi": 52,
      "hit": false,
      "t": 35454.50999999999,
      "d": 187.93687499999942,
      "v": 104
    },
    {
      "midi": 59,
      "hit": false,
      "t": 35454.50999999999,
      "d": 187.93687499999942,
      "v": 104
    },
    {
      "midi": 62,
      "hit": false,
      "t": 35454.50999999999,
      "d": 187.93687499999942,
      "v": 104
    },
    {
      "midi": 64,
      "hit": false,
      "t": 35458.88062500003,
      "d": 4.370625000003201,
      "v": 55
    },
    {
      "midi": 37,
      "hit": false,
      "t": 35463.25124999998,
      "d": 1315.5581250000178,
      "v": 64
    },
    {
      "midi": 54,
      "hit": false,
      "t": 35664.299999999945,
      "d": 56.81812499999796,
      "v": 50
    },
    {
      "midi": 62,
      "hit": false,
      "t": 35664.299999999945,
      "d": 209.79000000000087,
      "v": 54
    },
    {
      "midi": 47,
      "hit": false,
      "t": 35664.299999999945,
      "d": 222.9018750000032,
      "v": 64
    },
    {
      "midi": 50,
      "hit": false,
      "t": 35664.29999999998,
      "d": 91.78312500000902,
      "v": 59
    },
    {
      "midi": 57,
      "hit": false,
      "t": 35664.29999999998,
      "d": 91.78312500000902,
      "v": 52
    },
    {
      "midi": 54,
      "hit": false,
      "t": 35668.670624999984,
      "d": 104.89500000000407,
      "v": 48
    },
    {
      "midi": 63,
      "hit": false,
      "t": 35668.67062500003,
      "d": 4.370625000003201,
      "v": 86
    },
    {
      "midi": 66,
      "hit": false,
      "t": 35673.04124999999,
      "d": 74.30062500000349,
      "v": 62
    },
    {
      "midi": 62,
      "hit": false,
      "t": 35769.19500000003,
      "d": 4.370625000003201,
      "v": 72
    },
    {
      "midi": 52,
      "hit": false,
      "t": 35874.08999999999,
      "d": 187.93687499999942,
      "v": 104
    },
    {
      "midi": 59,
      "hit": false,
      "t": 35874.08999999999,
      "d": 187.93687499999942,
      "v": 104
    },
    {
      "midi": 62,
      "hit": false,
      "t": 35874.08999999999,
      "d": 187.93687499999942,
      "v": 104
    },
    {
      "midi": 45,
      "hit": false,
      "t": 35874.08999999999,
      "d": 170.45437500000116,
      "v": 68
    },
    {
      "midi": 37,
      "hit": false,
      "t": 35874.090000000026,
      "d": 91.78312500000175,
      "v": 99
    },
    {
      "midi": 63,
      "hit": false,
      "t": 35878.46062500003,
      "d": 4.370625000003201,
      "v": 86
    },
    {
      "midi": 47,
      "hit": false,
      "t": 36083.87999999995,
      "d": 118.00687499999913,
      "v": 63
    },
    {
      "midi": 73,
      "hit": false,
      "t": 36083.879999999976,
      "d": 375.87374999999884,
      "v": 104
    },
    {
      "midi": 52,
      "hit": false,
      "t": 36083.87999999999,
      "d": 375.87374999999884,
      "v": 104
    },
    {
      "midi": 59,
      "hit": false,
      "t": 36083.87999999999,
      "d": 375.87374999999884,
      "v": 104
    },
    {
      "midi": 62,
      "hit": false,
      "t": 36083.87999999999,
      "d": 375.87374999999884,
      "v": 104
    },
    {
      "midi": 50,
      "hit": false,
      "t": 36083.87999999999,
      "d": 170.45437500000116,
      "v": 63
    },
    {
      "midi": 37,
      "hit": false,
      "t": 36083.88000000003,
      "d": 415.20937499999854,
      "v": 99
    },
    {
      "midi": 62,
      "hit": false,
      "t": 36293.66999999995,
      "d": 847.9012500000026,
      "v": 45
    },
    {
      "midi": 54,
      "hit": false,
      "t": 36293.66999999999,
      "d": 388.98562500000116,
      "v": 48
    },
    {
      "midi": 57,
      "hit": false,
      "t": 36293.66999999999,
      "d": 388.98562500000116,
      "v": 59
    },
    {
      "midi": 50,
      "hit": false,
      "t": 36298.040624999994,
      "d": 388.98562500000116,
      "v": 67
    },
    {
      "midi": 66,
      "hit": false,
      "t": 36298.040624999994,
      "d": 388.98562500000116,
      "v": 67
    },
    {
      "midi": 64,
      "hit": false,
      "t": 36298.04062500003,
      "d": 4.370625000003201,
      "v": 92
    },
    {
      "midi": 74,
      "hit": false,
      "t": 36503.45999999998,
      "d": 375.87374999999884,
      "v": 104
    },
    {
      "midi": 63,
      "hit": false,
      "t": 36503.460000000036,
      "d": 4.370625000003201,
      "v": 86
    },
    {
      "midi": 54,
      "hit": false,
      "t": 36713.24999999995,
      "d": 26.22374999999738,
      "v": 37
    },
    {
      "midi": 47,
      "hit": false,
      "t": 36713.24999999995,
      "d": 201.04875000000175,
      "v": 35
    },
    {
      "midi": 37,
      "hit": false,
      "t": 36713.25000000002,
      "d": 91.78312500000175,
      "v": 99
    },
    {
      "midi": 63,
      "hit": false,
      "t": 36717.62062500004,
      "d": 4.370625000003201,
      "v": 92
    },
    {
      "midi": 76,
      "hit": false,
      "t": 36923.03999999998,
      "d": 375.87374999999884,
      "v": 104
    },
    {
      "midi": 57,
      "hit": false,
      "t": 36923.039999999986,
      "d": 375.87374999999884,
      "v": 104
    },
    {
      "midi": 61,
      "hit": false,
      "t": 36923.039999999986,
      "d": 375.87374999999884,
      "v": 104
    },
    {
      "midi": 45,
      "hit": false,
      "t": 36923.03999999999,
      "d": 196.67812499999854,
      "v": 58
    },
    {
      "midi": 33,
      "hit": false,
      "t": 36923.04000000002,
      "d": 423.9506249999977,
      "v": 99
    },
    {
      "midi": 52,
      "hit": false,
      "t": 36927.41062499995,
      "d": 196.67812499999854,
      "v": 59
    },
    {
      "midi": 64,
      "hit": false,
      "t": 37137.20062500004,
      "d": 4.370625000003201,
      "v": 55
    },
    {
      "midi": 45,
      "hit": false,
      "t": 37141.57124999999,
      "d": 2993.8781250000247,
      "v": 64
    },
    {
      "midi": 52,
      "hit": false,
      "t": 37342.61999999995,
      "d": 222.9018750000032,
      "v": 64
    },
    {
      "midi": 64,
      "hit": false,
      "t": 37342.61999999995,
      "d": 384.61499999999796,
      "v": 54
    },
    {
      "midi": 76,
      "hit": false,
      "t": 37342.61999999998,
      "d": 187.93687499999942,
      "v": 104
    },
    {
      "midi": 52,
      "hit": false,
      "t": 37342.619999999995,
      "d": 91.78312500000902,
      "v": 67
    },
    {
      "midi": 61,
      "hit": false,
      "t": 37342.619999999995,
      "d": 91.78312500000902,
      "v": 67
    },
    {
      "midi": 56,
      "hit": false,
      "t": 37346.990625,
      "d": 104.89500000000407,
      "v": 66
    },
    {
      "midi": 63,
      "hit": false,
      "t": 37346.99062500004,
      "d": 4.370625000003201,
      "v": 86
    },
    {
      "midi": 64,
      "hit": false,
      "t": 37351.36125,
      "d": 74.30062500000349,
      "v": 67
    },
    {
      "midi": 56,
      "hit": false,
      "t": 37552.40999999995,
      "d": 148.6012499999997,
      "v": 35
    },
    {
      "midi": 76,
      "hit": false,
      "t": 37552.40999999998,
      "d": 375.87374999999884,
      "v": 104
    },
    {
      "midi": 57,
      "hit": false,
      "t": 37552.40999999998,
      "d": 187.93687499999942,
      "v": 104
    },
    {
      "midi": 61,
      "hit": false,
      "t": 37552.40999999998,
      "d": 187.93687499999942,
      "v": 104
    },
    {
      "midi": 33,
      "hit": false,
      "t": 37552.41000000002,
      "d": 91.78312500000175,
      "v": 99
    },
    {
      "midi": 57,
      "hit": false,
      "t": 37762.19999999998,
      "d": 375.87374999999884,
      "v": 104
    },
    {
      "midi": 61,
      "hit": false,
      "t": 37762.19999999998,
      "d": 375.87374999999884,
      "v": 104
    },
    {
      "midi": 33,
      "hit": false,
      "t": 37762.20000000002,
      "d": 415.20937499999854,
      "v": 99
    },
    {
      "midi": 64,
      "hit": false,
      "t": 37971.98999999995,
      "d": 26.22374999999738,
      "v": 45
    },
    {
      "midi": 56,
      "hit": false,
      "t": 37971.98999999995,
      "d": 83.04187499999534,
      "v": 40
    },
    {
      "midi": 52,
      "hit": false,
      "t": 37971.98999999995,
      "d": 139.8599999999933,
      "v": 45
    },
    {
      "midi": 78,
      "hit": false,
      "t": 37971.98999999998,
      "d": 187.93687499999942,
      "v": 104
    },
    {
      "midi": 56,
      "hit": false,
      "t": 37971.990000000005,
      "d": 388.98562500000116,
      "v": 67
    },
    {
      "midi": 61,
      "hit": false,
      "t": 37971.990000000005,
      "d": 388.98562500000116,
      "v": 67
    },
    {
      "midi": 52,
      "hit": false,
      "t": 37976.36062500001,
      "d": 388.98562500000116,
      "v": 67
    },
    {
      "midi": 64,
      "hit": false,
      "t": 37976.36062500001,
      "d": 388.98562500000116,
      "v": 67
    },
    {
      "midi": 62,
      "hit": false,
      "t": 37976.360625000045,
      "d": 4.370625000003201,
      "v": 92
    },
    {
      "midi": 76,
      "hit": false,
      "t": 38181.779999999984,
      "d": 187.93687499999942,
      "v": 104
    },
    {
      "midi": 64,
      "hit": false,
      "t": 38181.78000000005,
      "d": 4.370625000003201,
      "v": 86
    },
    {
      "midi": 56,
      "hit": false,
      "t": 38391.56999999994,
      "d": 187.93687499999942,
      "v": 37
    },
    {
      "midi": 52,
      "hit": false,
      "t": 38391.56999999994,
      "d": 201.04875000000175,
      "v": 35
    },
    {
      "midi": 57,
      "hit": false,
      "t": 38391.56999999998,
      "d": 187.93687499999942,
      "v": 104
    },
    {
      "midi": 61,
      "hit": false,
      "t": 38391.56999999998,
      "d": 187.93687499999942,
      "v": 104
    },
    {
      "midi": 76,
      "hit": false,
      "t": 38391.569999999985,
      "d": 563.8106249999983,
      "v": 104
    },
    {
      "midi": 52,
      "hit": false,
      "t": 38391.57000000001,
      "d": 170.45437500000116,
      "v": 63
    },
    {
      "midi": 33,
      "hit": false,
      "t": 38391.570000000014,
      "d": 91.78312500000175,
      "v": 99
    },
    {
      "midi": 64,
      "hit": false,
      "t": 38395.940625000054,
      "d": 4.370625000003201,
      "v": 92
    },
    {
      "midi": 52,
      "hit": false,
      "t": 38601.35999999994,
      "d": 83.04187500000262,
      "v": 61
    },
    {
      "midi": 56,
      "hit": false,
      "t": 38601.35999999994,
      "d": 83.04187500000262,
      "v": 61
    },
    {
      "midi": 64,
      "hit": false,
      "t": 38601.35999999994,
      "d": 96.15375000000495,
      "v": 61
    },
    {
      "midi": 57,
      "hit": false,
      "t": 38601.35999999998,
      "d": 375.87374999999884,
      "v": 104
    },
    {
      "midi": 61,
      "hit": false,
      "t": 38601.35999999998,
      "d": 375.87374999999884,
      "v": 104
    },
    {
      "midi": 52,
      "hit": false,
      "t": 38601.36000000001,
      "d": 170.45437500000116,
      "v": 55
    },
    {
      "midi": 56,
      "hit": false,
      "t": 38601.36000000001,
      "d": 170.45437500000116,
      "v": 63
    },
    {
      "midi": 61,
      "hit": false,
      "t": 38601.36000000001,
      "d": 170.45437500000116,
      "v": 59
    },
    {
      "midi": 33,
      "hit": false,
      "t": 38601.360000000015,
      "d": 419.58000000000175,
      "v": 99
    },
    {
      "midi": 64,
      "hit": false,
      "t": 38605.73062500001,
      "d": 170.45437500000116,
      "v": 59
    },
    {
      "midi": 56,
      "hit": false,
      "t": 39020.93999999995,
      "d": 201.04875000000175,
      "v": 57
    },
    {
      "midi": 56,
      "hit": false,
      "t": 39025.31062500001,
      "d": 380.24437500000204,
      "v": 59
    },
    {
      "midi": 61,
      "hit": false,
      "t": 39025.31062500001,
      "d": 380.24437500000204,
      "v": 63
    },
    {
      "midi": 64,
      "hit": false,
      "t": 39025.31062500001,
      "d": 380.24437500000204,
      "v": 59
    },
    {
      "midi": 63,
      "hit": false,
      "t": 39025.31062500006,
      "d": 4.370625000003201,
      "v": 86
    },
    {
      "midi": 64,
      "hit": false,
      "t": 39029.68124999995,
      "d": 78.67124999999942,
      "v": 64
    },
    {
      "midi": 52,
      "hit": false,
      "t": 39034.05187500001,
      "d": 380.24437500000204,
      "v": 61
    },
    {
      "midi": 52,
      "hit": false,
      "t": 39226.359374999956,
      "d": 139.86000000000058,
      "v": 23
    },
    {
      "midi": 57,
      "hit": false,
      "t": 39230.729999999974,
      "d": 187.93687499999942,
      "v": 104
    },
    {
      "midi": 61,
      "hit": false,
      "t": 39230.729999999974,
      "d": 187.93687499999942,
      "v": 104
    },
    {
      "midi": 33,
      "hit": false,
      "t": 39230.73000000002,
      "d": 100.52437500000087,
      "v": 95
    },
    {
      "midi": 63,
      "hit": false,
      "t": 39235.10062500006,
      "d": 4.370625000003201,
      "v": 42
    },
    {
      "midi": 56,
      "hit": false,
      "t": 39440.51999999996,
      "d": 209.7899999999936,
      "v": 54
    },
    {
      "midi": 57,
      "hit": false,
      "t": 39440.519999999975,
      "d": 375.87374999999884,
      "v": 104
    },
    {
      "midi": 61,
      "hit": false,
      "t": 39440.519999999975,
      "d": 375.87374999999884,
      "v": 104
    },
    {
      "midi": 73,
      "hit": false,
      "t": 39440.51999999998,
      "d": 375.87374999999884,
      "v": 104
    },
    {
      "midi": 33,
      "hit": false,
      "t": 39440.52000000002,
      "d": 472.0274999999965,
      "v": 92
    },
    {
      "midi": 61,
      "hit": false,
      "t": 39453.631875000014,
      "d": 170.45437500000116,
      "v": 57
    },
    {
      "midi": 64,
      "hit": false,
      "t": 39650.309999999954,
      "d": 4.370625000003201,
      "v": 45
    },
    {
      "midi": 52,
      "hit": false,
      "t": 39650.309999999954,
      "d": 174.8249999999971,
      "v": 45
    },
    {
      "midi": 56,
      "hit": false,
      "t": 39650.309999999954,
      "d": 218.53125,
      "v": 41
    },
    {
      "midi": 62,
      "hit": false,
      "t": 39650.31000000006,
      "d": 4.370625000003201,
      "v": 95
    },
    {
      "midi": 52,
      "hit": false,
      "t": 39654.680625000015,
      "d": 585.6637499999997,
      "v": 67
    },
    {
      "midi": 61,
      "hit": false,
      "t": 39659.05125000002,
      "d": 585.6637499999997,
      "v": 67
    },
    {
      "midi": 64,
      "hit": false,
      "t": 39659.05125000002,
      "d": 585.6637499999997,
      "v": 55
    },
    {
      "midi": 56,
      "hit": false,
      "t": 39663.42187500002,
      "d": 585.6637499999997,
      "v": 67
    },
    {
      "midi": 74,
      "hit": false,
      "t": 39860.099999999984,
      "d": 375.87374999999884,
      "v": 104
    },
    {
      "midi": 64,
      "hit": false,
      "t": 39860.100000000064,
      "d": 4.370625000003201,
      "v": 47
    },
    {
      "midi": 56,
      "hit": false,
      "t": 40069.889999999956,
      "d": 113.63624999999593,
      "v": 44
    },
    {
      "midi": 52,
      "hit": false,
      "t": 40069.889999999956,
      "d": 288.4612500000003,
      "v": 41
    },
    {
      "midi": 57,
      "hit": false,
      "t": 40069.88999999997,
      "d": 187.93687499999942,
      "v": 104
    },
    {
      "midi": 61,
      "hit": false,
      "t": 40069.88999999997,
      "d": 187.93687499999942,
      "v": 104
    },
    {
      "midi": 33,
      "hit": false,
      "t": 40069.890000000014,
      "d": 100.52437500000087,
      "v": 99
    },
    {
      "midi": 64,
      "hit": false,
      "t": 40074.26062500007,
      "d": 4.370625000003201,
      "v": 96
    },
    {
      "midi": 64,
      "hit": false,
      "t": 40078.631249999955,
      "d": 113.63624999999593,
      "v": 36
    },
    {
      "midi": 52,
      "hit": false,
      "t": 40279.67999999997,
      "d": 375.87374999999884,
      "v": 104
    },
    {
      "midi": 55,
      "hit": false,
      "t": 40279.67999999997,
      "d": 375.87374999999884,
      "v": 104
    },
    {
      "midi": 59,
      "hit": false,
      "t": 40279.67999999997,
      "d": 375.87374999999884,
      "v": 104
    },
    {
      "midi": 76,
      "hit": false,
      "t": 40279.679999999986,
      "d": 375.87374999999884,
      "v": 104
    },
    {
      "midi": 28,
      "hit": false,
      "t": 40279.680000000015,
      "d": 423.9506249999977,
      "v": 99
    },
    {
      "midi": 40,
      "hit": false,
      "t": 40279.68000000002,
      "d": 196.67812499999854,
      "v": 58
    },
    {
      "midi": 47,
      "hit": false,
      "t": 40284.05062499995,
      "d": 568.1812500000015,
      "v": 62
    },
    {
      "midi": 62,
      "hit": false,
      "t": 40288.421249999956,
      "d": 122.37750000000233,
      "v": 46
    },
    {
      "midi": 59,
      "hit": false,
      "t": 40288.421249999956,
      "d": 201.04875000000175,
      "v": 57
    },
    {
      "midi": 64,
      "hit": false,
      "t": 40493.84062500007,
      "d": 4.370625000003201,
      "v": 55
    },
    {
      "midi": 59,
      "hit": false,
      "t": 40498.21124999996,
      "d": 104.8949999999968,
      "v": 24
    },
    {
      "midi": 40,
      "hit": false,
      "t": 40498.21125000002,
      "d": 1249.9987500000134,
      "v": 64
    },
    {
      "midi": 59,
      "hit": false,
      "t": 40699.25999999995,
      "d": 244.75500000000466,
      "v": 56
    },
    {
      "midi": 62,
      "hit": false,
      "t": 40699.25999999995,
      "d": 288.46125000000757,
      "v": 56
    },
    {
      "midi": 76,
      "hit": false,
      "t": 40699.25999999999,
      "d": 187.93687499999942,
      "v": 104
    },
    {
      "midi": 50,
      "hit": false,
      "t": 40699.260000000024,
      "d": 91.78312500000902,
      "v": 67
    },
    {
      "midi": 59,
      "hit": false,
      "t": 40699.260000000024,
      "d": 91.78312500000902,
      "v": 67
    },
    {
      "midi": 55,
      "hit": false,
      "t": 40703.63062500003,
      "d": 104.89500000000407,
      "v": 66
    },
    {
      "midi": 63,
      "hit": false,
      "t": 40703.63062500007,
      "d": 4.370625000003201,
      "v": 86
    },
    {
      "midi": 64,
      "hit": false,
      "t": 40708.00125000003,
      "d": 74.30062500000349,
      "v": 67
    },
    {
      "midi": 52,
      "hit": false,
      "t": 40909.04999999997,
      "d": 187.93687499999942,
      "v": 104
    },
    {
      "midi": 55,
      "hit": false,
      "t": 40909.04999999997,
      "d": 187.93687499999942,
      "v": 104
    },
    {
      "midi": 59,
      "hit": false,
      "t": 40909.04999999997,
      "d": 187.93687499999942,
      "v": 104
    },
    {
      "midi": 76,
      "hit": false,
      "t": 40909.04999999999,
      "d": 375.87374999999884,
      "v": 104
    },
    {
      "midi": 28,
      "hit": false,
      "t": 40909.05000000001,
      "d": 91.78312500000175,
      "v": 99
    },
    {
      "midi": 55,
      "hit": false,
      "t": 40913.420624999955,
      "d": 375.8737500000061,
      "v": 38
    },
    {
      "midi": 47,
      "hit": false,
      "t": 41118.83999999996,
      "d": 236.01375000000553,
      "v": 51
    },
    {
      "midi": 52,
      "hit": false,
      "t": 41118.83999999997,
      "d": 375.87374999999884,
      "v": 104
    },
    {
      "midi": 55,
      "hit": false,
      "t": 41118.83999999997,
      "d": 375.87374999999884,
      "v": 104
    },
    {
      "midi": 59,
      "hit": false,
      "t": 41118.83999999997,
      "d": 375.87374999999884,
      "v": 104
    },
    {
      "midi": 28,
      "hit": false,
      "t": 41118.84000000001,
      "d": 415.20937499999854,
      "v": 99
    },
    {
      "midi": 59,
      "hit": false,
      "t": 41328.62999999996,
      "d": 555.0693749999991,
      "v": 44
    },
    {
      "midi": 62,
      "hit": false,
      "t": 41328.62999999996,
      "d": 603.146249999998,
      "v": 43
    },
    {
      "midi": 76,
      "hit": false,
      "t": 41328.62999999999,
      "d": 187.93687499999942,
      "v": 104
    },
    {
      "midi": 55,
      "hit": false,
      "t": 41328.630000000034,
      "d": 388.98562500000116,
      "v": 67
    },
    {
      "midi": 59,
      "hit": false,
      "t": 41328.630000000034,
      "d": 388.98562500000116,
      "v": 67
    },
    {
      "midi": 55,
      "hit": false,
      "t": 41333.000624999964,
      "d": 288.4612500000003,
      "v": 43
    },
    {
      "midi": 50,
      "hit": false,
      "t": 41333.00062500004,
      "d": 388.98562500000116,
      "v": 67
    },
    {
      "midi": 64,
      "hit": false,
      "t": 41333.00062500004,
      "d": 388.98562500000116,
      "v": 67
    },
    {
      "midi": 62,
      "hit": false,
      "t": 41333.00062500007,
      "d": 4.370625000003201,
      "v": 92
    },
    {
      "midi": 78,
      "hit": false,
      "t": 41538.41999999999,
      "d": 187.93687499999942,
      "v": 104
    },
    {
      "midi": 64,
      "hit": false,
      "t": 41538.42000000008,
      "d": 4.370625000003201,
      "v": 86
    },
    {
      "midi": 52,
      "hit": false,
      "t": 41748.20999999996,
      "d": 187.93687499999942,
      "v": 104
    },
    {
      "midi": 55,
      "hit": false,
      "t": 41748.20999999996,
      "d": 187.93687499999942,
      "v": 104
    },
    {
      "midi": 59,
      "hit": false,
      "t": 41748.20999999996,
      "d": 187.93687499999942,
      "v": 104
    },
    {
      "midi": 55,
      "hit": false,
      "t": 41748.20999999996,
      "d": 187.93687499999942,
      "v": 37
    },
    {
      "midi": 52,
      "hit": false,
      "t": 41748.20999999996,
      "d": 201.04875000000175,
      "v": 35
    },
    {
      "midi": 76,
      "hit": false,
      "t": 41748.20999999999,
      "d": 563.8106249999983,
      "v": 104
    },
    {
      "midi": 31,
      "hit": false,
      "t": 41748.21000000001,
      "d": 91.78312500000175,
      "v": 99
    },
    {
      "midi": 52,
      "hit": false,
      "t": 41748.210000000036,
      "d": 170.45437500000116,
      "v": 63
    },
    {
      "midi": 43,
      "hit": false,
      "t": 41748.210000000036,
      "d": 1743.8793750000114,
      "v": 64
    },
    {
      "midi": 64,
      "hit": false,
      "t": 41752.58062500008,
      "d": 4.370625000003201,
      "v": 92
    },
    {
      "midi": 55,
      "hit": false,
      "t": 41957.99999999996,
      "d": 375.87374999999884,
      "v": 104
    },
    {
      "midi": 57,
      "hit": false,
      "t": 41957.99999999996,
      "d": 375.87374999999884,
      "v": 104
    },
    {
      "midi": 61,
      "hit": false,
      "t": 41957.99999999996,
      "d": 375.87374999999884,
      "v": 104
    },
    {
      "midi": 64,
      "hit": false,
      "t": 41957.99999999996,
      "d": 8.741249999999127,
      "v": 61
    },
    {
      "midi": 52,
      "hit": false,
      "t": 41957.99999999996,
      "d": 83.04187500000262,
      "v": 61
    },
    {
      "midi": 55,
      "hit": false,
      "t": 41957.99999999996,
      "d": 83.04187500000262,
      "v": 61
    },
    {
      "midi": 31,
      "hit": false,
      "t": 41958.00000000001,
      "d": 419.58000000000175,
      "v": 99
    },
    {
      "midi": 52,
      "hit": false,
      "t": 41958.00000000004,
      "d": 170.45437500000116,
      "v": 55
    },
    {
      "midi": 55,
      "hit": false,
      "t": 41958.00000000004,
      "d": 170.45437500000116,
      "v": 63
    },
    {
      "midi": 61,
      "hit": false,
      "t": 41958.00000000004,
      "d": 170.45437500000116,
      "v": 59
    },
    {
      "midi": 64,
      "hit": false,
      "t": 41962.37062500004,
      "d": 170.45437500000116,
      "v": 59
    },
    {
      "midi": 55,
      "hit": false,
      "t": 42377.57999999997,
      "d": 201.04875000000175,
      "v": 57
    },
    {
      "midi": 55,
      "hit": false,
      "t": 42381.95062500004,
      "d": 380.24437500000204,
      "v": 59
    },
    {
      "midi": 61,
      "hit": false,
      "t": 42381.95062500004,
      "d": 380.24437500000204,
      "v": 63
    },
    {
      "midi": 64,
      "hit": false,
      "t": 42381.95062500004,
      "d": 380.24437500000204,
      "v": 59
    },
    {
      "midi": 63,
      "hit": false,
      "t": 42381.950625000085,
      "d": 4.370625000003201,
      "v": 86
    },
    {
      "midi": 64,
      "hit": false,
      "t": 42386.32124999997,
      "d": 78.67124999999942,
      "v": 64
    },
    {
      "midi": 52,
      "hit": false,
      "t": 42390.69187500004,
      "d": 380.24437500000204,
      "v": 61
    },
    {
      "midi": 52,
      "hit": false,
      "t": 42582.99937499998,
      "d": 139.86000000000058,
      "v": 23
    },
    {
      "midi": 55,
      "hit": false,
      "t": 42587.36999999996,
      "d": 187.93687499999942,
      "v": 104
    },
    {
      "midi": 57,
      "hit": false,
      "t": 42587.36999999996,
      "d": 187.93687499999942,
      "v": 104
    },
    {
      "midi": 61,
      "hit": false,
      "t": 42587.36999999996,
      "d": 187.93687499999942,
      "v": 104
    },
    {
      "midi": 31,
      "hit": false,
      "t": 42587.37000000001,
      "d": 100.52437500000087,
      "v": 95
    },
    {
      "midi": 63,
      "hit": false,
      "t": 42591.740625000086,
      "d": 4.370625000003201,
      "v": 42
    },
    {
      "midi": 55,
      "hit": false,
      "t": 42797.15999999996,
      "d": 375.87374999999884,
      "v": 104
    },
    {
      "midi": 57,
      "hit": false,
      "t": 42797.15999999996,
      "d": 375.87374999999884,
      "v": 104
    },
    {
      "midi": 61,
      "hit": false,
      "t": 42797.15999999996,
      "d": 375.87374999999884,
      "v": 104
    },
    {
      "midi": 55,
      "hit": false,
      "t": 42797.15999999998,
      "d": 209.7899999999936,
      "v": 54
    },
    {
      "midi": 69,
      "hit": false,
      "t": 42797.15999999999,
      "d": 375.87374999999884,
      "v": 104
    },
    {
      "midi": 31,
      "hit": false,
      "t": 42797.16000000001,
      "d": 472.0274999999965,
      "v": 92
    },
    {
      "midi": 61,
      "hit": false,
      "t": 42810.27187500004,
      "d": 170.45437500000116,
      "v": 57
    },
    {
      "midi": 64,
      "hit": false,
      "t": 43006.949999999975,
      "d": 4.370625000003201,
      "v": 45
    },
    {
      "midi": 52,
      "hit": false,
      "t": 43006.949999999975,
      "d": 174.8249999999971,
      "v": 45
    },
    {
      "midi": 55,
      "hit": false,
      "t": 43006.949999999975,
      "d": 218.53125,
      "v": 41
    },
    {
      "midi": 62,
      "hit": false,
      "t": 43006.95000000009,
      "d": 4.370625000003201,
      "v": 95
    },
    {
      "midi": 52,
      "hit": false,
      "t": 43011.320625000044,
      "d": 585.6637499999997,
      "v": 67
    },
    {
      "midi": 61,
      "hit": false,
      "t": 43015.69125000005,
      "d": 585.6637499999997,
      "v": 67
    },
    {
      "midi": 64,
      "hit": false,
      "t": 43015.69125000005,
      "d": 585.6637499999997,
      "v": 55
    },
    {
      "midi": 55,
      "hit": false,
      "t": 43020.06187500005,
      "d": 585.6637499999997,
      "v": 67
    },
    {
      "midi": 71,
      "hit": false,
      "t": 43216.73999999999,
      "d": 375.87374999999884,
      "v": 104
    },
    {
      "midi": 64,
      "hit": false,
      "t": 43216.74000000009,
      "d": 4.370625000003201,
      "v": 47
    },
    {
      "midi": 55,
      "hit": false,
      "t": 43426.529999999955,
      "d": 187.93687499999942,
      "v": 104
    },
    {
      "midi": 57,
      "hit": false,
      "t": 43426.529999999955,
      "d": 187.93687499999942,
      "v": 104
    },
    {
      "midi": 61,
      "hit": false,
      "t": 43426.529999999955,
      "d": 187.93687499999942,
      "v": 104
    },
    {
      "midi": 55,
      "hit": false,
      "t": 43426.52999999998,
      "d": 113.63624999999593,
      "v": 44
    },
    {
      "midi": 52,
      "hit": false,
      "t": 43426.52999999998,
      "d": 288.4612500000003,
      "v": 41
    },
    {
      "midi": 31,
      "hit": false,
      "t": 43426.530000000006,
      "d": 100.52437500000087,
      "v": 99
    },
    {
      "midi": 64,
      "hit": false,
      "t": 43430.9006250001,
      "d": 4.370625000003201,
      "v": 96
    },
    {
      "midi": 64,
      "hit": false,
      "t": 43435.271249999976,
      "d": 113.63624999999593,
      "v": 36
    },
    {
      "midi": 50,
      "hit": false,
      "t": 43636.319999999956,
      "d": 375.87374999999884,
      "v": 104
    },
    {
      "midi": 54,
      "hit": false,
      "t": 43636.319999999956,
      "d": 375.87374999999884,
      "v": 104
    },
    {
      "midi": 57,
      "hit": false,
      "t": 43636.319999999956,
      "d": 375.87374999999884,
      "v": 104
    },
    {
      "midi": 73,
      "hit": false,
      "t": 43636.31999999999,
      "d": 375.87374999999884,
      "v": 104
    },
    {
      "midi": 38,
      "hit": false,
      "t": 43636.32000000001,
      "d": 423.9506249999977,
      "v": 99
    },
    {
      "midi": 38,
      "hit": false,
      "t": 43636.32000000005,
      "d": 196.67812499999854,
      "v": 58
    },
    {
      "midi": 50,
      "hit": false,
      "t": 43640.690624999974,
      "d": 568.1812500000015,
      "v": 62
    },
    {
      "midi": 66,
      "hit": false,
      "t": 43645.06124999998,
      "d": 122.37750000000233,
      "v": 46
    },
    {
      "midi": 61,
      "hit": false,
      "t": 43645.06124999998,
      "d": 201.04875000000175,
      "v": 57
    },
    {
      "midi": 64,
      "hit": false,
      "t": 43850.4806250001,
      "d": 4.370625000003201,
      "v": 55
    },
    {
      "midi": 61,
      "hit": false,
      "t": 43854.85124999998,
      "d": 104.8949999999968,
      "v": 24
    },
    {
      "midi": 38,
      "hit": false,
      "t": 43854.85125000005,
      "d": 1459.7887500000143,
      "v": 64
    },
    {
      "midi": 61,
      "hit": false,
      "t": 44055.89999999997,
      "d": 244.75500000000466,
      "v": 56
    },
    {
      "midi": 66,
      "hit": false,
      "t": 44055.89999999997,
      "d": 288.46125000000757,
      "v": 56
    },
    {
      "midi": 74,
      "hit": false,
      "t": 44055.899999999994,
      "d": 187.93687499999942,
      "v": 104
    },
    {
      "midi": 49,
      "hit": false,
      "t": 44055.90000000005,
      "d": 91.78312500000902,
      "v": 67
    },
    {
      "midi": 57,
      "hit": false,
      "t": 44055.90000000005,
      "d": 91.78312500000902,
      "v": 67
    },
    {
      "midi": 54,
      "hit": false,
      "t": 44060.270625000056,
      "d": 104.89500000000407,
      "v": 66
    },
    {
      "midi": 63,
      "hit": false,
      "t": 44060.2706250001,
      "d": 4.370625000003201,
      "v": 86
    },
    {
      "midi": 69,
      "hit": false,
      "t": 44064.64125000006,
      "d": 74.30062500000349,
      "v": 67
    },
    {
      "midi": 54,
      "hit": false,
      "t": 44265.68999999995,
      "d": 187.93687499999942,
      "v": 104
    },
    {
      "midi": 57,
      "hit": false,
      "t": 44265.68999999995,
      "d": 187.93687499999942,
      "v": 104
    },
    {
      "midi": 61,
      "hit": false,
      "t": 44265.68999999995,
      "d": 187.93687499999942,
      "v": 104
    },
    {
      "midi": 73,
      "hit": false,
      "t": 44265.689999999995,
      "d": 375.87374999999884,
      "v": 104
    },
    {
      "midi": 38,
      "hit": false,
      "t": 44265.69,
      "d": 91.78312500000175,
      "v": 99
    },
    {
      "midi": 57,
      "hit": false,
      "t": 44270.06062499998,
      "d": 375.8737500000061,
      "v": 38
    },
    {
      "midi": 54,
      "hit": false,
      "t": 44475.47999999995,
      "d": 375.87374999999884,
      "v": 104
    },
    {
      "midi": 57,
      "hit": false,
      "t": 44475.47999999995,
      "d": 375.87374999999884,
      "v": 104
    },
    {
      "midi": 61,
      "hit": false,
      "t": 44475.47999999995,
      "d": 375.87374999999884,
      "v": 104
    },
    {
      "midi": 50,
      "hit": false,
      "t": 44475.47999999998,
      "d": 236.01375000000553,
      "v": 51
    },
    {
      "midi": 38,
      "hit": false,
      "t": 44475.48,
      "d": 415.20937499999854,
      "v": 99
    },
    {
      "midi": 66,
      "hit": false,
      "t": 44685.26999999998,
      "d": 821.6775000000052,
      "v": 43
    },
    {
      "midi": 74,
      "hit": false,
      "t": 44685.27,
      "d": 375.87374999999884,
      "v": 104
    },
    {
      "midi": 54,
      "hit": false,
      "t": 44685.27000000006,
      "d": 388.98562500000116,
      "v": 67
    },
    {
      "midi": 57,
      "hit": false,
      "t": 44685.27000000006,
      "d": 388.98562500000116,
      "v": 67
    },
    {
      "midi": 57,
      "hit": false,
      "t": 44689.640624999985,
      "d": 288.4612500000003,
      "v": 43
    },
    {
      "midi": 49,
      "hit": false,
      "t": 44689.640625000065,
      "d": 388.98562500000116,
      "v": 67
    },
    {
      "midi": 69,
      "hit": false,
      "t": 44689.640625000065,
      "d": 388.98562500000116,
      "v": 67
    },
    {
      "midi": 62,
      "hit": false,
      "t": 44689.6406250001,
      "d": 4.370625000003201,
      "v": 92
    },
    {
      "midi": 64,
      "hit": false,
      "t": 44895.06000000011,
      "d": 4.370625000003201,
      "v": 86
    },
    {
      "midi": 54,
      "hit": false,
      "t": 45104.84999999995,
      "d": 187.93687499999942,
      "v": 104
    },
    {
      "midi": 57,
      "hit": false,
      "t": 45104.84999999995,
      "d": 187.93687499999942,
      "v": 104
    },
    {
      "midi": 61,
      "hit": false,
      "t": 45104.84999999995,
      "d": 187.93687499999942,
      "v": 104
    },
    {
      "midi": 61,
      "hit": false,
      "t": 45104.849999999984,
      "d": 135.48937500000466,
      "v": 33
    },
    {
      "midi": 74,
      "hit": false,
      "t": 45104.85,
      "d": 187.93687499999942,
      "v": 104
    },
    {
      "midi": 38,
      "hit": false,
      "t": 45104.85,
      "d": 91.78312500000175,
      "v": 99
    },
    {
      "midi": 49,
      "hit": false,
      "t": 45104.850000000064,
      "d": 170.45437500000116,
      "v": 63
    },
    {
      "midi": 57,
      "hit": false,
      "t": 45109.22062499999,
      "d": 113.6362500000032,
      "v": 31
    },
    {
      "midi": 64,
      "hit": false,
      "t": 45109.22062500011,
      "d": 4.370625000003201,
      "v": 92
    },
    {
      "midi": 49,
      "hit": false,
      "t": 45314.63999999995,
      "d": 375.87374999999884,
      "v": 104
    },
    {
      "midi": 56,
      "hit": false,
      "t": 45314.63999999995,
      "d": 375.87374999999884,
      "v": 104
    },
    {
      "midi": 49,
      "hit": false,
      "t": 45314.639999999985,
      "d": 83.04187500000262,
      "v": 61
    },
    {
      "midi": 56,
      "hit": false,
      "t": 45314.639999999985,
      "d": 83.04187500000262,
      "v": 61
    },
    {
      "midi": 64,
      "hit": false,
      "t": 45314.639999999985,
      "d": 96.15375000000495,
      "v": 61
    },
    {
      "midi": 76,
      "hit": false,
      "t": 45314.64,
      "d": 751.7474999999977,
      "v": 104
    },
    {
      "midi": 37,
      "hit": false,
      "t": 45314.64,
      "d": 419.58000000000175,
      "v": 99
    },
    {
      "midi": 52,
      "hit": false,
      "t": 45314.640000000065,
      "d": 170.45437500000116,
      "v": 55
    },
    {
      "midi": 56,
      "hit": false,
      "t": 45314.640000000065,
      "d": 170.45437500000116,
      "v": 63
    },
    {
      "midi": 61,
      "hit": false,
      "t": 45314.640000000065,
      "d": 170.45437500000116,
      "v": 59
    },
    {
      "midi": 37,
      "hit": false,
      "t": 45314.640000000065,
      "d": 839.1600000000035,
      "v": 64
    },
    {
      "midi": 68,
      "hit": false,
      "t": 45319.01062500007,
      "d": 170.45437500000116,
      "v": 59
    },
    {
      "midi": 56,
      "hit": false,
      "t": 45734.21999999999,
      "d": 201.04875000000175,
      "v": 57
    },
    {
      "midi": 56,
      "hit": false,
      "t": 45738.59062500007,
      "d": 380.24437500000204,
      "v": 59
    },
    {
      "midi": 61,
      "hit": false,
      "t": 45738.59062500007,
      "d": 380.24437500000204,
      "v": 63
    },
    {
      "midi": 68,
      "hit": false,
      "t": 45738.59062500007,
      "d": 380.24437500000204,
      "v": 59
    },
    {
      "midi": 63,
      "hit": false,
      "t": 45738.59062500011,
      "d": 4.370625000003201,
      "v": 86
    },
    {
      "midi": 64,
      "hit": false,
      "t": 45742.961249999986,
      "d": 78.67124999999942,
      "v": 64
    },
    {
      "midi": 52,
      "hit": false,
      "t": 45747.33187500007,
      "d": 380.24437500000204,
      "v": 61
    },
    {
      "midi": 49,
      "hit": false,
      "t": 45939.63937499999,
      "d": 139.86000000000058,
      "v": 23
    },
    {
      "midi": 49,
      "hit": false,
      "t": 45944.009999999944,
      "d": 187.93687499999942,
      "v": 104
    },
    {
      "midi": 56,
      "hit": false,
      "t": 45944.009999999944,
      "d": 187.93687499999942,
      "v": 104
    },
    {
      "midi": 37,
      "hit": false,
      "t": 45944.01,
      "d": 100.52437500000087,
      "v": 95
    },
    {
      "midi": 63,
      "hit": false,
      "t": 45948.380625000114,
      "d": 4.370625000003201,
      "v": 42
    },
    {
      "midi": 53,
      "hit": false,
      "t": 46153.799999999945,
      "d": 375.87374999999884,
      "v": 104
    },
    {
      "midi": 56,
      "hit": false,
      "t": 46153.799999999945,
      "d": 375.87374999999884,
      "v": 104
    },
    {
      "midi": 74,
      "hit": false,
      "t": 46153.799999999996,
      "d": 563.8106249999983,
      "v": 104
    },
    {
      "midi": 56,
      "hit": false,
      "t": 46153.799999999996,
      "d": 209.7899999999936,
      "v": 54
    },
    {
      "midi": 29,
      "hit": false,
      "t": 46153.8,
      "d": 472.0274999999965,
      "v": 92
    },
    {
      "midi": 41,
      "hit": false,
      "t": 46153.80000000007,
      "d": 694.929375000007,
      "v": 64
    },
    {
      "midi": 59,
      "hit": false,
      "t": 46166.91187500007,
      "d": 170.45437500000116,
      "v": 57
    },
    {
      "midi": 65,
      "hit": false,
      "t": 46363.58999999999,
      "d": 4.370625000003201,
      "v": 45
    },
    {
      "midi": 49,
      "hit": false,
      "t": 46363.58999999999,
      "d": 174.8249999999971,
      "v": 45
    },
    {
      "midi": 56,
      "hit": false,
      "t": 46363.58999999999,
      "d": 218.53125,
      "v": 41
    },
    {
      "midi": 62,
      "hit": false,
      "t": 46363.59000000012,
      "d": 4.370625000003201,
      "v": 95
    },
    {
      "midi": 53,
      "hit": false,
      "t": 46367.96062500007,
      "d": 585.6637499999997,
      "v": 67
    },
    {
      "midi": 59,
      "hit": false,
      "t": 46372.331250000076,
      "d": 585.6637499999997,
      "v": 67
    },
    {
      "midi": 68,
      "hit": false,
      "t": 46372.331250000076,
      "d": 585.6637499999997,
      "v": 55
    },
    {
      "midi": 56,
      "hit": false,
      "t": 46376.70187500008,
      "d": 585.6637499999997,
      "v": 67
    },
    {
      "midi": 64,
      "hit": false,
      "t": 46573.38000000012,
      "d": 4.370625000003201,
      "v": 47
    },
    {
      "midi": 53,
      "hit": false,
      "t": 46783.16999999994,
      "d": 187.93687499999942,
      "v": 104
    },
    {
      "midi": 56,
      "hit": false,
      "t": 46783.16999999994,
      "d": 187.93687499999942,
      "v": 104
    },
    {
      "midi": 73,
      "hit": false,
      "t": 46783.16999999999,
      "d": 563.8106249999983,
      "v": 104
    },
    {
      "midi": 56,
      "hit": false,
      "t": 46783.16999999999,
      "d": 113.63624999999593,
      "v": 44
    },
    {
      "midi": 29,
      "hit": false,
      "t": 46783.17,
      "d": 100.52437500000087,
      "v": 99
    },
    {
      "midi": 64,
      "hit": false,
      "t": 46787.540625000125,
      "d": 4.370625000003201,
      "v": 96
    },
    {
      "midi": 65,
      "hit": false,
      "t": 46791.91124999999,
      "d": 113.63624999999593,
      "v": 36
    },
    {
      "midi": 54,
      "hit": false,
      "t": 46992.95999999994,
      "d": 375.87374999999884,
      "v": 104
    },
    {
      "midi": 57,
      "hit": false,
      "t": 46992.95999999994,
      "d": 375.87374999999884,
      "v": 104
    },
    {
      "midi": 30,
      "hit": false,
      "t": 46992.96,
      "d": 423.9506249999977,
      "v": 99
    },
    {
      "midi": 42,
      "hit": false,
      "t": 46992.96000000008,
      "d": 170.45437500000116,
      "v": 58
    },
    {
      "midi": 49,
      "hit": false,
      "t": 46997.33062499999,
      "d": 74.30062500000349,
      "v": 62
    },
    {
      "midi": 66,
      "hit": false,
      "t": 47001.70124999999,
      "d": 122.37750000000233,
      "v": 46
    },
    {
      "midi": 61,
      "hit": false,
      "t": 47001.70124999999,
      "d": 201.04875000000175,
      "v": 57
    },
    {
      "midi": 57,
      "hit": false,
      "t": 47207.120624999996,
      "d": 375.87374999999884,
      "v": 38
    },
    {
      "midi": 64,
      "hit": false,
      "t": 47207.12062500013,
      "d": 4.370625000003201,
      "v": 55
    },
    {
      "midi": 42,
      "hit": false,
      "t": 47211.49125000008,
      "d": 1249.9987500000134,
      "v": 64
    },
    {
      "midi": 85,
      "hit": false,
      "t": 47412.539999999986,
      "d": 187.93687499999942,
      "v": 104
    },
    {
      "midi": 61,
      "hit": false,
      "t": 47412.53999999999,
      "d": 244.75499999999738,
      "v": 64
    },
    {
      "midi": 66,
      "hit": false,
      "t": 47412.53999999999,
      "d": 288.4612500000003,
      "v": 72
    },
    {
      "midi": 49,
      "hit": false,
      "t": 47412.54000000008,
      "d": 91.78312500000902,
      "v": 59
    },
    {
      "midi": 57,
      "hit": false,
      "t": 47412.54000000008,
      "d": 91.78312500000902,
      "v": 52
    },
    {
      "midi": 54,
      "hit": false,
      "t": 47416.910625000084,
      "d": 104.89500000000407,
      "v": 48
    },
    {
      "midi": 63,
      "hit": false,
      "t": 47416.91062500013,
      "d": 4.370625000003201,
      "v": 86
    },
    {
      "midi": 66,
      "hit": false,
      "t": 47421.28125000009,
      "d": 74.30062500000349,
      "v": 62
    },
    {
      "midi": 62,
      "hit": false,
      "t": 47517.43500000013,
      "d": 4.370625000003201,
      "v": 72
    },
    {
      "midi": 54,
      "hit": false,
      "t": 47622.329999999936,
      "d": 187.93687499999942,
      "v": 104
    },
    {
      "midi": 57,
      "hit": false,
      "t": 47622.329999999936,
      "d": 187.93687499999942,
      "v": 104
    },
    {
      "midi": 83,
      "hit": false,
      "t": 47622.32999999999,
      "d": 187.93687499999942,
      "v": 104
    },
    {
      "midi": 30,
      "hit": false,
      "t": 47622.329999999994,
      "d": 91.78312500000175,
      "v": 99
    },
    {
      "midi": 49,
      "hit": false,
      "t": 47622.329999999994,
      "d": 279.7199999999939,
      "v": 44
    },
    {
      "midi": 45,
      "hit": false,
      "t": 47622.33000000009,
      "d": 170.45437500000116,
      "v": 68
    },
    {
      "midi": 63,
      "hit": false,
      "t": 47626.70062500013,
      "d": 4.370625000003201,
      "v": 86
    },
    {
      "midi": 54,
      "hit": false,
      "t": 47832.11999999994,
      "d": 375.87374999999884,
      "v": 104
    },
    {
      "midi": 57,
      "hit": false,
      "t": 47832.11999999994,
      "d": 375.87374999999884,
      "v": 104
    },
    {
      "midi": 85,
      "hit": false,
      "t": 47832.11999999999,
      "d": 375.87374999999884,
      "v": 104
    },
    {
      "midi": 30,
      "hit": false,
      "t": 47832.119999999995,
      "d": 415.20937499999854,
      "v": 99
    },
    {
      "midi": 49,
      "hit": false,
      "t": 47832.12000000009,
      "d": 170.45437500000116,
      "v": 63
    },
    {
      "midi": 57,
      "hit": false,
      "t": 47836.49062499999,
      "d": 240.38437499999418,
      "v": 60
    },
    {
      "midi": 66,
      "hit": false,
      "t": 48041.90999999999,
      "d": 603.146249999998,
      "v": 56
    },
    {
      "midi": 54,
      "hit": false,
      "t": 48041.91000000009,
      "d": 388.98562500000116,
      "v": 48
    },
    {
      "midi": 57,
      "hit": false,
      "t": 48041.91000000009,
      "d": 388.98562500000116,
      "v": 59
    },
    {
      "midi": 49,
      "hit": false,
      "t": 48046.280625000094,
      "d": 388.98562500000116,
      "v": 67
    },
    {
      "midi": 66,
      "hit": false,
      "t": 48046.280625000094,
      "d": 388.98562500000116,
      "v": 67
    },
    {
      "midi": 64,
      "hit": false,
      "t": 48046.28062500013,
      "d": 4.370625000003201,
      "v": 92
    },
    {
      "midi": 86,
      "hit": false,
      "t": 48251.69999999999,
      "d": 187.93687499999942,
      "v": 104
    },
    {
      "midi": 63,
      "hit": false,
      "t": 48251.700000000135,
      "d": 4.370625000003201,
      "v": 86
    },
    {
      "midi": 54,
      "hit": false,
      "t": 48461.48999999993,
      "d": 187.93687499999942,
      "v": 104
    },
    {
      "midi": 57,
      "hit": false,
      "t": 48461.48999999993,
      "d": 187.93687499999942,
      "v": 104
    },
    {
      "midi": 61,
      "hit": false,
      "t": 48461.48999999998,
      "d": 183.5662500000035,
      "v": 56
    },
    {
      "midi": 55,
      "hit": false,
      "t": 48461.48999999998,
      "d": 187.9368750000067,
      "v": 37
    },
    {
      "midi": 52,
      "hit": false,
      "t": 48461.48999999998,
      "d": 201.04875000000902,
      "v": 35
    },
    {
      "midi": 64,
      "hit": false,
      "t": 48461.48999999998,
      "d": 218.53125000000728,
      "v": 56
    },
    {
      "midi": 88,
      "hit": false,
      "t": 48461.48999999999,
      "d": 375.87374999999884,
      "v": 104
    },
    {
      "midi": 31,
      "hit": false,
      "t": 48461.48999999999,
      "d": 91.78312500000175,
      "v": 99
    },
    {
      "midi": 43,
      "hit": false,
      "t": 48461.49000000009,
      "d": 65.55937499999709,
      "v": 64
    },
    {
      "midi": 63,
      "hit": false,
      "t": 48465.86062500014,
      "d": 4.370625000003201,
      "v": 92
    },
    {
      "midi": 55,
      "hit": false,
      "t": 48671.27999999993,
      "d": 375.87374999999884,
      "v": 104
    },
    {
      "midi": 57,
      "hit": false,
      "t": 48671.27999999993,
      "d": 375.87374999999884,
      "v": 104
    },
    {
      "midi": 61,
      "hit": false,
      "t": 48671.27999999993,
      "d": 375.87374999999884,
      "v": 104
    },
    {
      "midi": 31,
      "hit": false,
      "t": 48671.27999999999,
      "d": 187.93687499999942,
      "v": 99
    },
    {
      "midi": 52,
      "hit": false,
      "t": 48671.27999999999,
      "d": 83.04187499999534,
      "v": 61
    },
    {
      "midi": 43,
      "hit": false,
      "t": 48671.280000000086,
      "d": 196.67812499999854,
      "v": 58
    },
    {
      "midi": 62,
      "hit": false,
      "t": 48680.02125000014,
      "d": 4.370625000003201,
      "v": 62
    },
    {
      "midi": 52,
      "hit": false,
      "t": 48881.069999999985,
      "d": 253.4962499999965,
      "v": 48
    },
    {
      "midi": 86,
      "hit": false,
      "t": 48881.06999999999,
      "d": 375.87374999999884,
      "v": 104
    },
    {
      "midi": 82,
      "hit": false,
      "t": 48885.44062500015,
      "d": 30.594375000000582,
      "v": 81
    },
    {
      "midi": 55,
      "hit": false,
      "t": 49090.859999999986,
      "d": 1083.9149999999936,
      "v": 57
    },
    {
      "midi": 31,
      "hit": false,
      "t": 49090.85999999999,
      "d": 808.5656250000029,
      "v": 98
    },
    {
      "midi": 61,
      "hit": false,
      "t": 49090.860000000146,
      "d": 4.370625000003201,
      "v": 85
    },
    {
      "midi": 63,
      "hit": false,
      "t": 49095.23062500015,
      "d": 4.370625000003201,
      "v": 86
    },
    {
      "midi": 82,
      "hit": false,
      "t": 49095.23062500015,
      "d": 30.594375000000582,
      "v": 82
    },
    {
      "midi": 61,
      "hit": false,
      "t": 49099.601249999985,
      "d": 1354.8937499999956,
      "v": 78
    },
    {
      "midi": 55,
      "hit": false,
      "t": 49099.60125000009,
      "d": 607.5168750000012,
      "v": 57
    },
    {
      "midi": 61,
      "hit": false,
      "t": 49099.60125000009,
      "d": 607.5168750000012,
      "v": 57
    },
    {
      "midi": 64,
      "hit": false,
      "t": 49103.97187500009,
      "d": 607.5168750000012,
      "v": 57
    },
    {
      "midi": 64,
      "hit": false,
      "t": 49108.342499999984,
      "d": 1346.1524999999965,
      "v": 64
    },
    {
      "midi": 55,
      "hit": false,
      "t": 49300.64999999993,
      "d": 187.93687499999942,
      "v": 104
    },
    {
      "midi": 57,
      "hit": false,
      "t": 49300.64999999993,
      "d": 187.93687499999942,
      "v": 104
    },
    {
      "midi": 61,
      "hit": false,
      "t": 49300.64999999993,
      "d": 187.93687499999942,
      "v": 104
    },
    {
      "midi": 85,
      "hit": false,
      "t": 49300.649999999994,
      "d": 187.93687499999942,
      "v": 104
    },
    {
      "midi": 55,
      "hit": false,
      "t": 49510.43999999993,
      "d": 375.87374999999884,
      "v": 104
    },
    {
      "midi": 57,
      "hit": false,
      "t": 49510.43999999993,
      "d": 375.87374999999884,
      "v": 104
    },
    {
      "midi": 61,
      "hit": false,
      "t": 49510.43999999993,
      "d": 375.87374999999884,
      "v": 104
    },
    {
      "midi": 83,
      "hit": false,
      "t": 49510.439999999995,
      "d": 375.87374999999884,
      "v": 104
    },
    {
      "midi": 62,
      "hit": false,
      "t": 49724.60062500015,
      "d": 4.370625000003201,
      "v": 99
    },
    {
      "midi": 69,
      "hit": false,
      "t": 49930.02,
      "d": 375.87374999999884,
      "v": 104
    },
    {
      "midi": 31,
      "hit": false,
      "t": 49930.02,
      "d": 388.98562500000116,
      "v": 99
    },
    {
      "midi": 61,
      "hit": false,
      "t": 49930.02000000016,
      "d": 4.370625000003201,
      "v": 85
    },
    {
      "midi": 64,
      "hit": false,
      "t": 49934.390625000095,
      "d": 69.93000000000757,
      "v": 66
    },
    {
      "midi": 52,
      "hit": false,
      "t": 49938.7612500001,
      "d": 52.44750000000204,
      "v": 66
    },
    {
      "midi": 61,
      "hit": false,
      "t": 49938.7612500001,
      "d": 61.188750000001164,
      "v": 66
    },
    {
      "midi": 64,
      "hit": false,
      "t": 49938.76125000016,
      "d": 4.370625000003201,
      "v": 86
    },
    {
      "midi": 55,
      "hit": false,
      "t": 50139.809999999925,
      "d": 187.93687499999942,
      "v": 104
    },
    {
      "midi": 57,
      "hit": false,
      "t": 50139.809999999925,
      "d": 187.93687499999942,
      "v": 104
    },
    {
      "midi": 61,
      "hit": false,
      "t": 50139.809999999925,
      "d": 187.93687499999942,
      "v": 104
    },
    {
      "midi": 64,
      "hit": false,
      "t": 50139.810000000165,
      "d": 4.370625000003201,
      "v": 65
    },
    {
      "midi": 50,
      "hit": false,
      "t": 50349.599999999926,
      "d": 375.87374999999884,
      "v": 104
    },
    {
      "midi": 54,
      "hit": false,
      "t": 50349.599999999926,
      "d": 375.87374999999884,
      "v": 104
    },
    {
      "midi": 57,
      "hit": false,
      "t": 50349.599999999926,
      "d": 375.87374999999884,
      "v": 104
    },
    {
      "midi": 78,
      "hit": false,
      "t": 50349.6,
      "d": 1131.9918749999997,
      "v": 104
    },
    {
      "midi": 38,
      "hit": false,
      "t": 50349.6,
      "d": 423.9506249999977,
      "v": 99
    },
    {
      "midi": 38,
      "hit": false,
      "t": 50349.6000000001,
      "d": 196.67812500000582,
      "v": 58
    },
    {
      "midi": 50,
      "hit": false,
      "t": 50353.97062499998,
      "d": 568.1812499999942,
      "v": 62
    },
    {
      "midi": 57,
      "hit": false,
      "t": 50353.9706250001,
      "d": 196.67812500000582,
      "v": 61
    },
    {
      "midi": 66,
      "hit": false,
      "t": 50358.34124999998,
      "d": 122.37749999999505,
      "v": 46
    },
    {
      "midi": 62,
      "hit": false,
      "t": 50358.34124999998,
      "d": 201.04874999999447,
      "v": 57
    },
    {
      "midi": 64,
      "hit": false,
      "t": 50563.76062500016,
      "d": 4.370625000003201,
      "v": 55
    },
    {
      "midi": 62,
      "hit": false,
      "t": 50568.13124999998,
      "d": 104.8949999999968,
      "v": 24
    },
    {
      "midi": 38,
      "hit": false,
      "t": 50568.13125000011,
      "d": 1459.7887500000288,
      "v": 64
    },
    {
      "midi": 57,
      "hit": false,
      "t": 50764.809375000106,
      "d": 375.8737500000061,
      "v": 67
    },
    {
      "midi": 62,
      "hit": false,
      "t": 50769.17999999997,
      "d": 244.75500000000466,
      "v": 56
    },
    {
      "midi": 66,
      "hit": false,
      "t": 50769.17999999997,
      "d": 288.46125000000757,
      "v": 56
    },
    {
      "midi": 66,
      "hit": false,
      "t": 50769.18000000011,
      "d": 375.8737500000061,
      "v": 67
    },
    {
      "midi": 62,
      "hit": false,
      "t": 50773.55062500011,
      "d": 375.8737500000061,
      "v": 67
    },
    {
      "midi": 63,
      "hit": false,
      "t": 50773.55062500016,
      "d": 4.370625000003201,
      "v": 86
    },
    {
      "midi": 50,
      "hit": false,
      "t": 50978.96999999992,
      "d": 187.93687499999942,
      "v": 104
    },
    {
      "midi": 54,
      "hit": false,
      "t": 50978.96999999992,
      "d": 187.93687499999942,
      "v": 104
    },
    {
      "midi": 57,
      "hit": false,
      "t": 50978.96999999992,
      "d": 187.93687499999942,
      "v": 104
    },
    {
      "midi": 38,
      "hit": false,
      "t": 50978.969999999994,
      "d": 91.78312500000175,
      "v": 99
    },
    {
      "midi": 50,
      "hit": false,
      "t": 50978.97000000011,
      "d": 166.08375000000524,
      "v": 55
    },
    {
      "midi": 57,
      "hit": false,
      "t": 50983.340624999975,
      "d": 375.8737500000061,
      "v": 38
    },
    {
      "midi": 50,
      "hit": false,
      "t": 51188.75999999992,
      "d": 375.87374999999884,
      "v": 104
    },
    {
      "midi": 54,
      "hit": false,
      "t": 51188.75999999992,
      "d": 375.87374999999884,
      "v": 104
    },
    {
      "midi": 57,
      "hit": false,
      "t": 51188.75999999992,
      "d": 375.87374999999884,
      "v": 104
    },
    {
      "midi": 50,
      "hit": false,
      "t": 51188.75999999998,
      "d": 236.01375000000553,
      "v": 51
    },
    {
      "midi": 38,
      "hit": false,
      "t": 51188.759999999995,
      "d": 415.20937499999854,
      "v": 99
    },
    {
      "midi": 57,
      "hit": false,
      "t": 51394.179375000116,
      "d": 166.08375000000524,
      "v": 67
    },
    {
      "midi": 66,
      "hit": false,
      "t": 51398.54999999998,
      "d": 821.6775000000052,
      "v": 43
    },
    {
      "midi": 50,
      "hit": false,
      "t": 51398.55000000012,
      "d": 166.08375000000524,
      "v": 55
    },
    {
      "midi": 66,
      "hit": false,
      "t": 51398.55000000012,
      "d": 166.08375000000524,
      "v": 67
    },
    {
      "midi": 57,
      "hit": false,
      "t": 51402.920624999984,
      "d": 288.4612500000003,
      "v": 43
    },
    {
      "midi": 62,
      "hit": false,
      "t": 51402.92062500012,
      "d": 166.08375000000524,
      "v": 67
    },
    {
      "midi": 62,
      "hit": false,
      "t": 51402.920625000166,
      "d": 4.370625000003201,
      "v": 92
    },
    {
      "midi": 69,
      "hit": false,
      "t": 51608.34,
      "d": 375.87374999999884,
      "v": 104
    },
    {
      "midi": 62,
      "hit": false,
      "t": 51608.34000000013,
      "d": 170.45437500000116,
      "v": 64
    },
    {
      "midi": 64,
      "hit": false,
      "t": 51608.34000000017,
      "d": 4.370625000003201,
      "v": 86
    },
    {
      "midi": 50,
      "hit": false,
      "t": 51818.12999999992,
      "d": 187.93687499999942,
      "v": 104
    },
    {
      "midi": 54,
      "hit": false,
      "t": 51818.12999999992,
      "d": 187.93687499999942,
      "v": 104
    },
    {
      "midi": 57,
      "hit": false,
      "t": 51818.12999999992,
      "d": 187.93687499999942,
      "v": 104
    },
    {
      "midi": 62,
      "hit": false,
      "t": 51818.12999999998,
      "d": 135.48937500000466,
      "v": 33
    },
    {
      "midi": 38,
      "hit": false,
      "t": 51818.12999999999,
      "d": 91.78312500000175,
      "v": 99
    },
    {
      "midi": 57,
      "hit": false,
      "t": 51822.500624999986,
      "d": 113.6362500000032,
      "v": 31
    },
    {
      "midi": 57,
      "hit": false,
      "t": 51822.50062500013,
      "d": 170.45437500000116,
      "v": 55
    },
    {
      "midi": 64,
      "hit": false,
      "t": 51822.500625000175,
      "d": 4.370625000003201,
      "v": 92
    },
    {
      "midi": 57,
      "hit": false,
      "t": 52023.54937500013,
      "d": 4.370625000003201,
      "v": 51
    },
    {
      "midi": 66,
      "hit": false,
      "t": 52023.54937500013,
      "d": 4.370625000003201,
      "v": 57
    },
    {
      "midi": 50,
      "hit": false,
      "t": 52027.91999999992,
      "d": 375.87374999999884,
      "v": 104
    },
    {
      "midi": 52,
      "hit": false,
      "t": 52027.91999999992,
      "d": 375.87374999999884,
      "v": 104
    },
    {
      "midi": 56,
      "hit": false,
      "t": 52027.91999999992,
      "d": 375.87374999999884,
      "v": 104
    },
    {
      "midi": 59,
      "hit": false,
      "t": 52027.91999999992,
      "d": 375.87374999999884,
      "v": 104
    },
    {
      "midi": 38,
      "hit": false,
      "t": 52027.91999999999,
      "d": 419.58000000000175,
      "v": 99
    },
    {
      "midi": 68,
      "hit": false,
      "t": 52027.92,
      "d": 751.7474999999977,
      "v": 104
    },
    {
      "midi": 59,
      "hit": false,
      "t": 52027.92000000014,
      "d": 104.89500000000407,
      "v": 57
    },
    {
      "midi": 38,
      "hit": false,
      "t": 52027.92000000014,
      "d": 1534.0893750000178,
      "v": 64
    },
    {
      "midi": 47,
      "hit": false,
      "t": 52032.29062499999,
      "d": 135.48937499999738,
      "v": 71
    },
    {
      "midi": 47,
      "hit": false,
      "t": 52036.661250000136,
      "d": 74.30062500000349,
      "v": 59
    },
    {
      "midi": 59,
      "hit": false,
      "t": 52237.709999999985,
      "d": 550.6987500000105,
      "v": 26
    },
    {
      "midi": 64,
      "hit": false,
      "t": 52246.45124999999,
      "d": 131.11875000000146,
      "v": 38
    },
    {
      "midi": 56,
      "hit": false,
      "t": 52443.12937500014,
      "d": 616.2581250000076,
      "v": 67
    },
    {
      "midi": 64,
      "hit": false,
      "t": 52443.12937500014,
      "d": 616.2581250000076,
      "v": 67
    },
    {
      "midi": 59,
      "hit": false,
      "t": 52447.500000000146,
      "d": 616.2581250000076,
      "v": 66
    },
    {
      "midi": 56,
      "hit": false,
      "t": 52451.870624999996,
      "d": 43.70625000000291,
      "v": 65
    },
    {
      "midi": 63,
      "hit": false,
      "t": 52451.87062500018,
      "d": 4.370625000003201,
      "v": 86
    },
    {
      "midi": 47,
      "hit": false,
      "t": 52456.241250000145,
      "d": 598.775625000002,
      "v": 67
    },
    {
      "midi": 50,
      "hit": false,
      "t": 52657.28999999991,
      "d": 187.93687499999942,
      "v": 104
    },
    {
      "midi": 52,
      "hit": false,
      "t": 52657.28999999991,
      "d": 187.93687499999942,
      "v": 104
    },
    {
      "midi": 56,
      "hit": false,
      "t": 52657.28999999991,
      "d": 187.93687499999942,
      "v": 104
    },
    {
      "midi": 59,
      "hit": false,
      "t": 52657.28999999991,
      "d": 187.93687499999942,
      "v": 104
    },
    {
      "midi": 38,
      "hit": false,
      "t": 52657.28999999999,
      "d": 100.52437500000087,
      "v": 95
    },
    {
      "midi": 56,
      "hit": false,
      "t": 52661.660625,
      "d": 13.111875000002328,
      "v": 45
    },
    {
      "midi": 63,
      "hit": false,
      "t": 52661.66062500018,
      "d": 4.370625000003201,
      "v": 42
    },
    {
      "midi": 68,
      "hit": false,
      "t": 52666.03125,
      "d": 222.90187499999593,
      "v": 40
    },
    {
      "midi": 50,
      "hit": false,
      "t": 52867.079999999914,
      "d": 375.87374999999884,
      "v": 104
    },
    {
      "midi": 52,
      "hit": false,
      "t": 52867.079999999914,
      "d": 375.87374999999884,
      "v": 104
    },
    {
      "midi": 56,
      "hit": false,
      "t": 52867.079999999914,
      "d": 375.87374999999884,
      "v": 104
    },
    {
      "midi": 59,
      "hit": false,
      "t": 52867.079999999914,
      "d": 375.87374999999884,
      "v": 104
    },
    {
      "midi": 38,
      "hit": false,
      "t": 52867.079999999994,
      "d": 472.0274999999965,
      "v": 92
    },
    {
      "midi": 47,
      "hit": false,
      "t": 52867.079999999994,
      "d": 240.38437500000873,
      "v": 58
    },
    {
      "midi": 59,
      "hit": false,
      "t": 52875.82124999999,
      "d": 174.82500000000437,
      "v": 48
    },
    {
      "midi": 59,
      "hit": false,
      "t": 53072.49937500015,
      "d": 388.98562500000116,
      "v": 67
    },
    {
      "midi": 64,
      "hit": false,
      "t": 53072.49937500015,
      "d": 388.98562500000116,
      "v": 67
    },
    {
      "midi": 64,
      "hit": false,
      "t": 53076.869999999995,
      "d": 17.48250000000553,
      "v": 42
    },
    {
      "midi": 47,
      "hit": false,
      "t": 53076.870000000155,
      "d": 388.98562500000116,
      "v": 67
    },
    {
      "midi": 56,
      "hit": false,
      "t": 53076.870000000155,
      "d": 388.98562500000116,
      "v": 67
    },
    {
      "midi": 62,
      "hit": false,
      "t": 53076.870000000185,
      "d": 4.370625000003201,
      "v": 95
    },
    {
      "midi": 80,
      "hit": false,
      "t": 53286.659999999996,
      "d": 375.87374999999884,
      "v": 104
    },
    {
      "midi": 64,
      "hit": false,
      "t": 53286.660000000185,
      "d": 4.370625000003201,
      "v": 47
    },
    {
      "midi": 56,
      "hit": false,
      "t": 53492.079375000154,
      "d": 170.45437500000116,
      "v": 55
    },
    {
      "midi": 50,
      "hit": false,
      "t": 53496.44999999991,
      "d": 187.93687499999942,
      "v": 104
    },
    {
      "midi": 52,
      "hit": false,
      "t": 53496.44999999991,
      "d": 187.93687499999942,
      "v": 104
    },
    {
      "midi": 56,
      "hit": false,
      "t": 53496.44999999991,
      "d": 187.93687499999942,
      "v": 104
    },
    {
      "midi": 59,
      "hit": false,
      "t": 53496.44999999991,
      "d": 187.93687499999942,
      "v": 104
    },
    {
      "midi": 38,
      "hit": false,
      "t": 53496.44999999999,
      "d": 100.52437500000087,
      "v": 99
    },
    {
      "midi": 59,
      "hit": false,
      "t": 53500.820625,
      "d": 56.81812499999796,
      "v": 37
    },
    {
      "midi": 56,
      "hit": false,
      "t": 53500.820625,
      "d": 56.81812499999796,
      "v": 43
    },
    {
      "midi": 64,
      "hit": false,
      "t": 53500.82062500019,
      "d": 4.370625000003201,
      "v": 96
    },
    {
      "midi": 47,
      "hit": false,
      "t": 53701.869375000155,
      "d": 4.370625000003201,
      "v": 59
    },
    {
      "midi": 59,
      "hit": false,
      "t": 53701.869375000155,
      "d": 4.370625000003201,
      "v": 50
    },
    {
      "midi": 64,
      "hit": false,
      "t": 53701.869375000155,
      "d": 4.370625000003201,
      "v": 63
    },
    {
      "midi": 49,
      "hit": false,
      "t": 53706.23999999991,
      "d": 375.87374999999884,
      "v": 104
    },
    {
      "midi": 56,
      "hit": false,
      "t": 53706.23999999991,
      "d": 375.87374999999884,
      "v": 104
    },
    {
      "midi": 59,
      "hit": false,
      "t": 53706.23999999991,
      "d": 375.87374999999884,
      "v": 104
    },
    {
      "midi": 37,
      "hit": false,
      "t": 53706.23999999999,
      "d": 423.9506249999977,
      "v": 99
    },
    {
      "midi": 76,
      "hit": false,
      "t": 53706.24,
      "d": 1131.9918749999997,
      "v": 104
    },
    {
      "midi": 37,
      "hit": false,
      "t": 53706.24000000016,
      "d": 196.67812499999854,
      "v": 58
    },
    {
      "midi": 49,
      "hit": false,
      "t": 53710.610625,
      "d": 196.67812499999854,
      "v": 59
    },
    {
      "midi": 64,
      "hit": false,
      "t": 53920.40062500019,
      "d": 4.370625000003201,
      "v": 55
    },
    {
      "midi": 37,
      "hit": false,
      "t": 53924.77125000016,
      "d": 1459.7887500000143,
      "v": 64
    },
    {
      "midi": 49,
      "hit": false,
      "t": 54125.82,
      "d": 222.9018750000032,
      "v": 64
    },
    {
      "midi": 64,
      "hit": false,
      "t": 54125.82,
      "d": 384.61499999999796,
      "v": 54
    },
    {
      "midi": 52,
      "hit": false,
      "t": 54125.82000000016,
      "d": 91.78312500000902,
      "v": 67
    },
    {
      "midi": 59,
      "hit": false,
      "t": 54125.82000000016,
      "d": 91.78312500000902,
      "v": 67
    },
    {
      "midi": 56,
      "hit": false,
      "t": 54130.19062500016,
      "d": 104.89500000000407,
      "v": 66
    },
    {
      "midi": 63,
      "hit": false,
      "t": 54130.19062500019,
      "d": 4.370625000003201,
      "v": 86
    },
    {
      "midi": 68,
      "hit": false,
      "t": 54134.561250000166,
      "d": 74.30062500000349,
      "v": 67
    },
    {
      "midi": 49,
      "hit": false,
      "t": 54335.609999999906,
      "d": 187.93687499999942,
      "v": 104
    },
    {
      "midi": 56,
      "hit": false,
      "t": 54335.609999999906,
      "d": 187.93687499999942,
      "v": 104
    },
    {
      "midi": 59,
      "hit": false,
      "t": 54335.609999999906,
      "d": 187.93687499999942,
      "v": 104
    },
    {
      "midi": 37,
      "hit": false,
      "t": 54335.609999999986,
      "d": 91.78312500000175,
      "v": 99
    },
    {
      "midi": 56,
      "hit": false,
      "t": 54335.61,
      "d": 148.6012499999997,
      "v": 35
    },
    {
      "midi": 49,
      "hit": false,
      "t": 54545.39999999991,
      "d": 375.87374999999884,
      "v": 104
    },
    {
      "midi": 56,
      "hit": false,
      "t": 54545.39999999991,
      "d": 375.87374999999884,
      "v": 104
    },
    {
      "midi": 59,
      "hit": false,
      "t": 54545.39999999991,
      "d": 375.87374999999884,
      "v": 104
    },
    {
      "midi": 37,
      "hit": false,
      "t": 54545.39999999999,
      "d": 415.20937499999854,
      "v": 99
    },
    {
      "midi": 64,
      "hit": false,
      "t": 54755.189999999995,
      "d": 26.22374999999738,
      "v": 45
    },
    {
      "midi": 56,
      "hit": false,
      "t": 54755.189999999995,
      "d": 83.04187499999534,
      "v": 40
    },
    {
      "midi": 49,
      "hit": false,
      "t": 54755.189999999995,
      "d": 139.8599999999933,
      "v": 45
    },
    {
      "midi": 56,
      "hit": false,
      "t": 54755.19000000017,
      "d": 388.98562500000116,
      "v": 67
    },
    {
      "midi": 59,
      "hit": false,
      "t": 54755.19000000017,
      "d": 388.98562500000116,
      "v": 67
    },
    {
      "midi": 52,
      "hit": false,
      "t": 54759.56062500017,
      "d": 388.98562500000116,
      "v": 67
    },
    {
      "midi": 68,
      "hit": false,
      "t": 54759.56062500017,
      "d": 388.98562500000116,
      "v": 67
    },
    {
      "midi": 62,
      "hit": false,
      "t": 54759.560625000195,
      "d": 4.370625000003201,
      "v": 92
    },
    {
      "midi": 71,
      "hit": false,
      "t": 54964.979999999996,
      "d": 375.87374999999884,
      "v": 104
    },
    {
      "midi": 64,
      "hit": false,
      "t": 54964.9800000002,
      "d": 4.370625000003201,
      "v": 86
    },
    {
      "midi": 49,
      "hit": false,
      "t": 55174.7699999999,
      "d": 187.93687499999942,
      "v": 104
    },
    {
      "midi": 56,
      "hit": false,
      "t": 55174.7699999999,
      "d": 187.93687499999942,
      "v": 104
    },
    {
      "midi": 59,
      "hit": false,
      "t": 55174.7699999999,
      "d": 187.93687499999942,
      "v": 104
    },
    {
      "midi": 37,
      "hit": false,
      "t": 55174.76999999998,
      "d": 91.78312500000175,
      "v": 99
    },
    {
      "midi": 56,
      "hit": false,
      "t": 55174.76999999999,
      "d": 187.93687499999942,
      "v": 37
    },
    {
      "midi": 49,
      "hit": false,
      "t": 55174.76999999999,
      "d": 201.04875000000175,
      "v": 35
    },
    {
      "midi": 52,
      "hit": false,
      "t": 55174.77000000017,
      "d": 170.45437500000116,
      "v": 63
    },
    {
      "midi": 64,
      "hit": false,
      "t": 55179.140625000204,
      "d": 4.370625000003201,
      "v": 92
    },
    {
      "midi": 54,
      "hit": false,
      "t": 55384.5599999999,
      "d": 375.87374999999884,
      "v": 104
    },
    {
      "midi": 58,
      "hit": false,
      "t": 55384.5599999999,
      "d": 375.87374999999884,
      "v": 104
    },
    {
      "midi": 30,
      "hit": false,
      "t": 55384.55999999998,
      "d": 419.58000000000175,
      "v": 99
    },
    {
      "midi": 70,
      "hit": false,
      "t": 55384.56,
      "d": 751.7474999999977,
      "v": 104
    },
    {
      "midi": 61,
      "hit": false,
      "t": 55384.56000000017,
      "d": 104.89500000000407,
      "v": 57
    },
    {
      "midi": 42,
      "hit": false,
      "t": 55384.56000000017,
      "d": 1534.0893750000178,
      "v": 64
    },
    {
      "midi": 49,
      "hit": false,
      "t": 55388.93062499999,
      "d": 135.48937499999738,
      "v": 71
    },
    {
      "midi": 49,
      "hit": false,
      "t": 55393.30125000017,
      "d": 74.30062500000349,
      "v": 59
    },
    {
      "midi": 61,
      "hit": false,
      "t": 55594.34999999999,
      "d": 550.6987500000105,
      "v": 26
    },
    {
      "midi": 66,
      "hit": false,
      "t": 55603.09125,
      "d": 131.11875000000146,
      "v": 38
    },
    {
      "midi": 58,
      "hit": false,
      "t": 55799.76937500018,
      "d": 616.2581250000076,
      "v": 67
    },
    {
      "midi": 66,
      "hit": false,
      "t": 55799.76937500018,
      "d": 616.2581250000076,
      "v": 67
    },
    {
      "midi": 61,
      "hit": false,
      "t": 55804.14000000018,
      "d": 616.2581250000076,
      "v": 66
    },
    {
      "midi": 58,
      "hit": false,
      "t": 55808.510625,
      "d": 43.70625000000291,
      "v": 65
    },
    {
      "midi": 63,
      "hit": false,
      "t": 55808.510625000206,
      "d": 4.370625000003201,
      "v": 86
    },
    {
      "midi": 49,
      "hit": false,
      "t": 55812.88125000018,
      "d": 598.775625000002,
      "v": 67
    },
    {
      "midi": 54,
      "hit": false,
      "t": 56013.9299999999,
      "d": 187.93687499999942,
      "v": 104
    },
    {
      "midi": 58,
      "hit": false,
      "t": 56013.9299999999,
      "d": 187.93687499999942,
      "v": 104
    },
    {
      "midi": 30,
      "hit": false,
      "t": 56013.929999999986,
      "d": 100.52437500000087,
      "v": 95
    },
    {
      "midi": 58,
      "hit": false,
      "t": 56018.300625,
      "d": 13.111875000002328,
      "v": 45
    },
    {
      "midi": 63,
      "hit": false,
      "t": 56018.30062500021,
      "d": 4.370625000003201,
      "v": 42
    },
    {
      "midi": 70,
      "hit": false,
      "t": 56022.67125000001,
      "d": 222.90187499999593,
      "v": 40
    },
    {
      "midi": 54,
      "hit": false,
      "t": 56223.7199999999,
      "d": 375.87374999999884,
      "v": 104
    },
    {
      "midi": 58,
      "hit": false,
      "t": 56223.7199999999,
      "d": 375.87374999999884,
      "v": 104
    },
    {
      "midi": 30,
      "hit": false,
      "t": 56223.71999999999,
      "d": 472.0274999999965,
      "v": 92
    },
    {
      "midi": 49,
      "hit": false,
      "t": 56223.72,
      "d": 240.38437500000873,
      "v": 58
    },
    {
      "midi": 61,
      "hit": false,
      "t": 56232.46125,
      "d": 174.82500000000437,
      "v": 48
    },
    {
      "midi": 61,
      "hit": false,
      "t": 56429.13937500019,
      "d": 388.98562500000116,
      "v": 67
    },
    {
      "midi": 66,
      "hit": false,
      "t": 56429.13937500019,
      "d": 388.98562500000116,
      "v": 67
    },
    {
      "midi": 66,
      "hit": false,
      "t": 56433.51,
      "d": 17.48250000000553,
      "v": 42
    },
    {
      "midi": 49,
      "hit": false,
      "t": 56433.51000000019,
      "d": 388.98562500000116,
      "v": 67
    },
    {
      "midi": 58,
      "hit": false,
      "t": 56433.51000000019,
      "d": 388.98562500000116,
      "v": 67
    },
    {
      "midi": 62,
      "hit": false,
      "t": 56433.51000000021,
      "d": 4.370625000003201,
      "v": 95
    },
    {
      "midi": 71,
      "hit": false,
      "t": 56643.299999999996,
      "d": 187.93687499999942,
      "v": 104
    },
    {
      "midi": 64,
      "hit": false,
      "t": 56643.300000000214,
      "d": 4.370625000003201,
      "v": 47
    },
    {
      "midi": 58,
      "hit": false,
      "t": 56848.71937500019,
      "d": 170.45437500000116,
      "v": 55
    },
    {
      "midi": 54,
      "hit": false,
      "t": 56853.089999999895,
      "d": 187.93687499999942,
      "v": 104
    },
    {
      "midi": 58,
      "hit": false,
      "t": 56853.089999999895,
      "d": 187.93687499999942,
      "v": 104
    },
    {
      "midi": 30,
      "hit": false,
      "t": 56853.08999999998,
      "d": 100.52437500000087,
      "v": 99
    },
    {
      "midi": 73,
      "hit": false,
      "t": 56853.09,
      "d": 187.93687499999942,
      "v": 104
    },
    {
      "midi": 61,
      "hit": false,
      "t": 56857.46062500001,
      "d": 56.81812499999796,
      "v": 37
    },
    {
      "midi": 58,
      "hit": false,
      "t": 56857.46062500001,
      "d": 56.81812499999796,
      "v": 43
    },
    {
      "midi": 64,
      "hit": false,
      "t": 56857.46062500022,
      "d": 4.370625000003201,
      "v": 96
    },
    {
      "midi": 49,
      "hit": false,
      "t": 57058.50937500019,
      "d": 4.370625000003201,
      "v": 59
    },
    {
      "midi": 61,
      "hit": false,
      "t": 57058.50937500019,
      "d": 4.370625000003201,
      "v": 50
    },
    {
      "midi": 66,
      "hit": false,
      "t": 57058.50937500019,
      "d": 4.370625000003201,
      "v": 63
    },
    {
      "midi": 47,
      "hit": false,
      "t": 57062.879999999896,
      "d": 375.87374999999884,
      "v": 104
    },
    {
      "midi": 54,
      "hit": false,
      "t": 57062.879999999896,
      "d": 375.87374999999884,
      "v": 104
    },
    {
      "midi": 35,
      "hit": false,
      "t": 57062.87999999998,
      "d": 423.9506249999977,
      "v": 99
    },
    {
      "midi": 74,
      "hit": false,
      "t": 57062.88,
      "d": 375.87374999999884,
      "v": 104
    },
    {
      "midi": 47,
      "hit": false,
      "t": 57062.880000000194,
      "d": 196.67812499999854,
      "v": 58
    },
    {
      "midi": 47,
      "hit": false,
      "t": 57067.25062500001,
      "d": 196.67812499999854,
      "v": 59
    },
    {
      "midi": 64,
      "hit": false,
      "t": 57277.04062500022,
      "d": 4.370625000003201,
      "v": 55
    },
    {
      "midi": 47,
      "hit": false,
      "t": 57281.411250000194,
      "d": 1459.7887500000143,
      "v": 64
    },
    {
      "midi": 73,
      "hit": false,
      "t": 57482.46,
      "d": 187.93687499999942,
      "v": 104
    },
    {
      "midi": 47,
      "hit": false,
      "t": 57482.46000000001,
      "d": 222.9018750000032,
      "v": 64
    },
    {
      "midi": 62,
      "hit": false,
      "t": 57482.46000000001,
      "d": 384.61499999999796,
      "v": 54
    },
    {
      "midi": 50,
      "hit": false,
      "t": 57482.460000000196,
      "d": 91.78312500000902,
      "v": 67
    },
    {
      "midi": 59,
      "hit": false,
      "t": 57482.460000000196,
      "d": 91.78312500000902,
      "v": 67
    },
    {
      "midi": 54,
      "hit": false,
      "t": 57486.8306250002,
      "d": 104.89500000000407,
      "v": 66
    },
    {
      "midi": 63,
      "hit": false,
      "t": 57486.83062500022,
      "d": 4.370625000003201,
      "v": 86
    },
    {
      "midi": 66,
      "hit": false,
      "t": 57491.2012500002,
      "d": 74.30062500000349,
      "v": 67
    },
    {
      "midi": 47,
      "hit": false,
      "t": 57692.24999999989,
      "d": 187.93687499999942,
      "v": 104
    },
    {
      "midi": 54,
      "hit": false,
      "t": 57692.24999999989,
      "d": 187.93687499999942,
      "v": 104
    },
    {
      "midi": 35,
      "hit": false,
      "t": 57692.24999999998,
      "d": 91.78312500000175,
      "v": 99
    },
    {
      "midi": 74,
      "hit": false,
      "t": 57692.25,
      "d": 375.87374999999884,
      "v": 104
    },
    {
      "midi": 54,
      "hit": false,
      "t": 57692.25000000001,
      "d": 148.6012499999997,
      "v": 35
    },
    {
      "midi": 47,
      "hit": false,
      "t": 57902.03999999989,
      "d": 375.87374999999884,
      "v": 104
    },
    {
      "midi": 54,
      "hit": false,
      "t": 57902.03999999989,
      "d": 375.87374999999884,
      "v": 104
    },
    {
      "midi": 35,
      "hit": false,
      "t": 57902.03999999998,
      "d": 415.20937499999854,
      "v": 99
    },
    {
      "midi": 74,
      "hit": false,
      "t": 58111.83,
      "d": 187.93687499999942,
      "v": 104
    },
    {
      "midi": 62,
      "hit": false,
      "t": 58111.83,
      "d": 26.22374999999738,
      "v": 45
    },
    {
      "midi": 54,
      "hit": false,
      "t": 58111.83,
      "d": 83.04187499999534,
      "v": 40
    },
    {
      "midi": 47,
      "hit": false,
      "t": 58111.83,
      "d": 139.8599999999933,
      "v": 45
    },
    {
      "midi": 54,
      "hit": false,
      "t": 58111.830000000205,
      "d": 388.98562500000116,
      "v": 67
    },
    {
      "midi": 59,
      "hit": false,
      "t": 58111.830000000205,
      "d": 388.98562500000116,
      "v": 67
    },
    {
      "midi": 50,
      "hit": false,
      "t": 58116.20062500021,
      "d": 388.98562500000116,
      "v": 67
    },
    {
      "midi": 66,
      "hit": false,
      "t": 58116.20062500021,
      "d": 388.98562500000116,
      "v": 67
    },
    {
      "midi": 62,
      "hit": false,
      "t": 58116.20062500022,
      "d": 4.370625000003201,
      "v": 92
    },
    {
      "midi": 76,
      "hit": false,
      "t": 58321.62,
      "d": 375.87374999999884,
      "v": 104
    },
    {
      "midi": 64,
      "hit": false,
      "t": 58321.62000000023,
      "d": 4.370625000003201,
      "v": 86
    },
    {
      "midi": 47,
      "hit": false,
      "t": 58531.40999999989,
      "d": 187.93687499999942,
      "v": 104
    },
    {
      "midi": 54,
      "hit": false,
      "t": 58531.40999999989,
      "d": 187.93687499999942,
      "v": 104
    },
    {
      "midi": 35,
      "hit": false,
      "t": 58531.409999999974,
      "d": 91.78312500000175,
      "v": 99
    },
    {
      "midi": 54,
      "hit": false,
      "t": 58531.409999999996,
      "d": 187.93687499999942,
      "v": 37
    },
    {
      "midi": 47,
      "hit": false,
      "t": 58531.409999999996,
      "d": 201.04875000000175,
      "v": 35
    },
    {
      "midi": 50,
      "hit": false,
      "t": 58531.41000000021,
      "d": 170.45437500000116,
      "v": 63
    },
    {
      "midi": 64,
      "hit": false,
      "t": 58535.78062500023,
      "d": 4.370625000003201,
      "v": 92
    },
    {
      "midi": 50,
      "hit": false,
      "t": 58741.19999999989,
      "d": 375.87374999999884,
      "v": 104
    },
    {
      "midi": 53,
      "hit": false,
      "t": 58741.19999999989,
      "d": 375.87374999999884,
      "v": 104
    },
    {
      "midi": 57,
      "hit": false,
      "t": 58741.19999999989,
      "d": 375.87374999999884,
      "v": 104
    },
    {
      "midi": 38,
      "hit": false,
      "t": 58741.199999999975,
      "d": 419.58000000000175,
      "v": 99
    },
    {
      "midi": 73,
      "hit": false,
      "t": 58741.200000000004,
      "d": 375.87374999999884,
      "v": 104
    },
    {
      "midi": 50,
      "hit": false,
      "t": 58741.20000000021,
      "d": 170.45437500000116,
      "v": 55
    },
    {
      "midi": 53,
      "hit": false,
      "t": 58741.20000000021,
      "d": 170.45437500000116,
      "v": 63
    },
    {
      "midi": 57,
      "hit": false,
      "t": 58741.20000000021,
      "d": 170.45437500000116,
      "v": 59
    },
    {
      "midi": 38,
      "hit": false,
      "t": 58741.20000000021,
      "d": 839.1600000000035,
      "v": 64
    },
    {
      "midi": 50,
      "hit": false,
      "t": 58745.570625,
      "d": 135.48937499999738,
      "v": 71
    },
    {
      "midi": 69,
      "hit": false,
      "t": 58745.57062500021,
      "d": 170.45437500000116,
      "v": 59
    },
    {
      "midi": 62,
      "hit": false,
      "t": 58950.99,
      "d": 550.6987500000105,
      "v": 26
    },
    {
      "midi": 65,
      "hit": false,
      "t": 58959.731250000004,
      "d": 131.11875000000146,
      "v": 38
    },
    {
      "midi": 71,
      "hit": false,
      "t": 59160.780000000006,
      "d": 375.87374999999884,
      "v": 104
    },
    {
      "midi": 57,
      "hit": false,
      "t": 59165.15062500001,
      "d": 43.70625000000291,
      "v": 65
    },
    {
      "midi": 53,
      "hit": false,
      "t": 59165.15062500021,
      "d": 380.24437500000204,
      "v": 59
    },
    {
      "midi": 57,
      "hit": false,
      "t": 59165.15062500021,
      "d": 380.24437500000204,
      "v": 63
    },
    {
      "midi": 69,
      "hit": false,
      "t": 59165.15062500021,
      "d": 380.24437500000204,
      "v": 59
    },
    {
      "midi": 63,
      "hit": false,
      "t": 59165.150625000235,
      "d": 4.370625000003201,
      "v": 86
    },
    {
      "midi": 50,
      "hit": false,
      "t": 59173.89187500021,
      "d": 380.24437500000204,
      "v": 61
    },
    {
      "midi": 50,
      "hit": false,
      "t": 59370.56999999988,
      "d": 187.93687499999942,
      "v": 104
    },
    {
      "midi": 53,
      "hit": false,
      "t": 59370.56999999988,
      "d": 187.93687499999942,
      "v": 104
    },
    {
      "midi": 57,
      "hit": false,
      "t": 59370.56999999988,
      "d": 187.93687499999942,
      "v": 104
    },
    {
      "midi": 38,
      "hit": false,
      "t": 59370.56999999998,
      "d": 100.52437500000087,
      "v": 95
    },
    {
      "midi": 57,
      "hit": false,
      "t": 59374.94062500001,
      "d": 13.111875000002328,
      "v": 45
    },
    {
      "midi": 63,
      "hit": false,
      "t": 59374.940625000236,
      "d": 4.370625000003201,
      "v": 42
    },
    {
      "midi": 69,
      "hit": false,
      "t": 59379.31125000001,
      "d": 222.90187499999593,
      "v": 40
    },
    {
      "midi": 52,
      "hit": false,
      "t": 59580.359999999884,
      "d": 375.87374999999884,
      "v": 104
    },
    {
      "midi": 56,
      "hit": false,
      "t": 59580.359999999884,
      "d": 375.87374999999884,
      "v": 104
    },
    {
      "midi": 28,
      "hit": false,
      "t": 59580.35999999998,
      "d": 472.0274999999965,
      "v": 92
    },
    {
      "midi": 74,
      "hit": false,
      "t": 59580.36000000001,
      "d": 187.93687499999942,
      "v": 104
    },
    {
      "midi": 47,
      "hit": false,
      "t": 59580.36000000001,
      "d": 240.38437500000873,
      "v": 58
    },
    {
      "midi": 40,
      "hit": false,
      "t": 59580.36000000021,
      "d": 694.9293749999997,
      "v": 64
    },
    {
      "midi": 59,
      "hit": false,
      "t": 59589.10125000001,
      "d": 174.82500000000437,
      "v": 48
    },
    {
      "midi": 59,
      "hit": false,
      "t": 59785.77937500021,
      "d": 388.98562500000116,
      "v": 67
    },
    {
      "midi": 64,
      "hit": false,
      "t": 59785.77937500021,
      "d": 388.98562500000116,
      "v": 67
    },
    {
      "midi": 73,
      "hit": false,
      "t": 59790.15000000001,
      "d": 375.87374999999884,
      "v": 104
    },
    {
      "midi": 64,
      "hit": false,
      "t": 59790.15000000001,
      "d": 17.48250000000553,
      "v": 42
    },
    {
      "midi": 47,
      "hit": false,
      "t": 59790.15000000021,
      "d": 388.98562500000116,
      "v": 67
    },
    {
      "midi": 56,
      "hit": false,
      "t": 59790.15000000021,
      "d": 388.98562500000116,
      "v": 67
    },
    {
      "midi": 62,
      "hit": false,
      "t": 59790.15000000024,
      "d": 4.370625000003201,
      "v": 95
    },
    {
      "midi": 64,
      "hit": false,
      "t": 59999.94000000024,
      "d": 4.370625000003201,
      "v": 47
    },
    {
      "midi": 56,
      "hit": false,
      "t": 60205.35937500021,
      "d": 170.45437500000116,
      "v": 55
    },
    {
      "midi": 52,
      "hit": false,
      "t": 60209.72999999988,
      "d": 187.93687499999942,
      "v": 104
    },
    {
      "midi": 56,
      "hit": false,
      "t": 60209.72999999988,
      "d": 187.93687499999942,
      "v": 104
    },
    {
      "midi": 28,
      "hit": false,
      "t": 60209.729999999974,
      "d": 100.52437500000087,
      "v": 99
    },
    {
      "midi": 69,
      "hit": false,
      "t": 60209.73000000001,
      "d": 751.7474999999977,
      "v": 104
    },
    {
      "midi": 59,
      "hit": false,
      "t": 60214.100625000014,
      "d": 56.81812499999796,
      "v": 37
    },
    {
      "midi": 56,
      "hit": false,
      "t": 60214.100625000014,
      "d": 56.81812499999796,
      "v": 43
    },
    {
      "midi": 64,
      "hit": false,
      "t": 60214.10062500025,
      "d": 4.370625000003201,
      "v": 96
    },
    {
      "midi": 47,
      "hit": false,
      "t": 60415.14937500021,
      "d": 4.370625000003201,
      "v": 59
    },
    {
      "midi": 59,
      "hit": false,
      "t": 60415.14937500021,
      "d": 4.370625000003201,
      "v": 50
    },
    {
      "midi": 64,
      "hit": false,
      "t": 60415.14937500021,
      "d": 4.370625000003201,
      "v": 63
    },
    {
      "midi": 57,
      "hit": false,
      "t": 60419.51999999988,
      "d": 375.87374999999884,
      "v": 104
    },
    {
      "midi": 61,
      "hit": false,
      "t": 60419.51999999988,
      "d": 375.87374999999884,
      "v": 104
    },
    {
      "midi": 33,
      "hit": false,
      "t": 60419.519999999975,
      "d": 423.9506249999977,
      "v": 99
    },
    {
      "midi": 45,
      "hit": false,
      "t": 60419.520000000215,
      "d": 170.45437500000116,
      "v": 58
    },
    {
      "midi": 52,
      "hit": false,
      "t": 60423.890625000015,
      "d": 196.67812499999854,
      "v": 59
    },
    {
      "midi": 57,
      "hit": false,
      "t": 60423.89062500022,
      "d": 380.24437499999476,
      "v": 61
    },
    {
      "midi": 64,
      "hit": false,
      "t": 60633.68062500025,
      "d": 4.370625000003201,
      "v": 55
    },
    {
      "midi": 45,
      "hit": false,
      "t": 60638.051250000215,
      "d": 1315.5581250000105,
      "v": 64
    },
    {
      "midi": 57,
      "hit": false,
      "t": 60834.72937500021,
      "d": 375.87374999999884,
      "v": 55
    },
    {
      "midi": 57,
      "hit": false,
      "t": 60839.10000000001,
      "d": 56.81812499999796,
      "v": 50
    },
    {
      "midi": 64,
      "hit": false,
      "t": 60839.10000000001,
      "d": 209.79000000000087,
      "v": 54
    },
    {
      "midi": 52,
      "hit": false,
      "t": 60839.10000000001,
      "d": 222.9018750000032,
      "v": 64
    },
    {
      "midi": 61,
      "hit": false,
      "t": 60843.47062500021,
      "d": 375.87374999999884,
      "v": 67
    },
    {
      "midi": 63,
      "hit": false,
      "t": 60843.47062500025,
      "d": 4.370625000003201,
      "v": 86
    },
    {
      "midi": 62,
      "hit": false,
      "t": 60943.99500000025,
      "d": 4.370625000003201,
      "v": 72
    },
    {
      "midi": 57,
      "hit": false,
      "t": 61048.889999999876,
      "d": 187.93687499999942,
      "v": 104
    },
    {
      "midi": 61,
      "hit": false,
      "t": 61048.889999999876,
      "d": 187.93687499999942,
      "v": 104
    },
    {
      "midi": 33,
      "hit": false,
      "t": 61048.88999999997,
      "d": 91.78312500000175,
      "v": 99
    },
    {
      "midi": 76,
      "hit": false,
      "t": 61048.89000000001,
      "d": 187.93687499999942,
      "v": 104
    },
    {
      "midi": 52,
      "hit": false,
      "t": 61048.89000000021,
      "d": 795.4537500000079,
      "v": 48
    },
    {
      "midi": 63,
      "hit": false,
      "t": 61053.26062500025,
      "d": 4.370625000003201,
      "v": 86
    },
    {
      "midi": 57,
      "hit": false,
      "t": 61258.67999999988,
      "d": 375.87374999999884,
      "v": 104
    },
    {
      "midi": 61,
      "hit": false,
      "t": 61258.67999999988,
      "d": 375.87374999999884,
      "v": 104
    },
    {
      "midi": 33,
      "hit": false,
      "t": 61258.67999999997,
      "d": 415.20937499999854,
      "v": 99
    },
    {
      "midi": 83,
      "hit": false,
      "t": 61258.68000000001,
      "d": 187.93687499999942,
      "v": 104
    },
    {
      "midi": 52,
      "hit": false,
      "t": 61258.680000000015,
      "d": 118.00687499999913,
      "v": 63
    },
    {
      "midi": 57,
      "hit": false,
      "t": 61464.09937500021,
      "d": 616.2581250000148,
      "v": 52
    },
    {
      "midi": 81,
      "hit": false,
      "t": 61468.47000000001,
      "d": 187.93687499999942,
      "v": 104
    },
    {
      "midi": 64,
      "hit": false,
      "t": 61468.470000000016,
      "d": 847.9012500000026,
      "v": 45
    },
    {
      "midi": 64,
      "hit": false,
      "t": 61468.47000000021,
      "d": 166.08375000000524,
      "v": 60
    },
    {
      "midi": 61,
      "hit": false,
      "t": 61472.840625000215,
      "d": 375.8737500000061,
      "v": 67
    },
    {
      "midi": 64,
      "hit": false,
      "t": 61472.84062500025,
      "d": 4.370625000003201,
      "v": 92
    },
    {
      "midi": 63,
      "hit": false,
      "t": 61678.26000000026,
      "d": 4.370625000003201,
      "v": 86
    },
    {
      "midi": 57,
      "hit": false,
      "t": 61888.04999999987,
      "d": 187.93687499999942,
      "v": 104
    },
    {
      "midi": 61,
      "hit": false,
      "t": 61888.04999999987,
      "d": 187.93687499999942,
      "v": 104
    },
    {
      "midi": 33,
      "hit": false,
      "t": 61888.04999999997,
      "d": 91.78312500000175,
      "v": 99
    },
    {
      "midi": 90,
      "hit": false,
      "t": 61888.05000000001,
      "d": 187.93687499999942,
      "v": 104
    },
    {
      "midi": 57,
      "hit": false,
      "t": 61888.05000000002,
      "d": 26.22374999999738,
      "v": 37
    },
    {
      "midi": 52,
      "hit": false,
      "t": 61888.05000000002,
      "d": 201.04875000000175,
      "v": 35
    },
    {
      "midi": 52,
      "hit": false,
      "t": 61888.05000000022,
      "d": 166.08375000000524,
      "v": 59
    },
    {
      "midi": 61,
      "hit": false,
      "t": 61892.420625000224,
      "d": 170.45437500000116,
      "v": 52
    },
    {
      "midi": 63,
      "hit": false,
      "t": 61892.42062500026,
      "d": 4.370625000003201,
      "v": 92
    },
    {
      "midi": 55,
      "hit": false,
      "t": 62097.83999999987,
      "d": 375.87374999999884,
      "v": 104
    },
    {
      "midi": 59,
      "hit": false,
      "t": 62097.83999999987,
      "d": 375.87374999999884,
      "v": 104
    },
    {
      "midi": 62,
      "hit": false,
      "t": 62097.83999999987,
      "d": 375.87374999999884,
      "v": 104
    },
    {
      "midi": 64,
      "hit": false,
      "t": 62097.83999999987,
      "d": 375.87374999999884,
      "v": 104
    },
    {
      "midi": 31,
      "hit": false,
      "t": 62097.83999999997,
      "d": 450.1743750000023,
      "v": 99
    },
    {
      "midi": 55,
      "hit": false,
      "t": 62097.84000000002,
      "d": 603.1462500000052,
      "v": 50
    },
    {
      "midi": 43,
      "hit": false,
      "t": 62097.84000000022,
      "d": 196.67812499999854,
      "v": 58
    },
    {
      "midi": 50,
      "hit": false,
      "t": 62102.21062500002,
      "d": 196.67812499999854,
      "v": 59
    },
    {
      "midi": 90,
      "hit": false,
      "t": 62307.63000000001,
      "d": 563.8106249999983,
      "v": 104
    },
    {
      "midi": 52,
      "hit": false,
      "t": 62307.63000000022,
      "d": 170.45437500000116,
      "v": 63
    },
    {
      "midi": 43,
      "hit": false,
      "t": 62316.37125000022,
      "d": 1236.886875000011,
      "v": 64
    },
    {
      "midi": 64,
      "hit": false,
      "t": 62517.42000000002,
      "d": 209.79000000000087,
      "v": 54
    },
    {
      "midi": 55,
      "hit": false,
      "t": 62517.420000000224,
      "d": 388.98562500000116,
      "v": 48
    },
    {
      "midi": 59,
      "hit": false,
      "t": 62517.420000000224,
      "d": 388.98562500000116,
      "v": 59
    },
    {
      "midi": 52,
      "hit": false,
      "t": 62521.79062500023,
      "d": 388.98562500000116,
      "v": 67
    },
    {
      "midi": 67,
      "hit": false,
      "t": 62521.79062500023,
      "d": 388.98562500000116,
      "v": 67
    },
    {
      "midi": 62,
      "hit": false,
      "t": 62521.79062500026,
      "d": 4.370625000003201,
      "v": 86
    },
    {
      "midi": 55,
      "hit": false,
      "t": 62727.20999999987,
      "d": 187.93687499999942,
      "v": 104
    },
    {
      "midi": 59,
      "hit": false,
      "t": 62727.20999999987,
      "d": 187.93687499999942,
      "v": 104
    },
    {
      "midi": 62,
      "hit": false,
      "t": 62727.20999999987,
      "d": 187.93687499999942,
      "v": 104
    },
    {
      "midi": 64,
      "hit": false,
      "t": 62727.20999999987,
      "d": 187.93687499999942,
      "v": 104
    },
    {
      "midi": 31,
      "hit": false,
      "t": 62727.20999999997,
      "d": 74.30062500000349,
      "v": 99
    },
    {
      "midi": 50,
      "hit": false,
      "t": 62727.21000000002,
      "d": 13.111875000002328,
      "v": 35
    },
    {
      "midi": 55,
      "hit": false,
      "t": 62727.21000000002,
      "d": 187.93687499999942,
      "v": 37
    },
    {
      "midi": 59,
      "hit": false,
      "t": 62727.21000000002,
      "d": 541.9575000000041,
      "v": 45
    },
    {
      "midi": 63,
      "hit": false,
      "t": 62735.95125000027,
      "d": 4.370625000003201,
      "v": 60
    },
    {
      "midi": 57,
      "hit": false,
      "t": 62936.99999999987,
      "d": 375.87374999999884,
      "v": 104
    },
    {
      "midi": 61,
      "hit": false,
      "t": 62936.99999999987,
      "d": 375.87374999999884,
      "v": 104
    },
    {
      "midi": 31,
      "hit": false,
      "t": 62936.99999999997,
      "d": 157.34249999999884,
      "v": 99
    },
    {
      "midi": 69,
      "hit": false,
      "t": 62937.00000000001,
      "d": 187.93687499999942,
      "v": 104
    },
    {
      "midi": 38,
      "hit": false,
      "t": 63146.78999999997,
      "d": 406.4681249999994,
      "v": 99
    },
    {
      "midi": 73,
      "hit": false,
      "t": 63146.79000000001,
      "d": 187.93687499999942,
      "v": 104
    },
    {
      "midi": 55,
      "hit": false,
      "t": 63151.16062500023,
      "d": 380.24437500000204,
      "v": 59
    },
    {
      "midi": 59,
      "hit": false,
      "t": 63151.16062500023,
      "d": 380.24437500000204,
      "v": 63
    },
    {
      "midi": 67,
      "hit": false,
      "t": 63151.16062500023,
      "d": 380.24437500000204,
      "v": 59
    },
    {
      "midi": 62,
      "hit": false,
      "t": 63151.16062500027,
      "d": 4.370625000003201,
      "v": 86
    },
    {
      "midi": 52,
      "hit": false,
      "t": 63159.90187500023,
      "d": 380.24437500000204,
      "v": 61
    },
    {
      "midi": 57,
      "hit": false,
      "t": 63356.57999999987,
      "d": 375.87374999999884,
      "v": 104
    },
    {
      "midi": 61,
      "hit": false,
      "t": 63356.57999999987,
      "d": 375.87374999999884,
      "v": 104
    },
    {
      "midi": 76,
      "hit": false,
      "t": 63356.58000000001,
      "d": 187.93687499999942,
      "v": 104
    },
    {
      "midi": 60,
      "hit": false,
      "t": 63365.32125000028,
      "d": 4.370625000003201,
      "v": 65
    },
    {
      "midi": 31,
      "hit": false,
      "t": 63566.36999999997,
      "d": 201.04875000000175,
      "v": 99
    },
    {
      "midi": 73,
      "hit": false,
      "t": 63566.37000000001,
      "d": 1127.6212499999965,
      "v": 104
    },
    {
      "midi": 78,
      "hit": false,
      "t": 63566.37000000001,
      "d": 1127.6212499999965,
      "v": 104
    },
    {
      "midi": 50,
      "hit": false,
      "t": 63566.370000000024,
      "d": 26.22374999999738,
      "v": 35
    },
    {
      "midi": 55,
      "hit": false,
      "t": 63566.370000000024,
      "d": 113.63624999999593,
      "v": 49
    },
    {
      "midi": 64,
      "hit": false,
      "t": 63566.370000000024,
      "d": 113.63624999999593,
      "v": 55
    },
    {
      "midi": 43,
      "hit": false,
      "t": 63566.370000000235,
      "d": 196.67812499999854,
      "v": 58
    },
    {
      "midi": 60,
      "hit": false,
      "t": 63575.11125000028,
      "d": 4.370625000003201,
      "v": 86
    },
    {
      "midi": 62,
      "hit": false,
      "t": 63680.00625000028,
      "d": 4.370625000003201,
      "v": 86
    },
    {
      "midi": 51,
      "hit": false,
      "t": 63776.15999999987,
      "d": 375.87374999999884,
      "v": 104
    },
    {
      "midi": 57,
      "hit": false,
      "t": 63776.15999999987,
      "d": 375.87374999999884,
      "v": 104
    },
    {
      "midi": 39,
      "hit": false,
      "t": 63776.159999999974,
      "d": 506.9925000000003,
      "v": 99
    },
    {
      "midi": 51,
      "hit": false,
      "t": 63776.160000000025,
      "d": 83.04187500000262,
      "v": 76
    },
    {
      "midi": 39,
      "hit": false,
      "t": 63776.160000000236,
      "d": 196.67812499999854,
      "v": 58
    },
    {
      "midi": 82,
      "hit": false,
      "t": 63776.16000000029,
      "d": 39.33562499999971,
      "v": 82
    },
    {
      "midi": 61,
      "hit": false,
      "t": 63784.90125000029,
      "d": 4.370625000003201,
      "v": 62
    },
    {
      "midi": 51,
      "hit": false,
      "t": 63985.950000000026,
      "d": 253.4962499999965,
      "v": 28
    },
    {
      "midi": 82,
      "hit": false,
      "t": 63994.69125000029,
      "d": 30.594375000000582,
      "v": 42
    },
    {
      "midi": 64,
      "hit": false,
      "t": 64099.58625000029,
      "d": 4.370625000003201,
      "v": 37
    },
    {
      "midi": 54,
      "hit": false,
      "t": 64191.369375000235,
      "d": 616.2581250000003,
      "v": 67
    },
    {
      "midi": 61,
      "hit": false,
      "t": 64191.369375000235,
      "d": 616.2581250000003,
      "v": 67
    },
    {
      "midi": 54,
      "hit": false,
      "t": 64195.74000000003,
      "d": 201.04874999999447,
      "v": 57
    },
    {
      "midi": 57,
      "hit": false,
      "t": 64195.74000000003,
      "d": 476.3981249999997,
      "v": 61
    },
    {
      "midi": 57,
      "hit": false,
      "t": 64195.74000000024,
      "d": 616.2581250000003,
      "v": 66
    },
    {
      "midi": 61,
      "hit": false,
      "t": 64204.481250000026,
      "d": 463.2862499999974,
      "v": 64
    },
    {
      "midi": 60,
      "hit": false,
      "t": 64204.481250000295,
      "d": 4.370625000003201,
      "v": 85
    },
    {
      "midi": 62,
      "hit": false,
      "t": 64204.481250000295,
      "d": 4.370625000003201,
      "v": 82
    },
    {
      "midi": 82,
      "hit": false,
      "t": 64204.481250000295,
      "d": 30.594375000000582,
      "v": 47
    },
    {
      "midi": 51,
      "hit": false,
      "t": 64405.52999999987,
      "d": 187.93687499999942,
      "v": 104
    },
    {
      "midi": 57,
      "hit": false,
      "t": 64405.52999999987,
      "d": 187.93687499999942,
      "v": 104
    },
    {
      "midi": 39,
      "hit": false,
      "t": 64405.52999999998,
      "d": 78.67124999999942,
      "v": 99
    },
    {
      "midi": 82,
      "hit": false,
      "t": 64405.5300000003,
      "d": 39.33562499999971,
      "v": 82
    },
    {
      "midi": 61,
      "hit": false,
      "t": 64414.271250000296,
      "d": 4.370625000003201,
      "v": 70
    },
    {
      "midi": 64,
      "hit": false,
      "t": 64414.271250000296,
      "d": 4.370625000003201,
      "v": 82
    },
    {
      "midi": 51,
      "hit": false,
      "t": 64615.31999999987,
      "d": 375.87374999999884,
      "v": 104
    },
    {
      "midi": 57,
      "hit": false,
      "t": 64615.31999999987,
      "d": 375.87374999999884,
      "v": 104
    },
    {
      "midi": 39,
      "hit": false,
      "t": 64615.31999999998,
      "d": 502.6218749999971,
      "v": 99
    },
    {
      "midi": 51,
      "hit": false,
      "t": 64615.32000000002,
      "d": 222.90187500001048,
      "v": 63
    },
    {
      "midi": 82,
      "hit": false,
      "t": 64624.0612500003,
      "d": 30.594375000000582,
      "v": 53
    },
    {
      "midi": 57,
      "hit": false,
      "t": 64820.73937500024,
      "d": 388.98562500000116,
      "v": 67
    },
    {
      "midi": 61,
      "hit": false,
      "t": 64820.73937500024,
      "d": 388.98562500000116,
      "v": 67
    },
    {
      "midi": 73,
      "hit": false,
      "t": 64825.11000000001,
      "d": 375.87374999999884,
      "v": 104
    },
    {
      "midi": 78,
      "hit": false,
      "t": 64825.11000000001,
      "d": 375.87374999999884,
      "v": 104
    },
    {
      "midi": 61,
      "hit": false,
      "t": 64825.11000000003,
      "d": 568.1812500000015,
      "v": 45
    },
    {
      "midi": 54,
      "hit": false,
      "t": 64825.11000000024,
      "d": 598.7756249999948,
      "v": 67
    },
    {
      "midi": 82,
      "hit": false,
      "t": 64825.1100000003,
      "d": 30.594375000000582,
      "v": 39
    },
    {
      "midi": 64,
      "hit": false,
      "t": 64938.7462500003,
      "d": 4.370625000003201,
      "v": 73
    },
    {
      "midi": 62,
      "hit": false,
      "t": 65039.2706250003,
      "d": 4.370625000003201,
      "v": 88
    },
    {
      "midi": 60,
      "hit": false,
      "t": 65043.641250000306,
      "d": 4.370625000003201,
      "v": 82
    },
    {
      "midi": 82,
      "hit": false,
      "t": 65043.641250000306,
      "d": 39.33562499999971,
      "v": 82
    },
    {
      "midi": 51,
      "hit": false,
      "t": 65244.689999999864,
      "d": 187.93687499999942,
      "v": 104
    },
    {
      "midi": 57,
      "hit": false,
      "t": 65244.689999999864,
      "d": 187.93687499999942,
      "v": 104
    },
    {
      "midi": 33,
      "hit": false,
      "t": 65244.68999999997,
      "d": 74.30062500000349,
      "v": 99
    },
    {
      "midi": 73,
      "hit": false,
      "t": 65244.69000000001,
      "d": 187.93687499999942,
      "v": 104
    },
    {
      "midi": 78,
      "hit": false,
      "t": 65244.69000000001,
      "d": 187.93687499999942,
      "v": 104
    },
    {
      "midi": 54,
      "hit": false,
      "t": 65244.69000000003,
      "d": 83.04187500000262,
      "v": 44
    },
    {
      "midi": 63,
      "hit": false,
      "t": 65249.060625000304,
      "d": 4.370625000003201,
      "v": 82
    },
    {
      "midi": 57,
      "hit": false,
      "t": 65253.43125000003,
      "d": 227.27249999999913,
      "v": 36
    },
    {
      "midi": 61,
      "hit": false,
      "t": 65253.43125000031,
      "d": 4.370625000003201,
      "v": 62
    },
    {
      "midi": 82,
      "hit": false,
      "t": 65253.43125000031,
      "d": 30.594375000000582,
      "v": 58
    },
    {
      "midi": 57,
      "hit": false,
      "t": 65450.10937500023,
      "d": 4.370625000003201,
      "v": 59
    },
    {
      "midi": 61,
      "hit": false,
      "t": 65450.10937500023,
      "d": 4.370625000003201,
      "v": 63
    },
    {
      "midi": 56,
      "hit": false,
      "t": 65454.479999999865,
      "d": 375.87374999999884,
      "v": 104
    },
    {
      "midi": 60,
      "hit": false,
      "t": 65454.479999999865,
      "d": 375.87374999999884,
      "v": 104
    },
    {
      "midi": 32,
      "hit": false,
      "t": 65454.479999999974,
      "d": 607.5168749999939,
      "v": 99
    },
    {
      "midi": 72,
      "hit": false,
      "t": 65454.48000000001,
      "d": 1507.8656250000058,
      "v": 104
    },
    {
      "midi": 80,
      "hit": false,
      "t": 65454.48000000001,
      "d": 1507.8656250000058,
      "v": 104
    },
    {
      "midi": 56,
      "hit": false,
      "t": 65458.85062500024,
      "d": 196.67812500000582,
      "v": 61
    },
    {
      "midi": 82,
      "hit": false,
      "t": 65463.22125000031,
      "d": 30.594375000000582,
      "v": 34
    },
    {
      "midi": 64,
      "hit": false,
      "t": 65668.6406250003,
      "d": 4.3706249999959255,
      "v": 55
    },
    {
      "midi": 82,
      "hit": false,
      "t": 65673.0112500003,
      "d": 30.594375000000582,
      "v": 39
    },
    {
      "midi": 56,
      "hit": false,
      "t": 65869.68937500025,
      "d": 1215.0337499999878,
      "v": 67
    },
    {
      "midi": 63,
      "hit": false,
      "t": 65874.06000000025,
      "d": 1215.0337499999878,
      "v": 67
    },
    {
      "midi": 63,
      "hit": false,
      "t": 65878.43062500004,
      "d": 218.53125,
      "v": 52
    },
    {
      "midi": 60,
      "hit": false,
      "t": 65878.43062500004,
      "d": 270.97874999999476,
      "v": 60
    },
    {
      "midi": 60,
      "hit": false,
      "t": 65878.43062500024,
      "d": 1215.0337499999878,
      "v": 67
    },
    {
      "midi": 60,
      "hit": false,
      "t": 65882.8012500003,
      "d": 4.3706249999959255,
      "v": 82
    },
    {
      "midi": 62,
      "hit": false,
      "t": 65882.8012500003,
      "d": 4.3706249999959255,
      "v": 82
    },
    {
      "midi": 82,
      "hit": false,
      "t": 65882.8012500003,
      "d": 39.33562499999243,
      "v": 82
    },
    {
      "midi": 56,
      "hit": false,
      "t": 66083.84999999986,
      "d": 187.93687499999942,
      "v": 104
    },
    {
      "midi": 60,
      "hit": false,
      "t": 66083.84999999986,
      "d": 187.93687499999942,
      "v": 104
    },
    {
      "midi": 39,
      "hit": false,
      "t": 66083.84999999996,
      "d": 131.11874999999418,
      "v": 98
    },
    {
      "midi": 82,
      "hit": false,
      "t": 66083.85000000028,
      "d": 30.59437499998603,
      "v": 42
    },
    {
      "midi": 56,
      "hit": false,
      "t": 66088.22062500003,
      "d": 323.4262500000041,
      "v": 43
    },
    {
      "midi": 62,
      "hit": false,
      "t": 66088.22062500028,
      "d": 4.3706249999959255,
      "v": 68
    },
    {
      "midi": 61,
      "hit": false,
      "t": 66092.59125000027,
      "d": 4.3706249999959255,
      "v": 82
    },
    {
      "midi": 56,
      "hit": false,
      "t": 66293.63999999985,
      "d": 375.87374999999884,
      "v": 104
    },
    {
      "midi": 60,
      "hit": false,
      "t": 66293.63999999985,
      "d": 375.87374999999884,
      "v": 104
    },
    {
      "midi": 39,
      "hit": false,
      "t": 66293.63999999996,
      "d": 572.5518750000047,
      "v": 99
    },
    {
      "midi": 60,
      "hit": false,
      "t": 66293.64000000003,
      "d": 148.60125000000698,
      "v": 60
    },
    {
      "midi": 68,
      "hit": false,
      "t": 66293.64000000003,
      "d": 148.60125000000698,
      "v": 60
    },
    {
      "midi": 64,
      "hit": false,
      "t": 66293.64000000026,
      "d": 4.3706249999959255,
      "v": 82
    },
    {
      "midi": 82,
      "hit": false,
      "t": 66302.38125000025,
      "d": 30.594375000000582,
      "v": 52
    },
    {
      "midi": 56,
      "hit": false,
      "t": 66503.43000000004,
      "d": 743.0062499999913,
      "v": 49
    },
    {
      "midi": 60,
      "hit": false,
      "t": 66503.43000000004,
      "d": 743.0062499999913,
      "v": 40
    },
    {
      "midi": 63,
      "hit": false,
      "t": 66503.43000000004,
      "d": 795.453749999986,
      "v": 40
    },
    {
      "midi": 82,
      "hit": false,
      "t": 66503.43000000025,
      "d": 39.335625000006985,
      "v": 82
    },
    {
      "midi": 63,
      "hit": false,
      "t": 66512.17125000026,
      "d": 4.3706249999959255,
      "v": 82
    },
    {
      "midi": 82,
      "hit": false,
      "t": 66713.22000000026,
      "d": 30.594375000000582,
      "v": 45
    },
    {
      "midi": 60,
      "hit": false,
      "t": 66721.96125000027,
      "d": 4.3706249999959255,
      "v": 82
    },
    {
      "midi": 62,
      "hit": false,
      "t": 66721.96125000027,
      "d": 4.3706249999959255,
      "v": 95
    },
    {
      "midi": 60,
      "hit": false,
      "t": 66818.11500000027,
      "d": 4.3706249999959255,
      "v": 59
    },
    {
      "midi": 56,
      "hit": false,
      "t": 66923.00999999985,
      "d": 187.93687499999942,
      "v": 104
    },
    {
      "midi": 60,
      "hit": false,
      "t": 66923.00999999985,
      "d": 187.93687499999942,
      "v": 104
    },
    {
      "midi": 32,
      "hit": false,
      "t": 66923.00999999997,
      "d": 144.2306249999965,
      "v": 94
    },
    {
      "midi": 60,
      "hit": false,
      "t": 66923.01000000026,
      "d": 4.3706249999959255,
      "v": 42
    },
    {
      "midi": 64,
      "hit": false,
      "t": 66923.01000000026,
      "d": 4.3706249999959255,
      "v": 82
    },
    {
      "midi": 82,
      "hit": false,
      "t": 66927.38062500025,
      "d": 30.594375000000582,
      "v": 67
    },
    {
      "midi": 61,
      "hit": false,
      "t": 67132.79999999984,
      "d": 375.87374999999884,
      "v": 104
    },
    {
      "midi": 64,
      "hit": false,
      "t": 67132.79999999984,
      "d": 375.87374999999884,
      "v": 104
    },
    {
      "midi": 37,
      "hit": false,
      "t": 67132.79999999996,
      "d": 506.992499999993,
      "v": 99
    },
    {
      "midi": 76,
      "hit": false,
      "t": 67132.80000000002,
      "d": 1131.991875000007,
      "v": 104
    },
    {
      "midi": 49,
      "hit": false,
      "t": 67132.80000000003,
      "d": 83.04187499999534,
      "v": 76
    },
    {
      "midi": 52,
      "hit": false,
      "t": 67132.80000000024,
      "d": 78.67124999999942,
      "v": 47
    },
    {
      "midi": 61,
      "hit": false,
      "t": 67132.80000000024,
      "d": 78.67124999999942,
      "v": 51
    },
    {
      "midi": 37,
      "hit": false,
      "t": 67132.80000000024,
      "d": 196.67812500000582,
      "v": 58
    },
    {
      "midi": 82,
      "hit": false,
      "t": 67132.80000000025,
      "d": 39.335625000006985,
      "v": 82
    },
    {
      "midi": 61,
      "hit": false,
      "t": 67141.54125000026,
      "d": 4.3706249999959255,
      "v": 62
    },
    {
      "midi": 49,
      "hit": false,
      "t": 67342.59000000003,
      "d": 253.4962499999965,
      "v": 28
    },
    {
      "midi": 82,
      "hit": false,
      "t": 67351.33125000025,
      "d": 30.594375000000582,
      "v": 42
    },
    {
      "midi": 64,
      "hit": false,
      "t": 67456.22625000025,
      "d": 4.3706249999959255,
      "v": 37
    },
    {
      "midi": 56,
      "hit": false,
      "t": 67552.38000000002,
      "d": 201.04875000000175,
      "v": 57
    },
    {
      "midi": 61,
      "hit": false,
      "t": 67552.38000000002,
      "d": 476.39812499999243,
      "v": 61
    },
    {
      "midi": 61,
      "hit": false,
      "t": 67552.38000000024,
      "d": 922.2018749999988,
      "v": 62
    },
    {
      "midi": 68,
      "hit": false,
      "t": 67556.75062500023,
      "d": 922.2018749999988,
      "v": 62
    },
    {
      "midi": 64,
      "hit": false,
      "t": 67561.12125000003,
      "d": 463.2862499999901,
      "v": 64
    },
    {
      "midi": 56,
      "hit": false,
      "t": 67561.12125000023,
      "d": 922.2018749999988,
      "v": 61
    },
    {
      "midi": 60,
      "hit": false,
      "t": 67561.12125000024,
      "d": 4.3706249999959255,
      "v": 85
    },
    {
      "midi": 62,
      "hit": false,
      "t": 67561.12125000024,
      "d": 4.3706249999959255,
      "v": 82
    },
    {
      "midi": 82,
      "hit": false,
      "t": 67561.12125000024,
      "d": 30.594375000000582,
      "v": 47
    },
    {
      "midi": 61,
      "hit": false,
      "t": 67762.16999999984,
      "d": 187.93687499999942,
      "v": 104
    },
    {
      "midi": 64,
      "hit": false,
      "t": 67762.16999999984,
      "d": 187.93687499999942,
      "v": 104
    },
    {
      "midi": 37,
      "hit": false,
      "t": 67762.16999999995,
      "d": 78.67124999999942,
      "v": 99
    },
    {
      "midi": 82,
      "hit": false,
      "t": 67762.17000000025,
      "d": 39.335625000006985,
      "v": 82
    },
    {
      "midi": 61,
      "hit": false,
      "t": 67770.91125000025,
      "d": 4.3706249999959255,
      "v": 70
    },
    {
      "midi": 64,
      "hit": false,
      "t": 67770.91125000025,
      "d": 4.3706249999959255,
      "v": 82
    },
    {
      "midi": 61,
      "hit": false,
      "t": 67971.95999999983,
      "d": 375.87374999999884,
      "v": 104
    },
    {
      "midi": 64,
      "hit": false,
      "t": 67971.95999999983,
      "d": 375.87374999999884,
      "v": 104
    },
    {
      "midi": 37,
      "hit": false,
      "t": 67971.95999999995,
      "d": 502.6218749999971,
      "v": 99
    },
    {
      "midi": 49,
      "hit": false,
      "t": 67971.96000000002,
      "d": 222.90187499999593,
      "v": 63
    },
    {
      "midi": 56,
      "hit": false,
      "t": 67971.96000000002,
      "d": 712.4118749999907,
      "v": 54
    },
    {
      "midi": 82,
      "hit": false,
      "t": 67980.70125000025,
      "d": 30.594375000000582,
      "v": 53
    },
    {
      "midi": 64,
      "hit": false,
      "t": 68181.75000000001,
      "d": 568.1812499999942,
      "v": 45
    },
    {
      "midi": 82,
      "hit": false,
      "t": 68181.75000000025,
      "d": 30.594375000000582,
      "v": 39
    },
    {
      "midi": 64,
      "hit": false,
      "t": 68295.38625000024,
      "d": 4.3706249999959255,
      "v": 73
    },
    {
      "midi": 71,
      "hit": false,
      "t": 68391.54000000002,
      "d": 187.93687499999942,
      "v": 104
    },
    {
      "midi": 73,
      "hit": false,
      "t": 68391.54000000002,
      "d": 187.93687499999942,
      "v": 104
    },
    {
      "midi": 62,
      "hit": false,
      "t": 68395.91062500024,
      "d": 4.3706249999959255,
      "v": 88
    },
    {
      "midi": 60,
      "hit": false,
      "t": 68400.28125000023,
      "d": 4.3706249999959255,
      "v": 82
    },
    {
      "midi": 82,
      "hit": false,
      "t": 68400.28125000023,
      "d": 39.33562499999243,
      "v": 82
    },
    {
      "midi": 61,
      "hit": false,
      "t": 68601.32999999983,
      "d": 187.93687499999942,
      "v": 104
    },
    {
      "midi": 64,
      "hit": false,
      "t": 68601.32999999983,
      "d": 187.93687499999942,
      "v": 104
    },
    {
      "midi": 37,
      "hit": false,
      "t": 68601.32999999994,
      "d": 74.30062500000349,
      "v": 99
    },
    {
      "midi": 70,
      "hit": false,
      "t": 68601.33000000002,
      "d": 1315.558124999996,
      "v": 104
    },
    {
      "midi": 78,
      "hit": false,
      "t": 68601.33000000002,
      "d": 1315.558124999996,
      "v": 104
    },
    {
      "midi": 63,
      "hit": false,
      "t": 68605.70062500023,
      "d": 4.3706249999959255,
      "v": 82
    },
    {
      "midi": 61,
      "hit": false,
      "t": 68610.07125000023,
      "d": 4.3706249999959255,
      "v": 62
    },
    {
      "midi": 82,
      "hit": false,
      "t": 68610.07125000023,
      "d": 30.594375000000582,
      "v": 58
    },
    {
      "midi": 61,
      "hit": false,
      "t": 68806.74937500023,
      "d": 196.67812500000582,
      "v": 59
    },
    {
      "midi": 66,
      "hit": false,
      "t": 68806.74937500023,
      "d": 196.67812500000582,
      "v": 63
    },
    {
      "midi": 54,
      "hit": false,
      "t": 68811.11999999982,
      "d": 375.87374999999884,
      "v": 104
    },
    {
      "midi": 61,
      "hit": false,
      "t": 68811.11999999982,
      "d": 375.87374999999884,
      "v": 104
    },
    {
      "midi": 30,
      "hit": false,
      "t": 68811.11999999995,
      "d": 607.5168750000012,
      "v": 99
    },
    {
      "midi": 58,
      "hit": false,
      "t": 68815.49062500024,
      "d": 196.67812500000582,
      "v": 61
    },
    {
      "midi": 82,
      "hit": false,
      "t": 68819.86125000022,
      "d": 30.594375000000582,
      "v": 34
    },
    {
      "midi": 64,
      "hit": false,
      "t": 69025.28062500022,
      "d": 4.3706249999959255,
      "v": 55
    },
    {
      "midi": 82,
      "hit": false,
      "t": 69029.65125000021,
      "d": 30.594375000000582,
      "v": 39
    },
    {
      "midi": 58,
      "hit": false,
      "t": 69226.32937500025,
      "d": 1215.0337499999878,
      "v": 67
    },
    {
      "midi": 66,
      "hit": false,
      "t": 69230.70000000024,
      "d": 1215.0337499999878,
      "v": 67
    },
    {
      "midi": 66,
      "hit": false,
      "t": 69235.07062500001,
      "d": 218.53125,
      "v": 52
    },
    {
      "midi": 61,
      "hit": false,
      "t": 69235.07062500001,
      "d": 257.86687499999243,
      "v": 60
    },
    {
      "midi": 61,
      "hit": false,
      "t": 69235.07062500024,
      "d": 1215.0337499999878,
      "v": 67
    },
    {
      "midi": 60,
      "hit": false,
      "t": 69239.4412500002,
      "d": 4.3706249999959255,
      "v": 82
    },
    {
      "midi": 62,
      "hit": false,
      "t": 69239.4412500002,
      "d": 4.3706249999959255,
      "v": 82
    },
    {
      "midi": 82,
      "hit": false,
      "t": 69239.4412500002,
      "d": 39.33562499999243,
      "v": 82
    },
    {
      "midi": 54,
      "hit": false,
      "t": 69440.48999999982,
      "d": 187.93687499999942,
      "v": 104
    },
    {
      "midi": 61,
      "hit": false,
      "t": 69440.48999999982,
      "d": 187.93687499999942,
      "v": 104
    },
    {
      "midi": 37,
      "hit": false,
      "t": 69440.48999999995,
      "d": 131.11874999999418,
      "v": 98
    },
    {
      "midi": 82,
      "hit": false,
      "t": 69440.4900000002,
      "d": 30.59437499998603,
      "v": 42
    },
    {
      "midi": 58,
      "hit": false,
      "t": 69444.860625,
      "d": 43.70625000000291,
      "v": 43
    },
    {
      "midi": 62,
      "hit": false,
      "t": 69444.86062500019,
      "d": 4.3706249999959255,
      "v": 68
    },
    {
      "midi": 61,
      "hit": false,
      "t": 69449.23125000019,
      "d": 4.3706249999959255,
      "v": 82
    },
    {
      "midi": 54,
      "hit": false,
      "t": 69650.27999999981,
      "d": 375.87374999999884,
      "v": 104
    },
    {
      "midi": 61,
      "hit": false,
      "t": 69650.27999999981,
      "d": 375.87374999999884,
      "v": 104
    },
    {
      "midi": 37,
      "hit": false,
      "t": 69650.27999999994,
      "d": 572.5518750000047,
      "v": 99
    },
    {
      "midi": 61,
      "hit": false,
      "t": 69650.28,
      "d": 148.60125000000698,
      "v": 60
    },
    {
      "midi": 70,
      "hit": false,
      "t": 69650.28,
      "d": 148.60125000000698,
      "v": 60
    },
    {
      "midi": 64,
      "hit": false,
      "t": 69650.28000000017,
      "d": 4.3706249999959255,
      "v": 82
    },
    {
      "midi": 82,
      "hit": false,
      "t": 69659.02125000017,
      "d": 30.594375000000582,
      "v": 52
    },
    {
      "midi": 58,
      "hit": false,
      "t": 69860.07,
      "d": 743.0062499999913,
      "v": 49
    },
    {
      "midi": 61,
      "hit": false,
      "t": 69860.07,
      "d": 743.0062499999913,
      "v": 40
    },
    {
      "midi": 66,
      "hit": false,
      "t": 69860.07,
      "d": 795.453749999986,
      "v": 40
    },
    {
      "midi": 82,
      "hit": false,
      "t": 69860.07000000017,
      "d": 39.335625000006985,
      "v": 82
    },
    {
      "midi": 63,
      "hit": false,
      "t": 69868.81125000017,
      "d": 4.3706249999959255,
      "v": 82
    },
    {
      "midi": 82,
      "hit": false,
      "t": 70069.86000000018,
      "d": 30.594375000000582,
      "v": 45
    },
    {
      "midi": 60,
      "hit": false,
      "t": 70078.60125000018,
      "d": 4.3706249999959255,
      "v": 82
    },
    {
      "midi": 62,
      "hit": false,
      "t": 70078.60125000018,
      "d": 4.3706249999959255,
      "v": 95
    },
    {
      "midi": 60,
      "hit": false,
      "t": 70174.75500000018,
      "d": 4.3706249999959255,
      "v": 59
    },
    {
      "midi": 54,
      "hit": false,
      "t": 70279.6499999998,
      "d": 187.93687499999942,
      "v": 104
    },
    {
      "midi": 61,
      "hit": false,
      "t": 70279.6499999998,
      "d": 187.93687499999942,
      "v": 104
    },
    {
      "midi": 30,
      "hit": false,
      "t": 70279.64999999995,
      "d": 144.2306249999965,
      "v": 94
    },
    {
      "midi": 60,
      "hit": false,
      "t": 70279.65000000017,
      "d": 4.3706249999959255,
      "v": 42
    },
    {
      "midi": 64,
      "hit": false,
      "t": 70279.65000000017,
      "d": 4.3706249999959255,
      "v": 82
    },
    {
      "midi": 82,
      "hit": false,
      "t": 70284.02062500016,
      "d": 30.594375000000582,
      "v": 67
    },
    {
      "midi": 47,
      "hit": false,
      "t": 70489.4399999998,
      "d": 375.87374999999884,
      "v": 104
    },
    {
      "midi": 54,
      "hit": false,
      "t": 70489.4399999998,
      "d": 375.87374999999884,
      "v": 104
    },
    {
      "midi": 35,
      "hit": false,
      "t": 70489.43999999994,
      "d": 506.992499999993,
      "v": 99
    },
    {
      "midi": 47,
      "hit": false,
      "t": 70489.44,
      "d": 83.04187499999534,
      "v": 76
    },
    {
      "midi": 82,
      "hit": false,
      "t": 70489.44000000016,
      "d": 39.335625000006985,
      "v": 82
    },
    {
      "midi": 50,
      "hit": false,
      "t": 70489.44000000024,
      "d": 78.67124999999942,
      "v": 47
    },
    {
      "midi": 59,
      "hit": false,
      "t": 70489.44000000024,
      "d": 78.67124999999942,
      "v": 51
    },
    {
      "midi": 47,
      "hit": false,
      "t": 70489.44000000024,
      "d": 196.67812500000582,
      "v": 58
    },
    {
      "midi": 61,
      "hit": false,
      "t": 70498.18125000017,
      "d": 4.3706249999959255,
      "v": 62
    },
    {
      "midi": 47,
      "hit": false,
      "t": 70699.23,
      "d": 253.4962499999965,
      "v": 28
    },
    {
      "midi": 82,
      "hit": false,
      "t": 70707.97125000016,
      "d": 30.594375000000582,
      "v": 42
    },
    {
      "midi": 64,
      "hit": false,
      "t": 70812.86625000017,
      "d": 4.3706249999959255,
      "v": 37
    },
    {
      "midi": 54,
      "hit": false,
      "t": 70909.01999999999,
      "d": 201.04875000000175,
      "v": 57
    },
    {
      "midi": 59,
      "hit": false,
      "t": 70909.01999999999,
      "d": 476.39812499999243,
      "v": 61
    },
    {
      "midi": 74,
      "hit": false,
      "t": 70909.02000000002,
      "d": 187.93687499999942,
      "v": 104
    },
    {
      "midi": 59,
      "hit": false,
      "t": 70909.02000000024,
      "d": 922.2018749999988,
      "v": 62
    },
    {
      "midi": 66,
      "hit": false,
      "t": 70913.39062500023,
      "d": 922.2018749999988,
      "v": 62
    },
    {
      "midi": 62,
      "hit": false,
      "t": 70917.76125,
      "d": 463.2862499999901,
      "v": 64
    },
    {
      "midi": 60,
      "hit": false,
      "t": 70917.76125000016,
      "d": 4.3706249999959255,
      "v": 85
    },
    {
      "midi": 62,
      "hit": false,
      "t": 70917.76125000016,
      "d": 4.3706249999959255,
      "v": 82
    },
    {
      "midi": 82,
      "hit": false,
      "t": 70917.76125000016,
      "d": 30.594375000000582,
      "v": 47
    },
    {
      "midi": 54,
      "hit": false,
      "t": 70917.76125000023,
      "d": 922.2018749999988,
      "v": 61
    },
    {
      "midi": 47,
      "hit": false,
      "t": 71118.8099999998,
      "d": 187.93687499999942,
      "v": 104
    },
    {
      "midi": 54,
      "hit": false,
      "t": 71118.8099999998,
      "d": 187.93687499999942,
      "v": 104
    },
    {
      "midi": 35,
      "hit": false,
      "t": 71118.80999999994,
      "d": 78.67124999999942,
      "v": 99
    },
    {
      "midi": 74,
      "hit": false,
      "t": 71118.81000000001,
      "d": 187.93687499999942,
      "v": 104
    },
    {
      "midi": 82,
      "hit": false,
      "t": 71118.81000000016,
      "d": 39.335625000006985,
      "v": 82
    },
    {
      "midi": 61,
      "hit": false,
      "t": 71127.55125000016,
      "d": 4.3706249999959255,
      "v": 70
    },
    {
      "midi": 64,
      "hit": false,
      "t": 71127.55125000016,
      "d": 4.3706249999959255,
      "v": 82
    },
    {
      "midi": 47,
      "hit": false,
      "t": 71328.59999999979,
      "d": 375.87374999999884,
      "v": 104
    },
    {
      "midi": 54,
      "hit": false,
      "t": 71328.59999999979,
      "d": 375.87374999999884,
      "v": 104
    },
    {
      "midi": 35,
      "hit": false,
      "t": 71328.59999999993,
      "d": 502.6218749999971,
      "v": 99
    },
    {
      "midi": 47,
      "hit": false,
      "t": 71328.59999999999,
      "d": 222.90187499999593,
      "v": 63
    },
    {
      "midi": 74,
      "hit": false,
      "t": 71328.6,
      "d": 375.87374999999884,
      "v": 104
    },
    {
      "midi": 82,
      "hit": false,
      "t": 71337.34125000016,
      "d": 30.594375000000582,
      "v": 53
    },
    {
      "midi": 62,
      "hit": false,
      "t": 71538.38999999998,
      "d": 568.1812500000087,
      "v": 45
    },
    {
      "midi": 82,
      "hit": false,
      "t": 71538.39000000016,
      "d": 30.594375000000582,
      "v": 39
    },
    {
      "midi": 64,
      "hit": false,
      "t": 71652.02625000016,
      "d": 4.3706249999959255,
      "v": 73
    },
    {
      "midi": 76,
      "hit": false,
      "t": 71748.18000000001,
      "d": 187.93687499999942,
      "v": 104
    },
    {
      "midi": 62,
      "hit": false,
      "t": 71752.55062500015,
      "d": 4.3706249999959255,
      "v": 88
    },
    {
      "midi": 60,
      "hit": false,
      "t": 71756.92125000014,
      "d": 4.3706249999959255,
      "v": 82
    },
    {
      "midi": 82,
      "hit": false,
      "t": 71756.92125000014,
      "d": 39.33562499999243,
      "v": 82
    },
    {
      "midi": 47,
      "hit": false,
      "t": 71957.96999999978,
      "d": 187.93687499999942,
      "v": 104
    },
    {
      "midi": 54,
      "hit": false,
      "t": 71957.96999999978,
      "d": 187.93687499999942,
      "v": 104
    },
    {
      "midi": 30,
      "hit": false,
      "t": 71957.96999999993,
      "d": 74.30062500000349,
      "v": 99
    },
    {
      "midi": 54,
      "hit": false,
      "t": 71957.96999999999,
      "d": 83.0418750000099,
      "v": 44
    },
    {
      "midi": 76,
      "hit": false,
      "t": 71957.97,
      "d": 187.93687499999942,
      "v": 104
    },
    {
      "midi": 63,
      "hit": false,
      "t": 71962.34062500014,
      "d": 4.3706249999959255,
      "v": 82
    },
    {
      "midi": 54,
      "hit": false,
      "t": 71962.34062500023,
      "d": 782.3418749999983,
      "v": 61
    },
    {
      "midi": 66,
      "hit": false,
      "t": 71962.34062500023,
      "d": 1569.054375000007,
      "v": 66
    },
    {
      "midi": 59,
      "hit": false,
      "t": 71966.71125,
      "d": 227.2725000000064,
      "v": 36
    },
    {
      "midi": 61,
      "hit": false,
      "t": 71966.71125000014,
      "d": 4.3706249999959255,
      "v": 62
    },
    {
      "midi": 82,
      "hit": false,
      "t": 71966.71125000014,
      "d": 30.594375000000582,
      "v": 58
    },
    {
      "midi": 50,
      "hit": false,
      "t": 71966.71125000023,
      "d": 1516.6068750000122,
      "v": 46
    },
    {
      "midi": 47,
      "hit": false,
      "t": 72167.75999999978,
      "d": 375.87374999999884,
      "v": 104
    },
    {
      "midi": 54,
      "hit": false,
      "t": 72167.75999999978,
      "d": 375.87374999999884,
      "v": 104
    },
    {
      "midi": 35,
      "hit": false,
      "t": 72167.75999999994,
      "d": 607.5168750000012,
      "v": 99
    },
    {
      "midi": 78,
      "hit": false,
      "t": 72167.76,
      "d": 751.7474999999977,
      "v": 104
    },
    {
      "midi": 54,
      "hit": false,
      "t": 72167.76,
      "d": 56.81812500000524,
      "v": 50
    },
    {
      "midi": 47,
      "hit": false,
      "t": 72167.76,
      "d": 240.38437500000873,
      "v": 58
    },
    {
      "midi": 82,
      "hit": false,
      "t": 72176.50125000013,
      "d": 30.594375000000582,
      "v": 34
    },
    {
      "midi": 64,
      "hit": false,
      "t": 72381.92062500013,
      "d": 4.3706249999959255,
      "v": 55
    },
    {
      "midi": 82,
      "hit": false,
      "t": 72386.29125000013,
      "d": 30.594375000000582,
      "v": 39
    },
    {
      "midi": 59,
      "hit": false,
      "t": 72587.34,
      "d": 270.9787500000093,
      "v": 50
    },
    {
      "midi": 62,
      "hit": false,
      "t": 72587.34,
      "d": 585.6637500000215,
      "v": 54
    },
    {
      "midi": 60,
      "hit": false,
      "t": 72596.08125000012,
      "d": 4.3706249999959255,
      "v": 82
    },
    {
      "midi": 62,
      "hit": false,
      "t": 72596.08125000012,
      "d": 4.3706249999959255,
      "v": 82
    },
    {
      "midi": 82,
      "hit": false,
      "t": 72596.08125000012,
      "d": 39.33562499999243,
      "v": 82
    },
    {
      "midi": 47,
      "hit": false,
      "t": 72797.12999999977,
      "d": 187.93687499999942,
      "v": 104
    },
    {
      "midi": 54,
      "hit": false,
      "t": 72797.12999999977,
      "d": 187.93687499999942,
      "v": 104
    },
    {
      "midi": 30,
      "hit": false,
      "t": 72797.12999999993,
      "d": 131.11874999999418,
      "v": 98
    },
    {
      "midi": 82,
      "hit": false,
      "t": 72797.1300000001,
      "d": 30.59437499998603,
      "v": 42
    },
    {
      "midi": 62,
      "hit": false,
      "t": 72801.5006250001,
      "d": 4.3706249999959255,
      "v": 68
    },
    {
      "midi": 59,
      "hit": false,
      "t": 72801.50062500023,
      "d": 756.1181250000081,
      "v": 61
    },
    {
      "midi": 61,
      "hit": false,
      "t": 72805.8712500001,
      "d": 4.3706249999959255,
      "v": 82
    },
    {
      "midi": 47,
      "hit": false,
      "t": 73006.91999999977,
      "d": 375.87374999999884,
      "v": 104
    },
    {
      "midi": 54,
      "hit": false,
      "t": 73006.91999999977,
      "d": 375.87374999999884,
      "v": 104
    },
    {
      "midi": 30,
      "hit": false,
      "t": 73006.91999999993,
      "d": 572.5518750000047,
      "v": 99
    },
    {
      "midi": 73,
      "hit": false,
      "t": 73006.92,
      "d": 751.7474999999977,
      "v": 104
    },
    {
      "midi": 47,
      "hit": false,
      "t": 73006.92000000001,
      "d": 244.75500000000466,
      "v": 63
    },
    {
      "midi": 54,
      "hit": false,
      "t": 73006.92000000001,
      "d": 244.75500000000466,
      "v": 63
    },
    {
      "midi": 64,
      "hit": false,
      "t": 73006.92000000009,
      "d": 4.3706249999959255,
      "v": 82
    },
    {
      "midi": 82,
      "hit": false,
      "t": 73015.66125000008,
      "d": 30.594375000000582,
      "v": 52
    },
    {
      "midi": 59,
      "hit": false,
      "t": 73216.71000000002,
      "d": 227.27249999999185,
      "v": 40
    },
    {
      "midi": 62,
      "hit": false,
      "t": 73216.71000000002,
      "d": 847.9012499999953,
      "v": 45
    },
    {
      "midi": 82,
      "hit": false,
      "t": 73216.71000000008,
      "d": 39.335625000006985,
      "v": 82
    },
    {
      "midi": 63,
      "hit": false,
      "t": 73225.45125000009,
      "d": 4.3706249999959255,
      "v": 82
    },
    {
      "midi": 82,
      "hit": false,
      "t": 73426.50000000009,
      "d": 30.594375000000582,
      "v": 45
    },
    {
      "midi": 60,
      "hit": false,
      "t": 73435.2412500001,
      "d": 4.3706249999959255,
      "v": 82
    },
    {
      "midi": 62,
      "hit": false,
      "t": 73435.2412500001,
      "d": 4.3706249999959255,
      "v": 95
    },
    {
      "midi": 60,
      "hit": false,
      "t": 73531.39500000009,
      "d": 4.3706249999959255,
      "v": 59
    },
    {
      "midi": 47,
      "hit": false,
      "t": 73636.28999999976,
      "d": 187.93687499999942,
      "v": 104
    },
    {
      "midi": 54,
      "hit": false,
      "t": 73636.28999999976,
      "d": 187.93687499999942,
      "v": 104
    },
    {
      "midi": 35,
      "hit": false,
      "t": 73636.28999999994,
      "d": 144.2306249999965,
      "v": 94
    },
    {
      "midi": 54,
      "hit": false,
      "t": 73636.29000000001,
      "d": 187.93687499999942,
      "v": 37
    },
    {
      "midi": 47,
      "hit": false,
      "t": 73636.29000000001,
      "d": 201.04875000000175,
      "v": 35
    },
    {
      "midi": 60,
      "hit": false,
      "t": 73636.29000000008,
      "d": 4.3706249999959255,
      "v": 42
    },
    {
      "midi": 64,
      "hit": false,
      "t": 73636.29000000008,
      "d": 4.3706249999959255,
      "v": 82
    },
    {
      "midi": 50,
      "hit": false,
      "t": 73636.29000000024,
      "d": 78.67124999999942,
      "v": 47
    },
    {
      "midi": 54,
      "hit": false,
      "t": 73636.29000000024,
      "d": 78.67124999999942,
      "v": 55
    },
    {
      "midi": 82,
      "hit": false,
      "t": 73640.66062500008,
      "d": 30.594375000000582,
      "v": 67
    },
    {
      "midi": 52,
      "hit": false,
      "t": 73846.07999999975,
      "d": 375.87374999999884,
      "v": 104
    },
    {
      "midi": 28,
      "hit": false,
      "t": 73846.07999999993,
      "d": 506.992499999993,
      "v": 99
    },
    {
      "midi": 62,
      "hit": false,
      "t": 73846.08,
      "d": 2259.6131250000035,
      "v": 104
    },
    {
      "midi": 66,
      "hit": false,
      "t": 73846.08,
      "d": 2259.6131250000035,
      "v": 104
    },
    {
      "midi": 71,
      "hit": false,
      "t": 73846.08,
      "d": 2259.6131250000035,
      "v": 104
    },
    {
      "midi": 47,
      "hit": false,
      "t": 73846.08000000002,
      "d": 83.04187499999534,
      "v": 76
    },
    {
      "midi": 82,
      "hit": false,
      "t": 73846.08000000007,
      "d": 39.335625000006985,
      "v": 82
    },
    {
      "midi": 50,
      "hit": false,
      "t": 73846.08000000023,
      "d": 78.67124999999942,
      "v": 47
    },
    {
      "midi": 59,
      "hit": false,
      "t": 73846.08000000023,
      "d": 78.67124999999942,
      "v": 51
    },
    {
      "midi": 40,
      "hit": false,
      "t": 73846.08000000023,
      "d": 196.67812500000582,
      "v": 58
    },
    {
      "midi": 61,
      "hit": false,
      "t": 73854.82125000008,
      "d": 4.3706249999959255,
      "v": 62
    },
    {
      "midi": 47,
      "hit": false,
      "t": 74055.87000000001,
      "d": 253.49625000001106,
      "v": 28
    },
    {
      "midi": 82,
      "hit": false,
      "t": 74064.61125000007,
      "d": 30.594375000000582,
      "v": 42
    },
    {
      "midi": 64,
      "hit": false,
      "t": 74169.50625000008,
      "d": 4.3706249999959255,
      "v": 37
    },
    {
      "midi": 54,
      "hit": false,
      "t": 74265.66000000002,
      "d": 201.04875000000175,
      "v": 57
    },
    {
      "midi": 59,
      "hit": false,
      "t": 74265.66000000002,
      "d": 476.39812499999243,
      "v": 61
    },
    {
      "midi": 59,
      "hit": false,
      "t": 74265.66000000024,
      "d": 922.2018749999988,
      "v": 62
    },
    {
      "midi": 66,
      "hit": false,
      "t": 74270.03062500023,
      "d": 922.2018749999988,
      "v": 62
    },
    {
      "midi": 62,
      "hit": false,
      "t": 74274.40125000002,
      "d": 463.2862499999901,
      "v": 64
    },
    {
      "midi": 60,
      "hit": false,
      "t": 74274.40125000007,
      "d": 4.3706249999959255,
      "v": 85
    },
    {
      "midi": 62,
      "hit": false,
      "t": 74274.40125000007,
      "d": 4.3706249999959255,
      "v": 82
    },
    {
      "midi": 82,
      "hit": false,
      "t": 74274.40125000007,
      "d": 30.594375000000582,
      "v": 47
    },
    {
      "midi": 54,
      "hit": false,
      "t": 74274.40125000023,
      "d": 922.2018749999988,
      "v": 61
    },
    {
      "midi": 52,
      "hit": false,
      "t": 74475.44999999975,
      "d": 187.93687499999942,
      "v": 104
    },
    {
      "midi": 40,
      "hit": false,
      "t": 74475.44999999992,
      "d": 78.67124999999942,
      "v": 99
    },
    {
      "midi": 82,
      "hit": false,
      "t": 74475.45000000007,
      "d": 39.335625000006985,
      "v": 82
    },
    {
      "midi": 61,
      "hit": false,
      "t": 74484.19125000008,
      "d": 4.3706249999959255,
      "v": 70
    },
    {
      "midi": 64,
      "hit": false,
      "t": 74484.19125000008,
      "d": 4.3706249999959255,
      "v": 82
    },
    {
      "midi": 52,
      "hit": false,
      "t": 74685.23999999974,
      "d": 375.87374999999884,
      "v": 104
    },
    {
      "midi": 40,
      "hit": false,
      "t": 74685.23999999992,
      "d": 502.6218749999971,
      "v": 99
    },
    {
      "midi": 47,
      "hit": false,
      "t": 74685.24000000002,
      "d": 222.90187499999593,
      "v": 63
    },
    {
      "midi": 82,
      "hit": false,
      "t": 74693.98125000007,
      "d": 30.594375000000582,
      "v": 53
    },
    {
      "midi": 62,
      "hit": false,
      "t": 74895.03000000001,
      "d": 568.1812500000087,
      "v": 45
    },
    {
      "midi": 82,
      "hit": false,
      "t": 74895.03000000007,
      "d": 30.594375000000582,
      "v": 39
    },
    {
      "midi": 64,
      "hit": false,
      "t": 75008.66625000007,
      "d": 4.3706249999959255,
      "v": 73
    },
    {
      "midi": 62,
      "hit": false,
      "t": 75109.19062500006,
      "d": 4.3706249999959255,
      "v": 88
    },
    {
      "midi": 60,
      "hit": false,
      "t": 75113.56125000006,
      "d": 4.3706249999959255,
      "v": 82
    },
    {
      "midi": 82,
      "hit": false,
      "t": 75113.56125000006,
      "d": 39.33562499999243,
      "v": 82
    },
    {
      "midi": 52,
      "hit": false,
      "t": 75314.60999999974,
      "d": 375.87374999999884,
      "v": 104
    },
    {
      "midi": 40,
      "hit": false,
      "t": 75314.60999999991,
      "d": 74.30062500000349,
      "v": 99
    },
    {
      "midi": 54,
      "hit": false,
      "t": 75314.61000000002,
      "d": 83.0418750000099,
      "v": 44
    },
    {
      "midi": 63,
      "hit": false,
      "t": 75318.98062500005,
      "d": 4.3706249999959255,
      "v": 82
    },
    {
      "midi": 54,
      "hit": false,
      "t": 75318.98062500023,
      "d": 205.41937499999767,
      "v": 61
    },
    {
      "midi": 66,
      "hit": false,
      "t": 75318.98062500023,
      "d": 205.41937499999767,
      "v": 66
    },
    {
      "midi": 59,
      "hit": false,
      "t": 75323.35125000002,
      "d": 227.27249999999185,
      "v": 36
    },
    {
      "midi": 61,
      "hit": false,
      "t": 75323.35125000005,
      "d": 4.3706249999959255,
      "v": 62
    },
    {
      "midi": 82,
      "hit": false,
      "t": 75323.35125000005,
      "d": 30.594375000000582,
      "v": 58
    },
    {
      "midi": 50,
      "hit": false,
      "t": 75323.35125000023,
      "d": 201.04875000000175,
      "v": 46
    },
    {
      "midi": 28,
      "hit": false,
      "t": 75524.39999999992,
      "d": 423.9506249999977,
      "v": 99
    },
    {
      "midi": 54,
      "hit": false,
      "t": 75524.40000000002,
      "d": 56.81812499999069,
      "v": 50
    },
    {
      "midi": 40,
      "hit": false,
      "t": 75524.40000000023,
      "d": 170.45437500000116,
      "v": 58
    },
    {
      "midi": 47,
      "hit": false,
      "t": 75528.77062500002,
      "d": 196.67812499999127,
      "v": 59
    },
    {
      "midi": 52,
      "hit": false,
      "t": 75734.18999999974,
      "d": 187.93687499999942,
      "v": 104
    },
    {
      "midi": 64,
      "hit": false,
      "t": 75738.56062500006,
      "d": 4.3706249999959255,
      "v": 55
    },
    {
      "midi": 40,
      "hit": false,
      "t": 75742.93125000023,
      "d": 1315.5581250000105,
      "v": 64
    },
    {
      "midi": 52,
      "hit": false,
      "t": 75943.97999999973,
      "d": 187.93687499999942,
      "v": 104
    },
    {
      "midi": 54,
      "hit": false,
      "t": 75943.98000000001,
      "d": 56.81812500000524,
      "v": 50
    },
    {
      "midi": 62,
      "hit": false,
      "t": 75943.98000000001,
      "d": 209.79000000000815,
      "v": 54
    },
    {
      "midi": 47,
      "hit": false,
      "t": 75943.98000000001,
      "d": 222.90187500001048,
      "v": 64
    },
    {
      "midi": 50,
      "hit": false,
      "t": 75943.98000000023,
      "d": 91.78312500000175,
      "v": 59
    },
    {
      "midi": 59,
      "hit": false,
      "t": 75943.98000000023,
      "d": 91.78312500000175,
      "v": 52
    },
    {
      "midi": 63,
      "hit": false,
      "t": 75948.35062500005,
      "d": 4.3706249999959255,
      "v": 86
    },
    {
      "midi": 54,
      "hit": false,
      "t": 75948.35062500022,
      "d": 104.89500000000407,
      "v": 48
    },
    {
      "midi": 66,
      "hit": false,
      "t": 75952.72125000022,
      "d": 74.30062500000349,
      "v": 62
    },
    {
      "midi": 62,
      "hit": false,
      "t": 76048.87500000004,
      "d": 4.3706249999959255,
      "v": 72
    },
    {
      "midi": 52,
      "hit": false,
      "t": 76153.76999999973,
      "d": 187.93687499999942,
      "v": 104
    },
    {
      "midi": 28,
      "hit": false,
      "t": 76153.76999999992,
      "d": 91.78312500000175,
      "v": 99
    },
    {
      "midi": 47,
      "hit": false,
      "t": 76153.77000000022,
      "d": 170.45437500000116,
      "v": 68
    },
    {
      "midi": 63,
      "hit": false,
      "t": 76158.14062500004,
      "d": 4.3706249999959255,
      "v": 86
    },
    {
      "midi": 52,
      "hit": false,
      "t": 76363.55999999972,
      "d": 375.87374999999884,
      "v": 104
    },
    {
      "midi": 28,
      "hit": false,
      "t": 76363.55999999992,
      "d": 415.2093750000058,
      "v": 99
    },
    {
      "midi": 47,
      "hit": false,
      "t": 76363.56000000003,
      "d": 118.0068750000064,
      "v": 63
    },
    {
      "midi": 50,
      "hit": false,
      "t": 76363.56000000023,
      "d": 170.45437500000116,
      "v": 63
    },
    {
      "midi": 76,
      "hit": false,
      "t": 76573.35,
      "d": 187.93687499999942,
      "v": 104
    },
    {
      "midi": 54,
      "hit": false,
      "t": 76573.35000000024,
      "d": 388.98562500000116,
      "v": 48
    },
    {
      "midi": 59,
      "hit": false,
      "t": 76573.35000000024,
      "d": 388.98562500000116,
      "v": 59
    },
    {
      "midi": 64,
      "hit": false,
      "t": 76577.72062500005,
      "d": 4.3706249999959255,
      "v": 92
    },
    {
      "midi": 50,
      "hit": false,
      "t": 76577.72062500023,
      "d": 388.98562500000116,
      "v": 67
    },
    {
      "midi": 66,
      "hit": false,
      "t": 76577.72062500023,
      "d": 388.98562500000116,
      "v": 67
    },
    {
      "midi": 78,
      "hit": false,
      "t": 76783.14,
      "d": 187.93687499999942,
      "v": 104
    },
    {
      "midi": 63,
      "hit": false,
      "t": 76783.14000000004,
      "d": 4.3706249999959255,
      "v": 86
    },
    {
      "midi": 28,
      "hit": false,
      "t": 76992.92999999993,
      "d": 91.78312500000175,
      "v": 99
    },
    {
      "midi": 80,
      "hit": false,
      "t": 76992.93,
      "d": 187.93687499999942,
      "v": 104
    },
    {
      "midi": 54,
      "hit": false,
      "t": 76992.93000000004,
      "d": 26.223750000004657,
      "v": 37
    },
    {
      "midi": 47,
      "hit": false,
      "t": 76992.93000000004,
      "d": 201.04875000000175,
      "v": 35
    },
    {
      "midi": 63,
      "hit": false,
      "t": 76997.30062500003,
      "d": 4.3706249999959255,
      "v": 92
    },
    {
      "midi": 50,
      "hit": false,
      "t": 77202.71999999972,
      "d": 375.87374999999884,
      "v": 104
    },
    {
      "midi": 57,
      "hit": false,
      "t": 77202.71999999972,
      "d": 375.87374999999884,
      "v": 104
    },
    {
      "midi": 38,
      "hit": false,
      "t": 77202.71999999994,
      "d": 506.992499999993,
      "v": 99
    },
    {
      "midi": 81,
      "hit": false,
      "t": 77202.71999999999,
      "d": 375.87374999999884,
      "v": 104
    },
    {
      "midi": 82,
      "hit": false,
      "t": 77202.72000000003,
      "d": 39.335625000006985,
      "v": 82
    },
    {
      "midi": 62,
      "hit": false,
      "t": 77202.72000000004,
      "d": 218.53125,
      "v": 56
    },
    {
      "midi": 66,
      "hit": false,
      "t": 77202.72000000004,
      "d": 288.46125000000757,
      "v": 56
    },
    {
      "midi": 38,
      "hit": false,
      "t": 77202.72000000023,
      "d": 196.67812500000582,
      "v": 58
    },
    {
      "midi": 61,
      "hit": false,
      "t": 77211.46125000004,
      "d": 4.3706249999959255,
      "v": 62
    },
    {
      "midi": 57,
      "hit": false,
      "t": 77416.88062500005,
      "d": 375.87374999999884,
      "v": 38
    },
    {
      "midi": 82,
      "hit": false,
      "t": 77421.25125000003,
      "d": 30.594375000000582,
      "v": 42
    },
    {
      "midi": 64,
      "hit": false,
      "t": 77526.14625000003,
      "d": 4.3706249999959255,
      "v": 37
    },
    {
      "midi": 57,
      "hit": false,
      "t": 77617.92937500024,
      "d": 616.258124999993,
      "v": 67
    },
    {
      "midi": 66,
      "hit": false,
      "t": 77617.92937500024,
      "d": 616.258124999993,
      "v": 67
    },
    {
      "midi": 78,
      "hit": false,
      "t": 77622.29999999999,
      "d": 187.93687499999942,
      "v": 104
    },
    {
      "midi": 50,
      "hit": false,
      "t": 77622.30000000005,
      "d": 236.01374999999825,
      "v": 51
    },
    {
      "midi": 62,
      "hit": false,
      "t": 77622.30000000024,
      "d": 616.258124999993,
      "v": 66
    },
    {
      "midi": 60,
      "hit": false,
      "t": 77631.04125000002,
      "d": 4.3706249999959255,
      "v": 85
    },
    {
      "midi": 62,
      "hit": false,
      "t": 77631.04125000002,
      "d": 4.3706249999959255,
      "v": 82
    },
    {
      "midi": 82,
      "hit": false,
      "t": 77631.04125000002,
      "d": 30.594375000000582,
      "v": 47
    },
    {
      "midi": 50,
      "hit": false,
      "t": 77832.08999999972,
      "d": 187.93687499999942,
      "v": 104
    },
    {
      "midi": 57,
      "hit": false,
      "t": 77832.08999999972,
      "d": 187.93687499999942,
      "v": 104
    },
    {
      "midi": 38,
      "hit": false,
      "t": 77832.08999999994,
      "d": 78.67124999999942,
      "v": 99
    },
    {
      "midi": 81,
      "hit": false,
      "t": 77832.08999999998,
      "d": 375.87374999999884,
      "v": 104
    },
    {
      "midi": 82,
      "hit": false,
      "t": 77832.09000000003,
      "d": 39.335625000006985,
      "v": 82
    },
    {
      "midi": 61,
      "hit": false,
      "t": 77840.83125000003,
      "d": 4.3706249999959255,
      "v": 70
    },
    {
      "midi": 64,
      "hit": false,
      "t": 77840.83125000003,
      "d": 4.3706249999959255,
      "v": 82
    },
    {
      "midi": 50,
      "hit": false,
      "t": 78041.87999999971,
      "d": 375.87374999999884,
      "v": 104
    },
    {
      "midi": 57,
      "hit": false,
      "t": 78041.87999999971,
      "d": 375.87374999999884,
      "v": 104
    },
    {
      "midi": 38,
      "hit": false,
      "t": 78041.87999999993,
      "d": 502.6218749999971,
      "v": 99
    },
    {
      "midi": 62,
      "hit": false,
      "t": 78041.88000000005,
      "d": 275.3493749999907,
      "v": 60
    },
    {
      "midi": 66,
      "hit": false,
      "t": 78041.88000000005,
      "d": 620.6287499999889,
      "v": 59
    },
    {
      "midi": 57,
      "hit": false,
      "t": 78046.25062500004,
      "d": 270.97874999999476,
      "v": 60
    },
    {
      "midi": 82,
      "hit": false,
      "t": 78050.62125000003,
      "d": 30.594375000000582,
      "v": 53
    },
    {
      "midi": 62,
      "hit": false,
      "t": 78247.29937500024,
      "d": 388.98562500000116,
      "v": 67
    },
    {
      "midi": 66,
      "hit": false,
      "t": 78247.29937500024,
      "d": 388.98562500000116,
      "v": 67
    },
    {
      "midi": 78,
      "hit": false,
      "t": 78251.66999999998,
      "d": 375.87374999999884,
      "v": 104
    },
    {
      "midi": 82,
      "hit": false,
      "t": 78251.67000000003,
      "d": 30.594375000000582,
      "v": 39
    },
    {
      "midi": 57,
      "hit": false,
      "t": 78251.67000000023,
      "d": 598.7756250000093,
      "v": 67
    },
    {
      "midi": 64,
      "hit": false,
      "t": 78365.30625000002,
      "d": 4.3706249999959255,
      "v": 73
    },
    {
      "midi": 62,
      "hit": false,
      "t": 78465.83062500002,
      "d": 4.3706249999959255,
      "v": 88
    },
    {
      "midi": 50,
      "hit": false,
      "t": 78465.83062500005,
      "d": 144.2306249999965,
      "v": 60
    },
    {
      "midi": 60,
      "hit": false,
      "t": 78470.20125000001,
      "d": 4.3706249999959255,
      "v": 82
    },
    {
      "midi": 82,
      "hit": false,
      "t": 78470.20125000001,
      "d": 39.33562499999243,
      "v": 82
    },
    {
      "midi": 50,
      "hit": false,
      "t": 78671.24999999971,
      "d": 187.93687499999942,
      "v": 104
    },
    {
      "midi": 57,
      "hit": false,
      "t": 78671.24999999971,
      "d": 187.93687499999942,
      "v": 104
    },
    {
      "midi": 33,
      "hit": false,
      "t": 78671.24999999993,
      "d": 74.30062500000349,
      "v": 99
    },
    {
      "midi": 81,
      "hit": false,
      "t": 78671.24999999999,
      "d": 187.93687499999942,
      "v": 104
    },
    {
      "midi": 62,
      "hit": false,
      "t": 78671.25000000004,
      "d": 297.2024999999994,
      "v": 43
    },
    {
      "midi": 63,
      "hit": false,
      "t": 78675.62062500001,
      "d": 4.3706249999959255,
      "v": 82
    },
    {
      "midi": 57,
      "hit": false,
      "t": 78675.62062500004,
      "d": 292.8318750000035,
      "v": 43
    },
    {
      "midi": 61,
      "hit": false,
      "t": 78679.99125,
      "d": 4.3706249999959255,
      "v": 62
    },
    {
      "midi": 82,
      "hit": false,
      "t": 78679.99125,
      "d": 30.594375000000582,
      "v": 58
    },
    {
      "midi": 62,
      "hit": false,
      "t": 78876.66937500025,
      "d": 4.3706249999959255,
      "v": 59
    },
    {
      "midi": 66,
      "hit": false,
      "t": 78876.66937500025,
      "d": 4.3706249999959255,
      "v": 63
    },
    {
      "midi": 52,
      "hit": false,
      "t": 78881.0399999997,
      "d": 375.87374999999884,
      "v": 104
    },
    {
      "midi": 56,
      "hit": false,
      "t": 78881.0399999997,
      "d": 375.87374999999884,
      "v": 104
    },
    {
      "midi": 28,
      "hit": false,
      "t": 78881.03999999994,
      "d": 607.5168750000012,
      "v": 99
    },
    {
      "midi": 83,
      "hit": false,
      "t": 78881.03999999998,
      "d": 751.7474999999977,
      "v": 104
    },
    {
      "midi": 56,
      "hit": false,
      "t": 78881.04000000004,
      "d": 489.5100000000093,
      "v": 60
    },
    {
      "midi": 56,
      "hit": false,
      "t": 78885.41062500024,
      "d": 196.67812500000582,
      "v": 61
    },
    {
      "midi": 82,
      "hit": false,
      "t": 78889.78125,
      "d": 30.594375000000582,
      "v": 34
    },
    {
      "midi": 64,
      "hit": false,
      "t": 79095.200625,
      "d": 4.3706249999959255,
      "v": 55
    },
    {
      "midi": 82,
      "hit": false,
      "t": 79099.57125,
      "d": 30.594375000000582,
      "v": 39
    },
    {
      "midi": 56,
      "hit": false,
      "t": 79296.24937500025,
      "d": 1215.0337499999878,
      "v": 67
    },
    {
      "midi": 64,
      "hit": false,
      "t": 79300.62000000024,
      "d": 1215.0337499999878,
      "v": 67
    },
    {
      "midi": 59,
      "hit": false,
      "t": 79304.99062500005,
      "d": 65.55937499999709,
      "v": 60
    },
    {
      "midi": 64,
      "hit": false,
      "t": 79304.99062500005,
      "d": 218.53125,
      "v": 52
    },
    {
      "midi": 59,
      "hit": false,
      "t": 79304.99062500024,
      "d": 1215.0337499999878,
      "v": 67
    },
    {
      "midi": 60,
      "hit": false,
      "t": 79309.36124999999,
      "d": 4.3706249999959255,
      "v": 82
    },
    {
      "midi": 62,
      "hit": false,
      "t": 79309.36124999999,
      "d": 4.3706249999959255,
      "v": 82
    },
    {
      "midi": 82,
      "hit": false,
      "t": 79309.36124999999,
      "d": 39.33562499999243,
      "v": 82
    },
    {
      "midi": 52,
      "hit": false,
      "t": 79510.4099999997,
      "d": 187.93687499999942,
      "v": 104
    },
    {
      "midi": 56,
      "hit": false,
      "t": 79510.4099999997,
      "d": 187.93687499999942,
      "v": 104
    },
    {
      "midi": 35,
      "hit": false,
      "t": 79510.40999999993,
      "d": 131.11874999999418,
      "v": 98
    },
    {
      "midi": 82,
      "hit": false,
      "t": 79510.40999999997,
      "d": 30.59437499998603,
      "v": 42
    },
    {
      "midi": 62,
      "hit": false,
      "t": 79514.78062499997,
      "d": 4.3706249999959255,
      "v": 68
    },
    {
      "midi": 56,
      "hit": false,
      "t": 79514.78062500004,
      "d": 323.4262500000041,
      "v": 43
    },
    {
      "midi": 61,
      "hit": false,
      "t": 79519.15124999997,
      "d": 4.3706249999959255,
      "v": 82
    },
    {
      "midi": 52,
      "hit": false,
      "t": 79720.19999999969,
      "d": 375.87374999999884,
      "v": 104
    },
    {
      "midi": 56,
      "hit": false,
      "t": 79720.19999999969,
      "d": 375.87374999999884,
      "v": 104
    },
    {
      "midi": 35,
      "hit": false,
      "t": 79720.19999999992,
      "d": 572.5518750000047,
      "v": 99
    },
    {
      "midi": 64,
      "hit": false,
      "t": 79720.19999999995,
      "d": 4.3706249999959255,
      "v": 82
    },
    {
      "midi": 59,
      "hit": false,
      "t": 79720.20000000004,
      "d": 148.60125000000698,
      "v": 60
    },
    {
      "midi": 68,
      "hit": false,
      "t": 79720.20000000004,
      "d": 148.60125000000698,
      "v": 60
    },
    {
      "midi": 82,
      "hit": false,
      "t": 79728.94124999995,
      "d": 30.594375000000582,
      "v": 52
    },
    {
      "midi": 82,
      "hit": false,
      "t": 79929.98999999995,
      "d": 39.335625000006985,
      "v": 82
    },
    {
      "midi": 76,
      "hit": false,
      "t": 79929.98999999998,
      "d": 187.93687499999942,
      "v": 104
    },
    {
      "midi": 56,
      "hit": false,
      "t": 79929.99000000005,
      "d": 743.0062499999913,
      "v": 49
    },
    {
      "midi": 59,
      "hit": false,
      "t": 79929.99000000005,
      "d": 743.0062499999913,
      "v": 40
    },
    {
      "midi": 64,
      "hit": false,
      "t": 79929.99000000005,
      "d": 795.453749999986,
      "v": 40
    },
    {
      "midi": 63,
      "hit": false,
      "t": 79938.73124999995,
      "d": 4.3706249999959255,
      "v": 82
    },
    {
      "midi": 82,
      "hit": false,
      "t": 80139.77999999996,
      "d": 30.594375000000582,
      "v": 45
    },
    {
      "midi": 78,
      "hit": false,
      "t": 80139.77999999997,
      "d": 187.93687499999942,
      "v": 104
    },
    {
      "midi": 60,
      "hit": false,
      "t": 80148.52124999996,
      "d": 4.3706249999959255,
      "v": 82
    },
    {
      "midi": 62,
      "hit": false,
      "t": 80148.52124999996,
      "d": 4.3706249999959255,
      "v": 95
    },
    {
      "midi": 60,
      "hit": false,
      "t": 80244.67499999996,
      "d": 4.3706249999959255,
      "v": 59
    },
    {
      "midi": 52,
      "hit": false,
      "t": 80349.56999999969,
      "d": 187.93687499999942,
      "v": 104
    },
    {
      "midi": 56,
      "hit": false,
      "t": 80349.56999999969,
      "d": 187.93687499999942,
      "v": 104
    },
    {
      "midi": 28,
      "hit": false,
      "t": 80349.56999999993,
      "d": 144.2306249999965,
      "v": 94
    },
    {
      "midi": 60,
      "hit": false,
      "t": 80349.56999999995,
      "d": 4.3706249999959255,
      "v": 42
    },
    {
      "midi": 64,
      "hit": false,
      "t": 80349.56999999995,
      "d": 4.3706249999959255,
      "v": 82
    },
    {
      "midi": 80,
      "hit": false,
      "t": 80349.56999999996,
      "d": 563.8106249999983,
      "v": 104
    },
    {
      "midi": 82,
      "hit": false,
      "t": 80353.94062499994,
      "d": 30.594375000000582,
      "v": 67
    },
    {
      "midi": 49,
      "hit": false,
      "t": 80559.35999999968,
      "d": 375.87374999999884,
      "v": 104
    },
    {
      "midi": 56,
      "hit": false,
      "t": 80559.35999999968,
      "d": 375.87374999999884,
      "v": 104
    },
    {
      "midi": 37,
      "hit": false,
      "t": 80559.35999999993,
      "d": 506.992499999993,
      "v": 99
    },
    {
      "midi": 82,
      "hit": false,
      "t": 80559.35999999994,
      "d": 39.335625000006985,
      "v": 82
    },
    {
      "midi": 49,
      "hit": false,
      "t": 80559.36000000004,
      "d": 83.04187499999534,
      "v": 76
    },
    {
      "midi": 52,
      "hit": false,
      "t": 80559.36000000023,
      "d": 78.67124999999942,
      "v": 47
    },
    {
      "midi": 61,
      "hit": false,
      "t": 80559.36000000023,
      "d": 78.67124999999942,
      "v": 51
    },
    {
      "midi": 37,
      "hit": false,
      "t": 80559.36000000023,
      "d": 196.67812500000582,
      "v": 58
    },
    {
      "midi": 61,
      "hit": false,
      "t": 80568.10124999995,
      "d": 4.3706249999959255,
      "v": 62
    },
    {
      "midi": 49,
      "hit": false,
      "t": 80769.15000000004,
      "d": 253.4962499999965,
      "v": 28
    },
    {
      "midi": 82,
      "hit": false,
      "t": 80777.89124999994,
      "d": 30.594375000000582,
      "v": 42
    },
    {
      "midi": 64,
      "hit": false,
      "t": 80882.78624999995,
      "d": 4.3706249999959255,
      "v": 37
    },
    {
      "midi": 76,
      "hit": false,
      "t": 80978.93999999996,
      "d": 187.93687499999942,
      "v": 104
    },
    {
      "midi": 56,
      "hit": false,
      "t": 80978.94000000003,
      "d": 201.04875000000175,
      "v": 57
    },
    {
      "midi": 61,
      "hit": false,
      "t": 80978.94000000003,
      "d": 476.39812499999243,
      "v": 61
    },
    {
      "midi": 61,
      "hit": false,
      "t": 80978.94000000024,
      "d": 922.2018749999988,
      "v": 62
    },
    {
      "midi": 68,
      "hit": false,
      "t": 80983.31062500023,
      "d": 922.2018749999988,
      "v": 62
    },
    {
      "midi": 60,
      "hit": false,
      "t": 80987.68124999994,
      "d": 4.3706249999959255,
      "v": 85
    },
    {
      "midi": 62,
      "hit": false,
      "t": 80987.68124999994,
      "d": 4.3706249999959255,
      "v": 82
    },
    {
      "midi": 82,
      "hit": false,
      "t": 80987.68124999994,
      "d": 30.594375000000582,
      "v": 47
    },
    {
      "midi": 64,
      "hit": false,
      "t": 80987.68125000004,
      "d": 463.2862499999901,
      "v": 64
    },
    {
      "midi": 56,
      "hit": false,
      "t": 80987.68125000023,
      "d": 922.2018749999988,
      "v": 61
    },
    {
      "midi": 49,
      "hit": false,
      "t": 81188.72999999968,
      "d": 187.93687499999942,
      "v": 104
    },
    {
      "midi": 56,
      "hit": false,
      "t": 81188.72999999968,
      "d": 187.93687499999942,
      "v": 104
    },
    {
      "midi": 37,
      "hit": false,
      "t": 81188.72999999992,
      "d": 78.67124999999942,
      "v": 99
    },
    {
      "midi": 82,
      "hit": false,
      "t": 81188.72999999994,
      "d": 39.335625000006985,
      "v": 82
    },
    {
      "midi": 80,
      "hit": false,
      "t": 81188.72999999995,
      "d": 375.87374999999884,
      "v": 104
    },
    {
      "midi": 61,
      "hit": false,
      "t": 81197.47124999994,
      "d": 4.3706249999959255,
      "v": 70
    },
    {
      "midi": 64,
      "hit": false,
      "t": 81197.47124999994,
      "d": 4.3706249999959255,
      "v": 82
    },
    {
      "midi": 49,
      "hit": false,
      "t": 81398.51999999967,
      "d": 375.87374999999884,
      "v": 104
    },
    {
      "midi": 56,
      "hit": false,
      "t": 81398.51999999967,
      "d": 375.87374999999884,
      "v": 104
    },
    {
      "midi": 37,
      "hit": false,
      "t": 81398.51999999992,
      "d": 502.6218749999971,
      "v": 99
    },
    {
      "midi": 49,
      "hit": false,
      "t": 81398.52000000003,
      "d": 222.90187499999593,
      "v": 63
    },
    {
      "midi": 82,
      "hit": false,
      "t": 81407.26124999994,
      "d": 30.594375000000582,
      "v": 53
    },
    {
      "midi": 82,
      "hit": false,
      "t": 81608.30999999994,
      "d": 30.594375000000582,
      "v": 39
    },
    {
      "midi": 76,
      "hit": false,
      "t": 81608.30999999995,
      "d": 375.87374999999884,
      "v": 104
    },
    {
      "midi": 64,
      "hit": false,
      "t": 81608.31000000003,
      "d": 568.1812500000087,
      "v": 45
    },
    {
      "midi": 64,
      "hit": false,
      "t": 81721.94624999994,
      "d": 4.3706249999959255,
      "v": 73
    },
    {
      "midi": 62,
      "hit": false,
      "t": 81822.47062499993,
      "d": 4.3706249999959255,
      "v": 88
    },
    {
      "midi": 60,
      "hit": false,
      "t": 81826.84124999992,
      "d": 4.3706249999959255,
      "v": 82
    },
    {
      "midi": 82,
      "hit": false,
      "t": 81826.84124999992,
      "d": 39.33562499999243,
      "v": 82
    },
    {
      "midi": 49,
      "hit": false,
      "t": 82027.88999999966,
      "d": 187.93687499999942,
      "v": 104
    },
    {
      "midi": 56,
      "hit": false,
      "t": 82027.88999999966,
      "d": 187.93687499999942,
      "v": 104
    },
    {
      "midi": 32,
      "hit": false,
      "t": 82027.88999999991,
      "d": 74.30062500000349,
      "v": 99
    },
    {
      "midi": 80,
      "hit": false,
      "t": 82027.88999999996,
      "d": 187.93687499999942,
      "v": 104
    },
    {
      "midi": 56,
      "hit": false,
      "t": 82027.89000000003,
      "d": 83.0418750000099,
      "v": 44
    },
    {
      "midi": 63,
      "hit": false,
      "t": 82032.26062499992,
      "d": 4.3706249999959255,
      "v": 82
    },
    {
      "midi": 56,
      "hit": false,
      "t": 82032.26062500023,
      "d": 205.41937499999767,
      "v": 61
    },
    {
      "midi": 68,
      "hit": false,
      "t": 82032.26062500023,
      "d": 205.41937499999767,
      "v": 66
    },
    {
      "midi": 61,
      "hit": false,
      "t": 82036.63124999992,
      "d": 4.3706249999959255,
      "v": 62
    },
    {
      "midi": 82,
      "hit": false,
      "t": 82036.63124999992,
      "d": 30.594375000000582,
      "v": 58
    },
    {
      "midi": 61,
      "hit": false,
      "t": 82036.63125000003,
      "d": 227.2725000000064,
      "v": 36
    },
    {
      "midi": 52,
      "hit": false,
      "t": 82036.63125000022,
      "d": 201.04875000000175,
      "v": 46
    },
    {
      "midi": 54,
      "hit": false,
      "t": 82237.67999999966,
      "d": 375.87374999999884,
      "v": 104
    },
    {
      "midi": 57,
      "hit": false,
      "t": 82237.67999999966,
      "d": 375.87374999999884,
      "v": 104
    },
    {
      "midi": 30,
      "hit": false,
      "t": 82237.67999999992,
      "d": 607.5168750000012,
      "v": 99
    },
    {
      "midi": 81,
      "hit": false,
      "t": 82237.67999999995,
      "d": 1503.4949999999953,
      "v": 104
    },
    {
      "midi": 82,
      "hit": false,
      "t": 82246.42124999991,
      "d": 30.594375000000582,
      "v": 34
    },
    {
      "midi": 64,
      "hit": false,
      "t": 82451.84062499991,
      "d": 4.3706249999959255,
      "v": 55
    },
    {
      "midi": 82,
      "hit": false,
      "t": 82456.2112499999,
      "d": 30.594375000000582,
      "v": 39
    },
    {
      "midi": 66,
      "hit": false,
      "t": 82661.63062500005,
      "d": 218.53125,
      "v": 52
    },
    {
      "midi": 61,
      "hit": false,
      "t": 82661.63062500005,
      "d": 270.97874999999476,
      "v": 60
    },
    {
      "midi": 60,
      "hit": false,
      "t": 82666.0012499999,
      "d": 4.3706249999959255,
      "v": 82
    },
    {
      "midi": 62,
      "hit": false,
      "t": 82666.0012499999,
      "d": 4.3706249999959255,
      "v": 82
    },
    {
      "midi": 82,
      "hit": false,
      "t": 82666.0012499999,
      "d": 39.33562499999243,
      "v": 82
    },
    {
      "midi": 54,
      "hit": false,
      "t": 82867.04999999965,
      "d": 187.93687499999942,
      "v": 104
    },
    {
      "midi": 57,
      "hit": false,
      "t": 82867.04999999965,
      "d": 187.93687499999942,
      "v": 104
    },
    {
      "midi": 82,
      "hit": false,
      "t": 82867.04999999989,
      "d": 30.59437499998603,
      "v": 42
    },
    {
      "midi": 37,
      "hit": false,
      "t": 82867.04999999992,
      "d": 131.11874999999418,
      "v": 98
    },
    {
      "midi": 62,
      "hit": false,
      "t": 82871.42062499988,
      "d": 4.3706249999959255,
      "v": 68
    },
    {
      "midi": 57,
      "hit": false,
      "t": 82871.42062500004,
      "d": 323.4262500000041,
      "v": 43
    },
    {
      "midi": 57,
      "hit": false,
      "t": 82871.42062500023,
      "d": 756.1181249999936,
      "v": 61
    },
    {
      "midi": 61,
      "hit": false,
      "t": 82875.79124999988,
      "d": 4.3706249999959255,
      "v": 82
    },
    {
      "midi": 54,
      "hit": false,
      "t": 83076.83999999965,
      "d": 375.87374999999884,
      "v": 104
    },
    {
      "midi": 57,
      "hit": false,
      "t": 83076.83999999965,
      "d": 375.87374999999884,
      "v": 104
    },
    {
      "midi": 64,
      "hit": false,
      "t": 83076.83999999987,
      "d": 4.3706249999959255,
      "v": 82
    },
    {
      "midi": 37,
      "hit": false,
      "t": 83076.83999999991,
      "d": 572.5518750000047,
      "v": 99
    },
    {
      "midi": 61,
      "hit": false,
      "t": 83076.84000000004,
      "d": 148.60125000000698,
      "v": 60
    },
    {
      "midi": 69,
      "hit": false,
      "t": 83076.84000000004,
      "d": 148.60125000000698,
      "v": 60
    },
    {
      "midi": 82,
      "hit": false,
      "t": 83085.58124999986,
      "d": 30.594375000000582,
      "v": 52
    },
    {
      "midi": 82,
      "hit": false,
      "t": 83286.62999999986,
      "d": 39.335625000006985,
      "v": 82
    },
    {
      "midi": 57,
      "hit": false,
      "t": 83286.63000000005,
      "d": 743.0062499999913,
      "v": 49
    },
    {
      "midi": 61,
      "hit": false,
      "t": 83286.63000000005,
      "d": 743.0062499999913,
      "v": 40
    },
    {
      "midi": 66,
      "hit": false,
      "t": 83286.63000000005,
      "d": 795.453749999986,
      "v": 40
    },
    {
      "midi": 63,
      "hit": false,
      "t": 83295.37124999987,
      "d": 4.3706249999959255,
      "v": 82
    },
    {
      "midi": 82,
      "hit": false,
      "t": 83496.41999999987,
      "d": 30.594375000000582,
      "v": 45
    },
    {
      "midi": 60,
      "hit": false,
      "t": 83505.16124999987,
      "d": 4.3706249999959255,
      "v": 82
    },
    {
      "midi": 62,
      "hit": false,
      "t": 83505.16124999987,
      "d": 4.3706249999959255,
      "v": 95
    },
    {
      "midi": 60,
      "hit": false,
      "t": 83601.31499999987,
      "d": 4.3706249999959255,
      "v": 59
    },
    {
      "midi": 54,
      "hit": false,
      "t": 83706.20999999964,
      "d": 187.93687499999942,
      "v": 104
    },
    {
      "midi": 57,
      "hit": false,
      "t": 83706.20999999964,
      "d": 187.93687499999942,
      "v": 104
    },
    {
      "midi": 60,
      "hit": false,
      "t": 83706.20999999986,
      "d": 4.3706249999959255,
      "v": 42
    },
    {
      "midi": 64,
      "hit": false,
      "t": 83706.20999999986,
      "d": 4.3706249999959255,
      "v": 82
    },
    {
      "midi": 30,
      "hit": false,
      "t": 83706.20999999992,
      "d": 144.2306249999965,
      "v": 94
    },
    {
      "midi": 49,
      "hit": false,
      "t": 83706.21000000022,
      "d": 78.67124999999942,
      "v": 47
    },
    {
      "midi": 54,
      "hit": false,
      "t": 83706.21000000022,
      "d": 78.67124999999942,
      "v": 55
    },
    {
      "midi": 82,
      "hit": false,
      "t": 83710.58062499986,
      "d": 30.594375000000582,
      "v": 67
    },
    {
      "midi": 47,
      "hit": false,
      "t": 83915.99999999964,
      "d": 375.87374999999884,
      "v": 104
    },
    {
      "midi": 54,
      "hit": false,
      "t": 83915.99999999964,
      "d": 375.87374999999884,
      "v": 104
    },
    {
      "midi": 82,
      "hit": false,
      "t": 83915.99999999985,
      "d": 39.335625000006985,
      "v": 82
    },
    {
      "midi": 35,
      "hit": false,
      "t": 83915.99999999991,
      "d": 506.992499999993,
      "v": 99
    },
    {
      "midi": 47,
      "hit": false,
      "t": 83916.00000000004,
      "d": 83.04187499999534,
      "v": 76
    },
    {
      "midi": 50,
      "hit": false,
      "t": 83916.00000000022,
      "d": 78.67124999999942,
      "v": 47
    },
    {
      "midi": 59,
      "hit": false,
      "t": 83916.00000000022,
      "d": 78.67124999999942,
      "v": 51
    },
    {
      "midi": 47,
      "hit": false,
      "t": 83916.00000000022,
      "d": 196.67812500000582,
      "v": 58
    },
    {
      "midi": 61,
      "hit": false,
      "t": 83924.74124999986,
      "d": 4.3706249999959255,
      "v": 62
    },
    {
      "midi": 47,
      "hit": false,
      "t": 84125.79000000004,
      "d": 253.4962499999965,
      "v": 28
    },
    {
      "midi": 82,
      "hit": false,
      "t": 84134.53124999985,
      "d": 30.594375000000582,
      "v": 42
    },
    {
      "midi": 64,
      "hit": false,
      "t": 84239.42624999986,
      "d": 4.3706249999959255,
      "v": 37
    },
    {
      "midi": 74,
      "hit": false,
      "t": 84335.57999999994,
      "d": 375.87374999999884,
      "v": 104
    },
    {
      "midi": 54,
      "hit": false,
      "t": 84335.58000000003,
      "d": 201.04875000000175,
      "v": 57
    },
    {
      "midi": 59,
      "hit": false,
      "t": 84335.58000000003,
      "d": 476.39812499999243,
      "v": 61
    },
    {
      "midi": 59,
      "hit": false,
      "t": 84335.58000000022,
      "d": 922.2018749999988,
      "v": 62
    },
    {
      "midi": 66,
      "hit": false,
      "t": 84339.95062500022,
      "d": 922.2018749999988,
      "v": 62
    },
    {
      "midi": 60,
      "hit": false,
      "t": 84344.32124999985,
      "d": 4.3706249999959255,
      "v": 85
    },
    {
      "midi": 62,
      "hit": false,
      "t": 84344.32124999985,
      "d": 4.3706249999959255,
      "v": 82
    },
    {
      "midi": 82,
      "hit": false,
      "t": 84344.32124999985,
      "d": 30.594375000000582,
      "v": 47
    },
    {
      "midi": 62,
      "hit": false,
      "t": 84344.32125000004,
      "d": 463.2862499999901,
      "v": 64
    },
    {
      "midi": 54,
      "hit": false,
      "t": 84344.32125000021,
      "d": 922.2018749999988,
      "v": 61
    },
    {
      "midi": 47,
      "hit": false,
      "t": 84545.36999999963,
      "d": 187.93687499999942,
      "v": 104
    },
    {
      "midi": 54,
      "hit": false,
      "t": 84545.36999999963,
      "d": 187.93687499999942,
      "v": 104
    },
    {
      "midi": 82,
      "hit": false,
      "t": 84545.36999999985,
      "d": 39.335625000006985,
      "v": 82
    },
    {
      "midi": 35,
      "hit": false,
      "t": 84545.36999999991,
      "d": 78.67124999999942,
      "v": 99
    },
    {
      "midi": 61,
      "hit": false,
      "t": 84554.11124999986,
      "d": 4.3706249999959255,
      "v": 70
    },
    {
      "midi": 64,
      "hit": false,
      "t": 84554.11124999986,
      "d": 4.3706249999959255,
      "v": 82
    },
    {
      "midi": 47,
      "hit": false,
      "t": 84755.15999999963,
      "d": 375.87374999999884,
      "v": 104
    },
    {
      "midi": 54,
      "hit": false,
      "t": 84755.15999999963,
      "d": 375.87374999999884,
      "v": 104
    },
    {
      "midi": 35,
      "hit": false,
      "t": 84755.1599999999,
      "d": 502.6218749999971,
      "v": 99
    },
    {
      "midi": 76,
      "hit": false,
      "t": 84755.15999999995,
      "d": 375.87374999999884,
      "v": 104
    },
    {
      "midi": 47,
      "hit": false,
      "t": 84755.16000000003,
      "d": 222.90187499999593,
      "v": 63
    },
    {
      "midi": 82,
      "hit": false,
      "t": 84763.90124999985,
      "d": 30.594375000000582,
      "v": 53
    },
    {
      "midi": 82,
      "hit": false,
      "t": 84964.94999999985,
      "d": 30.594375000000582,
      "v": 39
    },
    {
      "midi": 62,
      "hit": false,
      "t": 84964.95000000003,
      "d": 568.1812500000087,
      "v": 45
    },
    {
      "midi": 64,
      "hit": false,
      "t": 85078.58624999985,
      "d": 4.3706249999959255,
      "v": 73
    },
    {
      "midi": 78,
      "hit": false,
      "t": 85174.73999999995,
      "d": 375.87374999999884,
      "v": 104
    },
    {
      "midi": 62,
      "hit": false,
      "t": 85179.11062499984,
      "d": 4.3706249999959255,
      "v": 88
    },
    {
      "midi": 60,
      "hit": false,
      "t": 85183.48124999984,
      "d": 4.3706249999959255,
      "v": 82
    },
    {
      "midi": 82,
      "hit": false,
      "t": 85183.48124999984,
      "d": 39.33562499999243,
      "v": 82
    },
    {
      "midi": 47,
      "hit": false,
      "t": 85384.52999999962,
      "d": 187.93687499999942,
      "v": 104
    },
    {
      "midi": 54,
      "hit": false,
      "t": 85384.52999999962,
      "d": 187.93687499999942,
      "v": 104
    },
    {
      "midi": 30,
      "hit": false,
      "t": 85384.5299999999,
      "d": 74.30062500000349,
      "v": 99
    },
    {
      "midi": 54,
      "hit": false,
      "t": 85384.53000000003,
      "d": 83.0418750000099,
      "v": 44
    },
    {
      "midi": 63,
      "hit": false,
      "t": 85388.90062499983,
      "d": 4.3706249999959255,
      "v": 82
    },
    {
      "midi": 54,
      "hit": false,
      "t": 85388.90062500021,
      "d": 205.41937499999767,
      "v": 61
    },
    {
      "midi": 66,
      "hit": false,
      "t": 85388.90062500021,
      "d": 205.41937499999767,
      "v": 66
    },
    {
      "midi": 61,
      "hit": false,
      "t": 85393.27124999983,
      "d": 4.3706249999959255,
      "v": 62
    },
    {
      "midi": 82,
      "hit": false,
      "t": 85393.27124999983,
      "d": 30.594375000000582,
      "v": 58
    },
    {
      "midi": 59,
      "hit": false,
      "t": 85393.27125000003,
      "d": 227.2725000000064,
      "v": 36
    },
    {
      "midi": 50,
      "hit": false,
      "t": 85393.27125000021,
      "d": 201.04875000000175,
      "v": 46
    },
    {
      "midi": 52,
      "hit": false,
      "t": 85594.31999999961,
      "d": 375.87374999999884,
      "v": 104
    },
    {
      "midi": 56,
      "hit": false,
      "t": 85594.31999999961,
      "d": 375.87374999999884,
      "v": 104
    },
    {
      "midi": 28,
      "hit": false,
      "t": 85594.3199999999,
      "d": 607.5168750000012,
      "v": 99
    },
    {
      "midi": 73,
      "hit": false,
      "t": 85594.31999999995,
      "d": 751.7474999999977,
      "v": 104
    },
    {
      "midi": 56,
      "hit": false,
      "t": 85598.6906250002,
      "d": 196.67812500000582,
      "v": 61
    },
    {
      "midi": 82,
      "hit": false,
      "t": 85603.06124999982,
      "d": 30.594375000000582,
      "v": 34
    },
    {
      "midi": 64,
      "hit": false,
      "t": 85808.48062499982,
      "d": 4.3706249999959255,
      "v": 55
    },
    {
      "midi": 82,
      "hit": false,
      "t": 85812.85124999982,
      "d": 30.594375000000582,
      "v": 39
    },
    {
      "midi": 56,
      "hit": false,
      "t": 86009.52937500022,
      "d": 1215.0337499999878,
      "v": 67
    },
    {
      "midi": 64,
      "hit": false,
      "t": 86013.90000000021,
      "d": 1215.0337499999878,
      "v": 67
    },
    {
      "midi": 64,
      "hit": false,
      "t": 86018.27062500005,
      "d": 218.53125,
      "v": 52
    },
    {
      "midi": 59,
      "hit": false,
      "t": 86018.27062500005,
      "d": 270.97874999999476,
      "v": 60
    },
    {
      "midi": 59,
      "hit": false,
      "t": 86018.27062500021,
      "d": 1215.0337499999878,
      "v": 67
    },
    {
      "midi": 60,
      "hit": false,
      "t": 86022.64124999981,
      "d": 4.3706249999959255,
      "v": 82
    },
    {
      "midi": 62,
      "hit": false,
      "t": 86022.64124999981,
      "d": 4.3706249999959255,
      "v": 82
    },
    {
      "midi": 82,
      "hit": false,
      "t": 86022.64124999981,
      "d": 39.33562499999243,
      "v": 82
    },
    {
      "midi": 52,
      "hit": false,
      "t": 86223.68999999961,
      "d": 187.93687499999942,
      "v": 104
    },
    {
      "midi": 56,
      "hit": false,
      "t": 86223.68999999961,
      "d": 187.93687499999942,
      "v": 104
    },
    {
      "midi": 82,
      "hit": false,
      "t": 86223.6899999998,
      "d": 30.59437499998603,
      "v": 42
    },
    {
      "midi": 35,
      "hit": false,
      "t": 86223.6899999999,
      "d": 131.11874999999418,
      "v": 98
    },
    {
      "midi": 62,
      "hit": false,
      "t": 86228.0606249998,
      "d": 4.3706249999959255,
      "v": 68
    },
    {
      "midi": 56,
      "hit": false,
      "t": 86228.06062500004,
      "d": 323.4262500000041,
      "v": 43
    },
    {
      "midi": 61,
      "hit": false,
      "t": 86232.43124999979,
      "d": 4.3706249999959255,
      "v": 82
    },
    {
      "midi": 52,
      "hit": false,
      "t": 86433.4799999996,
      "d": 375.87374999999884,
      "v": 104
    },
    {
      "midi": 56,
      "hit": false,
      "t": 86433.4799999996,
      "d": 375.87374999999884,
      "v": 104
    },
    {
      "midi": 64,
      "hit": false,
      "t": 86433.47999999978,
      "d": 4.3706249999959255,
      "v": 82
    },
    {
      "midi": 35,
      "hit": false,
      "t": 86433.4799999999,
      "d": 572.5518750000047,
      "v": 99
    },
    {
      "midi": 71,
      "hit": false,
      "t": 86433.47999999995,
      "d": 751.7474999999977,
      "v": 104
    },
    {
      "midi": 59,
      "hit": false,
      "t": 86433.48000000004,
      "d": 148.60125000000698,
      "v": 60
    },
    {
      "midi": 68,
      "hit": false,
      "t": 86433.48000000004,
      "d": 148.60125000000698,
      "v": 60
    },
    {
      "midi": 82,
      "hit": false,
      "t": 86442.22124999977,
      "d": 30.594375000000582,
      "v": 52
    },
    {
      "midi": 82,
      "hit": false,
      "t": 86643.26999999977,
      "d": 39.335625000006985,
      "v": 82
    },
    {
      "midi": 56,
      "hit": false,
      "t": 86643.27000000005,
      "d": 743.0062499999913,
      "v": 49
    },
    {
      "midi": 63,
      "hit": false,
      "t": 86652.01124999978,
      "d": 4.3706249999959255,
      "v": 82
    },
    {
      "midi": 82,
      "hit": false,
      "t": 86853.05999999978,
      "d": 30.594375000000582,
      "v": 45
    },
    {
      "midi": 60,
      "hit": false,
      "t": 86861.80124999979,
      "d": 4.3706249999959255,
      "v": 82
    },
    {
      "midi": 62,
      "hit": false,
      "t": 86861.80124999979,
      "d": 4.3706249999959255,
      "v": 95
    },
    {
      "midi": 60,
      "hit": false,
      "t": 86957.95499999978,
      "d": 4.3706249999959255,
      "v": 59
    },
    {
      "midi": 52,
      "hit": false,
      "t": 87062.8499999996,
      "d": 187.93687499999942,
      "v": 104
    },
    {
      "midi": 56,
      "hit": false,
      "t": 87062.8499999996,
      "d": 187.93687499999942,
      "v": 104
    },
    {
      "midi": 60,
      "hit": false,
      "t": 87062.84999999977,
      "d": 4.3706249999959255,
      "v": 42
    },
    {
      "midi": 64,
      "hit": false,
      "t": 87062.84999999977,
      "d": 4.3706249999959255,
      "v": 82
    },
    {
      "midi": 28,
      "hit": false,
      "t": 87062.8499999999,
      "d": 144.2306249999965,
      "v": 94
    },
    {
      "midi": 82,
      "hit": false,
      "t": 87067.22062499977,
      "d": 30.594375000000582,
      "v": 67
    },
    {
      "midi": 52,
      "hit": false,
      "t": 87272.63999999959,
      "d": 375.87374999999884,
      "v": 104
    },
    {
      "midi": 55,
      "hit": false,
      "t": 87272.63999999959,
      "d": 375.87374999999884,
      "v": 104
    },
    {
      "midi": 82,
      "hit": false,
      "t": 87272.63999999977,
      "d": 39.335625000006985,
      "v": 82
    },
    {
      "midi": 28,
      "hit": false,
      "t": 87272.6399999999,
      "d": 506.992499999993,
      "v": 99
    },
    {
      "midi": 76,
      "hit": false,
      "t": 87272.63999999996,
      "d": 1503.4949999999953,
      "v": 104
    },
    {
      "midi": 59,
      "hit": false,
      "t": 87272.64000000004,
      "d": 113.63624999999593,
      "v": 56
    },
    {
      "midi": 64,
      "hit": false,
      "t": 87272.64000000004,
      "d": 166.0837499999907,
      "v": 56
    },
    {
      "midi": 52,
      "hit": false,
      "t": 87272.6400000002,
      "d": 78.67124999999942,
      "v": 47
    },
    {
      "midi": 59,
      "hit": false,
      "t": 87272.6400000002,
      "d": 78.67124999999942,
      "v": 51
    },
    {
      "midi": 40,
      "hit": false,
      "t": 87272.6400000002,
      "d": 196.67812500000582,
      "v": 58
    },
    {
      "midi": 61,
      "hit": false,
      "t": 87281.38124999977,
      "d": 4.3706249999959255,
      "v": 62
    },
    {
      "midi": 55,
      "hit": false,
      "t": 87486.80062500003,
      "d": 375.87374999999884,
      "v": 38
    },
    {
      "midi": 82,
      "hit": false,
      "t": 87491.17124999977,
      "d": 30.594375000000582,
      "v": 42
    },
    {
      "midi": 64,
      "hit": false,
      "t": 87596.06624999977,
      "d": 4.3706249999959255,
      "v": 37
    },
    {
      "midi": 47,
      "hit": false,
      "t": 87692.22000000003,
      "d": 236.01374999999825,
      "v": 51
    },
    {
      "midi": 59,
      "hit": false,
      "t": 87692.2200000002,
      "d": 922.2018749999988,
      "v": 62
    },
    {
      "midi": 64,
      "hit": false,
      "t": 87696.5906250002,
      "d": 922.2018749999988,
      "v": 62
    },
    {
      "midi": 60,
      "hit": false,
      "t": 87700.96124999976,
      "d": 4.3706249999959255,
      "v": 85
    },
    {
      "midi": 62,
      "hit": false,
      "t": 87700.96124999976,
      "d": 4.3706249999959255,
      "v": 82
    },
    {
      "midi": 82,
      "hit": false,
      "t": 87700.96124999976,
      "d": 30.594375000000582,
      "v": 47
    },
    {
      "midi": 55,
      "hit": false,
      "t": 87700.9612500002,
      "d": 922.2018749999988,
      "v": 61
    },
    {
      "midi": 52,
      "hit": false,
      "t": 87902.00999999959,
      "d": 187.93687499999942,
      "v": 104
    },
    {
      "midi": 55,
      "hit": false,
      "t": 87902.00999999959,
      "d": 187.93687499999942,
      "v": 104
    },
    {
      "midi": 82,
      "hit": false,
      "t": 87902.00999999976,
      "d": 39.335625000006985,
      "v": 82
    },
    {
      "midi": 40,
      "hit": false,
      "t": 87902.0099999999,
      "d": 78.67124999999942,
      "v": 99
    },
    {
      "midi": 61,
      "hit": false,
      "t": 87910.75124999977,
      "d": 4.3706249999959255,
      "v": 70
    },
    {
      "midi": 64,
      "hit": false,
      "t": 87910.75124999977,
      "d": 4.3706249999959255,
      "v": 82
    },
    {
      "midi": 52,
      "hit": false,
      "t": 88111.79999999958,
      "d": 375.87374999999884,
      "v": 104
    },
    {
      "midi": 55,
      "hit": false,
      "t": 88111.79999999958,
      "d": 375.87374999999884,
      "v": 104
    },
    {
      "midi": 40,
      "hit": false,
      "t": 88111.79999999989,
      "d": 502.6218749999971,
      "v": 99
    },
    {
      "midi": 59,
      "hit": false,
      "t": 88111.80000000003,
      "d": 275.3493749999907,
      "v": 60
    },
    {
      "midi": 64,
      "hit": false,
      "t": 88111.80000000003,
      "d": 620.6287499999889,
      "v": 59
    },
    {
      "midi": 55,
      "hit": false,
      "t": 88116.17062500003,
      "d": 270.97874999999476,
      "v": 60
    },
    {
      "midi": 82,
      "hit": false,
      "t": 88120.54124999976,
      "d": 30.594375000000582,
      "v": 53
    },
    {
      "midi": 82,
      "hit": false,
      "t": 88321.58999999976,
      "d": 30.594375000000582,
      "v": 39
    },
    {
      "midi": 64,
      "hit": false,
      "t": 88435.22624999976,
      "d": 4.3706249999959255,
      "v": 73
    },
    {
      "midi": 62,
      "hit": false,
      "t": 88535.75062499975,
      "d": 4.3706249999959255,
      "v": 88
    },
    {
      "midi": 47,
      "hit": false,
      "t": 88535.75062500003,
      "d": 144.2306249999965,
      "v": 60
    },
    {
      "midi": 60,
      "hit": false,
      "t": 88540.12124999975,
      "d": 4.3706249999959255,
      "v": 82
    },
    {
      "midi": 82,
      "hit": false,
      "t": 88540.12124999975,
      "d": 39.33562499999243,
      "v": 82
    },
    {
      "midi": 52,
      "hit": false,
      "t": 88741.16999999958,
      "d": 187.93687499999942,
      "v": 104
    },
    {
      "midi": 55,
      "hit": false,
      "t": 88741.16999999958,
      "d": 187.93687499999942,
      "v": 104
    },
    {
      "midi": 35,
      "hit": false,
      "t": 88741.16999999988,
      "d": 74.30062500000349,
      "v": 99
    },
    {
      "midi": 59,
      "hit": false,
      "t": 88741.17000000003,
      "d": 297.20249999998487,
      "v": 43
    },
    {
      "midi": 63,
      "hit": false,
      "t": 88745.54062499975,
      "d": 4.3706249999959255,
      "v": 82
    },
    {
      "midi": 55,
      "hit": false,
      "t": 88745.5406250002,
      "d": 205.41937499999767,
      "v": 61
    },
    {
      "midi": 64,
      "hit": false,
      "t": 88745.5406250002,
      "d": 205.41937499999767,
      "v": 66
    },
    {
      "midi": 61,
      "hit": false,
      "t": 88749.91124999974,
      "d": 4.3706249999959255,
      "v": 62
    },
    {
      "midi": 82,
      "hit": false,
      "t": 88749.91124999974,
      "d": 30.594375000000582,
      "v": 58
    },
    {
      "midi": 52,
      "hit": false,
      "t": 88749.9112500002,
      "d": 201.04875000000175,
      "v": 46
    },
    {
      "midi": 55,
      "hit": false,
      "t": 88950.95999999957,
      "d": 375.87374999999884,
      "v": 104
    },
    {
      "midi": 57,
      "hit": false,
      "t": 88950.95999999957,
      "d": 375.87374999999884,
      "v": 104
    },
    {
      "midi": 61,
      "hit": false,
      "t": 88950.95999999957,
      "d": 375.87374999999884,
      "v": 104
    },
    {
      "midi": 33,
      "hit": false,
      "t": 88950.95999999989,
      "d": 423.9506249999977,
      "v": 99
    },
    {
      "midi": 55,
      "hit": false,
      "t": 88950.96000000002,
      "d": 87.41249999999127,
      "v": 50
    },
    {
      "midi": 45,
      "hit": false,
      "t": 88950.9600000002,
      "d": 170.45437500000116,
      "v": 58
    },
    {
      "midi": 52,
      "hit": false,
      "t": 88955.33062500002,
      "d": 196.67812499999127,
      "v": 59
    },
    {
      "midi": 64,
      "hit": false,
      "t": 89165.12062499975,
      "d": 4.3706249999959255,
      "v": 55
    },
    {
      "midi": 45,
      "hit": false,
      "t": 89169.4912500002,
      "d": 1315.5581250000105,
      "v": 64
    },
    {
      "midi": 55,
      "hit": false,
      "t": 89370.54000000001,
      "d": 56.81812500000524,
      "v": 50
    },
    {
      "midi": 64,
      "hit": false,
      "t": 89370.54000000001,
      "d": 209.79000000000815,
      "v": 54
    },
    {
      "midi": 52,
      "hit": false,
      "t": 89370.54000000001,
      "d": 222.90187500001048,
      "v": 64
    },
    {
      "midi": 52,
      "hit": false,
      "t": 89370.5400000002,
      "d": 91.78312500000175,
      "v": 59
    },
    {
      "midi": 61,
      "hit": false,
      "t": 89370.5400000002,
      "d": 91.78312500000175,
      "v": 52
    },
    {
      "midi": 63,
      "hit": false,
      "t": 89374.91062499974,
      "d": 4.3706249999959255,
      "v": 86
    },
    {
      "midi": 55,
      "hit": false,
      "t": 89374.9106250002,
      "d": 104.89500000000407,
      "v": 48
    },
    {
      "midi": 64,
      "hit": false,
      "t": 89379.28125000019,
      "d": 74.30062500000349,
      "v": 62
    },
    {
      "midi": 62,
      "hit": false,
      "t": 89475.43499999974,
      "d": 4.3706249999959255,
      "v": 72
    },
    {
      "midi": 55,
      "hit": false,
      "t": 89580.32999999957,
      "d": 187.93687499999942,
      "v": 104
    },
    {
      "midi": 57,
      "hit": false,
      "t": 89580.32999999957,
      "d": 187.93687499999942,
      "v": 104
    },
    {
      "midi": 61,
      "hit": false,
      "t": 89580.32999999957,
      "d": 187.93687499999942,
      "v": 104
    },
    {
      "midi": 33,
      "hit": false,
      "t": 89580.32999999989,
      "d": 91.78312500000175,
      "v": 99
    },
    {
      "midi": 49,
      "hit": false,
      "t": 89580.33000000019,
      "d": 170.45437500000116,
      "v": 68
    },
    {
      "midi": 63,
      "hit": false,
      "t": 89584.70062499974,
      "d": 4.3706249999959255,
      "v": 86
    },
    {
      "midi": 55,
      "hit": false,
      "t": 89790.11999999956,
      "d": 375.87374999999884,
      "v": 104
    },
    {
      "midi": 57,
      "hit": false,
      "t": 89790.11999999956,
      "d": 375.87374999999884,
      "v": 104
    },
    {
      "midi": 61,
      "hit": false,
      "t": 89790.11999999956,
      "d": 375.87374999999884,
      "v": 104
    },
    {
      "midi": 33,
      "hit": false,
      "t": 89790.1199999999,
      "d": 415.2093750000058,
      "v": 99
    },
    {
      "midi": 52,
      "hit": false,
      "t": 89790.12000000002,
      "d": 118.0068750000064,
      "v": 63
    },
    {
      "midi": 52,
      "hit": false,
      "t": 89790.1200000002,
      "d": 170.45437500000116,
      "v": 63
    },
    {
      "midi": 76,
      "hit": false,
      "t": 89999.90999999995,
      "d": 187.93687499999942,
      "v": 104
    },
    {
      "midi": 64,
      "hit": false,
      "t": 89999.91000000003,
      "d": 847.9012500000099,
      "v": 45
    },
    {
      "midi": 55,
      "hit": false,
      "t": 89999.9100000002,
      "d": 388.98562500000116,
      "v": 48
    },
    {
      "midi": 61,
      "hit": false,
      "t": 89999.9100000002,
      "d": 388.98562500000116,
      "v": 59
    },
    {
      "midi": 64,
      "hit": false,
      "t": 90004.28062499974,
      "d": 4.3706249999959255,
      "v": 92
    },
    {
      "midi": 52,
      "hit": false,
      "t": 90004.2806250002,
      "d": 388.98562500000116,
      "v": 67
    },
    {
      "midi": 64,
      "hit": false,
      "t": 90004.2806250002,
      "d": 388.98562500000116,
      "v": 67
    },
    {
      "midi": 63,
      "hit": false,
      "t": 90209.69999999974,
      "d": 4.3706249999959255,
      "v": 86
    },
    {
      "midi": 78,
      "hit": false,
      "t": 90209.69999999994,
      "d": 187.93687499999942,
      "v": 104
    },
    {
      "midi": 55,
      "hit": false,
      "t": 90419.48999999955,
      "d": 187.93687499999942,
      "v": 104
    },
    {
      "midi": 57,
      "hit": false,
      "t": 90419.48999999955,
      "d": 187.93687499999942,
      "v": 104
    },
    {
      "midi": 61,
      "hit": false,
      "t": 90419.48999999955,
      "d": 187.93687499999942,
      "v": 104
    },
    {
      "midi": 33,
      "hit": false,
      "t": 90419.4899999999,
      "d": 91.78312500000175,
      "v": 99
    },
    {
      "midi": 80,
      "hit": false,
      "t": 90419.48999999993,
      "d": 187.93687499999942,
      "v": 104
    },
    {
      "midi": 55,
      "hit": false,
      "t": 90419.49000000003,
      "d": 26.223750000004657,
      "v": 37
    },
    {
      "midi": 52,
      "hit": false,
      "t": 90419.49000000003,
      "d": 201.04875000000175,
      "v": 35
    },
    {
      "midi": 63,
      "hit": false,
      "t": 90423.86062499972,
      "d": 4.3706249999959255,
      "v": 92
    },
    {
      "midi": 50,
      "hit": false,
      "t": 90629.27999999955,
      "d": 375.87374999999884,
      "v": 104
    },
    {
      "midi": 57,
      "hit": false,
      "t": 90629.27999999955,
      "d": 375.87374999999884,
      "v": 104
    },
    {
      "midi": 82,
      "hit": false,
      "t": 90629.27999999972,
      "d": 39.335625000006985,
      "v": 82
    },
    {
      "midi": 38,
      "hit": false,
      "t": 90629.27999999991,
      "d": 506.992499999993,
      "v": 99
    },
    {
      "midi": 81,
      "hit": false,
      "t": 90629.27999999993,
      "d": 375.87374999999884,
      "v": 104
    },
    {
      "midi": 62,
      "hit": false,
      "t": 90629.28000000004,
      "d": 244.75500000000466,
      "v": 56
    },
    {
      "midi": 66,
      "hit": false,
      "t": 90629.28000000004,
      "d": 288.46125000000757,
      "v": 56
    },
    {
      "midi": 38,
      "hit": false,
      "t": 90629.2800000002,
      "d": 196.67812500000582,
      "v": 58
    },
    {
      "midi": 61,
      "hit": false,
      "t": 90638.02124999973,
      "d": 4.3706249999959255,
      "v": 62
    },
    {
      "midi": 57,
      "hit": false,
      "t": 90843.44062500005,
      "d": 375.87374999999884,
      "v": 38
    },
    {
      "midi": 82,
      "hit": false,
      "t": 90847.81124999972,
      "d": 30.594375000000582,
      "v": 42
    },
    {
      "midi": 64,
      "hit": false,
      "t": 90952.70624999973,
      "d": 4.3706249999959255,
      "v": 37
    },
    {
      "midi": 57,
      "hit": false,
      "t": 91044.48937500021,
      "d": 616.258124999993,
      "v": 67
    },
    {
      "midi": 66,
      "hit": false,
      "t": 91044.48937500021,
      "d": 616.258124999993,
      "v": 67
    },
    {
      "midi": 78,
      "hit": false,
      "t": 91048.85999999993,
      "d": 187.93687499999942,
      "v": 104
    },
    {
      "midi": 50,
      "hit": false,
      "t": 91048.86000000004,
      "d": 236.01374999999825,
      "v": 51
    },
    {
      "midi": 62,
      "hit": false,
      "t": 91048.8600000002,
      "d": 616.258124999993,
      "v": 66
    },
    {
      "midi": 60,
      "hit": false,
      "t": 91057.60124999972,
      "d": 4.3706249999959255,
      "v": 85
    },
    {
      "midi": 62,
      "hit": false,
      "t": 91057.60124999972,
      "d": 4.3706249999959255,
      "v": 82
    },
    {
      "midi": 82,
      "hit": false,
      "t": 91057.60124999972,
      "d": 30.594375000000582,
      "v": 47
    },
    {
      "midi": 50,
      "hit": false,
      "t": 91258.64999999954,
      "d": 187.93687499999942,
      "v": 104
    },
    {
      "midi": 57,
      "hit": false,
      "t": 91258.64999999954,
      "d": 187.93687499999942,
      "v": 104
    },
    {
      "midi": 82,
      "hit": false,
      "t": 91258.64999999972,
      "d": 39.335625000006985,
      "v": 82
    },
    {
      "midi": 38,
      "hit": false,
      "t": 91258.6499999999,
      "d": 78.67124999999942,
      "v": 99
    },
    {
      "midi": 81,
      "hit": false,
      "t": 91258.64999999992,
      "d": 375.87374999999884,
      "v": 104
    },
    {
      "midi": 61,
      "hit": false,
      "t": 91267.39124999972,
      "d": 4.3706249999959255,
      "v": 70
    },
    {
      "midi": 64,
      "hit": false,
      "t": 91267.39124999972,
      "d": 4.3706249999959255,
      "v": 82
    },
    {
      "midi": 50,
      "hit": false,
      "t": 91468.43999999954,
      "d": 375.87374999999884,
      "v": 104
    },
    {
      "midi": 57,
      "hit": false,
      "t": 91468.43999999954,
      "d": 375.87374999999884,
      "v": 104
    },
    {
      "midi": 38,
      "hit": false,
      "t": 91468.4399999999,
      "d": 502.6218749999971,
      "v": 99
    },
    {
      "midi": 62,
      "hit": false,
      "t": 91468.44000000005,
      "d": 275.3493749999907,
      "v": 60
    },
    {
      "midi": 66,
      "hit": false,
      "t": 91468.44000000005,
      "d": 620.6287499999889,
      "v": 59
    },
    {
      "midi": 57,
      "hit": false,
      "t": 91472.81062500004,
      "d": 270.97874999999476,
      "v": 60
    },
    {
      "midi": 82,
      "hit": false,
      "t": 91477.18124999972,
      "d": 30.594375000000582,
      "v": 53
    },
    {
      "midi": 62,
      "hit": false,
      "t": 91673.8593750002,
      "d": 388.98562500000116,
      "v": 67
    },
    {
      "midi": 66,
      "hit": false,
      "t": 91673.8593750002,
      "d": 388.98562500000116,
      "v": 67
    },
    {
      "midi": 82,
      "hit": false,
      "t": 91678.22999999972,
      "d": 30.594375000000582,
      "v": 39
    },
    {
      "midi": 78,
      "hit": false,
      "t": 91678.22999999992,
      "d": 375.87374999999884,
      "v": 104
    },
    {
      "midi": 57,
      "hit": false,
      "t": 91678.2300000002,
      "d": 598.7756250000093,
      "v": 67
    },
    {
      "midi": 64,
      "hit": false,
      "t": 91791.86624999972,
      "d": 4.3706249999959255,
      "v": 73
    },
    {
      "midi": 62,
      "hit": false,
      "t": 91892.39062499971,
      "d": 4.3706249999959255,
      "v": 88
    },
    {
      "midi": 50,
      "hit": false,
      "t": 91892.39062500004,
      "d": 144.2306249999965,
      "v": 60
    },
    {
      "midi": 60,
      "hit": false,
      "t": 91896.7612499997,
      "d": 4.3706249999959255,
      "v": 82
    },
    {
      "midi": 82,
      "hit": false,
      "t": 91896.7612499997,
      "d": 39.33562499999243,
      "v": 82
    },
    {
      "midi": 50,
      "hit": false,
      "t": 92097.80999999953,
      "d": 187.93687499999942,
      "v": 104
    },
    {
      "midi": 57,
      "hit": false,
      "t": 92097.80999999953,
      "d": 187.93687499999942,
      "v": 104
    },
    {
      "midi": 33,
      "hit": false,
      "t": 92097.8099999999,
      "d": 74.30062500000349,
      "v": 99
    },
    {
      "midi": 81,
      "hit": false,
      "t": 92097.80999999992,
      "d": 187.93687499999942,
      "v": 104
    },
    {
      "midi": 62,
      "hit": false,
      "t": 92097.81000000004,
      "d": 297.2024999999994,
      "v": 43
    },
    {
      "midi": 63,
      "hit": false,
      "t": 92102.1806249997,
      "d": 4.3706249999959255,
      "v": 82
    },
    {
      "midi": 57,
      "hit": false,
      "t": 92102.18062500004,
      "d": 292.8318750000035,
      "v": 43
    },
    {
      "midi": 61,
      "hit": false,
      "t": 92106.5512499997,
      "d": 4.3706249999959255,
      "v": 62
    },
    {
      "midi": 82,
      "hit": false,
      "t": 92106.5512499997,
      "d": 30.594375000000582,
      "v": 58
    },
    {
      "midi": 62,
      "hit": false,
      "t": 92303.22937500021,
      "d": 4.3706249999959255,
      "v": 59
    },
    {
      "midi": 66,
      "hit": false,
      "t": 92303.22937500021,
      "d": 4.3706249999959255,
      "v": 63
    },
    {
      "midi": 52,
      "hit": false,
      "t": 92307.59999999953,
      "d": 375.87374999999884,
      "v": 104
    },
    {
      "midi": 56,
      "hit": false,
      "t": 92307.59999999953,
      "d": 375.87374999999884,
      "v": 104
    },
    {
      "midi": 28,
      "hit": false,
      "t": 92307.5999999999,
      "d": 607.5168750000012,
      "v": 99
    },
    {
      "midi": 83,
      "hit": false,
      "t": 92307.59999999992,
      "d": 751.7474999999977,
      "v": 104
    },
    {
      "midi": 56,
      "hit": false,
      "t": 92307.60000000003,
      "d": 489.5100000000093,
      "v": 60
    },
    {
      "midi": 56,
      "hit": false,
      "t": 92311.9706250002,
      "d": 196.67812500000582,
      "v": 61
    },
    {
      "midi": 82,
      "hit": false,
      "t": 92316.34124999969,
      "d": 30.594375000000582,
      "v": 34
    },
    {
      "midi": 64,
      "hit": false,
      "t": 92521.76062499969,
      "d": 4.3706249999959255,
      "v": 55
    },
    {
      "midi": 82,
      "hit": false,
      "t": 92526.13124999969,
      "d": 30.594375000000582,
      "v": 39
    },
    {
      "midi": 56,
      "hit": false,
      "t": 92722.80937500022,
      "d": 1053.320624999993,
      "v": 67
    },
    {
      "midi": 64,
      "hit": false,
      "t": 92727.18000000021,
      "d": 1048.949999999997,
      "v": 67
    },
    {
      "midi": 59,
      "hit": false,
      "t": 92731.55062500005,
      "d": 65.55937499999709,
      "v": 60
    },
    {
      "midi": 64,
      "hit": false,
      "t": 92731.55062500005,
      "d": 218.53125,
      "v": 52
    },
    {
      "midi": 59,
      "hit": false,
      "t": 92731.5506250002,
      "d": 1044.5793750000012,
      "v": 67
    },
    {
      "midi": 60,
      "hit": false,
      "t": 92735.92124999968,
      "d": 4.3706249999959255,
      "v": 82
    },
    {
      "midi": 62,
      "hit": false,
      "t": 92735.92124999968,
      "d": 4.3706249999959255,
      "v": 82
    },
    {
      "midi": 82,
      "hit": false,
      "t": 92735.92124999968,
      "d": 39.33562499999243,
      "v": 82
    },
    {
      "midi": 52,
      "hit": false,
      "t": 92936.96999999952,
      "d": 187.93687499999942,
      "v": 104
    },
    {
      "midi": 56,
      "hit": false,
      "t": 92936.96999999952,
      "d": 187.93687499999942,
      "v": 104
    },
    {
      "midi": 82,
      "hit": false,
      "t": 92936.96999999967,
      "d": 30.59437499998603,
      "v": 42
    },
    {
      "midi": 35,
      "hit": false,
      "t": 92936.9699999999,
      "d": 131.11874999999418,
      "v": 98
    },
    {
      "midi": 62,
      "hit": false,
      "t": 92941.34062499966,
      "d": 4.3706249999959255,
      "v": 68
    },
    {
      "midi": 56,
      "hit": false,
      "t": 92941.34062500004,
      "d": 323.4262500000041,
      "v": 43
    },
    {
      "midi": 61,
      "hit": false,
      "t": 92945.71124999966,
      "d": 4.3706249999959255,
      "v": 82
    },
    {
      "midi": 52,
      "hit": false,
      "t": 93146.75999999951,
      "d": 375.87374999999884,
      "v": 104
    },
    {
      "midi": 56,
      "hit": false,
      "t": 93146.75999999951,
      "d": 375.87374999999884,
      "v": 104
    },
    {
      "midi": 64,
      "hit": false,
      "t": 93146.75999999965,
      "d": 4.3706249999959255,
      "v": 82
    },
    {
      "midi": 35,
      "hit": false,
      "t": 93146.7599999999,
      "d": 572.5518750000047,
      "v": 99
    },
    {
      "midi": 59,
      "hit": false,
      "t": 93146.76000000004,
      "d": 148.60125000000698,
      "v": 60
    },
    {
      "midi": 68,
      "hit": false,
      "t": 93146.76000000004,
      "d": 148.60125000000698,
      "v": 60
    },
    {
      "midi": 82,
      "hit": false,
      "t": 93155.50124999964,
      "d": 30.594375000000582,
      "v": 52
    },
    {
      "midi": 82,
      "hit": false,
      "t": 93356.54999999964,
      "d": 39.335625000006985,
      "v": 82
    },
    {
      "midi": 76,
      "hit": false,
      "t": 93356.54999999992,
      "d": 187.93687499999942,
      "v": 104
    },
    {
      "midi": 59,
      "hit": false,
      "t": 93356.55000000005,
      "d": 603.1462500000052,
      "v": 40
    },
    {
      "midi": 63,
      "hit": false,
      "t": 93365.29124999965,
      "d": 4.3706249999959255,
      "v": 82
    },
    {
      "midi": 82,
      "hit": false,
      "t": 93566.33999999965,
      "d": 30.594375000000582,
      "v": 45
    },
    {
      "midi": 78,
      "hit": false,
      "t": 93566.33999999991,
      "d": 187.93687499999942,
      "v": 104
    },
    {
      "midi": 60,
      "hit": false,
      "t": 93575.08124999965,
      "d": 4.3706249999959255,
      "v": 82
    },
    {
      "midi": 62,
      "hit": false,
      "t": 93575.08124999965,
      "d": 4.3706249999959255,
      "v": 95
    },
    {
      "midi": 60,
      "hit": false,
      "t": 93671.23499999965,
      "d": 4.3706249999959255,
      "v": 59
    },
    {
      "midi": 52,
      "hit": false,
      "t": 93776.12999999951,
      "d": 187.93687499999942,
      "v": 104
    },
    {
      "midi": 56,
      "hit": false,
      "t": 93776.12999999951,
      "d": 187.93687499999942,
      "v": 104
    },
    {
      "midi": 60,
      "hit": false,
      "t": 93776.12999999964,
      "d": 4.3706249999959255,
      "v": 42
    },
    {
      "midi": 64,
      "hit": false,
      "t": 93776.12999999964,
      "d": 4.3706249999959255,
      "v": 82
    },
    {
      "midi": 80,
      "hit": false,
      "t": 93776.1299999999,
      "d": 563.8106249999983,
      "v": 104
    },
    {
      "midi": 37,
      "hit": false,
      "t": 93776.1299999999,
      "d": 144.2306249999965,
      "v": 94
    },
    {
      "midi": 56,
      "hit": false,
      "t": 93776.13000000005,
      "d": 139.86000000000058,
      "v": 37
    },
    {
      "midi": 61,
      "hit": false,
      "t": 93776.13000000005,
      "d": 139.86000000000058,
      "v": 40
    },
    {
      "midi": 64,
      "hit": false,
      "t": 93776.13000000005,
      "d": 183.5662500000035,
      "v": 40
    },
    {
      "midi": 49,
      "hit": false,
      "t": 93776.13000000005,
      "d": 201.04875000000175,
      "v": 35
    },
    {
      "midi": 52,
      "hit": false,
      "t": 93776.13000000021,
      "d": 78.67124999999942,
      "v": 47
    },
    {
      "midi": 56,
      "hit": false,
      "t": 93776.13000000021,
      "d": 78.67124999999942,
      "v": 55
    },
    {
      "midi": 82,
      "hit": false,
      "t": 93780.50062499964,
      "d": 30.594375000000582,
      "v": 67
    },
    {
      "midi": 49,
      "hit": false,
      "t": 93985.9199999995,
      "d": 375.87374999999884,
      "v": 104
    },
    {
      "midi": 56,
      "hit": false,
      "t": 93985.9199999995,
      "d": 375.87374999999884,
      "v": 104
    },
    {
      "midi": 82,
      "hit": false,
      "t": 93985.91999999963,
      "d": 39.335625000006985,
      "v": 82
    },
    {
      "midi": 37,
      "hit": false,
      "t": 93985.9199999999,
      "d": 506.992499999993,
      "v": 99
    },
    {
      "midi": 49,
      "hit": false,
      "t": 93985.92000000006,
      "d": 83.04187499999534,
      "v": 76
    },
    {
      "midi": 52,
      "hit": false,
      "t": 93985.9200000002,
      "d": 78.67124999999942,
      "v": 47
    },
    {
      "midi": 61,
      "hit": false,
      "t": 93985.9200000002,
      "d": 78.67124999999942,
      "v": 51
    },
    {
      "midi": 37,
      "hit": false,
      "t": 93985.9200000002,
      "d": 196.67812500000582,
      "v": 58
    },
    {
      "midi": 61,
      "hit": false,
      "t": 93994.66124999964,
      "d": 4.3706249999959255,
      "v": 62
    },
    {
      "midi": 49,
      "hit": false,
      "t": 94195.71000000005,
      "d": 253.4962499999965,
      "v": 28
    },
    {
      "midi": 82,
      "hit": false,
      "t": 94204.45124999963,
      "d": 30.594375000000582,
      "v": 42
    },
    {
      "midi": 64,
      "hit": false,
      "t": 94309.34624999964,
      "d": 4.3706249999959255,
      "v": 37
    },
    {
      "midi": 76,
      "hit": false,
      "t": 94405.4999999999,
      "d": 187.93687499999942,
      "v": 104
    },
    {
      "midi": 56,
      "hit": false,
      "t": 94405.50000000004,
      "d": 201.04875000000175,
      "v": 57
    },
    {
      "midi": 61,
      "hit": false,
      "t": 94405.50000000004,
      "d": 476.39812499999243,
      "v": 61
    },
    {
      "midi": 61,
      "hit": false,
      "t": 94405.5000000002,
      "d": 922.2018749999988,
      "v": 62
    },
    {
      "midi": 68,
      "hit": false,
      "t": 94409.8706250002,
      "d": 922.2018749999988,
      "v": 62
    },
    {
      "midi": 60,
      "hit": false,
      "t": 94414.24124999963,
      "d": 4.3706249999959255,
      "v": 85
    },
    {
      "midi": 62,
      "hit": false,
      "t": 94414.24124999963,
      "d": 4.3706249999959255,
      "v": 82
    },
    {
      "midi": 82,
      "hit": false,
      "t": 94414.24124999963,
      "d": 30.594375000000582,
      "v": 47
    },
    {
      "midi": 64,
      "hit": false,
      "t": 94414.24125000005,
      "d": 463.2862499999901,
      "v": 64
    },
    {
      "midi": 56,
      "hit": false,
      "t": 94414.2412500002,
      "d": 922.2018749999988,
      "v": 61
    },
    {
      "midi": 49,
      "hit": false,
      "t": 94615.2899999995,
      "d": 187.93687499999942,
      "v": 104
    },
    {
      "midi": 56,
      "hit": false,
      "t": 94615.2899999995,
      "d": 187.93687499999942,
      "v": 104
    },
    {
      "midi": 82,
      "hit": false,
      "t": 94615.28999999963,
      "d": 39.335625000006985,
      "v": 82
    },
    {
      "midi": 80,
      "hit": false,
      "t": 94615.28999999989,
      "d": 375.87374999999884,
      "v": 104
    },
    {
      "midi": 37,
      "hit": false,
      "t": 94615.28999999989,
      "d": 78.67124999999942,
      "v": 99
    },
    {
      "midi": 61,
      "hit": false,
      "t": 94624.03124999964,
      "d": 4.3706249999959255,
      "v": 70
    },
    {
      "midi": 64,
      "hit": false,
      "t": 94624.03124999964,
      "d": 4.3706249999959255,
      "v": 82
    },
    {
      "midi": 49,
      "hit": false,
      "t": 94825.07999999949,
      "d": 375.87374999999884,
      "v": 104
    },
    {
      "midi": 56,
      "hit": false,
      "t": 94825.07999999949,
      "d": 375.87374999999884,
      "v": 104
    },
    {
      "midi": 37,
      "hit": false,
      "t": 94825.07999999989,
      "d": 502.6218749999971,
      "v": 99
    },
    {
      "midi": 49,
      "hit": false,
      "t": 94825.08000000005,
      "d": 222.90187499999593,
      "v": 63
    },
    {
      "midi": 56,
      "hit": false,
      "t": 94825.08000000005,
      "d": 712.4118749999907,
      "v": 54
    },
    {
      "midi": 82,
      "hit": false,
      "t": 94833.82124999963,
      "d": 30.594375000000582,
      "v": 53
    },
    {
      "midi": 82,
      "hit": false,
      "t": 95034.86999999963,
      "d": 30.594375000000582,
      "v": 39
    },
    {
      "midi": 76,
      "hit": false,
      "t": 95034.8699999999,
      "d": 375.87374999999884,
      "v": 104
    },
    {
      "midi": 64,
      "hit": false,
      "t": 95034.87000000004,
      "d": 568.1812499999942,
      "v": 45
    },
    {
      "midi": 64,
      "hit": false,
      "t": 95148.50624999963,
      "d": 4.3706249999959255,
      "v": 73
    },
    {
      "midi": 62,
      "hit": false,
      "t": 95249.03062499962,
      "d": 4.3706249999959255,
      "v": 88
    },
    {
      "midi": 60,
      "hit": false,
      "t": 95253.40124999962,
      "d": 4.3706249999959255,
      "v": 82
    },
    {
      "midi": 82,
      "hit": false,
      "t": 95253.40124999962,
      "d": 39.33562499999243,
      "v": 82
    },
    {
      "midi": 49,
      "hit": false,
      "t": 95454.44999999949,
      "d": 187.93687499999942,
      "v": 104
    },
    {
      "midi": 56,
      "hit": false,
      "t": 95454.44999999949,
      "d": 187.93687499999942,
      "v": 104
    },
    {
      "midi": 37,
      "hit": false,
      "t": 95454.44999999988,
      "d": 74.30062500000349,
      "v": 99
    },
    {
      "midi": 83,
      "hit": false,
      "t": 95454.4499999999,
      "d": 563.8106249999983,
      "v": 104
    },
    {
      "midi": 63,
      "hit": false,
      "t": 95458.82062499961,
      "d": 4.3706249999959255,
      "v": 82
    },
    {
      "midi": 54,
      "hit": false,
      "t": 95458.8206250002,
      "d": 205.41937499999767,
      "v": 61
    },
    {
      "midi": 66,
      "hit": false,
      "t": 95458.8206250002,
      "d": 205.41937499999767,
      "v": 66
    },
    {
      "midi": 61,
      "hit": false,
      "t": 95463.19124999961,
      "d": 4.3706249999959255,
      "v": 62
    },
    {
      "midi": 82,
      "hit": false,
      "t": 95463.19124999961,
      "d": 30.594375000000582,
      "v": 58
    },
    {
      "midi": 49,
      "hit": false,
      "t": 95463.19125000019,
      "d": 201.04875000000175,
      "v": 46
    },
    {
      "midi": 54,
      "hit": false,
      "t": 95664.23999999948,
      "d": 375.87374999999884,
      "v": 104
    },
    {
      "midi": 57,
      "hit": false,
      "t": 95664.23999999948,
      "d": 375.87374999999884,
      "v": 104
    },
    {
      "midi": 30,
      "hit": false,
      "t": 95664.23999999989,
      "d": 187.93687499999942,
      "v": 99
    },
    {
      "midi": 57,
      "hit": false,
      "t": 95664.24000000003,
      "d": 87.41250000000582,
      "v": 56
    },
    {
      "midi": 61,
      "hit": false,
      "t": 95664.24000000003,
      "d": 87.41250000000582,
      "v": 56
    },
    {
      "midi": 66,
      "hit": false,
      "t": 95664.24000000003,
      "d": 161.7131250000093,
      "v": 56
    },
    {
      "midi": 42,
      "hit": false,
      "t": 95664.2400000002,
      "d": 196.67812500000582,
      "v": 58
    },
    {
      "midi": 62,
      "hit": false,
      "t": 95672.98124999962,
      "d": 4.3706249999959255,
      "v": 62
    },
    {
      "midi": 82,
      "hit": false,
      "t": 95878.40062499962,
      "d": 30.594375000000582,
      "v": 81
    },
    {
      "midi": 61,
      "hit": false,
      "t": 96083.81999999961,
      "d": 4.3706249999959255,
      "v": 85
    },
    {
      "midi": 81,
      "hit": false,
      "t": 96083.81999999989,
      "d": 187.93687499999942,
      "v": 104
    },
    {
      "midi": 30,
      "hit": false,
      "t": 96083.81999999989,
      "d": 808.5656250000029,
      "v": 98
    },
    {
      "midi": 66,
      "hit": false,
      "t": 96083.82000000005,
      "d": 1127.6212499999965,
      "v": 59
    },
    {
      "midi": 61,
      "hit": false,
      "t": 96083.82000000005,
      "d": 1158.215624999997,
      "v": 60
    },
    {
      "midi": 63,
      "hit": false,
      "t": 96088.19062499961,
      "d": 4.3706249999959255,
      "v": 86
    },
    {
      "midi": 82,
      "hit": false,
      "t": 96088.19062499961,
      "d": 30.594375000000582,
      "v": 82
    },
    {
      "midi": 57,
      "hit": false,
      "t": 96088.19062500005,
      "d": 1153.8450000000012,
      "v": 60
    },
    {
      "midi": 54,
      "hit": false,
      "t": 96092.5612500002,
      "d": 607.5168750000012,
      "v": 57
    },
    {
      "midi": 57,
      "hit": false,
      "t": 96092.5612500002,
      "d": 607.5168750000012,
      "v": 57
    },
    {
      "midi": 66,
      "hit": false,
      "t": 96096.9318750002,
      "d": 607.5168750000012,
      "v": 57
    },
    {
      "midi": 54,
      "hit": false,
      "t": 96293.60999999948,
      "d": 187.93687499999942,
      "v": 104
    },
    {
      "midi": 57,
      "hit": false,
      "t": 96293.60999999948,
      "d": 187.93687499999942,
      "v": 104
    },
    {
      "midi": 80,
      "hit": false,
      "t": 96293.60999999988,
      "d": 375.87374999999884,
      "v": 104
    },
    {
      "midi": 54,
      "hit": false,
      "t": 96503.39999999947,
      "d": 375.87374999999884,
      "v": 104
    },
    {
      "midi": 57,
      "hit": false,
      "t": 96503.39999999947,
      "d": 375.87374999999884,
      "v": 104
    },
    {
      "midi": 81,
      "hit": false,
      "t": 96713.18999999989,
      "d": 375.87374999999884,
      "v": 104
    },
    {
      "midi": 62,
      "hit": false,
      "t": 96717.5606249996,
      "d": 4.3706249999959255,
      "v": 99
    },
    {
      "midi": 61,
      "hit": false,
      "t": 96922.9799999996,
      "d": 4.3706249999959255,
      "v": 85
    },
    {
      "midi": 37,
      "hit": false,
      "t": 96922.9799999999,
      "d": 209.7899999999936,
      "v": 99
    },
    {
      "midi": 66,
      "hit": false,
      "t": 96927.3506250002,
      "d": 69.92999999999302,
      "v": 66
    },
    {
      "midi": 64,
      "hit": false,
      "t": 96931.7212499996,
      "d": 4.3706249999959255,
      "v": 86
    },
    {
      "midi": 49,
      "hit": false,
      "t": 96931.72125000019,
      "d": 52.44749999999476,
      "v": 66
    },
    {
      "midi": 57,
      "hit": false,
      "t": 96931.72125000019,
      "d": 61.188750000001164,
      "v": 66
    },
    {
      "midi": 54,
      "hit": false,
      "t": 97132.76999999947,
      "d": 187.93687499999942,
      "v": 104
    },
    {
      "midi": 57,
      "hit": false,
      "t": 97132.76999999947,
      "d": 187.93687499999942,
      "v": 104
    },
    {
      "midi": 64,
      "hit": false,
      "t": 97132.7699999996,
      "d": 4.3706249999959255,
      "v": 65
    },
    {
      "midi": 76,
      "hit": false,
      "t": 97132.76999999989,
      "d": 939.6843749999971,
      "v": 104
    },
    {
      "midi": 30,
      "hit": false,
      "t": 97132.76999999989,
      "d": 179.19562499999302,
      "v": 99
    },
    {
      "midi": 47,
      "hit": false,
      "t": 97342.55999999946,
      "d": 375.87374999999884,
      "v": 104
    },
    {
      "midi": 50,
      "hit": false,
      "t": 97342.55999999946,
      "d": 375.87374999999884,
      "v": 104
    },
    {
      "midi": 54,
      "hit": false,
      "t": 97342.55999999946,
      "d": 375.87374999999884,
      "v": 104
    },
    {
      "midi": 35,
      "hit": false,
      "t": 97342.55999999988,
      "d": 423.9506249999977,
      "v": 99
    },
    {
      "midi": 47,
      "hit": false,
      "t": 97342.56000000019,
      "d": 170.45437500000116,
      "v": 58
    },
    {
      "midi": 47,
      "hit": false,
      "t": 97346.93062500004,
      "d": 196.67812500000582,
      "v": 59
    },
    {
      "midi": 64,
      "hit": false,
      "t": 97556.7206249996,
      "d": 4.3706249999959255,
      "v": 55
    },
    {
      "midi": 54,
      "hit": false,
      "t": 97762.14000000004,
      "d": 56.81812500000524,
      "v": 50
    },
    {
      "midi": 62,
      "hit": false,
      "t": 97762.14000000004,
      "d": 209.79000000000815,
      "v": 54
    },
    {
      "midi": 47,
      "hit": false,
      "t": 97762.14000000004,
      "d": 222.90187500001048,
      "v": 64
    },
    {
      "midi": 50,
      "hit": false,
      "t": 97762.14000000019,
      "d": 91.78312500000175,
      "v": 59
    },
    {
      "midi": 59,
      "hit": false,
      "t": 97762.14000000019,
      "d": 91.78312500000175,
      "v": 52
    },
    {
      "midi": 63,
      "hit": false,
      "t": 97766.51062499959,
      "d": 4.3706249999959255,
      "v": 86
    },
    {
      "midi": 54,
      "hit": false,
      "t": 97766.51062500018,
      "d": 104.89500000000407,
      "v": 48
    },
    {
      "midi": 66,
      "hit": false,
      "t": 97770.88125000018,
      "d": 74.30062500000349,
      "v": 62
    },
    {
      "midi": 62,
      "hit": false,
      "t": 97867.03499999958,
      "d": 4.3706249999959255,
      "v": 72
    },
    {
      "midi": 47,
      "hit": false,
      "t": 97971.92999999945,
      "d": 187.93687499999942,
      "v": 104
    },
    {
      "midi": 50,
      "hit": false,
      "t": 97971.92999999945,
      "d": 187.93687499999942,
      "v": 104
    },
    {
      "midi": 54,
      "hit": false,
      "t": 97971.92999999945,
      "d": 187.93687499999942,
      "v": 104
    },
    {
      "midi": 35,
      "hit": false,
      "t": 97971.92999999988,
      "d": 91.78312500000175,
      "v": 99
    },
    {
      "midi": 47,
      "hit": false,
      "t": 97971.93000000018,
      "d": 170.45437500000116,
      "v": 68
    },
    {
      "midi": 63,
      "hit": false,
      "t": 97976.30062499958,
      "d": 4.3706249999959255,
      "v": 86
    },
    {
      "midi": 47,
      "hit": false,
      "t": 98181.71999999945,
      "d": 375.87374999999884,
      "v": 104
    },
    {
      "midi": 50,
      "hit": false,
      "t": 98181.71999999945,
      "d": 375.87374999999884,
      "v": 104
    },
    {
      "midi": 54,
      "hit": false,
      "t": 98181.71999999945,
      "d": 375.87374999999884,
      "v": 104
    },
    {
      "midi": 35,
      "hit": false,
      "t": 98181.71999999988,
      "d": 415.2093750000058,
      "v": 99
    },
    {
      "midi": 47,
      "hit": false,
      "t": 98181.72000000006,
      "d": 118.0068750000064,
      "v": 63
    },
    {
      "midi": 50,
      "hit": false,
      "t": 98181.72000000019,
      "d": 170.45437500000116,
      "v": 63
    },
    {
      "midi": 62,
      "hit": false,
      "t": 98391.51000000007,
      "d": 847.9012500000244,
      "v": 45
    },
    {
      "midi": 54,
      "hit": false,
      "t": 98391.5100000002,
      "d": 388.98562500000116,
      "v": 48
    },
    {
      "midi": 59,
      "hit": false,
      "t": 98391.5100000002,
      "d": 388.98562500000116,
      "v": 59
    },
    {
      "midi": 64,
      "hit": false,
      "t": 98395.88062499958,
      "d": 4.3706249999959255,
      "v": 92
    },
    {
      "midi": 50,
      "hit": false,
      "t": 98395.8806250002,
      "d": 388.98562500000116,
      "v": 67
    },
    {
      "midi": 66,
      "hit": false,
      "t": 98395.8806250002,
      "d": 388.98562500000116,
      "v": 67
    },
    {
      "midi": 63,
      "hit": false,
      "t": 98601.29999999958,
      "d": 4.3706249999959255,
      "v": 86
    },
    {
      "midi": 47,
      "hit": false,
      "t": 98811.08999999944,
      "d": 187.93687499999942,
      "v": 104
    },
    {
      "midi": 50,
      "hit": false,
      "t": 98811.08999999944,
      "d": 187.93687499999942,
      "v": 104
    },
    {
      "midi": 54,
      "hit": false,
      "t": 98811.08999999944,
      "d": 187.93687499999942,
      "v": 104
    },
    {
      "midi": 69,
      "hit": false,
      "t": 98811.08999999988,
      "d": 187.93687499999942,
      "v": 104
    },
    {
      "midi": 35,
      "hit": false,
      "t": 98811.0899999999,
      "d": 91.78312500000175,
      "v": 99
    },
    {
      "midi": 54,
      "hit": false,
      "t": 98811.09000000007,
      "d": 26.223750000004657,
      "v": 37
    },
    {
      "midi": 47,
      "hit": false,
      "t": 98811.09000000007,
      "d": 201.04875000000175,
      "v": 35
    },
    {
      "midi": 63,
      "hit": false,
      "t": 98815.46062499957,
      "d": 4.3706249999959255,
      "v": 92
    },
    {
      "midi": 52,
      "hit": false,
      "t": 99020.87999999944,
      "d": 375.87374999999884,
      "v": 104
    },
    {
      "midi": 59,
      "hit": false,
      "t": 99020.87999999944,
      "d": 375.87374999999884,
      "v": 104
    },
    {
      "midi": 62,
      "hit": false,
      "t": 99020.87999999944,
      "d": 375.87374999999884,
      "v": 104
    },
    {
      "midi": 74,
      "hit": false,
      "t": 99020.87999999987,
      "d": 375.87374999999884,
      "v": 104
    },
    {
      "midi": 28,
      "hit": false,
      "t": 99020.8799999999,
      "d": 423.9506249999977,
      "v": 99
    },
    {
      "midi": 40,
      "hit": false,
      "t": 99020.8800000002,
      "d": 196.67812500000582,
      "v": 58
    },
    {
      "midi": 47,
      "hit": false,
      "t": 99025.25062500007,
      "d": 196.67812500000582,
      "v": 59
    },
    {
      "midi": 64,
      "hit": false,
      "t": 99235.04062499957,
      "d": 4.3706249999959255,
      "v": 55
    },
    {
      "midi": 40,
      "hit": false,
      "t": 99239.4112500002,
      "d": 1459.788750000007,
      "v": 64
    },
    {
      "midi": 73,
      "hit": false,
      "t": 99440.45999999988,
      "d": 187.93687499999942,
      "v": 104
    },
    {
      "midi": 47,
      "hit": false,
      "t": 99440.4600000001,
      "d": 222.90187499999593,
      "v": 64
    },
    {
      "midi": 62,
      "hit": false,
      "t": 99440.4600000001,
      "d": 384.61500000000524,
      "v": 54
    },
    {
      "midi": 50,
      "hit": false,
      "t": 99440.4600000002,
      "d": 91.78312500000175,
      "v": 67
    },
    {
      "midi": 59,
      "hit": false,
      "t": 99440.4600000002,
      "d": 91.78312500000175,
      "v": 67
    },
    {
      "midi": 63,
      "hit": false,
      "t": 99444.83062499957,
      "d": 4.3706249999959255,
      "v": 86
    },
    {
      "midi": 54,
      "hit": false,
      "t": 99444.83062500019,
      "d": 104.89500000000407,
      "v": 66
    },
    {
      "midi": 66,
      "hit": false,
      "t": 99449.20125000019,
      "d": 74.30062500000349,
      "v": 67
    },
    {
      "midi": 52,
      "hit": false,
      "t": 99650.24999999943,
      "d": 187.93687499999942,
      "v": 104
    },
    {
      "midi": 59,
      "hit": false,
      "t": 99650.24999999943,
      "d": 187.93687499999942,
      "v": 104
    },
    {
      "midi": 62,
      "hit": false,
      "t": 99650.24999999943,
      "d": 187.93687499999942,
      "v": 104
    },
    {
      "midi": 69,
      "hit": false,
      "t": 99650.24999999987,
      "d": 375.87374999999884,
      "v": 104
    },
    {
      "midi": 28,
      "hit": false,
      "t": 99650.2499999999,
      "d": 91.78312500000175,
      "v": 99
    },
    {
      "midi": 54,
      "hit": false,
      "t": 99650.25000000009,
      "d": 148.60125000000698,
      "v": 35
    },
    {
      "midi": 52,
      "hit": false,
      "t": 99860.03999999943,
      "d": 375.87374999999884,
      "v": 104
    },
    {
      "midi": 59,
      "hit": false,
      "t": 99860.03999999943,
      "d": 375.87374999999884,
      "v": 104
    },
    {
      "midi": 62,
      "hit": false,
      "t": 99860.03999999943,
      "d": 375.87374999999884,
      "v": 104
    },
    {
      "midi": 28,
      "hit": false,
      "t": 99860.0399999999,
      "d": 415.2093750000058,
      "v": 99
    },
    {
      "midi": 71,
      "hit": false,
      "t": 100069.82999999987,
      "d": 375.87374999999884,
      "v": 104
    },
    {
      "midi": 62,
      "hit": false,
      "t": 100069.83000000009,
      "d": 26.223750000004657,
      "v": 45
    },
    {
      "midi": 54,
      "hit": false,
      "t": 100069.83000000009,
      "d": 83.0418750000099,
      "v": 40
    },
    {
      "midi": 47,
      "hit": false,
      "t": 100069.83000000009,
      "d": 139.86000000001513,
      "v": 45
    },
    {
      "midi": 54,
      "hit": false,
      "t": 100069.83000000019,
      "d": 388.98562500000116,
      "v": 67
    },
    {
      "midi": 59,
      "hit": false,
      "t": 100069.83000000019,
      "d": 388.98562500000116,
      "v": 67
    },
    {
      "midi": 62,
      "hit": false,
      "t": 100074.20062499956,
      "d": 4.3706249999959255,
      "v": 92
    },
    {
      "midi": 50,
      "hit": false,
      "t": 100074.20062500019,
      "d": 388.98562500000116,
      "v": 67
    },
    {
      "midi": 66,
      "hit": false,
      "t": 100074.20062500019,
      "d": 388.98562500000116,
      "v": 67
    },
    {
      "midi": 64,
      "hit": false,
      "t": 100279.61999999956,
      "d": 4.3706249999959255,
      "v": 86
    },
    {
      "midi": 52,
      "hit": false,
      "t": 100489.40999999942,
      "d": 187.93687499999942,
      "v": 104
    },
    {
      "midi": 59,
      "hit": false,
      "t": 100489.40999999942,
      "d": 187.93687499999942,
      "v": 104
    },
    {
      "midi": 62,
      "hit": false,
      "t": 100489.40999999942,
      "d": 187.93687499999942,
      "v": 104
    },
    {
      "midi": 73,
      "hit": false,
      "t": 100489.40999999987,
      "d": 1695.8025000000052,
      "v": 104
    },
    {
      "midi": 28,
      "hit": false,
      "t": 100489.40999999992,
      "d": 91.78312500000175,
      "v": 99
    },
    {
      "midi": 54,
      "hit": false,
      "t": 100489.4100000001,
      "d": 187.93687499999942,
      "v": 37
    },
    {
      "midi": 47,
      "hit": false,
      "t": 100489.4100000001,
      "d": 201.04875000000175,
      "v": 35
    },
    {
      "midi": 50,
      "hit": false,
      "t": 100489.41000000019,
      "d": 170.45437500000116,
      "v": 63
    },
    {
      "midi": 64,
      "hit": false,
      "t": 100493.78062499955,
      "d": 4.3706249999959255,
      "v": 92
    },
    {
      "midi": 54,
      "hit": false,
      "t": 100699.19999999942,
      "d": 375.87374999999884,
      "v": 104
    },
    {
      "midi": 58,
      "hit": false,
      "t": 100699.19999999942,
      "d": 375.87374999999884,
      "v": 104
    },
    {
      "midi": 61,
      "hit": false,
      "t": 100699.19999999942,
      "d": 375.87374999999884,
      "v": 104
    },
    {
      "midi": 30,
      "hit": false,
      "t": 100699.19999999992,
      "d": 419.58000000000175,
      "v": 99
    },
    {
      "midi": 61,
      "hit": false,
      "t": 100699.2000000002,
      "d": 104.89500000000407,
      "v": 57
    },
    {
      "midi": 42,
      "hit": false,
      "t": 100699.2000000002,
      "d": 1534.089374999996,
      "v": 64
    },
    {
      "midi": 49,
      "hit": false,
      "t": 100703.57062500011,
      "d": 135.48937500000466,
      "v": 71
    },
    {
      "midi": 49,
      "hit": false,
      "t": 100707.9412500002,
      "d": 74.30062500000349,
      "v": 59
    },
    {
      "midi": 61,
      "hit": false,
      "t": 100908.9900000001,
      "d": 550.6987499999959,
      "v": 26
    },
    {
      "midi": 66,
      "hit": false,
      "t": 100917.7312500001,
      "d": 131.11874999999418,
      "v": 38
    },
    {
      "midi": 58,
      "hit": false,
      "t": 101114.4093750002,
      "d": 616.258124999993,
      "v": 67
    },
    {
      "midi": 66,
      "hit": false,
      "t": 101114.4093750002,
      "d": 616.258124999993,
      "v": 67
    },
    {
      "midi": 61,
      "hit": false,
      "t": 101118.7800000002,
      "d": 616.258124999993,
      "v": 66
    },
    {
      "midi": 63,
      "hit": false,
      "t": 101123.15062499954,
      "d": 4.3706249999959255,
      "v": 86
    },
    {
      "midi": 58,
      "hit": false,
      "t": 101123.1506250001,
      "d": 43.70625000000291,
      "v": 65
    },
    {
      "midi": 49,
      "hit": false,
      "t": 101127.52125000021,
      "d": 598.7756249999948,
      "v": 67
    },
    {
      "midi": 54,
      "hit": false,
      "t": 101328.56999999941,
      "d": 187.93687499999942,
      "v": 104
    },
    {
      "midi": 58,
      "hit": false,
      "t": 101328.56999999941,
      "d": 187.93687499999942,
      "v": 104
    },
    {
      "midi": 61,
      "hit": false,
      "t": 101328.56999999941,
      "d": 187.93687499999942,
      "v": 104
    },
    {
      "midi": 30,
      "hit": false,
      "t": 101328.56999999992,
      "d": 100.5243749999936,
      "v": 95
    },
    {
      "midi": 63,
      "hit": false,
      "t": 101332.94062499954,
      "d": 4.3706249999959255,
      "v": 42
    },
    {
      "midi": 58,
      "hit": false,
      "t": 101332.9406250001,
      "d": 13.111875000002328,
      "v": 45
    },
    {
      "midi": 70,
      "hit": false,
      "t": 101337.3112500001,
      "d": 222.90187500001048,
      "v": 40
    },
    {
      "midi": 54,
      "hit": false,
      "t": 101538.3599999994,
      "d": 375.87374999999884,
      "v": 104
    },
    {
      "midi": 58,
      "hit": false,
      "t": 101538.3599999994,
      "d": 375.87374999999884,
      "v": 104
    },
    {
      "midi": 61,
      "hit": false,
      "t": 101538.3599999994,
      "d": 375.87374999999884,
      "v": 104
    },
    {
      "midi": 30,
      "hit": false,
      "t": 101538.35999999991,
      "d": 472.0274999999965,
      "v": 92
    },
    {
      "midi": 49,
      "hit": false,
      "t": 101538.3600000001,
      "d": 240.38437500000873,
      "v": 58
    },
    {
      "midi": 61,
      "hit": false,
      "t": 101547.10125000011,
      "d": 174.8249999999971,
      "v": 48
    },
    {
      "midi": 61,
      "hit": false,
      "t": 101743.7793750002,
      "d": 388.98562500000116,
      "v": 67
    },
    {
      "midi": 66,
      "hit": false,
      "t": 101743.7793750002,
      "d": 388.98562500000116,
      "v": 67
    },
    {
      "midi": 62,
      "hit": false,
      "t": 101748.14999999953,
      "d": 4.3706249999959255,
      "v": 95
    },
    {
      "midi": 66,
      "hit": false,
      "t": 101748.15000000011,
      "d": 17.482499999998254,
      "v": 42
    },
    {
      "midi": 49,
      "hit": false,
      "t": 101748.1500000002,
      "d": 388.98562500000116,
      "v": 67
    },
    {
      "midi": 58,
      "hit": false,
      "t": 101748.1500000002,
      "d": 388.98562500000116,
      "v": 67
    },
    {
      "midi": 64,
      "hit": false,
      "t": 101957.93999999952,
      "d": 4.3706249999959255,
      "v": 47
    },
    {
      "midi": 58,
      "hit": false,
      "t": 102163.3593750002,
      "d": 170.4543749999866,
      "v": 55
    },
    {
      "midi": 54,
      "hit": false,
      "t": 102167.7299999994,
      "d": 187.93687499999942,
      "v": 104
    },
    {
      "midi": 58,
      "hit": false,
      "t": 102167.7299999994,
      "d": 187.93687499999942,
      "v": 104
    },
    {
      "midi": 61,
      "hit": false,
      "t": 102167.7299999994,
      "d": 187.93687499999942,
      "v": 104
    },
    {
      "midi": 30,
      "hit": false,
      "t": 102167.72999999991,
      "d": 100.5243749999936,
      "v": 99
    },
    {
      "midi": 64,
      "hit": false,
      "t": 102172.10062499951,
      "d": 4.3706249999959255,
      "v": 96
    },
    {
      "midi": 61,
      "hit": false,
      "t": 102172.10062500011,
      "d": 56.81812500000524,
      "v": 37
    },
    {
      "midi": 58,
      "hit": false,
      "t": 102172.10062500011,
      "d": 56.81812500000524,
      "v": 43
    },
    {
      "midi": 49,
      "hit": false,
      "t": 102373.1493750002,
      "d": 4.3706249999959255,
      "v": 59
    },
    {
      "midi": 61,
      "hit": false,
      "t": 102373.1493750002,
      "d": 4.3706249999959255,
      "v": 50
    },
    {
      "midi": 66,
      "hit": false,
      "t": 102373.1493750002,
      "d": 4.3706249999959255,
      "v": 63
    },
    {
      "midi": 74,
      "hit": false,
      "t": 102377.51999999987,
      "d": 751.7474999999977,
      "v": 104
    },
    {
      "midi": 78,
      "hit": false,
      "t": 102377.51999999987,
      "d": 751.7474999999977,
      "v": 104
    },
    {
      "midi": 81,
      "hit": false,
      "t": 102377.51999999987,
      "d": 751.7474999999977,
      "v": 104
    },
    {
      "midi": 28,
      "hit": false,
      "t": 102377.5199999999,
      "d": 423.9506249999977,
      "v": 99
    },
    {
      "midi": 40,
      "hit": false,
      "t": 102377.5200000002,
      "d": 170.45437500000116,
      "v": 58
    },
    {
      "midi": 47,
      "hit": false,
      "t": 102381.89062500012,
      "d": 196.67812500000582,
      "v": 59
    },
    {
      "midi": 52,
      "hit": false,
      "t": 102587.3099999994,
      "d": 187.93687499999942,
      "v": 104
    },
    {
      "midi": 59,
      "hit": false,
      "t": 102587.3099999994,
      "d": 187.93687499999942,
      "v": 104
    },
    {
      "midi": 62,
      "hit": false,
      "t": 102587.3099999994,
      "d": 187.93687499999942,
      "v": 104
    },
    {
      "midi": 64,
      "hit": false,
      "t": 102591.68062499951,
      "d": 4.3706249999959255,
      "v": 55
    },
    {
      "midi": 40,
      "hit": false,
      "t": 102596.0512500002,
      "d": 1315.5581250000105,
      "v": 64
    },
    {
      "midi": 54,
      "hit": false,
      "t": 102797.10000000012,
      "d": 56.81812500000524,
      "v": 50
    },
    {
      "midi": 62,
      "hit": false,
      "t": 102797.10000000012,
      "d": 209.79000000000815,
      "v": 54
    },
    {
      "midi": 47,
      "hit": false,
      "t": 102797.10000000012,
      "d": 222.90187500001048,
      "v": 64
    },
    {
      "midi": 50,
      "hit": false,
      "t": 102797.1000000002,
      "d": 91.78312500000175,
      "v": 59
    },
    {
      "midi": 57,
      "hit": false,
      "t": 102797.1000000002,
      "d": 91.78312500000175,
      "v": 52
    },
    {
      "midi": 63,
      "hit": false,
      "t": 102801.4706249995,
      "d": 4.3706249999959255,
      "v": 86
    },
    {
      "midi": 54,
      "hit": false,
      "t": 102801.47062500019,
      "d": 104.89500000000407,
      "v": 48
    },
    {
      "midi": 66,
      "hit": false,
      "t": 102805.84125000019,
      "d": 74.30062500000349,
      "v": 62
    },
    {
      "midi": 62,
      "hit": false,
      "t": 102901.9949999995,
      "d": 4.3706249999959255,
      "v": 72
    },
    {
      "midi": 52,
      "hit": false,
      "t": 103006.8899999994,
      "d": 187.93687499999942,
      "v": 104
    },
    {
      "midi": 59,
      "hit": false,
      "t": 103006.8899999994,
      "d": 187.93687499999942,
      "v": 104
    },
    {
      "midi": 62,
      "hit": false,
      "t": 103006.8899999994,
      "d": 187.93687499999942,
      "v": 104
    },
    {
      "midi": 28,
      "hit": false,
      "t": 103006.8899999999,
      "d": 91.78312500000175,
      "v": 99
    },
    {
      "midi": 45,
      "hit": false,
      "t": 103006.89000000019,
      "d": 170.45437500000116,
      "v": 68
    },
    {
      "midi": 63,
      "hit": false,
      "t": 103011.2606249995,
      "d": 4.3706249999959255,
      "v": 86
    },
    {
      "midi": 52,
      "hit": false,
      "t": 103216.6799999994,
      "d": 375.87374999999884,
      "v": 104
    },
    {
      "midi": 59,
      "hit": false,
      "t": 103216.6799999994,
      "d": 375.87374999999884,
      "v": 104
    },
    {
      "midi": 62,
      "hit": false,
      "t": 103216.6799999994,
      "d": 375.87374999999884,
      "v": 104
    },
    {
      "midi": 73,
      "hit": false,
      "t": 103216.67999999988,
      "d": 375.87374999999884,
      "v": 104
    },
    {
      "midi": 28,
      "hit": false,
      "t": 103216.6799999999,
      "d": 415.2093750000058,
      "v": 99
    },
    {
      "midi": 47,
      "hit": false,
      "t": 103216.68000000014,
      "d": 118.0068750000064,
      "v": 63
    },
    {
      "midi": 50,
      "hit": false,
      "t": 103216.6800000002,
      "d": 170.45437500000116,
      "v": 63
    },
    {
      "midi": 62,
      "hit": false,
      "t": 103426.47000000015,
      "d": 847.9012500000244,
      "v": 45
    },
    {
      "midi": 54,
      "hit": false,
      "t": 103426.4700000002,
      "d": 388.98562500000116,
      "v": 48
    },
    {
      "midi": 57,
      "hit": false,
      "t": 103426.4700000002,
      "d": 388.98562500000116,
      "v": 59
    },
    {
      "midi": 64,
      "hit": false,
      "t": 103430.8406249995,
      "d": 4.3706249999959255,
      "v": 92
    },
    {
      "midi": 50,
      "hit": false,
      "t": 103430.8406250002,
      "d": 388.98562500000116,
      "v": 67
    },
    {
      "midi": 66,
      "hit": false,
      "t": 103430.8406250002,
      "d": 388.98562500000116,
      "v": 67
    },
    {
      "midi": 63,
      "hit": false,
      "t": 103636.2599999995,
      "d": 4.3706249999959255,
      "v": 86
    },
    {
      "midi": 74,
      "hit": false,
      "t": 103636.25999999988,
      "d": 375.87374999999884,
      "v": 104
    },
    {
      "midi": 28,
      "hit": false,
      "t": 103846.04999999992,
      "d": 91.78312500000175,
      "v": 99
    },
    {
      "midi": 54,
      "hit": false,
      "t": 103846.05000000015,
      "d": 26.223750000004657,
      "v": 37
    },
    {
      "midi": 47,
      "hit": false,
      "t": 103846.05000000015,
      "d": 201.04875000000175,
      "v": 35
    },
    {
      "midi": 63,
      "hit": false,
      "t": 103850.42062499949,
      "d": 4.3706249999959255,
      "v": 92
    },
    {
      "midi": 57,
      "hit": false,
      "t": 104055.8399999994,
      "d": 375.87374999999884,
      "v": 104
    },
    {
      "midi": 61,
      "hit": false,
      "t": 104055.8399999994,
      "d": 375.87374999999884,
      "v": 104
    },
    {
      "midi": 76,
      "hit": false,
      "t": 104055.83999999988,
      "d": 375.87374999999884,
      "v": 104
    },
    {
      "midi": 33,
      "hit": false,
      "t": 104055.83999999992,
      "d": 423.9506249999977,
      "v": 99
    },
    {
      "midi": 45,
      "hit": false,
      "t": 104055.8400000002,
      "d": 196.67812500000582,
      "v": 58
    },
    {
      "midi": 52,
      "hit": false,
      "t": 104060.21062500015,
      "d": 196.67812500000582,
      "v": 59
    },
    {
      "midi": 64,
      "hit": false,
      "t": 104270.00062499949,
      "d": 4.3706249999959255,
      "v": 55
    },
    {
      "midi": 45,
      "hit": false,
      "t": 104274.3712500002,
      "d": 2993.8781250000175,
      "v": 64
    },
    {
      "midi": 76,
      "hit": false,
      "t": 104475.41999999988,
      "d": 187.93687499999942,
      "v": 104
    },
    {
      "midi": 52,
      "hit": false,
      "t": 104475.42000000017,
      "d": 222.90187499999593,
      "v": 64
    },
    {
      "midi": 64,
      "hit": false,
      "t": 104475.42000000017,
      "d": 384.61500000000524,
      "v": 54
    },
    {
      "midi": 52,
      "hit": false,
      "t": 104475.4200000002,
      "d": 91.78312500000175,
      "v": 67
    },
    {
      "midi": 61,
      "hit": false,
      "t": 104475.4200000002,
      "d": 91.78312500000175,
      "v": 67
    },
    {
      "midi": 63,
      "hit": false,
      "t": 104479.79062499948,
      "d": 4.3706249999959255,
      "v": 86
    },
    {
      "midi": 56,
      "hit": false,
      "t": 104479.7906250002,
      "d": 104.89500000000407,
      "v": 66
    },
    {
      "midi": 64,
      "hit": false,
      "t": 104484.1612500002,
      "d": 74.30062500000349,
      "v": 67
    },
    {
      "midi": 57,
      "hit": false,
      "t": 104685.2099999994,
      "d": 187.93687499999942,
      "v": 104
    },
    {
      "midi": 61,
      "hit": false,
      "t": 104685.2099999994,
      "d": 187.93687499999942,
      "v": 104
    },
    {
      "midi": 76,
      "hit": false,
      "t": 104685.20999999988,
      "d": 375.87374999999884,
      "v": 104
    },
    {
      "midi": 33,
      "hit": false,
      "t": 104685.20999999992,
      "d": 91.78312500000175,
      "v": 99
    },
    {
      "midi": 56,
      "hit": false,
      "t": 104685.21000000017,
      "d": 148.60125000000698,
      "v": 35
    },
    {
      "midi": 57,
      "hit": false,
      "t": 104894.99999999939,
      "d": 375.87374999999884,
      "v": 104
    },
    {
      "midi": 61,
      "hit": false,
      "t": 104894.99999999939,
      "d": 375.87374999999884,
      "v": 104
    },
    {
      "midi": 33,
      "hit": false,
      "t": 104894.99999999993,
      "d": 415.2093750000058,
      "v": 99
    },
    {
      "midi": 78,
      "hit": false,
      "t": 105104.78999999988,
      "d": 187.93687499999942,
      "v": 104
    },
    {
      "midi": 64,
      "hit": false,
      "t": 105104.79000000017,
      "d": 26.223750000004657,
      "v": 45
    },
    {
      "midi": 56,
      "hit": false,
      "t": 105104.79000000017,
      "d": 83.0418750000099,
      "v": 40
    },
    {
      "midi": 52,
      "hit": false,
      "t": 105104.79000000017,
      "d": 139.86000000001513,
      "v": 45
    },
    {
      "midi": 56,
      "hit": false,
      "t": 105104.7900000002,
      "d": 388.98562500000116,
      "v": 67
    },
    {
      "midi": 61,
      "hit": false,
      "t": 105104.7900000002,
      "d": 388.98562500000116,
      "v": 67
    },
    {
      "midi": 62,
      "hit": false,
      "t": 105109.16062499948,
      "d": 4.3706249999959255,
      "v": 92
    },
    {
      "midi": 52,
      "hit": false,
      "t": 105109.1606250002,
      "d": 388.98562500000116,
      "v": 67
    },
    {
      "midi": 64,
      "hit": false,
      "t": 105109.1606250002,
      "d": 388.98562500000116,
      "v": 67
    },
    {
      "midi": 64,
      "hit": false,
      "t": 105314.57999999948,
      "d": 4.3706249999959255,
      "v": 86
    },
    {
      "midi": 76,
      "hit": false,
      "t": 105314.57999999987,
      "d": 187.93687499999942,
      "v": 104
    },
    {
      "midi": 57,
      "hit": false,
      "t": 105524.36999999938,
      "d": 187.93687499999942,
      "v": 104
    },
    {
      "midi": 61,
      "hit": false,
      "t": 105524.36999999938,
      "d": 187.93687499999942,
      "v": 104
    },
    {
      "midi": 76,
      "hit": false,
      "t": 105524.36999999986,
      "d": 563.8106249999983,
      "v": 104
    },
    {
      "midi": 33,
      "hit": false,
      "t": 105524.36999999994,
      "d": 91.78312500000175,
      "v": 99
    },
    {
      "midi": 56,
      "hit": false,
      "t": 105524.37000000018,
      "d": 187.93687499999942,
      "v": 37
    },
    {
      "midi": 52,
      "hit": false,
      "t": 105524.37000000018,
      "d": 201.04875000000175,
      "v": 35
    },
    {
      "midi": 52,
      "hit": false,
      "t": 105524.3700000002,
      "d": 170.45437500000116,
      "v": 63
    },
    {
      "midi": 64,
      "hit": false,
      "t": 105528.74062499947,
      "d": 4.3706249999959255,
      "v": 92
    },
    {
      "midi": 57,
      "hit": false,
      "t": 105734.15999999938,
      "d": 375.87374999999884,
      "v": 104
    },
    {
      "midi": 61,
      "hit": false,
      "t": 105734.15999999938,
      "d": 375.87374999999884,
      "v": 104
    },
    {
      "midi": 33,
      "hit": false,
      "t": 105734.15999999995,
      "d": 419.58000000000175,
      "v": 99
    },
    {
      "midi": 52,
      "hit": false,
      "t": 105734.16000000019,
      "d": 83.04187499999534,
      "v": 61
    },
    {
      "midi": 56,
      "hit": false,
      "t": 105734.16000000019,
      "d": 83.04187499999534,
      "v": 61
    },
    {
      "midi": 64,
      "hit": false,
      "t": 105734.16000000019,
      "d": 96.15374999999767,
      "v": 61
    },
    {
      "midi": 52,
      "hit": false,
      "t": 105734.1600000002,
      "d": 170.45437500000116,
      "v": 55
    },
    {
      "midi": 56,
      "hit": false,
      "t": 105734.1600000002,
      "d": 170.45437500000116,
      "v": 63
    },
    {
      "midi": 61,
      "hit": false,
      "t": 105734.1600000002,
      "d": 170.45437500000116,
      "v": 59
    },
    {
      "midi": 64,
      "hit": false,
      "t": 105738.5306250002,
      "d": 170.45437500000116,
      "v": 59
    },
    {
      "midi": 56,
      "hit": false,
      "t": 106153.74000000018,
      "d": 201.04875000000175,
      "v": 57
    },
    {
      "midi": 63,
      "hit": false,
      "t": 106158.11062499946,
      "d": 4.3706249999959255,
      "v": 86
    },
    {
      "midi": 56,
      "hit": false,
      "t": 106158.1106250002,
      "d": 380.2443750000093,
      "v": 59
    },
    {
      "midi": 61,
      "hit": false,
      "t": 106158.1106250002,
      "d": 380.2443750000093,
      "v": 63
    },
    {
      "midi": 64,
      "hit": false,
      "t": 106158.1106250002,
      "d": 380.2443750000093,
      "v": 59
    },
    {
      "midi": 64,
      "hit": false,
      "t": 106162.48125000019,
      "d": 78.67124999999942,
      "v": 64
    },
    {
      "midi": 52,
      "hit": false,
      "t": 106166.85187500021,
      "d": 380.2443750000093,
      "v": 61
    },
    {
      "midi": 52,
      "hit": false,
      "t": 106359.15937500018,
      "d": 139.86000000000058,
      "v": 23
    },
    {
      "midi": 57,
      "hit": false,
      "t": 106363.52999999937,
      "d": 187.93687499999942,
      "v": 104
    },
    {
      "midi": 61,
      "hit": false,
      "t": 106363.52999999937,
      "d": 187.93687499999942,
      "v": 104
    },
    {
      "midi": 33,
      "hit": false,
      "t": 106363.52999999994,
      "d": 100.5243749999936,
      "v": 95
    },
    {
      "midi": 63,
      "hit": false,
      "t": 106367.90062499946,
      "d": 4.3706249999959255,
      "v": 42
    },
    {
      "midi": 57,
      "hit": false,
      "t": 106573.31999999937,
      "d": 375.87374999999884,
      "v": 104
    },
    {
      "midi": 61,
      "hit": false,
      "t": 106573.31999999937,
      "d": 375.87374999999884,
      "v": 104
    },
    {
      "midi": 73,
      "hit": false,
      "t": 106573.31999999986,
      "d": 375.87374999999884,
      "v": 104
    },
    {
      "midi": 33,
      "hit": false,
      "t": 106573.31999999993,
      "d": 472.0274999999965,
      "v": 92
    },
    {
      "midi": 56,
      "hit": false,
      "t": 106573.32000000018,
      "d": 209.7899999999936,
      "v": 54
    },
    {
      "midi": 61,
      "hit": false,
      "t": 106586.43187500023,
      "d": 170.45437500000116,
      "v": 57
    },
    {
      "midi": 62,
      "hit": false,
      "t": 106783.10999999945,
      "d": 4.3706249999959255,
      "v": 95
    },
    {
      "midi": 64,
      "hit": false,
      "t": 106783.11000000018,
      "d": 4.3706249999959255,
      "v": 45
    },
    {
      "midi": 52,
      "hit": false,
      "t": 106783.11000000018,
      "d": 174.8249999999971,
      "v": 45
    },
    {
      "midi": 56,
      "hit": false,
      "t": 106783.11000000018,
      "d": 218.53125,
      "v": 41
    },
    {
      "midi": 52,
      "hit": false,
      "t": 106787.48062500023,
      "d": 585.6637499999924,
      "v": 67
    },
    {
      "midi": 61,
      "hit": false,
      "t": 106791.85125000023,
      "d": 585.6637499999924,
      "v": 67
    },
    {
      "midi": 64,
      "hit": false,
      "t": 106791.85125000023,
      "d": 585.6637499999924,
      "v": 55
    },
    {
      "midi": 56,
      "hit": false,
      "t": 106796.22187500022,
      "d": 585.6637499999924,
      "v": 67
    },
    {
      "midi": 64,
      "hit": false,
      "t": 106992.89999999944,
      "d": 4.3706249999959255,
      "v": 47
    },
    {
      "midi": 74,
      "hit": false,
      "t": 106992.89999999986,
      "d": 375.87374999999884,
      "v": 104
    },
    {
      "midi": 57,
      "hit": false,
      "t": 107202.68999999936,
      "d": 187.93687499999942,
      "v": 104
    },
    {
      "midi": 61,
      "hit": false,
      "t": 107202.68999999936,
      "d": 187.93687499999942,
      "v": 104
    },
    {
      "midi": 33,
      "hit": false,
      "t": 107202.68999999993,
      "d": 100.5243749999936,
      "v": 99
    },
    {
      "midi": 56,
      "hit": false,
      "t": 107202.69000000018,
      "d": 113.63625000001048,
      "v": 44
    },
    {
      "midi": 52,
      "hit": false,
      "t": 107202.69000000018,
      "d": 288.46125000000757,
      "v": 41
    },
    {
      "midi": 64,
      "hit": false,
      "t": 107207.06062499943,
      "d": 4.3706249999959255,
      "v": 96
    },
    {
      "midi": 64,
      "hit": false,
      "t": 107211.43125000018,
      "d": 113.63625000001048,
      "v": 36
    },
    {
      "midi": 52,
      "hit": false,
      "t": 107412.47999999936,
      "d": 375.87374999999884,
      "v": 104
    },
    {
      "midi": 55,
      "hit": false,
      "t": 107412.47999999936,
      "d": 375.87374999999884,
      "v": 104
    },
    {
      "midi": 59,
      "hit": false,
      "t": 107412.47999999936,
      "d": 375.87374999999884,
      "v": 104
    },
    {
      "midi": 76,
      "hit": false,
      "t": 107412.47999999986,
      "d": 375.87374999999884,
      "v": 104
    },
    {
      "midi": 28,
      "hit": false,
      "t": 107412.47999999992,
      "d": 423.9506249999977,
      "v": 99
    },
    {
      "midi": 40,
      "hit": false,
      "t": 107412.48000000021,
      "d": 196.67812500000582,
      "v": 58
    },
    {
      "midi": 47,
      "hit": false,
      "t": 107416.8506250002,
      "d": 568.1812499999942,
      "v": 62
    },
    {
      "midi": 62,
      "hit": false,
      "t": 107421.22125000019,
      "d": 122.37749999998778,
      "v": 46
    },
    {
      "midi": 59,
      "hit": false,
      "t": 107421.22125000019,
      "d": 201.0487499999872,
      "v": 57
    },
    {
      "midi": 64,
      "hit": false,
      "t": 107626.64062499943,
      "d": 4.3706249999959255,
      "v": 55
    },
    {
      "midi": 59,
      "hit": false,
      "t": 107631.01125000019,
      "d": 104.89500000000407,
      "v": 24
    },
    {
      "midi": 40,
      "hit": false,
      "t": 107631.01125000021,
      "d": 1249.9987499999988,
      "v": 64
    },
    {
      "midi": 76,
      "hit": false,
      "t": 107832.05999999987,
      "d": 187.93687499999942,
      "v": 104
    },
    {
      "midi": 59,
      "hit": false,
      "t": 107832.06000000019,
      "d": 244.75500000000466,
      "v": 56
    },
    {
      "midi": 62,
      "hit": false,
      "t": 107832.06000000019,
      "d": 288.46125000000757,
      "v": 56
    },
    {
      "midi": 50,
      "hit": false,
      "t": 107832.06000000022,
      "d": 91.78312500000175,
      "v": 67
    },
    {
      "midi": 59,
      "hit": false,
      "t": 107832.06000000022,
      "d": 91.78312500000175,
      "v": 67
    },
    {
      "midi": 63,
      "hit": false,
      "t": 107836.43062499943,
      "d": 4.3706249999959255,
      "v": 86
    },
    {
      "midi": 55,
      "hit": false,
      "t": 107836.43062500021,
      "d": 104.89500000000407,
      "v": 66
    },
    {
      "midi": 64,
      "hit": false,
      "t": 107840.80125000021,
      "d": 74.30062500000349,
      "v": 67
    },
    {
      "midi": 52,
      "hit": false,
      "t": 108041.84999999935,
      "d": 187.93687499999942,
      "v": 104
    },
    {
      "midi": 55,
      "hit": false,
      "t": 108041.84999999935,
      "d": 187.93687499999942,
      "v": 104
    },
    {
      "midi": 59,
      "hit": false,
      "t": 108041.84999999935,
      "d": 187.93687499999942,
      "v": 104
    },
    {
      "midi": 76,
      "hit": false,
      "t": 108041.84999999986,
      "d": 375.87374999999884,
      "v": 104
    },
    {
      "midi": 28,
      "hit": false,
      "t": 108041.84999999992,
      "d": 91.78312500000175,
      "v": 99
    },
    {
      "midi": 55,
      "hit": false,
      "t": 108046.22062500019,
      "d": 375.87374999999884,
      "v": 38
    },
    {
      "midi": 52,
      "hit": false,
      "t": 108251.63999999934,
      "d": 375.87374999999884,
      "v": 104
    },
    {
      "midi": 55,
      "hit": false,
      "t": 108251.63999999934,
      "d": 375.87374999999884,
      "v": 104
    },
    {
      "midi": 59,
      "hit": false,
      "t": 108251.63999999934,
      "d": 375.87374999999884,
      "v": 104
    },
    {
      "midi": 28,
      "hit": false,
      "t": 108251.63999999993,
      "d": 415.2093750000058,
      "v": 99
    },
    {
      "midi": 47,
      "hit": false,
      "t": 108251.64000000019,
      "d": 236.01374999999825,
      "v": 51
    },
    {
      "midi": 76,
      "hit": false,
      "t": 108461.42999999986,
      "d": 187.93687499999942,
      "v": 104
    },
    {
      "midi": 59,
      "hit": false,
      "t": 108461.4300000002,
      "d": 555.0693749999919,
      "v": 44
    },
    {
      "midi": 62,
      "hit": false,
      "t": 108461.4300000002,
      "d": 603.1462499999907,
      "v": 43
    },
    {
      "midi": 55,
      "hit": false,
      "t": 108461.43000000021,
      "d": 388.98562500000116,
      "v": 67
    },
    {
      "midi": 59,
      "hit": false,
      "t": 108461.43000000021,
      "d": 388.98562500000116,
      "v": 67
    },
    {
      "midi": 62,
      "hit": false,
      "t": 108465.80062499942,
      "d": 4.3706249999959255,
      "v": 92
    },
    {
      "midi": 55,
      "hit": false,
      "t": 108465.80062500019,
      "d": 288.461249999993,
      "v": 43
    },
    {
      "midi": 50,
      "hit": false,
      "t": 108465.8006250002,
      "d": 388.98562500000116,
      "v": 67
    },
    {
      "midi": 64,
      "hit": false,
      "t": 108465.8006250002,
      "d": 388.98562500000116,
      "v": 67
    },
    {
      "midi": 64,
      "hit": false,
      "t": 108671.21999999942,
      "d": 4.3706249999959255,
      "v": 86
    },
    {
      "midi": 78,
      "hit": false,
      "t": 108671.21999999986,
      "d": 187.93687499999942,
      "v": 104
    },
    {
      "midi": 52,
      "hit": false,
      "t": 108881.00999999934,
      "d": 187.93687499999942,
      "v": 104
    },
    {
      "midi": 55,
      "hit": false,
      "t": 108881.00999999934,
      "d": 187.93687499999942,
      "v": 104
    },
    {
      "midi": 59,
      "hit": false,
      "t": 108881.00999999934,
      "d": 187.93687499999942,
      "v": 104
    },
    {
      "midi": 76,
      "hit": false,
      "t": 108881.00999999985,
      "d": 563.8106249999983,
      "v": 104
    },
    {
      "midi": 31,
      "hit": false,
      "t": 108881.00999999994,
      "d": 91.78312500000175,
      "v": 99
    },
    {
      "midi": 55,
      "hit": false,
      "t": 108881.01000000018,
      "d": 187.93687499999942,
      "v": 37
    },
    {
      "midi": 52,
      "hit": false,
      "t": 108881.01000000018,
      "d": 201.04875000000175,
      "v": 35
    },
    {
      "midi": 52,
      "hit": false,
      "t": 108881.01000000021,
      "d": 170.45437500000116,
      "v": 63
    },
    {
      "midi": 43,
      "hit": false,
      "t": 108881.01000000021,
      "d": 1743.8793750000186,
      "v": 64
    },
    {
      "midi": 64,
      "hit": false,
      "t": 108885.38062499941,
      "d": 4.3706249999959255,
      "v": 92
    },
    {
      "midi": 55,
      "hit": false,
      "t": 109090.79999999933,
      "d": 375.87374999999884,
      "v": 104
    },
    {
      "midi": 57,
      "hit": false,
      "t": 109090.79999999933,
      "d": 375.87374999999884,
      "v": 104
    },
    {
      "midi": 61,
      "hit": false,
      "t": 109090.79999999933,
      "d": 375.87374999999884,
      "v": 104
    },
    {
      "midi": 31,
      "hit": false,
      "t": 109090.79999999994,
      "d": 419.58000000000175,
      "v": 99
    },
    {
      "midi": 64,
      "hit": false,
      "t": 109090.80000000019,
      "d": 8.741250000006403,
      "v": 61
    },
    {
      "midi": 52,
      "hit": false,
      "t": 109090.80000000019,
      "d": 83.0418750000099,
      "v": 61
    },
    {
      "midi": 55,
      "hit": false,
      "t": 109090.80000000019,
      "d": 83.0418750000099,
      "v": 61
    },
    {
      "midi": 52,
      "hit": false,
      "t": 109090.80000000022,
      "d": 170.45437500000116,
      "v": 55
    },
    {
      "midi": 55,
      "hit": false,
      "t": 109090.80000000022,
      "d": 170.45437500000116,
      "v": 63
    },
    {
      "midi": 61,
      "hit": false,
      "t": 109090.80000000022,
      "d": 170.45437500000116,
      "v": 59
    },
    {
      "midi": 64,
      "hit": false,
      "t": 109095.17062500022,
      "d": 170.45437500000116,
      "v": 59
    },
    {
      "midi": 55,
      "hit": false,
      "t": 109510.3800000002,
      "d": 201.04875000000175,
      "v": 57
    },
    {
      "midi": 63,
      "hit": false,
      "t": 109514.7506249994,
      "d": 4.3706249999959255,
      "v": 86
    },
    {
      "midi": 55,
      "hit": false,
      "t": 109514.75062500022,
      "d": 380.2443750000093,
      "v": 59
    },
    {
      "midi": 61,
      "hit": false,
      "t": 109514.75062500022,
      "d": 380.2443750000093,
      "v": 63
    },
    {
      "midi": 64,
      "hit": false,
      "t": 109514.75062500022,
      "d": 380.2443750000093,
      "v": 59
    },
    {
      "midi": 64,
      "hit": false,
      "t": 109519.1212500002,
      "d": 78.67124999999942,
      "v": 64
    },
    {
      "midi": 52,
      "hit": false,
      "t": 109523.49187500023,
      "d": 380.2443750000093,
      "v": 61
    },
    {
      "midi": 52,
      "hit": false,
      "t": 109715.79937500019,
      "d": 139.86000000000058,
      "v": 23
    },
    {
      "midi": 55,
      "hit": false,
      "t": 109720.16999999933,
      "d": 187.93687499999942,
      "v": 104
    },
    {
      "midi": 57,
      "hit": false,
      "t": 109720.16999999933,
      "d": 187.93687499999942,
      "v": 104
    },
    {
      "midi": 61,
      "hit": false,
      "t": 109720.16999999933,
      "d": 187.93687499999942,
      "v": 104
    },
    {
      "midi": 31,
      "hit": false,
      "t": 109720.16999999994,
      "d": 100.5243749999936,
      "v": 95
    },
    {
      "midi": 63,
      "hit": false,
      "t": 109724.5406249994,
      "d": 4.3706249999959255,
      "v": 42
    },
    {
      "midi": 55,
      "hit": false,
      "t": 109929.95999999932,
      "d": 375.87374999999884,
      "v": 104
    },
    {
      "midi": 57,
      "hit": false,
      "t": 109929.95999999932,
      "d": 375.87374999999884,
      "v": 104
    },
    {
      "midi": 61,
      "hit": false,
      "t": 109929.95999999932,
      "d": 375.87374999999884,
      "v": 104
    },
    {
      "midi": 69,
      "hit": false,
      "t": 109929.95999999985,
      "d": 375.87374999999884,
      "v": 104
    },
    {
      "midi": 31,
      "hit": false,
      "t": 109929.95999999993,
      "d": 472.0274999999965,
      "v": 92
    },
    {
      "midi": 55,
      "hit": false,
      "t": 109929.9600000002,
      "d": 209.7899999999936,
      "v": 54
    },
    {
      "midi": 61,
      "hit": false,
      "t": 109943.07187500024,
      "d": 170.45437500000116,
      "v": 57
    },
    {
      "midi": 62,
      "hit": false,
      "t": 110139.74999999939,
      "d": 4.3706249999959255,
      "v": 95
    },
    {
      "midi": 64,
      "hit": false,
      "t": 110139.75000000019,
      "d": 4.3706249999959255,
      "v": 45
    },
    {
      "midi": 52,
      "hit": false,
      "t": 110139.75000000019,
      "d": 174.8249999999971,
      "v": 45
    },
    {
      "midi": 55,
      "hit": false,
      "t": 110139.75000000019,
      "d": 218.53125,
      "v": 41
    },
    {
      "midi": 52,
      "hit": false,
      "t": 110144.12062500024,
      "d": 585.6637499999924,
      "v": 67
    },
    {
      "midi": 61,
      "hit": false,
      "t": 110148.49125000024,
      "d": 585.6637499999924,
      "v": 67
    },
    {
      "midi": 64,
      "hit": false,
      "t": 110148.49125000024,
      "d": 585.6637499999924,
      "v": 55
    },
    {
      "midi": 55,
      "hit": false,
      "t": 110152.86187500024,
      "d": 585.6637499999924,
      "v": 67
    },
    {
      "midi": 64,
      "hit": false,
      "t": 110349.53999999938,
      "d": 4.3706249999959255,
      "v": 47
    },
    {
      "midi": 71,
      "hit": false,
      "t": 110349.53999999985,
      "d": 375.87374999999884,
      "v": 104
    },
    {
      "midi": 55,
      "hit": false,
      "t": 110559.32999999932,
      "d": 187.93687499999942,
      "v": 104
    },
    {
      "midi": 57,
      "hit": false,
      "t": 110559.32999999932,
      "d": 187.93687499999942,
      "v": 104
    },
    {
      "midi": 61,
      "hit": false,
      "t": 110559.32999999932,
      "d": 187.93687499999942,
      "v": 104
    },
    {
      "midi": 31,
      "hit": false,
      "t": 110559.32999999993,
      "d": 100.5243749999936,
      "v": 99
    },
    {
      "midi": 55,
      "hit": false,
      "t": 110559.33000000019,
      "d": 113.63625000001048,
      "v": 44
    },
    {
      "midi": 52,
      "hit": false,
      "t": 110559.33000000019,
      "d": 288.46125000000757,
      "v": 41
    },
    {
      "midi": 64,
      "hit": false,
      "t": 110563.70062499937,
      "d": 4.3706249999959255,
      "v": 96
    },
    {
      "midi": 64,
      "hit": false,
      "t": 110568.0712500002,
      "d": 113.63625000001048,
      "v": 36
    },
    {
      "midi": 50,
      "hit": false,
      "t": 110769.11999999931,
      "d": 375.87374999999884,
      "v": 104
    },
    {
      "midi": 54,
      "hit": false,
      "t": 110769.11999999931,
      "d": 375.87374999999884,
      "v": 104
    },
    {
      "midi": 57,
      "hit": false,
      "t": 110769.11999999931,
      "d": 375.87374999999884,
      "v": 104
    },
    {
      "midi": 73,
      "hit": false,
      "t": 110769.11999999985,
      "d": 375.87374999999884,
      "v": 104
    },
    {
      "midi": 38,
      "hit": false,
      "t": 110769.11999999992,
      "d": 423.9506249999977,
      "v": 99
    },
    {
      "midi": 38,
      "hit": false,
      "t": 110769.12000000023,
      "d": 196.67812500000582,
      "v": 58
    },
    {
      "midi": 50,
      "hit": false,
      "t": 110773.49062500021,
      "d": 568.1812499999942,
      "v": 62
    },
    {
      "midi": 66,
      "hit": false,
      "t": 110777.8612500002,
      "d": 122.37749999998778,
      "v": 46
    },
    {
      "midi": 61,
      "hit": false,
      "t": 110777.8612500002,
      "d": 201.0487499999872,
      "v": 57
    },
    {
      "midi": 64,
      "hit": false,
      "t": 110983.28062499937,
      "d": 4.3706249999959255,
      "v": 55
    },
    {
      "midi": 61,
      "hit": false,
      "t": 110987.6512500002,
      "d": 104.89500000000407,
      "v": 24
    },
    {
      "midi": 38,
      "hit": false,
      "t": 110987.65125000023,
      "d": 1459.788750000007,
      "v": 64
    },
    {
      "midi": 74,
      "hit": false,
      "t": 111188.69999999985,
      "d": 187.93687499999942,
      "v": 104
    },
    {
      "midi": 61,
      "hit": false,
      "t": 111188.7000000002,
      "d": 244.75500000000466,
      "v": 56
    },
    {
      "midi": 66,
      "hit": false,
      "t": 111188.7000000002,
      "d": 288.46125000000757,
      "v": 56
    },
    {
      "midi": 49,
      "hit": false,
      "t": 111188.70000000023,
      "d": 91.78312500000175,
      "v": 67
    },
    {
      "midi": 57,
      "hit": false,
      "t": 111188.70000000023,
      "d": 91.78312500000175,
      "v": 67
    },
    {
      "midi": 63,
      "hit": false,
      "t": 111193.07062499937,
      "d": 4.3706249999959255,
      "v": 86
    },
    {
      "midi": 54,
      "hit": false,
      "t": 111193.07062500023,
      "d": 104.89500000000407,
      "v": 66
    },
    {
      "midi": 69,
      "hit": false,
      "t": 111197.44125000022,
      "d": 74.30062500000349,
      "v": 67
    },
    {
      "midi": 54,
      "hit": false,
      "t": 111398.4899999993,
      "d": 187.93687499999942,
      "v": 104
    },
    {
      "midi": 57,
      "hit": false,
      "t": 111398.4899999993,
      "d": 187.93687499999942,
      "v": 104
    },
    {
      "midi": 61,
      "hit": false,
      "t": 111398.4899999993,
      "d": 187.93687499999942,
      "v": 104
    },
    {
      "midi": 73,
      "hit": false,
      "t": 111398.48999999985,
      "d": 375.87374999999884,
      "v": 104
    },
    {
      "midi": 38,
      "hit": false,
      "t": 111398.48999999992,
      "d": 91.78312500000175,
      "v": 99
    },
    {
      "midi": 57,
      "hit": false,
      "t": 111402.8606250002,
      "d": 375.87374999999884,
      "v": 38
    },
    {
      "midi": 54,
      "hit": false,
      "t": 111608.2799999993,
      "d": 375.87374999999884,
      "v": 104
    },
    {
      "midi": 57,
      "hit": false,
      "t": 111608.2799999993,
      "d": 375.87374999999884,
      "v": 104
    },
    {
      "midi": 61,
      "hit": false,
      "t": 111608.2799999993,
      "d": 375.87374999999884,
      "v": 104
    },
    {
      "midi": 38,
      "hit": false,
      "t": 111608.27999999993,
      "d": 415.2093750000058,
      "v": 99
    },
    {
      "midi": 50,
      "hit": false,
      "t": 111608.2800000002,
      "d": 236.01374999999825,
      "v": 51
    },
    {
      "midi": 74,
      "hit": false,
      "t": 111818.06999999985,
      "d": 375.87374999999884,
      "v": 104
    },
    {
      "midi": 66,
      "hit": false,
      "t": 111818.07000000021,
      "d": 821.6774999999761,
      "v": 43
    },
    {
      "midi": 54,
      "hit": false,
      "t": 111818.07000000023,
      "d": 388.98562500000116,
      "v": 67
    },
    {
      "midi": 57,
      "hit": false,
      "t": 111818.07000000023,
      "d": 388.98562500000116,
      "v": 67
    },
    {
      "midi": 62,
      "hit": false,
      "t": 111822.44062499936,
      "d": 4.3706249999959255,
      "v": 92
    },
    {
      "midi": 57,
      "hit": false,
      "t": 111822.4406250002,
      "d": 288.461249999993,
      "v": 43
    },
    {
      "midi": 49,
      "hit": false,
      "t": 111822.44062500022,
      "d": 388.98562500000116,
      "v": 67
    },
    {
      "midi": 69,
      "hit": false,
      "t": 111822.44062500022,
      "d": 388.98562500000116,
      "v": 67
    },
    {
      "midi": 64,
      "hit": false,
      "t": 112027.85999999936,
      "d": 4.3706249999959255,
      "v": 86
    },
    {
      "midi": 54,
      "hit": false,
      "t": 112237.6499999993,
      "d": 187.93687499999942,
      "v": 104
    },
    {
      "midi": 57,
      "hit": false,
      "t": 112237.6499999993,
      "d": 187.93687499999942,
      "v": 104
    },
    {
      "midi": 61,
      "hit": false,
      "t": 112237.6499999993,
      "d": 187.93687499999942,
      "v": 104
    },
    {
      "midi": 74,
      "hit": false,
      "t": 112237.64999999985,
      "d": 187.93687499999942,
      "v": 104
    },
    {
      "midi": 38,
      "hit": false,
      "t": 112237.64999999994,
      "d": 91.78312500000175,
      "v": 99
    },
    {
      "midi": 61,
      "hit": false,
      "t": 112237.6500000002,
      "d": 135.4893749999901,
      "v": 33
    },
    {
      "midi": 49,
      "hit": false,
      "t": 112237.65000000023,
      "d": 170.45437500000116,
      "v": 63
    },
    {
      "midi": 64,
      "hit": false,
      "t": 112242.02062499935,
      "d": 4.3706249999959255,
      "v": 92
    },
    {
      "midi": 57,
      "hit": false,
      "t": 112242.0206250002,
      "d": 113.63624999999593,
      "v": 31
    },
    {
      "midi": 49,
      "hit": false,
      "t": 112447.43999999929,
      "d": 375.87374999999884,
      "v": 104
    },
    {
      "midi": 56,
      "hit": false,
      "t": 112447.43999999929,
      "d": 375.87374999999884,
      "v": 104
    },
    {
      "midi": 76,
      "hit": false,
      "t": 112447.43999999984,
      "d": 751.7474999999977,
      "v": 104
    },
    {
      "midi": 37,
      "hit": false,
      "t": 112447.43999999994,
      "d": 419.58000000000175,
      "v": 99
    },
    {
      "midi": 49,
      "hit": false,
      "t": 112447.44000000019,
      "d": 83.04187499999534,
      "v": 61
    },
    {
      "midi": 56,
      "hit": false,
      "t": 112447.44000000019,
      "d": 83.04187499999534,
      "v": 61
    },
    {
      "midi": 64,
      "hit": false,
      "t": 112447.44000000019,
      "d": 96.15374999999767,
      "v": 61
    },
    {
      "midi": 52,
      "hit": false,
      "t": 112447.44000000024,
      "d": 170.45437500000116,
      "v": 55
    },
    {
      "midi": 56,
      "hit": false,
      "t": 112447.44000000024,
      "d": 170.45437500000116,
      "v": 63
    },
    {
      "midi": 61,
      "hit": false,
      "t": 112447.44000000024,
      "d": 170.45437500000116,
      "v": 59
    },
    {
      "midi": 37,
      "hit": false,
      "t": 112447.44000000024,
      "d": 839.160000000018,
      "v": 64
    },
    {
      "midi": 68,
      "hit": false,
      "t": 112451.81062500023,
      "d": 170.45437500000116,
      "v": 59
    },
    {
      "midi": 56,
      "hit": false,
      "t": 112867.02000000018,
      "d": 201.04875000000175,
      "v": 57
    },
    {
      "midi": 63,
      "hit": false,
      "t": 112871.39062499935,
      "d": 4.3706249999959255,
      "v": 86
    },
    {
      "midi": 56,
      "hit": false,
      "t": 112871.39062500023,
      "d": 380.2443750000093,
      "v": 59
    },
    {
      "midi": 61,
      "hit": false,
      "t": 112871.39062500023,
      "d": 380.2443750000093,
      "v": 63
    },
    {
      "midi": 68,
      "hit": false,
      "t": 112871.39062500023,
      "d": 380.2443750000093,
      "v": 59
    },
    {
      "midi": 64,
      "hit": false,
      "t": 112875.76125000019,
      "d": 78.67124999999942,
      "v": 64
    },
    {
      "midi": 52,
      "hit": false,
      "t": 112880.13187500024,
      "d": 380.2443750000093,
      "v": 61
    },
    {
      "midi": 49,
      "hit": false,
      "t": 113072.43937500018,
      "d": 139.86000000000058,
      "v": 23
    },
    {
      "midi": 49,
      "hit": false,
      "t": 113076.80999999928,
      "d": 187.93687499999942,
      "v": 104
    },
    {
      "midi": 56,
      "hit": false,
      "t": 113076.80999999928,
      "d": 187.93687499999942,
      "v": 104
    },
    {
      "midi": 37,
      "hit": false,
      "t": 113076.80999999994,
      "d": 100.5243749999936,
      "v": 95
    },
    {
      "midi": 63,
      "hit": false,
      "t": 113081.18062499934,
      "d": 4.3706249999959255,
      "v": 42
    },
    {
      "midi": 53,
      "hit": false,
      "t": 113286.59999999928,
      "d": 375.87374999999884,
      "v": 104
    },
    {
      "midi": 56,
      "hit": false,
      "t": 113286.59999999928,
      "d": 375.87374999999884,
      "v": 104
    },
    {
      "midi": 74,
      "hit": false,
      "t": 113286.59999999985,
      "d": 563.8106249999983,
      "v": 104
    },
    {
      "midi": 29,
      "hit": false,
      "t": 113286.59999999993,
      "d": 472.0274999999965,
      "v": 92
    },
    {
      "midi": 56,
      "hit": false,
      "t": 113286.60000000018,
      "d": 209.7899999999936,
      "v": 54
    },
    {
      "midi": 41,
      "hit": false,
      "t": 113286.60000000025,
      "d": 694.9293749999924,
      "v": 64
    },
    {
      "midi": 59,
      "hit": false,
      "t": 113299.71187500026,
      "d": 170.45437500000116,
      "v": 57
    },
    {
      "midi": 62,
      "hit": false,
      "t": 113496.38999999933,
      "d": 4.3706249999959255,
      "v": 95
    },
    {
      "midi": 65,
      "hit": false,
      "t": 113496.39000000017,
      "d": 4.3706249999959255,
      "v": 45
    },
    {
      "midi": 49,
      "hit": false,
      "t": 113496.39000000017,
      "d": 174.8249999999971,
      "v": 45
    },
    {
      "midi": 56,
      "hit": false,
      "t": 113496.39000000017,
      "d": 218.53125,
      "v": 41
    },
    {
      "midi": 53,
      "hit": false,
      "t": 113500.76062500026,
      "d": 585.6637499999924,
      "v": 67
    },
    {
      "midi": 59,
      "hit": false,
      "t": 113505.13125000025,
      "d": 585.6637499999924,
      "v": 67
    },
    {
      "midi": 68,
      "hit": false,
      "t": 113505.13125000025,
      "d": 585.6637499999924,
      "v": 55
    },
    {
      "midi": 56,
      "hit": false,
      "t": 113509.50187500025,
      "d": 585.6637499999924,
      "v": 67
    },
    {
      "midi": 64,
      "hit": false,
      "t": 113706.17999999932,
      "d": 4.3706249999959255,
      "v": 47
    },
    {
      "midi": 53,
      "hit": false,
      "t": 113915.96999999927,
      "d": 187.93687499999942,
      "v": 104
    },
    {
      "midi": 56,
      "hit": false,
      "t": 113915.96999999927,
      "d": 187.93687499999942,
      "v": 104
    },
    {
      "midi": 73,
      "hit": false,
      "t": 113915.96999999984,
      "d": 563.8106249999983,
      "v": 104
    },
    {
      "midi": 29,
      "hit": false,
      "t": 113915.96999999993,
      "d": 100.5243749999936,
      "v": 99
    },
    {
      "midi": 56,
      "hit": false,
      "t": 113915.97000000018,
      "d": 113.63625000001048,
      "v": 44
    },
    {
      "midi": 64,
      "hit": false,
      "t": 113920.34062499931,
      "d": 4.3706249999959255,
      "v": 96
    },
    {
      "midi": 65,
      "hit": false,
      "t": 113924.71125000018,
      "d": 113.63625000001048,
      "v": 36
    },
    {
      "midi": 54,
      "hit": false,
      "t": 114125.75999999927,
      "d": 375.87374999999884,
      "v": 104
    },
    {
      "midi": 57,
      "hit": false,
      "t": 114125.75999999927,
      "d": 375.87374999999884,
      "v": 104
    },
    {
      "midi": 30,
      "hit": false,
      "t": 114125.75999999992,
      "d": 423.9506249999977,
      "v": 99
    },
    {
      "midi": 42,
      "hit": false,
      "t": 114125.76000000024,
      "d": 170.45437500000116,
      "v": 58
    },
    {
      "midi": 49,
      "hit": false,
      "t": 114130.1306250002,
      "d": 74.30062499998894,
      "v": 62
    },
    {
      "midi": 66,
      "hit": false,
      "t": 114134.50125000019,
      "d": 122.37749999998778,
      "v": 46
    },
    {
      "midi": 61,
      "hit": false,
      "t": 114134.50125000019,
      "d": 201.0487499999872,
      "v": 57
    },
    {
      "midi": 64,
      "hit": false,
      "t": 114339.92062499931,
      "d": 4.3706249999959255,
      "v": 55
    },
    {
      "midi": 57,
      "hit": false,
      "t": 114339.92062500017,
      "d": 375.87374999999884,
      "v": 38
    },
    {
      "midi": 42,
      "hit": false,
      "t": 114344.29125000024,
      "d": 1249.9987500000134,
      "v": 64
    },
    {
      "midi": 85,
      "hit": false,
      "t": 114545.33999999984,
      "d": 187.93687499999942,
      "v": 104
    },
    {
      "midi": 61,
      "hit": false,
      "t": 114545.34000000017,
      "d": 244.75500000000466,
      "v": 64
    },
    {
      "midi": 66,
      "hit": false,
      "t": 114545.34000000017,
      "d": 288.46125000000757,
      "v": 72
    },
    {
      "midi": 49,
      "hit": false,
      "t": 114545.34000000024,
      "d": 91.78312500000175,
      "v": 59
    },
    {
      "midi": 57,
      "hit": false,
      "t": 114545.34000000024,
      "d": 91.78312500000175,
      "v": 52
    },
    {
      "midi": 63,
      "hit": false,
      "t": 114549.71062499931,
      "d": 4.3706249999959255,
      "v": 86
    },
    {
      "midi": 54,
      "hit": false,
      "t": 114549.71062500024,
      "d": 104.89500000000407,
      "v": 48
    },
    {
      "midi": 66,
      "hit": false,
      "t": 114554.08125000024,
      "d": 74.30062500000349,
      "v": 62
    },
    {
      "midi": 62,
      "hit": false,
      "t": 114650.2349999993,
      "d": 4.3706249999959255,
      "v": 72
    },
    {
      "midi": 54,
      "hit": false,
      "t": 114755.12999999926,
      "d": 187.93687499999942,
      "v": 104
    },
    {
      "midi": 57,
      "hit": false,
      "t": 114755.12999999926,
      "d": 187.93687499999942,
      "v": 104
    },
    {
      "midi": 83,
      "hit": false,
      "t": 114755.12999999983,
      "d": 187.93687499999942,
      "v": 104
    },
    {
      "midi": 30,
      "hit": false,
      "t": 114755.12999999992,
      "d": 91.78312500000175,
      "v": 99
    },
    {
      "midi": 49,
      "hit": false,
      "t": 114755.13000000018,
      "d": 279.72000000000116,
      "v": 44
    },
    {
      "midi": 45,
      "hit": false,
      "t": 114755.13000000024,
      "d": 170.45437500000116,
      "v": 68
    },
    {
      "midi": 63,
      "hit": false,
      "t": 114759.5006249993,
      "d": 4.3706249999959255,
      "v": 86
    },
    {
      "midi": 54,
      "hit": false,
      "t": 114964.91999999926,
      "d": 375.87374999999884,
      "v": 104
    },
    {
      "midi": 57,
      "hit": false,
      "t": 114964.91999999926,
      "d": 375.87374999999884,
      "v": 104
    },
    {
      "midi": 85,
      "hit": false,
      "t": 114964.91999999982,
      "d": 375.87374999999884,
      "v": 104
    },
    {
      "midi": 30,
      "hit": false,
      "t": 114964.91999999993,
      "d": 415.2093750000058,
      "v": 99
    },
    {
      "midi": 49,
      "hit": false,
      "t": 114964.92000000025,
      "d": 170.45437500000116,
      "v": 63
    },
    {
      "midi": 57,
      "hit": false,
      "t": 114969.29062500018,
      "d": 240.38437499999418,
      "v": 60
    },
    {
      "midi": 66,
      "hit": false,
      "t": 115174.71000000018,
      "d": 603.1462500000052,
      "v": 56
    },
    {
      "midi": 54,
      "hit": false,
      "t": 115174.71000000025,
      "d": 388.98562500000116,
      "v": 48
    },
    {
      "midi": 57,
      "hit": false,
      "t": 115174.71000000025,
      "d": 388.98562500000116,
      "v": 59
    },
    {
      "midi": 64,
      "hit": false,
      "t": 115179.0806249993,
      "d": 4.3706249999959255,
      "v": 92
    },
    {
      "midi": 49,
      "hit": false,
      "t": 115179.08062500025,
      "d": 388.98562500000116,
      "v": 67
    },
    {
      "midi": 66,
      "hit": false,
      "t": 115179.08062500025,
      "d": 388.98562500000116,
      "v": 67
    },
    {
      "midi": 63,
      "hit": false,
      "t": 115384.4999999993,
      "d": 4.3706249999959255,
      "v": 86
    },
    {
      "midi": 86,
      "hit": false,
      "t": 115384.49999999983,
      "d": 187.93687499999942,
      "v": 104
    },
    {
      "midi": 54,
      "hit": false,
      "t": 115594.28999999925,
      "d": 187.93687499999942,
      "v": 104
    },
    {
      "midi": 57,
      "hit": false,
      "t": 115594.28999999925,
      "d": 187.93687499999942,
      "v": 104
    },
    {
      "midi": 88,
      "hit": false,
      "t": 115594.28999999982,
      "d": 375.87374999999884,
      "v": 104
    },
    {
      "midi": 31,
      "hit": false,
      "t": 115594.28999999994,
      "d": 91.78312500000175,
      "v": 99
    },
    {
      "midi": 61,
      "hit": false,
      "t": 115594.29000000018,
      "d": 183.5662500000035,
      "v": 56
    },
    {
      "midi": 55,
      "hit": false,
      "t": 115594.29000000018,
      "d": 187.93687499999942,
      "v": 37
    },
    {
      "midi": 52,
      "hit": false,
      "t": 115594.29000000018,
      "d": 201.04875000000175,
      "v": 35
    },
    {
      "midi": 64,
      "hit": false,
      "t": 115594.29000000018,
      "d": 218.53125000001455,
      "v": 56
    },
    {
      "midi": 43,
      "hit": false,
      "t": 115594.29000000026,
      "d": 65.55937499999709,
      "v": 64
    },
    {
      "midi": 63,
      "hit": false,
      "t": 115598.66062499929,
      "d": 4.3706249999959255,
      "v": 92
    },
    {
      "midi": 55,
      "hit": false,
      "t": 115804.07999999925,
      "d": 375.87374999999884,
      "v": 104
    },
    {
      "midi": 57,
      "hit": false,
      "t": 115804.07999999925,
      "d": 375.87374999999884,
      "v": 104
    },
    {
      "midi": 61,
      "hit": false,
      "t": 115804.07999999925,
      "d": 375.87374999999884,
      "v": 104
    },
    {
      "midi": 31,
      "hit": false,
      "t": 115804.07999999994,
      "d": 187.93687499999942,
      "v": 99
    },
    {
      "midi": 52,
      "hit": false,
      "t": 115804.08000000019,
      "d": 83.0418750000099,
      "v": 61
    },
    {
      "midi": 43,
      "hit": false,
      "t": 115804.08000000025,
      "d": 196.67812500000582,
      "v": 58
    },
    {
      "midi": 62,
      "hit": false,
      "t": 115812.8212499993,
      "d": 4.3706249999959255,
      "v": 62
    },
    {
      "midi": 86,
      "hit": false,
      "t": 116013.86999999982,
      "d": 375.87374999999884,
      "v": 104
    },
    {
      "midi": 52,
      "hit": false,
      "t": 116013.8700000002,
      "d": 253.49625000001106,
      "v": 48
    },
    {
      "midi": 82,
      "hit": false,
      "t": 116018.2406249993,
      "d": 30.594375000000582,
      "v": 81
    },
    {
      "midi": 61,
      "hit": false,
      "t": 116223.65999999929,
      "d": 4.3706249999959255,
      "v": 85
    },
    {
      "midi": 31,
      "hit": false,
      "t": 116223.65999999995,
      "d": 808.5656250000029,
      "v": 98
    },
    {
      "midi": 55,
      "hit": false,
      "t": 116223.66000000019,
      "d": 1083.9150000000227,
      "v": 57
    },
    {
      "midi": 63,
      "hit": false,
      "t": 116228.03062499929,
      "d": 4.3706249999959255,
      "v": 86
    },
    {
      "midi": 82,
      "hit": false,
      "t": 116228.03062499929,
      "d": 30.594375000000582,
      "v": 82
    },
    {
      "midi": 61,
      "hit": false,
      "t": 116232.4012500002,
      "d": 1354.893750000003,
      "v": 78
    },
    {
      "midi": 55,
      "hit": false,
      "t": 116232.40125000026,
      "d": 607.5168750000012,
      "v": 57
    },
    {
      "midi": 61,
      "hit": false,
      "t": 116232.40125000026,
      "d": 607.5168750000012,
      "v": 57
    },
    {
      "midi": 64,
      "hit": false,
      "t": 116236.77187500025,
      "d": 607.5168750000012,
      "v": 57
    },
    {
      "midi": 64,
      "hit": false,
      "t": 116241.1425000002,
      "d": 1346.1524999999965,
      "v": 64
    },
    {
      "midi": 55,
      "hit": false,
      "t": 116433.44999999924,
      "d": 187.93687499999942,
      "v": 104
    },
    {
      "midi": 57,
      "hit": false,
      "t": 116433.44999999924,
      "d": 187.93687499999942,
      "v": 104
    },
    {
      "midi": 61,
      "hit": false,
      "t": 116433.44999999924,
      "d": 187.93687499999942,
      "v": 104
    },
    {
      "midi": 85,
      "hit": false,
      "t": 116433.44999999982,
      "d": 187.93687499999942,
      "v": 104
    },
    {
      "midi": 55,
      "hit": false,
      "t": 116643.23999999923,
      "d": 375.87374999999884,
      "v": 104
    },
    {
      "midi": 57,
      "hit": false,
      "t": 116643.23999999923,
      "d": 375.87374999999884,
      "v": 104
    },
    {
      "midi": 61,
      "hit": false,
      "t": 116643.23999999923,
      "d": 375.87374999999884,
      "v": 104
    },
    {
      "midi": 83,
      "hit": false,
      "t": 116643.23999999982,
      "d": 375.87374999999884,
      "v": 104
    },
    {
      "midi": 62,
      "hit": false,
      "t": 116857.40062499928,
      "d": 4.3706249999959255,
      "v": 99
    },
    {
      "midi": 61,
      "hit": false,
      "t": 117062.81999999928,
      "d": 4.3706249999959255,
      "v": 85
    },
    {
      "midi": 69,
      "hit": false,
      "t": 117062.81999999982,
      "d": 375.87374999999884,
      "v": 104
    },
    {
      "midi": 31,
      "hit": false,
      "t": 117062.81999999995,
      "d": 388.98562500000116,
      "v": 99
    },
    {
      "midi": 64,
      "hit": false,
      "t": 117067.19062500025,
      "d": 69.92999999999302,
      "v": 66
    },
    {
      "midi": 64,
      "hit": false,
      "t": 117071.56124999927,
      "d": 4.3706249999959255,
      "v": 86
    },
    {
      "midi": 52,
      "hit": false,
      "t": 117071.56125000025,
      "d": 52.44749999999476,
      "v": 66
    },
    {
      "midi": 61,
      "hit": false,
      "t": 117071.56125000025,
      "d": 61.188750000001164,
      "v": 66
    },
    {
      "midi": 55,
      "hit": false,
      "t": 117272.60999999923,
      "d": 187.93687499999942,
      "v": 104
    },
    {
      "midi": 57,
      "hit": false,
      "t": 117272.60999999923,
      "d": 187.93687499999942,
      "v": 104
    },
    {
      "midi": 61,
      "hit": false,
      "t": 117272.60999999923,
      "d": 187.93687499999942,
      "v": 104
    },
    {
      "midi": 64,
      "hit": false,
      "t": 117272.60999999927,
      "d": 4.3706249999959255,
      "v": 65
    },
    {
      "midi": 50,
      "hit": false,
      "t": 117482.39999999922,
      "d": 375.87374999999884,
      "v": 104
    },
    {
      "midi": 54,
      "hit": false,
      "t": 117482.39999999922,
      "d": 375.87374999999884,
      "v": 104
    },
    {
      "midi": 57,
      "hit": false,
      "t": 117482.39999999922,
      "d": 375.87374999999884,
      "v": 104
    },
    {
      "midi": 78,
      "hit": false,
      "t": 117482.39999999982,
      "d": 1131.991875000007,
      "v": 104
    },
    {
      "midi": 38,
      "hit": false,
      "t": 117482.39999999995,
      "d": 423.9506249999977,
      "v": 99
    },
    {
      "midi": 38,
      "hit": false,
      "t": 117482.40000000024,
      "d": 196.67812499999127,
      "v": 58
    },
    {
      "midi": 50,
      "hit": false,
      "t": 117486.77062500021,
      "d": 568.1812500000087,
      "v": 62
    },
    {
      "midi": 57,
      "hit": false,
      "t": 117486.77062500024,
      "d": 196.67812499999127,
      "v": 61
    },
    {
      "midi": 66,
      "hit": false,
      "t": 117491.1412500002,
      "d": 122.37750000000233,
      "v": 46
    },
    {
      "midi": 62,
      "hit": false,
      "t": 117491.1412500002,
      "d": 201.04875000000175,
      "v": 57
    },
    {
      "midi": 64,
      "hit": false,
      "t": 117696.56062499927,
      "d": 4.3706249999959255,
      "v": 55
    },
    {
      "midi": 62,
      "hit": false,
      "t": 117700.93125000021,
      "d": 104.89500000000407,
      "v": 24
    },
    {
      "midi": 38,
      "hit": false,
      "t": 117700.93125000023,
      "d": 1459.7887499999779,
      "v": 64
    },
    {
      "midi": 57,
      "hit": false,
      "t": 117897.60937500023,
      "d": 375.8737499999843,
      "v": 67
    },
    {
      "midi": 62,
      "hit": false,
      "t": 117901.98000000021,
      "d": 244.75500000000466,
      "v": 56
    },
    {
      "midi": 66,
      "hit": false,
      "t": 117901.98000000021,
      "d": 288.46125000000757,
      "v": 56
    },
    {
      "midi": 66,
      "hit": false,
      "t": 117901.98000000023,
      "d": 375.8737499999843,
      "v": 67
    },
    {
      "midi": 63,
      "hit": false,
      "t": 117906.35062499926,
      "d": 4.3706249999959255,
      "v": 86
    },
    {
      "midi": 62,
      "hit": false,
      "t": 117906.35062500022,
      "d": 375.8737499999843,
      "v": 67
    },
    {
      "midi": 50,
      "hit": false,
      "t": 118111.76999999922,
      "d": 187.93687499999942,
      "v": 104
    },
    {
      "midi": 54,
      "hit": false,
      "t": 118111.76999999922,
      "d": 187.93687499999942,
      "v": 104
    },
    {
      "midi": 57,
      "hit": false,
      "t": 118111.76999999922,
      "d": 187.93687499999942,
      "v": 104
    },
    {
      "midi": 38,
      "hit": false,
      "t": 118111.76999999995,
      "d": 91.78312500000175,
      "v": 99
    },
    {
      "midi": 50,
      "hit": false,
      "t": 118111.77000000022,
      "d": 166.0837499999907,
      "v": 55
    },
    {
      "midi": 57,
      "hit": false,
      "t": 118116.14062500022,
      "d": 375.87374999999884,
      "v": 38
    },
    {
      "midi": 50,
      "hit": false,
      "t": 118321.55999999921,
      "d": 375.87374999999884,
      "v": 104
    },
    {
      "midi": 54,
      "hit": false,
      "t": 118321.55999999921,
      "d": 375.87374999999884,
      "v": 104
    },
    {
      "midi": 57,
      "hit": false,
      "t": 118321.55999999921,
      "d": 375.87374999999884,
      "v": 104
    },
    {
      "midi": 38,
      "hit": false,
      "t": 118321.55999999995,
      "d": 415.2093750000058,
      "v": 99
    },
    {
      "midi": 50,
      "hit": false,
      "t": 118321.56000000022,
      "d": 236.01374999999825,
      "v": 51
    },
    {
      "midi": 57,
      "hit": false,
      "t": 118526.97937500021,
      "d": 166.0837499999907,
      "v": 67
    },
    {
      "midi": 50,
      "hit": false,
      "t": 118531.35000000021,
      "d": 166.0837499999907,
      "v": 55
    },
    {
      "midi": 66,
      "hit": false,
      "t": 118531.35000000021,
      "d": 166.0837499999907,
      "v": 67
    },
    {
      "midi": 66,
      "hit": false,
      "t": 118531.35000000022,
      "d": 821.6774999999761,
      "v": 43
    },
    {
      "midi": 62,
      "hit": false,
      "t": 118535.72062499926,
      "d": 4.3706249999959255,
      "v": 92
    },
    {
      "midi": 62,
      "hit": false,
      "t": 118535.7206250002,
      "d": 166.0837499999907,
      "v": 67
    },
    {
      "midi": 57,
      "hit": false,
      "t": 118535.72062500022,
      "d": 288.461249999993,
      "v": 43
    },
    {
      "midi": 64,
      "hit": false,
      "t": 118741.13999999926,
      "d": 4.3706249999959255,
      "v": 86
    },
    {
      "midi": 69,
      "hit": false,
      "t": 118741.13999999982,
      "d": 375.87374999999884,
      "v": 104
    },
    {
      "midi": 62,
      "hit": false,
      "t": 118741.1400000002,
      "d": 170.45437500000116,
      "v": 64
    },
    {
      "midi": 50,
      "hit": false,
      "t": 118950.9299999992,
      "d": 187.93687499999942,
      "v": 104
    },
    {
      "midi": 54,
      "hit": false,
      "t": 118950.9299999992,
      "d": 187.93687499999942,
      "v": 104
    },
    {
      "midi": 57,
      "hit": false,
      "t": 118950.9299999992,
      "d": 187.93687499999942,
      "v": 104
    },
    {
      "midi": 38,
      "hit": false,
      "t": 118950.92999999996,
      "d": 91.78312500000175,
      "v": 99
    },
    {
      "midi": 62,
      "hit": false,
      "t": 118950.93000000021,
      "d": 135.4893749999901,
      "v": 33
    },
    {
      "midi": 64,
      "hit": false,
      "t": 118955.30062499925,
      "d": 4.3706249999959255,
      "v": 92
    },
    {
      "midi": 57,
      "hit": false,
      "t": 118955.3006250002,
      "d": 170.45437500000116,
      "v": 55
    },
    {
      "midi": 57,
      "hit": false,
      "t": 118955.3006250002,
      "d": 113.63624999999593,
      "v": 31
    },
    {
      "midi": 57,
      "hit": false,
      "t": 119156.34937500021,
      "d": 4.3706249999959255,
      "v": 51
    },
    {
      "midi": 66,
      "hit": false,
      "t": 119156.34937500021,
      "d": 4.3706249999959255,
      "v": 57
    },
    {
      "midi": 50,
      "hit": false,
      "t": 119160.7199999992,
      "d": 375.87374999999884,
      "v": 104
    },
    {
      "midi": 52,
      "hit": false,
      "t": 119160.7199999992,
      "d": 375.87374999999884,
      "v": 104
    },
    {
      "midi": 56,
      "hit": false,
      "t": 119160.7199999992,
      "d": 375.87374999999884,
      "v": 104
    },
    {
      "midi": 59,
      "hit": false,
      "t": 119160.7199999992,
      "d": 375.87374999999884,
      "v": 104
    },
    {
      "midi": 68,
      "hit": false,
      "t": 119160.71999999983,
      "d": 751.7474999999977,
      "v": 104
    },
    {
      "midi": 38,
      "hit": false,
      "t": 119160.71999999997,
      "d": 419.58000000000175,
      "v": 99
    },
    {
      "midi": 59,
      "hit": false,
      "t": 119160.7200000002,
      "d": 104.89500000000407,
      "v": 57
    },
    {
      "midi": 38,
      "hit": false,
      "t": 119160.7200000002,
      "d": 1534.089374999996,
      "v": 64
    },
    {
      "midi": 47,
      "hit": false,
      "t": 119165.0906250002,
      "d": 135.48937500000466,
      "v": 71
    },
    {
      "midi": 47,
      "hit": false,
      "t": 119169.46125000021,
      "d": 74.30062500000349,
      "v": 59
    },
    {
      "midi": 59,
      "hit": false,
      "t": 119370.5100000002,
      "d": 550.6987499999959,
      "v": 26
    },
    {
      "midi": 64,
      "hit": false,
      "t": 119379.25125000019,
      "d": 131.11874999999418,
      "v": 38
    },
    {
      "midi": 56,
      "hit": false,
      "t": 119575.92937500021,
      "d": 616.258124999993,
      "v": 67
    },
    {
      "midi": 64,
      "hit": false,
      "t": 119575.92937500021,
      "d": 616.258124999993,
      "v": 67
    },
    {
      "midi": 59,
      "hit": false,
      "t": 119580.3000000002,
      "d": 616.258124999993,
      "v": 66
    },
    {
      "midi": 63,
      "hit": false,
      "t": 119584.67062499924,
      "d": 4.3706249999959255,
      "v": 86
    },
    {
      "midi": 56,
      "hit": false,
      "t": 119584.67062500019,
      "d": 43.70625000000291,
      "v": 65
    },
    {
      "midi": 47,
      "hit": false,
      "t": 119589.04125000021,
      "d": 598.7756249999948,
      "v": 67
    },
    {
      "midi": 50,
      "hit": false,
      "t": 119790.0899999992,
      "d": 187.93687499999942,
      "v": 104
    },
    {
      "midi": 52,
      "hit": false,
      "t": 119790.0899999992,
      "d": 187.93687499999942,
      "v": 104
    },
    {
      "midi": 56,
      "hit": false,
      "t": 119790.0899999992,
      "d": 187.93687499999942,
      "v": 104
    },
    {
      "midi": 59,
      "hit": false,
      "t": 119790.0899999992,
      "d": 187.93687499999942,
      "v": 104
    },
    {
      "midi": 38,
      "hit": false,
      "t": 119790.08999999997,
      "d": 100.5243749999936,
      "v": 95
    },
    {
      "midi": 63,
      "hit": false,
      "t": 119794.46062499924,
      "d": 4.3706249999959255,
      "v": 42
    },
    {
      "midi": 56,
      "hit": false,
      "t": 119794.4606250002,
      "d": 13.111875000002328,
      "v": 45
    },
    {
      "midi": 68,
      "hit": false,
      "t": 119798.83125000019,
      "d": 222.90187500001048,
      "v": 40
    },
    {
      "midi": 50,
      "hit": false,
      "t": 119999.87999999919,
      "d": 375.87374999999884,
      "v": 104
    },
    {
      "midi": 52,
      "hit": false,
      "t": 119999.87999999919,
      "d": 375.87374999999884,
      "v": 104
    },
    {
      "midi": 56,
      "hit": false,
      "t": 119999.87999999919,
      "d": 375.87374999999884,
      "v": 104
    },
    {
      "midi": 59,
      "hit": false,
      "t": 119999.87999999919,
      "d": 375.87374999999884,
      "v": 104
    },
    {
      "midi": 38,
      "hit": false,
      "t": 119999.87999999996,
      "d": 472.0274999999965,
      "v": 92
    },
    {
      "midi": 47,
      "hit": false,
      "t": 119999.8800000002,
      "d": 240.38437500000873,
      "v": 58
    },
    {
      "midi": 59,
      "hit": false,
      "t": 120008.6212500002,
      "d": 174.8249999999971,
      "v": 48
    },
    {
      "midi": 59,
      "hit": false,
      "t": 120205.2993750002,
      "d": 388.98562500000116,
      "v": 67
    },
    {
      "midi": 64,
      "hit": false,
      "t": 120205.2993750002,
      "d": 388.98562500000116,
      "v": 67
    },
    {
      "midi": 62,
      "hit": false,
      "t": 120209.66999999923,
      "d": 4.3706249999959255,
      "v": 95
    },
    {
      "midi": 47,
      "hit": false,
      "t": 120209.6700000002,
      "d": 388.98562500000116,
      "v": 67
    },
    {
      "midi": 56,
      "hit": false,
      "t": 120209.6700000002,
      "d": 388.98562500000116,
      "v": 67
    },
    {
      "midi": 64,
      "hit": false,
      "t": 120209.6700000002,
      "d": 17.482499999998254,
      "v": 42
    },
    {
      "midi": 64,
      "hit": false,
      "t": 120419.45999999922,
      "d": 4.3706249999959255,
      "v": 47
    },
    {
      "midi": 80,
      "hit": false,
      "t": 120419.45999999982,
      "d": 375.87374999999884,
      "v": 104
    },
    {
      "midi": 56,
      "hit": false,
      "t": 120624.87937500021,
      "d": 170.4543749999866,
      "v": 55
    },
    {
      "midi": 50,
      "hit": false,
      "t": 120629.24999999919,
      "d": 187.93687499999942,
      "v": 104
    },
    {
      "midi": 52,
      "hit": false,
      "t": 120629.24999999919,
      "d": 187.93687499999942,
      "v": 104
    },
    {
      "midi": 56,
      "hit": false,
      "t": 120629.24999999919,
      "d": 187.93687499999942,
      "v": 104
    },
    {
      "midi": 59,
      "hit": false,
      "t": 120629.24999999919,
      "d": 187.93687499999942,
      "v": 104
    },
    {
      "midi": 38,
      "hit": false,
      "t": 120629.24999999996,
      "d": 100.5243749999936,
      "v": 99
    },
    {
      "midi": 64,
      "hit": false,
      "t": 120633.62062499921,
      "d": 4.3706249999959255,
      "v": 96
    },
    {
      "midi": 59,
      "hit": false,
      "t": 120633.6206250002,
      "d": 56.81812500000524,
      "v": 37
    },
    {
      "midi": 56,
      "hit": false,
      "t": 120633.6206250002,
      "d": 56.81812500000524,
      "v": 43
    },
    {
      "midi": 47,
      "hit": false,
      "t": 120834.6693750002,
      "d": 4.3706249999959255,
      "v": 59
    },
    {
      "midi": 59,
      "hit": false,
      "t": 120834.6693750002,
      "d": 4.3706249999959255,
      "v": 50
    },
    {
      "midi": 64,
      "hit": false,
      "t": 120834.6693750002,
      "d": 4.3706249999959255,
      "v": 63
    },
    {
      "midi": 49,
      "hit": false,
      "t": 120839.03999999918,
      "d": 375.87374999999884,
      "v": 104
    },
    {
      "midi": 56,
      "hit": false,
      "t": 120839.03999999918,
      "d": 375.87374999999884,
      "v": 104
    },
    {
      "midi": 59,
      "hit": false,
      "t": 120839.03999999918,
      "d": 375.87374999999884,
      "v": 104
    },
    {
      "midi": 76,
      "hit": false,
      "t": 120839.03999999982,
      "d": 1131.991875000007,
      "v": 104
    },
    {
      "midi": 37,
      "hit": false,
      "t": 120839.03999999995,
      "d": 423.9506249999977,
      "v": 99
    },
    {
      "midi": 37,
      "hit": false,
      "t": 120839.0400000002,
      "d": 196.67812500000582,
      "v": 58
    },
    {
      "midi": 49,
      "hit": false,
      "t": 120843.41062500021,
      "d": 196.67812500000582,
      "v": 59
    },
    {
      "midi": 64,
      "hit": false,
      "t": 121053.20062499921,
      "d": 4.3706249999959255,
      "v": 55
    },
    {
      "midi": 37,
      "hit": false,
      "t": 121057.5712500002,
      "d": 1459.788750000007,
      "v": 64
    },
    {
      "midi": 52,
      "hit": false,
      "t": 121258.6200000002,
      "d": 91.78312500000175,
      "v": 67
    },
    {
      "midi": 59,
      "hit": false,
      "t": 121258.6200000002,
      "d": 91.78312500000175,
      "v": 67
    },
    {
      "midi": 49,
      "hit": false,
      "t": 121258.62000000021,
      "d": 222.90187499999593,
      "v": 64
    },
    {
      "midi": 64,
      "hit": false,
      "t": 121258.62000000021,
      "d": 384.61500000000524,
      "v": 54
    },
    {
      "midi": 63,
      "hit": false,
      "t": 121262.9906249992,
      "d": 4.3706249999959255,
      "v": 86
    },
    {
      "midi": 56,
      "hit": false,
      "t": 121262.9906250002,
      "d": 104.89500000000407,
      "v": 66
    },
    {
      "midi": 68,
      "hit": false,
      "t": 121267.36125000019,
      "d": 74.30062500000349,
      "v": 67
    },
    {
      "midi": 49,
      "hit": false,
      "t": 121468.40999999917,
      "d": 187.93687499999942,
      "v": 104
    },
    {
      "midi": 56,
      "hit": false,
      "t": 121468.40999999917,
      "d": 187.93687499999942,
      "v": 104
    },
    {
      "midi": 59,
      "hit": false,
      "t": 121468.40999999917,
      "d": 187.93687499999942,
      "v": 104
    },
    {
      "midi": 37,
      "hit": false,
      "t": 121468.40999999995,
      "d": 91.78312500000175,
      "v": 99
    },
    {
      "midi": 56,
      "hit": false,
      "t": 121468.4100000002,
      "d": 148.60125000000698,
      "v": 35
    },
    {
      "midi": 49,
      "hit": false,
      "t": 121678.19999999917,
      "d": 375.87374999999884,
      "v": 104
    },
    {
      "midi": 56,
      "hit": false,
      "t": 121678.19999999917,
      "d": 375.87374999999884,
      "v": 104
    },
    {
      "midi": 59,
      "hit": false,
      "t": 121678.19999999917,
      "d": 375.87374999999884,
      "v": 104
    },
    {
      "midi": 37,
      "hit": false,
      "t": 121678.19999999995,
      "d": 415.2093750000058,
      "v": 99
    },
    {
      "midi": 56,
      "hit": false,
      "t": 121887.9900000002,
      "d": 388.98562500000116,
      "v": 67
    },
    {
      "midi": 59,
      "hit": false,
      "t": 121887.9900000002,
      "d": 388.98562500000116,
      "v": 67
    },
    {
      "midi": 64,
      "hit": false,
      "t": 121887.99000000021,
      "d": 26.223750000004657,
      "v": 45
    },
    {
      "midi": 56,
      "hit": false,
      "t": 121887.99000000021,
      "d": 83.0418750000099,
      "v": 40
    },
    {
      "midi": 49,
      "hit": false,
      "t": 121887.99000000021,
      "d": 139.86000000001513,
      "v": 45
    },
    {
      "midi": 62,
      "hit": false,
      "t": 121892.3606249992,
      "d": 4.3706249999959255,
      "v": 92
    },
    {
      "midi": 52,
      "hit": false,
      "t": 121892.36062500019,
      "d": 388.98562500000116,
      "v": 67
    },
    {
      "midi": 68,
      "hit": false,
      "t": 121892.36062500019,
      "d": 388.98562500000116,
      "v": 67
    },
    {
      "midi": 64,
      "hit": false,
      "t": 122097.7799999992,
      "d": 4.3706249999959255,
      "v": 86
    },
    {
      "midi": 71,
      "hit": false,
      "t": 122097.77999999982,
      "d": 375.87374999999884,
      "v": 104
    },
    {
      "midi": 49,
      "hit": false,
      "t": 122307.56999999916,
      "d": 187.93687499999942,
      "v": 104
    },
    {
      "midi": 56,
      "hit": false,
      "t": 122307.56999999916,
      "d": 187.93687499999942,
      "v": 104
    },
    {
      "midi": 59,
      "hit": false,
      "t": 122307.56999999916,
      "d": 187.93687499999942,
      "v": 104
    },
    {
      "midi": 37,
      "hit": false,
      "t": 122307.56999999996,
      "d": 91.78312500000175,
      "v": 99
    },
    {
      "midi": 52,
      "hit": false,
      "t": 122307.5700000002,
      "d": 170.45437500000116,
      "v": 63
    },
    {
      "midi": 56,
      "hit": false,
      "t": 122307.57000000023,
      "d": 187.93687499999942,
      "v": 37
    },
    {
      "midi": 49,
      "hit": false,
      "t": 122307.57000000023,
      "d": 201.04875000000175,
      "v": 35
    },
    {
      "midi": 64,
      "hit": false,
      "t": 122311.94062499919,
      "d": 4.3706249999959255,
      "v": 92
    },
    {
      "midi": 54,
      "hit": false,
      "t": 122517.35999999916,
      "d": 375.87374999999884,
      "v": 104
    },
    {
      "midi": 58,
      "hit": false,
      "t": 122517.35999999916,
      "d": 375.87374999999884,
      "v": 104
    },
    {
      "midi": 70,
      "hit": false,
      "t": 122517.35999999983,
      "d": 751.7474999999977,
      "v": 104
    },
    {
      "midi": 30,
      "hit": false,
      "t": 122517.35999999997,
      "d": 419.58000000000175,
      "v": 99
    },
    {
      "midi": 61,
      "hit": false,
      "t": 122517.3600000002,
      "d": 104.89500000000407,
      "v": 57
    },
    {
      "midi": 42,
      "hit": false,
      "t": 122517.3600000002,
      "d": 1534.089374999996,
      "v": 64
    },
    {
      "midi": 49,
      "hit": false,
      "t": 122521.73062500023,
      "d": 135.48937500000466,
      "v": 71
    },
    {
      "midi": 49,
      "hit": false,
      "t": 122526.10125000021,
      "d": 74.30062500000349,
      "v": 59
    },
    {
      "midi": 61,
      "hit": false,
      "t": 122727.15000000023,
      "d": 550.6987499999959,
      "v": 26
    },
    {
      "midi": 66,
      "hit": false,
      "t": 122735.89125000022,
      "d": 131.11874999999418,
      "v": 38
    },
    {
      "midi": 58,
      "hit": false,
      "t": 122932.56937500021,
      "d": 616.258124999993,
      "v": 67
    },
    {
      "midi": 66,
      "hit": false,
      "t": 122932.56937500021,
      "d": 616.258124999993,
      "v": 67
    },
    {
      "midi": 61,
      "hit": false,
      "t": 122936.9400000002,
      "d": 616.258124999993,
      "v": 66
    },
    {
      "midi": 63,
      "hit": false,
      "t": 122941.31062499918,
      "d": 4.3706249999959255,
      "v": 86
    },
    {
      "midi": 58,
      "hit": false,
      "t": 122941.31062500022,
      "d": 43.70625000000291,
      "v": 65
    },
    {
      "midi": 49,
      "hit": false,
      "t": 122945.68125000021,
      "d": 598.7756249999948,
      "v": 67
    },
    {
      "midi": 54,
      "hit": false,
      "t": 123146.72999999915,
      "d": 187.93687499999942,
      "v": 104
    },
    {
      "midi": 58,
      "hit": false,
      "t": 123146.72999999915,
      "d": 187.93687499999942,
      "v": 104
    },
    {
      "midi": 30,
      "hit": false,
      "t": 123146.72999999997,
      "d": 100.5243749999936,
      "v": 95
    },
    {
      "midi": 63,
      "hit": false,
      "t": 123151.10062499918,
      "d": 4.3706249999959255,
      "v": 42
    },
    {
      "midi": 58,
      "hit": false,
      "t": 123151.10062500022,
      "d": 13.111875000002328,
      "v": 45
    },
    {
      "midi": 70,
      "hit": false,
      "t": 123155.47125000022,
      "d": 222.90187500001048,
      "v": 40
    },
    {
      "midi": 54,
      "hit": false,
      "t": 123356.51999999915,
      "d": 375.87374999999884,
      "v": 104
    },
    {
      "midi": 58,
      "hit": false,
      "t": 123356.51999999915,
      "d": 375.87374999999884,
      "v": 104
    },
    {
      "midi": 30,
      "hit": false,
      "t": 123356.51999999996,
      "d": 472.0274999999965,
      "v": 92
    },
    {
      "midi": 49,
      "hit": false,
      "t": 123356.52000000022,
      "d": 240.38437500000873,
      "v": 58
    },
    {
      "midi": 61,
      "hit": false,
      "t": 123365.26125000023,
      "d": 174.8249999999971,
      "v": 48
    },
    {
      "midi": 61,
      "hit": false,
      "t": 123561.9393750002,
      "d": 388.98562500000116,
      "v": 67
    },
    {
      "midi": 66,
      "hit": false,
      "t": 123561.9393750002,
      "d": 388.98562500000116,
      "v": 67
    },
    {
      "midi": 62,
      "hit": false,
      "t": 123566.30999999917,
      "d": 4.3706249999959255,
      "v": 95
    },
    {
      "midi": 49,
      "hit": false,
      "t": 123566.3100000002,
      "d": 388.98562500000116,
      "v": 67
    },
    {
      "midi": 58,
      "hit": false,
      "t": 123566.3100000002,
      "d": 388.98562500000116,
      "v": 67
    },
    {
      "midi": 66,
      "hit": false,
      "t": 123566.31000000023,
      "d": 17.482499999998254,
      "v": 42
    },
    {
      "midi": 64,
      "hit": false,
      "t": 123776.09999999916,
      "d": 4.3706249999959255,
      "v": 47
    },
    {
      "midi": 71,
      "hit": false,
      "t": 123776.09999999982,
      "d": 187.93687499999942,
      "v": 104
    },
    {
      "midi": 58,
      "hit": false,
      "t": 123981.5193750002,
      "d": 170.4543749999866,
      "v": 55
    },
    {
      "midi": 54,
      "hit": false,
      "t": 123985.88999999914,
      "d": 187.93687499999942,
      "v": 104
    },
    {
      "midi": 58,
      "hit": false,
      "t": 123985.88999999914,
      "d": 187.93687499999942,
      "v": 104
    },
    {
      "midi": 73,
      "hit": false,
      "t": 123985.88999999981,
      "d": 187.93687499999942,
      "v": 104
    },
    {
      "midi": 30,
      "hit": false,
      "t": 123985.88999999996,
      "d": 100.5243749999936,
      "v": 99
    },
    {
      "midi": 64,
      "hit": false,
      "t": 123990.26062499915,
      "d": 4.3706249999959255,
      "v": 96
    },
    {
      "midi": 61,
      "hit": false,
      "t": 123990.26062500023,
      "d": 56.81812500000524,
      "v": 37
    },
    {
      "midi": 58,
      "hit": false,
      "t": 123990.26062500023,
      "d": 56.81812500000524,
      "v": 43
    },
    {
      "midi": 49,
      "hit": false,
      "t": 124191.3093750002,
      "d": 4.3706249999959255,
      "v": 59
    },
    {
      "midi": 61,
      "hit": false,
      "t": 124191.3093750002,
      "d": 4.3706249999959255,
      "v": 50
    },
    {
      "midi": 66,
      "hit": false,
      "t": 124191.3093750002,
      "d": 4.3706249999959255,
      "v": 63
    },
    {
      "midi": 47,
      "hit": false,
      "t": 124195.67999999913,
      "d": 375.87374999999884,
      "v": 104
    },
    {
      "midi": 54,
      "hit": false,
      "t": 124195.67999999913,
      "d": 375.87374999999884,
      "v": 104
    },
    {
      "midi": 74,
      "hit": false,
      "t": 124195.6799999998,
      "d": 375.87374999999884,
      "v": 104
    },
    {
      "midi": 35,
      "hit": false,
      "t": 124195.67999999995,
      "d": 423.9506249999977,
      "v": 99
    },
    {
      "midi": 47,
      "hit": false,
      "t": 124195.6800000002,
      "d": 196.67812500000582,
      "v": 58
    },
    {
      "midi": 47,
      "hit": false,
      "t": 124200.05062500024,
      "d": 196.67812500000582,
      "v": 59
    },
    {
      "midi": 64,
      "hit": false,
      "t": 124409.84062499915,
      "d": 4.3706249999959255,
      "v": 55
    },
    {
      "midi": 47,
      "hit": false,
      "t": 124414.2112500002,
      "d": 1459.788750000007,
      "v": 64
    },
    {
      "midi": 73,
      "hit": false,
      "t": 124615.2599999998,
      "d": 187.93687499999942,
      "v": 104
    },
    {
      "midi": 50,
      "hit": false,
      "t": 124615.2600000002,
      "d": 91.78312500000175,
      "v": 67
    },
    {
      "midi": 59,
      "hit": false,
      "t": 124615.2600000002,
      "d": 91.78312500000175,
      "v": 67
    },
    {
      "midi": 47,
      "hit": false,
      "t": 124615.26000000024,
      "d": 222.90187499999593,
      "v": 64
    },
    {
      "midi": 62,
      "hit": false,
      "t": 124615.26000000024,
      "d": 384.61500000000524,
      "v": 54
    },
    {
      "midi": 63,
      "hit": false,
      "t": 124619.63062499915,
      "d": 4.3706249999959255,
      "v": 86
    },
    {
      "midi": 54,
      "hit": false,
      "t": 124619.6306250002,
      "d": 104.89500000000407,
      "v": 66
    },
    {
      "midi": 66,
      "hit": false,
      "t": 124624.00125000019,
      "d": 74.30062500000349,
      "v": 67
    },
    {
      "midi": 47,
      "hit": false,
      "t": 124825.04999999913,
      "d": 187.93687499999942,
      "v": 104
    },
    {
      "midi": 54,
      "hit": false,
      "t": 124825.04999999913,
      "d": 187.93687499999942,
      "v": 104
    },
    {
      "midi": 74,
      "hit": false,
      "t": 124825.0499999998,
      "d": 375.87374999999884,
      "v": 104
    },
    {
      "midi": 35,
      "hit": false,
      "t": 124825.04999999994,
      "d": 91.78312500000175,
      "v": 99
    },
    {
      "midi": 54,
      "hit": false,
      "t": 124825.05000000024,
      "d": 148.60125000000698,
      "v": 35
    },
    {
      "midi": 47,
      "hit": false,
      "t": 125034.83999999912,
      "d": 375.87374999999884,
      "v": 104
    },
    {
      "midi": 54,
      "hit": false,
      "t": 125034.83999999912,
      "d": 375.87374999999884,
      "v": 104
    },
    {
      "midi": 35,
      "hit": false,
      "t": 125034.83999999995,
      "d": 415.2093750000058,
      "v": 99
    },
    {
      "midi": 74,
      "hit": false,
      "t": 125244.6299999998,
      "d": 187.93687499999942,
      "v": 104
    },
    {
      "midi": 54,
      "hit": false,
      "t": 125244.6300000002,
      "d": 388.98562500000116,
      "v": 67
    },
    {
      "midi": 59,
      "hit": false,
      "t": 125244.6300000002,
      "d": 388.98562500000116,
      "v": 67
    },
    {
      "midi": 62,
      "hit": false,
      "t": 125244.63000000024,
      "d": 26.223750000004657,
      "v": 45
    },
    {
      "midi": 54,
      "hit": false,
      "t": 125244.63000000024,
      "d": 83.0418750000099,
      "v": 40
    },
    {
      "midi": 47,
      "hit": false,
      "t": 125244.63000000024,
      "d": 139.86000000001513,
      "v": 45
    },
    {
      "midi": 62,
      "hit": false,
      "t": 125249.00062499914,
      "d": 4.3706249999959255,
      "v": 92
    },
    {
      "midi": 50,
      "hit": false,
      "t": 125249.00062500019,
      "d": 388.98562500000116,
      "v": 67
    },
    {
      "midi": 66,
      "hit": false,
      "t": 125249.00062500019,
      "d": 388.98562500000116,
      "v": 67
    },
    {
      "midi": 64,
      "hit": false,
      "t": 125454.41999999914,
      "d": 4.3706249999959255,
      "v": 86
    },
    {
      "midi": 76,
      "hit": false,
      "t": 125454.4199999998,
      "d": 375.87374999999884,
      "v": 104
    },
    {
      "midi": 47,
      "hit": false,
      "t": 125664.20999999912,
      "d": 187.93687499999942,
      "v": 104
    },
    {
      "midi": 54,
      "hit": false,
      "t": 125664.20999999912,
      "d": 187.93687499999942,
      "v": 104
    },
    {
      "midi": 35,
      "hit": false,
      "t": 125664.20999999996,
      "d": 91.78312500000175,
      "v": 99
    },
    {
      "midi": 50,
      "hit": false,
      "t": 125664.2100000002,
      "d": 170.45437500000116,
      "v": 63
    },
    {
      "midi": 54,
      "hit": false,
      "t": 125664.21000000025,
      "d": 187.93687499999942,
      "v": 37
    },
    {
      "midi": 47,
      "hit": false,
      "t": 125664.21000000025,
      "d": 201.04875000000175,
      "v": 35
    },
    {
      "midi": 64,
      "hit": false,
      "t": 125668.58062499913,
      "d": 4.3706249999959255,
      "v": 92
    },
    {
      "midi": 50,
      "hit": false,
      "t": 125873.99999999911,
      "d": 375.87374999999884,
      "v": 104
    },
    {
      "midi": 53,
      "hit": false,
      "t": 125873.99999999911,
      "d": 375.87374999999884,
      "v": 104
    },
    {
      "midi": 57,
      "hit": false,
      "t": 125873.99999999911,
      "d": 375.87374999999884,
      "v": 104
    },
    {
      "midi": 73,
      "hit": false,
      "t": 125873.9999999998,
      "d": 375.87374999999884,
      "v": 104
    },
    {
      "midi": 38,
      "hit": false,
      "t": 125873.99999999997,
      "d": 419.58000000000175,
      "v": 99
    },
    {
      "midi": 50,
      "hit": false,
      "t": 125874.0000000002,
      "d": 170.45437500000116,
      "v": 55
    },
    {
      "midi": 53,
      "hit": false,
      "t": 125874.0000000002,
      "d": 170.45437500000116,
      "v": 63
    },
    {
      "midi": 57,
      "hit": false,
      "t": 125874.0000000002,
      "d": 170.45437500000116,
      "v": 59
    },
    {
      "midi": 38,
      "hit": false,
      "t": 125874.0000000002,
      "d": 839.160000000018,
      "v": 64
    },
    {
      "midi": 69,
      "hit": false,
      "t": 125878.3706250002,
      "d": 170.45437500000116,
      "v": 59
    },
    {
      "midi": 50,
      "hit": false,
      "t": 125878.37062500026,
      "d": 135.48937500000466,
      "v": 71
    },
    {
      "midi": 62,
      "hit": false,
      "t": 126083.79000000026,
      "d": 550.6987499999959,
      "v": 26
    },
    {
      "midi": 65,
      "hit": false,
      "t": 126092.53125000025,
      "d": 131.11874999999418,
      "v": 38
    },
    {
      "midi": 71,
      "hit": false,
      "t": 126293.5799999998,
      "d": 375.87374999999884,
      "v": 104
    },
    {
      "midi": 63,
      "hit": false,
      "t": 126297.95062499912,
      "d": 4.3706249999959255,
      "v": 86
    },
    {
      "midi": 53,
      "hit": false,
      "t": 126297.9506250002,
      "d": 380.2443750000093,
      "v": 59
    },
    {
      "midi": 57,
      "hit": false,
      "t": 126297.9506250002,
      "d": 380.2443750000093,
      "v": 63
    },
    {
      "midi": 69,
      "hit": false,
      "t": 126297.9506250002,
      "d": 380.2443750000093,
      "v": 59
    },
    {
      "midi": 57,
      "hit": false,
      "t": 126297.95062500025,
      "d": 43.70625000000291,
      "v": 65
    },
    {
      "midi": 50,
      "hit": false,
      "t": 126306.69187500021,
      "d": 380.2443750000093,
      "v": 61
    },
    {
      "midi": 50,
      "hit": false,
      "t": 126503.36999999911,
      "d": 187.93687499999942,
      "v": 104
    },
    {
      "midi": 53,
      "hit": false,
      "t": 126503.36999999911,
      "d": 187.93687499999942,
      "v": 104
    },
    {
      "midi": 57,
      "hit": false,
      "t": 126503.36999999911,
      "d": 187.93687499999942,
      "v": 104
    },
    {
      "midi": 38,
      "hit": false,
      "t": 126503.36999999997,
      "d": 100.5243749999936,
      "v": 95
    },
    {
      "midi": 63,
      "hit": false,
      "t": 126507.74062499912,
      "d": 4.3706249999959255,
      "v": 42
    },
    {
      "midi": 57,
      "hit": false,
      "t": 126507.74062500025,
      "d": 13.111875000002328,
      "v": 45
    },
    {
      "midi": 69,
      "hit": false,
      "t": 126512.11125000025,
      "d": 222.90187500001048,
      "v": 40
    },
    {
      "midi": 52,
      "hit": false,
      "t": 126713.1599999991,
      "d": 375.87374999999884,
      "v": 104
    },
    {
      "midi": 56,
      "hit": false,
      "t": 126713.1599999991,
      "d": 375.87374999999884,
      "v": 104
    },
    {
      "midi": 74,
      "hit": false,
      "t": 126713.1599999998,
      "d": 187.93687499999942,
      "v": 104
    },
    {
      "midi": 28,
      "hit": false,
      "t": 126713.15999999996,
      "d": 472.0274999999965,
      "v": 92
    },
    {
      "midi": 40,
      "hit": false,
      "t": 126713.16000000022,
      "d": 694.9293749999924,
      "v": 64
    },
    {
      "midi": 47,
      "hit": false,
      "t": 126713.16000000025,
      "d": 240.38437500000873,
      "v": 58
    },
    {
      "midi": 59,
      "hit": false,
      "t": 126721.90125000026,
      "d": 174.8249999999971,
      "v": 48
    },
    {
      "midi": 59,
      "hit": false,
      "t": 126918.57937500022,
      "d": 388.98562500000116,
      "v": 67
    },
    {
      "midi": 64,
      "hit": false,
      "t": 126918.57937500022,
      "d": 388.98562500000116,
      "v": 67
    },
    {
      "midi": 62,
      "hit": false,
      "t": 126922.94999999911,
      "d": 4.3706249999959255,
      "v": 95
    },
    {
      "midi": 73,
      "hit": false,
      "t": 126922.9499999998,
      "d": 375.87374999999884,
      "v": 104
    },
    {
      "midi": 47,
      "hit": false,
      "t": 126922.95000000022,
      "d": 388.98562500000116,
      "v": 67
    },
    {
      "midi": 56,
      "hit": false,
      "t": 126922.95000000022,
      "d": 388.98562500000116,
      "v": 67
    },
    {
      "midi": 64,
      "hit": false,
      "t": 126922.95000000026,
      "d": 17.482499999998254,
      "v": 42
    },
    {
      "midi": 64,
      "hit": false,
      "t": 127132.7399999991,
      "d": 4.3706249999959255,
      "v": 47
    },
    {
      "midi": 56,
      "hit": false,
      "t": 127338.15937500022,
      "d": 170.4543749999866,
      "v": 55
    },
    {
      "midi": 52,
      "hit": false,
      "t": 127342.5299999991,
      "d": 187.93687499999942,
      "v": 104
    },
    {
      "midi": 56,
      "hit": false,
      "t": 127342.5299999991,
      "d": 187.93687499999942,
      "v": 104
    },
    {
      "midi": 69,
      "hit": false,
      "t": 127342.5299999998,
      "d": 751.7474999999977,
      "v": 104
    },
    {
      "midi": 28,
      "hit": false,
      "t": 127342.52999999996,
      "d": 100.5243749999936,
      "v": 99
    },
    {
      "midi": 64,
      "hit": false,
      "t": 127346.90062499909,
      "d": 4.3706249999959255,
      "v": 96
    },
    {
      "midi": 59,
      "hit": false,
      "t": 127346.90062500026,
      "d": 56.81812500000524,
      "v": 37
    },
    {
      "midi": 56,
      "hit": false,
      "t": 127346.90062500026,
      "d": 56.81812500000524,
      "v": 43
    },
    {
      "midi": 47,
      "hit": false,
      "t": 127547.94937500021,
      "d": 4.3706249999959255,
      "v": 59
    },
    {
      "midi": 59,
      "hit": false,
      "t": 127547.94937500021,
      "d": 4.3706249999959255,
      "v": 50
    },
    {
      "midi": 64,
      "hit": false,
      "t": 127547.94937500021,
      "d": 4.3706249999959255,
      "v": 63
    },
    {
      "midi": 57,
      "hit": false,
      "t": 127552.31999999909,
      "d": 375.87374999999884,
      "v": 104
    },
    {
      "midi": 61,
      "hit": false,
      "t": 127552.31999999909,
      "d": 375.87374999999884,
      "v": 104
    },
    {
      "midi": 33,
      "hit": false,
      "t": 127552.31999999995,
      "d": 423.9506249999977,
      "v": 99
    },
    {
      "midi": 45,
      "hit": false,
      "t": 127552.32000000021,
      "d": 170.45437500000116,
      "v": 58
    },
    {
      "midi": 57,
      "hit": false,
      "t": 127556.6906250002,
      "d": 380.2443750000093,
      "v": 61
    },
    {
      "midi": 52,
      "hit": false,
      "t": 127556.69062500026,
      "d": 196.67812500000582,
      "v": 59
    },
    {
      "midi": 64,
      "hit": false,
      "t": 127766.4806249991,
      "d": 4.3706249999959255,
      "v": 55
    },
    {
      "midi": 45,
      "hit": false,
      "t": 127770.85125000021,
      "d": 1315.558124999996,
      "v": 64
    },
    {
      "midi": 57,
      "hit": false,
      "t": 127967.52937500022,
      "d": 375.87374999999884,
      "v": 55
    },
    {
      "midi": 57,
      "hit": false,
      "t": 127971.90000000027,
      "d": 56.81812500000524,
      "v": 50
    },
    {
      "midi": 64,
      "hit": false,
      "t": 127971.90000000027,
      "d": 209.79000000000815,
      "v": 54
    },
    {
      "midi": 52,
      "hit": false,
      "t": 127971.90000000027,
      "d": 222.90187500001048,
      "v": 64
    },
    {
      "midi": 63,
      "hit": false,
      "t": 127976.27062499909,
      "d": 4.3706249999959255,
      "v": 86
    },
    {
      "midi": 61,
      "hit": false,
      "t": 127976.27062500022,
      "d": 375.87374999999884,
      "v": 67
    },
    {
      "midi": 62,
      "hit": false,
      "t": 128076.79499999908,
      "d": 4.3706249999959255,
      "v": 72
    },
    {
      "midi": 57,
      "hit": false,
      "t": 128181.68999999909,
      "d": 187.93687499999942,
      "v": 104
    },
    {
      "midi": 61,
      "hit": false,
      "t": 128181.68999999909,
      "d": 187.93687499999942,
      "v": 104
    },
    {
      "midi": 76,
      "hit": false,
      "t": 128181.6899999998,
      "d": 187.93687499999942,
      "v": 104
    },
    {
      "midi": 33,
      "hit": false,
      "t": 128181.68999999994,
      "d": 91.78312500000175,
      "v": 99
    },
    {
      "midi": 52,
      "hit": false,
      "t": 128181.69000000022,
      "d": 795.453749999986,
      "v": 48
    },
    {
      "midi": 63,
      "hit": false,
      "t": 128186.06062499908,
      "d": 4.3706249999959255,
      "v": 86
    },
    {
      "midi": 57,
      "hit": false,
      "t": 128391.47999999908,
      "d": 375.87374999999884,
      "v": 104
    },
    {
      "midi": 61,
      "hit": false,
      "t": 128391.47999999908,
      "d": 375.87374999999884,
      "v": 104
    },
    {
      "midi": 83,
      "hit": false,
      "t": 128391.47999999979,
      "d": 187.93687499999942,
      "v": 104
    },
    {
      "midi": 33,
      "hit": false,
      "t": 128391.47999999995,
      "d": 415.2093750000058,
      "v": 99
    },
    {
      "midi": 52,
      "hit": false,
      "t": 128391.48000000029,
      "d": 118.0068750000064,
      "v": 63
    },
    {
      "midi": 57,
      "hit": false,
      "t": 128596.89937500023,
      "d": 616.2581249999785,
      "v": 52
    },
    {
      "midi": 81,
      "hit": false,
      "t": 128601.26999999979,
      "d": 187.93687499999942,
      "v": 104
    },
    {
      "midi": 64,
      "hit": false,
      "t": 128601.27000000022,
      "d": 166.0837499999907,
      "v": 60
    },
    {
      "midi": 64,
      "hit": false,
      "t": 128601.2700000003,
      "d": 847.9012500000099,
      "v": 45
    },
    {
      "midi": 64,
      "hit": false,
      "t": 128605.64062499908,
      "d": 4.3706249999959255,
      "v": 92
    },
    {
      "midi": 61,
      "hit": false,
      "t": 128605.64062500022,
      "d": 375.8737499999843,
      "v": 67
    },
    {
      "midi": 63,
      "hit": false,
      "t": 128811.05999999908,
      "d": 4.3706249999959255,
      "v": 86
    },
    {
      "midi": 57,
      "hit": false,
      "t": 129020.84999999907,
      "d": 187.93687499999942,
      "v": 104
    },
    {
      "midi": 61,
      "hit": false,
      "t": 129020.84999999907,
      "d": 187.93687499999942,
      "v": 104
    },
    {
      "midi": 90,
      "hit": false,
      "t": 129020.84999999979,
      "d": 187.93687499999942,
      "v": 104
    },
    {
      "midi": 33,
      "hit": false,
      "t": 129020.84999999996,
      "d": 91.78312500000175,
      "v": 99
    },
    {
      "midi": 52,
      "hit": false,
      "t": 129020.85000000021,
      "d": 166.0837499999907,
      "v": 59
    },
    {
      "midi": 57,
      "hit": false,
      "t": 129020.8500000003,
      "d": 26.223750000004657,
      "v": 37
    },
    {
      "midi": 52,
      "hit": false,
      "t": 129020.8500000003,
      "d": 201.04875000000175,
      "v": 35
    },
    {
      "midi": 63,
      "hit": false,
      "t": 129025.22062499907,
      "d": 4.3706249999959255,
      "v": 92
    },
    {
      "midi": 61,
      "hit": false,
      "t": 129025.2206250002,
      "d": 170.45437500000116,
      "v": 52
    },
    {
      "midi": 55,
      "hit": false,
      "t": 129230.63999999907,
      "d": 375.87374999999884,
      "v": 104
    },
    {
      "midi": 59,
      "hit": false,
      "t": 129230.63999999907,
      "d": 375.87374999999884,
      "v": 104
    },
    {
      "midi": 62,
      "hit": false,
      "t": 129230.63999999907,
      "d": 375.87374999999884,
      "v": 104
    },
    {
      "midi": 64,
      "hit": false,
      "t": 129230.63999999907,
      "d": 375.87374999999884,
      "v": 104
    },
    {
      "midi": 31,
      "hit": false,
      "t": 129230.63999999997,
      "d": 450.1743750000023,
      "v": 99
    },
    {
      "midi": 43,
      "hit": false,
      "t": 129230.6400000002,
      "d": 196.67812500000582,
      "v": 58
    },
    {
      "midi": 55,
      "hit": false,
      "t": 129230.6400000003,
      "d": 603.1462500000052,
      "v": 50
    },
    {
      "midi": 50,
      "hit": false,
      "t": 129235.0106250003,
      "d": 196.67812500000582,
      "v": 59
    },
    {
      "midi": 90,
      "hit": false,
      "t": 129440.42999999979,
      "d": 563.8106249999983,
      "v": 104
    },
    {
      "midi": 52,
      "hit": false,
      "t": 129440.43000000021,
      "d": 170.45437500000116,
      "v": 63
    },
    {
      "midi": 43,
      "hit": false,
      "t": 129449.17125000022,
      "d": 1236.886875000011,
      "v": 64
    },
    {
      "midi": 55,
      "hit": false,
      "t": 129650.22000000022,
      "d": 388.98562500000116,
      "v": 48
    },
    {
      "midi": 59,
      "hit": false,
      "t": 129650.22000000022,
      "d": 388.98562500000116,
      "v": 59
    },
    {
      "midi": 64,
      "hit": false,
      "t": 129650.2200000003,
      "d": 209.79000000000815,
      "v": 54
    },
    {
      "midi": 62,
      "hit": false,
      "t": 129654.59062499907,
      "d": 4.3706249999959255,
      "v": 86
    },
    {
      "midi": 52,
      "hit": false,
      "t": 129654.59062500022,
      "d": 388.98562500000116,
      "v": 67
    },
    {
      "midi": 67,
      "hit": false,
      "t": 129654.59062500022,
      "d": 388.98562500000116,
      "v": 67
    },
    {
      "midi": 55,
      "hit": false,
      "t": 129860.00999999906,
      "d": 187.93687499999942,
      "v": 104
    },
    {
      "midi": 59,
      "hit": false,
      "t": 129860.00999999906,
      "d": 187.93687499999942,
      "v": 104
    },
    {
      "midi": 62,
      "hit": false,
      "t": 129860.00999999906,
      "d": 187.93687499999942,
      "v": 104
    },
    {
      "midi": 64,
      "hit": false,
      "t": 129860.00999999906,
      "d": 187.93687499999942,
      "v": 104
    },
    {
      "midi": 31,
      "hit": false,
      "t": 129860.00999999997,
      "d": 74.30062500000349,
      "v": 99
    },
    {
      "midi": 50,
      "hit": false,
      "t": 129860.01000000031,
      "d": 13.111875000002328,
      "v": 35
    },
    {
      "midi": 55,
      "hit": false,
      "t": 129860.01000000031,
      "d": 187.93687499999942,
      "v": 37
    },
    {
      "midi": 59,
      "hit": false,
      "t": 129860.01000000031,
      "d": 541.9575000000041,
      "v": 45
    },
    {
      "midi": 63,
      "hit": false,
      "t": 129868.75124999906,
      "d": 4.3706249999959255,
      "v": 60
    },
    {
      "midi": 57,
      "hit": false,
      "t": 130069.79999999906,
      "d": 375.87374999999884,
      "v": 104
    },
    {
      "midi": 61,
      "hit": false,
      "t": 130069.79999999906,
      "d": 375.87374999999884,
      "v": 104
    },
    {
      "midi": 69,
      "hit": false,
      "t": 130069.79999999978,
      "d": 187.93687499999942,
      "v": 104
    },
    {
      "midi": 31,
      "hit": false,
      "t": 130069.79999999997,
      "d": 157.34249999999884,
      "v": 99
    },
    {
      "midi": 73,
      "hit": false,
      "t": 130279.58999999978,
      "d": 187.93687499999942,
      "v": 104
    },
    {
      "midi": 38,
      "hit": false,
      "t": 130279.58999999997,
      "d": 406.4681249999994,
      "v": 99
    },
    {
      "midi": 62,
      "hit": false,
      "t": 130283.96062499905,
      "d": 4.3706249999959255,
      "v": 86
    },
    {
      "midi": 55,
      "hit": false,
      "t": 130283.96062500021,
      "d": 380.2443750000093,
      "v": 59
    },
    {
      "midi": 59,
      "hit": false,
      "t": 130283.96062500021,
      "d": 380.2443750000093,
      "v": 63
    },
    {
      "midi": 67,
      "hit": false,
      "t": 130283.96062500021,
      "d": 380.2443750000093,
      "v": 59
    },
    {
      "midi": 52,
      "hit": false,
      "t": 130292.70187500022,
      "d": 380.2443750000093,
      "v": 61
    },
    {
      "midi": 57,
      "hit": false,
      "t": 130489.37999999906,
      "d": 375.87374999999884,
      "v": 104
    },
    {
      "midi": 61,
      "hit": false,
      "t": 130489.37999999906,
      "d": 375.87374999999884,
      "v": 104
    },
    {
      "midi": 76,
      "hit": false,
      "t": 130489.37999999977,
      "d": 187.93687499999942,
      "v": 104
    },
    {
      "midi": 60,
      "hit": false,
      "t": 130498.12124999904,
      "d": 4.3706249999959255,
      "v": 65
    },
    {
      "midi": 73,
      "hit": false,
      "t": 130699.16999999977,
      "d": 1127.621250000011,
      "v": 104
    },
    {
      "midi": 78,
      "hit": false,
      "t": 130699.16999999977,
      "d": 1127.621250000011,
      "v": 104
    },
    {
      "midi": 31,
      "hit": false,
      "t": 130699.16999999997,
      "d": 201.04875000000175,
      "v": 99
    },
    {
      "midi": 43,
      "hit": false,
      "t": 130699.17000000023,
      "d": 196.67812500000582,
      "v": 58
    },
    {
      "midi": 50,
      "hit": false,
      "t": 130699.17000000032,
      "d": 26.223750000004657,
      "v": 35
    },
    {
      "midi": 55,
      "hit": false,
      "t": 130699.17000000032,
      "d": 113.63625000001048,
      "v": 49
    },
    {
      "midi": 64,
      "hit": false,
      "t": 130699.17000000032,
      "d": 113.63625000001048,
      "v": 55
    },
    {
      "midi": 60,
      "hit": false,
      "t": 130707.91124999903,
      "d": 4.3706249999959255,
      "v": 86
    },
    {
      "midi": 62,
      "hit": false,
      "t": 130812.80624999902,
      "d": 4.3706249999959255,
      "v": 86
    },
    {
      "midi": 82,
      "hit": false,
      "t": 130908.95999999902,
      "d": 39.335625000006985,
      "v": 82
    },
    {
      "midi": 51,
      "hit": false,
      "t": 130908.95999999906,
      "d": 375.87374999999884,
      "v": 104
    },
    {
      "midi": 57,
      "hit": false,
      "t": 130908.95999999906,
      "d": 375.87374999999884,
      "v": 104
    },
    {
      "midi": 39,
      "hit": false,
      "t": 130908.95999999998,
      "d": 506.99250000000757,
      "v": 99
    },
    {
      "midi": 39,
      "hit": false,
      "t": 130908.96000000024,
      "d": 196.67812499999127,
      "v": 58
    },
    {
      "midi": 51,
      "hit": false,
      "t": 130908.96000000034,
      "d": 83.04187499999534,
      "v": 76
    },
    {
      "midi": 61,
      "hit": false,
      "t": 130917.70124999902,
      "d": 4.3706249999959255,
      "v": 62
    },
    {
      "midi": 51,
      "hit": false,
      "t": 131118.75000000035,
      "d": 253.4962499999965,
      "v": 28
    },
    {
      "midi": 82,
      "hit": false,
      "t": 131127.49124999903,
      "d": 30.59437499998603,
      "v": 42
    },
    {
      "midi": 64,
      "hit": false,
      "t": 131232.38624999902,
      "d": 4.370625000010477,
      "v": 37
    },
    {
      "midi": 54,
      "hit": false,
      "t": 131324.16937500023,
      "d": 616.2581250000221,
      "v": 67
    },
    {
      "midi": 61,
      "hit": false,
      "t": 131324.16937500023,
      "d": 616.2581250000221,
      "v": 67
    },
    {
      "midi": 57,
      "hit": false,
      "t": 131328.54000000024,
      "d": 616.2581250000221,
      "v": 66
    },
    {
      "midi": 54,
      "hit": false,
      "t": 131328.54000000036,
      "d": 201.0487499999872,
      "v": 57
    },
    {
      "midi": 57,
      "hit": false,
      "t": 131328.54000000036,
      "d": 476.398125000007,
      "v": 61
    },
    {
      "midi": 60,
      "hit": false,
      "t": 131337.28124999904,
      "d": 4.370625000010477,
      "v": 85
    },
    {
      "midi": 62,
      "hit": false,
      "t": 131337.28124999904,
      "d": 4.370625000010477,
      "v": 82
    },
    {
      "midi": 82,
      "hit": false,
      "t": 131337.28124999904,
      "d": 30.594375000015134,
      "v": 47
    },
    {
      "midi": 61,
      "hit": false,
      "t": 131337.28125000035,
      "d": 463.28625000000466,
      "v": 64
    },
    {
      "midi": 51,
      "hit": false,
      "t": 131538.32999999906,
      "d": 187.93687500001397,
      "v": 104
    },
    {
      "midi": 57,
      "hit": false,
      "t": 131538.32999999906,
      "d": 187.93687500001397,
      "v": 104
    },
    {
      "midi": 82,
      "hit": false,
      "t": 131538.32999999906,
      "d": 39.335625000006985,
      "v": 82
    },
    {
      "midi": 39,
      "hit": false,
      "t": 131538.33,
      "d": 78.67125000001397,
      "v": 99
    },
    {
      "midi": 61,
      "hit": false,
      "t": 131547.07124999905,
      "d": 4.370625000010477,
      "v": 70
    },
    {
      "midi": 64,
      "hit": false,
      "t": 131547.07124999905,
      "d": 4.370625000010477,
      "v": 82
    },
    {
      "midi": 51,
      "hit": false,
      "t": 131748.11999999906,
      "d": 375.87374999999884,
      "v": 104
    },
    {
      "midi": 57,
      "hit": false,
      "t": 131748.11999999906,
      "d": 375.87374999999884,
      "v": 104
    },
    {
      "midi": 39,
      "hit": false,
      "t": 131748.12,
      "d": 502.62187500001164,
      "v": 99
    },
    {
      "midi": 51,
      "hit": false,
      "t": 131748.12000000034,
      "d": 222.90187500001048,
      "v": 63
    },
    {
      "midi": 82,
      "hit": false,
      "t": 131756.86124999906,
      "d": 30.59437499998603,
      "v": 53
    },
    {
      "midi": 57,
      "hit": false,
      "t": 131953.53937500025,
      "d": 388.98562500000116,
      "v": 67
    },
    {
      "midi": 61,
      "hit": false,
      "t": 131953.53937500025,
      "d": 388.98562500000116,
      "v": 67
    },
    {
      "midi": 82,
      "hit": false,
      "t": 131957.90999999904,
      "d": 30.59437499998603,
      "v": 39
    },
    {
      "midi": 73,
      "hit": false,
      "t": 131957.90999999977,
      "d": 375.87374999999884,
      "v": 104
    },
    {
      "midi": 78,
      "hit": false,
      "t": 131957.90999999977,
      "d": 375.87374999999884,
      "v": 104
    },
    {
      "midi": 54,
      "hit": false,
      "t": 131957.91000000027,
      "d": 598.7756249999802,
      "v": 67
    },
    {
      "midi": 61,
      "hit": false,
      "t": 131957.91000000035,
      "d": 568.1812500000233,
      "v": 45
    },
    {
      "midi": 64,
      "hit": false,
      "t": 132071.54624999902,
      "d": 4.370625000010477,
      "v": 73
    },
    {
      "midi": 62,
      "hit": false,
      "t": 132172.07062499903,
      "d": 4.370625000010477,
      "v": 88
    },
    {
      "midi": 60,
      "hit": false,
      "t": 132176.44124999904,
      "d": 4.370625000010477,
      "v": 82
    },
    {
      "midi": 82,
      "hit": false,
      "t": 132176.44124999904,
      "d": 39.335625000006985,
      "v": 82
    },
    {
      "midi": 51,
      "hit": false,
      "t": 132377.48999999906,
      "d": 187.93687500001397,
      "v": 104
    },
    {
      "midi": 57,
      "hit": false,
      "t": 132377.48999999906,
      "d": 187.93687500001397,
      "v": 104
    },
    {
      "midi": 73,
      "hit": false,
      "t": 132377.48999999976,
      "d": 187.93687500001397,
      "v": 104
    },
    {
      "midi": 78,
      "hit": false,
      "t": 132377.48999999976,
      "d": 187.93687500001397,
      "v": 104
    },
    {
      "midi": 33,
      "hit": false,
      "t": 132377.49000000002,
      "d": 74.30062500000349,
      "v": 99
    },
    {
      "midi": 54,
      "hit": false,
      "t": 132377.49000000037,
      "d": 83.04187499999534,
      "v": 44
    },
    {
      "midi": 63,
      "hit": false,
      "t": 132381.86062499904,
      "d": 4.370625000010477,
      "v": 82
    },
    {
      "midi": 61,
      "hit": false,
      "t": 132386.23124999905,
      "d": 4.370625000010477,
      "v": 62
    },
    {
      "midi": 82,
      "hit": false,
      "t": 132386.23124999905,
      "d": 30.594375000015134,
      "v": 58
    },
    {
      "midi": 57,
      "hit": false,
      "t": 132386.23125000036,
      "d": 227.27250000002095,
      "v": 36
    },
    {
      "midi": 57,
      "hit": false,
      "t": 132582.90937500025,
      "d": 4.370625000010477,
      "v": 59
    },
    {
      "midi": 61,
      "hit": false,
      "t": 132582.90937500025,
      "d": 4.370625000010477,
      "v": 63
    },
    {
      "midi": 56,
      "hit": false,
      "t": 132587.27999999907,
      "d": 375.87374999999884,
      "v": 104
    },
    {
      "midi": 60,
      "hit": false,
      "t": 132587.27999999907,
      "d": 375.87374999999884,
      "v": 104
    },
    {
      "midi": 72,
      "hit": false,
      "t": 132587.27999999977,
      "d": 1507.8656250000058,
      "v": 104
    },
    {
      "midi": 80,
      "hit": false,
      "t": 132587.27999999977,
      "d": 1507.8656250000058,
      "v": 104
    },
    {
      "midi": 32,
      "hit": false,
      "t": 132587.28000000003,
      "d": 607.5168750000012,
      "v": 99
    },
    {
      "midi": 56,
      "hit": false,
      "t": 132591.65062500027,
      "d": 196.67812500000582,
      "v": 61
    },
    {
      "midi": 82,
      "hit": false,
      "t": 132596.02124999906,
      "d": 30.59437499998603,
      "v": 34
    },
    {
      "midi": 64,
      "hit": false,
      "t": 132801.44062499906,
      "d": 4.370625000010477,
      "v": 55
    },
    {
      "midi": 82,
      "hit": false,
      "t": 132805.81124999907,
      "d": 30.59437499998603,
      "v": 39
    },
    {
      "midi": 56,
      "hit": false,
      "t": 133002.48937500027,
      "d": 1215.0337500000314,
      "v": 67
    },
    {
      "midi": 63,
      "hit": false,
      "t": 133006.86000000028,
      "d": 1215.0337500000314,
      "v": 67
    },
    {
      "midi": 60,
      "hit": false,
      "t": 133011.2306250003,
      "d": 1215.0337500000314,
      "v": 67
    },
    {
      "midi": 63,
      "hit": false,
      "t": 133011.23062500037,
      "d": 218.53125,
      "v": 52
    },
    {
      "midi": 60,
      "hit": false,
      "t": 133011.23062500037,
      "d": 270.9787500000093,
      "v": 60
    },
    {
      "midi": 60,
      "hit": false,
      "t": 133015.60124999905,
      "d": 4.370625000010477,
      "v": 82
    },
    {
      "midi": 62,
      "hit": false,
      "t": 133015.60124999905,
      "d": 4.370625000010477,
      "v": 82
    },
    {
      "midi": 82,
      "hit": false,
      "t": 133015.60124999905,
      "d": 39.335625000006985,
      "v": 82
    },
    {
      "midi": 56,
      "hit": false,
      "t": 133216.64999999906,
      "d": 187.93687500001397,
      "v": 104
    },
    {
      "midi": 60,
      "hit": false,
      "t": 133216.64999999906,
      "d": 187.93687500001397,
      "v": 104
    },
    {
      "midi": 82,
      "hit": false,
      "t": 133216.64999999906,
      "d": 30.594375000044238,
      "v": 42
    },
    {
      "midi": 39,
      "hit": false,
      "t": 133216.65000000002,
      "d": 131.11874999999418,
      "v": 98
    },
    {
      "midi": 62,
      "hit": false,
      "t": 133221.02062499907,
      "d": 4.370625000010477,
      "v": 68
    },
    {
      "midi": 56,
      "hit": false,
      "t": 133221.02062500038,
      "d": 323.4262499999895,
      "v": 43
    },
    {
      "midi": 61,
      "hit": false,
      "t": 133225.39124999908,
      "d": 4.370625000010477,
      "v": 82
    },
    {
      "midi": 56,
      "hit": false,
      "t": 133426.43999999907,
      "d": 375.87374999999884,
      "v": 104
    },
    {
      "midi": 60,
      "hit": false,
      "t": 133426.43999999907,
      "d": 375.87374999999884,
      "v": 104
    },
    {
      "midi": 64,
      "hit": false,
      "t": 133426.4399999991,
      "d": 4.370625000010477,
      "v": 82
    },
    {
      "midi": 39,
      "hit": false,
      "t": 133426.44000000003,
      "d": 572.5518750000047,
      "v": 99
    },
    {
      "midi": 60,
      "hit": false,
      "t": 133426.44000000038,
      "d": 148.60124999997788,
      "v": 60
    },
    {
      "midi": 68,
      "hit": false,
      "t": 133426.44000000038,
      "d": 148.60124999997788,
      "v": 60
    },
    {
      "midi": 82,
      "hit": false,
      "t": 133435.18124999912,
      "d": 30.59437499998603,
      "v": 52
    },
    {
      "midi": 82,
      "hit": false,
      "t": 133636.2299999991,
      "d": 39.335625000006985,
      "v": 82
    },
    {
      "midi": 56,
      "hit": false,
      "t": 133636.23000000036,
      "d": 743.0062499999767,
      "v": 49
    },
    {
      "midi": 60,
      "hit": false,
      "t": 133636.23000000036,
      "d": 743.0062499999767,
      "v": 40
    },
    {
      "midi": 63,
      "hit": false,
      "t": 133636.23000000036,
      "d": 795.453749999986,
      "v": 40
    },
    {
      "midi": 63,
      "hit": false,
      "t": 133644.9712499991,
      "d": 4.370625000010477,
      "v": 82
    },
    {
      "midi": 82,
      "hit": false,
      "t": 133846.01999999912,
      "d": 30.594375000015134,
      "v": 45
    },
    {
      "midi": 60,
      "hit": false,
      "t": 133854.7612499991,
      "d": 4.370625000010477,
      "v": 82
    },
    {
      "midi": 62,
      "hit": false,
      "t": 133854.7612499991,
      "d": 4.370625000010477,
      "v": 95
    },
    {
      "midi": 60,
      "hit": false,
      "t": 133950.91499999914,
      "d": 4.370625000010477,
      "v": 59
    },
    {
      "midi": 56,
      "hit": false,
      "t": 134055.80999999907,
      "d": 187.93687500001397,
      "v": 104
    },
    {
      "midi": 60,
      "hit": false,
      "t": 134055.80999999907,
      "d": 187.93687500001397,
      "v": 104
    },
    {
      "midi": 60,
      "hit": false,
      "t": 134055.80999999915,
      "d": 4.370625000010477,
      "v": 42
    },
    {
      "midi": 64,
      "hit": false,
      "t": 134055.80999999915,
      "d": 4.370625000010477,
      "v": 82
    },
    {
      "midi": 32,
      "hit": false,
      "t": 134055.81000000003,
      "d": 144.2306249999965,
      "v": 94
    },
    {
      "midi": 82,
      "hit": false,
      "t": 134060.18062499916,
      "d": 30.59437499998603,
      "v": 67
    },
    {
      "midi": 61,
      "hit": false,
      "t": 134265.59999999907,
      "d": 375.87374999999884,
      "v": 104
    },
    {
      "midi": 64,
      "hit": false,
      "t": 134265.59999999907,
      "d": 375.87374999999884,
      "v": 104
    },
    {
      "midi": 82,
      "hit": false,
      "t": 134265.59999999916,
      "d": 39.335625000006985,
      "v": 82
    },
    {
      "midi": 76,
      "hit": false,
      "t": 134265.59999999977,
      "d": 1131.991875000007,
      "v": 104
    },
    {
      "midi": 37,
      "hit": false,
      "t": 134265.60000000003,
      "d": 506.992499999993,
      "v": 99
    },
    {
      "midi": 52,
      "hit": false,
      "t": 134265.60000000033,
      "d": 78.67125000001397,
      "v": 47
    },
    {
      "midi": 61,
      "hit": false,
      "t": 134265.60000000033,
      "d": 78.67125000001397,
      "v": 51
    },
    {
      "midi": 37,
      "hit": false,
      "t": 134265.60000000033,
      "d": 196.67812500000582,
      "v": 58
    },
    {
      "midi": 49,
      "hit": false,
      "t": 134265.60000000036,
      "d": 83.04187499999534,
      "v": 76
    },
    {
      "midi": 61,
      "hit": false,
      "t": 134274.34124999915,
      "d": 4.370625000010477,
      "v": 62
    },
    {
      "midi": 49,
      "hit": false,
      "t": 134475.39000000033,
      "d": 253.4962499999965,
      "v": 28
    },
    {
      "midi": 82,
      "hit": false,
      "t": 134484.13124999916,
      "d": 30.59437499998603,
      "v": 42
    },
    {
      "midi": 64,
      "hit": false,
      "t": 134589.02624999915,
      "d": 4.370625000010477,
      "v": 37
    },
    {
      "midi": 61,
      "hit": false,
      "t": 134685.18000000034,
      "d": 922.2018750000279,
      "v": 62
    },
    {
      "midi": 56,
      "hit": false,
      "t": 134685.18000000034,
      "d": 201.0487499999872,
      "v": 57
    },
    {
      "midi": 61,
      "hit": false,
      "t": 134685.18000000034,
      "d": 476.398125000007,
      "v": 61
    },
    {
      "midi": 68,
      "hit": false,
      "t": 134689.55062500035,
      "d": 922.2018750000279,
      "v": 62
    },
    {
      "midi": 60,
      "hit": false,
      "t": 134693.92124999917,
      "d": 4.370625000010477,
      "v": 85
    },
    {
      "midi": 62,
      "hit": false,
      "t": 134693.92124999917,
      "d": 4.370625000010477,
      "v": 82
    },
    {
      "midi": 82,
      "hit": false,
      "t": 134693.92124999917,
      "d": 30.594375000015134,
      "v": 47
    },
    {
      "midi": 64,
      "hit": false,
      "t": 134693.92125000033,
      "d": 463.28625000000466,
      "v": 64
    },
    {
      "midi": 56,
      "hit": false,
      "t": 134693.92125000036,
      "d": 922.2018750000279,
      "v": 61
    },
    {
      "midi": 61,
      "hit": false,
      "t": 134894.96999999907,
      "d": 187.93687500001397,
      "v": 104
    },
    {
      "midi": 64,
      "hit": false,
      "t": 134894.96999999907,
      "d": 187.93687500001397,
      "v": 104
    },
    {
      "midi": 82,
      "hit": false,
      "t": 134894.9699999992,
      "d": 39.335625000006985,
      "v": 82
    },
    {
      "midi": 37,
      "hit": false,
      "t": 134894.97000000003,
      "d": 78.67125000001397,
      "v": 99
    },
    {
      "midi": 61,
      "hit": false,
      "t": 134903.71124999918,
      "d": 4.370625000010477,
      "v": 70
    },
    {
      "midi": 64,
      "hit": false,
      "t": 134903.71124999918,
      "d": 4.370625000010477,
      "v": 82
    },
    {
      "midi": 61,
      "hit": false,
      "t": 135104.75999999908,
      "d": 375.87374999999884,
      "v": 104
    },
    {
      "midi": 64,
      "hit": false,
      "t": 135104.75999999908,
      "d": 375.87374999999884,
      "v": 104
    },
    {
      "midi": 37,
      "hit": false,
      "t": 135104.76000000004,
      "d": 502.62187500001164,
      "v": 99
    },
    {
      "midi": 49,
      "hit": false,
      "t": 135104.76000000033,
      "d": 222.90187500001048,
      "v": 63
    },
    {
      "midi": 56,
      "hit": false,
      "t": 135104.76000000033,
      "d": 712.4118750000489,
      "v": 54
    },
    {
      "midi": 82,
      "hit": false,
      "t": 135113.5012499992,
      "d": 30.59437499998603,
      "v": 53
    },
    {
      "midi": 82,
      "hit": false,
      "t": 135314.54999999917,
      "d": 30.59437499998603,
      "v": 39
    },
    {
      "midi": 64,
      "hit": false,
      "t": 135314.55000000034,
      "d": 568.1812500000524,
      "v": 45
    },
    {
      "midi": 64,
      "hit": false,
      "t": 135428.18624999915,
      "d": 4.370625000010477,
      "v": 73
    },
    {
      "midi": 71,
      "hit": false,
      "t": 135524.3399999998,
      "d": 187.93687500001397,
      "v": 104
    },
    {
      "midi": 73,
      "hit": false,
      "t": 135524.3399999998,
      "d": 187.93687500001397,
      "v": 104
    },
    {
      "midi": 62,
      "hit": false,
      "t": 135528.71062499916,
      "d": 4.370625000010477,
      "v": 88
    },
    {
      "midi": 60,
      "hit": false,
      "t": 135533.08124999917,
      "d": 4.370625000010477,
      "v": 82
    },
    {
      "midi": 82,
      "hit": false,
      "t": 135533.08124999917,
      "d": 39.335625000006985,
      "v": 82
    },
    {
      "midi": 61,
      "hit": false,
      "t": 135734.12999999907,
      "d": 187.93687500001397,
      "v": 104
    },
    {
      "midi": 64,
      "hit": false,
      "t": 135734.12999999907,
      "d": 187.93687500001397,
      "v": 104
    },
    {
      "midi": 70,
      "hit": false,
      "t": 135734.1299999998,
      "d": 1315.5581250000105,
      "v": 104
    },
    {
      "midi": 78,
      "hit": false,
      "t": 135734.1299999998,
      "d": 1315.5581250000105,
      "v": 104
    },
    {
      "midi": 37,
      "hit": false,
      "t": 135734.13000000006,
      "d": 74.30062500000349,
      "v": 99
    },
    {
      "midi": 63,
      "hit": false,
      "t": 135738.50062499917,
      "d": 4.370625000010477,
      "v": 82
    },
    {
      "midi": 61,
      "hit": false,
      "t": 135742.87124999918,
      "d": 4.370625000010477,
      "v": 62
    },
    {
      "midi": 82,
      "hit": false,
      "t": 135742.87124999918,
      "d": 30.594375000015134,
      "v": 58
    },
    {
      "midi": 61,
      "hit": false,
      "t": 135939.54937500038,
      "d": 196.67812500000582,
      "v": 59
    },
    {
      "midi": 66,
      "hit": false,
      "t": 135939.54937500038,
      "d": 196.67812500000582,
      "v": 63
    },
    {
      "midi": 54,
      "hit": false,
      "t": 135943.91999999908,
      "d": 375.87374999999884,
      "v": 104
    },
    {
      "midi": 61,
      "hit": false,
      "t": 135943.91999999908,
      "d": 375.87374999999884,
      "v": 104
    },
    {
      "midi": 30,
      "hit": false,
      "t": 135943.92000000007,
      "d": 607.5168750000012,
      "v": 99
    },
    {
      "midi": 58,
      "hit": false,
      "t": 135948.29062500037,
      "d": 196.67812500000582,
      "v": 61
    },
    {
      "midi": 82,
      "hit": false,
      "t": 135952.6612499992,
      "d": 30.59437499998603,
      "v": 34
    },
    {
      "midi": 64,
      "hit": false,
      "t": 136158.0806249992,
      "d": 4.370625000010477,
      "v": 55
    },
    {
      "midi": 82,
      "hit": false,
      "t": 136162.4512499992,
      "d": 30.59437499998603,
      "v": 39
    },
    {
      "midi": 58,
      "hit": false,
      "t": 136359.12937500037,
      "d": 1215.0337500000314,
      "v": 67
    },
    {
      "midi": 66,
      "hit": false,
      "t": 136363.50000000038,
      "d": 1215.0337500000314,
      "v": 67
    },
    {
      "midi": 61,
      "hit": false,
      "t": 136367.8706250004,
      "d": 1215.0337500000314,
      "v": 67
    },
    {
      "midi": 66,
      "hit": false,
      "t": 136367.8706250004,
      "d": 218.53125,
      "v": 52
    },
    {
      "midi": 61,
      "hit": false,
      "t": 136367.8706250004,
      "d": 257.866875000007,
      "v": 60
    },
    {
      "midi": 60,
      "hit": false,
      "t": 136372.24124999918,
      "d": 4.370625000010477,
      "v": 82
    },
    {
      "midi": 62,
      "hit": false,
      "t": 136372.24124999918,
      "d": 4.370625000010477,
      "v": 82
    },
    {
      "midi": 82,
      "hit": false,
      "t": 136372.24124999918,
      "d": 39.335625000006985,
      "v": 82
    },
    {
      "midi": 54,
      "hit": false,
      "t": 136573.28999999908,
      "d": 187.93687500001397,
      "v": 104
    },
    {
      "midi": 61,
      "hit": false,
      "t": 136573.28999999908,
      "d": 187.93687500001397,
      "v": 104
    },
    {
      "midi": 82,
      "hit": false,
      "t": 136573.2899999992,
      "d": 30.594375000044238,
      "v": 42
    },
    {
      "midi": 37,
      "hit": false,
      "t": 136573.29000000007,
      "d": 131.11874999999418,
      "v": 98
    },
    {
      "midi": 62,
      "hit": false,
      "t": 136577.6606249992,
      "d": 4.370625000010477,
      "v": 68
    },
    {
      "midi": 58,
      "hit": false,
      "t": 136577.6606250004,
      "d": 43.70624999998836,
      "v": 43
    },
    {
      "midi": 61,
      "hit": false,
      "t": 136582.0312499992,
      "d": 4.370625000010477,
      "v": 82
    },
    {
      "midi": 54,
      "hit": false,
      "t": 136783.07999999908,
      "d": 375.87374999999884,
      "v": 104
    },
    {
      "midi": 61,
      "hit": false,
      "t": 136783.07999999908,
      "d": 375.87374999999884,
      "v": 104
    },
    {
      "midi": 64,
      "hit": false,
      "t": 136783.07999999923,
      "d": 4.370625000010477,
      "v": 82
    },
    {
      "midi": 37,
      "hit": false,
      "t": 136783.08000000007,
      "d": 572.5518750000047,
      "v": 99
    },
    {
      "midi": 61,
      "hit": false,
      "t": 136783.0800000004,
      "d": 148.60124999997788,
      "v": 60
    },
    {
      "midi": 70,
      "hit": false,
      "t": 136783.0800000004,
      "d": 148.60124999997788,
      "v": 60
    },
    {
      "midi": 82,
      "hit": false,
      "t": 136791.82124999925,
      "d": 30.59437499998603,
      "v": 52
    },
    {
      "midi": 82,
      "hit": false,
      "t": 136992.86999999924,
      "d": 39.335625000006985,
      "v": 82
    },
    {
      "midi": 58,
      "hit": false,
      "t": 136992.87000000037,
      "d": 743.0062499999767,
      "v": 49
    },
    {
      "midi": 61,
      "hit": false,
      "t": 136992.87000000037,
      "d": 743.0062499999767,
      "v": 40
    },
    {
      "midi": 66,
      "hit": false,
      "t": 136992.87000000037,
      "d": 795.453749999986,
      "v": 40
    },
    {
      "midi": 63,
      "hit": false,
      "t": 137001.61124999923,
      "d": 4.370625000010477,
      "v": 82
    },
    {
      "midi": 82,
      "hit": false,
      "t": 137202.65999999925,
      "d": 30.594375000015134,
      "v": 45
    },
    {
      "midi": 60,
      "hit": false,
      "t": 137211.40124999924,
      "d": 4.370625000010477,
      "v": 82
    },
    {
      "midi": 62,
      "hit": false,
      "t": 137211.40124999924,
      "d": 4.370625000010477,
      "v": 95
    },
    {
      "midi": 60,
      "hit": false,
      "t": 137307.55499999927,
      "d": 4.370625000010477,
      "v": 59
    },
    {
      "midi": 54,
      "hit": false,
      "t": 137412.44999999908,
      "d": 187.93687500001397,
      "v": 104
    },
    {
      "midi": 61,
      "hit": false,
      "t": 137412.44999999908,
      "d": 187.93687500001397,
      "v": 104
    },
    {
      "midi": 60,
      "hit": false,
      "t": 137412.44999999928,
      "d": 4.370625000010477,
      "v": 42
    },
    {
      "midi": 64,
      "hit": false,
      "t": 137412.44999999928,
      "d": 4.370625000010477,
      "v": 82
    },
    {
      "midi": 30,
      "hit": false,
      "t": 137412.45000000007,
      "d": 144.2306249999965,
      "v": 94
    },
    {
      "midi": 82,
      "hit": false,
      "t": 137416.8206249993,
      "d": 30.59437499998603,
      "v": 67
    },
    {
      "midi": 47,
      "hit": false,
      "t": 137622.2399999991,
      "d": 375.87374999999884,
      "v": 104
    },
    {
      "midi": 54,
      "hit": false,
      "t": 137622.2399999991,
      "d": 375.87374999999884,
      "v": 104
    },
    {
      "midi": 82,
      "hit": false,
      "t": 137622.2399999993,
      "d": 39.335625000006985,
      "v": 82
    },
    {
      "midi": 35,
      "hit": false,
      "t": 137622.24000000008,
      "d": 506.992499999993,
      "v": 99
    },
    {
      "midi": 47,
      "hit": false,
      "t": 137622.24000000037,
      "d": 83.04187499999534,
      "v": 76
    },
    {
      "midi": 50,
      "hit": false,
      "t": 137622.24000000043,
      "d": 78.67125000001397,
      "v": 47
    },
    {
      "midi": 59,
      "hit": false,
      "t": 137622.24000000043,
      "d": 78.67125000001397,
      "v": 51
    },
    {
      "midi": 47,
      "hit": false,
      "t": 137622.24000000043,
      "d": 196.67812500000582,
      "v": 58
    },
    {
      "midi": 61,
      "hit": false,
      "t": 137630.98124999928,
      "d": 4.370625000010477,
      "v": 62
    },
    {
      "midi": 47,
      "hit": false,
      "t": 137832.03000000035,
      "d": 253.4962499999965,
      "v": 28
    },
    {
      "midi": 82,
      "hit": false,
      "t": 137840.7712499993,
      "d": 30.59437499998603,
      "v": 42
    },
    {
      "midi": 64,
      "hit": false,
      "t": 137945.66624999928,
      "d": 4.370625000010477,
      "v": 37
    },
    {
      "midi": 74,
      "hit": false,
      "t": 138041.8199999998,
      "d": 187.93687500001397,
      "v": 104
    },
    {
      "midi": 54,
      "hit": false,
      "t": 138041.82000000036,
      "d": 201.0487499999872,
      "v": 57
    },
    {
      "midi": 59,
      "hit": false,
      "t": 138041.82000000036,
      "d": 476.398125000007,
      "v": 61
    },
    {
      "midi": 59,
      "hit": false,
      "t": 138041.82000000044,
      "d": 922.2018750000279,
      "v": 62
    },
    {
      "midi": 66,
      "hit": false,
      "t": 138046.19062500045,
      "d": 922.2018750000279,
      "v": 62
    },
    {
      "midi": 60,
      "hit": false,
      "t": 138050.5612499993,
      "d": 4.370625000010477,
      "v": 85
    },
    {
      "midi": 62,
      "hit": false,
      "t": 138050.5612499993,
      "d": 4.370625000010477,
      "v": 82
    },
    {
      "midi": 82,
      "hit": false,
      "t": 138050.5612499993,
      "d": 30.594375000015134,
      "v": 47
    },
    {
      "midi": 62,
      "hit": false,
      "t": 138050.56125000035,
      "d": 463.28625000000466,
      "v": 64
    },
    {
      "midi": 54,
      "hit": false,
      "t": 138050.56125000046,
      "d": 922.2018750000279,
      "v": 61
    },
    {
      "midi": 47,
      "hit": false,
      "t": 138251.60999999908,
      "d": 187.93687500001397,
      "v": 104
    },
    {
      "midi": 54,
      "hit": false,
      "t": 138251.60999999908,
      "d": 187.93687500001397,
      "v": 104
    },
    {
      "midi": 82,
      "hit": false,
      "t": 138251.60999999932,
      "d": 39.335625000006985,
      "v": 82
    },
    {
      "midi": 74,
      "hit": false,
      "t": 138251.6099999998,
      "d": 187.93687500001397,
      "v": 104
    },
    {
      "midi": 35,
      "hit": false,
      "t": 138251.61000000007,
      "d": 78.67125000001397,
      "v": 99
    },
    {
      "midi": 61,
      "hit": false,
      "t": 138260.3512499993,
      "d": 4.370625000010477,
      "v": 70
    },
    {
      "midi": 64,
      "hit": false,
      "t": 138260.3512499993,
      "d": 4.370625000010477,
      "v": 82
    },
    {
      "midi": 47,
      "hit": false,
      "t": 138461.3999999991,
      "d": 375.87374999999884,
      "v": 104
    },
    {
      "midi": 54,
      "hit": false,
      "t": 138461.3999999991,
      "d": 375.87374999999884,
      "v": 104
    },
    {
      "midi": 74,
      "hit": false,
      "t": 138461.39999999982,
      "d": 375.87374999999884,
      "v": 104
    },
    {
      "midi": 35,
      "hit": false,
      "t": 138461.40000000008,
      "d": 502.62187500001164,
      "v": 99
    },
    {
      "midi": 47,
      "hit": false,
      "t": 138461.40000000034,
      "d": 222.90187500001048,
      "v": 63
    },
    {
      "midi": 82,
      "hit": false,
      "t": 138470.14124999932,
      "d": 30.59437499998603,
      "v": 53
    },
    {
      "midi": 82,
      "hit": false,
      "t": 138671.1899999993,
      "d": 30.59437499998603,
      "v": 39
    },
    {
      "midi": 62,
      "hit": false,
      "t": 138671.19000000035,
      "d": 568.1812500000233,
      "v": 45
    },
    {
      "midi": 64,
      "hit": false,
      "t": 138784.82624999929,
      "d": 4.370625000010477,
      "v": 73
    },
    {
      "midi": 76,
      "hit": false,
      "t": 138880.9799999998,
      "d": 187.93687500001397,
      "v": 104
    },
    {
      "midi": 62,
      "hit": false,
      "t": 138885.3506249993,
      "d": 4.370625000010477,
      "v": 88
    },
    {
      "midi": 60,
      "hit": false,
      "t": 138889.7212499993,
      "d": 4.370625000010477,
      "v": 82
    },
    {
      "midi": 82,
      "hit": false,
      "t": 138889.7212499993,
      "d": 39.335625000006985,
      "v": 82
    },
    {
      "midi": 47,
      "hit": false,
      "t": 139090.7699999991,
      "d": 187.93687500001397,
      "v": 104
    },
    {
      "midi": 54,
      "hit": false,
      "t": 139090.7699999991,
      "d": 187.93687500001397,
      "v": 104
    },
    {
      "midi": 76,
      "hit": false,
      "t": 139090.76999999981,
      "d": 187.93687500001397,
      "v": 104
    },
    {
      "midi": 30,
      "hit": false,
      "t": 139090.7700000001,
      "d": 74.30062500000349,
      "v": 99
    },
    {
      "midi": 54,
      "hit": false,
      "t": 139090.77000000037,
      "d": 83.04187499999534,
      "v": 44
    },
    {
      "midi": 63,
      "hit": false,
      "t": 139095.1406249993,
      "d": 4.370625000010477,
      "v": 82
    },
    {
      "midi": 54,
      "hit": false,
      "t": 139095.1406250005,
      "d": 782.3418750000128,
      "v": 61
    },
    {
      "midi": 66,
      "hit": false,
      "t": 139095.1406250005,
      "d": 1569.054375000007,
      "v": 66
    },
    {
      "midi": 61,
      "hit": false,
      "t": 139099.5112499993,
      "d": 4.370625000010477,
      "v": 62
    },
    {
      "midi": 82,
      "hit": false,
      "t": 139099.5112499993,
      "d": 30.594375000015134,
      "v": 58
    },
    {
      "midi": 59,
      "hit": false,
      "t": 139099.51125000036,
      "d": 227.27250000002095,
      "v": 36
    },
    {
      "midi": 50,
      "hit": false,
      "t": 139099.5112500005,
      "d": 1516.6068749999977,
      "v": 46
    },
    {
      "midi": 47,
      "hit": false,
      "t": 139300.5599999991,
      "d": 375.87374999999884,
      "v": 104
    },
    {
      "midi": 54,
      "hit": false,
      "t": 139300.5599999991,
      "d": 375.87374999999884,
      "v": 104
    },
    {
      "midi": 78,
      "hit": false,
      "t": 139300.55999999982,
      "d": 751.7474999999977,
      "v": 104
    },
    {
      "midi": 35,
      "hit": false,
      "t": 139300.5600000001,
      "d": 607.5168750000012,
      "v": 99
    },
    {
      "midi": 54,
      "hit": false,
      "t": 139300.56000000038,
      "d": 56.81812499999069,
      "v": 50
    },
    {
      "midi": 47,
      "hit": false,
      "t": 139300.56000000038,
      "d": 240.38437499999418,
      "v": 58
    },
    {
      "midi": 82,
      "hit": false,
      "t": 139309.30124999932,
      "d": 30.59437499998603,
      "v": 34
    },
    {
      "midi": 64,
      "hit": false,
      "t": 139514.72062499932,
      "d": 4.370625000010477,
      "v": 55
    },
    {
      "midi": 82,
      "hit": false,
      "t": 139519.09124999933,
      "d": 30.59437499998603,
      "v": 39
    },
    {
      "midi": 59,
      "hit": false,
      "t": 139720.14000000036,
      "d": 270.9787499999802,
      "v": 50
    },
    {
      "midi": 62,
      "hit": false,
      "t": 139720.14000000036,
      "d": 585.6637499999779,
      "v": 54
    },
    {
      "midi": 60,
      "hit": false,
      "t": 139728.8812499993,
      "d": 4.370625000010477,
      "v": 82
    },
    {
      "midi": 62,
      "hit": false,
      "t": 139728.8812499993,
      "d": 4.370625000010477,
      "v": 82
    },
    {
      "midi": 82,
      "hit": false,
      "t": 139728.8812499993,
      "d": 39.335625000006985,
      "v": 82
    },
    {
      "midi": 47,
      "hit": false,
      "t": 139929.9299999991,
      "d": 187.93687500001397,
      "v": 104
    },
    {
      "midi": 54,
      "hit": false,
      "t": 139929.9299999991,
      "d": 187.93687500001397,
      "v": 104
    },
    {
      "midi": 82,
      "hit": false,
      "t": 139929.92999999932,
      "d": 30.594375000044238,
      "v": 42
    },
    {
      "midi": 30,
      "hit": false,
      "t": 139929.9300000001,
      "d": 131.11874999999418,
      "v": 98
    },
    {
      "midi": 62,
      "hit": false,
      "t": 139934.30062499933,
      "d": 4.370625000010477,
      "v": 68
    },
    {
      "midi": 59,
      "hit": false,
      "t": 139934.3006250005,
      "d": 756.1181250000081,
      "v": 61
    },
    {
      "midi": 61,
      "hit": false,
      "t": 139938.67124999934,
      "d": 4.370625000010477,
      "v": 82
    },
    {
      "midi": 47,
      "hit": false,
      "t": 140139.7199999991,
      "d": 375.87374999999884,
      "v": 104
    },
    {
      "midi": 54,
      "hit": false,
      "t": 140139.7199999991,
      "d": 375.87374999999884,
      "v": 104
    },
    {
      "midi": 64,
      "hit": false,
      "t": 140139.71999999936,
      "d": 4.370625000010477,
      "v": 82
    },
    {
      "midi": 73,
      "hit": false,
      "t": 140139.71999999983,
      "d": 751.7474999999977,
      "v": 104
    },
    {
      "midi": 30,
      "hit": false,
      "t": 140139.72000000012,
      "d": 572.5518750000047,
      "v": 99
    },
    {
      "midi": 47,
      "hit": false,
      "t": 140139.72000000035,
      "d": 244.75499999997555,
      "v": 63
    },
    {
      "midi": 54,
      "hit": false,
      "t": 140139.72000000035,
      "d": 244.75499999997555,
      "v": 63
    },
    {
      "midi": 82,
      "hit": false,
      "t": 140148.46124999938,
      "d": 30.59437499998603,
      "v": 52
    },
    {
      "midi": 82,
      "hit": false,
      "t": 140349.50999999937,
      "d": 39.335625000006985,
      "v": 82
    },
    {
      "midi": 59,
      "hit": false,
      "t": 140349.51000000033,
      "d": 227.27249999999185,
      "v": 40
    },
    {
      "midi": 62,
      "hit": false,
      "t": 140349.51000000033,
      "d": 847.9012499999953,
      "v": 45
    },
    {
      "midi": 63,
      "hit": false,
      "t": 140358.25124999936,
      "d": 4.370625000010477,
      "v": 82
    },
    {
      "midi": 82,
      "hit": false,
      "t": 140559.29999999938,
      "d": 30.594375000015134,
      "v": 45
    },
    {
      "midi": 60,
      "hit": false,
      "t": 140568.04124999937,
      "d": 4.370625000010477,
      "v": 82
    },
    {
      "midi": 62,
      "hit": false,
      "t": 140568.04124999937,
      "d": 4.370625000010477,
      "v": 95
    },
    {
      "midi": 60,
      "hit": false,
      "t": 140664.1949999994,
      "d": 4.370625000010477,
      "v": 59
    },
    {
      "midi": 47,
      "hit": false,
      "t": 140769.0899999991,
      "d": 187.93687500001397,
      "v": 104
    },
    {
      "midi": 54,
      "hit": false,
      "t": 140769.0899999991,
      "d": 187.93687500001397,
      "v": 104
    },
    {
      "midi": 60,
      "hit": false,
      "t": 140769.0899999994,
      "d": 4.370625000010477,
      "v": 42
    },
    {
      "midi": 64,
      "hit": false,
      "t": 140769.0899999994,
      "d": 4.370625000010477,
      "v": 82
    },
    {
      "midi": 35,
      "hit": false,
      "t": 140769.0900000001,
      "d": 144.2306249999965,
      "v": 94
    },
    {
      "midi": 54,
      "hit": false,
      "t": 140769.09000000032,
      "d": 187.93687500001397,
      "v": 37
    },
    {
      "midi": 47,
      "hit": false,
      "t": 140769.09000000032,
      "d": 201.0487500000163,
      "v": 35
    },
    {
      "midi": 50,
      "hit": false,
      "t": 140769.09000000052,
      "d": 78.67125000001397,
      "v": 47
    },
    {
      "midi": 54,
      "hit": false,
      "t": 140769.09000000052,
      "d": 78.67125000001397,
      "v": 55
    },
    {
      "midi": 82,
      "hit": false,
      "t": 140773.46062499942,
      "d": 30.59437499998603,
      "v": 67
    },
    {
      "midi": 52,
      "hit": false,
      "t": 140978.8799999991,
      "d": 375.87374999999884,
      "v": 104
    },
    {
      "midi": 82,
      "hit": false,
      "t": 140978.87999999942,
      "d": 39.335625000006985,
      "v": 82
    },
    {
      "midi": 62,
      "hit": false,
      "t": 140978.87999999983,
      "d": 2259.6131250000035,
      "v": 104
    },
    {
      "midi": 66,
      "hit": false,
      "t": 140978.87999999983,
      "d": 2259.6131250000035,
      "v": 104
    },
    {
      "midi": 71,
      "hit": false,
      "t": 140978.87999999983,
      "d": 2259.6131250000035,
      "v": 104
    },
    {
      "midi": 28,
      "hit": false,
      "t": 140978.88000000012,
      "d": 506.992499999993,
      "v": 99
    },
    {
      "midi": 47,
      "hit": false,
      "t": 140978.88000000032,
      "d": 83.04187499999534,
      "v": 76
    },
    {
      "midi": 50,
      "hit": false,
      "t": 140978.88000000053,
      "d": 78.67125000001397,
      "v": 47
    },
    {
      "midi": 59,
      "hit": false,
      "t": 140978.88000000053,
      "d": 78.67125000001397,
      "v": 51
    },
    {
      "midi": 40,
      "hit": false,
      "t": 140978.88000000053,
      "d": 196.67812500000582,
      "v": 58
    },
    {
      "midi": 61,
      "hit": false,
      "t": 140987.6212499994,
      "d": 4.370625000010477,
      "v": 62
    },
    {
      "midi": 47,
      "hit": false,
      "t": 141188.67000000033,
      "d": 253.4962499999674,
      "v": 28
    },
    {
      "midi": 82,
      "hit": false,
      "t": 141197.41124999942,
      "d": 30.59437499998603,
      "v": 42
    },
    {
      "midi": 64,
      "hit": false,
      "t": 141302.3062499994,
      "d": 4.370625000010477,
      "v": 37
    },
    {
      "midi": 54,
      "hit": false,
      "t": 141398.4600000003,
      "d": 201.0487499999872,
      "v": 57
    },
    {
      "midi": 59,
      "hit": false,
      "t": 141398.4600000003,
      "d": 476.398125000007,
      "v": 61
    },
    {
      "midi": 59,
      "hit": false,
      "t": 141398.46000000054,
      "d": 922.2018750000279,
      "v": 62
    },
    {
      "midi": 66,
      "hit": false,
      "t": 141402.83062500056,
      "d": 922.2018750000279,
      "v": 62
    },
    {
      "midi": 60,
      "hit": false,
      "t": 141407.20124999943,
      "d": 4.370625000010477,
      "v": 85
    },
    {
      "midi": 62,
      "hit": false,
      "t": 141407.20124999943,
      "d": 4.370625000010477,
      "v": 82
    },
    {
      "midi": 82,
      "hit": false,
      "t": 141407.20124999943,
      "d": 30.594375000015134,
      "v": 47
    },
    {
      "midi": 62,
      "hit": false,
      "t": 141407.2012500003,
      "d": 463.28625000000466,
      "v": 64
    },
    {
      "midi": 54,
      "hit": false,
      "t": 141407.20125000057,
      "d": 922.2018750000279,
      "v": 61
    },
    {
      "midi": 52,
      "hit": false,
      "t": 141608.2499999991,
      "d": 187.93687500001397,
      "v": 104
    },
    {
      "midi": 82,
      "hit": false,
      "t": 141608.24999999945,
      "d": 39.335625000006985,
      "v": 82
    },
    {
      "midi": 40,
      "hit": false,
      "t": 141608.25000000012,
      "d": 78.67125000001397,
      "v": 99
    },
    {
      "midi": 61,
      "hit": false,
      "t": 141616.99124999944,
      "d": 4.370625000010477,
      "v": 70
    },
    {
      "midi": 64,
      "hit": false,
      "t": 141616.99124999944,
      "d": 4.370625000010477,
      "v": 82
    },
    {
      "midi": 52,
      "hit": false,
      "t": 141818.0399999991,
      "d": 375.87374999999884,
      "v": 104
    },
    {
      "midi": 40,
      "hit": false,
      "t": 141818.04000000012,
      "d": 502.62187500001164,
      "v": 99
    },
    {
      "midi": 47,
      "hit": false,
      "t": 141818.0400000003,
      "d": 222.90187500001048,
      "v": 63
    },
    {
      "midi": 82,
      "hit": false,
      "t": 141826.78124999945,
      "d": 30.59437499998603,
      "v": 53
    },
    {
      "midi": 82,
      "hit": false,
      "t": 142027.82999999943,
      "d": 30.59437499998603,
      "v": 39
    },
    {
      "midi": 62,
      "hit": false,
      "t": 142027.8300000003,
      "d": 568.1812500000233,
      "v": 45
    },
    {
      "midi": 64,
      "hit": false,
      "t": 142141.46624999942,
      "d": 4.370625000010477,
      "v": 73
    },
    {
      "midi": 62,
      "hit": false,
      "t": 142241.99062499942,
      "d": 4.370625000010477,
      "v": 88
    },
    {
      "midi": 60,
      "hit": false,
      "t": 142246.36124999943,
      "d": 4.370625000010477,
      "v": 82
    },
    {
      "midi": 82,
      "hit": false,
      "t": 142246.36124999943,
      "d": 39.335625000006985,
      "v": 82
    },
    {
      "midi": 52,
      "hit": false,
      "t": 142447.4099999991,
      "d": 375.87374999999884,
      "v": 104
    },
    {
      "midi": 40,
      "hit": false,
      "t": 142447.41000000015,
      "d": 74.30062500000349,
      "v": 99
    },
    {
      "midi": 54,
      "hit": false,
      "t": 142447.41000000032,
      "d": 83.04187499999534,
      "v": 44
    },
    {
      "midi": 63,
      "hit": false,
      "t": 142451.78062499943,
      "d": 4.370625000010477,
      "v": 82
    },
    {
      "midi": 54,
      "hit": false,
      "t": 142451.7806250006,
      "d": 205.41937499999767,
      "v": 61
    },
    {
      "midi": 66,
      "hit": false,
      "t": 142451.7806250006,
      "d": 205.41937499999767,
      "v": 66
    },
    {
      "midi": 61,
      "hit": false,
      "t": 142456.15124999944,
      "d": 4.370625000010477,
      "v": 62
    },
    {
      "midi": 82,
      "hit": false,
      "t": 142456.15124999944,
      "d": 30.594375000015134,
      "v": 58
    },
    {
      "midi": 59,
      "hit": false,
      "t": 142456.15125000032,
      "d": 227.27250000002095,
      "v": 36
    },
    {
      "midi": 50,
      "hit": false,
      "t": 142456.1512500006,
      "d": 201.0487499999872,
      "v": 46
    },
    {
      "midi": 28,
      "hit": false,
      "t": 142657.20000000016,
      "d": 423.9506249999977,
      "v": 99
    },
    {
      "midi": 54,
      "hit": false,
      "t": 142657.20000000033,
      "d": 56.81812499999069,
      "v": 50
    },
    {
      "midi": 40,
      "hit": false,
      "t": 142657.2000000006,
      "d": 170.45437500000116,
      "v": 58
    },
    {
      "midi": 47,
      "hit": false,
      "t": 142661.57062500034,
      "d": 196.67812499997672,
      "v": 59
    },
    {
      "midi": 52,
      "hit": false,
      "t": 142866.9899999991,
      "d": 187.93687500001397,
      "v": 104
    },
    {
      "midi": 64,
      "hit": false,
      "t": 142871.36062499945,
      "d": 4.370625000010477,
      "v": 55
    },
    {
      "midi": 40,
      "hit": false,
      "t": 142875.7312500006,
      "d": 1315.5581250000396,
      "v": 64
    },
    {
      "midi": 52,
      "hit": false,
      "t": 143076.7799999991,
      "d": 187.93687500001397,
      "v": 104
    },
    {
      "midi": 54,
      "hit": false,
      "t": 143076.78000000032,
      "d": 56.81812499999069,
      "v": 50
    },
    {
      "midi": 62,
      "hit": false,
      "t": 143076.78000000032,
      "d": 209.78999999997905,
      "v": 54
    },
    {
      "midi": 47,
      "hit": false,
      "t": 143076.78000000032,
      "d": 222.90187499998137,
      "v": 64
    },
    {
      "midi": 50,
      "hit": false,
      "t": 143076.78000000058,
      "d": 91.7831250000163,
      "v": 59
    },
    {
      "midi": 59,
      "hit": false,
      "t": 143076.78000000058,
      "d": 91.7831250000163,
      "v": 52
    },
    {
      "midi": 63,
      "hit": false,
      "t": 143081.15062499946,
      "d": 4.370625000010477,
      "v": 86
    },
    {
      "midi": 54,
      "hit": false,
      "t": 143081.1506250006,
      "d": 104.89500000001863,
      "v": 48
    },
    {
      "midi": 66,
      "hit": false,
      "t": 143085.5212500006,
      "d": 74.30062500000349,
      "v": 62
    },
    {
      "midi": 62,
      "hit": false,
      "t": 143181.67499999946,
      "d": 4.370625000010477,
      "v": 72
    },
    {
      "midi": 52,
      "hit": false,
      "t": 143286.5699999991,
      "d": 187.93687500001397,
      "v": 104
    },
    {
      "midi": 28,
      "hit": false,
      "t": 143286.57000000015,
      "d": 91.7831249999872,
      "v": 99
    },
    {
      "midi": 47,
      "hit": false,
      "t": 143286.57000000062,
      "d": 170.45437500000116,
      "v": 68
    },
    {
      "midi": 63,
      "hit": false,
      "t": 143290.94062499946,
      "d": 4.370625000010477,
      "v": 86
    },
    {
      "midi": 52,
      "hit": false,
      "t": 143496.3599999991,
      "d": 375.87374999999884,
      "v": 104
    },
    {
      "midi": 28,
      "hit": false,
      "t": 143496.36000000013,
      "d": 415.2093750000058,
      "v": 99
    },
    {
      "midi": 47,
      "hit": false,
      "t": 143496.3600000003,
      "d": 118.00687499999185,
      "v": 63
    },
    {
      "midi": 50,
      "hit": false,
      "t": 143496.36000000063,
      "d": 170.45437500000116,
      "v": 63
    },
    {
      "midi": 76,
      "hit": false,
      "t": 143706.14999999982,
      "d": 187.93687500001397,
      "v": 104
    },
    {
      "midi": 54,
      "hit": false,
      "t": 143706.15000000063,
      "d": 388.98562500000116,
      "v": 48
    },
    {
      "midi": 59,
      "hit": false,
      "t": 143706.15000000063,
      "d": 388.98562500000116,
      "v": 59
    },
    {
      "midi": 64,
      "hit": false,
      "t": 143710.52062499948,
      "d": 4.370625000010477,
      "v": 92
    },
    {
      "midi": 50,
      "hit": false,
      "t": 143710.52062500064,
      "d": 388.98562500000116,
      "v": 67
    },
    {
      "midi": 66,
      "hit": false,
      "t": 143710.52062500064,
      "d": 388.98562500000116,
      "v": 67
    },
    {
      "midi": 63,
      "hit": false,
      "t": 143915.93999999948,
      "d": 4.370625000010477,
      "v": 86
    },
    {
      "midi": 78,
      "hit": false,
      "t": 143915.93999999983,
      "d": 187.93687500001397,
      "v": 104
    },
    {
      "midi": 80,
      "hit": false,
      "t": 144125.72999999984,
      "d": 187.93687500001397,
      "v": 104
    },
    {
      "midi": 28,
      "hit": false,
      "t": 144125.73000000013,
      "d": 91.7831249999872,
      "v": 99
    },
    {
      "midi": 54,
      "hit": false,
      "t": 144125.73000000027,
      "d": 26.223750000004657,
      "v": 37
    },
    {
      "midi": 47,
      "hit": false,
      "t": 144125.73000000027,
      "d": 201.0487500000163,
      "v": 35
    },
    {
      "midi": 63,
      "hit": false,
      "t": 144130.1006249995,
      "d": 4.370625000010477,
      "v": 92
    },
    {
      "midi": 50,
      "hit": false,
      "t": 144335.51999999912,
      "d": 375.87374999999884,
      "v": 104
    },
    {
      "midi": 57,
      "hit": false,
      "t": 144335.51999999912,
      "d": 375.87374999999884,
      "v": 104
    },
    {
      "midi": 82,
      "hit": false,
      "t": 144335.5199999995,
      "d": 39.335625000006985,
      "v": 82
    },
    {
      "midi": 81,
      "hit": false,
      "t": 144335.51999999984,
      "d": 375.87374999999884,
      "v": 104
    },
    {
      "midi": 38,
      "hit": false,
      "t": 144335.5200000001,
      "d": 506.992499999993,
      "v": 99
    },
    {
      "midi": 62,
      "hit": false,
      "t": 144335.52000000028,
      "d": 218.53125,
      "v": 56
    },
    {
      "midi": 66,
      "hit": false,
      "t": 144335.52000000028,
      "d": 288.461249999993,
      "v": 56
    },
    {
      "midi": 38,
      "hit": false,
      "t": 144335.52000000063,
      "d": 196.67812500000582,
      "v": 58
    },
    {
      "midi": 61,
      "hit": false,
      "t": 144344.2612499995,
      "d": 4.370625000010477,
      "v": 62
    },
    {
      "midi": 57,
      "hit": false,
      "t": 144549.68062500027,
      "d": 375.87374999999884,
      "v": 38
    },
    {
      "midi": 82,
      "hit": false,
      "t": 144554.0512499995,
      "d": 30.59437499998603,
      "v": 42
    },
    {
      "midi": 64,
      "hit": false,
      "t": 144658.94624999948,
      "d": 4.370625000010477,
      "v": 37
    },
    {
      "midi": 57,
      "hit": false,
      "t": 144750.72937500064,
      "d": 616.2581250000221,
      "v": 67
    },
    {
      "midi": 66,
      "hit": false,
      "t": 144750.72937500064,
      "d": 616.2581250000221,
      "v": 67
    },
    {
      "midi": 78,
      "hit": false,
      "t": 144755.09999999983,
      "d": 187.93687500001397,
      "v": 104
    },
    {
      "midi": 50,
      "hit": false,
      "t": 144755.10000000027,
      "d": 236.0137500000128,
      "v": 51
    },
    {
      "midi": 62,
      "hit": false,
      "t": 144755.10000000065,
      "d": 616.2581250000221,
      "v": 66
    },
    {
      "midi": 60,
      "hit": false,
      "t": 144763.8412499995,
      "d": 4.370625000010477,
      "v": 85
    },
    {
      "midi": 62,
      "hit": false,
      "t": 144763.8412499995,
      "d": 4.370625000010477,
      "v": 82
    },
    {
      "midi": 82,
      "hit": false,
      "t": 144763.8412499995,
      "d": 30.594375000015134,
      "v": 47
    },
    {
      "midi": 50,
      "hit": false,
      "t": 144964.8899999991,
      "d": 187.93687500001397,
      "v": 104
    },
    {
      "midi": 57,
      "hit": false,
      "t": 144964.8899999991,
      "d": 187.93687500001397,
      "v": 104
    },
    {
      "midi": 82,
      "hit": false,
      "t": 144964.88999999952,
      "d": 39.335625000006985,
      "v": 82
    },
    {
      "midi": 81,
      "hit": false,
      "t": 144964.88999999984,
      "d": 375.87374999999884,
      "v": 104
    },
    {
      "midi": 38,
      "hit": false,
      "t": 144964.8900000001,
      "d": 78.67125000001397,
      "v": 99
    },
    {
      "midi": 61,
      "hit": false,
      "t": 144973.6312499995,
      "d": 4.370625000010477,
      "v": 70
    },
    {
      "midi": 64,
      "hit": false,
      "t": 144973.6312499995,
      "d": 4.370625000010477,
      "v": 82
    },
    {
      "midi": 50,
      "hit": false,
      "t": 145174.67999999912,
      "d": 375.87374999999884,
      "v": 104
    },
    {
      "midi": 57,
      "hit": false,
      "t": 145174.67999999912,
      "d": 375.87374999999884,
      "v": 104
    },
    {
      "midi": 38,
      "hit": false,
      "t": 145174.6800000001,
      "d": 502.62187500001164,
      "v": 99
    },
    {
      "midi": 62,
      "hit": false,
      "t": 145174.68000000028,
      "d": 275.3493750000198,
      "v": 60
    },
    {
      "midi": 66,
      "hit": false,
      "t": 145174.68000000028,
      "d": 620.6287500000326,
      "v": 59
    },
    {
      "midi": 57,
      "hit": false,
      "t": 145179.0506250003,
      "d": 270.9787500000093,
      "v": 60
    },
    {
      "midi": 82,
      "hit": false,
      "t": 145183.42124999952,
      "d": 30.59437499998603,
      "v": 53
    },
    {
      "midi": 62,
      "hit": false,
      "t": 145380.09937500066,
      "d": 388.98562500000116,
      "v": 67
    },
    {
      "midi": 66,
      "hit": false,
      "t": 145380.09937500066,
      "d": 388.98562500000116,
      "v": 67
    },
    {
      "midi": 82,
      "hit": false,
      "t": 145384.4699999995,
      "d": 30.59437499998603,
      "v": 39
    },
    {
      "midi": 78,
      "hit": false,
      "t": 145384.46999999983,
      "d": 375.87374999999884,
      "v": 104
    },
    {
      "midi": 57,
      "hit": false,
      "t": 145384.47000000067,
      "d": 598.7756249999802,
      "v": 67
    },
    {
      "midi": 64,
      "hit": false,
      "t": 145498.1062499995,
      "d": 4.370625000010477,
      "v": 73
    },
    {
      "midi": 62,
      "hit": false,
      "t": 145598.6306249995,
      "d": 4.370625000010477,
      "v": 88
    },
    {
      "midi": 50,
      "hit": false,
      "t": 145598.6306250003,
      "d": 144.2306249999965,
      "v": 60
    },
    {
      "midi": 60,
      "hit": false,
      "t": 145603.0012499995,
      "d": 4.370625000010477,
      "v": 82
    },
    {
      "midi": 82,
      "hit": false,
      "t": 145603.0012499995,
      "d": 39.335625000006985,
      "v": 82
    },
    {
      "midi": 50,
      "hit": false,
      "t": 145804.04999999912,
      "d": 187.93687500001397,
      "v": 104
    },
    {
      "midi": 57,
      "hit": false,
      "t": 145804.04999999912,
      "d": 187.93687500001397,
      "v": 104
    },
    {
      "midi": 81,
      "hit": false,
      "t": 145804.0499999998,
      "d": 187.93687500001397,
      "v": 104
    },
    {
      "midi": 33,
      "hit": false,
      "t": 145804.05000000013,
      "d": 74.30062500000349,
      "v": 99
    },
    {
      "midi": 62,
      "hit": false,
      "t": 145804.0500000003,
      "d": 297.20250000001397,
      "v": 43
    },
    {
      "midi": 63,
      "hit": false,
      "t": 145808.4206249995,
      "d": 4.370625000010477,
      "v": 82
    },
    {
      "midi": 57,
      "hit": false,
      "t": 145808.42062500032,
      "d": 292.8318750000035,
      "v": 43
    },
    {
      "midi": 61,
      "hit": false,
      "t": 145812.7912499995,
      "d": 4.370625000010477,
      "v": 62
    },
    {
      "midi": 82,
      "hit": false,
      "t": 145812.7912499995,
      "d": 30.594375000015134,
      "v": 58
    },
    {
      "midi": 62,
      "hit": false,
      "t": 146009.46937500066,
      "d": 4.370625000010477,
      "v": 59
    },
    {
      "midi": 66,
      "hit": false,
      "t": 146009.46937500066,
      "d": 4.370625000010477,
      "v": 63
    },
    {
      "midi": 52,
      "hit": false,
      "t": 146013.83999999912,
      "d": 375.87374999999884,
      "v": 104
    },
    {
      "midi": 56,
      "hit": false,
      "t": 146013.83999999912,
      "d": 375.87374999999884,
      "v": 104
    },
    {
      "midi": 83,
      "hit": false,
      "t": 146013.83999999982,
      "d": 751.7474999999977,
      "v": 104
    },
    {
      "midi": 28,
      "hit": false,
      "t": 146013.84000000014,
      "d": 607.5168750000012,
      "v": 99
    },
    {
      "midi": 56,
      "hit": false,
      "t": 146013.84000000032,
      "d": 489.5100000000093,
      "v": 60
    },
    {
      "midi": 56,
      "hit": false,
      "t": 146018.21062500068,
      "d": 196.67812500000582,
      "v": 61
    },
    {
      "midi": 82,
      "hit": false,
      "t": 146022.58124999952,
      "d": 30.59437499998603,
      "v": 34
    },
    {
      "midi": 64,
      "hit": false,
      "t": 146228.00062499952,
      "d": 4.370625000010477,
      "v": 55
    },
    {
      "midi": 82,
      "hit": false,
      "t": 146232.37124999953,
      "d": 30.59437499998603,
      "v": 39
    },
    {
      "midi": 56,
      "hit": false,
      "t": 146429.04937500067,
      "d": 1215.0337500000314,
      "v": 67
    },
    {
      "midi": 64,
      "hit": false,
      "t": 146433.42000000068,
      "d": 1215.0337500000314,
      "v": 67
    },
    {
      "midi": 59,
      "hit": false,
      "t": 146437.7906250003,
      "d": 65.55937500001164,
      "v": 60
    },
    {
      "midi": 64,
      "hit": false,
      "t": 146437.7906250003,
      "d": 218.53125,
      "v": 52
    },
    {
      "midi": 59,
      "hit": false,
      "t": 146437.7906250007,
      "d": 1215.0337500000314,
      "v": 67
    },
    {
      "midi": 60,
      "hit": false,
      "t": 146442.1612499995,
      "d": 4.370625000010477,
      "v": 82
    },
    {
      "midi": 62,
      "hit": false,
      "t": 146442.1612499995,
      "d": 4.370625000010477,
      "v": 82
    },
    {
      "midi": 82,
      "hit": false,
      "t": 146442.1612499995,
      "d": 39.335625000006985,
      "v": 82
    },
    {
      "midi": 52,
      "hit": false,
      "t": 146643.20999999912,
      "d": 187.93687500001397,
      "v": 104
    },
    {
      "midi": 56,
      "hit": false,
      "t": 146643.20999999912,
      "d": 187.93687500001397,
      "v": 104
    },
    {
      "midi": 82,
      "hit": false,
      "t": 146643.20999999953,
      "d": 30.594375000044238,
      "v": 42
    },
    {
      "midi": 35,
      "hit": false,
      "t": 146643.21000000014,
      "d": 131.11874999999418,
      "v": 98
    },
    {
      "midi": 62,
      "hit": false,
      "t": 146647.58062499954,
      "d": 4.370625000010477,
      "v": 68
    },
    {
      "midi": 56,
      "hit": false,
      "t": 146647.58062500032,
      "d": 323.4262499999895,
      "v": 43
    },
    {
      "midi": 61,
      "hit": false,
      "t": 146651.95124999955,
      "d": 4.370625000010477,
      "v": 82
    },
    {
      "midi": 52,
      "hit": false,
      "t": 146852.99999999913,
      "d": 375.87374999999884,
      "v": 104
    },
    {
      "midi": 56,
      "hit": false,
      "t": 146852.99999999913,
      "d": 375.87374999999884,
      "v": 104
    },
    {
      "midi": 64,
      "hit": false,
      "t": 146852.99999999956,
      "d": 4.370625000010477,
      "v": 82
    },
    {
      "midi": 35,
      "hit": false,
      "t": 146853.00000000015,
      "d": 572.5518750000047,
      "v": 99
    },
    {
      "midi": 59,
      "hit": false,
      "t": 146853.00000000032,
      "d": 148.60124999997788,
      "v": 60
    },
    {
      "midi": 68,
      "hit": false,
      "t": 146853.00000000032,
      "d": 148.60124999997788,
      "v": 60
    },
    {
      "midi": 82,
      "hit": false,
      "t": 146861.74124999958,
      "d": 30.59437499998603,
      "v": 52
    },
    {
      "midi": 82,
      "hit": false,
      "t": 147062.78999999957,
      "d": 39.335625000006985,
      "v": 82
    },
    {
      "midi": 76,
      "hit": false,
      "t": 147062.78999999983,
      "d": 187.93687500001397,
      "v": 104
    },
    {
      "midi": 56,
      "hit": false,
      "t": 147062.7900000003,
      "d": 743.0062499999767,
      "v": 49
    },
    {
      "midi": 59,
      "hit": false,
      "t": 147062.7900000003,
      "d": 743.0062499999767,
      "v": 40
    },
    {
      "midi": 64,
      "hit": false,
      "t": 147062.7900000003,
      "d": 795.453749999986,
      "v": 40
    },
    {
      "midi": 63,
      "hit": false,
      "t": 147071.53124999956,
      "d": 4.370625000010477,
      "v": 82
    },
    {
      "midi": 82,
      "hit": false,
      "t": 147272.57999999958,
      "d": 30.594375000015134,
      "v": 45
    },
    {
      "midi": 78,
      "hit": false,
      "t": 147272.57999999984,
      "d": 187.93687500001397,
      "v": 104
    },
    {
      "midi": 60,
      "hit": false,
      "t": 147281.32124999957,
      "d": 4.370625000010477,
      "v": 82
    },
    {
      "midi": 62,
      "hit": false,
      "t": 147281.32124999957,
      "d": 4.370625000010477,
      "v": 95
    },
    {
      "midi": 60,
      "hit": false,
      "t": 147377.4749999996,
      "d": 4.370625000010477,
      "v": 59
    },
    {
      "midi": 52,
      "hit": false,
      "t": 147482.36999999912,
      "d": 187.93687500001397,
      "v": 104
    },
    {
      "midi": 56,
      "hit": false,
      "t": 147482.36999999912,
      "d": 187.93687500001397,
      "v": 104
    },
    {
      "midi": 60,
      "hit": false,
      "t": 147482.36999999962,
      "d": 4.370625000010477,
      "v": 42
    },
    {
      "midi": 64,
      "hit": false,
      "t": 147482.36999999962,
      "d": 4.370625000010477,
      "v": 82
    },
    {
      "midi": 80,
      "hit": false,
      "t": 147482.36999999985,
      "d": 563.8106250000128,
      "v": 104
    },
    {
      "midi": 28,
      "hit": false,
      "t": 147482.37000000014,
      "d": 144.2306249999965,
      "v": 94
    },
    {
      "midi": 82,
      "hit": false,
      "t": 147486.74062499963,
      "d": 30.59437499998603,
      "v": 67
    },
    {
      "midi": 49,
      "hit": false,
      "t": 147692.15999999913,
      "d": 375.87374999999884,
      "v": 104
    },
    {
      "midi": 56,
      "hit": false,
      "t": 147692.15999999913,
      "d": 375.87374999999884,
      "v": 104
    },
    {
      "midi": 82,
      "hit": false,
      "t": 147692.15999999963,
      "d": 39.335625000006985,
      "v": 82
    },
    {
      "midi": 37,
      "hit": false,
      "t": 147692.16000000015,
      "d": 506.992499999993,
      "v": 99
    },
    {
      "midi": 49,
      "hit": false,
      "t": 147692.1600000003,
      "d": 83.04187499999534,
      "v": 76
    },
    {
      "midi": 52,
      "hit": false,
      "t": 147692.16000000073,
      "d": 78.67125000001397,
      "v": 47
    },
    {
      "midi": 61,
      "hit": false,
      "t": 147692.16000000073,
      "d": 78.67125000001397,
      "v": 51
    },
    {
      "midi": 37,
      "hit": false,
      "t": 147692.16000000073,
      "d": 196.67812500000582,
      "v": 58
    },
    {
      "midi": 61,
      "hit": false,
      "t": 147700.90124999962,
      "d": 4.370625000010477,
      "v": 62
    },
    {
      "midi": 49,
      "hit": false,
      "t": 147901.95000000027,
      "d": 253.4962499999965,
      "v": 28
    },
    {
      "midi": 82,
      "hit": false,
      "t": 147910.69124999963,
      "d": 30.59437499998603,
      "v": 42
    },
    {
      "midi": 64,
      "hit": false,
      "t": 148015.58624999961,
      "d": 4.370625000010477,
      "v": 37
    },
    {
      "midi": 76,
      "hit": false,
      "t": 148111.73999999987,
      "d": 187.93687500001397,
      "v": 104
    },
    {
      "midi": 56,
      "hit": false,
      "t": 148111.74000000028,
      "d": 201.0487499999872,
      "v": 57
    },
    {
      "midi": 61,
      "hit": false,
      "t": 148111.74000000028,
      "d": 476.398125000007,
      "v": 61
    },
    {
      "midi": 61,
      "hit": false,
      "t": 148111.74000000075,
      "d": 922.2018750000279,
      "v": 62
    },
    {
      "midi": 68,
      "hit": false,
      "t": 148116.11062500076,
      "d": 922.2018750000279,
      "v": 62
    },
    {
      "midi": 60,
      "hit": false,
      "t": 148120.48124999963,
      "d": 4.370625000010477,
      "v": 85
    },
    {
      "midi": 62,
      "hit": false,
      "t": 148120.48124999963,
      "d": 4.370625000010477,
      "v": 82
    },
    {
      "midi": 82,
      "hit": false,
      "t": 148120.48124999963,
      "d": 30.594375000015134,
      "v": 47
    },
    {
      "midi": 64,
      "hit": false,
      "t": 148120.48125000027,
      "d": 463.28625000000466,
      "v": 64
    },
    {
      "midi": 56,
      "hit": false,
      "t": 148120.48125000077,
      "d": 922.2018750000279,
      "v": 61
    },
    {
      "midi": 49,
      "hit": false,
      "t": 148321.52999999913,
      "d": 187.93687500001397,
      "v": 104
    },
    {
      "midi": 56,
      "hit": false,
      "t": 148321.52999999913,
      "d": 187.93687500001397,
      "v": 104
    },
    {
      "midi": 82,
      "hit": false,
      "t": 148321.52999999965,
      "d": 39.335625000006985,
      "v": 82
    },
    {
      "midi": 80,
      "hit": false,
      "t": 148321.52999999988,
      "d": 375.87374999999884,
      "v": 104
    },
    {
      "midi": 37,
      "hit": false,
      "t": 148321.53000000014,
      "d": 78.67125000001397,
      "v": 99
    },
    {
      "midi": 61,
      "hit": false,
      "t": 148330.27124999964,
      "d": 4.370625000010477,
      "v": 70
    },
    {
      "midi": 64,
      "hit": false,
      "t": 148330.27124999964,
      "d": 4.370625000010477,
      "v": 82
    },
    {
      "midi": 49,
      "hit": false,
      "t": 148531.31999999913,
      "d": 375.87374999999884,
      "v": 104
    },
    {
      "midi": 56,
      "hit": false,
      "t": 148531.31999999913,
      "d": 375.87374999999884,
      "v": 104
    },
    {
      "midi": 37,
      "hit": false,
      "t": 148531.32000000015,
      "d": 502.62187500001164,
      "v": 99
    },
    {
      "midi": 49,
      "hit": false,
      "t": 148531.32000000027,
      "d": 222.90187500001048,
      "v": 63
    },
    {
      "midi": 82,
      "hit": false,
      "t": 148540.06124999965,
      "d": 30.59437499998603,
      "v": 53
    },
    {
      "midi": 82,
      "hit": false,
      "t": 148741.10999999964,
      "d": 30.59437499998603,
      "v": 39
    },
    {
      "midi": 76,
      "hit": false,
      "t": 148741.10999999987,
      "d": 375.87374999999884,
      "v": 104
    },
    {
      "midi": 64,
      "hit": false,
      "t": 148741.11000000028,
      "d": 568.1812500000233,
      "v": 45
    },
    {
      "midi": 64,
      "hit": false,
      "t": 148854.74624999962,
      "d": 4.370625000010477,
      "v": 73
    },
    {
      "midi": 62,
      "hit": false,
      "t": 148955.27062499963,
      "d": 4.370625000010477,
      "v": 88
    },
    {
      "midi": 60,
      "hit": false,
      "t": 148959.64124999964,
      "d": 4.370625000010477,
      "v": 82
    },
    {
      "midi": 82,
      "hit": false,
      "t": 148959.64124999964,
      "d": 39.335625000006985,
      "v": 82
    },
    {
      "midi": 49,
      "hit": false,
      "t": 149160.68999999913,
      "d": 187.93687500001397,
      "v": 104
    },
    {
      "midi": 56,
      "hit": false,
      "t": 149160.68999999913,
      "d": 187.93687500001397,
      "v": 104
    },
    {
      "midi": 80,
      "hit": false,
      "t": 149160.68999999986,
      "d": 187.93687500001397,
      "v": 104
    },
    {
      "midi": 32,
      "hit": false,
      "t": 149160.69000000018,
      "d": 74.30062500000349,
      "v": 99
    },
    {
      "midi": 56,
      "hit": false,
      "t": 149160.6900000003,
      "d": 83.04187499999534,
      "v": 44
    },
    {
      "midi": 63,
      "hit": false,
      "t": 149165.06062499963,
      "d": 4.370625000010477,
      "v": 82
    },
    {
      "midi": 56,
      "hit": false,
      "t": 149165.0606250008,
      "d": 205.41937499999767,
      "v": 61
    },
    {
      "midi": 68,
      "hit": false,
      "t": 149165.0606250008,
      "d": 205.41937499999767,
      "v": 66
    },
    {
      "midi": 61,
      "hit": false,
      "t": 149169.43124999964,
      "d": 4.370625000010477,
      "v": 62
    },
    {
      "midi": 82,
      "hit": false,
      "t": 149169.43124999964,
      "d": 30.594375000015134,
      "v": 58
    },
    {
      "midi": 61,
      "hit": false,
      "t": 149169.43125000029,
      "d": 227.27250000002095,
      "v": 36
    },
    {
      "midi": 52,
      "hit": false,
      "t": 149169.4312500008,
      "d": 201.0487499999872,
      "v": 46
    },
    {
      "midi": 54,
      "hit": false,
      "t": 149370.47999999914,
      "d": 375.87374999999884,
      "v": 104
    },
    {
      "midi": 57,
      "hit": false,
      "t": 149370.47999999914,
      "d": 375.87374999999884,
      "v": 104
    },
    {
      "midi": 81,
      "hit": false,
      "t": 149370.47999999986,
      "d": 1503.4949999999953,
      "v": 104
    },
    {
      "midi": 30,
      "hit": false,
      "t": 149370.48000000019,
      "d": 607.5168750000012,
      "v": 99
    },
    {
      "midi": 82,
      "hit": false,
      "t": 149379.22124999965,
      "d": 30.59437499998603,
      "v": 34
    },
    {
      "midi": 64,
      "hit": false,
      "t": 149584.64062499965,
      "d": 4.370625000010477,
      "v": 55
    },
    {
      "midi": 82,
      "hit": false,
      "t": 149589.01124999966,
      "d": 30.59437499998603,
      "v": 39
    },
    {
      "midi": 66,
      "hit": false,
      "t": 149794.4306250003,
      "d": 218.53125,
      "v": 52
    },
    {
      "midi": 61,
      "hit": false,
      "t": 149794.4306250003,
      "d": 270.9787500000093,
      "v": 60
    },
    {
      "midi": 60,
      "hit": false,
      "t": 149798.80124999964,
      "d": 4.370625000010477,
      "v": 82
    },
    {
      "midi": 62,
      "hit": false,
      "t": 149798.80124999964,
      "d": 4.370625000010477,
      "v": 82
    },
    {
      "midi": 82,
      "hit": false,
      "t": 149798.80124999964,
      "d": 39.335625000006985,
      "v": 82
    },
    {
      "midi": 54,
      "hit": false,
      "t": 149999.84999999913,
      "d": 187.93687500001397,
      "v": 104
    },
    {
      "midi": 57,
      "hit": false,
      "t": 149999.84999999913,
      "d": 187.93687500001397,
      "v": 104
    },
    {
      "midi": 82,
      "hit": false,
      "t": 149999.84999999966,
      "d": 30.594375000044238,
      "v": 42
    },
    {
      "midi": 37,
      "hit": false,
      "t": 149999.85000000018,
      "d": 131.11874999999418,
      "v": 98
    },
    {
      "midi": 62,
      "hit": false,
      "t": 150004.22062499967,
      "d": 4.370625000010477,
      "v": 68
    },
    {
      "midi": 57,
      "hit": false,
      "t": 150004.2206250003,
      "d": 323.4262499999895,
      "v": 43
    },
    {
      "midi": 57,
      "hit": false,
      "t": 150004.2206250008,
      "d": 756.1181250000081,
      "v": 61
    },
    {
      "midi": 61,
      "hit": false,
      "t": 150008.59124999968,
      "d": 4.370625000010477,
      "v": 82
    },
    {
      "midi": 54,
      "hit": false,
      "t": 150209.63999999914,
      "d": 375.87374999999884,
      "v": 104
    },
    {
      "midi": 57,
      "hit": false,
      "t": 150209.63999999914,
      "d": 375.87374999999884,
      "v": 104
    },
    {
      "midi": 64,
      "hit": false,
      "t": 150209.6399999997,
      "d": 4.370625000010477,
      "v": 82
    },
    {
      "midi": 37,
      "hit": false,
      "t": 150209.6400000002,
      "d": 572.5518750000047,
      "v": 99
    },
    {
      "midi": 61,
      "hit": false,
      "t": 150209.6400000003,
      "d": 148.60124999997788,
      "v": 60
    },
    {
      "midi": 69,
      "hit": false,
      "t": 150209.6400000003,
      "d": 148.60124999997788,
      "v": 60
    },
    {
      "midi": 82,
      "hit": false,
      "t": 150218.38124999971,
      "d": 30.59437499998603,
      "v": 52
    },
    {
      "midi": 82,
      "hit": false,
      "t": 150419.4299999997,
      "d": 39.335625000006985,
      "v": 82
    },
    {
      "midi": 57,
      "hit": false,
      "t": 150419.43000000028,
      "d": 743.0062499999767,
      "v": 49
    },
    {
      "midi": 61,
      "hit": false,
      "t": 150419.43000000028,
      "d": 743.0062499999767,
      "v": 40
    },
    {
      "midi": 66,
      "hit": false,
      "t": 150419.43000000028,
      "d": 795.453749999986,
      "v": 40
    },
    {
      "midi": 63,
      "hit": false,
      "t": 150428.1712499997,
      "d": 4.370625000010477,
      "v": 82
    },
    {
      "midi": 82,
      "hit": false,
      "t": 150629.2199999997,
      "d": 30.594375000015134,
      "v": 45
    },
    {
      "midi": 60,
      "hit": false,
      "t": 150637.9612499997,
      "d": 4.370625000010477,
      "v": 82
    },
    {
      "midi": 62,
      "hit": false,
      "t": 150637.9612499997,
      "d": 4.370625000010477,
      "v": 95
    },
    {
      "midi": 60,
      "hit": false,
      "t": 150734.11499999973,
      "d": 4.370625000010477,
      "v": 59
    },
    {
      "midi": 54,
      "hit": false,
      "t": 150839.00999999914,
      "d": 187.93687500001397,
      "v": 104
    },
    {
      "midi": 57,
      "hit": false,
      "t": 150839.00999999914,
      "d": 187.93687500001397,
      "v": 104
    },
    {
      "midi": 60,
      "hit": false,
      "t": 150839.00999999975,
      "d": 4.370625000010477,
      "v": 42
    },
    {
      "midi": 64,
      "hit": false,
      "t": 150839.00999999975,
      "d": 4.370625000010477,
      "v": 82
    },
    {
      "midi": 30,
      "hit": false,
      "t": 150839.01000000018,
      "d": 144.2306249999965,
      "v": 94
    },
    {
      "midi": 49,
      "hit": false,
      "t": 150839.01000000082,
      "d": 78.67125000001397,
      "v": 47
    },
    {
      "midi": 54,
      "hit": false,
      "t": 150839.01000000082,
      "d": 78.67125000001397,
      "v": 55
    },
    {
      "midi": 82,
      "hit": false,
      "t": 150843.38062499976,
      "d": 30.59437499998603,
      "v": 67
    },
    {
      "midi": 47,
      "hit": false,
      "t": 151048.79999999914,
      "d": 375.87374999999884,
      "v": 104
    },
    {
      "midi": 54,
      "hit": false,
      "t": 151048.79999999914,
      "d": 375.87374999999884,
      "v": 104
    },
    {
      "midi": 82,
      "hit": false,
      "t": 151048.79999999976,
      "d": 39.335625000006985,
      "v": 82
    },
    {
      "midi": 35,
      "hit": false,
      "t": 151048.8000000002,
      "d": 506.992499999993,
      "v": 99
    },
    {
      "midi": 47,
      "hit": false,
      "t": 151048.80000000028,
      "d": 83.04187499999534,
      "v": 76
    },
    {
      "midi": 50,
      "hit": false,
      "t": 151048.80000000083,
      "d": 78.67125000001397,
      "v": 47
    },
    {
      "midi": 59,
      "hit": false,
      "t": 151048.80000000083,
      "d": 78.67125000001397,
      "v": 51
    },
    {
      "midi": 47,
      "hit": false,
      "t": 151048.80000000083,
      "d": 196.67812500000582,
      "v": 58
    },
    {
      "midi": 61,
      "hit": false,
      "t": 151057.54124999975,
      "d": 4.370625000010477,
      "v": 62
    },
    {
      "midi": 47,
      "hit": false,
      "t": 151258.59000000026,
      "d": 253.4962499999965,
      "v": 28
    },
    {
      "midi": 82,
      "hit": false,
      "t": 151267.33124999976,
      "d": 30.59437499998603,
      "v": 42
    },
    {
      "midi": 64,
      "hit": false,
      "t": 151372.22624999975,
      "d": 4.370625000010477,
      "v": 37
    },
    {
      "midi": 74,
      "hit": false,
      "t": 151468.37999999986,
      "d": 375.87374999999884,
      "v": 104
    },
    {
      "midi": 54,
      "hit": false,
      "t": 151468.38000000027,
      "d": 201.0487499999872,
      "v": 57
    },
    {
      "midi": 59,
      "hit": false,
      "t": 151468.38000000027,
      "d": 476.398125000007,
      "v": 61
    },
    {
      "midi": 59,
      "hit": false,
      "t": 151468.38000000085,
      "d": 922.2018750000279,
      "v": 62
    },
    {
      "midi": 66,
      "hit": false,
      "t": 151472.75062500086,
      "d": 922.2018750000279,
      "v": 62
    },
    {
      "midi": 60,
      "hit": false,
      "t": 151477.12124999976,
      "d": 4.370625000010477,
      "v": 85
    },
    {
      "midi": 62,
      "hit": false,
      "t": 151477.12124999976,
      "d": 4.370625000010477,
      "v": 82
    },
    {
      "midi": 82,
      "hit": false,
      "t": 151477.12124999976,
      "d": 30.594375000015134,
      "v": 47
    },
    {
      "midi": 62,
      "hit": false,
      "t": 151477.12125000026,
      "d": 463.28625000000466,
      "v": 64
    },
    {
      "midi": 54,
      "hit": false,
      "t": 151477.12125000087,
      "d": 922.2018750000279,
      "v": 61
    },
    {
      "midi": 47,
      "hit": false,
      "t": 151678.16999999914,
      "d": 187.93687500001397,
      "v": 104
    },
    {
      "midi": 54,
      "hit": false,
      "t": 151678.16999999914,
      "d": 187.93687500001397,
      "v": 104
    },
    {
      "midi": 82,
      "hit": false,
      "t": 151678.16999999978,
      "d": 39.335625000006985,
      "v": 82
    },
    {
      "midi": 35,
      "hit": false,
      "t": 151678.1700000002,
      "d": 78.67125000001397,
      "v": 99
    },
    {
      "midi": 61,
      "hit": false,
      "t": 151686.91124999977,
      "d": 4.370625000010477,
      "v": 70
    },
    {
      "midi": 64,
      "hit": false,
      "t": 151686.91124999977,
      "d": 4.370625000010477,
      "v": 82
    },
    {
      "midi": 47,
      "hit": false,
      "t": 151887.95999999915,
      "d": 375.87374999999884,
      "v": 104
    },
    {
      "midi": 54,
      "hit": false,
      "t": 151887.95999999915,
      "d": 375.87374999999884,
      "v": 104
    },
    {
      "midi": 76,
      "hit": false,
      "t": 151887.95999999985,
      "d": 375.87374999999884,
      "v": 104
    },
    {
      "midi": 35,
      "hit": false,
      "t": 151887.9600000002,
      "d": 502.62187500001164,
      "v": 99
    },
    {
      "midi": 47,
      "hit": false,
      "t": 151887.96000000025,
      "d": 222.90187500001048,
      "v": 63
    },
    {
      "midi": 82,
      "hit": false,
      "t": 151896.70124999978,
      "d": 30.59437499998603,
      "v": 53
    },
    {
      "midi": 82,
      "hit": false,
      "t": 152097.74999999977,
      "d": 30.59437499998603,
      "v": 39
    },
    {
      "midi": 62,
      "hit": false,
      "t": 152097.75000000026,
      "d": 568.1812500000233,
      "v": 45
    },
    {
      "midi": 64,
      "hit": false,
      "t": 152211.38624999975,
      "d": 4.370625000010477,
      "v": 73
    },
    {
      "midi": 78,
      "hit": false,
      "t": 152307.53999999983,
      "d": 375.87374999999884,
      "v": 104
    },
    {
      "midi": 62,
      "hit": false,
      "t": 152311.91062499976,
      "d": 4.370625000010477,
      "v": 88
    },
    {
      "midi": 60,
      "hit": false,
      "t": 152316.28124999977,
      "d": 4.370625000010477,
      "v": 82
    },
    {
      "midi": 82,
      "hit": false,
      "t": 152316.28124999977,
      "d": 39.335625000006985,
      "v": 82
    },
    {
      "midi": 47,
      "hit": false,
      "t": 152517.32999999914,
      "d": 187.93687500001397,
      "v": 104
    },
    {
      "midi": 54,
      "hit": false,
      "t": 152517.32999999914,
      "d": 187.93687500001397,
      "v": 104
    },
    {
      "midi": 30,
      "hit": false,
      "t": 152517.33000000022,
      "d": 74.30062500000349,
      "v": 99
    },
    {
      "midi": 54,
      "hit": false,
      "t": 152517.33000000028,
      "d": 83.04187499999534,
      "v": 44
    },
    {
      "midi": 63,
      "hit": false,
      "t": 152521.70062499976,
      "d": 4.370625000010477,
      "v": 82
    },
    {
      "midi": 54,
      "hit": false,
      "t": 152521.7006250009,
      "d": 205.41937499999767,
      "v": 61
    },
    {
      "midi": 66,
      "hit": false,
      "t": 152521.7006250009,
      "d": 205.41937499999767,
      "v": 66
    },
    {
      "midi": 61,
      "hit": false,
      "t": 152526.07124999978,
      "d": 4.370625000010477,
      "v": 62
    },
    {
      "midi": 82,
      "hit": false,
      "t": 152526.07124999978,
      "d": 30.594375000015134,
      "v": 58
    },
    {
      "midi": 59,
      "hit": false,
      "t": 152526.07125000027,
      "d": 227.27250000002095,
      "v": 36
    },
    {
      "midi": 50,
      "hit": false,
      "t": 152526.0712500009,
      "d": 201.0487499999872,
      "v": 46
    },
    {
      "midi": 52,
      "hit": false,
      "t": 152727.11999999915,
      "d": 375.87374999999884,
      "v": 104
    },
    {
      "midi": 56,
      "hit": false,
      "t": 152727.11999999915,
      "d": 375.87374999999884,
      "v": 104
    },
    {
      "midi": 73,
      "hit": false,
      "t": 152727.11999999982,
      "d": 751.7474999999977,
      "v": 104
    },
    {
      "midi": 28,
      "hit": false,
      "t": 152727.12000000023,
      "d": 607.5168750000012,
      "v": 99
    },
    {
      "midi": 56,
      "hit": false,
      "t": 152731.4906250009,
      "d": 196.67812500000582,
      "v": 61
    },
    {
      "midi": 82,
      "hit": false,
      "t": 152735.86124999978,
      "d": 30.59437499998603,
      "v": 34
    },
    {
      "midi": 64,
      "hit": false,
      "t": 152941.28062499978,
      "d": 4.370625000010477,
      "v": 55
    },
    {
      "midi": 82,
      "hit": false,
      "t": 152945.6512499998,
      "d": 30.59437499998603,
      "v": 39
    },
    {
      "midi": 56,
      "hit": false,
      "t": 153142.3293750009,
      "d": 1215.0337500000314,
      "v": 67
    },
    {
      "midi": 64,
      "hit": false,
      "t": 153146.7000000009,
      "d": 1215.0337500000314,
      "v": 67
    },
    {
      "midi": 64,
      "hit": false,
      "t": 153151.07062500028,
      "d": 218.53125,
      "v": 52
    },
    {
      "midi": 59,
      "hit": false,
      "t": 153151.07062500028,
      "d": 270.9787500000093,
      "v": 60
    },
    {
      "midi": 59,
      "hit": false,
      "t": 153151.07062500092,
      "d": 1215.0337500000314,
      "v": 67
    },
    {
      "midi": 60,
      "hit": false,
      "t": 153155.44124999977,
      "d": 4.370625000010477,
      "v": 82
    },
    {
      "midi": 62,
      "hit": false,
      "t": 153155.44124999977,
      "d": 4.370625000010477,
      "v": 82
    },
    {
      "midi": 82,
      "hit": false,
      "t": 153155.44124999977,
      "d": 39.335625000006985,
      "v": 82
    },
    {
      "midi": 52,
      "hit": false,
      "t": 153356.48999999915,
      "d": 187.93687500001397,
      "v": 104
    },
    {
      "midi": 56,
      "hit": false,
      "t": 153356.48999999915,
      "d": 187.93687500001397,
      "v": 104
    },
    {
      "midi": 82,
      "hit": false,
      "t": 153356.4899999998,
      "d": 30.594375000044238,
      "v": 42
    },
    {
      "midi": 35,
      "hit": false,
      "t": 153356.49000000022,
      "d": 131.11874999999418,
      "v": 98
    },
    {
      "midi": 62,
      "hit": false,
      "t": 153360.8606249998,
      "d": 4.370625000010477,
      "v": 68
    },
    {
      "midi": 56,
      "hit": false,
      "t": 153360.8606250003,
      "d": 323.4262499999895,
      "v": 43
    },
    {
      "midi": 61,
      "hit": false,
      "t": 153365.2312499998,
      "d": 4.370625000010477,
      "v": 82
    },
    {
      "midi": 52,
      "hit": false,
      "t": 153566.27999999915,
      "d": 375.87374999999884,
      "v": 104
    },
    {
      "midi": 56,
      "hit": false,
      "t": 153566.27999999915,
      "d": 375.87374999999884,
      "v": 104
    },
    {
      "midi": 71,
      "hit": false,
      "t": 153566.27999999982,
      "d": 751.7474999999977,
      "v": 104
    },
    {
      "midi": 64,
      "hit": false,
      "t": 153566.27999999982,
      "d": 4.370625000010477,
      "v": 82
    },
    {
      "midi": 35,
      "hit": false,
      "t": 153566.28000000023,
      "d": 572.5518750000047,
      "v": 99
    },
    {
      "midi": 59,
      "hit": false,
      "t": 153566.2800000003,
      "d": 148.60124999997788,
      "v": 60
    },
    {
      "midi": 68,
      "hit": false,
      "t": 153566.2800000003,
      "d": 148.60124999997788,
      "v": 60
    },
    {
      "midi": 82,
      "hit": false,
      "t": 153575.02124999985,
      "d": 30.59437499998603,
      "v": 52
    },
    {
      "midi": 82,
      "hit": false,
      "t": 153776.06999999983,
      "d": 39.335625000006985,
      "v": 82
    },
    {
      "midi": 56,
      "hit": false,
      "t": 153776.07000000027,
      "d": 743.0062500000058,
      "v": 49
    },
    {
      "midi": 63,
      "hit": false,
      "t": 153784.81124999982,
      "d": 4.370625000010477,
      "v": 82
    },
    {
      "midi": 82,
      "hit": false,
      "t": 153985.85999999984,
      "d": 30.594375000015134,
      "v": 45
    },
    {
      "midi": 60,
      "hit": false,
      "t": 153994.60124999983,
      "d": 4.370625000010477,
      "v": 82
    },
    {
      "midi": 62,
      "hit": false,
      "t": 153994.60124999983,
      "d": 4.370625000010477,
      "v": 95
    },
    {
      "midi": 60,
      "hit": false,
      "t": 154090.75499999986,
      "d": 4.370625000010477,
      "v": 59
    },
    {
      "midi": 52,
      "hit": false,
      "t": 154195.64999999915,
      "d": 187.93687500001397,
      "v": 104
    },
    {
      "midi": 56,
      "hit": false,
      "t": 154195.64999999915,
      "d": 187.93687500001397,
      "v": 104
    },
    {
      "midi": 60,
      "hit": false,
      "t": 154195.64999999988,
      "d": 4.370625000010477,
      "v": 42
    },
    {
      "midi": 64,
      "hit": false,
      "t": 154195.64999999988,
      "d": 4.370625000010477,
      "v": 82
    },
    {
      "midi": 28,
      "hit": false,
      "t": 154195.65000000023,
      "d": 144.2306249999965,
      "v": 94
    },
    {
      "midi": 82,
      "hit": false,
      "t": 154200.0206249999,
      "d": 30.59437499998603,
      "v": 67
    },
    {
      "midi": 52,
      "hit": false,
      "t": 154405.43999999916,
      "d": 375.87374999999884,
      "v": 104
    },
    {
      "midi": 55,
      "hit": false,
      "t": 154405.43999999916,
      "d": 375.87374999999884,
      "v": 104
    },
    {
      "midi": 76,
      "hit": false,
      "t": 154405.43999999983,
      "d": 1503.4949999999953,
      "v": 104
    },
    {
      "midi": 82,
      "hit": false,
      "t": 154405.4399999999,
      "d": 39.335625000006985,
      "v": 82
    },
    {
      "midi": 28,
      "hit": false,
      "t": 154405.44000000024,
      "d": 506.992499999993,
      "v": 99
    },
    {
      "midi": 59,
      "hit": false,
      "t": 154405.44000000026,
      "d": 113.63625000001048,
      "v": 56
    },
    {
      "midi": 64,
      "hit": false,
      "t": 154405.44000000026,
      "d": 166.0837500000198,
      "v": 56
    },
    {
      "midi": 52,
      "hit": false,
      "t": 154405.44000000096,
      "d": 78.67125000001397,
      "v": 47
    },
    {
      "midi": 59,
      "hit": false,
      "t": 154405.44000000096,
      "d": 78.67125000001397,
      "v": 51
    },
    {
      "midi": 40,
      "hit": false,
      "t": 154405.44000000096,
      "d": 196.67812500000582,
      "v": 58
    },
    {
      "midi": 61,
      "hit": false,
      "t": 154414.18124999988,
      "d": 4.370625000010477,
      "v": 62
    },
    {
      "midi": 55,
      "hit": false,
      "t": 154619.60062500028,
      "d": 375.87374999996973,
      "v": 38
    },
    {
      "midi": 82,
      "hit": false,
      "t": 154623.9712499999,
      "d": 30.59437499998603,
      "v": 42
    },
    {
      "midi": 64,
      "hit": false,
      "t": 154728.86624999988,
      "d": 4.370625000010477,
      "v": 37
    },
    {
      "midi": 47,
      "hit": false,
      "t": 154825.02000000025,
      "d": 236.0137500000128,
      "v": 51
    },
    {
      "midi": 59,
      "hit": false,
      "t": 154825.02000000098,
      "d": 922.2018750000279,
      "v": 62
    },
    {
      "midi": 64,
      "hit": false,
      "t": 154829.390625001,
      "d": 922.2018750000279,
      "v": 62
    },
    {
      "midi": 60,
      "hit": false,
      "t": 154833.7612499999,
      "d": 4.370625000010477,
      "v": 85
    },
    {
      "midi": 62,
      "hit": false,
      "t": 154833.7612499999,
      "d": 4.370625000010477,
      "v": 82
    },
    {
      "midi": 82,
      "hit": false,
      "t": 154833.7612499999,
      "d": 30.594375000015134,
      "v": 47
    },
    {
      "midi": 55,
      "hit": false,
      "t": 154833.761250001,
      "d": 922.2018750000279,
      "v": 61
    },
    {
      "midi": 52,
      "hit": false,
      "t": 155034.80999999915,
      "d": 187.93687500001397,
      "v": 104
    },
    {
      "midi": 55,
      "hit": false,
      "t": 155034.80999999915,
      "d": 187.93687500001397,
      "v": 104
    },
    {
      "midi": 82,
      "hit": false,
      "t": 155034.8099999999,
      "d": 39.335625000006985,
      "v": 82
    },
    {
      "midi": 40,
      "hit": false,
      "t": 155034.81000000023,
      "d": 78.67125000001397,
      "v": 99
    },
    {
      "midi": 61,
      "hit": false,
      "t": 155043.5512499999,
      "d": 4.370625000010477,
      "v": 70
    },
    {
      "midi": 64,
      "hit": false,
      "t": 155043.5512499999,
      "d": 4.370625000010477,
      "v": 82
    },
    {
      "midi": 52,
      "hit": false,
      "t": 155244.59999999916,
      "d": 375.87374999999884,
      "v": 104
    },
    {
      "midi": 55,
      "hit": false,
      "t": 155244.59999999916,
      "d": 375.87374999999884,
      "v": 104
    },
    {
      "midi": 40,
      "hit": false,
      "t": 155244.60000000024,
      "d": 502.62187500001164,
      "v": 99
    },
    {
      "midi": 59,
      "hit": false,
      "t": 155244.60000000027,
      "d": 275.3493750000198,
      "v": 60
    },
    {
      "midi": 64,
      "hit": false,
      "t": 155244.60000000027,
      "d": 620.6287500000326,
      "v": 59
    },
    {
      "midi": 55,
      "hit": false,
      "t": 155248.97062500028,
      "d": 270.9787500000093,
      "v": 60
    },
    {
      "midi": 82,
      "hit": false,
      "t": 155253.3412499999,
      "d": 30.59437499998603,
      "v": 53
    },
    {
      "midi": 82,
      "hit": false,
      "t": 155454.3899999999,
      "d": 30.59437499998603,
      "v": 39
    },
    {
      "midi": 64,
      "hit": false,
      "t": 155568.02624999988,
      "d": 4.370625000010477,
      "v": 73
    },
    {
      "midi": 62,
      "hit": false,
      "t": 155668.5506249999,
      "d": 4.370625000010477,
      "v": 88
    },
    {
      "midi": 47,
      "hit": false,
      "t": 155668.5506250003,
      "d": 144.2306249999965,
      "v": 60
    },
    {
      "midi": 60,
      "hit": false,
      "t": 155672.9212499999,
      "d": 4.370625000010477,
      "v": 82
    },
    {
      "midi": 82,
      "hit": false,
      "t": 155672.9212499999,
      "d": 39.335625000006985,
      "v": 82
    },
    {
      "midi": 52,
      "hit": false,
      "t": 155873.96999999916,
      "d": 187.93687500001397,
      "v": 104
    },
    {
      "midi": 55,
      "hit": false,
      "t": 155873.96999999916,
      "d": 187.93687500001397,
      "v": 104
    },
    {
      "midi": 35,
      "hit": false,
      "t": 155873.97000000026,
      "d": 74.30062500000349,
      "v": 99
    },
    {
      "midi": 59,
      "hit": false,
      "t": 155873.9700000003,
      "d": 297.20250000001397,
      "v": 43
    },
    {
      "midi": 63,
      "hit": false,
      "t": 155878.3406249999,
      "d": 4.370625000010477,
      "v": 82
    },
    {
      "midi": 55,
      "hit": false,
      "t": 155878.34062500103,
      "d": 205.41937499999767,
      "v": 61
    },
    {
      "midi": 64,
      "hit": false,
      "t": 155878.34062500103,
      "d": 205.41937499999767,
      "v": 66
    },
    {
      "midi": 61,
      "hit": false,
      "t": 155882.7112499999,
      "d": 4.370625000010477,
      "v": 62
    },
    {
      "midi": 82,
      "hit": false,
      "t": 155882.7112499999,
      "d": 30.594375000015134,
      "v": 58
    },
    {
      "midi": 52,
      "hit": false,
      "t": 155882.71125000104,
      "d": 201.0487499999872,
      "v": 46
    },
    {
      "midi": 55,
      "hit": false,
      "t": 156083.75999999917,
      "d": 375.87374999999884,
      "v": 104
    },
    {
      "midi": 57,
      "hit": false,
      "t": 156083.75999999917,
      "d": 375.87374999999884,
      "v": 104
    },
    {
      "midi": 61,
      "hit": false,
      "t": 156083.75999999917,
      "d": 375.87374999999884,
      "v": 104
    },
    {
      "midi": 33,
      "hit": false,
      "t": 156083.76000000027,
      "d": 423.9506249999977,
      "v": 99
    },
    {
      "midi": 55,
      "hit": false,
      "t": 156083.7600000003,
      "d": 87.41250000000582,
      "v": 50
    },
    {
      "midi": 45,
      "hit": false,
      "t": 156083.76000000103,
      "d": 170.45437500000116,
      "v": 58
    },
    {
      "midi": 52,
      "hit": false,
      "t": 156088.1306250003,
      "d": 196.67812500000582,
      "v": 59
    },
    {
      "midi": 64,
      "hit": false,
      "t": 156297.9206249999,
      "d": 4.370625000010477,
      "v": 55
    },
    {
      "midi": 45,
      "hit": false,
      "t": 156302.29125000103,
      "d": 1315.5581250000396,
      "v": 64
    },
    {
      "midi": 55,
      "hit": false,
      "t": 156503.34000000032,
      "d": 56.81812499999069,
      "v": 50
    },
    {
      "midi": 64,
      "hit": false,
      "t": 156503.34000000032,
      "d": 209.78999999997905,
      "v": 54
    },
    {
      "midi": 52,
      "hit": false,
      "t": 156503.34000000032,
      "d": 222.90187499998137,
      "v": 64
    },
    {
      "midi": 52,
      "hit": false,
      "t": 156503.34000000102,
      "d": 91.7831250000163,
      "v": 59
    },
    {
      "midi": 61,
      "hit": false,
      "t": 156503.34000000102,
      "d": 91.7831250000163,
      "v": 52
    },
    {
      "midi": 63,
      "hit": false,
      "t": 156507.71062499992,
      "d": 4.370625000010477,
      "v": 86
    },
    {
      "midi": 55,
      "hit": false,
      "t": 156507.71062500103,
      "d": 104.89500000001863,
      "v": 48
    },
    {
      "midi": 64,
      "hit": false,
      "t": 156512.08125000104,
      "d": 74.30062500000349,
      "v": 62
    },
    {
      "midi": 62,
      "hit": false,
      "t": 156608.23499999993,
      "d": 4.370625000010477,
      "v": 72
    },
    {
      "midi": 55,
      "hit": false,
      "t": 156713.12999999916,
      "d": 187.93687500001397,
      "v": 104
    },
    {
      "midi": 57,
      "hit": false,
      "t": 156713.12999999916,
      "d": 187.93687500001397,
      "v": 104
    },
    {
      "midi": 61,
      "hit": false,
      "t": 156713.12999999916,
      "d": 187.93687500001397,
      "v": 104
    },
    {
      "midi": 33,
      "hit": false,
      "t": 156713.13000000027,
      "d": 91.7831249999872,
      "v": 99
    },
    {
      "midi": 49,
      "hit": false,
      "t": 156713.13000000105,
      "d": 170.45437500000116,
      "v": 68
    },
    {
      "midi": 63,
      "hit": false,
      "t": 156717.50062499993,
      "d": 4.370625000010477,
      "v": 86
    },
    {
      "midi": 55,
      "hit": false,
      "t": 156922.91999999917,
      "d": 375.87374999999884,
      "v": 104
    },
    {
      "midi": 57,
      "hit": false,
      "t": 156922.91999999917,
      "d": 375.87374999999884,
      "v": 104
    },
    {
      "midi": 61,
      "hit": false,
      "t": 156922.91999999917,
      "d": 375.87374999999884,
      "v": 104
    },
    {
      "midi": 33,
      "hit": false,
      "t": 156922.92000000025,
      "d": 415.2093750000058,
      "v": 99
    },
    {
      "midi": 52,
      "hit": false,
      "t": 156922.9200000003,
      "d": 118.00687499999185,
      "v": 63
    },
    {
      "midi": 52,
      "hit": false,
      "t": 156922.92000000106,
      "d": 170.45437500000116,
      "v": 63
    },
    {
      "midi": 76,
      "hit": false,
      "t": 157132.70999999982,
      "d": 187.93687500001397,
      "v": 104
    },
    {
      "midi": 64,
      "hit": false,
      "t": 157132.71000000028,
      "d": 847.9012499999953,
      "v": 45
    },
    {
      "midi": 55,
      "hit": false,
      "t": 157132.71000000107,
      "d": 388.98562500000116,
      "v": 48
    },
    {
      "midi": 61,
      "hit": false,
      "t": 157132.71000000107,
      "d": 388.98562500000116,
      "v": 59
    },
    {
      "midi": 64,
      "hit": false,
      "t": 157137.08062499994,
      "d": 4.370625000010477,
      "v": 92
    },
    {
      "midi": 52,
      "hit": false,
      "t": 157137.08062500108,
      "d": 388.98562500000116,
      "v": 67
    },
    {
      "midi": 64,
      "hit": false,
      "t": 157137.08062500108,
      "d": 388.98562500000116,
      "v": 67
    },
    {
      "midi": 78,
      "hit": false,
      "t": 157342.49999999983,
      "d": 187.93687500001397,
      "v": 104
    },
    {
      "midi": 63,
      "hit": false,
      "t": 157342.49999999994,
      "d": 4.370625000010477,
      "v": 86
    },
    {
      "midi": 55,
      "hit": false,
      "t": 157552.28999999916,
      "d": 187.93687500001397,
      "v": 104
    },
    {
      "midi": 57,
      "hit": false,
      "t": 157552.28999999916,
      "d": 187.93687500001397,
      "v": 104
    },
    {
      "midi": 61,
      "hit": false,
      "t": 157552.28999999916,
      "d": 187.93687500001397,
      "v": 104
    },
    {
      "midi": 80,
      "hit": false,
      "t": 157552.28999999983,
      "d": 187.93687500001397,
      "v": 104
    },
    {
      "midi": 33,
      "hit": false,
      "t": 157552.29000000024,
      "d": 91.7831249999872,
      "v": 99
    },
    {
      "midi": 55,
      "hit": false,
      "t": 157552.29000000027,
      "d": 26.223750000004657,
      "v": 37
    },
    {
      "midi": 52,
      "hit": false,
      "t": 157552.29000000027,
      "d": 201.0487500000163,
      "v": 35
    },
    {
      "midi": 63,
      "hit": false,
      "t": 157556.66062499996,
      "d": 4.370625000010477,
      "v": 92
    },
    {
      "midi": 50,
      "hit": false,
      "t": 157762.07999999917,
      "d": 375.87374999999884,
      "v": 104
    },
    {
      "midi": 57,
      "hit": false,
      "t": 157762.07999999917,
      "d": 375.87374999999884,
      "v": 104
    },
    {
      "midi": 81,
      "hit": false,
      "t": 157762.07999999984,
      "d": 375.87374999999884,
      "v": 104
    },
    {
      "midi": 82,
      "hit": false,
      "t": 157762.07999999996,
      "d": 39.335625000006985,
      "v": 82
    },
    {
      "midi": 38,
      "hit": false,
      "t": 157762.08000000022,
      "d": 506.992499999993,
      "v": 99
    },
    {
      "midi": 62,
      "hit": false,
      "t": 157762.08000000028,
      "d": 244.75500000000466,
      "v": 56
    },
    {
      "midi": 66,
      "hit": false,
      "t": 157762.08000000028,
      "d": 288.461249999993,
      "v": 56
    },
    {
      "midi": 38,
      "hit": false,
      "t": 157762.08000000106,
      "d": 196.67812500000582,
      "v": 58
    },
    {
      "midi": 61,
      "hit": false,
      "t": 157770.82124999995,
      "d": 4.370625000010477,
      "v": 62
    },
    {
      "midi": 57,
      "hit": false,
      "t": 157976.24062500027,
      "d": 375.87374999999884,
      "v": 38
    },
    {
      "midi": 82,
      "hit": false,
      "t": 157980.61124999996,
      "d": 30.59437499998603,
      "v": 42
    },
    {
      "midi": 64,
      "hit": false,
      "t": 158085.50624999995,
      "d": 4.370625000010477,
      "v": 37
    },
    {
      "midi": 57,
      "hit": false,
      "t": 158177.28937500107,
      "d": 616.2581250000221,
      "v": 67
    },
    {
      "midi": 66,
      "hit": false,
      "t": 158177.28937500107,
      "d": 616.2581250000221,
      "v": 67
    },
    {
      "midi": 78,
      "hit": false,
      "t": 158181.65999999983,
      "d": 187.93687500001397,
      "v": 104
    },
    {
      "midi": 50,
      "hit": false,
      "t": 158181.66000000027,
      "d": 236.0137500000128,
      "v": 51
    },
    {
      "midi": 62,
      "hit": false,
      "t": 158181.66000000108,
      "d": 616.2581250000221,
      "v": 66
    },
    {
      "midi": 60,
      "hit": false,
      "t": 158190.40124999997,
      "d": 4.370625000010477,
      "v": 85
    },
    {
      "midi": 62,
      "hit": false,
      "t": 158190.40124999997,
      "d": 4.370625000010477,
      "v": 82
    },
    {
      "midi": 82,
      "hit": false,
      "t": 158190.40124999997,
      "d": 30.594375000015134,
      "v": 47
    },
    {
      "midi": 50,
      "hit": false,
      "t": 158391.44999999917,
      "d": 187.93687500001397,
      "v": 104
    },
    {
      "midi": 57,
      "hit": false,
      "t": 158391.44999999917,
      "d": 187.93687500001397,
      "v": 104
    },
    {
      "midi": 81,
      "hit": false,
      "t": 158391.44999999984,
      "d": 375.87374999999884,
      "v": 104
    },
    {
      "midi": 82,
      "hit": false,
      "t": 158391.44999999998,
      "d": 39.335625000006985,
      "v": 82
    },
    {
      "midi": 38,
      "hit": false,
      "t": 158391.45000000022,
      "d": 78.67125000001397,
      "v": 99
    },
    {
      "midi": 61,
      "hit": false,
      "t": 158400.19124999997,
      "d": 4.370625000010477,
      "v": 70
    },
    {
      "midi": 64,
      "hit": false,
      "t": 158400.19124999997,
      "d": 4.370625000010477,
      "v": 82
    },
    {
      "midi": 50,
      "hit": false,
      "t": 158601.23999999918,
      "d": 375.87374999999884,
      "v": 104
    },
    {
      "midi": 57,
      "hit": false,
      "t": 158601.23999999918,
      "d": 375.87374999999884,
      "v": 104
    },
    {
      "midi": 38,
      "hit": false,
      "t": 158601.24000000022,
      "d": 502.62187500001164,
      "v": 99
    },
    {
      "midi": 62,
      "hit": false,
      "t": 158601.24000000028,
      "d": 275.3493750000198,
      "v": 60
    },
    {
      "midi": 66,
      "hit": false,
      "t": 158601.24000000028,
      "d": 620.6287500000326,
      "v": 59
    },
    {
      "midi": 57,
      "hit": false,
      "t": 158605.6106250003,
      "d": 270.9787500000093,
      "v": 60
    },
    {
      "midi": 82,
      "hit": false,
      "t": 158609.98124999998,
      "d": 30.59437499998603,
      "v": 53
    },
    {
      "midi": 62,
      "hit": false,
      "t": 158806.6593750011,
      "d": 388.98562500000116,
      "v": 67
    },
    {
      "midi": 66,
      "hit": false,
      "t": 158806.6593750011,
      "d": 388.98562500000116,
      "v": 67
    },
    {
      "midi": 78,
      "hit": false,
      "t": 158811.02999999982,
      "d": 375.87374999999884,
      "v": 104
    },
    {
      "midi": 82,
      "hit": false,
      "t": 158811.02999999997,
      "d": 30.59437499998603,
      "v": 39
    },
    {
      "midi": 57,
      "hit": false,
      "t": 158811.0300000011,
      "d": 598.7756249999802,
      "v": 67
    },
    {
      "midi": 64,
      "hit": false,
      "t": 158924.66624999995,
      "d": 4.370625000010477,
      "v": 73
    },
    {
      "midi": 62,
      "hit": false,
      "t": 159025.19062499996,
      "d": 4.370625000010477,
      "v": 88
    },
    {
      "midi": 50,
      "hit": false,
      "t": 159025.1906250003,
      "d": 144.2306249999965,
      "v": 60
    },
    {
      "midi": 60,
      "hit": false,
      "t": 159029.56124999997,
      "d": 4.370625000010477,
      "v": 82
    },
    {
      "midi": 82,
      "hit": false,
      "t": 159029.56124999997,
      "d": 39.335625000006985,
      "v": 82
    },
    {
      "midi": 50,
      "hit": false,
      "t": 159230.60999999917,
      "d": 187.93687500001397,
      "v": 104
    },
    {
      "midi": 57,
      "hit": false,
      "t": 159230.60999999917,
      "d": 187.93687500001397,
      "v": 104
    },
    {
      "midi": 81,
      "hit": false,
      "t": 159230.6099999998,
      "d": 187.93687500001397,
      "v": 104
    },
    {
      "midi": 33,
      "hit": false,
      "t": 159230.61000000025,
      "d": 74.30062500000349,
      "v": 99
    },
    {
      "midi": 62,
      "hit": false,
      "t": 159230.6100000003,
      "d": 297.20250000001397,
      "v": 43
    },
    {
      "midi": 63,
      "hit": false,
      "t": 159234.98062499997,
      "d": 4.370625000010477,
      "v": 82
    },
    {
      "midi": 57,
      "hit": false,
      "t": 159234.98062500032,
      "d": 292.8318750000035,
      "v": 43
    },
    {
      "midi": 61,
      "hit": false,
      "t": 159239.35124999998,
      "d": 4.370625000010477,
      "v": 62
    },
    {
      "midi": 82,
      "hit": false,
      "t": 159239.35124999998,
      "d": 30.594375000015134,
      "v": 58
    },
    {
      "midi": 62,
      "hit": false,
      "t": 159436.0293750011,
      "d": 4.370625000010477,
      "v": 59
    },
    {
      "midi": 66,
      "hit": false,
      "t": 159436.0293750011,
      "d": 4.370625000010477,
      "v": 63
    },
    {
      "midi": 52,
      "hit": false,
      "t": 159440.39999999918,
      "d": 375.87374999999884,
      "v": 104
    },
    {
      "midi": 56,
      "hit": false,
      "t": 159440.39999999918,
      "d": 375.87374999999884,
      "v": 104
    },
    {
      "midi": 83,
      "hit": false,
      "t": 159440.39999999982,
      "d": 751.7474999999977,
      "v": 104
    },
    {
      "midi": 28,
      "hit": false,
      "t": 159440.40000000026,
      "d": 607.5168750000012,
      "v": 99
    },
    {
      "midi": 56,
      "hit": false,
      "t": 159440.4000000003,
      "d": 489.5100000000093,
      "v": 60
    },
    {
      "midi": 56,
      "hit": false,
      "t": 159444.7706250011,
      "d": 196.67812500000582,
      "v": 61
    },
    {
      "midi": 82,
      "hit": false,
      "t": 159449.14125,
      "d": 30.59437499998603,
      "v": 34
    },
    {
      "midi": 64,
      "hit": false,
      "t": 159654.56062499998,
      "d": 4.370625000010477,
      "v": 55
    },
    {
      "midi": 82,
      "hit": false,
      "t": 159658.93125,
      "d": 30.59437499998603,
      "v": 39
    },
    {
      "midi": 56,
      "hit": false,
      "t": 159855.6093750011,
      "d": 1053.3206250000221,
      "v": 67
    },
    {
      "midi": 64,
      "hit": false,
      "t": 159859.98000000112,
      "d": 1048.9500000000116,
      "v": 67
    },
    {
      "midi": 59,
      "hit": false,
      "t": 159864.3506250003,
      "d": 65.55937500001164,
      "v": 60
    },
    {
      "midi": 64,
      "hit": false,
      "t": 159864.3506250003,
      "d": 218.53125,
      "v": 52
    },
    {
      "midi": 59,
      "hit": false,
      "t": 159864.35062500113,
      "d": 1044.5793750000012,
      "v": 67
    },
    {
      "midi": 60,
      "hit": false,
      "t": 159868.72124999997,
      "d": 4.370625000010477,
      "v": 82
    },
    {
      "midi": 62,
      "hit": false,
      "t": 159868.72124999997,
      "d": 4.370625000010477,
      "v": 82
    },
    {
      "midi": 82,
      "hit": false,
      "t": 159868.72124999997,
      "d": 39.335625000006985,
      "v": 82
    },
    {
      "midi": 52,
      "hit": false,
      "t": 160069.76999999917,
      "d": 187.93687500001397,
      "v": 104
    },
    {
      "midi": 56,
      "hit": false,
      "t": 160069.76999999917,
      "d": 187.93687500001397,
      "v": 104
    },
    {
      "midi": 82,
      "hit": false,
      "t": 160069.77,
      "d": 30.594375000044238,
      "v": 42
    },
    {
      "midi": 35,
      "hit": false,
      "t": 160069.77000000025,
      "d": 131.11874999999418,
      "v": 98
    },
    {
      "midi": 62,
      "hit": false,
      "t": 160074.140625,
      "d": 4.370625000010477,
      "v": 68
    },
    {
      "midi": 56,
      "hit": false,
      "t": 160074.14062500032,
      "d": 323.4262499999895,
      "v": 43
    },
    {
      "midi": 61,
      "hit": false,
      "t": 160078.51125,
      "d": 4.370625000010477,
      "v": 82
    },
    {
      "midi": 52,
      "hit": false,
      "t": 160279.55999999918,
      "d": 375.87374999999884,
      "v": 104
    },
    {
      "midi": 56,
      "hit": false,
      "t": 160279.55999999918,
      "d": 375.87374999999884,
      "v": 104
    },
    {
      "midi": 64,
      "hit": false,
      "t": 160279.56000000003,
      "d": 4.370625000010477,
      "v": 82
    },
    {
      "midi": 35,
      "hit": false,
      "t": 160279.56000000026,
      "d": 572.5518750000047,
      "v": 99
    },
    {
      "midi": 59,
      "hit": false,
      "t": 160279.56000000032,
      "d": 148.60124999997788,
      "v": 60
    },
    {
      "midi": 68,
      "hit": false,
      "t": 160279.56000000032,
      "d": 148.60124999997788,
      "v": 60
    },
    {
      "midi": 82,
      "hit": false,
      "t": 160288.30125000005,
      "d": 30.59437499998603,
      "v": 52
    },
    {
      "midi": 76,
      "hit": false,
      "t": 160489.34999999983,
      "d": 187.93687500001397,
      "v": 104
    },
    {
      "midi": 82,
      "hit": false,
      "t": 160489.35000000003,
      "d": 39.335625000006985,
      "v": 82
    },
    {
      "midi": 59,
      "hit": false,
      "t": 160489.3500000003,
      "d": 603.1462499999616,
      "v": 40
    },
    {
      "midi": 63,
      "hit": false,
      "t": 160498.09125000003,
      "d": 4.370625000010477,
      "v": 82
    },
    {
      "midi": 78,
      "hit": false,
      "t": 160699.13999999984,
      "d": 187.93687500001397,
      "v": 104
    },
    {
      "midi": 82,
      "hit": false,
      "t": 160699.14000000004,
      "d": 30.594375000015134,
      "v": 45
    },
    {
      "midi": 60,
      "hit": false,
      "t": 160707.88125000003,
      "d": 4.370625000010477,
      "v": 82
    },
    {
      "midi": 62,
      "hit": false,
      "t": 160707.88125000003,
      "d": 4.370625000010477,
      "v": 95
    },
    {
      "midi": 60,
      "hit": false,
      "t": 160804.03500000006,
      "d": 4.370625000010477,
      "v": 59
    },
    {
      "midi": 52,
      "hit": false,
      "t": 160908.92999999918,
      "d": 187.93687500001397,
      "v": 104
    },
    {
      "midi": 56,
      "hit": false,
      "t": 160908.92999999918,
      "d": 187.93687500001397,
      "v": 104
    },
    {
      "midi": 80,
      "hit": false,
      "t": 160908.92999999985,
      "d": 563.8106250000128,
      "v": 104
    },
    {
      "midi": 60,
      "hit": false,
      "t": 160908.93000000008,
      "d": 4.370625000010477,
      "v": 42
    },
    {
      "midi": 64,
      "hit": false,
      "t": 160908.93000000008,
      "d": 4.370625000010477,
      "v": 82
    },
    {
      "midi": 37,
      "hit": false,
      "t": 160908.93000000025,
      "d": 144.2306249999965,
      "v": 94
    },
    {
      "midi": 56,
      "hit": false,
      "t": 160908.93000000028,
      "d": 139.85999999998603,
      "v": 37
    },
    {
      "midi": 61,
      "hit": false,
      "t": 160908.93000000028,
      "d": 139.85999999998603,
      "v": 40
    },
    {
      "midi": 64,
      "hit": false,
      "t": 160908.93000000028,
      "d": 183.5662499999744,
      "v": 40
    },
    {
      "midi": 49,
      "hit": false,
      "t": 160908.93000000028,
      "d": 201.0487499999872,
      "v": 35
    },
    {
      "midi": 52,
      "hit": false,
      "t": 160908.93000000113,
      "d": 78.67125000001397,
      "v": 47
    },
    {
      "midi": 56,
      "hit": false,
      "t": 160908.93000000113,
      "d": 78.67125000001397,
      "v": 55
    },
    {
      "midi": 82,
      "hit": false,
      "t": 160913.3006250001,
      "d": 30.59437499998603,
      "v": 67
    },
    {
      "midi": 49,
      "hit": false,
      "t": 161118.7199999992,
      "d": 375.87374999999884,
      "v": 104
    },
    {
      "midi": 56,
      "hit": false,
      "t": 161118.7199999992,
      "d": 375.87374999999884,
      "v": 104
    },
    {
      "midi": 82,
      "hit": false,
      "t": 161118.7200000001,
      "d": 39.335625000006985,
      "v": 82
    },
    {
      "midi": 37,
      "hit": false,
      "t": 161118.72000000026,
      "d": 506.992499999993,
      "v": 99
    },
    {
      "midi": 49,
      "hit": false,
      "t": 161118.72000000026,
      "d": 83.04187499999534,
      "v": 76
    },
    {
      "midi": 52,
      "hit": false,
      "t": 161118.72000000114,
      "d": 78.67125000001397,
      "v": 47
    },
    {
      "midi": 61,
      "hit": false,
      "t": 161118.72000000114,
      "d": 78.67125000001397,
      "v": 51
    },
    {
      "midi": 37,
      "hit": false,
      "t": 161118.72000000114,
      "d": 196.67812500000582,
      "v": 58
    },
    {
      "midi": 61,
      "hit": false,
      "t": 161127.46125000008,
      "d": 4.370625000010477,
      "v": 62
    },
    {
      "midi": 49,
      "hit": false,
      "t": 161328.51000000027,
      "d": 253.4962499999965,
      "v": 28
    },
    {
      "midi": 82,
      "hit": false,
      "t": 161337.2512500001,
      "d": 30.59437499998603,
      "v": 42
    },
    {
      "midi": 64,
      "hit": false,
      "t": 161442.14625000008,
      "d": 4.370625000010477,
      "v": 37
    },
    {
      "midi": 76,
      "hit": false,
      "t": 161538.29999999987,
      "d": 187.93687500001397,
      "v": 104
    },
    {
      "midi": 56,
      "hit": false,
      "t": 161538.30000000028,
      "d": 201.0487499999872,
      "v": 57
    },
    {
      "midi": 61,
      "hit": false,
      "t": 161538.30000000028,
      "d": 476.398125000007,
      "v": 61
    },
    {
      "midi": 61,
      "hit": false,
      "t": 161538.30000000115,
      "d": 922.2018750000279,
      "v": 62
    },
    {
      "midi": 68,
      "hit": false,
      "t": 161542.67062500116,
      "d": 922.2018750000279,
      "v": 62
    },
    {
      "midi": 60,
      "hit": false,
      "t": 161547.0412500001,
      "d": 4.370625000010477,
      "v": 85
    },
    {
      "midi": 62,
      "hit": false,
      "t": 161547.0412500001,
      "d": 4.370625000010477,
      "v": 82
    },
    {
      "midi": 82,
      "hit": false,
      "t": 161547.0412500001,
      "d": 30.594375000015134,
      "v": 47
    },
    {
      "midi": 64,
      "hit": false,
      "t": 161547.04125000027,
      "d": 463.28625000000466,
      "v": 64
    },
    {
      "midi": 56,
      "hit": false,
      "t": 161547.04125000117,
      "d": 922.2018750000279,
      "v": 61
    },
    {
      "midi": 49,
      "hit": false,
      "t": 161748.08999999918,
      "d": 187.93687500001397,
      "v": 104
    },
    {
      "midi": 56,
      "hit": false,
      "t": 161748.08999999918,
      "d": 187.93687500001397,
      "v": 104
    },
    {
      "midi": 80,
      "hit": false,
      "t": 161748.08999999988,
      "d": 375.87374999999884,
      "v": 104
    },
    {
      "midi": 82,
      "hit": false,
      "t": 161748.0900000001,
      "d": 39.335625000006985,
      "v": 82
    },
    {
      "midi": 37,
      "hit": false,
      "t": 161748.09000000026,
      "d": 78.67125000001397,
      "v": 99
    },
    {
      "midi": 61,
      "hit": false,
      "t": 161756.8312500001,
      "d": 4.370625000010477,
      "v": 70
    },
    {
      "midi": 64,
      "hit": false,
      "t": 161756.8312500001,
      "d": 4.370625000010477,
      "v": 82
    },
    {
      "midi": 49,
      "hit": false,
      "t": 161957.8799999992,
      "d": 375.87374999999884,
      "v": 104
    },
    {
      "midi": 56,
      "hit": false,
      "t": 161957.8799999992,
      "d": 375.87374999999884,
      "v": 104
    },
    {
      "midi": 37,
      "hit": false,
      "t": 161957.88000000027,
      "d": 502.62187500001164,
      "v": 99
    },
    {
      "midi": 49,
      "hit": false,
      "t": 161957.88000000027,
      "d": 222.90187500001048,
      "v": 63
    },
    {
      "midi": 56,
      "hit": false,
      "t": 161957.88000000027,
      "d": 712.4118750000489,
      "v": 54
    },
    {
      "midi": 82,
      "hit": false,
      "t": 161966.6212500001,
      "d": 30.59437499998603,
      "v": 53
    },
    {
      "midi": 76,
      "hit": false,
      "t": 162167.66999999987,
      "d": 375.87374999999884,
      "v": 104
    },
    {
      "midi": 82,
      "hit": false,
      "t": 162167.6700000001,
      "d": 30.59437499998603,
      "v": 39
    },
    {
      "midi": 64,
      "hit": false,
      "t": 162167.67000000027,
      "d": 568.1812500000524,
      "v": 45
    },
    {
      "midi": 64,
      "hit": false,
      "t": 162281.30625000008,
      "d": 4.370625000010477,
      "v": 73
    },
    {
      "midi": 62,
      "hit": false,
      "t": 162381.8306250001,
      "d": 4.370625000010477,
      "v": 88
    },
    {
      "midi": 60,
      "hit": false,
      "t": 162386.2012500001,
      "d": 4.370625000010477,
      "v": 82
    },
    {
      "midi": 82,
      "hit": false,
      "t": 162386.2012500001,
      "d": 39.335625000006985,
      "v": 82
    },
    {
      "midi": 49,
      "hit": false,
      "t": 162587.24999999919,
      "d": 187.93687500001397,
      "v": 104
    },
    {
      "midi": 56,
      "hit": false,
      "t": 162587.24999999919,
      "d": 187.93687500001397,
      "v": 104
    },
    {
      "midi": 83,
      "hit": false,
      "t": 162587.24999999985,
      "d": 563.8106250000128,
      "v": 104
    },
    {
      "midi": 37,
      "hit": false,
      "t": 162587.2500000003,
      "d": 74.30062500000349,
      "v": 99
    },
    {
      "midi": 63,
      "hit": false,
      "t": 162591.6206250001,
      "d": 4.370625000010477,
      "v": 82
    },
    {
      "midi": 54,
      "hit": false,
      "t": 162591.6206250012,
      "d": 205.41937499999767,
      "v": 61
    },
    {
      "midi": 66,
      "hit": false,
      "t": 162591.6206250012,
      "d": 205.41937499999767,
      "v": 66
    },
    {
      "midi": 61,
      "hit": false,
      "t": 162595.9912500001,
      "d": 4.370625000010477,
      "v": 62
    },
    {
      "midi": 82,
      "hit": false,
      "t": 162595.9912500001,
      "d": 30.594375000015134,
      "v": 58
    },
    {
      "midi": 49,
      "hit": false,
      "t": 162595.9912500012,
      "d": 201.0487499999872,
      "v": 46
    },
    {
      "midi": 54,
      "hit": false,
      "t": 162797.0399999992,
      "d": 375.87374999999884,
      "v": 104
    },
    {
      "midi": 57,
      "hit": false,
      "t": 162797.0399999992,
      "d": 375.87374999999884,
      "v": 104
    },
    {
      "midi": 30,
      "hit": false,
      "t": 162797.0400000003,
      "d": 187.93687500001397,
      "v": 99
    },
    {
      "midi": 57,
      "hit": false,
      "t": 162797.04000000033,
      "d": 87.41250000000582,
      "v": 56
    },
    {
      "midi": 61,
      "hit": false,
      "t": 162797.04000000033,
      "d": 87.41250000000582,
      "v": 56
    },
    {
      "midi": 66,
      "hit": false,
      "t": 162797.04000000033,
      "d": 161.7131249999802,
      "v": 56
    },
    {
      "midi": 42,
      "hit": false,
      "t": 162797.0400000012,
      "d": 196.67812500000582,
      "v": 58
    },
    {
      "midi": 62,
      "hit": false,
      "t": 162805.78125000012,
      "d": 4.370625000010477,
      "v": 62
    },
    {
      "midi": 82,
      "hit": false,
      "t": 163011.2006250001,
      "d": 30.59437499998603,
      "v": 81
    },
    {
      "midi": 81,
      "hit": false,
      "t": 163216.61999999988,
      "d": 187.93687500001397,
      "v": 104
    },
    {
      "midi": 61,
      "hit": false,
      "t": 163216.6200000001,
      "d": 4.370625000010477,
      "v": 85
    },
    {
      "midi": 30,
      "hit": false,
      "t": 163216.62000000032,
      "d": 808.5656249999884,
      "v": 98
    },
    {
      "midi": 66,
      "hit": false,
      "t": 163216.62000000032,
      "d": 1127.6212499999965,
      "v": 59
    },
    {
      "midi": 61,
      "hit": false,
      "t": 163216.62000000032,
      "d": 1158.2156249999825,
      "v": 60
    },
    {
      "midi": 63,
      "hit": false,
      "t": 163220.99062500012,
      "d": 4.370625000010477,
      "v": 86
    },
    {
      "midi": 82,
      "hit": false,
      "t": 163220.99062500012,
      "d": 30.594375000015134,
      "v": 82
    },
    {
      "midi": 57,
      "hit": false,
      "t": 163220.99062500033,
      "d": 1153.844999999972,
      "v": 60
    },
    {
      "midi": 54,
      "hit": false,
      "t": 163225.3612500012,
      "d": 607.5168750000012,
      "v": 57
    },
    {
      "midi": 57,
      "hit": false,
      "t": 163225.3612500012,
      "d": 607.5168750000012,
      "v": 57
    },
    {
      "midi": 66,
      "hit": false,
      "t": 163229.73187500122,
      "d": 607.5168750000012,
      "v": 57
    },
    {
      "midi": 54,
      "hit": false,
      "t": 163426.4099999992,
      "d": 187.93687500001397,
      "v": 104
    },
    {
      "midi": 57,
      "hit": false,
      "t": 163426.4099999992,
      "d": 187.93687500001397,
      "v": 104
    },
    {
      "midi": 80,
      "hit": false,
      "t": 163426.4099999999,
      "d": 375.87374999999884,
      "v": 104
    },
    {
      "midi": 54,
      "hit": false,
      "t": 163636.1999999992,
      "d": 375.87374999999884,
      "v": 104
    },
    {
      "midi": 57,
      "hit": false,
      "t": 163636.1999999992,
      "d": 375.87374999999884,
      "v": 104
    },
    {
      "midi": 81,
      "hit": false,
      "t": 163845.98999999987,
      "d": 375.87374999999884,
      "v": 104
    },
    {
      "midi": 62,
      "hit": false,
      "t": 163850.36062500015,
      "d": 4.370625000010477,
      "v": 99
    },
    {
      "midi": 61,
      "hit": false,
      "t": 164055.78000000014,
      "d": 4.370625000010477,
      "v": 85
    },
    {
      "midi": 37,
      "hit": false,
      "t": 164055.7800000003,
      "d": 209.79000000000815,
      "v": 99
    },
    {
      "midi": 66,
      "hit": false,
      "t": 164060.15062500123,
      "d": 69.93000000002212,
      "v": 66
    },
    {
      "midi": 64,
      "hit": false,
      "t": 164064.52125000017,
      "d": 4.370625000010477,
      "v": 86
    },
    {
      "midi": 49,
      "hit": false,
      "t": 164064.52125000124,
      "d": 52.44750000000931,
      "v": 66
    },
    {
      "midi": 57,
      "hit": false,
      "t": 164064.52125000124,
      "d": 61.188750000001164,
      "v": 66
    },
    {
      "midi": 54,
      "hit": false,
      "t": 164265.5699999992,
      "d": 187.93687500001397,
      "v": 104
    },
    {
      "midi": 57,
      "hit": false,
      "t": 164265.5699999992,
      "d": 187.93687500001397,
      "v": 104
    },
    {
      "midi": 76,
      "hit": false,
      "t": 164265.56999999986,
      "d": 939.6843750000116,
      "v": 104
    },
    {
      "midi": 64,
      "hit": false,
      "t": 164265.57000000018,
      "d": 4.370625000010477,
      "v": 65
    },
    {
      "midi": 30,
      "hit": false,
      "t": 164265.5700000003,
      "d": 179.19562499999302,
      "v": 99
    },
    {
      "midi": 47,
      "hit": false,
      "t": 164475.3599999992,
      "d": 375.87374999999884,
      "v": 104
    },
    {
      "midi": 50,
      "hit": false,
      "t": 164475.3599999992,
      "d": 375.87374999999884,
      "v": 104
    },
    {
      "midi": 54,
      "hit": false,
      "t": 164475.3599999992,
      "d": 375.87374999999884,
      "v": 104
    },
    {
      "midi": 35,
      "hit": false,
      "t": 164475.36000000028,
      "d": 423.9506249999977,
      "v": 99
    },
    {
      "midi": 47,
      "hit": false,
      "t": 164475.36000000127,
      "d": 170.45437500000116,
      "v": 58
    },
    {
      "midi": 47,
      "hit": false,
      "t": 164479.73062500032,
      "d": 196.67812500000582,
      "v": 59
    },
    {
      "midi": 64,
      "hit": false,
      "t": 164689.52062500018,
      "d": 4.370625000010477,
      "v": 55
    },
    {
      "midi": 54,
      "hit": false,
      "t": 164894.94000000032,
      "d": 56.81812499999069,
      "v": 50
    },
    {
      "midi": 62,
      "hit": false,
      "t": 164894.94000000032,
      "d": 209.78999999997905,
      "v": 54
    },
    {
      "midi": 47,
      "hit": false,
      "t": 164894.94000000032,
      "d": 222.90187499998137,
      "v": 64
    },
    {
      "midi": 50,
      "hit": false,
      "t": 164894.94000000125,
      "d": 91.7831250000163,
      "v": 59
    },
    {
      "midi": 59,
      "hit": false,
      "t": 164894.94000000125,
      "d": 91.7831250000163,
      "v": 52
    },
    {
      "midi": 63,
      "hit": false,
      "t": 164899.3106250002,
      "d": 4.370625000010477,
      "v": 86
    },
    {
      "midi": 54,
      "hit": false,
      "t": 164899.31062500126,
      "d": 104.89500000001863,
      "v": 48
    },
    {
      "midi": 66,
      "hit": false,
      "t": 164903.68125000127,
      "d": 74.30062500000349,
      "v": 62
    },
    {
      "midi": 62,
      "hit": false,
      "t": 164999.8350000002,
      "d": 4.370625000010477,
      "v": 72
    },
    {
      "midi": 47,
      "hit": false,
      "t": 165104.7299999992,
      "d": 187.93687500001397,
      "v": 104
    },
    {
      "midi": 50,
      "hit": false,
      "t": 165104.7299999992,
      "d": 187.93687500001397,
      "v": 104
    },
    {
      "midi": 54,
      "hit": false,
      "t": 165104.7299999992,
      "d": 187.93687500001397,
      "v": 104
    },
    {
      "midi": 35,
      "hit": false,
      "t": 165104.73000000027,
      "d": 91.7831249999872,
      "v": 99
    },
    {
      "midi": 47,
      "hit": false,
      "t": 165104.7300000013,
      "d": 170.45437500000116,
      "v": 68
    },
    {
      "midi": 63,
      "hit": false,
      "t": 165109.1006250002,
      "d": 4.370625000010477,
      "v": 86
    },
    {
      "midi": 47,
      "hit": false,
      "t": 165314.5199999992,
      "d": 375.87374999999884,
      "v": 104
    },
    {
      "midi": 50,
      "hit": false,
      "t": 165314.5199999992,
      "d": 375.87374999999884,
      "v": 104
    },
    {
      "midi": 54,
      "hit": false,
      "t": 165314.5199999992,
      "d": 375.87374999999884,
      "v": 104
    },
    {
      "midi": 35,
      "hit": false,
      "t": 165314.52000000025,
      "d": 415.2093750000058,
      "v": 99
    },
    {
      "midi": 47,
      "hit": false,
      "t": 165314.5200000003,
      "d": 118.00687499999185,
      "v": 63
    },
    {
      "midi": 50,
      "hit": false,
      "t": 165314.5200000013,
      "d": 170.45437500000116,
      "v": 63
    },
    {
      "midi": 62,
      "hit": false,
      "t": 165524.3100000003,
      "d": 847.9012499999953,
      "v": 45
    },
    {
      "midi": 54,
      "hit": false,
      "t": 165524.3100000013,
      "d": 388.98562500000116,
      "v": 48
    },
    {
      "midi": 59,
      "hit": false,
      "t": 165524.3100000013,
      "d": 388.98562500000116,
      "v": 59
    },
    {
      "midi": 64,
      "hit": false,
      "t": 165528.6806250002,
      "d": 4.370625000010477,
      "v": 92
    },
    {
      "midi": 50,
      "hit": false,
      "t": 165528.68062500132,
      "d": 388.98562500000116,
      "v": 67
    },
    {
      "midi": 66,
      "hit": false,
      "t": 165528.68062500132,
      "d": 388.98562500000116,
      "v": 67
    },
    {
      "midi": 63,
      "hit": false,
      "t": 165734.1000000002,
      "d": 4.370625000010477,
      "v": 86
    },
    {
      "midi": 47,
      "hit": false,
      "t": 165943.8899999992,
      "d": 187.93687500001397,
      "v": 104
    },
    {
      "midi": 50,
      "hit": false,
      "t": 165943.8899999992,
      "d": 187.93687500001397,
      "v": 104
    },
    {
      "midi": 54,
      "hit": false,
      "t": 165943.8899999992,
      "d": 187.93687500001397,
      "v": 104
    },
    {
      "midi": 76,
      "hit": false,
      "t": 165943.88999999987,
      "d": 187.93687500001397,
      "v": 104
    },
    {
      "midi": 35,
      "hit": false,
      "t": 165943.89000000025,
      "d": 91.7831249999872,
      "v": 99
    },
    {
      "midi": 54,
      "hit": false,
      "t": 165943.89000000028,
      "d": 26.223750000004657,
      "v": 37
    },
    {
      "midi": 47,
      "hit": false,
      "t": 165943.89000000028,
      "d": 201.0487500000163,
      "v": 35
    },
    {
      "midi": 63,
      "hit": false,
      "t": 165948.26062500023,
      "d": 4.370625000010477,
      "v": 92
    },
    {
      "midi": 52,
      "hit": false,
      "t": 166153.6799999992,
      "d": 375.87374999999884,
      "v": 104
    },
    {
      "midi": 59,
      "hit": false,
      "t": 166153.6799999992,
      "d": 375.87374999999884,
      "v": 104
    },
    {
      "midi": 62,
      "hit": false,
      "t": 166153.6799999992,
      "d": 375.87374999999884,
      "v": 104
    },
    {
      "midi": 81,
      "hit": false,
      "t": 166153.67999999988,
      "d": 375.87374999999884,
      "v": 104
    },
    {
      "midi": 28,
      "hit": false,
      "t": 166153.68000000023,
      "d": 423.9506249999977,
      "v": 99
    },
    {
      "midi": 40,
      "hit": false,
      "t": 166153.6800000013,
      "d": 196.67812500000582,
      "v": 58
    },
    {
      "midi": 47,
      "hit": false,
      "t": 166158.0506250003,
      "d": 196.67812500000582,
      "v": 59
    },
    {
      "midi": 64,
      "hit": false,
      "t": 166367.84062500022,
      "d": 4.370625000010477,
      "v": 55
    },
    {
      "midi": 40,
      "hit": false,
      "t": 166372.2112500013,
      "d": 1459.788750000036,
      "v": 64
    },
    {
      "midi": 80,
      "hit": false,
      "t": 166573.25999999986,
      "d": 187.93687500001397,
      "v": 104
    },
    {
      "midi": 47,
      "hit": false,
      "t": 166573.26000000027,
      "d": 222.90187500001048,
      "v": 64
    },
    {
      "midi": 62,
      "hit": false,
      "t": 166573.26000000027,
      "d": 384.6150000000198,
      "v": 54
    },
    {
      "midi": 50,
      "hit": false,
      "t": 166573.2600000013,
      "d": 91.7831250000163,
      "v": 67
    },
    {
      "midi": 59,
      "hit": false,
      "t": 166573.2600000013,
      "d": 91.7831250000163,
      "v": 67
    },
    {
      "midi": 63,
      "hit": false,
      "t": 166577.63062500022,
      "d": 4.370625000010477,
      "v": 86
    },
    {
      "midi": 54,
      "hit": false,
      "t": 166577.6306250013,
      "d": 104.89500000001863,
      "v": 66
    },
    {
      "midi": 66,
      "hit": false,
      "t": 166582.0012500013,
      "d": 74.30062500000349,
      "v": 67
    },
    {
      "midi": 52,
      "hit": false,
      "t": 166783.0499999992,
      "d": 187.93687500001397,
      "v": 104
    },
    {
      "midi": 59,
      "hit": false,
      "t": 166783.0499999992,
      "d": 187.93687500001397,
      "v": 104
    },
    {
      "midi": 62,
      "hit": false,
      "t": 166783.0499999992,
      "d": 187.93687500001397,
      "v": 104
    },
    {
      "midi": 78,
      "hit": false,
      "t": 166783.04999999987,
      "d": 375.87374999999884,
      "v": 104
    },
    {
      "midi": 28,
      "hit": false,
      "t": 166783.05000000022,
      "d": 91.7831249999872,
      "v": 99
    },
    {
      "midi": 54,
      "hit": false,
      "t": 166783.05000000028,
      "d": 148.60125000000698,
      "v": 35
    },
    {
      "midi": 52,
      "hit": false,
      "t": 166992.8399999992,
      "d": 375.87374999999884,
      "v": 104
    },
    {
      "midi": 59,
      "hit": false,
      "t": 166992.8399999992,
      "d": 375.87374999999884,
      "v": 104
    },
    {
      "midi": 62,
      "hit": false,
      "t": 166992.8399999992,
      "d": 375.87374999999884,
      "v": 104
    },
    {
      "midi": 28,
      "hit": false,
      "t": 166992.8400000002,
      "d": 415.2093750000058,
      "v": 99
    },
    {
      "midi": 80,
      "hit": false,
      "t": 167202.62999999986,
      "d": 375.87374999999884,
      "v": 104
    },
    {
      "midi": 62,
      "hit": false,
      "t": 167202.6300000003,
      "d": 26.223750000004657,
      "v": 45
    },
    {
      "midi": 54,
      "hit": false,
      "t": 167202.6300000003,
      "d": 83.04187499999534,
      "v": 40
    },
    {
      "midi": 47,
      "hit": false,
      "t": 167202.6300000003,
      "d": 139.85999999998603,
      "v": 45
    },
    {
      "midi": 54,
      "hit": false,
      "t": 167202.6300000013,
      "d": 388.98562500000116,
      "v": 67
    },
    {
      "midi": 59,
      "hit": false,
      "t": 167202.6300000013,
      "d": 388.98562500000116,
      "v": 67
    },
    {
      "midi": 62,
      "hit": false,
      "t": 167207.00062500025,
      "d": 4.370625000010477,
      "v": 92
    },
    {
      "midi": 50,
      "hit": false,
      "t": 167207.00062500132,
      "d": 388.98562500000116,
      "v": 67
    },
    {
      "midi": 66,
      "hit": false,
      "t": 167207.00062500132,
      "d": 388.98562500000116,
      "v": 67
    },
    {
      "midi": 64,
      "hit": false,
      "t": 167412.42000000025,
      "d": 4.370625000010477,
      "v": 86
    },
    {
      "midi": 52,
      "hit": false,
      "t": 167622.2099999992,
      "d": 187.93687500001397,
      "v": 104
    },
    {
      "midi": 59,
      "hit": false,
      "t": 167622.2099999992,
      "d": 187.93687500001397,
      "v": 104
    },
    {
      "midi": 62,
      "hit": false,
      "t": 167622.2099999992,
      "d": 187.93687500001397,
      "v": 104
    },
    {
      "midi": 78,
      "hit": false,
      "t": 167622.20999999985,
      "d": 3203.6681249999965,
      "v": 104
    },
    {
      "midi": 81,
      "hit": false,
      "t": 167622.20999999985,
      "d": 3203.6681249999965,
      "v": 104
    },
    {
      "midi": 28,
      "hit": false,
      "t": 167622.2100000002,
      "d": 91.7831249999872,
      "v": 99
    },
    {
      "midi": 54,
      "hit": false,
      "t": 167622.21000000028,
      "d": 187.93687500001397,
      "v": 37
    },
    {
      "midi": 47,
      "hit": false,
      "t": 167622.21000000028,
      "d": 201.0487500000163,
      "v": 35
    },
    {
      "midi": 50,
      "hit": false,
      "t": 167622.21000000133,
      "d": 170.45437500000116,
      "v": 63
    },
    {
      "midi": 64,
      "hit": false,
      "t": 167626.58062500026,
      "d": 4.370625000010477,
      "v": 92
    },
    {
      "midi": 51,
      "hit": false,
      "t": 167831.9999999992,
      "d": 375.87374999999884,
      "v": 104
    },
    {
      "midi": 61,
      "hit": false,
      "t": 167831.9999999992,
      "d": 375.87374999999884,
      "v": 104
    },
    {
      "midi": 39,
      "hit": false,
      "t": 167832.00000000017,
      "d": 419.5799999999872,
      "v": 99
    },
    {
      "midi": 51,
      "hit": false,
      "t": 167832.0000000003,
      "d": 83.04187499999534,
      "v": 61
    },
    {
      "midi": 54,
      "hit": false,
      "t": 167832.0000000003,
      "d": 83.04187499999534,
      "v": 61
    },
    {
      "midi": 61,
      "hit": false,
      "t": 167832.0000000003,
      "d": 96.15374999999767,
      "v": 61
    },
    {
      "midi": 57,
      "hit": false,
      "t": 167832.00000000134,
      "d": 104.89499999998952,
      "v": 57
    },
    {
      "midi": 39,
      "hit": false,
      "t": 167832.00000000134,
      "d": 1534.0893750000105,
      "v": 64
    },
    {
      "midi": 51,
      "hit": false,
      "t": 167840.74125000133,
      "d": 74.30062500000349,
      "v": 59
    },
    {
      "midi": 54,
      "hit": false,
      "t": 168247.20937500132,
      "d": 616.2581250000221,
      "v": 67
    },
    {
      "midi": 61,
      "hit": false,
      "t": 168247.20937500132,
      "d": 616.2581250000221,
      "v": 67
    },
    {
      "midi": 54,
      "hit": false,
      "t": 168251.5800000003,
      "d": 201.0487500000163,
      "v": 57
    },
    {
      "midi": 57,
      "hit": false,
      "t": 168251.58000000133,
      "d": 616.2581250000221,
      "v": 66
    },
    {
      "midi": 63,
      "hit": false,
      "t": 168255.9506250003,
      "d": 4.370625000010477,
      "v": 86
    },
    {
      "midi": 61,
      "hit": false,
      "t": 168260.3212500003,
      "d": 78.67125000001397,
      "v": 64
    },
    {
      "midi": 51,
      "hit": false,
      "t": 168260.32125000132,
      "d": 598.7756250000093,
      "v": 67
    },
    {
      "midi": 51,
      "hit": false,
      "t": 168456.99937500033,
      "d": 139.85999999998603,
      "v": 23
    },
    {
      "midi": 51,
      "hit": false,
      "t": 168461.3699999992,
      "d": 187.93687500001397,
      "v": 104
    },
    {
      "midi": 61,
      "hit": false,
      "t": 168461.3699999992,
      "d": 187.93687500001397,
      "v": 104
    },
    {
      "midi": 39,
      "hit": false,
      "t": 168461.37000000017,
      "d": 100.52437500000815,
      "v": 95
    },
    {
      "midi": 63,
      "hit": false,
      "t": 168465.7406250003,
      "d": 4.370625000010477,
      "v": 42
    },
    {
      "midi": 51,
      "hit": false,
      "t": 168671.15999999922,
      "d": 375.87374999999884,
      "v": 104
    },
    {
      "midi": 61,
      "hit": false,
      "t": 168671.15999999922,
      "d": 375.87374999999884,
      "v": 104
    },
    {
      "midi": 39,
      "hit": false,
      "t": 168671.16000000018,
      "d": 472.0274999999965,
      "v": 92
    },
    {
      "midi": 54,
      "hit": false,
      "t": 168671.16000000032,
      "d": 209.79000000000815,
      "v": 54
    },
    {
      "midi": 57,
      "hit": false,
      "t": 168876.57937500134,
      "d": 388.98562500000116,
      "v": 67
    },
    {
      "midi": 61,
      "hit": false,
      "t": 168876.57937500134,
      "d": 388.98562500000116,
      "v": 67
    },
    {
      "midi": 62,
      "hit": false,
      "t": 168880.9500000003,
      "d": 4.370625000010477,
      "v": 95
    },
    {
      "midi": 61,
      "hit": false,
      "t": 168880.95000000033,
      "d": 4.370625000010477,
      "v": 45
    },
    {
      "midi": 51,
      "hit": false,
      "t": 168880.95000000033,
      "d": 174.82500000001164,
      "v": 45
    },
    {
      "midi": 54,
      "hit": false,
      "t": 168880.95000000033,
      "d": 218.53125,
      "v": 41
    },
    {
      "midi": 51,
      "hit": false,
      "t": 168880.95000000135,
      "d": 388.98562500000116,
      "v": 67
    },
    {
      "midi": 54,
      "hit": false,
      "t": 168880.95000000135,
      "d": 388.98562500000116,
      "v": 67
    },
    {
      "midi": 64,
      "hit": false,
      "t": 169090.7400000003,
      "d": 4.370625000010477,
      "v": 47
    },
    {
      "midi": 54,
      "hit": false,
      "t": 169296.15937500136,
      "d": 170.45437500000116,
      "v": 55
    },
    {
      "midi": 51,
      "hit": false,
      "t": 169300.5299999992,
      "d": 187.93687500001397,
      "v": 104
    },
    {
      "midi": 61,
      "hit": false,
      "t": 169300.5299999992,
      "d": 187.93687500001397,
      "v": 104
    },
    {
      "midi": 39,
      "hit": false,
      "t": 169300.53000000017,
      "d": 100.52437500000815,
      "v": 99
    },
    {
      "midi": 54,
      "hit": false,
      "t": 169300.53000000032,
      "d": 113.63624999998137,
      "v": 44
    },
    {
      "midi": 51,
      "hit": false,
      "t": 169300.53000000032,
      "d": 288.461249999993,
      "v": 41
    },
    {
      "midi": 64,
      "hit": false,
      "t": 169304.90062500033,
      "d": 4.370625000010477,
      "v": 96
    },
    {
      "midi": 61,
      "hit": false,
      "t": 169309.2712500003,
      "d": 113.63624999998137,
      "v": 36
    },
    {
      "midi": 51,
      "hit": false,
      "t": 169505.94937500136,
      "d": 4.370625000010477,
      "v": 59
    },
    {
      "midi": 57,
      "hit": false,
      "t": 169505.94937500136,
      "d": 4.370625000010477,
      "v": 50
    },
    {
      "midi": 61,
      "hit": false,
      "t": 169505.94937500136,
      "d": 4.370625000010477,
      "v": 63
    },
    {
      "midi": 50,
      "hit": false,
      "t": 169510.31999999922,
      "d": 375.87374999999884,
      "v": 104
    },
    {
      "midi": 61,
      "hit": false,
      "t": 169510.31999999922,
      "d": 375.87374999999884,
      "v": 104
    },
    {
      "midi": 38,
      "hit": false,
      "t": 169510.32000000018,
      "d": 423.9506249999977,
      "v": 99
    },
    {
      "midi": 38,
      "hit": false,
      "t": 169510.32000000137,
      "d": 196.67812500000582,
      "v": 58
    },
    {
      "midi": 50,
      "hit": false,
      "t": 169514.6906250003,
      "d": 568.1812499999942,
      "v": 62
    },
    {
      "midi": 66,
      "hit": false,
      "t": 169519.06125000032,
      "d": 122.37750000000233,
      "v": 46
    },
    {
      "midi": 61,
      "hit": false,
      "t": 169519.06125000032,
      "d": 201.0487500000163,
      "v": 57
    },
    {
      "midi": 64,
      "hit": false,
      "t": 169724.48062500032,
      "d": 4.370625000010477,
      "v": 55
    },
    {
      "midi": 61,
      "hit": false,
      "t": 169728.85125000033,
      "d": 104.89499999998952,
      "v": 24
    },
    {
      "midi": 38,
      "hit": false,
      "t": 169728.85125000137,
      "d": 1459.788750000036,
      "v": 64
    },
    {
      "midi": 61,
      "hit": false,
      "t": 169929.9000000003,
      "d": 244.75499999997555,
      "v": 56
    },
    {
      "midi": 66,
      "hit": false,
      "t": 169929.9000000003,
      "d": 288.4612499999639,
      "v": 56
    },
    {
      "midi": 49,
      "hit": false,
      "t": 169929.90000000136,
      "d": 91.7831250000163,
      "v": 67
    },
    {
      "midi": 57,
      "hit": false,
      "t": 169929.90000000136,
      "d": 91.7831250000163,
      "v": 67
    },
    {
      "midi": 63,
      "hit": false,
      "t": 169934.27062500032,
      "d": 4.370625000010477,
      "v": 86
    },
    {
      "midi": 54,
      "hit": false,
      "t": 169934.27062500137,
      "d": 104.89500000001863,
      "v": 66
    },
    {
      "midi": 69,
      "hit": false,
      "t": 169938.64125000138,
      "d": 74.30062500000349,
      "v": 67
    },
    {
      "midi": 50,
      "hit": false,
      "t": 170139.68999999922,
      "d": 187.93687500001397,
      "v": 104
    },
    {
      "midi": 61,
      "hit": false,
      "t": 170139.68999999922,
      "d": 187.93687500001397,
      "v": 104
    },
    {
      "midi": 38,
      "hit": false,
      "t": 170139.69000000018,
      "d": 91.7831249999872,
      "v": 99
    },
    {
      "midi": 57,
      "hit": false,
      "t": 170144.0606250003,
      "d": 375.87374999996973,
      "v": 38
    },
    {
      "midi": 50,
      "hit": false,
      "t": 170349.47999999922,
      "d": 375.87374999999884,
      "v": 104
    },
    {
      "midi": 61,
      "hit": false,
      "t": 170349.47999999922,
      "d": 375.87374999999884,
      "v": 104
    },
    {
      "midi": 38,
      "hit": false,
      "t": 170349.48000000016,
      "d": 415.2093750000058,
      "v": 99
    },
    {
      "midi": 50,
      "hit": false,
      "t": 170349.48000000027,
      "d": 236.0137500000128,
      "v": 51
    },
    {
      "midi": 66,
      "hit": false,
      "t": 170559.27000000028,
      "d": 821.677500000078,
      "v": 43
    },
    {
      "midi": 54,
      "hit": false,
      "t": 170559.2700000014,
      "d": 388.98562500000116,
      "v": 67
    },
    {
      "midi": 57,
      "hit": false,
      "t": 170559.2700000014,
      "d": 388.98562500000116,
      "v": 67
    },
    {
      "midi": 57,
      "hit": false,
      "t": 170563.6406250003,
      "d": 288.461249999993,
      "v": 43
    },
    {
      "midi": 62,
      "hit": false,
      "t": 170563.64062500035,
      "d": 4.370625000010477,
      "v": 92
    },
    {
      "midi": 49,
      "hit": false,
      "t": 170563.6406250014,
      "d": 388.98562500000116,
      "v": 67
    },
    {
      "midi": 69,
      "hit": false,
      "t": 170563.6406250014,
      "d": 388.98562500000116,
      "v": 67
    },
    {
      "midi": 64,
      "hit": false,
      "t": 170769.06000000035,
      "d": 4.370625000010477,
      "v": 86
    },
    {
      "midi": 50,
      "hit": false,
      "t": 170978.84999999922,
      "d": 187.93687500001397,
      "v": 104
    },
    {
      "midi": 61,
      "hit": false,
      "t": 170978.84999999922,
      "d": 187.93687500001397,
      "v": 104
    },
    {
      "midi": 38,
      "hit": false,
      "t": 170978.85000000015,
      "d": 91.7831249999872,
      "v": 99
    },
    {
      "midi": 61,
      "hit": false,
      "t": 170978.8500000003,
      "d": 135.48937500003376,
      "v": 33
    },
    {
      "midi": 49,
      "hit": false,
      "t": 170978.8500000014,
      "d": 170.45437500000116,
      "v": 63
    },
    {
      "midi": 57,
      "hit": false,
      "t": 170983.2206250003,
      "d": 113.63625000001048,
      "v": 31
    },
    {
      "midi": 64,
      "hit": false,
      "t": 170983.22062500037,
      "d": 4.370625000010477,
      "v": 92
    },
    {
      "midi": 52,
      "hit": false,
      "t": 171188.63999999923,
      "d": 375.87374999999884,
      "v": 104
    },
    {
      "midi": 56,
      "hit": false,
      "t": 171188.63999999923,
      "d": 375.87374999999884,
      "v": 104
    },
    {
      "midi": 59,
      "hit": false,
      "t": 171188.63999999923,
      "d": 375.87374999999884,
      "v": 104
    },
    {
      "midi": 28,
      "hit": false,
      "t": 171188.64000000013,
      "d": 423.9506249999977,
      "v": 99
    },
    {
      "midi": 40,
      "hit": false,
      "t": 171188.6400000014,
      "d": 170.45437500000116,
      "v": 58
    },
    {
      "midi": 47,
      "hit": false,
      "t": 171193.01062500034,
      "d": 568.1812500000233,
      "v": 62
    },
    {
      "midi": 56,
      "hit": false,
      "t": 171193.01062500142,
      "d": 380.2443749999802,
      "v": 61
    },
    {
      "midi": 64,
      "hit": false,
      "t": 171197.38125000036,
      "d": 122.37750000000233,
      "v": 46
    },
    {
      "midi": 59,
      "hit": false,
      "t": 171197.38125000036,
      "d": 201.0487500000163,
      "v": 57
    },
    {
      "midi": 64,
      "hit": false,
      "t": 171402.80062500035,
      "d": 4.370625000010477,
      "v": 55
    },
    {
      "midi": 56,
      "hit": false,
      "t": 171402.80062500038,
      "d": 375.87374999999884,
      "v": 38
    },
    {
      "midi": 40,
      "hit": false,
      "t": 171407.1712500014,
      "d": 1315.5581250000396,
      "v": 64
    },
    {
      "midi": 56,
      "hit": false,
      "t": 171603.8493750014,
      "d": 375.87374999999884,
      "v": 55
    },
    {
      "midi": 52,
      "hit": false,
      "t": 171608.21999999922,
      "d": 375.87374999999884,
      "v": 104
    },
    {
      "midi": 56,
      "hit": false,
      "t": 171608.21999999922,
      "d": 375.87374999999884,
      "v": 104
    },
    {
      "midi": 59,
      "hit": false,
      "t": 171608.21999999922,
      "d": 375.87374999999884,
      "v": 104
    },
    {
      "midi": 59,
      "hit": false,
      "t": 171608.22000000038,
      "d": 244.75500000000466,
      "v": 64
    },
    {
      "midi": 64,
      "hit": false,
      "t": 171608.22000000038,
      "d": 288.461249999993,
      "v": 72
    },
    {
      "midi": 63,
      "hit": false,
      "t": 171612.59062500036,
      "d": 4.370625000010477,
      "v": 86
    },
    {
      "midi": 59,
      "hit": false,
      "t": 171612.59062500138,
      "d": 375.87374999999884,
      "v": 67
    },
    {
      "midi": 62,
      "hit": false,
      "t": 171713.11500000037,
      "d": 4.370625000010477,
      "v": 72
    },
    {
      "midi": 28,
      "hit": false,
      "t": 171818.01000000013,
      "d": 91.7831249999872,
      "v": 99
    },
    {
      "midi": 47,
      "hit": false,
      "t": 171818.0100000004,
      "d": 279.72000000000116,
      "v": 44
    },
    {
      "midi": 47,
      "hit": false,
      "t": 171818.01000000138,
      "d": 795.4537500000442,
      "v": 48
    },
    {
      "midi": 63,
      "hit": false,
      "t": 171822.38062500037,
      "d": 4.370625000010477,
      "v": 86
    },
    {
      "midi": 52,
      "hit": false,
      "t": 172027.7999999992,
      "d": 375.87374999999884,
      "v": 104
    },
    {
      "midi": 56,
      "hit": false,
      "t": 172027.7999999992,
      "d": 375.87374999999884,
      "v": 104
    },
    {
      "midi": 59,
      "hit": false,
      "t": 172027.7999999992,
      "d": 375.87374999999884,
      "v": 104
    },
    {
      "midi": 28,
      "hit": false,
      "t": 172027.8000000001,
      "d": 415.2093750000058,
      "v": 99
    },
    {
      "midi": 56,
      "hit": false,
      "t": 172032.17062500038,
      "d": 240.38437499999418,
      "v": 60
    },
    {
      "midi": 56,
      "hit": false,
      "t": 172233.21937500138,
      "d": 616.2581250000803,
      "v": 52
    },
    {
      "midi": 76,
      "hit": false,
      "t": 172237.58999999985,
      "d": 187.93687500001397,
      "v": 104
    },
    {
      "midi": 64,
      "hit": false,
      "t": 172237.59000000037,
      "d": 821.6774999999907,
      "v": 56
    },
    {
      "midi": 59,
      "hit": false,
      "t": 172237.59000000037,
      "d": 856.6424999999872,
      "v": 56
    },
    {
      "midi": 64,
      "hit": false,
      "t": 172237.5900000014,
      "d": 166.0837500000198,
      "v": 60
    },
    {
      "midi": 64,
      "hit": false,
      "t": 172241.96062500039,
      "d": 4.370625000010477,
      "v": 92
    },
    {
      "midi": 59,
      "hit": false,
      "t": 172241.9606250014,
      "d": 375.87375000002794,
      "v": 67
    },
    {
      "midi": 78,
      "hit": false,
      "t": 172447.37999999986,
      "d": 187.93687500001397,
      "v": 104
    },
    {
      "midi": 63,
      "hit": false,
      "t": 172447.38000000038,
      "d": 4.370625000010477,
      "v": 86
    },
    {
      "midi": 80,
      "hit": false,
      "t": 172657.16999999987,
      "d": 187.93687500001397,
      "v": 104
    },
    {
      "midi": 28,
      "hit": false,
      "t": 172657.1700000001,
      "d": 91.7831249999872,
      "v": 99
    },
    {
      "midi": 47,
      "hit": false,
      "t": 172657.17000000036,
      "d": 279.72000000000116,
      "v": 36
    },
    {
      "midi": 47,
      "hit": false,
      "t": 172657.17000000144,
      "d": 166.0837500000198,
      "v": 59
    },
    {
      "midi": 63,
      "hit": false,
      "t": 172661.5406250004,
      "d": 4.370625000010477,
      "v": 92
    },
    {
      "midi": 59,
      "hit": false,
      "t": 172661.54062500145,
      "d": 170.45437500000116,
      "v": 52
    },
    {
      "midi": 50,
      "hit": false,
      "t": 172866.9599999992,
      "d": 375.87374999999884,
      "v": 104
    },
    {
      "midi": 57,
      "hit": false,
      "t": 172866.9599999992,
      "d": 375.87374999999884,
      "v": 104
    },
    {
      "midi": 81,
      "hit": false,
      "t": 172866.95999999988,
      "d": 375.87374999999884,
      "v": 104
    },
    {
      "midi": 38,
      "hit": false,
      "t": 172866.96000000008,
      "d": 506.992499999993,
      "v": 99
    },
    {
      "midi": 62,
      "hit": false,
      "t": 172866.96000000037,
      "d": 244.75500000000466,
      "v": 56
    },
    {
      "midi": 66,
      "hit": false,
      "t": 172866.96000000037,
      "d": 288.461249999993,
      "v": 56
    },
    {
      "midi": 82,
      "hit": false,
      "t": 172866.9600000004,
      "d": 39.335625000006985,
      "v": 82
    },
    {
      "midi": 38,
      "hit": false,
      "t": 172866.96000000148,
      "d": 196.67812500000582,
      "v": 58
    },
    {
      "midi": 61,
      "hit": false,
      "t": 172875.7012500004,
      "d": 4.370625000010477,
      "v": 62
    },
    {
      "midi": 57,
      "hit": false,
      "t": 173081.12062500036,
      "d": 375.87374999999884,
      "v": 38
    },
    {
      "midi": 82,
      "hit": false,
      "t": 173085.4912500004,
      "d": 30.59437499998603,
      "v": 42
    },
    {
      "midi": 64,
      "hit": false,
      "t": 173190.3862500004,
      "d": 4.370625000010477,
      "v": 37
    },
    {
      "midi": 57,
      "hit": false,
      "t": 173282.16937500148,
      "d": 616.2581250000221,
      "v": 67
    },
    {
      "midi": 66,
      "hit": false,
      "t": 173282.16937500148,
      "d": 616.2581250000221,
      "v": 67
    },
    {
      "midi": 78,
      "hit": false,
      "t": 173286.53999999986,
      "d": 187.93687500001397,
      "v": 104
    },
    {
      "midi": 50,
      "hit": false,
      "t": 173286.54000000036,
      "d": 236.0137500000128,
      "v": 51
    },
    {
      "midi": 62,
      "hit": false,
      "t": 173286.5400000015,
      "d": 616.2581250000221,
      "v": 66
    },
    {
      "midi": 60,
      "hit": false,
      "t": 173295.2812500004,
      "d": 4.370625000010477,
      "v": 85
    },
    {
      "midi": 62,
      "hit": false,
      "t": 173295.2812500004,
      "d": 4.370625000010477,
      "v": 82
    },
    {
      "midi": 82,
      "hit": false,
      "t": 173295.2812500004,
      "d": 30.594375000015134,
      "v": 47
    },
    {
      "midi": 50,
      "hit": false,
      "t": 173496.3299999992,
      "d": 187.93687500001397,
      "v": 104
    },
    {
      "midi": 57,
      "hit": false,
      "t": 173496.3299999992,
      "d": 187.93687500001397,
      "v": 104
    },
    {
      "midi": 81,
      "hit": false,
      "t": 173496.32999999987,
      "d": 375.87374999999884,
      "v": 104
    },
    {
      "midi": 38,
      "hit": false,
      "t": 173496.33000000007,
      "d": 78.67125000001397,
      "v": 99
    },
    {
      "midi": 82,
      "hit": false,
      "t": 173496.33000000042,
      "d": 39.335625000006985,
      "v": 82
    },
    {
      "midi": 61,
      "hit": false,
      "t": 173505.07125000042,
      "d": 4.370625000010477,
      "v": 70
    },
    {
      "midi": 64,
      "hit": false,
      "t": 173505.07125000042,
      "d": 4.370625000010477,
      "v": 82
    },
    {
      "midi": 50,
      "hit": false,
      "t": 173706.1199999992,
      "d": 375.87374999999884,
      "v": 104
    },
    {
      "midi": 57,
      "hit": false,
      "t": 173706.1199999992,
      "d": 375.87374999999884,
      "v": 104
    },
    {
      "midi": 38,
      "hit": false,
      "t": 173706.12000000008,
      "d": 502.62187500001164,
      "v": 99
    },
    {
      "midi": 62,
      "hit": false,
      "t": 173706.12000000037,
      "d": 275.3493750000198,
      "v": 60
    },
    {
      "midi": 66,
      "hit": false,
      "t": 173706.12000000037,
      "d": 620.6287500000326,
      "v": 59
    },
    {
      "midi": 57,
      "hit": false,
      "t": 173710.49062500038,
      "d": 270.9787500000093,
      "v": 60
    },
    {
      "midi": 82,
      "hit": false,
      "t": 173714.86125000042,
      "d": 30.59437499998603,
      "v": 53
    },
    {
      "midi": 62,
      "hit": false,
      "t": 173911.5393750015,
      "d": 388.98562500000116,
      "v": 67
    },
    {
      "midi": 66,
      "hit": false,
      "t": 173911.5393750015,
      "d": 388.98562500000116,
      "v": 67
    },
    {
      "midi": 78,
      "hit": false,
      "t": 173915.90999999986,
      "d": 375.87374999999884,
      "v": 104
    },
    {
      "midi": 82,
      "hit": false,
      "t": 173915.9100000004,
      "d": 30.59437499998603,
      "v": 39
    },
    {
      "midi": 57,
      "hit": false,
      "t": 173915.91000000152,
      "d": 598.7756249999802,
      "v": 67
    },
    {
      "midi": 64,
      "hit": false,
      "t": 174029.5462500004,
      "d": 4.370625000010477,
      "v": 73
    },
    {
      "midi": 62,
      "hit": false,
      "t": 174130.0706250004,
      "d": 4.370625000010477,
      "v": 88
    },
    {
      "midi": 50,
      "hit": false,
      "t": 174130.0706250004,
      "d": 144.2306249999965,
      "v": 60
    },
    {
      "midi": 60,
      "hit": false,
      "t": 174134.4412500004,
      "d": 4.370625000010477,
      "v": 82
    },
    {
      "midi": 82,
      "hit": false,
      "t": 174134.4412500004,
      "d": 39.335625000006985,
      "v": 82
    },
    {
      "midi": 50,
      "hit": false,
      "t": 174335.4899999992,
      "d": 187.93687500001397,
      "v": 104
    },
    {
      "midi": 57,
      "hit": false,
      "t": 174335.4899999992,
      "d": 187.93687500001397,
      "v": 104
    },
    {
      "midi": 81,
      "hit": false,
      "t": 174335.48999999985,
      "d": 187.93687500001397,
      "v": 104
    },
    {
      "midi": 33,
      "hit": false,
      "t": 174335.4900000001,
      "d": 74.30062500000349,
      "v": 99
    },
    {
      "midi": 62,
      "hit": false,
      "t": 174335.4900000004,
      "d": 297.20250000001397,
      "v": 43
    },
    {
      "midi": 63,
      "hit": false,
      "t": 174339.8606250004,
      "d": 4.370625000010477,
      "v": 82
    },
    {
      "midi": 57,
      "hit": false,
      "t": 174339.8606250004,
      "d": 292.8318750000035,
      "v": 43
    },
    {
      "midi": 61,
      "hit": false,
      "t": 174344.23125000042,
      "d": 4.370625000010477,
      "v": 62
    },
    {
      "midi": 82,
      "hit": false,
      "t": 174344.23125000042,
      "d": 30.594375000015134,
      "v": 58
    },
    {
      "midi": 62,
      "hit": false,
      "t": 174540.9093750015,
      "d": 4.370625000010477,
      "v": 59
    },
    {
      "midi": 66,
      "hit": false,
      "t": 174540.9093750015,
      "d": 4.370625000010477,
      "v": 63
    },
    {
      "midi": 52,
      "hit": false,
      "t": 174545.2799999992,
      "d": 375.87374999999884,
      "v": 104
    },
    {
      "midi": 56,
      "hit": false,
      "t": 174545.2799999992,
      "d": 375.87374999999884,
      "v": 104
    },
    {
      "midi": 83,
      "hit": false,
      "t": 174545.27999999985,
      "d": 751.7474999999977,
      "v": 104
    },
    {
      "midi": 28,
      "hit": false,
      "t": 174545.28000000012,
      "d": 607.5168750000012,
      "v": 99
    },
    {
      "midi": 56,
      "hit": false,
      "t": 174545.2800000004,
      "d": 489.5100000000093,
      "v": 60
    },
    {
      "midi": 56,
      "hit": false,
      "t": 174549.65062500152,
      "d": 196.67812500000582,
      "v": 61
    },
    {
      "midi": 82,
      "hit": false,
      "t": 174554.02125000043,
      "d": 30.59437499998603,
      "v": 34
    },
    {
      "midi": 64,
      "hit": false,
      "t": 174759.44062500042,
      "d": 4.370625000010477,
      "v": 55
    },
    {
      "midi": 82,
      "hit": false,
      "t": 174763.81125000044,
      "d": 30.59437499998603,
      "v": 39
    },
    {
      "midi": 56,
      "hit": false,
      "t": 174960.48937500152,
      "d": 1215.0337500000314,
      "v": 67
    },
    {
      "midi": 64,
      "hit": false,
      "t": 174964.86000000153,
      "d": 1215.0337500000314,
      "v": 67
    },
    {
      "midi": 59,
      "hit": false,
      "t": 174969.2306250004,
      "d": 65.55937500001164,
      "v": 60
    },
    {
      "midi": 64,
      "hit": false,
      "t": 174969.2306250004,
      "d": 218.53125,
      "v": 52
    },
    {
      "midi": 59,
      "hit": false,
      "t": 174969.23062500154,
      "d": 1215.0337500000314,
      "v": 67
    },
    {
      "midi": 60,
      "hit": false,
      "t": 174973.6012500004,
      "d": 4.370625000010477,
      "v": 82
    },
    {
      "midi": 62,
      "hit": false,
      "t": 174973.6012500004,
      "d": 4.370625000010477,
      "v": 82
    },
    {
      "midi": 82,
      "hit": false,
      "t": 174973.6012500004,
      "d": 39.335625000006985,
      "v": 82
    },
    {
      "midi": 52,
      "hit": false,
      "t": 175174.6499999992,
      "d": 187.93687500001397,
      "v": 104
    },
    {
      "midi": 56,
      "hit": false,
      "t": 175174.6499999992,
      "d": 187.93687500001397,
      "v": 104
    },
    {
      "midi": 35,
      "hit": false,
      "t": 175174.6500000001,
      "d": 131.11874999999418,
      "v": 98
    },
    {
      "midi": 82,
      "hit": false,
      "t": 175174.65000000043,
      "d": 30.594375000044238,
      "v": 42
    },
    {
      "midi": 56,
      "hit": false,
      "t": 175179.0206250004,
      "d": 323.4262499999895,
      "v": 43
    },
    {
      "midi": 62,
      "hit": false,
      "t": 175179.02062500044,
      "d": 4.370625000010477,
      "v": 68
    },
    {
      "midi": 61,
      "hit": false,
      "t": 175183.39125000045,
      "d": 4.370625000010477,
      "v": 82
    },
    {
      "midi": 52,
      "hit": false,
      "t": 175384.43999999922,
      "d": 375.87374999999884,
      "v": 104
    },
    {
      "midi": 56,
      "hit": false,
      "t": 175384.43999999922,
      "d": 375.87374999999884,
      "v": 104
    },
    {
      "midi": 35,
      "hit": false,
      "t": 175384.44000000012,
      "d": 572.5518750000047,
      "v": 99
    },
    {
      "midi": 59,
      "hit": false,
      "t": 175384.4400000004,
      "d": 148.60124999997788,
      "v": 60
    },
    {
      "midi": 68,
      "hit": false,
      "t": 175384.4400000004,
      "d": 148.60124999997788,
      "v": 60
    },
    {
      "midi": 64,
      "hit": false,
      "t": 175384.44000000047,
      "d": 4.370625000010477,
      "v": 82
    },
    {
      "midi": 82,
      "hit": false,
      "t": 175393.1812500005,
      "d": 30.59437499998603,
      "v": 52
    },
    {
      "midi": 76,
      "hit": false,
      "t": 175594.22999999986,
      "d": 187.93687500001397,
      "v": 104
    },
    {
      "midi": 56,
      "hit": false,
      "t": 175594.2300000004,
      "d": 743.0062499999767,
      "v": 49
    },
    {
      "midi": 59,
      "hit": false,
      "t": 175594.2300000004,
      "d": 743.0062499999767,
      "v": 40
    },
    {
      "midi": 64,
      "hit": false,
      "t": 175594.2300000004,
      "d": 795.453749999986,
      "v": 40
    },
    {
      "midi": 82,
      "hit": false,
      "t": 175594.23000000048,
      "d": 39.335625000006985,
      "v": 82
    },
    {
      "midi": 63,
      "hit": false,
      "t": 175602.97125000047,
      "d": 4.370625000010477,
      "v": 82
    },
    {
      "midi": 78,
      "hit": false,
      "t": 175804.01999999987,
      "d": 187.93687500001397,
      "v": 104
    },
    {
      "midi": 82,
      "hit": false,
      "t": 175804.02000000048,
      "d": 30.594375000015134,
      "v": 45
    },
    {
      "midi": 60,
      "hit": false,
      "t": 175812.76125000048,
      "d": 4.370625000010477,
      "v": 82
    },
    {
      "midi": 62,
      "hit": false,
      "t": 175812.76125000048,
      "d": 4.370625000010477,
      "v": 95
    },
    {
      "midi": 60,
      "hit": false,
      "t": 175908.9150000005,
      "d": 4.370625000010477,
      "v": 59
    },
    {
      "midi": 52,
      "hit": false,
      "t": 176013.8099999992,
      "d": 187.93687500001397,
      "v": 104
    },
    {
      "midi": 56,
      "hit": false,
      "t": 176013.8099999992,
      "d": 187.93687500001397,
      "v": 104
    },
    {
      "midi": 80,
      "hit": false,
      "t": 176013.80999999988,
      "d": 563.8106250000128,
      "v": 104
    },
    {
      "midi": 28,
      "hit": false,
      "t": 176013.8100000001,
      "d": 144.2306249999965,
      "v": 94
    },
    {
      "midi": 60,
      "hit": false,
      "t": 176013.81000000052,
      "d": 4.370625000010477,
      "v": 42
    },
    {
      "midi": 64,
      "hit": false,
      "t": 176013.81000000052,
      "d": 4.370625000010477,
      "v": 82
    },
    {
      "midi": 82,
      "hit": false,
      "t": 176018.18062500053,
      "d": 30.59437499998603,
      "v": 67
    },
    {
      "midi": 49,
      "hit": false,
      "t": 176223.59999999922,
      "d": 375.87374999999884,
      "v": 104
    },
    {
      "midi": 56,
      "hit": false,
      "t": 176223.59999999922,
      "d": 375.87374999999884,
      "v": 104
    },
    {
      "midi": 37,
      "hit": false,
      "t": 176223.60000000012,
      "d": 506.992499999993,
      "v": 99
    },
    {
      "midi": 49,
      "hit": false,
      "t": 176223.60000000038,
      "d": 83.04187499999534,
      "v": 76
    },
    {
      "midi": 82,
      "hit": false,
      "t": 176223.60000000053,
      "d": 39.335625000006985,
      "v": 82
    },
    {
      "midi": 52,
      "hit": false,
      "t": 176223.60000000158,
      "d": 78.67125000001397,
      "v": 47
    },
    {
      "midi": 61,
      "hit": false,
      "t": 176223.60000000158,
      "d": 78.67125000001397,
      "v": 51
    },
    {
      "midi": 37,
      "hit": false,
      "t": 176223.60000000158,
      "d": 196.67812500000582,
      "v": 58
    },
    {
      "midi": 61,
      "hit": false,
      "t": 176232.34125000052,
      "d": 4.370625000010477,
      "v": 62
    },
    {
      "midi": 49,
      "hit": false,
      "t": 176433.39000000036,
      "d": 253.4962499999965,
      "v": 28
    },
    {
      "midi": 82,
      "hit": false,
      "t": 176442.13125000053,
      "d": 30.59437499998603,
      "v": 42
    },
    {
      "midi": 64,
      "hit": false,
      "t": 176547.02625000052,
      "d": 4.370625000010477,
      "v": 37
    },
    {
      "midi": 76,
      "hit": false,
      "t": 176643.1799999999,
      "d": 187.93687500001397,
      "v": 104
    },
    {
      "midi": 56,
      "hit": false,
      "t": 176643.18000000037,
      "d": 201.0487499999872,
      "v": 57
    },
    {
      "midi": 61,
      "hit": false,
      "t": 176643.18000000037,
      "d": 476.398125000007,
      "v": 61
    },
    {
      "midi": 61,
      "hit": false,
      "t": 176643.1800000016,
      "d": 922.2018750000279,
      "v": 62
    },
    {
      "midi": 68,
      "hit": false,
      "t": 176647.5506250016,
      "d": 922.2018750000279,
      "v": 62
    },
    {
      "midi": 64,
      "hit": false,
      "t": 176651.92125000036,
      "d": 463.28625000000466,
      "v": 64
    },
    {
      "midi": 60,
      "hit": false,
      "t": 176651.92125000054,
      "d": 4.370625000010477,
      "v": 85
    },
    {
      "midi": 62,
      "hit": false,
      "t": 176651.92125000054,
      "d": 4.370625000010477,
      "v": 82
    },
    {
      "midi": 82,
      "hit": false,
      "t": 176651.92125000054,
      "d": 30.594375000015134,
      "v": 47
    },
    {
      "midi": 56,
      "hit": false,
      "t": 176651.92125000161,
      "d": 922.2018750000279,
      "v": 61
    },
    {
      "midi": 49,
      "hit": false,
      "t": 176852.96999999922,
      "d": 187.93687500001397,
      "v": 104
    },
    {
      "midi": 56,
      "hit": false,
      "t": 176852.96999999922,
      "d": 187.93687500001397,
      "v": 104
    },
    {
      "midi": 80,
      "hit": false,
      "t": 176852.9699999999,
      "d": 375.87374999999884,
      "v": 104
    },
    {
      "midi": 37,
      "hit": false,
      "t": 176852.97000000012,
      "d": 78.67125000001397,
      "v": 99
    },
    {
      "midi": 82,
      "hit": false,
      "t": 176852.97000000055,
      "d": 39.335625000006985,
      "v": 82
    },
    {
      "midi": 61,
      "hit": false,
      "t": 176861.71125000055,
      "d": 4.370625000010477,
      "v": 70
    },
    {
      "midi": 64,
      "hit": false,
      "t": 176861.71125000055,
      "d": 4.370625000010477,
      "v": 82
    },
    {
      "midi": 49,
      "hit": false,
      "t": 177062.75999999922,
      "d": 375.87374999999884,
      "v": 104
    },
    {
      "midi": 56,
      "hit": false,
      "t": 177062.75999999922,
      "d": 375.87374999999884,
      "v": 104
    },
    {
      "midi": 37,
      "hit": false,
      "t": 177062.76000000013,
      "d": 502.62187500001164,
      "v": 99
    },
    {
      "midi": 49,
      "hit": false,
      "t": 177062.76000000036,
      "d": 222.90187500001048,
      "v": 63
    },
    {
      "midi": 82,
      "hit": false,
      "t": 177071.50125000055,
      "d": 30.59437499998603,
      "v": 53
    },
    {
      "midi": 76,
      "hit": false,
      "t": 177272.5499999999,
      "d": 375.87374999999884,
      "v": 104
    },
    {
      "midi": 64,
      "hit": false,
      "t": 177272.55000000037,
      "d": 568.1812500000233,
      "v": 45
    },
    {
      "midi": 82,
      "hit": false,
      "t": 177272.55000000054,
      "d": 30.59437499998603,
      "v": 39
    },
    {
      "midi": 64,
      "hit": false,
      "t": 177386.18625000052,
      "d": 4.370625000010477,
      "v": 73
    },
    {
      "midi": 62,
      "hit": false,
      "t": 177486.71062500053,
      "d": 4.370625000010477,
      "v": 88
    },
    {
      "midi": 60,
      "hit": false,
      "t": 177491.08125000054,
      "d": 4.370625000010477,
      "v": 82
    },
    {
      "midi": 82,
      "hit": false,
      "t": 177491.08125000054,
      "d": 39.335625000006985,
      "v": 82
    },
    {
      "midi": 49,
      "hit": false,
      "t": 177692.12999999922,
      "d": 187.93687500001397,
      "v": 104
    },
    {
      "midi": 56,
      "hit": false,
      "t": 177692.12999999922,
      "d": 187.93687500001397,
      "v": 104
    },
    {
      "midi": 80,
      "hit": false,
      "t": 177692.1299999999,
      "d": 187.93687500001397,
      "v": 104
    },
    {
      "midi": 32,
      "hit": false,
      "t": 177692.13000000015,
      "d": 74.30062500000349,
      "v": 99
    },
    {
      "midi": 56,
      "hit": false,
      "t": 177692.13000000038,
      "d": 83.04187499999534,
      "v": 44
    },
    {
      "midi": 63,
      "hit": false,
      "t": 177696.50062500054,
      "d": 4.370625000010477,
      "v": 82
    },
    {
      "midi": 56,
      "hit": false,
      "t": 177696.50062500164,
      "d": 205.41937499999767,
      "v": 61
    },
    {
      "midi": 68,
      "hit": false,
      "t": 177696.50062500164,
      "d": 205.41937499999767,
      "v": 66
    },
    {
      "midi": 61,
      "hit": false,
      "t": 177700.87125000037,
      "d": 227.27250000002095,
      "v": 36
    },
    {
      "midi": 61,
      "hit": false,
      "t": 177700.87125000055,
      "d": 4.370625000010477,
      "v": 62
    },
    {
      "midi": 82,
      "hit": false,
      "t": 177700.87125000055,
      "d": 30.594375000015134,
      "v": 58
    },
    {
      "midi": 52,
      "hit": false,
      "t": 177700.87125000166,
      "d": 201.0487499999872,
      "v": 46
    },
    {
      "midi": 54,
      "hit": false,
      "t": 177901.91999999923,
      "d": 375.87374999999884,
      "v": 104
    },
    {
      "midi": 57,
      "hit": false,
      "t": 177901.91999999923,
      "d": 375.87374999999884,
      "v": 104
    },
    {
      "midi": 81,
      "hit": false,
      "t": 177901.9199999999,
      "d": 1503.4949999999953,
      "v": 104
    },
    {
      "midi": 30,
      "hit": false,
      "t": 177901.92000000016,
      "d": 607.5168750000012,
      "v": 99
    },
    {
      "midi": 82,
      "hit": false,
      "t": 177910.66125000056,
      "d": 30.59437499998603,
      "v": 34
    },
    {
      "midi": 64,
      "hit": false,
      "t": 178116.08062500056,
      "d": 4.370625000010477,
      "v": 55
    },
    {
      "midi": 82,
      "hit": false,
      "t": 178120.45125000057,
      "d": 30.59437499998603,
      "v": 39
    },
    {
      "midi": 66,
      "hit": false,
      "t": 178325.8706250004,
      "d": 218.53125,
      "v": 52
    },
    {
      "midi": 61,
      "hit": false,
      "t": 178325.8706250004,
      "d": 270.9787500000093,
      "v": 60
    },
    {
      "midi": 60,
      "hit": false,
      "t": 178330.24125000054,
      "d": 4.370625000010477,
      "v": 82
    },
    {
      "midi": 62,
      "hit": false,
      "t": 178330.24125000054,
      "d": 4.370625000010477,
      "v": 82
    },
    {
      "midi": 82,
      "hit": false,
      "t": 178330.24125000054,
      "d": 39.335625000006985,
      "v": 82
    },
    {
      "midi": 54,
      "hit": false,
      "t": 178531.28999999922,
      "d": 187.93687500001397,
      "v": 104
    },
    {
      "midi": 57,
      "hit": false,
      "t": 178531.28999999922,
      "d": 187.93687500001397,
      "v": 104
    },
    {
      "midi": 37,
      "hit": false,
      "t": 178531.29000000015,
      "d": 131.11874999999418,
      "v": 98
    },
    {
      "midi": 82,
      "hit": false,
      "t": 178531.29000000056,
      "d": 30.594375000044238,
      "v": 42
    },
    {
      "midi": 57,
      "hit": false,
      "t": 178535.6606250004,
      "d": 323.4262499999895,
      "v": 43
    },
    {
      "midi": 62,
      "hit": false,
      "t": 178535.66062500057,
      "d": 4.370625000010477,
      "v": 68
    },
    {
      "midi": 57,
      "hit": false,
      "t": 178535.66062500165,
      "d": 756.1181250000081,
      "v": 61
    },
    {
      "midi": 61,
      "hit": false,
      "t": 178540.03125000058,
      "d": 4.370625000010477,
      "v": 82
    },
    {
      "midi": 54,
      "hit": false,
      "t": 178741.07999999923,
      "d": 375.87374999999884,
      "v": 104
    },
    {
      "midi": 57,
      "hit": false,
      "t": 178741.07999999923,
      "d": 375.87374999999884,
      "v": 104
    },
    {
      "midi": 37,
      "hit": false,
      "t": 178741.08000000016,
      "d": 572.5518750000047,
      "v": 99
    },
    {
      "midi": 61,
      "hit": false,
      "t": 178741.0800000004,
      "d": 148.60124999997788,
      "v": 60
    },
    {
      "midi": 69,
      "hit": false,
      "t": 178741.0800000004,
      "d": 148.60124999997788,
      "v": 60
    },
    {
      "midi": 64,
      "hit": false,
      "t": 178741.0800000006,
      "d": 4.370625000010477,
      "v": 82
    },
    {
      "midi": 82,
      "hit": false,
      "t": 178749.82125000062,
      "d": 30.59437499998603,
      "v": 52
    },
    {
      "midi": 57,
      "hit": false,
      "t": 178950.87000000037,
      "d": 743.0062499999767,
      "v": 49
    },
    {
      "midi": 61,
      "hit": false,
      "t": 178950.87000000037,
      "d": 743.0062499999767,
      "v": 40
    },
    {
      "midi": 66,
      "hit": false,
      "t": 178950.87000000037,
      "d": 795.453749999986,
      "v": 40
    },
    {
      "midi": 82,
      "hit": false,
      "t": 178950.8700000006,
      "d": 39.335625000006985,
      "v": 82
    },
    {
      "midi": 63,
      "hit": false,
      "t": 178959.6112500006,
      "d": 4.370625000010477,
      "v": 82
    },
    {
      "midi": 82,
      "hit": false,
      "t": 179160.66000000061,
      "d": 30.594375000015134,
      "v": 45
    },
    {
      "midi": 60,
      "hit": false,
      "t": 179169.4012500006,
      "d": 4.370625000010477,
      "v": 82
    },
    {
      "midi": 62,
      "hit": false,
      "t": 179169.4012500006,
      "d": 4.370625000010477,
      "v": 95
    },
    {
      "midi": 60,
      "hit": false,
      "t": 179265.55500000063,
      "d": 4.370625000010477,
      "v": 59
    },
    {
      "midi": 54,
      "hit": false,
      "t": 179370.44999999923,
      "d": 187.93687500001397,
      "v": 104
    },
    {
      "midi": 57,
      "hit": false,
      "t": 179370.44999999923,
      "d": 187.93687500001397,
      "v": 104
    },
    {
      "midi": 30,
      "hit": false,
      "t": 179370.45000000016,
      "d": 144.2306249999965,
      "v": 94
    },
    {
      "midi": 60,
      "hit": false,
      "t": 179370.45000000065,
      "d": 4.370625000010477,
      "v": 42
    },
    {
      "midi": 64,
      "hit": false,
      "t": 179370.45000000065,
      "d": 4.370625000010477,
      "v": 82
    },
    {
      "midi": 49,
      "hit": false,
      "t": 179370.45000000167,
      "d": 78.67125000001397,
      "v": 47
    },
    {
      "midi": 54,
      "hit": false,
      "t": 179370.45000000167,
      "d": 78.67125000001397,
      "v": 55
    },
    {
      "midi": 82,
      "hit": false,
      "t": 179374.82062500066,
      "d": 30.59437499998603,
      "v": 67
    },
    {
      "midi": 47,
      "hit": false,
      "t": 179580.23999999923,
      "d": 375.87374999999884,
      "v": 104
    },
    {
      "midi": 54,
      "hit": false,
      "t": 179580.23999999923,
      "d": 375.87374999999884,
      "v": 104
    },
    {
      "midi": 35,
      "hit": false,
      "t": 179580.24000000017,
      "d": 506.992499999993,
      "v": 99
    },
    {
      "midi": 47,
      "hit": false,
      "t": 179580.24000000037,
      "d": 83.04187499999534,
      "v": 76
    },
    {
      "midi": 82,
      "hit": false,
      "t": 179580.24000000066,
      "d": 39.335625000006985,
      "v": 82
    },
    {
      "midi": 50,
      "hit": false,
      "t": 179580.24000000168,
      "d": 78.67125000001397,
      "v": 47
    },
    {
      "midi": 59,
      "hit": false,
      "t": 179580.24000000168,
      "d": 78.67125000001397,
      "v": 51
    },
    {
      "midi": 47,
      "hit": false,
      "t": 179580.24000000168,
      "d": 196.67812500000582,
      "v": 58
    },
    {
      "midi": 61,
      "hit": false,
      "t": 179588.98125000065,
      "d": 4.370625000010477,
      "v": 62
    },
    {
      "midi": 47,
      "hit": false,
      "t": 179790.03000000035,
      "d": 253.4962499999965,
      "v": 28
    },
    {
      "midi": 82,
      "hit": false,
      "t": 179798.77125000066,
      "d": 30.59437499998603,
      "v": 42
    },
    {
      "midi": 64,
      "hit": false,
      "t": 179903.66625000065,
      "d": 4.370625000010477,
      "v": 37
    },
    {
      "midi": 74,
      "hit": false,
      "t": 179999.8199999999,
      "d": 375.87374999999884,
      "v": 104
    },
    {
      "midi": 54,
      "hit": false,
      "t": 179999.82000000036,
      "d": 201.0487499999872,
      "v": 57
    },
    {
      "midi": 59,
      "hit": false,
      "t": 179999.82000000036,
      "d": 476.398125000007,
      "v": 61
    },
    {
      "midi": 59,
      "hit": false,
      "t": 179999.8200000017,
      "d": 922.2018750000279,
      "v": 62
    },
    {
      "midi": 66,
      "hit": false,
      "t": 180004.1906250017,
      "d": 922.2018750000279,
      "v": 62
    },
    {
      "midi": 62,
      "hit": false,
      "t": 180008.56125000035,
      "d": 463.28625000000466,
      "v": 64
    },
    {
      "midi": 60,
      "hit": false,
      "t": 180008.56125000067,
      "d": 4.370625000010477,
      "v": 85
    },
    {
      "midi": 62,
      "hit": false,
      "t": 180008.56125000067,
      "d": 4.370625000010477,
      "v": 82
    },
    {
      "midi": 82,
      "hit": false,
      "t": 180008.56125000067,
      "d": 30.594375000015134,
      "v": 47
    },
    {
      "midi": 54,
      "hit": false,
      "t": 180008.56125000172,
      "d": 922.2018750000279,
      "v": 61
    },
    {
      "midi": 47,
      "hit": false,
      "t": 180209.60999999923,
      "d": 187.93687500001397,
      "v": 104
    },
    {
      "midi": 54,
      "hit": false,
      "t": 180209.60999999923,
      "d": 187.93687500001397,
      "v": 104
    },
    {
      "midi": 35,
      "hit": false,
      "t": 180209.61000000016,
      "d": 78.67125000001397,
      "v": 99
    },
    {
      "midi": 82,
      "hit": false,
      "t": 180209.61000000068,
      "d": 39.335625000006985,
      "v": 82
    },
    {
      "midi": 61,
      "hit": false,
      "t": 180218.35125000068,
      "d": 4.370625000010477,
      "v": 70
    },
    {
      "midi": 64,
      "hit": false,
      "t": 180218.35125000068,
      "d": 4.370625000010477,
      "v": 82
    },
    {
      "midi": 47,
      "hit": false,
      "t": 180419.39999999924,
      "d": 375.87374999999884,
      "v": 104
    },
    {
      "midi": 54,
      "hit": false,
      "t": 180419.39999999924,
      "d": 375.87374999999884,
      "v": 104
    },
    {
      "midi": 76,
      "hit": false,
      "t": 180419.39999999988,
      "d": 375.87374999999884,
      "v": 104
    },
    {
      "midi": 35,
      "hit": false,
      "t": 180419.40000000017,
      "d": 502.62187500001164,
      "v": 99
    },
    {
      "midi": 47,
      "hit": false,
      "t": 180419.40000000034,
      "d": 222.90187500001048,
      "v": 63
    },
    {
      "midi": 82,
      "hit": false,
      "t": 180428.14125000068,
      "d": 30.59437499998603,
      "v": 53
    },
    {
      "midi": 62,
      "hit": false,
      "t": 180629.19000000035,
      "d": 568.1812500000233,
      "v": 45
    },
    {
      "midi": 82,
      "hit": false,
      "t": 180629.19000000067,
      "d": 30.59437499998603,
      "v": 39
    },
    {
      "midi": 64,
      "hit": false,
      "t": 180742.82625000065,
      "d": 4.370625000010477,
      "v": 73
    },
    {
      "midi": 78,
      "hit": false,
      "t": 180838.97999999986,
      "d": 375.87374999999884,
      "v": 104
    },
    {
      "midi": 62,
      "hit": false,
      "t": 180843.35062500066,
      "d": 4.370625000010477,
      "v": 88
    },
    {
      "midi": 60,
      "hit": false,
      "t": 180847.72125000067,
      "d": 4.370625000010477,
      "v": 82
    },
    {
      "midi": 82,
      "hit": false,
      "t": 180847.72125000067,
      "d": 39.335625000006985,
      "v": 82
    },
    {
      "midi": 47,
      "hit": false,
      "t": 181048.76999999923,
      "d": 187.93687500001397,
      "v": 104
    },
    {
      "midi": 54,
      "hit": false,
      "t": 181048.76999999923,
      "d": 187.93687500001397,
      "v": 104
    },
    {
      "midi": 30,
      "hit": false,
      "t": 181048.7700000002,
      "d": 74.30062500000349,
      "v": 99
    },
    {
      "midi": 54,
      "hit": false,
      "t": 181048.77000000037,
      "d": 83.04187499999534,
      "v": 44
    },
    {
      "midi": 63,
      "hit": false,
      "t": 181053.14062500067,
      "d": 4.370625000010477,
      "v": 82
    },
    {
      "midi": 54,
      "hit": false,
      "t": 181053.14062500175,
      "d": 205.41937499999767,
      "v": 61
    },
    {
      "midi": 66,
      "hit": false,
      "t": 181053.14062500175,
      "d": 205.41937499999767,
      "v": 66
    },
    {
      "midi": 59,
      "hit": false,
      "t": 181057.51125000036,
      "d": 227.27250000002095,
      "v": 36
    },
    {
      "midi": 61,
      "hit": false,
      "t": 181057.51125000068,
      "d": 4.370625000010477,
      "v": 62
    },
    {
      "midi": 82,
      "hit": false,
      "t": 181057.51125000068,
      "d": 30.594375000015134,
      "v": 58
    },
    {
      "midi": 50,
      "hit": false,
      "t": 181057.51125000176,
      "d": 201.0487499999872,
      "v": 46
    },
    {
      "midi": 52,
      "hit": false,
      "t": 181258.55999999924,
      "d": 375.87374999999884,
      "v": 104
    },
    {
      "midi": 56,
      "hit": false,
      "t": 181258.55999999924,
      "d": 375.87374999999884,
      "v": 104
    },
    {
      "midi": 73,
      "hit": false,
      "t": 181258.55999999985,
      "d": 751.7474999999977,
      "v": 104
    },
    {
      "midi": 28,
      "hit": false,
      "t": 181258.5600000002,
      "d": 607.5168750000012,
      "v": 99
    },
    {
      "midi": 56,
      "hit": false,
      "t": 181262.93062500175,
      "d": 196.67812500000582,
      "v": 61
    },
    {
      "midi": 82,
      "hit": false,
      "t": 181267.3012500007,
      "d": 30.59437499998603,
      "v": 34
    },
    {
      "midi": 64,
      "hit": false,
      "t": 181472.7206250007,
      "d": 4.370625000010477,
      "v": 55
    },
    {
      "midi": 82,
      "hit": false,
      "t": 181477.0912500007,
      "d": 30.59437499998603,
      "v": 39
    },
    {
      "midi": 56,
      "hit": false,
      "t": 181673.76937500175,
      "d": 1215.0337500000314,
      "v": 67
    },
    {
      "midi": 64,
      "hit": false,
      "t": 181678.14000000176,
      "d": 1215.0337500000314,
      "v": 67
    },
    {
      "midi": 64,
      "hit": false,
      "t": 181682.51062500037,
      "d": 218.53125,
      "v": 52
    },
    {
      "midi": 59,
      "hit": false,
      "t": 181682.51062500037,
      "d": 270.9787500000093,
      "v": 60
    },
    {
      "midi": 59,
      "hit": false,
      "t": 181682.51062500177,
      "d": 1215.0337500000314,
      "v": 67
    },
    {
      "midi": 60,
      "hit": false,
      "t": 181686.88125000068,
      "d": 4.370625000010477,
      "v": 82
    },
    {
      "midi": 62,
      "hit": false,
      "t": 181686.88125000068,
      "d": 4.370625000010477,
      "v": 82
    },
    {
      "midi": 82,
      "hit": false,
      "t": 181686.88125000068,
      "d": 39.335625000006985,
      "v": 82
    },
    {
      "midi": 52,
      "hit": false,
      "t": 181887.92999999924,
      "d": 187.93687500001397,
      "v": 104
    },
    {
      "midi": 56,
      "hit": false,
      "t": 181887.92999999924,
      "d": 187.93687500001397,
      "v": 104
    },
    {
      "midi": 35,
      "hit": false,
      "t": 181887.9300000002,
      "d": 131.11874999999418,
      "v": 98
    },
    {
      "midi": 82,
      "hit": false,
      "t": 181887.9300000007,
      "d": 30.594375000044238,
      "v": 42
    },
    {
      "midi": 56,
      "hit": false,
      "t": 181892.30062500038,
      "d": 323.4262499999895,
      "v": 43
    },
    {
      "midi": 62,
      "hit": false,
      "t": 181892.3006250007,
      "d": 4.370625000010477,
      "v": 68
    },
    {
      "midi": 61,
      "hit": false,
      "t": 181896.6712500007,
      "d": 4.370625000010477,
      "v": 82
    },
    {
      "midi": 52,
      "hit": false,
      "t": 182097.71999999924,
      "d": 375.87374999999884,
      "v": 104
    },
    {
      "midi": 56,
      "hit": false,
      "t": 182097.71999999924,
      "d": 375.87374999999884,
      "v": 104
    },
    {
      "midi": 71,
      "hit": false,
      "t": 182097.71999999986,
      "d": 751.7474999999977,
      "v": 104
    },
    {
      "midi": 35,
      "hit": false,
      "t": 182097.7200000002,
      "d": 572.5518750000047,
      "v": 99
    },
    {
      "midi": 59,
      "hit": false,
      "t": 182097.72000000038,
      "d": 148.60124999997788,
      "v": 60
    },
    {
      "midi": 68,
      "hit": false,
      "t": 182097.72000000038,
      "d": 148.60124999997788,
      "v": 60
    },
    {
      "midi": 64,
      "hit": false,
      "t": 182097.72000000073,
      "d": 4.370625000010477,
      "v": 82
    },
    {
      "midi": 82,
      "hit": false,
      "t": 182106.46125000075,
      "d": 30.59437499998603,
      "v": 52
    },
    {
      "midi": 56,
      "hit": false,
      "t": 182307.51000000036,
      "d": 743.0062500000058,
      "v": 49
    },
    {
      "midi": 82,
      "hit": false,
      "t": 182307.51000000074,
      "d": 39.335625000006985,
      "v": 82
    },
    {
      "midi": 63,
      "hit": false,
      "t": 182316.25125000073,
      "d": 4.370625000010477,
      "v": 82
    },
    {
      "midi": 82,
      "hit": false,
      "t": 182517.30000000075,
      "d": 30.594375000015134,
      "v": 45
    },
    {
      "midi": 60,
      "hit": false,
      "t": 182526.04125000074,
      "d": 4.370625000010477,
      "v": 82
    },
    {
      "midi": 62,
      "hit": false,
      "t": 182526.04125000074,
      "d": 4.370625000010477,
      "v": 95
    },
    {
      "midi": 60,
      "hit": false,
      "t": 182622.19500000076,
      "d": 4.370625000010477,
      "v": 59
    },
    {
      "midi": 52,
      "hit": false,
      "t": 182727.08999999924,
      "d": 187.93687500001397,
      "v": 104
    },
    {
      "midi": 56,
      "hit": false,
      "t": 182727.08999999924,
      "d": 187.93687500001397,
      "v": 104
    },
    {
      "midi": 28,
      "hit": false,
      "t": 182727.0900000002,
      "d": 144.2306249999965,
      "v": 94
    },
    {
      "midi": 60,
      "hit": false,
      "t": 182727.09000000078,
      "d": 4.370625000010477,
      "v": 42
    },
    {
      "midi": 64,
      "hit": false,
      "t": 182727.09000000078,
      "d": 4.370625000010477,
      "v": 82
    },
    {
      "midi": 82,
      "hit": false,
      "t": 182731.4606250008,
      "d": 30.59437499998603,
      "v": 67
    },
    {
      "midi": 52,
      "hit": false,
      "t": 182936.87999999925,
      "d": 375.87374999999884,
      "v": 104
    },
    {
      "midi": 55,
      "hit": false,
      "t": 182936.87999999925,
      "d": 375.87374999999884,
      "v": 104
    },
    {
      "midi": 76,
      "hit": false,
      "t": 182936.87999999986,
      "d": 1503.4949999999953,
      "v": 104
    },
    {
      "midi": 28,
      "hit": false,
      "t": 182936.8800000002,
      "d": 506.992499999993,
      "v": 99
    },
    {
      "midi": 59,
      "hit": false,
      "t": 182936.88000000035,
      "d": 113.63625000001048,
      "v": 56
    },
    {
      "midi": 64,
      "hit": false,
      "t": 182936.88000000035,
      "d": 166.0837500000198,
      "v": 56
    },
    {
      "midi": 82,
      "hit": false,
      "t": 182936.8800000008,
      "d": 39.335625000006985,
      "v": 82
    },
    {
      "midi": 52,
      "hit": false,
      "t": 182936.8800000018,
      "d": 78.67125000001397,
      "v": 47
    },
    {
      "midi": 59,
      "hit": false,
      "t": 182936.8800000018,
      "d": 78.67125000001397,
      "v": 51
    },
    {
      "midi": 40,
      "hit": false,
      "t": 182936.8800000018,
      "d": 196.67812500000582,
      "v": 58
    },
    {
      "midi": 61,
      "hit": false,
      "t": 182945.62125000078,
      "d": 4.370625000010477,
      "v": 62
    },
    {
      "midi": 55,
      "hit": false,
      "t": 183151.04062500037,
      "d": 375.87374999996973,
      "v": 38
    },
    {
      "midi": 82,
      "hit": false,
      "t": 183155.4112500008,
      "d": 30.59437499998603,
      "v": 42
    },
    {
      "midi": 64,
      "hit": false,
      "t": 183260.30625000078,
      "d": 4.370625000010477,
      "v": 37
    },
    {
      "midi": 47,
      "hit": false,
      "t": 183356.46000000034,
      "d": 236.0137500000128,
      "v": 51
    },
    {
      "midi": 59,
      "hit": false,
      "t": 183356.46000000183,
      "d": 922.2018750000279,
      "v": 62
    },
    {
      "midi": 64,
      "hit": false,
      "t": 183360.83062500184,
      "d": 922.2018750000279,
      "v": 62
    },
    {
      "midi": 60,
      "hit": false,
      "t": 183365.2012500008,
      "d": 4.370625000010477,
      "v": 85
    },
    {
      "midi": 62,
      "hit": false,
      "t": 183365.2012500008,
      "d": 4.370625000010477,
      "v": 82
    },
    {
      "midi": 82,
      "hit": false,
      "t": 183365.2012500008,
      "d": 30.594375000015134,
      "v": 47
    },
    {
      "midi": 55,
      "hit": false,
      "t": 183365.20125000185,
      "d": 922.2018750000279,
      "v": 61
    },
    {
      "midi": 52,
      "hit": false,
      "t": 183566.24999999924,
      "d": 187.93687500001397,
      "v": 104
    },
    {
      "midi": 55,
      "hit": false,
      "t": 183566.24999999924,
      "d": 187.93687500001397,
      "v": 104
    },
    {
      "midi": 40,
      "hit": false,
      "t": 183566.2500000002,
      "d": 78.67125000001397,
      "v": 99
    },
    {
      "midi": 82,
      "hit": false,
      "t": 183566.25000000081,
      "d": 39.335625000006985,
      "v": 82
    },
    {
      "midi": 61,
      "hit": false,
      "t": 183574.9912500008,
      "d": 4.370625000010477,
      "v": 70
    },
    {
      "midi": 64,
      "hit": false,
      "t": 183574.9912500008,
      "d": 4.370625000010477,
      "v": 82
    },
    {
      "midi": 52,
      "hit": false,
      "t": 183776.03999999925,
      "d": 375.87374999999884,
      "v": 104
    },
    {
      "midi": 55,
      "hit": false,
      "t": 183776.03999999925,
      "d": 375.87374999999884,
      "v": 104
    },
    {
      "midi": 40,
      "hit": false,
      "t": 183776.0400000002,
      "d": 502.62187500001164,
      "v": 99
    },
    {
      "midi": 59,
      "hit": false,
      "t": 183776.04000000036,
      "d": 275.3493750000198,
      "v": 60
    },
    {
      "midi": 64,
      "hit": false,
      "t": 183776.04000000036,
      "d": 620.6287500000326,
      "v": 59
    },
    {
      "midi": 55,
      "hit": false,
      "t": 183780.41062500037,
      "d": 270.9787500000093,
      "v": 60
    },
    {
      "midi": 82,
      "hit": false,
      "t": 183784.78125000081,
      "d": 30.59437499998603,
      "v": 53
    },
    {
      "midi": 82,
      "hit": false,
      "t": 183985.8300000008,
      "d": 30.59437499998603,
      "v": 39
    },
    {
      "midi": 64,
      "hit": false,
      "t": 184099.46625000078,
      "d": 4.370625000010477,
      "v": 73
    },
    {
      "midi": 47,
      "hit": false,
      "t": 184199.99062500038,
      "d": 144.2306249999965,
      "v": 60
    },
    {
      "midi": 62,
      "hit": false,
      "t": 184199.9906250008,
      "d": 4.370625000010477,
      "v": 88
    },
    {
      "midi": 60,
      "hit": false,
      "t": 184204.3612500008,
      "d": 4.370625000010477,
      "v": 82
    },
    {
      "midi": 82,
      "hit": false,
      "t": 184204.3612500008,
      "d": 39.335625000006985,
      "v": 82
    },
    {
      "midi": 52,
      "hit": false,
      "t": 184405.40999999925,
      "d": 187.93687500001397,
      "v": 104
    },
    {
      "midi": 55,
      "hit": false,
      "t": 184405.40999999925,
      "d": 187.93687500001397,
      "v": 104
    },
    {
      "midi": 35,
      "hit": false,
      "t": 184405.41000000024,
      "d": 74.30062500000349,
      "v": 99
    },
    {
      "midi": 59,
      "hit": false,
      "t": 184405.41000000038,
      "d": 297.20250000001397,
      "v": 43
    },
    {
      "midi": 63,
      "hit": false,
      "t": 184409.7806250008,
      "d": 4.370625000010477,
      "v": 82
    },
    {
      "midi": 55,
      "hit": false,
      "t": 184409.78062500188,
      "d": 205.41937499999767,
      "v": 61
    },
    {
      "midi": 64,
      "hit": false,
      "t": 184409.78062500188,
      "d": 205.41937499999767,
      "v": 66
    },
    {
      "midi": 61,
      "hit": false,
      "t": 184414.1512500008,
      "d": 4.370625000010477,
      "v": 62
    },
    {
      "midi": 82,
      "hit": false,
      "t": 184414.1512500008,
      "d": 30.594375000015134,
      "v": 58
    },
    {
      "midi": 52,
      "hit": false,
      "t": 184414.1512500019,
      "d": 201.0487499999872,
      "v": 46
    },
    {
      "midi": 55,
      "hit": false,
      "t": 184615.19999999925,
      "d": 375.87374999999884,
      "v": 104
    },
    {
      "midi": 57,
      "hit": false,
      "t": 184615.19999999925,
      "d": 375.87374999999884,
      "v": 104
    },
    {
      "midi": 61,
      "hit": false,
      "t": 184615.19999999925,
      "d": 375.87374999999884,
      "v": 104
    },
    {
      "midi": 33,
      "hit": false,
      "t": 184615.20000000024,
      "d": 423.9506249999977,
      "v": 99
    },
    {
      "midi": 55,
      "hit": false,
      "t": 184615.2000000004,
      "d": 87.41250000000582,
      "v": 50
    },
    {
      "midi": 45,
      "hit": false,
      "t": 184615.20000000187,
      "d": 170.45437500000116,
      "v": 58
    },
    {
      "midi": 52,
      "hit": false,
      "t": 184619.5706250004,
      "d": 196.67812500000582,
      "v": 59
    },
    {
      "midi": 64,
      "hit": false,
      "t": 184829.36062500082,
      "d": 4.370625000010477,
      "v": 55
    },
    {
      "midi": 45,
      "hit": false,
      "t": 184833.73125000187,
      "d": 1315.5581250000396,
      "v": 64
    },
    {
      "midi": 55,
      "hit": false,
      "t": 185034.7800000004,
      "d": 56.81812499999069,
      "v": 50
    },
    {
      "midi": 64,
      "hit": false,
      "t": 185034.7800000004,
      "d": 209.78999999997905,
      "v": 54
    },
    {
      "midi": 52,
      "hit": false,
      "t": 185034.7800000004,
      "d": 222.90187499998137,
      "v": 64
    },
    {
      "midi": 52,
      "hit": false,
      "t": 185034.78000000186,
      "d": 91.7831250000163,
      "v": 59
    },
    {
      "midi": 61,
      "hit": false,
      "t": 185034.78000000186,
      "d": 91.7831250000163,
      "v": 52
    },
    {
      "midi": 63,
      "hit": false,
      "t": 185039.15062500082,
      "d": 4.370625000010477,
      "v": 86
    },
    {
      "midi": 55,
      "hit": false,
      "t": 185039.15062500187,
      "d": 104.89500000001863,
      "v": 48
    },
    {
      "midi": 64,
      "hit": false,
      "t": 185043.52125000188,
      "d": 74.30062500000349,
      "v": 62
    },
    {
      "midi": 62,
      "hit": false,
      "t": 185139.67500000083,
      "d": 4.370625000010477,
      "v": 72
    },
    {
      "midi": 55,
      "hit": false,
      "t": 185244.56999999925,
      "d": 187.93687500001397,
      "v": 104
    },
    {
      "midi": 57,
      "hit": false,
      "t": 185244.56999999925,
      "d": 187.93687500001397,
      "v": 104
    },
    {
      "midi": 61,
      "hit": false,
      "t": 185244.56999999925,
      "d": 187.93687500001397,
      "v": 104
    },
    {
      "midi": 33,
      "hit": false,
      "t": 185244.57000000024,
      "d": 91.7831249999872,
      "v": 99
    },
    {
      "midi": 49,
      "hit": false,
      "t": 185244.5700000019,
      "d": 170.45437500000116,
      "v": 68
    },
    {
      "midi": 63,
      "hit": false,
      "t": 185248.94062500083,
      "d": 4.370625000010477,
      "v": 86
    },
    {
      "midi": 55,
      "hit": false,
      "t": 185454.35999999926,
      "d": 375.87374999999884,
      "v": 104
    },
    {
      "midi": 57,
      "hit": false,
      "t": 185454.35999999926,
      "d": 375.87374999999884,
      "v": 104
    },
    {
      "midi": 61,
      "hit": false,
      "t": 185454.35999999926,
      "d": 375.87374999999884,
      "v": 104
    },
    {
      "midi": 33,
      "hit": false,
      "t": 185454.36000000022,
      "d": 415.2093750000058,
      "v": 99
    },
    {
      "midi": 52,
      "hit": false,
      "t": 185454.3600000004,
      "d": 118.00687499999185,
      "v": 63
    },
    {
      "midi": 52,
      "hit": false,
      "t": 185454.3600000019,
      "d": 170.45437500000116,
      "v": 63
    },
    {
      "midi": 76,
      "hit": false,
      "t": 185664.14999999985,
      "d": 187.93687500001397,
      "v": 104
    },
    {
      "midi": 64,
      "hit": false,
      "t": 185664.15000000037,
      "d": 847.9012499999953,
      "v": 45
    },
    {
      "midi": 55,
      "hit": false,
      "t": 185664.15000000192,
      "d": 388.98562500000116,
      "v": 48
    },
    {
      "midi": 61,
      "hit": false,
      "t": 185664.15000000192,
      "d": 388.98562500000116,
      "v": 59
    },
    {
      "midi": 64,
      "hit": false,
      "t": 185668.52062500085,
      "d": 4.370625000010477,
      "v": 92
    },
    {
      "midi": 52,
      "hit": false,
      "t": 185668.52062500193,
      "d": 388.98562500000116,
      "v": 67
    },
    {
      "midi": 64,
      "hit": false,
      "t": 185668.52062500193,
      "d": 388.98562500000116,
      "v": 67
    },
    {
      "midi": 78,
      "hit": false,
      "t": 185873.93999999986,
      "d": 187.93687500001397,
      "v": 104
    },
    {
      "midi": 63,
      "hit": false,
      "t": 185873.94000000085,
      "d": 4.370625000010477,
      "v": 86
    },
    {
      "midi": 55,
      "hit": false,
      "t": 186083.72999999925,
      "d": 187.93687500001397,
      "v": 104
    },
    {
      "midi": 57,
      "hit": false,
      "t": 186083.72999999925,
      "d": 187.93687500001397,
      "v": 104
    },
    {
      "midi": 61,
      "hit": false,
      "t": 186083.72999999925,
      "d": 187.93687500001397,
      "v": 104
    },
    {
      "midi": 80,
      "hit": false,
      "t": 186083.72999999986,
      "d": 187.93687500001397,
      "v": 104
    },
    {
      "midi": 33,
      "hit": false,
      "t": 186083.7300000002,
      "d": 91.7831249999872,
      "v": 99
    },
    {
      "midi": 55,
      "hit": false,
      "t": 186083.73000000036,
      "d": 26.223750000004657,
      "v": 37
    },
    {
      "midi": 52,
      "hit": false,
      "t": 186083.73000000036,
      "d": 201.0487500000163,
      "v": 35
    },
    {
      "midi": 63,
      "hit": false,
      "t": 186088.10062500086,
      "d": 4.370625000010477,
      "v": 92
    },
    {
      "midi": 50,
      "hit": false,
      "t": 186293.51999999926,
      "d": 375.87374999999884,
      "v": 104
    },
    {
      "midi": 57,
      "hit": false,
      "t": 186293.51999999926,
      "d": 375.87374999999884,
      "v": 104
    },
    {
      "midi": 81,
      "hit": false,
      "t": 186293.51999999987,
      "d": 375.87374999999884,
      "v": 104
    },
    {
      "midi": 38,
      "hit": false,
      "t": 186293.5200000002,
      "d": 506.992499999993,
      "v": 99
    },
    {
      "midi": 62,
      "hit": false,
      "t": 186293.52000000037,
      "d": 244.75500000000466,
      "v": 56
    },
    {
      "midi": 66,
      "hit": false,
      "t": 186293.52000000037,
      "d": 288.461249999993,
      "v": 56
    },
    {
      "midi": 82,
      "hit": false,
      "t": 186293.52000000086,
      "d": 39.335625000006985,
      "v": 82
    },
    {
      "midi": 38,
      "hit": false,
      "t": 186293.5200000019,
      "d": 196.67812500000582,
      "v": 58
    },
    {
      "midi": 61,
      "hit": false,
      "t": 186302.26125000085,
      "d": 4.370625000010477,
      "v": 62
    },
    {
      "midi": 57,
      "hit": false,
      "t": 186507.68062500036,
      "d": 375.87374999999884,
      "v": 38
    },
    {
      "midi": 82,
      "hit": false,
      "t": 186512.05125000086,
      "d": 30.59437499998603,
      "v": 42
    },
    {
      "midi": 64,
      "hit": false,
      "t": 186616.94625000085,
      "d": 4.370625000010477,
      "v": 37
    },
    {
      "midi": 57,
      "hit": false,
      "t": 186708.72937500192,
      "d": 616.2581250000221,
      "v": 67
    },
    {
      "midi": 66,
      "hit": false,
      "t": 186708.72937500192,
      "d": 616.2581250000221,
      "v": 67
    },
    {
      "midi": 78,
      "hit": false,
      "t": 186713.09999999986,
      "d": 187.93687500001397,
      "v": 104
    },
    {
      "midi": 50,
      "hit": false,
      "t": 186713.10000000036,
      "d": 236.0137500000128,
      "v": 51
    },
    {
      "midi": 62,
      "hit": false,
      "t": 186713.10000000193,
      "d": 616.2581250000221,
      "v": 66
    },
    {
      "midi": 60,
      "hit": false,
      "t": 186721.84125000087,
      "d": 4.370625000010477,
      "v": 85
    },
    {
      "midi": 62,
      "hit": false,
      "t": 186721.84125000087,
      "d": 4.370625000010477,
      "v": 82
    },
    {
      "midi": 82,
      "hit": false,
      "t": 186721.84125000087,
      "d": 30.594375000015134,
      "v": 47
    },
    {
      "midi": 50,
      "hit": false,
      "t": 186922.88999999926,
      "d": 187.93687500001397,
      "v": 104
    },
    {
      "midi": 57,
      "hit": false,
      "t": 186922.88999999926,
      "d": 187.93687500001397,
      "v": 104
    },
    {
      "midi": 81,
      "hit": false,
      "t": 186922.88999999987,
      "d": 375.87374999999884,
      "v": 104
    },
    {
      "midi": 38,
      "hit": false,
      "t": 186922.8900000002,
      "d": 78.67125000001397,
      "v": 99
    },
    {
      "midi": 82,
      "hit": false,
      "t": 186922.8900000009,
      "d": 39.335625000006985,
      "v": 82
    },
    {
      "midi": 61,
      "hit": false,
      "t": 186931.63125000088,
      "d": 4.370625000010477,
      "v": 70
    },
    {
      "midi": 64,
      "hit": false,
      "t": 186931.63125000088,
      "d": 4.370625000010477,
      "v": 82
    },
    {
      "midi": 50,
      "hit": false,
      "t": 187132.67999999927,
      "d": 375.87374999999884,
      "v": 104
    },
    {
      "midi": 57,
      "hit": false,
      "t": 187132.67999999927,
      "d": 375.87374999999884,
      "v": 104
    },
    {
      "midi": 38,
      "hit": false,
      "t": 187132.6800000002,
      "d": 502.62187500001164,
      "v": 99
    },
    {
      "midi": 62,
      "hit": false,
      "t": 187132.68000000037,
      "d": 275.3493750000198,
      "v": 60
    },
    {
      "midi": 66,
      "hit": false,
      "t": 187132.68000000037,
      "d": 620.6287500000326,
      "v": 59
    },
    {
      "midi": 57,
      "hit": false,
      "t": 187137.05062500038,
      "d": 270.9787500000093,
      "v": 60
    },
    {
      "midi": 82,
      "hit": false,
      "t": 187141.4212500009,
      "d": 30.59437499998603,
      "v": 53
    },
    {
      "midi": 62,
      "hit": false,
      "t": 187338.09937500194,
      "d": 388.98562500000116,
      "v": 67
    },
    {
      "midi": 66,
      "hit": false,
      "t": 187338.09937500194,
      "d": 388.98562500000116,
      "v": 67
    },
    {
      "midi": 78,
      "hit": false,
      "t": 187342.46999999986,
      "d": 375.87374999999884,
      "v": 104
    },
    {
      "midi": 82,
      "hit": false,
      "t": 187342.47000000087,
      "d": 30.59437499998603,
      "v": 39
    },
    {
      "midi": 57,
      "hit": false,
      "t": 187342.47000000195,
      "d": 598.7756249999802,
      "v": 67
    },
    {
      "midi": 64,
      "hit": false,
      "t": 187456.10625000086,
      "d": 4.370625000010477,
      "v": 73
    },
    {
      "midi": 50,
      "hit": false,
      "t": 187556.6306250004,
      "d": 144.2306249999965,
      "v": 60
    },
    {
      "midi": 62,
      "hit": false,
      "t": 187556.63062500086,
      "d": 4.370625000010477,
      "v": 88
    },
    {
      "midi": 60,
      "hit": false,
      "t": 187561.00125000087,
      "d": 4.370625000010477,
      "v": 82
    },
    {
      "midi": 82,
      "hit": false,
      "t": 187561.00125000087,
      "d": 39.335625000006985,
      "v": 82
    },
    {
      "midi": 50,
      "hit": false,
      "t": 187762.04999999926,
      "d": 187.93687500001397,
      "v": 104
    },
    {
      "midi": 57,
      "hit": false,
      "t": 187762.04999999926,
      "d": 187.93687500001397,
      "v": 104
    },
    {
      "midi": 81,
      "hit": false,
      "t": 187762.04999999984,
      "d": 187.93687500001397,
      "v": 104
    },
    {
      "midi": 33,
      "hit": false,
      "t": 187762.05000000022,
      "d": 74.30062500000349,
      "v": 99
    },
    {
      "midi": 62,
      "hit": false,
      "t": 187762.0500000004,
      "d": 297.20250000001397,
      "v": 43
    },
    {
      "midi": 57,
      "hit": false,
      "t": 187766.4206250004,
      "d": 292.8318750000035,
      "v": 43
    },
    {
      "midi": 63,
      "hit": false,
      "t": 187766.42062500087,
      "d": 4.370625000010477,
      "v": 82
    },
    {
      "midi": 61,
      "hit": false,
      "t": 187770.79125000088,
      "d": 4.370625000010477,
      "v": 62
    },
    {
      "midi": 82,
      "hit": false,
      "t": 187770.79125000088,
      "d": 30.594375000015134,
      "v": 58
    },
    {
      "midi": 62,
      "hit": false,
      "t": 187967.46937500194,
      "d": 4.370625000010477,
      "v": 59
    },
    {
      "midi": 66,
      "hit": false,
      "t": 187967.46937500194,
      "d": 4.370625000010477,
      "v": 63
    },
    {
      "midi": 52,
      "hit": false,
      "t": 187971.83999999927,
      "d": 375.87374999999884,
      "v": 104
    },
    {
      "midi": 56,
      "hit": false,
      "t": 187971.83999999927,
      "d": 375.87374999999884,
      "v": 104
    },
    {
      "midi": 83,
      "hit": false,
      "t": 187971.83999999985,
      "d": 751.7474999999977,
      "v": 104
    },
    {
      "midi": 28,
      "hit": false,
      "t": 187971.84000000023,
      "d": 607.5168750000012,
      "v": 99
    },
    {
      "midi": 56,
      "hit": false,
      "t": 187971.8400000004,
      "d": 489.5100000000093,
      "v": 60
    },
    {
      "midi": 56,
      "hit": false,
      "t": 187976.21062500196,
      "d": 196.67812500000582,
      "v": 61
    },
    {
      "midi": 82,
      "hit": false,
      "t": 187980.5812500009,
      "d": 30.59437499998603,
      "v": 34
    },
    {
      "midi": 64,
      "hit": false,
      "t": 188186.0006250009,
      "d": 4.370625000010477,
      "v": 55
    },
    {
      "midi": 82,
      "hit": false,
      "t": 188190.3712500009,
      "d": 30.59437499998603,
      "v": 39
    },
    {
      "midi": 56,
      "hit": false,
      "t": 188387.04937500195,
      "d": 1053.3206250000221,
      "v": 67
    },
    {
      "midi": 64,
      "hit": false,
      "t": 188391.42000000196,
      "d": 1048.9500000000116,
      "v": 67
    },
    {
      "midi": 59,
      "hit": false,
      "t": 188395.7906250004,
      "d": 65.55937500001164,
      "v": 60
    },
    {
      "midi": 64,
      "hit": false,
      "t": 188395.7906250004,
      "d": 218.53125,
      "v": 52
    },
    {
      "midi": 59,
      "hit": false,
      "t": 188395.79062500197,
      "d": 1044.5793750000012,
      "v": 67
    },
    {
      "midi": 60,
      "hit": false,
      "t": 188400.16125000088,
      "d": 4.370625000010477,
      "v": 82
    },
    {
      "midi": 62,
      "hit": false,
      "t": 188400.16125000088,
      "d": 4.370625000010477,
      "v": 82
    },
    {
      "midi": 82,
      "hit": false,
      "t": 188400.16125000088,
      "d": 39.335625000006985,
      "v": 82
    },
    {
      "midi": 52,
      "hit": false,
      "t": 188601.20999999926,
      "d": 187.93687500001397,
      "v": 104
    },
    {
      "midi": 56,
      "hit": false,
      "t": 188601.20999999926,
      "d": 187.93687500001397,
      "v": 104
    },
    {
      "midi": 35,
      "hit": false,
      "t": 188601.21000000022,
      "d": 131.11874999999418,
      "v": 98
    },
    {
      "midi": 82,
      "hit": false,
      "t": 188601.2100000009,
      "d": 30.594375000044238,
      "v": 42
    },
    {
      "midi": 56,
      "hit": false,
      "t": 188605.5806250004,
      "d": 323.4262499999895,
      "v": 43
    },
    {
      "midi": 62,
      "hit": false,
      "t": 188605.5806250009,
      "d": 4.370625000010477,
      "v": 68
    },
    {
      "midi": 61,
      "hit": false,
      "t": 188609.95125000092,
      "d": 4.370625000010477,
      "v": 82
    },
    {
      "midi": 52,
      "hit": false,
      "t": 188810.99999999927,
      "d": 375.87374999999884,
      "v": 104
    },
    {
      "midi": 56,
      "hit": false,
      "t": 188810.99999999927,
      "d": 375.87374999999884,
      "v": 104
    },
    {
      "midi": 35,
      "hit": false,
      "t": 188811.00000000023,
      "d": 572.5518750000047,
      "v": 99
    },
    {
      "midi": 59,
      "hit": false,
      "t": 188811.0000000004,
      "d": 148.60124999997788,
      "v": 60
    },
    {
      "midi": 68,
      "hit": false,
      "t": 188811.0000000004,
      "d": 148.60124999997788,
      "v": 60
    },
    {
      "midi": 64,
      "hit": false,
      "t": 188811.00000000093,
      "d": 4.370625000010477,
      "v": 82
    },
    {
      "midi": 82,
      "hit": false,
      "t": 188819.74125000095,
      "d": 30.59437499998603,
      "v": 52
    },
    {
      "midi": 76,
      "hit": false,
      "t": 189020.78999999986,
      "d": 187.93687500001397,
      "v": 104
    },
    {
      "midi": 59,
      "hit": false,
      "t": 189020.7900000004,
      "d": 603.1462499999616,
      "v": 40
    },
    {
      "midi": 82,
      "hit": false,
      "t": 189020.79000000094,
      "d": 39.335625000006985,
      "v": 82
    },
    {
      "midi": 63,
      "hit": false,
      "t": 189029.53125000093,
      "d": 4.370625000010477,
      "v": 82
    },
    {
      "midi": 78,
      "hit": false,
      "t": 189230.57999999987,
      "d": 187.93687500001397,
      "v": 104
    },
    {
      "midi": 82,
      "hit": false,
      "t": 189230.58000000095,
      "d": 30.594375000015134,
      "v": 45
    },
    {
      "midi": 60,
      "hit": false,
      "t": 189239.32125000094,
      "d": 4.370625000010477,
      "v": 82
    },
    {
      "midi": 62,
      "hit": false,
      "t": 189239.32125000094,
      "d": 4.370625000010477,
      "v": 95
    },
    {
      "midi": 60,
      "hit": false,
      "t": 189335.47500000097,
      "d": 4.370625000010477,
      "v": 59
    },
    {
      "midi": 52,
      "hit": false,
      "t": 189440.36999999927,
      "d": 187.93687500001397,
      "v": 104
    },
    {
      "midi": 56,
      "hit": false,
      "t": 189440.36999999927,
      "d": 187.93687500001397,
      "v": 104
    },
    {
      "midi": 80,
      "hit": false,
      "t": 189440.36999999988,
      "d": 563.8106250000128,
      "v": 104
    },
    {
      "midi": 37,
      "hit": false,
      "t": 189440.37000000023,
      "d": 144.2306249999965,
      "v": 94
    },
    {
      "midi": 56,
      "hit": false,
      "t": 189440.37000000037,
      "d": 139.85999999998603,
      "v": 37
    },
    {
      "midi": 61,
      "hit": false,
      "t": 189440.37000000037,
      "d": 139.85999999998603,
      "v": 40
    },
    {
      "midi": 64,
      "hit": false,
      "t": 189440.37000000037,
      "d": 183.5662499999744,
      "v": 40
    },
    {
      "midi": 49,
      "hit": false,
      "t": 189440.37000000037,
      "d": 201.0487499999872,
      "v": 35
    },
    {
      "midi": 60,
      "hit": false,
      "t": 189440.37000000098,
      "d": 4.370625000010477,
      "v": 42
    },
    {
      "midi": 64,
      "hit": false,
      "t": 189440.37000000098,
      "d": 4.370625000010477,
      "v": 82
    },
    {
      "midi": 52,
      "hit": false,
      "t": 189440.37000000197,
      "d": 78.67125000001397,
      "v": 47
    },
    {
      "midi": 56,
      "hit": false,
      "t": 189440.37000000197,
      "d": 78.67125000001397,
      "v": 55
    },
    {
      "midi": 82,
      "hit": false,
      "t": 189444.740625001,
      "d": 30.59437499998603,
      "v": 67
    },
    {
      "midi": 49,
      "hit": false,
      "t": 189650.15999999928,
      "d": 375.87374999999884,
      "v": 104
    },
    {
      "midi": 56,
      "hit": false,
      "t": 189650.15999999928,
      "d": 375.87374999999884,
      "v": 104
    },
    {
      "midi": 37,
      "hit": false,
      "t": 189650.16000000024,
      "d": 506.992499999993,
      "v": 99
    },
    {
      "midi": 49,
      "hit": false,
      "t": 189650.16000000035,
      "d": 83.04187499999534,
      "v": 76
    },
    {
      "midi": 82,
      "hit": false,
      "t": 189650.160000001,
      "d": 39.335625000006985,
      "v": 82
    },
    {
      "midi": 52,
      "hit": false,
      "t": 189650.16000000198,
      "d": 78.67125000001397,
      "v": 47
    },
    {
      "midi": 61,
      "hit": false,
      "t": 189650.16000000198,
      "d": 78.67125000001397,
      "v": 51
    },
    {
      "midi": 37,
      "hit": false,
      "t": 189650.16000000198,
      "d": 196.67812500000582,
      "v": 58
    },
    {
      "midi": 61,
      "hit": false,
      "t": 189658.90125000098,
      "d": 4.370625000010477,
      "v": 62
    },
    {
      "midi": 49,
      "hit": false,
      "t": 189859.95000000036,
      "d": 253.4962499999965,
      "v": 28
    },
    {
      "midi": 82,
      "hit": false,
      "t": 189868.691250001,
      "d": 30.59437499998603,
      "v": 42
    },
    {
      "midi": 64,
      "hit": false,
      "t": 189973.58625000098,
      "d": 4.370625000010477,
      "v": 37
    },
    {
      "midi": 76,
      "hit": false,
      "t": 190069.7399999999,
      "d": 187.93687500001397,
      "v": 104
    },
    {
      "midi": 56,
      "hit": false,
      "t": 190069.74000000037,
      "d": 201.0487499999872,
      "v": 57
    },
    {
      "midi": 61,
      "hit": false,
      "t": 190069.74000000037,
      "d": 476.398125000007,
      "v": 61
    },
    {
      "midi": 61,
      "hit": false,
      "t": 190069.740000002,
      "d": 922.2018750000279,
      "v": 62
    },
    {
      "midi": 68,
      "hit": false,
      "t": 190074.110625002,
      "d": 922.2018750000279,
      "v": 62
    },
    {
      "midi": 64,
      "hit": false,
      "t": 190078.48125000036,
      "d": 463.28625000000466,
      "v": 64
    },
    {
      "midi": 60,
      "hit": false,
      "t": 190078.481250001,
      "d": 4.370625000010477,
      "v": 85
    },
    {
      "midi": 62,
      "hit": false,
      "t": 190078.481250001,
      "d": 4.370625000010477,
      "v": 82
    },
    {
      "midi": 82,
      "hit": false,
      "t": 190078.481250001,
      "d": 30.594375000015134,
      "v": 47
    },
    {
      "midi": 56,
      "hit": false,
      "t": 190078.48125000202,
      "d": 922.2018750000279,
      "v": 61
    },
    {
      "midi": 49,
      "hit": false,
      "t": 190279.52999999927,
      "d": 187.93687500001397,
      "v": 104
    },
    {
      "midi": 56,
      "hit": false,
      "t": 190279.52999999927,
      "d": 187.93687500001397,
      "v": 104
    },
    {
      "midi": 80,
      "hit": false,
      "t": 190279.5299999999,
      "d": 375.87374999999884,
      "v": 104
    },
    {
      "midi": 37,
      "hit": false,
      "t": 190279.53000000023,
      "d": 78.67125000001397,
      "v": 99
    },
    {
      "midi": 82,
      "hit": false,
      "t": 190279.53000000102,
      "d": 39.335625000006985,
      "v": 82
    },
    {
      "midi": 61,
      "hit": false,
      "t": 190288.271250001,
      "d": 4.370625000010477,
      "v": 70
    },
    {
      "midi": 64,
      "hit": false,
      "t": 190288.271250001,
      "d": 4.370625000010477,
      "v": 82
    },
    {
      "midi": 49,
      "hit": false,
      "t": 190489.31999999928,
      "d": 375.87374999999884,
      "v": 104
    },
    {
      "midi": 56,
      "hit": false,
      "t": 190489.31999999928,
      "d": 375.87374999999884,
      "v": 104
    },
    {
      "midi": 37,
      "hit": false,
      "t": 190489.32000000024,
      "d": 502.62187500001164,
      "v": 99
    },
    {
      "midi": 49,
      "hit": false,
      "t": 190489.32000000036,
      "d": 222.90187500001048,
      "v": 63
    },
    {
      "midi": 56,
      "hit": false,
      "t": 190489.32000000036,
      "d": 712.4118750000489,
      "v": 54
    },
    {
      "midi": 82,
      "hit": false,
      "t": 190498.06125000102,
      "d": 30.59437499998603,
      "v": 53
    },
    {
      "midi": 76,
      "hit": false,
      "t": 190699.1099999999,
      "d": 375.87374999999884,
      "v": 104
    },
    {
      "midi": 64,
      "hit": false,
      "t": 190699.11000000036,
      "d": 568.1812500000524,
      "v": 45
    },
    {
      "midi": 82,
      "hit": false,
      "t": 190699.110000001,
      "d": 30.59437499998603,
      "v": 39
    },
    {
      "midi": 64,
      "hit": false,
      "t": 190812.746250001,
      "d": 4.370625000010477,
      "v": 73
    },
    {
      "midi": 62,
      "hit": false,
      "t": 190913.270625001,
      "d": 4.370625000010477,
      "v": 88
    },
    {
      "midi": 60,
      "hit": false,
      "t": 190917.641250001,
      "d": 4.370625000010477,
      "v": 82
    },
    {
      "midi": 82,
      "hit": false,
      "t": 190917.641250001,
      "d": 39.335625000006985,
      "v": 82
    },
    {
      "midi": 49,
      "hit": false,
      "t": 191118.68999999927,
      "d": 187.93687500001397,
      "v": 104
    },
    {
      "midi": 56,
      "hit": false,
      "t": 191118.68999999927,
      "d": 187.93687500001397,
      "v": 104
    },
    {
      "midi": 83,
      "hit": false,
      "t": 191118.6899999999,
      "d": 563.8106250000128,
      "v": 104
    },
    {
      "midi": 37,
      "hit": false,
      "t": 191118.69000000026,
      "d": 74.30062500000349,
      "v": 99
    },
    {
      "midi": 63,
      "hit": false,
      "t": 191123.060625001,
      "d": 4.370625000010477,
      "v": 82
    },
    {
      "midi": 54,
      "hit": false,
      "t": 191123.06062500205,
      "d": 205.41937499999767,
      "v": 61
    },
    {
      "midi": 66,
      "hit": false,
      "t": 191123.06062500205,
      "d": 205.41937499999767,
      "v": 66
    },
    {
      "midi": 61,
      "hit": false,
      "t": 191127.431250001,
      "d": 4.370625000010477,
      "v": 62
    },
    {
      "midi": 82,
      "hit": false,
      "t": 191127.431250001,
      "d": 30.594375000015134,
      "v": 58
    },
    {
      "midi": 49,
      "hit": false,
      "t": 191127.43125000206,
      "d": 201.0487499999872,
      "v": 46
    },
    {
      "midi": 54,
      "hit": false,
      "t": 191328.47999999928,
      "d": 375.87374999999884,
      "v": 104
    },
    {
      "midi": 57,
      "hit": false,
      "t": 191328.47999999928,
      "d": 375.87374999999884,
      "v": 104
    },
    {
      "midi": 30,
      "hit": false,
      "t": 191328.48000000027,
      "d": 187.93687500001397,
      "v": 99
    },
    {
      "midi": 57,
      "hit": false,
      "t": 191328.48000000042,
      "d": 87.41250000000582,
      "v": 56
    },
    {
      "midi": 61,
      "hit": false,
      "t": 191328.48000000042,
      "d": 87.41250000000582,
      "v": 56
    },
    {
      "midi": 66,
      "hit": false,
      "t": 191328.48000000042,
      "d": 161.7131249999802,
      "v": 56
    },
    {
      "midi": 42,
      "hit": false,
      "t": 191328.48000000205,
      "d": 196.67812500000582,
      "v": 58
    },
    {
      "midi": 62,
      "hit": false,
      "t": 191337.22125000102,
      "d": 4.370625000010477,
      "v": 62
    },
    {
      "midi": 82,
      "hit": false,
      "t": 191542.64062500102,
      "d": 30.59437499998603,
      "v": 81
    },
    {
      "midi": 81,
      "hit": false,
      "t": 191748.0599999999,
      "d": 187.93687500001397,
      "v": 104
    },
    {
      "midi": 30,
      "hit": false,
      "t": 191748.0600000003,
      "d": 808.5656249999884,
      "v": 98
    },
    {
      "midi": 66,
      "hit": false,
      "t": 191748.0600000004,
      "d": 1127.6212499999965,
      "v": 59
    },
    {
      "midi": 61,
      "hit": false,
      "t": 191748.0600000004,
      "d": 1158.2156249999825,
      "v": 60
    },
    {
      "midi": 61,
      "hit": false,
      "t": 191748.06000000102,
      "d": 4.370625000010477,
      "v": 85
    },
    {
      "midi": 57,
      "hit": false,
      "t": 191752.43062500042,
      "d": 1153.844999999972,
      "v": 60
    },
    {
      "midi": 63,
      "hit": false,
      "t": 191752.43062500103,
      "d": 4.370625000010477,
      "v": 86
    },
    {
      "midi": 82,
      "hit": false,
      "t": 191752.43062500103,
      "d": 30.594375000015134,
      "v": 82
    },
    {
      "midi": 54,
      "hit": false,
      "t": 191756.80125000206,
      "d": 607.5168750000012,
      "v": 57
    },
    {
      "midi": 57,
      "hit": false,
      "t": 191756.80125000206,
      "d": 607.5168750000012,
      "v": 57
    },
    {
      "midi": 66,
      "hit": false,
      "t": 191761.17187500207,
      "d": 607.5168750000012,
      "v": 57
    },
    {
      "midi": 54,
      "hit": false,
      "t": 191957.84999999928,
      "d": 187.93687500001397,
      "v": 104
    },
    {
      "midi": 57,
      "hit": false,
      "t": 191957.84999999928,
      "d": 187.93687500001397,
      "v": 104
    },
    {
      "midi": 80,
      "hit": false,
      "t": 191957.84999999992,
      "d": 375.87374999999884,
      "v": 104
    },
    {
      "midi": 54,
      "hit": false,
      "t": 192167.6399999993,
      "d": 375.87374999999884,
      "v": 104
    },
    {
      "midi": 57,
      "hit": false,
      "t": 192167.6399999993,
      "d": 375.87374999999884,
      "v": 104
    },
    {
      "midi": 81,
      "hit": false,
      "t": 192377.4299999999,
      "d": 375.87374999999884,
      "v": 104
    },
    {
      "midi": 62,
      "hit": false,
      "t": 192381.80062500105,
      "d": 4.370625000010477,
      "v": 99
    },
    {
      "midi": 37,
      "hit": false,
      "t": 192587.22000000026,
      "d": 209.79000000000815,
      "v": 99
    },
    {
      "midi": 61,
      "hit": false,
      "t": 192587.22000000105,
      "d": 4.370625000010477,
      "v": 85
    },
    {
      "midi": 66,
      "hit": false,
      "t": 192591.59062500208,
      "d": 69.93000000002212,
      "v": 66
    },
    {
      "midi": 64,
      "hit": false,
      "t": 192595.96125000107,
      "d": 4.370625000010477,
      "v": 86
    },
    {
      "midi": 49,
      "hit": false,
      "t": 192595.9612500021,
      "d": 52.44750000000931,
      "v": 66
    },
    {
      "midi": 57,
      "hit": false,
      "t": 192595.9612500021,
      "d": 61.188750000001164,
      "v": 66
    },
    {
      "midi": 54,
      "hit": false,
      "t": 192797.00999999928,
      "d": 187.93687500001397,
      "v": 104
    },
    {
      "midi": 57,
      "hit": false,
      "t": 192797.00999999928,
      "d": 187.93687500001397,
      "v": 104
    },
    {
      "midi": 76,
      "hit": false,
      "t": 192797.0099999999,
      "d": 939.6843750000116,
      "v": 104
    },
    {
      "midi": 30,
      "hit": false,
      "t": 192797.01000000027,
      "d": 179.19562499999302,
      "v": 99
    },
    {
      "midi": 64,
      "hit": false,
      "t": 192797.0100000011,
      "d": 4.370625000010477,
      "v": 65
    },
    {
      "midi": 47,
      "hit": false,
      "t": 193006.7999999993,
      "d": 375.87374999999884,
      "v": 104
    },
    {
      "midi": 50,
      "hit": false,
      "t": 193006.7999999993,
      "d": 375.87374999999884,
      "v": 104
    },
    {
      "midi": 54,
      "hit": false,
      "t": 193006.7999999993,
      "d": 375.87374999999884,
      "v": 104
    },
    {
      "midi": 35,
      "hit": false,
      "t": 193006.80000000025,
      "d": 423.9506249999977,
      "v": 99
    },
    {
      "midi": 47,
      "hit": false,
      "t": 193006.8000000021,
      "d": 170.45437500000116,
      "v": 58
    },
    {
      "midi": 47,
      "hit": false,
      "t": 193011.1706250004,
      "d": 196.67812500000582,
      "v": 59
    },
    {
      "midi": 64,
      "hit": false,
      "t": 193220.96062500108,
      "d": 4.370625000010477,
      "v": 55
    },
    {
      "midi": 54,
      "hit": false,
      "t": 193426.3800000004,
      "d": 56.81812499999069,
      "v": 50
    },
    {
      "midi": 62,
      "hit": false,
      "t": 193426.3800000004,
      "d": 209.78999999997905,
      "v": 54
    },
    {
      "midi": 47,
      "hit": false,
      "t": 193426.3800000004,
      "d": 222.90187499998137,
      "v": 64
    },
    {
      "midi": 50,
      "hit": false,
      "t": 193426.3800000021,
      "d": 91.7831250000163,
      "v": 59
    },
    {
      "midi": 59,
      "hit": false,
      "t": 193426.3800000021,
      "d": 91.7831250000163,
      "v": 52
    },
    {
      "midi": 63,
      "hit": false,
      "t": 193430.7506250011,
      "d": 4.370625000010477,
      "v": 86
    },
    {
      "midi": 54,
      "hit": false,
      "t": 193430.7506250021,
      "d": 104.89500000001863,
      "v": 48
    },
    {
      "midi": 66,
      "hit": false,
      "t": 193435.12125000212,
      "d": 74.30062500000349,
      "v": 62
    },
    {
      "midi": 62,
      "hit": false,
      "t": 193531.2750000011,
      "d": 4.370625000010477,
      "v": 72
    },
    {
      "midi": 47,
      "hit": false,
      "t": 193636.16999999929,
      "d": 187.93687500001397,
      "v": 104
    },
    {
      "midi": 50,
      "hit": false,
      "t": 193636.16999999929,
      "d": 187.93687500001397,
      "v": 104
    },
    {
      "midi": 54,
      "hit": false,
      "t": 193636.16999999929,
      "d": 187.93687500001397,
      "v": 104
    },
    {
      "midi": 35,
      "hit": false,
      "t": 193636.17000000025,
      "d": 91.7831249999872,
      "v": 99
    },
    {
      "midi": 47,
      "hit": false,
      "t": 193636.17000000214,
      "d": 170.45437500000116,
      "v": 68
    },
    {
      "midi": 63,
      "hit": false,
      "t": 193640.5406250011,
      "d": 4.370625000010477,
      "v": 86
    },
    {
      "midi": 47,
      "hit": false,
      "t": 193845.9599999993,
      "d": 375.87374999999884,
      "v": 104
    },
    {
      "midi": 50,
      "hit": false,
      "t": 193845.9599999993,
      "d": 375.87374999999884,
      "v": 104
    },
    {
      "midi": 54,
      "hit": false,
      "t": 193845.9599999993,
      "d": 375.87374999999884,
      "v": 104
    },
    {
      "midi": 35,
      "hit": false,
      "t": 193845.96000000022,
      "d": 415.2093750000058,
      "v": 99
    },
    {
      "midi": 47,
      "hit": false,
      "t": 193845.9600000004,
      "d": 118.00687499999185,
      "v": 63
    },
    {
      "midi": 50,
      "hit": false,
      "t": 193845.96000000215,
      "d": 170.45437500000116,
      "v": 63
    },
    {
      "midi": 62,
      "hit": false,
      "t": 194055.75000000038,
      "d": 847.9012499999953,
      "v": 45
    },
    {
      "midi": 54,
      "hit": false,
      "t": 194055.75000000215,
      "d": 388.98562500000116,
      "v": 48
    },
    {
      "midi": 59,
      "hit": false,
      "t": 194055.75000000215,
      "d": 388.98562500000116,
      "v": 59
    },
    {
      "midi": 64,
      "hit": false,
      "t": 194060.12062500112,
      "d": 4.370625000010477,
      "v": 92
    },
    {
      "midi": 50,
      "hit": false,
      "t": 194060.12062500216,
      "d": 388.98562500000116,
      "v": 67
    },
    {
      "midi": 66,
      "hit": false,
      "t": 194060.12062500216,
      "d": 388.98562500000116,
      "v": 67
    },
    {
      "midi": 63,
      "hit": false,
      "t": 194265.5400000011,
      "d": 4.370625000010477,
      "v": 86
    },
    {
      "midi": 47,
      "hit": false,
      "t": 194475.3299999993,
      "d": 187.93687500001397,
      "v": 104
    },
    {
      "midi": 50,
      "hit": false,
      "t": 194475.3299999993,
      "d": 187.93687500001397,
      "v": 104
    },
    {
      "midi": 54,
      "hit": false,
      "t": 194475.3299999993,
      "d": 187.93687500001397,
      "v": 104
    },
    {
      "midi": 69,
      "hit": false,
      "t": 194475.3299999999,
      "d": 187.93687500001397,
      "v": 104
    },
    {
      "midi": 35,
      "hit": false,
      "t": 194475.33000000022,
      "d": 91.7831249999872,
      "v": 99
    },
    {
      "midi": 54,
      "hit": false,
      "t": 194475.33000000037,
      "d": 26.223750000004657,
      "v": 37
    },
    {
      "midi": 47,
      "hit": false,
      "t": 194475.33000000037,
      "d": 201.0487500000163,
      "v": 35
    },
    {
      "midi": 63,
      "hit": false,
      "t": 194479.70062500113,
      "d": 4.370625000010477,
      "v": 92
    },
    {
      "midi": 52,
      "hit": false,
      "t": 194685.1199999993,
      "d": 375.87374999999884,
      "v": 104
    },
    {
      "midi": 59,
      "hit": false,
      "t": 194685.1199999993,
      "d": 375.87374999999884,
      "v": 104
    },
    {
      "midi": 62,
      "hit": false,
      "t": 194685.1199999993,
      "d": 375.87374999999884,
      "v": 104
    },
    {
      "midi": 74,
      "hit": false,
      "t": 194685.1199999999,
      "d": 375.87374999999884,
      "v": 104
    },
    {
      "midi": 28,
      "hit": false,
      "t": 194685.1200000002,
      "d": 506.992499999993,
      "v": 98
    },
    {
      "midi": 47,
      "hit": false,
      "t": 194685.12000000037,
      "d": 222.90187500001048,
      "v": 64
    },
    {
      "midi": 40,
      "hit": false,
      "t": 194685.12000000215,
      "d": 196.67812500003492,
      "v": 58
    },
    {
      "midi": 59,
      "hit": false,
      "t": 194689.49062500038,
      "d": 196.67812500000582,
      "v": 59
    },
    {
      "midi": 54,
      "hit": false,
      "t": 194689.49062500216,
      "d": 397.7268750000221,
      "v": 63
    },
    {
      "midi": 59,
      "hit": false,
      "t": 194693.86125000217,
      "d": 397.7268750000221,
      "v": 59
    },
    {
      "midi": 66,
      "hit": false,
      "t": 194693.86125000217,
      "d": 397.7268750000221,
      "v": 59
    },
    {
      "midi": 64,
      "hit": false,
      "t": 194899.28062500112,
      "d": 4.370625000010477,
      "v": 55
    },
    {
      "midi": 40,
      "hit": false,
      "t": 194903.65125000218,
      "d": 1459.7887500000652,
      "v": 64
    },
    {
      "midi": 73,
      "hit": false,
      "t": 195104.6999999999,
      "d": 187.93687500001397,
      "v": 104
    },
    {
      "midi": 63,
      "hit": false,
      "t": 195109.07062500113,
      "d": 4.370625000010477,
      "v": 86
    },
    {
      "midi": 52,
      "hit": false,
      "t": 195314.4899999993,
      "d": 187.93687500001397,
      "v": 104
    },
    {
      "midi": 59,
      "hit": false,
      "t": 195314.4899999993,
      "d": 187.93687500001397,
      "v": 104
    },
    {
      "midi": 62,
      "hit": false,
      "t": 195314.4899999993,
      "d": 187.93687500001397,
      "v": 104
    },
    {
      "midi": 69,
      "hit": false,
      "t": 195314.4899999999,
      "d": 375.87374999999884,
      "v": 104
    },
    {
      "midi": 40,
      "hit": false,
      "t": 195314.4900000002,
      "d": 502.62187500001164,
      "v": 98
    },
    {
      "midi": 62,
      "hit": false,
      "t": 195318.86062500114,
      "d": 4.370625000010477,
      "v": 86
    },
    {
      "midi": 52,
      "hit": false,
      "t": 195524.2799999993,
      "d": 375.87374999999884,
      "v": 104
    },
    {
      "midi": 59,
      "hit": false,
      "t": 195524.2799999993,
      "d": 375.87374999999884,
      "v": 104
    },
    {
      "midi": 62,
      "hit": false,
      "t": 195524.2799999993,
      "d": 375.87374999999884,
      "v": 104
    },
    {
      "midi": 54,
      "hit": false,
      "t": 195528.6506250022,
      "d": 397.7268750000221,
      "v": 63
    },
    {
      "midi": 59,
      "hit": false,
      "t": 195528.6506250022,
      "d": 397.7268750000221,
      "v": 63
    },
    {
      "midi": 66,
      "hit": false,
      "t": 195533.0212500022,
      "d": 397.7268750000221,
      "v": 59
    },
    {
      "midi": 71,
      "hit": false,
      "t": 195734.0699999999,
      "d": 375.87374999999884,
      "v": 104
    },
    {
      "midi": 62,
      "hit": false,
      "t": 195734.07000000039,
      "d": 109.265625,
      "v": 45
    },
    {
      "midi": 47,
      "hit": false,
      "t": 195734.07000000039,
      "d": 139.85999999998603,
      "v": 45
    },
    {
      "midi": 54,
      "hit": false,
      "t": 195734.07000000039,
      "d": 183.5662499999744,
      "v": 40
    },
    {
      "midi": 62,
      "hit": false,
      "t": 195738.44062500115,
      "d": 4.370625000010477,
      "v": 92
    },
    {
      "midi": 40,
      "hit": false,
      "t": 195943.86000000022,
      "d": 179.19562499999302,
      "v": 98
    },
    {
      "midi": 64,
      "hit": false,
      "t": 195943.86000000115,
      "d": 4.370625000010477,
      "v": 86
    },
    {
      "midi": 59,
      "hit": false,
      "t": 195952.60125000222,
      "d": 410.83875000002445,
      "v": 59
    },
    {
      "midi": 52,
      "hit": false,
      "t": 196153.6499999993,
      "d": 187.93687500001397,
      "v": 104
    },
    {
      "midi": 59,
      "hit": false,
      "t": 196153.6499999993,
      "d": 187.93687500001397,
      "v": 104
    },
    {
      "midi": 62,
      "hit": false,
      "t": 196153.6499999993,
      "d": 187.93687500001397,
      "v": 104
    },
    {
      "midi": 68,
      "hit": false,
      "t": 196153.64999999988,
      "d": 3203.6681249999965,
      "v": 104
    },
    {
      "midi": 70,
      "hit": false,
      "t": 196153.64999999988,
      "d": 3203.6681249999965,
      "v": 104
    },
    {
      "midi": 73,
      "hit": false,
      "t": 196153.64999999988,
      "d": 3203.6681249999965,
      "v": 104
    },
    {
      "midi": 54,
      "hit": false,
      "t": 196153.65000000034,
      "d": 187.93687500001397,
      "v": 37
    },
    {
      "midi": 47,
      "hit": false,
      "t": 196153.65000000034,
      "d": 201.0487500000163,
      "v": 35
    },
    {
      "midi": 50,
      "hit": false,
      "t": 196153.6500000022,
      "d": 83.04187500002445,
      "v": 55
    },
    {
      "midi": 64,
      "hit": false,
      "t": 196158.02062500117,
      "d": 4.370625000010477,
      "v": 92
    },
    {
      "midi": 66,
      "hit": false,
      "t": 196158.02062500222,
      "d": 83.04187500002445,
      "v": 55
    },
    {
      "midi": 54,
      "hit": false,
      "t": 196363.4399999993,
      "d": 375.87374999999884,
      "v": 104
    },
    {
      "midi": 58,
      "hit": false,
      "t": 196363.4399999993,
      "d": 375.87374999999884,
      "v": 104
    },
    {
      "midi": 61,
      "hit": false,
      "t": 196363.4399999993,
      "d": 375.87374999999884,
      "v": 104
    },
    {
      "midi": 30,
      "hit": false,
      "t": 196363.4400000002,
      "d": 397.726874999993,
      "v": 99
    },
    {
      "midi": 61,
      "hit": false,
      "t": 196363.44000000224,
      "d": 104.89499999998952,
      "v": 57
    },
    {
      "midi": 42,
      "hit": false,
      "t": 196363.44000000224,
      "d": 1429.194375000021,
      "v": 64
    },
    {
      "midi": 49,
      "hit": false,
      "t": 196367.81062500036,
      "d": 135.48937500000466,
      "v": 71
    },
    {
      "midi": 61,
      "hit": false,
      "t": 196573.23000000036,
      "d": 249.12562500001513,
      "v": 42
    },
    {
      "midi": 58,
      "hit": false,
      "t": 196577.60062500037,
      "d": 253.4962499999965,
      "v": 46
    },
    {
      "midi": 64,
      "hit": false,
      "t": 196577.60062500119,
      "d": 4.370625000010477,
      "v": 67
    },
    {
      "midi": 68,
      "hit": false,
      "t": 196581.97125000038,
      "d": 279.71999999997206,
      "v": 52
    },
    {
      "midi": 64,
      "hit": false,
      "t": 196682.4956250012,
      "d": 4.370625000010477,
      "v": 79
    },
    {
      "midi": 58,
      "hit": false,
      "t": 196778.64937500222,
      "d": 616.2581250000221,
      "v": 67
    },
    {
      "midi": 68,
      "hit": false,
      "t": 196778.64937500222,
      "d": 616.2581250000221,
      "v": 67
    },
    {
      "midi": 37,
      "hit": false,
      "t": 196783.0200000002,
      "d": 808.5656249999884,
      "v": 98
    },
    {
      "midi": 61,
      "hit": false,
      "t": 196783.02000000223,
      "d": 616.2581250000221,
      "v": 66
    },
    {
      "midi": 62,
      "hit": false,
      "t": 196787.39062500122,
      "d": 4.370625000010477,
      "v": 93
    },
    {
      "midi": 54,
      "hit": false,
      "t": 196992.8099999993,
      "d": 187.93687500001397,
      "v": 104
    },
    {
      "midi": 58,
      "hit": false,
      "t": 196992.8099999993,
      "d": 187.93687500001397,
      "v": 104
    },
    {
      "midi": 61,
      "hit": false,
      "t": 196992.8099999993,
      "d": 187.93687500001397,
      "v": 104
    },
    {
      "midi": 63,
      "hit": false,
      "t": 196997.18062500123,
      "d": 4.370625000010477,
      "v": 42
    },
    {
      "midi": 70,
      "hit": false,
      "t": 197001.55125000034,
      "d": 222.90187499998137,
      "v": 54
    },
    {
      "midi": 54,
      "hit": false,
      "t": 197202.5999999993,
      "d": 375.87374999999884,
      "v": 104
    },
    {
      "midi": 58,
      "hit": false,
      "t": 197202.5999999993,
      "d": 375.87374999999884,
      "v": 104
    },
    {
      "midi": 61,
      "hit": false,
      "t": 197202.5999999993,
      "d": 375.87374999999884,
      "v": 104
    },
    {
      "midi": 61,
      "hit": false,
      "t": 197211.34125000032,
      "d": 174.82500000001164,
      "v": 48
    },
    {
      "midi": 61,
      "hit": false,
      "t": 197408.01937500224,
      "d": 388.98562500003027,
      "v": 61
    },
    {
      "midi": 68,
      "hit": false,
      "t": 197408.01937500224,
      "d": 388.98562500003027,
      "v": 70
    },
    {
      "midi": 68,
      "hit": false,
      "t": 197412.39000000033,
      "d": 17.482500000012806,
      "v": 47
    },
    {
      "midi": 61,
      "hit": false,
      "t": 197412.39000000033,
      "d": 174.82500000001164,
      "v": 57
    },
    {
      "midi": 62,
      "hit": false,
      "t": 197412.39000000124,
      "d": 4.370625000010477,
      "v": 95
    },
    {
      "midi": 58,
      "hit": false,
      "t": 197412.39000000225,
      "d": 388.98562500003027,
      "v": 56
    },
    {
      "midi": 49,
      "hit": false,
      "t": 197416.76062500034,
      "d": 26.223750000004657,
      "v": 43
    },
    {
      "midi": 37,
      "hit": false,
      "t": 197622.18000000017,
      "d": 179.19562499999302,
      "v": 99
    },
    {
      "midi": 64,
      "hit": false,
      "t": 197622.18000000124,
      "d": 4.370625000010477,
      "v": 41
    },
    {
      "midi": 82,
      "hit": false,
      "t": 197630.92125000127,
      "d": 39.335625000006985,
      "v": 87
    },
    {
      "midi": 64,
      "hit": false,
      "t": 197727.07500000126,
      "d": 4.370625000010477,
      "v": 41
    },
    {
      "midi": 58,
      "hit": false,
      "t": 197827.5993750023,
      "d": 170.45437500003027,
      "v": 66
    },
    {
      "midi": 68,
      "hit": false,
      "t": 197827.5993750023,
      "d": 179.19562500002212,
      "v": 59
    },
    {
      "midi": 54,
      "hit": false,
      "t": 197831.9699999993,
      "d": 187.93687500001397,
      "v": 104
    },
    {
      "midi": 58,
      "hit": false,
      "t": 197831.9699999993,
      "d": 187.93687500001397,
      "v": 104
    },
    {
      "midi": 61,
      "hit": false,
      "t": 197831.9699999993,
      "d": 187.93687500001397,
      "v": 104
    },
    {
      "midi": 30,
      "hit": false,
      "t": 197831.97000000015,
      "d": 179.19562499999302,
      "v": 99
    },
    {
      "midi": 42,
      "hit": false,
      "t": 197831.9700000023,
      "d": 196.67812500000582,
      "v": 58
    },
    {
      "midi": 68,
      "hit": false,
      "t": 197836.34062500033,
      "d": 262.23749999998836,
      "v": 43
    },
    {
      "midi": 49,
      "hit": false,
      "t": 197836.34062500033,
      "d": 292.8318749999744,
      "v": 51
    },
    {
      "midi": 58,
      "hit": false,
      "t": 197836.34062500033,
      "d": 292.8318749999744,
      "v": 51
    },
    {
      "midi": 64,
      "hit": false,
      "t": 197836.34062500126,
      "d": 4.370625000010477,
      "v": 96
    },
    {
      "midi": 82,
      "hit": false,
      "t": 197836.34062500126,
      "d": 30.594375000015134,
      "v": 79
    },
    {
      "midi": 61,
      "hit": false,
      "t": 197836.3406250023,
      "d": 170.45437500000116,
      "v": 55
    },
    {
      "midi": 54,
      "hit": false,
      "t": 198041.7599999993,
      "d": 1507.8656250000058,
      "v": 104
    },
    {
      "midi": 58,
      "hit": false,
      "t": 198041.7599999993,
      "d": 1507.8656250000058,
      "v": 104
    },
    {
      "midi": 61,
      "hit": false,
      "t": 198041.7599999993,
      "d": 1507.8656250000058,
      "v": 104
    }
  ]
}