{
  "jsonPath": "Animes/Sailor Moon MIDI Collection/tuxedo-night.json",
  "path": "Animes\\Sailor Moon MIDI Collection\\Tuxedo Night.mid",
  "name": "Tuxedo Night",
  "difficulty": "Advanced",
  "bpm": 137.00131521262605,
  "notes": [
    {
      "midi": 48,
      "hit": false,
      "t": 2627.7119999999995,
      "d": 9.123999999999796,
      "v": 76
    },
    {
      "midi": 48,
      "hit": false,
      "t": 2627.7119999999995,
      "d": 9.123999999999796,
      "v": 42
    },
    {
      "midi": 48,
      "hit": false,
      "t": 2682.455999999999,
      "d": 9.123999999999796,
      "v": 76
    },
    {
      "midi": 48,
      "hit": false,
      "t": 2682.455999999999,
      "d": 9.123999999999796,
      "v": 42
    },
    {
      "midi": 48,
      "hit": false,
      "t": 2737.199999999999,
      "d": 9.123999999999796,
      "v": 76
    },
    {
      "midi": 48,
      "hit": false,
      "t": 2737.199999999999,
      "d": 9.123999999999796,
      "v": 42
    },
    {
      "midi": 48,
      "hit": false,
      "t": 2846.6879999999987,
      "d": 9.123999999999796,
      "v": 76
    },
    {
      "midi": 48,
      "hit": false,
      "t": 2846.6879999999987,
      "d": 9.123999999999796,
      "v": 42
    },
    {
      "midi": 45,
      "hit": false,
      "t": 2956.1759999999986,
      "d": 9.123999999999796,
      "v": 76
    },
    {
      "midi": 45,
      "hit": false,
      "t": 2956.1759999999986,
      "d": 9.123999999999796,
      "v": 42
    },
    {
      "midi": 45,
      "hit": false,
      "t": 3010.9199999999983,
      "d": 9.123999999999796,
      "v": 76
    },
    {
      "midi": 45,
      "hit": false,
      "t": 3010.9199999999983,
      "d": 9.123999999999796,
      "v": 42
    },
    {
      "midi": 45,
      "hit": false,
      "t": 3065.663999999998,
      "d": 9.123999999999796,
      "v": 76
    },
    {
      "midi": 45,
      "hit": false,
      "t": 3065.663999999998,
      "d": 9.123999999999796,
      "v": 42
    },
    {
      "midi": 45,
      "hit": false,
      "t": 3175.1519999999978,
      "d": 9.123999999999796,
      "v": 76
    },
    {
      "midi": 45,
      "hit": false,
      "t": 3175.1519999999978,
      "d": 9.123999999999796,
      "v": 42
    },
    {
      "midi": 41,
      "hit": false,
      "t": 3284.6399999999976,
      "d": 9.123999999999796,
      "v": 76
    },
    {
      "midi": 41,
      "hit": false,
      "t": 3284.6399999999976,
      "d": 9.123999999999796,
      "v": 42
    },
    {
      "midi": 41,
      "hit": false,
      "t": 3394.1279999999974,
      "d": 9.123999999999796,
      "v": 76
    },
    {
      "midi": 41,
      "hit": false,
      "t": 3394.1279999999974,
      "d": 9.123999999999796,
      "v": 42
    },
    {
      "midi": 49,
      "hit": false,
      "t": 3503.6159999999973,
      "d": 9.123999999999796,
      "v": 62
    },
    {
      "midi": 36,
      "hit": false,
      "t": 3503.6159999999973,
      "d": 9.123999999999796,
      "v": 76
    },
    {
      "midi": 33,
      "hit": false,
      "t": 3503.616,
      "d": 638.6800000000003,
      "v": 110
    },
    {
      "midi": 72,
      "hit": false,
      "t": 3503.616,
      "d": 620.4319999999998,
      "v": 100
    },
    {
      "midi": 67,
      "hit": false,
      "t": 3503.616,
      "d": 620.4319999999998,
      "v": 100
    },
    {
      "midi": 64,
      "hit": false,
      "t": 3503.616,
      "d": 620.4319999999998,
      "v": 100
    },
    {
      "midi": 42,
      "hit": false,
      "t": 3722.591999999997,
      "d": 9.123999999999796,
      "v": 70
    },
    {
      "midi": 42,
      "hit": false,
      "t": 3941.5679999999966,
      "d": 9.123999999999796,
      "v": 98
    },
    {
      "midi": 38,
      "hit": false,
      "t": 3941.5679999999966,
      "d": 9.123999999999796,
      "v": 76
    },
    {
      "midi": 84,
      "hit": false,
      "t": 3941.5679999999998,
      "d": 91.23999999999978,
      "v": 90
    },
    {
      "midi": 79,
      "hit": false,
      "t": 3941.5679999999998,
      "d": 91.23999999999978,
      "v": 90
    },
    {
      "midi": 42,
      "hit": false,
      "t": 4160.543999999996,
      "d": 9.123999999999796,
      "v": 70
    },
    {
      "midi": 36,
      "hit": false,
      "t": 4160.543999999996,
      "d": 9.123999999999796,
      "v": 76
    },
    {
      "midi": 33,
      "hit": false,
      "t": 4160.544,
      "d": 209.85199999999986,
      "v": 110
    },
    {
      "midi": 71,
      "hit": false,
      "t": 4160.544,
      "d": 620.4319999999998,
      "v": 100
    },
    {
      "midi": 67,
      "hit": false,
      "t": 4160.544,
      "d": 620.4319999999998,
      "v": 100
    },
    {
      "midi": 62,
      "hit": false,
      "t": 4160.544,
      "d": 620.4319999999998,
      "v": 100
    },
    {
      "midi": 42,
      "hit": false,
      "t": 4379.519999999996,
      "d": 9.123999999999796,
      "v": 98
    },
    {
      "midi": 84,
      "hit": false,
      "t": 4379.52,
      "d": 91.23999999999978,
      "v": 90
    },
    {
      "midi": 79,
      "hit": false,
      "t": 4379.52,
      "d": 91.23999999999978,
      "v": 90
    },
    {
      "midi": 42,
      "hit": false,
      "t": 4598.495999999996,
      "d": 9.123999999999796,
      "v": 70
    },
    {
      "midi": 36,
      "hit": false,
      "t": 4598.495999999996,
      "d": 9.123999999999796,
      "v": 76
    },
    {
      "midi": 42,
      "hit": false,
      "t": 4817.471999999995,
      "d": 9.123999999999796,
      "v": 98
    },
    {
      "midi": 38,
      "hit": false,
      "t": 4817.471999999995,
      "d": 9.123999999999796,
      "v": 76
    },
    {
      "midi": 40,
      "hit": false,
      "t": 4817.472,
      "d": 209.85199999999986,
      "v": 110
    },
    {
      "midi": 72,
      "hit": false,
      "t": 4817.472,
      "d": 620.4319999999998,
      "v": 100
    },
    {
      "midi": 67,
      "hit": false,
      "t": 4817.472,
      "d": 620.4319999999998,
      "v": 100
    },
    {
      "midi": 64,
      "hit": false,
      "t": 4817.472,
      "d": 620.4319999999998,
      "v": 100
    },
    {
      "midi": 42,
      "hit": false,
      "t": 5036.447999999995,
      "d": 9.123999999999796,
      "v": 70
    },
    {
      "midi": 36,
      "hit": false,
      "t": 5036.447999999995,
      "d": 9.123999999999796,
      "v": 76
    },
    {
      "midi": 28,
      "hit": false,
      "t": 5036.447999999999,
      "d": 410.5799999999999,
      "v": 110
    },
    {
      "midi": 42,
      "hit": false,
      "t": 5255.4239999999945,
      "d": 9.123999999999796,
      "v": 98
    },
    {
      "midi": 42,
      "hit": false,
      "t": 5474.399999999994,
      "d": 9.123999999999796,
      "v": 70
    },
    {
      "midi": 36,
      "hit": false,
      "t": 5474.399999999994,
      "d": 9.123999999999796,
      "v": 76
    },
    {
      "midi": 45,
      "hit": false,
      "t": 5474.4,
      "d": 428.8279999999995,
      "v": 110
    },
    {
      "midi": 71,
      "hit": false,
      "t": 5474.4,
      "d": 620.4319999999998,
      "v": 100
    },
    {
      "midi": 67,
      "hit": false,
      "t": 5474.4,
      "d": 620.4319999999998,
      "v": 100
    },
    {
      "midi": 62,
      "hit": false,
      "t": 5474.4,
      "d": 620.4319999999998,
      "v": 100
    },
    {
      "midi": 42,
      "hit": false,
      "t": 5693.375999999994,
      "d": 9.123999999999796,
      "v": 98
    },
    {
      "midi": 38,
      "hit": false,
      "t": 5693.375999999994,
      "d": 9.123999999999796,
      "v": 76
    },
    {
      "midi": 42,
      "hit": false,
      "t": 5912.3519999999935,
      "d": 9.123999999999796,
      "v": 70
    },
    {
      "midi": 36,
      "hit": false,
      "t": 5912.3519999999935,
      "d": 9.123999999999796,
      "v": 76
    },
    {
      "midi": 33,
      "hit": false,
      "t": 5912.351999999999,
      "d": 866.7799999999997,
      "v": 110
    },
    {
      "midi": 42,
      "hit": false,
      "t": 6131.327999999993,
      "d": 9.123999999999796,
      "v": 98
    },
    {
      "midi": 72,
      "hit": false,
      "t": 6131.3279999999995,
      "d": 839.4080000000004,
      "v": 100
    },
    {
      "midi": 67,
      "hit": false,
      "t": 6131.3279999999995,
      "d": 839.4080000000004,
      "v": 100
    },
    {
      "midi": 64,
      "hit": false,
      "t": 6131.3279999999995,
      "d": 839.4080000000004,
      "v": 100
    },
    {
      "midi": 42,
      "hit": false,
      "t": 6350.303999999993,
      "d": 9.123999999999796,
      "v": 70
    },
    {
      "midi": 38,
      "hit": false,
      "t": 6350.303999999993,
      "d": 9.123999999999796,
      "v": 76
    },
    {
      "midi": 42,
      "hit": false,
      "t": 6569.2799999999925,
      "d": 9.123999999999796,
      "v": 98
    },
    {
      "midi": 53,
      "hit": false,
      "t": 6569.279999999997,
      "d": 9.123999999999796,
      "v": 70
    },
    {
      "midi": 53,
      "hit": false,
      "t": 6605.775999999997,
      "d": 9.123999999999796,
      "v": 71
    },
    {
      "midi": 53,
      "hit": false,
      "t": 6642.271999999997,
      "d": 9.123999999999796,
      "v": 72
    },
    {
      "midi": 53,
      "hit": false,
      "t": 6678.767999999997,
      "d": 9.123999999999796,
      "v": 73
    },
    {
      "midi": 53,
      "hit": false,
      "t": 6715.263999999997,
      "d": 9.123999999999796,
      "v": 74
    },
    {
      "midi": 53,
      "hit": false,
      "t": 6751.7599999999975,
      "d": 9.123999999999796,
      "v": 75
    },
    {
      "midi": 42,
      "hit": false,
      "t": 6788.255999999992,
      "d": 9.123999999999796,
      "v": 70
    },
    {
      "midi": 36,
      "hit": false,
      "t": 6788.255999999992,
      "d": 9.123999999999796,
      "v": 76
    },
    {
      "midi": 53,
      "hit": false,
      "t": 6788.255999999998,
      "d": 9.123999999999796,
      "v": 76
    },
    {
      "midi": 53,
      "hit": false,
      "t": 6824.751999999998,
      "d": 9.123999999999796,
      "v": 77
    },
    {
      "midi": 53,
      "hit": false,
      "t": 6861.247999999998,
      "d": 9.123999999999796,
      "v": 78
    },
    {
      "midi": 53,
      "hit": false,
      "t": 6897.743999999998,
      "d": 9.123999999999796,
      "v": 79
    },
    {
      "midi": 53,
      "hit": false,
      "t": 6934.239999999998,
      "d": 9.123999999999796,
      "v": 80
    },
    {
      "midi": 53,
      "hit": false,
      "t": 6970.735999999998,
      "d": 9.123999999999796,
      "v": 81
    },
    {
      "midi": 42,
      "hit": false,
      "t": 7007.231999999992,
      "d": 9.123999999999796,
      "v": 98
    },
    {
      "midi": 36,
      "hit": false,
      "t": 7007.231999999992,
      "d": 9.123999999999796,
      "v": 76
    },
    {
      "midi": 53,
      "hit": false,
      "t": 7007.231999999998,
      "d": 9.123999999999796,
      "v": 82
    },
    {
      "midi": 29,
      "hit": false,
      "t": 7007.231999999999,
      "d": 273.72000000000025,
      "v": 110
    },
    {
      "midi": 72,
      "hit": false,
      "t": 7007.232,
      "d": 620.4319999999998,
      "v": 100
    },
    {
      "midi": 67,
      "hit": false,
      "t": 7007.232,
      "d": 620.4319999999998,
      "v": 100
    },
    {
      "midi": 64,
      "hit": false,
      "t": 7007.232,
      "d": 620.4319999999998,
      "v": 100
    },
    {
      "midi": 53,
      "hit": false,
      "t": 7043.727999999998,
      "d": 9.123999999999796,
      "v": 83
    },
    {
      "midi": 53,
      "hit": false,
      "t": 7080.223999999998,
      "d": 9.123999999999796,
      "v": 84
    },
    {
      "midi": 42,
      "hit": false,
      "t": 7226.207999999991,
      "d": 9.123999999999796,
      "v": 70
    },
    {
      "midi": 42,
      "hit": false,
      "t": 7445.183999999991,
      "d": 9.123999999999796,
      "v": 98
    },
    {
      "midi": 38,
      "hit": false,
      "t": 7445.183999999991,
      "d": 9.123999999999796,
      "v": 76
    },
    {
      "midi": 84,
      "hit": false,
      "t": 7445.183999999999,
      "d": 91.23999999999978,
      "v": 90
    },
    {
      "midi": 79,
      "hit": false,
      "t": 7445.183999999999,
      "d": 91.23999999999978,
      "v": 90
    },
    {
      "midi": 42,
      "hit": false,
      "t": 7664.159999999991,
      "d": 9.123999999999796,
      "v": 70
    },
    {
      "midi": 36,
      "hit": false,
      "t": 7664.159999999991,
      "d": 9.123999999999796,
      "v": 76
    },
    {
      "midi": 29,
      "hit": false,
      "t": 7664.159999999999,
      "d": 273.72000000000025,
      "v": 110
    },
    {
      "midi": 71,
      "hit": false,
      "t": 7664.16,
      "d": 620.4320000000007,
      "v": 100
    },
    {
      "midi": 67,
      "hit": false,
      "t": 7664.16,
      "d": 620.4320000000007,
      "v": 100
    },
    {
      "midi": 62,
      "hit": false,
      "t": 7664.16,
      "d": 620.4320000000007,
      "v": 100
    },
    {
      "midi": 42,
      "hit": false,
      "t": 7883.13599999999,
      "d": 9.123999999999796,
      "v": 98
    },
    {
      "midi": 84,
      "hit": false,
      "t": 7883.136,
      "d": 91.23999999999978,
      "v": 90
    },
    {
      "midi": 79,
      "hit": false,
      "t": 7883.136,
      "d": 91.23999999999978,
      "v": 90
    },
    {
      "midi": 42,
      "hit": false,
      "t": 8102.11199999999,
      "d": 9.123999999999796,
      "v": 70
    },
    {
      "midi": 36,
      "hit": false,
      "t": 8102.11199999999,
      "d": 9.123999999999796,
      "v": 76
    },
    {
      "midi": 42,
      "hit": false,
      "t": 8321.08799999999,
      "d": 9.123999999999796,
      "v": 98
    },
    {
      "midi": 38,
      "hit": false,
      "t": 8321.08799999999,
      "d": 9.123999999999796,
      "v": 76
    },
    {
      "midi": 41,
      "hit": false,
      "t": 8321.088,
      "d": 209.85200000000077,
      "v": 110
    },
    {
      "midi": 72,
      "hit": false,
      "t": 8321.088,
      "d": 620.4320000000007,
      "v": 100
    },
    {
      "midi": 67,
      "hit": false,
      "t": 8321.088,
      "d": 620.4320000000007,
      "v": 100
    },
    {
      "midi": 64,
      "hit": false,
      "t": 8321.088,
      "d": 620.4320000000007,
      "v": 100
    },
    {
      "midi": 42,
      "hit": false,
      "t": 8540.063999999991,
      "d": 9.123999999999796,
      "v": 70
    },
    {
      "midi": 36,
      "hit": false,
      "t": 8540.063999999991,
      "d": 9.123999999999796,
      "v": 76
    },
    {
      "midi": 28,
      "hit": false,
      "t": 8540.064,
      "d": 273.72000000000116,
      "v": 110
    },
    {
      "midi": 42,
      "hit": false,
      "t": 8759.039999999992,
      "d": 9.123999999999796,
      "v": 98
    },
    {
      "midi": 29,
      "hit": false,
      "t": 8759.04,
      "d": 218.97600000000057,
      "v": 110
    },
    {
      "midi": 42,
      "hit": false,
      "t": 8978.015999999992,
      "d": 9.123999999999796,
      "v": 70
    },
    {
      "midi": 36,
      "hit": false,
      "t": 8978.015999999992,
      "d": 9.123999999999796,
      "v": 76
    },
    {
      "midi": 71,
      "hit": false,
      "t": 8978.016,
      "d": 620.4320000000007,
      "v": 100
    },
    {
      "midi": 67,
      "hit": false,
      "t": 8978.016,
      "d": 620.4320000000007,
      "v": 100
    },
    {
      "midi": 62,
      "hit": false,
      "t": 8978.016,
      "d": 620.4320000000007,
      "v": 100
    },
    {
      "midi": 41,
      "hit": false,
      "t": 8978.016000000001,
      "d": 428.8279999999995,
      "v": 110
    },
    {
      "midi": 42,
      "hit": false,
      "t": 9196.991999999993,
      "d": 9.123999999999796,
      "v": 98
    },
    {
      "midi": 38,
      "hit": false,
      "t": 9196.991999999993,
      "d": 9.123999999999796,
      "v": 76
    },
    {
      "midi": 42,
      "hit": false,
      "t": 9415.967999999993,
      "d": 9.123999999999796,
      "v": 70
    },
    {
      "midi": 36,
      "hit": false,
      "t": 9415.967999999993,
      "d": 9.123999999999796,
      "v": 76
    },
    {
      "midi": 29,
      "hit": false,
      "t": 9415.968,
      "d": 273.71999999999935,
      "v": 110
    },
    {
      "midi": 42,
      "hit": false,
      "t": 9634.943999999994,
      "d": 9.123999999999796,
      "v": 98
    },
    {
      "midi": 72,
      "hit": false,
      "t": 9634.944,
      "d": 839.4079999999994,
      "v": 100
    },
    {
      "midi": 67,
      "hit": false,
      "t": 9634.944,
      "d": 839.4079999999994,
      "v": 100
    },
    {
      "midi": 64,
      "hit": false,
      "t": 9634.944,
      "d": 839.4079999999994,
      "v": 100
    },
    {
      "midi": 42,
      "hit": false,
      "t": 9853.919999999995,
      "d": 9.123999999999796,
      "v": 70
    },
    {
      "midi": 38,
      "hit": false,
      "t": 9853.919999999995,
      "d": 9.123999999999796,
      "v": 76
    },
    {
      "midi": 42,
      "hit": false,
      "t": 10072.895999999995,
      "d": 9.123999999999796,
      "v": 98
    },
    {
      "midi": 53,
      "hit": false,
      "t": 10072.895999999997,
      "d": 9.123999999999796,
      "v": 70
    },
    {
      "midi": 53,
      "hit": false,
      "t": 10109.391999999996,
      "d": 9.123999999999796,
      "v": 71
    },
    {
      "midi": 53,
      "hit": false,
      "t": 10145.887999999995,
      "d": 9.123999999999796,
      "v": 72
    },
    {
      "midi": 53,
      "hit": false,
      "t": 10182.383999999995,
      "d": 9.123999999999796,
      "v": 73
    },
    {
      "midi": 53,
      "hit": false,
      "t": 10218.879999999994,
      "d": 9.123999999999796,
      "v": 74
    },
    {
      "midi": 53,
      "hit": false,
      "t": 10255.375999999993,
      "d": 9.123999999999796,
      "v": 75
    },
    {
      "midi": 53,
      "hit": false,
      "t": 10291.871999999992,
      "d": 9.123999999999796,
      "v": 76
    },
    {
      "midi": 42,
      "hit": false,
      "t": 10291.871999999996,
      "d": 9.123999999999796,
      "v": 70
    },
    {
      "midi": 36,
      "hit": false,
      "t": 10291.871999999996,
      "d": 9.123999999999796,
      "v": 76
    },
    {
      "midi": 53,
      "hit": false,
      "t": 10328.367999999991,
      "d": 9.123999999999796,
      "v": 77
    },
    {
      "midi": 53,
      "hit": false,
      "t": 10364.86399999999,
      "d": 9.123999999999796,
      "v": 78
    },
    {
      "midi": 53,
      "hit": false,
      "t": 10401.35999999999,
      "d": 9.123999999999796,
      "v": 79
    },
    {
      "midi": 53,
      "hit": false,
      "t": 10437.855999999989,
      "d": 9.123999999999796,
      "v": 80
    },
    {
      "midi": 53,
      "hit": false,
      "t": 10474.351999999988,
      "d": 9.123999999999796,
      "v": 81
    },
    {
      "midi": 53,
      "hit": false,
      "t": 10510.847999999987,
      "d": 9.123999999999796,
      "v": 82
    },
    {
      "midi": 42,
      "hit": false,
      "t": 10510.847999999996,
      "d": 9.123999999999796,
      "v": 98
    },
    {
      "midi": 36,
      "hit": false,
      "t": 10510.847999999996,
      "d": 9.123999999999796,
      "v": 76
    },
    {
      "midi": 72,
      "hit": false,
      "t": 10510.847999999998,
      "d": 620.4320000000007,
      "v": 100
    },
    {
      "midi": 67,
      "hit": false,
      "t": 10510.847999999998,
      "d": 620.4320000000007,
      "v": 100
    },
    {
      "midi": 62,
      "hit": false,
      "t": 10510.847999999998,
      "d": 620.4320000000007,
      "v": 100
    },
    {
      "midi": 31,
      "hit": false,
      "t": 10510.848,
      "d": 647.8040000000001,
      "v": 110
    },
    {
      "midi": 53,
      "hit": false,
      "t": 10547.343999999986,
      "d": 9.123999999999796,
      "v": 83
    },
    {
      "midi": 53,
      "hit": false,
      "t": 10583.839999999986,
      "d": 9.123999999999796,
      "v": 84
    },
    {
      "midi": 42,
      "hit": false,
      "t": 10729.823999999997,
      "d": 9.123999999999796,
      "v": 70
    },
    {
      "midi": 42,
      "hit": false,
      "t": 10948.799999999997,
      "d": 9.123999999999796,
      "v": 98
    },
    {
      "midi": 38,
      "hit": false,
      "t": 10948.799999999997,
      "d": 9.123999999999796,
      "v": 76
    },
    {
      "midi": 86,
      "hit": false,
      "t": 10948.8,
      "d": 91.23999999999978,
      "v": 90
    },
    {
      "midi": 81,
      "hit": false,
      "t": 10948.8,
      "d": 91.23999999999978,
      "v": 90
    },
    {
      "midi": 71,
      "hit": false,
      "t": 11167.775999999998,
      "d": 620.4320000000007,
      "v": 100
    },
    {
      "midi": 67,
      "hit": false,
      "t": 11167.775999999998,
      "d": 620.4320000000007,
      "v": 100
    },
    {
      "midi": 62,
      "hit": false,
      "t": 11167.775999999998,
      "d": 620.4320000000007,
      "v": 100
    },
    {
      "midi": 42,
      "hit": false,
      "t": 11167.775999999998,
      "d": 9.123999999999796,
      "v": 70
    },
    {
      "midi": 36,
      "hit": false,
      "t": 11167.775999999998,
      "d": 9.123999999999796,
      "v": 76
    },
    {
      "midi": 31,
      "hit": false,
      "t": 11167.776,
      "d": 273.71999999999935,
      "v": 110
    },
    {
      "midi": 42,
      "hit": false,
      "t": 11386.751999999999,
      "d": 9.123999999999796,
      "v": 98
    },
    {
      "midi": 86,
      "hit": false,
      "t": 11386.752,
      "d": 91.23999999999978,
      "v": 90
    },
    {
      "midi": 81,
      "hit": false,
      "t": 11386.752,
      "d": 91.23999999999978,
      "v": 90
    },
    {
      "midi": 42,
      "hit": false,
      "t": 11605.728,
      "d": 9.123999999999796,
      "v": 70
    },
    {
      "midi": 36,
      "hit": false,
      "t": 11605.728,
      "d": 9.123999999999796,
      "v": 76
    },
    {
      "midi": 72,
      "hit": false,
      "t": 11824.703999999998,
      "d": 620.4320000000007,
      "v": 100
    },
    {
      "midi": 67,
      "hit": false,
      "t": 11824.703999999998,
      "d": 620.4320000000007,
      "v": 100
    },
    {
      "midi": 62,
      "hit": false,
      "t": 11824.703999999998,
      "d": 620.4320000000007,
      "v": 100
    },
    {
      "midi": 42,
      "hit": false,
      "t": 11824.704,
      "d": 9.123999999999796,
      "v": 98
    },
    {
      "midi": 38,
      "hit": false,
      "t": 11824.704,
      "d": 9.123999999999796,
      "v": 76
    },
    {
      "midi": 28,
      "hit": false,
      "t": 12043.679999999998,
      "d": 209.85200000000077,
      "v": 110
    },
    {
      "midi": 42,
      "hit": false,
      "t": 12043.68,
      "d": 9.123999999999796,
      "v": 70
    },
    {
      "midi": 36,
      "hit": false,
      "t": 12043.68,
      "d": 9.123999999999796,
      "v": 76
    },
    {
      "midi": 31,
      "hit": false,
      "t": 12262.655999999999,
      "d": 209.85200000000077,
      "v": 110
    },
    {
      "midi": 42,
      "hit": false,
      "t": 12262.656,
      "d": 9.123999999999796,
      "v": 98
    },
    {
      "midi": 71,
      "hit": false,
      "t": 12481.631999999998,
      "d": 620.4320000000007,
      "v": 100
    },
    {
      "midi": 67,
      "hit": false,
      "t": 12481.631999999998,
      "d": 620.4320000000007,
      "v": 100
    },
    {
      "midi": 62,
      "hit": false,
      "t": 12481.631999999998,
      "d": 620.4320000000007,
      "v": 100
    },
    {
      "midi": 43,
      "hit": false,
      "t": 12481.632,
      "d": 273.71999999999935,
      "v": 110
    },
    {
      "midi": 42,
      "hit": false,
      "t": 12481.632000000001,
      "d": 9.123999999999796,
      "v": 70
    },
    {
      "midi": 36,
      "hit": false,
      "t": 12481.632000000001,
      "d": 9.123999999999796,
      "v": 76
    },
    {
      "midi": 42,
      "hit": false,
      "t": 12700.608000000002,
      "d": 9.123999999999796,
      "v": 98
    },
    {
      "midi": 38,
      "hit": false,
      "t": 12700.608000000002,
      "d": 9.123999999999796,
      "v": 76
    },
    {
      "midi": 31,
      "hit": false,
      "t": 12919.583999999999,
      "d": 364.9599999999991,
      "v": 110
    },
    {
      "midi": 42,
      "hit": false,
      "t": 12919.584000000003,
      "d": 9.123999999999796,
      "v": 70
    },
    {
      "midi": 36,
      "hit": false,
      "t": 12919.584000000003,
      "d": 9.123999999999796,
      "v": 76
    },
    {
      "midi": 72,
      "hit": false,
      "t": 13138.559999999998,
      "d": 839.4079999999994,
      "v": 100
    },
    {
      "midi": 67,
      "hit": false,
      "t": 13138.559999999998,
      "d": 839.4079999999994,
      "v": 100
    },
    {
      "midi": 62,
      "hit": false,
      "t": 13138.559999999998,
      "d": 839.4079999999994,
      "v": 100
    },
    {
      "midi": 42,
      "hit": false,
      "t": 13138.560000000003,
      "d": 9.123999999999796,
      "v": 98
    },
    {
      "midi": 42,
      "hit": false,
      "t": 13357.536000000004,
      "d": 9.123999999999796,
      "v": 70
    },
    {
      "midi": 38,
      "hit": false,
      "t": 13357.536000000004,
      "d": 9.123999999999796,
      "v": 76
    },
    {
      "midi": 53,
      "hit": false,
      "t": 13576.511999999984,
      "d": 9.123999999999796,
      "v": 70
    },
    {
      "midi": 42,
      "hit": false,
      "t": 13576.512000000004,
      "d": 9.123999999999796,
      "v": 98
    },
    {
      "midi": 53,
      "hit": false,
      "t": 13613.007999999983,
      "d": 9.123999999999796,
      "v": 71
    },
    {
      "midi": 53,
      "hit": false,
      "t": 13649.503999999983,
      "d": 9.123999999999796,
      "v": 72
    },
    {
      "midi": 53,
      "hit": false,
      "t": 13685.999999999982,
      "d": 9.123999999999796,
      "v": 73
    },
    {
      "midi": 53,
      "hit": false,
      "t": 13722.495999999981,
      "d": 9.123999999999796,
      "v": 74
    },
    {
      "midi": 53,
      "hit": false,
      "t": 13758.99199999998,
      "d": 9.123999999999796,
      "v": 75
    },
    {
      "midi": 53,
      "hit": false,
      "t": 13795.48799999998,
      "d": 9.123999999999796,
      "v": 76
    },
    {
      "midi": 42,
      "hit": false,
      "t": 13795.488000000005,
      "d": 9.123999999999796,
      "v": 70
    },
    {
      "midi": 36,
      "hit": false,
      "t": 13795.488000000005,
      "d": 9.123999999999796,
      "v": 76
    },
    {
      "midi": 53,
      "hit": false,
      "t": 13831.983999999979,
      "d": 9.123999999999796,
      "v": 77
    },
    {
      "midi": 53,
      "hit": false,
      "t": 13868.479999999978,
      "d": 9.123999999999796,
      "v": 78
    },
    {
      "midi": 53,
      "hit": false,
      "t": 13904.975999999977,
      "d": 9.123999999999796,
      "v": 79
    },
    {
      "midi": 53,
      "hit": false,
      "t": 13941.471999999976,
      "d": 9.123999999999796,
      "v": 80
    },
    {
      "midi": 53,
      "hit": false,
      "t": 13977.967999999975,
      "d": 9.123999999999796,
      "v": 81
    },
    {
      "midi": 53,
      "hit": false,
      "t": 14014.463999999974,
      "d": 9.123999999999796,
      "v": 82
    },
    {
      "midi": 74,
      "hit": false,
      "t": 14014.463999999996,
      "d": 620.4320000000007,
      "v": 100
    },
    {
      "midi": 68,
      "hit": false,
      "t": 14014.463999999996,
      "d": 620.4320000000007,
      "v": 100
    },
    {
      "midi": 64,
      "hit": false,
      "t": 14014.463999999996,
      "d": 620.4320000000007,
      "v": 100
    },
    {
      "midi": 28,
      "hit": false,
      "t": 14014.463999999998,
      "d": 273.71999999999935,
      "v": 110
    },
    {
      "midi": 42,
      "hit": false,
      "t": 14014.464000000005,
      "d": 9.123999999999796,
      "v": 98
    },
    {
      "midi": 36,
      "hit": false,
      "t": 14014.464000000005,
      "d": 9.123999999999796,
      "v": 76
    },
    {
      "midi": 53,
      "hit": false,
      "t": 14050.959999999974,
      "d": 9.123999999999796,
      "v": 83
    },
    {
      "midi": 53,
      "hit": false,
      "t": 14087.455999999973,
      "d": 9.123999999999796,
      "v": 84
    },
    {
      "midi": 42,
      "hit": false,
      "t": 14233.440000000006,
      "d": 9.123999999999796,
      "v": 70
    },
    {
      "midi": 88,
      "hit": false,
      "t": 14452.416,
      "d": 91.23999999999978,
      "v": 90
    },
    {
      "midi": 83,
      "hit": false,
      "t": 14452.416,
      "d": 91.23999999999978,
      "v": 90
    },
    {
      "midi": 42,
      "hit": false,
      "t": 14452.416000000007,
      "d": 9.123999999999796,
      "v": 98
    },
    {
      "midi": 38,
      "hit": false,
      "t": 14452.416000000007,
      "d": 9.123999999999796,
      "v": 76
    },
    {
      "midi": 68,
      "hit": false,
      "t": 14671.391999999996,
      "d": 620.4320000000007,
      "v": 100
    },
    {
      "midi": 72,
      "hit": false,
      "t": 14671.391999999996,
      "d": 620.4320000000007,
      "v": 100
    },
    {
      "midi": 64,
      "hit": false,
      "t": 14671.391999999996,
      "d": 620.4320000000007,
      "v": 100
    },
    {
      "midi": 28,
      "hit": false,
      "t": 14671.391999999998,
      "d": 273.71999999999935,
      "v": 110
    },
    {
      "midi": 42,
      "hit": false,
      "t": 14671.392000000007,
      "d": 9.123999999999796,
      "v": 70
    },
    {
      "midi": 36,
      "hit": false,
      "t": 14671.392000000007,
      "d": 9.123999999999796,
      "v": 76
    },
    {
      "midi": 88,
      "hit": false,
      "t": 14890.368,
      "d": 91.23999999999978,
      "v": 90
    },
    {
      "midi": 83,
      "hit": false,
      "t": 14890.368,
      "d": 91.23999999999978,
      "v": 90
    },
    {
      "midi": 42,
      "hit": false,
      "t": 14890.368000000008,
      "d": 9.123999999999796,
      "v": 98
    },
    {
      "midi": 42,
      "hit": false,
      "t": 15109.344000000008,
      "d": 9.123999999999796,
      "v": 70
    },
    {
      "midi": 36,
      "hit": false,
      "t": 15109.344000000008,
      "d": 9.123999999999796,
      "v": 76
    },
    {
      "midi": 76,
      "hit": false,
      "t": 15328.319999999996,
      "d": 620.4320000000007,
      "v": 100
    },
    {
      "midi": 68,
      "hit": false,
      "t": 15328.319999999996,
      "d": 620.4320000000007,
      "v": 100
    },
    {
      "midi": 64,
      "hit": false,
      "t": 15328.319999999996,
      "d": 620.4320000000007,
      "v": 100
    },
    {
      "midi": 42,
      "hit": false,
      "t": 15328.320000000009,
      "d": 9.123999999999796,
      "v": 98
    },
    {
      "midi": 38,
      "hit": false,
      "t": 15328.320000000009,
      "d": 9.123999999999796,
      "v": 76
    },
    {
      "midi": 38,
      "hit": false,
      "t": 15547.295999999997,
      "d": 218.97600000000057,
      "v": 110
    },
    {
      "midi": 42,
      "hit": false,
      "t": 15547.29600000001,
      "d": 9.123999999999796,
      "v": 70
    },
    {
      "midi": 36,
      "hit": false,
      "t": 15547.29600000001,
      "d": 9.123999999999796,
      "v": 76
    },
    {
      "midi": 40,
      "hit": false,
      "t": 15766.271999999997,
      "d": 218.97600000000057,
      "v": 110
    },
    {
      "midi": 42,
      "hit": false,
      "t": 15766.27200000001,
      "d": 9.123999999999796,
      "v": 98
    },
    {
      "midi": 74,
      "hit": false,
      "t": 15985.247999999996,
      "d": 620.4320000000007,
      "v": 100
    },
    {
      "midi": 68,
      "hit": false,
      "t": 15985.247999999996,
      "d": 620.4320000000007,
      "v": 100
    },
    {
      "midi": 64,
      "hit": false,
      "t": 15985.247999999996,
      "d": 620.4320000000007,
      "v": 100
    },
    {
      "midi": 52,
      "hit": false,
      "t": 15985.247999999998,
      "d": 209.85200000000077,
      "v": 110
    },
    {
      "midi": 42,
      "hit": false,
      "t": 15985.24800000001,
      "d": 9.123999999999796,
      "v": 70
    },
    {
      "midi": 36,
      "hit": false,
      "t": 15985.24800000001,
      "d": 9.123999999999796,
      "v": 76
    },
    {
      "midi": 40,
      "hit": false,
      "t": 16204.223999999998,
      "d": 209.85199999999895,
      "v": 110
    },
    {
      "midi": 42,
      "hit": false,
      "t": 16204.224000000011,
      "d": 9.123999999999796,
      "v": 98
    },
    {
      "midi": 38,
      "hit": false,
      "t": 16204.224000000011,
      "d": 9.123999999999796,
      "v": 76
    },
    {
      "midi": 28,
      "hit": false,
      "t": 16423.199999999997,
      "d": 401.4559999999983,
      "v": 110
    },
    {
      "midi": 42,
      "hit": false,
      "t": 16423.20000000001,
      "d": 9.123999999999796,
      "v": 70
    },
    {
      "midi": 36,
      "hit": false,
      "t": 16423.20000000001,
      "d": 9.123999999999796,
      "v": 76
    },
    {
      "midi": 76,
      "hit": false,
      "t": 16642.175999999996,
      "d": 401.4559999999983,
      "v": 100
    },
    {
      "midi": 68,
      "hit": false,
      "t": 16642.175999999996,
      "d": 401.4559999999983,
      "v": 100
    },
    {
      "midi": 100,
      "hit": false,
      "t": 16642.176,
      "d": 428.82800000000134,
      "v": 127
    },
    {
      "midi": 76,
      "hit": false,
      "t": 16642.176,
      "d": 428.82800000000134,
      "v": 60
    },
    {
      "midi": 42,
      "hit": false,
      "t": 16642.17600000001,
      "d": 9.123999999999796,
      "v": 98
    },
    {
      "midi": 48,
      "hit": false,
      "t": 16861.15200000001,
      "d": 9.123999999999796,
      "v": 76
    },
    {
      "midi": 77,
      "hit": false,
      "t": 17080.127999999993,
      "d": 401.4559999999983,
      "v": 100
    },
    {
      "midi": 68,
      "hit": false,
      "t": 17080.127999999993,
      "d": 401.4559999999983,
      "v": 100
    },
    {
      "midi": 101,
      "hit": false,
      "t": 17080.128,
      "d": 428.82800000000134,
      "v": 127
    },
    {
      "midi": 77,
      "hit": false,
      "t": 17080.128,
      "d": 428.82800000000134,
      "v": 60
    },
    {
      "midi": 45,
      "hit": false,
      "t": 17080.128000000008,
      "d": 9.123999999999796,
      "v": 76
    },
    {
      "midi": 41,
      "hit": false,
      "t": 17299.104000000007,
      "d": 9.123999999999796,
      "v": 76
    },
    {
      "midi": 79,
      "hit": false,
      "t": 17490.708,
      "d": 1751.808000000001,
      "v": 50
    },
    {
      "midi": 74,
      "hit": false,
      "t": 17490.708,
      "d": 1751.808000000001,
      "v": 50
    },
    {
      "midi": 62,
      "hit": false,
      "t": 17490.708,
      "d": 1751.808000000001,
      "v": 50
    },
    {
      "midi": 33,
      "hit": false,
      "t": 17518.079999999994,
      "d": 273.72000000000116,
      "v": 110
    },
    {
      "midi": 79,
      "hit": false,
      "t": 17518.079999999998,
      "d": 182.47999999999956,
      "v": 120
    },
    {
      "midi": 103,
      "hit": false,
      "t": 17518.08,
      "d": 866.7799999999988,
      "v": 127
    },
    {
      "midi": 79,
      "hit": false,
      "t": 17518.08,
      "d": 866.7799999999988,
      "v": 60
    },
    {
      "midi": 49,
      "hit": false,
      "t": 17518.080000000005,
      "d": 9.123999999999796,
      "v": 62
    },
    {
      "midi": 36,
      "hit": false,
      "t": 17518.080000000005,
      "d": 9.123999999999796,
      "v": 76
    },
    {
      "midi": 79,
      "hit": false,
      "t": 17627.568,
      "d": 182.47999999999956,
      "v": 120
    },
    {
      "midi": 79,
      "hit": false,
      "t": 17737.056,
      "d": 182.47999999999956,
      "v": 120
    },
    {
      "midi": 42,
      "hit": false,
      "t": 17737.056000000004,
      "d": 9.123999999999796,
      "v": 70
    },
    {
      "midi": 79,
      "hit": false,
      "t": 17956.032,
      "d": 182.47999999999956,
      "v": 120
    },
    {
      "midi": 42,
      "hit": false,
      "t": 17956.032000000003,
      "d": 9.123999999999796,
      "v": 98
    },
    {
      "midi": 38,
      "hit": false,
      "t": 17956.032000000003,
      "d": 9.123999999999796,
      "v": 76
    },
    {
      "midi": 79,
      "hit": false,
      "t": 18065.52,
      "d": 182.47999999999956,
      "v": 120
    },
    {
      "midi": 33,
      "hit": false,
      "t": 18175.007999999994,
      "d": 273.72000000000116,
      "v": 110
    },
    {
      "midi": 79,
      "hit": false,
      "t": 18175.008,
      "d": 182.47999999999956,
      "v": 120
    },
    {
      "midi": 42,
      "hit": false,
      "t": 18175.008,
      "d": 9.123999999999796,
      "v": 70
    },
    {
      "midi": 36,
      "hit": false,
      "t": 18175.008,
      "d": 9.123999999999796,
      "v": 76
    },
    {
      "midi": 79,
      "hit": false,
      "t": 18393.984,
      "d": 182.47999999999956,
      "v": 120
    },
    {
      "midi": 42,
      "hit": false,
      "t": 18393.984,
      "d": 9.123999999999796,
      "v": 98
    },
    {
      "midi": 79,
      "hit": false,
      "t": 18503.472,
      "d": 182.47999999999956,
      "v": 120
    },
    {
      "midi": 79,
      "hit": false,
      "t": 18612.96,
      "d": 401.4559999999983,
      "v": 120
    },
    {
      "midi": 42,
      "hit": false,
      "t": 18612.96,
      "d": 9.123999999999796,
      "v": 70
    },
    {
      "midi": 36,
      "hit": false,
      "t": 18612.96,
      "d": 9.123999999999796,
      "v": 76
    },
    {
      "midi": 79,
      "hit": false,
      "t": 18612.960000000003,
      "d": 182.47999999999956,
      "v": 120
    },
    {
      "midi": 79,
      "hit": false,
      "t": 18722.448,
      "d": 401.4559999999983,
      "v": 120
    },
    {
      "midi": 42,
      "hit": false,
      "t": 18831.935999999998,
      "d": 9.123999999999796,
      "v": 98
    },
    {
      "midi": 38,
      "hit": false,
      "t": 18831.935999999998,
      "d": 9.123999999999796,
      "v": 76
    },
    {
      "midi": 79,
      "hit": false,
      "t": 18831.936,
      "d": 401.4559999999983,
      "v": 120
    },
    {
      "midi": 79,
      "hit": false,
      "t": 19050.911999999997,
      "d": 401.4559999999983,
      "v": 120
    },
    {
      "midi": 33,
      "hit": false,
      "t": 19050.911999999997,
      "d": 182.47999999999956,
      "v": 110
    },
    {
      "midi": 42,
      "hit": false,
      "t": 19050.911999999997,
      "d": 9.123999999999796,
      "v": 70
    },
    {
      "midi": 36,
      "hit": false,
      "t": 19050.911999999997,
      "d": 9.123999999999796,
      "v": 76
    },
    {
      "midi": 79,
      "hit": false,
      "t": 19160.399999999998,
      "d": 401.4559999999983,
      "v": 120
    },
    {
      "midi": 79,
      "hit": false,
      "t": 19242.516,
      "d": 1751.808000000001,
      "v": 50
    },
    {
      "midi": 73,
      "hit": false,
      "t": 19242.516,
      "d": 1751.808000000001,
      "v": 40
    },
    {
      "midi": 61,
      "hit": false,
      "t": 19242.516,
      "d": 1751.808000000001,
      "v": 40
    },
    {
      "midi": 42,
      "hit": false,
      "t": 19269.887999999995,
      "d": 9.123999999999796,
      "v": 98
    },
    {
      "midi": 79,
      "hit": false,
      "t": 19269.888,
      "d": 401.4559999999983,
      "v": 120
    },
    {
      "midi": 42,
      "hit": false,
      "t": 19488.863999999994,
      "d": 9.123999999999796,
      "v": 70
    },
    {
      "midi": 36,
      "hit": false,
      "t": 19488.863999999994,
      "d": 9.123999999999796,
      "v": 76
    },
    {
      "midi": 49,
      "hit": false,
      "t": 19488.863999999998,
      "d": 273.72000000000116,
      "v": 110
    },
    {
      "midi": 42,
      "hit": false,
      "t": 19707.839999999993,
      "d": 9.123999999999796,
      "v": 98
    },
    {
      "midi": 38,
      "hit": false,
      "t": 19707.839999999993,
      "d": 9.123999999999796,
      "v": 76
    },
    {
      "midi": 42,
      "hit": false,
      "t": 19926.81599999999,
      "d": 9.123999999999796,
      "v": 70
    },
    {
      "midi": 36,
      "hit": false,
      "t": 19926.81599999999,
      "d": 9.123999999999796,
      "v": 76
    },
    {
      "midi": 37,
      "hit": false,
      "t": 19926.816,
      "d": 273.72000000000116,
      "v": 110
    },
    {
      "midi": 42,
      "hit": false,
      "t": 20145.79199999999,
      "d": 9.123999999999796,
      "v": 98
    },
    {
      "midi": 42,
      "hit": false,
      "t": 20364.76799999999,
      "d": 9.123999999999796,
      "v": 70
    },
    {
      "midi": 38,
      "hit": false,
      "t": 20364.76799999999,
      "d": 9.123999999999796,
      "v": 76
    },
    {
      "midi": 79,
      "hit": false,
      "t": 20364.767999999996,
      "d": 136.86000000000058,
      "v": 120
    },
    {
      "midi": 79,
      "hit": false,
      "t": 20474.255999999998,
      "d": 136.86000000000058,
      "v": 120
    },
    {
      "midi": 42,
      "hit": false,
      "t": 20583.743999999988,
      "d": 9.123999999999796,
      "v": 98
    },
    {
      "midi": 79,
      "hit": false,
      "t": 20583.744,
      "d": 209.85199999999895,
      "v": 120
    },
    {
      "midi": 79,
      "hit": false,
      "t": 20583.744,
      "d": 136.86000000000058,
      "v": 120
    },
    {
      "midi": 79,
      "hit": false,
      "t": 20693.232,
      "d": 209.85199999999895,
      "v": 120
    },
    {
      "midi": 42,
      "hit": false,
      "t": 20802.719999999987,
      "d": 9.123999999999796,
      "v": 70
    },
    {
      "midi": 36,
      "hit": false,
      "t": 20802.719999999987,
      "d": 9.123999999999796,
      "v": 76
    },
    {
      "midi": 79,
      "hit": false,
      "t": 20802.719999999998,
      "d": 136.86000000000058,
      "v": 120
    },
    {
      "midi": 79,
      "hit": false,
      "t": 20802.72,
      "d": 209.85199999999895,
      "v": 120
    },
    {
      "midi": 79,
      "hit": false,
      "t": 20912.208,
      "d": 136.86000000000058,
      "v": 120
    },
    {
      "midi": 77,
      "hit": false,
      "t": 20994.324,
      "d": 1751.808000000001,
      "v": 50
    },
    {
      "midi": 74,
      "hit": false,
      "t": 20994.324,
      "d": 1751.808000000001,
      "v": 50
    },
    {
      "midi": 62,
      "hit": false,
      "t": 20994.324,
      "d": 1751.808000000001,
      "v": 50
    },
    {
      "midi": 42,
      "hit": false,
      "t": 21021.695999999985,
      "d": 9.123999999999796,
      "v": 98
    },
    {
      "midi": 36,
      "hit": false,
      "t": 21021.695999999985,
      "d": 9.123999999999796,
      "v": 76
    },
    {
      "midi": 77,
      "hit": false,
      "t": 21021.696,
      "d": 182.47999999999956,
      "v": 120
    },
    {
      "midi": 79,
      "hit": false,
      "t": 21021.696,
      "d": 136.86000000000058,
      "v": 120
    },
    {
      "midi": 38,
      "hit": false,
      "t": 21021.696,
      "d": 273.72000000000116,
      "v": 110
    },
    {
      "midi": 77,
      "hit": false,
      "t": 21131.184,
      "d": 182.47999999999956,
      "v": 120
    },
    {
      "midi": 42,
      "hit": false,
      "t": 21240.671999999984,
      "d": 9.123999999999796,
      "v": 70
    },
    {
      "midi": 79,
      "hit": false,
      "t": 21240.672,
      "d": 182.47999999999956,
      "v": 120
    },
    {
      "midi": 77,
      "hit": false,
      "t": 21240.672000000002,
      "d": 182.47999999999956,
      "v": 120
    },
    {
      "midi": 79,
      "hit": false,
      "t": 21350.16,
      "d": 182.47999999999956,
      "v": 120
    },
    {
      "midi": 42,
      "hit": false,
      "t": 21459.647999999983,
      "d": 9.123999999999796,
      "v": 98
    },
    {
      "midi": 38,
      "hit": false,
      "t": 21459.647999999983,
      "d": 9.123999999999796,
      "v": 76
    },
    {
      "midi": 79,
      "hit": false,
      "t": 21459.648,
      "d": 182.47999999999956,
      "v": 120
    },
    {
      "midi": 42,
      "hit": false,
      "t": 21678.62399999998,
      "d": 9.123999999999796,
      "v": 70
    },
    {
      "midi": 36,
      "hit": false,
      "t": 21678.62399999998,
      "d": 9.123999999999796,
      "v": 76
    },
    {
      "midi": 81,
      "hit": false,
      "t": 21678.624,
      "d": 182.47999999999956,
      "v": 120
    },
    {
      "midi": 38,
      "hit": false,
      "t": 21678.624,
      "d": 273.72000000000116,
      "v": 110
    },
    {
      "midi": 81,
      "hit": false,
      "t": 21788.112,
      "d": 182.47999999999956,
      "v": 120
    },
    {
      "midi": 42,
      "hit": false,
      "t": 21897.59999999998,
      "d": 9.123999999999796,
      "v": 98
    },
    {
      "midi": 81,
      "hit": false,
      "t": 21897.600000000002,
      "d": 182.47999999999956,
      "v": 120
    },
    {
      "midi": 42,
      "hit": false,
      "t": 22116.57599999998,
      "d": 9.123999999999796,
      "v": 70
    },
    {
      "midi": 36,
      "hit": false,
      "t": 22116.57599999998,
      "d": 9.123999999999796,
      "v": 76
    },
    {
      "midi": 77,
      "hit": false,
      "t": 22116.576,
      "d": 182.47999999999956,
      "v": 120
    },
    {
      "midi": 77,
      "hit": false,
      "t": 22226.064000000002,
      "d": 182.47999999999956,
      "v": 120
    },
    {
      "midi": 42,
      "hit": false,
      "t": 22335.551999999978,
      "d": 9.123999999999796,
      "v": 98
    },
    {
      "midi": 38,
      "hit": false,
      "t": 22335.551999999978,
      "d": 9.123999999999796,
      "v": 76
    },
    {
      "midi": 77,
      "hit": false,
      "t": 22335.552000000003,
      "d": 182.47999999999956,
      "v": 120
    },
    {
      "midi": 42,
      "hit": false,
      "t": 22554.527999999977,
      "d": 9.123999999999796,
      "v": 70
    },
    {
      "midi": 36,
      "hit": false,
      "t": 22554.527999999977,
      "d": 9.123999999999796,
      "v": 76
    },
    {
      "midi": 77,
      "hit": false,
      "t": 22554.528000000002,
      "d": 401.4559999999983,
      "v": 120
    },
    {
      "midi": 38,
      "hit": false,
      "t": 22554.528000000002,
      "d": 228.09999999999854,
      "v": 110
    },
    {
      "midi": 77,
      "hit": false,
      "t": 22664.016000000003,
      "d": 401.4559999999983,
      "v": 120
    },
    {
      "midi": 80,
      "hit": false,
      "t": 22746.132,
      "d": 1751.808000000001,
      "v": 50
    },
    {
      "midi": 76,
      "hit": false,
      "t": 22746.132,
      "d": 1751.808000000001,
      "v": 40
    },
    {
      "midi": 64,
      "hit": false,
      "t": 22746.132,
      "d": 1751.808000000001,
      "v": 40
    },
    {
      "midi": 42,
      "hit": false,
      "t": 22773.503999999975,
      "d": 9.123999999999796,
      "v": 98
    },
    {
      "midi": 40,
      "hit": false,
      "t": 22773.504,
      "d": 182.47999999999956,
      "v": 110
    },
    {
      "midi": 77,
      "hit": false,
      "t": 22773.504000000004,
      "d": 401.4559999999983,
      "v": 120
    },
    {
      "midi": 42,
      "hit": false,
      "t": 22992.479999999974,
      "d": 9.123999999999796,
      "v": 70
    },
    {
      "midi": 36,
      "hit": false,
      "t": 22992.479999999974,
      "d": 9.123999999999796,
      "v": 76
    },
    {
      "midi": 76,
      "hit": false,
      "t": 22992.48,
      "d": 182.47999999999956,
      "v": 120
    },
    {
      "midi": 28,
      "hit": false,
      "t": 22992.48,
      "d": 273.72000000000116,
      "v": 110
    },
    {
      "midi": 76,
      "hit": false,
      "t": 23101.968,
      "d": 182.47999999999956,
      "v": 120
    },
    {
      "midi": 42,
      "hit": false,
      "t": 23211.455999999973,
      "d": 9.123999999999796,
      "v": 98
    },
    {
      "midi": 38,
      "hit": false,
      "t": 23211.455999999973,
      "d": 9.123999999999796,
      "v": 76
    },
    {
      "midi": 74,
      "hit": false,
      "t": 23211.456,
      "d": 182.47999999999956,
      "v": 120
    },
    {
      "midi": 76,
      "hit": false,
      "t": 23211.456000000002,
      "d": 182.47999999999956,
      "v": 120
    },
    {
      "midi": 74,
      "hit": false,
      "t": 23320.944,
      "d": 182.47999999999956,
      "v": 120
    },
    {
      "midi": 42,
      "hit": false,
      "t": 23430.43199999997,
      "d": 9.123999999999796,
      "v": 70
    },
    {
      "midi": 36,
      "hit": false,
      "t": 23430.43199999997,
      "d": 9.123999999999796,
      "v": 76
    },
    {
      "midi": 76,
      "hit": false,
      "t": 23430.431999999997,
      "d": 182.47999999999956,
      "v": 120
    },
    {
      "midi": 74,
      "hit": false,
      "t": 23430.432,
      "d": 182.47999999999956,
      "v": 120
    },
    {
      "midi": 28,
      "hit": false,
      "t": 23430.432,
      "d": 273.72000000000116,
      "v": 110
    },
    {
      "midi": 76,
      "hit": false,
      "t": 23539.92,
      "d": 182.47999999999956,
      "v": 120
    },
    {
      "midi": 42,
      "hit": false,
      "t": 23649.40799999997,
      "d": 9.123999999999796,
      "v": 98
    },
    {
      "midi": 76,
      "hit": false,
      "t": 23649.408,
      "d": 182.47999999999956,
      "v": 120
    },
    {
      "midi": 42,
      "hit": false,
      "t": 23868.38399999997,
      "d": 9.123999999999796,
      "v": 70
    },
    {
      "midi": 38,
      "hit": false,
      "t": 23868.38399999997,
      "d": 9.123999999999796,
      "v": 76
    },
    {
      "midi": 42,
      "hit": false,
      "t": 24087.359999999968,
      "d": 9.123999999999796,
      "v": 98
    },
    {
      "midi": 76,
      "hit": false,
      "t": 24087.359999999997,
      "d": 182.47999999999956,
      "v": 120
    },
    {
      "midi": 76,
      "hit": false,
      "t": 24196.847999999998,
      "d": 182.47999999999956,
      "v": 120
    },
    {
      "midi": 42,
      "hit": false,
      "t": 24306.335999999967,
      "d": 9.123999999999796,
      "v": 70
    },
    {
      "midi": 36,
      "hit": false,
      "t": 24306.335999999967,
      "d": 9.123999999999796,
      "v": 76
    },
    {
      "midi": 76,
      "hit": false,
      "t": 24306.336,
      "d": 182.47999999999956,
      "v": 120
    },
    {
      "midi": 81,
      "hit": false,
      "t": 24497.940000000002,
      "d": 656.9279999999999,
      "v": 50
    },
    {
      "midi": 76,
      "hit": false,
      "t": 24497.940000000002,
      "d": 656.9279999999999,
      "v": 40
    },
    {
      "midi": 64,
      "hit": false,
      "t": 24497.940000000002,
      "d": 656.9279999999999,
      "v": 40
    },
    {
      "midi": 42,
      "hit": false,
      "t": 24525.311999999965,
      "d": 9.123999999999796,
      "v": 98
    },
    {
      "midi": 36,
      "hit": false,
      "t": 24525.311999999965,
      "d": 9.123999999999796,
      "v": 76
    },
    {
      "midi": 72,
      "hit": false,
      "t": 24525.311999999998,
      "d": 182.47999999999956,
      "v": 120
    },
    {
      "midi": 33,
      "hit": false,
      "t": 24525.312,
      "d": 401.4559999999983,
      "v": 110
    },
    {
      "midi": 93,
      "hit": false,
      "t": 24525.312,
      "d": 1742.684000000001,
      "v": 127
    },
    {
      "midi": 69,
      "hit": false,
      "t": 24525.312,
      "d": 1742.684000000001,
      "v": 60
    },
    {
      "midi": 72,
      "hit": false,
      "t": 24634.8,
      "d": 182.47999999999956,
      "v": 120
    },
    {
      "midi": 42,
      "hit": false,
      "t": 24744.287999999964,
      "d": 9.123999999999796,
      "v": 70
    },
    {
      "midi": 72,
      "hit": false,
      "t": 24744.288,
      "d": 182.47999999999956,
      "v": 120
    },
    {
      "midi": 42,
      "hit": false,
      "t": 24963.263999999963,
      "d": 9.123999999999796,
      "v": 98
    },
    {
      "midi": 38,
      "hit": false,
      "t": 24963.263999999963,
      "d": 9.123999999999796,
      "v": 76
    },
    {
      "midi": 74,
      "hit": false,
      "t": 24963.264,
      "d": 182.47999999999956,
      "v": 120
    },
    {
      "midi": 74,
      "hit": false,
      "t": 25072.752,
      "d": 182.47999999999956,
      "v": 120
    },
    {
      "midi": 79,
      "hit": false,
      "t": 25154.868000000002,
      "d": 1094.880000000001,
      "v": 50
    },
    {
      "midi": 76,
      "hit": false,
      "t": 25154.868000000002,
      "d": 1094.880000000001,
      "v": 40
    },
    {
      "midi": 64,
      "hit": false,
      "t": 25154.868000000002,
      "d": 1094.880000000001,
      "v": 40
    },
    {
      "midi": 42,
      "hit": false,
      "t": 25182.23999999996,
      "d": 9.123999999999796,
      "v": 70
    },
    {
      "midi": 36,
      "hit": false,
      "t": 25182.23999999996,
      "d": 9.123999999999796,
      "v": 76
    },
    {
      "midi": 76,
      "hit": false,
      "t": 25182.239999999998,
      "d": 182.47999999999956,
      "v": 120
    },
    {
      "midi": 74,
      "hit": false,
      "t": 25182.24,
      "d": 182.47999999999956,
      "v": 120
    },
    {
      "midi": 31,
      "hit": false,
      "t": 25182.24,
      "d": 1058.3840000000018,
      "v": 110
    },
    {
      "midi": 76,
      "hit": false,
      "t": 25291.728,
      "d": 182.47999999999956,
      "v": 120
    },
    {
      "midi": 42,
      "hit": false,
      "t": 25401.21599999996,
      "d": 9.123999999999796,
      "v": 98
    },
    {
      "midi": 76,
      "hit": false,
      "t": 25401.216,
      "d": 182.47999999999956,
      "v": 120
    },
    {
      "midi": 42,
      "hit": false,
      "t": 25620.19199999996,
      "d": 9.123999999999796,
      "v": 70
    },
    {
      "midi": 36,
      "hit": false,
      "t": 25620.19199999996,
      "d": 9.123999999999796,
      "v": 84
    },
    {
      "midi": 42,
      "hit": false,
      "t": 25839.167999999958,
      "d": 9.123999999999796,
      "v": 98
    },
    {
      "midi": 38,
      "hit": false,
      "t": 25839.167999999958,
      "d": 9.123999999999796,
      "v": 84
    },
    {
      "midi": 76,
      "hit": false,
      "t": 25839.167999999998,
      "d": 182.47999999999956,
      "v": 120
    },
    {
      "midi": 76,
      "hit": false,
      "t": 25948.656,
      "d": 182.47999999999956,
      "v": 120
    },
    {
      "midi": 42,
      "hit": false,
      "t": 26058.143999999957,
      "d": 9.123999999999796,
      "v": 70
    },
    {
      "midi": 76,
      "hit": false,
      "t": 26058.144,
      "d": 182.47999999999956,
      "v": 120
    },
    {
      "midi": 81,
      "hit": false,
      "t": 26249.748000000003,
      "d": 656.9279999999999,
      "v": 50
    },
    {
      "midi": 76,
      "hit": false,
      "t": 26249.748000000003,
      "d": 656.9279999999999,
      "v": 40
    },
    {
      "midi": 64,
      "hit": false,
      "t": 26249.748000000003,
      "d": 656.9279999999999,
      "v": 40
    },
    {
      "midi": 42,
      "hit": false,
      "t": 26277.119999999955,
      "d": 9.123999999999796,
      "v": 98
    },
    {
      "midi": 36,
      "hit": false,
      "t": 26277.119999999955,
      "d": 9.123999999999796,
      "v": 76
    },
    {
      "midi": 74,
      "hit": false,
      "t": 26277.12,
      "d": 182.47999999999956,
      "v": 120
    },
    {
      "midi": 29,
      "hit": false,
      "t": 26277.120000000003,
      "d": 401.4559999999983,
      "v": 110
    },
    {
      "midi": 93,
      "hit": false,
      "t": 26277.120000000003,
      "d": 647.8040000000001,
      "v": 127
    },
    {
      "midi": 69,
      "hit": false,
      "t": 26277.120000000003,
      "d": 647.8040000000001,
      "v": 60
    },
    {
      "midi": 74,
      "hit": false,
      "t": 26386.608,
      "d": 182.47999999999956,
      "v": 120
    },
    {
      "midi": 42,
      "hit": false,
      "t": 26496.095999999954,
      "d": 9.123999999999796,
      "v": 70
    },
    {
      "midi": 36,
      "hit": false,
      "t": 26496.095999999954,
      "d": 9.123999999999796,
      "v": 84
    },
    {
      "midi": 74,
      "hit": false,
      "t": 26496.096,
      "d": 182.47999999999956,
      "v": 120
    },
    {
      "midi": 42,
      "hit": false,
      "t": 26715.071999999953,
      "d": 9.123999999999796,
      "v": 98
    },
    {
      "midi": 38,
      "hit": false,
      "t": 26715.071999999953,
      "d": 9.123999999999796,
      "v": 76
    },
    {
      "midi": 76,
      "hit": false,
      "t": 26715.072,
      "d": 182.47999999999956,
      "v": 120
    },
    {
      "midi": 76,
      "hit": false,
      "t": 26824.56,
      "d": 182.47999999999956,
      "v": 120
    },
    {
      "midi": 77,
      "hit": false,
      "t": 26906.676000000003,
      "d": 1094.880000000001,
      "v": 50
    },
    {
      "midi": 74,
      "hit": false,
      "t": 26906.676000000003,
      "d": 1094.880000000001,
      "v": 50
    },
    {
      "midi": 62,
      "hit": false,
      "t": 26906.676000000003,
      "d": 1094.880000000001,
      "v": 40
    },
    {
      "midi": 42,
      "hit": false,
      "t": 26934.04799999995,
      "d": 9.123999999999796,
      "v": 70
    },
    {
      "midi": 36,
      "hit": false,
      "t": 26934.04799999995,
      "d": 9.123999999999796,
      "v": 76
    },
    {
      "midi": 77,
      "hit": false,
      "t": 26934.048,
      "d": 182.47999999999956,
      "v": 120
    },
    {
      "midi": 76,
      "hit": false,
      "t": 26934.048000000003,
      "d": 182.47999999999956,
      "v": 120
    },
    {
      "midi": 28,
      "hit": false,
      "t": 26934.048000000003,
      "d": 1058.3839999999982,
      "v": 110
    },
    {
      "midi": 95,
      "hit": false,
      "t": 26934.048000000003,
      "d": 1085.7560000000012,
      "v": 127
    },
    {
      "midi": 71,
      "hit": false,
      "t": 26934.048000000003,
      "d": 1085.7560000000012,
      "v": 60
    },
    {
      "midi": 77,
      "hit": false,
      "t": 27043.536,
      "d": 182.47999999999956,
      "v": 120
    },
    {
      "midi": 42,
      "hit": false,
      "t": 27153.02399999995,
      "d": 9.123999999999796,
      "v": 98
    },
    {
      "midi": 77,
      "hit": false,
      "t": 27153.024,
      "d": 182.47999999999956,
      "v": 120
    },
    {
      "midi": 42,
      "hit": false,
      "t": 27371.99999999995,
      "d": 9.123999999999796,
      "v": 70
    },
    {
      "midi": 38,
      "hit": false,
      "t": 27371.99999999995,
      "d": 9.123999999999796,
      "v": 84
    },
    {
      "midi": 77,
      "hit": false,
      "t": 27372,
      "d": 401.4559999999983,
      "v": 120
    },
    {
      "midi": 77,
      "hit": false,
      "t": 27481.488,
      "d": 401.4559999999983,
      "v": 120
    },
    {
      "midi": 42,
      "hit": false,
      "t": 27590.975999999948,
      "d": 9.123999999999796,
      "v": 98
    },
    {
      "midi": 77,
      "hit": false,
      "t": 27590.976000000002,
      "d": 401.4559999999983,
      "v": 120
    },
    {
      "midi": 42,
      "hit": false,
      "t": 27809.951999999947,
      "d": 9.123999999999796,
      "v": 70
    },
    {
      "midi": 36,
      "hit": false,
      "t": 27809.951999999947,
      "d": 9.123999999999796,
      "v": 84
    },
    {
      "midi": 81,
      "hit": false,
      "t": 28001.556000000004,
      "d": 656.9279999999999,
      "v": 50
    },
    {
      "midi": 74,
      "hit": false,
      "t": 28001.556000000004,
      "d": 656.9279999999999,
      "v": 40
    },
    {
      "midi": 62,
      "hit": false,
      "t": 28001.556000000004,
      "d": 656.9279999999999,
      "v": 40
    },
    {
      "midi": 42,
      "hit": false,
      "t": 28028.927999999945,
      "d": 9.123999999999796,
      "v": 98
    },
    {
      "midi": 36,
      "hit": false,
      "t": 28028.927999999945,
      "d": 9.123999999999796,
      "v": 76
    },
    {
      "midi": 77,
      "hit": false,
      "t": 28028.928,
      "d": 182.47999999999956,
      "v": 120
    },
    {
      "midi": 38,
      "hit": false,
      "t": 28028.928,
      "d": 401.4559999999983,
      "v": 110
    },
    {
      "midi": 98,
      "hit": false,
      "t": 28028.928000000004,
      "d": 647.8040000000001,
      "v": 127
    },
    {
      "midi": 74,
      "hit": false,
      "t": 28028.928000000004,
      "d": 647.8040000000001,
      "v": 60
    },
    {
      "midi": 77,
      "hit": false,
      "t": 28138.416,
      "d": 182.47999999999956,
      "v": 120
    },
    {
      "midi": 42,
      "hit": false,
      "t": 28247.903999999944,
      "d": 9.123999999999796,
      "v": 70
    },
    {
      "midi": 77,
      "hit": false,
      "t": 28247.904000000002,
      "d": 182.47999999999956,
      "v": 120
    },
    {
      "midi": 42,
      "hit": false,
      "t": 28466.879999999943,
      "d": 9.123999999999796,
      "v": 98
    },
    {
      "midi": 38,
      "hit": false,
      "t": 28466.879999999943,
      "d": 9.123999999999796,
      "v": 76
    },
    {
      "midi": 74,
      "hit": false,
      "t": 28466.88,
      "d": 182.47999999999956,
      "v": 120
    },
    {
      "midi": 74,
      "hit": false,
      "t": 28576.368000000002,
      "d": 182.47999999999956,
      "v": 120
    },
    {
      "midi": 80,
      "hit": false,
      "t": 28658.484000000004,
      "d": 2846.688000000002,
      "v": 50
    },
    {
      "midi": 76,
      "hit": false,
      "t": 28658.484000000004,
      "d": 2846.688000000002,
      "v": 50
    },
    {
      "midi": 64,
      "hit": false,
      "t": 28658.484000000004,
      "d": 2846.688000000002,
      "v": 40
    },
    {
      "midi": 42,
      "hit": false,
      "t": 28685.85599999994,
      "d": 9.123999999999796,
      "v": 70
    },
    {
      "midi": 36,
      "hit": false,
      "t": 28685.85599999994,
      "d": 9.123999999999796,
      "v": 76
    },
    {
      "midi": 76,
      "hit": false,
      "t": 28685.856,
      "d": 182.47999999999956,
      "v": 120
    },
    {
      "midi": 40,
      "hit": false,
      "t": 28685.856,
      "d": 1058.3839999999982,
      "v": 110
    },
    {
      "midi": 74,
      "hit": false,
      "t": 28685.856000000003,
      "d": 182.47999999999956,
      "v": 120
    },
    {
      "midi": 100,
      "hit": false,
      "t": 28685.856000000003,
      "d": 647.8040000000001,
      "v": 127
    },
    {
      "midi": 76,
      "hit": false,
      "t": 28685.856000000003,
      "d": 647.8040000000001,
      "v": 60
    },
    {
      "midi": 76,
      "hit": false,
      "t": 28795.344,
      "d": 182.47999999999956,
      "v": 120
    },
    {
      "midi": 42,
      "hit": false,
      "t": 28904.83199999994,
      "d": 9.123999999999796,
      "v": 98
    },
    {
      "midi": 76,
      "hit": false,
      "t": 28904.832000000002,
      "d": 182.47999999999956,
      "v": 120
    },
    {
      "midi": 42,
      "hit": false,
      "t": 29123.80799999994,
      "d": 9.123999999999796,
      "v": 70
    },
    {
      "midi": 36,
      "hit": false,
      "t": 29123.80799999994,
      "d": 9.123999999999796,
      "v": 84
    },
    {
      "midi": 42,
      "hit": false,
      "t": 29342.783999999938,
      "d": 9.123999999999796,
      "v": 98
    },
    {
      "midi": 38,
      "hit": false,
      "t": 29342.783999999938,
      "d": 9.123999999999796,
      "v": 84
    },
    {
      "midi": 42,
      "hit": false,
      "t": 29561.759999999937,
      "d": 9.123999999999796,
      "v": 70
    },
    {
      "midi": 42,
      "hit": false,
      "t": 29780.735999999935,
      "d": 9.123999999999796,
      "v": 98
    },
    {
      "midi": 36,
      "hit": false,
      "t": 29780.735999999935,
      "d": 9.123999999999796,
      "v": 76
    },
    {
      "midi": 28,
      "hit": false,
      "t": 29780.735999999997,
      "d": 182.47999999999956,
      "v": 110
    },
    {
      "midi": 42,
      "hit": false,
      "t": 29999.711999999934,
      "d": 9.123999999999796,
      "v": 70
    },
    {
      "midi": 36,
      "hit": false,
      "t": 29999.711999999934,
      "d": 9.123999999999796,
      "v": 84
    },
    {
      "midi": 28,
      "hit": false,
      "t": 29999.711999999996,
      "d": 182.47999999999956,
      "v": 110
    },
    {
      "midi": 42,
      "hit": false,
      "t": 30218.687999999933,
      "d": 9.123999999999796,
      "v": 98
    },
    {
      "midi": 38,
      "hit": false,
      "t": 30218.687999999933,
      "d": 9.123999999999796,
      "v": 76
    },
    {
      "midi": 28,
      "hit": false,
      "t": 30218.687999999995,
      "d": 182.47999999999956,
      "v": 110
    },
    {
      "midi": 42,
      "hit": false,
      "t": 30437.66399999993,
      "d": 9.123999999999796,
      "v": 70
    },
    {
      "midi": 28,
      "hit": false,
      "t": 30437.663999999993,
      "d": 620.4320000000007,
      "v": 110
    },
    {
      "midi": 42,
      "hit": false,
      "t": 30656.63999999993,
      "d": 9.123999999999796,
      "v": 98
    },
    {
      "midi": 100,
      "hit": false,
      "t": 30656.640000000003,
      "d": 428.82800000000134,
      "v": 127
    },
    {
      "midi": 76,
      "hit": false,
      "t": 30656.640000000003,
      "d": 428.82800000000134,
      "v": 60
    },
    {
      "midi": 48,
      "hit": false,
      "t": 30875.61599999993,
      "d": 9.123999999999796,
      "v": 84
    },
    {
      "midi": 45,
      "hit": false,
      "t": 31094.591999999928,
      "d": 9.123999999999796,
      "v": 84
    },
    {
      "midi": 28,
      "hit": false,
      "t": 31094.591999999993,
      "d": 182.47999999999956,
      "v": 110
    },
    {
      "midi": 101,
      "hit": false,
      "t": 31094.592000000004,
      "d": 428.82800000000134,
      "v": 127
    },
    {
      "midi": 77,
      "hit": false,
      "t": 31094.592000000004,
      "d": 428.82800000000134,
      "v": 60
    },
    {
      "midi": 41,
      "hit": false,
      "t": 31313.567999999927,
      "d": 9.123999999999796,
      "v": 84
    },
    {
      "midi": 29,
      "hit": false,
      "t": 31313.567999999992,
      "d": 182.47999999999956,
      "v": 110
    },
    {
      "midi": 79,
      "hit": false,
      "t": 31505.172000000006,
      "d": 1751.8079999999973,
      "v": 50
    },
    {
      "midi": 74,
      "hit": false,
      "t": 31505.172000000006,
      "d": 1751.8079999999973,
      "v": 50
    },
    {
      "midi": 62,
      "hit": false,
      "t": 31505.172000000006,
      "d": 1751.8079999999973,
      "v": 50
    },
    {
      "midi": 49,
      "hit": false,
      "t": 31532.543999999925,
      "d": 9.123999999999796,
      "v": 62
    },
    {
      "midi": 36,
      "hit": false,
      "t": 31532.543999999925,
      "d": 9.123999999999796,
      "v": 76
    },
    {
      "midi": 33,
      "hit": false,
      "t": 31532.54399999999,
      "d": 273.72000000000116,
      "v": 110
    },
    {
      "midi": 79,
      "hit": false,
      "t": 31532.543999999998,
      "d": 182.47999999999956,
      "v": 120
    },
    {
      "midi": 103,
      "hit": false,
      "t": 31532.544000000005,
      "d": 866.7799999999988,
      "v": 127
    },
    {
      "midi": 79,
      "hit": false,
      "t": 31532.544000000005,
      "d": 866.7799999999988,
      "v": 60
    },
    {
      "midi": 79,
      "hit": false,
      "t": 31642.032,
      "d": 182.47999999999956,
      "v": 120
    },
    {
      "midi": 42,
      "hit": false,
      "t": 31751.519999999924,
      "d": 9.123999999999796,
      "v": 70
    },
    {
      "midi": 79,
      "hit": false,
      "t": 31751.519999999997,
      "d": 182.47999999999956,
      "v": 120
    },
    {
      "midi": 79,
      "hit": false,
      "t": 31751.52,
      "d": 182.47999999999956,
      "v": 120
    },
    {
      "midi": 79,
      "hit": false,
      "t": 31861.007999999998,
      "d": 182.47999999999956,
      "v": 120
    },
    {
      "midi": 42,
      "hit": false,
      "t": 31970.495999999923,
      "d": 9.123999999999796,
      "v": 98
    },
    {
      "midi": 38,
      "hit": false,
      "t": 31970.495999999923,
      "d": 9.123999999999796,
      "v": 76
    },
    {
      "midi": 79,
      "hit": false,
      "t": 31970.495999999996,
      "d": 182.47999999999956,
      "v": 120
    },
    {
      "midi": 79,
      "hit": false,
      "t": 31970.496,
      "d": 182.47999999999956,
      "v": 120
    },
    {
      "midi": 79,
      "hit": false,
      "t": 32079.983999999997,
      "d": 182.47999999999956,
      "v": 120
    },
    {
      "midi": 42,
      "hit": false,
      "t": 32189.47199999992,
      "d": 9.123999999999796,
      "v": 70
    },
    {
      "midi": 36,
      "hit": false,
      "t": 32189.47199999992,
      "d": 9.123999999999796,
      "v": 76
    },
    {
      "midi": 33,
      "hit": false,
      "t": 32189.47199999999,
      "d": 273.72000000000116,
      "v": 110
    },
    {
      "midi": 79,
      "hit": false,
      "t": 32189.471999999994,
      "d": 182.47999999999956,
      "v": 120
    },
    {
      "midi": 79,
      "hit": false,
      "t": 32189.471999999998,
      "d": 182.47999999999956,
      "v": 120
    },
    {
      "midi": 79,
      "hit": false,
      "t": 32298.959999999995,
      "d": 182.47999999999956,
      "v": 120
    },
    {
      "midi": 42,
      "hit": false,
      "t": 32408.44799999992,
      "d": 9.123999999999796,
      "v": 98
    },
    {
      "midi": 79,
      "hit": false,
      "t": 32408.447999999997,
      "d": 182.47999999999956,
      "v": 120
    },
    {
      "midi": 42,
      "hit": false,
      "t": 32627.42399999992,
      "d": 9.123999999999796,
      "v": 70
    },
    {
      "midi": 36,
      "hit": false,
      "t": 32627.42399999992,
      "d": 9.123999999999796,
      "v": 76
    },
    {
      "midi": 79,
      "hit": false,
      "t": 32627.423999999995,
      "d": 182.47999999999956,
      "v": 120
    },
    {
      "midi": 79,
      "hit": false,
      "t": 32736.911999999997,
      "d": 182.4800000000032,
      "v": 120
    },
    {
      "midi": 42,
      "hit": false,
      "t": 32846.39999999992,
      "d": 9.124000000003434,
      "v": 98
    },
    {
      "midi": 38,
      "hit": false,
      "t": 32846.39999999992,
      "d": 9.124000000003434,
      "v": 76
    },
    {
      "midi": 79,
      "hit": false,
      "t": 32846.399999999994,
      "d": 182.4800000000032,
      "v": 120
    },
    {
      "midi": 79,
      "hit": false,
      "t": 32846.399999999994,
      "d": 182.4800000000032,
      "v": 120
    },
    {
      "midi": 79,
      "hit": false,
      "t": 32955.888,
      "d": 182.4800000000032,
      "v": 120
    },
    {
      "midi": 42,
      "hit": false,
      "t": 33065.375999999924,
      "d": 9.124000000003434,
      "v": 70
    },
    {
      "midi": 36,
      "hit": false,
      "t": 33065.375999999924,
      "d": 9.124000000003434,
      "v": 76
    },
    {
      "midi": 33,
      "hit": false,
      "t": 33065.37599999999,
      "d": 182.4800000000032,
      "v": 110
    },
    {
      "midi": 79,
      "hit": false,
      "t": 33065.376,
      "d": 182.4800000000032,
      "v": 120
    },
    {
      "midi": 79,
      "hit": false,
      "t": 33065.376,
      "d": 182.4800000000032,
      "v": 120
    },
    {
      "midi": 79,
      "hit": false,
      "t": 33174.864,
      "d": 182.4800000000032,
      "v": 120
    },
    {
      "midi": 79,
      "hit": false,
      "t": 33256.98,
      "d": 1751.8079999999973,
      "v": 50
    },
    {
      "midi": 73,
      "hit": false,
      "t": 33256.98,
      "d": 1751.8079999999973,
      "v": 40
    },
    {
      "midi": 61,
      "hit": false,
      "t": 33256.98,
      "d": 1751.8079999999973,
      "v": 40
    },
    {
      "midi": 42,
      "hit": false,
      "t": 33284.351999999926,
      "d": 9.124000000003434,
      "v": 98
    },
    {
      "midi": 79,
      "hit": false,
      "t": 33284.352,
      "d": 182.4800000000032,
      "v": 120
    },
    {
      "midi": 42,
      "hit": false,
      "t": 33503.32799999993,
      "d": 9.124000000003434,
      "v": 70
    },
    {
      "midi": 36,
      "hit": false,
      "t": 33503.32799999993,
      "d": 9.124000000003434,
      "v": 76
    },
    {
      "midi": 49,
      "hit": false,
      "t": 33503.327999999994,
      "d": 273.72000000000116,
      "v": 110
    },
    {
      "midi": 42,
      "hit": false,
      "t": 33722.30399999993,
      "d": 9.124000000003434,
      "v": 98
    },
    {
      "midi": 38,
      "hit": false,
      "t": 33722.30399999993,
      "d": 9.124000000003434,
      "v": 76
    },
    {
      "midi": 42,
      "hit": false,
      "t": 33941.27999999993,
      "d": 9.124000000003434,
      "v": 70
    },
    {
      "midi": 36,
      "hit": false,
      "t": 33941.27999999993,
      "d": 9.124000000003434,
      "v": 76
    },
    {
      "midi": 37,
      "hit": false,
      "t": 33941.28,
      "d": 273.72000000000116,
      "v": 110
    },
    {
      "midi": 42,
      "hit": false,
      "t": 34160.255999999936,
      "d": 9.124000000003434,
      "v": 98
    },
    {
      "midi": 42,
      "hit": false,
      "t": 34379.23199999994,
      "d": 9.124000000003434,
      "v": 70
    },
    {
      "midi": 38,
      "hit": false,
      "t": 34379.23199999994,
      "d": 9.124000000003434,
      "v": 76
    },
    {
      "midi": 42,
      "hit": false,
      "t": 34598.20799999994,
      "d": 9.124000000003434,
      "v": 98
    },
    {
      "midi": 42,
      "hit": false,
      "t": 34817.18399999994,
      "d": 9.124000000003434,
      "v": 70
    },
    {
      "midi": 36,
      "hit": false,
      "t": 34817.18399999994,
      "d": 9.124000000003434,
      "v": 76
    },
    {
      "midi": 77,
      "hit": false,
      "t": 35008.788,
      "d": 1751.8079999999973,
      "v": 50
    },
    {
      "midi": 74,
      "hit": false,
      "t": 35008.788,
      "d": 1751.8079999999973,
      "v": 50
    },
    {
      "midi": 62,
      "hit": false,
      "t": 35008.788,
      "d": 1751.8079999999973,
      "v": 50
    },
    {
      "midi": 42,
      "hit": false,
      "t": 35036.159999999945,
      "d": 9.124000000003434,
      "v": 98
    },
    {
      "midi": 36,
      "hit": false,
      "t": 35036.159999999945,
      "d": 9.124000000003434,
      "v": 76
    },
    {
      "midi": 77,
      "hit": false,
      "t": 35036.159999999996,
      "d": 182.4800000000032,
      "v": 120
    },
    {
      "midi": 38,
      "hit": false,
      "t": 35036.16,
      "d": 273.72000000000116,
      "v": 110
    },
    {
      "midi": 77,
      "hit": false,
      "t": 35145.648,
      "d": 182.4800000000032,
      "v": 120
    },
    {
      "midi": 42,
      "hit": false,
      "t": 35255.13599999995,
      "d": 9.124000000003434,
      "v": 70
    },
    {
      "midi": 79,
      "hit": false,
      "t": 35255.136,
      "d": 182.4800000000032,
      "v": 120
    },
    {
      "midi": 77,
      "hit": false,
      "t": 35255.136,
      "d": 182.4800000000032,
      "v": 120
    },
    {
      "midi": 79,
      "hit": false,
      "t": 35364.624,
      "d": 182.4800000000032,
      "v": 120
    },
    {
      "midi": 42,
      "hit": false,
      "t": 35474.11199999995,
      "d": 9.124000000003434,
      "v": 98
    },
    {
      "midi": 38,
      "hit": false,
      "t": 35474.11199999995,
      "d": 9.124000000003434,
      "v": 76
    },
    {
      "midi": 79,
      "hit": false,
      "t": 35474.112,
      "d": 182.4800000000032,
      "v": 120
    },
    {
      "midi": 42,
      "hit": false,
      "t": 35693.08799999995,
      "d": 9.124000000003434,
      "v": 70
    },
    {
      "midi": 36,
      "hit": false,
      "t": 35693.08799999995,
      "d": 9.124000000003434,
      "v": 76
    },
    {
      "midi": 81,
      "hit": false,
      "t": 35693.088,
      "d": 182.4800000000032,
      "v": 120
    },
    {
      "midi": 38,
      "hit": false,
      "t": 35693.088,
      "d": 273.72000000000116,
      "v": 110
    },
    {
      "midi": 81,
      "hit": false,
      "t": 35802.57600000001,
      "d": 182.4800000000032,
      "v": 120
    },
    {
      "midi": 42,
      "hit": false,
      "t": 35912.063999999955,
      "d": 9.124000000003434,
      "v": 98
    },
    {
      "midi": 81,
      "hit": false,
      "t": 35912.064000000006,
      "d": 182.4800000000032,
      "v": 120
    },
    {
      "midi": 42,
      "hit": false,
      "t": 36131.03999999996,
      "d": 9.124000000003434,
      "v": 70
    },
    {
      "midi": 36,
      "hit": false,
      "t": 36131.03999999996,
      "d": 9.124000000003434,
      "v": 76
    },
    {
      "midi": 77,
      "hit": false,
      "t": 36131.04000000001,
      "d": 182.4800000000032,
      "v": 120
    },
    {
      "midi": 77,
      "hit": false,
      "t": 36240.52800000001,
      "d": 182.4800000000032,
      "v": 120
    },
    {
      "midi": 42,
      "hit": false,
      "t": 36350.01599999996,
      "d": 9.124000000003434,
      "v": 98
    },
    {
      "midi": 38,
      "hit": false,
      "t": 36350.01599999996,
      "d": 9.124000000003434,
      "v": 76
    },
    {
      "midi": 77,
      "hit": false,
      "t": 36350.01600000001,
      "d": 182.4800000000032,
      "v": 120
    },
    {
      "midi": 42,
      "hit": false,
      "t": 36568.99199999996,
      "d": 9.124000000003434,
      "v": 70
    },
    {
      "midi": 36,
      "hit": false,
      "t": 36568.99199999996,
      "d": 9.124000000003434,
      "v": 76
    },
    {
      "midi": 40,
      "hit": false,
      "t": 36568.992000000006,
      "d": 428.82800000000134,
      "v": 110
    },
    {
      "midi": 76,
      "hit": false,
      "t": 36568.99200000001,
      "d": 182.4800000000032,
      "v": 120
    },
    {
      "midi": 76,
      "hit": false,
      "t": 36678.48000000002,
      "d": 182.4800000000032,
      "v": 120
    },
    {
      "midi": 80,
      "hit": false,
      "t": 36760.596,
      "d": 1751.8079999999973,
      "v": 50
    },
    {
      "midi": 76,
      "hit": false,
      "t": 36760.596,
      "d": 1751.8079999999973,
      "v": 40
    },
    {
      "midi": 64,
      "hit": false,
      "t": 36760.596,
      "d": 1751.8079999999973,
      "v": 40
    },
    {
      "midi": 42,
      "hit": false,
      "t": 36787.967999999964,
      "d": 9.124000000003434,
      "v": 98
    },
    {
      "midi": 76,
      "hit": false,
      "t": 36787.968000000015,
      "d": 182.4800000000032,
      "v": 120
    },
    {
      "midi": 42,
      "hit": false,
      "t": 37006.94399999997,
      "d": 9.124000000003434,
      "v": 70
    },
    {
      "midi": 36,
      "hit": false,
      "t": 37006.94399999997,
      "d": 9.124000000003434,
      "v": 76
    },
    {
      "midi": 52,
      "hit": false,
      "t": 37006.94400000001,
      "d": 428.82800000000134,
      "v": 110
    },
    {
      "midi": 76,
      "hit": false,
      "t": 37006.94400000002,
      "d": 182.4800000000032,
      "v": 120
    },
    {
      "midi": 76,
      "hit": false,
      "t": 37116.43200000002,
      "d": 182.4800000000032,
      "v": 120
    },
    {
      "midi": 42,
      "hit": false,
      "t": 37225.91999999997,
      "d": 9.124000000003434,
      "v": 98
    },
    {
      "midi": 38,
      "hit": false,
      "t": 37225.91999999997,
      "d": 9.124000000003434,
      "v": 76
    },
    {
      "midi": 74,
      "hit": false,
      "t": 37225.92000000002,
      "d": 182.4800000000032,
      "v": 120
    },
    {
      "midi": 76,
      "hit": false,
      "t": 37225.92000000002,
      "d": 182.4800000000032,
      "v": 120
    },
    {
      "midi": 74,
      "hit": false,
      "t": 37335.408000000025,
      "d": 182.4800000000032,
      "v": 120
    },
    {
      "midi": 42,
      "hit": false,
      "t": 37444.89599999997,
      "d": 9.124000000003434,
      "v": 70
    },
    {
      "midi": 36,
      "hit": false,
      "t": 37444.89599999997,
      "d": 9.124000000003434,
      "v": 76
    },
    {
      "midi": 40,
      "hit": false,
      "t": 37444.896000000015,
      "d": 182.4800000000032,
      "v": 110
    },
    {
      "midi": 76,
      "hit": false,
      "t": 37444.89600000002,
      "d": 182.4800000000032,
      "v": 120
    },
    {
      "midi": 74,
      "hit": false,
      "t": 37444.89600000002,
      "d": 182.4800000000032,
      "v": 120
    },
    {
      "midi": 76,
      "hit": false,
      "t": 37554.38400000003,
      "d": 182.4800000000032,
      "v": 120
    },
    {
      "midi": 42,
      "hit": false,
      "t": 37663.871999999974,
      "d": 9.124000000003434,
      "v": 98
    },
    {
      "midi": 76,
      "hit": false,
      "t": 37663.872000000025,
      "d": 182.4800000000032,
      "v": 120
    },
    {
      "midi": 42,
      "hit": false,
      "t": 37882.847999999976,
      "d": 9.124000000003434,
      "v": 70
    },
    {
      "midi": 38,
      "hit": false,
      "t": 37882.847999999976,
      "d": 9.124000000003434,
      "v": 76
    },
    {
      "midi": 42,
      "hit": false,
      "t": 38101.82399999998,
      "d": 9.124000000003434,
      "v": 98
    },
    {
      "midi": 76,
      "hit": false,
      "t": 38101.82400000002,
      "d": 182.4800000000032,
      "v": 120
    },
    {
      "midi": 76,
      "hit": false,
      "t": 38211.31200000003,
      "d": 182.4800000000032,
      "v": 120
    },
    {
      "midi": 42,
      "hit": false,
      "t": 38320.79999999998,
      "d": 9.124000000003434,
      "v": 70
    },
    {
      "midi": 36,
      "hit": false,
      "t": 38320.79999999998,
      "d": 9.124000000003434,
      "v": 76
    },
    {
      "midi": 76,
      "hit": false,
      "t": 38320.800000000025,
      "d": 182.4800000000032,
      "v": 120
    },
    {
      "midi": 69,
      "hit": false,
      "t": 38512.403999999995,
      "d": 866.7799999999988,
      "v": 40
    },
    {
      "midi": 81,
      "hit": false,
      "t": 38512.403999999995,
      "d": 1742.684000000001,
      "v": 50
    },
    {
      "midi": 64,
      "hit": false,
      "t": 38512.403999999995,
      "d": 1742.684000000001,
      "v": 50
    },
    {
      "midi": 42,
      "hit": false,
      "t": 38539.77599999998,
      "d": 9.124000000003434,
      "v": 98
    },
    {
      "midi": 36,
      "hit": false,
      "t": 38539.77599999998,
      "d": 9.124000000003434,
      "v": 76
    },
    {
      "midi": 93,
      "hit": false,
      "t": 38539.776000000005,
      "d": 428.82800000000134,
      "v": 127
    },
    {
      "midi": 69,
      "hit": false,
      "t": 38539.776000000005,
      "d": 428.82800000000134,
      "v": 60
    },
    {
      "midi": 33,
      "hit": false,
      "t": 38539.77600000002,
      "d": 401.4559999999983,
      "v": 110
    },
    {
      "midi": 81,
      "hit": false,
      "t": 38539.77600000003,
      "d": 182.4800000000032,
      "v": 120
    },
    {
      "midi": 81,
      "hit": false,
      "t": 38649.26400000003,
      "d": 182.4800000000032,
      "v": 120
    },
    {
      "midi": 42,
      "hit": false,
      "t": 38758.751999999986,
      "d": 9.124000000003434,
      "v": 70
    },
    {
      "midi": 81,
      "hit": false,
      "t": 38758.75200000003,
      "d": 182.4800000000032,
      "v": 120
    },
    {
      "midi": 42,
      "hit": false,
      "t": 38977.72799999999,
      "d": 9.124000000003434,
      "v": 98
    },
    {
      "midi": 38,
      "hit": false,
      "t": 38977.72799999999,
      "d": 9.124000000003434,
      "v": 76
    },
    {
      "midi": 42,
      "hit": false,
      "t": 39196.70399999999,
      "d": 9.124000000003434,
      "v": 70
    },
    {
      "midi": 36,
      "hit": false,
      "t": 39196.70399999999,
      "d": 9.124000000003434,
      "v": 76
    },
    {
      "midi": 31,
      "hit": false,
      "t": 39196.70400000002,
      "d": 1058.3839999999982,
      "v": 110
    },
    {
      "midi": 67,
      "hit": false,
      "t": 39388.308,
      "d": 866.7799999999988,
      "v": 40
    },
    {
      "midi": 42,
      "hit": false,
      "t": 39415.67999999999,
      "d": 9.124000000003434,
      "v": 98
    },
    {
      "midi": 42,
      "hit": false,
      "t": 39634.655999999995,
      "d": 9.124000000003434,
      "v": 70
    },
    {
      "midi": 36,
      "hit": false,
      "t": 39634.655999999995,
      "d": 9.124000000003434,
      "v": 84
    },
    {
      "midi": 42,
      "hit": false,
      "t": 39853.632,
      "d": 9.124000000003434,
      "v": 98
    },
    {
      "midi": 38,
      "hit": false,
      "t": 39853.632,
      "d": 9.124000000003434,
      "v": 84
    },
    {
      "midi": 91,
      "hit": false,
      "t": 39853.632000000005,
      "d": 428.82800000000134,
      "v": 127
    },
    {
      "midi": 67,
      "hit": false,
      "t": 39853.632000000005,
      "d": 428.82800000000134,
      "v": 60
    },
    {
      "midi": 79,
      "hit": false,
      "t": 39853.63200000003,
      "d": 182.4800000000032,
      "v": 120
    },
    {
      "midi": 79,
      "hit": false,
      "t": 39963.12000000003,
      "d": 182.4800000000032,
      "v": 120
    },
    {
      "midi": 42,
      "hit": false,
      "t": 40072.608,
      "d": 9.124000000003434,
      "v": 70
    },
    {
      "midi": 79,
      "hit": false,
      "t": 40072.60800000003,
      "d": 182.4800000000032,
      "v": 120
    },
    {
      "midi": 81,
      "hit": false,
      "t": 40264.212,
      "d": 1523.7079999999914,
      "v": 50
    },
    {
      "midi": 62,
      "hit": false,
      "t": 40264.212,
      "d": 1523.7079999999914,
      "v": 50
    },
    {
      "midi": 42,
      "hit": false,
      "t": 40291.584,
      "d": 9.124000000003434,
      "v": 98
    },
    {
      "midi": 36,
      "hit": false,
      "t": 40291.584,
      "d": 9.124000000003434,
      "v": 76
    },
    {
      "midi": 93,
      "hit": false,
      "t": 40291.58400000001,
      "d": 428.82800000000134,
      "v": 127
    },
    {
      "midi": 69,
      "hit": false,
      "t": 40291.58400000001,
      "d": 428.82800000000134,
      "v": 60
    },
    {
      "midi": 29,
      "hit": false,
      "t": 40291.58400000002,
      "d": 401.4559999999983,
      "v": 110
    },
    {
      "midi": 81,
      "hit": false,
      "t": 40291.58400000003,
      "d": 182.4800000000032,
      "v": 120
    },
    {
      "midi": 81,
      "hit": false,
      "t": 40401.07200000004,
      "d": 182.4800000000032,
      "v": 120
    },
    {
      "midi": 42,
      "hit": false,
      "t": 40510.560000000005,
      "d": 9.124000000003434,
      "v": 70
    },
    {
      "midi": 36,
      "hit": false,
      "t": 40510.560000000005,
      "d": 9.124000000003434,
      "v": 84
    },
    {
      "midi": 81,
      "hit": false,
      "t": 40510.560000000034,
      "d": 182.4800000000032,
      "v": 120
    },
    {
      "midi": 66,
      "hit": false,
      "t": 40702.164,
      "d": 437.9519999999975,
      "v": 40
    },
    {
      "midi": 42,
      "hit": false,
      "t": 40729.53600000001,
      "d": 9.124000000003434,
      "v": 98
    },
    {
      "midi": 38,
      "hit": false,
      "t": 40729.53600000001,
      "d": 9.124000000003434,
      "v": 76
    },
    {
      "midi": 42,
      "hit": false,
      "t": 40948.51200000001,
      "d": 9.124000000003434,
      "v": 70
    },
    {
      "midi": 36,
      "hit": false,
      "t": 40948.51200000001,
      "d": 9.124000000003434,
      "v": 76
    },
    {
      "midi": 28,
      "hit": false,
      "t": 40948.51200000002,
      "d": 866.7799999999988,
      "v": 110
    },
    {
      "midi": 65,
      "hit": false,
      "t": 41140.115999999995,
      "d": 437.9519999999975,
      "v": 40
    },
    {
      "midi": 42,
      "hit": false,
      "t": 41167.48800000001,
      "d": 9.124000000003434,
      "v": 98
    },
    {
      "midi": 93,
      "hit": false,
      "t": 41386.464000000014,
      "d": 209.85199999999895,
      "v": 127
    },
    {
      "midi": 69,
      "hit": false,
      "t": 41386.464000000014,
      "d": 209.85199999999895,
      "v": 60
    },
    {
      "midi": 42,
      "hit": false,
      "t": 41386.464000000014,
      "d": 9.124000000003434,
      "v": 70
    },
    {
      "midi": 38,
      "hit": false,
      "t": 41386.464000000014,
      "d": 9.124000000003434,
      "v": 84
    },
    {
      "midi": 81,
      "hit": false,
      "t": 41386.464000000036,
      "d": 182.4800000000032,
      "v": 120
    },
    {
      "midi": 81,
      "hit": false,
      "t": 41495.95200000004,
      "d": 182.4800000000032,
      "v": 120
    },
    {
      "midi": 96,
      "hit": false,
      "t": 41605.44000000002,
      "d": 209.85199999999895,
      "v": 127
    },
    {
      "midi": 72,
      "hit": false,
      "t": 41605.44000000002,
      "d": 209.85199999999895,
      "v": 60
    },
    {
      "midi": 42,
      "hit": false,
      "t": 41605.44000000002,
      "d": 9.124000000003434,
      "v": 98
    },
    {
      "midi": 84,
      "hit": false,
      "t": 41605.44000000004,
      "d": 182.4800000000032,
      "v": 120
    },
    {
      "midi": 81,
      "hit": false,
      "t": 41605.44000000004,
      "d": 182.4800000000032,
      "v": 120
    },
    {
      "midi": 84,
      "hit": false,
      "t": 41714.92800000004,
      "d": 182.4800000000032,
      "v": 120
    },
    {
      "midi": 71,
      "hit": false,
      "t": 41797.043999999994,
      "d": 437.9519999999975,
      "v": 50
    },
    {
      "midi": 67,
      "hit": false,
      "t": 41797.043999999994,
      "d": 437.9519999999975,
      "v": 50
    },
    {
      "midi": 26,
      "hit": false,
      "t": 41824.41600000002,
      "d": 866.7799999999988,
      "v": 110
    },
    {
      "midi": 95,
      "hit": false,
      "t": 41824.41600000002,
      "d": 209.85199999999895,
      "v": 127
    },
    {
      "midi": 71,
      "hit": false,
      "t": 41824.41600000002,
      "d": 209.85199999999895,
      "v": 60
    },
    {
      "midi": 49,
      "hit": false,
      "t": 41824.41600000002,
      "d": 9.124000000003434,
      "v": 84
    },
    {
      "midi": 36,
      "hit": false,
      "t": 41824.41600000002,
      "d": 9.124000000003434,
      "v": 84
    },
    {
      "midi": 83,
      "hit": false,
      "t": 41824.41600000004,
      "d": 182.4800000000032,
      "v": 120
    },
    {
      "midi": 84,
      "hit": false,
      "t": 41824.41600000004,
      "d": 182.4800000000032,
      "v": 120
    },
    {
      "midi": 83,
      "hit": false,
      "t": 41933.904000000046,
      "d": 182.4800000000032,
      "v": 120
    },
    {
      "midi": 83,
      "hit": false,
      "t": 42043.39200000004,
      "d": 182.4800000000032,
      "v": 120
    },
    {
      "midi": 67,
      "hit": false,
      "t": 42234.99599999999,
      "d": 875.9040000000023,
      "v": 60
    },
    {
      "midi": 64,
      "hit": false,
      "t": 42234.99599999999,
      "d": 875.9040000000023,
      "v": 60
    },
    {
      "midi": 48,
      "hit": false,
      "t": 42262.368000000024,
      "d": 9.124000000003434,
      "v": 84
    },
    {
      "midi": 45,
      "hit": false,
      "t": 42481.34400000003,
      "d": 9.124000000003434,
      "v": 84
    },
    {
      "midi": 38,
      "hit": false,
      "t": 42700.32000000002,
      "d": 1058.3839999999982,
      "v": 110
    },
    {
      "midi": 49,
      "hit": false,
      "t": 42700.32000000003,
      "d": 9.124000000003434,
      "v": 84
    },
    {
      "midi": 36,
      "hit": false,
      "t": 42700.32000000003,
      "d": 9.124000000003434,
      "v": 84
    },
    {
      "midi": 69,
      "hit": false,
      "t": 43110.899999999994,
      "d": 656.9279999999999,
      "v": 60
    },
    {
      "midi": 65,
      "hit": false,
      "t": 43110.899999999994,
      "d": 656.9279999999999,
      "v": 60
    },
    {
      "midi": 45,
      "hit": false,
      "t": 43138.27200000003,
      "d": 9.124000000003434,
      "v": 84
    },
    {
      "midi": 45,
      "hit": false,
      "t": 43357.248000000036,
      "d": 9.124000000003434,
      "v": 84
    },
    {
      "midi": 41,
      "hit": false,
      "t": 43576.22400000004,
      "d": 9.124000000003434,
      "v": 84
    },
    {
      "midi": 65,
      "hit": false,
      "t": 43767.827999999994,
      "d": 656.9279999999999,
      "v": 60
    },
    {
      "midi": 69,
      "hit": false,
      "t": 43767.827999999994,
      "d": 875.903999999995,
      "v": 60
    },
    {
      "midi": 31,
      "hit": false,
      "t": 43795.20000000002,
      "d": 401.4559999999983,
      "v": 110
    },
    {
      "midi": 49,
      "hit": false,
      "t": 43795.20000000004,
      "d": 9.124000000003434,
      "v": 84
    },
    {
      "midi": 36,
      "hit": false,
      "t": 43795.20000000004,
      "d": 9.124000000003434,
      "v": 84
    },
    {
      "midi": 41,
      "hit": false,
      "t": 44014.17600000004,
      "d": 9.124000000003434,
      "v": 84
    },
    {
      "midi": 36,
      "hit": false,
      "t": 44233.152000000046,
      "d": 9.124000000003434,
      "v": 84
    },
    {
      "midi": 67,
      "hit": false,
      "t": 44424.755999999994,
      "d": 91.23999999999796,
      "v": 60
    },
    {
      "midi": 65,
      "hit": false,
      "t": 44424.755999999994,
      "d": 218.9759999999951,
      "v": 60
    },
    {
      "midi": 28,
      "hit": false,
      "t": 44452.12800000002,
      "d": 1058.3839999999982,
      "v": 110
    },
    {
      "midi": 49,
      "hit": false,
      "t": 44452.12800000005,
      "d": 9.124000000003434,
      "v": 84
    },
    {
      "midi": 36,
      "hit": false,
      "t": 44452.12800000005,
      "d": 9.124000000003434,
      "v": 84
    },
    {
      "midi": 71,
      "hit": false,
      "t": 44643.73199999999,
      "d": 875.9040000000023,
      "v": 60
    },
    {
      "midi": 67,
      "hit": false,
      "t": 44643.73199999999,
      "d": 875.9040000000023,
      "v": 60
    },
    {
      "midi": 48,
      "hit": false,
      "t": 44890.08000000005,
      "d": 9.124000000003434,
      "v": 84
    },
    {
      "midi": 45,
      "hit": false,
      "t": 45109.056000000055,
      "d": 9.124000000003434,
      "v": 84
    },
    {
      "midi": 41,
      "hit": false,
      "t": 45328.03200000006,
      "d": 9.124000000003434,
      "v": 84
    },
    {
      "midi": 72,
      "hit": false,
      "t": 45547.00799999999,
      "d": 620.4320000000007,
      "v": 100
    },
    {
      "midi": 67,
      "hit": false,
      "t": 45547.00799999999,
      "d": 620.4320000000007,
      "v": 100
    },
    {
      "midi": 64,
      "hit": false,
      "t": 45547.00799999999,
      "d": 620.4320000000007,
      "v": 100
    },
    {
      "midi": 33,
      "hit": false,
      "t": 45547.008000000016,
      "d": 647.8039999999964,
      "v": 110
    },
    {
      "midi": 49,
      "hit": false,
      "t": 45547.00800000006,
      "d": 9.124000000003434,
      "v": 62
    },
    {
      "midi": 36,
      "hit": false,
      "t": 45547.00800000006,
      "d": 9.124000000003434,
      "v": 76
    },
    {
      "midi": 42,
      "hit": false,
      "t": 45765.98400000006,
      "d": 9.124000000003434,
      "v": 70
    },
    {
      "midi": 84,
      "hit": false,
      "t": 45984.96,
      "d": 91.23999999999796,
      "v": 90
    },
    {
      "midi": 79,
      "hit": false,
      "t": 45984.96,
      "d": 91.23999999999796,
      "v": 90
    },
    {
      "midi": 42,
      "hit": false,
      "t": 45984.960000000065,
      "d": 9.124000000003434,
      "v": 98
    },
    {
      "midi": 38,
      "hit": false,
      "t": 45984.960000000065,
      "d": 9.124000000003434,
      "v": 76
    },
    {
      "midi": 71,
      "hit": false,
      "t": 46203.93599999999,
      "d": 620.4320000000007,
      "v": 100
    },
    {
      "midi": 67,
      "hit": false,
      "t": 46203.93599999999,
      "d": 620.4320000000007,
      "v": 100
    },
    {
      "midi": 62,
      "hit": false,
      "t": 46203.93599999999,
      "d": 620.4320000000007,
      "v": 100
    },
    {
      "midi": 33,
      "hit": false,
      "t": 46203.936000000016,
      "d": 209.85199999999895,
      "v": 110
    },
    {
      "midi": 42,
      "hit": false,
      "t": 46203.93600000007,
      "d": 9.124000000003434,
      "v": 70
    },
    {
      "midi": 36,
      "hit": false,
      "t": 46203.93600000007,
      "d": 9.124000000003434,
      "v": 76
    },
    {
      "midi": 84,
      "hit": false,
      "t": 46422.912,
      "d": 91.23999999999796,
      "v": 90
    },
    {
      "midi": 79,
      "hit": false,
      "t": 46422.912,
      "d": 91.23999999999796,
      "v": 90
    },
    {
      "midi": 42,
      "hit": false,
      "t": 46422.91200000007,
      "d": 9.124000000003434,
      "v": 98
    },
    {
      "midi": 28,
      "hit": false,
      "t": 46641.88800000001,
      "d": 100.3640000000014,
      "v": 110
    },
    {
      "midi": 42,
      "hit": false,
      "t": 46641.88800000007,
      "d": 9.124000000003434,
      "v": 70
    },
    {
      "midi": 36,
      "hit": false,
      "t": 46641.88800000007,
      "d": 9.124000000003434,
      "v": 76
    },
    {
      "midi": 33,
      "hit": false,
      "t": 46751.37600000002,
      "d": 100.3640000000014,
      "v": 110
    },
    {
      "midi": 72,
      "hit": false,
      "t": 46860.86399999999,
      "d": 620.4320000000007,
      "v": 100
    },
    {
      "midi": 67,
      "hit": false,
      "t": 46860.86399999999,
      "d": 620.4320000000007,
      "v": 100
    },
    {
      "midi": 64,
      "hit": false,
      "t": 46860.86399999999,
      "d": 620.4320000000007,
      "v": 100
    },
    {
      "midi": 28,
      "hit": false,
      "t": 46860.86400000002,
      "d": 647.8039999999964,
      "v": 110
    },
    {
      "midi": 42,
      "hit": false,
      "t": 46860.864000000074,
      "d": 9.124000000003434,
      "v": 98
    },
    {
      "midi": 38,
      "hit": false,
      "t": 46860.864000000074,
      "d": 9.124000000003434,
      "v": 76
    },
    {
      "midi": 42,
      "hit": false,
      "t": 47079.84000000008,
      "d": 9.124000000003434,
      "v": 70
    },
    {
      "midi": 36,
      "hit": false,
      "t": 47079.84000000008,
      "d": 9.124000000003434,
      "v": 76
    },
    {
      "midi": 42,
      "hit": false,
      "t": 47298.81600000008,
      "d": 9.124000000003434,
      "v": 98
    },
    {
      "midi": 71,
      "hit": false,
      "t": 47517.79199999999,
      "d": 620.4320000000007,
      "v": 100
    },
    {
      "midi": 67,
      "hit": false,
      "t": 47517.79199999999,
      "d": 620.4320000000007,
      "v": 100
    },
    {
      "midi": 62,
      "hit": false,
      "t": 47517.79199999999,
      "d": 620.4320000000007,
      "v": 100
    },
    {
      "midi": 45,
      "hit": false,
      "t": 47517.79200000002,
      "d": 428.82800000000134,
      "v": 110
    },
    {
      "midi": 42,
      "hit": false,
      "t": 47517.79200000008,
      "d": 9.124000000003434,
      "v": 70
    },
    {
      "midi": 36,
      "hit": false,
      "t": 47517.79200000008,
      "d": 9.124000000003434,
      "v": 76
    },
    {
      "midi": 42,
      "hit": false,
      "t": 47736.768000000084,
      "d": 9.124000000003434,
      "v": 98
    },
    {
      "midi": 38,
      "hit": false,
      "t": 47736.768000000084,
      "d": 9.124000000003434,
      "v": 76
    },
    {
      "midi": 33,
      "hit": false,
      "t": 47955.74400000003,
      "d": 866.7799999999988,
      "v": 110
    },
    {
      "midi": 42,
      "hit": false,
      "t": 47955.744000000086,
      "d": 9.124000000003434,
      "v": 70
    },
    {
      "midi": 36,
      "hit": false,
      "t": 47955.744000000086,
      "d": 9.124000000003434,
      "v": 76
    },
    {
      "midi": 72,
      "hit": false,
      "t": 48174.71999999999,
      "d": 839.4080000000031,
      "v": 100
    },
    {
      "midi": 67,
      "hit": false,
      "t": 48174.71999999999,
      "d": 839.4080000000031,
      "v": 100
    },
    {
      "midi": 64,
      "hit": false,
      "t": 48174.71999999999,
      "d": 839.4080000000031,
      "v": 100
    },
    {
      "midi": 42,
      "hit": false,
      "t": 48174.72000000009,
      "d": 9.124000000003434,
      "v": 98
    },
    {
      "midi": 42,
      "hit": false,
      "t": 48393.69600000009,
      "d": 9.124000000003434,
      "v": 70
    },
    {
      "midi": 38,
      "hit": false,
      "t": 48393.69600000009,
      "d": 9.124000000003434,
      "v": 76
    },
    {
      "midi": 53,
      "hit": false,
      "t": 48612.67199999997,
      "d": 9.124000000003434,
      "v": 70
    },
    {
      "midi": 42,
      "hit": false,
      "t": 48612.67200000009,
      "d": 9.124000000003434,
      "v": 98
    },
    {
      "midi": 53,
      "hit": false,
      "t": 48649.167999999976,
      "d": 9.124000000003434,
      "v": 71
    },
    {
      "midi": 53,
      "hit": false,
      "t": 48685.66399999998,
      "d": 9.124000000003434,
      "v": 72
    },
    {
      "midi": 53,
      "hit": false,
      "t": 48722.15999999999,
      "d": 9.124000000003434,
      "v": 73
    },
    {
      "midi": 53,
      "hit": false,
      "t": 48758.655999999995,
      "d": 9.124000000003434,
      "v": 74
    },
    {
      "midi": 53,
      "hit": false,
      "t": 48795.152,
      "d": 9.124000000003434,
      "v": 75
    },
    {
      "midi": 53,
      "hit": false,
      "t": 48831.64800000001,
      "d": 9.124000000003434,
      "v": 76
    },
    {
      "midi": 42,
      "hit": false,
      "t": 48831.648000000096,
      "d": 9.124000000003434,
      "v": 70
    },
    {
      "midi": 36,
      "hit": false,
      "t": 48831.648000000096,
      "d": 9.124000000003434,
      "v": 76
    },
    {
      "midi": 53,
      "hit": false,
      "t": 48868.144000000015,
      "d": 9.124000000003434,
      "v": 77
    },
    {
      "midi": 53,
      "hit": false,
      "t": 48904.64000000002,
      "d": 9.124000000003434,
      "v": 78
    },
    {
      "midi": 53,
      "hit": false,
      "t": 48941.13600000003,
      "d": 9.124000000003434,
      "v": 79
    },
    {
      "midi": 53,
      "hit": false,
      "t": 48977.632000000034,
      "d": 9.124000000003434,
      "v": 80
    },
    {
      "midi": 53,
      "hit": false,
      "t": 49014.12800000004,
      "d": 9.124000000003434,
      "v": 81
    },
    {
      "midi": 72,
      "hit": false,
      "t": 49050.62399999999,
      "d": 620.4320000000007,
      "v": 100
    },
    {
      "midi": 67,
      "hit": false,
      "t": 49050.62399999999,
      "d": 620.4320000000007,
      "v": 100
    },
    {
      "midi": 64,
      "hit": false,
      "t": 49050.62399999999,
      "d": 620.4320000000007,
      "v": 100
    },
    {
      "midi": 29,
      "hit": false,
      "t": 49050.624000000025,
      "d": 273.72000000000116,
      "v": 110
    },
    {
      "midi": 53,
      "hit": false,
      "t": 49050.62400000005,
      "d": 9.124000000003434,
      "v": 82
    },
    {
      "midi": 42,
      "hit": false,
      "t": 49050.6240000001,
      "d": 9.124000000003434,
      "v": 98
    },
    {
      "midi": 36,
      "hit": false,
      "t": 49050.6240000001,
      "d": 9.124000000003434,
      "v": 76
    },
    {
      "midi": 53,
      "hit": false,
      "t": 49087.12000000005,
      "d": 9.124000000003434,
      "v": 83
    },
    {
      "midi": 53,
      "hit": false,
      "t": 49123.61600000006,
      "d": 9.124000000003434,
      "v": 84
    },
    {
      "midi": 42,
      "hit": false,
      "t": 49269.6000000001,
      "d": 9.124000000003434,
      "v": 70
    },
    {
      "midi": 84,
      "hit": false,
      "t": 49488.575999999994,
      "d": 91.23999999999796,
      "v": 90
    },
    {
      "midi": 79,
      "hit": false,
      "t": 49488.575999999994,
      "d": 91.23999999999796,
      "v": 90
    },
    {
      "midi": 42,
      "hit": false,
      "t": 49488.5760000001,
      "d": 9.124000000003434,
      "v": 98
    },
    {
      "midi": 38,
      "hit": false,
      "t": 49488.5760000001,
      "d": 9.124000000003434,
      "v": 76
    },
    {
      "midi": 71,
      "hit": false,
      "t": 49707.55199999999,
      "d": 620.4320000000007,
      "v": 100
    },
    {
      "midi": 67,
      "hit": false,
      "t": 49707.55199999999,
      "d": 620.4320000000007,
      "v": 100
    },
    {
      "midi": 62,
      "hit": false,
      "t": 49707.55199999999,
      "d": 620.4320000000007,
      "v": 100
    },
    {
      "midi": 29,
      "hit": false,
      "t": 49707.552000000025,
      "d": 273.72000000000116,
      "v": 110
    },
    {
      "midi": 42,
      "hit": false,
      "t": 49707.552000000105,
      "d": 9.124000000003434,
      "v": 70
    },
    {
      "midi": 36,
      "hit": false,
      "t": 49707.552000000105,
      "d": 9.124000000003434,
      "v": 76
    },
    {
      "midi": 84,
      "hit": false,
      "t": 49926.52799999999,
      "d": 91.23999999999796,
      "v": 90
    },
    {
      "midi": 79,
      "hit": false,
      "t": 49926.52799999999,
      "d": 91.23999999999796,
      "v": 90
    },
    {
      "midi": 42,
      "hit": false,
      "t": 49926.52800000011,
      "d": 9.124000000003434,
      "v": 98
    },
    {
      "midi": 42,
      "hit": false,
      "t": 50145.50400000011,
      "d": 9.124000000003434,
      "v": 70
    },
    {
      "midi": 36,
      "hit": false,
      "t": 50145.50400000011,
      "d": 9.124000000003434,
      "v": 76
    },
    {
      "midi": 72,
      "hit": false,
      "t": 50364.47999999999,
      "d": 620.4320000000007,
      "v": 100
    },
    {
      "midi": 67,
      "hit": false,
      "t": 50364.47999999999,
      "d": 620.4320000000007,
      "v": 100
    },
    {
      "midi": 64,
      "hit": false,
      "t": 50364.47999999999,
      "d": 620.4320000000007,
      "v": 100
    },
    {
      "midi": 41,
      "hit": false,
      "t": 50364.480000000025,
      "d": 209.85199999999895,
      "v": 110
    },
    {
      "midi": 42,
      "hit": false,
      "t": 50364.48000000011,
      "d": 9.124000000003434,
      "v": 98
    },
    {
      "midi": 38,
      "hit": false,
      "t": 50364.48000000011,
      "d": 9.124000000003434,
      "v": 76
    },
    {
      "midi": 28,
      "hit": false,
      "t": 50583.45600000003,
      "d": 273.72000000000116,
      "v": 110
    },
    {
      "midi": 42,
      "hit": false,
      "t": 50583.456000000115,
      "d": 9.124000000003434,
      "v": 70
    },
    {
      "midi": 36,
      "hit": false,
      "t": 50583.456000000115,
      "d": 9.124000000003434,
      "v": 76
    },
    {
      "midi": 29,
      "hit": false,
      "t": 50802.43200000003,
      "d": 218.9760000000024,
      "v": 110
    },
    {
      "midi": 42,
      "hit": false,
      "t": 50802.43200000012,
      "d": 9.124000000003434,
      "v": 98
    },
    {
      "midi": 71,
      "hit": false,
      "t": 51021.40799999999,
      "d": 620.4320000000007,
      "v": 100
    },
    {
      "midi": 67,
      "hit": false,
      "t": 51021.40799999999,
      "d": 620.4320000000007,
      "v": 100
    },
    {
      "midi": 62,
      "hit": false,
      "t": 51021.40799999999,
      "d": 620.4320000000007,
      "v": 100
    },
    {
      "midi": 41,
      "hit": false,
      "t": 51021.40800000003,
      "d": 428.82800000000134,
      "v": 110
    },
    {
      "midi": 42,
      "hit": false,
      "t": 51021.40800000012,
      "d": 9.124000000003434,
      "v": 70
    },
    {
      "midi": 36,
      "hit": false,
      "t": 51021.40800000012,
      "d": 9.124000000003434,
      "v": 76
    },
    {
      "midi": 42,
      "hit": false,
      "t": 51240.38400000012,
      "d": 9.124000000003434,
      "v": 98
    },
    {
      "midi": 38,
      "hit": false,
      "t": 51240.38400000012,
      "d": 9.124000000003434,
      "v": 76
    },
    {
      "midi": 29,
      "hit": false,
      "t": 51459.36000000004,
      "d": 273.72000000000116,
      "v": 110
    },
    {
      "midi": 42,
      "hit": false,
      "t": 51459.360000000124,
      "d": 9.124000000003434,
      "v": 70
    },
    {
      "midi": 36,
      "hit": false,
      "t": 51459.360000000124,
      "d": 9.124000000003434,
      "v": 76
    },
    {
      "midi": 72,
      "hit": false,
      "t": 51678.33599999999,
      "d": 839.4080000000031,
      "v": 100
    },
    {
      "midi": 67,
      "hit": false,
      "t": 51678.33599999999,
      "d": 839.4080000000031,
      "v": 100
    },
    {
      "midi": 64,
      "hit": false,
      "t": 51678.33599999999,
      "d": 839.4080000000031,
      "v": 100
    },
    {
      "midi": 42,
      "hit": false,
      "t": 51678.33600000013,
      "d": 9.124000000003434,
      "v": 98
    },
    {
      "midi": 42,
      "hit": false,
      "t": 51897.31200000013,
      "d": 9.124000000003434,
      "v": 70
    },
    {
      "midi": 38,
      "hit": false,
      "t": 51897.31200000013,
      "d": 9.124000000003434,
      "v": 76
    },
    {
      "midi": 53,
      "hit": false,
      "t": 52116.288000000066,
      "d": 9.124000000003434,
      "v": 70
    },
    {
      "midi": 42,
      "hit": false,
      "t": 52116.28800000013,
      "d": 9.124000000003434,
      "v": 98
    },
    {
      "midi": 53,
      "hit": false,
      "t": 52152.78400000007,
      "d": 9.124000000003434,
      "v": 71
    },
    {
      "midi": 53,
      "hit": false,
      "t": 52189.28000000008,
      "d": 9.124000000003434,
      "v": 72
    },
    {
      "midi": 53,
      "hit": false,
      "t": 52225.776000000085,
      "d": 9.124000000003434,
      "v": 73
    },
    {
      "midi": 53,
      "hit": false,
      "t": 52262.27200000009,
      "d": 9.124000000003434,
      "v": 74
    },
    {
      "midi": 53,
      "hit": false,
      "t": 52298.7680000001,
      "d": 9.124000000003434,
      "v": 75
    },
    {
      "midi": 53,
      "hit": false,
      "t": 52335.264000000105,
      "d": 9.124000000003434,
      "v": 76
    },
    {
      "midi": 42,
      "hit": false,
      "t": 52335.264000000134,
      "d": 9.124000000003434,
      "v": 70
    },
    {
      "midi": 36,
      "hit": false,
      "t": 52335.264000000134,
      "d": 9.124000000003434,
      "v": 76
    },
    {
      "midi": 53,
      "hit": false,
      "t": 52371.76000000011,
      "d": 9.124000000003434,
      "v": 77
    },
    {
      "midi": 53,
      "hit": false,
      "t": 52408.25600000012,
      "d": 9.124000000003434,
      "v": 78
    },
    {
      "midi": 53,
      "hit": false,
      "t": 52444.752000000124,
      "d": 9.124000000003434,
      "v": 79
    },
    {
      "midi": 53,
      "hit": false,
      "t": 52481.24800000013,
      "d": 9.124000000003434,
      "v": 80
    },
    {
      "midi": 53,
      "hit": false,
      "t": 52517.74400000014,
      "d": 9.124000000003434,
      "v": 81
    },
    {
      "midi": 72,
      "hit": false,
      "t": 52554.23999999999,
      "d": 620.4320000000007,
      "v": 100
    },
    {
      "midi": 67,
      "hit": false,
      "t": 52554.23999999999,
      "d": 620.4320000000007,
      "v": 100
    },
    {
      "midi": 62,
      "hit": false,
      "t": 52554.23999999999,
      "d": 620.4320000000007,
      "v": 100
    },
    {
      "midi": 31,
      "hit": false,
      "t": 52554.24000000004,
      "d": 647.8039999999964,
      "v": 110
    },
    {
      "midi": 42,
      "hit": false,
      "t": 52554.240000000136,
      "d": 9.124000000003434,
      "v": 98
    },
    {
      "midi": 36,
      "hit": false,
      "t": 52554.240000000136,
      "d": 9.124000000003434,
      "v": 76
    },
    {
      "midi": 53,
      "hit": false,
      "t": 52554.24000000014,
      "d": 9.124000000003434,
      "v": 82
    },
    {
      "midi": 53,
      "hit": false,
      "t": 52590.73600000015,
      "d": 9.124000000003434,
      "v": 83
    },
    {
      "midi": 53,
      "hit": false,
      "t": 52627.23200000016,
      "d": 9.124000000003434,
      "v": 84
    },
    {
      "midi": 42,
      "hit": false,
      "t": 52773.21600000014,
      "d": 9.124000000003434,
      "v": 70
    },
    {
      "midi": 86,
      "hit": false,
      "t": 52992.19199999999,
      "d": 91.23999999999796,
      "v": 90
    },
    {
      "midi": 81,
      "hit": false,
      "t": 52992.19199999999,
      "d": 91.23999999999796,
      "v": 90
    },
    {
      "midi": 42,
      "hit": false,
      "t": 52992.19200000014,
      "d": 9.124000000003434,
      "v": 98
    },
    {
      "midi": 38,
      "hit": false,
      "t": 52992.19200000014,
      "d": 9.124000000003434,
      "v": 76
    },
    {
      "midi": 71,
      "hit": false,
      "t": 53211.16799999999,
      "d": 620.4320000000007,
      "v": 100
    },
    {
      "midi": 67,
      "hit": false,
      "t": 53211.16799999999,
      "d": 620.4320000000007,
      "v": 100
    },
    {
      "midi": 62,
      "hit": false,
      "t": 53211.16799999999,
      "d": 620.4320000000007,
      "v": 100
    },
    {
      "midi": 31,
      "hit": false,
      "t": 53211.16800000004,
      "d": 273.72000000000116,
      "v": 110
    },
    {
      "midi": 42,
      "hit": false,
      "t": 53211.16800000014,
      "d": 9.124000000003434,
      "v": 70
    },
    {
      "midi": 36,
      "hit": false,
      "t": 53211.16800000014,
      "d": 9.124000000003434,
      "v": 76
    },
    {
      "midi": 86,
      "hit": false,
      "t": 53430.143999999986,
      "d": 91.23999999999796,
      "v": 90
    },
    {
      "midi": 81,
      "hit": false,
      "t": 53430.143999999986,
      "d": 91.23999999999796,
      "v": 90
    },
    {
      "midi": 42,
      "hit": false,
      "t": 53430.144000000146,
      "d": 9.124000000003434,
      "v": 98
    },
    {
      "midi": 42,
      "hit": false,
      "t": 53649.12000000015,
      "d": 9.124000000003434,
      "v": 70
    },
    {
      "midi": 36,
      "hit": false,
      "t": 53649.12000000015,
      "d": 9.124000000003434,
      "v": 76
    },
    {
      "midi": 72,
      "hit": false,
      "t": 53868.09599999999,
      "d": 620.4320000000007,
      "v": 100
    },
    {
      "midi": 67,
      "hit": false,
      "t": 53868.09599999999,
      "d": 620.4320000000007,
      "v": 100
    },
    {
      "midi": 62,
      "hit": false,
      "t": 53868.09599999999,
      "d": 620.4320000000007,
      "v": 100
    },
    {
      "midi": 42,
      "hit": false,
      "t": 53868.09600000015,
      "d": 9.124000000003434,
      "v": 98
    },
    {
      "midi": 38,
      "hit": false,
      "t": 53868.09600000015,
      "d": 9.124000000003434,
      "v": 76
    },
    {
      "midi": 28,
      "hit": false,
      "t": 54087.072000000044,
      "d": 209.85199999999895,
      "v": 110
    },
    {
      "midi": 42,
      "hit": false,
      "t": 54087.07200000015,
      "d": 9.124000000003434,
      "v": 70
    },
    {
      "midi": 36,
      "hit": false,
      "t": 54087.07200000015,
      "d": 9.124000000003434,
      "v": 76
    },
    {
      "midi": 31,
      "hit": false,
      "t": 54306.048000000046,
      "d": 209.85199999999895,
      "v": 110
    },
    {
      "midi": 42,
      "hit": false,
      "t": 54306.048000000155,
      "d": 9.124000000003434,
      "v": 98
    },
    {
      "midi": 71,
      "hit": false,
      "t": 54525.02399999999,
      "d": 620.4320000000007,
      "v": 100
    },
    {
      "midi": 67,
      "hit": false,
      "t": 54525.02399999999,
      "d": 620.4320000000007,
      "v": 100
    },
    {
      "midi": 62,
      "hit": false,
      "t": 54525.02399999999,
      "d": 620.4320000000007,
      "v": 100
    },
    {
      "midi": 43,
      "hit": false,
      "t": 54525.02400000005,
      "d": 273.72000000000116,
      "v": 110
    },
    {
      "midi": 42,
      "hit": false,
      "t": 54525.02400000016,
      "d": 9.124000000003434,
      "v": 70
    },
    {
      "midi": 36,
      "hit": false,
      "t": 54525.02400000016,
      "d": 9.124000000003434,
      "v": 76
    },
    {
      "midi": 42,
      "hit": false,
      "t": 54744.00000000016,
      "d": 9.124000000003434,
      "v": 98
    },
    {
      "midi": 38,
      "hit": false,
      "t": 54744.00000000016,
      "d": 9.124000000003434,
      "v": 76
    },
    {
      "midi": 31,
      "hit": false,
      "t": 54962.97600000005,
      "d": 364.9599999999991,
      "v": 110
    },
    {
      "midi": 42,
      "hit": false,
      "t": 54962.97600000016,
      "d": 9.124000000003434,
      "v": 70
    },
    {
      "midi": 36,
      "hit": false,
      "t": 54962.97600000016,
      "d": 9.124000000003434,
      "v": 76
    },
    {
      "midi": 72,
      "hit": false,
      "t": 55181.95199999999,
      "d": 839.4080000000031,
      "v": 100
    },
    {
      "midi": 67,
      "hit": false,
      "t": 55181.95199999999,
      "d": 839.4080000000031,
      "v": 100
    },
    {
      "midi": 62,
      "hit": false,
      "t": 55181.95199999999,
      "d": 839.4080000000031,
      "v": 100
    },
    {
      "midi": 42,
      "hit": false,
      "t": 55181.952000000165,
      "d": 9.124000000003434,
      "v": 98
    },
    {
      "midi": 42,
      "hit": false,
      "t": 55400.92800000017,
      "d": 9.124000000003434,
      "v": 70
    },
    {
      "midi": 38,
      "hit": false,
      "t": 55400.92800000017,
      "d": 9.124000000003434,
      "v": 76
    },
    {
      "midi": 53,
      "hit": false,
      "t": 55619.90400000016,
      "d": 9.124000000003434,
      "v": 70
    },
    {
      "midi": 42,
      "hit": false,
      "t": 55619.90400000017,
      "d": 9.124000000003434,
      "v": 98
    },
    {
      "midi": 53,
      "hit": false,
      "t": 55656.40000000017,
      "d": 9.124000000003434,
      "v": 71
    },
    {
      "midi": 53,
      "hit": false,
      "t": 55692.896000000175,
      "d": 9.124000000003434,
      "v": 72
    },
    {
      "midi": 53,
      "hit": false,
      "t": 55729.39200000018,
      "d": 9.124000000003434,
      "v": 73
    },
    {
      "midi": 53,
      "hit": false,
      "t": 55765.88800000019,
      "d": 9.124000000003434,
      "v": 74
    },
    {
      "midi": 53,
      "hit": false,
      "t": 55802.384000000195,
      "d": 9.124000000003434,
      "v": 75
    },
    {
      "midi": 42,
      "hit": false,
      "t": 55838.88000000017,
      "d": 9.124000000003434,
      "v": 70
    },
    {
      "midi": 36,
      "hit": false,
      "t": 55838.88000000017,
      "d": 9.124000000003434,
      "v": 76
    },
    {
      "midi": 53,
      "hit": false,
      "t": 55838.8800000002,
      "d": 9.124000000003434,
      "v": 76
    },
    {
      "midi": 53,
      "hit": false,
      "t": 55875.37600000021,
      "d": 9.124000000003434,
      "v": 77
    },
    {
      "midi": 53,
      "hit": false,
      "t": 55911.872000000214,
      "d": 9.124000000003434,
      "v": 78
    },
    {
      "midi": 53,
      "hit": false,
      "t": 55948.36800000022,
      "d": 9.124000000003434,
      "v": 79
    },
    {
      "midi": 53,
      "hit": false,
      "t": 55984.86400000023,
      "d": 9.124000000003434,
      "v": 80
    },
    {
      "midi": 53,
      "hit": false,
      "t": 56021.36000000023,
      "d": 9.124000000003434,
      "v": 81
    },
    {
      "midi": 84,
      "hit": false,
      "t": 56057.855999999985,
      "d": 91.23999999999796,
      "v": 90
    },
    {
      "midi": 81,
      "hit": false,
      "t": 56057.855999999985,
      "d": 91.23999999999796,
      "v": 90
    },
    {
      "midi": 76,
      "hit": false,
      "t": 56057.855999999985,
      "d": 91.23999999999796,
      "v": 90
    },
    {
      "midi": 72,
      "hit": false,
      "t": 56057.85599999999,
      "d": 620.4320000000007,
      "v": 100
    },
    {
      "midi": 69,
      "hit": false,
      "t": 56057.85599999999,
      "d": 620.4320000000007,
      "v": 100
    },
    {
      "midi": 64,
      "hit": false,
      "t": 56057.85599999999,
      "d": 620.4320000000007,
      "v": 100
    },
    {
      "midi": 45,
      "hit": false,
      "t": 56057.85600000005,
      "d": 620.4320000000007,
      "v": 110
    },
    {
      "midi": 49,
      "hit": false,
      "t": 56057.856000000174,
      "d": 9.124000000003434,
      "v": 84
    },
    {
      "midi": 36,
      "hit": false,
      "t": 56057.856000000174,
      "d": 9.124000000003434,
      "v": 84
    },
    {
      "midi": 84,
      "hit": false,
      "t": 56276.83199999998,
      "d": 91.23999999999796,
      "v": 90
    },
    {
      "midi": 81,
      "hit": false,
      "t": 56276.83199999998,
      "d": 91.23999999999796,
      "v": 90
    },
    {
      "midi": 76,
      "hit": false,
      "t": 56276.83199999998,
      "d": 91.23999999999796,
      "v": 90
    },
    {
      "midi": 48,
      "hit": false,
      "t": 56276.83200000018,
      "d": 9.124000000003434,
      "v": 84
    },
    {
      "midi": 48,
      "hit": false,
      "t": 56276.832000000235,
      "d": 9.124000000003434,
      "v": 42
    },
    {
      "midi": 48,
      "hit": false,
      "t": 56495.80800000018,
      "d": 9.124000000003434,
      "v": 84
    },
    {
      "midi": 48,
      "hit": false,
      "t": 56495.80800000024,
      "d": 9.124000000003434,
      "v": 42
    },
    {
      "midi": 83,
      "hit": false,
      "t": 56714.783999999985,
      "d": 91.23999999999796,
      "v": 90
    },
    {
      "midi": 79,
      "hit": false,
      "t": 56714.783999999985,
      "d": 91.23999999999796,
      "v": 90
    },
    {
      "midi": 74,
      "hit": false,
      "t": 56714.783999999985,
      "d": 91.23999999999796,
      "v": 90
    },
    {
      "midi": 71,
      "hit": false,
      "t": 56714.78399999999,
      "d": 620.4320000000007,
      "v": 100
    },
    {
      "midi": 67,
      "hit": false,
      "t": 56714.78399999999,
      "d": 620.4320000000007,
      "v": 100
    },
    {
      "midi": 62,
      "hit": false,
      "t": 56714.78399999999,
      "d": 620.4320000000007,
      "v": 100
    },
    {
      "midi": 43,
      "hit": false,
      "t": 56714.78400000005,
      "d": 620.4320000000007,
      "v": 110
    },
    {
      "midi": 49,
      "hit": false,
      "t": 56714.78400000018,
      "d": 9.124000000003434,
      "v": 84
    },
    {
      "midi": 36,
      "hit": false,
      "t": 56714.78400000018,
      "d": 9.124000000003434,
      "v": 84
    },
    {
      "midi": 83,
      "hit": false,
      "t": 56933.75999999998,
      "d": 91.23999999999796,
      "v": 90
    },
    {
      "midi": 79,
      "hit": false,
      "t": 56933.75999999998,
      "d": 91.23999999999796,
      "v": 90
    },
    {
      "midi": 74,
      "hit": false,
      "t": 56933.75999999998,
      "d": 91.23999999999796,
      "v": 90
    },
    {
      "midi": 45,
      "hit": false,
      "t": 56933.760000000184,
      "d": 9.124000000003434,
      "v": 84
    },
    {
      "midi": 45,
      "hit": false,
      "t": 56933.76000000024,
      "d": 9.124000000003434,
      "v": 42
    },
    {
      "midi": 45,
      "hit": false,
      "t": 57152.736000000186,
      "d": 9.124000000003434,
      "v": 84
    },
    {
      "midi": 45,
      "hit": false,
      "t": 57152.736000000245,
      "d": 9.124000000003434,
      "v": 42
    },
    {
      "midi": 81,
      "hit": false,
      "t": 57371.711999999985,
      "d": 91.23999999999796,
      "v": 90
    },
    {
      "midi": 77,
      "hit": false,
      "t": 57371.711999999985,
      "d": 91.23999999999796,
      "v": 90
    },
    {
      "midi": 72,
      "hit": false,
      "t": 57371.711999999985,
      "d": 91.23999999999796,
      "v": 90
    },
    {
      "midi": 69,
      "hit": false,
      "t": 57371.71199999999,
      "d": 620.4320000000007,
      "v": 100
    },
    {
      "midi": 65,
      "hit": false,
      "t": 57371.71199999999,
      "d": 620.4320000000007,
      "v": 100
    },
    {
      "midi": 60,
      "hit": false,
      "t": 57371.71199999999,
      "d": 620.4320000000007,
      "v": 100
    },
    {
      "midi": 41,
      "hit": false,
      "t": 57371.71200000005,
      "d": 620.4320000000007,
      "v": 110
    },
    {
      "midi": 49,
      "hit": false,
      "t": 57371.71200000019,
      "d": 9.124000000003434,
      "v": 84
    },
    {
      "midi": 36,
      "hit": false,
      "t": 57371.71200000019,
      "d": 9.124000000003434,
      "v": 84
    },
    {
      "midi": 81,
      "hit": false,
      "t": 57590.68799999998,
      "d": 91.23999999999796,
      "v": 90
    },
    {
      "midi": 77,
      "hit": false,
      "t": 57590.68799999998,
      "d": 91.23999999999796,
      "v": 90
    },
    {
      "midi": 72,
      "hit": false,
      "t": 57590.68799999998,
      "d": 91.23999999999796,
      "v": 90
    },
    {
      "midi": 41,
      "hit": false,
      "t": 57590.68800000019,
      "d": 9.124000000003434,
      "v": 84
    },
    {
      "midi": 41,
      "hit": false,
      "t": 57590.68800000025,
      "d": 9.124000000003434,
      "v": 42
    },
    {
      "midi": 41,
      "hit": false,
      "t": 57809.66400000019,
      "d": 9.124000000003434,
      "v": 84
    },
    {
      "midi": 41,
      "hit": false,
      "t": 57809.66400000025,
      "d": 9.124000000003434,
      "v": 42
    },
    {
      "midi": 79,
      "hit": false,
      "t": 58028.639999999985,
      "d": 91.23999999999796,
      "v": 90
    },
    {
      "midi": 76,
      "hit": false,
      "t": 58028.639999999985,
      "d": 91.23999999999796,
      "v": 90
    },
    {
      "midi": 71,
      "hit": false,
      "t": 58028.639999999985,
      "d": 91.23999999999796,
      "v": 90
    },
    {
      "midi": 67,
      "hit": false,
      "t": 58028.63999999999,
      "d": 620.4320000000007,
      "v": 100
    },
    {
      "midi": 64,
      "hit": false,
      "t": 58028.63999999999,
      "d": 620.4320000000007,
      "v": 100
    },
    {
      "midi": 59,
      "hit": false,
      "t": 58028.63999999999,
      "d": 620.4320000000007,
      "v": 100
    },
    {
      "midi": 40,
      "hit": false,
      "t": 58028.64000000005,
      "d": 620.4320000000007,
      "v": 110
    },
    {
      "midi": 49,
      "hit": false,
      "t": 58028.640000000196,
      "d": 9.124000000003434,
      "v": 84
    },
    {
      "midi": 79,
      "hit": false,
      "t": 58247.61599999998,
      "d": 91.23999999999796,
      "v": 90
    },
    {
      "midi": 76,
      "hit": false,
      "t": 58247.61599999998,
      "d": 91.23999999999796,
      "v": 90
    },
    {
      "midi": 71,
      "hit": false,
      "t": 58247.61599999998,
      "d": 91.23999999999796,
      "v": 90
    },
    {
      "midi": 41,
      "hit": false,
      "t": 58466.5920000002,
      "d": 9.124000000003434,
      "v": 84
    },
    {
      "midi": 41,
      "hit": false,
      "t": 58466.59200000025,
      "d": 9.124000000003434,
      "v": 42
    },
    {
      "midi": 77,
      "hit": false,
      "t": 58685.567999999985,
      "d": 91.23999999999796,
      "v": 90
    },
    {
      "midi": 74,
      "hit": false,
      "t": 58685.567999999985,
      "d": 91.23999999999796,
      "v": 90
    },
    {
      "midi": 69,
      "hit": false,
      "t": 58685.567999999985,
      "d": 91.23999999999796,
      "v": 90
    },
    {
      "midi": 65,
      "hit": false,
      "t": 58685.56799999999,
      "d": 401.4559999999983,
      "v": 100
    },
    {
      "midi": 62,
      "hit": false,
      "t": 58685.56799999999,
      "d": 401.4559999999983,
      "v": 100
    },
    {
      "midi": 57,
      "hit": false,
      "t": 58685.56799999999,
      "d": 401.4559999999983,
      "v": 100
    },
    {
      "midi": 38,
      "hit": false,
      "t": 58685.56800000005,
      "d": 401.4559999999983,
      "v": 110
    },
    {
      "midi": 40,
      "hit": false,
      "t": 58685.5680000002,
      "d": 9.124000000003434,
      "v": 84
    },
    {
      "midi": 36,
      "hit": false,
      "t": 58685.5680000002,
      "d": 9.124000000003434,
      "v": 84
    },
    {
      "midi": 77,
      "hit": false,
      "t": 58904.54399999998,
      "d": 91.23999999999796,
      "v": 90
    },
    {
      "midi": 74,
      "hit": false,
      "t": 58904.54399999998,
      "d": 91.23999999999796,
      "v": 90
    },
    {
      "midi": 69,
      "hit": false,
      "t": 58904.54399999998,
      "d": 91.23999999999796,
      "v": 90
    },
    {
      "midi": 76,
      "hit": false,
      "t": 59123.51999999998,
      "d": 91.23999999999796,
      "v": 90
    },
    {
      "midi": 72,
      "hit": false,
      "t": 59123.51999999998,
      "d": 91.23999999999796,
      "v": 90
    },
    {
      "midi": 67,
      "hit": false,
      "t": 59123.51999999998,
      "d": 91.23999999999796,
      "v": 90
    },
    {
      "midi": 64,
      "hit": false,
      "t": 59123.51999999999,
      "d": 401.4559999999983,
      "v": 100
    },
    {
      "midi": 60,
      "hit": false,
      "t": 59123.51999999999,
      "d": 401.4559999999983,
      "v": 100
    },
    {
      "midi": 55,
      "hit": false,
      "t": 59123.51999999999,
      "d": 401.4559999999983,
      "v": 100
    },
    {
      "midi": 36,
      "hit": false,
      "t": 59123.52000000005,
      "d": 401.4559999999983,
      "v": 110
    },
    {
      "midi": 49,
      "hit": false,
      "t": 59123.52000000021,
      "d": 9.124000000003434,
      "v": 84
    },
    {
      "midi": 40,
      "hit": false,
      "t": 59123.52000000021,
      "d": 9.124000000003434,
      "v": 84
    },
    {
      "midi": 76,
      "hit": false,
      "t": 59342.49599999998,
      "d": 91.23999999999796,
      "v": 90
    },
    {
      "midi": 72,
      "hit": false,
      "t": 59342.49599999998,
      "d": 91.23999999999796,
      "v": 90
    },
    {
      "midi": 67,
      "hit": false,
      "t": 59342.49599999998,
      "d": 91.23999999999796,
      "v": 90
    },
    {
      "midi": 81,
      "hit": false,
      "t": 59561.47199999998,
      "d": 91.23999999999796,
      "v": 100
    },
    {
      "midi": 77,
      "hit": false,
      "t": 59561.47199999998,
      "d": 91.23999999999796,
      "v": 100
    },
    {
      "midi": 74,
      "hit": false,
      "t": 59561.47199999998,
      "d": 91.23999999999796,
      "v": 100
    },
    {
      "midi": 69,
      "hit": false,
      "t": 59561.47199999999,
      "d": 1715.311999999969,
      "v": 120
    },
    {
      "midi": 65,
      "hit": false,
      "t": 59561.47199999999,
      "d": 1715.311999999969,
      "v": 120
    },
    {
      "midi": 62,
      "hit": false,
      "t": 59561.47199999999,
      "d": 1715.311999999969,
      "v": 120
    },
    {
      "midi": 34,
      "hit": false,
      "t": 59561.472000000045,
      "d": 1742.684000000001,
      "v": 110
    },
    {
      "midi": 36,
      "hit": false,
      "t": 59561.47200000021,
      "d": 9.124000000003434,
      "v": 84
    },
    {
      "midi": 48,
      "hit": false,
      "t": 59780.448000000215,
      "d": 9.124000000003434,
      "v": 84
    },
    {
      "midi": 48,
      "hit": false,
      "t": 59780.44800000025,
      "d": 9.124000000003434,
      "v": 42
    },
    {
      "midi": 48,
      "hit": false,
      "t": 59889.93600000022,
      "d": 9.124000000003434,
      "v": 84
    },
    {
      "midi": 48,
      "hit": false,
      "t": 59889.936000000256,
      "d": 9.124000000003434,
      "v": 42
    },
    {
      "midi": 81,
      "hit": false,
      "t": 59999.42399999998,
      "d": 91.23999999999796,
      "v": 100
    },
    {
      "midi": 77,
      "hit": false,
      "t": 59999.42399999998,
      "d": 91.23999999999796,
      "v": 100
    },
    {
      "midi": 74,
      "hit": false,
      "t": 59999.42399999998,
      "d": 91.23999999999796,
      "v": 100
    },
    {
      "midi": 45,
      "hit": false,
      "t": 59999.424000000225,
      "d": 9.124000000003434,
      "v": 84
    },
    {
      "midi": 45,
      "hit": false,
      "t": 59999.42400000026,
      "d": 9.124000000003434,
      "v": 42
    },
    {
      "midi": 45,
      "hit": false,
      "t": 60218.40000000023,
      "d": 9.124000000003434,
      "v": 84
    },
    {
      "midi": 45,
      "hit": false,
      "t": 60218.40000000026,
      "d": 9.124000000003434,
      "v": 42
    },
    {
      "midi": 48,
      "hit": false,
      "t": 60437.37600000023,
      "d": 9.124000000003434,
      "v": 84
    },
    {
      "midi": 48,
      "hit": false,
      "t": 60437.376000000266,
      "d": 9.124000000003434,
      "v": 42
    },
    {
      "midi": 48,
      "hit": false,
      "t": 60546.864000000234,
      "d": 9.124000000003434,
      "v": 84
    },
    {
      "midi": 48,
      "hit": false,
      "t": 60546.86400000027,
      "d": 9.124000000003434,
      "v": 42
    },
    {
      "midi": 45,
      "hit": false,
      "t": 60656.35200000024,
      "d": 9.124000000003434,
      "v": 84
    },
    {
      "midi": 45,
      "hit": false,
      "t": 60656.352000000275,
      "d": 9.124000000003434,
      "v": 42
    },
    {
      "midi": 41,
      "hit": false,
      "t": 60875.32800000024,
      "d": 9.124000000003434,
      "v": 84
    },
    {
      "midi": 41,
      "hit": false,
      "t": 60875.32800000028,
      "d": 9.124000000003434,
      "v": 42
    },
    {
      "midi": 41,
      "hit": false,
      "t": 61094.304000000244,
      "d": 9.124000000003434,
      "v": 84
    },
    {
      "midi": 41,
      "hit": false,
      "t": 61094.30400000028,
      "d": 9.124000000003434,
      "v": 42
    },
    {
      "midi": 71,
      "hit": false,
      "t": 61313.279999999955,
      "d": 1715.311999999969,
      "v": 120
    },
    {
      "midi": 68,
      "hit": false,
      "t": 61313.279999999955,
      "d": 1715.311999999969,
      "v": 120
    },
    {
      "midi": 64,
      "hit": false,
      "t": 61313.279999999955,
      "d": 1715.311999999969,
      "v": 120
    },
    {
      "midi": 83,
      "hit": false,
      "t": 61313.27999999998,
      "d": 91.23999999999796,
      "v": 100
    },
    {
      "midi": 80,
      "hit": false,
      "t": 61313.27999999998,
      "d": 91.23999999999796,
      "v": 100
    },
    {
      "midi": 76,
      "hit": false,
      "t": 61313.27999999998,
      "d": 91.23999999999796,
      "v": 100
    },
    {
      "midi": 40,
      "hit": false,
      "t": 61313.28000000005,
      "d": 1742.684000000001,
      "v": 110
    },
    {
      "midi": 49,
      "hit": false,
      "t": 61313.280000000246,
      "d": 9.124000000003434,
      "v": 84
    },
    {
      "midi": 36,
      "hit": false,
      "t": 61313.280000000246,
      "d": 9.124000000003434,
      "v": 84
    },
    {
      "midi": 83,
      "hit": false,
      "t": 61751.231999999975,
      "d": 91.23999999999796,
      "v": 100
    },
    {
      "midi": 80,
      "hit": false,
      "t": 61751.231999999975,
      "d": 91.23999999999796,
      "v": 100
    },
    {
      "midi": 76,
      "hit": false,
      "t": 61751.231999999975,
      "d": 91.23999999999796,
      "v": 100
    },
    {
      "midi": 40,
      "hit": false,
      "t": 61751.23200000025,
      "d": 9.124000000003434,
      "v": 84
    },
    {
      "midi": 71,
      "hit": false,
      "t": 62408.16000000005,
      "d": 182.4800000000032,
      "v": 120
    },
    {
      "midi": 40,
      "hit": false,
      "t": 62408.16000000025,
      "d": 9.124000000003434,
      "v": 56
    },
    {
      "midi": 71,
      "hit": false,
      "t": 62517.648000000045,
      "d": 182.4800000000032,
      "v": 120
    },
    {
      "midi": 71,
      "hit": false,
      "t": 62627.13600000004,
      "d": 182.4800000000032,
      "v": 120
    },
    {
      "midi": 72,
      "hit": false,
      "t": 62627.13600000005,
      "d": 182.4800000000032,
      "v": 120
    },
    {
      "midi": 40,
      "hit": false,
      "t": 62627.13600000025,
      "d": 9.124000000003434,
      "v": 70
    },
    {
      "midi": 72,
      "hit": false,
      "t": 62736.62400000005,
      "d": 182.4800000000032,
      "v": 120
    },
    {
      "midi": 72,
      "hit": false,
      "t": 62846.112000000045,
      "d": 182.4800000000032,
      "v": 120
    },
    {
      "midi": 74,
      "hit": false,
      "t": 62846.11200000005,
      "d": 182.4800000000032,
      "v": 120
    },
    {
      "midi": 40,
      "hit": false,
      "t": 62846.112000000256,
      "d": 9.124000000003434,
      "v": 84
    },
    {
      "midi": 74,
      "hit": false,
      "t": 62955.60000000005,
      "d": 182.4800000000032,
      "v": 120
    },
    {
      "midi": 64,
      "hit": false,
      "t": 63065.08799999992,
      "d": 3275.515999999996,
      "v": 60
    },
    {
      "midi": 57,
      "hit": false,
      "t": 63065.08799999992,
      "d": 3275.515999999996,
      "v": 60
    },
    {
      "midi": 74,
      "hit": false,
      "t": 63065.08800000005,
      "d": 182.4800000000032,
      "v": 120
    },
    {
      "midi": 76,
      "hit": false,
      "t": 63065.088000000054,
      "d": 401.4559999999983,
      "v": 120
    },
    {
      "midi": 33,
      "hit": false,
      "t": 63065.088000000054,
      "d": 209.85199999999895,
      "v": 110
    },
    {
      "midi": 49,
      "hit": false,
      "t": 63065.08800000026,
      "d": 9.124000000003434,
      "v": 84
    },
    {
      "midi": 36,
      "hit": false,
      "t": 63065.08800000026,
      "d": 9.124000000003434,
      "v": 84
    },
    {
      "midi": 76,
      "hit": false,
      "t": 63174.57600000005,
      "d": 401.4559999999983,
      "v": 120
    },
    {
      "midi": 76,
      "hit": false,
      "t": 63284.06400000005,
      "d": 401.4559999999983,
      "v": 120
    },
    {
      "midi": 42,
      "hit": false,
      "t": 63284.06400000026,
      "d": 9.124000000003434,
      "v": 70
    },
    {
      "midi": 74,
      "hit": false,
      "t": 63503.04000000005,
      "d": 182.4800000000032,
      "v": 120
    },
    {
      "midi": 42,
      "hit": false,
      "t": 63503.04000000026,
      "d": 9.124000000003434,
      "v": 98
    },
    {
      "midi": 38,
      "hit": false,
      "t": 63503.04000000026,
      "d": 9.124000000003434,
      "v": 84
    },
    {
      "midi": 74,
      "hit": false,
      "t": 63612.52800000005,
      "d": 182.4800000000032,
      "v": 120
    },
    {
      "midi": 74,
      "hit": false,
      "t": 63722.01600000005,
      "d": 182.4800000000032,
      "v": 120
    },
    {
      "midi": 72,
      "hit": false,
      "t": 63722.016000000054,
      "d": 182.4800000000032,
      "v": 120
    },
    {
      "midi": 33,
      "hit": false,
      "t": 63722.016000000054,
      "d": 209.85199999999895,
      "v": 110
    },
    {
      "midi": 42,
      "hit": false,
      "t": 63722.016000000265,
      "d": 9.124000000003434,
      "v": 70
    },
    {
      "midi": 36,
      "hit": false,
      "t": 63722.016000000265,
      "d": 9.124000000003434,
      "v": 84
    },
    {
      "midi": 72,
      "hit": false,
      "t": 63831.50400000005,
      "d": 182.4800000000032,
      "v": 120
    },
    {
      "midi": 72,
      "hit": false,
      "t": 63940.99200000005,
      "d": 182.4800000000032,
      "v": 120
    },
    {
      "midi": 42,
      "hit": false,
      "t": 63940.99200000027,
      "d": 9.124000000003434,
      "v": 98
    },
    {
      "midi": 71,
      "hit": false,
      "t": 64159.96800000006,
      "d": 182.4800000000032,
      "v": 120
    },
    {
      "midi": 42,
      "hit": false,
      "t": 64159.96800000027,
      "d": 9.124000000003434,
      "v": 70
    },
    {
      "midi": 36,
      "hit": false,
      "t": 64159.96800000027,
      "d": 9.124000000003434,
      "v": 84
    },
    {
      "midi": 71,
      "hit": false,
      "t": 64269.45600000006,
      "d": 182.4800000000032,
      "v": 120
    },
    {
      "midi": 71,
      "hit": false,
      "t": 64378.944000000054,
      "d": 182.4800000000032,
      "v": 120
    },
    {
      "midi": 72,
      "hit": false,
      "t": 64378.94400000006,
      "d": 182.4800000000032,
      "v": 120
    },
    {
      "midi": 42,
      "hit": false,
      "t": 64378.94400000027,
      "d": 9.124000000003434,
      "v": 98
    },
    {
      "midi": 38,
      "hit": false,
      "t": 64378.94400000027,
      "d": 9.124000000003434,
      "v": 84
    },
    {
      "midi": 72,
      "hit": false,
      "t": 64488.43200000006,
      "d": 182.4800000000032,
      "v": 120
    },
    {
      "midi": 72,
      "hit": false,
      "t": 64597.92000000006,
      "d": 182.4800000000032,
      "v": 120
    },
    {
      "midi": 28,
      "hit": false,
      "t": 64597.92000000006,
      "d": 273.72000000000116,
      "v": 110
    },
    {
      "midi": 74,
      "hit": false,
      "t": 64597.920000000064,
      "d": 182.4800000000032,
      "v": 120
    },
    {
      "midi": 42,
      "hit": false,
      "t": 64597.920000000275,
      "d": 9.124000000003434,
      "v": 70
    },
    {
      "midi": 74,
      "hit": false,
      "t": 64707.40800000006,
      "d": 182.4800000000032,
      "v": 120
    },
    {
      "midi": 74,
      "hit": false,
      "t": 64816.89600000006,
      "d": 182.4800000000032,
      "v": 120
    },
    {
      "midi": 76,
      "hit": false,
      "t": 64816.896000000066,
      "d": 401.4559999999983,
      "v": 120
    },
    {
      "midi": 42,
      "hit": false,
      "t": 64816.89600000028,
      "d": 9.124000000003434,
      "v": 98
    },
    {
      "midi": 36,
      "hit": false,
      "t": 64816.89600000028,
      "d": 9.124000000003434,
      "v": 84
    },
    {
      "midi": 76,
      "hit": false,
      "t": 64926.384000000064,
      "d": 401.4559999999983,
      "v": 120
    },
    {
      "midi": 76,
      "hit": false,
      "t": 65035.87200000006,
      "d": 401.4559999999983,
      "v": 120
    },
    {
      "midi": 45,
      "hit": false,
      "t": 65035.87200000006,
      "d": 273.72000000000116,
      "v": 110
    },
    {
      "midi": 42,
      "hit": false,
      "t": 65035.87200000028,
      "d": 9.124000000003434,
      "v": 70
    },
    {
      "midi": 74,
      "hit": false,
      "t": 65254.84800000006,
      "d": 182.4800000000032,
      "v": 120
    },
    {
      "midi": 42,
      "hit": false,
      "t": 65254.84800000028,
      "d": 9.124000000003434,
      "v": 98
    },
    {
      "midi": 38,
      "hit": false,
      "t": 65254.84800000028,
      "d": 9.124000000003434,
      "v": 84
    },
    {
      "midi": 74,
      "hit": false,
      "t": 65364.33600000006,
      "d": 182.4800000000032,
      "v": 120
    },
    {
      "midi": 74,
      "hit": false,
      "t": 65473.82400000006,
      "d": 182.4800000000032,
      "v": 120
    },
    {
      "midi": 72,
      "hit": false,
      "t": 65473.824000000066,
      "d": 401.4560000000056,
      "v": 120
    },
    {
      "midi": 33,
      "hit": false,
      "t": 65473.824000000066,
      "d": 273.72000000000116,
      "v": 110
    },
    {
      "midi": 42,
      "hit": false,
      "t": 65473.824000000284,
      "d": 9.124000000003434,
      "v": 70
    },
    {
      "midi": 36,
      "hit": false,
      "t": 65473.824000000284,
      "d": 9.124000000003434,
      "v": 84
    },
    {
      "midi": 72,
      "hit": false,
      "t": 65583.31200000006,
      "d": 401.4560000000056,
      "v": 120
    },
    {
      "midi": 72,
      "hit": false,
      "t": 65692.80000000006,
      "d": 401.4560000000056,
      "v": 120
    },
    {
      "midi": 42,
      "hit": false,
      "t": 65692.8000000003,
      "d": 9.123999999996158,
      "v": 98
    },
    {
      "midi": 71,
      "hit": false,
      "t": 65911.77600000007,
      "d": 401.4560000000056,
      "v": 120
    },
    {
      "midi": 42,
      "hit": false,
      "t": 65911.77600000029,
      "d": 9.123999999996158,
      "v": 70
    },
    {
      "midi": 36,
      "hit": false,
      "t": 65911.77600000029,
      "d": 9.123999999996158,
      "v": 84
    },
    {
      "midi": 71,
      "hit": false,
      "t": 66021.26400000007,
      "d": 401.4560000000056,
      "v": 120
    },
    {
      "midi": 71,
      "hit": false,
      "t": 66130.75200000007,
      "d": 401.4560000000056,
      "v": 120
    },
    {
      "midi": 42,
      "hit": false,
      "t": 66130.75200000028,
      "d": 9.123999999996158,
      "v": 98
    },
    {
      "midi": 38,
      "hit": false,
      "t": 66130.75200000028,
      "d": 9.123999999996158,
      "v": 84
    },
    {
      "midi": 60,
      "hit": false,
      "t": 66349.72799999992,
      "d": 3713.4679999999935,
      "v": 60
    },
    {
      "midi": 53,
      "hit": false,
      "t": 66349.72799999992,
      "d": 3713.4679999999935,
      "v": 60
    },
    {
      "midi": 29,
      "hit": false,
      "t": 66349.72800000006,
      "d": 848.5320000000065,
      "v": 110
    },
    {
      "midi": 72,
      "hit": false,
      "t": 66349.72800000008,
      "d": 182.47999999999593,
      "v": 120
    },
    {
      "midi": 42,
      "hit": false,
      "t": 66349.72800000028,
      "d": 9.123999999996158,
      "v": 70
    },
    {
      "midi": 36,
      "hit": false,
      "t": 66349.72800000028,
      "d": 9.123999999996158,
      "v": 84
    },
    {
      "midi": 72,
      "hit": false,
      "t": 66459.21600000007,
      "d": 182.47999999999593,
      "v": 120
    },
    {
      "midi": 72,
      "hit": false,
      "t": 66568.70400000007,
      "d": 182.47999999999593,
      "v": 120
    },
    {
      "midi": 42,
      "hit": false,
      "t": 66568.70400000027,
      "d": 9.123999999996158,
      "v": 98
    },
    {
      "midi": 42,
      "hit": false,
      "t": 66787.68000000027,
      "d": 9.123999999996158,
      "v": 70
    },
    {
      "midi": 42,
      "hit": false,
      "t": 67006.65600000026,
      "d": 9.123999999996158,
      "v": 98
    },
    {
      "midi": 38,
      "hit": false,
      "t": 67006.65600000026,
      "d": 9.123999999996158,
      "v": 84
    },
    {
      "midi": 29,
      "hit": false,
      "t": 67225.63200000007,
      "d": 209.85199999999895,
      "v": 110
    },
    {
      "midi": 42,
      "hit": false,
      "t": 67225.63200000026,
      "d": 9.123999999996158,
      "v": 70
    },
    {
      "midi": 36,
      "hit": false,
      "t": 67225.63200000026,
      "d": 9.123999999996158,
      "v": 84
    },
    {
      "midi": 42,
      "hit": false,
      "t": 67444.60800000025,
      "d": 9.123999999996158,
      "v": 98
    },
    {
      "midi": 36,
      "hit": false,
      "t": 67444.60800000025,
      "d": 9.123999999996158,
      "v": 84
    },
    {
      "midi": 42,
      "hit": false,
      "t": 67663.58400000025,
      "d": 9.123999999996158,
      "v": 70
    },
    {
      "midi": 42,
      "hit": false,
      "t": 67882.56000000025,
      "d": 9.123999999996158,
      "v": 98
    },
    {
      "midi": 38,
      "hit": false,
      "t": 67882.56000000025,
      "d": 9.123999999996158,
      "v": 84
    },
    {
      "midi": 72,
      "hit": false,
      "t": 68101.53600000007,
      "d": 182.47999999999593,
      "v": 120
    },
    {
      "midi": 28,
      "hit": false,
      "t": 68101.53600000007,
      "d": 273.72000000000116,
      "v": 110
    },
    {
      "midi": 42,
      "hit": false,
      "t": 68101.53600000024,
      "d": 9.123999999996158,
      "v": 70
    },
    {
      "midi": 36,
      "hit": false,
      "t": 68101.53600000024,
      "d": 9.123999999996158,
      "v": 84
    },
    {
      "midi": 72,
      "hit": false,
      "t": 68211.02400000006,
      "d": 182.47999999999593,
      "v": 120
    },
    {
      "midi": 76,
      "hit": false,
      "t": 68320.51200000006,
      "d": 182.47999999999593,
      "v": 120
    },
    {
      "midi": 72,
      "hit": false,
      "t": 68320.51200000006,
      "d": 182.47999999999593,
      "v": 120
    },
    {
      "midi": 42,
      "hit": false,
      "t": 68320.51200000024,
      "d": 9.123999999996158,
      "v": 98
    },
    {
      "midi": 36,
      "hit": false,
      "t": 68320.51200000024,
      "d": 9.123999999996158,
      "v": 84
    },
    {
      "midi": 76,
      "hit": false,
      "t": 68430.00000000006,
      "d": 182.47999999999593,
      "v": 120
    },
    {
      "midi": 74,
      "hit": false,
      "t": 68539.48800000006,
      "d": 182.47999999999593,
      "v": 120
    },
    {
      "midi": 76,
      "hit": false,
      "t": 68539.48800000006,
      "d": 182.47999999999593,
      "v": 120
    },
    {
      "midi": 41,
      "hit": false,
      "t": 68539.48800000007,
      "d": 273.72000000000116,
      "v": 110
    },
    {
      "midi": 42,
      "hit": false,
      "t": 68539.48800000023,
      "d": 9.123999999996158,
      "v": 70
    },
    {
      "midi": 74,
      "hit": false,
      "t": 68648.97600000005,
      "d": 182.47999999999593,
      "v": 120
    },
    {
      "midi": 72,
      "hit": false,
      "t": 68758.46400000005,
      "d": 182.47999999999593,
      "v": 120
    },
    {
      "midi": 74,
      "hit": false,
      "t": 68758.46400000005,
      "d": 182.47999999999593,
      "v": 120
    },
    {
      "midi": 42,
      "hit": false,
      "t": 68758.46400000023,
      "d": 9.123999999996158,
      "v": 98
    },
    {
      "midi": 38,
      "hit": false,
      "t": 68758.46400000023,
      "d": 9.123999999996158,
      "v": 84
    },
    {
      "midi": 72,
      "hit": false,
      "t": 68867.95200000005,
      "d": 182.47999999999593,
      "v": 120
    },
    {
      "midi": 74,
      "hit": false,
      "t": 68977.44000000005,
      "d": 401.4560000000056,
      "v": 120
    },
    {
      "midi": 72,
      "hit": false,
      "t": 68977.44000000005,
      "d": 182.47999999999593,
      "v": 120
    },
    {
      "midi": 29,
      "hit": false,
      "t": 68977.44000000008,
      "d": 273.72000000000116,
      "v": 110
    },
    {
      "midi": 42,
      "hit": false,
      "t": 68977.44000000022,
      "d": 9.123999999996158,
      "v": 70
    },
    {
      "midi": 36,
      "hit": false,
      "t": 68977.44000000022,
      "d": 9.123999999996158,
      "v": 84
    },
    {
      "midi": 74,
      "hit": false,
      "t": 69086.92800000004,
      "d": 401.4560000000056,
      "v": 120
    },
    {
      "midi": 74,
      "hit": false,
      "t": 69196.41600000004,
      "d": 401.4560000000056,
      "v": 120
    },
    {
      "midi": 42,
      "hit": false,
      "t": 69196.41600000022,
      "d": 9.123999999996158,
      "v": 98
    },
    {
      "midi": 72,
      "hit": false,
      "t": 69415.39200000005,
      "d": 182.47999999999593,
      "v": 120
    },
    {
      "midi": 42,
      "hit": false,
      "t": 69415.39200000021,
      "d": 9.123999999996158,
      "v": 70
    },
    {
      "midi": 36,
      "hit": false,
      "t": 69415.39200000021,
      "d": 9.123999999996158,
      "v": 84
    },
    {
      "midi": 72,
      "hit": false,
      "t": 69524.88000000005,
      "d": 182.47999999999593,
      "v": 120
    },
    {
      "midi": 72,
      "hit": false,
      "t": 69634.36800000005,
      "d": 182.47999999999593,
      "v": 120
    },
    {
      "midi": 72,
      "hit": false,
      "t": 69634.36800000005,
      "d": 182.47999999999593,
      "v": 120
    },
    {
      "midi": 42,
      "hit": false,
      "t": 69634.3680000002,
      "d": 9.123999999996158,
      "v": 98
    },
    {
      "midi": 38,
      "hit": false,
      "t": 69634.3680000002,
      "d": 9.123999999996158,
      "v": 84
    },
    {
      "midi": 72,
      "hit": false,
      "t": 69743.85600000004,
      "d": 182.47999999999593,
      "v": 120
    },
    {
      "midi": 72,
      "hit": false,
      "t": 69853.34400000004,
      "d": 182.47999999999593,
      "v": 120
    },
    {
      "midi": 42,
      "hit": false,
      "t": 69853.3440000002,
      "d": 9.123999999996158,
      "v": 70
    },
    {
      "midi": 59,
      "hit": false,
      "t": 70072.3199999999,
      "d": 1742.6839999999938,
      "v": 60
    },
    {
      "midi": 55,
      "hit": false,
      "t": 70072.3199999999,
      "d": 1742.6839999999938,
      "v": 60
    },
    {
      "midi": 76,
      "hit": false,
      "t": 70072.32000000004,
      "d": 620.4320000000007,
      "v": 120
    },
    {
      "midi": 31,
      "hit": false,
      "t": 70072.32000000008,
      "d": 629.5559999999969,
      "v": 110
    },
    {
      "midi": 42,
      "hit": false,
      "t": 70072.3200000002,
      "d": 9.123999999996158,
      "v": 98
    },
    {
      "midi": 36,
      "hit": false,
      "t": 70072.3200000002,
      "d": 9.123999999996158,
      "v": 84
    },
    {
      "midi": 76,
      "hit": false,
      "t": 70181.80800000003,
      "d": 620.4320000000007,
      "v": 120
    },
    {
      "midi": 76,
      "hit": false,
      "t": 70291.29600000003,
      "d": 620.4320000000007,
      "v": 120
    },
    {
      "midi": 42,
      "hit": false,
      "t": 70291.29600000019,
      "d": 9.123999999996158,
      "v": 70
    },
    {
      "midi": 42,
      "hit": false,
      "t": 70510.27200000019,
      "d": 9.123999999996158,
      "v": 98
    },
    {
      "midi": 38,
      "hit": false,
      "t": 70510.27200000019,
      "d": 9.123999999996158,
      "v": 84
    },
    {
      "midi": 74,
      "hit": false,
      "t": 70729.24800000004,
      "d": 182.47999999999593,
      "v": 120
    },
    {
      "midi": 31,
      "hit": false,
      "t": 70729.24800000008,
      "d": 209.85199999999895,
      "v": 110
    },
    {
      "midi": 42,
      "hit": false,
      "t": 70729.24800000018,
      "d": 9.123999999996158,
      "v": 70
    },
    {
      "midi": 36,
      "hit": false,
      "t": 70729.24800000018,
      "d": 9.123999999996158,
      "v": 84
    },
    {
      "midi": 74,
      "hit": false,
      "t": 70838.73600000003,
      "d": 182.47999999999593,
      "v": 120
    },
    {
      "midi": 74,
      "hit": false,
      "t": 70948.22400000003,
      "d": 182.47999999999593,
      "v": 120
    },
    {
      "midi": 74,
      "hit": false,
      "t": 70948.22400000003,
      "d": 182.47999999999593,
      "v": 120
    },
    {
      "midi": 42,
      "hit": false,
      "t": 70948.22400000018,
      "d": 9.123999999996158,
      "v": 98
    },
    {
      "midi": 74,
      "hit": false,
      "t": 71057.71200000003,
      "d": 182.47999999999593,
      "v": 120
    },
    {
      "midi": 74,
      "hit": false,
      "t": 71167.20000000003,
      "d": 182.47999999999593,
      "v": 120
    },
    {
      "midi": 42,
      "hit": false,
      "t": 71167.20000000017,
      "d": 9.123999999996158,
      "v": 70
    },
    {
      "midi": 36,
      "hit": false,
      "t": 71167.20000000017,
      "d": 9.123999999996158,
      "v": 84
    },
    {
      "midi": 42,
      "hit": false,
      "t": 71386.17600000017,
      "d": 9.123999999996158,
      "v": 98
    },
    {
      "midi": 38,
      "hit": false,
      "t": 71386.17600000017,
      "d": 9.123999999996158,
      "v": 84
    },
    {
      "midi": 74,
      "hit": false,
      "t": 71605.15200000003,
      "d": 182.47999999999593,
      "v": 120
    },
    {
      "midi": 31,
      "hit": false,
      "t": 71605.15200000007,
      "d": 355.8359999999957,
      "v": 110
    },
    {
      "midi": 42,
      "hit": false,
      "t": 71605.15200000016,
      "d": 9.123999999996158,
      "v": 70
    },
    {
      "midi": 74,
      "hit": false,
      "t": 71714.64000000003,
      "d": 182.47999999999593,
      "v": 120
    },
    {
      "midi": 62,
      "hit": false,
      "t": 71824.1279999999,
      "d": 1742.6839999999938,
      "v": 60
    },
    {
      "midi": 59,
      "hit": false,
      "t": 71824.1279999999,
      "d": 1742.6839999999938,
      "v": 60
    },
    {
      "midi": 77,
      "hit": false,
      "t": 71824.12800000003,
      "d": 620.4320000000007,
      "v": 120
    },
    {
      "midi": 74,
      "hit": false,
      "t": 71824.12800000003,
      "d": 182.47999999999593,
      "v": 120
    },
    {
      "midi": 42,
      "hit": false,
      "t": 71824.12800000016,
      "d": 9.123999999996158,
      "v": 98
    },
    {
      "midi": 36,
      "hit": false,
      "t": 71824.12800000016,
      "d": 9.123999999996158,
      "v": 84
    },
    {
      "midi": 77,
      "hit": false,
      "t": 71933.61600000002,
      "d": 620.4320000000007,
      "v": 120
    },
    {
      "midi": 77,
      "hit": false,
      "t": 72043.10400000002,
      "d": 620.4320000000007,
      "v": 120
    },
    {
      "midi": 44,
      "hit": false,
      "t": 72043.10400000006,
      "d": 273.72000000000116,
      "v": 110
    },
    {
      "midi": 42,
      "hit": false,
      "t": 72043.10400000015,
      "d": 9.123999999996158,
      "v": 70
    },
    {
      "midi": 42,
      "hit": false,
      "t": 72262.08000000015,
      "d": 9.123999999996158,
      "v": 98
    },
    {
      "midi": 38,
      "hit": false,
      "t": 72262.08000000015,
      "d": 9.123999999996158,
      "v": 84
    },
    {
      "midi": 76,
      "hit": false,
      "t": 72481.05600000003,
      "d": 182.47999999999593,
      "v": 120
    },
    {
      "midi": 32,
      "hit": false,
      "t": 72481.05600000007,
      "d": 273.72000000000116,
      "v": 110
    },
    {
      "midi": 42,
      "hit": false,
      "t": 72481.05600000014,
      "d": 9.123999999996158,
      "v": 70
    },
    {
      "midi": 36,
      "hit": false,
      "t": 72481.05600000014,
      "d": 9.123999999996158,
      "v": 84
    },
    {
      "midi": 76,
      "hit": false,
      "t": 72590.54400000002,
      "d": 182.47999999999593,
      "v": 120
    },
    {
      "midi": 76,
      "hit": false,
      "t": 72700.03200000002,
      "d": 182.47999999999593,
      "v": 120
    },
    {
      "midi": 76,
      "hit": false,
      "t": 72700.03200000002,
      "d": 182.47999999999593,
      "v": 120
    },
    {
      "midi": 42,
      "hit": false,
      "t": 72700.03200000014,
      "d": 9.123999999996158,
      "v": 98
    },
    {
      "midi": 76,
      "hit": false,
      "t": 72809.52000000002,
      "d": 182.47999999999593,
      "v": 120
    },
    {
      "midi": 76,
      "hit": false,
      "t": 72919.00800000002,
      "d": 182.47999999999593,
      "v": 120
    },
    {
      "midi": 76,
      "hit": false,
      "t": 72919.00800000002,
      "d": 182.47999999999593,
      "v": 120
    },
    {
      "midi": 42,
      "hit": false,
      "t": 72919.00800000013,
      "d": 9.123999999996158,
      "v": 70
    },
    {
      "midi": 36,
      "hit": false,
      "t": 72919.00800000013,
      "d": 9.123999999996158,
      "v": 84
    },
    {
      "midi": 76,
      "hit": false,
      "t": 73028.49600000001,
      "d": 182.47999999999593,
      "v": 120
    },
    {
      "midi": 76,
      "hit": false,
      "t": 73137.98400000001,
      "d": 182.47999999999593,
      "v": 120
    },
    {
      "midi": 76,
      "hit": false,
      "t": 73137.98400000001,
      "d": 182.47999999999593,
      "v": 120
    },
    {
      "midi": 42,
      "hit": false,
      "t": 73137.98400000013,
      "d": 9.123999999996158,
      "v": 98
    },
    {
      "midi": 38,
      "hit": false,
      "t": 73137.98400000013,
      "d": 9.123999999996158,
      "v": 84
    },
    {
      "midi": 76,
      "hit": false,
      "t": 73247.47200000001,
      "d": 182.47999999999593,
      "v": 120
    },
    {
      "midi": 76,
      "hit": false,
      "t": 73356.96,
      "d": 182.47999999999593,
      "v": 120
    },
    {
      "midi": 76,
      "hit": false,
      "t": 73356.96,
      "d": 182.47999999999593,
      "v": 120
    },
    {
      "midi": 42,
      "hit": false,
      "t": 73356.96000000012,
      "d": 9.123999999996158,
      "v": 70
    },
    {
      "midi": 76,
      "hit": false,
      "t": 73466.448,
      "d": 182.47999999999593,
      "v": 120
    },
    {
      "midi": 64,
      "hit": false,
      "t": 73575.93599999989,
      "d": 647.8040000000037,
      "v": 60
    },
    {
      "midi": 57,
      "hit": false,
      "t": 73575.93599999989,
      "d": 647.8040000000037,
      "v": 60
    },
    {
      "midi": 76,
      "hit": false,
      "t": 73575.936,
      "d": 182.47999999999593,
      "v": 120
    },
    {
      "midi": 76,
      "hit": false,
      "t": 73575.936,
      "d": 182.47999999999593,
      "v": 120
    },
    {
      "midi": 33,
      "hit": false,
      "t": 73575.93600000007,
      "d": 629.5559999999969,
      "v": 110
    },
    {
      "midi": 42,
      "hit": false,
      "t": 73575.93600000012,
      "d": 9.123999999996158,
      "v": 98
    },
    {
      "midi": 36,
      "hit": false,
      "t": 73575.93600000012,
      "d": 9.123999999996158,
      "v": 84
    },
    {
      "midi": 76,
      "hit": false,
      "t": 73685.424,
      "d": 182.47999999999593,
      "v": 120
    },
    {
      "midi": 74,
      "hit": false,
      "t": 73794.912,
      "d": 182.47999999999593,
      "v": 120
    },
    {
      "midi": 76,
      "hit": false,
      "t": 73794.912,
      "d": 182.47999999999593,
      "v": 120
    },
    {
      "midi": 42,
      "hit": false,
      "t": 73794.91200000011,
      "d": 9.123999999996158,
      "v": 70
    },
    {
      "midi": 74,
      "hit": false,
      "t": 73904.4,
      "d": 182.47999999999593,
      "v": 120
    },
    {
      "midi": 72,
      "hit": false,
      "t": 74013.88799999999,
      "d": 182.47999999999593,
      "v": 120
    },
    {
      "midi": 74,
      "hit": false,
      "t": 74013.88799999999,
      "d": 182.47999999999593,
      "v": 120
    },
    {
      "midi": 42,
      "hit": false,
      "t": 74013.88800000011,
      "d": 9.123999999996158,
      "v": 98
    },
    {
      "midi": 38,
      "hit": false,
      "t": 74013.88800000011,
      "d": 9.123999999996158,
      "v": 84
    },
    {
      "midi": 72,
      "hit": false,
      "t": 74123.37599999999,
      "d": 182.47999999999593,
      "v": 120
    },
    {
      "midi": 62,
      "hit": false,
      "t": 74232.86399999988,
      "d": 866.7799999999988,
      "v": 60
    },
    {
      "midi": 57,
      "hit": false,
      "t": 74232.86399999988,
      "d": 866.7799999999988,
      "v": 60
    },
    {
      "midi": 74,
      "hit": false,
      "t": 74232.86399999999,
      "d": 182.47999999999593,
      "v": 120
    },
    {
      "midi": 72,
      "hit": false,
      "t": 74232.86399999999,
      "d": 182.47999999999593,
      "v": 120
    },
    {
      "midi": 38,
      "hit": false,
      "t": 74232.86400000007,
      "d": 866.7799999999988,
      "v": 110
    },
    {
      "midi": 42,
      "hit": false,
      "t": 74232.8640000001,
      "d": 9.123999999996158,
      "v": 70
    },
    {
      "midi": 36,
      "hit": false,
      "t": 74232.8640000001,
      "d": 9.123999999996158,
      "v": 84
    },
    {
      "midi": 74,
      "hit": false,
      "t": 74342.35199999998,
      "d": 182.47999999999593,
      "v": 120
    },
    {
      "midi": 74,
      "hit": false,
      "t": 74451.83999999998,
      "d": 182.47999999999593,
      "v": 120
    },
    {
      "midi": 42,
      "hit": false,
      "t": 74451.8400000001,
      "d": 9.123999999996158,
      "v": 98
    },
    {
      "midi": 72,
      "hit": false,
      "t": 74670.81599999998,
      "d": 182.47999999999593,
      "v": 120
    },
    {
      "midi": 42,
      "hit": false,
      "t": 74670.8160000001,
      "d": 9.123999999996158,
      "v": 70
    },
    {
      "midi": 36,
      "hit": false,
      "t": 74670.8160000001,
      "d": 9.123999999996158,
      "v": 84
    },
    {
      "midi": 72,
      "hit": false,
      "t": 74780.30399999997,
      "d": 182.47999999999593,
      "v": 120
    },
    {
      "midi": 72,
      "hit": false,
      "t": 74889.79199999997,
      "d": 182.47999999999593,
      "v": 120
    },
    {
      "midi": 42,
      "hit": false,
      "t": 74889.79200000009,
      "d": 9.123999999996158,
      "v": 98
    },
    {
      "midi": 38,
      "hit": false,
      "t": 74889.79200000009,
      "d": 9.123999999996158,
      "v": 84
    },
    {
      "midi": 62,
      "hit": false,
      "t": 75108.76799999988,
      "d": 428.82799999999406,
      "v": 60
    },
    {
      "midi": 57,
      "hit": false,
      "t": 75108.76799999988,
      "d": 428.82799999999406,
      "v": 60
    },
    {
      "midi": 74,
      "hit": false,
      "t": 75108.76799999997,
      "d": 182.47999999999593,
      "v": 120
    },
    {
      "midi": 38,
      "hit": false,
      "t": 75108.76800000007,
      "d": 355.8359999999957,
      "v": 110
    },
    {
      "midi": 42,
      "hit": false,
      "t": 75108.76800000008,
      "d": 9.123999999996158,
      "v": 70
    },
    {
      "midi": 36,
      "hit": false,
      "t": 75108.76800000008,
      "d": 9.123999999996158,
      "v": 84
    },
    {
      "midi": 74,
      "hit": false,
      "t": 75218.25599999996,
      "d": 182.47999999999593,
      "v": 120
    },
    {
      "midi": 74,
      "hit": false,
      "t": 75327.74399999996,
      "d": 182.47999999999593,
      "v": 120
    },
    {
      "midi": 42,
      "hit": false,
      "t": 75327.74400000008,
      "d": 9.123999999996158,
      "v": 98
    },
    {
      "midi": 64,
      "hit": false,
      "t": 75546.71999999987,
      "d": 1523.7079999999987,
      "v": 60
    },
    {
      "midi": 59,
      "hit": false,
      "t": 75546.71999999987,
      "d": 1523.7079999999987,
      "v": 60
    },
    {
      "midi": 76,
      "hit": false,
      "t": 75546.71999999996,
      "d": 182.47999999999593,
      "v": 120
    },
    {
      "midi": 40,
      "hit": false,
      "t": 75546.72000000006,
      "d": 410.58000000000175,
      "v": 110
    },
    {
      "midi": 42,
      "hit": false,
      "t": 75546.72000000007,
      "d": 9.123999999996158,
      "v": 70
    },
    {
      "midi": 36,
      "hit": false,
      "t": 75546.72000000007,
      "d": 9.123999999996158,
      "v": 84
    },
    {
      "midi": 76,
      "hit": false,
      "t": 75656.20799999996,
      "d": 182.47999999999593,
      "v": 120
    },
    {
      "midi": 76,
      "hit": false,
      "t": 75765.69599999995,
      "d": 182.47999999999593,
      "v": 120
    },
    {
      "midi": 42,
      "hit": false,
      "t": 75765.69600000007,
      "d": 9.123999999996158,
      "v": 98
    },
    {
      "midi": 38,
      "hit": false,
      "t": 75765.69600000007,
      "d": 9.123999999996158,
      "v": 84
    },
    {
      "midi": 28,
      "hit": false,
      "t": 75984.67200000006,
      "d": 1085.755999999994,
      "v": 110
    },
    {
      "midi": 42,
      "hit": false,
      "t": 75984.67200000006,
      "d": 9.123999999996158,
      "v": 70
    },
    {
      "midi": 36,
      "hit": false,
      "t": 75984.67200000006,
      "d": 9.123999999996158,
      "v": 84
    },
    {
      "midi": 42,
      "hit": false,
      "t": 76203.64800000006,
      "d": 9.123999999996158,
      "v": 98
    },
    {
      "midi": 71,
      "hit": false,
      "t": 76422.62399999995,
      "d": 182.47999999999593,
      "v": 120
    },
    {
      "midi": 48,
      "hit": false,
      "t": 76422.62400000005,
      "d": 9.123999999996158,
      "v": 84
    },
    {
      "midi": 48,
      "hit": false,
      "t": 76422.62400000029,
      "d": 9.123999999996158,
      "v": 42
    },
    {
      "midi": 71,
      "hit": false,
      "t": 76532.11199999995,
      "d": 182.47999999999593,
      "v": 120
    },
    {
      "midi": 72,
      "hit": false,
      "t": 76641.59999999995,
      "d": 182.47999999999593,
      "v": 120
    },
    {
      "midi": 71,
      "hit": false,
      "t": 76641.59999999995,
      "d": 182.47999999999593,
      "v": 120
    },
    {
      "midi": 45,
      "hit": false,
      "t": 76641.60000000005,
      "d": 9.123999999996158,
      "v": 84
    },
    {
      "midi": 45,
      "hit": false,
      "t": 76641.60000000028,
      "d": 9.123999999996158,
      "v": 42
    },
    {
      "midi": 72,
      "hit": false,
      "t": 76751.08799999995,
      "d": 182.47999999999593,
      "v": 120
    },
    {
      "midi": 74,
      "hit": false,
      "t": 76860.57599999994,
      "d": 182.47999999999593,
      "v": 120
    },
    {
      "midi": 72,
      "hit": false,
      "t": 76860.57599999994,
      "d": 182.47999999999593,
      "v": 120
    },
    {
      "midi": 41,
      "hit": false,
      "t": 76860.57600000004,
      "d": 9.123999999996158,
      "v": 84
    },
    {
      "midi": 41,
      "hit": false,
      "t": 76860.57600000028,
      "d": 9.123999999996158,
      "v": 42
    },
    {
      "midi": 74,
      "hit": false,
      "t": 76970.06399999994,
      "d": 182.47999999999593,
      "v": 120
    },
    {
      "midi": 64,
      "hit": false,
      "t": 77079.55199999987,
      "d": 3275.5160000000033,
      "v": 60
    },
    {
      "midi": 57,
      "hit": false,
      "t": 77079.55199999987,
      "d": 3275.5160000000033,
      "v": 60
    },
    {
      "midi": 76,
      "hit": false,
      "t": 77079.55199999994,
      "d": 182.47999999999593,
      "v": 120
    },
    {
      "midi": 74,
      "hit": false,
      "t": 77079.55199999994,
      "d": 182.47999999999593,
      "v": 120
    },
    {
      "midi": 49,
      "hit": false,
      "t": 77079.55200000004,
      "d": 9.123999999996158,
      "v": 84
    },
    {
      "midi": 36,
      "hit": false,
      "t": 77079.55200000004,
      "d": 9.123999999996158,
      "v": 84
    },
    {
      "midi": 33,
      "hit": false,
      "t": 77079.55200000005,
      "d": 209.85199999999895,
      "v": 110
    },
    {
      "midi": 76,
      "hit": false,
      "t": 77189.03999999994,
      "d": 182.47999999999593,
      "v": 120
    },
    {
      "midi": 74,
      "hit": false,
      "t": 77298.52799999993,
      "d": 182.47999999999593,
      "v": 120
    },
    {
      "midi": 76,
      "hit": false,
      "t": 77298.52799999993,
      "d": 182.47999999999593,
      "v": 120
    },
    {
      "midi": 42,
      "hit": false,
      "t": 77298.52800000003,
      "d": 9.123999999996158,
      "v": 70
    },
    {
      "midi": 74,
      "hit": false,
      "t": 77408.01599999993,
      "d": 182.47999999999593,
      "v": 120
    },
    {
      "midi": 74,
      "hit": false,
      "t": 77517.50399999993,
      "d": 182.47999999999593,
      "v": 120
    },
    {
      "midi": 74,
      "hit": false,
      "t": 77517.50399999993,
      "d": 182.47999999999593,
      "v": 120
    },
    {
      "midi": 42,
      "hit": false,
      "t": 77517.50400000003,
      "d": 9.123999999996158,
      "v": 98
    },
    {
      "midi": 38,
      "hit": false,
      "t": 77517.50400000003,
      "d": 9.123999999996158,
      "v": 84
    },
    {
      "midi": 74,
      "hit": false,
      "t": 77626.99199999993,
      "d": 182.47999999999593,
      "v": 120
    },
    {
      "midi": 72,
      "hit": false,
      "t": 77736.47999999992,
      "d": 182.47999999999593,
      "v": 120
    },
    {
      "midi": 74,
      "hit": false,
      "t": 77736.47999999992,
      "d": 182.47999999999593,
      "v": 120
    },
    {
      "midi": 42,
      "hit": false,
      "t": 77736.48000000003,
      "d": 9.123999999996158,
      "v": 70
    },
    {
      "midi": 36,
      "hit": false,
      "t": 77736.48000000003,
      "d": 9.123999999996158,
      "v": 84
    },
    {
      "midi": 33,
      "hit": false,
      "t": 77736.48000000005,
      "d": 209.85199999999895,
      "v": 110
    },
    {
      "midi": 72,
      "hit": false,
      "t": 77845.96799999992,
      "d": 182.47999999999593,
      "v": 120
    },
    {
      "midi": 72,
      "hit": false,
      "t": 77955.45599999992,
      "d": 182.47999999999593,
      "v": 120
    },
    {
      "midi": 72,
      "hit": false,
      "t": 77955.45599999992,
      "d": 182.47999999999593,
      "v": 120
    },
    {
      "midi": 42,
      "hit": false,
      "t": 77955.45600000002,
      "d": 9.123999999996158,
      "v": 98
    },
    {
      "midi": 72,
      "hit": false,
      "t": 78064.94399999992,
      "d": 182.47999999999593,
      "v": 120
    },
    {
      "midi": 71,
      "hit": false,
      "t": 78174.43199999991,
      "d": 182.47999999999593,
      "v": 120
    },
    {
      "midi": 72,
      "hit": false,
      "t": 78174.43199999991,
      "d": 182.47999999999593,
      "v": 120
    },
    {
      "midi": 42,
      "hit": false,
      "t": 78174.43200000002,
      "d": 9.123999999996158,
      "v": 70
    },
    {
      "midi": 36,
      "hit": false,
      "t": 78174.43200000002,
      "d": 9.123999999996158,
      "v": 84
    },
    {
      "midi": 71,
      "hit": false,
      "t": 78283.91999999991,
      "d": 182.47999999999593,
      "v": 120
    },
    {
      "midi": 72,
      "hit": false,
      "t": 78393.40799999991,
      "d": 182.47999999999593,
      "v": 120
    },
    {
      "midi": 71,
      "hit": false,
      "t": 78393.40799999991,
      "d": 182.47999999999593,
      "v": 120
    },
    {
      "midi": 42,
      "hit": false,
      "t": 78393.40800000001,
      "d": 9.123999999996158,
      "v": 98
    },
    {
      "midi": 38,
      "hit": false,
      "t": 78393.40800000001,
      "d": 9.123999999996158,
      "v": 84
    },
    {
      "midi": 72,
      "hit": false,
      "t": 78502.8959999999,
      "d": 182.47999999999593,
      "v": 120
    },
    {
      "midi": 74,
      "hit": false,
      "t": 78612.3839999999,
      "d": 182.47999999999593,
      "v": 120
    },
    {
      "midi": 72,
      "hit": false,
      "t": 78612.3839999999,
      "d": 182.47999999999593,
      "v": 120
    },
    {
      "midi": 42,
      "hit": false,
      "t": 78612.384,
      "d": 9.123999999996158,
      "v": 70
    },
    {
      "midi": 28,
      "hit": false,
      "t": 78612.38400000005,
      "d": 273.72000000000116,
      "v": 110
    },
    {
      "midi": 74,
      "hit": false,
      "t": 78721.8719999999,
      "d": 182.47999999999593,
      "v": 120
    },
    {
      "midi": 76,
      "hit": false,
      "t": 78831.3599999999,
      "d": 401.4560000000056,
      "v": 120
    },
    {
      "midi": 74,
      "hit": false,
      "t": 78831.3599999999,
      "d": 182.47999999999593,
      "v": 120
    },
    {
      "midi": 42,
      "hit": false,
      "t": 78831.36,
      "d": 9.123999999996158,
      "v": 98
    },
    {
      "midi": 36,
      "hit": false,
      "t": 78831.36,
      "d": 9.123999999996158,
      "v": 84
    },
    {
      "midi": 76,
      "hit": false,
      "t": 78940.8479999999,
      "d": 401.4560000000056,
      "v": 120
    },
    {
      "midi": 76,
      "hit": false,
      "t": 79050.3359999999,
      "d": 401.4560000000056,
      "v": 120
    },
    {
      "midi": 42,
      "hit": false,
      "t": 79050.336,
      "d": 9.123999999996158,
      "v": 70
    },
    {
      "midi": 45,
      "hit": false,
      "t": 79050.33600000005,
      "d": 273.72000000000116,
      "v": 110
    },
    {
      "midi": 74,
      "hit": false,
      "t": 79269.3119999999,
      "d": 182.47999999999593,
      "v": 120
    },
    {
      "midi": 42,
      "hit": false,
      "t": 79269.31199999999,
      "d": 9.123999999996158,
      "v": 98
    },
    {
      "midi": 38,
      "hit": false,
      "t": 79269.31199999999,
      "d": 9.123999999996158,
      "v": 84
    },
    {
      "midi": 74,
      "hit": false,
      "t": 79378.7999999999,
      "d": 182.47999999999593,
      "v": 120
    },
    {
      "midi": 72,
      "hit": false,
      "t": 79488.2879999999,
      "d": 401.4560000000056,
      "v": 120
    },
    {
      "midi": 74,
      "hit": false,
      "t": 79488.2879999999,
      "d": 182.47999999999593,
      "v": 120
    },
    {
      "midi": 42,
      "hit": false,
      "t": 79488.28799999999,
      "d": 9.123999999996158,
      "v": 70
    },
    {
      "midi": 36,
      "hit": false,
      "t": 79488.28799999999,
      "d": 9.123999999996158,
      "v": 84
    },
    {
      "midi": 33,
      "hit": false,
      "t": 79488.28800000006,
      "d": 273.72000000000116,
      "v": 110
    },
    {
      "midi": 72,
      "hit": false,
      "t": 79597.7759999999,
      "d": 401.4560000000056,
      "v": 120
    },
    {
      "midi": 72,
      "hit": false,
      "t": 79707.2639999999,
      "d": 401.4560000000056,
      "v": 120
    },
    {
      "midi": 42,
      "hit": false,
      "t": 79707.26399999998,
      "d": 9.123999999996158,
      "v": 98
    },
    {
      "midi": 71,
      "hit": false,
      "t": 79926.2399999999,
      "d": 401.4560000000056,
      "v": 120
    },
    {
      "midi": 42,
      "hit": false,
      "t": 79926.23999999998,
      "d": 9.123999999996158,
      "v": 70
    },
    {
      "midi": 36,
      "hit": false,
      "t": 79926.23999999998,
      "d": 9.123999999996158,
      "v": 84
    },
    {
      "midi": 71,
      "hit": false,
      "t": 80035.7279999999,
      "d": 401.4560000000056,
      "v": 120
    },
    {
      "midi": 71,
      "hit": false,
      "t": 80145.2159999999,
      "d": 401.4560000000056,
      "v": 120
    },
    {
      "midi": 42,
      "hit": false,
      "t": 80145.21599999997,
      "d": 9.123999999996158,
      "v": 98
    },
    {
      "midi": 38,
      "hit": false,
      "t": 80145.21599999997,
      "d": 9.123999999996158,
      "v": 84
    },
    {
      "midi": 60,
      "hit": false,
      "t": 80364.19199999986,
      "d": 3713.4679999999935,
      "v": 60
    },
    {
      "midi": 53,
      "hit": false,
      "t": 80364.19199999986,
      "d": 3713.4679999999935,
      "v": 60
    },
    {
      "midi": 74,
      "hit": false,
      "t": 80364.19199999991,
      "d": 401.4560000000056,
      "v": 120
    },
    {
      "midi": 42,
      "hit": false,
      "t": 80364.19199999997,
      "d": 9.123999999996158,
      "v": 70
    },
    {
      "midi": 36,
      "hit": false,
      "t": 80364.19199999997,
      "d": 9.123999999996158,
      "v": 84
    },
    {
      "midi": 29,
      "hit": false,
      "t": 80364.19200000005,
      "d": 848.5320000000065,
      "v": 110
    },
    {
      "midi": 74,
      "hit": false,
      "t": 80473.6799999999,
      "d": 401.4560000000056,
      "v": 120
    },
    {
      "midi": 74,
      "hit": false,
      "t": 80583.1679999999,
      "d": 401.4560000000056,
      "v": 120
    },
    {
      "midi": 42,
      "hit": false,
      "t": 80583.16799999996,
      "d": 9.123999999996158,
      "v": 98
    },
    {
      "midi": 72,
      "hit": false,
      "t": 80802.14399999991,
      "d": 401.4560000000056,
      "v": 120
    },
    {
      "midi": 42,
      "hit": false,
      "t": 80802.14399999996,
      "d": 9.123999999996158,
      "v": 70
    },
    {
      "midi": 72,
      "hit": false,
      "t": 80911.63199999991,
      "d": 401.4560000000056,
      "v": 120
    },
    {
      "midi": 72,
      "hit": false,
      "t": 81021.11999999991,
      "d": 401.4560000000056,
      "v": 120
    },
    {
      "midi": 42,
      "hit": false,
      "t": 81021.11999999995,
      "d": 9.123999999996158,
      "v": 98
    },
    {
      "midi": 38,
      "hit": false,
      "t": 81021.11999999995,
      "d": 9.123999999996158,
      "v": 84
    },
    {
      "midi": 42,
      "hit": false,
      "t": 81240.09599999995,
      "d": 9.123999999996158,
      "v": 70
    },
    {
      "midi": 36,
      "hit": false,
      "t": 81240.09599999995,
      "d": 9.123999999996158,
      "v": 84
    },
    {
      "midi": 29,
      "hit": false,
      "t": 81240.09600000006,
      "d": 209.85199999999895,
      "v": 110
    },
    {
      "midi": 42,
      "hit": false,
      "t": 81459.07199999994,
      "d": 9.123999999996158,
      "v": 98
    },
    {
      "midi": 36,
      "hit": false,
      "t": 81459.07199999994,
      "d": 9.123999999996158,
      "v": 84
    },
    {
      "midi": 42,
      "hit": false,
      "t": 81678.04799999994,
      "d": 9.123999999996158,
      "v": 70
    },
    {
      "midi": 42,
      "hit": false,
      "t": 81897.02399999993,
      "d": 9.123999999996158,
      "v": 98
    },
    {
      "midi": 38,
      "hit": false,
      "t": 81897.02399999993,
      "d": 9.123999999996158,
      "v": 84
    },
    {
      "midi": 72,
      "hit": false,
      "t": 82115.99999999991,
      "d": 182.47999999999593,
      "v": 120
    },
    {
      "midi": 42,
      "hit": false,
      "t": 82115.99999999993,
      "d": 9.123999999996158,
      "v": 70
    },
    {
      "midi": 36,
      "hit": false,
      "t": 82115.99999999993,
      "d": 9.123999999996158,
      "v": 84
    },
    {
      "midi": 28,
      "hit": false,
      "t": 82116.00000000006,
      "d": 273.72000000000116,
      "v": 110
    },
    {
      "midi": 72,
      "hit": false,
      "t": 82225.48799999991,
      "d": 182.47999999999593,
      "v": 120
    },
    {
      "midi": 76,
      "hit": false,
      "t": 82334.97599999991,
      "d": 182.47999999999593,
      "v": 120
    },
    {
      "midi": 72,
      "hit": false,
      "t": 82334.97599999991,
      "d": 182.47999999999593,
      "v": 120
    },
    {
      "midi": 42,
      "hit": false,
      "t": 82334.97599999992,
      "d": 9.123999999996158,
      "v": 98
    },
    {
      "midi": 36,
      "hit": false,
      "t": 82334.97599999992,
      "d": 9.123999999996158,
      "v": 84
    },
    {
      "midi": 76,
      "hit": false,
      "t": 82444.4639999999,
      "d": 182.47999999999593,
      "v": 120
    },
    {
      "midi": 74,
      "hit": false,
      "t": 82553.9519999999,
      "d": 182.47999999999593,
      "v": 120
    },
    {
      "midi": 76,
      "hit": false,
      "t": 82553.9519999999,
      "d": 182.47999999999593,
      "v": 120
    },
    {
      "midi": 42,
      "hit": false,
      "t": 82553.95199999992,
      "d": 9.123999999996158,
      "v": 70
    },
    {
      "midi": 41,
      "hit": false,
      "t": 82553.95200000006,
      "d": 273.72000000000116,
      "v": 110
    },
    {
      "midi": 74,
      "hit": false,
      "t": 82663.4399999999,
      "d": 182.47999999999593,
      "v": 120
    },
    {
      "midi": 72,
      "hit": false,
      "t": 82772.9279999999,
      "d": 182.47999999999593,
      "v": 120
    },
    {
      "midi": 74,
      "hit": false,
      "t": 82772.9279999999,
      "d": 182.47999999999593,
      "v": 120
    },
    {
      "midi": 42,
      "hit": false,
      "t": 82772.92799999991,
      "d": 9.123999999996158,
      "v": 98
    },
    {
      "midi": 38,
      "hit": false,
      "t": 82772.92799999991,
      "d": 9.123999999996158,
      "v": 84
    },
    {
      "midi": 72,
      "hit": false,
      "t": 82882.4159999999,
      "d": 182.47999999999593,
      "v": 120
    },
    {
      "midi": 74,
      "hit": false,
      "t": 82991.9039999999,
      "d": 401.4560000000056,
      "v": 120
    },
    {
      "midi": 72,
      "hit": false,
      "t": 82991.9039999999,
      "d": 182.47999999999593,
      "v": 120
    },
    {
      "midi": 42,
      "hit": false,
      "t": 82991.90399999991,
      "d": 9.123999999996158,
      "v": 70
    },
    {
      "midi": 36,
      "hit": false,
      "t": 82991.90399999991,
      "d": 9.123999999996158,
      "v": 84
    },
    {
      "midi": 29,
      "hit": false,
      "t": 82991.90400000007,
      "d": 273.72000000000116,
      "v": 110
    },
    {
      "midi": 74,
      "hit": false,
      "t": 83101.39199999989,
      "d": 401.4560000000056,
      "v": 120
    },
    {
      "midi": 74,
      "hit": false,
      "t": 83210.87999999989,
      "d": 401.4560000000056,
      "v": 120
    },
    {
      "midi": 42,
      "hit": false,
      "t": 83210.8799999999,
      "d": 9.123999999996158,
      "v": 98
    },
    {
      "midi": 72,
      "hit": false,
      "t": 83429.8559999999,
      "d": 182.47999999999593,
      "v": 120
    },
    {
      "midi": 42,
      "hit": false,
      "t": 83429.8559999999,
      "d": 9.123999999996158,
      "v": 70
    },
    {
      "midi": 36,
      "hit": false,
      "t": 83429.8559999999,
      "d": 9.123999999996158,
      "v": 84
    },
    {
      "midi": 72,
      "hit": false,
      "t": 83539.3439999999,
      "d": 182.47999999999593,
      "v": 120
    },
    {
      "midi": 72,
      "hit": false,
      "t": 83648.8319999999,
      "d": 182.47999999999593,
      "v": 120
    },
    {
      "midi": 42,
      "hit": false,
      "t": 83648.8319999999,
      "d": 9.123999999996158,
      "v": 98
    },
    {
      "midi": 38,
      "hit": false,
      "t": 83648.8319999999,
      "d": 9.123999999996158,
      "v": 84
    },
    {
      "midi": 72,
      "hit": false,
      "t": 83867.80799999989,
      "d": 182.47999999999593,
      "v": 120
    },
    {
      "midi": 42,
      "hit": false,
      "t": 83867.80799999989,
      "d": 9.123999999996158,
      "v": 70
    },
    {
      "midi": 72,
      "hit": false,
      "t": 83977.29599999989,
      "d": 182.47999999999593,
      "v": 120
    },
    {
      "midi": 59,
      "hit": false,
      "t": 84086.78399999985,
      "d": 1742.6839999999938,
      "v": 60
    },
    {
      "midi": 55,
      "hit": false,
      "t": 84086.78399999985,
      "d": 1742.6839999999938,
      "v": 60
    },
    {
      "midi": 76,
      "hit": false,
      "t": 84086.78399999988,
      "d": 620.4320000000007,
      "v": 120
    },
    {
      "midi": 72,
      "hit": false,
      "t": 84086.78399999988,
      "d": 182.47999999999593,
      "v": 120
    },
    {
      "midi": 42,
      "hit": false,
      "t": 84086.78399999988,
      "d": 9.123999999996158,
      "v": 98
    },
    {
      "midi": 36,
      "hit": false,
      "t": 84086.78399999988,
      "d": 9.123999999996158,
      "v": 84
    },
    {
      "midi": 31,
      "hit": false,
      "t": 84086.78400000007,
      "d": 629.5559999999969,
      "v": 110
    },
    {
      "midi": 76,
      "hit": false,
      "t": 84196.27199999988,
      "d": 620.4320000000007,
      "v": 120
    },
    {
      "midi": 76,
      "hit": false,
      "t": 84305.75999999988,
      "d": 620.4320000000007,
      "v": 120
    },
    {
      "midi": 42,
      "hit": false,
      "t": 84305.75999999988,
      "d": 9.123999999996158,
      "v": 70
    },
    {
      "midi": 42,
      "hit": false,
      "t": 84524.73599999987,
      "d": 9.123999999996158,
      "v": 98
    },
    {
      "midi": 38,
      "hit": false,
      "t": 84524.73599999987,
      "d": 9.123999999996158,
      "v": 84
    },
    {
      "midi": 42,
      "hit": false,
      "t": 84743.71199999987,
      "d": 9.123999999996158,
      "v": 70
    },
    {
      "midi": 36,
      "hit": false,
      "t": 84743.71199999987,
      "d": 9.123999999996158,
      "v": 84
    },
    {
      "midi": 74,
      "hit": false,
      "t": 84743.71199999988,
      "d": 182.47999999999593,
      "v": 120
    },
    {
      "midi": 31,
      "hit": false,
      "t": 84743.71200000007,
      "d": 209.85199999999895,
      "v": 110
    },
    {
      "midi": 74,
      "hit": false,
      "t": 84853.19999999988,
      "d": 182.47999999999593,
      "v": 120
    },
    {
      "midi": 42,
      "hit": false,
      "t": 84962.68799999986,
      "d": 9.123999999996158,
      "v": 98
    },
    {
      "midi": 74,
      "hit": false,
      "t": 84962.68799999988,
      "d": 182.47999999999593,
      "v": 120
    },
    {
      "midi": 74,
      "hit": false,
      "t": 84962.68799999988,
      "d": 182.47999999999593,
      "v": 120
    },
    {
      "midi": 74,
      "hit": false,
      "t": 85072.17599999988,
      "d": 182.47999999999593,
      "v": 120
    },
    {
      "midi": 42,
      "hit": false,
      "t": 85181.66399999986,
      "d": 9.123999999996158,
      "v": 70
    },
    {
      "midi": 36,
      "hit": false,
      "t": 85181.66399999986,
      "d": 9.123999999996158,
      "v": 84
    },
    {
      "midi": 74,
      "hit": false,
      "t": 85181.66399999987,
      "d": 182.47999999999593,
      "v": 120
    },
    {
      "midi": 42,
      "hit": false,
      "t": 85400.63999999985,
      "d": 9.123999999996158,
      "v": 98
    },
    {
      "midi": 38,
      "hit": false,
      "t": 85400.63999999985,
      "d": 9.123999999996158,
      "v": 84
    },
    {
      "midi": 42,
      "hit": false,
      "t": 85619.61599999985,
      "d": 9.123999999996158,
      "v": 70
    },
    {
      "midi": 74,
      "hit": false,
      "t": 85619.61599999988,
      "d": 182.47999999999593,
      "v": 120
    },
    {
      "midi": 31,
      "hit": false,
      "t": 85619.61600000007,
      "d": 355.8359999999957,
      "v": 110
    },
    {
      "midi": 74,
      "hit": false,
      "t": 85729.10399999988,
      "d": 182.47999999999593,
      "v": 120
    },
    {
      "midi": 62,
      "hit": false,
      "t": 85838.59199999984,
      "d": 1742.6839999999938,
      "v": 60
    },
    {
      "midi": 59,
      "hit": false,
      "t": 85838.59199999984,
      "d": 1742.6839999999938,
      "v": 60
    },
    {
      "midi": 42,
      "hit": false,
      "t": 85838.59199999984,
      "d": 9.123999999996158,
      "v": 98
    },
    {
      "midi": 36,
      "hit": false,
      "t": 85838.59199999984,
      "d": 9.123999999996158,
      "v": 84
    },
    {
      "midi": 77,
      "hit": false,
      "t": 85838.59199999987,
      "d": 620.4320000000007,
      "v": 120
    },
    {
      "midi": 74,
      "hit": false,
      "t": 85838.59199999987,
      "d": 182.47999999999593,
      "v": 120
    },
    {
      "midi": 77,
      "hit": false,
      "t": 85948.07999999987,
      "d": 620.4320000000007,
      "v": 120
    },
    {
      "midi": 42,
      "hit": false,
      "t": 86057.56799999984,
      "d": 9.123999999996158,
      "v": 70
    },
    {
      "midi": 77,
      "hit": false,
      "t": 86057.56799999987,
      "d": 620.4320000000007,
      "v": 120
    },
    {
      "midi": 44,
      "hit": false,
      "t": 86057.56800000006,
      "d": 273.72000000000116,
      "v": 110
    },
    {
      "midi": 42,
      "hit": false,
      "t": 86276.54399999983,
      "d": 9.123999999996158,
      "v": 98
    },
    {
      "midi": 38,
      "hit": false,
      "t": 86276.54399999983,
      "d": 9.123999999996158,
      "v": 84
    },
    {
      "midi": 42,
      "hit": false,
      "t": 86495.51999999983,
      "d": 9.123999999996158,
      "v": 70
    },
    {
      "midi": 36,
      "hit": false,
      "t": 86495.51999999983,
      "d": 9.123999999996158,
      "v": 84
    },
    {
      "midi": 76,
      "hit": false,
      "t": 86495.51999999987,
      "d": 182.47999999999593,
      "v": 120
    },
    {
      "midi": 32,
      "hit": false,
      "t": 86495.52000000006,
      "d": 273.72000000000116,
      "v": 110
    },
    {
      "midi": 76,
      "hit": false,
      "t": 86605.00799999987,
      "d": 182.47999999999593,
      "v": 120
    },
    {
      "midi": 42,
      "hit": false,
      "t": 86714.49599999982,
      "d": 9.123999999996158,
      "v": 98
    },
    {
      "midi": 76,
      "hit": false,
      "t": 86714.49599999987,
      "d": 182.47999999999593,
      "v": 120
    },
    {
      "midi": 76,
      "hit": false,
      "t": 86714.49599999987,
      "d": 182.47999999999593,
      "v": 120
    },
    {
      "midi": 76,
      "hit": false,
      "t": 86823.98399999987,
      "d": 182.47999999999593,
      "v": 120
    },
    {
      "midi": 42,
      "hit": false,
      "t": 86933.47199999982,
      "d": 9.123999999996158,
      "v": 70
    },
    {
      "midi": 36,
      "hit": false,
      "t": 86933.47199999982,
      "d": 9.123999999996158,
      "v": 84
    },
    {
      "midi": 76,
      "hit": false,
      "t": 86933.47199999986,
      "d": 182.47999999999593,
      "v": 120
    },
    {
      "midi": 42,
      "hit": false,
      "t": 87152.44799999981,
      "d": 9.123999999996158,
      "v": 98
    },
    {
      "midi": 38,
      "hit": false,
      "t": 87152.44799999981,
      "d": 9.123999999996158,
      "v": 84
    },
    {
      "midi": 42,
      "hit": false,
      "t": 87371.42399999981,
      "d": 9.123999999996158,
      "v": 70
    },
    {
      "midi": 76,
      "hit": false,
      "t": 87371.42399999987,
      "d": 182.47999999999593,
      "v": 120
    },
    {
      "midi": 76,
      "hit": false,
      "t": 87480.91199999987,
      "d": 182.47999999999593,
      "v": 120
    },
    {
      "midi": 42,
      "hit": false,
      "t": 87590.3999999998,
      "d": 9.123999999996158,
      "v": 98
    },
    {
      "midi": 36,
      "hit": false,
      "t": 87590.3999999998,
      "d": 9.123999999996158,
      "v": 84
    },
    {
      "midi": 64,
      "hit": false,
      "t": 87590.39999999983,
      "d": 1523.7079999999987,
      "v": 60
    },
    {
      "midi": 60,
      "hit": false,
      "t": 87590.39999999983,
      "d": 1523.7079999999987,
      "v": 60
    },
    {
      "midi": 79,
      "hit": false,
      "t": 87590.39999999986,
      "d": 401.4560000000056,
      "v": 120
    },
    {
      "midi": 76,
      "hit": false,
      "t": 87590.39999999986,
      "d": 182.47999999999593,
      "v": 120
    },
    {
      "midi": 33,
      "hit": false,
      "t": 87590.40000000007,
      "d": 629.5559999999969,
      "v": 110
    },
    {
      "midi": 79,
      "hit": false,
      "t": 87699.88799999986,
      "d": 401.4560000000056,
      "v": 120
    },
    {
      "midi": 42,
      "hit": false,
      "t": 87809.3759999998,
      "d": 9.123999999996158,
      "v": 70
    },
    {
      "midi": 79,
      "hit": false,
      "t": 87809.37599999986,
      "d": 401.4560000000056,
      "v": 120
    },
    {
      "midi": 42,
      "hit": false,
      "t": 88028.3519999998,
      "d": 9.123999999996158,
      "v": 98
    },
    {
      "midi": 38,
      "hit": false,
      "t": 88028.3519999998,
      "d": 9.123999999996158,
      "v": 84
    },
    {
      "midi": 81,
      "hit": false,
      "t": 88028.35199999987,
      "d": 182.47999999999593,
      "v": 120
    },
    {
      "midi": 81,
      "hit": false,
      "t": 88137.83999999987,
      "d": 182.47999999999593,
      "v": 120
    },
    {
      "midi": 42,
      "hit": false,
      "t": 88247.32799999979,
      "d": 9.123999999996158,
      "v": 70
    },
    {
      "midi": 36,
      "hit": false,
      "t": 88247.32799999979,
      "d": 9.123999999996158,
      "v": 84
    },
    {
      "midi": 76,
      "hit": false,
      "t": 88247.32799999986,
      "d": 182.47999999999593,
      "v": 120
    },
    {
      "midi": 81,
      "hit": false,
      "t": 88247.32799999986,
      "d": 182.47999999999593,
      "v": 120
    },
    {
      "midi": 33,
      "hit": false,
      "t": 88247.32800000007,
      "d": 209.85199999999895,
      "v": 110
    },
    {
      "midi": 76,
      "hit": false,
      "t": 88356.81599999986,
      "d": 182.47999999999593,
      "v": 120
    },
    {
      "midi": 42,
      "hit": false,
      "t": 88466.30399999979,
      "d": 9.123999999996158,
      "v": 98
    },
    {
      "midi": 76,
      "hit": false,
      "t": 88466.30399999986,
      "d": 182.47999999999593,
      "v": 120
    },
    {
      "midi": 42,
      "hit": false,
      "t": 88685.27999999978,
      "d": 9.123999999996158,
      "v": 70
    },
    {
      "midi": 36,
      "hit": false,
      "t": 88685.27999999978,
      "d": 9.123999999996158,
      "v": 84
    },
    {
      "midi": 40,
      "hit": false,
      "t": 88685.28000000007,
      "d": 209.85199999999895,
      "v": 110
    },
    {
      "midi": 42,
      "hit": false,
      "t": 88904.25599999978,
      "d": 9.123999999996158,
      "v": 98
    },
    {
      "midi": 38,
      "hit": false,
      "t": 88904.25599999978,
      "d": 9.123999999996158,
      "v": 84
    },
    {
      "midi": 76,
      "hit": false,
      "t": 88904.25599999986,
      "d": 182.47999999999593,
      "v": 120
    },
    {
      "midi": 39,
      "hit": false,
      "t": 88904.25600000007,
      "d": 209.85199999999895,
      "v": 110
    },
    {
      "midi": 76,
      "hit": false,
      "t": 89013.74399999986,
      "d": 182.47999999999593,
      "v": 120
    },
    {
      "midi": 42,
      "hit": false,
      "t": 89123.23199999977,
      "d": 9.123999999996158,
      "v": 70
    },
    {
      "midi": 36,
      "hit": false,
      "t": 89123.23199999977,
      "d": 9.123999999996158,
      "v": 84
    },
    {
      "midi": 62,
      "hit": false,
      "t": 89123.23199999983,
      "d": 1742.6839999999938,
      "v": 60
    },
    {
      "midi": 57,
      "hit": false,
      "t": 89123.23199999983,
      "d": 1742.6839999999938,
      "v": 60
    },
    {
      "midi": 74,
      "hit": false,
      "t": 89123.23199999986,
      "d": 401.4560000000056,
      "v": 120
    },
    {
      "midi": 76,
      "hit": false,
      "t": 89123.23199999986,
      "d": 182.47999999999593,
      "v": 120
    },
    {
      "midi": 38,
      "hit": false,
      "t": 89123.23200000006,
      "d": 273.72000000000116,
      "v": 110
    },
    {
      "midi": 74,
      "hit": false,
      "t": 89232.71999999986,
      "d": 401.4560000000056,
      "v": 120
    },
    {
      "midi": 42,
      "hit": false,
      "t": 89342.20799999977,
      "d": 9.123999999996158,
      "v": 98
    },
    {
      "midi": 74,
      "hit": false,
      "t": 89342.20799999985,
      "d": 401.4560000000056,
      "v": 120
    },
    {
      "midi": 42,
      "hit": false,
      "t": 89561.18399999976,
      "d": 9.123999999996158,
      "v": 70
    },
    {
      "midi": 72,
      "hit": false,
      "t": 89561.18399999986,
      "d": 182.47999999999593,
      "v": 120
    },
    {
      "midi": 50,
      "hit": false,
      "t": 89561.18400000007,
      "d": 273.72000000000116,
      "v": 110
    },
    {
      "midi": 72,
      "hit": false,
      "t": 89670.67199999986,
      "d": 182.47999999999593,
      "v": 120
    },
    {
      "midi": 42,
      "hit": false,
      "t": 89780.15999999976,
      "d": 9.123999999996158,
      "v": 98
    },
    {
      "midi": 38,
      "hit": false,
      "t": 89780.15999999976,
      "d": 9.123999999996158,
      "v": 84
    },
    {
      "midi": 76,
      "hit": false,
      "t": 89780.15999999986,
      "d": 182.47999999999593,
      "v": 120
    },
    {
      "midi": 72,
      "hit": false,
      "t": 89780.15999999986,
      "d": 182.47999999999593,
      "v": 120
    },
    {
      "midi": 76,
      "hit": false,
      "t": 89889.64799999986,
      "d": 182.47999999999593,
      "v": 120
    },
    {
      "midi": 42,
      "hit": false,
      "t": 89999.13599999975,
      "d": 9.123999999996158,
      "v": 70
    },
    {
      "midi": 36,
      "hit": false,
      "t": 89999.13599999975,
      "d": 9.123999999996158,
      "v": 84
    },
    {
      "midi": 74,
      "hit": false,
      "t": 89999.13599999985,
      "d": 401.4560000000056,
      "v": 120
    },
    {
      "midi": 76,
      "hit": false,
      "t": 89999.13599999985,
      "d": 182.47999999999593,
      "v": 120
    },
    {
      "midi": 38,
      "hit": false,
      "t": 89999.13600000007,
      "d": 273.72000000000116,
      "v": 110
    },
    {
      "midi": 74,
      "hit": false,
      "t": 90108.62399999985,
      "d": 401.4560000000056,
      "v": 120
    },
    {
      "midi": 42,
      "hit": false,
      "t": 90218.11199999975,
      "d": 9.123999999996158,
      "v": 98
    },
    {
      "midi": 38,
      "hit": false,
      "t": 90218.11199999975,
      "d": 9.123999999996158,
      "v": 84
    },
    {
      "midi": 74,
      "hit": false,
      "t": 90218.11199999985,
      "d": 401.4560000000056,
      "v": 120
    },
    {
      "midi": 48,
      "hit": false,
      "t": 90437.08799999974,
      "d": 9.123999999996158,
      "v": 84
    },
    {
      "midi": 72,
      "hit": false,
      "t": 90437.08799999986,
      "d": 182.47999999999593,
      "v": 120
    },
    {
      "midi": 48,
      "hit": false,
      "t": 90437.08800000028,
      "d": 9.123999999996158,
      "v": 42
    },
    {
      "midi": 72,
      "hit": false,
      "t": 90546.57599999986,
      "d": 182.47999999999593,
      "v": 120
    },
    {
      "midi": 41,
      "hit": false,
      "t": 90656.06399999974,
      "d": 9.123999999996158,
      "v": 84
    },
    {
      "midi": 76,
      "hit": false,
      "t": 90656.06399999985,
      "d": 182.47999999999593,
      "v": 120
    },
    {
      "midi": 72,
      "hit": false,
      "t": 90656.06399999985,
      "d": 182.47999999999593,
      "v": 120
    },
    {
      "midi": 41,
      "hit": false,
      "t": 90656.06400000027,
      "d": 9.123999999996158,
      "v": 42
    },
    {
      "midi": 76,
      "hit": false,
      "t": 90765.55199999985,
      "d": 182.47999999999593,
      "v": 120
    },
    {
      "midi": 49,
      "hit": false,
      "t": 90875.03999999973,
      "d": 9.123999999996158,
      "v": 84
    },
    {
      "midi": 36,
      "hit": false,
      "t": 90875.03999999973,
      "d": 9.123999999996158,
      "v": 84
    },
    {
      "midi": 62,
      "hit": false,
      "t": 90875.03999999982,
      "d": 1961.6600000000035,
      "v": 60
    },
    {
      "midi": 57,
      "hit": false,
      "t": 90875.03999999982,
      "d": 1961.6600000000035,
      "v": 60
    },
    {
      "midi": 74,
      "hit": false,
      "t": 90875.03999999985,
      "d": 401.4560000000056,
      "v": 120
    },
    {
      "midi": 76,
      "hit": false,
      "t": 90875.03999999985,
      "d": 182.47999999999593,
      "v": 120
    },
    {
      "midi": 38,
      "hit": false,
      "t": 90875.04000000007,
      "d": 848.5320000000065,
      "v": 110
    },
    {
      "midi": 74,
      "hit": false,
      "t": 90984.52799999985,
      "d": 401.4560000000056,
      "v": 120
    },
    {
      "midi": 42,
      "hit": false,
      "t": 91094.01599999973,
      "d": 9.123999999996158,
      "v": 98
    },
    {
      "midi": 74,
      "hit": false,
      "t": 91094.01599999984,
      "d": 401.4560000000056,
      "v": 120
    },
    {
      "midi": 42,
      "hit": false,
      "t": 91312.99199999972,
      "d": 9.123999999996158,
      "v": 70
    },
    {
      "midi": 42,
      "hit": false,
      "t": 91531.96799999972,
      "d": 9.123999999996158,
      "v": 98
    },
    {
      "midi": 38,
      "hit": false,
      "t": 91531.96799999972,
      "d": 9.123999999996158,
      "v": 84
    },
    {
      "midi": 42,
      "hit": false,
      "t": 91750.94399999971,
      "d": 9.123999999996158,
      "v": 70
    },
    {
      "midi": 38,
      "hit": false,
      "t": 91750.94400000008,
      "d": 209.85199999999895,
      "v": 110
    },
    {
      "midi": 42,
      "hit": false,
      "t": 91969.9199999997,
      "d": 9.123999999996158,
      "v": 98
    },
    {
      "midi": 36,
      "hit": false,
      "t": 91969.9199999997,
      "d": 9.123999999996158,
      "v": 84
    },
    {
      "midi": 42,
      "hit": false,
      "t": 92188.8959999997,
      "d": 9.123999999996158,
      "v": 70
    },
    {
      "midi": 74,
      "hit": false,
      "t": 92188.89599999985,
      "d": 182.47999999999593,
      "v": 120
    },
    {
      "midi": 33,
      "hit": false,
      "t": 92188.89600000008,
      "d": 209.85199999999895,
      "v": 110
    },
    {
      "midi": 74,
      "hit": false,
      "t": 92298.38399999985,
      "d": 182.47999999999593,
      "v": 120
    },
    {
      "midi": 42,
      "hit": false,
      "t": 92407.8719999997,
      "d": 9.123999999996158,
      "v": 98
    },
    {
      "midi": 38,
      "hit": false,
      "t": 92407.8719999997,
      "d": 9.123999999996158,
      "v": 84
    },
    {
      "midi": 74,
      "hit": false,
      "t": 92407.87199999984,
      "d": 182.47999999999593,
      "v": 120
    },
    {
      "midi": 74,
      "hit": false,
      "t": 92407.87199999984,
      "d": 182.47999999999593,
      "v": 120
    },
    {
      "midi": 38,
      "hit": false,
      "t": 92407.87200000008,
      "d": 364.9600000000064,
      "v": 110
    },
    {
      "midi": 74,
      "hit": false,
      "t": 92517.35999999984,
      "d": 182.47999999999593,
      "v": 120
    },
    {
      "midi": 42,
      "hit": false,
      "t": 92626.84799999969,
      "d": 9.123999999996158,
      "v": 70
    },
    {
      "midi": 74,
      "hit": false,
      "t": 92626.84799999984,
      "d": 182.47999999999593,
      "v": 120
    },
    {
      "midi": 74,
      "hit": false,
      "t": 92626.84799999984,
      "d": 182.47999999999593,
      "v": 120
    },
    {
      "midi": 74,
      "hit": false,
      "t": 92736.33599999984,
      "d": 182.47999999999593,
      "v": 120
    },
    {
      "midi": 42,
      "hit": false,
      "t": 92845.82399999969,
      "d": 9.123999999996158,
      "v": 98
    },
    {
      "midi": 36,
      "hit": false,
      "t": 92845.82399999969,
      "d": 9.123999999996158,
      "v": 84
    },
    {
      "midi": 64,
      "hit": false,
      "t": 92845.82399999982,
      "d": 647.8040000000037,
      "v": 60
    },
    {
      "midi": 59,
      "hit": false,
      "t": 92845.82399999982,
      "d": 647.8040000000037,
      "v": 60
    },
    {
      "midi": 76,
      "hit": false,
      "t": 92845.82399999983,
      "d": 182.47999999999593,
      "v": 120
    },
    {
      "midi": 74,
      "hit": false,
      "t": 92845.82399999983,
      "d": 182.47999999999593,
      "v": 120
    },
    {
      "midi": 40,
      "hit": false,
      "t": 92845.82400000008,
      "d": 647.8040000000037,
      "v": 110
    },
    {
      "midi": 76,
      "hit": false,
      "t": 92955.31199999983,
      "d": 182.47999999999593,
      "v": 120
    },
    {
      "midi": 42,
      "hit": false,
      "t": 93064.79999999968,
      "d": 9.123999999996158,
      "v": 70
    },
    {
      "midi": 74,
      "hit": false,
      "t": 93064.79999999983,
      "d": 182.47999999999593,
      "v": 120
    },
    {
      "midi": 76,
      "hit": false,
      "t": 93064.79999999983,
      "d": 182.47999999999593,
      "v": 120
    },
    {
      "midi": 74,
      "hit": false,
      "t": 93174.28799999983,
      "d": 182.47999999999593,
      "v": 120
    },
    {
      "midi": 42,
      "hit": false,
      "t": 93283.77599999968,
      "d": 9.123999999996158,
      "v": 98
    },
    {
      "midi": 38,
      "hit": false,
      "t": 93283.77599999968,
      "d": 9.123999999996158,
      "v": 84
    },
    {
      "midi": 72,
      "hit": false,
      "t": 93283.77599999982,
      "d": 182.47999999999593,
      "v": 120
    },
    {
      "midi": 74,
      "hit": false,
      "t": 93283.77599999982,
      "d": 182.47999999999593,
      "v": 120
    },
    {
      "midi": 72,
      "hit": false,
      "t": 93393.26399999982,
      "d": 182.47999999999593,
      "v": 120
    },
    {
      "midi": 42,
      "hit": false,
      "t": 93502.75199999967,
      "d": 9.123999999996158,
      "v": 70
    },
    {
      "midi": 36,
      "hit": false,
      "t": 93502.75199999967,
      "d": 9.123999999996158,
      "v": 84
    },
    {
      "midi": 76,
      "hit": false,
      "t": 93502.75199999982,
      "d": 401.4560000000056,
      "v": 120
    },
    {
      "midi": 72,
      "hit": false,
      "t": 93502.75199999982,
      "d": 182.47999999999593,
      "v": 120
    },
    {
      "midi": 62,
      "hit": false,
      "t": 93502.75199999982,
      "d": 2837.5639999999985,
      "v": 60
    },
    {
      "midi": 56,
      "hit": false,
      "t": 93502.75199999982,
      "d": 2837.5639999999985,
      "v": 60
    },
    {
      "midi": 28,
      "hit": false,
      "t": 93502.75200000008,
      "d": 1085.755999999994,
      "v": 110
    },
    {
      "midi": 76,
      "hit": false,
      "t": 93612.23999999982,
      "d": 401.4560000000056,
      "v": 120
    },
    {
      "midi": 42,
      "hit": false,
      "t": 93721.72799999967,
      "d": 9.123999999996158,
      "v": 98
    },
    {
      "midi": 76,
      "hit": false,
      "t": 93721.72799999981,
      "d": 401.4560000000056,
      "v": 120
    },
    {
      "midi": 42,
      "hit": false,
      "t": 93940.70399999966,
      "d": 9.123999999996158,
      "v": 70
    },
    {
      "midi": 74,
      "hit": false,
      "t": 93940.70399999982,
      "d": 182.47999999999593,
      "v": 120
    },
    {
      "midi": 74,
      "hit": false,
      "t": 94050.19199999982,
      "d": 182.47999999999593,
      "v": 120
    },
    {
      "midi": 42,
      "hit": false,
      "t": 94159.67999999966,
      "d": 9.123999999996158,
      "v": 98
    },
    {
      "midi": 38,
      "hit": false,
      "t": 94159.67999999966,
      "d": 9.123999999996158,
      "v": 84
    },
    {
      "midi": 76,
      "hit": false,
      "t": 94159.67999999982,
      "d": 401.4560000000056,
      "v": 120
    },
    {
      "midi": 74,
      "hit": false,
      "t": 94159.67999999982,
      "d": 182.47999999999593,
      "v": 120
    },
    {
      "midi": 76,
      "hit": false,
      "t": 94269.16799999982,
      "d": 401.4560000000056,
      "v": 120
    },
    {
      "midi": 42,
      "hit": false,
      "t": 94378.65599999965,
      "d": 9.123999999996158,
      "v": 70
    },
    {
      "midi": 76,
      "hit": false,
      "t": 94378.65599999981,
      "d": 401.4560000000056,
      "v": 120
    },
    {
      "midi": 42,
      "hit": false,
      "t": 94597.63199999965,
      "d": 9.123999999996158,
      "v": 98
    },
    {
      "midi": 38,
      "hit": false,
      "t": 94597.63199999965,
      "d": 9.123999999996158,
      "v": 84
    },
    {
      "midi": 49,
      "hit": false,
      "t": 94816.60799999964,
      "d": 9.123999999996158,
      "v": 84
    },
    {
      "midi": 36,
      "hit": false,
      "t": 94816.60799999964,
      "d": 9.123999999996158,
      "v": 84
    },
    {
      "midi": 40,
      "hit": false,
      "t": 94816.60800000008,
      "d": 647.8040000000037,
      "v": 110
    },
    {
      "midi": 38,
      "hit": false,
      "t": 95473.53599999964,
      "d": 9.123999999996158,
      "v": 84
    },
    {
      "midi": 28,
      "hit": false,
      "t": 95473.53600000008,
      "d": 209.85199999999895,
      "v": 110
    },
    {
      "midi": 49,
      "hit": false,
      "t": 95911.48799999963,
      "d": 9.123999999996158,
      "v": 84
    },
    {
      "midi": 36,
      "hit": false,
      "t": 95911.48799999963,
      "d": 9.123999999996158,
      "v": 84
    },
    {
      "midi": 28,
      "hit": false,
      "t": 95911.48800000008,
      "d": 364.9600000000064,
      "v": 110
    },
    {
      "midi": 69,
      "hit": false,
      "t": 96322.068,
      "d": 1751.8080000000045,
      "v": 50
    },
    {
      "midi": 64,
      "hit": false,
      "t": 96322.068,
      "d": 1751.8080000000045,
      "v": 50
    },
    {
      "midi": 60,
      "hit": false,
      "t": 96322.068,
      "d": 1751.8080000000045,
      "v": 50
    },
    {
      "midi": 49,
      "hit": false,
      "t": 96349.43999999962,
      "d": 9.123999999996158,
      "v": 70
    },
    {
      "midi": 36,
      "hit": false,
      "t": 96349.43999999962,
      "d": 9.123999999996158,
      "v": 84
    },
    {
      "midi": 29,
      "hit": false,
      "t": 96349.44000000009,
      "d": 647.8039999999601,
      "v": 110
    },
    {
      "midi": 79,
      "hit": false,
      "t": 96568.41600000001,
      "d": 209.85199999999895,
      "v": 60
    },
    {
      "midi": 46,
      "hit": false,
      "t": 96787.39199999961,
      "d": 9.123999999996158,
      "v": 70
    },
    {
      "midi": 81,
      "hit": false,
      "t": 96787.392,
      "d": 209.85199999999895,
      "v": 60
    },
    {
      "midi": 48,
      "hit": false,
      "t": 97006.36799999961,
      "d": 9.123999999996158,
      "v": 84
    },
    {
      "midi": 88,
      "hit": false,
      "t": 97006.368,
      "d": 428.82799999999406,
      "v": 60
    },
    {
      "midi": 43,
      "hit": false,
      "t": 97006.36800000005,
      "d": 1085.755999999994,
      "v": 110
    },
    {
      "midi": 48,
      "hit": false,
      "t": 97006.36800000028,
      "d": 9.123999999996158,
      "v": 42
    },
    {
      "midi": 46,
      "hit": false,
      "t": 97225.3439999996,
      "d": 9.123999999996158,
      "v": 70
    },
    {
      "midi": 41,
      "hit": false,
      "t": 97225.3439999996,
      "d": 9.123999999996158,
      "v": 84
    },
    {
      "midi": 41,
      "hit": false,
      "t": 97225.34400000027,
      "d": 9.123999999996158,
      "v": 42
    },
    {
      "midi": 79,
      "hit": false,
      "t": 97444.31999999999,
      "d": 209.85199999999895,
      "v": 60
    },
    {
      "midi": 46,
      "hit": false,
      "t": 97663.2959999996,
      "d": 9.123999999996158,
      "v": 70
    },
    {
      "midi": 38,
      "hit": false,
      "t": 97663.2959999996,
      "d": 9.123999999996158,
      "v": 84
    },
    {
      "midi": 81,
      "hit": false,
      "t": 97663.29599999999,
      "d": 209.85199999999895,
      "v": 60
    },
    {
      "midi": 76,
      "hit": false,
      "t": 97882.27199999982,
      "d": 182.47999999999593,
      "v": 120
    },
    {
      "midi": 88,
      "hit": false,
      "t": 97882.27199999998,
      "d": 428.82799999999406,
      "v": 60
    },
    {
      "midi": 76,
      "hit": false,
      "t": 97991.75999999982,
      "d": 182.47999999999593,
      "v": 120
    },
    {
      "midi": 67,
      "hit": false,
      "t": 98073.876,
      "d": 1751.8080000000045,
      "v": 50
    },
    {
      "midi": 64,
      "hit": false,
      "t": 98073.876,
      "d": 1751.8080000000045,
      "v": 50
    },
    {
      "midi": 59,
      "hit": false,
      "t": 98073.876,
      "d": 1751.8080000000045,
      "v": 50
    },
    {
      "midi": 46,
      "hit": false,
      "t": 98101.24799999958,
      "d": 9.123999999996158,
      "v": 70
    },
    {
      "midi": 36,
      "hit": false,
      "t": 98101.24799999958,
      "d": 9.123999999996158,
      "v": 84
    },
    {
      "midi": 79,
      "hit": false,
      "t": 98101.24799999982,
      "d": 401.4560000000056,
      "v": 120
    },
    {
      "midi": 76,
      "hit": false,
      "t": 98101.24799999982,
      "d": 182.47999999999593,
      "v": 120
    },
    {
      "midi": 36,
      "hit": false,
      "t": 98101.24800000004,
      "d": 364.9600000000064,
      "v": 110
    },
    {
      "midi": 79,
      "hit": false,
      "t": 98210.73599999982,
      "d": 401.4560000000056,
      "v": 120
    },
    {
      "midi": 79,
      "hit": false,
      "t": 98320.22399999981,
      "d": 401.4560000000056,
      "v": 120
    },
    {
      "midi": 83,
      "hit": false,
      "t": 98320.22399999997,
      "d": 209.85199999999895,
      "v": 60
    },
    {
      "midi": 46,
      "hit": false,
      "t": 98539.19999999958,
      "d": 9.123999999996158,
      "v": 70
    },
    {
      "midi": 81,
      "hit": false,
      "t": 98539.19999999982,
      "d": 182.47999999999593,
      "v": 120
    },
    {
      "midi": 84,
      "hit": false,
      "t": 98539.19999999997,
      "d": 209.85199999999895,
      "v": 60
    },
    {
      "midi": 81,
      "hit": false,
      "t": 98648.68799999982,
      "d": 182.47999999999593,
      "v": 120
    },
    {
      "midi": 36,
      "hit": false,
      "t": 98758.17599999957,
      "d": 9.123999999996158,
      "v": 84
    },
    {
      "midi": 76,
      "hit": false,
      "t": 98758.17599999982,
      "d": 839.4079999999958,
      "v": 120
    },
    {
      "midi": 81,
      "hit": false,
      "t": 98758.17599999982,
      "d": 182.47999999999593,
      "v": 120
    },
    {
      "midi": 91,
      "hit": false,
      "t": 98758.17599999996,
      "d": 428.82799999999406,
      "v": 60
    },
    {
      "midi": 36,
      "hit": false,
      "t": 98758.17600000004,
      "d": 1085.755999999994,
      "v": 110
    },
    {
      "midi": 76,
      "hit": false,
      "t": 98867.66399999982,
      "d": 839.4079999999958,
      "v": 120
    },
    {
      "midi": 46,
      "hit": false,
      "t": 98977.15199999957,
      "d": 9.123999999996158,
      "v": 70
    },
    {
      "midi": 76,
      "hit": false,
      "t": 98977.15199999981,
      "d": 839.4079999999958,
      "v": 120
    },
    {
      "midi": 83,
      "hit": false,
      "t": 99196.12799999995,
      "d": 209.85199999999895,
      "v": 60
    },
    {
      "midi": 46,
      "hit": false,
      "t": 99415.10399999956,
      "d": 9.123999999996158,
      "v": 70
    },
    {
      "midi": 38,
      "hit": false,
      "t": 99415.10399999956,
      "d": 9.123999999996158,
      "v": 84
    },
    {
      "midi": 84,
      "hit": false,
      "t": 99415.10399999995,
      "d": 209.85199999999895,
      "v": 60
    },
    {
      "midi": 91,
      "hit": false,
      "t": 99634.07999999994,
      "d": 428.82799999999406,
      "v": 60
    },
    {
      "midi": 69,
      "hit": false,
      "t": 99825.68400000001,
      "d": 1751.8080000000045,
      "v": 50
    },
    {
      "midi": 64,
      "hit": false,
      "t": 99825.68400000001,
      "d": 1751.8080000000045,
      "v": 50
    },
    {
      "midi": 60,
      "hit": false,
      "t": 99825.68400000001,
      "d": 1751.8080000000045,
      "v": 50
    },
    {
      "midi": 46,
      "hit": false,
      "t": 99853.05599999955,
      "d": 9.123999999996158,
      "v": 70
    },
    {
      "midi": 36,
      "hit": false,
      "t": 99853.05599999955,
      "d": 9.123999999996158,
      "v": 84
    },
    {
      "midi": 29,
      "hit": false,
      "t": 99853.05600000003,
      "d": 647.8039999999601,
      "v": 110
    },
    {
      "midi": 79,
      "hit": false,
      "t": 100072.03199999993,
      "d": 209.85199999999895,
      "v": 60
    },
    {
      "midi": 46,
      "hit": false,
      "t": 100291.00799999954,
      "d": 9.123999999996158,
      "v": 70
    },
    {
      "midi": 81,
      "hit": false,
      "t": 100291.00799999993,
      "d": 209.85199999999895,
      "v": 60
    },
    {
      "midi": 48,
      "hit": false,
      "t": 100509.98399999953,
      "d": 9.123999999996158,
      "v": 84
    },
    {
      "midi": 88,
      "hit": false,
      "t": 100509.98399999992,
      "d": 428.82799999999406,
      "v": 60
    },
    {
      "midi": 43,
      "hit": false,
      "t": 100509.98399999998,
      "d": 1085.7559999999648,
      "v": 110
    },
    {
      "midi": 48,
      "hit": false,
      "t": 100509.98400000027,
      "d": 9.123999999996158,
      "v": 42
    },
    {
      "midi": 46,
      "hit": false,
      "t": 100728.95999999953,
      "d": 9.123999999996158,
      "v": 70
    },
    {
      "midi": 41,
      "hit": false,
      "t": 100728.95999999953,
      "d": 9.123999999996158,
      "v": 84
    },
    {
      "midi": 41,
      "hit": false,
      "t": 100728.96000000027,
      "d": 9.123999999996158,
      "v": 42
    },
    {
      "midi": 79,
      "hit": false,
      "t": 100947.93599999991,
      "d": 209.85199999999895,
      "v": 60
    },
    {
      "midi": 46,
      "hit": false,
      "t": 101166.91199999952,
      "d": 9.123999999996158,
      "v": 70
    },
    {
      "midi": 38,
      "hit": false,
      "t": 101166.91199999952,
      "d": 9.123999999996158,
      "v": 84
    },
    {
      "midi": 81,
      "hit": false,
      "t": 101166.91199999991,
      "d": 209.85199999999895,
      "v": 60
    },
    {
      "midi": 88,
      "hit": false,
      "t": 101385.8879999999,
      "d": 428.82799999999406,
      "v": 60
    },
    {
      "midi": 71,
      "hit": false,
      "t": 101577.49200000001,
      "d": 1751.8080000000045,
      "v": 50
    },
    {
      "midi": 64,
      "hit": false,
      "t": 101577.49200000001,
      "d": 1751.8080000000045,
      "v": 50
    },
    {
      "midi": 59,
      "hit": false,
      "t": 101577.49200000001,
      "d": 1751.8080000000045,
      "v": 50
    },
    {
      "midi": 46,
      "hit": false,
      "t": 101604.8639999995,
      "d": 9.123999999996158,
      "v": 70
    },
    {
      "midi": 36,
      "hit": false,
      "t": 101604.8639999995,
      "d": 9.123999999996158,
      "v": 84
    },
    {
      "midi": 79,
      "hit": false,
      "t": 101604.86399999981,
      "d": 401.4560000000056,
      "v": 120
    },
    {
      "midi": 47,
      "hit": false,
      "t": 101604.86399999994,
      "d": 647.8039999999019,
      "v": 110
    },
    {
      "midi": 79,
      "hit": false,
      "t": 101714.35199999981,
      "d": 401.4560000000056,
      "v": 120
    },
    {
      "midi": 79,
      "hit": false,
      "t": 101823.83999999981,
      "d": 401.4560000000056,
      "v": 120
    },
    {
      "midi": 83,
      "hit": false,
      "t": 101823.8399999999,
      "d": 209.85199999999895,
      "v": 60
    },
    {
      "midi": 46,
      "hit": false,
      "t": 102042.8159999995,
      "d": 9.123999999996158,
      "v": 70
    },
    {
      "midi": 77,
      "hit": false,
      "t": 102042.81599999982,
      "d": 182.47999999999593,
      "v": 120
    },
    {
      "midi": 84,
      "hit": false,
      "t": 102042.81599999989,
      "d": 209.85199999999895,
      "v": 60
    },
    {
      "midi": 77,
      "hit": false,
      "t": 102152.30399999981,
      "d": 182.47999999999593,
      "v": 120
    },
    {
      "midi": 36,
      "hit": false,
      "t": 102261.79199999949,
      "d": 9.123999999996158,
      "v": 84
    },
    {
      "midi": 76,
      "hit": false,
      "t": 102261.79199999981,
      "d": 401.4560000000056,
      "v": 120
    },
    {
      "midi": 77,
      "hit": false,
      "t": 102261.79199999981,
      "d": 182.47999999999593,
      "v": 120
    },
    {
      "midi": 36,
      "hit": false,
      "t": 102261.79199999984,
      "d": 1085.755999999994,
      "v": 110
    },
    {
      "midi": 91,
      "hit": false,
      "t": 102261.79199999988,
      "d": 428.82799999999406,
      "v": 60
    },
    {
      "midi": 76,
      "hit": false,
      "t": 102371.27999999981,
      "d": 401.4560000000056,
      "v": 120
    },
    {
      "midi": 46,
      "hit": false,
      "t": 102480.76799999949,
      "d": 9.123999999996158,
      "v": 70
    },
    {
      "midi": 76,
      "hit": false,
      "t": 102480.7679999998,
      "d": 401.4560000000056,
      "v": 120
    },
    {
      "midi": 76,
      "hit": false,
      "t": 102699.74399999982,
      "d": 182.47999999999593,
      "v": 120
    },
    {
      "midi": 83,
      "hit": false,
      "t": 102699.74399999988,
      "d": 209.85199999999895,
      "v": 60
    },
    {
      "midi": 76,
      "hit": false,
      "t": 102809.23199999981,
      "d": 182.47999999999593,
      "v": 120
    },
    {
      "midi": 46,
      "hit": false,
      "t": 102918.71999999948,
      "d": 9.123999999996158,
      "v": 70
    },
    {
      "midi": 38,
      "hit": false,
      "t": 102918.71999999948,
      "d": 9.123999999996158,
      "v": 84
    },
    {
      "midi": 74,
      "hit": false,
      "t": 102918.71999999981,
      "d": 182.47999999999593,
      "v": 120
    },
    {
      "midi": 76,
      "hit": false,
      "t": 102918.71999999981,
      "d": 182.47999999999593,
      "v": 120
    },
    {
      "midi": 84,
      "hit": false,
      "t": 102918.71999999987,
      "d": 209.85199999999895,
      "v": 60
    },
    {
      "midi": 74,
      "hit": false,
      "t": 103028.20799999981,
      "d": 182.47999999999593,
      "v": 120
    },
    {
      "midi": 72,
      "hit": false,
      "t": 103137.6959999998,
      "d": 182.47999999999593,
      "v": 120
    },
    {
      "midi": 74,
      "hit": false,
      "t": 103137.6959999998,
      "d": 182.47999999999593,
      "v": 120
    },
    {
      "midi": 91,
      "hit": false,
      "t": 103137.69599999987,
      "d": 428.82799999999406,
      "v": 60
    },
    {
      "midi": 72,
      "hit": false,
      "t": 103247.1839999998,
      "d": 182.47999999999593,
      "v": 120
    },
    {
      "midi": 69,
      "hit": false,
      "t": 103329.30000000002,
      "d": 1751.8080000000045,
      "v": 50
    },
    {
      "midi": 65,
      "hit": false,
      "t": 103329.30000000002,
      "d": 1751.8080000000045,
      "v": 50
    },
    {
      "midi": 71,
      "hit": false,
      "t": 103329.30000000002,
      "d": 1751.8080000000045,
      "v": 50
    },
    {
      "midi": 46,
      "hit": false,
      "t": 103356.67199999947,
      "d": 9.123999999996158,
      "v": 70
    },
    {
      "midi": 36,
      "hit": false,
      "t": 103356.67199999947,
      "d": 9.123999999996158,
      "v": 84
    },
    {
      "midi": 74,
      "hit": false,
      "t": 103356.6719999998,
      "d": 401.4560000000056,
      "v": 120
    },
    {
      "midi": 72,
      "hit": false,
      "t": 103356.6719999998,
      "d": 182.47999999999593,
      "v": 120
    },
    {
      "midi": 35,
      "hit": false,
      "t": 103356.67199999983,
      "d": 647.8040000000037,
      "v": 110
    },
    {
      "midi": 74,
      "hit": false,
      "t": 103466.1599999998,
      "d": 401.4560000000056,
      "v": 120
    },
    {
      "midi": 74,
      "hit": false,
      "t": 103575.6479999998,
      "d": 401.4560000000056,
      "v": 120
    },
    {
      "midi": 81,
      "hit": false,
      "t": 103575.64799999986,
      "d": 209.85199999999895,
      "v": 60
    },
    {
      "midi": 46,
      "hit": false,
      "t": 103794.62399999946,
      "d": 9.123999999996158,
      "v": 70
    },
    {
      "midi": 74,
      "hit": false,
      "t": 103794.6239999998,
      "d": 182.47999999999593,
      "v": 120
    },
    {
      "midi": 83,
      "hit": false,
      "t": 103794.62399999985,
      "d": 209.85199999999895,
      "v": 60
    },
    {
      "midi": 74,
      "hit": false,
      "t": 103904.1119999998,
      "d": 182.47999999999593,
      "v": 120
    },
    {
      "midi": 48,
      "hit": false,
      "t": 104013.59999999945,
      "d": 9.123999999996158,
      "v": 84
    },
    {
      "midi": 76,
      "hit": false,
      "t": 104013.5999999998,
      "d": 620.4320000000007,
      "v": 120
    },
    {
      "midi": 74,
      "hit": false,
      "t": 104013.5999999998,
      "d": 182.47999999999593,
      "v": 120
    },
    {
      "midi": 37,
      "hit": false,
      "t": 104013.59999999983,
      "d": 209.85199999999895,
      "v": 110
    },
    {
      "midi": 90,
      "hit": false,
      "t": 104013.59999999985,
      "d": 428.82799999999406,
      "v": 60
    },
    {
      "midi": 48,
      "hit": false,
      "t": 104013.60000000027,
      "d": 9.123999999996158,
      "v": 42
    },
    {
      "midi": 76,
      "hit": false,
      "t": 104123.0879999998,
      "d": 620.4320000000007,
      "v": 120
    },
    {
      "midi": 46,
      "hit": false,
      "t": 104232.57599999945,
      "d": 9.123999999996158,
      "v": 70
    },
    {
      "midi": 41,
      "hit": false,
      "t": 104232.57599999945,
      "d": 9.123999999996158,
      "v": 84
    },
    {
      "midi": 76,
      "hit": false,
      "t": 104232.5759999998,
      "d": 620.4320000000007,
      "v": 120
    },
    {
      "midi": 38,
      "hit": false,
      "t": 104232.57599999983,
      "d": 428.82799999999406,
      "v": 110
    },
    {
      "midi": 41,
      "hit": false,
      "t": 104232.57600000026,
      "d": 9.123999999996158,
      "v": 42
    },
    {
      "midi": 81,
      "hit": false,
      "t": 104451.55199999984,
      "d": 209.85199999999895,
      "v": 60
    },
    {
      "midi": 46,
      "hit": false,
      "t": 104670.52799999944,
      "d": 9.123999999996158,
      "v": 70
    },
    {
      "midi": 38,
      "hit": false,
      "t": 104670.52799999944,
      "d": 9.123999999996158,
      "v": 84
    },
    {
      "midi": 39,
      "hit": false,
      "t": 104670.52799999982,
      "d": 428.82799999999406,
      "v": 110
    },
    {
      "midi": 83,
      "hit": false,
      "t": 104670.52799999983,
      "d": 209.85199999999895,
      "v": 60
    },
    {
      "midi": 90,
      "hit": false,
      "t": 104889.50399999983,
      "d": 428.82799999999406,
      "v": 60
    },
    {
      "midi": 68,
      "hit": false,
      "t": 105081.10800000002,
      "d": 1751.8080000000045,
      "v": 50
    },
    {
      "midi": 64,
      "hit": false,
      "t": 105081.10800000002,
      "d": 1751.8080000000045,
      "v": 50
    },
    {
      "midi": 59,
      "hit": false,
      "t": 105081.10800000002,
      "d": 1751.8080000000045,
      "v": 50
    },
    {
      "midi": 46,
      "hit": false,
      "t": 105108.47999999943,
      "d": 9.123999999996158,
      "v": 70
    },
    {
      "midi": 36,
      "hit": false,
      "t": 105108.47999999943,
      "d": 9.123999999996158,
      "v": 84
    },
    {
      "midi": 40,
      "hit": false,
      "t": 105108.4799999998,
      "d": 1742.6839999999938,
      "v": 110
    },
    {
      "midi": 80,
      "hit": false,
      "t": 105327.45599999982,
      "d": 209.85199999999895,
      "v": 60
    },
    {
      "midi": 46,
      "hit": false,
      "t": 105546.43199999942,
      "d": 9.123999999996158,
      "v": 70
    },
    {
      "midi": 38,
      "hit": false,
      "t": 105546.43199999942,
      "d": 9.123999999996158,
      "v": 84
    },
    {
      "midi": 83,
      "hit": false,
      "t": 105546.43199999981,
      "d": 209.85199999999895,
      "v": 60
    },
    {
      "midi": 88,
      "hit": false,
      "t": 105765.4079999998,
      "d": 428.82799999999406,
      "v": 60
    },
    {
      "midi": 42,
      "hit": false,
      "t": 105984.38399999941,
      "d": 9.123999999996158,
      "v": 70
    },
    {
      "midi": 48,
      "hit": false,
      "t": 106203.3599999994,
      "d": 9.123999999996158,
      "v": 84
    },
    {
      "midi": 80,
      "hit": false,
      "t": 106203.3599999998,
      "d": 209.85199999999895,
      "v": 60
    },
    {
      "midi": 48,
      "hit": false,
      "t": 106203.36000000026,
      "d": 9.123999999996158,
      "v": 42
    },
    {
      "midi": 45,
      "hit": false,
      "t": 106422.3359999994,
      "d": 9.123999999996158,
      "v": 84
    },
    {
      "midi": 83,
      "hit": false,
      "t": 106422.33599999979,
      "d": 209.85199999999895,
      "v": 60
    },
    {
      "midi": 45,
      "hit": false,
      "t": 106422.33600000026,
      "d": 9.123999999996158,
      "v": 42
    },
    {
      "midi": 41,
      "hit": false,
      "t": 106641.3119999994,
      "d": 9.123999999996158,
      "v": 84
    },
    {
      "midi": 88,
      "hit": false,
      "t": 106641.31199999979,
      "d": 209.85199999999895,
      "v": 60
    },
    {
      "midi": 41,
      "hit": false,
      "t": 106641.31200000025,
      "d": 9.123999999996158,
      "v": 42
    },
    {
      "midi": 69,
      "hit": false,
      "t": 106832.91600000003,
      "d": 1751.8080000000045,
      "v": 50
    },
    {
      "midi": 64,
      "hit": false,
      "t": 106832.91600000003,
      "d": 1751.8080000000045,
      "v": 50
    },
    {
      "midi": 60,
      "hit": false,
      "t": 106832.91600000003,
      "d": 1751.8080000000045,
      "v": 50
    },
    {
      "midi": 49,
      "hit": false,
      "t": 106860.28799999939,
      "d": 9.123999999996158,
      "v": 84
    },
    {
      "midi": 36,
      "hit": false,
      "t": 106860.28799999939,
      "d": 9.123999999996158,
      "v": 84
    },
    {
      "midi": 81,
      "hit": false,
      "t": 106860.28799999978,
      "d": 866.7799999999988,
      "v": 60
    },
    {
      "midi": 84,
      "hit": false,
      "t": 106860.28799999978,
      "d": 866.7799999999988,
      "v": 60
    },
    {
      "midi": 88,
      "hit": false,
      "t": 106860.28799999978,
      "d": 866.7799999999988,
      "v": 60
    },
    {
      "midi": 76,
      "hit": false,
      "t": 106860.2879999998,
      "d": 182.47999999999593,
      "v": 120
    },
    {
      "midi": 33,
      "hit": false,
      "t": 106860.2879999998,
      "d": 364.9600000000064,
      "v": 110
    },
    {
      "midi": 76,
      "hit": false,
      "t": 106969.7759999998,
      "d": 182.47999999999593,
      "v": 120
    },
    {
      "midi": 74,
      "hit": false,
      "t": 107079.26399999979,
      "d": 182.47999999999593,
      "v": 120
    },
    {
      "midi": 76,
      "hit": false,
      "t": 107079.26399999979,
      "d": 182.47999999999593,
      "v": 120
    },
    {
      "midi": 74,
      "hit": false,
      "t": 107188.75199999979,
      "d": 182.47999999999593,
      "v": 120
    },
    {
      "midi": 42,
      "hit": false,
      "t": 107298.23999999938,
      "d": 9.123999999996158,
      "v": 70
    },
    {
      "midi": 72,
      "hit": false,
      "t": 107298.23999999979,
      "d": 182.47999999999593,
      "v": 120
    },
    {
      "midi": 74,
      "hit": false,
      "t": 107298.23999999979,
      "d": 182.47999999999593,
      "v": 120
    },
    {
      "midi": 72,
      "hit": false,
      "t": 107407.72799999978,
      "d": 182.47999999999593,
      "v": 120
    },
    {
      "midi": 42,
      "hit": false,
      "t": 107517.21599999937,
      "d": 9.123999999996158,
      "v": 70
    },
    {
      "midi": 36,
      "hit": false,
      "t": 107517.21599999937,
      "d": 9.123999999996158,
      "v": 84
    },
    {
      "midi": 74,
      "hit": false,
      "t": 107517.21599999978,
      "d": 401.4560000000056,
      "v": 120
    },
    {
      "midi": 72,
      "hit": false,
      "t": 107517.21599999978,
      "d": 182.47999999999593,
      "v": 120
    },
    {
      "midi": 33,
      "hit": false,
      "t": 107517.2159999998,
      "d": 1085.755999999994,
      "v": 110
    },
    {
      "midi": 74,
      "hit": false,
      "t": 107626.70399999978,
      "d": 401.4560000000056,
      "v": 120
    },
    {
      "midi": 42,
      "hit": false,
      "t": 107736.19199999937,
      "d": 9.123999999996158,
      "v": 70
    },
    {
      "midi": 38,
      "hit": false,
      "t": 107736.19199999937,
      "d": 9.123999999996158,
      "v": 84
    },
    {
      "midi": 74,
      "hit": false,
      "t": 107736.19199999978,
      "d": 401.4560000000056,
      "v": 120
    },
    {
      "midi": 42,
      "hit": false,
      "t": 107955.16799999936,
      "d": 9.123999999996158,
      "v": 70
    },
    {
      "midi": 72,
      "hit": false,
      "t": 107955.16799999979,
      "d": 182.47999999999593,
      "v": 120
    },
    {
      "midi": 72,
      "hit": false,
      "t": 108064.65599999978,
      "d": 182.47999999999593,
      "v": 120
    },
    {
      "midi": 42,
      "hit": false,
      "t": 108174.14399999936,
      "d": 9.123999999996158,
      "v": 70
    },
    {
      "midi": 41,
      "hit": false,
      "t": 108174.14399999936,
      "d": 9.123999999996158,
      "v": 84
    },
    {
      "midi": 72,
      "hit": false,
      "t": 108174.14399999978,
      "d": 401.4560000000056,
      "v": 120
    },
    {
      "midi": 72,
      "hit": false,
      "t": 108174.14399999978,
      "d": 182.47999999999593,
      "v": 120
    },
    {
      "midi": 41,
      "hit": false,
      "t": 108174.14400000025,
      "d": 9.123999999996158,
      "v": 42
    },
    {
      "midi": 72,
      "hit": false,
      "t": 108283.63199999978,
      "d": 401.4560000000056,
      "v": 120
    },
    {
      "midi": 42,
      "hit": false,
      "t": 108393.11999999936,
      "d": 9.123999999996158,
      "v": 70
    },
    {
      "midi": 72,
      "hit": false,
      "t": 108393.11999999978,
      "d": 401.4560000000056,
      "v": 120
    },
    {
      "midi": 67,
      "hit": false,
      "t": 108584.72400000003,
      "d": 1532.8319999999949,
      "v": 50
    },
    {
      "midi": 64,
      "hit": false,
      "t": 108584.72400000003,
      "d": 1532.8319999999949,
      "v": 50
    },
    {
      "midi": 60,
      "hit": false,
      "t": 108584.72400000003,
      "d": 1532.8319999999949,
      "v": 50
    },
    {
      "midi": 42,
      "hit": false,
      "t": 108612.09599999935,
      "d": 9.123999999996158,
      "v": 70
    },
    {
      "midi": 36,
      "hit": false,
      "t": 108612.09599999935,
      "d": 9.123999999996158,
      "v": 84
    },
    {
      "midi": 76,
      "hit": false,
      "t": 108612.09599999979,
      "d": 182.47999999999593,
      "v": 120
    },
    {
      "midi": 31,
      "hit": false,
      "t": 108612.09599999979,
      "d": 364.9600000000064,
      "v": 110
    },
    {
      "midi": 79,
      "hit": false,
      "t": 108612.09599999979,
      "d": 866.7799999999988,
      "v": 60
    },
    {
      "midi": 84,
      "hit": false,
      "t": 108612.09599999979,
      "d": 866.7799999999988,
      "v": 60
    },
    {
      "midi": 88,
      "hit": false,
      "t": 108612.09599999979,
      "d": 866.7799999999988,
      "v": 60
    },
    {
      "midi": 76,
      "hit": false,
      "t": 108721.58399999978,
      "d": 182.47999999999593,
      "v": 120
    },
    {
      "midi": 74,
      "hit": false,
      "t": 108831.07199999978,
      "d": 182.47999999999593,
      "v": 120
    },
    {
      "midi": 76,
      "hit": false,
      "t": 108831.07199999978,
      "d": 182.47999999999593,
      "v": 120
    },
    {
      "midi": 74,
      "hit": false,
      "t": 108940.55999999978,
      "d": 182.47999999999593,
      "v": 120
    },
    {
      "midi": 42,
      "hit": false,
      "t": 109050.04799999934,
      "d": 9.123999999996158,
      "v": 70
    },
    {
      "midi": 72,
      "hit": false,
      "t": 109050.04799999978,
      "d": 182.47999999999593,
      "v": 120
    },
    {
      "midi": 74,
      "hit": false,
      "t": 109050.04799999978,
      "d": 182.47999999999593,
      "v": 120
    },
    {
      "midi": 72,
      "hit": false,
      "t": 109159.53599999977,
      "d": 182.47999999999593,
      "v": 120
    },
    {
      "midi": 42,
      "hit": false,
      "t": 109269.02399999934,
      "d": 9.123999999996158,
      "v": 70
    },
    {
      "midi": 36,
      "hit": false,
      "t": 109269.02399999934,
      "d": 9.123999999996158,
      "v": 84
    },
    {
      "midi": 74,
      "hit": false,
      "t": 109269.02399999977,
      "d": 401.4560000000056,
      "v": 120
    },
    {
      "midi": 72,
      "hit": false,
      "t": 109269.02399999977,
      "d": 182.47999999999593,
      "v": 120
    },
    {
      "midi": 31,
      "hit": false,
      "t": 109269.02399999979,
      "d": 866.7799999999988,
      "v": 110
    },
    {
      "midi": 74,
      "hit": false,
      "t": 109378.51199999977,
      "d": 401.4560000000056,
      "v": 120
    },
    {
      "midi": 42,
      "hit": false,
      "t": 109487.99999999933,
      "d": 9.123999999996158,
      "v": 70
    },
    {
      "midi": 38,
      "hit": false,
      "t": 109487.99999999933,
      "d": 9.123999999996158,
      "v": 84
    },
    {
      "midi": 74,
      "hit": false,
      "t": 109487.99999999977,
      "d": 401.4560000000056,
      "v": 120
    },
    {
      "midi": 42,
      "hit": false,
      "t": 109706.97599999933,
      "d": 9.123999999996158,
      "v": 70
    },
    {
      "midi": 72,
      "hit": false,
      "t": 109706.97599999978,
      "d": 401.4560000000056,
      "v": 120
    },
    {
      "midi": 72,
      "hit": false,
      "t": 109816.46399999977,
      "d": 401.4560000000056,
      "v": 120
    },
    {
      "midi": 42,
      "hit": false,
      "t": 109925.95199999932,
      "d": 9.123999999996158,
      "v": 70
    },
    {
      "midi": 41,
      "hit": false,
      "t": 109925.95199999932,
      "d": 9.123999999996158,
      "v": 84
    },
    {
      "midi": 72,
      "hit": false,
      "t": 109925.95199999977,
      "d": 401.4560000000056,
      "v": 120
    },
    {
      "midi": 41,
      "hit": false,
      "t": 109925.95200000024,
      "d": 9.123999999996158,
      "v": 42
    },
    {
      "midi": 66,
      "hit": false,
      "t": 110117.55600000003,
      "d": 1970.7839999999997,
      "v": 50
    },
    {
      "midi": 64,
      "hit": false,
      "t": 110117.55600000003,
      "d": 1970.7839999999997,
      "v": 50
    },
    {
      "midi": 60,
      "hit": false,
      "t": 110117.55600000003,
      "d": 1970.7839999999997,
      "v": 50
    },
    {
      "midi": 49,
      "hit": false,
      "t": 110144.92799999932,
      "d": 9.123999999996158,
      "v": 84
    },
    {
      "midi": 36,
      "hit": false,
      "t": 110144.92799999932,
      "d": 9.123999999996158,
      "v": 84
    },
    {
      "midi": 76,
      "hit": false,
      "t": 110144.92799999978,
      "d": 182.47999999999593,
      "v": 120
    },
    {
      "midi": 30,
      "hit": false,
      "t": 110144.92799999978,
      "d": 583.9360000000015,
      "v": 110
    },
    {
      "midi": 81,
      "hit": false,
      "t": 110144.92799999978,
      "d": 1085.755999999994,
      "v": 60
    },
    {
      "midi": 84,
      "hit": false,
      "t": 110144.92799999978,
      "d": 1085.755999999994,
      "v": 60
    },
    {
      "midi": 88,
      "hit": false,
      "t": 110144.92799999978,
      "d": 1085.755999999994,
      "v": 60
    },
    {
      "midi": 76,
      "hit": false,
      "t": 110254.41599999978,
      "d": 182.47999999999593,
      "v": 120
    },
    {
      "midi": 76,
      "hit": false,
      "t": 110363.90399999978,
      "d": 182.47999999999593,
      "v": 120
    },
    {
      "midi": 42,
      "hit": false,
      "t": 110801.85599999932,
      "d": 9.123999999996158,
      "v": 70
    },
    {
      "midi": 42,
      "hit": false,
      "t": 111020.83199999931,
      "d": 9.123999999996158,
      "v": 70
    },
    {
      "midi": 36,
      "hit": false,
      "t": 111020.83199999931,
      "d": 9.123999999996158,
      "v": 84
    },
    {
      "midi": 36,
      "hit": false,
      "t": 111020.83199999978,
      "d": 209.85199999999895,
      "v": 110
    },
    {
      "midi": 42,
      "hit": false,
      "t": 111239.8079999993,
      "d": 9.123999999996158,
      "v": 70
    },
    {
      "midi": 38,
      "hit": false,
      "t": 111239.8079999993,
      "d": 9.123999999996158,
      "v": 84
    },
    {
      "midi": 36,
      "hit": false,
      "t": 111239.80799999977,
      "d": 866.7799999999552,
      "v": 110
    },
    {
      "midi": 42,
      "hit": false,
      "t": 111458.7839999993,
      "d": 9.123999999996158,
      "v": 70
    },
    {
      "midi": 42,
      "hit": false,
      "t": 111677.7599999993,
      "d": 9.123999999996158,
      "v": 70
    },
    {
      "midi": 41,
      "hit": false,
      "t": 111677.7599999993,
      "d": 9.123999999996158,
      "v": 84
    },
    {
      "midi": 41,
      "hit": false,
      "t": 111677.76000000023,
      "d": 9.123999999996158,
      "v": 42
    },
    {
      "midi": 42,
      "hit": false,
      "t": 111896.73599999929,
      "d": 9.123999999996158,
      "v": 70
    },
    {
      "midi": 67,
      "hit": false,
      "t": 112088.34000000003,
      "d": 1751.8080000000045,
      "v": 50
    },
    {
      "midi": 60,
      "hit": false,
      "t": 112088.34000000003,
      "d": 1751.8080000000045,
      "v": 50
    },
    {
      "midi": 42,
      "hit": false,
      "t": 112115.71199999929,
      "d": 9.123999999996158,
      "v": 70
    },
    {
      "midi": 36,
      "hit": false,
      "t": 112115.71199999929,
      "d": 9.123999999996158,
      "v": 84
    },
    {
      "midi": 29,
      "hit": false,
      "t": 112115.71199999972,
      "d": 647.8040000000037,
      "v": 110
    },
    {
      "midi": 79,
      "hit": false,
      "t": 112115.71199999978,
      "d": 182.47999999999593,
      "v": 120
    },
    {
      "midi": 79,
      "hit": false,
      "t": 112115.71199999978,
      "d": 209.85199999999895,
      "v": 60
    },
    {
      "midi": 79,
      "hit": false,
      "t": 112225.19999999978,
      "d": 182.47999999999593,
      "v": 120
    },
    {
      "midi": 79,
      "hit": false,
      "t": 112334.68799999978,
      "d": 182.47999999999593,
      "v": 120
    },
    {
      "midi": 79,
      "hit": false,
      "t": 112334.68799999978,
      "d": 182.47999999999593,
      "v": 120
    },
    {
      "midi": 81,
      "hit": false,
      "t": 112334.68799999978,
      "d": 209.85199999999895,
      "v": 60
    },
    {
      "midi": 79,
      "hit": false,
      "t": 112444.17599999977,
      "d": 182.47999999999593,
      "v": 120
    },
    {
      "midi": 42,
      "hit": false,
      "t": 112553.66399999928,
      "d": 9.123999999996158,
      "v": 70
    },
    {
      "midi": 79,
      "hit": false,
      "t": 112553.66399999977,
      "d": 182.47999999999593,
      "v": 120
    },
    {
      "midi": 79,
      "hit": false,
      "t": 112553.66399999977,
      "d": 182.47999999999593,
      "v": 120
    },
    {
      "midi": 88,
      "hit": false,
      "t": 112553.66399999977,
      "d": 209.85199999999895,
      "v": 60
    },
    {
      "midi": 79,
      "hit": false,
      "t": 112663.15199999977,
      "d": 182.47999999999593,
      "v": 120
    },
    {
      "midi": 42,
      "hit": false,
      "t": 112772.63999999927,
      "d": 9.123999999996158,
      "v": 70
    },
    {
      "midi": 36,
      "hit": false,
      "t": 112772.63999999927,
      "d": 9.123999999996158,
      "v": 84
    },
    {
      "midi": 29,
      "hit": false,
      "t": 112772.63999999972,
      "d": 209.85199999999895,
      "v": 110
    },
    {
      "midi": 79,
      "hit": false,
      "t": 112772.63999999977,
      "d": 401.4560000000056,
      "v": 120
    },
    {
      "midi": 79,
      "hit": false,
      "t": 112772.63999999977,
      "d": 182.47999999999593,
      "v": 120
    },
    {
      "midi": 79,
      "hit": false,
      "t": 112772.63999999977,
      "d": 209.85199999999895,
      "v": 60
    },
    {
      "midi": 79,
      "hit": false,
      "t": 112882.12799999976,
      "d": 401.4560000000056,
      "v": 120
    },
    {
      "midi": 42,
      "hit": false,
      "t": 112991.61599999927,
      "d": 9.123999999996158,
      "v": 70
    },
    {
      "midi": 38,
      "hit": false,
      "t": 112991.61599999927,
      "d": 9.123999999996158,
      "v": 84
    },
    {
      "midi": 29,
      "hit": false,
      "t": 112991.61599999972,
      "d": 209.85199999999895,
      "v": 110
    },
    {
      "midi": 79,
      "hit": false,
      "t": 112991.61599999976,
      "d": 401.4560000000056,
      "v": 120
    },
    {
      "midi": 81,
      "hit": false,
      "t": 112991.61599999976,
      "d": 209.85199999999895,
      "v": 60
    },
    {
      "midi": 42,
      "hit": false,
      "t": 113210.59199999926,
      "d": 9.123999999996158,
      "v": 70
    },
    {
      "midi": 31,
      "hit": false,
      "t": 113210.59199999971,
      "d": 209.85199999999895,
      "v": 110
    },
    {
      "midi": 88,
      "hit": false,
      "t": 113210.59199999976,
      "d": 209.85199999999895,
      "v": 60
    },
    {
      "midi": 79,
      "hit": false,
      "t": 113210.59199999977,
      "d": 401.4560000000056,
      "v": 120
    },
    {
      "midi": 79,
      "hit": false,
      "t": 113320.07999999977,
      "d": 401.4560000000056,
      "v": 120
    },
    {
      "midi": 42,
      "hit": false,
      "t": 113429.56799999926,
      "d": 9.123999999996158,
      "v": 70
    },
    {
      "midi": 41,
      "hit": false,
      "t": 113429.56799999926,
      "d": 9.123999999996158,
      "v": 84
    },
    {
      "midi": 29,
      "hit": false,
      "t": 113429.56799999971,
      "d": 209.85199999999895,
      "v": 110
    },
    {
      "midi": 79,
      "hit": false,
      "t": 113429.56799999975,
      "d": 209.85199999999895,
      "v": 60
    },
    {
      "midi": 79,
      "hit": false,
      "t": 113429.56799999977,
      "d": 401.4560000000056,
      "v": 120
    },
    {
      "midi": 41,
      "hit": false,
      "t": 113429.56800000022,
      "d": 9.123999999996158,
      "v": 42
    },
    {
      "midi": 42,
      "hit": false,
      "t": 113648.54399999925,
      "d": 9.123999999996158,
      "v": 70
    },
    {
      "midi": 36,
      "hit": false,
      "t": 113648.54399999925,
      "d": 9.123999999996158,
      "v": 84
    },
    {
      "midi": 28,
      "hit": false,
      "t": 113648.5439999997,
      "d": 866.7799999999988,
      "v": 110
    },
    {
      "midi": 81,
      "hit": false,
      "t": 113648.54399999975,
      "d": 209.85199999999895,
      "v": 60
    },
    {
      "midi": 79,
      "hit": false,
      "t": 113648.54399999978,
      "d": 401.4560000000056,
      "v": 120
    },
    {
      "midi": 79,
      "hit": false,
      "t": 113758.03199999977,
      "d": 401.4560000000056,
      "v": 120
    },
    {
      "midi": 71,
      "hit": false,
      "t": 113840.14800000003,
      "d": 1751.8080000000045,
      "v": 40
    },
    {
      "midi": 67,
      "hit": false,
      "t": 113840.14800000003,
      "d": 1751.8080000000045,
      "v": 50
    },
    {
      "midi": 64,
      "hit": false,
      "t": 113840.14800000003,
      "d": 1751.8080000000045,
      "v": 50
    },
    {
      "midi": 60,
      "hit": false,
      "t": 113840.14800000003,
      "d": 1751.8080000000045,
      "v": 50
    },
    {
      "midi": 42,
      "hit": false,
      "t": 113867.51999999925,
      "d": 9.123999999996158,
      "v": 70
    },
    {
      "midi": 88,
      "hit": false,
      "t": 113867.51999999974,
      "d": 209.85199999999895,
      "v": 60
    },
    {
      "midi": 79,
      "hit": false,
      "t": 113867.51999999977,
      "d": 401.4560000000056,
      "v": 120
    },
    {
      "midi": 79,
      "hit": false,
      "t": 114086.49599999974,
      "d": 209.85199999999895,
      "v": 60
    },
    {
      "midi": 77,
      "hit": false,
      "t": 114086.49599999978,
      "d": 182.47999999999593,
      "v": 120
    },
    {
      "midi": 77,
      "hit": false,
      "t": 114195.98399999978,
      "d": 182.47999999999593,
      "v": 120
    },
    {
      "midi": 42,
      "hit": false,
      "t": 114305.47199999924,
      "d": 9.123999999996158,
      "v": 70
    },
    {
      "midi": 81,
      "hit": false,
      "t": 114305.47199999973,
      "d": 209.85199999999895,
      "v": 60
    },
    {
      "midi": 76,
      "hit": false,
      "t": 114305.47199999978,
      "d": 401.4560000000056,
      "v": 120
    },
    {
      "midi": 77,
      "hit": false,
      "t": 114305.47199999978,
      "d": 182.47999999999593,
      "v": 120
    },
    {
      "midi": 76,
      "hit": false,
      "t": 114414.95999999977,
      "d": 401.4560000000056,
      "v": 120
    },
    {
      "midi": 42,
      "hit": false,
      "t": 114524.44799999923,
      "d": 9.123999999996158,
      "v": 70
    },
    {
      "midi": 36,
      "hit": false,
      "t": 114524.44799999923,
      "d": 9.123999999996158,
      "v": 84
    },
    {
      "midi": 28,
      "hit": false,
      "t": 114524.4479999997,
      "d": 209.85199999999895,
      "v": 110
    },
    {
      "midi": 88,
      "hit": false,
      "t": 114524.44799999973,
      "d": 209.85199999999895,
      "v": 60
    },
    {
      "midi": 76,
      "hit": false,
      "t": 114524.44799999977,
      "d": 401.4560000000056,
      "v": 120
    },
    {
      "midi": 42,
      "hit": false,
      "t": 114743.42399999923,
      "d": 9.123999999996158,
      "v": 70
    },
    {
      "midi": 38,
      "hit": false,
      "t": 114743.42399999923,
      "d": 9.123999999996158,
      "v": 84
    },
    {
      "midi": 28,
      "hit": false,
      "t": 114743.4239999997,
      "d": 209.85199999999895,
      "v": 110
    },
    {
      "midi": 79,
      "hit": false,
      "t": 114743.42399999972,
      "d": 209.85199999999895,
      "v": 60
    },
    {
      "midi": 42,
      "hit": false,
      "t": 114962.39999999922,
      "d": 9.123999999996158,
      "v": 70
    },
    {
      "midi": 26,
      "hit": false,
      "t": 114962.39999999969,
      "d": 209.85199999999895,
      "v": 110
    },
    {
      "midi": 81,
      "hit": false,
      "t": 114962.39999999972,
      "d": 209.85199999999895,
      "v": 60
    },
    {
      "midi": 72,
      "hit": false,
      "t": 114962.39999999978,
      "d": 182.47999999999593,
      "v": 120
    },
    {
      "midi": 72,
      "hit": false,
      "t": 115071.88799999977,
      "d": 182.47999999999593,
      "v": 120
    },
    {
      "midi": 42,
      "hit": false,
      "t": 115181.37599999922,
      "d": 9.123999999996158,
      "v": 70
    },
    {
      "midi": 41,
      "hit": false,
      "t": 115181.37599999922,
      "d": 9.123999999996158,
      "v": 84
    },
    {
      "midi": 28,
      "hit": false,
      "t": 115181.37599999968,
      "d": 209.85199999999895,
      "v": 110
    },
    {
      "midi": 88,
      "hit": false,
      "t": 115181.37599999971,
      "d": 209.85199999999895,
      "v": 60
    },
    {
      "midi": 72,
      "hit": false,
      "t": 115181.37599999977,
      "d": 182.47999999999593,
      "v": 120
    },
    {
      "midi": 72,
      "hit": false,
      "t": 115181.37599999977,
      "d": 182.47999999999593,
      "v": 120
    },
    {
      "midi": 41,
      "hit": false,
      "t": 115181.37600000021,
      "d": 9.123999999996158,
      "v": 42
    },
    {
      "midi": 72,
      "hit": false,
      "t": 115290.86399999977,
      "d": 182.47999999999593,
      "v": 120
    },
    {
      "midi": 42,
      "hit": false,
      "t": 115400.35199999921,
      "d": 9.123999999996158,
      "v": 70
    },
    {
      "midi": 36,
      "hit": false,
      "t": 115400.35199999921,
      "d": 9.123999999996158,
      "v": 84
    },
    {
      "midi": 29,
      "hit": false,
      "t": 115400.35199999968,
      "d": 866.7799999999988,
      "v": 110
    },
    {
      "midi": 79,
      "hit": false,
      "t": 115400.35199999971,
      "d": 209.85199999999895,
      "v": 60
    },
    {
      "midi": 79,
      "hit": false,
      "t": 115400.35199999977,
      "d": 620.4320000000007,
      "v": 120
    },
    {
      "midi": 72,
      "hit": false,
      "t": 115400.35199999977,
      "d": 182.47999999999593,
      "v": 120
    },
    {
      "midi": 79,
      "hit": false,
      "t": 115509.83999999976,
      "d": 620.4320000000007,
      "v": 120
    },
    {
      "midi": 69,
      "hit": false,
      "t": 115591.95600000003,
      "d": 1751.8080000000045,
      "v": 50
    },
    {
      "midi": 65,
      "hit": false,
      "t": 115591.95600000003,
      "d": 1751.8080000000045,
      "v": 50
    },
    {
      "midi": 60,
      "hit": false,
      "t": 115591.95600000003,
      "d": 1751.8080000000045,
      "v": 50
    },
    {
      "midi": 42,
      "hit": false,
      "t": 115619.32799999921,
      "d": 9.123999999996158,
      "v": 70
    },
    {
      "midi": 81,
      "hit": false,
      "t": 115619.3279999997,
      "d": 209.85199999999895,
      "v": 60
    },
    {
      "midi": 79,
      "hit": false,
      "t": 115619.32799999976,
      "d": 620.4320000000007,
      "v": 120
    },
    {
      "midi": 88,
      "hit": false,
      "t": 115838.3039999997,
      "d": 209.85199999999895,
      "v": 60
    },
    {
      "midi": 42,
      "hit": false,
      "t": 116057.2799999992,
      "d": 9.123999999996158,
      "v": 70
    },
    {
      "midi": 79,
      "hit": false,
      "t": 116057.2799999997,
      "d": 209.85199999999895,
      "v": 60
    },
    {
      "midi": 79,
      "hit": false,
      "t": 116057.27999999977,
      "d": 182.47999999999593,
      "v": 120
    },
    {
      "midi": 79,
      "hit": false,
      "t": 116166.76799999976,
      "d": 182.47999999999593,
      "v": 120
    },
    {
      "midi": 42,
      "hit": false,
      "t": 116276.2559999992,
      "d": 9.123999999996158,
      "v": 70
    },
    {
      "midi": 36,
      "hit": false,
      "t": 116276.2559999992,
      "d": 9.123999999996158,
      "v": 84
    },
    {
      "midi": 29,
      "hit": false,
      "t": 116276.25599999967,
      "d": 209.85199999999895,
      "v": 110
    },
    {
      "midi": 81,
      "hit": false,
      "t": 116276.25599999969,
      "d": 209.85199999999895,
      "v": 60
    },
    {
      "midi": 79,
      "hit": false,
      "t": 116276.25599999976,
      "d": 182.47999999999593,
      "v": 120
    },
    {
      "midi": 79,
      "hit": false,
      "t": 116276.25599999976,
      "d": 182.47999999999593,
      "v": 120
    },
    {
      "midi": 79,
      "hit": false,
      "t": 116385.74399999976,
      "d": 182.47999999999593,
      "v": 120
    },
    {
      "midi": 42,
      "hit": false,
      "t": 116495.23199999919,
      "d": 9.123999999996158,
      "v": 70
    },
    {
      "midi": 38,
      "hit": false,
      "t": 116495.23199999919,
      "d": 9.123999999996158,
      "v": 84
    },
    {
      "midi": 29,
      "hit": false,
      "t": 116495.23199999967,
      "d": 866.7799999999988,
      "v": 110
    },
    {
      "midi": 88,
      "hit": false,
      "t": 116495.23199999968,
      "d": 209.85199999999895,
      "v": 60
    },
    {
      "midi": 79,
      "hit": false,
      "t": 116495.23199999976,
      "d": 182.47999999999593,
      "v": 120
    },
    {
      "midi": 79,
      "hit": false,
      "t": 116495.23199999976,
      "d": 182.47999999999593,
      "v": 120
    },
    {
      "midi": 79,
      "hit": false,
      "t": 116604.71999999975,
      "d": 182.47999999999593,
      "v": 120
    },
    {
      "midi": 42,
      "hit": false,
      "t": 116714.20799999918,
      "d": 9.123999999996158,
      "v": 70
    },
    {
      "midi": 79,
      "hit": false,
      "t": 116714.20799999968,
      "d": 209.85199999999895,
      "v": 60
    },
    {
      "midi": 79,
      "hit": false,
      "t": 116714.20799999975,
      "d": 401.4560000000056,
      "v": 120
    },
    {
      "midi": 79,
      "hit": false,
      "t": 116714.20799999975,
      "d": 182.47999999999593,
      "v": 120
    },
    {
      "midi": 79,
      "hit": false,
      "t": 116823.69599999975,
      "d": 401.4560000000056,
      "v": 120
    },
    {
      "midi": 42,
      "hit": false,
      "t": 116933.18399999918,
      "d": 9.123999999996158,
      "v": 70
    },
    {
      "midi": 41,
      "hit": false,
      "t": 116933.18399999918,
      "d": 9.123999999996158,
      "v": 84
    },
    {
      "midi": 81,
      "hit": false,
      "t": 116933.18399999967,
      "d": 209.85199999999895,
      "v": 60
    },
    {
      "midi": 79,
      "hit": false,
      "t": 116933.18399999975,
      "d": 401.4560000000056,
      "v": 120
    },
    {
      "midi": 41,
      "hit": false,
      "t": 116933.1840000002,
      "d": 9.123999999996158,
      "v": 42
    },
    {
      "midi": 42,
      "hit": false,
      "t": 117152.15999999917,
      "d": 9.123999999996158,
      "v": 70
    },
    {
      "midi": 88,
      "hit": false,
      "t": 117152.15999999967,
      "d": 209.85199999999895,
      "v": 60
    },
    {
      "midi": 80,
      "hit": false,
      "t": 117152.15999999976,
      "d": 401.4560000000056,
      "v": 120
    },
    {
      "midi": 80,
      "hit": false,
      "t": 117261.64799999975,
      "d": 401.4560000000056,
      "v": 120
    },
    {
      "midi": 68,
      "hit": false,
      "t": 117343.76400000004,
      "d": 1751.8080000000045,
      "v": 50
    },
    {
      "midi": 64,
      "hit": false,
      "t": 117343.76400000004,
      "d": 1751.8080000000045,
      "v": 50
    },
    {
      "midi": 59,
      "hit": false,
      "t": 117343.76400000004,
      "d": 1751.8080000000045,
      "v": 50
    },
    {
      "midi": 42,
      "hit": false,
      "t": 117371.13599999917,
      "d": 9.123999999996158,
      "v": 70
    },
    {
      "midi": 36,
      "hit": false,
      "t": 117371.13599999917,
      "d": 9.123999999996158,
      "v": 84
    },
    {
      "midi": 28,
      "hit": false,
      "t": 117371.13599999966,
      "d": 647.8040000000037,
      "v": 110
    },
    {
      "midi": 80,
      "hit": false,
      "t": 117371.13599999966,
      "d": 209.85199999999895,
      "v": 60
    },
    {
      "midi": 80,
      "hit": false,
      "t": 117371.13599999975,
      "d": 401.4560000000056,
      "v": 120
    },
    {
      "midi": 83,
      "hit": false,
      "t": 117590.11199999966,
      "d": 209.85199999999895,
      "v": 60
    },
    {
      "midi": 80,
      "hit": false,
      "t": 117590.11199999976,
      "d": 182.47999999999593,
      "v": 120
    },
    {
      "midi": 80,
      "hit": false,
      "t": 117699.59999999976,
      "d": 182.47999999999593,
      "v": 120
    },
    {
      "midi": 42,
      "hit": false,
      "t": 117809.08799999916,
      "d": 9.123999999996158,
      "v": 70
    },
    {
      "midi": 88,
      "hit": false,
      "t": 117809.08799999965,
      "d": 209.85199999999895,
      "v": 60
    },
    {
      "midi": 80,
      "hit": false,
      "t": 117809.08799999976,
      "d": 401.4560000000056,
      "v": 120
    },
    {
      "midi": 80,
      "hit": false,
      "t": 117809.08799999976,
      "d": 182.47999999999593,
      "v": 120
    },
    {
      "midi": 80,
      "hit": false,
      "t": 117918.57599999975,
      "d": 401.4560000000056,
      "v": 120
    },
    {
      "midi": 42,
      "hit": false,
      "t": 118028.06399999915,
      "d": 9.123999999996158,
      "v": 70
    },
    {
      "midi": 36,
      "hit": false,
      "t": 118028.06399999915,
      "d": 9.123999999996158,
      "v": 84
    },
    {
      "midi": 80,
      "hit": false,
      "t": 118028.06399999965,
      "d": 209.85199999999895,
      "v": 60
    },
    {
      "midi": 28,
      "hit": false,
      "t": 118028.06399999966,
      "d": 209.85199999999895,
      "v": 110
    },
    {
      "midi": 80,
      "hit": false,
      "t": 118028.06399999975,
      "d": 401.4560000000056,
      "v": 120
    },
    {
      "midi": 42,
      "hit": false,
      "t": 118247.03999999915,
      "d": 9.123999999996158,
      "v": 70
    },
    {
      "midi": 38,
      "hit": false,
      "t": 118247.03999999915,
      "d": 9.123999999996158,
      "v": 84
    },
    {
      "midi": 83,
      "hit": false,
      "t": 118247.03999999964,
      "d": 209.85199999999895,
      "v": 60
    },
    {
      "midi": 28,
      "hit": false,
      "t": 118247.03999999966,
      "d": 866.7799999999988,
      "v": 110
    },
    {
      "midi": 42,
      "hit": false,
      "t": 118466.01599999914,
      "d": 9.123999999996158,
      "v": 70
    },
    {
      "midi": 88,
      "hit": false,
      "t": 118466.01599999964,
      "d": 209.85199999999895,
      "v": 60
    },
    {
      "midi": 42,
      "hit": false,
      "t": 118684.99199999914,
      "d": 9.123999999996158,
      "v": 70
    },
    {
      "midi": 41,
      "hit": false,
      "t": 118684.99199999914,
      "d": 9.123999999996158,
      "v": 84
    },
    {
      "midi": 80,
      "hit": false,
      "t": 118684.99199999963,
      "d": 209.85199999999895,
      "v": 60
    },
    {
      "midi": 41,
      "hit": false,
      "t": 118684.99200000019,
      "d": 9.123999999996158,
      "v": 42
    },
    {
      "midi": 42,
      "hit": false,
      "t": 118903.96799999913,
      "d": 9.123999999996158,
      "v": 70
    },
    {
      "midi": 83,
      "hit": false,
      "t": 118903.96799999963,
      "d": 209.85199999999895,
      "v": 60
    },
    {
      "midi": 76,
      "hit": false,
      "t": 118903.96799999976,
      "d": 182.47999999999593,
      "v": 120
    },
    {
      "midi": 76,
      "hit": false,
      "t": 119013.45599999976,
      "d": 182.47999999999593,
      "v": 120
    },
    {
      "midi": 69,
      "hit": false,
      "t": 119095.57200000004,
      "d": 1751.8080000000045,
      "v": 50
    },
    {
      "midi": 64,
      "hit": false,
      "t": 119095.57200000004,
      "d": 1751.8080000000045,
      "v": 50
    },
    {
      "midi": 60,
      "hit": false,
      "t": 119095.57200000004,
      "d": 1751.8080000000045,
      "v": 50
    },
    {
      "midi": 42,
      "hit": false,
      "t": 119122.94399999913,
      "d": 9.123999999996158,
      "v": 70
    },
    {
      "midi": 36,
      "hit": false,
      "t": 119122.94399999913,
      "d": 9.123999999996158,
      "v": 84
    },
    {
      "midi": 81,
      "hit": false,
      "t": 119122.94399999962,
      "d": 209.85199999999895,
      "v": 60
    },
    {
      "midi": 33,
      "hit": false,
      "t": 119122.94399999965,
      "d": 647.8040000000037,
      "v": 110
    },
    {
      "midi": 81,
      "hit": false,
      "t": 119122.94399999976,
      "d": 401.4560000000056,
      "v": 120
    },
    {
      "midi": 76,
      "hit": false,
      "t": 119122.94399999976,
      "d": 182.47999999999593,
      "v": 120
    },
    {
      "midi": 81,
      "hit": false,
      "t": 119232.43199999975,
      "d": 401.4560000000056,
      "v": 120
    },
    {
      "midi": 84,
      "hit": false,
      "t": 119341.91999999962,
      "d": 209.85199999999895,
      "v": 60
    },
    {
      "midi": 81,
      "hit": false,
      "t": 119341.91999999975,
      "d": 401.4560000000056,
      "v": 120
    },
    {
      "midi": 42,
      "hit": false,
      "t": 119560.89599999912,
      "d": 9.123999999996158,
      "v": 70
    },
    {
      "midi": 88,
      "hit": false,
      "t": 119560.89599999962,
      "d": 209.85199999999895,
      "v": 60
    },
    {
      "midi": 79,
      "hit": false,
      "t": 119560.89599999976,
      "d": 182.47999999999593,
      "v": 120
    },
    {
      "midi": 79,
      "hit": false,
      "t": 119670.38399999976,
      "d": 182.47999999999593,
      "v": 120
    },
    {
      "midi": 42,
      "hit": false,
      "t": 119779.87199999912,
      "d": 9.123999999996158,
      "v": 70
    },
    {
      "midi": 36,
      "hit": false,
      "t": 119779.87199999912,
      "d": 9.123999999996158,
      "v": 84
    },
    {
      "midi": 81,
      "hit": false,
      "t": 119779.87199999961,
      "d": 209.85199999999895,
      "v": 60
    },
    {
      "midi": 33,
      "hit": false,
      "t": 119779.87199999965,
      "d": 209.85199999999895,
      "v": 110
    },
    {
      "midi": 76,
      "hit": false,
      "t": 119779.87199999976,
      "d": 401.4560000000056,
      "v": 120
    },
    {
      "midi": 79,
      "hit": false,
      "t": 119779.87199999976,
      "d": 182.47999999999593,
      "v": 120
    },
    {
      "midi": 76,
      "hit": false,
      "t": 119889.35999999975,
      "d": 401.4560000000056,
      "v": 120
    },
    {
      "midi": 42,
      "hit": false,
      "t": 119998.84799999911,
      "d": 9.123999999996158,
      "v": 70
    },
    {
      "midi": 38,
      "hit": false,
      "t": 119998.84799999911,
      "d": 9.123999999996158,
      "v": 84
    },
    {
      "midi": 84,
      "hit": false,
      "t": 119998.8479999996,
      "d": 209.85199999999895,
      "v": 60
    },
    {
      "midi": 33,
      "hit": false,
      "t": 119998.84799999965,
      "d": 866.7799999999988,
      "v": 110
    },
    {
      "midi": 76,
      "hit": false,
      "t": 119998.84799999975,
      "d": 401.4560000000056,
      "v": 120
    },
    {
      "midi": 42,
      "hit": false,
      "t": 120217.8239999991,
      "d": 9.123999999996158,
      "v": 70
    },
    {
      "midi": 88,
      "hit": false,
      "t": 120217.8239999996,
      "d": 209.85199999999895,
      "v": 60
    },
    {
      "midi": 74,
      "hit": false,
      "t": 120217.82399999976,
      "d": 401.4560000000056,
      "v": 120
    },
    {
      "midi": 74,
      "hit": false,
      "t": 120327.31199999976,
      "d": 401.4560000000056,
      "v": 120
    },
    {
      "midi": 42,
      "hit": false,
      "t": 120436.7999999991,
      "d": 9.123999999996158,
      "v": 70
    },
    {
      "midi": 41,
      "hit": false,
      "t": 120436.7999999991,
      "d": 9.123999999996158,
      "v": 84
    },
    {
      "midi": 81,
      "hit": false,
      "t": 120436.7999999996,
      "d": 209.85199999999895,
      "v": 60
    },
    {
      "midi": 74,
      "hit": false,
      "t": 120436.79999999976,
      "d": 401.4560000000056,
      "v": 120
    },
    {
      "midi": 41,
      "hit": false,
      "t": 120436.80000000018,
      "d": 9.123999999996158,
      "v": 42
    },
    {
      "midi": 42,
      "hit": false,
      "t": 120655.7759999991,
      "d": 9.123999999996158,
      "v": 70
    },
    {
      "midi": 84,
      "hit": false,
      "t": 120655.77599999959,
      "d": 209.85199999999895,
      "v": 60
    },
    {
      "midi": 66,
      "hit": false,
      "t": 120847.38000000005,
      "d": 1751.8080000000045,
      "v": 50
    },
    {
      "midi": 62,
      "hit": false,
      "t": 120847.38000000005,
      "d": 1751.8080000000045,
      "v": 50
    },
    {
      "midi": 57,
      "hit": false,
      "t": 120847.38000000005,
      "d": 1751.8080000000045,
      "v": 50
    },
    {
      "midi": 42,
      "hit": false,
      "t": 120874.75199999909,
      "d": 9.123999999996158,
      "v": 70
    },
    {
      "midi": 36,
      "hit": false,
      "t": 120874.75199999909,
      "d": 9.123999999996158,
      "v": 84
    },
    {
      "midi": 78,
      "hit": false,
      "t": 120874.75199999959,
      "d": 209.85199999999895,
      "v": 60
    },
    {
      "midi": 38,
      "hit": false,
      "t": 120874.75199999964,
      "d": 647.8040000000037,
      "v": 110
    },
    {
      "midi": 74,
      "hit": false,
      "t": 120874.75199999976,
      "d": 182.47999999999593,
      "v": 120
    },
    {
      "midi": 74,
      "hit": false,
      "t": 120984.23999999976,
      "d": 182.47999999999593,
      "v": 120
    },
    {
      "midi": 81,
      "hit": false,
      "t": 121093.72799999958,
      "d": 209.85199999999895,
      "v": 60
    },
    {
      "midi": 72,
      "hit": false,
      "t": 121093.72799999976,
      "d": 182.47999999999593,
      "v": 120
    },
    {
      "midi": 74,
      "hit": false,
      "t": 121093.72799999976,
      "d": 182.47999999999593,
      "v": 120
    },
    {
      "midi": 72,
      "hit": false,
      "t": 121203.21599999975,
      "d": 182.47999999999593,
      "v": 120
    },
    {
      "midi": 42,
      "hit": false,
      "t": 121312.70399999908,
      "d": 9.123999999996158,
      "v": 70
    },
    {
      "midi": 86,
      "hit": false,
      "t": 121312.70399999958,
      "d": 209.85199999999895,
      "v": 60
    },
    {
      "midi": 76,
      "hit": false,
      "t": 121312.70399999975,
      "d": 182.47999999999593,
      "v": 120
    },
    {
      "midi": 72,
      "hit": false,
      "t": 121312.70399999975,
      "d": 182.47999999999593,
      "v": 120
    },
    {
      "midi": 76,
      "hit": false,
      "t": 121422.19199999975,
      "d": 182.47999999999593,
      "v": 120
    },
    {
      "midi": 42,
      "hit": false,
      "t": 121531.67999999908,
      "d": 9.123999999996158,
      "v": 70
    },
    {
      "midi": 36,
      "hit": false,
      "t": 121531.67999999908,
      "d": 9.123999999996158,
      "v": 84
    },
    {
      "midi": 78,
      "hit": false,
      "t": 121531.67999999957,
      "d": 209.85199999999895,
      "v": 60
    },
    {
      "midi": 38,
      "hit": false,
      "t": 121531.67999999964,
      "d": 209.85199999999895,
      "v": 110
    },
    {
      "midi": 74,
      "hit": false,
      "t": 121531.67999999975,
      "d": 401.4560000000056,
      "v": 120
    },
    {
      "midi": 76,
      "hit": false,
      "t": 121531.67999999975,
      "d": 182.47999999999593,
      "v": 120
    },
    {
      "midi": 74,
      "hit": false,
      "t": 121641.16799999974,
      "d": 401.4560000000056,
      "v": 120
    },
    {
      "midi": 42,
      "hit": false,
      "t": 121750.65599999907,
      "d": 9.123999999996158,
      "v": 70
    },
    {
      "midi": 38,
      "hit": false,
      "t": 121750.65599999907,
      "d": 9.123999999996158,
      "v": 84
    },
    {
      "midi": 81,
      "hit": false,
      "t": 121750.65599999957,
      "d": 209.85199999999895,
      "v": 60
    },
    {
      "midi": 38,
      "hit": false,
      "t": 121750.65599999964,
      "d": 209.85199999999895,
      "v": 110
    },
    {
      "midi": 74,
      "hit": false,
      "t": 121750.65599999974,
      "d": 401.4560000000056,
      "v": 120
    },
    {
      "midi": 42,
      "hit": false,
      "t": 121969.63199999907,
      "d": 9.123999999996158,
      "v": 70
    },
    {
      "midi": 86,
      "hit": false,
      "t": 121969.63199999956,
      "d": 209.85199999999895,
      "v": 60
    },
    {
      "midi": 33,
      "hit": false,
      "t": 121969.63199999963,
      "d": 428.82799999999406,
      "v": 110
    },
    {
      "midi": 72,
      "hit": false,
      "t": 121969.63199999975,
      "d": 401.4560000000056,
      "v": 120
    },
    {
      "midi": 72,
      "hit": false,
      "t": 122079.11999999975,
      "d": 401.4560000000056,
      "v": 120
    },
    {
      "midi": 42,
      "hit": false,
      "t": 122188.60799999906,
      "d": 9.123999999996158,
      "v": 70
    },
    {
      "midi": 41,
      "hit": false,
      "t": 122188.60799999906,
      "d": 9.123999999996158,
      "v": 84
    },
    {
      "midi": 78,
      "hit": false,
      "t": 122188.60799999956,
      "d": 209.85199999999895,
      "v": 60
    },
    {
      "midi": 72,
      "hit": false,
      "t": 122188.60799999975,
      "d": 401.4560000000056,
      "v": 120
    },
    {
      "midi": 41,
      "hit": false,
      "t": 122188.60800000017,
      "d": 9.123999999996158,
      "v": 42
    },
    {
      "midi": 42,
      "hit": false,
      "t": 122407.58399999906,
      "d": 9.123999999996158,
      "v": 70
    },
    {
      "midi": 36,
      "hit": false,
      "t": 122407.58399999906,
      "d": 9.123999999996158,
      "v": 84
    },
    {
      "midi": 81,
      "hit": false,
      "t": 122407.58399999955,
      "d": 209.85199999999895,
      "v": 60
    },
    {
      "midi": 38,
      "hit": false,
      "t": 122407.58399999962,
      "d": 866.7799999999988,
      "v": 110
    },
    {
      "midi": 74,
      "hit": false,
      "t": 122407.58399999976,
      "d": 401.4560000000056,
      "v": 120
    },
    {
      "midi": 74,
      "hit": false,
      "t": 122517.07199999975,
      "d": 401.4560000000056,
      "v": 120
    },
    {
      "midi": 62,
      "hit": false,
      "t": 122599.18800000005,
      "d": 1751.8080000000045,
      "v": 50
    },
    {
      "midi": 57,
      "hit": false,
      "t": 122599.18800000005,
      "d": 1751.8080000000045,
      "v": 50
    },
    {
      "midi": 53,
      "hit": false,
      "t": 122599.18800000005,
      "d": 1751.8080000000045,
      "v": 50
    },
    {
      "midi": 42,
      "hit": false,
      "t": 122626.55999999905,
      "d": 9.123999999996158,
      "v": 70
    },
    {
      "midi": 77,
      "hit": false,
      "t": 122626.55999999955,
      "d": 209.85199999999895,
      "v": 60
    },
    {
      "midi": 74,
      "hit": false,
      "t": 122626.55999999975,
      "d": 401.4560000000056,
      "v": 120
    },
    {
      "midi": 81,
      "hit": false,
      "t": 122845.53599999954,
      "d": 209.85199999999895,
      "v": 60
    },
    {
      "midi": 42,
      "hit": false,
      "t": 123064.51199999904,
      "d": 9.123999999996158,
      "v": 70
    },
    {
      "midi": 86,
      "hit": false,
      "t": 123064.51199999954,
      "d": 209.85199999999895,
      "v": 60
    },
    {
      "midi": 42,
      "hit": false,
      "t": 123283.48799999904,
      "d": 9.123999999996158,
      "v": 70
    },
    {
      "midi": 36,
      "hit": false,
      "t": 123283.48799999904,
      "d": 9.123999999996158,
      "v": 84
    },
    {
      "midi": 77,
      "hit": false,
      "t": 123283.48799999953,
      "d": 209.85199999999895,
      "v": 60
    },
    {
      "midi": 38,
      "hit": false,
      "t": 123283.48799999962,
      "d": 209.85199999999895,
      "v": 110
    },
    {
      "midi": 42,
      "hit": false,
      "t": 123502.46399999903,
      "d": 9.123999999996158,
      "v": 70
    },
    {
      "midi": 38,
      "hit": false,
      "t": 123502.46399999903,
      "d": 9.123999999996158,
      "v": 84
    },
    {
      "midi": 81,
      "hit": false,
      "t": 123502.46399999953,
      "d": 209.85199999999895,
      "v": 60
    },
    {
      "midi": 38,
      "hit": false,
      "t": 123502.46399999961,
      "d": 866.7799999999552,
      "v": 110
    },
    {
      "midi": 42,
      "hit": false,
      "t": 123721.43999999903,
      "d": 9.123999999996158,
      "v": 70
    },
    {
      "midi": 86,
      "hit": false,
      "t": 123721.43999999952,
      "d": 209.85199999999895,
      "v": 60
    },
    {
      "midi": 42,
      "hit": false,
      "t": 123940.41599999902,
      "d": 9.123999999996158,
      "v": 70
    },
    {
      "midi": 38,
      "hit": false,
      "t": 123940.41599999902,
      "d": 9.123999999996158,
      "v": 84
    },
    {
      "midi": 77,
      "hit": false,
      "t": 123940.41599999952,
      "d": 209.85199999999895,
      "v": 60
    },
    {
      "midi": 74,
      "hit": false,
      "t": 123940.41599999976,
      "d": 401.4560000000056,
      "v": 120
    },
    {
      "midi": 74,
      "hit": false,
      "t": 124049.90399999976,
      "d": 401.4560000000056,
      "v": 120
    },
    {
      "midi": 42,
      "hit": false,
      "t": 124159.39199999902,
      "d": 9.123999999996158,
      "v": 70
    },
    {
      "midi": 81,
      "hit": false,
      "t": 124159.39199999951,
      "d": 209.85199999999895,
      "v": 60
    },
    {
      "midi": 74,
      "hit": false,
      "t": 124159.39199999976,
      "d": 401.4560000000056,
      "v": 120
    },
    {
      "midi": 64,
      "hit": false,
      "t": 124350.99600000006,
      "d": 1751.8080000000045,
      "v": 50
    },
    {
      "midi": 59,
      "hit": false,
      "t": 124350.99600000006,
      "d": 1751.8080000000045,
      "v": 50
    },
    {
      "midi": 56,
      "hit": false,
      "t": 124350.99600000006,
      "d": 1751.8080000000045,
      "v": 50
    },
    {
      "midi": 40,
      "hit": false,
      "t": 124369.24399999957,
      "d": 647.8040000000037,
      "v": 110
    },
    {
      "midi": 42,
      "hit": false,
      "t": 124378.36799999901,
      "d": 9.123999999996158,
      "v": 70
    },
    {
      "midi": 36,
      "hit": false,
      "t": 124378.36799999901,
      "d": 9.123999999996158,
      "v": 84
    },
    {
      "midi": 80,
      "hit": false,
      "t": 124378.36799999951,
      "d": 866.7799999999988,
      "v": 60
    },
    {
      "midi": 83,
      "hit": false,
      "t": 124378.36799999951,
      "d": 866.7799999999988,
      "v": 60
    },
    {
      "midi": 76,
      "hit": false,
      "t": 124378.36799999951,
      "d": 866.7799999999988,
      "v": 60
    },
    {
      "midi": 74,
      "hit": false,
      "t": 124378.36799999977,
      "d": 182.47999999999593,
      "v": 120
    },
    {
      "midi": 74,
      "hit": false,
      "t": 124487.85599999977,
      "d": 182.47999999999593,
      "v": 120
    },
    {
      "midi": 74,
      "hit": false,
      "t": 124597.34399999976,
      "d": 182.47999999999593,
      "v": 120
    },
    {
      "midi": 74,
      "hit": false,
      "t": 124597.34399999976,
      "d": 182.47999999999593,
      "v": 120
    },
    {
      "midi": 74,
      "hit": false,
      "t": 124706.83199999976,
      "d": 182.47999999999593,
      "v": 120
    },
    {
      "midi": 42,
      "hit": false,
      "t": 124816.319999999,
      "d": 9.123999999996158,
      "v": 70
    },
    {
      "midi": 74,
      "hit": false,
      "t": 124816.31999999976,
      "d": 182.47999999999593,
      "v": 120
    },
    {
      "midi": 74,
      "hit": false,
      "t": 124816.31999999976,
      "d": 182.47999999999593,
      "v": 120
    },
    {
      "midi": 74,
      "hit": false,
      "t": 124925.80799999976,
      "d": 182.47999999999593,
      "v": 120
    },
    {
      "midi": 40,
      "hit": false,
      "t": 125026.17199999957,
      "d": 209.85199999999895,
      "v": 110
    },
    {
      "midi": 42,
      "hit": false,
      "t": 125035.295999999,
      "d": 9.123999999996158,
      "v": 70
    },
    {
      "midi": 36,
      "hit": false,
      "t": 125035.295999999,
      "d": 9.123999999996158,
      "v": 84
    },
    {
      "midi": 74,
      "hit": false,
      "t": 125035.29599999975,
      "d": 401.4560000000056,
      "v": 120
    },
    {
      "midi": 74,
      "hit": false,
      "t": 125035.29599999975,
      "d": 182.47999999999593,
      "v": 120
    },
    {
      "midi": 74,
      "hit": false,
      "t": 125144.78399999975,
      "d": 401.4560000000056,
      "v": 120
    },
    {
      "midi": 40,
      "hit": false,
      "t": 125245.14799999956,
      "d": 866.7799999999988,
      "v": 110
    },
    {
      "midi": 42,
      "hit": false,
      "t": 125254.271999999,
      "d": 9.123999999996158,
      "v": 70
    },
    {
      "midi": 38,
      "hit": false,
      "t": 125254.271999999,
      "d": 9.123999999996158,
      "v": 84
    },
    {
      "midi": 74,
      "hit": false,
      "t": 125254.27199999975,
      "d": 401.4560000000056,
      "v": 120
    },
    {
      "midi": 42,
      "hit": false,
      "t": 125473.24799999899,
      "d": 9.123999999996158,
      "v": 70
    },
    {
      "midi": 74,
      "hit": false,
      "t": 125473.24799999976,
      "d": 182.47999999999593,
      "v": 120
    },
    {
      "midi": 74,
      "hit": false,
      "t": 125582.73599999976,
      "d": 182.47999999999593,
      "v": 120
    },
    {
      "midi": 42,
      "hit": false,
      "t": 125692.22399999898,
      "d": 9.123999999996158,
      "v": 70
    },
    {
      "midi": 41,
      "hit": false,
      "t": 125692.22399999898,
      "d": 9.123999999996158,
      "v": 84
    },
    {
      "midi": 74,
      "hit": false,
      "t": 125692.22399999975,
      "d": 182.47999999999593,
      "v": 120
    },
    {
      "midi": 74,
      "hit": false,
      "t": 125692.22399999975,
      "d": 182.47999999999593,
      "v": 120
    },
    {
      "midi": 41,
      "hit": false,
      "t": 125692.22400000016,
      "d": 9.123999999996158,
      "v": 42
    },
    {
      "midi": 74,
      "hit": false,
      "t": 125801.71199999975,
      "d": 182.47999999999593,
      "v": 120
    },
    {
      "midi": 42,
      "hit": false,
      "t": 125911.19999999898,
      "d": 9.123999999996158,
      "v": 70
    },
    {
      "midi": 74,
      "hit": false,
      "t": 125911.19999999975,
      "d": 182.47999999999593,
      "v": 120
    },
    {
      "midi": 74,
      "hit": false,
      "t": 125911.19999999975,
      "d": 182.47999999999593,
      "v": 120
    },
    {
      "midi": 74,
      "hit": false,
      "t": 126020.68799999975,
      "d": 182.47999999999593,
      "v": 120
    },
    {
      "midi": 59,
      "hit": false,
      "t": 126102.80400000006,
      "d": 1094.8800000000047,
      "v": 50
    },
    {
      "midi": 56,
      "hit": false,
      "t": 126102.80400000006,
      "d": 1094.8800000000047,
      "v": 50
    },
    {
      "midi": 52,
      "hit": false,
      "t": 126102.80400000006,
      "d": 1094.8800000000047,
      "v": 50
    },
    {
      "midi": 32,
      "hit": false,
      "t": 126121.05199999956,
      "d": 647.8040000000037,
      "v": 110
    },
    {
      "midi": 49,
      "hit": false,
      "t": 126130.17599999897,
      "d": 9.123999999996158,
      "v": 84
    },
    {
      "midi": 36,
      "hit": false,
      "t": 126130.17599999897,
      "d": 9.123999999996158,
      "v": 84
    },
    {
      "midi": 71,
      "hit": false,
      "t": 126130.17599999951,
      "d": 647.8040000000037,
      "v": 60
    },
    {
      "midi": 80,
      "hit": false,
      "t": 126130.17599999951,
      "d": 647.8040000000037,
      "v": 60
    },
    {
      "midi": 76,
      "hit": false,
      "t": 126130.17599999951,
      "d": 647.8040000000037,
      "v": 60
    },
    {
      "midi": 74,
      "hit": false,
      "t": 126130.17599999974,
      "d": 182.47999999999593,
      "v": 120
    },
    {
      "midi": 74,
      "hit": false,
      "t": 126130.17599999974,
      "d": 182.47999999999593,
      "v": 120
    },
    {
      "midi": 68,
      "hit": false,
      "t": 126130.17599999982,
      "d": 620.4320000000007,
      "v": 60
    },
    {
      "midi": 62,
      "hit": false,
      "t": 126130.17599999982,
      "d": 620.4320000000007,
      "v": 60
    },
    {
      "midi": 59,
      "hit": false,
      "t": 126130.17599999982,
      "d": 620.4320000000007,
      "v": 60
    },
    {
      "midi": 74,
      "hit": false,
      "t": 126239.66399999974,
      "d": 182.47999999999593,
      "v": 120
    },
    {
      "midi": 76,
      "hit": false,
      "t": 126349.15199999974,
      "d": 182.47999999999593,
      "v": 120
    },
    {
      "midi": 74,
      "hit": false,
      "t": 126349.15199999974,
      "d": 182.47999999999593,
      "v": 120
    },
    {
      "midi": 76,
      "hit": false,
      "t": 126458.63999999974,
      "d": 182.47999999999593,
      "v": 120
    },
    {
      "midi": 42,
      "hit": false,
      "t": 126568.12799999896,
      "d": 9.123999999996158,
      "v": 70
    },
    {
      "midi": 38,
      "hit": false,
      "t": 126568.12799999896,
      "d": 9.123999999996158,
      "v": 84
    },
    {
      "midi": 77,
      "hit": false,
      "t": 126568.12799999974,
      "d": 182.47999999999593,
      "v": 120
    },
    {
      "midi": 76,
      "hit": false,
      "t": 126568.12799999974,
      "d": 182.47999999999593,
      "v": 120
    },
    {
      "midi": 77,
      "hit": false,
      "t": 126677.61599999973,
      "d": 182.47999999999593,
      "v": 120
    },
    {
      "midi": 35,
      "hit": false,
      "t": 126777.97999999956,
      "d": 647.8040000000037,
      "v": 110
    },
    {
      "midi": 49,
      "hit": false,
      "t": 126787.10399999896,
      "d": 9.123999999996158,
      "v": 84
    },
    {
      "midi": 36,
      "hit": false,
      "t": 126787.10399999896,
      "d": 9.123999999996158,
      "v": 84
    },
    {
      "midi": 76,
      "hit": false,
      "t": 126787.10399999951,
      "d": 647.8040000000037,
      "v": 60
    },
    {
      "midi": 80,
      "hit": false,
      "t": 126787.10399999951,
      "d": 647.8040000000037,
      "v": 60
    },
    {
      "midi": 83,
      "hit": false,
      "t": 126787.10399999951,
      "d": 647.8040000000037,
      "v": 60
    },
    {
      "midi": 79,
      "hit": false,
      "t": 126787.10399999973,
      "d": 401.4560000000056,
      "v": 120
    },
    {
      "midi": 77,
      "hit": false,
      "t": 126787.10399999973,
      "d": 182.47999999999593,
      "v": 120
    },
    {
      "midi": 68,
      "hit": false,
      "t": 126787.10399999982,
      "d": 620.4320000000007,
      "v": 60
    },
    {
      "midi": 62,
      "hit": false,
      "t": 126787.10399999982,
      "d": 620.4320000000007,
      "v": 60
    },
    {
      "midi": 59,
      "hit": false,
      "t": 126787.10399999982,
      "d": 620.4320000000007,
      "v": 60
    },
    {
      "midi": 79,
      "hit": false,
      "t": 126896.59199999973,
      "d": 401.4560000000056,
      "v": 120
    },
    {
      "midi": 42,
      "hit": false,
      "t": 127006.07999999895,
      "d": 9.123999999996158,
      "v": 70
    },
    {
      "midi": 79,
      "hit": false,
      "t": 127006.07999999973,
      "d": 401.4560000000056,
      "v": 120
    },
    {
      "midi": 42,
      "hit": false,
      "t": 127225.05599999895,
      "d": 9.123999999996158,
      "v": 70
    },
    {
      "midi": 41,
      "hit": false,
      "t": 127225.05599999895,
      "d": 9.123999999996158,
      "v": 84
    },
    {
      "midi": 77,
      "hit": false,
      "t": 127225.05599999973,
      "d": 182.47999999999593,
      "v": 120
    },
    {
      "midi": 41,
      "hit": false,
      "t": 127225.05600000016,
      "d": 9.123999999996158,
      "v": 42
    },
    {
      "midi": 77,
      "hit": false,
      "t": 127334.54399999973,
      "d": 182.47999999999593,
      "v": 120
    },
    {
      "midi": 40,
      "hit": false,
      "t": 127434.90799999956,
      "d": 647.8040000000037,
      "v": 110
    },
    {
      "midi": 42,
      "hit": false,
      "t": 127444.03199999894,
      "d": 9.123999999996158,
      "v": 70
    },
    {
      "midi": 48,
      "hit": false,
      "t": 127444.03199999894,
      "d": 9.123999999996158,
      "v": 84
    },
    {
      "midi": 80,
      "hit": false,
      "t": 127444.03199999951,
      "d": 428.82799999999406,
      "v": 60
    },
    {
      "midi": 83,
      "hit": false,
      "t": 127444.03199999951,
      "d": 428.82799999999406,
      "v": 60
    },
    {
      "midi": 86,
      "hit": false,
      "t": 127444.03199999951,
      "d": 428.82799999999406,
      "v": 60
    },
    {
      "midi": 76,
      "hit": false,
      "t": 127444.03199999973,
      "d": 401.4560000000056,
      "v": 120
    },
    {
      "midi": 77,
      "hit": false,
      "t": 127444.03199999973,
      "d": 182.47999999999593,
      "v": 120
    },
    {
      "midi": 59,
      "hit": false,
      "t": 127444.03199999982,
      "d": 2180.635999999984,
      "v": 100
    },
    {
      "midi": 62,
      "hit": false,
      "t": 127444.03199999982,
      "d": 2180.635999999984,
      "v": 100
    },
    {
      "midi": 68,
      "hit": false,
      "t": 127444.03199999982,
      "d": 2180.635999999984,
      "v": 100
    },
    {
      "midi": 48,
      "hit": false,
      "t": 127444.03200000015,
      "d": 9.123999999996158,
      "v": 42
    },
    {
      "midi": 76,
      "hit": false,
      "t": 127553.51999999973,
      "d": 401.4560000000056,
      "v": 120
    },
    {
      "midi": 42,
      "hit": false,
      "t": 127663.00799999894,
      "d": 9.123999999996158,
      "v": 70
    },
    {
      "midi": 45,
      "hit": false,
      "t": 127663.00799999894,
      "d": 9.123999999996158,
      "v": 84
    },
    {
      "midi": 76,
      "hit": false,
      "t": 127663.00799999973,
      "d": 401.4560000000056,
      "v": 120
    },
    {
      "midi": 45,
      "hit": false,
      "t": 127663.00800000015,
      "d": 9.123999999996158,
      "v": 42
    },
    {
      "midi": 42,
      "hit": false,
      "t": 127881.98399999893,
      "d": 9.123999999996158,
      "v": 70
    },
    {
      "midi": 52,
      "hit": false,
      "t": 128091.83599999956,
      "d": 428.82799999999406,
      "v": 110
    },
    {
      "midi": 42,
      "hit": false,
      "t": 128319.93599999892,
      "d": 9.123999999996158,
      "v": 70
    },
    {
      "midi": 38,
      "hit": false,
      "t": 128319.93599999892,
      "d": 9.123999999996158,
      "v": 84
    },
    {
      "midi": 50,
      "hit": false,
      "t": 128529.78799999955,
      "d": 428.82799999999406,
      "v": 110
    },
    {
      "midi": 42,
      "hit": false,
      "t": 128538.91199999892,
      "d": 9.123999999996158,
      "v": 70
    },
    {
      "midi": 36,
      "hit": false,
      "t": 128538.91199999892,
      "d": 9.123999999996158,
      "v": 84
    },
    {
      "midi": 42,
      "hit": false,
      "t": 128757.88799999891,
      "d": 9.123999999996158,
      "v": 70
    },
    {
      "midi": 47,
      "hit": false,
      "t": 128967.73999999954,
      "d": 647.803999999931,
      "v": 110
    },
    {
      "midi": 42,
      "hit": false,
      "t": 128976.86399999891,
      "d": 9.123999999996158,
      "v": 70
    },
    {
      "midi": 36,
      "hit": false,
      "t": 128976.86399999891,
      "d": 9.123999999996158,
      "v": 84
    },
    {
      "midi": 42,
      "hit": false,
      "t": 129195.8399999989,
      "d": 9.123999999996158,
      "v": 70
    },
    {
      "midi": 38,
      "hit": false,
      "t": 129195.8399999989,
      "d": 9.123999999996158,
      "v": 84
    },
    {
      "midi": 42,
      "hit": false,
      "t": 129414.8159999989,
      "d": 9.123999999996158,
      "v": 70
    },
    {
      "midi": 40,
      "hit": false,
      "t": 129624.66799999947,
      "d": 1742.6839999999938,
      "v": 110
    },
    {
      "midi": 83,
      "hit": false,
      "t": 129633.7919999989,
      "d": 9.123999999996158,
      "v": 60
    },
    {
      "midi": 55,
      "hit": false,
      "t": 129633.7919999989,
      "d": 9.123999999996158,
      "v": 80
    },
    {
      "midi": 71,
      "hit": false,
      "t": 129633.7919999998,
      "d": 1742.6839999999938,
      "v": 100
    },
    {
      "midi": 68,
      "hit": false,
      "t": 129633.7919999998,
      "d": 1742.6839999999938,
      "v": 100
    },
    {
      "midi": 62,
      "hit": false,
      "t": 129633.7919999998,
      "d": 1742.6839999999938,
      "v": 100
    },
    {
      "midi": 42,
      "hit": false,
      "t": 130071.7439999989,
      "d": 9.123999999996158,
      "v": 70
    },
    {
      "midi": 48,
      "hit": false,
      "t": 130071.7439999989,
      "d": 9.123999999996158,
      "v": 28
    },
    {
      "midi": 48,
      "hit": false,
      "t": 130290.7199999989,
      "d": 9.123999999996158,
      "v": 42
    },
    {
      "midi": 42,
      "hit": false,
      "t": 130509.69599999889,
      "d": 9.123999999996158,
      "v": 70
    },
    {
      "midi": 48,
      "hit": false,
      "t": 130509.69599999889,
      "d": 9.123999999996158,
      "v": 56
    },
    {
      "midi": 100,
      "hit": false,
      "t": 130509.6959999995,
      "d": 428.82799999999406,
      "v": 127
    },
    {
      "midi": 76,
      "hit": false,
      "t": 130509.6959999995,
      "d": 428.82799999999406,
      "v": 60
    },
    {
      "midi": 38,
      "hit": false,
      "t": 130728.67199999889,
      "d": 9.123999999996158,
      "v": 56
    },
    {
      "midi": 42,
      "hit": false,
      "t": 130947.64799999888,
      "d": 9.123999999996158,
      "v": 70
    },
    {
      "midi": 38,
      "hit": false,
      "t": 130947.64799999888,
      "d": 9.123999999996158,
      "v": 70
    },
    {
      "midi": 101,
      "hit": false,
      "t": 130947.64799999949,
      "d": 428.8280000000086,
      "v": 127
    },
    {
      "midi": 77,
      "hit": false,
      "t": 130947.64799999949,
      "d": 428.8280000000086,
      "v": 60
    },
    {
      "midi": 38,
      "hit": false,
      "t": 131166.62399999888,
      "d": 9.12400000001071,
      "v": 84
    },
    {
      "midi": 79,
      "hit": false,
      "t": 131358.22800000006,
      "d": 1751.80799999999,
      "v": 50
    },
    {
      "midi": 74,
      "hit": false,
      "t": 131358.22800000006,
      "d": 1751.80799999999,
      "v": 50
    },
    {
      "midi": 62,
      "hit": false,
      "t": 131358.22800000006,
      "d": 1751.80799999999,
      "v": 50
    },
    {
      "midi": 33,
      "hit": false,
      "t": 131376.47599999947,
      "d": 273.72000000000116,
      "v": 110
    },
    {
      "midi": 49,
      "hit": false,
      "t": 131385.5999999989,
      "d": 9.12400000001071,
      "v": 62
    },
    {
      "midi": 36,
      "hit": false,
      "t": 131385.5999999989,
      "d": 9.12400000001071,
      "v": 76
    },
    {
      "midi": 103,
      "hit": false,
      "t": 131385.5999999995,
      "d": 866.7799999999988,
      "v": 127
    },
    {
      "midi": 79,
      "hit": false,
      "t": 131385.5999999995,
      "d": 866.7799999999988,
      "v": 60
    },
    {
      "midi": 79,
      "hit": false,
      "t": 131385.59999999974,
      "d": 182.48000000001048,
      "v": 120
    },
    {
      "midi": 79,
      "hit": false,
      "t": 131495.08799999973,
      "d": 182.48000000001048,
      "v": 120
    },
    {
      "midi": 42,
      "hit": false,
      "t": 131604.57599999892,
      "d": 9.12400000001071,
      "v": 70
    },
    {
      "midi": 79,
      "hit": false,
      "t": 131604.57599999974,
      "d": 182.48000000001048,
      "v": 120
    },
    {
      "midi": 42,
      "hit": false,
      "t": 131823.55199999895,
      "d": 9.12400000001071,
      "v": 98
    },
    {
      "midi": 38,
      "hit": false,
      "t": 131823.55199999895,
      "d": 9.12400000001071,
      "v": 76
    },
    {
      "midi": 79,
      "hit": false,
      "t": 131823.55199999976,
      "d": 182.48000000001048,
      "v": 120
    },
    {
      "midi": 79,
      "hit": false,
      "t": 131933.03999999975,
      "d": 182.48000000001048,
      "v": 120
    },
    {
      "midi": 33,
      "hit": false,
      "t": 132033.4039999995,
      "d": 273.72000000000116,
      "v": 110
    },
    {
      "midi": 42,
      "hit": false,
      "t": 132042.52799999897,
      "d": 9.12400000001071,
      "v": 70
    },
    {
      "midi": 36,
      "hit": false,
      "t": 132042.52799999897,
      "d": 9.12400000001071,
      "v": 76
    },
    {
      "midi": 79,
      "hit": false,
      "t": 132042.52799999976,
      "d": 182.48000000001048,
      "v": 120
    },
    {
      "midi": 42,
      "hit": false,
      "t": 132261.503999999,
      "d": 9.12400000001071,
      "v": 98
    },
    {
      "midi": 79,
      "hit": false,
      "t": 132261.50399999978,
      "d": 182.48000000001048,
      "v": 120
    },
    {
      "midi": 79,
      "hit": false,
      "t": 132370.99199999977,
      "d": 182.48000000001048,
      "v": 120
    },
    {
      "midi": 42,
      "hit": false,
      "t": 132480.47999999902,
      "d": 9.12400000001071,
      "v": 70
    },
    {
      "midi": 36,
      "hit": false,
      "t": 132480.47999999902,
      "d": 9.12400000001071,
      "v": 76
    },
    {
      "midi": 79,
      "hit": false,
      "t": 132480.47999999978,
      "d": 182.48000000001048,
      "v": 120
    },
    {
      "midi": 79,
      "hit": false,
      "t": 132480.4799999998,
      "d": 401.4560000000056,
      "v": 120
    },
    {
      "midi": 79,
      "hit": false,
      "t": 132589.9679999998,
      "d": 401.4560000000056,
      "v": 120
    },
    {
      "midi": 42,
      "hit": false,
      "t": 132699.45599999905,
      "d": 9.12400000001071,
      "v": 98
    },
    {
      "midi": 38,
      "hit": false,
      "t": 132699.45599999905,
      "d": 9.12400000001071,
      "v": 76
    },
    {
      "midi": 79,
      "hit": false,
      "t": 132699.4559999998,
      "d": 401.4560000000056,
      "v": 120
    },
    {
      "midi": 33,
      "hit": false,
      "t": 132909.3079999995,
      "d": 182.48000000001048,
      "v": 110
    },
    {
      "midi": 42,
      "hit": false,
      "t": 132918.43199999907,
      "d": 9.12400000001071,
      "v": 70
    },
    {
      "midi": 36,
      "hit": false,
      "t": 132918.43199999907,
      "d": 9.12400000001071,
      "v": 76
    },
    {
      "midi": 79,
      "hit": false,
      "t": 132918.43199999983,
      "d": 401.4560000000056,
      "v": 120
    },
    {
      "midi": 79,
      "hit": false,
      "t": 133027.9199999998,
      "d": 401.4560000000056,
      "v": 120
    },
    {
      "midi": 79,
      "hit": false,
      "t": 133110.03600000005,
      "d": 1751.80799999999,
      "v": 50
    },
    {
      "midi": 73,
      "hit": false,
      "t": 133110.03600000005,
      "d": 1751.80799999999,
      "v": 40
    },
    {
      "midi": 61,
      "hit": false,
      "t": 133110.03600000005,
      "d": 1751.80799999999,
      "v": 40
    },
    {
      "midi": 42,
      "hit": false,
      "t": 133137.4079999991,
      "d": 9.12400000001071,
      "v": 98
    },
    {
      "midi": 79,
      "hit": false,
      "t": 133137.40799999982,
      "d": 401.4560000000056,
      "v": 120
    },
    {
      "midi": 49,
      "hit": false,
      "t": 133347.2599999995,
      "d": 273.72000000000116,
      "v": 110
    },
    {
      "midi": 42,
      "hit": false,
      "t": 133356.38399999912,
      "d": 9.12400000001071,
      "v": 70
    },
    {
      "midi": 36,
      "hit": false,
      "t": 133356.38399999912,
      "d": 9.12400000001071,
      "v": 76
    },
    {
      "midi": 42,
      "hit": false,
      "t": 133575.35999999914,
      "d": 9.12400000001071,
      "v": 98
    },
    {
      "midi": 38,
      "hit": false,
      "t": 133575.35999999914,
      "d": 9.12400000001071,
      "v": 76
    },
    {
      "midi": 37,
      "hit": false,
      "t": 133785.2119999995,
      "d": 273.72000000000116,
      "v": 110
    },
    {
      "midi": 42,
      "hit": false,
      "t": 133794.33599999917,
      "d": 9.12400000001071,
      "v": 70
    },
    {
      "midi": 36,
      "hit": false,
      "t": 133794.33599999917,
      "d": 9.12400000001071,
      "v": 76
    },
    {
      "midi": 42,
      "hit": false,
      "t": 134013.3119999992,
      "d": 9.12400000001071,
      "v": 98
    },
    {
      "midi": 42,
      "hit": false,
      "t": 134232.28799999921,
      "d": 9.12400000001071,
      "v": 70
    },
    {
      "midi": 38,
      "hit": false,
      "t": 134232.28799999921,
      "d": 9.12400000001071,
      "v": 76
    },
    {
      "midi": 79,
      "hit": false,
      "t": 134232.28799999983,
      "d": 136.85999999998603,
      "v": 120
    },
    {
      "midi": 79,
      "hit": false,
      "t": 134341.7759999998,
      "d": 136.85999999998603,
      "v": 120
    },
    {
      "midi": 42,
      "hit": false,
      "t": 134451.26399999924,
      "d": 9.12400000001071,
      "v": 98
    },
    {
      "midi": 79,
      "hit": false,
      "t": 134451.26399999982,
      "d": 209.8520000000135,
      "v": 120
    },
    {
      "midi": 79,
      "hit": false,
      "t": 134451.26399999982,
      "d": 136.85999999998603,
      "v": 120
    },
    {
      "midi": 79,
      "hit": false,
      "t": 134560.7519999998,
      "d": 209.8520000000135,
      "v": 120
    },
    {
      "midi": 42,
      "hit": false,
      "t": 134670.23999999926,
      "d": 9.12400000001071,
      "v": 70
    },
    {
      "midi": 36,
      "hit": false,
      "t": 134670.23999999926,
      "d": 9.12400000001071,
      "v": 76
    },
    {
      "midi": 79,
      "hit": false,
      "t": 134670.23999999982,
      "d": 209.8520000000135,
      "v": 120
    },
    {
      "midi": 79,
      "hit": false,
      "t": 134670.23999999985,
      "d": 136.85999999998603,
      "v": 120
    },
    {
      "midi": 79,
      "hit": false,
      "t": 134779.72799999983,
      "d": 136.85999999998603,
      "v": 120
    },
    {
      "midi": 77,
      "hit": false,
      "t": 134861.84400000004,
      "d": 1751.80799999999,
      "v": 50
    },
    {
      "midi": 74,
      "hit": false,
      "t": 134861.84400000004,
      "d": 1751.80799999999,
      "v": 50
    },
    {
      "midi": 62,
      "hit": false,
      "t": 134861.84400000004,
      "d": 1751.80799999999,
      "v": 50
    },
    {
      "midi": 38,
      "hit": false,
      "t": 134880.0919999995,
      "d": 273.72000000000116,
      "v": 110
    },
    {
      "midi": 42,
      "hit": false,
      "t": 134889.2159999993,
      "d": 9.12400000001071,
      "v": 98
    },
    {
      "midi": 36,
      "hit": false,
      "t": 134889.2159999993,
      "d": 9.12400000001071,
      "v": 76
    },
    {
      "midi": 77,
      "hit": false,
      "t": 134889.21599999984,
      "d": 182.48000000001048,
      "v": 120
    },
    {
      "midi": 79,
      "hit": false,
      "t": 134889.21599999984,
      "d": 136.85999999998603,
      "v": 120
    },
    {
      "midi": 77,
      "hit": false,
      "t": 134998.70399999982,
      "d": 182.48000000001048,
      "v": 120
    },
    {
      "midi": 42,
      "hit": false,
      "t": 135108.1919999993,
      "d": 9.12400000001071,
      "v": 70
    },
    {
      "midi": 77,
      "hit": false,
      "t": 135108.19199999984,
      "d": 182.48000000001048,
      "v": 120
    },
    {
      "midi": 79,
      "hit": false,
      "t": 135108.19199999986,
      "d": 182.48000000001048,
      "v": 120
    },
    {
      "midi": 79,
      "hit": false,
      "t": 135217.67999999985,
      "d": 182.48000000001048,
      "v": 120
    },
    {
      "midi": 42,
      "hit": false,
      "t": 135327.16799999934,
      "d": 9.12400000001071,
      "v": 98
    },
    {
      "midi": 38,
      "hit": false,
      "t": 135327.16799999934,
      "d": 9.12400000001071,
      "v": 76
    },
    {
      "midi": 79,
      "hit": false,
      "t": 135327.16799999986,
      "d": 182.48000000001048,
      "v": 120
    },
    {
      "midi": 38,
      "hit": false,
      "t": 135537.01999999952,
      "d": 273.72000000000116,
      "v": 110
    },
    {
      "midi": 42,
      "hit": false,
      "t": 135546.14399999936,
      "d": 9.12400000001071,
      "v": 70
    },
    {
      "midi": 36,
      "hit": false,
      "t": 135546.14399999936,
      "d": 9.12400000001071,
      "v": 76
    },
    {
      "midi": 81,
      "hit": false,
      "t": 135546.14399999988,
      "d": 182.48000000001048,
      "v": 120
    },
    {
      "midi": 81,
      "hit": false,
      "t": 135655.63199999987,
      "d": 182.48000000001048,
      "v": 120
    },
    {
      "midi": 42,
      "hit": false,
      "t": 135765.11999999938,
      "d": 9.12400000001071,
      "v": 98
    },
    {
      "midi": 81,
      "hit": false,
      "t": 135765.11999999988,
      "d": 182.48000000001048,
      "v": 120
    },
    {
      "midi": 42,
      "hit": false,
      "t": 135984.0959999994,
      "d": 9.12400000001071,
      "v": 70
    },
    {
      "midi": 36,
      "hit": false,
      "t": 135984.0959999994,
      "d": 9.12400000001071,
      "v": 76
    },
    {
      "midi": 77,
      "hit": false,
      "t": 135984.0959999999,
      "d": 182.48000000001048,
      "v": 120
    },
    {
      "midi": 77,
      "hit": false,
      "t": 136093.5839999999,
      "d": 182.48000000001048,
      "v": 120
    },
    {
      "midi": 42,
      "hit": false,
      "t": 136203.07199999943,
      "d": 9.12400000001071,
      "v": 98
    },
    {
      "midi": 38,
      "hit": false,
      "t": 136203.07199999943,
      "d": 9.12400000001071,
      "v": 76
    },
    {
      "midi": 77,
      "hit": false,
      "t": 136203.0719999999,
      "d": 182.48000000001048,
      "v": 120
    },
    {
      "midi": 38,
      "hit": false,
      "t": 136412.92399999953,
      "d": 228.10000000000582,
      "v": 110
    },
    {
      "midi": 42,
      "hit": false,
      "t": 136422.04799999946,
      "d": 9.12400000001071,
      "v": 70
    },
    {
      "midi": 36,
      "hit": false,
      "t": 136422.04799999946,
      "d": 9.12400000001071,
      "v": 76
    },
    {
      "midi": 77,
      "hit": false,
      "t": 136422.04799999992,
      "d": 401.4560000000056,
      "v": 120
    },
    {
      "midi": 77,
      "hit": false,
      "t": 136531.5359999999,
      "d": 401.4560000000056,
      "v": 120
    },
    {
      "midi": 80,
      "hit": false,
      "t": 136613.65200000003,
      "d": 1751.80799999999,
      "v": 50
    },
    {
      "midi": 76,
      "hit": false,
      "t": 136613.65200000003,
      "d": 1751.80799999999,
      "v": 40
    },
    {
      "midi": 64,
      "hit": false,
      "t": 136613.65200000003,
      "d": 1751.80799999999,
      "v": 40
    },
    {
      "midi": 40,
      "hit": false,
      "t": 136631.89999999953,
      "d": 182.48000000001048,
      "v": 110
    },
    {
      "midi": 42,
      "hit": false,
      "t": 136641.02399999948,
      "d": 9.12400000001071,
      "v": 98
    },
    {
      "midi": 77,
      "hit": false,
      "t": 136641.02399999992,
      "d": 401.4560000000056,
      "v": 120
    },
    {
      "midi": 28,
      "hit": false,
      "t": 136850.87599999955,
      "d": 273.72000000000116,
      "v": 110
    },
    {
      "midi": 42,
      "hit": false,
      "t": 136859.9999999995,
      "d": 9.12400000001071,
      "v": 70
    },
    {
      "midi": 36,
      "hit": false,
      "t": 136859.9999999995,
      "d": 9.12400000001071,
      "v": 76
    },
    {
      "midi": 76,
      "hit": false,
      "t": 136859.99999999994,
      "d": 182.48000000001048,
      "v": 120
    },
    {
      "midi": 76,
      "hit": false,
      "t": 136969.48799999992,
      "d": 182.48000000001048,
      "v": 120
    },
    {
      "midi": 42,
      "hit": false,
      "t": 137078.97599999953,
      "d": 9.12400000001071,
      "v": 98
    },
    {
      "midi": 38,
      "hit": false,
      "t": 137078.97599999953,
      "d": 9.12400000001071,
      "v": 76
    },
    {
      "midi": 76,
      "hit": false,
      "t": 137078.97599999994,
      "d": 182.48000000001048,
      "v": 120
    },
    {
      "midi": 74,
      "hit": false,
      "t": 137078.97599999997,
      "d": 182.48000000001048,
      "v": 120
    },
    {
      "midi": 74,
      "hit": false,
      "t": 137188.46399999995,
      "d": 182.48000000001048,
      "v": 120
    },
    {
      "midi": 28,
      "hit": false,
      "t": 137288.82799999954,
      "d": 273.72000000000116,
      "v": 110
    },
    {
      "midi": 42,
      "hit": false,
      "t": 137297.95199999955,
      "d": 9.12400000001071,
      "v": 70
    },
    {
      "midi": 36,
      "hit": false,
      "t": 137297.95199999955,
      "d": 9.12400000001071,
      "v": 76
    },
    {
      "midi": 74,
      "hit": false,
      "t": 137297.95199999996,
      "d": 182.48000000001048,
      "v": 120
    },
    {
      "midi": 76,
      "hit": false,
      "t": 137297.952,
      "d": 182.48000000001048,
      "v": 120
    },
    {
      "midi": 76,
      "hit": false,
      "t": 137407.43999999997,
      "d": 182.48000000001048,
      "v": 120
    },
    {
      "midi": 42,
      "hit": false,
      "t": 137516.92799999958,
      "d": 9.12400000001071,
      "v": 98
    },
    {
      "midi": 76,
      "hit": false,
      "t": 137516.92799999999,
      "d": 182.48000000001048,
      "v": 120
    },
    {
      "midi": 42,
      "hit": false,
      "t": 137735.9039999996,
      "d": 9.12400000001071,
      "v": 70
    },
    {
      "midi": 38,
      "hit": false,
      "t": 137735.9039999996,
      "d": 9.12400000001071,
      "v": 76
    },
    {
      "midi": 42,
      "hit": false,
      "t": 137954.87999999963,
      "d": 9.12400000001071,
      "v": 98
    },
    {
      "midi": 76,
      "hit": false,
      "t": 137954.88,
      "d": 182.48000000001048,
      "v": 120
    },
    {
      "midi": 76,
      "hit": false,
      "t": 138064.368,
      "d": 182.48000000001048,
      "v": 120
    },
    {
      "midi": 42,
      "hit": false,
      "t": 138173.85599999965,
      "d": 9.12400000001071,
      "v": 70
    },
    {
      "midi": 36,
      "hit": false,
      "t": 138173.85599999965,
      "d": 9.12400000001071,
      "v": 76
    },
    {
      "midi": 76,
      "hit": false,
      "t": 138173.856,
      "d": 182.48000000001048,
      "v": 120
    },
    {
      "midi": 81,
      "hit": false,
      "t": 138365.46000000002,
      "d": 656.9280000000144,
      "v": 50
    },
    {
      "midi": 76,
      "hit": false,
      "t": 138365.46000000002,
      "d": 656.9280000000144,
      "v": 40
    },
    {
      "midi": 64,
      "hit": false,
      "t": 138365.46000000002,
      "d": 656.9280000000144,
      "v": 40
    },
    {
      "midi": 33,
      "hit": false,
      "t": 138383.70799999955,
      "d": 401.4560000000056,
      "v": 110
    },
    {
      "midi": 93,
      "hit": false,
      "t": 138392.8319999995,
      "d": 1742.6840000000084,
      "v": 127
    },
    {
      "midi": 69,
      "hit": false,
      "t": 138392.8319999995,
      "d": 1742.6840000000084,
      "v": 60
    },
    {
      "midi": 42,
      "hit": false,
      "t": 138392.83199999967,
      "d": 9.12400000001071,
      "v": 98
    },
    {
      "midi": 36,
      "hit": false,
      "t": 138392.83199999967,
      "d": 9.12400000001071,
      "v": 76
    },
    {
      "midi": 72,
      "hit": false,
      "t": 138392.83200000002,
      "d": 182.48000000001048,
      "v": 120
    },
    {
      "midi": 72,
      "hit": false,
      "t": 138502.32,
      "d": 182.48000000001048,
      "v": 120
    },
    {
      "midi": 42,
      "hit": false,
      "t": 138611.8079999997,
      "d": 9.12400000001071,
      "v": 70
    },
    {
      "midi": 72,
      "hit": false,
      "t": 138611.80800000002,
      "d": 182.48000000001048,
      "v": 120
    },
    {
      "midi": 42,
      "hit": false,
      "t": 138830.78399999972,
      "d": 9.12400000001071,
      "v": 98
    },
    {
      "midi": 38,
      "hit": false,
      "t": 138830.78399999972,
      "d": 9.12400000001071,
      "v": 76
    },
    {
      "midi": 74,
      "hit": false,
      "t": 138830.78400000004,
      "d": 182.48000000001048,
      "v": 120
    },
    {
      "midi": 74,
      "hit": false,
      "t": 138940.27200000003,
      "d": 182.48000000001048,
      "v": 120
    },
    {
      "midi": 79,
      "hit": false,
      "t": 139022.38800000004,
      "d": 1094.8800000000047,
      "v": 50
    },
    {
      "midi": 76,
      "hit": false,
      "t": 139022.38800000004,
      "d": 1094.8800000000047,
      "v": 40
    },
    {
      "midi": 64,
      "hit": false,
      "t": 139022.38800000004,
      "d": 1094.8800000000047,
      "v": 40
    },
    {
      "midi": 31,
      "hit": false,
      "t": 139040.63599999956,
      "d": 1058.383999999991,
      "v": 110
    },
    {
      "midi": 42,
      "hit": false,
      "t": 139049.75999999975,
      "d": 9.12400000001071,
      "v": 70
    },
    {
      "midi": 36,
      "hit": false,
      "t": 139049.75999999975,
      "d": 9.12400000001071,
      "v": 76
    },
    {
      "midi": 74,
      "hit": false,
      "t": 139049.76000000004,
      "d": 182.48000000001048,
      "v": 120
    },
    {
      "midi": 76,
      "hit": false,
      "t": 139049.76000000007,
      "d": 182.48000000001048,
      "v": 120
    },
    {
      "midi": 76,
      "hit": false,
      "t": 139159.24800000005,
      "d": 182.48000000001048,
      "v": 120
    },
    {
      "midi": 42,
      "hit": false,
      "t": 139268.73599999977,
      "d": 9.12400000001071,
      "v": 98
    },
    {
      "midi": 76,
      "hit": false,
      "t": 139268.73600000006,
      "d": 182.48000000001048,
      "v": 120
    },
    {
      "midi": 42,
      "hit": false,
      "t": 139487.7119999998,
      "d": 9.12400000001071,
      "v": 70
    },
    {
      "midi": 36,
      "hit": false,
      "t": 139487.7119999998,
      "d": 9.12400000001071,
      "v": 84
    },
    {
      "midi": 42,
      "hit": false,
      "t": 139706.68799999982,
      "d": 9.12400000001071,
      "v": 98
    },
    {
      "midi": 38,
      "hit": false,
      "t": 139706.68799999982,
      "d": 9.12400000001071,
      "v": 84
    },
    {
      "midi": 76,
      "hit": false,
      "t": 139706.68800000008,
      "d": 182.48000000001048,
      "v": 120
    },
    {
      "midi": 76,
      "hit": false,
      "t": 139816.17600000006,
      "d": 182.48000000001048,
      "v": 120
    },
    {
      "midi": 42,
      "hit": false,
      "t": 139925.66399999984,
      "d": 9.12400000001071,
      "v": 70
    },
    {
      "midi": 76,
      "hit": false,
      "t": 139925.66400000008,
      "d": 182.48000000001048,
      "v": 120
    },
    {
      "midi": 81,
      "hit": false,
      "t": 140117.26800000004,
      "d": 656.9280000000144,
      "v": 50
    },
    {
      "midi": 76,
      "hit": false,
      "t": 140117.26800000004,
      "d": 656.9280000000144,
      "v": 40
    },
    {
      "midi": 64,
      "hit": false,
      "t": 140117.26800000004,
      "d": 656.9280000000144,
      "v": 40
    },
    {
      "midi": 29,
      "hit": false,
      "t": 140135.51599999957,
      "d": 401.4560000000056,
      "v": 110
    },
    {
      "midi": 93,
      "hit": false,
      "t": 140144.63999999952,
      "d": 647.8040000000037,
      "v": 127
    },
    {
      "midi": 69,
      "hit": false,
      "t": 140144.63999999952,
      "d": 647.8040000000037,
      "v": 60
    },
    {
      "midi": 42,
      "hit": false,
      "t": 140144.63999999987,
      "d": 9.12400000001071,
      "v": 98
    },
    {
      "midi": 36,
      "hit": false,
      "t": 140144.63999999987,
      "d": 9.12400000001071,
      "v": 76
    },
    {
      "midi": 74,
      "hit": false,
      "t": 140144.6400000001,
      "d": 182.48000000001048,
      "v": 120
    },
    {
      "midi": 74,
      "hit": false,
      "t": 140254.12800000008,
      "d": 182.48000000001048,
      "v": 120
    },
    {
      "midi": 42,
      "hit": false,
      "t": 140363.6159999999,
      "d": 9.12400000001071,
      "v": 70
    },
    {
      "midi": 36,
      "hit": false,
      "t": 140363.6159999999,
      "d": 9.12400000001071,
      "v": 84
    },
    {
      "midi": 74,
      "hit": false,
      "t": 140363.6160000001,
      "d": 182.48000000001048,
      "v": 120
    },
    {
      "midi": 42,
      "hit": false,
      "t": 140582.59199999992,
      "d": 9.12400000001071,
      "v": 98
    },
    {
      "midi": 38,
      "hit": false,
      "t": 140582.59199999992,
      "d": 9.12400000001071,
      "v": 76
    },
    {
      "midi": 76,
      "hit": false,
      "t": 140582.59200000012,
      "d": 182.48000000001048,
      "v": 120
    },
    {
      "midi": 76,
      "hit": false,
      "t": 140692.0800000001,
      "d": 182.48000000001048,
      "v": 120
    },
    {
      "midi": 77,
      "hit": false,
      "t": 140774.19600000005,
      "d": 1094.8800000000047,
      "v": 50
    },
    {
      "midi": 74,
      "hit": false,
      "t": 140774.19600000005,
      "d": 1094.8800000000047,
      "v": 50
    },
    {
      "midi": 62,
      "hit": false,
      "t": 140774.19600000005,
      "d": 1094.8800000000047,
      "v": 40
    },
    {
      "midi": 28,
      "hit": false,
      "t": 140792.44399999958,
      "d": 1058.383999999991,
      "v": 110
    },
    {
      "midi": 95,
      "hit": false,
      "t": 140801.56799999953,
      "d": 1085.755999999994,
      "v": 127
    },
    {
      "midi": 71,
      "hit": false,
      "t": 140801.56799999953,
      "d": 1085.755999999994,
      "v": 60
    },
    {
      "midi": 42,
      "hit": false,
      "t": 140801.56799999994,
      "d": 9.12400000001071,
      "v": 70
    },
    {
      "midi": 36,
      "hit": false,
      "t": 140801.56799999994,
      "d": 9.12400000001071,
      "v": 76
    },
    {
      "midi": 76,
      "hit": false,
      "t": 140801.56800000012,
      "d": 182.48000000001048,
      "v": 120
    },
    {
      "midi": 77,
      "hit": false,
      "t": 140801.56800000014,
      "d": 182.48000000001048,
      "v": 120
    },
    {
      "midi": 77,
      "hit": false,
      "t": 140911.05600000013,
      "d": 182.48000000001048,
      "v": 120
    },
    {
      "midi": 42,
      "hit": false,
      "t": 141020.54399999997,
      "d": 9.12400000001071,
      "v": 98
    },
    {
      "midi": 77,
      "hit": false,
      "t": 141020.54400000014,
      "d": 182.48000000001048,
      "v": 120
    },
    {
      "midi": 42,
      "hit": false,
      "t": 141239.52,
      "d": 9.12400000001071,
      "v": 70
    },
    {
      "midi": 38,
      "hit": false,
      "t": 141239.52,
      "d": 9.12400000001071,
      "v": 84
    },
    {
      "midi": 77,
      "hit": false,
      "t": 141239.52000000016,
      "d": 401.4560000000056,
      "v": 120
    },
    {
      "midi": 77,
      "hit": false,
      "t": 141349.00800000015,
      "d": 401.4560000000056,
      "v": 120
    },
    {
      "midi": 42,
      "hit": false,
      "t": 141458.496,
      "d": 9.12400000001071,
      "v": 98
    },
    {
      "midi": 77,
      "hit": false,
      "t": 141458.49600000016,
      "d": 401.4560000000056,
      "v": 120
    },
    {
      "midi": 42,
      "hit": false,
      "t": 141677.47200000004,
      "d": 9.12400000001071,
      "v": 70
    },
    {
      "midi": 36,
      "hit": false,
      "t": 141677.47200000004,
      "d": 9.12400000001071,
      "v": 84
    },
    {
      "midi": 81,
      "hit": false,
      "t": 141869.07600000006,
      "d": 656.9280000000144,
      "v": 50
    },
    {
      "midi": 74,
      "hit": false,
      "t": 141869.07600000006,
      "d": 656.9280000000144,
      "v": 40
    },
    {
      "midi": 62,
      "hit": false,
      "t": 141869.07600000006,
      "d": 656.9280000000144,
      "v": 40
    },
    {
      "midi": 38,
      "hit": false,
      "t": 141887.3239999996,
      "d": 401.4560000000056,
      "v": 110
    },
    {
      "midi": 98,
      "hit": false,
      "t": 141896.44799999954,
      "d": 647.8040000000037,
      "v": 127
    },
    {
      "midi": 74,
      "hit": false,
      "t": 141896.44799999954,
      "d": 647.8040000000037,
      "v": 60
    },
    {
      "midi": 42,
      "hit": false,
      "t": 141896.44800000006,
      "d": 9.12400000001071,
      "v": 98
    },
    {
      "midi": 36,
      "hit": false,
      "t": 141896.44800000006,
      "d": 9.12400000001071,
      "v": 76
    },
    {
      "midi": 77,
      "hit": false,
      "t": 141896.44800000018,
      "d": 182.48000000001048,
      "v": 120
    },
    {
      "midi": 77,
      "hit": false,
      "t": 142005.93600000016,
      "d": 182.48000000001048,
      "v": 120
    },
    {
      "midi": 42,
      "hit": false,
      "t": 142115.4240000001,
      "d": 9.12400000001071,
      "v": 70
    },
    {
      "midi": 77,
      "hit": false,
      "t": 142115.42400000017,
      "d": 182.48000000001048,
      "v": 120
    },
    {
      "midi": 42,
      "hit": false,
      "t": 142334.4000000001,
      "d": 9.12400000001071,
      "v": 98
    },
    {
      "midi": 38,
      "hit": false,
      "t": 142334.4000000001,
      "d": 9.12400000001071,
      "v": 76
    },
    {
      "midi": 74,
      "hit": false,
      "t": 142334.4000000002,
      "d": 182.48000000001048,
      "v": 120
    },
    {
      "midi": 74,
      "hit": false,
      "t": 142443.88800000018,
      "d": 182.48000000001048,
      "v": 120
    },
    {
      "midi": 80,
      "hit": false,
      "t": 142526.00400000007,
      "d": 2846.6879999999946,
      "v": 50
    },
    {
      "midi": 76,
      "hit": false,
      "t": 142526.00400000007,
      "d": 2846.6879999999946,
      "v": 50
    },
    {
      "midi": 64,
      "hit": false,
      "t": 142526.00400000007,
      "d": 2846.6879999999946,
      "v": 40
    },
    {
      "midi": 40,
      "hit": false,
      "t": 142544.2519999996,
      "d": 1058.383999999991,
      "v": 110
    },
    {
      "midi": 100,
      "hit": false,
      "t": 142553.37599999955,
      "d": 647.8040000000037,
      "v": 127
    },
    {
      "midi": 76,
      "hit": false,
      "t": 142553.37599999955,
      "d": 647.8040000000037,
      "v": 60
    },
    {
      "midi": 42,
      "hit": false,
      "t": 142553.37600000013,
      "d": 9.12400000001071,
      "v": 70
    },
    {
      "midi": 36,
      "hit": false,
      "t": 142553.37600000013,
      "d": 9.12400000001071,
      "v": 76
    },
    {
      "midi": 74,
      "hit": false,
      "t": 142553.3760000002,
      "d": 182.48000000001048,
      "v": 120
    },
    {
      "midi": 76,
      "hit": false,
      "t": 142553.37600000022,
      "d": 182.48000000001048,
      "v": 120
    },
    {
      "midi": 76,
      "hit": false,
      "t": 142662.8640000002,
      "d": 182.48000000001048,
      "v": 120
    },
    {
      "midi": 42,
      "hit": false,
      "t": 142772.35200000016,
      "d": 9.12400000001071,
      "v": 98
    },
    {
      "midi": 76,
      "hit": false,
      "t": 142772.35200000022,
      "d": 182.48000000001048,
      "v": 120
    },
    {
      "midi": 42,
      "hit": false,
      "t": 142991.32800000018,
      "d": 9.12400000001071,
      "v": 70
    },
    {
      "midi": 36,
      "hit": false,
      "t": 142991.32800000018,
      "d": 9.12400000001071,
      "v": 84
    },
    {
      "midi": 42,
      "hit": false,
      "t": 143210.3040000002,
      "d": 9.12400000001071,
      "v": 98
    },
    {
      "midi": 38,
      "hit": false,
      "t": 143210.3040000002,
      "d": 9.12400000001071,
      "v": 84
    },
    {
      "midi": 42,
      "hit": false,
      "t": 143429.28000000023,
      "d": 9.12400000001071,
      "v": 70
    },
    {
      "midi": 28,
      "hit": false,
      "t": 143639.1319999996,
      "d": 182.48000000001048,
      "v": 110
    },
    {
      "midi": 42,
      "hit": false,
      "t": 143648.25600000026,
      "d": 9.12400000001071,
      "v": 98
    },
    {
      "midi": 36,
      "hit": false,
      "t": 143648.25600000026,
      "d": 9.12400000001071,
      "v": 76
    },
    {
      "midi": 28,
      "hit": false,
      "t": 143858.10799999963,
      "d": 182.48000000001048,
      "v": 110
    },
    {
      "midi": 42,
      "hit": false,
      "t": 143867.23200000028,
      "d": 9.12400000001071,
      "v": 70
    },
    {
      "midi": 36,
      "hit": false,
      "t": 143867.23200000028,
      "d": 9.12400000001071,
      "v": 84
    },
    {
      "midi": 28,
      "hit": false,
      "t": 144077.08399999965,
      "d": 182.48000000001048,
      "v": 110
    },
    {
      "midi": 42,
      "hit": false,
      "t": 144086.2080000003,
      "d": 9.12400000001071,
      "v": 98
    },
    {
      "midi": 38,
      "hit": false,
      "t": 144086.2080000003,
      "d": 9.12400000001071,
      "v": 76
    },
    {
      "midi": 28,
      "hit": false,
      "t": 144296.05999999968,
      "d": 620.4320000000007,
      "v": 110
    },
    {
      "midi": 42,
      "hit": false,
      "t": 144305.18400000033,
      "d": 9.12400000001071,
      "v": 70
    },
    {
      "midi": 100,
      "hit": false,
      "t": 144524.15999999957,
      "d": 428.8280000000086,
      "v": 127
    },
    {
      "midi": 76,
      "hit": false,
      "t": 144524.15999999957,
      "d": 428.8280000000086,
      "v": 60
    },
    {
      "midi": 42,
      "hit": false,
      "t": 144524.16000000035,
      "d": 9.12400000001071,
      "v": 98
    },
    {
      "midi": 48,
      "hit": false,
      "t": 144743.13600000038,
      "d": 9.12400000001071,
      "v": 84
    },
    {
      "midi": 28,
      "hit": false,
      "t": 144952.9879999997,
      "d": 182.48000000001048,
      "v": 110
    },
    {
      "midi": 101,
      "hit": false,
      "t": 144962.1119999996,
      "d": 428.8280000000086,
      "v": 127
    },
    {
      "midi": 77,
      "hit": false,
      "t": 144962.1119999996,
      "d": 428.8280000000086,
      "v": 60
    },
    {
      "midi": 45,
      "hit": false,
      "t": 144962.1120000004,
      "d": 9.12400000001071,
      "v": 84
    },
    {
      "midi": 29,
      "hit": false,
      "t": 145171.96399999972,
      "d": 182.48000000001048,
      "v": 110
    },
    {
      "midi": 41,
      "hit": false,
      "t": 145181.08800000043,
      "d": 9.12400000001071,
      "v": 84
    },
    {
      "midi": 79,
      "hit": false,
      "t": 145372.69200000007,
      "d": 1751.80799999999,
      "v": 50
    },
    {
      "midi": 74,
      "hit": false,
      "t": 145372.69200000007,
      "d": 1751.80799999999,
      "v": 50
    },
    {
      "midi": 62,
      "hit": false,
      "t": 145372.69200000007,
      "d": 1751.80799999999,
      "v": 50
    },
    {
      "midi": 33,
      "hit": false,
      "t": 145390.93999999974,
      "d": 273.72000000000116,
      "v": 110
    },
    {
      "midi": 103,
      "hit": false,
      "t": 145400.0639999996,
      "d": 866.7799999999988,
      "v": 127
    },
    {
      "midi": 79,
      "hit": false,
      "t": 145400.0639999996,
      "d": 866.7799999999988,
      "v": 60
    },
    {
      "midi": 79,
      "hit": false,
      "t": 145400.06400000025,
      "d": 182.48000000001048,
      "v": 120
    },
    {
      "midi": 49,
      "hit": false,
      "t": 145400.06400000045,
      "d": 9.12400000001071,
      "v": 62
    },
    {
      "midi": 36,
      "hit": false,
      "t": 145400.06400000045,
      "d": 9.12400000001071,
      "v": 76
    },
    {
      "midi": 79,
      "hit": false,
      "t": 145509.55200000023,
      "d": 182.48000000001048,
      "v": 120
    },
    {
      "midi": 79,
      "hit": false,
      "t": 145619.04000000024,
      "d": 182.48000000001048,
      "v": 120
    },
    {
      "midi": 79,
      "hit": false,
      "t": 145619.04000000027,
      "d": 182.48000000001048,
      "v": 120
    },
    {
      "midi": 42,
      "hit": false,
      "t": 145619.04000000047,
      "d": 9.12400000001071,
      "v": 70
    },
    {
      "midi": 79,
      "hit": false,
      "t": 145728.52800000025,
      "d": 182.48000000001048,
      "v": 120
    },
    {
      "midi": 79,
      "hit": false,
      "t": 145838.01600000027,
      "d": 182.48000000001048,
      "v": 120
    },
    {
      "midi": 79,
      "hit": false,
      "t": 145838.0160000003,
      "d": 182.48000000001048,
      "v": 120
    },
    {
      "midi": 42,
      "hit": false,
      "t": 145838.0160000005,
      "d": 9.12400000001071,
      "v": 98
    },
    {
      "midi": 38,
      "hit": false,
      "t": 145838.0160000005,
      "d": 9.12400000001071,
      "v": 76
    },
    {
      "midi": 79,
      "hit": false,
      "t": 145947.50400000028,
      "d": 182.48000000001048,
      "v": 120
    },
    {
      "midi": 33,
      "hit": false,
      "t": 146047.86799999975,
      "d": 273.72000000000116,
      "v": 110
    },
    {
      "midi": 79,
      "hit": false,
      "t": 146056.9920000003,
      "d": 182.48000000001048,
      "v": 120
    },
    {
      "midi": 79,
      "hit": false,
      "t": 146056.99200000032,
      "d": 182.48000000001048,
      "v": 120
    },
    {
      "midi": 42,
      "hit": false,
      "t": 146056.99200000052,
      "d": 9.12400000001071,
      "v": 70
    },
    {
      "midi": 36,
      "hit": false,
      "t": 146056.99200000052,
      "d": 9.12400000001071,
      "v": 76
    },
    {
      "midi": 79,
      "hit": false,
      "t": 146166.4800000003,
      "d": 182.48000000001048,
      "v": 120
    },
    {
      "midi": 79,
      "hit": false,
      "t": 146275.9680000003,
      "d": 182.48000000001048,
      "v": 120
    },
    {
      "midi": 42,
      "hit": false,
      "t": 146275.96800000055,
      "d": 9.12400000001071,
      "v": 98
    },
    {
      "midi": 79,
      "hit": false,
      "t": 146494.94400000034,
      "d": 182.48000000001048,
      "v": 120
    },
    {
      "midi": 42,
      "hit": false,
      "t": 146494.94400000057,
      "d": 9.12400000001071,
      "v": 70
    },
    {
      "midi": 36,
      "hit": false,
      "t": 146494.94400000057,
      "d": 9.12400000001071,
      "v": 76
    },
    {
      "midi": 79,
      "hit": false,
      "t": 146604.43200000032,
      "d": 182.48000000001048,
      "v": 120
    },
    {
      "midi": 79,
      "hit": false,
      "t": 146713.92000000033,
      "d": 182.48000000001048,
      "v": 120
    },
    {
      "midi": 79,
      "hit": false,
      "t": 146713.92000000036,
      "d": 182.48000000001048,
      "v": 120
    },
    {
      "midi": 42,
      "hit": false,
      "t": 146713.9200000006,
      "d": 9.12400000001071,
      "v": 98
    },
    {
      "midi": 38,
      "hit": false,
      "t": 146713.9200000006,
      "d": 9.12400000001071,
      "v": 76
    },
    {
      "midi": 79,
      "hit": false,
      "t": 146823.40800000035,
      "d": 182.48000000001048,
      "v": 120
    },
    {
      "midi": 33,
      "hit": false,
      "t": 146923.77199999976,
      "d": 182.48000000001048,
      "v": 110
    },
    {
      "midi": 79,
      "hit": false,
      "t": 146932.89600000036,
      "d": 182.48000000001048,
      "v": 120
    },
    {
      "midi": 79,
      "hit": false,
      "t": 146932.8960000004,
      "d": 182.48000000001048,
      "v": 120
    },
    {
      "midi": 42,
      "hit": false,
      "t": 146932.89600000062,
      "d": 9.12400000001071,
      "v": 70
    },
    {
      "midi": 36,
      "hit": false,
      "t": 146932.89600000062,
      "d": 9.12400000001071,
      "v": 76
    },
    {
      "midi": 79,
      "hit": false,
      "t": 147042.38400000037,
      "d": 182.48000000001048,
      "v": 120
    },
    {
      "midi": 79,
      "hit": false,
      "t": 147124.50000000006,
      "d": 1751.80799999999,
      "v": 50
    },
    {
      "midi": 73,
      "hit": false,
      "t": 147124.50000000006,
      "d": 1751.80799999999,
      "v": 40
    },
    {
      "midi": 61,
      "hit": false,
      "t": 147124.50000000006,
      "d": 1751.80799999999,
      "v": 40
    },
    {
      "midi": 79,
      "hit": false,
      "t": 147151.87200000038,
      "d": 182.48000000001048,
      "v": 120
    },
    {
      "midi": 42,
      "hit": false,
      "t": 147151.87200000064,
      "d": 9.12400000001071,
      "v": 98
    },
    {
      "midi": 49,
      "hit": false,
      "t": 147361.72399999978,
      "d": 273.72000000000116,
      "v": 110
    },
    {
      "midi": 42,
      "hit": false,
      "t": 147370.84800000067,
      "d": 9.12400000001071,
      "v": 70
    },
    {
      "midi": 36,
      "hit": false,
      "t": 147370.84800000067,
      "d": 9.12400000001071,
      "v": 76
    },
    {
      "midi": 42,
      "hit": false,
      "t": 147589.8240000007,
      "d": 9.12400000001071,
      "v": 98
    },
    {
      "midi": 38,
      "hit": false,
      "t": 147589.8240000007,
      "d": 9.12400000001071,
      "v": 76
    },
    {
      "midi": 37,
      "hit": false,
      "t": 147799.67599999977,
      "d": 273.72000000000116,
      "v": 110
    },
    {
      "midi": 42,
      "hit": false,
      "t": 147808.80000000072,
      "d": 9.12400000001071,
      "v": 70
    },
    {
      "midi": 36,
      "hit": false,
      "t": 147808.80000000072,
      "d": 9.12400000001071,
      "v": 76
    },
    {
      "midi": 42,
      "hit": false,
      "t": 148027.77600000074,
      "d": 9.12400000001071,
      "v": 98
    },
    {
      "midi": 42,
      "hit": false,
      "t": 148246.75200000076,
      "d": 9.12400000001071,
      "v": 70
    },
    {
      "midi": 38,
      "hit": false,
      "t": 148246.75200000076,
      "d": 9.12400000001071,
      "v": 76
    },
    {
      "midi": 42,
      "hit": false,
      "t": 148465.7280000008,
      "d": 9.12400000001071,
      "v": 98
    },
    {
      "midi": 42,
      "hit": false,
      "t": 148684.7040000008,
      "d": 9.12400000001071,
      "v": 70
    },
    {
      "midi": 36,
      "hit": false,
      "t": 148684.7040000008,
      "d": 9.12400000001071,
      "v": 76
    },
    {
      "midi": 77,
      "hit": false,
      "t": 148876.30800000005,
      "d": 1751.80799999999,
      "v": 50
    },
    {
      "midi": 74,
      "hit": false,
      "t": 148876.30800000005,
      "d": 1751.80799999999,
      "v": 50
    },
    {
      "midi": 62,
      "hit": false,
      "t": 148876.30800000005,
      "d": 1751.80799999999,
      "v": 50
    },
    {
      "midi": 38,
      "hit": false,
      "t": 148894.55599999978,
      "d": 273.72000000000116,
      "v": 110
    },
    {
      "midi": 77,
      "hit": false,
      "t": 148903.6800000004,
      "d": 182.48000000001048,
      "v": 120
    },
    {
      "midi": 42,
      "hit": false,
      "t": 148903.68000000084,
      "d": 9.12400000001071,
      "v": 98
    },
    {
      "midi": 36,
      "hit": false,
      "t": 148903.68000000084,
      "d": 9.12400000001071,
      "v": 76
    },
    {
      "midi": 77,
      "hit": false,
      "t": 149013.16800000038,
      "d": 182.48000000001048,
      "v": 120
    },
    {
      "midi": 77,
      "hit": false,
      "t": 149122.6560000004,
      "d": 182.48000000001048,
      "v": 120
    },
    {
      "midi": 79,
      "hit": false,
      "t": 149122.65600000042,
      "d": 182.48000000001048,
      "v": 120
    },
    {
      "midi": 42,
      "hit": false,
      "t": 149122.65600000086,
      "d": 9.12400000001071,
      "v": 70
    },
    {
      "midi": 79,
      "hit": false,
      "t": 149232.1440000004,
      "d": 182.48000000001048,
      "v": 120
    },
    {
      "midi": 79,
      "hit": false,
      "t": 149341.63200000042,
      "d": 182.48000000001048,
      "v": 120
    },
    {
      "midi": 42,
      "hit": false,
      "t": 149341.6320000009,
      "d": 9.12400000001071,
      "v": 98
    },
    {
      "midi": 38,
      "hit": false,
      "t": 149341.6320000009,
      "d": 9.12400000001071,
      "v": 76
    },
    {
      "midi": 38,
      "hit": false,
      "t": 149551.4839999998,
      "d": 273.72000000000116,
      "v": 110
    },
    {
      "midi": 81,
      "hit": false,
      "t": 149560.60800000044,
      "d": 182.48000000001048,
      "v": 120
    },
    {
      "midi": 42,
      "hit": false,
      "t": 149560.6080000009,
      "d": 9.12400000001071,
      "v": 70
    },
    {
      "midi": 36,
      "hit": false,
      "t": 149560.6080000009,
      "d": 9.12400000001071,
      "v": 76
    },
    {
      "midi": 81,
      "hit": false,
      "t": 149670.09600000043,
      "d": 182.48000000001048,
      "v": 120
    },
    {
      "midi": 81,
      "hit": false,
      "t": 149779.58400000044,
      "d": 182.48000000001048,
      "v": 120
    },
    {
      "midi": 42,
      "hit": false,
      "t": 149779.58400000093,
      "d": 9.12400000001071,
      "v": 98
    },
    {
      "midi": 77,
      "hit": false,
      "t": 149998.56000000046,
      "d": 182.48000000001048,
      "v": 120
    },
    {
      "midi": 42,
      "hit": false,
      "t": 149998.56000000096,
      "d": 9.12400000001071,
      "v": 70
    },
    {
      "midi": 36,
      "hit": false,
      "t": 149998.56000000096,
      "d": 9.12400000001071,
      "v": 76
    },
    {
      "midi": 77,
      "hit": false,
      "t": 150108.04800000045,
      "d": 182.48000000001048,
      "v": 120
    },
    {
      "midi": 77,
      "hit": false,
      "t": 150217.53600000046,
      "d": 182.48000000001048,
      "v": 120
    },
    {
      "midi": 42,
      "hit": false,
      "t": 150217.53600000098,
      "d": 9.12400000001071,
      "v": 98
    },
    {
      "midi": 38,
      "hit": false,
      "t": 150217.53600000098,
      "d": 9.12400000001071,
      "v": 76
    },
    {
      "midi": 40,
      "hit": false,
      "t": 150427.3879999998,
      "d": 428.8280000000086,
      "v": 110
    },
    {
      "midi": 76,
      "hit": false,
      "t": 150436.51200000048,
      "d": 182.48000000001048,
      "v": 120
    },
    {
      "midi": 42,
      "hit": false,
      "t": 150436.512000001,
      "d": 9.12400000001071,
      "v": 70
    },
    {
      "midi": 36,
      "hit": false,
      "t": 150436.512000001,
      "d": 9.12400000001071,
      "v": 76
    },
    {
      "midi": 76,
      "hit": false,
      "t": 150546.00000000047,
      "d": 182.48000000001048,
      "v": 120
    },
    {
      "midi": 80,
      "hit": false,
      "t": 150628.11600000004,
      "d": 1751.80799999999,
      "v": 50
    },
    {
      "midi": 76,
      "hit": false,
      "t": 150628.11600000004,
      "d": 1751.80799999999,
      "v": 40
    },
    {
      "midi": 64,
      "hit": false,
      "t": 150628.11600000004,
      "d": 1751.80799999999,
      "v": 40
    },
    {
      "midi": 76,
      "hit": false,
      "t": 150655.48800000048,
      "d": 182.48000000001048,
      "v": 120
    },
    {
      "midi": 42,
      "hit": false,
      "t": 150655.48800000103,
      "d": 9.12400000001071,
      "v": 98
    },
    {
      "midi": 52,
      "hit": false,
      "t": 150865.33999999982,
      "d": 428.8280000000086,
      "v": 110
    },
    {
      "midi": 76,
      "hit": false,
      "t": 150874.4640000005,
      "d": 182.48000000001048,
      "v": 120
    },
    {
      "midi": 42,
      "hit": false,
      "t": 150874.46400000105,
      "d": 9.12400000001071,
      "v": 70
    },
    {
      "midi": 36,
      "hit": false,
      "t": 150874.46400000105,
      "d": 9.12400000001071,
      "v": 76
    },
    {
      "midi": 76,
      "hit": false,
      "t": 150983.95200000048,
      "d": 182.48000000001048,
      "v": 120
    },
    {
      "midi": 76,
      "hit": false,
      "t": 151093.4400000005,
      "d": 182.48000000001048,
      "v": 120
    },
    {
      "midi": 74,
      "hit": false,
      "t": 151093.44000000053,
      "d": 182.48000000001048,
      "v": 120
    },
    {
      "midi": 42,
      "hit": false,
      "t": 151093.44000000108,
      "d": 9.12400000001071,
      "v": 98
    },
    {
      "midi": 38,
      "hit": false,
      "t": 151093.44000000108,
      "d": 9.12400000001071,
      "v": 76
    },
    {
      "midi": 74,
      "hit": false,
      "t": 151202.9280000005,
      "d": 182.48000000001048,
      "v": 120
    },
    {
      "midi": 40,
      "hit": false,
      "t": 151303.29199999984,
      "d": 182.48000000001048,
      "v": 110
    },
    {
      "midi": 74,
      "hit": false,
      "t": 151312.41600000052,
      "d": 182.48000000001048,
      "v": 120
    },
    {
      "midi": 76,
      "hit": false,
      "t": 151312.41600000055,
      "d": 182.48000000001048,
      "v": 120
    },
    {
      "midi": 42,
      "hit": false,
      "t": 151312.4160000011,
      "d": 9.12400000001071,
      "v": 70
    },
    {
      "midi": 36,
      "hit": false,
      "t": 151312.4160000011,
      "d": 9.12400000001071,
      "v": 76
    },
    {
      "midi": 76,
      "hit": false,
      "t": 151421.90400000053,
      "d": 182.48000000001048,
      "v": 120
    },
    {
      "midi": 76,
      "hit": false,
      "t": 151531.39200000055,
      "d": 182.48000000001048,
      "v": 120
    },
    {
      "midi": 42,
      "hit": false,
      "t": 151531.39200000113,
      "d": 9.12400000001071,
      "v": 98
    },
    {
      "midi": 42,
      "hit": false,
      "t": 151750.36800000115,
      "d": 9.12400000001071,
      "v": 70
    },
    {
      "midi": 38,
      "hit": false,
      "t": 151750.36800000115,
      "d": 9.12400000001071,
      "v": 76
    },
    {
      "midi": 76,
      "hit": false,
      "t": 151969.34400000056,
      "d": 182.48000000001048,
      "v": 120
    },
    {
      "midi": 42,
      "hit": false,
      "t": 151969.34400000118,
      "d": 9.12400000001071,
      "v": 98
    },
    {
      "midi": 76,
      "hit": false,
      "t": 152078.83200000055,
      "d": 182.48000000001048,
      "v": 120
    },
    {
      "midi": 76,
      "hit": false,
      "t": 152188.32000000056,
      "d": 182.48000000001048,
      "v": 120
    },
    {
      "midi": 42,
      "hit": false,
      "t": 152188.3200000012,
      "d": 9.12400000001071,
      "v": 70
    },
    {
      "midi": 36,
      "hit": false,
      "t": 152188.3200000012,
      "d": 9.12400000001071,
      "v": 76
    },
    {
      "midi": 69,
      "hit": false,
      "t": 152379.92400000003,
      "d": 866.7799999999988,
      "v": 40
    },
    {
      "midi": 81,
      "hit": false,
      "t": 152379.92400000003,
      "d": 1742.6840000000084,
      "v": 50
    },
    {
      "midi": 64,
      "hit": false,
      "t": 152379.92400000003,
      "d": 1742.6840000000084,
      "v": 50
    },
    {
      "midi": 33,
      "hit": false,
      "t": 152398.17199999985,
      "d": 401.4560000000056,
      "v": 110
    },
    {
      "midi": 93,
      "hit": false,
      "t": 152407.2959999996,
      "d": 428.8280000000086,
      "v": 127
    },
    {
      "midi": 69,
      "hit": false,
      "t": 152407.2959999996,
      "d": 428.8280000000086,
      "v": 60
    },
    {
      "midi": 81,
      "hit": false,
      "t": 152407.29600000058,
      "d": 182.48000000001048,
      "v": 120
    },
    {
      "midi": 42,
      "hit": false,
      "t": 152407.29600000122,
      "d": 9.12400000001071,
      "v": 98
    },
    {
      "midi": 36,
      "hit": false,
      "t": 152407.29600000122,
      "d": 9.12400000001071,
      "v": 76
    },
    {
      "midi": 81,
      "hit": false,
      "t": 152516.78400000057,
      "d": 182.48000000001048,
      "v": 120
    },
    {
      "midi": 81,
      "hit": false,
      "t": 152626.27200000058,
      "d": 182.48000000001048,
      "v": 120
    },
    {
      "midi": 42,
      "hit": false,
      "t": 152626.27200000125,
      "d": 9.12400000001071,
      "v": 70
    },
    {
      "midi": 42,
      "hit": false,
      "t": 152845.24800000127,
      "d": 9.12400000001071,
      "v": 98
    },
    {
      "midi": 38,
      "hit": false,
      "t": 152845.24800000127,
      "d": 9.12400000001071,
      "v": 76
    },
    {
      "midi": 31,
      "hit": false,
      "t": 153055.09999999986,
      "d": 1058.383999999991,
      "v": 110
    },
    {
      "midi": 42,
      "hit": false,
      "t": 153064.2240000013,
      "d": 9.12400000001071,
      "v": 70
    },
    {
      "midi": 36,
      "hit": false,
      "t": 153064.2240000013,
      "d": 9.12400000001071,
      "v": 76
    },
    {
      "midi": 67,
      "hit": false,
      "t": 153255.82800000004,
      "d": 866.7799999999988,
      "v": 40
    },
    {
      "midi": 42,
      "hit": false,
      "t": 153283.20000000132,
      "d": 9.12400000001071,
      "v": 98
    },
    {
      "midi": 42,
      "hit": false,
      "t": 153502.17600000135,
      "d": 9.12400000001071,
      "v": 70
    },
    {
      "midi": 36,
      "hit": false,
      "t": 153502.17600000135,
      "d": 9.12400000001071,
      "v": 84
    },
    {
      "midi": 91,
      "hit": false,
      "t": 153721.1519999996,
      "d": 428.8280000000086,
      "v": 127
    },
    {
      "midi": 67,
      "hit": false,
      "t": 153721.1519999996,
      "d": 428.8280000000086,
      "v": 60
    },
    {
      "midi": 79,
      "hit": false,
      "t": 153721.15200000058,
      "d": 182.48000000001048,
      "v": 120
    },
    {
      "midi": 42,
      "hit": false,
      "t": 153721.15200000137,
      "d": 9.12400000001071,
      "v": 98
    },
    {
      "midi": 38,
      "hit": false,
      "t": 153721.15200000137,
      "d": 9.12400000001071,
      "v": 84
    },
    {
      "midi": 79,
      "hit": false,
      "t": 153830.64000000057,
      "d": 182.48000000001048,
      "v": 120
    },
    {
      "midi": 79,
      "hit": false,
      "t": 153940.12800000058,
      "d": 182.48000000001048,
      "v": 120
    },
    {
      "midi": 42,
      "hit": false,
      "t": 153940.1280000014,
      "d": 9.12400000001071,
      "v": 70
    },
    {
      "midi": 81,
      "hit": false,
      "t": 154131.73200000005,
      "d": 1523.7079999999842,
      "v": 50
    },
    {
      "midi": 62,
      "hit": false,
      "t": 154131.73200000005,
      "d": 1523.7079999999842,
      "v": 50
    },
    {
      "midi": 29,
      "hit": false,
      "t": 154149.97999999986,
      "d": 401.4560000000056,
      "v": 110
    },
    {
      "midi": 93,
      "hit": false,
      "t": 154159.1039999996,
      "d": 428.8280000000086,
      "v": 127
    },
    {
      "midi": 69,
      "hit": false,
      "t": 154159.1039999996,
      "d": 428.8280000000086,
      "v": 60
    },
    {
      "midi": 81,
      "hit": false,
      "t": 154159.1040000006,
      "d": 182.48000000001048,
      "v": 120
    },
    {
      "midi": 42,
      "hit": false,
      "t": 154159.10400000142,
      "d": 9.12400000001071,
      "v": 98
    },
    {
      "midi": 36,
      "hit": false,
      "t": 154159.10400000142,
      "d": 9.12400000001071,
      "v": 76
    },
    {
      "midi": 81,
      "hit": false,
      "t": 154268.5920000006,
      "d": 182.48000000001048,
      "v": 120
    },
    {
      "midi": 81,
      "hit": false,
      "t": 154378.0800000006,
      "d": 182.48000000001048,
      "v": 120
    },
    {
      "midi": 42,
      "hit": false,
      "t": 154378.08000000144,
      "d": 9.12400000001071,
      "v": 70
    },
    {
      "midi": 36,
      "hit": false,
      "t": 154378.08000000144,
      "d": 9.12400000001071,
      "v": 84
    },
    {
      "midi": 66,
      "hit": false,
      "t": 154569.68400000004,
      "d": 437.9519999999902,
      "v": 40
    },
    {
      "midi": 42,
      "hit": false,
      "t": 154597.05600000147,
      "d": 9.12400000001071,
      "v": 98
    },
    {
      "midi": 38,
      "hit": false,
      "t": 154597.05600000147,
      "d": 9.12400000001071,
      "v": 76
    },
    {
      "midi": 28,
      "hit": false,
      "t": 154806.90799999988,
      "d": 866.7799999999988,
      "v": 110
    },
    {
      "midi": 42,
      "hit": false,
      "t": 154816.0320000015,
      "d": 9.12400000001071,
      "v": 70
    },
    {
      "midi": 36,
      "hit": false,
      "t": 154816.0320000015,
      "d": 9.12400000001071,
      "v": 76
    },
    {
      "midi": 65,
      "hit": false,
      "t": 155007.63600000003,
      "d": 437.9519999999902,
      "v": 40
    },
    {
      "midi": 42,
      "hit": false,
      "t": 155035.00800000152,
      "d": 9.12400000001071,
      "v": 98
    },
    {
      "midi": 93,
      "hit": false,
      "t": 155253.98399999962,
      "d": 209.8520000000135,
      "v": 127
    },
    {
      "midi": 69,
      "hit": false,
      "t": 155253.98399999962,
      "d": 209.8520000000135,
      "v": 60
    },
    {
      "midi": 81,
      "hit": false,
      "t": 155253.9840000006,
      "d": 182.48000000001048,
      "v": 120
    },
    {
      "midi": 42,
      "hit": false,
      "t": 155253.98400000154,
      "d": 9.12400000001071,
      "v": 70
    },
    {
      "midi": 38,
      "hit": false,
      "t": 155253.98400000154,
      "d": 9.12400000001071,
      "v": 84
    },
    {
      "midi": 81,
      "hit": false,
      "t": 155363.4720000006,
      "d": 182.48000000001048,
      "v": 120
    },
    {
      "midi": 96,
      "hit": false,
      "t": 155472.95999999964,
      "d": 209.8520000000135,
      "v": 127
    },
    {
      "midi": 72,
      "hit": false,
      "t": 155472.95999999964,
      "d": 209.8520000000135,
      "v": 60
    },
    {
      "midi": 81,
      "hit": false,
      "t": 155472.9600000006,
      "d": 182.48000000001048,
      "v": 120
    },
    {
      "midi": 84,
      "hit": false,
      "t": 155472.96000000063,
      "d": 182.48000000001048,
      "v": 120
    },
    {
      "midi": 42,
      "hit": false,
      "t": 155472.96000000156,
      "d": 9.12400000001071,
      "v": 98
    },
    {
      "midi": 84,
      "hit": false,
      "t": 155582.44800000062,
      "d": 182.48000000001048,
      "v": 120
    },
    {
      "midi": 71,
      "hit": false,
      "t": 155664.56400000004,
      "d": 437.9519999999902,
      "v": 50
    },
    {
      "midi": 67,
      "hit": false,
      "t": 155664.56400000004,
      "d": 437.9519999999902,
      "v": 50
    },
    {
      "midi": 26,
      "hit": false,
      "t": 155682.8119999999,
      "d": 866.7799999999988,
      "v": 110
    },
    {
      "midi": 95,
      "hit": false,
      "t": 155691.93599999967,
      "d": 209.8520000000135,
      "v": 127
    },
    {
      "midi": 71,
      "hit": false,
      "t": 155691.93599999967,
      "d": 209.8520000000135,
      "v": 60
    },
    {
      "midi": 84,
      "hit": false,
      "t": 155691.93600000063,
      "d": 182.48000000001048,
      "v": 120
    },
    {
      "midi": 83,
      "hit": false,
      "t": 155691.93600000066,
      "d": 182.48000000001048,
      "v": 120
    },
    {
      "midi": 49,
      "hit": false,
      "t": 155691.9360000016,
      "d": 9.12400000001071,
      "v": 84
    },
    {
      "midi": 36,
      "hit": false,
      "t": 155691.9360000016,
      "d": 9.12400000001071,
      "v": 84
    },
    {
      "midi": 83,
      "hit": false,
      "t": 155801.42400000064,
      "d": 182.48000000001048,
      "v": 120
    },
    {
      "midi": 83,
      "hit": false,
      "t": 155910.91200000065,
      "d": 182.48000000001048,
      "v": 120
    },
    {
      "midi": 67,
      "hit": false,
      "t": 156102.51600000003,
      "d": 875.9040000000095,
      "v": 60
    },
    {
      "midi": 64,
      "hit": false,
      "t": 156102.51600000003,
      "d": 875.9040000000095,
      "v": 60
    },
    {
      "midi": 48,
      "hit": false,
      "t": 156129.8880000016,
      "d": 9.12400000001071,
      "v": 84
    },
    {
      "midi": 45,
      "hit": false,
      "t": 156348.86400000163,
      "d": 9.12400000001071,
      "v": 84
    },
    {
      "midi": 38,
      "hit": false,
      "t": 156558.7159999999,
      "d": 1058.383999999991,
      "v": 110
    },
    {
      "midi": 49,
      "hit": false,
      "t": 156567.84000000166,
      "d": 9.12400000001071,
      "v": 84
    },
    {
      "midi": 36,
      "hit": false,
      "t": 156567.84000000166,
      "d": 9.12400000001071,
      "v": 84
    },
    {
      "midi": 69,
      "hit": false,
      "t": 156978.42000000004,
      "d": 656.9280000000144,
      "v": 60
    },
    {
      "midi": 65,
      "hit": false,
      "t": 156978.42000000004,
      "d": 656.9280000000144,
      "v": 60
    },
    {
      "midi": 45,
      "hit": false,
      "t": 157005.79200000167,
      "d": 9.12400000001071,
      "v": 84
    },
    {
      "midi": 45,
      "hit": false,
      "t": 157224.7680000017,
      "d": 9.12400000001071,
      "v": 84
    },
    {
      "midi": 41,
      "hit": false,
      "t": 157443.74400000172,
      "d": 9.12400000001071,
      "v": 84
    },
    {
      "midi": 65,
      "hit": false,
      "t": 157635.34800000006,
      "d": 656.9280000000144,
      "v": 60
    },
    {
      "midi": 69,
      "hit": false,
      "t": 157635.34800000006,
      "d": 875.9040000000095,
      "v": 60
    },
    {
      "midi": 31,
      "hit": false,
      "t": 157653.5959999999,
      "d": 401.4560000000056,
      "v": 110
    },
    {
      "midi": 49,
      "hit": false,
      "t": 157662.72000000175,
      "d": 9.12400000001071,
      "v": 84
    },
    {
      "midi": 36,
      "hit": false,
      "t": 157662.72000000175,
      "d": 9.12400000001071,
      "v": 84
    },
    {
      "midi": 41,
      "hit": false,
      "t": 157881.69600000177,
      "d": 9.12400000001071,
      "v": 84
    },
    {
      "midi": 36,
      "hit": false,
      "t": 158100.6720000018,
      "d": 9.12400000001071,
      "v": 84
    },
    {
      "midi": 67,
      "hit": false,
      "t": 158292.27600000007,
      "d": 91.23999999999069,
      "v": 60
    },
    {
      "midi": 65,
      "hit": false,
      "t": 158292.27600000007,
      "d": 218.9759999999951,
      "v": 60
    },
    {
      "midi": 28,
      "hit": false,
      "t": 158310.52399999992,
      "d": 1058.383999999991,
      "v": 110
    },
    {
      "midi": 49,
      "hit": false,
      "t": 158319.64800000182,
      "d": 9.12400000001071,
      "v": 84
    },
    {
      "midi": 36,
      "hit": false,
      "t": 158319.64800000182,
      "d": 9.12400000001071,
      "v": 84
    },
    {
      "midi": 71,
      "hit": false,
      "t": 158511.25200000007,
      "d": 875.9040000000095,
      "v": 60
    },
    {
      "midi": 67,
      "hit": false,
      "t": 158511.25200000007,
      "d": 875.9040000000095,
      "v": 60
    },
    {
      "midi": 48,
      "hit": false,
      "t": 158757.60000000184,
      "d": 9.12400000001071,
      "v": 84
    },
    {
      "midi": 45,
      "hit": false,
      "t": 158976.57600000186,
      "d": 9.12400000001071,
      "v": 84
    },
    {
      "midi": 41,
      "hit": false,
      "t": 159195.5520000019,
      "d": 9.12400000001071,
      "v": 84
    },
    {
      "midi": 33,
      "hit": false,
      "t": 159405.40399999992,
      "d": 647.8040000000037,
      "v": 110
    },
    {
      "midi": 72,
      "hit": false,
      "t": 159414.52799999982,
      "d": 620.4320000000007,
      "v": 100
    },
    {
      "midi": 67,
      "hit": false,
      "t": 159414.52799999982,
      "d": 620.4320000000007,
      "v": 100
    },
    {
      "midi": 64,
      "hit": false,
      "t": 159414.52799999982,
      "d": 620.4320000000007,
      "v": 100
    },
    {
      "midi": 49,
      "hit": false,
      "t": 159414.5280000019,
      "d": 9.12400000001071,
      "v": 62
    },
    {
      "midi": 36,
      "hit": false,
      "t": 159414.5280000019,
      "d": 9.12400000001071,
      "v": 76
    },
    {
      "midi": 42,
      "hit": false,
      "t": 159633.50400000194,
      "d": 9.12400000001071,
      "v": 70
    },
    {
      "midi": 84,
      "hit": false,
      "t": 159852.47999999998,
      "d": 91.23999999999069,
      "v": 90
    },
    {
      "midi": 79,
      "hit": false,
      "t": 159852.47999999998,
      "d": 91.23999999999069,
      "v": 90
    },
    {
      "midi": 42,
      "hit": false,
      "t": 159852.48000000196,
      "d": 9.12400000001071,
      "v": 98
    },
    {
      "midi": 38,
      "hit": false,
      "t": 159852.48000000196,
      "d": 9.12400000001071,
      "v": 76
    },
    {
      "midi": 33,
      "hit": false,
      "t": 160062.33199999994,
      "d": 209.8520000000135,
      "v": 110
    },
    {
      "midi": 71,
      "hit": false,
      "t": 160071.45599999983,
      "d": 620.4320000000007,
      "v": 100
    },
    {
      "midi": 67,
      "hit": false,
      "t": 160071.45599999983,
      "d": 620.4320000000007,
      "v": 100
    },
    {
      "midi": 62,
      "hit": false,
      "t": 160071.45599999983,
      "d": 620.4320000000007,
      "v": 100
    },
    {
      "midi": 42,
      "hit": false,
      "t": 160071.45600000198,
      "d": 9.12400000001071,
      "v": 70
    },
    {
      "midi": 36,
      "hit": false,
      "t": 160071.45600000198,
      "d": 9.12400000001071,
      "v": 76
    },
    {
      "midi": 84,
      "hit": false,
      "t": 160290.43199999997,
      "d": 91.23999999999069,
      "v": 90
    },
    {
      "midi": 79,
      "hit": false,
      "t": 160290.43199999997,
      "d": 91.23999999999069,
      "v": 90
    },
    {
      "midi": 42,
      "hit": false,
      "t": 160290.432000002,
      "d": 9.12400000001071,
      "v": 98
    },
    {
      "midi": 28,
      "hit": false,
      "t": 160500.28399999996,
      "d": 100.3640000000014,
      "v": 110
    },
    {
      "midi": 42,
      "hit": false,
      "t": 160509.40800000203,
      "d": 9.12400000001071,
      "v": 70
    },
    {
      "midi": 36,
      "hit": false,
      "t": 160509.40800000203,
      "d": 9.12400000001071,
      "v": 76
    },
    {
      "midi": 33,
      "hit": false,
      "t": 160609.77199999997,
      "d": 100.3640000000014,
      "v": 110
    },
    {
      "midi": 28,
      "hit": false,
      "t": 160719.25999999998,
      "d": 647.8040000000037,
      "v": 110
    },
    {
      "midi": 72,
      "hit": false,
      "t": 160728.38399999985,
      "d": 620.4320000000007,
      "v": 100
    },
    {
      "midi": 67,
      "hit": false,
      "t": 160728.38399999985,
      "d": 620.4320000000007,
      "v": 100
    },
    {
      "midi": 64,
      "hit": false,
      "t": 160728.38399999985,
      "d": 620.4320000000007,
      "v": 100
    },
    {
      "midi": 42,
      "hit": false,
      "t": 160728.38400000206,
      "d": 9.12400000001071,
      "v": 98
    },
    {
      "midi": 38,
      "hit": false,
      "t": 160728.38400000206,
      "d": 9.12400000001071,
      "v": 76
    },
    {
      "midi": 42,
      "hit": false,
      "t": 160947.36000000208,
      "d": 9.12400000001071,
      "v": 70
    },
    {
      "midi": 36,
      "hit": false,
      "t": 160947.36000000208,
      "d": 9.12400000001071,
      "v": 76
    },
    {
      "midi": 42,
      "hit": false,
      "t": 161166.3360000021,
      "d": 9.12400000001071,
      "v": 98
    },
    {
      "midi": 45,
      "hit": false,
      "t": 161376.188,
      "d": 428.8280000000086,
      "v": 110
    },
    {
      "midi": 71,
      "hit": false,
      "t": 161385.31199999986,
      "d": 620.4320000000007,
      "v": 100
    },
    {
      "midi": 67,
      "hit": false,
      "t": 161385.31199999986,
      "d": 620.4320000000007,
      "v": 100
    },
    {
      "midi": 62,
      "hit": false,
      "t": 161385.31199999986,
      "d": 620.4320000000007,
      "v": 100
    },
    {
      "midi": 42,
      "hit": false,
      "t": 161385.31200000213,
      "d": 9.12400000001071,
      "v": 70
    },
    {
      "midi": 36,
      "hit": false,
      "t": 161385.31200000213,
      "d": 9.12400000001071,
      "v": 76
    },
    {
      "midi": 42,
      "hit": false,
      "t": 161604.28800000215,
      "d": 9.12400000001071,
      "v": 98
    },
    {
      "midi": 38,
      "hit": false,
      "t": 161604.28800000215,
      "d": 9.12400000001071,
      "v": 76
    },
    {
      "midi": 33,
      "hit": false,
      "t": 161814.14,
      "d": 866.7799999999988,
      "v": 110
    },
    {
      "midi": 42,
      "hit": false,
      "t": 161823.26400000218,
      "d": 9.12400000001071,
      "v": 70
    },
    {
      "midi": 36,
      "hit": false,
      "t": 161823.26400000218,
      "d": 9.12400000001071,
      "v": 76
    },
    {
      "midi": 72,
      "hit": false,
      "t": 162042.23999999987,
      "d": 839.4079999999958,
      "v": 100
    },
    {
      "midi": 67,
      "hit": false,
      "t": 162042.23999999987,
      "d": 839.4079999999958,
      "v": 100
    },
    {
      "midi": 64,
      "hit": false,
      "t": 162042.23999999987,
      "d": 839.4079999999958,
      "v": 100
    },
    {
      "midi": 42,
      "hit": false,
      "t": 162042.2400000022,
      "d": 9.12400000001071,
      "v": 98
    },
    {
      "midi": 42,
      "hit": false,
      "t": 162261.21600000223,
      "d": 9.12400000001071,
      "v": 70
    },
    {
      "midi": 38,
      "hit": false,
      "t": 162261.21600000223,
      "d": 9.12400000001071,
      "v": 76
    },
    {
      "midi": 53,
      "hit": false,
      "t": 162480.19200000016,
      "d": 9.12400000001071,
      "v": 70
    },
    {
      "midi": 42,
      "hit": false,
      "t": 162480.19200000225,
      "d": 9.12400000001071,
      "v": 98
    },
    {
      "midi": 53,
      "hit": false,
      "t": 162516.68800000017,
      "d": 9.12400000001071,
      "v": 71
    },
    {
      "midi": 53,
      "hit": false,
      "t": 162553.18400000018,
      "d": 9.12400000001071,
      "v": 72
    },
    {
      "midi": 53,
      "hit": false,
      "t": 162589.6800000002,
      "d": 9.12400000001071,
      "v": 73
    },
    {
      "midi": 53,
      "hit": false,
      "t": 162626.1760000002,
      "d": 9.12400000001071,
      "v": 74
    },
    {
      "midi": 53,
      "hit": false,
      "t": 162662.67200000022,
      "d": 9.12400000001071,
      "v": 75
    },
    {
      "midi": 53,
      "hit": false,
      "t": 162699.16800000024,
      "d": 9.12400000001071,
      "v": 76
    },
    {
      "midi": 42,
      "hit": false,
      "t": 162699.16800000228,
      "d": 9.12400000001071,
      "v": 70
    },
    {
      "midi": 36,
      "hit": false,
      "t": 162699.16800000228,
      "d": 9.12400000001071,
      "v": 76
    },
    {
      "midi": 53,
      "hit": false,
      "t": 162735.66400000025,
      "d": 9.12400000001071,
      "v": 77
    },
    {
      "midi": 53,
      "hit": false,
      "t": 162772.16000000027,
      "d": 9.12400000001071,
      "v": 78
    },
    {
      "midi": 53,
      "hit": false,
      "t": 162808.65600000028,
      "d": 9.12400000001071,
      "v": 79
    },
    {
      "midi": 53,
      "hit": false,
      "t": 162845.1520000003,
      "d": 9.12400000001071,
      "v": 80
    },
    {
      "midi": 53,
      "hit": false,
      "t": 162881.6480000003,
      "d": 9.12400000001071,
      "v": 81
    },
    {
      "midi": 29,
      "hit": false,
      "t": 162909.02000000002,
      "d": 273.72000000000116,
      "v": 110
    },
    {
      "midi": 72,
      "hit": false,
      "t": 162918.14399999988,
      "d": 620.4320000000007,
      "v": 100
    },
    {
      "midi": 67,
      "hit": false,
      "t": 162918.14399999988,
      "d": 620.4320000000007,
      "v": 100
    },
    {
      "midi": 64,
      "hit": false,
      "t": 162918.14399999988,
      "d": 620.4320000000007,
      "v": 100
    },
    {
      "midi": 53,
      "hit": false,
      "t": 162918.14400000032,
      "d": 9.12400000001071,
      "v": 82
    },
    {
      "midi": 42,
      "hit": false,
      "t": 162918.1440000023,
      "d": 9.12400000001071,
      "v": 98
    },
    {
      "midi": 36,
      "hit": false,
      "t": 162918.1440000023,
      "d": 9.12400000001071,
      "v": 76
    },
    {
      "midi": 53,
      "hit": false,
      "t": 162954.64000000033,
      "d": 9.12400000001071,
      "v": 83
    },
    {
      "midi": 53,
      "hit": false,
      "t": 162991.13600000035,
      "d": 9.12400000001071,
      "v": 84
    },
    {
      "midi": 42,
      "hit": false,
      "t": 163137.12000000232,
      "d": 9.12400000001071,
      "v": 70
    },
    {
      "midi": 84,
      "hit": false,
      "t": 163356.09599999996,
      "d": 91.23999999999069,
      "v": 90
    },
    {
      "midi": 79,
      "hit": false,
      "t": 163356.09599999996,
      "d": 91.23999999999069,
      "v": 90
    },
    {
      "midi": 42,
      "hit": false,
      "t": 163356.09600000235,
      "d": 9.12400000001071,
      "v": 98
    },
    {
      "midi": 38,
      "hit": false,
      "t": 163356.09600000235,
      "d": 9.12400000001071,
      "v": 76
    },
    {
      "midi": 29,
      "hit": false,
      "t": 163565.94800000003,
      "d": 273.72000000000116,
      "v": 110
    },
    {
      "midi": 71,
      "hit": false,
      "t": 163575.0719999999,
      "d": 620.4320000000007,
      "v": 100
    },
    {
      "midi": 67,
      "hit": false,
      "t": 163575.0719999999,
      "d": 620.4320000000007,
      "v": 100
    },
    {
      "midi": 62,
      "hit": false,
      "t": 163575.0719999999,
      "d": 620.4320000000007,
      "v": 100
    },
    {
      "midi": 42,
      "hit": false,
      "t": 163575.07200000237,
      "d": 9.12400000001071,
      "v": 70
    },
    {
      "midi": 36,
      "hit": false,
      "t": 163575.07200000237,
      "d": 9.12400000001071,
      "v": 76
    },
    {
      "midi": 84,
      "hit": false,
      "t": 163794.04799999995,
      "d": 91.23999999999069,
      "v": 90
    },
    {
      "midi": 79,
      "hit": false,
      "t": 163794.04799999995,
      "d": 91.23999999999069,
      "v": 90
    },
    {
      "midi": 42,
      "hit": false,
      "t": 163794.0480000024,
      "d": 9.12400000001071,
      "v": 98
    },
    {
      "midi": 42,
      "hit": false,
      "t": 164013.02400000242,
      "d": 9.12400000001071,
      "v": 70
    },
    {
      "midi": 36,
      "hit": false,
      "t": 164013.02400000242,
      "d": 9.12400000001071,
      "v": 76
    },
    {
      "midi": 41,
      "hit": false,
      "t": 164222.87600000005,
      "d": 209.8520000000135,
      "v": 110
    },
    {
      "midi": 72,
      "hit": false,
      "t": 164231.9999999999,
      "d": 620.4320000000007,
      "v": 100
    },
    {
      "midi": 67,
      "hit": false,
      "t": 164231.9999999999,
      "d": 620.4320000000007,
      "v": 100
    },
    {
      "midi": 64,
      "hit": false,
      "t": 164231.9999999999,
      "d": 620.4320000000007,
      "v": 100
    },
    {
      "midi": 42,
      "hit": false,
      "t": 164232.00000000244,
      "d": 9.12400000001071,
      "v": 98
    },
    {
      "midi": 38,
      "hit": false,
      "t": 164232.00000000244,
      "d": 9.12400000001071,
      "v": 76
    },
    {
      "midi": 28,
      "hit": false,
      "t": 164441.85200000007,
      "d": 273.72000000000116,
      "v": 110
    },
    {
      "midi": 42,
      "hit": false,
      "t": 164450.97600000247,
      "d": 9.12400000001071,
      "v": 70
    },
    {
      "midi": 36,
      "hit": false,
      "t": 164450.97600000247,
      "d": 9.12400000001071,
      "v": 76
    },
    {
      "midi": 29,
      "hit": false,
      "t": 164660.82800000007,
      "d": 218.9759999999951,
      "v": 110
    },
    {
      "midi": 42,
      "hit": false,
      "t": 164669.9520000025,
      "d": 9.12400000001071,
      "v": 98
    },
    {
      "midi": 41,
      "hit": false,
      "t": 164879.80400000006,
      "d": 428.8280000000086,
      "v": 110
    },
    {
      "midi": 71,
      "hit": false,
      "t": 164888.92799999993,
      "d": 620.4320000000007,
      "v": 100
    },
    {
      "midi": 67,
      "hit": false,
      "t": 164888.92799999993,
      "d": 620.4320000000007,
      "v": 100
    },
    {
      "midi": 62,
      "hit": false,
      "t": 164888.92799999993,
      "d": 620.4320000000007,
      "v": 100
    },
    {
      "midi": 42,
      "hit": false,
      "t": 164888.92800000252,
      "d": 9.12400000001071,
      "v": 70
    },
    {
      "midi": 36,
      "hit": false,
      "t": 164888.92800000252,
      "d": 9.12400000001071,
      "v": 76
    },
    {
      "midi": 42,
      "hit": false,
      "t": 165107.90400000254,
      "d": 9.12400000001071,
      "v": 98
    },
    {
      "midi": 38,
      "hit": false,
      "t": 165107.90400000254,
      "d": 9.12400000001071,
      "v": 76
    },
    {
      "midi": 29,
      "hit": false,
      "t": 165317.75600000008,
      "d": 273.72000000000116,
      "v": 110
    },
    {
      "midi": 42,
      "hit": false,
      "t": 165326.88000000257,
      "d": 9.12400000001071,
      "v": 70
    },
    {
      "midi": 36,
      "hit": false,
      "t": 165326.88000000257,
      "d": 9.12400000001071,
      "v": 76
    },
    {
      "midi": 72,
      "hit": false,
      "t": 165545.85599999994,
      "d": 839.4079999999958,
      "v": 100
    },
    {
      "midi": 67,
      "hit": false,
      "t": 165545.85599999994,
      "d": 839.4079999999958,
      "v": 100
    },
    {
      "midi": 64,
      "hit": false,
      "t": 165545.85599999994,
      "d": 839.4079999999958,
      "v": 100
    },
    {
      "midi": 42,
      "hit": false,
      "t": 165545.8560000026,
      "d": 9.12400000001071,
      "v": 98
    },
    {
      "midi": 42,
      "hit": false,
      "t": 165764.8320000026,
      "d": 9.12400000001071,
      "v": 70
    },
    {
      "midi": 38,
      "hit": false,
      "t": 165764.8320000026,
      "d": 9.12400000001071,
      "v": 76
    },
    {
      "midi": 53,
      "hit": false,
      "t": 165983.80800000037,
      "d": 9.12400000001071,
      "v": 70
    },
    {
      "midi": 42,
      "hit": false,
      "t": 165983.80800000264,
      "d": 9.12400000001071,
      "v": 98
    },
    {
      "midi": 53,
      "hit": false,
      "t": 166020.30400000038,
      "d": 9.12400000001071,
      "v": 71
    },
    {
      "midi": 53,
      "hit": false,
      "t": 166056.8000000004,
      "d": 9.12400000001071,
      "v": 72
    },
    {
      "midi": 53,
      "hit": false,
      "t": 166093.2960000004,
      "d": 9.12400000001071,
      "v": 73
    },
    {
      "midi": 53,
      "hit": false,
      "t": 166129.79200000042,
      "d": 9.12400000001071,
      "v": 74
    },
    {
      "midi": 53,
      "hit": false,
      "t": 166166.28800000044,
      "d": 9.12400000001071,
      "v": 75
    },
    {
      "midi": 53,
      "hit": false,
      "t": 166202.78400000045,
      "d": 9.12400000001071,
      "v": 76
    },
    {
      "midi": 42,
      "hit": false,
      "t": 166202.78400000266,
      "d": 9.12400000001071,
      "v": 70
    },
    {
      "midi": 36,
      "hit": false,
      "t": 166202.78400000266,
      "d": 9.12400000001071,
      "v": 76
    },
    {
      "midi": 53,
      "hit": false,
      "t": 166239.28000000046,
      "d": 9.12400000001071,
      "v": 77
    },
    {
      "midi": 53,
      "hit": false,
      "t": 166275.77600000048,
      "d": 9.12400000001071,
      "v": 78
    },
    {
      "midi": 53,
      "hit": false,
      "t": 166312.2720000005,
      "d": 9.12400000001071,
      "v": 79
    },
    {
      "midi": 53,
      "hit": false,
      "t": 166348.7680000005,
      "d": 9.12400000001071,
      "v": 80
    },
    {
      "midi": 53,
      "hit": false,
      "t": 166385.26400000052,
      "d": 9.12400000001071,
      "v": 81
    },
    {
      "midi": 31,
      "hit": false,
      "t": 166412.6360000001,
      "d": 647.8040000000037,
      "v": 110
    },
    {
      "midi": 72,
      "hit": false,
      "t": 166421.75999999995,
      "d": 620.4320000000007,
      "v": 100
    },
    {
      "midi": 67,
      "hit": false,
      "t": 166421.75999999995,
      "d": 620.4320000000007,
      "v": 100
    },
    {
      "midi": 62,
      "hit": false,
      "t": 166421.75999999995,
      "d": 620.4320000000007,
      "v": 100
    },
    {
      "midi": 53,
      "hit": false,
      "t": 166421.76000000053,
      "d": 9.12400000001071,
      "v": 82
    },
    {
      "midi": 42,
      "hit": false,
      "t": 166421.7600000027,
      "d": 9.12400000001071,
      "v": 98
    },
    {
      "midi": 36,
      "hit": false,
      "t": 166421.7600000027,
      "d": 9.12400000001071,
      "v": 76
    },
    {
      "midi": 53,
      "hit": false,
      "t": 166458.25600000055,
      "d": 9.12400000001071,
      "v": 83
    },
    {
      "midi": 53,
      "hit": false,
      "t": 166494.75200000056,
      "d": 9.12400000001071,
      "v": 84
    },
    {
      "midi": 42,
      "hit": false,
      "t": 166640.7360000027,
      "d": 9.12400000001071,
      "v": 70
    },
    {
      "midi": 86,
      "hit": false,
      "t": 166859.71199999994,
      "d": 91.23999999999069,
      "v": 90
    },
    {
      "midi": 81,
      "hit": false,
      "t": 166859.71199999994,
      "d": 91.23999999999069,
      "v": 90
    },
    {
      "midi": 42,
      "hit": false,
      "t": 166859.71200000274,
      "d": 9.12400000001071,
      "v": 98
    },
    {
      "midi": 38,
      "hit": false,
      "t": 166859.71200000274,
      "d": 9.12400000001071,
      "v": 76
    },
    {
      "midi": 31,
      "hit": false,
      "t": 167069.5640000001,
      "d": 273.72000000000116,
      "v": 110
    },
    {
      "midi": 71,
      "hit": false,
      "t": 167078.68799999997,
      "d": 620.4320000000007,
      "v": 100
    },
    {
      "midi": 67,
      "hit": false,
      "t": 167078.68799999997,
      "d": 620.4320000000007,
      "v": 100
    },
    {
      "midi": 62,
      "hit": false,
      "t": 167078.68799999997,
      "d": 620.4320000000007,
      "v": 100
    },
    {
      "midi": 42,
      "hit": false,
      "t": 167078.68800000276,
      "d": 9.12400000001071,
      "v": 70
    },
    {
      "midi": 36,
      "hit": false,
      "t": 167078.68800000276,
      "d": 9.12400000001071,
      "v": 76
    },
    {
      "midi": 86,
      "hit": false,
      "t": 167297.66399999993,
      "d": 91.23999999999069,
      "v": 90
    },
    {
      "midi": 81,
      "hit": false,
      "t": 167297.66399999993,
      "d": 91.23999999999069,
      "v": 90
    },
    {
      "midi": 42,
      "hit": false,
      "t": 167297.66400000278,
      "d": 9.12400000001071,
      "v": 98
    },
    {
      "midi": 42,
      "hit": false,
      "t": 167516.6400000028,
      "d": 9.12400000001071,
      "v": 70
    },
    {
      "midi": 36,
      "hit": false,
      "t": 167516.6400000028,
      "d": 9.12400000001071,
      "v": 76
    },
    {
      "midi": 72,
      "hit": false,
      "t": 167735.61599999998,
      "d": 620.4320000000007,
      "v": 100
    },
    {
      "midi": 67,
      "hit": false,
      "t": 167735.61599999998,
      "d": 620.4320000000007,
      "v": 100
    },
    {
      "midi": 62,
      "hit": false,
      "t": 167735.61599999998,
      "d": 620.4320000000007,
      "v": 100
    },
    {
      "midi": 42,
      "hit": false,
      "t": 167735.61600000283,
      "d": 9.12400000001071,
      "v": 98
    },
    {
      "midi": 38,
      "hit": false,
      "t": 167735.61600000283,
      "d": 9.12400000001071,
      "v": 76
    },
    {
      "midi": 28,
      "hit": false,
      "t": 167945.4680000001,
      "d": 209.8520000000135,
      "v": 110
    },
    {
      "midi": 42,
      "hit": false,
      "t": 167954.59200000286,
      "d": 9.12400000001071,
      "v": 70
    },
    {
      "midi": 36,
      "hit": false,
      "t": 167954.59200000286,
      "d": 9.12400000001071,
      "v": 76
    },
    {
      "midi": 31,
      "hit": false,
      "t": 168164.44400000013,
      "d": 209.8520000000135,
      "v": 110
    },
    {
      "midi": 42,
      "hit": false,
      "t": 168173.56800000288,
      "d": 9.12400000001071,
      "v": 98
    },
    {
      "midi": 43,
      "hit": false,
      "t": 168383.42000000016,
      "d": 273.72000000000116,
      "v": 110
    },
    {
      "midi": 71,
      "hit": false,
      "t": 168392.544,
      "d": 620.4320000000007,
      "v": 100
    },
    {
      "midi": 67,
      "hit": false,
      "t": 168392.544,
      "d": 620.4320000000007,
      "v": 100
    },
    {
      "midi": 62,
      "hit": false,
      "t": 168392.544,
      "d": 620.4320000000007,
      "v": 100
    },
    {
      "midi": 42,
      "hit": false,
      "t": 168392.5440000029,
      "d": 9.12400000001071,
      "v": 70
    },
    {
      "midi": 36,
      "hit": false,
      "t": 168392.5440000029,
      "d": 9.12400000001071,
      "v": 76
    },
    {
      "midi": 42,
      "hit": false,
      "t": 168611.52000000293,
      "d": 9.12400000001071,
      "v": 98
    },
    {
      "midi": 38,
      "hit": false,
      "t": 168611.52000000293,
      "d": 9.12400000001071,
      "v": 76
    },
    {
      "midi": 31,
      "hit": false,
      "t": 168821.37200000015,
      "d": 364.95999999999185,
      "v": 110
    },
    {
      "midi": 42,
      "hit": false,
      "t": 168830.49600000295,
      "d": 9.12400000001071,
      "v": 70
    },
    {
      "midi": 36,
      "hit": false,
      "t": 168830.49600000295,
      "d": 9.12400000001071,
      "v": 76
    },
    {
      "midi": 72,
      "hit": false,
      "t": 169049.472,
      "d": 839.4079999999958,
      "v": 100
    },
    {
      "midi": 67,
      "hit": false,
      "t": 169049.472,
      "d": 839.4079999999958,
      "v": 100
    },
    {
      "midi": 62,
      "hit": false,
      "t": 169049.472,
      "d": 839.4079999999958,
      "v": 100
    },
    {
      "midi": 42,
      "hit": false,
      "t": 169049.47200000298,
      "d": 9.12400000001071,
      "v": 98
    },
    {
      "midi": 42,
      "hit": false,
      "t": 169268.448000003,
      "d": 9.12400000001071,
      "v": 70
    },
    {
      "midi": 38,
      "hit": false,
      "t": 169268.448000003,
      "d": 9.12400000001071,
      "v": 76
    },
    {
      "midi": 53,
      "hit": false,
      "t": 169487.42400000058,
      "d": 9.12400000001071,
      "v": 70
    },
    {
      "midi": 42,
      "hit": false,
      "t": 169487.42400000303,
      "d": 9.12400000001071,
      "v": 98
    },
    {
      "midi": 53,
      "hit": false,
      "t": 169523.9200000006,
      "d": 9.12400000001071,
      "v": 71
    },
    {
      "midi": 53,
      "hit": false,
      "t": 169560.4160000006,
      "d": 9.12400000001071,
      "v": 72
    },
    {
      "midi": 53,
      "hit": false,
      "t": 169596.91200000062,
      "d": 9.12400000001071,
      "v": 73
    },
    {
      "midi": 53,
      "hit": false,
      "t": 169633.40800000064,
      "d": 9.12400000001071,
      "v": 74
    },
    {
      "midi": 53,
      "hit": false,
      "t": 169669.90400000065,
      "d": 9.12400000001071,
      "v": 75
    },
    {
      "midi": 53,
      "hit": false,
      "t": 169706.40000000066,
      "d": 9.12400000001071,
      "v": 76
    },
    {
      "midi": 42,
      "hit": false,
      "t": 169706.40000000305,
      "d": 9.12400000001071,
      "v": 70
    },
    {
      "midi": 36,
      "hit": false,
      "t": 169706.40000000305,
      "d": 9.12400000001071,
      "v": 76
    },
    {
      "midi": 53,
      "hit": false,
      "t": 169742.89600000068,
      "d": 9.12400000001071,
      "v": 77
    },
    {
      "midi": 53,
      "hit": false,
      "t": 169779.3920000007,
      "d": 9.12400000001071,
      "v": 78
    },
    {
      "midi": 53,
      "hit": false,
      "t": 169815.8880000007,
      "d": 9.12400000001071,
      "v": 79
    },
    {
      "midi": 53,
      "hit": false,
      "t": 169852.38400000072,
      "d": 9.12400000001071,
      "v": 80
    },
    {
      "midi": 53,
      "hit": false,
      "t": 169888.88000000073,
      "d": 9.12400000001071,
      "v": 81
    },
    {
      "midi": 45,
      "hit": false,
      "t": 169916.25200000015,
      "d": 620.4320000000007,
      "v": 110
    },
    {
      "midi": 84,
      "hit": false,
      "t": 169925.37599999993,
      "d": 91.23999999999069,
      "v": 90
    },
    {
      "midi": 81,
      "hit": false,
      "t": 169925.37599999993,
      "d": 91.23999999999069,
      "v": 90
    },
    {
      "midi": 76,
      "hit": false,
      "t": 169925.37599999993,
      "d": 91.23999999999069,
      "v": 90
    },
    {
      "midi": 72,
      "hit": false,
      "t": 169925.37600000002,
      "d": 620.4320000000007,
      "v": 100
    },
    {
      "midi": 69,
      "hit": false,
      "t": 169925.37600000002,
      "d": 620.4320000000007,
      "v": 100
    },
    {
      "midi": 64,
      "hit": false,
      "t": 169925.37600000002,
      "d": 620.4320000000007,
      "v": 100
    },
    {
      "midi": 49,
      "hit": false,
      "t": 169925.37600000307,
      "d": 9.12400000001071,
      "v": 84
    },
    {
      "midi": 36,
      "hit": false,
      "t": 169925.37600000307,
      "d": 9.12400000001071,
      "v": 84
    },
    {
      "midi": 84,
      "hit": false,
      "t": 170144.35199999993,
      "d": 91.23999999999069,
      "v": 90
    },
    {
      "midi": 81,
      "hit": false,
      "t": 170144.35199999993,
      "d": 91.23999999999069,
      "v": 90
    },
    {
      "midi": 76,
      "hit": false,
      "t": 170144.35199999993,
      "d": 91.23999999999069,
      "v": 90
    },
    {
      "midi": 48,
      "hit": false,
      "t": 170144.35200000074,
      "d": 9.12400000001071,
      "v": 42
    },
    {
      "midi": 48,
      "hit": false,
      "t": 170144.3520000031,
      "d": 9.12400000001071,
      "v": 84
    },
    {
      "midi": 48,
      "hit": false,
      "t": 170363.32800000077,
      "d": 9.12400000001071,
      "v": 42
    },
    {
      "midi": 48,
      "hit": false,
      "t": 170363.32800000312,
      "d": 9.12400000001071,
      "v": 84
    },
    {
      "midi": 43,
      "hit": false,
      "t": 170573.18000000017,
      "d": 620.4320000000007,
      "v": 110
    },
    {
      "midi": 83,
      "hit": false,
      "t": 170582.30399999992,
      "d": 91.23999999999069,
      "v": 90
    },
    {
      "midi": 79,
      "hit": false,
      "t": 170582.30399999992,
      "d": 91.23999999999069,
      "v": 90
    },
    {
      "midi": 74,
      "hit": false,
      "t": 170582.30399999992,
      "d": 91.23999999999069,
      "v": 90
    },
    {
      "midi": 71,
      "hit": false,
      "t": 170582.30400000003,
      "d": 620.4320000000007,
      "v": 100
    },
    {
      "midi": 67,
      "hit": false,
      "t": 170582.30400000003,
      "d": 620.4320000000007,
      "v": 100
    },
    {
      "midi": 62,
      "hit": false,
      "t": 170582.30400000003,
      "d": 620.4320000000007,
      "v": 100
    },
    {
      "midi": 49,
      "hit": false,
      "t": 170582.30400000315,
      "d": 9.12400000001071,
      "v": 84
    },
    {
      "midi": 36,
      "hit": false,
      "t": 170582.30400000315,
      "d": 9.12400000001071,
      "v": 84
    },
    {
      "midi": 83,
      "hit": false,
      "t": 170801.2799999999,
      "d": 91.23999999999069,
      "v": 90
    },
    {
      "midi": 79,
      "hit": false,
      "t": 170801.2799999999,
      "d": 91.23999999999069,
      "v": 90
    },
    {
      "midi": 74,
      "hit": false,
      "t": 170801.2799999999,
      "d": 91.23999999999069,
      "v": 90
    },
    {
      "midi": 45,
      "hit": false,
      "t": 170801.28000000078,
      "d": 9.12400000001071,
      "v": 42
    },
    {
      "midi": 45,
      "hit": false,
      "t": 170801.28000000317,
      "d": 9.12400000001071,
      "v": 84
    },
    {
      "midi": 45,
      "hit": false,
      "t": 171020.2560000008,
      "d": 9.12400000001071,
      "v": 42
    },
    {
      "midi": 45,
      "hit": false,
      "t": 171020.2560000032,
      "d": 9.12400000001071,
      "v": 84
    },
    {
      "midi": 41,
      "hit": false,
      "t": 171230.10800000018,
      "d": 620.4320000000007,
      "v": 110
    },
    {
      "midi": 81,
      "hit": false,
      "t": 171239.2319999999,
      "d": 91.23999999999069,
      "v": 90
    },
    {
      "midi": 77,
      "hit": false,
      "t": 171239.2319999999,
      "d": 91.23999999999069,
      "v": 90
    },
    {
      "midi": 72,
      "hit": false,
      "t": 171239.2319999999,
      "d": 91.23999999999069,
      "v": 90
    },
    {
      "midi": 69,
      "hit": false,
      "t": 171239.23200000005,
      "d": 620.4320000000007,
      "v": 100
    },
    {
      "midi": 65,
      "hit": false,
      "t": 171239.23200000005,
      "d": 620.4320000000007,
      "v": 100
    },
    {
      "midi": 60,
      "hit": false,
      "t": 171239.23200000005,
      "d": 620.4320000000007,
      "v": 100
    },
    {
      "midi": 49,
      "hit": false,
      "t": 171239.23200000322,
      "d": 9.12400000001071,
      "v": 84
    },
    {
      "midi": 36,
      "hit": false,
      "t": 171239.23200000322,
      "d": 9.12400000001071,
      "v": 84
    },
    {
      "midi": 81,
      "hit": false,
      "t": 171458.2079999999,
      "d": 91.23999999999069,
      "v": 90
    },
    {
      "midi": 77,
      "hit": false,
      "t": 171458.2079999999,
      "d": 91.23999999999069,
      "v": 90
    },
    {
      "midi": 72,
      "hit": false,
      "t": 171458.2079999999,
      "d": 91.23999999999069,
      "v": 90
    },
    {
      "midi": 41,
      "hit": false,
      "t": 171458.20800000083,
      "d": 9.12400000001071,
      "v": 42
    },
    {
      "midi": 41,
      "hit": false,
      "t": 171458.20800000324,
      "d": 9.12400000001071,
      "v": 84
    },
    {
      "midi": 41,
      "hit": false,
      "t": 171677.18400000085,
      "d": 9.12400000001071,
      "v": 42
    },
    {
      "midi": 41,
      "hit": false,
      "t": 171677.18400000327,
      "d": 9.12400000001071,
      "v": 84
    },
    {
      "midi": 40,
      "hit": false,
      "t": 171887.0360000002,
      "d": 620.4320000000007,
      "v": 110
    },
    {
      "midi": 79,
      "hit": false,
      "t": 171896.1599999999,
      "d": 91.23999999999069,
      "v": 90
    },
    {
      "midi": 76,
      "hit": false,
      "t": 171896.1599999999,
      "d": 91.23999999999069,
      "v": 90
    },
    {
      "midi": 71,
      "hit": false,
      "t": 171896.1599999999,
      "d": 91.23999999999069,
      "v": 90
    },
    {
      "midi": 67,
      "hit": false,
      "t": 171896.16000000006,
      "d": 620.4320000000007,
      "v": 100
    },
    {
      "midi": 64,
      "hit": false,
      "t": 171896.16000000006,
      "d": 620.4320000000007,
      "v": 100
    },
    {
      "midi": 59,
      "hit": false,
      "t": 171896.16000000006,
      "d": 620.4320000000007,
      "v": 100
    },
    {
      "midi": 49,
      "hit": false,
      "t": 171896.1600000033,
      "d": 9.12400000001071,
      "v": 84
    },
    {
      "midi": 79,
      "hit": false,
      "t": 172115.13599999988,
      "d": 91.23999999999069,
      "v": 90
    },
    {
      "midi": 76,
      "hit": false,
      "t": 172115.13599999988,
      "d": 91.23999999999069,
      "v": 90
    },
    {
      "midi": 71,
      "hit": false,
      "t": 172115.13599999988,
      "d": 91.23999999999069,
      "v": 90
    },
    {
      "midi": 41,
      "hit": false,
      "t": 172334.11200000087,
      "d": 9.12400000001071,
      "v": 42
    },
    {
      "midi": 41,
      "hit": false,
      "t": 172334.1120000033,
      "d": 9.12400000001071,
      "v": 84
    },
    {
      "midi": 38,
      "hit": false,
      "t": 172543.9640000002,
      "d": 401.4560000000056,
      "v": 110
    },
    {
      "midi": 77,
      "hit": false,
      "t": 172553.08799999987,
      "d": 91.23999999999069,
      "v": 90
    },
    {
      "midi": 74,
      "hit": false,
      "t": 172553.08799999987,
      "d": 91.23999999999069,
      "v": 90
    },
    {
      "midi": 69,
      "hit": false,
      "t": 172553.08799999987,
      "d": 91.23999999999069,
      "v": 90
    },
    {
      "midi": 65,
      "hit": false,
      "t": 172553.08800000008,
      "d": 401.4560000000056,
      "v": 100
    },
    {
      "midi": 62,
      "hit": false,
      "t": 172553.08800000008,
      "d": 401.4560000000056,
      "v": 100
    },
    {
      "midi": 57,
      "hit": false,
      "t": 172553.08800000008,
      "d": 401.4560000000056,
      "v": 100
    },
    {
      "midi": 40,
      "hit": false,
      "t": 172553.08800000334,
      "d": 9.12400000001071,
      "v": 84
    },
    {
      "midi": 36,
      "hit": false,
      "t": 172553.08800000334,
      "d": 9.12400000001071,
      "v": 84
    },
    {
      "midi": 77,
      "hit": false,
      "t": 172772.06399999987,
      "d": 91.23999999999069,
      "v": 90
    },
    {
      "midi": 74,
      "hit": false,
      "t": 172772.06399999987,
      "d": 91.23999999999069,
      "v": 90
    },
    {
      "midi": 69,
      "hit": false,
      "t": 172772.06399999987,
      "d": 91.23999999999069,
      "v": 90
    },
    {
      "midi": 36,
      "hit": false,
      "t": 172981.91600000023,
      "d": 401.4560000000056,
      "v": 110
    },
    {
      "midi": 76,
      "hit": false,
      "t": 172991.03999999986,
      "d": 91.23999999999069,
      "v": 90
    },
    {
      "midi": 72,
      "hit": false,
      "t": 172991.03999999986,
      "d": 91.23999999999069,
      "v": 90
    },
    {
      "midi": 67,
      "hit": false,
      "t": 172991.03999999986,
      "d": 91.23999999999069,
      "v": 90
    },
    {
      "midi": 64,
      "hit": false,
      "t": 172991.0400000001,
      "d": 401.4560000000056,
      "v": 100
    },
    {
      "midi": 60,
      "hit": false,
      "t": 172991.0400000001,
      "d": 401.4560000000056,
      "v": 100
    },
    {
      "midi": 55,
      "hit": false,
      "t": 172991.0400000001,
      "d": 401.4560000000056,
      "v": 100
    },
    {
      "midi": 49,
      "hit": false,
      "t": 172991.04000000336,
      "d": 9.12400000001071,
      "v": 84
    },
    {
      "midi": 40,
      "hit": false,
      "t": 172991.04000000336,
      "d": 9.12400000001071,
      "v": 84
    },
    {
      "midi": 76,
      "hit": false,
      "t": 173210.01599999986,
      "d": 91.23999999999069,
      "v": 90
    },
    {
      "midi": 72,
      "hit": false,
      "t": 173210.01599999986,
      "d": 91.23999999999069,
      "v": 90
    },
    {
      "midi": 67,
      "hit": false,
      "t": 173210.01599999986,
      "d": 91.23999999999069,
      "v": 90
    },
    {
      "midi": 34,
      "hit": false,
      "t": 173419.86800000025,
      "d": 1742.6840000000084,
      "v": 110
    },
    {
      "midi": 81,
      "hit": false,
      "t": 173428.99199999985,
      "d": 91.23999999999069,
      "v": 100
    },
    {
      "midi": 77,
      "hit": false,
      "t": 173428.99199999985,
      "d": 91.23999999999069,
      "v": 100
    },
    {
      "midi": 74,
      "hit": false,
      "t": 173428.99199999985,
      "d": 91.23999999999069,
      "v": 100
    },
    {
      "midi": 69,
      "hit": false,
      "t": 173428.99200000011,
      "d": 1715.3120000004128,
      "v": 120
    },
    {
      "midi": 65,
      "hit": false,
      "t": 173428.99200000011,
      "d": 1715.3120000004128,
      "v": 120
    },
    {
      "midi": 62,
      "hit": false,
      "t": 173428.99200000011,
      "d": 1715.3120000004128,
      "v": 120
    },
    {
      "midi": 36,
      "hit": false,
      "t": 173428.99200000337,
      "d": 9.12400000001071,
      "v": 84
    },
    {
      "midi": 48,
      "hit": false,
      "t": 173647.96800000087,
      "d": 9.12400000001071,
      "v": 42
    },
    {
      "midi": 48,
      "hit": false,
      "t": 173647.9680000034,
      "d": 9.12400000001071,
      "v": 84
    },
    {
      "midi": 48,
      "hit": false,
      "t": 173757.45600000088,
      "d": 9.12400000001071,
      "v": 42
    },
    {
      "midi": 48,
      "hit": false,
      "t": 173757.4560000034,
      "d": 9.12400000001071,
      "v": 84
    },
    {
      "midi": 81,
      "hit": false,
      "t": 173866.94399999984,
      "d": 91.23999999999069,
      "v": 100
    },
    {
      "midi": 77,
      "hit": false,
      "t": 173866.94399999984,
      "d": 91.23999999999069,
      "v": 100
    },
    {
      "midi": 74,
      "hit": false,
      "t": 173866.94399999984,
      "d": 91.23999999999069,
      "v": 100
    },
    {
      "midi": 45,
      "hit": false,
      "t": 173866.9440000009,
      "d": 9.12400000001071,
      "v": 42
    },
    {
      "midi": 45,
      "hit": false,
      "t": 173866.94400000342,
      "d": 9.12400000001071,
      "v": 84
    },
    {
      "midi": 45,
      "hit": false,
      "t": 174085.92000000092,
      "d": 9.12400000001071,
      "v": 42
    },
    {
      "midi": 45,
      "hit": false,
      "t": 174085.92000000345,
      "d": 9.12400000001071,
      "v": 84
    },
    {
      "midi": 48,
      "hit": false,
      "t": 174304.89600000094,
      "d": 9.12400000001071,
      "v": 42
    },
    {
      "midi": 48,
      "hit": false,
      "t": 174304.89600000347,
      "d": 9.12400000001071,
      "v": 84
    },
    {
      "midi": 48,
      "hit": false,
      "t": 174414.38400000095,
      "d": 9.12400000001071,
      "v": 42
    },
    {
      "midi": 48,
      "hit": false,
      "t": 174414.38400000348,
      "d": 9.12400000001071,
      "v": 84
    },
    {
      "midi": 45,
      "hit": false,
      "t": 174523.87200000096,
      "d": 9.12400000001071,
      "v": 42
    },
    {
      "midi": 45,
      "hit": false,
      "t": 174523.8720000035,
      "d": 9.12400000001071,
      "v": 84
    },
    {
      "midi": 41,
      "hit": false,
      "t": 174742.848000001,
      "d": 9.12400000001071,
      "v": 42
    },
    {
      "midi": 41,
      "hit": false,
      "t": 174742.84800000352,
      "d": 9.12400000001071,
      "v": 84
    },
    {
      "midi": 41,
      "hit": false,
      "t": 174961.824000001,
      "d": 9.12400000001071,
      "v": 42
    },
    {
      "midi": 41,
      "hit": false,
      "t": 174961.82400000354,
      "d": 9.12400000001071,
      "v": 84
    },
    {
      "midi": 40,
      "hit": false,
      "t": 175171.67600000027,
      "d": 1742.6840000000084,
      "v": 110
    },
    {
      "midi": 83,
      "hit": false,
      "t": 175180.79999999984,
      "d": 91.23999999999069,
      "v": 100
    },
    {
      "midi": 80,
      "hit": false,
      "t": 175180.79999999984,
      "d": 91.23999999999069,
      "v": 100
    },
    {
      "midi": 76,
      "hit": false,
      "t": 175180.79999999984,
      "d": 91.23999999999069,
      "v": 100
    },
    {
      "midi": 71,
      "hit": false,
      "t": 175180.80000000054,
      "d": 1715.3120000004128,
      "v": 120
    },
    {
      "midi": 68,
      "hit": false,
      "t": 175180.80000000054,
      "d": 1715.3120000004128,
      "v": 120
    },
    {
      "midi": 64,
      "hit": false,
      "t": 175180.80000000054,
      "d": 1715.3120000004128,
      "v": 120
    },
    {
      "midi": 49,
      "hit": false,
      "t": 175180.80000000357,
      "d": 9.12400000001071,
      "v": 84
    },
    {
      "midi": 36,
      "hit": false,
      "t": 175180.80000000357,
      "d": 9.12400000001071,
      "v": 84
    },
    {
      "midi": 83,
      "hit": false,
      "t": 175618.75199999983,
      "d": 91.23999999999069,
      "v": 100
    },
    {
      "midi": 80,
      "hit": false,
      "t": 175618.75199999983,
      "d": 91.23999999999069,
      "v": 100
    },
    {
      "midi": 76,
      "hit": false,
      "t": 175618.75199999983,
      "d": 91.23999999999069,
      "v": 100
    },
    {
      "midi": 40,
      "hit": false,
      "t": 175618.7520000036,
      "d": 9.12400000001071,
      "v": 84
    },
    {
      "midi": 71,
      "hit": false,
      "t": 176275.68000000066,
      "d": 182.48000000001048,
      "v": 120
    },
    {
      "midi": 40,
      "hit": false,
      "t": 176275.6800000036,
      "d": 9.12400000001071,
      "v": 56
    },
    {
      "midi": 71,
      "hit": false,
      "t": 176385.16800000065,
      "d": 182.48000000001048,
      "v": 120
    },
    {
      "midi": 71,
      "hit": false,
      "t": 176494.65600000066,
      "d": 182.48000000001048,
      "v": 120
    },
    {
      "midi": 72,
      "hit": false,
      "t": 176494.6560000007,
      "d": 182.48000000001048,
      "v": 120
    },
    {
      "midi": 40,
      "hit": false,
      "t": 176494.65600000363,
      "d": 9.12400000001071,
      "v": 70
    },
    {
      "midi": 72,
      "hit": false,
      "t": 176604.14400000067,
      "d": 182.48000000001048,
      "v": 120
    },
    {
      "midi": 72,
      "hit": false,
      "t": 176713.63200000068,
      "d": 182.48000000001048,
      "v": 120
    },
    {
      "midi": 74,
      "hit": false,
      "t": 176713.6320000007,
      "d": 182.48000000001048,
      "v": 120
    },
    {
      "midi": 40,
      "hit": false,
      "t": 176713.63200000365,
      "d": 9.12400000001071,
      "v": 84
    },
    {
      "midi": 74,
      "hit": false,
      "t": 176823.1200000007,
      "d": 182.48000000001048,
      "v": 120
    },
    {
      "midi": 33,
      "hit": false,
      "t": 176923.4840000003,
      "d": 209.8520000000135,
      "v": 110
    },
    {
      "midi": 74,
      "hit": false,
      "t": 176932.6080000007,
      "d": 182.48000000001048,
      "v": 120
    },
    {
      "midi": 76,
      "hit": false,
      "t": 176932.60800000074,
      "d": 182.48000000001048,
      "v": 120
    },
    {
      "midi": 64,
      "hit": false,
      "t": 176932.60800000097,
      "d": 3275.5160000000033,
      "v": 60
    },
    {
      "midi": 57,
      "hit": false,
      "t": 176932.60800000097,
      "d": 3275.5160000000033,
      "v": 60
    },
    {
      "midi": 49,
      "hit": false,
      "t": 176932.60800000367,
      "d": 9.12400000001071,
      "v": 84
    },
    {
      "midi": 36,
      "hit": false,
      "t": 176932.60800000367,
      "d": 9.12400000001071,
      "v": 84
    },
    {
      "midi": 76,
      "hit": false,
      "t": 177042.09600000072,
      "d": 182.48000000001048,
      "v": 120
    },
    {
      "midi": 76,
      "hit": false,
      "t": 177151.58400000073,
      "d": 182.48000000001048,
      "v": 120
    },
    {
      "midi": 76,
      "hit": false,
      "t": 177151.58400000076,
      "d": 182.48000000001048,
      "v": 120
    },
    {
      "midi": 42,
      "hit": false,
      "t": 177151.5840000037,
      "d": 9.12400000001071,
      "v": 70
    },
    {
      "midi": 76,
      "hit": false,
      "t": 177261.07200000074,
      "d": 182.48000000001048,
      "v": 120
    },
    {
      "midi": 76,
      "hit": false,
      "t": 177370.56000000075,
      "d": 182.48000000001048,
      "v": 120
    },
    {
      "midi": 74,
      "hit": false,
      "t": 177370.56000000078,
      "d": 182.48000000001048,
      "v": 120
    },
    {
      "midi": 42,
      "hit": false,
      "t": 177370.56000000372,
      "d": 9.12400000001071,
      "v": 98
    },
    {
      "midi": 38,
      "hit": false,
      "t": 177370.56000000372,
      "d": 9.12400000001071,
      "v": 84
    },
    {
      "midi": 74,
      "hit": false,
      "t": 177480.04800000077,
      "d": 182.48000000001048,
      "v": 120
    },
    {
      "midi": 33,
      "hit": false,
      "t": 177580.4120000003,
      "d": 209.8520000000135,
      "v": 110
    },
    {
      "midi": 74,
      "hit": false,
      "t": 177589.53600000078,
      "d": 182.48000000001048,
      "v": 120
    },
    {
      "midi": 72,
      "hit": false,
      "t": 177589.5360000008,
      "d": 182.48000000001048,
      "v": 120
    },
    {
      "midi": 42,
      "hit": false,
      "t": 177589.53600000375,
      "d": 9.12400000001071,
      "v": 70
    },
    {
      "midi": 36,
      "hit": false,
      "t": 177589.53600000375,
      "d": 9.12400000001071,
      "v": 84
    },
    {
      "midi": 72,
      "hit": false,
      "t": 177699.0240000008,
      "d": 182.48000000001048,
      "v": 120
    },
    {
      "midi": 72,
      "hit": false,
      "t": 177808.5120000008,
      "d": 182.48000000001048,
      "v": 120
    },
    {
      "midi": 72,
      "hit": false,
      "t": 177808.51200000083,
      "d": 182.48000000001048,
      "v": 120
    },
    {
      "midi": 42,
      "hit": false,
      "t": 177808.51200000377,
      "d": 9.12400000001071,
      "v": 98
    },
    {
      "midi": 72,
      "hit": false,
      "t": 177918.00000000081,
      "d": 182.48000000001048,
      "v": 120
    },
    {
      "midi": 72,
      "hit": false,
      "t": 178027.48800000083,
      "d": 182.48000000001048,
      "v": 120
    },
    {
      "midi": 71,
      "hit": false,
      "t": 178027.48800000086,
      "d": 182.48000000001048,
      "v": 120
    },
    {
      "midi": 42,
      "hit": false,
      "t": 178027.4880000038,
      "d": 9.12400000001071,
      "v": 70
    },
    {
      "midi": 36,
      "hit": false,
      "t": 178027.4880000038,
      "d": 9.12400000001071,
      "v": 84
    },
    {
      "midi": 71,
      "hit": false,
      "t": 178136.97600000084,
      "d": 182.48000000001048,
      "v": 120
    },
    {
      "midi": 71,
      "hit": false,
      "t": 178246.46400000085,
      "d": 182.48000000001048,
      "v": 120
    },
    {
      "midi": 72,
      "hit": false,
      "t": 178246.46400000088,
      "d": 182.48000000001048,
      "v": 120
    },
    {
      "midi": 42,
      "hit": false,
      "t": 178246.46400000382,
      "d": 9.12400000001071,
      "v": 98
    },
    {
      "midi": 38,
      "hit": false,
      "t": 178246.46400000382,
      "d": 9.12400000001071,
      "v": 84
    },
    {
      "midi": 72,
      "hit": false,
      "t": 178355.95200000086,
      "d": 182.48000000001048,
      "v": 120
    },
    {
      "midi": 28,
      "hit": false,
      "t": 178456.3160000003,
      "d": 273.72000000000116,
      "v": 110
    },
    {
      "midi": 72,
      "hit": false,
      "t": 178465.44000000088,
      "d": 182.48000000001048,
      "v": 120
    },
    {
      "midi": 74,
      "hit": false,
      "t": 178465.4400000009,
      "d": 182.48000000001048,
      "v": 120
    },
    {
      "midi": 42,
      "hit": false,
      "t": 178465.44000000384,
      "d": 9.12400000001071,
      "v": 70
    },
    {
      "midi": 74,
      "hit": false,
      "t": 178574.9280000009,
      "d": 182.48000000001048,
      "v": 120
    },
    {
      "midi": 74,
      "hit": false,
      "t": 178684.4160000009,
      "d": 182.48000000001048,
      "v": 120
    },
    {
      "midi": 76,
      "hit": false,
      "t": 178684.41600000093,
      "d": 182.48000000001048,
      "v": 120
    },
    {
      "midi": 42,
      "hit": false,
      "t": 178684.41600000387,
      "d": 9.12400000001071,
      "v": 98
    },
    {
      "midi": 36,
      "hit": false,
      "t": 178684.41600000387,
      "d": 9.12400000001071,
      "v": 84
    },
    {
      "midi": 76,
      "hit": false,
      "t": 178793.9040000009,
      "d": 182.48000000001048,
      "v": 120
    },
    {
      "midi": 45,
      "hit": false,
      "t": 178894.2680000003,
      "d": 273.72000000000116,
      "v": 110
    },
    {
      "midi": 76,
      "hit": false,
      "t": 178903.39200000092,
      "d": 182.48000000001048,
      "v": 120
    },
    {
      "midi": 76,
      "hit": false,
      "t": 178903.39200000095,
      "d": 182.48000000001048,
      "v": 120
    },
    {
      "midi": 42,
      "hit": false,
      "t": 178903.3920000039,
      "d": 9.12400000001071,
      "v": 70
    },
    {
      "midi": 76,
      "hit": false,
      "t": 179012.88000000094,
      "d": 182.48000000001048,
      "v": 120
    },
    {
      "midi": 76,
      "hit": false,
      "t": 179122.36800000095,
      "d": 182.48000000001048,
      "v": 120
    },
    {
      "midi": 74,
      "hit": false,
      "t": 179122.36800000098,
      "d": 182.48000000001048,
      "v": 120
    },
    {
      "midi": 42,
      "hit": false,
      "t": 179122.36800000392,
      "d": 9.12400000001071,
      "v": 98
    },
    {
      "midi": 38,
      "hit": false,
      "t": 179122.36800000392,
      "d": 9.12400000001071,
      "v": 84
    },
    {
      "midi": 74,
      "hit": false,
      "t": 179231.85600000096,
      "d": 182.48000000001048,
      "v": 120
    },
    {
      "midi": 33,
      "hit": false,
      "t": 179332.2200000003,
      "d": 273.72000000000116,
      "v": 110
    },
    {
      "midi": 74,
      "hit": false,
      "t": 179341.34400000097,
      "d": 182.48000000001048,
      "v": 120
    },
    {
      "midi": 72,
      "hit": false,
      "t": 179341.344000001,
      "d": 401.4560000000056,
      "v": 120
    },
    {
      "midi": 42,
      "hit": false,
      "t": 179341.34400000394,
      "d": 9.12400000001071,
      "v": 70
    },
    {
      "midi": 36,
      "hit": false,
      "t": 179341.34400000394,
      "d": 9.12400000001071,
      "v": 84
    },
    {
      "midi": 72,
      "hit": false,
      "t": 179450.83200000098,
      "d": 401.4560000000056,
      "v": 120
    },
    {
      "midi": 72,
      "hit": false,
      "t": 179560.320000001,
      "d": 401.4560000000056,
      "v": 120
    },
    {
      "midi": 42,
      "hit": false,
      "t": 179560.32000000397,
      "d": 9.12400000001071,
      "v": 98
    },
    {
      "midi": 71,
      "hit": false,
      "t": 179779.29600000102,
      "d": 182.48000000001048,
      "v": 120
    },
    {
      "midi": 42,
      "hit": false,
      "t": 179779.296000004,
      "d": 9.12400000001071,
      "v": 70
    },
    {
      "midi": 36,
      "hit": false,
      "t": 179779.296000004,
      "d": 9.12400000001071,
      "v": 84
    },
    {
      "midi": 71,
      "hit": false,
      "t": 179888.784000001,
      "d": 182.48000000001048,
      "v": 120
    },
    {
      "midi": 71,
      "hit": false,
      "t": 179998.27200000102,
      "d": 182.48000000001048,
      "v": 120
    },
    {
      "midi": 71,
      "hit": false,
      "t": 179998.27200000104,
      "d": 182.48000000001048,
      "v": 120
    },
    {
      "midi": 42,
      "hit": false,
      "t": 179998.272000004,
      "d": 9.12400000001071,
      "v": 98
    },
    {
      "midi": 38,
      "hit": false,
      "t": 179998.272000004,
      "d": 9.12400000001071,
      "v": 84
    },
    {
      "midi": 71,
      "hit": false,
      "t": 180107.76000000103,
      "d": 182.48000000001048,
      "v": 120
    },
    {
      "midi": 29,
      "hit": false,
      "t": 180208.1240000003,
      "d": 848.5320000000065,
      "v": 110
    },
    {
      "midi": 60,
      "hit": false,
      "t": 180217.24800000098,
      "d": 3713.4679999999935,
      "v": 60
    },
    {
      "midi": 53,
      "hit": false,
      "t": 180217.24800000098,
      "d": 3713.4679999999935,
      "v": 60
    },
    {
      "midi": 71,
      "hit": false,
      "t": 180217.24800000104,
      "d": 182.48000000001048,
      "v": 120
    },
    {
      "midi": 72,
      "hit": false,
      "t": 180217.24800000107,
      "d": 182.48000000001048,
      "v": 120
    },
    {
      "midi": 42,
      "hit": false,
      "t": 180217.24800000404,
      "d": 9.12400000001071,
      "v": 70
    },
    {
      "midi": 36,
      "hit": false,
      "t": 180217.24800000404,
      "d": 9.12400000001071,
      "v": 84
    },
    {
      "midi": 72,
      "hit": false,
      "t": 180326.73600000105,
      "d": 182.48000000001048,
      "v": 120
    },
    {
      "midi": 72,
      "hit": false,
      "t": 180436.22400000106,
      "d": 182.48000000001048,
      "v": 120
    },
    {
      "midi": 42,
      "hit": false,
      "t": 180436.22400000406,
      "d": 9.12400000001071,
      "v": 98
    },
    {
      "midi": 42,
      "hit": false,
      "t": 180655.2000000041,
      "d": 9.12400000001071,
      "v": 70
    },
    {
      "midi": 42,
      "hit": false,
      "t": 180874.1760000041,
      "d": 9.12400000001071,
      "v": 98
    },
    {
      "midi": 38,
      "hit": false,
      "t": 180874.1760000041,
      "d": 9.12400000001071,
      "v": 84
    },
    {
      "midi": 29,
      "hit": false,
      "t": 181084.0280000003,
      "d": 209.8520000000135,
      "v": 110
    },
    {
      "midi": 42,
      "hit": false,
      "t": 181093.15200000413,
      "d": 9.12400000001071,
      "v": 70
    },
    {
      "midi": 36,
      "hit": false,
      "t": 181093.15200000413,
      "d": 9.12400000001071,
      "v": 84
    },
    {
      "midi": 42,
      "hit": false,
      "t": 181312.12800000416,
      "d": 9.12400000001071,
      "v": 98
    },
    {
      "midi": 36,
      "hit": false,
      "t": 181312.12800000416,
      "d": 9.12400000001071,
      "v": 84
    },
    {
      "midi": 42,
      "hit": false,
      "t": 181531.10400000418,
      "d": 9.12400000001071,
      "v": 70
    },
    {
      "midi": 42,
      "hit": false,
      "t": 181750.0800000042,
      "d": 9.12400000001071,
      "v": 98
    },
    {
      "midi": 38,
      "hit": false,
      "t": 181750.0800000042,
      "d": 9.12400000001071,
      "v": 84
    },
    {
      "midi": 28,
      "hit": false,
      "t": 181959.93200000032,
      "d": 273.72000000000116,
      "v": 110
    },
    {
      "midi": 72,
      "hit": false,
      "t": 181969.0560000011,
      "d": 182.48000000001048,
      "v": 120
    },
    {
      "midi": 42,
      "hit": false,
      "t": 181969.05600000423,
      "d": 9.12400000001071,
      "v": 70
    },
    {
      "midi": 36,
      "hit": false,
      "t": 181969.05600000423,
      "d": 9.12400000001071,
      "v": 84
    },
    {
      "midi": 72,
      "hit": false,
      "t": 182078.54400000107,
      "d": 182.48000000001048,
      "v": 120
    },
    {
      "midi": 72,
      "hit": false,
      "t": 182188.03200000108,
      "d": 182.48000000001048,
      "v": 120
    },
    {
      "midi": 76,
      "hit": false,
      "t": 182188.0320000011,
      "d": 182.48000000001048,
      "v": 120
    },
    {
      "midi": 42,
      "hit": false,
      "t": 182188.03200000426,
      "d": 9.12400000001071,
      "v": 98
    },
    {
      "midi": 36,
      "hit": false,
      "t": 182188.03200000426,
      "d": 9.12400000001071,
      "v": 84
    },
    {
      "midi": 76,
      "hit": false,
      "t": 182297.5200000011,
      "d": 182.48000000001048,
      "v": 120
    },
    {
      "midi": 41,
      "hit": false,
      "t": 182397.8840000003,
      "d": 273.72000000000116,
      "v": 110
    },
    {
      "midi": 76,
      "hit": false,
      "t": 182407.0080000011,
      "d": 182.48000000001048,
      "v": 120
    },
    {
      "midi": 74,
      "hit": false,
      "t": 182407.00800000114,
      "d": 182.48000000001048,
      "v": 120
    },
    {
      "midi": 42,
      "hit": false,
      "t": 182407.00800000428,
      "d": 9.12400000001071,
      "v": 70
    },
    {
      "midi": 74,
      "hit": false,
      "t": 182516.49600000112,
      "d": 182.48000000001048,
      "v": 120
    },
    {
      "midi": 74,
      "hit": false,
      "t": 182625.98400000113,
      "d": 182.48000000001048,
      "v": 120
    },
    {
      "midi": 72,
      "hit": false,
      "t": 182625.98400000116,
      "d": 182.48000000001048,
      "v": 120
    },
    {
      "midi": 42,
      "hit": false,
      "t": 182625.9840000043,
      "d": 9.12400000001071,
      "v": 98
    },
    {
      "midi": 38,
      "hit": false,
      "t": 182625.9840000043,
      "d": 9.12400000001071,
      "v": 84
    },
    {
      "midi": 72,
      "hit": false,
      "t": 182735.47200000114,
      "d": 182.48000000001048,
      "v": 120
    },
    {
      "midi": 29,
      "hit": false,
      "t": 182835.8360000003,
      "d": 273.72000000000116,
      "v": 110
    },
    {
      "midi": 72,
      "hit": false,
      "t": 182844.96000000116,
      "d": 182.48000000001048,
      "v": 120
    },
    {
      "midi": 74,
      "hit": false,
      "t": 182844.96000000119,
      "d": 401.4560000000056,
      "v": 120
    },
    {
      "midi": 42,
      "hit": false,
      "t": 182844.96000000433,
      "d": 9.12400000001071,
      "v": 70
    },
    {
      "midi": 36,
      "hit": false,
      "t": 182844.96000000433,
      "d": 9.12400000001071,
      "v": 84
    },
    {
      "midi": 74,
      "hit": false,
      "t": 182954.44800000117,
      "d": 401.4560000000056,
      "v": 120
    },
    {
      "midi": 74,
      "hit": false,
      "t": 183063.93600000118,
      "d": 401.4560000000056,
      "v": 120
    },
    {
      "midi": 42,
      "hit": false,
      "t": 183063.93600000435,
      "d": 9.12400000001071,
      "v": 98
    },
    {
      "midi": 72,
      "hit": false,
      "t": 183282.9120000012,
      "d": 182.48000000001048,
      "v": 120
    },
    {
      "midi": 42,
      "hit": false,
      "t": 183282.91200000438,
      "d": 9.12400000001071,
      "v": 70
    },
    {
      "midi": 36,
      "hit": false,
      "t": 183282.91200000438,
      "d": 9.12400000001071,
      "v": 84
    },
    {
      "midi": 72,
      "hit": false,
      "t": 183392.4000000012,
      "d": 182.48000000001048,
      "v": 120
    },
    {
      "midi": 72,
      "hit": false,
      "t": 183501.8880000012,
      "d": 182.48000000001048,
      "v": 120
    },
    {
      "midi": 72,
      "hit": false,
      "t": 183501.88800000123,
      "d": 182.48000000001048,
      "v": 120
    },
    {
      "midi": 42,
      "hit": false,
      "t": 183501.8880000044,
      "d": 9.12400000001071,
      "v": 98
    },
    {
      "midi": 38,
      "hit": false,
      "t": 183501.8880000044,
      "d": 9.12400000001071,
      "v": 84
    },
    {
      "midi": 72,
      "hit": false,
      "t": 183611.3760000012,
      "d": 182.48000000001048,
      "v": 120
    },
    {
      "midi": 72,
      "hit": false,
      "t": 183720.86400000122,
      "d": 182.48000000001048,
      "v": 120
    },
    {
      "midi": 42,
      "hit": false,
      "t": 183720.86400000443,
      "d": 9.12400000001071,
      "v": 70
    },
    {
      "midi": 31,
      "hit": false,
      "t": 183930.7160000003,
      "d": 629.5560000000114,
      "v": 110
    },
    {
      "midi": 59,
      "hit": false,
      "t": 183939.840000001,
      "d": 1742.6840000000084,
      "v": 60
    },
    {
      "midi": 55,
      "hit": false,
      "t": 183939.840000001,
      "d": 1742.6840000000084,
      "v": 60
    },
    {
      "midi": 76,
      "hit": false,
      "t": 183939.84000000125,
      "d": 620.4320000000007,
      "v": 120
    },
    {
      "midi": 42,
      "hit": false,
      "t": 183939.84000000445,
      "d": 9.12400000001071,
      "v": 98
    },
    {
      "midi": 36,
      "hit": false,
      "t": 183939.84000000445,
      "d": 9.12400000001071,
      "v": 84
    },
    {
      "midi": 76,
      "hit": false,
      "t": 184049.32800000123,
      "d": 620.4320000000007,
      "v": 120
    },
    {
      "midi": 76,
      "hit": false,
      "t": 184158.81600000124,
      "d": 620.4320000000007,
      "v": 120
    },
    {
      "midi": 42,
      "hit": false,
      "t": 184158.81600000447,
      "d": 9.12400000001071,
      "v": 70
    },
    {
      "midi": 42,
      "hit": false,
      "t": 184377.7920000045,
      "d": 9.12400000001071,
      "v": 98
    },
    {
      "midi": 38,
      "hit": false,
      "t": 184377.7920000045,
      "d": 9.12400000001071,
      "v": 84
    },
    {
      "midi": 31,
      "hit": false,
      "t": 184587.64400000032,
      "d": 209.8520000000135,
      "v": 110
    },
    {
      "midi": 74,
      "hit": false,
      "t": 184596.76800000126,
      "d": 182.48000000001048,
      "v": 120
    },
    {
      "midi": 42,
      "hit": false,
      "t": 184596.76800000452,
      "d": 9.12400000001071,
      "v": 70
    },
    {
      "midi": 36,
      "hit": false,
      "t": 184596.76800000452,
      "d": 9.12400000001071,
      "v": 84
    },
    {
      "midi": 74,
      "hit": false,
      "t": 184706.25600000125,
      "d": 182.48000000001048,
      "v": 120
    },
    {
      "midi": 74,
      "hit": false,
      "t": 184815.74400000126,
      "d": 182.48000000001048,
      "v": 120
    },
    {
      "midi": 74,
      "hit": false,
      "t": 184815.7440000013,
      "d": 182.48000000001048,
      "v": 120
    },
    {
      "midi": 42,
      "hit": false,
      "t": 184815.74400000455,
      "d": 9.12400000001071,
      "v": 98
    },
    {
      "midi": 74,
      "hit": false,
      "t": 184925.23200000127,
      "d": 182.48000000001048,
      "v": 120
    },
    {
      "midi": 74,
      "hit": false,
      "t": 185034.72000000128,
      "d": 182.48000000001048,
      "v": 120
    },
    {
      "midi": 42,
      "hit": false,
      "t": 185034.72000000457,
      "d": 9.12400000001071,
      "v": 70
    },
    {
      "midi": 36,
      "hit": false,
      "t": 185034.72000000457,
      "d": 9.12400000001071,
      "v": 84
    },
    {
      "midi": 42,
      "hit": false,
      "t": 185253.6960000046,
      "d": 9.12400000001071,
      "v": 98
    },
    {
      "midi": 38,
      "hit": false,
      "t": 185253.6960000046,
      "d": 9.12400000001071,
      "v": 84
    },
    {
      "midi": 31,
      "hit": false,
      "t": 185463.54800000033,
      "d": 355.83599999998114,
      "v": 110
    },
    {
      "midi": 74,
      "hit": false,
      "t": 185472.6720000013,
      "d": 182.48000000001048,
      "v": 120
    },
    {
      "midi": 42,
      "hit": false,
      "t": 185472.67200000462,
      "d": 9.12400000001071,
      "v": 70
    },
    {
      "midi": 74,
      "hit": false,
      "t": 185582.16000000128,
      "d": 182.48000000001048,
      "v": 120
    },
    {
      "midi": 62,
      "hit": false,
      "t": 185691.648000001,
      "d": 1742.6840000000084,
      "v": 60
    },
    {
      "midi": 59,
      "hit": false,
      "t": 185691.648000001,
      "d": 1742.6840000000084,
      "v": 60
    },
    {
      "midi": 74,
      "hit": false,
      "t": 185691.6480000013,
      "d": 182.48000000001048,
      "v": 120
    },
    {
      "midi": 77,
      "hit": false,
      "t": 185691.64800000133,
      "d": 620.4320000000007,
      "v": 120
    },
    {
      "midi": 42,
      "hit": false,
      "t": 185691.64800000464,
      "d": 9.12400000001071,
      "v": 98
    },
    {
      "midi": 36,
      "hit": false,
      "t": 185691.64800000464,
      "d": 9.12400000001071,
      "v": 84
    },
    {
      "midi": 77,
      "hit": false,
      "t": 185801.1360000013,
      "d": 620.4320000000007,
      "v": 120
    },
    {
      "midi": 44,
      "hit": false,
      "t": 185901.50000000032,
      "d": 273.72000000000116,
      "v": 110
    },
    {
      "midi": 77,
      "hit": false,
      "t": 185910.62400000132,
      "d": 620.4320000000007,
      "v": 120
    },
    {
      "midi": 42,
      "hit": false,
      "t": 185910.62400000467,
      "d": 9.12400000001071,
      "v": 70
    },
    {
      "midi": 42,
      "hit": false,
      "t": 186129.6000000047,
      "d": 9.12400000001071,
      "v": 98
    },
    {
      "midi": 38,
      "hit": false,
      "t": 186129.6000000047,
      "d": 9.12400000001071,
      "v": 84
    },
    {
      "midi": 32,
      "hit": false,
      "t": 186339.4520000003,
      "d": 273.72000000000116,
      "v": 110
    },
    {
      "midi": 76,
      "hit": false,
      "t": 186348.57600000134,
      "d": 182.48000000001048,
      "v": 120
    },
    {
      "midi": 42,
      "hit": false,
      "t": 186348.57600000472,
      "d": 9.12400000001071,
      "v": 70
    },
    {
      "midi": 36,
      "hit": false,
      "t": 186348.57600000472,
      "d": 9.12400000001071,
      "v": 84
    },
    {
      "midi": 76,
      "hit": false,
      "t": 186458.06400000132,
      "d": 182.48000000001048,
      "v": 120
    },
    {
      "midi": 76,
      "hit": false,
      "t": 186567.55200000133,
      "d": 182.48000000001048,
      "v": 120
    },
    {
      "midi": 76,
      "hit": false,
      "t": 186567.55200000136,
      "d": 182.48000000001048,
      "v": 120
    },
    {
      "midi": 42,
      "hit": false,
      "t": 186567.55200000474,
      "d": 9.12400000001071,
      "v": 98
    },
    {
      "midi": 76,
      "hit": false,
      "t": 186677.04000000135,
      "d": 182.48000000001048,
      "v": 120
    },
    {
      "midi": 76,
      "hit": false,
      "t": 186786.52800000136,
      "d": 182.48000000001048,
      "v": 120
    },
    {
      "midi": 76,
      "hit": false,
      "t": 186786.5280000014,
      "d": 182.48000000001048,
      "v": 120
    },
    {
      "midi": 42,
      "hit": false,
      "t": 186786.52800000476,
      "d": 9.12400000001071,
      "v": 70
    },
    {
      "midi": 36,
      "hit": false,
      "t": 186786.52800000476,
      "d": 9.12400000001071,
      "v": 84
    },
    {
      "midi": 76,
      "hit": false,
      "t": 186896.01600000137,
      "d": 182.48000000001048,
      "v": 120
    },
    {
      "midi": 76,
      "hit": false,
      "t": 187005.50400000138,
      "d": 182.48000000001048,
      "v": 120
    },
    {
      "midi": 76,
      "hit": false,
      "t": 187005.5040000014,
      "d": 182.48000000001048,
      "v": 120
    },
    {
      "midi": 42,
      "hit": false,
      "t": 187005.5040000048,
      "d": 9.12400000001071,
      "v": 98
    },
    {
      "midi": 38,
      "hit": false,
      "t": 187005.5040000048,
      "d": 9.12400000001071,
      "v": 84
    },
    {
      "midi": 76,
      "hit": false,
      "t": 187114.9920000014,
      "d": 182.48000000001048,
      "v": 120
    },
    {
      "midi": 76,
      "hit": false,
      "t": 187224.4800000014,
      "d": 182.48000000001048,
      "v": 120
    },
    {
      "midi": 76,
      "hit": false,
      "t": 187224.48000000144,
      "d": 182.48000000001048,
      "v": 120
    },
    {
      "midi": 42,
      "hit": false,
      "t": 187224.4800000048,
      "d": 9.12400000001071,
      "v": 70
    },
    {
      "midi": 76,
      "hit": false,
      "t": 187333.96800000142,
      "d": 182.48000000001048,
      "v": 120
    },
    {
      "midi": 33,
      "hit": false,
      "t": 187434.33200000032,
      "d": 629.5560000000114,
      "v": 110
    },
    {
      "midi": 64,
      "hit": false,
      "t": 187443.45600000102,
      "d": 647.8040000000037,
      "v": 60
    },
    {
      "midi": 57,
      "hit": false,
      "t": 187443.45600000102,
      "d": 647.8040000000037,
      "v": 60
    },
    {
      "midi": 76,
      "hit": false,
      "t": 187443.45600000143,
      "d": 182.48000000001048,
      "v": 120
    },
    {
      "midi": 76,
      "hit": false,
      "t": 187443.45600000146,
      "d": 182.48000000001048,
      "v": 120
    },
    {
      "midi": 42,
      "hit": false,
      "t": 187443.45600000484,
      "d": 9.12400000001071,
      "v": 98
    },
    {
      "midi": 36,
      "hit": false,
      "t": 187443.45600000484,
      "d": 9.12400000001071,
      "v": 84
    },
    {
      "midi": 76,
      "hit": false,
      "t": 187552.94400000144,
      "d": 182.48000000001048,
      "v": 120
    },
    {
      "midi": 76,
      "hit": false,
      "t": 187662.43200000146,
      "d": 182.48000000001048,
      "v": 120
    },
    {
      "midi": 74,
      "hit": false,
      "t": 187662.43200000148,
      "d": 182.48000000001048,
      "v": 120
    },
    {
      "midi": 42,
      "hit": false,
      "t": 187662.43200000486,
      "d": 9.12400000001071,
      "v": 70
    },
    {
      "midi": 74,
      "hit": false,
      "t": 187771.92000000147,
      "d": 182.48000000001048,
      "v": 120
    },
    {
      "midi": 74,
      "hit": false,
      "t": 187881.40800000148,
      "d": 182.48000000001048,
      "v": 120
    },
    {
      "midi": 72,
      "hit": false,
      "t": 187881.4080000015,
      "d": 182.48000000001048,
      "v": 120
    },
    {
      "midi": 42,
      "hit": false,
      "t": 187881.40800000489,
      "d": 9.12400000001071,
      "v": 98
    },
    {
      "midi": 38,
      "hit": false,
      "t": 187881.40800000489,
      "d": 9.12400000001071,
      "v": 84
    },
    {
      "midi": 72,
      "hit": false,
      "t": 187990.8960000015,
      "d": 182.48000000001048,
      "v": 120
    },
    {
      "midi": 38,
      "hit": false,
      "t": 188091.26000000033,
      "d": 866.7799999999988,
      "v": 110
    },
    {
      "midi": 62,
      "hit": false,
      "t": 188100.38400000104,
      "d": 866.7799999999988,
      "v": 60
    },
    {
      "midi": 57,
      "hit": false,
      "t": 188100.38400000104,
      "d": 866.7799999999988,
      "v": 60
    },
    {
      "midi": 72,
      "hit": false,
      "t": 188100.3840000015,
      "d": 182.48000000001048,
      "v": 120
    },
    {
      "midi": 74,
      "hit": false,
      "t": 188100.38400000153,
      "d": 182.48000000001048,
      "v": 120
    },
    {
      "midi": 42,
      "hit": false,
      "t": 188100.3840000049,
      "d": 9.12400000001071,
      "v": 70
    },
    {
      "midi": 36,
      "hit": false,
      "t": 188100.3840000049,
      "d": 9.12400000001071,
      "v": 84
    },
    {
      "midi": 74,
      "hit": false,
      "t": 188209.87200000152,
      "d": 182.48000000001048,
      "v": 120
    },
    {
      "midi": 74,
      "hit": false,
      "t": 188319.36000000153,
      "d": 182.48000000001048,
      "v": 120
    },
    {
      "midi": 42,
      "hit": false,
      "t": 188319.36000000493,
      "d": 9.12400000001071,
      "v": 98
    },
    {
      "midi": 72,
      "hit": false,
      "t": 188538.33600000155,
      "d": 182.48000000001048,
      "v": 120
    },
    {
      "midi": 42,
      "hit": false,
      "t": 188538.33600000496,
      "d": 9.12400000001071,
      "v": 70
    },
    {
      "midi": 36,
      "hit": false,
      "t": 188538.33600000496,
      "d": 9.12400000001071,
      "v": 84
    },
    {
      "midi": 72,
      "hit": false,
      "t": 188647.82400000154,
      "d": 182.48000000001048,
      "v": 120
    },
    {
      "midi": 72,
      "hit": false,
      "t": 188757.31200000155,
      "d": 182.48000000001048,
      "v": 120
    },
    {
      "midi": 42,
      "hit": false,
      "t": 188757.31200000498,
      "d": 9.12400000001071,
      "v": 98
    },
    {
      "midi": 38,
      "hit": false,
      "t": 188757.31200000498,
      "d": 9.12400000001071,
      "v": 84
    },
    {
      "midi": 38,
      "hit": false,
      "t": 188967.16400000034,
      "d": 355.83600000001024,
      "v": 110
    },
    {
      "midi": 62,
      "hit": false,
      "t": 188976.28800000105,
      "d": 428.8280000000086,
      "v": 60
    },
    {
      "midi": 57,
      "hit": false,
      "t": 188976.28800000105,
      "d": 428.8280000000086,
      "v": 60
    },
    {
      "midi": 74,
      "hit": false,
      "t": 188976.28800000157,
      "d": 182.48000000001048,
      "v": 120
    },
    {
      "midi": 42,
      "hit": false,
      "t": 188976.288000005,
      "d": 9.12400000001071,
      "v": 70
    },
    {
      "midi": 36,
      "hit": false,
      "t": 188976.288000005,
      "d": 9.12400000001071,
      "v": 84
    },
    {
      "midi": 74,
      "hit": false,
      "t": 189085.77600000156,
      "d": 182.48000000001048,
      "v": 120
    },
    {
      "midi": 74,
      "hit": false,
      "t": 189195.26400000157,
      "d": 182.48000000001048,
      "v": 120
    },
    {
      "midi": 42,
      "hit": false,
      "t": 189195.26400000503,
      "d": 9.12400000001071,
      "v": 98
    },
    {
      "midi": 40,
      "hit": false,
      "t": 189405.11600000036,
      "d": 410.5799999999872,
      "v": 110
    },
    {
      "midi": 64,
      "hit": false,
      "t": 189414.24000000107,
      "d": 1523.7080000000133,
      "v": 60
    },
    {
      "midi": 59,
      "hit": false,
      "t": 189414.24000000107,
      "d": 1523.7080000000133,
      "v": 60
    },
    {
      "midi": 76,
      "hit": false,
      "t": 189414.2400000016,
      "d": 182.48000000001048,
      "v": 120
    },
    {
      "midi": 42,
      "hit": false,
      "t": 189414.24000000505,
      "d": 9.12400000001071,
      "v": 70
    },
    {
      "midi": 36,
      "hit": false,
      "t": 189414.24000000505,
      "d": 9.12400000001071,
      "v": 84
    },
    {
      "midi": 76,
      "hit": false,
      "t": 189523.72800000157,
      "d": 182.48000000001048,
      "v": 120
    },
    {
      "midi": 76,
      "hit": false,
      "t": 189633.2160000016,
      "d": 182.48000000001048,
      "v": 120
    },
    {
      "midi": 42,
      "hit": false,
      "t": 189633.21600000508,
      "d": 9.12400000001071,
      "v": 98
    },
    {
      "midi": 38,
      "hit": false,
      "t": 189633.21600000508,
      "d": 9.12400000001071,
      "v": 84
    },
    {
      "midi": 28,
      "hit": false,
      "t": 189843.06800000035,
      "d": 1085.755999999994,
      "v": 110
    },
    {
      "midi": 42,
      "hit": false,
      "t": 189852.1920000051,
      "d": 9.12400000001071,
      "v": 70
    },
    {
      "midi": 36,
      "hit": false,
      "t": 189852.1920000051,
      "d": 9.12400000001071,
      "v": 84
    },
    {
      "midi": 42,
      "hit": false,
      "t": 190071.16800000513,
      "d": 9.12400000001071,
      "v": 98
    },
    {
      "midi": 48,
      "hit": false,
      "t": 190290.14400000102,
      "d": 9.12400000001071,
      "v": 42
    },
    {
      "midi": 71,
      "hit": false,
      "t": 190290.1440000016,
      "d": 182.48000000001048,
      "v": 120
    },
    {
      "midi": 48,
      "hit": false,
      "t": 190290.14400000515,
      "d": 9.12400000001071,
      "v": 84
    },
    {
      "midi": 71,
      "hit": false,
      "t": 190399.63200000158,
      "d": 182.48000000001048,
      "v": 120
    },
    {
      "midi": 45,
      "hit": false,
      "t": 190509.12000000104,
      "d": 9.12400000001071,
      "v": 42
    },
    {
      "midi": 71,
      "hit": false,
      "t": 190509.1200000016,
      "d": 182.48000000001048,
      "v": 120
    },
    {
      "midi": 72,
      "hit": false,
      "t": 190509.12000000163,
      "d": 182.48000000001048,
      "v": 120
    },
    {
      "midi": 45,
      "hit": false,
      "t": 190509.12000000518,
      "d": 9.12400000001071,
      "v": 84
    },
    {
      "midi": 72,
      "hit": false,
      "t": 190618.6080000016,
      "d": 182.48000000001048,
      "v": 120
    },
    {
      "midi": 41,
      "hit": false,
      "t": 190728.09600000107,
      "d": 9.12400000001071,
      "v": 42
    },
    {
      "midi": 72,
      "hit": false,
      "t": 190728.09600000162,
      "d": 182.48000000001048,
      "v": 120
    },
    {
      "midi": 74,
      "hit": false,
      "t": 190728.09600000165,
      "d": 182.48000000001048,
      "v": 120
    },
    {
      "midi": 41,
      "hit": false,
      "t": 190728.0960000052,
      "d": 9.12400000001071,
      "v": 84
    },
    {
      "midi": 74,
      "hit": false,
      "t": 190837.58400000163,
      "d": 182.48000000001048,
      "v": 120
    },
    {
      "midi": 33,
      "hit": false,
      "t": 190937.94800000035,
      "d": 209.8520000000135,
      "v": 110
    },
    {
      "midi": 64,
      "hit": false,
      "t": 190947.0720000011,
      "d": 3275.5160000000033,
      "v": 60
    },
    {
      "midi": 57,
      "hit": false,
      "t": 190947.0720000011,
      "d": 3275.5160000000033,
      "v": 60
    },
    {
      "midi": 74,
      "hit": false,
      "t": 190947.07200000164,
      "d": 182.48000000001048,
      "v": 120
    },
    {
      "midi": 76,
      "hit": false,
      "t": 190947.07200000167,
      "d": 182.48000000001048,
      "v": 120
    },
    {
      "midi": 49,
      "hit": false,
      "t": 190947.07200000522,
      "d": 9.12400000001071,
      "v": 84
    },
    {
      "midi": 36,
      "hit": false,
      "t": 190947.07200000522,
      "d": 9.12400000001071,
      "v": 84
    },
    {
      "midi": 76,
      "hit": false,
      "t": 191056.56000000166,
      "d": 182.48000000001048,
      "v": 120
    },
    {
      "midi": 76,
      "hit": false,
      "t": 191166.04800000167,
      "d": 182.48000000001048,
      "v": 120
    },
    {
      "midi": 74,
      "hit": false,
      "t": 191166.0480000017,
      "d": 182.48000000001048,
      "v": 120
    },
    {
      "midi": 42,
      "hit": false,
      "t": 191166.04800000525,
      "d": 9.12400000001071,
      "v": 70
    },
    {
      "midi": 74,
      "hit": false,
      "t": 191275.53600000168,
      "d": 182.48000000001048,
      "v": 120
    },
    {
      "midi": 74,
      "hit": false,
      "t": 191385.0240000017,
      "d": 182.48000000001048,
      "v": 120
    },
    {
      "midi": 74,
      "hit": false,
      "t": 191385.02400000172,
      "d": 182.48000000001048,
      "v": 120
    },
    {
      "midi": 42,
      "hit": false,
      "t": 191385.02400000527,
      "d": 9.12400000001071,
      "v": 98
    },
    {
      "midi": 38,
      "hit": false,
      "t": 191385.02400000527,
      "d": 9.12400000001071,
      "v": 84
    },
    {
      "midi": 74,
      "hit": false,
      "t": 191494.5120000017,
      "d": 182.48000000001048,
      "v": 120
    },
    {
      "midi": 33,
      "hit": false,
      "t": 191594.87600000037,
      "d": 209.8520000000135,
      "v": 110
    },
    {
      "midi": 74,
      "hit": false,
      "t": 191604.00000000172,
      "d": 182.48000000001048,
      "v": 120
    },
    {
      "midi": 72,
      "hit": false,
      "t": 191604.00000000175,
      "d": 182.48000000001048,
      "v": 120
    },
    {
      "midi": 42,
      "hit": false,
      "t": 191604.0000000053,
      "d": 9.12400000001071,
      "v": 70
    },
    {
      "midi": 36,
      "hit": false,
      "t": 191604.0000000053,
      "d": 9.12400000001071,
      "v": 84
    },
    {
      "midi": 72,
      "hit": false,
      "t": 191713.48800000173,
      "d": 182.48000000001048,
      "v": 120
    },
    {
      "midi": 72,
      "hit": false,
      "t": 191822.97600000174,
      "d": 182.48000000001048,
      "v": 120
    },
    {
      "midi": 72,
      "hit": false,
      "t": 191822.97600000177,
      "d": 182.48000000001048,
      "v": 120
    },
    {
      "midi": 42,
      "hit": false,
      "t": 191822.97600000532,
      "d": 9.12400000001071,
      "v": 98
    },
    {
      "midi": 72,
      "hit": false,
      "t": 191932.46400000175,
      "d": 182.48000000001048,
      "v": 120
    },
    {
      "midi": 72,
      "hit": false,
      "t": 192041.95200000177,
      "d": 182.48000000001048,
      "v": 120
    },
    {
      "midi": 71,
      "hit": false,
      "t": 192041.9520000018,
      "d": 182.48000000001048,
      "v": 120
    },
    {
      "midi": 42,
      "hit": false,
      "t": 192041.95200000535,
      "d": 9.12400000001071,
      "v": 70
    },
    {
      "midi": 36,
      "hit": false,
      "t": 192041.95200000535,
      "d": 9.12400000001071,
      "v": 84
    },
    {
      "midi": 71,
      "hit": false,
      "t": 192151.44000000178,
      "d": 182.48000000001048,
      "v": 120
    },
    {
      "midi": 71,
      "hit": false,
      "t": 192260.9280000018,
      "d": 182.48000000001048,
      "v": 120
    },
    {
      "midi": 72,
      "hit": false,
      "t": 192260.92800000182,
      "d": 182.48000000001048,
      "v": 120
    },
    {
      "midi": 42,
      "hit": false,
      "t": 192260.92800000537,
      "d": 9.12400000001071,
      "v": 98
    },
    {
      "midi": 38,
      "hit": false,
      "t": 192260.92800000537,
      "d": 9.12400000001071,
      "v": 84
    },
    {
      "midi": 72,
      "hit": false,
      "t": 192370.4160000018,
      "d": 182.48000000001048,
      "v": 120
    },
    {
      "midi": 28,
      "hit": false,
      "t": 192470.78000000038,
      "d": 273.72000000000116,
      "v": 110
    },
    {
      "midi": 72,
      "hit": false,
      "t": 192479.9040000018,
      "d": 182.48000000001048,
      "v": 120
    },
    {
      "midi": 74,
      "hit": false,
      "t": 192479.90400000184,
      "d": 182.48000000001048,
      "v": 120
    },
    {
      "midi": 42,
      "hit": false,
      "t": 192479.9040000054,
      "d": 9.12400000001071,
      "v": 70
    },
    {
      "midi": 74,
      "hit": false,
      "t": 192589.39200000183,
      "d": 182.48000000001048,
      "v": 120
    },
    {
      "midi": 74,
      "hit": false,
      "t": 192698.88000000184,
      "d": 182.48000000001048,
      "v": 120
    },
    {
      "midi": 76,
      "hit": false,
      "t": 192698.88000000187,
      "d": 182.48000000001048,
      "v": 120
    },
    {
      "midi": 42,
      "hit": false,
      "t": 192698.88000000542,
      "d": 9.12400000001071,
      "v": 98
    },
    {
      "midi": 36,
      "hit": false,
      "t": 192698.88000000542,
      "d": 9.12400000001071,
      "v": 84
    },
    {
      "midi": 76,
      "hit": false,
      "t": 192808.36800000185,
      "d": 182.48000000001048,
      "v": 120
    },
    {
      "midi": 45,
      "hit": false,
      "t": 192908.73200000037,
      "d": 273.72000000000116,
      "v": 110
    },
    {
      "midi": 76,
      "hit": false,
      "t": 192917.85600000186,
      "d": 182.48000000001048,
      "v": 120
    },
    {
      "midi": 76,
      "hit": false,
      "t": 192917.8560000019,
      "d": 182.48000000001048,
      "v": 120
    },
    {
      "midi": 42,
      "hit": false,
      "t": 192917.85600000544,
      "d": 9.12400000001071,
      "v": 70
    },
    {
      "midi": 76,
      "hit": false,
      "t": 193027.34400000187,
      "d": 182.48000000001048,
      "v": 120
    },
    {
      "midi": 76,
      "hit": false,
      "t": 193136.8320000019,
      "d": 182.48000000001048,
      "v": 120
    },
    {
      "midi": 74,
      "hit": false,
      "t": 193136.83200000192,
      "d": 182.48000000001048,
      "v": 120
    },
    {
      "midi": 42,
      "hit": false,
      "t": 193136.83200000547,
      "d": 9.12400000001071,
      "v": 98
    },
    {
      "midi": 38,
      "hit": false,
      "t": 193136.83200000547,
      "d": 9.12400000001071,
      "v": 84
    },
    {
      "midi": 74,
      "hit": false,
      "t": 193246.3200000019,
      "d": 182.48000000001048,
      "v": 120
    },
    {
      "midi": 33,
      "hit": false,
      "t": 193346.68400000036,
      "d": 273.72000000000116,
      "v": 110
    },
    {
      "midi": 74,
      "hit": false,
      "t": 193355.8080000019,
      "d": 182.48000000001048,
      "v": 120
    },
    {
      "midi": 72,
      "hit": false,
      "t": 193355.80800000194,
      "d": 401.4560000000056,
      "v": 120
    },
    {
      "midi": 42,
      "hit": false,
      "t": 193355.8080000055,
      "d": 9.12400000001071,
      "v": 70
    },
    {
      "midi": 36,
      "hit": false,
      "t": 193355.8080000055,
      "d": 9.12400000001071,
      "v": 84
    },
    {
      "midi": 72,
      "hit": false,
      "t": 193465.29600000192,
      "d": 401.4560000000056,
      "v": 120
    },
    {
      "midi": 72,
      "hit": false,
      "t": 193574.78400000194,
      "d": 401.4560000000056,
      "v": 120
    },
    {
      "midi": 42,
      "hit": false,
      "t": 193574.78400000551,
      "d": 9.12400000001071,
      "v": 98
    },
    {
      "midi": 71,
      "hit": false,
      "t": 193793.76000000196,
      "d": 401.4560000000056,
      "v": 120
    },
    {
      "midi": 42,
      "hit": false,
      "t": 193793.76000000554,
      "d": 9.12400000001071,
      "v": 70
    },
    {
      "midi": 36,
      "hit": false,
      "t": 193793.76000000554,
      "d": 9.12400000001071,
      "v": 84
    },
    {
      "midi": 71,
      "hit": false,
      "t": 193903.24800000194,
      "d": 401.4560000000056,
      "v": 120
    },
    {
      "midi": 71,
      "hit": false,
      "t": 194012.73600000195,
      "d": 401.4560000000056,
      "v": 120
    },
    {
      "midi": 42,
      "hit": false,
      "t": 194012.73600000556,
      "d": 9.12400000001071,
      "v": 98
    },
    {
      "midi": 38,
      "hit": false,
      "t": 194012.73600000556,
      "d": 9.12400000001071,
      "v": 84
    },
    {
      "midi": 29,
      "hit": false,
      "t": 194222.58800000037,
      "d": 848.5320000000065,
      "v": 110
    },
    {
      "midi": 60,
      "hit": false,
      "t": 194231.7120000011,
      "d": 3713.4679999999935,
      "v": 60
    },
    {
      "midi": 53,
      "hit": false,
      "t": 194231.7120000011,
      "d": 3713.4679999999935,
      "v": 60
    },
    {
      "midi": 74,
      "hit": false,
      "t": 194231.71200000198,
      "d": 401.4560000000056,
      "v": 120
    },
    {
      "midi": 42,
      "hit": false,
      "t": 194231.7120000056,
      "d": 9.12400000001071,
      "v": 70
    },
    {
      "midi": 36,
      "hit": false,
      "t": 194231.7120000056,
      "d": 9.12400000001071,
      "v": 84
    },
    {
      "midi": 74,
      "hit": false,
      "t": 194341.20000000196,
      "d": 401.4560000000056,
      "v": 120
    },
    {
      "midi": 74,
      "hit": false,
      "t": 194450.68800000197,
      "d": 401.4560000000056,
      "v": 120
    },
    {
      "midi": 42,
      "hit": false,
      "t": 194450.6880000056,
      "d": 9.12400000001071,
      "v": 98
    },
    {
      "midi": 72,
      "hit": false,
      "t": 194669.664000002,
      "d": 401.4560000000056,
      "v": 120
    },
    {
      "midi": 42,
      "hit": false,
      "t": 194669.66400000564,
      "d": 9.12400000001071,
      "v": 70
    },
    {
      "midi": 72,
      "hit": false,
      "t": 194779.15200000198,
      "d": 401.4560000000056,
      "v": 120
    },
    {
      "midi": 72,
      "hit": false,
      "t": 194888.640000002,
      "d": 401.4560000000056,
      "v": 120
    },
    {
      "midi": 42,
      "hit": false,
      "t": 194888.64000000566,
      "d": 9.12400000001071,
      "v": 98
    },
    {
      "midi": 38,
      "hit": false,
      "t": 194888.64000000566,
      "d": 9.12400000001071,
      "v": 84
    },
    {
      "midi": 29,
      "hit": false,
      "t": 195098.49200000038,
      "d": 209.8520000000135,
      "v": 110
    },
    {
      "midi": 42,
      "hit": false,
      "t": 195107.61600000568,
      "d": 9.12400000001071,
      "v": 70
    },
    {
      "midi": 36,
      "hit": false,
      "t": 195107.61600000568,
      "d": 9.12400000001071,
      "v": 84
    },
    {
      "midi": 42,
      "hit": false,
      "t": 195326.5920000057,
      "d": 9.12400000001071,
      "v": 98
    },
    {
      "midi": 36,
      "hit": false,
      "t": 195326.5920000057,
      "d": 9.12400000001071,
      "v": 84
    },
    {
      "midi": 42,
      "hit": false,
      "t": 195545.56800000573,
      "d": 9.12400000001071,
      "v": 70
    },
    {
      "midi": 42,
      "hit": false,
      "t": 195764.54400000576,
      "d": 9.12400000001071,
      "v": 98
    },
    {
      "midi": 38,
      "hit": false,
      "t": 195764.54400000576,
      "d": 9.12400000001071,
      "v": 84
    },
    {
      "midi": 28,
      "hit": false,
      "t": 195974.3960000004,
      "d": 273.72000000000116,
      "v": 110
    },
    {
      "midi": 72,
      "hit": false,
      "t": 195983.520000002,
      "d": 182.48000000001048,
      "v": 120
    },
    {
      "midi": 42,
      "hit": false,
      "t": 195983.52000000578,
      "d": 9.12400000001071,
      "v": 70
    },
    {
      "midi": 36,
      "hit": false,
      "t": 195983.52000000578,
      "d": 9.12400000001071,
      "v": 84
    },
    {
      "midi": 72,
      "hit": false,
      "t": 196093.00800000198,
      "d": 182.48000000001048,
      "v": 120
    },
    {
      "midi": 72,
      "hit": false,
      "t": 196202.496000002,
      "d": 182.48000000001048,
      "v": 120
    },
    {
      "midi": 76,
      "hit": false,
      "t": 196202.49600000202,
      "d": 182.48000000001048,
      "v": 120
    },
    {
      "midi": 42,
      "hit": false,
      "t": 196202.4960000058,
      "d": 9.12400000001071,
      "v": 98
    },
    {
      "midi": 36,
      "hit": false,
      "t": 196202.4960000058,
      "d": 9.12400000001071,
      "v": 84
    },
    {
      "midi": 76,
      "hit": false,
      "t": 196311.984000002,
      "d": 182.48000000001048,
      "v": 120
    },
    {
      "midi": 41,
      "hit": false,
      "t": 196412.34800000038,
      "d": 273.72000000000116,
      "v": 110
    },
    {
      "midi": 76,
      "hit": false,
      "t": 196421.47200000202,
      "d": 182.48000000001048,
      "v": 120
    },
    {
      "midi": 74,
      "hit": false,
      "t": 196421.47200000205,
      "d": 182.48000000001048,
      "v": 120
    },
    {
      "midi": 42,
      "hit": false,
      "t": 196421.47200000583,
      "d": 9.12400000001071,
      "v": 70
    },
    {
      "midi": 74,
      "hit": false,
      "t": 196530.96000000203,
      "d": 182.48000000001048,
      "v": 120
    },
    {
      "midi": 74,
      "hit": false,
      "t": 196640.44800000204,
      "d": 182.48000000001048,
      "v": 120
    },
    {
      "midi": 72,
      "hit": false,
      "t": 196640.44800000207,
      "d": 182.48000000001048,
      "v": 120
    },
    {
      "midi": 42,
      "hit": false,
      "t": 196640.44800000585,
      "d": 9.12400000001071,
      "v": 98
    },
    {
      "midi": 38,
      "hit": false,
      "t": 196640.44800000585,
      "d": 9.12400000001071,
      "v": 84
    },
    {
      "midi": 72,
      "hit": false,
      "t": 196749.93600000205,
      "d": 182.48000000001048,
      "v": 120
    },
    {
      "midi": 29,
      "hit": false,
      "t": 196850.30000000037,
      "d": 273.72000000000116,
      "v": 110
    },
    {
      "midi": 72,
      "hit": false,
      "t": 196859.42400000207,
      "d": 182.48000000001048,
      "v": 120
    },
    {
      "midi": 74,
      "hit": false,
      "t": 196859.4240000021,
      "d": 401.4560000000056,
      "v": 120
    },
    {
      "midi": 42,
      "hit": false,
      "t": 196859.42400000588,
      "d": 9.12400000001071,
      "v": 70
    },
    {
      "midi": 36,
      "hit": false,
      "t": 196859.42400000588,
      "d": 9.12400000001071,
      "v": 84
    },
    {
      "midi": 74,
      "hit": false,
      "t": 196968.91200000208,
      "d": 401.4560000000056,
      "v": 120
    },
    {
      "midi": 74,
      "hit": false,
      "t": 197078.4000000021,
      "d": 401.4560000000056,
      "v": 120
    },
    {
      "midi": 42,
      "hit": false,
      "t": 197078.4000000059,
      "d": 9.12400000001071,
      "v": 98
    },
    {
      "midi": 72,
      "hit": false,
      "t": 197297.3760000021,
      "d": 182.48000000001048,
      "v": 120
    },
    {
      "midi": 42,
      "hit": false,
      "t": 197297.37600000593,
      "d": 9.12400000001071,
      "v": 70
    },
    {
      "midi": 36,
      "hit": false,
      "t": 197297.37600000593,
      "d": 9.12400000001071,
      "v": 84
    },
    {
      "midi": 72,
      "hit": false,
      "t": 197406.8640000021,
      "d": 182.48000000001048,
      "v": 120
    },
    {
      "midi": 72,
      "hit": false,
      "t": 197516.3520000021,
      "d": 182.48000000001048,
      "v": 120
    },
    {
      "midi": 42,
      "hit": false,
      "t": 197516.35200000595,
      "d": 9.12400000001071,
      "v": 98
    },
    {
      "midi": 38,
      "hit": false,
      "t": 197516.35200000595,
      "d": 9.12400000001071,
      "v": 84
    },
    {
      "midi": 72,
      "hit": false,
      "t": 197735.32800000213,
      "d": 182.48000000001048,
      "v": 120
    },
    {
      "midi": 42,
      "hit": false,
      "t": 197735.32800000597,
      "d": 9.12400000001071,
      "v": 70
    },
    {
      "midi": 72,
      "hit": false,
      "t": 197844.81600000212,
      "d": 182.48000000001048,
      "v": 120
    },
    {
      "midi": 31,
      "hit": false,
      "t": 197945.18000000037,
      "d": 629.5560000000114,
      "v": 110
    },
    {
      "midi": 59,
      "hit": false,
      "t": 197954.3040000011,
      "d": 1742.6840000000084,
      "v": 60
    },
    {
      "midi": 55,
      "hit": false,
      "t": 197954.3040000011,
      "d": 1742.6840000000084,
      "v": 60
    },
    {
      "midi": 72,
      "hit": false,
      "t": 197954.30400000213,
      "d": 182.48000000001048,
      "v": 120
    },
    {
      "midi": 76,
      "hit": false,
      "t": 197954.30400000216,
      "d": 620.4320000000007,
      "v": 120
    },
    {
      "midi": 42,
      "hit": false,
      "t": 197954.304000006,
      "d": 9.12400000001071,
      "v": 98
    },
    {
      "midi": 36,
      "hit": false,
      "t": 197954.304000006,
      "d": 9.12400000001071,
      "v": 84
    },
    {
      "midi": 76,
      "hit": false,
      "t": 198063.79200000214,
      "d": 620.4320000000007,
      "v": 120
    },
    {
      "midi": 76,
      "hit": false,
      "t": 198173.28000000215,
      "d": 620.4320000000007,
      "v": 120
    },
    {
      "midi": 42,
      "hit": false,
      "t": 198173.28000000602,
      "d": 9.12400000001071,
      "v": 70
    },
    {
      "midi": 42,
      "hit": false,
      "t": 198392.25600000605,
      "d": 9.12400000001071,
      "v": 98
    },
    {
      "midi": 38,
      "hit": false,
      "t": 198392.25600000605,
      "d": 9.12400000001071,
      "v": 84
    },
    {
      "midi": 31,
      "hit": false,
      "t": 198602.1080000004,
      "d": 209.8520000000135,
      "v": 110
    },
    {
      "midi": 74,
      "hit": false,
      "t": 198611.23200000217,
      "d": 401.4560000000056,
      "v": 120
    },
    {
      "midi": 42,
      "hit": false,
      "t": 198611.23200000607,
      "d": 9.12400000001071,
      "v": 70
    },
    {
      "midi": 36,
      "hit": false,
      "t": 198611.23200000607,
      "d": 9.12400000001071,
      "v": 84
    },
    {
      "midi": 74,
      "hit": false,
      "t": 198720.72000000215,
      "d": 401.4560000000056,
      "v": 120
    },
    {
      "midi": 74,
      "hit": false,
      "t": 198830.20800000217,
      "d": 401.4560000000056,
      "v": 120
    },
    {
      "midi": 42,
      "hit": false,
      "t": 198830.2080000061,
      "d": 9.12400000001071,
      "v": 98
    },
    {
      "midi": 42,
      "hit": false,
      "t": 199049.18400000612,
      "d": 9.12400000001071,
      "v": 70
    },
    {
      "midi": 36,
      "hit": false,
      "t": 199049.18400000612,
      "d": 9.12400000001071,
      "v": 84
    },
    {
      "midi": 42,
      "hit": false,
      "t": 199268.16000000614,
      "d": 9.12400000001071,
      "v": 98
    },
    {
      "midi": 38,
      "hit": false,
      "t": 199268.16000000614,
      "d": 9.12400000001071,
      "v": 84
    },
    {
      "midi": 31,
      "hit": false,
      "t": 199478.0120000004,
      "d": 355.83599999998114,
      "v": 110
    },
    {
      "midi": 74,
      "hit": false,
      "t": 199487.13600000218,
      "d": 182.48000000001048,
      "v": 120
    },
    {
      "midi": 42,
      "hit": false,
      "t": 199487.13600000617,
      "d": 9.12400000001071,
      "v": 70
    },
    {
      "midi": 74,
      "hit": false,
      "t": 199596.62400000216,
      "d": 182.48000000001048,
      "v": 120
    },
    {
      "midi": 62,
      "hit": false,
      "t": 199706.11200000113,
      "d": 1742.6840000000084,
      "v": 60
    },
    {
      "midi": 59,
      "hit": false,
      "t": 199706.11200000113,
      "d": 1742.6840000000084,
      "v": 60
    },
    {
      "midi": 74,
      "hit": false,
      "t": 199706.11200000218,
      "d": 182.48000000001048,
      "v": 120
    },
    {
      "midi": 77,
      "hit": false,
      "t": 199706.1120000022,
      "d": 620.4320000000007,
      "v": 120
    },
    {
      "midi": 42,
      "hit": false,
      "t": 199706.1120000062,
      "d": 9.12400000001071,
      "v": 98
    },
    {
      "midi": 36,
      "hit": false,
      "t": 199706.1120000062,
      "d": 9.12400000001071,
      "v": 84
    },
    {
      "midi": 77,
      "hit": false,
      "t": 199815.6000000022,
      "d": 620.4320000000007,
      "v": 120
    },
    {
      "midi": 44,
      "hit": false,
      "t": 199915.9640000004,
      "d": 273.72000000000116,
      "v": 110
    },
    {
      "midi": 77,
      "hit": false,
      "t": 199925.0880000022,
      "d": 620.4320000000007,
      "v": 120
    },
    {
      "midi": 42,
      "hit": false,
      "t": 199925.08800000622,
      "d": 9.12400000001071,
      "v": 70
    },
    {
      "midi": 42,
      "hit": false,
      "t": 200144.06400000624,
      "d": 9.12400000001071,
      "v": 98
    },
    {
      "midi": 38,
      "hit": false,
      "t": 200144.06400000624,
      "d": 9.12400000001071,
      "v": 84
    },
    {
      "midi": 32,
      "hit": false,
      "t": 200353.91600000038,
      "d": 273.72000000000116,
      "v": 110
    },
    {
      "midi": 76,
      "hit": false,
      "t": 200363.04000000222,
      "d": 182.48000000001048,
      "v": 120
    },
    {
      "midi": 42,
      "hit": false,
      "t": 200363.04000000627,
      "d": 9.12400000001071,
      "v": 70
    },
    {
      "midi": 36,
      "hit": false,
      "t": 200363.04000000627,
      "d": 9.12400000001071,
      "v": 84
    },
    {
      "midi": 76,
      "hit": false,
      "t": 200472.5280000022,
      "d": 182.48000000001048,
      "v": 120
    },
    {
      "midi": 76,
      "hit": false,
      "t": 200582.01600000222,
      "d": 182.48000000001048,
      "v": 120
    },
    {
      "midi": 76,
      "hit": false,
      "t": 200582.01600000224,
      "d": 182.48000000001048,
      "v": 120
    },
    {
      "midi": 42,
      "hit": false,
      "t": 200582.0160000063,
      "d": 9.12400000001071,
      "v": 98
    },
    {
      "midi": 76,
      "hit": false,
      "t": 200691.50400000223,
      "d": 182.48000000001048,
      "v": 120
    },
    {
      "midi": 76,
      "hit": false,
      "t": 200800.99200000224,
      "d": 182.48000000001048,
      "v": 120
    },
    {
      "midi": 42,
      "hit": false,
      "t": 200800.9920000063,
      "d": 9.12400000001071,
      "v": 70
    },
    {
      "midi": 36,
      "hit": false,
      "t": 200800.9920000063,
      "d": 9.12400000001071,
      "v": 84
    },
    {
      "midi": 42,
      "hit": false,
      "t": 201019.96800000634,
      "d": 9.12400000001071,
      "v": 98
    },
    {
      "midi": 38,
      "hit": false,
      "t": 201019.96800000634,
      "d": 9.12400000001071,
      "v": 84
    },
    {
      "midi": 76,
      "hit": false,
      "t": 201238.94400000226,
      "d": 182.48000000001048,
      "v": 120
    },
    {
      "midi": 42,
      "hit": false,
      "t": 201238.94400000636,
      "d": 9.12400000001071,
      "v": 70
    },
    {
      "midi": 76,
      "hit": false,
      "t": 201348.43200000224,
      "d": 182.48000000001048,
      "v": 120
    },
    {
      "midi": 33,
      "hit": false,
      "t": 201448.79600000038,
      "d": 629.5560000000114,
      "v": 110
    },
    {
      "midi": 64,
      "hit": false,
      "t": 201457.92000000115,
      "d": 1523.7080000000133,
      "v": 60
    },
    {
      "midi": 60,
      "hit": false,
      "t": 201457.92000000115,
      "d": 1523.7080000000133,
      "v": 60
    },
    {
      "midi": 76,
      "hit": false,
      "t": 201457.92000000225,
      "d": 182.48000000001048,
      "v": 120
    },
    {
      "midi": 79,
      "hit": false,
      "t": 201457.92000000228,
      "d": 401.4560000000056,
      "v": 120
    },
    {
      "midi": 42,
      "hit": false,
      "t": 201457.9200000064,
      "d": 9.12400000001071,
      "v": 98
    },
    {
      "midi": 36,
      "hit": false,
      "t": 201457.9200000064,
      "d": 9.12400000001071,
      "v": 84
    },
    {
      "midi": 79,
      "hit": false,
      "t": 201567.40800000227,
      "d": 401.4560000000056,
      "v": 120
    },
    {
      "midi": 79,
      "hit": false,
      "t": 201676.89600000228,
      "d": 401.4560000000056,
      "v": 120
    },
    {
      "midi": 42,
      "hit": false,
      "t": 201676.8960000064,
      "d": 9.12400000001071,
      "v": 70
    },
    {
      "midi": 81,
      "hit": false,
      "t": 201895.8720000023,
      "d": 182.48000000001048,
      "v": 120
    },
    {
      "midi": 42,
      "hit": false,
      "t": 201895.87200000643,
      "d": 9.12400000001071,
      "v": 98
    },
    {
      "midi": 38,
      "hit": false,
      "t": 201895.87200000643,
      "d": 9.12400000001071,
      "v": 84
    },
    {
      "midi": 81,
      "hit": false,
      "t": 202005.36000000229,
      "d": 182.48000000001048,
      "v": 120
    },
    {
      "midi": 33,
      "hit": false,
      "t": 202105.7240000004,
      "d": 209.8520000000135,
      "v": 110
    },
    {
      "midi": 81,
      "hit": false,
      "t": 202114.8480000023,
      "d": 182.48000000001048,
      "v": 120
    },
    {
      "midi": 76,
      "hit": false,
      "t": 202114.84800000233,
      "d": 182.48000000001048,
      "v": 120
    },
    {
      "midi": 42,
      "hit": false,
      "t": 202114.84800000646,
      "d": 9.12400000001071,
      "v": 70
    },
    {
      "midi": 36,
      "hit": false,
      "t": 202114.84800000646,
      "d": 9.12400000001071,
      "v": 84
    },
    {
      "midi": 76,
      "hit": false,
      "t": 202224.3360000023,
      "d": 182.48000000001048,
      "v": 120
    },
    {
      "midi": 76,
      "hit": false,
      "t": 202333.82400000232,
      "d": 182.48000000001048,
      "v": 120
    },
    {
      "midi": 42,
      "hit": false,
      "t": 202333.82400000648,
      "d": 9.12400000001071,
      "v": 98
    },
    {
      "midi": 40,
      "hit": false,
      "t": 202543.6760000004,
      "d": 209.8520000000135,
      "v": 110
    },
    {
      "midi": 42,
      "hit": false,
      "t": 202552.8000000065,
      "d": 9.12400000001071,
      "v": 70
    },
    {
      "midi": 36,
      "hit": false,
      "t": 202552.8000000065,
      "d": 9.12400000001071,
      "v": 84
    },
    {
      "midi": 39,
      "hit": false,
      "t": 202762.65200000044,
      "d": 209.8520000000135,
      "v": 110
    },
    {
      "midi": 76,
      "hit": false,
      "t": 202771.77600000234,
      "d": 182.48000000001048,
      "v": 120
    },
    {
      "midi": 42,
      "hit": false,
      "t": 202771.77600000653,
      "d": 9.12400000001071,
      "v": 98
    },
    {
      "midi": 38,
      "hit": false,
      "t": 202771.77600000653,
      "d": 9.12400000001071,
      "v": 84
    },
    {
      "midi": 76,
      "hit": false,
      "t": 202881.26400000232,
      "d": 182.48000000001048,
      "v": 120
    },
    {
      "midi": 38,
      "hit": false,
      "t": 202981.62800000046,
      "d": 273.72000000000116,
      "v": 110
    },
    {
      "midi": 62,
      "hit": false,
      "t": 202990.75200000117,
      "d": 1742.6840000000084,
      "v": 60
    },
    {
      "midi": 57,
      "hit": false,
      "t": 202990.75200000117,
      "d": 1742.6840000000084,
      "v": 60
    },
    {
      "midi": 76,
      "hit": false,
      "t": 202990.75200000234,
      "d": 182.48000000001048,
      "v": 120
    },
    {
      "midi": 74,
      "hit": false,
      "t": 202990.75200000237,
      "d": 401.4560000000056,
      "v": 120
    },
    {
      "midi": 42,
      "hit": false,
      "t": 202990.75200000656,
      "d": 9.12400000001071,
      "v": 70
    },
    {
      "midi": 36,
      "hit": false,
      "t": 202990.75200000656,
      "d": 9.12400000001071,
      "v": 84
    },
    {
      "midi": 74,
      "hit": false,
      "t": 203100.24000000235,
      "d": 401.4560000000056,
      "v": 120
    },
    {
      "midi": 74,
      "hit": false,
      "t": 203209.72800000236,
      "d": 401.4560000000056,
      "v": 120
    },
    {
      "midi": 42,
      "hit": false,
      "t": 203209.72800000658,
      "d": 9.12400000001071,
      "v": 98
    },
    {
      "midi": 50,
      "hit": false,
      "t": 203419.58000000045,
      "d": 273.72000000000116,
      "v": 110
    },
    {
      "midi": 72,
      "hit": false,
      "t": 203428.70400000238,
      "d": 182.48000000001048,
      "v": 120
    },
    {
      "midi": 42,
      "hit": false,
      "t": 203428.7040000066,
      "d": 9.12400000001071,
      "v": 70
    },
    {
      "midi": 72,
      "hit": false,
      "t": 203538.19200000237,
      "d": 182.48000000001048,
      "v": 120
    },
    {
      "midi": 72,
      "hit": false,
      "t": 203647.68000000238,
      "d": 182.48000000001048,
      "v": 120
    },
    {
      "midi": 76,
      "hit": false,
      "t": 203647.6800000024,
      "d": 182.48000000001048,
      "v": 120
    },
    {
      "midi": 42,
      "hit": false,
      "t": 203647.68000000663,
      "d": 9.12400000001071,
      "v": 98
    },
    {
      "midi": 38,
      "hit": false,
      "t": 203647.68000000663,
      "d": 9.12400000001071,
      "v": 84
    },
    {
      "midi": 76,
      "hit": false,
      "t": 203757.1680000024,
      "d": 182.48000000001048,
      "v": 120
    },
    {
      "midi": 38,
      "hit": false,
      "t": 203857.53200000044,
      "d": 273.72000000000116,
      "v": 110
    },
    {
      "midi": 76,
      "hit": false,
      "t": 203866.6560000024,
      "d": 182.48000000001048,
      "v": 120
    },
    {
      "midi": 74,
      "hit": false,
      "t": 203866.65600000243,
      "d": 401.4560000000056,
      "v": 120
    },
    {
      "midi": 42,
      "hit": false,
      "t": 203866.65600000665,
      "d": 9.12400000001071,
      "v": 70
    },
    {
      "midi": 36,
      "hit": false,
      "t": 203866.65600000665,
      "d": 9.12400000001071,
      "v": 84
    },
    {
      "midi": 74,
      "hit": false,
      "t": 203976.14400000242,
      "d": 401.4560000000056,
      "v": 120
    },
    {
      "midi": 74,
      "hit": false,
      "t": 204085.63200000243,
      "d": 401.4560000000056,
      "v": 120
    },
    {
      "midi": 42,
      "hit": false,
      "t": 204085.63200000668,
      "d": 9.12400000001071,
      "v": 98
    },
    {
      "midi": 38,
      "hit": false,
      "t": 204085.63200000668,
      "d": 9.12400000001071,
      "v": 84
    },
    {
      "midi": 48,
      "hit": false,
      "t": 204304.60800000108,
      "d": 9.12400000001071,
      "v": 42
    },
    {
      "midi": 72,
      "hit": false,
      "t": 204304.60800000245,
      "d": 182.48000000001048,
      "v": 120
    },
    {
      "midi": 48,
      "hit": false,
      "t": 204304.6080000067,
      "d": 9.12400000001071,
      "v": 84
    },
    {
      "midi": 72,
      "hit": false,
      "t": 204414.09600000244,
      "d": 182.48000000001048,
      "v": 120
    },
    {
      "midi": 41,
      "hit": false,
      "t": 204523.5840000011,
      "d": 9.12400000001071,
      "v": 42
    },
    {
      "midi": 72,
      "hit": false,
      "t": 204523.58400000245,
      "d": 182.48000000001048,
      "v": 120
    },
    {
      "midi": 76,
      "hit": false,
      "t": 204523.58400000248,
      "d": 182.48000000001048,
      "v": 120
    },
    {
      "midi": 41,
      "hit": false,
      "t": 204523.58400000673,
      "d": 9.12400000001071,
      "v": 84
    },
    {
      "midi": 76,
      "hit": false,
      "t": 204633.07200000246,
      "d": 182.48000000001048,
      "v": 120
    },
    {
      "midi": 38,
      "hit": false,
      "t": 204733.43600000045,
      "d": 848.5320000000065,
      "v": 110
    },
    {
      "midi": 62,
      "hit": false,
      "t": 204742.5600000012,
      "d": 1961.6600000000035,
      "v": 60
    },
    {
      "midi": 57,
      "hit": false,
      "t": 204742.5600000012,
      "d": 1961.6600000000035,
      "v": 60
    },
    {
      "midi": 76,
      "hit": false,
      "t": 204742.56000000247,
      "d": 182.48000000001048,
      "v": 120
    },
    {
      "midi": 74,
      "hit": false,
      "t": 204742.5600000025,
      "d": 401.4560000000056,
      "v": 120
    },
    {
      "midi": 49,
      "hit": false,
      "t": 204742.56000000675,
      "d": 9.12400000001071,
      "v": 84
    },
    {
      "midi": 36,
      "hit": false,
      "t": 204742.56000000675,
      "d": 9.12400000001071,
      "v": 84
    },
    {
      "midi": 74,
      "hit": false,
      "t": 204852.04800000248,
      "d": 401.4560000000056,
      "v": 120
    },
    {
      "midi": 74,
      "hit": false,
      "t": 204961.5360000025,
      "d": 401.4560000000056,
      "v": 120
    },
    {
      "midi": 42,
      "hit": false,
      "t": 204961.53600000677,
      "d": 9.12400000001071,
      "v": 98
    },
    {
      "midi": 42,
      "hit": false,
      "t": 205180.5120000068,
      "d": 9.12400000001071,
      "v": 70
    },
    {
      "midi": 42,
      "hit": false,
      "t": 205399.48800000682,
      "d": 9.12400000001071,
      "v": 98
    },
    {
      "midi": 38,
      "hit": false,
      "t": 205399.48800000682,
      "d": 9.12400000001071,
      "v": 84
    },
    {
      "midi": 38,
      "hit": false,
      "t": 205609.34000000046,
      "d": 209.8520000000135,
      "v": 110
    },
    {
      "midi": 42,
      "hit": false,
      "t": 205618.46400000685,
      "d": 9.12400000001071,
      "v": 70
    },
    {
      "midi": 42,
      "hit": false,
      "t": 205837.44000000687,
      "d": 9.12400000001071,
      "v": 98
    },
    {
      "midi": 36,
      "hit": false,
      "t": 205837.44000000687,
      "d": 9.12400000001071,
      "v": 84
    },
    {
      "midi": 33,
      "hit": false,
      "t": 206047.29200000048,
      "d": 209.8520000000135,
      "v": 110
    },
    {
      "midi": 74,
      "hit": false,
      "t": 206056.4160000025,
      "d": 182.48000000001048,
      "v": 120
    },
    {
      "midi": 42,
      "hit": false,
      "t": 206056.4160000069,
      "d": 9.12400000001071,
      "v": 70
    },
    {
      "midi": 74,
      "hit": false,
      "t": 206165.90400000248,
      "d": 182.48000000001048,
      "v": 120
    },
    {
      "midi": 38,
      "hit": false,
      "t": 206266.2680000005,
      "d": 364.95999999999185,
      "v": 110
    },
    {
      "midi": 74,
      "hit": false,
      "t": 206275.3920000025,
      "d": 182.48000000001048,
      "v": 120
    },
    {
      "midi": 74,
      "hit": false,
      "t": 206275.39200000252,
      "d": 182.48000000001048,
      "v": 120
    },
    {
      "midi": 42,
      "hit": false,
      "t": 206275.39200000692,
      "d": 9.12400000001071,
      "v": 98
    },
    {
      "midi": 38,
      "hit": false,
      "t": 206275.39200000692,
      "d": 9.12400000001071,
      "v": 84
    },
    {
      "midi": 74,
      "hit": false,
      "t": 206384.8800000025,
      "d": 182.48000000001048,
      "v": 120
    },
    {
      "midi": 74,
      "hit": false,
      "t": 206494.36800000252,
      "d": 182.48000000001048,
      "v": 120
    },
    {
      "midi": 74,
      "hit": false,
      "t": 206494.36800000255,
      "d": 182.48000000001048,
      "v": 120
    },
    {
      "midi": 42,
      "hit": false,
      "t": 206494.36800000694,
      "d": 9.12400000001071,
      "v": 70
    },
    {
      "midi": 74,
      "hit": false,
      "t": 206603.85600000253,
      "d": 182.48000000001048,
      "v": 120
    },
    {
      "midi": 40,
      "hit": false,
      "t": 206704.2200000005,
      "d": 647.8040000000037,
      "v": 110
    },
    {
      "midi": 64,
      "hit": false,
      "t": 206713.3440000012,
      "d": 647.8040000000037,
      "v": 60
    },
    {
      "midi": 59,
      "hit": false,
      "t": 206713.3440000012,
      "d": 647.8040000000037,
      "v": 60
    },
    {
      "midi": 74,
      "hit": false,
      "t": 206713.34400000254,
      "d": 182.48000000001048,
      "v": 120
    },
    {
      "midi": 76,
      "hit": false,
      "t": 206713.34400000257,
      "d": 182.48000000001048,
      "v": 120
    },
    {
      "midi": 42,
      "hit": false,
      "t": 206713.34400000697,
      "d": 9.12400000001071,
      "v": 98
    },
    {
      "midi": 36,
      "hit": false,
      "t": 206713.34400000697,
      "d": 9.12400000001071,
      "v": 84
    },
    {
      "midi": 76,
      "hit": false,
      "t": 206822.83200000256,
      "d": 182.48000000001048,
      "v": 120
    },
    {
      "midi": 76,
      "hit": false,
      "t": 206932.32000000257,
      "d": 182.48000000001048,
      "v": 120
    },
    {
      "midi": 74,
      "hit": false,
      "t": 206932.3200000026,
      "d": 182.48000000001048,
      "v": 120
    },
    {
      "midi": 42,
      "hit": false,
      "t": 206932.320000007,
      "d": 9.12400000001071,
      "v": 70
    },
    {
      "midi": 74,
      "hit": false,
      "t": 207041.80800000258,
      "d": 182.48000000001048,
      "v": 120
    },
    {
      "midi": 74,
      "hit": false,
      "t": 207151.2960000026,
      "d": 182.48000000001048,
      "v": 120
    },
    {
      "midi": 72,
      "hit": false,
      "t": 207151.29600000262,
      "d": 182.48000000001048,
      "v": 120
    },
    {
      "midi": 42,
      "hit": false,
      "t": 207151.29600000702,
      "d": 9.12400000001071,
      "v": 98
    },
    {
      "midi": 38,
      "hit": false,
      "t": 207151.29600000702,
      "d": 9.12400000001071,
      "v": 84
    },
    {
      "midi": 72,
      "hit": false,
      "t": 207260.7840000026,
      "d": 182.48000000001048,
      "v": 120
    },
    {
      "midi": 28,
      "hit": false,
      "t": 207361.1480000005,
      "d": 1085.755999999994,
      "v": 110
    },
    {
      "midi": 62,
      "hit": false,
      "t": 207370.27200000122,
      "d": 2837.564000000013,
      "v": 60
    },
    {
      "midi": 56,
      "hit": false,
      "t": 207370.27200000122,
      "d": 2837.564000000013,
      "v": 60
    },
    {
      "midi": 72,
      "hit": false,
      "t": 207370.27200000262,
      "d": 182.48000000001048,
      "v": 120
    },
    {
      "midi": 76,
      "hit": false,
      "t": 207370.27200000265,
      "d": 401.4560000000056,
      "v": 120
    },
    {
      "midi": 42,
      "hit": false,
      "t": 207370.27200000704,
      "d": 9.12400000001071,
      "v": 70
    },
    {
      "midi": 36,
      "hit": false,
      "t": 207370.27200000704,
      "d": 9.12400000001071,
      "v": 84
    },
    {
      "midi": 76,
      "hit": false,
      "t": 207479.76000000263,
      "d": 401.4560000000056,
      "v": 120
    },
    {
      "midi": 76,
      "hit": false,
      "t": 207589.24800000264,
      "d": 401.4560000000056,
      "v": 120
    },
    {
      "midi": 42,
      "hit": false,
      "t": 207589.24800000706,
      "d": 9.12400000001071,
      "v": 98
    },
    {
      "midi": 74,
      "hit": false,
      "t": 207808.22400000266,
      "d": 182.48000000001048,
      "v": 120
    },
    {
      "midi": 42,
      "hit": false,
      "t": 207808.2240000071,
      "d": 9.12400000001071,
      "v": 70
    },
    {
      "midi": 74,
      "hit": false,
      "t": 207917.71200000265,
      "d": 182.48000000001048,
      "v": 120
    },
    {
      "midi": 74,
      "hit": false,
      "t": 208027.20000000266,
      "d": 182.48000000001048,
      "v": 120
    },
    {
      "midi": 76,
      "hit": false,
      "t": 208027.2000000027,
      "d": 401.4560000000056,
      "v": 120
    },
    {
      "midi": 42,
      "hit": false,
      "t": 208027.2000000071,
      "d": 9.12400000001071,
      "v": 98
    },
    {
      "midi": 38,
      "hit": false,
      "t": 208027.2000000071,
      "d": 9.12400000001071,
      "v": 84
    },
    {
      "midi": 76,
      "hit": false,
      "t": 208136.68800000267,
      "d": 401.4560000000056,
      "v": 120
    },
    {
      "midi": 76,
      "hit": false,
      "t": 208246.17600000268,
      "d": 401.4560000000056,
      "v": 120
    },
    {
      "midi": 42,
      "hit": false,
      "t": 208246.17600000714,
      "d": 9.12400000001071,
      "v": 70
    },
    {
      "midi": 42,
      "hit": false,
      "t": 208465.15200000716,
      "d": 9.12400000001071,
      "v": 98
    },
    {
      "midi": 38,
      "hit": false,
      "t": 208465.15200000716,
      "d": 9.12400000001071,
      "v": 84
    },
    {
      "midi": 40,
      "hit": false,
      "t": 208675.0040000005,
      "d": 647.8040000000037,
      "v": 110
    },
    {
      "midi": 49,
      "hit": false,
      "t": 208684.1280000072,
      "d": 9.12400000001071,
      "v": 84
    },
    {
      "midi": 36,
      "hit": false,
      "t": 208684.1280000072,
      "d": 9.12400000001071,
      "v": 84
    },
    {
      "midi": 28,
      "hit": false,
      "t": 209331.93200000052,
      "d": 209.8520000000135,
      "v": 110
    },
    {
      "midi": 38,
      "hit": false,
      "t": 209341.0560000072,
      "d": 9.12400000001071,
      "v": 84
    },
    {
      "midi": 28,
      "hit": false,
      "t": 209769.88400000054,
      "d": 364.95999999999185,
      "v": 110
    },
    {
      "midi": 49,
      "hit": false,
      "t": 209779.00800000722,
      "d": 9.12400000001071,
      "v": 84
    },
    {
      "midi": 36,
      "hit": false,
      "t": 209779.00800000722,
      "d": 9.12400000001071,
      "v": 84
    },
    {
      "midi": 69,
      "hit": false,
      "t": 210189.58800000008,
      "d": 1751.80799999999,
      "v": 50
    },
    {
      "midi": 64,
      "hit": false,
      "t": 210189.58800000008,
      "d": 1751.80799999999,
      "v": 50
    },
    {
      "midi": 60,
      "hit": false,
      "t": 210189.58800000008,
      "d": 1751.80799999999,
      "v": 50
    },
    {
      "midi": 29,
      "hit": false,
      "t": 210207.83600000053,
      "d": 647.8040000001201,
      "v": 110
    },
    {
      "midi": 49,
      "hit": false,
      "t": 210216.96000000724,
      "d": 9.12400000001071,
      "v": 70
    },
    {
      "midi": 36,
      "hit": false,
      "t": 210216.96000000724,
      "d": 9.12400000001071,
      "v": 84
    },
    {
      "midi": 79,
      "hit": false,
      "t": 210435.9359999997,
      "d": 209.8520000000135,
      "v": 60
    },
    {
      "midi": 81,
      "hit": false,
      "t": 210654.91199999972,
      "d": 209.8520000000135,
      "v": 60
    },
    {
      "midi": 46,
      "hit": false,
      "t": 210654.91200000726,
      "d": 9.12400000001071,
      "v": 70
    },
    {
      "midi": 43,
      "hit": false,
      "t": 210864.76400000066,
      "d": 1085.755999999994,
      "v": 110
    },
    {
      "midi": 88,
      "hit": false,
      "t": 210873.88799999974,
      "d": 428.8280000000086,
      "v": 60
    },
    {
      "midi": 48,
      "hit": false,
      "t": 210873.8880000011,
      "d": 9.12400000001071,
      "v": 42
    },
    {
      "midi": 48,
      "hit": false,
      "t": 210873.88800000728,
      "d": 9.12400000001071,
      "v": 84
    },
    {
      "midi": 41,
      "hit": false,
      "t": 211092.86400000114,
      "d": 9.12400000001071,
      "v": 42
    },
    {
      "midi": 46,
      "hit": false,
      "t": 211092.8640000073,
      "d": 9.12400000001071,
      "v": 70
    },
    {
      "midi": 41,
      "hit": false,
      "t": 211092.8640000073,
      "d": 9.12400000001071,
      "v": 84
    },
    {
      "midi": 79,
      "hit": false,
      "t": 211311.83999999976,
      "d": 209.8520000000135,
      "v": 60
    },
    {
      "midi": 81,
      "hit": false,
      "t": 211530.8159999998,
      "d": 209.8520000000135,
      "v": 60
    },
    {
      "midi": 46,
      "hit": false,
      "t": 211530.81600000733,
      "d": 9.12400000001071,
      "v": 70
    },
    {
      "midi": 38,
      "hit": false,
      "t": 211530.81600000733,
      "d": 9.12400000001071,
      "v": 84
    },
    {
      "midi": 88,
      "hit": false,
      "t": 211749.7919999998,
      "d": 428.8280000000086,
      "v": 60
    },
    {
      "midi": 76,
      "hit": false,
      "t": 211749.7920000027,
      "d": 182.48000000001048,
      "v": 120
    },
    {
      "midi": 76,
      "hit": false,
      "t": 211859.28000000268,
      "d": 182.48000000001048,
      "v": 120
    },
    {
      "midi": 67,
      "hit": false,
      "t": 211941.39600000007,
      "d": 1751.80799999999,
      "v": 50
    },
    {
      "midi": 64,
      "hit": false,
      "t": 211941.39600000007,
      "d": 1751.80799999999,
      "v": 50
    },
    {
      "midi": 59,
      "hit": false,
      "t": 211941.39600000007,
      "d": 1751.80799999999,
      "v": 50
    },
    {
      "midi": 36,
      "hit": false,
      "t": 211959.64400000067,
      "d": 364.95999999999185,
      "v": 110
    },
    {
      "midi": 76,
      "hit": false,
      "t": 211968.7680000027,
      "d": 182.48000000001048,
      "v": 120
    },
    {
      "midi": 79,
      "hit": false,
      "t": 211968.76800000272,
      "d": 401.4560000000056,
      "v": 120
    },
    {
      "midi": 46,
      "hit": false,
      "t": 211968.76800000735,
      "d": 9.12400000001071,
      "v": 70
    },
    {
      "midi": 36,
      "hit": false,
      "t": 211968.76800000735,
      "d": 9.12400000001071,
      "v": 84
    },
    {
      "midi": 79,
      "hit": false,
      "t": 212078.2560000027,
      "d": 401.4560000000056,
      "v": 120
    },
    {
      "midi": 83,
      "hit": false,
      "t": 212187.74399999983,
      "d": 209.8520000000135,
      "v": 60
    },
    {
      "midi": 79,
      "hit": false,
      "t": 212187.7440000027,
      "d": 401.4560000000056,
      "v": 120
    },
    {
      "midi": 84,
      "hit": false,
      "t": 212406.71999999986,
      "d": 209.8520000000135,
      "v": 60
    },
    {
      "midi": 81,
      "hit": false,
      "t": 212406.72000000274,
      "d": 182.48000000001048,
      "v": 120
    },
    {
      "midi": 46,
      "hit": false,
      "t": 212406.72000000736,
      "d": 9.12400000001071,
      "v": 70
    },
    {
      "midi": 81,
      "hit": false,
      "t": 212516.20800000272,
      "d": 182.48000000001048,
      "v": 120
    },
    {
      "midi": 36,
      "hit": false,
      "t": 212616.57200000065,
      "d": 1085.755999999994,
      "v": 110
    },
    {
      "midi": 91,
      "hit": false,
      "t": 212625.69599999988,
      "d": 428.8280000000086,
      "v": 60
    },
    {
      "midi": 81,
      "hit": false,
      "t": 212625.69600000273,
      "d": 182.48000000001048,
      "v": 120
    },
    {
      "midi": 76,
      "hit": false,
      "t": 212625.69600000276,
      "d": 839.4079999999958,
      "v": 120
    },
    {
      "midi": 36,
      "hit": false,
      "t": 212625.6960000074,
      "d": 9.12400000001071,
      "v": 84
    },
    {
      "midi": 76,
      "hit": false,
      "t": 212735.18400000274,
      "d": 839.4079999999958,
      "v": 120
    },
    {
      "midi": 76,
      "hit": false,
      "t": 212844.67200000276,
      "d": 839.4079999999958,
      "v": 120
    },
    {
      "midi": 46,
      "hit": false,
      "t": 212844.6720000074,
      "d": 9.12400000001071,
      "v": 70
    },
    {
      "midi": 83,
      "hit": false,
      "t": 213063.6479999999,
      "d": 209.8520000000135,
      "v": 60
    },
    {
      "midi": 84,
      "hit": false,
      "t": 213282.62399999992,
      "d": 209.8520000000135,
      "v": 60
    },
    {
      "midi": 46,
      "hit": false,
      "t": 213282.62400000743,
      "d": 9.12400000001071,
      "v": 70
    },
    {
      "midi": 38,
      "hit": false,
      "t": 213282.62400000743,
      "d": 9.12400000001071,
      "v": 84
    },
    {
      "midi": 91,
      "hit": false,
      "t": 213501.59999999995,
      "d": 428.8280000000086,
      "v": 60
    },
    {
      "midi": 69,
      "hit": false,
      "t": 213693.20400000006,
      "d": 1751.80799999999,
      "v": 50
    },
    {
      "midi": 64,
      "hit": false,
      "t": 213693.20400000006,
      "d": 1751.80799999999,
      "v": 50
    },
    {
      "midi": 60,
      "hit": false,
      "t": 213693.20400000006,
      "d": 1751.80799999999,
      "v": 50
    },
    {
      "midi": 29,
      "hit": false,
      "t": 213711.45200000066,
      "d": 647.8040000001201,
      "v": 110
    },
    {
      "midi": 46,
      "hit": false,
      "t": 213720.57600000745,
      "d": 9.12400000001071,
      "v": 70
    },
    {
      "midi": 36,
      "hit": false,
      "t": 213720.57600000745,
      "d": 9.12400000001071,
      "v": 84
    },
    {
      "midi": 79,
      "hit": false,
      "t": 213939.55199999997,
      "d": 209.8520000000135,
      "v": 60
    },
    {
      "midi": 81,
      "hit": false,
      "t": 214158.528,
      "d": 209.8520000000135,
      "v": 60
    },
    {
      "midi": 46,
      "hit": false,
      "t": 214158.52800000747,
      "d": 9.12400000001071,
      "v": 70
    },
    {
      "midi": 43,
      "hit": false,
      "t": 214368.3800000008,
      "d": 1085.7560000001104,
      "v": 110
    },
    {
      "midi": 88,
      "hit": false,
      "t": 214377.50400000002,
      "d": 428.8280000000086,
      "v": 60
    },
    {
      "midi": 48,
      "hit": false,
      "t": 214377.50400000115,
      "d": 9.12400000001071,
      "v": 42
    },
    {
      "midi": 48,
      "hit": false,
      "t": 214377.5040000075,
      "d": 9.12400000001071,
      "v": 84
    },
    {
      "midi": 41,
      "hit": false,
      "t": 214596.48000000117,
      "d": 9.12400000001071,
      "v": 42
    },
    {
      "midi": 46,
      "hit": false,
      "t": 214596.48000000752,
      "d": 9.12400000001071,
      "v": 70
    },
    {
      "midi": 41,
      "hit": false,
      "t": 214596.48000000752,
      "d": 9.12400000001071,
      "v": 84
    },
    {
      "midi": 79,
      "hit": false,
      "t": 214815.45600000003,
      "d": 209.8520000000135,
      "v": 60
    },
    {
      "midi": 81,
      "hit": false,
      "t": 215034.43200000006,
      "d": 209.8520000000135,
      "v": 60
    },
    {
      "midi": 46,
      "hit": false,
      "t": 215034.43200000754,
      "d": 9.12400000001071,
      "v": 70
    },
    {
      "midi": 38,
      "hit": false,
      "t": 215034.43200000754,
      "d": 9.12400000001071,
      "v": 84
    },
    {
      "midi": 88,
      "hit": false,
      "t": 215253.40800000008,
      "d": 428.8280000000086,
      "v": 60
    },
    {
      "midi": 71,
      "hit": false,
      "t": 215445.01200000005,
      "d": 1751.80799999999,
      "v": 50
    },
    {
      "midi": 64,
      "hit": false,
      "t": 215445.01200000005,
      "d": 1751.80799999999,
      "v": 50
    },
    {
      "midi": 59,
      "hit": false,
      "t": 215445.01200000005,
      "d": 1751.80799999999,
      "v": 50
    },
    {
      "midi": 47,
      "hit": false,
      "t": 215463.2600000009,
      "d": 647.8040000002948,
      "v": 110
    },
    {
      "midi": 79,
      "hit": false,
      "t": 215472.38400000276,
      "d": 401.4560000000056,
      "v": 120
    },
    {
      "midi": 46,
      "hit": false,
      "t": 215472.38400000756,
      "d": 9.12400000001071,
      "v": 70
    },
    {
      "midi": 36,
      "hit": false,
      "t": 215472.38400000756,
      "d": 9.12400000001071,
      "v": 84
    },
    {
      "midi": 79,
      "hit": false,
      "t": 215581.87200000274,
      "d": 401.4560000000056,
      "v": 120
    },
    {
      "midi": 83,
      "hit": false,
      "t": 215691.3600000001,
      "d": 209.8520000000135,
      "v": 60
    },
    {
      "midi": 79,
      "hit": false,
      "t": 215691.36000000275,
      "d": 401.4560000000056,
      "v": 120
    },
    {
      "midi": 84,
      "hit": false,
      "t": 215910.33600000013,
      "d": 209.8520000000135,
      "v": 60
    },
    {
      "midi": 77,
      "hit": false,
      "t": 215910.33600000278,
      "d": 182.48000000001048,
      "v": 120
    },
    {
      "midi": 46,
      "hit": false,
      "t": 215910.33600000758,
      "d": 9.12400000001071,
      "v": 70
    },
    {
      "midi": 77,
      "hit": false,
      "t": 216019.82400000276,
      "d": 182.48000000001048,
      "v": 120
    },
    {
      "midi": 36,
      "hit": false,
      "t": 216120.18800000122,
      "d": 1085.755999999994,
      "v": 110
    },
    {
      "midi": 91,
      "hit": false,
      "t": 216129.31200000015,
      "d": 428.8280000000086,
      "v": 60
    },
    {
      "midi": 77,
      "hit": false,
      "t": 216129.31200000277,
      "d": 182.48000000001048,
      "v": 120
    },
    {
      "midi": 76,
      "hit": false,
      "t": 216129.3120000028,
      "d": 401.4560000000056,
      "v": 120
    },
    {
      "midi": 36,
      "hit": false,
      "t": 216129.3120000076,
      "d": 9.12400000001071,
      "v": 84
    },
    {
      "midi": 76,
      "hit": false,
      "t": 216238.80000000278,
      "d": 401.4560000000056,
      "v": 120
    },
    {
      "midi": 76,
      "hit": false,
      "t": 216348.2880000028,
      "d": 401.4560000000056,
      "v": 120
    },
    {
      "midi": 46,
      "hit": false,
      "t": 216348.28800000763,
      "d": 9.12400000001071,
      "v": 70
    },
    {
      "midi": 83,
      "hit": false,
      "t": 216567.26400000017,
      "d": 209.8520000000135,
      "v": 60
    },
    {
      "midi": 76,
      "hit": false,
      "t": 216567.26400000282,
      "d": 182.48000000001048,
      "v": 120
    },
    {
      "midi": 76,
      "hit": false,
      "t": 216676.7520000028,
      "d": 182.48000000001048,
      "v": 120
    },
    {
      "midi": 84,
      "hit": false,
      "t": 216786.2400000002,
      "d": 209.8520000000135,
      "v": 60
    },
    {
      "midi": 76,
      "hit": false,
      "t": 216786.2400000028,
      "d": 182.48000000001048,
      "v": 120
    },
    {
      "midi": 74,
      "hit": false,
      "t": 216786.24000000284,
      "d": 182.48000000001048,
      "v": 120
    },
    {
      "midi": 46,
      "hit": false,
      "t": 216786.24000000764,
      "d": 9.12400000001071,
      "v": 70
    },
    {
      "midi": 38,
      "hit": false,
      "t": 216786.24000000764,
      "d": 9.12400000001071,
      "v": 84
    },
    {
      "midi": 74,
      "hit": false,
      "t": 216895.72800000283,
      "d": 182.48000000001048,
      "v": 120
    },
    {
      "midi": 91,
      "hit": false,
      "t": 217005.21600000022,
      "d": 428.8280000000086,
      "v": 60
    },
    {
      "midi": 74,
      "hit": false,
      "t": 217005.21600000284,
      "d": 182.48000000001048,
      "v": 120
    },
    {
      "midi": 72,
      "hit": false,
      "t": 217005.21600000287,
      "d": 182.48000000001048,
      "v": 120
    },
    {
      "midi": 72,
      "hit": false,
      "t": 217114.70400000285,
      "d": 182.48000000001048,
      "v": 120
    },
    {
      "midi": 69,
      "hit": false,
      "t": 217196.82000000004,
      "d": 1751.80799999999,
      "v": 50
    },
    {
      "midi": 65,
      "hit": false,
      "t": 217196.82000000004,
      "d": 1751.80799999999,
      "v": 50
    },
    {
      "midi": 71,
      "hit": false,
      "t": 217196.82000000004,
      "d": 1751.80799999999,
      "v": 50
    },
    {
      "midi": 35,
      "hit": false,
      "t": 217215.06800000122,
      "d": 647.8040000000037,
      "v": 110
    },
    {
      "midi": 72,
      "hit": false,
      "t": 217224.19200000286,
      "d": 182.48000000001048,
      "v": 120
    },
    {
      "midi": 74,
      "hit": false,
      "t": 217224.1920000029,
      "d": 401.4560000000056,
      "v": 120
    },
    {
      "midi": 46,
      "hit": false,
      "t": 217224.19200000766,
      "d": 9.12400000001071,
      "v": 70
    },
    {
      "midi": 36,
      "hit": false,
      "t": 217224.19200000766,
      "d": 9.12400000001071,
      "v": 84
    },
    {
      "midi": 74,
      "hit": false,
      "t": 217333.68000000287,
      "d": 401.4560000000056,
      "v": 120
    },
    {
      "midi": 81,
      "hit": false,
      "t": 217443.16800000024,
      "d": 209.8520000000135,
      "v": 60
    },
    {
      "midi": 74,
      "hit": false,
      "t": 217443.1680000029,
      "d": 401.4560000000056,
      "v": 120
    },
    {
      "midi": 83,
      "hit": false,
      "t": 217662.14400000026,
      "d": 209.8520000000135,
      "v": 60
    },
    {
      "midi": 74,
      "hit": false,
      "t": 217662.1440000029,
      "d": 182.48000000001048,
      "v": 120
    },
    {
      "midi": 46,
      "hit": false,
      "t": 217662.14400000768,
      "d": 9.12400000001071,
      "v": 70
    },
    {
      "midi": 74,
      "hit": false,
      "t": 217771.6320000029,
      "d": 182.48000000001048,
      "v": 120
    },
    {
      "midi": 37,
      "hit": false,
      "t": 217871.99600000124,
      "d": 209.8520000000135,
      "v": 110
    },
    {
      "midi": 90,
      "hit": false,
      "t": 217881.1200000003,
      "d": 428.8280000000086,
      "v": 60
    },
    {
      "midi": 48,
      "hit": false,
      "t": 217881.1200000012,
      "d": 9.12400000001071,
      "v": 42
    },
    {
      "midi": 74,
      "hit": false,
      "t": 217881.1200000029,
      "d": 182.48000000001048,
      "v": 120
    },
    {
      "midi": 76,
      "hit": false,
      "t": 217881.12000000293,
      "d": 620.4320000000007,
      "v": 120
    },
    {
      "midi": 48,
      "hit": false,
      "t": 217881.1200000077,
      "d": 9.12400000001071,
      "v": 84
    },
    {
      "midi": 76,
      "hit": false,
      "t": 217990.60800000292,
      "d": 620.4320000000007,
      "v": 120
    },
    {
      "midi": 38,
      "hit": false,
      "t": 218090.97200000126,
      "d": 428.8280000000086,
      "v": 110
    },
    {
      "midi": 41,
      "hit": false,
      "t": 218100.0960000012,
      "d": 9.12400000001071,
      "v": 42
    },
    {
      "midi": 76,
      "hit": false,
      "t": 218100.09600000293,
      "d": 620.4320000000007,
      "v": 120
    },
    {
      "midi": 46,
      "hit": false,
      "t": 218100.09600000773,
      "d": 9.12400000001071,
      "v": 70
    },
    {
      "midi": 41,
      "hit": false,
      "t": 218100.09600000773,
      "d": 9.12400000001071,
      "v": 84
    },
    {
      "midi": 81,
      "hit": false,
      "t": 218319.0720000003,
      "d": 209.8520000000135,
      "v": 60
    },
    {
      "midi": 39,
      "hit": false,
      "t": 218528.92400000128,
      "d": 428.8280000000086,
      "v": 110
    },
    {
      "midi": 83,
      "hit": false,
      "t": 218538.04800000033,
      "d": 209.8520000000135,
      "v": 60
    },
    {
      "midi": 46,
      "hit": false,
      "t": 218538.04800000775,
      "d": 9.12400000001071,
      "v": 70
    },
    {
      "midi": 38,
      "hit": false,
      "t": 218538.04800000775,
      "d": 9.12400000001071,
      "v": 84
    },
    {
      "midi": 90,
      "hit": false,
      "t": 218757.02400000035,
      "d": 428.8280000000086,
      "v": 60
    },
    {
      "midi": 68,
      "hit": false,
      "t": 218948.62800000003,
      "d": 1751.80799999999,
      "v": 50
    },
    {
      "midi": 64,
      "hit": false,
      "t": 218948.62800000003,
      "d": 1751.80799999999,
      "v": 50
    },
    {
      "midi": 59,
      "hit": false,
      "t": 218948.62800000003,
      "d": 1751.80799999999,
      "v": 50
    },
    {
      "midi": 40,
      "hit": false,
      "t": 218966.8760000013,
      "d": 1742.6840000000084,
      "v": 110
    },
    {
      "midi": 46,
      "hit": false,
      "t": 218976.00000000777,
      "d": 9.12400000001071,
      "v": 70
    },
    {
      "midi": 36,
      "hit": false,
      "t": 218976.00000000777,
      "d": 9.12400000001071,
      "v": 84
    },
    {
      "midi": 80,
      "hit": false,
      "t": 219194.97600000037,
      "d": 209.8520000000135,
      "v": 60
    },
    {
      "midi": 83,
      "hit": false,
      "t": 219413.9520000004,
      "d": 209.8520000000135,
      "v": 60
    },
    {
      "midi": 46,
      "hit": false,
      "t": 219413.9520000078,
      "d": 9.12400000001071,
      "v": 70
    },
    {
      "midi": 38,
      "hit": false,
      "t": 219413.9520000078,
      "d": 9.12400000001071,
      "v": 84
    },
    {
      "midi": 88,
      "hit": false,
      "t": 219632.92800000042,
      "d": 428.8280000000086,
      "v": 60
    },
    {
      "midi": 42,
      "hit": false,
      "t": 219851.9040000078,
      "d": 9.12400000001071,
      "v": 70
    },
    {
      "midi": 80,
      "hit": false,
      "t": 220070.88000000044,
      "d": 209.8520000000135,
      "v": 60
    },
    {
      "midi": 48,
      "hit": false,
      "t": 220070.88000000123,
      "d": 9.12400000001071,
      "v": 42
    },
    {
      "midi": 48,
      "hit": false,
      "t": 220070.88000000783,
      "d": 9.12400000001071,
      "v": 84
    },
    {
      "midi": 83,
      "hit": false,
      "t": 220289.85600000047,
      "d": 209.8520000000135,
      "v": 60
    },
    {
      "midi": 45,
      "hit": false,
      "t": 220289.85600000125,
      "d": 9.12400000001071,
      "v": 42
    },
    {
      "midi": 45,
      "hit": false,
      "t": 220289.85600000786,
      "d": 9.12400000001071,
      "v": 84
    },
    {
      "midi": 88,
      "hit": false,
      "t": 220508.8320000005,
      "d": 209.8520000000135,
      "v": 60
    },
    {
      "midi": 41,
      "hit": false,
      "t": 220508.83200000128,
      "d": 9.12400000001071,
      "v": 42
    },
    {
      "midi": 41,
      "hit": false,
      "t": 220508.83200000788,
      "d": 9.12400000001071,
      "v": 84
    },
    {
      "midi": 69,
      "hit": false,
      "t": 220700.43600000002,
      "d": 1751.80799999999,
      "v": 50
    },
    {
      "midi": 64,
      "hit": false,
      "t": 220700.43600000002,
      "d": 1751.80799999999,
      "v": 50
    },
    {
      "midi": 60,
      "hit": false,
      "t": 220700.43600000002,
      "d": 1751.80799999999,
      "v": 50
    },
    {
      "midi": 33,
      "hit": false,
      "t": 220718.68400000132,
      "d": 364.95999999999185,
      "v": 110
    },
    {
      "midi": 81,
      "hit": false,
      "t": 220727.8080000005,
      "d": 866.7799999999988,
      "v": 60
    },
    {
      "midi": 84,
      "hit": false,
      "t": 220727.8080000005,
      "d": 866.7799999999988,
      "v": 60
    },
    {
      "midi": 88,
      "hit": false,
      "t": 220727.8080000005,
      "d": 866.7799999999988,
      "v": 60
    },
    {
      "midi": 76,
      "hit": false,
      "t": 220727.80800000293,
      "d": 182.48000000001048,
      "v": 120
    },
    {
      "midi": 49,
      "hit": false,
      "t": 220727.8080000079,
      "d": 9.12400000001071,
      "v": 84
    },
    {
      "midi": 36,
      "hit": false,
      "t": 220727.8080000079,
      "d": 9.12400000001071,
      "v": 84
    },
    {
      "midi": 76,
      "hit": false,
      "t": 220837.2960000029,
      "d": 182.48000000001048,
      "v": 120
    },
    {
      "midi": 76,
      "hit": false,
      "t": 220946.78400000292,
      "d": 182.48000000001048,
      "v": 120
    },
    {
      "midi": 74,
      "hit": false,
      "t": 220946.78400000295,
      "d": 182.48000000001048,
      "v": 120
    },
    {
      "midi": 74,
      "hit": false,
      "t": 221056.27200000294,
      "d": 182.48000000001048,
      "v": 120
    },
    {
      "midi": 74,
      "hit": false,
      "t": 221165.76000000295,
      "d": 182.48000000001048,
      "v": 120
    },
    {
      "midi": 72,
      "hit": false,
      "t": 221165.76000000298,
      "d": 182.48000000001048,
      "v": 120
    },
    {
      "midi": 42,
      "hit": false,
      "t": 221165.76000000793,
      "d": 9.12400000001071,
      "v": 70
    },
    {
      "midi": 72,
      "hit": false,
      "t": 221275.24800000296,
      "d": 182.48000000001048,
      "v": 120
    },
    {
      "midi": 33,
      "hit": false,
      "t": 221375.6120000013,
      "d": 1085.755999999994,
      "v": 110
    },
    {
      "midi": 72,
      "hit": false,
      "t": 221384.73600000297,
      "d": 182.48000000001048,
      "v": 120
    },
    {
      "midi": 74,
      "hit": false,
      "t": 221384.736000003,
      "d": 401.4560000000056,
      "v": 120
    },
    {
      "midi": 42,
      "hit": false,
      "t": 221384.73600000795,
      "d": 9.12400000001071,
      "v": 70
    },
    {
      "midi": 36,
      "hit": false,
      "t": 221384.73600000795,
      "d": 9.12400000001071,
      "v": 84
    },
    {
      "midi": 74,
      "hit": false,
      "t": 221494.22400000299,
      "d": 401.4560000000056,
      "v": 120
    },
    {
      "midi": 74,
      "hit": false,
      "t": 221603.712000003,
      "d": 401.4560000000056,
      "v": 120
    },
    {
      "midi": 42,
      "hit": false,
      "t": 221603.71200000797,
      "d": 9.12400000001071,
      "v": 70
    },
    {
      "midi": 38,
      "hit": false,
      "t": 221603.71200000797,
      "d": 9.12400000001071,
      "v": 84
    },
    {
      "midi": 72,
      "hit": false,
      "t": 221822.68800000302,
      "d": 182.48000000001048,
      "v": 120
    },
    {
      "midi": 42,
      "hit": false,
      "t": 221822.688000008,
      "d": 9.12400000001071,
      "v": 70
    },
    {
      "midi": 72,
      "hit": false,
      "t": 221932.176000003,
      "d": 182.48000000001048,
      "v": 120
    },
    {
      "midi": 41,
      "hit": false,
      "t": 222041.6640000013,
      "d": 9.12400000001071,
      "v": 42
    },
    {
      "midi": 72,
      "hit": false,
      "t": 222041.66400000302,
      "d": 182.48000000001048,
      "v": 120
    },
    {
      "midi": 42,
      "hit": false,
      "t": 222041.66400000802,
      "d": 9.12400000001071,
      "v": 70
    },
    {
      "midi": 41,
      "hit": false,
      "t": 222041.66400000802,
      "d": 9.12400000001071,
      "v": 84
    },
    {
      "midi": 72,
      "hit": false,
      "t": 222260.64000000304,
      "d": 182.48000000001048,
      "v": 120
    },
    {
      "midi": 42,
      "hit": false,
      "t": 222260.64000000805,
      "d": 9.12400000001071,
      "v": 70
    },
    {
      "midi": 72,
      "hit": false,
      "t": 222370.12800000302,
      "d": 182.48000000001048,
      "v": 120
    },
    {
      "midi": 67,
      "hit": false,
      "t": 222452.244,
      "d": 1532.8319999999949,
      "v": 50
    },
    {
      "midi": 64,
      "hit": false,
      "t": 222452.244,
      "d": 1532.8319999999949,
      "v": 50
    },
    {
      "midi": 60,
      "hit": false,
      "t": 222452.244,
      "d": 1532.8319999999949,
      "v": 50
    },
    {
      "midi": 31,
      "hit": false,
      "t": 222470.4920000013,
      "d": 364.95999999999185,
      "v": 110
    },
    {
      "midi": 79,
      "hit": false,
      "t": 222479.6160000005,
      "d": 866.7799999999988,
      "v": 60
    },
    {
      "midi": 84,
      "hit": false,
      "t": 222479.6160000005,
      "d": 866.7799999999988,
      "v": 60
    },
    {
      "midi": 88,
      "hit": false,
      "t": 222479.6160000005,
      "d": 866.7799999999988,
      "v": 60
    },
    {
      "midi": 72,
      "hit": false,
      "t": 222479.61600000304,
      "d": 182.48000000001048,
      "v": 120
    },
    {
      "midi": 76,
      "hit": false,
      "t": 222479.61600000306,
      "d": 182.48000000001048,
      "v": 120
    },
    {
      "midi": 42,
      "hit": false,
      "t": 222479.61600000807,
      "d": 9.12400000001071,
      "v": 70
    },
    {
      "midi": 36,
      "hit": false,
      "t": 222479.61600000807,
      "d": 9.12400000001071,
      "v": 84
    },
    {
      "midi": 76,
      "hit": false,
      "t": 222589.10400000305,
      "d": 182.48000000001048,
      "v": 120
    },
    {
      "midi": 76,
      "hit": false,
      "t": 222698.59200000306,
      "d": 182.48000000001048,
      "v": 120
    },
    {
      "midi": 74,
      "hit": false,
      "t": 222698.5920000031,
      "d": 182.48000000001048,
      "v": 120
    },
    {
      "midi": 74,
      "hit": false,
      "t": 222808.08000000307,
      "d": 182.48000000001048,
      "v": 120
    },
    {
      "midi": 74,
      "hit": false,
      "t": 222917.56800000308,
      "d": 182.48000000001048,
      "v": 120
    },
    {
      "midi": 72,
      "hit": false,
      "t": 222917.5680000031,
      "d": 182.48000000001048,
      "v": 120
    },
    {
      "midi": 42,
      "hit": false,
      "t": 222917.5680000081,
      "d": 9.12400000001071,
      "v": 70
    },
    {
      "midi": 72,
      "hit": false,
      "t": 223027.0560000031,
      "d": 182.48000000001048,
      "v": 120
    },
    {
      "midi": 31,
      "hit": false,
      "t": 223127.4200000013,
      "d": 866.7799999999988,
      "v": 110
    },
    {
      "midi": 72,
      "hit": false,
      "t": 223136.5440000031,
      "d": 182.48000000001048,
      "v": 120
    },
    {
      "midi": 74,
      "hit": false,
      "t": 223136.54400000314,
      "d": 401.4560000000056,
      "v": 120
    },
    {
      "midi": 42,
      "hit": false,
      "t": 223136.5440000081,
      "d": 9.12400000001071,
      "v": 70
    },
    {
      "midi": 36,
      "hit": false,
      "t": 223136.5440000081,
      "d": 9.12400000001071,
      "v": 84
    },
    {
      "midi": 74,
      "hit": false,
      "t": 223246.03200000312,
      "d": 401.4560000000056,
      "v": 120
    },
    {
      "midi": 74,
      "hit": false,
      "t": 223355.52000000313,
      "d": 401.4560000000056,
      "v": 120
    },
    {
      "midi": 42,
      "hit": false,
      "t": 223355.52000000814,
      "d": 9.12400000001071,
      "v": 70
    },
    {
      "midi": 38,
      "hit": false,
      "t": 223355.52000000814,
      "d": 9.12400000001071,
      "v": 84
    },
    {
      "midi": 72,
      "hit": false,
      "t": 223574.49600000316,
      "d": 401.4560000000056,
      "v": 120
    },
    {
      "midi": 42,
      "hit": false,
      "t": 223574.49600000816,
      "d": 9.12400000001071,
      "v": 70
    },
    {
      "midi": 72,
      "hit": false,
      "t": 223683.98400000314,
      "d": 401.4560000000056,
      "v": 120
    },
    {
      "midi": 41,
      "hit": false,
      "t": 223793.47200000132,
      "d": 9.12400000001071,
      "v": 42
    },
    {
      "midi": 72,
      "hit": false,
      "t": 223793.47200000315,
      "d": 401.4560000000056,
      "v": 120
    },
    {
      "midi": 42,
      "hit": false,
      "t": 223793.4720000082,
      "d": 9.12400000001071,
      "v": 70
    },
    {
      "midi": 41,
      "hit": false,
      "t": 223793.4720000082,
      "d": 9.12400000001071,
      "v": 84
    },
    {
      "midi": 66,
      "hit": false,
      "t": 223985.076,
      "d": 1970.7840000000142,
      "v": 50
    },
    {
      "midi": 64,
      "hit": false,
      "t": 223985.076,
      "d": 1970.7840000000142,
      "v": 50
    },
    {
      "midi": 60,
      "hit": false,
      "t": 223985.076,
      "d": 1970.7840000000142,
      "v": 50
    },
    {
      "midi": 30,
      "hit": false,
      "t": 224003.3240000013,
      "d": 583.935999999987,
      "v": 110
    },
    {
      "midi": 81,
      "hit": false,
      "t": 224012.4480000005,
      "d": 1085.755999999994,
      "v": 60
    },
    {
      "midi": 84,
      "hit": false,
      "t": 224012.4480000005,
      "d": 1085.755999999994,
      "v": 60
    },
    {
      "midi": 88,
      "hit": false,
      "t": 224012.4480000005,
      "d": 1085.755999999994,
      "v": 60
    },
    {
      "midi": 76,
      "hit": false,
      "t": 224012.44800000318,
      "d": 182.48000000001048,
      "v": 120
    },
    {
      "midi": 49,
      "hit": false,
      "t": 224012.4480000082,
      "d": 9.12400000001071,
      "v": 84
    },
    {
      "midi": 36,
      "hit": false,
      "t": 224012.4480000082,
      "d": 9.12400000001071,
      "v": 84
    },
    {
      "midi": 76,
      "hit": false,
      "t": 224121.93600000316,
      "d": 182.48000000001048,
      "v": 120
    },
    {
      "midi": 76,
      "hit": false,
      "t": 224231.42400000317,
      "d": 182.48000000001048,
      "v": 120
    },
    {
      "midi": 42,
      "hit": false,
      "t": 224669.37600000823,
      "d": 9.12400000001071,
      "v": 70
    },
    {
      "midi": 36,
      "hit": false,
      "t": 224879.22800000128,
      "d": 209.8520000000135,
      "v": 110
    },
    {
      "midi": 42,
      "hit": false,
      "t": 224888.35200000825,
      "d": 9.12400000001071,
      "v": 70
    },
    {
      "midi": 36,
      "hit": false,
      "t": 224888.35200000825,
      "d": 9.12400000001071,
      "v": 84
    },
    {
      "midi": 36,
      "hit": false,
      "t": 225098.2040000013,
      "d": 866.7800000001153,
      "v": 110
    },
    {
      "midi": 42,
      "hit": false,
      "t": 225107.32800000827,
      "d": 9.12400000001071,
      "v": 70
    },
    {
      "midi": 38,
      "hit": false,
      "t": 225107.32800000827,
      "d": 9.12400000001071,
      "v": 84
    },
    {
      "midi": 42,
      "hit": false,
      "t": 225326.3040000083,
      "d": 9.12400000001071,
      "v": 70
    },
    {
      "midi": 41,
      "hit": false,
      "t": 225545.28000000134,
      "d": 9.12400000001071,
      "v": 42
    },
    {
      "midi": 42,
      "hit": false,
      "t": 225545.28000000832,
      "d": 9.12400000001071,
      "v": 70
    },
    {
      "midi": 41,
      "hit": false,
      "t": 225545.28000000832,
      "d": 9.12400000001071,
      "v": 84
    },
    {
      "midi": 42,
      "hit": false,
      "t": 225764.25600000835,
      "d": 9.12400000001071,
      "v": 70
    },
    {
      "midi": 67,
      "hit": false,
      "t": 225955.86000000002,
      "d": 1751.80799999999,
      "v": 50
    },
    {
      "midi": 60,
      "hit": false,
      "t": 225955.86000000002,
      "d": 1751.80799999999,
      "v": 50
    },
    {
      "midi": 29,
      "hit": false,
      "t": 225974.10800000143,
      "d": 647.8040000000037,
      "v": 110
    },
    {
      "midi": 79,
      "hit": false,
      "t": 225983.23200000048,
      "d": 209.8520000000135,
      "v": 60
    },
    {
      "midi": 79,
      "hit": false,
      "t": 225983.2320000032,
      "d": 182.48000000001048,
      "v": 120
    },
    {
      "midi": 42,
      "hit": false,
      "t": 225983.23200000837,
      "d": 9.12400000001071,
      "v": 70
    },
    {
      "midi": 36,
      "hit": false,
      "t": 225983.23200000837,
      "d": 9.12400000001071,
      "v": 84
    },
    {
      "midi": 79,
      "hit": false,
      "t": 226092.72000000317,
      "d": 182.48000000001048,
      "v": 120
    },
    {
      "midi": 81,
      "hit": false,
      "t": 226202.2080000005,
      "d": 209.8520000000135,
      "v": 60
    },
    {
      "midi": 79,
      "hit": false,
      "t": 226202.2080000032,
      "d": 182.48000000001048,
      "v": 120
    },
    {
      "midi": 79,
      "hit": false,
      "t": 226202.20800000321,
      "d": 182.48000000001048,
      "v": 120
    },
    {
      "midi": 79,
      "hit": false,
      "t": 226311.6960000032,
      "d": 182.48000000001048,
      "v": 120
    },
    {
      "midi": 88,
      "hit": false,
      "t": 226421.18400000053,
      "d": 209.8520000000135,
      "v": 60
    },
    {
      "midi": 79,
      "hit": false,
      "t": 226421.1840000032,
      "d": 182.48000000001048,
      "v": 120
    },
    {
      "midi": 79,
      "hit": false,
      "t": 226421.18400000324,
      "d": 182.48000000001048,
      "v": 120
    },
    {
      "midi": 42,
      "hit": false,
      "t": 226421.1840000084,
      "d": 9.12400000001071,
      "v": 70
    },
    {
      "midi": 79,
      "hit": false,
      "t": 226530.67200000322,
      "d": 182.48000000001048,
      "v": 120
    },
    {
      "midi": 29,
      "hit": false,
      "t": 226631.03600000145,
      "d": 209.8520000000135,
      "v": 110
    },
    {
      "midi": 79,
      "hit": false,
      "t": 226640.16000000056,
      "d": 209.8520000000135,
      "v": 60
    },
    {
      "midi": 79,
      "hit": false,
      "t": 226640.16000000323,
      "d": 182.48000000001048,
      "v": 120
    },
    {
      "midi": 79,
      "hit": false,
      "t": 226640.16000000326,
      "d": 401.4560000000056,
      "v": 120
    },
    {
      "midi": 42,
      "hit": false,
      "t": 226640.1600000084,
      "d": 9.12400000001071,
      "v": 70
    },
    {
      "midi": 36,
      "hit": false,
      "t": 226640.1600000084,
      "d": 9.12400000001071,
      "v": 84
    },
    {
      "midi": 79,
      "hit": false,
      "t": 226749.64800000325,
      "d": 401.4560000000056,
      "v": 120
    },
    {
      "midi": 29,
      "hit": false,
      "t": 226850.01200000147,
      "d": 209.8520000000135,
      "v": 110
    },
    {
      "midi": 81,
      "hit": false,
      "t": 226859.13600000058,
      "d": 209.8520000000135,
      "v": 60
    },
    {
      "midi": 79,
      "hit": false,
      "t": 226859.13600000326,
      "d": 401.4560000000056,
      "v": 120
    },
    {
      "midi": 42,
      "hit": false,
      "t": 226859.13600000844,
      "d": 9.12400000001071,
      "v": 70
    },
    {
      "midi": 38,
      "hit": false,
      "t": 226859.13600000844,
      "d": 9.12400000001071,
      "v": 84
    },
    {
      "midi": 31,
      "hit": false,
      "t": 227068.9880000015,
      "d": 209.8520000000135,
      "v": 110
    },
    {
      "midi": 88,
      "hit": false,
      "t": 227078.1120000006,
      "d": 209.8520000000135,
      "v": 60
    },
    {
      "midi": 79,
      "hit": false,
      "t": 227078.11200000328,
      "d": 401.4560000000056,
      "v": 120
    },
    {
      "midi": 42,
      "hit": false,
      "t": 227078.11200000846,
      "d": 9.12400000001071,
      "v": 70
    },
    {
      "midi": 79,
      "hit": false,
      "t": 227187.60000000327,
      "d": 401.4560000000056,
      "v": 120
    },
    {
      "midi": 29,
      "hit": false,
      "t": 227287.96400000152,
      "d": 209.8520000000135,
      "v": 110
    },
    {
      "midi": 79,
      "hit": false,
      "t": 227297.08800000063,
      "d": 209.8520000000135,
      "v": 60
    },
    {
      "midi": 41,
      "hit": false,
      "t": 227297.08800000136,
      "d": 9.12400000001071,
      "v": 42
    },
    {
      "midi": 79,
      "hit": false,
      "t": 227297.08800000328,
      "d": 401.4560000000056,
      "v": 120
    },
    {
      "midi": 42,
      "hit": false,
      "t": 227297.0880000085,
      "d": 9.12400000001071,
      "v": 70
    },
    {
      "midi": 41,
      "hit": false,
      "t": 227297.0880000085,
      "d": 9.12400000001071,
      "v": 84
    },
    {
      "midi": 28,
      "hit": false,
      "t": 227506.94000000154,
      "d": 866.7799999999988,
      "v": 110
    },
    {
      "midi": 81,
      "hit": false,
      "t": 227516.06400000065,
      "d": 209.8520000000135,
      "v": 60
    },
    {
      "midi": 79,
      "hit": false,
      "t": 227516.0640000033,
      "d": 401.4560000000056,
      "v": 120
    },
    {
      "midi": 42,
      "hit": false,
      "t": 227516.0640000085,
      "d": 9.12400000001071,
      "v": 70
    },
    {
      "midi": 36,
      "hit": false,
      "t": 227516.0640000085,
      "d": 9.12400000001071,
      "v": 84
    },
    {
      "midi": 79,
      "hit": false,
      "t": 227625.55200000328,
      "d": 401.4560000000056,
      "v": 120
    },
    {
      "midi": 71,
      "hit": false,
      "t": 227707.668,
      "d": 1751.80799999999,
      "v": 40
    },
    {
      "midi": 67,
      "hit": false,
      "t": 227707.668,
      "d": 1751.80799999999,
      "v": 50
    },
    {
      "midi": 64,
      "hit": false,
      "t": 227707.668,
      "d": 1751.80799999999,
      "v": 50
    },
    {
      "midi": 60,
      "hit": false,
      "t": 227707.668,
      "d": 1751.80799999999,
      "v": 50
    },
    {
      "midi": 88,
      "hit": false,
      "t": 227735.04000000068,
      "d": 209.8520000000135,
      "v": 60
    },
    {
      "midi": 79,
      "hit": false,
      "t": 227735.0400000033,
      "d": 401.4560000000056,
      "v": 120
    },
    {
      "midi": 42,
      "hit": false,
      "t": 227735.04000000854,
      "d": 9.12400000001071,
      "v": 70
    },
    {
      "midi": 79,
      "hit": false,
      "t": 227954.0160000007,
      "d": 209.8520000000135,
      "v": 60
    },
    {
      "midi": 77,
      "hit": false,
      "t": 227954.01600000332,
      "d": 182.48000000001048,
      "v": 120
    },
    {
      "midi": 77,
      "hit": false,
      "t": 228063.5040000033,
      "d": 182.48000000001048,
      "v": 120
    },
    {
      "midi": 81,
      "hit": false,
      "t": 228172.99200000073,
      "d": 209.8520000000135,
      "v": 60
    },
    {
      "midi": 77,
      "hit": false,
      "t": 228172.99200000332,
      "d": 182.48000000001048,
      "v": 120
    },
    {
      "midi": 76,
      "hit": false,
      "t": 228172.99200000335,
      "d": 401.4560000000056,
      "v": 120
    },
    {
      "midi": 42,
      "hit": false,
      "t": 228172.99200000855,
      "d": 9.12400000001071,
      "v": 70
    },
    {
      "midi": 76,
      "hit": false,
      "t": 228282.48000000333,
      "d": 401.4560000000056,
      "v": 120
    },
    {
      "midi": 28,
      "hit": false,
      "t": 228382.84400000155,
      "d": 209.8520000000135,
      "v": 110
    },
    {
      "midi": 88,
      "hit": false,
      "t": 228391.96800000075,
      "d": 209.8520000000135,
      "v": 60
    },
    {
      "midi": 76,
      "hit": false,
      "t": 228391.96800000334,
      "d": 401.4560000000056,
      "v": 120
    },
    {
      "midi": 42,
      "hit": false,
      "t": 228391.96800000858,
      "d": 9.12400000001071,
      "v": 70
    },
    {
      "midi": 36,
      "hit": false,
      "t": 228391.96800000858,
      "d": 9.12400000001071,
      "v": 84
    },
    {
      "midi": 28,
      "hit": false,
      "t": 228601.82000000158,
      "d": 209.8520000000135,
      "v": 110
    },
    {
      "midi": 79,
      "hit": false,
      "t": 228610.94400000077,
      "d": 209.8520000000135,
      "v": 60
    },
    {
      "midi": 42,
      "hit": false,
      "t": 228610.9440000086,
      "d": 9.12400000001071,
      "v": 70
    },
    {
      "midi": 38,
      "hit": false,
      "t": 228610.9440000086,
      "d": 9.12400000001071,
      "v": 84
    },
    {
      "midi": 26,
      "hit": false,
      "t": 228820.7960000016,
      "d": 209.8520000000135,
      "v": 110
    },
    {
      "midi": 81,
      "hit": false,
      "t": 228829.9200000008,
      "d": 209.8520000000135,
      "v": 60
    },
    {
      "midi": 72,
      "hit": false,
      "t": 228829.92000000336,
      "d": 182.48000000001048,
      "v": 120
    },
    {
      "midi": 42,
      "hit": false,
      "t": 228829.92000000863,
      "d": 9.12400000001071,
      "v": 70
    },
    {
      "midi": 72,
      "hit": false,
      "t": 228939.40800000334,
      "d": 182.48000000001048,
      "v": 120
    },
    {
      "midi": 28,
      "hit": false,
      "t": 229039.77200000163,
      "d": 209.8520000000135,
      "v": 110
    },
    {
      "midi": 88,
      "hit": false,
      "t": 229048.89600000082,
      "d": 209.8520000000135,
      "v": 60
    },
    {
      "midi": 41,
      "hit": false,
      "t": 229048.89600000138,
      "d": 9.12400000001071,
      "v": 42
    },
    {
      "midi": 72,
      "hit": false,
      "t": 229048.89600000335,
      "d": 182.48000000001048,
      "v": 120
    },
    {
      "midi": 72,
      "hit": false,
      "t": 229048.89600000338,
      "d": 182.48000000001048,
      "v": 120
    },
    {
      "midi": 42,
      "hit": false,
      "t": 229048.89600000865,
      "d": 9.12400000001071,
      "v": 70
    },
    {
      "midi": 41,
      "hit": false,
      "t": 229048.89600000865,
      "d": 9.12400000001071,
      "v": 84
    },
    {
      "midi": 72,
      "hit": false,
      "t": 229158.38400000337,
      "d": 182.48000000001048,
      "v": 120
    },
    {
      "midi": 29,
      "hit": false,
      "t": 229258.74800000165,
      "d": 866.7799999999988,
      "v": 110
    },
    {
      "midi": 79,
      "hit": false,
      "t": 229267.87200000085,
      "d": 209.8520000000135,
      "v": 60
    },
    {
      "midi": 72,
      "hit": false,
      "t": 229267.87200000338,
      "d": 182.48000000001048,
      "v": 120
    },
    {
      "midi": 79,
      "hit": false,
      "t": 229267.8720000034,
      "d": 620.4320000000007,
      "v": 120
    },
    {
      "midi": 42,
      "hit": false,
      "t": 229267.87200000868,
      "d": 9.12400000001071,
      "v": 70
    },
    {
      "midi": 36,
      "hit": false,
      "t": 229267.87200000868,
      "d": 9.12400000001071,
      "v": 84
    },
    {
      "midi": 79,
      "hit": false,
      "t": 229377.3600000034,
      "d": 620.4320000000007,
      "v": 120
    },
    {
      "midi": 69,
      "hit": false,
      "t": 229459.476,
      "d": 1751.80799999999,
      "v": 50
    },
    {
      "midi": 65,
      "hit": false,
      "t": 229459.476,
      "d": 1751.80799999999,
      "v": 50
    },
    {
      "midi": 60,
      "hit": false,
      "t": 229459.476,
      "d": 1751.80799999999,
      "v": 50
    },
    {
      "midi": 81,
      "hit": false,
      "t": 229486.84800000087,
      "d": 209.8520000000135,
      "v": 60
    },
    {
      "midi": 79,
      "hit": false,
      "t": 229486.8480000034,
      "d": 620.4320000000007,
      "v": 120
    },
    {
      "midi": 42,
      "hit": false,
      "t": 229486.8480000087,
      "d": 9.12400000001071,
      "v": 70
    },
    {
      "midi": 88,
      "hit": false,
      "t": 229705.8240000009,
      "d": 209.8520000000135,
      "v": 60
    },
    {
      "midi": 79,
      "hit": false,
      "t": 229924.80000000092,
      "d": 209.8520000000135,
      "v": 60
    },
    {
      "midi": 79,
      "hit": false,
      "t": 229924.80000000342,
      "d": 182.48000000001048,
      "v": 120
    },
    {
      "midi": 42,
      "hit": false,
      "t": 229924.80000000872,
      "d": 9.12400000001071,
      "v": 70
    },
    {
      "midi": 79,
      "hit": false,
      "t": 230034.2880000034,
      "d": 182.48000000001048,
      "v": 120
    },
    {
      "midi": 29,
      "hit": false,
      "t": 230134.65200000166,
      "d": 209.8520000000135,
      "v": 110
    },
    {
      "midi": 81,
      "hit": false,
      "t": 230143.77600000094,
      "d": 209.8520000000135,
      "v": 60
    },
    {
      "midi": 79,
      "hit": false,
      "t": 230143.77600000342,
      "d": 182.48000000001048,
      "v": 120
    },
    {
      "midi": 79,
      "hit": false,
      "t": 230143.77600000345,
      "d": 182.48000000001048,
      "v": 120
    },
    {
      "midi": 42,
      "hit": false,
      "t": 230143.77600000874,
      "d": 9.12400000001071,
      "v": 70
    },
    {
      "midi": 36,
      "hit": false,
      "t": 230143.77600000874,
      "d": 9.12400000001071,
      "v": 84
    },
    {
      "midi": 79,
      "hit": false,
      "t": 230253.26400000343,
      "d": 182.48000000001048,
      "v": 120
    },
    {
      "midi": 29,
      "hit": false,
      "t": 230353.62800000168,
      "d": 866.7799999999988,
      "v": 110
    },
    {
      "midi": 88,
      "hit": false,
      "t": 230362.75200000097,
      "d": 209.8520000000135,
      "v": 60
    },
    {
      "midi": 79,
      "hit": false,
      "t": 230362.75200000344,
      "d": 182.48000000001048,
      "v": 120
    },
    {
      "midi": 79,
      "hit": false,
      "t": 230362.75200000347,
      "d": 182.48000000001048,
      "v": 120
    },
    {
      "midi": 42,
      "hit": false,
      "t": 230362.75200000877,
      "d": 9.12400000001071,
      "v": 70
    },
    {
      "midi": 38,
      "hit": false,
      "t": 230362.75200000877,
      "d": 9.12400000001071,
      "v": 84
    },
    {
      "midi": 79,
      "hit": false,
      "t": 230472.24000000345,
      "d": 182.48000000001048,
      "v": 120
    },
    {
      "midi": 79,
      "hit": false,
      "t": 230581.728000001,
      "d": 209.8520000000135,
      "v": 60
    },
    {
      "midi": 79,
      "hit": false,
      "t": 230581.72800000347,
      "d": 182.48000000001048,
      "v": 120
    },
    {
      "midi": 79,
      "hit": false,
      "t": 230581.7280000035,
      "d": 401.4560000000056,
      "v": 120
    },
    {
      "midi": 42,
      "hit": false,
      "t": 230581.7280000088,
      "d": 9.12400000001071,
      "v": 70
    },
    {
      "midi": 79,
      "hit": false,
      "t": 230691.21600000348,
      "d": 401.4560000000056,
      "v": 120
    },
    {
      "midi": 81,
      "hit": false,
      "t": 230800.70400000102,
      "d": 209.8520000000135,
      "v": 60
    },
    {
      "midi": 41,
      "hit": false,
      "t": 230800.7040000014,
      "d": 9.12400000001071,
      "v": 42
    },
    {
      "midi": 79,
      "hit": false,
      "t": 230800.7040000035,
      "d": 401.4560000000056,
      "v": 120
    },
    {
      "midi": 42,
      "hit": false,
      "t": 230800.70400000882,
      "d": 9.12400000001071,
      "v": 70
    },
    {
      "midi": 41,
      "hit": false,
      "t": 230800.70400000882,
      "d": 9.12400000001071,
      "v": 84
    },
    {
      "midi": 88,
      "hit": false,
      "t": 231019.68000000104,
      "d": 209.8520000000135,
      "v": 60
    },
    {
      "midi": 80,
      "hit": false,
      "t": 231019.68000000351,
      "d": 401.4560000000056,
      "v": 120
    },
    {
      "midi": 42,
      "hit": false,
      "t": 231019.68000000884,
      "d": 9.12400000001071,
      "v": 70
    },
    {
      "midi": 80,
      "hit": false,
      "t": 231129.1680000035,
      "d": 401.4560000000056,
      "v": 120
    },
    {
      "midi": 68,
      "hit": false,
      "t": 231211.28399999999,
      "d": 1751.80799999999,
      "v": 50
    },
    {
      "midi": 64,
      "hit": false,
      "t": 231211.28399999999,
      "d": 1751.80799999999,
      "v": 50
    },
    {
      "midi": 59,
      "hit": false,
      "t": 231211.28399999999,
      "d": 1751.80799999999,
      "v": 50
    },
    {
      "midi": 28,
      "hit": false,
      "t": 231229.5320000017,
      "d": 647.8040000000037,
      "v": 110
    },
    {
      "midi": 80,
      "hit": false,
      "t": 231238.65600000106,
      "d": 209.8520000000135,
      "v": 60
    },
    {
      "midi": 80,
      "hit": false,
      "t": 231238.6560000035,
      "d": 401.4560000000056,
      "v": 120
    },
    {
      "midi": 42,
      "hit": false,
      "t": 231238.65600000886,
      "d": 9.12400000001071,
      "v": 70
    },
    {
      "midi": 36,
      "hit": false,
      "t": 231238.65600000886,
      "d": 9.12400000001071,
      "v": 84
    },
    {
      "midi": 83,
      "hit": false,
      "t": 231457.6320000011,
      "d": 209.8520000000135,
      "v": 60
    },
    {
      "midi": 80,
      "hit": false,
      "t": 231457.63200000353,
      "d": 182.48000000001048,
      "v": 120
    },
    {
      "midi": 80,
      "hit": false,
      "t": 231567.12000000352,
      "d": 182.48000000001048,
      "v": 120
    },
    {
      "midi": 88,
      "hit": false,
      "t": 231676.6080000011,
      "d": 209.8520000000135,
      "v": 60
    },
    {
      "midi": 80,
      "hit": false,
      "t": 231676.60800000353,
      "d": 182.48000000001048,
      "v": 120
    },
    {
      "midi": 80,
      "hit": false,
      "t": 231676.60800000356,
      "d": 401.4560000000056,
      "v": 120
    },
    {
      "midi": 42,
      "hit": false,
      "t": 231676.60800000888,
      "d": 9.12400000001071,
      "v": 70
    },
    {
      "midi": 80,
      "hit": false,
      "t": 231786.09600000354,
      "d": 401.4560000000056,
      "v": 120
    },
    {
      "midi": 28,
      "hit": false,
      "t": 231886.4600000017,
      "d": 209.8520000000135,
      "v": 110
    },
    {
      "midi": 80,
      "hit": false,
      "t": 231895.58400000114,
      "d": 209.8520000000135,
      "v": 60
    },
    {
      "midi": 80,
      "hit": false,
      "t": 231895.58400000355,
      "d": 401.4560000000056,
      "v": 120
    },
    {
      "midi": 42,
      "hit": false,
      "t": 231895.5840000089,
      "d": 9.12400000001071,
      "v": 70
    },
    {
      "midi": 36,
      "hit": false,
      "t": 231895.5840000089,
      "d": 9.12400000001071,
      "v": 84
    },
    {
      "midi": 28,
      "hit": false,
      "t": 232105.43600000173,
      "d": 866.7799999999988,
      "v": 110
    },
    {
      "midi": 83,
      "hit": false,
      "t": 232114.56000000116,
      "d": 209.8520000000135,
      "v": 60
    },
    {
      "midi": 42,
      "hit": false,
      "t": 232114.56000000893,
      "d": 9.12400000001071,
      "v": 70
    },
    {
      "midi": 38,
      "hit": false,
      "t": 232114.56000000893,
      "d": 9.12400000001071,
      "v": 84
    },
    {
      "midi": 88,
      "hit": false,
      "t": 232333.5360000012,
      "d": 209.8520000000135,
      "v": 60
    },
    {
      "midi": 42,
      "hit": false,
      "t": 232333.53600000896,
      "d": 9.12400000001071,
      "v": 70
    },
    {
      "midi": 80,
      "hit": false,
      "t": 232552.5120000012,
      "d": 209.8520000000135,
      "v": 60
    },
    {
      "midi": 41,
      "hit": false,
      "t": 232552.5120000014,
      "d": 9.12400000001071,
      "v": 42
    },
    {
      "midi": 42,
      "hit": false,
      "t": 232552.51200000898,
      "d": 9.12400000001071,
      "v": 70
    },
    {
      "midi": 41,
      "hit": false,
      "t": 232552.51200000898,
      "d": 9.12400000001071,
      "v": 84
    },
    {
      "midi": 83,
      "hit": false,
      "t": 232771.48800000123,
      "d": 209.8520000000135,
      "v": 60
    },
    {
      "midi": 76,
      "hit": false,
      "t": 232771.48800000356,
      "d": 182.48000000001048,
      "v": 120
    },
    {
      "midi": 42,
      "hit": false,
      "t": 232771.488000009,
      "d": 9.12400000001071,
      "v": 70
    },
    {
      "midi": 76,
      "hit": false,
      "t": 232880.97600000355,
      "d": 182.48000000001048,
      "v": 120
    },
    {
      "midi": 69,
      "hit": false,
      "t": 232963.09199999998,
      "d": 1751.80799999999,
      "v": 50
    },
    {
      "midi": 64,
      "hit": false,
      "t": 232963.09199999998,
      "d": 1751.80799999999,
      "v": 50
    },
    {
      "midi": 60,
      "hit": false,
      "t": 232963.09199999998,
      "d": 1751.80799999999,
      "v": 50
    },
    {
      "midi": 33,
      "hit": false,
      "t": 232981.34000000174,
      "d": 647.8040000000037,
      "v": 110
    },
    {
      "midi": 81,
      "hit": false,
      "t": 232990.46400000126,
      "d": 209.8520000000135,
      "v": 60
    },
    {
      "midi": 76,
      "hit": false,
      "t": 232990.46400000356,
      "d": 182.48000000001048,
      "v": 120
    },
    {
      "midi": 81,
      "hit": false,
      "t": 232990.4640000036,
      "d": 401.4560000000056,
      "v": 120
    },
    {
      "midi": 42,
      "hit": false,
      "t": 232990.46400000903,
      "d": 9.12400000001071,
      "v": 70
    },
    {
      "midi": 36,
      "hit": false,
      "t": 232990.46400000903,
      "d": 9.12400000001071,
      "v": 84
    },
    {
      "midi": 81,
      "hit": false,
      "t": 233099.95200000357,
      "d": 401.4560000000056,
      "v": 120
    },
    {
      "midi": 84,
      "hit": false,
      "t": 233209.44000000128,
      "d": 209.8520000000135,
      "v": 60
    },
    {
      "midi": 81,
      "hit": false,
      "t": 233209.44000000358,
      "d": 401.4560000000056,
      "v": 120
    },
    {
      "midi": 88,
      "hit": false,
      "t": 233428.4160000013,
      "d": 209.8520000000135,
      "v": 60
    },
    {
      "midi": 79,
      "hit": false,
      "t": 233428.4160000036,
      "d": 182.48000000001048,
      "v": 120
    },
    {
      "midi": 42,
      "hit": false,
      "t": 233428.41600000905,
      "d": 9.12400000001071,
      "v": 70
    },
    {
      "midi": 79,
      "hit": false,
      "t": 233537.9040000036,
      "d": 182.48000000001048,
      "v": 120
    },
    {
      "midi": 33,
      "hit": false,
      "t": 233638.26800000176,
      "d": 209.8520000000135,
      "v": 110
    },
    {
      "midi": 81,
      "hit": false,
      "t": 233647.39200000133,
      "d": 209.8520000000135,
      "v": 60
    },
    {
      "midi": 79,
      "hit": false,
      "t": 233647.3920000036,
      "d": 182.48000000001048,
      "v": 120
    },
    {
      "midi": 76,
      "hit": false,
      "t": 233647.39200000363,
      "d": 401.4560000000056,
      "v": 120
    },
    {
      "midi": 42,
      "hit": false,
      "t": 233647.39200000907,
      "d": 9.12400000001071,
      "v": 70
    },
    {
      "midi": 36,
      "hit": false,
      "t": 233647.39200000907,
      "d": 9.12400000001071,
      "v": 84
    },
    {
      "midi": 76,
      "hit": false,
      "t": 233756.8800000036,
      "d": 401.4560000000056,
      "v": 120
    },
    {
      "midi": 33,
      "hit": false,
      "t": 233857.24400000178,
      "d": 866.7799999999988,
      "v": 110
    },
    {
      "midi": 84,
      "hit": false,
      "t": 233866.36800000136,
      "d": 209.8520000000135,
      "v": 60
    },
    {
      "midi": 76,
      "hit": false,
      "t": 233866.36800000363,
      "d": 401.4560000000056,
      "v": 120
    },
    {
      "midi": 42,
      "hit": false,
      "t": 233866.3680000091,
      "d": 9.12400000001071,
      "v": 70
    },
    {
      "midi": 38,
      "hit": false,
      "t": 233866.3680000091,
      "d": 9.12400000001071,
      "v": 84
    },
    {
      "midi": 88,
      "hit": false,
      "t": 234085.34400000138,
      "d": 209.8520000000135,
      "v": 60
    },
    {
      "midi": 74,
      "hit": false,
      "t": 234085.34400000365,
      "d": 401.4560000000056,
      "v": 120
    },
    {
      "midi": 42,
      "hit": false,
      "t": 234085.34400000912,
      "d": 9.12400000001071,
      "v": 70
    },
    {
      "midi": 74,
      "hit": false,
      "t": 234194.83200000363,
      "d": 401.4560000000056,
      "v": 120
    },
    {
      "midi": 81,
      "hit": false,
      "t": 234304.3200000014,
      "d": 209.8520000000135,
      "v": 60
    },
    {
      "midi": 41,
      "hit": false,
      "t": 234304.32000000143,
      "d": 9.12400000001071,
      "v": 42
    },
    {
      "midi": 74,
      "hit": false,
      "t": 234304.32000000364,
      "d": 401.4560000000056,
      "v": 120
    },
    {
      "midi": 42,
      "hit": false,
      "t": 234304.32000000915,
      "d": 9.12400000001071,
      "v": 70
    },
    {
      "midi": 41,
      "hit": false,
      "t": 234304.32000000915,
      "d": 9.12400000001071,
      "v": 84
    },
    {
      "midi": 84,
      "hit": false,
      "t": 234523.29600000143,
      "d": 209.8520000000135,
      "v": 60
    },
    {
      "midi": 42,
      "hit": false,
      "t": 234523.29600000917,
      "d": 9.12400000001071,
      "v": 70
    },
    {
      "midi": 66,
      "hit": false,
      "t": 234714.89999999997,
      "d": 1751.80799999999,
      "v": 50
    },
    {
      "midi": 62,
      "hit": false,
      "t": 234714.89999999997,
      "d": 1751.80799999999,
      "v": 50
    },
    {
      "midi": 57,
      "hit": false,
      "t": 234714.89999999997,
      "d": 1751.80799999999,
      "v": 50
    },
    {
      "midi": 38,
      "hit": false,
      "t": 234733.1480000018,
      "d": 647.8040000000037,
      "v": 110
    },
    {
      "midi": 78,
      "hit": false,
      "t": 234742.27200000145,
      "d": 209.8520000000135,
      "v": 60
    },
    {
      "midi": 74,
      "hit": false,
      "t": 234742.27200000366,
      "d": 182.48000000001048,
      "v": 120
    },
    {
      "midi": 42,
      "hit": false,
      "t": 234742.2720000092,
      "d": 9.12400000001071,
      "v": 70
    },
    {
      "midi": 36,
      "hit": false,
      "t": 234742.2720000092,
      "d": 9.12400000001071,
      "v": 84
    },
    {
      "midi": 74,
      "hit": false,
      "t": 234851.76000000365,
      "d": 182.48000000001048,
      "v": 120
    },
    {
      "midi": 81,
      "hit": false,
      "t": 234961.24800000148,
      "d": 209.8520000000135,
      "v": 60
    },
    {
      "midi": 74,
      "hit": false,
      "t": 234961.24800000366,
      "d": 182.48000000001048,
      "v": 120
    },
    {
      "midi": 72,
      "hit": false,
      "t": 234961.2480000037,
      "d": 182.48000000001048,
      "v": 120
    },
    {
      "midi": 72,
      "hit": false,
      "t": 235070.73600000367,
      "d": 182.48000000001048,
      "v": 120
    },
    {
      "midi": 86,
      "hit": false,
      "t": 235180.2240000015,
      "d": 209.8520000000135,
      "v": 60
    },
    {
      "midi": 72,
      "hit": false,
      "t": 235180.22400000368,
      "d": 182.48000000001048,
      "v": 120
    },
    {
      "midi": 76,
      "hit": false,
      "t": 235180.2240000037,
      "d": 182.48000000001048,
      "v": 120
    },
    {
      "midi": 42,
      "hit": false,
      "t": 235180.2240000092,
      "d": 9.12400000001071,
      "v": 70
    },
    {
      "midi": 76,
      "hit": false,
      "t": 235289.7120000037,
      "d": 182.48000000001048,
      "v": 120
    },
    {
      "midi": 38,
      "hit": false,
      "t": 235390.0760000018,
      "d": 209.8520000000135,
      "v": 110
    },
    {
      "midi": 78,
      "hit": false,
      "t": 235399.20000000153,
      "d": 209.8520000000135,
      "v": 60
    },
    {
      "midi": 76,
      "hit": false,
      "t": 235399.2000000037,
      "d": 182.48000000001048,
      "v": 120
    },
    {
      "midi": 74,
      "hit": false,
      "t": 235399.20000000374,
      "d": 401.4560000000056,
      "v": 120
    },
    {
      "midi": 42,
      "hit": false,
      "t": 235399.20000000924,
      "d": 9.12400000001071,
      "v": 70
    },
    {
      "midi": 36,
      "hit": false,
      "t": 235399.20000000924,
      "d": 9.12400000001071,
      "v": 84
    },
    {
      "midi": 74,
      "hit": false,
      "t": 235508.68800000372,
      "d": 401.4560000000056,
      "v": 120
    },
    {
      "midi": 38,
      "hit": false,
      "t": 235609.05200000183,
      "d": 209.8520000000135,
      "v": 110
    },
    {
      "midi": 81,
      "hit": false,
      "t": 235618.17600000155,
      "d": 209.8520000000135,
      "v": 60
    },
    {
      "midi": 74,
      "hit": false,
      "t": 235618.17600000373,
      "d": 401.4560000000056,
      "v": 120
    },
    {
      "midi": 42,
      "hit": false,
      "t": 235618.17600000926,
      "d": 9.12400000001071,
      "v": 70
    },
    {
      "midi": 38,
      "hit": false,
      "t": 235618.17600000926,
      "d": 9.12400000001071,
      "v": 84
    },
    {
      "midi": 33,
      "hit": false,
      "t": 235828.02800000185,
      "d": 428.8280000000086,
      "v": 110
    },
    {
      "midi": 86,
      "hit": false,
      "t": 235837.15200000157,
      "d": 209.8520000000135,
      "v": 60
    },
    {
      "midi": 72,
      "hit": false,
      "t": 235837.15200000376,
      "d": 401.4560000000056,
      "v": 120
    },
    {
      "midi": 42,
      "hit": false,
      "t": 235837.1520000093,
      "d": 9.12400000001071,
      "v": 70
    },
    {
      "midi": 72,
      "hit": false,
      "t": 235946.64000000374,
      "d": 401.4560000000056,
      "v": 120
    },
    {
      "midi": 41,
      "hit": false,
      "t": 236056.12800000145,
      "d": 9.12400000001071,
      "v": 42
    },
    {
      "midi": 78,
      "hit": false,
      "t": 236056.1280000016,
      "d": 209.8520000000135,
      "v": 60
    },
    {
      "midi": 72,
      "hit": false,
      "t": 236056.12800000375,
      "d": 401.4560000000056,
      "v": 120
    },
    {
      "midi": 42,
      "hit": false,
      "t": 236056.1280000093,
      "d": 9.12400000001071,
      "v": 70
    },
    {
      "midi": 41,
      "hit": false,
      "t": 236056.1280000093,
      "d": 9.12400000001071,
      "v": 84
    },
    {
      "midi": 38,
      "hit": false,
      "t": 236265.98000000187,
      "d": 866.7799999999988,
      "v": 110
    },
    {
      "midi": 81,
      "hit": false,
      "t": 236275.10400000162,
      "d": 209.8520000000135,
      "v": 60
    },
    {
      "midi": 74,
      "hit": false,
      "t": 236275.10400000378,
      "d": 401.4560000000056,
      "v": 120
    },
    {
      "midi": 42,
      "hit": false,
      "t": 236275.10400000933,
      "d": 9.12400000001071,
      "v": 70
    },
    {
      "midi": 36,
      "hit": false,
      "t": 236275.10400000933,
      "d": 9.12400000001071,
      "v": 84
    },
    {
      "midi": 74,
      "hit": false,
      "t": 236384.59200000376,
      "d": 401.4560000000056,
      "v": 120
    },
    {
      "midi": 62,
      "hit": false,
      "t": 236466.70799999996,
      "d": 1751.80799999999,
      "v": 50
    },
    {
      "midi": 57,
      "hit": false,
      "t": 236466.70799999996,
      "d": 1751.80799999999,
      "v": 50
    },
    {
      "midi": 53,
      "hit": false,
      "t": 236466.70799999996,
      "d": 1751.80799999999,
      "v": 50
    },
    {
      "midi": 77,
      "hit": false,
      "t": 236494.08000000165,
      "d": 209.8520000000135,
      "v": 60
    },
    {
      "midi": 74,
      "hit": false,
      "t": 236494.08000000377,
      "d": 401.4560000000056,
      "v": 120
    },
    {
      "midi": 42,
      "hit": false,
      "t": 236494.08000000936,
      "d": 9.12400000001071,
      "v": 70
    },
    {
      "midi": 81,
      "hit": false,
      "t": 236713.05600000167,
      "d": 209.8520000000135,
      "v": 60
    },
    {
      "midi": 86,
      "hit": false,
      "t": 236932.0320000017,
      "d": 209.8520000000135,
      "v": 60
    },
    {
      "midi": 42,
      "hit": false,
      "t": 236932.03200000938,
      "d": 9.12400000001071,
      "v": 70
    },
    {
      "midi": 38,
      "hit": false,
      "t": 237141.88400000188,
      "d": 209.8520000000135,
      "v": 110
    },
    {
      "midi": 77,
      "hit": false,
      "t": 237151.00800000172,
      "d": 209.8520000000135,
      "v": 60
    },
    {
      "midi": 42,
      "hit": false,
      "t": 237151.0080000094,
      "d": 9.12400000001071,
      "v": 70
    },
    {
      "midi": 36,
      "hit": false,
      "t": 237151.0080000094,
      "d": 9.12400000001071,
      "v": 84
    },
    {
      "midi": 38,
      "hit": false,
      "t": 237360.8600000019,
      "d": 866.7800000001735,
      "v": 110
    },
    {
      "midi": 81,
      "hit": false,
      "t": 237369.98400000174,
      "d": 209.8520000000135,
      "v": 60
    },
    {
      "midi": 42,
      "hit": false,
      "t": 237369.98400000943,
      "d": 9.12400000001071,
      "v": 70
    },
    {
      "midi": 38,
      "hit": false,
      "t": 237369.98400000943,
      "d": 9.12400000001071,
      "v": 84
    },
    {
      "midi": 86,
      "hit": false,
      "t": 237588.96000000177,
      "d": 209.8520000000135,
      "v": 60
    },
    {
      "midi": 42,
      "hit": false,
      "t": 237588.96000000945,
      "d": 9.12400000001071,
      "v": 70
    },
    {
      "midi": 77,
      "hit": false,
      "t": 237807.9360000018,
      "d": 209.8520000000135,
      "v": 60
    },
    {
      "midi": 74,
      "hit": false,
      "t": 237807.93600000377,
      "d": 401.4560000000056,
      "v": 120
    },
    {
      "midi": 42,
      "hit": false,
      "t": 237807.93600000947,
      "d": 9.12400000001071,
      "v": 70
    },
    {
      "midi": 38,
      "hit": false,
      "t": 237807.93600000947,
      "d": 9.12400000001071,
      "v": 84
    },
    {
      "midi": 74,
      "hit": false,
      "t": 237917.42400000375,
      "d": 401.4560000000056,
      "v": 120
    },
    {
      "midi": 81,
      "hit": false,
      "t": 238026.91200000182,
      "d": 209.8520000000135,
      "v": 60
    },
    {
      "midi": 74,
      "hit": false,
      "t": 238026.91200000377,
      "d": 401.4560000000056,
      "v": 120
    },
    {
      "midi": 42,
      "hit": false,
      "t": 238026.9120000095,
      "d": 9.12400000001071,
      "v": 70
    },
    {
      "midi": 64,
      "hit": false,
      "t": 238218.51599999995,
      "d": 1751.80799999999,
      "v": 50
    },
    {
      "midi": 59,
      "hit": false,
      "t": 238218.51599999995,
      "d": 1751.80799999999,
      "v": 50
    },
    {
      "midi": 56,
      "hit": false,
      "t": 238218.51599999995,
      "d": 1751.80799999999,
      "v": 50
    },
    {
      "midi": 40,
      "hit": false,
      "t": 238227.64000000208,
      "d": 647.8040000000037,
      "v": 110
    },
    {
      "midi": 80,
      "hit": false,
      "t": 238245.88800000184,
      "d": 866.7799999999988,
      "v": 60
    },
    {
      "midi": 83,
      "hit": false,
      "t": 238245.88800000184,
      "d": 866.7799999999988,
      "v": 60
    },
    {
      "midi": 76,
      "hit": false,
      "t": 238245.88800000184,
      "d": 866.7799999999988,
      "v": 60
    },
    {
      "midi": 74,
      "hit": false,
      "t": 238245.8880000038,
      "d": 182.48000000001048,
      "v": 120
    },
    {
      "midi": 42,
      "hit": false,
      "t": 238245.88800000952,
      "d": 9.12400000001071,
      "v": 70
    },
    {
      "midi": 36,
      "hit": false,
      "t": 238245.88800000952,
      "d": 9.12400000001071,
      "v": 84
    },
    {
      "midi": 74,
      "hit": false,
      "t": 238355.37600000377,
      "d": 182.48000000001048,
      "v": 120
    },
    {
      "midi": 74,
      "hit": false,
      "t": 238464.86400000378,
      "d": 182.48000000001048,
      "v": 120
    },
    {
      "midi": 74,
      "hit": false,
      "t": 238464.8640000038,
      "d": 182.48000000001048,
      "v": 120
    },
    {
      "midi": 74,
      "hit": false,
      "t": 238574.3520000038,
      "d": 182.48000000001048,
      "v": 120
    },
    {
      "midi": 74,
      "hit": false,
      "t": 238683.8400000038,
      "d": 182.48000000001048,
      "v": 120
    },
    {
      "midi": 74,
      "hit": false,
      "t": 238683.84000000384,
      "d": 182.48000000001048,
      "v": 120
    },
    {
      "midi": 42,
      "hit": false,
      "t": 238683.84000000954,
      "d": 9.12400000001071,
      "v": 70
    },
    {
      "midi": 74,
      "hit": false,
      "t": 238793.32800000382,
      "d": 182.48000000001048,
      "v": 120
    },
    {
      "midi": 40,
      "hit": false,
      "t": 238884.5680000021,
      "d": 209.8520000000135,
      "v": 110
    },
    {
      "midi": 74,
      "hit": false,
      "t": 238902.81600000383,
      "d": 182.48000000001048,
      "v": 120
    },
    {
      "midi": 74,
      "hit": false,
      "t": 238902.81600000386,
      "d": 401.4560000000056,
      "v": 120
    },
    {
      "midi": 42,
      "hit": false,
      "t": 238902.81600000957,
      "d": 9.12400000001071,
      "v": 70
    },
    {
      "midi": 36,
      "hit": false,
      "t": 238902.81600000957,
      "d": 9.12400000001071,
      "v": 84
    },
    {
      "midi": 74,
      "hit": false,
      "t": 239012.30400000385,
      "d": 401.4560000000056,
      "v": 120
    },
    {
      "midi": 40,
      "hit": false,
      "t": 239103.54400000212,
      "d": 866.7799999999988,
      "v": 110
    },
    {
      "midi": 74,
      "hit": false,
      "t": 239121.79200000386,
      "d": 401.4560000000056,
      "v": 120
    },
    {
      "midi": 42,
      "hit": false,
      "t": 239121.7920000096,
      "d": 9.12400000001071,
      "v": 70
    },
    {
      "midi": 38,
      "hit": false,
      "t": 239121.7920000096,
      "d": 9.12400000001071,
      "v": 84
    },
    {
      "midi": 74,
      "hit": false,
      "t": 239340.76800000388,
      "d": 182.48000000001048,
      "v": 120
    },
    {
      "midi": 42,
      "hit": false,
      "t": 239340.76800000962,
      "d": 9.12400000001071,
      "v": 70
    },
    {
      "midi": 74,
      "hit": false,
      "t": 239450.25600000386,
      "d": 182.48000000001048,
      "v": 120
    },
    {
      "midi": 41,
      "hit": false,
      "t": 239559.74400000146,
      "d": 9.12400000001071,
      "v": 42
    },
    {
      "midi": 74,
      "hit": false,
      "t": 239559.74400000388,
      "d": 182.48000000001048,
      "v": 120
    },
    {
      "midi": 74,
      "hit": false,
      "t": 239559.7440000039,
      "d": 182.48000000001048,
      "v": 120
    },
    {
      "midi": 42,
      "hit": false,
      "t": 239559.74400000964,
      "d": 9.12400000001071,
      "v": 70
    },
    {
      "midi": 41,
      "hit": false,
      "t": 239559.74400000964,
      "d": 9.12400000001071,
      "v": 84
    },
    {
      "midi": 74,
      "hit": false,
      "t": 239669.2320000039,
      "d": 182.48000000001048,
      "v": 120
    },
    {
      "midi": 74,
      "hit": false,
      "t": 239778.7200000039,
      "d": 182.48000000001048,
      "v": 120
    },
    {
      "midi": 74,
      "hit": false,
      "t": 239778.72000000393,
      "d": 182.48000000001048,
      "v": 120
    },
    {
      "midi": 42,
      "hit": false,
      "t": 239778.72000000966,
      "d": 9.12400000001071,
      "v": 70
    },
    {
      "midi": 74,
      "hit": false,
      "t": 239888.2080000039,
      "d": 182.48000000001048,
      "v": 120
    },
    {
      "midi": 59,
      "hit": false,
      "t": 239970.32399999994,
      "d": 1094.8800000000047,
      "v": 50
    },
    {
      "midi": 56,
      "hit": false,
      "t": 239970.32399999994,
      "d": 1094.8800000000047,
      "v": 50
    },
    {
      "midi": 52,
      "hit": false,
      "t": 239970.32399999994,
      "d": 1094.8800000000047,
      "v": 50
    },
    {
      "midi": 32,
      "hit": false,
      "t": 239979.44800000213,
      "d": 647.8040000000037,
      "v": 110
    },
    {
      "midi": 68,
      "hit": false,
      "t": 239997.69600000122,
      "d": 620.4320000000007,
      "v": 60
    },
    {
      "midi": 62,
      "hit": false,
      "t": 239997.69600000122,
      "d": 620.4320000000007,
      "v": 60
    },
    {
      "midi": 59,
      "hit": false,
      "t": 239997.69600000122,
      "d": 620.4320000000007,
      "v": 60
    },
    {
      "midi": 71,
      "hit": false,
      "t": 239997.69600000183,
      "d": 647.8040000000037,
      "v": 60
    },
    {
      "midi": 80,
      "hit": false,
      "t": 239997.69600000183,
      "d": 647.8040000000037,
      "v": 60
    },
    {
      "midi": 76,
      "hit": false,
      "t": 239997.69600000183,
      "d": 647.8040000000037,
      "v": 60
    },
    {
      "midi": 74,
      "hit": false,
      "t": 239997.69600000393,
      "d": 182.48000000001048,
      "v": 120
    },
    {
      "midi": 74,
      "hit": false,
      "t": 239997.69600000395,
      "d": 182.48000000001048,
      "v": 120
    },
    {
      "midi": 49,
      "hit": false,
      "t": 239997.6960000097,
      "d": 9.12400000001071,
      "v": 84
    },
    {
      "midi": 36,
      "hit": false,
      "t": 239997.6960000097,
      "d": 9.12400000001071,
      "v": 84
    },
    {
      "midi": 74,
      "hit": false,
      "t": 240107.18400000394,
      "d": 182.48000000001048,
      "v": 120
    },
    {
      "midi": 74,
      "hit": false,
      "t": 240216.67200000395,
      "d": 182.48000000001048,
      "v": 120
    },
    {
      "midi": 76,
      "hit": false,
      "t": 240216.67200000398,
      "d": 182.48000000001048,
      "v": 120
    },
    {
      "midi": 76,
      "hit": false,
      "t": 240326.16000000396,
      "d": 182.48000000001048,
      "v": 120
    },
    {
      "midi": 76,
      "hit": false,
      "t": 240435.64800000397,
      "d": 182.48000000001048,
      "v": 120
    },
    {
      "midi": 77,
      "hit": false,
      "t": 240435.648000004,
      "d": 182.48000000001048,
      "v": 120
    },
    {
      "midi": 42,
      "hit": false,
      "t": 240435.6480000097,
      "d": 9.12400000001071,
      "v": 70
    },
    {
      "midi": 38,
      "hit": false,
      "t": 240435.6480000097,
      "d": 9.12400000001071,
      "v": 84
    },
    {
      "midi": 77,
      "hit": false,
      "t": 240545.136000004,
      "d": 182.48000000001048,
      "v": 120
    },
    {
      "midi": 35,
      "hit": false,
      "t": 240636.37600000214,
      "d": 647.8040000000037,
      "v": 110
    },
    {
      "midi": 68,
      "hit": false,
      "t": 240654.62400000123,
      "d": 620.4320000000007,
      "v": 60
    },
    {
      "midi": 62,
      "hit": false,
      "t": 240654.62400000123,
      "d": 620.4320000000007,
      "v": 60
    },
    {
      "midi": 59,
      "hit": false,
      "t": 240654.62400000123,
      "d": 620.4320000000007,
      "v": 60
    },
    {
      "midi": 76,
      "hit": false,
      "t": 240654.62400000184,
      "d": 647.8040000000037,
      "v": 60
    },
    {
      "midi": 80,
      "hit": false,
      "t": 240654.62400000184,
      "d": 647.8040000000037,
      "v": 60
    },
    {
      "midi": 83,
      "hit": false,
      "t": 240654.62400000184,
      "d": 647.8040000000037,
      "v": 60
    },
    {
      "midi": 77,
      "hit": false,
      "t": 240654.624000004,
      "d": 182.48000000001048,
      "v": 120
    },
    {
      "midi": 79,
      "hit": false,
      "t": 240654.62400000403,
      "d": 401.4560000000056,
      "v": 120
    },
    {
      "midi": 49,
      "hit": false,
      "t": 240654.62400000973,
      "d": 9.12400000001071,
      "v": 84
    },
    {
      "midi": 36,
      "hit": false,
      "t": 240654.62400000973,
      "d": 9.12400000001071,
      "v": 84
    },
    {
      "midi": 79,
      "hit": false,
      "t": 240764.112000004,
      "d": 401.4560000000056,
      "v": 120
    },
    {
      "midi": 79,
      "hit": false,
      "t": 240873.60000000402,
      "d": 401.4560000000056,
      "v": 120
    },
    {
      "midi": 42,
      "hit": false,
      "t": 240873.60000000976,
      "d": 9.12400000001071,
      "v": 70
    },
    {
      "midi": 41,
      "hit": false,
      "t": 241092.57600000149,
      "d": 9.12400000001071,
      "v": 42
    },
    {
      "midi": 77,
      "hit": false,
      "t": 241092.57600000405,
      "d": 182.48000000001048,
      "v": 120
    },
    {
      "midi": 42,
      "hit": false,
      "t": 241092.57600000978,
      "d": 9.12400000001071,
      "v": 70
    },
    {
      "midi": 41,
      "hit": false,
      "t": 241092.57600000978,
      "d": 9.12400000001071,
      "v": 84
    },
    {
      "midi": 77,
      "hit": false,
      "t": 241202.06400000403,
      "d": 182.48000000001048,
      "v": 120
    },
    {
      "midi": 40,
      "hit": false,
      "t": 241293.30400000216,
      "d": 647.8040000000037,
      "v": 110
    },
    {
      "midi": 59,
      "hit": false,
      "t": 241311.55200000125,
      "d": 2180.636000000086,
      "v": 100
    },
    {
      "midi": 62,
      "hit": false,
      "t": 241311.55200000125,
      "d": 2180.636000000086,
      "v": 100
    },
    {
      "midi": 68,
      "hit": false,
      "t": 241311.55200000125,
      "d": 2180.636000000086,
      "v": 100
    },
    {
      "midi": 48,
      "hit": false,
      "t": 241311.5520000015,
      "d": 9.12400000001071,
      "v": 42
    },
    {
      "midi": 80,
      "hit": false,
      "t": 241311.55200000186,
      "d": 428.8280000000086,
      "v": 60
    },
    {
      "midi": 83,
      "hit": false,
      "t": 241311.55200000186,
      "d": 428.8280000000086,
      "v": 60
    },
    {
      "midi": 86,
      "hit": false,
      "t": 241311.55200000186,
      "d": 428.8280000000086,
      "v": 60
    },
    {
      "midi": 77,
      "hit": false,
      "t": 241311.55200000404,
      "d": 182.48000000001048,
      "v": 120
    },
    {
      "midi": 76,
      "hit": false,
      "t": 241311.55200000407,
      "d": 401.4560000000056,
      "v": 120
    },
    {
      "midi": 42,
      "hit": false,
      "t": 241311.5520000098,
      "d": 9.12400000001071,
      "v": 70
    },
    {
      "midi": 48,
      "hit": false,
      "t": 241311.5520000098,
      "d": 9.12400000001071,
      "v": 84
    },
    {
      "midi": 76,
      "hit": false,
      "t": 241421.04000000405,
      "d": 401.4560000000056,
      "v": 120
    },
    {
      "midi": 45,
      "hit": false,
      "t": 241530.52800000153,
      "d": 9.12400000001071,
      "v": 42
    },
    {
      "midi": 76,
      "hit": false,
      "t": 241530.52800000407,
      "d": 401.4560000000056,
      "v": 120
    },
    {
      "midi": 42,
      "hit": false,
      "t": 241530.52800000983,
      "d": 9.12400000001071,
      "v": 70
    },
    {
      "midi": 45,
      "hit": false,
      "t": 241530.52800000983,
      "d": 9.12400000001071,
      "v": 84
    },
    {
      "midi": 42,
      "hit": false,
      "t": 241749.50400000985,
      "d": 9.12400000001071,
      "v": 70
    },
    {
      "midi": 52,
      "hit": false,
      "t": 241950.23200000217,
      "d": 428.8280000000086,
      "v": 110
    },
    {
      "midi": 42,
      "hit": false,
      "t": 242187.45600000987,
      "d": 9.12400000001071,
      "v": 70
    },
    {
      "midi": 38,
      "hit": false,
      "t": 242187.45600000987,
      "d": 9.12400000001071,
      "v": 84
    },
    {
      "midi": 50,
      "hit": false,
      "t": 242388.1840000022,
      "d": 428.8280000000086,
      "v": 110
    },
    {
      "midi": 42,
      "hit": false,
      "t": 242406.4320000099,
      "d": 9.12400000001071,
      "v": 70
    },
    {
      "midi": 36,
      "hit": false,
      "t": 242406.4320000099,
      "d": 9.12400000001071,
      "v": 84
    },
    {
      "midi": 42,
      "hit": false,
      "t": 242625.40800000992,
      "d": 9.12400000001071,
      "v": 70
    },
    {
      "midi": 47,
      "hit": false,
      "t": 242826.1360000022,
      "d": 647.8040000002075,
      "v": 110
    },
    {
      "midi": 42,
      "hit": false,
      "t": 242844.38400000994,
      "d": 9.12400000001071,
      "v": 70
    },
    {
      "midi": 36,
      "hit": false,
      "t": 242844.38400000994,
      "d": 9.12400000001071,
      "v": 84
    },
    {
      "midi": 42,
      "hit": false,
      "t": 243063.36000000997,
      "d": 9.12400000001071,
      "v": 70
    },
    {
      "midi": 38,
      "hit": false,
      "t": 243063.36000000997,
      "d": 9.12400000001071,
      "v": 84
    },
    {
      "midi": 42,
      "hit": false,
      "t": 243282.33600001,
      "d": 9.12400000001071,
      "v": 70
    },
    {
      "midi": 40,
      "hit": false,
      "t": 243483.06400000243,
      "d": 1742.6840000000084,
      "v": 110
    },
    {
      "midi": 71,
      "hit": false,
      "t": 243501.31200000134,
      "d": 1742.6840000000957,
      "v": 100
    },
    {
      "midi": 68,
      "hit": false,
      "t": 243501.31200000134,
      "d": 1742.6840000000957,
      "v": 100
    },
    {
      "midi": 62,
      "hit": false,
      "t": 243501.31200000134,
      "d": 1742.6840000000957,
      "v": 100
    },
    {
      "midi": 83,
      "hit": false,
      "t": 243501.31200001002,
      "d": 9.12400000001071,
      "v": 60
    },
    {
      "midi": 55,
      "hit": false,
      "t": 243501.31200001002,
      "d": 9.12400000001071,
      "v": 80
    },
    {
      "midi": 42,
      "hit": false,
      "t": 243939.26400001004,
      "d": 9.12400000001071,
      "v": 70
    },
    {
      "midi": 48,
      "hit": false,
      "t": 243939.26400001004,
      "d": 9.12400000001071,
      "v": 28
    },
    {
      "midi": 48,
      "hit": false,
      "t": 244158.24000001006,
      "d": 9.12400000001071,
      "v": 42
    },
    {
      "midi": 100,
      "hit": false,
      "t": 244377.21600000188,
      "d": 428.8280000000086,
      "v": 127
    },
    {
      "midi": 76,
      "hit": false,
      "t": 244377.21600000188,
      "d": 428.8280000000086,
      "v": 60
    },
    {
      "midi": 42,
      "hit": false,
      "t": 244377.21600001008,
      "d": 9.12400000001071,
      "v": 70
    },
    {
      "midi": 48,
      "hit": false,
      "t": 244377.21600001008,
      "d": 9.12400000001071,
      "v": 56
    },
    {
      "midi": 38,
      "hit": false,
      "t": 244596.1920000101,
      "d": 9.12400000001071,
      "v": 56
    },
    {
      "midi": 101,
      "hit": false,
      "t": 244815.1680000019,
      "d": 428.8280000000086,
      "v": 127
    },
    {
      "midi": 77,
      "hit": false,
      "t": 244815.1680000019,
      "d": 428.8280000000086,
      "v": 60
    },
    {
      "midi": 42,
      "hit": false,
      "t": 244815.16800001013,
      "d": 9.12400000001071,
      "v": 70
    },
    {
      "midi": 38,
      "hit": false,
      "t": 244815.16800001013,
      "d": 9.12400000001071,
      "v": 70
    },
    {
      "midi": 38,
      "hit": false,
      "t": 245034.14400001016,
      "d": 9.12400000001071,
      "v": 84
    },
    {
      "midi": 79,
      "hit": false,
      "t": 245225.74799999993,
      "d": 1751.80799999999,
      "v": 50
    },
    {
      "midi": 74,
      "hit": false,
      "t": 245225.74799999993,
      "d": 1751.80799999999,
      "v": 50
    },
    {
      "midi": 62,
      "hit": false,
      "t": 245225.74799999993,
      "d": 1751.80799999999,
      "v": 50
    },
    {
      "midi": 33,
      "hit": false,
      "t": 245234.87200000245,
      "d": 273.72000000000116,
      "v": 110
    },
    {
      "midi": 103,
      "hit": false,
      "t": 245253.12000000192,
      "d": 866.7799999999988,
      "v": 127
    },
    {
      "midi": 79,
      "hit": false,
      "t": 245253.12000000192,
      "d": 866.7799999999988,
      "v": 60
    },
    {
      "midi": 79,
      "hit": false,
      "t": 245253.12000000407,
      "d": 182.48000000001048,
      "v": 120
    },
    {
      "midi": 49,
      "hit": false,
      "t": 245253.12000001018,
      "d": 9.12400000001071,
      "v": 62
    },
    {
      "midi": 36,
      "hit": false,
      "t": 245253.12000001018,
      "d": 9.12400000001071,
      "v": 76
    },
    {
      "midi": 79,
      "hit": false,
      "t": 245362.60800000405,
      "d": 182.48000000001048,
      "v": 120
    },
    {
      "midi": 79,
      "hit": false,
      "t": 245472.09600000406,
      "d": 182.48000000001048,
      "v": 120
    },
    {
      "midi": 42,
      "hit": false,
      "t": 245472.0960000102,
      "d": 9.12400000001071,
      "v": 70
    },
    {
      "midi": 79,
      "hit": false,
      "t": 245691.0720000041,
      "d": 182.48000000001048,
      "v": 120
    },
    {
      "midi": 42,
      "hit": false,
      "t": 245691.07200001023,
      "d": 9.12400000001071,
      "v": 98
    },
    {
      "midi": 38,
      "hit": false,
      "t": 245691.07200001023,
      "d": 9.12400000001071,
      "v": 76
    },
    {
      "midi": 79,
      "hit": false,
      "t": 245800.56000000407,
      "d": 182.48000000001048,
      "v": 120
    },
    {
      "midi": 33,
      "hit": false,
      "t": 245891.80000000246,
      "d": 273.72000000000116,
      "v": 110
    },
    {
      "midi": 79,
      "hit": false,
      "t": 245910.04800000408,
      "d": 182.48000000001048,
      "v": 120
    },
    {
      "midi": 42,
      "hit": false,
      "t": 245910.04800001025,
      "d": 9.12400000001071,
      "v": 70
    },
    {
      "midi": 36,
      "hit": false,
      "t": 245910.04800001025,
      "d": 9.12400000001071,
      "v": 76
    },
    {
      "midi": 79,
      "hit": false,
      "t": 246129.0240000041,
      "d": 182.48000000001048,
      "v": 120
    },
    {
      "midi": 42,
      "hit": false,
      "t": 246129.02400001028,
      "d": 9.12400000001071,
      "v": 98
    },
    {
      "midi": 79,
      "hit": false,
      "t": 246238.5120000041,
      "d": 182.48000000001048,
      "v": 120
    },
    {
      "midi": 79,
      "hit": false,
      "t": 246348.0000000041,
      "d": 182.48000000001048,
      "v": 120
    },
    {
      "midi": 79,
      "hit": false,
      "t": 246348.00000000413,
      "d": 401.4560000000056,
      "v": 120
    },
    {
      "midi": 42,
      "hit": false,
      "t": 246348.0000000103,
      "d": 9.12400000001071,
      "v": 70
    },
    {
      "midi": 36,
      "hit": false,
      "t": 246348.0000000103,
      "d": 9.12400000001071,
      "v": 76
    },
    {
      "midi": 79,
      "hit": false,
      "t": 246457.48800000412,
      "d": 401.4560000000056,
      "v": 120
    },
    {
      "midi": 79,
      "hit": false,
      "t": 246566.97600000413,
      "d": 401.4560000000056,
      "v": 120
    },
    {
      "midi": 42,
      "hit": false,
      "t": 246566.97600001033,
      "d": 9.12400000001071,
      "v": 98
    },
    {
      "midi": 38,
      "hit": false,
      "t": 246566.97600001033,
      "d": 9.12400000001071,
      "v": 76
    },
    {
      "midi": 33,
      "hit": false,
      "t": 246767.70400000247,
      "d": 182.48000000001048,
      "v": 110
    },
    {
      "midi": 79,
      "hit": false,
      "t": 246785.95200000415,
      "d": 401.4560000000056,
      "v": 120
    },
    {
      "midi": 42,
      "hit": false,
      "t": 246785.95200001035,
      "d": 9.12400000001071,
      "v": 70
    },
    {
      "midi": 36,
      "hit": false,
      "t": 246785.95200001035,
      "d": 9.12400000001071,
      "v": 76
    },
    {
      "midi": 79,
      "hit": false,
      "t": 246895.44000000414,
      "d": 401.4560000000056,
      "v": 120
    },
    {
      "midi": 79,
      "hit": false,
      "t": 246977.55599999992,
      "d": 1751.80799999999,
      "v": 50
    },
    {
      "midi": 73,
      "hit": false,
      "t": 246977.55599999992,
      "d": 1751.80799999999,
      "v": 40
    },
    {
      "midi": 61,
      "hit": false,
      "t": 246977.55599999992,
      "d": 1751.80799999999,
      "v": 40
    },
    {
      "midi": 79,
      "hit": false,
      "t": 247004.92800000415,
      "d": 401.4560000000056,
      "v": 120
    },
    {
      "midi": 42,
      "hit": false,
      "t": 247004.92800001038,
      "d": 9.12400000001071,
      "v": 98
    },
    {
      "midi": 49,
      "hit": false,
      "t": 247205.6560000025,
      "d": 273.72000000000116,
      "v": 110
    },
    {
      "midi": 42,
      "hit": false,
      "t": 247223.9040000104,
      "d": 9.12400000001071,
      "v": 70
    },
    {
      "midi": 36,
      "hit": false,
      "t": 247223.9040000104,
      "d": 9.12400000001071,
      "v": 76
    },
    {
      "midi": 42,
      "hit": false,
      "t": 247442.88000001042,
      "d": 9.12400000001071,
      "v": 98
    },
    {
      "midi": 38,
      "hit": false,
      "t": 247442.88000001042,
      "d": 9.12400000001071,
      "v": 76
    },
    {
      "midi": 37,
      "hit": false,
      "t": 247643.60800000248,
      "d": 273.72000000000116,
      "v": 110
    },
    {
      "midi": 42,
      "hit": false,
      "t": 247661.85600001045,
      "d": 9.12400000001071,
      "v": 70
    },
    {
      "midi": 36,
      "hit": false,
      "t": 247661.85600001045,
      "d": 9.12400000001071,
      "v": 76
    },
    {
      "midi": 42,
      "hit": false,
      "t": 247880.83200001047,
      "d": 9.12400000001071,
      "v": 98
    },
    {
      "midi": 79,
      "hit": false,
      "t": 248099.80800000415,
      "d": 136.85999999998603,
      "v": 120
    },
    {
      "midi": 42,
      "hit": false,
      "t": 248099.8080000105,
      "d": 9.12400000001071,
      "v": 70
    },
    {
      "midi": 38,
      "hit": false,
      "t": 248099.8080000105,
      "d": 9.12400000001071,
      "v": 76
    },
    {
      "midi": 79,
      "hit": false,
      "t": 248209.29600000413,
      "d": 136.85999999998603,
      "v": 120
    },
    {
      "midi": 79,
      "hit": false,
      "t": 248318.78400000415,
      "d": 209.8520000000135,
      "v": 120
    },
    {
      "midi": 79,
      "hit": false,
      "t": 248318.78400000415,
      "d": 136.85999999998603,
      "v": 120
    },
    {
      "midi": 42,
      "hit": false,
      "t": 248318.78400001052,
      "d": 9.12400000001071,
      "v": 98
    },
    {
      "midi": 79,
      "hit": false,
      "t": 248428.27200000413,
      "d": 209.8520000000135,
      "v": 120
    },
    {
      "midi": 79,
      "hit": false,
      "t": 248537.76000000414,
      "d": 209.8520000000135,
      "v": 120
    },
    {
      "midi": 79,
      "hit": false,
      "t": 248537.76000000417,
      "d": 136.85999999998603,
      "v": 120
    },
    {
      "midi": 42,
      "hit": false,
      "t": 248537.76000001054,
      "d": 9.12400000001071,
      "v": 70
    },
    {
      "midi": 36,
      "hit": false,
      "t": 248537.76000001054,
      "d": 9.12400000001071,
      "v": 76
    },
    {
      "midi": 79,
      "hit": false,
      "t": 248647.24800000415,
      "d": 136.85999999998603,
      "v": 120
    },
    {
      "midi": 77,
      "hit": false,
      "t": 248729.3639999999,
      "d": 1751.80799999999,
      "v": 50
    },
    {
      "midi": 74,
      "hit": false,
      "t": 248729.3639999999,
      "d": 1751.80799999999,
      "v": 50
    },
    {
      "midi": 62,
      "hit": false,
      "t": 248729.3639999999,
      "d": 1751.80799999999,
      "v": 50
    },
    {
      "midi": 38,
      "hit": false,
      "t": 248738.4880000025,
      "d": 273.72000000000116,
      "v": 110
    },
    {
      "midi": 77,
      "hit": false,
      "t": 248756.73600000417,
      "d": 182.48000000001048,
      "v": 120
    },
    {
      "midi": 79,
      "hit": false,
      "t": 248756.73600000417,
      "d": 136.85999999998603,
      "v": 120
    },
    {
      "midi": 42,
      "hit": false,
      "t": 248756.73600001057,
      "d": 9.12400000001071,
      "v": 98
    },
    {
      "midi": 36,
      "hit": false,
      "t": 248756.73600001057,
      "d": 9.12400000001071,
      "v": 76
    },
    {
      "midi": 77,
      "hit": false,
      "t": 248866.22400000415,
      "d": 182.48000000001048,
      "v": 120
    },
    {
      "midi": 77,
      "hit": false,
      "t": 248975.71200000416,
      "d": 182.48000000001048,
      "v": 120
    },
    {
      "midi": 79,
      "hit": false,
      "t": 248975.7120000042,
      "d": 182.48000000001048,
      "v": 120
    },
    {
      "midi": 42,
      "hit": false,
      "t": 248975.7120000106,
      "d": 9.12400000001071,
      "v": 70
    },
    {
      "midi": 79,
      "hit": false,
      "t": 249085.20000000417,
      "d": 182.48000000001048,
      "v": 120
    },
    {
      "midi": 79,
      "hit": false,
      "t": 249194.6880000042,
      "d": 182.48000000001048,
      "v": 120
    },
    {
      "midi": 42,
      "hit": false,
      "t": 249194.68800001062,
      "d": 9.12400000001071,
      "v": 98
    },
    {
      "midi": 38,
      "hit": false,
      "t": 249194.68800001062,
      "d": 9.12400000001071,
      "v": 76
    },
    {
      "midi": 38,
      "hit": false,
      "t": 249395.4160000025,
      "d": 273.72000000000116,
      "v": 110
    },
    {
      "midi": 81,
      "hit": false,
      "t": 249413.6640000042,
      "d": 182.48000000001048,
      "v": 120
    },
    {
      "midi": 42,
      "hit": false,
      "t": 249413.66400001064,
      "d": 9.12400000001071,
      "v": 70
    },
    {
      "midi": 36,
      "hit": false,
      "t": 249413.66400001064,
      "d": 9.12400000001071,
      "v": 76
    },
    {
      "midi": 81,
      "hit": false,
      "t": 249523.1520000042,
      "d": 182.48000000001048,
      "v": 120
    },
    {
      "midi": 81,
      "hit": false,
      "t": 249632.6400000042,
      "d": 182.48000000001048,
      "v": 120
    },
    {
      "midi": 42,
      "hit": false,
      "t": 249632.64000001067,
      "d": 9.12400000001071,
      "v": 98
    },
    {
      "midi": 77,
      "hit": false,
      "t": 249851.61600000423,
      "d": 182.48000000001048,
      "v": 120
    },
    {
      "midi": 42,
      "hit": false,
      "t": 249851.6160000107,
      "d": 9.12400000001071,
      "v": 70
    },
    {
      "midi": 36,
      "hit": false,
      "t": 249851.6160000107,
      "d": 9.12400000001071,
      "v": 76
    },
    {
      "midi": 77,
      "hit": false,
      "t": 249961.1040000042,
      "d": 182.48000000001048,
      "v": 120
    },
    {
      "midi": 77,
      "hit": false,
      "t": 250070.59200000422,
      "d": 182.48000000001048,
      "v": 120
    },
    {
      "midi": 42,
      "hit": false,
      "t": 250070.5920000107,
      "d": 9.12400000001071,
      "v": 98
    },
    {
      "midi": 38,
      "hit": false,
      "t": 250070.5920000107,
      "d": 9.12400000001071,
      "v": 76
    },
    {
      "midi": 38,
      "hit": false,
      "t": 250271.3200000025,
      "d": 228.10000000000582,
      "v": 110
    },
    {
      "midi": 77,
      "hit": false,
      "t": 250289.56800000425,
      "d": 401.4560000000056,
      "v": 120
    },
    {
      "midi": 42,
      "hit": false,
      "t": 250289.56800001074,
      "d": 9.12400000001071,
      "v": 70
    },
    {
      "midi": 36,
      "hit": false,
      "t": 250289.56800001074,
      "d": 9.12400000001071,
      "v": 76
    },
    {
      "midi": 77,
      "hit": false,
      "t": 250399.05600000423,
      "d": 401.4560000000056,
      "v": 120
    },
    {
      "midi": 80,
      "hit": false,
      "t": 250481.1719999999,
      "d": 1751.80799999999,
      "v": 50
    },
    {
      "midi": 76,
      "hit": false,
      "t": 250481.1719999999,
      "d": 1751.80799999999,
      "v": 40
    },
    {
      "midi": 64,
      "hit": false,
      "t": 250481.1719999999,
      "d": 1751.80799999999,
      "v": 40
    },
    {
      "midi": 40,
      "hit": false,
      "t": 250490.2960000025,
      "d": 182.48000000001048,
      "v": 110
    },
    {
      "midi": 77,
      "hit": false,
      "t": 250508.54400000424,
      "d": 401.4560000000056,
      "v": 120
    },
    {
      "midi": 42,
      "hit": false,
      "t": 250508.54400001076,
      "d": 9.12400000001071,
      "v": 98
    },
    {
      "midi": 28,
      "hit": false,
      "t": 250709.27200000253,
      "d": 273.72000000000116,
      "v": 110
    },
    {
      "midi": 76,
      "hit": false,
      "t": 250727.52000000427,
      "d": 182.48000000001048,
      "v": 120
    },
    {
      "midi": 42,
      "hit": false,
      "t": 250727.5200000108,
      "d": 9.12400000001071,
      "v": 70
    },
    {
      "midi": 36,
      "hit": false,
      "t": 250727.5200000108,
      "d": 9.12400000001071,
      "v": 76
    },
    {
      "midi": 76,
      "hit": false,
      "t": 250837.00800000425,
      "d": 182.48000000001048,
      "v": 120
    },
    {
      "midi": 76,
      "hit": false,
      "t": 250946.49600000426,
      "d": 182.48000000001048,
      "v": 120
    },
    {
      "midi": 74,
      "hit": false,
      "t": 250946.4960000043,
      "d": 182.48000000001048,
      "v": 120
    },
    {
      "midi": 42,
      "hit": false,
      "t": 250946.4960000108,
      "d": 9.12400000001071,
      "v": 98
    },
    {
      "midi": 38,
      "hit": false,
      "t": 250946.4960000108,
      "d": 9.12400000001071,
      "v": 76
    },
    {
      "midi": 74,
      "hit": false,
      "t": 251055.98400000428,
      "d": 182.48000000001048,
      "v": 120
    },
    {
      "midi": 28,
      "hit": false,
      "t": 251147.22400000252,
      "d": 273.72000000000116,
      "v": 110
    },
    {
      "midi": 74,
      "hit": false,
      "t": 251165.4720000043,
      "d": 182.48000000001048,
      "v": 120
    },
    {
      "midi": 76,
      "hit": false,
      "t": 251165.47200000432,
      "d": 182.48000000001048,
      "v": 120
    },
    {
      "midi": 42,
      "hit": false,
      "t": 251165.47200001084,
      "d": 9.12400000001071,
      "v": 70
    },
    {
      "midi": 36,
      "hit": false,
      "t": 251165.47200001084,
      "d": 9.12400000001071,
      "v": 76
    },
    {
      "midi": 76,
      "hit": false,
      "t": 251274.9600000043,
      "d": 182.48000000001048,
      "v": 120
    },
    {
      "midi": 76,
      "hit": false,
      "t": 251384.4480000043,
      "d": 182.48000000001048,
      "v": 120
    },
    {
      "midi": 42,
      "hit": false,
      "t": 251384.44800001086,
      "d": 9.12400000001071,
      "v": 98
    },
    {
      "midi": 42,
      "hit": false,
      "t": 251603.42400001088,
      "d": 9.12400000001071,
      "v": 70
    },
    {
      "midi": 38,
      "hit": false,
      "t": 251603.42400001088,
      "d": 9.12400000001071,
      "v": 76
    },
    {
      "midi": 76,
      "hit": false,
      "t": 251822.40000000433,
      "d": 182.48000000001048,
      "v": 120
    },
    {
      "midi": 42,
      "hit": false,
      "t": 251822.4000000109,
      "d": 9.12400000001071,
      "v": 98
    },
    {
      "midi": 76,
      "hit": false,
      "t": 251931.8880000043,
      "d": 182.48000000001048,
      "v": 120
    },
    {
      "midi": 76,
      "hit": false,
      "t": 252041.37600000433,
      "d": 182.48000000001048,
      "v": 120
    },
    {
      "midi": 42,
      "hit": false,
      "t": 252041.37600001093,
      "d": 9.12400000001071,
      "v": 70
    },
    {
      "midi": 36,
      "hit": false,
      "t": 252041.37600001093,
      "d": 9.12400000001071,
      "v": 76
    },
    {
      "midi": 81,
      "hit": false,
      "t": 252232.9799999999,
      "d": 656.9280000000144,
      "v": 50
    },
    {
      "midi": 76,
      "hit": false,
      "t": 252232.9799999999,
      "d": 656.9280000000144,
      "v": 40
    },
    {
      "midi": 64,
      "hit": false,
      "t": 252232.9799999999,
      "d": 656.9280000000144,
      "v": 40
    },
    {
      "midi": 33,
      "hit": false,
      "t": 252242.10400000252,
      "d": 401.4560000000056,
      "v": 110
    },
    {
      "midi": 93,
      "hit": false,
      "t": 252260.3520000019,
      "d": 1742.6840000000084,
      "v": 127
    },
    {
      "midi": 69,
      "hit": false,
      "t": 252260.3520000019,
      "d": 1742.6840000000084,
      "v": 60
    },
    {
      "midi": 72,
      "hit": false,
      "t": 252260.35200000435,
      "d": 182.48000000001048,
      "v": 120
    },
    {
      "midi": 42,
      "hit": false,
      "t": 252260.35200001096,
      "d": 9.12400000001071,
      "v": 98
    },
    {
      "midi": 36,
      "hit": false,
      "t": 252260.35200001096,
      "d": 9.12400000001071,
      "v": 76
    },
    {
      "midi": 72,
      "hit": false,
      "t": 252369.84000000433,
      "d": 182.48000000001048,
      "v": 120
    },
    {
      "midi": 72,
      "hit": false,
      "t": 252479.32800000435,
      "d": 182.48000000001048,
      "v": 120
    },
    {
      "midi": 42,
      "hit": false,
      "t": 252479.32800001098,
      "d": 9.12400000001071,
      "v": 70
    },
    {
      "midi": 74,
      "hit": false,
      "t": 252698.30400000437,
      "d": 182.48000000001048,
      "v": 120
    },
    {
      "midi": 42,
      "hit": false,
      "t": 252698.304000011,
      "d": 9.12400000001071,
      "v": 98
    },
    {
      "midi": 38,
      "hit": false,
      "t": 252698.304000011,
      "d": 9.12400000001071,
      "v": 76
    },
    {
      "midi": 74,
      "hit": false,
      "t": 252807.79200000435,
      "d": 182.48000000001048,
      "v": 120
    },
    {
      "midi": 79,
      "hit": false,
      "t": 252889.9079999999,
      "d": 1094.8800000000047,
      "v": 50
    },
    {
      "midi": 76,
      "hit": false,
      "t": 252889.9079999999,
      "d": 1094.8800000000047,
      "v": 40
    },
    {
      "midi": 64,
      "hit": false,
      "t": 252889.9079999999,
      "d": 1094.8800000000047,
      "v": 40
    },
    {
      "midi": 31,
      "hit": false,
      "t": 252899.03200000254,
      "d": 1058.383999999991,
      "v": 110
    },
    {
      "midi": 74,
      "hit": false,
      "t": 252917.28000000436,
      "d": 182.48000000001048,
      "v": 120
    },
    {
      "midi": 76,
      "hit": false,
      "t": 252917.2800000044,
      "d": 182.48000000001048,
      "v": 120
    },
    {
      "midi": 42,
      "hit": false,
      "t": 252917.28000001103,
      "d": 9.12400000001071,
      "v": 70
    },
    {
      "midi": 36,
      "hit": false,
      "t": 252917.28000001103,
      "d": 9.12400000001071,
      "v": 76
    },
    {
      "midi": 76,
      "hit": false,
      "t": 253026.76800000438,
      "d": 182.48000000001048,
      "v": 120
    },
    {
      "midi": 76,
      "hit": false,
      "t": 253136.2560000044,
      "d": 182.48000000001048,
      "v": 120
    },
    {
      "midi": 42,
      "hit": false,
      "t": 253136.25600001105,
      "d": 9.12400000001071,
      "v": 98
    },
    {
      "midi": 42,
      "hit": false,
      "t": 253355.23200001108,
      "d": 9.12400000001071,
      "v": 70
    },
    {
      "midi": 36,
      "hit": false,
      "t": 253355.23200001108,
      "d": 9.12400000001071,
      "v": 84
    },
    {
      "midi": 76,
      "hit": false,
      "t": 253574.2080000044,
      "d": 182.48000000001048,
      "v": 120
    },
    {
      "midi": 42,
      "hit": false,
      "t": 253574.2080000111,
      "d": 9.12400000001071,
      "v": 98
    },
    {
      "midi": 38,
      "hit": false,
      "t": 253574.2080000111,
      "d": 9.12400000001071,
      "v": 84
    },
    {
      "midi": 76,
      "hit": false,
      "t": 253683.6960000044,
      "d": 182.48000000001048,
      "v": 120
    },
    {
      "midi": 76,
      "hit": false,
      "t": 253793.1840000044,
      "d": 182.48000000001048,
      "v": 120
    },
    {
      "midi": 42,
      "hit": false,
      "t": 253793.18400001113,
      "d": 9.12400000001071,
      "v": 70
    },
    {
      "midi": 81,
      "hit": false,
      "t": 253984.7879999999,
      "d": 656.9280000000144,
      "v": 50
    },
    {
      "midi": 76,
      "hit": false,
      "t": 253984.7879999999,
      "d": 656.9280000000144,
      "v": 40
    },
    {
      "midi": 64,
      "hit": false,
      "t": 253984.7879999999,
      "d": 656.9280000000144,
      "v": 40
    },
    {
      "midi": 29,
      "hit": false,
      "t": 253993.91200000254,
      "d": 401.4560000000056,
      "v": 110
    },
    {
      "midi": 93,
      "hit": false,
      "t": 254012.16000000192,
      "d": 647.8040000000037,
      "v": 127
    },
    {
      "midi": 69,
      "hit": false,
      "t": 254012.16000000192,
      "d": 647.8040000000037,
      "v": 60
    },
    {
      "midi": 74,
      "hit": false,
      "t": 254012.16000000443,
      "d": 182.48000000001048,
      "v": 120
    },
    {
      "midi": 42,
      "hit": false,
      "t": 254012.16000001115,
      "d": 9.12400000001071,
      "v": 98
    },
    {
      "midi": 36,
      "hit": false,
      "t": 254012.16000001115,
      "d": 9.12400000001071,
      "v": 76
    },
    {
      "midi": 74,
      "hit": false,
      "t": 254121.6480000044,
      "d": 182.48000000001048,
      "v": 120
    },
    {
      "midi": 74,
      "hit": false,
      "t": 254231.13600000442,
      "d": 182.48000000001048,
      "v": 120
    },
    {
      "midi": 42,
      "hit": false,
      "t": 254231.13600001117,
      "d": 9.12400000001071,
      "v": 70
    },
    {
      "midi": 36,
      "hit": false,
      "t": 254231.13600001117,
      "d": 9.12400000001071,
      "v": 84
    },
    {
      "midi": 76,
      "hit": false,
      "t": 254450.11200000445,
      "d": 182.48000000001048,
      "v": 120
    },
    {
      "midi": 42,
      "hit": false,
      "t": 254450.1120000112,
      "d": 9.12400000001071,
      "v": 98
    },
    {
      "midi": 38,
      "hit": false,
      "t": 254450.1120000112,
      "d": 9.12400000001071,
      "v": 76
    },
    {
      "midi": 76,
      "hit": false,
      "t": 254559.60000000443,
      "d": 182.48000000001048,
      "v": 120
    },
    {
      "midi": 77,
      "hit": false,
      "t": 254641.71599999993,
      "d": 1094.8800000000047,
      "v": 50
    },
    {
      "midi": 74,
      "hit": false,
      "t": 254641.71599999993,
      "d": 1094.8800000000047,
      "v": 50
    },
    {
      "midi": 62,
      "hit": false,
      "t": 254641.71599999993,
      "d": 1094.8800000000047,
      "v": 40
    },
    {
      "midi": 28,
      "hit": false,
      "t": 254650.84000000256,
      "d": 1058.383999999991,
      "v": 110
    },
    {
      "midi": 95,
      "hit": false,
      "t": 254669.08800000194,
      "d": 1085.755999999994,
      "v": 127
    },
    {
      "midi": 71,
      "hit": false,
      "t": 254669.08800000194,
      "d": 1085.755999999994,
      "v": 60
    },
    {
      "midi": 76,
      "hit": false,
      "t": 254669.08800000444,
      "d": 182.48000000001048,
      "v": 120
    },
    {
      "midi": 77,
      "hit": false,
      "t": 254669.08800000447,
      "d": 182.48000000001048,
      "v": 120
    },
    {
      "midi": 42,
      "hit": false,
      "t": 254669.08800001122,
      "d": 9.12400000001071,
      "v": 70
    },
    {
      "midi": 36,
      "hit": false,
      "t": 254669.08800001122,
      "d": 9.12400000001071,
      "v": 76
    },
    {
      "midi": 77,
      "hit": false,
      "t": 254778.57600000445,
      "d": 182.48000000001048,
      "v": 120
    },
    {
      "midi": 77,
      "hit": false,
      "t": 254888.06400000447,
      "d": 182.48000000001048,
      "v": 120
    },
    {
      "midi": 42,
      "hit": false,
      "t": 254888.06400001125,
      "d": 9.12400000001071,
      "v": 98
    },
    {
      "midi": 77,
      "hit": false,
      "t": 255107.0400000045,
      "d": 401.4560000000056,
      "v": 120
    },
    {
      "midi": 42,
      "hit": false,
      "t": 255107.04000001127,
      "d": 9.12400000001071,
      "v": 70
    },
    {
      "midi": 38,
      "hit": false,
      "t": 255107.04000001127,
      "d": 9.12400000001071,
      "v": 84
    },
    {
      "midi": 77,
      "hit": false,
      "t": 255216.52800000447,
      "d": 401.4560000000056,
      "v": 120
    },
    {
      "midi": 77,
      "hit": false,
      "t": 255326.01600000449,
      "d": 401.4560000000056,
      "v": 120
    },
    {
      "midi": 42,
      "hit": false,
      "t": 255326.0160000113,
      "d": 9.12400000001071,
      "v": 98
    },
    {
      "midi": 42,
      "hit": false,
      "t": 255544.99200001132,
      "d": 9.12400000001071,
      "v": 70
    },
    {
      "midi": 36,
      "hit": false,
      "t": 255544.99200001132,
      "d": 9.12400000001071,
      "v": 84
    },
    {
      "midi": 81,
      "hit": false,
      "t": 255736.59599999993,
      "d": 656.9280000000144,
      "v": 50
    },
    {
      "midi": 74,
      "hit": false,
      "t": 255736.59599999993,
      "d": 656.9280000000144,
      "v": 40
    },
    {
      "midi": 62,
      "hit": false,
      "t": 255736.59599999993,
      "d": 656.9280000000144,
      "v": 40
    },
    {
      "midi": 38,
      "hit": false,
      "t": 255745.72000000256,
      "d": 401.4560000000056,
      "v": 110
    },
    {
      "midi": 98,
      "hit": false,
      "t": 255763.96800000194,
      "d": 647.8040000000037,
      "v": 127
    },
    {
      "midi": 74,
      "hit": false,
      "t": 255763.96800000194,
      "d": 647.8040000000037,
      "v": 60
    },
    {
      "midi": 77,
      "hit": false,
      "t": 255763.9680000045,
      "d": 182.48000000001048,
      "v": 120
    },
    {
      "midi": 42,
      "hit": false,
      "t": 255763.96800001134,
      "d": 9.12400000001071,
      "v": 98
    },
    {
      "midi": 36,
      "hit": false,
      "t": 255763.96800001134,
      "d": 9.12400000001071,
      "v": 76
    },
    {
      "midi": 77,
      "hit": false,
      "t": 255873.4560000045,
      "d": 182.48000000001048,
      "v": 120
    },
    {
      "midi": 77,
      "hit": false,
      "t": 255982.9440000045,
      "d": 182.48000000001048,
      "v": 120
    },
    {
      "midi": 42,
      "hit": false,
      "t": 255982.94400001137,
      "d": 9.12400000001071,
      "v": 70
    },
    {
      "midi": 74,
      "hit": false,
      "t": 256201.92000000452,
      "d": 182.48000000001048,
      "v": 120
    },
    {
      "midi": 42,
      "hit": false,
      "t": 256201.9200000114,
      "d": 9.12400000001071,
      "v": 98
    },
    {
      "midi": 38,
      "hit": false,
      "t": 256201.9200000114,
      "d": 9.12400000001071,
      "v": 76
    },
    {
      "midi": 74,
      "hit": false,
      "t": 256311.4080000045,
      "d": 182.48000000001048,
      "v": 120
    },
    {
      "midi": 80,
      "hit": false,
      "t": 256393.52399999995,
      "d": 2846.6879999999946,
      "v": 50
    },
    {
      "midi": 76,
      "hit": false,
      "t": 256393.52399999995,
      "d": 2846.6879999999946,
      "v": 50
    },
    {
      "midi": 64,
      "hit": false,
      "t": 256393.52399999995,
      "d": 2846.6879999999946,
      "v": 40
    },
    {
      "midi": 40,
      "hit": false,
      "t": 256402.64800000258,
      "d": 1058.383999999991,
      "v": 110
    },
    {
      "midi": 100,
      "hit": false,
      "t": 256420.89600000196,
      "d": 647.8040000000037,
      "v": 127
    },
    {
      "midi": 76,
      "hit": false,
      "t": 256420.89600000196,
      "d": 647.8040000000037,
      "v": 60
    },
    {
      "midi": 74,
      "hit": false,
      "t": 256420.89600000452,
      "d": 182.48000000001048,
      "v": 120
    },
    {
      "midi": 76,
      "hit": false,
      "t": 256420.89600000455,
      "d": 182.48000000001048,
      "v": 120
    },
    {
      "midi": 42,
      "hit": false,
      "t": 256420.89600001142,
      "d": 9.12400000001071,
      "v": 70
    },
    {
      "midi": 36,
      "hit": false,
      "t": 256420.89600001142,
      "d": 9.12400000001071,
      "v": 76
    },
    {
      "midi": 76,
      "hit": false,
      "t": 256530.38400000453,
      "d": 182.48000000001048,
      "v": 120
    },
    {
      "midi": 76,
      "hit": false,
      "t": 256639.87200000454,
      "d": 182.48000000001048,
      "v": 120
    },
    {
      "midi": 42,
      "hit": false,
      "t": 256639.87200001144,
      "d": 9.12400000001071,
      "v": 98
    },
    {
      "midi": 42,
      "hit": false,
      "t": 256858.84800001147,
      "d": 9.12400000001071,
      "v": 70
    },
    {
      "midi": 36,
      "hit": false,
      "t": 256858.84800001147,
      "d": 9.12400000001071,
      "v": 84
    },
    {
      "midi": 42,
      "hit": false,
      "t": 257077.8240000115,
      "d": 9.12400000001071,
      "v": 98
    },
    {
      "midi": 38,
      "hit": false,
      "t": 257077.8240000115,
      "d": 9.12400000001071,
      "v": 84
    },
    {
      "midi": 42,
      "hit": false,
      "t": 257296.8000000115,
      "d": 9.12400000001071,
      "v": 70
    },
    {
      "midi": 28,
      "hit": false,
      "t": 257497.52800000258,
      "d": 182.48000000001048,
      "v": 110
    },
    {
      "midi": 42,
      "hit": false,
      "t": 257515.77600001154,
      "d": 9.12400000001071,
      "v": 98
    },
    {
      "midi": 36,
      "hit": false,
      "t": 257515.77600001154,
      "d": 9.12400000001071,
      "v": 76
    },
    {
      "midi": 28,
      "hit": false,
      "t": 257716.5040000026,
      "d": 182.48000000001048,
      "v": 110
    },
    {
      "midi": 42,
      "hit": false,
      "t": 257734.75200001156,
      "d": 9.12400000001071,
      "v": 70
    },
    {
      "midi": 36,
      "hit": false,
      "t": 257734.75200001156,
      "d": 9.12400000001071,
      "v": 84
    },
    {
      "midi": 28,
      "hit": false,
      "t": 257935.48000000263,
      "d": 182.48000000001048,
      "v": 110
    },
    {
      "midi": 42,
      "hit": false,
      "t": 257953.7280000116,
      "d": 9.12400000001071,
      "v": 98
    },
    {
      "midi": 38,
      "hit": false,
      "t": 257953.7280000116,
      "d": 9.12400000001071,
      "v": 76
    },
    {
      "midi": 28,
      "hit": false,
      "t": 258154.45600000265,
      "d": 620.4320000000007,
      "v": 110
    },
    {
      "midi": 42,
      "hit": false,
      "t": 258172.7040000116,
      "d": 9.12400000001071,
      "v": 70
    },
    {
      "midi": 100,
      "hit": false,
      "t": 258391.68000000197,
      "d": 428.8280000000086,
      "v": 127
    },
    {
      "midi": 76,
      "hit": false,
      "t": 258391.68000000197,
      "d": 428.8280000000086,
      "v": 60
    },
    {
      "midi": 42,
      "hit": false,
      "t": 258391.68000001163,
      "d": 9.12400000001071,
      "v": 98
    },
    {
      "midi": 48,
      "hit": false,
      "t": 258610.65600001166,
      "d": 9.12400000001071,
      "v": 84
    },
    {
      "midi": 28,
      "hit": false,
      "t": 258811.38400000267,
      "d": 182.48000000001048,
      "v": 110
    },
    {
      "midi": 101,
      "hit": false,
      "t": 258829.632000002,
      "d": 428.8280000000086,
      "v": 127
    },
    {
      "midi": 77,
      "hit": false,
      "t": 258829.632000002,
      "d": 428.8280000000086,
      "v": 60
    },
    {
      "midi": 45,
      "hit": false,
      "t": 258829.63200001168,
      "d": 9.12400000001071,
      "v": 84
    },
    {
      "midi": 29,
      "hit": false,
      "t": 259030.3600000027,
      "d": 182.48000000001048,
      "v": 110
    },
    {
      "midi": 41,
      "hit": false,
      "t": 259048.6080000117,
      "d": 9.12400000001071,
      "v": 84
    },
    {
      "midi": 79,
      "hit": false,
      "t": 259240.21199999994,
      "d": 1751.80799999999,
      "v": 50
    },
    {
      "midi": 74,
      "hit": false,
      "t": 259240.21199999994,
      "d": 1751.80799999999,
      "v": 50
    },
    {
      "midi": 62,
      "hit": false,
      "t": 259240.21199999994,
      "d": 1751.80799999999,
      "v": 50
    },
    {
      "midi": 33,
      "hit": false,
      "t": 259249.33600000272,
      "d": 273.72000000000116,
      "v": 110
    },
    {
      "midi": 103,
      "hit": false,
      "t": 259267.584000002,
      "d": 866.7799999999988,
      "v": 127
    },
    {
      "midi": 79,
      "hit": false,
      "t": 259267.584000002,
      "d": 866.7799999999988,
      "v": 60
    },
    {
      "midi": 79,
      "hit": false,
      "t": 259267.58400000457,
      "d": 182.48000000001048,
      "v": 120
    },
    {
      "midi": 49,
      "hit": false,
      "t": 259267.58400001173,
      "d": 9.12400000001071,
      "v": 62
    },
    {
      "midi": 36,
      "hit": false,
      "t": 259267.58400001173,
      "d": 9.12400000001071,
      "v": 76
    },
    {
      "midi": 79,
      "hit": false,
      "t": 259377.07200000455,
      "d": 182.48000000001048,
      "v": 120
    },
    {
      "midi": 79,
      "hit": false,
      "t": 259486.56000000457,
      "d": 182.48000000001048,
      "v": 120
    },
    {
      "midi": 79,
      "hit": false,
      "t": 259486.5600000046,
      "d": 182.48000000001048,
      "v": 120
    },
    {
      "midi": 42,
      "hit": false,
      "t": 259486.56000001176,
      "d": 9.12400000001071,
      "v": 70
    },
    {
      "midi": 79,
      "hit": false,
      "t": 259596.04800000458,
      "d": 182.48000000001048,
      "v": 120
    },
    {
      "midi": 79,
      "hit": false,
      "t": 259705.5360000046,
      "d": 182.48000000001048,
      "v": 120
    },
    {
      "midi": 79,
      "hit": false,
      "t": 259705.53600000462,
      "d": 182.48000000001048,
      "v": 120
    },
    {
      "midi": 42,
      "hit": false,
      "t": 259705.53600001178,
      "d": 9.12400000001071,
      "v": 98
    },
    {
      "midi": 38,
      "hit": false,
      "t": 259705.53600001178,
      "d": 9.12400000001071,
      "v": 76
    },
    {
      "midi": 79,
      "hit": false,
      "t": 259815.0240000046,
      "d": 182.48000000001048,
      "v": 120
    },
    {
      "midi": 33,
      "hit": false,
      "t": 259906.26400000273,
      "d": 273.72000000000116,
      "v": 110
    },
    {
      "midi": 79,
      "hit": false,
      "t": 259924.51200000462,
      "d": 182.48000000001048,
      "v": 120
    },
    {
      "midi": 79,
      "hit": false,
      "t": 259924.51200000464,
      "d": 182.48000000001048,
      "v": 120
    },
    {
      "midi": 42,
      "hit": false,
      "t": 259924.5120000118,
      "d": 9.12400000001071,
      "v": 70
    },
    {
      "midi": 36,
      "hit": false,
      "t": 259924.5120000118,
      "d": 9.12400000001071,
      "v": 76
    },
    {
      "midi": 79,
      "hit": false,
      "t": 260034.00000000463,
      "d": 182.48000000001048,
      "v": 120
    },
    {
      "midi": 79,
      "hit": false,
      "t": 260143.48800000464,
      "d": 182.48000000001048,
      "v": 120
    },
    {
      "midi": 42,
      "hit": false,
      "t": 260143.48800001183,
      "d": 9.12400000001071,
      "v": 98
    },
    {
      "midi": 79,
      "hit": false,
      "t": 260362.46400000466,
      "d": 182.48000000001048,
      "v": 120
    },
    {
      "midi": 42,
      "hit": false,
      "t": 260362.46400001185,
      "d": 9.12400000001071,
      "v": 70
    },
    {
      "midi": 36,
      "hit": false,
      "t": 260362.46400001185,
      "d": 9.12400000001071,
      "v": 76
    },
    {
      "midi": 79,
      "hit": false,
      "t": 260471.95200000465,
      "d": 182.48000000001048,
      "v": 120
    },
    {
      "midi": 79,
      "hit": false,
      "t": 260581.44000000466,
      "d": 182.48000000001048,
      "v": 120
    },
    {
      "midi": 79,
      "hit": false,
      "t": 260581.4400000047,
      "d": 182.48000000001048,
      "v": 120
    },
    {
      "midi": 42,
      "hit": false,
      "t": 260581.44000001188,
      "d": 9.12400000001071,
      "v": 98
    },
    {
      "midi": 38,
      "hit": false,
      "t": 260581.44000001188,
      "d": 9.12400000001071,
      "v": 76
    },
    {
      "midi": 79,
      "hit": false,
      "t": 260690.92800000467,
      "d": 182.48000000001048,
      "v": 120
    },
    {
      "midi": 33,
      "hit": false,
      "t": 260782.16800000274,
      "d": 182.48000000001048,
      "v": 110
    },
    {
      "midi": 79,
      "hit": false,
      "t": 260800.41600000468,
      "d": 182.48000000001048,
      "v": 120
    },
    {
      "midi": 79,
      "hit": false,
      "t": 260800.4160000047,
      "d": 182.48000000001048,
      "v": 120
    },
    {
      "midi": 42,
      "hit": false,
      "t": 260800.4160000119,
      "d": 9.12400000001071,
      "v": 70
    },
    {
      "midi": 36,
      "hit": false,
      "t": 260800.4160000119,
      "d": 9.12400000001071,
      "v": 76
    },
    {
      "midi": 79,
      "hit": false,
      "t": 260909.9040000047,
      "d": 182.48000000001048,
      "v": 120
    },
    {
      "midi": 79,
      "hit": false,
      "t": 260992.01999999993,
      "d": 1751.80799999999,
      "v": 50
    },
    {
      "midi": 73,
      "hit": false,
      "t": 260992.01999999993,
      "d": 1751.80799999999,
      "v": 40
    },
    {
      "midi": 61,
      "hit": false,
      "t": 260992.01999999993,
      "d": 1751.80799999999,
      "v": 40
    },
    {
      "midi": 79,
      "hit": false,
      "t": 261019.3920000047,
      "d": 182.48000000001048,
      "v": 120
    },
    {
      "midi": 42,
      "hit": false,
      "t": 261019.39200001193,
      "d": 9.12400000001071,
      "v": 98
    },
    {
      "midi": 49,
      "hit": false,
      "t": 261220.12000000276,
      "d": 273.72000000000116,
      "v": 110
    },
    {
      "midi": 42,
      "hit": false,
      "t": 261238.36800001195,
      "d": 9.12400000001071,
      "v": 70
    },
    {
      "midi": 36,
      "hit": false,
      "t": 261238.36800001195,
      "d": 9.12400000001071,
      "v": 76
    },
    {
      "midi": 42,
      "hit": false,
      "t": 261457.34400001197,
      "d": 9.12400000001071,
      "v": 98
    },
    {
      "midi": 38,
      "hit": false,
      "t": 261457.34400001197,
      "d": 9.12400000001071,
      "v": 76
    },
    {
      "midi": 37,
      "hit": false,
      "t": 261658.07200000275,
      "d": 273.72000000000116,
      "v": 110
    },
    {
      "midi": 42,
      "hit": false,
      "t": 261676.320000012,
      "d": 9.12400000001071,
      "v": 70
    },
    {
      "midi": 36,
      "hit": false,
      "t": 261676.320000012,
      "d": 9.12400000001071,
      "v": 76
    },
    {
      "midi": 42,
      "hit": false,
      "t": 261895.29600001202,
      "d": 9.12400000001071,
      "v": 98
    },
    {
      "midi": 42,
      "hit": false,
      "t": 262114.27200001205,
      "d": 9.12400000001071,
      "v": 70
    },
    {
      "midi": 38,
      "hit": false,
      "t": 262114.27200001205,
      "d": 9.12400000001071,
      "v": 76
    },
    {
      "midi": 42,
      "hit": false,
      "t": 262333.24800001207,
      "d": 9.12400000001071,
      "v": 98
    },
    {
      "midi": 42,
      "hit": false,
      "t": 262552.2240000121,
      "d": 9.12400000001071,
      "v": 70
    },
    {
      "midi": 36,
      "hit": false,
      "t": 262552.2240000121,
      "d": 9.12400000001071,
      "v": 76
    },
    {
      "midi": 77,
      "hit": false,
      "t": 262743.8279999999,
      "d": 1751.808000000019,
      "v": 50
    },
    {
      "midi": 74,
      "hit": false,
      "t": 262743.8279999999,
      "d": 1751.808000000019,
      "v": 50
    },
    {
      "midi": 62,
      "hit": false,
      "t": 262743.8279999999,
      "d": 1751.808000000019,
      "v": 50
    },
    {
      "midi": 38,
      "hit": false,
      "t": 262752.9520000027,
      "d": 273.71999999997206,
      "v": 110
    },
    {
      "midi": 77,
      "hit": false,
      "t": 262771.2000000047,
      "d": 182.47999999998137,
      "v": 120
    },
    {
      "midi": 42,
      "hit": false,
      "t": 262771.2000000121,
      "d": 9.12400000001071,
      "v": 98
    },
    {
      "midi": 36,
      "hit": false,
      "t": 262771.2000000121,
      "d": 9.12400000001071,
      "v": 76
    },
    {
      "midi": 77,
      "hit": false,
      "t": 262880.6880000047,
      "d": 182.47999999998137,
      "v": 120
    },
    {
      "midi": 79,
      "hit": false,
      "t": 262990.1760000047,
      "d": 182.47999999998137,
      "v": 120
    },
    {
      "midi": 77,
      "hit": false,
      "t": 262990.1760000047,
      "d": 182.47999999998137,
      "v": 120
    },
    {
      "midi": 42,
      "hit": false,
      "t": 262990.17600001214,
      "d": 9.12400000001071,
      "v": 70
    },
    {
      "midi": 79,
      "hit": false,
      "t": 263099.66400000465,
      "d": 182.47999999998137,
      "v": 120
    },
    {
      "midi": 79,
      "hit": false,
      "t": 263209.15200000466,
      "d": 182.47999999998137,
      "v": 120
    },
    {
      "midi": 42,
      "hit": false,
      "t": 263209.15200001217,
      "d": 9.12400000001071,
      "v": 98
    },
    {
      "midi": 38,
      "hit": false,
      "t": 263209.15200001217,
      "d": 9.12400000001071,
      "v": 76
    },
    {
      "midi": 38,
      "hit": false,
      "t": 263409.8800000027,
      "d": 273.71999999997206,
      "v": 110
    },
    {
      "midi": 81,
      "hit": false,
      "t": 263428.1280000047,
      "d": 182.47999999998137,
      "v": 120
    },
    {
      "midi": 42,
      "hit": false,
      "t": 263428.1280000122,
      "d": 9.12400000001071,
      "v": 70
    },
    {
      "midi": 36,
      "hit": false,
      "t": 263428.1280000122,
      "d": 9.12400000001071,
      "v": 76
    },
    {
      "midi": 81,
      "hit": false,
      "t": 263537.61600000464,
      "d": 182.47999999998137,
      "v": 120
    },
    {
      "midi": 81,
      "hit": false,
      "t": 263647.10400000465,
      "d": 182.47999999998137,
      "v": 120
    },
    {
      "midi": 42,
      "hit": false,
      "t": 263647.1040000122,
      "d": 9.12400000001071,
      "v": 98
    },
    {
      "midi": 77,
      "hit": false,
      "t": 263866.0800000047,
      "d": 182.47999999998137,
      "v": 120
    },
    {
      "midi": 42,
      "hit": false,
      "t": 263866.08000001224,
      "d": 9.12400000001071,
      "v": 70
    },
    {
      "midi": 36,
      "hit": false,
      "t": 263866.08000001224,
      "d": 9.12400000001071,
      "v": 76
    },
    {
      "midi": 77,
      "hit": false,
      "t": 263975.5680000046,
      "d": 182.47999999998137,
      "v": 120
    },
    {
      "midi": 77,
      "hit": false,
      "t": 264085.05600000464,
      "d": 182.47999999998137,
      "v": 120
    },
    {
      "midi": 42,
      "hit": false,
      "t": 264085.05600001226,
      "d": 9.12400000001071,
      "v": 98
    },
    {
      "midi": 38,
      "hit": false,
      "t": 264085.05600001226,
      "d": 9.12400000001071,
      "v": 76
    },
    {
      "midi": 40,
      "hit": false,
      "t": 264285.78400000266,
      "d": 428.8279999999795,
      "v": 110
    },
    {
      "midi": 76,
      "hit": false,
      "t": 264304.03200000466,
      "d": 182.47999999998137,
      "v": 120
    },
    {
      "midi": 42,
      "hit": false,
      "t": 264304.0320000123,
      "d": 9.12400000001071,
      "v": 70
    },
    {
      "midi": 36,
      "hit": false,
      "t": 264304.0320000123,
      "d": 9.12400000001071,
      "v": 76
    },
    {
      "midi": 76,
      "hit": false,
      "t": 264413.5200000046,
      "d": 182.47999999998137,
      "v": 120
    },
    {
      "midi": 80,
      "hit": false,
      "t": 264495.63599999994,
      "d": 1751.808000000019,
      "v": 50
    },
    {
      "midi": 76,
      "hit": false,
      "t": 264495.63599999994,
      "d": 1751.808000000019,
      "v": 40
    },
    {
      "midi": 64,
      "hit": false,
      "t": 264495.63599999994,
      "d": 1751.808000000019,
      "v": 40
    },
    {
      "midi": 76,
      "hit": false,
      "t": 264523.00800000463,
      "d": 182.47999999998137,
      "v": 120
    },
    {
      "midi": 42,
      "hit": false,
      "t": 264523.0080000123,
      "d": 9.12400000001071,
      "v": 98
    },
    {
      "midi": 52,
      "hit": false,
      "t": 264723.73600000265,
      "d": 428.8279999999795,
      "v": 110
    },
    {
      "midi": 76,
      "hit": false,
      "t": 264741.98400000465,
      "d": 182.47999999998137,
      "v": 120
    },
    {
      "midi": 42,
      "hit": false,
      "t": 264741.98400001234,
      "d": 9.12400000001071,
      "v": 70
    },
    {
      "midi": 36,
      "hit": false,
      "t": 264741.98400001234,
      "d": 9.12400000001071,
      "v": 76
    },
    {
      "midi": 76,
      "hit": false,
      "t": 264851.4720000046,
      "d": 182.47999999998137,
      "v": 120
    },
    {
      "midi": 74,
      "hit": false,
      "t": 264960.9600000046,
      "d": 182.47999999998137,
      "v": 120
    },
    {
      "midi": 76,
      "hit": false,
      "t": 264960.9600000046,
      "d": 182.47999999998137,
      "v": 120
    },
    {
      "midi": 42,
      "hit": false,
      "t": 264960.96000001236,
      "d": 9.12400000001071,
      "v": 98
    },
    {
      "midi": 38,
      "hit": false,
      "t": 264960.96000001236,
      "d": 9.12400000001071,
      "v": 76
    },
    {
      "midi": 74,
      "hit": false,
      "t": 265070.4480000046,
      "d": 182.47999999998137,
      "v": 120
    },
    {
      "midi": 40,
      "hit": false,
      "t": 265161.68800000264,
      "d": 182.47999999998137,
      "v": 110
    },
    {
      "midi": 76,
      "hit": false,
      "t": 265179.9360000046,
      "d": 182.47999999998137,
      "v": 120
    },
    {
      "midi": 74,
      "hit": false,
      "t": 265179.9360000046,
      "d": 182.47999999998137,
      "v": 120
    },
    {
      "midi": 42,
      "hit": false,
      "t": 265179.9360000124,
      "d": 9.12400000001071,
      "v": 70
    },
    {
      "midi": 36,
      "hit": false,
      "t": 265179.9360000124,
      "d": 9.12400000001071,
      "v": 76
    },
    {
      "midi": 76,
      "hit": false,
      "t": 265289.42400000454,
      "d": 182.47999999998137,
      "v": 120
    },
    {
      "midi": 76,
      "hit": false,
      "t": 265398.91200000455,
      "d": 182.47999999998137,
      "v": 120
    },
    {
      "midi": 42,
      "hit": false,
      "t": 265398.9120000124,
      "d": 9.12400000001071,
      "v": 98
    },
    {
      "midi": 42,
      "hit": false,
      "t": 265617.88800001243,
      "d": 9.12400000001071,
      "v": 70
    },
    {
      "midi": 38,
      "hit": false,
      "t": 265617.88800001243,
      "d": 9.12400000001071,
      "v": 76
    },
    {
      "midi": 76,
      "hit": false,
      "t": 265836.86400000454,
      "d": 182.47999999998137,
      "v": 120
    },
    {
      "midi": 42,
      "hit": false,
      "t": 265836.86400001246,
      "d": 9.12400000001071,
      "v": 98
    },
    {
      "midi": 76,
      "hit": false,
      "t": 265946.3520000045,
      "d": 182.47999999998137,
      "v": 120
    },
    {
      "midi": 76,
      "hit": false,
      "t": 266055.8400000045,
      "d": 182.47999999998137,
      "v": 120
    },
    {
      "midi": 42,
      "hit": false,
      "t": 266055.8400000125,
      "d": 9.12400000001071,
      "v": 70
    },
    {
      "midi": 36,
      "hit": false,
      "t": 266055.8400000125,
      "d": 9.12400000001071,
      "v": 76
    },
    {
      "midi": 69,
      "hit": false,
      "t": 266247.44399999996,
      "d": 866.7800000000279,
      "v": 40
    },
    {
      "midi": 81,
      "hit": false,
      "t": 266247.44399999996,
      "d": 1742.6840000000666,
      "v": 50
    },
    {
      "midi": 64,
      "hit": false,
      "t": 266247.44399999996,
      "d": 1742.6840000000666,
      "v": 50
    },
    {
      "midi": 33,
      "hit": false,
      "t": 266256.56800000265,
      "d": 401.4560000000056,
      "v": 110
    },
    {
      "midi": 93,
      "hit": false,
      "t": 266274.816000002,
      "d": 428.8279999999795,
      "v": 127
    },
    {
      "midi": 69,
      "hit": false,
      "t": 266274.816000002,
      "d": 428.8279999999795,
      "v": 60
    },
    {
      "midi": 81,
      "hit": false,
      "t": 266274.81600000453,
      "d": 182.47999999998137,
      "v": 120
    },
    {
      "midi": 42,
      "hit": false,
      "t": 266274.8160000125,
      "d": 9.12400000001071,
      "v": 98
    },
    {
      "midi": 36,
      "hit": false,
      "t": 266274.8160000125,
      "d": 9.12400000001071,
      "v": 76
    },
    {
      "midi": 81,
      "hit": false,
      "t": 266384.3040000045,
      "d": 182.47999999998137,
      "v": 120
    },
    {
      "midi": 81,
      "hit": false,
      "t": 266493.7920000045,
      "d": 182.47999999998137,
      "v": 120
    },
    {
      "midi": 42,
      "hit": false,
      "t": 266493.79200001253,
      "d": 9.12400000001071,
      "v": 70
    },
    {
      "midi": 42,
      "hit": false,
      "t": 266712.76800001255,
      "d": 9.12400000001071,
      "v": 98
    },
    {
      "midi": 38,
      "hit": false,
      "t": 266712.76800001255,
      "d": 9.12400000001071,
      "v": 76
    },
    {
      "midi": 31,
      "hit": false,
      "t": 266913.49600000266,
      "d": 1058.38400000002,
      "v": 110
    },
    {
      "midi": 42,
      "hit": false,
      "t": 266931.7440000126,
      "d": 9.12400000001071,
      "v": 70
    },
    {
      "midi": 36,
      "hit": false,
      "t": 266931.7440000126,
      "d": 9.12400000001071,
      "v": 76
    },
    {
      "midi": 67,
      "hit": false,
      "t": 267123.348,
      "d": 866.7800000000279,
      "v": 40
    },
    {
      "midi": 42,
      "hit": false,
      "t": 267150.7200000126,
      "d": 9.12400000001071,
      "v": 98
    },
    {
      "midi": 42,
      "hit": false,
      "t": 267369.6960000126,
      "d": 9.12400000001071,
      "v": 70
    },
    {
      "midi": 36,
      "hit": false,
      "t": 267369.6960000126,
      "d": 9.12400000001071,
      "v": 84
    },
    {
      "midi": 91,
      "hit": false,
      "t": 267588.672000002,
      "d": 428.8279999999795,
      "v": 127
    },
    {
      "midi": 67,
      "hit": false,
      "t": 267588.672000002,
      "d": 428.8279999999795,
      "v": 60
    },
    {
      "midi": 79,
      "hit": false,
      "t": 267588.6720000045,
      "d": 182.47999999998137,
      "v": 120
    },
    {
      "midi": 42,
      "hit": false,
      "t": 267588.67200001265,
      "d": 9.12400000001071,
      "v": 98
    },
    {
      "midi": 38,
      "hit": false,
      "t": 267588.67200001265,
      "d": 9.12400000001071,
      "v": 84
    },
    {
      "midi": 79,
      "hit": false,
      "t": 267698.16000000446,
      "d": 182.47999999998137,
      "v": 120
    },
    {
      "midi": 79,
      "hit": false,
      "t": 267807.64800000447,
      "d": 182.47999999998137,
      "v": 120
    },
    {
      "midi": 42,
      "hit": false,
      "t": 267807.6480000127,
      "d": 9.12400000001071,
      "v": 70
    },
    {
      "midi": 81,
      "hit": false,
      "t": 267999.25200000004,
      "d": 1523.7079999999842,
      "v": 50
    },
    {
      "midi": 62,
      "hit": false,
      "t": 267999.25200000004,
      "d": 1523.7079999999842,
      "v": 50
    },
    {
      "midi": 29,
      "hit": false,
      "t": 268008.37600000267,
      "d": 401.4560000000056,
      "v": 110
    },
    {
      "midi": 93,
      "hit": false,
      "t": 268026.624000002,
      "d": 428.8279999999795,
      "v": 127
    },
    {
      "midi": 69,
      "hit": false,
      "t": 268026.624000002,
      "d": 428.8279999999795,
      "v": 60
    },
    {
      "midi": 81,
      "hit": false,
      "t": 268026.6240000045,
      "d": 182.47999999998137,
      "v": 120
    },
    {
      "midi": 42,
      "hit": false,
      "t": 268026.6240000127,
      "d": 9.12400000001071,
      "v": 98
    },
    {
      "midi": 36,
      "hit": false,
      "t": 268026.6240000127,
      "d": 9.12400000001071,
      "v": 76
    },
    {
      "midi": 81,
      "hit": false,
      "t": 268136.11200000445,
      "d": 182.47999999998137,
      "v": 120
    },
    {
      "midi": 81,
      "hit": false,
      "t": 268245.60000000446,
      "d": 182.47999999998137,
      "v": 120
    },
    {
      "midi": 42,
      "hit": false,
      "t": 268245.6000000127,
      "d": 9.12400000001071,
      "v": 70
    },
    {
      "midi": 36,
      "hit": false,
      "t": 268245.6000000127,
      "d": 9.12400000001071,
      "v": 84
    },
    {
      "midi": 66,
      "hit": false,
      "t": 268437.204,
      "d": 437.9519999999902,
      "v": 40
    },
    {
      "midi": 42,
      "hit": false,
      "t": 268464.57600001275,
      "d": 9.12400000001071,
      "v": 98
    },
    {
      "midi": 38,
      "hit": false,
      "t": 268464.57600001275,
      "d": 9.12400000001071,
      "v": 76
    },
    {
      "midi": 28,
      "hit": false,
      "t": 268665.3040000027,
      "d": 866.7800000000279,
      "v": 110
    },
    {
      "midi": 42,
      "hit": false,
      "t": 268683.5520000128,
      "d": 9.12400000001071,
      "v": 70
    },
    {
      "midi": 36,
      "hit": false,
      "t": 268683.5520000128,
      "d": 9.12400000001071,
      "v": 76
    },
    {
      "midi": 65,
      "hit": false,
      "t": 268875.156,
      "d": 437.9519999999902,
      "v": 40
    },
    {
      "midi": 42,
      "hit": false,
      "t": 268902.5280000128,
      "d": 9.12400000001071,
      "v": 98
    },
    {
      "midi": 93,
      "hit": false,
      "t": 269121.504000002,
      "d": 209.8520000000135,
      "v": 127
    },
    {
      "midi": 69,
      "hit": false,
      "t": 269121.504000002,
      "d": 209.8520000000135,
      "v": 60
    },
    {
      "midi": 81,
      "hit": false,
      "t": 269121.5040000045,
      "d": 182.47999999998137,
      "v": 120
    },
    {
      "midi": 42,
      "hit": false,
      "t": 269121.5040000128,
      "d": 9.12400000001071,
      "v": 70
    },
    {
      "midi": 38,
      "hit": false,
      "t": 269121.5040000128,
      "d": 9.12400000001071,
      "v": 84
    },
    {
      "midi": 81,
      "hit": false,
      "t": 269230.99200000445,
      "d": 182.47999999998137,
      "v": 120
    },
    {
      "midi": 96,
      "hit": false,
      "t": 269340.480000002,
      "d": 209.8520000000135,
      "v": 127
    },
    {
      "midi": 72,
      "hit": false,
      "t": 269340.480000002,
      "d": 209.8520000000135,
      "v": 60
    },
    {
      "midi": 84,
      "hit": false,
      "t": 269340.48000000446,
      "d": 182.47999999998137,
      "v": 120
    },
    {
      "midi": 81,
      "hit": false,
      "t": 269340.48000000446,
      "d": 182.47999999998137,
      "v": 120
    },
    {
      "midi": 42,
      "hit": false,
      "t": 269340.48000001285,
      "d": 9.12400000001071,
      "v": 98
    },
    {
      "midi": 84,
      "hit": false,
      "t": 269449.9680000044,
      "d": 182.47999999998137,
      "v": 120
    },
    {
      "midi": 71,
      "hit": false,
      "t": 269532.08400000003,
      "d": 437.9519999999902,
      "v": 50
    },
    {
      "midi": 67,
      "hit": false,
      "t": 269532.08400000003,
      "d": 437.9519999999902,
      "v": 50
    },
    {
      "midi": 26,
      "hit": false,
      "t": 269541.2080000027,
      "d": 866.7800000000279,
      "v": 110
    },
    {
      "midi": 95,
      "hit": false,
      "t": 269559.45600000204,
      "d": 209.8520000000135,
      "v": 127
    },
    {
      "midi": 71,
      "hit": false,
      "t": 269559.45600000204,
      "d": 209.8520000000135,
      "v": 60
    },
    {
      "midi": 83,
      "hit": false,
      "t": 269559.45600000443,
      "d": 182.47999999998137,
      "v": 120
    },
    {
      "midi": 84,
      "hit": false,
      "t": 269559.45600000443,
      "d": 182.47999999998137,
      "v": 120
    },
    {
      "midi": 49,
      "hit": false,
      "t": 269559.45600001287,
      "d": 9.12400000001071,
      "v": 84
    },
    {
      "midi": 36,
      "hit": false,
      "t": 269559.45600001287,
      "d": 9.12400000001071,
      "v": 84
    },
    {
      "midi": 83,
      "hit": false,
      "t": 269668.9440000044,
      "d": 182.47999999998137,
      "v": 120
    },
    {
      "midi": 83,
      "hit": false,
      "t": 269778.4320000044,
      "d": 182.47999999998137,
      "v": 120
    },
    {
      "midi": 67,
      "hit": false,
      "t": 269970.036,
      "d": 875.9039999999804,
      "v": 60
    },
    {
      "midi": 64,
      "hit": false,
      "t": 269970.036,
      "d": 875.9039999999804,
      "v": 60
    },
    {
      "midi": 48,
      "hit": false,
      "t": 269997.40800001286,
      "d": 9.12400000001071,
      "v": 84
    },
    {
      "midi": 45,
      "hit": false,
      "t": 270216.3840000129,
      "d": 9.12400000001071,
      "v": 84
    },
    {
      "midi": 38,
      "hit": false,
      "t": 270417.11200000276,
      "d": 1058.38400000002,
      "v": 110
    },
    {
      "midi": 49,
      "hit": false,
      "t": 270435.3600000129,
      "d": 9.12400000001071,
      "v": 84
    },
    {
      "midi": 36,
      "hit": false,
      "t": 270435.3600000129,
      "d": 9.12400000001071,
      "v": 84
    },
    {
      "midi": 69,
      "hit": false,
      "t": 270845.94,
      "d": 656.9280000000144,
      "v": 60
    },
    {
      "midi": 65,
      "hit": false,
      "t": 270845.94,
      "d": 656.9280000000144,
      "v": 60
    },
    {
      "midi": 45,
      "hit": false,
      "t": 270873.3120000129,
      "d": 9.12400000001071,
      "v": 84
    },
    {
      "midi": 45,
      "hit": false,
      "t": 271092.2880000129,
      "d": 9.12400000001071,
      "v": 84
    },
    {
      "midi": 41,
      "hit": false,
      "t": 271311.26400001295,
      "d": 9.12400000001071,
      "v": 84
    },
    {
      "midi": 65,
      "hit": false,
      "t": 271502.868,
      "d": 656.9280000000144,
      "v": 60
    },
    {
      "midi": 69,
      "hit": false,
      "t": 271502.868,
      "d": 875.9039999999804,
      "v": 60
    },
    {
      "midi": 31,
      "hit": false,
      "t": 271511.99200000276,
      "d": 401.4560000000056,
      "v": 110
    },
    {
      "midi": 49,
      "hit": false,
      "t": 271530.240000013,
      "d": 9.12400000001071,
      "v": 84
    },
    {
      "midi": 36,
      "hit": false,
      "t": 271530.240000013,
      "d": 9.12400000001071,
      "v": 84
    },
    {
      "midi": 41,
      "hit": false,
      "t": 271749.216000013,
      "d": 9.12400000001071,
      "v": 84
    },
    {
      "midi": 36,
      "hit": false,
      "t": 271968.192000013,
      "d": 9.12400000001071,
      "v": 84
    },
    {
      "midi": 67,
      "hit": false,
      "t": 272159.79600000003,
      "d": 91.23999999999069,
      "v": 60
    },
    {
      "midi": 65,
      "hit": false,
      "t": 272159.79600000003,
      "d": 218.975999999966,
      "v": 60
    },
    {
      "midi": 28,
      "hit": false,
      "t": 272168.9200000028,
      "d": 1058.38400000002,
      "v": 110
    },
    {
      "midi": 49,
      "hit": false,
      "t": 272187.16800001304,
      "d": 9.12400000001071,
      "v": 84
    },
    {
      "midi": 36,
      "hit": false,
      "t": 272187.16800001304,
      "d": 9.12400000001071,
      "v": 84
    },
    {
      "midi": 71,
      "hit": false,
      "t": 272378.772,
      "d": 875.9039999999804,
      "v": 60
    },
    {
      "midi": 67,
      "hit": false,
      "t": 272378.772,
      "d": 875.9039999999804,
      "v": 60
    },
    {
      "midi": 48,
      "hit": false,
      "t": 272625.12000001303,
      "d": 9.12400000001071,
      "v": 84
    },
    {
      "midi": 45,
      "hit": false,
      "t": 272844.09600001306,
      "d": 9.12400000001071,
      "v": 84
    },
    {
      "midi": 41,
      "hit": false,
      "t": 273063.0720000131,
      "d": 9.12400000001071,
      "v": 84
    },
    {
      "midi": 33,
      "hit": false,
      "t": 273263.8000000028,
      "d": 647.8040000000037,
      "v": 110
    },
    {
      "midi": 72,
      "hit": false,
      "t": 273282.04800000146,
      "d": 620.4319999999716,
      "v": 100
    },
    {
      "midi": 67,
      "hit": false,
      "t": 273282.04800000146,
      "d": 620.4319999999716,
      "v": 100
    },
    {
      "midi": 64,
      "hit": false,
      "t": 273282.04800000146,
      "d": 620.4319999999716,
      "v": 100
    },
    {
      "midi": 49,
      "hit": false,
      "t": 273282.0480000131,
      "d": 9.12400000001071,
      "v": 62
    },
    {
      "midi": 36,
      "hit": false,
      "t": 273282.0480000131,
      "d": 9.12400000001071,
      "v": 76
    },
    {
      "midi": 42,
      "hit": false,
      "t": 273501.02400001313,
      "d": 9.12400000001071,
      "v": 70
    },
    {
      "midi": 84,
      "hit": false,
      "t": 273719.9999999998,
      "d": 91.23999999999069,
      "v": 90
    },
    {
      "midi": 79,
      "hit": false,
      "t": 273719.9999999998,
      "d": 91.23999999999069,
      "v": 90
    },
    {
      "midi": 42,
      "hit": false,
      "t": 273720.00000001315,
      "d": 9.12400000001071,
      "v": 98
    },
    {
      "midi": 38,
      "hit": false,
      "t": 273720.00000001315,
      "d": 9.12400000001071,
      "v": 76
    },
    {
      "midi": 33,
      "hit": false,
      "t": 273920.7280000028,
      "d": 209.8520000000135,
      "v": 110
    },
    {
      "midi": 71,
      "hit": false,
      "t": 273938.9760000014,
      "d": 620.4319999999716,
      "v": 100
    },
    {
      "midi": 67,
      "hit": false,
      "t": 273938.9760000014,
      "d": 620.4319999999716,
      "v": 100
    },
    {
      "midi": 62,
      "hit": false,
      "t": 273938.9760000014,
      "d": 620.4319999999716,
      "v": 100
    },
    {
      "midi": 42,
      "hit": false,
      "t": 273938.9760000132,
      "d": 9.12400000001071,
      "v": 70
    },
    {
      "midi": 36,
      "hit": false,
      "t": 273938.9760000132,
      "d": 9.12400000001071,
      "v": 76
    },
    {
      "midi": 84,
      "hit": false,
      "t": 274157.9519999998,
      "d": 91.23999999999069,
      "v": 90
    },
    {
      "midi": 79,
      "hit": false,
      "t": 274157.9519999998,
      "d": 91.23999999999069,
      "v": 90
    },
    {
      "midi": 42,
      "hit": false,
      "t": 274157.9520000132,
      "d": 9.12400000001071,
      "v": 98
    },
    {
      "midi": 28,
      "hit": false,
      "t": 274358.6800000028,
      "d": 100.3640000000014,
      "v": 110
    },
    {
      "midi": 42,
      "hit": false,
      "t": 274376.9280000132,
      "d": 9.12400000001071,
      "v": 70
    },
    {
      "midi": 36,
      "hit": false,
      "t": 274376.9280000132,
      "d": 9.12400000001071,
      "v": 76
    },
    {
      "midi": 33,
      "hit": false,
      "t": 274468.1680000028,
      "d": 100.3640000000014,
      "v": 110
    },
    {
      "midi": 28,
      "hit": false,
      "t": 274577.6560000028,
      "d": 647.8040000000037,
      "v": 110
    },
    {
      "midi": 72,
      "hit": false,
      "t": 274595.9040000014,
      "d": 620.4319999999716,
      "v": 100
    },
    {
      "midi": 67,
      "hit": false,
      "t": 274595.9040000014,
      "d": 620.4319999999716,
      "v": 100
    },
    {
      "midi": 64,
      "hit": false,
      "t": 274595.9040000014,
      "d": 620.4319999999716,
      "v": 100
    },
    {
      "midi": 42,
      "hit": false,
      "t": 274595.90400001325,
      "d": 9.12400000001071,
      "v": 98
    },
    {
      "midi": 38,
      "hit": false,
      "t": 274595.90400001325,
      "d": 9.12400000001071,
      "v": 76
    },
    {
      "midi": 42,
      "hit": false,
      "t": 274814.8800000133,
      "d": 9.12400000001071,
      "v": 70
    },
    {
      "midi": 36,
      "hit": false,
      "t": 274814.8800000133,
      "d": 9.12400000001071,
      "v": 76
    },
    {
      "midi": 42,
      "hit": false,
      "t": 275033.8560000133,
      "d": 9.12400000001071,
      "v": 98
    },
    {
      "midi": 45,
      "hit": false,
      "t": 275234.5840000028,
      "d": 428.8279999999795,
      "v": 110
    },
    {
      "midi": 71,
      "hit": false,
      "t": 275252.83200000133,
      "d": 620.4319999999716,
      "v": 100
    },
    {
      "midi": 67,
      "hit": false,
      "t": 275252.83200000133,
      "d": 620.4319999999716,
      "v": 100
    },
    {
      "midi": 62,
      "hit": false,
      "t": 275252.83200000133,
      "d": 620.4319999999716,
      "v": 100
    },
    {
      "midi": 42,
      "hit": false,
      "t": 275252.8320000133,
      "d": 9.12400000001071,
      "v": 70
    },
    {
      "midi": 36,
      "hit": false,
      "t": 275252.8320000133,
      "d": 9.12400000001071,
      "v": 76
    },
    {
      "midi": 42,
      "hit": false,
      "t": 275471.80800001335,
      "d": 9.12400000001071,
      "v": 98
    },
    {
      "midi": 38,
      "hit": false,
      "t": 275471.80800001335,
      "d": 9.12400000001071,
      "v": 76
    },
    {
      "midi": 33,
      "hit": false,
      "t": 275672.5360000028,
      "d": 866.7800000000279,
      "v": 110
    },
    {
      "midi": 42,
      "hit": false,
      "t": 275690.7840000134,
      "d": 9.12400000001071,
      "v": 70
    },
    {
      "midi": 36,
      "hit": false,
      "t": 275690.7840000134,
      "d": 9.12400000001071,
      "v": 76
    },
    {
      "midi": 72,
      "hit": false,
      "t": 275909.7600000013,
      "d": 839.4079999999958,
      "v": 100
    },
    {
      "midi": 67,
      "hit": false,
      "t": 275909.7600000013,
      "d": 839.4079999999958,
      "v": 100
    },
    {
      "midi": 64,
      "hit": false,
      "t": 275909.7600000013,
      "d": 839.4079999999958,
      "v": 100
    },
    {
      "midi": 42,
      "hit": false,
      "t": 275909.7600000134,
      "d": 9.12400000001071,
      "v": 98
    },
    {
      "midi": 42,
      "hit": false,
      "t": 276128.7360000134,
      "d": 9.12400000001071,
      "v": 70
    },
    {
      "midi": 38,
      "hit": false,
      "t": 276128.7360000134,
      "d": 9.12400000001071,
      "v": 76
    },
    {
      "midi": 53,
      "hit": false,
      "t": 276347.7120000016,
      "d": 9.12400000001071,
      "v": 70
    },
    {
      "midi": 42,
      "hit": false,
      "t": 276347.71200001345,
      "d": 9.12400000001071,
      "v": 98
    },
    {
      "midi": 53,
      "hit": false,
      "t": 276384.20800000156,
      "d": 9.12400000001071,
      "v": 71
    },
    {
      "midi": 53,
      "hit": false,
      "t": 276420.70400000154,
      "d": 9.12400000001071,
      "v": 72
    },
    {
      "midi": 53,
      "hit": false,
      "t": 276457.2000000015,
      "d": 9.12400000001071,
      "v": 73
    },
    {
      "midi": 53,
      "hit": false,
      "t": 276493.6960000015,
      "d": 9.12400000001071,
      "v": 74
    },
    {
      "midi": 53,
      "hit": false,
      "t": 276530.1920000015,
      "d": 9.12400000001071,
      "v": 75
    },
    {
      "midi": 53,
      "hit": false,
      "t": 276566.6880000015,
      "d": 9.12400000001071,
      "v": 76
    },
    {
      "midi": 42,
      "hit": false,
      "t": 276566.68800001347,
      "d": 9.12400000001071,
      "v": 70
    },
    {
      "midi": 36,
      "hit": false,
      "t": 276566.68800001347,
      "d": 9.12400000001071,
      "v": 76
    },
    {
      "midi": 53,
      "hit": false,
      "t": 276603.18400000146,
      "d": 9.12400000001071,
      "v": 77
    },
    {
      "midi": 53,
      "hit": false,
      "t": 276639.68000000145,
      "d": 9.12400000001071,
      "v": 78
    },
    {
      "midi": 53,
      "hit": false,
      "t": 276676.17600000143,
      "d": 9.12400000001071,
      "v": 79
    },
    {
      "midi": 53,
      "hit": false,
      "t": 276712.6720000014,
      "d": 9.12400000001071,
      "v": 80
    },
    {
      "midi": 53,
      "hit": false,
      "t": 276749.1680000014,
      "d": 9.12400000001071,
      "v": 81
    },
    {
      "midi": 29,
      "hit": false,
      "t": 276767.4160000028,
      "d": 273.71999999997206,
      "v": 110
    },
    {
      "midi": 72,
      "hit": false,
      "t": 276785.66400000127,
      "d": 620.4319999999716,
      "v": 100
    },
    {
      "midi": 67,
      "hit": false,
      "t": 276785.66400000127,
      "d": 620.4319999999716,
      "v": 100
    },
    {
      "midi": 64,
      "hit": false,
      "t": 276785.66400000127,
      "d": 620.4319999999716,
      "v": 100
    },
    {
      "midi": 53,
      "hit": false,
      "t": 276785.6640000014,
      "d": 9.12400000001071,
      "v": 82
    },
    {
      "midi": 42,
      "hit": false,
      "t": 276785.6640000135,
      "d": 9.12400000001071,
      "v": 98
    },
    {
      "midi": 36,
      "hit": false,
      "t": 276785.6640000135,
      "d": 9.12400000001071,
      "v": 76
    },
    {
      "midi": 53,
      "hit": false,
      "t": 276822.1600000014,
      "d": 9.12400000001071,
      "v": 83
    },
    {
      "midi": 53,
      "hit": false,
      "t": 276858.65600000136,
      "d": 9.12400000001071,
      "v": 84
    },
    {
      "midi": 42,
      "hit": false,
      "t": 277004.6400000135,
      "d": 9.12400000001071,
      "v": 70
    },
    {
      "midi": 84,
      "hit": false,
      "t": 277223.6159999998,
      "d": 91.23999999999069,
      "v": 90
    },
    {
      "midi": 79,
      "hit": false,
      "t": 277223.6159999998,
      "d": 91.23999999999069,
      "v": 90
    },
    {
      "midi": 42,
      "hit": false,
      "t": 277223.61600001354,
      "d": 9.12400000001071,
      "v": 98
    },
    {
      "midi": 38,
      "hit": false,
      "t": 277223.61600001354,
      "d": 9.12400000001071,
      "v": 76
    },
    {
      "midi": 29,
      "hit": false,
      "t": 277424.3440000028,
      "d": 273.71999999997206,
      "v": 110
    },
    {
      "midi": 71,
      "hit": false,
      "t": 277442.5920000012,
      "d": 620.4319999999716,
      "v": 100
    },
    {
      "midi": 67,
      "hit": false,
      "t": 277442.5920000012,
      "d": 620.4319999999716,
      "v": 100
    },
    {
      "midi": 62,
      "hit": false,
      "t": 277442.5920000012,
      "d": 620.4319999999716,
      "v": 100
    },
    {
      "midi": 42,
      "hit": false,
      "t": 277442.59200001357,
      "d": 9.12400000001071,
      "v": 70
    },
    {
      "midi": 36,
      "hit": false,
      "t": 277442.59200001357,
      "d": 9.12400000001071,
      "v": 76
    },
    {
      "midi": 84,
      "hit": false,
      "t": 277661.5679999998,
      "d": 91.23999999999069,
      "v": 90
    },
    {
      "midi": 79,
      "hit": false,
      "t": 277661.5679999998,
      "d": 91.23999999999069,
      "v": 90
    },
    {
      "midi": 42,
      "hit": false,
      "t": 277661.5680000136,
      "d": 9.12400000001071,
      "v": 98
    },
    {
      "midi": 42,
      "hit": false,
      "t": 277880.5440000136,
      "d": 9.12400000001071,
      "v": 70
    },
    {
      "midi": 36,
      "hit": false,
      "t": 277880.5440000136,
      "d": 9.12400000001071,
      "v": 76
    },
    {
      "midi": 41,
      "hit": false,
      "t": 278081.27200000273,
      "d": 209.8520000000135,
      "v": 110
    },
    {
      "midi": 72,
      "hit": false,
      "t": 278099.5200000012,
      "d": 620.4319999999716,
      "v": 100
    },
    {
      "midi": 67,
      "hit": false,
      "t": 278099.5200000012,
      "d": 620.4319999999716,
      "v": 100
    },
    {
      "midi": 64,
      "hit": false,
      "t": 278099.5200000012,
      "d": 620.4319999999716,
      "v": 100
    },
    {
      "midi": 42,
      "hit": false,
      "t": 278099.52000001364,
      "d": 9.12400000001071,
      "v": 98
    },
    {
      "midi": 38,
      "hit": false,
      "t": 278099.52000001364,
      "d": 9.12400000001071,
      "v": 76
    },
    {
      "midi": 28,
      "hit": false,
      "t": 278300.24800000276,
      "d": 273.72000000003027,
      "v": 110
    },
    {
      "midi": 42,
      "hit": false,
      "t": 278318.49600001366,
      "d": 9.12400000001071,
      "v": 70
    },
    {
      "midi": 36,
      "hit": false,
      "t": 278318.49600001366,
      "d": 9.12400000001071,
      "v": 76
    },
    {
      "midi": 29,
      "hit": false,
      "t": 278519.2240000028,
      "d": 218.97600000002421,
      "v": 110
    },
    {
      "midi": 42,
      "hit": false,
      "t": 278537.4720000137,
      "d": 9.12400000001071,
      "v": 98
    },
    {
      "midi": 41,
      "hit": false,
      "t": 278738.2000000028,
      "d": 428.8279999999795,
      "v": 110
    },
    {
      "midi": 71,
      "hit": false,
      "t": 278756.44800000114,
      "d": 620.4319999999716,
      "v": 100
    },
    {
      "midi": 67,
      "hit": false,
      "t": 278756.44800000114,
      "d": 620.4319999999716,
      "v": 100
    },
    {
      "midi": 62,
      "hit": false,
      "t": 278756.44800000114,
      "d": 620.4319999999716,
      "v": 100
    },
    {
      "midi": 42,
      "hit": false,
      "t": 278756.4480000137,
      "d": 9.12400000001071,
      "v": 70
    },
    {
      "midi": 36,
      "hit": false,
      "t": 278756.4480000137,
      "d": 9.12400000001071,
      "v": 76
    },
    {
      "midi": 42,
      "hit": false,
      "t": 278975.42400001374,
      "d": 9.12400000001071,
      "v": 98
    },
    {
      "midi": 38,
      "hit": false,
      "t": 278975.42400001374,
      "d": 9.12400000001071,
      "v": 76
    },
    {
      "midi": 29,
      "hit": false,
      "t": 279176.1520000028,
      "d": 273.71999999997206,
      "v": 110
    },
    {
      "midi": 42,
      "hit": false,
      "t": 279194.40000001376,
      "d": 9.12400000001071,
      "v": 70
    },
    {
      "midi": 36,
      "hit": false,
      "t": 279194.40000001376,
      "d": 9.12400000001071,
      "v": 76
    },
    {
      "midi": 72,
      "hit": false,
      "t": 279413.3760000011,
      "d": 839.4079999999958,
      "v": 100
    },
    {
      "midi": 67,
      "hit": false,
      "t": 279413.3760000011,
      "d": 839.4079999999958,
      "v": 100
    },
    {
      "midi": 64,
      "hit": false,
      "t": 279413.3760000011,
      "d": 839.4079999999958,
      "v": 100
    },
    {
      "midi": 42,
      "hit": false,
      "t": 279413.3760000138,
      "d": 9.12400000001071,
      "v": 98
    },
    {
      "midi": 42,
      "hit": false,
      "t": 279632.3520000138,
      "d": 9.12400000001071,
      "v": 70
    },
    {
      "midi": 38,
      "hit": false,
      "t": 279632.3520000138,
      "d": 9.12400000001071,
      "v": 76
    },
    {
      "midi": 53,
      "hit": false,
      "t": 279851.3280000014,
      "d": 9.12400000001071,
      "v": 70
    },
    {
      "midi": 42,
      "hit": false,
      "t": 279851.32800001383,
      "d": 9.12400000001071,
      "v": 98
    },
    {
      "midi": 53,
      "hit": false,
      "t": 279887.82400000136,
      "d": 9.12400000001071,
      "v": 71
    },
    {
      "midi": 53,
      "hit": false,
      "t": 279924.32000000135,
      "d": 9.12400000001071,
      "v": 72
    },
    {
      "midi": 53,
      "hit": false,
      "t": 279960.81600000133,
      "d": 9.12400000001071,
      "v": 73
    },
    {
      "midi": 53,
      "hit": false,
      "t": 279997.3120000013,
      "d": 9.12400000001071,
      "v": 74
    },
    {
      "midi": 53,
      "hit": false,
      "t": 280033.8080000013,
      "d": 9.12400000001071,
      "v": 75
    },
    {
      "midi": 53,
      "hit": false,
      "t": 280070.3040000013,
      "d": 9.12400000001071,
      "v": 76
    },
    {
      "midi": 42,
      "hit": false,
      "t": 280070.30400001386,
      "d": 9.12400000001071,
      "v": 70
    },
    {
      "midi": 36,
      "hit": false,
      "t": 280070.30400001386,
      "d": 9.12400000001071,
      "v": 76
    },
    {
      "midi": 53,
      "hit": false,
      "t": 280106.80000000127,
      "d": 9.12400000001071,
      "v": 77
    },
    {
      "midi": 53,
      "hit": false,
      "t": 280143.29600000125,
      "d": 9.12400000001071,
      "v": 78
    },
    {
      "midi": 53,
      "hit": false,
      "t": 280179.79200000124,
      "d": 9.12400000001071,
      "v": 79
    },
    {
      "midi": 53,
      "hit": false,
      "t": 280216.2880000012,
      "d": 9.12400000001071,
      "v": 80
    },
    {
      "midi": 53,
      "hit": false,
      "t": 280252.7840000012,
      "d": 9.12400000001071,
      "v": 81
    },
    {
      "midi": 33,
      "hit": false,
      "t": 280271.03200000274,
      "d": 647.8040000000037,
      "v": 110
    },
    {
      "midi": 72,
      "hit": false,
      "t": 280289.2800000011,
      "d": 620.4319999999716,
      "v": 100
    },
    {
      "midi": 67,
      "hit": false,
      "t": 280289.2800000011,
      "d": 620.4319999999716,
      "v": 100
    },
    {
      "midi": 64,
      "hit": false,
      "t": 280289.2800000011,
      "d": 620.4319999999716,
      "v": 100
    },
    {
      "midi": 53,
      "hit": false,
      "t": 280289.2800000012,
      "d": 9.12400000001071,
      "v": 82
    },
    {
      "midi": 49,
      "hit": false,
      "t": 280289.2800000139,
      "d": 9.12400000001071,
      "v": 62
    },
    {
      "midi": 36,
      "hit": false,
      "t": 280289.2800000139,
      "d": 9.12400000001071,
      "v": 76
    },
    {
      "midi": 53,
      "hit": false,
      "t": 280325.7760000012,
      "d": 9.12400000001071,
      "v": 83
    },
    {
      "midi": 53,
      "hit": false,
      "t": 280362.27200000116,
      "d": 9.12400000001071,
      "v": 84
    },
    {
      "midi": 42,
      "hit": false,
      "t": 280508.2560000139,
      "d": 9.12400000001071,
      "v": 70
    },
    {
      "midi": 84,
      "hit": false,
      "t": 280727.2319999998,
      "d": 91.23999999999069,
      "v": 90
    },
    {
      "midi": 79,
      "hit": false,
      "t": 280727.2319999998,
      "d": 91.23999999999069,
      "v": 90
    },
    {
      "midi": 42,
      "hit": false,
      "t": 280727.23200001393,
      "d": 9.12400000001071,
      "v": 98
    },
    {
      "midi": 38,
      "hit": false,
      "t": 280727.23200001393,
      "d": 9.12400000001071,
      "v": 76
    },
    {
      "midi": 33,
      "hit": false,
      "t": 280927.96000000276,
      "d": 209.8520000000135,
      "v": 110
    },
    {
      "midi": 71,
      "hit": false,
      "t": 280946.20800000103,
      "d": 620.4319999999716,
      "v": 100
    },
    {
      "midi": 67,
      "hit": false,
      "t": 280946.20800000103,
      "d": 620.4319999999716,
      "v": 100
    },
    {
      "midi": 62,
      "hit": false,
      "t": 280946.20800000103,
      "d": 620.4319999999716,
      "v": 100
    },
    {
      "midi": 42,
      "hit": false,
      "t": 280946.20800001395,
      "d": 9.12400000001071,
      "v": 70
    },
    {
      "midi": 36,
      "hit": false,
      "t": 280946.20800001395,
      "d": 9.12400000001071,
      "v": 76
    },
    {
      "midi": 84,
      "hit": false,
      "t": 281165.1839999998,
      "d": 91.23999999999069,
      "v": 90
    },
    {
      "midi": 79,
      "hit": false,
      "t": 281165.1839999998,
      "d": 91.23999999999069,
      "v": 90
    },
    {
      "midi": 42,
      "hit": false,
      "t": 281165.184000014,
      "d": 9.12400000001071,
      "v": 98
    },
    {
      "midi": 28,
      "hit": false,
      "t": 281365.91200000275,
      "d": 100.3640000000014,
      "v": 110
    },
    {
      "midi": 42,
      "hit": false,
      "t": 281384.160000014,
      "d": 9.12400000001071,
      "v": 70
    },
    {
      "midi": 36,
      "hit": false,
      "t": 281384.160000014,
      "d": 9.12400000001071,
      "v": 76
    },
    {
      "midi": 33,
      "hit": false,
      "t": 281475.40000000276,
      "d": 100.3640000000014,
      "v": 110
    },
    {
      "midi": 28,
      "hit": false,
      "t": 281584.8880000028,
      "d": 647.8040000000037,
      "v": 110
    },
    {
      "midi": 72,
      "hit": false,
      "t": 281603.136000001,
      "d": 620.4319999999716,
      "v": 100
    },
    {
      "midi": 67,
      "hit": false,
      "t": 281603.136000001,
      "d": 620.4319999999716,
      "v": 100
    },
    {
      "midi": 64,
      "hit": false,
      "t": 281603.136000001,
      "d": 620.4319999999716,
      "v": 100
    },
    {
      "midi": 42,
      "hit": false,
      "t": 281603.136000014,
      "d": 9.12400000001071,
      "v": 98
    },
    {
      "midi": 38,
      "hit": false,
      "t": 281603.136000014,
      "d": 9.12400000001071,
      "v": 76
    },
    {
      "midi": 42,
      "hit": false,
      "t": 281822.11200001405,
      "d": 9.12400000001071,
      "v": 70
    },
    {
      "midi": 36,
      "hit": false,
      "t": 281822.11200001405,
      "d": 9.12400000001071,
      "v": 76
    },
    {
      "midi": 42,
      "hit": false,
      "t": 282041.0880000141,
      "d": 9.12400000001071,
      "v": 98
    },
    {
      "midi": 45,
      "hit": false,
      "t": 282241.8160000028,
      "d": 428.8279999999795,
      "v": 110
    },
    {
      "midi": 71,
      "hit": false,
      "t": 282260.06400000094,
      "d": 620.4319999999716,
      "v": 100
    },
    {
      "midi": 67,
      "hit": false,
      "t": 282260.06400000094,
      "d": 620.4319999999716,
      "v": 100
    },
    {
      "midi": 62,
      "hit": false,
      "t": 282260.06400000094,
      "d": 620.4319999999716,
      "v": 100
    },
    {
      "midi": 42,
      "hit": false,
      "t": 282260.0640000141,
      "d": 9.12400000001071,
      "v": 70
    },
    {
      "midi": 36,
      "hit": false,
      "t": 282260.0640000141,
      "d": 9.12400000001071,
      "v": 76
    },
    {
      "midi": 42,
      "hit": false,
      "t": 282479.0400000141,
      "d": 9.12400000001071,
      "v": 98
    },
    {
      "midi": 38,
      "hit": false,
      "t": 282479.0400000141,
      "d": 9.12400000001071,
      "v": 76
    },
    {
      "midi": 33,
      "hit": false,
      "t": 282679.7680000028,
      "d": 866.7800000000279,
      "v": 110
    },
    {
      "midi": 42,
      "hit": false,
      "t": 282698.01600001415,
      "d": 9.12400000001071,
      "v": 70
    },
    {
      "midi": 36,
      "hit": false,
      "t": 282698.01600001415,
      "d": 9.12400000001071,
      "v": 76
    },
    {
      "midi": 72,
      "hit": false,
      "t": 282916.9920000009,
      "d": 839.4079999999958,
      "v": 100
    },
    {
      "midi": 67,
      "hit": false,
      "t": 282916.9920000009,
      "d": 839.4079999999958,
      "v": 100
    },
    {
      "midi": 64,
      "hit": false,
      "t": 282916.9920000009,
      "d": 839.4079999999958,
      "v": 100
    },
    {
      "midi": 42,
      "hit": false,
      "t": 282916.9920000142,
      "d": 9.12400000001071,
      "v": 98
    },
    {
      "midi": 42,
      "hit": false,
      "t": 283135.9680000142,
      "d": 9.12400000001071,
      "v": 70
    },
    {
      "midi": 38,
      "hit": false,
      "t": 283135.9680000142,
      "d": 9.12400000001071,
      "v": 76
    },
    {
      "midi": 53,
      "hit": false,
      "t": 283354.9440000012,
      "d": 9.12400000001071,
      "v": 70
    },
    {
      "midi": 42,
      "hit": false,
      "t": 283354.9440000142,
      "d": 9.12400000001071,
      "v": 98
    },
    {
      "midi": 53,
      "hit": false,
      "t": 283391.44000000117,
      "d": 9.12400000001071,
      "v": 71
    },
    {
      "midi": 53,
      "hit": false,
      "t": 283427.93600000115,
      "d": 9.12400000001071,
      "v": 72
    },
    {
      "midi": 53,
      "hit": false,
      "t": 283464.43200000114,
      "d": 9.12400000001071,
      "v": 73
    },
    {
      "midi": 53,
      "hit": false,
      "t": 283500.9280000011,
      "d": 9.12400000001071,
      "v": 74
    },
    {
      "midi": 53,
      "hit": false,
      "t": 283537.4240000011,
      "d": 9.12400000001071,
      "v": 75
    },
    {
      "midi": 53,
      "hit": false,
      "t": 283573.9200000011,
      "d": 9.12400000001071,
      "v": 76
    },
    {
      "midi": 42,
      "hit": false,
      "t": 283573.92000001424,
      "d": 9.12400000001071,
      "v": 70
    },
    {
      "midi": 36,
      "hit": false,
      "t": 283573.92000001424,
      "d": 9.12400000001071,
      "v": 76
    },
    {
      "midi": 53,
      "hit": false,
      "t": 283610.4160000011,
      "d": 9.12400000001071,
      "v": 77
    },
    {
      "midi": 53,
      "hit": false,
      "t": 283646.91200000106,
      "d": 9.12400000001071,
      "v": 78
    },
    {
      "midi": 53,
      "hit": false,
      "t": 283683.40800000104,
      "d": 9.12400000001071,
      "v": 79
    },
    {
      "midi": 53,
      "hit": false,
      "t": 283719.904000001,
      "d": 9.12400000001071,
      "v": 80
    },
    {
      "midi": 53,
      "hit": false,
      "t": 283756.400000001,
      "d": 9.12400000001071,
      "v": 81
    },
    {
      "midi": 29,
      "hit": false,
      "t": 283774.6480000028,
      "d": 273.71999999997206,
      "v": 110
    },
    {
      "midi": 72,
      "hit": false,
      "t": 283792.8960000009,
      "d": 620.4319999999716,
      "v": 100
    },
    {
      "midi": 67,
      "hit": false,
      "t": 283792.8960000009,
      "d": 620.4319999999716,
      "v": 100
    },
    {
      "midi": 64,
      "hit": false,
      "t": 283792.8960000009,
      "d": 620.4319999999716,
      "v": 100
    },
    {
      "midi": 53,
      "hit": false,
      "t": 283792.896000001,
      "d": 9.12400000001071,
      "v": 82
    },
    {
      "midi": 42,
      "hit": false,
      "t": 283792.89600001427,
      "d": 9.12400000001071,
      "v": 98
    },
    {
      "midi": 36,
      "hit": false,
      "t": 283792.89600001427,
      "d": 9.12400000001071,
      "v": 76
    },
    {
      "midi": 53,
      "hit": false,
      "t": 283829.392000001,
      "d": 9.12400000001071,
      "v": 83
    },
    {
      "midi": 53,
      "hit": false,
      "t": 283865.88800000097,
      "d": 9.12400000001071,
      "v": 84
    },
    {
      "midi": 42,
      "hit": false,
      "t": 284011.8720000143,
      "d": 9.12400000001071,
      "v": 70
    },
    {
      "midi": 84,
      "hit": false,
      "t": 284230.84799999977,
      "d": 91.23999999999069,
      "v": 90
    },
    {
      "midi": 79,
      "hit": false,
      "t": 284230.84799999977,
      "d": 91.23999999999069,
      "v": 90
    },
    {
      "midi": 42,
      "hit": false,
      "t": 284230.8480000143,
      "d": 9.12400000001071,
      "v": 98
    },
    {
      "midi": 38,
      "hit": false,
      "t": 284230.8480000143,
      "d": 9.12400000001071,
      "v": 76
    },
    {
      "midi": 29,
      "hit": false,
      "t": 284431.57600000274,
      "d": 273.71999999997206,
      "v": 110
    },
    {
      "midi": 71,
      "hit": false,
      "t": 284449.82400000084,
      "d": 620.4319999999716,
      "v": 100
    },
    {
      "midi": 67,
      "hit": false,
      "t": 284449.82400000084,
      "d": 620.4319999999716,
      "v": 100
    },
    {
      "midi": 62,
      "hit": false,
      "t": 284449.82400000084,
      "d": 620.4319999999716,
      "v": 100
    },
    {
      "midi": 42,
      "hit": false,
      "t": 284449.82400001434,
      "d": 9.12400000001071,
      "v": 70
    },
    {
      "midi": 36,
      "hit": false,
      "t": 284449.82400001434,
      "d": 9.12400000001071,
      "v": 76
    },
    {
      "midi": 84,
      "hit": false,
      "t": 284668.79999999976,
      "d": 91.23999999999069,
      "v": 90
    },
    {
      "midi": 79,
      "hit": false,
      "t": 284668.79999999976,
      "d": 91.23999999999069,
      "v": 90
    },
    {
      "midi": 42,
      "hit": false,
      "t": 284668.80000001437,
      "d": 9.12400000001071,
      "v": 98
    },
    {
      "midi": 42,
      "hit": false,
      "t": 284887.7760000144,
      "d": 9.12400000001071,
      "v": 70
    },
    {
      "midi": 36,
      "hit": false,
      "t": 284887.7760000144,
      "d": 9.12400000001071,
      "v": 76
    },
    {
      "midi": 41,
      "hit": false,
      "t": 285088.5040000027,
      "d": 209.8520000000135,
      "v": 110
    },
    {
      "midi": 72,
      "hit": false,
      "t": 285106.7520000008,
      "d": 620.4319999999716,
      "v": 100
    },
    {
      "midi": 67,
      "hit": false,
      "t": 285106.7520000008,
      "d": 620.4319999999716,
      "v": 100
    },
    {
      "midi": 64,
      "hit": false,
      "t": 285106.7520000008,
      "d": 620.4319999999716,
      "v": 100
    },
    {
      "midi": 42,
      "hit": false,
      "t": 285106.7520000144,
      "d": 9.12400000001071,
      "v": 98
    },
    {
      "midi": 38,
      "hit": false,
      "t": 285106.7520000144,
      "d": 9.12400000001071,
      "v": 76
    },
    {
      "midi": 28,
      "hit": false,
      "t": 285307.4800000027,
      "d": 273.72000000003027,
      "v": 110
    },
    {
      "midi": 42,
      "hit": false,
      "t": 285325.72800001444,
      "d": 9.12400000001071,
      "v": 70
    },
    {
      "midi": 36,
      "hit": false,
      "t": 285325.72800001444,
      "d": 9.12400000001071,
      "v": 76
    },
    {
      "midi": 29,
      "hit": false,
      "t": 285526.45600000274,
      "d": 218.97600000002421,
      "v": 110
    },
    {
      "midi": 42,
      "hit": false,
      "t": 285544.70400001446,
      "d": 9.12400000001071,
      "v": 98
    },
    {
      "midi": 41,
      "hit": false,
      "t": 285745.43200000277,
      "d": 428.8279999999795,
      "v": 110
    },
    {
      "midi": 71,
      "hit": false,
      "t": 285763.68000000075,
      "d": 620.4319999999716,
      "v": 100
    },
    {
      "midi": 67,
      "hit": false,
      "t": 285763.68000000075,
      "d": 620.4319999999716,
      "v": 100
    },
    {
      "midi": 62,
      "hit": false,
      "t": 285763.68000000075,
      "d": 620.4319999999716,
      "v": 100
    },
    {
      "midi": 42,
      "hit": false,
      "t": 285763.6800000145,
      "d": 9.12400000001071,
      "v": 70
    },
    {
      "midi": 36,
      "hit": false,
      "t": 285763.6800000145,
      "d": 9.12400000001071,
      "v": 76
    },
    {
      "midi": 42,
      "hit": false,
      "t": 285982.6560000145,
      "d": 9.12400000001071,
      "v": 98
    },
    {
      "midi": 38,
      "hit": false,
      "t": 285982.6560000145,
      "d": 9.12400000001071,
      "v": 76
    },
    {
      "midi": 29,
      "hit": false,
      "t": 286183.38400000276,
      "d": 273.71999999997206,
      "v": 110
    },
    {
      "midi": 42,
      "hit": false,
      "t": 286201.63200001454,
      "d": 9.12400000001071,
      "v": 70
    },
    {
      "midi": 36,
      "hit": false,
      "t": 286201.63200001454,
      "d": 9.12400000001071,
      "v": 76
    },
    {
      "midi": 72,
      "hit": false,
      "t": 286420.6080000007,
      "d": 839.4079999999958,
      "v": 100
    },
    {
      "midi": 67,
      "hit": false,
      "t": 286420.6080000007,
      "d": 839.4079999999958,
      "v": 100
    },
    {
      "midi": 64,
      "hit": false,
      "t": 286420.6080000007,
      "d": 839.4079999999958,
      "v": 100
    },
    {
      "midi": 42,
      "hit": false,
      "t": 286420.60800001456,
      "d": 9.12400000001071,
      "v": 98
    },
    {
      "midi": 42,
      "hit": false,
      "t": 286639.5840000146,
      "d": 9.12400000001071,
      "v": 70
    },
    {
      "midi": 38,
      "hit": false,
      "t": 286639.5840000146,
      "d": 9.12400000001071,
      "v": 76
    },
    {
      "midi": 53,
      "hit": false,
      "t": 286858.560000001,
      "d": 9.12400000001071,
      "v": 70
    },
    {
      "midi": 42,
      "hit": false,
      "t": 286858.5600000146,
      "d": 9.12400000001071,
      "v": 98
    },
    {
      "midi": 53,
      "hit": false,
      "t": 286895.056000001,
      "d": 9.12400000001071,
      "v": 71
    },
    {
      "midi": 53,
      "hit": false,
      "t": 286931.55200000096,
      "d": 9.12400000001071,
      "v": 72
    },
    {
      "midi": 53,
      "hit": false,
      "t": 286968.04800000094,
      "d": 9.12400000001071,
      "v": 73
    },
    {
      "midi": 53,
      "hit": false,
      "t": 287004.5440000009,
      "d": 9.12400000001071,
      "v": 74
    },
    {
      "midi": 53,
      "hit": false,
      "t": 287041.0400000009,
      "d": 9.12400000001071,
      "v": 75
    },
    {
      "midi": 53,
      "hit": false,
      "t": 287077.5360000009,
      "d": 9.12400000001071,
      "v": 76
    },
    {
      "midi": 42,
      "hit": false,
      "t": 287077.53600001463,
      "d": 9.12400000001071,
      "v": 70
    },
    {
      "midi": 36,
      "hit": false,
      "t": 287077.53600001463,
      "d": 9.12400000001071,
      "v": 76
    },
    {
      "midi": 53,
      "hit": false,
      "t": 287114.0320000009,
      "d": 9.12400000001071,
      "v": 77
    },
    {
      "midi": 53,
      "hit": false,
      "t": 287150.52800000086,
      "d": 9.12400000001071,
      "v": 78
    },
    {
      "midi": 53,
      "hit": false,
      "t": 287187.02400000085,
      "d": 9.12400000001071,
      "v": 79
    },
    {
      "midi": 53,
      "hit": false,
      "t": 287223.52000000083,
      "d": 9.12400000001071,
      "v": 80
    },
    {
      "midi": 53,
      "hit": false,
      "t": 287260.0160000008,
      "d": 9.12400000001071,
      "v": 81
    },
    {
      "midi": 31,
      "hit": false,
      "t": 287278.2640000027,
      "d": 647.8040000000037,
      "v": 110
    },
    {
      "midi": 72,
      "hit": false,
      "t": 287296.5120000007,
      "d": 620.4319999999716,
      "v": 100
    },
    {
      "midi": 67,
      "hit": false,
      "t": 287296.5120000007,
      "d": 620.4319999999716,
      "v": 100
    },
    {
      "midi": 62,
      "hit": false,
      "t": 287296.5120000007,
      "d": 620.4319999999716,
      "v": 100
    },
    {
      "midi": 53,
      "hit": false,
      "t": 287296.5120000008,
      "d": 9.12400000001071,
      "v": 82
    },
    {
      "midi": 42,
      "hit": false,
      "t": 287296.51200001466,
      "d": 9.12400000001071,
      "v": 98
    },
    {
      "midi": 36,
      "hit": false,
      "t": 287296.51200001466,
      "d": 9.12400000001071,
      "v": 76
    },
    {
      "midi": 53,
      "hit": false,
      "t": 287333.0080000008,
      "d": 9.12400000001071,
      "v": 83
    },
    {
      "midi": 53,
      "hit": false,
      "t": 287369.5040000008,
      "d": 9.12400000001071,
      "v": 84
    },
    {
      "midi": 42,
      "hit": false,
      "t": 287515.4880000147,
      "d": 9.12400000001071,
      "v": 70
    },
    {
      "midi": 84,
      "hit": false,
      "t": 287734.46399999975,
      "d": 91.23999999999069,
      "v": 90
    },
    {
      "midi": 79,
      "hit": false,
      "t": 287734.46399999975,
      "d": 91.23999999999069,
      "v": 90
    },
    {
      "midi": 42,
      "hit": false,
      "t": 287734.4640000147,
      "d": 9.12400000001071,
      "v": 98
    },
    {
      "midi": 38,
      "hit": false,
      "t": 287734.4640000147,
      "d": 9.12400000001071,
      "v": 76
    },
    {
      "midi": 31,
      "hit": false,
      "t": 287935.1920000027,
      "d": 273.71999999997206,
      "v": 110
    },
    {
      "midi": 71,
      "hit": false,
      "t": 287953.44000000064,
      "d": 620.4319999999716,
      "v": 100
    },
    {
      "midi": 67,
      "hit": false,
      "t": 287953.44000000064,
      "d": 620.4319999999716,
      "v": 100
    },
    {
      "midi": 62,
      "hit": false,
      "t": 287953.44000000064,
      "d": 620.4319999999716,
      "v": 100
    },
    {
      "midi": 42,
      "hit": false,
      "t": 287953.4400000147,
      "d": 9.12400000001071,
      "v": 70
    },
    {
      "midi": 36,
      "hit": false,
      "t": 287953.4400000147,
      "d": 9.12400000001071,
      "v": 76
    },
    {
      "midi": 84,
      "hit": false,
      "t": 288172.41599999974,
      "d": 91.23999999999069,
      "v": 90
    },
    {
      "midi": 79,
      "hit": false,
      "t": 288172.41599999974,
      "d": 91.23999999999069,
      "v": 90
    },
    {
      "midi": 42,
      "hit": false,
      "t": 288172.41600001475,
      "d": 9.12400000001071,
      "v": 98
    },
    {
      "midi": 42,
      "hit": false,
      "t": 288391.3920000148,
      "d": 9.12400000001071,
      "v": 70
    },
    {
      "midi": 36,
      "hit": false,
      "t": 288391.3920000148,
      "d": 9.12400000001071,
      "v": 76
    },
    {
      "midi": 72,
      "hit": false,
      "t": 288610.3680000006,
      "d": 620.4319999999716,
      "v": 100
    },
    {
      "midi": 67,
      "hit": false,
      "t": 288610.3680000006,
      "d": 620.4319999999716,
      "v": 100
    },
    {
      "midi": 62,
      "hit": false,
      "t": 288610.3680000006,
      "d": 620.4319999999716,
      "v": 100
    },
    {
      "midi": 42,
      "hit": false,
      "t": 288610.3680000148,
      "d": 9.12400000001071,
      "v": 98
    },
    {
      "midi": 38,
      "hit": false,
      "t": 288610.3680000148,
      "d": 9.12400000001071,
      "v": 76
    },
    {
      "midi": 28,
      "hit": false,
      "t": 288811.0960000027,
      "d": 209.8520000000135,
      "v": 110
    },
    {
      "midi": 42,
      "hit": false,
      "t": 288829.3440000148,
      "d": 9.12400000001071,
      "v": 70
    },
    {
      "midi": 36,
      "hit": false,
      "t": 288829.3440000148,
      "d": 9.12400000001071,
      "v": 76
    },
    {
      "midi": 31,
      "hit": false,
      "t": 289030.0720000027,
      "d": 209.8520000000135,
      "v": 110
    },
    {
      "midi": 42,
      "hit": false,
      "t": 289048.32000001485,
      "d": 9.12400000001071,
      "v": 98
    },
    {
      "midi": 43,
      "hit": false,
      "t": 289249.04800000275,
      "d": 273.71999999997206,
      "v": 110
    },
    {
      "midi": 71,
      "hit": false,
      "t": 289267.29600000056,
      "d": 620.4319999999716,
      "v": 100
    },
    {
      "midi": 67,
      "hit": false,
      "t": 289267.29600000056,
      "d": 620.4319999999716,
      "v": 100
    },
    {
      "midi": 62,
      "hit": false,
      "t": 289267.29600000056,
      "d": 620.4319999999716,
      "v": 100
    },
    {
      "midi": 42,
      "hit": false,
      "t": 289267.2960000149,
      "d": 9.12400000001071,
      "v": 70
    },
    {
      "midi": 36,
      "hit": false,
      "t": 289267.2960000149,
      "d": 9.12400000001071,
      "v": 76
    },
    {
      "midi": 42,
      "hit": false,
      "t": 289486.2720000149,
      "d": 9.12400000001071,
      "v": 98
    },
    {
      "midi": 38,
      "hit": false,
      "t": 289486.2720000149,
      "d": 9.12400000001071,
      "v": 76
    },
    {
      "midi": 31,
      "hit": false,
      "t": 289687.00000000274,
      "d": 364.96000000002095,
      "v": 110
    },
    {
      "midi": 42,
      "hit": false,
      "t": 289705.2480000149,
      "d": 9.12400000001071,
      "v": 70
    },
    {
      "midi": 36,
      "hit": false,
      "t": 289705.2480000149,
      "d": 9.12400000001071,
      "v": 76
    },
    {
      "midi": 84,
      "hit": false,
      "t": 289924.22399999975,
      "d": 91.23999999999069,
      "v": 90
    },
    {
      "midi": 79,
      "hit": false,
      "t": 289924.22399999975,
      "d": 91.23999999999069,
      "v": 90
    },
    {
      "midi": 72,
      "hit": false,
      "t": 289924.2240000005,
      "d": 839.4079999999958,
      "v": 100
    },
    {
      "midi": 67,
      "hit": false,
      "t": 289924.2240000005,
      "d": 839.4079999999958,
      "v": 100
    },
    {
      "midi": 62,
      "hit": false,
      "t": 289924.2240000005,
      "d": 839.4079999999958,
      "v": 100
    },
    {
      "midi": 48,
      "hit": false,
      "t": 289924.2240000008,
      "d": 9.12400000001071,
      "v": 42
    },
    {
      "midi": 48,
      "hit": false,
      "t": 289924.22400001495,
      "d": 9.12400000001071,
      "v": 84
    },
    {
      "midi": 48,
      "hit": false,
      "t": 289978.9680000008,
      "d": 9.12400000001071,
      "v": 42
    },
    {
      "midi": 48,
      "hit": false,
      "t": 289978.96800001495,
      "d": 9.12400000001071,
      "v": 84
    },
    {
      "midi": 48,
      "hit": false,
      "t": 290033.7120000008,
      "d": 9.12400000001071,
      "v": 42
    },
    {
      "midi": 48,
      "hit": false,
      "t": 290033.71200001496,
      "d": 9.12400000001071,
      "v": 84
    },
    {
      "midi": 45,
      "hit": false,
      "t": 290143.2000000008,
      "d": 9.12400000001071,
      "v": 42
    },
    {
      "midi": 45,
      "hit": false,
      "t": 290143.200000015,
      "d": 9.12400000001071,
      "v": 84
    },
    {
      "midi": 45,
      "hit": false,
      "t": 290252.68800000084,
      "d": 9.12400000001071,
      "v": 42
    },
    {
      "midi": 45,
      "hit": false,
      "t": 290252.688000015,
      "d": 9.12400000001071,
      "v": 84
    },
    {
      "midi": 45,
      "hit": false,
      "t": 290307.43200000084,
      "d": 9.12400000001071,
      "v": 42
    },
    {
      "midi": 45,
      "hit": false,
      "t": 290307.432000015,
      "d": 9.12400000001071,
      "v": 84
    },
    {
      "midi": 84,
      "hit": false,
      "t": 290362.17599999974,
      "d": 91.23999999999069,
      "v": 90
    },
    {
      "midi": 79,
      "hit": false,
      "t": 290362.17599999974,
      "d": 91.23999999999069,
      "v": 90
    },
    {
      "midi": 45,
      "hit": false,
      "t": 290362.17600000085,
      "d": 9.12400000001071,
      "v": 42
    },
    {
      "midi": 45,
      "hit": false,
      "t": 290362.176000015,
      "d": 9.12400000001071,
      "v": 84
    },
    {
      "midi": 41,
      "hit": false,
      "t": 290471.66400000086,
      "d": 9.12400000001071,
      "v": 42
    },
    {
      "midi": 41,
      "hit": false,
      "t": 290471.664000015,
      "d": 9.12400000001071,
      "v": 84
    },
    {
      "midi": 41,
      "hit": false,
      "t": 290581.1520000009,
      "d": 9.12400000001071,
      "v": 42
    },
    {
      "midi": 41,
      "hit": false,
      "t": 290581.152000015,
      "d": 9.12400000001071,
      "v": 84
    },
    {
      "midi": 41,
      "hit": false,
      "t": 290635.8960000009,
      "d": 9.12400000001071,
      "v": 42
    },
    {
      "midi": 41,
      "hit": false,
      "t": 290635.896000015,
      "d": 9.12400000001071,
      "v": 84
    },
    {
      "midi": 41,
      "hit": false,
      "t": 290690.6400000009,
      "d": 9.12400000001071,
      "v": 42
    },
    {
      "midi": 41,
      "hit": false,
      "t": 290690.64000001503,
      "d": 9.12400000001071,
      "v": 84
    },
    {
      "midi": 33,
      "hit": false,
      "t": 290781.88000000274,
      "d": 3494.4920000000275,
      "v": 110
    },
    {
      "midi": 85,
      "hit": false,
      "t": 290800.12799999974,
      "d": 91.23999999999069,
      "v": 90
    },
    {
      "midi": 81,
      "hit": false,
      "t": 290800.12799999974,
      "d": 91.23999999999069,
      "v": 90
    },
    {
      "midi": 73,
      "hit": false,
      "t": 290800.1280000005,
      "d": 3494.4920000000275,
      "v": 100
    },
    {
      "midi": 69,
      "hit": false,
      "t": 290800.1280000005,
      "d": 3494.4920000000275,
      "v": 100
    },
    {
      "midi": 64,
      "hit": false,
      "t": 290800.1280000005,
      "d": 3494.4920000000275,
      "v": 100
    },
    {
      "midi": 49,
      "hit": false,
      "t": 290800.12800001504,
      "d": 9.12400000001071,
      "v": 84
    },
    {
      "midi": 36,
      "hit": false,
      "t": 290800.12800001504,
      "d": 9.12400000001071,
      "v": 84
    },
    {
      "midi": 85,
      "hit": false,
      "t": 291238.0799999997,
      "d": 91.23999999999069,
      "v": 90
    },
    {
      "midi": 81,
      "hit": false,
      "t": 291238.0799999997,
      "d": 91.23999999999069,
      "v": 90
    }
  ]
}