{
  "jsonPath": "Unknown/Unknown/The World-Band/falling-into-you.json",
  "path": "Unknown\\Unknown\\The World-Band\\Falling Into You.mid",
  "name": "Falling Into You",
  "difficulty": "Advanced",
  "bpm": 96,
  "notes": [
    {
      "midi": 74,
      "hit": false,
      "t": 50006.510416666664,
      "d": 1718.75,
      "v": 71
    },
    {
      "midi": 81,
      "hit": false,
      "t": 50006.510416666664,
      "d": 1718.75,
      "v": 71
    },
    {
      "midi": 70,
      "hit": false,
      "t": 50006.510416666664,
      "d": 1738.28125,
      "v": 71
    },
    {
      "midi": 76,
      "hit": false,
      "t": 52506.510416666664,
      "d": 2031.25,
      "v": 65
    },
    {
      "midi": 79,
      "hit": false,
      "t": 52506.510416666664,
      "d": 2031.25,
      "v": 65
    },
    {
      "midi": 81,
      "hit": false,
      "t": 55006.510416666664,
      "d": 1777.34375,
      "v": 71
    },
    {
      "midi": 70,
      "hit": false,
      "t": 55006.510416666664,
      "d": 1796.875,
      "v": 71
    },
    {
      "midi": 74,
      "hit": false,
      "t": 55006.510416666664,
      "d": 1796.875,
      "v": 71
    },
    {
      "midi": 76,
      "hit": false,
      "t": 57506.510416666664,
      "d": 2031.25,
      "v": 65
    },
    {
      "midi": 79,
      "hit": false,
      "t": 57506.510416666664,
      "d": 2031.25,
      "v": 65
    },
    {
      "midi": 74,
      "hit": false,
      "t": 60006.510416666664,
      "d": 1210.9375,
      "v": 71
    },
    {
      "midi": 81,
      "hit": false,
      "t": 60006.510416666664,
      "d": 1210.9375,
      "v": 71
    },
    {
      "midi": 70,
      "hit": false,
      "t": 60006.510416666664,
      "d": 1250,
      "v": 71
    },
    {
      "midi": 77,
      "hit": false,
      "t": 61881.510416666664,
      "d": 299.47916666666424,
      "v": 115
    },
    {
      "midi": 72,
      "hit": false,
      "t": 61881.510416666664,
      "d": 546.8749999999927,
      "v": 92
    },
    {
      "midi": 76,
      "hit": false,
      "t": 62194.01041666666,
      "d": 201.82291666666424,
      "v": 78
    },
    {
      "midi": 72,
      "hit": false,
      "t": 62506.51041666666,
      "d": 175.78125,
      "v": 56
    },
    {
      "midi": 77,
      "hit": false,
      "t": 62506.51041666666,
      "d": 227.86458333333576,
      "v": 104
    },
    {
      "midi": 76,
      "hit": false,
      "t": 62819.01041666666,
      "d": 110.67708333333576,
      "v": 80
    },
    {
      "midi": 72,
      "hit": false,
      "t": 62819.01041666666,
      "d": 123.69791666667152,
      "v": 80
    },
    {
      "midi": 77,
      "hit": false,
      "t": 63131.51041666666,
      "d": 253.90625,
      "v": 86
    },
    {
      "midi": 72,
      "hit": false,
      "t": 63131.51041666666,
      "d": 410.15625,
      "v": 86
    },
    {
      "midi": 76,
      "hit": false,
      "t": 63444.01041666666,
      "d": 123.69791666666424,
      "v": 69
    },
    {
      "midi": 77,
      "hit": false,
      "t": 63756.51041666666,
      "d": 234.375,
      "v": 69
    },
    {
      "midi": 72,
      "hit": false,
      "t": 63756.51041666666,
      "d": 989.5833333333358,
      "v": 69
    },
    {
      "midi": 76,
      "hit": false,
      "t": 64069.01041666666,
      "d": 208.33333333333576,
      "v": 60
    },
    {
      "midi": 77,
      "hit": false,
      "t": 64381.51041666666,
      "d": 240.88541666666424,
      "v": 65
    },
    {
      "midi": 76,
      "hit": false,
      "t": 64694.01041666666,
      "d": 104.16666666667152,
      "v": 54
    },
    {
      "midi": 74,
      "hit": false,
      "t": 65006.51041666666,
      "d": 1289.0625,
      "v": 64
    },
    {
      "midi": 77,
      "hit": false,
      "t": 65006.51041666666,
      "d": 1289.0625,
      "v": 64
    },
    {
      "midi": 70,
      "hit": false,
      "t": 102506.51041666666,
      "d": 937.5,
      "v": 71
    },
    {
      "midi": 74,
      "hit": false,
      "t": 102506.51041666666,
      "d": 937.5,
      "v": 71
    },
    {
      "midi": 81,
      "hit": false,
      "t": 102506.51041666666,
      "d": 937.5,
      "v": 71
    },
    {
      "midi": 70,
      "hit": false,
      "t": 103444.01041666666,
      "d": 937.5,
      "v": 61
    },
    {
      "midi": 74,
      "hit": false,
      "t": 103444.01041666666,
      "d": 937.5,
      "v": 61
    },
    {
      "midi": 81,
      "hit": false,
      "t": 103444.01041666666,
      "d": 937.5,
      "v": 61
    },
    {
      "midi": 76,
      "hit": false,
      "t": 105006.51041666666,
      "d": 937.5,
      "v": 65
    },
    {
      "midi": 79,
      "hit": false,
      "t": 105006.51041666666,
      "d": 937.5,
      "v": 65
    },
    {
      "midi": 76,
      "hit": false,
      "t": 105944.01041666666,
      "d": 937.5,
      "v": 65
    },
    {
      "midi": 79,
      "hit": false,
      "t": 105944.01041666666,
      "d": 937.5,
      "v": 65
    },
    {
      "midi": 70,
      "hit": false,
      "t": 107506.51041666666,
      "d": 937.5,
      "v": 71
    },
    {
      "midi": 74,
      "hit": false,
      "t": 107506.51041666666,
      "d": 937.5,
      "v": 71
    },
    {
      "midi": 81,
      "hit": false,
      "t": 107506.51041666666,
      "d": 937.5,
      "v": 71
    },
    {
      "midi": 70,
      "hit": false,
      "t": 108444.01041666666,
      "d": 937.5,
      "v": 59
    },
    {
      "midi": 74,
      "hit": false,
      "t": 108444.01041666666,
      "d": 937.5,
      "v": 59
    },
    {
      "midi": 81,
      "hit": false,
      "t": 108444.01041666666,
      "d": 937.5,
      "v": 59
    },
    {
      "midi": 76,
      "hit": false,
      "t": 110006.51041666666,
      "d": 2031.25,
      "v": 65
    },
    {
      "midi": 79,
      "hit": false,
      "t": 110006.51041666666,
      "d": 2031.25,
      "v": 65
    },
    {
      "midi": 70,
      "hit": false,
      "t": 112506.51041666666,
      "d": 937.5,
      "v": 71
    },
    {
      "midi": 74,
      "hit": false,
      "t": 112506.51041666666,
      "d": 937.5,
      "v": 71
    },
    {
      "midi": 81,
      "hit": false,
      "t": 112506.51041666666,
      "d": 937.5,
      "v": 71
    },
    {
      "midi": 70,
      "hit": false,
      "t": 113444.01041666666,
      "d": 937.5,
      "v": 52
    },
    {
      "midi": 74,
      "hit": false,
      "t": 113444.01041666666,
      "d": 937.5,
      "v": 52
    },
    {
      "midi": 81,
      "hit": false,
      "t": 113444.01041666666,
      "d": 937.5,
      "v": 52
    },
    {
      "midi": 77,
      "hit": false,
      "t": 114381.51041666666,
      "d": 299.4791666666715,
      "v": 115
    },
    {
      "midi": 72,
      "hit": false,
      "t": 114381.51041666666,
      "d": 546.8750000000146,
      "v": 92
    },
    {
      "midi": 76,
      "hit": false,
      "t": 114694.01041666667,
      "d": 201.82291666667152,
      "v": 78
    },
    {
      "midi": 72,
      "hit": false,
      "t": 115006.51041666667,
      "d": 175.78125,
      "v": 56
    },
    {
      "midi": 77,
      "hit": false,
      "t": 115006.51041666667,
      "d": 227.86458333332848,
      "v": 104
    },
    {
      "midi": 76,
      "hit": false,
      "t": 115319.01041666667,
      "d": 110.67708333332848,
      "v": 80
    },
    {
      "midi": 72,
      "hit": false,
      "t": 115319.01041666667,
      "d": 123.69791666665697,
      "v": 80
    },
    {
      "midi": 77,
      "hit": false,
      "t": 115631.51041666667,
      "d": 253.90625,
      "v": 86
    },
    {
      "midi": 72,
      "hit": false,
      "t": 115631.51041666667,
      "d": 410.15625,
      "v": 86
    },
    {
      "midi": 76,
      "hit": false,
      "t": 115944.01041666667,
      "d": 123.69791666667152,
      "v": 69
    },
    {
      "midi": 77,
      "hit": false,
      "t": 116256.51041666667,
      "d": 234.375,
      "v": 69
    },
    {
      "midi": 72,
      "hit": false,
      "t": 116256.51041666667,
      "d": 989.5833333333285,
      "v": 69
    },
    {
      "midi": 76,
      "hit": false,
      "t": 116569.01041666667,
      "d": 208.33333333332848,
      "v": 60
    },
    {
      "midi": 77,
      "hit": false,
      "t": 116881.51041666667,
      "d": 240.88541666667152,
      "v": 65
    },
    {
      "midi": 76,
      "hit": false,
      "t": 117194.01041666667,
      "d": 104.16666666665697,
      "v": 54
    },
    {
      "midi": 74,
      "hit": false,
      "t": 117506.51041666667,
      "d": 1289.0625,
      "v": 64
    },
    {
      "midi": 77,
      "hit": false,
      "t": 117506.51041666667,
      "d": 1289.0625,
      "v": 64
    },
    {
      "midi": 53,
      "hit": false,
      "t": 122506.51041666667,
      "d": 397.1354166666715,
      "v": 82
    },
    {
      "midi": 58,
      "hit": false,
      "t": 122506.51041666667,
      "d": 761.71875,
      "v": 74
    },
    {
      "midi": 62,
      "hit": false,
      "t": 122506.51041666667,
      "d": 768.2291666666715,
      "v": 82
    },
    {
      "midi": 34,
      "hit": false,
      "t": 122506.51041666667,
      "d": 2005.2083333333285,
      "v": 47
    },
    {
      "midi": 46,
      "hit": false,
      "t": 122819.01041666667,
      "d": 1712.2395833333285,
      "v": 62
    },
    {
      "midi": 53,
      "hit": false,
      "t": 123131.51041666667,
      "d": 214.84375,
      "v": 78
    },
    {
      "midi": 53,
      "hit": false,
      "t": 123444.01041666667,
      "d": 1341.1458333333285,
      "v": 80
    },
    {
      "midi": 58,
      "hit": false,
      "t": 123444.01041666667,
      "d": 1341.1458333333285,
      "v": 58
    },
    {
      "midi": 62,
      "hit": false,
      "t": 123444.01041666667,
      "d": 1360.6770833333285,
      "v": 82
    },
    {
      "midi": 62,
      "hit": false,
      "t": 125006.51041666667,
      "d": 826.8229166666715,
      "v": 90
    },
    {
      "midi": 60,
      "hit": false,
      "t": 125006.51041666667,
      "d": 865.8854166666715,
      "v": 84
    },
    {
      "midi": 36,
      "hit": false,
      "t": 125006.51041666667,
      "d": 1914.0625,
      "v": 78
    },
    {
      "midi": 48,
      "hit": false,
      "t": 125319.01041666667,
      "d": 1542.96875,
      "v": 58
    },
    {
      "midi": 55,
      "hit": false,
      "t": 125631.51041666667,
      "d": 221.35416666667152,
      "v": 48
    },
    {
      "midi": 55,
      "hit": false,
      "t": 125944.01041666667,
      "d": 1256.5104166666715,
      "v": 96
    },
    {
      "midi": 62,
      "hit": false,
      "t": 125944.01041666667,
      "d": 1328.125,
      "v": 102
    },
    {
      "midi": 60,
      "hit": false,
      "t": 125944.01041666667,
      "d": 1334.6354166666715,
      "v": 113
    },
    {
      "midi": 57,
      "hit": false,
      "t": 127506.51041666667,
      "d": 364.5833333333285,
      "v": 76
    },
    {
      "midi": 60,
      "hit": false,
      "t": 127506.51041666667,
      "d": 651.0416666666715,
      "v": 84
    },
    {
      "midi": 64,
      "hit": false,
      "t": 127506.51041666667,
      "d": 774.739583333343,
      "v": 78
    },
    {
      "midi": 33,
      "hit": false,
      "t": 127506.51041666667,
      "d": 2050.78125,
      "v": 82
    },
    {
      "midi": 45,
      "hit": false,
      "t": 127819.01041666667,
      "d": 1914.0625,
      "v": 66
    },
    {
      "midi": 57,
      "hit": false,
      "t": 128131.51041666667,
      "d": 240.88541666667152,
      "v": 82
    },
    {
      "midi": 60,
      "hit": false,
      "t": 128444.01041666667,
      "d": 1328.125,
      "v": 84
    },
    {
      "midi": 64,
      "hit": false,
      "t": 128444.01041666667,
      "d": 1354.1666666666715,
      "v": 84
    },
    {
      "midi": 57,
      "hit": false,
      "t": 128444.01041666667,
      "d": 1386.71875,
      "v": 54
    },
    {
      "midi": 58,
      "hit": false,
      "t": 130006.51041666667,
      "d": 449.21875,
      "v": 20
    },
    {
      "midi": 65,
      "hit": false,
      "t": 130006.51041666667,
      "d": 651.0416666666715,
      "v": 78
    },
    {
      "midi": 62,
      "hit": false,
      "t": 130006.51041666667,
      "d": 742.1875,
      "v": 78
    },
    {
      "midi": 34,
      "hit": false,
      "t": 130006.51041666667,
      "d": 1992.1875000000146,
      "v": 51
    },
    {
      "midi": 46,
      "hit": false,
      "t": 130319.01041666667,
      "d": 1041.6666666666715,
      "v": 74
    },
    {
      "midi": 58,
      "hit": false,
      "t": 130944.01041666667,
      "d": 1165.3645833333576,
      "v": 58
    },
    {
      "midi": 62,
      "hit": false,
      "t": 130944.01041666667,
      "d": 1178.3854166667006,
      "v": 84
    },
    {
      "midi": 65,
      "hit": false,
      "t": 130944.01041666667,
      "d": 1197.9166666667006,
      "v": 82
    },
    {
      "midi": 46,
      "hit": false,
      "t": 131569.0104166667,
      "d": 429.6875,
      "v": 40
    },
    {
      "midi": 58,
      "hit": false,
      "t": 132506.51041666672,
      "d": 748.697916666657,
      "v": 49
    },
    {
      "midi": 65,
      "hit": false,
      "t": 132506.51041666672,
      "d": 761.71875,
      "v": 82
    },
    {
      "midi": 62,
      "hit": false,
      "t": 132506.51041666672,
      "d": 768.229166666657,
      "v": 82
    },
    {
      "midi": 31,
      "hit": false,
      "t": 132506.51041666672,
      "d": 1809.895833333314,
      "v": 76
    },
    {
      "midi": 43,
      "hit": false,
      "t": 132819.01041666672,
      "d": 1634.114583333314,
      "v": 62
    },
    {
      "midi": 55,
      "hit": false,
      "t": 133131.51041666672,
      "d": 247.39583333331393,
      "v": 64
    },
    {
      "midi": 58,
      "hit": false,
      "t": 133444.0104166667,
      "d": 1054.6875,
      "v": 49
    },
    {
      "midi": 62,
      "hit": false,
      "t": 133444.0104166667,
      "d": 1152.34375,
      "v": 80
    },
    {
      "midi": 65,
      "hit": false,
      "t": 133444.0104166667,
      "d": 1217.447916666657,
      "v": 78
    },
    {
      "midi": 55,
      "hit": false,
      "t": 135006.5104166667,
      "d": 377.60416666665697,
      "v": 68
    },
    {
      "midi": 64,
      "hit": false,
      "t": 135006.5104166667,
      "d": 774.739583333343,
      "v": 74
    },
    {
      "midi": 60,
      "hit": false,
      "t": 135006.5104166667,
      "d": 813.802083333343,
      "v": 74
    },
    {
      "midi": 36,
      "hit": false,
      "t": 135006.5104166667,
      "d": 1959.635416666657,
      "v": 66
    },
    {
      "midi": 48,
      "hit": false,
      "t": 135319.0104166667,
      "d": 2161.458333333314,
      "v": 39
    },
    {
      "midi": 55,
      "hit": false,
      "t": 135631.5104166667,
      "d": 234.375,
      "v": 48
    },
    {
      "midi": 55,
      "hit": false,
      "t": 135944.0104166667,
      "d": 1269.53125,
      "v": 66
    },
    {
      "midi": 64,
      "hit": false,
      "t": 135944.0104166667,
      "d": 1347.65625,
      "v": 84
    },
    {
      "midi": 60,
      "hit": false,
      "t": 135944.0104166667,
      "d": 1373.697916666657,
      "v": 82
    },
    {
      "midi": 65,
      "hit": false,
      "t": 137506.51041666666,
      "d": 651.041666666657,
      "v": 76
    },
    {
      "midi": 62,
      "hit": false,
      "t": 137506.51041666666,
      "d": 716.1458333333139,
      "v": 82
    },
    {
      "midi": 38,
      "hit": false,
      "t": 137506.51041666666,
      "d": 4674.479166666715,
      "v": 78
    },
    {
      "midi": 50,
      "hit": false,
      "t": 137819.01041666666,
      "d": 1614.583333333314,
      "v": 62
    },
    {
      "midi": 57,
      "hit": false,
      "t": 138131.51041666666,
      "d": 1608.072916666686,
      "v": 72
    },
    {
      "midi": 65,
      "hit": false,
      "t": 138444.01041666663,
      "d": 1217.447916666686,
      "v": 82
    },
    {
      "midi": 62,
      "hit": false,
      "t": 138444.01041666663,
      "d": 1282.5520833333721,
      "v": 84
    },
    {
      "midi": 50,
      "hit": false,
      "t": 139694.01041666666,
      "d": 345.05208333337214,
      "v": 58
    },
    {
      "midi": 57,
      "hit": false,
      "t": 140006.5104166667,
      "d": 325.52083333334303,
      "v": 56
    },
    {
      "midi": 65,
      "hit": false,
      "t": 140006.5104166667,
      "d": 651.041666666657,
      "v": 74
    },
    {
      "midi": 62,
      "hit": false,
      "t": 140006.5104166667,
      "d": 670.572916666657,
      "v": 84
    },
    {
      "midi": 50,
      "hit": false,
      "t": 140319.0104166667,
      "d": 1868.489583333343,
      "v": 70
    },
    {
      "midi": 57,
      "hit": false,
      "t": 140631.5104166667,
      "d": 1516.927083333343,
      "v": 102
    },
    {
      "midi": 62,
      "hit": false,
      "t": 140944.0104166667,
      "d": 1184.895833333343,
      "v": 84
    },
    {
      "midi": 65,
      "hit": false,
      "t": 140944.0104166667,
      "d": 1204.427083333343,
      "v": 90
    },
    {
      "midi": 53,
      "hit": false,
      "t": 152506.5104166667,
      "d": 397.13541666665697,
      "v": 78
    },
    {
      "midi": 58,
      "hit": false,
      "t": 152506.5104166667,
      "d": 761.71875,
      "v": 70
    },
    {
      "midi": 62,
      "hit": false,
      "t": 152506.5104166667,
      "d": 768.229166666657,
      "v": 78
    },
    {
      "midi": 34,
      "hit": false,
      "t": 152506.5104166667,
      "d": 2005.208333333343,
      "v": 43
    },
    {
      "midi": 46,
      "hit": false,
      "t": 152819.0104166667,
      "d": 1712.239583333343,
      "v": 58
    },
    {
      "midi": 53,
      "hit": false,
      "t": 153131.5104166667,
      "d": 214.84375,
      "v": 74
    },
    {
      "midi": 53,
      "hit": false,
      "t": 153444.0104166667,
      "d": 1341.145833333343,
      "v": 76
    },
    {
      "midi": 58,
      "hit": false,
      "t": 153444.0104166667,
      "d": 1341.145833333343,
      "v": 54
    },
    {
      "midi": 62,
      "hit": false,
      "t": 153444.0104166667,
      "d": 1360.677083333343,
      "v": 78
    },
    {
      "midi": 62,
      "hit": false,
      "t": 155006.5104166667,
      "d": 826.822916666657,
      "v": 86
    },
    {
      "midi": 60,
      "hit": false,
      "t": 155006.5104166667,
      "d": 865.885416666657,
      "v": 80
    },
    {
      "midi": 36,
      "hit": false,
      "t": 155006.5104166667,
      "d": 1914.0625,
      "v": 74
    },
    {
      "midi": 48,
      "hit": false,
      "t": 155319.0104166667,
      "d": 1542.96875,
      "v": 54
    },
    {
      "midi": 55,
      "hit": false,
      "t": 155631.5104166667,
      "d": 221.35416666665697,
      "v": 44
    },
    {
      "midi": 55,
      "hit": false,
      "t": 155944.0104166667,
      "d": 1256.510416666657,
      "v": 92
    },
    {
      "midi": 62,
      "hit": false,
      "t": 155944.0104166667,
      "d": 1328.125,
      "v": 98
    },
    {
      "midi": 60,
      "hit": false,
      "t": 155944.0104166667,
      "d": 1334.635416666657,
      "v": 109
    },
    {
      "midi": 57,
      "hit": false,
      "t": 157506.5104166667,
      "d": 364.58333333334303,
      "v": 72
    },
    {
      "midi": 60,
      "hit": false,
      "t": 157506.5104166667,
      "d": 651.041666666657,
      "v": 80
    },
    {
      "midi": 64,
      "hit": false,
      "t": 157506.5104166667,
      "d": 774.7395833333139,
      "v": 74
    },
    {
      "midi": 33,
      "hit": false,
      "t": 157506.5104166667,
      "d": 2050.78125,
      "v": 78
    },
    {
      "midi": 45,
      "hit": false,
      "t": 157819.0104166667,
      "d": 1914.0625,
      "v": 62
    },
    {
      "midi": 57,
      "hit": false,
      "t": 158131.5104166667,
      "d": 240.88541666665697,
      "v": 78
    },
    {
      "midi": 60,
      "hit": false,
      "t": 158444.0104166667,
      "d": 1328.125,
      "v": 80
    },
    {
      "midi": 64,
      "hit": false,
      "t": 158444.0104166667,
      "d": 1354.166666666657,
      "v": 80
    },
    {
      "midi": 57,
      "hit": false,
      "t": 158444.0104166667,
      "d": 1386.71875,
      "v": 50
    },
    {
      "midi": 58,
      "hit": false,
      "t": 160006.5104166667,
      "d": 449.21875,
      "v": 16
    },
    {
      "midi": 65,
      "hit": false,
      "t": 160006.5104166667,
      "d": 651.041666666657,
      "v": 74
    },
    {
      "midi": 62,
      "hit": false,
      "t": 160006.5104166667,
      "d": 742.1875,
      "v": 74
    },
    {
      "midi": 34,
      "hit": false,
      "t": 160006.5104166667,
      "d": 1992.1875,
      "v": 47
    },
    {
      "midi": 46,
      "hit": false,
      "t": 160319.0104166667,
      "d": 1041.666666666657,
      "v": 70
    },
    {
      "midi": 58,
      "hit": false,
      "t": 160944.0104166667,
      "d": 1165.364583333343,
      "v": 54
    },
    {
      "midi": 62,
      "hit": false,
      "t": 160944.0104166667,
      "d": 1178.385416666686,
      "v": 80
    },
    {
      "midi": 65,
      "hit": false,
      "t": 160944.0104166667,
      "d": 1197.916666666686,
      "v": 78
    },
    {
      "midi": 46,
      "hit": false,
      "t": 161569.0104166667,
      "d": 429.6875,
      "v": 36
    },
    {
      "midi": 58,
      "hit": false,
      "t": 162506.51041666672,
      "d": 748.697916666657,
      "v": 45
    },
    {
      "midi": 65,
      "hit": false,
      "t": 162506.51041666672,
      "d": 761.71875,
      "v": 78
    },
    {
      "midi": 62,
      "hit": false,
      "t": 162506.51041666672,
      "d": 768.229166666657,
      "v": 78
    },
    {
      "midi": 31,
      "hit": false,
      "t": 162506.51041666672,
      "d": 1809.895833333314,
      "v": 72
    },
    {
      "midi": 43,
      "hit": false,
      "t": 162819.01041666672,
      "d": 1634.114583333314,
      "v": 58
    },
    {
      "midi": 55,
      "hit": false,
      "t": 163131.51041666672,
      "d": 247.39583333331393,
      "v": 60
    },
    {
      "midi": 58,
      "hit": false,
      "t": 163444.0104166667,
      "d": 1054.6875,
      "v": 45
    },
    {
      "midi": 62,
      "hit": false,
      "t": 163444.0104166667,
      "d": 1152.34375,
      "v": 76
    },
    {
      "midi": 65,
      "hit": false,
      "t": 163444.0104166667,
      "d": 1217.447916666657,
      "v": 74
    },
    {
      "midi": 55,
      "hit": false,
      "t": 165006.5104166667,
      "d": 377.60416666665697,
      "v": 64
    },
    {
      "midi": 64,
      "hit": false,
      "t": 165006.5104166667,
      "d": 774.739583333343,
      "v": 70
    },
    {
      "midi": 60,
      "hit": false,
      "t": 165006.5104166667,
      "d": 813.802083333343,
      "v": 70
    },
    {
      "midi": 36,
      "hit": false,
      "t": 165006.5104166667,
      "d": 1959.635416666657,
      "v": 62
    },
    {
      "midi": 48,
      "hit": false,
      "t": 165319.0104166667,
      "d": 2161.458333333314,
      "v": 35
    },
    {
      "midi": 55,
      "hit": false,
      "t": 165631.5104166667,
      "d": 234.375,
      "v": 44
    },
    {
      "midi": 55,
      "hit": false,
      "t": 165944.0104166667,
      "d": 1269.53125,
      "v": 62
    },
    {
      "midi": 64,
      "hit": false,
      "t": 165944.0104166667,
      "d": 1347.65625,
      "v": 80
    },
    {
      "midi": 60,
      "hit": false,
      "t": 165944.0104166667,
      "d": 1373.697916666657,
      "v": 78
    },
    {
      "midi": 65,
      "hit": false,
      "t": 167506.51041666666,
      "d": 651.041666666657,
      "v": 72
    },
    {
      "midi": 62,
      "hit": false,
      "t": 167506.51041666666,
      "d": 716.1458333333139,
      "v": 78
    },
    {
      "midi": 38,
      "hit": false,
      "t": 167506.51041666666,
      "d": 2539.0625,
      "v": 74
    },
    {
      "midi": 50,
      "hit": false,
      "t": 167819.01041666666,
      "d": 1614.583333333314,
      "v": 58
    },
    {
      "midi": 57,
      "hit": false,
      "t": 168131.51041666666,
      "d": 1608.072916666657,
      "v": 68
    },
    {
      "midi": 65,
      "hit": false,
      "t": 168444.01041666663,
      "d": 1217.447916666686,
      "v": 78
    },
    {
      "midi": 62,
      "hit": false,
      "t": 168444.01041666663,
      "d": 1282.552083333343,
      "v": 80
    },
    {
      "midi": 50,
      "hit": false,
      "t": 169850.26041666666,
      "d": 1868.489583333343,
      "v": 55
    },
    {
      "midi": 57,
      "hit": false,
      "t": 169928.38541666666,
      "d": 1796.875,
      "v": 58
    },
    {
      "midi": 62,
      "hit": false,
      "t": 170006.51041666666,
      "d": 1718.75,
      "v": 69
    },
    {
      "midi": 65,
      "hit": false,
      "t": 170084.63541666666,
      "d": 1640.625,
      "v": 82
    },
    {
      "midi": 70,
      "hit": false,
      "t": 192506.51041666666,
      "d": 937.5,
      "v": 71
    },
    {
      "midi": 74,
      "hit": false,
      "t": 192506.51041666666,
      "d": 937.5,
      "v": 71
    },
    {
      "midi": 81,
      "hit": false,
      "t": 192506.51041666666,
      "d": 937.5,
      "v": 71
    },
    {
      "midi": 70,
      "hit": false,
      "t": 193444.01041666666,
      "d": 937.5,
      "v": 61
    },
    {
      "midi": 74,
      "hit": false,
      "t": 193444.01041666666,
      "d": 937.5,
      "v": 61
    },
    {
      "midi": 81,
      "hit": false,
      "t": 193444.01041666666,
      "d": 937.5,
      "v": 61
    },
    {
      "midi": 76,
      "hit": false,
      "t": 195006.51041666666,
      "d": 937.5,
      "v": 65
    },
    {
      "midi": 79,
      "hit": false,
      "t": 195006.51041666666,
      "d": 937.5,
      "v": 65
    },
    {
      "midi": 76,
      "hit": false,
      "t": 195944.01041666666,
      "d": 937.5,
      "v": 65
    },
    {
      "midi": 79,
      "hit": false,
      "t": 195944.01041666666,
      "d": 937.5,
      "v": 65
    },
    {
      "midi": 70,
      "hit": false,
      "t": 197506.51041666666,
      "d": 937.5,
      "v": 71
    },
    {
      "midi": 74,
      "hit": false,
      "t": 197506.51041666666,
      "d": 937.5,
      "v": 71
    },
    {
      "midi": 81,
      "hit": false,
      "t": 197506.51041666666,
      "d": 937.5,
      "v": 71
    },
    {
      "midi": 70,
      "hit": false,
      "t": 198444.01041666666,
      "d": 937.5,
      "v": 59
    },
    {
      "midi": 74,
      "hit": false,
      "t": 198444.01041666666,
      "d": 937.5,
      "v": 59
    },
    {
      "midi": 81,
      "hit": false,
      "t": 198444.01041666666,
      "d": 937.5,
      "v": 59
    },
    {
      "midi": 76,
      "hit": false,
      "t": 200006.51041666666,
      "d": 2031.25,
      "v": 65
    },
    {
      "midi": 79,
      "hit": false,
      "t": 200006.51041666666,
      "d": 2031.25,
      "v": 65
    },
    {
      "midi": 70,
      "hit": false,
      "t": 202506.51041666666,
      "d": 937.5,
      "v": 71
    },
    {
      "midi": 74,
      "hit": false,
      "t": 202506.51041666666,
      "d": 937.5,
      "v": 71
    },
    {
      "midi": 81,
      "hit": false,
      "t": 202506.51041666666,
      "d": 937.5,
      "v": 71
    },
    {
      "midi": 70,
      "hit": false,
      "t": 203444.01041666666,
      "d": 937.5,
      "v": 52
    },
    {
      "midi": 74,
      "hit": false,
      "t": 203444.01041666666,
      "d": 937.5,
      "v": 52
    },
    {
      "midi": 81,
      "hit": false,
      "t": 203444.01041666666,
      "d": 937.5,
      "v": 52
    },
    {
      "midi": 77,
      "hit": false,
      "t": 204381.51041666666,
      "d": 299.47916666665697,
      "v": 115
    },
    {
      "midi": 72,
      "hit": false,
      "t": 204381.51041666666,
      "d": 546.8749999999709,
      "v": 92
    },
    {
      "midi": 76,
      "hit": false,
      "t": 204694.01041666663,
      "d": 201.82291666665697,
      "v": 78
    },
    {
      "midi": 72,
      "hit": false,
      "t": 205006.51041666663,
      "d": 175.78125,
      "v": 56
    },
    {
      "midi": 77,
      "hit": false,
      "t": 205006.51041666663,
      "d": 227.86458333334303,
      "v": 104
    },
    {
      "midi": 76,
      "hit": false,
      "t": 205319.01041666663,
      "d": 110.67708333334303,
      "v": 80
    },
    {
      "midi": 72,
      "hit": false,
      "t": 205319.01041666663,
      "d": 123.69791666668607,
      "v": 80
    },
    {
      "midi": 77,
      "hit": false,
      "t": 205631.51041666663,
      "d": 253.90625,
      "v": 86
    },
    {
      "midi": 72,
      "hit": false,
      "t": 205631.51041666663,
      "d": 410.15625,
      "v": 86
    },
    {
      "midi": 76,
      "hit": false,
      "t": 205944.01041666663,
      "d": 123.69791666665697,
      "v": 69
    },
    {
      "midi": 77,
      "hit": false,
      "t": 206256.51041666663,
      "d": 234.375,
      "v": 69
    },
    {
      "midi": 72,
      "hit": false,
      "t": 206256.51041666663,
      "d": 989.583333333343,
      "v": 69
    },
    {
      "midi": 76,
      "hit": false,
      "t": 206569.01041666663,
      "d": 208.33333333334303,
      "v": 60
    },
    {
      "midi": 77,
      "hit": false,
      "t": 206881.51041666663,
      "d": 240.88541666665697,
      "v": 65
    },
    {
      "midi": 76,
      "hit": false,
      "t": 207194.01041666663,
      "d": 104.16666666668607,
      "v": 54
    },
    {
      "midi": 74,
      "hit": false,
      "t": 207506.51041666663,
      "d": 1289.0625,
      "v": 64
    },
    {
      "midi": 77,
      "hit": false,
      "t": 207506.51041666663,
      "d": 1289.0625,
      "v": 64
    },
    {
      "midi": 53,
      "hit": false,
      "t": 212506.51041666663,
      "d": 397.13541666665697,
      "v": 78
    },
    {
      "midi": 58,
      "hit": false,
      "t": 212506.51041666663,
      "d": 761.71875,
      "v": 70
    },
    {
      "midi": 62,
      "hit": false,
      "t": 212506.51041666663,
      "d": 768.229166666657,
      "v": 78
    },
    {
      "midi": 34,
      "hit": false,
      "t": 212506.51041666663,
      "d": 2005.208333333343,
      "v": 43
    },
    {
      "midi": 46,
      "hit": false,
      "t": 212819.01041666663,
      "d": 1712.239583333343,
      "v": 58
    },
    {
      "midi": 53,
      "hit": false,
      "t": 213131.51041666663,
      "d": 214.84375,
      "v": 74
    },
    {
      "midi": 53,
      "hit": false,
      "t": 213444.01041666663,
      "d": 1341.145833333343,
      "v": 76
    },
    {
      "midi": 58,
      "hit": false,
      "t": 213444.01041666663,
      "d": 1341.145833333343,
      "v": 54
    },
    {
      "midi": 62,
      "hit": false,
      "t": 213444.01041666663,
      "d": 1360.677083333343,
      "v": 78
    },
    {
      "midi": 62,
      "hit": false,
      "t": 215006.51041666663,
      "d": 826.822916666657,
      "v": 86
    },
    {
      "midi": 60,
      "hit": false,
      "t": 215006.51041666663,
      "d": 865.885416666657,
      "v": 80
    },
    {
      "midi": 36,
      "hit": false,
      "t": 215006.51041666663,
      "d": 1914.0625,
      "v": 74
    },
    {
      "midi": 48,
      "hit": false,
      "t": 215319.01041666663,
      "d": 1542.96875,
      "v": 54
    },
    {
      "midi": 55,
      "hit": false,
      "t": 215631.51041666663,
      "d": 221.35416666665697,
      "v": 44
    },
    {
      "midi": 55,
      "hit": false,
      "t": 215944.01041666663,
      "d": 1256.510416666657,
      "v": 92
    },
    {
      "midi": 62,
      "hit": false,
      "t": 215944.01041666663,
      "d": 1328.125,
      "v": 98
    },
    {
      "midi": 60,
      "hit": false,
      "t": 215944.01041666663,
      "d": 1334.635416666657,
      "v": 109
    },
    {
      "midi": 57,
      "hit": false,
      "t": 217506.51041666663,
      "d": 364.58333333334303,
      "v": 72
    },
    {
      "midi": 60,
      "hit": false,
      "t": 217506.51041666663,
      "d": 651.041666666657,
      "v": 80
    },
    {
      "midi": 64,
      "hit": false,
      "t": 217506.51041666663,
      "d": 774.7395833333139,
      "v": 74
    },
    {
      "midi": 33,
      "hit": false,
      "t": 217506.51041666663,
      "d": 2050.78125,
      "v": 78
    },
    {
      "midi": 45,
      "hit": false,
      "t": 217819.01041666663,
      "d": 1914.0625,
      "v": 62
    },
    {
      "midi": 57,
      "hit": false,
      "t": 218131.51041666663,
      "d": 240.88541666665697,
      "v": 78
    },
    {
      "midi": 60,
      "hit": false,
      "t": 218444.01041666663,
      "d": 1328.125,
      "v": 80
    },
    {
      "midi": 64,
      "hit": false,
      "t": 218444.01041666663,
      "d": 1354.166666666657,
      "v": 80
    },
    {
      "midi": 57,
      "hit": false,
      "t": 218444.01041666663,
      "d": 1386.71875,
      "v": 50
    },
    {
      "midi": 58,
      "hit": false,
      "t": 220006.51041666663,
      "d": 449.21875,
      "v": 16
    },
    {
      "midi": 65,
      "hit": false,
      "t": 220006.51041666663,
      "d": 651.041666666657,
      "v": 74
    },
    {
      "midi": 62,
      "hit": false,
      "t": 220006.51041666663,
      "d": 742.1875,
      "v": 74
    },
    {
      "midi": 34,
      "hit": false,
      "t": 220006.51041666663,
      "d": 1992.1875,
      "v": 47
    },
    {
      "midi": 46,
      "hit": false,
      "t": 220319.01041666663,
      "d": 1041.666666666657,
      "v": 70
    },
    {
      "midi": 58,
      "hit": false,
      "t": 220944.01041666663,
      "d": 1165.364583333343,
      "v": 54
    },
    {
      "midi": 62,
      "hit": false,
      "t": 220944.01041666663,
      "d": 1178.385416666686,
      "v": 80
    },
    {
      "midi": 65,
      "hit": false,
      "t": 220944.01041666663,
      "d": 1197.916666666686,
      "v": 78
    },
    {
      "midi": 46,
      "hit": false,
      "t": 221569.01041666663,
      "d": 429.6875,
      "v": 36
    },
    {
      "midi": 58,
      "hit": false,
      "t": 222506.51041666666,
      "d": 748.697916666657,
      "v": 45
    },
    {
      "midi": 65,
      "hit": false,
      "t": 222506.51041666666,
      "d": 761.71875,
      "v": 78
    },
    {
      "midi": 62,
      "hit": false,
      "t": 222506.51041666666,
      "d": 768.229166666657,
      "v": 78
    },
    {
      "midi": 31,
      "hit": false,
      "t": 222506.51041666666,
      "d": 1809.895833333314,
      "v": 72
    },
    {
      "midi": 43,
      "hit": false,
      "t": 222819.01041666666,
      "d": 1634.114583333314,
      "v": 58
    },
    {
      "midi": 55,
      "hit": false,
      "t": 223131.51041666666,
      "d": 247.39583333331393,
      "v": 60
    },
    {
      "midi": 58,
      "hit": false,
      "t": 223444.01041666663,
      "d": 1054.6875,
      "v": 45
    },
    {
      "midi": 62,
      "hit": false,
      "t": 223444.01041666663,
      "d": 1152.34375,
      "v": 76
    },
    {
      "midi": 65,
      "hit": false,
      "t": 223444.01041666663,
      "d": 1217.447916666657,
      "v": 74
    },
    {
      "midi": 55,
      "hit": false,
      "t": 225006.51041666663,
      "d": 377.60416666665697,
      "v": 64
    },
    {
      "midi": 64,
      "hit": false,
      "t": 225006.51041666663,
      "d": 774.739583333343,
      "v": 70
    },
    {
      "midi": 60,
      "hit": false,
      "t": 225006.51041666663,
      "d": 813.802083333343,
      "v": 70
    },
    {
      "midi": 36,
      "hit": false,
      "t": 225006.51041666663,
      "d": 1959.635416666657,
      "v": 62
    },
    {
      "midi": 48,
      "hit": false,
      "t": 225319.01041666663,
      "d": 2161.458333333314,
      "v": 35
    },
    {
      "midi": 55,
      "hit": false,
      "t": 225631.51041666663,
      "d": 234.375,
      "v": 44
    },
    {
      "midi": 55,
      "hit": false,
      "t": 225944.01041666663,
      "d": 1269.53125,
      "v": 62
    },
    {
      "midi": 64,
      "hit": false,
      "t": 225944.01041666663,
      "d": 1347.65625,
      "v": 80
    },
    {
      "midi": 60,
      "hit": false,
      "t": 225944.01041666663,
      "d": 1373.697916666657,
      "v": 78
    },
    {
      "midi": 65,
      "hit": false,
      "t": 227506.5104166666,
      "d": 651.041666666657,
      "v": 72
    },
    {
      "midi": 62,
      "hit": false,
      "t": 227506.5104166666,
      "d": 716.1458333333139,
      "v": 78
    },
    {
      "midi": 38,
      "hit": false,
      "t": 227506.5104166666,
      "d": 4674.479166666715,
      "v": 74
    },
    {
      "midi": 50,
      "hit": false,
      "t": 227819.0104166666,
      "d": 1614.583333333314,
      "v": 58
    },
    {
      "midi": 57,
      "hit": false,
      "t": 228131.5104166666,
      "d": 1608.072916666686,
      "v": 68
    },
    {
      "midi": 65,
      "hit": false,
      "t": 228444.01041666657,
      "d": 1217.447916666686,
      "v": 78
    },
    {
      "midi": 62,
      "hit": false,
      "t": 228444.01041666657,
      "d": 1282.5520833333721,
      "v": 80
    },
    {
      "midi": 50,
      "hit": false,
      "t": 229694.0104166666,
      "d": 345.05208333337214,
      "v": 54
    },
    {
      "midi": 57,
      "hit": false,
      "t": 230006.51041666663,
      "d": 325.52083333334303,
      "v": 52
    },
    {
      "midi": 65,
      "hit": false,
      "t": 230006.51041666663,
      "d": 651.041666666657,
      "v": 70
    },
    {
      "midi": 62,
      "hit": false,
      "t": 230006.51041666663,
      "d": 670.572916666657,
      "v": 80
    },
    {
      "midi": 50,
      "hit": false,
      "t": 230319.01041666663,
      "d": 1868.489583333343,
      "v": 66
    },
    {
      "midi": 57,
      "hit": false,
      "t": 230631.51041666663,
      "d": 1516.927083333343,
      "v": 98
    },
    {
      "midi": 62,
      "hit": false,
      "t": 230944.01041666663,
      "d": 1184.895833333343,
      "v": 80
    },
    {
      "midi": 65,
      "hit": false,
      "t": 230944.01041666663,
      "d": 1204.427083333343,
      "v": 86
    },
    {
      "midi": 58,
      "hit": false,
      "t": 232506.51041666663,
      "d": 748.697916666657,
      "v": 45
    },
    {
      "midi": 65,
      "hit": false,
      "t": 232506.51041666663,
      "d": 761.71875,
      "v": 78
    },
    {
      "midi": 62,
      "hit": false,
      "t": 232506.51041666663,
      "d": 768.229166666657,
      "v": 78
    },
    {
      "midi": 34,
      "hit": false,
      "t": 232506.51041666663,
      "d": 1809.895833333343,
      "v": 72
    },
    {
      "midi": 46,
      "hit": false,
      "t": 232819.01041666663,
      "d": 1634.114583333343,
      "v": 58
    },
    {
      "midi": 58,
      "hit": false,
      "t": 233444.01041666663,
      "d": 1054.6875,
      "v": 45
    },
    {
      "midi": 62,
      "hit": false,
      "t": 233444.01041666663,
      "d": 1152.34375,
      "v": 76
    },
    {
      "midi": 65,
      "hit": false,
      "t": 233444.01041666663,
      "d": 1217.447916666657,
      "v": 74
    },
    {
      "midi": 55,
      "hit": false,
      "t": 235006.51041666663,
      "d": 377.60416666665697,
      "v": 64
    },
    {
      "midi": 64,
      "hit": false,
      "t": 235006.51041666663,
      "d": 774.739583333343,
      "v": 70
    },
    {
      "midi": 60,
      "hit": false,
      "t": 235006.51041666663,
      "d": 813.802083333343,
      "v": 70
    },
    {
      "midi": 36,
      "hit": false,
      "t": 235006.51041666663,
      "d": 1959.635416666657,
      "v": 62
    },
    {
      "midi": 48,
      "hit": false,
      "t": 235319.01041666663,
      "d": 2161.458333333314,
      "v": 35
    },
    {
      "midi": 55,
      "hit": false,
      "t": 235631.51041666663,
      "d": 234.375,
      "v": 44
    },
    {
      "midi": 55,
      "hit": false,
      "t": 235944.01041666663,
      "d": 1269.53125,
      "v": 62
    },
    {
      "midi": 64,
      "hit": false,
      "t": 235944.01041666663,
      "d": 1347.65625,
      "v": 80
    },
    {
      "midi": 60,
      "hit": false,
      "t": 235944.01041666663,
      "d": 1373.697916666657,
      "v": 78
    },
    {
      "midi": 65,
      "hit": false,
      "t": 237506.5104166666,
      "d": 651.041666666657,
      "v": 72
    },
    {
      "midi": 62,
      "hit": false,
      "t": 237506.5104166666,
      "d": 716.1458333333139,
      "v": 78
    },
    {
      "midi": 38,
      "hit": false,
      "t": 237506.5104166666,
      "d": 4674.479166666715,
      "v": 74
    },
    {
      "midi": 50,
      "hit": false,
      "t": 237819.0104166666,
      "d": 1614.583333333314,
      "v": 58
    },
    {
      "midi": 57,
      "hit": false,
      "t": 238131.5104166666,
      "d": 1608.072916666686,
      "v": 68
    },
    {
      "midi": 65,
      "hit": false,
      "t": 238444.01041666657,
      "d": 1217.447916666686,
      "v": 78
    },
    {
      "midi": 62,
      "hit": false,
      "t": 238444.01041666657,
      "d": 1282.5520833333721,
      "v": 80
    },
    {
      "midi": 50,
      "hit": false,
      "t": 239694.0104166666,
      "d": 345.05208333337214,
      "v": 54
    },
    {
      "midi": 57,
      "hit": false,
      "t": 240006.51041666663,
      "d": 325.52083333334303,
      "v": 52
    },
    {
      "midi": 65,
      "hit": false,
      "t": 240006.51041666663,
      "d": 651.041666666657,
      "v": 70
    },
    {
      "midi": 62,
      "hit": false,
      "t": 240006.51041666663,
      "d": 670.572916666657,
      "v": 80
    },
    {
      "midi": 50,
      "hit": false,
      "t": 240319.01041666663,
      "d": 1868.489583333343,
      "v": 66
    },
    {
      "midi": 57,
      "hit": false,
      "t": 240631.51041666663,
      "d": 1516.927083333343,
      "v": 98
    },
    {
      "midi": 62,
      "hit": false,
      "t": 240944.01041666663,
      "d": 1184.895833333343,
      "v": 80
    },
    {
      "midi": 65,
      "hit": false,
      "t": 240944.01041666663,
      "d": 1204.427083333343,
      "v": 86
    },
    {
      "midi": 58,
      "hit": false,
      "t": 242506.51041666663,
      "d": 748.697916666657,
      "v": 45
    },
    {
      "midi": 65,
      "hit": false,
      "t": 242506.51041666663,
      "d": 761.71875,
      "v": 78
    },
    {
      "midi": 62,
      "hit": false,
      "t": 242506.51041666663,
      "d": 768.229166666657,
      "v": 78
    },
    {
      "midi": 34,
      "hit": false,
      "t": 242506.51041666663,
      "d": 1809.895833333343,
      "v": 72
    },
    {
      "midi": 46,
      "hit": false,
      "t": 242819.01041666663,
      "d": 1634.114583333343,
      "v": 58
    },
    {
      "midi": 58,
      "hit": false,
      "t": 243444.01041666663,
      "d": 1054.6875,
      "v": 45
    },
    {
      "midi": 62,
      "hit": false,
      "t": 243444.01041666663,
      "d": 1152.34375,
      "v": 76
    },
    {
      "midi": 65,
      "hit": false,
      "t": 243444.01041666663,
      "d": 1217.447916666657,
      "v": 74
    },
    {
      "midi": 55,
      "hit": false,
      "t": 245006.51041666663,
      "d": 377.60416666665697,
      "v": 64
    },
    {
      "midi": 64,
      "hit": false,
      "t": 245006.51041666663,
      "d": 774.739583333343,
      "v": 70
    },
    {
      "midi": 60,
      "hit": false,
      "t": 245006.51041666663,
      "d": 813.802083333343,
      "v": 70
    },
    {
      "midi": 36,
      "hit": false,
      "t": 245006.51041666663,
      "d": 1959.635416666657,
      "v": 62
    },
    {
      "midi": 48,
      "hit": false,
      "t": 245319.01041666663,
      "d": 2161.458333333314,
      "v": 35
    },
    {
      "midi": 55,
      "hit": false,
      "t": 245631.51041666663,
      "d": 234.375,
      "v": 44
    },
    {
      "midi": 55,
      "hit": false,
      "t": 245944.01041666663,
      "d": 1269.53125,
      "v": 62
    },
    {
      "midi": 64,
      "hit": false,
      "t": 245944.01041666663,
      "d": 1347.65625,
      "v": 80
    },
    {
      "midi": 60,
      "hit": false,
      "t": 245944.01041666663,
      "d": 1373.697916666657,
      "v": 78
    },
    {
      "midi": 65,
      "hit": false,
      "t": 247506.5104166666,
      "d": 651.041666666657,
      "v": 72
    },
    {
      "midi": 62,
      "hit": false,
      "t": 247506.5104166666,
      "d": 716.1458333333139,
      "v": 78
    },
    {
      "midi": 38,
      "hit": false,
      "t": 247506.5104166666,
      "d": 4674.479166666715,
      "v": 74
    },
    {
      "midi": 50,
      "hit": false,
      "t": 247819.0104166666,
      "d": 1614.583333333314,
      "v": 58
    },
    {
      "midi": 57,
      "hit": false,
      "t": 248131.5104166666,
      "d": 1608.072916666686,
      "v": 68
    },
    {
      "midi": 65,
      "hit": false,
      "t": 248444.01041666657,
      "d": 1217.447916666686,
      "v": 78
    },
    {
      "midi": 62,
      "hit": false,
      "t": 248444.01041666657,
      "d": 1282.5520833333721,
      "v": 80
    },
    {
      "midi": 50,
      "hit": false,
      "t": 249694.0104166666,
      "d": 345.05208333337214,
      "v": 54
    },
    {
      "midi": 57,
      "hit": false,
      "t": 250006.51041666663,
      "d": 325.52083333334303,
      "v": 52
    },
    {
      "midi": 65,
      "hit": false,
      "t": 250006.51041666663,
      "d": 651.041666666657,
      "v": 70
    },
    {
      "midi": 62,
      "hit": false,
      "t": 250006.51041666663,
      "d": 670.572916666657,
      "v": 80
    },
    {
      "midi": 50,
      "hit": false,
      "t": 250319.01041666663,
      "d": 1868.489583333343,
      "v": 66
    },
    {
      "midi": 57,
      "hit": false,
      "t": 250631.51041666663,
      "d": 1516.927083333343,
      "v": 98
    },
    {
      "midi": 62,
      "hit": false,
      "t": 250944.01041666663,
      "d": 1184.895833333343,
      "v": 80
    },
    {
      "midi": 65,
      "hit": false,
      "t": 250944.01041666663,
      "d": 1204.427083333343,
      "v": 86
    },
    {
      "midi": 65,
      "hit": false,
      "t": 252506.51041666663,
      "d": 651.041666666657,
      "v": 52
    },
    {
      "midi": 62,
      "hit": false,
      "t": 252506.51041666663,
      "d": 716.1458333333139,
      "v": 58
    },
    {
      "midi": 38,
      "hit": false,
      "t": 252506.51041666663,
      "d": 2500,
      "v": 54
    },
    {
      "midi": 50,
      "hit": false,
      "t": 252819.01041666663,
      "d": 1614.583333333314,
      "v": 38
    },
    {
      "midi": 57,
      "hit": false,
      "t": 253131.51041666663,
      "d": 1608.072916666657,
      "v": 48
    },
    {
      "midi": 65,
      "hit": false,
      "t": 253444.0104166666,
      "d": 1217.447916666686,
      "v": 58
    },
    {
      "midi": 62,
      "hit": false,
      "t": 253444.0104166666,
      "d": 1282.552083333343,
      "v": 60
    }
  ]
}