{
  "jsonPath": "Rock/Folk Rock/Hermans Hermits/no-milk-today.json",
  "path": "Rock\\Folk Rock\\Hermans Hermits\\No Milk Today.mid",
  "name": "No Milk Today",
  "difficulty": "Intermediate",
  "bpm": 136.0019946959222,
  "notes": [
    {
      "midi": 57,
      "hit": false,
      "t": 47110.64,
      "d": 880.7782291666663,
      "v": 1
    },
    {
      "midi": 61,
      "hit": false,
      "t": 47110.64,
      "d": 880.7782291666663,
      "v": 1
    },
    {
      "midi": 73,
      "hit": false,
      "t": 47110.64,
      "d": 892.3521875000006,
      "v": 1
    },
    {
      "midi": 56,
      "hit": false,
      "t": 47999.52,
      "d": 885.4078125000015,
      "v": 1
    },
    {
      "midi": 59,
      "hit": false,
      "t": 47999.52,
      "d": 885.4078125000015,
      "v": 1
    },
    {
      "midi": 71,
      "hit": false,
      "t": 47999.52,
      "d": 903.9261458333349,
      "v": 1
    },
    {
      "midi": 54,
      "hit": false,
      "t": 48888.4,
      "d": 880.7782291666663,
      "v": 1
    },
    {
      "midi": 62,
      "hit": false,
      "t": 48888.4,
      "d": 880.7782291666663,
      "v": 1
    },
    {
      "midi": 69,
      "hit": false,
      "t": 48888.4,
      "d": 894.6669791666645,
      "v": 1
    },
    {
      "midi": 74,
      "hit": false,
      "t": 48888.4,
      "d": 894.6669791666645,
      "v": 1
    },
    {
      "midi": 56,
      "hit": false,
      "t": 49777.28,
      "d": 885.4078125000015,
      "v": 1
    },
    {
      "midi": 59,
      "hit": false,
      "t": 49777.28,
      "d": 885.4078125000015,
      "v": 1
    },
    {
      "midi": 71,
      "hit": false,
      "t": 49777.28,
      "d": 885.4078125000015,
      "v": 1
    },
    {
      "midi": 57,
      "hit": false,
      "t": 50666.16,
      "d": 880.7782291666663,
      "v": 1
    },
    {
      "midi": 61,
      "hit": false,
      "t": 50666.16,
      "d": 880.7782291666663,
      "v": 1
    },
    {
      "midi": 73,
      "hit": false,
      "t": 50666.16,
      "d": 894.6669791666645,
      "v": 1
    },
    {
      "midi": 56,
      "hit": false,
      "t": 51555.04,
      "d": 880.7782291666663,
      "v": 1
    },
    {
      "midi": 59,
      "hit": false,
      "t": 51555.04,
      "d": 880.7782291666663,
      "v": 1
    },
    {
      "midi": 71,
      "hit": false,
      "t": 51555.04,
      "d": 896.9817708333285,
      "v": 1
    },
    {
      "midi": 54,
      "hit": false,
      "t": 52443.92,
      "d": 1774.2878124999988,
      "v": 1
    },
    {
      "midi": 62,
      "hit": false,
      "t": 52443.92,
      "d": 1774.2878124999988,
      "v": 1
    },
    {
      "midi": 69,
      "hit": false,
      "t": 52443.92,
      "d": 1774.2878124999988,
      "v": 1
    },
    {
      "midi": 74,
      "hit": false,
      "t": 52443.92,
      "d": 1774.2878124999988,
      "v": 1
    },
    {
      "midi": 57,
      "hit": false,
      "t": 54221.68,
      "d": 880.7782291666663,
      "v": 1
    },
    {
      "midi": 61,
      "hit": false,
      "t": 54221.68,
      "d": 880.7782291666663,
      "v": 1
    },
    {
      "midi": 73,
      "hit": false,
      "t": 54221.68,
      "d": 890.0373958333294,
      "v": 1
    },
    {
      "midi": 56,
      "hit": false,
      "t": 55110.56,
      "d": 885.4078125000015,
      "v": 1
    },
    {
      "midi": 59,
      "hit": false,
      "t": 55110.56,
      "d": 885.4078125000015,
      "v": 1
    },
    {
      "midi": 71,
      "hit": false,
      "t": 55110.56,
      "d": 885.4078125000015,
      "v": 1
    },
    {
      "midi": 54,
      "hit": false,
      "t": 55999.44,
      "d": 885.4078125000015,
      "v": 1
    },
    {
      "midi": 62,
      "hit": false,
      "t": 55999.44,
      "d": 885.4078125000015,
      "v": 1
    },
    {
      "midi": 69,
      "hit": false,
      "t": 55999.44,
      "d": 885.4078125000015,
      "v": 1
    },
    {
      "midi": 74,
      "hit": false,
      "t": 55999.44,
      "d": 885.4078125000015,
      "v": 1
    },
    {
      "midi": 56,
      "hit": false,
      "t": 56888.32000000001,
      "d": 825.223229166666,
      "v": 1
    },
    {
      "midi": 64,
      "hit": false,
      "t": 56888.32000000001,
      "d": 825.223229166666,
      "v": 1
    },
    {
      "midi": 59,
      "hit": false,
      "t": 56888.32000000001,
      "d": 853.0007291666625,
      "v": 1
    },
    {
      "midi": 76,
      "hit": false,
      "t": 56888.32000000001,
      "d": 864.5746874999968,
      "v": 1
    },
    {
      "midi": 71,
      "hit": false,
      "t": 56888.32000000001,
      "d": 873.8338541666599,
      "v": 1
    },
    {
      "midi": 61,
      "hit": false,
      "t": 75554.79999999997,
      "d": 653.9286458333081,
      "v": 1
    },
    {
      "midi": 62,
      "hit": false,
      "t": 76212.20083333328,
      "d": 225.6921874999971,
      "v": 1
    },
    {
      "midi": 64,
      "hit": false,
      "t": 76441.36520833327,
      "d": 663.187812499993,
      "v": 1
    },
    {
      "midi": 66,
      "hit": false,
      "t": 77108.02520833326,
      "d": 221.0626041666692,
      "v": 1
    },
    {
      "midi": 64,
      "hit": false,
      "t": 77332.55999999992,
      "d": 214.1182291666628,
      "v": 1
    },
    {
      "midi": 62,
      "hit": false,
      "t": 77547.83562499992,
      "d": 438.6530208333279,
      "v": 1
    },
    {
      "midi": 61,
      "hit": false,
      "t": 77989.96083333324,
      "d": 228.00697916666104,
      "v": 1
    },
    {
      "midi": 62,
      "hit": false,
      "t": 78221.4399999999,
      "d": 880.7782291666663,
      "v": 1
    },
    {
      "midi": 66,
      "hit": false,
      "t": 79105.69041666656,
      "d": 883.0930208333302,
      "v": 1
    },
    {
      "midi": 69,
      "hit": false,
      "t": 79992.25562499989,
      "d": 665.5026041666715,
      "v": 1
    },
    {
      "midi": 61,
      "hit": false,
      "t": 80661.23041666656,
      "d": 466.43052083333896,
      "v": 1
    },
    {
      "midi": 62,
      "hit": false,
      "t": 81131.13312499989,
      "d": 640.0398958333244,
      "v": 1
    },
    {
      "midi": 64,
      "hit": false,
      "t": 81774.64520833321,
      "d": 887.7226041666436,
      "v": 1
    },
    {
      "midi": 61,
      "hit": false,
      "t": 82665.83999999985,
      "d": 646.9842708333163,
      "v": 1
    },
    {
      "midi": 62,
      "hit": false,
      "t": 83316.29645833316,
      "d": 223.37739583333314,
      "v": 1
    },
    {
      "midi": 64,
      "hit": false,
      "t": 83543.14604166649,
      "d": 670.1321874999994,
      "v": 1
    },
    {
      "midi": 66,
      "hit": false,
      "t": 84216.75041666649,
      "d": 221.0626041666692,
      "v": 1
    },
    {
      "midi": 64,
      "hit": false,
      "t": 84441.28520833315,
      "d": 211.80343749999884,
      "v": 1
    },
    {
      "midi": 62,
      "hit": false,
      "t": 84656.56083333315,
      "d": 440.9678125000064,
      "v": 1
    },
    {
      "midi": 61,
      "hit": false,
      "t": 85101.00083333315,
      "d": 225.6921874999971,
      "v": 1
    },
    {
      "midi": 62,
      "hit": false,
      "t": 85330.16520833314,
      "d": 887.7226041666581,
      "v": 1
    },
    {
      "midi": 66,
      "hit": false,
      "t": 86221.3599999998,
      "d": 878.4634375000023,
      "v": 1
    },
    {
      "midi": 69,
      "hit": false,
      "t": 87103.2956249998,
      "d": 653.9286458333372,
      "v": 1
    },
    {
      "midi": 62,
      "hit": false,
      "t": 87760.69645833313,
      "d": 670.1321874999849,
      "v": 1
    },
    {
      "midi": 64,
      "hit": false,
      "t": 88434.30083333311,
      "d": 454.8565624999901,
      "v": 1
    },
    {
      "midi": 61,
      "hit": false,
      "t": 88892.6295833331,
      "d": 769.6682291666657,
      "v": 1
    },
    {
      "midi": 57,
      "hit": false,
      "t": 99554.55999999976,
      "d": 880.7782291666663,
      "v": 1
    },
    {
      "midi": 61,
      "hit": false,
      "t": 99554.55999999976,
      "d": 880.7782291666663,
      "v": 1
    },
    {
      "midi": 73,
      "hit": false,
      "t": 99554.55999999976,
      "d": 892.3521875000006,
      "v": 1
    },
    {
      "midi": 56,
      "hit": false,
      "t": 100443.43999999977,
      "d": 774.2978124999936,
      "v": 1
    },
    {
      "midi": 59,
      "hit": false,
      "t": 100443.43999999977,
      "d": 885.4078124999942,
      "v": 1
    },
    {
      "midi": 71,
      "hit": false,
      "t": 100443.43999999977,
      "d": 903.9261458333203,
      "v": 1
    },
    {
      "midi": 54,
      "hit": false,
      "t": 101332.31999999976,
      "d": 880.7782291666663,
      "v": 1
    },
    {
      "midi": 62,
      "hit": false,
      "t": 101332.31999999976,
      "d": 880.7782291666663,
      "v": 1
    },
    {
      "midi": 69,
      "hit": false,
      "t": 101332.31999999976,
      "d": 894.6669791666645,
      "v": 1
    },
    {
      "midi": 74,
      "hit": false,
      "t": 101332.31999999976,
      "d": 894.6669791666645,
      "v": 1
    },
    {
      "midi": 56,
      "hit": false,
      "t": 102221.19999999976,
      "d": 885.4078124999942,
      "v": 1
    },
    {
      "midi": 59,
      "hit": false,
      "t": 102221.19999999976,
      "d": 885.4078124999942,
      "v": 1
    },
    {
      "midi": 71,
      "hit": false,
      "t": 102221.19999999976,
      "d": 885.4078124999942,
      "v": 1
    },
    {
      "midi": 57,
      "hit": false,
      "t": 103110.07999999975,
      "d": 880.7782291666663,
      "v": 1
    },
    {
      "midi": 61,
      "hit": false,
      "t": 103110.07999999975,
      "d": 880.7782291666663,
      "v": 1
    },
    {
      "midi": 73,
      "hit": false,
      "t": 103110.07999999975,
      "d": 894.6669791666645,
      "v": 1
    },
    {
      "midi": 56,
      "hit": false,
      "t": 103998.95999999976,
      "d": 880.7782291666663,
      "v": 1
    },
    {
      "midi": 59,
      "hit": false,
      "t": 103998.95999999976,
      "d": 880.7782291666663,
      "v": 1
    },
    {
      "midi": 71,
      "hit": false,
      "t": 103998.95999999976,
      "d": 896.981770833343,
      "v": 1
    },
    {
      "midi": 54,
      "hit": false,
      "t": 104887.83999999976,
      "d": 1774.2878124999988,
      "v": 1
    },
    {
      "midi": 62,
      "hit": false,
      "t": 104887.83999999976,
      "d": 1774.2878124999988,
      "v": 1
    },
    {
      "midi": 69,
      "hit": false,
      "t": 104887.83999999976,
      "d": 1774.2878124999988,
      "v": 1
    },
    {
      "midi": 74,
      "hit": false,
      "t": 104887.83999999976,
      "d": 1774.2878124999988,
      "v": 1
    },
    {
      "midi": 57,
      "hit": false,
      "t": 106665.59999999976,
      "d": 880.7782291666663,
      "v": 1
    },
    {
      "midi": 61,
      "hit": false,
      "t": 106665.59999999976,
      "d": 880.7782291666663,
      "v": 1
    },
    {
      "midi": 73,
      "hit": false,
      "t": 106665.59999999976,
      "d": 890.0373958333366,
      "v": 1
    },
    {
      "midi": 56,
      "hit": false,
      "t": 107554.47999999976,
      "d": 885.4078124999942,
      "v": 1
    },
    {
      "midi": 59,
      "hit": false,
      "t": 107554.47999999976,
      "d": 885.4078124999942,
      "v": 1
    },
    {
      "midi": 71,
      "hit": false,
      "t": 107554.47999999976,
      "d": 885.4078124999942,
      "v": 1
    },
    {
      "midi": 54,
      "hit": false,
      "t": 108443.35999999975,
      "d": 885.4078124999942,
      "v": 1
    },
    {
      "midi": 62,
      "hit": false,
      "t": 108443.35999999975,
      "d": 885.4078124999942,
      "v": 1
    },
    {
      "midi": 69,
      "hit": false,
      "t": 108443.35999999975,
      "d": 885.4078124999942,
      "v": 1
    },
    {
      "midi": 74,
      "hit": false,
      "t": 108443.35999999975,
      "d": 885.4078124999942,
      "v": 1
    },
    {
      "midi": 56,
      "hit": false,
      "t": 109332.23999999974,
      "d": 825.2232291666733,
      "v": 1
    },
    {
      "midi": 64,
      "hit": false,
      "t": 109332.23999999974,
      "d": 825.2232291666733,
      "v": 1
    },
    {
      "midi": 59,
      "hit": false,
      "t": 109332.23999999974,
      "d": 853.0007291666698,
      "v": 1
    },
    {
      "midi": 76,
      "hit": false,
      "t": 109332.23999999974,
      "d": 864.5746875000041,
      "v": 1
    },
    {
      "midi": 71,
      "hit": false,
      "t": 109332.23999999974,
      "d": 873.8338541666744,
      "v": 1
    },
    {
      "midi": 61,
      "hit": false,
      "t": 127998.71999999972,
      "d": 653.9286458333081,
      "v": 1
    },
    {
      "midi": 62,
      "hit": false,
      "t": 128656.12083333303,
      "d": 225.6921874999971,
      "v": 1
    },
    {
      "midi": 64,
      "hit": false,
      "t": 128885.28520833302,
      "d": 663.187812499993,
      "v": 1
    },
    {
      "midi": 66,
      "hit": false,
      "t": 129551.94520833301,
      "d": 221.0626041666692,
      "v": 1
    },
    {
      "midi": 64,
      "hit": false,
      "t": 129776.47999999968,
      "d": 214.1182291666628,
      "v": 1
    },
    {
      "midi": 62,
      "hit": false,
      "t": 129991.75562499967,
      "d": 438.6530208333279,
      "v": 1
    },
    {
      "midi": 61,
      "hit": false,
      "t": 130433.880833333,
      "d": 228.00697916666104,
      "v": 1
    },
    {
      "midi": 62,
      "hit": false,
      "t": 130665.35999999965,
      "d": 880.7782291666808,
      "v": 1
    },
    {
      "midi": 66,
      "hit": false,
      "t": 131549.61041666634,
      "d": 883.0930208333302,
      "v": 1
    },
    {
      "midi": 69,
      "hit": false,
      "t": 132436.17562499968,
      "d": 665.502604166657,
      "v": 1
    },
    {
      "midi": 61,
      "hit": false,
      "t": 133105.15041666635,
      "d": 466.4305208333244,
      "v": 1
    },
    {
      "midi": 62,
      "hit": false,
      "t": 133575.0531249997,
      "d": 640.0398958333535,
      "v": 1
    },
    {
      "midi": 64,
      "hit": false,
      "t": 134218.56520833305,
      "d": 887.7226041667163,
      "v": 1
    },
    {
      "midi": 61,
      "hit": false,
      "t": 135109.75999999978,
      "d": 646.9842708333745,
      "v": 1
    },
    {
      "midi": 62,
      "hit": false,
      "t": 135760.21645833316,
      "d": 223.3773958333477,
      "v": 1
    },
    {
      "midi": 64,
      "hit": false,
      "t": 135987.06604166652,
      "d": 670.132187500014,
      "v": 1
    },
    {
      "midi": 66,
      "hit": false,
      "t": 136660.67041666654,
      "d": 221.06260416665464,
      "v": 1
    },
    {
      "midi": 64,
      "hit": false,
      "t": 136885.2052083332,
      "d": 211.80343749999884,
      "v": 1
    },
    {
      "midi": 62,
      "hit": false,
      "t": 137100.48083333322,
      "d": 440.96781249999185,
      "v": 1
    },
    {
      "midi": 61,
      "hit": false,
      "t": 137544.92083333322,
      "d": 225.69218750001164,
      "v": 1
    },
    {
      "midi": 62,
      "hit": false,
      "t": 137774.08520833324,
      "d": 887.7226041666581,
      "v": 1
    },
    {
      "midi": 66,
      "hit": false,
      "t": 138665.2799999999,
      "d": 878.4634375000023,
      "v": 1
    },
    {
      "midi": 69,
      "hit": false,
      "t": 139547.21562499992,
      "d": 653.9286458333372,
      "v": 1
    },
    {
      "midi": 62,
      "hit": false,
      "t": 140204.61645833327,
      "d": 670.132187500014,
      "v": 1
    },
    {
      "midi": 64,
      "hit": false,
      "t": 140878.2208333333,
      "d": 454.85656250000466,
      "v": 1
    },
    {
      "midi": 61,
      "hit": false,
      "t": 141336.5495833333,
      "d": 769.6682291666802,
      "v": 1
    },
    {
      "midi": 57,
      "hit": false,
      "t": 151998.47999999998,
      "d": 880.7782291666663,
      "v": 1
    },
    {
      "midi": 61,
      "hit": false,
      "t": 151998.47999999998,
      "d": 880.7782291666663,
      "v": 1
    },
    {
      "midi": 73,
      "hit": false,
      "t": 151998.47999999998,
      "d": 892.3521875000151,
      "v": 1
    },
    {
      "midi": 56,
      "hit": false,
      "t": 152887.36,
      "d": 774.2978125000081,
      "v": 1
    },
    {
      "midi": 59,
      "hit": false,
      "t": 152887.36,
      "d": 885.4078124999942,
      "v": 1
    },
    {
      "midi": 71,
      "hit": false,
      "t": 152887.36,
      "d": 903.9261458333349,
      "v": 1
    },
    {
      "midi": 54,
      "hit": false,
      "t": 153776.24,
      "d": 880.7782291666663,
      "v": 1
    },
    {
      "midi": 62,
      "hit": false,
      "t": 153776.24,
      "d": 880.7782291666663,
      "v": 1
    },
    {
      "midi": 69,
      "hit": false,
      "t": 153776.24,
      "d": 894.6669791666791,
      "v": 1
    },
    {
      "midi": 74,
      "hit": false,
      "t": 153776.24,
      "d": 894.6669791666791,
      "v": 1
    },
    {
      "midi": 56,
      "hit": false,
      "t": 154665.12,
      "d": 885.4078124999942,
      "v": 1
    },
    {
      "midi": 59,
      "hit": false,
      "t": 154665.12,
      "d": 885.4078124999942,
      "v": 1
    },
    {
      "midi": 71,
      "hit": false,
      "t": 154665.12,
      "d": 885.4078124999942,
      "v": 1
    },
    {
      "midi": 57,
      "hit": false,
      "t": 155554,
      "d": 880.7782291666663,
      "v": 1
    },
    {
      "midi": 61,
      "hit": false,
      "t": 155554,
      "d": 880.7782291666663,
      "v": 1
    },
    {
      "midi": 73,
      "hit": false,
      "t": 155554,
      "d": 894.6669791666791,
      "v": 1
    },
    {
      "midi": 56,
      "hit": false,
      "t": 156442.88,
      "d": 880.7782291666663,
      "v": 1
    },
    {
      "midi": 59,
      "hit": false,
      "t": 156442.88,
      "d": 880.7782291666663,
      "v": 1
    },
    {
      "midi": 71,
      "hit": false,
      "t": 156442.88,
      "d": 896.981770833343,
      "v": 1
    },
    {
      "midi": 54,
      "hit": false,
      "t": 157331.76,
      "d": 1774.2878124999988,
      "v": 1
    },
    {
      "midi": 62,
      "hit": false,
      "t": 157331.76,
      "d": 1774.2878124999988,
      "v": 1
    },
    {
      "midi": 69,
      "hit": false,
      "t": 157331.76,
      "d": 1774.2878124999988,
      "v": 1
    },
    {
      "midi": 74,
      "hit": false,
      "t": 157331.76,
      "d": 1774.2878124999988,
      "v": 1
    },
    {
      "midi": 57,
      "hit": false,
      "t": 159109.52000000002,
      "d": 880.7782291666663,
      "v": 1
    },
    {
      "midi": 61,
      "hit": false,
      "t": 159109.52000000002,
      "d": 880.7782291666663,
      "v": 1
    },
    {
      "midi": 73,
      "hit": false,
      "t": 159109.52000000002,
      "d": 892.3521875000151,
      "v": 1
    },
    {
      "midi": 56,
      "hit": false,
      "t": 159998.40000000002,
      "d": 774.2978125000081,
      "v": 1
    },
    {
      "midi": 59,
      "hit": false,
      "t": 159998.40000000002,
      "d": 885.4078124999942,
      "v": 1
    },
    {
      "midi": 71,
      "hit": false,
      "t": 159998.40000000002,
      "d": 903.9261458333349,
      "v": 1
    },
    {
      "midi": 54,
      "hit": false,
      "t": 160887.28000000003,
      "d": 880.7782291666663,
      "v": 1
    },
    {
      "midi": 62,
      "hit": false,
      "t": 160887.28000000003,
      "d": 880.7782291666663,
      "v": 1
    },
    {
      "midi": 69,
      "hit": false,
      "t": 160887.28000000003,
      "d": 894.6669791666791,
      "v": 1
    },
    {
      "midi": 74,
      "hit": false,
      "t": 160887.28000000003,
      "d": 894.6669791666791,
      "v": 1
    },
    {
      "midi": 56,
      "hit": false,
      "t": 161776.16000000003,
      "d": 885.4078124999942,
      "v": 1
    },
    {
      "midi": 59,
      "hit": false,
      "t": 161776.16000000003,
      "d": 885.4078124999942,
      "v": 1
    },
    {
      "midi": 71,
      "hit": false,
      "t": 161776.16000000003,
      "d": 885.4078124999942,
      "v": 1
    },
    {
      "midi": 57,
      "hit": false,
      "t": 162665.04000000004,
      "d": 880.7782291666663,
      "v": 1
    },
    {
      "midi": 61,
      "hit": false,
      "t": 162665.04000000004,
      "d": 880.7782291666663,
      "v": 1
    },
    {
      "midi": 73,
      "hit": false,
      "t": 162665.04000000004,
      "d": 894.6669791666791,
      "v": 1
    },
    {
      "midi": 56,
      "hit": false,
      "t": 163553.92000000004,
      "d": 880.7782291666663,
      "v": 1
    },
    {
      "midi": 59,
      "hit": false,
      "t": 163553.92000000004,
      "d": 880.7782291666663,
      "v": 1
    },
    {
      "midi": 71,
      "hit": false,
      "t": 163553.92000000004,
      "d": 896.981770833343,
      "v": 1
    },
    {
      "midi": 54,
      "hit": false,
      "t": 164442.80000000005,
      "d": 1774.2878124999988,
      "v": 1
    },
    {
      "midi": 62,
      "hit": false,
      "t": 164442.80000000005,
      "d": 1774.2878124999988,
      "v": 1
    },
    {
      "midi": 69,
      "hit": false,
      "t": 164442.80000000005,
      "d": 1774.2878124999988,
      "v": 1
    },
    {
      "midi": 74,
      "hit": false,
      "t": 164442.80000000005,
      "d": 1774.2878124999988,
      "v": 1
    },
    {
      "midi": 57,
      "hit": false,
      "t": 166220.56000000006,
      "d": 880.7782291666663,
      "v": 1
    },
    {
      "midi": 61,
      "hit": false,
      "t": 166220.56000000006,
      "d": 880.7782291666663,
      "v": 1
    },
    {
      "midi": 73,
      "hit": false,
      "t": 166220.56000000006,
      "d": 892.3521875000151,
      "v": 1
    },
    {
      "midi": 56,
      "hit": false,
      "t": 167109.44000000006,
      "d": 774.2978125000081,
      "v": 1
    },
    {
      "midi": 59,
      "hit": false,
      "t": 167109.44000000006,
      "d": 885.4078124999942,
      "v": 1
    },
    {
      "midi": 71,
      "hit": false,
      "t": 167109.44000000006,
      "d": 903.9261458333349,
      "v": 1
    },
    {
      "midi": 54,
      "hit": false,
      "t": 167998.32000000007,
      "d": 880.7782291666663,
      "v": 1
    },
    {
      "midi": 62,
      "hit": false,
      "t": 167998.32000000007,
      "d": 880.7782291666663,
      "v": 1
    },
    {
      "midi": 69,
      "hit": false,
      "t": 167998.32000000007,
      "d": 894.6669791666791,
      "v": 1
    },
    {
      "midi": 74,
      "hit": false,
      "t": 167998.32000000007,
      "d": 894.6669791666791,
      "v": 1
    },
    {
      "midi": 56,
      "hit": false,
      "t": 168887.20000000007,
      "d": 885.4078124999942,
      "v": 1
    },
    {
      "midi": 59,
      "hit": false,
      "t": 168887.20000000007,
      "d": 885.4078124999942,
      "v": 1
    },
    {
      "midi": 71,
      "hit": false,
      "t": 168887.20000000007,
      "d": 885.4078124999942,
      "v": 1
    },
    {
      "midi": 57,
      "hit": false,
      "t": 169776.08000000007,
      "d": 880.7782291666663,
      "v": 1
    },
    {
      "midi": 61,
      "hit": false,
      "t": 169776.08000000007,
      "d": 880.7782291666663,
      "v": 1
    },
    {
      "midi": 73,
      "hit": false,
      "t": 169776.08000000007,
      "d": 894.6669791666791,
      "v": 1
    },
    {
      "midi": 56,
      "hit": false,
      "t": 170664.96000000008,
      "d": 880.7782291666663,
      "v": 1
    },
    {
      "midi": 59,
      "hit": false,
      "t": 170664.96000000008,
      "d": 880.7782291666663,
      "v": 1
    },
    {
      "midi": 71,
      "hit": false,
      "t": 170664.96000000008,
      "d": 896.981770833343,
      "v": 1
    },
    {
      "midi": 54,
      "hit": false,
      "t": 171553.84000000008,
      "d": 1774.2878124999988,
      "v": 1
    },
    {
      "midi": 62,
      "hit": false,
      "t": 171553.84000000008,
      "d": 1774.2878124999988,
      "v": 1
    },
    {
      "midi": 69,
      "hit": false,
      "t": 171553.84000000008,
      "d": 1774.2878124999988,
      "v": 1
    },
    {
      "midi": 74,
      "hit": false,
      "t": 171553.84000000008,
      "d": 1774.2878124999988,
      "v": 1
    },
    {
      "midi": 57,
      "hit": false,
      "t": 173331.6000000001,
      "d": 880.7782291666663,
      "v": 1
    },
    {
      "midi": 61,
      "hit": false,
      "t": 173331.6000000001,
      "d": 880.7782291666663,
      "v": 1
    },
    {
      "midi": 73,
      "hit": false,
      "t": 173331.6000000001,
      "d": 892.3521875000151,
      "v": 1
    },
    {
      "midi": 56,
      "hit": false,
      "t": 174220.4800000001,
      "d": 774.2978125000081,
      "v": 1
    },
    {
      "midi": 59,
      "hit": false,
      "t": 174220.4800000001,
      "d": 885.4078124999942,
      "v": 1
    },
    {
      "midi": 71,
      "hit": false,
      "t": 174220.4800000001,
      "d": 903.9261458333349,
      "v": 1
    },
    {
      "midi": 54,
      "hit": false,
      "t": 175109.3600000001,
      "d": 880.7782291666663,
      "v": 1
    },
    {
      "midi": 62,
      "hit": false,
      "t": 175109.3600000001,
      "d": 880.7782291666663,
      "v": 1
    },
    {
      "midi": 69,
      "hit": false,
      "t": 175109.3600000001,
      "d": 894.6669791666791,
      "v": 1
    },
    {
      "midi": 74,
      "hit": false,
      "t": 175109.3600000001,
      "d": 894.6669791666791,
      "v": 1
    },
    {
      "midi": 56,
      "hit": false,
      "t": 175998.2400000001,
      "d": 885.4078124999942,
      "v": 1
    },
    {
      "midi": 59,
      "hit": false,
      "t": 175998.2400000001,
      "d": 885.4078124999942,
      "v": 1
    },
    {
      "midi": 71,
      "hit": false,
      "t": 175998.2400000001,
      "d": 885.4078124999942,
      "v": 1
    },
    {
      "midi": 57,
      "hit": false,
      "t": 176887.1200000001,
      "d": 880.7782291666663,
      "v": 1
    },
    {
      "midi": 61,
      "hit": false,
      "t": 176887.1200000001,
      "d": 880.7782291666663,
      "v": 1
    },
    {
      "midi": 73,
      "hit": false,
      "t": 176887.1200000001,
      "d": 894.6669791666791,
      "v": 1
    },
    {
      "midi": 56,
      "hit": false,
      "t": 177776.00000000012,
      "d": 885.4078124999942,
      "v": 1
    },
    {
      "midi": 59,
      "hit": false,
      "t": 177776.00000000012,
      "d": 885.4078124999942,
      "v": 1
    },
    {
      "midi": 71,
      "hit": false,
      "t": 177776.00000000012,
      "d": 896.981770833343,
      "v": 1
    },
    {
      "midi": 57,
      "hit": false,
      "t": 178664.88000000012,
      "d": 1107.6278124999953,
      "v": 1
    },
    {
      "midi": 62,
      "hit": false,
      "t": 178664.88000000012,
      "d": 1107.6278124999953,
      "v": 1
    },
    {
      "midi": 66,
      "hit": false,
      "t": 178664.88000000012,
      "d": 1107.6278124999953,
      "v": 1
    },
    {
      "midi": 59,
      "hit": false,
      "t": 179775.98000000013,
      "d": 218.7478124999907,
      "v": 1
    },
    {
      "midi": 64,
      "hit": false,
      "t": 179775.98000000013,
      "d": 218.7478124999907,
      "v": 1
    },
    {
      "midi": 68,
      "hit": false,
      "t": 179775.98000000013,
      "d": 218.7478124999907,
      "v": 1
    },
    {
      "midi": 61,
      "hit": false,
      "t": 179998.20000000013,
      "d": 3107.607812500006,
      "v": 1
    },
    {
      "midi": 64,
      "hit": false,
      "t": 179998.20000000013,
      "d": 3107.607812500006,
      "v": 1
    },
    {
      "midi": 69,
      "hit": false,
      "t": 179998.20000000013,
      "d": 3107.607812500006,
      "v": 1
    }
  ]
}