{
  "jsonPath": "Unknown/Unknown/FR David/words.json",
  "path": "Unknown\\Unknown\\FR David\\Words.mid",
  "name": "Words",
  "difficulty": "Intermediate",
  "bpm": 121.00043156820593,
  "notes": [
    {
      "midi": 53,
      "hit": false,
      "t": 48594.86800000001,
      "d": 477.78755208333314,
      "v": 112
    },
    {
      "midi": 57,
      "hit": false,
      "t": 48594.86800000001,
      "d": 477.78755208333314,
      "v": 127
    },
    {
      "midi": 48,
      "hit": false,
      "t": 48594.86800000001,
      "d": 480.370187499997,
      "v": 112
    },
    {
      "midi": 48,
      "hit": false,
      "t": 49090.734000000004,
      "d": 415.80430208333564,
      "v": 115
    },
    {
      "midi": 52,
      "hit": false,
      "t": 49090.734000000004,
      "d": 415.80430208333564,
      "v": 115
    },
    {
      "midi": 55,
      "hit": false,
      "t": 49090.734000000004,
      "d": 415.80430208333564,
      "v": 127
    },
    {
      "midi": 43,
      "hit": false,
      "t": 49586.600000000006,
      "d": 1978.298729166665,
      "v": 109
    },
    {
      "midi": 50,
      "hit": false,
      "t": 49586.600000000006,
      "d": 1978.298729166665,
      "v": 96
    },
    {
      "midi": 59,
      "hit": false,
      "t": 49586.600000000006,
      "d": 1978.298729166665,
      "v": 104
    },
    {
      "midi": 55,
      "hit": false,
      "t": 49586.600000000006,
      "d": 3961.762729166665,
      "v": 104
    },
    {
      "midi": 48,
      "hit": false,
      "t": 51570.064000000006,
      "d": 1978.298729166665,
      "v": 79
    },
    {
      "midi": 52,
      "hit": false,
      "t": 51570.064000000006,
      "d": 1978.298729166665,
      "v": 75
    },
    {
      "midi": 60,
      "hit": false,
      "t": 51570.064000000006,
      "d": 1978.298729166665,
      "v": 69
    },
    {
      "midi": 48,
      "hit": false,
      "t": 90247.61200000001,
      "d": 477.78755208333314,
      "v": 117
    },
    {
      "midi": 57,
      "hit": false,
      "t": 90247.61200000001,
      "d": 501.0312708333222,
      "v": 127
    },
    {
      "midi": 53,
      "hit": false,
      "t": 90247.61200000001,
      "d": 573.3450624999823,
      "v": 120
    },
    {
      "midi": 52,
      "hit": false,
      "t": 90743.478,
      "d": 459.7091041666572,
      "v": 109
    },
    {
      "midi": 55,
      "hit": false,
      "t": 90743.478,
      "d": 470.0396458333271,
      "v": 89
    },
    {
      "midi": 48,
      "hit": false,
      "t": 90743.478,
      "d": 477.78755208333314,
      "v": 102
    },
    {
      "midi": 43,
      "hit": false,
      "t": 91239.344,
      "d": 1978.298729166665,
      "v": 109
    },
    {
      "midi": 50,
      "hit": false,
      "t": 91239.344,
      "d": 1978.298729166665,
      "v": 96
    },
    {
      "midi": 59,
      "hit": false,
      "t": 91239.344,
      "d": 1978.298729166665,
      "v": 104
    },
    {
      "midi": 55,
      "hit": false,
      "t": 91239.344,
      "d": 3961.7627291666577,
      "v": 104
    },
    {
      "midi": 48,
      "hit": false,
      "t": 93222.80799999999,
      "d": 1978.298729166665,
      "v": 59
    },
    {
      "midi": 52,
      "hit": false,
      "t": 93222.80799999999,
      "d": 1978.298729166665,
      "v": 55
    },
    {
      "midi": 60,
      "hit": false,
      "t": 93222.80799999999,
      "d": 1978.298729166665,
      "v": 49
    }
  ]
}