{
  "jsonPath": "Unknown/Unknown/Renato E Seus Bluecaps/meu-primeiro-amor-youre-going-to-lose-that-girl.json",
  "path": "Unknown\\Unknown\\Renato E Seus Bluecaps\\Meu Primeiro Amor (Youre Going To Lose That Girl).mid",
  "name": "Meu Primeiro Amor (Youre Going To Lose That Girl)",
  "difficulty": "Advanced",
  "bpm": 135.000135000135,
  "notes": [
    {
      "midi": 52,
      "hit": false,
      "t": 1846.1480000000001,
      "d": 461.53700000000026,
      "v": 110
    },
    {
      "midi": 52,
      "hit": false,
      "t": 2307.6850000000004,
      "d": 461.53700000000026,
      "v": 110
    },
    {
      "midi": 59,
      "hit": false,
      "t": 2307.6850000000004,
      "d": 461.53700000000026,
      "v": 100
    },
    {
      "midi": 64,
      "hit": false,
      "t": 2307.6850000000004,
      "d": 461.53700000000026,
      "v": 100
    },
    {
      "midi": 68,
      "hit": false,
      "t": 2307.6850000000004,
      "d": 461.53700000000026,
      "v": 100
    },
    {
      "midi": 52,
      "hit": false,
      "t": 2769.2220000000007,
      "d": 230.76850000000013,
      "v": 110
    },
    {
      "midi": 59,
      "hit": false,
      "t": 2769.2220000000007,
      "d": 230.76850000000013,
      "v": 100
    },
    {
      "midi": 64,
      "hit": false,
      "t": 2769.2220000000007,
      "d": 230.76850000000013,
      "v": 100
    },
    {
      "midi": 68,
      "hit": false,
      "t": 2769.2220000000007,
      "d": 230.76850000000013,
      "v": 100
    },
    {
      "midi": 52,
      "hit": false,
      "t": 2999.990500000001,
      "d": 461.53700000000026,
      "v": 110
    },
    {
      "midi": 59,
      "hit": false,
      "t": 2999.990500000001,
      "d": 461.53700000000026,
      "v": 100
    },
    {
      "midi": 64,
      "hit": false,
      "t": 2999.990500000001,
      "d": 461.53700000000026,
      "v": 100
    },
    {
      "midi": 68,
      "hit": false,
      "t": 2999.990500000001,
      "d": 461.53700000000026,
      "v": 100
    },
    {
      "midi": 52,
      "hit": false,
      "t": 3461.527500000001,
      "d": 230.76850000000013,
      "v": 110
    },
    {
      "midi": 59,
      "hit": false,
      "t": 3461.527500000001,
      "d": 230.76850000000013,
      "v": 100
    },
    {
      "midi": 64,
      "hit": false,
      "t": 3461.527500000001,
      "d": 230.76850000000013,
      "v": 100
    },
    {
      "midi": 68,
      "hit": false,
      "t": 3461.527500000001,
      "d": 230.76850000000013,
      "v": 100
    },
    {
      "midi": 49,
      "hit": false,
      "t": 3692.296000000001,
      "d": 461.53700000000026,
      "v": 110
    },
    {
      "midi": 49,
      "hit": false,
      "t": 4153.833000000001,
      "d": 461.53700000000026,
      "v": 110
    },
    {
      "midi": 61,
      "hit": false,
      "t": 4153.833000000001,
      "d": 461.53700000000026,
      "v": 100
    },
    {
      "midi": 64,
      "hit": false,
      "t": 4153.833000000001,
      "d": 461.53700000000026,
      "v": 100
    },
    {
      "midi": 68,
      "hit": false,
      "t": 4153.833000000001,
      "d": 461.53700000000026,
      "v": 100
    },
    {
      "midi": 49,
      "hit": false,
      "t": 4615.370000000002,
      "d": 230.76850000000013,
      "v": 110
    },
    {
      "midi": 61,
      "hit": false,
      "t": 4615.370000000002,
      "d": 230.76850000000013,
      "v": 100
    },
    {
      "midi": 64,
      "hit": false,
      "t": 4615.370000000002,
      "d": 230.76850000000013,
      "v": 100
    },
    {
      "midi": 68,
      "hit": false,
      "t": 4615.370000000002,
      "d": 230.76850000000013,
      "v": 100
    },
    {
      "midi": 49,
      "hit": false,
      "t": 4846.138500000002,
      "d": 461.53700000000026,
      "v": 110
    },
    {
      "midi": 61,
      "hit": false,
      "t": 4846.138500000002,
      "d": 461.53700000000026,
      "v": 100
    },
    {
      "midi": 64,
      "hit": false,
      "t": 4846.138500000002,
      "d": 461.53700000000026,
      "v": 100
    },
    {
      "midi": 68,
      "hit": false,
      "t": 4846.138500000002,
      "d": 461.53700000000026,
      "v": 100
    },
    {
      "midi": 49,
      "hit": false,
      "t": 5307.675500000002,
      "d": 230.76850000000013,
      "v": 110
    },
    {
      "midi": 61,
      "hit": false,
      "t": 5307.675500000002,
      "d": 230.76850000000013,
      "v": 100
    },
    {
      "midi": 64,
      "hit": false,
      "t": 5307.675500000002,
      "d": 230.76850000000013,
      "v": 100
    },
    {
      "midi": 68,
      "hit": false,
      "t": 5307.675500000002,
      "d": 230.76850000000013,
      "v": 100
    },
    {
      "midi": 42,
      "hit": false,
      "t": 5538.444000000002,
      "d": 461.53700000000026,
      "v": 110
    },
    {
      "midi": 42,
      "hit": false,
      "t": 5999.9810000000025,
      "d": 461.53700000000026,
      "v": 110
    },
    {
      "midi": 57,
      "hit": false,
      "t": 5999.9810000000025,
      "d": 461.53700000000026,
      "v": 100
    },
    {
      "midi": 61,
      "hit": false,
      "t": 5999.9810000000025,
      "d": 461.53700000000026,
      "v": 100
    },
    {
      "midi": 66,
      "hit": false,
      "t": 5999.9810000000025,
      "d": 461.53700000000026,
      "v": 100
    },
    {
      "midi": 42,
      "hit": false,
      "t": 6461.518000000003,
      "d": 230.76850000000013,
      "v": 110
    },
    {
      "midi": 57,
      "hit": false,
      "t": 6461.518000000003,
      "d": 230.76850000000013,
      "v": 100
    },
    {
      "midi": 61,
      "hit": false,
      "t": 6461.518000000003,
      "d": 230.76850000000013,
      "v": 100
    },
    {
      "midi": 66,
      "hit": false,
      "t": 6461.518000000003,
      "d": 230.76850000000013,
      "v": 100
    },
    {
      "midi": 42,
      "hit": false,
      "t": 6692.286500000003,
      "d": 461.53700000000026,
      "v": 110
    },
    {
      "midi": 57,
      "hit": false,
      "t": 6692.286500000003,
      "d": 461.53700000000026,
      "v": 100
    },
    {
      "midi": 61,
      "hit": false,
      "t": 6692.286500000003,
      "d": 461.53700000000026,
      "v": 100
    },
    {
      "midi": 66,
      "hit": false,
      "t": 6692.286500000003,
      "d": 461.53700000000026,
      "v": 100
    },
    {
      "midi": 42,
      "hit": false,
      "t": 7153.823500000003,
      "d": 230.76850000000013,
      "v": 110
    },
    {
      "midi": 57,
      "hit": false,
      "t": 7153.823500000003,
      "d": 230.76850000000013,
      "v": 100
    },
    {
      "midi": 61,
      "hit": false,
      "t": 7153.823500000003,
      "d": 230.76850000000013,
      "v": 100
    },
    {
      "midi": 66,
      "hit": false,
      "t": 7153.823500000003,
      "d": 230.76850000000013,
      "v": 100
    },
    {
      "midi": 47,
      "hit": false,
      "t": 7384.592000000003,
      "d": 461.53700000000026,
      "v": 110
    },
    {
      "midi": 47,
      "hit": false,
      "t": 7846.1290000000035,
      "d": 461.53699999999935,
      "v": 110
    },
    {
      "midi": 59,
      "hit": false,
      "t": 7846.1290000000035,
      "d": 1384.6109999999962,
      "v": 100
    },
    {
      "midi": 63,
      "hit": false,
      "t": 7846.1290000000035,
      "d": 1384.6109999999962,
      "v": 100
    },
    {
      "midi": 66,
      "hit": false,
      "t": 7846.1290000000035,
      "d": 1384.6109999999962,
      "v": 100
    },
    {
      "midi": 47,
      "hit": false,
      "t": 8307.666000000003,
      "d": 115.38424999999916,
      "v": 115
    },
    {
      "midi": 47,
      "hit": false,
      "t": 8423.050250000002,
      "d": 115.38424999999916,
      "v": 115
    },
    {
      "midi": 47,
      "hit": false,
      "t": 8538.434500000001,
      "d": 115.38424999999916,
      "v": 115
    },
    {
      "midi": 47,
      "hit": false,
      "t": 8653.81875,
      "d": 115.38424999999916,
      "v": 115
    },
    {
      "midi": 47,
      "hit": false,
      "t": 8769.203,
      "d": 230.76850000000013,
      "v": 115
    },
    {
      "midi": 47,
      "hit": false,
      "t": 8999.9715,
      "d": 230.76850000000013,
      "v": 115
    },
    {
      "midi": 52,
      "hit": false,
      "t": 9230.74,
      "d": 230.76850000000013,
      "v": 110
    },
    {
      "midi": 52,
      "hit": false,
      "t": 9461.5085,
      "d": 692.3055000000004,
      "v": 110
    },
    {
      "midi": 47,
      "hit": false,
      "t": 10153.814,
      "d": 230.76850000000013,
      "v": 110
    },
    {
      "midi": 47,
      "hit": false,
      "t": 10384.5825,
      "d": 692.3055000000004,
      "v": 110
    },
    {
      "midi": 44,
      "hit": false,
      "t": 11076.888,
      "d": 230.76850000000013,
      "v": 110
    },
    {
      "midi": 44,
      "hit": false,
      "t": 11307.656500000001,
      "d": 692.3055000000004,
      "v": 110
    },
    {
      "midi": 44,
      "hit": false,
      "t": 11999.962000000001,
      "d": 230.76850000000013,
      "v": 110
    },
    {
      "midi": 44,
      "hit": false,
      "t": 12230.730500000001,
      "d": 692.3055000000004,
      "v": 110
    },
    {
      "midi": 42,
      "hit": false,
      "t": 12923.036000000002,
      "d": 230.76850000000013,
      "v": 110
    },
    {
      "midi": 42,
      "hit": false,
      "t": 13153.804500000002,
      "d": 692.3055000000004,
      "v": 110
    },
    {
      "midi": 42,
      "hit": false,
      "t": 13846.110000000002,
      "d": 230.76850000000013,
      "v": 110
    },
    {
      "midi": 42,
      "hit": false,
      "t": 14076.878500000003,
      "d": 692.3055000000004,
      "v": 110
    },
    {
      "midi": 47,
      "hit": false,
      "t": 14769.184000000003,
      "d": 230.76850000000013,
      "v": 110
    },
    {
      "midi": 47,
      "hit": false,
      "t": 14999.952500000003,
      "d": 692.3055000000004,
      "v": 110
    },
    {
      "midi": 47,
      "hit": false,
      "t": 15692.258000000003,
      "d": 230.76850000000013,
      "v": 110
    },
    {
      "midi": 47,
      "hit": false,
      "t": 15923.026500000004,
      "d": 230.76850000000013,
      "v": 110
    },
    {
      "midi": 49,
      "hit": false,
      "t": 16153.795000000004,
      "d": 230.76850000000013,
      "v": 110
    },
    {
      "midi": 51,
      "hit": false,
      "t": 16384.563500000004,
      "d": 230.7684999999983,
      "v": 110
    },
    {
      "midi": 52,
      "hit": false,
      "t": 16615.332000000002,
      "d": 230.7684999999983,
      "v": 110
    },
    {
      "midi": 52,
      "hit": false,
      "t": 16846.1005,
      "d": 692.3054999999986,
      "v": 110
    },
    {
      "midi": 47,
      "hit": false,
      "t": 17538.406,
      "d": 230.7684999999983,
      "v": 110
    },
    {
      "midi": 47,
      "hit": false,
      "t": 17769.174499999997,
      "d": 692.3054999999986,
      "v": 110
    },
    {
      "midi": 44,
      "hit": false,
      "t": 18461.479999999996,
      "d": 230.7684999999983,
      "v": 110
    },
    {
      "midi": 44,
      "hit": false,
      "t": 18692.248499999994,
      "d": 692.3054999999986,
      "v": 110
    },
    {
      "midi": 44,
      "hit": false,
      "t": 19384.553999999993,
      "d": 230.7684999999983,
      "v": 110
    },
    {
      "midi": 44,
      "hit": false,
      "t": 19615.32249999999,
      "d": 692.3054999999986,
      "v": 110
    },
    {
      "midi": 42,
      "hit": false,
      "t": 20307.62799999999,
      "d": 230.7684999999983,
      "v": 110
    },
    {
      "midi": 42,
      "hit": false,
      "t": 20538.396499999988,
      "d": 692.3054999999986,
      "v": 110
    },
    {
      "midi": 42,
      "hit": false,
      "t": 21230.701999999987,
      "d": 230.7684999999983,
      "v": 110
    },
    {
      "midi": 42,
      "hit": false,
      "t": 21461.470499999985,
      "d": 692.3054999999986,
      "v": 110
    },
    {
      "midi": 47,
      "hit": false,
      "t": 22153.775999999983,
      "d": 230.7684999999983,
      "v": 110
    },
    {
      "midi": 47,
      "hit": false,
      "t": 22384.54449999998,
      "d": 692.3054999999986,
      "v": 110
    },
    {
      "midi": 47,
      "hit": false,
      "t": 23076.84999999998,
      "d": 230.7684999999983,
      "v": 110
    },
    {
      "midi": 47,
      "hit": false,
      "t": 23307.61849999998,
      "d": 230.7684999999983,
      "v": 110
    },
    {
      "midi": 49,
      "hit": false,
      "t": 23538.386999999977,
      "d": 230.7684999999983,
      "v": 110
    },
    {
      "midi": 51,
      "hit": false,
      "t": 23769.155499999975,
      "d": 230.7684999999983,
      "v": 110
    },
    {
      "midi": 52,
      "hit": false,
      "t": 23999.923999999974,
      "d": 461.53700000000026,
      "v": 110
    },
    {
      "midi": 52,
      "hit": false,
      "t": 24461.460999999974,
      "d": 461.53700000000026,
      "v": 110
    },
    {
      "midi": 59,
      "hit": false,
      "t": 24461.460999999974,
      "d": 461.53700000000026,
      "v": 100
    },
    {
      "midi": 64,
      "hit": false,
      "t": 24461.460999999974,
      "d": 461.53700000000026,
      "v": 100
    },
    {
      "midi": 68,
      "hit": false,
      "t": 24461.460999999974,
      "d": 461.53700000000026,
      "v": 100
    },
    {
      "midi": 52,
      "hit": false,
      "t": 24922.997999999974,
      "d": 230.7684999999983,
      "v": 110
    },
    {
      "midi": 59,
      "hit": false,
      "t": 24922.997999999974,
      "d": 230.7684999999983,
      "v": 100
    },
    {
      "midi": 64,
      "hit": false,
      "t": 24922.997999999974,
      "d": 230.7684999999983,
      "v": 100
    },
    {
      "midi": 68,
      "hit": false,
      "t": 24922.997999999974,
      "d": 230.7684999999983,
      "v": 100
    },
    {
      "midi": 52,
      "hit": false,
      "t": 25153.766499999972,
      "d": 461.53700000000026,
      "v": 110
    },
    {
      "midi": 59,
      "hit": false,
      "t": 25153.766499999972,
      "d": 461.53700000000026,
      "v": 100
    },
    {
      "midi": 64,
      "hit": false,
      "t": 25153.766499999972,
      "d": 461.53700000000026,
      "v": 100
    },
    {
      "midi": 68,
      "hit": false,
      "t": 25153.766499999972,
      "d": 461.53700000000026,
      "v": 100
    },
    {
      "midi": 52,
      "hit": false,
      "t": 25615.303499999973,
      "d": 230.7684999999983,
      "v": 110
    },
    {
      "midi": 59,
      "hit": false,
      "t": 25615.303499999973,
      "d": 230.7684999999983,
      "v": 100
    },
    {
      "midi": 64,
      "hit": false,
      "t": 25615.303499999973,
      "d": 230.7684999999983,
      "v": 100
    },
    {
      "midi": 68,
      "hit": false,
      "t": 25615.303499999973,
      "d": 230.7684999999983,
      "v": 100
    },
    {
      "midi": 49,
      "hit": false,
      "t": 25846.07199999997,
      "d": 461.53700000000026,
      "v": 110
    },
    {
      "midi": 49,
      "hit": false,
      "t": 26307.60899999997,
      "d": 461.53700000000026,
      "v": 110
    },
    {
      "midi": 61,
      "hit": false,
      "t": 26307.60899999997,
      "d": 461.53700000000026,
      "v": 100
    },
    {
      "midi": 64,
      "hit": false,
      "t": 26307.60899999997,
      "d": 461.53700000000026,
      "v": 100
    },
    {
      "midi": 68,
      "hit": false,
      "t": 26307.60899999997,
      "d": 461.53700000000026,
      "v": 100
    },
    {
      "midi": 49,
      "hit": false,
      "t": 26769.14599999997,
      "d": 230.7684999999983,
      "v": 110
    },
    {
      "midi": 61,
      "hit": false,
      "t": 26769.14599999997,
      "d": 230.7684999999983,
      "v": 100
    },
    {
      "midi": 64,
      "hit": false,
      "t": 26769.14599999997,
      "d": 230.7684999999983,
      "v": 100
    },
    {
      "midi": 68,
      "hit": false,
      "t": 26769.14599999997,
      "d": 230.7684999999983,
      "v": 100
    },
    {
      "midi": 49,
      "hit": false,
      "t": 26999.91449999997,
      "d": 461.53700000000026,
      "v": 110
    },
    {
      "midi": 61,
      "hit": false,
      "t": 26999.91449999997,
      "d": 461.53700000000026,
      "v": 100
    },
    {
      "midi": 64,
      "hit": false,
      "t": 26999.91449999997,
      "d": 461.53700000000026,
      "v": 100
    },
    {
      "midi": 68,
      "hit": false,
      "t": 26999.91449999997,
      "d": 461.53700000000026,
      "v": 100
    },
    {
      "midi": 49,
      "hit": false,
      "t": 27461.45149999997,
      "d": 230.7684999999983,
      "v": 110
    },
    {
      "midi": 61,
      "hit": false,
      "t": 27461.45149999997,
      "d": 230.7684999999983,
      "v": 100
    },
    {
      "midi": 64,
      "hit": false,
      "t": 27461.45149999997,
      "d": 230.7684999999983,
      "v": 100
    },
    {
      "midi": 68,
      "hit": false,
      "t": 27461.45149999997,
      "d": 230.7684999999983,
      "v": 100
    },
    {
      "midi": 42,
      "hit": false,
      "t": 27692.21999999997,
      "d": 461.53700000000026,
      "v": 110
    },
    {
      "midi": 42,
      "hit": false,
      "t": 28153.75699999997,
      "d": 461.53700000000026,
      "v": 110
    },
    {
      "midi": 57,
      "hit": false,
      "t": 28153.75699999997,
      "d": 461.53700000000026,
      "v": 100
    },
    {
      "midi": 61,
      "hit": false,
      "t": 28153.75699999997,
      "d": 461.53700000000026,
      "v": 100
    },
    {
      "midi": 66,
      "hit": false,
      "t": 28153.75699999997,
      "d": 461.53700000000026,
      "v": 100
    },
    {
      "midi": 42,
      "hit": false,
      "t": 28615.29399999997,
      "d": 230.7684999999983,
      "v": 110
    },
    {
      "midi": 57,
      "hit": false,
      "t": 28615.29399999997,
      "d": 230.7684999999983,
      "v": 100
    },
    {
      "midi": 61,
      "hit": false,
      "t": 28615.29399999997,
      "d": 230.7684999999983,
      "v": 100
    },
    {
      "midi": 66,
      "hit": false,
      "t": 28615.29399999997,
      "d": 230.7684999999983,
      "v": 100
    },
    {
      "midi": 42,
      "hit": false,
      "t": 28846.062499999967,
      "d": 461.53700000000026,
      "v": 110
    },
    {
      "midi": 57,
      "hit": false,
      "t": 28846.062499999967,
      "d": 461.53700000000026,
      "v": 100
    },
    {
      "midi": 61,
      "hit": false,
      "t": 28846.062499999967,
      "d": 461.53700000000026,
      "v": 100
    },
    {
      "midi": 66,
      "hit": false,
      "t": 28846.062499999967,
      "d": 461.53700000000026,
      "v": 100
    },
    {
      "midi": 42,
      "hit": false,
      "t": 29307.599499999968,
      "d": 230.7684999999983,
      "v": 110
    },
    {
      "midi": 57,
      "hit": false,
      "t": 29307.599499999968,
      "d": 230.7684999999983,
      "v": 100
    },
    {
      "midi": 61,
      "hit": false,
      "t": 29307.599499999968,
      "d": 230.7684999999983,
      "v": 100
    },
    {
      "midi": 66,
      "hit": false,
      "t": 29307.599499999968,
      "d": 230.7684999999983,
      "v": 100
    },
    {
      "midi": 47,
      "hit": false,
      "t": 29538.367999999966,
      "d": 461.53700000000026,
      "v": 110
    },
    {
      "midi": 47,
      "hit": false,
      "t": 29999.904999999966,
      "d": 461.53700000000026,
      "v": 110
    },
    {
      "midi": 59,
      "hit": false,
      "t": 29999.904999999966,
      "d": 461.53700000000026,
      "v": 100
    },
    {
      "midi": 63,
      "hit": false,
      "t": 29999.904999999966,
      "d": 461.53700000000026,
      "v": 100
    },
    {
      "midi": 66,
      "hit": false,
      "t": 29999.904999999966,
      "d": 461.53700000000026,
      "v": 100
    },
    {
      "midi": 47,
      "hit": false,
      "t": 30461.441999999966,
      "d": 230.7684999999983,
      "v": 110
    },
    {
      "midi": 59,
      "hit": false,
      "t": 30461.441999999966,
      "d": 230.7684999999983,
      "v": 100
    },
    {
      "midi": 63,
      "hit": false,
      "t": 30461.441999999966,
      "d": 230.7684999999983,
      "v": 100
    },
    {
      "midi": 66,
      "hit": false,
      "t": 30461.441999999966,
      "d": 230.7684999999983,
      "v": 100
    },
    {
      "midi": 47,
      "hit": false,
      "t": 30692.210499999965,
      "d": 461.53700000000026,
      "v": 110
    },
    {
      "midi": 59,
      "hit": false,
      "t": 30692.210499999965,
      "d": 461.53700000000026,
      "v": 100
    },
    {
      "midi": 63,
      "hit": false,
      "t": 30692.210499999965,
      "d": 461.53700000000026,
      "v": 100
    },
    {
      "midi": 66,
      "hit": false,
      "t": 30692.210499999965,
      "d": 461.53700000000026,
      "v": 100
    },
    {
      "midi": 47,
      "hit": false,
      "t": 31153.747499999965,
      "d": 230.7684999999983,
      "v": 110
    },
    {
      "midi": 59,
      "hit": false,
      "t": 31153.747499999965,
      "d": 230.7684999999983,
      "v": 100
    },
    {
      "midi": 63,
      "hit": false,
      "t": 31153.747499999965,
      "d": 230.7684999999983,
      "v": 100
    },
    {
      "midi": 66,
      "hit": false,
      "t": 31153.747499999965,
      "d": 230.7684999999983,
      "v": 100
    },
    {
      "midi": 52,
      "hit": false,
      "t": 31384.515999999963,
      "d": 230.7684999999983,
      "v": 110
    },
    {
      "midi": 52,
      "hit": false,
      "t": 31615.28449999996,
      "d": 692.3054999999986,
      "v": 110
    },
    {
      "midi": 47,
      "hit": false,
      "t": 32307.58999999996,
      "d": 230.7684999999983,
      "v": 110
    },
    {
      "midi": 47,
      "hit": false,
      "t": 32538.35849999996,
      "d": 692.3055000000022,
      "v": 110
    },
    {
      "midi": 44,
      "hit": false,
      "t": 33230.66399999996,
      "d": 230.7684999999983,
      "v": 110
    },
    {
      "midi": 44,
      "hit": false,
      "t": 33461.43249999996,
      "d": 692.3055000000022,
      "v": 110
    },
    {
      "midi": 44,
      "hit": false,
      "t": 34153.73799999996,
      "d": 230.7684999999983,
      "v": 110
    },
    {
      "midi": 44,
      "hit": false,
      "t": 34384.50649999996,
      "d": 692.3055000000022,
      "v": 110
    },
    {
      "midi": 42,
      "hit": false,
      "t": 35076.81199999996,
      "d": 230.7684999999983,
      "v": 110
    },
    {
      "midi": 42,
      "hit": false,
      "t": 35307.58049999996,
      "d": 692.3055000000022,
      "v": 110
    },
    {
      "midi": 42,
      "hit": false,
      "t": 35999.88599999996,
      "d": 230.7684999999983,
      "v": 110
    },
    {
      "midi": 42,
      "hit": false,
      "t": 36230.65449999996,
      "d": 692.3055000000022,
      "v": 110
    },
    {
      "midi": 47,
      "hit": false,
      "t": 36922.95999999996,
      "d": 230.7684999999983,
      "v": 110
    },
    {
      "midi": 47,
      "hit": false,
      "t": 37153.72849999996,
      "d": 692.3055000000022,
      "v": 110
    },
    {
      "midi": 47,
      "hit": false,
      "t": 37846.03399999996,
      "d": 230.7684999999983,
      "v": 110
    },
    {
      "midi": 47,
      "hit": false,
      "t": 38076.80249999996,
      "d": 230.7684999999983,
      "v": 110
    },
    {
      "midi": 49,
      "hit": false,
      "t": 38307.57099999996,
      "d": 230.7684999999983,
      "v": 110
    },
    {
      "midi": 51,
      "hit": false,
      "t": 38538.33949999996,
      "d": 230.7684999999983,
      "v": 110
    },
    {
      "midi": 52,
      "hit": false,
      "t": 38769.10799999996,
      "d": 230.7684999999983,
      "v": 110
    },
    {
      "midi": 52,
      "hit": false,
      "t": 38999.876499999955,
      "d": 692.3055000000022,
      "v": 110
    },
    {
      "midi": 47,
      "hit": false,
      "t": 39692.18199999996,
      "d": 230.7684999999983,
      "v": 110
    },
    {
      "midi": 47,
      "hit": false,
      "t": 39922.950499999955,
      "d": 692.3055000000022,
      "v": 110
    },
    {
      "midi": 44,
      "hit": false,
      "t": 40615.25599999996,
      "d": 230.7684999999983,
      "v": 110
    },
    {
      "midi": 44,
      "hit": false,
      "t": 40846.024499999956,
      "d": 692.3055000000022,
      "v": 110
    },
    {
      "midi": 44,
      "hit": false,
      "t": 41538.32999999996,
      "d": 230.7684999999983,
      "v": 110
    },
    {
      "midi": 44,
      "hit": false,
      "t": 41769.09849999996,
      "d": 692.3055000000022,
      "v": 110
    },
    {
      "midi": 42,
      "hit": false,
      "t": 42461.40399999996,
      "d": 230.7684999999983,
      "v": 110
    },
    {
      "midi": 42,
      "hit": false,
      "t": 42692.17249999996,
      "d": 692.3055000000022,
      "v": 110
    },
    {
      "midi": 42,
      "hit": false,
      "t": 43384.47799999996,
      "d": 230.7684999999983,
      "v": 110
    },
    {
      "midi": 42,
      "hit": false,
      "t": 43615.24649999996,
      "d": 692.3055000000022,
      "v": 110
    },
    {
      "midi": 47,
      "hit": false,
      "t": 44307.55199999996,
      "d": 230.7684999999983,
      "v": 110
    },
    {
      "midi": 47,
      "hit": false,
      "t": 44538.32049999996,
      "d": 692.3055000000022,
      "v": 110
    },
    {
      "midi": 47,
      "hit": false,
      "t": 45230.62599999996,
      "d": 230.7684999999983,
      "v": 110
    },
    {
      "midi": 47,
      "hit": false,
      "t": 45461.39449999996,
      "d": 230.7684999999983,
      "v": 110
    },
    {
      "midi": 49,
      "hit": false,
      "t": 45692.16299999996,
      "d": 230.7684999999983,
      "v": 110
    },
    {
      "midi": 51,
      "hit": false,
      "t": 45922.931499999955,
      "d": 230.7684999999983,
      "v": 110
    },
    {
      "midi": 52,
      "hit": false,
      "t": 46153.69999999995,
      "d": 230.7684999999983,
      "v": 110
    },
    {
      "midi": 59,
      "hit": false,
      "t": 46153.69999999995,
      "d": 230.7684999999983,
      "v": 100
    },
    {
      "midi": 64,
      "hit": false,
      "t": 46153.69999999995,
      "d": 230.7684999999983,
      "v": 100
    },
    {
      "midi": 68,
      "hit": false,
      "t": 46153.69999999995,
      "d": 230.7684999999983,
      "v": 100
    },
    {
      "midi": 52,
      "hit": false,
      "t": 46384.46849999995,
      "d": 230.7684999999983,
      "v": 110
    },
    {
      "midi": 59,
      "hit": false,
      "t": 46384.46849999995,
      "d": 230.7684999999983,
      "v": 100
    },
    {
      "midi": 64,
      "hit": false,
      "t": 46384.46849999995,
      "d": 230.7684999999983,
      "v": 100
    },
    {
      "midi": 68,
      "hit": false,
      "t": 46384.46849999995,
      "d": 230.7684999999983,
      "v": 100
    },
    {
      "midi": 52,
      "hit": false,
      "t": 46615.23699999995,
      "d": 230.7684999999983,
      "v": 110
    },
    {
      "midi": 59,
      "hit": false,
      "t": 46615.23699999995,
      "d": 230.7684999999983,
      "v": 100
    },
    {
      "midi": 64,
      "hit": false,
      "t": 46615.23699999995,
      "d": 230.7684999999983,
      "v": 100
    },
    {
      "midi": 68,
      "hit": false,
      "t": 46615.23699999995,
      "d": 230.7684999999983,
      "v": 100
    },
    {
      "midi": 52,
      "hit": false,
      "t": 46846.00549999995,
      "d": 230.7684999999983,
      "v": 110
    },
    {
      "midi": 59,
      "hit": false,
      "t": 46846.00549999995,
      "d": 230.7684999999983,
      "v": 100
    },
    {
      "midi": 64,
      "hit": false,
      "t": 46846.00549999995,
      "d": 230.7684999999983,
      "v": 100
    },
    {
      "midi": 68,
      "hit": false,
      "t": 46846.00549999995,
      "d": 230.7684999999983,
      "v": 100
    },
    {
      "midi": 52,
      "hit": false,
      "t": 47076.77399999995,
      "d": 230.7684999999983,
      "v": 110
    },
    {
      "midi": 59,
      "hit": false,
      "t": 47076.77399999995,
      "d": 230.7684999999983,
      "v": 100
    },
    {
      "midi": 64,
      "hit": false,
      "t": 47076.77399999995,
      "d": 230.7684999999983,
      "v": 100
    },
    {
      "midi": 68,
      "hit": false,
      "t": 47076.77399999995,
      "d": 230.7684999999983,
      "v": 100
    },
    {
      "midi": 52,
      "hit": false,
      "t": 47307.542499999945,
      "d": 230.7684999999983,
      "v": 110
    },
    {
      "midi": 59,
      "hit": false,
      "t": 47307.542499999945,
      "d": 230.7684999999983,
      "v": 100
    },
    {
      "midi": 64,
      "hit": false,
      "t": 47307.542499999945,
      "d": 230.7684999999983,
      "v": 100
    },
    {
      "midi": 68,
      "hit": false,
      "t": 47307.542499999945,
      "d": 230.7684999999983,
      "v": 100
    },
    {
      "midi": 52,
      "hit": false,
      "t": 47538.31099999994,
      "d": 230.7684999999983,
      "v": 110
    },
    {
      "midi": 59,
      "hit": false,
      "t": 47538.31099999994,
      "d": 230.7684999999983,
      "v": 100
    },
    {
      "midi": 64,
      "hit": false,
      "t": 47538.31099999994,
      "d": 230.7684999999983,
      "v": 100
    },
    {
      "midi": 68,
      "hit": false,
      "t": 47538.31099999994,
      "d": 230.7684999999983,
      "v": 100
    },
    {
      "midi": 52,
      "hit": false,
      "t": 47769.07949999994,
      "d": 230.7684999999983,
      "v": 110
    },
    {
      "midi": 59,
      "hit": false,
      "t": 47769.07949999994,
      "d": 230.7684999999983,
      "v": 100
    },
    {
      "midi": 64,
      "hit": false,
      "t": 47769.07949999994,
      "d": 230.7684999999983,
      "v": 100
    },
    {
      "midi": 68,
      "hit": false,
      "t": 47769.07949999994,
      "d": 230.7684999999983,
      "v": 100
    },
    {
      "midi": 49,
      "hit": false,
      "t": 47999.84799999994,
      "d": 230.7684999999983,
      "v": 110
    },
    {
      "midi": 61,
      "hit": false,
      "t": 47999.84799999994,
      "d": 230.7684999999983,
      "v": 100
    },
    {
      "midi": 64,
      "hit": false,
      "t": 47999.84799999994,
      "d": 230.7684999999983,
      "v": 100
    },
    {
      "midi": 68,
      "hit": false,
      "t": 47999.84799999994,
      "d": 230.7684999999983,
      "v": 100
    },
    {
      "midi": 49,
      "hit": false,
      "t": 48230.61649999994,
      "d": 230.7684999999983,
      "v": 110
    },
    {
      "midi": 61,
      "hit": false,
      "t": 48230.61649999994,
      "d": 230.7684999999983,
      "v": 100
    },
    {
      "midi": 64,
      "hit": false,
      "t": 48230.61649999994,
      "d": 230.7684999999983,
      "v": 100
    },
    {
      "midi": 68,
      "hit": false,
      "t": 48230.61649999994,
      "d": 230.7684999999983,
      "v": 100
    },
    {
      "midi": 49,
      "hit": false,
      "t": 48461.38499999994,
      "d": 230.7684999999983,
      "v": 110
    },
    {
      "midi": 61,
      "hit": false,
      "t": 48461.38499999994,
      "d": 230.7684999999983,
      "v": 100
    },
    {
      "midi": 64,
      "hit": false,
      "t": 48461.38499999994,
      "d": 230.7684999999983,
      "v": 100
    },
    {
      "midi": 68,
      "hit": false,
      "t": 48461.38499999994,
      "d": 230.7684999999983,
      "v": 100
    },
    {
      "midi": 49,
      "hit": false,
      "t": 48692.153499999935,
      "d": 230.7684999999983,
      "v": 110
    },
    {
      "midi": 61,
      "hit": false,
      "t": 48692.153499999935,
      "d": 230.7684999999983,
      "v": 100
    },
    {
      "midi": 64,
      "hit": false,
      "t": 48692.153499999935,
      "d": 230.7684999999983,
      "v": 100
    },
    {
      "midi": 68,
      "hit": false,
      "t": 48692.153499999935,
      "d": 230.7684999999983,
      "v": 100
    },
    {
      "midi": 49,
      "hit": false,
      "t": 48922.92199999993,
      "d": 230.7684999999983,
      "v": 110
    },
    {
      "midi": 61,
      "hit": false,
      "t": 48922.92199999993,
      "d": 230.7684999999983,
      "v": 100
    },
    {
      "midi": 64,
      "hit": false,
      "t": 48922.92199999993,
      "d": 230.7684999999983,
      "v": 100
    },
    {
      "midi": 68,
      "hit": false,
      "t": 48922.92199999993,
      "d": 230.7684999999983,
      "v": 100
    },
    {
      "midi": 49,
      "hit": false,
      "t": 49153.69049999993,
      "d": 230.7684999999983,
      "v": 110
    },
    {
      "midi": 61,
      "hit": false,
      "t": 49153.69049999993,
      "d": 230.7684999999983,
      "v": 100
    },
    {
      "midi": 64,
      "hit": false,
      "t": 49153.69049999993,
      "d": 230.7684999999983,
      "v": 100
    },
    {
      "midi": 68,
      "hit": false,
      "t": 49153.69049999993,
      "d": 230.7684999999983,
      "v": 100
    },
    {
      "midi": 49,
      "hit": false,
      "t": 49384.45899999993,
      "d": 230.7684999999983,
      "v": 110
    },
    {
      "midi": 61,
      "hit": false,
      "t": 49384.45899999993,
      "d": 230.7684999999983,
      "v": 100
    },
    {
      "midi": 64,
      "hit": false,
      "t": 49384.45899999993,
      "d": 230.7684999999983,
      "v": 100
    },
    {
      "midi": 68,
      "hit": false,
      "t": 49384.45899999993,
      "d": 230.7684999999983,
      "v": 100
    },
    {
      "midi": 49,
      "hit": false,
      "t": 49615.22749999993,
      "d": 230.7684999999983,
      "v": 110
    },
    {
      "midi": 61,
      "hit": false,
      "t": 49615.22749999993,
      "d": 230.7684999999983,
      "v": 100
    },
    {
      "midi": 64,
      "hit": false,
      "t": 49615.22749999993,
      "d": 230.7684999999983,
      "v": 100
    },
    {
      "midi": 68,
      "hit": false,
      "t": 49615.22749999993,
      "d": 230.7684999999983,
      "v": 100
    },
    {
      "midi": 42,
      "hit": false,
      "t": 49845.99599999993,
      "d": 230.7684999999983,
      "v": 110
    },
    {
      "midi": 57,
      "hit": false,
      "t": 49845.99599999993,
      "d": 230.7684999999983,
      "v": 100
    },
    {
      "midi": 61,
      "hit": false,
      "t": 49845.99599999993,
      "d": 230.7684999999983,
      "v": 100
    },
    {
      "midi": 66,
      "hit": false,
      "t": 49845.99599999993,
      "d": 230.7684999999983,
      "v": 100
    },
    {
      "midi": 42,
      "hit": false,
      "t": 50076.764499999925,
      "d": 230.7684999999983,
      "v": 110
    },
    {
      "midi": 57,
      "hit": false,
      "t": 50076.764499999925,
      "d": 230.7684999999983,
      "v": 100
    },
    {
      "midi": 61,
      "hit": false,
      "t": 50076.764499999925,
      "d": 230.7684999999983,
      "v": 100
    },
    {
      "midi": 66,
      "hit": false,
      "t": 50076.764499999925,
      "d": 230.7684999999983,
      "v": 100
    },
    {
      "midi": 42,
      "hit": false,
      "t": 50307.53299999992,
      "d": 230.7684999999983,
      "v": 110
    },
    {
      "midi": 57,
      "hit": false,
      "t": 50307.53299999992,
      "d": 230.7684999999983,
      "v": 100
    },
    {
      "midi": 61,
      "hit": false,
      "t": 50307.53299999992,
      "d": 230.7684999999983,
      "v": 100
    },
    {
      "midi": 66,
      "hit": false,
      "t": 50307.53299999992,
      "d": 230.7684999999983,
      "v": 100
    },
    {
      "midi": 42,
      "hit": false,
      "t": 50538.30149999992,
      "d": 230.7684999999983,
      "v": 110
    },
    {
      "midi": 57,
      "hit": false,
      "t": 50538.30149999992,
      "d": 230.7684999999983,
      "v": 100
    },
    {
      "midi": 61,
      "hit": false,
      "t": 50538.30149999992,
      "d": 230.7684999999983,
      "v": 100
    },
    {
      "midi": 66,
      "hit": false,
      "t": 50538.30149999992,
      "d": 230.7684999999983,
      "v": 100
    },
    {
      "midi": 42,
      "hit": false,
      "t": 50769.06999999992,
      "d": 230.7684999999983,
      "v": 110
    },
    {
      "midi": 57,
      "hit": false,
      "t": 50769.06999999992,
      "d": 230.7684999999983,
      "v": 100
    },
    {
      "midi": 61,
      "hit": false,
      "t": 50769.06999999992,
      "d": 230.7684999999983,
      "v": 100
    },
    {
      "midi": 66,
      "hit": false,
      "t": 50769.06999999992,
      "d": 230.7684999999983,
      "v": 100
    },
    {
      "midi": 42,
      "hit": false,
      "t": 50999.83849999992,
      "d": 230.7684999999983,
      "v": 110
    },
    {
      "midi": 57,
      "hit": false,
      "t": 50999.83849999992,
      "d": 230.7684999999983,
      "v": 100
    },
    {
      "midi": 61,
      "hit": false,
      "t": 50999.83849999992,
      "d": 230.7684999999983,
      "v": 100
    },
    {
      "midi": 66,
      "hit": false,
      "t": 50999.83849999992,
      "d": 230.7684999999983,
      "v": 100
    },
    {
      "midi": 42,
      "hit": false,
      "t": 51230.606999999916,
      "d": 230.7684999999983,
      "v": 110
    },
    {
      "midi": 57,
      "hit": false,
      "t": 51230.606999999916,
      "d": 230.7684999999983,
      "v": 100
    },
    {
      "midi": 61,
      "hit": false,
      "t": 51230.606999999916,
      "d": 230.7684999999983,
      "v": 100
    },
    {
      "midi": 66,
      "hit": false,
      "t": 51230.606999999916,
      "d": 230.7684999999983,
      "v": 100
    },
    {
      "midi": 42,
      "hit": false,
      "t": 51461.375499999915,
      "d": 230.7684999999983,
      "v": 110
    },
    {
      "midi": 57,
      "hit": false,
      "t": 51461.375499999915,
      "d": 230.7684999999983,
      "v": 100
    },
    {
      "midi": 61,
      "hit": false,
      "t": 51461.375499999915,
      "d": 230.7684999999983,
      "v": 100
    },
    {
      "midi": 66,
      "hit": false,
      "t": 51461.375499999915,
      "d": 230.7684999999983,
      "v": 100
    },
    {
      "midi": 47,
      "hit": false,
      "t": 51692.14399999991,
      "d": 230.7684999999983,
      "v": 110
    },
    {
      "midi": 59,
      "hit": false,
      "t": 51692.14399999991,
      "d": 230.7684999999983,
      "v": 100
    },
    {
      "midi": 63,
      "hit": false,
      "t": 51692.14399999991,
      "d": 230.7684999999983,
      "v": 100
    },
    {
      "midi": 66,
      "hit": false,
      "t": 51692.14399999991,
      "d": 230.7684999999983,
      "v": 100
    },
    {
      "midi": 47,
      "hit": false,
      "t": 51922.91249999991,
      "d": 230.7684999999983,
      "v": 110
    },
    {
      "midi": 59,
      "hit": false,
      "t": 51922.91249999991,
      "d": 230.7684999999983,
      "v": 100
    },
    {
      "midi": 63,
      "hit": false,
      "t": 51922.91249999991,
      "d": 230.7684999999983,
      "v": 100
    },
    {
      "midi": 66,
      "hit": false,
      "t": 51922.91249999991,
      "d": 230.7684999999983,
      "v": 100
    },
    {
      "midi": 47,
      "hit": false,
      "t": 52153.68099999991,
      "d": 230.7684999999983,
      "v": 110
    },
    {
      "midi": 59,
      "hit": false,
      "t": 52153.68099999991,
      "d": 230.7684999999983,
      "v": 100
    },
    {
      "midi": 63,
      "hit": false,
      "t": 52153.68099999991,
      "d": 230.7684999999983,
      "v": 100
    },
    {
      "midi": 66,
      "hit": false,
      "t": 52153.68099999991,
      "d": 230.7684999999983,
      "v": 100
    },
    {
      "midi": 47,
      "hit": false,
      "t": 52384.44949999991,
      "d": 230.7684999999983,
      "v": 110
    },
    {
      "midi": 59,
      "hit": false,
      "t": 52384.44949999991,
      "d": 230.7684999999983,
      "v": 100
    },
    {
      "midi": 63,
      "hit": false,
      "t": 52384.44949999991,
      "d": 230.7684999999983,
      "v": 100
    },
    {
      "midi": 66,
      "hit": false,
      "t": 52384.44949999991,
      "d": 230.7684999999983,
      "v": 100
    },
    {
      "midi": 47,
      "hit": false,
      "t": 52615.217999999906,
      "d": 230.7684999999983,
      "v": 110
    },
    {
      "midi": 59,
      "hit": false,
      "t": 52615.217999999906,
      "d": 230.7684999999983,
      "v": 100
    },
    {
      "midi": 63,
      "hit": false,
      "t": 52615.217999999906,
      "d": 230.7684999999983,
      "v": 100
    },
    {
      "midi": 66,
      "hit": false,
      "t": 52615.217999999906,
      "d": 230.7684999999983,
      "v": 100
    },
    {
      "midi": 47,
      "hit": false,
      "t": 52845.986499999904,
      "d": 230.7684999999983,
      "v": 110
    },
    {
      "midi": 59,
      "hit": false,
      "t": 52845.986499999904,
      "d": 230.7684999999983,
      "v": 100
    },
    {
      "midi": 63,
      "hit": false,
      "t": 52845.986499999904,
      "d": 230.7684999999983,
      "v": 100
    },
    {
      "midi": 66,
      "hit": false,
      "t": 52845.986499999904,
      "d": 230.7684999999983,
      "v": 100
    },
    {
      "midi": 47,
      "hit": false,
      "t": 53076.7549999999,
      "d": 230.7684999999983,
      "v": 110
    },
    {
      "midi": 59,
      "hit": false,
      "t": 53076.7549999999,
      "d": 230.7684999999983,
      "v": 100
    },
    {
      "midi": 63,
      "hit": false,
      "t": 53076.7549999999,
      "d": 230.7684999999983,
      "v": 100
    },
    {
      "midi": 66,
      "hit": false,
      "t": 53076.7549999999,
      "d": 230.7684999999983,
      "v": 100
    },
    {
      "midi": 47,
      "hit": false,
      "t": 53307.5234999999,
      "d": 230.7684999999983,
      "v": 110
    },
    {
      "midi": 59,
      "hit": false,
      "t": 53307.5234999999,
      "d": 230.7684999999983,
      "v": 100
    },
    {
      "midi": 63,
      "hit": false,
      "t": 53307.5234999999,
      "d": 230.7684999999983,
      "v": 100
    },
    {
      "midi": 66,
      "hit": false,
      "t": 53307.5234999999,
      "d": 230.7684999999983,
      "v": 100
    },
    {
      "midi": 42,
      "hit": false,
      "t": 53538.2919999999,
      "d": 230.7684999999983,
      "v": 110
    },
    {
      "midi": 57,
      "hit": false,
      "t": 53538.2919999999,
      "d": 230.7684999999983,
      "v": 100
    },
    {
      "midi": 61,
      "hit": false,
      "t": 53538.2919999999,
      "d": 230.7684999999983,
      "v": 100
    },
    {
      "midi": 66,
      "hit": false,
      "t": 53538.2919999999,
      "d": 230.7684999999983,
      "v": 100
    },
    {
      "midi": 42,
      "hit": false,
      "t": 53769.0604999999,
      "d": 230.7684999999983,
      "v": 110
    },
    {
      "midi": 57,
      "hit": false,
      "t": 53769.0604999999,
      "d": 230.7684999999983,
      "v": 100
    },
    {
      "midi": 61,
      "hit": false,
      "t": 53769.0604999999,
      "d": 230.7684999999983,
      "v": 100
    },
    {
      "midi": 66,
      "hit": false,
      "t": 53769.0604999999,
      "d": 230.7684999999983,
      "v": 100
    },
    {
      "midi": 42,
      "hit": false,
      "t": 53999.828999999896,
      "d": 230.7684999999983,
      "v": 110
    },
    {
      "midi": 57,
      "hit": false,
      "t": 53999.828999999896,
      "d": 230.7684999999983,
      "v": 100
    },
    {
      "midi": 61,
      "hit": false,
      "t": 53999.828999999896,
      "d": 230.7684999999983,
      "v": 100
    },
    {
      "midi": 66,
      "hit": false,
      "t": 53999.828999999896,
      "d": 230.7684999999983,
      "v": 100
    },
    {
      "midi": 42,
      "hit": false,
      "t": 54230.597499999894,
      "d": 230.7684999999983,
      "v": 110
    },
    {
      "midi": 57,
      "hit": false,
      "t": 54230.597499999894,
      "d": 230.7684999999983,
      "v": 100
    },
    {
      "midi": 61,
      "hit": false,
      "t": 54230.597499999894,
      "d": 230.7684999999983,
      "v": 100
    },
    {
      "midi": 66,
      "hit": false,
      "t": 54230.597499999894,
      "d": 230.7684999999983,
      "v": 100
    },
    {
      "midi": 42,
      "hit": false,
      "t": 54461.36599999989,
      "d": 230.7684999999983,
      "v": 110
    },
    {
      "midi": 57,
      "hit": false,
      "t": 54461.36599999989,
      "d": 230.7684999999983,
      "v": 100
    },
    {
      "midi": 61,
      "hit": false,
      "t": 54461.36599999989,
      "d": 230.7684999999983,
      "v": 100
    },
    {
      "midi": 66,
      "hit": false,
      "t": 54461.36599999989,
      "d": 230.7684999999983,
      "v": 100
    },
    {
      "midi": 42,
      "hit": false,
      "t": 54692.13449999989,
      "d": 230.7684999999983,
      "v": 110
    },
    {
      "midi": 57,
      "hit": false,
      "t": 54692.13449999989,
      "d": 230.7684999999983,
      "v": 100
    },
    {
      "midi": 61,
      "hit": false,
      "t": 54692.13449999989,
      "d": 230.7684999999983,
      "v": 100
    },
    {
      "midi": 66,
      "hit": false,
      "t": 54692.13449999989,
      "d": 230.7684999999983,
      "v": 100
    },
    {
      "midi": 42,
      "hit": false,
      "t": 54922.90299999989,
      "d": 230.7684999999983,
      "v": 110
    },
    {
      "midi": 57,
      "hit": false,
      "t": 54922.90299999989,
      "d": 230.7684999999983,
      "v": 100
    },
    {
      "midi": 61,
      "hit": false,
      "t": 54922.90299999989,
      "d": 230.7684999999983,
      "v": 100
    },
    {
      "midi": 66,
      "hit": false,
      "t": 54922.90299999989,
      "d": 230.7684999999983,
      "v": 100
    },
    {
      "midi": 42,
      "hit": false,
      "t": 55153.67149999989,
      "d": 230.7684999999983,
      "v": 110
    },
    {
      "midi": 57,
      "hit": false,
      "t": 55153.67149999989,
      "d": 230.7684999999983,
      "v": 100
    },
    {
      "midi": 61,
      "hit": false,
      "t": 55153.67149999989,
      "d": 230.7684999999983,
      "v": 100
    },
    {
      "midi": 66,
      "hit": false,
      "t": 55153.67149999989,
      "d": 230.7684999999983,
      "v": 100
    },
    {
      "midi": 50,
      "hit": false,
      "t": 55384.439999999886,
      "d": 230.7684999999983,
      "v": 110
    },
    {
      "midi": 57,
      "hit": false,
      "t": 55384.439999999886,
      "d": 230.7684999999983,
      "v": 100
    },
    {
      "midi": 62,
      "hit": false,
      "t": 55384.439999999886,
      "d": 230.7684999999983,
      "v": 100
    },
    {
      "midi": 66,
      "hit": false,
      "t": 55384.439999999886,
      "d": 230.7684999999983,
      "v": 100
    },
    {
      "midi": 50,
      "hit": false,
      "t": 55615.208499999884,
      "d": 230.7684999999983,
      "v": 110
    },
    {
      "midi": 57,
      "hit": false,
      "t": 55615.208499999884,
      "d": 230.7684999999983,
      "v": 100
    },
    {
      "midi": 62,
      "hit": false,
      "t": 55615.208499999884,
      "d": 230.7684999999983,
      "v": 100
    },
    {
      "midi": 66,
      "hit": false,
      "t": 55615.208499999884,
      "d": 230.7684999999983,
      "v": 100
    },
    {
      "midi": 50,
      "hit": false,
      "t": 55845.97699999988,
      "d": 230.7684999999983,
      "v": 110
    },
    {
      "midi": 57,
      "hit": false,
      "t": 55845.97699999988,
      "d": 230.7684999999983,
      "v": 100
    },
    {
      "midi": 62,
      "hit": false,
      "t": 55845.97699999988,
      "d": 230.7684999999983,
      "v": 100
    },
    {
      "midi": 66,
      "hit": false,
      "t": 55845.97699999988,
      "d": 230.7684999999983,
      "v": 100
    },
    {
      "midi": 50,
      "hit": false,
      "t": 56076.74549999988,
      "d": 230.7684999999983,
      "v": 110
    },
    {
      "midi": 57,
      "hit": false,
      "t": 56076.74549999988,
      "d": 230.7684999999983,
      "v": 100
    },
    {
      "midi": 62,
      "hit": false,
      "t": 56076.74549999988,
      "d": 230.7684999999983,
      "v": 100
    },
    {
      "midi": 66,
      "hit": false,
      "t": 56076.74549999988,
      "d": 230.7684999999983,
      "v": 100
    },
    {
      "midi": 50,
      "hit": false,
      "t": 56307.51399999988,
      "d": 230.7684999999983,
      "v": 110
    },
    {
      "midi": 57,
      "hit": false,
      "t": 56307.51399999988,
      "d": 230.7684999999983,
      "v": 100
    },
    {
      "midi": 62,
      "hit": false,
      "t": 56307.51399999988,
      "d": 230.7684999999983,
      "v": 100
    },
    {
      "midi": 66,
      "hit": false,
      "t": 56307.51399999988,
      "d": 230.7684999999983,
      "v": 100
    },
    {
      "midi": 50,
      "hit": false,
      "t": 56538.28249999988,
      "d": 230.7684999999983,
      "v": 110
    },
    {
      "midi": 57,
      "hit": false,
      "t": 56538.28249999988,
      "d": 230.7684999999983,
      "v": 100
    },
    {
      "midi": 62,
      "hit": false,
      "t": 56538.28249999988,
      "d": 230.7684999999983,
      "v": 100
    },
    {
      "midi": 66,
      "hit": false,
      "t": 56538.28249999988,
      "d": 230.7684999999983,
      "v": 100
    },
    {
      "midi": 50,
      "hit": false,
      "t": 56769.050999999876,
      "d": 230.7684999999983,
      "v": 110
    },
    {
      "midi": 57,
      "hit": false,
      "t": 56769.050999999876,
      "d": 230.7684999999983,
      "v": 100
    },
    {
      "midi": 62,
      "hit": false,
      "t": 56769.050999999876,
      "d": 230.7684999999983,
      "v": 100
    },
    {
      "midi": 66,
      "hit": false,
      "t": 56769.050999999876,
      "d": 230.7684999999983,
      "v": 100
    },
    {
      "midi": 50,
      "hit": false,
      "t": 56999.819499999874,
      "d": 230.7684999999983,
      "v": 110
    },
    {
      "midi": 57,
      "hit": false,
      "t": 56999.819499999874,
      "d": 230.7684999999983,
      "v": 100
    },
    {
      "midi": 62,
      "hit": false,
      "t": 56999.819499999874,
      "d": 230.7684999999983,
      "v": 100
    },
    {
      "midi": 66,
      "hit": false,
      "t": 56999.819499999874,
      "d": 230.7684999999983,
      "v": 100
    },
    {
      "midi": 43,
      "hit": false,
      "t": 57230.58799999987,
      "d": 230.7684999999983,
      "v": 110
    },
    {
      "midi": 43,
      "hit": false,
      "t": 57461.35649999987,
      "d": 230.7684999999983,
      "v": 110
    },
    {
      "midi": 43,
      "hit": false,
      "t": 57692.12499999987,
      "d": 230.7684999999983,
      "v": 110
    },
    {
      "midi": 55,
      "hit": false,
      "t": 57692.12499999987,
      "d": 230.7684999999983,
      "v": 100
    },
    {
      "midi": 59,
      "hit": false,
      "t": 57692.12499999987,
      "d": 230.7684999999983,
      "v": 100
    },
    {
      "midi": 62,
      "hit": false,
      "t": 57692.12499999987,
      "d": 230.7684999999983,
      "v": 100
    },
    {
      "midi": 43,
      "hit": false,
      "t": 57922.89349999987,
      "d": 230.7684999999983,
      "v": 110
    },
    {
      "midi": 55,
      "hit": false,
      "t": 57922.89349999987,
      "d": 230.7684999999983,
      "v": 100
    },
    {
      "midi": 59,
      "hit": false,
      "t": 57922.89349999987,
      "d": 230.7684999999983,
      "v": 100
    },
    {
      "midi": 62,
      "hit": false,
      "t": 57922.89349999987,
      "d": 230.7684999999983,
      "v": 100
    },
    {
      "midi": 43,
      "hit": false,
      "t": 58153.661999999866,
      "d": 230.7684999999983,
      "v": 110
    },
    {
      "midi": 43,
      "hit": false,
      "t": 58384.430499999864,
      "d": 230.7684999999983,
      "v": 110
    },
    {
      "midi": 43,
      "hit": false,
      "t": 58615.19899999986,
      "d": 230.7684999999983,
      "v": 110
    },
    {
      "midi": 55,
      "hit": false,
      "t": 58615.19899999986,
      "d": 230.7684999999983,
      "v": 100
    },
    {
      "midi": 59,
      "hit": false,
      "t": 58615.19899999986,
      "d": 230.7684999999983,
      "v": 100
    },
    {
      "midi": 62,
      "hit": false,
      "t": 58615.19899999986,
      "d": 230.7684999999983,
      "v": 100
    },
    {
      "midi": 43,
      "hit": false,
      "t": 58845.96749999986,
      "d": 230.7684999999983,
      "v": 110
    },
    {
      "midi": 55,
      "hit": false,
      "t": 58845.96749999986,
      "d": 230.7684999999983,
      "v": 100
    },
    {
      "midi": 59,
      "hit": false,
      "t": 58845.96749999986,
      "d": 230.7684999999983,
      "v": 100
    },
    {
      "midi": 62,
      "hit": false,
      "t": 58845.96749999986,
      "d": 230.7684999999983,
      "v": 100
    },
    {
      "midi": 48,
      "hit": false,
      "t": 59076.73599999986,
      "d": 230.7684999999983,
      "v": 110
    },
    {
      "midi": 48,
      "hit": false,
      "t": 59307.50449999986,
      "d": 230.7684999999983,
      "v": 110
    },
    {
      "midi": 48,
      "hit": false,
      "t": 59538.272999999856,
      "d": 230.7684999999983,
      "v": 110
    },
    {
      "midi": 55,
      "hit": false,
      "t": 59538.272999999856,
      "d": 230.7684999999983,
      "v": 100
    },
    {
      "midi": 60,
      "hit": false,
      "t": 59538.272999999856,
      "d": 230.7684999999983,
      "v": 100
    },
    {
      "midi": 64,
      "hit": false,
      "t": 59538.272999999856,
      "d": 230.7684999999983,
      "v": 100
    },
    {
      "midi": 48,
      "hit": false,
      "t": 59769.041499999854,
      "d": 230.7684999999983,
      "v": 110
    },
    {
      "midi": 55,
      "hit": false,
      "t": 59769.041499999854,
      "d": 230.7684999999983,
      "v": 100
    },
    {
      "midi": 60,
      "hit": false,
      "t": 59769.041499999854,
      "d": 230.7684999999983,
      "v": 100
    },
    {
      "midi": 64,
      "hit": false,
      "t": 59769.041499999854,
      "d": 230.7684999999983,
      "v": 100
    },
    {
      "midi": 48,
      "hit": false,
      "t": 59999.80999999985,
      "d": 230.7684999999983,
      "v": 110
    },
    {
      "midi": 48,
      "hit": false,
      "t": 60230.57849999985,
      "d": 230.7684999999983,
      "v": 110
    },
    {
      "midi": 48,
      "hit": false,
      "t": 60461.34699999985,
      "d": 230.7684999999983,
      "v": 110
    },
    {
      "midi": 55,
      "hit": false,
      "t": 60461.34699999985,
      "d": 230.7684999999983,
      "v": 100
    },
    {
      "midi": 60,
      "hit": false,
      "t": 60461.34699999985,
      "d": 230.7684999999983,
      "v": 100
    },
    {
      "midi": 64,
      "hit": false,
      "t": 60461.34699999985,
      "d": 230.7684999999983,
      "v": 100
    },
    {
      "midi": 48,
      "hit": false,
      "t": 60692.11549999985,
      "d": 230.7684999999983,
      "v": 110
    },
    {
      "midi": 55,
      "hit": false,
      "t": 60692.11549999985,
      "d": 230.7684999999983,
      "v": 100
    },
    {
      "midi": 60,
      "hit": false,
      "t": 60692.11549999985,
      "d": 230.7684999999983,
      "v": 100
    },
    {
      "midi": 64,
      "hit": false,
      "t": 60692.11549999985,
      "d": 230.7684999999983,
      "v": 100
    },
    {
      "midi": 43,
      "hit": false,
      "t": 60922.883999999845,
      "d": 230.7684999999983,
      "v": 110
    },
    {
      "midi": 43,
      "hit": false,
      "t": 61153.652499999844,
      "d": 230.7684999999983,
      "v": 110
    },
    {
      "midi": 43,
      "hit": false,
      "t": 61384.42099999984,
      "d": 230.7684999999983,
      "v": 110
    },
    {
      "midi": 55,
      "hit": false,
      "t": 61384.42099999984,
      "d": 692.3054999999949,
      "v": 100
    },
    {
      "midi": 59,
      "hit": false,
      "t": 61384.42099999984,
      "d": 692.3054999999949,
      "v": 100
    },
    {
      "midi": 62,
      "hit": false,
      "t": 61384.42099999984,
      "d": 692.3054999999949,
      "v": 100
    },
    {
      "midi": 43,
      "hit": false,
      "t": 61615.18949999984,
      "d": 230.7684999999983,
      "v": 110
    },
    {
      "midi": 43,
      "hit": false,
      "t": 61845.95799999984,
      "d": 230.7684999999983,
      "v": 110
    },
    {
      "midi": 43,
      "hit": false,
      "t": 62076.72649999984,
      "d": 230.7684999999983,
      "v": 110
    },
    {
      "midi": 55,
      "hit": false,
      "t": 62076.72649999984,
      "d": 692.3054999999949,
      "v": 100
    },
    {
      "midi": 60,
      "hit": false,
      "t": 62076.72649999984,
      "d": 692.3054999999949,
      "v": 100
    },
    {
      "midi": 64,
      "hit": false,
      "t": 62076.72649999984,
      "d": 692.3054999999949,
      "v": 100
    },
    {
      "midi": 43,
      "hit": false,
      "t": 62307.494999999835,
      "d": 230.7684999999983,
      "v": 110
    },
    {
      "midi": 43,
      "hit": false,
      "t": 62538.26349999983,
      "d": 230.7684999999983,
      "v": 110
    },
    {
      "midi": 43,
      "hit": false,
      "t": 62769.03199999983,
      "d": 230.7684999999983,
      "v": 110
    },
    {
      "midi": 43,
      "hit": false,
      "t": 62999.80049999983,
      "d": 230.7684999999983,
      "v": 110
    },
    {
      "midi": 43,
      "hit": false,
      "t": 63230.56899999983,
      "d": 230.7684999999983,
      "v": 110
    },
    {
      "midi": 55,
      "hit": false,
      "t": 63230.56899999983,
      "d": 692.3054999999949,
      "v": 100
    },
    {
      "midi": 59,
      "hit": false,
      "t": 63230.56899999983,
      "d": 692.3054999999949,
      "v": 100
    },
    {
      "midi": 62,
      "hit": false,
      "t": 63230.56899999983,
      "d": 692.3054999999949,
      "v": 100
    },
    {
      "midi": 43,
      "hit": false,
      "t": 63461.33749999983,
      "d": 230.7684999999983,
      "v": 110
    },
    {
      "midi": 43,
      "hit": false,
      "t": 63692.105999999825,
      "d": 230.7684999999983,
      "v": 110
    },
    {
      "midi": 43,
      "hit": false,
      "t": 63922.87449999982,
      "d": 230.7684999999983,
      "v": 110
    },
    {
      "midi": 55,
      "hit": false,
      "t": 63922.87449999982,
      "d": 461.5369999999966,
      "v": 100
    },
    {
      "midi": 60,
      "hit": false,
      "t": 63922.87449999982,
      "d": 461.5369999999966,
      "v": 100
    },
    {
      "midi": 64,
      "hit": false,
      "t": 63922.87449999982,
      "d": 461.5369999999966,
      "v": 100
    },
    {
      "midi": 43,
      "hit": false,
      "t": 64153.64299999982,
      "d": 230.7684999999983,
      "v": 110
    },
    {
      "midi": 43,
      "hit": false,
      "t": 64384.41149999982,
      "d": 230.7684999999983,
      "v": 110
    },
    {
      "midi": 55,
      "hit": false,
      "t": 64384.41149999982,
      "d": 230.7684999999983,
      "v": 100
    },
    {
      "midi": 62,
      "hit": false,
      "t": 64384.41149999982,
      "d": 230.7684999999983,
      "v": 100
    },
    {
      "midi": 65,
      "hit": false,
      "t": 64384.41149999982,
      "d": 230.7684999999983,
      "v": 100
    },
    {
      "midi": 43,
      "hit": false,
      "t": 64615.17999999982,
      "d": 230.7684999999983,
      "v": 110
    },
    {
      "midi": 43,
      "hit": false,
      "t": 64845.94849999982,
      "d": 230.7684999999983,
      "v": 110
    },
    {
      "midi": 43,
      "hit": false,
      "t": 65076.716999999815,
      "d": 230.7684999999983,
      "v": 110
    },
    {
      "midi": 55,
      "hit": false,
      "t": 65076.716999999815,
      "d": 692.3055000000022,
      "v": 100
    },
    {
      "midi": 59,
      "hit": false,
      "t": 65076.716999999815,
      "d": 692.3055000000022,
      "v": 100
    },
    {
      "midi": 62,
      "hit": false,
      "t": 65076.716999999815,
      "d": 692.3055000000022,
      "v": 100
    },
    {
      "midi": 43,
      "hit": false,
      "t": 65307.48549999981,
      "d": 230.7684999999983,
      "v": 110
    },
    {
      "midi": 43,
      "hit": false,
      "t": 65538.25399999981,
      "d": 230.7685000000056,
      "v": 110
    },
    {
      "midi": 43,
      "hit": false,
      "t": 65769.02249999982,
      "d": 230.7685000000056,
      "v": 110
    },
    {
      "midi": 55,
      "hit": false,
      "t": 65769.02249999982,
      "d": 461.5370000000112,
      "v": 100
    },
    {
      "midi": 60,
      "hit": false,
      "t": 65769.02249999982,
      "d": 461.5370000000112,
      "v": 100
    },
    {
      "midi": 64,
      "hit": false,
      "t": 65769.02249999982,
      "d": 461.5370000000112,
      "v": 100
    },
    {
      "midi": 43,
      "hit": false,
      "t": 65999.79099999982,
      "d": 230.7685000000056,
      "v": 110
    },
    {
      "midi": 43,
      "hit": false,
      "t": 66230.55949999983,
      "d": 230.7685000000056,
      "v": 110
    },
    {
      "midi": 55,
      "hit": false,
      "t": 66230.55949999983,
      "d": 230.7685000000056,
      "v": 100
    },
    {
      "midi": 59,
      "hit": false,
      "t": 66230.55949999983,
      "d": 230.7685000000056,
      "v": 100
    },
    {
      "midi": 62,
      "hit": false,
      "t": 66230.55949999983,
      "d": 230.7685000000056,
      "v": 100
    },
    {
      "midi": 48,
      "hit": false,
      "t": 66461.32799999983,
      "d": 230.7685000000056,
      "v": 110
    },
    {
      "midi": 48,
      "hit": false,
      "t": 66692.09649999984,
      "d": 230.7685000000056,
      "v": 110
    },
    {
      "midi": 48,
      "hit": false,
      "t": 66922.86499999985,
      "d": 230.7685000000056,
      "v": 110
    },
    {
      "midi": 55,
      "hit": false,
      "t": 66922.86499999985,
      "d": 692.3055000000168,
      "v": 100
    },
    {
      "midi": 60,
      "hit": false,
      "t": 66922.86499999985,
      "d": 692.3055000000168,
      "v": 100
    },
    {
      "midi": 64,
      "hit": false,
      "t": 66922.86499999985,
      "d": 692.3055000000168,
      "v": 100
    },
    {
      "midi": 48,
      "hit": false,
      "t": 67153.63349999985,
      "d": 230.7685000000056,
      "v": 110
    },
    {
      "midi": 48,
      "hit": false,
      "t": 67384.40199999986,
      "d": 230.7685000000056,
      "v": 110
    },
    {
      "midi": 48,
      "hit": false,
      "t": 67615.17049999986,
      "d": 230.7685000000056,
      "v": 110
    },
    {
      "midi": 55,
      "hit": false,
      "t": 67615.17049999986,
      "d": 461.5370000000112,
      "v": 100
    },
    {
      "midi": 60,
      "hit": false,
      "t": 67615.17049999986,
      "d": 461.5370000000112,
      "v": 100
    },
    {
      "midi": 64,
      "hit": false,
      "t": 67615.17049999986,
      "d": 461.5370000000112,
      "v": 100
    },
    {
      "midi": 48,
      "hit": false,
      "t": 67845.93899999987,
      "d": 230.7685000000056,
      "v": 110
    },
    {
      "midi": 48,
      "hit": false,
      "t": 68076.70749999987,
      "d": 230.7685000000056,
      "v": 110
    },
    {
      "midi": 55,
      "hit": false,
      "t": 68076.70749999987,
      "d": 230.7685000000056,
      "v": 100
    },
    {
      "midi": 60,
      "hit": false,
      "t": 68076.70749999987,
      "d": 230.7685000000056,
      "v": 100
    },
    {
      "midi": 64,
      "hit": false,
      "t": 68076.70749999987,
      "d": 230.7685000000056,
      "v": 100
    },
    {
      "midi": 53,
      "hit": false,
      "t": 68307.47599999988,
      "d": 230.7685000000056,
      "v": 110
    },
    {
      "midi": 57,
      "hit": false,
      "t": 68307.47599999988,
      "d": 230.7685000000056,
      "v": 100
    },
    {
      "midi": 60,
      "hit": false,
      "t": 68307.47599999988,
      "d": 230.7685000000056,
      "v": 100
    },
    {
      "midi": 65,
      "hit": false,
      "t": 68307.47599999988,
      "d": 230.7685000000056,
      "v": 100
    },
    {
      "midi": 53,
      "hit": false,
      "t": 68538.24449999988,
      "d": 230.7685000000056,
      "v": 110
    },
    {
      "midi": 57,
      "hit": false,
      "t": 68538.24449999988,
      "d": 230.7685000000056,
      "v": 100
    },
    {
      "midi": 60,
      "hit": false,
      "t": 68538.24449999988,
      "d": 230.7685000000056,
      "v": 100
    },
    {
      "midi": 65,
      "hit": false,
      "t": 68538.24449999988,
      "d": 230.7685000000056,
      "v": 100
    },
    {
      "midi": 53,
      "hit": false,
      "t": 68769.01299999989,
      "d": 230.7685000000056,
      "v": 110
    },
    {
      "midi": 57,
      "hit": false,
      "t": 68769.01299999989,
      "d": 230.7685000000056,
      "v": 100
    },
    {
      "midi": 60,
      "hit": false,
      "t": 68769.01299999989,
      "d": 230.7685000000056,
      "v": 100
    },
    {
      "midi": 65,
      "hit": false,
      "t": 68769.01299999989,
      "d": 230.7685000000056,
      "v": 100
    },
    {
      "midi": 53,
      "hit": false,
      "t": 68999.7814999999,
      "d": 230.7685000000056,
      "v": 110
    },
    {
      "midi": 57,
      "hit": false,
      "t": 68999.7814999999,
      "d": 230.7685000000056,
      "v": 100
    },
    {
      "midi": 60,
      "hit": false,
      "t": 68999.7814999999,
      "d": 230.7685000000056,
      "v": 100
    },
    {
      "midi": 65,
      "hit": false,
      "t": 68999.7814999999,
      "d": 230.7685000000056,
      "v": 100
    },
    {
      "midi": 53,
      "hit": false,
      "t": 69230.5499999999,
      "d": 230.7685000000056,
      "v": 110
    },
    {
      "midi": 57,
      "hit": false,
      "t": 69230.5499999999,
      "d": 230.7685000000056,
      "v": 100
    },
    {
      "midi": 60,
      "hit": false,
      "t": 69230.5499999999,
      "d": 230.7685000000056,
      "v": 100
    },
    {
      "midi": 65,
      "hit": false,
      "t": 69230.5499999999,
      "d": 230.7685000000056,
      "v": 100
    },
    {
      "midi": 53,
      "hit": false,
      "t": 69461.3184999999,
      "d": 230.7685000000056,
      "v": 110
    },
    {
      "midi": 57,
      "hit": false,
      "t": 69461.3184999999,
      "d": 230.7685000000056,
      "v": 100
    },
    {
      "midi": 60,
      "hit": false,
      "t": 69461.3184999999,
      "d": 230.7685000000056,
      "v": 100
    },
    {
      "midi": 65,
      "hit": false,
      "t": 69461.3184999999,
      "d": 230.7685000000056,
      "v": 100
    },
    {
      "midi": 53,
      "hit": false,
      "t": 69692.08699999991,
      "d": 230.7685000000056,
      "v": 110
    },
    {
      "midi": 57,
      "hit": false,
      "t": 69692.08699999991,
      "d": 230.7685000000056,
      "v": 100
    },
    {
      "midi": 60,
      "hit": false,
      "t": 69692.08699999991,
      "d": 230.7685000000056,
      "v": 100
    },
    {
      "midi": 65,
      "hit": false,
      "t": 69692.08699999991,
      "d": 230.7685000000056,
      "v": 100
    },
    {
      "midi": 53,
      "hit": false,
      "t": 69922.85549999992,
      "d": 230.7685000000056,
      "v": 110
    },
    {
      "midi": 57,
      "hit": false,
      "t": 69922.85549999992,
      "d": 230.7685000000056,
      "v": 100
    },
    {
      "midi": 60,
      "hit": false,
      "t": 69922.85549999992,
      "d": 230.7685000000056,
      "v": 100
    },
    {
      "midi": 65,
      "hit": false,
      "t": 69922.85549999992,
      "d": 230.7685000000056,
      "v": 100
    },
    {
      "midi": 52,
      "hit": false,
      "t": 70153.62399999992,
      "d": 230.7685000000056,
      "v": 110
    },
    {
      "midi": 59,
      "hit": false,
      "t": 70153.62399999992,
      "d": 230.7685000000056,
      "v": 100
    },
    {
      "midi": 64,
      "hit": false,
      "t": 70153.62399999992,
      "d": 230.7685000000056,
      "v": 100
    },
    {
      "midi": 68,
      "hit": false,
      "t": 70153.62399999992,
      "d": 230.7685000000056,
      "v": 100
    },
    {
      "midi": 52,
      "hit": false,
      "t": 70384.39249999993,
      "d": 230.7685000000056,
      "v": 110
    },
    {
      "midi": 59,
      "hit": false,
      "t": 70384.39249999993,
      "d": 230.7685000000056,
      "v": 100
    },
    {
      "midi": 64,
      "hit": false,
      "t": 70384.39249999993,
      "d": 230.7685000000056,
      "v": 100
    },
    {
      "midi": 68,
      "hit": false,
      "t": 70384.39249999993,
      "d": 230.7685000000056,
      "v": 100
    },
    {
      "midi": 52,
      "hit": false,
      "t": 70615.16099999993,
      "d": 230.7685000000056,
      "v": 110
    },
    {
      "midi": 59,
      "hit": false,
      "t": 70615.16099999993,
      "d": 230.7685000000056,
      "v": 100
    },
    {
      "midi": 64,
      "hit": false,
      "t": 70615.16099999993,
      "d": 230.7685000000056,
      "v": 100
    },
    {
      "midi": 68,
      "hit": false,
      "t": 70615.16099999993,
      "d": 230.7685000000056,
      "v": 100
    },
    {
      "midi": 52,
      "hit": false,
      "t": 70845.92949999994,
      "d": 230.7685000000056,
      "v": 110
    },
    {
      "midi": 59,
      "hit": false,
      "t": 70845.92949999994,
      "d": 230.7685000000056,
      "v": 100
    },
    {
      "midi": 64,
      "hit": false,
      "t": 70845.92949999994,
      "d": 230.7685000000056,
      "v": 100
    },
    {
      "midi": 68,
      "hit": false,
      "t": 70845.92949999994,
      "d": 230.7685000000056,
      "v": 100
    },
    {
      "midi": 52,
      "hit": false,
      "t": 71076.69799999995,
      "d": 230.7685000000056,
      "v": 110
    },
    {
      "midi": 59,
      "hit": false,
      "t": 71076.69799999995,
      "d": 230.7685000000056,
      "v": 100
    },
    {
      "midi": 64,
      "hit": false,
      "t": 71076.69799999995,
      "d": 230.7685000000056,
      "v": 100
    },
    {
      "midi": 68,
      "hit": false,
      "t": 71076.69799999995,
      "d": 230.7685000000056,
      "v": 100
    },
    {
      "midi": 52,
      "hit": false,
      "t": 71307.46649999995,
      "d": 230.7685000000056,
      "v": 110
    },
    {
      "midi": 59,
      "hit": false,
      "t": 71307.46649999995,
      "d": 230.7685000000056,
      "v": 100
    },
    {
      "midi": 64,
      "hit": false,
      "t": 71307.46649999995,
      "d": 230.7685000000056,
      "v": 100
    },
    {
      "midi": 68,
      "hit": false,
      "t": 71307.46649999995,
      "d": 230.7685000000056,
      "v": 100
    },
    {
      "midi": 52,
      "hit": false,
      "t": 71538.23499999996,
      "d": 230.7685000000056,
      "v": 110
    },
    {
      "midi": 59,
      "hit": false,
      "t": 71538.23499999996,
      "d": 230.7685000000056,
      "v": 100
    },
    {
      "midi": 64,
      "hit": false,
      "t": 71538.23499999996,
      "d": 230.7685000000056,
      "v": 100
    },
    {
      "midi": 68,
      "hit": false,
      "t": 71538.23499999996,
      "d": 230.7685000000056,
      "v": 100
    },
    {
      "midi": 52,
      "hit": false,
      "t": 71769.00349999996,
      "d": 230.7685000000056,
      "v": 110
    },
    {
      "midi": 59,
      "hit": false,
      "t": 71769.00349999996,
      "d": 230.7685000000056,
      "v": 100
    },
    {
      "midi": 64,
      "hit": false,
      "t": 71769.00349999996,
      "d": 230.7685000000056,
      "v": 100
    },
    {
      "midi": 68,
      "hit": false,
      "t": 71769.00349999996,
      "d": 230.7685000000056,
      "v": 100
    },
    {
      "midi": 44,
      "hit": false,
      "t": 71999.77199999997,
      "d": 230.7685000000056,
      "v": 110
    },
    {
      "midi": 59,
      "hit": false,
      "t": 71999.77199999997,
      "d": 230.7685000000056,
      "v": 100
    },
    {
      "midi": 63,
      "hit": false,
      "t": 71999.77199999997,
      "d": 230.7685000000056,
      "v": 100
    },
    {
      "midi": 68,
      "hit": false,
      "t": 71999.77199999997,
      "d": 230.7685000000056,
      "v": 100
    },
    {
      "midi": 44,
      "hit": false,
      "t": 72230.54049999997,
      "d": 230.7685000000056,
      "v": 110
    },
    {
      "midi": 59,
      "hit": false,
      "t": 72230.54049999997,
      "d": 230.7685000000056,
      "v": 100
    },
    {
      "midi": 63,
      "hit": false,
      "t": 72230.54049999997,
      "d": 230.7685000000056,
      "v": 100
    },
    {
      "midi": 68,
      "hit": false,
      "t": 72230.54049999997,
      "d": 230.7685000000056,
      "v": 100
    },
    {
      "midi": 44,
      "hit": false,
      "t": 72461.30899999998,
      "d": 230.7685000000056,
      "v": 110
    },
    {
      "midi": 59,
      "hit": false,
      "t": 72461.30899999998,
      "d": 230.7685000000056,
      "v": 100
    },
    {
      "midi": 63,
      "hit": false,
      "t": 72461.30899999998,
      "d": 230.7685000000056,
      "v": 100
    },
    {
      "midi": 68,
      "hit": false,
      "t": 72461.30899999998,
      "d": 230.7685000000056,
      "v": 100
    },
    {
      "midi": 44,
      "hit": false,
      "t": 72692.07749999998,
      "d": 230.7685000000056,
      "v": 110
    },
    {
      "midi": 59,
      "hit": false,
      "t": 72692.07749999998,
      "d": 230.7685000000056,
      "v": 100
    },
    {
      "midi": 63,
      "hit": false,
      "t": 72692.07749999998,
      "d": 230.7685000000056,
      "v": 100
    },
    {
      "midi": 68,
      "hit": false,
      "t": 72692.07749999998,
      "d": 230.7685000000056,
      "v": 100
    },
    {
      "midi": 44,
      "hit": false,
      "t": 72922.84599999999,
      "d": 230.7685000000056,
      "v": 110
    },
    {
      "midi": 59,
      "hit": false,
      "t": 72922.84599999999,
      "d": 230.7685000000056,
      "v": 100
    },
    {
      "midi": 63,
      "hit": false,
      "t": 72922.84599999999,
      "d": 230.7685000000056,
      "v": 100
    },
    {
      "midi": 68,
      "hit": false,
      "t": 72922.84599999999,
      "d": 230.7685000000056,
      "v": 100
    },
    {
      "midi": 44,
      "hit": false,
      "t": 73153.6145,
      "d": 230.7685000000056,
      "v": 110
    },
    {
      "midi": 59,
      "hit": false,
      "t": 73153.6145,
      "d": 230.7685000000056,
      "v": 100
    },
    {
      "midi": 63,
      "hit": false,
      "t": 73153.6145,
      "d": 230.7685000000056,
      "v": 100
    },
    {
      "midi": 68,
      "hit": false,
      "t": 73153.6145,
      "d": 230.7685000000056,
      "v": 100
    },
    {
      "midi": 44,
      "hit": false,
      "t": 73384.383,
      "d": 230.7685000000056,
      "v": 110
    },
    {
      "midi": 59,
      "hit": false,
      "t": 73384.383,
      "d": 230.7685000000056,
      "v": 100
    },
    {
      "midi": 63,
      "hit": false,
      "t": 73384.383,
      "d": 230.7685000000056,
      "v": 100
    },
    {
      "midi": 68,
      "hit": false,
      "t": 73384.383,
      "d": 230.7685000000056,
      "v": 100
    },
    {
      "midi": 44,
      "hit": false,
      "t": 73615.1515,
      "d": 230.7685000000056,
      "v": 110
    },
    {
      "midi": 59,
      "hit": false,
      "t": 73615.1515,
      "d": 230.7685000000056,
      "v": 100
    },
    {
      "midi": 63,
      "hit": false,
      "t": 73615.1515,
      "d": 230.7685000000056,
      "v": 100
    },
    {
      "midi": 68,
      "hit": false,
      "t": 73615.1515,
      "d": 230.7685000000056,
      "v": 100
    },
    {
      "midi": 42,
      "hit": false,
      "t": 73845.92000000001,
      "d": 230.7685000000056,
      "v": 110
    },
    {
      "midi": 57,
      "hit": false,
      "t": 73845.92000000001,
      "d": 230.7685000000056,
      "v": 100
    },
    {
      "midi": 61,
      "hit": false,
      "t": 73845.92000000001,
      "d": 230.7685000000056,
      "v": 100
    },
    {
      "midi": 66,
      "hit": false,
      "t": 73845.92000000001,
      "d": 230.7685000000056,
      "v": 100
    },
    {
      "midi": 42,
      "hit": false,
      "t": 74076.68850000002,
      "d": 230.7685000000056,
      "v": 110
    },
    {
      "midi": 57,
      "hit": false,
      "t": 74076.68850000002,
      "d": 230.7685000000056,
      "v": 100
    },
    {
      "midi": 61,
      "hit": false,
      "t": 74076.68850000002,
      "d": 230.7685000000056,
      "v": 100
    },
    {
      "midi": 66,
      "hit": false,
      "t": 74076.68850000002,
      "d": 230.7685000000056,
      "v": 100
    },
    {
      "midi": 42,
      "hit": false,
      "t": 74307.45700000002,
      "d": 230.7685000000056,
      "v": 110
    },
    {
      "midi": 57,
      "hit": false,
      "t": 74307.45700000002,
      "d": 230.7685000000056,
      "v": 100
    },
    {
      "midi": 61,
      "hit": false,
      "t": 74307.45700000002,
      "d": 230.7685000000056,
      "v": 100
    },
    {
      "midi": 66,
      "hit": false,
      "t": 74307.45700000002,
      "d": 230.7685000000056,
      "v": 100
    },
    {
      "midi": 42,
      "hit": false,
      "t": 74538.22550000003,
      "d": 230.7685000000056,
      "v": 110
    },
    {
      "midi": 57,
      "hit": false,
      "t": 74538.22550000003,
      "d": 230.7685000000056,
      "v": 100
    },
    {
      "midi": 61,
      "hit": false,
      "t": 74538.22550000003,
      "d": 230.7685000000056,
      "v": 100
    },
    {
      "midi": 66,
      "hit": false,
      "t": 74538.22550000003,
      "d": 230.7685000000056,
      "v": 100
    },
    {
      "midi": 42,
      "hit": false,
      "t": 74768.99400000004,
      "d": 230.7685000000056,
      "v": 110
    },
    {
      "midi": 57,
      "hit": false,
      "t": 74768.99400000004,
      "d": 230.7685000000056,
      "v": 100
    },
    {
      "midi": 61,
      "hit": false,
      "t": 74768.99400000004,
      "d": 230.7685000000056,
      "v": 100
    },
    {
      "midi": 66,
      "hit": false,
      "t": 74768.99400000004,
      "d": 230.7685000000056,
      "v": 100
    },
    {
      "midi": 42,
      "hit": false,
      "t": 74999.76250000004,
      "d": 230.7685000000056,
      "v": 110
    },
    {
      "midi": 57,
      "hit": false,
      "t": 74999.76250000004,
      "d": 230.7685000000056,
      "v": 100
    },
    {
      "midi": 61,
      "hit": false,
      "t": 74999.76250000004,
      "d": 230.7685000000056,
      "v": 100
    },
    {
      "midi": 66,
      "hit": false,
      "t": 74999.76250000004,
      "d": 230.7685000000056,
      "v": 100
    },
    {
      "midi": 42,
      "hit": false,
      "t": 75230.53100000005,
      "d": 230.7685000000056,
      "v": 110
    },
    {
      "midi": 57,
      "hit": false,
      "t": 75230.53100000005,
      "d": 230.7685000000056,
      "v": 100
    },
    {
      "midi": 61,
      "hit": false,
      "t": 75230.53100000005,
      "d": 230.7685000000056,
      "v": 100
    },
    {
      "midi": 66,
      "hit": false,
      "t": 75230.53100000005,
      "d": 230.7685000000056,
      "v": 100
    },
    {
      "midi": 42,
      "hit": false,
      "t": 75461.29950000005,
      "d": 230.7685000000056,
      "v": 110
    },
    {
      "midi": 57,
      "hit": false,
      "t": 75461.29950000005,
      "d": 230.7685000000056,
      "v": 100
    },
    {
      "midi": 61,
      "hit": false,
      "t": 75461.29950000005,
      "d": 230.7685000000056,
      "v": 100
    },
    {
      "midi": 66,
      "hit": false,
      "t": 75461.29950000005,
      "d": 230.7685000000056,
      "v": 100
    },
    {
      "midi": 47,
      "hit": false,
      "t": 75692.06800000006,
      "d": 230.7685000000056,
      "v": 110
    },
    {
      "midi": 59,
      "hit": false,
      "t": 75692.06800000006,
      "d": 230.7685000000056,
      "v": 100
    },
    {
      "midi": 63,
      "hit": false,
      "t": 75692.06800000006,
      "d": 230.7685000000056,
      "v": 100
    },
    {
      "midi": 66,
      "hit": false,
      "t": 75692.06800000006,
      "d": 230.7685000000056,
      "v": 100
    },
    {
      "midi": 47,
      "hit": false,
      "t": 75922.83650000006,
      "d": 230.7685000000056,
      "v": 110
    },
    {
      "midi": 59,
      "hit": false,
      "t": 75922.83650000006,
      "d": 230.7685000000056,
      "v": 100
    },
    {
      "midi": 63,
      "hit": false,
      "t": 75922.83650000006,
      "d": 230.7685000000056,
      "v": 100
    },
    {
      "midi": 66,
      "hit": false,
      "t": 75922.83650000006,
      "d": 230.7685000000056,
      "v": 100
    },
    {
      "midi": 47,
      "hit": false,
      "t": 76153.60500000007,
      "d": 230.7685000000056,
      "v": 110
    },
    {
      "midi": 59,
      "hit": false,
      "t": 76153.60500000007,
      "d": 230.7685000000056,
      "v": 100
    },
    {
      "midi": 63,
      "hit": false,
      "t": 76153.60500000007,
      "d": 230.7685000000056,
      "v": 100
    },
    {
      "midi": 66,
      "hit": false,
      "t": 76153.60500000007,
      "d": 230.7685000000056,
      "v": 100
    },
    {
      "midi": 47,
      "hit": false,
      "t": 76384.37350000007,
      "d": 230.7685000000056,
      "v": 110
    },
    {
      "midi": 59,
      "hit": false,
      "t": 76384.37350000007,
      "d": 230.7685000000056,
      "v": 100
    },
    {
      "midi": 63,
      "hit": false,
      "t": 76384.37350000007,
      "d": 230.7685000000056,
      "v": 100
    },
    {
      "midi": 66,
      "hit": false,
      "t": 76384.37350000007,
      "d": 230.7685000000056,
      "v": 100
    },
    {
      "midi": 47,
      "hit": false,
      "t": 76615.14200000008,
      "d": 230.7685000000056,
      "v": 110
    },
    {
      "midi": 59,
      "hit": false,
      "t": 76615.14200000008,
      "d": 230.7685000000056,
      "v": 100
    },
    {
      "midi": 63,
      "hit": false,
      "t": 76615.14200000008,
      "d": 230.7685000000056,
      "v": 100
    },
    {
      "midi": 66,
      "hit": false,
      "t": 76615.14200000008,
      "d": 230.7685000000056,
      "v": 100
    },
    {
      "midi": 47,
      "hit": false,
      "t": 76845.91050000009,
      "d": 230.7685000000056,
      "v": 110
    },
    {
      "midi": 59,
      "hit": false,
      "t": 76845.91050000009,
      "d": 230.7685000000056,
      "v": 100
    },
    {
      "midi": 63,
      "hit": false,
      "t": 76845.91050000009,
      "d": 230.7685000000056,
      "v": 100
    },
    {
      "midi": 66,
      "hit": false,
      "t": 76845.91050000009,
      "d": 230.7685000000056,
      "v": 100
    },
    {
      "midi": 47,
      "hit": false,
      "t": 77076.67900000009,
      "d": 230.7685000000056,
      "v": 110
    },
    {
      "midi": 59,
      "hit": false,
      "t": 77076.67900000009,
      "d": 230.7685000000056,
      "v": 100
    },
    {
      "midi": 63,
      "hit": false,
      "t": 77076.67900000009,
      "d": 230.7685000000056,
      "v": 100
    },
    {
      "midi": 66,
      "hit": false,
      "t": 77076.67900000009,
      "d": 230.7685000000056,
      "v": 100
    },
    {
      "midi": 47,
      "hit": false,
      "t": 77307.4475000001,
      "d": 230.7685000000056,
      "v": 110
    },
    {
      "midi": 59,
      "hit": false,
      "t": 77307.4475000001,
      "d": 230.7685000000056,
      "v": 100
    },
    {
      "midi": 63,
      "hit": false,
      "t": 77307.4475000001,
      "d": 230.7685000000056,
      "v": 100
    },
    {
      "midi": 66,
      "hit": false,
      "t": 77307.4475000001,
      "d": 230.7685000000056,
      "v": 100
    },
    {
      "midi": 52,
      "hit": false,
      "t": 77538.2160000001,
      "d": 230.7685000000056,
      "v": 110
    },
    {
      "midi": 59,
      "hit": false,
      "t": 77538.2160000001,
      "d": 230.7685000000056,
      "v": 100
    },
    {
      "midi": 64,
      "hit": false,
      "t": 77538.2160000001,
      "d": 230.7685000000056,
      "v": 100
    },
    {
      "midi": 68,
      "hit": false,
      "t": 77538.2160000001,
      "d": 230.7685000000056,
      "v": 100
    },
    {
      "midi": 52,
      "hit": false,
      "t": 77768.98450000011,
      "d": 230.7685000000056,
      "v": 110
    },
    {
      "midi": 59,
      "hit": false,
      "t": 77768.98450000011,
      "d": 230.7685000000056,
      "v": 100
    },
    {
      "midi": 64,
      "hit": false,
      "t": 77768.98450000011,
      "d": 230.7685000000056,
      "v": 100
    },
    {
      "midi": 68,
      "hit": false,
      "t": 77768.98450000011,
      "d": 230.7685000000056,
      "v": 100
    },
    {
      "midi": 52,
      "hit": false,
      "t": 77999.75300000011,
      "d": 230.7685000000056,
      "v": 110
    },
    {
      "midi": 59,
      "hit": false,
      "t": 77999.75300000011,
      "d": 230.7685000000056,
      "v": 100
    },
    {
      "midi": 64,
      "hit": false,
      "t": 77999.75300000011,
      "d": 230.7685000000056,
      "v": 100
    },
    {
      "midi": 68,
      "hit": false,
      "t": 77999.75300000011,
      "d": 230.7685000000056,
      "v": 100
    },
    {
      "midi": 52,
      "hit": false,
      "t": 78230.52150000012,
      "d": 230.7685000000056,
      "v": 110
    },
    {
      "midi": 59,
      "hit": false,
      "t": 78230.52150000012,
      "d": 230.7685000000056,
      "v": 100
    },
    {
      "midi": 64,
      "hit": false,
      "t": 78230.52150000012,
      "d": 230.7685000000056,
      "v": 100
    },
    {
      "midi": 68,
      "hit": false,
      "t": 78230.52150000012,
      "d": 230.7685000000056,
      "v": 100
    },
    {
      "midi": 52,
      "hit": false,
      "t": 78461.29000000012,
      "d": 230.7685000000056,
      "v": 110
    },
    {
      "midi": 59,
      "hit": false,
      "t": 78461.29000000012,
      "d": 230.7685000000056,
      "v": 100
    },
    {
      "midi": 64,
      "hit": false,
      "t": 78461.29000000012,
      "d": 230.7685000000056,
      "v": 100
    },
    {
      "midi": 68,
      "hit": false,
      "t": 78461.29000000012,
      "d": 230.7685000000056,
      "v": 100
    },
    {
      "midi": 52,
      "hit": false,
      "t": 78692.05850000013,
      "d": 230.7685000000056,
      "v": 110
    },
    {
      "midi": 59,
      "hit": false,
      "t": 78692.05850000013,
      "d": 230.7685000000056,
      "v": 100
    },
    {
      "midi": 64,
      "hit": false,
      "t": 78692.05850000013,
      "d": 230.7685000000056,
      "v": 100
    },
    {
      "midi": 68,
      "hit": false,
      "t": 78692.05850000013,
      "d": 230.7685000000056,
      "v": 100
    },
    {
      "midi": 52,
      "hit": false,
      "t": 78922.82700000014,
      "d": 230.7685000000056,
      "v": 110
    },
    {
      "midi": 59,
      "hit": false,
      "t": 78922.82700000014,
      "d": 230.7685000000056,
      "v": 100
    },
    {
      "midi": 64,
      "hit": false,
      "t": 78922.82700000014,
      "d": 230.7685000000056,
      "v": 100
    },
    {
      "midi": 68,
      "hit": false,
      "t": 78922.82700000014,
      "d": 230.7685000000056,
      "v": 100
    },
    {
      "midi": 52,
      "hit": false,
      "t": 79153.59550000014,
      "d": 230.7685000000056,
      "v": 110
    },
    {
      "midi": 59,
      "hit": false,
      "t": 79153.59550000014,
      "d": 230.7685000000056,
      "v": 100
    },
    {
      "midi": 64,
      "hit": false,
      "t": 79153.59550000014,
      "d": 230.7685000000056,
      "v": 100
    },
    {
      "midi": 68,
      "hit": false,
      "t": 79153.59550000014,
      "d": 230.7685000000056,
      "v": 100
    },
    {
      "midi": 44,
      "hit": false,
      "t": 79384.36400000015,
      "d": 230.7685000000056,
      "v": 110
    },
    {
      "midi": 59,
      "hit": false,
      "t": 79384.36400000015,
      "d": 230.7685000000056,
      "v": 100
    },
    {
      "midi": 63,
      "hit": false,
      "t": 79384.36400000015,
      "d": 230.7685000000056,
      "v": 100
    },
    {
      "midi": 68,
      "hit": false,
      "t": 79384.36400000015,
      "d": 230.7685000000056,
      "v": 100
    },
    {
      "midi": 44,
      "hit": false,
      "t": 79615.13250000015,
      "d": 230.7685000000056,
      "v": 110
    },
    {
      "midi": 59,
      "hit": false,
      "t": 79615.13250000015,
      "d": 230.7685000000056,
      "v": 100
    },
    {
      "midi": 63,
      "hit": false,
      "t": 79615.13250000015,
      "d": 230.7685000000056,
      "v": 100
    },
    {
      "midi": 68,
      "hit": false,
      "t": 79615.13250000015,
      "d": 230.7685000000056,
      "v": 100
    },
    {
      "midi": 44,
      "hit": false,
      "t": 79845.90100000016,
      "d": 230.7685000000056,
      "v": 110
    },
    {
      "midi": 59,
      "hit": false,
      "t": 79845.90100000016,
      "d": 230.7685000000056,
      "v": 100
    },
    {
      "midi": 63,
      "hit": false,
      "t": 79845.90100000016,
      "d": 230.7685000000056,
      "v": 100
    },
    {
      "midi": 68,
      "hit": false,
      "t": 79845.90100000016,
      "d": 230.7685000000056,
      "v": 100
    },
    {
      "midi": 44,
      "hit": false,
      "t": 80076.66950000016,
      "d": 230.7685000000056,
      "v": 110
    },
    {
      "midi": 59,
      "hit": false,
      "t": 80076.66950000016,
      "d": 230.7685000000056,
      "v": 100
    },
    {
      "midi": 63,
      "hit": false,
      "t": 80076.66950000016,
      "d": 230.7685000000056,
      "v": 100
    },
    {
      "midi": 68,
      "hit": false,
      "t": 80076.66950000016,
      "d": 230.7685000000056,
      "v": 100
    },
    {
      "midi": 44,
      "hit": false,
      "t": 80307.43800000017,
      "d": 230.7685000000056,
      "v": 110
    },
    {
      "midi": 59,
      "hit": false,
      "t": 80307.43800000017,
      "d": 230.7685000000056,
      "v": 100
    },
    {
      "midi": 63,
      "hit": false,
      "t": 80307.43800000017,
      "d": 230.7685000000056,
      "v": 100
    },
    {
      "midi": 68,
      "hit": false,
      "t": 80307.43800000017,
      "d": 230.7685000000056,
      "v": 100
    },
    {
      "midi": 44,
      "hit": false,
      "t": 80538.20650000017,
      "d": 230.7685000000056,
      "v": 110
    },
    {
      "midi": 59,
      "hit": false,
      "t": 80538.20650000017,
      "d": 230.7685000000056,
      "v": 100
    },
    {
      "midi": 63,
      "hit": false,
      "t": 80538.20650000017,
      "d": 230.7685000000056,
      "v": 100
    },
    {
      "midi": 68,
      "hit": false,
      "t": 80538.20650000017,
      "d": 230.7685000000056,
      "v": 100
    },
    {
      "midi": 44,
      "hit": false,
      "t": 80768.97500000018,
      "d": 230.7685000000056,
      "v": 110
    },
    {
      "midi": 59,
      "hit": false,
      "t": 80768.97500000018,
      "d": 230.7685000000056,
      "v": 100
    },
    {
      "midi": 63,
      "hit": false,
      "t": 80768.97500000018,
      "d": 230.7685000000056,
      "v": 100
    },
    {
      "midi": 68,
      "hit": false,
      "t": 80768.97500000018,
      "d": 230.7685000000056,
      "v": 100
    },
    {
      "midi": 44,
      "hit": false,
      "t": 80999.74350000019,
      "d": 230.7685000000056,
      "v": 110
    },
    {
      "midi": 59,
      "hit": false,
      "t": 80999.74350000019,
      "d": 230.7685000000056,
      "v": 100
    },
    {
      "midi": 63,
      "hit": false,
      "t": 80999.74350000019,
      "d": 230.7685000000056,
      "v": 100
    },
    {
      "midi": 68,
      "hit": false,
      "t": 80999.74350000019,
      "d": 230.7685000000056,
      "v": 100
    },
    {
      "midi": 42,
      "hit": false,
      "t": 81230.51200000019,
      "d": 230.7685000000056,
      "v": 110
    },
    {
      "midi": 57,
      "hit": false,
      "t": 81230.51200000019,
      "d": 230.7685000000056,
      "v": 100
    },
    {
      "midi": 61,
      "hit": false,
      "t": 81230.51200000019,
      "d": 230.7685000000056,
      "v": 100
    },
    {
      "midi": 66,
      "hit": false,
      "t": 81230.51200000019,
      "d": 230.7685000000056,
      "v": 100
    },
    {
      "midi": 42,
      "hit": false,
      "t": 81461.2805000002,
      "d": 230.7685000000056,
      "v": 110
    },
    {
      "midi": 57,
      "hit": false,
      "t": 81461.2805000002,
      "d": 230.7685000000056,
      "v": 100
    },
    {
      "midi": 61,
      "hit": false,
      "t": 81461.2805000002,
      "d": 230.7685000000056,
      "v": 100
    },
    {
      "midi": 66,
      "hit": false,
      "t": 81461.2805000002,
      "d": 230.7685000000056,
      "v": 100
    },
    {
      "midi": 42,
      "hit": false,
      "t": 81692.0490000002,
      "d": 230.7685000000056,
      "v": 110
    },
    {
      "midi": 57,
      "hit": false,
      "t": 81692.0490000002,
      "d": 230.7685000000056,
      "v": 100
    },
    {
      "midi": 61,
      "hit": false,
      "t": 81692.0490000002,
      "d": 230.7685000000056,
      "v": 100
    },
    {
      "midi": 66,
      "hit": false,
      "t": 81692.0490000002,
      "d": 230.7685000000056,
      "v": 100
    },
    {
      "midi": 42,
      "hit": false,
      "t": 81922.81750000021,
      "d": 230.7685000000056,
      "v": 110
    },
    {
      "midi": 57,
      "hit": false,
      "t": 81922.81750000021,
      "d": 230.7685000000056,
      "v": 100
    },
    {
      "midi": 61,
      "hit": false,
      "t": 81922.81750000021,
      "d": 230.7685000000056,
      "v": 100
    },
    {
      "midi": 66,
      "hit": false,
      "t": 81922.81750000021,
      "d": 230.7685000000056,
      "v": 100
    },
    {
      "midi": 42,
      "hit": false,
      "t": 82153.58600000021,
      "d": 230.7685000000056,
      "v": 110
    },
    {
      "midi": 57,
      "hit": false,
      "t": 82153.58600000021,
      "d": 230.7685000000056,
      "v": 100
    },
    {
      "midi": 61,
      "hit": false,
      "t": 82153.58600000021,
      "d": 230.7685000000056,
      "v": 100
    },
    {
      "midi": 66,
      "hit": false,
      "t": 82153.58600000021,
      "d": 230.7685000000056,
      "v": 100
    },
    {
      "midi": 42,
      "hit": false,
      "t": 82384.35450000022,
      "d": 230.7685000000056,
      "v": 110
    },
    {
      "midi": 57,
      "hit": false,
      "t": 82384.35450000022,
      "d": 230.7685000000056,
      "v": 100
    },
    {
      "midi": 61,
      "hit": false,
      "t": 82384.35450000022,
      "d": 230.7685000000056,
      "v": 100
    },
    {
      "midi": 66,
      "hit": false,
      "t": 82384.35450000022,
      "d": 230.7685000000056,
      "v": 100
    },
    {
      "midi": 42,
      "hit": false,
      "t": 82615.12300000023,
      "d": 230.7685000000056,
      "v": 110
    },
    {
      "midi": 57,
      "hit": false,
      "t": 82615.12300000023,
      "d": 230.7685000000056,
      "v": 100
    },
    {
      "midi": 61,
      "hit": false,
      "t": 82615.12300000023,
      "d": 230.7685000000056,
      "v": 100
    },
    {
      "midi": 66,
      "hit": false,
      "t": 82615.12300000023,
      "d": 230.7685000000056,
      "v": 100
    },
    {
      "midi": 42,
      "hit": false,
      "t": 82845.89150000023,
      "d": 230.7685000000056,
      "v": 110
    },
    {
      "midi": 57,
      "hit": false,
      "t": 82845.89150000023,
      "d": 230.7685000000056,
      "v": 100
    },
    {
      "midi": 61,
      "hit": false,
      "t": 82845.89150000023,
      "d": 230.7685000000056,
      "v": 100
    },
    {
      "midi": 66,
      "hit": false,
      "t": 82845.89150000023,
      "d": 230.7685000000056,
      "v": 100
    },
    {
      "midi": 47,
      "hit": false,
      "t": 83076.66000000024,
      "d": 230.7685000000056,
      "v": 110
    },
    {
      "midi": 59,
      "hit": false,
      "t": 83076.66000000024,
      "d": 230.7685000000056,
      "v": 100
    },
    {
      "midi": 63,
      "hit": false,
      "t": 83076.66000000024,
      "d": 230.7685000000056,
      "v": 100
    },
    {
      "midi": 66,
      "hit": false,
      "t": 83076.66000000024,
      "d": 230.7685000000056,
      "v": 100
    },
    {
      "midi": 47,
      "hit": false,
      "t": 83307.42850000024,
      "d": 230.7685000000056,
      "v": 110
    },
    {
      "midi": 59,
      "hit": false,
      "t": 83307.42850000024,
      "d": 230.7685000000056,
      "v": 100
    },
    {
      "midi": 63,
      "hit": false,
      "t": 83307.42850000024,
      "d": 230.7685000000056,
      "v": 100
    },
    {
      "midi": 66,
      "hit": false,
      "t": 83307.42850000024,
      "d": 230.7685000000056,
      "v": 100
    },
    {
      "midi": 47,
      "hit": false,
      "t": 83538.19700000025,
      "d": 230.7685000000056,
      "v": 110
    },
    {
      "midi": 59,
      "hit": false,
      "t": 83538.19700000025,
      "d": 230.7685000000056,
      "v": 100
    },
    {
      "midi": 63,
      "hit": false,
      "t": 83538.19700000025,
      "d": 230.7685000000056,
      "v": 100
    },
    {
      "midi": 66,
      "hit": false,
      "t": 83538.19700000025,
      "d": 230.7685000000056,
      "v": 100
    },
    {
      "midi": 47,
      "hit": false,
      "t": 83768.96550000025,
      "d": 230.7685000000056,
      "v": 110
    },
    {
      "midi": 59,
      "hit": false,
      "t": 83768.96550000025,
      "d": 230.7685000000056,
      "v": 100
    },
    {
      "midi": 63,
      "hit": false,
      "t": 83768.96550000025,
      "d": 230.7685000000056,
      "v": 100
    },
    {
      "midi": 66,
      "hit": false,
      "t": 83768.96550000025,
      "d": 230.7685000000056,
      "v": 100
    },
    {
      "midi": 47,
      "hit": false,
      "t": 83999.73400000026,
      "d": 230.7685000000056,
      "v": 110
    },
    {
      "midi": 59,
      "hit": false,
      "t": 83999.73400000026,
      "d": 230.7685000000056,
      "v": 100
    },
    {
      "midi": 63,
      "hit": false,
      "t": 83999.73400000026,
      "d": 230.7685000000056,
      "v": 100
    },
    {
      "midi": 66,
      "hit": false,
      "t": 83999.73400000026,
      "d": 230.7685000000056,
      "v": 100
    },
    {
      "midi": 47,
      "hit": false,
      "t": 84230.50250000026,
      "d": 230.7685000000056,
      "v": 110
    },
    {
      "midi": 59,
      "hit": false,
      "t": 84230.50250000026,
      "d": 230.7685000000056,
      "v": 100
    },
    {
      "midi": 63,
      "hit": false,
      "t": 84230.50250000026,
      "d": 230.7685000000056,
      "v": 100
    },
    {
      "midi": 66,
      "hit": false,
      "t": 84230.50250000026,
      "d": 230.7685000000056,
      "v": 100
    },
    {
      "midi": 47,
      "hit": false,
      "t": 84461.27100000027,
      "d": 230.7685000000056,
      "v": 110
    },
    {
      "midi": 59,
      "hit": false,
      "t": 84461.27100000027,
      "d": 230.7685000000056,
      "v": 100
    },
    {
      "midi": 63,
      "hit": false,
      "t": 84461.27100000027,
      "d": 230.7685000000056,
      "v": 100
    },
    {
      "midi": 66,
      "hit": false,
      "t": 84461.27100000027,
      "d": 230.7685000000056,
      "v": 100
    },
    {
      "midi": 47,
      "hit": false,
      "t": 84692.03950000028,
      "d": 230.7685000000056,
      "v": 110
    },
    {
      "midi": 59,
      "hit": false,
      "t": 84692.03950000028,
      "d": 230.7685000000056,
      "v": 100
    },
    {
      "midi": 63,
      "hit": false,
      "t": 84692.03950000028,
      "d": 230.7685000000056,
      "v": 100
    },
    {
      "midi": 66,
      "hit": false,
      "t": 84692.03950000028,
      "d": 230.7685000000056,
      "v": 100
    },
    {
      "midi": 52,
      "hit": false,
      "t": 84922.80800000028,
      "d": 230.7685000000056,
      "v": 110
    },
    {
      "midi": 59,
      "hit": false,
      "t": 84922.80800000028,
      "d": 230.7685000000056,
      "v": 100
    },
    {
      "midi": 64,
      "hit": false,
      "t": 84922.80800000028,
      "d": 230.7685000000056,
      "v": 100
    },
    {
      "midi": 68,
      "hit": false,
      "t": 84922.80800000028,
      "d": 230.7685000000056,
      "v": 100
    },
    {
      "midi": 52,
      "hit": false,
      "t": 85153.57650000029,
      "d": 230.7685000000056,
      "v": 110
    },
    {
      "midi": 59,
      "hit": false,
      "t": 85153.57650000029,
      "d": 230.7685000000056,
      "v": 100
    },
    {
      "midi": 64,
      "hit": false,
      "t": 85153.57650000029,
      "d": 230.7685000000056,
      "v": 100
    },
    {
      "midi": 68,
      "hit": false,
      "t": 85153.57650000029,
      "d": 230.7685000000056,
      "v": 100
    },
    {
      "midi": 52,
      "hit": false,
      "t": 85384.34500000029,
      "d": 230.7685000000056,
      "v": 110
    },
    {
      "midi": 59,
      "hit": false,
      "t": 85384.34500000029,
      "d": 230.7685000000056,
      "v": 100
    },
    {
      "midi": 64,
      "hit": false,
      "t": 85384.34500000029,
      "d": 230.7685000000056,
      "v": 100
    },
    {
      "midi": 68,
      "hit": false,
      "t": 85384.34500000029,
      "d": 230.7685000000056,
      "v": 100
    },
    {
      "midi": 52,
      "hit": false,
      "t": 85615.1135000003,
      "d": 230.7685000000056,
      "v": 110
    },
    {
      "midi": 59,
      "hit": false,
      "t": 85615.1135000003,
      "d": 230.7685000000056,
      "v": 100
    },
    {
      "midi": 64,
      "hit": false,
      "t": 85615.1135000003,
      "d": 230.7685000000056,
      "v": 100
    },
    {
      "midi": 68,
      "hit": false,
      "t": 85615.1135000003,
      "d": 230.7685000000056,
      "v": 100
    },
    {
      "midi": 52,
      "hit": false,
      "t": 85845.8820000003,
      "d": 230.7685000000056,
      "v": 110
    },
    {
      "midi": 59,
      "hit": false,
      "t": 85845.8820000003,
      "d": 230.7685000000056,
      "v": 100
    },
    {
      "midi": 64,
      "hit": false,
      "t": 85845.8820000003,
      "d": 230.7685000000056,
      "v": 100
    },
    {
      "midi": 68,
      "hit": false,
      "t": 85845.8820000003,
      "d": 230.7685000000056,
      "v": 100
    },
    {
      "midi": 52,
      "hit": false,
      "t": 86076.65050000031,
      "d": 230.7685000000056,
      "v": 110
    },
    {
      "midi": 59,
      "hit": false,
      "t": 86076.65050000031,
      "d": 230.7685000000056,
      "v": 100
    },
    {
      "midi": 64,
      "hit": false,
      "t": 86076.65050000031,
      "d": 230.7685000000056,
      "v": 100
    },
    {
      "midi": 68,
      "hit": false,
      "t": 86076.65050000031,
      "d": 230.7685000000056,
      "v": 100
    },
    {
      "midi": 52,
      "hit": false,
      "t": 86307.41900000031,
      "d": 230.7685000000056,
      "v": 110
    },
    {
      "midi": 59,
      "hit": false,
      "t": 86307.41900000031,
      "d": 230.7685000000056,
      "v": 100
    },
    {
      "midi": 64,
      "hit": false,
      "t": 86307.41900000031,
      "d": 230.7685000000056,
      "v": 100
    },
    {
      "midi": 68,
      "hit": false,
      "t": 86307.41900000031,
      "d": 230.7685000000056,
      "v": 100
    },
    {
      "midi": 52,
      "hit": false,
      "t": 86538.18750000032,
      "d": 230.7685000000056,
      "v": 110
    },
    {
      "midi": 59,
      "hit": false,
      "t": 86538.18750000032,
      "d": 230.7685000000056,
      "v": 100
    },
    {
      "midi": 64,
      "hit": false,
      "t": 86538.18750000032,
      "d": 230.7685000000056,
      "v": 100
    },
    {
      "midi": 68,
      "hit": false,
      "t": 86538.18750000032,
      "d": 230.7685000000056,
      "v": 100
    },
    {
      "midi": 49,
      "hit": false,
      "t": 86768.95600000033,
      "d": 230.7685000000056,
      "v": 110
    },
    {
      "midi": 61,
      "hit": false,
      "t": 86768.95600000033,
      "d": 230.7685000000056,
      "v": 100
    },
    {
      "midi": 64,
      "hit": false,
      "t": 86768.95600000033,
      "d": 230.7685000000056,
      "v": 100
    },
    {
      "midi": 68,
      "hit": false,
      "t": 86768.95600000033,
      "d": 230.7685000000056,
      "v": 100
    },
    {
      "midi": 49,
      "hit": false,
      "t": 86999.72450000033,
      "d": 230.7685000000056,
      "v": 110
    },
    {
      "midi": 61,
      "hit": false,
      "t": 86999.72450000033,
      "d": 230.7685000000056,
      "v": 100
    },
    {
      "midi": 64,
      "hit": false,
      "t": 86999.72450000033,
      "d": 230.7685000000056,
      "v": 100
    },
    {
      "midi": 68,
      "hit": false,
      "t": 86999.72450000033,
      "d": 230.7685000000056,
      "v": 100
    },
    {
      "midi": 49,
      "hit": false,
      "t": 87230.49300000034,
      "d": 230.7685000000056,
      "v": 110
    },
    {
      "midi": 61,
      "hit": false,
      "t": 87230.49300000034,
      "d": 230.7685000000056,
      "v": 100
    },
    {
      "midi": 64,
      "hit": false,
      "t": 87230.49300000034,
      "d": 230.7685000000056,
      "v": 100
    },
    {
      "midi": 68,
      "hit": false,
      "t": 87230.49300000034,
      "d": 230.7685000000056,
      "v": 100
    },
    {
      "midi": 49,
      "hit": false,
      "t": 87461.26150000034,
      "d": 230.7685000000056,
      "v": 110
    },
    {
      "midi": 61,
      "hit": false,
      "t": 87461.26150000034,
      "d": 230.7685000000056,
      "v": 100
    },
    {
      "midi": 64,
      "hit": false,
      "t": 87461.26150000034,
      "d": 230.7685000000056,
      "v": 100
    },
    {
      "midi": 68,
      "hit": false,
      "t": 87461.26150000034,
      "d": 230.7685000000056,
      "v": 100
    },
    {
      "midi": 49,
      "hit": false,
      "t": 87692.03000000035,
      "d": 230.7685000000056,
      "v": 110
    },
    {
      "midi": 61,
      "hit": false,
      "t": 87692.03000000035,
      "d": 230.7685000000056,
      "v": 100
    },
    {
      "midi": 64,
      "hit": false,
      "t": 87692.03000000035,
      "d": 230.7685000000056,
      "v": 100
    },
    {
      "midi": 68,
      "hit": false,
      "t": 87692.03000000035,
      "d": 230.7685000000056,
      "v": 100
    },
    {
      "midi": 49,
      "hit": false,
      "t": 87922.79850000035,
      "d": 230.7685000000056,
      "v": 110
    },
    {
      "midi": 61,
      "hit": false,
      "t": 87922.79850000035,
      "d": 230.7685000000056,
      "v": 100
    },
    {
      "midi": 64,
      "hit": false,
      "t": 87922.79850000035,
      "d": 230.7685000000056,
      "v": 100
    },
    {
      "midi": 68,
      "hit": false,
      "t": 87922.79850000035,
      "d": 230.7685000000056,
      "v": 100
    },
    {
      "midi": 49,
      "hit": false,
      "t": 88153.56700000036,
      "d": 230.7685000000056,
      "v": 110
    },
    {
      "midi": 61,
      "hit": false,
      "t": 88153.56700000036,
      "d": 230.7685000000056,
      "v": 100
    },
    {
      "midi": 64,
      "hit": false,
      "t": 88153.56700000036,
      "d": 230.7685000000056,
      "v": 100
    },
    {
      "midi": 68,
      "hit": false,
      "t": 88153.56700000036,
      "d": 230.7685000000056,
      "v": 100
    },
    {
      "midi": 49,
      "hit": false,
      "t": 88384.33550000036,
      "d": 230.7685000000056,
      "v": 110
    },
    {
      "midi": 61,
      "hit": false,
      "t": 88384.33550000036,
      "d": 230.7685000000056,
      "v": 100
    },
    {
      "midi": 64,
      "hit": false,
      "t": 88384.33550000036,
      "d": 230.7685000000056,
      "v": 100
    },
    {
      "midi": 68,
      "hit": false,
      "t": 88384.33550000036,
      "d": 230.7685000000056,
      "v": 100
    },
    {
      "midi": 42,
      "hit": false,
      "t": 88615.10400000037,
      "d": 230.7685000000056,
      "v": 110
    },
    {
      "midi": 57,
      "hit": false,
      "t": 88615.10400000037,
      "d": 230.7685000000056,
      "v": 100
    },
    {
      "midi": 61,
      "hit": false,
      "t": 88615.10400000037,
      "d": 230.7685000000056,
      "v": 100
    },
    {
      "midi": 66,
      "hit": false,
      "t": 88615.10400000037,
      "d": 230.7685000000056,
      "v": 100
    },
    {
      "midi": 42,
      "hit": false,
      "t": 88845.87250000038,
      "d": 230.7685000000056,
      "v": 110
    },
    {
      "midi": 57,
      "hit": false,
      "t": 88845.87250000038,
      "d": 230.7685000000056,
      "v": 100
    },
    {
      "midi": 61,
      "hit": false,
      "t": 88845.87250000038,
      "d": 230.7685000000056,
      "v": 100
    },
    {
      "midi": 66,
      "hit": false,
      "t": 88845.87250000038,
      "d": 230.7685000000056,
      "v": 100
    },
    {
      "midi": 42,
      "hit": false,
      "t": 89076.64100000038,
      "d": 230.7685000000056,
      "v": 110
    },
    {
      "midi": 57,
      "hit": false,
      "t": 89076.64100000038,
      "d": 230.7685000000056,
      "v": 100
    },
    {
      "midi": 61,
      "hit": false,
      "t": 89076.64100000038,
      "d": 230.7685000000056,
      "v": 100
    },
    {
      "midi": 66,
      "hit": false,
      "t": 89076.64100000038,
      "d": 230.7685000000056,
      "v": 100
    },
    {
      "midi": 42,
      "hit": false,
      "t": 89307.40950000039,
      "d": 230.7685000000056,
      "v": 110
    },
    {
      "midi": 57,
      "hit": false,
      "t": 89307.40950000039,
      "d": 230.7685000000056,
      "v": 100
    },
    {
      "midi": 61,
      "hit": false,
      "t": 89307.40950000039,
      "d": 230.7685000000056,
      "v": 100
    },
    {
      "midi": 66,
      "hit": false,
      "t": 89307.40950000039,
      "d": 230.7685000000056,
      "v": 100
    },
    {
      "midi": 42,
      "hit": false,
      "t": 89538.1780000004,
      "d": 230.7685000000056,
      "v": 110
    },
    {
      "midi": 57,
      "hit": false,
      "t": 89538.1780000004,
      "d": 230.7685000000056,
      "v": 100
    },
    {
      "midi": 61,
      "hit": false,
      "t": 89538.1780000004,
      "d": 230.7685000000056,
      "v": 100
    },
    {
      "midi": 66,
      "hit": false,
      "t": 89538.1780000004,
      "d": 230.7685000000056,
      "v": 100
    },
    {
      "midi": 42,
      "hit": false,
      "t": 89768.9465000004,
      "d": 230.7685000000056,
      "v": 110
    },
    {
      "midi": 57,
      "hit": false,
      "t": 89768.9465000004,
      "d": 230.7685000000056,
      "v": 100
    },
    {
      "midi": 61,
      "hit": false,
      "t": 89768.9465000004,
      "d": 230.7685000000056,
      "v": 100
    },
    {
      "midi": 66,
      "hit": false,
      "t": 89768.9465000004,
      "d": 230.7685000000056,
      "v": 100
    },
    {
      "midi": 42,
      "hit": false,
      "t": 89999.7150000004,
      "d": 230.7685000000056,
      "v": 110
    },
    {
      "midi": 57,
      "hit": false,
      "t": 89999.7150000004,
      "d": 230.7685000000056,
      "v": 100
    },
    {
      "midi": 61,
      "hit": false,
      "t": 89999.7150000004,
      "d": 230.7685000000056,
      "v": 100
    },
    {
      "midi": 66,
      "hit": false,
      "t": 89999.7150000004,
      "d": 230.7685000000056,
      "v": 100
    },
    {
      "midi": 42,
      "hit": false,
      "t": 90230.48350000041,
      "d": 230.7685000000056,
      "v": 110
    },
    {
      "midi": 57,
      "hit": false,
      "t": 90230.48350000041,
      "d": 230.7685000000056,
      "v": 100
    },
    {
      "midi": 61,
      "hit": false,
      "t": 90230.48350000041,
      "d": 230.7685000000056,
      "v": 100
    },
    {
      "midi": 66,
      "hit": false,
      "t": 90230.48350000041,
      "d": 230.7685000000056,
      "v": 100
    },
    {
      "midi": 47,
      "hit": false,
      "t": 90461.25200000042,
      "d": 230.7685000000056,
      "v": 110
    },
    {
      "midi": 59,
      "hit": false,
      "t": 90461.25200000042,
      "d": 230.7685000000056,
      "v": 100
    },
    {
      "midi": 63,
      "hit": false,
      "t": 90461.25200000042,
      "d": 230.7685000000056,
      "v": 100
    },
    {
      "midi": 66,
      "hit": false,
      "t": 90461.25200000042,
      "d": 230.7685000000056,
      "v": 100
    },
    {
      "midi": 47,
      "hit": false,
      "t": 90692.02050000042,
      "d": 230.7685000000056,
      "v": 110
    },
    {
      "midi": 59,
      "hit": false,
      "t": 90692.02050000042,
      "d": 230.7685000000056,
      "v": 100
    },
    {
      "midi": 63,
      "hit": false,
      "t": 90692.02050000042,
      "d": 230.7685000000056,
      "v": 100
    },
    {
      "midi": 66,
      "hit": false,
      "t": 90692.02050000042,
      "d": 230.7685000000056,
      "v": 100
    },
    {
      "midi": 47,
      "hit": false,
      "t": 90922.78900000043,
      "d": 230.7685000000056,
      "v": 110
    },
    {
      "midi": 59,
      "hit": false,
      "t": 90922.78900000043,
      "d": 230.7685000000056,
      "v": 100
    },
    {
      "midi": 63,
      "hit": false,
      "t": 90922.78900000043,
      "d": 230.7685000000056,
      "v": 100
    },
    {
      "midi": 66,
      "hit": false,
      "t": 90922.78900000043,
      "d": 230.7685000000056,
      "v": 100
    },
    {
      "midi": 47,
      "hit": false,
      "t": 91153.55750000043,
      "d": 230.7685000000056,
      "v": 110
    },
    {
      "midi": 59,
      "hit": false,
      "t": 91153.55750000043,
      "d": 230.7685000000056,
      "v": 100
    },
    {
      "midi": 63,
      "hit": false,
      "t": 91153.55750000043,
      "d": 230.7685000000056,
      "v": 100
    },
    {
      "midi": 66,
      "hit": false,
      "t": 91153.55750000043,
      "d": 230.7685000000056,
      "v": 100
    },
    {
      "midi": 47,
      "hit": false,
      "t": 91384.32600000044,
      "d": 230.7685000000056,
      "v": 110
    },
    {
      "midi": 59,
      "hit": false,
      "t": 91384.32600000044,
      "d": 230.7685000000056,
      "v": 100
    },
    {
      "midi": 63,
      "hit": false,
      "t": 91384.32600000044,
      "d": 230.7685000000056,
      "v": 100
    },
    {
      "midi": 66,
      "hit": false,
      "t": 91384.32600000044,
      "d": 230.7685000000056,
      "v": 100
    },
    {
      "midi": 47,
      "hit": false,
      "t": 91615.09450000044,
      "d": 230.7685000000056,
      "v": 110
    },
    {
      "midi": 59,
      "hit": false,
      "t": 91615.09450000044,
      "d": 230.7685000000056,
      "v": 100
    },
    {
      "midi": 63,
      "hit": false,
      "t": 91615.09450000044,
      "d": 230.7685000000056,
      "v": 100
    },
    {
      "midi": 66,
      "hit": false,
      "t": 91615.09450000044,
      "d": 230.7685000000056,
      "v": 100
    },
    {
      "midi": 47,
      "hit": false,
      "t": 91845.86300000045,
      "d": 230.7685000000056,
      "v": 110
    },
    {
      "midi": 59,
      "hit": false,
      "t": 91845.86300000045,
      "d": 230.7685000000056,
      "v": 100
    },
    {
      "midi": 63,
      "hit": false,
      "t": 91845.86300000045,
      "d": 230.7685000000056,
      "v": 100
    },
    {
      "midi": 66,
      "hit": false,
      "t": 91845.86300000045,
      "d": 230.7685000000056,
      "v": 100
    },
    {
      "midi": 47,
      "hit": false,
      "t": 92076.63150000045,
      "d": 230.7685000000056,
      "v": 110
    },
    {
      "midi": 59,
      "hit": false,
      "t": 92076.63150000045,
      "d": 230.7685000000056,
      "v": 100
    },
    {
      "midi": 63,
      "hit": false,
      "t": 92076.63150000045,
      "d": 230.7685000000056,
      "v": 100
    },
    {
      "midi": 66,
      "hit": false,
      "t": 92076.63150000045,
      "d": 230.7685000000056,
      "v": 100
    },
    {
      "midi": 42,
      "hit": false,
      "t": 92307.40000000046,
      "d": 230.7685000000056,
      "v": 110
    },
    {
      "midi": 57,
      "hit": false,
      "t": 92307.40000000046,
      "d": 230.7685000000056,
      "v": 100
    },
    {
      "midi": 61,
      "hit": false,
      "t": 92307.40000000046,
      "d": 230.7685000000056,
      "v": 100
    },
    {
      "midi": 66,
      "hit": false,
      "t": 92307.40000000046,
      "d": 230.7685000000056,
      "v": 100
    },
    {
      "midi": 42,
      "hit": false,
      "t": 92538.16850000047,
      "d": 230.7685000000056,
      "v": 110
    },
    {
      "midi": 57,
      "hit": false,
      "t": 92538.16850000047,
      "d": 230.7685000000056,
      "v": 100
    },
    {
      "midi": 61,
      "hit": false,
      "t": 92538.16850000047,
      "d": 230.7685000000056,
      "v": 100
    },
    {
      "midi": 66,
      "hit": false,
      "t": 92538.16850000047,
      "d": 230.7685000000056,
      "v": 100
    },
    {
      "midi": 42,
      "hit": false,
      "t": 92768.93700000047,
      "d": 230.7685000000056,
      "v": 110
    },
    {
      "midi": 57,
      "hit": false,
      "t": 92768.93700000047,
      "d": 230.7685000000056,
      "v": 100
    },
    {
      "midi": 61,
      "hit": false,
      "t": 92768.93700000047,
      "d": 230.7685000000056,
      "v": 100
    },
    {
      "midi": 66,
      "hit": false,
      "t": 92768.93700000047,
      "d": 230.7685000000056,
      "v": 100
    },
    {
      "midi": 42,
      "hit": false,
      "t": 92999.70550000048,
      "d": 230.7685000000056,
      "v": 110
    },
    {
      "midi": 57,
      "hit": false,
      "t": 92999.70550000048,
      "d": 230.7685000000056,
      "v": 100
    },
    {
      "midi": 61,
      "hit": false,
      "t": 92999.70550000048,
      "d": 230.7685000000056,
      "v": 100
    },
    {
      "midi": 66,
      "hit": false,
      "t": 92999.70550000048,
      "d": 230.7685000000056,
      "v": 100
    },
    {
      "midi": 42,
      "hit": false,
      "t": 93230.47400000048,
      "d": 230.7685000000056,
      "v": 110
    },
    {
      "midi": 57,
      "hit": false,
      "t": 93230.47400000048,
      "d": 230.7685000000056,
      "v": 100
    },
    {
      "midi": 61,
      "hit": false,
      "t": 93230.47400000048,
      "d": 230.7685000000056,
      "v": 100
    },
    {
      "midi": 66,
      "hit": false,
      "t": 93230.47400000048,
      "d": 230.7685000000056,
      "v": 100
    },
    {
      "midi": 42,
      "hit": false,
      "t": 93461.24250000049,
      "d": 230.7685000000056,
      "v": 110
    },
    {
      "midi": 57,
      "hit": false,
      "t": 93461.24250000049,
      "d": 230.7685000000056,
      "v": 100
    },
    {
      "midi": 61,
      "hit": false,
      "t": 93461.24250000049,
      "d": 230.7685000000056,
      "v": 100
    },
    {
      "midi": 66,
      "hit": false,
      "t": 93461.24250000049,
      "d": 230.7685000000056,
      "v": 100
    },
    {
      "midi": 42,
      "hit": false,
      "t": 93692.0110000005,
      "d": 230.7685000000056,
      "v": 110
    },
    {
      "midi": 57,
      "hit": false,
      "t": 93692.0110000005,
      "d": 230.7685000000056,
      "v": 100
    },
    {
      "midi": 61,
      "hit": false,
      "t": 93692.0110000005,
      "d": 230.7685000000056,
      "v": 100
    },
    {
      "midi": 66,
      "hit": false,
      "t": 93692.0110000005,
      "d": 230.7685000000056,
      "v": 100
    },
    {
      "midi": 42,
      "hit": false,
      "t": 93922.7795000005,
      "d": 230.7685000000056,
      "v": 110
    },
    {
      "midi": 57,
      "hit": false,
      "t": 93922.7795000005,
      "d": 230.7685000000056,
      "v": 100
    },
    {
      "midi": 61,
      "hit": false,
      "t": 93922.7795000005,
      "d": 230.7685000000056,
      "v": 100
    },
    {
      "midi": 66,
      "hit": false,
      "t": 93922.7795000005,
      "d": 230.7685000000056,
      "v": 100
    },
    {
      "midi": 50,
      "hit": false,
      "t": 94153.5480000005,
      "d": 230.7685000000056,
      "v": 110
    },
    {
      "midi": 57,
      "hit": false,
      "t": 94153.5480000005,
      "d": 230.7685000000056,
      "v": 100
    },
    {
      "midi": 62,
      "hit": false,
      "t": 94153.5480000005,
      "d": 230.7685000000056,
      "v": 100
    },
    {
      "midi": 66,
      "hit": false,
      "t": 94153.5480000005,
      "d": 230.7685000000056,
      "v": 100
    },
    {
      "midi": 50,
      "hit": false,
      "t": 94384.31650000051,
      "d": 230.7685000000056,
      "v": 110
    },
    {
      "midi": 57,
      "hit": false,
      "t": 94384.31650000051,
      "d": 230.7685000000056,
      "v": 100
    },
    {
      "midi": 62,
      "hit": false,
      "t": 94384.31650000051,
      "d": 230.7685000000056,
      "v": 100
    },
    {
      "midi": 66,
      "hit": false,
      "t": 94384.31650000051,
      "d": 230.7685000000056,
      "v": 100
    },
    {
      "midi": 50,
      "hit": false,
      "t": 94615.08500000052,
      "d": 230.7685000000056,
      "v": 110
    },
    {
      "midi": 57,
      "hit": false,
      "t": 94615.08500000052,
      "d": 230.7685000000056,
      "v": 100
    },
    {
      "midi": 62,
      "hit": false,
      "t": 94615.08500000052,
      "d": 230.7685000000056,
      "v": 100
    },
    {
      "midi": 66,
      "hit": false,
      "t": 94615.08500000052,
      "d": 230.7685000000056,
      "v": 100
    },
    {
      "midi": 50,
      "hit": false,
      "t": 94845.85350000052,
      "d": 230.7685000000056,
      "v": 110
    },
    {
      "midi": 57,
      "hit": false,
      "t": 94845.85350000052,
      "d": 230.7685000000056,
      "v": 100
    },
    {
      "midi": 62,
      "hit": false,
      "t": 94845.85350000052,
      "d": 230.7685000000056,
      "v": 100
    },
    {
      "midi": 66,
      "hit": false,
      "t": 94845.85350000052,
      "d": 230.7685000000056,
      "v": 100
    },
    {
      "midi": 50,
      "hit": false,
      "t": 95076.62200000053,
      "d": 230.7685000000056,
      "v": 110
    },
    {
      "midi": 57,
      "hit": false,
      "t": 95076.62200000053,
      "d": 230.7685000000056,
      "v": 100
    },
    {
      "midi": 62,
      "hit": false,
      "t": 95076.62200000053,
      "d": 230.7685000000056,
      "v": 100
    },
    {
      "midi": 66,
      "hit": false,
      "t": 95076.62200000053,
      "d": 230.7685000000056,
      "v": 100
    },
    {
      "midi": 50,
      "hit": false,
      "t": 95307.39050000053,
      "d": 230.7685000000056,
      "v": 110
    },
    {
      "midi": 57,
      "hit": false,
      "t": 95307.39050000053,
      "d": 230.7685000000056,
      "v": 100
    },
    {
      "midi": 62,
      "hit": false,
      "t": 95307.39050000053,
      "d": 230.7685000000056,
      "v": 100
    },
    {
      "midi": 66,
      "hit": false,
      "t": 95307.39050000053,
      "d": 230.7685000000056,
      "v": 100
    },
    {
      "midi": 50,
      "hit": false,
      "t": 95538.15900000054,
      "d": 230.7685000000056,
      "v": 110
    },
    {
      "midi": 57,
      "hit": false,
      "t": 95538.15900000054,
      "d": 230.7685000000056,
      "v": 100
    },
    {
      "midi": 62,
      "hit": false,
      "t": 95538.15900000054,
      "d": 230.7685000000056,
      "v": 100
    },
    {
      "midi": 66,
      "hit": false,
      "t": 95538.15900000054,
      "d": 230.7685000000056,
      "v": 100
    },
    {
      "midi": 50,
      "hit": false,
      "t": 95768.92750000054,
      "d": 230.7685000000056,
      "v": 110
    },
    {
      "midi": 57,
      "hit": false,
      "t": 95768.92750000054,
      "d": 230.7685000000056,
      "v": 100
    },
    {
      "midi": 62,
      "hit": false,
      "t": 95768.92750000054,
      "d": 230.7685000000056,
      "v": 100
    },
    {
      "midi": 66,
      "hit": false,
      "t": 95768.92750000054,
      "d": 230.7685000000056,
      "v": 100
    },
    {
      "midi": 43,
      "hit": false,
      "t": 95999.69600000055,
      "d": 230.7685000000056,
      "v": 110
    },
    {
      "midi": 43,
      "hit": false,
      "t": 96230.46450000055,
      "d": 230.7685000000056,
      "v": 110
    },
    {
      "midi": 43,
      "hit": false,
      "t": 96461.23300000056,
      "d": 230.7685000000056,
      "v": 110
    },
    {
      "midi": 55,
      "hit": false,
      "t": 96461.23300000056,
      "d": 230.7685000000056,
      "v": 100
    },
    {
      "midi": 59,
      "hit": false,
      "t": 96461.23300000056,
      "d": 230.7685000000056,
      "v": 100
    },
    {
      "midi": 62,
      "hit": false,
      "t": 96461.23300000056,
      "d": 230.7685000000056,
      "v": 100
    },
    {
      "midi": 43,
      "hit": false,
      "t": 96692.00150000057,
      "d": 230.7685000000056,
      "v": 110
    },
    {
      "midi": 55,
      "hit": false,
      "t": 96692.00150000057,
      "d": 230.7685000000056,
      "v": 100
    },
    {
      "midi": 59,
      "hit": false,
      "t": 96692.00150000057,
      "d": 230.7685000000056,
      "v": 100
    },
    {
      "midi": 62,
      "hit": false,
      "t": 96692.00150000057,
      "d": 230.7685000000056,
      "v": 100
    },
    {
      "midi": 43,
      "hit": false,
      "t": 96922.77000000057,
      "d": 230.7685000000056,
      "v": 110
    },
    {
      "midi": 43,
      "hit": false,
      "t": 97153.53850000058,
      "d": 230.7685000000056,
      "v": 110
    },
    {
      "midi": 43,
      "hit": false,
      "t": 97384.30700000058,
      "d": 230.7685000000056,
      "v": 110
    },
    {
      "midi": 55,
      "hit": false,
      "t": 97384.30700000058,
      "d": 230.7685000000056,
      "v": 100
    },
    {
      "midi": 59,
      "hit": false,
      "t": 97384.30700000058,
      "d": 230.7685000000056,
      "v": 100
    },
    {
      "midi": 62,
      "hit": false,
      "t": 97384.30700000058,
      "d": 230.7685000000056,
      "v": 100
    },
    {
      "midi": 43,
      "hit": false,
      "t": 97615.07550000059,
      "d": 230.7685000000056,
      "v": 110
    },
    {
      "midi": 55,
      "hit": false,
      "t": 97615.07550000059,
      "d": 230.7685000000056,
      "v": 100
    },
    {
      "midi": 59,
      "hit": false,
      "t": 97615.07550000059,
      "d": 230.7685000000056,
      "v": 100
    },
    {
      "midi": 62,
      "hit": false,
      "t": 97615.07550000059,
      "d": 230.7685000000056,
      "v": 100
    },
    {
      "midi": 48,
      "hit": false,
      "t": 97845.8440000006,
      "d": 230.7685000000056,
      "v": 110
    },
    {
      "midi": 48,
      "hit": false,
      "t": 98076.6125000006,
      "d": 230.7685000000056,
      "v": 110
    },
    {
      "midi": 48,
      "hit": false,
      "t": 98307.3810000006,
      "d": 230.7685000000056,
      "v": 110
    },
    {
      "midi": 55,
      "hit": false,
      "t": 98307.3810000006,
      "d": 230.7685000000056,
      "v": 100
    },
    {
      "midi": 60,
      "hit": false,
      "t": 98307.3810000006,
      "d": 230.7685000000056,
      "v": 100
    },
    {
      "midi": 64,
      "hit": false,
      "t": 98307.3810000006,
      "d": 230.7685000000056,
      "v": 100
    },
    {
      "midi": 48,
      "hit": false,
      "t": 98538.14950000061,
      "d": 230.7685000000056,
      "v": 110
    },
    {
      "midi": 55,
      "hit": false,
      "t": 98538.14950000061,
      "d": 230.7685000000056,
      "v": 100
    },
    {
      "midi": 60,
      "hit": false,
      "t": 98538.14950000061,
      "d": 230.7685000000056,
      "v": 100
    },
    {
      "midi": 64,
      "hit": false,
      "t": 98538.14950000061,
      "d": 230.7685000000056,
      "v": 100
    },
    {
      "midi": 48,
      "hit": false,
      "t": 98768.91800000062,
      "d": 230.7685000000056,
      "v": 110
    },
    {
      "midi": 48,
      "hit": false,
      "t": 98999.68650000062,
      "d": 230.7685000000056,
      "v": 110
    },
    {
      "midi": 48,
      "hit": false,
      "t": 99230.45500000063,
      "d": 230.7685000000056,
      "v": 110
    },
    {
      "midi": 55,
      "hit": false,
      "t": 99230.45500000063,
      "d": 230.7685000000056,
      "v": 100
    },
    {
      "midi": 60,
      "hit": false,
      "t": 99230.45500000063,
      "d": 230.7685000000056,
      "v": 100
    },
    {
      "midi": 64,
      "hit": false,
      "t": 99230.45500000063,
      "d": 230.7685000000056,
      "v": 100
    },
    {
      "midi": 48,
      "hit": false,
      "t": 99461.22350000063,
      "d": 230.7685000000056,
      "v": 110
    },
    {
      "midi": 55,
      "hit": false,
      "t": 99461.22350000063,
      "d": 230.7685000000056,
      "v": 100
    },
    {
      "midi": 60,
      "hit": false,
      "t": 99461.22350000063,
      "d": 230.7685000000056,
      "v": 100
    },
    {
      "midi": 64,
      "hit": false,
      "t": 99461.22350000063,
      "d": 230.7685000000056,
      "v": 100
    },
    {
      "midi": 43,
      "hit": false,
      "t": 99691.99200000064,
      "d": 230.7685000000056,
      "v": 110
    },
    {
      "midi": 43,
      "hit": false,
      "t": 99922.76050000064,
      "d": 230.7685000000056,
      "v": 110
    },
    {
      "midi": 43,
      "hit": false,
      "t": 100153.52900000065,
      "d": 230.7685000000056,
      "v": 110
    },
    {
      "midi": 55,
      "hit": false,
      "t": 100153.52900000065,
      "d": 692.3055000000168,
      "v": 100
    },
    {
      "midi": 59,
      "hit": false,
      "t": 100153.52900000065,
      "d": 692.3055000000168,
      "v": 100
    },
    {
      "midi": 62,
      "hit": false,
      "t": 100153.52900000065,
      "d": 692.3055000000168,
      "v": 100
    },
    {
      "midi": 43,
      "hit": false,
      "t": 100384.29750000066,
      "d": 230.7685000000056,
      "v": 110
    },
    {
      "midi": 43,
      "hit": false,
      "t": 100615.06600000066,
      "d": 230.7685000000056,
      "v": 110
    },
    {
      "midi": 43,
      "hit": false,
      "t": 100845.83450000067,
      "d": 230.7685000000056,
      "v": 110
    },
    {
      "midi": 55,
      "hit": false,
      "t": 100845.83450000067,
      "d": 692.3055000000168,
      "v": 100
    },
    {
      "midi": 60,
      "hit": false,
      "t": 100845.83450000067,
      "d": 692.3055000000168,
      "v": 100
    },
    {
      "midi": 64,
      "hit": false,
      "t": 100845.83450000067,
      "d": 692.3055000000168,
      "v": 100
    },
    {
      "midi": 43,
      "hit": false,
      "t": 101076.60300000067,
      "d": 230.7685000000056,
      "v": 110
    },
    {
      "midi": 43,
      "hit": false,
      "t": 101307.37150000068,
      "d": 230.7685000000056,
      "v": 110
    },
    {
      "midi": 43,
      "hit": false,
      "t": 101538.14000000068,
      "d": 230.7685000000056,
      "v": 110
    },
    {
      "midi": 43,
      "hit": false,
      "t": 101768.90850000069,
      "d": 230.7685000000056,
      "v": 110
    },
    {
      "midi": 43,
      "hit": false,
      "t": 101999.6770000007,
      "d": 230.7685000000056,
      "v": 110
    },
    {
      "midi": 55,
      "hit": false,
      "t": 101999.6770000007,
      "d": 692.3055000000168,
      "v": 100
    },
    {
      "midi": 59,
      "hit": false,
      "t": 101999.6770000007,
      "d": 692.3055000000168,
      "v": 100
    },
    {
      "midi": 62,
      "hit": false,
      "t": 101999.6770000007,
      "d": 692.3055000000168,
      "v": 100
    },
    {
      "midi": 43,
      "hit": false,
      "t": 102230.4455000007,
      "d": 230.7685000000056,
      "v": 110
    },
    {
      "midi": 43,
      "hit": false,
      "t": 102461.2140000007,
      "d": 230.7685000000056,
      "v": 110
    },
    {
      "midi": 43,
      "hit": false,
      "t": 102691.98250000071,
      "d": 230.7685000000056,
      "v": 110
    },
    {
      "midi": 55,
      "hit": false,
      "t": 102691.98250000071,
      "d": 461.5370000000112,
      "v": 100
    },
    {
      "midi": 60,
      "hit": false,
      "t": 102691.98250000071,
      "d": 461.5370000000112,
      "v": 100
    },
    {
      "midi": 64,
      "hit": false,
      "t": 102691.98250000071,
      "d": 461.5370000000112,
      "v": 100
    },
    {
      "midi": 43,
      "hit": false,
      "t": 102922.75100000072,
      "d": 230.7685000000056,
      "v": 110
    },
    {
      "midi": 43,
      "hit": false,
      "t": 103153.51950000072,
      "d": 230.7685000000056,
      "v": 110
    },
    {
      "midi": 55,
      "hit": false,
      "t": 103153.51950000072,
      "d": 230.7685000000056,
      "v": 100
    },
    {
      "midi": 62,
      "hit": false,
      "t": 103153.51950000072,
      "d": 230.7685000000056,
      "v": 100
    },
    {
      "midi": 65,
      "hit": false,
      "t": 103153.51950000072,
      "d": 230.7685000000056,
      "v": 100
    },
    {
      "midi": 43,
      "hit": false,
      "t": 103384.28800000073,
      "d": 230.7685000000056,
      "v": 110
    },
    {
      "midi": 43,
      "hit": false,
      "t": 103615.05650000073,
      "d": 230.7685000000056,
      "v": 110
    },
    {
      "midi": 43,
      "hit": false,
      "t": 103845.82500000074,
      "d": 230.7685000000056,
      "v": 110
    },
    {
      "midi": 55,
      "hit": false,
      "t": 103845.82500000074,
      "d": 692.3055000000168,
      "v": 100
    },
    {
      "midi": 59,
      "hit": false,
      "t": 103845.82500000074,
      "d": 692.3055000000168,
      "v": 100
    },
    {
      "midi": 62,
      "hit": false,
      "t": 103845.82500000074,
      "d": 692.3055000000168,
      "v": 100
    },
    {
      "midi": 43,
      "hit": false,
      "t": 104076.59350000074,
      "d": 230.7685000000056,
      "v": 110
    },
    {
      "midi": 43,
      "hit": false,
      "t": 104307.36200000075,
      "d": 230.7685000000056,
      "v": 110
    },
    {
      "midi": 43,
      "hit": false,
      "t": 104538.13050000076,
      "d": 230.7685000000056,
      "v": 110
    },
    {
      "midi": 55,
      "hit": false,
      "t": 104538.13050000076,
      "d": 461.5370000000112,
      "v": 100
    },
    {
      "midi": 60,
      "hit": false,
      "t": 104538.13050000076,
      "d": 461.5370000000112,
      "v": 100
    },
    {
      "midi": 64,
      "hit": false,
      "t": 104538.13050000076,
      "d": 461.5370000000112,
      "v": 100
    },
    {
      "midi": 43,
      "hit": false,
      "t": 104768.89900000076,
      "d": 230.7685000000056,
      "v": 110
    },
    {
      "midi": 43,
      "hit": false,
      "t": 104999.66750000077,
      "d": 230.7685000000056,
      "v": 110
    },
    {
      "midi": 55,
      "hit": false,
      "t": 104999.66750000077,
      "d": 230.7685000000056,
      "v": 100
    },
    {
      "midi": 59,
      "hit": false,
      "t": 104999.66750000077,
      "d": 230.7685000000056,
      "v": 100
    },
    {
      "midi": 62,
      "hit": false,
      "t": 104999.66750000077,
      "d": 230.7685000000056,
      "v": 100
    },
    {
      "midi": 48,
      "hit": false,
      "t": 105230.43600000077,
      "d": 230.7685000000056,
      "v": 110
    },
    {
      "midi": 48,
      "hit": false,
      "t": 105461.20450000078,
      "d": 230.7685000000056,
      "v": 110
    },
    {
      "midi": 48,
      "hit": false,
      "t": 105691.97300000078,
      "d": 230.7685000000056,
      "v": 110
    },
    {
      "midi": 55,
      "hit": false,
      "t": 105691.97300000078,
      "d": 692.3055000000168,
      "v": 100
    },
    {
      "midi": 60,
      "hit": false,
      "t": 105691.97300000078,
      "d": 692.3055000000168,
      "v": 100
    },
    {
      "midi": 64,
      "hit": false,
      "t": 105691.97300000078,
      "d": 692.3055000000168,
      "v": 100
    },
    {
      "midi": 48,
      "hit": false,
      "t": 105922.74150000079,
      "d": 230.7685000000056,
      "v": 110
    },
    {
      "midi": 48,
      "hit": false,
      "t": 106153.5100000008,
      "d": 230.7685000000056,
      "v": 110
    },
    {
      "midi": 48,
      "hit": false,
      "t": 106384.2785000008,
      "d": 230.7685000000056,
      "v": 110
    },
    {
      "midi": 55,
      "hit": false,
      "t": 106384.2785000008,
      "d": 461.5370000000112,
      "v": 100
    },
    {
      "midi": 60,
      "hit": false,
      "t": 106384.2785000008,
      "d": 461.5370000000112,
      "v": 100
    },
    {
      "midi": 64,
      "hit": false,
      "t": 106384.2785000008,
      "d": 461.5370000000112,
      "v": 100
    },
    {
      "midi": 48,
      "hit": false,
      "t": 106615.0470000008,
      "d": 230.7685000000056,
      "v": 110
    },
    {
      "midi": 48,
      "hit": false,
      "t": 106845.81550000081,
      "d": 230.7685000000056,
      "v": 110
    },
    {
      "midi": 55,
      "hit": false,
      "t": 106845.81550000081,
      "d": 230.7685000000056,
      "v": 100
    },
    {
      "midi": 60,
      "hit": false,
      "t": 106845.81550000081,
      "d": 230.7685000000056,
      "v": 100
    },
    {
      "midi": 64,
      "hit": false,
      "t": 106845.81550000081,
      "d": 230.7685000000056,
      "v": 100
    },
    {
      "midi": 53,
      "hit": false,
      "t": 107076.58400000082,
      "d": 230.7685000000056,
      "v": 110
    },
    {
      "midi": 57,
      "hit": false,
      "t": 107076.58400000082,
      "d": 230.7685000000056,
      "v": 100
    },
    {
      "midi": 60,
      "hit": false,
      "t": 107076.58400000082,
      "d": 230.7685000000056,
      "v": 100
    },
    {
      "midi": 65,
      "hit": false,
      "t": 107076.58400000082,
      "d": 230.7685000000056,
      "v": 100
    },
    {
      "midi": 53,
      "hit": false,
      "t": 107307.35250000082,
      "d": 230.7685000000056,
      "v": 110
    },
    {
      "midi": 57,
      "hit": false,
      "t": 107307.35250000082,
      "d": 230.7685000000056,
      "v": 100
    },
    {
      "midi": 60,
      "hit": false,
      "t": 107307.35250000082,
      "d": 230.7685000000056,
      "v": 100
    },
    {
      "midi": 65,
      "hit": false,
      "t": 107307.35250000082,
      "d": 230.7685000000056,
      "v": 100
    },
    {
      "midi": 53,
      "hit": false,
      "t": 107538.12100000083,
      "d": 230.7685000000056,
      "v": 110
    },
    {
      "midi": 57,
      "hit": false,
      "t": 107538.12100000083,
      "d": 230.7685000000056,
      "v": 100
    },
    {
      "midi": 60,
      "hit": false,
      "t": 107538.12100000083,
      "d": 230.7685000000056,
      "v": 100
    },
    {
      "midi": 65,
      "hit": false,
      "t": 107538.12100000083,
      "d": 230.7685000000056,
      "v": 100
    },
    {
      "midi": 53,
      "hit": false,
      "t": 107768.88950000083,
      "d": 230.7685000000056,
      "v": 110
    },
    {
      "midi": 57,
      "hit": false,
      "t": 107768.88950000083,
      "d": 230.7685000000056,
      "v": 100
    },
    {
      "midi": 60,
      "hit": false,
      "t": 107768.88950000083,
      "d": 230.7685000000056,
      "v": 100
    },
    {
      "midi": 65,
      "hit": false,
      "t": 107768.88950000083,
      "d": 230.7685000000056,
      "v": 100
    },
    {
      "midi": 53,
      "hit": false,
      "t": 107999.65800000084,
      "d": 230.7685000000056,
      "v": 110
    },
    {
      "midi": 57,
      "hit": false,
      "t": 107999.65800000084,
      "d": 230.7685000000056,
      "v": 100
    },
    {
      "midi": 60,
      "hit": false,
      "t": 107999.65800000084,
      "d": 230.7685000000056,
      "v": 100
    },
    {
      "midi": 65,
      "hit": false,
      "t": 107999.65800000084,
      "d": 230.7685000000056,
      "v": 100
    },
    {
      "midi": 53,
      "hit": false,
      "t": 108230.42650000085,
      "d": 230.7685000000056,
      "v": 110
    },
    {
      "midi": 57,
      "hit": false,
      "t": 108230.42650000085,
      "d": 230.7685000000056,
      "v": 100
    },
    {
      "midi": 60,
      "hit": false,
      "t": 108230.42650000085,
      "d": 230.7685000000056,
      "v": 100
    },
    {
      "midi": 65,
      "hit": false,
      "t": 108230.42650000085,
      "d": 230.7685000000056,
      "v": 100
    },
    {
      "midi": 53,
      "hit": false,
      "t": 108461.19500000085,
      "d": 230.7685000000056,
      "v": 110
    },
    {
      "midi": 57,
      "hit": false,
      "t": 108461.19500000085,
      "d": 230.7685000000056,
      "v": 100
    },
    {
      "midi": 60,
      "hit": false,
      "t": 108461.19500000085,
      "d": 230.7685000000056,
      "v": 100
    },
    {
      "midi": 65,
      "hit": false,
      "t": 108461.19500000085,
      "d": 230.7685000000056,
      "v": 100
    },
    {
      "midi": 53,
      "hit": false,
      "t": 108691.96350000086,
      "d": 230.7685000000056,
      "v": 110
    },
    {
      "midi": 57,
      "hit": false,
      "t": 108691.96350000086,
      "d": 230.7685000000056,
      "v": 100
    },
    {
      "midi": 60,
      "hit": false,
      "t": 108691.96350000086,
      "d": 230.7685000000056,
      "v": 100
    },
    {
      "midi": 65,
      "hit": false,
      "t": 108691.96350000086,
      "d": 230.7685000000056,
      "v": 100
    },
    {
      "midi": 52,
      "hit": false,
      "t": 108922.73200000086,
      "d": 230.7685000000056,
      "v": 110
    },
    {
      "midi": 52,
      "hit": false,
      "t": 109153.50050000087,
      "d": 692.3055000000022,
      "v": 110
    },
    {
      "midi": 47,
      "hit": false,
      "t": 109845.80600000087,
      "d": 230.7685000000056,
      "v": 110
    },
    {
      "midi": 47,
      "hit": false,
      "t": 110076.57450000088,
      "d": 692.3055000000022,
      "v": 110
    },
    {
      "midi": 44,
      "hit": false,
      "t": 110768.88000000088,
      "d": 230.7685000000056,
      "v": 110
    },
    {
      "midi": 44,
      "hit": false,
      "t": 110999.64850000088,
      "d": 692.3055000000022,
      "v": 110
    },
    {
      "midi": 44,
      "hit": false,
      "t": 111691.95400000089,
      "d": 230.7685000000056,
      "v": 110
    },
    {
      "midi": 44,
      "hit": false,
      "t": 111922.72250000089,
      "d": 692.3055000000022,
      "v": 110
    },
    {
      "midi": 42,
      "hit": false,
      "t": 112615.0280000009,
      "d": 230.7685000000056,
      "v": 110
    },
    {
      "midi": 42,
      "hit": false,
      "t": 112845.7965000009,
      "d": 692.3055000000022,
      "v": 110
    },
    {
      "midi": 42,
      "hit": false,
      "t": 113538.1020000009,
      "d": 230.7685000000056,
      "v": 110
    },
    {
      "midi": 42,
      "hit": false,
      "t": 113768.8705000009,
      "d": 692.3055000000022,
      "v": 110
    },
    {
      "midi": 47,
      "hit": false,
      "t": 114461.17600000091,
      "d": 230.7685000000056,
      "v": 110
    },
    {
      "midi": 47,
      "hit": false,
      "t": 114691.94450000091,
      "d": 692.3055000000022,
      "v": 110
    },
    {
      "midi": 47,
      "hit": false,
      "t": 115384.25000000092,
      "d": 230.7685000000056,
      "v": 110
    },
    {
      "midi": 47,
      "hit": false,
      "t": 115615.01850000092,
      "d": 230.7685000000056,
      "v": 110
    },
    {
      "midi": 49,
      "hit": false,
      "t": 115845.78700000093,
      "d": 230.7685000000056,
      "v": 110
    },
    {
      "midi": 51,
      "hit": false,
      "t": 116076.55550000093,
      "d": 230.7685000000056,
      "v": 110
    },
    {
      "midi": 52,
      "hit": false,
      "t": 116307.32400000094,
      "d": 230.7685000000056,
      "v": 110
    },
    {
      "midi": 52,
      "hit": false,
      "t": 116538.09250000094,
      "d": 692.3055000000022,
      "v": 110
    },
    {
      "midi": 47,
      "hit": false,
      "t": 117230.39800000095,
      "d": 230.7685000000056,
      "v": 110
    },
    {
      "midi": 47,
      "hit": false,
      "t": 117461.16650000095,
      "d": 692.3055000000022,
      "v": 110
    },
    {
      "midi": 44,
      "hit": false,
      "t": 118153.47200000095,
      "d": 230.7685000000056,
      "v": 110
    },
    {
      "midi": 44,
      "hit": false,
      "t": 118384.24050000096,
      "d": 692.3055000000022,
      "v": 110
    },
    {
      "midi": 44,
      "hit": false,
      "t": 119076.54600000096,
      "d": 230.7685000000056,
      "v": 110
    },
    {
      "midi": 44,
      "hit": false,
      "t": 119307.31450000097,
      "d": 692.3055000000022,
      "v": 110
    },
    {
      "midi": 42,
      "hit": false,
      "t": 119999.62000000097,
      "d": 230.7685000000056,
      "v": 110
    },
    {
      "midi": 42,
      "hit": false,
      "t": 120230.38850000098,
      "d": 692.3055000000022,
      "v": 110
    },
    {
      "midi": 42,
      "hit": false,
      "t": 120922.69400000098,
      "d": 230.7685000000056,
      "v": 110
    },
    {
      "midi": 42,
      "hit": false,
      "t": 121153.46250000098,
      "d": 692.3055000000022,
      "v": 110
    },
    {
      "midi": 47,
      "hit": false,
      "t": 121845.76800000099,
      "d": 230.7685000000056,
      "v": 110
    },
    {
      "midi": 47,
      "hit": false,
      "t": 122076.53650000099,
      "d": 692.3055000000022,
      "v": 110
    },
    {
      "midi": 47,
      "hit": false,
      "t": 122768.842000001,
      "d": 230.7685000000056,
      "v": 110
    },
    {
      "midi": 47,
      "hit": false,
      "t": 122999.610500001,
      "d": 230.7685000000056,
      "v": 110
    },
    {
      "midi": 49,
      "hit": false,
      "t": 123230.379000001,
      "d": 230.7685000000056,
      "v": 110
    },
    {
      "midi": 51,
      "hit": false,
      "t": 123461.14750000101,
      "d": 230.7685000000056,
      "v": 110
    },
    {
      "midi": 52,
      "hit": false,
      "t": 123691.91600000102,
      "d": 230.7685000000056,
      "v": 110
    },
    {
      "midi": 59,
      "hit": false,
      "t": 123691.91600000102,
      "d": 230.7685000000056,
      "v": 100
    },
    {
      "midi": 64,
      "hit": false,
      "t": 123691.91600000102,
      "d": 230.7685000000056,
      "v": 100
    },
    {
      "midi": 68,
      "hit": false,
      "t": 123691.91600000102,
      "d": 230.7685000000056,
      "v": 100
    },
    {
      "midi": 52,
      "hit": false,
      "t": 123922.68450000102,
      "d": 230.7685000000056,
      "v": 110
    },
    {
      "midi": 59,
      "hit": false,
      "t": 123922.68450000102,
      "d": 230.7685000000056,
      "v": 100
    },
    {
      "midi": 64,
      "hit": false,
      "t": 123922.68450000102,
      "d": 230.7685000000056,
      "v": 100
    },
    {
      "midi": 68,
      "hit": false,
      "t": 123922.68450000102,
      "d": 230.7685000000056,
      "v": 100
    },
    {
      "midi": 52,
      "hit": false,
      "t": 124153.45300000103,
      "d": 230.7685000000056,
      "v": 110
    },
    {
      "midi": 59,
      "hit": false,
      "t": 124153.45300000103,
      "d": 230.7685000000056,
      "v": 100
    },
    {
      "midi": 64,
      "hit": false,
      "t": 124153.45300000103,
      "d": 230.7685000000056,
      "v": 100
    },
    {
      "midi": 68,
      "hit": false,
      "t": 124153.45300000103,
      "d": 230.7685000000056,
      "v": 100
    },
    {
      "midi": 52,
      "hit": false,
      "t": 124384.22150000103,
      "d": 230.7685000000056,
      "v": 110
    },
    {
      "midi": 59,
      "hit": false,
      "t": 124384.22150000103,
      "d": 230.7685000000056,
      "v": 100
    },
    {
      "midi": 64,
      "hit": false,
      "t": 124384.22150000103,
      "d": 230.7685000000056,
      "v": 100
    },
    {
      "midi": 68,
      "hit": false,
      "t": 124384.22150000103,
      "d": 230.7685000000056,
      "v": 100
    },
    {
      "midi": 52,
      "hit": false,
      "t": 124614.99000000104,
      "d": 230.7685000000056,
      "v": 110
    },
    {
      "midi": 59,
      "hit": false,
      "t": 124614.99000000104,
      "d": 230.7685000000056,
      "v": 100
    },
    {
      "midi": 64,
      "hit": false,
      "t": 124614.99000000104,
      "d": 230.7685000000056,
      "v": 100
    },
    {
      "midi": 68,
      "hit": false,
      "t": 124614.99000000104,
      "d": 230.7685000000056,
      "v": 100
    },
    {
      "midi": 52,
      "hit": false,
      "t": 124845.75850000104,
      "d": 230.7685000000056,
      "v": 110
    },
    {
      "midi": 59,
      "hit": false,
      "t": 124845.75850000104,
      "d": 230.7685000000056,
      "v": 100
    },
    {
      "midi": 64,
      "hit": false,
      "t": 124845.75850000104,
      "d": 230.7685000000056,
      "v": 100
    },
    {
      "midi": 68,
      "hit": false,
      "t": 124845.75850000104,
      "d": 230.7685000000056,
      "v": 100
    },
    {
      "midi": 52,
      "hit": false,
      "t": 125076.52700000105,
      "d": 230.7685000000056,
      "v": 110
    },
    {
      "midi": 59,
      "hit": false,
      "t": 125076.52700000105,
      "d": 230.7685000000056,
      "v": 100
    },
    {
      "midi": 64,
      "hit": false,
      "t": 125076.52700000105,
      "d": 230.7685000000056,
      "v": 100
    },
    {
      "midi": 68,
      "hit": false,
      "t": 125076.52700000105,
      "d": 230.7685000000056,
      "v": 100
    },
    {
      "midi": 52,
      "hit": false,
      "t": 125307.29550000106,
      "d": 230.7685000000056,
      "v": 110
    },
    {
      "midi": 59,
      "hit": false,
      "t": 125307.29550000106,
      "d": 230.7685000000056,
      "v": 100
    },
    {
      "midi": 64,
      "hit": false,
      "t": 125307.29550000106,
      "d": 230.7685000000056,
      "v": 100
    },
    {
      "midi": 68,
      "hit": false,
      "t": 125307.29550000106,
      "d": 230.7685000000056,
      "v": 100
    },
    {
      "midi": 49,
      "hit": false,
      "t": 125538.06400000106,
      "d": 230.7685000000056,
      "v": 110
    },
    {
      "midi": 61,
      "hit": false,
      "t": 125538.06400000106,
      "d": 230.7685000000056,
      "v": 100
    },
    {
      "midi": 64,
      "hit": false,
      "t": 125538.06400000106,
      "d": 230.7685000000056,
      "v": 100
    },
    {
      "midi": 68,
      "hit": false,
      "t": 125538.06400000106,
      "d": 230.7685000000056,
      "v": 100
    },
    {
      "midi": 49,
      "hit": false,
      "t": 125768.83250000107,
      "d": 230.7685000000056,
      "v": 110
    },
    {
      "midi": 61,
      "hit": false,
      "t": 125768.83250000107,
      "d": 230.7685000000056,
      "v": 100
    },
    {
      "midi": 64,
      "hit": false,
      "t": 125768.83250000107,
      "d": 230.7685000000056,
      "v": 100
    },
    {
      "midi": 68,
      "hit": false,
      "t": 125768.83250000107,
      "d": 230.7685000000056,
      "v": 100
    },
    {
      "midi": 49,
      "hit": false,
      "t": 125999.60100000107,
      "d": 230.7685000000056,
      "v": 110
    },
    {
      "midi": 61,
      "hit": false,
      "t": 125999.60100000107,
      "d": 230.7685000000056,
      "v": 100
    },
    {
      "midi": 64,
      "hit": false,
      "t": 125999.60100000107,
      "d": 230.7685000000056,
      "v": 100
    },
    {
      "midi": 68,
      "hit": false,
      "t": 125999.60100000107,
      "d": 230.7685000000056,
      "v": 100
    },
    {
      "midi": 49,
      "hit": false,
      "t": 126230.36950000108,
      "d": 230.7685000000056,
      "v": 110
    },
    {
      "midi": 61,
      "hit": false,
      "t": 126230.36950000108,
      "d": 230.7685000000056,
      "v": 100
    },
    {
      "midi": 64,
      "hit": false,
      "t": 126230.36950000108,
      "d": 230.7685000000056,
      "v": 100
    },
    {
      "midi": 68,
      "hit": false,
      "t": 126230.36950000108,
      "d": 230.7685000000056,
      "v": 100
    },
    {
      "midi": 49,
      "hit": false,
      "t": 126461.13800000108,
      "d": 230.7685000000056,
      "v": 110
    },
    {
      "midi": 61,
      "hit": false,
      "t": 126461.13800000108,
      "d": 230.7685000000056,
      "v": 100
    },
    {
      "midi": 64,
      "hit": false,
      "t": 126461.13800000108,
      "d": 230.7685000000056,
      "v": 100
    },
    {
      "midi": 68,
      "hit": false,
      "t": 126461.13800000108,
      "d": 230.7685000000056,
      "v": 100
    },
    {
      "midi": 49,
      "hit": false,
      "t": 126691.90650000109,
      "d": 230.7685000000056,
      "v": 110
    },
    {
      "midi": 61,
      "hit": false,
      "t": 126691.90650000109,
      "d": 230.7685000000056,
      "v": 100
    },
    {
      "midi": 64,
      "hit": false,
      "t": 126691.90650000109,
      "d": 230.7685000000056,
      "v": 100
    },
    {
      "midi": 68,
      "hit": false,
      "t": 126691.90650000109,
      "d": 230.7685000000056,
      "v": 100
    },
    {
      "midi": 49,
      "hit": false,
      "t": 126922.6750000011,
      "d": 230.7685000000056,
      "v": 110
    },
    {
      "midi": 61,
      "hit": false,
      "t": 126922.6750000011,
      "d": 230.7685000000056,
      "v": 100
    },
    {
      "midi": 64,
      "hit": false,
      "t": 126922.6750000011,
      "d": 230.7685000000056,
      "v": 100
    },
    {
      "midi": 68,
      "hit": false,
      "t": 126922.6750000011,
      "d": 230.7685000000056,
      "v": 100
    },
    {
      "midi": 49,
      "hit": false,
      "t": 127153.4435000011,
      "d": 230.7685000000056,
      "v": 110
    },
    {
      "midi": 61,
      "hit": false,
      "t": 127153.4435000011,
      "d": 230.7685000000056,
      "v": 100
    },
    {
      "midi": 64,
      "hit": false,
      "t": 127153.4435000011,
      "d": 230.7685000000056,
      "v": 100
    },
    {
      "midi": 68,
      "hit": false,
      "t": 127153.4435000011,
      "d": 230.7685000000056,
      "v": 100
    },
    {
      "midi": 42,
      "hit": false,
      "t": 127384.2120000011,
      "d": 230.7685000000056,
      "v": 110
    },
    {
      "midi": 57,
      "hit": false,
      "t": 127384.2120000011,
      "d": 230.7685000000056,
      "v": 100
    },
    {
      "midi": 61,
      "hit": false,
      "t": 127384.2120000011,
      "d": 230.7685000000056,
      "v": 100
    },
    {
      "midi": 66,
      "hit": false,
      "t": 127384.2120000011,
      "d": 230.7685000000056,
      "v": 100
    },
    {
      "midi": 42,
      "hit": false,
      "t": 127614.98050000111,
      "d": 230.7685000000056,
      "v": 110
    },
    {
      "midi": 57,
      "hit": false,
      "t": 127614.98050000111,
      "d": 230.7685000000056,
      "v": 100
    },
    {
      "midi": 61,
      "hit": false,
      "t": 127614.98050000111,
      "d": 230.7685000000056,
      "v": 100
    },
    {
      "midi": 66,
      "hit": false,
      "t": 127614.98050000111,
      "d": 230.7685000000056,
      "v": 100
    },
    {
      "midi": 42,
      "hit": false,
      "t": 127845.74900000112,
      "d": 230.7685000000056,
      "v": 110
    },
    {
      "midi": 57,
      "hit": false,
      "t": 127845.74900000112,
      "d": 230.7685000000056,
      "v": 100
    },
    {
      "midi": 61,
      "hit": false,
      "t": 127845.74900000112,
      "d": 230.7685000000056,
      "v": 100
    },
    {
      "midi": 66,
      "hit": false,
      "t": 127845.74900000112,
      "d": 230.7685000000056,
      "v": 100
    },
    {
      "midi": 42,
      "hit": false,
      "t": 128076.51750000112,
      "d": 230.7685000000056,
      "v": 110
    },
    {
      "midi": 57,
      "hit": false,
      "t": 128076.51750000112,
      "d": 230.7685000000056,
      "v": 100
    },
    {
      "midi": 61,
      "hit": false,
      "t": 128076.51750000112,
      "d": 230.7685000000056,
      "v": 100
    },
    {
      "midi": 66,
      "hit": false,
      "t": 128076.51750000112,
      "d": 230.7685000000056,
      "v": 100
    },
    {
      "midi": 42,
      "hit": false,
      "t": 128307.28600000113,
      "d": 230.7685000000056,
      "v": 110
    },
    {
      "midi": 57,
      "hit": false,
      "t": 128307.28600000113,
      "d": 230.7685000000056,
      "v": 100
    },
    {
      "midi": 61,
      "hit": false,
      "t": 128307.28600000113,
      "d": 230.7685000000056,
      "v": 100
    },
    {
      "midi": 66,
      "hit": false,
      "t": 128307.28600000113,
      "d": 230.7685000000056,
      "v": 100
    },
    {
      "midi": 42,
      "hit": false,
      "t": 128538.05450000113,
      "d": 230.7685000000056,
      "v": 110
    },
    {
      "midi": 57,
      "hit": false,
      "t": 128538.05450000113,
      "d": 230.7685000000056,
      "v": 100
    },
    {
      "midi": 61,
      "hit": false,
      "t": 128538.05450000113,
      "d": 230.7685000000056,
      "v": 100
    },
    {
      "midi": 66,
      "hit": false,
      "t": 128538.05450000113,
      "d": 230.7685000000056,
      "v": 100
    },
    {
      "midi": 42,
      "hit": false,
      "t": 128768.82300000114,
      "d": 230.7685000000056,
      "v": 110
    },
    {
      "midi": 57,
      "hit": false,
      "t": 128768.82300000114,
      "d": 230.7685000000056,
      "v": 100
    },
    {
      "midi": 61,
      "hit": false,
      "t": 128768.82300000114,
      "d": 230.7685000000056,
      "v": 100
    },
    {
      "midi": 66,
      "hit": false,
      "t": 128768.82300000114,
      "d": 230.7685000000056,
      "v": 100
    },
    {
      "midi": 42,
      "hit": false,
      "t": 128999.59150000114,
      "d": 230.7685000000056,
      "v": 110
    },
    {
      "midi": 57,
      "hit": false,
      "t": 128999.59150000114,
      "d": 230.7685000000056,
      "v": 100
    },
    {
      "midi": 61,
      "hit": false,
      "t": 128999.59150000114,
      "d": 230.7685000000056,
      "v": 100
    },
    {
      "midi": 66,
      "hit": false,
      "t": 128999.59150000114,
      "d": 230.7685000000056,
      "v": 100
    },
    {
      "midi": 47,
      "hit": false,
      "t": 129230.36000000115,
      "d": 230.7685000000056,
      "v": 110
    },
    {
      "midi": 59,
      "hit": false,
      "t": 129230.36000000115,
      "d": 230.7685000000056,
      "v": 100
    },
    {
      "midi": 63,
      "hit": false,
      "t": 129230.36000000115,
      "d": 230.7685000000056,
      "v": 100
    },
    {
      "midi": 66,
      "hit": false,
      "t": 129230.36000000115,
      "d": 230.7685000000056,
      "v": 100
    },
    {
      "midi": 47,
      "hit": false,
      "t": 129461.12850000116,
      "d": 230.7685000000056,
      "v": 110
    },
    {
      "midi": 59,
      "hit": false,
      "t": 129461.12850000116,
      "d": 230.7685000000056,
      "v": 100
    },
    {
      "midi": 63,
      "hit": false,
      "t": 129461.12850000116,
      "d": 230.7685000000056,
      "v": 100
    },
    {
      "midi": 66,
      "hit": false,
      "t": 129461.12850000116,
      "d": 230.7685000000056,
      "v": 100
    },
    {
      "midi": 47,
      "hit": false,
      "t": 129691.89700000116,
      "d": 230.7685000000056,
      "v": 110
    },
    {
      "midi": 59,
      "hit": false,
      "t": 129691.89700000116,
      "d": 230.7685000000056,
      "v": 100
    },
    {
      "midi": 63,
      "hit": false,
      "t": 129691.89700000116,
      "d": 230.7685000000056,
      "v": 100
    },
    {
      "midi": 66,
      "hit": false,
      "t": 129691.89700000116,
      "d": 230.7685000000056,
      "v": 100
    },
    {
      "midi": 47,
      "hit": false,
      "t": 129922.66550000117,
      "d": 230.7685000000056,
      "v": 110
    },
    {
      "midi": 59,
      "hit": false,
      "t": 129922.66550000117,
      "d": 230.7685000000056,
      "v": 100
    },
    {
      "midi": 63,
      "hit": false,
      "t": 129922.66550000117,
      "d": 230.7685000000056,
      "v": 100
    },
    {
      "midi": 66,
      "hit": false,
      "t": 129922.66550000117,
      "d": 230.7685000000056,
      "v": 100
    },
    {
      "midi": 47,
      "hit": false,
      "t": 130153.43400000117,
      "d": 230.7685000000056,
      "v": 110
    },
    {
      "midi": 59,
      "hit": false,
      "t": 130153.43400000117,
      "d": 230.7685000000056,
      "v": 100
    },
    {
      "midi": 63,
      "hit": false,
      "t": 130153.43400000117,
      "d": 230.7685000000056,
      "v": 100
    },
    {
      "midi": 66,
      "hit": false,
      "t": 130153.43400000117,
      "d": 230.7685000000056,
      "v": 100
    },
    {
      "midi": 47,
      "hit": false,
      "t": 130384.20250000118,
      "d": 230.7685000000056,
      "v": 110
    },
    {
      "midi": 59,
      "hit": false,
      "t": 130384.20250000118,
      "d": 230.7685000000056,
      "v": 100
    },
    {
      "midi": 63,
      "hit": false,
      "t": 130384.20250000118,
      "d": 230.7685000000056,
      "v": 100
    },
    {
      "midi": 66,
      "hit": false,
      "t": 130384.20250000118,
      "d": 230.7685000000056,
      "v": 100
    },
    {
      "midi": 47,
      "hit": false,
      "t": 130614.97100000118,
      "d": 230.7685000000056,
      "v": 110
    },
    {
      "midi": 59,
      "hit": false,
      "t": 130614.97100000118,
      "d": 230.7685000000056,
      "v": 100
    },
    {
      "midi": 63,
      "hit": false,
      "t": 130614.97100000118,
      "d": 230.7685000000056,
      "v": 100
    },
    {
      "midi": 66,
      "hit": false,
      "t": 130614.97100000118,
      "d": 230.7685000000056,
      "v": 100
    },
    {
      "midi": 47,
      "hit": false,
      "t": 130845.73950000119,
      "d": 230.7685000000056,
      "v": 110
    },
    {
      "midi": 59,
      "hit": false,
      "t": 130845.73950000119,
      "d": 230.7685000000056,
      "v": 100
    },
    {
      "midi": 63,
      "hit": false,
      "t": 130845.73950000119,
      "d": 230.7685000000056,
      "v": 100
    },
    {
      "midi": 66,
      "hit": false,
      "t": 130845.73950000119,
      "d": 230.7685000000056,
      "v": 100
    },
    {
      "midi": 42,
      "hit": false,
      "t": 131076.5080000012,
      "d": 230.7685000000056,
      "v": 110
    },
    {
      "midi": 57,
      "hit": false,
      "t": 131076.5080000012,
      "d": 230.7685000000056,
      "v": 100
    },
    {
      "midi": 61,
      "hit": false,
      "t": 131076.5080000012,
      "d": 230.7685000000056,
      "v": 100
    },
    {
      "midi": 66,
      "hit": false,
      "t": 131076.5080000012,
      "d": 230.7685000000056,
      "v": 100
    },
    {
      "midi": 42,
      "hit": false,
      "t": 131307.2765000012,
      "d": 230.7685000000056,
      "v": 110
    },
    {
      "midi": 57,
      "hit": false,
      "t": 131307.2765000012,
      "d": 230.7685000000056,
      "v": 100
    },
    {
      "midi": 61,
      "hit": false,
      "t": 131307.2765000012,
      "d": 230.7685000000056,
      "v": 100
    },
    {
      "midi": 66,
      "hit": false,
      "t": 131307.2765000012,
      "d": 230.7685000000056,
      "v": 100
    },
    {
      "midi": 42,
      "hit": false,
      "t": 131538.0450000012,
      "d": 230.7685000000056,
      "v": 110
    },
    {
      "midi": 57,
      "hit": false,
      "t": 131538.0450000012,
      "d": 230.7685000000056,
      "v": 100
    },
    {
      "midi": 61,
      "hit": false,
      "t": 131538.0450000012,
      "d": 230.7685000000056,
      "v": 100
    },
    {
      "midi": 66,
      "hit": false,
      "t": 131538.0450000012,
      "d": 230.7685000000056,
      "v": 100
    },
    {
      "midi": 42,
      "hit": false,
      "t": 131768.8135000012,
      "d": 230.7685000000056,
      "v": 110
    },
    {
      "midi": 57,
      "hit": false,
      "t": 131768.8135000012,
      "d": 230.7685000000056,
      "v": 100
    },
    {
      "midi": 61,
      "hit": false,
      "t": 131768.8135000012,
      "d": 230.7685000000056,
      "v": 100
    },
    {
      "midi": 66,
      "hit": false,
      "t": 131768.8135000012,
      "d": 230.7685000000056,
      "v": 100
    },
    {
      "midi": 42,
      "hit": false,
      "t": 131999.58200000122,
      "d": 230.7685000000056,
      "v": 110
    },
    {
      "midi": 57,
      "hit": false,
      "t": 131999.58200000122,
      "d": 230.7685000000056,
      "v": 100
    },
    {
      "midi": 61,
      "hit": false,
      "t": 131999.58200000122,
      "d": 230.7685000000056,
      "v": 100
    },
    {
      "midi": 66,
      "hit": false,
      "t": 131999.58200000122,
      "d": 230.7685000000056,
      "v": 100
    },
    {
      "midi": 42,
      "hit": false,
      "t": 132230.35050000122,
      "d": 230.7685000000056,
      "v": 110
    },
    {
      "midi": 57,
      "hit": false,
      "t": 132230.35050000122,
      "d": 230.7685000000056,
      "v": 100
    },
    {
      "midi": 61,
      "hit": false,
      "t": 132230.35050000122,
      "d": 230.7685000000056,
      "v": 100
    },
    {
      "midi": 66,
      "hit": false,
      "t": 132230.35050000122,
      "d": 230.7685000000056,
      "v": 100
    },
    {
      "midi": 42,
      "hit": false,
      "t": 132461.11900000123,
      "d": 230.7685000000056,
      "v": 110
    },
    {
      "midi": 57,
      "hit": false,
      "t": 132461.11900000123,
      "d": 230.7685000000056,
      "v": 100
    },
    {
      "midi": 61,
      "hit": false,
      "t": 132461.11900000123,
      "d": 230.7685000000056,
      "v": 100
    },
    {
      "midi": 66,
      "hit": false,
      "t": 132461.11900000123,
      "d": 230.7685000000056,
      "v": 100
    },
    {
      "midi": 42,
      "hit": false,
      "t": 132691.88750000123,
      "d": 230.7685000000056,
      "v": 110
    },
    {
      "midi": 57,
      "hit": false,
      "t": 132691.88750000123,
      "d": 230.7685000000056,
      "v": 100
    },
    {
      "midi": 61,
      "hit": false,
      "t": 132691.88750000123,
      "d": 230.7685000000056,
      "v": 100
    },
    {
      "midi": 66,
      "hit": false,
      "t": 132691.88750000123,
      "d": 230.7685000000056,
      "v": 100
    },
    {
      "midi": 50,
      "hit": false,
      "t": 132922.65600000124,
      "d": 923.0739999999932,
      "v": 110
    },
    {
      "midi": 57,
      "hit": false,
      "t": 132922.65600000124,
      "d": 923.0739999999932,
      "v": 100
    },
    {
      "midi": 62,
      "hit": false,
      "t": 132922.65600000124,
      "d": 923.0739999999932,
      "v": 100
    },
    {
      "midi": 66,
      "hit": false,
      "t": 132922.65600000124,
      "d": 923.0739999999932,
      "v": 100
    },
    {
      "midi": 45,
      "hit": false,
      "t": 133845.73000000123,
      "d": 923.0739999999932,
      "v": 110
    },
    {
      "midi": 57,
      "hit": false,
      "t": 133845.73000000123,
      "d": 923.0739999999932,
      "v": 100
    },
    {
      "midi": 61,
      "hit": false,
      "t": 133845.73000000123,
      "d": 923.0739999999932,
      "v": 100
    },
    {
      "midi": 64,
      "hit": false,
      "t": 133845.73000000123,
      "d": 923.0739999999932,
      "v": 100
    },
    {
      "midi": 40,
      "hit": false,
      "t": 134768.80400000123,
      "d": 7384.592000000004,
      "v": 110
    },
    {
      "midi": 56,
      "hit": false,
      "t": 134768.80400000123,
      "d": 7384.592000000004,
      "v": 100
    },
    {
      "midi": 59,
      "hit": false,
      "t": 134768.80400000123,
      "d": 7384.592000000004,
      "v": 100
    },
    {
      "midi": 64,
      "hit": false,
      "t": 134768.80400000123,
      "d": 7384.592000000004,
      "v": 100
    }
  ]
}