{
  "jsonPath": "Rock/Pop Rock/James Blunt/1973-album-version.json",
  "path": "Rock\\Pop Rock\\James Blunt\\1973  (Album Version).mid",
  "name": "1973  (Album Version)",
  "difficulty": "Advanced",
  "bpm": 120,
  "notes": [
    {
      "midi": 57,
      "hit": false,
      "t": 3912.5,
      "d": 566.6666666666661,
      "v": 66
    },
    {
      "midi": 61,
      "hit": false,
      "t": 3916.6666666666665,
      "d": 591.6666666666665,
      "v": 70
    },
    {
      "midi": 54,
      "hit": false,
      "t": 3916.6666666666665,
      "d": 3858.3333333333344,
      "v": 66
    },
    {
      "midi": 66,
      "hit": false,
      "t": 3920.833333333333,
      "d": 608.333333333333,
      "v": 75
    },
    {
      "midi": 66,
      "hit": false,
      "t": 3929.1666666666665,
      "d": 3512.4999999999995,
      "v": 100
    },
    {
      "midi": 57,
      "hit": false,
      "t": 3933.333333333333,
      "d": 3445.833333333333,
      "v": 102
    },
    {
      "midi": 61,
      "hit": false,
      "t": 3933.333333333333,
      "d": 3691.666666666666,
      "v": 106
    },
    {
      "midi": 57,
      "hit": false,
      "t": 4641.666666666666,
      "d": 875.0000000000009,
      "v": 65
    },
    {
      "midi": 66,
      "hit": false,
      "t": 4645.833333333333,
      "d": 412.5,
      "v": 88
    },
    {
      "midi": 61,
      "hit": false,
      "t": 4645.833333333333,
      "d": 666.666666666667,
      "v": 92
    },
    {
      "midi": 66,
      "hit": false,
      "t": 5133.333333333333,
      "d": 729.1666666666679,
      "v": 78
    },
    {
      "midi": 61,
      "hit": false,
      "t": 5366.666666666667,
      "d": 508.33333333333394,
      "v": 90
    },
    {
      "midi": 57,
      "hit": false,
      "t": 5608.333333333334,
      "d": 725,
      "v": 88
    },
    {
      "midi": 69,
      "hit": false,
      "t": 5870.833333333334,
      "d": 700.0000000000009,
      "v": 112
    },
    {
      "midi": 61,
      "hit": false,
      "t": 5887.500000000001,
      "d": 591.666666666667,
      "v": 79
    },
    {
      "midi": 57,
      "hit": false,
      "t": 6350.000000000001,
      "d": 412.5000000000009,
      "v": 65
    },
    {
      "midi": 61,
      "hit": false,
      "t": 6600.000000000002,
      "d": 416.66666666666697,
      "v": 88
    },
    {
      "midi": 68,
      "hit": false,
      "t": 6608.333333333335,
      "d": 695.8333333333339,
      "v": 103
    },
    {
      "midi": 57,
      "hit": false,
      "t": 6850.000000000002,
      "d": 620.833333333333,
      "v": 64
    },
    {
      "midi": 61,
      "hit": false,
      "t": 7087.500000000002,
      "d": 616.6666666666661,
      "v": 93
    },
    {
      "midi": 66,
      "hit": false,
      "t": 7325.000000000002,
      "d": 441.66666666666606,
      "v": 102
    },
    {
      "midi": 57,
      "hit": false,
      "t": 7583.333333333335,
      "d": 841.666666666667,
      "v": 66
    },
    {
      "midi": 52,
      "hit": false,
      "t": 7816.666666666668,
      "d": 3445.8333333333358,
      "v": 67
    },
    {
      "midi": 61,
      "hit": false,
      "t": 7820.833333333335,
      "d": 591.666666666667,
      "v": 78
    },
    {
      "midi": 64,
      "hit": false,
      "t": 7824.999999999999,
      "d": 3195.833333333333,
      "v": 86
    },
    {
      "midi": 66,
      "hit": false,
      "t": 7825.000000000002,
      "d": 608.3333333333339,
      "v": 82
    },
    {
      "midi": 61,
      "hit": false,
      "t": 7845.833333333332,
      "d": 3458.333333333334,
      "v": 110
    },
    {
      "midi": 57,
      "hit": false,
      "t": 7845.833333333332,
      "d": 3620.833333333334,
      "v": 109
    },
    {
      "midi": 57,
      "hit": false,
      "t": 8545.833333333336,
      "d": 875,
      "v": 64
    },
    {
      "midi": 66,
      "hit": false,
      "t": 8550.000000000002,
      "d": 408.33333333333394,
      "v": 88
    },
    {
      "midi": 61,
      "hit": false,
      "t": 8550.000000000002,
      "d": 662.5,
      "v": 93
    },
    {
      "midi": 66,
      "hit": false,
      "t": 9033.333333333336,
      "d": 733.3333333333321,
      "v": 79
    },
    {
      "midi": 61,
      "hit": false,
      "t": 9270.833333333336,
      "d": 508.3333333333321,
      "v": 90
    },
    {
      "midi": 57,
      "hit": false,
      "t": 9512.500000000002,
      "d": 437.5,
      "v": 88
    },
    {
      "midi": 69,
      "hit": false,
      "t": 9770.833333333334,
      "d": 700.0000000000018,
      "v": 112
    },
    {
      "midi": 61,
      "hit": false,
      "t": 9787.500000000002,
      "d": 379.1666666666679,
      "v": 78
    },
    {
      "midi": 57,
      "hit": false,
      "t": 10020.833333333336,
      "d": 662.5,
      "v": 64
    },
    {
      "midi": 61,
      "hit": false,
      "t": 10258.333333333336,
      "d": 650,
      "v": 80
    },
    {
      "midi": 68,
      "hit": false,
      "t": 10508.333333333336,
      "d": 700,
      "v": 102
    },
    {
      "midi": 57,
      "hit": false,
      "t": 10750.000000000002,
      "d": 625.0000000000018,
      "v": 64
    },
    {
      "midi": 61,
      "hit": false,
      "t": 10991.66666666667,
      "d": 616.6666666666679,
      "v": 92
    },
    {
      "midi": 66,
      "hit": false,
      "t": 11229.16666666667,
      "d": 441.6666666666679,
      "v": 103
    },
    {
      "midi": 57,
      "hit": false,
      "t": 11483.333333333338,
      "d": 712.5,
      "v": 64
    },
    {
      "midi": 62,
      "hit": false,
      "t": 11720.833333333332,
      "d": 1433.3333333333321,
      "v": 109
    },
    {
      "midi": 57,
      "hit": false,
      "t": 11720.833333333332,
      "d": 1575,
      "v": 105
    },
    {
      "midi": 62,
      "hit": false,
      "t": 11720.833333333338,
      "d": 591.6666666666661,
      "v": 78
    },
    {
      "midi": 50,
      "hit": false,
      "t": 11720.833333333338,
      "d": 3445.8333333333285,
      "v": 68
    },
    {
      "midi": 66,
      "hit": false,
      "t": 11724.999999999998,
      "d": 2645.833333333334,
      "v": 102
    },
    {
      "midi": 66,
      "hit": false,
      "t": 11725.000000000004,
      "d": 608.3333333333339,
      "v": 86
    },
    {
      "midi": 57,
      "hit": false,
      "t": 12445.833333333338,
      "d": 874.9999999999982,
      "v": 65
    },
    {
      "midi": 66,
      "hit": false,
      "t": 12450.000000000004,
      "d": 412.5,
      "v": 93
    },
    {
      "midi": 62,
      "hit": false,
      "t": 12450.000000000004,
      "d": 666.6666666666661,
      "v": 92
    },
    {
      "midi": 66,
      "hit": false,
      "t": 12937.500000000004,
      "d": 733.3333333333321,
      "v": 79
    },
    {
      "midi": 62,
      "hit": false,
      "t": 13170.833333333336,
      "d": 450,
      "v": 90
    },
    {
      "midi": 62,
      "hit": false,
      "t": 13187.499999999998,
      "d": 2341.666666666668,
      "v": 107
    },
    {
      "midi": 57,
      "hit": false,
      "t": 13412.500000000002,
      "d": 441.66666666666606,
      "v": 89
    },
    {
      "midi": 64,
      "hit": false,
      "t": 13433.333333333332,
      "d": 1954.1666666666679,
      "v": 111
    },
    {
      "midi": 69,
      "hit": false,
      "t": 13675.000000000002,
      "d": 699.9999999999982,
      "v": 113
    },
    {
      "midi": 62,
      "hit": false,
      "t": 13691.666666666668,
      "d": 375,
      "v": 78
    },
    {
      "midi": 57,
      "hit": false,
      "t": 13920.833333333334,
      "d": 666.6666666666661,
      "v": 65
    },
    {
      "midi": 62,
      "hit": false,
      "t": 14158.333333333334,
      "d": 649.9999999999982,
      "v": 81
    },
    {
      "midi": 57,
      "hit": false,
      "t": 14404.166666666666,
      "d": 1037.5,
      "v": 110
    },
    {
      "midi": 68,
      "hit": false,
      "t": 14412.5,
      "d": 695.8333333333321,
      "v": 102
    },
    {
      "midi": 57,
      "hit": false,
      "t": 14654.166666666666,
      "d": 858.3333333333339,
      "v": 64
    },
    {
      "midi": 62,
      "hit": false,
      "t": 14895.833333333332,
      "d": 470.83333333333394,
      "v": 93
    },
    {
      "midi": 66,
      "hit": false,
      "t": 15133.333333333332,
      "d": 437.5000000000018,
      "v": 103
    },
    {
      "midi": 64,
      "hit": false,
      "t": 15387.5,
      "d": 812.5,
      "v": 59
    },
    {
      "midi": 57,
      "hit": false,
      "t": 15604.166666666668,
      "d": 591.6666666666661,
      "v": 71
    },
    {
      "midi": 45,
      "hit": false,
      "t": 15620.833333333334,
      "d": 2716.6666666666624,
      "v": 68
    },
    {
      "midi": 57,
      "hit": false,
      "t": 15637.5,
      "d": 629.1666666666661,
      "v": 103
    },
    {
      "midi": 61,
      "hit": false,
      "t": 15637.5,
      "d": 629.1666666666661,
      "v": 101
    },
    {
      "midi": 64,
      "hit": false,
      "t": 15637.5,
      "d": 629.1666666666661,
      "v": 102
    },
    {
      "midi": 61,
      "hit": false,
      "t": 15645.833333333334,
      "d": 591.6666666666661,
      "v": 78
    },
    {
      "midi": 57,
      "hit": false,
      "t": 16350,
      "d": 1170.8333333333285,
      "v": 64
    },
    {
      "midi": 64,
      "hit": false,
      "t": 16354.166666666666,
      "d": 579.1666666666661,
      "v": 93
    },
    {
      "midi": 61,
      "hit": false,
      "t": 16354.166666666666,
      "d": 762.4999999999982,
      "v": 93
    },
    {
      "midi": 57,
      "hit": false,
      "t": 16383.333333333332,
      "d": 891.6666666666679,
      "v": 90
    },
    {
      "midi": 64,
      "hit": false,
      "t": 16383.333333333332,
      "d": 1033.3333333333358,
      "v": 107
    },
    {
      "midi": 61,
      "hit": false,
      "t": 16387.5,
      "d": 950,
      "v": 101
    },
    {
      "midi": 64,
      "hit": false,
      "t": 17083.333333333332,
      "d": 499.99999999999636,
      "v": 78
    },
    {
      "midi": 61,
      "hit": false,
      "t": 17337.499999999996,
      "d": 612.5,
      "v": 88
    },
    {
      "midi": 69,
      "hit": false,
      "t": 17574.999999999996,
      "d": 700,
      "v": 112
    },
    {
      "midi": 64,
      "hit": false,
      "t": 17575,
      "d": 595.8333333333321,
      "v": 103
    },
    {
      "midi": 61,
      "hit": false,
      "t": 17579.166666666668,
      "d": 579.1666666666642,
      "v": 103
    },
    {
      "midi": 69,
      "hit": false,
      "t": 17587.5,
      "d": 587.5,
      "v": 104
    },
    {
      "midi": 64,
      "hit": false,
      "t": 17595.83333333333,
      "d": 658.3333333333358,
      "v": 86
    },
    {
      "midi": 57,
      "hit": false,
      "t": 17824.999999999996,
      "d": 491.6666666666679,
      "v": 64
    },
    {
      "midi": 61,
      "hit": false,
      "t": 18062.499999999996,
      "d": 233.33333333333212,
      "v": 80
    },
    {
      "midi": 64,
      "hit": false,
      "t": 18312.499999999996,
      "d": 633.3333333333321,
      "v": 95
    },
    {
      "midi": 59,
      "hit": false,
      "t": 18312.499999999996,
      "d": 654.1666666666642,
      "v": 88
    },
    {
      "midi": 52,
      "hit": false,
      "t": 18312.499999999996,
      "d": 1183.3333333333285,
      "v": 77
    },
    {
      "midi": 68,
      "hit": false,
      "t": 18312.499999999996,
      "d": 1183.3333333333285,
      "v": 103
    },
    {
      "midi": 64,
      "hit": false,
      "t": 18316.666666666668,
      "d": 650,
      "v": 112
    },
    {
      "midi": 68,
      "hit": false,
      "t": 18316.666666666668,
      "d": 1133.3333333333358,
      "v": 90
    },
    {
      "midi": 59,
      "hit": false,
      "t": 18333.333333333336,
      "d": 570.8333333333321,
      "v": 93
    },
    {
      "midi": 64,
      "hit": false,
      "t": 19037.499999999993,
      "d": 500,
      "v": 74
    },
    {
      "midi": 64,
      "hit": false,
      "t": 19041.666666666668,
      "d": 491.6666666666679,
      "v": 105
    },
    {
      "midi": 59,
      "hit": false,
      "t": 19045.833333333336,
      "d": 475,
      "v": 98
    },
    {
      "midi": 59,
      "hit": false,
      "t": 19049.999999999993,
      "d": 445.8333333333321,
      "v": 77
    },
    {
      "midi": 57,
      "hit": false,
      "t": 19520.833333333325,
      "d": 662.5,
      "v": 66
    },
    {
      "midi": 54,
      "hit": false,
      "t": 19524.999999999993,
      "d": 1899.9999999999964,
      "v": 66
    },
    {
      "midi": 61,
      "hit": false,
      "t": 19529.16666666666,
      "d": 645.8333333333321,
      "v": 71
    },
    {
      "midi": 66,
      "hit": false,
      "t": 19529.16666666666,
      "d": 674.9999999999964,
      "v": 74
    },
    {
      "midi": 66,
      "hit": false,
      "t": 19541.666666666668,
      "d": 3508.333333333332,
      "v": 100
    },
    {
      "midi": 61,
      "hit": false,
      "t": 19541.666666666668,
      "d": 3691.6666666666642,
      "v": 106
    },
    {
      "midi": 57,
      "hit": false,
      "t": 19545.833333333336,
      "d": 3445.833333333332,
      "v": 102
    },
    {
      "midi": 57,
      "hit": false,
      "t": 20249.99999999999,
      "d": 1195.8333333333321,
      "v": 64
    },
    {
      "midi": 61,
      "hit": false,
      "t": 20258.33333333332,
      "d": 1125,
      "v": 92
    },
    {
      "midi": 66,
      "hit": false,
      "t": 20258.33333333332,
      "d": 1187.5,
      "v": 88
    },
    {
      "midi": 57,
      "hit": false,
      "t": 21470.83333333332,
      "d": 666.6666666666715,
      "v": 67
    },
    {
      "midi": 54,
      "hit": false,
      "t": 21474.99999999999,
      "d": 1920.8333333333358,
      "v": 67
    },
    {
      "midi": 61,
      "hit": false,
      "t": 21479.166666666657,
      "d": 645.8333333333358,
      "v": 70
    },
    {
      "midi": 66,
      "hit": false,
      "t": 21483.333333333325,
      "d": 675,
      "v": 74
    },
    {
      "midi": 57,
      "hit": false,
      "t": 22204.166666666657,
      "d": 450,
      "v": 64
    },
    {
      "midi": 66,
      "hit": false,
      "t": 22208.333333333325,
      "d": 445.8333333333321,
      "v": 88
    },
    {
      "midi": 61,
      "hit": false,
      "t": 22208.333333333325,
      "d": 458.3333333333321,
      "v": 92
    },
    {
      "midi": 57,
      "hit": false,
      "t": 22699.99999999999,
      "d": 666.6666666666679,
      "v": 64
    },
    {
      "midi": 61,
      "hit": false,
      "t": 22704.166666666657,
      "d": 458.3333333333321,
      "v": 92
    },
    {
      "midi": 66,
      "hit": false,
      "t": 22704.166666666657,
      "d": 620.8333333333321,
      "v": 88
    },
    {
      "midi": 61,
      "hit": false,
      "t": 23170.83333333332,
      "d": 237.50000000000364,
      "v": 92
    },
    {
      "midi": 57,
      "hit": false,
      "t": 23420.833333333325,
      "d": 666.6666666666679,
      "v": 67
    },
    {
      "midi": 52,
      "hit": false,
      "t": 23424.999999999993,
      "d": 3558.3333333333285,
      "v": 66
    },
    {
      "midi": 61,
      "hit": false,
      "t": 23429.16666666666,
      "d": 650,
      "v": 70
    },
    {
      "midi": 66,
      "hit": false,
      "t": 23433.33333333333,
      "d": 674.9999999999964,
      "v": 74
    },
    {
      "midi": 64,
      "hit": false,
      "t": 23433.333333333332,
      "d": 3195.833333333332,
      "v": 86
    },
    {
      "midi": 57,
      "hit": false,
      "t": 23454.166666666664,
      "d": 3620.833333333332,
      "v": 108
    },
    {
      "midi": 61,
      "hit": false,
      "t": 23458.333333333332,
      "d": 3454.1666666666642,
      "v": 111
    },
    {
      "midi": 57,
      "hit": false,
      "t": 24154.166666666657,
      "d": 1191.6666666666679,
      "v": 64
    },
    {
      "midi": 61,
      "hit": false,
      "t": 24158.333333333325,
      "d": 1129.1666666666679,
      "v": 93
    },
    {
      "midi": 66,
      "hit": false,
      "t": 24158.333333333325,
      "d": 1187.5,
      "v": 88
    },
    {
      "midi": 57,
      "hit": false,
      "t": 25374.999999999993,
      "d": 662.4999999999964,
      "v": 67
    },
    {
      "midi": 61,
      "hit": false,
      "t": 25383.333333333325,
      "d": 645.8333333333321,
      "v": 71
    },
    {
      "midi": 66,
      "hit": false,
      "t": 25383.333333333325,
      "d": 674.9999999999964,
      "v": 74
    },
    {
      "midi": 57,
      "hit": false,
      "t": 26104.166666666653,
      "d": 454.1666666666679,
      "v": 65
    },
    {
      "midi": 66,
      "hit": false,
      "t": 26108.33333333332,
      "d": 450,
      "v": 89
    },
    {
      "midi": 61,
      "hit": false,
      "t": 26108.33333333332,
      "d": 458.3333333333321,
      "v": 92
    },
    {
      "midi": 57,
      "hit": false,
      "t": 26604.166666666653,
      "d": 429.1666666666679,
      "v": 65
    },
    {
      "midi": 66,
      "hit": false,
      "t": 26608.33333333332,
      "d": 620.8333333333358,
      "v": 89
    },
    {
      "midi": 61,
      "hit": false,
      "t": 26608.33333333332,
      "d": 662.5000000000036,
      "v": 92
    },
    {
      "midi": 57,
      "hit": false,
      "t": 27087.49999999999,
      "d": 233.33333333333576,
      "v": 92
    },
    {
      "midi": 50,
      "hit": false,
      "t": 27329.166666666657,
      "d": 3445.833333333332,
      "v": 69
    },
    {
      "midi": 62,
      "hit": false,
      "t": 27333.333333333325,
      "d": 587.5000000000036,
      "v": 79
    },
    {
      "midi": 62,
      "hit": false,
      "t": 27333.33333333333,
      "d": 1429.1666666666679,
      "v": 109
    },
    {
      "midi": 57,
      "hit": false,
      "t": 27333.33333333333,
      "d": 1570.8333333333321,
      "v": 104
    },
    {
      "midi": 66,
      "hit": false,
      "t": 27333.33333333333,
      "d": 3645.833333333332,
      "v": 103
    },
    {
      "midi": 66,
      "hit": false,
      "t": 27337.499999999993,
      "d": 608.3333333333358,
      "v": 87
    },
    {
      "midi": 57,
      "hit": false,
      "t": 27341.66666666666,
      "d": 591.6666666666679,
      "v": 79
    },
    {
      "midi": 57,
      "hit": false,
      "t": 28054.16666666666,
      "d": 879.1666666666642,
      "v": 64
    },
    {
      "midi": 66,
      "hit": false,
      "t": 28062.499999999993,
      "d": 408.3333333333321,
      "v": 92
    },
    {
      "midi": 62,
      "hit": false,
      "t": 28062.499999999993,
      "d": 662.5,
      "v": 92
    },
    {
      "midi": 66,
      "hit": false,
      "t": 28545.833333333325,
      "d": 641.6666666666679,
      "v": 65
    },
    {
      "midi": 62,
      "hit": false,
      "t": 28783.333333333325,
      "d": 445.83333333333576,
      "v": 91
    },
    {
      "midi": 62,
      "hit": false,
      "t": 28795.83333333333,
      "d": 2345.833333333332,
      "v": 106
    },
    {
      "midi": 57,
      "hit": false,
      "t": 29020.833333333325,
      "d": 929.1666666666679,
      "v": 88
    },
    {
      "midi": 57,
      "hit": false,
      "t": 29045.83333333333,
      "d": 1950,
      "v": 79
    },
    {
      "midi": 66,
      "hit": false,
      "t": 29283.33333333333,
      "d": 658.3333333333321,
      "v": 74
    },
    {
      "midi": 62,
      "hit": false,
      "t": 29283.33333333333,
      "d": 699.9999999999964,
      "v": 108
    },
    {
      "midi": 62,
      "hit": false,
      "t": 30008.333333333325,
      "d": 675,
      "v": 100
    },
    {
      "midi": 57,
      "hit": false,
      "t": 30012.499999999993,
      "d": 637.5,
      "v": 80
    },
    {
      "midi": 66,
      "hit": false,
      "t": 30012.499999999993,
      "d": 650,
      "v": 78
    },
    {
      "midi": 66,
      "hit": false,
      "t": 30729.166666666657,
      "d": 508.33333333333576,
      "v": 69
    },
    {
      "midi": 62,
      "hit": false,
      "t": 30737.49999999999,
      "d": 466.6666666666679,
      "v": 103
    },
    {
      "midi": 57,
      "hit": false,
      "t": 30745.83333333332,
      "d": 433.33333333333576,
      "v": 88
    },
    {
      "midi": 57,
      "hit": false,
      "t": 31233.333333333325,
      "d": 720.8333333333358,
      "v": 70
    },
    {
      "midi": 45,
      "hit": false,
      "t": 31233.333333333325,
      "d": 2712.4999999999964,
      "v": 69
    },
    {
      "midi": 64,
      "hit": false,
      "t": 31241.66666666666,
      "d": 579.1666666666679,
      "v": 93
    },
    {
      "midi": 64,
      "hit": false,
      "t": 31245.83333333333,
      "d": 1662.5,
      "v": 105
    },
    {
      "midi": 57,
      "hit": false,
      "t": 31245.83333333333,
      "d": 1783.3333333333358,
      "v": 102
    },
    {
      "midi": 61,
      "hit": false,
      "t": 31245.83333333333,
      "d": 1845.8333333333358,
      "v": 100
    },
    {
      "midi": 61,
      "hit": false,
      "t": 31254.16666666666,
      "d": 637.5,
      "v": 78
    },
    {
      "midi": 64,
      "hit": false,
      "t": 31962.499999999993,
      "d": 579.1666666666642,
      "v": 93
    },
    {
      "midi": 61,
      "hit": false,
      "t": 31962.499999999993,
      "d": 762.4999999999964,
      "v": 92
    },
    {
      "midi": 69,
      "hit": false,
      "t": 31983.333333333325,
      "d": 762.4999999999964,
      "v": 92
    },
    {
      "midi": 64,
      "hit": false,
      "t": 32691.666666666657,
      "d": 441.66666666666424,
      "v": 78
    },
    {
      "midi": 61,
      "hit": false,
      "t": 32945.83333333332,
      "d": 612.5,
      "v": 88
    },
    {
      "midi": 69,
      "hit": false,
      "t": 33187.499999999985,
      "d": 700,
      "v": 112
    },
    {
      "midi": 64,
      "hit": false,
      "t": 33187.5,
      "d": 595.8333333333285,
      "v": 102
    },
    {
      "midi": 61,
      "hit": false,
      "t": 33191.666666666664,
      "d": 691.6666666666642,
      "v": 102
    },
    {
      "midi": 69,
      "hit": false,
      "t": 33195.83333333333,
      "d": 587.5,
      "v": 104
    },
    {
      "midi": 64,
      "hit": false,
      "t": 33208.33333333332,
      "d": 654.1666666666642,
      "v": 87
    },
    {
      "midi": 57,
      "hit": false,
      "t": 33433.33333333332,
      "d": 491.66666666666424,
      "v": 65
    },
    {
      "midi": 61,
      "hit": false,
      "t": 33670.83333333332,
      "d": 233.33333333332848,
      "v": 80
    },
    {
      "midi": 59,
      "hit": false,
      "t": 33924.999999999985,
      "d": 650,
      "v": 76
    },
    {
      "midi": 64,
      "hit": false,
      "t": 33924.999999999985,
      "d": 662.5,
      "v": 94
    },
    {
      "midi": 68,
      "hit": false,
      "t": 33924.999999999985,
      "d": 700,
      "v": 102
    },
    {
      "midi": 52,
      "hit": false,
      "t": 33924.999999999985,
      "d": 1179.166666666686,
      "v": 76
    },
    {
      "midi": 68,
      "hit": false,
      "t": 33924.99999999999,
      "d": 1133.3333333333285,
      "v": 90
    },
    {
      "midi": 64,
      "hit": false,
      "t": 33924.99999999999,
      "d": 1158.3333333333285,
      "v": 113
    },
    {
      "midi": 59,
      "hit": false,
      "t": 33941.66666666666,
      "d": 1162.5,
      "v": 93
    },
    {
      "midi": 64,
      "hit": false,
      "t": 34624.999999999985,
      "d": 216.66666666667152,
      "v": 60
    },
    {
      "midi": 68,
      "hit": false,
      "t": 34645.83333333332,
      "d": 429.1666666666788,
      "v": 74
    },
    {
      "midi": 59,
      "hit": false,
      "t": 34658.33333333332,
      "d": 191.66666666667152,
      "v": 76
    },
    {
      "midi": 64,
      "hit": false,
      "t": 34870.83333333333,
      "d": 212.50000000000728,
      "v": 74
    },
    {
      "midi": 59,
      "hit": false,
      "t": 34891.666666666664,
      "d": 212.50000000000728,
      "v": 57
    },
    {
      "midi": 57,
      "hit": false,
      "t": 35129.16666666667,
      "d": 654.1666666666642,
      "v": 66
    },
    {
      "midi": 54,
      "hit": false,
      "t": 35133.333333333336,
      "d": 3862.5,
      "v": 66
    },
    {
      "midi": 61,
      "hit": false,
      "t": 35137.5,
      "d": 591.6666666666642,
      "v": 70
    },
    {
      "midi": 66,
      "hit": false,
      "t": 35141.666666666664,
      "d": 608.3333333333358,
      "v": 74
    },
    {
      "midi": 66,
      "hit": false,
      "t": 35149.99999999999,
      "d": 3512.5,
      "v": 100
    },
    {
      "midi": 57,
      "hit": false,
      "t": 35154.16666666666,
      "d": 3445.8333333333358,
      "v": 102
    },
    {
      "midi": 61,
      "hit": false,
      "t": 35154.16666666666,
      "d": 3691.6666666666715,
      "v": 106
    },
    {
      "midi": 57,
      "hit": false,
      "t": 35862.5,
      "d": 875,
      "v": 65
    },
    {
      "midi": 66,
      "hit": false,
      "t": 35866.666666666664,
      "d": 408.33333333333576,
      "v": 89
    },
    {
      "midi": 61,
      "hit": false,
      "t": 35866.666666666664,
      "d": 662.5,
      "v": 92
    },
    {
      "midi": 66,
      "hit": false,
      "t": 36350,
      "d": 654.1666666666642,
      "v": 79
    },
    {
      "midi": 61,
      "hit": false,
      "t": 36587.5,
      "d": 466.66666666666424,
      "v": 90
    },
    {
      "midi": 57,
      "hit": false,
      "t": 36829.166666666664,
      "d": 875.0000000000073,
      "v": 89
    },
    {
      "midi": 61,
      "hit": false,
      "t": 37079.166666666664,
      "d": 658.333333333343,
      "v": 103
    },
    {
      "midi": 66,
      "hit": false,
      "t": 37087.5,
      "d": 608.3333333333358,
      "v": 88
    },
    {
      "midi": 61,
      "hit": false,
      "t": 37812.50000000001,
      "d": 412.5,
      "v": 85
    },
    {
      "midi": 57,
      "hit": false,
      "t": 37816.66666666667,
      "d": 370.83333333333576,
      "v": 91
    },
    {
      "midi": 66,
      "hit": false,
      "t": 37825.00000000001,
      "d": 391.66666666666424,
      "v": 88
    },
    {
      "midi": 61,
      "hit": false,
      "t": 38304.16666666667,
      "d": 704.1666666666642,
      "v": 86
    },
    {
      "midi": 57,
      "hit": false,
      "t": 38308.333333333336,
      "d": 700,
      "v": 99
    },
    {
      "midi": 66,
      "hit": false,
      "t": 38312.5,
      "d": 695.8333333333358,
      "v": 89
    },
    {
      "midi": 52,
      "hit": false,
      "t": 39037.5,
      "d": 3666.6666666666642,
      "v": 67
    },
    {
      "midi": 66,
      "hit": false,
      "t": 39041.666666666664,
      "d": 608.3333333333358,
      "v": 82
    },
    {
      "midi": 61,
      "hit": false,
      "t": 39041.666666666664,
      "d": 633.3333333333358,
      "v": 79
    },
    {
      "midi": 57,
      "hit": false,
      "t": 39041.666666666664,
      "d": 654.1666666666715,
      "v": 84
    },
    {
      "midi": 64,
      "hit": false,
      "t": 39045.83333333333,
      "d": 3191.6666666666715,
      "v": 86
    },
    {
      "midi": 61,
      "hit": false,
      "t": 39066.666666666664,
      "d": 3454.1666666666715,
      "v": 110
    },
    {
      "midi": 57,
      "hit": false,
      "t": 39066.666666666664,
      "d": 3616.6666666666715,
      "v": 108
    },
    {
      "midi": 57,
      "hit": false,
      "t": 39762.5,
      "d": 879.1666666666642,
      "v": 64
    },
    {
      "midi": 66,
      "hit": false,
      "t": 39770.833333333336,
      "d": 408.33333333333576,
      "v": 89
    },
    {
      "midi": 61,
      "hit": false,
      "t": 39770.833333333336,
      "d": 662.5,
      "v": 93
    },
    {
      "midi": 66,
      "hit": false,
      "t": 40254.16666666667,
      "d": 662.4999999999927,
      "v": 78
    },
    {
      "midi": 61,
      "hit": false,
      "t": 40487.5,
      "d": 450,
      "v": 90
    },
    {
      "midi": 57,
      "hit": false,
      "t": 40729.166666666664,
      "d": 920.833333333343,
      "v": 88
    },
    {
      "midi": 61,
      "hit": false,
      "t": 40983.333333333336,
      "d": 654.1666666666715,
      "v": 102
    },
    {
      "midi": 66,
      "hit": false,
      "t": 40991.66666666667,
      "d": 608.3333333333358,
      "v": 88
    },
    {
      "midi": 61,
      "hit": false,
      "t": 41716.66666666667,
      "d": 695.8333333333285,
      "v": 84
    },
    {
      "midi": 57,
      "hit": false,
      "t": 41725.00000000001,
      "d": 604.1666666666642,
      "v": 85
    },
    {
      "midi": 66,
      "hit": false,
      "t": 41729.16666666667,
      "d": 641.6666666666642,
      "v": 89
    },
    {
      "midi": 57,
      "hit": false,
      "t": 42454.166666666664,
      "d": 425,
      "v": 99
    },
    {
      "midi": 61,
      "hit": false,
      "t": 42454.166666666664,
      "d": 425,
      "v": 86
    },
    {
      "midi": 66,
      "hit": false,
      "t": 42462.5,
      "d": 416.66666666666424,
      "v": 88
    },
    {
      "midi": 50,
      "hit": false,
      "t": 42937.5,
      "d": 3445.8333333333358,
      "v": 75
    },
    {
      "midi": 57,
      "hit": false,
      "t": 42941.666666666664,
      "d": 591.6666666666642,
      "v": 78
    },
    {
      "midi": 62,
      "hit": false,
      "t": 42941.666666666664,
      "d": 591.6666666666642,
      "v": 78
    },
    {
      "midi": 62,
      "hit": false,
      "t": 42941.66666666667,
      "d": 1429.1666666666642,
      "v": 108
    },
    {
      "midi": 57,
      "hit": false,
      "t": 42941.66666666667,
      "d": 1575,
      "v": 104
    },
    {
      "midi": 66,
      "hit": false,
      "t": 42945.83333333333,
      "d": 608.3333333333358,
      "v": 87
    },
    {
      "midi": 66,
      "hit": false,
      "t": 42945.833333333336,
      "d": 2654.1666666666642,
      "v": 102
    },
    {
      "midi": 57,
      "hit": false,
      "t": 43666.666666666664,
      "d": 875,
      "v": 64
    },
    {
      "midi": 66,
      "hit": false,
      "t": 43670.83333333333,
      "d": 412.5,
      "v": 92
    },
    {
      "midi": 62,
      "hit": false,
      "t": 43670.83333333333,
      "d": 666.6666666666715,
      "v": 92
    },
    {
      "midi": 66,
      "hit": false,
      "t": 44154.166666666664,
      "d": 666.6666666666642,
      "v": 78
    },
    {
      "midi": 62,
      "hit": false,
      "t": 44391.666666666664,
      "d": 450,
      "v": 91
    },
    {
      "midi": 62,
      "hit": false,
      "t": 44408.333333333336,
      "d": 2341.6666666666642,
      "v": 107
    },
    {
      "midi": 57,
      "hit": false,
      "t": 44633.33333333333,
      "d": 1345.833333333343,
      "v": 89
    },
    {
      "midi": 64,
      "hit": false,
      "t": 44645.833333333336,
      "d": 1950,
      "v": 112
    },
    {
      "midi": 66,
      "hit": false,
      "t": 44895.83333333333,
      "d": 608.3333333333358,
      "v": 86
    },
    {
      "midi": 62,
      "hit": false,
      "t": 44895.83333333333,
      "d": 654.1666666666715,
      "v": 78
    },
    {
      "midi": 66,
      "hit": false,
      "t": 45633.333333333336,
      "d": 408.33333333333576,
      "v": 92
    },
    {
      "midi": 62,
      "hit": false,
      "t": 45633.333333333336,
      "d": 600,
      "v": 92
    },
    {
      "midi": 57,
      "hit": false,
      "t": 45637.5,
      "d": 1195.8333333333358,
      "v": 108
    },
    {
      "midi": 57,
      "hit": false,
      "t": 46104.16666666667,
      "d": 637.5,
      "v": 64
    },
    {
      "midi": 66,
      "hit": false,
      "t": 46362.5,
      "d": 412.5000000000073,
      "v": 92
    },
    {
      "midi": 62,
      "hit": false,
      "t": 46362.5,
      "d": 450.0000000000073,
      "v": 92
    },
    {
      "midi": 64,
      "hit": false,
      "t": 46837.5,
      "d": 1841.6666666666715,
      "v": 100
    },
    {
      "midi": 59,
      "hit": false,
      "t": 46837.50000000001,
      "d": 654.1666666666642,
      "v": 84
    },
    {
      "midi": 68,
      "hit": false,
      "t": 46837.50000000001,
      "d": 670.8333333333285,
      "v": 82
    },
    {
      "midi": 64,
      "hit": false,
      "t": 46841.66666666667,
      "d": 645.8333333333358,
      "v": 90
    },
    {
      "midi": 52,
      "hit": false,
      "t": 46841.66666666667,
      "d": 1899.9999999999927,
      "v": 69
    },
    {
      "midi": 59,
      "hit": false,
      "t": 46845.833333333336,
      "d": 1783.3333333333358,
      "v": 104
    },
    {
      "midi": 68,
      "hit": false,
      "t": 46858.333333333336,
      "d": 1662.5,
      "v": 105
    },
    {
      "midi": 68,
      "hit": false,
      "t": 47566.66666666667,
      "d": 591.6666666666642,
      "v": 78
    },
    {
      "midi": 64,
      "hit": false,
      "t": 47566.66666666667,
      "d": 604.1666666666642,
      "v": 94
    },
    {
      "midi": 59,
      "hit": false,
      "t": 47570.833333333336,
      "d": 575,
      "v": 84
    },
    {
      "midi": 64,
      "hit": false,
      "t": 48300,
      "d": 416.66666666666424,
      "v": 95
    },
    {
      "midi": 59,
      "hit": false,
      "t": 48300,
      "d": 437.5,
      "v": 84
    },
    {
      "midi": 68,
      "hit": false,
      "t": 48304.166666666664,
      "d": 437.5,
      "v": 97
    },
    {
      "midi": 41,
      "hit": false,
      "t": 48791.666666666664,
      "d": 1904.166666666657,
      "v": 83
    },
    {
      "midi": 65,
      "hit": false,
      "t": 48795.833333333336,
      "d": 1908.3333333333285,
      "v": 102
    },
    {
      "midi": 59,
      "hit": false,
      "t": 48800,
      "d": 1870.8333333333285,
      "v": 103
    },
    {
      "midi": 65,
      "hit": false,
      "t": 48804.166666666664,
      "d": 670.8333333333285,
      "v": 91
    },
    {
      "midi": 68,
      "hit": false,
      "t": 48804.166666666664,
      "d": 674.9999999999927,
      "v": 78
    },
    {
      "midi": 68,
      "hit": false,
      "t": 48804.166666666664,
      "d": 1829.1666666666642,
      "v": 105
    },
    {
      "midi": 59,
      "hit": false,
      "t": 48808.33333333333,
      "d": 674.9999999999927,
      "v": 83
    },
    {
      "midi": 65,
      "hit": false,
      "t": 49520.83333333332,
      "d": 599.9999999999927,
      "v": 105
    },
    {
      "midi": 59,
      "hit": false,
      "t": 49520.83333333332,
      "d": 612.4999999999927,
      "v": 82
    },
    {
      "midi": 68,
      "hit": false,
      "t": 49524.999999999985,
      "d": 591.6666666666642,
      "v": 91
    },
    {
      "midi": 59,
      "hit": false,
      "t": 50241.66666666665,
      "d": 350,
      "v": 94
    },
    {
      "midi": 65,
      "hit": false,
      "t": 50245.833333333314,
      "d": 379.1666666666715,
      "v": 110
    },
    {
      "midi": 68,
      "hit": false,
      "t": 50245.833333333314,
      "d": 412.5000000000073,
      "v": 101
    },
    {
      "midi": 57,
      "hit": false,
      "t": 50741.66666666666,
      "d": 662.5,
      "v": 77
    },
    {
      "midi": 61,
      "hit": false,
      "t": 50741.666666666664,
      "d": 620.8333333333285,
      "v": 92
    },
    {
      "midi": 61,
      "hit": false,
      "t": 50745.83333333332,
      "d": 650,
      "v": 81
    },
    {
      "midi": 54,
      "hit": false,
      "t": 50745.83333333332,
      "d": 1900,
      "v": 77
    },
    {
      "midi": 66,
      "hit": false,
      "t": 50745.83333333333,
      "d": 641.6666666666642,
      "v": 87
    },
    {
      "midi": 66,
      "hit": false,
      "t": 50749.999999999985,
      "d": 675.0000000000073,
      "v": 84
    },
    {
      "midi": 57,
      "hit": false,
      "t": 51470.83333333333,
      "d": 1195.8333333333285,
      "v": 74
    },
    {
      "midi": 61,
      "hit": false,
      "t": 51474.99999999999,
      "d": 1129.1666666666642,
      "v": 102
    },
    {
      "midi": 66,
      "hit": false,
      "t": 51474.99999999999,
      "d": 1191.6666666666642,
      "v": 99
    },
    {
      "midi": 66,
      "hit": false,
      "t": 51483.33333333333,
      "d": 1141.6666666666715,
      "v": 103
    },
    {
      "midi": 61,
      "hit": false,
      "t": 51491.666666666664,
      "d": 1133.3333333333358,
      "v": 92
    },
    {
      "midi": 61,
      "hit": false,
      "t": 52683.333333333336,
      "d": 366.66666666666424,
      "v": 101
    },
    {
      "midi": 81,
      "hit": false,
      "t": 52683.333333333336,
      "d": 450,
      "v": 107
    },
    {
      "midi": 57,
      "hit": false,
      "t": 52691.66666666666,
      "d": 662.5,
      "v": 77
    },
    {
      "midi": 54,
      "hit": false,
      "t": 52695.83333333332,
      "d": 1920.8333333333358,
      "v": 76
    },
    {
      "midi": 61,
      "hit": false,
      "t": 52699.999999999985,
      "d": 645.8333333333358,
      "v": 80
    },
    {
      "midi": 66,
      "hit": false,
      "t": 52699.999999999985,
      "d": 675.0000000000073,
      "v": 84
    },
    {
      "midi": 66,
      "hit": false,
      "t": 52950,
      "d": 441.66666666666424,
      "v": 96
    },
    {
      "midi": 81,
      "hit": false,
      "t": 53183.333333333336,
      "d": 104.16666666666424,
      "v": 102
    },
    {
      "midi": 61,
      "hit": false,
      "t": 53195.833333333336,
      "d": 266.6666666666715,
      "v": 79
    },
    {
      "midi": 78,
      "hit": false,
      "t": 53400,
      "d": 100.00000000000728,
      "v": 111
    },
    {
      "midi": 57,
      "hit": false,
      "t": 53420.83333333333,
      "d": 454.16666666666424,
      "v": 74
    },
    {
      "midi": 66,
      "hit": false,
      "t": 53424.99999999999,
      "d": 450,
      "v": 98
    },
    {
      "midi": 61,
      "hit": false,
      "t": 53424.99999999999,
      "d": 458.33333333333576,
      "v": 102
    },
    {
      "midi": 64,
      "hit": false,
      "t": 53445.833333333336,
      "d": 829.1666666666715,
      "v": 95
    },
    {
      "midi": 80,
      "hit": false,
      "t": 53454.16666666667,
      "d": 466.6666666666715,
      "v": 107
    },
    {
      "midi": 57,
      "hit": false,
      "t": 53920.83333333333,
      "d": 666.6666666666642,
      "v": 75
    },
    {
      "midi": 61,
      "hit": false,
      "t": 53920.83333333334,
      "d": 420.8333333333285,
      "v": 68
    },
    {
      "midi": 78,
      "hit": false,
      "t": 53920.83333333334,
      "d": 2054.166666666657,
      "v": 116
    },
    {
      "midi": 61,
      "hit": false,
      "t": 53924.99999999999,
      "d": 458.33333333333576,
      "v": 103
    },
    {
      "midi": 66,
      "hit": false,
      "t": 53924.99999999999,
      "d": 620.8333333333358,
      "v": 98
    },
    {
      "midi": 61,
      "hit": false,
      "t": 54391.666666666664,
      "d": 233.33333333332848,
      "v": 103
    },
    {
      "midi": 61,
      "hit": false,
      "t": 54404.16666666667,
      "d": 1254.1666666666642,
      "v": 103
    },
    {
      "midi": 64,
      "hit": false,
      "t": 54404.16666666667,
      "d": 1329.1666666666642,
      "v": 106
    },
    {
      "midi": 57,
      "hit": false,
      "t": 54641.66666666666,
      "d": 666.666666666657,
      "v": 76
    },
    {
      "midi": 52,
      "hit": false,
      "t": 54645.83333333332,
      "d": 3558.3333333333285,
      "v": 77
    },
    {
      "midi": 61,
      "hit": false,
      "t": 54649.999999999985,
      "d": 645.8333333333285,
      "v": 80
    },
    {
      "midi": 66,
      "hit": false,
      "t": 54654.16666666665,
      "d": 675,
      "v": 84
    },
    {
      "midi": 57,
      "hit": false,
      "t": 55370.833333333314,
      "d": 1195.8333333333358,
      "v": 75
    },
    {
      "midi": 61,
      "hit": false,
      "t": 55379.16666666665,
      "d": 1129.1666666666642,
      "v": 102
    },
    {
      "midi": 66,
      "hit": false,
      "t": 55379.16666666665,
      "d": 1187.5,
      "v": 98
    },
    {
      "midi": 61,
      "hit": false,
      "t": 55858.333333333336,
      "d": 395.8333333333285,
      "v": 85
    },
    {
      "midi": 64,
      "hit": false,
      "t": 55862.5,
      "d": 408.3333333333285,
      "v": 86
    },
    {
      "midi": 61,
      "hit": false,
      "t": 56362.49999999999,
      "d": 1741.666666666657,
      "v": 98
    },
    {
      "midi": 64,
      "hit": false,
      "t": 56366.66666666666,
      "d": 604.1666666666715,
      "v": 92
    },
    {
      "midi": 57,
      "hit": false,
      "t": 56595.833333333314,
      "d": 662.4999999999927,
      "v": 76
    },
    {
      "midi": 61,
      "hit": false,
      "t": 56599.99999999998,
      "d": 645.8333333333285,
      "v": 80
    },
    {
      "midi": 81,
      "hit": false,
      "t": 56599.99999999999,
      "d": 433.33333333333576,
      "v": 108
    },
    {
      "midi": 66,
      "hit": false,
      "t": 56604.16666666664,
      "d": 675,
      "v": 85
    },
    {
      "midi": 69,
      "hit": false,
      "t": 56820.83333333333,
      "d": 275,
      "v": 84
    },
    {
      "midi": 81,
      "hit": false,
      "t": 57091.666666666664,
      "d": 95.83333333332848,
      "v": 110
    },
    {
      "midi": 66,
      "hit": false,
      "t": 57099.99999999999,
      "d": 266.66666666666424,
      "v": 85
    },
    {
      "midi": 78,
      "hit": false,
      "t": 57299.99999999999,
      "d": 95.83333333332848,
      "v": 105
    },
    {
      "midi": 57,
      "hit": false,
      "t": 57324.99999999998,
      "d": 450,
      "v": 75
    },
    {
      "midi": 66,
      "hit": false,
      "t": 57329.16666666664,
      "d": 445.83333333333576,
      "v": 98
    },
    {
      "midi": 61,
      "hit": false,
      "t": 57329.16666666664,
      "d": 458.33333333333576,
      "v": 102
    },
    {
      "midi": 68,
      "hit": false,
      "t": 57337.49999999999,
      "d": 487.5,
      "v": 106
    },
    {
      "midi": 80,
      "hit": false,
      "t": 57349.99999999999,
      "d": 429.16666666666424,
      "v": 103
    },
    {
      "midi": 78,
      "hit": false,
      "t": 57804.16666666666,
      "d": 704.1666666666642,
      "v": 116
    },
    {
      "midi": 57,
      "hit": false,
      "t": 57820.833333333314,
      "d": 433.33333333333576,
      "v": 74
    },
    {
      "midi": 66,
      "hit": false,
      "t": 57829.16666666665,
      "d": 616.6666666666642,
      "v": 98
    },
    {
      "midi": 61,
      "hit": false,
      "t": 57829.16666666665,
      "d": 658.3333333333285,
      "v": 102
    },
    {
      "midi": 66,
      "hit": false,
      "t": 57829.16666666666,
      "d": 212.5,
      "v": 103
    },
    {
      "midi": 76,
      "hit": false,
      "t": 58058.33333333332,
      "d": 250,
      "v": 114
    },
    {
      "midi": 64,
      "hit": false,
      "t": 58062.499999999985,
      "d": 270.83333333333576,
      "v": 80
    },
    {
      "midi": 74,
      "hit": false,
      "t": 58299.999999999985,
      "d": 2175,
      "v": 117
    },
    {
      "midi": 57,
      "hit": false,
      "t": 58304.16666666665,
      "d": 233.33333333332848,
      "v": 102
    },
    {
      "midi": 62,
      "hit": false,
      "t": 58308.33333333332,
      "d": 1687.5,
      "v": 114
    },
    {
      "midi": 62,
      "hit": false,
      "t": 58549.99999999998,
      "d": 591.6666666666642,
      "v": 88
    },
    {
      "midi": 50,
      "hit": false,
      "t": 58549.99999999998,
      "d": 3445.833333333321,
      "v": 78
    },
    {
      "midi": 66,
      "hit": false,
      "t": 58554.16666666664,
      "d": 608.3333333333358,
      "v": 96
    },
    {
      "midi": 57,
      "hit": false,
      "t": 58562.49999999998,
      "d": 591.6666666666642,
      "v": 89
    },
    {
      "midi": 57,
      "hit": false,
      "t": 59274.99999999998,
      "d": 874.9999999999927,
      "v": 74
    },
    {
      "midi": 66,
      "hit": false,
      "t": 59279.16666666664,
      "d": 412.5,
      "v": 102
    },
    {
      "midi": 62,
      "hit": false,
      "t": 59279.16666666664,
      "d": 666.6666666666642,
      "v": 102
    },
    {
      "midi": 66,
      "hit": false,
      "t": 59766.66666666664,
      "d": 641.666666666657,
      "v": 74
    },
    {
      "midi": 62,
      "hit": false,
      "t": 59999.99999999997,
      "d": 449.9999999999927,
      "v": 101
    },
    {
      "midi": 57,
      "hit": false,
      "t": 60241.666666666635,
      "d": 929.1666666666642,
      "v": 98
    },
    {
      "midi": 57,
      "hit": false,
      "t": 60262.499999999985,
      "d": 1950.0000000000073,
      "v": 110
    },
    {
      "midi": 66,
      "hit": false,
      "t": 60499.99999999996,
      "d": 662.5,
      "v": 85
    },
    {
      "midi": 62,
      "hit": false,
      "t": 60499.99999999996,
      "d": 700,
      "v": 119
    },
    {
      "midi": 76,
      "hit": false,
      "t": 60520.83333333332,
      "d": 670.8333333333358,
      "v": 118
    },
    {
      "midi": 64,
      "hit": false,
      "t": 60529.16666666666,
      "d": 1575,
      "v": 112
    },
    {
      "midi": 62,
      "hit": false,
      "t": 61224.99999999996,
      "d": 679.1666666666642,
      "v": 110
    },
    {
      "midi": 57,
      "hit": false,
      "t": 61229.16666666663,
      "d": 641.6666666666642,
      "v": 91
    },
    {
      "midi": 66,
      "hit": false,
      "t": 61229.16666666663,
      "d": 654.1666666666642,
      "v": 89
    },
    {
      "midi": 73,
      "hit": false,
      "t": 61249.99999999999,
      "d": 2104.1666666666642,
      "v": 107
    },
    {
      "midi": 66,
      "hit": false,
      "t": 61949.99999999996,
      "d": 508.3333333333285,
      "v": 78
    },
    {
      "midi": 62,
      "hit": false,
      "t": 61958.3333333333,
      "d": 466.66666666666424,
      "v": 113
    },
    {
      "midi": 57,
      "hit": false,
      "t": 61966.666666666635,
      "d": 433.3333333333285,
      "v": 99
    },
    {
      "midi": 64,
      "hit": false,
      "t": 62216.66666666666,
      "d": 1612.5,
      "v": 111
    },
    {
      "midi": 61,
      "hit": false,
      "t": 62216.66666666666,
      "d": 1808.3333333333285,
      "v": 110
    },
    {
      "midi": 45,
      "hit": false,
      "t": 62449.99999999996,
      "d": 2716.666666666679,
      "v": 78
    },
    {
      "midi": 57,
      "hit": false,
      "t": 62454.16666666663,
      "d": 716.6666666666642,
      "v": 80
    },
    {
      "midi": 64,
      "hit": false,
      "t": 62462.499999999956,
      "d": 579.1666666666642,
      "v": 103
    },
    {
      "midi": 61,
      "hit": false,
      "t": 62474.999999999956,
      "d": 637.5,
      "v": 89
    },
    {
      "midi": 64,
      "hit": false,
      "t": 63183.33333333329,
      "d": 579.1666666666715,
      "v": 103
    },
    {
      "midi": 61,
      "hit": false,
      "t": 63183.33333333329,
      "d": 762.5000000000073,
      "v": 103
    },
    {
      "midi": 69,
      "hit": false,
      "t": 63204.16666666663,
      "d": 762.5000000000073,
      "v": 102
    },
    {
      "midi": 64,
      "hit": false,
      "t": 63912.49999999996,
      "d": 437.5000000000073,
      "v": 88
    },
    {
      "midi": 64,
      "hit": false,
      "t": 63920.83333333332,
      "d": 1141.6666666666642,
      "v": 118
    },
    {
      "midi": 61,
      "hit": false,
      "t": 64137.499999999985,
      "d": 1045.8333333333285,
      "v": 90
    },
    {
      "midi": 61,
      "hit": false,
      "t": 64166.666666666635,
      "d": 612.5,
      "v": 98
    },
    {
      "midi": 69,
      "hit": false,
      "t": 64404.166666666635,
      "d": 700,
      "v": 123
    },
    {
      "midi": 64,
      "hit": false,
      "t": 64424.99999999997,
      "d": 658.3333333333285,
      "v": 97
    },
    {
      "midi": 57,
      "hit": false,
      "t": 64654.166666666635,
      "d": 491.6666666666715,
      "v": 74
    },
    {
      "midi": 69,
      "hit": false,
      "t": 64670.83333333332,
      "d": 233.33333333332848,
      "v": 108
    },
    {
      "midi": 61,
      "hit": false,
      "t": 64891.666666666635,
      "d": 233.33333333333576,
      "v": 90
    },
    {
      "midi": 73,
      "hit": false,
      "t": 64899.999999999985,
      "d": 225,
      "v": 100
    },
    {
      "midi": 64,
      "hit": false,
      "t": 65129.16666666665,
      "d": 1116.6666666666642,
      "v": 84
    },
    {
      "midi": 59,
      "hit": false,
      "t": 65145.83333333331,
      "d": 650.0000000000073,
      "v": 86
    },
    {
      "midi": 64,
      "hit": false,
      "t": 65145.83333333331,
      "d": 658.3333333333358,
      "v": 104
    },
    {
      "midi": 68,
      "hit": false,
      "t": 65145.83333333331,
      "d": 700.0000000000073,
      "v": 112
    },
    {
      "midi": 52,
      "hit": false,
      "t": 65145.83333333331,
      "d": 1179.1666666666642,
      "v": 86
    },
    {
      "midi": 71,
      "hit": false,
      "t": 65145.833333333314,
      "d": 1116.6666666666715,
      "v": 104
    },
    {
      "midi": 64,
      "hit": false,
      "t": 65845.83333333331,
      "d": 212.5,
      "v": 71
    },
    {
      "midi": 68,
      "hit": false,
      "t": 65866.66666666664,
      "d": 425,
      "v": 85
    },
    {
      "midi": 59,
      "hit": false,
      "t": 65879.16666666664,
      "d": 191.66666666667152,
      "v": 86
    },
    {
      "midi": 64,
      "hit": false,
      "t": 66091.66666666664,
      "d": 212.5,
      "v": 85
    },
    {
      "midi": 59,
      "hit": false,
      "t": 66108.33333333331,
      "d": 216.66666666665697,
      "v": 66
    },
    {
      "midi": 61,
      "hit": false,
      "t": 66345.83333333331,
      "d": 670.8333333333285,
      "v": 108
    },
    {
      "midi": 66,
      "hit": false,
      "t": 66345.83333333331,
      "d": 1145.8333333333285,
      "v": 112
    },
    {
      "midi": 57,
      "hit": false,
      "t": 66349.99999999997,
      "d": 666.6666666666715,
      "v": 77
    },
    {
      "midi": 54,
      "hit": false,
      "t": 66354.16666666664,
      "d": 1900,
      "v": 76
    },
    {
      "midi": 61,
      "hit": false,
      "t": 66358.33333333331,
      "d": 645.8333333333285,
      "v": 80
    },
    {
      "midi": 66,
      "hit": false,
      "t": 66358.33333333331,
      "d": 675,
      "v": 85
    },
    {
      "midi": 57,
      "hit": false,
      "t": 67079.16666666664,
      "d": 1195.8333333333285,
      "v": 74
    },
    {
      "midi": 61,
      "hit": false,
      "t": 67087.49999999997,
      "d": 1125,
      "v": 102
    },
    {
      "midi": 66,
      "hit": false,
      "t": 67087.49999999997,
      "d": 1187.5,
      "v": 98
    },
    {
      "midi": 61,
      "hit": false,
      "t": 67116.66666666664,
      "d": 1112.5,
      "v": 87
    },
    {
      "midi": 66,
      "hit": false,
      "t": 67587.49999999997,
      "d": 1158.333333333343,
      "v": 88
    },
    {
      "midi": 57,
      "hit": false,
      "t": 68299.99999999997,
      "d": 666.6666666666861,
      "v": 76
    },
    {
      "midi": 54,
      "hit": false,
      "t": 68304.16666666664,
      "d": 1920.833333333343,
      "v": 77
    },
    {
      "midi": 61,
      "hit": false,
      "t": 68308.33333333331,
      "d": 645.833333333343,
      "v": 81
    },
    {
      "midi": 66,
      "hit": false,
      "t": 68312.49999999999,
      "d": 675,
      "v": 84
    },
    {
      "midi": 81,
      "hit": false,
      "t": 68333.33333333331,
      "d": 450,
      "v": 108
    },
    {
      "midi": 81,
      "hit": false,
      "t": 68791.66666666664,
      "d": 108.33333333332848,
      "v": 104
    },
    {
      "midi": 78,
      "hit": false,
      "t": 69008.3333333333,
      "d": 100,
      "v": 112
    },
    {
      "midi": 57,
      "hit": false,
      "t": 69033.33333333331,
      "d": 450,
      "v": 74
    },
    {
      "midi": 66,
      "hit": false,
      "t": 69037.49999999999,
      "d": 445.8333333333285,
      "v": 98
    },
    {
      "midi": 61,
      "hit": false,
      "t": 69037.49999999999,
      "d": 458.3333333333285,
      "v": 102
    },
    {
      "midi": 80,
      "hit": false,
      "t": 69062.49999999997,
      "d": 466.66666666665697,
      "v": 109
    },
    {
      "midi": 57,
      "hit": false,
      "t": 69529.16666666664,
      "d": 666.6666666666715,
      "v": 74
    },
    {
      "midi": 78,
      "hit": false,
      "t": 69533.3333333333,
      "d": 2050.0000000000146,
      "v": 118
    },
    {
      "midi": 61,
      "hit": false,
      "t": 69533.33333333331,
      "d": 458.3333333333285,
      "v": 102
    },
    {
      "midi": 66,
      "hit": false,
      "t": 69533.33333333331,
      "d": 620.8333333333285,
      "v": 98
    },
    {
      "midi": 61,
      "hit": false,
      "t": 69999.99999999997,
      "d": 237.50000000001455,
      "v": 102
    },
    {
      "midi": 61,
      "hit": false,
      "t": 70008.3333333333,
      "d": 758.3333333333285,
      "v": 111
    },
    {
      "midi": 64,
      "hit": false,
      "t": 70008.3333333333,
      "d": 766.666666666657,
      "v": 105
    },
    {
      "midi": 57,
      "hit": false,
      "t": 70249.99999999999,
      "d": 666.666666666657,
      "v": 76
    },
    {
      "midi": 61,
      "hit": false,
      "t": 70258.33333333331,
      "d": 650,
      "v": 80
    },
    {
      "midi": 52,
      "hit": false,
      "t": 70258.33333333331,
      "d": 3554.1666666666424,
      "v": 77
    },
    {
      "midi": 66,
      "hit": false,
      "t": 70262.49999999999,
      "d": 674.9999999999854,
      "v": 84
    },
    {
      "midi": 61,
      "hit": false,
      "t": 70974.99999999996,
      "d": 370.83333333334303,
      "v": 98
    },
    {
      "midi": 64,
      "hit": false,
      "t": 70979.16666666663,
      "d": 370.83333333334303,
      "v": 99
    },
    {
      "midi": 57,
      "hit": false,
      "t": 70983.3333333333,
      "d": 1191.6666666666715,
      "v": 74
    },
    {
      "midi": 61,
      "hit": false,
      "t": 70987.49999999997,
      "d": 1129.1666666666715,
      "v": 102
    },
    {
      "midi": 66,
      "hit": false,
      "t": 70987.49999999997,
      "d": 1187.5,
      "v": 99
    },
    {
      "midi": 64,
      "hit": false,
      "t": 71466.66666666664,
      "d": 700,
      "v": 94
    },
    {
      "midi": 61,
      "hit": false,
      "t": 71466.66666666664,
      "d": 745.8333333333285,
      "v": 93
    },
    {
      "midi": 57,
      "hit": false,
      "t": 72204.16666666664,
      "d": 662.4999999999854,
      "v": 76
    },
    {
      "midi": 61,
      "hit": false,
      "t": 72212.49999999997,
      "d": 645.8333333333285,
      "v": 81
    },
    {
      "midi": 66,
      "hit": false,
      "t": 72212.49999999997,
      "d": 674.9999999999854,
      "v": 85
    },
    {
      "midi": 81,
      "hit": false,
      "t": 72212.49999999997,
      "d": 433.33333333334303,
      "v": 111
    },
    {
      "midi": 66,
      "hit": false,
      "t": 72216.66666666664,
      "d": 208.33333333332848,
      "v": 99
    },
    {
      "midi": 69,
      "hit": false,
      "t": 72454.16666666664,
      "d": 225,
      "v": 106
    },
    {
      "midi": 81,
      "hit": false,
      "t": 72699.99999999997,
      "d": 100,
      "v": 112
    },
    {
      "midi": 66,
      "hit": false,
      "t": 72720.8333333333,
      "d": 145.83333333334303,
      "v": 93
    },
    {
      "midi": 78,
      "hit": false,
      "t": 72912.49999999997,
      "d": 95.83333333332848,
      "v": 107
    },
    {
      "midi": 57,
      "hit": false,
      "t": 72933.33333333328,
      "d": 454.1666666666715,
      "v": 74
    },
    {
      "midi": 66,
      "hit": false,
      "t": 72937.49999999996,
      "d": 450,
      "v": 99
    },
    {
      "midi": 61,
      "hit": false,
      "t": 72937.49999999996,
      "d": 458.3333333333285,
      "v": 103
    },
    {
      "midi": 80,
      "hit": false,
      "t": 72962.49999999997,
      "d": 425,
      "v": 105
    },
    {
      "midi": 68,
      "hit": false,
      "t": 72962.49999999997,
      "d": 462.5,
      "v": 103
    },
    {
      "midi": 78,
      "hit": false,
      "t": 73412.49999999997,
      "d": 704.1666666666715,
      "v": 118
    },
    {
      "midi": 57,
      "hit": false,
      "t": 73433.33333333328,
      "d": 429.1666666666715,
      "v": 74
    },
    {
      "midi": 66,
      "hit": false,
      "t": 73437.49999999996,
      "d": 620.833333333343,
      "v": 99
    },
    {
      "midi": 61,
      "hit": false,
      "t": 73437.49999999996,
      "d": 658.333333333343,
      "v": 103
    },
    {
      "midi": 66,
      "hit": false,
      "t": 73449.99999999997,
      "d": 216.66666666667152,
      "v": 88
    },
    {
      "midi": 76,
      "hit": false,
      "t": 73666.66666666664,
      "d": 254.16666666667152,
      "v": 108
    },
    {
      "midi": 64,
      "hit": false,
      "t": 73687.49999999997,
      "d": 204.16666666667152,
      "v": 73
    },
    {
      "midi": 62,
      "hit": false,
      "t": 73895.83333333331,
      "d": 770.8333333333285,
      "v": 113
    },
    {
      "midi": 74,
      "hit": false,
      "t": 73912.49999999999,
      "d": 2170.8333333333285,
      "v": 110
    },
    {
      "midi": 57,
      "hit": false,
      "t": 73916.66666666663,
      "d": 233.33333333334303,
      "v": 102
    },
    {
      "midi": 50,
      "hit": false,
      "t": 74158.3333333333,
      "d": 3445.8333333333285,
      "v": 78
    },
    {
      "midi": 62,
      "hit": false,
      "t": 74162.49999999997,
      "d": 587.5000000000146,
      "v": 89
    },
    {
      "midi": 66,
      "hit": false,
      "t": 74166.66666666664,
      "d": 608.333333333343,
      "v": 97
    },
    {
      "midi": 57,
      "hit": false,
      "t": 74170.83333333331,
      "d": 591.6666666666715,
      "v": 89
    },
    {
      "midi": 69,
      "hit": false,
      "t": 74641.66666666664,
      "d": 254.16666666667152,
      "v": 90
    },
    {
      "midi": 66,
      "hit": false,
      "t": 74641.66666666664,
      "d": 675,
      "v": 90
    },
    {
      "midi": 57,
      "hit": false,
      "t": 74887.49999999999,
      "d": 875,
      "v": 75
    },
    {
      "midi": 66,
      "hit": false,
      "t": 74891.66666666666,
      "d": 408.3333333333285,
      "v": 102
    },
    {
      "midi": 62,
      "hit": false,
      "t": 74891.66666666666,
      "d": 662.5,
      "v": 102
    },
    {
      "midi": 62,
      "hit": false,
      "t": 74895.83333333331,
      "d": 395.8333333333285,
      "v": 112
    },
    {
      "midi": 69,
      "hit": false,
      "t": 75370.83333333331,
      "d": 254.16666666667152,
      "v": 90
    },
    {
      "midi": 66,
      "hit": false,
      "t": 75374.99999999999,
      "d": 645.8333333333285,
      "v": 74
    },
    {
      "midi": 66,
      "hit": false,
      "t": 75395.83333333331,
      "d": 1420.833333333343,
      "v": 92
    },
    {
      "midi": 62,
      "hit": false,
      "t": 75612.49999999999,
      "d": 445.8333333333285,
      "v": 101
    },
    {
      "midi": 62,
      "hit": false,
      "t": 75637.49999999999,
      "d": 2070.833333333343,
      "v": 111
    },
    {
      "midi": 57,
      "hit": false,
      "t": 75849.99999999999,
      "d": 929.166666666657,
      "v": 99
    },
    {
      "midi": 66,
      "hit": false,
      "t": 76112.49999999999,
      "d": 658.3333333333285,
      "v": 84
    },
    {
      "midi": 62,
      "hit": false,
      "t": 76112.49999999999,
      "d": 699.9999999999854,
      "v": 118
    },
    {
      "midi": 76,
      "hit": false,
      "t": 76124.99999999999,
      "d": 679.1666666666715,
      "v": 111
    },
    {
      "midi": 62,
      "hit": false,
      "t": 76837.49999999997,
      "d": 675,
      "v": 110
    },
    {
      "midi": 57,
      "hit": false,
      "t": 76841.66666666664,
      "d": 637.5,
      "v": 90
    },
    {
      "midi": 66,
      "hit": false,
      "t": 76841.66666666664,
      "d": 650,
      "v": 88
    },
    {
      "midi": 74,
      "hit": false,
      "t": 76854.16666666666,
      "d": 1141.6666666666715,
      "v": 112
    },
    {
      "midi": 66,
      "hit": false,
      "t": 77558.3333333333,
      "d": 508.3333333333285,
      "v": 78
    },
    {
      "midi": 62,
      "hit": false,
      "t": 77566.66666666663,
      "d": 466.66666666665697,
      "v": 113
    },
    {
      "midi": 57,
      "hit": false,
      "t": 77574.99999999996,
      "d": 437.5,
      "v": 99
    },
    {
      "midi": 69,
      "hit": false,
      "t": 77820.83333333333,
      "d": 2066.6666666666715,
      "v": 95
    },
    {
      "midi": 64,
      "hit": false,
      "t": 77825,
      "d": 2033.3333333333285,
      "v": 102
    },
    {
      "midi": 57,
      "hit": false,
      "t": 78062.49999999996,
      "d": 720.833333333343,
      "v": 81
    },
    {
      "midi": 45,
      "hit": false,
      "t": 78062.49999999996,
      "d": 2712.499999999971,
      "v": 78
    },
    {
      "midi": 64,
      "hit": false,
      "t": 78070.8333333333,
      "d": 579.1666666666715,
      "v": 102
    },
    {
      "midi": 61,
      "hit": false,
      "t": 78083.3333333333,
      "d": 637.5,
      "v": 89
    },
    {
      "midi": 64,
      "hit": false,
      "t": 78791.66666666663,
      "d": 579.166666666657,
      "v": 102
    },
    {
      "midi": 61,
      "hit": false,
      "t": 78791.66666666663,
      "d": 762.4999999999854,
      "v": 102
    },
    {
      "midi": 69,
      "hit": false,
      "t": 78812.49999999996,
      "d": 762.4999999999854,
      "v": 103
    },
    {
      "midi": 64,
      "hit": false,
      "t": 79520.83333333328,
      "d": 441.66666666665697,
      "v": 88
    },
    {
      "midi": 61,
      "hit": false,
      "t": 79774.99999999994,
      "d": 612.5,
      "v": 98
    },
    {
      "midi": 64,
      "hit": false,
      "t": 80012.5,
      "d": 508.3333333333285,
      "v": 101
    },
    {
      "midi": 69,
      "hit": false,
      "t": 80016.66666666661,
      "d": 699.9999999999854,
      "v": 122
    },
    {
      "midi": 64,
      "hit": false,
      "t": 80037.49999999994,
      "d": 658.3333333333285,
      "v": 96
    },
    {
      "midi": 57,
      "hit": false,
      "t": 80266.66666666661,
      "d": 487.49999999998545,
      "v": 75
    },
    {
      "midi": 69,
      "hit": false,
      "t": 80279.16666666667,
      "d": 345.8333333333285,
      "v": 108
    },
    {
      "midi": 61,
      "hit": false,
      "t": 80499.99999999994,
      "d": 233.33333333332848,
      "v": 91
    },
    {
      "midi": 73,
      "hit": false,
      "t": 80512.5,
      "d": 220.83333333332848,
      "v": 100
    },
    {
      "midi": 59,
      "hit": false,
      "t": 80754.1666666666,
      "d": 650,
      "v": 86
    },
    {
      "midi": 64,
      "hit": false,
      "t": 80754.1666666666,
      "d": 662.5,
      "v": 104
    },
    {
      "midi": 68,
      "hit": false,
      "t": 80754.1666666666,
      "d": 700,
      "v": 112
    },
    {
      "midi": 52,
      "hit": false,
      "t": 80754.1666666666,
      "d": 1179.1666666666279,
      "v": 86
    },
    {
      "midi": 71,
      "hit": false,
      "t": 80754.16666666666,
      "d": 1116.666666666657,
      "v": 105
    },
    {
      "midi": 68,
      "hit": false,
      "t": 80762.49999999999,
      "d": 1208.3333333333285,
      "v": 92
    },
    {
      "midi": 64,
      "hit": false,
      "t": 81454.1666666666,
      "d": 216.66666666665697,
      "v": 70
    },
    {
      "midi": 68,
      "hit": false,
      "t": 81474.99999999993,
      "d": 429.1666666666424,
      "v": 84
    },
    {
      "midi": 64,
      "hit": false,
      "t": 81474.99999999999,
      "d": 470.8333333333285,
      "v": 88
    },
    {
      "midi": 59,
      "hit": false,
      "t": 81487.49999999993,
      "d": 191.66666666665697,
      "v": 86
    },
    {
      "midi": 64,
      "hit": false,
      "t": 81699.99999999991,
      "d": 212.49999999998545,
      "v": 84
    },
    {
      "midi": 59,
      "hit": false,
      "t": 81720.83333333324,
      "d": 212.49999999998545,
      "v": 66
    },
    {
      "midi": 57,
      "hit": false,
      "t": 81958.33333333323,
      "d": 666.6666666666861,
      "v": 67
    },
    {
      "midi": 54,
      "hit": false,
      "t": 81962.4999999999,
      "d": 1900.0000000000146,
      "v": 66
    },
    {
      "midi": 61,
      "hit": false,
      "t": 81966.66666666657,
      "d": 645.833333333343,
      "v": 70
    },
    {
      "midi": 66,
      "hit": false,
      "t": 81970.83333333324,
      "d": 675,
      "v": 74
    },
    {
      "midi": 66,
      "hit": false,
      "t": 81979.16666666664,
      "d": 3512.5,
      "v": 100
    },
    {
      "midi": 57,
      "hit": false,
      "t": 81983.33333333331,
      "d": 3445.8333333333285,
      "v": 103
    },
    {
      "midi": 61,
      "hit": false,
      "t": 81983.33333333331,
      "d": 3687.5,
      "v": 106
    },
    {
      "midi": 57,
      "hit": false,
      "t": 82691.66666666657,
      "d": 1191.6666666666715,
      "v": 64
    },
    {
      "midi": 61,
      "hit": false,
      "t": 82695.83333333324,
      "d": 1129.1666666666715,
      "v": 93
    },
    {
      "midi": 66,
      "hit": false,
      "t": 82695.83333333324,
      "d": 1187.5,
      "v": 88
    },
    {
      "midi": 57,
      "hit": false,
      "t": 83912.49999999991,
      "d": 662.5,
      "v": 67
    },
    {
      "midi": 61,
      "hit": false,
      "t": 83916.66666666658,
      "d": 650,
      "v": 70
    },
    {
      "midi": 54,
      "hit": false,
      "t": 83916.66666666658,
      "d": 1920.8333333333285,
      "v": 67
    },
    {
      "midi": 66,
      "hit": false,
      "t": 83920.83333333326,
      "d": 674.9999999999854,
      "v": 75
    },
    {
      "midi": 57,
      "hit": false,
      "t": 84641.66666666657,
      "d": 454.1666666666715,
      "v": 65
    },
    {
      "midi": 66,
      "hit": false,
      "t": 84645.83333333324,
      "d": 450,
      "v": 89
    },
    {
      "midi": 61,
      "hit": false,
      "t": 84645.83333333324,
      "d": 458.3333333333285,
      "v": 92
    },
    {
      "midi": 57,
      "hit": false,
      "t": 85141.66666666657,
      "d": 662.5000000000146,
      "v": 65
    },
    {
      "midi": 61,
      "hit": false,
      "t": 85145.83333333324,
      "d": 454.1666666666715,
      "v": 92
    },
    {
      "midi": 66,
      "hit": false,
      "t": 85145.83333333324,
      "d": 620.833333333343,
      "v": 88
    },
    {
      "midi": 61,
      "hit": false,
      "t": 85612.49999999991,
      "d": 233.33333333332848,
      "v": 93
    },
    {
      "midi": 57,
      "hit": false,
      "t": 85862.49999999991,
      "d": 662.5,
      "v": 67
    },
    {
      "midi": 52,
      "hit": false,
      "t": 85866.66666666658,
      "d": 3554.1666666666715,
      "v": 67
    },
    {
      "midi": 61,
      "hit": false,
      "t": 85870.83333333326,
      "d": 645.8333333333285,
      "v": 71
    },
    {
      "midi": 66,
      "hit": false,
      "t": 85870.83333333326,
      "d": 674.9999999999854,
      "v": 74
    },
    {
      "midi": 61,
      "hit": false,
      "t": 85895.83333333331,
      "d": 3454.166666666657,
      "v": 110
    },
    {
      "midi": 57,
      "hit": false,
      "t": 85895.83333333331,
      "d": 3620.8333333333285,
      "v": 109
    },
    {
      "midi": 64,
      "hit": false,
      "t": 85954.16666666664,
      "d": 3195.8333333333285,
      "v": 86
    },
    {
      "midi": 57,
      "hit": false,
      "t": 86591.66666666657,
      "d": 1195.833333333343,
      "v": 64
    },
    {
      "midi": 61,
      "hit": false,
      "t": 86595.83333333324,
      "d": 1129.1666666666715,
      "v": 92
    },
    {
      "midi": 66,
      "hit": false,
      "t": 86595.83333333324,
      "d": 1191.6666666666715,
      "v": 89
    },
    {
      "midi": 57,
      "hit": false,
      "t": 87812.49999999991,
      "d": 666.6666666666715,
      "v": 67
    },
    {
      "midi": 61,
      "hit": false,
      "t": 87820.83333333324,
      "d": 645.833333333343,
      "v": 70
    },
    {
      "midi": 66,
      "hit": false,
      "t": 87824.99999999991,
      "d": 670.833333333343,
      "v": 74
    },
    {
      "midi": 57,
      "hit": false,
      "t": 88545.83333333326,
      "d": 450,
      "v": 64
    },
    {
      "midi": 66,
      "hit": false,
      "t": 88549.99999999993,
      "d": 445.8333333333285,
      "v": 88
    },
    {
      "midi": 61,
      "hit": false,
      "t": 88549.99999999993,
      "d": 458.3333333333285,
      "v": 92
    },
    {
      "midi": 57,
      "hit": false,
      "t": 89041.66666666658,
      "d": 433.33333333334303,
      "v": 64
    },
    {
      "midi": 66,
      "hit": false,
      "t": 89045.83333333326,
      "d": 620.833333333343,
      "v": 89
    },
    {
      "midi": 61,
      "hit": false,
      "t": 89045.83333333326,
      "d": 662.5000000000146,
      "v": 93
    },
    {
      "midi": 57,
      "hit": false,
      "t": 89524.99999999993,
      "d": 233.33333333334303,
      "v": 92
    },
    {
      "midi": 62,
      "hit": false,
      "t": 89770.83333333327,
      "d": 591.6666666666715,
      "v": 78
    },
    {
      "midi": 50,
      "hit": false,
      "t": 89770.83333333327,
      "d": 3441.666666666686,
      "v": 69
    },
    {
      "midi": 62,
      "hit": false,
      "t": 89770.83333333331,
      "d": 1429.1666666666715,
      "v": 108
    },
    {
      "midi": 57,
      "hit": false,
      "t": 89770.83333333331,
      "d": 1575,
      "v": 104
    },
    {
      "midi": 66,
      "hit": false,
      "t": 89774.99999999994,
      "d": 608.3333333333285,
      "v": 87
    },
    {
      "midi": 57,
      "hit": false,
      "t": 89783.33333333327,
      "d": 587.5,
      "v": 78
    },
    {
      "midi": 66,
      "hit": false,
      "t": 89812.49999999999,
      "d": 1895.8333333333285,
      "v": 102
    },
    {
      "midi": 57,
      "hit": false,
      "t": 90495.83333333327,
      "d": 875,
      "v": 64
    },
    {
      "midi": 66,
      "hit": false,
      "t": 90499.99999999994,
      "d": 412.5,
      "v": 93
    },
    {
      "midi": 62,
      "hit": false,
      "t": 90499.99999999994,
      "d": 666.666666666657,
      "v": 92
    },
    {
      "midi": 66,
      "hit": false,
      "t": 90983.33333333327,
      "d": 645.833333333343,
      "v": 64
    },
    {
      "midi": 62,
      "hit": false,
      "t": 91220.83333333327,
      "d": 450.00000000001455,
      "v": 90
    },
    {
      "midi": 62,
      "hit": false,
      "t": 91237.49999999999,
      "d": 2341.666666666657,
      "v": 106
    },
    {
      "midi": 57,
      "hit": false,
      "t": 91462.49999999994,
      "d": 929.1666666666715,
      "v": 88
    },
    {
      "midi": 57,
      "hit": false,
      "t": 91483.33333333331,
      "d": 1954.1666666666715,
      "v": 78
    },
    {
      "midi": 66,
      "hit": false,
      "t": 91720.83333333328,
      "d": 658.3333333333285,
      "v": 75
    },
    {
      "midi": 62,
      "hit": false,
      "t": 91720.83333333328,
      "d": 700,
      "v": 109
    },
    {
      "midi": 64,
      "hit": false,
      "t": 91774.99999999999,
      "d": 1670.8333333333285,
      "v": 104
    },
    {
      "midi": 62,
      "hit": false,
      "t": 92445.83333333328,
      "d": 675,
      "v": 100
    },
    {
      "midi": 57,
      "hit": false,
      "t": 92449.99999999996,
      "d": 641.6666666666715,
      "v": 80
    },
    {
      "midi": 66,
      "hit": false,
      "t": 92449.99999999996,
      "d": 650,
      "v": 78
    },
    {
      "midi": 66,
      "hit": false,
      "t": 93170.83333333328,
      "d": 504.1666666666715,
      "v": 68
    },
    {
      "midi": 62,
      "hit": false,
      "t": 93174.99999999996,
      "d": 470.8333333333285,
      "v": 102
    },
    {
      "midi": 57,
      "hit": false,
      "t": 93187.49999999996,
      "d": 433.3333333333285,
      "v": 88
    },
    {
      "midi": 45,
      "hit": false,
      "t": 93670.83333333328,
      "d": 2712.5000000000146,
      "v": 68
    },
    {
      "midi": 57,
      "hit": false,
      "t": 93674.99999999996,
      "d": 716.6666666666715,
      "v": 70
    },
    {
      "midi": 64,
      "hit": false,
      "t": 93679.16666666663,
      "d": 583.333333333343,
      "v": 92
    },
    {
      "midi": 57,
      "hit": false,
      "t": 93683.33333333331,
      "d": 1787.5,
      "v": 102
    },
    {
      "midi": 64,
      "hit": false,
      "t": 93687.49999999999,
      "d": 1658.3333333333285,
      "v": 104
    },
    {
      "midi": 61,
      "hit": false,
      "t": 93687.49999999999,
      "d": 1841.666666666657,
      "v": 101
    },
    {
      "midi": 61,
      "hit": false,
      "t": 93695.8333333333,
      "d": 637.5,
      "v": 79
    },
    {
      "midi": 64,
      "hit": false,
      "t": 94404.16666666663,
      "d": 579.1666666666715,
      "v": 92
    },
    {
      "midi": 61,
      "hit": false,
      "t": 94404.16666666663,
      "d": 762.5,
      "v": 92
    },
    {
      "midi": 69,
      "hit": false,
      "t": 94420.8333333333,
      "d": 762.5,
      "v": 92
    },
    {
      "midi": 64,
      "hit": false,
      "t": 95133.3333333333,
      "d": 437.5,
      "v": 78
    },
    {
      "midi": 61,
      "hit": false,
      "t": 95383.3333333333,
      "d": 612.5,
      "v": 89
    },
    {
      "midi": 69,
      "hit": false,
      "t": 95624.99999999997,
      "d": 700,
      "v": 112
    },
    {
      "midi": 64,
      "hit": false,
      "t": 95624.99999999997,
      "d": 595.833333333343,
      "v": 102
    },
    {
      "midi": 61,
      "hit": false,
      "t": 95629.16666666664,
      "d": 695.833333333343,
      "v": 102
    },
    {
      "midi": 69,
      "hit": false,
      "t": 95633.33333333331,
      "d": 587.5,
      "v": 104
    },
    {
      "midi": 64,
      "hit": false,
      "t": 95645.8333333333,
      "d": 658.333333333343,
      "v": 87
    },
    {
      "midi": 57,
      "hit": false,
      "t": 95874.99999999997,
      "d": 487.5,
      "v": 65
    },
    {
      "midi": 61,
      "hit": false,
      "t": 96112.49999999997,
      "d": 233.33333333332848,
      "v": 80
    },
    {
      "midi": 59,
      "hit": false,
      "t": 96362.49999999997,
      "d": 654.166666666657,
      "v": 77
    },
    {
      "midi": 64,
      "hit": false,
      "t": 96362.49999999997,
      "d": 662.4999999999854,
      "v": 94
    },
    {
      "midi": 68,
      "hit": false,
      "t": 96362.49999999997,
      "d": 704.166666666657,
      "v": 103
    },
    {
      "midi": 52,
      "hit": false,
      "t": 96362.49999999997,
      "d": 1179.1666666666279,
      "v": 77
    },
    {
      "midi": 68,
      "hit": false,
      "t": 96362.49999999999,
      "d": 1133.333333333343,
      "v": 91
    },
    {
      "midi": 64,
      "hit": false,
      "t": 96366.66666666666,
      "d": 1154.1666666666715,
      "v": 112
    },
    {
      "midi": 59,
      "hit": false,
      "t": 96383.33333333333,
      "d": 1158.3333333333285,
      "v": 93
    },
    {
      "midi": 64,
      "hit": false,
      "t": 97066.66666666663,
      "d": 212.5,
      "v": 61
    },
    {
      "midi": 68,
      "hit": false,
      "t": 97087.49999999996,
      "d": 424.99999999998545,
      "v": 74
    },
    {
      "midi": 59,
      "hit": false,
      "t": 97099.99999999996,
      "d": 187.5,
      "v": 76
    },
    {
      "midi": 64,
      "hit": false,
      "t": 97308.33333333328,
      "d": 212.49999999998545,
      "v": 75
    },
    {
      "midi": 59,
      "hit": false,
      "t": 97329.16666666661,
      "d": 212.49999999998545,
      "v": 57
    },
    {
      "midi": 57,
      "hit": false,
      "t": 97570.83333333327,
      "d": 654.1666666666715,
      "v": 67
    },
    {
      "midi": 61,
      "hit": false,
      "t": 97574.99999999994,
      "d": 591.6666666666715,
      "v": 70
    },
    {
      "midi": 54,
      "hit": false,
      "t": 97574.99999999994,
      "d": 3858.333333333343,
      "v": 67
    },
    {
      "midi": 66,
      "hit": false,
      "t": 97579.16666666661,
      "d": 608.3333333333285,
      "v": 74
    },
    {
      "midi": 57,
      "hit": false,
      "t": 97591.66666666666,
      "d": 3445.8333333333285,
      "v": 102
    },
    {
      "midi": 61,
      "hit": false,
      "t": 97591.66666666666,
      "d": 3691.666666666657,
      "v": 107
    },
    {
      "midi": 66,
      "hit": false,
      "t": 97629.16666666666,
      "d": 2412.5,
      "v": 101
    },
    {
      "midi": 57,
      "hit": false,
      "t": 98299.99999999994,
      "d": 875.0000000000146,
      "v": 64
    },
    {
      "midi": 66,
      "hit": false,
      "t": 98304.16666666661,
      "d": 412.5,
      "v": 89
    },
    {
      "midi": 61,
      "hit": false,
      "t": 98304.16666666661,
      "d": 666.6666666666715,
      "v": 93
    },
    {
      "midi": 66,
      "hit": false,
      "t": 98791.66666666661,
      "d": 654.1666666666861,
      "v": 78
    },
    {
      "midi": 61,
      "hit": false,
      "t": 99024.99999999996,
      "d": 470.83333333334303,
      "v": 90
    },
    {
      "midi": 57,
      "hit": false,
      "t": 99266.66666666663,
      "d": 879.166666666657,
      "v": 88
    },
    {
      "midi": 61,
      "hit": false,
      "t": 99520.8333333333,
      "d": 654.166666666657,
      "v": 102
    },
    {
      "midi": 66,
      "hit": false,
      "t": 99529.16666666663,
      "d": 608.3333333333285,
      "v": 88
    },
    {
      "midi": 61,
      "hit": false,
      "t": 100249.99999999996,
      "d": 412.5,
      "v": 84
    },
    {
      "midi": 57,
      "hit": false,
      "t": 100254.16666666663,
      "d": 370.8333333333285,
      "v": 91
    },
    {
      "midi": 66,
      "hit": false,
      "t": 100266.66666666663,
      "d": 391.66666666665697,
      "v": 89
    },
    {
      "midi": 69,
      "hit": false,
      "t": 100287.49999999999,
      "d": 508.3333333333285,
      "v": 115
    },
    {
      "midi": 57,
      "hit": false,
      "t": 100745.83333333328,
      "d": 700,
      "v": 99
    },
    {
      "midi": 61,
      "hit": false,
      "t": 100745.83333333328,
      "d": 700,
      "v": 86
    },
    {
      "midi": 66,
      "hit": false,
      "t": 100754.16666666661,
      "d": 691.6666666666715,
      "v": 88
    },
    {
      "midi": 71,
      "hit": false,
      "t": 100995.83333333331,
      "d": 470.8333333333285,
      "v": 114
    },
    {
      "midi": 52,
      "hit": false,
      "t": 101474.99999999996,
      "d": 3670.833333333343,
      "v": 67
    },
    {
      "midi": 61,
      "hit": false,
      "t": 101479.16666666663,
      "d": 637.5,
      "v": 78
    },
    {
      "midi": 57,
      "hit": false,
      "t": 101479.16666666663,
      "d": 658.3333333333285,
      "v": 84
    },
    {
      "midi": 66,
      "hit": false,
      "t": 101483.3333333333,
      "d": 608.3333333333285,
      "v": 83
    },
    {
      "midi": 64,
      "hit": false,
      "t": 101483.33333333331,
      "d": 3191.6666666666424,
      "v": 87
    },
    {
      "midi": 73,
      "hit": false,
      "t": 101495.83333333331,
      "d": 2204.166666666657,
      "v": 109
    },
    {
      "midi": 61,
      "hit": false,
      "t": 101504.16666666664,
      "d": 2358.3333333333285,
      "v": 110
    },
    {
      "midi": 57,
      "hit": false,
      "t": 102204.16666666663,
      "d": 875,
      "v": 64
    },
    {
      "midi": 66,
      "hit": false,
      "t": 102208.3333333333,
      "d": 408.3333333333285,
      "v": 88
    },
    {
      "midi": 61,
      "hit": false,
      "t": 102208.3333333333,
      "d": 662.5,
      "v": 92
    },
    {
      "midi": 66,
      "hit": false,
      "t": 102691.66666666663,
      "d": 662.5,
      "v": 78
    },
    {
      "midi": 61,
      "hit": false,
      "t": 102929.16666666663,
      "d": 445.8333333333285,
      "v": 91
    },
    {
      "midi": 57,
      "hit": false,
      "t": 103170.8333333333,
      "d": 916.6666666666424,
      "v": 89
    },
    {
      "midi": 61,
      "hit": false,
      "t": 103420.83333333328,
      "d": 658.3333333333285,
      "v": 102
    },
    {
      "midi": 66,
      "hit": false,
      "t": 103429.16666666661,
      "d": 608.3333333333285,
      "v": 88
    },
    {
      "midi": 68,
      "hit": false,
      "t": 103924.99999999997,
      "d": 245.83333333332848,
      "v": 60
    },
    {
      "midi": 61,
      "hit": false,
      "t": 104154.16666666661,
      "d": 695.833333333343,
      "v": 84
    },
    {
      "midi": 57,
      "hit": false,
      "t": 104162.49999999994,
      "d": 608.333333333343,
      "v": 84
    },
    {
      "midi": 66,
      "hit": false,
      "t": 104166.66666666661,
      "d": 641.6666666666715,
      "v": 88
    },
    {
      "midi": 69,
      "hit": false,
      "t": 104179.16666666663,
      "d": 662.5,
      "v": 103
    },
    {
      "midi": 71,
      "hit": false,
      "t": 104879.16666666663,
      "d": 450,
      "v": 115
    },
    {
      "midi": 61,
      "hit": false,
      "t": 104891.66666666663,
      "d": 425,
      "v": 86
    },
    {
      "midi": 57,
      "hit": false,
      "t": 104895.8333333333,
      "d": 420.8333333333285,
      "v": 98
    },
    {
      "midi": 66,
      "hit": false,
      "t": 104899.99999999997,
      "d": 416.66666666665697,
      "v": 88
    },
    {
      "midi": 50,
      "hit": false,
      "t": 105379.16666666663,
      "d": 3445.833333333343,
      "v": 74
    },
    {
      "midi": 57,
      "hit": false,
      "t": 105383.3333333333,
      "d": 587.5,
      "v": 78
    },
    {
      "midi": 62,
      "hit": false,
      "t": 105383.3333333333,
      "d": 587.5,
      "v": 79
    },
    {
      "midi": 66,
      "hit": false,
      "t": 105383.3333333333,
      "d": 608.3333333333285,
      "v": 86
    },
    {
      "midi": 62,
      "hit": false,
      "t": 105383.3333333333,
      "d": 1429.1666666666715,
      "v": 109
    },
    {
      "midi": 66,
      "hit": false,
      "t": 105383.3333333333,
      "d": 1937.5,
      "v": 103
    },
    {
      "midi": 73,
      "hit": false,
      "t": 105391.66666666663,
      "d": 1279.1666666666715,
      "v": 114
    },
    {
      "midi": 57,
      "hit": false,
      "t": 106104.16666666663,
      "d": 875.0000000000146,
      "v": 64
    },
    {
      "midi": 66,
      "hit": false,
      "t": 106108.3333333333,
      "d": 412.5,
      "v": 93
    },
    {
      "midi": 62,
      "hit": false,
      "t": 106108.3333333333,
      "d": 666.6666666666715,
      "v": 92
    },
    {
      "midi": 66,
      "hit": false,
      "t": 106595.8333333333,
      "d": 662.5000000000146,
      "v": 78
    },
    {
      "midi": 62,
      "hit": false,
      "t": 106829.16666666664,
      "d": 450,
      "v": 91
    },
    {
      "midi": 62,
      "hit": false,
      "t": 106858.3333333333,
      "d": 450,
      "v": 122
    },
    {
      "midi": 57,
      "hit": false,
      "t": 107070.83333333331,
      "d": 1345.8333333333285,
      "v": 89
    },
    {
      "midi": 57,
      "hit": false,
      "t": 107074.99999999997,
      "d": 937.4999999999854,
      "v": 108
    },
    {
      "midi": 62,
      "hit": false,
      "t": 107333.33333333331,
      "d": 658.3333333333285,
      "v": 78
    },
    {
      "midi": 66,
      "hit": false,
      "t": 107337.49999999999,
      "d": 608.3333333333285,
      "v": 87
    },
    {
      "midi": 64,
      "hit": false,
      "t": 107341.66666666663,
      "d": 1237.5,
      "v": 117
    },
    {
      "midi": 66,
      "hit": false,
      "t": 108070.83333333331,
      "d": 412.5,
      "v": 92
    },
    {
      "midi": 62,
      "hit": false,
      "t": 108070.83333333331,
      "d": 600,
      "v": 93
    },
    {
      "midi": 57,
      "hit": false,
      "t": 108074.99999999996,
      "d": 1195.833333333343,
      "v": 109
    },
    {
      "midi": 57,
      "hit": false,
      "t": 108545.83333333331,
      "d": 633.3333333333285,
      "v": 65
    },
    {
      "midi": 66,
      "hit": false,
      "t": 108804.16666666664,
      "d": 408.3333333333285,
      "v": 92
    },
    {
      "midi": 62,
      "hit": false,
      "t": 108804.16666666664,
      "d": 445.8333333333285,
      "v": 93
    },
    {
      "midi": 68,
      "hit": false,
      "t": 109274.99999999997,
      "d": 670.833333333343,
      "v": 82
    },
    {
      "midi": 64,
      "hit": false,
      "t": 109274.99999999997,
      "d": 1845.8333333333285,
      "v": 100
    },
    {
      "midi": 59,
      "hit": false,
      "t": 109279.16666666664,
      "d": 650,
      "v": 85
    },
    {
      "midi": 52,
      "hit": false,
      "t": 109279.16666666664,
      "d": 1900.0000000000146,
      "v": 69
    },
    {
      "midi": 59,
      "hit": false,
      "t": 109283.3333333333,
      "d": 1787.5,
      "v": 104
    },
    {
      "midi": 64,
      "hit": false,
      "t": 109283.33333333331,
      "d": 645.8333333333285,
      "v": 91
    },
    {
      "midi": 68,
      "hit": false,
      "t": 109295.8333333333,
      "d": 1662.5,
      "v": 104
    },
    {
      "midi": 68,
      "hit": false,
      "t": 110004.16666666664,
      "d": 591.6666666666715,
      "v": 79
    },
    {
      "midi": 59,
      "hit": false,
      "t": 110008.33333333331,
      "d": 575,
      "v": 84
    },
    {
      "midi": 64,
      "hit": false,
      "t": 110008.33333333331,
      "d": 604.1666666666715,
      "v": 94
    },
    {
      "midi": 64,
      "hit": false,
      "t": 110737.49999999999,
      "d": 416.6666666666715,
      "v": 94
    },
    {
      "midi": 59,
      "hit": false,
      "t": 110741.66666666666,
      "d": 433.3333333333285,
      "v": 85
    },
    {
      "midi": 68,
      "hit": false,
      "t": 110741.66666666666,
      "d": 437.5,
      "v": 97
    },
    {
      "midi": 65,
      "hit": false,
      "t": 111233.3333333333,
      "d": 516.6666666666715,
      "v": 102
    },
    {
      "midi": 41,
      "hit": false,
      "t": 111233.33333333333,
      "d": 1900,
      "v": 82
    },
    {
      "midi": 61,
      "hit": false,
      "t": 111237.49999999997,
      "d": 554.1666666666715,
      "v": 102
    },
    {
      "midi": 61,
      "hit": false,
      "t": 111241.66666666666,
      "d": 675,
      "v": 78
    },
    {
      "midi": 65,
      "hit": false,
      "t": 111241.66666666666,
      "d": 675,
      "v": 90
    },
    {
      "midi": 68,
      "hit": false,
      "t": 111245.8333333333,
      "d": 462.5,
      "v": 104
    },
    {
      "midi": 59,
      "hit": false,
      "t": 111245.83333333333,
      "d": 675,
      "v": 82
    },
    {
      "midi": 61,
      "hit": false,
      "t": 111958.33333333333,
      "d": 591.6666666666715,
      "v": 90
    },
    {
      "midi": 65,
      "hit": false,
      "t": 111958.33333333333,
      "d": 600,
      "v": 104
    },
    {
      "midi": 59,
      "hit": false,
      "t": 111958.33333333333,
      "d": 612.5,
      "v": 83
    },
    {
      "midi": 65,
      "hit": false,
      "t": 111966.66666666664,
      "d": 1045.833333333343,
      "v": 103
    },
    {
      "midi": 61,
      "hit": false,
      "t": 111970.83333333331,
      "d": 1041.6666666666715,
      "v": 103
    },
    {
      "midi": 68,
      "hit": false,
      "t": 111974.99999999999,
      "d": 1037.5,
      "v": 104
    },
    {
      "midi": 59,
      "hit": false,
      "t": 112687.5,
      "d": 350,
      "v": 95
    },
    {
      "midi": 65,
      "hit": false,
      "t": 112687.5,
      "d": 383.3333333333285,
      "v": 110
    },
    {
      "midi": 61,
      "hit": false,
      "t": 112687.5,
      "d": 412.5,
      "v": 101
    },
    {
      "midi": 57,
      "hit": false,
      "t": 113179.16666666666,
      "d": 666.6666666666715,
      "v": 76
    },
    {
      "midi": 61,
      "hit": false,
      "t": 113183.33333333331,
      "d": 616.6666666666715,
      "v": 93
    },
    {
      "midi": 54,
      "hit": false,
      "t": 113183.33333333333,
      "d": 1900,
      "v": 77
    },
    {
      "midi": 66,
      "hit": false,
      "t": 113187.49999999999,
      "d": 637.5,
      "v": 86
    },
    {
      "midi": 61,
      "hit": false,
      "t": 113187.5,
      "d": 645.8333333333285,
      "v": 80
    },
    {
      "midi": 66,
      "hit": false,
      "t": 113187.5,
      "d": 675,
      "v": 84
    },
    {
      "midi": 57,
      "hit": false,
      "t": 113908.33333333333,
      "d": 1195.8333333333285,
      "v": 75
    },
    {
      "midi": 61,
      "hit": false,
      "t": 113916.66666666666,
      "d": 1125,
      "v": 102
    },
    {
      "midi": 66,
      "hit": false,
      "t": 113916.66666666666,
      "d": 1187.5,
      "v": 98
    },
    {
      "midi": 66,
      "hit": false,
      "t": 113920.83333333331,
      "d": 1141.666666666657,
      "v": 103
    },
    {
      "midi": 61,
      "hit": false,
      "t": 113929.16666666664,
      "d": 1133.3333333333285,
      "v": 92
    },
    {
      "midi": 61,
      "hit": false,
      "t": 115120.8333333333,
      "d": 366.66666666665697,
      "v": 101
    },
    {
      "midi": 81,
      "hit": false,
      "t": 115120.8333333333,
      "d": 491.66666666665697,
      "v": 104
    },
    {
      "midi": 57,
      "hit": false,
      "t": 115129.16666666666,
      "d": 666.6666666666861,
      "v": 76
    },
    {
      "midi": 54,
      "hit": false,
      "t": 115133.33333333333,
      "d": 1920.833333333343,
      "v": 76
    },
    {
      "midi": 61,
      "hit": false,
      "t": 115137.5,
      "d": 645.833333333343,
      "v": 81
    },
    {
      "midi": 66,
      "hit": false,
      "t": 115141.66666666667,
      "d": 675,
      "v": 85
    },
    {
      "midi": 66,
      "hit": false,
      "t": 115391.66666666663,
      "d": 437.49999999998545,
      "v": 96
    },
    {
      "midi": 81,
      "hit": false,
      "t": 115620.83333333328,
      "d": 108.33333333332848,
      "v": 100
    },
    {
      "midi": 61,
      "hit": false,
      "t": 115633.33333333328,
      "d": 266.66666666665697,
      "v": 78
    },
    {
      "midi": 78,
      "hit": false,
      "t": 115837.49999999994,
      "d": 100,
      "v": 108
    },
    {
      "midi": 57,
      "hit": false,
      "t": 115862.5,
      "d": 450,
      "v": 74
    },
    {
      "midi": 66,
      "hit": false,
      "t": 115866.66666666667,
      "d": 445.8333333333285,
      "v": 98
    },
    {
      "midi": 61,
      "hit": false,
      "t": 115866.66666666667,
      "d": 458.3333333333285,
      "v": 102
    },
    {
      "midi": 64,
      "hit": false,
      "t": 115887.49999999994,
      "d": 829.1666666666715,
      "v": 95
    },
    {
      "midi": 80,
      "hit": false,
      "t": 115895.83333333327,
      "d": 462.5,
      "v": 105
    },
    {
      "midi": 61,
      "hit": false,
      "t": 116358.33333333327,
      "d": 420.83333333334303,
      "v": 68
    },
    {
      "midi": 57,
      "hit": false,
      "t": 116358.33333333333,
      "d": 666.6666666666715,
      "v": 74
    },
    {
      "midi": 78,
      "hit": false,
      "t": 116362.49999999994,
      "d": 2050.0000000000146,
      "v": 114
    },
    {
      "midi": 61,
      "hit": false,
      "t": 116362.5,
      "d": 458.3333333333285,
      "v": 102
    },
    {
      "midi": 66,
      "hit": false,
      "t": 116362.5,
      "d": 620.8333333333285,
      "v": 98
    },
    {
      "midi": 61,
      "hit": false,
      "t": 116833.33333333333,
      "d": 233.33333333334303,
      "v": 102
    },
    {
      "midi": 64,
      "hit": false,
      "t": 116841.66666666661,
      "d": 1329.1666666666715,
      "v": 106
    },
    {
      "midi": 61,
      "hit": false,
      "t": 116845.83333333328,
      "d": 1250,
      "v": 102
    },
    {
      "midi": 57,
      "hit": false,
      "t": 117083.33333333334,
      "d": 662.5,
      "v": 76
    },
    {
      "midi": 61,
      "hit": false,
      "t": 117087.50000000001,
      "d": 650,
      "v": 81
    },
    {
      "midi": 52,
      "hit": false,
      "t": 117087.50000000001,
      "d": 3554.166666666628,
      "v": 76
    },
    {
      "midi": 66,
      "hit": false,
      "t": 117091.66666666669,
      "d": 674.9999999999854,
      "v": 84
    },
    {
      "midi": 57,
      "hit": false,
      "t": 117812.5,
      "d": 1195.833333333343,
      "v": 74
    },
    {
      "midi": 61,
      "hit": false,
      "t": 117816.66666666667,
      "d": 1129.1666666666715,
      "v": 102
    },
    {
      "midi": 66,
      "hit": false,
      "t": 117816.66666666667,
      "d": 1191.6666666666715,
      "v": 98
    },
    {
      "midi": 61,
      "hit": false,
      "t": 118295.83333333328,
      "d": 400,
      "v": 84
    },
    {
      "midi": 64,
      "hit": false,
      "t": 118299.99999999996,
      "d": 412.5,
      "v": 86
    },
    {
      "midi": 64,
      "hit": false,
      "t": 118804.16666666663,
      "d": 604.166666666657,
      "v": 92
    },
    {
      "midi": 61,
      "hit": false,
      "t": 118804.16666666663,
      "d": 1741.666666666657,
      "v": 98
    },
    {
      "midi": 57,
      "hit": false,
      "t": 119033.33333333334,
      "d": 662.4999999999854,
      "v": 77
    },
    {
      "midi": 81,
      "hit": false,
      "t": 119041.66666666663,
      "d": 474.99999999998545,
      "v": 106
    },
    {
      "midi": 61,
      "hit": false,
      "t": 119041.66666666667,
      "d": 645.8333333333285,
      "v": 80
    },
    {
      "midi": 66,
      "hit": false,
      "t": 119041.66666666667,
      "d": 674.9999999999854,
      "v": 85
    },
    {
      "midi": 69,
      "hit": false,
      "t": 119262.49999999996,
      "d": 270.8333333333285,
      "v": 85
    },
    {
      "midi": 81,
      "hit": false,
      "t": 119529.16666666661,
      "d": 100.00000000001455,
      "v": 108
    },
    {
      "midi": 66,
      "hit": false,
      "t": 119537.49999999996,
      "d": 266.6666666666715,
      "v": 84
    },
    {
      "midi": 78,
      "hit": false,
      "t": 119741.66666666663,
      "d": 95.83333333332848,
      "v": 102
    },
    {
      "midi": 57,
      "hit": false,
      "t": 119762.49999999999,
      "d": 454.16666666665697,
      "v": 75
    },
    {
      "midi": 66,
      "hit": false,
      "t": 119770.83333333331,
      "d": 445.8333333333285,
      "v": 99
    },
    {
      "midi": 61,
      "hit": false,
      "t": 119770.83333333331,
      "d": 454.16666666665697,
      "v": 102
    },
    {
      "midi": 68,
      "hit": false,
      "t": 119779.16666666663,
      "d": 483.3333333333285,
      "v": 106
    },
    {
      "midi": 80,
      "hit": false,
      "t": 119791.66666666663,
      "d": 425,
      "v": 101
    },
    {
      "midi": 78,
      "hit": false,
      "t": 120241.66666666663,
      "d": 704.166666666657,
      "v": 114
    },
    {
      "midi": 57,
      "hit": false,
      "t": 120262.49999999997,
      "d": 433.33333333334303,
      "v": 75
    },
    {
      "midi": 66,
      "hit": false,
      "t": 120266.66666666664,
      "d": 620.833333333343,
      "v": 98
    },
    {
      "midi": 61,
      "hit": false,
      "t": 120266.66666666664,
      "d": 658.333333333343,
      "v": 103
    },
    {
      "midi": 66,
      "hit": false,
      "t": 120270.83333333328,
      "d": 208.33333333332848,
      "v": 103
    },
    {
      "midi": 76,
      "hit": false,
      "t": 120495.83333333328,
      "d": 254.16666666667152,
      "v": 113
    },
    {
      "midi": 64,
      "hit": false,
      "t": 120499.99999999996,
      "d": 270.8333333333285,
      "v": 80
    },
    {
      "midi": 74,
      "hit": false,
      "t": 120741.66666666661,
      "d": 2170.833333333343,
      "v": 115
    },
    {
      "midi": 62,
      "hit": false,
      "t": 120745.83333333328,
      "d": 1687.5,
      "v": 115
    },
    {
      "midi": 57,
      "hit": false,
      "t": 120745.83333333331,
      "d": 233.33333333334303,
      "v": 103
    },
    {
      "midi": 50,
      "hit": false,
      "t": 120987.49999999999,
      "d": 3445.8333333333285,
      "v": 78
    },
    {
      "midi": 62,
      "hit": false,
      "t": 120991.66666666666,
      "d": 591.6666666666715,
      "v": 88
    },
    {
      "midi": 66,
      "hit": false,
      "t": 120995.83333333333,
      "d": 608.3333333333285,
      "v": 97
    },
    {
      "midi": 57,
      "hit": false,
      "t": 121000,
      "d": 591.666666666657,
      "v": 89
    },
    {
      "midi": 57,
      "hit": false,
      "t": 121716.66666666666,
      "d": 875,
      "v": 75
    },
    {
      "midi": 66,
      "hit": false,
      "t": 121720.83333333333,
      "d": 408.3333333333285,
      "v": 103
    },
    {
      "midi": 62,
      "hit": false,
      "t": 121720.83333333333,
      "d": 662.5,
      "v": 102
    },
    {
      "midi": 66,
      "hit": false,
      "t": 122204.16666666666,
      "d": 641.6666666666715,
      "v": 74
    },
    {
      "midi": 62,
      "hit": false,
      "t": 122441.66666666666,
      "d": 445.83333333334303,
      "v": 100
    },
    {
      "midi": 57,
      "hit": false,
      "t": 122679.16666666666,
      "d": 929.1666666666715,
      "v": 99
    },
    {
      "midi": 57,
      "hit": false,
      "t": 122699.99999999996,
      "d": 1950,
      "v": 110
    },
    {
      "midi": 66,
      "hit": false,
      "t": 122941.66666666667,
      "d": 658.3333333333285,
      "v": 85
    },
    {
      "midi": 62,
      "hit": false,
      "t": 122941.66666666667,
      "d": 699.9999999999854,
      "v": 118
    },
    {
      "midi": 76,
      "hit": false,
      "t": 122962.49999999996,
      "d": 666.6666666666715,
      "v": 117
    },
    {
      "midi": 64,
      "hit": false,
      "t": 122966.66666666663,
      "d": 1579.166666666657,
      "v": 113
    },
    {
      "midi": 62,
      "hit": false,
      "t": 123666.66666666666,
      "d": 675,
      "v": 110
    },
    {
      "midi": 57,
      "hit": false,
      "t": 123670.83333333333,
      "d": 637.5,
      "v": 90
    },
    {
      "midi": 66,
      "hit": false,
      "t": 123670.83333333333,
      "d": 650,
      "v": 88
    },
    {
      "midi": 73,
      "hit": false,
      "t": 123687.49999999996,
      "d": 2108.333333333343,
      "v": 104
    },
    {
      "midi": 66,
      "hit": false,
      "t": 124387.49999999999,
      "d": 508.3333333333285,
      "v": 78
    },
    {
      "midi": 62,
      "hit": false,
      "t": 124395.83333333331,
      "d": 466.66666666665697,
      "v": 112
    },
    {
      "midi": 57,
      "hit": false,
      "t": 124404.16666666664,
      "d": 437.5,
      "v": 99
    },
    {
      "midi": 64,
      "hit": false,
      "t": 124654.16666666663,
      "d": 1612.5,
      "v": 110
    },
    {
      "midi": 61,
      "hit": false,
      "t": 124658.3333333333,
      "d": 1808.3333333333285,
      "v": 111
    },
    {
      "midi": 45,
      "hit": false,
      "t": 124891.66666666664,
      "d": 2712.4999999999854,
      "v": 79
    },
    {
      "midi": 57,
      "hit": false,
      "t": 124895.83333333331,
      "d": 716.6666666666715,
      "v": 80
    },
    {
      "midi": 64,
      "hit": false,
      "t": 124899.99999999999,
      "d": 579.1666666666715,
      "v": 103
    },
    {
      "midi": 61,
      "hit": false,
      "t": 124912.49999999999,
      "d": 637.5,
      "v": 88
    },
    {
      "midi": 64,
      "hit": false,
      "t": 125620.83333333331,
      "d": 579.166666666657,
      "v": 103
    },
    {
      "midi": 61,
      "hit": false,
      "t": 125620.83333333331,
      "d": 762.4999999999854,
      "v": 102
    },
    {
      "midi": 69,
      "hit": false,
      "t": 125641.66666666664,
      "d": 762.4999999999854,
      "v": 102
    },
    {
      "midi": 64,
      "hit": false,
      "t": 126349.99999999997,
      "d": 441.66666666665697,
      "v": 89
    },
    {
      "midi": 64,
      "hit": false,
      "t": 126362.49999999996,
      "d": 1137.5,
      "v": 119
    },
    {
      "midi": 61,
      "hit": false,
      "t": 126574.99999999996,
      "d": 1050.0000000000146,
      "v": 91
    },
    {
      "midi": 61,
      "hit": false,
      "t": 126604.16666666663,
      "d": 612.5,
      "v": 98
    },
    {
      "midi": 69,
      "hit": false,
      "t": 126845.8333333333,
      "d": 700,
      "v": 122
    },
    {
      "midi": 64,
      "hit": false,
      "t": 126866.66666666663,
      "d": 654.1666666666715,
      "v": 96
    },
    {
      "midi": 57,
      "hit": false,
      "t": 127095.8333333333,
      "d": 487.5,
      "v": 74
    },
    {
      "midi": 69,
      "hit": false,
      "t": 127108.33333333328,
      "d": 237.5,
      "v": 109
    },
    {
      "midi": 61,
      "hit": false,
      "t": 127329.16666666663,
      "d": 233.33333333334303,
      "v": 91
    },
    {
      "midi": 73,
      "hit": false,
      "t": 127341.66666666661,
      "d": 220.83333333334303,
      "v": 100
    },
    {
      "midi": 64,
      "hit": false,
      "t": 127566.66666666663,
      "d": 1120.833333333343,
      "v": 84
    },
    {
      "midi": 59,
      "hit": false,
      "t": 127583.3333333333,
      "d": 650,
      "v": 86
    },
    {
      "midi": 64,
      "hit": false,
      "t": 127583.3333333333,
      "d": 662.5,
      "v": 104
    },
    {
      "midi": 68,
      "hit": false,
      "t": 127583.3333333333,
      "d": 700,
      "v": 113
    },
    {
      "midi": 52,
      "hit": false,
      "t": 127583.3333333333,
      "d": 1179.1666666666424,
      "v": 86
    },
    {
      "midi": 71,
      "hit": false,
      "t": 127583.3333333333,
      "d": 1120.833333333343,
      "v": 104
    },
    {
      "midi": 64,
      "hit": false,
      "t": 128283.3333333333,
      "d": 212.5,
      "v": 70
    },
    {
      "midi": 68,
      "hit": false,
      "t": 128304.16666666663,
      "d": 429.16666666665697,
      "v": 84
    },
    {
      "midi": 59,
      "hit": false,
      "t": 128320.8333333333,
      "d": 187.5,
      "v": 86
    },
    {
      "midi": 64,
      "hit": false,
      "t": 128529.16666666663,
      "d": 212.49999999998545,
      "v": 84
    },
    {
      "midi": 59,
      "hit": false,
      "t": 128549.99999999996,
      "d": 212.49999999998545,
      "v": 66
    },
    {
      "midi": 61,
      "hit": false,
      "t": 128783.33333333331,
      "d": 675,
      "v": 109
    },
    {
      "midi": 57,
      "hit": false,
      "t": 128787.49999999994,
      "d": 666.6666666666715,
      "v": 76
    },
    {
      "midi": 54,
      "hit": false,
      "t": 128791.66666666661,
      "d": 1904.1666666666715,
      "v": 77
    },
    {
      "midi": 61,
      "hit": false,
      "t": 128795.83333333328,
      "d": 650,
      "v": 80
    },
    {
      "midi": 66,
      "hit": false,
      "t": 128799.99999999996,
      "d": 674.9999999999854,
      "v": 84
    },
    {
      "midi": 66,
      "hit": false,
      "t": 128829.16666666664,
      "d": 1145.8333333333285,
      "v": 113
    },
    {
      "midi": 57,
      "hit": false,
      "t": 129520.83333333327,
      "d": 1191.666666666686,
      "v": 74
    },
    {
      "midi": 61,
      "hit": false,
      "t": 129524.99999999994,
      "d": 1129.1666666666715,
      "v": 103
    },
    {
      "midi": 66,
      "hit": false,
      "t": 129524.99999999994,
      "d": 1187.5000000000146,
      "v": 98
    },
    {
      "midi": 61,
      "hit": false,
      "t": 129554.16666666664,
      "d": 1112.5,
      "v": 86
    },
    {
      "midi": 66,
      "hit": false,
      "t": 130029.16666666664,
      "d": 1158.3333333333576,
      "v": 88
    },
    {
      "midi": 81,
      "hit": false,
      "t": 130733.33333333331,
      "d": 408.33333333334303,
      "v": 108
    },
    {
      "midi": 57,
      "hit": false,
      "t": 130741.66666666663,
      "d": 662.5000000000291,
      "v": 76
    },
    {
      "midi": 61,
      "hit": false,
      "t": 130745.8333333333,
      "d": 650.0000000000146,
      "v": 81
    },
    {
      "midi": 54,
      "hit": false,
      "t": 130745.8333333333,
      "d": 1920.8333333333576,
      "v": 77
    },
    {
      "midi": 66,
      "hit": false,
      "t": 130749.99999999997,
      "d": 675.0000000000291,
      "v": 84
    },
    {
      "midi": 81,
      "hit": false,
      "t": 131229.16666666666,
      "d": 108.33333333334303,
      "v": 104
    },
    {
      "midi": 78,
      "hit": false,
      "t": 131445.83333333334,
      "d": 100,
      "v": 112
    },
    {
      "midi": 57,
      "hit": false,
      "t": 131470.83333333334,
      "d": 450,
      "v": 75
    },
    {
      "midi": 66,
      "hit": false,
      "t": 131475,
      "d": 445.83333333334303,
      "v": 99
    },
    {
      "midi": 61,
      "hit": false,
      "t": 131475,
      "d": 458.33333333334303,
      "v": 102
    },
    {
      "midi": 80,
      "hit": false,
      "t": 131504.1666666667,
      "d": 462.5,
      "v": 108
    },
    {
      "midi": 57,
      "hit": false,
      "t": 131970.83333333334,
      "d": 662.4999999999709,
      "v": 75
    },
    {
      "midi": 78,
      "hit": false,
      "t": 131970.83333333334,
      "d": 2054.166666666657,
      "v": 119
    },
    {
      "midi": 61,
      "hit": false,
      "t": 131975,
      "d": 454.16666666665697,
      "v": 102
    },
    {
      "midi": 66,
      "hit": false,
      "t": 131975,
      "d": 620.8333333333139,
      "v": 99
    },
    {
      "midi": 61,
      "hit": false,
      "t": 132441.66666666666,
      "d": 233.33333333334303,
      "v": 102
    },
    {
      "midi": 64,
      "hit": false,
      "t": 132445.83333333334,
      "d": 770.833333333343,
      "v": 105
    },
    {
      "midi": 61,
      "hit": false,
      "t": 132450,
      "d": 758.333333333343,
      "v": 110
    },
    {
      "midi": 57,
      "hit": false,
      "t": 132691.66666666666,
      "d": 662.5,
      "v": 77
    },
    {
      "midi": 52,
      "hit": false,
      "t": 132695.8333333333,
      "d": 3554.166666666686,
      "v": 77
    },
    {
      "midi": 61,
      "hit": false,
      "t": 132699.99999999997,
      "d": 645.833333333343,
      "v": 81
    },
    {
      "midi": 66,
      "hit": false,
      "t": 132699.99999999997,
      "d": 675.0000000000291,
      "v": 85
    },
    {
      "midi": 61,
      "hit": false,
      "t": 133416.6666666667,
      "d": 370.83333333334303,
      "v": 99
    },
    {
      "midi": 64,
      "hit": false,
      "t": 133416.6666666667,
      "d": 375,
      "v": 98
    },
    {
      "midi": 57,
      "hit": false,
      "t": 133420.83333333334,
      "d": 1195.833333333314,
      "v": 74
    },
    {
      "midi": 61,
      "hit": false,
      "t": 133425,
      "d": 1129.166666666657,
      "v": 102
    },
    {
      "midi": 66,
      "hit": false,
      "t": 133425,
      "d": 1191.666666666657,
      "v": 98
    },
    {
      "midi": 61,
      "hit": false,
      "t": 133904.1666666667,
      "d": 745.8333333333139,
      "v": 93
    },
    {
      "midi": 64,
      "hit": false,
      "t": 133908.33333333334,
      "d": 695.8333333333139,
      "v": 94
    },
    {
      "midi": 57,
      "hit": false,
      "t": 134641.66666666666,
      "d": 666.666666666657,
      "v": 77
    },
    {
      "midi": 61,
      "hit": false,
      "t": 134650,
      "d": 645.8333333333139,
      "v": 81
    },
    {
      "midi": 81,
      "hit": false,
      "t": 134650,
      "d": 474.9999999999709,
      "v": 110
    },
    {
      "midi": 66,
      "hit": false,
      "t": 134654.16666666666,
      "d": 675,
      "v": 84
    },
    {
      "midi": 66,
      "hit": false,
      "t": 134658.33333333334,
      "d": 204.16666666665697,
      "v": 95
    },
    {
      "midi": 69,
      "hit": false,
      "t": 134891.66666666666,
      "d": 229.16666666665697,
      "v": 100
    },
    {
      "midi": 81,
      "hit": false,
      "t": 135141.66666666663,
      "d": 95.83333333331393,
      "v": 112
    },
    {
      "midi": 66,
      "hit": false,
      "t": 135158.33333333328,
      "d": 145.83333333331393,
      "v": 86
    },
    {
      "midi": 78,
      "hit": false,
      "t": 135349.99999999994,
      "d": 95.83333333334303,
      "v": 106
    },
    {
      "midi": 57,
      "hit": false,
      "t": 135370.8333333333,
      "d": 454.16666666668607,
      "v": 74
    },
    {
      "midi": 66,
      "hit": false,
      "t": 135379.16666666666,
      "d": 445.83333333334303,
      "v": 98
    },
    {
      "midi": 61,
      "hit": false,
      "t": 135379.16666666666,
      "d": 458.33333333334303,
      "v": 102
    },
    {
      "midi": 80,
      "hit": false,
      "t": 135399.99999999994,
      "d": 425,
      "v": 105
    },
    {
      "midi": 68,
      "hit": false,
      "t": 135399.99999999994,
      "d": 462.5,
      "v": 99
    },
    {
      "midi": 78,
      "hit": false,
      "t": 135854.1666666666,
      "d": 704.1666666666279,
      "v": 118
    },
    {
      "midi": 57,
      "hit": false,
      "t": 135870.83333333334,
      "d": 433.33333333331393,
      "v": 74
    },
    {
      "midi": 66,
      "hit": false,
      "t": 135875,
      "d": 620.8333333333139,
      "v": 98
    },
    {
      "midi": 61,
      "hit": false,
      "t": 135875,
      "d": 662.4999999999709,
      "v": 103
    },
    {
      "midi": 66,
      "hit": false,
      "t": 135887.49999999994,
      "d": 216.66666666665697,
      "v": 82
    },
    {
      "midi": 76,
      "hit": false,
      "t": 136108.33333333326,
      "d": 249.9999999999709,
      "v": 108
    },
    {
      "midi": 64,
      "hit": false,
      "t": 136124.9999999999,
      "d": 204.16666666665697,
      "v": 72
    },
    {
      "midi": 62,
      "hit": false,
      "t": 136333.33333333323,
      "d": 770.833333333343,
      "v": 112
    },
    {
      "midi": 74,
      "hit": false,
      "t": 136349.99999999988,
      "d": 2175,
      "v": 110
    },
    {
      "midi": 57,
      "hit": false,
      "t": 136354.16666666666,
      "d": 233.33333333331393,
      "v": 103
    },
    {
      "midi": 50,
      "hit": false,
      "t": 136595.8333333333,
      "d": 3445.833333333314,
      "v": 78
    },
    {
      "midi": 62,
      "hit": false,
      "t": 136599.99999999997,
      "d": 591.666666666657,
      "v": 89
    },
    {
      "midi": 66,
      "hit": false,
      "t": 136604.16666666663,
      "d": 608.333333333343,
      "v": 96
    },
    {
      "midi": 57,
      "hit": false,
      "t": 136612.49999999997,
      "d": 587.5,
      "v": 89
    },
    {
      "midi": 69,
      "hit": false,
      "t": 137079.16666666657,
      "d": 254.16666666665697,
      "v": 84
    },
    {
      "midi": 66,
      "hit": false,
      "t": 137079.16666666657,
      "d": 679.166666666657,
      "v": 84
    },
    {
      "midi": 57,
      "hit": false,
      "t": 137324.99999999997,
      "d": 875,
      "v": 74
    },
    {
      "midi": 66,
      "hit": false,
      "t": 137329.16666666663,
      "d": 412.5,
      "v": 102
    },
    {
      "midi": 62,
      "hit": false,
      "t": 137329.16666666663,
      "d": 666.6666666666861,
      "v": 103
    },
    {
      "midi": 62,
      "hit": false,
      "t": 137333.33333333323,
      "d": 400,
      "v": 112
    },
    {
      "midi": 69,
      "hit": false,
      "t": 137812.49999999988,
      "d": 254.16666666665697,
      "v": 85
    },
    {
      "midi": 66,
      "hit": false,
      "t": 137812.49999999997,
      "d": 645.8333333333139,
      "v": 74
    },
    {
      "midi": 66,
      "hit": false,
      "t": 137837.49999999988,
      "d": 658.333333333343,
      "v": 88
    },
    {
      "midi": 62,
      "hit": false,
      "t": 138049.99999999997,
      "d": 445.83333333331393,
      "v": 100
    },
    {
      "midi": 62,
      "hit": false,
      "t": 138074.99999999988,
      "d": 2070.833333333343,
      "v": 110
    },
    {
      "midi": 57,
      "hit": false,
      "t": 138291.66666666663,
      "d": 929.166666666657,
      "v": 98
    },
    {
      "midi": 66,
      "hit": false,
      "t": 138549.99999999994,
      "d": 658.333333333343,
      "v": 84
    },
    {
      "midi": 62,
      "hit": false,
      "t": 138549.99999999994,
      "d": 700,
      "v": 119
    },
    {
      "midi": 76,
      "hit": false,
      "t": 138562.49999999988,
      "d": 679.166666666657,
      "v": 110
    },
    {
      "midi": 69,
      "hit": false,
      "t": 138579.16666666654,
      "d": 650,
      "v": 92
    },
    {
      "midi": 62,
      "hit": false,
      "t": 139274.99999999994,
      "d": 675,
      "v": 111
    },
    {
      "midi": 57,
      "hit": false,
      "t": 139279.1666666666,
      "d": 641.666666666657,
      "v": 90
    },
    {
      "midi": 66,
      "hit": false,
      "t": 139279.1666666666,
      "d": 650,
      "v": 88
    },
    {
      "midi": 74,
      "hit": false,
      "t": 139291.66666666654,
      "d": 833.333333333343,
      "v": 113
    },
    {
      "midi": 69,
      "hit": false,
      "t": 139299.99999999988,
      "d": 866.6666666666861,
      "v": 90
    },
    {
      "midi": 66,
      "hit": false,
      "t": 139995.83333333328,
      "d": 508.33333333334303,
      "v": 78
    },
    {
      "midi": 62,
      "hit": false,
      "t": 140004.16666666663,
      "d": 466.66666666668607,
      "v": 112
    },
    {
      "midi": 57,
      "hit": false,
      "t": 140016.66666666663,
      "d": 433.33333333334303,
      "v": 98
    },
    {
      "midi": 73,
      "hit": false,
      "t": 140179.16666666657,
      "d": 2037.5,
      "v": 103
    },
    {
      "midi": 69,
      "hit": false,
      "t": 140220.83333333323,
      "d": 2062.5,
      "v": 97
    },
    {
      "midi": 45,
      "hit": false,
      "t": 140499.99999999997,
      "d": 1850.000000000029,
      "v": 78
    },
    {
      "midi": 57,
      "hit": false,
      "t": 140504.16666666663,
      "d": 716.6666666666861,
      "v": 80
    },
    {
      "midi": 64,
      "hit": false,
      "t": 140512.49999999997,
      "d": 579.166666666657,
      "v": 102
    },
    {
      "midi": 61,
      "hit": false,
      "t": 140524.99999999997,
      "d": 637.5,
      "v": 88
    },
    {
      "midi": 64,
      "hit": false,
      "t": 141233.3333333333,
      "d": 579.166666666657,
      "v": 102
    },
    {
      "midi": 61,
      "hit": false,
      "t": 141233.3333333333,
      "d": 762.5,
      "v": 103
    },
    {
      "midi": 69,
      "hit": false,
      "t": 141249.99999999997,
      "d": 766.6666666666861,
      "v": 102
    },
    {
      "midi": 64,
      "hit": false,
      "t": 141962.49999999997,
      "d": 437.5000000000291,
      "v": 88
    },
    {
      "midi": 61,
      "hit": false,
      "t": 142212.5,
      "d": 616.666666666657,
      "v": 98
    },
    {
      "midi": 64,
      "hit": false,
      "t": 142449.99999999988,
      "d": 508.33333333334303,
      "v": 100
    },
    {
      "midi": 45,
      "hit": false,
      "t": 142450,
      "d": 670.8333333333139,
      "v": 97
    },
    {
      "midi": 69,
      "hit": false,
      "t": 142454.16666666666,
      "d": 700,
      "v": 122
    },
    {
      "midi": 64,
      "hit": false,
      "t": 142475,
      "d": 658.3333333333139,
      "v": 97
    },
    {
      "midi": 57,
      "hit": false,
      "t": 142704.16666666666,
      "d": 225,
      "v": 75
    },
    {
      "midi": 69,
      "hit": false,
      "t": 142720.83333333323,
      "d": 345.83333333334303,
      "v": 109
    },
    {
      "midi": 61,
      "hit": false,
      "t": 142941.66666666666,
      "d": 229.16666666665697,
      "v": 90
    },
    {
      "midi": 73,
      "hit": false,
      "t": 142949.99999999988,
      "d": 220.83333333334303,
      "v": 101
    },
    {
      "midi": 71,
      "hit": false,
      "t": 143191.66666666657,
      "d": 1120.833333333343,
      "v": 104
    },
    {
      "midi": 59,
      "hit": false,
      "t": 143191.66666666666,
      "d": 416.66666666665697,
      "v": 87
    },
    {
      "midi": 64,
      "hit": false,
      "t": 143191.66666666666,
      "d": 662.5,
      "v": 104
    },
    {
      "midi": 68,
      "hit": false,
      "t": 143191.66666666666,
      "d": 704.166666666657,
      "v": 113
    },
    {
      "midi": 52,
      "hit": false,
      "t": 143191.66666666666,
      "d": 1179.166666666657,
      "v": 97
    },
    {
      "midi": 68,
      "hit": false,
      "t": 143199.9999999999,
      "d": 1208.333333333343,
      "v": 93
    },
    {
      "midi": 59,
      "hit": false,
      "t": 143683.3333333333,
      "d": 608.3333333333139,
      "v": 87
    },
    {
      "midi": 64,
      "hit": false,
      "t": 143895.8333333333,
      "d": 454.16666666665697,
      "v": 70
    },
    {
      "midi": 64,
      "hit": false,
      "t": 143912.4999999999,
      "d": 475,
      "v": 89
    },
    {
      "midi": 68,
      "hit": false,
      "t": 144137.49999999997,
      "d": 212.5,
      "v": 84
    },
    {
      "midi": 69,
      "hit": false,
      "t": 144395.83333333326,
      "d": 441.66666666665697,
      "v": 94
    },
    {
      "midi": 66,
      "hit": false,
      "t": 144395.83333333326,
      "d": 454.16666666665697,
      "v": 96
    },
    {
      "midi": 50,
      "hit": false,
      "t": 144395.8333333333,
      "d": 683.3333333333139,
      "v": 119
    },
    {
      "midi": 69,
      "hit": false,
      "t": 144408.3333333333,
      "d": 641.666666666657,
      "v": 101
    },
    {
      "midi": 62,
      "hit": false,
      "t": 144408.3333333333,
      "d": 645.8333333333139,
      "v": 85
    },
    {
      "midi": 66,
      "hit": false,
      "t": 144412.49999999997,
      "d": 629.166666666657,
      "v": 97
    },
    {
      "midi": 62,
      "hit": false,
      "t": 144866.66666666657,
      "d": 291.66666666665697,
      "v": 95
    },
    {
      "midi": 66,
      "hit": false,
      "t": 145112.4999999999,
      "d": 479.16666666662786,
      "v": 93
    },
    {
      "midi": 69,
      "hit": false,
      "t": 145116.66666666657,
      "d": 470.83333333331393,
      "v": 99
    },
    {
      "midi": 66,
      "hit": false,
      "t": 145124.99999999997,
      "d": 645.8333333333139,
      "v": 94
    },
    {
      "midi": 69,
      "hit": false,
      "t": 145129.16666666663,
      "d": 637.5,
      "v": 100
    },
    {
      "midi": 62,
      "hit": false,
      "t": 145129.16666666663,
      "d": 670.8333333333139,
      "v": 86
    },
    {
      "midi": 50,
      "hit": false,
      "t": 145137.49999999997,
      "d": 645.8333333333139,
      "v": 99
    },
    {
      "midi": 62,
      "hit": false,
      "t": 145620.8333333332,
      "d": 237.5,
      "v": 99
    },
    {
      "midi": 50,
      "hit": false,
      "t": 145849.99999999994,
      "d": 237.4999999999709,
      "v": 95
    },
    {
      "midi": 69,
      "hit": false,
      "t": 145854.16666666654,
      "d": 225,
      "v": 102
    },
    {
      "midi": 66,
      "hit": false,
      "t": 145854.16666666654,
      "d": 229.16666666665697,
      "v": 80
    },
    {
      "midi": 62,
      "hit": false,
      "t": 145879.1666666666,
      "d": 329.16666666665697,
      "v": 80
    },
    {
      "midi": 69,
      "hit": false,
      "t": 145883.33333333326,
      "d": 333.33333333334303,
      "v": 102
    },
    {
      "midi": 66,
      "hit": false,
      "t": 145883.33333333326,
      "d": 462.5,
      "v": 98
    },
    {
      "midi": 49,
      "hit": false,
      "t": 146108.33333333326,
      "d": 200,
      "v": 90
    },
    {
      "midi": 62,
      "hit": false,
      "t": 146116.66666666654,
      "d": 200,
      "v": 98
    },
    {
      "midi": 62,
      "hit": false,
      "t": 146337.4999999999,
      "d": 658.333333333343,
      "v": 110
    },
    {
      "midi": 66,
      "hit": false,
      "t": 146345.8333333332,
      "d": 483.33333333334303,
      "v": 97
    },
    {
      "midi": 47,
      "hit": false,
      "t": 146349.9999999999,
      "d": 650,
      "v": 112
    },
    {
      "midi": 71,
      "hit": false,
      "t": 146354.16666666654,
      "d": 466.66666666665697,
      "v": 75
    },
    {
      "midi": 59,
      "hit": false,
      "t": 146358.33333333326,
      "d": 658.3333333333139,
      "v": 101
    },
    {
      "midi": 66,
      "hit": false,
      "t": 146358.33333333326,
      "d": 662.4999999999709,
      "v": 99
    },
    {
      "midi": 62,
      "hit": false,
      "t": 146837.49999999988,
      "d": 270.83333333334303,
      "v": 100
    },
    {
      "midi": 62,
      "hit": false,
      "t": 147079.16666666657,
      "d": 612.5000000000291,
      "v": 106
    },
    {
      "midi": 66,
      "hit": false,
      "t": 147083.33333333323,
      "d": 441.66666666665697,
      "v": 96
    },
    {
      "midi": 71,
      "hit": false,
      "t": 147083.33333333323,
      "d": 462.5,
      "v": 96
    },
    {
      "midi": 47,
      "hit": false,
      "t": 147087.4999999999,
      "d": 658.333333333343,
      "v": 109
    },
    {
      "midi": 59,
      "hit": false,
      "t": 147095.83333333326,
      "d": 604.1666666666861,
      "v": 95
    },
    {
      "midi": 66,
      "hit": false,
      "t": 147095.83333333326,
      "d": 608.333333333343,
      "v": 92
    },
    {
      "midi": 62,
      "hit": false,
      "t": 147554.16666666657,
      "d": 258.33333333334303,
      "v": 104
    },
    {
      "midi": 62,
      "hit": false,
      "t": 147783.33333333326,
      "d": 462.5000000000291,
      "v": 102
    },
    {
      "midi": 59,
      "hit": false,
      "t": 147804.1666666666,
      "d": 445.83333333334303,
      "v": 94
    },
    {
      "midi": 66,
      "hit": false,
      "t": 147804.1666666666,
      "d": 454.16666666668607,
      "v": 105
    },
    {
      "midi": 71,
      "hit": false,
      "t": 147812.4999999999,
      "d": 200,
      "v": 94
    },
    {
      "midi": 66,
      "hit": false,
      "t": 147820.83333333326,
      "d": 179.16666666665697,
      "v": 102
    },
    {
      "midi": 47,
      "hit": false,
      "t": 147824.99999999994,
      "d": 445.83333333334303,
      "v": 112
    },
    {
      "midi": 62,
      "hit": false,
      "t": 148033.33333333326,
      "d": 129.16666666665697,
      "v": 97
    },
    {
      "midi": 73,
      "hit": false,
      "t": 148312.4999999999,
      "d": 466.66666666665697,
      "v": 85
    },
    {
      "midi": 69,
      "hit": false,
      "t": 148316.66666666657,
      "d": 458.33333333334303,
      "v": 96
    },
    {
      "midi": 61,
      "hit": false,
      "t": 148316.66666666663,
      "d": 654.166666666657,
      "v": 94
    },
    {
      "midi": 57,
      "hit": false,
      "t": 148320.83333333328,
      "d": 629.166666666657,
      "v": 106
    },
    {
      "midi": 45,
      "hit": false,
      "t": 148320.83333333328,
      "d": 654.166666666657,
      "v": 120
    },
    {
      "midi": 64,
      "hit": false,
      "t": 148337.49999999994,
      "d": 641.666666666657,
      "v": 95
    },
    {
      "midi": 64,
      "hit": false,
      "t": 148812.4999999999,
      "d": 208.33333333334303,
      "v": 61
    },
    {
      "midi": 57,
      "hit": false,
      "t": 149033.33333333326,
      "d": 616.666666666657,
      "v": 97
    },
    {
      "midi": 61,
      "hit": false,
      "t": 149033.33333333326,
      "d": 629.166666666657,
      "v": 98
    },
    {
      "midi": 69,
      "hit": false,
      "t": 149037.4999999999,
      "d": 475,
      "v": 94
    },
    {
      "midi": 73,
      "hit": false,
      "t": 149041.66666666657,
      "d": 475,
      "v": 83
    },
    {
      "midi": 64,
      "hit": false,
      "t": 149049.9999999999,
      "d": 629.166666666657,
      "v": 86
    },
    {
      "midi": 45,
      "hit": false,
      "t": 149058.33333333326,
      "d": 620.8333333333139,
      "v": 108
    },
    {
      "midi": 64,
      "hit": false,
      "t": 149524.9999999999,
      "d": 266.66666666665697,
      "v": 76
    },
    {
      "midi": 57,
      "hit": false,
      "t": 149737.4999999999,
      "d": 454.16666666668607,
      "v": 104
    },
    {
      "midi": 61,
      "hit": false,
      "t": 149737.4999999999,
      "d": 483.33333333334303,
      "v": 94
    },
    {
      "midi": 64,
      "hit": false,
      "t": 149758.33333333326,
      "d": 429.16666666668607,
      "v": 94
    },
    {
      "midi": 69,
      "hit": false,
      "t": 149762.4999999999,
      "d": 266.66666666665697,
      "v": 94
    },
    {
      "midi": 73,
      "hit": false,
      "t": 149766.66666666657,
      "d": 262.5,
      "v": 81
    },
    {
      "midi": 45,
      "hit": false,
      "t": 149779.1666666666,
      "d": 450,
      "v": 108
    },
    {
      "midi": 71,
      "hit": false,
      "t": 150258.33333333323,
      "d": 445.83333333331393,
      "v": 106
    },
    {
      "midi": 68,
      "hit": false,
      "t": 150262.49999999988,
      "d": 450,
      "v": 102
    },
    {
      "midi": 59,
      "hit": false,
      "t": 150270.83333333326,
      "d": 608.3333333333139,
      "v": 106
    },
    {
      "midi": 40,
      "hit": false,
      "t": 150274.9999999999,
      "d": 620.8333333333139,
      "v": 114
    },
    {
      "midi": 64,
      "hit": false,
      "t": 150291.66666666657,
      "d": 616.666666666657,
      "v": 107
    },
    {
      "midi": 52,
      "hit": false,
      "t": 150474.9999999999,
      "d": 400,
      "v": 114
    },
    {
      "midi": 64,
      "hit": false,
      "t": 150729.16666666654,
      "d": 266.66666666665697,
      "v": 76
    },
    {
      "midi": 68,
      "hit": false,
      "t": 150970.8333333332,
      "d": 462.5,
      "v": 96
    },
    {
      "midi": 71,
      "hit": false,
      "t": 150974.99999999985,
      "d": 458.33333333334303,
      "v": 103
    },
    {
      "midi": 52,
      "hit": false,
      "t": 150983.33333333323,
      "d": 424.9999999999709,
      "v": 114
    },
    {
      "midi": 59,
      "hit": false,
      "t": 151008.33333333323,
      "d": 633.3333333332848,
      "v": 110
    },
    {
      "midi": 64,
      "hit": false,
      "t": 151012.49999999988,
      "d": 629.1666666666279,
      "v": 110
    },
    {
      "midi": 40,
      "hit": false,
      "t": 151229.16666666654,
      "d": 399.9999999999709,
      "v": 115
    },
    {
      "midi": 64,
      "hit": false,
      "t": 151458.3333333332,
      "d": 287.5,
      "v": 85
    },
    {
      "midi": 52,
      "hit": false,
      "t": 151499.99999999985,
      "d": 516.666666666657,
      "v": 112
    },
    {
      "midi": 71,
      "hit": false,
      "t": 151716.66666666654,
      "d": 466.66666666668607,
      "v": 106
    },
    {
      "midi": 68,
      "hit": false,
      "t": 151720.8333333332,
      "d": 220.83333333334303,
      "v": 98
    },
    {
      "midi": 59,
      "hit": false,
      "t": 151724.99999999985,
      "d": 370.83333333331393,
      "v": 105
    },
    {
      "midi": 64,
      "hit": false,
      "t": 151724.99999999985,
      "d": 399.9999999999709,
      "v": 105
    },
    {
      "midi": 40,
      "hit": false,
      "t": 151962.49999999985,
      "d": 195.83333333331393,
      "v": 92
    },
    {
      "midi": 64,
      "hit": false,
      "t": 151962.49999999988,
      "d": 212.5,
      "v": 90
    },
    {
      "midi": 50,
      "hit": false,
      "t": 152204.1666666665,
      "d": 679.1666666666279,
      "v": 119
    },
    {
      "midi": 66,
      "hit": false,
      "t": 152204.16666666657,
      "d": 450,
      "v": 96
    },
    {
      "midi": 69,
      "hit": false,
      "t": 152220.83333333323,
      "d": 441.66666666668607,
      "v": 94
    },
    {
      "midi": 69,
      "hit": false,
      "t": 152233.33333333317,
      "d": 641.666666666657,
      "v": 101
    },
    {
      "midi": 62,
      "hit": false,
      "t": 152233.33333333317,
      "d": 645.8333333333139,
      "v": 84
    },
    {
      "midi": 66,
      "hit": false,
      "t": 152237.49999999983,
      "d": 629.166666666657,
      "v": 97
    },
    {
      "midi": 62,
      "hit": false,
      "t": 152670.83333333326,
      "d": 291.66666666665697,
      "v": 94
    },
    {
      "midi": 66,
      "hit": false,
      "t": 152916.6666666666,
      "d": 479.16666666662786,
      "v": 92
    },
    {
      "midi": 69,
      "hit": false,
      "t": 152920.83333333326,
      "d": 470.83333333331393,
      "v": 98
    },
    {
      "midi": 50,
      "hit": false,
      "t": 152941.66666666648,
      "d": 645.833333333343,
      "v": 99
    },
    {
      "midi": 66,
      "hit": false,
      "t": 152949.99999999983,
      "d": 645.8333333333139,
      "v": 94
    },
    {
      "midi": 69,
      "hit": false,
      "t": 152954.16666666648,
      "d": 637.5,
      "v": 101
    },
    {
      "midi": 62,
      "hit": false,
      "t": 152954.16666666648,
      "d": 670.8333333333139,
      "v": 86
    },
    {
      "midi": 62,
      "hit": false,
      "t": 153424.99999999988,
      "d": 237.5,
      "v": 98
    },
    {
      "midi": 50,
      "hit": false,
      "t": 153658.33333333314,
      "d": 237.5,
      "v": 95
    },
    {
      "midi": 69,
      "hit": false,
      "t": 153658.33333333323,
      "d": 225,
      "v": 103
    },
    {
      "midi": 66,
      "hit": false,
      "t": 153658.33333333323,
      "d": 408.33333333334303,
      "v": 80
    },
    {
      "midi": 62,
      "hit": false,
      "t": 153704.16666666648,
      "d": 329.16666666665697,
      "v": 81
    },
    {
      "midi": 69,
      "hit": false,
      "t": 153708.33333333314,
      "d": 333.33333333334303,
      "v": 102
    },
    {
      "midi": 66,
      "hit": false,
      "t": 153708.33333333314,
      "d": 462.5000000000291,
      "v": 99
    },
    {
      "midi": 49,
      "hit": false,
      "t": 153912.4999999998,
      "d": 200.0000000000291,
      "v": 90
    },
    {
      "midi": 62,
      "hit": false,
      "t": 153920.83333333323,
      "d": 200,
      "v": 98
    },
    {
      "midi": 66,
      "hit": false,
      "t": 154154.16666666657,
      "d": 479.16666666665697,
      "v": 96
    },
    {
      "midi": 47,
      "hit": false,
      "t": 154158.33333333317,
      "d": 645.833333333343,
      "v": 112
    },
    {
      "midi": 71,
      "hit": false,
      "t": 154158.33333333323,
      "d": 466.66666666665697,
      "v": 74
    },
    {
      "midi": 62,
      "hit": false,
      "t": 154162.49999999983,
      "d": 658.333333333343,
      "v": 111
    },
    {
      "midi": 59,
      "hit": false,
      "t": 154183.33333333317,
      "d": 658.333333333343,
      "v": 101
    },
    {
      "midi": 66,
      "hit": false,
      "t": 154183.33333333317,
      "d": 662.5,
      "v": 98
    },
    {
      "midi": 62,
      "hit": false,
      "t": 154645.83333333323,
      "d": 266.66666666665697,
      "v": 101
    },
    {
      "midi": 66,
      "hit": false,
      "t": 154887.49999999988,
      "d": 445.83333333334303,
      "v": 97
    },
    {
      "midi": 71,
      "hit": false,
      "t": 154887.49999999988,
      "d": 462.5,
      "v": 96
    },
    {
      "midi": 47,
      "hit": false,
      "t": 154891.6666666665,
      "d": 658.333333333343,
      "v": 108
    },
    {
      "midi": 62,
      "hit": false,
      "t": 154904.1666666665,
      "d": 612.5,
      "v": 106
    },
    {
      "midi": 59,
      "hit": false,
      "t": 154920.83333333317,
      "d": 604.1666666666861,
      "v": 94
    },
    {
      "midi": 66,
      "hit": false,
      "t": 154920.83333333317,
      "d": 608.333333333343,
      "v": 92
    },
    {
      "midi": 62,
      "hit": false,
      "t": 155358.33333333323,
      "d": 258.33333333334303,
      "v": 105
    },
    {
      "midi": 62,
      "hit": false,
      "t": 155608.3333333332,
      "d": 462.5,
      "v": 102
    },
    {
      "midi": 71,
      "hit": false,
      "t": 155616.66666666657,
      "d": 204.16666666665697,
      "v": 94
    },
    {
      "midi": 66,
      "hit": false,
      "t": 155624.9999999999,
      "d": 179.16666666665697,
      "v": 103
    },
    {
      "midi": 59,
      "hit": false,
      "t": 155629.16666666654,
      "d": 449.9999999999709,
      "v": 95
    },
    {
      "midi": 47,
      "hit": false,
      "t": 155633.3333333332,
      "d": 441.66666666665697,
      "v": 113
    },
    {
      "midi": 66,
      "hit": false,
      "t": 155633.3333333332,
      "d": 449.9999999999709,
      "v": 104
    },
    {
      "midi": 62,
      "hit": false,
      "t": 155837.49999999988,
      "d": 129.16666666665697,
      "v": 97
    },
    {
      "midi": 68,
      "hit": false,
      "t": 156112.49999999988,
      "d": 475,
      "v": 101
    },
    {
      "midi": 71,
      "hit": false,
      "t": 156112.49999999988,
      "d": 479.16666666665697,
      "v": 106
    },
    {
      "midi": 52,
      "hit": false,
      "t": 156120.83333333317,
      "d": 662.5,
      "v": 121
    },
    {
      "midi": 59,
      "hit": false,
      "t": 156129.1666666665,
      "d": 658.3333333333139,
      "v": 102
    },
    {
      "midi": 64,
      "hit": false,
      "t": 156129.1666666665,
      "d": 658.3333333333139,
      "v": 109
    },
    {
      "midi": 40,
      "hit": false,
      "t": 156604.1666666665,
      "d": 233.33333333331393,
      "v": 116
    },
    {
      "midi": 64,
      "hit": false,
      "t": 156604.16666666654,
      "d": 275,
      "v": 85
    },
    {
      "midi": 71,
      "hit": false,
      "t": 156845.8333333332,
      "d": 475,
      "v": 98
    },
    {
      "midi": 68,
      "hit": false,
      "t": 156845.8333333332,
      "d": 479.16666666665697,
      "v": 92
    },
    {
      "midi": 52,
      "hit": false,
      "t": 156862.49999999983,
      "d": 620.833333333343,
      "v": 109
    },
    {
      "midi": 59,
      "hit": false,
      "t": 156862.49999999983,
      "d": 620.833333333343,
      "v": 98
    },
    {
      "midi": 64,
      "hit": false,
      "t": 156862.49999999983,
      "d": 625,
      "v": 104
    },
    {
      "midi": 40,
      "hit": false,
      "t": 157337.49999999983,
      "d": 208.33333333334303,
      "v": 112
    },
    {
      "midi": 64,
      "hit": false,
      "t": 157337.49999999985,
      "d": 245.83333333331393,
      "v": 79
    },
    {
      "midi": 68,
      "hit": false,
      "t": 157579.1666666665,
      "d": 204.16666666665697,
      "v": 91
    },
    {
      "midi": 71,
      "hit": false,
      "t": 157579.1666666665,
      "d": 225,
      "v": 105
    },
    {
      "midi": 59,
      "hit": false,
      "t": 157583.33333333317,
      "d": 375,
      "v": 94
    },
    {
      "midi": 52,
      "hit": false,
      "t": 157583.33333333317,
      "d": 450,
      "v": 108
    },
    {
      "midi": 64,
      "hit": false,
      "t": 157587.49999999983,
      "d": 379.16666666668607,
      "v": 111
    },
    {
      "midi": 40,
      "hit": false,
      "t": 157820.83333333317,
      "d": 208.33333333334303,
      "v": 97
    },
    {
      "midi": 64,
      "hit": false,
      "t": 157820.83333333317,
      "d": 179.16666666665697,
      "v": 89
    },
    {
      "midi": 73,
      "hit": false,
      "t": 158058.33333333317,
      "d": 499.9999999999709,
      "v": 102
    },
    {
      "midi": 68,
      "hit": false,
      "t": 158062.49999999983,
      "d": 479.16666666665697,
      "v": 102
    },
    {
      "midi": 53,
      "hit": false,
      "t": 158070.83333333317,
      "d": 649.9999999999709,
      "v": 110
    },
    {
      "midi": 59,
      "hit": false,
      "t": 158299.99999999983,
      "d": 483.33333333331393,
      "v": 120
    },
    {
      "midi": 41,
      "hit": false,
      "t": 158541.66666666648,
      "d": 233.33333333331393,
      "v": 116
    },
    {
      "midi": 65,
      "hit": false,
      "t": 158554.16666666648,
      "d": 279.16666666665697,
      "v": 88
    },
    {
      "midi": 61,
      "hit": false,
      "t": 158787.4999999998,
      "d": 245.83333333331393,
      "v": 110
    },
    {
      "midi": 53,
      "hit": false,
      "t": 158799.9999999998,
      "d": 695.8333333333139,
      "v": 102
    },
    {
      "midi": 68,
      "hit": false,
      "t": 158799.9999999998,
      "d": 462.5,
      "v": 101
    },
    {
      "midi": 73,
      "hit": false,
      "t": 158799.9999999998,
      "d": 466.66666666665697,
      "v": 97
    },
    {
      "midi": 59,
      "hit": false,
      "t": 159029.16666666645,
      "d": 829.166666666657,
      "v": 120
    },
    {
      "midi": 41,
      "hit": false,
      "t": 159274.99999999977,
      "d": 208.33333333334303,
      "v": 112
    },
    {
      "midi": 65,
      "hit": false,
      "t": 159283.3333333331,
      "d": 258.33333333331393,
      "v": 84
    },
    {
      "midi": 61,
      "hit": false,
      "t": 159520.8333333331,
      "d": 491.66666666665697,
      "v": 68
    },
    {
      "midi": 73,
      "hit": false,
      "t": 159524.99999999977,
      "d": 445.83333333331393,
      "v": 86
    },
    {
      "midi": 68,
      "hit": false,
      "t": 159529.16666666642,
      "d": 425,
      "v": 94
    },
    {
      "midi": 41,
      "hit": false,
      "t": 159762.49999999977,
      "d": 208.33333333334303,
      "v": 84
    },
    {
      "midi": 57,
      "hit": false,
      "t": 160008.3333333331,
      "d": 566.6666666666279,
      "v": 67
    },
    {
      "midi": 54,
      "hit": false,
      "t": 160012.49999999977,
      "d": 1920.833333333314,
      "v": 66
    },
    {
      "midi": 61,
      "hit": false,
      "t": 160016.66666666642,
      "d": 587.4999999999709,
      "v": 70
    },
    {
      "midi": 66,
      "hit": false,
      "t": 160020.83333333308,
      "d": 604.166666666657,
      "v": 74
    },
    {
      "midi": 81,
      "hit": false,
      "t": 160058.33333333308,
      "d": 5129.166666666657,
      "v": 90
    },
    {
      "midi": 57,
      "hit": false,
      "t": 160737.49999999974,
      "d": 879.1666666666861,
      "v": 64
    },
    {
      "midi": 66,
      "hit": false,
      "t": 160745.83333333308,
      "d": 608.333333333343,
      "v": 89
    },
    {
      "midi": 61,
      "hit": false,
      "t": 160745.83333333308,
      "d": 662.5,
      "v": 92
    },
    {
      "midi": 66,
      "hit": false,
      "t": 161454.16666666642,
      "d": 508.33333333331393,
      "v": 79
    },
    {
      "midi": 61,
      "hit": false,
      "t": 161466.66666666642,
      "d": 504.16666666662786,
      "v": 91
    },
    {
      "midi": 57,
      "hit": false,
      "t": 161704.16666666642,
      "d": 724.9999999999709,
      "v": 88
    },
    {
      "midi": 69,
      "hit": false,
      "t": 161966.6666666664,
      "d": 700,
      "v": 113
    },
    {
      "midi": 61,
      "hit": false,
      "t": 161983.33333333305,
      "d": 591.6666666666861,
      "v": 79
    },
    {
      "midi": 57,
      "hit": false,
      "t": 162449.99999999974,
      "d": 408.33333333331393,
      "v": 64
    },
    {
      "midi": 61,
      "hit": false,
      "t": 162695.83333333305,
      "d": 416.66666666665697,
      "v": 89
    },
    {
      "midi": 68,
      "hit": false,
      "t": 162704.1666666664,
      "d": 699.9999999999709,
      "v": 103
    },
    {
      "midi": 57,
      "hit": false,
      "t": 162945.83333333305,
      "d": 625,
      "v": 64
    },
    {
      "midi": 61,
      "hit": false,
      "t": 163187.4999999997,
      "d": 616.6666666666861,
      "v": 92
    },
    {
      "midi": 66,
      "hit": false,
      "t": 163424.9999999997,
      "d": 437.5000000000291,
      "v": 103
    },
    {
      "midi": 64,
      "hit": false,
      "t": 163666.6666666664,
      "d": 1120.833333333314,
      "v": 103
    },
    {
      "midi": 57,
      "hit": false,
      "t": 163679.1666666664,
      "d": 204.16666666668607,
      "v": 67
    },
    {
      "midi": 61,
      "hit": false,
      "t": 163916.66666666642,
      "d": 591.666666666657,
      "v": 78
    },
    {
      "midi": 66,
      "hit": false,
      "t": 163916.66666666642,
      "d": 670.8333333333139,
      "v": 80
    },
    {
      "midi": 52,
      "hit": false,
      "t": 163916.66666666642,
      "d": 3679.166666666686,
      "v": 67
    },
    {
      "midi": 57,
      "hit": false,
      "t": 164641.6666666664,
      "d": 875,
      "v": 68
    },
    {
      "midi": 61,
      "hit": false,
      "t": 164645.83333333305,
      "d": 666.666666666657,
      "v": 83
    },
    {
      "midi": 66,
      "hit": false,
      "t": 164645.83333333305,
      "d": 700,
      "v": 83
    },
    {
      "midi": 61,
      "hit": false,
      "t": 165366.6666666664,
      "d": 450,
      "v": 90
    },
    {
      "midi": 57,
      "hit": false,
      "t": 165608.33333333305,
      "d": 450,
      "v": 88
    },
    {
      "midi": 66,
      "hit": false,
      "t": 165870.83333333305,
      "d": 591.6666666666861,
      "v": 76
    },
    {
      "midi": 69,
      "hit": false,
      "t": 165870.83333333305,
      "d": 700.0000000000291,
      "v": 112
    },
    {
      "midi": 81,
      "hit": false,
      "t": 165870.83333333308,
      "d": 579.166666666657,
      "v": 96
    },
    {
      "midi": 61,
      "hit": false,
      "t": 165874.9999999997,
      "d": 375.0000000000291,
      "v": 78
    },
    {
      "midi": 69,
      "hit": false,
      "t": 165874.99999999974,
      "d": 687.5,
      "v": 90
    },
    {
      "midi": 57,
      "hit": false,
      "t": 166116.6666666664,
      "d": 662.5000000000291,
      "v": 64
    },
    {
      "midi": 61,
      "hit": false,
      "t": 166354.1666666664,
      "d": 650.0000000000291,
      "v": 81
    },
    {
      "midi": 78,
      "hit": false,
      "t": 166570.83333333308,
      "d": 95.83333333334303,
      "v": 95
    },
    {
      "midi": 68,
      "hit": false,
      "t": 166587.49999999974,
      "d": 458.33333333334303,
      "v": 71
    },
    {
      "midi": 68,
      "hit": false,
      "t": 166608.33333333308,
      "d": 695.8333333333721,
      "v": 103
    },
    {
      "midi": 80,
      "hit": false,
      "t": 166620.83333333308,
      "d": 425,
      "v": 90
    },
    {
      "midi": 57,
      "hit": false,
      "t": 166849.99999999977,
      "d": 420.83333333334303,
      "v": 64
    },
    {
      "midi": 66,
      "hit": false,
      "t": 167066.66666666642,
      "d": 683.333333333343,
      "v": 61
    },
    {
      "midi": 78,
      "hit": false,
      "t": 167070.83333333308,
      "d": 704.1666666666861,
      "v": 106
    },
    {
      "midi": 61,
      "hit": false,
      "t": 167087.49999999977,
      "d": 616.6666666666861,
      "v": 93
    },
    {
      "midi": 64,
      "hit": false,
      "t": 167320.8333333331,
      "d": 437.5,
      "v": 80
    },
    {
      "midi": 76,
      "hit": false,
      "t": 167324.99999999974,
      "d": 254.16666666668607,
      "v": 95
    },
    {
      "midi": 66,
      "hit": false,
      "t": 167324.99999999977,
      "d": 441.66666666668607,
      "v": 103
    },
    {
      "midi": 62,
      "hit": false,
      "t": 167549.99999999974,
      "d": 2145.833333333372,
      "v": 106
    },
    {
      "midi": 74,
      "hit": false,
      "t": 167570.83333333308,
      "d": 2170.833333333372,
      "v": 110
    },
    {
      "midi": 57,
      "hit": false,
      "t": 167804.16666666645,
      "d": 716.666666666657,
      "v": 64
    },
    {
      "midi": 50,
      "hit": false,
      "t": 167816.66666666645,
      "d": 3445.833333333314,
      "v": 68
    },
    {
      "midi": 62,
      "hit": false,
      "t": 167820.8333333331,
      "d": 591.666666666657,
      "v": 79
    },
    {
      "midi": 66,
      "hit": false,
      "t": 167824.99999999977,
      "d": 608.333333333343,
      "v": 86
    },
    {
      "midi": 57,
      "hit": false,
      "t": 168545.8333333331,
      "d": 875,
      "v": 64
    },
    {
      "midi": 66,
      "hit": false,
      "t": 168549.99999999977,
      "d": 650,
      "v": 92
    },
    {
      "midi": 62,
      "hit": false,
      "t": 168549.99999999977,
      "d": 662.5,
      "v": 92
    },
    {
      "midi": 62,
      "hit": false,
      "t": 169270.8333333331,
      "d": 445.83333333331393,
      "v": 91
    },
    {
      "midi": 66,
      "hit": false,
      "t": 169279.16666666645,
      "d": 479.16666666662786,
      "v": 79
    },
    {
      "midi": 57,
      "hit": false,
      "t": 169512.49999999977,
      "d": 437.4999999999709,
      "v": 88
    },
    {
      "midi": 62,
      "hit": false,
      "t": 169758.33333333308,
      "d": 375,
      "v": 78
    },
    {
      "midi": 69,
      "hit": false,
      "t": 169762.4999999998,
      "d": 729.166666666657,
      "v": 103
    },
    {
      "midi": 69,
      "hit": false,
      "t": 169770.83333333308,
      "d": 700,
      "v": 112
    },
    {
      "midi": 76,
      "hit": false,
      "t": 169783.33333333314,
      "d": 679.166666666657,
      "v": 110
    },
    {
      "midi": 57,
      "hit": false,
      "t": 170020.83333333308,
      "d": 662.5,
      "v": 64
    },
    {
      "midi": 62,
      "hit": false,
      "t": 170258.33333333308,
      "d": 650,
      "v": 80
    },
    {
      "midi": 68,
      "hit": false,
      "t": 170508.33333333308,
      "d": 700,
      "v": 102
    },
    {
      "midi": 74,
      "hit": false,
      "t": 170512.4999999998,
      "d": 891.666666666657,
      "v": 100
    },
    {
      "midi": 69,
      "hit": false,
      "t": 170537.4999999998,
      "d": 883.3333333333139,
      "v": 90
    },
    {
      "midi": 57,
      "hit": false,
      "t": 170749.99999999974,
      "d": 858.333333333343,
      "v": 64
    },
    {
      "midi": 62,
      "hit": false,
      "t": 170991.66666666642,
      "d": 475,
      "v": 92
    },
    {
      "midi": 66,
      "hit": false,
      "t": 171229.16666666642,
      "d": 441.66666666665697,
      "v": 102
    },
    {
      "midi": 73,
      "hit": false,
      "t": 171479.16666666645,
      "d": 2066.666666666657,
      "v": 94
    },
    {
      "midi": 64,
      "hit": false,
      "t": 171483.33333333308,
      "d": 895.833333333343,
      "v": 59
    },
    {
      "midi": 69,
      "hit": false,
      "t": 171495.8333333331,
      "d": 2037.5,
      "v": 87
    },
    {
      "midi": 57,
      "hit": false,
      "t": 171704.16666666642,
      "d": 587.5,
      "v": 70
    },
    {
      "midi": 69,
      "hit": false,
      "t": 171720.83333333308,
      "d": 633.333333333343,
      "v": 82
    },
    {
      "midi": 45,
      "hit": false,
      "t": 171720.83333333308,
      "d": 1920.833333333343,
      "v": 68
    },
    {
      "midi": 61,
      "hit": false,
      "t": 171741.66666666642,
      "d": 591.666666666657,
      "v": 78
    },
    {
      "midi": 69,
      "hit": false,
      "t": 172429.16666666642,
      "d": 1120.833333333314,
      "v": 87
    },
    {
      "midi": 57,
      "hit": false,
      "t": 172445.83333333308,
      "d": 1175,
      "v": 64
    },
    {
      "midi": 64,
      "hit": false,
      "t": 172449.99999999974,
      "d": 579.166666666657,
      "v": 93
    },
    {
      "midi": 61,
      "hit": false,
      "t": 172449.99999999974,
      "d": 762.5,
      "v": 93
    },
    {
      "midi": 64,
      "hit": false,
      "t": 173179.1666666664,
      "d": 500.0000000000291,
      "v": 84
    },
    {
      "midi": 61,
      "hit": false,
      "t": 173433.33333333308,
      "d": 612.5,
      "v": 89
    },
    {
      "midi": 45,
      "hit": false,
      "t": 173662.49999999977,
      "d": 708.3333333333139,
      "v": 69
    },
    {
      "midi": 64,
      "hit": false,
      "t": 173670.8333333331,
      "d": 508.33333333334303,
      "v": 101
    },
    {
      "midi": 69,
      "hit": false,
      "t": 173674.99999999977,
      "d": 699.9999999999709,
      "v": 112
    },
    {
      "midi": 64,
      "hit": false,
      "t": 173695.83333333308,
      "d": 654.166666666657,
      "v": 87
    },
    {
      "midi": 57,
      "hit": false,
      "t": 173920.83333333308,
      "d": 462.5,
      "v": 65
    },
    {
      "midi": 69,
      "hit": false,
      "t": 173937.49999999977,
      "d": 350.0000000000291,
      "v": 108
    },
    {
      "midi": 61,
      "hit": false,
      "t": 174158.33333333308,
      "d": 233.33333333334303,
      "v": 80
    },
    {
      "midi": 73,
      "hit": false,
      "t": 174170.8333333331,
      "d": 220.83333333334303,
      "v": 100
    },
    {
      "midi": 64,
      "hit": false,
      "t": 174395.83333333308,
      "d": 633.3333333333139,
      "v": 94
    },
    {
      "midi": 59,
      "hit": false,
      "t": 174399.99999999974,
      "d": 654.166666666657,
      "v": 89
    },
    {
      "midi": 44,
      "hit": false,
      "t": 174399.99999999974,
      "d": 1183.333333333314,
      "v": 77
    },
    {
      "midi": 68,
      "hit": false,
      "t": 174412.49999999974,
      "d": 683.3333333333139,
      "v": 103
    },
    {
      "midi": 71,
      "hit": false,
      "t": 174412.4999999998,
      "d": 1120.833333333343,
      "v": 104
    },
    {
      "midi": 68,
      "hit": false,
      "t": 174420.83333333314,
      "d": 1204.166666666686,
      "v": 72
    },
    {
      "midi": 68,
      "hit": false,
      "t": 175133.33333333305,
      "d": 458.33333333334303,
      "v": 75
    },
    {
      "midi": 64,
      "hit": false,
      "t": 175133.33333333305,
      "d": 475,
      "v": 74
    },
    {
      "midi": 64,
      "hit": false,
      "t": 175133.33333333314,
      "d": 470.83333333334303,
      "v": 82
    },
    {
      "midi": 59,
      "hit": false,
      "t": 175145.83333333305,
      "d": 450,
      "v": 76
    },
    {
      "midi": 57,
      "hit": false,
      "t": 175616.6666666664,
      "d": 566.6666666666279,
      "v": 66
    },
    {
      "midi": 54,
      "hit": false,
      "t": 175620.83333333305,
      "d": 1920.833333333314,
      "v": 67
    },
    {
      "midi": 61,
      "hit": false,
      "t": 175624.9999999997,
      "d": 591.666666666657,
      "v": 71
    },
    {
      "midi": 66,
      "hit": false,
      "t": 175629.16666666637,
      "d": 608.333333333343,
      "v": 74
    },
    {
      "midi": 69,
      "hit": false,
      "t": 175658.33333333317,
      "d": 1804.166666666657,
      "v": 90
    },
    {
      "midi": 57,
      "hit": false,
      "t": 176349.9999999997,
      "d": 875,
      "v": 64
    },
    {
      "midi": 66,
      "hit": false,
      "t": 176354.16666666637,
      "d": 608.333333333343,
      "v": 88
    },
    {
      "midi": 61,
      "hit": false,
      "t": 176354.16666666637,
      "d": 666.6666666666861,
      "v": 92
    },
    {
      "midi": 66,
      "hit": false,
      "t": 176370.83333333317,
      "d": 1050,
      "v": 52
    },
    {
      "midi": 66,
      "hit": false,
      "t": 177062.4999999997,
      "d": 512.5,
      "v": 78
    },
    {
      "midi": 61,
      "hit": false,
      "t": 177074.9999999997,
      "d": 508.33333333334303,
      "v": 90
    },
    {
      "midi": 57,
      "hit": false,
      "t": 177316.66666666637,
      "d": 725.0000000000291,
      "v": 89
    },
    {
      "midi": 69,
      "hit": false,
      "t": 177574.9999999997,
      "d": 700,
      "v": 113
    },
    {
      "midi": 69,
      "hit": false,
      "t": 177583.33333333317,
      "d": 687.5,
      "v": 90
    },
    {
      "midi": 61,
      "hit": false,
      "t": 177591.6666666664,
      "d": 591.666666666657,
      "v": 78
    },
    {
      "midi": 81,
      "hit": false,
      "t": 177591.6666666665,
      "d": 579.166666666657,
      "v": 96
    },
    {
      "midi": 57,
      "hit": false,
      "t": 178058.33333333305,
      "d": 408.33333333331393,
      "v": 65
    },
    {
      "midi": 78,
      "hit": false,
      "t": 178274.99999999983,
      "d": 95.83333333334303,
      "v": 95
    },
    {
      "midi": 68,
      "hit": false,
      "t": 178295.83333333317,
      "d": 458.33333333334303,
      "v": 70
    },
    {
      "midi": 61,
      "hit": false,
      "t": 178304.16666666637,
      "d": 416.66666666665697,
      "v": 88
    },
    {
      "midi": 68,
      "hit": false,
      "t": 178312.4999999997,
      "d": 699.9999999999709,
      "v": 103
    },
    {
      "midi": 80,
      "hit": false,
      "t": 178329.1666666665,
      "d": 425,
      "v": 90
    },
    {
      "midi": 57,
      "hit": false,
      "t": 178558.33333333302,
      "d": 620.833333333343,
      "v": 64
    },
    {
      "midi": 66,
      "hit": false,
      "t": 178774.99999999985,
      "d": 2462.5,
      "v": 60
    },
    {
      "midi": 78,
      "hit": false,
      "t": 178779.1666666665,
      "d": 1987.5,
      "v": 106
    },
    {
      "midi": 61,
      "hit": false,
      "t": 178795.83333333302,
      "d": 616.6666666666861,
      "v": 92
    },
    {
      "midi": 66,
      "hit": false,
      "t": 179033.33333333302,
      "d": 441.66666666668607,
      "v": 103
    },
    {
      "midi": 64,
      "hit": false,
      "t": 179279.16666666637,
      "d": 941.666666666657,
      "v": 102
    },
    {
      "midi": 57,
      "hit": false,
      "t": 179287.4999999997,
      "d": 208.33333333334303,
      "v": 66
    },
    {
      "midi": 66,
      "hit": false,
      "t": 179524.9999999997,
      "d": 670.8333333333139,
      "v": 80
    },
    {
      "midi": 52,
      "hit": false,
      "t": 179524.9999999997,
      "d": 3679.1666666665988,
      "v": 66
    },
    {
      "midi": 61,
      "hit": false,
      "t": 179529.16666666637,
      "d": 587.5,
      "v": 79
    },
    {
      "midi": 57,
      "hit": false,
      "t": 180249.99999999968,
      "d": 875,
      "v": 69
    },
    {
      "midi": 61,
      "hit": false,
      "t": 180258.33333333302,
      "d": 662.5,
      "v": 82
    },
    {
      "midi": 66,
      "hit": false,
      "t": 180258.33333333302,
      "d": 700,
      "v": 82
    },
    {
      "midi": 61,
      "hit": false,
      "t": 180974.99999999968,
      "d": 450,
      "v": 90
    },
    {
      "midi": 57,
      "hit": false,
      "t": 181216.66666666634,
      "d": 454.16666666665697,
      "v": 88
    },
    {
      "midi": 81,
      "hit": false,
      "t": 181466.6666666665,
      "d": 579.166666666657,
      "v": 97
    },
    {
      "midi": 69,
      "hit": false,
      "t": 181470.83333333317,
      "d": 687.5,
      "v": 90
    },
    {
      "midi": 66,
      "hit": false,
      "t": 181479.16666666634,
      "d": 591.666666666657,
      "v": 76
    },
    {
      "midi": 69,
      "hit": false,
      "t": 181479.16666666634,
      "d": 700,
      "v": 112
    },
    {
      "midi": 61,
      "hit": false,
      "t": 181483.333333333,
      "d": 379.16666666668607,
      "v": 78
    },
    {
      "midi": 57,
      "hit": false,
      "t": 181729.16666666634,
      "d": 662.5,
      "v": 64
    },
    {
      "midi": 61,
      "hit": false,
      "t": 181966.66666666634,
      "d": 645.8333333333139,
      "v": 80
    },
    {
      "midi": 78,
      "hit": false,
      "t": 182195.83333333317,
      "d": 95.83333333334303,
      "v": 95
    },
    {
      "midi": 68,
      "hit": false,
      "t": 182212.49999999983,
      "d": 458.33333333334303,
      "v": 71
    },
    {
      "midi": 68,
      "hit": false,
      "t": 182216.66666666634,
      "d": 699.9999999999709,
      "v": 103
    },
    {
      "midi": 80,
      "hit": false,
      "t": 182245.83333333317,
      "d": 425,
      "v": 90
    },
    {
      "midi": 57,
      "hit": false,
      "t": 182458.333333333,
      "d": 420.83333333331393,
      "v": 64
    },
    {
      "midi": 66,
      "hit": false,
      "t": 182674.99999999983,
      "d": 687.5000000000291,
      "v": 61
    },
    {
      "midi": 78,
      "hit": false,
      "t": 182695.83333333317,
      "d": 704.1666666666861,
      "v": 107
    },
    {
      "midi": 61,
      "hit": false,
      "t": 182699.99999999965,
      "d": 616.666666666657,
      "v": 92
    },
    {
      "midi": 64,
      "hit": false,
      "t": 182929.1666666663,
      "d": 437.5,
      "v": 80
    },
    {
      "midi": 66,
      "hit": false,
      "t": 182937.49999999965,
      "d": 437.5,
      "v": 102
    },
    {
      "midi": 74,
      "hit": false,
      "t": 183166.6666666665,
      "d": 250.0000000000291,
      "v": 110
    },
    {
      "midi": 62,
      "hit": false,
      "t": 183174.99999999985,
      "d": 2145.833333333372,
      "v": 107
    },
    {
      "midi": 73,
      "hit": false,
      "t": 183408.3333333332,
      "d": 1866.666666666686,
      "v": 91
    },
    {
      "midi": 57,
      "hit": false,
      "t": 183416.6666666663,
      "d": 712.5,
      "v": 65
    },
    {
      "midi": 50,
      "hit": false,
      "t": 183424.99999999965,
      "d": 3445.833333333285,
      "v": 68
    },
    {
      "midi": 62,
      "hit": false,
      "t": 183429.1666666663,
      "d": 591.666666666657,
      "v": 79
    },
    {
      "midi": 66,
      "hit": false,
      "t": 183433.33333333296,
      "d": 608.333333333343,
      "v": 87
    },
    {
      "midi": 57,
      "hit": false,
      "t": 184154.1666666663,
      "d": 874.9999999999709,
      "v": 64
    },
    {
      "midi": 66,
      "hit": false,
      "t": 184158.33333333296,
      "d": 650,
      "v": 93
    },
    {
      "midi": 62,
      "hit": false,
      "t": 184158.33333333296,
      "d": 666.666666666657,
      "v": 93
    },
    {
      "midi": 62,
      "hit": false,
      "t": 184879.16666666628,
      "d": 450,
      "v": 90
    },
    {
      "midi": 66,
      "hit": false,
      "t": 184887.49999999962,
      "d": 479.16666666665697,
      "v": 79
    },
    {
      "midi": 57,
      "hit": false,
      "t": 185120.83333333294,
      "d": 441.66666666665697,
      "v": 89
    },
    {
      "midi": 62,
      "hit": false,
      "t": 185366.66666666628,
      "d": 379.16666666662786,
      "v": 78
    },
    {
      "midi": 69,
      "hit": false,
      "t": 185383.33333333294,
      "d": 699.9999999999709,
      "v": 112
    },
    {
      "midi": 69,
      "hit": false,
      "t": 185404.16666666657,
      "d": 654.166666666657,
      "v": 82
    },
    {
      "midi": 76,
      "hit": false,
      "t": 185441.66666666657,
      "d": 675,
      "v": 92
    },
    {
      "midi": 57,
      "hit": false,
      "t": 185629.16666666625,
      "d": 662.5,
      "v": 65
    },
    {
      "midi": 62,
      "hit": false,
      "t": 185866.66666666625,
      "d": 650,
      "v": 81
    },
    {
      "midi": 68,
      "hit": false,
      "t": 186120.8333333329,
      "d": 695.833333333343,
      "v": 103
    },
    {
      "midi": 74,
      "hit": false,
      "t": 186154.16666666657,
      "d": 1004.1666666666861,
      "v": 85
    },
    {
      "midi": 69,
      "hit": false,
      "t": 186162.4999999999,
      "d": 833.333333333343,
      "v": 87
    },
    {
      "midi": 57,
      "hit": false,
      "t": 186362.4999999996,
      "d": 854.1666666666861,
      "v": 65
    },
    {
      "midi": 62,
      "hit": false,
      "t": 186599.9999999996,
      "d": 475,
      "v": 92
    },
    {
      "midi": 66,
      "hit": false,
      "t": 186837.4999999996,
      "d": 441.66666666668607,
      "v": 102
    },
    {
      "midi": 64,
      "hit": false,
      "t": 187095.83333333294,
      "d": 895.8333333333139,
      "v": 58
    },
    {
      "midi": 73,
      "hit": false,
      "t": 187129.1666666666,
      "d": 1791.666666666657,
      "v": 83
    },
    {
      "midi": 69,
      "hit": false,
      "t": 187145.83333333326,
      "d": 1787.5,
      "v": 85
    },
    {
      "midi": 57,
      "hit": false,
      "t": 187312.49999999962,
      "d": 591.666666666657,
      "v": 71
    },
    {
      "midi": 69,
      "hit": false,
      "t": 187329.16666666628,
      "d": 633.3333333333139,
      "v": 83
    },
    {
      "midi": 45,
      "hit": false,
      "t": 187329.16666666628,
      "d": 1920.833333333314,
      "v": 68
    },
    {
      "midi": 61,
      "hit": false,
      "t": 187354.16666666628,
      "d": 591.666666666657,
      "v": 78
    },
    {
      "midi": 69,
      "hit": false,
      "t": 188041.66666666625,
      "d": 1116.666666666657,
      "v": 86
    },
    {
      "midi": 57,
      "hit": false,
      "t": 188054.16666666625,
      "d": 1175,
      "v": 64
    },
    {
      "midi": 64,
      "hit": false,
      "t": 188062.4999999996,
      "d": 579.166666666657,
      "v": 92
    },
    {
      "midi": 61,
      "hit": false,
      "t": 188062.4999999996,
      "d": 762.5,
      "v": 92
    },
    {
      "midi": 64,
      "hit": false,
      "t": 188791.66666666625,
      "d": 500.0000000000291,
      "v": 85
    },
    {
      "midi": 61,
      "hit": false,
      "t": 189041.66666666625,
      "d": 616.6666666666861,
      "v": 89
    },
    {
      "midi": 45,
      "hit": false,
      "t": 189270.83333333294,
      "d": 712.5,
      "v": 68
    },
    {
      "midi": 69,
      "hit": false,
      "t": 189283.33333333294,
      "d": 700,
      "v": 113
    },
    {
      "midi": 64,
      "hit": false,
      "t": 189304.16666666628,
      "d": 658.3333333333139,
      "v": 86
    },
    {
      "midi": 57,
      "hit": false,
      "t": 189533.33333333294,
      "d": 458.33333333334303,
      "v": 65
    },
    {
      "midi": 61,
      "hit": false,
      "t": 189770.83333333294,
      "d": 229.16666666668607,
      "v": 80
    },
    {
      "midi": 64,
      "hit": false,
      "t": 190008.33333333296,
      "d": 629.166666666657,
      "v": 94
    },
    {
      "midi": 59,
      "hit": false,
      "t": 190012.49999999962,
      "d": 400,
      "v": 89
    },
    {
      "midi": 44,
      "hit": false,
      "t": 190012.49999999962,
      "d": 1179.166666666657,
      "v": 76
    },
    {
      "midi": 68,
      "hit": false,
      "t": 190020.83333333296,
      "d": 683.3333333333139,
      "v": 102
    },
    {
      "midi": 59,
      "hit": false,
      "t": 190483.33333333296,
      "d": 445.83333333331393,
      "v": 76
    },
    {
      "midi": 68,
      "hit": false,
      "t": 190745.83333333294,
      "d": 454.16666666668607,
      "v": 74
    },
    {
      "midi": 64,
      "hit": false,
      "t": 190745.83333333294,
      "d": 470.83333333334303,
      "v": 75
    },
    {
      "midi": 59,
      "hit": false,
      "t": 190999.99999999962,
      "d": 237.4999999999709,
      "v": 77
    },
    {
      "midi": 69,
      "hit": false,
      "t": 191229.16666666628,
      "d": 662.5,
      "v": 76
    },
    {
      "midi": 73,
      "hit": false,
      "t": 191233.33333333294,
      "d": 650,
      "v": 80
    },
    {
      "midi": 54,
      "hit": false,
      "t": 191233.33333333294,
      "d": 1900,
      "v": 76
    },
    {
      "midi": 66,
      "hit": false,
      "t": 191237.4999999996,
      "d": 675.0000000000291,
      "v": 84
    },
    {
      "midi": 66,
      "hit": false,
      "t": 191270.83333333326,
      "d": 1145.833333333343,
      "v": 112
    },
    {
      "midi": 69,
      "hit": false,
      "t": 191958.33333333296,
      "d": 1195.833333333314,
      "v": 74
    },
    {
      "midi": 73,
      "hit": false,
      "t": 191962.49999999962,
      "d": 1129.166666666657,
      "v": 102
    },
    {
      "midi": 66,
      "hit": false,
      "t": 191962.49999999962,
      "d": 1191.666666666657,
      "v": 98
    },
    {
      "midi": 61,
      "hit": false,
      "t": 191995.83333333326,
      "d": 1108.333333333343,
      "v": 86
    },
    {
      "midi": 66,
      "hit": false,
      "t": 192466.6666666666,
      "d": 1158.333333333343,
      "v": 88
    },
    {
      "midi": 81,
      "hit": false,
      "t": 193170.83333333326,
      "d": 408.33333333334303,
      "v": 109
    },
    {
      "midi": 69,
      "hit": false,
      "t": 193179.16666666628,
      "d": 666.666666666657,
      "v": 76
    },
    {
      "midi": 54,
      "hit": false,
      "t": 193183.33333333294,
      "d": 1920.833333333343,
      "v": 76
    },
    {
      "midi": 73,
      "hit": false,
      "t": 193187.4999999996,
      "d": 645.833333333343,
      "v": 81
    },
    {
      "midi": 66,
      "hit": false,
      "t": 193187.4999999996,
      "d": 675,
      "v": 84
    },
    {
      "midi": 81,
      "hit": false,
      "t": 193670.83333333328,
      "d": 104.16666666665697,
      "v": 105
    },
    {
      "midi": 78,
      "hit": false,
      "t": 193887.49999999994,
      "d": 100,
      "v": 112
    },
    {
      "midi": 69,
      "hit": false,
      "t": 193908.33333333294,
      "d": 454.16666666668607,
      "v": 74
    },
    {
      "midi": 66,
      "hit": false,
      "t": 193916.66666666628,
      "d": 445.83333333334303,
      "v": 98
    },
    {
      "midi": 73,
      "hit": false,
      "t": 193916.66666666628,
      "d": 454.16666666668607,
      "v": 102
    },
    {
      "midi": 80,
      "hit": false,
      "t": 193941.6666666666,
      "d": 466.66666666668607,
      "v": 108
    },
    {
      "midi": 69,
      "hit": false,
      "t": 194408.33333333296,
      "d": 666.666666666657,
      "v": 75
    },
    {
      "midi": 73,
      "hit": false,
      "t": 194412.49999999962,
      "d": 458.33333333334303,
      "v": 103
    },
    {
      "midi": 66,
      "hit": false,
      "t": 194412.49999999962,
      "d": 620.833333333343,
      "v": 98
    },
    {
      "midi": 78,
      "hit": false,
      "t": 194412.49999999994,
      "d": 2050,
      "v": 118
    },
    {
      "midi": 73,
      "hit": false,
      "t": 194879.1666666663,
      "d": 233.33333333331393,
      "v": 103
    },
    {
      "midi": 61,
      "hit": false,
      "t": 194887.49999999994,
      "d": 758.333333333343,
      "v": 110
    },
    {
      "midi": 64,
      "hit": false,
      "t": 194887.49999999994,
      "d": 766.6666666666861,
      "v": 104
    },
    {
      "midi": 69,
      "hit": false,
      "t": 195129.16666666628,
      "d": 666.6666666666279,
      "v": 76
    },
    {
      "midi": 52,
      "hit": false,
      "t": 195133.33333333294,
      "d": 3558.333333333343,
      "v": 77
    },
    {
      "midi": 73,
      "hit": false,
      "t": 195137.4999999996,
      "d": 645.8333333333139,
      "v": 81
    },
    {
      "midi": 66,
      "hit": false,
      "t": 195141.66666666625,
      "d": 675,
      "v": 84
    },
    {
      "midi": 61,
      "hit": false,
      "t": 195854.16666666663,
      "d": 370.83333333334303,
      "v": 98
    },
    {
      "midi": 64,
      "hit": false,
      "t": 195854.16666666663,
      "d": 375,
      "v": 99
    },
    {
      "midi": 69,
      "hit": false,
      "t": 195862.4999999996,
      "d": 1191.666666666657,
      "v": 75
    },
    {
      "midi": 73,
      "hit": false,
      "t": 195866.66666666625,
      "d": 1129.166666666657,
      "v": 102
    },
    {
      "midi": 66,
      "hit": false,
      "t": 195866.66666666625,
      "d": 1187.5,
      "v": 99
    },
    {
      "midi": 64,
      "hit": false,
      "t": 196345.83333333328,
      "d": 700,
      "v": 94
    },
    {
      "midi": 61,
      "hit": false,
      "t": 196345.83333333328,
      "d": 745.833333333343,
      "v": 93
    },
    {
      "midi": 69,
      "hit": false,
      "t": 197083.3333333329,
      "d": 662.5,
      "v": 76
    },
    {
      "midi": 73,
      "hit": false,
      "t": 197087.49999999956,
      "d": 650,
      "v": 81
    },
    {
      "midi": 66,
      "hit": false,
      "t": 197091.66666666622,
      "d": 675.0000000000291,
      "v": 85
    },
    {
      "midi": 81,
      "hit": false,
      "t": 197091.66666666663,
      "d": 470.83333333331393,
      "v": 111
    },
    {
      "midi": 66,
      "hit": false,
      "t": 197095.83333333328,
      "d": 208.33333333334303,
      "v": 94
    },
    {
      "midi": 69,
      "hit": false,
      "t": 197333.33333333328,
      "d": 225,
      "v": 101
    },
    {
      "midi": 81,
      "hit": false,
      "t": 197579.1666666666,
      "d": 95.83333333334303,
      "v": 112
    },
    {
      "midi": 66,
      "hit": false,
      "t": 197599.99999999994,
      "d": 141.66666666665697,
      "v": 86
    },
    {
      "midi": 78,
      "hit": false,
      "t": 197787.49999999994,
      "d": 95.83333333331393,
      "v": 107
    },
    {
      "midi": 69,
      "hit": false,
      "t": 197812.4999999996,
      "d": 454.16666666665697,
      "v": 75
    },
    {
      "midi": 66,
      "hit": false,
      "t": 197816.66666666625,
      "d": 450,
      "v": 98
    },
    {
      "midi": 73,
      "hit": false,
      "t": 197816.66666666625,
      "d": 458.33333333334303,
      "v": 103
    },
    {
      "midi": 68,
      "hit": false,
      "t": 197837.49999999994,
      "d": 466.66666666665697,
      "v": 98
    },
    {
      "midi": 80,
      "hit": false,
      "t": 197841.6666666666,
      "d": 425,
      "v": 104
    },
    {
      "midi": 78,
      "hit": false,
      "t": 198291.6666666666,
      "d": 704.1666666666861,
      "v": 118
    },
    {
      "midi": 69,
      "hit": false,
      "t": 198308.33333333294,
      "d": 433.33333333334303,
      "v": 74
    },
    {
      "midi": 66,
      "hit": false,
      "t": 198316.66666666628,
      "d": 616.666666666657,
      "v": 99
    },
    {
      "midi": 73,
      "hit": false,
      "t": 198316.66666666628,
      "d": 658.3333333333139,
      "v": 102
    },
    {
      "midi": 66,
      "hit": false,
      "t": 198324.99999999994,
      "d": 220.83333333334303,
      "v": 82
    },
    {
      "midi": 76,
      "hit": false,
      "t": 198545.83333333328,
      "d": 250,
      "v": 109
    },
    {
      "midi": 64,
      "hit": false,
      "t": 198566.66666666663,
      "d": 200,
      "v": 73
    },
    {
      "midi": 62,
      "hit": false,
      "t": 198770.83333333328,
      "d": 775,
      "v": 112
    },
    {
      "midi": 69,
      "hit": false,
      "t": 198791.66666666628,
      "d": 233.33333333331393,
      "v": 103
    },
    {
      "midi": 74,
      "hit": false,
      "t": 198791.66666666663,
      "d": 2170.833333333314,
      "v": 110
    },
    {
      "midi": 50,
      "hit": false,
      "t": 199037.4999999996,
      "d": 3445.833333333285,
      "v": 78
    },
    {
      "midi": 74,
      "hit": false,
      "t": 199041.66666666625,
      "d": 654.1666666666861,
      "v": 88
    },
    {
      "midi": 69,
      "hit": false,
      "t": 199049.9999999996,
      "d": 645.833333333343,
      "v": 88
    },
    {
      "midi": 78,
      "hit": false,
      "t": 199058.33333333294,
      "d": 608.333333333343,
      "v": 96
    },
    {
      "midi": 69,
      "hit": false,
      "t": 199520.83333333328,
      "d": 254.16666666665697,
      "v": 84
    },
    {
      "midi": 66,
      "hit": false,
      "t": 199520.83333333328,
      "d": 675,
      "v": 84
    },
    {
      "midi": 69,
      "hit": false,
      "t": 199745.83333333294,
      "d": 879.166666666657,
      "v": 74
    },
    {
      "midi": 66,
      "hit": false,
      "t": 199770.83333333294,
      "d": 408.33333333334303,
      "v": 102
    },
    {
      "midi": 74,
      "hit": false,
      "t": 199770.83333333294,
      "d": 662.5,
      "v": 103
    },
    {
      "midi": 62,
      "hit": false,
      "t": 199770.83333333328,
      "d": 400,
      "v": 112
    },
    {
      "midi": 69,
      "hit": false,
      "t": 200249.99999999994,
      "d": 254.16666666665697,
      "v": 84
    },
    {
      "midi": 66,
      "hit": false,
      "t": 200254.16666666628,
      "d": 641.6666666666279,
      "v": 75
    },
    {
      "midi": 66,
      "hit": false,
      "t": 200274.99999999994,
      "d": 662.5,
      "v": 88
    },
    {
      "midi": 74,
      "hit": false,
      "t": 200487.4999999996,
      "d": 449.9999999999709,
      "v": 100
    },
    {
      "midi": 62,
      "hit": false,
      "t": 200516.6666666666,
      "d": 2066.666666666686,
      "v": 110
    },
    {
      "midi": 69,
      "hit": false,
      "t": 200716.66666666625,
      "d": 916.6666666666279,
      "v": 99
    },
    {
      "midi": 81,
      "hit": false,
      "t": 200987.49999999956,
      "d": 662.4999999999709,
      "v": 84
    },
    {
      "midi": 74,
      "hit": false,
      "t": 200991.66666666622,
      "d": 695.8333333333139,
      "v": 119
    },
    {
      "midi": 76,
      "hit": false,
      "t": 200999.99999999994,
      "d": 683.3333333333139,
      "v": 110
    },
    {
      "midi": 69,
      "hit": false,
      "t": 201016.6666666666,
      "d": 650,
      "v": 93
    },
    {
      "midi": 69,
      "hit": false,
      "t": 201704.1666666662,
      "d": 641.666666666657,
      "v": 90
    },
    {
      "midi": 66,
      "hit": false,
      "t": 201716.6666666662,
      "d": 654.166666666657,
      "v": 89
    },
    {
      "midi": 74,
      "hit": false,
      "t": 201716.6666666662,
      "d": 675,
      "v": 110
    },
    {
      "midi": 74,
      "hit": false,
      "t": 201733.33333333326,
      "d": 829.1666666666861,
      "v": 112
    },
    {
      "midi": 69,
      "hit": false,
      "t": 201741.6666666666,
      "d": 862.5000000000291,
      "v": 90
    },
    {
      "midi": 69,
      "hit": false,
      "t": 202437.49999999953,
      "d": 433.33333333334303,
      "v": 98
    },
    {
      "midi": 66,
      "hit": false,
      "t": 202437.49999999953,
      "d": 508.33333333331393,
      "v": 78
    },
    {
      "midi": 74,
      "hit": false,
      "t": 202445.83333333288,
      "d": 466.66666666665697,
      "v": 112
    },
    {
      "midi": 73,
      "hit": false,
      "t": 202620.83333333328,
      "d": 2033.333333333343,
      "v": 102
    },
    {
      "midi": 69,
      "hit": false,
      "t": 202658.33333333328,
      "d": 2062.5,
      "v": 96
    },
    {
      "midi": 45,
      "hit": false,
      "t": 202937.49999999953,
      "d": 1850.000000000029,
      "v": 78
    },
    {
      "midi": 69,
      "hit": false,
      "t": 202941.6666666662,
      "d": 720.8333333333139,
      "v": 81
    },
    {
      "midi": 64,
      "hit": false,
      "t": 202949.9999999995,
      "d": 579.166666666657,
      "v": 103
    },
    {
      "midi": 73,
      "hit": false,
      "t": 202962.4999999995,
      "d": 637.5,
      "v": 88
    },
    {
      "midi": 76,
      "hit": false,
      "t": 203670.83333333285,
      "d": 579.1666666666861,
      "v": 102
    },
    {
      "midi": 73,
      "hit": false,
      "t": 203670.83333333285,
      "d": 762.5000000000291,
      "v": 102
    },
    {
      "midi": 81,
      "hit": false,
      "t": 203691.6666666662,
      "d": 762.5000000000291,
      "v": 98
    },
    {
      "midi": 64,
      "hit": false,
      "t": 204399.99999999953,
      "d": 441.66666666668607,
      "v": 80
    },
    {
      "midi": 76,
      "hit": false,
      "t": 204399.99999999953,
      "d": 441.66666666668607,
      "v": 88
    },
    {
      "midi": 61,
      "hit": false,
      "t": 204654.16666666622,
      "d": 241.66666666665697,
      "v": 90
    },
    {
      "midi": 73,
      "hit": false,
      "t": 204654.16666666622,
      "d": 612.4999999999709,
      "v": 98
    },
    {
      "midi": 64,
      "hit": false,
      "t": 204887.49999999994,
      "d": 512.5000000000291,
      "v": 101
    },
    {
      "midi": 45,
      "hit": false,
      "t": 204891.66666666622,
      "d": 670.8333333332848,
      "v": 96
    },
    {
      "midi": 81,
      "hit": false,
      "t": 204895.83333333288,
      "d": 699.9999999999709,
      "v": 119
    },
    {
      "midi": 69,
      "hit": false,
      "t": 204899.99999999953,
      "d": 545.8333333333139,
      "v": 74
    },
    {
      "midi": 76,
      "hit": false,
      "t": 204912.49999999953,
      "d": 658.3333333333139,
      "v": 96
    },
    {
      "midi": 69,
      "hit": false,
      "t": 205158.33333333328,
      "d": 345.83333333334303,
      "v": 108
    },
    {
      "midi": 73,
      "hit": false,
      "t": 205379.1666666662,
      "d": 233.33333333331393,
      "v": 90
    },
    {
      "midi": 73,
      "hit": false,
      "t": 205391.66666666663,
      "d": 220.83333333334303,
      "v": 101
    },
    {
      "midi": 76,
      "hit": false,
      "t": 205633.33333333285,
      "d": 658.333333333343,
      "v": 104
    },
    {
      "midi": 71,
      "hit": false,
      "t": 205633.33333333285,
      "d": 679.1666666666861,
      "v": 87
    },
    {
      "midi": 80,
      "hit": false,
      "t": 205633.33333333285,
      "d": 700.0000000000291,
      "v": 108
    },
    {
      "midi": 52,
      "hit": false,
      "t": 205633.33333333285,
      "d": 1179.166666666686,
      "v": 87
    },
    {
      "midi": 71,
      "hit": false,
      "t": 205633.3333333333,
      "d": 1116.666666666686,
      "v": 105
    },
    {
      "midi": 68,
      "hit": false,
      "t": 205641.66666666666,
      "d": 1204.166666666686,
      "v": 92
    },
    {
      "midi": 71,
      "hit": false,
      "t": 206337.49999999953,
      "d": 450,
      "v": 87
    },
    {
      "midi": 68,
      "hit": false,
      "t": 206349.99999999953,
      "d": 450,
      "v": 85
    },
    {
      "midi": 76,
      "hit": false,
      "t": 206349.99999999953,
      "d": 454.16666666665697,
      "v": 84
    },
    {
      "midi": 64,
      "hit": false,
      "t": 206350,
      "d": 475,
      "v": 89
    },
    {
      "midi": 57,
      "hit": false,
      "t": 206837.49999999953,
      "d": 662.5,
      "v": 77
    },
    {
      "midi": 54,
      "hit": false,
      "t": 206841.6666666662,
      "d": 1866.6666666666279,
      "v": 76
    },
    {
      "midi": 61,
      "hit": false,
      "t": 206845.83333333285,
      "d": 645.833333333343,
      "v": 81
    },
    {
      "midi": 66,
      "hit": false,
      "t": 206845.83333333285,
      "d": 675.0000000000291,
      "v": 89
    },
    {
      "midi": 66,
      "hit": false,
      "t": 206879.1666666667,
      "d": 1145.833333333343,
      "v": 113
    },
    {
      "midi": 57,
      "hit": false,
      "t": 207570.83333333288,
      "d": 662.4999999999709,
      "v": 74
    },
    {
      "midi": 66,
      "hit": false,
      "t": 207574.99999999953,
      "d": 629.166666666657,
      "v": 103
    },
    {
      "midi": 61,
      "hit": false,
      "t": 207574.99999999953,
      "d": 658.3333333333139,
      "v": 102
    },
    {
      "midi": 61,
      "hit": false,
      "t": 207604.1666666667,
      "d": 1112.5,
      "v": 86
    },
    {
      "midi": 66,
      "hit": false,
      "t": 208075.00000000003,
      "d": 1158.333333333343,
      "v": 89
    },
    {
      "midi": 57,
      "hit": false,
      "t": 208299.9999999995,
      "d": 408.33333333331393,
      "v": 75
    },
    {
      "midi": 61,
      "hit": false,
      "t": 208304.16666666616,
      "d": 404.16666666665697,
      "v": 103
    },
    {
      "midi": 66,
      "hit": false,
      "t": 208304.16666666616,
      "d": 404.16666666665697,
      "v": 103
    },
    {
      "midi": 81,
      "hit": false,
      "t": 208779.1666666667,
      "d": 408.33333333334303,
      "v": 109
    },
    {
      "midi": 57,
      "hit": false,
      "t": 208787.49999999948,
      "d": 666.666666666657,
      "v": 76
    },
    {
      "midi": 54,
      "hit": false,
      "t": 208791.66666666613,
      "d": 1866.666666666686,
      "v": 76
    },
    {
      "midi": 61,
      "hit": false,
      "t": 208795.8333333328,
      "d": 650,
      "v": 80
    },
    {
      "midi": 66,
      "hit": false,
      "t": 208799.99999999945,
      "d": 675.0000000000291,
      "v": 89
    },
    {
      "midi": 81,
      "hit": false,
      "t": 209279.16666666672,
      "d": 108.33333333334303,
      "v": 104
    },
    {
      "midi": 78,
      "hit": false,
      "t": 209495.8333333334,
      "d": 100,
      "v": 112
    },
    {
      "midi": 57,
      "hit": false,
      "t": 209520.83333333282,
      "d": 450,
      "v": 75
    },
    {
      "midi": 66,
      "hit": false,
      "t": 209524.99999999948,
      "d": 445.83333333334303,
      "v": 102
    },
    {
      "midi": 61,
      "hit": false,
      "t": 209524.99999999948,
      "d": 458.33333333334303,
      "v": 102
    },
    {
      "midi": 80,
      "hit": false,
      "t": 209550.00000000006,
      "d": 466.66666666668607,
      "v": 109
    },
    {
      "midi": 57,
      "hit": false,
      "t": 210016.66666666616,
      "d": 666.666666666657,
      "v": 74
    },
    {
      "midi": 61,
      "hit": false,
      "t": 210020.83333333282,
      "d": 458.33333333334303,
      "v": 102
    },
    {
      "midi": 66,
      "hit": false,
      "t": 210020.83333333282,
      "d": 620.833333333343,
      "v": 102
    },
    {
      "midi": 78,
      "hit": false,
      "t": 210020.8333333334,
      "d": 2050,
      "v": 119
    },
    {
      "midi": 61,
      "hit": false,
      "t": 210491.66666666616,
      "d": 233.33333333331393,
      "v": 102
    },
    {
      "midi": 61,
      "hit": false,
      "t": 210495.8333333334,
      "d": 758.333333333343,
      "v": 111
    },
    {
      "midi": 64,
      "hit": false,
      "t": 210495.8333333334,
      "d": 770.833333333343,
      "v": 105
    },
    {
      "midi": 57,
      "hit": false,
      "t": 210741.66666666613,
      "d": 662.5,
      "v": 77
    },
    {
      "midi": 61,
      "hit": false,
      "t": 210745.8333333328,
      "d": 650,
      "v": 80
    },
    {
      "midi": 52,
      "hit": false,
      "t": 210745.8333333328,
      "d": 3554.1666666667443,
      "v": 77
    },
    {
      "midi": 66,
      "hit": false,
      "t": 210749.99999999945,
      "d": 675.0000000000291,
      "v": 89
    },
    {
      "midi": 61,
      "hit": false,
      "t": 211462.5000000001,
      "d": 370.83333333331393,
      "v": 98
    },
    {
      "midi": 64,
      "hit": false,
      "t": 211466.66666666674,
      "d": 375,
      "v": 98
    },
    {
      "midi": 57,
      "hit": false,
      "t": 211470.83333333282,
      "d": 833.3333333333139,
      "v": 74
    },
    {
      "midi": 61,
      "hit": false,
      "t": 211474.99999999948,
      "d": 675,
      "v": 103
    },
    {
      "midi": 66,
      "hit": false,
      "t": 211474.99999999948,
      "d": 1025,
      "v": 102
    },
    {
      "midi": 64,
      "hit": false,
      "t": 211954.16666666674,
      "d": 700,
      "v": 95
    },
    {
      "midi": 61,
      "hit": false,
      "t": 211954.16666666674,
      "d": 745.833333333343,
      "v": 92
    },
    {
      "midi": 61,
      "hit": false,
      "t": 212199.99999999948,
      "d": 466.66666666665697,
      "v": 114
    },
    {
      "midi": 57,
      "hit": false,
      "t": 212429.16666666613,
      "d": 250,
      "v": 111
    },
    {
      "midi": 57,
      "hit": false,
      "t": 212691.66666666613,
      "d": 662.5000000000291,
      "v": 76
    },
    {
      "midi": 61,
      "hit": false,
      "t": 212699.99999999948,
      "d": 645.833333333343,
      "v": 80
    },
    {
      "midi": 66,
      "hit": false,
      "t": 212699.99999999948,
      "d": 675.0000000000291,
      "v": 84
    },
    {
      "midi": 81,
      "hit": false,
      "t": 212700.0000000001,
      "d": 470.83333333331393,
      "v": 111
    },
    {
      "midi": 66,
      "hit": false,
      "t": 212704.16666666674,
      "d": 208.33333333334303,
      "v": 94
    },
    {
      "midi": 69,
      "hit": false,
      "t": 212941.66666666674,
      "d": 225,
      "v": 100
    },
    {
      "midi": 81,
      "hit": false,
      "t": 213187.50000000006,
      "d": 100,
      "v": 112
    },
    {
      "midi": 66,
      "hit": false,
      "t": 213208.3333333334,
      "d": 145.83333333331393,
      "v": 86
    },
    {
      "midi": 78,
      "hit": false,
      "t": 213400.00000000006,
      "d": 95.83333333334303,
      "v": 106
    },
    {
      "midi": 57,
      "hit": false,
      "t": 213420.83333333285,
      "d": 454.16666666665697,
      "v": 74
    },
    {
      "midi": 66,
      "hit": false,
      "t": 213424.9999999995,
      "d": 450,
      "v": 99
    },
    {
      "midi": 61,
      "hit": false,
      "t": 213424.9999999995,
      "d": 458.33333333334303,
      "v": 103
    },
    {
      "midi": 80,
      "hit": false,
      "t": 213450.00000000006,
      "d": 425,
      "v": 105
    },
    {
      "midi": 68,
      "hit": false,
      "t": 213450.00000000006,
      "d": 462.5,
      "v": 98
    },
    {
      "midi": 78,
      "hit": false,
      "t": 213900.00000000006,
      "d": 704.1666666666861,
      "v": 119
    },
    {
      "midi": 57,
      "hit": false,
      "t": 213920.83333333285,
      "d": 150,
      "v": 74
    },
    {
      "midi": 61,
      "hit": false,
      "t": 213924.9999999995,
      "d": 179.16666666668607,
      "v": 102
    },
    {
      "midi": 66,
      "hit": false,
      "t": 213924.9999999995,
      "d": 208.33333333334303,
      "v": 98
    },
    {
      "midi": 66,
      "hit": false,
      "t": 213937.50000000006,
      "d": 216.66666666665697,
      "v": 82
    },
    {
      "midi": 57,
      "hit": false,
      "t": 214154.1666666662,
      "d": 375,
      "v": 74
    },
    {
      "midi": 66,
      "hit": false,
      "t": 214154.1666666662,
      "d": 437.5,
      "v": 98
    },
    {
      "midi": 61,
      "hit": false,
      "t": 214154.1666666662,
      "d": 483.33333333334303,
      "v": 102
    },
    {
      "midi": 76,
      "hit": false,
      "t": 214154.16666666672,
      "d": 254.16666666668607,
      "v": 109
    },
    {
      "midi": 64,
      "hit": false,
      "t": 214175.00000000006,
      "d": 200,
      "v": 72
    },
    {
      "midi": 62,
      "hit": false,
      "t": 214383.3333333334,
      "d": 770.833333333343,
      "v": 113
    },
    {
      "midi": 74,
      "hit": false,
      "t": 214400.00000000006,
      "d": 725.0000000000291,
      "v": 110
    },
    {
      "midi": 50,
      "hit": false,
      "t": 214645.83333333288,
      "d": 3445.833333333343,
      "v": 78
    },
    {
      "midi": 62,
      "hit": false,
      "t": 214649.99999999953,
      "d": 591.666666666657,
      "v": 88
    },
    {
      "midi": 66,
      "hit": false,
      "t": 214654.1666666662,
      "d": 608.333333333343,
      "v": 96
    },
    {
      "midi": 57,
      "hit": false,
      "t": 214658.33333333285,
      "d": 591.6666666666861,
      "v": 89
    },
    {
      "midi": 69,
      "hit": false,
      "t": 215129.16666666674,
      "d": 254.16666666665697,
      "v": 85
    },
    {
      "midi": 66,
      "hit": false,
      "t": 215129.16666666674,
      "d": 675,
      "v": 84
    },
    {
      "midi": 57,
      "hit": false,
      "t": 215370.83333333288,
      "d": 879.1666666666861,
      "v": 74
    },
    {
      "midi": 66,
      "hit": false,
      "t": 215379.16666666622,
      "d": 408.33333333334303,
      "v": 102
    },
    {
      "midi": 62,
      "hit": false,
      "t": 215379.16666666622,
      "d": 662.5,
      "v": 102
    },
    {
      "midi": 62,
      "hit": false,
      "t": 215383.3333333334,
      "d": 395.83333333334303,
      "v": 112
    },
    {
      "midi": 69,
      "hit": false,
      "t": 215858.3333333334,
      "d": 258.33333333334303,
      "v": 84
    },
    {
      "midi": 66,
      "hit": false,
      "t": 215862.49999999956,
      "d": 645.8333333333139,
      "v": 74
    },
    {
      "midi": 66,
      "hit": false,
      "t": 215883.3333333334,
      "d": 662.5000000000291,
      "v": 88
    },
    {
      "midi": 62,
      "hit": false,
      "t": 216099.99999999956,
      "d": 445.83333333331393,
      "v": 101
    },
    {
      "midi": 62,
      "hit": false,
      "t": 216125.0000000001,
      "d": 2070.833333333343,
      "v": 110
    },
    {
      "midi": 57,
      "hit": false,
      "t": 216341.66666666622,
      "d": 929.166666666657,
      "v": 98
    },
    {
      "midi": 66,
      "hit": false,
      "t": 216599.99999999953,
      "d": 658.333333333343,
      "v": 85
    },
    {
      "midi": 62,
      "hit": false,
      "t": 216599.99999999953,
      "d": 700,
      "v": 119
    },
    {
      "midi": 76,
      "hit": false,
      "t": 216612.5000000001,
      "d": 679.166666666657,
      "v": 111
    },
    {
      "midi": 69,
      "hit": false,
      "t": 216625.0000000001,
      "d": 650,
      "v": 93
    },
    {
      "midi": 62,
      "hit": false,
      "t": 217324.99999999953,
      "d": 675,
      "v": 110
    },
    {
      "midi": 57,
      "hit": false,
      "t": 217329.1666666662,
      "d": 641.666666666657,
      "v": 91
    },
    {
      "midi": 66,
      "hit": false,
      "t": 217329.1666666662,
      "d": 650,
      "v": 89
    },
    {
      "midi": 74,
      "hit": false,
      "t": 217341.66666666674,
      "d": 829.1666666666861,
      "v": 112
    },
    {
      "midi": 69,
      "hit": false,
      "t": 217350.0000000001,
      "d": 862.5,
      "v": 90
    },
    {
      "midi": 66,
      "hit": false,
      "t": 218045.83333333288,
      "d": 508.33333333331393,
      "v": 78
    },
    {
      "midi": 62,
      "hit": false,
      "t": 218054.16666666622,
      "d": 466.66666666665697,
      "v": 113
    },
    {
      "midi": 57,
      "hit": false,
      "t": 218062.49999999956,
      "d": 433.33333333331393,
      "v": 99
    },
    {
      "midi": 73,
      "hit": false,
      "t": 218229.16666666674,
      "d": 2037.5,
      "v": 102
    },
    {
      "midi": 69,
      "hit": false,
      "t": 218270.8333333334,
      "d": 2062.5,
      "v": 96
    },
    {
      "midi": 57,
      "hit": false,
      "t": 218549.99999999953,
      "d": 720.8333333333139,
      "v": 80
    },
    {
      "midi": 45,
      "hit": false,
      "t": 218549.99999999953,
      "d": 1850.000000000029,
      "v": 78
    },
    {
      "midi": 64,
      "hit": false,
      "t": 218558.33333333285,
      "d": 579.166666666657,
      "v": 103
    },
    {
      "midi": 61,
      "hit": false,
      "t": 218570.83333333285,
      "d": 637.5,
      "v": 89
    },
    {
      "midi": 64,
      "hit": false,
      "t": 219279.1666666662,
      "d": 579.1666666666861,
      "v": 103
    },
    {
      "midi": 61,
      "hit": false,
      "t": 219279.1666666662,
      "d": 762.5000000000291,
      "v": 103
    },
    {
      "midi": 69,
      "hit": false,
      "t": 219299.99999999953,
      "d": 762.5000000000291,
      "v": 102
    },
    {
      "midi": 64,
      "hit": false,
      "t": 220008.33333333288,
      "d": 441.66666666668607,
      "v": 88
    },
    {
      "midi": 61,
      "hit": false,
      "t": 220262.49999999956,
      "d": 612.5,
      "v": 98
    },
    {
      "midi": 64,
      "hit": false,
      "t": 220495.8333333334,
      "d": 512.5000000000291,
      "v": 100
    },
    {
      "midi": 45,
      "hit": false,
      "t": 220499.99999999956,
      "d": 670.833333333343,
      "v": 97
    },
    {
      "midi": 69,
      "hit": false,
      "t": 220504.16666666622,
      "d": 700.0000000000291,
      "v": 123
    },
    {
      "midi": 64,
      "hit": false,
      "t": 220524.99999999956,
      "d": 654.1666666666861,
      "v": 96
    },
    {
      "midi": 57,
      "hit": false,
      "t": 220749.99999999956,
      "d": 229.16666666665697,
      "v": 74
    },
    {
      "midi": 69,
      "hit": false,
      "t": 220766.66666666674,
      "d": 350.0000000000291,
      "v": 108
    },
    {
      "midi": 61,
      "hit": false,
      "t": 220987.49999999956,
      "d": 233.33333333334303,
      "v": 90
    },
    {
      "midi": 73,
      "hit": false,
      "t": 221000.0000000001,
      "d": 220.83333333334303,
      "v": 100
    },
    {
      "midi": 59,
      "hit": false,
      "t": 221241.66666666625,
      "d": 416.66666666665697,
      "v": 86
    },
    {
      "midi": 64,
      "hit": false,
      "t": 221241.66666666625,
      "d": 662.5,
      "v": 104
    },
    {
      "midi": 68,
      "hit": false,
      "t": 221241.66666666625,
      "d": 704.166666666657,
      "v": 113
    },
    {
      "midi": 52,
      "hit": false,
      "t": 221241.66666666625,
      "d": 1179.166666666657,
      "v": 86
    },
    {
      "midi": 71,
      "hit": false,
      "t": 221241.66666666677,
      "d": 712.5,
      "v": 104
    },
    {
      "midi": 68,
      "hit": false,
      "t": 221250.00000000012,
      "d": 1208.333333333343,
      "v": 92
    },
    {
      "midi": 59,
      "hit": false,
      "t": 221733.3333333329,
      "d": 608.3333333333139,
      "v": 87
    },
    {
      "midi": 64,
      "hit": false,
      "t": 221945.8333333329,
      "d": 454.16666666665697,
      "v": 70
    },
    {
      "midi": 64,
      "hit": false,
      "t": 221962.50000000012,
      "d": 470.83333333334303,
      "v": 89
    },
    {
      "midi": 68,
      "hit": false,
      "t": 222187.49999999956,
      "d": 212.5,
      "v": 85
    },
    {
      "midi": 69,
      "hit": false,
      "t": 222441.66666666625,
      "d": 629.166666666657,
      "v": 96
    },
    {
      "midi": 50,
      "hit": false,
      "t": 222445.8333333329,
      "d": 633.333333333343,
      "v": 104
    },
    {
      "midi": 73,
      "hit": false,
      "t": 222445.8333333329,
      "d": 633.333333333343,
      "v": 110
    },
    {
      "midi": 78,
      "hit": false,
      "t": 222445.8333333329,
      "d": 650,
      "v": 103
    },
    {
      "midi": 69,
      "hit": false,
      "t": 222475.00000000012,
      "d": 604.166666666657,
      "v": 108
    },
    {
      "midi": 66,
      "hit": false,
      "t": 222479.16666666677,
      "d": 600,
      "v": 90
    },
    {
      "midi": 73,
      "hit": false,
      "t": 222479.16666666677,
      "d": 620.833333333343,
      "v": 90
    },
    {
      "midi": 73,
      "hit": false,
      "t": 223174.99999999956,
      "d": 429.16666666665697,
      "v": 113
    },
    {
      "midi": 69,
      "hit": false,
      "t": 223174.99999999956,
      "d": 437.5,
      "v": 98
    },
    {
      "midi": 50,
      "hit": false,
      "t": 223174.99999999956,
      "d": 1095.8333333332557,
      "v": 104
    },
    {
      "midi": 78,
      "hit": false,
      "t": 223179.16666666622,
      "d": 433.33333333334303,
      "v": 108
    },
    {
      "midi": 69,
      "hit": false,
      "t": 223183.33333333346,
      "d": 895.8333333333139,
      "v": 96
    },
    {
      "midi": 66,
      "hit": false,
      "t": 223187.50000000012,
      "d": 891.666666666657,
      "v": 94
    },
    {
      "midi": 73,
      "hit": false,
      "t": 223187.50000000012,
      "d": 908.3333333333139,
      "v": 83
    },
    {
      "midi": 73,
      "hit": false,
      "t": 223679.16666666622,
      "d": 166.66666666665697,
      "v": 96
    },
    {
      "midi": 69,
      "hit": false,
      "t": 223683.33333333288,
      "d": 162.5,
      "v": 77
    },
    {
      "midi": 78,
      "hit": false,
      "t": 223683.33333333288,
      "d": 175,
      "v": 97
    },
    {
      "midi": 69,
      "hit": false,
      "t": 223924.99999999953,
      "d": 141.66666666665697,
      "v": 88
    },
    {
      "midi": 78,
      "hit": false,
      "t": 223924.99999999953,
      "d": 154.16666666665697,
      "v": 86
    },
    {
      "midi": 73,
      "hit": false,
      "t": 223929.1666666662,
      "d": 129.16666666665697,
      "v": 98
    },
    {
      "midi": 69,
      "hit": false,
      "t": 224145.83333333285,
      "d": 145.83333333328483,
      "v": 92
    },
    {
      "midi": 78,
      "hit": false,
      "t": 224149.9999999995,
      "d": 145.83333333328483,
      "v": 94
    },
    {
      "midi": 73,
      "hit": false,
      "t": 224154.16666666616,
      "d": 133.33333333331393,
      "v": 102
    },
    {
      "midi": 69,
      "hit": false,
      "t": 224162.5000000001,
      "d": 133.33333333334303,
      "v": 75
    },
    {
      "midi": 66,
      "hit": false,
      "t": 224166.66666666674,
      "d": 104.16666666668607,
      "v": 55
    },
    {
      "midi": 73,
      "hit": false,
      "t": 224175.0000000001,
      "d": 154.16666666668607,
      "v": 31
    },
    {
      "midi": 69,
      "hit": false,
      "t": 224395.8333333328,
      "d": 608.333333333343,
      "v": 104
    },
    {
      "midi": 73,
      "hit": false,
      "t": 224395.8333333328,
      "d": 625,
      "v": 114
    },
    {
      "midi": 50,
      "hit": false,
      "t": 224395.8333333328,
      "d": 629.166666666657,
      "v": 101
    },
    {
      "midi": 78,
      "hit": false,
      "t": 224395.8333333328,
      "d": 641.666666666657,
      "v": 104
    },
    {
      "midi": 69,
      "hit": false,
      "t": 224429.16666666677,
      "d": 604.166666666657,
      "v": 110
    },
    {
      "midi": 73,
      "hit": false,
      "t": 224429.16666666677,
      "d": 620.8333333333139,
      "v": 83
    },
    {
      "midi": 66,
      "hit": false,
      "t": 224433.33333333343,
      "d": 595.833333333343,
      "v": 97
    },
    {
      "midi": 69,
      "hit": false,
      "t": 225116.6666666661,
      "d": 433.33333333334303,
      "v": 92
    },
    {
      "midi": 78,
      "hit": false,
      "t": 225116.6666666661,
      "d": 616.6666666666861,
      "v": 92
    },
    {
      "midi": 73,
      "hit": false,
      "t": 225120.83333333276,
      "d": 629.1666666666861,
      "v": 104
    },
    {
      "midi": 50,
      "hit": false,
      "t": 225129.1666666661,
      "d": 891.6666666666861,
      "v": 82
    },
    {
      "midi": 66,
      "hit": false,
      "t": 225129.16666666674,
      "d": 395.83333333331393,
      "v": 90
    },
    {
      "midi": 69,
      "hit": false,
      "t": 225133.3333333334,
      "d": 391.66666666665697,
      "v": 101
    },
    {
      "midi": 73,
      "hit": false,
      "t": 225133.3333333334,
      "d": 408.33333333331393,
      "v": 73
    },
    {
      "midi": 66,
      "hit": false,
      "t": 225616.66666666672,
      "d": 654.166666666657,
      "v": 76
    },
    {
      "midi": 69,
      "hit": false,
      "t": 225616.66666666672,
      "d": 662.5,
      "v": 88
    },
    {
      "midi": 69,
      "hit": false,
      "t": 225620.8333333328,
      "d": 691.666666666657,
      "v": 91
    },
    {
      "midi": 73,
      "hit": false,
      "t": 225620.83333333337,
      "d": 700,
      "v": 61
    },
    {
      "midi": 73,
      "hit": false,
      "t": 225849.99999999945,
      "d": 445.83333333334303,
      "v": 98
    },
    {
      "midi": 78,
      "hit": false,
      "t": 225849.99999999945,
      "d": 508.33333333331393,
      "v": 85
    },
    {
      "midi": 50,
      "hit": false,
      "t": 226104.16666666613,
      "d": 237.4999999999709,
      "v": 81
    },
    {
      "midi": 52,
      "hit": false,
      "t": 226345.83333333276,
      "d": 633.333333333343,
      "v": 104
    },
    {
      "midi": 73,
      "hit": false,
      "t": 226354.16666666672,
      "d": 683.333333333343,
      "v": 91
    },
    {
      "midi": 69,
      "hit": false,
      "t": 226358.33333333337,
      "d": 658.333333333343,
      "v": 99
    },
    {
      "midi": 64,
      "hit": false,
      "t": 226358.33333333337,
      "d": 666.6666666666861,
      "v": 99
    },
    {
      "midi": 73,
      "hit": false,
      "t": 226383.33333333276,
      "d": 608.333333333343,
      "v": 103
    },
    {
      "midi": 76,
      "hit": false,
      "t": 226383.33333333276,
      "d": 616.6666666666861,
      "v": 111
    },
    {
      "midi": 81,
      "hit": false,
      "t": 226383.33333333276,
      "d": 637.5000000000291,
      "v": 106
    },
    {
      "midi": 52,
      "hit": false,
      "t": 227079.16666666613,
      "d": 1091.666666666657,
      "v": 105
    },
    {
      "midi": 64,
      "hit": false,
      "t": 227100.00000000006,
      "d": 641.666666666657,
      "v": 88
    },
    {
      "midi": 73,
      "hit": false,
      "t": 227100.00000000006,
      "d": 654.166666666657,
      "v": 90
    },
    {
      "midi": 73,
      "hit": false,
      "t": 227104.16666666613,
      "d": 425,
      "v": 87
    },
    {
      "midi": 81,
      "hit": false,
      "t": 227104.16666666613,
      "d": 441.66666666665697,
      "v": 100
    },
    {
      "midi": 69,
      "hit": false,
      "t": 227104.16666666672,
      "d": 633.333333333343,
      "v": 102
    },
    {
      "midi": 76,
      "hit": false,
      "t": 227108.3333333328,
      "d": 425,
      "v": 94
    },
    {
      "midi": 81,
      "hit": false,
      "t": 227591.66666666613,
      "d": 179.16666666665697,
      "v": 81
    },
    {
      "midi": 73,
      "hit": false,
      "t": 227595.8333333328,
      "d": 166.66666666665697,
      "v": 65
    },
    {
      "midi": 76,
      "hit": false,
      "t": 227595.8333333328,
      "d": 175,
      "v": 97
    },
    {
      "midi": 73,
      "hit": false,
      "t": 227800.00000000006,
      "d": 458.33333333331393,
      "v": 61
    },
    {
      "midi": 64,
      "hit": false,
      "t": 227804.16666666672,
      "d": 429.16666666665697,
      "v": 71
    },
    {
      "midi": 69,
      "hit": false,
      "t": 227808.33333333337,
      "d": 437.5,
      "v": 84
    },
    {
      "midi": 73,
      "hit": false,
      "t": 227833.3333333328,
      "d": 137.5,
      "v": 73
    },
    {
      "midi": 81,
      "hit": false,
      "t": 227833.3333333328,
      "d": 137.5,
      "v": 94
    },
    {
      "midi": 76,
      "hit": false,
      "t": 227837.49999999945,
      "d": 120.83333333334303,
      "v": 90
    },
    {
      "midi": 81,
      "hit": false,
      "t": 228054.16666666613,
      "d": 141.66666666665697,
      "v": 96
    },
    {
      "midi": 73,
      "hit": false,
      "t": 228054.16666666613,
      "d": 154.16666666665697,
      "v": 73
    },
    {
      "midi": 76,
      "hit": false,
      "t": 228058.3333333328,
      "d": 141.66666666665697,
      "v": 93
    },
    {
      "midi": 52,
      "hit": false,
      "t": 228299.99999999945,
      "d": 629.166666666657,
      "v": 100
    },
    {
      "midi": 81,
      "hit": false,
      "t": 228308.3333333328,
      "d": 187.5,
      "v": 90
    },
    {
      "midi": 71,
      "hit": false,
      "t": 228312.49999999945,
      "d": 187.5,
      "v": 98
    },
    {
      "midi": 76,
      "hit": false,
      "t": 228316.6666666661,
      "d": 158.33333333334303,
      "v": 102
    },
    {
      "midi": 69,
      "hit": false,
      "t": 228325.00000000003,
      "d": 641.666666666657,
      "v": 96
    },
    {
      "midi": 71,
      "hit": false,
      "t": 228325.00000000003,
      "d": 649.9999999999709,
      "v": 90
    },
    {
      "midi": 64,
      "hit": false,
      "t": 228329.1666666667,
      "d": 641.666666666657,
      "v": 90
    },
    {
      "midi": 81,
      "hit": false,
      "t": 228566.6666666661,
      "d": 154.16666666665697,
      "v": 54
    },
    {
      "midi": 76,
      "hit": false,
      "t": 228570.83333333276,
      "d": 133.33333333334303,
      "v": 84
    },
    {
      "midi": 71,
      "hit": false,
      "t": 228570.83333333276,
      "d": 137.5,
      "v": 51
    },
    {
      "midi": 81,
      "hit": false,
      "t": 228804.1666666661,
      "d": 141.66666666665697,
      "v": 50
    },
    {
      "midi": 76,
      "hit": false,
      "t": 228804.1666666661,
      "d": 150,
      "v": 63
    },
    {
      "midi": 71,
      "hit": false,
      "t": 228812.49999999945,
      "d": 133.33333333331393,
      "v": 51
    },
    {
      "midi": 52,
      "hit": false,
      "t": 229029.1666666661,
      "d": 891.6666666666279,
      "v": 82
    },
    {
      "midi": 76,
      "hit": false,
      "t": 229033.33333333276,
      "d": 145.83333333331393,
      "v": 99
    },
    {
      "midi": 71,
      "hit": false,
      "t": 229033.33333333276,
      "d": 149.9999999999709,
      "v": 82
    },
    {
      "midi": 81,
      "hit": false,
      "t": 229037.49999999942,
      "d": 154.16666666665697,
      "v": 98
    },
    {
      "midi": 64,
      "hit": false,
      "t": 229037.5,
      "d": 637.4999999999709,
      "v": 90
    },
    {
      "midi": 71,
      "hit": false,
      "t": 229041.66666666666,
      "d": 658.3333333333139,
      "v": 90
    },
    {
      "midi": 69,
      "hit": false,
      "t": 229045.8333333333,
      "d": 637.5,
      "v": 103
    },
    {
      "midi": 81,
      "hit": false,
      "t": 229266.66666666607,
      "d": 141.66666666665697,
      "v": 55
    },
    {
      "midi": 76,
      "hit": false,
      "t": 229270.83333333273,
      "d": 125,
      "v": 70
    },
    {
      "midi": 71,
      "hit": false,
      "t": 229283.33333333273,
      "d": 112.5,
      "v": 48
    },
    {
      "midi": 81,
      "hit": false,
      "t": 229508.33333333273,
      "d": 158.33333333334303,
      "v": 72
    },
    {
      "midi": 76,
      "hit": false,
      "t": 229508.33333333273,
      "d": 162.5,
      "v": 84
    },
    {
      "midi": 71,
      "hit": false,
      "t": 229512.4999999994,
      "d": 145.83333333334303,
      "v": 65
    },
    {
      "midi": 64,
      "hit": false,
      "t": 229774.99999999997,
      "d": 341.66666666665697,
      "v": 99
    },
    {
      "midi": 71,
      "hit": false,
      "t": 229774.99999999997,
      "d": 358.33333333331393,
      "v": 96
    },
    {
      "midi": 81,
      "hit": false,
      "t": 229779.16666666607,
      "d": 170.83333333331393,
      "v": 99
    },
    {
      "midi": 69,
      "hit": false,
      "t": 229779.16666666663,
      "d": 358.33333333331393,
      "v": 109
    },
    {
      "midi": 71,
      "hit": false,
      "t": 229783.33333333273,
      "d": 145.83333333334303,
      "v": 98
    },
    {
      "midi": 76,
      "hit": false,
      "t": 229783.33333333273,
      "d": 150,
      "v": 108
    },
    {
      "midi": 52,
      "hit": false,
      "t": 230008.33333333273,
      "d": 233.33333333331393,
      "v": 80
    },
    {
      "midi": 81,
      "hit": false,
      "t": 230033.33333333273,
      "d": 158.33333333331393,
      "v": 76
    },
    {
      "midi": 71,
      "hit": false,
      "t": 230037.4999999994,
      "d": 137.5,
      "v": 62
    },
    {
      "midi": 76,
      "hit": false,
      "t": 230041.66666666605,
      "d": 145.83333333334303,
      "v": 80
    },
    {
      "midi": 52,
      "hit": false,
      "t": 230249.9999999994,
      "d": 629.166666666657,
      "v": 100
    },
    {
      "midi": 76,
      "hit": false,
      "t": 230270.83333333273,
      "d": 150,
      "v": 100
    },
    {
      "midi": 80,
      "hit": false,
      "t": 230270.83333333273,
      "d": 654.166666666657,
      "v": 94
    },
    {
      "midi": 68,
      "hit": false,
      "t": 230270.83333333328,
      "d": 666.666666666657,
      "v": 86
    },
    {
      "midi": 71,
      "hit": false,
      "t": 230270.83333333328,
      "d": 679.166666666657,
      "v": 101
    },
    {
      "midi": 71,
      "hit": false,
      "t": 230274.9999999994,
      "d": 162.5,
      "v": 81
    },
    {
      "midi": 64,
      "hit": false,
      "t": 230274.99999999994,
      "d": 666.666666666657,
      "v": 98
    },
    {
      "midi": 71,
      "hit": false,
      "t": 230508.33333333273,
      "d": 154.16666666665697,
      "v": 70
    },
    {
      "midi": 76,
      "hit": false,
      "t": 230508.33333333273,
      "d": 154.16666666665697,
      "v": 80
    },
    {
      "midi": 76,
      "hit": false,
      "t": 230749.9999999994,
      "d": 179.16666666665697,
      "v": 86
    },
    {
      "midi": 71,
      "hit": false,
      "t": 230749.9999999994,
      "d": 200,
      "v": 76
    },
    {
      "midi": 52,
      "hit": false,
      "t": 230983.33333333273,
      "d": 604.1666666666279,
      "v": 83
    },
    {
      "midi": 71,
      "hit": false,
      "t": 230995.83333333273,
      "d": 175,
      "v": 66
    },
    {
      "midi": 76,
      "hit": false,
      "t": 230999.9999999994,
      "d": 150,
      "v": 95
    },
    {
      "midi": 80,
      "hit": false,
      "t": 230999.9999999994,
      "d": 641.6666666666279,
      "v": 79
    },
    {
      "midi": 68,
      "hit": false,
      "t": 231004.1666666666,
      "d": 650,
      "v": 92
    },
    {
      "midi": 64,
      "hit": false,
      "t": 231008.33333333326,
      "d": 650,
      "v": 86
    },
    {
      "midi": 71,
      "hit": false,
      "t": 231008.33333333326,
      "d": 658.333333333343,
      "v": 93
    },
    {
      "midi": 71,
      "hit": false,
      "t": 231237.4999999994,
      "d": 170.83333333331393,
      "v": 70
    },
    {
      "midi": 76,
      "hit": false,
      "t": 231241.66666666605,
      "d": 162.5,
      "v": 75
    },
    {
      "midi": 71,
      "hit": false,
      "t": 231466.66666666605,
      "d": 212.4999999999709,
      "v": 69
    },
    {
      "midi": 76,
      "hit": false,
      "t": 231470.8333333327,
      "d": 183.33333333331393,
      "v": 88
    },
    {
      "midi": 71,
      "hit": false,
      "t": 231708.33333333267,
      "d": 174.9999999999709,
      "v": 47
    },
    {
      "midi": 52,
      "hit": false,
      "t": 231712.49999999933,
      "d": 483.3333333332848,
      "v": 83
    },
    {
      "midi": 76,
      "hit": false,
      "t": 231716.666666666,
      "d": 154.16666666665697,
      "v": 92
    },
    {
      "midi": 80,
      "hit": false,
      "t": 231720.83333333264,
      "d": 445.83333333331393,
      "v": 92
    },
    {
      "midi": 71,
      "hit": false,
      "t": 231724.99999999994,
      "d": 445.83333333331393,
      "v": 94
    },
    {
      "midi": 68,
      "hit": false,
      "t": 231729.1666666666,
      "d": 416.66666666665697,
      "v": 94
    },
    {
      "midi": 64,
      "hit": false,
      "t": 231733.33333333326,
      "d": 404.16666666665697,
      "v": 92
    },
    {
      "midi": 76,
      "hit": false,
      "t": 231941.666666666,
      "d": 220.83333333331393,
      "v": 77
    },
    {
      "midi": 71,
      "hit": false,
      "t": 231945.83333333264,
      "d": 204.16666666665697,
      "v": 65
    },
    {
      "midi": 81,
      "hit": false,
      "t": 232204.16666666596,
      "d": 725.0000000000291,
      "v": 119
    },
    {
      "midi": 73,
      "hit": false,
      "t": 232204.16666666596,
      "d": 1912.5,
      "v": 113
    },
    {
      "midi": 45,
      "hit": false,
      "t": 232212.4999999993,
      "d": 7745.833333333343,
      "v": 106
    },
    {
      "midi": 64,
      "hit": false,
      "t": 232220.83333333264,
      "d": 5875,
      "v": 106
    },
    {
      "midi": 73,
      "hit": false,
      "t": 232233.33333333326,
      "d": 2695.833333333343,
      "v": 93
    },
    {
      "midi": 69,
      "hit": false,
      "t": 232241.6666666666,
      "d": 6883.333333333343,
      "v": 100
    },
    {
      "midi": 64,
      "hit": false,
      "t": 232241.6666666666,
      "d": 7341.666666666686,
      "v": 95
    },
    {
      "midi": 80,
      "hit": false,
      "t": 232945.83333333264,
      "d": 716.666666666657,
      "v": 104
    },
    {
      "midi": 78,
      "hit": false,
      "t": 233679.16666666596,
      "d": 437.5,
      "v": 113
    },
    {
      "midi": 76,
      "hit": false,
      "t": 234174.9999999993,
      "d": 683.333333333343,
      "v": 119
    },
    {
      "midi": 74,
      "hit": false,
      "t": 234895.83333333264,
      "d": 670.833333333343,
      "v": 112
    },
    {
      "midi": 74,
      "hit": false,
      "t": 234920.83333333326,
      "d": 1170.833333333343,
      "v": 38
    },
    {
      "midi": 73,
      "hit": false,
      "t": 235620.83333333264,
      "d": 483.33333333334303,
      "v": 114
    },
    {
      "midi": 81,
      "hit": false,
      "t": 236104.166666666,
      "d": 729.166666666657,
      "v": 118
    },
    {
      "midi": 80,
      "hit": false,
      "t": 236849.9999999993,
      "d": 716.666666666657,
      "v": 104
    },
    {
      "midi": 78,
      "hit": false,
      "t": 237587.4999999993,
      "d": 441.66666666665697,
      "v": 112
    },
    {
      "midi": 76,
      "hit": false,
      "t": 238087.4999999993,
      "d": 712.5,
      "v": 118
    },
    {
      "midi": 74,
      "hit": false,
      "t": 238841.66666666596,
      "d": 708.333333333343,
      "v": 113
    },
    {
      "midi": 73,
      "hit": false,
      "t": 239608.33333333264,
      "d": 541.666666666657,
      "v": 115
    },
    {
      "midi": 81,
      "hit": false,
      "t": 240166.66666666596,
      "d": 6879.166666666657,
      "v": 120
    }
  ]
}