{
  "jsonPath": "Rock/Pop Rock/James Blunt/high-album-version.json",
  "path": "Rock\\Pop Rock\\James Blunt\\High (Album Version).mid",
  "name": "High (Album Version)",
  "difficulty": "Advanced",
  "bpm": 81.34005021392433,
  "notes": [
    {
      "midi": 53,
      "hit": false,
      "t": 14746.732966666666,
      "d": 5735.182100000002,
      "v": 121
    },
    {
      "midi": 62,
      "hit": false,
      "t": 14746.732966666666,
      "d": 5741.329133333336,
      "v": 99
    },
    {
      "midi": 58,
      "hit": false,
      "t": 14746.732966666666,
      "d": 5747.476166666671,
      "v": 102
    },
    {
      "midi": 62,
      "hit": false,
      "t": 20647.884966666672,
      "d": 5772.064300000002,
      "v": 101
    },
    {
      "midi": 57,
      "hit": false,
      "t": 20654.032000000007,
      "d": 5759.770233333333,
      "v": 115
    },
    {
      "midi": 55,
      "hit": false,
      "t": 20654.032000000007,
      "d": 5765.917266666667,
      "v": 112
    },
    {
      "midi": 60,
      "hit": false,
      "t": 20654.032000000007,
      "d": 5765.917266666667,
      "v": 98
    },
    {
      "midi": 55,
      "hit": false,
      "t": 26549.036966666674,
      "d": 4419.716966666667,
      "v": 110
    },
    {
      "midi": 58,
      "hit": false,
      "t": 26549.036966666674,
      "d": 5845.828700000002,
      "v": 103
    },
    {
      "midi": 62,
      "hit": false,
      "t": 26549.036966666674,
      "d": 5870.416833333336,
      "v": 101
    },
    {
      "midi": 53,
      "hit": false,
      "t": 30974.900966666675,
      "d": 1444.552833333335,
      "v": 122
    },
    {
      "midi": 52,
      "hit": false,
      "t": 32431.747866666676,
      "d": 5815.093533333336,
      "v": 122
    },
    {
      "midi": 55,
      "hit": false,
      "t": 32450.188966666676,
      "d": 5815.093533333333,
      "v": 123
    },
    {
      "midi": 58,
      "hit": false,
      "t": 32450.188966666676,
      "d": 5833.534633333329,
      "v": 89
    },
    {
      "midi": 60,
      "hit": false,
      "t": 32450.188966666676,
      "d": 5839.681666666664,
      "v": 90
    },
    {
      "midi": 64,
      "hit": false,
      "t": 32450.188966666676,
      "d": 5851.975733333333,
      "v": 94
    },
    {
      "midi": 65,
      "hit": false,
      "t": 38351.34096666668,
      "d": 5698.299899999998,
      "v": 127
    },
    {
      "midi": 53,
      "hit": false,
      "t": 38351.34096666668,
      "d": 5710.593966666667,
      "v": 127
    },
    {
      "midi": 58,
      "hit": false,
      "t": 38351.34096666668,
      "d": 5759.770233333336,
      "v": 126
    },
    {
      "midi": 62,
      "hit": false,
      "t": 38351.34096666668,
      "d": 5790.505400000002,
      "v": 125
    },
    {
      "midi": 67,
      "hit": false,
      "t": 44252.49296666668,
      "d": 5679.858800000002,
      "v": 120
    },
    {
      "midi": 62,
      "hit": false,
      "t": 44252.49296666668,
      "d": 5692.152866666671,
      "v": 122
    },
    {
      "midi": 58,
      "hit": false,
      "t": 44252.49296666668,
      "d": 5698.299900000005,
      "v": 117
    },
    {
      "midi": 55,
      "hit": false,
      "t": 44252.49296666668,
      "d": 5704.44693333334,
      "v": 124
    },
    {
      "midi": 58,
      "hit": false,
      "t": 50153.64496666669,
      "d": 5710.593966666667,
      "v": 121
    },
    {
      "midi": 63,
      "hit": false,
      "t": 50153.64496666669,
      "d": 5716.741000000002,
      "v": 115
    },
    {
      "midi": 48,
      "hit": false,
      "t": 50159.79200000002,
      "d": 5716.741000000002,
      "v": 124
    },
    {
      "midi": 55,
      "hit": false,
      "t": 50159.79200000002,
      "d": 5716.741000000002,
      "v": 122
    },
    {
      "midi": 65,
      "hit": false,
      "t": 56054.79696666669,
      "d": 4382.834766666667,
      "v": 125
    },
    {
      "midi": 58,
      "hit": false,
      "t": 56054.79696666669,
      "d": 4395.128833333336,
      "v": 127
    },
    {
      "midi": 55,
      "hit": false,
      "t": 56054.79696666669,
      "d": 4401.2758666666705,
      "v": 126
    },
    {
      "midi": 63,
      "hit": false,
      "t": 56054.79696666669,
      "d": 4401.2758666666705,
      "v": 124
    },
    {
      "midi": 48,
      "hit": false,
      "t": 56054.79696666669,
      "d": 4407.422900000005,
      "v": 123
    },
    {
      "midi": 58,
      "hit": false,
      "t": 60486.80800000003,
      "d": 706.9088333333348,
      "v": 89
    },
    {
      "midi": 63,
      "hit": false,
      "t": 60486.80800000003,
      "d": 706.9088333333348,
      "v": 83
    },
    {
      "midi": 65,
      "hit": false,
      "t": 60486.80800000003,
      "d": 706.9088333333348,
      "v": 88
    },
    {
      "midi": 55,
      "hit": false,
      "t": 60486.80800000003,
      "d": 713.0558666666693,
      "v": 90
    },
    {
      "midi": 48,
      "hit": false,
      "t": 60492.95503333336,
      "d": 1432.258766666666,
      "v": 97
    },
    {
      "midi": 55,
      "hit": false,
      "t": 61224.45200000003,
      "d": 700.7618000000002,
      "v": 126
    },
    {
      "midi": 58,
      "hit": false,
      "t": 61224.45200000003,
      "d": 700.7618000000002,
      "v": 124
    },
    {
      "midi": 65,
      "hit": false,
      "t": 61224.45200000003,
      "d": 700.7618000000002,
      "v": 119
    },
    {
      "midi": 63,
      "hit": false,
      "t": 61224.45200000003,
      "d": 706.9088333333348,
      "v": 117
    },
    {
      "midi": 34,
      "hit": false,
      "t": 85529.8218,
      "d": 2784.6061000000045,
      "v": 123
    },
    {
      "midi": 46,
      "hit": false,
      "t": 85535.96883333333,
      "d": 1364.6414000000077,
      "v": 110
    },
    {
      "midi": 53,
      "hit": false,
      "t": 85886.34973333334,
      "d": 577.8211333333311,
      "v": 103
    },
    {
      "midi": 62,
      "hit": false,
      "t": 86279.75986666667,
      "d": 1419.9646999999968,
      "v": 127
    },
    {
      "midi": 58,
      "hit": false,
      "t": 86285.9069,
      "d": 1383.082500000004,
      "v": 126
    },
    {
      "midi": 53,
      "hit": false,
      "t": 86667.02296666667,
      "d": 540.9389333333384,
      "v": 127
    },
    {
      "midi": 46,
      "hit": false,
      "t": 87017.40386666667,
      "d": 1247.8477666666731,
      "v": 126
    },
    {
      "midi": 53,
      "hit": false,
      "t": 87373.9318,
      "d": 645.4385000000038,
      "v": 122
    },
    {
      "midi": 58,
      "hit": false,
      "t": 87773.48896666667,
      "d": 1389.2295333333168,
      "v": 125
    },
    {
      "midi": 62,
      "hit": false,
      "t": 87773.48896666667,
      "d": 1389.2295333333168,
      "v": 127
    },
    {
      "midi": 53,
      "hit": false,
      "t": 88136.16393333334,
      "d": 633.1444333333202,
      "v": 104
    },
    {
      "midi": 46,
      "hit": false,
      "t": 88320.57493333334,
      "d": 1530.6112999999896,
      "v": 88
    },
    {
      "midi": 34,
      "hit": false,
      "t": 88498.8389,
      "d": 2803.0471999999863,
      "v": 127
    },
    {
      "midi": 53,
      "hit": false,
      "t": 88879.95496666666,
      "d": 608.5562999999966,
      "v": 107
    },
    {
      "midi": 62,
      "hit": false,
      "t": 89248.77696666666,
      "d": 1413.8176666666695,
      "v": 126
    },
    {
      "midi": 58,
      "hit": false,
      "t": 89254.92399999998,
      "d": 1063.4367666666803,
      "v": 122
    },
    {
      "midi": 53,
      "hit": false,
      "t": 89617.59896666666,
      "d": 583.9681666666729,
      "v": 127
    },
    {
      "midi": 57,
      "hit": false,
      "t": 89697.51039999998,
      "d": 67.61736666667275,
      "v": 31
    },
    {
      "midi": 46,
      "hit": false,
      "t": 89967.97986666666,
      "d": 1370.7884333333204,
      "v": 126
    },
    {
      "midi": 53,
      "hit": false,
      "t": 90330.65483333333,
      "d": 602.4092666666547,
      "v": 127
    },
    {
      "midi": 62,
      "hit": false,
      "t": 90724.06496666666,
      "d": 909.7609333333094,
      "v": 111
    },
    {
      "midi": 58,
      "hit": false,
      "t": 90730.21199999998,
      "d": 897.4668666666548,
      "v": 122
    },
    {
      "midi": 53,
      "hit": false,
      "t": 91105.18103333333,
      "d": 344.2338666666474,
      "v": 127
    },
    {
      "midi": 38,
      "hit": false,
      "t": 91467.85599999997,
      "d": 2698.5476333333063,
      "v": 118
    },
    {
      "midi": 54,
      "hit": false,
      "t": 91812.08986666663,
      "d": 633.1444333333202,
      "v": 126
    },
    {
      "midi": 57,
      "hit": false,
      "t": 92187.05889999996,
      "d": 1118.760066666655,
      "v": 107
    },
    {
      "midi": 60,
      "hit": false,
      "t": 92193.20593333329,
      "d": 1100.3189666666585,
      "v": 99
    },
    {
      "midi": 62,
      "hit": false,
      "t": 92193.20593333329,
      "d": 1167.9363333333313,
      "v": 106
    },
    {
      "midi": 54,
      "hit": false,
      "t": 92574.32199999996,
      "d": 417.99826666666195,
      "v": 126
    },
    {
      "midi": 50,
      "hit": false,
      "t": 92918.55586666662,
      "d": 1161.7892999999895,
      "v": 125
    },
    {
      "midi": 54,
      "hit": false,
      "t": 93262.78973333328,
      "d": 651.5855333333311,
      "v": 127
    },
    {
      "midi": 62,
      "hit": false,
      "t": 93662.34689999995,
      "d": 1180.2304000000004,
      "v": 102
    },
    {
      "midi": 57,
      "hit": false,
      "t": 93662.34689999995,
      "d": 1192.5244666666695,
      "v": 104
    },
    {
      "midi": 60,
      "hit": false,
      "t": 93668.49393333327,
      "d": 1143.3482000000076,
      "v": 95
    },
    {
      "midi": 54,
      "hit": false,
      "t": 94031.16889999995,
      "d": 596.2622333333275,
      "v": 122
    },
    {
      "midi": 50,
      "hit": false,
      "t": 94184.84473333327,
      "d": 1456.846900000004,
      "v": 93
    },
    {
      "midi": 38,
      "hit": false,
      "t": 94393.8438666666,
      "d": 2692.400599999979,
      "v": 123
    },
    {
      "midi": 54,
      "hit": false,
      "t": 94756.51883333328,
      "d": 651.5855333333311,
      "v": 110
    },
    {
      "midi": 62,
      "hit": false,
      "t": 95168.37006666661,
      "d": 1026.5545666666585,
      "v": 114
    },
    {
      "midi": 60,
      "hit": false,
      "t": 95168.37006666661,
      "d": 1032.7015999999858,
      "v": 98
    },
    {
      "midi": 57,
      "hit": false,
      "t": 95168.37006666661,
      "d": 1094.1719333333167,
      "v": 111
    },
    {
      "midi": 54,
      "hit": false,
      "t": 95524.89799999994,
      "d": 485.6156333333347,
      "v": 119
    },
    {
      "midi": 50,
      "hit": false,
      "t": 95887.57296666662,
      "d": 1149.4952333333058,
      "v": 127
    },
    {
      "midi": 54,
      "hit": false,
      "t": 96237.95386666659,
      "d": 657.7325666666729,
      "v": 124
    },
    {
      "midi": 60,
      "hit": false,
      "t": 96619.06993333326,
      "d": 860.5846666666621,
      "v": 93
    },
    {
      "midi": 62,
      "hit": false,
      "t": 96619.06993333326,
      "d": 866.7316999999894,
      "v": 102
    },
    {
      "midi": 57,
      "hit": false,
      "t": 96619.06993333326,
      "d": 946.6431333333167,
      "v": 105
    },
    {
      "midi": 54,
      "hit": false,
      "t": 97000.18599999993,
      "d": 424.1452999999892,
      "v": 124
    },
    {
      "midi": 41,
      "hit": false,
      "t": 97190.74403333325,
      "d": 98.35253333333822,
      "v": 74
    },
    {
      "midi": 43,
      "hit": false,
      "t": 97362.86096666659,
      "d": 1376.9354666666623,
      "v": 127
    },
    {
      "midi": 55,
      "hit": false,
      "t": 97694.80076666658,
      "d": 614.7033333333384,
      "v": 106
    },
    {
      "midi": 58,
      "hit": false,
      "t": 98088.21089999992,
      "d": 1401.5236000000004,
      "v": 127
    },
    {
      "midi": 62,
      "hit": false,
      "t": 98088.21089999992,
      "d": 1401.5236000000004,
      "v": 115
    },
    {
      "midi": 55,
      "hit": false,
      "t": 98457.03289999992,
      "d": 620.8503666666656,
      "v": 118
    },
    {
      "midi": 43,
      "hit": false,
      "t": 98795.11973333325,
      "d": 1462.9939333333314,
      "v": 105
    },
    {
      "midi": 55,
      "hit": false,
      "t": 99163.94173333325,
      "d": 590.1152000000002,
      "v": 116
    },
    {
      "midi": 58,
      "hit": false,
      "t": 99581.93999999992,
      "d": 1395.3765666666586,
      "v": 126
    },
    {
      "midi": 62,
      "hit": false,
      "t": 99581.93999999992,
      "d": 1401.523599999986,
      "v": 125
    },
    {
      "midi": 55,
      "hit": false,
      "t": 99950.76199999992,
      "d": 602.4092666666693,
      "v": 119
    },
    {
      "midi": 43,
      "hit": false,
      "t": 100325.73103333326,
      "d": 1389.2295333333022,
      "v": 126
    },
    {
      "midi": 55,
      "hit": false,
      "t": 100676.11193333325,
      "d": 657.7325666666438,
      "v": 110
    },
    {
      "midi": 58,
      "hit": false,
      "t": 101063.37503333323,
      "d": 1364.6414000000077,
      "v": 127
    },
    {
      "midi": 62,
      "hit": false,
      "t": 101063.37503333323,
      "d": 1370.788433333335,
      "v": 127
    },
    {
      "midi": 55,
      "hit": false,
      "t": 101432.19703333323,
      "d": 583.9681666666729,
      "v": 114
    },
    {
      "midi": 43,
      "hit": false,
      "t": 101782.57793333323,
      "d": 1432.258766666666,
      "v": 122
    },
    {
      "midi": 55,
      "hit": false,
      "t": 102139.10586666656,
      "d": 577.8211333333311,
      "v": 113
    },
    {
      "midi": 73,
      "hit": false,
      "t": 102145.25289999996,
      "d": 67.61736666667275,
      "v": 126
    },
    {
      "midi": 77,
      "hit": false,
      "t": 102145.25289999996,
      "d": 719.2028999999893,
      "v": 126
    },
    {
      "midi": 74,
      "hit": false,
      "t": 102243.6054333333,
      "d": 633.1444333333202,
      "v": 115
    },
    {
      "midi": 58,
      "hit": false,
      "t": 102532.5159999999,
      "d": 792.9673000000039,
      "v": 122
    },
    {
      "midi": 62,
      "hit": false,
      "t": 102532.5159999999,
      "d": 922.054999999993,
      "v": 125
    },
    {
      "midi": 55,
      "hit": false,
      "t": 102895.19096666656,
      "d": 540.9389333333384,
      "v": 119
    },
    {
      "midi": 72,
      "hit": false,
      "t": 102907.48503333329,
      "d": 135.23473333333095,
      "v": 125
    },
    {
      "midi": 70,
      "hit": false,
      "t": 103110.33713333328,
      "d": 141.38176666667277,
      "v": 90
    },
    {
      "midi": 48,
      "hit": false,
      "t": 103239.42483333324,
      "d": 1376.9354666666477,
      "v": 126
    },
    {
      "midi": 67,
      "hit": false,
      "t": 103294.74813333328,
      "d": 2243.667166666579,
      "v": 126
    },
    {
      "midi": 55,
      "hit": false,
      "t": 103602.0997999999,
      "d": 645.4384999999893,
      "v": 119
    },
    {
      "midi": 58,
      "hit": false,
      "t": 103983.21586666656,
      "d": 1413.817666666655,
      "v": 116
    },
    {
      "midi": 64,
      "hit": false,
      "t": 103983.21586666656,
      "d": 1413.817666666655,
      "v": 114
    },
    {
      "midi": 60,
      "hit": false,
      "t": 103989.36289999989,
      "d": 1419.9646999999968,
      "v": 115
    },
    {
      "midi": 55,
      "hit": false,
      "t": 104364.33193333322,
      "d": 620.8503666666656,
      "v": 115
    },
    {
      "midi": 48,
      "hit": false,
      "t": 104714.71283333322,
      "d": 1309.318100000004,
      "v": 126
    },
    {
      "midi": 55,
      "hit": false,
      "t": 105071.24076666655,
      "d": 645.4385000000038,
      "v": 94
    },
    {
      "midi": 64,
      "hit": false,
      "t": 105495.38606666656,
      "d": 1309.318100000004,
      "v": 125
    },
    {
      "midi": 58,
      "hit": false,
      "t": 105501.53309999988,
      "d": 1333.9062333333422,
      "v": 123
    },
    {
      "midi": 60,
      "hit": false,
      "t": 105501.53309999988,
      "d": 1340.0532666666695,
      "v": 122
    },
    {
      "midi": 55,
      "hit": false,
      "t": 105845.76696666656,
      "d": 590.1152000000002,
      "v": 114
    },
    {
      "midi": 43,
      "hit": false,
      "t": 106024.03093333323,
      "d": 104.49956666666549,
      "v": 81
    },
    {
      "midi": 36,
      "hit": false,
      "t": 106202.29489999989,
      "d": 2956.723033333328,
      "v": 122
    },
    {
      "midi": 62,
      "hit": false,
      "t": 106220.73599999983,
      "d": 79.9114333333273,
      "v": 95
    },
    {
      "midi": 63,
      "hit": false,
      "t": 106257.61819999982,
      "d": 73.76440000000002,
      "v": 98
    },
    {
      "midi": 64,
      "hit": false,
      "t": 106312.94149999983,
      "d": 264.32243333333463,
      "v": 87
    },
    {
      "midi": 55,
      "hit": false,
      "t": 106558.82283333322,
      "d": 626.9973999999929,
      "v": 101
    },
    {
      "midi": 67,
      "hit": false,
      "t": 106595.70503333316,
      "d": 1573.6405333332805,
      "v": 127
    },
    {
      "midi": 60,
      "hit": false,
      "t": 106933.79186666655,
      "d": 1186.3774333333422,
      "v": 124
    },
    {
      "midi": 64,
      "hit": false,
      "t": 106933.79186666655,
      "d": 1186.3774333333422,
      "v": 125
    },
    {
      "midi": 58,
      "hit": false,
      "t": 106933.79186666655,
      "d": 1192.5244666666695,
      "v": 123
    },
    {
      "midi": 55,
      "hit": false,
      "t": 107314.90793333322,
      "d": 528.6448666666693,
      "v": 116
    },
    {
      "midi": 48,
      "hit": false,
      "t": 107671.43586666655,
      "d": 1487.5820666666696,
      "v": 126
    },
    {
      "midi": 70,
      "hit": false,
      "t": 107708.31806666646,
      "d": 165.96989999999641,
      "v": 126
    },
    {
      "midi": 55,
      "hit": false,
      "t": 108052.55193333322,
      "d": 565.527066666662,
      "v": 117
    },
    {
      "midi": 69,
      "hit": false,
      "t": 108077.14006666644,
      "d": 719.2028999999748,
      "v": 119
    },
    {
      "midi": 64,
      "hit": false,
      "t": 108433.66799999989,
      "d": 713.055866666662,
      "v": 121
    },
    {
      "midi": 58,
      "hit": false,
      "t": 108439.81503333322,
      "d": 700.7618000000075,
      "v": 126
    },
    {
      "midi": 60,
      "hit": false,
      "t": 108439.81503333322,
      "d": 700.7618000000075,
      "v": 122
    },
    {
      "midi": 55,
      "hit": false,
      "t": 108790.19593333322,
      "d": 350.38090000000375,
      "v": 121
    },
    {
      "midi": 67,
      "hit": false,
      "t": 108820.93109999975,
      "d": 356.527933333331,
      "v": 122
    },
    {
      "midi": 46,
      "hit": false,
      "t": 109165.16496666655,
      "d": 1389.2295333333168,
      "v": 127
    },
    {
      "midi": 65,
      "hit": false,
      "t": 109202.04716666642,
      "d": 2944.4289666665572,
      "v": 126
    },
    {
      "midi": 53,
      "hit": false,
      "t": 109533.98696666655,
      "d": 602.4092666666547,
      "v": 118
    },
    {
      "midi": 62,
      "hit": false,
      "t": 109908.95599999987,
      "d": 1180.2303999999858,
      "v": 127
    },
    {
      "midi": 58,
      "hit": false,
      "t": 109908.95599999987,
      "d": 1260.1418333333131,
      "v": 126
    },
    {
      "midi": 53,
      "hit": false,
      "t": 110271.63096666653,
      "d": 614.7033333333384,
      "v": 126
    },
    {
      "midi": 46,
      "hit": false,
      "t": 110640.45296666653,
      "d": 1358.4943666666659,
      "v": 127
    },
    {
      "midi": 53,
      "hit": false,
      "t": 111009.27496666653,
      "d": 608.5562999999966,
      "v": 123
    },
    {
      "midi": 62,
      "hit": false,
      "t": 111384.24399999986,
      "d": 1044.9956666666694,
      "v": 125
    },
    {
      "midi": 58,
      "hit": false,
      "t": 111384.24399999986,
      "d": 1063.4367666666658,
      "v": 124
    },
    {
      "midi": 53,
      "hit": false,
      "t": 111746.91896666653,
      "d": 626.9973999999929,
      "v": 126
    },
    {
      "midi": 46,
      "hit": false,
      "t": 112115.74096666653,
      "d": 1395.3765666666586,
      "v": 126
    },
    {
      "midi": 53,
      "hit": false,
      "t": 112484.56296666652,
      "d": 633.1444333333347,
      "v": 123
    },
    {
      "midi": 62,
      "hit": false,
      "t": 112853.38496666652,
      "d": 1088.0248999999894,
      "v": 126
    },
    {
      "midi": 58,
      "hit": false,
      "t": 112853.38496666652,
      "d": 1106.4659999999858,
      "v": 125
    },
    {
      "midi": 53,
      "hit": false,
      "t": 113222.20696666652,
      "d": 596.2622333333275,
      "v": 124
    },
    {
      "midi": 46,
      "hit": false,
      "t": 113591.02896666652,
      "d": 1143.3481999999785,
      "v": 127
    },
    {
      "midi": 53,
      "hit": false,
      "t": 113959.8509666665,
      "d": 553.2329999999929,
      "v": 127
    },
    {
      "midi": 58,
      "hit": false,
      "t": 114328.6729666665,
      "d": 1020.4075333333167,
      "v": 126
    },
    {
      "midi": 62,
      "hit": false,
      "t": 114328.6729666665,
      "d": 1026.554566666644,
      "v": 126
    },
    {
      "midi": 53,
      "hit": false,
      "t": 114703.64199999983,
      "d": 461.0274999999965,
      "v": 127
    },
    {
      "midi": 43,
      "hit": false,
      "t": 115066.31696666649,
      "d": 1376.9354666666331,
      "v": 126
    },
    {
      "midi": 55,
      "hit": false,
      "t": 115428.99193333315,
      "d": 633.1444333333202,
      "v": 119
    },
    {
      "midi": 58,
      "hit": false,
      "t": 115803.96096666648,
      "d": 1383.0824999999895,
      "v": 123
    },
    {
      "midi": 62,
      "hit": false,
      "t": 115803.96096666648,
      "d": 1389.2295333333168,
      "v": 124
    },
    {
      "midi": 55,
      "hit": false,
      "t": 116172.78296666646,
      "d": 620.8503666666656,
      "v": 123
    },
    {
      "midi": 43,
      "hit": false,
      "t": 116541.60496666646,
      "d": 1413.8176666666695,
      "v": 120
    },
    {
      "midi": 55,
      "hit": false,
      "t": 116910.42696666646,
      "d": 602.4092666666693,
      "v": 116
    },
    {
      "midi": 62,
      "hit": false,
      "t": 117279.24896666646,
      "d": 1241.7007333333459,
      "v": 127
    },
    {
      "midi": 58,
      "hit": false,
      "t": 117279.24896666646,
      "d": 1253.994800000015,
      "v": 125
    },
    {
      "midi": 55,
      "hit": false,
      "t": 117648.07096666646,
      "d": 645.4385000000038,
      "v": 122
    },
    {
      "midi": 43,
      "hit": false,
      "t": 118023.0399999998,
      "d": 1346.2002999999968,
      "v": 126
    },
    {
      "midi": 55,
      "hit": false,
      "t": 118391.8619999998,
      "d": 620.8503666666656,
      "v": 115
    },
    {
      "midi": 62,
      "hit": false,
      "t": 118760.6839999998,
      "d": 1100.3189666666585,
      "v": 124
    },
    {
      "midi": 58,
      "hit": false,
      "t": 118760.6839999998,
      "d": 1118.760066666655,
      "v": 123
    },
    {
      "midi": 55,
      "hit": false,
      "t": 119129.5059999998,
      "d": 596.2622333333275,
      "v": 124
    },
    {
      "midi": 72,
      "hit": false,
      "t": 119443.00469999936,
      "d": 98.35253333332366,
      "v": 99
    },
    {
      "midi": 73,
      "hit": false,
      "t": 119486.0339333327,
      "d": 79.9114333333273,
      "v": 121
    },
    {
      "midi": 77,
      "hit": false,
      "t": 119486.0339333327,
      "d": 129.08769999998913,
      "v": 126
    },
    {
      "midi": 43,
      "hit": false,
      "t": 119492.18096666646,
      "d": 1438.4057999999932,
      "v": 127
    },
    {
      "midi": 74,
      "hit": false,
      "t": 119572.09239999935,
      "d": 55.323300000003655,
      "v": 100
    },
    {
      "midi": 74,
      "hit": false,
      "t": 119682.73899999935,
      "d": 92.20549999999639,
      "v": 107
    },
    {
      "midi": 77,
      "hit": false,
      "t": 119682.73899999935,
      "d": 92.20549999999639,
      "v": 111
    },
    {
      "midi": 74,
      "hit": false,
      "t": 119854.85593333267,
      "d": 190.55803333332005,
      "v": 126
    },
    {
      "midi": 77,
      "hit": false,
      "t": 119854.85593333267,
      "d": 368.82199999998556,
      "v": 124
    },
    {
      "midi": 55,
      "hit": false,
      "t": 119854.85593333314,
      "d": 583.9681666666584,
      "v": 116
    },
    {
      "midi": 72,
      "hit": false,
      "t": 120063.85506666599,
      "d": 135.23473333333095,
      "v": 117
    },
    {
      "midi": 62,
      "hit": false,
      "t": 120229.82496666646,
      "d": 946.6431333333167,
      "v": 127
    },
    {
      "midi": 58,
      "hit": false,
      "t": 120229.82496666646,
      "d": 1063.4367666666512,
      "v": 127
    },
    {
      "midi": 77,
      "hit": false,
      "t": 120260.56013333265,
      "d": 288.9105666666728,
      "v": 56
    },
    {
      "midi": 70,
      "hit": false,
      "t": 120272.85419999932,
      "d": 276.6165000000037,
      "v": 127
    },
    {
      "midi": 65,
      "hit": false,
      "t": 120481.85333333266,
      "d": 104.49956666665094,
      "v": 95
    },
    {
      "midi": 66,
      "hit": false,
      "t": 120543.323666666,
      "d": 73.76439999998547,
      "v": 96
    },
    {
      "midi": 67,
      "hit": false,
      "t": 120598.64696666598,
      "d": 208.99913333333097,
      "v": 127
    },
    {
      "midi": 55,
      "hit": false,
      "t": 120598.64696666646,
      "d": 620.8503666666511,
      "v": 122
    },
    {
      "midi": 63,
      "hit": false,
      "t": 120813.79313333264,
      "d": 129.08770000000368,
      "v": 124
    },
    {
      "midi": 65,
      "hit": false,
      "t": 120961.32193333264,
      "d": 405.7041999999783,
      "v": 118
    },
    {
      "midi": 48,
      "hit": false,
      "t": 120967.46896666645,
      "d": 1370.788433333335,
      "v": 127
    },
    {
      "midi": 55,
      "hit": false,
      "t": 121336.29096666645,
      "d": 657.7325666666729,
      "v": 120
    },
    {
      "midi": 63,
      "hit": false,
      "t": 121360.87909999929,
      "d": 1911.727366666586,
      "v": 107
    },
    {
      "midi": 63,
      "hit": false,
      "t": 121705.11296666645,
      "d": 1124.9071000000113,
      "v": 119
    },
    {
      "midi": 60,
      "hit": false,
      "t": 121705.11296666645,
      "d": 1155.6422666666767,
      "v": 114
    },
    {
      "midi": 55,
      "hit": false,
      "t": 122073.93496666645,
      "d": 528.6448666666693,
      "v": 113
    },
    {
      "midi": 48,
      "hit": false,
      "t": 122442.75696666645,
      "d": 1395.3765666666877,
      "v": 126
    },
    {
      "midi": 55,
      "hit": false,
      "t": 122805.43193333312,
      "d": 651.5855333333457,
      "v": 114
    },
    {
      "midi": 63,
      "hit": false,
      "t": 123180.40096666646,
      "d": 1100.318966666673,
      "v": 127
    },
    {
      "midi": 60,
      "hit": false,
      "t": 123180.40096666646,
      "d": 1112.6130333333276,
      "v": 123
    },
    {
      "midi": 67,
      "hit": false,
      "t": 123536.92889999921,
      "d": 184.41100000000733,
      "v": 99
    },
    {
      "midi": 55,
      "hit": false,
      "t": 123549.22296666646,
      "d": 571.6741000000038,
      "v": 118
    },
    {
      "midi": 70,
      "hit": false,
      "t": 123721.33989999922,
      "d": 2471.1073999999207,
      "v": 106
    },
    {
      "midi": 48,
      "hit": false,
      "t": 123918.04496666646,
      "d": 1309.318100000004,
      "v": 126
    },
    {
      "midi": 67,
      "hit": false,
      "t": 123930.33903333255,
      "d": 2255.9612333332625,
      "v": 92
    },
    {
      "midi": 55,
      "hit": false,
      "t": 124286.86696666646,
      "d": 633.1444333333347,
      "v": 115
    },
    {
      "midi": 60,
      "hit": false,
      "t": 124655.68896666646,
      "d": 1081.8778666666622,
      "v": 120
    },
    {
      "midi": 63,
      "hit": false,
      "t": 124655.68896666646,
      "d": 1081.8778666666622,
      "v": 127
    },
    {
      "midi": 55,
      "hit": false,
      "t": 125024.51096666646,
      "d": 559.3800333333347,
      "v": 117
    },
    {
      "midi": 48,
      "hit": false,
      "t": 125393.33296666646,
      "d": 1327.7591999999859,
      "v": 126
    },
    {
      "midi": 55,
      "hit": false,
      "t": 125756.00793333312,
      "d": 614.7033333333238,
      "v": 119
    },
    {
      "midi": 63,
      "hit": false,
      "t": 126130.97696666645,
      "d": 743.7910333333275,
      "v": 126
    },
    {
      "midi": 60,
      "hit": false,
      "t": 126130.97696666645,
      "d": 780.6732333333202,
      "v": 122
    },
    {
      "midi": 55,
      "hit": false,
      "t": 126499.79896666645,
      "d": 448.73343333331286,
      "v": 119
    },
    {
      "midi": 48,
      "hit": false,
      "t": 126868.62096666645,
      "d": 1352.347333333324,
      "v": 127
    },
    {
      "midi": 65,
      "hit": false,
      "t": 126880.91503333245,
      "d": 2495.6955333332444,
      "v": 115
    },
    {
      "midi": 67,
      "hit": false,
      "t": 127237.44296666578,
      "d": 2243.667166666579,
      "v": 107
    },
    {
      "midi": 55,
      "hit": false,
      "t": 127237.44296666644,
      "d": 645.4385000000038,
      "v": 118
    },
    {
      "midi": 60,
      "hit": false,
      "t": 127606.26496666644,
      "d": 1395.3765666666732,
      "v": 126
    },
    {
      "midi": 65,
      "hit": false,
      "t": 127606.26496666644,
      "d": 1395.3765666666732,
      "v": 127
    },
    {
      "midi": 55,
      "hit": false,
      "t": 127975.08696666644,
      "d": 614.7033333333384,
      "v": 121
    },
    {
      "midi": 48,
      "hit": false,
      "t": 128343.90896666644,
      "d": 1395.3765666666877,
      "v": 126
    },
    {
      "midi": 58,
      "hit": false,
      "t": 128681.99579999906,
      "d": 952.7901666666439,
      "v": 108
    },
    {
      "midi": 55,
      "hit": false,
      "t": 128712.73096666644,
      "d": 639.2914666666766,
      "v": 114
    },
    {
      "midi": 60,
      "hit": false,
      "t": 129087.69999999978,
      "d": 1088.0249000000185,
      "v": 127
    },
    {
      "midi": 65,
      "hit": false,
      "t": 129087.69999999978,
      "d": 1088.0249000000185,
      "v": 126
    },
    {
      "midi": 55,
      "hit": false,
      "t": 129450.37496666645,
      "d": 731.496966666673,
      "v": 125
    },
    {
      "midi": 67,
      "hit": false,
      "t": 129567.16859999903,
      "d": 2151.461666666626,
      "v": 122
    },
    {
      "midi": 48,
      "hit": false,
      "t": 129825.3439999998,
      "d": 2925.987866666648,
      "v": 127
    },
    {
      "midi": 60,
      "hit": false,
      "t": 130194.1659999998,
      "d": 344.2338666666619,
      "v": 99
    },
    {
      "midi": 65,
      "hit": false,
      "t": 130194.1659999998,
      "d": 344.2338666666619,
      "v": 106
    },
    {
      "midi": 55,
      "hit": false,
      "t": 130194.1659999998,
      "d": 350.3808999999892,
      "v": 94
    },
    {
      "midi": 65,
      "hit": false,
      "t": 130224.90116666567,
      "d": 1303.1710666666477,
      "v": 119
    },
    {
      "midi": 60,
      "hit": false,
      "t": 130562.98799999978,
      "d": 344.2338666666619,
      "v": 119
    },
    {
      "midi": 65,
      "hit": false,
      "t": 130562.98799999978,
      "d": 344.2338666666619,
      "v": 127
    },
    {
      "midi": 55,
      "hit": false,
      "t": 130562.98799999978,
      "d": 350.3808999999892,
      "v": 114
    },
    {
      "midi": 58,
      "hit": false,
      "t": 130919.51593333232,
      "d": 1819.521866666677,
      "v": 118
    },
    {
      "midi": 60,
      "hit": false,
      "t": 130925.66296666644,
      "d": 350.38090000000375,
      "v": 126
    },
    {
      "midi": 65,
      "hit": false,
      "t": 130925.66296666644,
      "d": 356.5279333333456,
      "v": 127
    },
    {
      "midi": 55,
      "hit": false,
      "t": 130925.66296666644,
      "d": 362.6749666666874,
      "v": 124
    },
    {
      "midi": 60,
      "hit": false,
      "t": 131300.63199999978,
      "d": 344.2338666666765,
      "v": 126
    },
    {
      "midi": 65,
      "hit": false,
      "t": 131300.63199999978,
      "d": 344.2338666666765,
      "v": 124
    },
    {
      "midi": 55,
      "hit": false,
      "t": 131300.63199999978,
      "d": 350.3809000000183,
      "v": 117
    },
    {
      "midi": 60,
      "hit": false,
      "t": 131663.30696666645,
      "d": 350.3808999999892,
      "v": 126
    },
    {
      "midi": 55,
      "hit": false,
      "t": 131663.30696666645,
      "d": 356.527933333331,
      "v": 123
    },
    {
      "midi": 65,
      "hit": false,
      "t": 131663.30696666645,
      "d": 356.527933333331,
      "v": 127
    },
    {
      "midi": 65,
      "hit": false,
      "t": 131675.60103333232,
      "d": 1057.2897333333385,
      "v": 111
    },
    {
      "midi": 65,
      "hit": false,
      "t": 132032.12896666644,
      "d": 344.2338666666765,
      "v": 127
    },
    {
      "midi": 60,
      "hit": false,
      "t": 132032.12896666644,
      "d": 350.3809000000183,
      "v": 126
    },
    {
      "midi": 55,
      "hit": false,
      "t": 132032.12896666644,
      "d": 356.5279333333601,
      "v": 127
    },
    {
      "midi": 67,
      "hit": false,
      "t": 132038.275999999,
      "d": 700.7618000000075,
      "v": 121
    },
    {
      "midi": 55,
      "hit": false,
      "t": 132400.95096666645,
      "d": 356.527933333331,
      "v": 126
    },
    {
      "midi": 60,
      "hit": false,
      "t": 132400.95096666645,
      "d": 356.527933333331,
      "v": 126
    },
    {
      "midi": 65,
      "hit": false,
      "t": 132400.95096666645,
      "d": 356.527933333331,
      "v": 127
    },
    {
      "midi": 67,
      "hit": false,
      "t": 132775.91999999978,
      "d": 688.4677333333238,
      "v": 94
    },
    {
      "midi": 74,
      "hit": false,
      "t": 132775.91999999978,
      "d": 688.4677333333238,
      "v": 97
    },
    {
      "midi": 74,
      "hit": false,
      "t": 133513.56399999978,
      "d": 682.3207000000111,
      "v": 115
    },
    {
      "midi": 67,
      "hit": false,
      "t": 133513.56399999978,
      "d": 688.467733333353,
      "v": 90
    },
    {
      "midi": 67,
      "hit": false,
      "t": 134251.2079999998,
      "d": 319.6457333333383,
      "v": 81
    },
    {
      "midi": 74,
      "hit": false,
      "t": 134251.2079999998,
      "d": 362.67496666667284,
      "v": 98
    },
    {
      "midi": 67,
      "hit": false,
      "t": 134620.02999999982,
      "d": 301.2046333333419,
      "v": 56
    },
    {
      "midi": 72,
      "hit": false,
      "t": 134620.02999999982,
      "d": 368.82200000001467,
      "v": 67
    },
    {
      "midi": 74,
      "hit": false,
      "t": 134988.85199999984,
      "d": 301.2046333333419,
      "v": 89
    },
    {
      "midi": 67,
      "hit": false,
      "t": 134988.85199999984,
      "d": 307.35166666668374,
      "v": 104
    },
    {
      "midi": 74,
      "hit": false,
      "t": 135357.67399999985,
      "d": 1026.5545666666585,
      "v": 102
    },
    {
      "midi": 67,
      "hit": false,
      "t": 135357.67399999985,
      "d": 1038.848633333313,
      "v": 93
    },
    {
      "midi": 74,
      "hit": false,
      "t": 136464.13999999984,
      "d": 651.5855333333311,
      "v": 100
    },
    {
      "midi": 67,
      "hit": false,
      "t": 136464.13999999984,
      "d": 663.8795999999857,
      "v": 91
    },
    {
      "midi": 74,
      "hit": false,
      "t": 137201.7839999998,
      "d": 344.2338666666765,
      "v": 95
    },
    {
      "midi": 67,
      "hit": false,
      "t": 137201.7839999998,
      "d": 688.467733333353,
      "v": 78
    },
    {
      "midi": 72,
      "hit": false,
      "t": 137570.60599999983,
      "d": 356.527933333331,
      "v": 63
    },
    {
      "midi": 67,
      "hit": false,
      "t": 137939.4279999998,
      "d": 313.49869999999646,
      "v": 86
    },
    {
      "midi": 74,
      "hit": false,
      "t": 137939.4279999998,
      "d": 319.6457333333383,
      "v": 76
    },
    {
      "midi": 67,
      "hit": false,
      "t": 138308.24999999983,
      "d": 1026.5545666666585,
      "v": 81
    },
    {
      "midi": 74,
      "hit": false,
      "t": 138308.24999999983,
      "d": 1032.7016000000003,
      "v": 69
    },
    {
      "midi": 67,
      "hit": false,
      "t": 139414.7159999998,
      "d": 688.4677333333238,
      "v": 90
    },
    {
      "midi": 74,
      "hit": false,
      "t": 139414.7159999998,
      "d": 688.4677333333238,
      "v": 102
    },
    {
      "midi": 67,
      "hit": false,
      "t": 140152.3599999998,
      "d": 295.0576000000001,
      "v": 93
    },
    {
      "midi": 74,
      "hit": false,
      "t": 140152.3599999998,
      "d": 325.7927666666801,
      "v": 94
    },
    {
      "midi": 67,
      "hit": false,
      "t": 140521.18199999983,
      "d": 325.7927666666801,
      "v": 75
    },
    {
      "midi": 72,
      "hit": false,
      "t": 140521.18199999983,
      "d": 362.67496666667284,
      "v": 61
    },
    {
      "midi": 74,
      "hit": false,
      "t": 140896.15103333315,
      "d": 295.0576000000001,
      "v": 83
    },
    {
      "midi": 67,
      "hit": false,
      "t": 140896.15103333315,
      "d": 301.2046333333419,
      "v": 96
    },
    {
      "midi": 67,
      "hit": false,
      "t": 141264.97303333317,
      "d": 1020.4075333333458,
      "v": 90
    },
    {
      "midi": 74,
      "hit": false,
      "t": 141264.97303333317,
      "d": 1026.5545666666876,
      "v": 90
    },
    {
      "midi": 74,
      "hit": false,
      "t": 142365.29199999984,
      "d": 676.1736666666693,
      "v": 99
    },
    {
      "midi": 67,
      "hit": false,
      "t": 142365.29199999984,
      "d": 688.4677333333238,
      "v": 89
    },
    {
      "midi": 74,
      "hit": false,
      "t": 143102.93599999984,
      "d": 325.7927666666801,
      "v": 100
    },
    {
      "midi": 67,
      "hit": false,
      "t": 143102.93599999984,
      "d": 700.7618000000075,
      "v": 86
    },
    {
      "midi": 72,
      "hit": false,
      "t": 143471.75799999986,
      "d": 368.82199999998556,
      "v": 75
    },
    {
      "midi": 74,
      "hit": false,
      "t": 143846.72703333318,
      "d": 258.17540000000736,
      "v": 84
    },
    {
      "midi": 67,
      "hit": false,
      "t": 143846.72703333318,
      "d": 264.3224333333492,
      "v": 91
    },
    {
      "midi": 67,
      "hit": false,
      "t": 144209.40199999986,
      "d": 1001.9664333333203,
      "v": 86
    },
    {
      "midi": 74,
      "hit": false,
      "t": 144209.40199999986,
      "d": 1020.4075333333167,
      "v": 93
    },
    {
      "midi": 74,
      "hit": false,
      "t": 145315.86799999984,
      "d": 651.5855333333311,
      "v": 103
    },
    {
      "midi": 67,
      "hit": false,
      "t": 145315.86799999984,
      "d": 663.8795999999857,
      "v": 80
    },
    {
      "midi": 74,
      "hit": false,
      "t": 146053.5119999998,
      "d": 325.7927666666801,
      "v": 98
    },
    {
      "midi": 67,
      "hit": false,
      "t": 146053.5119999998,
      "d": 651.5855333333311,
      "v": 91
    },
    {
      "midi": 72,
      "hit": false,
      "t": 146416.1869666665,
      "d": 362.67496666664374,
      "v": 69
    },
    {
      "midi": 67,
      "hit": false,
      "t": 146791.15599999978,
      "d": 319.6457333333383,
      "v": 108
    },
    {
      "midi": 74,
      "hit": false,
      "t": 146791.15599999978,
      "d": 319.6457333333383,
      "v": 84
    },
    {
      "midi": 67,
      "hit": false,
      "t": 147159.9779999998,
      "d": 1044.9956666666549,
      "v": 87
    },
    {
      "midi": 74,
      "hit": false,
      "t": 147159.9779999998,
      "d": 1057.2897333333094,
      "v": 87
    },
    {
      "midi": 67,
      "hit": false,
      "t": 148272.5910333331,
      "d": 651.5855333333311,
      "v": 102
    },
    {
      "midi": 74,
      "hit": false,
      "t": 148272.5910333331,
      "d": 657.7325666666729,
      "v": 94
    },
    {
      "midi": 74,
      "hit": false,
      "t": 149004.08799999976,
      "d": 331.93979999999283,
      "v": 111
    },
    {
      "midi": 67,
      "hit": false,
      "t": 149004.08799999976,
      "d": 670.0266333333275,
      "v": 107
    },
    {
      "midi": 72,
      "hit": false,
      "t": 149372.90999999974,
      "d": 344.2338666666765,
      "v": 68
    },
    {
      "midi": 67,
      "hit": false,
      "t": 149741.73199999976,
      "d": 319.6457333333383,
      "v": 102
    },
    {
      "midi": 74,
      "hit": false,
      "t": 149741.73199999976,
      "d": 319.6457333333383,
      "v": 91
    },
    {
      "midi": 74,
      "hit": false,
      "t": 150116.70103333308,
      "d": 1001.9664333333203,
      "v": 101
    },
    {
      "midi": 67,
      "hit": false,
      "t": 150116.70103333308,
      "d": 1014.2604999999749,
      "v": 92
    },
    {
      "midi": 74,
      "hit": false,
      "t": 151217.01999999973,
      "d": 663.8795999999857,
      "v": 98
    },
    {
      "midi": 67,
      "hit": false,
      "t": 151217.01999999973,
      "d": 670.0266333333275,
      "v": 85
    },
    {
      "midi": 67,
      "hit": false,
      "t": 151954.66399999973,
      "d": 657.7325666666729,
      "v": 107
    },
    {
      "midi": 74,
      "hit": false,
      "t": 151954.66399999973,
      "d": 688.467733333353,
      "v": 108
    },
    {
      "midi": 67,
      "hit": false,
      "t": 152698.45503333307,
      "d": 276.6165000000037,
      "v": 126
    },
    {
      "midi": 67,
      "hit": false,
      "t": 153067.27703333308,
      "d": 909.7609333333385,
      "v": 119
    },
    {
      "midi": 74,
      "hit": false,
      "t": 153067.27703333308,
      "d": 934.3490666666767,
      "v": 126
    },
    {
      "midi": 74,
      "hit": false,
      "t": 154167.59599999976,
      "d": 608.5562999999966,
      "v": 127
    },
    {
      "midi": 67,
      "hit": false,
      "t": 154167.59599999976,
      "d": 620.8503666666511,
      "v": 116
    },
    {
      "midi": 67,
      "hit": false,
      "t": 154905.23999999973,
      "d": 596.2622333333129,
      "v": 121
    },
    {
      "midi": 74,
      "hit": false,
      "t": 154905.23999999973,
      "d": 713.0558666666329,
      "v": 126
    },
    {
      "midi": 72,
      "hit": false,
      "t": 155274.0619999997,
      "d": 393.41013333332376,
      "v": 104
    },
    {
      "midi": 74,
      "hit": false,
      "t": 155642.8839999997,
      "d": 307.35166666668374,
      "v": 116
    },
    {
      "midi": 67,
      "hit": false,
      "t": 155642.8839999997,
      "d": 313.49870000002556,
      "v": 119
    },
    {
      "midi": 74,
      "hit": false,
      "t": 156011.7059999997,
      "d": 1426.1117333333532,
      "v": 93
    },
    {
      "midi": 67,
      "hit": false,
      "t": 156017.85303333306,
      "d": 1438.4058000000077,
      "v": 83
    },
    {
      "midi": 62,
      "hit": false,
      "t": 156398.969099999,
      "d": 2784.606099999888,
      "v": 126
    },
    {
      "midi": 55,
      "hit": false,
      "t": 156398.969099999,
      "d": 2815.341266666568,
      "v": 124
    },
    {
      "midi": 58,
      "hit": false,
      "t": 156398.969099999,
      "d": 2821.48829999991,
      "v": 127
    },
    {
      "midi": 55,
      "hit": false,
      "t": 159306.51586666558,
      "d": 2821.488299999881,
      "v": 116
    },
    {
      "midi": 63,
      "hit": false,
      "t": 159312.66289999892,
      "d": 2833.7823666665354,
      "v": 127
    },
    {
      "midi": 58,
      "hit": false,
      "t": 159312.66289999892,
      "d": 2839.929399999877,
      "v": 127
    },
    {
      "midi": 58,
      "hit": false,
      "t": 162226.35669999878,
      "d": 2907.546766666579,
      "v": 88
    },
    {
      "midi": 55,
      "hit": false,
      "t": 162232.50373333212,
      "d": 2901.3997333332372,
      "v": 88
    },
    {
      "midi": 64,
      "hit": false,
      "t": 162232.50373333212,
      "d": 2901.3997333332372,
      "v": 93
    },
    {
      "midi": 70,
      "hit": false,
      "t": 162238.65076666547,
      "d": 2895.2526999998954,
      "v": 87
    },
    {
      "midi": 76,
      "hit": false,
      "t": 162238.65076666547,
      "d": 2901.3997333332372,
      "v": 80
    },
    {
      "midi": 79,
      "hit": false,
      "t": 162238.65076666547,
      "d": 2901.3997333332372,
      "v": 88
    },
    {
      "midi": 55,
      "hit": false,
      "t": 165201.52083333203,
      "d": 2889.1056666665827,
      "v": 85
    },
    {
      "midi": 58,
      "hit": false,
      "t": 165207.66786666538,
      "d": 2889.1056666665827,
      "v": 94
    },
    {
      "midi": 63,
      "hit": false,
      "t": 165207.66786666538,
      "d": 2901.3997333332663,
      "v": 97
    },
    {
      "midi": 82,
      "hit": false,
      "t": 165213.81489999872,
      "d": 2889.1056666665827,
      "v": 91
    },
    {
      "midi": 87,
      "hit": false,
      "t": 165213.81489999872,
      "d": 2895.2526999999245,
      "v": 102
    },
    {
      "midi": 75,
      "hit": false,
      "t": 165219.96193333206,
      "d": 2876.811599999899,
      "v": 95
    },
    {
      "midi": 67,
      "hit": false,
      "t": 168182.83199999973,
      "d": 688.4677333333238,
      "v": 95
    },
    {
      "midi": 74,
      "hit": false,
      "t": 168182.83199999973,
      "d": 688.4677333333238,
      "v": 96
    },
    {
      "midi": 74,
      "hit": false,
      "t": 168920.47599999973,
      "d": 682.3207000000111,
      "v": 114
    },
    {
      "midi": 67,
      "hit": false,
      "t": 168920.47599999973,
      "d": 688.467733333353,
      "v": 90
    },
    {
      "midi": 67,
      "hit": false,
      "t": 169658.11999999976,
      "d": 319.6457333333383,
      "v": 81
    },
    {
      "midi": 74,
      "hit": false,
      "t": 169658.11999999976,
      "d": 362.67496666667284,
      "v": 99
    },
    {
      "midi": 67,
      "hit": false,
      "t": 170026.94199999978,
      "d": 301.2046333333419,
      "v": 56
    },
    {
      "midi": 72,
      "hit": false,
      "t": 170026.94199999978,
      "d": 368.82200000001467,
      "v": 66
    },
    {
      "midi": 74,
      "hit": false,
      "t": 170395.7639999998,
      "d": 301.2046333333419,
      "v": 89
    },
    {
      "midi": 67,
      "hit": false,
      "t": 170395.7639999998,
      "d": 307.35166666668374,
      "v": 105
    },
    {
      "midi": 74,
      "hit": false,
      "t": 170764.5859999998,
      "d": 1026.5545666666585,
      "v": 102
    },
    {
      "midi": 67,
      "hit": false,
      "t": 170764.5859999998,
      "d": 1038.848633333313,
      "v": 92
    },
    {
      "midi": 74,
      "hit": false,
      "t": 171871.0519999998,
      "d": 651.5855333333311,
      "v": 100
    },
    {
      "midi": 67,
      "hit": false,
      "t": 171871.0519999998,
      "d": 663.8795999999857,
      "v": 91
    },
    {
      "midi": 74,
      "hit": false,
      "t": 172608.69599999976,
      "d": 344.2338666666765,
      "v": 95
    },
    {
      "midi": 67,
      "hit": false,
      "t": 172608.69599999976,
      "d": 688.467733333353,
      "v": 79
    },
    {
      "midi": 72,
      "hit": false,
      "t": 172977.51799999978,
      "d": 356.527933333331,
      "v": 62
    },
    {
      "midi": 67,
      "hit": false,
      "t": 173346.33999999976,
      "d": 313.49869999999646,
      "v": 86
    },
    {
      "midi": 74,
      "hit": false,
      "t": 173346.33999999976,
      "d": 319.6457333333383,
      "v": 77
    },
    {
      "midi": 67,
      "hit": false,
      "t": 173715.16199999978,
      "d": 1026.5545666666585,
      "v": 81
    },
    {
      "midi": 74,
      "hit": false,
      "t": 173715.16199999978,
      "d": 1032.7016000000003,
      "v": 68
    },
    {
      "midi": 67,
      "hit": false,
      "t": 174821.62799999976,
      "d": 688.4677333333238,
      "v": 91
    },
    {
      "midi": 74,
      "hit": false,
      "t": 174821.62799999976,
      "d": 688.4677333333238,
      "v": 102
    },
    {
      "midi": 67,
      "hit": false,
      "t": 175559.27199999976,
      "d": 295.0576000000001,
      "v": 92
    },
    {
      "midi": 74,
      "hit": false,
      "t": 175559.27199999976,
      "d": 325.7927666666801,
      "v": 95
    },
    {
      "midi": 67,
      "hit": false,
      "t": 175928.09399999978,
      "d": 325.7927666666801,
      "v": 75
    },
    {
      "midi": 72,
      "hit": false,
      "t": 175928.09399999978,
      "d": 362.67496666667284,
      "v": 60
    },
    {
      "midi": 74,
      "hit": false,
      "t": 176303.0630333331,
      "d": 295.0576000000001,
      "v": 83
    },
    {
      "midi": 67,
      "hit": false,
      "t": 176303.0630333331,
      "d": 301.2046333333419,
      "v": 96
    },
    {
      "midi": 67,
      "hit": false,
      "t": 176671.88503333312,
      "d": 1020.4075333333458,
      "v": 90
    },
    {
      "midi": 74,
      "hit": false,
      "t": 176671.88503333312,
      "d": 1026.5545666666876,
      "v": 91
    },
    {
      "midi": 74,
      "hit": false,
      "t": 177772.2039999998,
      "d": 676.1736666666693,
      "v": 98
    },
    {
      "midi": 67,
      "hit": false,
      "t": 177772.2039999998,
      "d": 688.4677333333238,
      "v": 89
    },
    {
      "midi": 74,
      "hit": false,
      "t": 178509.8479999998,
      "d": 325.7927666666801,
      "v": 100
    },
    {
      "midi": 67,
      "hit": false,
      "t": 178509.8479999998,
      "d": 700.7618000000075,
      "v": 87
    },
    {
      "midi": 72,
      "hit": false,
      "t": 178878.6699999998,
      "d": 368.82199999998556,
      "v": 74
    },
    {
      "midi": 74,
      "hit": false,
      "t": 179253.63903333314,
      "d": 258.17540000000736,
      "v": 85
    },
    {
      "midi": 67,
      "hit": false,
      "t": 179253.63903333314,
      "d": 264.3224333333492,
      "v": 91
    },
    {
      "midi": 67,
      "hit": false,
      "t": 179616.3139999998,
      "d": 1001.9664333333203,
      "v": 86
    },
    {
      "midi": 74,
      "hit": false,
      "t": 179616.3139999998,
      "d": 1020.4075333333167,
      "v": 92
    },
    {
      "midi": 74,
      "hit": false,
      "t": 180722.7799999998,
      "d": 651.5855333333311,
      "v": 103
    },
    {
      "midi": 67,
      "hit": false,
      "t": 180722.7799999998,
      "d": 663.8795999999857,
      "v": 81
    },
    {
      "midi": 74,
      "hit": false,
      "t": 181460.42399999977,
      "d": 325.7927666666801,
      "v": 98
    },
    {
      "midi": 67,
      "hit": false,
      "t": 181460.42399999977,
      "d": 651.5855333333311,
      "v": 90
    },
    {
      "midi": 72,
      "hit": false,
      "t": 181823.09896666644,
      "d": 362.67496666664374,
      "v": 69
    },
    {
      "midi": 67,
      "hit": false,
      "t": 182198.06799999974,
      "d": 319.6457333333383,
      "v": 108
    },
    {
      "midi": 74,
      "hit": false,
      "t": 182198.06799999974,
      "d": 319.6457333333383,
      "v": 85
    },
    {
      "midi": 67,
      "hit": false,
      "t": 182566.88999999975,
      "d": 1044.9956666666549,
      "v": 87
    },
    {
      "midi": 74,
      "hit": false,
      "t": 182566.88999999975,
      "d": 1057.2897333333094,
      "v": 86
    },
    {
      "midi": 67,
      "hit": false,
      "t": 183679.50303333305,
      "d": 651.5855333333311,
      "v": 103
    },
    {
      "midi": 74,
      "hit": false,
      "t": 183679.50303333305,
      "d": 657.7325666666729,
      "v": 94
    },
    {
      "midi": 74,
      "hit": false,
      "t": 184410.9999999997,
      "d": 331.93979999999283,
      "v": 111
    },
    {
      "midi": 67,
      "hit": false,
      "t": 184410.9999999997,
      "d": 670.0266333333275,
      "v": 106
    },
    {
      "midi": 72,
      "hit": false,
      "t": 184779.8219999997,
      "d": 344.2338666666765,
      "v": 69
    },
    {
      "midi": 67,
      "hit": false,
      "t": 185148.6439999997,
      "d": 319.6457333333383,
      "v": 102
    },
    {
      "midi": 74,
      "hit": false,
      "t": 185148.6439999997,
      "d": 319.6457333333383,
      "v": 90
    },
    {
      "midi": 74,
      "hit": false,
      "t": 185523.61303333304,
      "d": 1001.9664333333203,
      "v": 101
    },
    {
      "midi": 67,
      "hit": false,
      "t": 185523.61303333304,
      "d": 1014.2604999999749,
      "v": 93
    },
    {
      "midi": 74,
      "hit": false,
      "t": 186623.93199999968,
      "d": 663.8795999999857,
      "v": 98
    },
    {
      "midi": 67,
      "hit": false,
      "t": 186623.93199999968,
      "d": 670.0266333333275,
      "v": 84
    },
    {
      "midi": 67,
      "hit": false,
      "t": 187361.57599999968,
      "d": 657.7325666666729,
      "v": 107
    },
    {
      "midi": 74,
      "hit": false,
      "t": 187361.57599999968,
      "d": 688.467733333353,
      "v": 108
    },
    {
      "midi": 67,
      "hit": false,
      "t": 188105.36703333302,
      "d": 276.6165000000037,
      "v": 127
    },
    {
      "midi": 67,
      "hit": false,
      "t": 188474.18903333304,
      "d": 909.7609333333385,
      "v": 118
    },
    {
      "midi": 74,
      "hit": false,
      "t": 188474.18903333304,
      "d": 934.3490666666767,
      "v": 127
    },
    {
      "midi": 74,
      "hit": false,
      "t": 189574.5079999997,
      "d": 608.5562999999966,
      "v": 126
    },
    {
      "midi": 67,
      "hit": false,
      "t": 189574.5079999997,
      "d": 620.8503666666511,
      "v": 116
    },
    {
      "midi": 67,
      "hit": false,
      "t": 190312.15199999968,
      "d": 596.2622333333129,
      "v": 121
    },
    {
      "midi": 74,
      "hit": false,
      "t": 190312.15199999968,
      "d": 713.0558666666329,
      "v": 127
    },
    {
      "midi": 72,
      "hit": false,
      "t": 190680.97399999967,
      "d": 393.41013333332376,
      "v": 104
    },
    {
      "midi": 74,
      "hit": false,
      "t": 191049.79599999965,
      "d": 307.35166666668374,
      "v": 117
    },
    {
      "midi": 67,
      "hit": false,
      "t": 191049.79599999965,
      "d": 313.49870000002556,
      "v": 118
    },
    {
      "midi": 87,
      "hit": false,
      "t": 191787.43999999968,
      "d": 620.8503666666802,
      "v": 126
    },
    {
      "midi": 75,
      "hit": false,
      "t": 191787.43999999968,
      "d": 645.4385000000184,
      "v": 127
    },
    {
      "midi": 87,
      "hit": false,
      "t": 192518.93696666637,
      "d": 1395.3765666666732,
      "v": 126
    },
    {
      "midi": 75,
      "hit": false,
      "t": 192525.0839999997,
      "d": 1389.2295333333313,
      "v": 127
    },
    {
      "midi": 75,
      "hit": false,
      "t": 194000.3719999997,
      "d": 276.6165000000037,
      "v": 127
    },
    {
      "midi": 87,
      "hit": false,
      "t": 194000.3719999997,
      "d": 307.35166666668374,
      "v": 126
    },
    {
      "midi": 86,
      "hit": false,
      "t": 194363.04696666638,
      "d": 331.93979999999283,
      "v": 126
    },
    {
      "midi": 74,
      "hit": false,
      "t": 194363.04696666638,
      "d": 344.2338666666474,
      "v": 99
    },
    {
      "midi": 84,
      "hit": false,
      "t": 194731.86896666637,
      "d": 663.8796000000148,
      "v": 123
    },
    {
      "midi": 72,
      "hit": false,
      "t": 194738.0159999997,
      "d": 651.5855333333311,
      "v": 88
    },
    {
      "midi": 72,
      "hit": false,
      "t": 195469.51296666637,
      "d": 1094.1719333333313,
      "v": 126
    },
    {
      "midi": 84,
      "hit": false,
      "t": 195469.51296666637,
      "d": 1112.6130333333276,
      "v": 127
    },
    {
      "midi": 82,
      "hit": false,
      "t": 196575.97896666636,
      "d": 313.49869999999646,
      "v": 88
    },
    {
      "midi": 70,
      "hit": false,
      "t": 196575.97896666636,
      "d": 331.93979999999283,
      "v": 87
    },
    {
      "midi": 70,
      "hit": false,
      "t": 196950.94799999968,
      "d": 301.2046333333419,
      "v": 124
    },
    {
      "midi": 82,
      "hit": false,
      "t": 196950.94799999968,
      "d": 301.2046333333419,
      "v": 117
    },
    {
      "midi": 84,
      "hit": false,
      "t": 197313.62296666636,
      "d": 313.49869999999646,
      "v": 124
    },
    {
      "midi": 72,
      "hit": false,
      "t": 197313.62296666636,
      "d": 319.6457333333383,
      "v": 119
    },
    {
      "midi": 86,
      "hit": false,
      "t": 197682.44496666637,
      "d": 694.6147666666657,
      "v": 127
    },
    {
      "midi": 74,
      "hit": false,
      "t": 197682.44496666637,
      "d": 706.9088333333202,
      "v": 124
    },
    {
      "midi": 74,
      "hit": false,
      "t": 198426.23599999968,
      "d": 1413.8176666666695,
      "v": 126
    },
    {
      "midi": 86,
      "hit": false,
      "t": 198426.23599999968,
      "d": 1438.4058000000077,
      "v": 127
    },
    {
      "midi": 74,
      "hit": false,
      "t": 199901.52399999968,
      "d": 307.35166666665464,
      "v": 120
    },
    {
      "midi": 86,
      "hit": false,
      "t": 199901.52399999968,
      "d": 313.49869999999646,
      "v": 119
    },
    {
      "midi": 84,
      "hit": false,
      "t": 200264.19896666636,
      "d": 350.3808999999892,
      "v": 105
    },
    {
      "midi": 72,
      "hit": false,
      "t": 200270.3459999997,
      "d": 307.35166666665464,
      "v": 110
    },
    {
      "midi": 70,
      "hit": false,
      "t": 200633.02096666634,
      "d": 682.3207000000111,
      "v": 98
    },
    {
      "midi": 82,
      "hit": false,
      "t": 200633.02096666634,
      "d": 688.467733333353,
      "v": 115
    },
    {
      "midi": 82,
      "hit": false,
      "t": 201370.66496666637,
      "d": 1481.4350333333423,
      "v": 123
    },
    {
      "midi": 70,
      "hit": false,
      "t": 201376.8119999997,
      "d": 1481.4350333333423,
      "v": 114
    },
    {
      "midi": 87,
      "hit": false,
      "t": 202852.09999999971,
      "d": 307.35166666668374,
      "v": 116
    },
    {
      "midi": 75,
      "hit": false,
      "t": 202858.24703333306,
      "d": 307.35166666668374,
      "v": 115
    },
    {
      "midi": 74,
      "hit": false,
      "t": 203214.77496666642,
      "d": 338.08683333333465,
      "v": 81
    },
    {
      "midi": 86,
      "hit": false,
      "t": 203220.92199999976,
      "d": 313.49869999999646,
      "v": 108
    },
    {
      "midi": 87,
      "hit": false,
      "t": 203589.74399999974,
      "d": 651.5855333333311,
      "v": 127
    },
    {
      "midi": 75,
      "hit": false,
      "t": 203589.74399999974,
      "d": 670.0266333333275,
      "v": 126
    },
    {
      "midi": 87,
      "hit": false,
      "t": 204327.38799999974,
      "d": 1008.1134666666621,
      "v": 126
    },
    {
      "midi": 75,
      "hit": false,
      "t": 204327.38799999974,
      "d": 1014.260500000004,
      "v": 117
    },
    {
      "midi": 87,
      "hit": false,
      "t": 205427.70696666642,
      "d": 313.49869999999646,
      "v": 111
    },
    {
      "midi": 75,
      "hit": false,
      "t": 205433.85399999976,
      "d": 307.35166666665464,
      "v": 110
    },
    {
      "midi": 75,
      "hit": false,
      "t": 205802.67599999974,
      "d": 264.3224333333201,
      "v": 126
    },
    {
      "midi": 87,
      "hit": false,
      "t": 205802.67599999974,
      "d": 301.2046333333128,
      "v": 127
    },
    {
      "midi": 74,
      "hit": false,
      "t": 206165.3509666664,
      "d": 344.2338666666765,
      "v": 98
    },
    {
      "midi": 86,
      "hit": false,
      "t": 206165.3509666664,
      "d": 344.2338666666765,
      "v": 115
    },
    {
      "midi": 72,
      "hit": false,
      "t": 206534.1729666664,
      "d": 657.7325666666729,
      "v": 83
    },
    {
      "midi": 84,
      "hit": false,
      "t": 206534.1729666664,
      "d": 657.7325666666729,
      "v": 118
    },
    {
      "midi": 72,
      "hit": false,
      "t": 207271.8169666664,
      "d": 1395.3765666666732,
      "v": 123
    },
    {
      "midi": 84,
      "hit": false,
      "t": 207271.8169666664,
      "d": 1469.1409666666586,
      "v": 126
    },
    {
      "midi": 70,
      "hit": false,
      "t": 208747.1049666664,
      "d": 313.49869999999646,
      "v": 125
    },
    {
      "midi": 82,
      "hit": false,
      "t": 208753.25199999975,
      "d": 319.6457333333092,
      "v": 114
    },
    {
      "midi": 84,
      "hit": false,
      "t": 209115.9269666664,
      "d": 331.93979999999283,
      "v": 117
    },
    {
      "midi": 72,
      "hit": false,
      "t": 209115.9269666664,
      "d": 344.2338666666474,
      "v": 112
    },
    {
      "midi": 86,
      "hit": false,
      "t": 209484.74896666638,
      "d": 700.7618000000075,
      "v": 127
    },
    {
      "midi": 74,
      "hit": false,
      "t": 209484.74896666638,
      "d": 713.055866666662,
      "v": 122
    },
    {
      "midi": 74,
      "hit": false,
      "t": 210228.53999999972,
      "d": 995.8194000000076,
      "v": 123
    },
    {
      "midi": 86,
      "hit": false,
      "t": 210228.53999999972,
      "d": 995.8194000000076,
      "v": 126
    },
    {
      "midi": 74,
      "hit": false,
      "t": 211328.8589666664,
      "d": 313.49869999999646,
      "v": 117
    },
    {
      "midi": 86,
      "hit": false,
      "t": 211328.8589666664,
      "d": 319.6457333333383,
      "v": 126
    },
    {
      "midi": 74,
      "hit": false,
      "t": 211703.82799999972,
      "d": 313.49869999999646,
      "v": 122
    },
    {
      "midi": 86,
      "hit": false,
      "t": 211703.82799999972,
      "d": 313.49869999999646,
      "v": 123
    },
    {
      "midi": 72,
      "hit": false,
      "t": 212066.5029666664,
      "d": 301.2046333333419,
      "v": 119
    },
    {
      "midi": 84,
      "hit": false,
      "t": 212066.5029666664,
      "d": 362.67496666667284,
      "v": 106
    },
    {
      "midi": 82,
      "hit": false,
      "t": 212435.3249666664,
      "d": 688.4677333333238,
      "v": 99
    },
    {
      "midi": 70,
      "hit": false,
      "t": 212435.3249666664,
      "d": 700.7617999999784,
      "v": 124
    },
    {
      "midi": 70,
      "hit": false,
      "t": 213179.11599999972,
      "d": 1973.1976999999897,
      "v": 113
    },
    {
      "midi": 82,
      "hit": false,
      "t": 213179.11599999972,
      "d": 1997.785833333328,
      "v": 112
    },
    {
      "midi": 75,
      "hit": false,
      "t": 215398.19503333195,
      "d": 522.4978333333274,
      "v": 112
    },
    {
      "midi": 67,
      "hit": false,
      "t": 215398.19503333195,
      "d": 534.791899999982,
      "v": 96
    },
    {
      "midi": 74,
      "hit": false,
      "t": 216160.42716666526,
      "d": 319.6457333333383,
      "v": 111
    },
    {
      "midi": 65,
      "hit": false,
      "t": 216160.42716666526,
      "d": 393.41013333332376,
      "v": 101
    },
    {
      "midi": 72,
      "hit": false,
      "t": 216855.04193333193,
      "d": 288.9105666666874,
      "v": 94
    },
    {
      "midi": 63,
      "hit": false,
      "t": 216861.18896666527,
      "d": 252.02836666666553,
      "v": 94
    },
    {
      "midi": 70,
      "hit": false,
      "t": 217230.0109666653,
      "d": 461.0274999999965,
      "v": 81
    },
    {
      "midi": 62,
      "hit": false,
      "t": 217230.0109666653,
      "d": 473.32156666665105,
      "v": 83
    },
    {
      "midi": 75,
      "hit": false,
      "t": 218354.91806666524,
      "d": 325.792766666651,
      "v": 112
    },
    {
      "midi": 67,
      "hit": false,
      "t": 218354.91806666524,
      "d": 399.5571666666656,
      "v": 98
    },
    {
      "midi": 74,
      "hit": false,
      "t": 219074.12096666524,
      "d": 288.91056666665827,
      "v": 101
    },
    {
      "midi": 65,
      "hit": false,
      "t": 219086.4150333319,
      "d": 344.2338666666765,
      "v": 106
    },
    {
      "midi": 72,
      "hit": false,
      "t": 219805.6179333319,
      "d": 258.17540000000736,
      "v": 91
    },
    {
      "midi": 63,
      "hit": false,
      "t": 219811.76496666524,
      "d": 190.5580333333346,
      "v": 93
    },
    {
      "midi": 87,
      "hit": false,
      "t": 220174.43993333192,
      "d": 749.9380666666839,
      "v": 78
    },
    {
      "midi": 70,
      "hit": false,
      "t": 220186.7339999986,
      "d": 454.8804666666838,
      "v": 100
    },
    {
      "midi": 62,
      "hit": false,
      "t": 220186.7339999986,
      "d": 467.17453333333833,
      "v": 97
    },
    {
      "midi": 86,
      "hit": false,
      "t": 220936.67206666525,
      "d": 3300.95689999999,
      "v": 88
    },
    {
      "midi": 75,
      "hit": false,
      "t": 221293.1999999986,
      "d": 381.1160666666692,
      "v": 111
    },
    {
      "midi": 67,
      "hit": false,
      "t": 221299.34703333193,
      "d": 424.1453000000038,
      "v": 111
    },
    {
      "midi": 74,
      "hit": false,
      "t": 222036.9910333319,
      "d": 307.35166666668374,
      "v": 110
    },
    {
      "midi": 65,
      "hit": false,
      "t": 222049.28509999855,
      "d": 356.5279333333601,
      "v": 114
    },
    {
      "midi": 72,
      "hit": false,
      "t": 222780.78206666524,
      "d": 172.11693333333824,
      "v": 95
    },
    {
      "midi": 63,
      "hit": false,
      "t": 222786.92909999858,
      "d": 172.11693333333824,
      "v": 99
    },
    {
      "midi": 62,
      "hit": false,
      "t": 223161.89813333194,
      "d": 565.527066666662,
      "v": 98
    },
    {
      "midi": 70,
      "hit": false,
      "t": 223161.89813333194,
      "d": 565.527066666662,
      "v": 98
    },
    {
      "midi": 75,
      "hit": false,
      "t": 224262.21709999858,
      "d": 417.99826666666195,
      "v": 111
    },
    {
      "midi": 87,
      "hit": false,
      "t": 224262.21709999858,
      "d": 688.4677333333238,
      "v": 82
    },
    {
      "midi": 67,
      "hit": false,
      "t": 224268.36413333192,
      "d": 430.2923333333165,
      "v": 95
    },
    {
      "midi": 86,
      "hit": false,
      "t": 224981.4199999986,
      "d": 700.7618000000075,
      "v": 87
    },
    {
      "midi": 74,
      "hit": false,
      "t": 224999.86109999858,
      "d": 264.3224333333201,
      "v": 100
    },
    {
      "midi": 65,
      "hit": false,
      "t": 225006.00813333192,
      "d": 307.35166666665464,
      "v": 103
    },
    {
      "midi": 63,
      "hit": false,
      "t": 225712.91696666527,
      "d": 86.05846666666912,
      "v": 90
    },
    {
      "midi": 72,
      "hit": false,
      "t": 225712.91696666527,
      "d": 92.20550000001094,
      "v": 86
    },
    {
      "midi": 84,
      "hit": false,
      "t": 225731.35806666527,
      "d": 276.61650000003283,
      "v": 65
    },
    {
      "midi": 82,
      "hit": false,
      "t": 226069.44489999863,
      "d": 12804.270433333033,
      "v": 85
    },
    {
      "midi": 62,
      "hit": false,
      "t": 226118.62116666528,
      "d": 12748.947133333044,
      "v": 94
    },
    {
      "midi": 70,
      "hit": false,
      "t": 226118.62116666528,
      "d": 12748.947133333044,
      "v": 98
    }
  ]
}