{
  "jsonPath": "Rock/Pop Rock/James Blunt/no-bravery.json",
  "path": "Rock\\Pop Rock\\James Blunt\\No Bravery.mid",
  "name": "No Bravery",
  "difficulty": "Advanced",
  "bpm": 83.0000650167176,
  "notes": [
    {
      "midi": 57,
      "hit": false,
      "t": 0,
      "d": 722.891,
      "v": 77
    },
    {
      "midi": 60,
      "hit": false,
      "t": 0,
      "d": 722.891,
      "v": 95
    },
    {
      "midi": 45,
      "hit": false,
      "t": 0,
      "d": 2168.673,
      "v": 91
    },
    {
      "midi": 57,
      "hit": false,
      "t": 722.891,
      "d": 722.891,
      "v": 73
    },
    {
      "midi": 60,
      "hit": false,
      "t": 722.891,
      "d": 722.891,
      "v": 75
    },
    {
      "midi": 64,
      "hit": false,
      "t": 722.891,
      "d": 722.891,
      "v": 90
    },
    {
      "midi": 57,
      "hit": false,
      "t": 1445.782,
      "d": 722.8909999999998,
      "v": 75
    },
    {
      "midi": 60,
      "hit": false,
      "t": 1445.782,
      "d": 722.8909999999998,
      "v": 77
    },
    {
      "midi": 64,
      "hit": false,
      "t": 1445.782,
      "d": 722.8909999999998,
      "v": 88
    },
    {
      "midi": 57,
      "hit": false,
      "t": 2168.673,
      "d": 722.8910000000001,
      "v": 83
    },
    {
      "midi": 60,
      "hit": false,
      "t": 2168.673,
      "d": 722.8910000000001,
      "v": 86
    },
    {
      "midi": 64,
      "hit": false,
      "t": 2168.673,
      "d": 722.8910000000001,
      "v": 83
    },
    {
      "midi": 40,
      "hit": false,
      "t": 2530.1184999999996,
      "d": 361.4454999999998,
      "v": 101
    },
    {
      "midi": 44,
      "hit": false,
      "t": 2891.5639999999994,
      "d": 1084.3365,
      "v": 106
    },
    {
      "midi": 56,
      "hit": false,
      "t": 2891.564,
      "d": 722.8910000000001,
      "v": 80
    },
    {
      "midi": 59,
      "hit": false,
      "t": 2891.564,
      "d": 722.8910000000001,
      "v": 83
    },
    {
      "midi": 64,
      "hit": false,
      "t": 2891.564,
      "d": 722.8910000000001,
      "v": 80
    },
    {
      "midi": 56,
      "hit": false,
      "t": 3614.455,
      "d": 722.8909999999996,
      "v": 71
    },
    {
      "midi": 59,
      "hit": false,
      "t": 3614.455,
      "d": 722.8909999999996,
      "v": 73
    },
    {
      "midi": 64,
      "hit": false,
      "t": 3614.455,
      "d": 722.8909999999996,
      "v": 85
    },
    {
      "midi": 40,
      "hit": false,
      "t": 3975.9004999999993,
      "d": 361.44550000000027,
      "v": 101
    },
    {
      "midi": 56,
      "hit": false,
      "t": 4337.346,
      "d": 722.8909999999996,
      "v": 73
    },
    {
      "midi": 59,
      "hit": false,
      "t": 4337.346,
      "d": 722.8909999999996,
      "v": 77
    },
    {
      "midi": 64,
      "hit": false,
      "t": 4337.346,
      "d": 722.8909999999996,
      "v": 89
    },
    {
      "midi": 40,
      "hit": false,
      "t": 4337.346,
      "d": 1445.7820000000002,
      "v": 104
    },
    {
      "midi": 56,
      "hit": false,
      "t": 5060.236999999999,
      "d": 361.4454999999998,
      "v": 68
    },
    {
      "midi": 59,
      "hit": false,
      "t": 5060.236999999999,
      "d": 361.4454999999998,
      "v": 73
    },
    {
      "midi": 64,
      "hit": false,
      "t": 5060.236999999999,
      "d": 361.4454999999998,
      "v": 85
    },
    {
      "midi": 59,
      "hit": false,
      "t": 5421.682499999999,
      "d": 361.4454999999998,
      "v": 78
    },
    {
      "midi": 55,
      "hit": false,
      "t": 5783.127999999999,
      "d": 722.8909999999996,
      "v": 77
    },
    {
      "midi": 59,
      "hit": false,
      "t": 5783.127999999999,
      "d": 722.8909999999996,
      "v": 72
    },
    {
      "midi": 62,
      "hit": false,
      "t": 5783.127999999999,
      "d": 722.8909999999996,
      "v": 79
    },
    {
      "midi": 43,
      "hit": false,
      "t": 5783.128,
      "d": 1084.3365000000003,
      "v": 101
    },
    {
      "midi": 59,
      "hit": false,
      "t": 6506.018999999998,
      "d": 722.8909999999996,
      "v": 72
    },
    {
      "midi": 62,
      "hit": false,
      "t": 6506.018999999998,
      "d": 722.8909999999996,
      "v": 82
    },
    {
      "midi": 55,
      "hit": false,
      "t": 6867.4645,
      "d": 722.8909999999996,
      "v": 74
    },
    {
      "midi": 59,
      "hit": false,
      "t": 7228.909999999998,
      "d": 722.8909999999996,
      "v": 76
    },
    {
      "midi": 64,
      "hit": false,
      "t": 7228.909999999998,
      "d": 722.8909999999996,
      "v": 93
    },
    {
      "midi": 55,
      "hit": false,
      "t": 7590.3555,
      "d": 361.4454999999998,
      "v": 74
    },
    {
      "midi": 59,
      "hit": false,
      "t": 7951.800999999998,
      "d": 722.8909999999996,
      "v": 82
    },
    {
      "midi": 62,
      "hit": false,
      "t": 7951.800999999998,
      "d": 722.8909999999996,
      "v": 80
    },
    {
      "midi": 55,
      "hit": false,
      "t": 7951.8009999999995,
      "d": 722.8909999999996,
      "v": 77
    },
    {
      "midi": 57,
      "hit": false,
      "t": 8674.691999999997,
      "d": 722.8909999999996,
      "v": 79
    },
    {
      "midi": 62,
      "hit": false,
      "t": 8674.691999999997,
      "d": 722.8909999999996,
      "v": 81
    },
    {
      "midi": 42,
      "hit": false,
      "t": 8674.692,
      "d": 1084.3364999999994,
      "v": 106
    },
    {
      "midi": 57,
      "hit": false,
      "t": 9397.582999999997,
      "d": 722.8909999999996,
      "v": 71
    },
    {
      "midi": 62,
      "hit": false,
      "t": 9397.582999999997,
      "d": 722.8909999999996,
      "v": 86
    },
    {
      "midi": 38,
      "hit": false,
      "t": 9759.028499999999,
      "d": 361.4454999999998,
      "v": 101
    },
    {
      "midi": 57,
      "hit": false,
      "t": 10120.473999999997,
      "d": 722.8909999999996,
      "v": 75
    },
    {
      "midi": 62,
      "hit": false,
      "t": 10120.473999999997,
      "d": 722.8909999999996,
      "v": 91
    },
    {
      "midi": 38,
      "hit": false,
      "t": 10120.473999999998,
      "d": 1084.3364999999994,
      "v": 104
    },
    {
      "midi": 57,
      "hit": false,
      "t": 10843.364999999996,
      "d": 722.8909999999996,
      "v": 69
    },
    {
      "midi": 62,
      "hit": false,
      "t": 10843.364999999996,
      "d": 722.8909999999996,
      "v": 83
    },
    {
      "midi": 54,
      "hit": false,
      "t": 11204.810499999998,
      "d": 361.4454999999998,
      "v": 69
    },
    {
      "midi": 57,
      "hit": false,
      "t": 11566.255999999996,
      "d": 722.8909999999996,
      "v": 71
    },
    {
      "midi": 60,
      "hit": false,
      "t": 11566.255999999996,
      "d": 722.8909999999996,
      "v": 73
    },
    {
      "midi": 64,
      "hit": false,
      "t": 11566.255999999996,
      "d": 722.8909999999996,
      "v": 83
    },
    {
      "midi": 45,
      "hit": false,
      "t": 11566.255999999998,
      "d": 1084.3364999999994,
      "v": 101
    },
    {
      "midi": 57,
      "hit": false,
      "t": 12289.146999999995,
      "d": 722.8909999999996,
      "v": 68
    },
    {
      "midi": 60,
      "hit": false,
      "t": 12289.146999999995,
      "d": 722.8909999999996,
      "v": 72
    },
    {
      "midi": 64,
      "hit": false,
      "t": 12289.146999999995,
      "d": 722.8909999999996,
      "v": 84
    },
    {
      "midi": 57,
      "hit": false,
      "t": 12650.592499999997,
      "d": 722.8909999999996,
      "v": 78
    },
    {
      "midi": 60,
      "hit": false,
      "t": 13012.037999999995,
      "d": 722.8909999999996,
      "v": 77
    },
    {
      "midi": 65,
      "hit": false,
      "t": 13012.037999999995,
      "d": 722.8909999999996,
      "v": 92
    },
    {
      "midi": 57,
      "hit": false,
      "t": 13373.483499999997,
      "d": 722.8909999999996,
      "v": 77
    },
    {
      "midi": 60,
      "hit": false,
      "t": 13734.928999999995,
      "d": 361.4454999999998,
      "v": 81
    },
    {
      "midi": 64,
      "hit": false,
      "t": 14096.374499999994,
      "d": 361.4454999999998,
      "v": 78
    },
    {
      "midi": 57,
      "hit": false,
      "t": 14096.374499999996,
      "d": 361.4454999999998,
      "v": 76
    },
    {
      "midi": 59,
      "hit": false,
      "t": 14457.819999999994,
      "d": 722.8909999999996,
      "v": 80
    },
    {
      "midi": 64,
      "hit": false,
      "t": 14457.819999999994,
      "d": 722.8909999999996,
      "v": 78
    },
    {
      "midi": 44,
      "hit": false,
      "t": 14457.819999999996,
      "d": 361.4454999999998,
      "v": 101
    },
    {
      "midi": 56,
      "hit": false,
      "t": 14819.265499999996,
      "d": 722.8909999999996,
      "v": 72
    },
    {
      "midi": 59,
      "hit": false,
      "t": 15180.710999999994,
      "d": 722.8909999999996,
      "v": 72
    },
    {
      "midi": 64,
      "hit": false,
      "t": 15180.710999999994,
      "d": 722.8909999999996,
      "v": 87
    },
    {
      "midi": 56,
      "hit": false,
      "t": 15542.156499999996,
      "d": 722.8909999999996,
      "v": 76
    },
    {
      "midi": 59,
      "hit": false,
      "t": 15903.601999999993,
      "d": 722.8910000000014,
      "v": 75
    },
    {
      "midi": 65,
      "hit": false,
      "t": 15903.601999999993,
      "d": 722.8910000000014,
      "v": 92
    },
    {
      "midi": 56,
      "hit": false,
      "t": 16265.047499999995,
      "d": 722.8910000000014,
      "v": 75
    },
    {
      "midi": 59,
      "hit": false,
      "t": 16626.492999999995,
      "d": 722.8909999999996,
      "v": 72
    },
    {
      "midi": 64,
      "hit": false,
      "t": 16626.492999999995,
      "d": 722.8909999999996,
      "v": 88
    },
    {
      "midi": 56,
      "hit": false,
      "t": 16987.938499999997,
      "d": 361.44550000000163,
      "v": 71
    },
    {
      "midi": 55,
      "hit": false,
      "t": 17349.383999999995,
      "d": 722.8909999999996,
      "v": 76
    },
    {
      "midi": 59,
      "hit": false,
      "t": 17349.383999999995,
      "d": 722.8909999999996,
      "v": 72
    },
    {
      "midi": 62,
      "hit": false,
      "t": 17349.383999999995,
      "d": 722.8909999999996,
      "v": 79
    },
    {
      "midi": 43,
      "hit": false,
      "t": 17349.384,
      "d": 1084.3365000000013,
      "v": 101
    },
    {
      "midi": 59,
      "hit": false,
      "t": 18072.274999999994,
      "d": 722.8909999999996,
      "v": 72
    },
    {
      "midi": 62,
      "hit": false,
      "t": 18072.274999999994,
      "d": 722.8909999999996,
      "v": 83
    },
    {
      "midi": 55,
      "hit": false,
      "t": 18433.7205,
      "d": 722.8909999999996,
      "v": 75
    },
    {
      "midi": 59,
      "hit": false,
      "t": 18795.165999999994,
      "d": 722.8909999999996,
      "v": 75
    },
    {
      "midi": 64,
      "hit": false,
      "t": 18795.165999999994,
      "d": 722.8909999999996,
      "v": 92
    },
    {
      "midi": 55,
      "hit": false,
      "t": 19156.6115,
      "d": 722.8909999999996,
      "v": 75
    },
    {
      "midi": 59,
      "hit": false,
      "t": 19518.056999999993,
      "d": 722.8909999999996,
      "v": 73
    },
    {
      "midi": 62,
      "hit": false,
      "t": 19518.056999999993,
      "d": 722.8909999999996,
      "v": 87
    },
    {
      "midi": 55,
      "hit": false,
      "t": 19879.5025,
      "d": 361.44550000000163,
      "v": 69
    },
    {
      "midi": 57,
      "hit": false,
      "t": 20240.947999999993,
      "d": 722.8909999999996,
      "v": 73
    },
    {
      "midi": 62,
      "hit": false,
      "t": 20240.947999999993,
      "d": 722.8909999999996,
      "v": 87
    },
    {
      "midi": 42,
      "hit": false,
      "t": 20240.948,
      "d": 1084.3365000000013,
      "v": 106
    },
    {
      "midi": 57,
      "hit": false,
      "t": 20963.838999999993,
      "d": 722.8909999999996,
      "v": 72
    },
    {
      "midi": 62,
      "hit": false,
      "t": 20963.838999999993,
      "d": 722.8909999999996,
      "v": 87
    },
    {
      "midi": 38,
      "hit": false,
      "t": 21325.2845,
      "d": 361.44550000000163,
      "v": 101
    },
    {
      "midi": 57,
      "hit": false,
      "t": 21686.729999999992,
      "d": 722.8909999999996,
      "v": 76
    },
    {
      "midi": 62,
      "hit": false,
      "t": 21686.729999999992,
      "d": 722.8909999999996,
      "v": 91
    },
    {
      "midi": 38,
      "hit": false,
      "t": 21686.730000000003,
      "d": 1084.3365000000013,
      "v": 104
    },
    {
      "midi": 57,
      "hit": false,
      "t": 22409.620999999992,
      "d": 722.8909999999996,
      "v": 69
    },
    {
      "midi": 62,
      "hit": false,
      "t": 22409.620999999992,
      "d": 722.8909999999996,
      "v": 84
    },
    {
      "midi": 54,
      "hit": false,
      "t": 22771.066500000004,
      "d": 361.44550000000163,
      "v": 69
    },
    {
      "midi": 57,
      "hit": false,
      "t": 23132.51199999999,
      "d": 722.8909999999996,
      "v": 72
    },
    {
      "midi": 60,
      "hit": false,
      "t": 23132.51199999999,
      "d": 722.8909999999996,
      "v": 74
    },
    {
      "midi": 64,
      "hit": false,
      "t": 23132.51199999999,
      "d": 722.8909999999996,
      "v": 85
    },
    {
      "midi": 45,
      "hit": false,
      "t": 23132.512000000006,
      "d": 1445.7819999999992,
      "v": 101
    },
    {
      "midi": 57,
      "hit": false,
      "t": 23855.40299999999,
      "d": 722.8909999999996,
      "v": 72
    },
    {
      "midi": 60,
      "hit": false,
      "t": 23855.40299999999,
      "d": 722.8909999999996,
      "v": 74
    },
    {
      "midi": 64,
      "hit": false,
      "t": 23855.40299999999,
      "d": 722.8909999999996,
      "v": 84
    },
    {
      "midi": 60,
      "hit": false,
      "t": 24578.29399999999,
      "d": 722.8909999999996,
      "v": 78
    },
    {
      "midi": 64,
      "hit": false,
      "t": 24578.29399999999,
      "d": 722.8909999999996,
      "v": 89
    },
    {
      "midi": 57,
      "hit": false,
      "t": 24578.294000000005,
      "d": 722.8909999999996,
      "v": 76
    },
    {
      "midi": 60,
      "hit": false,
      "t": 25301.18499999999,
      "d": 722.8909999999996,
      "v": 85
    },
    {
      "midi": 64,
      "hit": false,
      "t": 25301.18499999999,
      "d": 722.8909999999996,
      "v": 82
    },
    {
      "midi": 57,
      "hit": false,
      "t": 25301.185000000005,
      "d": 722.8909999999996,
      "v": 82
    },
    {
      "midi": 56,
      "hit": false,
      "t": 26024.07599999999,
      "d": 722.8909999999996,
      "v": 78
    },
    {
      "midi": 59,
      "hit": false,
      "t": 26024.07599999999,
      "d": 722.8909999999996,
      "v": 81
    },
    {
      "midi": 64,
      "hit": false,
      "t": 26024.07599999999,
      "d": 722.8909999999996,
      "v": 80
    },
    {
      "midi": 44,
      "hit": false,
      "t": 26024.076000000005,
      "d": 1445.7819999999992,
      "v": 101
    },
    {
      "midi": 56,
      "hit": false,
      "t": 26746.96699999999,
      "d": 722.8909999999996,
      "v": 68
    },
    {
      "midi": 59,
      "hit": false,
      "t": 26746.96699999999,
      "d": 722.8909999999996,
      "v": 72
    },
    {
      "midi": 64,
      "hit": false,
      "t": 26746.96699999999,
      "d": 722.8909999999996,
      "v": 84
    },
    {
      "midi": 59,
      "hit": false,
      "t": 27469.85799999999,
      "d": 722.8909999999996,
      "v": 77
    },
    {
      "midi": 64,
      "hit": false,
      "t": 27469.85799999999,
      "d": 722.8909999999996,
      "v": 89
    },
    {
      "midi": 56,
      "hit": false,
      "t": 27469.858000000004,
      "d": 722.8909999999996,
      "v": 74
    },
    {
      "midi": 59,
      "hit": false,
      "t": 28192.74899999999,
      "d": 722.8909999999996,
      "v": 61
    },
    {
      "midi": 64,
      "hit": false,
      "t": 28192.74899999999,
      "d": 722.8909999999996,
      "v": 73
    },
    {
      "midi": 56,
      "hit": false,
      "t": 28192.749000000003,
      "d": 361.44550000000163,
      "v": 58
    },
    {
      "midi": 56,
      "hit": false,
      "t": 28554.194500000005,
      "d": 361.44550000000163,
      "v": 62
    },
    {
      "midi": 55,
      "hit": false,
      "t": 28915.63999999999,
      "d": 722.8909999999996,
      "v": 69
    },
    {
      "midi": 59,
      "hit": false,
      "t": 28915.63999999999,
      "d": 722.8909999999996,
      "v": 72
    },
    {
      "midi": 62,
      "hit": false,
      "t": 28915.63999999999,
      "d": 722.8909999999996,
      "v": 84
    },
    {
      "midi": 43,
      "hit": false,
      "t": 28915.640000000007,
      "d": 2891.5639999999985,
      "v": 101
    },
    {
      "midi": 55,
      "hit": false,
      "t": 29638.530999999988,
      "d": 722.8909999999996,
      "v": 68
    },
    {
      "midi": 59,
      "hit": false,
      "t": 29638.530999999988,
      "d": 722.8909999999996,
      "v": 73
    },
    {
      "midi": 62,
      "hit": false,
      "t": 29638.530999999988,
      "d": 722.8909999999996,
      "v": 84
    },
    {
      "midi": 55,
      "hit": false,
      "t": 30361.421999999988,
      "d": 722.8909999999996,
      "v": 73
    },
    {
      "midi": 59,
      "hit": false,
      "t": 30361.421999999988,
      "d": 722.8909999999996,
      "v": 77
    },
    {
      "midi": 62,
      "hit": false,
      "t": 30361.421999999988,
      "d": 722.8909999999996,
      "v": 88
    },
    {
      "midi": 55,
      "hit": false,
      "t": 31084.312999999987,
      "d": 722.8909999999996,
      "v": 77
    },
    {
      "midi": 59,
      "hit": false,
      "t": 31084.312999999987,
      "d": 722.8909999999996,
      "v": 83
    },
    {
      "midi": 62,
      "hit": false,
      "t": 31084.312999999987,
      "d": 722.8909999999996,
      "v": 80
    },
    {
      "midi": 54,
      "hit": false,
      "t": 31807.203999999987,
      "d": 722.8909999999996,
      "v": 73
    },
    {
      "midi": 57,
      "hit": false,
      "t": 31807.203999999987,
      "d": 722.8909999999996,
      "v": 78
    },
    {
      "midi": 62,
      "hit": false,
      "t": 31807.203999999987,
      "d": 722.8909999999996,
      "v": 79
    },
    {
      "midi": 42,
      "hit": false,
      "t": 31807.204000000005,
      "d": 2168.6730000000025,
      "v": 101
    },
    {
      "midi": 54,
      "hit": false,
      "t": 32530.094999999987,
      "d": 722.8910000000033,
      "v": 66
    },
    {
      "midi": 57,
      "hit": false,
      "t": 32530.094999999987,
      "d": 722.8910000000033,
      "v": 69
    },
    {
      "midi": 62,
      "hit": false,
      "t": 32530.094999999987,
      "d": 722.8910000000033,
      "v": 83
    },
    {
      "midi": 54,
      "hit": false,
      "t": 33252.98599999999,
      "d": 722.8910000000033,
      "v": 70
    },
    {
      "midi": 57,
      "hit": false,
      "t": 33252.98599999999,
      "d": 722.8910000000033,
      "v": 73
    },
    {
      "midi": 62,
      "hit": false,
      "t": 33252.98599999999,
      "d": 722.8910000000033,
      "v": 89
    },
    {
      "midi": 54,
      "hit": false,
      "t": 33975.87699999999,
      "d": 361.44550000000163,
      "v": 55
    },
    {
      "midi": 57,
      "hit": false,
      "t": 33975.87699999999,
      "d": 361.44550000000163,
      "v": 59
    },
    {
      "midi": 62,
      "hit": false,
      "t": 33975.87699999999,
      "d": 361.44550000000163,
      "v": 75
    },
    {
      "midi": 38,
      "hit": false,
      "t": 33975.87700000001,
      "d": 361.44550000000163,
      "v": 90
    },
    {
      "midi": 54,
      "hit": false,
      "t": 34337.322499999995,
      "d": 361.44550000000163,
      "v": 53
    },
    {
      "midi": 57,
      "hit": false,
      "t": 34337.322499999995,
      "d": 361.44550000000163,
      "v": 69
    },
    {
      "midi": 38,
      "hit": false,
      "t": 34337.32250000001,
      "d": 361.44550000000163,
      "v": 89
    },
    {
      "midi": 57,
      "hit": false,
      "t": 34698.768,
      "d": 722.8910000000033,
      "v": 72
    },
    {
      "midi": 60,
      "hit": false,
      "t": 34698.768,
      "d": 722.8910000000033,
      "v": 74
    },
    {
      "midi": 64,
      "hit": false,
      "t": 34698.768,
      "d": 722.8910000000033,
      "v": 88
    },
    {
      "midi": 45,
      "hit": false,
      "t": 34698.76800000001,
      "d": 1445.7819999999992,
      "v": 101
    },
    {
      "midi": 57,
      "hit": false,
      "t": 35421.659,
      "d": 722.8910000000033,
      "v": 72
    },
    {
      "midi": 60,
      "hit": false,
      "t": 35421.659,
      "d": 722.8910000000033,
      "v": 74
    },
    {
      "midi": 64,
      "hit": false,
      "t": 35421.659,
      "d": 722.8910000000033,
      "v": 85
    },
    {
      "midi": 60,
      "hit": false,
      "t": 36144.55,
      "d": 722.8910000000033,
      "v": 78
    },
    {
      "midi": 64,
      "hit": false,
      "t": 36144.55,
      "d": 722.8910000000033,
      "v": 89
    },
    {
      "midi": 57,
      "hit": false,
      "t": 36144.55000000001,
      "d": 722.8910000000033,
      "v": 75
    },
    {
      "midi": 60,
      "hit": false,
      "t": 36867.441000000006,
      "d": 722.8910000000033,
      "v": 85
    },
    {
      "midi": 64,
      "hit": false,
      "t": 36867.441000000006,
      "d": 722.8910000000033,
      "v": 82
    },
    {
      "midi": 57,
      "hit": false,
      "t": 36867.44100000001,
      "d": 722.8910000000033,
      "v": 81
    },
    {
      "midi": 56,
      "hit": false,
      "t": 37590.33200000001,
      "d": 722.8910000000033,
      "v": 80
    },
    {
      "midi": 59,
      "hit": false,
      "t": 37590.33200000001,
      "d": 722.8910000000033,
      "v": 83
    },
    {
      "midi": 64,
      "hit": false,
      "t": 37590.33200000001,
      "d": 722.8910000000033,
      "v": 82
    },
    {
      "midi": 44,
      "hit": false,
      "t": 37590.33200000002,
      "d": 1445.7819999999992,
      "v": 101
    },
    {
      "midi": 56,
      "hit": false,
      "t": 38313.22300000001,
      "d": 722.8910000000033,
      "v": 70
    },
    {
      "midi": 59,
      "hit": false,
      "t": 38313.22300000001,
      "d": 722.8910000000033,
      "v": 73
    },
    {
      "midi": 64,
      "hit": false,
      "t": 38313.22300000001,
      "d": 722.8910000000033,
      "v": 85
    },
    {
      "midi": 59,
      "hit": false,
      "t": 39036.114000000016,
      "d": 722.8910000000033,
      "v": 77
    },
    {
      "midi": 64,
      "hit": false,
      "t": 39036.114000000016,
      "d": 722.8910000000033,
      "v": 89
    },
    {
      "midi": 56,
      "hit": false,
      "t": 39036.114000000016,
      "d": 722.8910000000033,
      "v": 72
    },
    {
      "midi": 59,
      "hit": false,
      "t": 39759.00500000002,
      "d": 361.44550000000163,
      "v": 61
    },
    {
      "midi": 64,
      "hit": false,
      "t": 39759.00500000002,
      "d": 361.44550000000163,
      "v": 75
    },
    {
      "midi": 56,
      "hit": false,
      "t": 39759.00500000002,
      "d": 361.44550000000163,
      "v": 59
    },
    {
      "midi": 59,
      "hit": false,
      "t": 40120.45050000002,
      "d": 361.44550000000163,
      "v": 72
    },
    {
      "midi": 56,
      "hit": false,
      "t": 40120.45050000002,
      "d": 361.44550000000163,
      "v": 56
    },
    {
      "midi": 55,
      "hit": false,
      "t": 40481.89600000002,
      "d": 722.8910000000033,
      "v": 68
    },
    {
      "midi": 59,
      "hit": false,
      "t": 40481.89600000002,
      "d": 722.8910000000033,
      "v": 74
    },
    {
      "midi": 62,
      "hit": false,
      "t": 40481.89600000002,
      "d": 722.8910000000033,
      "v": 89
    },
    {
      "midi": 43,
      "hit": false,
      "t": 40481.89600000002,
      "d": 2891.5639999999985,
      "v": 101
    },
    {
      "midi": 55,
      "hit": false,
      "t": 41204.787000000026,
      "d": 722.8910000000033,
      "v": 69
    },
    {
      "midi": 59,
      "hit": false,
      "t": 41204.787000000026,
      "d": 722.8910000000033,
      "v": 73
    },
    {
      "midi": 62,
      "hit": false,
      "t": 41204.787000000026,
      "d": 722.8910000000033,
      "v": 84
    },
    {
      "midi": 55,
      "hit": false,
      "t": 41927.67800000003,
      "d": 722.8910000000033,
      "v": 71
    },
    {
      "midi": 59,
      "hit": false,
      "t": 41927.67800000003,
      "d": 722.8910000000033,
      "v": 77
    },
    {
      "midi": 62,
      "hit": false,
      "t": 41927.67800000003,
      "d": 722.8910000000033,
      "v": 89
    },
    {
      "midi": 55,
      "hit": false,
      "t": 42650.56900000003,
      "d": 722.8910000000033,
      "v": 78
    },
    {
      "midi": 59,
      "hit": false,
      "t": 42650.56900000003,
      "d": 722.8910000000033,
      "v": 83
    },
    {
      "midi": 62,
      "hit": false,
      "t": 42650.56900000003,
      "d": 722.8910000000033,
      "v": 81
    },
    {
      "midi": 42,
      "hit": false,
      "t": 43373.46000000002,
      "d": 2168.6730000000025,
      "v": 101
    },
    {
      "midi": 54,
      "hit": false,
      "t": 43373.460000000036,
      "d": 722.8910000000033,
      "v": 75
    },
    {
      "midi": 57,
      "hit": false,
      "t": 43373.460000000036,
      "d": 722.8910000000033,
      "v": 79
    },
    {
      "midi": 62,
      "hit": false,
      "t": 43373.460000000036,
      "d": 722.8910000000033,
      "v": 80
    },
    {
      "midi": 54,
      "hit": false,
      "t": 44096.35100000004,
      "d": 722.8910000000033,
      "v": 67
    },
    {
      "midi": 57,
      "hit": false,
      "t": 44096.35100000004,
      "d": 722.8910000000033,
      "v": 70
    },
    {
      "midi": 62,
      "hit": false,
      "t": 44096.35100000004,
      "d": 722.8910000000033,
      "v": 84
    },
    {
      "midi": 54,
      "hit": false,
      "t": 44819.24200000004,
      "d": 722.8910000000033,
      "v": 70
    },
    {
      "midi": 57,
      "hit": false,
      "t": 44819.24200000004,
      "d": 722.8910000000033,
      "v": 74
    },
    {
      "midi": 62,
      "hit": false,
      "t": 44819.24200000004,
      "d": 722.8910000000033,
      "v": 88
    },
    {
      "midi": 38,
      "hit": false,
      "t": 45542.13300000002,
      "d": 361.44550000000163,
      "v": 90
    },
    {
      "midi": 54,
      "hit": false,
      "t": 45542.133000000045,
      "d": 361.44550000000163,
      "v": 54
    },
    {
      "midi": 57,
      "hit": false,
      "t": 45542.133000000045,
      "d": 361.44550000000163,
      "v": 59
    },
    {
      "midi": 62,
      "hit": false,
      "t": 45542.133000000045,
      "d": 361.44550000000163,
      "v": 75
    },
    {
      "midi": 38,
      "hit": false,
      "t": 45903.578500000025,
      "d": 361.44550000000163,
      "v": 79
    },
    {
      "midi": 54,
      "hit": false,
      "t": 45903.57850000005,
      "d": 361.44550000000163,
      "v": 52
    },
    {
      "midi": 57,
      "hit": false,
      "t": 45903.57850000005,
      "d": 361.44550000000163,
      "v": 68
    },
    {
      "midi": 45,
      "hit": false,
      "t": 46265.02400000003,
      "d": 1445.7819999999992,
      "v": 91
    },
    {
      "midi": 57,
      "hit": false,
      "t": 46265.02400000005,
      "d": 722.8910000000033,
      "v": 72
    },
    {
      "midi": 60,
      "hit": false,
      "t": 46265.02400000005,
      "d": 722.8910000000033,
      "v": 74
    },
    {
      "midi": 64,
      "hit": false,
      "t": 46265.02400000005,
      "d": 722.8910000000033,
      "v": 88
    },
    {
      "midi": 57,
      "hit": false,
      "t": 46987.91500000005,
      "d": 722.8910000000033,
      "v": 72
    },
    {
      "midi": 60,
      "hit": false,
      "t": 46987.91500000005,
      "d": 722.8910000000033,
      "v": 74
    },
    {
      "midi": 64,
      "hit": false,
      "t": 46987.91500000005,
      "d": 722.8910000000033,
      "v": 84
    },
    {
      "midi": 57,
      "hit": false,
      "t": 47710.806000000026,
      "d": 722.8910000000033,
      "v": 76
    },
    {
      "midi": 60,
      "hit": false,
      "t": 47710.806000000055,
      "d": 722.8910000000033,
      "v": 78
    },
    {
      "midi": 64,
      "hit": false,
      "t": 47710.806000000055,
      "d": 722.8910000000033,
      "v": 90
    },
    {
      "midi": 57,
      "hit": false,
      "t": 48433.69700000003,
      "d": 722.8910000000033,
      "v": 82
    },
    {
      "midi": 60,
      "hit": false,
      "t": 48433.69700000006,
      "d": 722.8910000000033,
      "v": 85
    },
    {
      "midi": 64,
      "hit": false,
      "t": 48433.69700000006,
      "d": 722.8910000000033,
      "v": 82
    },
    {
      "midi": 44,
      "hit": false,
      "t": 49156.58800000003,
      "d": 1084.3364999999976,
      "v": 96
    },
    {
      "midi": 56,
      "hit": false,
      "t": 49156.58800000006,
      "d": 722.8910000000033,
      "v": 77
    },
    {
      "midi": 59,
      "hit": false,
      "t": 49156.58800000006,
      "d": 722.8910000000033,
      "v": 81
    },
    {
      "midi": 64,
      "hit": false,
      "t": 49156.58800000006,
      "d": 722.8910000000033,
      "v": 79
    },
    {
      "midi": 56,
      "hit": false,
      "t": 49879.479000000065,
      "d": 722.8910000000033,
      "v": 70
    },
    {
      "midi": 59,
      "hit": false,
      "t": 49879.479000000065,
      "d": 722.8910000000033,
      "v": 72
    },
    {
      "midi": 64,
      "hit": false,
      "t": 49879.479000000065,
      "d": 722.8910000000033,
      "v": 84
    },
    {
      "midi": 40,
      "hit": false,
      "t": 50240.92450000003,
      "d": 361.44550000000163,
      "v": 91
    },
    {
      "midi": 40,
      "hit": false,
      "t": 50602.37000000003,
      "d": 1445.7819999999992,
      "v": 94
    },
    {
      "midi": 56,
      "hit": false,
      "t": 50602.37000000007,
      "d": 722.8910000000033,
      "v": 75
    },
    {
      "midi": 59,
      "hit": false,
      "t": 50602.37000000007,
      "d": 722.8910000000033,
      "v": 76
    },
    {
      "midi": 64,
      "hit": false,
      "t": 50602.37000000007,
      "d": 722.8910000000033,
      "v": 89
    },
    {
      "midi": 56,
      "hit": false,
      "t": 51325.26100000007,
      "d": 722.8910000000033,
      "v": 71
    },
    {
      "midi": 59,
      "hit": false,
      "t": 51325.26100000007,
      "d": 722.8910000000033,
      "v": 73
    },
    {
      "midi": 64,
      "hit": false,
      "t": 51325.26100000007,
      "d": 722.8910000000033,
      "v": 88
    },
    {
      "midi": 43,
      "hit": false,
      "t": 52048.15200000003,
      "d": 1084.3364999999976,
      "v": 91
    },
    {
      "midi": 55,
      "hit": false,
      "t": 52048.152000000075,
      "d": 722.8910000000033,
      "v": 68
    },
    {
      "midi": 59,
      "hit": false,
      "t": 52048.152000000075,
      "d": 722.8910000000033,
      "v": 71
    },
    {
      "midi": 62,
      "hit": false,
      "t": 52048.152000000075,
      "d": 722.8910000000033,
      "v": 86
    },
    {
      "midi": 59,
      "hit": false,
      "t": 52771.04300000008,
      "d": 722.8910000000033,
      "v": 71
    },
    {
      "midi": 62,
      "hit": false,
      "t": 52771.04300000008,
      "d": 722.8910000000033,
      "v": 82
    },
    {
      "midi": 55,
      "hit": false,
      "t": 53132.48850000003,
      "d": 722.8910000000033,
      "v": 74
    },
    {
      "midi": 59,
      "hit": false,
      "t": 53493.93400000008,
      "d": 722.8910000000033,
      "v": 76
    },
    {
      "midi": 64,
      "hit": false,
      "t": 53493.93400000008,
      "d": 722.8910000000033,
      "v": 92
    },
    {
      "midi": 55,
      "hit": false,
      "t": 53855.37950000003,
      "d": 361.44550000000163,
      "v": 73
    },
    {
      "midi": 55,
      "hit": false,
      "t": 54216.82500000003,
      "d": 722.8910000000033,
      "v": 77
    },
    {
      "midi": 59,
      "hit": false,
      "t": 54216.825000000084,
      "d": 722.8910000000033,
      "v": 82
    },
    {
      "midi": 62,
      "hit": false,
      "t": 54216.825000000084,
      "d": 722.8910000000033,
      "v": 80
    },
    {
      "midi": 42,
      "hit": false,
      "t": 54939.71600000004,
      "d": 2168.6730000000025,
      "v": 91
    },
    {
      "midi": 57,
      "hit": false,
      "t": 54939.71600000009,
      "d": 722.8910000000033,
      "v": 82
    },
    {
      "midi": 62,
      "hit": false,
      "t": 54939.71600000009,
      "d": 722.8910000000033,
      "v": 83
    },
    {
      "midi": 57,
      "hit": false,
      "t": 55662.60700000009,
      "d": 722.8910000000033,
      "v": 72
    },
    {
      "midi": 62,
      "hit": false,
      "t": 55662.60700000009,
      "d": 722.8910000000033,
      "v": 87
    },
    {
      "midi": 57,
      "hit": false,
      "t": 56385.498000000094,
      "d": 722.8910000000033,
      "v": 76
    },
    {
      "midi": 62,
      "hit": false,
      "t": 56385.498000000094,
      "d": 722.8910000000033,
      "v": 91
    },
    {
      "midi": 57,
      "hit": false,
      "t": 57108.3890000001,
      "d": 722.8910000000033,
      "v": 69
    },
    {
      "midi": 62,
      "hit": false,
      "t": 57108.3890000001,
      "d": 722.8910000000033,
      "v": 84
    },
    {
      "midi": 54,
      "hit": false,
      "t": 57469.83450000004,
      "d": 361.44550000000163,
      "v": 69
    },
    {
      "midi": 45,
      "hit": false,
      "t": 57831.28000000004,
      "d": 1445.7819999999992,
      "v": 91
    },
    {
      "midi": 57,
      "hit": false,
      "t": 57831.2800000001,
      "d": 722.8910000000033,
      "v": 72
    },
    {
      "midi": 60,
      "hit": false,
      "t": 57831.2800000001,
      "d": 722.8910000000033,
      "v": 74
    },
    {
      "midi": 64,
      "hit": false,
      "t": 57831.2800000001,
      "d": 722.8910000000033,
      "v": 84
    },
    {
      "midi": 57,
      "hit": false,
      "t": 58554.171000000104,
      "d": 722.8910000000033,
      "v": 72
    },
    {
      "midi": 60,
      "hit": false,
      "t": 58554.171000000104,
      "d": 722.8910000000033,
      "v": 74
    },
    {
      "midi": 64,
      "hit": false,
      "t": 58554.171000000104,
      "d": 722.8910000000033,
      "v": 84
    },
    {
      "midi": 57,
      "hit": false,
      "t": 59277.06200000004,
      "d": 722.8910000000033,
      "v": 76
    },
    {
      "midi": 60,
      "hit": false,
      "t": 59277.06200000011,
      "d": 722.8910000000033,
      "v": 78
    },
    {
      "midi": 64,
      "hit": false,
      "t": 59277.06200000011,
      "d": 722.8910000000033,
      "v": 90
    },
    {
      "midi": 57,
      "hit": false,
      "t": 59999.953000000045,
      "d": 722.8910000000033,
      "v": 81
    },
    {
      "midi": 60,
      "hit": false,
      "t": 59999.95300000011,
      "d": 722.8910000000033,
      "v": 84
    },
    {
      "midi": 64,
      "hit": false,
      "t": 59999.95300000011,
      "d": 722.8910000000033,
      "v": 81
    },
    {
      "midi": 44,
      "hit": false,
      "t": 60722.84400000005,
      "d": 1084.3364999999976,
      "v": 96
    },
    {
      "midi": 56,
      "hit": false,
      "t": 60722.844000000114,
      "d": 722.8910000000033,
      "v": 76
    },
    {
      "midi": 59,
      "hit": false,
      "t": 60722.844000000114,
      "d": 722.8910000000033,
      "v": 81
    },
    {
      "midi": 64,
      "hit": false,
      "t": 60722.844000000114,
      "d": 722.8910000000033,
      "v": 79
    },
    {
      "midi": 56,
      "hit": false,
      "t": 61445.73500000012,
      "d": 722.8910000000033,
      "v": 70
    },
    {
      "midi": 59,
      "hit": false,
      "t": 61445.73500000012,
      "d": 722.8910000000033,
      "v": 72
    },
    {
      "midi": 64,
      "hit": false,
      "t": 61445.73500000012,
      "d": 722.8910000000033,
      "v": 85
    },
    {
      "midi": 40,
      "hit": false,
      "t": 61807.180500000046,
      "d": 361.44550000000163,
      "v": 91
    },
    {
      "midi": 40,
      "hit": false,
      "t": 62168.62600000005,
      "d": 1445.7819999999992,
      "v": 94
    },
    {
      "midi": 56,
      "hit": false,
      "t": 62168.62600000012,
      "d": 722.8910000000033,
      "v": 73
    },
    {
      "midi": 59,
      "hit": false,
      "t": 62168.62600000012,
      "d": 722.8910000000033,
      "v": 76
    },
    {
      "midi": 64,
      "hit": false,
      "t": 62168.62600000012,
      "d": 722.8910000000033,
      "v": 90
    },
    {
      "midi": 56,
      "hit": false,
      "t": 62891.51700000012,
      "d": 722.8910000000033,
      "v": 71
    },
    {
      "midi": 59,
      "hit": false,
      "t": 62891.51700000012,
      "d": 722.8910000000033,
      "v": 73
    },
    {
      "midi": 64,
      "hit": false,
      "t": 62891.51700000012,
      "d": 722.8910000000033,
      "v": 88
    },
    {
      "midi": 43,
      "hit": false,
      "t": 63614.40800000005,
      "d": 1084.3364999999976,
      "v": 91
    },
    {
      "midi": 55,
      "hit": false,
      "t": 63614.40800000013,
      "d": 722.8910000000033,
      "v": 69
    },
    {
      "midi": 59,
      "hit": false,
      "t": 63614.40800000013,
      "d": 722.8910000000033,
      "v": 73
    },
    {
      "midi": 62,
      "hit": false,
      "t": 63614.40800000013,
      "d": 722.8910000000033,
      "v": 87
    },
    {
      "midi": 59,
      "hit": false,
      "t": 64337.29900000013,
      "d": 722.8910000000033,
      "v": 72
    },
    {
      "midi": 62,
      "hit": false,
      "t": 64337.29900000013,
      "d": 722.8910000000033,
      "v": 84
    },
    {
      "midi": 55,
      "hit": false,
      "t": 64698.744500000044,
      "d": 722.8910000000033,
      "v": 73
    },
    {
      "midi": 59,
      "hit": false,
      "t": 65060.19000000013,
      "d": 722.8910000000033,
      "v": 76
    },
    {
      "midi": 64,
      "hit": false,
      "t": 65060.19000000013,
      "d": 722.8910000000033,
      "v": 92
    },
    {
      "midi": 55,
      "hit": false,
      "t": 65421.63550000005,
      "d": 361.44550000000163,
      "v": 75
    },
    {
      "midi": 55,
      "hit": false,
      "t": 65783.08100000005,
      "d": 722.8910000000033,
      "v": 79
    },
    {
      "midi": 59,
      "hit": false,
      "t": 65783.08100000014,
      "d": 722.8910000000033,
      "v": 83
    },
    {
      "midi": 62,
      "hit": false,
      "t": 65783.08100000014,
      "d": 722.8910000000033,
      "v": 81
    },
    {
      "midi": 42,
      "hit": false,
      "t": 66505.97200000005,
      "d": 2891.5639999999985,
      "v": 91
    },
    {
      "midi": 57,
      "hit": false,
      "t": 66505.97200000014,
      "d": 722.8910000000033,
      "v": 81
    },
    {
      "midi": 62,
      "hit": false,
      "t": 66505.97200000014,
      "d": 722.8910000000033,
      "v": 82
    },
    {
      "midi": 57,
      "hit": false,
      "t": 67228.86300000014,
      "d": 722.8910000000033,
      "v": 72
    },
    {
      "midi": 62,
      "hit": false,
      "t": 67228.86300000014,
      "d": 722.8910000000033,
      "v": 86
    },
    {
      "midi": 57,
      "hit": false,
      "t": 67951.75400000015,
      "d": 722.8910000000033,
      "v": 76
    },
    {
      "midi": 62,
      "hit": false,
      "t": 67951.75400000015,
      "d": 722.8910000000033,
      "v": 90
    },
    {
      "midi": 57,
      "hit": false,
      "t": 68674.64500000015,
      "d": 722.8910000000033,
      "v": 72
    },
    {
      "midi": 62,
      "hit": false,
      "t": 68674.64500000015,
      "d": 722.8910000000033,
      "v": 91
    },
    {
      "midi": 41,
      "hit": false,
      "t": 69397.53600000005,
      "d": 1084.336500000005,
      "v": 91
    },
    {
      "midi": 53,
      "hit": false,
      "t": 69397.53600000015,
      "d": 722.8910000000033,
      "v": 66
    },
    {
      "midi": 57,
      "hit": false,
      "t": 69397.53600000015,
      "d": 722.8910000000033,
      "v": 84
    },
    {
      "midi": 57,
      "hit": false,
      "t": 70120.42700000016,
      "d": 722.8910000000033,
      "v": 69
    },
    {
      "midi": 60,
      "hit": false,
      "t": 70120.42700000016,
      "d": 722.8910000000033,
      "v": 85
    },
    {
      "midi": 53,
      "hit": false,
      "t": 70481.87250000006,
      "d": 722.8910000000033,
      "v": 69
    },
    {
      "midi": 57,
      "hit": false,
      "t": 70843.31800000016,
      "d": 722.8910000000033,
      "v": 73
    },
    {
      "midi": 62,
      "hit": false,
      "t": 70843.31800000016,
      "d": 722.8910000000033,
      "v": 92
    },
    {
      "midi": 53,
      "hit": false,
      "t": 71204.76350000006,
      "d": 722.8910000000033,
      "v": 71
    },
    {
      "midi": 57,
      "hit": false,
      "t": 71566.20900000016,
      "d": 722.8910000000033,
      "v": 69
    },
    {
      "midi": 60,
      "hit": false,
      "t": 71566.20900000016,
      "d": 722.8910000000033,
      "v": 86
    },
    {
      "midi": 53,
      "hit": false,
      "t": 71927.65450000006,
      "d": 361.44550000000163,
      "v": 67
    },
    {
      "midi": 42,
      "hit": false,
      "t": 72289.10000000006,
      "d": 361.44550000000163,
      "v": 91
    },
    {
      "midi": 57,
      "hit": false,
      "t": 72289.10000000017,
      "d": 722.8910000000033,
      "v": 68
    },
    {
      "midi": 62,
      "hit": false,
      "t": 72289.10000000017,
      "d": 722.8910000000033,
      "v": 85
    },
    {
      "midi": 54,
      "hit": false,
      "t": 72650.54550000007,
      "d": 722.8910000000033,
      "v": 69
    },
    {
      "midi": 57,
      "hit": false,
      "t": 73011.99100000017,
      "d": 722.8910000000033,
      "v": 69
    },
    {
      "midi": 62,
      "hit": false,
      "t": 73011.99100000017,
      "d": 722.8910000000033,
      "v": 87
    },
    {
      "midi": 54,
      "hit": false,
      "t": 73373.43650000007,
      "d": 361.44550000000163,
      "v": 73
    },
    {
      "midi": 54,
      "hit": false,
      "t": 73734.88200000007,
      "d": 722.8910000000033,
      "v": 71
    },
    {
      "midi": 57,
      "hit": false,
      "t": 73734.88200000017,
      "d": 722.8910000000033,
      "v": 74
    },
    {
      "midi": 64,
      "hit": false,
      "t": 73734.88200000017,
      "d": 722.8910000000033,
      "v": 93
    },
    {
      "midi": 54,
      "hit": false,
      "t": 74457.77300000007,
      "d": 361.44550000000163,
      "v": 55
    },
    {
      "midi": 57,
      "hit": false,
      "t": 74457.77300000018,
      "d": 722.8910000000033,
      "v": 59
    },
    {
      "midi": 62,
      "hit": false,
      "t": 74457.77300000018,
      "d": 722.8910000000033,
      "v": 76
    },
    {
      "midi": 54,
      "hit": false,
      "t": 74819.21850000008,
      "d": 361.44550000000163,
      "v": 58
    },
    {
      "midi": 41,
      "hit": false,
      "t": 75180.66400000008,
      "d": 1084.336500000005,
      "v": 91
    },
    {
      "midi": 53,
      "hit": false,
      "t": 75180.66400000018,
      "d": 722.8910000000033,
      "v": 66
    },
    {
      "midi": 57,
      "hit": false,
      "t": 75180.66400000018,
      "d": 722.8910000000033,
      "v": 84
    },
    {
      "midi": 57,
      "hit": false,
      "t": 75903.55500000018,
      "d": 722.8910000000033,
      "v": 69
    },
    {
      "midi": 60,
      "hit": false,
      "t": 75903.55500000018,
      "d": 722.8910000000033,
      "v": 86
    },
    {
      "midi": 53,
      "hit": false,
      "t": 76265.00050000008,
      "d": 722.8910000000033,
      "v": 72
    },
    {
      "midi": 57,
      "hit": false,
      "t": 76626.44600000019,
      "d": 722.8910000000033,
      "v": 73
    },
    {
      "midi": 62,
      "hit": false,
      "t": 76626.44600000019,
      "d": 722.8910000000033,
      "v": 91
    },
    {
      "midi": 53,
      "hit": false,
      "t": 76987.89150000009,
      "d": 722.8910000000033,
      "v": 70
    },
    {
      "midi": 57,
      "hit": false,
      "t": 77349.33700000019,
      "d": 722.8910000000033,
      "v": 70
    },
    {
      "midi": 60,
      "hit": false,
      "t": 77349.33700000019,
      "d": 722.8910000000033,
      "v": 87
    },
    {
      "midi": 53,
      "hit": false,
      "t": 77710.78250000009,
      "d": 361.44550000000163,
      "v": 68
    },
    {
      "midi": 42,
      "hit": false,
      "t": 78072.22800000009,
      "d": 361.44550000000163,
      "v": 96
    },
    {
      "midi": 57,
      "hit": false,
      "t": 78072.22800000019,
      "d": 722.8910000000033,
      "v": 70
    },
    {
      "midi": 62,
      "hit": false,
      "t": 78072.22800000019,
      "d": 722.8910000000033,
      "v": 87
    },
    {
      "midi": 54,
      "hit": false,
      "t": 78433.67350000009,
      "d": 722.8910000000033,
      "v": 69
    },
    {
      "midi": 57,
      "hit": false,
      "t": 78795.1190000002,
      "d": 722.8910000000033,
      "v": 69
    },
    {
      "midi": 62,
      "hit": false,
      "t": 78795.1190000002,
      "d": 722.8910000000033,
      "v": 88
    },
    {
      "midi": 54,
      "hit": false,
      "t": 79156.5645000001,
      "d": 361.44550000000163,
      "v": 72
    },
    {
      "midi": 44,
      "hit": false,
      "t": 79518.0100000001,
      "d": 361.44550000000163,
      "v": 94
    },
    {
      "midi": 59,
      "hit": false,
      "t": 79518.0100000002,
      "d": 722.8910000000033,
      "v": 76
    },
    {
      "midi": 64,
      "hit": false,
      "t": 79518.0100000002,
      "d": 722.8910000000033,
      "v": 92
    },
    {
      "midi": 56,
      "hit": false,
      "t": 79879.4555000001,
      "d": 722.8910000000033,
      "v": 76
    },
    {
      "midi": 59,
      "hit": false,
      "t": 80240.9010000002,
      "d": 722.8910000000033,
      "v": 73
    },
    {
      "midi": 64,
      "hit": false,
      "t": 80240.9010000002,
      "d": 722.8910000000033,
      "v": 88
    },
    {
      "midi": 56,
      "hit": false,
      "t": 80602.3465000001,
      "d": 361.44550000000163,
      "v": 72
    },
    {
      "midi": 45,
      "hit": false,
      "t": 80963.7920000001,
      "d": 1445.7820000000065,
      "v": 91
    },
    {
      "midi": 57,
      "hit": false,
      "t": 80963.7920000002,
      "d": 722.8910000000033,
      "v": 73
    },
    {
      "midi": 60,
      "hit": false,
      "t": 80963.7920000002,
      "d": 722.8910000000033,
      "v": 75
    },
    {
      "midi": 64,
      "hit": false,
      "t": 80963.7920000002,
      "d": 722.8910000000033,
      "v": 85
    },
    {
      "midi": 57,
      "hit": false,
      "t": 81686.68300000021,
      "d": 722.8910000000033,
      "v": 72
    },
    {
      "midi": 60,
      "hit": false,
      "t": 81686.68300000021,
      "d": 722.8910000000033,
      "v": 74
    },
    {
      "midi": 64,
      "hit": false,
      "t": 81686.68300000021,
      "d": 722.8910000000033,
      "v": 86
    },
    {
      "midi": 57,
      "hit": false,
      "t": 82409.57400000011,
      "d": 722.8910000000033,
      "v": 76
    },
    {
      "midi": 60,
      "hit": false,
      "t": 82409.57400000021,
      "d": 722.8910000000033,
      "v": 78
    },
    {
      "midi": 64,
      "hit": false,
      "t": 82409.57400000021,
      "d": 722.8910000000033,
      "v": 89
    },
    {
      "midi": 57,
      "hit": false,
      "t": 83132.46500000011,
      "d": 722.8910000000033,
      "v": 82
    },
    {
      "midi": 60,
      "hit": false,
      "t": 83132.46500000021,
      "d": 722.8910000000033,
      "v": 85
    },
    {
      "midi": 64,
      "hit": false,
      "t": 83132.46500000021,
      "d": 722.8910000000033,
      "v": 82
    },
    {
      "midi": 44,
      "hit": false,
      "t": 83855.35600000012,
      "d": 1445.7820000000065,
      "v": 91
    },
    {
      "midi": 56,
      "hit": false,
      "t": 83855.35600000022,
      "d": 722.8910000000033,
      "v": 79
    },
    {
      "midi": 59,
      "hit": false,
      "t": 83855.35600000022,
      "d": 722.8910000000033,
      "v": 83
    },
    {
      "midi": 64,
      "hit": false,
      "t": 83855.35600000022,
      "d": 722.8910000000033,
      "v": 81
    },
    {
      "midi": 56,
      "hit": false,
      "t": 84578.24700000022,
      "d": 722.8910000000033,
      "v": 71
    },
    {
      "midi": 59,
      "hit": false,
      "t": 84578.24700000022,
      "d": 722.8910000000033,
      "v": 73
    },
    {
      "midi": 64,
      "hit": false,
      "t": 84578.24700000022,
      "d": 722.8910000000033,
      "v": 85
    },
    {
      "midi": 56,
      "hit": false,
      "t": 85301.13800000012,
      "d": 722.8910000000033,
      "v": 75
    },
    {
      "midi": 59,
      "hit": false,
      "t": 85301.13800000022,
      "d": 722.8910000000033,
      "v": 77
    },
    {
      "midi": 64,
      "hit": false,
      "t": 85301.13800000022,
      "d": 722.8910000000033,
      "v": 89
    },
    {
      "midi": 56,
      "hit": false,
      "t": 86024.02900000013,
      "d": 361.44550000000163,
      "v": 58
    },
    {
      "midi": 59,
      "hit": false,
      "t": 86024.02900000023,
      "d": 722.8910000000033,
      "v": 62
    },
    {
      "midi": 64,
      "hit": false,
      "t": 86024.02900000023,
      "d": 722.8910000000033,
      "v": 72
    },
    {
      "midi": 56,
      "hit": false,
      "t": 86385.47450000013,
      "d": 361.44550000000163,
      "v": 63
    },
    {
      "midi": 43,
      "hit": false,
      "t": 86746.92000000013,
      "d": 2891.5639999999985,
      "v": 91
    },
    {
      "midi": 55,
      "hit": false,
      "t": 86746.92000000023,
      "d": 722.8910000000033,
      "v": 69
    },
    {
      "midi": 59,
      "hit": false,
      "t": 86746.92000000023,
      "d": 722.8910000000033,
      "v": 74
    },
    {
      "midi": 62,
      "hit": false,
      "t": 86746.92000000023,
      "d": 722.8910000000033,
      "v": 84
    },
    {
      "midi": 55,
      "hit": false,
      "t": 87469.81100000023,
      "d": 722.8910000000033,
      "v": 68
    },
    {
      "midi": 59,
      "hit": false,
      "t": 87469.81100000023,
      "d": 722.8910000000033,
      "v": 73
    },
    {
      "midi": 62,
      "hit": false,
      "t": 87469.81100000023,
      "d": 722.8910000000033,
      "v": 85
    },
    {
      "midi": 55,
      "hit": false,
      "t": 88192.70200000024,
      "d": 722.8910000000033,
      "v": 71
    },
    {
      "midi": 59,
      "hit": false,
      "t": 88192.70200000024,
      "d": 722.8910000000033,
      "v": 77
    },
    {
      "midi": 62,
      "hit": false,
      "t": 88192.70200000024,
      "d": 722.8910000000033,
      "v": 88
    },
    {
      "midi": 55,
      "hit": false,
      "t": 88915.59300000024,
      "d": 722.8910000000033,
      "v": 78
    },
    {
      "midi": 59,
      "hit": false,
      "t": 88915.59300000024,
      "d": 722.8910000000033,
      "v": 83
    },
    {
      "midi": 62,
      "hit": false,
      "t": 88915.59300000024,
      "d": 722.8910000000033,
      "v": 80
    },
    {
      "midi": 42,
      "hit": false,
      "t": 89638.48400000013,
      "d": 2168.672999999995,
      "v": 91
    },
    {
      "midi": 54,
      "hit": false,
      "t": 89638.48400000024,
      "d": 722.8910000000033,
      "v": 75
    },
    {
      "midi": 57,
      "hit": false,
      "t": 89638.48400000024,
      "d": 722.8910000000033,
      "v": 79
    },
    {
      "midi": 62,
      "hit": false,
      "t": 89638.48400000024,
      "d": 722.8910000000033,
      "v": 79
    },
    {
      "midi": 54,
      "hit": false,
      "t": 90361.37500000025,
      "d": 722.8910000000033,
      "v": 66
    },
    {
      "midi": 57,
      "hit": false,
      "t": 90361.37500000025,
      "d": 722.8910000000033,
      "v": 70
    },
    {
      "midi": 62,
      "hit": false,
      "t": 90361.37500000025,
      "d": 722.8910000000033,
      "v": 83
    },
    {
      "midi": 54,
      "hit": false,
      "t": 91084.26600000025,
      "d": 722.8910000000033,
      "v": 71
    },
    {
      "midi": 57,
      "hit": false,
      "t": 91084.26600000025,
      "d": 722.8910000000033,
      "v": 74
    },
    {
      "midi": 62,
      "hit": false,
      "t": 91084.26600000025,
      "d": 722.8910000000033,
      "v": 87
    },
    {
      "midi": 38,
      "hit": false,
      "t": 91807.15700000012,
      "d": 361.44550000000163,
      "v": 80
    },
    {
      "midi": 54,
      "hit": false,
      "t": 91807.15700000025,
      "d": 361.44550000000163,
      "v": 54
    },
    {
      "midi": 57,
      "hit": false,
      "t": 91807.15700000025,
      "d": 361.44550000000163,
      "v": 59
    },
    {
      "midi": 62,
      "hit": false,
      "t": 91807.15700000025,
      "d": 361.44550000000163,
      "v": 76
    },
    {
      "midi": 38,
      "hit": false,
      "t": 92168.60250000012,
      "d": 361.44550000000163,
      "v": 79
    },
    {
      "midi": 54,
      "hit": false,
      "t": 92168.60250000026,
      "d": 361.44550000000163,
      "v": 53
    },
    {
      "midi": 57,
      "hit": false,
      "t": 92168.60250000026,
      "d": 361.44550000000163,
      "v": 68
    },
    {
      "midi": 45,
      "hit": false,
      "t": 92530.04800000013,
      "d": 1445.7820000000065,
      "v": 91
    },
    {
      "midi": 57,
      "hit": false,
      "t": 92530.04800000026,
      "d": 722.8910000000033,
      "v": 73
    },
    {
      "midi": 60,
      "hit": false,
      "t": 92530.04800000026,
      "d": 722.8910000000033,
      "v": 74
    },
    {
      "midi": 64,
      "hit": false,
      "t": 92530.04800000026,
      "d": 722.8910000000033,
      "v": 88
    },
    {
      "midi": 57,
      "hit": false,
      "t": 93252.93900000026,
      "d": 722.8910000000033,
      "v": 72
    },
    {
      "midi": 60,
      "hit": false,
      "t": 93252.93900000026,
      "d": 722.8910000000033,
      "v": 74
    },
    {
      "midi": 64,
      "hit": false,
      "t": 93252.93900000026,
      "d": 722.8910000000033,
      "v": 85
    },
    {
      "midi": 57,
      "hit": false,
      "t": 93975.83000000013,
      "d": 722.8910000000033,
      "v": 76
    },
    {
      "midi": 60,
      "hit": false,
      "t": 93975.83000000026,
      "d": 722.8910000000033,
      "v": 78
    },
    {
      "midi": 64,
      "hit": false,
      "t": 93975.83000000026,
      "d": 722.8910000000033,
      "v": 89
    },
    {
      "midi": 57,
      "hit": false,
      "t": 94698.72100000014,
      "d": 722.8910000000033,
      "v": 82
    },
    {
      "midi": 60,
      "hit": false,
      "t": 94698.72100000027,
      "d": 722.8910000000033,
      "v": 85
    },
    {
      "midi": 64,
      "hit": false,
      "t": 94698.72100000027,
      "d": 722.8910000000033,
      "v": 82
    },
    {
      "midi": 44,
      "hit": false,
      "t": 95421.61200000014,
      "d": 1445.7820000000065,
      "v": 91
    },
    {
      "midi": 56,
      "hit": false,
      "t": 95421.61200000027,
      "d": 722.8910000000033,
      "v": 76
    },
    {
      "midi": 59,
      "hit": false,
      "t": 95421.61200000027,
      "d": 722.8910000000033,
      "v": 80
    },
    {
      "midi": 64,
      "hit": false,
      "t": 95421.61200000027,
      "d": 722.8910000000033,
      "v": 79
    },
    {
      "midi": 56,
      "hit": false,
      "t": 96144.50300000027,
      "d": 722.8910000000033,
      "v": 70
    },
    {
      "midi": 59,
      "hit": false,
      "t": 96144.50300000027,
      "d": 722.8910000000033,
      "v": 72
    },
    {
      "midi": 64,
      "hit": false,
      "t": 96144.50300000027,
      "d": 722.8910000000033,
      "v": 84
    },
    {
      "midi": 56,
      "hit": false,
      "t": 96867.39400000015,
      "d": 722.8910000000033,
      "v": 73
    },
    {
      "midi": 59,
      "hit": false,
      "t": 96867.39400000028,
      "d": 722.8910000000033,
      "v": 76
    },
    {
      "midi": 64,
      "hit": false,
      "t": 96867.39400000028,
      "d": 722.8910000000033,
      "v": 90
    },
    {
      "midi": 56,
      "hit": false,
      "t": 97590.28500000015,
      "d": 361.44550000000163,
      "v": 56
    },
    {
      "midi": 59,
      "hit": false,
      "t": 97590.28500000028,
      "d": 361.44550000000163,
      "v": 61
    },
    {
      "midi": 64,
      "hit": false,
      "t": 97590.28500000028,
      "d": 361.44550000000163,
      "v": 76
    },
    {
      "midi": 56,
      "hit": false,
      "t": 97951.73050000015,
      "d": 361.44550000000163,
      "v": 55
    },
    {
      "midi": 59,
      "hit": false,
      "t": 97951.73050000028,
      "d": 361.44550000000163,
      "v": 71
    },
    {
      "midi": 43,
      "hit": false,
      "t": 98313.17600000015,
      "d": 2891.5639999999985,
      "v": 91
    },
    {
      "midi": 55,
      "hit": false,
      "t": 98313.17600000028,
      "d": 722.8910000000033,
      "v": 69
    },
    {
      "midi": 59,
      "hit": false,
      "t": 98313.17600000028,
      "d": 722.8910000000033,
      "v": 73
    },
    {
      "midi": 62,
      "hit": false,
      "t": 98313.17600000028,
      "d": 722.8910000000033,
      "v": 87
    },
    {
      "midi": 55,
      "hit": false,
      "t": 99036.06700000029,
      "d": 722.8910000000033,
      "v": 69
    },
    {
      "midi": 59,
      "hit": false,
      "t": 99036.06700000029,
      "d": 722.8910000000033,
      "v": 73
    },
    {
      "midi": 62,
      "hit": false,
      "t": 99036.06700000029,
      "d": 722.8910000000033,
      "v": 84
    },
    {
      "midi": 55,
      "hit": false,
      "t": 99758.95800000029,
      "d": 722.8910000000033,
      "v": 72
    },
    {
      "midi": 59,
      "hit": false,
      "t": 99758.95800000029,
      "d": 722.8910000000033,
      "v": 77
    },
    {
      "midi": 62,
      "hit": false,
      "t": 99758.95800000029,
      "d": 722.8910000000033,
      "v": 88
    },
    {
      "midi": 55,
      "hit": false,
      "t": 100481.8490000003,
      "d": 722.8910000000033,
      "v": 78
    },
    {
      "midi": 59,
      "hit": false,
      "t": 100481.8490000003,
      "d": 722.8910000000033,
      "v": 83
    },
    {
      "midi": 62,
      "hit": false,
      "t": 100481.8490000003,
      "d": 722.8910000000033,
      "v": 81
    },
    {
      "midi": 42,
      "hit": false,
      "t": 101204.74000000015,
      "d": 2168.672999999995,
      "v": 91
    },
    {
      "midi": 54,
      "hit": false,
      "t": 101204.7400000003,
      "d": 722.8910000000033,
      "v": 76
    },
    {
      "midi": 57,
      "hit": false,
      "t": 101204.7400000003,
      "d": 722.8910000000033,
      "v": 81
    },
    {
      "midi": 62,
      "hit": false,
      "t": 101204.7400000003,
      "d": 722.8910000000033,
      "v": 81
    },
    {
      "midi": 54,
      "hit": false,
      "t": 101927.6310000003,
      "d": 722.8910000000033,
      "v": 67
    },
    {
      "midi": 57,
      "hit": false,
      "t": 101927.6310000003,
      "d": 722.8910000000033,
      "v": 70
    },
    {
      "midi": 62,
      "hit": false,
      "t": 101927.6310000003,
      "d": 722.8910000000033,
      "v": 84
    },
    {
      "midi": 54,
      "hit": false,
      "t": 102650.5220000003,
      "d": 722.8910000000033,
      "v": 70
    },
    {
      "midi": 57,
      "hit": false,
      "t": 102650.5220000003,
      "d": 722.8910000000033,
      "v": 73
    },
    {
      "midi": 62,
      "hit": false,
      "t": 102650.5220000003,
      "d": 722.8910000000033,
      "v": 88
    },
    {
      "midi": 38,
      "hit": false,
      "t": 103373.41300000015,
      "d": 361.44550000000163,
      "v": 80
    },
    {
      "midi": 54,
      "hit": false,
      "t": 103373.4130000003,
      "d": 361.44550000000163,
      "v": 56
    },
    {
      "midi": 57,
      "hit": false,
      "t": 103373.4130000003,
      "d": 361.44550000000163,
      "v": 60
    },
    {
      "midi": 62,
      "hit": false,
      "t": 103373.4130000003,
      "d": 361.44550000000163,
      "v": 76
    },
    {
      "midi": 38,
      "hit": false,
      "t": 103734.85850000015,
      "d": 361.44550000000163,
      "v": 79
    },
    {
      "midi": 54,
      "hit": false,
      "t": 103734.85850000031,
      "d": 361.44550000000163,
      "v": 53
    },
    {
      "midi": 57,
      "hit": false,
      "t": 103734.85850000031,
      "d": 361.44550000000163,
      "v": 69
    },
    {
      "midi": 45,
      "hit": false,
      "t": 104096.30400000015,
      "d": 1445.7820000000065,
      "v": 91
    },
    {
      "midi": 57,
      "hit": false,
      "t": 104096.30400000031,
      "d": 722.8910000000033,
      "v": 73
    },
    {
      "midi": 60,
      "hit": false,
      "t": 104096.30400000031,
      "d": 722.8910000000033,
      "v": 75
    },
    {
      "midi": 64,
      "hit": false,
      "t": 104096.30400000031,
      "d": 722.8910000000033,
      "v": 89
    },
    {
      "midi": 57,
      "hit": false,
      "t": 104819.19500000031,
      "d": 722.8910000000033,
      "v": 72
    },
    {
      "midi": 60,
      "hit": false,
      "t": 104819.19500000031,
      "d": 722.8910000000033,
      "v": 74
    },
    {
      "midi": 64,
      "hit": false,
      "t": 104819.19500000031,
      "d": 722.8910000000033,
      "v": 85
    },
    {
      "midi": 57,
      "hit": false,
      "t": 105542.08600000016,
      "d": 722.8910000000033,
      "v": 75
    },
    {
      "midi": 60,
      "hit": false,
      "t": 105542.08600000032,
      "d": 722.8910000000033,
      "v": 78
    },
    {
      "midi": 64,
      "hit": false,
      "t": 105542.08600000032,
      "d": 722.8910000000033,
      "v": 89
    },
    {
      "midi": 57,
      "hit": false,
      "t": 106264.97700000016,
      "d": 722.8910000000033,
      "v": 82
    },
    {
      "midi": 60,
      "hit": false,
      "t": 106264.97700000032,
      "d": 722.8910000000033,
      "v": 85
    },
    {
      "midi": 64,
      "hit": false,
      "t": 106264.97700000032,
      "d": 722.8910000000033,
      "v": 82
    },
    {
      "midi": 44,
      "hit": false,
      "t": 106987.86800000016,
      "d": 1084.336500000005,
      "v": 96
    },
    {
      "midi": 56,
      "hit": false,
      "t": 106987.86800000032,
      "d": 722.8910000000033,
      "v": 80
    },
    {
      "midi": 59,
      "hit": false,
      "t": 106987.86800000032,
      "d": 722.8910000000033,
      "v": 82
    },
    {
      "midi": 64,
      "hit": false,
      "t": 106987.86800000032,
      "d": 722.8910000000033,
      "v": 81
    },
    {
      "midi": 56,
      "hit": false,
      "t": 107710.75900000033,
      "d": 722.8910000000033,
      "v": 69
    },
    {
      "midi": 59,
      "hit": false,
      "t": 107710.75900000033,
      "d": 722.8910000000033,
      "v": 73
    },
    {
      "midi": 64,
      "hit": false,
      "t": 107710.75900000033,
      "d": 722.8910000000033,
      "v": 85
    },
    {
      "midi": 40,
      "hit": false,
      "t": 108072.20450000017,
      "d": 361.44550000000163,
      "v": 91
    },
    {
      "midi": 40,
      "hit": false,
      "t": 108433.65000000017,
      "d": 1445.7820000000065,
      "v": 94
    },
    {
      "midi": 56,
      "hit": false,
      "t": 108433.65000000033,
      "d": 722.8910000000033,
      "v": 73
    },
    {
      "midi": 59,
      "hit": false,
      "t": 108433.65000000033,
      "d": 722.8910000000033,
      "v": 77
    },
    {
      "midi": 64,
      "hit": false,
      "t": 108433.65000000033,
      "d": 722.8910000000033,
      "v": 90
    },
    {
      "midi": 56,
      "hit": false,
      "t": 109156.54100000033,
      "d": 722.8910000000033,
      "v": 69
    },
    {
      "midi": 59,
      "hit": false,
      "t": 109156.54100000033,
      "d": 722.8910000000033,
      "v": 73
    },
    {
      "midi": 64,
      "hit": false,
      "t": 109156.54100000033,
      "d": 722.8910000000033,
      "v": 89
    },
    {
      "midi": 43,
      "hit": false,
      "t": 109879.43200000018,
      "d": 1084.336500000005,
      "v": 91
    },
    {
      "midi": 55,
      "hit": false,
      "t": 109879.43200000034,
      "d": 722.8910000000033,
      "v": 67
    },
    {
      "midi": 59,
      "hit": false,
      "t": 109879.43200000034,
      "d": 722.8910000000033,
      "v": 71
    },
    {
      "midi": 62,
      "hit": false,
      "t": 109879.43200000034,
      "d": 722.8910000000033,
      "v": 84
    },
    {
      "midi": 59,
      "hit": false,
      "t": 110602.32300000034,
      "d": 722.8910000000033,
      "v": 71
    },
    {
      "midi": 62,
      "hit": false,
      "t": 110602.32300000034,
      "d": 722.8910000000033,
      "v": 83
    },
    {
      "midi": 55,
      "hit": false,
      "t": 110963.76850000018,
      "d": 722.8910000000033,
      "v": 75
    },
    {
      "midi": 59,
      "hit": false,
      "t": 111325.21400000034,
      "d": 722.8910000000033,
      "v": 74
    },
    {
      "midi": 64,
      "hit": false,
      "t": 111325.21400000034,
      "d": 722.8910000000033,
      "v": 92
    },
    {
      "midi": 55,
      "hit": false,
      "t": 111686.65950000018,
      "d": 361.44550000000163,
      "v": 74
    },
    {
      "midi": 55,
      "hit": false,
      "t": 112048.10500000019,
      "d": 722.8910000000033,
      "v": 77
    },
    {
      "midi": 59,
      "hit": false,
      "t": 112048.10500000035,
      "d": 722.8910000000033,
      "v": 82
    },
    {
      "midi": 62,
      "hit": false,
      "t": 112048.10500000035,
      "d": 722.8910000000033,
      "v": 80
    },
    {
      "midi": 42,
      "hit": false,
      "t": 112770.99600000019,
      "d": 2168.672999999995,
      "v": 91
    },
    {
      "midi": 57,
      "hit": false,
      "t": 112770.99600000035,
      "d": 722.8910000000033,
      "v": 79
    },
    {
      "midi": 62,
      "hit": false,
      "t": 112770.99600000035,
      "d": 722.8910000000033,
      "v": 81
    },
    {
      "midi": 57,
      "hit": false,
      "t": 113493.88700000035,
      "d": 722.8910000000033,
      "v": 71
    },
    {
      "midi": 62,
      "hit": false,
      "t": 113493.88700000035,
      "d": 722.8910000000033,
      "v": 86
    },
    {
      "midi": 57,
      "hit": false,
      "t": 114216.77800000035,
      "d": 722.8910000000033,
      "v": 76
    },
    {
      "midi": 62,
      "hit": false,
      "t": 114216.77800000035,
      "d": 722.8910000000033,
      "v": 91
    },
    {
      "midi": 57,
      "hit": false,
      "t": 114939.66900000036,
      "d": 722.8910000000033,
      "v": 70
    },
    {
      "midi": 62,
      "hit": false,
      "t": 114939.66900000036,
      "d": 722.8910000000033,
      "v": 83
    },
    {
      "midi": 54,
      "hit": false,
      "t": 115301.11450000019,
      "d": 361.44550000000163,
      "v": 68
    },
    {
      "midi": 45,
      "hit": false,
      "t": 115662.56000000019,
      "d": 1445.7820000000065,
      "v": 91
    },
    {
      "midi": 57,
      "hit": false,
      "t": 115662.56000000036,
      "d": 722.8910000000033,
      "v": 73
    },
    {
      "midi": 60,
      "hit": false,
      "t": 115662.56000000036,
      "d": 722.8910000000033,
      "v": 75
    },
    {
      "midi": 64,
      "hit": false,
      "t": 115662.56000000036,
      "d": 722.8910000000033,
      "v": 85
    },
    {
      "midi": 57,
      "hit": false,
      "t": 116385.45100000036,
      "d": 722.8910000000033,
      "v": 72
    },
    {
      "midi": 60,
      "hit": false,
      "t": 116385.45100000036,
      "d": 722.8910000000033,
      "v": 74
    },
    {
      "midi": 64,
      "hit": false,
      "t": 116385.45100000036,
      "d": 722.8910000000033,
      "v": 85
    },
    {
      "midi": 57,
      "hit": false,
      "t": 117108.3420000002,
      "d": 722.8910000000033,
      "v": 74
    },
    {
      "midi": 60,
      "hit": false,
      "t": 117108.34200000037,
      "d": 722.8910000000033,
      "v": 78
    },
    {
      "midi": 64,
      "hit": false,
      "t": 117108.34200000037,
      "d": 722.8910000000033,
      "v": 89
    },
    {
      "midi": 57,
      "hit": false,
      "t": 117831.2330000002,
      "d": 722.8910000000033,
      "v": 82
    },
    {
      "midi": 60,
      "hit": false,
      "t": 117831.23300000037,
      "d": 722.8910000000033,
      "v": 85
    },
    {
      "midi": 64,
      "hit": false,
      "t": 117831.23300000037,
      "d": 722.8910000000033,
      "v": 82
    },
    {
      "midi": 44,
      "hit": false,
      "t": 118554.1240000002,
      "d": 1084.336500000005,
      "v": 96
    },
    {
      "midi": 56,
      "hit": false,
      "t": 118554.12400000037,
      "d": 722.8910000000033,
      "v": 80
    },
    {
      "midi": 59,
      "hit": false,
      "t": 118554.12400000037,
      "d": 722.8910000000033,
      "v": 83
    },
    {
      "midi": 64,
      "hit": false,
      "t": 118554.12400000037,
      "d": 722.8910000000033,
      "v": 82
    },
    {
      "midi": 56,
      "hit": false,
      "t": 119277.01500000038,
      "d": 722.8910000000033,
      "v": 71
    },
    {
      "midi": 59,
      "hit": false,
      "t": 119277.01500000038,
      "d": 722.8910000000033,
      "v": 73
    },
    {
      "midi": 64,
      "hit": false,
      "t": 119277.01500000038,
      "d": 722.8910000000033,
      "v": 85
    },
    {
      "midi": 40,
      "hit": false,
      "t": 119638.4605000002,
      "d": 361.44550000000163,
      "v": 91
    },
    {
      "midi": 40,
      "hit": false,
      "t": 119999.9060000002,
      "d": 1445.7820000000065,
      "v": 94
    },
    {
      "midi": 56,
      "hit": false,
      "t": 119999.90600000038,
      "d": 722.8910000000033,
      "v": 74
    },
    {
      "midi": 59,
      "hit": false,
      "t": 119999.90600000038,
      "d": 722.8910000000033,
      "v": 77
    },
    {
      "midi": 64,
      "hit": false,
      "t": 119999.90600000038,
      "d": 722.8910000000033,
      "v": 89
    },
    {
      "midi": 56,
      "hit": false,
      "t": 120722.79700000038,
      "d": 722.8910000000033,
      "v": 69
    },
    {
      "midi": 59,
      "hit": false,
      "t": 120722.79700000038,
      "d": 722.8910000000033,
      "v": 73
    },
    {
      "midi": 64,
      "hit": false,
      "t": 120722.79700000038,
      "d": 722.8910000000033,
      "v": 89
    },
    {
      "midi": 43,
      "hit": false,
      "t": 121445.68800000021,
      "d": 1084.336500000005,
      "v": 91
    },
    {
      "midi": 55,
      "hit": false,
      "t": 121445.68800000039,
      "d": 722.8910000000033,
      "v": 68
    },
    {
      "midi": 59,
      "hit": false,
      "t": 121445.68800000039,
      "d": 722.8910000000033,
      "v": 73
    },
    {
      "midi": 62,
      "hit": false,
      "t": 121445.68800000039,
      "d": 722.8910000000033,
      "v": 88
    },
    {
      "midi": 59,
      "hit": false,
      "t": 122168.57900000039,
      "d": 722.8910000000033,
      "v": 73
    },
    {
      "midi": 62,
      "hit": false,
      "t": 122168.57900000039,
      "d": 722.8910000000033,
      "v": 83
    },
    {
      "midi": 55,
      "hit": false,
      "t": 122530.02450000022,
      "d": 722.8910000000033,
      "v": 73
    },
    {
      "midi": 59,
      "hit": false,
      "t": 122891.4700000004,
      "d": 722.8910000000033,
      "v": 76
    },
    {
      "midi": 64,
      "hit": false,
      "t": 122891.4700000004,
      "d": 722.8910000000033,
      "v": 92
    },
    {
      "midi": 55,
      "hit": false,
      "t": 123252.91550000022,
      "d": 361.44550000000163,
      "v": 73
    },
    {
      "midi": 55,
      "hit": false,
      "t": 123614.36100000022,
      "d": 722.8910000000033,
      "v": 78
    },
    {
      "midi": 59,
      "hit": false,
      "t": 123614.3610000004,
      "d": 722.8910000000033,
      "v": 83
    },
    {
      "midi": 62,
      "hit": false,
      "t": 123614.3610000004,
      "d": 722.8910000000033,
      "v": 80
    },
    {
      "midi": 42,
      "hit": false,
      "t": 124337.25200000023,
      "d": 2891.5639999999985,
      "v": 91
    },
    {
      "midi": 57,
      "hit": false,
      "t": 124337.2520000004,
      "d": 722.8910000000033,
      "v": 81
    },
    {
      "midi": 62,
      "hit": false,
      "t": 124337.2520000004,
      "d": 722.8910000000033,
      "v": 83
    },
    {
      "midi": 57,
      "hit": false,
      "t": 125060.1430000004,
      "d": 722.8910000000033,
      "v": 72
    },
    {
      "midi": 62,
      "hit": false,
      "t": 125060.1430000004,
      "d": 722.8910000000033,
      "v": 87
    },
    {
      "midi": 57,
      "hit": false,
      "t": 125783.0340000004,
      "d": 722.8910000000033,
      "v": 76
    },
    {
      "midi": 62,
      "hit": false,
      "t": 125783.0340000004,
      "d": 722.8910000000033,
      "v": 91
    },
    {
      "midi": 57,
      "hit": false,
      "t": 126505.92500000041,
      "d": 722.8910000000033,
      "v": 72
    },
    {
      "midi": 62,
      "hit": false,
      "t": 126505.92500000041,
      "d": 722.8910000000033,
      "v": 91
    },
    {
      "midi": 41,
      "hit": false,
      "t": 127228.81600000022,
      "d": 1084.336500000005,
      "v": 96
    },
    {
      "midi": 53,
      "hit": false,
      "t": 127228.81600000041,
      "d": 722.8910000000033,
      "v": 65
    },
    {
      "midi": 57,
      "hit": false,
      "t": 127228.81600000041,
      "d": 722.8910000000033,
      "v": 83
    },
    {
      "midi": 57,
      "hit": false,
      "t": 127951.70700000042,
      "d": 361.44550000000163,
      "v": 69
    },
    {
      "midi": 60,
      "hit": false,
      "t": 127951.70700000042,
      "d": 361.44550000000163,
      "v": 86
    },
    {
      "midi": 41,
      "hit": false,
      "t": 128313.15250000023,
      "d": 361.44550000000163,
      "v": 91
    },
    {
      "midi": 53,
      "hit": false,
      "t": 128313.15250000042,
      "d": 361.44550000000163,
      "v": 69
    },
    {
      "midi": 41,
      "hit": false,
      "t": 128674.59800000023,
      "d": 361.44550000000163,
      "v": 94
    },
    {
      "midi": 57,
      "hit": false,
      "t": 128674.59800000042,
      "d": 722.8910000000033,
      "v": 73
    },
    {
      "midi": 62,
      "hit": false,
      "t": 128674.59800000042,
      "d": 722.8910000000033,
      "v": 92
    },
    {
      "midi": 53,
      "hit": false,
      "t": 129036.04350000023,
      "d": 361.44550000000163,
      "v": 70
    },
    {
      "midi": 41,
      "hit": false,
      "t": 129397.48900000023,
      "d": 361.44550000000163,
      "v": 80
    },
    {
      "midi": 57,
      "hit": false,
      "t": 129397.48900000042,
      "d": 361.44550000000163,
      "v": 70
    },
    {
      "midi": 60,
      "hit": false,
      "t": 129397.48900000042,
      "d": 361.44550000000163,
      "v": 86
    },
    {
      "midi": 41,
      "hit": false,
      "t": 129758.93450000024,
      "d": 361.44550000000163,
      "v": 79
    },
    {
      "midi": 53,
      "hit": false,
      "t": 129758.93450000043,
      "d": 361.44550000000163,
      "v": 66
    },
    {
      "midi": 42,
      "hit": false,
      "t": 130120.38000000024,
      "d": 361.44550000000163,
      "v": 96
    },
    {
      "midi": 57,
      "hit": false,
      "t": 130120.38000000043,
      "d": 722.8910000000033,
      "v": 71
    },
    {
      "midi": 62,
      "hit": false,
      "t": 130120.38000000043,
      "d": 722.8910000000033,
      "v": 87
    },
    {
      "midi": 54,
      "hit": false,
      "t": 130481.82550000024,
      "d": 722.8910000000033,
      "v": 70
    },
    {
      "midi": 57,
      "hit": false,
      "t": 130843.27100000043,
      "d": 361.4454999999871,
      "v": 70
    },
    {
      "midi": 62,
      "hit": false,
      "t": 130843.27100000043,
      "d": 361.4454999999871,
      "v": 87
    },
    {
      "midi": 42,
      "hit": false,
      "t": 131204.71650000024,
      "d": 361.44550000000163,
      "v": 91
    },
    {
      "midi": 54,
      "hit": false,
      "t": 131204.71650000042,
      "d": 361.44550000000163,
      "v": 73
    },
    {
      "midi": 42,
      "hit": false,
      "t": 131566.16200000024,
      "d": 361.44550000000163,
      "v": 94
    },
    {
      "midi": 57,
      "hit": false,
      "t": 131566.16200000042,
      "d": 722.8910000000033,
      "v": 73
    },
    {
      "midi": 64,
      "hit": false,
      "t": 131566.16200000042,
      "d": 722.8910000000033,
      "v": 93
    },
    {
      "midi": 54,
      "hit": false,
      "t": 131927.60750000025,
      "d": 361.44550000000163,
      "v": 73
    },
    {
      "midi": 42,
      "hit": false,
      "t": 132289.05300000025,
      "d": 361.44550000000163,
      "v": 80
    },
    {
      "midi": 57,
      "hit": false,
      "t": 132289.05300000042,
      "d": 361.44550000000163,
      "v": 69
    },
    {
      "midi": 62,
      "hit": false,
      "t": 132289.05300000042,
      "d": 361.44550000000163,
      "v": 88
    },
    {
      "midi": 42,
      "hit": false,
      "t": 132650.49850000025,
      "d": 361.44550000000163,
      "v": 79
    },
    {
      "midi": 54,
      "hit": false,
      "t": 132650.49850000042,
      "d": 361.44550000000163,
      "v": 70
    },
    {
      "midi": 41,
      "hit": false,
      "t": 133011.94400000025,
      "d": 361.44550000000163,
      "v": 96
    },
    {
      "midi": 57,
      "hit": false,
      "t": 133011.94400000043,
      "d": 722.8910000000033,
      "v": 69
    },
    {
      "midi": 60,
      "hit": false,
      "t": 133011.94400000043,
      "d": 722.8910000000033,
      "v": 84
    },
    {
      "midi": 53,
      "hit": false,
      "t": 133373.38950000025,
      "d": 722.8910000000033,
      "v": 67
    },
    {
      "midi": 57,
      "hit": false,
      "t": 133734.83500000043,
      "d": 361.44550000000163,
      "v": 69
    },
    {
      "midi": 60,
      "hit": false,
      "t": 133734.83500000043,
      "d": 361.44550000000163,
      "v": 86
    },
    {
      "midi": 41,
      "hit": false,
      "t": 134096.28050000026,
      "d": 361.44550000000163,
      "v": 79
    },
    {
      "midi": 53,
      "hit": false,
      "t": 134096.28050000043,
      "d": 361.44550000000163,
      "v": 72
    },
    {
      "midi": 41,
      "hit": false,
      "t": 134457.72600000026,
      "d": 361.44550000000163,
      "v": 82
    },
    {
      "midi": 57,
      "hit": false,
      "t": 134457.72600000043,
      "d": 361.44550000000163,
      "v": 74
    },
    {
      "midi": 62,
      "hit": false,
      "t": 134457.72600000043,
      "d": 361.44550000000163,
      "v": 90
    },
    {
      "midi": 41,
      "hit": false,
      "t": 134819.17150000026,
      "d": 722.8910000000033,
      "v": 91
    },
    {
      "midi": 53,
      "hit": false,
      "t": 134819.17150000043,
      "d": 361.44550000000163,
      "v": 72
    },
    {
      "midi": 57,
      "hit": false,
      "t": 135180.61700000043,
      "d": 361.44550000000163,
      "v": 69
    },
    {
      "midi": 60,
      "hit": false,
      "t": 135180.61700000043,
      "d": 361.44550000000163,
      "v": 86
    },
    {
      "midi": 41,
      "hit": false,
      "t": 135542.06250000026,
      "d": 361.44550000000163,
      "v": 91
    },
    {
      "midi": 53,
      "hit": false,
      "t": 135542.06250000044,
      "d": 361.44550000000163,
      "v": 68
    },
    {
      "midi": 42,
      "hit": false,
      "t": 135903.50800000026,
      "d": 361.44550000000163,
      "v": 96
    },
    {
      "midi": 57,
      "hit": false,
      "t": 135903.50800000044,
      "d": 722.8910000000033,
      "v": 68
    },
    {
      "midi": 62,
      "hit": false,
      "t": 135903.50800000044,
      "d": 722.8910000000033,
      "v": 84
    },
    {
      "midi": 54,
      "hit": false,
      "t": 136264.95350000027,
      "d": 361.44550000000163,
      "v": 69
    },
    {
      "midi": 42,
      "hit": false,
      "t": 136626.39900000027,
      "d": 361.44550000000163,
      "v": 80
    },
    {
      "midi": 57,
      "hit": false,
      "t": 136626.39900000044,
      "d": 361.44550000000163,
      "v": 69
    },
    {
      "midi": 62,
      "hit": false,
      "t": 136626.39900000044,
      "d": 361.44550000000163,
      "v": 87
    },
    {
      "midi": 42,
      "hit": false,
      "t": 136987.84450000027,
      "d": 361.44550000000163,
      "v": 79
    },
    {
      "midi": 54,
      "hit": false,
      "t": 136987.84450000044,
      "d": 361.44550000000163,
      "v": 74
    },
    {
      "midi": 44,
      "hit": false,
      "t": 137349.29000000027,
      "d": 361.44550000000163,
      "v": 82
    },
    {
      "midi": 59,
      "hit": false,
      "t": 137349.29000000044,
      "d": 361.44550000000163,
      "v": 74
    },
    {
      "midi": 64,
      "hit": false,
      "t": 137349.29000000044,
      "d": 361.44550000000163,
      "v": 92
    },
    {
      "midi": 44,
      "hit": false,
      "t": 137710.73550000027,
      "d": 361.44550000000163,
      "v": 79
    },
    {
      "midi": 56,
      "hit": false,
      "t": 137710.73550000045,
      "d": 361.44550000000163,
      "v": 76
    },
    {
      "midi": 44,
      "hit": false,
      "t": 138072.18100000027,
      "d": 361.44550000000163,
      "v": 80
    },
    {
      "midi": 59,
      "hit": false,
      "t": 138072.18100000045,
      "d": 361.44550000000163,
      "v": 72
    },
    {
      "midi": 64,
      "hit": false,
      "t": 138072.18100000045,
      "d": 361.44550000000163,
      "v": 87
    },
    {
      "midi": 44,
      "hit": false,
      "t": 138433.62650000027,
      "d": 361.44550000000163,
      "v": 79
    },
    {
      "midi": 56,
      "hit": false,
      "t": 138433.62650000045,
      "d": 361.44550000000163,
      "v": 72
    },
    {
      "midi": 45,
      "hit": false,
      "t": 138795.07200000028,
      "d": 1445.7820000000065,
      "v": 91
    },
    {
      "midi": 57,
      "hit": false,
      "t": 138795.07200000045,
      "d": 722.8910000000033,
      "v": 71
    },
    {
      "midi": 60,
      "hit": false,
      "t": 138795.07200000045,
      "d": 722.8910000000033,
      "v": 73
    },
    {
      "midi": 64,
      "hit": false,
      "t": 138795.07200000045,
      "d": 722.8910000000033,
      "v": 84
    },
    {
      "midi": 57,
      "hit": false,
      "t": 139517.96300000045,
      "d": 722.8910000000033,
      "v": 71
    },
    {
      "midi": 60,
      "hit": false,
      "t": 139517.96300000045,
      "d": 722.8910000000033,
      "v": 73
    },
    {
      "midi": 64,
      "hit": false,
      "t": 139517.96300000045,
      "d": 722.8910000000033,
      "v": 84
    },
    {
      "midi": 57,
      "hit": false,
      "t": 140240.85400000028,
      "d": 722.8910000000033,
      "v": 76
    },
    {
      "midi": 60,
      "hit": false,
      "t": 140240.85400000046,
      "d": 722.8910000000033,
      "v": 77
    },
    {
      "midi": 64,
      "hit": false,
      "t": 140240.85400000046,
      "d": 722.8910000000033,
      "v": 89
    },
    {
      "midi": 57,
      "hit": false,
      "t": 140963.7450000003,
      "d": 722.8910000000033,
      "v": 81
    },
    {
      "midi": 60,
      "hit": false,
      "t": 140963.74500000046,
      "d": 722.8910000000033,
      "v": 84
    },
    {
      "midi": 64,
      "hit": false,
      "t": 140963.74500000046,
      "d": 722.8910000000033,
      "v": 80
    },
    {
      "midi": 44,
      "hit": false,
      "t": 141686.6360000003,
      "d": 1445.7820000000065,
      "v": 91
    },
    {
      "midi": 56,
      "hit": false,
      "t": 141686.63600000046,
      "d": 722.8910000000033,
      "v": 79
    },
    {
      "midi": 59,
      "hit": false,
      "t": 141686.63600000046,
      "d": 722.8910000000033,
      "v": 83
    },
    {
      "midi": 64,
      "hit": false,
      "t": 141686.63600000046,
      "d": 722.8910000000033,
      "v": 82
    },
    {
      "midi": 56,
      "hit": false,
      "t": 142409.52700000047,
      "d": 722.8910000000033,
      "v": 71
    },
    {
      "midi": 59,
      "hit": false,
      "t": 142409.52700000047,
      "d": 722.8910000000033,
      "v": 73
    },
    {
      "midi": 64,
      "hit": false,
      "t": 142409.52700000047,
      "d": 722.8910000000033,
      "v": 85
    },
    {
      "midi": 56,
      "hit": false,
      "t": 143132.4180000003,
      "d": 722.8910000000033,
      "v": 72
    },
    {
      "midi": 59,
      "hit": false,
      "t": 143132.41800000047,
      "d": 722.8910000000033,
      "v": 77
    },
    {
      "midi": 64,
      "hit": false,
      "t": 143132.41800000047,
      "d": 722.8910000000033,
      "v": 89
    },
    {
      "midi": 56,
      "hit": false,
      "t": 143855.3090000003,
      "d": 361.44550000000163,
      "v": 59
    },
    {
      "midi": 59,
      "hit": false,
      "t": 143855.30900000047,
      "d": 722.8910000000033,
      "v": 62
    },
    {
      "midi": 64,
      "hit": false,
      "t": 143855.30900000047,
      "d": 722.8910000000033,
      "v": 72
    },
    {
      "midi": 56,
      "hit": false,
      "t": 144216.7545000003,
      "d": 361.44550000000163,
      "v": 62
    },
    {
      "midi": 43,
      "hit": false,
      "t": 144578.2000000003,
      "d": 2891.564000000013,
      "v": 91
    },
    {
      "midi": 55,
      "hit": false,
      "t": 144578.20000000048,
      "d": 722.8910000000033,
      "v": 66
    },
    {
      "midi": 59,
      "hit": false,
      "t": 144578.20000000048,
      "d": 722.8910000000033,
      "v": 72
    },
    {
      "midi": 62,
      "hit": false,
      "t": 144578.20000000048,
      "d": 722.8910000000033,
      "v": 83
    },
    {
      "midi": 55,
      "hit": false,
      "t": 145301.09100000048,
      "d": 722.8910000000033,
      "v": 68
    },
    {
      "midi": 59,
      "hit": false,
      "t": 145301.09100000048,
      "d": 722.8910000000033,
      "v": 72
    },
    {
      "midi": 62,
      "hit": false,
      "t": 145301.09100000048,
      "d": 722.8910000000033,
      "v": 83
    },
    {
      "midi": 55,
      "hit": false,
      "t": 146023.98200000048,
      "d": 722.8910000000033,
      "v": 72
    },
    {
      "midi": 59,
      "hit": false,
      "t": 146023.98200000048,
      "d": 722.8910000000033,
      "v": 77
    },
    {
      "midi": 62,
      "hit": false,
      "t": 146023.98200000048,
      "d": 722.8910000000033,
      "v": 88
    },
    {
      "midi": 55,
      "hit": false,
      "t": 146746.8730000005,
      "d": 722.8910000000033,
      "v": 78
    },
    {
      "midi": 59,
      "hit": false,
      "t": 146746.8730000005,
      "d": 722.8910000000033,
      "v": 82
    },
    {
      "midi": 62,
      "hit": false,
      "t": 146746.8730000005,
      "d": 722.8910000000033,
      "v": 80
    },
    {
      "midi": 42,
      "hit": false,
      "t": 147469.76400000032,
      "d": 2168.67300000001,
      "v": 91
    },
    {
      "midi": 54,
      "hit": false,
      "t": 147469.7640000005,
      "d": 722.8910000000033,
      "v": 75
    },
    {
      "midi": 57,
      "hit": false,
      "t": 147469.7640000005,
      "d": 722.8910000000033,
      "v": 80
    },
    {
      "midi": 62,
      "hit": false,
      "t": 147469.7640000005,
      "d": 722.8910000000033,
      "v": 80
    },
    {
      "midi": 54,
      "hit": false,
      "t": 148192.6550000005,
      "d": 722.8910000000033,
      "v": 66
    },
    {
      "midi": 57,
      "hit": false,
      "t": 148192.6550000005,
      "d": 722.8910000000033,
      "v": 70
    },
    {
      "midi": 62,
      "hit": false,
      "t": 148192.6550000005,
      "d": 722.8910000000033,
      "v": 84
    },
    {
      "midi": 54,
      "hit": false,
      "t": 148915.5460000005,
      "d": 722.8910000000033,
      "v": 71
    },
    {
      "midi": 57,
      "hit": false,
      "t": 148915.5460000005,
      "d": 722.8910000000033,
      "v": 74
    },
    {
      "midi": 62,
      "hit": false,
      "t": 148915.5460000005,
      "d": 722.8910000000033,
      "v": 89
    },
    {
      "midi": 38,
      "hit": false,
      "t": 149638.43700000033,
      "d": 361.44550000000163,
      "v": 80
    },
    {
      "midi": 54,
      "hit": false,
      "t": 149638.4370000005,
      "d": 361.44550000000163,
      "v": 54
    },
    {
      "midi": 57,
      "hit": false,
      "t": 149638.4370000005,
      "d": 361.44550000000163,
      "v": 59
    },
    {
      "midi": 62,
      "hit": false,
      "t": 149638.4370000005,
      "d": 361.44550000000163,
      "v": 76
    },
    {
      "midi": 38,
      "hit": false,
      "t": 149999.88250000033,
      "d": 361.44550000000163,
      "v": 79
    },
    {
      "midi": 54,
      "hit": false,
      "t": 149999.8825000005,
      "d": 361.44550000000163,
      "v": 53
    },
    {
      "midi": 57,
      "hit": false,
      "t": 149999.8825000005,
      "d": 361.44550000000163,
      "v": 69
    },
    {
      "midi": 45,
      "hit": false,
      "t": 150361.32800000033,
      "d": 1445.7820000000065,
      "v": 91
    },
    {
      "midi": 57,
      "hit": false,
      "t": 150361.3280000005,
      "d": 722.8910000000033,
      "v": 70
    },
    {
      "midi": 60,
      "hit": false,
      "t": 150361.3280000005,
      "d": 722.8910000000033,
      "v": 72
    },
    {
      "midi": 64,
      "hit": false,
      "t": 150361.3280000005,
      "d": 722.8910000000033,
      "v": 86
    },
    {
      "midi": 57,
      "hit": false,
      "t": 151084.2190000005,
      "d": 722.8910000000033,
      "v": 71
    },
    {
      "midi": 60,
      "hit": false,
      "t": 151084.2190000005,
      "d": 722.8910000000033,
      "v": 73
    },
    {
      "midi": 64,
      "hit": false,
      "t": 151084.2190000005,
      "d": 722.8910000000033,
      "v": 85
    },
    {
      "midi": 57,
      "hit": false,
      "t": 151807.11000000034,
      "d": 722.8910000000033,
      "v": 75
    },
    {
      "midi": 60,
      "hit": false,
      "t": 151807.1100000005,
      "d": 722.8910000000033,
      "v": 77
    },
    {
      "midi": 64,
      "hit": false,
      "t": 151807.1100000005,
      "d": 722.8910000000033,
      "v": 89
    },
    {
      "midi": 57,
      "hit": false,
      "t": 152530.00100000034,
      "d": 722.8910000000033,
      "v": 80
    },
    {
      "midi": 60,
      "hit": false,
      "t": 152530.0010000005,
      "d": 722.8910000000033,
      "v": 84
    },
    {
      "midi": 64,
      "hit": false,
      "t": 152530.0010000005,
      "d": 722.8910000000033,
      "v": 79
    },
    {
      "midi": 44,
      "hit": false,
      "t": 153252.89200000034,
      "d": 1445.7820000000065,
      "v": 91
    },
    {
      "midi": 56,
      "hit": false,
      "t": 153252.89200000052,
      "d": 722.8910000000033,
      "v": 77
    },
    {
      "midi": 59,
      "hit": false,
      "t": 153252.89200000052,
      "d": 722.8910000000033,
      "v": 81
    },
    {
      "midi": 64,
      "hit": false,
      "t": 153252.89200000052,
      "d": 722.8910000000033,
      "v": 79
    },
    {
      "midi": 56,
      "hit": false,
      "t": 153975.78300000052,
      "d": 722.8910000000033,
      "v": 70
    },
    {
      "midi": 59,
      "hit": false,
      "t": 153975.78300000052,
      "d": 722.8910000000033,
      "v": 72
    },
    {
      "midi": 64,
      "hit": false,
      "t": 153975.78300000052,
      "d": 722.8910000000033,
      "v": 85
    },
    {
      "midi": 56,
      "hit": false,
      "t": 154698.67400000035,
      "d": 722.8910000000033,
      "v": 73
    },
    {
      "midi": 59,
      "hit": false,
      "t": 154698.67400000052,
      "d": 722.8910000000033,
      "v": 77
    },
    {
      "midi": 64,
      "hit": false,
      "t": 154698.67400000052,
      "d": 722.8910000000033,
      "v": 89
    },
    {
      "midi": 56,
      "hit": false,
      "t": 155421.56500000035,
      "d": 361.44550000000163,
      "v": 57
    },
    {
      "midi": 59,
      "hit": false,
      "t": 155421.56500000053,
      "d": 361.44550000000163,
      "v": 61
    },
    {
      "midi": 64,
      "hit": false,
      "t": 155421.56500000053,
      "d": 361.44550000000163,
      "v": 77
    },
    {
      "midi": 56,
      "hit": false,
      "t": 155783.01050000035,
      "d": 361.44550000000163,
      "v": 56
    },
    {
      "midi": 59,
      "hit": false,
      "t": 155783.01050000053,
      "d": 361.44550000000163,
      "v": 71
    },
    {
      "midi": 43,
      "hit": false,
      "t": 156144.45600000035,
      "d": 2891.564000000013,
      "v": 91
    },
    {
      "midi": 55,
      "hit": false,
      "t": 156144.45600000053,
      "d": 722.8910000000033,
      "v": 67
    },
    {
      "midi": 59,
      "hit": false,
      "t": 156144.45600000053,
      "d": 722.8910000000033,
      "v": 71
    },
    {
      "midi": 62,
      "hit": false,
      "t": 156144.45600000053,
      "d": 722.8910000000033,
      "v": 85
    },
    {
      "midi": 55,
      "hit": false,
      "t": 156867.34700000053,
      "d": 722.8910000000033,
      "v": 68
    },
    {
      "midi": 59,
      "hit": false,
      "t": 156867.34700000053,
      "d": 722.8910000000033,
      "v": 72
    },
    {
      "midi": 62,
      "hit": false,
      "t": 156867.34700000053,
      "d": 722.8910000000033,
      "v": 83
    },
    {
      "midi": 55,
      "hit": false,
      "t": 157590.23800000054,
      "d": 722.8910000000033,
      "v": 72
    },
    {
      "midi": 59,
      "hit": false,
      "t": 157590.23800000054,
      "d": 722.8910000000033,
      "v": 76
    },
    {
      "midi": 62,
      "hit": false,
      "t": 157590.23800000054,
      "d": 722.8910000000033,
      "v": 88
    },
    {
      "midi": 55,
      "hit": false,
      "t": 158313.12900000054,
      "d": 722.8910000000033,
      "v": 78
    },
    {
      "midi": 59,
      "hit": false,
      "t": 158313.12900000054,
      "d": 722.8910000000033,
      "v": 82
    },
    {
      "midi": 62,
      "hit": false,
      "t": 158313.12900000054,
      "d": 722.8910000000033,
      "v": 80
    },
    {
      "midi": 42,
      "hit": false,
      "t": 159036.02000000037,
      "d": 2168.67300000001,
      "v": 91
    },
    {
      "midi": 54,
      "hit": false,
      "t": 159036.02000000054,
      "d": 722.8910000000033,
      "v": 74
    },
    {
      "midi": 57,
      "hit": false,
      "t": 159036.02000000054,
      "d": 722.8910000000033,
      "v": 77
    },
    {
      "midi": 62,
      "hit": false,
      "t": 159036.02000000054,
      "d": 722.8910000000033,
      "v": 79
    },
    {
      "midi": 54,
      "hit": false,
      "t": 159758.91100000055,
      "d": 722.8910000000033,
      "v": 66
    },
    {
      "midi": 57,
      "hit": false,
      "t": 159758.91100000055,
      "d": 722.8910000000033,
      "v": 70
    },
    {
      "midi": 62,
      "hit": false,
      "t": 159758.91100000055,
      "d": 722.8910000000033,
      "v": 84
    },
    {
      "midi": 54,
      "hit": false,
      "t": 160481.80200000055,
      "d": 722.8910000000033,
      "v": 70
    },
    {
      "midi": 57,
      "hit": false,
      "t": 160481.80200000055,
      "d": 722.8910000000033,
      "v": 74
    },
    {
      "midi": 62,
      "hit": false,
      "t": 160481.80200000055,
      "d": 722.8910000000033,
      "v": 88
    },
    {
      "midi": 38,
      "hit": false,
      "t": 161204.69300000038,
      "d": 361.44550000000163,
      "v": 80
    },
    {
      "midi": 54,
      "hit": false,
      "t": 161204.69300000055,
      "d": 361.44550000000163,
      "v": 54
    },
    {
      "midi": 57,
      "hit": false,
      "t": 161204.69300000055,
      "d": 361.44550000000163,
      "v": 58
    },
    {
      "midi": 62,
      "hit": false,
      "t": 161204.69300000055,
      "d": 361.44550000000163,
      "v": 75
    },
    {
      "midi": 38,
      "hit": false,
      "t": 161566.13850000038,
      "d": 361.44550000000163,
      "v": 79
    },
    {
      "midi": 54,
      "hit": false,
      "t": 161566.13850000055,
      "d": 361.44550000000163,
      "v": 53
    },
    {
      "midi": 57,
      "hit": false,
      "t": 161566.13850000055,
      "d": 361.44550000000163,
      "v": 69
    },
    {
      "midi": 45,
      "hit": false,
      "t": 161927.58400000038,
      "d": 1445.7820000000065,
      "v": 91
    },
    {
      "midi": 57,
      "hit": false,
      "t": 161927.58400000056,
      "d": 722.8910000000033,
      "v": 70
    },
    {
      "midi": 60,
      "hit": false,
      "t": 161927.58400000056,
      "d": 722.8910000000033,
      "v": 72
    },
    {
      "midi": 64,
      "hit": false,
      "t": 161927.58400000056,
      "d": 722.8910000000033,
      "v": 86
    },
    {
      "midi": 57,
      "hit": false,
      "t": 162650.47500000056,
      "d": 722.8910000000033,
      "v": 71
    },
    {
      "midi": 60,
      "hit": false,
      "t": 162650.47500000056,
      "d": 722.8910000000033,
      "v": 73
    },
    {
      "midi": 64,
      "hit": false,
      "t": 162650.47500000056,
      "d": 722.8910000000033,
      "v": 84
    },
    {
      "midi": 57,
      "hit": false,
      "t": 163373.3660000004,
      "d": 722.8910000000033,
      "v": 75
    },
    {
      "midi": 60,
      "hit": false,
      "t": 163373.36600000056,
      "d": 722.8910000000033,
      "v": 77
    },
    {
      "midi": 64,
      "hit": false,
      "t": 163373.36600000056,
      "d": 722.8910000000033,
      "v": 89
    },
    {
      "midi": 57,
      "hit": false,
      "t": 164096.2570000004,
      "d": 722.8910000000033,
      "v": 80
    },
    {
      "midi": 60,
      "hit": false,
      "t": 164096.25700000057,
      "d": 722.8910000000033,
      "v": 83
    },
    {
      "midi": 64,
      "hit": false,
      "t": 164096.25700000057,
      "d": 722.8910000000033,
      "v": 80
    },
    {
      "midi": 44,
      "hit": false,
      "t": 164819.1480000004,
      "d": 1084.336500000005,
      "v": 96
    },
    {
      "midi": 56,
      "hit": false,
      "t": 164819.14800000057,
      "d": 722.8910000000033,
      "v": 78
    },
    {
      "midi": 59,
      "hit": false,
      "t": 164819.14800000057,
      "d": 722.8910000000033,
      "v": 81
    },
    {
      "midi": 64,
      "hit": false,
      "t": 164819.14800000057,
      "d": 722.8910000000033,
      "v": 79
    },
    {
      "midi": 56,
      "hit": false,
      "t": 165542.03900000057,
      "d": 722.8910000000033,
      "v": 69
    },
    {
      "midi": 59,
      "hit": false,
      "t": 165542.03900000057,
      "d": 722.8910000000033,
      "v": 72
    },
    {
      "midi": 64,
      "hit": false,
      "t": 165542.03900000057,
      "d": 722.8910000000033,
      "v": 84
    },
    {
      "midi": 40,
      "hit": false,
      "t": 165903.4845000004,
      "d": 361.44550000000163,
      "v": 91
    },
    {
      "midi": 40,
      "hit": false,
      "t": 166264.9300000004,
      "d": 1445.7820000000065,
      "v": 94
    },
    {
      "midi": 56,
      "hit": false,
      "t": 166264.93000000058,
      "d": 722.8910000000033,
      "v": 73
    },
    {
      "midi": 59,
      "hit": false,
      "t": 166264.93000000058,
      "d": 722.8910000000033,
      "v": 77
    },
    {
      "midi": 64,
      "hit": false,
      "t": 166264.93000000058,
      "d": 722.8910000000033,
      "v": 88
    },
    {
      "midi": 56,
      "hit": false,
      "t": 166987.82100000058,
      "d": 722.8910000000033,
      "v": 71
    },
    {
      "midi": 59,
      "hit": false,
      "t": 166987.82100000058,
      "d": 722.8910000000033,
      "v": 73
    },
    {
      "midi": 64,
      "hit": false,
      "t": 166987.82100000058,
      "d": 722.8910000000033,
      "v": 89
    },
    {
      "midi": 43,
      "hit": false,
      "t": 167710.7120000004,
      "d": 1084.336500000005,
      "v": 91
    },
    {
      "midi": 55,
      "hit": false,
      "t": 167710.71200000058,
      "d": 722.8910000000033,
      "v": 67
    },
    {
      "midi": 59,
      "hit": false,
      "t": 167710.71200000058,
      "d": 722.8910000000033,
      "v": 72
    },
    {
      "midi": 62,
      "hit": false,
      "t": 167710.71200000058,
      "d": 722.8910000000033,
      "v": 86
    },
    {
      "midi": 59,
      "hit": false,
      "t": 168433.60300000058,
      "d": 722.8910000000033,
      "v": 72
    },
    {
      "midi": 62,
      "hit": false,
      "t": 168433.60300000058,
      "d": 722.8910000000033,
      "v": 83
    },
    {
      "midi": 55,
      "hit": false,
      "t": 168795.0485000004,
      "d": 722.8910000000033,
      "v": 74
    },
    {
      "midi": 59,
      "hit": false,
      "t": 169156.4940000006,
      "d": 722.8910000000033,
      "v": 75
    },
    {
      "midi": 64,
      "hit": false,
      "t": 169156.4940000006,
      "d": 722.8910000000033,
      "v": 92
    },
    {
      "midi": 55,
      "hit": false,
      "t": 169517.93950000042,
      "d": 361.44550000000163,
      "v": 75
    },
    {
      "midi": 55,
      "hit": false,
      "t": 169879.38500000042,
      "d": 722.8910000000033,
      "v": 78
    },
    {
      "midi": 59,
      "hit": false,
      "t": 169879.3850000006,
      "d": 722.8910000000033,
      "v": 83
    },
    {
      "midi": 62,
      "hit": false,
      "t": 169879.3850000006,
      "d": 722.8910000000033,
      "v": 80
    },
    {
      "midi": 42,
      "hit": false,
      "t": 170602.27600000042,
      "d": 2168.67300000001,
      "v": 91
    },
    {
      "midi": 57,
      "hit": false,
      "t": 170602.2760000006,
      "d": 722.8910000000033,
      "v": 79
    },
    {
      "midi": 62,
      "hit": false,
      "t": 170602.2760000006,
      "d": 722.8910000000033,
      "v": 81
    },
    {
      "midi": 57,
      "hit": false,
      "t": 171325.1670000006,
      "d": 722.8910000000033,
      "v": 71
    },
    {
      "midi": 62,
      "hit": false,
      "t": 171325.1670000006,
      "d": 722.8910000000033,
      "v": 86
    },
    {
      "midi": 57,
      "hit": false,
      "t": 172048.0580000006,
      "d": 722.8910000000033,
      "v": 76
    },
    {
      "midi": 62,
      "hit": false,
      "t": 172048.0580000006,
      "d": 722.8910000000033,
      "v": 91
    },
    {
      "midi": 57,
      "hit": false,
      "t": 172770.9490000006,
      "d": 722.8910000000033,
      "v": 69
    },
    {
      "midi": 62,
      "hit": false,
      "t": 172770.9490000006,
      "d": 722.8910000000033,
      "v": 83
    },
    {
      "midi": 54,
      "hit": false,
      "t": 173132.39450000043,
      "d": 361.44550000000163,
      "v": 69
    },
    {
      "midi": 45,
      "hit": false,
      "t": 173493.84000000043,
      "d": 1445.7820000000065,
      "v": 91
    },
    {
      "midi": 57,
      "hit": false,
      "t": 173493.8400000006,
      "d": 722.8910000000033,
      "v": 73
    },
    {
      "midi": 60,
      "hit": false,
      "t": 173493.8400000006,
      "d": 722.8910000000033,
      "v": 74
    },
    {
      "midi": 64,
      "hit": false,
      "t": 173493.8400000006,
      "d": 722.8910000000033,
      "v": 86
    },
    {
      "midi": 57,
      "hit": false,
      "t": 174216.7310000006,
      "d": 722.8910000000033,
      "v": 72
    },
    {
      "midi": 60,
      "hit": false,
      "t": 174216.7310000006,
      "d": 722.8910000000033,
      "v": 74
    },
    {
      "midi": 64,
      "hit": false,
      "t": 174216.7310000006,
      "d": 722.8910000000033,
      "v": 85
    },
    {
      "midi": 57,
      "hit": false,
      "t": 174939.62200000044,
      "d": 722.8910000000033,
      "v": 76
    },
    {
      "midi": 60,
      "hit": false,
      "t": 174939.6220000006,
      "d": 722.8910000000033,
      "v": 78
    },
    {
      "midi": 64,
      "hit": false,
      "t": 174939.6220000006,
      "d": 722.8910000000033,
      "v": 90
    },
    {
      "midi": 57,
      "hit": false,
      "t": 175662.51300000044,
      "d": 722.8910000000033,
      "v": 83
    },
    {
      "midi": 60,
      "hit": false,
      "t": 175662.51300000062,
      "d": 722.8910000000033,
      "v": 85
    },
    {
      "midi": 64,
      "hit": false,
      "t": 175662.51300000062,
      "d": 722.8910000000033,
      "v": 82
    },
    {
      "midi": 44,
      "hit": false,
      "t": 176385.40400000045,
      "d": 1084.336500000005,
      "v": 96
    },
    {
      "midi": 56,
      "hit": false,
      "t": 176385.40400000062,
      "d": 722.8910000000033,
      "v": 81
    },
    {
      "midi": 59,
      "hit": false,
      "t": 176385.40400000062,
      "d": 722.8910000000033,
      "v": 83
    },
    {
      "midi": 64,
      "hit": false,
      "t": 176385.40400000062,
      "d": 722.8910000000033,
      "v": 81
    },
    {
      "midi": 56,
      "hit": false,
      "t": 177108.29500000062,
      "d": 722.8910000000033,
      "v": 70
    },
    {
      "midi": 59,
      "hit": false,
      "t": 177108.29500000062,
      "d": 722.8910000000033,
      "v": 73
    },
    {
      "midi": 64,
      "hit": false,
      "t": 177108.29500000062,
      "d": 722.8910000000033,
      "v": 85
    },
    {
      "midi": 40,
      "hit": false,
      "t": 177469.74050000045,
      "d": 361.44550000000163,
      "v": 91
    },
    {
      "midi": 40,
      "hit": false,
      "t": 177831.18600000045,
      "d": 1445.7820000000065,
      "v": 94
    },
    {
      "midi": 56,
      "hit": false,
      "t": 177831.18600000063,
      "d": 722.8910000000033,
      "v": 74
    },
    {
      "midi": 59,
      "hit": false,
      "t": 177831.18600000063,
      "d": 722.8910000000033,
      "v": 77
    },
    {
      "midi": 64,
      "hit": false,
      "t": 177831.18600000063,
      "d": 722.8910000000033,
      "v": 90
    },
    {
      "midi": 56,
      "hit": false,
      "t": 178554.07700000063,
      "d": 722.8910000000033,
      "v": 70
    },
    {
      "midi": 59,
      "hit": false,
      "t": 178554.07700000063,
      "d": 722.8910000000033,
      "v": 73
    },
    {
      "midi": 64,
      "hit": false,
      "t": 178554.07700000063,
      "d": 722.8910000000033,
      "v": 89
    },
    {
      "midi": 43,
      "hit": false,
      "t": 179276.96800000046,
      "d": 1084.336500000005,
      "v": 91
    },
    {
      "midi": 55,
      "hit": false,
      "t": 179276.96800000063,
      "d": 722.8910000000033,
      "v": 69
    },
    {
      "midi": 59,
      "hit": false,
      "t": 179276.96800000063,
      "d": 722.8910000000033,
      "v": 74
    },
    {
      "midi": 62,
      "hit": false,
      "t": 179276.96800000063,
      "d": 722.8910000000033,
      "v": 88
    },
    {
      "midi": 59,
      "hit": false,
      "t": 179999.85900000064,
      "d": 722.8910000000033,
      "v": 72
    },
    {
      "midi": 62,
      "hit": false,
      "t": 179999.85900000064,
      "d": 722.8910000000033,
      "v": 83
    },
    {
      "midi": 55,
      "hit": false,
      "t": 180361.30450000046,
      "d": 722.8910000000033,
      "v": 73
    },
    {
      "midi": 59,
      "hit": false,
      "t": 180722.75000000064,
      "d": 722.8910000000033,
      "v": 76
    },
    {
      "midi": 64,
      "hit": false,
      "t": 180722.75000000064,
      "d": 722.8910000000033,
      "v": 92
    },
    {
      "midi": 55,
      "hit": false,
      "t": 181084.19550000047,
      "d": 361.44550000000163,
      "v": 74
    },
    {
      "midi": 55,
      "hit": false,
      "t": 181445.64100000047,
      "d": 722.8910000000033,
      "v": 78
    },
    {
      "midi": 59,
      "hit": false,
      "t": 181445.64100000064,
      "d": 722.8910000000033,
      "v": 83
    },
    {
      "midi": 62,
      "hit": false,
      "t": 181445.64100000064,
      "d": 722.8910000000033,
      "v": 81
    },
    {
      "midi": 42,
      "hit": false,
      "t": 182168.53200000047,
      "d": 722.8910000000033,
      "v": 96
    },
    {
      "midi": 54,
      "hit": false,
      "t": 182168.53200000065,
      "d": 722.8910000000033,
      "v": 77
    },
    {
      "midi": 57,
      "hit": false,
      "t": 182168.53200000065,
      "d": 722.8910000000033,
      "v": 80
    },
    {
      "midi": 62,
      "hit": false,
      "t": 182168.53200000065,
      "d": 722.8910000000033,
      "v": 81
    },
    {
      "midi": 42,
      "hit": false,
      "t": 182891.42300000048,
      "d": 722.8910000000033,
      "v": 92
    },
    {
      "midi": 54,
      "hit": false,
      "t": 182891.42300000065,
      "d": 722.8910000000033,
      "v": 67
    },
    {
      "midi": 57,
      "hit": false,
      "t": 182891.42300000065,
      "d": 722.8910000000033,
      "v": 70
    },
    {
      "midi": 62,
      "hit": false,
      "t": 182891.42300000065,
      "d": 722.8910000000033,
      "v": 84
    },
    {
      "midi": 42,
      "hit": false,
      "t": 183614.31400000048,
      "d": 722.8910000000033,
      "v": 94
    },
    {
      "midi": 54,
      "hit": false,
      "t": 183614.31400000065,
      "d": 722.8910000000033,
      "v": 70
    },
    {
      "midi": 57,
      "hit": false,
      "t": 183614.31400000065,
      "d": 722.8910000000033,
      "v": 74
    },
    {
      "midi": 62,
      "hit": false,
      "t": 183614.31400000065,
      "d": 722.8910000000033,
      "v": 88
    },
    {
      "midi": 42,
      "hit": false,
      "t": 184337.20500000048,
      "d": 361.44550000000163,
      "v": 92
    },
    {
      "midi": 54,
      "hit": false,
      "t": 184337.20500000066,
      "d": 722.8910000000033,
      "v": 55
    },
    {
      "midi": 57,
      "hit": false,
      "t": 184337.20500000066,
      "d": 722.8910000000033,
      "v": 60
    },
    {
      "midi": 62,
      "hit": false,
      "t": 184337.20500000066,
      "d": 722.8910000000033,
      "v": 72
    },
    {
      "midi": 54,
      "hit": false,
      "t": 184698.65050000048,
      "d": 361.44550000000163,
      "v": 59
    },
    {
      "midi": 45,
      "hit": false,
      "t": 185060.09600000049,
      "d": 722.8910000000033,
      "v": 91
    },
    {
      "midi": 60,
      "hit": false,
      "t": 185060.09600000066,
      "d": 722.8910000000033,
      "v": 75
    },
    {
      "midi": 64,
      "hit": false,
      "t": 185060.09600000066,
      "d": 722.8910000000033,
      "v": 75
    },
    {
      "midi": 69,
      "hit": false,
      "t": 185060.09600000066,
      "d": 722.8910000000033,
      "v": 84
    },
    {
      "midi": 57,
      "hit": false,
      "t": 185782.9870000005,
      "d": 722.8910000000033,
      "v": 74
    },
    {
      "midi": 60,
      "hit": false,
      "t": 185782.98700000066,
      "d": 722.8910000000033,
      "v": 75
    },
    {
      "midi": 64,
      "hit": false,
      "t": 185782.98700000066,
      "d": 722.8910000000033,
      "v": 75
    },
    {
      "midi": 69,
      "hit": false,
      "t": 185782.98700000066,
      "d": 722.8910000000033,
      "v": 81
    },
    {
      "midi": 57,
      "hit": false,
      "t": 186505.8780000005,
      "d": 722.8910000000033,
      "v": 70
    },
    {
      "midi": 60,
      "hit": false,
      "t": 186505.87800000067,
      "d": 722.8910000000033,
      "v": 80
    },
    {
      "midi": 64,
      "hit": false,
      "t": 186505.87800000067,
      "d": 722.8910000000033,
      "v": 79
    },
    {
      "midi": 69,
      "hit": false,
      "t": 186505.87800000067,
      "d": 722.8910000000033,
      "v": 90
    },
    {
      "midi": 57,
      "hit": false,
      "t": 187228.7690000005,
      "d": 361.44550000000163,
      "v": 66
    },
    {
      "midi": 60,
      "hit": false,
      "t": 187228.76900000067,
      "d": 722.8910000000033,
      "v": 76
    },
    {
      "midi": 64,
      "hit": false,
      "t": 187228.76900000067,
      "d": 722.8910000000033,
      "v": 76
    },
    {
      "midi": 69,
      "hit": false,
      "t": 187228.76900000067,
      "d": 722.8910000000033,
      "v": 89
    },
    {
      "midi": 40,
      "hit": false,
      "t": 187590.2145000005,
      "d": 361.44550000000163,
      "v": 91
    },
    {
      "midi": 44,
      "hit": false,
      "t": 187951.6600000005,
      "d": 361.44550000000163,
      "v": 96
    },
    {
      "midi": 56,
      "hit": false,
      "t": 187951.66000000067,
      "d": 722.8910000000033,
      "v": 57
    },
    {
      "midi": 59,
      "hit": false,
      "t": 187951.66000000067,
      "d": 722.8910000000033,
      "v": 60
    },
    {
      "midi": 64,
      "hit": false,
      "t": 187951.66000000067,
      "d": 722.8910000000033,
      "v": 62
    },
    {
      "midi": 68,
      "hit": false,
      "t": 187951.66000000067,
      "d": 722.8910000000033,
      "v": 77
    },
    {
      "midi": 56,
      "hit": false,
      "t": 188313.1055000005,
      "d": 361.44550000000163,
      "v": 63
    },
    {
      "midi": 56,
      "hit": false,
      "t": 188674.5510000005,
      "d": 361.44550000000163,
      "v": 58
    },
    {
      "midi": 59,
      "hit": false,
      "t": 188674.55100000068,
      "d": 361.44550000000163,
      "v": 61
    },
    {
      "midi": 64,
      "hit": false,
      "t": 188674.55100000068,
      "d": 361.44550000000163,
      "v": 62
    },
    {
      "midi": 68,
      "hit": false,
      "t": 188674.55100000068,
      "d": 361.44550000000163,
      "v": 76
    },
    {
      "midi": 40,
      "hit": false,
      "t": 189035.9965000005,
      "d": 361.44550000000163,
      "v": 79
    },
    {
      "midi": 56,
      "hit": false,
      "t": 189035.99650000068,
      "d": 361.44550000000163,
      "v": 65
    },
    {
      "midi": 40,
      "hit": false,
      "t": 189397.4420000005,
      "d": 361.44550000000163,
      "v": 82
    },
    {
      "midi": 56,
      "hit": false,
      "t": 189397.44200000068,
      "d": 722.8910000000033,
      "v": 69
    },
    {
      "midi": 59,
      "hit": false,
      "t": 189397.44200000068,
      "d": 722.8910000000033,
      "v": 78
    },
    {
      "midi": 64,
      "hit": false,
      "t": 189397.44200000068,
      "d": 722.8910000000033,
      "v": 78
    },
    {
      "midi": 68,
      "hit": false,
      "t": 189397.44200000068,
      "d": 722.8910000000033,
      "v": 90
    },
    {
      "midi": 40,
      "hit": false,
      "t": 189758.8875000005,
      "d": 361.44550000000163,
      "v": 79
    },
    {
      "midi": 40,
      "hit": false,
      "t": 190120.3330000005,
      "d": 361.44550000000163,
      "v": 80
    },
    {
      "midi": 56,
      "hit": false,
      "t": 190120.33300000068,
      "d": 361.44550000000163,
      "v": 67
    },
    {
      "midi": 59,
      "hit": false,
      "t": 190120.33300000068,
      "d": 361.44550000000163,
      "v": 72
    },
    {
      "midi": 64,
      "hit": false,
      "t": 190120.33300000068,
      "d": 361.44550000000163,
      "v": 73
    },
    {
      "midi": 68,
      "hit": false,
      "t": 190120.33300000068,
      "d": 361.44550000000163,
      "v": 85
    },
    {
      "midi": 40,
      "hit": false,
      "t": 190481.7785000005,
      "d": 361.44550000000163,
      "v": 79
    },
    {
      "midi": 59,
      "hit": false,
      "t": 190481.77850000068,
      "d": 361.44550000000163,
      "v": 77
    },
    {
      "midi": 43,
      "hit": false,
      "t": 190843.2240000005,
      "d": 361.44550000000163,
      "v": 96
    },
    {
      "midi": 55,
      "hit": false,
      "t": 190843.2240000007,
      "d": 722.8910000000033,
      "v": 63
    },
    {
      "midi": 59,
      "hit": false,
      "t": 190843.2240000007,
      "d": 722.8910000000033,
      "v": 72
    },
    {
      "midi": 62,
      "hit": false,
      "t": 190843.2240000007,
      "d": 722.8910000000033,
      "v": 73
    },
    {
      "midi": 67,
      "hit": false,
      "t": 190843.2240000007,
      "d": 722.8910000000033,
      "v": 86
    },
    {
      "midi": 55,
      "hit": false,
      "t": 191204.6695000005,
      "d": 722.8910000000033,
      "v": 71
    },
    {
      "midi": 59,
      "hit": false,
      "t": 191566.1150000007,
      "d": 722.8910000000033,
      "v": 74
    },
    {
      "midi": 62,
      "hit": false,
      "t": 191566.1150000007,
      "d": 722.8910000000033,
      "v": 74
    },
    {
      "midi": 67,
      "hit": false,
      "t": 191566.1150000007,
      "d": 722.8910000000033,
      "v": 85
    },
    {
      "midi": 43,
      "hit": false,
      "t": 191927.56050000052,
      "d": 361.44550000000163,
      "v": 79
    },
    {
      "midi": 43,
      "hit": false,
      "t": 192289.00600000052,
      "d": 361.44550000000163,
      "v": 82
    },
    {
      "midi": 59,
      "hit": false,
      "t": 192289.0060000007,
      "d": 722.8910000000033,
      "v": 79
    },
    {
      "midi": 62,
      "hit": false,
      "t": 192289.0060000007,
      "d": 722.8910000000033,
      "v": 78
    },
    {
      "midi": 67,
      "hit": false,
      "t": 192289.0060000007,
      "d": 722.8910000000033,
      "v": 91
    },
    {
      "midi": 43,
      "hit": false,
      "t": 192650.45150000052,
      "d": 361.44550000000163,
      "v": 79
    },
    {
      "midi": 55,
      "hit": false,
      "t": 193011.89700000052,
      "d": 361.44550000000163,
      "v": 63
    },
    {
      "midi": 59,
      "hit": false,
      "t": 193011.8970000007,
      "d": 722.8910000000033,
      "v": 75
    },
    {
      "midi": 62,
      "hit": false,
      "t": 193011.8970000007,
      "d": 722.8910000000033,
      "v": 75
    },
    {
      "midi": 67,
      "hit": false,
      "t": 193011.8970000007,
      "d": 722.8910000000033,
      "v": 88
    },
    {
      "midi": 43,
      "hit": false,
      "t": 193373.34250000052,
      "d": 361.44550000000163,
      "v": 79
    },
    {
      "midi": 42,
      "hit": false,
      "t": 193734.78800000052,
      "d": 1084.336500000005,
      "v": 96
    },
    {
      "midi": 57,
      "hit": false,
      "t": 193734.7880000007,
      "d": 722.8910000000033,
      "v": 72
    },
    {
      "midi": 62,
      "hit": false,
      "t": 193734.7880000007,
      "d": 722.8910000000033,
      "v": 75
    },
    {
      "midi": 66,
      "hit": false,
      "t": 193734.7880000007,
      "d": 722.8910000000033,
      "v": 87
    },
    {
      "midi": 57,
      "hit": false,
      "t": 194457.6790000007,
      "d": 722.8910000000033,
      "v": 72
    },
    {
      "midi": 62,
      "hit": false,
      "t": 194457.6790000007,
      "d": 722.8910000000033,
      "v": 75
    },
    {
      "midi": 66,
      "hit": false,
      "t": 194457.6790000007,
      "d": 722.8910000000033,
      "v": 89
    },
    {
      "midi": 38,
      "hit": false,
      "t": 194819.12450000053,
      "d": 361.44550000000163,
      "v": 79
    },
    {
      "midi": 38,
      "hit": false,
      "t": 195180.57000000053,
      "d": 361.44550000000163,
      "v": 82
    },
    {
      "midi": 54,
      "hit": false,
      "t": 195180.5700000007,
      "d": 361.44550000000163,
      "v": 57
    },
    {
      "midi": 57,
      "hit": false,
      "t": 195180.5700000007,
      "d": 361.44550000000163,
      "v": 61
    },
    {
      "midi": 62,
      "hit": false,
      "t": 195180.5700000007,
      "d": 361.44550000000163,
      "v": 80
    },
    {
      "midi": 38,
      "hit": false,
      "t": 195542.01550000053,
      "d": 361.44550000000163,
      "v": 79
    },
    {
      "midi": 54,
      "hit": false,
      "t": 195542.0155000007,
      "d": 361.44550000000163,
      "v": 56
    },
    {
      "midi": 57,
      "hit": false,
      "t": 195542.0155000007,
      "d": 361.44550000000163,
      "v": 60
    },
    {
      "midi": 62,
      "hit": false,
      "t": 195542.0155000007,
      "d": 361.44550000000163,
      "v": 74
    },
    {
      "midi": 38,
      "hit": false,
      "t": 195903.46100000053,
      "d": 361.44550000000163,
      "v": 80
    },
    {
      "midi": 54,
      "hit": false,
      "t": 195903.4610000007,
      "d": 361.44550000000163,
      "v": 55
    },
    {
      "midi": 57,
      "hit": false,
      "t": 195903.4610000007,
      "d": 361.44550000000163,
      "v": 59
    },
    {
      "midi": 62,
      "hit": false,
      "t": 195903.4610000007,
      "d": 361.44550000000163,
      "v": 72
    },
    {
      "midi": 38,
      "hit": false,
      "t": 196264.90650000054,
      "d": 361.44550000000163,
      "v": 79
    },
    {
      "midi": 54,
      "hit": false,
      "t": 196264.9065000007,
      "d": 361.44550000000163,
      "v": 52
    },
    {
      "midi": 57,
      "hit": false,
      "t": 196264.9065000007,
      "d": 361.44550000000163,
      "v": 57
    },
    {
      "midi": 62,
      "hit": false,
      "t": 196264.9065000007,
      "d": 361.44550000000163,
      "v": 74
    },
    {
      "midi": 45,
      "hit": false,
      "t": 196626.35200000054,
      "d": 361.44550000000163,
      "v": 96
    },
    {
      "midi": 57,
      "hit": false,
      "t": 196626.3520000007,
      "d": 722.8910000000033,
      "v": 59
    },
    {
      "midi": 60,
      "hit": false,
      "t": 196626.3520000007,
      "d": 722.8910000000033,
      "v": 62
    },
    {
      "midi": 64,
      "hit": false,
      "t": 196626.3520000007,
      "d": 722.8910000000033,
      "v": 63
    },
    {
      "midi": 69,
      "hit": false,
      "t": 196626.3520000007,
      "d": 722.8910000000033,
      "v": 82
    },
    {
      "midi": 57,
      "hit": false,
      "t": 196987.79750000054,
      "d": 361.44550000000163,
      "v": 65
    },
    {
      "midi": 57,
      "hit": false,
      "t": 197349.24300000054,
      "d": 361.44550000000163,
      "v": 76
    },
    {
      "midi": 60,
      "hit": false,
      "t": 197349.24300000072,
      "d": 722.8910000000033,
      "v": 76
    },
    {
      "midi": 64,
      "hit": false,
      "t": 197349.24300000072,
      "d": 722.8910000000033,
      "v": 87
    },
    {
      "midi": 69,
      "hit": false,
      "t": 197349.24300000072,
      "d": 722.8910000000033,
      "v": 83
    },
    {
      "midi": 45,
      "hit": false,
      "t": 197710.68850000054,
      "d": 361.44550000000163,
      "v": 79
    },
    {
      "midi": 45,
      "hit": false,
      "t": 198072.13400000054,
      "d": 361.44550000000163,
      "v": 82
    },
    {
      "midi": 60,
      "hit": false,
      "t": 198072.13400000072,
      "d": 361.44550000000163,
      "v": 76
    },
    {
      "midi": 65,
      "hit": false,
      "t": 198072.13400000072,
      "d": 361.44550000000163,
      "v": 90
    },
    {
      "midi": 69,
      "hit": false,
      "t": 198072.13400000072,
      "d": 361.44550000000163,
      "v": 89
    },
    {
      "midi": 45,
      "hit": false,
      "t": 198433.57950000055,
      "d": 361.44550000000163,
      "v": 79
    },
    {
      "midi": 57,
      "hit": false,
      "t": 198433.57950000072,
      "d": 361.44550000000163,
      "v": 78
    },
    {
      "midi": 45,
      "hit": false,
      "t": 198795.02500000055,
      "d": 361.44550000000163,
      "v": 80
    },
    {
      "midi": 60,
      "hit": false,
      "t": 198795.02500000072,
      "d": 361.44550000000163,
      "v": 74
    },
    {
      "midi": 65,
      "hit": false,
      "t": 198795.02500000072,
      "d": 361.44550000000163,
      "v": 75
    },
    {
      "midi": 69,
      "hit": false,
      "t": 198795.02500000072,
      "d": 361.44550000000163,
      "v": 93
    },
    {
      "midi": 45,
      "hit": false,
      "t": 199156.47050000055,
      "d": 361.44550000000163,
      "v": 79
    },
    {
      "midi": 57,
      "hit": false,
      "t": 199156.47050000072,
      "d": 361.44550000000163,
      "v": 67
    },
    {
      "midi": 64,
      "hit": false,
      "t": 199156.47050000072,
      "d": 361.44550000000163,
      "v": 85
    },
    {
      "midi": 44,
      "hit": false,
      "t": 199517.91600000055,
      "d": 361.44550000000163,
      "v": 96
    },
    {
      "midi": 59,
      "hit": false,
      "t": 199517.91600000073,
      "d": 722.8910000000033,
      "v": 73
    },
    {
      "midi": 64,
      "hit": false,
      "t": 199517.91600000073,
      "d": 722.8910000000033,
      "v": 75
    },
    {
      "midi": 68,
      "hit": false,
      "t": 199517.91600000073,
      "d": 722.8910000000033,
      "v": 88
    },
    {
      "midi": 56,
      "hit": false,
      "t": 199879.36150000055,
      "d": 722.8910000000033,
      "v": 72
    },
    {
      "midi": 59,
      "hit": false,
      "t": 200240.80700000073,
      "d": 722.8910000000033,
      "v": 75
    },
    {
      "midi": 64,
      "hit": false,
      "t": 200240.80700000073,
      "d": 722.8910000000033,
      "v": 87
    },
    {
      "midi": 68,
      "hit": false,
      "t": 200240.80700000073,
      "d": 722.8910000000033,
      "v": 82
    },
    {
      "midi": 40,
      "hit": false,
      "t": 200602.25250000056,
      "d": 361.44550000000163,
      "v": 79
    },
    {
      "midi": 40,
      "hit": false,
      "t": 200963.69800000056,
      "d": 361.44550000000163,
      "v": 82
    },
    {
      "midi": 59,
      "hit": false,
      "t": 200963.69800000073,
      "d": 361.44550000000163,
      "v": 76
    },
    {
      "midi": 65,
      "hit": false,
      "t": 200963.69800000073,
      "d": 361.44550000000163,
      "v": 90
    },
    {
      "midi": 68,
      "hit": false,
      "t": 200963.69800000073,
      "d": 361.44550000000163,
      "v": 86
    },
    {
      "midi": 40,
      "hit": false,
      "t": 201325.14350000056,
      "d": 361.44550000000163,
      "v": 79
    },
    {
      "midi": 56,
      "hit": false,
      "t": 201325.14350000073,
      "d": 361.44550000000163,
      "v": 76
    },
    {
      "midi": 40,
      "hit": false,
      "t": 201686.58900000056,
      "d": 361.44550000000163,
      "v": 80
    },
    {
      "midi": 59,
      "hit": false,
      "t": 201686.58900000073,
      "d": 361.44550000000163,
      "v": 72
    },
    {
      "midi": 64,
      "hit": false,
      "t": 201686.58900000073,
      "d": 361.44550000000163,
      "v": 75
    },
    {
      "midi": 68,
      "hit": false,
      "t": 201686.58900000073,
      "d": 361.44550000000163,
      "v": 90
    },
    {
      "midi": 40,
      "hit": false,
      "t": 202048.03450000056,
      "d": 361.44550000000163,
      "v": 79
    },
    {
      "midi": 56,
      "hit": false,
      "t": 202048.03450000074,
      "d": 361.44550000000163,
      "v": 72
    },
    {
      "midi": 43,
      "hit": false,
      "t": 202409.48000000056,
      "d": 361.44550000000163,
      "v": 96
    },
    {
      "midi": 55,
      "hit": false,
      "t": 202409.48000000074,
      "d": 722.8910000000033,
      "v": 64
    },
    {
      "midi": 59,
      "hit": false,
      "t": 202409.48000000074,
      "d": 722.8910000000033,
      "v": 70
    },
    {
      "midi": 62,
      "hit": false,
      "t": 202409.48000000074,
      "d": 722.8910000000033,
      "v": 72
    },
    {
      "midi": 67,
      "hit": false,
      "t": 202409.48000000074,
      "d": 722.8910000000033,
      "v": 85
    },
    {
      "midi": 55,
      "hit": false,
      "t": 202770.92550000057,
      "d": 722.8910000000033,
      "v": 70
    },
    {
      "midi": 59,
      "hit": false,
      "t": 203132.37100000074,
      "d": 722.8910000000033,
      "v": 74
    },
    {
      "midi": 62,
      "hit": false,
      "t": 203132.37100000074,
      "d": 722.8910000000033,
      "v": 84
    },
    {
      "midi": 67,
      "hit": false,
      "t": 203132.37100000074,
      "d": 722.8910000000033,
      "v": 80
    },
    {
      "midi": 43,
      "hit": false,
      "t": 203493.81650000057,
      "d": 361.44550000000163,
      "v": 79
    },
    {
      "midi": 43,
      "hit": false,
      "t": 203855.26200000057,
      "d": 361.44550000000163,
      "v": 82
    },
    {
      "midi": 59,
      "hit": false,
      "t": 203855.26200000074,
      "d": 722.8910000000033,
      "v": 77
    },
    {
      "midi": 64,
      "hit": false,
      "t": 203855.26200000074,
      "d": 722.8910000000033,
      "v": 90
    },
    {
      "midi": 67,
      "hit": false,
      "t": 203855.26200000074,
      "d": 722.8910000000033,
      "v": 85
    },
    {
      "midi": 43,
      "hit": false,
      "t": 204216.70750000057,
      "d": 361.44550000000163,
      "v": 79
    },
    {
      "midi": 55,
      "hit": false,
      "t": 204578.15300000057,
      "d": 361.44550000000163,
      "v": 63
    },
    {
      "midi": 59,
      "hit": false,
      "t": 204578.15300000075,
      "d": 722.8910000000033,
      "v": 75
    },
    {
      "midi": 62,
      "hit": false,
      "t": 204578.15300000075,
      "d": 722.8910000000033,
      "v": 74
    },
    {
      "midi": 67,
      "hit": false,
      "t": 204578.15300000075,
      "d": 722.8910000000033,
      "v": 89
    },
    {
      "midi": 43,
      "hit": false,
      "t": 204939.59850000057,
      "d": 361.44550000000163,
      "v": 79
    },
    {
      "midi": 42,
      "hit": false,
      "t": 205301.04400000058,
      "d": 1084.336500000005,
      "v": 96
    },
    {
      "midi": 57,
      "hit": false,
      "t": 205301.04400000075,
      "d": 722.8910000000033,
      "v": 71
    },
    {
      "midi": 62,
      "hit": false,
      "t": 205301.04400000075,
      "d": 722.8910000000033,
      "v": 74
    },
    {
      "midi": 66,
      "hit": false,
      "t": 205301.04400000075,
      "d": 722.8910000000033,
      "v": 88
    },
    {
      "midi": 57,
      "hit": false,
      "t": 206023.93500000075,
      "d": 722.8910000000033,
      "v": 72
    },
    {
      "midi": 62,
      "hit": false,
      "t": 206023.93500000075,
      "d": 722.8910000000033,
      "v": 74
    },
    {
      "midi": 66,
      "hit": false,
      "t": 206023.93500000075,
      "d": 722.8910000000033,
      "v": 89
    },
    {
      "midi": 38,
      "hit": false,
      "t": 206385.38050000058,
      "d": 361.44550000000163,
      "v": 79
    },
    {
      "midi": 38,
      "hit": false,
      "t": 206746.82600000058,
      "d": 361.44550000000163,
      "v": 82
    },
    {
      "midi": 54,
      "hit": false,
      "t": 206746.82600000076,
      "d": 361.44550000000163,
      "v": 57
    },
    {
      "midi": 57,
      "hit": false,
      "t": 206746.82600000076,
      "d": 361.44550000000163,
      "v": 63
    },
    {
      "midi": 62,
      "hit": false,
      "t": 206746.82600000076,
      "d": 361.44550000000163,
      "v": 80
    },
    {
      "midi": 38,
      "hit": false,
      "t": 207108.27150000058,
      "d": 361.44550000000163,
      "v": 79
    },
    {
      "midi": 54,
      "hit": false,
      "t": 207108.27150000076,
      "d": 361.44550000000163,
      "v": 56
    },
    {
      "midi": 57,
      "hit": false,
      "t": 207108.27150000076,
      "d": 361.44550000000163,
      "v": 60
    },
    {
      "midi": 62,
      "hit": false,
      "t": 207108.27150000076,
      "d": 361.44550000000163,
      "v": 74
    },
    {
      "midi": 38,
      "hit": false,
      "t": 207469.7170000006,
      "d": 361.44550000000163,
      "v": 80
    },
    {
      "midi": 54,
      "hit": false,
      "t": 207469.71700000076,
      "d": 361.44550000000163,
      "v": 54
    },
    {
      "midi": 57,
      "hit": false,
      "t": 207469.71700000076,
      "d": 361.44550000000163,
      "v": 59
    },
    {
      "midi": 62,
      "hit": false,
      "t": 207469.71700000076,
      "d": 361.44550000000163,
      "v": 72
    },
    {
      "midi": 38,
      "hit": false,
      "t": 207831.1625000006,
      "d": 361.44550000000163,
      "v": 79
    },
    {
      "midi": 54,
      "hit": false,
      "t": 207831.16250000076,
      "d": 361.44550000000163,
      "v": 52
    },
    {
      "midi": 57,
      "hit": false,
      "t": 207831.16250000076,
      "d": 361.44550000000163,
      "v": 56
    },
    {
      "midi": 62,
      "hit": false,
      "t": 207831.16250000076,
      "d": 361.44550000000163,
      "v": 73
    },
    {
      "midi": 45,
      "hit": false,
      "t": 208192.6080000006,
      "d": 722.8910000000033,
      "v": 96
    },
    {
      "midi": 57,
      "hit": false,
      "t": 208192.60800000076,
      "d": 722.8910000000033,
      "v": 67
    },
    {
      "midi": 60,
      "hit": false,
      "t": 208192.60800000076,
      "d": 722.8910000000033,
      "v": 77
    },
    {
      "midi": 64,
      "hit": false,
      "t": 208192.60800000076,
      "d": 722.8910000000033,
      "v": 76
    },
    {
      "midi": 69,
      "hit": false,
      "t": 208192.60800000076,
      "d": 722.8910000000033,
      "v": 90
    },
    {
      "midi": 57,
      "hit": false,
      "t": 208915.4990000006,
      "d": 361.44550000000163,
      "v": 66
    },
    {
      "midi": 60,
      "hit": false,
      "t": 208915.49900000077,
      "d": 722.8910000000033,
      "v": 76
    },
    {
      "midi": 64,
      "hit": false,
      "t": 208915.49900000077,
      "d": 722.8910000000033,
      "v": 75
    },
    {
      "midi": 69,
      "hit": false,
      "t": 208915.49900000077,
      "d": 722.8910000000033,
      "v": 86
    },
    {
      "midi": 45,
      "hit": false,
      "t": 209276.9445000006,
      "d": 361.44550000000163,
      "v": 79
    },
    {
      "midi": 45,
      "hit": false,
      "t": 209638.3900000006,
      "d": 361.44550000000163,
      "v": 82
    },
    {
      "midi": 57,
      "hit": false,
      "t": 209638.39000000077,
      "d": 722.8910000000033,
      "v": 69
    },
    {
      "midi": 60,
      "hit": false,
      "t": 209638.39000000077,
      "d": 722.8910000000033,
      "v": 80
    },
    {
      "midi": 64,
      "hit": false,
      "t": 209638.39000000077,
      "d": 722.8910000000033,
      "v": 80
    },
    {
      "midi": 69,
      "hit": false,
      "t": 209638.39000000077,
      "d": 722.8910000000033,
      "v": 90
    },
    {
      "midi": 45,
      "hit": false,
      "t": 209999.8355000006,
      "d": 361.44550000000163,
      "v": 91
    },
    {
      "midi": 57,
      "hit": false,
      "t": 210361.2810000006,
      "d": 361.44550000000163,
      "v": 65
    },
    {
      "midi": 60,
      "hit": false,
      "t": 210361.28100000077,
      "d": 722.8910000000033,
      "v": 75
    },
    {
      "midi": 64,
      "hit": false,
      "t": 210361.28100000077,
      "d": 722.8910000000033,
      "v": 76
    },
    {
      "midi": 69,
      "hit": false,
      "t": 210361.28100000077,
      "d": 722.8910000000033,
      "v": 90
    },
    {
      "midi": 45,
      "hit": false,
      "t": 210722.7265000006,
      "d": 361.44550000000163,
      "v": 91
    },
    {
      "midi": 44,
      "hit": false,
      "t": 211084.1720000006,
      "d": 1084.336500000005,
      "v": 96
    },
    {
      "midi": 56,
      "hit": false,
      "t": 211084.17200000078,
      "d": 722.8910000000033,
      "v": 62
    },
    {
      "midi": 59,
      "hit": false,
      "t": 211084.17200000078,
      "d": 722.8910000000033,
      "v": 74
    },
    {
      "midi": 64,
      "hit": false,
      "t": 211084.17200000078,
      "d": 722.8910000000033,
      "v": 75
    },
    {
      "midi": 68,
      "hit": false,
      "t": 211084.17200000078,
      "d": 722.8910000000033,
      "v": 88
    },
    {
      "midi": 56,
      "hit": false,
      "t": 211807.06300000078,
      "d": 722.8910000000033,
      "v": 63
    },
    {
      "midi": 59,
      "hit": false,
      "t": 211807.06300000078,
      "d": 722.8910000000033,
      "v": 74
    },
    {
      "midi": 64,
      "hit": false,
      "t": 211807.06300000078,
      "d": 722.8910000000033,
      "v": 75
    },
    {
      "midi": 68,
      "hit": false,
      "t": 211807.06300000078,
      "d": 722.8910000000033,
      "v": 85
    },
    {
      "midi": 40,
      "hit": false,
      "t": 212168.5085000006,
      "d": 361.44550000000163,
      "v": 79
    },
    {
      "midi": 40,
      "hit": false,
      "t": 212529.9540000006,
      "d": 361.44550000000163,
      "v": 82
    },
    {
      "midi": 56,
      "hit": false,
      "t": 212529.95400000078,
      "d": 722.8910000000033,
      "v": 66
    },
    {
      "midi": 59,
      "hit": false,
      "t": 212529.95400000078,
      "d": 722.8910000000033,
      "v": 78
    },
    {
      "midi": 64,
      "hit": false,
      "t": 212529.95400000078,
      "d": 722.8910000000033,
      "v": 78
    },
    {
      "midi": 68,
      "hit": false,
      "t": 212529.95400000078,
      "d": 722.8910000000033,
      "v": 90
    },
    {
      "midi": 40,
      "hit": false,
      "t": 212891.3995000006,
      "d": 361.44550000000163,
      "v": 91
    },
    {
      "midi": 56,
      "hit": false,
      "t": 213252.8450000006,
      "d": 361.44550000000163,
      "v": 66
    },
    {
      "midi": 59,
      "hit": false,
      "t": 213252.8450000008,
      "d": 722.8910000000033,
      "v": 75
    },
    {
      "midi": 64,
      "hit": false,
      "t": 213252.8450000008,
      "d": 722.8910000000033,
      "v": 76
    },
    {
      "midi": 68,
      "hit": false,
      "t": 213252.8450000008,
      "d": 722.8910000000033,
      "v": 90
    },
    {
      "midi": 40,
      "hit": false,
      "t": 213614.2905000006,
      "d": 361.44550000000163,
      "v": 91
    },
    {
      "midi": 43,
      "hit": false,
      "t": 213975.73600000062,
      "d": 1084.336500000005,
      "v": 96
    },
    {
      "midi": 55,
      "hit": false,
      "t": 213975.7360000008,
      "d": 722.8910000000033,
      "v": 64
    },
    {
      "midi": 59,
      "hit": false,
      "t": 213975.7360000008,
      "d": 722.8910000000033,
      "v": 75
    },
    {
      "midi": 62,
      "hit": false,
      "t": 213975.7360000008,
      "d": 722.8910000000033,
      "v": 76
    },
    {
      "midi": 67,
      "hit": false,
      "t": 213975.7360000008,
      "d": 722.8910000000033,
      "v": 90
    },
    {
      "midi": 59,
      "hit": false,
      "t": 214698.6270000008,
      "d": 361.44550000000163,
      "v": 73
    },
    {
      "midi": 62,
      "hit": false,
      "t": 214698.6270000008,
      "d": 361.44550000000163,
      "v": 74
    },
    {
      "midi": 67,
      "hit": false,
      "t": 214698.6270000008,
      "d": 361.44550000000163,
      "v": 85
    },
    {
      "midi": 43,
      "hit": false,
      "t": 215060.07250000062,
      "d": 361.44550000000163,
      "v": 79
    },
    {
      "midi": 55,
      "hit": false,
      "t": 215060.0725000008,
      "d": 361.44550000000163,
      "v": 73
    },
    {
      "midi": 43,
      "hit": false,
      "t": 215421.51800000062,
      "d": 361.44550000000163,
      "v": 82
    },
    {
      "midi": 59,
      "hit": false,
      "t": 215421.5180000008,
      "d": 361.44550000000163,
      "v": 76
    },
    {
      "midi": 64,
      "hit": false,
      "t": 215421.5180000008,
      "d": 361.44550000000163,
      "v": 78
    },
    {
      "midi": 67,
      "hit": false,
      "t": 215421.5180000008,
      "d": 361.44550000000163,
      "v": 92
    },
    {
      "midi": 43,
      "hit": false,
      "t": 215782.96350000062,
      "d": 361.44550000000163,
      "v": 91
    },
    {
      "midi": 55,
      "hit": false,
      "t": 215782.9635000008,
      "d": 361.44550000000163,
      "v": 73
    },
    {
      "midi": 55,
      "hit": false,
      "t": 216144.40900000063,
      "d": 361.44550000000163,
      "v": 63
    },
    {
      "midi": 59,
      "hit": false,
      "t": 216144.4090000008,
      "d": 722.8910000000033,
      "v": 75
    },
    {
      "midi": 62,
      "hit": false,
      "t": 216144.4090000008,
      "d": 722.8910000000033,
      "v": 75
    },
    {
      "midi": 67,
      "hit": false,
      "t": 216144.4090000008,
      "d": 722.8910000000033,
      "v": 89
    },
    {
      "midi": 43,
      "hit": false,
      "t": 216505.85450000063,
      "d": 361.44550000000163,
      "v": 91
    },
    {
      "midi": 42,
      "hit": false,
      "t": 216867.30000000063,
      "d": 1084.336500000005,
      "v": 96
    },
    {
      "midi": 57,
      "hit": false,
      "t": 216867.3000000008,
      "d": 722.8910000000033,
      "v": 72
    },
    {
      "midi": 62,
      "hit": false,
      "t": 216867.3000000008,
      "d": 722.8910000000033,
      "v": 75
    },
    {
      "midi": 66,
      "hit": false,
      "t": 216867.3000000008,
      "d": 722.8910000000033,
      "v": 88
    },
    {
      "midi": 57,
      "hit": false,
      "t": 217590.1910000008,
      "d": 722.8910000000033,
      "v": 72
    },
    {
      "midi": 62,
      "hit": false,
      "t": 217590.1910000008,
      "d": 722.8910000000033,
      "v": 75
    },
    {
      "midi": 66,
      "hit": false,
      "t": 217590.1910000008,
      "d": 722.8910000000033,
      "v": 85
    },
    {
      "midi": 38,
      "hit": false,
      "t": 217951.63650000063,
      "d": 361.44550000000163,
      "v": 79
    },
    {
      "midi": 38,
      "hit": false,
      "t": 218313.08200000064,
      "d": 361.44550000000163,
      "v": 82
    },
    {
      "midi": 57,
      "hit": false,
      "t": 218313.0820000008,
      "d": 722.8910000000033,
      "v": 76
    },
    {
      "midi": 62,
      "hit": false,
      "t": 218313.0820000008,
      "d": 722.8910000000033,
      "v": 79
    },
    {
      "midi": 66,
      "hit": false,
      "t": 218313.0820000008,
      "d": 722.8910000000033,
      "v": 89
    },
    {
      "midi": 38,
      "hit": false,
      "t": 218674.52750000064,
      "d": 361.44550000000163,
      "v": 79
    },
    {
      "midi": 38,
      "hit": false,
      "t": 219035.97300000064,
      "d": 361.44550000000163,
      "v": 80
    },
    {
      "midi": 57,
      "hit": false,
      "t": 219035.9730000008,
      "d": 361.44550000000163,
      "v": 69
    },
    {
      "midi": 62,
      "hit": false,
      "t": 219035.9730000008,
      "d": 361.44550000000163,
      "v": 74
    },
    {
      "midi": 66,
      "hit": false,
      "t": 219035.9730000008,
      "d": 361.44550000000163,
      "v": 84
    },
    {
      "midi": 38,
      "hit": false,
      "t": 219397.41850000064,
      "d": 361.44550000000163,
      "v": 79
    },
    {
      "midi": 54,
      "hit": false,
      "t": 219397.41850000081,
      "d": 361.44550000000163,
      "v": 69
    },
    {
      "midi": 45,
      "hit": false,
      "t": 219758.86400000064,
      "d": 722.8910000000033,
      "v": 96
    },
    {
      "midi": 57,
      "hit": false,
      "t": 219758.86400000082,
      "d": 722.8910000000033,
      "v": 66
    },
    {
      "midi": 60,
      "hit": false,
      "t": 219758.86400000082,
      "d": 722.8910000000033,
      "v": 75
    },
    {
      "midi": 64,
      "hit": false,
      "t": 219758.86400000082,
      "d": 722.8910000000033,
      "v": 75
    },
    {
      "midi": 69,
      "hit": false,
      "t": 219758.86400000082,
      "d": 722.8910000000033,
      "v": 84
    },
    {
      "midi": 57,
      "hit": false,
      "t": 220481.75500000064,
      "d": 361.44550000000163,
      "v": 66
    },
    {
      "midi": 60,
      "hit": false,
      "t": 220481.75500000082,
      "d": 722.8910000000033,
      "v": 76
    },
    {
      "midi": 64,
      "hit": false,
      "t": 220481.75500000082,
      "d": 722.8910000000033,
      "v": 75
    },
    {
      "midi": 69,
      "hit": false,
      "t": 220481.75500000082,
      "d": 722.8910000000033,
      "v": 85
    },
    {
      "midi": 45,
      "hit": false,
      "t": 220843.20050000065,
      "d": 361.44550000000163,
      "v": 79
    },
    {
      "midi": 45,
      "hit": false,
      "t": 221204.64600000065,
      "d": 361.44550000000163,
      "v": 82
    },
    {
      "midi": 57,
      "hit": false,
      "t": 221204.64600000082,
      "d": 722.8910000000033,
      "v": 70
    },
    {
      "midi": 60,
      "hit": false,
      "t": 221204.64600000082,
      "d": 722.8910000000033,
      "v": 80
    },
    {
      "midi": 64,
      "hit": false,
      "t": 221204.64600000082,
      "d": 722.8910000000033,
      "v": 79
    },
    {
      "midi": 69,
      "hit": false,
      "t": 221204.64600000082,
      "d": 722.8910000000033,
      "v": 89
    },
    {
      "midi": 45,
      "hit": false,
      "t": 221566.09150000065,
      "d": 361.44550000000163,
      "v": 91
    },
    {
      "midi": 57,
      "hit": false,
      "t": 221927.53700000065,
      "d": 361.44550000000163,
      "v": 66
    },
    {
      "midi": 60,
      "hit": false,
      "t": 221927.53700000083,
      "d": 722.8910000000033,
      "v": 76
    },
    {
      "midi": 64,
      "hit": false,
      "t": 221927.53700000083,
      "d": 722.8910000000033,
      "v": 75
    },
    {
      "midi": 69,
      "hit": false,
      "t": 221927.53700000083,
      "d": 722.8910000000033,
      "v": 90
    },
    {
      "midi": 45,
      "hit": false,
      "t": 222288.98250000065,
      "d": 361.44550000000163,
      "v": 91
    },
    {
      "midi": 44,
      "hit": false,
      "t": 222650.42800000065,
      "d": 1084.336500000005,
      "v": 96
    },
    {
      "midi": 56,
      "hit": false,
      "t": 222650.42800000083,
      "d": 722.8910000000033,
      "v": 65
    },
    {
      "midi": 59,
      "hit": false,
      "t": 222650.42800000083,
      "d": 722.8910000000033,
      "v": 76
    },
    {
      "midi": 64,
      "hit": false,
      "t": 222650.42800000083,
      "d": 722.8910000000033,
      "v": 75
    },
    {
      "midi": 68,
      "hit": false,
      "t": 222650.42800000083,
      "d": 722.8910000000033,
      "v": 90
    },
    {
      "midi": 56,
      "hit": false,
      "t": 223373.31900000083,
      "d": 722.8910000000033,
      "v": 63
    },
    {
      "midi": 59,
      "hit": false,
      "t": 223373.31900000083,
      "d": 722.8910000000033,
      "v": 75
    },
    {
      "midi": 64,
      "hit": false,
      "t": 223373.31900000083,
      "d": 722.8910000000033,
      "v": 75
    },
    {
      "midi": 68,
      "hit": false,
      "t": 223373.31900000083,
      "d": 722.8910000000033,
      "v": 86
    },
    {
      "midi": 40,
      "hit": false,
      "t": 223734.76450000066,
      "d": 361.44550000000163,
      "v": 79
    },
    {
      "midi": 40,
      "hit": false,
      "t": 224096.21000000066,
      "d": 361.44550000000163,
      "v": 82
    },
    {
      "midi": 56,
      "hit": false,
      "t": 224096.21000000084,
      "d": 722.8910000000033,
      "v": 66
    },
    {
      "midi": 59,
      "hit": false,
      "t": 224096.21000000084,
      "d": 722.8910000000033,
      "v": 78
    },
    {
      "midi": 64,
      "hit": false,
      "t": 224096.21000000084,
      "d": 722.8910000000033,
      "v": 80
    },
    {
      "midi": 68,
      "hit": false,
      "t": 224096.21000000084,
      "d": 722.8910000000033,
      "v": 90
    },
    {
      "midi": 40,
      "hit": false,
      "t": 224457.65550000066,
      "d": 361.44550000000163,
      "v": 91
    },
    {
      "midi": 56,
      "hit": false,
      "t": 224819.10100000066,
      "d": 361.44550000000163,
      "v": 64
    },
    {
      "midi": 59,
      "hit": false,
      "t": 224819.10100000084,
      "d": 722.8910000000033,
      "v": 75
    },
    {
      "midi": 64,
      "hit": false,
      "t": 224819.10100000084,
      "d": 722.8910000000033,
      "v": 76
    },
    {
      "midi": 68,
      "hit": false,
      "t": 224819.10100000084,
      "d": 722.8910000000033,
      "v": 90
    },
    {
      "midi": 40,
      "hit": false,
      "t": 225180.54650000067,
      "d": 361.44550000000163,
      "v": 91
    },
    {
      "midi": 43,
      "hit": false,
      "t": 225541.99200000067,
      "d": 1084.336500000005,
      "v": 96
    },
    {
      "midi": 55,
      "hit": false,
      "t": 225541.99200000084,
      "d": 722.8910000000033,
      "v": 60
    },
    {
      "midi": 59,
      "hit": false,
      "t": 225541.99200000084,
      "d": 722.8910000000033,
      "v": 72
    },
    {
      "midi": 62,
      "hit": false,
      "t": 225541.99200000084,
      "d": 722.8910000000033,
      "v": 73
    },
    {
      "midi": 67,
      "hit": false,
      "t": 225541.99200000084,
      "d": 722.8910000000033,
      "v": 85
    },
    {
      "midi": 59,
      "hit": false,
      "t": 226264.88300000085,
      "d": 361.44550000000163,
      "v": 72
    },
    {
      "midi": 62,
      "hit": false,
      "t": 226264.88300000085,
      "d": 361.44550000000163,
      "v": 73
    },
    {
      "midi": 67,
      "hit": false,
      "t": 226264.88300000085,
      "d": 361.44550000000163,
      "v": 85
    },
    {
      "midi": 43,
      "hit": false,
      "t": 226626.32850000067,
      "d": 361.44550000000163,
      "v": 79
    },
    {
      "midi": 55,
      "hit": false,
      "t": 226626.32850000085,
      "d": 361.44550000000163,
      "v": 74
    },
    {
      "midi": 43,
      "hit": false,
      "t": 226987.77400000067,
      "d": 361.44550000000163,
      "v": 82
    },
    {
      "midi": 59,
      "hit": false,
      "t": 226987.77400000085,
      "d": 361.44550000000163,
      "v": 75
    },
    {
      "midi": 62,
      "hit": false,
      "t": 226987.77400000085,
      "d": 361.44550000000163,
      "v": 77
    },
    {
      "midi": 67,
      "hit": false,
      "t": 226987.77400000085,
      "d": 361.44550000000163,
      "v": 93
    },
    {
      "midi": 43,
      "hit": false,
      "t": 227349.21950000068,
      "d": 361.44550000000163,
      "v": 91
    },
    {
      "midi": 55,
      "hit": false,
      "t": 227349.21950000085,
      "d": 361.44550000000163,
      "v": 75
    },
    {
      "midi": 55,
      "hit": false,
      "t": 227710.66500000068,
      "d": 361.44550000000163,
      "v": 62
    },
    {
      "midi": 59,
      "hit": false,
      "t": 227710.66500000085,
      "d": 722.8910000000033,
      "v": 75
    },
    {
      "midi": 62,
      "hit": false,
      "t": 227710.66500000085,
      "d": 722.8910000000033,
      "v": 74
    },
    {
      "midi": 67,
      "hit": false,
      "t": 227710.66500000085,
      "d": 722.8910000000033,
      "v": 89
    },
    {
      "midi": 43,
      "hit": false,
      "t": 228072.11050000068,
      "d": 361.44550000000163,
      "v": 91
    },
    {
      "midi": 42,
      "hit": false,
      "t": 228433.55600000068,
      "d": 1084.336500000005,
      "v": 96
    },
    {
      "midi": 57,
      "hit": false,
      "t": 228433.55600000086,
      "d": 722.8910000000033,
      "v": 71
    },
    {
      "midi": 62,
      "hit": false,
      "t": 228433.55600000086,
      "d": 722.8910000000033,
      "v": 74
    },
    {
      "midi": 66,
      "hit": false,
      "t": 228433.55600000086,
      "d": 722.8910000000033,
      "v": 89
    },
    {
      "midi": 57,
      "hit": false,
      "t": 229156.44700000086,
      "d": 722.8910000000033,
      "v": 72
    },
    {
      "midi": 62,
      "hit": false,
      "t": 229156.44700000086,
      "d": 722.8910000000033,
      "v": 74
    },
    {
      "midi": 66,
      "hit": false,
      "t": 229156.44700000086,
      "d": 722.8910000000033,
      "v": 85
    },
    {
      "midi": 38,
      "hit": false,
      "t": 229517.8925000007,
      "d": 361.44550000000163,
      "v": 79
    },
    {
      "midi": 38,
      "hit": false,
      "t": 229879.3380000007,
      "d": 361.44550000000163,
      "v": 82
    },
    {
      "midi": 57,
      "hit": false,
      "t": 229879.33800000086,
      "d": 722.8910000000033,
      "v": 76
    },
    {
      "midi": 62,
      "hit": false,
      "t": 229879.33800000086,
      "d": 722.8910000000033,
      "v": 79
    },
    {
      "midi": 66,
      "hit": false,
      "t": 229879.33800000086,
      "d": 722.8910000000033,
      "v": 89
    },
    {
      "midi": 38,
      "hit": false,
      "t": 230240.7835000007,
      "d": 361.44550000000163,
      "v": 79
    },
    {
      "midi": 38,
      "hit": false,
      "t": 230602.2290000007,
      "d": 361.44550000000163,
      "v": 80
    },
    {
      "midi": 57,
      "hit": false,
      "t": 230602.22900000087,
      "d": 722.8910000000033,
      "v": 72
    },
    {
      "midi": 62,
      "hit": false,
      "t": 230602.22900000087,
      "d": 722.8910000000033,
      "v": 75
    },
    {
      "midi": 66,
      "hit": false,
      "t": 230602.22900000087,
      "d": 722.8910000000033,
      "v": 89
    },
    {
      "midi": 38,
      "hit": false,
      "t": 230963.6745000007,
      "d": 361.44550000000163,
      "v": 79
    },
    {
      "midi": 41,
      "hit": false,
      "t": 231325.1200000007,
      "d": 1084.336500000005,
      "v": 91
    },
    {
      "midi": 53,
      "hit": false,
      "t": 231325.12000000087,
      "d": 722.8910000000033,
      "v": 62
    },
    {
      "midi": 57,
      "hit": false,
      "t": 231325.12000000087,
      "d": 722.8910000000033,
      "v": 71
    },
    {
      "midi": 60,
      "hit": false,
      "t": 231325.12000000087,
      "d": 722.8910000000033,
      "v": 74
    },
    {
      "midi": 65,
      "hit": false,
      "t": 231325.12000000087,
      "d": 722.8910000000033,
      "v": 88
    },
    {
      "midi": 57,
      "hit": false,
      "t": 232048.01100000087,
      "d": 722.8910000000033,
      "v": 70
    },
    {
      "midi": 60,
      "hit": false,
      "t": 232048.01100000087,
      "d": 722.8910000000033,
      "v": 86
    },
    {
      "midi": 53,
      "hit": false,
      "t": 232409.4565000007,
      "d": 722.8910000000033,
      "v": 71
    },
    {
      "midi": 57,
      "hit": false,
      "t": 232770.90200000087,
      "d": 722.8910000000033,
      "v": 74
    },
    {
      "midi": 62,
      "hit": false,
      "t": 232770.90200000087,
      "d": 722.8910000000033,
      "v": 92
    },
    {
      "midi": 53,
      "hit": false,
      "t": 233132.3475000007,
      "d": 722.8910000000033,
      "v": 69
    },
    {
      "midi": 57,
      "hit": false,
      "t": 233493.79300000088,
      "d": 722.8910000000033,
      "v": 69
    },
    {
      "midi": 60,
      "hit": false,
      "t": 233493.79300000088,
      "d": 722.8910000000033,
      "v": 86
    },
    {
      "midi": 53,
      "hit": false,
      "t": 233855.2385000007,
      "d": 361.44550000000163,
      "v": 66
    },
    {
      "midi": 42,
      "hit": false,
      "t": 234216.6840000007,
      "d": 361.44550000000163,
      "v": 91
    },
    {
      "midi": 57,
      "hit": false,
      "t": 234216.68400000088,
      "d": 722.8910000000033,
      "v": 68
    },
    {
      "midi": 62,
      "hit": false,
      "t": 234216.68400000088,
      "d": 722.8910000000033,
      "v": 86
    },
    {
      "midi": 54,
      "hit": false,
      "t": 234578.1295000007,
      "d": 722.8910000000033,
      "v": 70
    },
    {
      "midi": 57,
      "hit": false,
      "t": 234939.57500000088,
      "d": 722.8910000000033,
      "v": 69
    },
    {
      "midi": 62,
      "hit": false,
      "t": 234939.57500000088,
      "d": 722.8910000000033,
      "v": 87
    },
    {
      "midi": 54,
      "hit": false,
      "t": 235301.0205000007,
      "d": 361.44550000000163,
      "v": 74
    },
    {
      "midi": 54,
      "hit": false,
      "t": 235662.4660000007,
      "d": 722.8910000000033,
      "v": 70
    },
    {
      "midi": 57,
      "hit": false,
      "t": 235662.4660000009,
      "d": 722.8910000000033,
      "v": 74
    },
    {
      "midi": 64,
      "hit": false,
      "t": 235662.4660000009,
      "d": 722.8910000000033,
      "v": 93
    },
    {
      "midi": 54,
      "hit": false,
      "t": 236385.35700000072,
      "d": 361.44550000000163,
      "v": 54
    },
    {
      "midi": 57,
      "hit": false,
      "t": 236385.3570000009,
      "d": 722.8910000000033,
      "v": 59
    },
    {
      "midi": 62,
      "hit": false,
      "t": 236385.3570000009,
      "d": 722.8910000000033,
      "v": 76
    },
    {
      "midi": 54,
      "hit": false,
      "t": 236746.80250000072,
      "d": 361.44550000000163,
      "v": 60
    },
    {
      "midi": 41,
      "hit": false,
      "t": 237108.24800000072,
      "d": 1084.336500000005,
      "v": 91
    },
    {
      "midi": 53,
      "hit": false,
      "t": 237108.2480000009,
      "d": 722.8910000000033,
      "v": 64
    },
    {
      "midi": 57,
      "hit": false,
      "t": 237108.2480000009,
      "d": 722.8910000000033,
      "v": 83
    },
    {
      "midi": 57,
      "hit": false,
      "t": 237831.1390000009,
      "d": 722.8910000000033,
      "v": 68
    },
    {
      "midi": 60,
      "hit": false,
      "t": 237831.1390000009,
      "d": 722.8910000000033,
      "v": 86
    },
    {
      "midi": 53,
      "hit": false,
      "t": 238192.58450000072,
      "d": 722.8910000000033,
      "v": 71
    },
    {
      "midi": 57,
      "hit": false,
      "t": 238554.0300000009,
      "d": 722.8910000000033,
      "v": 73
    },
    {
      "midi": 62,
      "hit": false,
      "t": 238554.0300000009,
      "d": 722.8910000000033,
      "v": 91
    },
    {
      "midi": 53,
      "hit": false,
      "t": 238915.47550000073,
      "d": 722.8910000000033,
      "v": 71
    },
    {
      "midi": 57,
      "hit": false,
      "t": 239276.9210000009,
      "d": 722.8910000000033,
      "v": 70
    },
    {
      "midi": 60,
      "hit": false,
      "t": 239276.9210000009,
      "d": 722.8910000000033,
      "v": 86
    },
    {
      "midi": 53,
      "hit": false,
      "t": 239638.36650000073,
      "d": 361.44550000000163,
      "v": 67
    },
    {
      "midi": 42,
      "hit": false,
      "t": 239999.81200000073,
      "d": 361.44550000000163,
      "v": 96
    },
    {
      "midi": 57,
      "hit": false,
      "t": 239999.8120000009,
      "d": 722.8910000000033,
      "v": 67
    },
    {
      "midi": 62,
      "hit": false,
      "t": 239999.8120000009,
      "d": 722.8910000000033,
      "v": 85
    },
    {
      "midi": 54,
      "hit": false,
      "t": 240361.25750000073,
      "d": 722.8910000000033,
      "v": 69
    },
    {
      "midi": 57,
      "hit": false,
      "t": 240722.7030000009,
      "d": 722.8910000000033,
      "v": 69
    },
    {
      "midi": 62,
      "hit": false,
      "t": 240722.7030000009,
      "d": 722.8910000000033,
      "v": 86
    },
    {
      "midi": 54,
      "hit": false,
      "t": 241084.14850000074,
      "d": 361.44550000000163,
      "v": 74
    },
    {
      "midi": 44,
      "hit": false,
      "t": 241445.59400000074,
      "d": 361.44550000000163,
      "v": 94
    },
    {
      "midi": 59,
      "hit": false,
      "t": 241445.5940000009,
      "d": 722.8910000000033,
      "v": 75
    },
    {
      "midi": 64,
      "hit": false,
      "t": 241445.5940000009,
      "d": 722.8910000000033,
      "v": 92
    },
    {
      "midi": 54,
      "hit": false,
      "t": 241807.03950000074,
      "d": 722.8910000000033,
      "v": 73
    },
    {
      "midi": 59,
      "hit": false,
      "t": 242168.48500000092,
      "d": 722.8910000000033,
      "v": 72
    },
    {
      "midi": 64,
      "hit": false,
      "t": 242168.48500000092,
      "d": 722.8910000000033,
      "v": 87
    },
    {
      "midi": 54,
      "hit": false,
      "t": 242529.93050000074,
      "d": 361.44550000000163,
      "v": 69
    },
    {
      "midi": 45,
      "hit": false,
      "t": 242891.37600000075,
      "d": 90.36137500000768,
      "v": 101
    },
    {
      "midi": 60,
      "hit": false,
      "t": 242891.37600000092,
      "d": 90.36137500000768,
      "v": 79
    },
    {
      "midi": 64,
      "hit": false,
      "t": 242981.73737500093,
      "d": 542.1682499999879,
      "v": 80
    },
    {
      "midi": 69,
      "hit": false,
      "t": 242981.73737500093,
      "d": 542.1682499999879,
      "v": 79
    },
    {
      "midi": 72,
      "hit": false,
      "t": 242981.73737500093,
      "d": 542.1682499999879,
      "v": 93
    }
  ]
}