{
  "jsonPath": "Rock/Yacht Rock/Michael Franks/tiger-in-the-rain-remastered-album-version.json",
  "path": "Rock\\Yacht Rock\\Michael Franks\\Tiger In The Rain (Remastered Album Version).mid",
  "name": "Tiger In The Rain (Remastered Album Version)",
  "difficulty": "Advanced",
  "bpm": 120,
  "notes": [
    {
      "midi": 49,
      "hit": false,
      "t": 5581.392,
      "d": 1220.9295000000002,
      "v": 64
    },
    {
      "midi": 77,
      "hit": false,
      "t": 5581.392,
      "d": 372.09279999999944,
      "v": 75
    },
    {
      "midi": 73,
      "hit": false,
      "t": 5581.392,
      "d": 877.9064499999995,
      "v": 62
    },
    {
      "midi": 68,
      "hit": false,
      "t": 5581.392,
      "d": 1215.1155499999995,
      "v": 81
    },
    {
      "midi": 63,
      "hit": false,
      "t": 5587.20595,
      "d": 360.46489999999994,
      "v": 81
    },
    {
      "midi": 61,
      "hit": false,
      "t": 5930.228999999999,
      "d": 389.5346499999996,
      "v": 76
    },
    {
      "midi": 75,
      "hit": false,
      "t": 5930.228999999999,
      "d": 744.1855999999998,
      "v": 86
    },
    {
      "midi": 56,
      "hit": false,
      "t": 6313.949699999999,
      "d": 1220.9295000000002,
      "v": 75
    },
    {
      "midi": 63,
      "hit": false,
      "t": 6627.902999999999,
      "d": 1709.3013,
      "v": 67
    },
    {
      "midi": 73,
      "hit": false,
      "t": 6627.902999999999,
      "d": 982.5575500000004,
      "v": 86
    },
    {
      "midi": 60,
      "hit": false,
      "t": 6662.7867,
      "d": 825.5808999999999,
      "v": 61
    },
    {
      "midi": 68,
      "hit": false,
      "t": 6976.74,
      "d": 1220.9295000000002,
      "v": 92
    },
    {
      "midi": 73,
      "hit": false,
      "t": 7674.414,
      "d": 563.9531500000003,
      "v": 83
    },
    {
      "midi": 56,
      "hit": false,
      "t": 7680.2279499999995,
      "d": 668.6042499999994,
      "v": 67
    },
    {
      "midi": 61,
      "hit": false,
      "t": 7691.85585,
      "d": 651.1623999999993,
      "v": 76
    },
    {
      "midi": 75,
      "hit": false,
      "t": 8372.088,
      "d": 715.1158499999983,
      "v": 94
    },
    {
      "midi": 67,
      "hit": false,
      "t": 8389.529849999999,
      "d": 872.0924999999988,
      "v": 79
    },
    {
      "midi": 63,
      "hit": false,
      "t": 8395.343799999999,
      "d": 813.9529999999995,
      "v": 71
    },
    {
      "midi": 67,
      "hit": false,
      "t": 8720.925,
      "d": 965.1156999999985,
      "v": 77
    },
    {
      "midi": 56,
      "hit": false,
      "t": 9069.761999999999,
      "d": 1232.5573999999997,
      "v": 66
    },
    {
      "midi": 72,
      "hit": false,
      "t": 9069.761999999999,
      "d": 517.4415499999996,
      "v": 80
    },
    {
      "midi": 63,
      "hit": false,
      "t": 9418.598999999998,
      "d": 1715.115249999999,
      "v": 69
    },
    {
      "midi": 72,
      "hit": false,
      "t": 9436.040849999998,
      "d": 866.2785500000009,
      "v": 69
    },
    {
      "midi": 72,
      "hit": false,
      "t": 9767.435999999998,
      "d": 1372.0921999999991,
      "v": 85
    },
    {
      "midi": 67,
      "hit": false,
      "t": 10104.645099999998,
      "d": 988.3715000000011,
      "v": 78
    },
    {
      "midi": 67,
      "hit": false,
      "t": 10116.272999999997,
      "d": 982.5575499999995,
      "v": 78
    },
    {
      "midi": 63,
      "hit": false,
      "t": 10441.854199999998,
      "d": 610.464750000001,
      "v": 62
    },
    {
      "midi": 60,
      "hit": false,
      "t": 10813.946999999998,
      "d": 383.72070000000167,
      "v": 60
    },
    {
      "midi": 75,
      "hit": false,
      "t": 11162.784,
      "d": 877.9064500000004,
      "v": 62
    },
    {
      "midi": 70,
      "hit": false,
      "t": 11174.4119,
      "d": 906.976200000001,
      "v": 70
    },
    {
      "midi": 66,
      "hit": false,
      "t": 11174.4119,
      "d": 924.4180500000002,
      "v": 76
    },
    {
      "midi": 58,
      "hit": false,
      "t": 11488.3652,
      "d": 924.4180499999984,
      "v": 63
    },
    {
      "midi": 82,
      "hit": false,
      "t": 11546.504699999998,
      "d": 941.8598999999977,
      "v": 89
    },
    {
      "midi": 78,
      "hit": false,
      "t": 11860.457999999997,
      "d": 1691.85945,
      "v": 86
    },
    {
      "midi": 54,
      "hit": false,
      "t": 11860.458,
      "d": 924.4180499999984,
      "v": 69
    },
    {
      "midi": 63,
      "hit": false,
      "t": 12215.108949999996,
      "d": 965.1157000000003,
      "v": 69
    },
    {
      "midi": 73,
      "hit": false,
      "t": 12220.9229,
      "d": 686.0460999999996,
      "v": 66
    },
    {
      "midi": 66,
      "hit": false,
      "t": 12220.9229,
      "d": 999.9994000000006,
      "v": 63
    },
    {
      "midi": 66,
      "hit": false,
      "t": 12232.550799999995,
      "d": 918.6041000000005,
      "v": 77
    },
    {
      "midi": 70,
      "hit": false,
      "t": 12232.550799999999,
      "d": 1668.6036500000027,
      "v": 68
    },
    {
      "midi": 75,
      "hit": false,
      "t": 12238.364749999995,
      "d": 1453.487500000001,
      "v": 77
    },
    {
      "midi": 58,
      "hit": false,
      "t": 12930.2248,
      "d": 924.418050000002,
      "v": 69
    },
    {
      "midi": 75,
      "hit": false,
      "t": 12941.8527,
      "d": 732.5577000000012,
      "v": 60
    },
    {
      "midi": 73,
      "hit": false,
      "t": 13255.806,
      "d": 575.5810500000007,
      "v": 75
    },
    {
      "midi": 63,
      "hit": false,
      "t": 13261.619949999997,
      "d": 598.8368499999997,
      "v": 65
    },
    {
      "midi": 66,
      "hit": false,
      "t": 13267.4339,
      "d": 604.6508000000013,
      "v": 62
    },
    {
      "midi": 70,
      "hit": false,
      "t": 13953.479999999996,
      "d": 773.2553499999995,
      "v": 80
    },
    {
      "midi": 65,
      "hit": false,
      "t": 13970.921850000002,
      "d": 872.0924999999988,
      "v": 79
    },
    {
      "midi": 61,
      "hit": false,
      "t": 13976.735800000002,
      "d": 813.9529999999995,
      "v": 71
    },
    {
      "midi": 77,
      "hit": false,
      "t": 14302.316999999995,
      "d": 412.7904500000004,
      "v": 88
    },
    {
      "midi": 73,
      "hit": false,
      "t": 14651.153999999995,
      "d": 424.4183499999999,
      "v": 84
    },
    {
      "midi": 54,
      "hit": false,
      "t": 14651.154000000002,
      "d": 1232.5573999999997,
      "v": 66
    },
    {
      "midi": 70,
      "hit": false,
      "t": 14999.990999999995,
      "d": 767.4414000000015,
      "v": 88
    },
    {
      "midi": 70,
      "hit": false,
      "t": 15017.432850000001,
      "d": 866.2785500000009,
      "v": 69
    },
    {
      "midi": 58,
      "hit": false,
      "t": 15348.828000000001,
      "d": 674.4182000000001,
      "v": 66
    },
    {
      "midi": 65,
      "hit": false,
      "t": 15686.037100000001,
      "d": 988.3714999999975,
      "v": 78
    },
    {
      "midi": 65,
      "hit": false,
      "t": 15697.664999999995,
      "d": 970.92965,
      "v": 78
    },
    {
      "midi": 61,
      "hit": false,
      "t": 16023.246200000001,
      "d": 610.4647499999992,
      "v": 62
    },
    {
      "midi": 61,
      "hit": false,
      "t": 16046.501999999997,
      "d": 633.7205499999982,
      "v": 77
    },
    {
      "midi": 58,
      "hit": false,
      "t": 16395.339,
      "d": 383.72069999999803,
      "v": 60
    },
    {
      "midi": 76,
      "hit": false,
      "t": 16744.175999999996,
      "d": 843.0227500000001,
      "v": 85
    },
    {
      "midi": 64,
      "hit": false,
      "t": 16744.176,
      "d": 668.6042500000003,
      "v": 72
    },
    {
      "midi": 61,
      "hit": false,
      "t": 16749.98995,
      "d": 529.069449999999,
      "v": 71
    },
    {
      "midi": 73,
      "hit": false,
      "t": 17093.012999999995,
      "d": 837.2088000000003,
      "v": 92
    },
    {
      "midi": 56,
      "hit": false,
      "t": 17093.013,
      "d": 1430.2317000000003,
      "v": 58
    },
    {
      "midi": 80,
      "hit": false,
      "t": 17441.849999999995,
      "d": 941.8598999999995,
      "v": 85
    },
    {
      "midi": 61,
      "hit": false,
      "t": 17453.477899999998,
      "d": 732.5577000000012,
      "v": 66
    },
    {
      "midi": 68,
      "hit": false,
      "t": 17790.686999999994,
      "d": 1116.2783999999992,
      "v": 88
    },
    {
      "midi": 64,
      "hit": false,
      "t": 17790.686999999998,
      "d": 1738.371049999998,
      "v": 78
    },
    {
      "midi": 76,
      "hit": false,
      "t": 18488.360999999994,
      "d": 1046.5109999999986,
      "v": 83
    },
    {
      "midi": 61,
      "hit": false,
      "t": 18546.5005,
      "d": 947.6738499999992,
      "v": 70
    },
    {
      "midi": 73,
      "hit": false,
      "t": 18837.197999999993,
      "d": 715.1158499999983,
      "v": 92
    },
    {
      "midi": 56,
      "hit": false,
      "t": 18866.26775,
      "d": 627.9065999999984,
      "v": 65
    },
    {
      "midi": 68,
      "hit": false,
      "t": 19186.034999999993,
      "d": 348.83699999999953,
      "v": 83
    },
    {
      "midi": 75,
      "hit": false,
      "t": 19534.871999999992,
      "d": 872.0924999999988,
      "v": 81
    },
    {
      "midi": 52,
      "hit": false,
      "t": 19534.871999999996,
      "d": 1930.2314000000006,
      "v": 63
    },
    {
      "midi": 68,
      "hit": false,
      "t": 19546.499899999995,
      "d": 1383.7201000000023,
      "v": 74
    },
    {
      "midi": 63,
      "hit": false,
      "t": 19825.569499999994,
      "d": 1587.2083500000044,
      "v": 67
    },
    {
      "midi": 68,
      "hit": false,
      "t": 19883.70899999999,
      "d": 732.5576999999976,
      "v": 80
    },
    {
      "midi": 71,
      "hit": false,
      "t": 20232.54599999999,
      "d": 877.9064499999986,
      "v": 93
    },
    {
      "midi": 59,
      "hit": false,
      "t": 20232.545999999995,
      "d": 534.8834000000024,
      "v": 69
    },
    {
      "midi": 56,
      "hit": false,
      "t": 20534.871399999996,
      "d": 581.3950000000004,
      "v": 61
    },
    {
      "midi": 63,
      "hit": false,
      "t": 20581.38299999999,
      "d": 755.8135000000002,
      "v": 67
    },
    {
      "midi": 59,
      "hit": false,
      "t": 20912.77815,
      "d": 540.6973499999986,
      "v": 66
    },
    {
      "midi": 75,
      "hit": false,
      "t": 21279.05699999999,
      "d": 726.7437499999978,
      "v": 78
    },
    {
      "midi": 56,
      "hit": false,
      "t": 21284.870949999997,
      "d": 889.5343499999981,
      "v": 73
    },
    {
      "midi": 68,
      "hit": false,
      "t": 21627.89399999999,
      "d": 436.0462499999994,
      "v": 84
    },
    {
      "midi": 59,
      "hit": false,
      "t": 21639.521899999996,
      "d": 639.5344999999979,
      "v": 68
    },
    {
      "midi": 63,
      "hit": false,
      "t": 21645.335849999996,
      "d": 651.1623999999974,
      "v": 60
    },
    {
      "midi": 71,
      "hit": false,
      "t": 21976.73099999999,
      "d": 313.95330000000104,
      "v": 79
    },
    {
      "midi": 58,
      "hit": false,
      "t": 22325.567999999992,
      "d": 1040.6970499999989,
      "v": 73
    },
    {
      "midi": 73,
      "hit": false,
      "t": 22331.381949999988,
      "d": 1075.5807499999974,
      "v": 80
    },
    {
      "midi": 61,
      "hit": false,
      "t": 22348.82379999999,
      "d": 744.1856000000007,
      "v": 70
    },
    {
      "midi": 77,
      "hit": false,
      "t": 22680.218949999988,
      "d": 697.6739999999991,
      "v": 74
    },
    {
      "midi": 70,
      "hit": false,
      "t": 23023.241999999987,
      "d": 1040.6970499999952,
      "v": 81
    },
    {
      "midi": 65,
      "hit": false,
      "t": 23040.68384999999,
      "d": 1052.3249499999984,
      "v": 61
    },
    {
      "midi": 80,
      "hit": false,
      "t": 23348.823199999988,
      "d": 447.6741499999953,
      "v": 81
    },
    {
      "midi": 61,
      "hit": false,
      "t": 23401.14874999999,
      "d": 1703.4873499999994,
      "v": 68
    },
    {
      "midi": 77,
      "hit": false,
      "t": 23691.846249999984,
      "d": 1023.255199999996,
      "v": 83
    },
    {
      "midi": 58,
      "hit": false,
      "t": 24069.75299999999,
      "d": 999.9994000000006,
      "v": 75
    },
    {
      "midi": 73,
      "hit": false,
      "t": 24087.19484999998,
      "d": 686.0460999999996,
      "v": 81
    },
    {
      "midi": 70,
      "hit": false,
      "t": 24436.03184999998,
      "d": 593.0228999999999,
      "v": 80
    },
    {
      "midi": 65,
      "hit": false,
      "t": 24441.84579999999,
      "d": 674.4182000000001,
      "v": 68
    },
    {
      "midi": 53,
      "hit": false,
      "t": 24767.42699999999,
      "d": 348.83699999999953,
      "v": 52
    },
    {
      "midi": 70,
      "hit": false,
      "t": 25116.26399999998,
      "d": 1069.7667999999976,
      "v": 80
    },
    {
      "midi": 63,
      "hit": false,
      "t": 25127.891899999988,
      "d": 569.7670999999973,
      "v": 59
    },
    {
      "midi": 58,
      "hit": false,
      "t": 25133.705849999988,
      "d": 563.9531499999975,
      "v": 66
    },
    {
      "midi": 65,
      "hit": false,
      "t": 25139.519799999987,
      "d": 441.86019999999917,
      "v": 56
    },
    {
      "midi": 82,
      "hit": false,
      "t": 25465.10099999998,
      "d": 2023.2545999999966,
      "v": 81
    },
    {
      "midi": 79,
      "hit": false,
      "t": 25813.93799999998,
      "d": 808.139049999998,
      "v": 76
    },
    {
      "midi": 58,
      "hit": false,
      "t": 25831.379849999987,
      "d": 709.3018999999986,
      "v": 68
    },
    {
      "midi": 63,
      "hit": false,
      "t": 25831.379849999987,
      "d": 1215.1155499999986,
      "v": 62
    },
    {
      "midi": 65,
      "hit": false,
      "t": 25831.379849999987,
      "d": 1465.1153999999988,
      "v": 60
    },
    {
      "midi": 75,
      "hit": false,
      "t": 26162.77499999998,
      "d": 831.3948500000006,
      "v": 89
    },
    {
      "midi": 51,
      "hit": false,
      "t": 26162.774999999987,
      "d": 1441.8596000000034,
      "v": 62
    },
    {
      "midi": 73,
      "hit": false,
      "t": 26511.61199999998,
      "d": 662.7903000000006,
      "v": 82
    },
    {
      "midi": 70,
      "hit": false,
      "t": 26860.44899999998,
      "d": 773.2553499999995,
      "v": 66
    },
    {
      "midi": 58,
      "hit": false,
      "t": 26860.448999999986,
      "d": 563.9531500000012,
      "v": 65
    },
    {
      "midi": 73,
      "hit": false,
      "t": 27209.28599999998,
      "d": 662.7903000000006,
      "v": 76
    },
    {
      "midi": 63,
      "hit": false,
      "t": 27232.541799999985,
      "d": 627.9066000000057,
      "v": 62
    },
    {
      "midi": 61,
      "hit": false,
      "t": 27238.355749999984,
      "d": 505.8136500000073,
      "v": 77
    },
    {
      "midi": 58,
      "hit": false,
      "t": 27558.12299999999,
      "d": 302.32540000000154,
      "v": 63
    },
    {
      "midi": 77,
      "hit": false,
      "t": 27906.959999999977,
      "d": 372.09279999999853,
      "v": 75
    },
    {
      "midi": 73,
      "hit": false,
      "t": 27906.959999999977,
      "d": 877.9064499999986,
      "v": 62
    },
    {
      "midi": 68,
      "hit": false,
      "t": 27906.959999999977,
      "d": 1215.1155499999986,
      "v": 81
    },
    {
      "midi": 49,
      "hit": false,
      "t": 27906.959999999992,
      "d": 1220.9294999999984,
      "v": 64
    },
    {
      "midi": 63,
      "hit": false,
      "t": 27912.77394999999,
      "d": 360.46489999999903,
      "v": 81
    },
    {
      "midi": 75,
      "hit": false,
      "t": 28255.796999999977,
      "d": 744.1856000000007,
      "v": 86
    },
    {
      "midi": 61,
      "hit": false,
      "t": 28255.79699999999,
      "d": 389.5346499999978,
      "v": 76
    },
    {
      "midi": 56,
      "hit": false,
      "t": 28639.51769999999,
      "d": 1220.929500000002,
      "v": 75
    },
    {
      "midi": 73,
      "hit": false,
      "t": 28953.470999999976,
      "d": 982.5575499999977,
      "v": 86
    },
    {
      "midi": 63,
      "hit": false,
      "t": 28953.47099999999,
      "d": 1093.0226000000002,
      "v": 67
    },
    {
      "midi": 60,
      "hit": false,
      "t": 28988.35469999999,
      "d": 825.5809000000008,
      "v": 61
    },
    {
      "midi": 68,
      "hit": false,
      "t": 29302.307999999975,
      "d": 1220.9294999999984,
      "v": 92
    },
    {
      "midi": 73,
      "hit": false,
      "t": 29999.981999999975,
      "d": 563.9531499999975,
      "v": 83
    },
    {
      "midi": 56,
      "hit": false,
      "t": 30005.795949999992,
      "d": 668.6042499999967,
      "v": 67
    },
    {
      "midi": 61,
      "hit": false,
      "t": 30017.423849999992,
      "d": 651.1623999999974,
      "v": 76
    },
    {
      "midi": 63,
      "hit": false,
      "t": 30348.818999999992,
      "d": 279.0695999999989,
      "v": 67
    },
    {
      "midi": 75,
      "hit": false,
      "t": 30697.655999999974,
      "d": 715.1158499999983,
      "v": 94
    },
    {
      "midi": 67,
      "hit": false,
      "t": 30715.097849999987,
      "d": 872.0925000000025,
      "v": 79
    },
    {
      "midi": 63,
      "hit": false,
      "t": 30720.911799999987,
      "d": 813.9530000000013,
      "v": 71
    },
    {
      "midi": 67,
      "hit": false,
      "t": 31046.492999999973,
      "d": 965.1156999999985,
      "v": 77
    },
    {
      "midi": 72,
      "hit": false,
      "t": 31395.329999999973,
      "d": 517.4415499999996,
      "v": 80
    },
    {
      "midi": 56,
      "hit": false,
      "t": 31395.329999999987,
      "d": 1232.5574000000015,
      "v": 66
    },
    {
      "midi": 63,
      "hit": false,
      "t": 31744.166999999972,
      "d": 1715.1152499999953,
      "v": 69
    },
    {
      "midi": 72,
      "hit": false,
      "t": 31761.60884999999,
      "d": 866.2785499999991,
      "v": 69
    },
    {
      "midi": 72,
      "hit": false,
      "t": 32093.00399999997,
      "d": 1372.0921999999991,
      "v": 85
    },
    {
      "midi": 67,
      "hit": false,
      "t": 32430.21309999999,
      "d": 988.3715000000047,
      "v": 78
    },
    {
      "midi": 67,
      "hit": false,
      "t": 32441.84099999997,
      "d": 982.5575499999977,
      "v": 78
    },
    {
      "midi": 63,
      "hit": false,
      "t": 32767.42219999999,
      "d": 372.09280000000217,
      "v": 62
    },
    {
      "midi": 65,
      "hit": false,
      "t": 33116.25919999999,
      "d": 325.58120000000054,
      "v": 68
    },
    {
      "midi": 60,
      "hit": false,
      "t": 33139.51499999999,
      "d": 383.72069999999803,
      "v": 60
    },
    {
      "midi": 75,
      "hit": false,
      "t": 33488.35199999999,
      "d": 877.9064500000022,
      "v": 62
    },
    {
      "midi": 70,
      "hit": false,
      "t": 33499.97989999999,
      "d": 906.9762000000046,
      "v": 70
    },
    {
      "midi": 66,
      "hit": false,
      "t": 33499.97989999999,
      "d": 924.4180500000075,
      "v": 76
    },
    {
      "midi": 58,
      "hit": false,
      "t": 33813.93319999999,
      "d": 924.4180500000148,
      "v": 63
    },
    {
      "midi": 82,
      "hit": false,
      "t": 33872.07269999997,
      "d": 941.8599000000104,
      "v": 89
    },
    {
      "midi": 78,
      "hit": false,
      "t": 34186.02599999997,
      "d": 1691.8594500000108,
      "v": 86
    },
    {
      "midi": 54,
      "hit": false,
      "t": 34186.02599999999,
      "d": 924.4180500000148,
      "v": 69
    },
    {
      "midi": 63,
      "hit": false,
      "t": 34540.67694999997,
      "d": 965.1157000000094,
      "v": 69
    },
    {
      "midi": 63,
      "hit": false,
      "t": 34540.67695,
      "d": 999.9994000000006,
      "v": 70
    },
    {
      "midi": 73,
      "hit": false,
      "t": 34546.490900000004,
      "d": 686.0460999999996,
      "v": 66
    },
    {
      "midi": 66,
      "hit": false,
      "t": 34558.118799999975,
      "d": 918.6041000000041,
      "v": 77
    },
    {
      "midi": 70,
      "hit": false,
      "t": 34558.118800000004,
      "d": 1668.6036499999973,
      "v": 68
    },
    {
      "midi": 75,
      "hit": false,
      "t": 34563.93274999998,
      "d": 1453.487500000003,
      "v": 77
    },
    {
      "midi": 58,
      "hit": false,
      "t": 35255.7928,
      "d": 924.418049999993,
      "v": 69
    },
    {
      "midi": 75,
      "hit": false,
      "t": 35267.4207,
      "d": 732.5576999999976,
      "v": 60
    },
    {
      "midi": 73,
      "hit": false,
      "t": 35581.374,
      "d": 575.5810499999934,
      "v": 75
    },
    {
      "midi": 63,
      "hit": false,
      "t": 35587.18794999998,
      "d": 598.8368499999997,
      "v": 65
    },
    {
      "midi": 66,
      "hit": false,
      "t": 35593.0019,
      "d": 604.6507999999958,
      "v": 62
    },
    {
      "midi": 70,
      "hit": false,
      "t": 36279.04799999998,
      "d": 773.2553499999995,
      "v": 80
    },
    {
      "midi": 70,
      "hit": false,
      "t": 36279.048,
      "d": 872.0925000000061,
      "v": 61
    },
    {
      "midi": 65,
      "hit": false,
      "t": 36296.489850000005,
      "d": 872.0925000000061,
      "v": 79
    },
    {
      "midi": 61,
      "hit": false,
      "t": 36302.30380000001,
      "d": 813.9530000000013,
      "v": 71
    },
    {
      "midi": 77,
      "hit": false,
      "t": 36627.88499999998,
      "d": 412.7904500000004,
      "v": 88
    },
    {
      "midi": 54,
      "hit": false,
      "t": 36627.88500000001,
      "d": 1232.5574000000051,
      "v": 66
    },
    {
      "midi": 73,
      "hit": false,
      "t": 36976.72199999998,
      "d": 424.4183499999999,
      "v": 84
    },
    {
      "midi": 58,
      "hit": false,
      "t": 36976.72200000001,
      "d": 441.8602000000028,
      "v": 66
    },
    {
      "midi": 70,
      "hit": false,
      "t": 37325.55899999998,
      "d": 767.4413999999961,
      "v": 88
    },
    {
      "midi": 61,
      "hit": false,
      "t": 37325.55900000001,
      "d": 697.6740000000063,
      "v": 66
    },
    {
      "midi": 73,
      "hit": false,
      "t": 37325.55900000001,
      "d": 866.2785500000027,
      "v": 69
    },
    {
      "midi": 70,
      "hit": false,
      "t": 37343.00085000001,
      "d": 866.2785500000027,
      "v": 69
    },
    {
      "midi": 58,
      "hit": false,
      "t": 37674.396000000015,
      "d": 674.4182000000001,
      "v": 66
    },
    {
      "midi": 65,
      "hit": false,
      "t": 38011.605100000015,
      "d": 988.3715000000011,
      "v": 78
    },
    {
      "midi": 65,
      "hit": false,
      "t": 38023.23299999998,
      "d": 970.9296499999982,
      "v": 78
    },
    {
      "midi": 61,
      "hit": false,
      "t": 38348.814200000015,
      "d": 610.4647499999992,
      "v": 62
    },
    {
      "midi": 61,
      "hit": false,
      "t": 38372.06999999998,
      "d": 633.7205499999982,
      "v": 77
    },
    {
      "midi": 58,
      "hit": false,
      "t": 38720.907000000014,
      "d": 383.7207000000053,
      "v": 60
    },
    {
      "midi": 76,
      "hit": false,
      "t": 39069.74399999998,
      "d": 843.0227499999964,
      "v": 85
    },
    {
      "midi": 64,
      "hit": false,
      "t": 39069.74400000001,
      "d": 668.604250000004,
      "v": 72
    },
    {
      "midi": 73,
      "hit": false,
      "t": 39069.74400000001,
      "d": 668.604250000004,
      "v": 72
    },
    {
      "midi": 61,
      "hit": false,
      "t": 39075.55795000002,
      "d": 529.0694500000027,
      "v": 71
    },
    {
      "midi": 73,
      "hit": false,
      "t": 39418.58099999998,
      "d": 837.2088000000003,
      "v": 92
    },
    {
      "midi": 56,
      "hit": false,
      "t": 39418.58100000002,
      "d": 1430.2316999999966,
      "v": 58
    },
    {
      "midi": 80,
      "hit": false,
      "t": 39767.417999999976,
      "d": 941.8599000000031,
      "v": 85
    },
    {
      "midi": 61,
      "hit": false,
      "t": 39779.04590000002,
      "d": 732.5576999999976,
      "v": 66
    },
    {
      "midi": 68,
      "hit": false,
      "t": 40116.254999999976,
      "d": 1116.2784000000029,
      "v": 88
    },
    {
      "midi": 73,
      "hit": false,
      "t": 40116.25500000002,
      "d": 1581.3944000000047,
      "v": 72
    },
    {
      "midi": 64,
      "hit": false,
      "t": 40116.25500000002,
      "d": 1738.3710500000088,
      "v": 78
    },
    {
      "midi": 76,
      "hit": false,
      "t": 40813.92899999998,
      "d": 1046.5109999999986,
      "v": 83
    },
    {
      "midi": 61,
      "hit": false,
      "t": 40813.92900000002,
      "d": 947.6738500000065,
      "v": 70
    },
    {
      "midi": 73,
      "hit": false,
      "t": 41162.76599999998,
      "d": 715.115850000002,
      "v": 92
    },
    {
      "midi": 56,
      "hit": false,
      "t": 41191.83575000002,
      "d": 627.9066000000093,
      "v": 65
    },
    {
      "midi": 68,
      "hit": false,
      "t": 41511.60299999998,
      "d": 348.83699999999953,
      "v": 83
    },
    {
      "midi": 75,
      "hit": false,
      "t": 41558.11460000002,
      "d": 122.09294999999838,
      "v": 64
    },
    {
      "midi": 76,
      "hit": false,
      "t": 41691.83545000002,
      "d": 122.09295000000566,
      "v": 75
    },
    {
      "midi": 75,
      "hit": false,
      "t": 41860.43999999998,
      "d": 872.0924999999988,
      "v": 81
    },
    {
      "midi": 71,
      "hit": false,
      "t": 41860.44000000003,
      "d": 1383.7200999999986,
      "v": 74
    },
    {
      "midi": 52,
      "hit": false,
      "t": 41860.44000000003,
      "d": 1930.231399999997,
      "v": 63
    },
    {
      "midi": 68,
      "hit": false,
      "t": 41872.06790000003,
      "d": 1383.7200999999986,
      "v": 74
    },
    {
      "midi": 63,
      "hit": false,
      "t": 42151.13750000003,
      "d": 1587.2083499999935,
      "v": 67
    },
    {
      "midi": 68,
      "hit": false,
      "t": 42209.27699999998,
      "d": 732.5576999999976,
      "v": 80
    },
    {
      "midi": 71,
      "hit": false,
      "t": 42558.11399999998,
      "d": 877.906449999995,
      "v": 93
    },
    {
      "midi": 59,
      "hit": false,
      "t": 42558.11400000003,
      "d": 534.8833999999988,
      "v": 69
    },
    {
      "midi": 63,
      "hit": false,
      "t": 42906.95099999998,
      "d": 755.8134999999893,
      "v": 67
    },
    {
      "midi": 56,
      "hit": false,
      "t": 42906.95100000003,
      "d": 581.3949999999968,
      "v": 61
    },
    {
      "midi": 78,
      "hit": false,
      "t": 42906.95100000003,
      "d": 1587.2083500000008,
      "v": 79
    },
    {
      "midi": 59,
      "hit": false,
      "t": 43238.34615000003,
      "d": 540.6973500000022,
      "v": 66
    },
    {
      "midi": 75,
      "hit": false,
      "t": 43604.62499999997,
      "d": 726.7437500000015,
      "v": 78
    },
    {
      "midi": 56,
      "hit": false,
      "t": 43610.438950000025,
      "d": 889.534350000009,
      "v": 73
    },
    {
      "midi": 68,
      "hit": false,
      "t": 43953.46199999997,
      "d": 436.0462499999994,
      "v": 84
    },
    {
      "midi": 59,
      "hit": false,
      "t": 43965.08990000003,
      "d": 639.5345000000088,
      "v": 68
    },
    {
      "midi": 63,
      "hit": false,
      "t": 43970.90385000003,
      "d": 651.1624000000083,
      "v": 60
    },
    {
      "midi": 71,
      "hit": false,
      "t": 44302.29899999997,
      "d": 313.95330000000104,
      "v": 79
    },
    {
      "midi": 58,
      "hit": false,
      "t": 44651.13600000004,
      "d": 1040.6970500000025,
      "v": 73
    },
    {
      "midi": 73,
      "hit": false,
      "t": 44656.94994999997,
      "d": 1075.5807500000083,
      "v": 80
    },
    {
      "midi": 61,
      "hit": false,
      "t": 44674.39180000004,
      "d": 744.1856000000043,
      "v": 70
    },
    {
      "midi": 68,
      "hit": false,
      "t": 44691.833650000044,
      "d": 1563.9525500000018,
      "v": 71
    },
    {
      "midi": 77,
      "hit": false,
      "t": 45005.78694999997,
      "d": 697.6740000000063,
      "v": 74
    },
    {
      "midi": 70,
      "hit": false,
      "t": 45348.809999999976,
      "d": 1040.6970500000098,
      "v": 81
    },
    {
      "midi": 65,
      "hit": false,
      "t": 45366.251850000044,
      "d": 1052.324950000002,
      "v": 61
    },
    {
      "midi": 80,
      "hit": false,
      "t": 45674.39119999998,
      "d": 447.6741500000062,
      "v": 81
    },
    {
      "midi": 61,
      "hit": false,
      "t": 45726.71675000004,
      "d": 1703.4873500000103,
      "v": 68
    },
    {
      "midi": 77,
      "hit": false,
      "t": 46017.41424999998,
      "d": 1023.2552000000069,
      "v": 83
    },
    {
      "midi": 58,
      "hit": false,
      "t": 46395.32100000005,
      "d": 999.9994000000006,
      "v": 75
    },
    {
      "midi": 73,
      "hit": false,
      "t": 46412.762849999985,
      "d": 686.0460999999996,
      "v": 81
    },
    {
      "midi": 70,
      "hit": false,
      "t": 46761.599849999984,
      "d": 593.0229000000036,
      "v": 80
    },
    {
      "midi": 65,
      "hit": false,
      "t": 46767.413800000046,
      "d": 674.4182000000073,
      "v": 68
    },
    {
      "midi": 68,
      "hit": false,
      "t": 47092.995000000046,
      "d": 331.3951500000039,
      "v": 86
    },
    {
      "midi": 53,
      "hit": false,
      "t": 47092.995000000046,
      "d": 348.8370000000068,
      "v": 52
    },
    {
      "midi": 70,
      "hit": false,
      "t": 47441.83199999999,
      "d": 1069.7667999999976,
      "v": 80
    },
    {
      "midi": 70,
      "hit": false,
      "t": 47441.83200000005,
      "d": 1930.2314000000042,
      "v": 80
    },
    {
      "midi": 63,
      "hit": false,
      "t": 47453.45990000005,
      "d": 569.7671000000119,
      "v": 67
    },
    {
      "midi": 58,
      "hit": false,
      "t": 47459.273850000056,
      "d": 563.9531500000085,
      "v": 66
    },
    {
      "midi": 65,
      "hit": false,
      "t": 47465.08780000006,
      "d": 441.8602000000028,
      "v": 56
    },
    {
      "midi": 82,
      "hit": false,
      "t": 47790.66899999999,
      "d": 2023.2546000000002,
      "v": 81
    },
    {
      "midi": 79,
      "hit": false,
      "t": 48139.50599999999,
      "d": 808.139049999998,
      "v": 76
    },
    {
      "midi": 58,
      "hit": false,
      "t": 48156.94785000006,
      "d": 709.3018999999986,
      "v": 68
    },
    {
      "midi": 63,
      "hit": false,
      "t": 48156.94785000006,
      "d": 1215.115549999995,
      "v": 62
    },
    {
      "midi": 65,
      "hit": false,
      "t": 48156.94785000006,
      "d": 1465.1153999999951,
      "v": 60
    },
    {
      "midi": 75,
      "hit": false,
      "t": 48488.342999999986,
      "d": 831.394849999997,
      "v": 89
    },
    {
      "midi": 51,
      "hit": false,
      "t": 48488.34300000006,
      "d": 1441.8595999999961,
      "v": 62
    },
    {
      "midi": 73,
      "hit": false,
      "t": 48837.179999999986,
      "d": 662.7903000000006,
      "v": 82
    },
    {
      "midi": 70,
      "hit": false,
      "t": 49186.016999999985,
      "d": 773.2553499999995,
      "v": 66
    },
    {
      "midi": 58,
      "hit": false,
      "t": 49186.01700000006,
      "d": 563.9531500000012,
      "v": 65
    },
    {
      "midi": 73,
      "hit": false,
      "t": 49534.853999999985,
      "d": 662.7903000000006,
      "v": 76
    },
    {
      "midi": 63,
      "hit": false,
      "t": 49558.10980000006,
      "d": 627.9066000000021,
      "v": 62
    },
    {
      "midi": 61,
      "hit": false,
      "t": 49563.92375000006,
      "d": 505.8136499999964,
      "v": 77
    },
    {
      "midi": 58,
      "hit": false,
      "t": 49883.69100000006,
      "d": 302.32540000000154,
      "v": 63
    },
    {
      "midi": 77,
      "hit": false,
      "t": 50232.527999999984,
      "d": 372.09279999999853,
      "v": 75
    },
    {
      "midi": 73,
      "hit": false,
      "t": 50232.527999999984,
      "d": 877.906449999995,
      "v": 62
    },
    {
      "midi": 68,
      "hit": false,
      "t": 50232.527999999984,
      "d": 1215.1155499999877,
      "v": 81
    },
    {
      "midi": 49,
      "hit": false,
      "t": 50232.52800000006,
      "d": 1220.929500000013,
      "v": 64
    },
    {
      "midi": 63,
      "hit": false,
      "t": 50238.34195000006,
      "d": 360.4649000000063,
      "v": 81
    },
    {
      "midi": 75,
      "hit": false,
      "t": 50581.36499999998,
      "d": 744.1855999999898,
      "v": 86
    },
    {
      "midi": 61,
      "hit": false,
      "t": 50581.36500000006,
      "d": 389.5346500000087,
      "v": 76
    },
    {
      "midi": 56,
      "hit": false,
      "t": 50965.08570000007,
      "d": 1220.9294999999984,
      "v": 75
    },
    {
      "midi": 73,
      "hit": false,
      "t": 51279.038999999975,
      "d": 982.5575499999977,
      "v": 86
    },
    {
      "midi": 63,
      "hit": false,
      "t": 51279.03900000007,
      "d": 1093.0225999999966,
      "v": 67
    },
    {
      "midi": 60,
      "hit": false,
      "t": 51313.92270000007,
      "d": 825.5809000000008,
      "v": 61
    },
    {
      "midi": 68,
      "hit": false,
      "t": 51627.875999999975,
      "d": 1220.9294999999984,
      "v": 92
    },
    {
      "midi": 73,
      "hit": false,
      "t": 52325.549999999974,
      "d": 563.9531500000012,
      "v": 83
    },
    {
      "midi": 56,
      "hit": false,
      "t": 52331.363950000065,
      "d": 668.6042500000112,
      "v": 67
    },
    {
      "midi": 61,
      "hit": false,
      "t": 52342.991850000064,
      "d": 651.1624000000083,
      "v": 76
    },
    {
      "midi": 63,
      "hit": false,
      "t": 52674.38700000007,
      "d": 279.06960000000254,
      "v": 67
    },
    {
      "midi": 75,
      "hit": false,
      "t": 53023.22399999997,
      "d": 715.115850000002,
      "v": 94
    },
    {
      "midi": 67,
      "hit": false,
      "t": 53040.66585000008,
      "d": 872.0925000000061,
      "v": 79
    },
    {
      "midi": 63,
      "hit": false,
      "t": 53046.47980000008,
      "d": 813.9530000000013,
      "v": 71
    },
    {
      "midi": 67,
      "hit": false,
      "t": 53372.06099999997,
      "d": 965.1156999999948,
      "v": 77
    },
    {
      "midi": 72,
      "hit": false,
      "t": 53720.89799999997,
      "d": 517.4415499999959,
      "v": 80
    },
    {
      "midi": 56,
      "hit": false,
      "t": 53720.89800000008,
      "d": 1232.5573999999979,
      "v": 66
    },
    {
      "midi": 63,
      "hit": false,
      "t": 54069.73499999997,
      "d": 1715.115249999988,
      "v": 69
    },
    {
      "midi": 72,
      "hit": false,
      "t": 54087.17685000008,
      "d": 866.2785499999954,
      "v": 69
    },
    {
      "midi": 72,
      "hit": false,
      "t": 54418.571999999964,
      "d": 1372.0921999999991,
      "v": 85
    },
    {
      "midi": 67,
      "hit": false,
      "t": 54755.78110000008,
      "d": 988.3715000000011,
      "v": 78
    },
    {
      "midi": 67,
      "hit": false,
      "t": 54767.40899999996,
      "d": 982.5575499999977,
      "v": 78
    },
    {
      "midi": 63,
      "hit": false,
      "t": 55092.99020000008,
      "d": 372.09279999999853,
      "v": 62
    },
    {
      "midi": 65,
      "hit": false,
      "t": 55441.82720000008,
      "d": 325.58120000000054,
      "v": 68
    },
    {
      "midi": 60,
      "hit": false,
      "t": 55465.08300000008,
      "d": 383.72069999999803,
      "v": 60
    },
    {
      "midi": 75,
      "hit": false,
      "t": 55813.92000000008,
      "d": 877.9064500000022,
      "v": 62
    },
    {
      "midi": 70,
      "hit": false,
      "t": 55825.54790000008,
      "d": 906.9762000000046,
      "v": 70
    },
    {
      "midi": 66,
      "hit": false,
      "t": 55825.54790000008,
      "d": 924.4180500000075,
      "v": 76
    },
    {
      "midi": 58,
      "hit": false,
      "t": 56139.50120000008,
      "d": 924.4180500000148,
      "v": 63
    },
    {
      "midi": 82,
      "hit": false,
      "t": 56197.64069999996,
      "d": 941.8599000000104,
      "v": 89
    },
    {
      "midi": 78,
      "hit": false,
      "t": 56511.59399999996,
      "d": 1691.8594500000108,
      "v": 86
    },
    {
      "midi": 54,
      "hit": false,
      "t": 56511.59400000008,
      "d": 924.4180500000148,
      "v": 69
    },
    {
      "midi": 63,
      "hit": false,
      "t": 56866.244949999964,
      "d": 965.1157000000094,
      "v": 69
    },
    {
      "midi": 63,
      "hit": false,
      "t": 56866.24495000009,
      "d": 999.9994000000006,
      "v": 70
    },
    {
      "midi": 73,
      "hit": false,
      "t": 56872.05890000009,
      "d": 686.0460999999996,
      "v": 66
    },
    {
      "midi": 66,
      "hit": false,
      "t": 56883.68679999997,
      "d": 918.6041000000041,
      "v": 77
    },
    {
      "midi": 70,
      "hit": false,
      "t": 56883.68680000009,
      "d": 1668.6036499999973,
      "v": 68
    },
    {
      "midi": 75,
      "hit": false,
      "t": 56889.50074999997,
      "d": 1453.487500000003,
      "v": 77
    },
    {
      "midi": 58,
      "hit": false,
      "t": 57581.36080000009,
      "d": 924.418049999993,
      "v": 69
    },
    {
      "midi": 75,
      "hit": false,
      "t": 57592.98870000009,
      "d": 732.5576999999976,
      "v": 60
    },
    {
      "midi": 73,
      "hit": false,
      "t": 57906.94200000009,
      "d": 575.5810499999934,
      "v": 75
    },
    {
      "midi": 63,
      "hit": false,
      "t": 57912.75594999997,
      "d": 598.8368499999997,
      "v": 65
    },
    {
      "midi": 66,
      "hit": false,
      "t": 57918.56990000009,
      "d": 604.6507999999958,
      "v": 62
    },
    {
      "midi": 70,
      "hit": false,
      "t": 58604.61599999997,
      "d": 773.2553499999995,
      "v": 80
    },
    {
      "midi": 70,
      "hit": false,
      "t": 58604.61600000009,
      "d": 872.0925000000061,
      "v": 61
    },
    {
      "midi": 65,
      "hit": false,
      "t": 58622.05785000009,
      "d": 872.0925000000061,
      "v": 79
    },
    {
      "midi": 61,
      "hit": false,
      "t": 58627.871800000095,
      "d": 813.9530000000013,
      "v": 71
    },
    {
      "midi": 77,
      "hit": false,
      "t": 58953.45299999997,
      "d": 412.7904500000004,
      "v": 88
    },
    {
      "midi": 54,
      "hit": false,
      "t": 58953.453000000096,
      "d": 1232.5574000000051,
      "v": 66
    },
    {
      "midi": 73,
      "hit": false,
      "t": 59302.28999999997,
      "d": 424.4183499999999,
      "v": 84
    },
    {
      "midi": 58,
      "hit": false,
      "t": 59302.290000000095,
      "d": 441.8602000000028,
      "v": 66
    },
    {
      "midi": 70,
      "hit": false,
      "t": 59651.12699999997,
      "d": 767.4413999999961,
      "v": 88
    },
    {
      "midi": 61,
      "hit": false,
      "t": 59651.127000000095,
      "d": 697.6740000000063,
      "v": 66
    },
    {
      "midi": 73,
      "hit": false,
      "t": 59651.127000000095,
      "d": 866.2785500000027,
      "v": 69
    },
    {
      "midi": 70,
      "hit": false,
      "t": 59668.5688500001,
      "d": 866.2785500000027,
      "v": 69
    },
    {
      "midi": 58,
      "hit": false,
      "t": 59999.9640000001,
      "d": 674.4182000000001,
      "v": 66
    },
    {
      "midi": 65,
      "hit": false,
      "t": 60337.1731000001,
      "d": 988.3715000000011,
      "v": 78
    },
    {
      "midi": 65,
      "hit": false,
      "t": 60348.80099999997,
      "d": 970.9296499999982,
      "v": 78
    },
    {
      "midi": 61,
      "hit": false,
      "t": 60674.3822000001,
      "d": 610.4647499999992,
      "v": 62
    },
    {
      "midi": 61,
      "hit": false,
      "t": 60697.63799999997,
      "d": 633.7205499999982,
      "v": 77
    },
    {
      "midi": 58,
      "hit": false,
      "t": 61046.4750000001,
      "d": 383.7207000000053,
      "v": 60
    },
    {
      "midi": 76,
      "hit": false,
      "t": 61395.31199999997,
      "d": 843.0227499999964,
      "v": 85
    },
    {
      "midi": 64,
      "hit": false,
      "t": 61395.3120000001,
      "d": 668.604250000004,
      "v": 72
    },
    {
      "midi": 73,
      "hit": false,
      "t": 61395.3120000001,
      "d": 668.604250000004,
      "v": 72
    },
    {
      "midi": 61,
      "hit": false,
      "t": 61401.1259500001,
      "d": 529.0694500000027,
      "v": 71
    },
    {
      "midi": 73,
      "hit": false,
      "t": 61744.14899999997,
      "d": 837.2088000000003,
      "v": 92
    },
    {
      "midi": 56,
      "hit": false,
      "t": 61744.14900000011,
      "d": 1430.2316999999966,
      "v": 58
    },
    {
      "midi": 80,
      "hit": false,
      "t": 62092.98599999997,
      "d": 941.8599000000031,
      "v": 85
    },
    {
      "midi": 61,
      "hit": false,
      "t": 62104.613900000106,
      "d": 732.5576999999976,
      "v": 66
    },
    {
      "midi": 68,
      "hit": false,
      "t": 62441.82299999997,
      "d": 1116.2784000000029,
      "v": 88
    },
    {
      "midi": 73,
      "hit": false,
      "t": 62441.823000000106,
      "d": 1581.3944000000047,
      "v": 72
    },
    {
      "midi": 64,
      "hit": false,
      "t": 62441.823000000106,
      "d": 1738.3710500000088,
      "v": 78
    },
    {
      "midi": 76,
      "hit": false,
      "t": 63139.496999999974,
      "d": 1046.5109999999986,
      "v": 83
    },
    {
      "midi": 61,
      "hit": false,
      "t": 63139.497000000105,
      "d": 947.6738500000065,
      "v": 70
    },
    {
      "midi": 73,
      "hit": false,
      "t": 63488.33399999997,
      "d": 715.115850000002,
      "v": 92
    },
    {
      "midi": 56,
      "hit": false,
      "t": 63517.40375000011,
      "d": 627.9066000000093,
      "v": 65
    },
    {
      "midi": 68,
      "hit": false,
      "t": 63837.17099999997,
      "d": 348.83699999999953,
      "v": 83
    },
    {
      "midi": 75,
      "hit": false,
      "t": 63883.68260000011,
      "d": 122.09294999999838,
      "v": 64
    },
    {
      "midi": 76,
      "hit": false,
      "t": 64017.40345000011,
      "d": 122.09295000000566,
      "v": 75
    },
    {
      "midi": 75,
      "hit": false,
      "t": 64186.00799999997,
      "d": 872.0924999999988,
      "v": 81
    },
    {
      "midi": 71,
      "hit": false,
      "t": 64186.00800000012,
      "d": 1383.7200999999914,
      "v": 74
    },
    {
      "midi": 52,
      "hit": false,
      "t": 64186.00800000012,
      "d": 1930.2314000000188,
      "v": 63
    },
    {
      "midi": 68,
      "hit": false,
      "t": 64197.63590000012,
      "d": 1383.7200999999986,
      "v": 74
    },
    {
      "midi": 63,
      "hit": false,
      "t": 64476.70550000012,
      "d": 1587.208350000008,
      "v": 67
    },
    {
      "midi": 68,
      "hit": false,
      "t": 64534.84499999997,
      "d": 732.5576999999976,
      "v": 80
    },
    {
      "midi": 71,
      "hit": false,
      "t": 64883.68199999997,
      "d": 877.906449999995,
      "v": 93
    },
    {
      "midi": 59,
      "hit": false,
      "t": 64883.68200000012,
      "d": 534.8833999999988,
      "v": 69
    },
    {
      "midi": 63,
      "hit": false,
      "t": 65232.51899999997,
      "d": 755.8135000000038,
      "v": 67
    },
    {
      "midi": 56,
      "hit": false,
      "t": 65232.51900000012,
      "d": 581.3950000000041,
      "v": 61
    },
    {
      "midi": 78,
      "hit": false,
      "t": 65232.51900000012,
      "d": 1587.2083500000153,
      "v": 79
    },
    {
      "midi": 59,
      "hit": false,
      "t": 65563.91415000011,
      "d": 540.6973500000167,
      "v": 66
    },
    {
      "midi": 75,
      "hit": false,
      "t": 65930.19299999997,
      "d": 726.7437499999942,
      "v": 78
    },
    {
      "midi": 56,
      "hit": false,
      "t": 65936.00695000013,
      "d": 889.5343500000017,
      "v": 73
    },
    {
      "midi": 68,
      "hit": false,
      "t": 66279.02999999997,
      "d": 436.0462499999994,
      "v": 84
    },
    {
      "midi": 59,
      "hit": false,
      "t": 66290.65790000014,
      "d": 639.5344999999943,
      "v": 68
    },
    {
      "midi": 63,
      "hit": false,
      "t": 66296.47185000013,
      "d": 651.1624000000011,
      "v": 60
    },
    {
      "midi": 71,
      "hit": false,
      "t": 66627.86699999997,
      "d": 313.95329999999376,
      "v": 79
    },
    {
      "midi": 58,
      "hit": false,
      "t": 66976.70400000013,
      "d": 1040.6970500000025,
      "v": 73
    },
    {
      "midi": 73,
      "hit": false,
      "t": 66982.51794999996,
      "d": 1075.5807499999937,
      "v": 80
    },
    {
      "midi": 61,
      "hit": false,
      "t": 66999.95980000013,
      "d": 744.1855999999971,
      "v": 70
    },
    {
      "midi": 68,
      "hit": false,
      "t": 67017.40165000013,
      "d": 1563.9525500000018,
      "v": 71
    },
    {
      "midi": 77,
      "hit": false,
      "t": 67331.35494999996,
      "d": 697.6739999999991,
      "v": 74
    },
    {
      "midi": 70,
      "hit": false,
      "t": 67674.37799999997,
      "d": 1040.697049999988,
      "v": 81
    },
    {
      "midi": 65,
      "hit": false,
      "t": 67691.81985000013,
      "d": 1052.3249499999947,
      "v": 61
    },
    {
      "midi": 80,
      "hit": false,
      "t": 67999.95919999997,
      "d": 447.67414999999164,
      "v": 81
    },
    {
      "midi": 61,
      "hit": false,
      "t": 68052.28475000014,
      "d": 1703.4873499999812,
      "v": 68
    },
    {
      "midi": 77,
      "hit": false,
      "t": 68342.98224999996,
      "d": 1023.2551999999996,
      "v": 83
    },
    {
      "midi": 58,
      "hit": false,
      "t": 68720.88900000013,
      "d": 999.9994000000006,
      "v": 75
    },
    {
      "midi": 73,
      "hit": false,
      "t": 68738.33084999995,
      "d": 686.0461000000068,
      "v": 81
    },
    {
      "midi": 70,
      "hit": false,
      "t": 69087.16784999995,
      "d": 593.0229000000108,
      "v": 80
    },
    {
      "midi": 65,
      "hit": false,
      "t": 69092.98180000013,
      "d": 674.4182000000001,
      "v": 68
    },
    {
      "midi": 68,
      "hit": false,
      "t": 69418.56300000013,
      "d": 331.39514999999665,
      "v": 86
    },
    {
      "midi": 53,
      "hit": false,
      "t": 69418.56300000013,
      "d": 348.83699999999953,
      "v": 52
    },
    {
      "midi": 70,
      "hit": false,
      "t": 69767.39999999997,
      "d": 1069.7667999999976,
      "v": 80
    },
    {
      "midi": 70,
      "hit": false,
      "t": 69767.40000000013,
      "d": 1930.2313999999897,
      "v": 80
    },
    {
      "midi": 63,
      "hit": false,
      "t": 69779.02790000013,
      "d": 569.7670999999827,
      "v": 67
    },
    {
      "midi": 58,
      "hit": false,
      "t": 69784.84185000013,
      "d": 563.9531499999866,
      "v": 66
    },
    {
      "midi": 65,
      "hit": false,
      "t": 69790.65580000012,
      "d": 441.86019999999553,
      "v": 56
    },
    {
      "midi": 82,
      "hit": false,
      "t": 70116.23699999996,
      "d": 2023.2546000000002,
      "v": 81
    },
    {
      "midi": 79,
      "hit": false,
      "t": 70465.07399999996,
      "d": 808.139049999998,
      "v": 76
    },
    {
      "midi": 58,
      "hit": false,
      "t": 70482.51585000011,
      "d": 709.3018999999913,
      "v": 68
    },
    {
      "midi": 63,
      "hit": false,
      "t": 70482.51585000011,
      "d": 1215.1155500000023,
      "v": 62
    },
    {
      "midi": 65,
      "hit": false,
      "t": 70482.51585000011,
      "d": 1465.1154000000097,
      "v": 60
    },
    {
      "midi": 75,
      "hit": false,
      "t": 70813.91099999996,
      "d": 831.394849999997,
      "v": 89
    },
    {
      "midi": 51,
      "hit": false,
      "t": 70813.91100000011,
      "d": 1441.8596000000107,
      "v": 62
    },
    {
      "midi": 73,
      "hit": false,
      "t": 71162.74799999996,
      "d": 662.7902999999933,
      "v": 82
    },
    {
      "midi": 70,
      "hit": false,
      "t": 71511.58499999996,
      "d": 773.2553500000067,
      "v": 66
    },
    {
      "midi": 58,
      "hit": false,
      "t": 71511.58500000011,
      "d": 563.9531500000157,
      "v": 65
    },
    {
      "midi": 73,
      "hit": false,
      "t": 71860.42199999996,
      "d": 662.7903000000078,
      "v": 76
    },
    {
      "midi": 63,
      "hit": false,
      "t": 71883.67780000012,
      "d": 627.9065999999875,
      "v": 62
    },
    {
      "midi": 61,
      "hit": false,
      "t": 71889.49175000012,
      "d": 505.8136499999964,
      "v": 77
    },
    {
      "midi": 58,
      "hit": false,
      "t": 72209.25900000012,
      "d": 302.325399999987,
      "v": 63
    },
    {
      "midi": 77,
      "hit": false,
      "t": 72558.09599999998,
      "d": 372.09279999999853,
      "v": 75
    },
    {
      "midi": 73,
      "hit": false,
      "t": 72558.09599999998,
      "d": 877.906449999995,
      "v": 62
    },
    {
      "midi": 68,
      "hit": false,
      "t": 72558.09599999998,
      "d": 1215.1155500000023,
      "v": 81
    },
    {
      "midi": 49,
      "hit": false,
      "t": 72558.0960000001,
      "d": 1220.9294999999984,
      "v": 64
    },
    {
      "midi": 63,
      "hit": false,
      "t": 72563.9099500001,
      "d": 360.4649000000063,
      "v": 81
    },
    {
      "midi": 75,
      "hit": false,
      "t": 72906.93299999998,
      "d": 744.1855999999971,
      "v": 86
    },
    {
      "midi": 61,
      "hit": false,
      "t": 72906.9330000001,
      "d": 389.5346500000014,
      "v": 76
    },
    {
      "midi": 56,
      "hit": false,
      "t": 73290.65370000011,
      "d": 1220.9294999999984,
      "v": 75
    },
    {
      "midi": 73,
      "hit": false,
      "t": 73604.60699999997,
      "d": 982.5575499999977,
      "v": 86
    },
    {
      "midi": 63,
      "hit": false,
      "t": 73604.6070000001,
      "d": 1709.301300000021,
      "v": 67
    },
    {
      "midi": 60,
      "hit": false,
      "t": 73639.49070000011,
      "d": 825.5809000000008,
      "v": 61
    },
    {
      "midi": 68,
      "hit": false,
      "t": 73953.44399999997,
      "d": 1220.9294999999984,
      "v": 92
    },
    {
      "midi": 73,
      "hit": false,
      "t": 74651.11799999997,
      "d": 563.9531500000012,
      "v": 83
    },
    {
      "midi": 56,
      "hit": false,
      "t": 74656.93195000011,
      "d": 668.604250000004,
      "v": 67
    },
    {
      "midi": 61,
      "hit": false,
      "t": 74668.55985000012,
      "d": 651.1624000000011,
      "v": 76
    },
    {
      "midi": 75,
      "hit": false,
      "t": 75348.79199999997,
      "d": 715.115850000002,
      "v": 94
    },
    {
      "midi": 67,
      "hit": false,
      "t": 75366.23385000012,
      "d": 872.0924999999843,
      "v": 79
    },
    {
      "midi": 63,
      "hit": false,
      "t": 75372.04780000012,
      "d": 813.9529999999941,
      "v": 71
    },
    {
      "midi": 67,
      "hit": false,
      "t": 75697.62899999997,
      "d": 965.1157000000094,
      "v": 77
    },
    {
      "midi": 72,
      "hit": false,
      "t": 76046.46599999997,
      "d": 517.4415500000032,
      "v": 80
    },
    {
      "midi": 56,
      "hit": false,
      "t": 76046.46600000012,
      "d": 1232.5573999999906,
      "v": 66
    },
    {
      "midi": 63,
      "hit": false,
      "t": 76395.30299999997,
      "d": 1715.115250000017,
      "v": 69
    },
    {
      "midi": 72,
      "hit": false,
      "t": 76412.7448500001,
      "d": 866.2785500000027,
      "v": 69
    },
    {
      "midi": 72,
      "hit": false,
      "t": 76744.13999999998,
      "d": 1372.0921999999991,
      "v": 85
    },
    {
      "midi": 67,
      "hit": false,
      "t": 77081.34910000011,
      "d": 988.3714999999938,
      "v": 78
    },
    {
      "midi": 67,
      "hit": false,
      "t": 77092.97699999998,
      "d": 982.5575499999977,
      "v": 78
    },
    {
      "midi": 63,
      "hit": false,
      "t": 77418.5582000001,
      "d": 610.4647499999992,
      "v": 62
    },
    {
      "midi": 60,
      "hit": false,
      "t": 77790.6510000001,
      "d": 383.72069999999076,
      "v": 60
    },
    {
      "midi": 77,
      "hit": false,
      "t": 78139.48799999998,
      "d": 372.09279999999853,
      "v": 75
    },
    {
      "midi": 73,
      "hit": false,
      "t": 78139.48799999998,
      "d": 877.906449999995,
      "v": 62
    },
    {
      "midi": 68,
      "hit": false,
      "t": 78139.48799999998,
      "d": 1215.1155500000023,
      "v": 81
    },
    {
      "midi": 49,
      "hit": false,
      "t": 78139.4880000001,
      "d": 1220.9294999999838,
      "v": 64
    },
    {
      "midi": 63,
      "hit": false,
      "t": 78145.3019500001,
      "d": 360.46489999999176,
      "v": 81
    },
    {
      "midi": 75,
      "hit": false,
      "t": 78488.32499999998,
      "d": 744.1855999999971,
      "v": 86
    },
    {
      "midi": 61,
      "hit": false,
      "t": 78488.32500000008,
      "d": 389.5346500000014,
      "v": 76
    },
    {
      "midi": 56,
      "hit": false,
      "t": 78872.04570000009,
      "d": 1220.9294999999984,
      "v": 75
    },
    {
      "midi": 73,
      "hit": false,
      "t": 79185.99899999998,
      "d": 982.5575499999977,
      "v": 86
    },
    {
      "midi": 63,
      "hit": false,
      "t": 79185.99900000008,
      "d": 1709.301300000021,
      "v": 67
    },
    {
      "midi": 60,
      "hit": false,
      "t": 79220.88270000009,
      "d": 825.5809000000008,
      "v": 61
    },
    {
      "midi": 68,
      "hit": false,
      "t": 79534.83599999998,
      "d": 1220.9294999999984,
      "v": 92
    },
    {
      "midi": 73,
      "hit": false,
      "t": 80232.50999999998,
      "d": 563.9531500000012,
      "v": 83
    },
    {
      "midi": 56,
      "hit": false,
      "t": 80238.3239500001,
      "d": 668.604250000004,
      "v": 67
    },
    {
      "midi": 61,
      "hit": false,
      "t": 80249.9518500001,
      "d": 651.1624000000011,
      "v": 76
    },
    {
      "midi": 75,
      "hit": false,
      "t": 80930.18399999998,
      "d": 715.115850000002,
      "v": 94
    },
    {
      "midi": 67,
      "hit": false,
      "t": 80947.6258500001,
      "d": 872.0924999999843,
      "v": 79
    },
    {
      "midi": 63,
      "hit": false,
      "t": 80953.4398000001,
      "d": 813.9529999999941,
      "v": 71
    },
    {
      "midi": 67,
      "hit": false,
      "t": 81279.02099999998,
      "d": 965.1157000000094,
      "v": 77
    },
    {
      "midi": 72,
      "hit": false,
      "t": 81627.85799999998,
      "d": 517.4415500000032,
      "v": 80
    },
    {
      "midi": 56,
      "hit": false,
      "t": 81627.8580000001,
      "d": 1232.5573999999906,
      "v": 66
    },
    {
      "midi": 63,
      "hit": false,
      "t": 81976.69499999998,
      "d": 1715.115250000017,
      "v": 69
    },
    {
      "midi": 72,
      "hit": false,
      "t": 81994.13685000008,
      "d": 866.2785500000027,
      "v": 69
    },
    {
      "midi": 72,
      "hit": false,
      "t": 82325.53199999999,
      "d": 1372.0921999999991,
      "v": 85
    },
    {
      "midi": 67,
      "hit": false,
      "t": 82662.74110000009,
      "d": 988.3714999999938,
      "v": 78
    },
    {
      "midi": 67,
      "hit": false,
      "t": 82674.36899999999,
      "d": 982.5575499999977,
      "v": 78
    },
    {
      "midi": 63,
      "hit": false,
      "t": 82999.95020000008,
      "d": 610.4647499999992,
      "v": 62
    },
    {
      "midi": 60,
      "hit": false,
      "t": 83372.04300000008,
      "d": 383.7207000000053,
      "v": 60
    },
    {
      "midi": 75,
      "hit": false,
      "t": 83720.88000000008,
      "d": 877.906449999995,
      "v": 62
    },
    {
      "midi": 70,
      "hit": false,
      "t": 83732.50790000008,
      "d": 906.9761999999901,
      "v": 70
    },
    {
      "midi": 66,
      "hit": false,
      "t": 83732.50790000008,
      "d": 924.418049999993,
      "v": 76
    },
    {
      "midi": 58,
      "hit": false,
      "t": 84046.46120000008,
      "d": 924.4180500000075,
      "v": 63
    },
    {
      "midi": 82,
      "hit": false,
      "t": 84104.6007,
      "d": 941.8598999999813,
      "v": 89
    },
    {
      "midi": 78,
      "hit": false,
      "t": 84418.55399999999,
      "d": 1691.8594499999745,
      "v": 86
    },
    {
      "midi": 54,
      "hit": false,
      "t": 84418.55400000008,
      "d": 924.4180500000075,
      "v": 69
    },
    {
      "midi": 63,
      "hit": false,
      "t": 84773.20494999998,
      "d": 965.1156999999803,
      "v": 69
    },
    {
      "midi": 73,
      "hit": false,
      "t": 84779.01890000008,
      "d": 686.0461000000068,
      "v": 66
    },
    {
      "midi": 66,
      "hit": false,
      "t": 84779.01890000008,
      "d": 999.9994000000152,
      "v": 63
    },
    {
      "midi": 66,
      "hit": false,
      "t": 84790.64679999999,
      "d": 918.6040999999823,
      "v": 77
    },
    {
      "midi": 70,
      "hit": false,
      "t": 84790.64680000009,
      "d": 1668.6036500000191,
      "v": 68
    },
    {
      "midi": 75,
      "hit": false,
      "t": 84796.46074999998,
      "d": 1453.4874999999738,
      "v": 77
    },
    {
      "midi": 58,
      "hit": false,
      "t": 85488.32080000009,
      "d": 924.418050000022,
      "v": 69
    },
    {
      "midi": 75,
      "hit": false,
      "t": 85499.9487000001,
      "d": 732.5577000000194,
      "v": 60
    },
    {
      "midi": 73,
      "hit": false,
      "t": 85813.9020000001,
      "d": 575.581050000008,
      "v": 75
    },
    {
      "midi": 63,
      "hit": false,
      "t": 85819.71594999997,
      "d": 598.8368499999924,
      "v": 65
    },
    {
      "midi": 66,
      "hit": false,
      "t": 85825.52990000011,
      "d": 604.6508000000031,
      "v": 62
    },
    {
      "midi": 70,
      "hit": false,
      "t": 86511.57599999996,
      "d": 773.2553500000067,
      "v": 80
    },
    {
      "midi": 65,
      "hit": false,
      "t": 86529.0178500001,
      "d": 872.0924999999843,
      "v": 79
    },
    {
      "midi": 61,
      "hit": false,
      "t": 86534.8318000001,
      "d": 813.9529999999941,
      "v": 71
    },
    {
      "midi": 77,
      "hit": false,
      "t": 86860.41299999996,
      "d": 412.7904500000004,
      "v": 88
    },
    {
      "midi": 73,
      "hit": false,
      "t": 87209.24999999996,
      "d": 424.4183500000072,
      "v": 84
    },
    {
      "midi": 54,
      "hit": false,
      "t": 87209.2500000001,
      "d": 1232.557399999976,
      "v": 66
    },
    {
      "midi": 70,
      "hit": false,
      "t": 87558.08699999997,
      "d": 767.4413999999961,
      "v": 88
    },
    {
      "midi": 70,
      "hit": false,
      "t": 87575.52885000009,
      "d": 866.2785499999882,
      "v": 69
    },
    {
      "midi": 58,
      "hit": false,
      "t": 87906.92400000009,
      "d": 674.4181999999855,
      "v": 66
    },
    {
      "midi": 65,
      "hit": false,
      "t": 88244.13310000008,
      "d": 988.3714999999938,
      "v": 78
    },
    {
      "midi": 65,
      "hit": false,
      "t": 88255.76099999997,
      "d": 970.9296500000055,
      "v": 78
    },
    {
      "midi": 61,
      "hit": false,
      "t": 88581.34220000007,
      "d": 610.4647499999992,
      "v": 62
    },
    {
      "midi": 61,
      "hit": false,
      "t": 88604.59799999997,
      "d": 633.7205500000127,
      "v": 77
    },
    {
      "midi": 58,
      "hit": false,
      "t": 89302.27200000007,
      "d": 34.883700000005774,
      "v": 73
    },
    {
      "midi": 73,
      "hit": false,
      "t": 89308.08594999998,
      "d": 1075.5807499999937,
      "v": 80
    },
    {
      "midi": 61,
      "hit": false,
      "t": 89325.52780000007,
      "d": 744.1855999999971,
      "v": 70
    },
    {
      "midi": 68,
      "hit": false,
      "t": 89342.96965000007,
      "d": 1563.9525499999872,
      "v": 71
    },
    {
      "midi": 77,
      "hit": false,
      "t": 89656.92294999998,
      "d": 697.6739999999991,
      "v": 74
    },
    {
      "midi": 70,
      "hit": false,
      "t": 89999.94599999998,
      "d": 1040.697049999988,
      "v": 81
    },
    {
      "midi": 65,
      "hit": false,
      "t": 90017.38785000007,
      "d": 883.7203999999911,
      "v": 61
    },
    {
      "midi": 80,
      "hit": false,
      "t": 90325.52719999998,
      "d": 447.67414999999164,
      "v": 81
    },
    {
      "midi": 61,
      "hit": false,
      "t": 90377.85275000006,
      "d": 1703.4873499999958,
      "v": 68
    },
    {
      "midi": 77,
      "hit": false,
      "t": 90668.55024999997,
      "d": 1023.2551999999996,
      "v": 83
    },
    {
      "midi": 65,
      "hit": false,
      "t": 91046.45700000005,
      "d": 412.7904500000004,
      "v": 68
    },
    {
      "midi": 58,
      "hit": false,
      "t": 91046.45700000005,
      "d": 575.5810499999934,
      "v": 75
    },
    {
      "midi": 73,
      "hit": false,
      "t": 91063.89884999997,
      "d": 686.0461000000068,
      "v": 81
    },
    {
      "midi": 68,
      "hit": false,
      "t": 91395.29400000005,
      "d": 331.39514999999665,
      "v": 86
    },
    {
      "midi": 70,
      "hit": false,
      "t": 91412.73584999997,
      "d": 593.0229000000108,
      "v": 80
    },
    {
      "midi": 53,
      "hit": false,
      "t": 91744.13100000005,
      "d": 348.8370000000141,
      "v": 52
    },
    {
      "midi": 65,
      "hit": false,
      "t": 91744.13100000005,
      "d": 575.5810500000225,
      "v": 56
    },
    {
      "midi": 75,
      "hit": false,
      "t": 91749.94494999998,
      "d": 1023.2551999999996,
      "v": 89
    },
    {
      "midi": 70,
      "hit": false,
      "t": 91767.38680000005,
      "d": 1930.2314000000042,
      "v": 80
    },
    {
      "midi": 58,
      "hit": false,
      "t": 91784.82865000005,
      "d": 953.4878000000172,
      "v": 66
    },
    {
      "midi": 70,
      "hit": false,
      "t": 92092.96799999998,
      "d": 1069.7667999999976,
      "v": 80
    },
    {
      "midi": 63,
      "hit": false,
      "t": 92104.59590000007,
      "d": 569.7670999999973,
      "v": 67
    },
    {
      "midi": 82,
      "hit": false,
      "t": 92441.80499999998,
      "d": 2023.2546000000002,
      "v": 81
    },
    {
      "midi": 79,
      "hit": false,
      "t": 92790.64199999998,
      "d": 808.139049999998,
      "v": 76
    },
    {
      "midi": 58,
      "hit": false,
      "t": 92808.08385000007,
      "d": 709.3018999999913,
      "v": 68
    },
    {
      "midi": 63,
      "hit": false,
      "t": 92808.08385000007,
      "d": 1215.1155499999877,
      "v": 62
    },
    {
      "midi": 65,
      "hit": false,
      "t": 92808.08385000007,
      "d": 1465.1153999999951,
      "v": 60
    },
    {
      "midi": 75,
      "hit": false,
      "t": 93139.47899999998,
      "d": 255.81380000000354,
      "v": 89
    },
    {
      "midi": 51,
      "hit": false,
      "t": 93139.47900000006,
      "d": 1441.8595999999961,
      "v": 62
    },
    {
      "midi": 75,
      "hit": false,
      "t": 93488.31599999998,
      "d": 372.09279999999853,
      "v": 89
    },
    {
      "midi": 73,
      "hit": false,
      "t": 93488.31599999998,
      "d": 662.7902999999933,
      "v": 82
    },
    {
      "midi": 70,
      "hit": false,
      "t": 93837.15299999998,
      "d": 773.2553500000067,
      "v": 66
    },
    {
      "midi": 77,
      "hit": false,
      "t": 93837.15299999998,
      "d": 1046.5110000000132,
      "v": 99
    },
    {
      "midi": 58,
      "hit": false,
      "t": 93837.15300000005,
      "d": 563.9531500000157,
      "v": 65
    },
    {
      "midi": 73,
      "hit": false,
      "t": 94185.98999999998,
      "d": 662.7903000000078,
      "v": 76
    },
    {
      "midi": 63,
      "hit": false,
      "t": 94209.24580000006,
      "d": 627.9065999999875,
      "v": 62
    },
    {
      "midi": 61,
      "hit": false,
      "t": 94215.05975000006,
      "d": 505.8136499999964,
      "v": 77
    },
    {
      "midi": 58,
      "hit": false,
      "t": 94534.82700000006,
      "d": 302.325399999987,
      "v": 63
    },
    {
      "midi": 77,
      "hit": false,
      "t": 94883.66399999999,
      "d": 372.09279999999853,
      "v": 75
    },
    {
      "midi": 73,
      "hit": false,
      "t": 94883.66399999999,
      "d": 877.906449999995,
      "v": 62
    },
    {
      "midi": 68,
      "hit": false,
      "t": 94883.66399999999,
      "d": 1215.1155500000023,
      "v": 81
    },
    {
      "midi": 49,
      "hit": false,
      "t": 94883.66400000005,
      "d": 1220.9294999999984,
      "v": 64
    },
    {
      "midi": 63,
      "hit": false,
      "t": 94889.47795000004,
      "d": 360.4649000000063,
      "v": 81
    },
    {
      "midi": 75,
      "hit": false,
      "t": 95232.50099999999,
      "d": 744.1855999999971,
      "v": 86
    },
    {
      "midi": 61,
      "hit": false,
      "t": 95232.50100000005,
      "d": 389.5346500000014,
      "v": 76
    },
    {
      "midi": 56,
      "hit": false,
      "t": 95616.22170000005,
      "d": 1220.9294999999984,
      "v": 75
    },
    {
      "midi": 73,
      "hit": false,
      "t": 95930.17499999999,
      "d": 982.5575499999977,
      "v": 86
    },
    {
      "midi": 63,
      "hit": false,
      "t": 95930.17500000005,
      "d": 1709.301300000021,
      "v": 67
    },
    {
      "midi": 60,
      "hit": false,
      "t": 95965.05870000005,
      "d": 825.5809000000008,
      "v": 61
    },
    {
      "midi": 68,
      "hit": false,
      "t": 96279.01199999999,
      "d": 1220.9294999999984,
      "v": 92
    },
    {
      "midi": 73,
      "hit": false,
      "t": 96976.68599999999,
      "d": 563.9531500000012,
      "v": 83
    },
    {
      "midi": 56,
      "hit": false,
      "t": 96982.49995000006,
      "d": 668.604250000004,
      "v": 67
    },
    {
      "midi": 61,
      "hit": false,
      "t": 96994.12785000006,
      "d": 651.1624000000011,
      "v": 76
    },
    {
      "midi": 75,
      "hit": false,
      "t": 97674.35999999999,
      "d": 715.115850000002,
      "v": 94
    },
    {
      "midi": 67,
      "hit": false,
      "t": 97691.80185000006,
      "d": 872.0924999999843,
      "v": 79
    },
    {
      "midi": 63,
      "hit": false,
      "t": 97697.61580000006,
      "d": 813.9529999999941,
      "v": 71
    },
    {
      "midi": 67,
      "hit": false,
      "t": 98023.19699999999,
      "d": 965.1157000000094,
      "v": 77
    },
    {
      "midi": 72,
      "hit": false,
      "t": 98372.03399999999,
      "d": 517.4415500000032,
      "v": 80
    },
    {
      "midi": 56,
      "hit": false,
      "t": 98372.03400000006,
      "d": 1232.5573999999906,
      "v": 66
    },
    {
      "midi": 63,
      "hit": false,
      "t": 98720.87099999998,
      "d": 1715.115250000017,
      "v": 69
    },
    {
      "midi": 72,
      "hit": false,
      "t": 98738.31285000005,
      "d": 866.2785500000027,
      "v": 69
    },
    {
      "midi": 72,
      "hit": false,
      "t": 99069.708,
      "d": 1372.0921999999991,
      "v": 85
    },
    {
      "midi": 67,
      "hit": false,
      "t": 99406.91710000005,
      "d": 988.3714999999938,
      "v": 78
    },
    {
      "midi": 67,
      "hit": false,
      "t": 99418.545,
      "d": 982.5575499999977,
      "v": 78
    },
    {
      "midi": 63,
      "hit": false,
      "t": 99744.12620000004,
      "d": 610.4647499999992,
      "v": 62
    },
    {
      "midi": 60,
      "hit": false,
      "t": 100116.21900000004,
      "d": 383.7207000000053,
      "v": 60
    },
    {
      "midi": 75,
      "hit": false,
      "t": 100465.05600000004,
      "d": 877.906449999995,
      "v": 62
    },
    {
      "midi": 70,
      "hit": false,
      "t": 100476.68390000005,
      "d": 906.9761999999901,
      "v": 70
    },
    {
      "midi": 66,
      "hit": false,
      "t": 100476.68390000005,
      "d": 924.418049999993,
      "v": 76
    },
    {
      "midi": 58,
      "hit": false,
      "t": 100790.63720000004,
      "d": 924.4180500000075,
      "v": 63
    },
    {
      "midi": 82,
      "hit": false,
      "t": 100848.7767,
      "d": 941.8598999999813,
      "v": 89
    },
    {
      "midi": 78,
      "hit": false,
      "t": 101162.73,
      "d": 1691.8594499999745,
      "v": 86
    },
    {
      "midi": 54,
      "hit": false,
      "t": 101162.73000000004,
      "d": 924.4180500000075,
      "v": 69
    },
    {
      "midi": 63,
      "hit": false,
      "t": 101517.38094999999,
      "d": 965.1156999999803,
      "v": 69
    },
    {
      "midi": 73,
      "hit": false,
      "t": 101523.19490000005,
      "d": 686.0461000000068,
      "v": 66
    },
    {
      "midi": 66,
      "hit": false,
      "t": 101523.19490000005,
      "d": 999.9994000000152,
      "v": 63
    },
    {
      "midi": 66,
      "hit": false,
      "t": 101534.8228,
      "d": 918.6040999999823,
      "v": 77
    },
    {
      "midi": 70,
      "hit": false,
      "t": 101534.82280000005,
      "d": 1668.6036500000191,
      "v": 68
    },
    {
      "midi": 75,
      "hit": false,
      "t": 101540.63674999999,
      "d": 1453.4874999999738,
      "v": 77
    },
    {
      "midi": 58,
      "hit": false,
      "t": 102232.49680000005,
      "d": 924.418050000022,
      "v": 69
    },
    {
      "midi": 75,
      "hit": false,
      "t": 102244.12470000006,
      "d": 732.5577000000194,
      "v": 60
    },
    {
      "midi": 73,
      "hit": false,
      "t": 102558.07800000007,
      "d": 575.581050000008,
      "v": 75
    },
    {
      "midi": 63,
      "hit": false,
      "t": 102563.89194999998,
      "d": 598.8368499999924,
      "v": 65
    },
    {
      "midi": 66,
      "hit": false,
      "t": 102569.70590000007,
      "d": 604.6508000000031,
      "v": 62
    },
    {
      "midi": 70,
      "hit": false,
      "t": 103255.75199999996,
      "d": 773.2553500000067,
      "v": 80
    },
    {
      "midi": 65,
      "hit": false,
      "t": 103273.19385000007,
      "d": 872.0924999999843,
      "v": 79
    },
    {
      "midi": 61,
      "hit": false,
      "t": 103279.00780000006,
      "d": 813.9529999999941,
      "v": 71
    },
    {
      "midi": 77,
      "hit": false,
      "t": 103604.58899999996,
      "d": 412.7904500000004,
      "v": 88
    },
    {
      "midi": 73,
      "hit": false,
      "t": 103953.42599999996,
      "d": 424.4183500000072,
      "v": 84
    },
    {
      "midi": 54,
      "hit": false,
      "t": 103953.42600000006,
      "d": 1232.557399999976,
      "v": 66
    },
    {
      "midi": 70,
      "hit": false,
      "t": 104302.26299999998,
      "d": 767.4413999999961,
      "v": 88
    },
    {
      "midi": 70,
      "hit": false,
      "t": 104319.70485000005,
      "d": 866.2785499999882,
      "v": 69
    },
    {
      "midi": 58,
      "hit": false,
      "t": 104651.10000000005,
      "d": 674.4181999999855,
      "v": 66
    },
    {
      "midi": 65,
      "hit": false,
      "t": 104988.30910000004,
      "d": 988.3714999999938,
      "v": 78
    },
    {
      "midi": 65,
      "hit": false,
      "t": 104999.93699999998,
      "d": 970.9296500000055,
      "v": 78
    },
    {
      "midi": 61,
      "hit": false,
      "t": 105325.51820000003,
      "d": 610.4647499999992,
      "v": 62
    },
    {
      "midi": 61,
      "hit": false,
      "t": 105348.77399999998,
      "d": 633.7205500000127,
      "v": 77
    },
    {
      "midi": 58,
      "hit": false,
      "t": 105697.61100000003,
      "d": 383.72069999999076,
      "v": 60
    },
    {
      "midi": 76,
      "hit": false,
      "t": 106046.44799999999,
      "d": 843.0227500000037,
      "v": 85
    },
    {
      "midi": 64,
      "hit": false,
      "t": 106046.44800000003,
      "d": 668.6042499999894,
      "v": 72
    },
    {
      "midi": 61,
      "hit": false,
      "t": 106052.26195000003,
      "d": 529.0694499999954,
      "v": 71
    },
    {
      "midi": 73,
      "hit": false,
      "t": 106395.28499999999,
      "d": 837.2087999999931,
      "v": 92
    },
    {
      "midi": 56,
      "hit": false,
      "t": 106395.28500000002,
      "d": 1430.2316999999894,
      "v": 58
    },
    {
      "midi": 80,
      "hit": false,
      "t": 106744.12199999999,
      "d": 941.8598999999958,
      "v": 85
    },
    {
      "midi": 61,
      "hit": false,
      "t": 106755.74990000002,
      "d": 732.5576999999903,
      "v": 66
    },
    {
      "midi": 68,
      "hit": false,
      "t": 107092.95899999999,
      "d": 1116.2783999999956,
      "v": 88
    },
    {
      "midi": 64,
      "hit": false,
      "t": 107092.95900000002,
      "d": 1738.3710500000016,
      "v": 78
    },
    {
      "midi": 76,
      "hit": false,
      "t": 107790.63299999999,
      "d": 1046.5109999999986,
      "v": 83
    },
    {
      "midi": 61,
      "hit": false,
      "t": 107848.7725,
      "d": 947.6738500000065,
      "v": 70
    },
    {
      "midi": 73,
      "hit": false,
      "t": 108139.46999999999,
      "d": 715.115850000002,
      "v": 92
    },
    {
      "midi": 56,
      "hit": false,
      "t": 108168.53975000001,
      "d": 627.9066000000021,
      "v": 65
    },
    {
      "midi": 68,
      "hit": false,
      "t": 108488.30699999999,
      "d": 348.83699999999953,
      "v": 83
    },
    {
      "midi": 75,
      "hit": false,
      "t": 108837.14399999999,
      "d": 872.0924999999988,
      "v": 81
    },
    {
      "midi": 52,
      "hit": false,
      "t": 108837.14400000001,
      "d": 1930.2314000000479,
      "v": 63
    },
    {
      "midi": 68,
      "hit": false,
      "t": 108848.77190000002,
      "d": 1383.7201000000205,
      "v": 74
    },
    {
      "midi": 63,
      "hit": false,
      "t": 109127.84150000002,
      "d": 1587.20835000003,
      "v": 67
    },
    {
      "midi": 68,
      "hit": false,
      "t": 109185.98099999999,
      "d": 732.5577000000048,
      "v": 80
    },
    {
      "midi": 71,
      "hit": false,
      "t": 109534.81799999998,
      "d": 877.9064500000095,
      "v": 93
    },
    {
      "midi": 59,
      "hit": false,
      "t": 109534.81800000003,
      "d": 534.8834000000061,
      "v": 69
    },
    {
      "midi": 56,
      "hit": false,
      "t": 109837.14340000003,
      "d": 581.3950000000186,
      "v": 61
    },
    {
      "midi": 63,
      "hit": false,
      "t": 109883.65499999998,
      "d": 755.8135000000184,
      "v": 67
    },
    {
      "midi": 59,
      "hit": false,
      "t": 110215.05015000004,
      "d": 540.6973500000167,
      "v": 66
    },
    {
      "midi": 75,
      "hit": false,
      "t": 110581.329,
      "d": 726.7437499999942,
      "v": 78
    },
    {
      "midi": 56,
      "hit": false,
      "t": 110587.14295000005,
      "d": 889.5343500000017,
      "v": 73
    },
    {
      "midi": 68,
      "hit": false,
      "t": 110930.166,
      "d": 436.0462499999994,
      "v": 84
    },
    {
      "midi": 59,
      "hit": false,
      "t": 110941.79390000006,
      "d": 639.5344999999943,
      "v": 68
    },
    {
      "midi": 63,
      "hit": false,
      "t": 110947.60785000006,
      "d": 651.1624000000011,
      "v": 60
    },
    {
      "midi": 71,
      "hit": false,
      "t": 111279.003,
      "d": 313.95329999999376,
      "v": 79
    },
    {
      "midi": 58,
      "hit": false,
      "t": 111627.84000000005,
      "d": 1040.6970500000025,
      "v": 73
    },
    {
      "midi": 73,
      "hit": false,
      "t": 111633.65394999999,
      "d": 1075.5807499999937,
      "v": 80
    },
    {
      "midi": 61,
      "hit": false,
      "t": 111651.09580000005,
      "d": 744.1855999999971,
      "v": 70
    },
    {
      "midi": 77,
      "hit": false,
      "t": 111982.49094999999,
      "d": 697.6739999999991,
      "v": 74
    },
    {
      "midi": 70,
      "hit": false,
      "t": 112325.514,
      "d": 1040.697049999988,
      "v": 81
    },
    {
      "midi": 65,
      "hit": false,
      "t": 112342.95585000006,
      "d": 1052.3249500000093,
      "v": 61
    },
    {
      "midi": 80,
      "hit": false,
      "t": 112651.0952,
      "d": 447.67414999999164,
      "v": 81
    },
    {
      "midi": 61,
      "hit": false,
      "t": 112703.42075000006,
      "d": 1703.4873500000103,
      "v": 68
    },
    {
      "midi": 77,
      "hit": false,
      "t": 112994.11824999998,
      "d": 1023.2551999999996,
      "v": 83
    },
    {
      "midi": 58,
      "hit": false,
      "t": 113372.02500000007,
      "d": 999.9994000000006,
      "v": 75
    },
    {
      "midi": 73,
      "hit": false,
      "t": 113389.46684999998,
      "d": 686.0461000000068,
      "v": 81
    },
    {
      "midi": 70,
      "hit": false,
      "t": 113738.30384999998,
      "d": 593.0229000000108,
      "v": 80
    },
    {
      "midi": 65,
      "hit": false,
      "t": 113744.11780000007,
      "d": 674.4182000000146,
      "v": 68
    },
    {
      "midi": 53,
      "hit": false,
      "t": 114069.69900000007,
      "d": 348.8370000000141,
      "v": 52
    },
    {
      "midi": 70,
      "hit": false,
      "t": 114418.536,
      "d": 1069.7667999999976,
      "v": 80
    },
    {
      "midi": 63,
      "hit": false,
      "t": 114430.16390000009,
      "d": 569.7670999999827,
      "v": 59
    },
    {
      "midi": 58,
      "hit": false,
      "t": 114435.97785000008,
      "d": 563.9531499999866,
      "v": 66
    },
    {
      "midi": 65,
      "hit": false,
      "t": 114441.79180000008,
      "d": 441.86019999999553,
      "v": 56
    },
    {
      "midi": 82,
      "hit": false,
      "t": 114767.37299999999,
      "d": 2023.2546000000002,
      "v": 81
    },
    {
      "midi": 79,
      "hit": false,
      "t": 115116.20999999999,
      "d": 808.139049999998,
      "v": 76
    },
    {
      "midi": 58,
      "hit": false,
      "t": 115133.65185000007,
      "d": 709.3018999999913,
      "v": 68
    },
    {
      "midi": 63,
      "hit": false,
      "t": 115133.65185000007,
      "d": 1215.1155500000023,
      "v": 62
    },
    {
      "midi": 65,
      "hit": false,
      "t": 115133.65185000007,
      "d": 1465.1154000000097,
      "v": 60
    },
    {
      "midi": 75,
      "hit": false,
      "t": 115465.04699999999,
      "d": 831.394849999997,
      "v": 89
    },
    {
      "midi": 51,
      "hit": false,
      "t": 115465.04700000006,
      "d": 1441.8596000000107,
      "v": 62
    },
    {
      "midi": 73,
      "hit": false,
      "t": 115813.88399999999,
      "d": 662.7902999999933,
      "v": 82
    },
    {
      "midi": 70,
      "hit": false,
      "t": 116162.72099999999,
      "d": 773.2553500000067,
      "v": 66
    },
    {
      "midi": 58,
      "hit": false,
      "t": 116162.72100000006,
      "d": 563.9531500000157,
      "v": 65
    },
    {
      "midi": 73,
      "hit": false,
      "t": 116511.55799999999,
      "d": 662.7903000000078,
      "v": 76
    },
    {
      "midi": 63,
      "hit": false,
      "t": 116534.81380000008,
      "d": 627.9065999999875,
      "v": 62
    },
    {
      "midi": 61,
      "hit": false,
      "t": 116540.62775000007,
      "d": 505.8136499999964,
      "v": 77
    },
    {
      "midi": 58,
      "hit": false,
      "t": 116860.39500000008,
      "d": 302.325399999987,
      "v": 63
    },
    {
      "midi": 77,
      "hit": false,
      "t": 117209.232,
      "d": 372.09279999999853,
      "v": 75
    },
    {
      "midi": 73,
      "hit": false,
      "t": 117209.232,
      "d": 877.906449999995,
      "v": 62
    },
    {
      "midi": 68,
      "hit": false,
      "t": 117209.232,
      "d": 1215.1155500000023,
      "v": 81
    },
    {
      "midi": 49,
      "hit": false,
      "t": 117209.23200000006,
      "d": 1220.9294999999984,
      "v": 64
    },
    {
      "midi": 63,
      "hit": false,
      "t": 117215.04595000006,
      "d": 360.4649000000063,
      "v": 81
    },
    {
      "midi": 75,
      "hit": false,
      "t": 117558.069,
      "d": 744.1855999999971,
      "v": 86
    },
    {
      "midi": 61,
      "hit": false,
      "t": 117558.06900000006,
      "d": 389.5346500000014,
      "v": 76
    },
    {
      "midi": 56,
      "hit": false,
      "t": 117941.78970000007,
      "d": 1220.9294999999984,
      "v": 75
    },
    {
      "midi": 73,
      "hit": false,
      "t": 118255.743,
      "d": 982.5575499999977,
      "v": 86
    },
    {
      "midi": 63,
      "hit": false,
      "t": 118255.74300000006,
      "d": 1093.0226000000112,
      "v": 67
    },
    {
      "midi": 60,
      "hit": false,
      "t": 118290.62670000007,
      "d": 825.5809000000008,
      "v": 61
    },
    {
      "midi": 68,
      "hit": false,
      "t": 118604.58,
      "d": 1220.9294999999984,
      "v": 92
    },
    {
      "midi": 73,
      "hit": false,
      "t": 119302.254,
      "d": 563.9531500000012,
      "v": 83
    },
    {
      "midi": 56,
      "hit": false,
      "t": 119308.06795000007,
      "d": 668.604250000004,
      "v": 67
    },
    {
      "midi": 61,
      "hit": false,
      "t": 119319.69585000008,
      "d": 651.1624000000011,
      "v": 76
    },
    {
      "midi": 63,
      "hit": false,
      "t": 119651.09100000007,
      "d": 279.06960000000254,
      "v": 67
    },
    {
      "midi": 75,
      "hit": false,
      "t": 119999.928,
      "d": 715.115850000002,
      "v": 94
    },
    {
      "midi": 67,
      "hit": false,
      "t": 120017.36985000008,
      "d": 872.0924999999843,
      "v": 79
    },
    {
      "midi": 63,
      "hit": false,
      "t": 120023.18380000007,
      "d": 813.9529999999941,
      "v": 71
    },
    {
      "midi": 67,
      "hit": false,
      "t": 120348.765,
      "d": 965.1157000000094,
      "v": 77
    },
    {
      "midi": 72,
      "hit": false,
      "t": 120697.602,
      "d": 517.4415500000032,
      "v": 80
    },
    {
      "midi": 56,
      "hit": false,
      "t": 120697.60200000007,
      "d": 1232.5573999999906,
      "v": 66
    },
    {
      "midi": 63,
      "hit": false,
      "t": 121046.439,
      "d": 1715.115250000017,
      "v": 69
    },
    {
      "midi": 72,
      "hit": false,
      "t": 121063.88085000006,
      "d": 866.2785500000027,
      "v": 69
    },
    {
      "midi": 72,
      "hit": false,
      "t": 121395.27600000001,
      "d": 1372.0921999999991,
      "v": 85
    },
    {
      "midi": 67,
      "hit": false,
      "t": 121732.48510000006,
      "d": 988.3714999999938,
      "v": 78
    },
    {
      "midi": 67,
      "hit": false,
      "t": 121744.11300000001,
      "d": 982.5575499999977,
      "v": 78
    },
    {
      "midi": 63,
      "hit": false,
      "t": 122069.69420000006,
      "d": 372.09279999999853,
      "v": 62
    },
    {
      "midi": 65,
      "hit": false,
      "t": 122418.53120000006,
      "d": 325.58120000000054,
      "v": 68
    },
    {
      "midi": 60,
      "hit": false,
      "t": 122441.78700000005,
      "d": 383.7207000000053,
      "v": 60
    },
    {
      "midi": 75,
      "hit": false,
      "t": 122790.62400000005,
      "d": 877.906449999995,
      "v": 62
    },
    {
      "midi": 70,
      "hit": false,
      "t": 122802.25190000006,
      "d": 906.9761999999901,
      "v": 70
    },
    {
      "midi": 66,
      "hit": false,
      "t": 122802.25190000006,
      "d": 924.418049999993,
      "v": 76
    },
    {
      "midi": 58,
      "hit": false,
      "t": 123116.20520000005,
      "d": 924.418049999993,
      "v": 63
    },
    {
      "midi": 82,
      "hit": false,
      "t": 123174.34470000002,
      "d": 941.8598999999813,
      "v": 89
    },
    {
      "midi": 78,
      "hit": false,
      "t": 123488.29800000001,
      "d": 1691.8594499999745,
      "v": 86
    },
    {
      "midi": 54,
      "hit": false,
      "t": 123488.29800000005,
      "d": 924.418049999993,
      "v": 69
    },
    {
      "midi": 63,
      "hit": false,
      "t": 123842.94895,
      "d": 965.1156999999803,
      "v": 69
    },
    {
      "midi": 63,
      "hit": false,
      "t": 123842.94895000005,
      "d": 999.9994000000152,
      "v": 70
    },
    {
      "midi": 73,
      "hit": false,
      "t": 123848.76290000005,
      "d": 686.0461000000068,
      "v": 66
    },
    {
      "midi": 66,
      "hit": false,
      "t": 123860.39080000001,
      "d": 918.6040999999823,
      "v": 77
    },
    {
      "midi": 70,
      "hit": false,
      "t": 123860.39080000005,
      "d": 1668.6036500000191,
      "v": 68
    },
    {
      "midi": 75,
      "hit": false,
      "t": 123866.20475,
      "d": 1453.4874999999738,
      "v": 77
    },
    {
      "midi": 58,
      "hit": false,
      "t": 124558.06480000005,
      "d": 924.418050000022,
      "v": 69
    },
    {
      "midi": 75,
      "hit": false,
      "t": 124569.69270000006,
      "d": 732.5577000000194,
      "v": 60
    },
    {
      "midi": 73,
      "hit": false,
      "t": 124883.64600000007,
      "d": 575.581050000008,
      "v": 75
    },
    {
      "midi": 63,
      "hit": false,
      "t": 124889.45994999999,
      "d": 598.8368499999924,
      "v": 65
    },
    {
      "midi": 66,
      "hit": false,
      "t": 124895.27390000007,
      "d": 604.6508000000031,
      "v": 62
    },
    {
      "midi": 70,
      "hit": false,
      "t": 125581.31999999998,
      "d": 773.2553500000067,
      "v": 80
    },
    {
      "midi": 70,
      "hit": false,
      "t": 125581.32000000007,
      "d": 872.0924999999988,
      "v": 61
    },
    {
      "midi": 65,
      "hit": false,
      "t": 125598.76185000007,
      "d": 872.0924999999988,
      "v": 79
    },
    {
      "midi": 61,
      "hit": false,
      "t": 125604.57580000006,
      "d": 813.9529999999941,
      "v": 71
    },
    {
      "midi": 77,
      "hit": false,
      "t": 125930.15699999998,
      "d": 412.7904500000004,
      "v": 88
    },
    {
      "midi": 54,
      "hit": false,
      "t": 125930.15700000006,
      "d": 1232.5574000000051,
      "v": 66
    },
    {
      "midi": 73,
      "hit": false,
      "t": 126278.99399999998,
      "d": 424.4183500000072,
      "v": 84
    },
    {
      "midi": 58,
      "hit": false,
      "t": 126278.99400000006,
      "d": 441.86019999999553,
      "v": 66
    },
    {
      "midi": 70,
      "hit": false,
      "t": 126627.83099999999,
      "d": 767.4413999999961,
      "v": 88
    },
    {
      "midi": 61,
      "hit": false,
      "t": 126627.83100000006,
      "d": 697.6740000000136,
      "v": 66
    },
    {
      "midi": 73,
      "hit": false,
      "t": 126627.83100000006,
      "d": 866.2785500000173,
      "v": 69
    },
    {
      "midi": 70,
      "hit": false,
      "t": 126645.27285000007,
      "d": 866.2785500000173,
      "v": 69
    },
    {
      "midi": 58,
      "hit": false,
      "t": 126976.66800000006,
      "d": 674.4182000000146,
      "v": 66
    },
    {
      "midi": 65,
      "hit": false,
      "t": 127313.87710000007,
      "d": 988.3715000000084,
      "v": 78
    },
    {
      "midi": 65,
      "hit": false,
      "t": 127325.50499999999,
      "d": 970.9296500000055,
      "v": 78
    },
    {
      "midi": 61,
      "hit": false,
      "t": 127651.08620000008,
      "d": 610.4647499999992,
      "v": 62
    },
    {
      "midi": 61,
      "hit": false,
      "t": 127674.34199999999,
      "d": 633.7205500000127,
      "v": 77
    },
    {
      "midi": 58,
      "hit": false,
      "t": 128023.17900000008,
      "d": 383.72069999999076,
      "v": 60
    },
    {
      "midi": 76,
      "hit": false,
      "t": 128372.016,
      "d": 843.0227500000037,
      "v": 85
    },
    {
      "midi": 64,
      "hit": false,
      "t": 128372.01600000008,
      "d": 668.6042499999894,
      "v": 72
    },
    {
      "midi": 73,
      "hit": false,
      "t": 128372.01600000008,
      "d": 668.6042499999894,
      "v": 72
    },
    {
      "midi": 61,
      "hit": false,
      "t": 128377.82995000007,
      "d": 529.0694499999954,
      "v": 71
    },
    {
      "midi": 73,
      "hit": false,
      "t": 128720.853,
      "d": 837.2087999999931,
      "v": 92
    },
    {
      "midi": 56,
      "hit": false,
      "t": 128720.85300000006,
      "d": 1430.231700000004,
      "v": 58
    },
    {
      "midi": 80,
      "hit": false,
      "t": 129069.69,
      "d": 941.8598999999958,
      "v": 85
    },
    {
      "midi": 61,
      "hit": false,
      "t": 129081.31790000007,
      "d": 732.5576999999903,
      "v": 66
    },
    {
      "midi": 68,
      "hit": false,
      "t": 129418.527,
      "d": 1116.2783999999956,
      "v": 88
    },
    {
      "midi": 73,
      "hit": false,
      "t": 129418.52700000006,
      "d": 1581.3944000000192,
      "v": 72
    },
    {
      "midi": 64,
      "hit": false,
      "t": 129418.52700000006,
      "d": 1738.3710500000452,
      "v": 78
    },
    {
      "midi": 76,
      "hit": false,
      "t": 130116.201,
      "d": 1046.5109999999986,
      "v": 83
    },
    {
      "midi": 61,
      "hit": false,
      "t": 130116.20100000006,
      "d": 947.673850000021,
      "v": 70
    },
    {
      "midi": 73,
      "hit": false,
      "t": 130465.038,
      "d": 715.115850000002,
      "v": 92
    },
    {
      "midi": 56,
      "hit": false,
      "t": 130494.10775000007,
      "d": 627.9066000000312,
      "v": 65
    },
    {
      "midi": 68,
      "hit": false,
      "t": 130813.875,
      "d": 348.83699999999953,
      "v": 83
    },
    {
      "midi": 75,
      "hit": false,
      "t": 130860.38660000007,
      "d": 122.09295000000566,
      "v": 64
    },
    {
      "midi": 76,
      "hit": false,
      "t": 130994.10745000008,
      "d": 122.09295000000566,
      "v": 75
    },
    {
      "midi": 75,
      "hit": false,
      "t": 131162.712,
      "d": 872.0924999999988,
      "v": 81
    },
    {
      "midi": 71,
      "hit": false,
      "t": 131162.71200000012,
      "d": 1383.7200999999768,
      "v": 74
    },
    {
      "midi": 52,
      "hit": false,
      "t": 131162.71200000012,
      "d": 1930.2313999999315,
      "v": 63
    },
    {
      "midi": 68,
      "hit": false,
      "t": 131174.3399000001,
      "d": 1383.7200999999768,
      "v": 74
    },
    {
      "midi": 63,
      "hit": false,
      "t": 131453.4095000001,
      "d": 1587.2083499999717,
      "v": 67
    },
    {
      "midi": 68,
      "hit": false,
      "t": 131511.549,
      "d": 732.5577000000048,
      "v": 80
    },
    {
      "midi": 71,
      "hit": false,
      "t": 131860.386,
      "d": 877.9064500000095,
      "v": 93
    },
    {
      "midi": 59,
      "hit": false,
      "t": 131860.3860000001,
      "d": 534.8833999999915,
      "v": 69
    },
    {
      "midi": 63,
      "hit": false,
      "t": 132209.223,
      "d": 755.8134999999893,
      "v": 67
    },
    {
      "midi": 56,
      "hit": false,
      "t": 132209.2230000001,
      "d": 581.3949999999895,
      "v": 61
    },
    {
      "midi": 78,
      "hit": false,
      "t": 132209.2230000001,
      "d": 1587.2083499999717,
      "v": 79
    },
    {
      "midi": 59,
      "hit": false,
      "t": 132540.61815000008,
      "d": 540.6973499999731,
      "v": 66
    },
    {
      "midi": 75,
      "hit": false,
      "t": 132906.897,
      "d": 726.7437499999942,
      "v": 78
    },
    {
      "midi": 56,
      "hit": false,
      "t": 132912.71095000007,
      "d": 889.5343500000017,
      "v": 73
    },
    {
      "midi": 68,
      "hit": false,
      "t": 133255.734,
      "d": 436.04624999998487,
      "v": 84
    },
    {
      "midi": 59,
      "hit": false,
      "t": 133267.36190000005,
      "d": 639.5345000000088,
      "v": 68
    },
    {
      "midi": 63,
      "hit": false,
      "t": 133273.17585000006,
      "d": 651.1624000000011,
      "v": 60
    },
    {
      "midi": 71,
      "hit": false,
      "t": 133604.571,
      "d": 313.95329999999376,
      "v": 79
    },
    {
      "midi": 58,
      "hit": false,
      "t": 133953.40800000005,
      "d": 1040.697050000017,
      "v": 73
    },
    {
      "midi": 73,
      "hit": false,
      "t": 133959.22194999998,
      "d": 1075.5807499999646,
      "v": 80
    },
    {
      "midi": 61,
      "hit": false,
      "t": 133976.66380000007,
      "d": 744.1855999999971,
      "v": 70
    },
    {
      "midi": 68,
      "hit": false,
      "t": 133994.10565000007,
      "d": 1563.9525500000163,
      "v": 71
    },
    {
      "midi": 77,
      "hit": false,
      "t": 134308.05894999998,
      "d": 697.67399999997,
      "v": 74
    },
    {
      "midi": 70,
      "hit": false,
      "t": 134651.08199999997,
      "d": 1040.6970499999588,
      "v": 81
    },
    {
      "midi": 65,
      "hit": false,
      "t": 134668.52385000006,
      "d": 1052.3249500000384,
      "v": 61
    },
    {
      "midi": 80,
      "hit": false,
      "t": 134976.66319999995,
      "d": 447.6741499999771,
      "v": 81
    },
    {
      "midi": 61,
      "hit": false,
      "t": 135028.98875000008,
      "d": 1703.4873500000103,
      "v": 68
    },
    {
      "midi": 77,
      "hit": false,
      "t": 135319.68624999994,
      "d": 1023.255199999985,
      "v": 83
    },
    {
      "midi": 58,
      "hit": false,
      "t": 135697.59300000008,
      "d": 999.9994000000006,
      "v": 75
    },
    {
      "midi": 73,
      "hit": false,
      "t": 135715.03484999994,
      "d": 686.0460999999777,
      "v": 81
    },
    {
      "midi": 70,
      "hit": false,
      "t": 136063.87184999994,
      "d": 593.0228999999817,
      "v": 80
    },
    {
      "midi": 65,
      "hit": false,
      "t": 136069.6858000001,
      "d": 674.4181999999855,
      "v": 68
    },
    {
      "midi": 68,
      "hit": false,
      "t": 136395.26700000008,
      "d": 331.39514999999665,
      "v": 86
    },
    {
      "midi": 53,
      "hit": false,
      "t": 136395.26700000008,
      "d": 348.83699999999953,
      "v": 52
    },
    {
      "midi": 70,
      "hit": false,
      "t": 136744.10399999993,
      "d": 1069.7668000000122,
      "v": 80
    },
    {
      "midi": 70,
      "hit": false,
      "t": 136744.10400000008,
      "d": 1930.2314000000188,
      "v": 80
    },
    {
      "midi": 63,
      "hit": false,
      "t": 136755.73190000007,
      "d": 569.7671000000264,
      "v": 67
    },
    {
      "midi": 58,
      "hit": false,
      "t": 136761.54585000008,
      "d": 563.9531500000157,
      "v": 66
    },
    {
      "midi": 65,
      "hit": false,
      "t": 136767.3598000001,
      "d": 441.86019999999553,
      "v": 56
    },
    {
      "midi": 82,
      "hit": false,
      "t": 137092.94099999993,
      "d": 2023.2546000000148,
      "v": 81
    },
    {
      "midi": 79,
      "hit": false,
      "t": 137441.77799999993,
      "d": 808.139049999998,
      "v": 76
    },
    {
      "midi": 58,
      "hit": false,
      "t": 137459.2198500001,
      "d": 709.3018999999913,
      "v": 68
    },
    {
      "midi": 63,
      "hit": false,
      "t": 137459.2198500001,
      "d": 1215.1155499999877,
      "v": 62
    },
    {
      "midi": 65,
      "hit": false,
      "t": 137459.2198500001,
      "d": 1465.1153999999806,
      "v": 60
    },
    {
      "midi": 75,
      "hit": false,
      "t": 137790.61499999993,
      "d": 831.3948500000115,
      "v": 89
    },
    {
      "midi": 51,
      "hit": false,
      "t": 137790.6150000001,
      "d": 1441.8595999999961,
      "v": 62
    },
    {
      "midi": 73,
      "hit": false,
      "t": 138139.45199999993,
      "d": 662.7903000000224,
      "v": 82
    },
    {
      "midi": 70,
      "hit": false,
      "t": 138488.28899999993,
      "d": 773.2553500000213,
      "v": 66
    },
    {
      "midi": 58,
      "hit": false,
      "t": 138488.2890000001,
      "d": 563.9531499999866,
      "v": 65
    },
    {
      "midi": 73,
      "hit": false,
      "t": 138837.12599999996,
      "d": 662.7902999999933,
      "v": 76
    },
    {
      "midi": 63,
      "hit": false,
      "t": 138860.3818000001,
      "d": 627.9066000000166,
      "v": 62
    },
    {
      "midi": 61,
      "hit": false,
      "t": 138866.1957500001,
      "d": 505.8136499999964,
      "v": 77
    },
    {
      "midi": 58,
      "hit": false,
      "t": 139185.9630000001,
      "d": 302.32540000000154,
      "v": 63
    },
    {
      "midi": 77,
      "hit": false,
      "t": 139534.79999999996,
      "d": 372.0928000000131,
      "v": 75
    },
    {
      "midi": 73,
      "hit": false,
      "t": 139534.79999999996,
      "d": 877.9064500000095,
      "v": 62
    },
    {
      "midi": 68,
      "hit": false,
      "t": 139534.79999999996,
      "d": 1215.1155499999877,
      "v": 81
    },
    {
      "midi": 49,
      "hit": false,
      "t": 139534.8000000001,
      "d": 1220.9295000000275,
      "v": 64
    },
    {
      "midi": 63,
      "hit": false,
      "t": 139540.61395000012,
      "d": 360.46489999999176,
      "v": 81
    },
    {
      "midi": 75,
      "hit": false,
      "t": 139883.63699999996,
      "d": 744.1855999999971,
      "v": 86
    },
    {
      "midi": 61,
      "hit": false,
      "t": 139883.6370000001,
      "d": 389.534650000016,
      "v": 76
    },
    {
      "midi": 56,
      "hit": false,
      "t": 140267.3577000001,
      "d": 1220.9295000000275,
      "v": 75
    },
    {
      "midi": 73,
      "hit": false,
      "t": 140581.31099999996,
      "d": 982.5575499999977,
      "v": 86
    },
    {
      "midi": 63,
      "hit": false,
      "t": 140581.31100000013,
      "d": 1709.301299999992,
      "v": 67
    },
    {
      "midi": 60,
      "hit": false,
      "t": 140616.19470000014,
      "d": 825.5809000000008,
      "v": 61
    },
    {
      "midi": 68,
      "hit": false,
      "t": 140930.14799999996,
      "d": 1220.9294999999984,
      "v": 92
    },
    {
      "midi": 73,
      "hit": false,
      "t": 141627.82199999996,
      "d": 563.9531499999866,
      "v": 83
    },
    {
      "midi": 56,
      "hit": false,
      "t": 141633.63595000014,
      "d": 668.604250000004,
      "v": 67
    },
    {
      "midi": 61,
      "hit": false,
      "t": 141645.26385000013,
      "d": 651.1624000000011,
      "v": 76
    },
    {
      "midi": 75,
      "hit": false,
      "t": 142325.49599999996,
      "d": 715.115850000002,
      "v": 94
    },
    {
      "midi": 67,
      "hit": false,
      "t": 142342.93785000013,
      "d": 872.0924999999988,
      "v": 79
    },
    {
      "midi": 63,
      "hit": false,
      "t": 142348.75180000014,
      "d": 813.9529999999795,
      "v": 71
    },
    {
      "midi": 67,
      "hit": false,
      "t": 142674.33299999996,
      "d": 965.1156999999948,
      "v": 77
    },
    {
      "midi": 72,
      "hit": false,
      "t": 143023.16999999995,
      "d": 517.4415499999886,
      "v": 80
    },
    {
      "midi": 56,
      "hit": false,
      "t": 143023.17000000013,
      "d": 1232.5574000000197,
      "v": 66
    },
    {
      "midi": 63,
      "hit": false,
      "t": 143372.00699999995,
      "d": 1715.1152500000026,
      "v": 69
    },
    {
      "midi": 72,
      "hit": false,
      "t": 143389.44885000013,
      "d": 866.2785500000173,
      "v": 69
    },
    {
      "midi": 72,
      "hit": false,
      "t": 143720.84399999995,
      "d": 1372.0922000000137,
      "v": 85
    },
    {
      "midi": 67,
      "hit": false,
      "t": 144058.05310000014,
      "d": 988.3715000000084,
      "v": 78
    },
    {
      "midi": 67,
      "hit": false,
      "t": 144069.68099999995,
      "d": 982.5575499999977,
      "v": 78
    },
    {
      "midi": 63,
      "hit": false,
      "t": 144395.26220000014,
      "d": 610.4647500000137,
      "v": 62
    },
    {
      "midi": 60,
      "hit": false,
      "t": 144767.35500000016,
      "d": 383.7207000000053,
      "v": 60
    },
    {
      "midi": 77,
      "hit": false,
      "t": 145116.19199999998,
      "d": 372.0928000000131,
      "v": 75
    },
    {
      "midi": 73,
      "hit": false,
      "t": 145116.19199999998,
      "d": 877.9064500000095,
      "v": 62
    },
    {
      "midi": 68,
      "hit": false,
      "t": 145116.19199999998,
      "d": 1215.1155499999877,
      "v": 81
    },
    {
      "midi": 49,
      "hit": false,
      "t": 145116.19200000016,
      "d": 1220.9295000000275,
      "v": 64
    },
    {
      "midi": 63,
      "hit": false,
      "t": 145122.00595000017,
      "d": 360.46489999999176,
      "v": 81
    },
    {
      "midi": 75,
      "hit": false,
      "t": 145465.02899999998,
      "d": 744.1855999999971,
      "v": 86
    },
    {
      "midi": 61,
      "hit": false,
      "t": 145465.02900000016,
      "d": 389.534650000016,
      "v": 76
    },
    {
      "midi": 56,
      "hit": false,
      "t": 145848.74970000016,
      "d": 1220.9295000000275,
      "v": 75
    },
    {
      "midi": 73,
      "hit": false,
      "t": 146162.70299999998,
      "d": 982.5575499999977,
      "v": 86
    },
    {
      "midi": 63,
      "hit": false,
      "t": 146162.70300000018,
      "d": 1709.301299999992,
      "v": 67
    },
    {
      "midi": 60,
      "hit": false,
      "t": 146197.5867000002,
      "d": 825.5809000000008,
      "v": 61
    },
    {
      "midi": 68,
      "hit": false,
      "t": 146511.53999999998,
      "d": 1220.9294999999984,
      "v": 92
    },
    {
      "midi": 73,
      "hit": false,
      "t": 147209.21399999998,
      "d": 563.9531499999866,
      "v": 83
    },
    {
      "midi": 56,
      "hit": false,
      "t": 147215.0279500002,
      "d": 668.604250000004,
      "v": 67
    },
    {
      "midi": 61,
      "hit": false,
      "t": 147226.65585000018,
      "d": 651.1624000000011,
      "v": 76
    },
    {
      "midi": 75,
      "hit": false,
      "t": 147906.88799999998,
      "d": 715.115850000002,
      "v": 94
    },
    {
      "midi": 67,
      "hit": false,
      "t": 147924.32985000018,
      "d": 872.0924999999988,
      "v": 79
    },
    {
      "midi": 63,
      "hit": false,
      "t": 147930.1438000002,
      "d": 813.9529999999795,
      "v": 71
    },
    {
      "midi": 67,
      "hit": false,
      "t": 148255.72499999998,
      "d": 965.1156999999948,
      "v": 77
    },
    {
      "midi": 72,
      "hit": false,
      "t": 148604.56199999998,
      "d": 517.4415499999886,
      "v": 80
    },
    {
      "midi": 56,
      "hit": false,
      "t": 148604.56200000018,
      "d": 1232.5574000000197,
      "v": 66
    },
    {
      "midi": 63,
      "hit": false,
      "t": 148953.39899999998,
      "d": 1715.1152500000026,
      "v": 69
    },
    {
      "midi": 72,
      "hit": false,
      "t": 148970.84085000018,
      "d": 866.2785500000173,
      "v": 69
    },
    {
      "midi": 72,
      "hit": false,
      "t": 149302.23599999998,
      "d": 1372.0922000000137,
      "v": 85
    },
    {
      "midi": 67,
      "hit": false,
      "t": 149639.4451000002,
      "d": 988.3715000000084,
      "v": 78
    },
    {
      "midi": 67,
      "hit": false,
      "t": 149651.07299999997,
      "d": 982.5575499999977,
      "v": 78
    },
    {
      "midi": 63,
      "hit": false,
      "t": 149976.6542000002,
      "d": 610.4647500000137,
      "v": 62
    },
    {
      "midi": 60,
      "hit": false,
      "t": 150348.7470000002,
      "d": 383.7207000000053,
      "v": 60
    },
    {
      "midi": 75,
      "hit": false,
      "t": 150697.5840000002,
      "d": 877.9064500000386,
      "v": 62
    },
    {
      "midi": 70,
      "hit": false,
      "t": 150709.2119000002,
      "d": 906.9762000000337,
      "v": 70
    },
    {
      "midi": 66,
      "hit": false,
      "t": 150709.2119000002,
      "d": 924.4180500000366,
      "v": 76
    },
    {
      "midi": 58,
      "hit": false,
      "t": 151023.16520000022,
      "d": 924.4180500000075,
      "v": 63
    },
    {
      "midi": 82,
      "hit": false,
      "t": 151081.30469999998,
      "d": 941.8599000000104,
      "v": 89
    },
    {
      "midi": 78,
      "hit": false,
      "t": 151395.25799999997,
      "d": 1691.8594500000181,
      "v": 86
    },
    {
      "midi": 54,
      "hit": false,
      "t": 151395.25800000023,
      "d": 924.4180500000075,
      "v": 69
    },
    {
      "midi": 63,
      "hit": false,
      "t": 151749.90894999998,
      "d": 965.1156999999948,
      "v": 69
    },
    {
      "midi": 73,
      "hit": false,
      "t": 151755.72290000023,
      "d": 686.0461000000068,
      "v": 66
    },
    {
      "midi": 66,
      "hit": false,
      "t": 151755.72290000023,
      "d": 999.9994000000006,
      "v": 63
    },
    {
      "midi": 66,
      "hit": false,
      "t": 151767.3508,
      "d": 918.6040999999968,
      "v": 77
    },
    {
      "midi": 70,
      "hit": false,
      "t": 151767.35080000022,
      "d": 1668.6036500000046,
      "v": 68
    },
    {
      "midi": 75,
      "hit": false,
      "t": 151773.16475,
      "d": 1453.4874999999884,
      "v": 77
    },
    {
      "midi": 58,
      "hit": false,
      "t": 152465.02480000025,
      "d": 924.4180499999784,
      "v": 69
    },
    {
      "midi": 75,
      "hit": false,
      "t": 152476.65270000024,
      "d": 732.5576999999757,
      "v": 60
    },
    {
      "midi": 73,
      "hit": false,
      "t": 152790.60600000023,
      "d": 575.5810499999789,
      "v": 75
    },
    {
      "midi": 63,
      "hit": false,
      "t": 152796.41994999998,
      "d": 598.8368499999924,
      "v": 65
    },
    {
      "midi": 66,
      "hit": false,
      "t": 152802.23390000022,
      "d": 604.6508000000031,
      "v": 62
    },
    {
      "midi": 70,
      "hit": false,
      "t": 153488.27999999997,
      "d": 773.2553499999922,
      "v": 80
    },
    {
      "midi": 65,
      "hit": false,
      "t": 153505.72185000023,
      "d": 872.0924999999988,
      "v": 79
    },
    {
      "midi": 61,
      "hit": false,
      "t": 153511.53580000025,
      "d": 813.9529999999795,
      "v": 71
    },
    {
      "midi": 77,
      "hit": false,
      "t": 153837.11699999997,
      "d": 412.7904500000004,
      "v": 88
    },
    {
      "midi": 73,
      "hit": false,
      "t": 154185.95399999997,
      "d": 424.41834999999264,
      "v": 84
    },
    {
      "midi": 54,
      "hit": false,
      "t": 154185.95400000023,
      "d": 1232.5574000000197,
      "v": 66
    },
    {
      "midi": 70,
      "hit": false,
      "t": 154534.79099999997,
      "d": 767.4414000000106,
      "v": 88
    },
    {
      "midi": 70,
      "hit": false,
      "t": 154552.23285000023,
      "d": 866.2785500000173,
      "v": 69
    },
    {
      "midi": 58,
      "hit": false,
      "t": 154883.62800000023,
      "d": 674.4182000000146,
      "v": 66
    },
    {
      "midi": 65,
      "hit": false,
      "t": 155220.83710000024,
      "d": 988.3715000000084,
      "v": 78
    },
    {
      "midi": 65,
      "hit": false,
      "t": 155232.46499999997,
      "d": 970.9296500000055,
      "v": 78
    },
    {
      "midi": 61,
      "hit": false,
      "t": 155558.04620000024,
      "d": 610.4647500000137,
      "v": 62
    },
    {
      "midi": 61,
      "hit": false,
      "t": 155581.30199999997,
      "d": 633.7205499999982,
      "v": 77
    },
    {
      "midi": 58,
      "hit": false,
      "t": 156278.97600000026,
      "d": 34.883700000005774,
      "v": 73
    },
    {
      "midi": 73,
      "hit": false,
      "t": 156284.78994999998,
      "d": 1075.5807499999646,
      "v": 80
    },
    {
      "midi": 61,
      "hit": false,
      "t": 156302.23180000027,
      "d": 744.1855999999971,
      "v": 70
    },
    {
      "midi": 68,
      "hit": false,
      "t": 156319.67365000027,
      "d": 1563.9525500000163,
      "v": 71
    },
    {
      "midi": 77,
      "hit": false,
      "t": 156633.62694999998,
      "d": 697.67399999997,
      "v": 74
    },
    {
      "midi": 70,
      "hit": false,
      "t": 156976.64999999997,
      "d": 1040.6970499999588,
      "v": 81
    },
    {
      "midi": 65,
      "hit": false,
      "t": 156994.09185000026,
      "d": 883.7204000000202,
      "v": 61
    },
    {
      "midi": 80,
      "hit": false,
      "t": 157302.23119999995,
      "d": 447.6741499999771,
      "v": 81
    },
    {
      "midi": 61,
      "hit": false,
      "t": 157354.55675000028,
      "d": 1703.4873500000103,
      "v": 68
    },
    {
      "midi": 77,
      "hit": false,
      "t": 157645.25424999994,
      "d": 1023.255199999985,
      "v": 83
    },
    {
      "midi": 65,
      "hit": false,
      "t": 158023.16100000028,
      "d": 412.7904500000004,
      "v": 68
    },
    {
      "midi": 58,
      "hit": false,
      "t": 158023.16100000028,
      "d": 575.581050000008,
      "v": 75
    },
    {
      "midi": 73,
      "hit": false,
      "t": 158040.60284999994,
      "d": 686.0460999999777,
      "v": 81
    },
    {
      "midi": 68,
      "hit": false,
      "t": 158371.99800000028,
      "d": 331.39514999999665,
      "v": 86
    },
    {
      "midi": 70,
      "hit": false,
      "t": 158389.43984999994,
      "d": 593.0228999999817,
      "v": 80
    },
    {
      "midi": 53,
      "hit": false,
      "t": 158720.83500000028,
      "d": 348.83699999999953,
      "v": 52
    },
    {
      "midi": 65,
      "hit": false,
      "t": 158720.83500000028,
      "d": 575.5810499999789,
      "v": 56
    },
    {
      "midi": 75,
      "hit": false,
      "t": 158726.64894999992,
      "d": 1023.2552000000142,
      "v": 89
    },
    {
      "midi": 70,
      "hit": false,
      "t": 158744.0908000003,
      "d": 1930.2313999999897,
      "v": 80
    },
    {
      "midi": 58,
      "hit": false,
      "t": 158761.5326500003,
      "d": 953.4877999999735,
      "v": 66
    },
    {
      "midi": 70,
      "hit": false,
      "t": 159069.67199999993,
      "d": 1069.7668000000122,
      "v": 80
    },
    {
      "midi": 63,
      "hit": false,
      "t": 159081.29990000027,
      "d": 569.7670999999973,
      "v": 67
    },
    {
      "midi": 82,
      "hit": false,
      "t": 159418.50899999993,
      "d": 2023.2546000000148,
      "v": 81
    },
    {
      "midi": 79,
      "hit": false,
      "t": 159767.34599999993,
      "d": 808.139049999998,
      "v": 76
    },
    {
      "midi": 58,
      "hit": false,
      "t": 159784.78785000028,
      "d": 709.3018999999913,
      "v": 68
    },
    {
      "midi": 63,
      "hit": false,
      "t": 159784.78785000028,
      "d": 1215.1155499999877,
      "v": 62
    },
    {
      "midi": 65,
      "hit": false,
      "t": 159784.78785000028,
      "d": 1465.1153999999806,
      "v": 60
    },
    {
      "midi": 75,
      "hit": false,
      "t": 160116.18299999993,
      "d": 255.81380000000354,
      "v": 89
    },
    {
      "midi": 51,
      "hit": false,
      "t": 160116.18300000028,
      "d": 1441.8595999999961,
      "v": 62
    },
    {
      "midi": 75,
      "hit": false,
      "t": 160465.01999999993,
      "d": 372.0928000000131,
      "v": 89
    },
    {
      "midi": 73,
      "hit": false,
      "t": 160465.01999999993,
      "d": 662.7903000000224,
      "v": 82
    },
    {
      "midi": 70,
      "hit": false,
      "t": 160813.85699999993,
      "d": 773.2553500000213,
      "v": 66
    },
    {
      "midi": 77,
      "hit": false,
      "t": 160813.85699999993,
      "d": 1418.6038000000408,
      "v": 99
    },
    {
      "midi": 58,
      "hit": false,
      "t": 160813.85700000028,
      "d": 563.9531499999866,
      "v": 65
    },
    {
      "midi": 73,
      "hit": false,
      "t": 161162.69399999996,
      "d": 325.581199999986,
      "v": 76
    },
    {
      "midi": 63,
      "hit": false,
      "t": 161185.94980000026,
      "d": 627.9066000000166,
      "v": 62
    },
    {
      "midi": 61,
      "hit": false,
      "t": 161191.76375000027,
      "d": 505.8136499999964,
      "v": 77
    },
    {
      "midi": 58,
      "hit": false,
      "t": 161511.53100000028,
      "d": 302.32540000000154,
      "v": 63
    },
    {
      "midi": 73,
      "hit": false,
      "t": 161534.78679999994,
      "d": 877.9064500000386,
      "v": 78
    },
    {
      "midi": 68,
      "hit": false,
      "t": 161860.36799999996,
      "d": 1215.1155500000168,
      "v": 81
    },
    {
      "midi": 49,
      "hit": false,
      "t": 161860.36800000028,
      "d": 1220.9295000000275,
      "v": 64
    },
    {
      "midi": 63,
      "hit": false,
      "t": 161866.1819500003,
      "d": 360.46489999999176,
      "v": 81
    },
    {
      "midi": 75,
      "hit": false,
      "t": 162209.20499999996,
      "d": 744.1856000000262,
      "v": 86
    },
    {
      "midi": 61,
      "hit": false,
      "t": 162209.20500000028,
      "d": 389.534650000016,
      "v": 76
    },
    {
      "midi": 56,
      "hit": false,
      "t": 162592.92570000028,
      "d": 1220.9295000000275,
      "v": 75
    },
    {
      "midi": 73,
      "hit": false,
      "t": 162906.879,
      "d": 982.5575499999977,
      "v": 86
    },
    {
      "midi": 63,
      "hit": false,
      "t": 162906.8790000003,
      "d": 1709.301299999992,
      "v": 67
    },
    {
      "midi": 60,
      "hit": false,
      "t": 162941.7627000003,
      "d": 825.5809000000008,
      "v": 61
    },
    {
      "midi": 68,
      "hit": false,
      "t": 163255.716,
      "d": 1220.9294999999984,
      "v": 92
    },
    {
      "midi": 73,
      "hit": false,
      "t": 163953.38999999998,
      "d": 563.9531499999866,
      "v": 83
    },
    {
      "midi": 56,
      "hit": false,
      "t": 163959.20395000032,
      "d": 668.604250000004,
      "v": 67
    },
    {
      "midi": 61,
      "hit": false,
      "t": 163970.8318500003,
      "d": 651.1624000000011,
      "v": 76
    },
    {
      "midi": 75,
      "hit": false,
      "t": 164651.06399999998,
      "d": 715.115850000002,
      "v": 94
    },
    {
      "midi": 67,
      "hit": false,
      "t": 164668.5058500003,
      "d": 872.0924999999988,
      "v": 79
    },
    {
      "midi": 63,
      "hit": false,
      "t": 164674.31980000032,
      "d": 813.9529999999795,
      "v": 71
    },
    {
      "midi": 67,
      "hit": false,
      "t": 164999.90099999998,
      "d": 965.1156999999948,
      "v": 77
    },
    {
      "midi": 72,
      "hit": false,
      "t": 165348.73799999998,
      "d": 517.4415499999886,
      "v": 80
    },
    {
      "midi": 56,
      "hit": false,
      "t": 165348.7380000003,
      "d": 1232.5574000000197,
      "v": 66
    },
    {
      "midi": 63,
      "hit": false,
      "t": 165697.57499999998,
      "d": 1715.1152500000026,
      "v": 69
    },
    {
      "midi": 72,
      "hit": false,
      "t": 165715.0168500003,
      "d": 866.2785500000173,
      "v": 69
    },
    {
      "midi": 72,
      "hit": false,
      "t": 166046.41199999998,
      "d": 1372.0922000000137,
      "v": 85
    },
    {
      "midi": 67,
      "hit": false,
      "t": 166383.6211000003,
      "d": 988.3715000000084,
      "v": 78
    },
    {
      "midi": 67,
      "hit": false,
      "t": 166395.24899999998,
      "d": 982.5575499999977,
      "v": 78
    },
    {
      "midi": 63,
      "hit": false,
      "t": 166720.83020000032,
      "d": 610.4647500000137,
      "v": 62
    },
    {
      "midi": 60,
      "hit": false,
      "t": 167092.92300000033,
      "d": 383.7207000000053,
      "v": 60
    },
    {
      "midi": 77,
      "hit": false,
      "t": 167441.76,
      "d": 372.0928000000131,
      "v": 75
    },
    {
      "midi": 73,
      "hit": false,
      "t": 167441.76,
      "d": 877.9064500000095,
      "v": 62
    },
    {
      "midi": 68,
      "hit": false,
      "t": 167441.76,
      "d": 1215.1155499999877,
      "v": 81
    },
    {
      "midi": 49,
      "hit": false,
      "t": 167441.76000000033,
      "d": 1220.9295000000275,
      "v": 64
    },
    {
      "midi": 63,
      "hit": false,
      "t": 167447.57395000034,
      "d": 360.46489999999176,
      "v": 81
    },
    {
      "midi": 75,
      "hit": false,
      "t": 167790.597,
      "d": 744.1855999999971,
      "v": 86
    },
    {
      "midi": 61,
      "hit": false,
      "t": 167790.59700000033,
      "d": 389.534650000016,
      "v": 76
    },
    {
      "midi": 56,
      "hit": false,
      "t": 168174.31770000033,
      "d": 1220.9295000000275,
      "v": 75
    },
    {
      "midi": 73,
      "hit": false,
      "t": 168488.271,
      "d": 982.5575499999977,
      "v": 86
    },
    {
      "midi": 63,
      "hit": false,
      "t": 168488.27100000036,
      "d": 1709.301299999992,
      "v": 67
    },
    {
      "midi": 60,
      "hit": false,
      "t": 168523.15470000036,
      "d": 825.5809000000008,
      "v": 61
    },
    {
      "midi": 68,
      "hit": false,
      "t": 168837.108,
      "d": 1220.9294999999984,
      "v": 92
    },
    {
      "midi": 73,
      "hit": false,
      "t": 169534.782,
      "d": 563.9531499999866,
      "v": 83
    },
    {
      "midi": 56,
      "hit": false,
      "t": 169540.59595000037,
      "d": 668.604250000004,
      "v": 67
    },
    {
      "midi": 61,
      "hit": false,
      "t": 169552.22385000036,
      "d": 651.1624000000011,
      "v": 76
    },
    {
      "midi": 75,
      "hit": false,
      "t": 170232.456,
      "d": 715.115850000002,
      "v": 94
    },
    {
      "midi": 67,
      "hit": false,
      "t": 170249.89785000036,
      "d": 872.0924999999988,
      "v": 79
    },
    {
      "midi": 63,
      "hit": false,
      "t": 170255.71180000037,
      "d": 813.9529999999795,
      "v": 71
    },
    {
      "midi": 67,
      "hit": false,
      "t": 170581.293,
      "d": 965.1156999999948,
      "v": 77
    },
    {
      "midi": 72,
      "hit": false,
      "t": 170930.13,
      "d": 517.4415499999886,
      "v": 80
    },
    {
      "midi": 56,
      "hit": false,
      "t": 170930.13000000035,
      "d": 1232.5574000000197,
      "v": 66
    },
    {
      "midi": 63,
      "hit": false,
      "t": 171278.967,
      "d": 1715.1152500000026,
      "v": 69
    },
    {
      "midi": 72,
      "hit": false,
      "t": 171296.40885000036,
      "d": 866.2785500000173,
      "v": 69
    },
    {
      "midi": 72,
      "hit": false,
      "t": 171627.804,
      "d": 1372.0922000000137,
      "v": 85
    },
    {
      "midi": 67,
      "hit": false,
      "t": 171965.01310000036,
      "d": 988.3715000000084,
      "v": 78
    },
    {
      "midi": 67,
      "hit": false,
      "t": 171976.641,
      "d": 982.5575499999977,
      "v": 78
    },
    {
      "midi": 63,
      "hit": false,
      "t": 172302.22220000037,
      "d": 610.4647500000137,
      "v": 62
    },
    {
      "midi": 60,
      "hit": false,
      "t": 172674.31500000038,
      "d": 383.7207000000053,
      "v": 60
    },
    {
      "midi": 75,
      "hit": false,
      "t": 173023.15200000038,
      "d": 877.9064500000386,
      "v": 62
    },
    {
      "midi": 70,
      "hit": false,
      "t": 173034.77990000037,
      "d": 906.9762000000337,
      "v": 70
    },
    {
      "midi": 66,
      "hit": false,
      "t": 173034.77990000037,
      "d": 924.4180500000366,
      "v": 76
    },
    {
      "midi": 58,
      "hit": false,
      "t": 173348.7332000004,
      "d": 924.4180500000075,
      "v": 63
    },
    {
      "midi": 82,
      "hit": false,
      "t": 173406.8727,
      "d": 941.8599000000104,
      "v": 89
    },
    {
      "midi": 78,
      "hit": false,
      "t": 173720.826,
      "d": 1691.8594500000181,
      "v": 86
    },
    {
      "midi": 54,
      "hit": false,
      "t": 173720.8260000004,
      "d": 924.4180500000075,
      "v": 69
    },
    {
      "midi": 63,
      "hit": false,
      "t": 174075.47695,
      "d": 965.1156999999948,
      "v": 69
    },
    {
      "midi": 73,
      "hit": false,
      "t": 174081.2909000004,
      "d": 686.0461000000068,
      "v": 66
    },
    {
      "midi": 66,
      "hit": false,
      "t": 174081.2909000004,
      "d": 999.9994000000006,
      "v": 63
    },
    {
      "midi": 66,
      "hit": false,
      "t": 174092.9188,
      "d": 918.6040999999968,
      "v": 77
    },
    {
      "midi": 70,
      "hit": false,
      "t": 174092.9188000004,
      "d": 1668.6036500000046,
      "v": 68
    },
    {
      "midi": 75,
      "hit": false,
      "t": 174098.73275000002,
      "d": 1453.4874999999884,
      "v": 77
    },
    {
      "midi": 58,
      "hit": false,
      "t": 174790.59280000042,
      "d": 924.4180499999784,
      "v": 69
    },
    {
      "midi": 75,
      "hit": false,
      "t": 174802.2207000004,
      "d": 732.5576999999757,
      "v": 60
    },
    {
      "midi": 73,
      "hit": false,
      "t": 175116.1740000004,
      "d": 575.5810499999789,
      "v": 75
    },
    {
      "midi": 63,
      "hit": false,
      "t": 175121.98795,
      "d": 598.8368499999924,
      "v": 65
    },
    {
      "midi": 66,
      "hit": false,
      "t": 175127.8019000004,
      "d": 604.6508000000031,
      "v": 62
    },
    {
      "midi": 70,
      "hit": false,
      "t": 175813.848,
      "d": 773.2553499999922,
      "v": 80
    },
    {
      "midi": 65,
      "hit": false,
      "t": 175831.2898500004,
      "d": 872.0924999999988,
      "v": 79
    },
    {
      "midi": 61,
      "hit": false,
      "t": 175837.10380000042,
      "d": 813.9529999999795,
      "v": 71
    },
    {
      "midi": 77,
      "hit": false,
      "t": 176162.685,
      "d": 412.7904500000004,
      "v": 88
    },
    {
      "midi": 73,
      "hit": false,
      "t": 176511.522,
      "d": 424.41834999999264,
      "v": 84
    },
    {
      "midi": 54,
      "hit": false,
      "t": 176511.5220000004,
      "d": 1232.5574000000197,
      "v": 66
    },
    {
      "midi": 70,
      "hit": false,
      "t": 176860.359,
      "d": 767.4414000000106,
      "v": 88
    },
    {
      "midi": 70,
      "hit": false,
      "t": 176877.8008500004,
      "d": 866.2785500000173,
      "v": 69
    },
    {
      "midi": 58,
      "hit": false,
      "t": 177209.1960000004,
      "d": 674.4182000000146,
      "v": 66
    },
    {
      "midi": 65,
      "hit": false,
      "t": 177546.4051000004,
      "d": 988.3715000000084,
      "v": 78
    },
    {
      "midi": 65,
      "hit": false,
      "t": 177558.033,
      "d": 970.9296500000055,
      "v": 78
    },
    {
      "midi": 61,
      "hit": false,
      "t": 177883.61420000042,
      "d": 610.4647500000137,
      "v": 62
    },
    {
      "midi": 61,
      "hit": false,
      "t": 177906.87,
      "d": 633.7205499999982,
      "v": 77
    },
    {
      "midi": 58,
      "hit": false,
      "t": 178604.54400000043,
      "d": 34.883700000005774,
      "v": 73
    },
    {
      "midi": 73,
      "hit": false,
      "t": 178610.35795,
      "d": 1075.5807499999646,
      "v": 80
    },
    {
      "midi": 61,
      "hit": false,
      "t": 178627.79980000044,
      "d": 744.1855999999971,
      "v": 70
    },
    {
      "midi": 68,
      "hit": false,
      "t": 178645.24165000045,
      "d": 1563.9525500000163,
      "v": 71
    },
    {
      "midi": 77,
      "hit": false,
      "t": 178959.19495,
      "d": 697.67399999997,
      "v": 74
    },
    {
      "midi": 70,
      "hit": false,
      "t": 179302.218,
      "d": 1040.6970499999588,
      "v": 81
    },
    {
      "midi": 65,
      "hit": false,
      "t": 179319.65985000043,
      "d": 883.7204000000202,
      "v": 61
    },
    {
      "midi": 80,
      "hit": false,
      "t": 179627.79919999998,
      "d": 447.6741499999771,
      "v": 81
    },
    {
      "midi": 61,
      "hit": false,
      "t": 179680.12475000045,
      "d": 1703.4873500000103,
      "v": 68
    },
    {
      "midi": 77,
      "hit": false,
      "t": 179970.82224999997,
      "d": 1023.255199999985,
      "v": 83
    },
    {
      "midi": 65,
      "hit": false,
      "t": 180348.72900000046,
      "d": 412.7904500000004,
      "v": 68
    },
    {
      "midi": 58,
      "hit": false,
      "t": 180348.72900000046,
      "d": 575.581050000008,
      "v": 75
    },
    {
      "midi": 73,
      "hit": false,
      "t": 180366.17084999997,
      "d": 686.0460999999777,
      "v": 81
    },
    {
      "midi": 68,
      "hit": false,
      "t": 180697.56600000046,
      "d": 331.39514999999665,
      "v": 86
    },
    {
      "midi": 70,
      "hit": false,
      "t": 180715.00784999997,
      "d": 593.0228999999817,
      "v": 80
    },
    {
      "midi": 53,
      "hit": false,
      "t": 181046.40300000046,
      "d": 348.83699999999953,
      "v": 52
    },
    {
      "midi": 65,
      "hit": false,
      "t": 181046.40300000046,
      "d": 575.5810499999789,
      "v": 56
    },
    {
      "midi": 75,
      "hit": false,
      "t": 181052.21694999994,
      "d": 1023.2552000000142,
      "v": 89
    },
    {
      "midi": 70,
      "hit": false,
      "t": 181069.65880000047,
      "d": 1930.2313999999897,
      "v": 80
    },
    {
      "midi": 58,
      "hit": false,
      "t": 181087.10065000047,
      "d": 953.4877999999735,
      "v": 66
    },
    {
      "midi": 70,
      "hit": false,
      "t": 181395.23999999996,
      "d": 1069.7668000000122,
      "v": 80
    },
    {
      "midi": 63,
      "hit": false,
      "t": 181406.86790000045,
      "d": 569.7670999999973,
      "v": 67
    },
    {
      "midi": 82,
      "hit": false,
      "t": 181744.07699999996,
      "d": 2023.2546000000148,
      "v": 81
    },
    {
      "midi": 79,
      "hit": false,
      "t": 182092.91399999996,
      "d": 808.139049999998,
      "v": 76
    },
    {
      "midi": 58,
      "hit": false,
      "t": 182110.35585000046,
      "d": 709.3018999999913,
      "v": 68
    },
    {
      "midi": 63,
      "hit": false,
      "t": 182110.35585000046,
      "d": 1215.1155499999877,
      "v": 62
    },
    {
      "midi": 65,
      "hit": false,
      "t": 182110.35585000046,
      "d": 1465.1153999999806,
      "v": 60
    },
    {
      "midi": 75,
      "hit": false,
      "t": 182441.75099999996,
      "d": 255.81380000000354,
      "v": 89
    },
    {
      "midi": 51,
      "hit": false,
      "t": 182441.75100000045,
      "d": 1441.8595999999961,
      "v": 62
    },
    {
      "midi": 75,
      "hit": false,
      "t": 182790.58799999996,
      "d": 372.0928000000131,
      "v": 89
    },
    {
      "midi": 73,
      "hit": false,
      "t": 182790.58799999996,
      "d": 662.7903000000224,
      "v": 82
    },
    {
      "midi": 70,
      "hit": false,
      "t": 183139.42499999996,
      "d": 773.2553500000213,
      "v": 66
    },
    {
      "midi": 77,
      "hit": false,
      "t": 183139.42499999996,
      "d": 1046.5110000000277,
      "v": 99
    },
    {
      "midi": 58,
      "hit": false,
      "t": 183139.42500000045,
      "d": 563.9531499999866,
      "v": 65
    },
    {
      "midi": 73,
      "hit": false,
      "t": 183488.262,
      "d": 662.7902999999933,
      "v": 76
    },
    {
      "midi": 63,
      "hit": false,
      "t": 183511.51780000044,
      "d": 627.9066000000166,
      "v": 62
    },
    {
      "midi": 61,
      "hit": false,
      "t": 183517.33175000045,
      "d": 505.8136499999964,
      "v": 77
    },
    {
      "midi": 58,
      "hit": false,
      "t": 183837.09900000045,
      "d": 302.32540000000154,
      "v": 63
    },
    {
      "midi": 77,
      "hit": false,
      "t": 184185.936,
      "d": 372.0928000000131,
      "v": 75
    },
    {
      "midi": 73,
      "hit": false,
      "t": 184185.936,
      "d": 877.9064500000095,
      "v": 62
    },
    {
      "midi": 68,
      "hit": false,
      "t": 184185.936,
      "d": 1215.1155499999877,
      "v": 81
    },
    {
      "midi": 49,
      "hit": false,
      "t": 184185.93600000045,
      "d": 1220.9295000000275,
      "v": 64
    },
    {
      "midi": 63,
      "hit": false,
      "t": 184191.74995000046,
      "d": 360.46489999999176,
      "v": 81
    },
    {
      "midi": 75,
      "hit": false,
      "t": 184534.773,
      "d": 744.1855999999971,
      "v": 86
    },
    {
      "midi": 61,
      "hit": false,
      "t": 184534.77300000045,
      "d": 389.534650000016,
      "v": 76
    },
    {
      "midi": 56,
      "hit": false,
      "t": 184918.49370000046,
      "d": 1220.9295000000275,
      "v": 75
    },
    {
      "midi": 73,
      "hit": false,
      "t": 185232.447,
      "d": 982.5575499999977,
      "v": 86
    },
    {
      "midi": 63,
      "hit": false,
      "t": 185232.44700000048,
      "d": 1709.301299999992,
      "v": 67
    },
    {
      "midi": 60,
      "hit": false,
      "t": 185267.3307000005,
      "d": 825.5809000000008,
      "v": 61
    },
    {
      "midi": 68,
      "hit": false,
      "t": 185581.28399999999,
      "d": 1220.9294999999984,
      "v": 92
    },
    {
      "midi": 73,
      "hit": false,
      "t": 186278.95799999998,
      "d": 563.9531499999866,
      "v": 83
    },
    {
      "midi": 56,
      "hit": false,
      "t": 186284.7719500005,
      "d": 668.604250000004,
      "v": 67
    },
    {
      "midi": 61,
      "hit": false,
      "t": 186296.39985000048,
      "d": 651.1624000000011,
      "v": 76
    },
    {
      "midi": 75,
      "hit": false,
      "t": 186976.63199999998,
      "d": 715.115850000002,
      "v": 94
    },
    {
      "midi": 67,
      "hit": false,
      "t": 186994.07385000048,
      "d": 872.0924999999988,
      "v": 79
    },
    {
      "midi": 63,
      "hit": false,
      "t": 186999.8878000005,
      "d": 813.9529999999795,
      "v": 71
    },
    {
      "midi": 67,
      "hit": false,
      "t": 187325.46899999998,
      "d": 965.1156999999948,
      "v": 77
    },
    {
      "midi": 72,
      "hit": false,
      "t": 187674.30599999998,
      "d": 517.4415499999886,
      "v": 80
    },
    {
      "midi": 56,
      "hit": false,
      "t": 187674.30600000048,
      "d": 1232.5574000000197,
      "v": 66
    },
    {
      "midi": 63,
      "hit": false,
      "t": 188023.14299999998,
      "d": 1715.1152500000026,
      "v": 69
    },
    {
      "midi": 72,
      "hit": false,
      "t": 188040.58485000048,
      "d": 866.2785500000173,
      "v": 69
    },
    {
      "midi": 72,
      "hit": false,
      "t": 188371.97999999998,
      "d": 1372.0922000000137,
      "v": 85
    },
    {
      "midi": 67,
      "hit": false,
      "t": 188709.18910000048,
      "d": 988.3715000000084,
      "v": 78
    },
    {
      "midi": 67,
      "hit": false,
      "t": 188720.81699999998,
      "d": 982.5575499999977,
      "v": 78
    },
    {
      "midi": 63,
      "hit": false,
      "t": 189046.3982000005,
      "d": 610.4647500000137,
      "v": 62
    },
    {
      "midi": 60,
      "hit": false,
      "t": 189418.4910000005,
      "d": 383.7207000000053,
      "v": 60
    },
    {
      "midi": 77,
      "hit": false,
      "t": 189767.328,
      "d": 372.0928000000131,
      "v": 75
    },
    {
      "midi": 73,
      "hit": false,
      "t": 189767.328,
      "d": 877.9064500000095,
      "v": 62
    },
    {
      "midi": 68,
      "hit": false,
      "t": 189767.328,
      "d": 1215.1155499999877,
      "v": 81
    },
    {
      "midi": 49,
      "hit": false,
      "t": 189767.3280000005,
      "d": 1220.9295000000275,
      "v": 64
    },
    {
      "midi": 63,
      "hit": false,
      "t": 189773.1419500005,
      "d": 360.46489999999176,
      "v": 81
    },
    {
      "midi": 75,
      "hit": false,
      "t": 190116.165,
      "d": 744.1855999999971,
      "v": 86
    },
    {
      "midi": 61,
      "hit": false,
      "t": 190116.1650000005,
      "d": 389.534650000016,
      "v": 76
    },
    {
      "midi": 56,
      "hit": false,
      "t": 190499.8857000005,
      "d": 1220.9295000000275,
      "v": 75
    },
    {
      "midi": 73,
      "hit": false,
      "t": 190813.839,
      "d": 982.5575499999977,
      "v": 86
    },
    {
      "midi": 63,
      "hit": false,
      "t": 190813.83900000053,
      "d": 1709.301299999992,
      "v": 67
    },
    {
      "midi": 60,
      "hit": false,
      "t": 190848.72270000054,
      "d": 825.5809000000008,
      "v": 61
    },
    {
      "midi": 68,
      "hit": false,
      "t": 191162.676,
      "d": 1220.9294999999984,
      "v": 92
    },
    {
      "midi": 73,
      "hit": false,
      "t": 191860.35,
      "d": 563.9531499999866,
      "v": 83
    },
    {
      "midi": 56,
      "hit": false,
      "t": 191866.16395000054,
      "d": 668.604250000004,
      "v": 67
    },
    {
      "midi": 61,
      "hit": false,
      "t": 191877.79185000053,
      "d": 651.1624000000011,
      "v": 76
    },
    {
      "midi": 75,
      "hit": false,
      "t": 192558.024,
      "d": 715.115850000002,
      "v": 94
    },
    {
      "midi": 67,
      "hit": false,
      "t": 192575.46585000053,
      "d": 872.0924999999988,
      "v": 79
    },
    {
      "midi": 63,
      "hit": false,
      "t": 192581.27980000054,
      "d": 813.9529999999795,
      "v": 71
    },
    {
      "midi": 67,
      "hit": false,
      "t": 192906.861,
      "d": 965.1156999999948,
      "v": 77
    },
    {
      "midi": 72,
      "hit": false,
      "t": 193255.698,
      "d": 517.4415499999886,
      "v": 80
    },
    {
      "midi": 56,
      "hit": false,
      "t": 193255.69800000053,
      "d": 1232.5574000000197,
      "v": 66
    },
    {
      "midi": 63,
      "hit": false,
      "t": 193604.535,
      "d": 1715.1152500000026,
      "v": 69
    },
    {
      "midi": 72,
      "hit": false,
      "t": 193621.97685000053,
      "d": 866.2785500000173,
      "v": 69
    },
    {
      "midi": 72,
      "hit": false,
      "t": 193953.372,
      "d": 1372.0922000000137,
      "v": 85
    },
    {
      "midi": 67,
      "hit": false,
      "t": 194290.58110000053,
      "d": 988.3715000000084,
      "v": 78
    },
    {
      "midi": 67,
      "hit": false,
      "t": 194302.209,
      "d": 982.5575499999977,
      "v": 78
    },
    {
      "midi": 63,
      "hit": false,
      "t": 194627.79020000054,
      "d": 610.4647500000137,
      "v": 62
    },
    {
      "midi": 60,
      "hit": false,
      "t": 194999.88300000055,
      "d": 383.7207000000053,
      "v": 60
    },
    {
      "midi": 75,
      "hit": false,
      "t": 195348.72000000055,
      "d": 877.9064500000386,
      "v": 62
    },
    {
      "midi": 70,
      "hit": false,
      "t": 195360.34790000055,
      "d": 906.9762000000337,
      "v": 70
    },
    {
      "midi": 66,
      "hit": false,
      "t": 195360.34790000055,
      "d": 924.4180500000366,
      "v": 76
    },
    {
      "midi": 58,
      "hit": false,
      "t": 195674.30120000057,
      "d": 924.4180500000075,
      "v": 63
    },
    {
      "midi": 82,
      "hit": false,
      "t": 195732.4407,
      "d": 941.8599000000104,
      "v": 89
    },
    {
      "midi": 78,
      "hit": false,
      "t": 196046.394,
      "d": 1691.8594500000181,
      "v": 86
    },
    {
      "midi": 54,
      "hit": false,
      "t": 196046.39400000058,
      "d": 924.4180500000075,
      "v": 69
    },
    {
      "midi": 63,
      "hit": false,
      "t": 196401.04495,
      "d": 965.1156999999948,
      "v": 69
    },
    {
      "midi": 73,
      "hit": false,
      "t": 196406.85890000057,
      "d": 686.0461000000068,
      "v": 66
    },
    {
      "midi": 66,
      "hit": false,
      "t": 196406.85890000057,
      "d": 999.9994000000006,
      "v": 63
    },
    {
      "midi": 66,
      "hit": false,
      "t": 196418.4868,
      "d": 918.6040999999968,
      "v": 77
    },
    {
      "midi": 70,
      "hit": false,
      "t": 196418.48680000057,
      "d": 1668.6036500000046,
      "v": 68
    },
    {
      "midi": 75,
      "hit": false,
      "t": 196424.30075000002,
      "d": 1453.4874999999884,
      "v": 77
    },
    {
      "midi": 58,
      "hit": false,
      "t": 197116.1608000006,
      "d": 924.4180499999784,
      "v": 69
    },
    {
      "midi": 75,
      "hit": false,
      "t": 197127.7887000006,
      "d": 732.5576999999757,
      "v": 60
    },
    {
      "midi": 73,
      "hit": false,
      "t": 197441.74200000058,
      "d": 575.5810499999789,
      "v": 75
    },
    {
      "midi": 63,
      "hit": false,
      "t": 197447.55595,
      "d": 598.8368499999924,
      "v": 65
    },
    {
      "midi": 66,
      "hit": false,
      "t": 197453.36990000057,
      "d": 604.6508000000031,
      "v": 62
    },
    {
      "midi": 70,
      "hit": false,
      "t": 198139.416,
      "d": 773.2553499999922,
      "v": 80
    },
    {
      "midi": 65,
      "hit": false,
      "t": 198156.85785000058,
      "d": 872.0924999999988,
      "v": 79
    },
    {
      "midi": 61,
      "hit": false,
      "t": 198162.6718000006,
      "d": 813.9529999999795,
      "v": 71
    },
    {
      "midi": 77,
      "hit": false,
      "t": 198488.253,
      "d": 412.7904500000004,
      "v": 88
    },
    {
      "midi": 73,
      "hit": false,
      "t": 198837.09,
      "d": 424.41834999999264,
      "v": 84
    },
    {
      "midi": 54,
      "hit": false,
      "t": 198837.09000000058,
      "d": 1232.5574000000197,
      "v": 66
    },
    {
      "midi": 70,
      "hit": false,
      "t": 199185.927,
      "d": 767.4414000000106,
      "v": 88
    },
    {
      "midi": 70,
      "hit": false,
      "t": 199203.36885000058,
      "d": 866.2785500000173,
      "v": 69
    },
    {
      "midi": 58,
      "hit": false,
      "t": 199534.76400000058,
      "d": 674.4182000000146,
      "v": 66
    },
    {
      "midi": 65,
      "hit": false,
      "t": 199871.97310000058,
      "d": 988.3715000000084,
      "v": 78
    },
    {
      "midi": 65,
      "hit": false,
      "t": 199883.601,
      "d": 970.9296500000055,
      "v": 78
    },
    {
      "midi": 61,
      "hit": false,
      "t": 200209.1822000006,
      "d": 610.4647500000137,
      "v": 62
    },
    {
      "midi": 61,
      "hit": false,
      "t": 200232.438,
      "d": 633.7205499999982,
      "v": 77
    },
    {
      "midi": 58,
      "hit": false,
      "t": 200930.1120000006,
      "d": 34.883700000005774,
      "v": 73
    },
    {
      "midi": 73,
      "hit": false,
      "t": 200935.92595,
      "d": 1075.5807499999646,
      "v": 80
    },
    {
      "midi": 61,
      "hit": false,
      "t": 200953.36780000062,
      "d": 744.1855999999971,
      "v": 70
    },
    {
      "midi": 68,
      "hit": false,
      "t": 200970.80965000062,
      "d": 1563.9525500000163,
      "v": 71
    },
    {
      "midi": 77,
      "hit": false,
      "t": 201284.76295,
      "d": 697.67399999997,
      "v": 74
    },
    {
      "midi": 70,
      "hit": false,
      "t": 201627.786,
      "d": 1040.6970499999588,
      "v": 81
    },
    {
      "midi": 65,
      "hit": false,
      "t": 201645.2278500006,
      "d": 883.7204000000202,
      "v": 61
    },
    {
      "midi": 80,
      "hit": false,
      "t": 201953.36719999998,
      "d": 447.6741499999771,
      "v": 81
    },
    {
      "midi": 61,
      "hit": false,
      "t": 202005.69275000063,
      "d": 1703.4873500000103,
      "v": 68
    },
    {
      "midi": 77,
      "hit": false,
      "t": 202296.39024999997,
      "d": 1023.255199999985,
      "v": 83
    },
    {
      "midi": 65,
      "hit": false,
      "t": 202674.29700000063,
      "d": 412.7904500000004,
      "v": 68
    },
    {
      "midi": 58,
      "hit": false,
      "t": 202674.29700000063,
      "d": 575.581050000008,
      "v": 75
    },
    {
      "midi": 73,
      "hit": false,
      "t": 202691.73884999997,
      "d": 686.0460999999777,
      "v": 81
    },
    {
      "midi": 68,
      "hit": false,
      "t": 203023.13400000063,
      "d": 331.39514999999665,
      "v": 86
    },
    {
      "midi": 70,
      "hit": false,
      "t": 203040.57584999996,
      "d": 593.0228999999817,
      "v": 80
    },
    {
      "midi": 53,
      "hit": false,
      "t": 203371.97100000063,
      "d": 348.83699999999953,
      "v": 52
    },
    {
      "midi": 65,
      "hit": false,
      "t": 203371.97100000063,
      "d": 575.5810499999789,
      "v": 56
    },
    {
      "midi": 75,
      "hit": false,
      "t": 203377.78494999994,
      "d": 1023.2552000000142,
      "v": 89
    },
    {
      "midi": 70,
      "hit": false,
      "t": 203395.22680000064,
      "d": 1930.2313999999897,
      "v": 80
    },
    {
      "midi": 58,
      "hit": false,
      "t": 203412.66865000065,
      "d": 953.4877999999735,
      "v": 66
    },
    {
      "midi": 70,
      "hit": false,
      "t": 203720.80799999996,
      "d": 1069.7668000000122,
      "v": 80
    },
    {
      "midi": 63,
      "hit": false,
      "t": 203732.43590000062,
      "d": 569.7670999999973,
      "v": 67
    },
    {
      "midi": 82,
      "hit": false,
      "t": 204069.64499999996,
      "d": 2023.2546000000148,
      "v": 81
    },
    {
      "midi": 79,
      "hit": false,
      "t": 204418.48199999996,
      "d": 808.139049999998,
      "v": 76
    },
    {
      "midi": 58,
      "hit": false,
      "t": 204435.92385000063,
      "d": 709.3018999999913,
      "v": 68
    },
    {
      "midi": 63,
      "hit": false,
      "t": 204435.92385000063,
      "d": 1215.1155499999877,
      "v": 62
    },
    {
      "midi": 65,
      "hit": false,
      "t": 204435.92385000063,
      "d": 1465.1153999999806,
      "v": 60
    },
    {
      "midi": 75,
      "hit": false,
      "t": 204767.31899999996,
      "d": 255.81380000000354,
      "v": 89
    },
    {
      "midi": 51,
      "hit": false,
      "t": 204767.31900000063,
      "d": 1441.8595999999961,
      "v": 62
    },
    {
      "midi": 75,
      "hit": false,
      "t": 205116.15599999996,
      "d": 372.0928000000131,
      "v": 89
    },
    {
      "midi": 73,
      "hit": false,
      "t": 205116.15599999996,
      "d": 662.7903000000224,
      "v": 82
    },
    {
      "midi": 70,
      "hit": false,
      "t": 205464.99299999996,
      "d": 773.2553500000213,
      "v": 66
    },
    {
      "midi": 77,
      "hit": false,
      "t": 205464.99299999996,
      "d": 1418.6038000000408,
      "v": 99
    },
    {
      "midi": 58,
      "hit": false,
      "t": 205464.99300000063,
      "d": 563.9531499999866,
      "v": 65
    },
    {
      "midi": 73,
      "hit": false,
      "t": 205813.83,
      "d": 325.581199999986,
      "v": 76
    },
    {
      "midi": 63,
      "hit": false,
      "t": 205837.0858000006,
      "d": 627.9066000000166,
      "v": 62
    },
    {
      "midi": 61,
      "hit": false,
      "t": 205842.89975000062,
      "d": 505.8136499999964,
      "v": 77
    },
    {
      "midi": 58,
      "hit": false,
      "t": 206162.66700000063,
      "d": 302.32540000000154,
      "v": 63
    },
    {
      "midi": 73,
      "hit": false,
      "t": 206185.92279999997,
      "d": 877.9064500000386,
      "v": 78
    },
    {
      "midi": 68,
      "hit": false,
      "t": 206511.504,
      "d": 1215.1155500000168,
      "v": 81
    },
    {
      "midi": 49,
      "hit": false,
      "t": 206511.50400000063,
      "d": 1220.9295000000275,
      "v": 64
    },
    {
      "midi": 63,
      "hit": false,
      "t": 206517.31795000064,
      "d": 360.46489999999176,
      "v": 81
    },
    {
      "midi": 75,
      "hit": false,
      "t": 206860.341,
      "d": 744.1856000000262,
      "v": 86
    },
    {
      "midi": 61,
      "hit": false,
      "t": 206860.34100000063,
      "d": 389.534650000016,
      "v": 76
    },
    {
      "midi": 56,
      "hit": false,
      "t": 207244.06170000063,
      "d": 1220.9295000000275,
      "v": 75
    },
    {
      "midi": 73,
      "hit": false,
      "t": 207558.015,
      "d": 982.5575499999977,
      "v": 86
    },
    {
      "midi": 63,
      "hit": false,
      "t": 207558.01500000065,
      "d": 1709.301299999992,
      "v": 67
    },
    {
      "midi": 60,
      "hit": false,
      "t": 207592.89870000066,
      "d": 825.5809000000008,
      "v": 61
    },
    {
      "midi": 68,
      "hit": false,
      "t": 207906.852,
      "d": 1220.9294999999984,
      "v": 92
    },
    {
      "midi": 73,
      "hit": false,
      "t": 208604.526,
      "d": 563.9531499999866,
      "v": 83
    },
    {
      "midi": 56,
      "hit": false,
      "t": 208610.33995000066,
      "d": 668.604250000004,
      "v": 67
    },
    {
      "midi": 61,
      "hit": false,
      "t": 208621.96785000066,
      "d": 651.1624000000011,
      "v": 76
    },
    {
      "midi": 75,
      "hit": false,
      "t": 209302.2,
      "d": 715.115850000002,
      "v": 94
    },
    {
      "midi": 67,
      "hit": false,
      "t": 209319.64185000065,
      "d": 872.0924999999988,
      "v": 79
    },
    {
      "midi": 63,
      "hit": false,
      "t": 209325.45580000067,
      "d": 813.9529999999795,
      "v": 71
    },
    {
      "midi": 67,
      "hit": false,
      "t": 209651.037,
      "d": 965.1156999999948,
      "v": 77
    },
    {
      "midi": 72,
      "hit": false,
      "t": 209999.874,
      "d": 517.4415499999886,
      "v": 80
    },
    {
      "midi": 56,
      "hit": false,
      "t": 209999.87400000065,
      "d": 1232.5574000000197,
      "v": 66
    },
    {
      "midi": 63,
      "hit": false,
      "t": 210348.711,
      "d": 1715.1152500000026,
      "v": 69
    },
    {
      "midi": 72,
      "hit": false,
      "t": 210366.15285000065,
      "d": 866.2785500000173,
      "v": 69
    },
    {
      "midi": 72,
      "hit": false,
      "t": 210697.548,
      "d": 1372.0922000000137,
      "v": 85
    },
    {
      "midi": 67,
      "hit": false,
      "t": 211034.75710000066,
      "d": 988.3715000000084,
      "v": 78
    },
    {
      "midi": 67,
      "hit": false,
      "t": 211046.385,
      "d": 982.5575499999977,
      "v": 78
    },
    {
      "midi": 63,
      "hit": false,
      "t": 211371.96620000066,
      "d": 610.4647500000137,
      "v": 62
    },
    {
      "midi": 60,
      "hit": false,
      "t": 211744.05900000068,
      "d": 383.7207000000053,
      "v": 60
    },
    {
      "midi": 77,
      "hit": false,
      "t": 212092.89600000004,
      "d": 372.0928000000131,
      "v": 75
    },
    {
      "midi": 73,
      "hit": false,
      "t": 212092.89600000004,
      "d": 877.9064500000095,
      "v": 62
    },
    {
      "midi": 68,
      "hit": false,
      "t": 212092.89600000004,
      "d": 1215.1155499999877,
      "v": 81
    },
    {
      "midi": 49,
      "hit": false,
      "t": 212092.89600000068,
      "d": 1220.9295000000275,
      "v": 64
    },
    {
      "midi": 63,
      "hit": false,
      "t": 212098.7099500007,
      "d": 360.46489999999176,
      "v": 81
    },
    {
      "midi": 75,
      "hit": false,
      "t": 212441.73300000004,
      "d": 744.1855999999971,
      "v": 86
    },
    {
      "midi": 61,
      "hit": false,
      "t": 212441.73300000068,
      "d": 389.534650000016,
      "v": 76
    },
    {
      "midi": 56,
      "hit": false,
      "t": 212825.45370000068,
      "d": 1220.9295000000275,
      "v": 75
    },
    {
      "midi": 73,
      "hit": false,
      "t": 213139.40700000004,
      "d": 982.5575499999977,
      "v": 86
    },
    {
      "midi": 63,
      "hit": false,
      "t": 213139.4070000007,
      "d": 1709.301299999992,
      "v": 67
    },
    {
      "midi": 60,
      "hit": false,
      "t": 213174.2907000007,
      "d": 825.5809000000008,
      "v": 61
    },
    {
      "midi": 68,
      "hit": false,
      "t": 213488.24400000004,
      "d": 1220.9294999999984,
      "v": 92
    },
    {
      "midi": 73,
      "hit": false,
      "t": 214185.91800000003,
      "d": 563.9531499999866,
      "v": 83
    },
    {
      "midi": 56,
      "hit": false,
      "t": 214191.7319500007,
      "d": 668.604250000004,
      "v": 67
    },
    {
      "midi": 61,
      "hit": false,
      "t": 214203.3598500007,
      "d": 651.1624000000011,
      "v": 76
    },
    {
      "midi": 75,
      "hit": false,
      "t": 214883.59200000003,
      "d": 715.115850000002,
      "v": 94
    },
    {
      "midi": 67,
      "hit": false,
      "t": 214901.0338500007,
      "d": 872.0924999999988,
      "v": 79
    },
    {
      "midi": 63,
      "hit": false,
      "t": 214906.84780000072,
      "d": 813.9529999999795,
      "v": 71
    },
    {
      "midi": 67,
      "hit": false,
      "t": 215232.42900000003,
      "d": 965.1156999999948,
      "v": 77
    },
    {
      "midi": 72,
      "hit": false,
      "t": 215581.26600000003,
      "d": 517.4415499999886,
      "v": 80
    },
    {
      "midi": 56,
      "hit": false,
      "t": 215581.2660000007,
      "d": 1232.5574000000197,
      "v": 66
    },
    {
      "midi": 63,
      "hit": false,
      "t": 215930.10300000003,
      "d": 1715.1152500000026,
      "v": 69
    },
    {
      "midi": 72,
      "hit": false,
      "t": 215947.5448500007,
      "d": 866.2785500000173,
      "v": 69
    },
    {
      "midi": 72,
      "hit": false,
      "t": 216278.94000000003,
      "d": 1372.0922000000137,
      "v": 85
    },
    {
      "midi": 67,
      "hit": false,
      "t": 216616.1491000007,
      "d": 988.3715000000084,
      "v": 78
    },
    {
      "midi": 67,
      "hit": false,
      "t": 216627.77700000003,
      "d": 982.5575499999977,
      "v": 78
    },
    {
      "midi": 63,
      "hit": false,
      "t": 216953.35820000072,
      "d": 610.4647500000137,
      "v": 62
    },
    {
      "midi": 60,
      "hit": false,
      "t": 217325.45100000073,
      "d": 383.7207000000053,
      "v": 60
    },
    {
      "midi": 75,
      "hit": false,
      "t": 217674.28800000073,
      "d": 877.9064500000386,
      "v": 62
    },
    {
      "midi": 70,
      "hit": false,
      "t": 217685.91590000072,
      "d": 906.9762000000337,
      "v": 70
    },
    {
      "midi": 66,
      "hit": false,
      "t": 217685.91590000072,
      "d": 924.4180500000366,
      "v": 76
    },
    {
      "midi": 58,
      "hit": false,
      "t": 217999.86920000074,
      "d": 924.4180500000075,
      "v": 63
    },
    {
      "midi": 82,
      "hit": false,
      "t": 218058.00870000003,
      "d": 941.8599000000104,
      "v": 89
    },
    {
      "midi": 78,
      "hit": false,
      "t": 218371.96200000003,
      "d": 1691.8594500000181,
      "v": 86
    },
    {
      "midi": 54,
      "hit": false,
      "t": 218371.96200000076,
      "d": 924.4180500000075,
      "v": 69
    },
    {
      "midi": 63,
      "hit": false,
      "t": 218726.61295000004,
      "d": 965.1156999999948,
      "v": 69
    },
    {
      "midi": 73,
      "hit": false,
      "t": 218732.42690000075,
      "d": 686.0461000000068,
      "v": 66
    },
    {
      "midi": 66,
      "hit": false,
      "t": 218732.42690000075,
      "d": 999.9994000000006,
      "v": 63
    },
    {
      "midi": 66,
      "hit": false,
      "t": 218744.05480000004,
      "d": 918.6040999999968,
      "v": 77
    },
    {
      "midi": 70,
      "hit": false,
      "t": 218744.05480000074,
      "d": 1668.6036500000046,
      "v": 68
    },
    {
      "midi": 75,
      "hit": false,
      "t": 218749.86875000005,
      "d": 1453.4874999999884,
      "v": 77
    },
    {
      "midi": 58,
      "hit": false,
      "t": 219441.72880000077,
      "d": 924.4180499999784,
      "v": 69
    },
    {
      "midi": 75,
      "hit": false,
      "t": 219453.35670000076,
      "d": 732.5576999999757,
      "v": 60
    },
    {
      "midi": 73,
      "hit": false,
      "t": 219767.31000000075,
      "d": 575.5810499999789,
      "v": 75
    },
    {
      "midi": 63,
      "hit": false,
      "t": 219773.12395000004,
      "d": 598.8368499999924,
      "v": 65
    },
    {
      "midi": 66,
      "hit": false,
      "t": 219778.93790000075,
      "d": 604.6508000000031,
      "v": 62
    },
    {
      "midi": 70,
      "hit": false,
      "t": 220464.98400000003,
      "d": 773.2553499999922,
      "v": 80
    },
    {
      "midi": 65,
      "hit": false,
      "t": 220482.42585000076,
      "d": 872.0924999999988,
      "v": 79
    },
    {
      "midi": 61,
      "hit": false,
      "t": 220488.23980000077,
      "d": 813.9529999999795,
      "v": 71
    },
    {
      "midi": 77,
      "hit": false,
      "t": 220813.82100000003,
      "d": 412.7904500000004,
      "v": 88
    },
    {
      "midi": 73,
      "hit": false,
      "t": 221162.65800000002,
      "d": 424.41834999999264,
      "v": 84
    },
    {
      "midi": 54,
      "hit": false,
      "t": 221162.65800000075,
      "d": 1232.5574000000197,
      "v": 66
    },
    {
      "midi": 70,
      "hit": false,
      "t": 221511.49500000002,
      "d": 767.4414000000106,
      "v": 88
    },
    {
      "midi": 70,
      "hit": false,
      "t": 221528.93685000075,
      "d": 866.2785500000173,
      "v": 69
    },
    {
      "midi": 58,
      "hit": false,
      "t": 221860.33200000075,
      "d": 674.4182000000146,
      "v": 66
    },
    {
      "midi": 65,
      "hit": false,
      "t": 222197.54110000076,
      "d": 988.3715000000084,
      "v": 78
    },
    {
      "midi": 65,
      "hit": false,
      "t": 222209.16900000002,
      "d": 970.9296500000055,
      "v": 78
    },
    {
      "midi": 61,
      "hit": false,
      "t": 222534.75020000077,
      "d": 610.4647500000137,
      "v": 62
    },
    {
      "midi": 61,
      "hit": false,
      "t": 222558.00600000002,
      "d": 633.7205499999982,
      "v": 77
    },
    {
      "midi": 58,
      "hit": false,
      "t": 223255.68000000078,
      "d": 34.883700000005774,
      "v": 73
    },
    {
      "midi": 73,
      "hit": false,
      "t": 223261.49395000003,
      "d": 1075.5807499999646,
      "v": 80
    },
    {
      "midi": 61,
      "hit": false,
      "t": 223278.9358000008,
      "d": 744.1855999999971,
      "v": 70
    },
    {
      "midi": 68,
      "hit": false,
      "t": 223296.3776500008,
      "d": 1563.9525500000163,
      "v": 71
    },
    {
      "midi": 77,
      "hit": false,
      "t": 223610.33095000003,
      "d": 697.67399999997,
      "v": 74
    },
    {
      "midi": 70,
      "hit": false,
      "t": 223953.35400000002,
      "d": 1040.6970499999588,
      "v": 81
    },
    {
      "midi": 65,
      "hit": false,
      "t": 223970.79585000078,
      "d": 883.7204000000202,
      "v": 61
    },
    {
      "midi": 80,
      "hit": false,
      "t": 224278.9352,
      "d": 447.6741499999771,
      "v": 81
    },
    {
      "midi": 61,
      "hit": false,
      "t": 224331.2607500008,
      "d": 1703.4873500000103,
      "v": 68
    },
    {
      "midi": 77,
      "hit": false,
      "t": 224621.95825,
      "d": 1023.255199999985,
      "v": 83
    },
    {
      "midi": 65,
      "hit": false,
      "t": 224999.8650000008,
      "d": 412.7904500000004,
      "v": 68
    },
    {
      "midi": 58,
      "hit": false,
      "t": 224999.8650000008,
      "d": 575.581050000008,
      "v": 75
    },
    {
      "midi": 73,
      "hit": false,
      "t": 225017.30685,
      "d": 686.0460999999777,
      "v": 81
    },
    {
      "midi": 68,
      "hit": false,
      "t": 225348.7020000008,
      "d": 331.39514999999665,
      "v": 86
    },
    {
      "midi": 70,
      "hit": false,
      "t": 225366.14385,
      "d": 593.0228999999817,
      "v": 80
    },
    {
      "midi": 53,
      "hit": false,
      "t": 225697.5390000008,
      "d": 348.83699999999953,
      "v": 52
    },
    {
      "midi": 65,
      "hit": false,
      "t": 225697.5390000008,
      "d": 575.5810499999789,
      "v": 56
    },
    {
      "midi": 75,
      "hit": false,
      "t": 225703.35294999997,
      "d": 1023.2552000000142,
      "v": 89
    },
    {
      "midi": 70,
      "hit": false,
      "t": 225720.79480000082,
      "d": 1930.2313999999897,
      "v": 80
    },
    {
      "midi": 58,
      "hit": false,
      "t": 225738.23665000082,
      "d": 953.4877999999735,
      "v": 66
    },
    {
      "midi": 70,
      "hit": false,
      "t": 226046.376,
      "d": 1069.7668000000122,
      "v": 80
    },
    {
      "midi": 63,
      "hit": false,
      "t": 226058.0039000008,
      "d": 569.7670999999973,
      "v": 67
    },
    {
      "midi": 82,
      "hit": false,
      "t": 226395.213,
      "d": 2023.2546000000148,
      "v": 81
    },
    {
      "midi": 79,
      "hit": false,
      "t": 226744.05,
      "d": 808.139049999998,
      "v": 76
    },
    {
      "midi": 58,
      "hit": false,
      "t": 226761.4918500008,
      "d": 709.3018999999913,
      "v": 68
    },
    {
      "midi": 63,
      "hit": false,
      "t": 226761.4918500008,
      "d": 1215.1155499999877,
      "v": 62
    },
    {
      "midi": 65,
      "hit": false,
      "t": 226761.4918500008,
      "d": 1465.1153999999806,
      "v": 60
    },
    {
      "midi": 75,
      "hit": false,
      "t": 227092.887,
      "d": 255.81380000000354,
      "v": 89
    },
    {
      "midi": 51,
      "hit": false,
      "t": 227092.8870000008,
      "d": 1441.8595999999961,
      "v": 62
    },
    {
      "midi": 75,
      "hit": false,
      "t": 227441.724,
      "d": 372.0928000000131,
      "v": 89
    },
    {
      "midi": 73,
      "hit": false,
      "t": 227441.724,
      "d": 662.7903000000224,
      "v": 82
    },
    {
      "midi": 70,
      "hit": false,
      "t": 227790.561,
      "d": 773.2553500000213,
      "v": 66
    },
    {
      "midi": 77,
      "hit": false,
      "t": 227790.561,
      "d": 1046.5110000000277,
      "v": 99
    },
    {
      "midi": 58,
      "hit": false,
      "t": 227790.5610000008,
      "d": 563.9531499999866,
      "v": 65
    },
    {
      "midi": 73,
      "hit": false,
      "t": 228139.39800000002,
      "d": 662.7902999999933,
      "v": 76
    },
    {
      "midi": 63,
      "hit": false,
      "t": 228162.6538000008,
      "d": 627.9066000000166,
      "v": 62
    },
    {
      "midi": 61,
      "hit": false,
      "t": 228168.4677500008,
      "d": 505.8136499999964,
      "v": 77
    },
    {
      "midi": 58,
      "hit": false,
      "t": 228488.2350000008,
      "d": 302.32540000000154,
      "v": 63
    },
    {
      "midi": 77,
      "hit": false,
      "t": 228837.07200000001,
      "d": 372.0928000000131,
      "v": 75
    },
    {
      "midi": 73,
      "hit": false,
      "t": 228837.07200000001,
      "d": 877.9064500000095,
      "v": 62
    },
    {
      "midi": 68,
      "hit": false,
      "t": 228837.07200000001,
      "d": 1215.1155499999877,
      "v": 81
    },
    {
      "midi": 49,
      "hit": false,
      "t": 228837.0720000008,
      "d": 1220.9295000000275,
      "v": 64
    },
    {
      "midi": 63,
      "hit": false,
      "t": 228842.8859500008,
      "d": 360.46489999999176,
      "v": 81
    },
    {
      "midi": 75,
      "hit": false,
      "t": 229185.909,
      "d": 744.1855999999971,
      "v": 86
    },
    {
      "midi": 61,
      "hit": false,
      "t": 229185.9090000008,
      "d": 389.534650000016,
      "v": 76
    },
    {
      "midi": 56,
      "hit": false,
      "t": 229569.6297000008,
      "d": 1220.9295000000275,
      "v": 75
    },
    {
      "midi": 73,
      "hit": false,
      "t": 229883.583,
      "d": 982.5575499999977,
      "v": 86
    },
    {
      "midi": 63,
      "hit": false,
      "t": 229883.58300000083,
      "d": 1709.301299999992,
      "v": 67
    },
    {
      "midi": 60,
      "hit": false,
      "t": 229918.46670000083,
      "d": 825.5809000000008,
      "v": 61
    },
    {
      "midi": 68,
      "hit": false,
      "t": 230232.42,
      "d": 1220.9294999999984,
      "v": 92
    },
    {
      "midi": 73,
      "hit": false,
      "t": 230930.094,
      "d": 563.9531499999866,
      "v": 83
    },
    {
      "midi": 56,
      "hit": false,
      "t": 230935.90795000084,
      "d": 668.604250000004,
      "v": 67
    },
    {
      "midi": 61,
      "hit": false,
      "t": 230947.53585000083,
      "d": 651.1624000000011,
      "v": 76
    },
    {
      "midi": 75,
      "hit": false,
      "t": 231627.768,
      "d": 715.115850000002,
      "v": 94
    },
    {
      "midi": 67,
      "hit": false,
      "t": 231645.20985000083,
      "d": 872.0924999999988,
      "v": 79
    },
    {
      "midi": 63,
      "hit": false,
      "t": 231651.02380000084,
      "d": 813.9529999999795,
      "v": 71
    },
    {
      "midi": 67,
      "hit": false,
      "t": 231976.605,
      "d": 965.1156999999948,
      "v": 77
    },
    {
      "midi": 72,
      "hit": false,
      "t": 232325.442,
      "d": 517.4415499999886,
      "v": 80
    },
    {
      "midi": 56,
      "hit": false,
      "t": 232325.44200000082,
      "d": 1232.5574000000197,
      "v": 66
    },
    {
      "midi": 63,
      "hit": false,
      "t": 232674.279,
      "d": 1715.1152500000026,
      "v": 69
    },
    {
      "midi": 72,
      "hit": false,
      "t": 232691.72085000083,
      "d": 866.2785500000173,
      "v": 69
    },
    {
      "midi": 72,
      "hit": false,
      "t": 233023.116,
      "d": 1372.0922000000137,
      "v": 85
    },
    {
      "midi": 67,
      "hit": false,
      "t": 233360.32510000083,
      "d": 988.3715000000084,
      "v": 78
    },
    {
      "midi": 67,
      "hit": false,
      "t": 233371.953,
      "d": 982.5575499999977,
      "v": 78
    },
    {
      "midi": 63,
      "hit": false,
      "t": 233697.53420000084,
      "d": 610.4647500000137,
      "v": 62
    },
    {
      "midi": 60,
      "hit": false,
      "t": 234069.62700000085,
      "d": 383.7207000000053,
      "v": 60
    },
    {
      "midi": 77,
      "hit": false,
      "t": 234418.46400000004,
      "d": 372.0928000000131,
      "v": 75
    },
    {
      "midi": 73,
      "hit": false,
      "t": 234418.46400000004,
      "d": 877.9064500000095,
      "v": 62
    },
    {
      "midi": 68,
      "hit": false,
      "t": 234418.46400000004,
      "d": 1215.1155499999877,
      "v": 81
    },
    {
      "midi": 49,
      "hit": false,
      "t": 234418.46400000085,
      "d": 1220.9295000000275,
      "v": 64
    },
    {
      "midi": 63,
      "hit": false,
      "t": 234424.27795000086,
      "d": 360.46489999999176,
      "v": 81
    },
    {
      "midi": 75,
      "hit": false,
      "t": 234767.30100000004,
      "d": 744.1855999999971,
      "v": 86
    },
    {
      "midi": 61,
      "hit": false,
      "t": 234767.30100000085,
      "d": 389.534650000016,
      "v": 76
    },
    {
      "midi": 56,
      "hit": false,
      "t": 235151.02170000086,
      "d": 1220.9295000000275,
      "v": 75
    },
    {
      "midi": 73,
      "hit": false,
      "t": 235464.97500000003,
      "d": 982.5575499999977,
      "v": 86
    },
    {
      "midi": 63,
      "hit": false,
      "t": 235464.97500000088,
      "d": 1709.301299999992,
      "v": 67
    },
    {
      "midi": 60,
      "hit": false,
      "t": 235499.85870000088,
      "d": 825.5809000000008,
      "v": 61
    },
    {
      "midi": 68,
      "hit": false,
      "t": 235813.81200000003,
      "d": 1220.9294999999984,
      "v": 92
    },
    {
      "midi": 73,
      "hit": false,
      "t": 236511.48600000003,
      "d": 563.9531499999866,
      "v": 83
    },
    {
      "midi": 56,
      "hit": false,
      "t": 236517.2999500009,
      "d": 668.604250000004,
      "v": 67
    },
    {
      "midi": 61,
      "hit": false,
      "t": 236528.92785000088,
      "d": 651.1624000000011,
      "v": 76
    },
    {
      "midi": 75,
      "hit": false,
      "t": 237209.16000000003,
      "d": 715.115850000002,
      "v": 94
    },
    {
      "midi": 67,
      "hit": false,
      "t": 237226.60185000088,
      "d": 872.0924999999988,
      "v": 79
    },
    {
      "midi": 63,
      "hit": false,
      "t": 237232.4158000009,
      "d": 813.9529999999795,
      "v": 71
    },
    {
      "midi": 67,
      "hit": false,
      "t": 237557.99700000003,
      "d": 965.1156999999948,
      "v": 77
    },
    {
      "midi": 72,
      "hit": false,
      "t": 237906.83400000003,
      "d": 517.4415499999886,
      "v": 80
    },
    {
      "midi": 56,
      "hit": false,
      "t": 237906.83400000088,
      "d": 1232.5574000000197,
      "v": 66
    },
    {
      "midi": 63,
      "hit": false,
      "t": 238255.67100000003,
      "d": 1715.1152500000026,
      "v": 69
    },
    {
      "midi": 72,
      "hit": false,
      "t": 238273.11285000088,
      "d": 866.2785500000173,
      "v": 69
    },
    {
      "midi": 72,
      "hit": false,
      "t": 238604.50800000003,
      "d": 1372.0922000000137,
      "v": 85
    },
    {
      "midi": 67,
      "hit": false,
      "t": 238941.71710000088,
      "d": 988.3715000000084,
      "v": 78
    },
    {
      "midi": 67,
      "hit": false,
      "t": 238953.34500000003,
      "d": 982.5575499999977,
      "v": 78
    },
    {
      "midi": 63,
      "hit": false,
      "t": 239278.9262000009,
      "d": 610.4647500000137,
      "v": 62
    },
    {
      "midi": 60,
      "hit": false,
      "t": 239651.0190000009,
      "d": 383.7207000000053,
      "v": 60
    },
    {
      "midi": 75,
      "hit": false,
      "t": 239999.8560000009,
      "d": 877.9064500000386,
      "v": 62
    },
    {
      "midi": 70,
      "hit": false,
      "t": 240011.4839000009,
      "d": 906.9762000000337,
      "v": 70
    },
    {
      "midi": 66,
      "hit": false,
      "t": 240011.4839000009,
      "d": 924.4180500000366,
      "v": 76
    },
    {
      "midi": 58,
      "hit": false,
      "t": 240325.43720000092,
      "d": 924.4180500000075,
      "v": 63
    },
    {
      "midi": 82,
      "hit": false,
      "t": 240383.57670000003,
      "d": 941.8599000000104,
      "v": 89
    },
    {
      "midi": 78,
      "hit": false,
      "t": 240697.53000000003,
      "d": 1691.8594500000181,
      "v": 86
    },
    {
      "midi": 54,
      "hit": false,
      "t": 240697.53000000093,
      "d": 924.4180500000075,
      "v": 69
    },
    {
      "midi": 63,
      "hit": false,
      "t": 241052.18095000004,
      "d": 965.1156999999948,
      "v": 69
    },
    {
      "midi": 73,
      "hit": false,
      "t": 241057.99490000092,
      "d": 686.0461000000068,
      "v": 66
    },
    {
      "midi": 66,
      "hit": false,
      "t": 241057.99490000092,
      "d": 999.9994000000006,
      "v": 63
    },
    {
      "midi": 66,
      "hit": false,
      "t": 241069.62280000004,
      "d": 918.6040999999968,
      "v": 77
    },
    {
      "midi": 70,
      "hit": false,
      "t": 241069.6228000009,
      "d": 1668.6036500000046,
      "v": 68
    },
    {
      "midi": 75,
      "hit": false,
      "t": 241075.43675000005,
      "d": 1453.4874999999884,
      "v": 77
    },
    {
      "midi": 58,
      "hit": false,
      "t": 241767.29680000094,
      "d": 924.4180499999784,
      "v": 69
    },
    {
      "midi": 75,
      "hit": false,
      "t": 241778.92470000093,
      "d": 732.5576999999757,
      "v": 60
    },
    {
      "midi": 73,
      "hit": false,
      "t": 242092.87800000093,
      "d": 575.5810499999789,
      "v": 75
    },
    {
      "midi": 63,
      "hit": false,
      "t": 242098.69195000004,
      "d": 598.8368499999924,
      "v": 65
    },
    {
      "midi": 66,
      "hit": false,
      "t": 242104.50590000092,
      "d": 604.6508000000031,
      "v": 62
    },
    {
      "midi": 70,
      "hit": false,
      "t": 242790.55200000003,
      "d": 773.2553499999922,
      "v": 80
    },
    {
      "midi": 65,
      "hit": false,
      "t": 242807.99385000093,
      "d": 872.0924999999988,
      "v": 79
    },
    {
      "midi": 61,
      "hit": false,
      "t": 242813.80780000094,
      "d": 813.9529999999795,
      "v": 71
    },
    {
      "midi": 77,
      "hit": false,
      "t": 243139.38900000002,
      "d": 412.7904500000004,
      "v": 88
    },
    {
      "midi": 73,
      "hit": false,
      "t": 243488.22600000002,
      "d": 424.41834999999264,
      "v": 84
    },
    {
      "midi": 54,
      "hit": false,
      "t": 243488.22600000093,
      "d": 1232.5574000000197,
      "v": 66
    },
    {
      "midi": 70,
      "hit": false,
      "t": 243837.06300000002,
      "d": 767.4414000000106,
      "v": 88
    },
    {
      "midi": 70,
      "hit": false,
      "t": 243854.50485000093,
      "d": 866.2785500000173,
      "v": 69
    },
    {
      "midi": 58,
      "hit": false,
      "t": 244185.90000000093,
      "d": 674.4182000000146,
      "v": 66
    },
    {
      "midi": 65,
      "hit": false,
      "t": 244523.10910000093,
      "d": 988.3715000000084,
      "v": 78
    },
    {
      "midi": 65,
      "hit": false,
      "t": 244534.73700000002,
      "d": 970.9296500000055,
      "v": 78
    },
    {
      "midi": 61,
      "hit": false,
      "t": 244860.31820000094,
      "d": 610.4647500000137,
      "v": 62
    },
    {
      "midi": 61,
      "hit": false,
      "t": 244883.57400000002,
      "d": 633.7205499999982,
      "v": 77
    },
    {
      "midi": 58,
      "hit": false,
      "t": 245581.24800000095,
      "d": 34.883700000005774,
      "v": 73
    },
    {
      "midi": 73,
      "hit": false,
      "t": 245587.06195000003,
      "d": 1075.5807499999646,
      "v": 80
    },
    {
      "midi": 61,
      "hit": false,
      "t": 245604.50380000097,
      "d": 744.1855999999971,
      "v": 70
    },
    {
      "midi": 68,
      "hit": false,
      "t": 245621.94565000097,
      "d": 1563.9525500000163,
      "v": 71
    },
    {
      "midi": 77,
      "hit": false,
      "t": 245935.89895000003,
      "d": 697.67399999997,
      "v": 74
    },
    {
      "midi": 70,
      "hit": false,
      "t": 246278.92200000002,
      "d": 1040.6970499999588,
      "v": 81
    },
    {
      "midi": 65,
      "hit": false,
      "t": 246296.36385000095,
      "d": 883.7204000000202,
      "v": 61
    },
    {
      "midi": 80,
      "hit": false,
      "t": 246604.5032,
      "d": 447.6741499999771,
      "v": 81
    },
    {
      "midi": 61,
      "hit": false,
      "t": 246656.82875000098,
      "d": 1703.4873500000103,
      "v": 68
    },
    {
      "midi": 77,
      "hit": false,
      "t": 246947.52625,
      "d": 1023.255199999985,
      "v": 83
    },
    {
      "midi": 65,
      "hit": false,
      "t": 247325.43300000098,
      "d": 412.7904500000004,
      "v": 68
    },
    {
      "midi": 58,
      "hit": false,
      "t": 247325.43300000098,
      "d": 575.581050000008,
      "v": 75
    },
    {
      "midi": 73,
      "hit": false,
      "t": 247342.87485,
      "d": 686.0460999999777,
      "v": 81
    },
    {
      "midi": 68,
      "hit": false,
      "t": 247674.27000000098,
      "d": 331.39514999999665,
      "v": 86
    },
    {
      "midi": 70,
      "hit": false,
      "t": 247691.71185,
      "d": 593.0228999999817,
      "v": 80
    },
    {
      "midi": 53,
      "hit": false,
      "t": 248023.10700000098,
      "d": 348.83699999999953,
      "v": 52
    },
    {
      "midi": 65,
      "hit": false,
      "t": 248023.10700000098,
      "d": 575.5810500000371,
      "v": 56
    },
    {
      "midi": 75,
      "hit": false,
      "t": 248028.92094999997,
      "d": 1023.2552000000142,
      "v": 89
    },
    {
      "midi": 70,
      "hit": false,
      "t": 248046.362800001,
      "d": 1930.2313999999897,
      "v": 80
    },
    {
      "midi": 58,
      "hit": false,
      "t": 248063.804650001,
      "d": 953.4878000000026,
      "v": 66
    },
    {
      "midi": 70,
      "hit": false,
      "t": 248371.944,
      "d": 1069.7668000000122,
      "v": 80
    },
    {
      "midi": 63,
      "hit": false,
      "t": 248383.571900001,
      "d": 569.7670999999973,
      "v": 67
    },
    {
      "midi": 82,
      "hit": false,
      "t": 248720.781,
      "d": 2023.2546000000439,
      "v": 81
    },
    {
      "midi": 79,
      "hit": false,
      "t": 249069.618,
      "d": 808.139049999998,
      "v": 76
    },
    {
      "midi": 58,
      "hit": false,
      "t": 249087.05985000098,
      "d": 709.3018999999913,
      "v": 68
    },
    {
      "midi": 63,
      "hit": false,
      "t": 249087.05985000098,
      "d": 1215.1155500000168,
      "v": 62
    },
    {
      "midi": 65,
      "hit": false,
      "t": 249087.05985000098,
      "d": 1465.1154000000097,
      "v": 60
    },
    {
      "midi": 75,
      "hit": false,
      "t": 249418.455,
      "d": 255.81380000000354,
      "v": 89
    },
    {
      "midi": 51,
      "hit": false,
      "t": 249418.45500000098,
      "d": 1441.8596000000252,
      "v": 62
    },
    {
      "midi": 75,
      "hit": false,
      "t": 249767.292,
      "d": 372.0928000000131,
      "v": 89
    },
    {
      "midi": 73,
      "hit": false,
      "t": 249767.292,
      "d": 662.7903000000224,
      "v": 82
    },
    {
      "midi": 70,
      "hit": false,
      "t": 250116.129,
      "d": 773.2553500000504,
      "v": 66
    },
    {
      "midi": 77,
      "hit": false,
      "t": 250116.129,
      "d": 1418.60380000007,
      "v": 99
    },
    {
      "midi": 58,
      "hit": false,
      "t": 250116.12900000098,
      "d": 563.9531500000157,
      "v": 65
    },
    {
      "midi": 73,
      "hit": false,
      "t": 250464.96600000001,
      "d": 325.5812000000151,
      "v": 76
    },
    {
      "midi": 63,
      "hit": false,
      "t": 250488.221800001,
      "d": 627.9066000000166,
      "v": 62
    },
    {
      "midi": 61,
      "hit": false,
      "t": 250494.035750001,
      "d": 505.8136499999964,
      "v": 77
    },
    {
      "midi": 58,
      "hit": false,
      "t": 250813.803000001,
      "d": 302.32540000000154,
      "v": 63
    },
    {
      "midi": 73,
      "hit": false,
      "t": 250837.05880000003,
      "d": 877.9064500000095,
      "v": 78
    },
    {
      "midi": 68,
      "hit": false,
      "t": 251162.64000000004,
      "d": 1215.1155499999877,
      "v": 81
    },
    {
      "midi": 49,
      "hit": false,
      "t": 251162.640000001,
      "d": 1220.9295000000566,
      "v": 64
    },
    {
      "midi": 63,
      "hit": false,
      "t": 251168.453950001,
      "d": 360.46489999999176,
      "v": 81
    },
    {
      "midi": 75,
      "hit": false,
      "t": 251511.47700000004,
      "d": 744.1855999999971,
      "v": 86
    },
    {
      "midi": 61,
      "hit": false,
      "t": 251511.477000001,
      "d": 389.534650000016,
      "v": 76
    },
    {
      "midi": 56,
      "hit": false,
      "t": 251895.197700001,
      "d": 1220.9295000000275,
      "v": 75
    },
    {
      "midi": 73,
      "hit": false,
      "t": 252209.15100000004,
      "d": 982.5575499999686,
      "v": 86
    },
    {
      "midi": 63,
      "hit": false,
      "t": 252209.15100000103,
      "d": 1709.301299999992,
      "v": 67
    },
    {
      "midi": 60,
      "hit": false,
      "t": 252244.03470000104,
      "d": 825.5809000000008,
      "v": 61
    },
    {
      "midi": 68,
      "hit": false,
      "t": 252557.988,
      "d": 1220.9294999999693,
      "v": 92
    },
    {
      "midi": 73,
      "hit": false,
      "t": 253255.662,
      "d": 563.9531499999575,
      "v": 83
    },
    {
      "midi": 56,
      "hit": false,
      "t": 253261.47595000104,
      "d": 668.604250000004,
      "v": 67
    },
    {
      "midi": 61,
      "hit": false,
      "t": 253273.10385000103,
      "d": 651.1624000000011,
      "v": 76
    },
    {
      "midi": 75,
      "hit": false,
      "t": 253953.33599999998,
      "d": 715.115850000002,
      "v": 94
    },
    {
      "midi": 67,
      "hit": false,
      "t": 253970.77785000103,
      "d": 872.0924999999988,
      "v": 79
    },
    {
      "midi": 63,
      "hit": false,
      "t": 253976.59180000104,
      "d": 813.9529999999795,
      "v": 71
    },
    {
      "midi": 67,
      "hit": false,
      "t": 254302.17299999998,
      "d": 965.1156999999948,
      "v": 77
    },
    {
      "midi": 72,
      "hit": false,
      "t": 254651.00999999998,
      "d": 517.4415499999886,
      "v": 80
    },
    {
      "midi": 56,
      "hit": false,
      "t": 254651.01000000103,
      "d": 1232.5573999999615,
      "v": 66
    },
    {
      "midi": 63,
      "hit": false,
      "t": 254999.84699999998,
      "d": 1715.1152499999735,
      "v": 69
    },
    {
      "midi": 72,
      "hit": false,
      "t": 255017.28885000103,
      "d": 866.2785499999591,
      "v": 69
    },
    {
      "midi": 72,
      "hit": false,
      "t": 255348.68399999998,
      "d": 1372.0921999999846,
      "v": 85
    },
    {
      "midi": 67,
      "hit": false,
      "t": 255685.893100001,
      "d": 988.3714999999793,
      "v": 78
    },
    {
      "midi": 67,
      "hit": false,
      "t": 255697.52099999998,
      "d": 982.5575499999686,
      "v": 78
    },
    {
      "midi": 63,
      "hit": false,
      "t": 256023.10220000098,
      "d": 610.4647500000137,
      "v": 62
    },
    {
      "midi": 60,
      "hit": false,
      "t": 256395.195000001,
      "d": 383.7206999999762,
      "v": 60
    },
    {
      "midi": 77,
      "hit": false,
      "t": 256744.03199999998,
      "d": 372.0928000000131,
      "v": 75
    },
    {
      "midi": 73,
      "hit": false,
      "t": 256744.03199999998,
      "d": 877.9064500000095,
      "v": 62
    },
    {
      "midi": 68,
      "hit": false,
      "t": 256744.03199999998,
      "d": 1215.1155499999877,
      "v": 81
    },
    {
      "midi": 49,
      "hit": false,
      "t": 256744.03200000097,
      "d": 1220.9294999999984,
      "v": 64
    },
    {
      "midi": 63,
      "hit": false,
      "t": 256749.84595000098,
      "d": 360.46489999999176,
      "v": 81
    },
    {
      "midi": 75,
      "hit": false,
      "t": 257092.86899999998,
      "d": 744.1855999999971,
      "v": 86
    },
    {
      "midi": 61,
      "hit": false,
      "t": 257092.86900000097,
      "d": 389.534650000016,
      "v": 76
    },
    {
      "midi": 56,
      "hit": false,
      "t": 257476.58970000097,
      "d": 1220.9294999999693,
      "v": 75
    },
    {
      "midi": 73,
      "hit": false,
      "t": 257790.54299999998,
      "d": 982.5575499999395,
      "v": 86
    },
    {
      "midi": 63,
      "hit": false,
      "t": 257790.54300000097,
      "d": 1709.3012999999628,
      "v": 67
    },
    {
      "midi": 60,
      "hit": false,
      "t": 257825.42670000097,
      "d": 825.5808999999717,
      "v": 61
    },
    {
      "midi": 68,
      "hit": false,
      "t": 258139.37999999995,
      "d": 1220.9294999999693,
      "v": 92
    },
    {
      "midi": 73,
      "hit": false,
      "t": 258837.05399999992,
      "d": 563.9531499999866,
      "v": 83
    },
    {
      "midi": 56,
      "hit": false,
      "t": 258842.86795000095,
      "d": 668.604250000004,
      "v": 67
    },
    {
      "midi": 61,
      "hit": false,
      "t": 258854.49585000094,
      "d": 651.1624000000011,
      "v": 76
    },
    {
      "midi": 75,
      "hit": false,
      "t": 259534.72799999992,
      "d": 715.115850000002,
      "v": 94
    },
    {
      "midi": 67,
      "hit": false,
      "t": 259552.16985000097,
      "d": 872.0924999999988,
      "v": 79
    },
    {
      "midi": 63,
      "hit": false,
      "t": 259557.98380000098,
      "d": 813.9529999999795,
      "v": 71
    },
    {
      "midi": 67,
      "hit": false,
      "t": 259883.56499999992,
      "d": 965.1156999999948,
      "v": 77
    },
    {
      "midi": 72,
      "hit": false,
      "t": 260232.4019999999,
      "d": 517.4415499999886,
      "v": 80
    },
    {
      "midi": 56,
      "hit": false,
      "t": 260232.40200000096,
      "d": 1232.5573999999906,
      "v": 66
    },
    {
      "midi": 63,
      "hit": false,
      "t": 260581.2389999999,
      "d": 1715.1152500000026,
      "v": 69
    },
    {
      "midi": 72,
      "hit": false,
      "t": 260598.68085000096,
      "d": 866.2785499999882,
      "v": 69
    },
    {
      "midi": 72,
      "hit": false,
      "t": 260930.0759999999,
      "d": 1372.0921999999846,
      "v": 85
    },
    {
      "midi": 67,
      "hit": false,
      "t": 261267.28510000097,
      "d": 988.3714999999502,
      "v": 78
    },
    {
      "midi": 67,
      "hit": false,
      "t": 261278.9129999999,
      "d": 982.5575499999977,
      "v": 78
    },
    {
      "midi": 63,
      "hit": false,
      "t": 261604.49420000095,
      "d": 610.4647499999846,
      "v": 62
    },
    {
      "midi": 60,
      "hit": false,
      "t": 261976.58700000093,
      "d": 383.7207000000053,
      "v": 60
    },
    {
      "midi": 75,
      "hit": false,
      "t": 262325.42400000093,
      "d": 877.9064500000677,
      "v": 62
    },
    {
      "midi": 70,
      "hit": false,
      "t": 262337.05190000095,
      "d": 906.9762000000337,
      "v": 70
    },
    {
      "midi": 66,
      "hit": false,
      "t": 262337.05190000095,
      "d": 924.4180500000366,
      "v": 76
    },
    {
      "midi": 58,
      "hit": false,
      "t": 262651.00520000095,
      "d": 924.4180500000948,
      "v": 63
    },
    {
      "midi": 82,
      "hit": false,
      "t": 262709.14469999995,
      "d": 941.8598999999231,
      "v": 89
    },
    {
      "midi": 78,
      "hit": false,
      "t": 263023.09799999994,
      "d": 1691.8594499998726,
      "v": 86
    },
    {
      "midi": 54,
      "hit": false,
      "t": 263023.098000001,
      "d": 924.4180500000948,
      "v": 69
    },
    {
      "midi": 63,
      "hit": false,
      "t": 263377.7489499999,
      "d": 965.1156999999075,
      "v": 69
    },
    {
      "midi": 73,
      "hit": false,
      "t": 263383.562900001,
      "d": 686.0461000000942,
      "v": 66
    },
    {
      "midi": 66,
      "hit": false,
      "t": 263383.562900001,
      "d": 999.9994000001461,
      "v": 63
    },
    {
      "midi": 66,
      "hit": false,
      "t": 263395.1907999999,
      "d": 918.6040999999386,
      "v": 77
    },
    {
      "midi": 70,
      "hit": false,
      "t": 263395.19080000103,
      "d": 1668.6036500001792,
      "v": 68
    },
    {
      "midi": 75,
      "hit": false,
      "t": 263401.0047499999,
      "d": 1453.487499999872,
      "v": 77
    },
    {
      "midi": 58,
      "hit": false,
      "t": 264092.8648000011,
      "d": 924.4180500000948,
      "v": 69
    },
    {
      "midi": 75,
      "hit": false,
      "t": 264104.4927000011,
      "d": 732.557700000063,
      "v": 60
    },
    {
      "midi": 73,
      "hit": false,
      "t": 264418.44600000116,
      "d": 575.5810500000371,
      "v": 75
    },
    {
      "midi": 63,
      "hit": false,
      "t": 264424.2599499998,
      "d": 598.8368500000215,
      "v": 65
    },
    {
      "midi": 66,
      "hit": false,
      "t": 264430.0739000012,
      "d": 604.6508000000031,
      "v": 62
    },
    {
      "midi": 70,
      "hit": false,
      "t": 265116.1199999998,
      "d": 773.2553499999922,
      "v": 80
    },
    {
      "midi": 65,
      "hit": false,
      "t": 265133.5618500012,
      "d": 872.0924999999697,
      "v": 79
    },
    {
      "midi": 61,
      "hit": false,
      "t": 265139.3758000012,
      "d": 813.9529999999795,
      "v": 71
    },
    {
      "midi": 77,
      "hit": false,
      "t": 265464.9569999998,
      "d": 412.7904499999713,
      "v": 88
    },
    {
      "midi": 73,
      "hit": false,
      "t": 265813.7939999998,
      "d": 424.41834999999264,
      "v": 84
    },
    {
      "midi": 54,
      "hit": false,
      "t": 265813.7940000012,
      "d": 1232.5573999999324,
      "v": 66
    },
    {
      "midi": 70,
      "hit": false,
      "t": 266162.6309999998,
      "d": 767.4414000000106,
      "v": 88
    },
    {
      "midi": 70,
      "hit": false,
      "t": 266180.07285000116,
      "d": 866.2785499999882,
      "v": 69
    },
    {
      "midi": 58,
      "hit": false,
      "t": 266511.46800000116,
      "d": 674.4181999999564,
      "v": 66
    },
    {
      "midi": 65,
      "hit": false,
      "t": 266848.6771000012,
      "d": 988.3714999999502,
      "v": 78
    },
    {
      "midi": 65,
      "hit": false,
      "t": 266860.3049999998,
      "d": 970.9296500000055,
      "v": 78
    },
    {
      "midi": 61,
      "hit": false,
      "t": 267185.8862000011,
      "d": 610.4647500000428,
      "v": 62
    },
    {
      "midi": 61,
      "hit": false,
      "t": 267209.1419999999,
      "d": 633.7205499999109,
      "v": 77
    },
    {
      "midi": 58,
      "hit": false,
      "t": 267906.81600000116,
      "d": 34.883700000005774,
      "v": 73
    },
    {
      "midi": 73,
      "hit": false,
      "t": 267912.6299499998,
      "d": 1075.580750000081,
      "v": 80
    },
    {
      "midi": 61,
      "hit": false,
      "t": 267930.07180000114,
      "d": 744.1856000000262,
      "v": 70
    },
    {
      "midi": 68,
      "hit": false,
      "t": 267947.51365000114,
      "d": 1563.9525500000454,
      "v": 71
    },
    {
      "midi": 77,
      "hit": false,
      "t": 268261.4669499998,
      "d": 697.6740000000573,
      "v": 74
    },
    {
      "midi": 70,
      "hit": false,
      "t": 268604.4899999998,
      "d": 1040.6970500000753,
      "v": 81
    },
    {
      "midi": 65,
      "hit": false,
      "t": 268621.93185000116,
      "d": 883.7204000000493,
      "v": 61
    },
    {
      "midi": 80,
      "hit": false,
      "t": 268930.07119999983,
      "d": 447.6741500000935,
      "v": 81
    },
    {
      "midi": 61,
      "hit": false,
      "t": 268982.3967500012,
      "d": 1703.4873499999521,
      "v": 68
    },
    {
      "midi": 77,
      "hit": false,
      "t": 269273.0942499999,
      "d": 1023.255199999956,
      "v": 83
    },
    {
      "midi": 65,
      "hit": false,
      "t": 269651.00100000115,
      "d": 412.7904499999713,
      "v": 68
    },
    {
      "midi": 58,
      "hit": false,
      "t": 269651.00100000115,
      "d": 575.5810499999789,
      "v": 75
    },
    {
      "midi": 73,
      "hit": false,
      "t": 269668.4428499999,
      "d": 686.0460999999777,
      "v": 81
    },
    {
      "midi": 68,
      "hit": false,
      "t": 269999.83800000115,
      "d": 331.39514999999665,
      "v": 86
    },
    {
      "midi": 70,
      "hit": false,
      "t": 270017.2798499999,
      "d": 593.0228999999817,
      "v": 80
    },
    {
      "midi": 53,
      "hit": false,
      "t": 270348.67500000115,
      "d": 348.83699999999953,
      "v": 52
    },
    {
      "midi": 65,
      "hit": false,
      "t": 270348.67500000115,
      "d": 575.5810499999789,
      "v": 56
    },
    {
      "midi": 75,
      "hit": false,
      "t": 270354.48894999985,
      "d": 1023.2552000000142,
      "v": 89
    },
    {
      "midi": 70,
      "hit": false,
      "t": 270371.93080000114,
      "d": 1930.2313999999897,
      "v": 80
    },
    {
      "midi": 58,
      "hit": false,
      "t": 270389.37265000114,
      "d": 953.4877999999444,
      "v": 66
    },
    {
      "midi": 70,
      "hit": false,
      "t": 270697.5119999999,
      "d": 1069.766799999983,
      "v": 80
    },
    {
      "midi": 63,
      "hit": false,
      "t": 270709.1399000012,
      "d": 569.7670999999391,
      "v": 67
    },
    {
      "midi": 82,
      "hit": false,
      "t": 271046.3489999999,
      "d": 2023.2545999999274,
      "v": 81
    },
    {
      "midi": 79,
      "hit": false,
      "t": 271395.18599999987,
      "d": 808.1390499999397,
      "v": 76
    },
    {
      "midi": 58,
      "hit": false,
      "t": 271412.6278500011,
      "d": 709.3019000000204,
      "v": 68
    },
    {
      "midi": 63,
      "hit": false,
      "t": 271412.6278500011,
      "d": 1215.115550000046,
      "v": 62
    },
    {
      "midi": 65,
      "hit": false,
      "t": 271412.6278500011,
      "d": 1465.115400000068,
      "v": 60
    },
    {
      "midi": 75,
      "hit": false,
      "t": 271744.02299999987,
      "d": 255.81379999994533,
      "v": 89
    },
    {
      "midi": 51,
      "hit": false,
      "t": 271744.0230000011,
      "d": 1441.8596000000834,
      "v": 62
    },
    {
      "midi": 75,
      "hit": false,
      "t": 272092.8599999998,
      "d": 372.092799999984,
      "v": 89
    },
    {
      "midi": 73,
      "hit": false,
      "t": 272092.8599999998,
      "d": 662.7902999999933,
      "v": 82
    },
    {
      "midi": 70,
      "hit": false,
      "t": 272441.6969999998,
      "d": 773.2553499999922,
      "v": 66
    },
    {
      "midi": 77,
      "hit": false,
      "t": 272441.6969999998,
      "d": 1046.5109999999986,
      "v": 99
    },
    {
      "midi": 58,
      "hit": false,
      "t": 272441.69700000115,
      "d": 563.9531500000157,
      "v": 65
    },
    {
      "midi": 73,
      "hit": false,
      "t": 272790.5339999998,
      "d": 662.7902999999933,
      "v": 76
    },
    {
      "midi": 63,
      "hit": false,
      "t": 272813.78980000113,
      "d": 627.9066000000457,
      "v": 62
    },
    {
      "midi": 61,
      "hit": false,
      "t": 272819.6037500011,
      "d": 505.8136500000837,
      "v": 77
    },
    {
      "midi": 58,
      "hit": false,
      "t": 273139.37100000115,
      "d": 302.32540000003064,
      "v": 63
    }
  ]
}