{
  "jsonPath": "Rock/Country Rock/Joe Diffie/pickup-man.json",
  "path": "Rock\\Country Rock\\Joe Diffie\\Pickup Man.mid",
  "name": "Pickup Man",
  "difficulty": "Advanced",
  "bpm": 143.000143000143,
  "notes": [
    {
      "midi": 55,
      "hit": false,
      "t": 3776.2200000000003,
      "d": 893.7928124999999,
      "v": 98
    },
    {
      "midi": 62,
      "hit": false,
      "t": 3776.2200000000003,
      "d": 1005.2437499999996,
      "v": 107
    },
    {
      "midi": 67,
      "hit": false,
      "t": 3776.2200000000003,
      "d": 1070.8031249999995,
      "v": 107
    },
    {
      "midi": 43,
      "hit": false,
      "t": 3776.2200000000003,
      "d": 1271.8518749999994,
      "v": 102
    },
    {
      "midi": 77,
      "hit": false,
      "t": 6728.5771875,
      "d": 63.374062500000036,
      "v": 127
    },
    {
      "midi": 74,
      "hit": false,
      "t": 6826.91625,
      "d": 69.93000000000029,
      "v": 89
    },
    {
      "midi": 77,
      "hit": false,
      "t": 6923.070000000001,
      "d": 54.6328125,
      "v": 85
    },
    {
      "midi": 74,
      "hit": false,
      "t": 7003.926562500001,
      "d": 59.00343749999956,
      "v": 72
    },
    {
      "midi": 77,
      "hit": false,
      "t": 7082.5978125,
      "d": 54.6328125,
      "v": 76
    },
    {
      "midi": 74,
      "hit": false,
      "t": 7152.5278125,
      "d": 59.00343749999956,
      "v": 72
    },
    {
      "midi": 77,
      "hit": false,
      "t": 7244.3109375,
      "d": 45.891562499999964,
      "v": 76
    },
    {
      "midi": 74,
      "hit": false,
      "t": 7301.1290625,
      "d": 67.7446874999996,
      "v": 80
    },
    {
      "midi": 77,
      "hit": false,
      "t": 7414.7653125,
      "d": 32.779687500000364,
      "v": 59
    },
    {
      "midi": 74,
      "hit": false,
      "t": 7456.28625,
      "d": 61.188750000000255,
      "v": 64
    },
    {
      "midi": 77,
      "hit": false,
      "t": 7552.4400000000005,
      "d": 50.26218750000044,
      "v": 76
    },
    {
      "midi": 74,
      "hit": false,
      "t": 7602.702187500001,
      "d": 72.11531250000007,
      "v": 76
    },
    {
      "midi": 77,
      "hit": false,
      "t": 7705.411875000001,
      "d": 45.891562499999964,
      "v": 72
    },
    {
      "midi": 74,
      "hit": false,
      "t": 7768.785937500001,
      "d": 63.374062500000036,
      "v": 72
    },
    {
      "midi": 77,
      "hit": false,
      "t": 7851.827812500001,
      "d": 39.33562499999971,
      "v": 68
    },
    {
      "midi": 74,
      "hit": false,
      "t": 7923.943125000001,
      "d": 67.7446874999996,
      "v": 72
    },
    {
      "midi": 77,
      "hit": false,
      "t": 7998.243750000001,
      "d": 37.15031249999993,
      "v": 62
    },
    {
      "midi": 74,
      "hit": false,
      "t": 8079.100312500001,
      "d": 67.7446874999996,
      "v": 72
    },
    {
      "midi": 77,
      "hit": false,
      "t": 8135.9184375,
      "d": 45.891562499999964,
      "v": 68
    },
    {
      "midi": 74,
      "hit": false,
      "t": 8227.7015625,
      "d": 54.6328125,
      "v": 62
    },
    {
      "midi": 77,
      "hit": false,
      "t": 8275.778437500001,
      "d": 39.33562499999971,
      "v": 72
    },
    {
      "midi": 74,
      "hit": false,
      "t": 8363.190937500001,
      "d": 72.11531250000007,
      "v": 72
    },
    {
      "midi": 77,
      "hit": false,
      "t": 8400.341250000001,
      "d": 61.188749999999345,
      "v": 98
    },
    {
      "midi": 93,
      "hit": false,
      "t": 9252.613125,
      "d": 48.076874999998836,
      "v": 85
    },
    {
      "midi": 91,
      "hit": false,
      "t": 9270.095625,
      "d": 74.30062499999985,
      "v": 98
    },
    {
      "midi": 89,
      "hit": false,
      "t": 9296.319375,
      "d": 93.96843750000153,
      "v": 93
    },
    {
      "midi": 88,
      "hit": false,
      "t": 9329.0990625,
      "d": 111.45093749999978,
      "v": 68
    },
    {
      "midi": 86,
      "hit": false,
      "t": 9379.36125,
      "d": 109.26562499999818,
      "v": 46
    },
    {
      "midi": 84,
      "hit": false,
      "t": 9433.9940625,
      "d": 98.33906249999927,
      "v": 53
    },
    {
      "midi": 83,
      "hit": false,
      "t": 9482.070937499999,
      "d": 89.59781250000015,
      "v": 72
    },
    {
      "midi": 81,
      "hit": false,
      "t": 9521.406562499998,
      "d": 89.59781250000015,
      "v": 89
    },
    {
      "midi": 79,
      "hit": false,
      "t": 9560.742187499998,
      "d": 89.59781250000196,
      "v": 85
    },
    {
      "midi": 77,
      "hit": false,
      "t": 9597.892499999998,
      "d": 93.96843750000335,
      "v": 80
    },
    {
      "midi": 76,
      "hit": false,
      "t": 9639.4134375,
      "d": 91.78312500000175,
      "v": 68
    },
    {
      "midi": 74,
      "hit": false,
      "t": 9680.934375,
      "d": 93.96843749999971,
      "v": 72
    },
    {
      "midi": 72,
      "hit": false,
      "t": 9726.825937500002,
      "d": 93.96843749999971,
      "v": 64
    },
    {
      "midi": 71,
      "hit": false,
      "t": 9768.346875000001,
      "d": 91.78312499999993,
      "v": 62
    },
    {
      "midi": 69,
      "hit": false,
      "t": 9807.6825,
      "d": 91.78312499999993,
      "v": 64
    },
    {
      "midi": 67,
      "hit": false,
      "t": 9844.8328125,
      "d": 91.78312499999993,
      "v": 62
    },
    {
      "midi": 65,
      "hit": false,
      "t": 9886.35375,
      "d": 78.67125000000124,
      "v": 57
    },
    {
      "midi": 64,
      "hit": false,
      "t": 9921.31875,
      "d": 56.81812499999978,
      "v": 53
    },
    {
      "midi": 62,
      "hit": false,
      "t": 9947.542500000001,
      "d": 45.891562499999054,
      "v": 57
    },
    {
      "midi": 60,
      "hit": false,
      "t": 9973.76625,
      "d": 26.2237499999992,
      "v": 80
    },
    {
      "midi": 43,
      "hit": false,
      "t": 30209.760000000002,
      "d": 3253.930312500015,
      "v": 107
    },
    {
      "midi": 67,
      "hit": false,
      "t": 30629.340000000004,
      "d": 181.3809375000019,
      "v": 98
    },
    {
      "midi": 55,
      "hit": false,
      "t": 30629.340000000004,
      "d": 185.75156250000146,
      "v": 85
    },
    {
      "midi": 62,
      "hit": false,
      "t": 30629.340000000004,
      "d": 187.93687500000306,
      "v": 93
    },
    {
      "midi": 74,
      "hit": false,
      "t": 32587.38000000001,
      "d": 69.93000000000029,
      "v": 72
    },
    {
      "midi": 79,
      "hit": false,
      "t": 32587.38000000001,
      "d": 80.85656250000102,
      "v": 76
    },
    {
      "midi": 67,
      "hit": false,
      "t": 32587.38000000001,
      "d": 96.15375000000131,
      "v": 60
    },
    {
      "midi": 74,
      "hit": false,
      "t": 33006.960000000014,
      "d": 67.74468750000233,
      "v": 93
    },
    {
      "midi": 67,
      "hit": false,
      "t": 33006.960000000014,
      "d": 85.22718750000058,
      "v": 72
    },
    {
      "midi": 79,
      "hit": false,
      "t": 33006.960000000014,
      "d": 96.15374999999767,
      "v": 102
    },
    {
      "midi": 74,
      "hit": false,
      "t": 33426.540000000015,
      "d": 61.188750000001164,
      "v": 93
    },
    {
      "midi": 79,
      "hit": false,
      "t": 33426.540000000015,
      "d": 63.37406249999913,
      "v": 89
    },
    {
      "midi": 67,
      "hit": false,
      "t": 33426.540000000015,
      "d": 76.48593750000146,
      "v": 72
    },
    {
      "midi": 43,
      "hit": false,
      "t": 33566.400000000016,
      "d": 3033.2137499999953,
      "v": 98
    },
    {
      "midi": 55,
      "hit": false,
      "t": 33985.98000000002,
      "d": 236.01374999999825,
      "v": 80
    },
    {
      "midi": 59,
      "hit": false,
      "t": 33985.98000000002,
      "d": 238.19906249999622,
      "v": 89
    },
    {
      "midi": 62,
      "hit": false,
      "t": 33985.98000000002,
      "d": 244.75499999999738,
      "v": 85
    },
    {
      "midi": 55,
      "hit": false,
      "t": 34405.56000000001,
      "d": 142.04531249999854,
      "v": 55
    },
    {
      "midi": 50,
      "hit": false,
      "t": 34685.28000000001,
      "d": 93.96843749999971,
      "v": 89
    },
    {
      "midi": 55,
      "hit": false,
      "t": 34825.140000000014,
      "d": 493.88062500000524,
      "v": 89
    },
    {
      "midi": 59,
      "hit": false,
      "t": 34825.140000000014,
      "d": 548.5134375000052,
      "v": 98
    },
    {
      "midi": 62,
      "hit": false,
      "t": 34825.140000000014,
      "d": 557.2546875000044,
      "v": 89
    },
    {
      "midi": 50,
      "hit": false,
      "t": 35244.720000000016,
      "d": 104.89500000000407,
      "v": 93
    },
    {
      "midi": 53,
      "hit": false,
      "t": 35664.30000000002,
      "d": 78.67124999999942,
      "v": 60
    },
    {
      "midi": 59,
      "hit": false,
      "t": 35664.30000000002,
      "d": 100.52437500000087,
      "v": 93
    },
    {
      "midi": 62,
      "hit": false,
      "t": 35664.30000000002,
      "d": 122.37750000000233,
      "v": 89
    },
    {
      "midi": 50,
      "hit": false,
      "t": 35944.02000000002,
      "d": 113.63624999999593,
      "v": 98
    },
    {
      "midi": 59,
      "hit": false,
      "t": 36363.60000000001,
      "d": 76.48593750000146,
      "v": 107
    },
    {
      "midi": 55,
      "hit": false,
      "t": 36363.60000000001,
      "d": 78.67124999999942,
      "v": 93
    },
    {
      "midi": 62,
      "hit": false,
      "t": 36363.60000000001,
      "d": 91.78312500000175,
      "v": 102
    },
    {
      "midi": 50,
      "hit": false,
      "t": 36503.460000000014,
      "d": 115.82156250000116,
      "v": 89
    },
    {
      "midi": 43,
      "hit": false,
      "t": 36783.180000000015,
      "d": 3092.2171874999985,
      "v": 102
    },
    {
      "midi": 53,
      "hit": false,
      "t": 36923.040000000015,
      "d": 314.6849999999977,
      "v": 80
    },
    {
      "midi": 59,
      "hit": false,
      "t": 36923.040000000015,
      "d": 371.50312499999563,
      "v": 80
    },
    {
      "midi": 62,
      "hit": false,
      "t": 36923.040000000015,
      "d": 373.6884374999936,
      "v": 72
    },
    {
      "midi": 50,
      "hit": false,
      "t": 37342.62000000001,
      "d": 214.1606249999968,
      "v": 89
    },
    {
      "midi": 59,
      "hit": false,
      "t": 37622.340000000004,
      "d": 87.41249999999854,
      "v": 93
    },
    {
      "midi": 55,
      "hit": false,
      "t": 37622.340000000004,
      "d": 96.15374999999767,
      "v": 85
    },
    {
      "midi": 62,
      "hit": false,
      "t": 37622.340000000004,
      "d": 102.70968749999884,
      "v": 98
    },
    {
      "midi": 50,
      "hit": false,
      "t": 38041.920000000006,
      "d": 113.6362500000032,
      "v": 76
    },
    {
      "midi": 62,
      "hit": false,
      "t": 38181.780000000006,
      "d": 26.22374999999738,
      "v": 46
    },
    {
      "midi": 55,
      "hit": false,
      "t": 38181.780000000006,
      "d": 157.34249999999884,
      "v": 93
    },
    {
      "midi": 55,
      "hit": false,
      "t": 38601.36000000001,
      "d": 279.72000000000116,
      "v": 72
    },
    {
      "midi": 50,
      "hit": false,
      "t": 38881.08000000001,
      "d": 124.56281250000029,
      "v": 89
    },
    {
      "midi": 62,
      "hit": false,
      "t": 39020.94000000001,
      "d": 113.6362500000032,
      "v": 93
    },
    {
      "midi": 59,
      "hit": false,
      "t": 39020.94000000001,
      "d": 120.19218750000437,
      "v": 93
    },
    {
      "midi": 62,
      "hit": false,
      "t": 39300.66000000001,
      "d": 220.71656249999796,
      "v": 98
    },
    {
      "midi": 59,
      "hit": false,
      "t": 39300.66000000001,
      "d": 251.31093749999854,
      "v": 102
    },
    {
      "midi": 55,
      "hit": false,
      "t": 39300.66000000001,
      "d": 295.01718750000146,
      "v": 89
    },
    {
      "midi": 50,
      "hit": false,
      "t": 39720.24000000001,
      "d": 187.93687499999942,
      "v": 93
    },
    {
      "midi": 55,
      "hit": false,
      "t": 39860.10000000001,
      "d": 179.1956250000003,
      "v": 98
    },
    {
      "midi": 59,
      "hit": false,
      "t": 40139.820000000014,
      "d": 96.15374999999767,
      "v": 76
    },
    {
      "midi": 55,
      "hit": false,
      "t": 40279.680000000015,
      "d": 670.8909375000076,
      "v": 93
    },
    {
      "midi": 48,
      "hit": false,
      "t": 40279.680000000015,
      "d": 2910.8362500000076,
      "v": 93
    },
    {
      "midi": 58,
      "hit": false,
      "t": 40699.26000000002,
      "d": 159.52781250000407,
      "v": 107
    },
    {
      "midi": 55,
      "hit": false,
      "t": 41398.56000000002,
      "d": 113.6362500000032,
      "v": 98
    },
    {
      "midi": 58,
      "hit": false,
      "t": 41538.42000000002,
      "d": 113.6362500000032,
      "v": 107
    },
    {
      "midi": 55,
      "hit": false,
      "t": 41818.14000000002,
      "d": 133.30406249999942,
      "v": 98
    },
    {
      "midi": 60,
      "hit": false,
      "t": 41958.00000000002,
      "d": 131.11875000000146,
      "v": 89
    },
    {
      "midi": 60,
      "hit": false,
      "t": 42237.72000000002,
      "d": 104.89500000000407,
      "v": 98
    },
    {
      "midi": 55,
      "hit": false,
      "t": 42377.58000000002,
      "d": 135.48937499999738,
      "v": 98
    },
    {
      "midi": 58,
      "hit": false,
      "t": 42657.30000000002,
      "d": 391.1709375000064,
      "v": 113
    },
    {
      "midi": 55,
      "hit": false,
      "t": 43076.88000000003,
      "d": 96.15374999999767,
      "v": 98
    },
    {
      "midi": 58,
      "hit": false,
      "t": 43216.74000000002,
      "d": 150.78656249999767,
      "v": 102
    },
    {
      "midi": 55,
      "hit": false,
      "t": 43496.46000000002,
      "d": 133.30406249999942,
      "v": 89
    },
    {
      "midi": 43,
      "hit": false,
      "t": 43636.32000000002,
      "d": 3199.297500000015,
      "v": 98
    },
    {
      "midi": 62,
      "hit": false,
      "t": 44055.90000000002,
      "d": 559.4400000000023,
      "v": 76
    },
    {
      "midi": 55,
      "hit": false,
      "t": 44055.90000000002,
      "d": 568.1812500000015,
      "v": 76
    },
    {
      "midi": 59,
      "hit": false,
      "t": 44055.90000000002,
      "d": 596.5903125000041,
      "v": 89
    },
    {
      "midi": 50,
      "hit": false,
      "t": 44755.200000000026,
      "d": 100.52437500000087,
      "v": 89
    },
    {
      "midi": 55,
      "hit": false,
      "t": 44895.06000000003,
      "d": 211.97531249999884,
      "v": 80
    },
    {
      "midi": 50,
      "hit": false,
      "t": 45174.78000000003,
      "d": 96.15374999999767,
      "v": 85
    },
    {
      "midi": 55,
      "hit": false,
      "t": 45594.36000000002,
      "d": 61.188750000001164,
      "v": 93
    },
    {
      "midi": 62,
      "hit": false,
      "t": 45594.36000000002,
      "d": 74.30062500000349,
      "v": 102
    },
    {
      "midi": 67,
      "hit": false,
      "t": 45594.36000000002,
      "d": 85.22718750000058,
      "v": 102
    },
    {
      "midi": 62,
      "hit": false,
      "t": 46013.940000000024,
      "d": 69.93000000000029,
      "v": 98
    },
    {
      "midi": 55,
      "hit": false,
      "t": 46013.940000000024,
      "d": 83.04187500000262,
      "v": 89
    },
    {
      "midi": 67,
      "hit": false,
      "t": 46013.940000000024,
      "d": 89.59781250000378,
      "v": 98
    },
    {
      "midi": 62,
      "hit": false,
      "t": 46433.52000000003,
      "d": 67.74468750000233,
      "v": 98
    },
    {
      "midi": 55,
      "hit": false,
      "t": 46433.52000000003,
      "d": 69.93000000000029,
      "v": 93
    },
    {
      "midi": 67,
      "hit": false,
      "t": 46433.52000000003,
      "d": 98.33906250000291,
      "v": 102
    },
    {
      "midi": 62,
      "hit": false,
      "t": 46853.100000000035,
      "d": 83.04187499999534,
      "v": 93
    },
    {
      "midi": 55,
      "hit": false,
      "t": 46853.100000000035,
      "d": 87.41249999999854,
      "v": 80
    },
    {
      "midi": 67,
      "hit": false,
      "t": 46853.100000000035,
      "d": 98.33906249999563,
      "v": 93
    },
    {
      "midi": 50,
      "hit": false,
      "t": 46992.96000000003,
      "d": 1271.8518750000076,
      "v": 113
    },
    {
      "midi": 62,
      "hit": false,
      "t": 47412.54000000003,
      "d": 703.6706249999988,
      "v": 93
    },
    {
      "midi": 54,
      "hit": false,
      "t": 47412.54000000003,
      "d": 710.2265625,
      "v": 85
    },
    {
      "midi": 57,
      "hit": false,
      "t": 47412.54000000003,
      "d": 753.9328125000029,
      "v": 93
    },
    {
      "midi": 62,
      "hit": false,
      "t": 48251.70000000003,
      "d": 159.52781250000407,
      "v": 93
    },
    {
      "midi": 54,
      "hit": false,
      "t": 48251.70000000003,
      "d": 172.6396875000064,
      "v": 64
    },
    {
      "midi": 57,
      "hit": false,
      "t": 48251.70000000003,
      "d": 187.9368750000067,
      "v": 93
    },
    {
      "midi": 50,
      "hit": false,
      "t": 48531.42000000004,
      "d": 96.15374999999767,
      "v": 102
    },
    {
      "midi": 54,
      "hit": false,
      "t": 48671.28000000004,
      "d": 104.8949999999968,
      "v": 80
    },
    {
      "midi": 55,
      "hit": false,
      "t": 48671.28000000004,
      "d": 104.8949999999968,
      "v": 72
    },
    {
      "midi": 50,
      "hit": false,
      "t": 48951.00000000004,
      "d": 107.08031250000204,
      "v": 102
    },
    {
      "midi": 62,
      "hit": false,
      "t": 49090.86000000004,
      "d": 104.8949999999968,
      "v": 89
    },
    {
      "midi": 57,
      "hit": false,
      "t": 49090.86000000004,
      "d": 139.8599999999933,
      "v": 93
    },
    {
      "midi": 62,
      "hit": false,
      "t": 49370.58000000003,
      "d": 139.86000000000058,
      "v": 98
    },
    {
      "midi": 57,
      "hit": false,
      "t": 49370.58000000003,
      "d": 152.9718750000029,
      "v": 107
    },
    {
      "midi": 50,
      "hit": false,
      "t": 49790.16000000003,
      "d": 93.96843749999971,
      "v": 102
    },
    {
      "midi": 62,
      "hit": false,
      "t": 49930.02000000003,
      "d": 205.41937499999767,
      "v": 98
    },
    {
      "midi": 57,
      "hit": false,
      "t": 49930.02000000003,
      "d": 305.94374999999854,
      "v": 93
    },
    {
      "midi": 54,
      "hit": false,
      "t": 50209.740000000034,
      "d": 93.96843749999243,
      "v": 89
    },
    {
      "midi": 50,
      "hit": false,
      "t": 50349.60000000003,
      "d": 174.8249999999971,
      "v": 113
    },
    {
      "midi": 43,
      "hit": false,
      "t": 50349.60000000003,
      "d": 183.56624999999622,
      "v": 119
    },
    {
      "midi": 67,
      "hit": false,
      "t": 52447.50000000002,
      "d": 152.97187499999563,
      "v": 113
    },
    {
      "midi": 55,
      "hit": false,
      "t": 52447.50000000002,
      "d": 166.08374999999796,
      "v": 119
    },
    {
      "midi": 58,
      "hit": false,
      "t": 52867.080000000016,
      "d": 227.27249999999913,
      "v": 113
    },
    {
      "midi": 70,
      "hit": false,
      "t": 52867.080000000016,
      "d": 240.38437500000146,
      "v": 107
    },
    {
      "midi": 71,
      "hit": false,
      "t": 53286.66000000002,
      "d": 166.08374999999796,
      "v": 107
    },
    {
      "midi": 59,
      "hit": false,
      "t": 53286.66000000002,
      "d": 168.26906249999593,
      "v": 102
    },
    {
      "midi": 60,
      "hit": false,
      "t": 53706.24000000001,
      "d": 375.87374999999884,
      "v": 85
    },
    {
      "midi": 36,
      "hit": false,
      "t": 53706.24000000001,
      "d": 408.6534374999974,
      "v": 89
    },
    {
      "midi": 64,
      "hit": false,
      "t": 53706.24000000001,
      "d": 850.0865624999933,
      "v": 85
    },
    {
      "midi": 67,
      "hit": false,
      "t": 53706.24000000001,
      "d": 1040.2087499999907,
      "v": 89
    },
    {
      "midi": 60,
      "hit": false,
      "t": 54125.82000000001,
      "d": 270.97875000000204,
      "v": 68
    },
    {
      "midi": 60,
      "hit": false,
      "t": 54545.40000000001,
      "d": 190.12218749999738,
      "v": 48
    },
    {
      "midi": 48,
      "hit": false,
      "t": 54825.12,
      "d": 89.59781250000378,
      "v": 80
    },
    {
      "midi": 67,
      "hit": false,
      "t": 54964.98,
      "d": 229.4578124999971,
      "v": 102
    },
    {
      "midi": 62,
      "hit": false,
      "t": 54964.98,
      "d": 253.4962499999965,
      "v": 107
    },
    {
      "midi": 58,
      "hit": false,
      "t": 55244.7,
      "d": 384.61499999999796,
      "v": 113
    },
    {
      "midi": 60,
      "hit": false,
      "t": 55664.27999999999,
      "d": 104.8949999999968,
      "v": 85
    },
    {
      "midi": 64,
      "hit": false,
      "t": 55664.27999999999,
      "d": 104.8949999999968,
      "v": 98
    },
    {
      "midi": 67,
      "hit": false,
      "t": 55664.27999999999,
      "d": 122.37749999999505,
      "v": 93
    },
    {
      "midi": 58,
      "hit": false,
      "t": 56083.859999999986,
      "d": 148.6012499999997,
      "v": 72
    },
    {
      "midi": 64,
      "hit": false,
      "t": 56223.71999999999,
      "d": 301.5731250000026,
      "v": 89
    },
    {
      "midi": 60,
      "hit": false,
      "t": 56223.71999999999,
      "d": 312.4996874999997,
      "v": 80
    },
    {
      "midi": 67,
      "hit": false,
      "t": 56223.71999999999,
      "d": 316.8703125000029,
      "v": 85
    },
    {
      "midi": 58,
      "hit": false,
      "t": 56503.43999999999,
      "d": 139.86000000000058,
      "v": 59
    },
    {
      "midi": 62,
      "hit": false,
      "t": 56643.29999999999,
      "d": 303.7584375000006,
      "v": 93
    },
    {
      "midi": 67,
      "hit": false,
      "t": 56643.29999999999,
      "d": 356.2059375000026,
      "v": 85
    },
    {
      "midi": 60,
      "hit": false,
      "t": 56923.01999999999,
      "d": 98.33906250000291,
      "v": 93
    },
    {
      "midi": 55,
      "hit": false,
      "t": 57062.87999999999,
      "d": 1787.585625000007,
      "v": 85
    },
    {
      "midi": 74,
      "hit": false,
      "t": 57482.45999999999,
      "d": 85.22718750000058,
      "v": 59
    },
    {
      "midi": 71,
      "hit": false,
      "t": 57482.45999999999,
      "d": 102.70968749999884,
      "v": 59
    },
    {
      "midi": 67,
      "hit": false,
      "t": 57482.45999999999,
      "d": 126.74812499999825,
      "v": 64
    },
    {
      "midi": 62,
      "hit": false,
      "t": 57482.45999999999,
      "d": 131.11875000000146,
      "v": 85
    },
    {
      "midi": 71,
      "hit": false,
      "t": 58181.759999999995,
      "d": 83.04187499999534,
      "v": 98
    },
    {
      "midi": 74,
      "hit": false,
      "t": 58181.759999999995,
      "d": 87.41249999999854,
      "v": 89
    },
    {
      "midi": 65,
      "hit": false,
      "t": 58181.759999999995,
      "d": 91.78312500000175,
      "v": 85
    },
    {
      "midi": 62,
      "hit": false,
      "t": 58601.34,
      "d": 128.9334375000035,
      "v": 93
    },
    {
      "midi": 65,
      "hit": false,
      "t": 58741.2,
      "d": 137.67468750000262,
      "v": 72
    },
    {
      "midi": 74,
      "hit": false,
      "t": 58741.2,
      "d": 262.2375000000029,
      "v": 76
    },
    {
      "midi": 71,
      "hit": false,
      "t": 58741.2,
      "d": 281.9053124999991,
      "v": 89
    },
    {
      "midi": 65,
      "hit": false,
      "t": 59020.92,
      "d": 155.15718750000087,
      "v": 64
    },
    {
      "midi": 71,
      "hit": false,
      "t": 59160.78,
      "d": 113.6362500000032,
      "v": 80
    },
    {
      "midi": 50,
      "hit": false,
      "t": 59440.5,
      "d": 96.15374999999767,
      "v": 93
    },
    {
      "midi": 43,
      "hit": false,
      "t": 59580.36,
      "d": 480.7687500000029,
      "v": 93
    },
    {
      "midi": 50,
      "hit": false,
      "t": 59860.08,
      "d": 222.9018750000032,
      "v": 93
    },
    {
      "midi": 62,
      "hit": false,
      "t": 59999.94,
      "d": 408.65343750000466,
      "v": 102
    },
    {
      "midi": 57,
      "hit": false,
      "t": 60279.66,
      "d": 113.6362500000032,
      "v": 93
    },
    {
      "midi": 48,
      "hit": false,
      "t": 60419.520000000004,
      "d": 3129.3675000000076,
      "v": 93
    },
    {
      "midi": 59,
      "hit": false,
      "t": 60839.100000000006,
      "d": 122.37750000000233,
      "v": 60
    },
    {
      "midi": 64,
      "hit": false,
      "t": 60839.100000000006,
      "d": 152.9718750000029,
      "v": 85
    },
    {
      "midi": 67,
      "hit": false,
      "t": 60839.100000000006,
      "d": 157.3425000000061,
      "v": 80
    },
    {
      "midi": 55,
      "hit": false,
      "t": 61118.820000000014,
      "d": 126.74812499999825,
      "v": 72
    },
    {
      "midi": 64,
      "hit": false,
      "t": 61258.680000000015,
      "d": 139.86000000000058,
      "v": 85
    },
    {
      "midi": 67,
      "hit": false,
      "t": 61258.680000000015,
      "d": 155.15718750000087,
      "v": 80
    },
    {
      "midi": 60,
      "hit": false,
      "t": 61258.680000000015,
      "d": 157.34249999999884,
      "v": 72
    },
    {
      "midi": 55,
      "hit": false,
      "t": 61538.400000000016,
      "d": 137.67468750000262,
      "v": 93
    },
    {
      "midi": 66,
      "hit": false,
      "t": 61678.26000000002,
      "d": 28.40906250000262,
      "v": 41
    },
    {
      "midi": 58,
      "hit": false,
      "t": 61678.26000000002,
      "d": 113.6362500000032,
      "v": 64
    },
    {
      "midi": 62,
      "hit": false,
      "t": 61957.98000000002,
      "d": 163.8984375,
      "v": 98
    },
    {
      "midi": 58,
      "hit": false,
      "t": 61957.98000000002,
      "d": 166.08374999999796,
      "v": 85
    },
    {
      "midi": 62,
      "hit": false,
      "t": 62377.56000000001,
      "d": 87.41249999999854,
      "v": 98
    },
    {
      "midi": 67,
      "hit": false,
      "t": 62377.56000000001,
      "d": 100.52437500000087,
      "v": 98
    },
    {
      "midi": 58,
      "hit": false,
      "t": 62377.56000000001,
      "d": 104.89500000000407,
      "v": 89
    },
    {
      "midi": 55,
      "hit": false,
      "t": 62517.42000000001,
      "d": 93.96843749999971,
      "v": 51
    },
    {
      "midi": 62,
      "hit": false,
      "t": 62797.140000000014,
      "d": 59.0034375000032,
      "v": 89
    },
    {
      "midi": 58,
      "hit": false,
      "t": 62797.140000000014,
      "d": 72.11531250000553,
      "v": 72
    },
    {
      "midi": 67,
      "hit": false,
      "t": 62797.140000000014,
      "d": 113.6362500000032,
      "v": 89
    },
    {
      "midi": 55,
      "hit": false,
      "t": 62937.000000000015,
      "d": 279.72000000000116,
      "v": 102
    },
    {
      "midi": 60,
      "hit": false,
      "t": 63216.720000000016,
      "d": 198.8634374999965,
      "v": 80
    },
    {
      "midi": 67,
      "hit": false,
      "t": 63216.720000000016,
      "d": 391.1709374999991,
      "v": 85
    },
    {
      "midi": 64,
      "hit": false,
      "t": 63216.720000000016,
      "d": 399.91218749999825,
      "v": 89
    },
    {
      "midi": 55,
      "hit": false,
      "t": 63356.580000000016,
      "d": 174.8249999999971,
      "v": 93
    },
    {
      "midi": 60,
      "hit": false,
      "t": 63636.30000000002,
      "d": 104.8949999999968,
      "v": 80
    },
    {
      "midi": 50,
      "hit": false,
      "t": 63776.16000000001,
      "d": 594.4049999999988,
      "v": 102
    },
    {
      "midi": 50,
      "hit": false,
      "t": 64475.46000000001,
      "d": 133.30406249999942,
      "v": 76
    },
    {
      "midi": 66,
      "hit": false,
      "t": 64615.32000000001,
      "d": 155.15718750000087,
      "v": 85
    },
    {
      "midi": 60,
      "hit": false,
      "t": 64615.32000000001,
      "d": 157.34249999999884,
      "v": 85
    },
    {
      "midi": 69,
      "hit": false,
      "t": 64895.04,
      "d": 80.85656249999738,
      "v": 93
    },
    {
      "midi": 66,
      "hit": false,
      "t": 64895.04,
      "d": 98.33906249999563,
      "v": 102
    },
    {
      "midi": 60,
      "hit": false,
      "t": 64895.04,
      "d": 104.8949999999968,
      "v": 93
    },
    {
      "midi": 69,
      "hit": false,
      "t": 65314.619999999995,
      "d": 378.0590625000041,
      "v": 98
    },
    {
      "midi": 66,
      "hit": false,
      "t": 65314.619999999995,
      "d": 393.3562499999971,
      "v": 93
    },
    {
      "midi": 60,
      "hit": false,
      "t": 65314.619999999995,
      "d": 402.0975000000035,
      "v": 89
    },
    {
      "midi": 50,
      "hit": false,
      "t": 65734.2,
      "d": 111.45093750000524,
      "v": 93
    },
    {
      "midi": 69,
      "hit": false,
      "t": 65874.06,
      "d": 128.9334375000035,
      "v": 89
    },
    {
      "midi": 60,
      "hit": false,
      "t": 65874.06,
      "d": 168.26906250001048,
      "v": 85
    },
    {
      "midi": 66,
      "hit": false,
      "t": 65874.06,
      "d": 174.82500000001164,
      "v": 89
    },
    {
      "midi": 50,
      "hit": false,
      "t": 66153.78000000001,
      "d": 122.37750000000233,
      "v": 93
    },
    {
      "midi": 69,
      "hit": false,
      "t": 66293.64000000001,
      "d": 198.8634374999965,
      "v": 98
    },
    {
      "midi": 66,
      "hit": false,
      "t": 66293.64000000001,
      "d": 211.97531249999884,
      "v": 93
    },
    {
      "midi": 64,
      "hit": false,
      "t": 66293.64000000001,
      "d": 214.16062500000407,
      "v": 98
    },
    {
      "midi": 50,
      "hit": false,
      "t": 66573.36000000002,
      "d": 118.00687499999185,
      "v": 102
    },
    {
      "midi": 66,
      "hit": false,
      "t": 66713.22,
      "d": 120.19218749999709,
      "v": 89
    },
    {
      "midi": 69,
      "hit": false,
      "t": 66713.22,
      "d": 131.11874999999418,
      "v": 93
    },
    {
      "midi": 62,
      "hit": false,
      "t": 66713.22,
      "d": 133.30406249999942,
      "v": 98
    },
    {
      "midi": 60,
      "hit": false,
      "t": 67132.8,
      "d": 375.87374999999884,
      "v": 85
    },
    {
      "midi": 36,
      "hit": false,
      "t": 67132.8,
      "d": 408.65343750000466,
      "v": 89
    },
    {
      "midi": 64,
      "hit": false,
      "t": 67132.8,
      "d": 850.0865625000006,
      "v": 85
    },
    {
      "midi": 67,
      "hit": false,
      "t": 67132.8,
      "d": 1040.2087499999907,
      "v": 89
    },
    {
      "midi": 60,
      "hit": false,
      "t": 67552.38,
      "d": 270.97874999999476,
      "v": 68
    },
    {
      "midi": 60,
      "hit": false,
      "t": 67971.96,
      "d": 190.1221874999901,
      "v": 48
    },
    {
      "midi": 48,
      "hit": false,
      "t": 68251.68,
      "d": 89.59781249999651,
      "v": 80
    },
    {
      "midi": 67,
      "hit": false,
      "t": 68391.54,
      "d": 229.4578124999971,
      "v": 102
    },
    {
      "midi": 62,
      "hit": false,
      "t": 68391.54,
      "d": 253.4962499999965,
      "v": 107
    },
    {
      "midi": 58,
      "hit": false,
      "t": 68671.26,
      "d": 384.61500000000524,
      "v": 113
    },
    {
      "midi": 60,
      "hit": false,
      "t": 69090.84,
      "d": 104.89500000000407,
      "v": 85
    },
    {
      "midi": 64,
      "hit": false,
      "t": 69090.84,
      "d": 104.89500000000407,
      "v": 98
    },
    {
      "midi": 67,
      "hit": false,
      "t": 69090.84,
      "d": 122.37750000000233,
      "v": 93
    },
    {
      "midi": 58,
      "hit": false,
      "t": 69510.42,
      "d": 148.60125000000698,
      "v": 72
    },
    {
      "midi": 64,
      "hit": false,
      "t": 69650.28,
      "d": 301.57312499999534,
      "v": 89
    },
    {
      "midi": 60,
      "hit": false,
      "t": 69650.28,
      "d": 312.49968749999243,
      "v": 80
    },
    {
      "midi": 67,
      "hit": false,
      "t": 69650.28,
      "d": 316.87031249998836,
      "v": 85
    },
    {
      "midi": 58,
      "hit": false,
      "t": 69930,
      "d": 139.85999999998603,
      "v": 59
    },
    {
      "midi": 62,
      "hit": false,
      "t": 70069.85999999999,
      "d": 303.7584375000006,
      "v": 93
    },
    {
      "midi": 67,
      "hit": false,
      "t": 70069.85999999999,
      "d": 356.2059375000099,
      "v": 85
    },
    {
      "midi": 60,
      "hit": false,
      "t": 70349.57999999999,
      "d": 98.33906250000291,
      "v": 93
    },
    {
      "midi": 43,
      "hit": false,
      "t": 70489.43999999999,
      "d": 185.75156249999418,
      "v": 107
    },
    {
      "midi": 50,
      "hit": false,
      "t": 70489.43999999999,
      "d": 198.8634374999965,
      "v": 98
    },
    {
      "midi": 59,
      "hit": false,
      "t": 70489.43999999999,
      "d": 205.41937499999767,
      "v": 107
    },
    {
      "midi": 55,
      "hit": false,
      "t": 70489.43999999999,
      "d": 207.6046875000029,
      "v": 93
    },
    {
      "midi": 62,
      "hit": false,
      "t": 70489.43999999999,
      "d": 211.97531249999884,
      "v": 107
    },
    {
      "midi": 57,
      "hit": false,
      "t": 72167.75999999998,
      "d": 209.7899999999936,
      "v": 98
    },
    {
      "midi": 62,
      "hit": false,
      "t": 72167.75999999998,
      "d": 216.34593749999476,
      "v": 119
    },
    {
      "midi": 50,
      "hit": false,
      "t": 72167.75999999998,
      "d": 218.53125,
      "v": 107
    },
    {
      "midi": 57,
      "hit": false,
      "t": 72587.33999999998,
      "d": 190.12218750000466,
      "v": 98
    },
    {
      "midi": 50,
      "hit": false,
      "t": 72587.33999999998,
      "d": 209.79000000000815,
      "v": 107
    },
    {
      "midi": 62,
      "hit": false,
      "t": 72587.33999999998,
      "d": 209.79000000000815,
      "v": 119
    },
    {
      "midi": 55,
      "hit": false,
      "t": 73426.49999999999,
      "d": 893.7928125000035,
      "v": 98
    },
    {
      "midi": 62,
      "hit": false,
      "t": 73426.49999999999,
      "d": 1005.2437500000087,
      "v": 107
    },
    {
      "midi": 67,
      "hit": false,
      "t": 73426.49999999999,
      "d": 1070.8031250000058,
      "v": 107
    },
    {
      "midi": 43,
      "hit": false,
      "t": 73426.49999999999,
      "d": 1271.8518750000076,
      "v": 102
    },
    {
      "midi": 77,
      "hit": false,
      "t": 76378.85718749999,
      "d": 63.3740625000064,
      "v": 127
    },
    {
      "midi": 74,
      "hit": false,
      "t": 76477.19625,
      "d": 69.92999999999302,
      "v": 89
    },
    {
      "midi": 77,
      "hit": false,
      "t": 76573.34999999999,
      "d": 54.6328125,
      "v": 85
    },
    {
      "midi": 74,
      "hit": false,
      "t": 76654.2065625,
      "d": 59.003437499995925,
      "v": 72
    },
    {
      "midi": 77,
      "hit": false,
      "t": 76732.8778125,
      "d": 54.6328125,
      "v": 76
    },
    {
      "midi": 74,
      "hit": false,
      "t": 76802.80781249999,
      "d": 59.003437499995925,
      "v": 72
    },
    {
      "midi": 77,
      "hit": false,
      "t": 76894.59093749999,
      "d": 45.8915624999936,
      "v": 76
    },
    {
      "midi": 74,
      "hit": false,
      "t": 76951.40906249998,
      "d": 67.74468750000233,
      "v": 80
    },
    {
      "midi": 77,
      "hit": false,
      "t": 77065.04531249998,
      "d": 32.77968750000582,
      "v": 59
    },
    {
      "midi": 74,
      "hit": false,
      "t": 77106.56624999999,
      "d": 61.188750000001164,
      "v": 64
    },
    {
      "midi": 77,
      "hit": false,
      "t": 77202.71999999999,
      "d": 50.262187500004075,
      "v": 76
    },
    {
      "midi": 74,
      "hit": false,
      "t": 77252.98218749999,
      "d": 72.11531249999825,
      "v": 76
    },
    {
      "midi": 77,
      "hit": false,
      "t": 77355.69187499999,
      "d": 45.8915624999936,
      "v": 72
    },
    {
      "midi": 74,
      "hit": false,
      "t": 77419.06593749998,
      "d": 63.3740625000064,
      "v": 72
    },
    {
      "midi": 77,
      "hit": false,
      "t": 77502.10781249999,
      "d": 39.335625000006985,
      "v": 68
    },
    {
      "midi": 74,
      "hit": false,
      "t": 77574.223125,
      "d": 67.74468750000233,
      "v": 72
    },
    {
      "midi": 77,
      "hit": false,
      "t": 77648.52375000001,
      "d": 37.150312500001746,
      "v": 62
    },
    {
      "midi": 74,
      "hit": false,
      "t": 77729.38031250001,
      "d": 67.74468750000233,
      "v": 72
    },
    {
      "midi": 77,
      "hit": false,
      "t": 77786.19843750002,
      "d": 45.8915624999936,
      "v": 68
    },
    {
      "midi": 74,
      "hit": false,
      "t": 77877.9815625,
      "d": 54.6328125,
      "v": 62
    },
    {
      "midi": 77,
      "hit": false,
      "t": 77926.0584375,
      "d": 39.335625000006985,
      "v": 72
    },
    {
      "midi": 74,
      "hit": false,
      "t": 78013.47093750001,
      "d": 72.11531249999825,
      "v": 72
    },
    {
      "midi": 77,
      "hit": false,
      "t": 78050.62125000001,
      "d": 61.188750000001164,
      "v": 98
    },
    {
      "midi": 93,
      "hit": false,
      "t": 78902.89312500002,
      "d": 48.076874999998836,
      "v": 85
    },
    {
      "midi": 91,
      "hit": false,
      "t": 78920.37562500002,
      "d": 74.30062499998894,
      "v": 98
    },
    {
      "midi": 89,
      "hit": false,
      "t": 78946.59937500002,
      "d": 93.96843749997788,
      "v": 93
    },
    {
      "midi": 88,
      "hit": false,
      "t": 78979.37906250001,
      "d": 111.45093749999069,
      "v": 68
    },
    {
      "midi": 86,
      "hit": false,
      "t": 79029.64125,
      "d": 109.265625,
      "v": 46
    },
    {
      "midi": 84,
      "hit": false,
      "t": 79084.2740625,
      "d": 98.33906250000291,
      "v": 53
    },
    {
      "midi": 83,
      "hit": false,
      "t": 79132.3509375,
      "d": 89.59781250001106,
      "v": 72
    },
    {
      "midi": 81,
      "hit": false,
      "t": 79171.6865625,
      "d": 89.59781250001106,
      "v": 89
    },
    {
      "midi": 79,
      "hit": false,
      "t": 79211.02218750001,
      "d": 89.59781249999651,
      "v": 85
    },
    {
      "midi": 77,
      "hit": false,
      "t": 79248.17250000002,
      "d": 93.96843749999243,
      "v": 80
    },
    {
      "midi": 76,
      "hit": false,
      "t": 79289.69343750001,
      "d": 91.7831249999872,
      "v": 68
    },
    {
      "midi": 74,
      "hit": false,
      "t": 79331.21437500001,
      "d": 93.96843749999243,
      "v": 72
    },
    {
      "midi": 72,
      "hit": false,
      "t": 79377.1059375,
      "d": 93.96843750000698,
      "v": 64
    },
    {
      "midi": 71,
      "hit": false,
      "t": 79418.626875,
      "d": 91.78312500000175,
      "v": 62
    },
    {
      "midi": 69,
      "hit": false,
      "t": 79457.96250000001,
      "d": 91.78312500000175,
      "v": 64
    },
    {
      "midi": 67,
      "hit": false,
      "t": 79495.11281250001,
      "d": 91.7831249999872,
      "v": 62
    },
    {
      "midi": 65,
      "hit": false,
      "t": 79536.63375000001,
      "d": 78.67124999998487,
      "v": 57
    },
    {
      "midi": 64,
      "hit": false,
      "t": 79571.59875,
      "d": 56.81812499999069,
      "v": 53
    },
    {
      "midi": 62,
      "hit": false,
      "t": 79597.8225,
      "d": 45.8915624999936,
      "v": 57
    },
    {
      "midi": 60,
      "hit": false,
      "t": 79624.04625,
      "d": 26.223749999990105,
      "v": 80
    },
    {
      "midi": 43,
      "hit": false,
      "t": 79720.19999999998,
      "d": 3033.21375000001,
      "v": 98
    },
    {
      "midi": 55,
      "hit": false,
      "t": 80139.77999999998,
      "d": 236.01374999999825,
      "v": 80
    },
    {
      "midi": 59,
      "hit": false,
      "t": 80139.77999999998,
      "d": 238.1990625000035,
      "v": 89
    },
    {
      "midi": 62,
      "hit": false,
      "t": 80139.77999999998,
      "d": 244.75500000000466,
      "v": 85
    },
    {
      "midi": 55,
      "hit": false,
      "t": 80559.35999999999,
      "d": 142.04531250000582,
      "v": 55
    },
    {
      "midi": 50,
      "hit": false,
      "t": 80839.07999999999,
      "d": 93.96843750000698,
      "v": 89
    },
    {
      "midi": 55,
      "hit": false,
      "t": 80978.93999999999,
      "d": 493.8806249999907,
      "v": 89
    },
    {
      "midi": 59,
      "hit": false,
      "t": 80978.93999999999,
      "d": 548.5134374999907,
      "v": 98
    },
    {
      "midi": 62,
      "hit": false,
      "t": 80978.93999999999,
      "d": 557.2546874999971,
      "v": 89
    },
    {
      "midi": 50,
      "hit": false,
      "t": 81398.51999999999,
      "d": 104.89499999998952,
      "v": 93
    },
    {
      "midi": 53,
      "hit": false,
      "t": 81818.09999999999,
      "d": 78.67124999999942,
      "v": 60
    },
    {
      "midi": 59,
      "hit": false,
      "t": 81818.09999999999,
      "d": 100.5243749999936,
      "v": 93
    },
    {
      "midi": 62,
      "hit": false,
      "t": 81818.09999999999,
      "d": 122.37749999998778,
      "v": 89
    },
    {
      "midi": 50,
      "hit": false,
      "t": 82097.81999999998,
      "d": 113.63625000001048,
      "v": 98
    },
    {
      "midi": 59,
      "hit": false,
      "t": 82517.4,
      "d": 76.48593749999418,
      "v": 107
    },
    {
      "midi": 55,
      "hit": false,
      "t": 82517.4,
      "d": 78.67124999999942,
      "v": 93
    },
    {
      "midi": 62,
      "hit": false,
      "t": 82517.4,
      "d": 91.78312500000175,
      "v": 102
    },
    {
      "midi": 50,
      "hit": false,
      "t": 82657.26,
      "d": 115.82156250000116,
      "v": 89
    },
    {
      "midi": 43,
      "hit": false,
      "t": 82936.98,
      "d": 3092.217187500006,
      "v": 102
    },
    {
      "midi": 53,
      "hit": false,
      "t": 83076.84,
      "d": 314.6849999999977,
      "v": 80
    },
    {
      "midi": 59,
      "hit": false,
      "t": 83076.84,
      "d": 371.5031250000029,
      "v": 80
    },
    {
      "midi": 62,
      "hit": false,
      "t": 83076.84,
      "d": 373.68843750000815,
      "v": 72
    },
    {
      "midi": 50,
      "hit": false,
      "t": 83496.42,
      "d": 214.16062500000407,
      "v": 89
    },
    {
      "midi": 59,
      "hit": false,
      "t": 83776.14,
      "d": 87.41250000000582,
      "v": 93
    },
    {
      "midi": 55,
      "hit": false,
      "t": 83776.14,
      "d": 96.15375000001222,
      "v": 85
    },
    {
      "midi": 62,
      "hit": false,
      "t": 83776.14,
      "d": 102.70968750001339,
      "v": 98
    },
    {
      "midi": 50,
      "hit": false,
      "t": 84195.72000000002,
      "d": 113.63624999999593,
      "v": 76
    },
    {
      "midi": 62,
      "hit": false,
      "t": 84335.58000000002,
      "d": 26.223750000004657,
      "v": 46
    },
    {
      "midi": 55,
      "hit": false,
      "t": 84335.58000000002,
      "d": 157.34249999999884,
      "v": 93
    },
    {
      "midi": 55,
      "hit": false,
      "t": 84755.16000000002,
      "d": 279.72000000000116,
      "v": 72
    },
    {
      "midi": 50,
      "hit": false,
      "t": 85034.88000000002,
      "d": 124.56281249999302,
      "v": 89
    },
    {
      "midi": 62,
      "hit": false,
      "t": 85174.74,
      "d": 113.63624999999593,
      "v": 93
    },
    {
      "midi": 59,
      "hit": false,
      "t": 85174.74,
      "d": 120.19218749999709,
      "v": 93
    },
    {
      "midi": 62,
      "hit": false,
      "t": 85454.46,
      "d": 220.71656250000524,
      "v": 98
    },
    {
      "midi": 59,
      "hit": false,
      "t": 85454.46,
      "d": 251.31093750000582,
      "v": 102
    },
    {
      "midi": 55,
      "hit": false,
      "t": 85454.46,
      "d": 295.01718750000873,
      "v": 89
    },
    {
      "midi": 50,
      "hit": false,
      "t": 85874.04000000001,
      "d": 187.93687499999942,
      "v": 93
    },
    {
      "midi": 55,
      "hit": false,
      "t": 86013.90000000001,
      "d": 179.19562499999302,
      "v": 98
    },
    {
      "midi": 59,
      "hit": false,
      "t": 86293.62,
      "d": 96.15374999999767,
      "v": 76
    },
    {
      "midi": 55,
      "hit": false,
      "t": 86433.48,
      "d": 670.8909375000076,
      "v": 93
    },
    {
      "midi": 48,
      "hit": false,
      "t": 86433.48,
      "d": 2910.8362499999785,
      "v": 93
    },
    {
      "midi": 58,
      "hit": false,
      "t": 86853.06,
      "d": 159.52781250000407,
      "v": 107
    },
    {
      "midi": 55,
      "hit": false,
      "t": 87552.36,
      "d": 113.63624999999593,
      "v": 98
    },
    {
      "midi": 58,
      "hit": false,
      "t": 87692.22,
      "d": 113.63624999999593,
      "v": 107
    },
    {
      "midi": 55,
      "hit": false,
      "t": 87971.94,
      "d": 133.30406249999942,
      "v": 98
    },
    {
      "midi": 60,
      "hit": false,
      "t": 88111.8,
      "d": 131.11874999999418,
      "v": 89
    },
    {
      "midi": 60,
      "hit": false,
      "t": 88391.52,
      "d": 104.89499999998952,
      "v": 98
    },
    {
      "midi": 55,
      "hit": false,
      "t": 88531.37999999999,
      "d": 135.48937500000466,
      "v": 98
    },
    {
      "midi": 58,
      "hit": false,
      "t": 88811.09999999999,
      "d": 391.17093749999185,
      "v": 113
    },
    {
      "midi": 55,
      "hit": false,
      "t": 89230.67999999998,
      "d": 96.15374999999767,
      "v": 98
    },
    {
      "midi": 58,
      "hit": false,
      "t": 89370.53999999998,
      "d": 150.78656249999767,
      "v": 102
    },
    {
      "midi": 55,
      "hit": false,
      "t": 89650.25999999998,
      "d": 133.30406249999942,
      "v": 89
    },
    {
      "midi": 55,
      "hit": false,
      "t": 89790.11999999998,
      "d": 2390.731875000012,
      "v": 72
    },
    {
      "midi": 62,
      "hit": false,
      "t": 89790.11999999998,
      "d": 2432.25281250001,
      "v": 85
    },
    {
      "midi": 50,
      "hit": false,
      "t": 89790.11999999998,
      "d": 2445.364687500012,
      "v": 76
    },
    {
      "midi": 67,
      "hit": false,
      "t": 89790.11999999998,
      "d": 2460.6618750000052,
      "v": 68
    },
    {
      "midi": 43,
      "hit": false,
      "t": 89790.11999999998,
      "d": 2534.9625000000087,
      "v": 80
    },
    {
      "midi": 96,
      "hit": false,
      "t": 92316.34124999998,
      "d": 113.63625000001048,
      "v": 76
    },
    {
      "midi": 95,
      "hit": false,
      "t": 92368.78874999999,
      "d": 120.19218749999709,
      "v": 62
    },
    {
      "midi": 93,
      "hit": false,
      "t": 92421.23624999999,
      "d": 115.82156250000116,
      "v": 59
    },
    {
      "midi": 91,
      "hit": false,
      "t": 92478.05437499999,
      "d": 107.08031250000931,
      "v": 64
    },
    {
      "midi": 89,
      "hit": false,
      "t": 92530.50187499999,
      "d": 100.5243750000227,
      "v": 64
    },
    {
      "midi": 88,
      "hit": false,
      "t": 92576.3934375,
      "d": 96.15375000001222,
      "v": 80
    },
    {
      "midi": 86,
      "hit": false,
      "t": 92622.285,
      "d": 89.59781250001106,
      "v": 93
    },
    {
      "midi": 84,
      "hit": false,
      "t": 92665.99125,
      "d": 87.41250000002037,
      "v": 85
    },
    {
      "midi": 83,
      "hit": false,
      "t": 92705.32687500001,
      "d": 89.59781250001106,
      "v": 89
    },
    {
      "midi": 81,
      "hit": false,
      "t": 92744.66250000002,
      "d": 89.59781249999651,
      "v": 89
    },
    {
      "midi": 79,
      "hit": false,
      "t": 92781.81281250002,
      "d": 91.78312500000175,
      "v": 93
    },
    {
      "midi": 77,
      "hit": false,
      "t": 92823.33375000002,
      "d": 89.59781250001106,
      "v": 89
    },
    {
      "midi": 76,
      "hit": false,
      "t": 92867.04000000002,
      "d": 87.41250000000582,
      "v": 80
    },
    {
      "midi": 74,
      "hit": false,
      "t": 92912.93156250003,
      "d": 85.22718750000058,
      "v": 80
    },
    {
      "midi": 72,
      "hit": false,
      "t": 92963.19375000003,
      "d": 85.22718750000058,
      "v": 64
    },
    {
      "midi": 71,
      "hit": false,
      "t": 93006.90000000004,
      "d": 69.92999999999302,
      "v": 64
    },
    {
      "midi": 69,
      "hit": false,
      "t": 93041.86500000003,
      "d": 63.37406249999185,
      "v": 93
    },
    {
      "midi": 67,
      "hit": false,
      "t": 93076.83000000003,
      "d": 54.63281249998545,
      "v": 98
    },
    {
      "midi": 65,
      "hit": false,
      "t": 93109.60968750002,
      "d": 24.038437499999418,
      "v": 89
    },
    {
      "midi": 64,
      "hit": false,
      "t": 93138.01875000002,
      "d": 26.223750000004657,
      "v": 85
    },
    {
      "midi": 50,
      "hit": false,
      "t": 93146.76000000002,
      "d": 1271.8518750000076,
      "v": 113
    },
    {
      "midi": 62,
      "hit": false,
      "t": 93566.34000000003,
      "d": 703.6706249999988,
      "v": 93
    },
    {
      "midi": 54,
      "hit": false,
      "t": 93566.34000000003,
      "d": 710.2265625,
      "v": 85
    },
    {
      "midi": 57,
      "hit": false,
      "t": 93566.34000000003,
      "d": 753.9328125000029,
      "v": 93
    },
    {
      "midi": 62,
      "hit": false,
      "t": 94405.50000000003,
      "d": 159.52781250000407,
      "v": 93
    },
    {
      "midi": 54,
      "hit": false,
      "t": 94405.50000000003,
      "d": 172.6396875000064,
      "v": 64
    },
    {
      "midi": 57,
      "hit": false,
      "t": 94405.50000000003,
      "d": 187.93687499999942,
      "v": 93
    },
    {
      "midi": 50,
      "hit": false,
      "t": 94685.22000000003,
      "d": 96.15374999999767,
      "v": 102
    },
    {
      "midi": 54,
      "hit": false,
      "t": 94825.08000000003,
      "d": 104.89500000000407,
      "v": 80
    },
    {
      "midi": 55,
      "hit": false,
      "t": 94825.08000000003,
      "d": 104.89500000000407,
      "v": 72
    },
    {
      "midi": 50,
      "hit": false,
      "t": 95104.80000000003,
      "d": 107.08031249999476,
      "v": 102
    },
    {
      "midi": 62,
      "hit": false,
      "t": 95244.66000000003,
      "d": 104.89500000000407,
      "v": 89
    },
    {
      "midi": 57,
      "hit": false,
      "t": 95244.66000000003,
      "d": 139.86000000000058,
      "v": 93
    },
    {
      "midi": 62,
      "hit": false,
      "t": 95524.38000000003,
      "d": 139.86000000000058,
      "v": 98
    },
    {
      "midi": 57,
      "hit": false,
      "t": 95524.38000000003,
      "d": 152.9718750000029,
      "v": 107
    },
    {
      "midi": 50,
      "hit": false,
      "t": 95943.96000000004,
      "d": 93.96843750000698,
      "v": 102
    },
    {
      "midi": 62,
      "hit": false,
      "t": 96083.82000000004,
      "d": 205.41937499999767,
      "v": 98
    },
    {
      "midi": 57,
      "hit": false,
      "t": 96083.82000000004,
      "d": 305.9437500000058,
      "v": 93
    },
    {
      "midi": 54,
      "hit": false,
      "t": 96363.54000000004,
      "d": 93.96843750000698,
      "v": 89
    },
    {
      "midi": 50,
      "hit": false,
      "t": 96503.40000000004,
      "d": 174.8249999999971,
      "v": 113
    },
    {
      "midi": 43,
      "hit": false,
      "t": 96503.40000000004,
      "d": 183.5662500000035,
      "v": 119
    },
    {
      "midi": 67,
      "hit": false,
      "t": 98601.30000000005,
      "d": 152.9718750000029,
      "v": 113
    },
    {
      "midi": 55,
      "hit": false,
      "t": 98601.30000000005,
      "d": 166.08375000000524,
      "v": 119
    },
    {
      "midi": 58,
      "hit": false,
      "t": 99020.88000000005,
      "d": 227.2725000000064,
      "v": 113
    },
    {
      "midi": 70,
      "hit": false,
      "t": 99020.88000000005,
      "d": 240.38437500000873,
      "v": 107
    },
    {
      "midi": 71,
      "hit": false,
      "t": 99440.46000000005,
      "d": 166.08375000000524,
      "v": 107
    },
    {
      "midi": 59,
      "hit": false,
      "t": 99440.46000000005,
      "d": 168.26906250001048,
      "v": 102
    },
    {
      "midi": 60,
      "hit": false,
      "t": 99860.04000000007,
      "d": 375.87374999999884,
      "v": 85
    },
    {
      "midi": 36,
      "hit": false,
      "t": 99860.04000000007,
      "d": 408.65343750000466,
      "v": 89
    },
    {
      "midi": 64,
      "hit": false,
      "t": 99860.04000000007,
      "d": 850.0865625000006,
      "v": 85
    },
    {
      "midi": 67,
      "hit": false,
      "t": 99860.04000000007,
      "d": 1040.2087499999907,
      "v": 89
    },
    {
      "midi": 60,
      "hit": false,
      "t": 100279.62000000007,
      "d": 270.97874999999476,
      "v": 68
    },
    {
      "midi": 60,
      "hit": false,
      "t": 100699.20000000007,
      "d": 190.1221874999901,
      "v": 48
    },
    {
      "midi": 48,
      "hit": false,
      "t": 100978.92000000006,
      "d": 89.59781249999651,
      "v": 80
    },
    {
      "midi": 67,
      "hit": false,
      "t": 101118.78000000006,
      "d": 229.4578124999971,
      "v": 102
    },
    {
      "midi": 62,
      "hit": false,
      "t": 101118.78000000006,
      "d": 253.4962499999965,
      "v": 107
    },
    {
      "midi": 58,
      "hit": false,
      "t": 101398.50000000006,
      "d": 384.61500000000524,
      "v": 113
    },
    {
      "midi": 60,
      "hit": false,
      "t": 101818.08000000006,
      "d": 104.89500000000407,
      "v": 85
    },
    {
      "midi": 64,
      "hit": false,
      "t": 101818.08000000006,
      "d": 104.89500000000407,
      "v": 98
    },
    {
      "midi": 67,
      "hit": false,
      "t": 101818.08000000006,
      "d": 122.37750000000233,
      "v": 93
    },
    {
      "midi": 58,
      "hit": false,
      "t": 102237.66000000006,
      "d": 148.60125000000698,
      "v": 72
    },
    {
      "midi": 64,
      "hit": false,
      "t": 102377.52000000006,
      "d": 301.57312499999534,
      "v": 89
    },
    {
      "midi": 60,
      "hit": false,
      "t": 102377.52000000006,
      "d": 312.49968749999243,
      "v": 80
    },
    {
      "midi": 67,
      "hit": false,
      "t": 102377.52000000006,
      "d": 316.87031249998836,
      "v": 85
    },
    {
      "midi": 58,
      "hit": false,
      "t": 102657.24000000006,
      "d": 139.85999999998603,
      "v": 59
    },
    {
      "midi": 62,
      "hit": false,
      "t": 102797.10000000005,
      "d": 303.7584375000006,
      "v": 93
    },
    {
      "midi": 67,
      "hit": false,
      "t": 102797.10000000005,
      "d": 356.2059375000099,
      "v": 85
    },
    {
      "midi": 60,
      "hit": false,
      "t": 103076.82000000005,
      "d": 98.33906250000291,
      "v": 93
    },
    {
      "midi": 55,
      "hit": false,
      "t": 103216.68000000005,
      "d": 1787.5856249999779,
      "v": 85
    },
    {
      "midi": 74,
      "hit": false,
      "t": 103636.26000000004,
      "d": 85.22718750000058,
      "v": 59
    },
    {
      "midi": 71,
      "hit": false,
      "t": 103636.26000000004,
      "d": 102.70968749999884,
      "v": 59
    },
    {
      "midi": 67,
      "hit": false,
      "t": 103636.26000000004,
      "d": 126.74812499999825,
      "v": 64
    },
    {
      "midi": 62,
      "hit": false,
      "t": 103636.26000000004,
      "d": 131.11874999999418,
      "v": 85
    },
    {
      "midi": 71,
      "hit": false,
      "t": 104335.56000000003,
      "d": 83.0418750000099,
      "v": 98
    },
    {
      "midi": 74,
      "hit": false,
      "t": 104335.56000000003,
      "d": 87.41250000000582,
      "v": 89
    },
    {
      "midi": 65,
      "hit": false,
      "t": 104335.56000000003,
      "d": 91.78312500000175,
      "v": 85
    },
    {
      "midi": 62,
      "hit": false,
      "t": 104755.14000000003,
      "d": 128.9334375000035,
      "v": 93
    },
    {
      "midi": 65,
      "hit": false,
      "t": 104895.00000000003,
      "d": 137.67468749999534,
      "v": 72
    },
    {
      "midi": 74,
      "hit": false,
      "t": 104895.00000000003,
      "d": 262.23749999998836,
      "v": 76
    },
    {
      "midi": 71,
      "hit": false,
      "t": 104895.00000000003,
      "d": 281.90531249999185,
      "v": 89
    },
    {
      "midi": 65,
      "hit": false,
      "t": 105174.72000000002,
      "d": 155.1571874999936,
      "v": 64
    },
    {
      "midi": 71,
      "hit": false,
      "t": 105314.58000000002,
      "d": 113.63624999999593,
      "v": 80
    },
    {
      "midi": 50,
      "hit": false,
      "t": 105594.30000000002,
      "d": 96.15374999999767,
      "v": 93
    },
    {
      "midi": 43,
      "hit": false,
      "t": 105734.16000000002,
      "d": 480.7687500000029,
      "v": 93
    },
    {
      "midi": 50,
      "hit": false,
      "t": 106013.88000000002,
      "d": 222.90187499999593,
      "v": 93
    },
    {
      "midi": 62,
      "hit": false,
      "t": 106153.74000000002,
      "d": 408.6534374999901,
      "v": 102
    },
    {
      "midi": 57,
      "hit": false,
      "t": 106433.46000000002,
      "d": 113.63624999999593,
      "v": 93
    },
    {
      "midi": 48,
      "hit": false,
      "t": 106573.32,
      "d": 3129.3675000000367,
      "v": 93
    },
    {
      "midi": 59,
      "hit": false,
      "t": 106992.90000000001,
      "d": 122.37750000000233,
      "v": 60
    },
    {
      "midi": 64,
      "hit": false,
      "t": 106992.90000000001,
      "d": 152.9718750000029,
      "v": 85
    },
    {
      "midi": 67,
      "hit": false,
      "t": 106992.90000000001,
      "d": 157.34249999999884,
      "v": 80
    },
    {
      "midi": 55,
      "hit": false,
      "t": 107272.62000000001,
      "d": 126.74812499999825,
      "v": 72
    },
    {
      "midi": 64,
      "hit": false,
      "t": 107412.48000000001,
      "d": 139.86000000000058,
      "v": 85
    },
    {
      "midi": 67,
      "hit": false,
      "t": 107412.48000000001,
      "d": 155.1571874999936,
      "v": 80
    },
    {
      "midi": 60,
      "hit": false,
      "t": 107412.48000000001,
      "d": 157.34249999999884,
      "v": 72
    },
    {
      "midi": 55,
      "hit": false,
      "t": 107692.20000000001,
      "d": 137.6746875000099,
      "v": 93
    },
    {
      "midi": 66,
      "hit": false,
      "t": 107832.06000000003,
      "d": 28.409062499995343,
      "v": 41
    },
    {
      "midi": 58,
      "hit": false,
      "t": 107832.06000000003,
      "d": 113.63624999999593,
      "v": 64
    },
    {
      "midi": 62,
      "hit": false,
      "t": 108111.78000000003,
      "d": 163.8984375,
      "v": 98
    },
    {
      "midi": 58,
      "hit": false,
      "t": 108111.78000000003,
      "d": 166.08375000000524,
      "v": 85
    },
    {
      "midi": 62,
      "hit": false,
      "t": 108531.36000000004,
      "d": 87.41250000000582,
      "v": 98
    },
    {
      "midi": 67,
      "hit": false,
      "t": 108531.36000000004,
      "d": 100.52437500000815,
      "v": 98
    },
    {
      "midi": 58,
      "hit": false,
      "t": 108531.36000000004,
      "d": 104.89500000000407,
      "v": 89
    },
    {
      "midi": 55,
      "hit": false,
      "t": 108671.22000000004,
      "d": 93.96843750000698,
      "v": 51
    },
    {
      "midi": 62,
      "hit": false,
      "t": 108950.94000000005,
      "d": 59.003437499995925,
      "v": 89
    },
    {
      "midi": 58,
      "hit": false,
      "t": 108950.94000000005,
      "d": 72.11531249999825,
      "v": 72
    },
    {
      "midi": 67,
      "hit": false,
      "t": 108950.94000000005,
      "d": 113.63624999999593,
      "v": 89
    },
    {
      "midi": 55,
      "hit": false,
      "t": 109090.80000000005,
      "d": 279.72000000000116,
      "v": 102
    },
    {
      "midi": 60,
      "hit": false,
      "t": 109370.52000000005,
      "d": 198.8634374999965,
      "v": 80
    },
    {
      "midi": 67,
      "hit": false,
      "t": 109370.52000000005,
      "d": 391.17093749999185,
      "v": 85
    },
    {
      "midi": 64,
      "hit": false,
      "t": 109370.52000000005,
      "d": 399.91218749999825,
      "v": 89
    },
    {
      "midi": 55,
      "hit": false,
      "t": 109510.38000000005,
      "d": 174.8249999999971,
      "v": 93
    },
    {
      "midi": 60,
      "hit": false,
      "t": 109790.10000000005,
      "d": 104.89500000000407,
      "v": 80
    },
    {
      "midi": 50,
      "hit": false,
      "t": 109929.96000000005,
      "d": 594.4049999999988,
      "v": 102
    },
    {
      "midi": 50,
      "hit": false,
      "t": 110629.26000000005,
      "d": 133.30406249999942,
      "v": 76
    },
    {
      "midi": 66,
      "hit": false,
      "t": 110769.12000000005,
      "d": 155.1571874999936,
      "v": 85
    },
    {
      "midi": 60,
      "hit": false,
      "t": 110769.12000000005,
      "d": 157.34249999999884,
      "v": 85
    },
    {
      "midi": 69,
      "hit": false,
      "t": 111048.84000000005,
      "d": 80.85656250000466,
      "v": 93
    },
    {
      "midi": 66,
      "hit": false,
      "t": 111048.84000000005,
      "d": 98.33906250000291,
      "v": 102
    },
    {
      "midi": 60,
      "hit": false,
      "t": 111048.84000000005,
      "d": 104.89500000000407,
      "v": 93
    },
    {
      "midi": 69,
      "hit": false,
      "t": 111468.42000000006,
      "d": 378.0590625000041,
      "v": 98
    },
    {
      "midi": 66,
      "hit": false,
      "t": 111468.42000000006,
      "d": 393.3562499999971,
      "v": 93
    },
    {
      "midi": 60,
      "hit": false,
      "t": 111468.42000000006,
      "d": 402.0975000000035,
      "v": 89
    },
    {
      "midi": 50,
      "hit": false,
      "t": 111888.00000000006,
      "d": 111.45093750000524,
      "v": 93
    },
    {
      "midi": 69,
      "hit": false,
      "t": 112027.86000000006,
      "d": 128.9334375000035,
      "v": 89
    },
    {
      "midi": 60,
      "hit": false,
      "t": 112027.86000000006,
      "d": 168.26906250001048,
      "v": 85
    },
    {
      "midi": 66,
      "hit": false,
      "t": 112027.86000000006,
      "d": 174.82500000001164,
      "v": 89
    },
    {
      "midi": 50,
      "hit": false,
      "t": 112307.58000000007,
      "d": 122.37750000000233,
      "v": 93
    },
    {
      "midi": 69,
      "hit": false,
      "t": 112447.44000000008,
      "d": 198.8634374999965,
      "v": 98
    },
    {
      "midi": 66,
      "hit": false,
      "t": 112447.44000000008,
      "d": 211.97531249999884,
      "v": 93
    },
    {
      "midi": 64,
      "hit": false,
      "t": 112447.44000000008,
      "d": 214.16062500000407,
      "v": 98
    },
    {
      "midi": 50,
      "hit": false,
      "t": 112727.16000000008,
      "d": 118.00687499999185,
      "v": 102
    },
    {
      "midi": 66,
      "hit": false,
      "t": 112867.02000000006,
      "d": 120.19218749999709,
      "v": 89
    },
    {
      "midi": 69,
      "hit": false,
      "t": 112867.02000000006,
      "d": 131.11874999999418,
      "v": 93
    },
    {
      "midi": 62,
      "hit": false,
      "t": 112867.02000000006,
      "d": 133.30406249999942,
      "v": 98
    },
    {
      "midi": 60,
      "hit": false,
      "t": 113286.60000000006,
      "d": 375.87374999999884,
      "v": 85
    },
    {
      "midi": 36,
      "hit": false,
      "t": 113286.60000000006,
      "d": 408.65343750000466,
      "v": 89
    },
    {
      "midi": 64,
      "hit": false,
      "t": 113286.60000000006,
      "d": 850.0865625000006,
      "v": 85
    },
    {
      "midi": 67,
      "hit": false,
      "t": 113286.60000000006,
      "d": 1040.2087499999907,
      "v": 89
    },
    {
      "midi": 60,
      "hit": false,
      "t": 113706.18000000007,
      "d": 270.97874999999476,
      "v": 68
    },
    {
      "midi": 60,
      "hit": false,
      "t": 114125.76000000007,
      "d": 190.1221874999901,
      "v": 48
    },
    {
      "midi": 48,
      "hit": false,
      "t": 114405.48000000005,
      "d": 89.59781249999651,
      "v": 80
    },
    {
      "midi": 67,
      "hit": false,
      "t": 114545.34000000005,
      "d": 229.4578124999971,
      "v": 102
    },
    {
      "midi": 62,
      "hit": false,
      "t": 114545.34000000005,
      "d": 253.4962499999965,
      "v": 107
    },
    {
      "midi": 58,
      "hit": false,
      "t": 114825.06000000006,
      "d": 384.61500000000524,
      "v": 113
    },
    {
      "midi": 60,
      "hit": false,
      "t": 115244.64000000006,
      "d": 104.89500000000407,
      "v": 85
    },
    {
      "midi": 64,
      "hit": false,
      "t": 115244.64000000006,
      "d": 104.89500000000407,
      "v": 98
    },
    {
      "midi": 67,
      "hit": false,
      "t": 115244.64000000006,
      "d": 122.37750000000233,
      "v": 93
    },
    {
      "midi": 58,
      "hit": false,
      "t": 115664.22000000006,
      "d": 148.60125000000698,
      "v": 72
    },
    {
      "midi": 64,
      "hit": false,
      "t": 115804.08000000006,
      "d": 301.57312499999534,
      "v": 89
    },
    {
      "midi": 60,
      "hit": false,
      "t": 115804.08000000006,
      "d": 312.49968749999243,
      "v": 80
    },
    {
      "midi": 67,
      "hit": false,
      "t": 115804.08000000006,
      "d": 316.87031249998836,
      "v": 85
    },
    {
      "midi": 58,
      "hit": false,
      "t": 116083.80000000006,
      "d": 139.85999999998603,
      "v": 59
    },
    {
      "midi": 62,
      "hit": false,
      "t": 116223.66000000005,
      "d": 303.7584375000006,
      "v": 93
    },
    {
      "midi": 67,
      "hit": false,
      "t": 116223.66000000005,
      "d": 356.2059375000099,
      "v": 85
    },
    {
      "midi": 60,
      "hit": false,
      "t": 116503.38000000005,
      "d": 98.33906250000291,
      "v": 93
    },
    {
      "midi": 43,
      "hit": false,
      "t": 116643.24000000005,
      "d": 185.75156249999418,
      "v": 107
    },
    {
      "midi": 50,
      "hit": false,
      "t": 116643.24000000005,
      "d": 198.8634374999965,
      "v": 98
    },
    {
      "midi": 59,
      "hit": false,
      "t": 116643.24000000005,
      "d": 205.41937499999767,
      "v": 107
    },
    {
      "midi": 55,
      "hit": false,
      "t": 116643.24000000005,
      "d": 207.6046875000029,
      "v": 93
    },
    {
      "midi": 62,
      "hit": false,
      "t": 116643.24000000005,
      "d": 211.97531249999884,
      "v": 107
    },
    {
      "midi": 57,
      "hit": false,
      "t": 118321.56000000004,
      "d": 209.7899999999936,
      "v": 98
    },
    {
      "midi": 62,
      "hit": false,
      "t": 118321.56000000004,
      "d": 216.34593749999476,
      "v": 119
    },
    {
      "midi": 50,
      "hit": false,
      "t": 118321.56000000004,
      "d": 218.53125,
      "v": 107
    },
    {
      "midi": 57,
      "hit": false,
      "t": 118741.14000000004,
      "d": 190.12218750000466,
      "v": 98
    },
    {
      "midi": 50,
      "hit": false,
      "t": 118741.14000000004,
      "d": 209.79000000000815,
      "v": 107
    },
    {
      "midi": 62,
      "hit": false,
      "t": 118741.14000000004,
      "d": 209.79000000000815,
      "v": 119
    },
    {
      "midi": 43,
      "hit": false,
      "t": 119160.72000000004,
      "d": 3253.930312500015,
      "v": 107
    },
    {
      "midi": 67,
      "hit": false,
      "t": 119580.30000000005,
      "d": 181.38093749999825,
      "v": 98
    },
    {
      "midi": 55,
      "hit": false,
      "t": 119580.30000000005,
      "d": 185.75156249999418,
      "v": 85
    },
    {
      "midi": 62,
      "hit": false,
      "t": 119580.30000000005,
      "d": 187.93687499999942,
      "v": 93
    },
    {
      "midi": 74,
      "hit": false,
      "t": 121538.34000000005,
      "d": 69.92999999999302,
      "v": 72
    },
    {
      "midi": 79,
      "hit": false,
      "t": 121538.34000000005,
      "d": 80.8565624999901,
      "v": 76
    },
    {
      "midi": 67,
      "hit": false,
      "t": 121538.34000000005,
      "d": 96.15374999998312,
      "v": 60
    },
    {
      "midi": 74,
      "hit": false,
      "t": 121957.92000000004,
      "d": 67.74468750000233,
      "v": 93
    },
    {
      "midi": 67,
      "hit": false,
      "t": 121957.92000000004,
      "d": 85.22718750000058,
      "v": 72
    },
    {
      "midi": 79,
      "hit": false,
      "t": 121957.92000000004,
      "d": 96.15375000001222,
      "v": 102
    },
    {
      "midi": 74,
      "hit": false,
      "t": 122377.50000000006,
      "d": 61.188750000001164,
      "v": 93
    },
    {
      "midi": 79,
      "hit": false,
      "t": 122377.50000000006,
      "d": 63.3740625000064,
      "v": 89
    },
    {
      "midi": 67,
      "hit": false,
      "t": 122377.50000000006,
      "d": 76.48593750000873,
      "v": 72
    },
    {
      "midi": 60,
      "hit": false,
      "t": 122517.36000000007,
      "d": 375.87374999999884,
      "v": 85
    },
    {
      "midi": 36,
      "hit": false,
      "t": 122517.36000000007,
      "d": 408.65343750000466,
      "v": 89
    },
    {
      "midi": 64,
      "hit": false,
      "t": 122517.36000000007,
      "d": 850.0865625000006,
      "v": 85
    },
    {
      "midi": 67,
      "hit": false,
      "t": 122517.36000000007,
      "d": 1040.2087499999907,
      "v": 89
    },
    {
      "midi": 60,
      "hit": false,
      "t": 122936.94000000008,
      "d": 270.97874999999476,
      "v": 68
    },
    {
      "midi": 60,
      "hit": false,
      "t": 123356.52000000008,
      "d": 190.1221874999901,
      "v": 48
    },
    {
      "midi": 48,
      "hit": false,
      "t": 123636.24000000006,
      "d": 89.59781249999651,
      "v": 80
    },
    {
      "midi": 67,
      "hit": false,
      "t": 123776.10000000006,
      "d": 229.4578124999971,
      "v": 102
    },
    {
      "midi": 62,
      "hit": false,
      "t": 123776.10000000006,
      "d": 253.4962499999965,
      "v": 107
    },
    {
      "midi": 58,
      "hit": false,
      "t": 124055.82000000007,
      "d": 384.61500000000524,
      "v": 113
    },
    {
      "midi": 60,
      "hit": false,
      "t": 124475.40000000007,
      "d": 104.89500000000407,
      "v": 85
    },
    {
      "midi": 64,
      "hit": false,
      "t": 124475.40000000007,
      "d": 104.89500000000407,
      "v": 98
    },
    {
      "midi": 67,
      "hit": false,
      "t": 124475.40000000007,
      "d": 122.37750000000233,
      "v": 93
    },
    {
      "midi": 58,
      "hit": false,
      "t": 124894.98000000007,
      "d": 148.60125000000698,
      "v": 72
    },
    {
      "midi": 64,
      "hit": false,
      "t": 125034.84000000007,
      "d": 301.57312499999534,
      "v": 89
    },
    {
      "midi": 60,
      "hit": false,
      "t": 125034.84000000007,
      "d": 312.49968749999243,
      "v": 80
    },
    {
      "midi": 67,
      "hit": false,
      "t": 125034.84000000007,
      "d": 316.87031249998836,
      "v": 85
    },
    {
      "midi": 58,
      "hit": false,
      "t": 125314.56000000007,
      "d": 139.85999999998603,
      "v": 59
    },
    {
      "midi": 62,
      "hit": false,
      "t": 125454.42000000006,
      "d": 303.7584375000006,
      "v": 93
    },
    {
      "midi": 67,
      "hit": false,
      "t": 125454.42000000006,
      "d": 356.2059375000099,
      "v": 85
    },
    {
      "midi": 60,
      "hit": false,
      "t": 125734.14000000006,
      "d": 98.33906250000291,
      "v": 93
    },
    {
      "midi": 55,
      "hit": false,
      "t": 125874.00000000006,
      "d": 1787.5856249999779,
      "v": 85
    },
    {
      "midi": 74,
      "hit": false,
      "t": 126293.58000000005,
      "d": 85.22718750000058,
      "v": 59
    },
    {
      "midi": 71,
      "hit": false,
      "t": 126293.58000000005,
      "d": 102.70968749999884,
      "v": 59
    },
    {
      "midi": 67,
      "hit": false,
      "t": 126293.58000000005,
      "d": 126.74812499999825,
      "v": 64
    },
    {
      "midi": 62,
      "hit": false,
      "t": 126293.58000000005,
      "d": 131.11874999999418,
      "v": 85
    },
    {
      "midi": 71,
      "hit": false,
      "t": 126992.88000000003,
      "d": 83.0418750000099,
      "v": 98
    },
    {
      "midi": 74,
      "hit": false,
      "t": 126992.88000000003,
      "d": 87.41250000000582,
      "v": 89
    },
    {
      "midi": 65,
      "hit": false,
      "t": 126992.88000000003,
      "d": 91.78312500000175,
      "v": 85
    },
    {
      "midi": 62,
      "hit": false,
      "t": 127412.46000000004,
      "d": 128.9334375000035,
      "v": 93
    },
    {
      "midi": 65,
      "hit": false,
      "t": 127552.32000000004,
      "d": 137.67468749999534,
      "v": 72
    },
    {
      "midi": 74,
      "hit": false,
      "t": 127552.32000000004,
      "d": 262.23749999998836,
      "v": 76
    },
    {
      "midi": 71,
      "hit": false,
      "t": 127552.32000000004,
      "d": 281.90531249999185,
      "v": 89
    },
    {
      "midi": 65,
      "hit": false,
      "t": 127832.04000000002,
      "d": 155.1571874999936,
      "v": 64
    },
    {
      "midi": 71,
      "hit": false,
      "t": 127971.90000000002,
      "d": 113.63624999999593,
      "v": 80
    },
    {
      "midi": 50,
      "hit": false,
      "t": 128251.62000000002,
      "d": 96.15374999999767,
      "v": 93
    },
    {
      "midi": 43,
      "hit": false,
      "t": 128391.48000000003,
      "d": 480.7687500000029,
      "v": 93
    },
    {
      "midi": 50,
      "hit": false,
      "t": 128671.20000000003,
      "d": 222.90187499999593,
      "v": 93
    },
    {
      "midi": 62,
      "hit": false,
      "t": 128811.06000000003,
      "d": 408.6534374999901,
      "v": 102
    },
    {
      "midi": 57,
      "hit": false,
      "t": 129090.78000000003,
      "d": 113.63624999999593,
      "v": 93
    },
    {
      "midi": 48,
      "hit": false,
      "t": 129230.64000000001,
      "d": 3129.3675000000803,
      "v": 93
    },
    {
      "midi": 59,
      "hit": false,
      "t": 129650.22000000002,
      "d": 122.37750000000233,
      "v": 60
    },
    {
      "midi": 64,
      "hit": false,
      "t": 129650.22000000002,
      "d": 152.9718750000029,
      "v": 85
    },
    {
      "midi": 67,
      "hit": false,
      "t": 129650.22000000002,
      "d": 157.34249999999884,
      "v": 80
    },
    {
      "midi": 55,
      "hit": false,
      "t": 129929.94000000002,
      "d": 126.74812499999825,
      "v": 72
    },
    {
      "midi": 64,
      "hit": false,
      "t": 130069.80000000002,
      "d": 139.86000000000058,
      "v": 85
    },
    {
      "midi": 67,
      "hit": false,
      "t": 130069.80000000002,
      "d": 155.1571874999936,
      "v": 80
    },
    {
      "midi": 60,
      "hit": false,
      "t": 130069.80000000002,
      "d": 157.34249999999884,
      "v": 72
    },
    {
      "midi": 55,
      "hit": false,
      "t": 130349.52000000002,
      "d": 137.6746875000099,
      "v": 93
    },
    {
      "midi": 66,
      "hit": false,
      "t": 130489.38000000003,
      "d": 28.409062499995343,
      "v": 41
    },
    {
      "midi": 58,
      "hit": false,
      "t": 130489.38000000003,
      "d": 113.63624999999593,
      "v": 64
    },
    {
      "midi": 62,
      "hit": false,
      "t": 130769.10000000003,
      "d": 163.8984375,
      "v": 98
    },
    {
      "midi": 58,
      "hit": false,
      "t": 130769.10000000003,
      "d": 166.08375000000524,
      "v": 85
    },
    {
      "midi": 62,
      "hit": false,
      "t": 131188.68000000005,
      "d": 87.41250000000582,
      "v": 98
    },
    {
      "midi": 67,
      "hit": false,
      "t": 131188.68000000005,
      "d": 100.52437500000815,
      "v": 98
    },
    {
      "midi": 58,
      "hit": false,
      "t": 131188.68000000005,
      "d": 104.89500000001863,
      "v": 89
    },
    {
      "midi": 55,
      "hit": false,
      "t": 131328.54000000007,
      "d": 93.96843750000698,
      "v": 51
    },
    {
      "midi": 62,
      "hit": false,
      "t": 131608.26000000007,
      "d": 59.00343750001048,
      "v": 89
    },
    {
      "midi": 58,
      "hit": false,
      "t": 131608.26000000007,
      "d": 72.1153125000128,
      "v": 72
    },
    {
      "midi": 67,
      "hit": false,
      "t": 131608.26000000007,
      "d": 113.63625000001048,
      "v": 89
    },
    {
      "midi": 55,
      "hit": false,
      "t": 131748.12000000008,
      "d": 279.72000000000116,
      "v": 102
    },
    {
      "midi": 60,
      "hit": false,
      "t": 132027.84000000008,
      "d": 198.8634374999965,
      "v": 80
    },
    {
      "midi": 67,
      "hit": false,
      "t": 132027.84000000008,
      "d": 391.17093750002095,
      "v": 85
    },
    {
      "midi": 64,
      "hit": false,
      "t": 132027.84000000008,
      "d": 399.9121875000128,
      "v": 89
    },
    {
      "midi": 55,
      "hit": false,
      "t": 132167.70000000007,
      "d": 174.82500000001164,
      "v": 93
    },
    {
      "midi": 60,
      "hit": false,
      "t": 132447.4200000001,
      "d": 104.89499999998952,
      "v": 80
    },
    {
      "midi": 50,
      "hit": false,
      "t": 132587.2800000001,
      "d": 594.4049999999988,
      "v": 102
    },
    {
      "midi": 50,
      "hit": false,
      "t": 133286.58000000007,
      "d": 133.30406249998487,
      "v": 76
    },
    {
      "midi": 66,
      "hit": false,
      "t": 133426.44000000006,
      "d": 155.15718750000815,
      "v": 85
    },
    {
      "midi": 60,
      "hit": false,
      "t": 133426.44000000006,
      "d": 157.34249999999884,
      "v": 85
    },
    {
      "midi": 69,
      "hit": false,
      "t": 133706.16000000006,
      "d": 80.85656250000466,
      "v": 93
    },
    {
      "midi": 66,
      "hit": false,
      "t": 133706.16000000006,
      "d": 98.33906250001746,
      "v": 102
    },
    {
      "midi": 60,
      "hit": false,
      "t": 133706.16000000006,
      "d": 104.89500000001863,
      "v": 93
    },
    {
      "midi": 69,
      "hit": false,
      "t": 134125.74000000008,
      "d": 378.0590624999895,
      "v": 98
    },
    {
      "midi": 66,
      "hit": false,
      "t": 134125.74000000008,
      "d": 393.35624999998254,
      "v": 93
    },
    {
      "midi": 60,
      "hit": false,
      "t": 134125.74000000008,
      "d": 402.0974999999744,
      "v": 89
    },
    {
      "midi": 50,
      "hit": false,
      "t": 134545.32000000007,
      "d": 111.45093750001979,
      "v": 93
    },
    {
      "midi": 69,
      "hit": false,
      "t": 134685.1800000001,
      "d": 128.9334375000035,
      "v": 89
    },
    {
      "midi": 60,
      "hit": false,
      "t": 134685.1800000001,
      "d": 168.26906250001048,
      "v": 85
    },
    {
      "midi": 66,
      "hit": false,
      "t": 134685.1800000001,
      "d": 174.82500000001164,
      "v": 89
    },
    {
      "midi": 50,
      "hit": false,
      "t": 134964.9000000001,
      "d": 122.37750000000233,
      "v": 93
    },
    {
      "midi": 69,
      "hit": false,
      "t": 135104.76000000013,
      "d": 198.8634374999965,
      "v": 98
    },
    {
      "midi": 66,
      "hit": false,
      "t": 135104.76000000013,
      "d": 211.97531249999884,
      "v": 93
    },
    {
      "midi": 64,
      "hit": false,
      "t": 135104.76000000013,
      "d": 214.16062499998952,
      "v": 98
    },
    {
      "midi": 50,
      "hit": false,
      "t": 135384.48000000013,
      "d": 118.00687499999185,
      "v": 102
    },
    {
      "midi": 66,
      "hit": false,
      "t": 135524.3400000001,
      "d": 120.19218750001164,
      "v": 89
    },
    {
      "midi": 69,
      "hit": false,
      "t": 135524.3400000001,
      "d": 131.11875000002328,
      "v": 93
    },
    {
      "midi": 62,
      "hit": false,
      "t": 135524.3400000001,
      "d": 133.30406250001397,
      "v": 98
    },
    {
      "midi": 55,
      "hit": false,
      "t": 135943.92000000013,
      "d": 2797.2000000000116,
      "v": 93
    },
    {
      "midi": 64,
      "hit": false,
      "t": 135943.92000000013,
      "d": 2801.570625000022,
      "v": 93
    },
    {
      "midi": 60,
      "hit": false,
      "t": 135943.92000000013,
      "d": 2845.2768750000396,
      "v": 89
    },
    {
      "midi": 48,
      "hit": false,
      "t": 135943.92000000013,
      "d": 2864.944687500043,
      "v": 98
    },
    {
      "midi": 84,
      "hit": false,
      "t": 137648.4637500001,
      "d": 63.37406249999185,
      "v": 119
    },
    {
      "midi": 79,
      "hit": false,
      "t": 137751.1734375001,
      "d": 80.85656250000466,
      "v": 89
    },
    {
      "midi": 84,
      "hit": false,
      "t": 137816.73281250012,
      "d": 69.92999999999302,
      "v": 89
    },
    {
      "midi": 79,
      "hit": false,
      "t": 137919.44250000012,
      "d": 72.1153124999837,
      "v": 68
    },
    {
      "midi": 84,
      "hit": false,
      "t": 137982.8165625001,
      "d": 69.92999999999302,
      "v": 76
    },
    {
      "midi": 79,
      "hit": false,
      "t": 138070.22906250012,
      "d": 74.30062500000349,
      "v": 68
    },
    {
      "midi": 84,
      "hit": false,
      "t": 138155.45625000013,
      "d": 67.74468750000233,
      "v": 85
    },
    {
      "midi": 79,
      "hit": false,
      "t": 138225.38625000013,
      "d": 65.55937500001164,
      "v": 62
    },
    {
      "midi": 84,
      "hit": false,
      "t": 138312.79875000013,
      "d": 61.188750000001164,
      "v": 72
    },
    {
      "midi": 79,
      "hit": false,
      "t": 138382.72875000013,
      "d": 67.74468750000233,
      "v": 57
    },
    {
      "midi": 84,
      "hit": false,
      "t": 138461.40000000014,
      "d": 63.37406249999185,
      "v": 76
    },
    {
      "midi": 79,
      "hit": false,
      "t": 138531.33000000013,
      "d": 87.41250000000582,
      "v": 76
    },
    {
      "midi": 84,
      "hit": false,
      "t": 138603.44531250015,
      "d": 67.74468750000233,
      "v": 85
    },
    {
      "midi": 79,
      "hit": false,
      "t": 138699.59906250014,
      "d": 69.93000000002212,
      "v": 60
    },
    {
      "midi": 84,
      "hit": false,
      "t": 138749.86125000016,
      "d": 54.6328125,
      "v": 76
    },
    {
      "midi": 79,
      "hit": false,
      "t": 138843.82968750017,
      "d": 50.26218749998952,
      "v": 56
    },
    {
      "midi": 79,
      "hit": false,
      "t": 138946.53937500017,
      "d": 85.22718749998603,
      "v": 72
    },
    {
      "midi": 84,
      "hit": false,
      "t": 138994.61625000017,
      "d": 50.26218749998952,
      "v": 72
    },
    {
      "midi": 62,
      "hit": false,
      "t": 139300.56000000017,
      "d": 205.41937499999767,
      "v": 113
    },
    {
      "midi": 50,
      "hit": false,
      "t": 139300.56000000017,
      "d": 209.79000000000815,
      "v": 113
    },
    {
      "midi": 57,
      "hit": false,
      "t": 139300.56000000017,
      "d": 211.97531249999884,
      "v": 93
    },
    {
      "midi": 66,
      "hit": false,
      "t": 139300.56000000017,
      "d": 218.53125,
      "v": 89
    },
    {
      "midi": 57,
      "hit": false,
      "t": 139720.14000000016,
      "d": 205.41937499999767,
      "v": 89
    },
    {
      "midi": 50,
      "hit": false,
      "t": 139720.14000000016,
      "d": 209.79000000000815,
      "v": 107
    },
    {
      "midi": 62,
      "hit": false,
      "t": 139720.14000000016,
      "d": 209.79000000000815,
      "v": 107
    },
    {
      "midi": 66,
      "hit": false,
      "t": 139720.14000000016,
      "d": 216.3459375000093,
      "v": 85
    },
    {
      "midi": 50,
      "hit": false,
      "t": 140139.72000000018,
      "d": 201.0487499999872,
      "v": 98
    },
    {
      "midi": 62,
      "hit": false,
      "t": 140139.72000000018,
      "d": 201.0487499999872,
      "v": 102
    },
    {
      "midi": 57,
      "hit": false,
      "t": 140139.72000000018,
      "d": 211.97531249999884,
      "v": 93
    },
    {
      "midi": 66,
      "hit": false,
      "t": 140139.72000000018,
      "d": 218.53125,
      "v": 89
    },
    {
      "midi": 50,
      "hit": false,
      "t": 140559.30000000016,
      "d": 229.45781250001164,
      "v": 102
    },
    {
      "midi": 62,
      "hit": false,
      "t": 140559.30000000016,
      "d": 238.1990625000035,
      "v": 102
    },
    {
      "midi": 57,
      "hit": false,
      "t": 140559.30000000016,
      "d": 253.4962499999965,
      "v": 80
    },
    {
      "midi": 66,
      "hit": false,
      "t": 140559.30000000016,
      "d": 253.4962499999965,
      "v": 80
    },
    {
      "midi": 50,
      "hit": false,
      "t": 140978.88000000015,
      "d": 220.7165624999907,
      "v": 98
    },
    {
      "midi": 60,
      "hit": false,
      "t": 140978.88000000015,
      "d": 227.27249999999185,
      "v": 89
    },
    {
      "midi": 66,
      "hit": false,
      "t": 140978.88000000015,
      "d": 229.45781249998254,
      "v": 80
    },
    {
      "midi": 57,
      "hit": false,
      "t": 140978.88000000015,
      "d": 236.0137499999837,
      "v": 76
    },
    {
      "midi": 60,
      "hit": false,
      "t": 141398.46000000014,
      "d": 207.60468749998836,
      "v": 98
    },
    {
      "midi": 57,
      "hit": false,
      "t": 141398.46000000014,
      "d": 214.16062499998952,
      "v": 89
    },
    {
      "midi": 50,
      "hit": false,
      "t": 141398.46000000014,
      "d": 216.3459374999802,
      "v": 98
    },
    {
      "midi": 66,
      "hit": false,
      "t": 141398.46000000014,
      "d": 218.5312499999709,
      "v": 89
    },
    {
      "midi": 66,
      "hit": false,
      "t": 141818.0400000001,
      "d": 203.23406250000698,
      "v": 72
    },
    {
      "midi": 57,
      "hit": false,
      "t": 141818.0400000001,
      "d": 205.41937499999767,
      "v": 76
    },
    {
      "midi": 60,
      "hit": false,
      "t": 141818.0400000001,
      "d": 205.41937499999767,
      "v": 85
    },
    {
      "midi": 50,
      "hit": false,
      "t": 141818.0400000001,
      "d": 218.53125,
      "v": 98
    },
    {
      "midi": 60,
      "hit": false,
      "t": 142237.62000000008,
      "d": 205.41937499999767,
      "v": 89
    },
    {
      "midi": 50,
      "hit": false,
      "t": 142237.62000000008,
      "d": 218.53125,
      "v": 102
    },
    {
      "midi": 57,
      "hit": false,
      "t": 142237.62000000008,
      "d": 227.27249999999185,
      "v": 89
    },
    {
      "midi": 66,
      "hit": false,
      "t": 142237.62000000008,
      "d": 231.64312500000233,
      "v": 80
    },
    {
      "midi": 50,
      "hit": false,
      "t": 142657.2000000001,
      "d": 209.79000000000815,
      "v": 107
    },
    {
      "midi": 57,
      "hit": false,
      "t": 142657.2000000001,
      "d": 266.60812499999884,
      "v": 85
    },
    {
      "midi": 62,
      "hit": false,
      "t": 142657.2000000001,
      "d": 266.60812499999884,
      "v": 102
    },
    {
      "midi": 66,
      "hit": false,
      "t": 142657.2000000001,
      "d": 270.9787500000093,
      "v": 89
    },
    {
      "midi": 62,
      "hit": false,
      "t": 143076.78000000012,
      "d": 225.08718750000116,
      "v": 102
    },
    {
      "midi": 66,
      "hit": false,
      "t": 143076.78000000012,
      "d": 236.0137500000128,
      "v": 80
    },
    {
      "midi": 57,
      "hit": false,
      "t": 143076.78000000012,
      "d": 240.38437500002328,
      "v": 76
    },
    {
      "midi": 50,
      "hit": false,
      "t": 143076.78000000012,
      "d": 382.4296875000291,
      "v": 107
    },
    {
      "midi": 62,
      "hit": false,
      "t": 143496.36000000013,
      "d": 93.96843750000698,
      "v": 89
    },
    {
      "midi": 57,
      "hit": false,
      "t": 143496.36000000013,
      "d": 113.63625000001048,
      "v": 68
    },
    {
      "midi": 66,
      "hit": false,
      "t": 143496.36000000013,
      "d": 120.19218750001164,
      "v": 76
    },
    {
      "midi": 50,
      "hit": false,
      "t": 143636.22000000015,
      "d": 104.89499999998952,
      "v": 93
    },
    {
      "midi": 62,
      "hit": false,
      "t": 143776.08000000013,
      "d": 98.33906249998836,
      "v": 93
    },
    {
      "midi": 57,
      "hit": false,
      "t": 143776.08000000013,
      "d": 113.63624999998137,
      "v": 76
    },
    {
      "midi": 66,
      "hit": false,
      "t": 143776.08000000013,
      "d": 118.00687499999185,
      "v": 85
    },
    {
      "midi": 50,
      "hit": false,
      "t": 143915.94000000012,
      "d": 111.45093749999069,
      "v": 107
    },
    {
      "midi": 62,
      "hit": false,
      "t": 144055.8000000001,
      "d": 85.22718749998603,
      "v": 107
    },
    {
      "midi": 57,
      "hit": false,
      "t": 144055.8000000001,
      "d": 87.41249999997672,
      "v": 93
    },
    {
      "midi": 66,
      "hit": false,
      "t": 144055.8000000001,
      "d": 111.45093749999069,
      "v": 93
    },
    {
      "midi": 50,
      "hit": false,
      "t": 144195.6600000001,
      "d": 85.22718749998603,
      "v": 119
    },
    {
      "midi": 60,
      "hit": false,
      "t": 144335.52000000008,
      "d": 375.87374999999884,
      "v": 85
    },
    {
      "midi": 36,
      "hit": false,
      "t": 144335.52000000008,
      "d": 408.65343750000466,
      "v": 89
    },
    {
      "midi": 64,
      "hit": false,
      "t": 144335.52000000008,
      "d": 850.0865625000442,
      "v": 85
    },
    {
      "midi": 67,
      "hit": false,
      "t": 144335.52000000008,
      "d": 1040.208750000049,
      "v": 89
    },
    {
      "midi": 60,
      "hit": false,
      "t": 144755.1000000001,
      "d": 270.9787500000093,
      "v": 68
    },
    {
      "midi": 60,
      "hit": false,
      "t": 145174.6800000001,
      "d": 190.12218750000466,
      "v": 48
    },
    {
      "midi": 48,
      "hit": false,
      "t": 145454.40000000014,
      "d": 89.59781249999651,
      "v": 80
    },
    {
      "midi": 67,
      "hit": false,
      "t": 145594.26000000013,
      "d": 229.45781250001164,
      "v": 102
    },
    {
      "midi": 62,
      "hit": false,
      "t": 145594.26000000013,
      "d": 253.4962500000256,
      "v": 107
    },
    {
      "midi": 58,
      "hit": false,
      "t": 145873.98000000016,
      "d": 384.6150000000198,
      "v": 113
    },
    {
      "midi": 60,
      "hit": false,
      "t": 146293.56000000017,
      "d": 104.89499999998952,
      "v": 85
    },
    {
      "midi": 64,
      "hit": false,
      "t": 146293.56000000017,
      "d": 104.89499999998952,
      "v": 98
    },
    {
      "midi": 67,
      "hit": false,
      "t": 146293.56000000017,
      "d": 122.37750000000233,
      "v": 93
    },
    {
      "midi": 58,
      "hit": false,
      "t": 146713.14000000016,
      "d": 148.60124999997788,
      "v": 72
    },
    {
      "midi": 64,
      "hit": false,
      "t": 146853.00000000015,
      "d": 301.57312499999534,
      "v": 89
    },
    {
      "midi": 60,
      "hit": false,
      "t": 146853.00000000015,
      "d": 312.499687500007,
      "v": 80
    },
    {
      "midi": 67,
      "hit": false,
      "t": 146853.00000000015,
      "d": 316.87031250001746,
      "v": 85
    },
    {
      "midi": 58,
      "hit": false,
      "t": 147132.72000000015,
      "d": 139.86000000001513,
      "v": 59
    },
    {
      "midi": 62,
      "hit": false,
      "t": 147272.58000000016,
      "d": 303.75843750001513,
      "v": 93
    },
    {
      "midi": 67,
      "hit": false,
      "t": 147272.58000000016,
      "d": 356.20593750002445,
      "v": 85
    },
    {
      "midi": 60,
      "hit": false,
      "t": 147552.30000000016,
      "d": 98.33906250001746,
      "v": 93
    },
    {
      "midi": 55,
      "hit": false,
      "t": 147692.16000000018,
      "d": 1787.5856250000652,
      "v": 85
    },
    {
      "midi": 74,
      "hit": false,
      "t": 148111.7400000002,
      "d": 85.22718749998603,
      "v": 59
    },
    {
      "midi": 71,
      "hit": false,
      "t": 148111.7400000002,
      "d": 102.70968749999884,
      "v": 59
    },
    {
      "midi": 67,
      "hit": false,
      "t": 148111.7400000002,
      "d": 126.7481250000128,
      "v": 64
    },
    {
      "midi": 62,
      "hit": false,
      "t": 148111.7400000002,
      "d": 131.11875000002328,
      "v": 85
    },
    {
      "midi": 71,
      "hit": false,
      "t": 148811.0400000002,
      "d": 83.04187499999534,
      "v": 98
    },
    {
      "midi": 74,
      "hit": false,
      "t": 148811.0400000002,
      "d": 87.41250000000582,
      "v": 89
    },
    {
      "midi": 65,
      "hit": false,
      "t": 148811.0400000002,
      "d": 91.7831250000163,
      "v": 85
    },
    {
      "midi": 62,
      "hit": false,
      "t": 149230.62000000023,
      "d": 128.9334375000035,
      "v": 93
    },
    {
      "midi": 65,
      "hit": false,
      "t": 149370.48000000024,
      "d": 137.67468749999534,
      "v": 72
    },
    {
      "midi": 74,
      "hit": false,
      "t": 149370.48000000024,
      "d": 262.23749999998836,
      "v": 76
    },
    {
      "midi": 71,
      "hit": false,
      "t": 149370.48000000024,
      "d": 281.90531249999185,
      "v": 89
    },
    {
      "midi": 65,
      "hit": false,
      "t": 149650.20000000024,
      "d": 155.15718749997905,
      "v": 64
    },
    {
      "midi": 71,
      "hit": false,
      "t": 149790.06000000023,
      "d": 113.63624999998137,
      "v": 80
    },
    {
      "midi": 50,
      "hit": false,
      "t": 150069.7800000002,
      "d": 96.15374999999767,
      "v": 93
    },
    {
      "midi": 43,
      "hit": false,
      "t": 150209.6400000002,
      "d": 480.76875000001746,
      "v": 93
    },
    {
      "midi": 50,
      "hit": false,
      "t": 150489.3600000002,
      "d": 222.90187500001048,
      "v": 93
    },
    {
      "midi": 62,
      "hit": false,
      "t": 150629.2200000002,
      "d": 408.65343749997555,
      "v": 102
    },
    {
      "midi": 57,
      "hit": false,
      "t": 150908.9400000002,
      "d": 113.63624999998137,
      "v": 93
    },
    {
      "midi": 48,
      "hit": false,
      "t": 151048.8000000002,
      "d": 3129.367499999964,
      "v": 93
    },
    {
      "midi": 59,
      "hit": false,
      "t": 151468.38000000018,
      "d": 122.37750000000233,
      "v": 60
    },
    {
      "midi": 64,
      "hit": false,
      "t": 151468.38000000018,
      "d": 152.97187499998836,
      "v": 85
    },
    {
      "midi": 67,
      "hit": false,
      "t": 151468.38000000018,
      "d": 157.34249999999884,
      "v": 80
    },
    {
      "midi": 55,
      "hit": false,
      "t": 151748.10000000018,
      "d": 126.7481249999837,
      "v": 72
    },
    {
      "midi": 64,
      "hit": false,
      "t": 151887.96000000017,
      "d": 139.86000000001513,
      "v": 85
    },
    {
      "midi": 67,
      "hit": false,
      "t": 151887.96000000017,
      "d": 155.15718750000815,
      "v": 80
    },
    {
      "midi": 60,
      "hit": false,
      "t": 151887.96000000017,
      "d": 157.34249999999884,
      "v": 72
    },
    {
      "midi": 55,
      "hit": false,
      "t": 152167.68000000017,
      "d": 137.67468749999534,
      "v": 93
    },
    {
      "midi": 66,
      "hit": false,
      "t": 152307.54000000015,
      "d": 28.409062499995343,
      "v": 41
    },
    {
      "midi": 58,
      "hit": false,
      "t": 152307.54000000015,
      "d": 113.63624999998137,
      "v": 64
    },
    {
      "midi": 62,
      "hit": false,
      "t": 152587.26000000013,
      "d": 163.8984375,
      "v": 98
    },
    {
      "midi": 58,
      "hit": false,
      "t": 152587.26000000013,
      "d": 166.0837499999907,
      "v": 85
    },
    {
      "midi": 62,
      "hit": false,
      "t": 153006.8400000001,
      "d": 87.41250000000582,
      "v": 98
    },
    {
      "midi": 67,
      "hit": false,
      "t": 153006.8400000001,
      "d": 100.52437500000815,
      "v": 98
    },
    {
      "midi": 58,
      "hit": false,
      "t": 153006.8400000001,
      "d": 104.89500000001863,
      "v": 89
    },
    {
      "midi": 55,
      "hit": false,
      "t": 153146.70000000013,
      "d": 93.96843750000698,
      "v": 51
    },
    {
      "midi": 62,
      "hit": false,
      "t": 153426.42000000013,
      "d": 59.00343750001048,
      "v": 89
    },
    {
      "midi": 58,
      "hit": false,
      "t": 153426.42000000013,
      "d": 72.1153125000128,
      "v": 72
    },
    {
      "midi": 67,
      "hit": false,
      "t": 153426.42000000013,
      "d": 113.63625000001048,
      "v": 89
    },
    {
      "midi": 55,
      "hit": false,
      "t": 153566.28000000014,
      "d": 279.72000000000116,
      "v": 102
    },
    {
      "midi": 60,
      "hit": false,
      "t": 153846.00000000015,
      "d": 198.8634374999965,
      "v": 80
    },
    {
      "midi": 67,
      "hit": false,
      "t": 153846.00000000015,
      "d": 391.17093750002095,
      "v": 85
    },
    {
      "midi": 64,
      "hit": false,
      "t": 153846.00000000015,
      "d": 399.9121875000128,
      "v": 89
    },
    {
      "midi": 55,
      "hit": false,
      "t": 153985.86000000013,
      "d": 174.82500000001164,
      "v": 93
    },
    {
      "midi": 60,
      "hit": false,
      "t": 154265.58000000016,
      "d": 104.89499999998952,
      "v": 80
    },
    {
      "midi": 50,
      "hit": false,
      "t": 154405.44000000015,
      "d": 594.4049999999988,
      "v": 102
    },
    {
      "midi": 50,
      "hit": false,
      "t": 155104.74000000014,
      "d": 133.30406249998487,
      "v": 76
    },
    {
      "midi": 66,
      "hit": false,
      "t": 155244.60000000012,
      "d": 155.15718750000815,
      "v": 85
    },
    {
      "midi": 60,
      "hit": false,
      "t": 155244.60000000012,
      "d": 157.34249999999884,
      "v": 85
    },
    {
      "midi": 69,
      "hit": false,
      "t": 155524.32000000012,
      "d": 80.85656250000466,
      "v": 93
    },
    {
      "midi": 66,
      "hit": false,
      "t": 155524.32000000012,
      "d": 98.33906250001746,
      "v": 102
    },
    {
      "midi": 60,
      "hit": false,
      "t": 155524.32000000012,
      "d": 104.89500000001863,
      "v": 93
    },
    {
      "midi": 69,
      "hit": false,
      "t": 155943.90000000014,
      "d": 378.0590624999895,
      "v": 98
    },
    {
      "midi": 66,
      "hit": false,
      "t": 155943.90000000014,
      "d": 393.35624999998254,
      "v": 93
    },
    {
      "midi": 60,
      "hit": false,
      "t": 155943.90000000014,
      "d": 402.0974999999744,
      "v": 89
    },
    {
      "midi": 50,
      "hit": false,
      "t": 156363.48000000013,
      "d": 111.45093750001979,
      "v": 93
    },
    {
      "midi": 69,
      "hit": false,
      "t": 156503.34000000017,
      "d": 128.9334375000035,
      "v": 89
    },
    {
      "midi": 60,
      "hit": false,
      "t": 156503.34000000017,
      "d": 168.26906250001048,
      "v": 85
    },
    {
      "midi": 66,
      "hit": false,
      "t": 156503.34000000017,
      "d": 174.82500000001164,
      "v": 89
    },
    {
      "midi": 50,
      "hit": false,
      "t": 156783.06000000017,
      "d": 122.37750000000233,
      "v": 93
    },
    {
      "midi": 69,
      "hit": false,
      "t": 156922.9200000002,
      "d": 198.8634374999965,
      "v": 98
    },
    {
      "midi": 66,
      "hit": false,
      "t": 156922.9200000002,
      "d": 211.97531249999884,
      "v": 93
    },
    {
      "midi": 64,
      "hit": false,
      "t": 156922.9200000002,
      "d": 214.16062499998952,
      "v": 98
    },
    {
      "midi": 50,
      "hit": false,
      "t": 157202.6400000002,
      "d": 118.00687499999185,
      "v": 102
    },
    {
      "midi": 66,
      "hit": false,
      "t": 157342.50000000017,
      "d": 120.19218750001164,
      "v": 89
    },
    {
      "midi": 69,
      "hit": false,
      "t": 157342.50000000017,
      "d": 131.11875000002328,
      "v": 93
    },
    {
      "midi": 62,
      "hit": false,
      "t": 157342.50000000017,
      "d": 133.30406250001397,
      "v": 98
    },
    {
      "midi": 60,
      "hit": false,
      "t": 157762.0800000002,
      "d": 375.87374999999884,
      "v": 85
    },
    {
      "midi": 36,
      "hit": false,
      "t": 157762.0800000002,
      "d": 408.65343750000466,
      "v": 89
    },
    {
      "midi": 64,
      "hit": false,
      "t": 157762.0800000002,
      "d": 850.0865625000442,
      "v": 85
    },
    {
      "midi": 67,
      "hit": false,
      "t": 157762.0800000002,
      "d": 1040.208750000049,
      "v": 89
    },
    {
      "midi": 60,
      "hit": false,
      "t": 158181.6600000002,
      "d": 270.9787500000093,
      "v": 68
    },
    {
      "midi": 60,
      "hit": false,
      "t": 158601.24000000022,
      "d": 190.12218750000466,
      "v": 48
    },
    {
      "midi": 48,
      "hit": false,
      "t": 158880.96000000025,
      "d": 89.59781249999651,
      "v": 80
    },
    {
      "midi": 67,
      "hit": false,
      "t": 159020.82000000024,
      "d": 229.45781250001164,
      "v": 102
    },
    {
      "midi": 62,
      "hit": false,
      "t": 159020.82000000024,
      "d": 253.4962500000256,
      "v": 107
    },
    {
      "midi": 58,
      "hit": false,
      "t": 159300.54000000027,
      "d": 384.6150000000198,
      "v": 113
    },
    {
      "midi": 60,
      "hit": false,
      "t": 159720.1200000003,
      "d": 104.89499999998952,
      "v": 85
    },
    {
      "midi": 64,
      "hit": false,
      "t": 159720.1200000003,
      "d": 104.89499999998952,
      "v": 98
    },
    {
      "midi": 67,
      "hit": false,
      "t": 159720.1200000003,
      "d": 122.37750000000233,
      "v": 93
    },
    {
      "midi": 58,
      "hit": false,
      "t": 160139.70000000027,
      "d": 148.60124999997788,
      "v": 72
    },
    {
      "midi": 64,
      "hit": false,
      "t": 160279.56000000026,
      "d": 301.57312499999534,
      "v": 89
    },
    {
      "midi": 60,
      "hit": false,
      "t": 160279.56000000026,
      "d": 312.499687500007,
      "v": 80
    },
    {
      "midi": 67,
      "hit": false,
      "t": 160279.56000000026,
      "d": 316.87031250001746,
      "v": 85
    },
    {
      "midi": 58,
      "hit": false,
      "t": 160559.28000000026,
      "d": 139.86000000001513,
      "v": 59
    },
    {
      "midi": 62,
      "hit": false,
      "t": 160699.14000000028,
      "d": 303.75843750001513,
      "v": 93
    },
    {
      "midi": 67,
      "hit": false,
      "t": 160699.14000000028,
      "d": 356.20593750002445,
      "v": 85
    },
    {
      "midi": 60,
      "hit": false,
      "t": 160978.86000000028,
      "d": 98.33906250001746,
      "v": 93
    },
    {
      "midi": 43,
      "hit": false,
      "t": 161118.7200000003,
      "d": 1206.2924999999814,
      "v": 93
    },
    {
      "midi": 55,
      "hit": false,
      "t": 161118.7200000003,
      "d": 1274.0371874999837,
      "v": 107
    },
    {
      "midi": 50,
      "hit": false,
      "t": 162797.04000000027,
      "d": 303.75843749998603,
      "v": 85
    },
    {
      "midi": 50,
      "hit": false,
      "t": 163216.62000000026,
      "d": 159.52781249998952,
      "v": 107
    },
    {
      "midi": 62,
      "hit": false,
      "t": 163216.62000000026,
      "d": 179.19562499999302,
      "v": 107
    },
    {
      "midi": 57,
      "hit": false,
      "t": 163216.62000000026,
      "d": 196.67812500000582,
      "v": 93
    },
    {
      "midi": 66,
      "hit": false,
      "t": 163216.62000000026,
      "d": 203.23406250000698,
      "v": 89
    },
    {
      "midi": 55,
      "hit": false,
      "t": 164055.78000000026,
      "d": 893.7928125000035,
      "v": 98
    },
    {
      "midi": 62,
      "hit": false,
      "t": 164055.78000000026,
      "d": 1005.2437499999942,
      "v": 107
    },
    {
      "midi": 67,
      "hit": false,
      "t": 164055.78000000026,
      "d": 1070.8031250000058,
      "v": 107
    },
    {
      "midi": 43,
      "hit": false,
      "t": 164055.78000000026,
      "d": 1271.851874999993,
      "v": 102
    },
    {
      "midi": 43,
      "hit": false,
      "t": 166992.84000000023,
      "d": 185.75156249999418,
      "v": 107
    },
    {
      "midi": 50,
      "hit": false,
      "t": 166992.84000000023,
      "d": 198.8634374999965,
      "v": 98
    },
    {
      "midi": 59,
      "hit": false,
      "t": 166992.84000000023,
      "d": 205.41937499999767,
      "v": 107
    },
    {
      "midi": 55,
      "hit": false,
      "t": 166992.84000000023,
      "d": 207.60468749998836,
      "v": 93
    },
    {
      "midi": 62,
      "hit": false,
      "t": 166992.84000000023,
      "d": 211.97531249999884,
      "v": 107
    },
    {
      "midi": 57,
      "hit": false,
      "t": 168671.16000000024,
      "d": 209.79000000000815,
      "v": 98
    },
    {
      "midi": 62,
      "hit": false,
      "t": 168671.16000000024,
      "d": 216.3459375000093,
      "v": 119
    },
    {
      "midi": 50,
      "hit": false,
      "t": 168671.16000000024,
      "d": 218.53125,
      "v": 107
    },
    {
      "midi": 57,
      "hit": false,
      "t": 169090.74000000022,
      "d": 190.12218750000466,
      "v": 98
    },
    {
      "midi": 50,
      "hit": false,
      "t": 169090.74000000022,
      "d": 209.79000000000815,
      "v": 107
    },
    {
      "midi": 62,
      "hit": false,
      "t": 169090.74000000022,
      "d": 209.79000000000815,
      "v": 119
    },
    {
      "midi": 55,
      "hit": false,
      "t": 169929.90000000023,
      "d": 893.7928125000035,
      "v": 98
    },
    {
      "midi": 62,
      "hit": false,
      "t": 169929.90000000023,
      "d": 1005.2437499999942,
      "v": 107
    },
    {
      "midi": 67,
      "hit": false,
      "t": 169929.90000000023,
      "d": 1070.8031250000058,
      "v": 107
    },
    {
      "midi": 43,
      "hit": false,
      "t": 169929.90000000023,
      "d": 1271.851874999993,
      "v": 102
    },
    {
      "midi": 77,
      "hit": false,
      "t": 172882.25718750025,
      "d": 63.37406249999185,
      "v": 127
    },
    {
      "midi": 74,
      "hit": false,
      "t": 172980.59625000024,
      "d": 69.92999999999302,
      "v": 89
    },
    {
      "midi": 77,
      "hit": false,
      "t": 173076.75000000023,
      "d": 54.6328125,
      "v": 85
    },
    {
      "midi": 74,
      "hit": false,
      "t": 173157.60656250024,
      "d": 59.00343750001048,
      "v": 72
    },
    {
      "midi": 77,
      "hit": false,
      "t": 173236.27781250025,
      "d": 54.6328125,
      "v": 76
    },
    {
      "midi": 74,
      "hit": false,
      "t": 173306.20781250024,
      "d": 59.00343750001048,
      "v": 72
    },
    {
      "midi": 77,
      "hit": false,
      "t": 173397.99093750026,
      "d": 45.89156250000815,
      "v": 76
    },
    {
      "midi": 74,
      "hit": false,
      "t": 173454.80906250028,
      "d": 67.74468750000233,
      "v": 80
    },
    {
      "midi": 77,
      "hit": false,
      "t": 173568.4453125003,
      "d": 32.77968750000582,
      "v": 59
    },
    {
      "midi": 74,
      "hit": false,
      "t": 173609.9662500003,
      "d": 61.188750000001164,
      "v": 64
    },
    {
      "midi": 77,
      "hit": false,
      "t": 173706.1200000003,
      "d": 50.26218749998952,
      "v": 76
    },
    {
      "midi": 74,
      "hit": false,
      "t": 173756.38218750028,
      "d": 72.1153125000128,
      "v": 76
    },
    {
      "midi": 77,
      "hit": false,
      "t": 173859.09187500027,
      "d": 45.89156250000815,
      "v": 72
    },
    {
      "midi": 74,
      "hit": false,
      "t": 173922.4659375003,
      "d": 63.37406249999185,
      "v": 72
    },
    {
      "midi": 77,
      "hit": false,
      "t": 174005.5078125003,
      "d": 39.335625000006985,
      "v": 68
    },
    {
      "midi": 74,
      "hit": false,
      "t": 174077.6231250003,
      "d": 67.74468750000233,
      "v": 72
    },
    {
      "midi": 77,
      "hit": false,
      "t": 174151.9237500003,
      "d": 37.150312499987194,
      "v": 62
    },
    {
      "midi": 74,
      "hit": false,
      "t": 174232.78031250028,
      "d": 67.74468750000233,
      "v": 72
    },
    {
      "midi": 77,
      "hit": false,
      "t": 174289.59843750027,
      "d": 45.89156250000815,
      "v": 68
    },
    {
      "midi": 74,
      "hit": false,
      "t": 174381.3815625003,
      "d": 54.6328125,
      "v": 62
    },
    {
      "midi": 77,
      "hit": false,
      "t": 174429.4584375003,
      "d": 39.335625000006985,
      "v": 72
    },
    {
      "midi": 74,
      "hit": false,
      "t": 174516.8709375003,
      "d": 72.1153124999837,
      "v": 72
    },
    {
      "midi": 77,
      "hit": false,
      "t": 174554.02125000028,
      "d": 61.188750000001164,
      "v": 98
    },
    {
      "midi": 93,
      "hit": false,
      "t": 175406.2931250003,
      "d": 48.07687500002794,
      "v": 85
    },
    {
      "midi": 91,
      "hit": false,
      "t": 175423.7756250003,
      "d": 74.30062500000349,
      "v": 98
    },
    {
      "midi": 89,
      "hit": false,
      "t": 175449.9993750003,
      "d": 93.96843750000698,
      "v": 93
    },
    {
      "midi": 88,
      "hit": false,
      "t": 175482.7790625003,
      "d": 111.45093749999069,
      "v": 68
    },
    {
      "midi": 86,
      "hit": false,
      "t": 175533.0412500003,
      "d": 109.265625,
      "v": 46
    },
    {
      "midi": 84,
      "hit": false,
      "t": 175587.6740625003,
      "d": 98.33906250001746,
      "v": 53
    },
    {
      "midi": 83,
      "hit": false,
      "t": 175635.7509375003,
      "d": 89.59781250002561,
      "v": 72
    },
    {
      "midi": 81,
      "hit": false,
      "t": 175675.0865625003,
      "d": 89.59781250002561,
      "v": 89
    },
    {
      "midi": 79,
      "hit": false,
      "t": 175714.4221875003,
      "d": 89.59781250002561,
      "v": 85
    },
    {
      "midi": 77,
      "hit": false,
      "t": 175751.57250000033,
      "d": 93.96843750000698,
      "v": 80
    },
    {
      "midi": 76,
      "hit": false,
      "t": 175793.09343750033,
      "d": 91.7831250000163,
      "v": 68
    },
    {
      "midi": 74,
      "hit": false,
      "t": 175834.61437500032,
      "d": 93.96843750000698,
      "v": 72
    },
    {
      "midi": 72,
      "hit": false,
      "t": 175880.50593750033,
      "d": 93.96843750000698,
      "v": 64
    },
    {
      "midi": 71,
      "hit": false,
      "t": 175922.02687500033,
      "d": 91.7831250000163,
      "v": 62
    },
    {
      "midi": 69,
      "hit": false,
      "t": 175961.36250000034,
      "d": 91.7831250000163,
      "v": 64
    },
    {
      "midi": 67,
      "hit": false,
      "t": 175998.51281250035,
      "d": 91.7831249999872,
      "v": 62
    },
    {
      "midi": 65,
      "hit": false,
      "t": 176040.03375000035,
      "d": 78.67125000001397,
      "v": 57
    },
    {
      "midi": 64,
      "hit": false,
      "t": 176074.99875000035,
      "d": 56.81812500001979,
      "v": 53
    },
    {
      "midi": 62,
      "hit": false,
      "t": 176101.22250000035,
      "d": 45.89156250000815,
      "v": 57
    },
    {
      "midi": 60,
      "hit": false,
      "t": 176127.44625000036,
      "d": 26.223750000004657,
      "v": 80
    },
    {
      "midi": 55,
      "hit": false,
      "t": 176643.18000000037,
      "d": 893.7928125000035,
      "v": 98
    },
    {
      "midi": 62,
      "hit": false,
      "t": 176643.18000000037,
      "d": 1005.2437499999942,
      "v": 107
    },
    {
      "midi": 67,
      "hit": false,
      "t": 176643.18000000037,
      "d": 1070.8031250000058,
      "v": 107
    },
    {
      "midi": 43,
      "hit": false,
      "t": 176643.18000000037,
      "d": 1271.851874999993,
      "v": 102
    },
    {
      "midi": 55,
      "hit": false,
      "t": 181678.14000000036,
      "d": 893.7928125000035,
      "v": 98
    },
    {
      "midi": 62,
      "hit": false,
      "t": 181678.14000000036,
      "d": 1005.2437499999942,
      "v": 107
    },
    {
      "midi": 67,
      "hit": false,
      "t": 181678.14000000036,
      "d": 1070.8031250000058,
      "v": 107
    },
    {
      "midi": 43,
      "hit": false,
      "t": 181678.14000000036,
      "d": 6291.514687500137,
      "v": 102
    },
    {
      "midi": 96,
      "hit": false,
      "t": 187158.90375000038,
      "d": 122.37750000000233,
      "v": 68
    },
    {
      "midi": 95,
      "hit": false,
      "t": 187222.27781250037,
      "d": 111.45093750001979,
      "v": 62
    },
    {
      "midi": 93,
      "hit": false,
      "t": 187276.91062500037,
      "d": 107.08031250003842,
      "v": 89
    },
    {
      "midi": 91,
      "hit": false,
      "t": 187324.9875000004,
      "d": 107.08031250000931,
      "v": 85
    },
    {
      "midi": 89,
      "hit": false,
      "t": 187373.0643750004,
      "d": 109.2656250000291,
      "v": 64
    },
    {
      "midi": 88,
      "hit": false,
      "t": 187421.1412500004,
      "d": 107.08031250003842,
      "v": 59
    },
    {
      "midi": 86,
      "hit": false,
      "t": 187471.4034375004,
      "d": 100.52437500003725,
      "v": 62
    },
    {
      "midi": 84,
      "hit": false,
      "t": 187517.29500000042,
      "d": 98.33906250001746,
      "v": 59
    },
    {
      "midi": 83,
      "hit": false,
      "t": 187561.00125000044,
      "d": 89.59781250002561,
      "v": 68
    },
    {
      "midi": 81,
      "hit": false,
      "t": 187602.52218750044,
      "d": 85.22718750004424,
      "v": 72
    },
    {
      "midi": 79,
      "hit": false,
      "t": 187639.67250000045,
      "d": 78.67125000001397,
      "v": 76
    },
    {
      "midi": 77,
      "hit": false,
      "t": 187674.63750000048,
      "d": 74.30062500000349,
      "v": 89
    },
    {
      "midi": 76,
      "hit": false,
      "t": 187709.60250000047,
      "d": 67.74468750000233,
      "v": 89
    },
    {
      "midi": 74,
      "hit": false,
      "t": 187744.56750000047,
      "d": 67.74468750000233,
      "v": 93
    },
    {
      "midi": 72,
      "hit": false,
      "t": 187781.7178125005,
      "d": 61.188750000001164,
      "v": 72
    },
    {
      "midi": 71,
      "hit": false,
      "t": 187812.31218750047,
      "d": 59.00343750001048,
      "v": 80
    },
    {
      "midi": 69,
      "hit": false,
      "t": 187831.98000000048,
      "d": 63.37406249999185,
      "v": 102
    },
    {
      "midi": 67,
      "hit": false,
      "t": 187862.5743750005,
      "d": 56.81812499999069,
      "v": 102
    },
    {
      "midi": 65,
      "hit": false,
      "t": 187893.16875000048,
      "d": 52.44750000000931,
      "v": 102
    },
    {
      "midi": 64,
      "hit": false,
      "t": 187919.39250000048,
      "d": 45.89156250000815,
      "v": 102
    },
    {
      "midi": 62,
      "hit": false,
      "t": 187952.1721875005,
      "d": 24.03843750001397,
      "v": 89
    },
    {
      "midi": 43,
      "hit": false,
      "t": 187969.6546875005,
      "d": 6715.4653124999895,
      "v": 113
    },
    {
      "midi": 55,
      "hit": false,
      "t": 188391.42000000048,
      "d": 4772.7225000000035,
      "v": 113
    },
    {
      "midi": 50,
      "hit": false,
      "t": 188397.97593750048,
      "d": 5093.963437500002,
      "v": 113
    },
    {
      "midi": 65,
      "hit": false,
      "t": 188402.3465625005,
      "d": 4997.809687500005,
      "v": 119
    },
    {
      "midi": 62,
      "hit": false,
      "t": 188406.7171875005,
      "d": 4750.86937499998,
      "v": 113
    },
    {
      "midi": 57,
      "hit": false,
      "t": 188415.4584375005,
      "d": 28.409062499995343,
      "v": 62
    }
  ]
}