{
  "jsonPath": "Country/Country/Billy Gilman/whats-forever-for.json",
  "path": "Country\\Country\\Billy Gilman\\Whats Forever For.mid",
  "name": "Whats Forever For",
  "difficulty": "Advanced",
  "bpm": 75,
  "notes": [
    {
      "midi": 62,
      "hit": false,
      "t": 0,
      "d": 2624.999825,
      "v": 100
    },
    {
      "midi": 59,
      "hit": false,
      "t": 0,
      "d": 2732.142675,
      "v": 100
    },
    {
      "midi": 55,
      "hit": false,
      "t": 0,
      "d": 2749.999816666667,
      "v": 100
    },
    {
      "midi": 55,
      "hit": false,
      "t": 2142.857,
      "d": 6428.571,
      "v": 65
    },
    {
      "midi": 59,
      "hit": false,
      "t": 2142.857,
      "d": 6428.571,
      "v": 65
    },
    {
      "midi": 62,
      "hit": false,
      "t": 2142.857,
      "d": 6428.571,
      "v": 65
    },
    {
      "midi": 55,
      "hit": false,
      "t": 8607.142283333334,
      "d": 3964.2854499999994,
      "v": 100
    },
    {
      "midi": 60,
      "hit": false,
      "t": 8624.999425000002,
      "d": 3857.142599999999,
      "v": 100
    },
    {
      "midi": 60,
      "hit": false,
      "t": 10714.285,
      "d": 6428.571,
      "v": 65
    },
    {
      "midi": 64,
      "hit": false,
      "t": 10714.285,
      "d": 6428.571,
      "v": 65
    },
    {
      "midi": 67,
      "hit": false,
      "t": 10714.285,
      "d": 6428.571,
      "v": 65
    },
    {
      "midi": 69,
      "hit": false,
      "t": 10714.285,
      "d": 6428.571,
      "v": 65
    },
    {
      "midi": 60,
      "hit": false,
      "t": 17142.856000000003,
      "d": 6410.713858333333,
      "v": 100
    },
    {
      "midi": 55,
      "hit": false,
      "t": 17196.427425,
      "d": 6339.285291666667,
      "v": 100
    },
    {
      "midi": 50,
      "hit": false,
      "t": 19285.713,
      "d": 14678.570449999996,
      "v": 84
    },
    {
      "midi": 57,
      "hit": false,
      "t": 21428.57,
      "d": 12428.5706,
      "v": 74
    },
    {
      "midi": 62,
      "hit": false,
      "t": 23571.427,
      "d": 9857.142199999998,
      "v": 63
    },
    {
      "midi": 67,
      "hit": false,
      "t": 23571.427,
      "d": 9857.142199999998,
      "v": 81
    },
    {
      "midi": 67,
      "hit": false,
      "t": 25749.998283333338,
      "d": 2160.7141416666636,
      "v": 100
    },
    {
      "midi": 66,
      "hit": false,
      "t": 27839.283858333336,
      "d": 2267.8569916666675,
      "v": 100
    },
    {
      "midi": 64,
      "hit": false,
      "t": 29999.998000000003,
      "d": 1946.428441666667,
      "v": 100
    },
    {
      "midi": 62,
      "hit": false,
      "t": 31999.99786666667,
      "d": 1749.9998833333339,
      "v": 100
    },
    {
      "midi": 55,
      "hit": false,
      "t": 34285.71199999999,
      "d": 8464.285150000003,
      "v": 65
    },
    {
      "midi": 59,
      "hit": false,
      "t": 34285.71199999999,
      "d": 8464.285150000003,
      "v": 65
    },
    {
      "midi": 62,
      "hit": false,
      "t": 34285.71199999999,
      "d": 8464.285150000003,
      "v": 65
    },
    {
      "midi": 55,
      "hit": false,
      "t": 34285.71200000001,
      "d": 4535.713983333328,
      "v": 100
    },
    {
      "midi": 59,
      "hit": false,
      "t": 34285.71200000001,
      "d": 4857.1425333333245,
      "v": 100
    },
    {
      "midi": 62,
      "hit": false,
      "t": 34642.85483333334,
      "d": 4535.713983333328,
      "v": 100
    },
    {
      "midi": 60,
      "hit": false,
      "t": 42857.13999999999,
      "d": 8464.285150000003,
      "v": 65
    },
    {
      "midi": 64,
      "hit": false,
      "t": 42857.13999999999,
      "d": 8464.285150000003,
      "v": 65
    },
    {
      "midi": 67,
      "hit": false,
      "t": 42857.13999999999,
      "d": 8464.285150000003,
      "v": 65
    },
    {
      "midi": 69,
      "hit": false,
      "t": 42857.13999999999,
      "d": 8464.285150000003,
      "v": 65
    },
    {
      "midi": 55,
      "hit": false,
      "t": 43107.139983333334,
      "d": 4071.428300000007,
      "v": 100
    },
    {
      "midi": 60,
      "hit": false,
      "t": 43124.997125,
      "d": 4517.856841666675,
      "v": 100
    },
    {
      "midi": 60,
      "hit": false,
      "t": 51214.28230000001,
      "d": 4303.5711416666745,
      "v": 100
    },
    {
      "midi": 55,
      "hit": false,
      "t": 51285.71086666668,
      "d": 4285.714000000007,
      "v": 100
    },
    {
      "midi": 64,
      "hit": false,
      "t": 51285.71086666668,
      "d": 4374.999708333344,
      "v": 100
    },
    {
      "midi": 62,
      "hit": false,
      "t": 51428.56799999999,
      "d": 4892.856816666666,
      "v": 39
    },
    {
      "midi": 67,
      "hit": false,
      "t": 51428.56799999999,
      "d": 14571.427600000003,
      "v": 71
    },
    {
      "midi": 69,
      "hit": false,
      "t": 51428.56799999999,
      "d": 14571.427600000003,
      "v": 63
    },
    {
      "midi": 50,
      "hit": false,
      "t": 53571.42499999999,
      "d": 12892.856283333342,
      "v": 71
    },
    {
      "midi": 55,
      "hit": false,
      "t": 55714.28199999999,
      "d": 2571.428399999997,
      "v": 60
    },
    {
      "midi": 57,
      "hit": false,
      "t": 57857.13899999999,
      "d": 8249.99945000001,
      "v": 74
    },
    {
      "midi": 64,
      "hit": false,
      "t": 60017.853141666696,
      "d": 2089.2855750000017,
      "v": 100
    },
    {
      "midi": 72,
      "hit": false,
      "t": 60124.99599166669,
      "d": 1910.714158333336,
      "v": 100
    },
    {
      "midi": 62,
      "hit": false,
      "t": 61999.99586666669,
      "d": 1160.714208333331,
      "v": 100
    },
    {
      "midi": 71,
      "hit": false,
      "t": 62232.13870833336,
      "d": 2017.8570083333252,
      "v": 100
    },
    {
      "midi": 60,
      "hit": false,
      "t": 64142.85286666669,
      "d": 642.8570999999938,
      "v": 100
    },
    {
      "midi": 69,
      "hit": false,
      "t": 64410.709991666685,
      "d": 1928.5713000000032,
      "v": 100
    },
    {
      "midi": 67,
      "hit": false,
      "t": 66392.85271666669,
      "d": 1999.9998666666652,
      "v": 100
    },
    {
      "midi": 62,
      "hit": false,
      "t": 68499.99543333336,
      "d": 4464.285416666666,
      "v": 100
    },
    {
      "midi": 55,
      "hit": false,
      "t": 70714.281,
      "d": 6428.570999999996,
      "v": 65
    },
    {
      "midi": 59,
      "hit": false,
      "t": 70714.281,
      "d": 6428.570999999996,
      "v": 65
    },
    {
      "midi": 62,
      "hit": false,
      "t": 70714.281,
      "d": 6428.570999999996,
      "v": 65
    },
    {
      "midi": 57,
      "hit": false,
      "t": 77142.852,
      "d": 8464.285149999996,
      "v": 65
    },
    {
      "midi": 60,
      "hit": false,
      "t": 77142.852,
      "d": 8464.285149999996,
      "v": 65
    },
    {
      "midi": 64,
      "hit": false,
      "t": 77142.852,
      "d": 8464.285149999996,
      "v": 65
    },
    {
      "midi": 64,
      "hit": false,
      "t": 77196.42342500003,
      "d": 5196.428225000011,
      "v": 100
    },
    {
      "midi": 60,
      "hit": false,
      "t": 77232.13770833336,
      "d": 4982.142525000003,
      "v": 100
    },
    {
      "midi": 57,
      "hit": false,
      "t": 77392.85198333337,
      "d": 464.2856833333353,
      "v": 100
    },
    {
      "midi": 55,
      "hit": false,
      "t": 85714.28,
      "d": 8464.285149999996,
      "v": 65
    },
    {
      "midi": 59,
      "hit": false,
      "t": 85714.28,
      "d": 8464.285149999996,
      "v": 65
    },
    {
      "midi": 62,
      "hit": false,
      "t": 85714.28,
      "d": 8464.285149999996,
      "v": 65
    },
    {
      "midi": 62,
      "hit": false,
      "t": 85714.28000000003,
      "d": 5571.428200000009,
      "v": 100
    },
    {
      "midi": 67,
      "hit": false,
      "t": 85767.85142500003,
      "d": 5357.142500000002,
      "v": 100
    },
    {
      "midi": 55,
      "hit": false,
      "t": 94285.708,
      "d": 8464.285149999996,
      "v": 65
    },
    {
      "midi": 60,
      "hit": false,
      "t": 94285.708,
      "d": 8464.285149999996,
      "v": 65
    },
    {
      "midi": 64,
      "hit": false,
      "t": 94285.708,
      "d": 8464.285149999996,
      "v": 65
    },
    {
      "midi": 60,
      "hit": false,
      "t": 94285.70800000003,
      "d": 2714.2855333333428,
      "v": 100
    },
    {
      "midi": 64,
      "hit": false,
      "t": 94285.70800000003,
      "d": 2732.14267500001,
      "v": 100
    },
    {
      "midi": 57,
      "hit": false,
      "t": 102857.136,
      "d": 1999.9998666666652,
      "v": 74
    },
    {
      "midi": 43,
      "hit": false,
      "t": 102857.136,
      "d": 17142.856,
      "v": 58
    },
    {
      "midi": 62,
      "hit": false,
      "t": 102857.136,
      "d": 17142.856,
      "v": 81
    },
    {
      "midi": 59,
      "hit": false,
      "t": 102928.5645666667,
      "d": 14321.427616666668,
      "v": 100
    },
    {
      "midi": 62,
      "hit": false,
      "t": 102928.5645666667,
      "d": 14392.856183333337,
      "v": 100
    },
    {
      "midi": 67,
      "hit": false,
      "t": 102964.27885000003,
      "d": 13857.141933333332,
      "v": 100
    },
    {
      "midi": 59,
      "hit": false,
      "t": 104999.993,
      "d": 2571.4284000000043,
      "v": 65
    },
    {
      "midi": 57,
      "hit": false,
      "t": 107142.85,
      "d": 2285.7141333333275,
      "v": 63
    },
    {
      "midi": 55,
      "hit": false,
      "t": 109428.56413333333,
      "d": 10571.427866666665,
      "v": 84
    },
    {
      "midi": 67,
      "hit": false,
      "t": 117874.9921416667,
      "d": 874.9999416666687,
      "v": 100
    },
    {
      "midi": 60,
      "hit": false,
      "t": 119999.992,
      "d": 8464.285149999996,
      "v": 65
    },
    {
      "midi": 64,
      "hit": false,
      "t": 119999.992,
      "d": 8464.285149999996,
      "v": 65
    },
    {
      "midi": 67,
      "hit": false,
      "t": 119999.992,
      "d": 8464.285149999996,
      "v": 65
    },
    {
      "midi": 69,
      "hit": false,
      "t": 119999.992,
      "d": 8464.285149999996,
      "v": 65
    },
    {
      "midi": 67,
      "hit": false,
      "t": 119999.99200000004,
      "d": 4678.571116666673,
      "v": 100
    },
    {
      "midi": 60,
      "hit": false,
      "t": 120017.84914166671,
      "d": 4749.999683333343,
      "v": 100
    },
    {
      "midi": 64,
      "hit": false,
      "t": 120017.84914166671,
      "d": 4749.999683333343,
      "v": 100
    },
    {
      "midi": 66,
      "hit": false,
      "t": 128607.13428333338,
      "d": 4946.428241666668,
      "v": 100
    },
    {
      "midi": 62,
      "hit": false,
      "t": 128624.99142500004,
      "d": 4803.57110833333,
      "v": 100
    },
    {
      "midi": 57,
      "hit": false,
      "t": 128660.70570833338,
      "d": 4999.99966666667,
      "v": 100
    },
    {
      "midi": 57,
      "hit": false,
      "t": 130714.277,
      "d": 6428.570999999996,
      "v": 65
    },
    {
      "midi": 62,
      "hit": false,
      "t": 130714.277,
      "d": 6428.570999999996,
      "v": 65
    },
    {
      "midi": 66,
      "hit": false,
      "t": 130714.277,
      "d": 6428.570999999996,
      "v": 65
    },
    {
      "midi": 66,
      "hit": false,
      "t": 134732.13387500006,
      "d": 1446.4284750000224,
      "v": 100
    },
    {
      "midi": 62,
      "hit": false,
      "t": 135785.7052333334,
      "d": 839.2856583333341,
      "v": 100
    },
    {
      "midi": 59,
      "hit": false,
      "t": 136892.84801666674,
      "d": 6035.713883333345,
      "v": 100
    },
    {
      "midi": 62,
      "hit": false,
      "t": 136928.56230000008,
      "d": 5928.571033333341,
      "v": 100
    },
    {
      "midi": 67,
      "hit": false,
      "t": 136964.2765833334,
      "d": 5857.142466666672,
      "v": 100
    },
    {
      "midi": 55,
      "hit": false,
      "t": 139285.705,
      "d": 6428.570999999996,
      "v": 65
    },
    {
      "midi": 59,
      "hit": false,
      "t": 139285.705,
      "d": 6428.570999999996,
      "v": 65
    },
    {
      "midi": 62,
      "hit": false,
      "t": 139285.705,
      "d": 6428.570999999996,
      "v": 65
    },
    {
      "midi": 60,
      "hit": false,
      "t": 145857.13313333344,
      "d": 5553.5710583333275,
      "v": 100
    },
    {
      "midi": 67,
      "hit": false,
      "t": 145857.13313333344,
      "d": 5589.285341666662,
      "v": 100
    },
    {
      "midi": 57,
      "hit": false,
      "t": 145928.5617000001,
      "d": 5196.4282249999815,
      "v": 100
    },
    {
      "midi": 60,
      "hit": false,
      "t": 147857.13299999997,
      "d": 6428.570999999996,
      "v": 65
    },
    {
      "midi": 64,
      "hit": false,
      "t": 147857.13299999997,
      "d": 6428.570999999996,
      "v": 65
    },
    {
      "midi": 67,
      "hit": false,
      "t": 147857.13299999997,
      "d": 6428.570999999996,
      "v": 65
    },
    {
      "midi": 69,
      "hit": false,
      "t": 147857.13299999997,
      "d": 6428.570999999996,
      "v": 65
    },
    {
      "midi": 60,
      "hit": false,
      "t": 154267.84685833342,
      "d": 3267.856925000029,
      "v": 100
    },
    {
      "midi": 55,
      "hit": false,
      "t": 154285.70400000009,
      "d": 2339.2855583333585,
      "v": 100
    },
    {
      "midi": 50,
      "hit": false,
      "t": 156428.56099999996,
      "d": 14678.57044999997,
      "v": 84
    },
    {
      "midi": 57,
      "hit": false,
      "t": 158571.41799999995,
      "d": 12428.570599999977,
      "v": 74
    },
    {
      "midi": 60,
      "hit": false,
      "t": 158607.13228333346,
      "d": 2232.1427083333256,
      "v": 100
    },
    {
      "midi": 55,
      "hit": false,
      "t": 158624.98942500012,
      "d": 2142.856999999989,
      "v": 100
    },
    {
      "midi": 62,
      "hit": false,
      "t": 160714.27499999994,
      "d": 9857.142200000002,
      "v": 63
    },
    {
      "midi": 67,
      "hit": false,
      "t": 160714.27499999994,
      "d": 9857.142200000002,
      "v": 81
    },
    {
      "midi": 64,
      "hit": false,
      "t": 160714.2750000001,
      "d": 2303.571275000024,
      "v": 100
    },
    {
      "midi": 67,
      "hit": false,
      "t": 162803.56057500013,
      "d": 2410.7141250000277,
      "v": 100
    },
    {
      "midi": 66,
      "hit": false,
      "t": 165035.70328333348,
      "d": 2339.2855583333585,
      "v": 100
    },
    {
      "midi": 64,
      "hit": false,
      "t": 167124.9888583335,
      "d": 2178.5712833333528,
      "v": 100
    },
    {
      "midi": 62,
      "hit": false,
      "t": 169339.27442500019,
      "d": 1678.5713166666683,
      "v": 100
    },
    {
      "midi": 55,
      "hit": false,
      "t": 171428.55999999994,
      "d": 8464.28515000001,
      "v": 65
    },
    {
      "midi": 59,
      "hit": false,
      "t": 171428.55999999994,
      "d": 8464.28515000001,
      "v": 65
    },
    {
      "midi": 62,
      "hit": false,
      "t": 171428.55999999994,
      "d": 8464.28515000001,
      "v": 65
    },
    {
      "midi": 62,
      "hit": false,
      "t": 171464.27428333354,
      "d": 5821.428183333337,
      "v": 100
    },
    {
      "midi": 59,
      "hit": false,
      "t": 171517.84570833354,
      "d": 5053.571091666643,
      "v": 100
    },
    {
      "midi": 67,
      "hit": false,
      "t": 173624.9884250002,
      "d": 3339.2854916666693,
      "v": 100
    },
    {
      "midi": 59,
      "hit": false,
      "t": 177857.1310000002,
      "d": 714.285666666663,
      "v": 100
    },
    {
      "midi": 62,
      "hit": false,
      "t": 177910.7024250002,
      "d": 892.857083333336,
      "v": 100
    },
    {
      "midi": 67,
      "hit": false,
      "t": 177928.55956666687,
      "d": 928.5713666666707,
      "v": 100
    },
    {
      "midi": 67,
      "hit": false,
      "t": 179982.13085833355,
      "d": 2410.7141249999986,
      "v": 100
    },
    {
      "midi": 60,
      "hit": false,
      "t": 180089.27370833355,
      "d": 2178.5712833333237,
      "v": 100
    },
    {
      "midi": 57,
      "hit": false,
      "t": 180107.13085000022,
      "d": 2374.999841666664,
      "v": 100
    },
    {
      "midi": 60,
      "hit": false,
      "t": 182142.84499999994,
      "d": 6428.570999999996,
      "v": 65
    },
    {
      "midi": 64,
      "hit": false,
      "t": 182142.84499999994,
      "d": 6428.570999999996,
      "v": 65
    },
    {
      "midi": 67,
      "hit": false,
      "t": 182142.84499999994,
      "d": 6428.570999999996,
      "v": 65
    },
    {
      "midi": 69,
      "hit": false,
      "t": 182142.84499999994,
      "d": 6428.570999999996,
      "v": 65
    },
    {
      "midi": 64,
      "hit": false,
      "t": 182321.41641666688,
      "d": 1964.2855833333451,
      "v": 100
    },
    {
      "midi": 60,
      "hit": false,
      "t": 184482.13055833356,
      "d": 982.1427916666726,
      "v": 100
    },
    {
      "midi": 55,
      "hit": false,
      "t": 188482.1302916669,
      "d": 2232.1427083333256,
      "v": 100
    },
    {
      "midi": 62,
      "hit": false,
      "t": 188517.84457500023,
      "d": 1714.285600000003,
      "v": 100
    },
    {
      "midi": 57,
      "hit": false,
      "t": 188571.41599999994,
      "d": 15785.713233333343,
      "v": 52
    },
    {
      "midi": 62,
      "hit": false,
      "t": 188571.41599999994,
      "d": 15785.713233333343,
      "v": 52
    },
    {
      "midi": 67,
      "hit": false,
      "t": 188571.41599999994,
      "d": 15785.713233333343,
      "v": 52
    },
    {
      "midi": 60,
      "hit": false,
      "t": 188571.41600000023,
      "d": 1660.714175000001,
      "v": 100
    },
    {
      "midi": 62,
      "hit": false,
      "t": 190874.98727500023,
      "d": 2053.5712916666816,
      "v": 100
    },
    {
      "midi": 64,
      "hit": false,
      "t": 192857.13000000024,
      "d": 1803.5713083333394,
      "v": 100
    },
    {
      "midi": 67,
      "hit": false,
      "t": 195160.70127500023,
      "d": 1196.4284916666802,
      "v": 100
    },
    {
      "midi": 64,
      "hit": false,
      "t": 197124.98685833358,
      "d": 2107.1427166666836,
      "v": 100
    },
    {
      "midi": 72,
      "hit": false,
      "t": 197160.7011416669,
      "d": 1910.7141583333432,
      "v": 100
    },
    {
      "midi": 71,
      "hit": false,
      "t": 199178.55815000026,
      "d": 2232.1427083333256,
      "v": 100
    },
    {
      "midi": 62,
      "hit": false,
      "t": 199267.8438583336,
      "d": 1249.999916666653,
      "v": 100
    },
    {
      "midi": 60,
      "hit": false,
      "t": 201392.84371666692,
      "d": 589.285675000021,
      "v": 100
    },
    {
      "midi": 69,
      "hit": false,
      "t": 201589.27227500026,
      "d": 1607.1427500000282,
      "v": 100
    },
    {
      "midi": 67,
      "hit": false,
      "t": 203428.55786666696,
      "d": 624.9999583333265,
      "v": 100
    },
    {
      "midi": 71,
      "hit": false,
      "t": 205660.7005750003,
      "d": 4339.285425000009,
      "v": 100
    },
    {
      "midi": 62,
      "hit": false,
      "t": 205696.41485833362,
      "d": 4678.571116666688,
      "v": 100
    },
    {
      "midi": 55,
      "hit": false,
      "t": 205714.27199999994,
      "d": 8464.28515000001,
      "v": 65
    },
    {
      "midi": 59,
      "hit": false,
      "t": 205714.27199999994,
      "d": 8464.28515000001,
      "v": 65
    },
    {
      "midi": 62,
      "hit": false,
      "t": 205714.27199999994,
      "d": 8464.28515000001,
      "v": 65
    },
    {
      "midi": 74,
      "hit": false,
      "t": 205714.2720000003,
      "d": 4232.142575000005,
      "v": 100
    },
    {
      "midi": 64,
      "hit": false,
      "t": 214249.98571666697,
      "d": 2749.9998166666483,
      "v": 100
    },
    {
      "midi": 60,
      "hit": false,
      "t": 214267.84285833364,
      "d": 2678.571249999979,
      "v": 100
    },
    {
      "midi": 57,
      "hit": false,
      "t": 214285.69999999995,
      "d": 8464.28515000001,
      "v": 65
    },
    {
      "midi": 60,
      "hit": false,
      "t": 214285.69999999995,
      "d": 8464.28515000001,
      "v": 65
    },
    {
      "midi": 64,
      "hit": false,
      "t": 214285.69999999995,
      "d": 8464.28515000001,
      "v": 65
    },
    {
      "midi": 69,
      "hit": false,
      "t": 214285.7000000003,
      "d": 6428.570999999996,
      "v": 100
    },
    {
      "midi": 60,
      "hit": false,
      "t": 218696.41399166695,
      "d": 1607.142749999999,
      "v": 100
    },
    {
      "midi": 64,
      "hit": false,
      "t": 218749.98541666695,
      "d": 1803.5713083333394,
      "v": 100
    },
    {
      "midi": 67,
      "hit": false,
      "t": 222964.27085000032,
      "d": 4107.142583333334,
      "v": 100
    },
    {
      "midi": 62,
      "hit": false,
      "t": 222982.127991667,
      "d": 4249.999716666673,
      "v": 100
    },
    {
      "midi": 55,
      "hit": false,
      "t": 224999.98499999996,
      "d": 6428.570999999996,
      "v": 65
    },
    {
      "midi": 59,
      "hit": false,
      "t": 224999.98499999996,
      "d": 6428.570999999996,
      "v": 65
    },
    {
      "midi": 62,
      "hit": false,
      "t": 224999.98499999996,
      "d": 6428.570999999996,
      "v": 65
    },
    {
      "midi": 64,
      "hit": false,
      "t": 229357.127566667,
      "d": 5232.142508333345,
      "v": 100
    },
    {
      "midi": 60,
      "hit": false,
      "t": 229392.84185000035,
      "d": 5142.856800000009,
      "v": 100
    },
    {
      "midi": 55,
      "hit": false,
      "t": 233571.41299999994,
      "d": 6428.570999999996,
      "v": 65
    },
    {
      "midi": 60,
      "hit": false,
      "t": 233571.41299999994,
      "d": 6428.570999999996,
      "v": 65
    },
    {
      "midi": 64,
      "hit": false,
      "t": 233571.41299999994,
      "d": 6428.570999999996,
      "v": 65
    },
    {
      "midi": 60,
      "hit": false,
      "t": 235874.98427500034,
      "d": 1053.5713583333418,
      "v": 100
    },
    {
      "midi": 64,
      "hit": false,
      "t": 235892.841416667,
      "d": 1482.142758333328,
      "v": 100
    },
    {
      "midi": 55,
      "hit": false,
      "t": 239999.98399999994,
      "d": 15785.713233333343,
      "v": 52
    },
    {
      "midi": 59,
      "hit": false,
      "t": 239999.98399999994,
      "d": 15785.713233333343,
      "v": 52
    },
    {
      "midi": 62,
      "hit": false,
      "t": 239999.98399999994,
      "d": 15785.713233333343,
      "v": 52
    },
    {
      "midi": 67,
      "hit": false,
      "t": 239999.98400000032,
      "d": 2946.4283749999886,
      "v": 100
    },
    {
      "midi": 62,
      "hit": false,
      "t": 239999.98400000032,
      "d": 3089.285508333327,
      "v": 100
    },
    {
      "midi": 62,
      "hit": false,
      "t": 244339.2694250003,
      "d": 7642.856633333315,
      "v": 100
    },
    {
      "midi": 67,
      "hit": false,
      "t": 244392.8408500003,
      "d": 7160.713808333327,
      "v": 100
    },
    {
      "midi": 62,
      "hit": false,
      "t": 252749.98315000028,
      "d": 2642.8569666666735,
      "v": 100
    },
    {
      "midi": 60,
      "hit": false,
      "t": 257071.41143333362,
      "d": 9553.570791666658,
      "v": 100
    },
    {
      "midi": 67,
      "hit": false,
      "t": 257124.98285833362,
      "d": 9624.999358333298,
      "v": 100
    },
    {
      "midi": 64,
      "hit": false,
      "t": 257142.8400000003,
      "d": 9624.999358333269,
      "v": 100
    },
    {
      "midi": 50,
      "hit": false,
      "t": 259285.69699999996,
      "d": 14678.570450000028,
      "v": 84
    },
    {
      "midi": 57,
      "hit": false,
      "t": 261428.55399999995,
      "d": 12428.570600000035,
      "v": 74
    },
    {
      "midi": 60,
      "hit": false,
      "t": 263571.41099999996,
      "d": 9857.142200000002,
      "v": 63
    },
    {
      "midi": 67,
      "hit": false,
      "t": 263571.41099999996,
      "d": 9857.142200000002,
      "v": 81
    },
    {
      "midi": 60,
      "hit": false,
      "t": 269999.9820000002,
      "d": 2357.1426999999094,
      "v": 100
    },
    {
      "midi": 67,
      "hit": false,
      "t": 270053.55342500017,
      "d": 2071.4284333332907,
      "v": 100
    },
    {
      "midi": 64,
      "hit": false,
      "t": 270071.4105666668,
      "d": 2160.7141416666564,
      "v": 100
    },
    {
      "midi": 59,
      "hit": false,
      "t": 274267.8388583334,
      "d": 5017.85680833325,
      "v": 100
    },
    {
      "midi": 67,
      "hit": false,
      "t": 274285.69600000005,
      "d": 5178.571083333285,
      "v": 100
    },
    {
      "midi": 62,
      "hit": false,
      "t": 274339.267425,
      "d": 5124.999658333312,
      "v": 100
    },
    {
      "midi": 55,
      "hit": false,
      "t": 276428.55299999996,
      "d": 6428.570999999996,
      "v": 65
    },
    {
      "midi": 59,
      "hit": false,
      "t": 276428.55299999996,
      "d": 6428.570999999996,
      "v": 65
    },
    {
      "midi": 62,
      "hit": false,
      "t": 276428.55299999996,
      "d": 6428.570999999996,
      "v": 65
    },
    {
      "midi": 67,
      "hit": false,
      "t": 283178.55255,
      "d": 3535.7140499999514,
      "v": 100
    },
    {
      "midi": 64,
      "hit": false,
      "t": 283196.40969166666,
      "d": 3660.7140416666516,
      "v": 100
    },
    {
      "midi": 55,
      "hit": false,
      "t": 284999.98099999997,
      "d": 6428.570999999996,
      "v": 65
    },
    {
      "midi": 59,
      "hit": false,
      "t": 284999.98099999997,
      "d": 6428.570999999996,
      "v": 65
    },
    {
      "midi": 64,
      "hit": false,
      "t": 284999.98099999997,
      "d": 6428.570999999996,
      "v": 65
    },
    {
      "midi": 59,
      "hit": false,
      "t": 287410.69512499997,
      "d": 1553.5713250000263,
      "v": 100
    },
    {
      "midi": 64,
      "hit": false,
      "t": 287446.4094083333,
      "d": 1999.9998666666797,
      "v": 100
    },
    {
      "midi": 60,
      "hit": false,
      "t": 291428.55199999997,
      "d": 8464.28515000001,
      "v": 65
    },
    {
      "midi": 64,
      "hit": false,
      "t": 291428.55199999997,
      "d": 8464.28515000001,
      "v": 65
    },
    {
      "midi": 67,
      "hit": false,
      "t": 291428.55199999997,
      "d": 8464.28515000001,
      "v": 65
    },
    {
      "midi": 69,
      "hit": false,
      "t": 291428.55199999997,
      "d": 8464.28515000001,
      "v": 65
    },
    {
      "midi": 60,
      "hit": false,
      "t": 291446.40914166666,
      "d": 3017.8569416666287,
      "v": 100
    },
    {
      "midi": 64,
      "hit": false,
      "t": 291499.98056666664,
      "d": 3089.285508333298,
      "v": 100
    },
    {
      "midi": 67,
      "hit": false,
      "t": 291535.69484999997,
      "d": 2999.9997999999905,
      "v": 100
    },
    {
      "midi": 64,
      "hit": false,
      "t": 295982.1231249999,
      "d": 4339.285424999951,
      "v": 100
    },
    {
      "midi": 60,
      "hit": false,
      "t": 295999.98026666656,
      "d": 4178.571149999974,
      "v": 100
    },
    {
      "midi": 67,
      "hit": false,
      "t": 296071.40883333323,
      "d": 4410.71399166662,
      "v": 100
    },
    {
      "midi": 60,
      "hit": false,
      "t": 299999.98,
      "d": 8464.28515000001,
      "v": 65
    },
    {
      "midi": 64,
      "hit": false,
      "t": 299999.98,
      "d": 8464.28515000001,
      "v": 65
    },
    {
      "midi": 67,
      "hit": false,
      "t": 299999.98,
      "d": 8464.28515000001,
      "v": 65
    },
    {
      "midi": 69,
      "hit": false,
      "t": 299999.98,
      "d": 8464.28515000001,
      "v": 65
    },
    {
      "midi": 57,
      "hit": false,
      "t": 302267.83699166647,
      "d": 4660.713974999962,
      "v": 100
    },
    {
      "midi": 60,
      "hit": false,
      "t": 304357.12256666645,
      "d": 2946.4283749999595,
      "v": 100
    },
    {
      "midi": 55,
      "hit": false,
      "t": 308571.408,
      "d": 8464.28515000001,
      "v": 65
    },
    {
      "midi": 59,
      "hit": false,
      "t": 308571.408,
      "d": 8464.28515000001,
      "v": 65
    },
    {
      "midi": 62,
      "hit": false,
      "t": 308571.408,
      "d": 8464.28515000001,
      "v": 65
    },
    {
      "midi": 67,
      "hit": false,
      "t": 312928.5505666664,
      "d": 1982.1427249999833,
      "v": 100
    },
    {
      "midi": 62,
      "hit": false,
      "t": 312964.26484999974,
      "d": 2035.7141499999561,
      "v": 100
    },
    {
      "midi": 64,
      "hit": false,
      "t": 317035.6931499997,
      "d": 3607.1426166666206,
      "v": 100
    },
    {
      "midi": 59,
      "hit": false,
      "t": 317053.55029166635,
      "d": 3410.7140583333094,
      "v": 100
    },
    {
      "midi": 55,
      "hit": false,
      "t": 319285.693,
      "d": 6428.570999999996,
      "v": 65
    },
    {
      "midi": 59,
      "hit": false,
      "t": 319285.693,
      "d": 6428.570999999996,
      "v": 65
    },
    {
      "midi": 64,
      "hit": false,
      "t": 319285.693,
      "d": 6428.570999999996,
      "v": 65
    },
    {
      "midi": 59,
      "hit": false,
      "t": 321321.4071499997,
      "d": 1374.999908333295,
      "v": 100
    },
    {
      "midi": 64,
      "hit": false,
      "t": 321374.97857499967,
      "d": 1553.571324999968,
      "v": 100
    },
    {
      "midi": 60,
      "hit": false,
      "t": 325642.83543333295,
      "d": 3178.5712166666635,
      "v": 100
    },
    {
      "midi": 64,
      "hit": false,
      "t": 325678.5497166663,
      "d": 3160.714074999967,
      "v": 100
    },
    {
      "midi": 60,
      "hit": false,
      "t": 325714.264,
      "d": 8464.28515000001,
      "v": 65
    },
    {
      "midi": 64,
      "hit": false,
      "t": 325714.264,
      "d": 8464.28515000001,
      "v": 65
    },
    {
      "midi": 67,
      "hit": false,
      "t": 325714.264,
      "d": 8464.28515000001,
      "v": 65
    },
    {
      "midi": 69,
      "hit": false,
      "t": 325714.264,
      "d": 8464.28515000001,
      "v": 65
    },
    {
      "midi": 64,
      "hit": false,
      "t": 330053.54942499957,
      "d": 4464.285416666651,
      "v": 100
    },
    {
      "midi": 60,
      "hit": false,
      "t": 330107.12084999954,
      "d": 4714.285399999993,
      "v": 100
    },
    {
      "midi": 57,
      "hit": false,
      "t": 336428.54900000006,
      "d": 6428.570999999996,
      "v": 65
    },
    {
      "midi": 60,
      "hit": false,
      "t": 336428.54900000006,
      "d": 6428.570999999996,
      "v": 65
    },
    {
      "midi": 64,
      "hit": false,
      "t": 336428.54900000006,
      "d": 6428.570999999996,
      "v": 65
    },
    {
      "midi": 67,
      "hit": false,
      "t": 336428.54900000006,
      "d": 6428.570999999996,
      "v": 65
    },
    {
      "midi": 64,
      "hit": false,
      "t": 338678.54884999956,
      "d": 1821.4284499999485,
      "v": 100
    },
    {
      "midi": 67,
      "hit": false,
      "t": 338696.4059916662,
      "d": 1803.5713083333103,
      "v": 100
    },
    {
      "midi": 60,
      "hit": false,
      "t": 338696.4059916662,
      "d": 1946.4284416666487,
      "v": 100
    },
    {
      "midi": 59,
      "hit": false,
      "t": 342857.1199999995,
      "d": 2053.5712916666525,
      "v": 100
    },
    {
      "midi": 67,
      "hit": false,
      "t": 342857.1199999995,
      "d": 2089.285574999987,
      "v": 100
    },
    {
      "midi": 62,
      "hit": false,
      "t": 342857.1199999995,
      "d": 2142.85699999996,
      "v": 100
    },
    {
      "midi": 55,
      "hit": false,
      "t": 344999.9770000001,
      "d": 6428.570999999996,
      "v": 65
    },
    {
      "midi": 59,
      "hit": false,
      "t": 344999.9770000001,
      "d": 6428.570999999996,
      "v": 65
    },
    {
      "midi": 62,
      "hit": false,
      "t": 344999.9770000001,
      "d": 6428.570999999996,
      "v": 65
    },
    {
      "midi": 67,
      "hit": false,
      "t": 347321.4054166661,
      "d": 803.5713749999413,
      "v": 100
    },
    {
      "midi": 62,
      "hit": false,
      "t": 347374.9768416661,
      "d": 660.7142416666611,
      "v": 100
    },
    {
      "midi": 64,
      "hit": false,
      "t": 349392.8338499994,
      "d": 4714.285399999935,
      "v": 100
    },
    {
      "midi": 60,
      "hit": false,
      "t": 349428.54813333275,
      "d": 4678.571116666601,
      "v": 100
    },
    {
      "midi": 67,
      "hit": false,
      "t": 349446.4052749994,
      "d": 4660.713974999962,
      "v": 100
    },
    {
      "midi": 60,
      "hit": false,
      "t": 351428.54800000007,
      "d": 8464.28515000001,
      "v": 65
    },
    {
      "midi": 64,
      "hit": false,
      "t": 351428.54800000007,
      "d": 8464.28515000001,
      "v": 65
    },
    {
      "midi": 67,
      "hit": false,
      "t": 351428.54800000007,
      "d": 8464.28515000001,
      "v": 65
    },
    {
      "midi": 69,
      "hit": false,
      "t": 351428.54800000007,
      "d": 8464.28515000001,
      "v": 65
    },
    {
      "midi": 64,
      "hit": false,
      "t": 355660.6905749994,
      "d": 1464.2856166666606,
      "v": 100
    },
    {
      "midi": 60,
      "hit": false,
      "t": 355696.4048583327,
      "d": 1499.9998999999953,
      "v": 100
    },
    {
      "midi": 67,
      "hit": false,
      "t": 355696.4048583327,
      "d": 1535.7141833333299,
      "v": 100
    },
    {
      "midi": 55,
      "hit": false,
      "t": 362142.8330000001,
      "d": 6428.570999999996,
      "v": 65
    },
    {
      "midi": 59,
      "hit": false,
      "t": 362142.8330000001,
      "d": 6428.570999999996,
      "v": 65
    },
    {
      "midi": 62,
      "hit": false,
      "t": 362142.8330000001,
      "d": 6428.570999999996,
      "v": 65
    },
    {
      "midi": 67,
      "hit": false,
      "t": 362214.261566666,
      "d": 3482.1426249999786,
      "v": 100
    },
    {
      "midi": 62,
      "hit": false,
      "t": 362267.832991666,
      "d": 3535.7140500000096,
      "v": 100
    },
    {
      "midi": 67,
      "hit": false,
      "t": 366428.5469999993,
      "d": 1374.9999083333532,
      "v": 100
    },
    {
      "midi": 64,
      "hit": false,
      "t": 368517.8325749993,
      "d": 3214.28549999994,
      "v": 100
    },
    {
      "midi": 60,
      "hit": false,
      "t": 368571.4039999993,
      "d": 3071.4283666666597,
      "v": 100
    },
    {
      "midi": 55,
      "hit": false,
      "t": 370714.2610000001,
      "d": 6428.570999999996,
      "v": 65
    },
    {
      "midi": 60,
      "hit": false,
      "t": 370714.2610000001,
      "d": 6428.570999999996,
      "v": 65
    },
    {
      "midi": 64,
      "hit": false,
      "t": 370714.2610000001,
      "d": 6428.570999999996,
      "v": 65
    },
    {
      "midi": 64,
      "hit": false,
      "t": 372857.11799999926,
      "d": 1017.857074999949,
      "v": 100
    },
    {
      "midi": 60,
      "hit": false,
      "t": 372910.68942499923,
      "d": 1071.42849999998,
      "v": 100
    },
    {
      "midi": 59,
      "hit": false,
      "t": 377053.5462916659,
      "d": 5517.856774999935,
      "v": 100
    },
    {
      "midi": 62,
      "hit": false,
      "t": 377071.4034333325,
      "d": 5910.713891666615,
      "v": 100
    },
    {
      "midi": 67,
      "hit": false,
      "t": 377071.4034333325,
      "d": 5910.713891666615,
      "v": 100
    },
    {
      "midi": 55,
      "hit": false,
      "t": 377142.8320000001,
      "d": 8464.28515000001,
      "v": 65
    },
    {
      "midi": 59,
      "hit": false,
      "t": 377142.8320000001,
      "d": 8464.28515000001,
      "v": 65
    },
    {
      "midi": 62,
      "hit": false,
      "t": 377142.8320000001,
      "d": 8464.28515000001,
      "v": 65
    },
    {
      "midi": 64,
      "hit": false,
      "t": 385660.6885749991,
      "d": 3285.7140666666673,
      "v": 100
    },
    {
      "midi": 60,
      "hit": false,
      "t": 385696.40285833244,
      "d": 3214.285499999998,
      "v": 100
    },
    {
      "midi": 57,
      "hit": false,
      "t": 385714.2600000001,
      "d": 8464.28515000001,
      "v": 65
    },
    {
      "midi": 60,
      "hit": false,
      "t": 385714.2600000001,
      "d": 8464.28515000001,
      "v": 65
    },
    {
      "midi": 64,
      "hit": false,
      "t": 385714.2600000001,
      "d": 8464.28515000001,
      "v": 65
    },
    {
      "midi": 67,
      "hit": false,
      "t": 385714.2600000001,
      "d": 8464.28515000001,
      "v": 65
    },
    {
      "midi": 64,
      "hit": false,
      "t": 390035.68828333245,
      "d": 2803.571241666621,
      "v": 100
    },
    {
      "midi": 60,
      "hit": false,
      "t": 390053.5454249991,
      "d": 2339.2855583333294,
      "v": 100
    },
    {
      "midi": 55,
      "hit": false,
      "t": 396428.54500000016,
      "d": 6428.570999999996,
      "v": 65
    },
    {
      "midi": 59,
      "hit": false,
      "t": 396428.54500000016,
      "d": 6428.570999999996,
      "v": 65
    },
    {
      "midi": 62,
      "hit": false,
      "t": 396428.54500000016,
      "d": 6428.570999999996,
      "v": 65
    },
    {
      "midi": 62,
      "hit": false,
      "t": 396553.54499166575,
      "d": 2017.857008333318,
      "v": 100
    },
    {
      "midi": 59,
      "hit": false,
      "t": 398696.4019916657,
      "d": 2267.85699166666,
      "v": 100
    },
    {
      "midi": 60,
      "hit": false,
      "t": 400767.83042499906,
      "d": 2892.8569499999867,
      "v": 100
    },
    {
      "midi": 60,
      "hit": false,
      "t": 402857.11600000015,
      "d": 8464.28515000001,
      "v": 65
    },
    {
      "midi": 64,
      "hit": false,
      "t": 402857.11600000015,
      "d": 8464.28515000001,
      "v": 65
    },
    {
      "midi": 67,
      "hit": false,
      "t": 402857.11600000015,
      "d": 8464.28515000001,
      "v": 65
    },
    {
      "midi": 69,
      "hit": false,
      "t": 402857.11600000015,
      "d": 8464.28515000001,
      "v": 65
    },
    {
      "midi": 59,
      "hit": false,
      "t": 407124.9728583324,
      "d": 1660.7141749999719,
      "v": 100
    },
    {
      "midi": 62,
      "hit": false,
      "t": 407178.54428333236,
      "d": 2017.857008333318,
      "v": 100
    },
    {
      "midi": 64,
      "hit": false,
      "t": 409428.5441333323,
      "d": 821.4285166666377,
      "v": 100
    },
    {
      "midi": 62,
      "hit": false,
      "t": 411553.54399166565,
      "d": 4499.999699999986,
      "v": 100
    },
    {
      "midi": 66,
      "hit": false,
      "t": 411553.54399166565,
      "d": 5285.713933333289,
      "v": 100
    },
    {
      "midi": 54,
      "hit": false,
      "t": 413571.4010000002,
      "d": 6428.570999999996,
      "v": 65
    },
    {
      "midi": 59,
      "hit": false,
      "t": 413571.4010000002,
      "d": 6428.570999999996,
      "v": 65
    },
    {
      "midi": 62,
      "hit": false,
      "t": 413571.4010000002,
      "d": 6428.570999999996,
      "v": 65
    },
    {
      "midi": 59,
      "hit": false,
      "t": 413749.97241666564,
      "d": 2321.428416666633,
      "v": 100
    },
    {
      "midi": 57,
      "hit": false,
      "t": 415821.400849999,
      "d": 821.4285166666377,
      "v": 100
    },
    {
      "midi": 60,
      "hit": false,
      "t": 419999.97199999896,
      "d": 4660.713974999904,
      "v": 100
    },
    {
      "midi": 60,
      "hit": false,
      "t": 419999.9720000002,
      "d": 8464.28515000001,
      "v": 65
    },
    {
      "midi": 64,
      "hit": false,
      "t": 419999.9720000002,
      "d": 8464.28515000001,
      "v": 65
    },
    {
      "midi": 67,
      "hit": false,
      "t": 419999.9720000002,
      "d": 8464.28515000001,
      "v": 65
    },
    {
      "midi": 69,
      "hit": false,
      "t": 419999.9720000002,
      "d": 8464.28515000001,
      "v": 65
    },
    {
      "midi": 64,
      "hit": false,
      "t": 420017.8291416656,
      "d": 6392.8567166666035,
      "v": 100
    },
    {
      "midi": 55,
      "hit": false,
      "t": 420053.54342499893,
      "d": 2214.285566666629,
      "v": 100
    },
    {
      "midi": 57,
      "hit": false,
      "t": 424392.8288499989,
      "d": 1892.857016666676,
      "v": 100
    },
    {
      "midi": 55,
      "hit": false,
      "t": 428571.4000000002,
      "d": 8464.28515000001,
      "v": 65
    },
    {
      "midi": 59,
      "hit": false,
      "t": 428571.4000000002,
      "d": 8464.28515000001,
      "v": 65
    },
    {
      "midi": 62,
      "hit": false,
      "t": 428571.4000000002,
      "d": 8464.28515000001,
      "v": 65
    },
    {
      "midi": 62,
      "hit": false,
      "t": 432749.9711499989,
      "d": 2232.1427083333256,
      "v": 100
    },
    {
      "midi": 59,
      "hit": false,
      "t": 432821.39971666556,
      "d": 1749.9998833333375,
      "v": 100
    },
    {
      "midi": 57,
      "hit": false,
      "t": 437196.3994249989,
      "d": 6660.713841666642,
      "v": 100
    },
    {
      "midi": 60,
      "hit": false,
      "t": 437214.25656666554,
      "d": 6214.285299999989,
      "v": 100
    },
    {
      "midi": 60,
      "hit": false,
      "t": 439285.68500000023,
      "d": 6428.570999999996,
      "v": 65
    },
    {
      "midi": 64,
      "hit": false,
      "t": 439285.68500000023,
      "d": 6428.570999999996,
      "v": 65
    },
    {
      "midi": 67,
      "hit": false,
      "t": 439285.68500000023,
      "d": 6428.570999999996,
      "v": 65
    },
    {
      "midi": 69,
      "hit": false,
      "t": 439285.68500000023,
      "d": 6428.570999999996,
      "v": 65
    },
    {
      "midi": 60,
      "hit": false,
      "t": 445607.1131499989,
      "d": 3107.1426499999943,
      "v": 100
    },
    {
      "midi": 62,
      "hit": false,
      "t": 445714.2560000002,
      "d": 4892.856816666725,
      "v": 39
    },
    {
      "midi": 67,
      "hit": false,
      "t": 445714.2560000002,
      "d": 14571.427600000054,
      "v": 71
    },
    {
      "midi": 69,
      "hit": false,
      "t": 445714.2560000002,
      "d": 14571.427600000054,
      "v": 63
    },
    {
      "midi": 50,
      "hit": false,
      "t": 447857.11300000024,
      "d": 12892.856283333385,
      "v": 71
    },
    {
      "midi": 55,
      "hit": false,
      "t": 449999.97000000026,
      "d": 2571.4284000000334,
      "v": 60
    },
    {
      "midi": 60,
      "hit": false,
      "t": 450053.5414249989,
      "d": 2089.285574999987,
      "v": 100
    },
    {
      "midi": 64,
      "hit": false,
      "t": 452053.5412916656,
      "d": 2339.2855583333294,
      "v": 100
    },
    {
      "midi": 57,
      "hit": false,
      "t": 452142.8270000003,
      "d": 8249.999450000003,
      "v": 74
    },
    {
      "midi": 67,
      "hit": false,
      "t": 454392.8268499989,
      "d": 2089.285574999987,
      "v": 100
    },
    {
      "midi": 66,
      "hit": false,
      "t": 456303.5410083322,
      "d": 2232.1427083333256,
      "v": 100
    },
    {
      "midi": 64,
      "hit": false,
      "t": 458339.25515833223,
      "d": 2232.1427083333256,
      "v": 100
    },
    {
      "midi": 62,
      "hit": false,
      "t": 460696.3978583322,
      "d": 8464.285149999952,
      "v": 100
    },
    {
      "midi": 59,
      "hit": false,
      "t": 463053.54055833217,
      "d": 6089.285308333347,
      "v": 100
    },
    {
      "midi": 55,
      "hit": false,
      "t": 464999.9690000003,
      "d": 6428.570999999996,
      "v": 65
    },
    {
      "midi": 59,
      "hit": false,
      "t": 464999.9690000003,
      "d": 6428.570999999996,
      "v": 65
    },
    {
      "midi": 62,
      "hit": false,
      "t": 464999.9690000003,
      "d": 6428.570999999996,
      "v": 65
    },
    {
      "midi": 67,
      "hit": false,
      "t": 465071.3975666655,
      "d": 3964.285450000025,
      "v": 100
    },
    {
      "midi": 62,
      "hit": false,
      "t": 469517.8258416655,
      "d": 553.5713916666573,
      "v": 100
    },
    {
      "midi": 59,
      "hit": false,
      "t": 469589.25440833217,
      "d": 571.4285333332955,
      "v": 100
    },
    {
      "midi": 67,
      "hit": false,
      "t": 469624.9686916655,
      "d": 482.1428249999881,
      "v": 100
    },
    {
      "midi": 60,
      "hit": false,
      "t": 471428.54000000027,
      "d": 8464.28515000001,
      "v": 65
    },
    {
      "midi": 64,
      "hit": false,
      "t": 471428.54000000027,
      "d": 8464.28515000001,
      "v": 65
    },
    {
      "midi": 67,
      "hit": false,
      "t": 471428.54000000027,
      "d": 8464.28515000001,
      "v": 65
    },
    {
      "midi": 69,
      "hit": false,
      "t": 471428.54000000027,
      "d": 8464.28515000001,
      "v": 65
    },
    {
      "midi": 67,
      "hit": false,
      "t": 471482.1114249988,
      "d": 7089.285241666657,
      "v": 100
    },
    {
      "midi": 57,
      "hit": false,
      "t": 471517.8257083321,
      "d": 6160.713875000016,
      "v": 100
    },
    {
      "midi": 60,
      "hit": false,
      "t": 471553.53999166546,
      "d": 6678.5709833333385,
      "v": 100
    },
    {
      "midi": 55,
      "hit": false,
      "t": 479999.9680000003,
      "d": 9642.856499999994,
      "v": 84
    },
    {
      "midi": 57,
      "hit": false,
      "t": 479999.9680000003,
      "d": 9642.856499999994,
      "v": 84
    },
    {
      "midi": 62,
      "hit": false,
      "t": 479999.9680000003,
      "d": 9642.856499999994,
      "v": 84
    },
    {
      "midi": 62,
      "hit": false,
      "t": 482339.2535583321,
      "d": 2535.7141166666406,
      "v": 100
    },
    {
      "midi": 64,
      "hit": false,
      "t": 484392.82484999875,
      "d": 2321.428416666575,
      "v": 100
    },
    {
      "midi": 67,
      "hit": false,
      "t": 486517.824708332,
      "d": 1678.5713166666683,
      "v": 100
    },
    {
      "midi": 72,
      "hit": false,
      "t": 488624.9674249987,
      "d": 1892.8570166666177,
      "v": 100
    },
    {
      "midi": 64,
      "hit": false,
      "t": 488624.9674249987,
      "d": 2107.142716666567,
      "v": 100
    },
    {
      "midi": 62,
      "hit": false,
      "t": 490714.2529999986,
      "d": 1357.1427666666568,
      "v": 100
    },
    {
      "midi": 55,
      "hit": false,
      "t": 490714.25300000026,
      "d": 1428.571333333326,
      "v": 81
    },
    {
      "midi": 57,
      "hit": false,
      "t": 490714.25300000026,
      "d": 1428.571333333326,
      "v": 81
    },
    {
      "midi": 62,
      "hit": false,
      "t": 490714.25300000026,
      "d": 1428.571333333326,
      "v": 81
    },
    {
      "midi": 71,
      "hit": false,
      "t": 490732.11014166527,
      "d": 2249.999850000022,
      "v": 100
    },
    {
      "midi": 60,
      "hit": false,
      "t": 492607.1100166653,
      "d": 892.857083333307,
      "v": 100
    },
    {
      "midi": 69,
      "hit": false,
      "t": 492946.39570833195,
      "d": 1892.857016666676,
      "v": 100
    },
    {
      "midi": 67,
      "hit": false,
      "t": 494964.2527166653,
      "d": 999.9999333333108,
      "v": 100
    },
    {
      "midi": 71,
      "hit": false,
      "t": 497107.10971666523,
      "d": 5124.9996583333705,
      "v": 100
    },
    {
      "midi": 74,
      "hit": false,
      "t": 497142.82399999857,
      "d": 4982.142525000032,
      "v": 100
    },
    {
      "midi": 62,
      "hit": false,
      "t": 497178.5382833319,
      "d": 5107.142516666674,
      "v": 100
    },
    {
      "midi": 55,
      "hit": false,
      "t": 499285.6810000003,
      "d": 6428.570999999996,
      "v": 65
    },
    {
      "midi": 59,
      "hit": false,
      "t": 499285.6810000003,
      "d": 6428.570999999996,
      "v": 65
    },
    {
      "midi": 62,
      "hit": false,
      "t": 499285.6810000003,
      "d": 6428.570999999996,
      "v": 65
    },
    {
      "midi": 64,
      "hit": false,
      "t": 505732.1091416652,
      "d": 5571.428199999966,
      "v": 100
    },
    {
      "midi": 60,
      "hit": false,
      "t": 505803.53770833183,
      "d": 5357.142500000016,
      "v": 100
    },
    {
      "midi": 57,
      "hit": false,
      "t": 507857.1090000003,
      "d": 6428.570999999996,
      "v": 65
    },
    {
      "midi": 60,
      "hit": false,
      "t": 507857.1090000003,
      "d": 6428.570999999996,
      "v": 65
    },
    {
      "midi": 64,
      "hit": false,
      "t": 507857.1090000003,
      "d": 6428.570999999996,
      "v": 65
    },
    {
      "midi": 64,
      "hit": false,
      "t": 512071.39443333185,
      "d": 1517.8570416666917,
      "v": 100
    },
    {
      "midi": 60,
      "hit": false,
      "t": 512107.1087166652,
      "d": 982.1427916666726,
      "v": 100
    },
    {
      "midi": 62,
      "hit": false,
      "t": 514285.6799999985,
      "d": 4874.99967499997,
      "v": 100
    },
    {
      "midi": 55,
      "hit": false,
      "t": 514285.6800000003,
      "d": 8464.28515000001,
      "v": 65
    },
    {
      "midi": 59,
      "hit": false,
      "t": 514285.6800000003,
      "d": 8464.28515000001,
      "v": 65
    },
    {
      "midi": 62,
      "hit": false,
      "t": 514285.6800000003,
      "d": 8464.28515000001,
      "v": 65
    },
    {
      "midi": 67,
      "hit": false,
      "t": 514339.25142499845,
      "d": 4910.713958333305,
      "v": 100
    },
    {
      "midi": 64,
      "hit": false,
      "t": 520678.5367166651,
      "d": 6892.85668333323,
      "v": 100
    },
    {
      "midi": 60,
      "hit": false,
      "t": 520714.2509999984,
      "d": 6749.9995499999495,
      "v": 100
    },
    {
      "midi": 55,
      "hit": false,
      "t": 524999.9650000003,
      "d": 6428.570999999996,
      "v": 65
    },
    {
      "midi": 60,
      "hit": false,
      "t": 524999.9650000003,
      "d": 6428.570999999996,
      "v": 65
    },
    {
      "midi": 64,
      "hit": false,
      "t": 524999.9650000003,
      "d": 6428.570999999996,
      "v": 65
    },
    {
      "midi": 64,
      "hit": false,
      "t": 529267.8218583317,
      "d": 874.9999416666105,
      "v": 100
    },
    {
      "midi": 60,
      "hit": false,
      "t": 529339.2504249983,
      "d": 678.5713833332993,
      "v": 100
    },
    {
      "midi": 67,
      "hit": false,
      "t": 531428.5359999983,
      "d": 5267.856791666709,
      "v": 100
    },
    {
      "midi": 62,
      "hit": false,
      "t": 531428.5359999983,
      "d": 5357.1425000000745,
      "v": 100
    },
    {
      "midi": 38,
      "hit": false,
      "t": 533571.3930000003,
      "d": 14678.570449999883,
      "v": 84
    },
    {
      "midi": 59,
      "hit": false,
      "t": 535714.2500000002,
      "d": 12428.570599999977,
      "v": 74
    },
    {
      "midi": 62,
      "hit": false,
      "t": 537857.1070000002,
      "d": 9857.142200000002,
      "v": 63
    },
    {
      "midi": 67,
      "hit": false,
      "t": 537857.1070000002,
      "d": 9857.142200000002,
      "v": 81
    },
    {
      "midi": 62,
      "hit": false,
      "t": 538017.8212749984,
      "d": 6982.142391666654,
      "v": 100
    },
    {
      "midi": 67,
      "hit": false,
      "t": 538089.249841665,
      "d": 6946.428108333261,
      "v": 100
    },
    {
      "midi": 62,
      "hit": false,
      "t": 546428.5349999983,
      "d": 1446.4284749999642,
      "v": 100
    },
    {
      "midi": 67,
      "hit": false,
      "t": 547607.1063499983,
      "d": 10178.570749999839,
      "v": 100
    },
    {
      "midi": 60,
      "hit": false,
      "t": 548571.3920000001,
      "d": 4892.85681666655,
      "v": 39
    },
    {
      "midi": 67,
      "hit": false,
      "t": 548571.3920000001,
      "d": 14571.427599999937,
      "v": 71
    },
    {
      "midi": 69,
      "hit": false,
      "t": 548571.3920000001,
      "d": 14571.427599999937,
      "v": 63
    },
    {
      "midi": 64,
      "hit": false,
      "t": 548589.2491416648,
      "d": 8999.999399999972,
      "v": 100
    },
    {
      "midi": 60,
      "hit": false,
      "t": 548660.6777083315,
      "d": 9196.427958333283,
      "v": 100
    },
    {
      "midi": 50,
      "hit": false,
      "t": 550714.2490000001,
      "d": 12892.856283333269,
      "v": 71
    },
    {
      "midi": 55,
      "hit": false,
      "t": 552857.106,
      "d": 2571.428399999975,
      "v": 60
    },
    {
      "midi": 57,
      "hit": false,
      "t": 554999.963,
      "d": 8249.999450000003,
      "v": 74
    },
    {
      "midi": 60,
      "hit": false,
      "t": 561339.2482916648,
      "d": 1892.8570166665595,
      "v": 100
    },
    {
      "midi": 67,
      "hit": false,
      "t": 561374.962574998,
      "d": 1785.714166666614,
      "v": 100
    },
    {
      "midi": 64,
      "hit": false,
      "t": 561410.6768583313,
      "d": 1678.5713166666683,
      "v": 100
    },
    {
      "midi": 62,
      "hit": false,
      "t": 565517.8194416647,
      "d": 3821.428316666512,
      "v": 100
    },
    {
      "midi": 59,
      "hit": false,
      "t": 565535.6765833314,
      "d": 3732.1426083332626,
      "v": 100
    },
    {
      "midi": 67,
      "hit": false,
      "t": 565607.1051499981,
      "d": 3696.42832499987,
      "v": 100
    },
    {
      "midi": 55,
      "hit": false,
      "t": 565714.248,
      "d": 8464.28515000001,
      "v": 65
    },
    {
      "midi": 59,
      "hit": false,
      "t": 565714.248,
      "d": 8464.28515000001,
      "v": 65
    },
    {
      "midi": 62,
      "hit": false,
      "t": 565714.248,
      "d": 8464.28515000001,
      "v": 65
    },
    {
      "midi": 64,
      "hit": false,
      "t": 574160.6760083314,
      "d": 2732.1426749998936,
      "v": 100
    },
    {
      "midi": 67,
      "hit": false,
      "t": 574196.3902916646,
      "d": 2821.4283833332593,
      "v": 100
    },
    {
      "midi": 55,
      "hit": false,
      "t": 574285.676,
      "d": 8464.28515000001,
      "v": 65
    },
    {
      "midi": 59,
      "hit": false,
      "t": 574285.676,
      "d": 8464.28515000001,
      "v": 65
    },
    {
      "midi": 64,
      "hit": false,
      "t": 574285.676,
      "d": 8464.28515000001,
      "v": 65
    },
    {
      "midi": 64,
      "hit": false,
      "t": 578571.3899999979,
      "d": 3624.9997583334334,
      "v": 100
    },
    {
      "midi": 59,
      "hit": false,
      "t": 578624.9614249979,
      "d": 3196.428358333418,
      "v": 100
    },
    {
      "midi": 64,
      "hit": false,
      "t": 582910.675424998,
      "d": 3053.5712250000797,
      "v": 100
    },
    {
      "midi": 60,
      "hit": false,
      "t": 582999.9611333314,
      "d": 2910.7140916667413,
      "v": 100
    },
    {
      "midi": 67,
      "hit": false,
      "t": 583071.3896999981,
      "d": 2607.142683333368,
      "v": 100
    },
    {
      "midi": 60,
      "hit": false,
      "t": 584999.961,
      "d": 6428.570999999996,
      "v": 65
    },
    {
      "midi": 64,
      "hit": false,
      "t": 584999.961,
      "d": 6428.570999999996,
      "v": 65
    },
    {
      "midi": 67,
      "hit": false,
      "t": 584999.961,
      "d": 6428.570999999996,
      "v": 65
    },
    {
      "midi": 69,
      "hit": false,
      "t": 584999.961,
      "d": 6428.570999999996,
      "v": 65
    },
    {
      "midi": 60,
      "hit": false,
      "t": 587339.2465583314,
      "d": 6107.142449999927,
      "v": 100
    },
    {
      "midi": 64,
      "hit": false,
      "t": 587357.1036999981,
      "d": 6410.713858333183,
      "v": 100
    },
    {
      "midi": 67,
      "hit": false,
      "t": 587464.2465499981,
      "d": 6053.571024999954,
      "v": 100
    },
    {
      "midi": 60,
      "hit": false,
      "t": 593571.389,
      "d": 6428.570999999996,
      "v": 65
    },
    {
      "midi": 64,
      "hit": false,
      "t": 593571.389,
      "d": 6428.570999999996,
      "v": 65
    },
    {
      "midi": 67,
      "hit": false,
      "t": 593571.389,
      "d": 6428.570999999996,
      "v": 65
    },
    {
      "midi": 69,
      "hit": false,
      "t": 593571.389,
      "d": 6428.570999999996,
      "v": 65
    },
    {
      "midi": 57,
      "hit": false,
      "t": 593767.8175583313,
      "d": 2017.857008333318,
      "v": 100
    },
    {
      "midi": 60,
      "hit": false,
      "t": 595732.1031416646,
      "d": 3785.714033333352,
      "v": 100
    },
    {
      "midi": 64,
      "hit": false,
      "t": 595803.5317083313,
      "d": 3714.2854666666826,
      "v": 100
    },
    {
      "midi": 55,
      "hit": false,
      "t": 599999.96,
      "d": 8464.28515000001,
      "v": 65
    },
    {
      "midi": 59,
      "hit": false,
      "t": 599999.96,
      "d": 8464.28515000001,
      "v": 65
    },
    {
      "midi": 62,
      "hit": false,
      "t": 599999.96,
      "d": 8464.28515000001,
      "v": 65
    },
    {
      "midi": 67,
      "hit": false,
      "t": 604357.1025666647,
      "d": 1874.9998749999795,
      "v": 100
    },
    {
      "midi": 62,
      "hit": false,
      "t": 604392.816849998,
      "d": 2339.2855583333876,
      "v": 100
    },
    {
      "midi": 59,
      "hit": false,
      "t": 608517.816574998,
      "d": 3053.5712249999633,
      "v": 100
    },
    {
      "midi": 64,
      "hit": false,
      "t": 608553.5308583312,
      "d": 3214.285499999998,
      "v": 100
    },
    {
      "midi": 55,
      "hit": false,
      "t": 610714.245,
      "d": 6428.570999999996,
      "v": 65
    },
    {
      "midi": 59,
      "hit": false,
      "t": 610714.245,
      "d": 6428.570999999996,
      "v": 65
    },
    {
      "midi": 64,
      "hit": false,
      "t": 610714.245,
      "d": 6428.570999999996,
      "v": 65
    },
    {
      "midi": 64,
      "hit": false,
      "t": 612946.3877083312,
      "d": 1517.8570416666334,
      "v": 100
    },
    {
      "midi": 59,
      "hit": false,
      "t": 612982.1019916645,
      "d": 1178.5713499999838,
      "v": 100
    },
    {
      "midi": 64,
      "hit": false,
      "t": 617071.3874333312,
      "d": 2928.5712333333213,
      "v": 100
    },
    {
      "midi": 60,
      "hit": false,
      "t": 617142.8159999979,
      "d": 2839.2855249999557,
      "v": 100
    },
    {
      "midi": 60,
      "hit": false,
      "t": 617142.816,
      "d": 8464.28515000001,
      "v": 65
    },
    {
      "midi": 64,
      "hit": false,
      "t": 617142.816,
      "d": 8464.28515000001,
      "v": 65
    },
    {
      "midi": 67,
      "hit": false,
      "t": 617142.816,
      "d": 8464.28515000001,
      "v": 65
    },
    {
      "midi": 69,
      "hit": false,
      "t": 617142.816,
      "d": 8464.28515000001,
      "v": 65
    },
    {
      "midi": 64,
      "hit": false,
      "t": 621642.8156999978,
      "d": 3964.2854499999667,
      "v": 100
    },
    {
      "midi": 60,
      "hit": false,
      "t": 621714.2442666645,
      "d": 3749.999749999959,
      "v": 100
    },
    {
      "midi": 60,
      "hit": false,
      "t": 625714.244,
      "d": 8464.28515000001,
      "v": 65
    },
    {
      "midi": 64,
      "hit": false,
      "t": 625714.244,
      "d": 8464.28515000001,
      "v": 65
    },
    {
      "midi": 67,
      "hit": false,
      "t": 625714.244,
      "d": 8464.28515000001,
      "v": 65
    },
    {
      "midi": 69,
      "hit": false,
      "t": 625714.244,
      "d": 8464.28515000001,
      "v": 65
    },
    {
      "midi": 64,
      "hit": false,
      "t": 629999.9579999978,
      "d": 1714.2855999999447,
      "v": 100
    },
    {
      "midi": 60,
      "hit": false,
      "t": 630053.5294249977,
      "d": 1785.714166666614,
      "v": 100
    },
    {
      "midi": 67,
      "hit": false,
      "t": 630089.243708331,
      "d": 1624.9998916666955,
      "v": 100
    },
    {
      "midi": 59,
      "hit": false,
      "t": 634178.5291499977,
      "d": 2892.8569499999285,
      "v": 100
    },
    {
      "midi": 62,
      "hit": false,
      "t": 634196.3862916644,
      "d": 3053.571224999847,
      "v": 100
    },
    {
      "midi": 67,
      "hit": false,
      "t": 634232.1005749977,
      "d": 2892.8569499999285,
      "v": 100
    },
    {
      "midi": 55,
      "hit": false,
      "t": 636428.529,
      "d": 6428.570999999996,
      "v": 65
    },
    {
      "midi": 59,
      "hit": false,
      "t": 636428.529,
      "d": 6428.570999999996,
      "v": 65
    },
    {
      "midi": 62,
      "hit": false,
      "t": 636428.529,
      "d": 6428.570999999996,
      "v": 65
    },
    {
      "midi": 62,
      "hit": false,
      "t": 638624.9574249976,
      "d": 964.2856499999762,
      "v": 100
    },
    {
      "midi": 67,
      "hit": false,
      "t": 638660.6717083309,
      "d": 928.5713666666998,
      "v": 100
    },
    {
      "midi": 60,
      "hit": false,
      "t": 640767.8144249977,
      "d": 4928.571100000059,
      "v": 100
    },
    {
      "midi": 64,
      "hit": false,
      "t": 640767.8144249977,
      "d": 4982.142525000032,
      "v": 100
    },
    {
      "midi": 67,
      "hit": false,
      "t": 640857.100133331,
      "d": 4803.571108333417,
      "v": 100
    },
    {
      "midi": 60,
      "hit": false,
      "t": 642857.1,
      "d": 8464.28515000001,
      "v": 65
    },
    {
      "midi": 64,
      "hit": false,
      "t": 642857.1,
      "d": 8464.28515000001,
      "v": 65
    },
    {
      "midi": 67,
      "hit": false,
      "t": 642857.1,
      "d": 8464.28515000001,
      "v": 65
    },
    {
      "midi": 69,
      "hit": false,
      "t": 642857.1,
      "d": 8464.28515000001,
      "v": 65
    },
    {
      "midi": 60,
      "hit": false,
      "t": 647178.5282833311,
      "d": 1749.999883333221,
      "v": 100
    },
    {
      "midi": 64,
      "hit": false,
      "t": 647214.2425666644,
      "d": 1642.8570333332755,
      "v": 100
    },
    {
      "midi": 67,
      "hit": false,
      "t": 647249.9568499976,
      "d": 1767.857025000034,
      "v": 100
    },
    {
      "midi": 55,
      "hit": false,
      "t": 651428.5279999999,
      "d": 8464.28515000001,
      "v": 65
    },
    {
      "midi": 59,
      "hit": false,
      "t": 651428.5279999999,
      "d": 8464.28515000001,
      "v": 65
    },
    {
      "midi": 62,
      "hit": false,
      "t": 651428.5279999999,
      "d": 8464.28515000001,
      "v": 65
    },
    {
      "midi": 67,
      "hit": false,
      "t": 651517.813708331,
      "d": 5339.285358333145,
      "v": 100
    },
    {
      "midi": 62,
      "hit": false,
      "t": 651553.5279916642,
      "d": 5124.999658333254,
      "v": 100
    },
    {
      "midi": 64,
      "hit": false,
      "t": 660035.6702833307,
      "d": 3035.7140833331505,
      "v": 100
    },
    {
      "midi": 60,
      "hit": false,
      "t": 660071.384566664,
      "d": 2892.8569499999285,
      "v": 100
    },
    {
      "midi": 55,
      "hit": false,
      "t": 662142.813,
      "d": 6428.570999999996,
      "v": 65
    },
    {
      "midi": 60,
      "hit": false,
      "t": 662142.813,
      "d": 6428.570999999996,
      "v": 65
    },
    {
      "midi": 64,
      "hit": false,
      "t": 662142.813,
      "d": 6428.570999999996,
      "v": 65
    },
    {
      "midi": 64,
      "hit": false,
      "t": 664035.6700166638,
      "d": 2017.857008333318,
      "v": 100
    },
    {
      "midi": 60,
      "hit": false,
      "t": 664107.0985833305,
      "d": 1946.4284416666487,
      "v": 100
    },
    {
      "midi": 59,
      "hit": false,
      "t": 668499.9554333305,
      "d": 5946.428175000008,
      "v": 100
    },
    {
      "midi": 62,
      "hit": false,
      "t": 668571.3839999972,
      "d": 6178.571016666712,
      "v": 100
    },
    {
      "midi": 55,
      "hit": false,
      "t": 668571.384,
      "d": 8464.28515000001,
      "v": 65
    },
    {
      "midi": 59,
      "hit": false,
      "t": 668571.384,
      "d": 8464.28515000001,
      "v": 65
    },
    {
      "midi": 62,
      "hit": false,
      "t": 668571.384,
      "d": 8464.28515000001,
      "v": 65
    },
    {
      "midi": 67,
      "hit": false,
      "t": 668624.9554249971,
      "d": 6196.428158333409,
      "v": 100
    },
    {
      "midi": 60,
      "hit": false,
      "t": 677178.5262833306,
      "d": 6553.570991666638,
      "v": 100
    },
    {
      "midi": 64,
      "hit": false,
      "t": 677214.2405666639,
      "d": 6517.856708333362,
      "v": 100
    },
    {
      "midi": 60,
      "hit": false,
      "t": 679285.669,
      "d": 6428.570999999996,
      "v": 65
    },
    {
      "midi": 64,
      "hit": false,
      "t": 679285.669,
      "d": 6428.570999999996,
      "v": 65
    },
    {
      "midi": 67,
      "hit": false,
      "t": 679285.669,
      "d": 6428.570999999996,
      "v": 65
    },
    {
      "midi": 69,
      "hit": false,
      "t": 679285.669,
      "d": 6428.570999999996,
      "v": 65
    },
    {
      "midi": 55,
      "hit": false,
      "t": 685714.24,
      "d": 8464.28515000001,
      "v": 65
    },
    {
      "midi": 59,
      "hit": false,
      "t": 685714.24,
      "d": 8464.28515000001,
      "v": 65
    },
    {
      "midi": 62,
      "hit": false,
      "t": 685714.24,
      "d": 8464.28515000001,
      "v": 65
    },
    {
      "midi": 57,
      "hit": false,
      "t": 687982.0969916639,
      "d": 2214.285566666629,
      "v": 100
    },
    {
      "midi": 59,
      "hit": false,
      "t": 690053.5254249972,
      "d": 2142.85699999996,
      "v": 100
    },
    {
      "midi": 62,
      "hit": false,
      "t": 692196.3824249972,
      "d": 1071.4285000000382,
      "v": 100
    },
    {
      "midi": 60,
      "hit": false,
      "t": 694321.3822833305,
      "d": 1749.999883333221,
      "v": 100
    },
    {
      "midi": 64,
      "hit": false,
      "t": 694321.3822833305,
      "d": 2089.2855749998707,
      "v": 100
    },
    {
      "midi": 55,
      "hit": false,
      "t": 694357.0965666638,
      "d": 1410.7141916665714,
      "v": 100
    },
    {
      "midi": 60,
      "hit": false,
      "t": 696428.525,
      "d": 6428.570999999996,
      "v": 65
    },
    {
      "midi": 64,
      "hit": false,
      "t": 696428.525,
      "d": 6428.570999999996,
      "v": 65
    },
    {
      "midi": 67,
      "hit": false,
      "t": 696428.525,
      "d": 6428.570999999996,
      "v": 65
    },
    {
      "midi": 69,
      "hit": false,
      "t": 696428.525,
      "d": 6428.570999999996,
      "v": 65
    },
    {
      "midi": 67,
      "hit": false,
      "t": 698482.0962916637,
      "d": 3035.714083333267,
      "v": 100
    },
    {
      "midi": 60,
      "hit": false,
      "t": 698517.810574997,
      "d": 3053.5712249999633,
      "v": 100
    },
    {
      "midi": 64,
      "hit": false,
      "t": 698571.381999997,
      "d": 2982.142658333294,
      "v": 100
    },
    {
      "midi": 57,
      "hit": false,
      "t": 698607.0962833302,
      "d": 2535.714116666699,
      "v": 100
    },
    {
      "midi": 59,
      "hit": false,
      "t": 702857.095999997,
      "d": 3571.428333333344,
      "v": 100
    },
    {
      "midi": 62,
      "hit": false,
      "t": 702874.9531416637,
      "d": 3678.57118333329,
      "v": 100
    },
    {
      "midi": 67,
      "hit": false,
      "t": 702946.3817083304,
      "d": 3464.285483333282,
      "v": 100
    },
    {
      "midi": 55,
      "hit": false,
      "t": 704999.953,
      "d": 6428.570999999996,
      "v": 65
    },
    {
      "midi": 59,
      "hit": false,
      "t": 704999.953,
      "d": 6428.570999999996,
      "v": 65
    },
    {
      "midi": 62,
      "hit": false,
      "t": 704999.953,
      "d": 6428.570999999996,
      "v": 65
    },
    {
      "midi": 62,
      "hit": false,
      "t": 707142.809999997,
      "d": 1767.857025000034,
      "v": 100
    },
    {
      "midi": 67,
      "hit": false,
      "t": 707232.0957083304,
      "d": 1821.4284500000067,
      "v": 100
    },
    {
      "midi": 64,
      "hit": false,
      "t": 711339.2382916637,
      "d": 3571.428333333228,
      "v": 100
    },
    {
      "midi": 67,
      "hit": false,
      "t": 711392.8097166637,
      "d": 2982.142658333294,
      "v": 100
    },
    {
      "midi": 55,
      "hit": false,
      "t": 713571.3809999999,
      "d": 6428.570999999996,
      "v": 65
    },
    {
      "midi": 59,
      "hit": false,
      "t": 713571.3809999999,
      "d": 6428.570999999996,
      "v": 65
    },
    {
      "midi": 64,
      "hit": false,
      "t": 713571.3809999999,
      "d": 6428.570999999996,
      "v": 65
    },
    {
      "midi": 64,
      "hit": false,
      "t": 715678.5237166636,
      "d": 1910.714158333256,
      "v": 100
    },
    {
      "midi": 59,
      "hit": false,
      "t": 715714.2379999969,
      "d": 1642.8570333332755,
      "v": 100
    },
    {
      "midi": 64,
      "hit": false,
      "t": 719999.9519999969,
      "d": 3124.999791666749,
      "v": 100
    },
    {
      "midi": 67,
      "hit": false,
      "t": 720071.3805666636,
      "d": 2857.1426666667685,
      "v": 100
    },
    {
      "midi": 60,
      "hit": false,
      "t": 720071.3805666636,
      "d": 2928.5712333334377,
      "v": 100
    },
    {
      "midi": 60,
      "hit": false,
      "t": 722142.8089999999,
      "d": 6428.570999999996,
      "v": 65
    },
    {
      "midi": 64,
      "hit": false,
      "t": 722142.8089999999,
      "d": 6428.570999999996,
      "v": 65
    },
    {
      "midi": 67,
      "hit": false,
      "t": 722142.8089999999,
      "d": 6428.570999999996,
      "v": 65
    },
    {
      "midi": 69,
      "hit": false,
      "t": 722142.8089999999,
      "d": 6428.570999999996,
      "v": 65
    },
    {
      "midi": 64,
      "hit": false,
      "t": 724517.8088416636,
      "d": 4589.285408333293,
      "v": 100
    },
    {
      "midi": 60,
      "hit": false,
      "t": 724589.2374083303,
      "d": 4517.856841666624,
      "v": 100
    },
    {
      "midi": 67,
      "hit": false,
      "t": 724607.094549997,
      "d": 4178.571149999974,
      "v": 100
    },
    {
      "midi": 60,
      "hit": false,
      "t": 730714.2369999998,
      "d": 6428.570999999996,
      "v": 65
    },
    {
      "midi": 64,
      "hit": false,
      "t": 730714.2369999998,
      "d": 6428.570999999996,
      "v": 65
    },
    {
      "midi": 67,
      "hit": false,
      "t": 730714.2369999998,
      "d": 6428.570999999996,
      "v": 65
    },
    {
      "midi": 69,
      "hit": false,
      "t": 730714.2369999998,
      "d": 6428.570999999996,
      "v": 65
    },
    {
      "midi": 57,
      "hit": false,
      "t": 730749.9512833302,
      "d": 1910.7141583333723,
      "v": 100
    },
    {
      "midi": 60,
      "hit": false,
      "t": 732839.2368583302,
      "d": 4232.1425750000635,
      "v": 100
    },
    {
      "midi": 64,
      "hit": false,
      "t": 732857.0939999969,
      "d": 4214.285433333367,
      "v": 100
    },
    {
      "midi": 55,
      "hit": false,
      "t": 739285.6649999998,
      "d": 6428.570999999996,
      "v": 65
    },
    {
      "midi": 59,
      "hit": false,
      "t": 739285.6649999998,
      "d": 6428.570999999996,
      "v": 65
    },
    {
      "midi": 62,
      "hit": false,
      "t": 739285.6649999998,
      "d": 6428.570999999996,
      "v": 65
    },
    {
      "midi": 67,
      "hit": false,
      "t": 741607.0934166637,
      "d": 1678.5713166666683,
      "v": 100
    },
    {
      "midi": 62,
      "hit": false,
      "t": 741624.9505583304,
      "d": 1821.4284500000067,
      "v": 100
    },
    {
      "midi": 64,
      "hit": false,
      "t": 745660.664574997,
      "d": 3999.999733333476,
      "v": 100
    },
    {
      "midi": 59,
      "hit": false,
      "t": 745678.5217166637,
      "d": 3678.571183333406,
      "v": 100
    },
    {
      "midi": 55,
      "hit": false,
      "t": 747857.0929999998,
      "d": 6428.570999999996,
      "v": 65
    },
    {
      "midi": 59,
      "hit": false,
      "t": 747857.0929999998,
      "d": 6428.570999999996,
      "v": 65
    },
    {
      "midi": 64,
      "hit": false,
      "t": 747857.0929999998,
      "d": 6428.570999999996,
      "v": 65
    },
    {
      "midi": 64,
      "hit": false,
      "t": 750089.2357083305,
      "d": 1785.714166666614,
      "v": 100
    },
    {
      "midi": 59,
      "hit": false,
      "t": 750142.8071333305,
      "d": 2392.8569833333604,
      "v": 100
    },
    {
      "midi": 64,
      "hit": false,
      "t": 754249.9497166638,
      "d": 2607.1426833332516,
      "v": 100
    },
    {
      "midi": 60,
      "hit": false,
      "t": 754285.6639999971,
      "d": 2499.999833333306,
      "v": 100
    },
    {
      "midi": 60,
      "hit": false,
      "t": 756428.5209999997,
      "d": 6428.570999999996,
      "v": 65
    },
    {
      "midi": 64,
      "hit": false,
      "t": 756428.5209999997,
      "d": 6428.570999999996,
      "v": 65
    },
    {
      "midi": 67,
      "hit": false,
      "t": 756428.5209999997,
      "d": 6428.570999999996,
      "v": 65
    },
    {
      "midi": 69,
      "hit": false,
      "t": 756428.5209999997,
      "d": 6428.570999999996,
      "v": 65
    },
    {
      "midi": 60,
      "hit": false,
      "t": 758624.9494249971,
      "d": 1267.8570583333494,
      "v": 100
    },
    {
      "midi": 64,
      "hit": false,
      "t": 758642.8065666638,
      "d": 1642.8570333332755,
      "v": 100
    },
    {
      "midi": 60,
      "hit": false,
      "t": 762857.0919999997,
      "d": 8464.28515000001,
      "v": 65
    },
    {
      "midi": 64,
      "hit": false,
      "t": 762857.0919999997,
      "d": 8464.28515000001,
      "v": 65
    },
    {
      "midi": 67,
      "hit": false,
      "t": 762857.0919999997,
      "d": 8464.28515000001,
      "v": 65
    },
    {
      "midi": 69,
      "hit": false,
      "t": 762857.0919999997,
      "d": 8464.28515000001,
      "v": 65
    },
    {
      "midi": 64,
      "hit": false,
      "t": 766999.9488666637,
      "d": 1374.9999083331786,
      "v": 100
    },
    {
      "midi": 60,
      "hit": false,
      "t": 767035.663149997,
      "d": 1392.857049999875,
      "v": 100
    },
    {
      "midi": 67,
      "hit": false,
      "t": 767071.3774333303,
      "d": 1303.5713416666258,
      "v": 100
    },
    {
      "midi": 67,
      "hit": false,
      "t": 771285.6628666635,
      "d": 2160.71414166654,
      "v": 100
    },
    {
      "midi": 59,
      "hit": false,
      "t": 771321.3771499968,
      "d": 1928.5712999999523,
      "v": 100
    },
    {
      "midi": 62,
      "hit": false,
      "t": 771321.3771499968,
      "d": 2178.5712833332364,
      "v": 100
    },
    {
      "midi": 55,
      "hit": false,
      "t": 771428.5199999997,
      "d": 8464.28515000001,
      "v": 65
    },
    {
      "midi": 59,
      "hit": false,
      "t": 771428.5199999997,
      "d": 8464.28515000001,
      "v": 65
    },
    {
      "midi": 62,
      "hit": false,
      "t": 771428.5199999997,
      "d": 8464.28515000001,
      "v": 65
    },
    {
      "midi": 67,
      "hit": false,
      "t": 775696.3768583301,
      "d": 785.7142333333613,
      "v": 100
    },
    {
      "midi": 62,
      "hit": false,
      "t": 775767.8054249968,
      "d": 767.8570916666649,
      "v": 100
    },
    {
      "midi": 60,
      "hit": false,
      "t": 777982.0909916634,
      "d": 4857.142533333274,
      "v": 100
    },
    {
      "midi": 64,
      "hit": false,
      "t": 778017.8052749967,
      "d": 4749.999683333328,
      "v": 100
    },
    {
      "midi": 67,
      "hit": false,
      "t": 778071.3766999966,
      "d": 4678.571116666659,
      "v": 100
    },
    {
      "midi": 60,
      "hit": false,
      "t": 782142.8049999997,
      "d": 6428.570999999996,
      "v": 65
    },
    {
      "midi": 64,
      "hit": false,
      "t": 782142.8049999997,
      "d": 6428.570999999996,
      "v": 65
    },
    {
      "midi": 67,
      "hit": false,
      "t": 782142.8049999997,
      "d": 6428.570999999996,
      "v": 65
    },
    {
      "midi": 69,
      "hit": false,
      "t": 782142.8049999997,
      "d": 6428.570999999996,
      "v": 65
    },
    {
      "midi": 60,
      "hit": false,
      "t": 784285.6619999966,
      "d": 3607.1426166666206,
      "v": 100
    },
    {
      "midi": 64,
      "hit": false,
      "t": 784339.2334249966,
      "d": 3696.428324999986,
      "v": 100
    },
    {
      "midi": 67,
      "hit": false,
      "t": 784339.2334249966,
      "d": 3857.142600000021,
      "v": 100
    },
    {
      "midi": 55,
      "hit": false,
      "t": 788571.3759999997,
      "d": 8464.28515000001,
      "v": 65
    },
    {
      "midi": 59,
      "hit": false,
      "t": 788571.3759999997,
      "d": 8464.28515000001,
      "v": 65
    },
    {
      "midi": 62,
      "hit": false,
      "t": 788571.3759999997,
      "d": 8464.28515000001,
      "v": 65
    },
    {
      "midi": 67,
      "hit": false,
      "t": 790874.9472749967,
      "d": 3053.5712249999633,
      "v": 100
    },
    {
      "midi": 62,
      "hit": false,
      "t": 790910.66155833,
      "d": 3428.571200000006,
      "v": 100
    },
    {
      "midi": 67,
      "hit": false,
      "t": 795035.66128333,
      "d": 1249.999916666653,
      "v": 100
    },
    {
      "midi": 60,
      "hit": false,
      "t": 797142.8039999966,
      "d": 3446.428341666702,
      "v": 100
    },
    {
      "midi": 64,
      "hit": false,
      "t": 797142.8039999966,
      "d": 3535.714050000068,
      "v": 100
    },
    {
      "midi": 67,
      "hit": false,
      "t": 797196.3754249966,
      "d": 2964.285516666714,
      "v": 100
    },
    {
      "midi": 55,
      "hit": false,
      "t": 799285.6609999997,
      "d": 6428.570999999996,
      "v": 65
    },
    {
      "midi": 60,
      "hit": false,
      "t": 799285.6609999997,
      "d": 6428.570999999996,
      "v": 65
    },
    {
      "midi": 64,
      "hit": false,
      "t": 799285.6609999997,
      "d": 6428.570999999996,
      "v": 65
    },
    {
      "midi": 64,
      "hit": false,
      "t": 801446.3751416634,
      "d": 1196.4284916666802,
      "v": 100
    },
    {
      "midi": 60,
      "hit": false,
      "t": 801517.80370833,
      "d": 1249.999916666653,
      "v": 100
    },
    {
      "midi": 59,
      "hit": false,
      "t": 805660.6605749967,
      "d": 5982.142458333285,
      "v": 100
    },
    {
      "midi": 62,
      "hit": false,
      "t": 805660.6605749967,
      "d": 6160.713874999899,
      "v": 100
    },
    {
      "midi": 67,
      "hit": false,
      "t": 805660.6605749967,
      "d": 6196.428158333176,
      "v": 100
    },
    {
      "midi": 55,
      "hit": false,
      "t": 805714.2319999997,
      "d": 8464.28515000001,
      "v": 65
    },
    {
      "midi": 59,
      "hit": false,
      "t": 805714.2319999997,
      "d": 8464.28515000001,
      "v": 65
    },
    {
      "midi": 62,
      "hit": false,
      "t": 805714.2319999997,
      "d": 8464.28515000001,
      "v": 65
    },
    {
      "midi": 64,
      "hit": false,
      "t": 814249.9457166631,
      "d": 3249.9997833332745,
      "v": 100
    },
    {
      "midi": 60,
      "hit": false,
      "t": 814285.6599999964,
      "d": 3124.9997916666325,
      "v": 100
    },
    {
      "midi": 60,
      "hit": false,
      "t": 814285.6599999997,
      "d": 8464.28515000001,
      "v": 65
    },
    {
      "midi": 64,
      "hit": false,
      "t": 814285.6599999997,
      "d": 8464.28515000001,
      "v": 65
    },
    {
      "midi": 67,
      "hit": false,
      "t": 814285.6599999997,
      "d": 8464.28515000001,
      "v": 65
    },
    {
      "midi": 69,
      "hit": false,
      "t": 814285.6599999997,
      "d": 8464.28515000001,
      "v": 65
    },
    {
      "midi": 64,
      "hit": false,
      "t": 818678.5168499964,
      "d": 3749.999749999959,
      "v": 100
    },
    {
      "midi": 60,
      "hit": false,
      "t": 818732.0882749964,
      "d": 3696.428324999986,
      "v": 100
    },
    {
      "midi": 55,
      "hit": false,
      "t": 822857.0879999996,
      "d": 8464.28515000001,
      "v": 65
    },
    {
      "midi": 59,
      "hit": false,
      "t": 822857.0879999996,
      "d": 8464.28515000001,
      "v": 65
    },
    {
      "midi": 62,
      "hit": false,
      "t": 822857.0879999996,
      "d": 8464.28515000001,
      "v": 65
    },
    {
      "midi": 67,
      "hit": false,
      "t": 822999.9451333297,
      "d": 3982.142591666663,
      "v": 100
    },
    {
      "midi": 62,
      "hit": false,
      "t": 825178.5164166631,
      "d": 1767.857025000034,
      "v": 100
    },
    {
      "midi": 67,
      "hit": false,
      "t": 827303.5162749963,
      "d": 2017.857008333318,
      "v": 100
    },
    {
      "midi": 66,
      "hit": false,
      "t": 829178.5161499963,
      "d": 2249.9998499999056,
      "v": 100
    },
    {
      "midi": 67,
      "hit": false,
      "t": 831374.9445749962,
      "d": 2374.9998416665476,
      "v": 100
    },
    {
      "midi": 60,
      "hit": false,
      "t": 831428.5159999996,
      "d": 8464.28515000001,
      "v": 65
    },
    {
      "midi": 64,
      "hit": false,
      "t": 831428.5159999996,
      "d": 8464.28515000001,
      "v": 65
    },
    {
      "midi": 67,
      "hit": false,
      "t": 831428.5159999996,
      "d": 8464.28515000001,
      "v": 65
    },
    {
      "midi": 69,
      "hit": false,
      "t": 831428.5159999996,
      "d": 8464.28515000001,
      "v": 65
    },
    {
      "midi": 62,
      "hit": false,
      "t": 833696.3729916628,
      "d": 2124.9998583332635,
      "v": 100
    },
    {
      "midi": 67,
      "hit": false,
      "t": 835785.6585666628,
      "d": 2035.714149999898,
      "v": 100
    },
    {
      "midi": 66,
      "hit": false,
      "t": 837857.086999996,
      "d": 2482.142691666726,
      "v": 100
    },
    {
      "midi": 67,
      "hit": false,
      "t": 839928.5154333294,
      "d": 2410.7141249999404,
      "v": 100
    },
    {
      "midi": 55,
      "hit": false,
      "t": 839999.9439999996,
      "d": 8464.28515000001,
      "v": 65
    },
    {
      "midi": 59,
      "hit": false,
      "t": 839999.9439999996,
      "d": 8464.28515000001,
      "v": 65
    },
    {
      "midi": 62,
      "hit": false,
      "t": 839999.9439999996,
      "d": 8464.28515000001,
      "v": 65
    },
    {
      "midi": 62,
      "hit": false,
      "t": 842249.943849996,
      "d": 2124.99985833338,
      "v": 100
    },
    {
      "midi": 67,
      "hit": false,
      "t": 844285.657999996,
      "d": 2124.9998583332635,
      "v": 100
    },
    {
      "midi": 66,
      "hit": false,
      "t": 846303.5150083293,
      "d": 1571.4284666666063,
      "v": 100
    },
    {
      "midi": 60,
      "hit": false,
      "t": 848374.9434416626,
      "d": 2714.2855333333137,
      "v": 100
    },
    {
      "midi": 67,
      "hit": false,
      "t": 848464.229149996,
      "d": 6285.713866666658,
      "v": 100
    },
    {
      "midi": 64,
      "hit": false,
      "t": 848499.9434333292,
      "d": 2589.2855416666716,
      "v": 100
    },
    {
      "midi": 55,
      "hit": false,
      "t": 848571.3719999995,
      "d": 4285.714000000036,
      "v": 65
    },
    {
      "midi": 60,
      "hit": false,
      "t": 848571.3719999995,
      "d": 4285.714000000036,
      "v": 65
    },
    {
      "midi": 64,
      "hit": false,
      "t": 848571.3719999995,
      "d": 4285.714000000036,
      "v": 65
    },
    {
      "midi": 57,
      "hit": false,
      "t": 852821.3717166625,
      "d": 2160.714141666773,
      "v": 100
    },
    {
      "midi": 60,
      "hit": false,
      "t": 852839.2288583292,
      "d": 2267.8569916667184,
      "v": 100
    },
    {
      "midi": 57,
      "hit": false,
      "t": 852857.0859999995,
      "d": 4285.714000000036,
      "v": 65
    },
    {
      "midi": 60,
      "hit": false,
      "t": 852857.0859999995,
      "d": 4285.714000000036,
      "v": 65
    },
    {
      "midi": 64,
      "hit": false,
      "t": 852857.0859999995,
      "d": 4285.714000000036,
      "v": 65
    },
    {
      "midi": 67,
      "hit": false,
      "t": 852857.0859999995,
      "d": 4285.714000000036,
      "v": 65
    },
    {
      "midi": 69,
      "hit": false,
      "t": 855142.8001333292,
      "d": 446.4285416667117,
      "v": 100
    },
    {
      "midi": 62,
      "hit": false,
      "t": 856642.8000333293,
      "d": 6107.142449999927,
      "v": 100
    },
    {
      "midi": 59,
      "hit": false,
      "t": 856749.9428833292,
      "d": 6142.856733333319,
      "v": 100
    },
    {
      "midi": 67,
      "hit": false,
      "t": 856857.0857333292,
      "d": 5839.285325000063,
      "v": 100
    },
    {
      "midi": 67,
      "hit": false,
      "t": 857142.7999999996,
      "d": 3892.8568833332974,
      "v": 63
    },
    {
      "midi": 55,
      "hit": false,
      "t": 857142.7999999996,
      "d": 4321.428283333313,
      "v": 71
    },
    {
      "midi": 59,
      "hit": false,
      "t": 857142.7999999996,
      "d": 4357.142566666589,
      "v": 77
    },
    {
      "midi": 62,
      "hit": false,
      "t": 857142.7999999996,
      "d": 4357.142566666589,
      "v": 71
    },
    {
      "midi": 71,
      "hit": false,
      "t": 857214.2285666625,
      "d": 5624.999625000055,
      "v": 100
    },
    {
      "midi": 67,
      "hit": false,
      "t": 865714.2279999995,
      "d": 2464.2855500000296,
      "v": 63
    },
    {
      "midi": 55,
      "hit": false,
      "t": 865714.2279999995,
      "d": 2785.714099999983,
      "v": 68
    },
    {
      "midi": 59,
      "hit": false,
      "t": 865714.2279999995,
      "d": 2892.8569499999285,
      "v": 77
    },
    {
      "midi": 62,
      "hit": false,
      "t": 865714.2279999995,
      "d": 2892.8569499999285,
      "v": 71
    },
    {
      "midi": 55,
      "hit": false,
      "t": 872142.7989999994,
      "d": 17035.713149999967,
      "v": 101
    },
    {
      "midi": 67,
      "hit": false,
      "t": 872142.7989999994,
      "d": 17035.713149999967,
      "v": 102
    },
    {
      "midi": 59,
      "hit": false,
      "t": 872142.7989999994,
      "d": 17142.855999999912,
      "v": 109
    },
    {
      "midi": 62,
      "hit": false,
      "t": 872142.7989999994,
      "d": 17142.855999999912,
      "v": 101
    }
  ]
}