{
  "jsonPath": "Country/Country/Billy Gilman/white-christmas.json",
  "path": "Country\\Country\\Billy Gilman\\White Christmas.mid",
  "name": "White Christmas",
  "difficulty": "Advanced",
  "bpm": 94.99999208333399,
  "notes": [
    {
      "midi": 59,
      "hit": false,
      "t": 5160.736000000001,
      "d": 913.8803333333335,
      "v": 69
    },
    {
      "midi": 64,
      "hit": false,
      "t": 5160.736000000001,
      "d": 913.8803333333335,
      "v": 69
    },
    {
      "midi": 55,
      "hit": false,
      "t": 5160.736000000001,
      "d": 927.3197500000006,
      "v": 69
    },
    {
      "midi": 71,
      "hit": false,
      "t": 5160.736000000001,
      "d": 940.7591666666676,
      "v": 69
    },
    {
      "midi": 52,
      "hit": false,
      "t": 5160.736000000001,
      "d": 954.1985833333347,
      "v": 61
    },
    {
      "midi": 67,
      "hit": false,
      "t": 5160.736000000001,
      "d": 954.1985833333347,
      "v": 78
    },
    {
      "midi": 76,
      "hit": false,
      "t": 5160.736000000001,
      "d": 981.0774166666679,
      "v": 87
    },
    {
      "midi": 62,
      "hit": false,
      "t": 5160.736000000001,
      "d": 994.516833333335,
      "v": 61
    },
    {
      "midi": 79,
      "hit": false,
      "t": 6450.920000000002,
      "d": 994.516833333335,
      "v": 78
    },
    {
      "midi": 76,
      "hit": false,
      "t": 6464.359416666669,
      "d": 967.6380000000008,
      "v": 78
    },
    {
      "midi": 55,
      "hit": false,
      "t": 6464.359416666669,
      "d": 987.797125000001,
      "v": 57
    },
    {
      "midi": 70,
      "hit": false,
      "t": 6464.359416666669,
      "d": 1007.9562500000011,
      "v": 78
    },
    {
      "midi": 58,
      "hit": false,
      "t": 6477.798833333336,
      "d": 967.6380000000008,
      "v": 69
    },
    {
      "midi": 61,
      "hit": false,
      "t": 6477.798833333336,
      "d": 967.6380000000008,
      "v": 65
    },
    {
      "midi": 73,
      "hit": false,
      "t": 6477.798833333336,
      "d": 981.077416666667,
      "v": 69
    },
    {
      "midi": 64,
      "hit": false,
      "t": 6491.238250000003,
      "d": 1034.8350833333334,
      "v": 57
    },
    {
      "midi": 69,
      "hit": false,
      "t": 7727.664583333336,
      "d": 544.2963750000008,
      "v": 65
    },
    {
      "midi": 74,
      "hit": false,
      "t": 7741.104000000003,
      "d": 537.5766666666677,
      "v": 69
    },
    {
      "midi": 77,
      "hit": false,
      "t": 7741.104000000003,
      "d": 591.3343333333341,
      "v": 69
    },
    {
      "midi": 72,
      "hit": false,
      "t": 7754.54341666667,
      "d": 524.1372500000007,
      "v": 78
    },
    {
      "midi": 64,
      "hit": false,
      "t": 7754.54341666667,
      "d": 1014.6759583333342,
      "v": 57
    },
    {
      "midi": 57,
      "hit": false,
      "t": 7754.54341666667,
      "d": 1021.3956666666681,
      "v": 53
    },
    {
      "midi": 53,
      "hit": false,
      "t": 7767.982833333337,
      "d": 1007.9562500000011,
      "v": 65
    },
    {
      "midi": 60,
      "hit": false,
      "t": 7767.982833333337,
      "d": 1034.8350833333352,
      "v": 65
    },
    {
      "midi": 69,
      "hit": false,
      "t": 8574.347833333337,
      "d": 20.15912500000013,
      "v": 41
    },
    {
      "midi": 72,
      "hit": false,
      "t": 8816.257333333338,
      "d": 80.63650000000052,
      "v": 96
    },
    {
      "midi": 63,
      "hit": false,
      "t": 9044.727416666672,
      "d": 887.0014999999985,
      "v": 78
    },
    {
      "midi": 71,
      "hit": false,
      "t": 9044.727416666672,
      "d": 887.0014999999985,
      "v": 78
    },
    {
      "midi": 68,
      "hit": false,
      "t": 9044.727416666672,
      "d": 900.4409166666646,
      "v": 78
    },
    {
      "midi": 56,
      "hit": false,
      "t": 9044.727416666672,
      "d": 913.8803333333308,
      "v": 61
    },
    {
      "midi": 53,
      "hit": false,
      "t": 9058.166833333338,
      "d": 846.68325,
      "v": 61
    },
    {
      "midi": 59,
      "hit": false,
      "t": 9058.166833333338,
      "d": 860.1226666666662,
      "v": 65
    },
    {
      "midi": 65,
      "hit": false,
      "t": 9058.166833333338,
      "d": 900.4409166666646,
      "v": 69
    },
    {
      "midi": 72,
      "hit": false,
      "t": 9461.349333333339,
      "d": 456.9401666666654,
      "v": 69
    },
    {
      "midi": 74,
      "hit": false,
      "t": 9891.410666666672,
      "d": 107.515333333331,
      "v": 69
    },
    {
      "midi": 69,
      "hit": false,
      "t": 10334.91141666667,
      "d": 1894.9577500000014,
      "v": 69
    },
    {
      "midi": 67,
      "hit": false,
      "t": 10334.91141666667,
      "d": 1915.1168750000015,
      "v": 69
    },
    {
      "midi": 52,
      "hit": false,
      "t": 10348.350833333336,
      "d": 1908.3971666666694,
      "v": 49
    },
    {
      "midi": 62,
      "hit": false,
      "t": 10348.350833333336,
      "d": 1908.3971666666694,
      "v": 65
    },
    {
      "midi": 64,
      "hit": false,
      "t": 10348.350833333336,
      "d": 1948.7154166666696,
      "v": 69
    },
    {
      "midi": 55,
      "hit": false,
      "t": 10361.790250000002,
      "d": 1814.3212500000009,
      "v": 57
    },
    {
      "midi": 57,
      "hit": false,
      "t": 10361.790250000002,
      "d": 1834.480375000001,
      "v": 69
    },
    {
      "midi": 72,
      "hit": false,
      "t": 10361.790250000002,
      "d": 1841.200083333335,
      "v": 87
    },
    {
      "midi": 50,
      "hit": false,
      "t": 12915.279416666672,
      "d": 1491.775249999997,
      "v": 49
    },
    {
      "midi": 65,
      "hit": false,
      "t": 12928.718833333338,
      "d": 134.39416666666511,
      "v": 69
    },
    {
      "midi": 57,
      "hit": false,
      "t": 12928.718833333338,
      "d": 1438.0175833333287,
      "v": 49
    },
    {
      "midi": 60,
      "hit": false,
      "t": 12928.718833333338,
      "d": 1585.8511666666654,
      "v": 53
    },
    {
      "midi": 62,
      "hit": false,
      "t": 12942.158250000004,
      "d": 120.95474999999897,
      "v": 57
    },
    {
      "midi": 69,
      "hit": false,
      "t": 12942.158250000004,
      "d": 134.39416666666511,
      "v": 57
    },
    {
      "midi": 72,
      "hit": false,
      "t": 12955.59766666667,
      "d": 147.83358333333308,
      "v": 57
    },
    {
      "midi": 53,
      "hit": false,
      "t": 12955.59766666667,
      "d": 1411.1387499999964,
      "v": 65
    },
    {
      "midi": 74,
      "hit": false,
      "t": 13533.492583333336,
      "d": 53.75766666666641,
      "v": 65
    },
    {
      "midi": 84,
      "hit": false,
      "t": 13533.492583333336,
      "d": 80.6364999999987,
      "v": 69
    },
    {
      "midi": 77,
      "hit": false,
      "t": 13546.932000000003,
      "d": 53.75766666666641,
      "v": 78
    },
    {
      "midi": 81,
      "hit": false,
      "t": 13546.932000000003,
      "d": 53.75766666666641,
      "v": 65
    },
    {
      "midi": 74,
      "hit": false,
      "t": 14165.145166666667,
      "d": 235.1897916666676,
      "v": 96
    },
    {
      "midi": 81,
      "hit": false,
      "t": 14178.584583333333,
      "d": 194.87154166666733,
      "v": 96
    },
    {
      "midi": 77,
      "hit": false,
      "t": 14178.584583333333,
      "d": 215.03066666666746,
      "v": 87
    },
    {
      "midi": 72,
      "hit": false,
      "t": 14178.584583333333,
      "d": 255.34891666666954,
      "v": 96
    },
    {
      "midi": 63,
      "hit": false,
      "t": 14823.676583333336,
      "d": 510.6978333333336,
      "v": 78
    },
    {
      "midi": 68,
      "hit": false,
      "t": 14823.676583333336,
      "d": 530.8569583333338,
      "v": 96
    },
    {
      "midi": 74,
      "hit": false,
      "t": 14837.116000000002,
      "d": 409.90220833333296,
      "v": 96
    },
    {
      "midi": 65,
      "hit": false,
      "t": 14837.116000000002,
      "d": 503.97812500000146,
      "v": 87
    },
    {
      "midi": 71,
      "hit": false,
      "t": 14837.116000000002,
      "d": 551.0160833333339,
      "v": 96
    },
    {
      "midi": 56,
      "hit": false,
      "t": 14850.555416666668,
      "d": 423.34162500000093,
      "v": 65
    },
    {
      "midi": 59,
      "hit": false,
      "t": 14850.555416666668,
      "d": 443.50075000000106,
      "v": 65
    },
    {
      "midi": 53,
      "hit": false,
      "t": 14863.994833333334,
      "d": 322.5460000000003,
      "v": 69
    },
    {
      "midi": 67,
      "hit": false,
      "t": 15482.208000000002,
      "d": 1841.2000833333332,
      "v": 87
    },
    {
      "midi": 76,
      "hit": false,
      "t": 15495.647416666669,
      "d": 1841.200083333335,
      "v": 87
    },
    {
      "midi": 62,
      "hit": false,
      "t": 15495.647416666669,
      "d": 1854.639500000003,
      "v": 78
    },
    {
      "midi": 55,
      "hit": false,
      "t": 15509.086833333335,
      "d": 1800.881833333333,
      "v": 69
    },
    {
      "midi": 64,
      "hit": false,
      "t": 15509.086833333335,
      "d": 1800.881833333333,
      "v": 69
    },
    {
      "midi": 59,
      "hit": false,
      "t": 15509.086833333335,
      "d": 1827.7606666666688,
      "v": 61
    },
    {
      "midi": 71,
      "hit": false,
      "t": 15509.086833333335,
      "d": 1827.7606666666688,
      "v": 69
    },
    {
      "midi": 52,
      "hit": false,
      "t": 15509.086833333335,
      "d": 1874.798625000003,
      "v": 65
    },
    {
      "midi": 74,
      "hit": false,
      "t": 18049.136583333337,
      "d": 739.167916666669,
      "v": 69
    },
    {
      "midi": 76,
      "hit": false,
      "t": 18076.01541666667,
      "d": 698.8496666666688,
      "v": 78
    },
    {
      "midi": 55,
      "hit": false,
      "t": 18089.454833333337,
      "d": 611.4934583333343,
      "v": 61
    },
    {
      "midi": 52,
      "hit": false,
      "t": 18089.454833333337,
      "d": 685.4102500000008,
      "v": 36
    },
    {
      "midi": 62,
      "hit": false,
      "t": 18089.454833333337,
      "d": 719.0087916666671,
      "v": 57
    },
    {
      "midi": 59,
      "hit": false,
      "t": 18102.894250000005,
      "d": 604.7737500000003,
      "v": 61
    },
    {
      "midi": 79,
      "hit": false,
      "t": 18102.894250000005,
      "d": 651.8117083333345,
      "v": 78
    },
    {
      "midi": 83,
      "hit": false,
      "t": 18143.212500000005,
      "d": 631.6525833333326,
      "v": 78
    },
    {
      "midi": 70,
      "hit": false,
      "t": 19325.88116666667,
      "d": 806.3650000000016,
      "v": 57
    },
    {
      "midi": 73,
      "hit": false,
      "t": 19366.19941666667,
      "d": 745.8876249999994,
      "v": 69
    },
    {
      "midi": 55,
      "hit": false,
      "t": 19366.19941666667,
      "d": 766.0467500000013,
      "v": 33
    },
    {
      "midi": 58,
      "hit": false,
      "t": 19379.638833333338,
      "d": 739.1679166666654,
      "v": 57
    },
    {
      "midi": 61,
      "hit": false,
      "t": 19379.638833333338,
      "d": 752.6073333333334,
      "v": 61
    },
    {
      "midi": 64,
      "hit": false,
      "t": 19379.638833333338,
      "d": 766.0467500000013,
      "v": 49
    },
    {
      "midi": 76,
      "hit": false,
      "t": 19393.078250000006,
      "d": 719.0087916666635,
      "v": 78
    },
    {
      "midi": 79,
      "hit": false,
      "t": 19419.95708333334,
      "d": 725.7285000000011,
      "v": 78
    },
    {
      "midi": 72,
      "hit": false,
      "t": 20616.06516666667,
      "d": 1296.9037083333387,
      "v": 57
    },
    {
      "midi": 77,
      "hit": false,
      "t": 20629.50458333334,
      "d": 1249.8657500000008,
      "v": 65
    },
    {
      "midi": 74,
      "hit": false,
      "t": 20642.944000000007,
      "d": 1263.3051666666688,
      "v": 65
    },
    {
      "midi": 60,
      "hit": false,
      "t": 20642.944000000007,
      "d": 2177.1855000000032,
      "v": 61
    },
    {
      "midi": 57,
      "hit": false,
      "t": 20642.944000000007,
      "d": 2230.943166666668,
      "v": 57
    },
    {
      "midi": 53,
      "hit": false,
      "t": 20642.944000000007,
      "d": 2298.1402500000004,
      "v": 53
    },
    {
      "midi": 81,
      "hit": false,
      "t": 20656.383416666675,
      "d": 1236.4263333333329,
      "v": 69
    },
    {
      "midi": 64,
      "hit": false,
      "t": 20656.383416666675,
      "d": 2284.7008333333324,
      "v": 45
    },
    {
      "midi": 65,
      "hit": false,
      "t": 22336.31050000001,
      "d": 53.75766666666823,
      "v": 78
    },
    {
      "midi": 69,
      "hit": false,
      "t": 22752.932416666677,
      "d": 87.35620833333087,
      "v": 78
    },
    {
      "midi": 72,
      "hit": false,
      "t": 22941.084250000007,
      "d": 87.35620833333451,
      "v": 53
    },
    {
      "midi": 71,
      "hit": false,
      "t": 23236.751416666673,
      "d": 2049.5110416666685,
      "v": 57
    },
    {
      "midi": 57,
      "hit": false,
      "t": 23250.19083333334,
      "d": 1935.2760000000017,
      "v": 53
    },
    {
      "midi": 64,
      "hit": false,
      "t": 23250.19083333334,
      "d": 1948.7154166666696,
      "v": 45
    },
    {
      "midi": 69,
      "hit": false,
      "t": 23250.19083333334,
      "d": 2056.230749999999,
      "v": 57
    },
    {
      "midi": 59,
      "hit": false,
      "t": 23263.63025000001,
      "d": 1921.8365833333337,
      "v": 61
    },
    {
      "midi": 53,
      "hit": false,
      "t": 23263.63025000001,
      "d": 2002.4730833333342,
      "v": 53
    },
    {
      "midi": 65,
      "hit": false,
      "t": 23263.63025000001,
      "d": 2069.670166666663,
      "v": 49
    },
    {
      "midi": 69,
      "hit": false,
      "t": 25803.680000000008,
      "d": 967.6380000000026,
      "v": 61
    },
    {
      "midi": 62,
      "hit": false,
      "t": 25817.119416666676,
      "d": 927.3197500000024,
      "v": 57
    },
    {
      "midi": 72,
      "hit": false,
      "t": 25830.558833333344,
      "d": 940.7591666666667,
      "v": 69
    },
    {
      "midi": 65,
      "hit": false,
      "t": 25830.558833333344,
      "d": 954.1985833333347,
      "v": 65
    },
    {
      "midi": 53,
      "hit": false,
      "t": 25830.558833333344,
      "d": 1733.6847500000003,
      "v": 61
    },
    {
      "midi": 57,
      "hit": false,
      "t": 25830.558833333344,
      "d": 1760.5635833333326,
      "v": 57
    },
    {
      "midi": 50,
      "hit": false,
      "t": 25830.558833333344,
      "d": 1800.881833333333,
      "v": 57
    },
    {
      "midi": 60,
      "hit": false,
      "t": 25830.558833333344,
      "d": 1962.154833333334,
      "v": 57
    },
    {
      "midi": 81,
      "hit": false,
      "t": 27497.04650000001,
      "d": 94.07591666666485,
      "v": 78
    },
    {
      "midi": 72,
      "hit": false,
      "t": 27497.04650000001,
      "d": 100.79562499999884,
      "v": 78
    },
    {
      "midi": 69,
      "hit": false,
      "t": 27900.22900000001,
      "d": 383.02337500000067,
      "v": 69
    },
    {
      "midi": 77,
      "hit": false,
      "t": 27913.66841666668,
      "d": 362.8642499999987,
      "v": 69
    },
    {
      "midi": 64,
      "hit": false,
      "t": 28370.608583333345,
      "d": 846.6832500000055,
      "v": 53
    },
    {
      "midi": 53,
      "hit": false,
      "t": 28384.048000000013,
      "d": 880.2817916666718,
      "v": 57
    },
    {
      "midi": 76,
      "hit": false,
      "t": 28397.48741666668,
      "d": 860.1226666666698,
      "v": 78
    },
    {
      "midi": 72,
      "hit": false,
      "t": 28397.48741666668,
      "d": 900.4409166666701,
      "v": 69
    },
    {
      "midi": 65,
      "hit": false,
      "t": 28397.48741666668,
      "d": 947.4788750000043,
      "v": 65
    },
    {
      "midi": 60,
      "hit": false,
      "t": 28410.92683333335,
      "d": 752.6073333333334,
      "v": 61
    },
    {
      "midi": 57,
      "hit": false,
      "t": 28410.92683333335,
      "d": 766.0467500000013,
      "v": 61
    },
    {
      "midi": 69,
      "hit": false,
      "t": 28410.92683333335,
      "d": 927.3197500000024,
      "v": 69
    },
    {
      "midi": 65,
      "hit": false,
      "t": 29647.353166666686,
      "d": 819.8044166666732,
      "v": 65
    },
    {
      "midi": 71,
      "hit": false,
      "t": 29647.353166666686,
      "d": 819.8044166666732,
      "v": 65
    },
    {
      "midi": 53,
      "hit": false,
      "t": 29660.792583333354,
      "d": 806.3650000000052,
      "v": 57
    },
    {
      "midi": 74,
      "hit": false,
      "t": 29674.23200000002,
      "d": 739.167916666669,
      "v": 69
    },
    {
      "midi": 57,
      "hit": false,
      "t": 29674.23200000002,
      "d": 752.607333333337,
      "v": 65
    },
    {
      "midi": 59,
      "hit": false,
      "t": 29674.23200000002,
      "d": 752.607333333337,
      "v": 61
    },
    {
      "midi": 69,
      "hit": false,
      "t": 29674.23200000002,
      "d": 779.4861666666693,
      "v": 65
    },
    {
      "midi": 62,
      "hit": false,
      "t": 29674.23200000002,
      "d": 833.2438333333375,
      "v": 61
    },
    {
      "midi": 76,
      "hit": false,
      "t": 30950.97658333336,
      "d": 2264.5417083333377,
      "v": 65
    },
    {
      "midi": 64,
      "hit": false,
      "t": 30950.97658333336,
      "d": 2405.655583333333,
      "v": 61
    },
    {
      "midi": 52,
      "hit": false,
      "t": 30964.416000000027,
      "d": 2163.746083333339,
      "v": 49
    },
    {
      "midi": 67,
      "hit": false,
      "t": 30964.416000000027,
      "d": 2277.9811249999984,
      "v": 61
    },
    {
      "midi": 55,
      "hit": false,
      "t": 30977.855416666695,
      "d": 2069.6701666666704,
      "v": 53
    },
    {
      "midi": 59,
      "hit": false,
      "t": 30977.855416666695,
      "d": 2069.6701666666704,
      "v": 61
    },
    {
      "midi": 62,
      "hit": false,
      "t": 30977.855416666695,
      "d": 2204.0643333333355,
      "v": 49
    },
    {
      "midi": 71,
      "hit": false,
      "t": 30977.855416666695,
      "d": 2244.382583333332,
      "v": 57
    },
    {
      "midi": 53,
      "hit": false,
      "t": 33544.78400000003,
      "d": 658.5314166666649,
      "v": 57
    },
    {
      "midi": 57,
      "hit": false,
      "t": 33544.78400000003,
      "d": 658.5314166666649,
      "v": 61
    },
    {
      "midi": 62,
      "hit": false,
      "t": 33544.78400000003,
      "d": 698.8496666666615,
      "v": 65
    },
    {
      "midi": 50,
      "hit": false,
      "t": 33544.78400000003,
      "d": 712.2890833333295,
      "v": 53
    },
    {
      "midi": 65,
      "hit": false,
      "t": 33544.78400000003,
      "d": 739.1679166666654,
      "v": 65
    },
    {
      "midi": 69,
      "hit": false,
      "t": 33544.78400000003,
      "d": 779.486166666662,
      "v": 69
    },
    {
      "midi": 72,
      "hit": false,
      "t": 33544.78400000003,
      "d": 846.6832499999946,
      "v": 78
    },
    {
      "midi": 60,
      "hit": false,
      "t": 33544.78400000003,
      "d": 873.5620833333305,
      "v": 49
    },
    {
      "midi": 71,
      "hit": false,
      "t": 34834.96800000002,
      "d": 557.7357916666733,
      "v": 78
    },
    {
      "midi": 68,
      "hit": false,
      "t": 34834.96800000002,
      "d": 591.3343333333396,
      "v": 78
    },
    {
      "midi": 63,
      "hit": false,
      "t": 34834.96800000002,
      "d": 712.2890833333367,
      "v": 65
    },
    {
      "midi": 74,
      "hit": false,
      "t": 34848.40741666669,
      "d": 598.05404166667,
      "v": 78
    },
    {
      "midi": 59,
      "hit": false,
      "t": 34848.40741666669,
      "d": 624.9328750000059,
      "v": 69
    },
    {
      "midi": 53,
      "hit": false,
      "t": 34848.40741666669,
      "d": 645.0920000000042,
      "v": 61
    },
    {
      "midi": 65,
      "hit": false,
      "t": 34861.84683333336,
      "d": 551.0160833333357,
      "v": 69
    },
    {
      "midi": 56,
      "hit": false,
      "t": 34861.84683333336,
      "d": 645.0920000000042,
      "v": 65
    },
    {
      "midi": 67,
      "hit": false,
      "t": 36125.15200000003,
      "d": 1209.5475000000006,
      "v": 87
    },
    {
      "midi": 60,
      "hit": false,
      "t": 36125.15200000003,
      "d": 1236.4263333333365,
      "v": 69
    },
    {
      "midi": 55,
      "hit": false,
      "t": 36138.5914166667,
      "d": 1182.6686666666646,
      "v": 78
    },
    {
      "midi": 76,
      "hit": false,
      "t": 36138.5914166667,
      "d": 1182.6686666666646,
      "v": 105
    },
    {
      "midi": 64,
      "hit": false,
      "t": 36138.5914166667,
      "d": 1222.9869166666685,
      "v": 69
    },
    {
      "midi": 72,
      "hit": false,
      "t": 36138.5914166667,
      "d": 1222.9869166666685,
      "v": 78
    },
    {
      "midi": 76,
      "hit": false,
      "t": 37428.7754166667,
      "d": 1061.7139166666675,
      "v": 87
    },
    {
      "midi": 59,
      "hit": false,
      "t": 37442.21483333337,
      "d": 1007.9562500000029,
      "v": 96
    },
    {
      "midi": 55,
      "hit": false,
      "t": 37442.21483333337,
      "d": 1061.7139166666675,
      "v": 69
    },
    {
      "midi": 71,
      "hit": false,
      "t": 37442.21483333337,
      "d": 1061.7139166666675,
      "v": 87
    },
    {
      "midi": 64,
      "hit": false,
      "t": 37442.21483333337,
      "d": 1068.4336249999978,
      "v": 69
    },
    {
      "midi": 67,
      "hit": false,
      "t": 37442.21483333337,
      "d": 1075.1533333333282,
      "v": 87
    },
    {
      "midi": 55,
      "hit": false,
      "t": 38705.520000000026,
      "d": 913.8803333333344,
      "v": 78
    },
    {
      "midi": 58,
      "hit": false,
      "t": 38705.520000000026,
      "d": 927.3197500000024,
      "v": 78
    },
    {
      "midi": 76,
      "hit": false,
      "t": 38718.959416666694,
      "d": 725.7284999999974,
      "v": 96
    },
    {
      "midi": 70,
      "hit": false,
      "t": 38718.959416666694,
      "d": 759.3270416666637,
      "v": 78
    },
    {
      "midi": 67,
      "hit": false,
      "t": 38718.959416666694,
      "d": 873.5620833333305,
      "v": 78
    },
    {
      "midi": 64,
      "hit": false,
      "t": 38718.959416666694,
      "d": 927.3197500000024,
      "v": 69
    },
    {
      "midi": 81,
      "hit": false,
      "t": 39995.704000000034,
      "d": 591.3343333333396,
      "v": 78
    },
    {
      "midi": 73,
      "hit": false,
      "t": 40009.1434166667,
      "d": 651.8117083333418,
      "v": 65
    },
    {
      "midi": 55,
      "hit": false,
      "t": 40009.1434166667,
      "d": 685.4102500000081,
      "v": 65
    },
    {
      "midi": 58,
      "hit": false,
      "t": 40009.1434166667,
      "d": 685.4102500000081,
      "v": 65
    },
    {
      "midi": 61,
      "hit": false,
      "t": 40009.1434166667,
      "d": 685.4102500000081,
      "v": 65
    },
    {
      "midi": 70,
      "hit": false,
      "t": 40022.58283333337,
      "d": 645.0920000000042,
      "v": 69
    },
    {
      "midi": 76,
      "hit": false,
      "t": 40022.58283333337,
      "d": 645.0920000000042,
      "v": 87
    },
    {
      "midi": 64,
      "hit": false,
      "t": 40022.58283333337,
      "d": 671.9708333333401,
      "v": 61
    },
    {
      "midi": 79,
      "hit": false,
      "t": 40600.47775000004,
      "d": 80.63650000000052,
      "v": 78
    },
    {
      "midi": 72,
      "hit": false,
      "t": 41245.569750000046,
      "d": 2204.0643333333282,
      "v": 69
    },
    {
      "midi": 64,
      "hit": false,
      "t": 41259.009166666714,
      "d": 2116.7081249999974,
      "v": 49
    },
    {
      "midi": 53,
      "hit": false,
      "t": 41259.009166666714,
      "d": 2157.026374999994,
      "v": 57
    },
    {
      "midi": 69,
      "hit": false,
      "t": 41259.009166666714,
      "d": 2204.0643333333282,
      "v": 65
    },
    {
      "midi": 67,
      "hit": false,
      "t": 41259.009166666714,
      "d": 2217.503749999996,
      "v": 61
    },
    {
      "midi": 57,
      "hit": false,
      "t": 41272.44858333338,
      "d": 2096.548999999999,
      "v": 57
    },
    {
      "midi": 60,
      "hit": false,
      "t": 41272.44858333338,
      "d": 2177.1854999999923,
      "v": 61
    },
    {
      "midi": 63,
      "hit": false,
      "t": 43852.81658333338,
      "d": 2069.6701666666777,
      "v": 53
    },
    {
      "midi": 68,
      "hit": false,
      "t": 43852.81658333338,
      "d": 2083.1095833333384,
      "v": 65
    },
    {
      "midi": 60,
      "hit": false,
      "t": 43866.256000000045,
      "d": 2015.9125000000058,
      "v": 69
    },
    {
      "midi": 56,
      "hit": false,
      "t": 43866.256000000045,
      "d": 2062.95045833334,
      "v": 65
    },
    {
      "midi": 65,
      "hit": false,
      "t": 43866.256000000045,
      "d": 2083.1095833333384,
      "v": 61
    },
    {
      "midi": 72,
      "hit": false,
      "t": 43879.69541666671,
      "d": 2002.4730833333379,
      "v": 78
    },
    {
      "midi": 53,
      "hit": false,
      "t": 43879.69541666671,
      "d": 2029.3519166666738,
      "v": 36
    },
    {
      "midi": 55,
      "hit": false,
      "t": 46446.62400000005,
      "d": 1800.881833333333,
      "v": 61
    },
    {
      "midi": 64,
      "hit": false,
      "t": 46446.62400000005,
      "d": 1854.6394999999975,
      "v": 49
    },
    {
      "midi": 59,
      "hit": false,
      "t": 46446.62400000005,
      "d": 1868.0789166666655,
      "v": 53
    },
    {
      "midi": 52,
      "hit": false,
      "t": 46446.62400000005,
      "d": 1881.5183333333334,
      "v": 36
    },
    {
      "midi": 67,
      "hit": false,
      "t": 46446.62400000005,
      "d": 1894.9577500000014,
      "v": 49
    },
    {
      "midi": 76,
      "hit": false,
      "t": 46446.62400000005,
      "d": 1908.3971666666694,
      "v": 53
    },
    {
      "midi": 71,
      "hit": false,
      "t": 46446.62400000005,
      "d": 1948.715416666666,
      "v": 57
    },
    {
      "midi": 62,
      "hit": false,
      "t": 46446.62400000005,
      "d": 2177.1854999999996,
      "v": 53
    },
    {
      "midi": 67,
      "hit": false,
      "t": 49000.11316666671,
      "d": 2230.9431666666715,
      "v": 53
    },
    {
      "midi": 70,
      "hit": false,
      "t": 49013.55258333338,
      "d": 2190.6249166666676,
      "v": 61
    },
    {
      "midi": 73,
      "hit": false,
      "t": 49026.99200000005,
      "d": 2163.7460833333316,
      "v": 65
    },
    {
      "midi": 55,
      "hit": false,
      "t": 49040.43141666672,
      "d": 2217.5037500000035,
      "v": 53
    },
    {
      "midi": 65,
      "hit": false,
      "t": 49040.43141666672,
      "d": 2230.9431666666715,
      "v": 53
    },
    {
      "midi": 77,
      "hit": false,
      "t": 49053.870833333385,
      "d": 2096.548999999999,
      "v": 78
    },
    {
      "midi": 61,
      "hit": false,
      "t": 49053.870833333385,
      "d": 2311.579666666672,
      "v": 61
    },
    {
      "midi": 65,
      "hit": false,
      "t": 51607.36000000006,
      "d": 1471.6161250000077,
      "v": 57
    },
    {
      "midi": 53,
      "hit": false,
      "t": 51607.36000000006,
      "d": 2412.3752916666854,
      "v": 53
    },
    {
      "midi": 69,
      "hit": false,
      "t": 51634.238833333395,
      "d": 1639.6088333333391,
      "v": 61
    },
    {
      "midi": 74,
      "hit": false,
      "t": 51634.238833333395,
      "d": 1666.487666666675,
      "v": 61
    },
    {
      "midi": 72,
      "hit": false,
      "t": 51634.238833333395,
      "d": 1679.927083333343,
      "v": 65
    },
    {
      "midi": 60,
      "hit": false,
      "t": 51634.238833333395,
      "d": 2392.21616666668,
      "v": 61
    },
    {
      "midi": 64,
      "hit": false,
      "t": 51634.238833333395,
      "d": 2392.21616666668,
      "v": 49
    },
    {
      "midi": 65,
      "hit": false,
      "t": 53327.605333333406,
      "d": 161.27300000000105,
      "v": 87
    },
    {
      "midi": 69,
      "hit": false,
      "t": 53744.227250000076,
      "d": 94.07591666666849,
      "v": 69
    },
    {
      "midi": 72,
      "hit": false,
      "t": 53918.939666666745,
      "d": 134.39416666666511,
      "v": 69
    },
    {
      "midi": 60,
      "hit": false,
      "t": 54187.728000000076,
      "d": 900.4409166666665,
      "v": 61
    },
    {
      "midi": 53,
      "hit": false,
      "t": 54187.728000000076,
      "d": 1007.9562500000029,
      "v": 65
    },
    {
      "midi": 64,
      "hit": false,
      "t": 54187.728000000076,
      "d": 1007.9562500000029,
      "v": 57
    },
    {
      "midi": 65,
      "hit": false,
      "t": 54187.728000000076,
      "d": 1290.184000000001,
      "v": 61
    },
    {
      "midi": 69,
      "hit": false,
      "t": 54187.728000000076,
      "d": 1290.184000000001,
      "v": 69
    },
    {
      "midi": 72,
      "hit": false,
      "t": 54187.728000000076,
      "d": 1290.184000000001,
      "v": 69
    },
    {
      "midi": 71,
      "hit": false,
      "t": 55477.91200000008,
      "d": 967.6380000000063,
      "v": 85
    },
    {
      "midi": 59,
      "hit": false,
      "t": 55504.79083333341,
      "d": 866.8423750000002,
      "v": 65
    },
    {
      "midi": 64,
      "hit": false,
      "t": 55518.23025000008,
      "d": 786.2058749999997,
      "v": 61
    },
    {
      "midi": 53,
      "hit": false,
      "t": 55518.23025000008,
      "d": 806.364999999998,
      "v": 65
    },
    {
      "midi": 56,
      "hit": false,
      "t": 55518.23025000008,
      "d": 839.9635416666642,
      "v": 57
    },
    {
      "midi": 59,
      "hit": false,
      "t": 56754.65658333342,
      "d": 2042.7913333333345,
      "v": 69
    },
    {
      "midi": 52,
      "hit": false,
      "t": 56754.65658333342,
      "d": 2103.2687083333367,
      "v": 65
    },
    {
      "midi": 67,
      "hit": false,
      "t": 56768.096000000085,
      "d": 2002.4730833333379,
      "v": 78
    },
    {
      "midi": 71,
      "hit": false,
      "t": 56768.096000000085,
      "d": 2009.1927916666682,
      "v": 65
    },
    {
      "midi": 64,
      "hit": false,
      "t": 56781.53541666675,
      "d": 1975.594250000002,
      "v": 78
    },
    {
      "midi": 55,
      "hit": false,
      "t": 56781.53541666675,
      "d": 2029.3519166666665,
      "v": 65
    },
    {
      "midi": 76,
      "hit": false,
      "t": 56781.53541666675,
      "d": 2042.7913333333345,
      "v": 78
    },
    {
      "midi": 62,
      "hit": false,
      "t": 56781.53541666675,
      "d": 2096.548999999999,
      "v": 78
    },
    {
      "midi": 74,
      "hit": false,
      "t": 59294.706333333415,
      "d": 981.077416666667,
      "v": 65
    },
    {
      "midi": 79,
      "hit": false,
      "t": 59348.46400000008,
      "d": 833.2438333333339,
      "v": 78
    },
    {
      "midi": 57,
      "hit": false,
      "t": 59375.342833333416,
      "d": 685.4102500000008,
      "v": 61
    },
    {
      "midi": 55,
      "hit": false,
      "t": 59375.342833333416,
      "d": 698.8496666666688,
      "v": 53
    },
    {
      "midi": 52,
      "hit": false,
      "t": 59375.342833333416,
      "d": 739.1679166666654,
      "v": 45
    },
    {
      "midi": 62,
      "hit": false,
      "t": 59375.342833333416,
      "d": 1048.2744999999995,
      "v": 53
    },
    {
      "midi": 83,
      "hit": false,
      "t": 59388.782250000084,
      "d": 806.364999999998,
      "v": 87
    },
    {
      "midi": 70,
      "hit": false,
      "t": 60638.64800000008,
      "d": 779.4861666666766,
      "v": 61
    },
    {
      "midi": 73,
      "hit": false,
      "t": 60665.52683333342,
      "d": 752.6073333333406,
      "v": 69
    },
    {
      "midi": 55,
      "hit": false,
      "t": 60665.52683333342,
      "d": 766.0467500000086,
      "v": 41
    },
    {
      "midi": 76,
      "hit": false,
      "t": 60678.966250000085,
      "d": 712.2890833333367,
      "v": 78
    },
    {
      "midi": 58,
      "hit": false,
      "t": 60678.966250000085,
      "d": 786.2058750000069,
      "v": 53
    },
    {
      "midi": 64,
      "hit": false,
      "t": 60678.966250000085,
      "d": 806.3650000000052,
      "v": 57
    },
    {
      "midi": 61,
      "hit": false,
      "t": 60678.966250000085,
      "d": 813.0847083333356,
      "v": 57
    },
    {
      "midi": 79,
      "hit": false,
      "t": 60692.40566666675,
      "d": 725.7285000000047,
      "v": 87
    },
    {
      "midi": 72,
      "hit": false,
      "t": 61915.39258333342,
      "d": 1189.3883750000023,
      "v": 53
    },
    {
      "midi": 77,
      "hit": false,
      "t": 61928.83200000009,
      "d": 1142.350416666668,
      "v": 57
    },
    {
      "midi": 74,
      "hit": false,
      "t": 61942.27141666676,
      "d": 1182.6686666666646,
      "v": 61
    },
    {
      "midi": 64,
      "hit": false,
      "t": 61942.27141666676,
      "d": 2298.1402499999895,
      "v": 41
    },
    {
      "midi": 81,
      "hit": false,
      "t": 61955.710833333425,
      "d": 1128.911,
      "v": 57
    },
    {
      "midi": 60,
      "hit": false,
      "t": 61955.710833333425,
      "d": 2177.1854999999923,
      "v": 53
    },
    {
      "midi": 57,
      "hit": false,
      "t": 61955.710833333425,
      "d": 2197.3446249999906,
      "v": 57
    },
    {
      "midi": 53,
      "hit": false,
      "t": 61955.710833333425,
      "d": 2244.382583333325,
      "v": 36
    },
    {
      "midi": 65,
      "hit": false,
      "t": 63622.198500000086,
      "d": 80.63650000000052,
      "v": 78
    },
    {
      "midi": 69,
      "hit": false,
      "t": 64052.25983333342,
      "d": 80.63650000000052,
      "v": 87
    },
    {
      "midi": 72,
      "hit": false,
      "t": 64253.851083333415,
      "d": 94.07591666666849,
      "v": 57
    },
    {
      "midi": 71,
      "hit": false,
      "t": 64509.200000000084,
      "d": 2056.230749999988,
      "v": 65
    },
    {
      "midi": 65,
      "hit": false,
      "t": 64509.200000000084,
      "d": 2096.5489999999845,
      "v": 69
    },
    {
      "midi": 59,
      "hit": false,
      "t": 64509.200000000084,
      "d": 2136.867249999981,
      "v": 65
    },
    {
      "midi": 69,
      "hit": false,
      "t": 64509.200000000084,
      "d": 2150.306666666642,
      "v": 78
    },
    {
      "midi": 53,
      "hit": false,
      "t": 64509.200000000084,
      "d": 2190.6249166666385,
      "v": 65
    },
    {
      "midi": 64,
      "hit": false,
      "t": 64509.200000000084,
      "d": 2217.5037499999744,
      "v": 69
    },
    {
      "midi": 65,
      "hit": false,
      "t": 67035.81033333339,
      "d": 2452.693541666653,
      "v": 61
    },
    {
      "midi": 69,
      "hit": false,
      "t": 67076.12858333338,
      "d": 2392.2161666666507,
      "v": 78
    },
    {
      "midi": 53,
      "hit": false,
      "t": 67089.56800000004,
      "d": 2365.3373333333293,
      "v": 57
    },
    {
      "midi": 60,
      "hit": false,
      "t": 67116.44683333338,
      "d": 2230.943166666664,
      "v": 69
    },
    {
      "midi": 57,
      "hit": false,
      "t": 67116.44683333338,
      "d": 2257.822,
      "v": 65
    },
    {
      "midi": 64,
      "hit": false,
      "t": 67116.44683333338,
      "d": 2338.4584999999934,
      "v": 57
    },
    {
      "midi": 72,
      "hit": false,
      "t": 67116.44683333338,
      "d": 2351.897916666654,
      "v": 78
    },
    {
      "midi": 77,
      "hit": false,
      "t": 67116.44683333338,
      "d": 2351.897916666654,
      "v": 78
    },
    {
      "midi": 72,
      "hit": false,
      "t": 69656.49658333337,
      "d": 792.9255833333154,
      "v": 78
    },
    {
      "midi": 77,
      "hit": false,
      "t": 69669.93600000003,
      "d": 739.1679166666581,
      "v": 69
    },
    {
      "midi": 57,
      "hit": false,
      "t": 69669.93600000003,
      "d": 752.6073333333188,
      "v": 61
    },
    {
      "midi": 69,
      "hit": false,
      "t": 69669.93600000003,
      "d": 772.7664583333244,
      "v": 78
    },
    {
      "midi": 53,
      "hit": false,
      "t": 69669.93600000003,
      "d": 779.4861666666548,
      "v": 57
    },
    {
      "midi": 60,
      "hit": false,
      "t": 69683.37541666669,
      "d": 692.1299583333312,
      "v": 53
    },
    {
      "midi": 64,
      "hit": false,
      "t": 69683.37541666669,
      "d": 732.4482083333278,
      "v": 57
    },
    {
      "midi": 65,
      "hit": false,
      "t": 69683.37541666669,
      "d": 766.0467499999941,
      "v": 57
    },
    {
      "midi": 74,
      "hit": false,
      "t": 70960.12000000001,
      "d": 577.8949166666716,
      "v": 69
    },
    {
      "midi": 59,
      "hit": false,
      "t": 70960.12000000001,
      "d": 604.7737500000076,
      "v": 61
    },
    {
      "midi": 57,
      "hit": false,
      "t": 70960.12000000001,
      "d": 618.2131666666683,
      "v": 61
    },
    {
      "midi": 53,
      "hit": false,
      "t": 70960.12000000001,
      "d": 658.5314166666649,
      "v": 69
    },
    {
      "midi": 62,
      "hit": false,
      "t": 70960.12000000001,
      "d": 671.9708333333256,
      "v": 65
    },
    {
      "midi": 65,
      "hit": false,
      "t": 70960.12000000001,
      "d": 671.9708333333256,
      "v": 69
    },
    {
      "midi": 69,
      "hit": false,
      "t": 70960.12000000001,
      "d": 671.9708333333256,
      "v": 87
    },
    {
      "midi": 71,
      "hit": false,
      "t": 70960.12000000001,
      "d": 685.4102499999863,
      "v": 78
    },
    {
      "midi": 52,
      "hit": false,
      "t": 72250.30399999999,
      "d": 1955.435124999989,
      "v": 61
    },
    {
      "midi": 64,
      "hit": false,
      "t": 72263.74341666665,
      "d": 2056.2307500000024,
      "v": 78
    },
    {
      "midi": 55,
      "hit": false,
      "t": 72277.18283333331,
      "d": 1841.200083333344,
      "v": 53
    },
    {
      "midi": 59,
      "hit": false,
      "t": 72277.18283333331,
      "d": 1841.200083333344,
      "v": 69
    },
    {
      "midi": 62,
      "hit": false,
      "t": 72277.18283333331,
      "d": 1915.116875000007,
      "v": 61
    },
    {
      "midi": 76,
      "hit": false,
      "t": 72277.18283333331,
      "d": 1982.3139583333395,
      "v": 69
    },
    {
      "midi": 71,
      "hit": false,
      "t": 72277.18283333331,
      "d": 2002.4730833333451,
      "v": 65
    },
    {
      "midi": 67,
      "hit": false,
      "t": 72277.18283333331,
      "d": 2015.9125000000058,
      "v": 69
    },
    {
      "midi": 60,
      "hit": false,
      "t": 74830.67199999999,
      "d": 1034.8350833333243,
      "v": 53
    },
    {
      "midi": 53,
      "hit": false,
      "t": 74844.11141666665,
      "d": 544.2963749999908,
      "v": 61
    },
    {
      "midi": 57,
      "hit": false,
      "t": 74844.11141666665,
      "d": 564.4554999999964,
      "v": 57
    },
    {
      "midi": 50,
      "hit": false,
      "t": 74844.11141666665,
      "d": 604.773749999993,
      "v": 49
    },
    {
      "midi": 62,
      "hit": false,
      "t": 74857.55083333331,
      "d": 443.5007500000065,
      "v": 57
    },
    {
      "midi": 65,
      "hit": false,
      "t": 74857.55083333331,
      "d": 470.37958333334245,
      "v": 65
    },
    {
      "midi": 69,
      "hit": false,
      "t": 74857.55083333331,
      "d": 483.81900000000314,
      "v": 65
    },
    {
      "midi": 72,
      "hit": false,
      "t": 76093.97716666665,
      "d": 1102.0321666666568,
      "v": 69
    },
    {
      "midi": 74,
      "hit": false,
      "t": 76107.41658333331,
      "d": 974.3577083333221,
      "v": 87
    },
    {
      "midi": 77,
      "hit": false,
      "t": 76120.85599999997,
      "d": 940.7591666666558,
      "v": 87
    },
    {
      "midi": 57,
      "hit": false,
      "t": 76147.7348333333,
      "d": 873.5620833333232,
      "v": 78
    },
    {
      "midi": 53,
      "hit": false,
      "t": 76147.7348333333,
      "d": 981.077416666667,
      "v": 65
    },
    {
      "midi": 60,
      "hit": false,
      "t": 76161.17424999997,
      "d": 887.0014999999985,
      "v": 69
    },
    {
      "midi": 64,
      "hit": false,
      "t": 76161.17424999997,
      "d": 967.6380000000063,
      "v": 78
    },
    {
      "midi": 81,
      "hit": false,
      "t": 76174.61366666663,
      "d": 927.3197500000097,
      "v": 78
    },
    {
      "midi": 74,
      "hit": false,
      "t": 77437.9188333333,
      "d": 618.2131666666537,
      "v": 87
    },
    {
      "midi": 76,
      "hit": false,
      "t": 77451.35824999996,
      "d": 571.1752083333267,
      "v": 78
    },
    {
      "midi": 79,
      "hit": false,
      "t": 77464.79766666662,
      "d": 537.5766666666605,
      "v": 87
    },
    {
      "midi": 59,
      "hit": false,
      "t": 77464.79766666662,
      "d": 698.8496666666615,
      "v": 69
    },
    {
      "midi": 52,
      "hit": false,
      "t": 77464.79766666662,
      "d": 712.2890833333222,
      "v": 57
    },
    {
      "midi": 62,
      "hit": false,
      "t": 77464.79766666662,
      "d": 766.0467499999941,
      "v": 65
    },
    {
      "midi": 55,
      "hit": false,
      "t": 77478.23708333328,
      "d": 658.5314166666649,
      "v": 61
    },
    {
      "midi": 83,
      "hit": false,
      "t": 77491.67649999994,
      "d": 510.6978333333391,
      "v": 78
    },
    {
      "midi": 71,
      "hit": false,
      "t": 78660.90574999995,
      "d": 1115.471583333332,
      "v": 96
    },
    {
      "midi": 59,
      "hit": false,
      "t": 78674.34516666661,
      "d": 1075.1533333333355,
      "v": 65
    },
    {
      "midi": 76,
      "hit": false,
      "t": 78674.34516666661,
      "d": 1075.1533333333355,
      "v": 96
    },
    {
      "midi": 55,
      "hit": false,
      "t": 78674.34516666661,
      "d": 1115.471583333332,
      "v": 45
    },
    {
      "midi": 67,
      "hit": false,
      "t": 78674.34516666661,
      "d": 1115.471583333332,
      "v": 87
    },
    {
      "midi": 64,
      "hit": false,
      "t": 78674.34516666661,
      "d": 1128.9109999999928,
      "v": 53
    },
    {
      "midi": 76,
      "hit": false,
      "t": 79991.40799999994,
      "d": 685.4102500000008,
      "v": 96
    },
    {
      "midi": 70,
      "hit": false,
      "t": 79991.40799999994,
      "d": 739.1679166666727,
      "v": 87
    },
    {
      "midi": 55,
      "hit": false,
      "t": 79991.40799999994,
      "d": 779.4861666666693,
      "v": 78
    },
    {
      "midi": 58,
      "hit": false,
      "t": 79991.40799999994,
      "d": 806.3650000000052,
      "v": 87
    },
    {
      "midi": 67,
      "hit": false,
      "t": 79991.40799999994,
      "d": 806.3650000000052,
      "v": 87
    },
    {
      "midi": 64,
      "hit": false,
      "t": 79991.40799999994,
      "d": 833.2438333333412,
      "v": 78
    },
    {
      "midi": 52,
      "hit": false,
      "t": 81281.59199999995,
      "d": 900.4409166666301,
      "v": 69
    },
    {
      "midi": 81,
      "hit": false,
      "t": 81295.0314166666,
      "d": 497.25841666666383,
      "v": 87
    },
    {
      "midi": 73,
      "hit": false,
      "t": 81295.0314166666,
      "d": 537.5766666666605,
      "v": 87
    },
    {
      "midi": 76,
      "hit": false,
      "t": 81295.0314166666,
      "d": 564.4554999999964,
      "v": 96
    },
    {
      "midi": 62,
      "hit": false,
      "t": 81295.0314166666,
      "d": 839.9635416666424,
      "v": 69
    },
    {
      "midi": 58,
      "hit": false,
      "t": 81295.0314166666,
      "d": 873.5620833333087,
      "v": 69
    },
    {
      "midi": 70,
      "hit": false,
      "t": 81308.47083333327,
      "d": 483.81900000000314,
      "v": 87
    },
    {
      "midi": 76,
      "hit": false,
      "t": 81886.36574999994,
      "d": 221.7503749999887,
      "v": 61
    },
    {
      "midi": 73,
      "hit": false,
      "t": 81899.8051666666,
      "d": 215.03066666665836,
      "v": 69
    },
    {
      "midi": 70,
      "hit": false,
      "t": 81899.8051666666,
      "d": 221.7503749999887,
      "v": 87
    },
    {
      "midi": 79,
      "hit": false,
      "t": 81899.8051666666,
      "d": 241.90949999997974,
      "v": 87
    },
    {
      "midi": 72,
      "hit": false,
      "t": 82544.89716666657,
      "d": 1814.321249999979,
      "v": 87
    },
    {
      "midi": 60,
      "hit": false,
      "t": 82558.33658333324,
      "d": 1888.2380416666565,
      "v": 69
    },
    {
      "midi": 57,
      "hit": false,
      "t": 82571.7759999999,
      "d": 1760.5635833333363,
      "v": 78
    },
    {
      "midi": 84,
      "hit": false,
      "t": 82571.7759999999,
      "d": 1760.5635833333363,
      "v": 78
    },
    {
      "midi": 55,
      "hit": false,
      "t": 82571.7759999999,
      "d": 1767.2832916666666,
      "v": 69
    },
    {
      "midi": 76,
      "hit": false,
      "t": 82571.7759999999,
      "d": 1787.4424166666577,
      "v": 87
    },
    {
      "midi": 52,
      "hit": false,
      "t": 82571.7759999999,
      "d": 1821.040958333324,
      "v": 57
    },
    {
      "midi": 79,
      "hit": false,
      "t": 82585.21541666656,
      "d": 1760.5635833333363,
      "v": 69
    },
    {
      "midi": 65,
      "hit": false,
      "t": 85165.58341666656,
      "d": 1787.4424166666577,
      "v": 53
    },
    {
      "midi": 77,
      "hit": false,
      "t": 85165.58341666656,
      "d": 1794.162124999988,
      "v": 49
    },
    {
      "midi": 62,
      "hit": false,
      "t": 85179.02283333322,
      "d": 1774.002999999997,
      "v": 53
    },
    {
      "midi": 56,
      "hit": false,
      "t": 85179.02283333322,
      "d": 1814.3212499999936,
      "v": 45
    },
    {
      "midi": 72,
      "hit": false,
      "t": 85192.46224999988,
      "d": 1753.843875000006,
      "v": 57
    },
    {
      "midi": 68,
      "hit": false,
      "t": 85192.46224999988,
      "d": 1774.002999999997,
      "v": 41
    },
    {
      "midi": 74,
      "hit": false,
      "t": 85192.46224999988,
      "d": 1774.002999999997,
      "v": 57
    },
    {
      "midi": 60,
      "hit": false,
      "t": 85205.90166666654,
      "d": 1720.2453333333397,
      "v": 45
    },
    {
      "midi": 62,
      "hit": false,
      "t": 87732.51199999987,
      "d": 887.0014999999985,
      "v": 45
    },
    {
      "midi": 55,
      "hit": false,
      "t": 87745.95141666653,
      "d": 712.2890833333367,
      "v": 53
    },
    {
      "midi": 57,
      "hit": false,
      "t": 87745.95141666653,
      "d": 712.2890833333367,
      "v": 53
    },
    {
      "midi": 79,
      "hit": false,
      "t": 87745.95141666653,
      "d": 739.1679166666727,
      "v": 61
    },
    {
      "midi": 52,
      "hit": false,
      "t": 87745.95141666653,
      "d": 766.0467500000086,
      "v": 36
    },
    {
      "midi": 71,
      "hit": false,
      "t": 87745.95141666653,
      "d": 779.4861666666693,
      "v": 65
    },
    {
      "midi": 74,
      "hit": false,
      "t": 87759.3908333332,
      "d": 752.6073333333479,
      "v": 57
    },
    {
      "midi": 67,
      "hit": false,
      "t": 87759.3908333332,
      "d": 792.9255833333445,
      "v": 53
    },
    {
      "midi": 70,
      "hit": false,
      "t": 89036.13541666654,
      "d": 759.3270416666637,
      "v": 61
    },
    {
      "midi": 67,
      "hit": false,
      "t": 89049.5748333332,
      "d": 752.6073333333334,
      "v": 61
    },
    {
      "midi": 76,
      "hit": false,
      "t": 89049.5748333332,
      "d": 752.6073333333334,
      "v": 65
    },
    {
      "midi": 73,
      "hit": false,
      "t": 89049.5748333332,
      "d": 766.0467499999941,
      "v": 61
    },
    {
      "midi": 64,
      "hit": false,
      "t": 89049.5748333332,
      "d": 772.7664583333244,
      "v": 49
    },
    {
      "midi": 58,
      "hit": false,
      "t": 89049.5748333332,
      "d": 779.4861666666548,
      "v": 57
    },
    {
      "midi": 61,
      "hit": false,
      "t": 89049.5748333332,
      "d": 779.4861666666548,
      "v": 53
    },
    {
      "midi": 55,
      "hit": false,
      "t": 89063.01424999986,
      "d": 766.0467499999941,
      "v": 61
    },
    {
      "midi": 72,
      "hit": false,
      "t": 90259.12233333319,
      "d": 618.2131666666392,
      "v": 53
    },
    {
      "midi": 74,
      "hit": false,
      "t": 90286.00116666652,
      "d": 604.7737499999639,
      "v": 65
    },
    {
      "midi": 77,
      "hit": false,
      "t": 90299.44058333318,
      "d": 571.1752083333122,
      "v": 69
    },
    {
      "midi": 53,
      "hit": false,
      "t": 90299.44058333318,
      "d": 1048.2744999999704,
      "v": 53
    },
    {
      "midi": 57,
      "hit": false,
      "t": 90312.87999999984,
      "d": 967.6379999999772,
      "v": 53
    },
    {
      "midi": 60,
      "hit": false,
      "t": 90312.87999999984,
      "d": 994.5168333333131,
      "v": 61
    },
    {
      "midi": 64,
      "hit": false,
      "t": 90312.87999999984,
      "d": 1007.9562499999738,
      "v": 45
    },
    {
      "midi": 81,
      "hit": false,
      "t": 90326.3194166665,
      "d": 557.7357916666515,
      "v": 78
    },
    {
      "midi": 65,
      "hit": false,
      "t": 91119.24499999982,
      "d": 53.75766666667187,
      "v": 53
    },
    {
      "midi": 72,
      "hit": false,
      "t": 91320.83624999982,
      "d": 100.79562499999884,
      "v": 87
    },
    {
      "midi": 53,
      "hit": false,
      "t": 91576.18516666649,
      "d": 934.0394583333255,
      "v": 65
    },
    {
      "midi": 63,
      "hit": false,
      "t": 91589.62458333315,
      "d": 887.0014999999985,
      "v": 65
    },
    {
      "midi": 71,
      "hit": false,
      "t": 91589.62458333315,
      "d": 920.6000416666648,
      "v": 87
    },
    {
      "midi": 65,
      "hit": false,
      "t": 91589.62458333315,
      "d": 954.198583333331,
      "v": 78
    },
    {
      "midi": 59,
      "hit": false,
      "t": 91603.06399999981,
      "d": 873.5620833333378,
      "v": 69
    },
    {
      "midi": 68,
      "hit": false,
      "t": 91603.06399999981,
      "d": 913.8803333333344,
      "v": 65
    },
    {
      "midi": 72,
      "hit": false,
      "t": 92046.56474999982,
      "d": 443.50074999999197,
      "v": 78
    },
    {
      "midi": 74,
      "hit": false,
      "t": 92463.18666666649,
      "d": 120.95474999998987,
      "v": 78
    },
    {
      "midi": 62,
      "hit": false,
      "t": 92906.68741666648,
      "d": 1921.8365833332937,
      "v": 57
    },
    {
      "midi": 67,
      "hit": false,
      "t": 92920.12683333314,
      "d": 1854.6394999999902,
      "v": 69
    },
    {
      "midi": 55,
      "hit": false,
      "t": 92920.12683333314,
      "d": 1861.3592083333206,
      "v": 49
    },
    {
      "midi": 69,
      "hit": false,
      "t": 92920.12683333314,
      "d": 1868.078916666651,
      "v": 65
    },
    {
      "midi": 64,
      "hit": false,
      "t": 92933.5662499998,
      "d": 1841.2000833333295,
      "v": 65
    },
    {
      "midi": 72,
      "hit": false,
      "t": 92933.5662499998,
      "d": 1868.078916666651,
      "v": 61
    },
    {
      "midi": 57,
      "hit": false,
      "t": 92933.5662499998,
      "d": 1881.5183333333116,
      "v": 61
    },
    {
      "midi": 52,
      "hit": false,
      "t": 92933.5662499998,
      "d": 1921.8365833333082,
      "v": 57
    },
    {
      "midi": 74,
      "hit": false,
      "t": 95433.29774999977,
      "d": 342.70512499999313,
      "v": 65
    },
    {
      "midi": 77,
      "hit": false,
      "t": 95473.61599999976,
      "d": 282.2277499999909,
      "v": 78
    },
    {
      "midi": 81,
      "hit": false,
      "t": 95487.05541666642,
      "d": 241.9094999999943,
      "v": 78
    },
    {
      "midi": 50,
      "hit": false,
      "t": 95487.05541666642,
      "d": 806.3650000000052,
      "v": 33
    },
    {
      "midi": 53,
      "hit": false,
      "t": 95500.49483333308,
      "d": 745.8876250000176,
      "v": 65
    },
    {
      "midi": 57,
      "hit": false,
      "t": 95500.49483333308,
      "d": 745.8876250000176,
      "v": 65
    },
    {
      "midi": 60,
      "hit": false,
      "t": 95500.49483333308,
      "d": 853.4029583333468,
      "v": 61
    },
    {
      "midi": 84,
      "hit": false,
      "t": 95527.37366666642,
      "d": 208.31095833332802,
      "v": 78
    },
    {
      "midi": 81,
      "hit": false,
      "t": 96091.82916666643,
      "d": 134.39416666666511,
      "v": 96
    },
    {
      "midi": 72,
      "hit": false,
      "t": 96736.92116666642,
      "d": 322.545999999973,
      "v": 78
    },
    {
      "midi": 65,
      "hit": false,
      "t": 96750.36058333308,
      "d": 302.38687499998196,
      "v": 69
    },
    {
      "midi": 69,
      "hit": false,
      "t": 96750.36058333308,
      "d": 302.38687499998196,
      "v": 69
    },
    {
      "midi": 57,
      "hit": false,
      "t": 96763.79999999974,
      "d": 241.9094999999943,
      "v": 61
    },
    {
      "midi": 60,
      "hit": false,
      "t": 96763.79999999974,
      "d": 248.62920833332464,
      "v": 61
    },
    {
      "midi": 64,
      "hit": false,
      "t": 96763.79999999974,
      "d": 275.5080416666606,
      "v": 61
    },
    {
      "midi": 53,
      "hit": false,
      "t": 96763.79999999974,
      "d": 295.6671666666516,
      "v": 65
    },
    {
      "midi": 63,
      "hit": false,
      "t": 97355.13433333306,
      "d": 349.4248333333089,
      "v": 61
    },
    {
      "midi": 71,
      "hit": false,
      "t": 97368.57374999972,
      "d": 335.98541666664823,
      "v": 61
    },
    {
      "midi": 59,
      "hit": false,
      "t": 97382.01316666638,
      "d": 295.6671666666516,
      "v": 65
    },
    {
      "midi": 53,
      "hit": false,
      "t": 97382.01316666638,
      "d": 322.54599999998754,
      "v": 53
    },
    {
      "midi": 68,
      "hit": false,
      "t": 97382.01316666638,
      "d": 322.54599999998754,
      "v": 65
    },
    {
      "midi": 65,
      "hit": false,
      "t": 97382.01316666638,
      "d": 335.98541666664823,
      "v": 61
    },
    {
      "midi": 56,
      "hit": false,
      "t": 97395.45258333304,
      "d": 309.10658333332685,
      "v": 65
    },
    {
      "midi": 67,
      "hit": false,
      "t": 98053.9839999997,
      "d": 1841.200083333315,
      "v": 87
    },
    {
      "midi": 76,
      "hit": false,
      "t": 98067.42341666637,
      "d": 1841.200083333315,
      "v": 87
    },
    {
      "midi": 62,
      "hit": false,
      "t": 98067.42341666637,
      "d": 1854.6394999999757,
      "v": 78
    },
    {
      "midi": 55,
      "hit": false,
      "t": 98080.86283333303,
      "d": 1800.881833333333,
      "v": 69
    },
    {
      "midi": 64,
      "hit": false,
      "t": 98080.86283333303,
      "d": 1800.881833333333,
      "v": 69
    },
    {
      "midi": 59,
      "hit": false,
      "t": 98080.86283333303,
      "d": 1827.7606666666543,
      "v": 61
    },
    {
      "midi": 71,
      "hit": false,
      "t": 98080.86283333303,
      "d": 1827.7606666666543,
      "v": 69
    },
    {
      "midi": 52,
      "hit": false,
      "t": 98080.86283333303,
      "d": 1874.7986249999813,
      "v": 65
    },
    {
      "midi": 74,
      "hit": false,
      "t": 100620.912583333,
      "d": 739.1679166666436,
      "v": 69
    },
    {
      "midi": 76,
      "hit": false,
      "t": 100647.79141666634,
      "d": 698.849666666647,
      "v": 78
    },
    {
      "midi": 55,
      "hit": false,
      "t": 100661.230833333,
      "d": 611.4934583333234,
      "v": 61
    },
    {
      "midi": 52,
      "hit": false,
      "t": 100661.230833333,
      "d": 685.4102499999863,
      "v": 36
    },
    {
      "midi": 62,
      "hit": false,
      "t": 100661.230833333,
      "d": 719.0087916666525,
      "v": 57
    },
    {
      "midi": 59,
      "hit": false,
      "t": 100674.67024999966,
      "d": 604.773749999993,
      "v": 61
    },
    {
      "midi": 79,
      "hit": false,
      "t": 100674.67024999966,
      "d": 651.81170833332,
      "v": 78
    },
    {
      "midi": 83,
      "hit": false,
      "t": 100714.98849999966,
      "d": 631.652583333329,
      "v": 78
    },
    {
      "midi": 70,
      "hit": false,
      "t": 101897.65716666632,
      "d": 806.3649999999761,
      "v": 57
    },
    {
      "midi": 73,
      "hit": false,
      "t": 101937.97541666632,
      "d": 745.8876249999885,
      "v": 69
    },
    {
      "midi": 55,
      "hit": false,
      "t": 101937.97541666632,
      "d": 766.0467499999795,
      "v": 33
    },
    {
      "midi": 58,
      "hit": false,
      "t": 101951.41483333298,
      "d": 739.1679166666581,
      "v": 57
    },
    {
      "midi": 61,
      "hit": false,
      "t": 101951.41483333298,
      "d": 752.6073333333188,
      "v": 61
    },
    {
      "midi": 64,
      "hit": false,
      "t": 101951.41483333298,
      "d": 766.0467499999795,
      "v": 49
    },
    {
      "midi": 76,
      "hit": false,
      "t": 101964.85424999964,
      "d": 719.0087916666671,
      "v": 78
    },
    {
      "midi": 79,
      "hit": false,
      "t": 101991.73308333298,
      "d": 725.7284999999829,
      "v": 78
    },
    {
      "midi": 72,
      "hit": false,
      "t": 103187.8411666663,
      "d": 1296.9037083333096,
      "v": 57
    },
    {
      "midi": 77,
      "hit": false,
      "t": 103201.28058333296,
      "d": 1249.8657499999972,
      "v": 65
    },
    {
      "midi": 74,
      "hit": false,
      "t": 103214.71999999962,
      "d": 1263.305166666658,
      "v": 65
    },
    {
      "midi": 60,
      "hit": false,
      "t": 103214.71999999962,
      "d": 2177.1854999999923,
      "v": 61
    },
    {
      "midi": 57,
      "hit": false,
      "t": 103214.71999999962,
      "d": 2230.943166666664,
      "v": 57
    },
    {
      "midi": 53,
      "hit": false,
      "t": 103214.71999999962,
      "d": 2298.1402499999967,
      "v": 53
    },
    {
      "midi": 81,
      "hit": false,
      "t": 103228.15941666628,
      "d": 1236.4263333333365,
      "v": 69
    },
    {
      "midi": 64,
      "hit": false,
      "t": 103228.15941666628,
      "d": 2284.700833333336,
      "v": 45
    },
    {
      "midi": 65,
      "hit": false,
      "t": 104908.08649999961,
      "d": 53.75766666667187,
      "v": 78
    },
    {
      "midi": 69,
      "hit": false,
      "t": 105324.70841666628,
      "d": 87.35620833333815,
      "v": 78
    },
    {
      "midi": 72,
      "hit": false,
      "t": 105512.86024999962,
      "d": 87.35620833333815,
      "v": 53
    },
    {
      "midi": 71,
      "hit": false,
      "t": 105808.52741666629,
      "d": 2049.5110416666575,
      "v": 57
    },
    {
      "midi": 57,
      "hit": false,
      "t": 105821.96683333295,
      "d": 1935.275999999998,
      "v": 53
    },
    {
      "midi": 64,
      "hit": false,
      "t": 105821.96683333295,
      "d": 1948.7154166666587,
      "v": 45
    },
    {
      "midi": 69,
      "hit": false,
      "t": 105821.96683333295,
      "d": 2056.2307500000024,
      "v": 57
    },
    {
      "midi": 59,
      "hit": false,
      "t": 105835.4062499996,
      "d": 1921.8365833333373,
      "v": 61
    },
    {
      "midi": 53,
      "hit": false,
      "t": 105835.4062499996,
      "d": 2002.4730833333306,
      "v": 53
    },
    {
      "midi": 65,
      "hit": false,
      "t": 105835.4062499996,
      "d": 2069.6701666666777,
      "v": 49
    },
    {
      "midi": 69,
      "hit": false,
      "t": 108375.45599999963,
      "d": 967.6379999999917,
      "v": 61
    },
    {
      "midi": 62,
      "hit": false,
      "t": 108388.89541666629,
      "d": 927.3197499999951,
      "v": 57
    },
    {
      "midi": 72,
      "hit": false,
      "t": 108402.33483333295,
      "d": 940.7591666666704,
      "v": 69
    },
    {
      "midi": 65,
      "hit": false,
      "t": 108402.33483333295,
      "d": 954.198583333331,
      "v": 65
    },
    {
      "midi": 53,
      "hit": false,
      "t": 108402.33483333295,
      "d": 1733.6847500000003,
      "v": 61
    },
    {
      "midi": 57,
      "hit": false,
      "t": 108402.33483333295,
      "d": 1760.5635833333363,
      "v": 57
    },
    {
      "midi": 50,
      "hit": false,
      "t": 108402.33483333295,
      "d": 1800.881833333333,
      "v": 57
    },
    {
      "midi": 60,
      "hit": false,
      "t": 108402.33483333295,
      "d": 1962.154833333334,
      "v": 57
    },
    {
      "midi": 81,
      "hit": false,
      "t": 110068.82249999962,
      "d": 94.07591666666849,
      "v": 78
    },
    {
      "midi": 72,
      "hit": false,
      "t": 110068.82249999962,
      "d": 100.79562499999884,
      "v": 78
    },
    {
      "midi": 69,
      "hit": false,
      "t": 110472.00499999961,
      "d": 383.02337499998976,
      "v": 69
    },
    {
      "midi": 77,
      "hit": false,
      "t": 110485.44441666627,
      "d": 362.8642499999987,
      "v": 69
    },
    {
      "midi": 64,
      "hit": false,
      "t": 110942.38458333293,
      "d": 846.6832499999728,
      "v": 53
    },
    {
      "midi": 53,
      "hit": false,
      "t": 110955.82399999959,
      "d": 880.281791666639,
      "v": 57
    },
    {
      "midi": 76,
      "hit": false,
      "t": 110969.26341666625,
      "d": 860.122666666648,
      "v": 78
    },
    {
      "midi": 72,
      "hit": false,
      "t": 110969.26341666625,
      "d": 900.4409166666446,
      "v": 69
    },
    {
      "midi": 65,
      "hit": false,
      "t": 110969.26341666625,
      "d": 947.4788749999716,
      "v": 65
    },
    {
      "midi": 60,
      "hit": false,
      "t": 110982.7028333329,
      "d": 752.6073333333334,
      "v": 61
    },
    {
      "midi": 57,
      "hit": false,
      "t": 110982.7028333329,
      "d": 766.0467499999941,
      "v": 61
    },
    {
      "midi": 69,
      "hit": false,
      "t": 110982.7028333329,
      "d": 927.3197499999806,
      "v": 69
    },
    {
      "midi": 65,
      "hit": false,
      "t": 112219.12916666621,
      "d": 819.8044166666514,
      "v": 65
    },
    {
      "midi": 71,
      "hit": false,
      "t": 112219.12916666621,
      "d": 819.8044166666514,
      "v": 65
    },
    {
      "midi": 53,
      "hit": false,
      "t": 112232.56858333288,
      "d": 806.3649999999907,
      "v": 57
    },
    {
      "midi": 74,
      "hit": false,
      "t": 112246.00799999954,
      "d": 739.1679166666727,
      "v": 69
    },
    {
      "midi": 57,
      "hit": false,
      "t": 112246.00799999954,
      "d": 752.6073333333334,
      "v": 65
    },
    {
      "midi": 59,
      "hit": false,
      "t": 112246.00799999954,
      "d": 752.6073333333334,
      "v": 61
    },
    {
      "midi": 69,
      "hit": false,
      "t": 112246.00799999954,
      "d": 779.4861666666693,
      "v": 65
    },
    {
      "midi": 62,
      "hit": false,
      "t": 112246.00799999954,
      "d": 833.2438333333266,
      "v": 61
    },
    {
      "midi": 76,
      "hit": false,
      "t": 113522.75258333287,
      "d": 2264.541708333316,
      "v": 65
    },
    {
      "midi": 64,
      "hit": false,
      "t": 113522.75258333287,
      "d": 2405.6555833333114,
      "v": 61
    },
    {
      "midi": 52,
      "hit": false,
      "t": 113536.19199999953,
      "d": 2163.746083333317,
      "v": 49
    },
    {
      "midi": 67,
      "hit": false,
      "t": 113536.19199999953,
      "d": 2277.981124999991,
      "v": 61
    },
    {
      "midi": 55,
      "hit": false,
      "t": 113549.63141666619,
      "d": 2069.670166666663,
      "v": 53
    },
    {
      "midi": 59,
      "hit": false,
      "t": 113549.63141666619,
      "d": 2069.670166666663,
      "v": 61
    },
    {
      "midi": 62,
      "hit": false,
      "t": 113549.63141666619,
      "d": 2204.0643333333282,
      "v": 49
    },
    {
      "midi": 71,
      "hit": false,
      "t": 113549.63141666619,
      "d": 2244.382583333325,
      "v": 57
    },
    {
      "midi": 53,
      "hit": false,
      "t": 116116.55999999952,
      "d": 658.5314166666794,
      "v": 57
    },
    {
      "midi": 57,
      "hit": false,
      "t": 116116.55999999952,
      "d": 658.5314166666794,
      "v": 61
    },
    {
      "midi": 62,
      "hit": false,
      "t": 116116.55999999952,
      "d": 698.8496666666761,
      "v": 65
    },
    {
      "midi": 50,
      "hit": false,
      "t": 116116.55999999952,
      "d": 712.2890833333367,
      "v": 53
    },
    {
      "midi": 65,
      "hit": false,
      "t": 116116.55999999952,
      "d": 739.1679166666727,
      "v": 65
    },
    {
      "midi": 69,
      "hit": false,
      "t": 116116.55999999952,
      "d": 779.4861666666693,
      "v": 69
    },
    {
      "midi": 72,
      "hit": false,
      "t": 116116.55999999952,
      "d": 846.6832500000019,
      "v": 78
    },
    {
      "midi": 60,
      "hit": false,
      "t": 116116.55999999952,
      "d": 873.5620833333378,
      "v": 49
    },
    {
      "midi": 71,
      "hit": false,
      "t": 117406.74399999953,
      "d": 557.7357916666515,
      "v": 78
    },
    {
      "midi": 68,
      "hit": false,
      "t": 117406.74399999953,
      "d": 591.3343333333178,
      "v": 78
    },
    {
      "midi": 63,
      "hit": false,
      "t": 117406.74399999953,
      "d": 712.2890833333222,
      "v": 65
    },
    {
      "midi": 74,
      "hit": false,
      "t": 117420.18341666619,
      "d": 598.0540416666627,
      "v": 78
    },
    {
      "midi": 59,
      "hit": false,
      "t": 117420.18341666619,
      "d": 624.9328749999986,
      "v": 69
    },
    {
      "midi": 53,
      "hit": false,
      "t": 117420.18341666619,
      "d": 645.0920000000042,
      "v": 61
    },
    {
      "midi": 65,
      "hit": false,
      "t": 117433.62283333285,
      "d": 551.0160833333357,
      "v": 69
    },
    {
      "midi": 56,
      "hit": false,
      "t": 117433.62283333285,
      "d": 645.0920000000042,
      "v": 65
    },
    {
      "midi": 67,
      "hit": false,
      "t": 118696.92799999952,
      "d": 1209.547499999986,
      "v": 87
    },
    {
      "midi": 60,
      "hit": false,
      "t": 118696.92799999952,
      "d": 1236.426333333322,
      "v": 69
    },
    {
      "midi": 55,
      "hit": false,
      "t": 118710.36741666618,
      "d": 1182.6686666666646,
      "v": 78
    },
    {
      "midi": 76,
      "hit": false,
      "t": 118710.36741666618,
      "d": 1182.6686666666646,
      "v": 105
    },
    {
      "midi": 64,
      "hit": false,
      "t": 118710.36741666618,
      "d": 1222.9869166666613,
      "v": 69
    },
    {
      "midi": 72,
      "hit": false,
      "t": 118710.36741666618,
      "d": 1222.9869166666613,
      "v": 78
    },
    {
      "midi": 76,
      "hit": false,
      "t": 120000.55141666617,
      "d": 1061.7139166666602,
      "v": 87
    },
    {
      "midi": 59,
      "hit": false,
      "t": 120013.99083333283,
      "d": 1007.9562500000029,
      "v": 96
    },
    {
      "midi": 55,
      "hit": false,
      "t": 120013.99083333283,
      "d": 1061.7139166666602,
      "v": 69
    },
    {
      "midi": 71,
      "hit": false,
      "t": 120013.99083333283,
      "d": 1061.7139166666602,
      "v": 87
    },
    {
      "midi": 64,
      "hit": false,
      "t": 120013.99083333283,
      "d": 1068.4336249999906,
      "v": 69
    },
    {
      "midi": 67,
      "hit": false,
      "t": 120013.99083333283,
      "d": 1075.153333333321,
      "v": 87
    },
    {
      "midi": 55,
      "hit": false,
      "t": 121277.2959999995,
      "d": 913.8803333333199,
      "v": 78
    },
    {
      "midi": 58,
      "hit": false,
      "t": 121277.2959999995,
      "d": 927.3197499999806,
      "v": 78
    },
    {
      "midi": 76,
      "hit": false,
      "t": 121290.73541666615,
      "d": 725.7284999999974,
      "v": 96
    },
    {
      "midi": 70,
      "hit": false,
      "t": 121290.73541666615,
      "d": 759.3270416666637,
      "v": 78
    },
    {
      "midi": 67,
      "hit": false,
      "t": 121290.73541666615,
      "d": 873.5620833333232,
      "v": 78
    },
    {
      "midi": 64,
      "hit": false,
      "t": 121290.73541666615,
      "d": 927.3197499999806,
      "v": 69
    },
    {
      "midi": 81,
      "hit": false,
      "t": 122567.47999999946,
      "d": 591.3343333333178,
      "v": 78
    },
    {
      "midi": 73,
      "hit": false,
      "t": 122580.91941666612,
      "d": 651.81170833332,
      "v": 65
    },
    {
      "midi": 55,
      "hit": false,
      "t": 122580.91941666612,
      "d": 685.4102499999717,
      "v": 65
    },
    {
      "midi": 58,
      "hit": false,
      "t": 122580.91941666612,
      "d": 685.4102499999717,
      "v": 65
    },
    {
      "midi": 61,
      "hit": false,
      "t": 122580.91941666612,
      "d": 685.4102499999717,
      "v": 65
    },
    {
      "midi": 70,
      "hit": false,
      "t": 122594.35883333278,
      "d": 645.0919999999896,
      "v": 69
    },
    {
      "midi": 76,
      "hit": false,
      "t": 122594.35883333278,
      "d": 645.0919999999896,
      "v": 87
    },
    {
      "midi": 64,
      "hit": false,
      "t": 122594.35883333278,
      "d": 671.970833333311,
      "v": 61
    },
    {
      "midi": 79,
      "hit": false,
      "t": 123172.25374999944,
      "d": 80.63649999999325,
      "v": 78
    },
    {
      "midi": 72,
      "hit": false,
      "t": 123817.34574999941,
      "d": 2204.0643333333137,
      "v": 69
    },
    {
      "midi": 64,
      "hit": false,
      "t": 123830.78516666607,
      "d": 2116.70812499999,
      "v": 49
    },
    {
      "midi": 53,
      "hit": false,
      "t": 123830.78516666607,
      "d": 2157.0263749999867,
      "v": 57
    },
    {
      "midi": 69,
      "hit": false,
      "t": 123830.78516666607,
      "d": 2204.0643333333137,
      "v": 65
    },
    {
      "midi": 67,
      "hit": false,
      "t": 123830.78516666607,
      "d": 2217.5037499999744,
      "v": 61
    },
    {
      "midi": 57,
      "hit": false,
      "t": 123844.22458333273,
      "d": 2096.548999999999,
      "v": 57
    },
    {
      "midi": 60,
      "hit": false,
      "t": 123844.22458333273,
      "d": 2177.1854999999923,
      "v": 61
    },
    {
      "midi": 63,
      "hit": false,
      "t": 126424.59258333272,
      "d": 2069.6701666666486,
      "v": 53
    },
    {
      "midi": 68,
      "hit": false,
      "t": 126424.59258333272,
      "d": 2083.1095833333093,
      "v": 65
    },
    {
      "midi": 60,
      "hit": false,
      "t": 126438.03199999938,
      "d": 2015.9124999999913,
      "v": 69
    },
    {
      "midi": 56,
      "hit": false,
      "t": 126438.03199999938,
      "d": 2062.9504583333182,
      "v": 65
    },
    {
      "midi": 65,
      "hit": false,
      "t": 126438.03199999938,
      "d": 2083.1095833333093,
      "v": 61
    },
    {
      "midi": 72,
      "hit": false,
      "t": 126451.47141666604,
      "d": 2002.4730833333306,
      "v": 78
    },
    {
      "midi": 53,
      "hit": false,
      "t": 126451.47141666604,
      "d": 2029.3519166666665,
      "v": 36
    },
    {
      "midi": 55,
      "hit": false,
      "t": 129018.39999999935,
      "d": 1800.881833333333,
      "v": 61
    },
    {
      "midi": 64,
      "hit": false,
      "t": 129018.39999999935,
      "d": 1854.6395000000048,
      "v": 49
    },
    {
      "midi": 59,
      "hit": false,
      "t": 129018.39999999935,
      "d": 1868.0789166666655,
      "v": 53
    },
    {
      "midi": 52,
      "hit": false,
      "t": 129018.39999999935,
      "d": 1881.5183333333262,
      "v": 36
    },
    {
      "midi": 67,
      "hit": false,
      "t": 129018.39999999935,
      "d": 1894.9577499999868,
      "v": 49
    },
    {
      "midi": 76,
      "hit": false,
      "t": 129018.39999999935,
      "d": 1908.3971666666475,
      "v": 53
    },
    {
      "midi": 71,
      "hit": false,
      "t": 129018.39999999935,
      "d": 1948.7154166666442,
      "v": 57
    },
    {
      "midi": 62,
      "hit": false,
      "t": 129018.39999999935,
      "d": 2177.185499999963,
      "v": 53
    },
    {
      "midi": 67,
      "hit": false,
      "t": 131571.889166666,
      "d": 2230.943166666635,
      "v": 53
    },
    {
      "midi": 70,
      "hit": false,
      "t": 131585.32858333265,
      "d": 2190.624916666653,
      "v": 61
    },
    {
      "midi": 73,
      "hit": false,
      "t": 131598.7679999993,
      "d": 2163.7460833333316,
      "v": 65
    },
    {
      "midi": 55,
      "hit": false,
      "t": 131612.20741666597,
      "d": 2217.5037499999744,
      "v": 53
    },
    {
      "midi": 65,
      "hit": false,
      "t": 131612.20741666597,
      "d": 2230.943166666635,
      "v": 53
    },
    {
      "midi": 77,
      "hit": false,
      "t": 131625.64683333263,
      "d": 2096.548999999999,
      "v": 78
    },
    {
      "midi": 61,
      "hit": false,
      "t": 131625.64683333263,
      "d": 2311.5796666666283,
      "v": 61
    },
    {
      "midi": 65,
      "hit": false,
      "t": 134179.13599999924,
      "d": 1471.6161250000005,
      "v": 57
    },
    {
      "midi": 53,
      "hit": false,
      "t": 134179.13599999924,
      "d": 2412.375291666598,
      "v": 53
    },
    {
      "midi": 69,
      "hit": false,
      "t": 134206.01483333256,
      "d": 1639.6088333333319,
      "v": 61
    },
    {
      "midi": 74,
      "hit": false,
      "t": 134206.01483333256,
      "d": 1666.4876666666532,
      "v": 61
    },
    {
      "midi": 72,
      "hit": false,
      "t": 134206.01483333256,
      "d": 1679.927083333314,
      "v": 65
    },
    {
      "midi": 60,
      "hit": false,
      "t": 134206.01483333256,
      "d": 2392.2161666666216,
      "v": 61
    },
    {
      "midi": 64,
      "hit": false,
      "t": 134206.01483333256,
      "d": 2392.2161666666216,
      "v": 49
    },
    {
      "midi": 65,
      "hit": false,
      "t": 135899.38133333254,
      "d": 161.2729999999865,
      "v": 87
    },
    {
      "midi": 69,
      "hit": false,
      "t": 136316.0032499992,
      "d": 94.07591666665394,
      "v": 69
    },
    {
      "midi": 72,
      "hit": false,
      "t": 136490.71566666584,
      "d": 134.39416666666511,
      "v": 69
    },
    {
      "midi": 60,
      "hit": false,
      "t": 136759.50399999917,
      "d": 900.4409166666737,
      "v": 61
    },
    {
      "midi": 53,
      "hit": false,
      "t": 136759.50399999917,
      "d": 1007.9562500000175,
      "v": 65
    },
    {
      "midi": 64,
      "hit": false,
      "t": 136759.50399999917,
      "d": 1007.9562500000175,
      "v": 57
    },
    {
      "midi": 65,
      "hit": false,
      "t": 136759.50399999917,
      "d": 1290.1840000000084,
      "v": 61
    },
    {
      "midi": 69,
      "hit": false,
      "t": 136759.50399999917,
      "d": 1290.1840000000084,
      "v": 69
    },
    {
      "midi": 72,
      "hit": false,
      "t": 136759.50399999917,
      "d": 1290.1840000000084,
      "v": 69
    },
    {
      "midi": 71,
      "hit": false,
      "t": 138049.68799999918,
      "d": 967.6379999999772,
      "v": 85
    },
    {
      "midi": 59,
      "hit": false,
      "t": 138076.5668333325,
      "d": 866.8423749999783,
      "v": 65
    },
    {
      "midi": 64,
      "hit": false,
      "t": 138090.00624999916,
      "d": 786.2058749999851,
      "v": 61
    },
    {
      "midi": 53,
      "hit": false,
      "t": 138090.00624999916,
      "d": 806.3649999999907,
      "v": 65
    },
    {
      "midi": 56,
      "hit": false,
      "t": 138090.00624999916,
      "d": 839.963541666657,
      "v": 57
    },
    {
      "midi": 59,
      "hit": false,
      "t": 139326.43258333247,
      "d": 2042.7913333333272,
      "v": 69
    },
    {
      "midi": 52,
      "hit": false,
      "t": 139326.43258333247,
      "d": 2103.268708333315,
      "v": 65
    },
    {
      "midi": 67,
      "hit": false,
      "t": 139339.87199999913,
      "d": 2002.473083333316,
      "v": 78
    },
    {
      "midi": 71,
      "hit": false,
      "t": 139339.87199999913,
      "d": 2009.192791666661,
      "v": 65
    },
    {
      "midi": 64,
      "hit": false,
      "t": 139353.3114166658,
      "d": 1975.5942499999946,
      "v": 78
    },
    {
      "midi": 55,
      "hit": false,
      "t": 139353.3114166658,
      "d": 2029.3519166666665,
      "v": 65
    },
    {
      "midi": 76,
      "hit": false,
      "t": 139353.3114166658,
      "d": 2042.7913333333272,
      "v": 78
    },
    {
      "midi": 62,
      "hit": false,
      "t": 139353.3114166658,
      "d": 2096.548999999999,
      "v": 78
    },
    {
      "midi": 74,
      "hit": false,
      "t": 141866.48233333245,
      "d": 981.077416666667,
      "v": 65
    },
    {
      "midi": 79,
      "hit": false,
      "t": 141920.23999999912,
      "d": 833.2438333333412,
      "v": 78
    },
    {
      "midi": 57,
      "hit": false,
      "t": 141947.11883333244,
      "d": 685.4102500000154,
      "v": 61
    },
    {
      "midi": 55,
      "hit": false,
      "t": 141947.11883333244,
      "d": 698.8496666666761,
      "v": 53
    },
    {
      "midi": 52,
      "hit": false,
      "t": 141947.11883333244,
      "d": 739.1679166666872,
      "v": 45
    },
    {
      "midi": 62,
      "hit": false,
      "t": 141947.11883333244,
      "d": 1048.2744999999995,
      "v": 53
    },
    {
      "midi": 83,
      "hit": false,
      "t": 141960.5582499991,
      "d": 806.3650000000198,
      "v": 87
    },
    {
      "midi": 70,
      "hit": false,
      "t": 143210.4239999991,
      "d": 779.4861666666402,
      "v": 61
    },
    {
      "midi": 73,
      "hit": false,
      "t": 143237.30283333242,
      "d": 752.6073333333188,
      "v": 69
    },
    {
      "midi": 55,
      "hit": false,
      "t": 143237.30283333242,
      "d": 766.0467499999795,
      "v": 41
    },
    {
      "midi": 76,
      "hit": false,
      "t": 143250.74224999908,
      "d": 712.2890833333367,
      "v": 78
    },
    {
      "midi": 58,
      "hit": false,
      "t": 143250.74224999908,
      "d": 786.2058749999851,
      "v": 53
    },
    {
      "midi": 64,
      "hit": false,
      "t": 143250.74224999908,
      "d": 806.3649999999907,
      "v": 57
    },
    {
      "midi": 61,
      "hit": false,
      "t": 143250.74224999908,
      "d": 813.0847083333356,
      "v": 57
    },
    {
      "midi": 79,
      "hit": false,
      "t": 143264.18166666574,
      "d": 725.7284999999974,
      "v": 87
    },
    {
      "midi": 72,
      "hit": false,
      "t": 144487.16858333242,
      "d": 1189.3883749999804,
      "v": 53
    },
    {
      "midi": 77,
      "hit": false,
      "t": 144500.60799999908,
      "d": 1142.3504166666535,
      "v": 57
    },
    {
      "midi": 74,
      "hit": false,
      "t": 144514.04741666574,
      "d": 1182.6686666666646,
      "v": 61
    },
    {
      "midi": 64,
      "hit": false,
      "t": 144514.04741666574,
      "d": 2298.1402499999967,
      "v": 41
    },
    {
      "midi": 81,
      "hit": false,
      "t": 144527.4868333324,
      "d": 1128.9109999999928,
      "v": 57
    },
    {
      "midi": 60,
      "hit": false,
      "t": 144527.4868333324,
      "d": 2177.1854999999923,
      "v": 53
    },
    {
      "midi": 57,
      "hit": false,
      "t": 144527.4868333324,
      "d": 2197.344624999998,
      "v": 57
    },
    {
      "midi": 53,
      "hit": false,
      "t": 144527.4868333324,
      "d": 2244.382583333325,
      "v": 36
    },
    {
      "midi": 65,
      "hit": false,
      "t": 146193.97449999908,
      "d": 80.63649999999325,
      "v": 78
    },
    {
      "midi": 69,
      "hit": false,
      "t": 146624.0358333324,
      "d": 80.63649999999325,
      "v": 87
    },
    {
      "midi": 72,
      "hit": false,
      "t": 146825.6270833324,
      "d": 94.07591666665394,
      "v": 57
    },
    {
      "midi": 71,
      "hit": false,
      "t": 147080.97599999903,
      "d": 2056.230750000017,
      "v": 65
    },
    {
      "midi": 65,
      "hit": false,
      "t": 147080.97599999903,
      "d": 2096.549000000028,
      "v": 69
    },
    {
      "midi": 59,
      "hit": false,
      "t": 147080.97599999903,
      "d": 2136.8672500000393,
      "v": 65
    },
    {
      "midi": 69,
      "hit": false,
      "t": 147080.97599999903,
      "d": 2150.3066666667,
      "v": 78
    },
    {
      "midi": 53,
      "hit": false,
      "t": 147080.97599999903,
      "d": 2190.624916666711,
      "v": 65
    },
    {
      "midi": 64,
      "hit": false,
      "t": 147080.97599999903,
      "d": 2217.5037500000326,
      "v": 69
    },
    {
      "midi": 65,
      "hit": false,
      "t": 149607.5863333324,
      "d": 2452.6935416666383,
      "v": 61
    },
    {
      "midi": 69,
      "hit": false,
      "t": 149647.90458333242,
      "d": 2392.2161666666216,
      "v": 78
    },
    {
      "midi": 53,
      "hit": false,
      "t": 149661.34399999908,
      "d": 2365.3373333333,
      "v": 57
    },
    {
      "midi": 60,
      "hit": false,
      "t": 149688.2228333324,
      "d": 2230.943166666664,
      "v": 69
    },
    {
      "midi": 57,
      "hit": false,
      "t": 149688.2228333324,
      "d": 2257.8219999999856,
      "v": 65
    },
    {
      "midi": 64,
      "hit": false,
      "t": 149688.2228333324,
      "d": 2338.458499999979,
      "v": 57
    },
    {
      "midi": 72,
      "hit": false,
      "t": 149688.2228333324,
      "d": 2351.8979166666395,
      "v": 78
    },
    {
      "midi": 77,
      "hit": false,
      "t": 149688.2228333324,
      "d": 2351.8979166666395,
      "v": 78
    },
    {
      "midi": 72,
      "hit": false,
      "t": 152228.27258333238,
      "d": 792.9255833333591,
      "v": 78
    },
    {
      "midi": 77,
      "hit": false,
      "t": 152241.71199999904,
      "d": 739.1679166666581,
      "v": 69
    },
    {
      "midi": 57,
      "hit": false,
      "t": 152241.71199999904,
      "d": 752.6073333333479,
      "v": 61
    },
    {
      "midi": 69,
      "hit": false,
      "t": 152241.71199999904,
      "d": 772.7664583333535,
      "v": 78
    },
    {
      "midi": 53,
      "hit": false,
      "t": 152241.71199999904,
      "d": 779.4861666666984,
      "v": 57
    },
    {
      "midi": 60,
      "hit": false,
      "t": 152255.1514166657,
      "d": 692.1299583333312,
      "v": 53
    },
    {
      "midi": 64,
      "hit": false,
      "t": 152255.1514166657,
      "d": 732.4482083333423,
      "v": 57
    },
    {
      "midi": 65,
      "hit": false,
      "t": 152255.1514166657,
      "d": 766.0467500000377,
      "v": 57
    },
    {
      "midi": 74,
      "hit": false,
      "t": 153531.89599999908,
      "d": 577.8949166666716,
      "v": 69
    },
    {
      "midi": 59,
      "hit": false,
      "t": 153531.89599999908,
      "d": 604.773749999993,
      "v": 61
    },
    {
      "midi": 57,
      "hit": false,
      "t": 153531.89599999908,
      "d": 618.2131666666537,
      "v": 61
    },
    {
      "midi": 53,
      "hit": false,
      "t": 153531.89599999908,
      "d": 658.5314166666649,
      "v": 69
    },
    {
      "midi": 62,
      "hit": false,
      "t": 153531.89599999908,
      "d": 671.9708333333256,
      "v": 65
    },
    {
      "midi": 65,
      "hit": false,
      "t": 153531.89599999908,
      "d": 671.9708333333256,
      "v": 69
    },
    {
      "midi": 69,
      "hit": false,
      "t": 153531.89599999908,
      "d": 671.9708333333256,
      "v": 87
    },
    {
      "midi": 71,
      "hit": false,
      "t": 153531.89599999908,
      "d": 685.4102499999863,
      "v": 78
    },
    {
      "midi": 52,
      "hit": false,
      "t": 154822.07999999906,
      "d": 1955.435124999989,
      "v": 61
    },
    {
      "midi": 64,
      "hit": false,
      "t": 154835.51941666572,
      "d": 2056.230749999988,
      "v": 78
    },
    {
      "midi": 55,
      "hit": false,
      "t": 154848.95883333238,
      "d": 1841.2000833333295,
      "v": 53
    },
    {
      "midi": 59,
      "hit": false,
      "t": 154848.95883333238,
      "d": 1841.2000833333295,
      "v": 69
    },
    {
      "midi": 62,
      "hit": false,
      "t": 154848.95883333238,
      "d": 1915.116875000007,
      "v": 61
    },
    {
      "midi": 76,
      "hit": false,
      "t": 154848.95883333238,
      "d": 1982.3139583333395,
      "v": 69
    },
    {
      "midi": 71,
      "hit": false,
      "t": 154848.95883333238,
      "d": 2002.4730833333451,
      "v": 65
    },
    {
      "midi": 67,
      "hit": false,
      "t": 154848.95883333238,
      "d": 2015.9125000000058,
      "v": 69
    },
    {
      "midi": 60,
      "hit": false,
      "t": 157402.44799999904,
      "d": 1034.8350833332806,
      "v": 53
    },
    {
      "midi": 53,
      "hit": false,
      "t": 157415.8874166657,
      "d": 544.2963749999471,
      "v": 61
    },
    {
      "midi": 57,
      "hit": false,
      "t": 157415.8874166657,
      "d": 564.4554999999527,
      "v": 57
    },
    {
      "midi": 50,
      "hit": false,
      "t": 157415.8874166657,
      "d": 604.7737499999639,
      "v": 49
    },
    {
      "midi": 62,
      "hit": false,
      "t": 157429.32683333236,
      "d": 443.5007499999774,
      "v": 57
    },
    {
      "midi": 65,
      "hit": false,
      "t": 157429.32683333236,
      "d": 470.3795833332988,
      "v": 65
    },
    {
      "midi": 69,
      "hit": false,
      "t": 157429.32683333236,
      "d": 483.8189999999595,
      "v": 65
    },
    {
      "midi": 72,
      "hit": false,
      "t": 158665.75316666567,
      "d": 1102.0321666666132,
      "v": 69
    },
    {
      "midi": 74,
      "hit": false,
      "t": 158679.19258333233,
      "d": 974.357708333293,
      "v": 87
    },
    {
      "midi": 77,
      "hit": false,
      "t": 158692.631999999,
      "d": 940.7591666666267,
      "v": 87
    },
    {
      "midi": 57,
      "hit": false,
      "t": 158719.51083333232,
      "d": 873.5620833333232,
      "v": 78
    },
    {
      "midi": 53,
      "hit": false,
      "t": 158719.51083333232,
      "d": 981.0774166666379,
      "v": 65
    },
    {
      "midi": 60,
      "hit": false,
      "t": 158732.95024999898,
      "d": 887.0014999999839,
      "v": 69
    },
    {
      "midi": 64,
      "hit": false,
      "t": 158732.95024999898,
      "d": 967.6379999999772,
      "v": 78
    },
    {
      "midi": 81,
      "hit": false,
      "t": 158746.38966666564,
      "d": 927.3197499999951,
      "v": 78
    },
    {
      "midi": 74,
      "hit": false,
      "t": 160009.69483333227,
      "d": 618.2131666666537,
      "v": 87
    },
    {
      "midi": 76,
      "hit": false,
      "t": 160023.13424999893,
      "d": 571.1752083333267,
      "v": 78
    },
    {
      "midi": 79,
      "hit": false,
      "t": 160036.5736666656,
      "d": 537.5766666666605,
      "v": 87
    },
    {
      "midi": 59,
      "hit": false,
      "t": 160036.5736666656,
      "d": 698.849666666647,
      "v": 69
    },
    {
      "midi": 52,
      "hit": false,
      "t": 160036.5736666656,
      "d": 712.2890833333076,
      "v": 57
    },
    {
      "midi": 62,
      "hit": false,
      "t": 160036.5736666656,
      "d": 766.0467499999795,
      "v": 65
    },
    {
      "midi": 55,
      "hit": false,
      "t": 160050.01308333225,
      "d": 658.5314166666649,
      "v": 61
    },
    {
      "midi": 83,
      "hit": false,
      "t": 160063.4524999989,
      "d": 510.6978333333391,
      "v": 78
    },
    {
      "midi": 71,
      "hit": false,
      "t": 161232.6817499989,
      "d": 1115.471583333332,
      "v": 96
    },
    {
      "midi": 59,
      "hit": false,
      "t": 161246.12116666557,
      "d": 1075.15333333335,
      "v": 65
    },
    {
      "midi": 76,
      "hit": false,
      "t": 161246.12116666557,
      "d": 1075.15333333335,
      "v": 96
    },
    {
      "midi": 55,
      "hit": false,
      "t": 161246.12116666557,
      "d": 1115.471583333332,
      "v": 45
    },
    {
      "midi": 67,
      "hit": false,
      "t": 161246.12116666557,
      "d": 1115.471583333332,
      "v": 87
    },
    {
      "midi": 64,
      "hit": false,
      "t": 161246.12116666557,
      "d": 1128.9109999999928,
      "v": 53
    },
    {
      "midi": 76,
      "hit": false,
      "t": 162563.1839999989,
      "d": 685.4102500000154,
      "v": 96
    },
    {
      "midi": 70,
      "hit": false,
      "t": 162563.1839999989,
      "d": 739.1679166666872,
      "v": 87
    },
    {
      "midi": 55,
      "hit": false,
      "t": 162563.1839999989,
      "d": 779.4861666666984,
      "v": 78
    },
    {
      "midi": 58,
      "hit": false,
      "t": 162563.1839999989,
      "d": 806.3650000000198,
      "v": 87
    },
    {
      "midi": 67,
      "hit": false,
      "t": 162563.1839999989,
      "d": 806.3650000000198,
      "v": 87
    },
    {
      "midi": 64,
      "hit": false,
      "t": 162563.1839999989,
      "d": 833.2438333333412,
      "v": 78
    },
    {
      "midi": 52,
      "hit": false,
      "t": 163853.3679999989,
      "d": 900.4409166666155,
      "v": 69
    },
    {
      "midi": 81,
      "hit": false,
      "t": 163866.80741666557,
      "d": 497.2584166666493,
      "v": 87
    },
    {
      "midi": 73,
      "hit": false,
      "t": 163866.80741666557,
      "d": 537.5766666666605,
      "v": 87
    },
    {
      "midi": 76,
      "hit": false,
      "t": 163866.80741666557,
      "d": 564.4554999999818,
      "v": 96
    },
    {
      "midi": 62,
      "hit": false,
      "t": 163866.80741666557,
      "d": 839.9635416666279,
      "v": 69
    },
    {
      "midi": 58,
      "hit": false,
      "t": 163866.80741666557,
      "d": 873.5620833332941,
      "v": 69
    },
    {
      "midi": 70,
      "hit": false,
      "t": 163880.24683333223,
      "d": 483.8189999999886,
      "v": 87
    },
    {
      "midi": 76,
      "hit": false,
      "t": 164458.14174999887,
      "d": 221.75037499997416,
      "v": 61
    },
    {
      "midi": 73,
      "hit": false,
      "t": 164471.58116666554,
      "d": 215.03066666665836,
      "v": 69
    },
    {
      "midi": 70,
      "hit": false,
      "t": 164471.58116666554,
      "d": 221.75037500000326,
      "v": 87
    },
    {
      "midi": 79,
      "hit": false,
      "t": 164471.58116666554,
      "d": 241.90950000000885,
      "v": 87
    },
    {
      "midi": 72,
      "hit": false,
      "t": 165116.6731666655,
      "d": 1814.321249999979,
      "v": 87
    },
    {
      "midi": 60,
      "hit": false,
      "t": 165130.11258333217,
      "d": 1888.2380416666565,
      "v": 69
    },
    {
      "midi": 57,
      "hit": false,
      "t": 165143.55199999883,
      "d": 1760.5635833333072,
      "v": 78
    },
    {
      "midi": 84,
      "hit": false,
      "t": 165143.55199999883,
      "d": 1760.5635833333072,
      "v": 78
    },
    {
      "midi": 55,
      "hit": false,
      "t": 165143.55199999883,
      "d": 1767.283291666652,
      "v": 69
    },
    {
      "midi": 76,
      "hit": false,
      "t": 165143.55199999883,
      "d": 1787.4424166666577,
      "v": 87
    },
    {
      "midi": 52,
      "hit": false,
      "t": 165143.55199999883,
      "d": 1821.040958333324,
      "v": 57
    },
    {
      "midi": 79,
      "hit": false,
      "t": 165156.9914166655,
      "d": 1760.5635833333363,
      "v": 69
    },
    {
      "midi": 65,
      "hit": false,
      "t": 167737.35941666548,
      "d": 1787.4424166666577,
      "v": 53
    },
    {
      "midi": 77,
      "hit": false,
      "t": 167737.35941666548,
      "d": 1794.1621250000026,
      "v": 49
    },
    {
      "midi": 62,
      "hit": false,
      "t": 167750.79883333214,
      "d": 1774.002999999997,
      "v": 53
    },
    {
      "midi": 56,
      "hit": false,
      "t": 167750.79883333214,
      "d": 1814.3212500000081,
      "v": 45
    },
    {
      "midi": 72,
      "hit": false,
      "t": 167764.2382499988,
      "d": 1753.8438749999914,
      "v": 57
    },
    {
      "midi": 68,
      "hit": false,
      "t": 167764.2382499988,
      "d": 1774.003000000026,
      "v": 41
    },
    {
      "midi": 74,
      "hit": false,
      "t": 167764.2382499988,
      "d": 1774.003000000026,
      "v": 57
    },
    {
      "midi": 60,
      "hit": false,
      "t": 167777.67766666546,
      "d": 1720.245333333325,
      "v": 45
    },
    {
      "midi": 62,
      "hit": false,
      "t": 170304.28799999884,
      "d": 887.0014999999548,
      "v": 45
    },
    {
      "midi": 55,
      "hit": false,
      "t": 170317.7274166655,
      "d": 712.2890833333367,
      "v": 53
    },
    {
      "midi": 57,
      "hit": false,
      "t": 170317.7274166655,
      "d": 712.2890833333367,
      "v": 53
    },
    {
      "midi": 79,
      "hit": false,
      "t": 170317.7274166655,
      "d": 739.1679166666581,
      "v": 61
    },
    {
      "midi": 52,
      "hit": false,
      "t": 170317.7274166655,
      "d": 766.0467499999795,
      "v": 36
    },
    {
      "midi": 71,
      "hit": false,
      "t": 170317.7274166655,
      "d": 779.4861666666402,
      "v": 65
    },
    {
      "midi": 74,
      "hit": false,
      "t": 170331.16683333216,
      "d": 752.6073333333188,
      "v": 57
    },
    {
      "midi": 67,
      "hit": false,
      "t": 170331.16683333216,
      "d": 792.9255833333009,
      "v": 53
    },
    {
      "midi": 70,
      "hit": false,
      "t": 171607.91141666545,
      "d": 759.3270416666637,
      "v": 61
    },
    {
      "midi": 67,
      "hit": false,
      "t": 171621.3508333321,
      "d": 752.6073333333479,
      "v": 61
    },
    {
      "midi": 76,
      "hit": false,
      "t": 171621.3508333321,
      "d": 752.6073333333479,
      "v": 65
    },
    {
      "midi": 73,
      "hit": false,
      "t": 171621.3508333321,
      "d": 766.0467500000086,
      "v": 61
    },
    {
      "midi": 64,
      "hit": false,
      "t": 171621.3508333321,
      "d": 772.7664583333535,
      "v": 49
    },
    {
      "midi": 58,
      "hit": false,
      "t": 171621.3508333321,
      "d": 779.4861666666984,
      "v": 57
    },
    {
      "midi": 61,
      "hit": false,
      "t": 171621.3508333321,
      "d": 779.4861666666984,
      "v": 53
    },
    {
      "midi": 55,
      "hit": false,
      "t": 171634.79024999877,
      "d": 766.0467500000377,
      "v": 61
    },
    {
      "midi": 72,
      "hit": false,
      "t": 172830.89833333215,
      "d": 618.2131666666537,
      "v": 53
    },
    {
      "midi": 74,
      "hit": false,
      "t": 172857.77716666547,
      "d": 604.7737500000221,
      "v": 65
    },
    {
      "midi": 77,
      "hit": false,
      "t": 172871.21658333213,
      "d": 571.1752083333267,
      "v": 69
    },
    {
      "midi": 53,
      "hit": false,
      "t": 172871.21658333213,
      "d": 1048.2744999999995,
      "v": 53
    },
    {
      "midi": 57,
      "hit": false,
      "t": 172884.6559999988,
      "d": 967.6380000000354,
      "v": 53
    },
    {
      "midi": 60,
      "hit": false,
      "t": 172884.6559999988,
      "d": 994.5168333333568,
      "v": 61
    },
    {
      "midi": 64,
      "hit": false,
      "t": 172884.6559999988,
      "d": 1007.9562500000175,
      "v": 45
    },
    {
      "midi": 81,
      "hit": false,
      "t": 172898.09541666546,
      "d": 557.7357916666951,
      "v": 78
    },
    {
      "midi": 65,
      "hit": false,
      "t": 173691.02099999881,
      "d": 53.75766666667187,
      "v": 53
    },
    {
      "midi": 72,
      "hit": false,
      "t": 173892.6122499988,
      "d": 100.79562499999884,
      "v": 87
    },
    {
      "midi": 53,
      "hit": false,
      "t": 174147.96116666545,
      "d": 934.03945833334,
      "v": 65
    },
    {
      "midi": 63,
      "hit": false,
      "t": 174161.4005833321,
      "d": 887.001500000013,
      "v": 65
    },
    {
      "midi": 71,
      "hit": false,
      "t": 174161.4005833321,
      "d": 920.6000416666793,
      "v": 87
    },
    {
      "midi": 65,
      "hit": false,
      "t": 174161.4005833321,
      "d": 954.1985833333456,
      "v": 78
    },
    {
      "midi": 59,
      "hit": false,
      "t": 174174.83999999877,
      "d": 873.5620833333523,
      "v": 69
    },
    {
      "midi": 68,
      "hit": false,
      "t": 174174.83999999877,
      "d": 913.8803333333635,
      "v": 65
    },
    {
      "midi": 72,
      "hit": false,
      "t": 174618.34074999878,
      "d": 443.5007500000065,
      "v": 78
    },
    {
      "midi": 74,
      "hit": false,
      "t": 175034.96266666547,
      "d": 120.95475000000442,
      "v": 78
    },
    {
      "midi": 62,
      "hit": false,
      "t": 175478.46341666547,
      "d": 1921.8365833333228,
      "v": 57
    },
    {
      "midi": 67,
      "hit": false,
      "t": 175491.90283333213,
      "d": 1854.6394999999902,
      "v": 69
    },
    {
      "midi": 55,
      "hit": false,
      "t": 175491.90283333213,
      "d": 1861.3592083333351,
      "v": 49
    },
    {
      "midi": 69,
      "hit": false,
      "t": 175491.90283333213,
      "d": 1868.07891666668,
      "v": 65
    },
    {
      "midi": 64,
      "hit": false,
      "t": 175505.3422499988,
      "d": 1841.2000833333295,
      "v": 65
    },
    {
      "midi": 72,
      "hit": false,
      "t": 175505.3422499988,
      "d": 1868.07891666668,
      "v": 61
    },
    {
      "midi": 57,
      "hit": false,
      "t": 175505.3422499988,
      "d": 1881.5183333333407,
      "v": 61
    },
    {
      "midi": 52,
      "hit": false,
      "t": 175505.3422499988,
      "d": 1921.8365833333228,
      "v": 57
    },
    {
      "midi": 74,
      "hit": false,
      "t": 178005.0737499988,
      "d": 342.7051250000077,
      "v": 65
    },
    {
      "midi": 77,
      "hit": false,
      "t": 178045.3919999988,
      "d": 282.2277499999909,
      "v": 78
    },
    {
      "midi": 81,
      "hit": false,
      "t": 178058.83141666546,
      "d": 241.90949999997974,
      "v": 78
    },
    {
      "midi": 50,
      "hit": false,
      "t": 178058.83141666546,
      "d": 806.3649999999907,
      "v": 33
    },
    {
      "midi": 53,
      "hit": false,
      "t": 178072.27083333212,
      "d": 745.887625000003,
      "v": 65
    },
    {
      "midi": 57,
      "hit": false,
      "t": 178072.27083333212,
      "d": 745.887625000003,
      "v": 65
    },
    {
      "midi": 60,
      "hit": false,
      "t": 178072.27083333212,
      "d": 853.4029583333177,
      "v": 61
    },
    {
      "midi": 84,
      "hit": false,
      "t": 178099.14966666544,
      "d": 208.31095833334257,
      "v": 78
    },
    {
      "midi": 81,
      "hit": false,
      "t": 178663.60516666545,
      "d": 134.39416666666511,
      "v": 96
    },
    {
      "midi": 72,
      "hit": false,
      "t": 179308.69716666543,
      "d": 322.545999999973,
      "v": 78
    },
    {
      "midi": 65,
      "hit": false,
      "t": 179322.1365833321,
      "d": 302.3868749999674,
      "v": 69
    },
    {
      "midi": 69,
      "hit": false,
      "t": 179322.1365833321,
      "d": 302.3868749999674,
      "v": 69
    },
    {
      "midi": 57,
      "hit": false,
      "t": 179335.57599999875,
      "d": 241.90949999997974,
      "v": 61
    },
    {
      "midi": 60,
      "hit": false,
      "t": 179335.57599999875,
      "d": 248.62920833332464,
      "v": 61
    },
    {
      "midi": 64,
      "hit": false,
      "t": 179335.57599999875,
      "d": 275.508041666646,
      "v": 61
    },
    {
      "midi": 53,
      "hit": false,
      "t": 179335.57599999875,
      "d": 295.6671666666516,
      "v": 65
    },
    {
      "midi": 63,
      "hit": false,
      "t": 179926.91033333208,
      "d": 349.4248333333235,
      "v": 61
    },
    {
      "midi": 71,
      "hit": false,
      "t": 179940.34974999874,
      "d": 335.9854166666628,
      "v": 61
    },
    {
      "midi": 59,
      "hit": false,
      "t": 179953.7891666654,
      "d": 295.6671666666807,
      "v": 65
    },
    {
      "midi": 53,
      "hit": false,
      "t": 179953.7891666654,
      "d": 322.5460000000021,
      "v": 53
    },
    {
      "midi": 68,
      "hit": false,
      "t": 179953.7891666654,
      "d": 322.5460000000021,
      "v": 65
    },
    {
      "midi": 65,
      "hit": false,
      "t": 179953.7891666654,
      "d": 335.9854166666628,
      "v": 61
    },
    {
      "midi": 56,
      "hit": false,
      "t": 179967.22858333206,
      "d": 309.1065833333414,
      "v": 65
    },
    {
      "midi": 36,
      "hit": false,
      "t": 180625.75999999873,
      "d": 201.59124999999767,
      "v": 69
    },
    {
      "midi": 43,
      "hit": false,
      "t": 180907.98774999872,
      "d": 94.07591666665394,
      "v": 78
    },
    {
      "midi": 52,
      "hit": false,
      "t": 181149.8972499987,
      "d": 73.91679166667745,
      "v": 61
    },
    {
      "midi": 55,
      "hit": false,
      "t": 181378.36733333205,
      "d": 497.2584166666784,
      "v": 61
    },
    {
      "midi": 57,
      "hit": false,
      "t": 181620.27683333206,
      "d": 255.34891666666954,
      "v": 61
    },
    {
      "midi": 60,
      "hit": false,
      "t": 181862.18633333207,
      "d": 188.15183333333698,
      "v": 53
    },
    {
      "midi": 62,
      "hit": false,
      "t": 182130.9746666654,
      "d": 161.2729999999865,
      "v": 57
    },
    {
      "midi": 64,
      "hit": false,
      "t": 182359.4447499987,
      "d": 100.79562499999884,
      "v": 61
    },
    {
      "midi": 69,
      "hit": false,
      "t": 182655.11191666537,
      "d": 282.2277499999909,
      "v": 65
    },
    {
      "midi": 67,
      "hit": false,
      "t": 182950.77908333202,
      "d": 302.3868749999965,
      "v": 61
    },
    {
      "midi": 72,
      "hit": false,
      "t": 183384.20027083202,
      "d": 302.3868749999965,
      "v": 61
    }
  ]
}