{
  "jsonPath": "Rock/Surf Music/The Aqua Velvets/smoking-panatelas-on-the-blue-mediterranean-sea.json",
  "path": "Rock\\Surf Music\\The Aqua Velvets\\Smoking Panatelas On The Blue Mediterranean Sea.mid",
  "name": "Smoking Panatelas On The Blue Mediterranean Sea",
  "difficulty": "Advanced",
  "bpm": 122.0000691333725,
  "notes": [
    {
      "midi": 64,
      "hit": false,
      "t": 13033.53984375,
      "d": 235.7724166666667,
      "v": 23
    },
    {
      "midi": 64,
      "hit": false,
      "t": 13855.694520833335,
      "d": 219.51224999999977,
      "v": 19
    },
    {
      "midi": 64,
      "hit": false,
      "t": 14174.800291666668,
      "d": 518.2928124999999,
      "v": 32
    },
    {
      "midi": 52,
      "hit": false,
      "t": 15537.605510416668,
      "d": 1455.2849166666656,
      "v": 42
    },
    {
      "midi": 57,
      "hit": false,
      "t": 15571.142104166667,
      "d": 1596.5451145833304,
      "v": 61
    },
    {
      "midi": 60,
      "hit": false,
      "t": 15651.426677083335,
      "d": 1603.6589374999967,
      "v": 59
    },
    {
      "midi": 64,
      "hit": false,
      "t": 15708.337260416669,
      "d": 341.46349999999984,
      "v": 72
    },
    {
      "midi": 76,
      "hit": false,
      "t": 15709.353520833336,
      "d": 329.26837499999965,
      "v": 73
    },
    {
      "midi": 76,
      "hit": false,
      "t": 16204.272343750003,
      "d": 120.93498958333294,
      "v": 105
    },
    {
      "midi": 64,
      "hit": false,
      "t": 16205.28860416667,
      "d": 96.54473958333256,
      "v": 97
    },
    {
      "midi": 64,
      "hit": false,
      "t": 16471.548833333334,
      "d": 197.15452083333366,
      "v": 92
    },
    {
      "midi": 76,
      "hit": false,
      "t": 16474.597614583334,
      "d": 209.34964583333567,
      "v": 108
    },
    {
      "midi": 64,
      "hit": false,
      "t": 16920.7359375,
      "d": 111.78864583333052,
      "v": 81
    },
    {
      "midi": 76,
      "hit": false,
      "t": 16925.817239583335,
      "d": 139.2276770833305,
      "v": 97
    },
    {
      "midi": 64,
      "hit": false,
      "t": 17272.362041666664,
      "d": 54.87806249999994,
      "v": 83
    },
    {
      "midi": 76,
      "hit": false,
      "t": 17273.37830208333,
      "d": 94.51221875000192,
      "v": 102
    },
    {
      "midi": 52,
      "hit": false,
      "t": 17428.86614583333,
      "d": 405.4879062500004,
      "v": 43
    },
    {
      "midi": 57,
      "hit": false,
      "t": 17480.69542708333,
      "d": 322.1545520833315,
      "v": 43
    },
    {
      "midi": 72,
      "hit": false,
      "t": 17543.703572916664,
      "d": 266.26022916666625,
      "v": 79
    },
    {
      "midi": 60,
      "hit": false,
      "t": 17552.849916666662,
      "d": 241.86997916666587,
      "v": 59
    },
    {
      "midi": 76,
      "hit": false,
      "t": 17614.84180208333,
      "d": 243.90250000000015,
      "v": 84
    },
    {
      "midi": 79,
      "hit": false,
      "t": 17685.980031249997,
      "d": 215.44720833333486,
      "v": 38
    },
    {
      "midi": 84,
      "hit": false,
      "t": 17715.451583333328,
      "d": 116.86994791666802,
      "v": 78
    },
    {
      "midi": 79,
      "hit": false,
      "t": 17946.142697916664,
      "d": 446.1383229166677,
      "v": 58
    },
    {
      "midi": 76,
      "hit": false,
      "t": 17946.142697916664,
      "d": 457.3171875000007,
      "v": 56
    },
    {
      "midi": 71,
      "hit": false,
      "t": 17949.191479166664,
      "d": 528.4554166666676,
      "v": 83
    },
    {
      "midi": 83,
      "hit": false,
      "t": 17954.272781249998,
      "d": 308.9431666666678,
      "v": 88
    },
    {
      "midi": 69,
      "hit": false,
      "t": 18589.435541666666,
      "d": 235.7724166666667,
      "v": 56
    },
    {
      "midi": 81,
      "hit": false,
      "t": 18690.045322916667,
      "d": 132.113854166666,
      "v": 94
    },
    {
      "midi": 68,
      "hit": false,
      "t": 19001.021010416665,
      "d": 64.02440624999872,
      "v": 66
    },
    {
      "midi": 80,
      "hit": false,
      "t": 19002.03727083333,
      "d": 83.33335416666523,
      "v": 83
    },
    {
      "midi": 81,
      "hit": false,
      "t": 19246.956031249996,
      "d": 120.93498958333657,
      "v": 102
    },
    {
      "midi": 69,
      "hit": false,
      "t": 19257.118635416664,
      "d": 73.17075000000114,
      "v": 70
    },
    {
      "midi": 71,
      "hit": false,
      "t": 19495.939833333334,
      "d": 709.3497708333343,
      "v": 65
    },
    {
      "midi": 57,
      "hit": false,
      "t": 19518.2975625,
      "d": 699.1871666666666,
      "v": 69
    },
    {
      "midi": 53,
      "hit": false,
      "t": 19519.313822916665,
      "d": 663.6180520833368,
      "v": 55
    },
    {
      "midi": 74,
      "hit": false,
      "t": 19576.22440625,
      "d": 580.2846979166679,
      "v": 69
    },
    {
      "midi": 77,
      "hit": false,
      "t": 19615.858562499998,
      "d": 521.3415937500031,
      "v": 53
    },
    {
      "midi": 62,
      "hit": false,
      "t": 19626.021166666666,
      "d": 637.1952812500022,
      "v": 35
    },
    {
      "midi": 83,
      "hit": false,
      "t": 19669.720364583332,
      "d": 445.12206250000236,
      "v": 61
    },
    {
      "midi": 53,
      "hit": false,
      "t": 20370.940052083333,
      "d": 1016.2604166666642,
      "v": 46
    },
    {
      "midi": 57,
      "hit": false,
      "t": 20420.7368125,
      "d": 948.170968749997,
      "v": 44
    },
    {
      "midi": 62,
      "hit": false,
      "t": 20509.15146875,
      "d": 820.1221562499995,
      "v": 79
    },
    {
      "midi": 65,
      "hit": false,
      "t": 20537.606760416664,
      "d": 2434.959958333333,
      "v": 84
    },
    {
      "midi": 69,
      "hit": false,
      "t": 20591.468562499995,
      "d": 2318.0900104166685,
      "v": 65
    },
    {
      "midi": 72,
      "hit": false,
      "t": 20640.249062499995,
      "d": 2272.3582916666674,
      "v": 60
    },
    {
      "midi": 77,
      "hit": false,
      "t": 20669.72061458333,
      "d": 2193.089979166667,
      "v": 102
    },
    {
      "midi": 52,
      "hit": false,
      "t": 23360.77819791666,
      "d": 738.8213229166722,
      "v": 22
    },
    {
      "midi": 56,
      "hit": false,
      "t": 23421.75382291666,
      "d": 698.1709062500049,
      "v": 43
    },
    {
      "midi": 64,
      "hit": false,
      "t": 23448.176593749995,
      "d": 734.7562812500037,
      "v": 88
    },
    {
      "midi": 59,
      "hit": false,
      "t": 23456.30667708333,
      "d": 729.6749791666698,
      "v": 61
    },
    {
      "midi": 68,
      "hit": false,
      "t": 23513.217260416663,
      "d": 723.5774166666706,
      "v": 115
    },
    {
      "midi": 71,
      "hit": false,
      "t": 23572.16036458333,
      "d": 709.349770833338,
      "v": 66
    },
    {
      "midi": 76,
      "hit": false,
      "t": 23612.81078125,
      "d": 653.4554479166691,
      "v": 84
    },
    {
      "midi": 52,
      "hit": false,
      "t": 24241.875979166667,
      "d": 721.5448958333327,
      "v": 42
    },
    {
      "midi": 56,
      "hit": false,
      "t": 24292.689000000002,
      "d": 758.1302708333278,
      "v": 54
    },
    {
      "midi": 64,
      "hit": false,
      "t": 24352.648364583336,
      "d": 181.91061458333206,
      "v": 83
    },
    {
      "midi": 59,
      "hit": false,
      "t": 24375.006093750002,
      "d": 831.3010208333253,
      "v": 55
    },
    {
      "midi": 68,
      "hit": false,
      "t": 24418.70529166667,
      "d": 156.50410416666637,
      "v": 86
    },
    {
      "midi": 71,
      "hit": false,
      "t": 24484.762218750002,
      "d": 120.93498958333294,
      "v": 64
    },
    {
      "midi": 76,
      "hit": false,
      "t": 24504.07116666667,
      "d": 121.95124999999825,
      "v": 97
    },
    {
      "midi": 64,
      "hit": false,
      "t": 24745.941145833334,
      "d": 60.97562499999913,
      "v": 90
    },
    {
      "midi": 76,
      "hit": false,
      "t": 24746.95740625,
      "d": 71.13822916666686,
      "v": 94
    },
    {
      "midi": 71,
      "hit": false,
      "t": 24747.973666666665,
      "d": 34.55285416666811,
      "v": 94
    },
    {
      "midi": 68,
      "hit": false,
      "t": 24747.973666666665,
      "d": 42.68293750000157,
      "v": 97
    },
    {
      "midi": 80,
      "hit": false,
      "t": 24977.648520833332,
      "d": 61.991885416664445,
      "v": 86
    },
    {
      "midi": 68,
      "hit": false,
      "t": 24978.664781249998,
      "d": 48.78050000000076,
      "v": 94
    },
    {
      "midi": 83,
      "hit": false,
      "t": 25184.96564583333,
      "d": 74.18701041666282,
      "v": 92
    },
    {
      "midi": 71,
      "hit": false,
      "t": 25194.11198958333,
      "d": 42.682937499997934,
      "v": 75
    },
    {
      "midi": 52,
      "hit": false,
      "t": 25396.347812499993,
      "d": 799.7969479166641,
      "v": 33
    },
    {
      "midi": 74,
      "hit": false,
      "t": 25433.94944791666,
      "d": 296.74804166666945,
      "v": 74
    },
    {
      "midi": 56,
      "hit": false,
      "t": 25433.94944791666,
      "d": 787.6018229166621,
      "v": 41
    },
    {
      "midi": 59,
      "hit": false,
      "t": 25482.72994791666,
      "d": 770.3253958333262,
      "v": 49
    },
    {
      "midi": 77,
      "hit": false,
      "t": 25517.28280208333,
      "d": 391.2602604166641,
      "v": 72
    },
    {
      "midi": 81,
      "hit": false,
      "t": 25560.981999999996,
      "d": 350.6098437499968,
      "v": 72
    },
    {
      "midi": 86,
      "hit": false,
      "t": 25596.55111458333,
      "d": 154.4715833333321,
      "v": 72
    },
    {
      "midi": 84,
      "hit": false,
      "t": 25838.421093749996,
      "d": 293.6992604166626,
      "v": 63
    },
    {
      "midi": 72,
      "hit": false,
      "t": 25849.59995833333,
      "d": 365.85374999999476,
      "v": 75
    },
    {
      "midi": 52,
      "hit": false,
      "t": 26362.811468749987,
      "d": 800.813208333333,
      "v": 35
    },
    {
      "midi": 56,
      "hit": false,
      "t": 26421.754572916652,
      "d": 528.4554166666676,
      "v": 34
    },
    {
      "midi": 59,
      "hit": false,
      "t": 26458.33994791665,
      "d": 780.4880000000012,
      "v": 66
    },
    {
      "midi": 83,
      "hit": false,
      "t": 26490.860281249985,
      "d": 120.93498958333294,
      "v": 70
    },
    {
      "midi": 71,
      "hit": false,
      "t": 26491.87654166665,
      "d": 96.54473958333256,
      "v": 77
    },
    {
      "midi": 72,
      "hit": false,
      "t": 26817.079874999985,
      "d": 99.59352083333215,
      "v": 68
    },
    {
      "midi": 84,
      "hit": false,
      "t": 26818.09613541665,
      "d": 113.82116666666843,
      "v": 62
    },
    {
      "midi": 83,
      "hit": false,
      "t": 27073.177499999987,
      "d": 68.08944791666727,
      "v": 61
    },
    {
      "midi": 71,
      "hit": false,
      "t": 27073.177499999987,
      "d": 77.23579166666605,
      "v": 64
    },
    {
      "midi": 64,
      "hit": false,
      "t": 27366.876760416653,
      "d": 550.81314583333,
      "v": 44
    },
    {
      "midi": 69,
      "hit": false,
      "t": 27435.982468749986,
      "d": 546.7481041666651,
      "v": 57
    },
    {
      "midi": 72,
      "hit": false,
      "t": 27493.909312499985,
      "d": 520.3253333333305,
      "v": 47
    },
    {
      "midi": 76,
      "hit": false,
      "t": 27525.41338541665,
      "d": 498.98386458333334,
      "v": 66
    },
    {
      "midi": 57,
      "hit": false,
      "t": 27931.917552083316,
      "d": 172.76427083333328,
      "v": 24
    },
    {
      "midi": 60,
      "hit": false,
      "t": 28019.31594791665,
      "d": 109.75612499999988,
      "v": 59
    },
    {
      "midi": 64,
      "hit": false,
      "t": 28115.860687499982,
      "d": 82.31709374999991,
      "v": 70
    },
    {
      "midi": 69,
      "hit": false,
      "t": 28160.576145833315,
      "d": 108.73986458333457,
      "v": 64
    },
    {
      "midi": 72,
      "hit": false,
      "t": 28238.82819791665,
      "d": 98.57726041666683,
      "v": 47
    },
    {
      "midi": 76,
      "hit": false,
      "t": 28310.98268749998,
      "d": 70.12196875000154,
      "v": 54
    },
    {
      "midi": 69,
      "hit": false,
      "t": 28372.97457291665,
      "d": 83.33335416666887,
      "v": 64
    },
    {
      "midi": 72,
      "hit": false,
      "t": 28413.624989583317,
      "d": 123.98377083333617,
      "v": 72
    },
    {
      "midi": 76,
      "hit": false,
      "t": 28510.169729166653,
      "d": 74.18701041666645,
      "v": 84
    },
    {
      "midi": 81,
      "hit": false,
      "t": 28561.999010416654,
      "d": 114.83742708333375,
      "v": 59
    },
    {
      "midi": 84,
      "hit": false,
      "t": 28639.23480208332,
      "d": 111.78864583333416,
      "v": 75
    },
    {
      "midi": 88,
      "hit": false,
      "t": 28718.50311458332,
      "d": 82.31709374999991,
      "v": 54
    },
    {
      "midi": 93,
      "hit": false,
      "t": 28775.413697916654,
      "d": 186.99191666666593,
      "v": 88
    },
    {
      "midi": 88,
      "hit": false,
      "t": 28896.348687499987,
      "d": 166.66670833333046,
      "v": 56
    },
    {
      "midi": 84,
      "hit": false,
      "t": 28979.682041666652,
      "d": 151.4228020833325,
      "v": 78
    },
    {
      "midi": 81,
      "hit": false,
      "t": 29088.421906249983,
      "d": 93.49595833333296,
      "v": 88
    },
    {
      "midi": 57,
      "hit": false,
      "t": 29167.690218749984,
      "d": 1818.089885416659,
      "v": 39
    },
    {
      "midi": 60,
      "hit": false,
      "t": 29185.98290624998,
      "d": 516.2602916666656,
      "v": 45
    },
    {
      "midi": 64,
      "hit": false,
      "t": 29200.210552083314,
      "d": 432.92693750000035,
      "v": 60
    },
    {
      "midi": 60,
      "hit": false,
      "t": 29760.170041666646,
      "d": 434.959458333331,
      "v": 54
    },
    {
      "midi": 64,
      "hit": false,
      "t": 30024.39774999998,
      "d": 550.8131458333337,
      "v": 51
    },
    {
      "midi": 60,
      "hit": false,
      "t": 30284.560416666645,
      "d": 294.71552083333154,
      "v": 35
    },
    {
      "midi": 64,
      "hit": false,
      "t": 31152.446812499977,
      "d": 921.748197916666,
      "v": 112
    },
    {
      "midi": 72,
      "hit": false,
      "t": 31300.82083333331,
      "d": 746.9514062499984,
      "v": 127
    },
    {
      "midi": 52,
      "hit": false,
      "t": 32146.349499999975,
      "d": 619.9188541666626,
      "v": 46
    },
    {
      "midi": 55,
      "hit": false,
      "t": 32173.788531249975,
      "d": 621.9513749999933,
      "v": 62
    },
    {
      "midi": 60,
      "hit": false,
      "t": 32280.495874999975,
      "d": 386.17895833333387,
      "v": 79
    },
    {
      "midi": 64,
      "hit": false,
      "t": 32341.471499999974,
      "d": 252.0325833333336,
      "v": 99
    },
    {
      "midi": 72,
      "hit": false,
      "t": 32448.178843749974,
      "d": 153.45532291666677,
      "v": 112
    },
    {
      "midi": 72,
      "hit": false,
      "t": 32675.821177083308,
      "d": 75.20327083333177,
      "v": 90
    },
    {
      "midi": 64,
      "hit": false,
      "t": 32678.869958333307,
      "d": 75.20327083333177,
      "v": 65
    },
    {
      "midi": 64,
      "hit": false,
      "t": 32846.5529270833,
      "d": 84.34961458333419,
      "v": 79
    },
    {
      "midi": 72,
      "hit": false,
      "t": 32853.66674999997,
      "d": 69.10570833333622,
      "v": 84
    },
    {
      "midi": 64,
      "hit": false,
      "t": 32995.9432083333,
      "d": 114.83742708333011,
      "v": 62
    },
    {
      "midi": 72,
      "hit": false,
      "t": 33000.00824999997,
      "d": 95.5284791666636,
      "v": 88
    },
    {
      "midi": 71,
      "hit": false,
      "t": 33206.309114583295,
      "d": 271.3415312500001,
      "v": 81
    },
    {
      "midi": 62,
      "hit": false,
      "t": 33206.309114583295,
      "d": 606.707468749999,
      "v": 81
    },
    {
      "midi": 60,
      "hit": false,
      "t": 34006.10606249996,
      "d": 295.73178124999686,
      "v": 97
    },
    {
      "midi": 69,
      "hit": false,
      "t": 34129.073572916626,
      "d": 154.4715833333321,
      "v": 102
    },
    {
      "midi": 59,
      "hit": false,
      "t": 34393.30128124996,
      "d": 91.46343750000233,
      "v": 62
    },
    {
      "midi": 67,
      "hit": false,
      "t": 34394.31754166663,
      "d": 103.6585625000007,
      "v": 92
    },
    {
      "midi": 60,
      "hit": false,
      "t": 34610.78101041663,
      "d": 78.252052083335,
      "v": 74
    },
    {
      "midi": 69,
      "hit": false,
      "t": 34611.797270833296,
      "d": 93.49595833333296,
      "v": 90
    },
    {
      "midi": 71,
      "hit": false,
      "t": 34812.00057291663,
      "d": 111.78864583333052,
      "v": 90
    },
    {
      "midi": 62,
      "hit": false,
      "t": 34812.00057291663,
      "d": 114.83742708333011,
      "v": 72
    },
    {
      "midi": 69,
      "hit": false,
      "t": 35053.870552083295,
      "d": 851.6262291666644,
      "v": 73
    },
    {
      "midi": 60,
      "hit": false,
      "t": 35053.870552083295,
      "d": 1037.6018854166687,
      "v": 70
    },
    {
      "midi": 67,
      "hit": false,
      "t": 36047.77323958329,
      "d": 457.31718750000437,
      "v": 73
    },
    {
      "midi": 64,
      "hit": false,
      "t": 36048.78949999996,
      "d": 420.731812500002,
      "v": 90
    },
    {
      "midi": 52,
      "hit": false,
      "t": 36053.87080208329,
      "d": 238.82119791667355,
      "v": 47
    },
    {
      "midi": 48,
      "hit": false,
      "t": 36056.91958333329,
      "d": 466.46353125000314,
      "v": 1
    },
    {
      "midi": 55,
      "hit": false,
      "t": 36074.19601041663,
      "d": 229.67485416667478,
      "v": 35
    },
    {
      "midi": 52,
      "hit": false,
      "t": 36409.561947916634,
      "d": 130.08133333332808,
      "v": 42
    },
    {
      "midi": 55,
      "hit": false,
      "t": 36504.07416666663,
      "d": 120.93498958333657,
      "v": 57
    },
    {
      "midi": 60,
      "hit": false,
      "t": 36582.326218749964,
      "d": 119.91872916666762,
      "v": 55
    },
    {
      "midi": 64,
      "hit": false,
      "t": 36653.46444791663,
      "d": 113.82116666666843,
      "v": 42
    },
    {
      "midi": 67,
      "hit": false,
      "t": 36707.32624999996,
      "d": 97.56100000000151,
      "v": 65
    },
    {
      "midi": 52,
      "hit": false,
      "t": 36753.05796874996,
      "d": 147.35776041666395,
      "v": 47
    },
    {
      "midi": 55,
      "hit": false,
      "t": 36817.08237499996,
      "d": 399.39034374999756,
      "v": 43
    },
    {
      "midi": 60,
      "hit": false,
      "t": 36916.675895833294,
      "d": 855.691270833333,
      "v": 61
    },
    {
      "midi": 64,
      "hit": false,
      "t": 36979.684041666624,
      "d": 1081.3010833333392,
      "v": 59
    },
    {
      "midi": 67,
      "hit": false,
      "t": 37038.62714583329,
      "d": 948.1709687500042,
      "v": 81
    },
    {
      "midi": 72,
      "hit": false,
      "t": 37100.61903124996,
      "d": 610.7725104166675,
      "v": 77
    },
    {
      "midi": 69,
      "hit": false,
      "t": 37555.90369791663,
      "d": 447.15458333333663,
      "v": 37
    },
    {
      "midi": 55,
      "hit": false,
      "t": 37606.71671874996,
      "d": 1118.9027187500105,
      "v": 18
    },
    {
      "midi": 52,
      "hit": false,
      "t": 37616.879322916626,
      "d": 1097.561250000006,
      "v": 15
    },
    {
      "midi": 60,
      "hit": false,
      "t": 38029.4810520833,
      "d": 881.0977812500059,
      "v": 35
    },
    {
      "midi": 74,
      "hit": false,
      "t": 38468.5055520833,
      "d": 290.6504791666739,
      "v": 24
    },
    {
      "midi": 53,
      "hit": false,
      "t": 38960.37559374997,
      "d": 630.081458333334,
      "v": 53
    },
    {
      "midi": 57,
      "hit": false,
      "t": 38984.76584374997,
      "d": 606.7074687500062,
      "v": 50
    },
    {
      "midi": 74,
      "hit": false,
      "t": 39008.139833333305,
      "d": 559.9594895833361,
      "v": 62
    },
    {
      "midi": 60,
      "hit": false,
      "t": 39049.80651041664,
      "d": 570.1220937500038,
      "v": 62
    },
    {
      "midi": 77,
      "hit": false,
      "t": 39078.2618020833,
      "d": 485.77247916666965,
      "v": 72
    },
    {
      "midi": 81,
      "hit": false,
      "t": 39111.798395833306,
      "d": 476.6261354166709,
      "v": 68
    },
    {
      "midi": 86,
      "hit": false,
      "t": 39178.871583333304,
      "d": 342.479760416667,
      "v": 57
    },
    {
      "midi": 53,
      "hit": false,
      "t": 39832.32703124997,
      "d": 307.9269062499952,
      "v": 44
    },
    {
      "midi": 57,
      "hit": false,
      "t": 39889.237614583304,
      "d": 245.93502083333442,
      "v": 38
    },
    {
      "midi": 74,
      "hit": false,
      "t": 39893.30265624997,
      "d": 243.9024999999965,
      "v": 81
    },
    {
      "midi": 60,
      "hit": false,
      "t": 39951.22949999997,
      "d": 206.30086458333244,
      "v": 79
    },
    {
      "midi": 77,
      "hit": false,
      "t": 39969.52218749997,
      "d": 183.94313541666634,
      "v": 74
    },
    {
      "midi": 81,
      "hit": false,
      "t": 39996.96121874997,
      "d": 159.55288541666232,
      "v": 64
    },
    {
      "midi": 86,
      "hit": false,
      "t": 40041.676677083306,
      "d": 119.91872916666762,
      "v": 61
    },
    {
      "midi": 77,
      "hit": false,
      "t": 40280.49787499997,
      "d": 69.10570833333622,
      "v": 92
    },
    {
      "midi": 81,
      "hit": false,
      "t": 40281.51413541664,
      "d": 72.15448958333582,
      "v": 92
    },
    {
      "midi": 74,
      "hit": false,
      "t": 40281.51413541664,
      "d": 76.21953125000437,
      "v": 77
    },
    {
      "midi": 86,
      "hit": false,
      "t": 40285.57917708331,
      "d": 80.28457291666564,
      "v": 67
    },
    {
      "midi": 60,
      "hit": false,
      "t": 40300.82308333331,
      "d": 108.7398645833382,
      "v": 61
    },
    {
      "midi": 57,
      "hit": false,
      "t": 40301.839343749976,
      "d": 89.43091666666442,
      "v": 66
    },
    {
      "midi": 53,
      "hit": false,
      "t": 40301.839343749976,
      "d": 93.49595833333296,
      "v": 59
    },
    {
      "midi": 74,
      "hit": false,
      "t": 40512.20524999998,
      "d": 76.21953125000437,
      "v": 62
    },
    {
      "midi": 60,
      "hit": false,
      "t": 40529.48167708331,
      "d": 70.1219687499979,
      "v": 61
    },
    {
      "midi": 81,
      "hit": false,
      "t": 40530.49793749998,
      "d": 51.82928125000035,
      "v": 72
    },
    {
      "midi": 57,
      "hit": false,
      "t": 40530.49793749998,
      "d": 60.97562499999913,
      "v": 70
    },
    {
      "midi": 77,
      "hit": false,
      "t": 40531.51419791665,
      "d": 45.731718750001164,
      "v": 72
    },
    {
      "midi": 53,
      "hit": false,
      "t": 40531.51419791665,
      "d": 61.99188541666081,
      "v": 61
    },
    {
      "midi": 86,
      "hit": false,
      "t": 40532.53045833332,
      "d": 51.82928124999307,
      "v": 53
    },
    {
      "midi": 74,
      "hit": false,
      "t": 40679.88821874998,
      "d": 81.30083333334187,
      "v": 66
    },
    {
      "midi": 60,
      "hit": false,
      "t": 40702.24594791664,
      "d": 72.15448958334309,
      "v": 51
    },
    {
      "midi": 81,
      "hit": false,
      "t": 40703.26220833331,
      "d": 46.74797916667012,
      "v": 74
    },
    {
      "midi": 57,
      "hit": false,
      "t": 40703.26220833331,
      "d": 58.94310416667577,
      "v": 59
    },
    {
      "midi": 77,
      "hit": false,
      "t": 40704.27846874998,
      "d": 46.74797916667012,
      "v": 75
    },
    {
      "midi": 86,
      "hit": false,
      "t": 40705.29472916665,
      "d": 55.8943229166689,
      "v": 52
    },
    {
      "midi": 53,
      "hit": false,
      "t": 40705.29472916665,
      "d": 58.94310416666849,
      "v": 48
    },
    {
      "midi": 74,
      "hit": false,
      "t": 40897.36794791665,
      "d": 222.56103124999936,
      "v": 70
    },
    {
      "midi": 81,
      "hit": false,
      "t": 40904.48177083332,
      "d": 213.4146874999933,
      "v": 86
    },
    {
      "midi": 77,
      "hit": false,
      "t": 40904.48177083332,
      "d": 214.43094791666226,
      "v": 90
    },
    {
      "midi": 86,
      "hit": false,
      "t": 40907.53055208332,
      "d": 185.97565624999697,
      "v": 68
    },
    {
      "midi": 57,
      "hit": false,
      "t": 40913.62811458332,
      "d": 211.38216666666995,
      "v": 65
    },
    {
      "midi": 60,
      "hit": false,
      "t": 40913.62811458332,
      "d": 217.47972916666913,
      "v": 54
    },
    {
      "midi": 53,
      "hit": false,
      "t": 40922.77445833332,
      "d": 198.17078125000262,
      "v": 53
    },
    {
      "midi": 57,
      "hit": false,
      "t": 41266.270479166655,
      "d": 147.35776041667123,
      "v": 48
    },
    {
      "midi": 84,
      "hit": false,
      "t": 41284.56316666665,
      "d": 90.44717708334065,
      "v": 75
    },
    {
      "midi": 53,
      "hit": false,
      "t": 41284.56316666665,
      "d": 120.93498958334385,
      "v": 46
    },
    {
      "midi": 60,
      "hit": false,
      "t": 41284.56316666665,
      "d": 159.55288541667687,
      "v": 45
    },
    {
      "midi": 72,
      "hit": false,
      "t": 41285.57942708332,
      "d": 72.15448958333582,
      "v": 84
    },
    {
      "midi": 88,
      "hit": false,
      "t": 41974.60398958333,
      "d": 106.70734375000029,
      "v": 81
    },
    {
      "midi": 57,
      "hit": false,
      "t": 41982.73407291666,
      "d": 138.21141666666517,
      "v": 57
    },
    {
      "midi": 60,
      "hit": false,
      "t": 41983.75033333333,
      "d": 149.3902812499946,
      "v": 52
    },
    {
      "midi": 76,
      "hit": false,
      "t": 41984.76659375,
      "d": 98.5772604166632,
      "v": 77
    },
    {
      "midi": 53,
      "hit": false,
      "t": 41989.84789583333,
      "d": 111.78864583333052,
      "v": 45
    },
    {
      "midi": 57,
      "hit": false,
      "t": 42298.79106249999,
      "d": 128.04881249999744,
      "v": 45
    },
    {
      "midi": 53,
      "hit": false,
      "t": 42302.85610416666,
      "d": 128.04881249999744,
      "v": 40
    },
    {
      "midi": 60,
      "hit": false,
      "t": 42307.93740624999,
      "d": 134.1463750000039,
      "v": 49
    },
    {
      "midi": 74,
      "hit": false,
      "t": 42310.98618749999,
      "d": 90.44717708333337,
      "v": 77
    },
    {
      "midi": 86,
      "hit": false,
      "t": 42316.06748958332,
      "d": 82.31709375000355,
      "v": 77
    },
    {
      "midi": 60,
      "hit": false,
      "t": 42577.24641666666,
      "d": 190.04069791668007,
      "v": 42
    },
    {
      "midi": 57,
      "hit": false,
      "t": 42578.26267708333,
      "d": 142.276458333341,
      "v": 46
    },
    {
      "midi": 53,
      "hit": false,
      "t": 42581.31145833333,
      "d": 166.666708333345,
      "v": 41
    },
    {
      "midi": 72,
      "hit": false,
      "t": 42595.539104166666,
      "d": 87.39839583334106,
      "v": 77
    },
    {
      "midi": 84,
      "hit": false,
      "t": 42596.555364583335,
      "d": 82.31709375000355,
      "v": 72
    },
    {
      "midi": 83,
      "hit": false,
      "t": 42978.669281250004,
      "d": 238.82119791666628,
      "v": 74
    },
    {
      "midi": 71,
      "hit": false,
      "t": 42979.68554166667,
      "d": 283.5366562499985,
      "v": 72
    },
    {
      "midi": 52,
      "hit": false,
      "t": 42980.70180208334,
      "d": 408.53668749999633,
      "v": 52
    },
    {
      "midi": 56,
      "hit": false,
      "t": 43268.3035,
      "d": 161.5854062500075,
      "v": 39
    },
    {
      "midi": 59,
      "hit": false,
      "t": 43393.30353125001,
      "d": 86.3821354166721,
      "v": 50
    },
    {
      "midi": 62,
      "hit": false,
      "t": 43492.897052083346,
      "d": 104.67482291666965,
      "v": 73
    },
    {
      "midi": 71,
      "hit": false,
      "t": 43621.96212500001,
      "d": 65.04066666666768,
      "v": 44
    },
    {
      "midi": 64,
      "hit": false,
      "t": 43699.19791666668,
      "d": 114.83742708333739,
      "v": 55
    },
    {
      "midi": 68,
      "hit": false,
      "t": 43765.254843750015,
      "d": 99.59352083333943,
      "v": 74
    },
    {
      "midi": 71,
      "hit": false,
      "t": 43860.783322916686,
      "d": 92.47969791667128,
      "v": 66
    },
    {
      "midi": 74,
      "hit": false,
      "t": 43897.36869791669,
      "d": 126.0162916666668,
      "v": 61
    },
    {
      "midi": 83,
      "hit": false,
      "t": 44020.336208333356,
      "d": 90.44717708333337,
      "v": 39
    },
    {
      "midi": 74,
      "hit": false,
      "t": 44145.336239583354,
      "d": 53.861802083330986,
      "v": 34
    },
    {
      "midi": 76,
      "hit": false,
      "t": 44145.336239583354,
      "d": 68.08944791666727,
      "v": 38
    },
    {
      "midi": 83,
      "hit": false,
      "t": 44296.759041666686,
      "d": 37.60163541667134,
      "v": 51
    },
    {
      "midi": 86,
      "hit": false,
      "t": 44297.775302083355,
      "d": 160.56914583333855,
      "v": 64
    },
    {
      "midi": 92,
      "hit": false,
      "t": 44399.401343750025,
      "d": 93.49595833333296,
      "v": 42
    },
    {
      "midi": 95,
      "hit": false,
      "t": 44468.50705208336,
      "d": 95.5284791666636,
      "v": 84
    },
    {
      "midi": 52,
      "hit": false,
      "t": 45001.027510416694,
      "d": 1445.1223124999888,
      "v": 19
    },
    {
      "midi": 59,
      "hit": false,
      "t": 45180.90560416669,
      "d": 845.5286666666652,
      "v": 46
    },
    {
      "midi": 62,
      "hit": false,
      "t": 45407.53167708336,
      "d": 800.813208333333,
      "v": 54
    },
    {
      "midi": 68,
      "hit": false,
      "t": 45634.15775000003,
      "d": 620.935114583328,
      "v": 52
    },
    {
      "midi": 56,
      "hit": false,
      "t": 45895.33667708336,
      "d": 335.36593749999884,
      "v": 22
    },
    {
      "midi": 76,
      "hit": false,
      "t": 45963.42612500003,
      "d": 264.227708333332,
      "v": 20
    },
    {
      "midi": 59,
      "hit": false,
      "t": 46153.46682291669,
      "d": 354.67488541665807,
      "v": 37
    },
    {
      "midi": 56,
      "hit": false,
      "t": 46383.14167708335,
      "d": 88.41465624999546,
      "v": 37
    },
    {
      "midi": 57,
      "hit": false,
      "t": 46821.14991666668,
      "d": 848.5774479166721,
      "v": 54
    },
    {
      "midi": 60,
      "hit": false,
      "t": 46827.24747916668,
      "d": 878.0490000000063,
      "v": 75
    },
    {
      "midi": 64,
      "hit": false,
      "t": 46956.31255208335,
      "d": 802.8457291666709,
      "v": 105
    },
    {
      "midi": 57,
      "hit": false,
      "t": 47777.45096875002,
      "d": 737.8050625000105,
      "v": 55
    },
    {
      "midi": 60,
      "hit": false,
      "t": 47833.34529166669,
      "d": 707.3172500000073,
      "v": 68
    },
    {
      "midi": 64,
      "hit": false,
      "t": 47946.150197916686,
      "d": 165.65044791666878,
      "v": 112
    },
    {
      "midi": 64,
      "hit": false,
      "t": 48199.19904166669,
      "d": 85.36587500000314,
      "v": 90
    },
    {
      "midi": 64,
      "hit": false,
      "t": 48369.930791666695,
      "d": 71.13822916666686,
      "v": 88
    },
    {
      "midi": 64,
      "hit": false,
      "t": 48530.499937500026,
      "d": 129.0650729166664,
      "v": 86
    },
    {
      "midi": 57,
      "hit": false,
      "t": 48709.36177083336,
      "d": 903.4555104166575,
      "v": 70
    },
    {
      "midi": 60,
      "hit": false,
      "t": 48772.36991666669,
      "d": 873.9839583333305,
      "v": 64
    },
    {
      "midi": 64,
      "hit": false,
      "t": 48863.833354166694,
      "d": 371.95131249999395,
      "v": 99
    },
    {
      "midi": 72,
      "hit": false,
      "t": 48982.73582291669,
      "d": 349.59358333332784,
      "v": 108
    },
    {
      "midi": 71,
      "hit": false,
      "t": 49281.51638541669,
      "d": 491.87004166666884,
      "v": 124
    },
    {
      "midi": 64,
      "hit": false,
      "t": 49284.56516666669,
      "d": 540.6505416666769,
      "v": 54
    },
    {
      "midi": 69,
      "hit": false,
      "t": 49780.50025000003,
      "d": 100.60978125000838,
      "v": 88
    },
    {
      "midi": 57,
      "hit": false,
      "t": 49791.67911458336,
      "d": 417.68303125000966,
      "v": 36
    },
    {
      "midi": 60,
      "hit": false,
      "t": 49835.378312500034,
      "d": 351.62610416667303,
      "v": 34
    },
    {
      "midi": 71,
      "hit": false,
      "t": 49857.7360416667,
      "d": 118.90246875000594,
      "v": 108
    },
    {
      "midi": 69,
      "hit": false,
      "t": 49937.004354166704,
      "d": 129.0650729166664,
      "v": 86
    },
    {
      "midi": 68,
      "hit": false,
      "t": 50166.67920833337,
      "d": 128.04881250000471,
      "v": 88
    },
    {
      "midi": 69,
      "hit": false,
      "t": 50363.83372916671,
      "d": 330.28463541666133,
      "v": 90
    },
    {
      "midi": 53,
      "hit": false,
      "t": 50617.89883333338,
      "d": 1224.5938020833346,
      "v": 49
    },
    {
      "midi": 57,
      "hit": false,
      "t": 50634.15900000004,
      "d": 1226.6263229166652,
      "v": 55
    },
    {
      "midi": 62,
      "hit": false,
      "t": 50714.44357291671,
      "d": 740.8538437500101,
      "v": 57
    },
    {
      "midi": 65,
      "hit": false,
      "t": 50760.17529166671,
      "d": 764.2278333333452,
      "v": 62
    },
    {
      "midi": 71,
      "hit": false,
      "t": 50793.71188541671,
      "d": 917.683156250001,
      "v": 94
    },
    {
      "midi": 62,
      "hit": false,
      "t": 51549.80963541672,
      "d": 335.3659374999843,
      "v": 66
    },
    {
      "midi": 65,
      "hit": false,
      "t": 51703.264958333384,
      "d": 242.88623958332028,
      "v": 99
    },
    {
      "midi": 53,
      "hit": false,
      "t": 51943.102416666705,
      "d": 122.96751041666721,
      "v": 46
    },
    {
      "midi": 57,
      "hit": false,
      "t": 51980.70405208337,
      "d": 88.41465625000274,
      "v": 41
    },
    {
      "midi": 62,
      "hit": false,
      "t": 52036.59837500004,
      "d": 118.90246875000594,
      "v": 66
    },
    {
      "midi": 65,
      "hit": false,
      "t": 52096.557739583375,
      "d": 119.9187291666749,
      "v": 60
    },
    {
      "midi": 69,
      "hit": false,
      "t": 52169.72848958338,
      "d": 99.59352083333943,
      "v": 42
    },
    {
      "midi": 74,
      "hit": false,
      "t": 52232.73663541672,
      "d": 99.59352083333943,
      "v": 54
    },
    {
      "midi": 65,
      "hit": false,
      "t": 52312.00494791672,
      "d": 94.51221875000192,
      "v": 61
    },
    {
      "midi": 69,
      "hit": false,
      "t": 52397.370822916724,
      "d": 82.31709374999627,
      "v": 36
    },
    {
      "midi": 74,
      "hit": false,
      "t": 52527.45215625005,
      "d": 21.341468749997148,
      "v": 28
    },
    {
      "midi": 77,
      "hit": false,
      "t": 52562.00501041672,
      "d": 147.35776041667123,
      "v": 57
    },
    {
      "midi": 81,
      "hit": false,
      "t": 52617.899333333386,
      "d": 158.53662500000064,
      "v": 68
    },
    {
      "midi": 86,
      "hit": false,
      "t": 54654.48520833339,
      "d": 170.731749999999,
      "v": 66
    },
    {
      "midi": 53,
      "hit": false,
      "t": 55150.42029166672,
      "d": 898.3742083333345,
      "v": 15
    },
    {
      "midi": 57,
      "hit": false,
      "t": 55189.03818750005,
      "d": 834.3498020833358,
      "v": 40
    },
    {
      "midi": 62,
      "hit": false,
      "t": 55460.37971875005,
      "d": 465.4472708333342,
      "v": 31
    },
    {
      "midi": 65,
      "hit": false,
      "t": 55623.997645833384,
      "d": 316.0569895833396,
      "v": 39
    },
    {
      "midi": 52,
      "hit": false,
      "t": 56407.53442708339,
      "d": 651.4229270833312,
      "v": 42
    },
    {
      "midi": 56,
      "hit": false,
      "t": 56447.16858333339,
      "d": 688.0083020833263,
      "v": 45
    },
    {
      "midi": 64,
      "hit": false,
      "t": 56463.42875000006,
      "d": 639.2278020833255,
      "v": 75
    },
    {
      "midi": 59,
      "hit": false,
      "t": 56521.35559375006,
      "d": 612.8050312499909,
      "v": 60
    },
    {
      "midi": 68,
      "hit": false,
      "t": 56539.648281250054,
      "d": 710.3660312499997,
      "v": 74
    },
    {
      "midi": 71,
      "hit": false,
      "t": 56577.24991666672,
      "d": 581.3009583333333,
      "v": 83
    },
    {
      "midi": 76,
      "hit": false,
      "t": 56625.01415625005,
      "d": 532.5204583333325,
      "v": 72
    },
    {
      "midi": 68,
      "hit": false,
      "t": 57541.68105208339,
      "d": 88.41465625000274,
      "v": 97
    },
    {
      "midi": 76,
      "hit": false,
      "t": 57551.84365625006,
      "d": 114.83742708333011,
      "v": 88
    },
    {
      "midi": 64,
      "hit": false,
      "t": 57552.859916666726,
      "d": 101.62604166666279,
      "v": 90
    },
    {
      "midi": 56,
      "hit": false,
      "t": 57552.859916666726,
      "d": 126.01629166665953,
      "v": 88
    },
    {
      "midi": 59,
      "hit": false,
      "t": 57554.89243750006,
      "d": 136.17889583332726,
      "v": 61
    },
    {
      "midi": 52,
      "hit": false,
      "t": 57558.957479166726,
      "d": 111.78864583333052,
      "v": 65
    },
    {
      "midi": 64,
      "hit": false,
      "t": 57837.41283333339,
      "d": 60.9756250000064,
      "v": 54
    },
    {
      "midi": 76,
      "hit": false,
      "t": 57837.41283333339,
      "d": 89.43091666667169,
      "v": 67
    },
    {
      "midi": 68,
      "hit": false,
      "t": 57838.429093750055,
      "d": 63.00814583333704,
      "v": 69
    },
    {
      "midi": 56,
      "hit": false,
      "t": 57849.60795833339,
      "d": 101.62604166666279,
      "v": 68
    },
    {
      "midi": 52,
      "hit": false,
      "t": 57859.77056250006,
      "d": 89.43091666666442,
      "v": 57
    },
    {
      "midi": 59,
      "hit": false,
      "t": 57859.77056250006,
      "d": 110.77238541666156,
      "v": 49
    },
    {
      "midi": 80,
      "hit": false,
      "t": 58066.071427083385,
      "d": 71.13822916666686,
      "v": 83
    },
    {
      "midi": 68,
      "hit": false,
      "t": 58075.217770833384,
      "d": 49.79676041666971,
      "v": 92
    },
    {
      "midi": 83,
      "hit": false,
      "t": 58281.518635416716,
      "d": 70.1219687499979,
      "v": 88
    },
    {
      "midi": 71,
      "hit": false,
      "t": 58290.664979166715,
      "d": 38.61789583333302,
      "v": 62
    },
    {
      "midi": 77,
      "hit": false,
      "t": 58628.063437500045,
      "d": 181.91061458332842,
      "v": 66
    },
    {
      "midi": 81,
      "hit": false,
      "t": 58631.112218750044,
      "d": 171.74801041666797,
      "v": 94
    },
    {
      "midi": 84,
      "hit": false,
      "t": 58632.12847916671,
      "d": 165.65044791666878,
      "v": 102
    },
    {
      "midi": 89,
      "hit": false,
      "t": 58633.14473958338,
      "d": 179.8780937499905,
      "v": 105
    },
    {
      "midi": 56,
      "hit": false,
      "t": 58644.32360416672,
      "d": 163.6179270833236,
      "v": 50
    },
    {
      "midi": 52,
      "hit": false,
      "t": 58653.46994791672,
      "d": 146.341499999995,
      "v": 51
    },
    {
      "midi": 59,
      "hit": false,
      "t": 58653.46994791672,
      "d": 176.82931249999092,
      "v": 53
    },
    {
      "midi": 56,
      "hit": false,
      "t": 58978.67328125004,
      "d": 351.6261041666803,
      "v": 59
    },
    {
      "midi": 59,
      "hit": false,
      "t": 58981.72206250004,
      "d": 355.69114583334886,
      "v": 53
    },
    {
      "midi": 88,
      "hit": false,
      "t": 58985.78710416671,
      "d": 247.96754166667233,
      "v": 79
    },
    {
      "midi": 52,
      "hit": false,
      "t": 58992.90092708338,
      "d": 324.1870729166767,
      "v": 59
    },
    {
      "midi": 76,
      "hit": false,
      "t": 58993.91718750005,
      "d": 311.99194791667105,
      "v": 94
    },
    {
      "midi": 79,
      "hit": false,
      "t": 59011.19361458338,
      "d": 17.276427083335875,
      "v": 69
    },
    {
      "midi": 81,
      "hit": false,
      "t": 59011.19361458338,
      "d": 17.276427083335875,
      "v": 70
    },
    {
      "midi": 56,
      "hit": false,
      "t": 59564.03928125006,
      "d": 160.56914583333855,
      "v": 64
    },
    {
      "midi": 74,
      "hit": false,
      "t": 59565.05554166673,
      "d": 80.28457291667291,
      "v": 84
    },
    {
      "midi": 59,
      "hit": false,
      "t": 59572.169364583395,
      "d": 156.50410416667,
      "v": 59
    },
    {
      "midi": 86,
      "hit": false,
      "t": 59573.185625000064,
      "d": 94.51221875000192,
      "v": 94
    },
    {
      "midi": 52,
      "hit": false,
      "t": 59573.185625000064,
      "d": 136.17889583333454,
      "v": 61
    },
    {
      "midi": 76,
      "hit": false,
      "t": 59876.03122916673,
      "d": 87.39839583333378,
      "v": 66
    },
    {
      "midi": 88,
      "hit": false,
      "t": 59877.0474895834,
      "d": 85.36587499999587,
      "v": 88
    },
    {
      "midi": 77,
      "hit": false,
      "t": 59886.1938333334,
      "d": 51.82928125000035,
      "v": 57
    },
    {
      "midi": 56,
      "hit": false,
      "t": 59892.291395833396,
      "d": 127.03255208332848,
      "v": 40
    },
    {
      "midi": 52,
      "hit": false,
      "t": 59894.323916666726,
      "d": 156.50410416666273,
      "v": 45
    },
    {
      "midi": 59,
      "hit": false,
      "t": 59898.388958333395,
      "d": 118.90246874999866,
      "v": 44
    },
    {
      "midi": 59,
      "hit": false,
      "t": 60133.14511458339,
      "d": 69.10570833332895,
      "v": 45
    },
    {
      "midi": 86,
      "hit": false,
      "t": 60139.24267708339,
      "d": 76.21953124999709,
      "v": 79
    },
    {
      "midi": 74,
      "hit": false,
      "t": 60139.24267708339,
      "d": 111.78864583333052,
      "v": 79
    },
    {
      "midi": 55,
      "hit": false,
      "t": 60521.35659375005,
      "d": 1026.423020833332,
      "v": 42
    },
    {
      "midi": 61,
      "hit": false,
      "t": 60544.73058333339,
      "d": 1056.910833333328,
      "v": 53
    },
    {
      "midi": 73,
      "hit": false,
      "t": 60593.51108333339,
      "d": 933.943322916668,
      "v": 70
    },
    {
      "midi": 64,
      "hit": false,
      "t": 60599.60864583339,
      "d": 1103.658812499998,
      "v": 52
    },
    {
      "midi": 76,
      "hit": false,
      "t": 60669.730614583386,
      "d": 830.2847604166673,
      "v": 42
    },
    {
      "midi": 79,
      "hit": false,
      "t": 60685.99078125005,
      "d": 818.0896354166689,
      "v": 94
    },
    {
      "midi": 85,
      "hit": false,
      "t": 60700.21842708339,
      "d": 845.5286666666652,
      "v": 79
    },
    {
      "midi": 55,
      "hit": false,
      "t": 62202.25132291672,
      "d": 1708.3337604166663,
      "v": 45
    },
    {
      "midi": 61,
      "hit": false,
      "t": 62269.32451041672,
      "d": 1680.8947291666627,
      "v": 37
    },
    {
      "midi": 76,
      "hit": false,
      "t": 62319.12127083339,
      "d": 1622.9678854166632,
      "v": 61
    },
    {
      "midi": 64,
      "hit": false,
      "t": 62319.12127083339,
      "d": 1683.9435104166623,
      "v": 51
    },
    {
      "midi": 81,
      "hit": false,
      "t": 62378.06437500006,
      "d": 1560.975999999995,
      "v": 59
    },
    {
      "midi": 85,
      "hit": false,
      "t": 62429.89365625006,
      "d": 1506.0979374999952,
      "v": 40
    },
    {
      "midi": 88,
      "hit": false,
      "t": 62510.178229166726,
      "d": 1375.0003437499981,
      "v": 37
    },
    {
      "midi": 81,
      "hit": false,
      "t": 64409.56894791672,
      "d": 59.95936458333745,
      "v": 97
    },
    {
      "midi": 76,
      "hit": false,
      "t": 64410.58520833339,
      "d": 68.08944791666727,
      "v": 81
    },
    {
      "midi": 88,
      "hit": false,
      "t": 64410.58520833339,
      "d": 71.13822916666686,
      "v": 75
    },
    {
      "midi": 85,
      "hit": false,
      "t": 64411.60146875006,
      "d": 55.8943229166689,
      "v": 94
    },
    {
      "midi": 64,
      "hit": false,
      "t": 64411.60146875006,
      "d": 88.41465625000274,
      "v": 57
    },
    {
      "midi": 61,
      "hit": false,
      "t": 64412.617729166726,
      "d": 73.1707499999975,
      "v": 74
    },
    {
      "midi": 86,
      "hit": false,
      "t": 64413.633989583395,
      "d": 38.61789583333302,
      "v": 61
    },
    {
      "midi": 55,
      "hit": false,
      "t": 64413.633989583395,
      "d": 65.0406666666604,
      "v": 65
    },
    {
      "midi": 61,
      "hit": false,
      "t": 64821.15441666673,
      "d": 99.59352083333215,
      "v": 81
    },
    {
      "midi": 64,
      "hit": false,
      "t": 64836.39832291673,
      "d": 92.47969791666401,
      "v": 58
    },
    {
      "midi": 55,
      "hit": false,
      "t": 64837.4145833334,
      "d": 68.08944791666727,
      "v": 65
    },
    {
      "midi": 73,
      "hit": false,
      "t": 64838.430843750066,
      "d": 55.8943229166689,
      "v": 94
    },
    {
      "midi": 85,
      "hit": false,
      "t": 64838.430843750066,
      "d": 65.04066666666768,
      "v": 99
    },
    {
      "midi": 61,
      "hit": false,
      "t": 65409.569197916724,
      "d": 96.54473958333256,
      "v": 84
    },
    {
      "midi": 86,
      "hit": false,
      "t": 65410.58545833339,
      "d": 101.62604166666279,
      "v": 90
    },
    {
      "midi": 55,
      "hit": false,
      "t": 65422.78058333339,
      "d": 65.04066666666768,
      "v": 61
    },
    {
      "midi": 64,
      "hit": false,
      "t": 65422.78058333339,
      "d": 91.46343749999505,
      "v": 67
    },
    {
      "midi": 74,
      "hit": false,
      "t": 65423.79684375006,
      "d": 67.07318749999831,
      "v": 83
    },
    {
      "midi": 64,
      "hit": false,
      "t": 65754.08147916672,
      "d": 94.51221874999464,
      "v": 55
    },
    {
      "midi": 61,
      "hit": false,
      "t": 65755.09773958339,
      "d": 85.36587500000314,
      "v": 68
    },
    {
      "midi": 55,
      "hit": false,
      "t": 65756.11400000006,
      "d": 74.18701041667373,
      "v": 62
    },
    {
      "midi": 88,
      "hit": false,
      "t": 65756.11400000006,
      "d": 88.41465624999546,
      "v": 88
    },
    {
      "midi": 76,
      "hit": false,
      "t": 65757.13026041673,
      "d": 70.1219687499979,
      "v": 84
    },
    {
      "midi": 61,
      "hit": false,
      "t": 65985.78885416672,
      "d": 96.54473958333256,
      "v": 64
    },
    {
      "midi": 64,
      "hit": false,
      "t": 65995.95145833338,
      "d": 93.49595833334024,
      "v": 52
    },
    {
      "midi": 55,
      "hit": false,
      "t": 66007.13032291671,
      "d": 65.04066666666768,
      "v": 51
    },
    {
      "midi": 77,
      "hit": false,
      "t": 66008.14658333338,
      "d": 73.17075000000477,
      "v": 81
    },
    {
      "midi": 89,
      "hit": false,
      "t": 66008.14658333338,
      "d": 78.252052083335,
      "v": 81
    },
    {
      "midi": 61,
      "hit": false,
      "t": 66287.61819791672,
      "d": 226.62607291668246,
      "v": 74
    },
    {
      "midi": 64,
      "hit": false,
      "t": 66290.66697916672,
      "d": 237.80493750001187,
      "v": 63
    },
    {
      "midi": 88,
      "hit": false,
      "t": 66298.79706250006,
      "d": 177.84557291665988,
      "v": 83
    },
    {
      "midi": 76,
      "hit": false,
      "t": 66298.79706250006,
      "d": 206.30086458333244,
      "v": 86
    },
    {
      "midi": 55,
      "hit": false,
      "t": 66303.87836458339,
      "d": 185.97565624999697,
      "v": 59
    },
    {
      "midi": 61,
      "hit": false,
      "t": 66680.91097916673,
      "d": 412.60172916665033,
      "v": 57
    },
    {
      "midi": 64,
      "hit": false,
      "t": 66684.97602083339,
      "d": 444.1058020833152,
      "v": 50
    },
    {
      "midi": 73,
      "hit": false,
      "t": 66689.04106250005,
      "d": 360.77244791666453,
      "v": 72
    },
    {
      "midi": 85,
      "hit": false,
      "t": 66693.10610416671,
      "d": 336.3821979166678,
      "v": 90
    },
    {
      "midi": 55,
      "hit": false,
      "t": 66697.17114583337,
      "d": 377.0326145833387,
      "v": 49
    },
    {
      "midi": 61,
      "hit": false,
      "t": 67307.94365625003,
      "d": 163.6179270833236,
      "v": 65
    },
    {
      "midi": 86,
      "hit": false,
      "t": 67312.0086979167,
      "d": 138.2114166666579,
      "v": 69
    },
    {
      "midi": 64,
      "hit": false,
      "t": 67320.13878125003,
      "d": 175.81305208332196,
      "v": 59
    },
    {
      "midi": 55,
      "hit": false,
      "t": 67321.1550416667,
      "d": 111.78864583332324,
      "v": 57
    },
    {
      "midi": 74,
      "hit": false,
      "t": 67322.17130208337,
      "d": 94.51221874999464,
      "v": 69
    },
    {
      "midi": 88,
      "hit": false,
      "t": 67643.30959375002,
      "d": 120.93498958331475,
      "v": 66
    },
    {
      "midi": 76,
      "hit": false,
      "t": 67647.37463541668,
      "d": 90.44717708331882,
      "v": 70
    },
    {
      "midi": 61,
      "hit": false,
      "t": 67658.55350000001,
      "d": 324.18707291665487,
      "v": 51
    },
    {
      "midi": 64,
      "hit": false,
      "t": 67665.66732291668,
      "d": 305.8943854166573,
      "v": 49
    },
    {
      "midi": 55,
      "hit": false,
      "t": 67669.73236458334,
      "d": 318.0895104166557,
      "v": 42
    },
    {
      "midi": 77,
      "hit": false,
      "t": 67903.47226041666,
      "d": 122.96751041666721,
      "v": 65
    },
    {
      "midi": 89,
      "hit": false,
      "t": 67904.48852083333,
      "d": 106.70734374999302,
      "v": 79
    },
    {
      "midi": 88,
      "hit": false,
      "t": 68270.34227083332,
      "d": 571.1383541666728,
      "v": 65
    },
    {
      "midi": 76,
      "hit": false,
      "t": 68273.39105208333,
      "d": 834.3498020833213,
      "v": 59
    },
    {
      "midi": 62,
      "hit": false,
      "t": 68277.45609374999,
      "d": 800.813208333333,
      "v": 49
    },
    {
      "midi": 57,
      "hit": false,
      "t": 68284.56991666666,
      "d": 767.2766145833302,
      "v": 52
    },
    {
      "midi": 53,
      "hit": false,
      "t": 68296.76504166666,
      "d": 760.1627916666621,
      "v": 44
    },
    {
      "midi": 53,
      "hit": false,
      "t": 69188.02542708332,
      "d": 321.13829166669166,
      "v": 48
    },
    {
      "midi": 57,
      "hit": false,
      "t": 69210.38315625,
      "d": 317.07325000001583,
      "v": 50
    },
    {
      "midi": 62,
      "hit": false,
      "t": 69251.03357291667,
      "d": 373.98383333336096,
      "v": 47
    },
    {
      "midi": 74,
      "hit": false,
      "t": 69260.17991666668,
      "d": 389.22773958335165,
      "v": 67
    },
    {
      "midi": 77,
      "hit": false,
      "t": 69344.52953125001,
      "d": 276.4228333333449,
      "v": 62
    },
    {
      "midi": 81,
      "hit": false,
      "t": 69385.17994791668,
      "d": 237.80493750001187,
      "v": 59
    },
    {
      "midi": 86,
      "hit": false,
      "t": 69413.63523958335,
      "d": 184.95939583332802,
      "v": 68
    },
    {
      "midi": 53,
      "hit": false,
      "t": 69620.95236458335,
      "d": 173.7805312499986,
      "v": 30
    },
    {
      "midi": 57,
      "hit": false,
      "t": 69687.00929166669,
      "d": 105.69108333332406,
      "v": 42
    },
    {
      "midi": 62,
      "hit": false,
      "t": 69782.53777083335,
      "d": 112.8049062499922,
      "v": 58
    },
    {
      "midi": 65,
      "hit": false,
      "t": 69884.16381250002,
      "d": 83.33335416666523,
      "v": 49
    },
    {
      "midi": 69,
      "hit": false,
      "t": 69986.80611458335,
      "d": 32.52033333333384,
      "v": 23
    },
    {
      "midi": 74,
      "hit": false,
      "t": 70005.09880208335,
      "d": 64.02440624999872,
      "v": 50
    },
    {
      "midi": 65,
      "hit": false,
      "t": 70088.43215625001,
      "d": 153.45532291666314,
      "v": 52
    },
    {
      "midi": 69,
      "hit": false,
      "t": 70153.47282291668,
      "d": 420.731812500002,
      "v": 50
    },
    {
      "midi": 74,
      "hit": false,
      "t": 70278.47285416667,
      "d": 203.25208333334012,
      "v": 63
    },
    {
      "midi": 77,
      "hit": false,
      "t": 70329.285875,
      "d": 655.487968750007,
      "v": 60
    },
    {
      "midi": 81,
      "hit": false,
      "t": 70401.44036458334,
      "d": 551.8294062500063,
      "v": 57
    },
    {
      "midi": 86,
      "hit": false,
      "t": 70481.72493750001,
      "d": 477.64239583333256,
      "v": 68
    },
    {
      "midi": 57,
      "hit": false,
      "t": 72041.68467708334,
      "d": 1657.5207395833568,
      "v": 83
    },
    {
      "midi": 60,
      "hit": false,
      "t": 72110.79038541667,
      "d": 819.1058958333451,
      "v": 56
    },
    {
      "midi": 64,
      "hit": false,
      "t": 72227.66033333333,
      "d": 796.7481666666718,
      "v": 127
    },
    {
      "midi": 60,
      "hit": false,
      "t": 73046.76622916668,
      "d": 639.2278020833473,
      "v": 99
    },
    {
      "midi": 64,
      "hit": false,
      "t": 73183.96138541668,
      "d": 142.27645833333372,
      "v": 127
    },
    {
      "midi": 64,
      "hit": false,
      "t": 73462.41673958335,
      "d": 74.18701041667373,
      "v": 97
    },
    {
      "midi": 69,
      "hit": false,
      "t": 73685.99403125003,
      "d": 122.96751041666721,
      "v": 102
    },
    {
      "midi": 72,
      "hit": false,
      "t": 73859.77456250002,
      "d": 104.67482291666965,
      "v": 127
    },
    {
      "midi": 57,
      "hit": false,
      "t": 74033.55509375002,
      "d": 1485.7727291666815,
      "v": 49
    },
    {
      "midi": 60,
      "hit": false,
      "t": 74056.92908333335,
      "d": 804.8782500000088,
      "v": 63
    },
    {
      "midi": 64,
      "hit": false,
      "t": 74165.66894791668,
      "d": 660.5692708333518,
      "v": 66
    },
    {
      "midi": 72,
      "hit": false,
      "t": 74245.95352083335,
      "d": 222.56103125000664,
      "v": 94
    },
    {
      "midi": 76,
      "hit": false,
      "t": 74267.29498958336,
      "d": 355.6911458333343,
      "v": 119
    },
    {
      "midi": 72,
      "hit": false,
      "t": 74583.35197916669,
      "d": 714.4310729166755,
      "v": 127
    },
    {
      "midi": 60,
      "hit": false,
      "t": 75070.14071875003,
      "d": 429.87815625000803,
      "v": 56
    },
    {
      "midi": 64,
      "hit": false,
      "t": 75163.63667708337,
      "d": 322.1545520833315,
      "v": 61
    },
    {
      "midi": 69,
      "hit": false,
      "t": 75267.29523958337,
      "d": 510.16272916668095,
      "v": 112
    },
    {
      "midi": 77,
      "hit": false,
      "t": 75528.47416666671,
      "d": 301.8293437500106,
      "v": 108
    },
    {
      "midi": 76,
      "hit": false,
      "t": 75776.44170833338,
      "d": 449.18710416667454,
      "v": 119
    },
    {
      "midi": 52,
      "hit": false,
      "t": 75992.90517708339,
      "d": 1904.4720208333601,
      "v": 42
    },
    {
      "midi": 56,
      "hit": false,
      "t": 76019.32794791672,
      "d": 853.6587500000169,
      "v": 43
    },
    {
      "midi": 59,
      "hit": false,
      "t": 76115.87268750006,
      "d": 809.9595520833536,
      "v": 64
    },
    {
      "midi": 74,
      "hit": false,
      "t": 76145.34423958338,
      "d": 352.64236458335654,
      "v": 108
    },
    {
      "midi": 71,
      "hit": false,
      "t": 76469.53131250007,
      "d": 627.0326770833344,
      "v": 102
    },
    {
      "midi": 56,
      "hit": false,
      "t": 76964.45013541674,
      "d": 582.3172187499877,
      "v": 57
    },
    {
      "midi": 59,
      "hit": false,
      "t": 77071.15747916674,
      "d": 900.406729166687,
      "v": 62
    },
    {
      "midi": 69,
      "hit": false,
      "t": 77126.03554166673,
      "d": 143.29271875000268,
      "v": 108
    },
    {
      "midi": 68,
      "hit": false,
      "t": 77454.28765625006,
      "d": 346.5448020833428,
      "v": 102
    },
    {
      "midi": 56,
      "hit": false,
      "t": 77675.8324270834,
      "d": 220.52851041668328,
      "v": 31
    },
    {
      "midi": 70,
      "hit": false,
      "t": 77780.50725000007,
      "d": 81.30083333334187,
      "v": 74
    },
    {
      "midi": 71,
      "hit": false,
      "t": 77859.77556250007,
      "d": 278.45535416669736,
      "v": 97
    },
    {
      "midi": 60,
      "hit": false,
      "t": 78135.18213541676,
      "d": 468.49605208334106,
      "v": 75
    },
    {
      "midi": 69,
      "hit": false,
      "t": 78148.39352083343,
      "d": 354.67488541666535,
      "v": 84
    },
    {
      "midi": 57,
      "hit": false,
      "t": 78148.39352083343,
      "d": 440.0407604166685,
      "v": 74
    },
    {
      "midi": 64,
      "hit": false,
      "t": 78560.9952500001,
      "d": 105.69108333333861,
      "v": 60
    },
    {
      "midi": 69,
      "hit": false,
      "t": 78646.3611250001,
      "d": 118.90246874999139,
      "v": 64
    },
    {
      "midi": 72,
      "hit": false,
      "t": 78734.7757812501,
      "d": 76.21953124999709,
      "v": 39
    },
    {
      "midi": 76,
      "hit": false,
      "t": 78799.81644791676,
      "d": 66.05692708333663,
      "v": 35
    },
    {
      "midi": 69,
      "hit": false,
      "t": 78870.95467708343,
      "d": 92.47969791667128,
      "v": 62
    },
    {
      "midi": 72,
      "hit": false,
      "t": 78904.49127083343,
      "d": 128.048812500012,
      "v": 64
    },
    {
      "midi": 76,
      "hit": false,
      "t": 79017.29617708344,
      "d": 70.1219687499979,
      "v": 65
    },
    {
      "midi": 81,
      "hit": false,
      "t": 79050.83277083344,
      "d": 160.56914583333128,
      "v": 77
    },
    {
      "midi": 84,
      "hit": false,
      "t": 79137.2149062501,
      "d": 165.65044791667606,
      "v": 77
    },
    {
      "midi": 88,
      "hit": false,
      "t": 79222.5807812501,
      "d": 379.06513541667664,
      "v": 44
    },
    {
      "midi": 93,
      "hit": false,
      "t": 79301.8490937501,
      "d": 167.68296874999942,
      "v": 67
    },
    {
      "midi": 84,
      "hit": false,
      "t": 79490.87353125011,
      "d": 216.46346875000745,
      "v": 75
    },
    {
      "midi": 81,
      "hit": false,
      "t": 79672.78414583344,
      "d": 116.86994791666802,
      "v": 74
    },
    {
      "midi": 48,
      "hit": false,
      "t": 80323.1908125001,
      "d": 153.45532291666314,
      "v": 28
    },
    {
      "midi": 50,
      "hit": false,
      "t": 80368.92253125011,
      "d": 121.95124999999825,
      "v": 49
    },
    {
      "midi": 52,
      "hit": false,
      "t": 80475.6298750001,
      "d": 648.3741458333388,
      "v": 97
    },
    {
      "midi": 64,
      "hit": false,
      "t": 80523.39411458344,
      "d": 311.99194791667105,
      "v": 84
    },
    {
      "midi": 76,
      "hit": false,
      "t": 80531.52419791678,
      "d": 315.04072916666337,
      "v": 112
    },
    {
      "midi": 53,
      "hit": false,
      "t": 81019.32919791677,
      "d": 537.6017604166555,
      "v": 72
    },
    {
      "midi": 77,
      "hit": false,
      "t": 81044.73570833344,
      "d": 90.44717708333337,
      "v": 94
    },
    {
      "midi": 65,
      "hit": false,
      "t": 81045.7519687501,
      "d": 74.18701041667373,
      "v": 84
    },
    {
      "midi": 54,
      "hit": false,
      "t": 81527.4594062501,
      "d": 93.49595833332569,
      "v": 51
    },
    {
      "midi": 66,
      "hit": false,
      "t": 81539.6545312501,
      "d": 80.28457291665836,
      "v": 86
    },
    {
      "midi": 78,
      "hit": false,
      "t": 81546.76835416676,
      "d": 72.15448958332126,
      "v": 97
    },
    {
      "midi": 53,
      "hit": false,
      "t": 81951.24000000009,
      "d": 710.3660312500142,
      "v": 52
    },
    {
      "midi": 59,
      "hit": false,
      "t": 81980.71155208342,
      "d": 684.9595208333485,
      "v": 57
    },
    {
      "midi": 67,
      "hit": false,
      "t": 82043.71969791676,
      "d": 678.8619583333348,
      "v": 83
    },
    {
      "midi": 62,
      "hit": false,
      "t": 82054.8985625001,
      "d": 614.837552083336,
      "v": 66
    },
    {
      "midi": 71,
      "hit": false,
      "t": 82095.54897916676,
      "d": 638.2115416666638,
      "v": 74
    },
    {
      "midi": 74,
      "hit": false,
      "t": 82143.3132187501,
      "d": 603.6586874999921,
      "v": 52
    },
    {
      "midi": 79,
      "hit": false,
      "t": 82180.91485416677,
      "d": 536.585500000001,
      "v": 66
    },
    {
      "midi": 71,
      "hit": false,
      "t": 82970.54919791676,
      "d": 101.62604166667734,
      "v": 94
    },
    {
      "midi": 79,
      "hit": false,
      "t": 82970.54919791676,
      "d": 121.9512500000128,
      "v": 75
    },
    {
      "midi": 74,
      "hit": false,
      "t": 82971.56545833343,
      "d": 104.6748229166842,
      "v": 88
    },
    {
      "midi": 67,
      "hit": false,
      "t": 82971.56545833343,
      "d": 118.90246875000594,
      "v": 79
    },
    {
      "midi": 59,
      "hit": false,
      "t": 82972.5817187501,
      "d": 113.82116666667571,
      "v": 86
    },
    {
      "midi": 53,
      "hit": false,
      "t": 82973.59797916676,
      "d": 100.60978125000838,
      "v": 72
    },
    {
      "midi": 62,
      "hit": false,
      "t": 82973.59797916676,
      "d": 140.24393750001036,
      "v": 75
    },
    {
      "midi": 71,
      "hit": false,
      "t": 83245.95577083345,
      "d": 51.8292812499858,
      "v": 77
    },
    {
      "midi": 74,
      "hit": false,
      "t": 83245.95577083345,
      "d": 56.910583333316026,
      "v": 72
    },
    {
      "midi": 67,
      "hit": false,
      "t": 83246.97203125012,
      "d": 45.73171874998661,
      "v": 54
    },
    {
      "midi": 79,
      "hit": false,
      "t": 83247.98829166678,
      "d": 79.26831249997485,
      "v": 55
    },
    {
      "midi": 59,
      "hit": false,
      "t": 83254.08585416678,
      "d": 78.25205208332045,
      "v": 67
    },
    {
      "midi": 62,
      "hit": false,
      "t": 83258.15089583345,
      "d": 87.3983958333265,
      "v": 61
    },
    {
      "midi": 53,
      "hit": false,
      "t": 83268.3135000001,
      "d": 60.97562499999185,
      "v": 45
    },
    {
      "midi": 59,
      "hit": false,
      "t": 83462.41923958344,
      "d": 74.18701041667373,
      "v": 61
    },
    {
      "midi": 53,
      "hit": false,
      "t": 83469.53306250011,
      "d": 69.1057083333435,
      "v": 47
    },
    {
      "midi": 62,
      "hit": false,
      "t": 83481.7281875001,
      "d": 61.99188541668991,
      "v": 41
    },
    {
      "midi": 71,
      "hit": false,
      "t": 83482.74444791678,
      "d": 44.71545833333221,
      "v": 62
    },
    {
      "midi": 83,
      "hit": false,
      "t": 83483.76070833344,
      "d": 57.926843750014086,
      "v": 86
    },
    {
      "midi": 74,
      "hit": false,
      "t": 83678.88270833346,
      "d": 66.05692708333663,
      "v": 84
    },
    {
      "midi": 86,
      "hit": false,
      "t": 83685.99653125013,
      "d": 67.07318750000559,
      "v": 90
    },
    {
      "midi": 53,
      "hit": false,
      "t": 83912.6226041668,
      "d": 316.0569895833323,
      "v": 46
    },
    {
      "midi": 59,
      "hit": false,
      "t": 83934.98033333347,
      "d": 332.31715624999197,
      "v": 52
    },
    {
      "midi": 77,
      "hit": false,
      "t": 83945.14293750013,
      "d": 207.31712500001595,
      "v": 73
    },
    {
      "midi": 81,
      "hit": false,
      "t": 84010.1836041668,
      "d": 156.50410416667,
      "v": 79
    },
    {
      "midi": 62,
      "hit": false,
      "t": 84017.29742708347,
      "d": 253.04884375000256,
      "v": 42
    },
    {
      "midi": 84,
      "hit": false,
      "t": 84069.12670833347,
      "d": 93.49595833334024,
      "v": 61
    },
    {
      "midi": 89,
      "hit": false,
      "t": 84078.27305208347,
      "d": 104.6748229166551,
      "v": 102
    },
    {
      "midi": 59,
      "hit": false,
      "t": 84360.7934479168,
      "d": 126.01629166668863,
      "v": 47
    },
    {
      "midi": 77,
      "hit": false,
      "t": 84361.80970833347,
      "d": 48.78050000000803,
      "v": 105
    },
    {
      "midi": 62,
      "hit": false,
      "t": 84361.80970833347,
      "d": 174.7967916666821,
      "v": 50
    },
    {
      "midi": 86,
      "hit": false,
      "t": 84362.82596875014,
      "d": 67.07318750000559,
      "v": 86
    },
    {
      "midi": 81,
      "hit": false,
      "t": 84363.84222916681,
      "d": 43.69919791666325,
      "v": 99
    },
    {
      "midi": 74,
      "hit": false,
      "t": 84363.84222916681,
      "d": 56.91058333333058,
      "v": 75
    },
    {
      "midi": 53,
      "hit": false,
      "t": 84364.85848958348,
      "d": 119.9187291666749,
      "v": 46
    },
    {
      "midi": 74,
      "hit": false,
      "t": 84918.72041666682,
      "d": 57.926843750014086,
      "v": 79
    },
    {
      "midi": 59,
      "hit": false,
      "t": 84918.72041666682,
      "d": 152.43906250000873,
      "v": 47
    },
    {
      "midi": 71,
      "hit": false,
      "t": 84919.73667708349,
      "d": 68.08944791667454,
      "v": 67
    },
    {
      "midi": 77,
      "hit": false,
      "t": 84920.75293750016,
      "d": 53.86180208333826,
      "v": 79
    },
    {
      "midi": 83,
      "hit": false,
      "t": 84921.76919791683,
      "d": 68.08944791667454,
      "v": 67
    },
    {
      "midi": 62,
      "hit": false,
      "t": 84921.76919791683,
      "d": 168.69922916666837,
      "v": 52
    },
    {
      "midi": 53,
      "hit": false,
      "t": 84922.7854583335,
      "d": 152.43906249999418,
      "v": 40
    },
    {
      "midi": 79,
      "hit": false,
      "t": 85250.02131250016,
      "d": 77.23579166666605,
      "v": 75
    },
    {
      "midi": 67,
      "hit": false,
      "t": 85251.03757291683,
      "d": 78.252052083335,
      "v": 83
    },
    {
      "midi": 74,
      "hit": false,
      "t": 85264.2489583335,
      "d": 25.406510416665697,
      "v": 61
    },
    {
      "midi": 62,
      "hit": false,
      "t": 85264.2489583335,
      "d": 295.7317812500114,
      "v": 41
    },
    {
      "midi": 59,
      "hit": false,
      "t": 85270.3465208335,
      "d": 317.07325000001583,
      "v": 34
    },
    {
      "midi": 71,
      "hit": false,
      "t": 85271.36278125017,
      "d": 14.227645833336283,
      "v": 55
    },
    {
      "midi": 53,
      "hit": false,
      "t": 85279.4928645835,
      "d": 330.28463541668316,
      "v": 32
    },
    {
      "midi": 65,
      "hit": false,
      "t": 85530.50918750017,
      "d": 77.2357916666806,
      "v": 66
    },
    {
      "midi": 77,
      "hit": false,
      "t": 85531.52544791684,
      "d": 93.49595833335479,
      "v": 70
    },
    {
      "midi": 69,
      "hit": false,
      "t": 85830.30601041685,
      "d": 605.69120833333,
      "v": 51
    },
    {
      "midi": 55,
      "hit": false,
      "t": 85918.72066666685,
      "d": 564.0245312500047,
      "v": 36
    },
    {
      "midi": 52,
      "hit": false,
      "t": 85925.83448958352,
      "d": 1293.6995104166708,
      "v": 40
    },
    {
      "midi": 60,
      "hit": false,
      "t": 85944.12717708353,
      "d": 846.5449270833342,
      "v": 39
    },
    {
      "midi": 81,
      "hit": false,
      "t": 85961.40360416686,
      "d": 373.98383333333186,
      "v": 47
    },
    {
      "midi": 55,
      "hit": false,
      "t": 86672.78589583353,
      "d": 322.1545520833315,
      "v": 34
    },
    {
      "midi": 76,
      "hit": false,
      "t": 86730.71273958353,
      "d": 231.70737499999814,
      "v": 44
    },
    {
      "midi": 67,
      "hit": false,
      "t": 86730.71273958353,
      "d": 320.1220312499936,
      "v": 46
    },
    {
      "midi": 72,
      "hit": false,
      "t": 86731.7290000002,
      "d": 236.78867708332837,
      "v": 45
    },
    {
      "midi": 79,
      "hit": false,
      "t": 86732.74526041686,
      "d": 216.4634687499929,
      "v": 47
    },
    {
      "midi": 55,
      "hit": false,
      "t": 87101.64779166685,
      "d": 131.0975937500043,
      "v": 40
    },
    {
      "midi": 60,
      "hit": false,
      "t": 87178.88358333352,
      "d": 151.42280208333977,
      "v": 50
    },
    {
      "midi": 64,
      "hit": false,
      "t": 87263.23319791685,
      "d": 106.70734375000757,
      "v": 50
    },
    {
      "midi": 67,
      "hit": false,
      "t": 87344.5340312502,
      "d": 73.17075000000477,
      "v": 27
    },
    {
      "midi": 64,
      "hit": false,
      "t": 87489.85927083353,
      "d": 118.90246875000594,
      "v": 63
    },
    {
      "midi": 67,
      "hit": false,
      "t": 87541.68855208353,
      "d": 146.34150000000955,
      "v": 58
    },
    {
      "midi": 72,
      "hit": false,
      "t": 87667.70484375021,
      "d": 67.07318750002014,
      "v": 70
    },
    {
      "midi": 71,
      "hit": false,
      "t": 87687.01379166688,
      "d": 22.35772916667338,
      "v": 46
    },
    {
      "midi": 76,
      "hit": false,
      "t": 87688.03005208354,
      "d": 139.22767708335596,
      "v": 68
    },
    {
      "midi": 79,
      "hit": false,
      "t": 87763.2333229169,
      "d": 428.8618958333391,
      "v": 39
    },
    {
      "midi": 84,
      "hit": false,
      "t": 87837.42033333356,
      "d": 326.21959375000733,
      "v": 66
    },
    {
      "midi": 52,
      "hit": false,
      "t": 88365.87575000024,
      "d": 1007.11407291668,
      "v": 42
    },
    {
      "midi": 55,
      "hit": false,
      "t": 88585.38800000024,
      "d": 404.47164583334234,
      "v": 42
    },
    {
      "midi": 67,
      "hit": false,
      "t": 88846.56692708358,
      "d": 549.7968854166684,
      "v": 37
    },
    {
      "midi": 55,
      "hit": false,
      "t": 89261.20117708358,
      "d": 98.57726041667047,
      "v": 28
    },
    {
      "midi": 60,
      "hit": false,
      "t": 89262.21743750025,
      "d": 163.6179270833236,
      "v": 36
    },
    {
      "midi": 59,
      "hit": false,
      "t": 89805.9167604169,
      "d": 700.2034270833392,
      "v": 88
    },
    {
      "midi": 62,
      "hit": false,
      "t": 89812.0143229169,
      "d": 698.1709062500158,
      "v": 69
    },
    {
      "midi": 53,
      "hit": false,
      "t": 89814.04684375024,
      "d": 693.089604166671,
      "v": 75
    },
    {
      "midi": 79,
      "hit": false,
      "t": 89826.24196875024,
      "d": 688.0083020833408,
      "v": 88
    },
    {
      "midi": 67,
      "hit": false,
      "t": 89827.25822916691,
      "d": 646.3416250000009,
      "v": 77
    },
    {
      "midi": 71,
      "hit": false,
      "t": 89827.25822916691,
      "d": 700.2034270833392,
      "v": 94
    },
    {
      "midi": 74,
      "hit": false,
      "t": 89828.27448958358,
      "d": 675.8131770833279,
      "v": 99
    },
    {
      "midi": 67,
      "hit": false,
      "t": 90721.56739583358,
      "d": 212.39842708334618,
      "v": 84
    },
    {
      "midi": 71,
      "hit": false,
      "t": 90733.76252083358,
      "d": 192.0732187500107,
      "v": 48
    },
    {
      "midi": 59,
      "hit": false,
      "t": 90734.77878125025,
      "d": 161.58540625000023,
      "v": 59
    },
    {
      "midi": 53,
      "hit": false,
      "t": 90734.77878125025,
      "d": 163.61792708333815,
      "v": 57
    },
    {
      "midi": 62,
      "hit": false,
      "t": 90735.79504166692,
      "d": 168.69922916666837,
      "v": 61
    },
    {
      "midi": 53,
      "hit": false,
      "t": 91076.24228125026,
      "d": 96.54473958334711,
      "v": 72
    },
    {
      "midi": 59,
      "hit": false,
      "t": 91077.25854166693,
      "d": 88.41465625001001,
      "v": 81
    },
    {
      "midi": 67,
      "hit": false,
      "t": 91077.25854166693,
      "d": 97.56100000001607,
      "v": 83
    },
    {
      "midi": 71,
      "hit": false,
      "t": 91078.2748020836,
      "d": 101.62604166667734,
      "v": 90
    },
    {
      "midi": 62,
      "hit": false,
      "t": 91079.29106250027,
      "d": 119.9187291666749,
      "v": 83
    },
    {
      "midi": 53,
      "hit": false,
      "t": 91381.12040625028,
      "d": 70.12196875001246,
      "v": 28
    },
    {
      "midi": 59,
      "hit": false,
      "t": 91392.29927083361,
      "d": 55.894322916676174,
      "v": 26
    },
    {
      "midi": 74,
      "hit": false,
      "t": 91393.31553125028,
      "d": 52.845541666669305,
      "v": 99
    },
    {
      "midi": 86,
      "hit": false,
      "t": 91393.31553125028,
      "d": 66.05692708335118,
      "v": 102
    },
    {
      "midi": 62,
      "hit": false,
      "t": 91556.93345833363,
      "d": 79.26831250001851,
      "v": 57
    },
    {
      "midi": 72,
      "hit": false,
      "t": 91563.03102083363,
      "d": 64.02440625001327,
      "v": 88
    },
    {
      "midi": 59,
      "hit": false,
      "t": 91564.0472812503,
      "d": 58.94310416666849,
      "v": 63
    },
    {
      "midi": 84,
      "hit": false,
      "t": 91566.07980208364,
      "d": 58.94310416666849,
      "v": 99
    },
    {
      "midi": 53,
      "hit": false,
      "t": 91579.2911875003,
      "d": 39.63415625000198,
      "v": 42
    },
    {
      "midi": 71,
      "hit": false,
      "t": 91745.95789583365,
      "d": 182.92687500000466,
      "v": 97
    },
    {
      "midi": 62,
      "hit": false,
      "t": 91758.15302083365,
      "d": 193.08947916667967,
      "v": 54
    },
    {
      "midi": 83,
      "hit": false,
      "t": 91759.16928125032,
      "d": 161.58540625000023,
      "v": 81
    },
    {
      "midi": 59,
      "hit": false,
      "t": 91759.16928125032,
      "d": 174.79679166666756,
      "v": 75
    },
    {
      "midi": 53,
      "hit": false,
      "t": 91760.18554166699,
      "d": 188.00817708333489,
      "v": 61
    },
    {
      "midi": 53,
      "hit": false,
      "t": 92046.77097916699,
      "d": 385.1626979166758,
      "v": 54
    },
    {
      "midi": 62,
      "hit": false,
      "t": 92046.77097916699,
      "d": 438.00823958334513,
      "v": 53
    },
    {
      "midi": 59,
      "hit": false,
      "t": 92047.78723958366,
      "d": 393.2927812500129,
      "v": 66
    },
    {
      "midi": 81,
      "hit": false,
      "t": 92054.90106250033,
      "d": 417.68303125000966,
      "v": 90
    },
    {
      "midi": 69,
      "hit": false,
      "t": 92055.917322917,
      "d": 467.4797916666721,
      "v": 92
    },
    {
      "midi": 53,
      "hit": false,
      "t": 92605.71420833367,
      "d": 281.5041354166751,
      "v": 44
    },
    {
      "midi": 59,
      "hit": false,
      "t": 92650.429666667,
      "d": 244.91876041668002,
      "v": 43
    },
    {
      "midi": 62,
      "hit": false,
      "t": 92678.88495833367,
      "d": 245.93502083333442,
      "v": 65
    },
    {
      "midi": 79,
      "hit": false,
      "t": 92705.307729167,
      "d": 143.29271875000268,
      "v": 62
    },
    {
      "midi": 67,
      "hit": false,
      "t": 92710.38903125034,
      "d": 112.80490625000675,
      "v": 77
    },
    {
      "midi": 59,
      "hit": false,
      "t": 93017.29967708368,
      "d": 141.26019791666477,
      "v": 62
    },
    {
      "midi": 62,
      "hit": false,
      "t": 93017.29967708368,
      "d": 185.97565624999697,
      "v": 54
    },
    {
      "midi": 53,
      "hit": false,
      "t": 93028.478541667,
      "d": 134.14637499999662,
      "v": 51
    },
    {
      "midi": 81,
      "hit": false,
      "t": 93029.49480208367,
      "d": 83.33335416666523,
      "v": 81
    },
    {
      "midi": 69,
      "hit": false,
      "t": 93029.49480208367,
      "d": 86.3821354166721,
      "v": 73
    },
    {
      "midi": 62,
      "hit": false,
      "t": 93283.55990625035,
      "d": 135.16263541666558,
      "v": 43
    },
    {
      "midi": 59,
      "hit": false,
      "t": 93297.78755208368,
      "d": 127.03255208332848,
      "v": 50
    },
    {
      "midi": 53,
      "hit": false,
      "t": 93297.78755208368,
      "d": 132.1138541666587,
      "v": 43
    },
    {
      "midi": 65,
      "hit": false,
      "t": 93298.80381250035,
      "d": 92.47969791665673,
      "v": 74
    },
    {
      "midi": 77,
      "hit": false,
      "t": 93302.86885416701,
      "d": 72.15448958333582,
      "v": 79
    },
    {
      "midi": 64,
      "hit": false,
      "t": 93608.76323958367,
      "d": 456.30092708335724,
      "v": 51
    },
    {
      "midi": 67,
      "hit": false,
      "t": 93674.820166667,
      "d": 412.601729166694,
      "v": 66
    },
    {
      "midi": 52,
      "hit": false,
      "t": 93725.63318750035,
      "d": 410.5692083333415,
      "v": 46
    },
    {
      "midi": 71,
      "hit": false,
      "t": 93730.71448958368,
      "d": 329.2683750000142,
      "v": 52
    },
    {
      "midi": 76,
      "hit": false,
      "t": 93759.16978125036,
      "d": 274.390312500007,
      "v": 74
    },
    {
      "midi": 55,
      "hit": false,
      "t": 94014.2511458337,
      "d": 131.0975937500043,
      "v": 53
    },
    {
      "midi": 60,
      "hit": false,
      "t": 94110.79588541703,
      "d": 126.01629166667408,
      "v": 51
    },
    {
      "midi": 64,
      "hit": false,
      "t": 94208.35688541703,
      "d": 82.31709374999627,
      "v": 36
    },
    {
      "midi": 67,
      "hit": false,
      "t": 94235.79591666703,
      "d": 104.6748229166551,
      "v": 55
    },
    {
      "midi": 72,
      "hit": false,
      "t": 94285.5926770837,
      "d": 109.75612499999988,
      "v": 54
    },
    {
      "midi": 64,
      "hit": false,
      "t": 94404.4951458337,
      "d": 159.55288541667687,
      "v": 54
    },
    {
      "midi": 67,
      "hit": false,
      "t": 94459.37320833371,
      "d": 101.62604166666279,
      "v": 54
    },
    {
      "midi": 72,
      "hit": false,
      "t": 94569.12933333371,
      "d": 87.39839583334106,
      "v": 61
    },
    {
      "midi": 76,
      "hit": false,
      "t": 94595.55210416704,
      "d": 120.93498958334385,
      "v": 72
    },
    {
      "midi": 79,
      "hit": false,
      "t": 94661.60903125038,
      "d": 90.44717708333337,
      "v": 53
    },
    {
      "midi": 84,
      "hit": false,
      "t": 94733.76352083372,
      "d": 196.13826041667198,
      "v": 53
    },
    {
      "midi": 86,
      "hit": false,
      "t": 94738.84482291705,
      "d": 11.178864583329414,
      "v": 47
    },
    {
      "midi": 79,
      "hit": false,
      "t": 94877.05623958372,
      "d": 94.51221874999464,
      "v": 67
    },
    {
      "midi": 76,
      "hit": false,
      "t": 94961.40585416705,
      "d": 75.20327083332813,
      "v": 51
    },
    {
      "midi": 52,
      "hit": false,
      "t": 95077.25954166705,
      "d": 1467.4800416666549,
      "v": 48
    },
    {
      "midi": 55,
      "hit": false,
      "t": 95170.75550000039,
      "d": 344.51228124999034,
      "v": 23
    },
    {
      "midi": 60,
      "hit": false,
      "t": 95232.74738541705,
      "d": 343.49602083333593,
      "v": 54
    },
    {
      "midi": 64,
      "hit": false,
      "t": 95331.32464583372,
      "d": 146.341499999995,
      "v": 66
    },
    {
      "midi": 67,
      "hit": false,
      "t": 95415.67426041706,
      "d": 128.04881249999744,
      "v": 47
    },
    {
      "midi": 72,
      "hit": false,
      "t": 95484.77996875039,
      "d": 128.04881249999744,
      "v": 83
    },
    {
      "midi": 55,
      "hit": false,
      "t": 95630.10520833371,
      "d": 668.6993541666598,
      "v": 47
    },
    {
      "midi": 60,
      "hit": false,
      "t": 95671.77188541705,
      "d": 168.69922916666837,
      "v": 34
    },
    {
      "midi": 67,
      "hit": false,
      "t": 95880.10527083372,
      "d": 400.40660416665196,
      "v": 56
    },
    {
      "midi": 76,
      "hit": false,
      "t": 95890.26787500038,
      "d": 407.5204270833201,
      "v": 59
    },
    {
      "midi": 72,
      "hit": false,
      "t": 95903.47926041705,
      "d": 377.0326145833242,
      "v": 48
    },
    {
      "midi": 60,
      "hit": false,
      "t": 96140.26793750038,
      "d": 177.84557291665988,
      "v": 59
    },
    {
      "midi": 60,
      "hit": false,
      "t": 96396.36556250037,
      "d": 388.2114791666827,
      "v": 31
    },
    {
      "midi": 55,
      "hit": false,
      "t": 96402.46312500037,
      "d": 122.96751041666721,
      "v": 29
    },
    {
      "midi": 76,
      "hit": false,
      "t": 96406.52816666703,
      "d": 806.9107708333613,
      "v": 38
    },
    {
      "midi": 55,
      "hit": false,
      "t": 96585.39000000038,
      "d": 458.3334479166806,
      "v": 41
    },
    {
      "midi": 52,
      "hit": false,
      "t": 96594.53634375038,
      "d": 464.4310104166798,
      "v": 35
    },
    {
      "midi": 60,
      "hit": false,
      "t": 96880.10552083372,
      "d": 205.28460416667804,
      "v": 23
    },
    {
      "midi": 55,
      "hit": false,
      "t": 97448.1950937504,
      "d": 856.7075312500092,
      "v": 49
    },
    {
      "midi": 61,
      "hit": false,
      "t": 97494.94307291707,
      "d": 825.2034583333443,
      "v": 45
    },
    {
      "midi": 67,
      "hit": false,
      "t": 97544.73983333373,
      "d": 842.4798854166729,
      "v": 70
    },
    {
      "midi": 64,
      "hit": false,
      "t": 97563.03252083373,
      "d": 794.7156458333484,
      "v": 60
    },
    {
      "midi": 73,
      "hit": false,
      "t": 97630.10570833374,
      "d": 779.4717395833432,
      "v": 70
    },
    {
      "midi": 76,
      "hit": false,
      "t": 97754.08947916707,
      "d": 866.8701354166842,
      "v": 61
    },
    {
      "midi": 55,
      "hit": false,
      "t": 98438.03273958375,
      "d": 709.3497708333307,
      "v": 60
    },
    {
      "midi": 61,
      "hit": false,
      "t": 98483.76445833375,
      "d": 759.1465312500077,
      "v": 72
    },
    {
      "midi": 64,
      "hit": false,
      "t": 98574.21163541709,
      "d": 705.2847291666694,
      "v": 69
    },
    {
      "midi": 67,
      "hit": false,
      "t": 98633.15473958376,
      "d": 753.048968749994,
      "v": 84
    },
    {
      "midi": 73,
      "hit": false,
      "t": 98644.33360416708,
      "d": 306.91064583332627,
      "v": 127
    },
    {
      "midi": 74,
      "hit": false,
      "t": 98900.43122916708,
      "d": 250.00006250001024,
      "v": 115
    },
    {
      "midi": 76,
      "hit": false,
      "t": 99089.45566666708,
      "d": 138.21141666667245,
      "v": 112
    },
    {
      "midi": 77,
      "hit": false,
      "t": 99241.89472916709,
      "d": 170.73174999999173,
      "v": 77
    },
    {
      "midi": 55,
      "hit": false,
      "t": 99428.88664583374,
      "d": 419.7155520833621,
      "v": 60
    },
    {
      "midi": 61,
      "hit": false,
      "t": 99474.61836458374,
      "d": 381.0976562500291,
      "v": 42
    },
    {
      "midi": 67,
      "hit": false,
      "t": 99529.49642708375,
      "d": 329.26837500002875,
      "v": 64
    },
    {
      "midi": 64,
      "hit": false,
      "t": 99542.70781250042,
      "d": 299.7968229166727,
      "v": 62
    },
    {
      "midi": 73,
      "hit": false,
      "t": 99591.48831250043,
      "d": 254.06510416667152,
      "v": 68
    },
    {
      "midi": 76,
      "hit": false,
      "t": 99655.51271875043,
      "d": 243.9025000000256,
      "v": 119
    },
    {
      "midi": 61,
      "hit": false,
      "t": 99932.95181250045,
      "d": 446.1383229166531,
      "v": 61
    },
    {
      "midi": 55,
      "hit": false,
      "t": 99950.22823958378,
      "d": 400.4066041666665,
      "v": 58
    },
    {
      "midi": 64,
      "hit": false,
      "t": 99950.22823958378,
      "d": 418.69929166666407,
      "v": 68
    },
    {
      "midi": 67,
      "hit": false,
      "t": 99951.24450000045,
      "d": 463.4147499999817,
      "v": 78
    },
    {
      "midi": 73,
      "hit": false,
      "t": 99951.24450000045,
      "d": 500.00012499997683,
      "v": 119
    },
    {
      "midi": 61,
      "hit": false,
      "t": 100571.16335416709,
      "d": 181.91061458335025,
      "v": 54
    },
    {
      "midi": 67,
      "hit": false,
      "t": 100579.29343750043,
      "d": 200.2033020833478,
      "v": 83
    },
    {
      "midi": 55,
      "hit": false,
      "t": 100592.5048229171,
      "d": 115.85368750001362,
      "v": 55
    },
    {
      "midi": 64,
      "hit": false,
      "t": 100592.5048229171,
      "d": 156.50410416668456,
      "v": 55
    },
    {
      "midi": 73,
      "hit": false,
      "t": 100593.52108333376,
      "d": 54.87806250000722,
      "v": 86
    },
    {
      "midi": 74,
      "hit": false,
      "t": 100594.53734375043,
      "d": 207.31712500001595,
      "v": 108
    },
    {
      "midi": 61,
      "hit": false,
      "t": 100868.92765625045,
      "d": 159.55288541667687,
      "v": 61
    },
    {
      "midi": 55,
      "hit": false,
      "t": 100879.09026041711,
      "d": 118.90246875000594,
      "v": 61
    },
    {
      "midi": 64,
      "hit": false,
      "t": 100879.09026041711,
      "d": 141.26019791667932,
      "v": 58
    },
    {
      "midi": 76,
      "hit": false,
      "t": 100906.52929166712,
      "d": 172.7642708333442,
      "v": 112
    },
    {
      "midi": 67,
      "hit": false,
      "t": 100906.52929166712,
      "d": 178.86183333334338,
      "v": 69
    },
    {
      "midi": 73,
      "hit": false,
      "t": 100922.78945833378,
      "d": 22.35772916667338,
      "v": 64
    },
    {
      "midi": 61,
      "hit": false,
      "t": 101151.4480520838,
      "d": 128.0488124999829,
      "v": 47
    },
    {
      "midi": 64,
      "hit": false,
      "t": 101152.46431250047,
      "d": 132.11385416664416,
      "v": 52
    },
    {
      "midi": 55,
      "hit": false,
      "t": 101152.46431250047,
      "d": 135.16263541665103,
      "v": 53
    },
    {
      "midi": 77,
      "hit": false,
      "t": 101162.62691666713,
      "d": 253.04884375000256,
      "v": 94
    },
    {
      "midi": 67,
      "hit": false,
      "t": 101167.70821875046,
      "d": 173.7805312499986,
      "v": 57
    },
    {
      "midi": 73,
      "hit": false,
      "t": 101180.91960416712,
      "d": 30.487812499995925,
      "v": 47
    },
    {
      "midi": 62,
      "hit": false,
      "t": 101478.68390625046,
      "d": 631.0977187500102,
      "v": 55
    },
    {
      "midi": 76,
      "hit": false,
      "t": 101479.70016666713,
      "d": 637.1952812500094,
      "v": 94
    },
    {
      "midi": 53,
      "hit": false,
      "t": 101487.83025000046,
      "d": 539.6342812500079,
      "v": 59
    },
    {
      "midi": 57,
      "hit": false,
      "t": 101487.83025000046,
      "d": 584.3497395833401,
      "v": 66
    },
    {
      "midi": 53,
      "hit": false,
      "t": 102342.50526041714,
      "d": 804.8782500000088,
      "v": 55
    },
    {
      "midi": 57,
      "hit": false,
      "t": 102360.79794791713,
      "d": 353.6586249999964,
      "v": 55
    },
    {
      "midi": 62,
      "hit": false,
      "t": 102436.00121875046,
      "d": 364.83748958334036,
      "v": 59
    },
    {
      "midi": 74,
      "hit": false,
      "t": 102507.13944791713,
      "d": 496.9513437500136,
      "v": 94
    },
    {
      "midi": 65,
      "hit": false,
      "t": 102520.3508333338,
      "d": 378.0488750000077,
      "v": 46
    },
    {
      "midi": 69,
      "hit": false,
      "t": 102520.3508333338,
      "d": 436.9919791666762,
      "v": 90
    },
    {
      "midi": 57,
      "hit": false,
      "t": 102834.3753020838,
      "d": 337.39845833333675,
      "v": 27
    },
    {
      "midi": 62,
      "hit": false,
      "t": 102963.44037500047,
      "d": 300.81308333334164,
      "v": 47
    },
    {
      "midi": 65,
      "hit": false,
      "t": 103119.94447916714,
      "d": 1394.3092916666792,
      "v": 49
    },
    {
      "midi": 69,
      "hit": false,
      "t": 103261.2046770838,
      "d": 164.6341875000071,
      "v": 34
    },
    {
      "midi": 53,
      "hit": false,
      "t": 103328.27786458381,
      "d": 1430.8946666666743,
      "v": 19
    },
    {
      "midi": 57,
      "hit": false,
      "t": 103382.13966666715,
      "d": 244.91876041666546,
      "v": 44
    },
    {
      "midi": 62,
      "hit": false,
      "t": 103434.98520833382,
      "d": 615.8538124999905,
      "v": 54
    },
    {
      "midi": 74,
      "hit": false,
      "t": 103568.11532291715,
      "d": 969.5124375000014,
      "v": 33
    },
    {
      "midi": 69,
      "hit": false,
      "t": 103768.31862500048,
      "d": 694.10586458334,
      "v": 1
    },
    {
      "midi": 57,
      "hit": false,
      "t": 103869.94466666714,
      "d": 876.0164791666757,
      "v": 39
    },
    {
      "midi": 62,
      "hit": false,
      "t": 104369.94479166715,
      "d": 426.82937500000116,
      "v": 39
    },
    {
      "midi": 79,
      "hit": false,
      "t": 105350.6360937505,
      "d": 741.8701041666645,
      "v": 81
    },
    {
      "midi": 74,
      "hit": false,
      "t": 105351.65235416716,
      "d": 724.5936770833214,
      "v": 94
    },
    {
      "midi": 71,
      "hit": false,
      "t": 105351.65235416716,
      "d": 731.7074999999895,
      "v": 105
    },
    {
      "midi": 67,
      "hit": false,
      "t": 105352.66861458383,
      "d": 688.0083020833263,
      "v": 73
    },
    {
      "midi": 59,
      "hit": false,
      "t": 105358.76617708383,
      "d": 733.7400208333274,
      "v": 83
    },
    {
      "midi": 62,
      "hit": false,
      "t": 105368.92878125049,
      "d": 729.6749791666662,
      "v": 70
    },
    {
      "midi": 53,
      "hit": false,
      "t": 105369.94504166716,
      "d": 735.7725416666653,
      "v": 69
    },
    {
      "midi": 59,
      "hit": false,
      "t": 106299.82332291716,
      "d": 121.9512500000128,
      "v": 69
    },
    {
      "midi": 53,
      "hit": false,
      "t": 106300.83958333383,
      "d": 147.3577604166785,
      "v": 68
    },
    {
      "midi": 62,
      "hit": false,
      "t": 106300.83958333383,
      "d": 149.39028125001641,
      "v": 64
    },
    {
      "midi": 71,
      "hit": false,
      "t": 106301.8558437505,
      "d": 161.58540625001478,
      "v": 81
    },
    {
      "midi": 67,
      "hit": false,
      "t": 106301.8558437505,
      "d": 177.84557291667443,
      "v": 67
    },
    {
      "midi": 74,
      "hit": false,
      "t": 106302.87210416717,
      "d": 142.27645833333372,
      "v": 72
    },
    {
      "midi": 67,
      "hit": false,
      "t": 106586.40876041717,
      "d": 68.08944791667454,
      "v": 54
    },
    {
      "midi": 71,
      "hit": false,
      "t": 106587.42502083383,
      "d": 80.28457291667291,
      "v": 83
    },
    {
      "midi": 74,
      "hit": false,
      "t": 106590.47380208384,
      "d": 53.86180208333826,
      "v": 67
    },
    {
      "midi": 59,
      "hit": false,
      "t": 106597.58762500051,
      "d": 110.77238541666884,
      "v": 67
    },
    {
      "midi": 53,
      "hit": false,
      "t": 106604.70144791718,
      "d": 95.5284791666636,
      "v": 49
    },
    {
      "midi": 62,
      "hit": false,
      "t": 106604.70144791718,
      "d": 119.91872916666034,
      "v": 61
    },
    {
      "midi": 62,
      "hit": false,
      "t": 106846.57142708384,
      "d": 110.77238541665429,
      "v": 53
    },
    {
      "midi": 59,
      "hit": false,
      "t": 106847.5876875005,
      "d": 87.3983958333265,
      "v": 73
    },
    {
      "midi": 53,
      "hit": false,
      "t": 106847.5876875005,
      "d": 92.47969791665673,
      "v": 64
    },
    {
      "midi": 74,
      "hit": false,
      "t": 106852.66898958384,
      "d": 59.959364583322895,
      "v": 83
    },
    {
      "midi": 86,
      "hit": false,
      "t": 106858.76655208383,
      "d": 69.10570833332895,
      "v": 102
    },
    {
      "midi": 82,
      "hit": false,
      "t": 106865.8803750005,
      "d": 29.47155208332697,
      "v": 78
    },
    {
      "midi": 62,
      "hit": false,
      "t": 107038.64464583382,
      "d": 123.98377083333617,
      "v": 46
    },
    {
      "midi": 84,
      "hit": false,
      "t": 107041.69342708382,
      "d": 72.15448958333582,
      "v": 81
    },
    {
      "midi": 59,
      "hit": false,
      "t": 107052.87229166715,
      "d": 69.1057083333435,
      "v": 57
    },
    {
      "midi": 72,
      "hit": false,
      "t": 107053.88855208382,
      "d": 52.845541666669305,
      "v": 81
    },
    {
      "midi": 53,
      "hit": false,
      "t": 107053.88855208382,
      "d": 73.17075000000477,
      "v": 48
    },
    {
      "midi": 71,
      "hit": false,
      "t": 107302.87235416715,
      "d": 255.08136458334047,
      "v": 79
    },
    {
      "midi": 53,
      "hit": false,
      "t": 107317.10000000049,
      "d": 265.24396875000093,
      "v": 47
    },
    {
      "midi": 59,
      "hit": false,
      "t": 107317.10000000049,
      "d": 277.4390937499993,
      "v": 49
    },
    {
      "midi": 62,
      "hit": false,
      "t": 107318.11626041715,
      "d": 297.76430208333477,
      "v": 52
    },
    {
      "midi": 74,
      "hit": false,
      "t": 107335.39268750048,
      "d": 213.41468750000058,
      "v": 97
    },
    {
      "midi": 77,
      "hit": false,
      "t": 107340.47398958381,
      "d": 202.23582291667117,
      "v": 99
    },
    {
      "midi": 83,
      "hit": false,
      "t": 107353.68537500048,
      "d": 188.00817708333489,
      "v": 62
    },
    {
      "midi": 76,
      "hit": false,
      "t": 107691.08383333382,
      "d": 436.9919791666907,
      "v": 90
    },
    {
      "midi": 72,
      "hit": false,
      "t": 107691.08383333382,
      "d": 448.17084375002014,
      "v": 86
    },
    {
      "midi": 62,
      "hit": false,
      "t": 107692.10009375049,
      "d": 379.06513541667664,
      "v": 46
    },
    {
      "midi": 59,
      "hit": false,
      "t": 107693.11635416716,
      "d": 332.3171562500065,
      "v": 56
    },
    {
      "midi": 69,
      "hit": false,
      "t": 107693.11635416716,
      "d": 381.09765625001455,
      "v": 66
    },
    {
      "midi": 81,
      "hit": false,
      "t": 107694.13261458382,
      "d": 257.11388541666383,
      "v": 79
    },
    {
      "midi": 53,
      "hit": false,
      "t": 107695.1488750005,
      "d": 341.463499999998,
      "v": 51
    },
    {
      "midi": 79,
      "hit": false,
      "t": 108294.74252083384,
      "d": 184.95939583334257,
      "v": 77
    },
    {
      "midi": 67,
      "hit": false,
      "t": 108301.8563437505,
      "d": 161.58540625001478,
      "v": 83
    },
    {
      "midi": 72,
      "hit": false,
      "t": 108312.01894791717,
      "d": 48.780500000022585,
      "v": 63
    },
    {
      "midi": 76,
      "hit": false,
      "t": 108312.01894791717,
      "d": 54.87806250002177,
      "v": 55
    },
    {
      "midi": 59,
      "hit": false,
      "t": 108313.03520833384,
      "d": 173.78053125001315,
      "v": 72
    },
    {
      "midi": 62,
      "hit": false,
      "t": 108316.08398958384,
      "d": 178.86183333334338,
      "v": 59
    },
    {
      "midi": 53,
      "hit": false,
      "t": 108319.13277083385,
      "d": 149.39028125000186,
      "v": 64
    },
    {
      "midi": 59,
      "hit": false,
      "t": 108638.23854166719,
      "d": 138.21141666667245,
      "v": 53
    },
    {
      "midi": 53,
      "hit": false,
      "t": 108638.23854166719,
      "d": 201.2195625000022,
      "v": 51
    },
    {
      "midi": 62,
      "hit": false,
      "t": 108639.25480208386,
      "d": 314.0244687499944,
      "v": 55
    },
    {
      "midi": 69,
      "hit": false,
      "t": 108640.27106250053,
      "d": 77.23579166666605,
      "v": 84
    },
    {
      "midi": 81,
      "hit": false,
      "t": 108640.27106250053,
      "d": 80.28457291667291,
      "v": 84
    },
    {
      "midi": 53,
      "hit": false,
      "t": 108909.58007291719,
      "d": 202.23582291668572,
      "v": 31
    },
    {
      "midi": 59,
      "hit": false,
      "t": 108916.69389583386,
      "d": 135.16263541668013,
      "v": 48
    },
    {
      "midi": 65,
      "hit": false,
      "t": 108921.77519791719,
      "d": 107.72360416667652,
      "v": 83
    },
    {
      "midi": 77,
      "hit": false,
      "t": 108925.84023958385,
      "d": 82.31709375001083,
      "v": 77
    },
    {
      "midi": 64,
      "hit": false,
      "t": 109177.87282291721,
      "d": 422.7643333333399,
      "v": 57
    },
    {
      "midi": 67,
      "hit": false,
      "t": 109279.49886458387,
      "d": 285.56917708335095,
      "v": 73
    },
    {
      "midi": 71,
      "hit": false,
      "t": 109311.00293750054,
      "d": 245.93502083334897,
      "v": 77
    },
    {
      "midi": 76,
      "hit": false,
      "t": 109338.44196875054,
      "d": 203.25208333334012,
      "v": 81
    },
    {
      "midi": 36,
      "hit": false,
      "t": 109465.47452083389,
      "d": 329.26837499999965,
      "v": 47
    },
    {
      "midi": 43,
      "hit": false,
      "t": 109697.18189583388,
      "d": 156.50410416665545,
      "v": 43
    },
    {
      "midi": 48,
      "hit": false,
      "t": 109824.21444791721,
      "d": 105.69108333332406,
      "v": 51
    },
    {
      "midi": 52,
      "hit": false,
      "t": 109864.86486458387,
      "d": 92.47969791667128,
      "v": 60
    },
    {
      "midi": 55,
      "hit": false,
      "t": 109966.49090625055,
      "d": 74.18701041667373,
      "v": 41
    },
    {
      "midi": 57,
      "hit": false,
      "t": 109994.94619791722,
      "d": 66.05692708333663,
      "v": 69
    },
    {
      "midi": 52,
      "hit": false,
      "t": 110111.81614583389,
      "d": 87.3983958333265,
      "v": 48
    },
    {
      "midi": 55,
      "hit": false,
      "t": 110155.51534375055,
      "d": 60.97562499999185,
      "v": 74
    },
    {
      "midi": 60,
      "hit": false,
      "t": 110264.25520833388,
      "d": 97.56100000000151,
      "v": 70
    },
    {
      "midi": 64,
      "hit": false,
      "t": 110287.62919791721,
      "d": 66.05692708333663,
      "v": 64
    },
    {
      "midi": 67,
      "hit": false,
      "t": 110360.79994791721,
      "d": 81.30083333332732,
      "v": 42
    },
    {
      "midi": 69,
      "hit": false,
      "t": 110391.28776041721,
      "d": 76.21953124999709,
      "v": 53
    },
    {
      "midi": 64,
      "hit": false,
      "t": 110484.78371875054,
      "d": 90.44717708333337,
      "v": 77
    },
    {
      "midi": 67,
      "hit": false,
      "t": 110530.51543750054,
      "d": 77.23579166666605,
      "v": 63
    },
    {
      "midi": 72,
      "hit": false,
      "t": 110648.40164583387,
      "d": 111.78864583332324,
      "v": 66
    },
    {
      "midi": 76,
      "hit": false,
      "t": 110683.9707604172,
      "d": 103.6585625000007,
      "v": 70
    },
    {
      "midi": 79,
      "hit": false,
      "t": 110753.07646875053,
      "d": 97.56100000000151,
      "v": 40
    },
    {
      "midi": 84,
      "hit": false,
      "t": 110811.00331250053,
      "d": 97.56100000000151,
      "v": 90
    },
    {
      "midi": 79,
      "hit": false,
      "t": 110907.54805208386,
      "d": 113.82116666667571,
      "v": 84
    },
    {
      "midi": 84,
      "hit": false,
      "t": 111048.80825000054,
      "d": 33.536593750002794,
      "v": 43
    },
    {
      "midi": 88,
      "hit": false,
      "t": 111090.47492708388,
      "d": 100.60978124999383,
      "v": 73
    },
    {
      "midi": 91,
      "hit": false,
      "t": 111153.48307291721,
      "d": 89.43091666666442,
      "v": 62
    },
    {
      "midi": 96,
      "hit": false,
      "t": 111201.24731250053,
      "d": 71.13822916666686,
      "v": 79
    },
    {
      "midi": 64,
      "hit": false,
      "t": 111730.71898958387,
      "d": 184.95939583332802,
      "v": 60
    },
    {
      "midi": 76,
      "hit": false,
      "t": 111750.02793750053,
      "d": 153.45532291666314,
      "v": 86
    },
    {
      "midi": 53,
      "hit": false,
      "t": 112216.49146875052,
      "d": 353.6586249999964,
      "v": 64
    },
    {
      "midi": 77,
      "hit": false,
      "t": 112228.68659375052,
      "d": 103.6585625000007,
      "v": 88
    },
    {
      "midi": 65,
      "hit": false,
      "t": 112231.73537500053,
      "d": 81.30083333332732,
      "v": 78
    },
    {
      "midi": 54,
      "hit": false,
      "t": 112716.49159375051,
      "d": 97.56100000000151,
      "v": 55
    },
    {
      "midi": 66,
      "hit": false,
      "t": 112743.93062500052,
      "d": 66.05692708333663,
      "v": 77
    },
    {
      "midi": 78,
      "hit": false,
      "t": 112743.93062500052,
      "d": 73.17075000000477,
      "v": 86
    },
    {
      "midi": 53,
      "hit": false,
      "t": 113130.10958333386,
      "d": 729.6749791666807,
      "v": 48
    },
    {
      "midi": 59,
      "hit": false,
      "t": 113162.6299166672,
      "d": 666.6668333333364,
      "v": 53
    },
    {
      "midi": 67,
      "hit": false,
      "t": 113225.63806250053,
      "d": 655.4879687500215,
      "v": 66
    },
    {
      "midi": 62,
      "hit": false,
      "t": 113230.71936458386,
      "d": 625.0001562500111,
      "v": 68
    },
    {
      "midi": 71,
      "hit": false,
      "t": 113282.54864583386,
      "d": 609.7562500000349,
      "v": 55
    },
    {
      "midi": 74,
      "hit": false,
      "t": 113342.5080104172,
      "d": 546.7481041666906,
      "v": 45
    },
    {
      "midi": 79,
      "hit": false,
      "t": 113376.0446041672,
      "d": 482.72369791667734,
      "v": 73
    },
    {
      "midi": 62,
      "hit": false,
      "t": 114105.71958333389,
      "d": 196.13826041668653,
      "v": 59
    },
    {
      "midi": 53,
      "hit": false,
      "t": 114106.73584375056,
      "d": 169.71548958333733,
      "v": 57
    },
    {
      "midi": 59,
      "hit": false,
      "t": 114106.73584375056,
      "d": 172.7642708333442,
      "v": 65
    },
    {
      "midi": 79,
      "hit": false,
      "t": 114137.22365625056,
      "d": 162.60166666668374,
      "v": 78
    },
    {
      "midi": 71,
      "hit": false,
      "t": 114138.23991666723,
      "d": 125.00003125000512,
      "v": 97
    },
    {
      "midi": 74,
      "hit": false,
      "t": 114138.23991666723,
      "d": 132.11385416667326,
      "v": 94
    },
    {
      "midi": 67,
      "hit": false,
      "t": 114139.2561770839,
      "d": 129.0650729166664,
      "v": 79
    },
    {
      "midi": 79,
      "hit": false,
      "t": 114438.03673958391,
      "d": 76.21953124999709,
      "v": 69
    },
    {
      "midi": 71,
      "hit": false,
      "t": 114439.05300000058,
      "d": 43.69919791666325,
      "v": 97
    },
    {
      "midi": 74,
      "hit": false,
      "t": 114439.05300000058,
      "d": 48.78049999999348,
      "v": 88
    },
    {
      "midi": 67,
      "hit": false,
      "t": 114440.06926041725,
      "d": 37.60163541666407,
      "v": 67
    },
    {
      "midi": 59,
      "hit": false,
      "t": 114441.08552083392,
      "d": 69.10570833332895,
      "v": 72
    },
    {
      "midi": 62,
      "hit": false,
      "t": 114441.08552083392,
      "d": 90.44717708333337,
      "v": 64
    },
    {
      "midi": 53,
      "hit": false,
      "t": 114442.10178125059,
      "d": 74.18701041665918,
      "v": 62
    },
    {
      "midi": 59,
      "hit": false,
      "t": 114637.22378125059,
      "d": 79.26831250000396,
      "v": 73
    },
    {
      "midi": 62,
      "hit": false,
      "t": 114637.22378125059,
      "d": 93.49595833334024,
      "v": 53
    },
    {
      "midi": 53,
      "hit": false,
      "t": 114648.40264583392,
      "d": 69.1057083333435,
      "v": 58
    },
    {
      "midi": 71,
      "hit": false,
      "t": 114649.41890625059,
      "d": 60.9756250000064,
      "v": 83
    },
    {
      "midi": 83,
      "hit": false,
      "t": 114655.51646875059,
      "d": 65.04066666668223,
      "v": 86
    },
    {
      "midi": 59,
      "hit": false,
      "t": 114838.4433437506,
      "d": 77.2357916666806,
      "v": 66
    },
    {
      "midi": 62,
      "hit": false,
      "t": 114838.4433437506,
      "d": 92.47969791667128,
      "v": 57
    },
    {
      "midi": 53,
      "hit": false,
      "t": 114846.57342708393,
      "d": 66.05692708333663,
      "v": 57
    },
    {
      "midi": 72,
      "hit": false,
      "t": 114857.75229166726,
      "d": 16.260166666674195,
      "v": 59
    },
    {
      "midi": 74,
      "hit": false,
      "t": 114858.76855208393,
      "d": 47.76423958333908,
      "v": 73
    },
    {
      "midi": 86,
      "hit": false,
      "t": 114858.76855208393,
      "d": 68.08944791667454,
      "v": 90
    },
    {
      "midi": 84,
      "hit": false,
      "t": 114860.80107291727,
      "d": 25.406510416665697,
      "v": 74
    },
    {
      "midi": 77,
      "hit": false,
      "t": 115148.40277083393,
      "d": 88.41465625001001,
      "v": 66
    },
    {
      "midi": 59,
      "hit": false,
      "t": 115163.64667708393,
      "d": 112.80490625000675,
      "v": 74
    },
    {
      "midi": 89,
      "hit": false,
      "t": 115164.6629375006,
      "d": 84.34961458333419,
      "v": 90
    },
    {
      "midi": 62,
      "hit": false,
      "t": 115165.67919791727,
      "d": 137.1951562500035,
      "v": 66
    },
    {
      "midi": 53,
      "hit": false,
      "t": 115167.71171875061,
      "d": 103.6585625000007,
      "v": 62
    },
    {
      "midi": 86,
      "hit": false,
      "t": 115507.14269791727,
      "d": 71.13822916666686,
      "v": 81
    },
    {
      "midi": 74,
      "hit": false,
      "t": 115507.14269791727,
      "d": 75.20327083332813,
      "v": 83
    },
    {
      "midi": 59,
      "hit": false,
      "t": 115508.15895833394,
      "d": 104.6748229166551,
      "v": 47
    },
    {
      "midi": 53,
      "hit": false,
      "t": 115508.15895833394,
      "d": 107.72360416666197,
      "v": 46
    },
    {
      "midi": 62,
      "hit": false,
      "t": 115510.19147916728,
      "d": 184.95939583332802,
      "v": 42
    },
    {
      "midi": 59,
      "hit": false,
      "t": 116079.29731250061,
      "d": 133.13011458334222,
      "v": 53
    },
    {
      "midi": 53,
      "hit": false,
      "t": 116095.55747916727,
      "d": 101.62604166667734,
      "v": 48
    },
    {
      "midi": 62,
      "hit": false,
      "t": 116095.55747916727,
      "d": 147.3577604166785,
      "v": 48
    },
    {
      "midi": 71,
      "hit": false,
      "t": 116096.57373958394,
      "d": 81.30083333334187,
      "v": 83
    },
    {
      "midi": 83,
      "hit": false,
      "t": 116097.59000000061,
      "d": 77.23579166666605,
      "v": 88
    },
    {
      "midi": 53,
      "hit": false,
      "t": 116456.32992708395,
      "d": 468.4960520833556,
      "v": 43
    },
    {
      "midi": 62,
      "hit": false,
      "t": 116457.34618750062,
      "d": 433.94319791668386,
      "v": 47
    },
    {
      "midi": 67,
      "hit": false,
      "t": 116458.36244791729,
      "d": 84.34961458333419,
      "v": 77
    },
    {
      "midi": 59,
      "hit": false,
      "t": 116458.36244791729,
      "d": 429.87815625000803,
      "v": 38
    },
    {
      "midi": 79,
      "hit": false,
      "t": 116459.37870833396,
      "d": 81.30083333332732,
      "v": 79
    },
    {
      "midi": 65,
      "hit": false,
      "t": 116781.53326041729,
      "d": 115.85368750001362,
      "v": 59
    },
    {
      "midi": 77,
      "hit": false,
      "t": 116788.64708333396,
      "d": 166.666708333345,
      "v": 81
    },
    {
      "midi": 69,
      "hit": false,
      "t": 117083.3626041673,
      "d": 623.9838958333276,
      "v": 63
    },
    {
      "midi": 55,
      "hit": false,
      "t": 117108.76911458396,
      "d": 497.9676041666535,
      "v": 40
    },
    {
      "midi": 52,
      "hit": false,
      "t": 117108.76911458396,
      "d": 556.910708333322,
      "v": 39
    },
    {
      "midi": 60,
      "hit": false,
      "t": 117164.66343750063,
      "d": 551.8294062500063,
      "v": 25
    },
    {
      "midi": 81,
      "hit": false,
      "t": 117195.15125000062,
      "d": 393.29278124999837,
      "v": 54
    },
    {
      "midi": 52,
      "hit": false,
      "t": 117951.24900000064,
      "d": 577.2359166666574,
      "v": 50
    },
    {
      "midi": 55,
      "hit": false,
      "t": 117970.5579479173,
      "d": 263.211447916663,
      "v": 49
    },
    {
      "midi": 60,
      "hit": false,
      "t": 118049.8262604173,
      "d": 319.10577083332464,
      "v": 61
    },
    {
      "midi": 67,
      "hit": false,
      "t": 118055.9238229173,
      "d": 339.4309791666601,
      "v": 44
    },
    {
      "midi": 72,
      "hit": false,
      "t": 118133.15961458397,
      "d": 210.3659062499937,
      "v": 69
    },
    {
      "midi": 76,
      "hit": false,
      "t": 118166.69620833397,
      "d": 171.7480104166607,
      "v": 61
    },
    {
      "midi": 79,
      "hit": false,
      "t": 118182.95637500063,
      "d": 164.63418749999255,
      "v": 83
    },
    {
      "midi": 55,
      "hit": false,
      "t": 118405.51740625063,
      "d": 125.00003125000512,
      "v": 47
    },
    {
      "midi": 60,
      "hit": false,
      "t": 118491.8995416673,
      "d": 127.03255208332848,
      "v": 66
    },
    {
      "midi": 64,
      "hit": false,
      "t": 118588.44428125063,
      "d": 36.58537499999511,
      "v": 34
    },
    {
      "midi": 67,
      "hit": false,
      "t": 118653.4849479173,
      "d": 61.99188541666081,
      "v": 37
    },
    {
      "midi": 72,
      "hit": false,
      "t": 118696.1678854173,
      "d": 52.845541666669305,
      "v": 49
    },
    {
      "midi": 64,
      "hit": false,
      "t": 118787.6313229173,
      "d": 115.85368750001362,
      "v": 77
    },
    {
      "midi": 67,
      "hit": false,
      "t": 118829.29800000064,
      "d": 143.29271875001723,
      "v": 79
    },
    {
      "midi": 72,
      "hit": false,
      "t": 118969.54193750065,
      "d": 48.78049999999348,
      "v": 58
    },
    {
      "midi": 76,
      "hit": false,
      "t": 118982.75332291731,
      "d": 182.9268749999901,
      "v": 72
    },
    {
      "midi": 79,
      "hit": false,
      "t": 119041.69642708397,
      "d": 182.92687500000466,
      "v": 52
    },
    {
      "midi": 84,
      "hit": false,
      "t": 119105.72083333397,
      "d": 420.731812500002,
      "v": 83
    },
    {
      "midi": 52,
      "hit": false,
      "t": 120790.6806041673,
      "d": 684.959520833334,
      "v": 51
    },
    {
      "midi": 56,
      "hit": false,
      "t": 120850.63996875063,
      "d": 635.162760416657,
      "v": 33
    },
    {
      "midi": 64,
      "hit": false,
      "t": 120883.16030208397,
      "d": 566.057052083328,
      "v": 70
    },
    {
      "midi": 59,
      "hit": false,
      "t": 120921.7781979173,
      "d": 647.3578854166553,
      "v": 55
    },
    {
      "midi": 68,
      "hit": false,
      "t": 120962.42861458396,
      "d": 637.1952812499949,
      "v": 60
    },
    {
      "midi": 71,
      "hit": false,
      "t": 121036.61562500063,
      "d": 610.7725104166602,
      "v": 47
    },
    {
      "midi": 76,
      "hit": false,
      "t": 121110.8026354173,
      "d": 487.80499999997846,
      "v": 36
    },
    {
      "midi": 52,
      "hit": false,
      "t": 121725.64018750063,
      "d": 391.26026041668956,
      "v": 44
    },
    {
      "midi": 56,
      "hit": false,
      "t": 121780.51825000063,
      "d": 325.2033333333384,
      "v": 50
    },
    {
      "midi": 64,
      "hit": false,
      "t": 121799.8271979173,
      "d": 238.82119791666628,
      "v": 61
    },
    {
      "midi": 59,
      "hit": false,
      "t": 121850.64021875063,
      "d": 275.4065729166905,
      "v": 65
    },
    {
      "midi": 68,
      "hit": false,
      "t": 121876.0467291673,
      "d": 234.756156250005,
      "v": 54
    },
    {
      "midi": 71,
      "hit": false,
      "t": 121931.94105208396,
      "d": 181.91061458335025,
      "v": 61
    },
    {
      "midi": 76,
      "hit": false,
      "t": 121946.1686979173,
      "d": 163.61792708333815,
      "v": 94
    },
    {
      "midi": 64,
      "hit": false,
      "t": 122216.49396875066,
      "d": 74.18701041668828,
      "v": 83
    },
    {
      "midi": 68,
      "hit": false,
      "t": 122216.49396875066,
      "d": 84.34961458334874,
      "v": 64
    },
    {
      "midi": 76,
      "hit": false,
      "t": 122229.70535416732,
      "d": 85.3658750000177,
      "v": 47
    },
    {
      "midi": 71,
      "hit": false,
      "t": 122230.72161458399,
      "d": 52.84554166668386,
      "v": 61
    },
    {
      "midi": 59,
      "hit": false,
      "t": 122231.73787500066,
      "d": 159.55288541667687,
      "v": 57
    },
    {
      "midi": 56,
      "hit": false,
      "t": 122234.78665625067,
      "d": 135.16263541668013,
      "v": 47
    },
    {
      "midi": 52,
      "hit": false,
      "t": 122243.93300000067,
      "d": 130.08133333333535,
      "v": 41
    },
    {
      "midi": 80,
      "hit": false,
      "t": 122464.46151041734,
      "d": 71.13822916666686,
      "v": 97
    },
    {
      "midi": 68,
      "hit": false,
      "t": 122481.73793750067,
      "d": 39.63415625000198,
      "v": 105
    },
    {
      "midi": 83,
      "hit": false,
      "t": 122674.82741666734,
      "d": 93.49595833332569,
      "v": 97
    },
    {
      "midi": 71,
      "hit": false,
      "t": 122679.90871875067,
      "d": 50.81302083333139,
      "v": 74
    },
    {
      "midi": 77,
      "hit": false,
      "t": 123009.17709375067,
      "d": 171.74801041667524,
      "v": 63
    },
    {
      "midi": 81,
      "hit": false,
      "t": 123010.19335416734,
      "d": 166.666708333345,
      "v": 92
    },
    {
      "midi": 84,
      "hit": false,
      "t": 123010.19335416734,
      "d": 172.7642708333442,
      "v": 94
    },
    {
      "midi": 89,
      "hit": false,
      "t": 123012.22587500067,
      "d": 177.84557291667443,
      "v": 84
    },
    {
      "midi": 56,
      "hit": false,
      "t": 123018.32343750067,
      "d": 184.95939583334257,
      "v": 65
    },
    {
      "midi": 52,
      "hit": false,
      "t": 123026.45352083401,
      "d": 170.7317500000063,
      "v": 66
    },
    {
      "midi": 59,
      "hit": false,
      "t": 123027.46978125068,
      "d": 193.08947916666511,
      "v": 58
    },
    {
      "midi": 88,
      "hit": false,
      "t": 123386.209708334,
      "d": 186.99191666666593,
      "v": 61
    },
    {
      "midi": 76,
      "hit": false,
      "t": 123390.27475000067,
      "d": 238.82119791666628,
      "v": 84
    },
    {
      "midi": 56,
      "hit": false,
      "t": 123396.37231250067,
      "d": 188.00817708333489,
      "v": 68
    },
    {
      "midi": 59,
      "hit": false,
      "t": 123397.38857291733,
      "d": 205.28460416666348,
      "v": 65
    },
    {
      "midi": 52,
      "hit": false,
      "t": 123399.42109375067,
      "d": 179.8780937499978,
      "v": 65
    },
    {
      "midi": 74,
      "hit": false,
      "t": 123939.05537500067,
      "d": 86.3821354166721,
      "v": 84
    },
    {
      "midi": 86,
      "hit": false,
      "t": 123939.05537500067,
      "d": 94.5122187500092,
      "v": 94
    },
    {
      "midi": 56,
      "hit": false,
      "t": 123940.07163541733,
      "d": 127.03255208334303,
      "v": 75
    },
    {
      "midi": 59,
      "hit": false,
      "t": 123940.07163541733,
      "d": 130.0813333333499,
      "v": 70
    },
    {
      "midi": 52,
      "hit": false,
      "t": 123945.15293750066,
      "d": 89.43091666667897,
      "v": 73
    },
    {
      "midi": 88,
      "hit": false,
      "t": 124233.77089583402,
      "d": 93.49595833334024,
      "v": 83
    },
    {
      "midi": 76,
      "hit": false,
      "t": 124233.77089583402,
      "d": 95.52847916667815,
      "v": 67
    },
    {
      "midi": 56,
      "hit": false,
      "t": 124247.99854166736,
      "d": 128.048812500012,
      "v": 51
    },
    {
      "midi": 59,
      "hit": false,
      "t": 124260.19366666736,
      "d": 115.85368750001362,
      "v": 55
    },
    {
      "midi": 52,
      "hit": false,
      "t": 124261.20992708403,
      "d": 115.85368750001362,
      "v": 59
    },
    {
      "midi": 52,
      "hit": false,
      "t": 124466.4945312507,
      "d": 80.28457291667291,
      "v": 48
    },
    {
      "midi": 56,
      "hit": false,
      "t": 124474.62461458404,
      "d": 77.23579166666605,
      "v": 57
    },
    {
      "midi": 59,
      "hit": false,
      "t": 124477.67339583405,
      "d": 111.78864583332324,
      "v": 57
    },
    {
      "midi": 86,
      "hit": false,
      "t": 124482.75469791738,
      "d": 76.21953124999709,
      "v": 74
    },
    {
      "midi": 74,
      "hit": false,
      "t": 124486.81973958404,
      "d": 121.95124999999825,
      "v": 83
    },
    {
      "midi": 55,
      "hit": false,
      "t": 124993.9336875007,
      "d": 1110.7726354166662,
      "v": 54
    },
    {
      "midi": 64,
      "hit": false,
      "t": 124993.9336875007,
      "d": 1113.821416666673,
      "v": 53
    },
    {
      "midi": 61,
      "hit": false,
      "t": 124994.94994791737,
      "d": 1126.0165416666714,
      "v": 62
    },
    {
      "midi": 79,
      "hit": false,
      "t": 124995.96620833404,
      "d": 861.7888333333249,
      "v": 69
    },
    {
      "midi": 73,
      "hit": false,
      "t": 124995.96620833404,
      "d": 875.0002187499922,
      "v": 66
    },
    {
      "midi": 76,
      "hit": false,
      "t": 124996.9824687507,
      "d": 855.6912708333257,
      "v": 86
    },
    {
      "midi": 85,
      "hit": false,
      "t": 124997.99872916738,
      "d": 1040.6506666666537,
      "v": 67
    },
    {
      "midi": 55,
      "hit": false,
      "t": 126614.86905208405,
      "d": 1739.8378333333385,
      "v": 43
    },
    {
      "midi": 61,
      "hit": false,
      "t": 126667.71459375072,
      "d": 1660.5695208333345,
      "v": 39
    },
    {
      "midi": 76,
      "hit": false,
      "t": 126721.57639583405,
      "d": 1539.6345312499907,
      "v": 64
    },
    {
      "midi": 64,
      "hit": false,
      "t": 126752.06420833405,
      "d": 1642.276833333337,
      "v": 61
    },
    {
      "midi": 79,
      "hit": false,
      "t": 126782.55202083405,
      "d": 1487.805250000005,
      "v": 43
    },
    {
      "midi": 82,
      "hit": false,
      "t": 126861.82033333405,
      "d": 1402.4393750000017,
      "v": 51
    },
    {
      "midi": 88,
      "hit": false,
      "t": 126929.90978125071,
      "d": 1308.9434166666615,
      "v": 53
    },
    {
      "midi": 61,
      "hit": false,
      "t": 128836.4143229174,
      "d": 143.29271875001723,
      "v": 37
    },
    {
      "midi": 55,
      "hit": false,
      "t": 128837.43058333406,
      "d": 138.21141666667245,
      "v": 45
    },
    {
      "midi": 64,
      "hit": false,
      "t": 128837.43058333406,
      "d": 152.43906250000873,
      "v": 52
    },
    {
      "midi": 82,
      "hit": false,
      "t": 128842.51188541739,
      "d": 184.95939583334257,
      "v": 57
    },
    {
      "midi": 79,
      "hit": false,
      "t": 128843.52814583406,
      "d": 184.95939583334257,
      "v": 68
    },
    {
      "midi": 88,
      "hit": false,
      "t": 128850.64196875073,
      "d": 128.048812500012,
      "v": 68
    },
    {
      "midi": 76,
      "hit": false,
      "t": 128850.64196875073,
      "d": 145.3252395833406,
      "v": 72
    },
    {
      "midi": 73,
      "hit": false,
      "t": 129213.44693750073,
      "d": 127.03255208334303,
      "v": 81
    },
    {
      "midi": 85,
      "hit": false,
      "t": 129215.47945833407,
      "d": 128.048812500012,
      "v": 64
    },
    {
      "midi": 61,
      "hit": false,
      "t": 129222.59328125074,
      "d": 139.2276770833414,
      "v": 86
    },
    {
      "midi": 64,
      "hit": false,
      "t": 129227.67458333407,
      "d": 150.40654166667082,
      "v": 77
    },
    {
      "midi": 55,
      "hit": false,
      "t": 129230.72336458408,
      "d": 116.86994791666802,
      "v": 78
    },
    {
      "midi": 82,
      "hit": false,
      "t": 129233.77214583408,
      "d": 24.39024999999674,
      "v": 30
    },
    {
      "midi": 55,
      "hit": false,
      "t": 129884.17881250074,
      "d": 78.252052083335,
      "v": 68
    },
    {
      "midi": 61,
      "hit": false,
      "t": 129885.19507291741,
      "d": 90.44717708334792,
      "v": 84
    },
    {
      "midi": 79,
      "hit": false,
      "t": 129886.21133333408,
      "d": 84.34961458333419,
      "v": 90
    },
    {
      "midi": 64,
      "hit": false,
      "t": 129886.21133333408,
      "d": 105.69108333335316,
      "v": 79
    },
    {
      "midi": 82,
      "hit": false,
      "t": 129887.22759375075,
      "d": 86.3821354166721,
      "v": 92
    },
    {
      "midi": 74,
      "hit": false,
      "t": 129888.24385416742,
      "d": 68.08944791665999,
      "v": 84
    },
    {
      "midi": 86,
      "hit": false,
      "t": 129888.24385416742,
      "d": 102.6423020833463,
      "v": 79
    },
    {
      "midi": 88,
      "hit": false,
      "t": 130191.0894583341,
      "d": 87.39839583334106,
      "v": 61
    },
    {
      "midi": 61,
      "hit": false,
      "t": 130192.10571875077,
      "d": 99.59352083333943,
      "v": 69
    },
    {
      "midi": 64,
      "hit": false,
      "t": 130192.10571875077,
      "d": 109.75612499999988,
      "v": 61
    },
    {
      "midi": 55,
      "hit": false,
      "t": 130193.12197916744,
      "d": 79.26831250000396,
      "v": 62
    },
    {
      "midi": 76,
      "hit": false,
      "t": 130194.1382395841,
      "d": 75.20327083332813,
      "v": 74
    },
    {
      "midi": 61,
      "hit": false,
      "t": 130414.66675000078,
      "d": 91.46343750001688,
      "v": 61
    },
    {
      "midi": 64,
      "hit": false,
      "t": 130423.81309375078,
      "d": 95.52847916667815,
      "v": 49
    },
    {
      "midi": 77,
      "hit": false,
      "t": 130424.82935416745,
      "d": 70.12196875001246,
      "v": 66
    },
    {
      "midi": 55,
      "hit": false,
      "t": 130430.92691666745,
      "d": 60.9756250000064,
      "v": 49
    },
    {
      "midi": 89,
      "hit": false,
      "t": 130431.94317708412,
      "d": 67.07318750000559,
      "v": 73
    },
    {
      "midi": 88,
      "hit": false,
      "t": 130640.27656250079,
      "d": 181.9106145833357,
      "v": 72
    },
    {
      "midi": 76,
      "hit": false,
      "t": 130641.29282291746,
      "d": 208.33338541667035,
      "v": 88
    },
    {
      "midi": 64,
      "hit": false,
      "t": 130655.5204687508,
      "d": 221.54477083332313,
      "v": 51
    },
    {
      "midi": 61,
      "hit": false,
      "t": 130662.63429166746,
      "d": 203.25208333332557,
      "v": 54
    },
    {
      "midi": 55,
      "hit": false,
      "t": 130678.89445833412,
      "d": 165.65044791667606,
      "v": 45
    },
    {
      "midi": 61,
      "hit": false,
      "t": 131011.21161458411,
      "d": 211.38216666664812,
      "v": 49
    },
    {
      "midi": 64,
      "hit": false,
      "t": 131014.26039583412,
      "d": 228.65859374996217,
      "v": 44
    },
    {
      "midi": 55,
      "hit": false,
      "t": 131019.34169791745,
      "d": 190.04069791665825,
      "v": 42
    },
    {
      "midi": 73,
      "hit": false,
      "t": 131038.65064583412,
      "d": 137.19515624998894,
      "v": 77
    },
    {
      "midi": 85,
      "hit": false,
      "t": 131042.71568750078,
      "d": 136.17889583331998,
      "v": 79
    },
    {
      "midi": 61,
      "hit": false,
      "t": 131752.06545833408,
      "d": 151.42280208331067,
      "v": 75
    },
    {
      "midi": 64,
      "hit": false,
      "t": 131753.08171875073,
      "d": 160.56914583331672,
      "v": 66
    },
    {
      "midi": 74,
      "hit": false,
      "t": 131754.0979791674,
      "d": 79.26831250000396,
      "v": 73
    },
    {
      "midi": 86,
      "hit": false,
      "t": 131754.0979791674,
      "d": 94.51221874999464,
      "v": 66
    },
    {
      "midi": 55,
      "hit": false,
      "t": 131758.16302083406,
      "d": 80.28457291665836,
      "v": 55
    },
    {
      "midi": 88,
      "hit": false,
      "t": 132075.23627083405,
      "d": 94.51221874999464,
      "v": 75
    },
    {
      "midi": 76,
      "hit": false,
      "t": 132076.2525312507,
      "d": 68.08944791665999,
      "v": 68
    },
    {
      "midi": 64,
      "hit": false,
      "t": 132076.2525312507,
      "d": 387.19521874998463,
      "v": 49
    },
    {
      "midi": 61,
      "hit": false,
      "t": 132077.26879166736,
      "d": 173.7805312500277,
      "v": 43
    },
    {
      "midi": 55,
      "hit": false,
      "t": 132077.26879166736,
      "d": 405.48790624999674,
      "v": 41
    },
    {
      "midi": 89,
      "hit": false,
      "t": 132328.28511458405,
      "d": 112.80490624997765,
      "v": 73
    },
    {
      "midi": 77,
      "hit": false,
      "t": 132332.35015625073,
      "d": 100.60978124997928,
      "v": 70
    },
    {
      "midi": 61,
      "hit": false,
      "t": 132342.5127604174,
      "d": 119.91872916664579,
      "v": 21
    },
    {
      "midi": 62,
      "hit": false,
      "t": 132682.9600000007,
      "d": 655.487968750007,
      "v": 49
    },
    {
      "midi": 76,
      "hit": false,
      "t": 132694.13886458403,
      "d": 571.1383541666728,
      "v": 61
    },
    {
      "midi": 88,
      "hit": false,
      "t": 132695.1551250007,
      "d": 412.601729166694,
      "v": 65
    },
    {
      "midi": 53,
      "hit": false,
      "t": 132695.1551250007,
      "d": 519.309072916687,
      "v": 50
    },
    {
      "midi": 57,
      "hit": false,
      "t": 132701.2526875007,
      "d": 448.1708437500056,
      "v": 52
    },
    {
      "midi": 53,
      "hit": false,
      "t": 133610.80576041737,
      "d": 215.44720833332394,
      "v": 45
    },
    {
      "midi": 57,
      "hit": false,
      "t": 133682.9602500007,
      "d": 246.95128124998882,
      "v": 59
    },
    {
      "midi": 74,
      "hit": false,
      "t": 133686.0090312507,
      "d": 222.56103124999208,
      "v": 46
    },
    {
      "midi": 62,
      "hit": false,
      "t": 133742.91961458404,
      "d": 288.61795833331416,
      "v": 62
    },
    {
      "midi": 77,
      "hit": false,
      "t": 133763.24482291736,
      "d": 195.12200000000303,
      "v": 69
    },
    {
      "midi": 81,
      "hit": false,
      "t": 133802.87897916735,
      "d": 163.61792708333815,
      "v": 52
    },
    {
      "midi": 86,
      "hit": false,
      "t": 133819.13914583402,
      "d": 139.2276770833414,
      "v": 66
    },
    {
      "midi": 53,
      "hit": false,
      "t": 134010.19610416735,
      "d": 155.4878437500156,
      "v": 44
    },
    {
      "midi": 57,
      "hit": false,
      "t": 134089.46441666735,
      "d": 79.26831250000396,
      "v": 48
    },
    {
      "midi": 62,
      "hit": false,
      "t": 134151.45630208403,
      "d": 104.6748229166842,
      "v": 58
    },
    {
      "midi": 65,
      "hit": false,
      "t": 134230.72461458403,
      "d": 63.00814583335887,
      "v": 48
    },
    {
      "midi": 69,
      "hit": false,
      "t": 134311.00918750072,
      "d": 60.97562499999185,
      "v": 30
    },
    {
      "midi": 74,
      "hit": false,
      "t": 134345.56204166738,
      "d": 67.07318750000559,
      "v": 68
    },
    {
      "midi": 65,
      "hit": false,
      "t": 134449.22060416738,
      "d": 135.16263541666558,
      "v": 56
    },
    {
      "midi": 69,
      "hit": false,
      "t": 134484.78971875072,
      "d": 172.7642708333151,
      "v": 53
    },
    {
      "midi": 74,
      "hit": false,
      "t": 134592.51332291737,
      "d": 122.96751041666721,
      "v": 75
    },
    {
      "midi": 77,
      "hit": false,
      "t": 134669.74911458403,
      "d": 151.42280208333977,
      "v": 54
    },
    {
      "midi": 81,
      "hit": false,
      "t": 134785.60280208403,
      "d": 92.47969791665673,
      "v": 63
    },
    {
      "midi": 86,
      "hit": false,
      "t": 134853.6922500007,
      "d": 81.30083333334187,
      "v": 90
    },
    {
      "midi": 57,
      "hit": false,
      "t": 136423.8145937507,
      "d": 904.4717708333337,
      "v": 84
    },
    {
      "midi": 60,
      "hit": false,
      "t": 136517.310552084,
      "d": 804.8782500000088,
      "v": 83
    },
    {
      "midi": 64,
      "hit": false,
      "t": 136593.53008333402,
      "d": 814.0245937500149,
      "v": 119
    },
    {
      "midi": 57,
      "hit": false,
      "t": 137457.3514375007,
      "d": 527.4391562500386,
      "v": 72
    },
    {
      "midi": 60,
      "hit": false,
      "t": 137514.26202083405,
      "d": 447.1545833333512,
      "v": 102
    },
    {
      "midi": 64,
      "hit": false,
      "t": 137627.06692708406,
      "d": 132.11385416667326,
      "v": 127
    },
    {
      "midi": 64,
      "hit": false,
      "t": 137855.72552083406,
      "d": 83.33335416667978,
      "v": 99
    },
    {
      "midi": 69,
      "hit": false,
      "t": 138082.35159375073,
      "d": 104.6748229166551,
      "v": 105
    },
    {
      "midi": 72,
      "hit": false,
      "t": 138249.01830208406,
      "d": 125.00003125000512,
      "v": 127
    },
    {
      "midi": 57,
      "hit": false,
      "t": 138429.91265625073,
      "d": 785.5693020833714,
      "v": 53
    },
    {
      "midi": 60,
      "hit": false,
      "t": 138449.2216041674,
      "d": 768.2928750000428,
      "v": 73
    },
    {
      "midi": 64,
      "hit": false,
      "t": 138544.75008333407,
      "d": 769.3091354166972,
      "v": 59
    },
    {
      "midi": 72,
      "hit": false,
      "t": 138607.7582291674,
      "d": 203.25208333335468,
      "v": 73
    },
    {
      "midi": 76,
      "hit": false,
      "t": 138618.93709375075,
      "d": 371.95131250002305,
      "v": 112
    },
    {
      "midi": 72,
      "hit": false,
      "t": 138921.78269791743,
      "d": 699.1871666666993,
      "v": 115
    },
    {
      "midi": 57,
      "hit": false,
      "t": 139451.25437500078,
      "d": 596.5448645833239,
      "v": 63
    },
    {
      "midi": 60,
      "hit": false,
      "t": 139466.49828125077,
      "d": 534.5529791666777,
      "v": 79
    },
    {
      "midi": 64,
      "hit": false,
      "t": 139565.07554166744,
      "d": 396.3415625000198,
      "v": 79
    },
    {
      "midi": 69,
      "hit": false,
      "t": 139576.25440625078,
      "d": 250.00006250001024,
      "v": 99
    },
    {
      "midi": 77,
      "hit": false,
      "t": 139850.6447187508,
      "d": 317.07324999998673,
      "v": 99
    },
    {
      "midi": 76,
      "hit": false,
      "t": 140109.79112500077,
      "d": 448.1708437500347,
      "v": 97
    },
    {
      "midi": 52,
      "hit": false,
      "t": 140338.44971875078,
      "d": 1881.0980312500033,
      "v": 33
    },
    {
      "midi": 56,
      "hit": false,
      "t": 140387.2302187508,
      "d": 648.3741458333388,
      "v": 42
    },
    {
      "midi": 74,
      "hit": false,
      "t": 140457.3521875008,
      "d": 512.1952500000189,
      "v": 102
    },
    {
      "midi": 59,
      "hit": false,
      "t": 140459.38470833414,
      "d": 845.5286666666798,
      "v": 53
    },
    {
      "midi": 71,
      "hit": false,
      "t": 140945.15718750082,
      "d": 516.2602916666656,
      "v": 105
    },
    {
      "midi": 56,
      "hit": false,
      "t": 141384.18168750082,
      "d": 429.8781562499644,
      "v": 61
    },
    {
      "midi": 59,
      "hit": false,
      "t": 141476.66138541748,
      "d": 811.9920729166479,
      "v": 57
    },
    {
      "midi": 69,
      "hit": false,
      "t": 141516.29554166747,
      "d": 116.86994791665347,
      "v": 88
    },
    {
      "midi": 68,
      "hit": false,
      "t": 141815.07610416744,
      "d": 328.2521145833307,
      "v": 115
    },
    {
      "midi": 56,
      "hit": false,
      "t": 141986.8241145841,
      "d": 252.03258333334816,
      "v": 42
    },
    {
      "midi": 70,
      "hit": false,
      "t": 142132.14935416743,
      "d": 111.78864583335235,
      "v": 94
    },
    {
      "midi": 71,
      "hit": false,
      "t": 142250.0355625008,
      "d": 296.7480416666949,
      "v": 79
    },
    {
      "midi": 60,
      "hit": false,
      "t": 142485.80797916747,
      "d": 389.22773958338075,
      "v": 61
    },
    {
      "midi": 57,
      "hit": false,
      "t": 142510.19822916746,
      "d": 350.60984375004773,
      "v": 53
    },
    {
      "midi": 69,
      "hit": false,
      "t": 142528.49091666748,
      "d": 285.56917708335095,
      "v": 105
    },
    {
      "midi": 64,
      "hit": false,
      "t": 142820.15765625084,
      "d": 130.08133333333535,
      "v": 57
    },
    {
      "midi": 69,
      "hit": false,
      "t": 142929.91378125086,
      "d": 131.09759374998976,
      "v": 59
    },
    {
      "midi": 72,
      "hit": false,
      "t": 143016.2959166675,
      "d": 102.6423020833463,
      "v": 54
    },
    {
      "midi": 76,
      "hit": false,
      "t": 143125.03578125086,
      "d": 40.650416666670935,
      "v": 35
    },
    {
      "midi": 69,
      "hit": false,
      "t": 143162.63741666754,
      "d": 104.6748229166551,
      "v": 54
    },
    {
      "midi": 72,
      "hit": false,
      "t": 143205.32035416752,
      "d": 129.06507291668095,
      "v": 42
    },
    {
      "midi": 76,
      "hit": false,
      "t": 143296.78379166752,
      "d": 85.3658750000177,
      "v": 77
    },
    {
      "midi": 84,
      "hit": false,
      "t": 143423.81634375086,
      "d": 132.11385416667326,
      "v": 83
    },
    {
      "midi": 88,
      "hit": false,
      "t": 143505.1171770842,
      "d": 101.62604166666279,
      "v": 50
    },
    {
      "midi": 93,
      "hit": false,
      "t": 143533.57246875088,
      "d": 126.01629166665953,
      "v": 88
    },
    {
      "midi": 52,
      "hit": false,
      "t": 160559.9994895842,
      "d": 583.3334791666712,
      "v": 39
    },
    {
      "midi": 64,
      "hit": false,
      "t": 160574.22713541755,
      "d": 420.7318124999874,
      "v": 81
    },
    {
      "midi": 76,
      "hit": false,
      "t": 160582.35721875087,
      "d": 399.3903437500121,
      "v": 102
    },
    {
      "midi": 53,
      "hit": false,
      "t": 161063.0483958342,
      "d": 413.6179895833484,
      "v": 105
    },
    {
      "midi": 65,
      "hit": false,
      "t": 161112.84515625087,
      "d": 100.60978125000838,
      "v": 74
    },
    {
      "midi": 77,
      "hit": false,
      "t": 161117.9264583342,
      "d": 136.1788958333491,
      "v": 115
    },
    {
      "midi": 54,
      "hit": false,
      "t": 161597.60137500087,
      "d": 88.41465624998091,
      "v": 68
    },
    {
      "midi": 66,
      "hit": false,
      "t": 161605.7314583342,
      "d": 71.13822916665231,
      "v": 86
    },
    {
      "midi": 78,
      "hit": false,
      "t": 161606.74771875085,
      "d": 85.3658750000177,
      "v": 84
    },
    {
      "midi": 53,
      "hit": false,
      "t": 162039.6746562509,
      "d": 776.4229583333072,
      "v": 30
    },
    {
      "midi": 59,
      "hit": false,
      "t": 162074.22751041755,
      "d": 761.1790520833165,
      "v": 48
    },
    {
      "midi": 67,
      "hit": false,
      "t": 162131.1380937509,
      "d": 741.87010416665,
      "v": 86
    },
    {
      "midi": 62,
      "hit": false,
      "t": 162132.15435416755,
      "d": 751.0164479166851,
      "v": 55
    },
    {
      "midi": 71,
      "hit": false,
      "t": 162175.8535520842,
      "d": 724.5936770833505,
      "v": 67
    },
    {
      "midi": 74,
      "hit": false,
      "t": 162219.55275000088,
      "d": 684.9595208333631,
      "v": 55
    },
    {
      "midi": 79,
      "hit": false,
      "t": 162245.9755208342,
      "d": 631.0977187500102,
      "v": 88
    },
    {
      "midi": 59,
      "hit": false,
      "t": 163043.73994791758,
      "d": 115.85368749994086,
      "v": 69
    },
    {
      "midi": 62,
      "hit": false,
      "t": 163046.78872916757,
      "d": 147.35776041663485,
      "v": 54
    },
    {
      "midi": 74,
      "hit": false,
      "t": 163051.8700312509,
      "d": 96.54473958330345,
      "v": 92
    },
    {
      "midi": 71,
      "hit": false,
      "t": 163052.88629166756,
      "d": 96.54473958330345,
      "v": 99
    },
    {
      "midi": 53,
      "hit": false,
      "t": 163061.01637500088,
      "d": 102.64230208331719,
      "v": 66
    },
    {
      "midi": 79,
      "hit": false,
      "t": 163061.01637500088,
      "d": 118.90246874999139,
      "v": 75
    },
    {
      "midi": 67,
      "hit": false,
      "t": 163062.03263541753,
      "d": 106.70734374999302,
      "v": 92
    },
    {
      "midi": 74,
      "hit": false,
      "t": 163304.91887500088,
      "d": 49.796760416647885,
      "v": 90
    },
    {
      "midi": 79,
      "hit": false,
      "t": 163304.91887500088,
      "d": 78.25205208332045,
      "v": 81
    },
    {
      "midi": 71,
      "hit": false,
      "t": 163305.93513541753,
      "d": 45.731718750001164,
      "v": 92
    },
    {
      "midi": 67,
      "hit": false,
      "t": 163306.95139583418,
      "d": 45.731718750001164,
      "v": 68
    },
    {
      "midi": 59,
      "hit": false,
      "t": 163313.0489583342,
      "d": 75.20327083332813,
      "v": 63
    },
    {
      "midi": 62,
      "hit": false,
      "t": 163319.1465208342,
      "d": 88.41465624998091,
      "v": 52
    },
    {
      "midi": 53,
      "hit": false,
      "t": 163320.16278125087,
      "d": 76.21953124998254,
      "v": 48
    },
    {
      "midi": 71,
      "hit": false,
      "t": 163528.49616666752,
      "d": 35.5691145833116,
      "v": 66
    },
    {
      "midi": 83,
      "hit": false,
      "t": 163529.51242708418,
      "d": 54.878062499978114,
      "v": 84
    },
    {
      "midi": 74,
      "hit": false,
      "t": 163702.2766979175,
      "d": 49.79676041667699,
      "v": 73
    },
    {
      "midi": 86,
      "hit": false,
      "t": 163709.39052083416,
      "d": 56.91058333334513,
      "v": 69
    },
    {
      "midi": 53,
      "hit": false,
      "t": 163911.62634375083,
      "d": 289.6342187500268,
      "v": 48
    },
    {
      "midi": 77,
      "hit": false,
      "t": 163929.91903125084,
      "d": 190.0406979166728,
      "v": 78
    },
    {
      "midi": 59,
      "hit": false,
      "t": 163933.98407291752,
      "d": 276.4228333333449,
      "v": 53
    },
    {
      "midi": 81,
      "hit": false,
      "t": 163983.7808333342,
      "d": 162.60166666665464,
      "v": 69
    },
    {
      "midi": 62,
      "hit": false,
      "t": 163984.79709375085,
      "d": 248.98380208335584,
      "v": 51
    },
    {
      "midi": 84,
      "hit": false,
      "t": 164051.87028125086,
      "d": 96.54473958333256,
      "v": 56
    },
    {
      "midi": 89,
      "hit": false,
      "t": 164084.39061458418,
      "d": 75.20327083335724,
      "v": 68
    },
    {
      "midi": 74,
      "hit": false,
      "t": 164307.96790625088,
      "d": 82.31709374999627,
      "v": 75
    },
    {
      "midi": 62,
      "hit": false,
      "t": 164322.19555208422,
      "d": 140.2439375000249,
      "v": 55
    },
    {
      "midi": 86,
      "hit": false,
      "t": 164333.37441666756,
      "d": 63.00814583332976,
      "v": 81
    },
    {
      "midi": 59,
      "hit": false,
      "t": 164334.39067708421,
      "d": 78.25205208334955,
      "v": 45
    },
    {
      "midi": 53,
      "hit": false,
      "t": 164334.39067708421,
      "d": 89.43091666669352,
      "v": 48
    },
    {
      "midi": 53,
      "hit": false,
      "t": 164799.83794791758,
      "d": 266.26022916665534,
      "v": 51
    },
    {
      "midi": 59,
      "hit": false,
      "t": 164847.60218750092,
      "d": 255.08136458331137,
      "v": 40
    },
    {
      "midi": 62,
      "hit": false,
      "t": 164917.72415625092,
      "d": 200.20330208330415,
      "v": 70
    },
    {
      "midi": 83,
      "hit": false,
      "t": 164927.88676041758,
      "d": 82.31709374999627,
      "v": 86
    },
    {
      "midi": 71,
      "hit": false,
      "t": 164927.88676041758,
      "d": 83.33335416665068,
      "v": 68
    },
    {
      "midi": 79,
      "hit": false,
      "t": 165270.3665208342,
      "d": 91.46343749997322,
      "v": 88
    },
    {
      "midi": 67,
      "hit": false,
      "t": 165271.38278125087,
      "d": 76.21953124998254,
      "v": 90
    },
    {
      "midi": 62,
      "hit": false,
      "t": 165279.5128645842,
      "d": 358.73992708331207,
      "v": 39
    },
    {
      "midi": 59,
      "hit": false,
      "t": 165291.7079895842,
      "d": 137.1951562500035,
      "v": 30
    },
    {
      "midi": 53,
      "hit": false,
      "t": 165295.77303125086,
      "d": 392.27652083331486,
      "v": 30
    },
    {
      "midi": 65,
      "hit": false,
      "t": 165538.6592708342,
      "d": 60.97562499996275,
      "v": 73
    },
    {
      "midi": 77,
      "hit": false,
      "t": 165539.67553125086,
      "d": 86.382135416643,
      "v": 79
    },
    {
      "midi": 59,
      "hit": false,
      "t": 165540.69179166752,
      "d": 118.90246874999139,
      "v": 32
    },
    {
      "midi": 69,
      "hit": false,
      "t": 165808.9845416675,
      "d": 658.5367500000284,
      "v": 62
    },
    {
      "midi": 52,
      "hit": false,
      "t": 165870.97642708418,
      "d": 621.9513750000042,
      "v": 51
    },
    {
      "midi": 60,
      "hit": false,
      "t": 165870.97642708418,
      "d": 714.4310729166609,
      "v": 54
    },
    {
      "midi": 55,
      "hit": false,
      "t": 165871.99268750084,
      "d": 617.8863333333575,
      "v": 58
    },
    {
      "midi": 81,
      "hit": false,
      "t": 165942.11465625084,
      "d": 384.1464375000214,
      "v": 77
    },
    {
      "midi": 52,
      "hit": false,
      "t": 166742.92786458417,
      "d": 745.9351458333258,
      "v": 46
    },
    {
      "midi": 55,
      "hit": false,
      "t": 166756.13925000082,
      "d": 481.7074375000084,
      "v": 56
    },
    {
      "midi": 67,
      "hit": false,
      "t": 166831.34252083415,
      "d": 588.4147812500014,
      "v": 68
    },
    {
      "midi": 60,
      "hit": false,
      "t": 166837.44008333416,
      "d": 440.04076041665394,
      "v": 61
    },
    {
      "midi": 72,
      "hit": false,
      "t": 166902.48075000083,
      "d": 544.7155833333381,
      "v": 79
    },
    {
      "midi": 76,
      "hit": false,
      "t": 166938.04986458417,
      "d": 505.0814270833216,
      "v": 53
    },
    {
      "midi": 79,
      "hit": false,
      "t": 166974.63523958417,
      "d": 430.8944166666479,
      "v": 84
    },
    {
      "midi": 55,
      "hit": false,
      "t": 167357.76541666748,
      "d": 150.40654166668537,
      "v": 56
    },
    {
      "midi": 60,
      "hit": false,
      "t": 167467.5215416675,
      "d": 100.60978125000838,
      "v": 69
    },
    {
      "midi": 67,
      "hit": false,
      "t": 167543.7410729175,
      "d": 102.64230208331719,
      "v": 66
    },
    {
      "midi": 72,
      "hit": false,
      "t": 167611.83052083416,
      "d": 103.6585625000007,
      "v": 38
    },
    {
      "midi": 76,
      "hit": false,
      "t": 167696.1801354175,
      "d": 71.13822916665231,
      "v": 53
    },
    {
      "midi": 76,
      "hit": false,
      "t": 167942.1151562508,
      "d": 48.78049999999348,
      "v": 74
    },
    {
      "midi": 79,
      "hit": false,
      "t": 167968.53792708414,
      "d": 142.27645833333372,
      "v": 77
    },
    {
      "midi": 84,
      "hit": false,
      "t": 168067.1151875008,
      "d": 147.35776041663485,
      "v": 55
    },
    {
      "midi": 88,
      "hit": false,
      "t": 168135.20463541747,
      "d": 119.91872916664579,
      "v": 47
    },
    {
      "midi": 91,
      "hit": false,
      "t": 168181.95261458412,
      "d": 91.46343750000233,
      "v": 66
    },
    {
      "midi": 52,
      "hit": false,
      "t": 168686.0177812508,
      "d": 611.7887708333146,
      "v": 18
    },
    {
      "midi": 55,
      "hit": false,
      "t": 168687.03404166744,
      "d": 582.3172187499877,
      "v": 19
    },
    {
      "midi": 53,
      "hit": false,
      "t": 169636.2212708341,
      "d": 840.4473645833496,
      "v": 40
    },
    {
      "midi": 59,
      "hit": false,
      "t": 169656.54647916745,
      "d": 794.7156458333193,
      "v": 46
    },
    {
      "midi": 67,
      "hit": false,
      "t": 169708.37576041743,
      "d": 738.8213229166577,
      "v": 66
    },
    {
      "midi": 62,
      "hit": false,
      "t": 169722.60340625077,
      "d": 726.6261979166593,
      "v": 51
    },
    {
      "midi": 71,
      "hit": false,
      "t": 169775.44894791744,
      "d": 669.7156145833142,
      "v": 56
    },
    {
      "midi": 74,
      "hit": false,
      "t": 169826.26196875077,
      "d": 615.8538124999905,
      "v": 45
    },
    {
      "midi": 79,
      "hit": false,
      "t": 169864.8798645841,
      "d": 540.6505416666623,
      "v": 60
    },
    {
      "midi": 52,
      "hit": false,
      "t": 170628.09143750079,
      "d": 386.178958333272,
      "v": 44
    },
    {
      "midi": 56,
      "hit": false,
      "t": 170649.4329062508,
      "d": 325.20333333328017,
      "v": 46
    },
    {
      "midi": 64,
      "hit": false,
      "t": 170731.7500000008,
      "d": 188.00817708330578,
      "v": 66
    },
    {
      "midi": 59,
      "hit": false,
      "t": 170749.0264270841,
      "d": 277.4390937499411,
      "v": 69
    },
    {
      "midi": 68,
      "hit": false,
      "t": 170778.49797916744,
      "d": 160.56914583331672,
      "v": 75
    },
    {
      "midi": 71,
      "hit": false,
      "t": 170839.47360416743,
      "d": 102.64230208331719,
      "v": 59
    },
    {
      "midi": 76,
      "hit": false,
      "t": 170858.7825520841,
      "d": 112.80490624997765,
      "v": 90
    },
    {
      "midi": 56,
      "hit": false,
      "t": 171260.2054166674,
      "d": 92.47969791668584,
      "v": 50
    },
    {
      "midi": 59,
      "hit": false,
      "t": 171266.3029791674,
      "d": 90.44717708334792,
      "v": 46
    },
    {
      "midi": 68,
      "hit": false,
      "t": 171270.36802083408,
      "d": 63.00814583332976,
      "v": 112
    },
    {
      "midi": 80,
      "hit": false,
      "t": 171280.53062500074,
      "d": 65.04066666666768,
      "v": 115
    },
    {
      "midi": 71,
      "hit": false,
      "t": 171463.45750000075,
      "d": 54.878062499978114,
      "v": 99
    },
    {
      "midi": 83,
      "hit": false,
      "t": 171464.4737604174,
      "d": 71.13822916665231,
      "v": 108
    },
    {
      "midi": 56,
      "hit": false,
      "t": 171464.4737604174,
      "d": 84.34961458330508,
      "v": 33
    },
    {
      "midi": 59,
      "hit": false,
      "t": 171467.5225416674,
      "d": 113.82116666663205,
      "v": 33
    },
    {
      "midi": 56,
      "hit": false,
      "t": 171812.03482291737,
      "d": 114.83742708334466,
      "v": 54
    },
    {
      "midi": 59,
      "hit": false,
      "t": 171812.03482291737,
      "d": 143.29271875001723,
      "v": 50
    },
    {
      "midi": 77,
      "hit": false,
      "t": 171813.05108333402,
      "d": 56.91058333334513,
      "v": 59
    },
    {
      "midi": 81,
      "hit": false,
      "t": 171814.06734375068,
      "d": 51.8292812500149,
      "v": 102
    },
    {
      "midi": 52,
      "hit": false,
      "t": 171814.06734375068,
      "d": 114.83742708337377,
      "v": 52
    },
    {
      "midi": 84,
      "hit": false,
      "t": 171818.13238541735,
      "d": 38.61789583333302,
      "v": 88
    },
    {
      "midi": 89,
      "hit": false,
      "t": 171820.1649062507,
      "d": 64.02440625001327,
      "v": 86
    },
    {
      "midi": 88,
      "hit": false,
      "t": 172137.2381562507,
      "d": 52.8455416666111,
      "v": 94
    },
    {
      "midi": 83,
      "hit": false,
      "t": 172138.25441666736,
      "d": 42.68293749995064,
      "v": 108
    },
    {
      "midi": 76,
      "hit": false,
      "t": 172138.25441666736,
      "d": 48.78049999996438,
      "v": 94
    },
    {
      "midi": 59,
      "hit": false,
      "t": 172139.27067708402,
      "d": 82.31709374996717,
      "v": 65
    },
    {
      "midi": 79,
      "hit": false,
      "t": 172140.28693750067,
      "d": 37.601635416649515,
      "v": 99
    },
    {
      "midi": 52,
      "hit": false,
      "t": 172140.28693750067,
      "d": 60.97562499999185,
      "v": 70
    },
    {
      "midi": 56,
      "hit": false,
      "t": 172141.30319791732,
      "d": 73.17074999999022,
      "v": 94
    },
    {
      "midi": 56,
      "hit": false,
      "t": 172687.03504166732,
      "d": 130.08133333330625,
      "v": 97
    },
    {
      "midi": 59,
      "hit": false,
      "t": 172703.295208334,
      "d": 113.82116666663205,
      "v": 74
    },
    {
      "midi": 74,
      "hit": false,
      "t": 172704.31146875065,
      "d": 66.05692708329298,
      "v": 86
    },
    {
      "midi": 86,
      "hit": false,
      "t": 172704.31146875065,
      "d": 94.51221874996554,
      "v": 83
    },
    {
      "midi": 81,
      "hit": false,
      "t": 172705.3277291673,
      "d": 64.02440624998417,
      "v": 108
    },
    {
      "midi": 77,
      "hit": false,
      "t": 172706.34398958395,
      "d": 57.926843749999534,
      "v": 108
    },
    {
      "midi": 52,
      "hit": false,
      "t": 172706.34398958395,
      "d": 74.18701041664463,
      "v": 74
    },
    {
      "midi": 76,
      "hit": false,
      "t": 173030.5310625006,
      "d": 70.1219687499397,
      "v": 83
    },
    {
      "midi": 56,
      "hit": false,
      "t": 173031.54732291726,
      "d": 93.49595833328203,
      "v": 90
    },
    {
      "midi": 79,
      "hit": false,
      "t": 173032.56358333392,
      "d": 57.92684374997043,
      "v": 102
    },
    {
      "midi": 83,
      "hit": false,
      "t": 173032.56358333392,
      "d": 60.97562499996275,
      "v": 112
    },
    {
      "midi": 88,
      "hit": false,
      "t": 173033.57984375057,
      "d": 70.1219687499688,
      "v": 97
    },
    {
      "midi": 52,
      "hit": false,
      "t": 173034.59610416723,
      "d": 74.18701041664463,
      "v": 74
    },
    {
      "midi": 59,
      "hit": false,
      "t": 173034.59610416723,
      "d": 95.52847916664905,
      "v": 73
    },
    {
      "midi": 86,
      "hit": false,
      "t": 173291.70998958388,
      "d": 64.02440624998417,
      "v": 65
    },
    {
      "midi": 59,
      "hit": false,
      "t": 173291.70998958388,
      "d": 99.59352083332487,
      "v": 73
    },
    {
      "midi": 74,
      "hit": false,
      "t": 173292.72625000053,
      "d": 90.44717708334792,
      "v": 90
    },
    {
      "midi": 56,
      "hit": false,
      "t": 173293.74251041719,
      "d": 49.79676041667699,
      "v": 75
    },
    {
      "midi": 52,
      "hit": false,
      "t": 173293.74251041719,
      "d": 64.02440625001327,
      "v": 70
    },
    {
      "midi": 82,
      "hit": false,
      "t": 173299.8400729172,
      "d": 22.357729166658828,
      "v": 68
    },
    {
      "midi": 79,
      "hit": false,
      "t": 173671.7913854172,
      "d": 1068.0896979166428,
      "v": 102
    },
    {
      "midi": 76,
      "hit": false,
      "t": 173672.80764583385,
      "d": 1063.0083958333125,
      "v": 102
    },
    {
      "midi": 73,
      "hit": false,
      "t": 173687.03529166718,
      "d": 1081.3010833333246,
      "v": 86
    },
    {
      "midi": 55,
      "hit": false,
      "t": 173688.05155208384,
      "d": 1158.5368749999907,
      "v": 61
    },
    {
      "midi": 61,
      "hit": false,
      "t": 173688.05155208384,
      "d": 1167.6832187499967,
      "v": 54
    },
    {
      "midi": 85,
      "hit": false,
      "t": 173689.0678125005,
      "d": 1115.853937500011,
      "v": 73
    },
    {
      "midi": 64,
      "hit": false,
      "t": 173689.0678125005,
      "d": 1246.9515312500007,
      "v": 73
    },
    {
      "midi": 55,
      "hit": false,
      "t": 175390.28775000048,
      "d": 1516.2605416666775,
      "v": 53
    },
    {
      "midi": 61,
      "hit": false,
      "t": 175438.05198958382,
      "d": 1507.1141979167005,
      "v": 54
    },
    {
      "midi": 76,
      "hit": false,
      "t": 175499.0276145838,
      "d": 1442.0735312500328,
      "v": 65
    },
    {
      "midi": 64,
      "hit": false,
      "t": 175522.40160416716,
      "d": 1424.7971041667042,
      "v": 63
    },
    {
      "midi": 79,
      "hit": false,
      "t": 175568.13332291716,
      "d": 1366.8702604166756,
      "v": 39
    },
    {
      "midi": 82,
      "hit": false,
      "t": 175614.8813020838,
      "d": 1315.0409791666898,
      "v": 46
    },
    {
      "midi": 88,
      "hit": false,
      "t": 175672.8081458338,
      "d": 1224.5938020833419,
      "v": 52
    },
    {
      "midi": 82,
      "hit": false,
      "t": 177488.8655104172,
      "d": 88.41465624998091,
      "v": 108
    },
    {
      "midi": 79,
      "hit": false,
      "t": 177507.15819791722,
      "d": 60.97562499996275,
      "v": 124
    },
    {
      "midi": 61,
      "hit": false,
      "t": 177507.15819791722,
      "d": 66.05692708329298,
      "v": 108
    },
    {
      "midi": 55,
      "hit": false,
      "t": 177508.17445833387,
      "d": 56.910583333316026,
      "v": 83
    },
    {
      "midi": 76,
      "hit": false,
      "t": 177509.19071875053,
      "d": 61.991885416646255,
      "v": 86
    },
    {
      "midi": 64,
      "hit": false,
      "t": 177509.19071875053,
      "d": 74.18701041667373,
      "v": 81
    },
    {
      "midi": 88,
      "hit": false,
      "t": 177510.20697916718,
      "d": 76.21953125001164,
      "v": 102
    },
    {
      "midi": 85,
      "hit": false,
      "t": 177968.54042708385,
      "d": 66.05692708332208,
      "v": 105
    },
    {
      "midi": 73,
      "hit": false,
      "t": 177969.5566875005,
      "d": 56.910583333316026,
      "v": 108
    },
    {
      "midi": 61,
      "hit": false,
      "t": 177969.5566875005,
      "d": 67.07318750000559,
      "v": 105
    },
    {
      "midi": 64,
      "hit": false,
      "t": 177970.57294791716,
      "d": 77.23579166669515,
      "v": 83
    },
    {
      "midi": 55,
      "hit": false,
      "t": 177973.62172916715,
      "d": 54.87806250000722,
      "v": 84
    },
    {
      "midi": 61,
      "hit": false,
      "t": 178528.49991666718,
      "d": 74.18701041667373,
      "v": 105
    },
    {
      "midi": 64,
      "hit": false,
      "t": 178529.51617708383,
      "d": 77.23579166669515,
      "v": 79
    },
    {
      "midi": 86,
      "hit": false,
      "t": 178529.51617708383,
      "d": 79.26831250003306,
      "v": 108
    },
    {
      "midi": 55,
      "hit": false,
      "t": 178535.61373958385,
      "d": 56.91058333334513,
      "v": 78
    },
    {
      "midi": 74,
      "hit": false,
      "t": 178535.61373958385,
      "d": 65.04066666666768,
      "v": 90
    },
    {
      "midi": 88,
      "hit": false,
      "t": 178871.99593750053,
      "d": 93.49595833331114,
      "v": 105
    },
    {
      "midi": 76,
      "hit": false,
      "t": 178883.17480208387,
      "d": 66.05692708332208,
      "v": 88
    },
    {
      "midi": 61,
      "hit": false,
      "t": 178883.17480208387,
      "d": 72.15448958330671,
      "v": 94
    },
    {
      "midi": 64,
      "hit": false,
      "t": 178884.19106250053,
      "d": 85.36587499998859,
      "v": 83
    },
    {
      "midi": 55,
      "hit": false,
      "t": 178888.2561041672,
      "d": 64.02440624998417,
      "v": 67
    },
    {
      "midi": 61,
      "hit": false,
      "t": 179158.5813750005,
      "d": 71.13822916665231,
      "v": 78
    },
    {
      "midi": 89,
      "hit": false,
      "t": 179158.5813750005,
      "d": 78.25205208332045,
      "v": 88
    },
    {
      "midi": 64,
      "hit": false,
      "t": 179159.59763541716,
      "d": 82.31709374999627,
      "v": 63
    },
    {
      "midi": 77,
      "hit": false,
      "t": 179160.6138958338,
      "d": 72.15448958333582,
      "v": 86
    },
    {
      "midi": 55,
      "hit": false,
      "t": 179162.64641666715,
      "d": 60.97562499999185,
      "v": 59
    },
    {
      "midi": 76,
      "hit": false,
      "t": 179453.2968958338,
      "d": 159.55288541666232,
      "v": 94
    },
    {
      "midi": 88,
      "hit": false,
      "t": 179462.4432395838,
      "d": 102.6423020833463,
      "v": 97
    },
    {
      "midi": 61,
      "hit": false,
      "t": 179462.4432395838,
      "d": 147.35776041666395,
      "v": 90
    },
    {
      "midi": 64,
      "hit": false,
      "t": 179466.50828125048,
      "d": 149.39028124997276,
      "v": 66
    },
    {
      "midi": 55,
      "hit": false,
      "t": 179473.62210416715,
      "d": 122.96751041666721,
      "v": 77
    },
    {
      "midi": 55,
      "hit": false,
      "t": 179850.65471875045,
      "d": 70.1219687499688,
      "v": 72
    },
    {
      "midi": 61,
      "hit": false,
      "t": 179851.6709791671,
      "d": 78.25205208329135,
      "v": 92
    },
    {
      "midi": 73,
      "hit": false,
      "t": 179852.68723958376,
      "d": 71.13822916665231,
      "v": 105
    },
    {
      "midi": 64,
      "hit": false,
      "t": 179852.68723958376,
      "d": 95.52847916664905,
      "v": 70
    },
    {
      "midi": 85,
      "hit": false,
      "t": 179853.7035000004,
      "d": 73.17074999999022,
      "v": 105
    },
    {
      "midi": 86,
      "hit": false,
      "t": 180444.15080208375,
      "d": 113.82116666663205,
      "v": 105
    },
    {
      "midi": 61,
      "hit": false,
      "t": 180456.34592708375,
      "d": 88.41465624998091,
      "v": 108
    },
    {
      "midi": 74,
      "hit": false,
      "t": 180457.3621875004,
      "d": 68.08944791665999,
      "v": 88
    },
    {
      "midi": 64,
      "hit": false,
      "t": 180457.3621875004,
      "d": 103.6585624999716,
      "v": 78
    },
    {
      "midi": 55,
      "hit": false,
      "t": 180458.37844791706,
      "d": 73.17075000001932,
      "v": 79
    },
    {
      "midi": 88,
      "hit": false,
      "t": 180774.43543750036,
      "d": 109.75612499995623,
      "v": 99
    },
    {
      "midi": 61,
      "hit": false,
      "t": 180775.45169791701,
      "d": 130.08133333330625,
      "v": 79
    },
    {
      "midi": 64,
      "hit": false,
      "t": 180782.56552083368,
      "d": 129.06507291665184,
      "v": 55
    },
    {
      "midi": 55,
      "hit": false,
      "t": 180783.58178125034,
      "d": 104.6748229166551,
      "v": 64
    },
    {
      "midi": 76,
      "hit": false,
      "t": 180784.598041667,
      "d": 79.26831250000396,
      "v": 92
    },
    {
      "midi": 61,
      "hit": false,
      "t": 181049.842010417,
      "d": 105.6910833333095,
      "v": 66
    },
    {
      "midi": 64,
      "hit": false,
      "t": 181061.02087500034,
      "d": 101.62604166663368,
      "v": 54
    },
    {
      "midi": 55,
      "hit": false,
      "t": 181062.037135417,
      "d": 101.62604166663368,
      "v": 66
    },
    {
      "midi": 77,
      "hit": false,
      "t": 181086.427385417,
      "d": 108.73986458330182,
      "v": 92
    },
    {
      "midi": 89,
      "hit": false,
      "t": 181087.44364583364,
      "d": 83.33335416665068,
      "v": 92
    },
    {
      "midi": 57,
      "hit": false,
      "t": 181476.67138541696,
      "d": 509.14646874996834,
      "v": 77
    },
    {
      "midi": 62,
      "hit": false,
      "t": 181477.68764583362,
      "d": 536.5854999999865,
      "v": 60
    },
    {
      "midi": 88,
      "hit": false,
      "t": 181493.9478125003,
      "d": 452.2358854166523,
      "v": 77
    },
    {
      "midi": 79,
      "hit": false,
      "t": 181493.9478125003,
      "d": 495.93508333331556,
      "v": 84
    },
    {
      "midi": 83,
      "hit": false,
      "t": 181494.96407291695,
      "d": 482.7236979166628,
      "v": 88
    },
    {
      "midi": 53,
      "hit": false,
      "t": 181495.9803333336,
      "d": 510.16272916668095,
      "v": 64
    },
    {
      "midi": 76,
      "hit": false,
      "t": 181495.9803333336,
      "d": 522.3578541666793,
      "v": 78
    },
    {
      "midi": 57,
      "hit": false,
      "t": 182205.33010416696,
      "d": 52.84554166669841,
      "v": 79
    },
    {
      "midi": 62,
      "hit": false,
      "t": 182210.4114062503,
      "d": 65.04066666669678,
      "v": 64
    },
    {
      "midi": 77,
      "hit": false,
      "t": 182214.47644791697,
      "d": 39.63415625001653,
      "v": 86
    },
    {
      "midi": 81,
      "hit": false,
      "t": 182216.5089687503,
      "d": 31.50407291666488,
      "v": 94
    },
    {
      "midi": 53,
      "hit": false,
      "t": 182220.57401041698,
      "d": 43.699197916692356,
      "v": 52
    },
    {
      "midi": 86,
      "hit": false,
      "t": 182223.62279166697,
      "d": 38.61789583336213,
      "v": 68
    },
    {
      "midi": 74,
      "hit": false,
      "t": 182232.76913541698,
      "d": 34.5528541666863,
      "v": 50
    },
    {
      "midi": 62,
      "hit": false,
      "t": 182332.36265625033,
      "d": 68.08944791665999,
      "v": 72
    },
    {
      "midi": 57,
      "hit": false,
      "t": 182356.75290625033,
      "d": 29.47155208332697,
      "v": 83
    },
    {
      "midi": 74,
      "hit": false,
      "t": 182356.75290625033,
      "d": 35.569114583340706,
      "v": 78
    },
    {
      "midi": 81,
      "hit": false,
      "t": 182357.76916666699,
      "d": 32.52033333334839,
      "v": 102
    },
    {
      "midi": 53,
      "hit": false,
      "t": 182357.76916666699,
      "d": 36.585375000024214,
      "v": 67
    },
    {
      "midi": 77,
      "hit": false,
      "t": 182358.78542708364,
      "d": 25.40651041668025,
      "v": 90
    },
    {
      "midi": 86,
      "hit": false,
      "t": 182358.78542708364,
      "d": 38.61789583336213,
      "v": 57
    },
    {
      "midi": 86,
      "hit": false,
      "t": 182460.41146875033,
      "d": 391.26026041660225,
      "v": 63
    },
    {
      "midi": 74,
      "hit": false,
      "t": 182461.427729167,
      "d": 462.39848958328366,
      "v": 83
    },
    {
      "midi": 81,
      "hit": false,
      "t": 182462.44398958364,
      "d": 421.7480729166127,
      "v": 108
    },
    {
      "midi": 77,
      "hit": false,
      "t": 182462.44398958364,
      "d": 431.9106770832732,
      "v": 108
    },
    {
      "midi": 62,
      "hit": false,
      "t": 182463.4602500003,
      "d": 470.5285729166353,
      "v": 77
    },
    {
      "midi": 57,
      "hit": false,
      "t": 182464.47651041695,
      "d": 441.05702083330834,
      "v": 88
    },
    {
      "midi": 53,
      "hit": false,
      "t": 182464.47651041695,
      "d": 443.08954166664626,
      "v": 79
    },
    {
      "midi": 53,
      "hit": false,
      "t": 182992.93192708358,
      "d": 90.44717708331882,
      "v": 33
    },
    {
      "midi": 57,
      "hit": false,
      "t": 183027.48478125024,
      "d": 58.94310416665394,
      "v": 48
    },
    {
      "midi": 62,
      "hit": false,
      "t": 183068.1351979169,
      "d": 99.59352083332487,
      "v": 62
    },
    {
      "midi": 65,
      "hit": false,
      "t": 183144.3547291669,
      "d": 80.28457291668747,
      "v": 66
    },
    {
      "midi": 69,
      "hit": false,
      "t": 183213.46043750024,
      "d": 68.08944791665999,
      "v": 33
    },
    {
      "midi": 74,
      "hit": false,
      "t": 183259.19215625024,
      "d": 72.15448958333582,
      "v": 50
    },
    {
      "midi": 65,
      "hit": false,
      "t": 183363.8669791669,
      "d": 93.49595833331114,
      "v": 39
    },
    {
      "midi": 69,
      "hit": false,
      "t": 183396.3873125002,
      "d": 93.49595833334024,
      "v": 53
    },
    {
      "midi": 74,
      "hit": false,
      "t": 183487.85075000022,
      "d": 83.33335416667978,
      "v": 72
    },
    {
      "midi": 77,
      "hit": false,
      "t": 183566.10280208357,
      "d": 119.91872916664579,
      "v": 62
    },
    {
      "midi": 81,
      "hit": false,
      "t": 183623.01338541688,
      "d": 91.46343749997322,
      "v": 64
    },
    {
      "midi": 86,
      "hit": false,
      "t": 183706.34673958353,
      "d": 184.95939583334257,
      "v": 49
    },
    {
      "midi": 81,
      "hit": false,
      "t": 183848.62319791687,
      "d": 202.23582291670027,
      "v": 79
    },
    {
      "midi": 77,
      "hit": false,
      "t": 183967.5256666669,
      "d": 463.4147499999963,
      "v": 59
    },
    {
      "midi": 81,
      "hit": false,
      "t": 184254.1111041669,
      "d": 113.82116666666116,
      "v": 17
    },
    {
      "midi": 53,
      "hit": false,
      "t": 184455.33066666688,
      "d": 527.4391562499804,
      "v": 40
    },
    {
      "midi": 57,
      "hit": false,
      "t": 184554.9241875002,
      "d": 368.90253125000163,
      "v": 30
    },
    {
      "midi": 62,
      "hit": false,
      "t": 184844.5584062502,
      "d": 113.82116666666116,
      "v": 45
    },
    {
      "midi": 57,
      "hit": false,
      "t": 185306.95689583351,
      "d": 714.4310729166609,
      "v": 51
    },
    {
      "midi": 60,
      "hit": false,
      "t": 185336.42844791684,
      "d": 767.2766145833302,
      "v": 39
    },
    {
      "midi": 64,
      "hit": false,
      "t": 185476.67238541684,
      "d": 725.6099374999758,
      "v": 75
    },
    {
      "midi": 57,
      "hit": false,
      "t": 186194.1522395835,
      "d": 725.6099374999758,
      "v": 57
    },
    {
      "midi": 60,
      "hit": false,
      "t": 186267.32298958348,
      "d": 561.9920104166667,
      "v": 102
    },
    {
      "midi": 64,
      "hit": false,
      "t": 186379.1116354168,
      "d": 121.9512500000128,
      "v": 99
    },
    {
      "midi": 64,
      "hit": false,
      "t": 186612.85153125014,
      "d": 77.23579166666605,
      "v": 99
    },
    {
      "midi": 69,
      "hit": false,
      "t": 186834.39630208348,
      "d": 105.6910833333095,
      "v": 99
    },
    {
      "midi": 72,
      "hit": false,
      "t": 186982.7703229168,
      "d": 140.2439374999958,
      "v": 127
    },
    {
      "midi": 57,
      "hit": false,
      "t": 187131.14434375011,
      "d": 894.3091666667024,
      "v": 55
    },
    {
      "midi": 60,
      "hit": false,
      "t": 187160.61589583344,
      "d": 605.6912083333591,
      "v": 67
    },
    {
      "midi": 64,
      "hit": false,
      "t": 187254.11185416678,
      "d": 621.9513750000333,
      "v": 67
    },
    {
      "midi": 72,
      "hit": false,
      "t": 187330.3313854168,
      "d": 191.0569583333272,
      "v": 84
    },
    {
      "midi": 76,
      "hit": false,
      "t": 187335.41268750012,
      "d": 353.65862500001094,
      "v": 115
    },
    {
      "midi": 72,
      "hit": false,
      "t": 187641.3070729168,
      "d": 764.227833333367,
      "v": 105
    },
    {
      "midi": 57,
      "hit": false,
      "t": 188183.99013541683,
      "d": 382.1139166666835,
      "v": 59
    },
    {
      "midi": 60,
      "hit": false,
      "t": 188208.38038541682,
      "d": 324.187072916684,
      "v": 55
    },
    {
      "midi": 64,
      "hit": false,
      "t": 188305.9413854168,
      "d": 230.69111458337284,
      "v": 74
    },
    {
      "midi": 69,
      "hit": false,
      "t": 188369.96579166682,
      "d": 247.96754166667233,
      "v": 102
    },
    {
      "midi": 77,
      "hit": false,
      "t": 188605.7382083335,
      "d": 310.9756875000021,
      "v": 105
    },
    {
      "midi": 76,
      "hit": false,
      "t": 188865.90087500017,
      "d": 478.65865624998696,
      "v": 119
    },
    {
      "midi": 52,
      "hit": false,
      "t": 189075.2505208335,
      "d": 1865.8541249999253,
      "v": 46
    },
    {
      "midi": 56,
      "hit": false,
      "t": 189120.9822395835,
      "d": 674.7969166666444,
      "v": 50
    },
    {
      "midi": 59,
      "hit": false,
      "t": 189231.75462500015,
      "d": 794.7156458333484,
      "v": 64
    },
    {
      "midi": 74,
      "hit": false,
      "t": 189237.85218750016,
      "d": 370.93505208331044,
      "v": 124
    },
    {
      "midi": 71,
      "hit": false,
      "t": 189598.6246354168,
      "d": 558.9432291666744,
      "v": 112
    },
    {
      "midi": 56,
      "hit": false,
      "t": 190113.86866666682,
      "d": 835.366062499932,
      "v": 64
    },
    {
      "midi": 69,
      "hit": false,
      "t": 190177.8930729168,
      "d": 73.17074999999022,
      "v": 77
    },
    {
      "midi": 71,
      "hit": false,
      "t": 190219.55975000013,
      "d": 118.90246874999139,
      "v": 30
    },
    {
      "midi": 59,
      "hit": false,
      "t": 190242.93373958347,
      "d": 776.4229583332781,
      "v": 42
    },
    {
      "midi": 69,
      "hit": false,
      "t": 190312.0394479168,
      "d": 115.85368749999907,
      "v": 119
    },
    {
      "midi": 68,
      "hit": false,
      "t": 190596.59236458346,
      "d": 266.26022916665534,
      "v": 108
    },
    {
      "midi": 70,
      "hit": false,
      "t": 190880.12902083344,
      "d": 111.78864583332324,
      "v": 64
    },
    {
      "midi": 71,
      "hit": false,
      "t": 190996.9989687501,
      "d": 257.1138854166493,
      "v": 94
    },
    {
      "midi": 69,
      "hit": false,
      "t": 191214.47869791675,
      "d": 228.65859374997672,
      "v": 99
    },
    {
      "midi": 57,
      "hit": false,
      "t": 191346.5925520834,
      "d": 196.13826041665743,
      "v": 19
    },
    {
      "midi": 60,
      "hit": false,
      "t": 191457.36493750007,
      "d": 107.72360416664742,
      "v": 66
    },
    {
      "midi": 64,
      "hit": false,
      "t": 191528.50316666672,
      "d": 98.57726041667047,
      "v": 61
    },
    {
      "midi": 69,
      "hit": false,
      "t": 191581.3487083334,
      "d": 119.9187291666749,
      "v": 67
    },
    {
      "midi": 72,
      "hit": false,
      "t": 191652.48693750007,
      "d": 104.6748229166551,
      "v": 69
    },
    {
      "midi": 76,
      "hit": false,
      "t": 191756.14550000007,
      "d": 37.601635416649515,
      "v": 34
    },
    {
      "midi": 69,
      "hit": false,
      "t": 191812.03982291673,
      "d": 49.79676041667699,
      "v": 45
    },
    {
      "midi": 72,
      "hit": false,
      "t": 191836.43007291673,
      "d": 111.78864583335235,
      "v": 92
    },
    {
      "midi": 81,
      "hit": false,
      "t": 192020.37320833342,
      "d": 95.52847916664905,
      "v": 49
    },
    {
      "midi": 84,
      "hit": false,
      "t": 192074.23501041674,
      "d": 118.90246874999139,
      "v": 75
    },
    {
      "midi": 88,
      "hit": false,
      "t": 192156.55210416674,
      "d": 81.30083333331277,
      "v": 44
    },
    {
      "midi": 93,
      "hit": false,
      "t": 192206.3488645834,
      "d": 63.00814583332976,
      "v": 124
    }
  ]
}