{
  "jsonPath": "Rock/Surf Music/The Aqua Velvets/summer-at-dreampoint.json",
  "path": "Rock\\Surf Music\\The Aqua Velvets\\Summer At Dreampoint.mid",
  "name": "Summer At Dreampoint",
  "difficulty": "Advanced",
  "bpm": 120,
  "notes": [
    {
      "midi": 62,
      "hit": false,
      "t": 58681.259999999995,
      "d": 2632.2089062500017,
      "v": 1
    },
    {
      "midi": 69,
      "hit": false,
      "t": 58681.259999999995,
      "d": 2632.2089062500017,
      "v": 1
    },
    {
      "midi": 59,
      "hit": false,
      "t": 61318.619999999995,
      "d": 293.6123437499991,
      "v": 1
    },
    {
      "midi": 67,
      "hit": false,
      "t": 61318.619999999995,
      "d": 334.8210937499971,
      "v": 1
    },
    {
      "midi": 57,
      "hit": false,
      "t": 61648.28999999999,
      "d": 324.5189062499994,
      "v": 1
    },
    {
      "midi": 66,
      "hit": false,
      "t": 61648.28999999999,
      "d": 324.5189062499994,
      "v": 1
    },
    {
      "midi": 59,
      "hit": false,
      "t": 61977.95999999999,
      "d": 654.1889062499977,
      "v": 1
    },
    {
      "midi": 66,
      "hit": false,
      "t": 61977.95999999999,
      "d": 654.1889062499977,
      "v": 1
    },
    {
      "midi": 62,
      "hit": false,
      "t": 62637.29999999999,
      "d": 983.8589062499959,
      "v": 1
    },
    {
      "midi": 69,
      "hit": false,
      "t": 62637.29999999999,
      "d": 983.8589062499959,
      "v": 1
    },
    {
      "midi": 61,
      "hit": false,
      "t": 63626.30999999998,
      "d": 983.8589062500032,
      "v": 1
    },
    {
      "midi": 67,
      "hit": false,
      "t": 63626.30999999998,
      "d": 983.8589062500032,
      "v": 1
    },
    {
      "midi": 62,
      "hit": false,
      "t": 64615.319999999985,
      "d": 324.5189062499994,
      "v": 1
    },
    {
      "midi": 69,
      "hit": false,
      "t": 64615.319999999985,
      "d": 324.5189062499994,
      "v": 1
    },
    {
      "midi": 59,
      "hit": false,
      "t": 64944.98999999998,
      "d": 324.5189062499994,
      "v": 1
    },
    {
      "midi": 66,
      "hit": false,
      "t": 64944.98999999998,
      "d": 324.5189062499994,
      "v": 1
    },
    {
      "midi": 57,
      "hit": false,
      "t": 65274.65999999998,
      "d": 983.8589062500032,
      "v": 1
    },
    {
      "midi": 66,
      "hit": false,
      "t": 65274.65999999998,
      "d": 983.8589062500032,
      "v": 1
    },
    {
      "midi": 59,
      "hit": false,
      "t": 66263.66999999998,
      "d": 324.5189062499994,
      "v": 1
    },
    {
      "midi": 67,
      "hit": false,
      "t": 66263.66999999998,
      "d": 324.5189062499994,
      "v": 1
    },
    {
      "midi": 62,
      "hit": false,
      "t": 66593.33999999998,
      "d": 4939.898906250004,
      "v": 1
    },
    {
      "midi": 69,
      "hit": false,
      "t": 66593.33999999998,
      "d": 4939.898906250004,
      "v": 1
    },
    {
      "midi": 59,
      "hit": false,
      "t": 71538.38999999998,
      "d": 1313.5289062499942,
      "v": 1
    },
    {
      "midi": 67,
      "hit": false,
      "t": 71538.38999999998,
      "d": 1313.5289062499942,
      "v": 1
    },
    {
      "midi": 55,
      "hit": false,
      "t": 72857.06999999998,
      "d": 654.1889062499977,
      "v": 1
    },
    {
      "midi": 62,
      "hit": false,
      "t": 72857.06999999998,
      "d": 654.1889062499977,
      "v": 1
    },
    {
      "midi": 54,
      "hit": false,
      "t": 73516.40999999997,
      "d": 324.5189062499994,
      "v": 1
    },
    {
      "midi": 62,
      "hit": false,
      "t": 73516.40999999997,
      "d": 324.5189062499994,
      "v": 1
    },
    {
      "midi": 52,
      "hit": false,
      "t": 73846.07999999997,
      "d": 2632.2089062500017,
      "v": 1
    },
    {
      "midi": 61,
      "hit": false,
      "t": 73846.07999999997,
      "d": 2632.2089062500017,
      "v": 1
    },
    {
      "midi": 67,
      "hit": false,
      "t": 79780.13999999997,
      "d": 324.5189062499994,
      "v": 1
    },
    {
      "midi": 61,
      "hit": false,
      "t": 79780.13999999997,
      "d": 341.68921875000524,
      "v": 1
    },
    {
      "midi": 62,
      "hit": false,
      "t": 80109.80999999997,
      "d": 1972.8689062500052,
      "v": 1
    },
    {
      "midi": 69,
      "hit": false,
      "t": 80109.80999999997,
      "d": 1972.8689062500052,
      "v": 1
    },
    {
      "midi": 59,
      "hit": false,
      "t": 82087.82999999997,
      "d": 1313.5289062499942,
      "v": 1
    },
    {
      "midi": 67,
      "hit": false,
      "t": 82087.82999999997,
      "d": 1313.5289062499942,
      "v": 1
    },
    {
      "midi": 57,
      "hit": false,
      "t": 83406.50999999997,
      "d": 983.8589062499959,
      "v": 1
    },
    {
      "midi": 66,
      "hit": false,
      "t": 83406.50999999997,
      "d": 983.8589062499959,
      "v": 1
    },
    {
      "midi": 61,
      "hit": false,
      "t": 84395.51999999996,
      "d": 654.1889062499977,
      "v": 1
    },
    {
      "midi": 67,
      "hit": false,
      "t": 84395.51999999996,
      "d": 654.1889062499977,
      "v": 1
    },
    {
      "midi": 61,
      "hit": false,
      "t": 85054.85999999996,
      "d": 324.5189062499994,
      "v": 1
    },
    {
      "midi": 66,
      "hit": false,
      "t": 85054.85999999996,
      "d": 355.42546874999243,
      "v": 1
    },
    {
      "midi": 57,
      "hit": false,
      "t": 85384.52999999996,
      "d": 324.5189062499994,
      "v": 1
    },
    {
      "midi": 57,
      "hit": false,
      "t": 85714.19999999995,
      "d": 324.5189062499994,
      "v": 1
    },
    {
      "midi": 66,
      "hit": false,
      "t": 85714.19999999995,
      "d": 324.5189062499994,
      "v": 1
    },
    {
      "midi": 59,
      "hit": false,
      "t": 86043.86999999995,
      "d": 324.5189062499994,
      "v": 1
    },
    {
      "midi": 67,
      "hit": false,
      "t": 86043.86999999995,
      "d": 324.5189062499994,
      "v": 1
    },
    {
      "midi": 62,
      "hit": false,
      "t": 86373.53999999995,
      "d": 1972.8689062500198,
      "v": 1
    },
    {
      "midi": 69,
      "hit": false,
      "t": 86373.53999999995,
      "d": 1972.8689062500198,
      "v": 1
    },
    {
      "midi": 57,
      "hit": false,
      "t": 88351.55999999997,
      "d": 307.3485937499936,
      "v": 1
    },
    {
      "midi": 66,
      "hit": false,
      "t": 88351.55999999997,
      "d": 362.2935937500006,
      "v": 1
    },
    {
      "midi": 59,
      "hit": false,
      "t": 88681.22999999997,
      "d": 324.5189062499994,
      "v": 1
    },
    {
      "midi": 67,
      "hit": false,
      "t": 88681.22999999997,
      "d": 324.5189062499994,
      "v": 1
    },
    {
      "midi": 62,
      "hit": false,
      "t": 89010.89999999997,
      "d": 1313.5289062499942,
      "v": 1
    },
    {
      "midi": 69,
      "hit": false,
      "t": 89010.89999999997,
      "d": 1313.5289062499942,
      "v": 1
    },
    {
      "midi": 59,
      "hit": false,
      "t": 90329.57999999996,
      "d": 654.1889062499977,
      "v": 1
    },
    {
      "midi": 66,
      "hit": false,
      "t": 90329.57999999996,
      "d": 654.1889062499977,
      "v": 1
    },
    {
      "midi": 57,
      "hit": false,
      "t": 90988.91999999995,
      "d": 307.3485937499936,
      "v": 1
    },
    {
      "midi": 66,
      "hit": false,
      "t": 90988.91999999995,
      "d": 334.8210937499971,
      "v": 1
    },
    {
      "midi": 59,
      "hit": false,
      "t": 91318.58999999995,
      "d": 324.5189062499994,
      "v": 1
    },
    {
      "midi": 67,
      "hit": false,
      "t": 91318.58999999995,
      "d": 324.5189062499994,
      "v": 1
    },
    {
      "midi": 62,
      "hit": false,
      "t": 91648.25999999995,
      "d": 654.1889062499977,
      "v": 1
    },
    {
      "midi": 69,
      "hit": false,
      "t": 91648.25999999995,
      "d": 654.1889062499977,
      "v": 1
    },
    {
      "midi": 57,
      "hit": false,
      "t": 92307.59999999995,
      "d": 324.5189062499994,
      "v": 1
    },
    {
      "midi": 62,
      "hit": false,
      "t": 92307.59999999995,
      "d": 324.5189062499994,
      "v": 1
    },
    {
      "midi": 59,
      "hit": false,
      "t": 92637.26999999995,
      "d": 983.8589062499959,
      "v": 1
    },
    {
      "midi": 66,
      "hit": false,
      "t": 92637.26999999995,
      "d": 983.8589062499959,
      "v": 1
    },
    {
      "midi": 62,
      "hit": false,
      "t": 93626.27999999994,
      "d": 324.5189062499994,
      "v": 1
    },
    {
      "midi": 69,
      "hit": false,
      "t": 93626.27999999994,
      "d": 324.5189062499994,
      "v": 1
    },
    {
      "midi": 55,
      "hit": false,
      "t": 93955.94999999994,
      "d": 324.5189062499994,
      "v": 1
    },
    {
      "midi": 62,
      "hit": false,
      "t": 93955.94999999994,
      "d": 324.5189062499994,
      "v": 1
    },
    {
      "midi": 57,
      "hit": false,
      "t": 94285.61999999994,
      "d": 2632.2089062500017,
      "v": 1
    },
    {
      "midi": 66,
      "hit": false,
      "t": 94285.61999999994,
      "d": 2632.2089062500017,
      "v": 1
    },
    {
      "midi": 64,
      "hit": false,
      "t": 106150.30593749994,
      "d": 2316.2751562500052,
      "v": 1
    },
    {
      "midi": 62,
      "hit": false,
      "t": 108471.73218749995,
      "d": 626.7164062499942,
      "v": 1
    },
    {
      "midi": 61,
      "hit": false,
      "t": 109103.59968749994,
      "d": 310.7826562499977,
      "v": 1
    },
    {
      "midi": 62,
      "hit": false,
      "t": 109419.53343749994,
      "d": 125.34328124999593,
      "v": 1
    },
    {
      "midi": 64,
      "hit": false,
      "t": 109536.29156249993,
      "d": 118.47515625000233,
      "v": 1
    },
    {
      "midi": 62,
      "hit": false,
      "t": 109639.31343749994,
      "d": 135.6454687499936,
      "v": 1
    },
    {
      "midi": 61,
      "hit": false,
      "t": 109749.20343749993,
      "d": 1014.7654687499889,
      "v": 1
    },
    {
      "midi": 64,
      "hit": false,
      "t": 114055.5178125,
      "d": 273.00796875001106,
      "v": 80
    },
    {
      "midi": 57,
      "hit": false,
      "t": 114072.688125,
      "d": 228.36515625000175,
      "v": 99
    },
    {
      "midi": 64,
      "hit": false,
      "t": 114395.49,
      "d": 262.70578124999884,
      "v": 92
    },
    {
      "midi": 59,
      "hit": false,
      "t": 114412.66031250001,
      "d": 248.9695312499971,
      "v": 99
    },
    {
      "midi": 64,
      "hit": false,
      "t": 114721.72593750001,
      "d": 273.0079687499965,
      "v": 80
    },
    {
      "midi": 59,
      "hit": false,
      "t": 114728.59406250001,
      "d": 142.51359375000175,
      "v": 100
    },
    {
      "midi": 61,
      "hit": false,
      "t": 114831.61593750001,
      "d": 128.77734375,
      "v": 88
    },
    {
      "midi": 59,
      "hit": false,
      "t": 114941.50593750001,
      "d": 118.47515624998778,
      "v": 91
    },
    {
      "midi": 57,
      "hit": false,
      "t": 115020.489375,
      "d": 351.99140624998836,
      "v": 66
    },
    {
      "midi": 64,
      "hit": false,
      "t": 115054.83,
      "d": 273.0079687499965,
      "v": 72
    },
    {
      "midi": 59,
      "hit": false,
      "t": 115384.5,
      "d": 578.6395312500099,
      "v": 97
    },
    {
      "midi": 64,
      "hit": false,
      "t": 115401.6703125,
      "d": 578.6395312500099,
      "v": 83
    },
    {
      "midi": 57,
      "hit": false,
      "t": 116012.93343750002,
      "d": 726.3042187500105,
      "v": 99
    },
    {
      "midi": 64,
      "hit": false,
      "t": 116054.14218750002,
      "d": 1107.4851562500116,
      "v": 84
    },
    {
      "midi": 64,
      "hit": false,
      "t": 116706.61406249992,
      "d": 1924.7920312500064,
      "v": 1
    },
    {
      "midi": 66,
      "hit": false,
      "t": 118636.55718749993,
      "d": 678.2273437499971,
      "v": 1
    },
    {
      "midi": 62,
      "hit": false,
      "t": 119319.93562499993,
      "d": 667.9251562499994,
      "v": 1
    },
    {
      "midi": 64,
      "hit": false,
      "t": 119993.01187499992,
      "d": 637.0185937500064,
      "v": 1
    },
    {
      "midi": 61,
      "hit": false,
      "t": 120635.18156249993,
      "d": 678.2273437499971,
      "v": 1
    },
    {
      "midi": 64,
      "hit": false,
      "t": 124604.95781250004,
      "d": 273.00796875001106,
      "v": 80
    },
    {
      "midi": 57,
      "hit": false,
      "t": 124622.12812500005,
      "d": 228.36515625000175,
      "v": 99
    },
    {
      "midi": 64,
      "hit": false,
      "t": 124944.93000000005,
      "d": 262.70578124999884,
      "v": 92
    },
    {
      "midi": 59,
      "hit": false,
      "t": 124962.10031250006,
      "d": 248.9695312499971,
      "v": 99
    },
    {
      "midi": 64,
      "hit": false,
      "t": 125271.16593750006,
      "d": 273.0079687499965,
      "v": 80
    },
    {
      "midi": 59,
      "hit": false,
      "t": 125278.03406250005,
      "d": 142.51359375000175,
      "v": 100
    },
    {
      "midi": 61,
      "hit": false,
      "t": 125381.05593750006,
      "d": 128.77734375,
      "v": 88
    },
    {
      "midi": 59,
      "hit": false,
      "t": 125490.94593750006,
      "d": 118.47515624998778,
      "v": 91
    },
    {
      "midi": 57,
      "hit": false,
      "t": 125569.92937500005,
      "d": 351.99140624998836,
      "v": 66
    },
    {
      "midi": 64,
      "hit": false,
      "t": 125604.27000000005,
      "d": 273.0079687499965,
      "v": 72
    },
    {
      "midi": 59,
      "hit": false,
      "t": 125933.94000000005,
      "d": 578.6395312500099,
      "v": 97
    },
    {
      "midi": 64,
      "hit": false,
      "t": 125951.11031250005,
      "d": 578.6395312500099,
      "v": 83
    },
    {
      "midi": 57,
      "hit": false,
      "t": 126562.37343750006,
      "d": 726.3042187500105,
      "v": 99
    },
    {
      "midi": 64,
      "hit": false,
      "t": 126603.58218750007,
      "d": 1107.4851562500116,
      "v": 84
    },
    {
      "midi": 69,
      "hit": false,
      "t": 127249.18593749992,
      "d": 681.6614062500012,
      "v": 1
    },
    {
      "midi": 61,
      "hit": false,
      "t": 127935.99843749992,
      "d": 637.0185937500064,
      "v": 1
    },
    {
      "midi": 69,
      "hit": false,
      "t": 128578.16812499992,
      "d": 647.3207812500041,
      "v": 1
    },
    {
      "midi": 68,
      "hit": false,
      "t": 129230.63999999993,
      "d": 633.5845312500023,
      "v": 1
    },
    {
      "midi": 66,
      "hit": false,
      "t": 129869.37562499993,
      "d": 341.68921875000524,
      "v": 1
    },
    {
      "midi": 64,
      "hit": false,
      "t": 130216.21593749993,
      "d": 664.4910937499953,
      "v": 1
    },
    {
      "midi": 62,
      "hit": false,
      "t": 130885.85812499993,
      "d": 976.9907812499878,
      "v": 1
    },
    {
      "midi": 64,
      "hit": false,
      "t": 137781.45562499992,
      "d": 2302.5389062500035,
      "v": 1
    },
    {
      "midi": 62,
      "hit": false,
      "t": 140089.14562499992,
      "d": 650.7548437500081,
      "v": 1
    },
    {
      "midi": 61,
      "hit": false,
      "t": 140745.05156249992,
      "d": 348.55734374999884,
      "v": 1
    },
    {
      "midi": 64,
      "hit": false,
      "t": 141098.75999999992,
      "d": 159.68390624999302,
      "v": 1
    },
    {
      "midi": 62,
      "hit": false,
      "t": 141239.55656249993,
      "d": 166.55203125000116,
      "v": 1
    },
    {
      "midi": 61,
      "hit": false,
      "t": 141366.61687499992,
      "d": 1045.6720312499965,
      "v": 1
    },
    {
      "midi": 62,
      "hit": false,
      "t": 148351.4999999999,
      "d": 2632.2089062500163,
      "v": 1
    },
    {
      "midi": 69,
      "hit": false,
      "t": 148351.4999999999,
      "d": 2632.2089062500163,
      "v": 1
    },
    {
      "midi": 59,
      "hit": false,
      "t": 150988.85999999993,
      "d": 293.61234374999185,
      "v": 1
    },
    {
      "midi": 67,
      "hit": false,
      "t": 150988.85999999993,
      "d": 334.82109374998254,
      "v": 1
    },
    {
      "midi": 57,
      "hit": false,
      "t": 151318.5299999999,
      "d": 324.51890624998487,
      "v": 1
    },
    {
      "midi": 66,
      "hit": false,
      "t": 151318.5299999999,
      "d": 324.51890624998487,
      "v": 1
    },
    {
      "midi": 59,
      "hit": false,
      "t": 151648.1999999999,
      "d": 654.1889062499977,
      "v": 1
    },
    {
      "midi": 66,
      "hit": false,
      "t": 151648.1999999999,
      "d": 654.1889062499977,
      "v": 1
    },
    {
      "midi": 62,
      "hit": false,
      "t": 152307.5399999999,
      "d": 983.8589062499814,
      "v": 1
    },
    {
      "midi": 69,
      "hit": false,
      "t": 152307.5399999999,
      "d": 983.8589062499814,
      "v": 1
    },
    {
      "midi": 61,
      "hit": false,
      "t": 153296.54999999987,
      "d": 983.8589062500105,
      "v": 1
    },
    {
      "midi": 67,
      "hit": false,
      "t": 153296.54999999987,
      "d": 983.8589062500105,
      "v": 1
    },
    {
      "midi": 62,
      "hit": false,
      "t": 154285.55999999988,
      "d": 324.51890625001397,
      "v": 1
    },
    {
      "midi": 69,
      "hit": false,
      "t": 154285.55999999988,
      "d": 324.51890625001397,
      "v": 1
    },
    {
      "midi": 59,
      "hit": false,
      "t": 154615.2299999999,
      "d": 324.51890625001397,
      "v": 1
    },
    {
      "midi": 66,
      "hit": false,
      "t": 154615.2299999999,
      "d": 324.51890625001397,
      "v": 1
    },
    {
      "midi": 57,
      "hit": false,
      "t": 154944.8999999999,
      "d": 983.8589062500105,
      "v": 1
    },
    {
      "midi": 66,
      "hit": false,
      "t": 154944.8999999999,
      "d": 983.8589062500105,
      "v": 1
    },
    {
      "midi": 59,
      "hit": false,
      "t": 155933.90999999992,
      "d": 324.51890625001397,
      "v": 1
    },
    {
      "midi": 67,
      "hit": false,
      "t": 155933.90999999992,
      "d": 324.51890625001397,
      "v": 1
    },
    {
      "midi": 62,
      "hit": false,
      "t": 156263.57999999993,
      "d": 4939.8989062499895,
      "v": 1
    },
    {
      "midi": 69,
      "hit": false,
      "t": 156263.57999999993,
      "d": 4939.8989062499895,
      "v": 1
    },
    {
      "midi": 59,
      "hit": false,
      "t": 161208.62999999992,
      "d": 1313.5289062499942,
      "v": 1
    },
    {
      "midi": 67,
      "hit": false,
      "t": 161208.62999999992,
      "d": 1313.5289062499942,
      "v": 1
    },
    {
      "midi": 55,
      "hit": false,
      "t": 162527.3099999999,
      "d": 654.1889062499977,
      "v": 1
    },
    {
      "midi": 62,
      "hit": false,
      "t": 162527.3099999999,
      "d": 654.1889062499977,
      "v": 1
    },
    {
      "midi": 54,
      "hit": false,
      "t": 163186.6499999999,
      "d": 324.51890625001397,
      "v": 1
    },
    {
      "midi": 62,
      "hit": false,
      "t": 163186.6499999999,
      "d": 324.51890625001397,
      "v": 1
    },
    {
      "midi": 52,
      "hit": false,
      "t": 163516.31999999992,
      "d": 2632.208906249987,
      "v": 1
    },
    {
      "midi": 61,
      "hit": false,
      "t": 163516.31999999992,
      "d": 2632.208906249987,
      "v": 1
    },
    {
      "midi": 67,
      "hit": false,
      "t": 169450.37999999992,
      "d": 324.51890625001397,
      "v": 1
    },
    {
      "midi": 61,
      "hit": false,
      "t": 169450.37999999992,
      "d": 341.6892187500198,
      "v": 1
    },
    {
      "midi": 62,
      "hit": false,
      "t": 169780.04999999993,
      "d": 1972.8689062500198,
      "v": 1
    },
    {
      "midi": 69,
      "hit": false,
      "t": 169780.04999999993,
      "d": 1972.8689062500198,
      "v": 1
    },
    {
      "midi": 59,
      "hit": false,
      "t": 171758.06999999995,
      "d": 1313.5289062499942,
      "v": 1
    },
    {
      "midi": 67,
      "hit": false,
      "t": 171758.06999999995,
      "d": 1313.5289062499942,
      "v": 1
    },
    {
      "midi": 57,
      "hit": false,
      "t": 173076.74999999994,
      "d": 983.8589062500105,
      "v": 1
    },
    {
      "midi": 66,
      "hit": false,
      "t": 173076.74999999994,
      "d": 983.8589062500105,
      "v": 1
    },
    {
      "midi": 61,
      "hit": false,
      "t": 174065.75999999995,
      "d": 654.1889062499977,
      "v": 1
    },
    {
      "midi": 67,
      "hit": false,
      "t": 174065.75999999995,
      "d": 654.1889062499977,
      "v": 1
    },
    {
      "midi": 61,
      "hit": false,
      "t": 174725.09999999995,
      "d": 324.51890625001397,
      "v": 1
    },
    {
      "midi": 66,
      "hit": false,
      "t": 174725.09999999995,
      "d": 355.425468750007,
      "v": 1
    },
    {
      "midi": 57,
      "hit": false,
      "t": 175054.76999999996,
      "d": 324.51890624998487,
      "v": 1
    },
    {
      "midi": 57,
      "hit": false,
      "t": 175384.43999999994,
      "d": 324.51890625001397,
      "v": 1
    },
    {
      "midi": 66,
      "hit": false,
      "t": 175384.43999999994,
      "d": 324.51890625001397,
      "v": 1
    },
    {
      "midi": 59,
      "hit": false,
      "t": 175714.10999999996,
      "d": 324.51890625001397,
      "v": 1
    },
    {
      "midi": 67,
      "hit": false,
      "t": 175714.10999999996,
      "d": 324.51890625001397,
      "v": 1
    },
    {
      "midi": 62,
      "hit": false,
      "t": 176043.77999999997,
      "d": 1972.8689062499907,
      "v": 1
    },
    {
      "midi": 69,
      "hit": false,
      "t": 176043.77999999997,
      "d": 1972.8689062499907,
      "v": 1
    },
    {
      "midi": 57,
      "hit": false,
      "t": 178021.79999999996,
      "d": 307.34859375000815,
      "v": 1
    },
    {
      "midi": 66,
      "hit": false,
      "t": 178021.79999999996,
      "d": 362.29359375001513,
      "v": 1
    },
    {
      "midi": 59,
      "hit": false,
      "t": 178351.46999999997,
      "d": 324.51890625001397,
      "v": 1
    },
    {
      "midi": 67,
      "hit": false,
      "t": 178351.46999999997,
      "d": 324.51890625001397,
      "v": 1
    },
    {
      "midi": 62,
      "hit": false,
      "t": 178681.13999999998,
      "d": 1313.5289062499942,
      "v": 1
    },
    {
      "midi": 69,
      "hit": false,
      "t": 178681.13999999998,
      "d": 1313.5289062499942,
      "v": 1
    },
    {
      "midi": 59,
      "hit": false,
      "t": 179999.81999999998,
      "d": 654.1889062499977,
      "v": 1
    },
    {
      "midi": 66,
      "hit": false,
      "t": 179999.81999999998,
      "d": 654.1889062499977,
      "v": 1
    },
    {
      "midi": 57,
      "hit": false,
      "t": 180659.15999999997,
      "d": 307.34859375000815,
      "v": 1
    },
    {
      "midi": 66,
      "hit": false,
      "t": 180659.15999999997,
      "d": 334.82109375001164,
      "v": 1
    },
    {
      "midi": 59,
      "hit": false,
      "t": 180988.83,
      "d": 324.51890624998487,
      "v": 1
    },
    {
      "midi": 67,
      "hit": false,
      "t": 180988.83,
      "d": 324.51890624998487,
      "v": 1
    },
    {
      "midi": 62,
      "hit": false,
      "t": 181318.49999999997,
      "d": 654.1889062499977,
      "v": 1
    },
    {
      "midi": 69,
      "hit": false,
      "t": 181318.49999999997,
      "d": 654.1889062499977,
      "v": 1
    },
    {
      "midi": 57,
      "hit": false,
      "t": 181977.83999999997,
      "d": 324.51890625001397,
      "v": 1
    },
    {
      "midi": 62,
      "hit": false,
      "t": 181977.83999999997,
      "d": 324.51890625001397,
      "v": 1
    },
    {
      "midi": 59,
      "hit": false,
      "t": 182307.50999999998,
      "d": 983.8589062500105,
      "v": 1
    },
    {
      "midi": 66,
      "hit": false,
      "t": 182307.50999999998,
      "d": 983.8589062500105,
      "v": 1
    },
    {
      "midi": 62,
      "hit": false,
      "t": 183296.52,
      "d": 324.51890625001397,
      "v": 1
    },
    {
      "midi": 69,
      "hit": false,
      "t": 183296.52,
      "d": 324.51890625001397,
      "v": 1
    },
    {
      "midi": 55,
      "hit": false,
      "t": 183626.19,
      "d": 324.51890625001397,
      "v": 1
    },
    {
      "midi": 62,
      "hit": false,
      "t": 183626.19,
      "d": 324.51890625001397,
      "v": 1
    },
    {
      "midi": 57,
      "hit": false,
      "t": 183955.86000000002,
      "d": 2632.208906249987,
      "v": 1
    },
    {
      "midi": 66,
      "hit": false,
      "t": 183955.86000000002,
      "d": 2632.208906249987,
      "v": 1
    },
    {
      "midi": 74,
      "hit": false,
      "t": 186617.25843750007,
      "d": 369.1617187499942,
      "v": 84
    },
    {
      "midi": 78,
      "hit": false,
      "t": 186950.36250000008,
      "d": 321.08484374999534,
      "v": 78
    },
    {
      "midi": 79,
      "hit": false,
      "t": 187276.59843750007,
      "d": 341.6892187499907,
      "v": 93
    },
    {
      "midi": 78,
      "hit": false,
      "t": 187620.00468750007,
      "d": 293.61234374999185,
      "v": 88
    },
    {
      "midi": 74,
      "hit": false,
      "t": 187935.93843750007,
      "d": 310.7826562499977,
      "v": 88
    },
    {
      "midi": 69,
      "hit": false,
      "t": 188272.47656250006,
      "d": 300.48046875,
      "v": 84
    },
    {
      "midi": 67,
      "hit": false,
      "t": 188567.80593750006,
      "d": 365.72765625000466,
      "v": 82
    },
    {
      "midi": 66,
      "hit": false,
      "t": 188907.77812500007,
      "d": 310.7826562499977,
      "v": 85
    },
    {
      "midi": 64,
      "hit": false,
      "t": 189240.88218750007,
      "d": 331.3870312500221,
      "v": 102
    },
    {
      "midi": 62,
      "hit": false,
      "t": 189570.55218750008,
      "d": 327.9529687500035,
      "v": 99
    },
    {
      "midi": 64,
      "hit": false,
      "t": 189900.2221875001,
      "d": 2615.0385937500105,
      "v": 84
    },
    {
      "midi": 57,
      "hit": false,
      "t": 194199.66843750002,
      "d": 307.34859374997905,
      "v": 1
    },
    {
      "midi": 60,
      "hit": false,
      "t": 194512.168125,
      "d": 345.1232812500093,
      "v": 1
    },
    {
      "midi": 62,
      "hit": false,
      "t": 194862.4425,
      "d": 637.0185937499919,
      "v": 1
    },
    {
      "midi": 60,
      "hit": false,
      "t": 195501.178125,
      "d": 334.82109375001164,
      "v": 1
    },
    {
      "midi": 57,
      "hit": false,
      "t": 195841.15031250002,
      "d": 331.387031249993,
      "v": 1
    },
    {
      "midi": 60,
      "hit": false,
      "t": 196177.6884375,
      "d": 973.5567187500128,
      "v": 1
    },
    {
      "midi": 62,
      "hit": false,
      "t": 197156.39625000002,
      "d": 341.6892187499907,
      "v": 1
    },
    {
      "midi": 57,
      "hit": false,
      "t": 197503.2365625,
      "d": 551.167031250021,
      "v": 1
    },
    {
      "midi": 62,
      "hit": false,
      "t": 197812.3021875001,
      "d": 472.18359375,
      "v": 88
    },
    {
      "midi": 55,
      "hit": false,
      "t": 198025.21406250002,
      "d": 163.11796875001164,
      "v": 1
    },
    {
      "midi": 54,
      "hit": false,
      "t": 198159.14250000002,
      "d": 2275.06640625,
      "v": 1
    },
    {
      "midi": 57,
      "hit": false,
      "t": 198166.0106250001,
      "d": 602.6779687499802,
      "v": 83
    },
    {
      "midi": 62,
      "hit": false,
      "t": 198475.0762500001,
      "d": 338.25515624997206,
      "v": 71
    },
    {
      "midi": 64,
      "hit": false,
      "t": 198794.4440625001,
      "d": 358.8595312499965,
      "v": 76
    },
    {
      "midi": 66,
      "hit": false,
      "t": 199141.28437500008,
      "d": 410.37046875001397,
      "v": 78
    },
    {
      "midi": 66,
      "hit": false,
      "t": 203076.72000000003,
      "d": 1972.8689062499907,
      "v": 1
    },
    {
      "midi": 57,
      "hit": false,
      "t": 205054.74000000002,
      "d": 324.51890625001397,
      "v": 1
    },
    {
      "midi": 66,
      "hit": false,
      "t": 205054.74000000002,
      "d": 324.51890625001397,
      "v": 1
    },
    {
      "midi": 69,
      "hit": false,
      "t": 205384.41000000003,
      "d": 654.1889062499977,
      "v": 1
    },
    {
      "midi": 62,
      "hit": false,
      "t": 205384.41000000003,
      "d": 674.793281249993,
      "v": 1
    },
    {
      "midi": 59,
      "hit": false,
      "t": 206043.75000000003,
      "d": 324.51890624998487,
      "v": 1
    },
    {
      "midi": 67,
      "hit": false,
      "t": 206043.75000000003,
      "d": 324.51890624998487,
      "v": 1
    },
    {
      "midi": 57,
      "hit": false,
      "t": 206373.42,
      "d": 324.51890625001397,
      "v": 1
    },
    {
      "midi": 66,
      "hit": false,
      "t": 206373.42,
      "d": 324.51890625001397,
      "v": 1
    },
    {
      "midi": 57,
      "hit": false,
      "t": 206703.09000000003,
      "d": 654.1889062499977,
      "v": 1
    },
    {
      "midi": 67,
      "hit": false,
      "t": 206703.09000000003,
      "d": 654.1889062499977,
      "v": 1
    },
    {
      "midi": 57,
      "hit": false,
      "t": 207362.43000000002,
      "d": 654.1889062499977,
      "v": 1
    },
    {
      "midi": 66,
      "hit": false,
      "t": 207362.43000000002,
      "d": 654.1889062499977,
      "v": 1
    },
    {
      "midi": 62,
      "hit": false,
      "t": 208021.77000000002,
      "d": 983.8589062500105,
      "v": 1
    },
    {
      "midi": 69,
      "hit": false,
      "t": 208021.77000000002,
      "d": 983.8589062500105,
      "v": 1
    },
    {
      "midi": 64,
      "hit": false,
      "t": 209010.78000000003,
      "d": 290.1782812500023,
      "v": 1
    },
    {
      "midi": 71,
      "hit": false,
      "t": 209010.78000000003,
      "d": 341.6892187500198,
      "v": 1
    },
    {
      "midi": 62,
      "hit": false,
      "t": 209340.45000000004,
      "d": 983.8589062500105,
      "v": 1
    },
    {
      "midi": 69,
      "hit": false,
      "t": 209340.45000000004,
      "d": 983.8589062500105,
      "v": 1
    },
    {
      "midi": 64,
      "hit": false,
      "t": 210329.46000000005,
      "d": 341.6892187500198,
      "v": 1
    },
    {
      "midi": 71,
      "hit": false,
      "t": 210329.46000000005,
      "d": 376.02984375003143,
      "v": 1
    },
    {
      "midi": 69,
      "hit": false,
      "t": 210659.13000000006,
      "d": 516.8264062500093,
      "v": 1
    },
    {
      "midi": 62,
      "hit": false,
      "t": 210659.13000000006,
      "d": 564.9032812500081,
      "v": 1
    },
    {
      "midi": 66,
      "hit": false,
      "t": 210988.80000000008,
      "d": 2436.4673437500023,
      "v": 60
    },
    {
      "midi": 57,
      "hit": false,
      "t": 210988.80000000008,
      "d": 2474.2420312500035,
      "v": 61
    },
    {
      "midi": 62,
      "hit": false,
      "t": 210988.80000000008,
      "d": 2505.1485937499965,
      "v": 74
    },
    {
      "midi": 38,
      "hit": false,
      "t": 210988.80000000008,
      "d": 2635.642968750006,
      "v": 64
    },
    {
      "midi": 59,
      "hit": false,
      "t": 211153.63500000007,
      "d": 159.68390624999302,
      "v": 1
    },
    {
      "midi": 67,
      "hit": false,
      "t": 211153.63500000007,
      "d": 159.68390624999302,
      "v": 1
    },
    {
      "midi": 57,
      "hit": false,
      "t": 211318.47000000006,
      "d": 2302.5389062500035,
      "v": 1
    },
    {
      "midi": 66,
      "hit": false,
      "t": 211318.47000000006,
      "d": 2302.5389062500035,
      "v": 1
    },
    {
      "midi": 62,
      "hit": false,
      "t": 213636.4621875001,
      "d": 2172.044531249994,
      "v": 70
    },
    {
      "midi": 67,
      "hit": false,
      "t": 213639.89625000008,
      "d": 2158.308281250007,
      "v": 58
    },
    {
      "midi": 59,
      "hit": false,
      "t": 213646.7643750001,
      "d": 2172.044531249994,
      "v": 56
    },
    {
      "midi": 43,
      "hit": false,
      "t": 213650.19843750008,
      "d": 2573.8298437499907,
      "v": 67
    },
    {
      "midi": 45,
      "hit": false,
      "t": 216236.04750000007,
      "d": 2652.8132812500116,
      "v": 59
    },
    {
      "midi": 61,
      "hit": false,
      "t": 216239.48156250006,
      "d": 2433.033281250013,
      "v": 63
    },
    {
      "midi": 57,
      "hit": false,
      "t": 216249.78375000006,
      "d": 2412.4289062500175,
      "v": 68
    },
    {
      "midi": 64,
      "hit": false,
      "t": 216253.21781250005,
      "d": 2384.956406250014,
      "v": 70
    },
    {
      "midi": 62,
      "hit": false,
      "t": 218890.5778125001,
      "d": 2285.3685937499977,
      "v": 59
    },
    {
      "midi": 38,
      "hit": false,
      "t": 218897.4459375001,
      "d": 1138.3917187500047,
      "v": 64
    },
    {
      "midi": 66,
      "hit": false,
      "t": 218900.8800000001,
      "d": 2247.5939062499965,
      "v": 48
    },
    {
      "midi": 57,
      "hit": false,
      "t": 218907.7481250001,
      "d": 2247.5939062499965,
      "v": 48
    },
    {
      "midi": 45,
      "hit": false,
      "t": 220222.9940625001,
      "d": 331.387031249993,
      "v": 62
    },
    {
      "midi": 47,
      "hit": false,
      "t": 220538.9278125001,
      "d": 358.8595312499965,
      "v": 65
    },
    {
      "midi": 50,
      "hit": false,
      "t": 220878.9000000001,
      "d": 321.08484374999534,
      "v": 75
    },
    {
      "midi": 38,
      "hit": false,
      "t": 221201.70187500012,
      "d": 2470.807968750014,
      "v": 73
    },
    {
      "midi": 61,
      "hit": false,
      "t": 221218.87218750012,
      "d": 303.9145312500186,
      "v": 58
    },
    {
      "midi": 66,
      "hit": false,
      "t": 221229.17437500012,
      "d": 2460.5057812500163,
      "v": 66
    },
    {
      "midi": 57,
      "hit": false,
      "t": 221236.04250000013,
      "d": 2460.5057812500163,
      "v": 61
    },
    {
      "midi": 62,
      "hit": false,
      "t": 221569.14656250013,
      "d": 2134.269843750022,
      "v": 64
    },
    {
      "midi": 59,
      "hit": false,
      "t": 223863.10031250014,
      "d": 2501.714531249978,
      "v": 70
    },
    {
      "midi": 55,
      "hit": false,
      "t": 223866.53437500013,
      "d": 2501.714531249978,
      "v": 61
    },
    {
      "midi": 62,
      "hit": false,
      "t": 223876.83656250013,
      "d": 2484.544218750001,
      "v": 72
    },
    {
      "midi": 43,
      "hit": false,
      "t": 224168.73187500014,
      "d": 2573.8298437499325,
      "v": 73
    },
    {
      "midi": 61,
      "hit": false,
      "t": 226472.9878125001,
      "d": 1227.677343749965,
      "v": 66
    },
    {
      "midi": 64,
      "hit": false,
      "t": 226483.2900000001,
      "d": 1258.5839062499872,
      "v": 78
    },
    {
      "midi": 57,
      "hit": false,
      "t": 226486.72406250008,
      "d": 1248.2817187499895,
      "v": 63
    },
    {
      "midi": 45,
      "hit": false,
      "t": 226785.48750000008,
      "d": 2587.566093750036,
      "v": 60
    },
    {
      "midi": 61,
      "hit": false,
      "t": 227781.3656250001,
      "d": 173.4201562500093,
      "v": 48
    },
    {
      "midi": 64,
      "hit": false,
      "t": 227791.6678125001,
      "d": 204.32671875000233,
      "v": 60
    },
    {
      "midi": 57,
      "hit": false,
      "t": 227798.5359375001,
      "d": 204.32671875000233,
      "v": 43
    },
    {
      "midi": 61,
      "hit": false,
      "t": 228128.2059375001,
      "d": 753.776718750014,
      "v": 44
    },
    {
      "midi": 57,
      "hit": false,
      "t": 228145.37625000012,
      "d": 750.3426562499953,
      "v": 38
    },
    {
      "midi": 64,
      "hit": false,
      "t": 228145.37625000012,
      "d": 760.644843749993,
      "v": 66
    },
    {
      "midi": 69,
      "hit": false,
      "t": 229127.51812500012,
      "d": 558.0351562499709,
      "v": 53
    },
    {
      "midi": 64,
      "hit": false,
      "t": 229127.51812500012,
      "d": 564.903281249979,
      "v": 64
    },
    {
      "midi": 61,
      "hit": false,
      "t": 229130.9521875001,
      "d": 564.903281249979,
      "v": 48
    },
    {
      "midi": 45,
      "hit": false,
      "t": 229457.1881250001,
      "d": 2443.335468749923,
      "v": 75
    },
    {
      "midi": 64,
      "hit": false,
      "t": 229776.5559375001,
      "d": 355.4254687499779,
      "v": 79
    },
    {
      "midi": 69,
      "hit": false,
      "t": 229776.5559375001,
      "d": 365.72765624997555,
      "v": 62
    },
    {
      "midi": 61,
      "hit": false,
      "t": 229779.99000000008,
      "d": 331.387031249993,
      "v": 46
    },
    {
      "midi": 62,
      "hit": false,
      "t": 230418.72562500005,
      "d": 334.82109374998254,
      "v": 43
    },
    {
      "midi": 67,
      "hit": false,
      "t": 230418.72562500005,
      "d": 358.8595312499674,
      "v": 62
    },
    {
      "midi": 71,
      "hit": false,
      "t": 230422.15968750004,
      "d": 355.4254687499779,
      "v": 53
    },
    {
      "midi": 69,
      "hit": false,
      "t": 230765.56593750004,
      "d": 276.44203124998603,
      "v": 51
    },
    {
      "midi": 64,
      "hit": false,
      "t": 230769.00000000003,
      "d": 279.87609375000466,
      "v": 44
    },
    {
      "midi": 73,
      "hit": false,
      "t": 230769.00000000003,
      "d": 321.08484374999534,
      "v": 46
    },
    {
      "midi": 61,
      "hit": false,
      "t": 231095.23593750002,
      "d": 757.2107812500035,
      "v": 40
    },
    {
      "midi": 69,
      "hit": false,
      "t": 231095.23593750002,
      "d": 764.0789062500116,
      "v": 60
    },
    {
      "midi": 64,
      "hit": false,
      "t": 231098.67,
      "d": 760.6448437500221,
      "v": 73
    },
    {
      "midi": 62,
      "hit": false,
      "t": 232747.02000000008,
      "d": 2632.2089062500163,
      "v": 1
    },
    {
      "midi": 69,
      "hit": false,
      "t": 232747.02000000008,
      "d": 2632.2089062500163,
      "v": 1
    },
    {
      "midi": 59,
      "hit": false,
      "t": 235384.3800000001,
      "d": 293.61234374999185,
      "v": 1
    },
    {
      "midi": 67,
      "hit": false,
      "t": 235384.3800000001,
      "d": 334.82109374998254,
      "v": 1
    },
    {
      "midi": 57,
      "hit": false,
      "t": 235714.05000000008,
      "d": 324.51890624998487,
      "v": 1
    },
    {
      "midi": 66,
      "hit": false,
      "t": 235714.05000000008,
      "d": 324.51890624998487,
      "v": 1
    },
    {
      "midi": 59,
      "hit": false,
      "t": 236043.72000000006,
      "d": 654.1889062499977,
      "v": 1
    },
    {
      "midi": 66,
      "hit": false,
      "t": 236043.72000000006,
      "d": 654.1889062499977,
      "v": 1
    },
    {
      "midi": 62,
      "hit": false,
      "t": 236703.06000000006,
      "d": 983.8589062499814,
      "v": 1
    },
    {
      "midi": 69,
      "hit": false,
      "t": 236703.06000000006,
      "d": 983.8589062499814,
      "v": 1
    },
    {
      "midi": 61,
      "hit": false,
      "t": 237692.07000000004,
      "d": 983.8589062500105,
      "v": 1
    },
    {
      "midi": 67,
      "hit": false,
      "t": 237692.07000000004,
      "d": 983.8589062500105,
      "v": 1
    },
    {
      "midi": 62,
      "hit": false,
      "t": 238681.08000000005,
      "d": 324.51890625001397,
      "v": 1
    },
    {
      "midi": 69,
      "hit": false,
      "t": 238681.08000000005,
      "d": 324.51890625001397,
      "v": 1
    },
    {
      "midi": 59,
      "hit": false,
      "t": 239010.75000000006,
      "d": 324.51890625001397,
      "v": 1
    },
    {
      "midi": 66,
      "hit": false,
      "t": 239010.75000000006,
      "d": 324.51890625001397,
      "v": 1
    },
    {
      "midi": 57,
      "hit": false,
      "t": 239340.42000000007,
      "d": 983.8589062500105,
      "v": 1
    },
    {
      "midi": 66,
      "hit": false,
      "t": 239340.42000000007,
      "d": 983.8589062500105,
      "v": 1
    },
    {
      "midi": 59,
      "hit": false,
      "t": 240329.43000000008,
      "d": 324.51890625001397,
      "v": 1
    },
    {
      "midi": 67,
      "hit": false,
      "t": 240329.43000000008,
      "d": 324.51890625001397,
      "v": 1
    },
    {
      "midi": 62,
      "hit": false,
      "t": 240659.1000000001,
      "d": 4939.8989062499895,
      "v": 1
    },
    {
      "midi": 69,
      "hit": false,
      "t": 240659.1000000001,
      "d": 4939.8989062499895,
      "v": 1
    },
    {
      "midi": 59,
      "hit": false,
      "t": 245604.15000000008,
      "d": 1313.5289062499942,
      "v": 1
    },
    {
      "midi": 67,
      "hit": false,
      "t": 245604.15000000008,
      "d": 1313.5289062499942,
      "v": 1
    },
    {
      "midi": 55,
      "hit": false,
      "t": 246922.83000000007,
      "d": 654.1889062499977,
      "v": 1
    },
    {
      "midi": 62,
      "hit": false,
      "t": 246922.83000000007,
      "d": 654.1889062499977,
      "v": 1
    },
    {
      "midi": 54,
      "hit": false,
      "t": 247582.17000000007,
      "d": 324.51890625001397,
      "v": 1
    },
    {
      "midi": 62,
      "hit": false,
      "t": 247582.17000000007,
      "d": 324.51890625001397,
      "v": 1
    },
    {
      "midi": 52,
      "hit": false,
      "t": 247911.84000000008,
      "d": 2632.208906249987,
      "v": 1
    },
    {
      "midi": 61,
      "hit": false,
      "t": 247911.84000000008,
      "d": 2632.208906249987,
      "v": 1
    },
    {
      "midi": 67,
      "hit": false,
      "t": 253845.90000000008,
      "d": 324.51890625001397,
      "v": 1
    },
    {
      "midi": 61,
      "hit": false,
      "t": 253845.90000000008,
      "d": 341.6892187500198,
      "v": 1
    },
    {
      "midi": 62,
      "hit": false,
      "t": 254175.5700000001,
      "d": 1972.8689062500198,
      "v": 1
    },
    {
      "midi": 69,
      "hit": false,
      "t": 254175.5700000001,
      "d": 1972.8689062500198,
      "v": 1
    },
    {
      "midi": 59,
      "hit": false,
      "t": 256153.5900000001,
      "d": 1313.5289062499942,
      "v": 1
    },
    {
      "midi": 67,
      "hit": false,
      "t": 256153.5900000001,
      "d": 1313.5289062499942,
      "v": 1
    },
    {
      "midi": 57,
      "hit": false,
      "t": 257472.2700000001,
      "d": 983.8589062500105,
      "v": 1
    },
    {
      "midi": 66,
      "hit": false,
      "t": 257472.2700000001,
      "d": 983.8589062500105,
      "v": 1
    },
    {
      "midi": 61,
      "hit": false,
      "t": 258461.28000000012,
      "d": 654.1889062499977,
      "v": 1
    },
    {
      "midi": 67,
      "hit": false,
      "t": 258461.28000000012,
      "d": 654.1889062499977,
      "v": 1
    },
    {
      "midi": 61,
      "hit": false,
      "t": 259120.6200000001,
      "d": 324.51890625001397,
      "v": 1
    },
    {
      "midi": 66,
      "hit": false,
      "t": 259120.6200000001,
      "d": 355.425468750007,
      "v": 1
    },
    {
      "midi": 57,
      "hit": false,
      "t": 259450.29000000012,
      "d": 324.51890624998487,
      "v": 1
    },
    {
      "midi": 57,
      "hit": false,
      "t": 259779.9600000001,
      "d": 324.51890625001397,
      "v": 1
    },
    {
      "midi": 66,
      "hit": false,
      "t": 259779.9600000001,
      "d": 324.51890625001397,
      "v": 1
    },
    {
      "midi": 59,
      "hit": false,
      "t": 260109.63000000012,
      "d": 324.51890625001397,
      "v": 1
    },
    {
      "midi": 67,
      "hit": false,
      "t": 260109.63000000012,
      "d": 324.51890625001397,
      "v": 1
    },
    {
      "midi": 62,
      "hit": false,
      "t": 260439.30000000013,
      "d": 1972.8689062499616,
      "v": 1
    },
    {
      "midi": 69,
      "hit": false,
      "t": 260439.30000000013,
      "d": 1972.8689062499616,
      "v": 1
    },
    {
      "midi": 57,
      "hit": false,
      "t": 262417.3200000001,
      "d": 307.34859374997905,
      "v": 1
    },
    {
      "midi": 66,
      "hit": false,
      "t": 262417.3200000001,
      "d": 362.29359374998603,
      "v": 1
    },
    {
      "midi": 59,
      "hit": false,
      "t": 262746.9900000001,
      "d": 324.51890625001397,
      "v": 1
    },
    {
      "midi": 67,
      "hit": false,
      "t": 262746.9900000001,
      "d": 324.51890625001397,
      "v": 1
    },
    {
      "midi": 62,
      "hit": false,
      "t": 263076.66000000015,
      "d": 1313.5289062500233,
      "v": 1
    },
    {
      "midi": 69,
      "hit": false,
      "t": 263076.66000000015,
      "d": 1313.5289062500233,
      "v": 1
    },
    {
      "midi": 59,
      "hit": false,
      "t": 264395.3400000002,
      "d": 654.1889062499977,
      "v": 1
    },
    {
      "midi": 66,
      "hit": false,
      "t": 264395.3400000002,
      "d": 654.1889062499977,
      "v": 1
    },
    {
      "midi": 57,
      "hit": false,
      "t": 265054.6800000002,
      "d": 307.34859374997905,
      "v": 1
    },
    {
      "midi": 66,
      "hit": false,
      "t": 265054.6800000002,
      "d": 334.82109375001164,
      "v": 1
    },
    {
      "midi": 59,
      "hit": false,
      "t": 265384.3500000002,
      "d": 324.51890625001397,
      "v": 1
    },
    {
      "midi": 67,
      "hit": false,
      "t": 265384.3500000002,
      "d": 324.51890625001397,
      "v": 1
    },
    {
      "midi": 62,
      "hit": false,
      "t": 265714.02000000025,
      "d": 654.1889062499977,
      "v": 1
    },
    {
      "midi": 69,
      "hit": false,
      "t": 265714.02000000025,
      "d": 654.1889062499977,
      "v": 1
    },
    {
      "midi": 57,
      "hit": false,
      "t": 266373.3600000003,
      "d": 324.51890625001397,
      "v": 1
    },
    {
      "midi": 62,
      "hit": false,
      "t": 266373.3600000003,
      "d": 324.51890625001397,
      "v": 1
    },
    {
      "midi": 59,
      "hit": false,
      "t": 266703.0300000003,
      "d": 983.8589062499814,
      "v": 1
    },
    {
      "midi": 66,
      "hit": false,
      "t": 266703.0300000003,
      "d": 983.8589062499814,
      "v": 1
    },
    {
      "midi": 62,
      "hit": false,
      "t": 267692.0400000003,
      "d": 324.51890625001397,
      "v": 1
    },
    {
      "midi": 69,
      "hit": false,
      "t": 267692.0400000003,
      "d": 324.51890625001397,
      "v": 1
    },
    {
      "midi": 55,
      "hit": false,
      "t": 268021.71000000037,
      "d": 324.51890625001397,
      "v": 1
    },
    {
      "midi": 62,
      "hit": false,
      "t": 268021.71000000037,
      "d": 324.51890625001397,
      "v": 1
    },
    {
      "midi": 57,
      "hit": false,
      "t": 268351.3800000004,
      "d": 2632.2089062500163,
      "v": 1
    },
    {
      "midi": 66,
      "hit": false,
      "t": 268351.3800000004,
      "d": 2632.2089062500163,
      "v": 1
    },
    {
      "midi": 57,
      "hit": false,
      "t": 272966.7600000004,
      "d": 307.34859374997905,
      "v": 1
    },
    {
      "midi": 66,
      "hit": false,
      "t": 272966.7600000004,
      "d": 362.29359374998603,
      "v": 1
    },
    {
      "midi": 59,
      "hit": false,
      "t": 273296.4300000004,
      "d": 324.51890625001397,
      "v": 1
    },
    {
      "midi": 67,
      "hit": false,
      "t": 273296.4300000004,
      "d": 324.51890625001397,
      "v": 1
    },
    {
      "midi": 62,
      "hit": false,
      "t": 273626.10000000044,
      "d": 1313.5289062500233,
      "v": 1
    },
    {
      "midi": 69,
      "hit": false,
      "t": 273626.10000000044,
      "d": 1313.5289062500233,
      "v": 1
    },
    {
      "midi": 59,
      "hit": false,
      "t": 274944.7800000005,
      "d": 654.1889062499977,
      "v": 1
    },
    {
      "midi": 66,
      "hit": false,
      "t": 274944.7800000005,
      "d": 654.1889062499977,
      "v": 1
    },
    {
      "midi": 57,
      "hit": false,
      "t": 275604.1200000005,
      "d": 307.34859374997905,
      "v": 1
    },
    {
      "midi": 66,
      "hit": false,
      "t": 275604.1200000005,
      "d": 334.82109375001164,
      "v": 1
    },
    {
      "midi": 59,
      "hit": false,
      "t": 275933.7900000005,
      "d": 324.51890625001397,
      "v": 1
    },
    {
      "midi": 67,
      "hit": false,
      "t": 275933.7900000005,
      "d": 324.51890625001397,
      "v": 1
    },
    {
      "midi": 62,
      "hit": false,
      "t": 276263.46000000054,
      "d": 324.51890625001397,
      "v": 1
    },
    {
      "midi": 69,
      "hit": false,
      "t": 276263.46000000054,
      "d": 324.51890625001397,
      "v": 1
    },
    {
      "midi": 62,
      "hit": false,
      "t": 276593.1300000006,
      "d": 324.51890625001397,
      "v": 1
    },
    {
      "midi": 73,
      "hit": false,
      "t": 276593.1300000006,
      "d": 324.51890625001397,
      "v": 1
    },
    {
      "midi": 57,
      "hit": false,
      "t": 276922.8000000006,
      "d": 324.51890625001397,
      "v": 1
    },
    {
      "midi": 62,
      "hit": false,
      "t": 276922.8000000006,
      "d": 324.51890625001397,
      "v": 1
    },
    {
      "midi": 62,
      "hit": false,
      "t": 277252.47000000067,
      "d": 159.68390624999302,
      "v": 1
    },
    {
      "midi": 73,
      "hit": false,
      "t": 277252.47000000067,
      "d": 159.68390624999302,
      "v": 1
    },
    {
      "midi": 61,
      "hit": false,
      "t": 277417.3050000007,
      "d": 159.68390624999302,
      "v": 1
    },
    {
      "midi": 71,
      "hit": false,
      "t": 277417.3050000007,
      "d": 159.68390624999302,
      "v": 1
    },
    {
      "midi": 59,
      "hit": false,
      "t": 277582.1400000007,
      "d": 654.1889062499977,
      "v": 1
    },
    {
      "midi": 69,
      "hit": false,
      "t": 277582.1400000007,
      "d": 654.1889062499977,
      "v": 1
    },
    {
      "midi": 62,
      "hit": false,
      "t": 278241.48000000074,
      "d": 324.51890625001397,
      "v": 1
    },
    {
      "midi": 69,
      "hit": false,
      "t": 278241.48000000074,
      "d": 324.51890625001397,
      "v": 1
    },
    {
      "midi": 55,
      "hit": false,
      "t": 278571.1500000008,
      "d": 324.51890625001397,
      "v": 1
    },
    {
      "midi": 62,
      "hit": false,
      "t": 278571.1500000008,
      "d": 324.51890625001397,
      "v": 1
    },
    {
      "midi": 66,
      "hit": false,
      "t": 278900.8200000008,
      "d": 489.3539062499767,
      "v": 1
    },
    {
      "midi": 57,
      "hit": false,
      "t": 278900.8200000008,
      "d": 654.1889062499977,
      "v": 1
    },
    {
      "midi": 67,
      "hit": false,
      "t": 279395.3250000008,
      "d": 159.68390624999302,
      "v": 1
    },
    {
      "midi": 59,
      "hit": false,
      "t": 279560.16000000085,
      "d": 317.6507812499767,
      "v": 1
    },
    {
      "midi": 66,
      "hit": false,
      "t": 279560.16000000085,
      "d": 2625.340781249979,
      "v": 1
    },
    {
      "midi": 57,
      "hit": false,
      "t": 279889.83000000083,
      "d": 2378.0882812499767,
      "v": 1
    },
    {
      "midi": 59,
      "hit": false,
      "t": 282197.52000000083,
      "d": 2632.208906249958,
      "v": 1
    },
    {
      "midi": 67,
      "hit": false,
      "t": 282197.52000000083,
      "d": 2632.208906249958,
      "v": 1
    }
  ]
}