{
  "jsonPath": "Soundtracks/Video Game Music/Seiken Densetsu 3/seiken-densetsu-3-japan-sacrificepart3.json",
  "path": "Soundtracks\\Video Game Music\\Seiken Densetsu 3\\Seiken_Densetsu_3_Japan_SacrificePart3.mid",
  "name": "Seiken_Densetsu_3_Japan_SacrificePart3",
  "difficulty": "Advanced",
  "bpm": 148.000148000148,
  "notes": [
    {
      "midi": 78,
      "hit": false,
      "t": 0,
      "d": 97.12828125000001,
      "v": 110
    },
    {
      "midi": 30,
      "hit": false,
      "t": 0,
      "d": 97.12828125000001,
      "v": 110
    },
    {
      "midi": 73,
      "hit": false,
      "t": 101.35125000000002,
      "d": 97.12828125000001,
      "v": 110
    },
    {
      "midi": 30,
      "hit": false,
      "t": 101.35125000000002,
      "d": 97.12828125000001,
      "v": 110
    },
    {
      "midi": 68,
      "hit": false,
      "t": 202.70250000000004,
      "d": 97.12828125000004,
      "v": 110
    },
    {
      "midi": 42,
      "hit": false,
      "t": 202.70250000000004,
      "d": 97.12828125000004,
      "v": 110
    },
    {
      "midi": 66,
      "hit": false,
      "t": 304.0537500000001,
      "d": 97.12828125000004,
      "v": 110
    },
    {
      "midi": 42,
      "hit": false,
      "t": 304.0537500000001,
      "d": 97.12828125000004,
      "v": 110
    },
    {
      "midi": 61,
      "hit": false,
      "t": 405.40500000000014,
      "d": 97.12828125000004,
      "v": 110
    },
    {
      "midi": 28,
      "hit": false,
      "t": 405.40500000000014,
      "d": 97.12828125000004,
      "v": 110
    },
    {
      "midi": 66,
      "hit": false,
      "t": 506.7562500000002,
      "d": 97.12828125000004,
      "v": 110
    },
    {
      "midi": 28,
      "hit": false,
      "t": 506.7562500000002,
      "d": 97.12828125000004,
      "v": 110
    },
    {
      "midi": 68,
      "hit": false,
      "t": 608.1075000000002,
      "d": 97.12828124999999,
      "v": 110
    },
    {
      "midi": 40,
      "hit": false,
      "t": 608.1075000000002,
      "d": 97.12828124999999,
      "v": 110
    },
    {
      "midi": 73,
      "hit": false,
      "t": 709.4587500000001,
      "d": 97.12828124999999,
      "v": 110
    },
    {
      "midi": 40,
      "hit": false,
      "t": 709.4587500000001,
      "d": 97.12828124999999,
      "v": 110
    },
    {
      "midi": 78,
      "hit": false,
      "t": 810.8100000000001,
      "d": 97.12828124999999,
      "v": 110
    },
    {
      "midi": 30,
      "hit": false,
      "t": 810.8100000000001,
      "d": 97.12828124999999,
      "v": 110
    },
    {
      "midi": 73,
      "hit": false,
      "t": 912.16125,
      "d": 97.12828124999999,
      "v": 110
    },
    {
      "midi": 30,
      "hit": false,
      "t": 912.16125,
      "d": 97.12828124999999,
      "v": 110
    },
    {
      "midi": 68,
      "hit": false,
      "t": 1013.5124999999999,
      "d": 97.12828124999999,
      "v": 110
    },
    {
      "midi": 42,
      "hit": false,
      "t": 1013.5124999999999,
      "d": 97.12828124999999,
      "v": 110
    },
    {
      "midi": 66,
      "hit": false,
      "t": 1114.86375,
      "d": 97.1282812500001,
      "v": 110
    },
    {
      "midi": 42,
      "hit": false,
      "t": 1114.86375,
      "d": 97.1282812500001,
      "v": 110
    },
    {
      "midi": 61,
      "hit": false,
      "t": 1216.2150000000001,
      "d": 97.1282812500001,
      "v": 110
    },
    {
      "midi": 28,
      "hit": false,
      "t": 1216.2150000000001,
      "d": 97.1282812500001,
      "v": 110
    },
    {
      "midi": 66,
      "hit": false,
      "t": 1317.5662500000003,
      "d": 97.1282812500001,
      "v": 110
    },
    {
      "midi": 28,
      "hit": false,
      "t": 1317.5662500000003,
      "d": 97.1282812500001,
      "v": 110
    },
    {
      "midi": 68,
      "hit": false,
      "t": 1418.9175000000005,
      "d": 97.1282812500001,
      "v": 110
    },
    {
      "midi": 40,
      "hit": false,
      "t": 1418.9175000000005,
      "d": 97.1282812500001,
      "v": 110
    },
    {
      "midi": 73,
      "hit": false,
      "t": 1520.2687500000006,
      "d": 97.1282812500001,
      "v": 110
    },
    {
      "midi": 40,
      "hit": false,
      "t": 1520.2687500000006,
      "d": 97.1282812500001,
      "v": 110
    },
    {
      "midi": 78,
      "hit": false,
      "t": 1621.6200000000008,
      "d": 97.1282812500001,
      "v": 110
    },
    {
      "midi": 30,
      "hit": false,
      "t": 1621.6200000000008,
      "d": 97.1282812500001,
      "v": 110
    },
    {
      "midi": 73,
      "hit": false,
      "t": 1722.971250000001,
      "d": 97.1282812500001,
      "v": 110
    },
    {
      "midi": 30,
      "hit": false,
      "t": 1722.971250000001,
      "d": 97.1282812500001,
      "v": 110
    },
    {
      "midi": 68,
      "hit": false,
      "t": 1824.3225000000011,
      "d": 97.1282812500001,
      "v": 110
    },
    {
      "midi": 42,
      "hit": false,
      "t": 1824.3225000000011,
      "d": 97.1282812500001,
      "v": 110
    },
    {
      "midi": 66,
      "hit": false,
      "t": 1925.6737500000013,
      "d": 97.1282812500001,
      "v": 110
    },
    {
      "midi": 42,
      "hit": false,
      "t": 1925.6737500000013,
      "d": 97.1282812500001,
      "v": 110
    },
    {
      "midi": 61,
      "hit": false,
      "t": 2027.0250000000015,
      "d": 97.12828124999987,
      "v": 110
    },
    {
      "midi": 28,
      "hit": false,
      "t": 2027.0250000000015,
      "d": 97.12828124999987,
      "v": 110
    },
    {
      "midi": 66,
      "hit": false,
      "t": 2128.376250000001,
      "d": 97.12828124999987,
      "v": 110
    },
    {
      "midi": 28,
      "hit": false,
      "t": 2128.376250000001,
      "d": 97.12828124999987,
      "v": 110
    },
    {
      "midi": 68,
      "hit": false,
      "t": 2229.727500000001,
      "d": 97.12828124999987,
      "v": 110
    },
    {
      "midi": 40,
      "hit": false,
      "t": 2229.727500000001,
      "d": 97.12828124999987,
      "v": 110
    },
    {
      "midi": 73,
      "hit": false,
      "t": 2331.0787500000006,
      "d": 97.12828124999987,
      "v": 110
    },
    {
      "midi": 40,
      "hit": false,
      "t": 2331.0787500000006,
      "d": 97.12828124999987,
      "v": 110
    },
    {
      "midi": 78,
      "hit": false,
      "t": 2432.4300000000003,
      "d": 97.12828124999987,
      "v": 110
    },
    {
      "midi": 30,
      "hit": false,
      "t": 2432.4300000000003,
      "d": 97.12828124999987,
      "v": 110
    },
    {
      "midi": 73,
      "hit": false,
      "t": 2533.78125,
      "d": 97.12828124999987,
      "v": 110
    },
    {
      "midi": 30,
      "hit": false,
      "t": 2533.78125,
      "d": 97.12828124999987,
      "v": 110
    },
    {
      "midi": 68,
      "hit": false,
      "t": 2635.1324999999997,
      "d": 97.12828124999987,
      "v": 110
    },
    {
      "midi": 42,
      "hit": false,
      "t": 2635.1324999999997,
      "d": 97.12828124999987,
      "v": 110
    },
    {
      "midi": 66,
      "hit": false,
      "t": 2736.4837499999994,
      "d": 97.12828124999987,
      "v": 110
    },
    {
      "midi": 42,
      "hit": false,
      "t": 2736.4837499999994,
      "d": 97.12828124999987,
      "v": 110
    },
    {
      "midi": 61,
      "hit": false,
      "t": 2837.834999999999,
      "d": 97.12828124999987,
      "v": 110
    },
    {
      "midi": 28,
      "hit": false,
      "t": 2837.834999999999,
      "d": 97.12828124999987,
      "v": 110
    },
    {
      "midi": 66,
      "hit": false,
      "t": 2939.186249999999,
      "d": 97.12828124999987,
      "v": 110
    },
    {
      "midi": 28,
      "hit": false,
      "t": 2939.186249999999,
      "d": 97.12828124999987,
      "v": 110
    },
    {
      "midi": 68,
      "hit": false,
      "t": 3040.5374999999985,
      "d": 97.12828124999987,
      "v": 110
    },
    {
      "midi": 40,
      "hit": false,
      "t": 3040.5374999999985,
      "d": 97.12828124999987,
      "v": 110
    },
    {
      "midi": 73,
      "hit": false,
      "t": 3141.8887499999983,
      "d": 97.12828124999987,
      "v": 110
    },
    {
      "midi": 40,
      "hit": false,
      "t": 3141.8887499999983,
      "d": 97.12828124999987,
      "v": 110
    },
    {
      "midi": 78,
      "hit": false,
      "t": 3243.239999999998,
      "d": 97.12828124999987,
      "v": 110
    },
    {
      "midi": 30,
      "hit": false,
      "t": 3243.239999999998,
      "d": 97.12828124999987,
      "v": 110
    },
    {
      "midi": 73,
      "hit": false,
      "t": 3344.5912499999977,
      "d": 97.12828124999987,
      "v": 110
    },
    {
      "midi": 30,
      "hit": false,
      "t": 3344.5912499999977,
      "d": 97.12828124999987,
      "v": 110
    },
    {
      "midi": 68,
      "hit": false,
      "t": 3445.9424999999974,
      "d": 97.12828124999987,
      "v": 110
    },
    {
      "midi": 42,
      "hit": false,
      "t": 3445.9424999999974,
      "d": 97.12828124999987,
      "v": 110
    },
    {
      "midi": 66,
      "hit": false,
      "t": 3547.293749999997,
      "d": 97.12828124999987,
      "v": 110
    },
    {
      "midi": 42,
      "hit": false,
      "t": 3547.293749999997,
      "d": 97.12828124999987,
      "v": 110
    },
    {
      "midi": 61,
      "hit": false,
      "t": 3648.644999999997,
      "d": 97.12828124999987,
      "v": 110
    },
    {
      "midi": 28,
      "hit": false,
      "t": 3648.644999999997,
      "d": 97.12828124999987,
      "v": 110
    },
    {
      "midi": 66,
      "hit": false,
      "t": 3749.9962499999965,
      "d": 97.12828124999987,
      "v": 110
    },
    {
      "midi": 28,
      "hit": false,
      "t": 3749.9962499999965,
      "d": 97.12828124999987,
      "v": 110
    },
    {
      "midi": 68,
      "hit": false,
      "t": 3851.347499999996,
      "d": 97.12828124999987,
      "v": 110
    },
    {
      "midi": 40,
      "hit": false,
      "t": 3851.347499999996,
      "d": 97.12828124999987,
      "v": 110
    },
    {
      "midi": 73,
      "hit": false,
      "t": 3952.698749999996,
      "d": 97.12828124999987,
      "v": 110
    },
    {
      "midi": 40,
      "hit": false,
      "t": 3952.698749999996,
      "d": 97.12828124999987,
      "v": 110
    },
    {
      "midi": 78,
      "hit": false,
      "t": 4054.0499999999956,
      "d": 97.12828125000033,
      "v": 110
    },
    {
      "midi": 30,
      "hit": false,
      "t": 4054.0499999999956,
      "d": 97.12828125000033,
      "v": 110
    },
    {
      "midi": 73,
      "hit": false,
      "t": 4155.401249999996,
      "d": 97.12828125000033,
      "v": 110
    },
    {
      "midi": 30,
      "hit": false,
      "t": 4155.401249999996,
      "d": 97.12828125000033,
      "v": 110
    },
    {
      "midi": 68,
      "hit": false,
      "t": 4256.752499999997,
      "d": 97.12828125000033,
      "v": 110
    },
    {
      "midi": 42,
      "hit": false,
      "t": 4256.752499999997,
      "d": 97.12828125000033,
      "v": 110
    },
    {
      "midi": 66,
      "hit": false,
      "t": 4358.1037499999975,
      "d": 97.12828125000033,
      "v": 110
    },
    {
      "midi": 42,
      "hit": false,
      "t": 4358.1037499999975,
      "d": 97.12828125000033,
      "v": 110
    },
    {
      "midi": 61,
      "hit": false,
      "t": 4459.454999999998,
      "d": 97.12828125000033,
      "v": 110
    },
    {
      "midi": 28,
      "hit": false,
      "t": 4459.454999999998,
      "d": 97.12828125000033,
      "v": 110
    },
    {
      "midi": 66,
      "hit": false,
      "t": 4560.806249999999,
      "d": 97.12828125000033,
      "v": 110
    },
    {
      "midi": 28,
      "hit": false,
      "t": 4560.806249999999,
      "d": 97.12828125000033,
      "v": 110
    },
    {
      "midi": 68,
      "hit": false,
      "t": 4662.157499999999,
      "d": 97.12828125000033,
      "v": 110
    },
    {
      "midi": 40,
      "hit": false,
      "t": 4662.157499999999,
      "d": 97.12828125000033,
      "v": 110
    },
    {
      "midi": 73,
      "hit": false,
      "t": 4763.50875,
      "d": 97.12828125000033,
      "v": 110
    },
    {
      "midi": 40,
      "hit": false,
      "t": 4763.50875,
      "d": 97.12828125000033,
      "v": 110
    },
    {
      "midi": 78,
      "hit": false,
      "t": 4864.860000000001,
      "d": 97.12828125000033,
      "v": 110
    },
    {
      "midi": 30,
      "hit": false,
      "t": 4864.860000000001,
      "d": 97.12828125000033,
      "v": 110
    },
    {
      "midi": 73,
      "hit": false,
      "t": 4966.211250000001,
      "d": 97.12828125000033,
      "v": 110
    },
    {
      "midi": 30,
      "hit": false,
      "t": 4966.211250000001,
      "d": 97.12828125000033,
      "v": 110
    },
    {
      "midi": 68,
      "hit": false,
      "t": 5067.562500000002,
      "d": 97.12828125000033,
      "v": 110
    },
    {
      "midi": 42,
      "hit": false,
      "t": 5067.562500000002,
      "d": 97.12828125000033,
      "v": 110
    },
    {
      "midi": 66,
      "hit": false,
      "t": 5168.913750000002,
      "d": 97.12828125000033,
      "v": 110
    },
    {
      "midi": 42,
      "hit": false,
      "t": 5168.913750000002,
      "d": 97.12828125000033,
      "v": 110
    },
    {
      "midi": 61,
      "hit": false,
      "t": 5270.265000000003,
      "d": 97.12828125000033,
      "v": 110
    },
    {
      "midi": 30,
      "hit": false,
      "t": 5270.265000000003,
      "d": 97.12828125000033,
      "v": 110
    },
    {
      "midi": 66,
      "hit": false,
      "t": 5371.616250000004,
      "d": 97.12828125000033,
      "v": 110
    },
    {
      "midi": 42,
      "hit": false,
      "t": 5371.616250000004,
      "d": 97.12828125000033,
      "v": 110
    },
    {
      "midi": 68,
      "hit": false,
      "t": 5472.967500000004,
      "d": 97.12828125000033,
      "v": 110
    },
    {
      "midi": 28,
      "hit": false,
      "t": 5472.967500000004,
      "d": 97.12828125000033,
      "v": 110
    },
    {
      "midi": 73,
      "hit": false,
      "t": 5574.318750000005,
      "d": 97.12828125000033,
      "v": 110
    },
    {
      "midi": 40,
      "hit": false,
      "t": 5574.318750000005,
      "d": 97.12828125000033,
      "v": 110
    },
    {
      "midi": 78,
      "hit": false,
      "t": 5675.6700000000055,
      "d": 97.12828125000033,
      "v": 110
    },
    {
      "midi": 30,
      "hit": false,
      "t": 5675.6700000000055,
      "d": 97.12828125000033,
      "v": 110
    },
    {
      "midi": 73,
      "hit": false,
      "t": 5777.021250000006,
      "d": 97.12828125000033,
      "v": 110
    },
    {
      "midi": 35,
      "hit": false,
      "t": 5777.021250000006,
      "d": 97.12828125000033,
      "v": 110
    },
    {
      "midi": 71,
      "hit": false,
      "t": 5878.372500000007,
      "d": 97.12828125000033,
      "v": 110
    },
    {
      "midi": 40,
      "hit": false,
      "t": 5878.372500000007,
      "d": 97.12828125000033,
      "v": 110
    },
    {
      "midi": 68,
      "hit": false,
      "t": 5979.723750000007,
      "d": 97.12828125000033,
      "v": 110
    },
    {
      "midi": 44,
      "hit": false,
      "t": 5979.723750000007,
      "d": 97.12828125000033,
      "v": 110
    },
    {
      "midi": 70,
      "hit": false,
      "t": 6081.075000000008,
      "d": 97.12828125000033,
      "v": 110
    },
    {
      "midi": 35,
      "hit": false,
      "t": 6081.075000000008,
      "d": 97.12828125000033,
      "v": 110
    },
    {
      "midi": 66,
      "hit": false,
      "t": 6182.426250000009,
      "d": 97.12828125000033,
      "v": 110
    },
    {
      "midi": 40,
      "hit": false,
      "t": 6182.426250000009,
      "d": 97.12828125000033,
      "v": 110
    },
    {
      "midi": 61,
      "hit": false,
      "t": 6283.777500000009,
      "d": 97.12828125000033,
      "v": 110
    },
    {
      "midi": 42,
      "hit": false,
      "t": 6283.777500000009,
      "d": 97.12828125000033,
      "v": 110
    },
    {
      "midi": 58,
      "hit": false,
      "t": 6385.12875000001,
      "d": 97.12828125000033,
      "v": 110
    },
    {
      "midi": 46,
      "hit": false,
      "t": 6385.12875000001,
      "d": 97.12828125000033,
      "v": 110
    },
    {
      "midi": 70,
      "hit": false,
      "t": 6486.4800000000105,
      "d": 1009.2895312500004,
      "v": 110
    },
    {
      "midi": 39,
      "hit": false,
      "t": 6486.4800000000105,
      "d": 97.12828125000033,
      "v": 110
    },
    {
      "midi": 39,
      "hit": false,
      "t": 6587.831250000011,
      "d": 97.12828125000033,
      "v": 110
    },
    {
      "midi": 51,
      "hit": false,
      "t": 6689.182500000012,
      "d": 97.12828125000033,
      "v": 110
    },
    {
      "midi": 51,
      "hit": false,
      "t": 6790.533750000012,
      "d": 97.12828125000033,
      "v": 110
    },
    {
      "midi": 39,
      "hit": false,
      "t": 6891.885000000013,
      "d": 97.12828125000033,
      "v": 110
    },
    {
      "midi": 39,
      "hit": false,
      "t": 6993.236250000014,
      "d": 97.12828125000033,
      "v": 110
    },
    {
      "midi": 51,
      "hit": false,
      "t": 7094.587500000014,
      "d": 97.12828125000033,
      "v": 110
    },
    {
      "midi": 51,
      "hit": false,
      "t": 7195.938750000015,
      "d": 97.12828125000033,
      "v": 110
    },
    {
      "midi": 39,
      "hit": false,
      "t": 7297.290000000015,
      "d": 97.12828125000033,
      "v": 110
    },
    {
      "midi": 39,
      "hit": false,
      "t": 7398.641250000016,
      "d": 97.12828125000033,
      "v": 110
    },
    {
      "midi": 70,
      "hit": false,
      "t": 7499.992500000011,
      "d": 198.47953125000004,
      "v": 110
    },
    {
      "midi": 51,
      "hit": false,
      "t": 7499.992500000017,
      "d": 97.12828125000033,
      "v": 110
    },
    {
      "midi": 51,
      "hit": false,
      "t": 7601.343750000017,
      "d": 97.12828125000033,
      "v": 110
    },
    {
      "midi": 68,
      "hit": false,
      "t": 7702.6950000000115,
      "d": 198.47953125000004,
      "v": 110
    },
    {
      "midi": 39,
      "hit": false,
      "t": 7702.695000000018,
      "d": 97.12828125000033,
      "v": 110
    },
    {
      "midi": 39,
      "hit": false,
      "t": 7804.0462500000185,
      "d": 97.12828125000033,
      "v": 110
    },
    {
      "midi": 66,
      "hit": false,
      "t": 7905.397500000012,
      "d": 198.47953125000004,
      "v": 110
    },
    {
      "midi": 51,
      "hit": false,
      "t": 7905.397500000019,
      "d": 97.12828125000033,
      "v": 110
    },
    {
      "midi": 51,
      "hit": false,
      "t": 8006.74875000002,
      "d": 97.12828125000033,
      "v": 110
    },
    {
      "midi": 65,
      "hit": false,
      "t": 8108.100000000012,
      "d": 1009.2895312499995,
      "v": 110
    },
    {
      "midi": 37,
      "hit": false,
      "t": 8108.10000000002,
      "d": 97.12828124999942,
      "v": 110
    },
    {
      "midi": 37,
      "hit": false,
      "t": 8209.45125000002,
      "d": 97.12828124999942,
      "v": 110
    },
    {
      "midi": 49,
      "hit": false,
      "t": 8310.80250000002,
      "d": 97.12828124999942,
      "v": 110
    },
    {
      "midi": 49,
      "hit": false,
      "t": 8412.15375000002,
      "d": 97.12828124999942,
      "v": 110
    },
    {
      "midi": 37,
      "hit": false,
      "t": 8513.50500000002,
      "d": 97.12828124999942,
      "v": 110
    },
    {
      "midi": 37,
      "hit": false,
      "t": 8614.856250000019,
      "d": 97.12828124999942,
      "v": 110
    },
    {
      "midi": 49,
      "hit": false,
      "t": 8716.207500000019,
      "d": 97.12828124999942,
      "v": 110
    },
    {
      "midi": 49,
      "hit": false,
      "t": 8817.558750000018,
      "d": 97.12828124999942,
      "v": 110
    },
    {
      "midi": 37,
      "hit": false,
      "t": 8918.910000000018,
      "d": 97.12828124999942,
      "v": 110
    },
    {
      "midi": 37,
      "hit": false,
      "t": 9020.261250000018,
      "d": 97.12828124999942,
      "v": 110
    },
    {
      "midi": 65,
      "hit": false,
      "t": 9121.612500000012,
      "d": 198.47953124999913,
      "v": 110
    },
    {
      "midi": 49,
      "hit": false,
      "t": 9121.612500000017,
      "d": 97.12828124999942,
      "v": 110
    },
    {
      "midi": 49,
      "hit": false,
      "t": 9222.963750000017,
      "d": 97.12828124999942,
      "v": 110
    },
    {
      "midi": 66,
      "hit": false,
      "t": 9324.315000000011,
      "d": 198.47953124999913,
      "v": 110
    },
    {
      "midi": 37,
      "hit": false,
      "t": 9324.315000000017,
      "d": 97.12828124999942,
      "v": 110
    },
    {
      "midi": 37,
      "hit": false,
      "t": 9425.666250000017,
      "d": 97.12828124999942,
      "v": 110
    },
    {
      "midi": 68,
      "hit": false,
      "t": 9527.01750000001,
      "d": 198.47953124999913,
      "v": 110
    },
    {
      "midi": 49,
      "hit": false,
      "t": 9527.017500000016,
      "d": 97.12828124999942,
      "v": 110
    },
    {
      "midi": 49,
      "hit": false,
      "t": 9628.368750000016,
      "d": 97.12828124999942,
      "v": 110
    },
    {
      "midi": 70,
      "hit": false,
      "t": 9729.72000000001,
      "d": 1009.2895312500004,
      "v": 110
    },
    {
      "midi": 39,
      "hit": false,
      "t": 9729.720000000016,
      "d": 97.12828124999942,
      "v": 110
    },
    {
      "midi": 39,
      "hit": false,
      "t": 9831.071250000015,
      "d": 97.12828124999942,
      "v": 110
    },
    {
      "midi": 51,
      "hit": false,
      "t": 9932.422500000015,
      "d": 97.12828124999942,
      "v": 110
    },
    {
      "midi": 51,
      "hit": false,
      "t": 10033.773750000015,
      "d": 97.12828124999942,
      "v": 110
    },
    {
      "midi": 39,
      "hit": false,
      "t": 10135.125000000015,
      "d": 97.12828124999942,
      "v": 110
    },
    {
      "midi": 39,
      "hit": false,
      "t": 10236.476250000014,
      "d": 97.12828124999942,
      "v": 110
    },
    {
      "midi": 51,
      "hit": false,
      "t": 10337.827500000014,
      "d": 97.12828124999942,
      "v": 110
    },
    {
      "midi": 51,
      "hit": false,
      "t": 10439.178750000014,
      "d": 97.12828124999942,
      "v": 110
    },
    {
      "midi": 39,
      "hit": false,
      "t": 10540.530000000013,
      "d": 97.12828124999942,
      "v": 110
    },
    {
      "midi": 39,
      "hit": false,
      "t": 10641.881250000013,
      "d": 97.12828124999942,
      "v": 110
    },
    {
      "midi": 70,
      "hit": false,
      "t": 10743.232500000011,
      "d": 198.47953124999913,
      "v": 110
    },
    {
      "midi": 51,
      "hit": false,
      "t": 10743.232500000013,
      "d": 97.12828124999942,
      "v": 110
    },
    {
      "midi": 51,
      "hit": false,
      "t": 10844.583750000013,
      "d": 97.12828124999942,
      "v": 110
    },
    {
      "midi": 68,
      "hit": false,
      "t": 10945.93500000001,
      "d": 198.47953124999913,
      "v": 110
    },
    {
      "midi": 39,
      "hit": false,
      "t": 10945.935000000012,
      "d": 97.12828124999942,
      "v": 110
    },
    {
      "midi": 39,
      "hit": false,
      "t": 11047.286250000012,
      "d": 97.12828124999942,
      "v": 110
    },
    {
      "midi": 66,
      "hit": false,
      "t": 11148.63750000001,
      "d": 198.47953124999913,
      "v": 110
    },
    {
      "midi": 51,
      "hit": false,
      "t": 11148.637500000012,
      "d": 97.12828124999942,
      "v": 110
    },
    {
      "midi": 51,
      "hit": false,
      "t": 11249.988750000011,
      "d": 97.12828124999942,
      "v": 110
    },
    {
      "midi": 65,
      "hit": false,
      "t": 11351.34000000001,
      "d": 1009.2895312500004,
      "v": 110
    },
    {
      "midi": 37,
      "hit": false,
      "t": 11351.340000000011,
      "d": 97.12828124999942,
      "v": 110
    },
    {
      "midi": 37,
      "hit": false,
      "t": 11452.69125000001,
      "d": 97.12828124999942,
      "v": 110
    },
    {
      "midi": 49,
      "hit": false,
      "t": 11554.04250000001,
      "d": 97.12828124999942,
      "v": 110
    },
    {
      "midi": 49,
      "hit": false,
      "t": 11655.39375000001,
      "d": 97.12828124999942,
      "v": 110
    },
    {
      "midi": 37,
      "hit": false,
      "t": 11756.74500000001,
      "d": 97.12828124999942,
      "v": 110
    },
    {
      "midi": 37,
      "hit": false,
      "t": 11858.09625000001,
      "d": 97.12828124999942,
      "v": 110
    },
    {
      "midi": 49,
      "hit": false,
      "t": 11959.44750000001,
      "d": 97.12828124999942,
      "v": 110
    },
    {
      "midi": 49,
      "hit": false,
      "t": 12060.798750000009,
      "d": 97.12828124999942,
      "v": 110
    },
    {
      "midi": 37,
      "hit": false,
      "t": 12162.150000000009,
      "d": 97.12828124999942,
      "v": 110
    },
    {
      "midi": 37,
      "hit": false,
      "t": 12263.501250000008,
      "d": 97.12828124999942,
      "v": 110
    },
    {
      "midi": 49,
      "hit": false,
      "t": 12364.852500000008,
      "d": 97.12828124999942,
      "v": 110
    },
    {
      "midi": 65,
      "hit": false,
      "t": 12364.85250000001,
      "d": 198.47953124999913,
      "v": 110
    },
    {
      "midi": 49,
      "hit": false,
      "t": 12466.203750000008,
      "d": 97.12828124999942,
      "v": 110
    },
    {
      "midi": 37,
      "hit": false,
      "t": 12567.555000000008,
      "d": 97.12828124999942,
      "v": 110
    },
    {
      "midi": 66,
      "hit": false,
      "t": 12567.55500000001,
      "d": 198.47953124999913,
      "v": 110
    },
    {
      "midi": 37,
      "hit": false,
      "t": 12668.906250000007,
      "d": 97.12828124999942,
      "v": 110
    },
    {
      "midi": 49,
      "hit": false,
      "t": 12770.257500000007,
      "d": 97.12828124999942,
      "v": 110
    },
    {
      "midi": 65,
      "hit": false,
      "t": 12770.257500000009,
      "d": 198.47953124999913,
      "v": 110
    },
    {
      "midi": 49,
      "hit": false,
      "t": 12871.608750000007,
      "d": 97.12828124999942,
      "v": 110
    },
    {
      "midi": 35,
      "hit": false,
      "t": 12972.960000000006,
      "d": 97.12828124999942,
      "v": 110
    },
    {
      "midi": 63,
      "hit": false,
      "t": 12972.960000000008,
      "d": 1009.2895312500004,
      "v": 110
    },
    {
      "midi": 35,
      "hit": false,
      "t": 13074.311250000006,
      "d": 97.12828124999942,
      "v": 110
    },
    {
      "midi": 47,
      "hit": false,
      "t": 13175.662500000006,
      "d": 97.12828124999942,
      "v": 110
    },
    {
      "midi": 47,
      "hit": false,
      "t": 13277.013750000006,
      "d": 97.12828124999942,
      "v": 110
    },
    {
      "midi": 35,
      "hit": false,
      "t": 13378.365000000005,
      "d": 97.12828124999942,
      "v": 110
    },
    {
      "midi": 35,
      "hit": false,
      "t": 13479.716250000005,
      "d": 97.12828124999942,
      "v": 110
    },
    {
      "midi": 47,
      "hit": false,
      "t": 13581.067500000005,
      "d": 97.12828124999942,
      "v": 110
    },
    {
      "midi": 47,
      "hit": false,
      "t": 13682.418750000004,
      "d": 97.12828124999942,
      "v": 110
    },
    {
      "midi": 35,
      "hit": false,
      "t": 13783.770000000004,
      "d": 97.12828124999942,
      "v": 110
    },
    {
      "midi": 35,
      "hit": false,
      "t": 13885.121250000004,
      "d": 97.12828124999942,
      "v": 110
    },
    {
      "midi": 47,
      "hit": false,
      "t": 13986.472500000003,
      "d": 97.12828124999942,
      "v": 110
    },
    {
      "midi": 63,
      "hit": false,
      "t": 13986.472500000009,
      "d": 198.47953124999913,
      "v": 110
    },
    {
      "midi": 47,
      "hit": false,
      "t": 14087.823750000003,
      "d": 97.12828124999942,
      "v": 110
    },
    {
      "midi": 35,
      "hit": false,
      "t": 14189.175000000003,
      "d": 97.12828124999942,
      "v": 110
    },
    {
      "midi": 66,
      "hit": false,
      "t": 14189.175000000008,
      "d": 198.47953124999913,
      "v": 110
    },
    {
      "midi": 35,
      "hit": false,
      "t": 14290.526250000003,
      "d": 97.12828124999942,
      "v": 110
    },
    {
      "midi": 47,
      "hit": false,
      "t": 14391.877500000002,
      "d": 97.12828124999942,
      "v": 110
    },
    {
      "midi": 70,
      "hit": false,
      "t": 14391.877500000008,
      "d": 198.47953124999913,
      "v": 110
    },
    {
      "midi": 47,
      "hit": false,
      "t": 14493.228750000002,
      "d": 97.12828124999942,
      "v": 110
    },
    {
      "midi": 35,
      "hit": false,
      "t": 14594.580000000002,
      "d": 97.12828124999942,
      "v": 110
    },
    {
      "midi": 71,
      "hit": false,
      "t": 14594.580000000007,
      "d": 337.83749999999964,
      "v": 110
    },
    {
      "midi": 35,
      "hit": false,
      "t": 14695.931250000001,
      "d": 97.12828124999942,
      "v": 110
    },
    {
      "midi": 47,
      "hit": false,
      "t": 14797.282500000001,
      "d": 97.12828124999942,
      "v": 110
    },
    {
      "midi": 47,
      "hit": false,
      "t": 14898.63375,
      "d": 97.12828124999942,
      "v": 110
    },
    {
      "midi": 35,
      "hit": false,
      "t": 14999.985,
      "d": 97.12828124999942,
      "v": 110
    },
    {
      "midi": 70,
      "hit": false,
      "t": 14999.985000000006,
      "d": 198.47953124999913,
      "v": 110
    },
    {
      "midi": 35,
      "hit": false,
      "t": 15101.33625,
      "d": 97.12828124999942,
      "v": 110
    },
    {
      "midi": 47,
      "hit": false,
      "t": 15202.6875,
      "d": 97.12828124999942,
      "v": 110
    },
    {
      "midi": 73,
      "hit": false,
      "t": 15202.687500000005,
      "d": 401.18203125000036,
      "v": 110
    },
    {
      "midi": 47,
      "hit": false,
      "t": 15304.03875,
      "d": 97.12828124999942,
      "v": 110
    },
    {
      "midi": 35,
      "hit": false,
      "t": 15405.39,
      "d": 97.12828124999942,
      "v": 110
    },
    {
      "midi": 35,
      "hit": false,
      "t": 15506.74125,
      "d": 97.12828124999942,
      "v": 110
    },
    {
      "midi": 47,
      "hit": false,
      "t": 15608.092499999999,
      "d": 97.12828124999942,
      "v": 110
    },
    {
      "midi": 70,
      "hit": false,
      "t": 15608.092500000006,
      "d": 198.47953124999913,
      "v": 110
    },
    {
      "midi": 47,
      "hit": false,
      "t": 15709.443749999999,
      "d": 97.12828124999942,
      "v": 110
    },
    {
      "midi": 35,
      "hit": false,
      "t": 15810.794999999998,
      "d": 97.12828124999942,
      "v": 110
    },
    {
      "midi": 66,
      "hit": false,
      "t": 15810.795000000006,
      "d": 198.47953124999913,
      "v": 110
    },
    {
      "midi": 35,
      "hit": false,
      "t": 15912.146249999998,
      "d": 97.12828124999942,
      "v": 110
    },
    {
      "midi": 47,
      "hit": false,
      "t": 16013.497499999998,
      "d": 97.12828124999942,
      "v": 110
    },
    {
      "midi": 70,
      "hit": false,
      "t": 16013.497500000005,
      "d": 198.47953124999913,
      "v": 110
    },
    {
      "midi": 47,
      "hit": false,
      "t": 16114.848749999997,
      "d": 97.12828124999942,
      "v": 110
    },
    {
      "midi": 37,
      "hit": false,
      "t": 16216.199999999997,
      "d": 97.12828124999942,
      "v": 110
    },
    {
      "midi": 68,
      "hit": false,
      "t": 16216.200000000004,
      "d": 1414.6945312499993,
      "v": 110
    },
    {
      "midi": 37,
      "hit": false,
      "t": 16317.551249999997,
      "d": 97.12828124999942,
      "v": 110
    },
    {
      "midi": 49,
      "hit": false,
      "t": 16418.902499999997,
      "d": 97.12828124999942,
      "v": 110
    },
    {
      "midi": 49,
      "hit": false,
      "t": 16520.253749999996,
      "d": 97.12828124999942,
      "v": 110
    },
    {
      "midi": 37,
      "hit": false,
      "t": 16621.604999999996,
      "d": 97.12828124999942,
      "v": 110
    },
    {
      "midi": 37,
      "hit": false,
      "t": 16722.956249999996,
      "d": 97.12828124999942,
      "v": 110
    },
    {
      "midi": 49,
      "hit": false,
      "t": 16824.307499999995,
      "d": 97.12828124999942,
      "v": 110
    },
    {
      "midi": 49,
      "hit": false,
      "t": 16925.658749999995,
      "d": 97.12828124999942,
      "v": 110
    },
    {
      "midi": 37,
      "hit": false,
      "t": 17027.009999999995,
      "d": 97.12828124999942,
      "v": 110
    },
    {
      "midi": 37,
      "hit": false,
      "t": 17128.361249999994,
      "d": 97.12828124999942,
      "v": 110
    },
    {
      "midi": 49,
      "hit": false,
      "t": 17229.712499999994,
      "d": 97.12828124999942,
      "v": 110
    },
    {
      "midi": 49,
      "hit": false,
      "t": 17331.063749999994,
      "d": 97.12828124999942,
      "v": 110
    },
    {
      "midi": 37,
      "hit": false,
      "t": 17432.414999999994,
      "d": 97.12828124999942,
      "v": 110
    },
    {
      "midi": 37,
      "hit": false,
      "t": 17533.766249999993,
      "d": 97.12828124999942,
      "v": 110
    },
    {
      "midi": 49,
      "hit": false,
      "t": 17635.117499999993,
      "d": 97.12828124999942,
      "v": 110
    },
    {
      "midi": 68,
      "hit": false,
      "t": 17635.117500000004,
      "d": 97.12828124999942,
      "v": 110
    },
    {
      "midi": 49,
      "hit": false,
      "t": 17736.468749999993,
      "d": 97.12828124999942,
      "v": 110
    },
    {
      "midi": 68,
      "hit": false,
      "t": 17736.468750000004,
      "d": 97.12828124999942,
      "v": 110
    },
    {
      "midi": 37,
      "hit": false,
      "t": 17837.819999999992,
      "d": 97.12828124999942,
      "v": 110
    },
    {
      "midi": 73,
      "hit": false,
      "t": 17837.820000000003,
      "d": 1520.2687499999993,
      "v": 110
    },
    {
      "midi": 37,
      "hit": false,
      "t": 17939.171249999992,
      "d": 97.12828124999942,
      "v": 110
    },
    {
      "midi": 49,
      "hit": false,
      "t": 18040.522499999992,
      "d": 97.12828124999942,
      "v": 110
    },
    {
      "midi": 49,
      "hit": false,
      "t": 18141.87374999999,
      "d": 97.12828124999942,
      "v": 110
    },
    {
      "midi": 37,
      "hit": false,
      "t": 18243.22499999999,
      "d": 97.12828124999942,
      "v": 110
    },
    {
      "midi": 37,
      "hit": false,
      "t": 18344.57624999999,
      "d": 97.12828124999942,
      "v": 110
    },
    {
      "midi": 49,
      "hit": false,
      "t": 18445.92749999999,
      "d": 97.12828124999942,
      "v": 110
    },
    {
      "midi": 49,
      "hit": false,
      "t": 18547.27874999999,
      "d": 97.12828124999942,
      "v": 110
    },
    {
      "midi": 37,
      "hit": false,
      "t": 18648.62999999999,
      "d": 97.12828124999942,
      "v": 110
    },
    {
      "midi": 37,
      "hit": false,
      "t": 18749.98124999999,
      "d": 97.12828124999942,
      "v": 110
    },
    {
      "midi": 49,
      "hit": false,
      "t": 18851.33249999999,
      "d": 97.12828124999942,
      "v": 110
    },
    {
      "midi": 49,
      "hit": false,
      "t": 18952.68374999999,
      "d": 97.12828124999942,
      "v": 110
    },
    {
      "midi": 37,
      "hit": false,
      "t": 19054.03499999999,
      "d": 97.12828124999942,
      "v": 110
    },
    {
      "midi": 37,
      "hit": false,
      "t": 19155.38624999999,
      "d": 97.12828124999942,
      "v": 110
    },
    {
      "midi": 49,
      "hit": false,
      "t": 19256.73749999999,
      "d": 97.12828124999942,
      "v": 110
    },
    {
      "midi": 49,
      "hit": false,
      "t": 19358.088749999988,
      "d": 97.12828124999942,
      "v": 110
    },
    {
      "midi": 35,
      "hit": false,
      "t": 19459.439999999988,
      "d": 198.47953124999913,
      "v": 110
    },
    {
      "midi": 66,
      "hit": false,
      "t": 19459.440000000002,
      "d": 337.83750000000146,
      "v": 110
    },
    {
      "midi": 35,
      "hit": false,
      "t": 19662.142499999987,
      "d": 97.12828124999942,
      "v": 110
    },
    {
      "midi": 35,
      "hit": false,
      "t": 19763.493749999987,
      "d": 97.12828124999942,
      "v": 110
    },
    {
      "midi": 35,
      "hit": false,
      "t": 19864.844999999987,
      "d": 198.47953124999913,
      "v": 110
    },
    {
      "midi": 65,
      "hit": false,
      "t": 19864.845000000005,
      "d": 198.47953124999913,
      "v": 110
    },
    {
      "midi": 39,
      "hit": false,
      "t": 20067.547499999986,
      "d": 97.12828124999942,
      "v": 110
    },
    {
      "midi": 66,
      "hit": false,
      "t": 20067.547500000004,
      "d": 401.18203124999854,
      "v": 110
    },
    {
      "midi": 39,
      "hit": false,
      "t": 20168.898749999986,
      "d": 97.12828124999942,
      "v": 110
    },
    {
      "midi": 39,
      "hit": false,
      "t": 20270.249999999985,
      "d": 198.47953124999913,
      "v": 110
    },
    {
      "midi": 42,
      "hit": false,
      "t": 20472.952499999985,
      "d": 97.12828124999942,
      "v": 110
    },
    {
      "midi": 68,
      "hit": false,
      "t": 20472.952500000003,
      "d": 198.47953124999913,
      "v": 110
    },
    {
      "midi": 42,
      "hit": false,
      "t": 20574.303749999985,
      "d": 97.12828124999942,
      "v": 110
    },
    {
      "midi": 42,
      "hit": false,
      "t": 20675.654999999984,
      "d": 198.47953124999913,
      "v": 110
    },
    {
      "midi": 66,
      "hit": false,
      "t": 20675.655000000002,
      "d": 743.2425000000003,
      "v": 110
    },
    {
      "midi": 46,
      "hit": false,
      "t": 20878.357499999984,
      "d": 97.12828124999942,
      "v": 110
    },
    {
      "midi": 46,
      "hit": false,
      "t": 20979.708749999983,
      "d": 97.12828124999942,
      "v": 110
    },
    {
      "midi": 47,
      "hit": false,
      "t": 21081.059999999983,
      "d": 198.47953124999913,
      "v": 110
    },
    {
      "midi": 47,
      "hit": false,
      "t": 21283.762499999983,
      "d": 97.12828124999942,
      "v": 110
    },
    {
      "midi": 47,
      "hit": false,
      "t": 21385.113749999982,
      "d": 97.12828124999942,
      "v": 110
    },
    {
      "midi": 46,
      "hit": false,
      "t": 21486.464999999982,
      "d": 198.47953124999913,
      "v": 110
    },
    {
      "midi": 66,
      "hit": false,
      "t": 21486.465000000004,
      "d": 337.83750000000146,
      "v": 110
    },
    {
      "midi": 42,
      "hit": false,
      "t": 21689.16749999998,
      "d": 97.12828124999942,
      "v": 110
    },
    {
      "midi": 42,
      "hit": false,
      "t": 21790.51874999998,
      "d": 97.12828124999942,
      "v": 110
    },
    {
      "midi": 42,
      "hit": false,
      "t": 21891.86999999998,
      "d": 198.47953124999913,
      "v": 110
    },
    {
      "midi": 68,
      "hit": false,
      "t": 21891.870000000006,
      "d": 337.83750000000146,
      "v": 110
    },
    {
      "midi": 39,
      "hit": false,
      "t": 22094.57249999998,
      "d": 97.12828124999942,
      "v": 110
    },
    {
      "midi": 39,
      "hit": false,
      "t": 22195.92374999998,
      "d": 97.12828124999942,
      "v": 110
    },
    {
      "midi": 35,
      "hit": false,
      "t": 22297.27499999998,
      "d": 198.47953124999913,
      "v": 110
    },
    {
      "midi": 71,
      "hit": false,
      "t": 22297.27500000001,
      "d": 337.83750000000146,
      "v": 110
    },
    {
      "midi": 37,
      "hit": false,
      "t": 22499.97749999998,
      "d": 97.12828124999942,
      "v": 110
    },
    {
      "midi": 37,
      "hit": false,
      "t": 22601.32874999998,
      "d": 97.12828124999942,
      "v": 110
    },
    {
      "midi": 39,
      "hit": false,
      "t": 22702.67999999998,
      "d": 198.47953124999913,
      "v": 110
    },
    {
      "midi": 70,
      "hit": false,
      "t": 22702.68000000001,
      "d": 337.83750000000146,
      "v": 110
    },
    {
      "midi": 39,
      "hit": false,
      "t": 22905.382499999978,
      "d": 97.12828124999942,
      "v": 110
    },
    {
      "midi": 39,
      "hit": false,
      "t": 23006.733749999978,
      "d": 97.12828124999942,
      "v": 110
    },
    {
      "midi": 39,
      "hit": false,
      "t": 23108.084999999977,
      "d": 198.47953124999913,
      "v": 110
    },
    {
      "midi": 68,
      "hit": false,
      "t": 23108.085000000014,
      "d": 198.47953124999913,
      "v": 110
    },
    {
      "midi": 41,
      "hit": false,
      "t": 23310.787499999977,
      "d": 97.12828124999942,
      "v": 110
    },
    {
      "midi": 70,
      "hit": false,
      "t": 23310.787500000013,
      "d": 401.18203124999854,
      "v": 110
    },
    {
      "midi": 41,
      "hit": false,
      "t": 23412.138749999976,
      "d": 97.12828124999942,
      "v": 110
    },
    {
      "midi": 41,
      "hit": false,
      "t": 23513.489999999976,
      "d": 198.47953124999913,
      "v": 110
    },
    {
      "midi": 42,
      "hit": false,
      "t": 23716.192499999976,
      "d": 97.12828124999942,
      "v": 110
    },
    {
      "midi": 73,
      "hit": false,
      "t": 23716.192500000012,
      "d": 198.47953124999913,
      "v": 110
    },
    {
      "midi": 42,
      "hit": false,
      "t": 23817.543749999975,
      "d": 97.12828124999942,
      "v": 110
    },
    {
      "midi": 42,
      "hit": false,
      "t": 23918.894999999975,
      "d": 198.47953124999913,
      "v": 110
    },
    {
      "midi": 70,
      "hit": false,
      "t": 23918.89500000001,
      "d": 743.2425000000003,
      "v": 110
    },
    {
      "midi": 46,
      "hit": false,
      "t": 24121.597499999974,
      "d": 97.12828124999942,
      "v": 110
    },
    {
      "midi": 46,
      "hit": false,
      "t": 24222.948749999974,
      "d": 97.12828124999942,
      "v": 110
    },
    {
      "midi": 49,
      "hit": false,
      "t": 24324.299999999974,
      "d": 198.47953124999913,
      "v": 110
    },
    {
      "midi": 49,
      "hit": false,
      "t": 24527.002499999973,
      "d": 97.12828124999942,
      "v": 110
    },
    {
      "midi": 49,
      "hit": false,
      "t": 24628.353749999973,
      "d": 97.12828124999942,
      "v": 110
    },
    {
      "midi": 46,
      "hit": false,
      "t": 24729.704999999973,
      "d": 198.47953124999913,
      "v": 110
    },
    {
      "midi": 70,
      "hit": false,
      "t": 24729.705000000013,
      "d": 337.83750000000146,
      "v": 110
    },
    {
      "midi": 42,
      "hit": false,
      "t": 24932.407499999972,
      "d": 97.12828124999942,
      "v": 110
    },
    {
      "midi": 42,
      "hit": false,
      "t": 25033.75874999997,
      "d": 97.12828124999942,
      "v": 110
    },
    {
      "midi": 42,
      "hit": false,
      "t": 25135.10999999997,
      "d": 198.47953124999913,
      "v": 110
    },
    {
      "midi": 73,
      "hit": false,
      "t": 25135.110000000015,
      "d": 337.83750000000146,
      "v": 110
    },
    {
      "midi": 41,
      "hit": false,
      "t": 25337.81249999997,
      "d": 97.12828124999942,
      "v": 110
    },
    {
      "midi": 41,
      "hit": false,
      "t": 25439.16374999997,
      "d": 97.12828124999942,
      "v": 110
    },
    {
      "midi": 39,
      "hit": false,
      "t": 25540.51499999997,
      "d": 198.47953124999913,
      "v": 110
    },
    {
      "midi": 77,
      "hit": false,
      "t": 25540.515000000018,
      "d": 337.83750000000146,
      "v": 110
    },
    {
      "midi": 34,
      "hit": false,
      "t": 25743.21749999997,
      "d": 97.12828124999942,
      "v": 110
    },
    {
      "midi": 34,
      "hit": false,
      "t": 25844.56874999997,
      "d": 97.12828124999942,
      "v": 110
    },
    {
      "midi": 35,
      "hit": false,
      "t": 25945.91999999997,
      "d": 97.12828124999942,
      "v": 110
    },
    {
      "midi": 75,
      "hit": false,
      "t": 25945.92000000002,
      "d": 97.12828124999942,
      "v": 110
    },
    {
      "midi": 35,
      "hit": false,
      "t": 26047.27124999997,
      "d": 97.12828124999942,
      "v": 110
    },
    {
      "midi": 75,
      "hit": false,
      "t": 26047.27125000002,
      "d": 97.12828124999942,
      "v": 110
    },
    {
      "midi": 35,
      "hit": false,
      "t": 26148.62249999997,
      "d": 198.47953124999913,
      "v": 110
    },
    {
      "midi": 75,
      "hit": false,
      "t": 26148.62250000002,
      "d": 198.47953124999913,
      "v": 110
    },
    {
      "midi": 35,
      "hit": false,
      "t": 26554.027499999967,
      "d": 97.12828124999942,
      "v": 110
    },
    {
      "midi": 75,
      "hit": false,
      "t": 26554.02750000002,
      "d": 97.12828124999942,
      "v": 110
    },
    {
      "midi": 35,
      "hit": false,
      "t": 26655.378749999967,
      "d": 97.12828124999942,
      "v": 110
    },
    {
      "midi": 75,
      "hit": false,
      "t": 26655.378750000018,
      "d": 97.12828124999942,
      "v": 110
    },
    {
      "midi": 35,
      "hit": false,
      "t": 26756.729999999967,
      "d": 337.83750000000146,
      "v": 110
    },
    {
      "midi": 75,
      "hit": false,
      "t": 26756.730000000018,
      "d": 337.83750000000146,
      "v": 110
    },
    {
      "midi": 35,
      "hit": false,
      "t": 27162.13499999997,
      "d": 97.12828124999942,
      "v": 110
    },
    {
      "midi": 75,
      "hit": false,
      "t": 27162.13500000002,
      "d": 97.12828124999942,
      "v": 110
    },
    {
      "midi": 35,
      "hit": false,
      "t": 27263.48624999997,
      "d": 97.12828124999942,
      "v": 110
    },
    {
      "midi": 75,
      "hit": false,
      "t": 27263.48625000002,
      "d": 97.12828124999942,
      "v": 110
    },
    {
      "midi": 35,
      "hit": false,
      "t": 27364.83749999997,
      "d": 198.47953124999913,
      "v": 110
    },
    {
      "midi": 75,
      "hit": false,
      "t": 27364.83750000002,
      "d": 198.47953124999913,
      "v": 110
    },
    {
      "midi": 35,
      "hit": false,
      "t": 27567.539999999968,
      "d": 97.12828124999942,
      "v": 110
    },
    {
      "midi": 75,
      "hit": false,
      "t": 27567.54000000002,
      "d": 97.12828124999942,
      "v": 110
    },
    {
      "midi": 35,
      "hit": false,
      "t": 27668.891249999968,
      "d": 97.12828124999942,
      "v": 110
    },
    {
      "midi": 75,
      "hit": false,
      "t": 27668.89125000002,
      "d": 97.12828124999942,
      "v": 110
    },
    {
      "midi": 35,
      "hit": false,
      "t": 27770.242499999968,
      "d": 198.47953124999913,
      "v": 110
    },
    {
      "midi": 75,
      "hit": false,
      "t": 27770.24250000002,
      "d": 198.47953124999913,
      "v": 110
    },
    {
      "midi": 35,
      "hit": false,
      "t": 28175.647499999966,
      "d": 97.12828124999942,
      "v": 110
    },
    {
      "midi": 75,
      "hit": false,
      "t": 28175.647500000017,
      "d": 97.12828124999942,
      "v": 110
    },
    {
      "midi": 35,
      "hit": false,
      "t": 28276.998749999966,
      "d": 97.12828124999942,
      "v": 110
    },
    {
      "midi": 75,
      "hit": false,
      "t": 28276.998750000017,
      "d": 97.12828124999942,
      "v": 110
    },
    {
      "midi": 35,
      "hit": false,
      "t": 28378.349999999966,
      "d": 337.83750000000146,
      "v": 110
    },
    {
      "midi": 75,
      "hit": false,
      "t": 28378.350000000017,
      "d": 337.83750000000146,
      "v": 110
    },
    {
      "midi": 34,
      "hit": false,
      "t": 29189.159999999967,
      "d": 97.12828124999942,
      "v": 110
    },
    {
      "midi": 68,
      "hit": false,
      "t": 29189.160000000018,
      "d": 97.12828124999942,
      "v": 110
    },
    {
      "midi": 34,
      "hit": false,
      "t": 29290.511249999967,
      "d": 97.12828124999942,
      "v": 110
    },
    {
      "midi": 68,
      "hit": false,
      "t": 29290.511250000018,
      "d": 97.12828124999942,
      "v": 110
    },
    {
      "midi": 34,
      "hit": false,
      "t": 29391.862499999967,
      "d": 198.47953124999913,
      "v": 110
    },
    {
      "midi": 68,
      "hit": false,
      "t": 29391.862500000017,
      "d": 198.47953124999913,
      "v": 110
    },
    {
      "midi": 34,
      "hit": false,
      "t": 29797.267499999965,
      "d": 97.12828124999942,
      "v": 110
    },
    {
      "midi": 68,
      "hit": false,
      "t": 29797.267500000016,
      "d": 97.12828124999942,
      "v": 110
    },
    {
      "midi": 34,
      "hit": false,
      "t": 29898.618749999965,
      "d": 97.12828124999942,
      "v": 110
    },
    {
      "midi": 68,
      "hit": false,
      "t": 29898.618750000016,
      "d": 97.12828124999942,
      "v": 110
    },
    {
      "midi": 34,
      "hit": false,
      "t": 29999.969999999965,
      "d": 337.83750000000146,
      "v": 110
    },
    {
      "midi": 68,
      "hit": false,
      "t": 29999.970000000016,
      "d": 337.83750000000146,
      "v": 110
    },
    {
      "midi": 34,
      "hit": false,
      "t": 30405.374999999967,
      "d": 97.12828124999942,
      "v": 110
    },
    {
      "midi": 68,
      "hit": false,
      "t": 30405.37500000002,
      "d": 97.12828124999942,
      "v": 110
    },
    {
      "midi": 34,
      "hit": false,
      "t": 30506.726249999967,
      "d": 97.12828124999942,
      "v": 110
    },
    {
      "midi": 68,
      "hit": false,
      "t": 30506.726250000018,
      "d": 97.12828124999942,
      "v": 110
    },
    {
      "midi": 34,
      "hit": false,
      "t": 30608.077499999967,
      "d": 198.47953124999913,
      "v": 110
    },
    {
      "midi": 68,
      "hit": false,
      "t": 30608.077500000018,
      "d": 198.47953124999913,
      "v": 110
    },
    {
      "midi": 34,
      "hit": false,
      "t": 30810.779999999966,
      "d": 97.12828124999942,
      "v": 110
    },
    {
      "midi": 68,
      "hit": false,
      "t": 30810.780000000017,
      "d": 97.12828124999942,
      "v": 110
    },
    {
      "midi": 34,
      "hit": false,
      "t": 30912.131249999966,
      "d": 97.12828124999942,
      "v": 110
    },
    {
      "midi": 68,
      "hit": false,
      "t": 30912.131250000017,
      "d": 97.12828124999942,
      "v": 110
    },
    {
      "midi": 34,
      "hit": false,
      "t": 31013.482499999966,
      "d": 198.47953124999913,
      "v": 110
    },
    {
      "midi": 68,
      "hit": false,
      "t": 31013.482500000016,
      "d": 198.47953124999913,
      "v": 110
    },
    {
      "midi": 34,
      "hit": false,
      "t": 31418.887499999964,
      "d": 97.12828124999942,
      "v": 110
    },
    {
      "midi": 68,
      "hit": false,
      "t": 31418.887500000015,
      "d": 97.12828124999942,
      "v": 110
    },
    {
      "midi": 34,
      "hit": false,
      "t": 31520.238749999964,
      "d": 97.12828124999942,
      "v": 110
    },
    {
      "midi": 68,
      "hit": false,
      "t": 31520.238750000015,
      "d": 97.12828124999942,
      "v": 110
    },
    {
      "midi": 34,
      "hit": false,
      "t": 31621.589999999964,
      "d": 337.83750000000146,
      "v": 110
    },
    {
      "midi": 68,
      "hit": false,
      "t": 31621.590000000015,
      "d": 337.83750000000146,
      "v": 110
    },
    {
      "midi": 65,
      "hit": false,
      "t": 32229.697500000017,
      "d": 97.12828124999942,
      "v": 110
    },
    {
      "midi": 68,
      "hit": false,
      "t": 32331.048750000016,
      "d": 97.12828124999942,
      "v": 110
    },
    {
      "midi": 39,
      "hit": false,
      "t": 32432.399999999965,
      "d": 198.47953124999913,
      "v": 110
    },
    {
      "midi": 70,
      "hit": false,
      "t": 32432.400000000016,
      "d": 1959.4574999999968,
      "v": 110
    },
    {
      "midi": 51,
      "hit": false,
      "t": 32635.102499999964,
      "d": 97.12828124999942,
      "v": 110
    },
    {
      "midi": 51,
      "hit": false,
      "t": 32736.453749999964,
      "d": 97.12828124999942,
      "v": 110
    },
    {
      "midi": 39,
      "hit": false,
      "t": 32837.804999999964,
      "d": 198.47953124999913,
      "v": 110
    },
    {
      "midi": 51,
      "hit": false,
      "t": 33040.50749999996,
      "d": 97.12828124999942,
      "v": 110
    },
    {
      "midi": 51,
      "hit": false,
      "t": 33141.85874999996,
      "d": 97.12828124999942,
      "v": 110
    },
    {
      "midi": 41,
      "hit": false,
      "t": 33243.20999999996,
      "d": 198.47953124999913,
      "v": 110
    },
    {
      "midi": 53,
      "hit": false,
      "t": 33445.91249999996,
      "d": 97.12828124999942,
      "v": 110
    },
    {
      "midi": 53,
      "hit": false,
      "t": 33547.26374999996,
      "d": 97.12828124999942,
      "v": 110
    },
    {
      "midi": 41,
      "hit": false,
      "t": 33648.61499999996,
      "d": 198.47953124999913,
      "v": 110
    },
    {
      "midi": 53,
      "hit": false,
      "t": 33851.31749999996,
      "d": 97.12828124999942,
      "v": 110
    },
    {
      "midi": 53,
      "hit": false,
      "t": 33952.66874999996,
      "d": 97.12828124999942,
      "v": 110
    },
    {
      "midi": 42,
      "hit": false,
      "t": 34054.01999999996,
      "d": 198.47953124999913,
      "v": 110
    },
    {
      "midi": 54,
      "hit": false,
      "t": 34256.72249999996,
      "d": 97.12828124999942,
      "v": 110
    },
    {
      "midi": 54,
      "hit": false,
      "t": 34358.07374999996,
      "d": 97.12828124999942,
      "v": 110
    },
    {
      "midi": 42,
      "hit": false,
      "t": 34459.42499999996,
      "d": 198.47953124999913,
      "v": 110
    },
    {
      "midi": 70,
      "hit": false,
      "t": 34459.42500000001,
      "d": 337.83750000000146,
      "v": 110
    },
    {
      "midi": 54,
      "hit": false,
      "t": 34662.12749999996,
      "d": 97.12828124999942,
      "v": 110
    },
    {
      "midi": 54,
      "hit": false,
      "t": 34763.47874999996,
      "d": 97.12828124999942,
      "v": 110
    },
    {
      "midi": 41,
      "hit": false,
      "t": 34864.82999999996,
      "d": 198.47953124999913,
      "v": 110
    },
    {
      "midi": 72,
      "hit": false,
      "t": 34864.83000000001,
      "d": 337.83750000000146,
      "v": 110
    },
    {
      "midi": 53,
      "hit": false,
      "t": 35067.53249999996,
      "d": 97.12828124999942,
      "v": 110
    },
    {
      "midi": 53,
      "hit": false,
      "t": 35168.88374999996,
      "d": 97.12828124999942,
      "v": 110
    },
    {
      "midi": 41,
      "hit": false,
      "t": 35270.23499999996,
      "d": 198.47953124999913,
      "v": 110
    },
    {
      "midi": 73,
      "hit": false,
      "t": 35270.23500000001,
      "d": 337.83750000000146,
      "v": 110
    },
    {
      "midi": 53,
      "hit": false,
      "t": 35472.937499999956,
      "d": 97.12828124999942,
      "v": 110
    },
    {
      "midi": 53,
      "hit": false,
      "t": 35574.288749999956,
      "d": 97.12828124999942,
      "v": 110
    },
    {
      "midi": 39,
      "hit": false,
      "t": 35675.639999999956,
      "d": 198.47953124999913,
      "v": 110
    },
    {
      "midi": 72,
      "hit": false,
      "t": 35675.64000000001,
      "d": 299.83078124999884,
      "v": 110
    },
    {
      "midi": 51,
      "hit": false,
      "t": 35878.342499999955,
      "d": 97.12828124999942,
      "v": 110
    },
    {
      "midi": 51,
      "hit": false,
      "t": 35979.693749999955,
      "d": 97.12828124999942,
      "v": 110
    },
    {
      "midi": 70,
      "hit": false,
      "t": 35979.693750000006,
      "d": 299.83078124999884,
      "v": 110
    },
    {
      "midi": 39,
      "hit": false,
      "t": 36081.044999999955,
      "d": 198.47953124999913,
      "v": 110
    },
    {
      "midi": 51,
      "hit": false,
      "t": 36283.747499999954,
      "d": 97.12828124999942,
      "v": 110
    },
    {
      "midi": 68,
      "hit": false,
      "t": 36283.747500000005,
      "d": 198.47953124999913,
      "v": 110
    },
    {
      "midi": 51,
      "hit": false,
      "t": 36385.098749999954,
      "d": 97.12828124999942,
      "v": 110
    },
    {
      "midi": 41,
      "hit": false,
      "t": 36486.44999999995,
      "d": 198.47953124999913,
      "v": 110
    },
    {
      "midi": 70,
      "hit": false,
      "t": 36486.450000000004,
      "d": 2225.5045312500006,
      "v": 110
    },
    {
      "midi": 53,
      "hit": false,
      "t": 36689.15249999995,
      "d": 97.12828124999942,
      "v": 110
    },
    {
      "midi": 53,
      "hit": false,
      "t": 36790.50374999995,
      "d": 97.12828124999942,
      "v": 110
    },
    {
      "midi": 41,
      "hit": false,
      "t": 36891.85499999995,
      "d": 198.47953124999913,
      "v": 110
    },
    {
      "midi": 53,
      "hit": false,
      "t": 37094.55749999995,
      "d": 97.12828124999942,
      "v": 110
    },
    {
      "midi": 53,
      "hit": false,
      "t": 37195.90874999995,
      "d": 97.12828124999942,
      "v": 110
    },
    {
      "midi": 42,
      "hit": false,
      "t": 37297.25999999995,
      "d": 198.47953124999913,
      "v": 110
    },
    {
      "midi": 54,
      "hit": false,
      "t": 37499.96249999995,
      "d": 97.12828124999942,
      "v": 110
    },
    {
      "midi": 54,
      "hit": false,
      "t": 37601.31374999995,
      "d": 97.12828124999942,
      "v": 110
    },
    {
      "midi": 42,
      "hit": false,
      "t": 37702.66499999995,
      "d": 198.47953124999913,
      "v": 110
    },
    {
      "midi": 54,
      "hit": false,
      "t": 37905.36749999995,
      "d": 97.12828124999942,
      "v": 110
    },
    {
      "midi": 54,
      "hit": false,
      "t": 38006.71874999995,
      "d": 97.12828124999942,
      "v": 110
    },
    {
      "midi": 41,
      "hit": false,
      "t": 38108.06999999995,
      "d": 198.47953124999913,
      "v": 110
    },
    {
      "midi": 53,
      "hit": false,
      "t": 38310.77249999995,
      "d": 97.12828124999942,
      "v": 110
    },
    {
      "midi": 53,
      "hit": false,
      "t": 38412.12374999995,
      "d": 97.12828124999942,
      "v": 110
    },
    {
      "midi": 41,
      "hit": false,
      "t": 38513.47499999995,
      "d": 198.47953124999913,
      "v": 110
    },
    {
      "midi": 53,
      "hit": false,
      "t": 38716.17749999995,
      "d": 97.12828124999942,
      "v": 110
    },
    {
      "midi": 65,
      "hit": false,
      "t": 38716.177500000005,
      "d": 97.12828124999942,
      "v": 110
    },
    {
      "midi": 53,
      "hit": false,
      "t": 38817.52874999995,
      "d": 97.12828124999942,
      "v": 110
    },
    {
      "midi": 68,
      "hit": false,
      "t": 38817.528750000005,
      "d": 97.12828124999942,
      "v": 110
    },
    {
      "midi": 39,
      "hit": false,
      "t": 38918.87999999995,
      "d": 198.47953124999913,
      "v": 110
    },
    {
      "midi": 70,
      "hit": false,
      "t": 38918.880000000005,
      "d": 1959.4574999999968,
      "v": 110
    },
    {
      "midi": 51,
      "hit": false,
      "t": 39121.582499999946,
      "d": 97.12828124999942,
      "v": 110
    },
    {
      "midi": 51,
      "hit": false,
      "t": 39222.933749999946,
      "d": 97.12828124999942,
      "v": 110
    },
    {
      "midi": 39,
      "hit": false,
      "t": 39324.284999999945,
      "d": 198.47953124999913,
      "v": 110
    },
    {
      "midi": 51,
      "hit": false,
      "t": 39526.987499999945,
      "d": 97.12828124999942,
      "v": 110
    },
    {
      "midi": 51,
      "hit": false,
      "t": 39628.338749999944,
      "d": 97.12828124999942,
      "v": 110
    },
    {
      "midi": 41,
      "hit": false,
      "t": 39729.689999999944,
      "d": 198.47953124999913,
      "v": 110
    },
    {
      "midi": 53,
      "hit": false,
      "t": 39932.39249999994,
      "d": 97.12828124999942,
      "v": 110
    },
    {
      "midi": 53,
      "hit": false,
      "t": 40033.74374999994,
      "d": 97.12828124999942,
      "v": 110
    },
    {
      "midi": 41,
      "hit": false,
      "t": 40135.09499999994,
      "d": 198.47953124999913,
      "v": 110
    },
    {
      "midi": 53,
      "hit": false,
      "t": 40337.79749999994,
      "d": 97.12828124999942,
      "v": 110
    },
    {
      "midi": 53,
      "hit": false,
      "t": 40439.14874999994,
      "d": 97.12828124999942,
      "v": 110
    },
    {
      "midi": 42,
      "hit": false,
      "t": 40540.49999999994,
      "d": 198.47953124999913,
      "v": 110
    },
    {
      "midi": 54,
      "hit": false,
      "t": 40743.20249999994,
      "d": 97.12828124999942,
      "v": 110
    },
    {
      "midi": 54,
      "hit": false,
      "t": 40844.55374999994,
      "d": 97.12828124999942,
      "v": 110
    },
    {
      "midi": 42,
      "hit": false,
      "t": 40945.90499999994,
      "d": 198.47953124999913,
      "v": 110
    },
    {
      "midi": 70,
      "hit": false,
      "t": 40945.905,
      "d": 337.83750000000146,
      "v": 110
    },
    {
      "midi": 54,
      "hit": false,
      "t": 41148.60749999994,
      "d": 97.12828124999942,
      "v": 110
    },
    {
      "midi": 54,
      "hit": false,
      "t": 41249.95874999994,
      "d": 97.12828124999942,
      "v": 110
    },
    {
      "midi": 41,
      "hit": false,
      "t": 41351.30999999994,
      "d": 198.47953124999913,
      "v": 110
    },
    {
      "midi": 72,
      "hit": false,
      "t": 41351.31,
      "d": 337.83750000000146,
      "v": 110
    },
    {
      "midi": 53,
      "hit": false,
      "t": 41554.01249999994,
      "d": 97.12828124999942,
      "v": 110
    },
    {
      "midi": 53,
      "hit": false,
      "t": 41655.36374999994,
      "d": 97.12828124999942,
      "v": 110
    },
    {
      "midi": 41,
      "hit": false,
      "t": 41756.71499999994,
      "d": 198.47953124999913,
      "v": 110
    },
    {
      "midi": 73,
      "hit": false,
      "t": 41756.715,
      "d": 337.83750000000146,
      "v": 110
    },
    {
      "midi": 53,
      "hit": false,
      "t": 41959.41749999994,
      "d": 97.12828124999942,
      "v": 110
    },
    {
      "midi": 53,
      "hit": false,
      "t": 42060.76874999994,
      "d": 97.12828124999942,
      "v": 110
    },
    {
      "midi": 39,
      "hit": false,
      "t": 42162.11999999994,
      "d": 198.47953124999913,
      "v": 110
    },
    {
      "midi": 72,
      "hit": false,
      "t": 42162.119999999995,
      "d": 299.83078124999884,
      "v": 110
    },
    {
      "midi": 51,
      "hit": false,
      "t": 42364.82249999994,
      "d": 97.12828124999942,
      "v": 110
    },
    {
      "midi": 51,
      "hit": false,
      "t": 42466.173749999936,
      "d": 97.12828124999942,
      "v": 110
    },
    {
      "midi": 75,
      "hit": false,
      "t": 42466.173749999994,
      "d": 299.83078124999884,
      "v": 110
    },
    {
      "midi": 39,
      "hit": false,
      "t": 42567.524999999936,
      "d": 198.47953124999913,
      "v": 110
    },
    {
      "midi": 51,
      "hit": false,
      "t": 42770.227499999935,
      "d": 97.12828124999942,
      "v": 110
    },
    {
      "midi": 72,
      "hit": false,
      "t": 42770.22749999999,
      "d": 198.47953124999913,
      "v": 110
    },
    {
      "midi": 51,
      "hit": false,
      "t": 42871.578749999935,
      "d": 97.12828124999942,
      "v": 110
    },
    {
      "midi": 41,
      "hit": false,
      "t": 42972.929999999935,
      "d": 198.47953124999913,
      "v": 110
    },
    {
      "midi": 70,
      "hit": false,
      "t": 42972.92999999999,
      "d": 2225.5045312500006,
      "v": 110
    },
    {
      "midi": 53,
      "hit": false,
      "t": 43175.632499999934,
      "d": 97.12828124999942,
      "v": 110
    },
    {
      "midi": 53,
      "hit": false,
      "t": 43276.983749999934,
      "d": 97.12828124999942,
      "v": 110
    },
    {
      "midi": 41,
      "hit": false,
      "t": 43378.334999999934,
      "d": 198.47953124999913,
      "v": 110
    },
    {
      "midi": 53,
      "hit": false,
      "t": 43581.03749999993,
      "d": 97.12828124999942,
      "v": 110
    },
    {
      "midi": 53,
      "hit": false,
      "t": 43682.38874999993,
      "d": 97.12828124999942,
      "v": 110
    },
    {
      "midi": 42,
      "hit": false,
      "t": 43783.73999999993,
      "d": 198.47953124999913,
      "v": 110
    },
    {
      "midi": 54,
      "hit": false,
      "t": 43986.44249999993,
      "d": 97.12828124999942,
      "v": 110
    },
    {
      "midi": 54,
      "hit": false,
      "t": 44087.79374999993,
      "d": 97.12828124999942,
      "v": 110
    },
    {
      "midi": 42,
      "hit": false,
      "t": 44189.14499999993,
      "d": 198.47953124999913,
      "v": 110
    },
    {
      "midi": 54,
      "hit": false,
      "t": 44391.84749999993,
      "d": 97.12828124999942,
      "v": 110
    },
    {
      "midi": 54,
      "hit": false,
      "t": 44493.19874999993,
      "d": 97.12828124999942,
      "v": 110
    },
    {
      "midi": 41,
      "hit": false,
      "t": 44594.54999999993,
      "d": 198.47953124999913,
      "v": 110
    },
    {
      "midi": 53,
      "hit": false,
      "t": 44797.25249999993,
      "d": 97.12828124999942,
      "v": 110
    },
    {
      "midi": 53,
      "hit": false,
      "t": 44898.60374999993,
      "d": 97.12828124999942,
      "v": 110
    },
    {
      "midi": 37,
      "hit": false,
      "t": 44999.95499999993,
      "d": 198.47953124999913,
      "v": 110
    },
    {
      "midi": 49,
      "hit": false,
      "t": 45202.65749999993,
      "d": 97.12828124999942,
      "v": 110
    },
    {
      "midi": 65,
      "hit": false,
      "t": 45202.657499999994,
      "d": 97.12828124999942,
      "v": 110
    },
    {
      "midi": 49,
      "hit": false,
      "t": 45304.00874999993,
      "d": 97.12828124999942,
      "v": 110
    },
    {
      "midi": 68,
      "hit": false,
      "t": 45304.00874999999,
      "d": 97.12828124999942,
      "v": 110
    },
    {
      "midi": 35,
      "hit": false,
      "t": 45405.35999999993,
      "d": 198.47953124999913,
      "v": 110
    },
    {
      "midi": 70,
      "hit": false,
      "t": 45405.35999999999,
      "d": 1009.2895312499968,
      "v": 110
    },
    {
      "midi": 47,
      "hit": false,
      "t": 45608.06249999993,
      "d": 97.12828124999942,
      "v": 110
    },
    {
      "midi": 47,
      "hit": false,
      "t": 45709.41374999993,
      "d": 97.12828124999942,
      "v": 110
    },
    {
      "midi": 35,
      "hit": false,
      "t": 45810.76499999993,
      "d": 198.47953124999913,
      "v": 110
    },
    {
      "midi": 47,
      "hit": false,
      "t": 46013.467499999926,
      "d": 97.12828124999942,
      "v": 110
    },
    {
      "midi": 47,
      "hit": false,
      "t": 46114.818749999926,
      "d": 97.12828124999942,
      "v": 110
    },
    {
      "midi": 35,
      "hit": false,
      "t": 46216.169999999925,
      "d": 198.47953124999913,
      "v": 110
    },
    {
      "midi": 47,
      "hit": false,
      "t": 46418.872499999925,
      "d": 97.12828124999942,
      "v": 110
    },
    {
      "midi": 70,
      "hit": false,
      "t": 46418.87249999999,
      "d": 198.47953124999913,
      "v": 110
    },
    {
      "midi": 47,
      "hit": false,
      "t": 46520.223749999925,
      "d": 97.12828124999942,
      "v": 110
    },
    {
      "midi": 35,
      "hit": false,
      "t": 46621.574999999924,
      "d": 198.47953124999913,
      "v": 110
    },
    {
      "midi": 68,
      "hit": false,
      "t": 46621.57499999999,
      "d": 198.47953124999913,
      "v": 110
    },
    {
      "midi": 47,
      "hit": false,
      "t": 46824.277499999924,
      "d": 97.12828124999942,
      "v": 110
    },
    {
      "midi": 66,
      "hit": false,
      "t": 46824.27749999999,
      "d": 198.47953124999913,
      "v": 110
    },
    {
      "midi": 47,
      "hit": false,
      "t": 46925.62874999992,
      "d": 97.12828124999942,
      "v": 110
    },
    {
      "midi": 37,
      "hit": false,
      "t": 47026.97999999992,
      "d": 198.47953124999913,
      "v": 110
    },
    {
      "midi": 68,
      "hit": false,
      "t": 47026.97999999999,
      "d": 337.83750000000146,
      "v": 110
    },
    {
      "midi": 49,
      "hit": false,
      "t": 47229.68249999992,
      "d": 97.12828124999942,
      "v": 110
    },
    {
      "midi": 49,
      "hit": false,
      "t": 47331.03374999992,
      "d": 97.12828124999942,
      "v": 110
    },
    {
      "midi": 37,
      "hit": false,
      "t": 47432.38499999992,
      "d": 198.47953124999913,
      "v": 110
    },
    {
      "midi": 65,
      "hit": false,
      "t": 47432.38499999999,
      "d": 198.47953124999913,
      "v": 110
    },
    {
      "midi": 49,
      "hit": false,
      "t": 47635.08749999992,
      "d": 97.12828124999942,
      "v": 110
    },
    {
      "midi": 61,
      "hit": false,
      "t": 47635.08749999999,
      "d": 401.18203124999854,
      "v": 110
    },
    {
      "midi": 49,
      "hit": false,
      "t": 47736.43874999992,
      "d": 97.12828124999942,
      "v": 110
    },
    {
      "midi": 37,
      "hit": false,
      "t": 47837.78999999992,
      "d": 198.47953124999913,
      "v": 110
    },
    {
      "midi": 49,
      "hit": false,
      "t": 48040.49249999992,
      "d": 97.12828124999942,
      "v": 110
    },
    {
      "midi": 63,
      "hit": false,
      "t": 48040.492499999986,
      "d": 198.47953124999913,
      "v": 110
    },
    {
      "midi": 49,
      "hit": false,
      "t": 48141.84374999992,
      "d": 97.12828124999942,
      "v": 110
    },
    {
      "midi": 37,
      "hit": false,
      "t": 48243.19499999992,
      "d": 198.47953124999913,
      "v": 110
    },
    {
      "midi": 65,
      "hit": false,
      "t": 48243.194999999985,
      "d": 198.47953124999913,
      "v": 110
    },
    {
      "midi": 49,
      "hit": false,
      "t": 48445.89749999992,
      "d": 97.12828124999942,
      "v": 110
    },
    {
      "midi": 66,
      "hit": false,
      "t": 48445.897499999985,
      "d": 198.47953124999913,
      "v": 110
    },
    {
      "midi": 49,
      "hit": false,
      "t": 48547.24874999992,
      "d": 97.12828124999942,
      "v": 110
    },
    {
      "midi": 32,
      "hit": false,
      "t": 48648.59999999992,
      "d": 198.47953124999913,
      "v": 110
    },
    {
      "midi": 65,
      "hit": false,
      "t": 48648.599999999984,
      "d": 540.5400000000009,
      "v": 110
    },
    {
      "midi": 44,
      "hit": false,
      "t": 48851.30249999992,
      "d": 97.12828124999942,
      "v": 110
    },
    {
      "midi": 44,
      "hit": false,
      "t": 48952.65374999992,
      "d": 97.12828124999942,
      "v": 110
    },
    {
      "midi": 32,
      "hit": false,
      "t": 49054.00499999992,
      "d": 198.47953124999913,
      "v": 110
    },
    {
      "midi": 44,
      "hit": false,
      "t": 49256.70749999992,
      "d": 97.12828124999942,
      "v": 110
    },
    {
      "midi": 63,
      "hit": false,
      "t": 49256.70749999998,
      "d": 97.12828124999942,
      "v": 110
    },
    {
      "midi": 44,
      "hit": false,
      "t": 49358.05874999992,
      "d": 97.12828124999942,
      "v": 110
    },
    {
      "midi": 61,
      "hit": false,
      "t": 49358.05874999998,
      "d": 97.12828124999942,
      "v": 110
    },
    {
      "midi": 32,
      "hit": false,
      "t": 49459.409999999916,
      "d": 198.47953124999913,
      "v": 110
    },
    {
      "midi": 63,
      "hit": false,
      "t": 49459.40999999998,
      "d": 2225.5045312500006,
      "v": 110
    },
    {
      "midi": 44,
      "hit": false,
      "t": 49662.112499999916,
      "d": 97.12828124999942,
      "v": 110
    },
    {
      "midi": 44,
      "hit": false,
      "t": 49763.463749999915,
      "d": 97.12828124999942,
      "v": 110
    },
    {
      "midi": 32,
      "hit": false,
      "t": 49864.814999999915,
      "d": 198.47953124999913,
      "v": 110
    },
    {
      "midi": 44,
      "hit": false,
      "t": 50067.517499999914,
      "d": 97.12828124999942,
      "v": 110
    },
    {
      "midi": 44,
      "hit": false,
      "t": 50168.868749999914,
      "d": 97.12828124999942,
      "v": 110
    },
    {
      "midi": 35,
      "hit": false,
      "t": 50270.219999999914,
      "d": 198.47953124999913,
      "v": 110
    },
    {
      "midi": 47,
      "hit": false,
      "t": 50472.92249999991,
      "d": 97.12828124999942,
      "v": 110
    },
    {
      "midi": 47,
      "hit": false,
      "t": 50574.27374999991,
      "d": 97.12828124999942,
      "v": 110
    },
    {
      "midi": 35,
      "hit": false,
      "t": 50675.62499999991,
      "d": 198.47953124999913,
      "v": 110
    },
    {
      "midi": 47,
      "hit": false,
      "t": 50878.32749999991,
      "d": 97.12828124999942,
      "v": 110
    },
    {
      "midi": 47,
      "hit": false,
      "t": 50979.67874999991,
      "d": 97.12828124999942,
      "v": 110
    },
    {
      "midi": 37,
      "hit": false,
      "t": 51081.02999999991,
      "d": 198.47953124999913,
      "v": 110
    },
    {
      "midi": 49,
      "hit": false,
      "t": 51283.73249999991,
      "d": 97.12828124999942,
      "v": 110
    },
    {
      "midi": 49,
      "hit": false,
      "t": 51385.08374999991,
      "d": 97.12828124999942,
      "v": 110
    },
    {
      "midi": 37,
      "hit": false,
      "t": 51486.43499999991,
      "d": 97.12828124999942,
      "v": 110
    },
    {
      "midi": 37,
      "hit": false,
      "t": 51587.78624999991,
      "d": 97.12828124999942,
      "v": 110
    },
    {
      "midi": 49,
      "hit": false,
      "t": 51689.13749999991,
      "d": 97.12828124999942,
      "v": 110
    },
    {
      "midi": 65,
      "hit": false,
      "t": 51689.13749999998,
      "d": 97.12828124999942,
      "v": 110
    },
    {
      "midi": 49,
      "hit": false,
      "t": 51790.48874999991,
      "d": 97.12828124999942,
      "v": 110
    },
    {
      "midi": 68,
      "hit": false,
      "t": 51790.48874999998,
      "d": 97.12828124999942,
      "v": 110
    },
    {
      "midi": 35,
      "hit": false,
      "t": 51891.83999999991,
      "d": 198.47953124999913,
      "v": 110
    },
    {
      "midi": 70,
      "hit": false,
      "t": 51891.83999999998,
      "d": 1009.2895312499968,
      "v": 110
    },
    {
      "midi": 47,
      "hit": false,
      "t": 52094.54249999991,
      "d": 97.12828124999942,
      "v": 110
    },
    {
      "midi": 47,
      "hit": false,
      "t": 52195.89374999991,
      "d": 97.12828124999942,
      "v": 110
    },
    {
      "midi": 35,
      "hit": false,
      "t": 52297.24499999991,
      "d": 198.47953124999913,
      "v": 110
    },
    {
      "midi": 47,
      "hit": false,
      "t": 52499.94749999991,
      "d": 97.12828124999942,
      "v": 110
    },
    {
      "midi": 47,
      "hit": false,
      "t": 52601.29874999991,
      "d": 97.12828124999942,
      "v": 110
    },
    {
      "midi": 35,
      "hit": false,
      "t": 52702.64999999991,
      "d": 198.47953124999913,
      "v": 110
    },
    {
      "midi": 47,
      "hit": false,
      "t": 52905.352499999906,
      "d": 97.12828124999942,
      "v": 110
    },
    {
      "midi": 70,
      "hit": false,
      "t": 52905.35249999998,
      "d": 198.47953124999913,
      "v": 110
    },
    {
      "midi": 47,
      "hit": false,
      "t": 53006.703749999906,
      "d": 97.12828124999942,
      "v": 110
    },
    {
      "midi": 35,
      "hit": false,
      "t": 53108.054999999906,
      "d": 198.47953124999913,
      "v": 110
    },
    {
      "midi": 68,
      "hit": false,
      "t": 53108.05499999998,
      "d": 198.47953124999913,
      "v": 110
    },
    {
      "midi": 47,
      "hit": false,
      "t": 53310.757499999905,
      "d": 97.12828124999942,
      "v": 110
    },
    {
      "midi": 66,
      "hit": false,
      "t": 53310.75749999998,
      "d": 198.47953124999913,
      "v": 110
    },
    {
      "midi": 47,
      "hit": false,
      "t": 53412.108749999905,
      "d": 97.12828124999942,
      "v": 110
    },
    {
      "midi": 37,
      "hit": false,
      "t": 53513.459999999905,
      "d": 198.47953124999913,
      "v": 110
    },
    {
      "midi": 68,
      "hit": false,
      "t": 53513.45999999998,
      "d": 337.83750000000146,
      "v": 110
    },
    {
      "midi": 49,
      "hit": false,
      "t": 53716.162499999904,
      "d": 97.12828124999942,
      "v": 110
    },
    {
      "midi": 49,
      "hit": false,
      "t": 53817.513749999904,
      "d": 97.12828124999942,
      "v": 110
    },
    {
      "midi": 37,
      "hit": false,
      "t": 53918.8649999999,
      "d": 198.47953124999913,
      "v": 110
    },
    {
      "midi": 65,
      "hit": false,
      "t": 53918.864999999976,
      "d": 198.47953124999913,
      "v": 110
    },
    {
      "midi": 49,
      "hit": false,
      "t": 54121.5674999999,
      "d": 97.12828124999942,
      "v": 110
    },
    {
      "midi": 61,
      "hit": false,
      "t": 54121.567499999976,
      "d": 401.18203124999854,
      "v": 110
    },
    {
      "midi": 49,
      "hit": false,
      "t": 54222.9187499999,
      "d": 97.12828124999942,
      "v": 110
    },
    {
      "midi": 37,
      "hit": false,
      "t": 54324.2699999999,
      "d": 198.47953124999913,
      "v": 110
    },
    {
      "midi": 49,
      "hit": false,
      "t": 54526.9724999999,
      "d": 97.12828124999942,
      "v": 110
    },
    {
      "midi": 63,
      "hit": false,
      "t": 54526.972499999974,
      "d": 198.47953124999913,
      "v": 110
    },
    {
      "midi": 49,
      "hit": false,
      "t": 54628.3237499999,
      "d": 97.12828124999942,
      "v": 110
    },
    {
      "midi": 37,
      "hit": false,
      "t": 54729.6749999999,
      "d": 198.47953124999913,
      "v": 110
    },
    {
      "midi": 65,
      "hit": false,
      "t": 54729.674999999974,
      "d": 198.47953124999913,
      "v": 110
    },
    {
      "midi": 49,
      "hit": false,
      "t": 54932.3774999999,
      "d": 97.12828124999942,
      "v": 110
    },
    {
      "midi": 66,
      "hit": false,
      "t": 54932.37749999997,
      "d": 198.47953124999913,
      "v": 110
    },
    {
      "midi": 49,
      "hit": false,
      "t": 55033.7287499999,
      "d": 97.12828124999942,
      "v": 110
    },
    {
      "midi": 32,
      "hit": false,
      "t": 55135.0799999999,
      "d": 198.47953124999913,
      "v": 110
    },
    {
      "midi": 65,
      "hit": false,
      "t": 55135.07999999997,
      "d": 540.5400000000009,
      "v": 110
    },
    {
      "midi": 44,
      "hit": false,
      "t": 55337.7824999999,
      "d": 97.12828124999942,
      "v": 110
    },
    {
      "midi": 44,
      "hit": false,
      "t": 55439.1337499999,
      "d": 97.12828124999942,
      "v": 110
    },
    {
      "midi": 32,
      "hit": false,
      "t": 55540.4849999999,
      "d": 198.47953124999913,
      "v": 110
    },
    {
      "midi": 44,
      "hit": false,
      "t": 55743.1874999999,
      "d": 97.12828124999942,
      "v": 110
    },
    {
      "midi": 63,
      "hit": false,
      "t": 55743.18749999997,
      "d": 97.12828124999942,
      "v": 110
    },
    {
      "midi": 44,
      "hit": false,
      "t": 55844.5387499999,
      "d": 97.12828124999942,
      "v": 110
    },
    {
      "midi": 61,
      "hit": false,
      "t": 55844.53874999997,
      "d": 97.12828124999942,
      "v": 110
    },
    {
      "midi": 32,
      "hit": false,
      "t": 55945.8899999999,
      "d": 198.47953124999913,
      "v": 110
    },
    {
      "midi": 63,
      "hit": false,
      "t": 55945.88999999997,
      "d": 540.5400000000009,
      "v": 110
    },
    {
      "midi": 44,
      "hit": false,
      "t": 56148.5924999999,
      "d": 97.12828124999942,
      "v": 110
    },
    {
      "midi": 44,
      "hit": false,
      "t": 56249.9437499999,
      "d": 97.12828124999942,
      "v": 110
    },
    {
      "midi": 32,
      "hit": false,
      "t": 56351.2949999999,
      "d": 198.47953124999913,
      "v": 110
    },
    {
      "midi": 44,
      "hit": false,
      "t": 56553.997499999896,
      "d": 97.12828124999942,
      "v": 110
    },
    {
      "midi": 63,
      "hit": false,
      "t": 56553.99749999997,
      "d": 97.12828124999942,
      "v": 110
    },
    {
      "midi": 44,
      "hit": false,
      "t": 56655.348749999896,
      "d": 97.12828124999942,
      "v": 110
    },
    {
      "midi": 65,
      "hit": false,
      "t": 56655.34874999997,
      "d": 97.12828124999942,
      "v": 110
    },
    {
      "midi": 35,
      "hit": false,
      "t": 56756.699999999895,
      "d": 198.47953124999913,
      "v": 110
    },
    {
      "midi": 66,
      "hit": false,
      "t": 56756.69999999997,
      "d": 299.83078124999884,
      "v": 110
    },
    {
      "midi": 47,
      "hit": false,
      "t": 56959.402499999895,
      "d": 97.12828124999942,
      "v": 110
    },
    {
      "midi": 35,
      "hit": false,
      "t": 57060.753749999894,
      "d": 198.47953124999913,
      "v": 110
    },
    {
      "midi": 66,
      "hit": false,
      "t": 57060.75374999997,
      "d": 299.83078124999884,
      "v": 110
    },
    {
      "midi": 35,
      "hit": false,
      "t": 57263.456249999894,
      "d": 97.12828124999942,
      "v": 110
    },
    {
      "midi": 47,
      "hit": false,
      "t": 57364.80749999989,
      "d": 97.12828124999942,
      "v": 110
    },
    {
      "midi": 66,
      "hit": false,
      "t": 57364.807499999966,
      "d": 97.12828124999942,
      "v": 110
    },
    {
      "midi": 47,
      "hit": false,
      "t": 57466.15874999989,
      "d": 97.12828124999942,
      "v": 110
    },
    {
      "midi": 66,
      "hit": false,
      "t": 57466.158749999966,
      "d": 97.12828124999942,
      "v": 110
    },
    {
      "midi": 37,
      "hit": false,
      "t": 57567.50999999989,
      "d": 198.47953124999913,
      "v": 110
    },
    {
      "midi": 68,
      "hit": false,
      "t": 57567.509999999966,
      "d": 299.83078124999884,
      "v": 110
    },
    {
      "midi": 49,
      "hit": false,
      "t": 57770.21249999989,
      "d": 97.12828124999942,
      "v": 110
    },
    {
      "midi": 37,
      "hit": false,
      "t": 57871.56374999989,
      "d": 198.47953124999913,
      "v": 110
    },
    {
      "midi": 68,
      "hit": false,
      "t": 57871.563749999965,
      "d": 299.83078124999884,
      "v": 110
    },
    {
      "midi": 37,
      "hit": false,
      "t": 58074.26624999989,
      "d": 97.12828124999942,
      "v": 110
    },
    {
      "midi": 38,
      "hit": false,
      "t": 58175.61749999989,
      "d": 97.12828124999942,
      "v": 110
    },
    {
      "midi": 68,
      "hit": false,
      "t": 58175.617499999964,
      "d": 97.12828124999942,
      "v": 110
    },
    {
      "midi": 39,
      "hit": false,
      "t": 58276.96874999989,
      "d": 97.12828124999942,
      "v": 110
    },
    {
      "midi": 68,
      "hit": false,
      "t": 58276.96874999996,
      "d": 97.12828124999942,
      "v": 110
    },
    {
      "midi": 40,
      "hit": false,
      "t": 58378.31999999989,
      "d": 198.47953124999913,
      "v": 110
    },
    {
      "midi": 68,
      "hit": false,
      "t": 58378.31999999996,
      "d": 1414.694531250003,
      "v": 110
    },
    {
      "midi": 40,
      "hit": false,
      "t": 58581.02249999989,
      "d": 97.12828124999942,
      "v": 110
    },
    {
      "midi": 40,
      "hit": false,
      "t": 58682.37374999989,
      "d": 97.12828124999942,
      "v": 110
    },
    {
      "midi": 40,
      "hit": false,
      "t": 58783.72499999989,
      "d": 198.47953124999913,
      "v": 110
    },
    {
      "midi": 40,
      "hit": false,
      "t": 58986.42749999989,
      "d": 97.12828124999942,
      "v": 110
    },
    {
      "midi": 40,
      "hit": false,
      "t": 59087.77874999989,
      "d": 97.12828124999942,
      "v": 110
    },
    {
      "midi": 40,
      "hit": false,
      "t": 59189.12999999989,
      "d": 198.47953124999913,
      "v": 110
    },
    {
      "midi": 40,
      "hit": false,
      "t": 59391.83249999989,
      "d": 97.12828124999942,
      "v": 110
    },
    {
      "midi": 40,
      "hit": false,
      "t": 59493.18374999989,
      "d": 97.12828124999942,
      "v": 110
    },
    {
      "midi": 40,
      "hit": false,
      "t": 59594.53499999989,
      "d": 97.12828124999942,
      "v": 110
    },
    {
      "midi": 40,
      "hit": false,
      "t": 59695.88624999989,
      "d": 97.12828124999942,
      "v": 110
    },
    {
      "midi": 40,
      "hit": false,
      "t": 59797.23749999989,
      "d": 97.12828124999942,
      "v": 110
    },
    {
      "midi": 61,
      "hit": false,
      "t": 59797.23749999997,
      "d": 97.12828124999942,
      "v": 110
    },
    {
      "midi": 40,
      "hit": false,
      "t": 59898.588749999886,
      "d": 97.12828124999942,
      "v": 110
    },
    {
      "midi": 71,
      "hit": false,
      "t": 59898.588749999966,
      "d": 97.12828124999942,
      "v": 110
    },
    {
      "midi": 40,
      "hit": false,
      "t": 59999.939999999886,
      "d": 198.47953124999913,
      "v": 110
    },
    {
      "midi": 68,
      "hit": false,
      "t": 59999.939999999966,
      "d": 540.5400000000009,
      "v": 110
    },
    {
      "midi": 40,
      "hit": false,
      "t": 60202.642499999885,
      "d": 97.12828124999942,
      "v": 110
    },
    {
      "midi": 40,
      "hit": false,
      "t": 60303.993749999885,
      "d": 97.12828124999942,
      "v": 110
    },
    {
      "midi": 40,
      "hit": false,
      "t": 60405.344999999885,
      "d": 198.47953124999913,
      "v": 110
    },
    {
      "midi": 40,
      "hit": false,
      "t": 60608.047499999884,
      "d": 97.12828124999942,
      "v": 110
    },
    {
      "midi": 64,
      "hit": false,
      "t": 60608.047499999964,
      "d": 97.12828124999942,
      "v": 110
    },
    {
      "midi": 40,
      "hit": false,
      "t": 60709.398749999884,
      "d": 97.12828124999942,
      "v": 110
    },
    {
      "midi": 66,
      "hit": false,
      "t": 60709.398749999964,
      "d": 97.12828124999942,
      "v": 110
    },
    {
      "midi": 40,
      "hit": false,
      "t": 60810.74999999988,
      "d": 198.47953124999913,
      "v": 110
    },
    {
      "midi": 68,
      "hit": false,
      "t": 60810.74999999996,
      "d": 198.47953124999913,
      "v": 110
    },
    {
      "midi": 40,
      "hit": false,
      "t": 61013.45249999988,
      "d": 97.12828124999942,
      "v": 110
    },
    {
      "midi": 66,
      "hit": false,
      "t": 61013.45249999996,
      "d": 198.47953124999913,
      "v": 110
    },
    {
      "midi": 40,
      "hit": false,
      "t": 61114.80374999988,
      "d": 97.12828124999942,
      "v": 110
    },
    {
      "midi": 40,
      "hit": false,
      "t": 61216.15499999988,
      "d": 97.12828124999942,
      "v": 110
    },
    {
      "midi": 64,
      "hit": false,
      "t": 61216.15499999996,
      "d": 198.47953124999913,
      "v": 110
    },
    {
      "midi": 40,
      "hit": false,
      "t": 61317.50624999988,
      "d": 97.12828124999942,
      "v": 110
    },
    {
      "midi": 40,
      "hit": false,
      "t": 61418.85749999988,
      "d": 97.12828124999942,
      "v": 110
    },
    {
      "midi": 61,
      "hit": false,
      "t": 61418.85749999996,
      "d": 198.47953124999913,
      "v": 110
    },
    {
      "midi": 40,
      "hit": false,
      "t": 61520.20874999988,
      "d": 97.12828124999942,
      "v": 110
    },
    {
      "midi": 38,
      "hit": false,
      "t": 61621.55999999988,
      "d": 198.47953124999913,
      "v": 110
    },
    {
      "midi": 66,
      "hit": false,
      "t": 61621.55999999996,
      "d": 198.47953124999913,
      "v": 110
    },
    {
      "midi": 38,
      "hit": false,
      "t": 61824.26249999988,
      "d": 97.12828124999942,
      "v": 110
    },
    {
      "midi": 64,
      "hit": false,
      "t": 61824.26249999996,
      "d": 97.12828124999942,
      "v": 110
    },
    {
      "midi": 38,
      "hit": false,
      "t": 61925.61374999988,
      "d": 97.12828124999942,
      "v": 110
    },
    {
      "midi": 66,
      "hit": false,
      "t": 61925.61374999996,
      "d": 46.4526562500032,
      "v": 110
    },
    {
      "midi": 64,
      "hit": false,
      "t": 61976.289374999964,
      "d": 46.4526562500032,
      "v": 110
    },
    {
      "midi": 38,
      "hit": false,
      "t": 62026.96499999988,
      "d": 198.47953124999913,
      "v": 110
    },
    {
      "midi": 61,
      "hit": false,
      "t": 62026.96499999997,
      "d": 540.5400000000009,
      "v": 110
    },
    {
      "midi": 38,
      "hit": false,
      "t": 62229.66749999988,
      "d": 97.12828124999942,
      "v": 110
    },
    {
      "midi": 38,
      "hit": false,
      "t": 62331.01874999988,
      "d": 97.12828124999942,
      "v": 110
    },
    {
      "midi": 38,
      "hit": false,
      "t": 62432.36999999988,
      "d": 198.47953124999913,
      "v": 110
    },
    {
      "midi": 38,
      "hit": false,
      "t": 62635.07249999988,
      "d": 97.12828124999942,
      "v": 110
    },
    {
      "midi": 61,
      "hit": false,
      "t": 62635.072499999966,
      "d": 198.47953124999913,
      "v": 110
    },
    {
      "midi": 38,
      "hit": false,
      "t": 62736.42374999988,
      "d": 97.12828124999942,
      "v": 110
    },
    {
      "midi": 38,
      "hit": false,
      "t": 62837.77499999988,
      "d": 97.12828124999942,
      "v": 110
    },
    {
      "midi": 59,
      "hit": false,
      "t": 62837.774999999965,
      "d": 198.47953124999913,
      "v": 110
    },
    {
      "midi": 38,
      "hit": false,
      "t": 62939.12624999988,
      "d": 97.12828124999942,
      "v": 110
    },
    {
      "midi": 38,
      "hit": false,
      "t": 63040.47749999988,
      "d": 97.12828124999942,
      "v": 110
    },
    {
      "midi": 64,
      "hit": false,
      "t": 63040.477499999964,
      "d": 198.47953124999913,
      "v": 110
    },
    {
      "midi": 38,
      "hit": false,
      "t": 63141.82874999988,
      "d": 97.12828124999942,
      "v": 110
    },
    {
      "midi": 38,
      "hit": false,
      "t": 63243.17999999988,
      "d": 198.47953124999913,
      "v": 110
    },
    {
      "midi": 61,
      "hit": false,
      "t": 63243.179999999964,
      "d": 97.12828124999942,
      "v": 110
    },
    {
      "midi": 59,
      "hit": false,
      "t": 63344.53124999996,
      "d": 97.12828124999942,
      "v": 110
    },
    {
      "midi": 38,
      "hit": false,
      "t": 63445.882499999876,
      "d": 97.12828124999942,
      "v": 110
    },
    {
      "midi": 61,
      "hit": false,
      "t": 63445.88249999996,
      "d": 1211.9920312500035,
      "v": 110
    },
    {
      "midi": 38,
      "hit": false,
      "t": 63547.233749999876,
      "d": 97.12828124999942,
      "v": 110
    },
    {
      "midi": 38,
      "hit": false,
      "t": 63648.584999999875,
      "d": 198.47953124999913,
      "v": 110
    },
    {
      "midi": 38,
      "hit": false,
      "t": 63851.287499999875,
      "d": 97.12828124999942,
      "v": 110
    },
    {
      "midi": 38,
      "hit": false,
      "t": 63952.638749999875,
      "d": 97.12828124999942,
      "v": 110
    },
    {
      "midi": 38,
      "hit": false,
      "t": 64053.989999999874,
      "d": 198.47953124999913,
      "v": 110
    },
    {
      "midi": 38,
      "hit": false,
      "t": 64256.692499999874,
      "d": 97.12828124999942,
      "v": 110
    },
    {
      "midi": 38,
      "hit": false,
      "t": 64358.04374999987,
      "d": 97.12828124999942,
      "v": 110
    },
    {
      "midi": 38,
      "hit": false,
      "t": 64459.39499999987,
      "d": 97.12828124999942,
      "v": 110
    },
    {
      "midi": 38,
      "hit": false,
      "t": 64560.74624999987,
      "d": 97.12828124999942,
      "v": 110
    },
    {
      "midi": 38,
      "hit": false,
      "t": 64662.09749999987,
      "d": 97.12828124999942,
      "v": 110
    },
    {
      "midi": 61,
      "hit": false,
      "t": 64662.09749999997,
      "d": 97.12828124999942,
      "v": 110
    },
    {
      "midi": 38,
      "hit": false,
      "t": 64763.44874999987,
      "d": 97.12828124999942,
      "v": 110
    },
    {
      "midi": 71,
      "hit": false,
      "t": 64763.44874999997,
      "d": 97.12828124999942,
      "v": 110
    },
    {
      "midi": 40,
      "hit": false,
      "t": 64864.79999999987,
      "d": 198.47953124999913,
      "v": 110
    },
    {
      "midi": 68,
      "hit": false,
      "t": 64864.79999999997,
      "d": 1414.6945312499956,
      "v": 110
    },
    {
      "midi": 40,
      "hit": false,
      "t": 65067.50249999987,
      "d": 97.12828124999942,
      "v": 110
    },
    {
      "midi": 40,
      "hit": false,
      "t": 65168.85374999987,
      "d": 97.12828124999942,
      "v": 110
    },
    {
      "midi": 40,
      "hit": false,
      "t": 65270.20499999987,
      "d": 198.47953124999913,
      "v": 110
    },
    {
      "midi": 40,
      "hit": false,
      "t": 65472.90749999987,
      "d": 97.12828124999942,
      "v": 110
    },
    {
      "midi": 40,
      "hit": false,
      "t": 65574.25874999986,
      "d": 97.12828124999942,
      "v": 110
    },
    {
      "midi": 40,
      "hit": false,
      "t": 65675.60999999986,
      "d": 198.4795312500064,
      "v": 110
    },
    {
      "midi": 40,
      "hit": false,
      "t": 65878.31249999985,
      "d": 97.12828124999942,
      "v": 110
    },
    {
      "midi": 40,
      "hit": false,
      "t": 65979.66374999985,
      "d": 97.12828124999942,
      "v": 110
    },
    {
      "midi": 40,
      "hit": false,
      "t": 66081.01499999984,
      "d": 97.12828124999942,
      "v": 110
    },
    {
      "midi": 40,
      "hit": false,
      "t": 66182.36624999983,
      "d": 97.12828124999942,
      "v": 110
    },
    {
      "midi": 40,
      "hit": false,
      "t": 66283.71749999982,
      "d": 97.12828124999942,
      "v": 110
    },
    {
      "midi": 61,
      "hit": false,
      "t": 66283.71749999996,
      "d": 97.12828124999942,
      "v": 110
    },
    {
      "midi": 40,
      "hit": false,
      "t": 66385.06874999982,
      "d": 97.12828124999942,
      "v": 110
    },
    {
      "midi": 71,
      "hit": false,
      "t": 66385.06874999995,
      "d": 97.12828124999942,
      "v": 110
    },
    {
      "midi": 40,
      "hit": false,
      "t": 66486.41999999981,
      "d": 198.4795312500064,
      "v": 110
    },
    {
      "midi": 68,
      "hit": false,
      "t": 66486.41999999994,
      "d": 540.5399999999936,
      "v": 110
    },
    {
      "midi": 40,
      "hit": false,
      "t": 66689.12249999981,
      "d": 97.12828124999942,
      "v": 110
    },
    {
      "midi": 40,
      "hit": false,
      "t": 66790.4737499998,
      "d": 97.12828124999942,
      "v": 110
    },
    {
      "midi": 40,
      "hit": false,
      "t": 66891.8249999998,
      "d": 198.4795312500064,
      "v": 110
    },
    {
      "midi": 40,
      "hit": false,
      "t": 67094.5274999998,
      "d": 97.12828124999942,
      "v": 110
    },
    {
      "midi": 64,
      "hit": false,
      "t": 67094.52749999994,
      "d": 97.12828124999942,
      "v": 110
    },
    {
      "midi": 40,
      "hit": false,
      "t": 67195.87874999979,
      "d": 97.12828124999942,
      "v": 110
    },
    {
      "midi": 66,
      "hit": false,
      "t": 67195.87874999993,
      "d": 97.12828124999942,
      "v": 110
    },
    {
      "midi": 40,
      "hit": false,
      "t": 67297.22999999978,
      "d": 198.4795312500064,
      "v": 110
    },
    {
      "midi": 68,
      "hit": false,
      "t": 67297.22999999992,
      "d": 198.4795312500064,
      "v": 110
    },
    {
      "midi": 40,
      "hit": false,
      "t": 67499.93249999978,
      "d": 97.12828124999942,
      "v": 110
    },
    {
      "midi": 66,
      "hit": false,
      "t": 67499.93249999992,
      "d": 198.4795312500064,
      "v": 110
    },
    {
      "midi": 40,
      "hit": false,
      "t": 67601.28374999977,
      "d": 97.12828124999942,
      "v": 110
    },
    {
      "midi": 40,
      "hit": false,
      "t": 67702.63499999976,
      "d": 97.12828124999942,
      "v": 110
    },
    {
      "midi": 64,
      "hit": false,
      "t": 67702.63499999992,
      "d": 198.4795312500064,
      "v": 110
    },
    {
      "midi": 40,
      "hit": false,
      "t": 67803.98624999975,
      "d": 97.12828124999942,
      "v": 110
    },
    {
      "midi": 40,
      "hit": false,
      "t": 67905.33749999975,
      "d": 97.12828124999942,
      "v": 110
    },
    {
      "midi": 61,
      "hit": false,
      "t": 67905.33749999992,
      "d": 198.4795312500064,
      "v": 110
    },
    {
      "midi": 40,
      "hit": false,
      "t": 68006.68874999974,
      "d": 97.12828124999942,
      "v": 110
    },
    {
      "midi": 38,
      "hit": false,
      "t": 68108.03999999973,
      "d": 198.4795312500064,
      "v": 110
    },
    {
      "midi": 66,
      "hit": false,
      "t": 68108.03999999992,
      "d": 198.4795312500064,
      "v": 110
    },
    {
      "midi": 38,
      "hit": false,
      "t": 68310.74249999973,
      "d": 97.12828124999942,
      "v": 110
    },
    {
      "midi": 64,
      "hit": false,
      "t": 68310.74249999992,
      "d": 97.12828124999942,
      "v": 110
    },
    {
      "midi": 38,
      "hit": false,
      "t": 68412.09374999972,
      "d": 97.12828124999942,
      "v": 110
    },
    {
      "midi": 66,
      "hit": false,
      "t": 68412.09374999991,
      "d": 46.452656249995925,
      "v": 110
    },
    {
      "midi": 64,
      "hit": false,
      "t": 68462.7693749999,
      "d": 46.452656249995925,
      "v": 110
    },
    {
      "midi": 38,
      "hit": false,
      "t": 68513.44499999972,
      "d": 198.4795312500064,
      "v": 110
    },
    {
      "midi": 61,
      "hit": false,
      "t": 68513.44499999989,
      "d": 540.5399999999936,
      "v": 110
    },
    {
      "midi": 38,
      "hit": false,
      "t": 68716.14749999972,
      "d": 97.12828124999942,
      "v": 110
    },
    {
      "midi": 38,
      "hit": false,
      "t": 68817.49874999971,
      "d": 97.12828124999942,
      "v": 110
    },
    {
      "midi": 38,
      "hit": false,
      "t": 68918.8499999997,
      "d": 198.4795312500064,
      "v": 110
    },
    {
      "midi": 38,
      "hit": false,
      "t": 69121.5524999997,
      "d": 97.12828124999942,
      "v": 110
    },
    {
      "midi": 61,
      "hit": false,
      "t": 69121.55249999989,
      "d": 198.4795312500064,
      "v": 110
    },
    {
      "midi": 38,
      "hit": false,
      "t": 69222.90374999969,
      "d": 97.12828124999942,
      "v": 110
    },
    {
      "midi": 38,
      "hit": false,
      "t": 69324.25499999968,
      "d": 97.12828124999942,
      "v": 110
    },
    {
      "midi": 59,
      "hit": false,
      "t": 69324.25499999989,
      "d": 198.4795312500064,
      "v": 110
    },
    {
      "midi": 38,
      "hit": false,
      "t": 69425.60624999968,
      "d": 97.12828124999942,
      "v": 110
    },
    {
      "midi": 38,
      "hit": false,
      "t": 69526.95749999967,
      "d": 97.12828124999942,
      "v": 110
    },
    {
      "midi": 64,
      "hit": false,
      "t": 69526.95749999989,
      "d": 198.4795312500064,
      "v": 110
    },
    {
      "midi": 38,
      "hit": false,
      "t": 69628.30874999966,
      "d": 97.12828124999942,
      "v": 110
    },
    {
      "midi": 38,
      "hit": false,
      "t": 69729.65999999965,
      "d": 198.4795312500064,
      "v": 110
    },
    {
      "midi": 61,
      "hit": false,
      "t": 69729.65999999989,
      "d": 97.12828124999942,
      "v": 110
    },
    {
      "midi": 59,
      "hit": false,
      "t": 69831.01124999988,
      "d": 97.12828124999942,
      "v": 110
    },
    {
      "midi": 38,
      "hit": false,
      "t": 69932.36249999965,
      "d": 97.12828124999942,
      "v": 110
    },
    {
      "midi": 61,
      "hit": false,
      "t": 69932.36249999987,
      "d": 1211.9920312500035,
      "v": 110
    },
    {
      "midi": 38,
      "hit": false,
      "t": 70033.71374999965,
      "d": 97.12828124999942,
      "v": 110
    },
    {
      "midi": 38,
      "hit": false,
      "t": 70135.06499999964,
      "d": 198.4795312500064,
      "v": 110
    },
    {
      "midi": 38,
      "hit": false,
      "t": 70337.76749999964,
      "d": 97.12828124999942,
      "v": 110
    },
    {
      "midi": 38,
      "hit": false,
      "t": 70439.11874999963,
      "d": 97.12828124999942,
      "v": 110
    },
    {
      "midi": 38,
      "hit": false,
      "t": 70540.46999999962,
      "d": 198.4795312500064,
      "v": 110
    },
    {
      "midi": 38,
      "hit": false,
      "t": 70743.17249999962,
      "d": 97.12828124999942,
      "v": 110
    },
    {
      "midi": 38,
      "hit": false,
      "t": 70844.52374999961,
      "d": 97.12828124999942,
      "v": 110
    },
    {
      "midi": 38,
      "hit": false,
      "t": 70945.8749999996,
      "d": 97.12828124999942,
      "v": 110
    },
    {
      "midi": 38,
      "hit": false,
      "t": 71047.2262499996,
      "d": 97.12828124999942,
      "v": 110
    },
    {
      "midi": 35,
      "hit": false,
      "t": 71148.57749999959,
      "d": 97.12828124999942,
      "v": 110
    },
    {
      "midi": 56,
      "hit": false,
      "t": 71148.57749999987,
      "d": 97.12828124999942,
      "v": 110
    },
    {
      "midi": 35,
      "hit": false,
      "t": 71249.92874999958,
      "d": 97.12828124999942,
      "v": 110
    },
    {
      "midi": 59,
      "hit": false,
      "t": 71249.92874999986,
      "d": 97.12828124999942,
      "v": 110
    },
    {
      "midi": 33,
      "hit": false,
      "t": 71351.27999999958,
      "d": 198.4795312500064,
      "v": 110
    },
    {
      "midi": 61,
      "hit": false,
      "t": 71351.27999999985,
      "d": 709.4587500000052,
      "v": 110
    },
    {
      "midi": 33,
      "hit": false,
      "t": 71553.98249999958,
      "d": 97.12828124999942,
      "v": 110
    },
    {
      "midi": 33,
      "hit": false,
      "t": 71655.33374999957,
      "d": 97.12828124999942,
      "v": 110
    },
    {
      "midi": 33,
      "hit": false,
      "t": 71756.68499999956,
      "d": 198.4795312500064,
      "v": 110
    },
    {
      "midi": 33,
      "hit": false,
      "t": 71959.38749999956,
      "d": 97.12828124999942,
      "v": 110
    },
    {
      "midi": 33,
      "hit": false,
      "t": 72060.73874999955,
      "d": 97.12828124999942,
      "v": 110
    },
    {
      "midi": 33,
      "hit": false,
      "t": 72162.08999999955,
      "d": 198.4795312500064,
      "v": 110
    },
    {
      "midi": 64,
      "hit": false,
      "t": 72162.08999999987,
      "d": 540.5399999999936,
      "v": 110
    },
    {
      "midi": 33,
      "hit": false,
      "t": 72364.79249999954,
      "d": 97.12828124999942,
      "v": 110
    },
    {
      "midi": 33,
      "hit": false,
      "t": 72466.14374999954,
      "d": 97.12828124999942,
      "v": 110
    },
    {
      "midi": 33,
      "hit": false,
      "t": 72567.49499999953,
      "d": 198.4795312500064,
      "v": 110
    },
    {
      "midi": 35,
      "hit": false,
      "t": 72770.19749999953,
      "d": 97.12828124999942,
      "v": 110
    },
    {
      "midi": 61,
      "hit": false,
      "t": 72770.19749999986,
      "d": 97.12828124999942,
      "v": 110
    },
    {
      "midi": 37,
      "hit": false,
      "t": 72871.54874999952,
      "d": 97.12828124999942,
      "v": 110
    },
    {
      "midi": 64,
      "hit": false,
      "t": 72871.54874999986,
      "d": 97.12828124999942,
      "v": 110
    },
    {
      "midi": 35,
      "hit": false,
      "t": 72972.89999999951,
      "d": 198.4795312500064,
      "v": 110
    },
    {
      "midi": 66,
      "hit": false,
      "t": 72972.89999999985,
      "d": 709.4587500000052,
      "v": 110
    },
    {
      "midi": 35,
      "hit": false,
      "t": 73175.60249999951,
      "d": 97.12828124999942,
      "v": 110
    },
    {
      "midi": 35,
      "hit": false,
      "t": 73276.9537499995,
      "d": 97.12828124999942,
      "v": 110
    },
    {
      "midi": 35,
      "hit": false,
      "t": 73378.3049999995,
      "d": 198.4795312500064,
      "v": 110
    },
    {
      "midi": 35,
      "hit": false,
      "t": 73581.0074999995,
      "d": 97.12828124999942,
      "v": 110
    },
    {
      "midi": 35,
      "hit": false,
      "t": 73682.35874999949,
      "d": 97.12828124999942,
      "v": 110
    },
    {
      "midi": 35,
      "hit": false,
      "t": 73783.70999999948,
      "d": 198.4795312500064,
      "v": 110
    },
    {
      "midi": 68,
      "hit": false,
      "t": 73783.70999999986,
      "d": 540.5399999999936,
      "v": 110
    },
    {
      "midi": 35,
      "hit": false,
      "t": 73986.41249999948,
      "d": 97.12828124999942,
      "v": 110
    },
    {
      "midi": 35,
      "hit": false,
      "t": 74087.76374999947,
      "d": 97.12828124999942,
      "v": 110
    },
    {
      "midi": 35,
      "hit": false,
      "t": 74189.11499999947,
      "d": 97.12828124999942,
      "v": 110
    },
    {
      "midi": 37,
      "hit": false,
      "t": 74290.46624999946,
      "d": 97.12828124999942,
      "v": 110
    },
    {
      "midi": 39,
      "hit": false,
      "t": 74391.81749999945,
      "d": 97.12828124999942,
      "v": 110
    },
    {
      "midi": 66,
      "hit": false,
      "t": 74391.81749999986,
      "d": 97.12828124999942,
      "v": 110
    },
    {
      "midi": 41,
      "hit": false,
      "t": 74493.16874999944,
      "d": 97.12828124999942,
      "v": 110
    },
    {
      "midi": 68,
      "hit": false,
      "t": 74493.16874999985,
      "d": 97.12828124999942,
      "v": 110
    },
    {
      "midi": 42,
      "hit": false,
      "t": 74594.51999999944,
      "d": 198.4795312500064,
      "v": 110
    },
    {
      "midi": 70,
      "hit": false,
      "t": 74594.51999999984,
      "d": 147.8039062500029,
      "v": 110
    },
    {
      "midi": 71,
      "hit": false,
      "t": 74746.54687499984,
      "d": 147.8039062500029,
      "v": 110
    },
    {
      "midi": 42,
      "hit": false,
      "t": 74797.22249999944,
      "d": 97.12828124999942,
      "v": 110
    },
    {
      "midi": 42,
      "hit": false,
      "t": 74898.57374999943,
      "d": 97.12828124999942,
      "v": 110
    },
    {
      "midi": 70,
      "hit": false,
      "t": 74898.57374999984,
      "d": 97.12828124999942,
      "v": 110
    },
    {
      "midi": 42,
      "hit": false,
      "t": 74999.92499999942,
      "d": 198.4795312500064,
      "v": 110
    },
    {
      "midi": 68,
      "hit": false,
      "t": 74999.92499999983,
      "d": 147.8039062500029,
      "v": 110
    },
    {
      "midi": 70,
      "hit": false,
      "t": 75151.95187499982,
      "d": 147.8039062500029,
      "v": 110
    },
    {
      "midi": 42,
      "hit": false,
      "t": 75202.62749999942,
      "d": 97.12828124999942,
      "v": 110
    },
    {
      "midi": 42,
      "hit": false,
      "t": 75303.97874999941,
      "d": 97.12828124999942,
      "v": 110
    },
    {
      "midi": 68,
      "hit": false,
      "t": 75303.97874999982,
      "d": 97.12828124999942,
      "v": 110
    },
    {
      "midi": 42,
      "hit": false,
      "t": 75405.3299999994,
      "d": 198.4795312500064,
      "v": 110
    },
    {
      "midi": 66,
      "hit": false,
      "t": 75405.32999999981,
      "d": 147.8039062500029,
      "v": 110
    },
    {
      "midi": 68,
      "hit": false,
      "t": 75557.35687499981,
      "d": 147.8039062500029,
      "v": 110
    },
    {
      "midi": 42,
      "hit": false,
      "t": 75608.0324999994,
      "d": 97.12828124999942,
      "v": 110
    },
    {
      "midi": 42,
      "hit": false,
      "t": 75709.3837499994,
      "d": 97.12828124999942,
      "v": 110
    },
    {
      "midi": 66,
      "hit": false,
      "t": 75709.3837499998,
      "d": 97.12828124999942,
      "v": 110
    },
    {
      "midi": 42,
      "hit": false,
      "t": 75810.73499999939,
      "d": 97.12828124999942,
      "v": 110
    },
    {
      "midi": 64,
      "hit": false,
      "t": 75810.7349999998,
      "d": 97.12828124999942,
      "v": 110
    },
    {
      "midi": 39,
      "hit": false,
      "t": 75912.08624999938,
      "d": 97.12828124999942,
      "v": 110
    },
    {
      "midi": 66,
      "hit": false,
      "t": 75912.08624999979,
      "d": 97.12828124999942,
      "v": 110
    },
    {
      "midi": 37,
      "hit": false,
      "t": 76013.43749999937,
      "d": 97.12828124999942,
      "v": 110
    },
    {
      "midi": 64,
      "hit": false,
      "t": 76013.43749999978,
      "d": 97.12828124999942,
      "v": 110
    },
    {
      "midi": 34,
      "hit": false,
      "t": 76114.78874999937,
      "d": 97.12828124999942,
      "v": 110
    },
    {
      "midi": 61,
      "hit": false,
      "t": 76114.78874999977,
      "d": 97.12828124999942,
      "v": 110
    },
    {
      "midi": 30,
      "hit": false,
      "t": 76216.13999999936,
      "d": 198.4795312500064,
      "v": 110
    },
    {
      "midi": 58,
      "hit": false,
      "t": 76216.13999999977,
      "d": 709.4587500000052,
      "v": 110
    },
    {
      "midi": 30,
      "hit": false,
      "t": 76418.84249999936,
      "d": 97.12828124999942,
      "v": 110
    },
    {
      "midi": 30,
      "hit": false,
      "t": 76520.19374999935,
      "d": 97.12828124999942,
      "v": 110
    },
    {
      "midi": 30,
      "hit": false,
      "t": 76621.54499999934,
      "d": 198.4795312500064,
      "v": 110
    },
    {
      "midi": 30,
      "hit": false,
      "t": 76824.24749999934,
      "d": 97.12828124999942,
      "v": 110
    },
    {
      "midi": 30,
      "hit": false,
      "t": 76925.59874999934,
      "d": 97.12828124999942,
      "v": 110
    },
    {
      "midi": 30,
      "hit": false,
      "t": 77026.94999999933,
      "d": 198.4795312500064,
      "v": 110
    },
    {
      "midi": 59,
      "hit": false,
      "t": 77026.94999999978,
      "d": 337.8374999999942,
      "v": 110
    },
    {
      "midi": 30,
      "hit": false,
      "t": 77229.65249999933,
      "d": 97.12828124999942,
      "v": 110
    },
    {
      "midi": 30,
      "hit": false,
      "t": 77331.00374999932,
      "d": 97.12828124999942,
      "v": 110
    },
    {
      "midi": 30,
      "hit": false,
      "t": 77432.35499999931,
      "d": 97.12828124999942,
      "v": 110
    },
    {
      "midi": 56,
      "hit": false,
      "t": 77432.35499999978,
      "d": 198.4795312500064,
      "v": 110
    },
    {
      "midi": 32,
      "hit": false,
      "t": 77533.7062499993,
      "d": 97.12828124999942,
      "v": 110
    },
    {
      "midi": 34,
      "hit": false,
      "t": 77635.0574999993,
      "d": 97.12828124999942,
      "v": 110
    },
    {
      "midi": 54,
      "hit": false,
      "t": 77635.05749999978,
      "d": 97.12828124999942,
      "v": 110
    },
    {
      "midi": 35,
      "hit": false,
      "t": 77736.40874999929,
      "d": 97.12828124999942,
      "v": 110
    },
    {
      "midi": 56,
      "hit": false,
      "t": 77736.40874999977,
      "d": 97.12828124999942,
      "v": 110
    },
    {
      "midi": 33,
      "hit": false,
      "t": 77837.75999999928,
      "d": 198.4795312500064,
      "v": 110
    },
    {
      "midi": 61,
      "hit": false,
      "t": 77837.75999999976,
      "d": 709.4587500000052,
      "v": 110
    },
    {
      "midi": 33,
      "hit": false,
      "t": 78040.46249999928,
      "d": 97.12828124999942,
      "v": 110
    },
    {
      "midi": 33,
      "hit": false,
      "t": 78141.81374999927,
      "d": 97.12828124999942,
      "v": 110
    },
    {
      "midi": 33,
      "hit": false,
      "t": 78243.16499999927,
      "d": 198.4795312500064,
      "v": 110
    },
    {
      "midi": 33,
      "hit": false,
      "t": 78445.86749999927,
      "d": 97.12828124999942,
      "v": 110
    },
    {
      "midi": 33,
      "hit": false,
      "t": 78547.21874999926,
      "d": 97.12828124999942,
      "v": 110
    },
    {
      "midi": 33,
      "hit": false,
      "t": 78648.56999999925,
      "d": 198.4795312500064,
      "v": 110
    },
    {
      "midi": 64,
      "hit": false,
      "t": 78648.56999999977,
      "d": 540.5399999999936,
      "v": 110
    },
    {
      "midi": 33,
      "hit": false,
      "t": 78851.27249999925,
      "d": 97.12828124999942,
      "v": 110
    },
    {
      "midi": 33,
      "hit": false,
      "t": 78952.62374999924,
      "d": 97.12828124999942,
      "v": 110
    },
    {
      "midi": 33,
      "hit": false,
      "t": 79053.97499999923,
      "d": 198.4795312500064,
      "v": 110
    },
    {
      "midi": 35,
      "hit": false,
      "t": 79256.67749999923,
      "d": 97.12828124999942,
      "v": 110
    },
    {
      "midi": 63,
      "hit": false,
      "t": 79256.67749999977,
      "d": 97.12828124999942,
      "v": 110
    },
    {
      "midi": 37,
      "hit": false,
      "t": 79358.02874999923,
      "d": 97.12828124999942,
      "v": 110
    },
    {
      "midi": 64,
      "hit": false,
      "t": 79358.02874999976,
      "d": 97.12828124999942,
      "v": 110
    },
    {
      "midi": 35,
      "hit": false,
      "t": 79459.37999999922,
      "d": 198.4795312500064,
      "v": 110
    },
    {
      "midi": 66,
      "hit": false,
      "t": 79459.37999999976,
      "d": 709.4587500000052,
      "v": 110
    },
    {
      "midi": 35,
      "hit": false,
      "t": 79662.08249999922,
      "d": 97.12828124999942,
      "v": 110
    },
    {
      "midi": 35,
      "hit": false,
      "t": 79763.43374999921,
      "d": 97.12828124999942,
      "v": 110
    },
    {
      "midi": 35,
      "hit": false,
      "t": 79864.7849999992,
      "d": 198.4795312500064,
      "v": 110
    },
    {
      "midi": 35,
      "hit": false,
      "t": 80067.4874999992,
      "d": 97.12828124999942,
      "v": 110
    },
    {
      "midi": 35,
      "hit": false,
      "t": 80168.8387499992,
      "d": 97.12828124999942,
      "v": 110
    },
    {
      "midi": 35,
      "hit": false,
      "t": 80270.18999999919,
      "d": 198.4795312500064,
      "v": 110
    },
    {
      "midi": 68,
      "hit": false,
      "t": 80270.18999999977,
      "d": 540.5399999999936,
      "v": 110
    },
    {
      "midi": 35,
      "hit": false,
      "t": 80472.89249999919,
      "d": 97.12828124999942,
      "v": 110
    },
    {
      "midi": 35,
      "hit": false,
      "t": 80574.24374999918,
      "d": 97.12828124999942,
      "v": 110
    },
    {
      "midi": 35,
      "hit": false,
      "t": 80675.59499999917,
      "d": 97.12828124999942,
      "v": 110
    },
    {
      "midi": 37,
      "hit": false,
      "t": 80776.94624999916,
      "d": 97.12828124999942,
      "v": 110
    },
    {
      "midi": 39,
      "hit": false,
      "t": 80878.29749999916,
      "d": 97.12828124999942,
      "v": 110
    },
    {
      "midi": 66,
      "hit": false,
      "t": 80878.29749999977,
      "d": 97.12828124999942,
      "v": 110
    },
    {
      "midi": 41,
      "hit": false,
      "t": 80979.64874999915,
      "d": 97.12828124999942,
      "v": 110
    },
    {
      "midi": 68,
      "hit": false,
      "t": 80979.64874999976,
      "d": 97.12828124999942,
      "v": 110
    },
    {
      "midi": 42,
      "hit": false,
      "t": 81080.99999999914,
      "d": 198.4795312500064,
      "v": 110
    },
    {
      "midi": 70,
      "hit": false,
      "t": 81080.99999999975,
      "d": 147.8039062500029,
      "v": 110
    },
    {
      "midi": 71,
      "hit": false,
      "t": 81233.02687499975,
      "d": 147.8039062500029,
      "v": 110
    },
    {
      "midi": 42,
      "hit": false,
      "t": 81283.70249999914,
      "d": 97.12828124999942,
      "v": 110
    },
    {
      "midi": 42,
      "hit": false,
      "t": 81385.05374999913,
      "d": 97.12828124999942,
      "v": 110
    },
    {
      "midi": 70,
      "hit": false,
      "t": 81385.05374999974,
      "d": 97.12828124999942,
      "v": 110
    },
    {
      "midi": 42,
      "hit": false,
      "t": 81486.40499999913,
      "d": 198.4795312500064,
      "v": 110
    },
    {
      "midi": 68,
      "hit": false,
      "t": 81486.40499999974,
      "d": 147.8039062500029,
      "v": 110
    },
    {
      "midi": 70,
      "hit": false,
      "t": 81638.43187499973,
      "d": 147.8039062500029,
      "v": 110
    },
    {
      "midi": 42,
      "hit": false,
      "t": 81689.10749999913,
      "d": 97.12828124999942,
      "v": 110
    },
    {
      "midi": 42,
      "hit": false,
      "t": 81790.45874999912,
      "d": 97.12828124999942,
      "v": 110
    },
    {
      "midi": 68,
      "hit": false,
      "t": 81790.45874999973,
      "d": 97.12828124999942,
      "v": 110
    },
    {
      "midi": 42,
      "hit": false,
      "t": 81891.80999999911,
      "d": 198.4795312500064,
      "v": 110
    },
    {
      "midi": 66,
      "hit": false,
      "t": 81891.80999999972,
      "d": 147.8039062500029,
      "v": 110
    },
    {
      "midi": 68,
      "hit": false,
      "t": 82043.83687499972,
      "d": 147.8039062500029,
      "v": 110
    },
    {
      "midi": 42,
      "hit": false,
      "t": 82094.51249999911,
      "d": 97.12828124999942,
      "v": 110
    },
    {
      "midi": 42,
      "hit": false,
      "t": 82195.8637499991,
      "d": 97.12828124999942,
      "v": 110
    },
    {
      "midi": 66,
      "hit": false,
      "t": 82195.86374999971,
      "d": 97.12828124999942,
      "v": 110
    },
    {
      "midi": 42,
      "hit": false,
      "t": 82297.2149999991,
      "d": 97.12828124999942,
      "v": 110
    },
    {
      "midi": 64,
      "hit": false,
      "t": 82297.2149999997,
      "d": 97.12828124999942,
      "v": 110
    },
    {
      "midi": 39,
      "hit": false,
      "t": 82398.56624999909,
      "d": 97.12828124999942,
      "v": 110
    },
    {
      "midi": 66,
      "hit": false,
      "t": 82398.5662499997,
      "d": 97.12828124999942,
      "v": 110
    },
    {
      "midi": 37,
      "hit": false,
      "t": 82499.91749999908,
      "d": 97.12828124999942,
      "v": 110
    },
    {
      "midi": 64,
      "hit": false,
      "t": 82499.91749999969,
      "d": 97.12828124999942,
      "v": 110
    },
    {
      "midi": 34,
      "hit": false,
      "t": 82601.26874999907,
      "d": 97.12828124999942,
      "v": 110
    },
    {
      "midi": 61,
      "hit": false,
      "t": 82601.26874999968,
      "d": 97.12828124999942,
      "v": 110
    },
    {
      "midi": 30,
      "hit": false,
      "t": 82702.61999999906,
      "d": 198.4795312500064,
      "v": 110
    },
    {
      "midi": 58,
      "hit": false,
      "t": 82702.61999999968,
      "d": 1520.268750000003,
      "v": 110
    },
    {
      "midi": 30,
      "hit": false,
      "t": 82905.32249999906,
      "d": 97.12828124999942,
      "v": 110
    },
    {
      "midi": 30,
      "hit": false,
      "t": 83006.67374999906,
      "d": 97.12828124999942,
      "v": 110
    },
    {
      "midi": 30,
      "hit": false,
      "t": 83108.02499999905,
      "d": 198.4795312500064,
      "v": 110
    },
    {
      "midi": 30,
      "hit": false,
      "t": 83310.72749999905,
      "d": 97.12828124999942,
      "v": 110
    },
    {
      "midi": 30,
      "hit": false,
      "t": 83412.07874999904,
      "d": 97.12828124999942,
      "v": 110
    },
    {
      "midi": 30,
      "hit": false,
      "t": 83513.42999999903,
      "d": 198.4795312500064,
      "v": 110
    },
    {
      "midi": 30,
      "hit": false,
      "t": 83716.13249999903,
      "d": 97.12828124999942,
      "v": 110
    },
    {
      "midi": 30,
      "hit": false,
      "t": 83817.48374999902,
      "d": 97.12828124999942,
      "v": 110
    },
    {
      "midi": 42,
      "hit": false,
      "t": 83918.83499999902,
      "d": 97.12828124999942,
      "v": 110
    },
    {
      "midi": 30,
      "hit": false,
      "t": 84020.18624999901,
      "d": 97.12828124999942,
      "v": 110
    },
    {
      "midi": 30,
      "hit": false,
      "t": 84121.537499999,
      "d": 97.12828124999942,
      "v": 110
    },
    {
      "midi": 30,
      "hit": false,
      "t": 84222.888749999,
      "d": 97.12828124999942,
      "v": 110
    },
    {
      "midi": 40,
      "hit": false,
      "t": 84324.23999999899,
      "d": 540.5399999999936,
      "v": 110
    },
    {
      "midi": 52,
      "hit": false,
      "t": 84324.23999999899,
      "d": 540.5399999999936,
      "v": 110
    },
    {
      "midi": 68,
      "hit": false,
      "t": 84324.23999999969,
      "d": 540.5399999999936,
      "v": 110
    },
    {
      "midi": 40,
      "hit": false,
      "t": 84932.34749999898,
      "d": 97.12828124999942,
      "v": 110
    },
    {
      "midi": 52,
      "hit": false,
      "t": 84932.34749999898,
      "d": 97.12828124999942,
      "v": 110
    },
    {
      "midi": 68,
      "hit": false,
      "t": 84932.34749999968,
      "d": 97.12828124999942,
      "v": 110
    },
    {
      "midi": 40,
      "hit": false,
      "t": 85033.69874999898,
      "d": 97.12828124999942,
      "v": 110
    },
    {
      "midi": 52,
      "hit": false,
      "t": 85033.69874999898,
      "d": 97.12828124999942,
      "v": 110
    },
    {
      "midi": 68,
      "hit": false,
      "t": 85033.69874999968,
      "d": 97.12828124999942,
      "v": 110
    },
    {
      "midi": 40,
      "hit": false,
      "t": 85135.04999999897,
      "d": 540.5399999999936,
      "v": 110
    },
    {
      "midi": 52,
      "hit": false,
      "t": 85135.04999999897,
      "d": 540.5399999999936,
      "v": 110
    },
    {
      "midi": 68,
      "hit": false,
      "t": 85135.04999999967,
      "d": 540.5399999999936,
      "v": 110
    },
    {
      "midi": 40,
      "hit": false,
      "t": 85743.15749999897,
      "d": 97.12828124999942,
      "v": 110
    },
    {
      "midi": 52,
      "hit": false,
      "t": 85743.15749999897,
      "d": 97.12828124999942,
      "v": 110
    },
    {
      "midi": 68,
      "hit": false,
      "t": 85743.15749999967,
      "d": 97.12828124999942,
      "v": 110
    },
    {
      "midi": 40,
      "hit": false,
      "t": 85844.50874999896,
      "d": 97.12828124999942,
      "v": 110
    },
    {
      "midi": 52,
      "hit": false,
      "t": 85844.50874999896,
      "d": 97.12828124999942,
      "v": 110
    },
    {
      "midi": 68,
      "hit": false,
      "t": 85844.50874999966,
      "d": 97.12828124999942,
      "v": 110
    },
    {
      "midi": 40,
      "hit": false,
      "t": 85945.85999999895,
      "d": 337.8374999999942,
      "v": 110
    },
    {
      "midi": 52,
      "hit": false,
      "t": 85945.85999999895,
      "d": 337.8374999999942,
      "v": 110
    },
    {
      "midi": 68,
      "hit": false,
      "t": 85945.85999999965,
      "d": 337.8374999999942,
      "v": 110
    },
    {
      "midi": 40,
      "hit": false,
      "t": 86351.26499999895,
      "d": 337.8374999999942,
      "v": 110
    },
    {
      "midi": 52,
      "hit": false,
      "t": 86351.26499999895,
      "d": 337.8374999999942,
      "v": 110
    },
    {
      "midi": 68,
      "hit": false,
      "t": 86351.26499999965,
      "d": 337.8374999999942,
      "v": 110
    },
    {
      "midi": 40,
      "hit": false,
      "t": 86756.66999999895,
      "d": 299.83078124999884,
      "v": 110
    },
    {
      "midi": 52,
      "hit": false,
      "t": 86756.66999999895,
      "d": 299.83078124999884,
      "v": 110
    },
    {
      "midi": 68,
      "hit": false,
      "t": 86756.66999999965,
      "d": 299.83078124999884,
      "v": 110
    },
    {
      "midi": 40,
      "hit": false,
      "t": 87060.72374999894,
      "d": 299.83078124999884,
      "v": 110
    },
    {
      "midi": 52,
      "hit": false,
      "t": 87060.72374999894,
      "d": 299.83078124999884,
      "v": 110
    },
    {
      "midi": 68,
      "hit": false,
      "t": 87060.72374999964,
      "d": 299.83078124999884,
      "v": 110
    },
    {
      "midi": 42,
      "hit": false,
      "t": 87364.77749999893,
      "d": 198.4795312500064,
      "v": 110
    },
    {
      "midi": 54,
      "hit": false,
      "t": 87364.77749999893,
      "d": 198.4795312500064,
      "v": 110
    },
    {
      "midi": 66,
      "hit": false,
      "t": 87364.77749999963,
      "d": 198.4795312500064,
      "v": 110
    },
    {
      "midi": 44,
      "hit": false,
      "t": 87567.47999999893,
      "d": 540.5399999999936,
      "v": 110
    },
    {
      "midi": 56,
      "hit": false,
      "t": 87567.47999999893,
      "d": 540.5399999999936,
      "v": 110
    },
    {
      "midi": 63,
      "hit": false,
      "t": 87567.47999999963,
      "d": 540.5399999999936,
      "v": 110
    },
    {
      "midi": 44,
      "hit": false,
      "t": 88175.58749999893,
      "d": 97.12828124999942,
      "v": 110
    },
    {
      "midi": 56,
      "hit": false,
      "t": 88175.58749999893,
      "d": 97.12828124999942,
      "v": 110
    },
    {
      "midi": 63,
      "hit": false,
      "t": 88175.58749999963,
      "d": 97.12828124999942,
      "v": 110
    },
    {
      "midi": 44,
      "hit": false,
      "t": 88276.93874999892,
      "d": 97.12828124999942,
      "v": 110
    },
    {
      "midi": 56,
      "hit": false,
      "t": 88276.93874999892,
      "d": 97.12828124999942,
      "v": 110
    },
    {
      "midi": 63,
      "hit": false,
      "t": 88276.93874999962,
      "d": 97.12828124999942,
      "v": 110
    },
    {
      "midi": 44,
      "hit": false,
      "t": 88378.28999999892,
      "d": 540.5399999999936,
      "v": 110
    },
    {
      "midi": 56,
      "hit": false,
      "t": 88378.28999999892,
      "d": 540.5399999999936,
      "v": 110
    },
    {
      "midi": 63,
      "hit": false,
      "t": 88378.28999999962,
      "d": 540.5399999999936,
      "v": 110
    },
    {
      "midi": 44,
      "hit": false,
      "t": 88986.39749999892,
      "d": 97.12828124999942,
      "v": 110
    },
    {
      "midi": 56,
      "hit": false,
      "t": 88986.39749999892,
      "d": 97.12828124999942,
      "v": 110
    },
    {
      "midi": 63,
      "hit": false,
      "t": 88986.39749999961,
      "d": 97.12828124999942,
      "v": 110
    },
    {
      "midi": 44,
      "hit": false,
      "t": 89087.74874999891,
      "d": 97.12828124999942,
      "v": 110
    },
    {
      "midi": 56,
      "hit": false,
      "t": 89087.74874999891,
      "d": 97.12828124999942,
      "v": 110
    },
    {
      "midi": 63,
      "hit": false,
      "t": 89087.7487499996,
      "d": 97.12828124999942,
      "v": 110
    },
    {
      "midi": 44,
      "hit": false,
      "t": 89189.0999999989,
      "d": 337.8374999999942,
      "v": 110
    },
    {
      "midi": 56,
      "hit": false,
      "t": 89189.0999999989,
      "d": 337.8374999999942,
      "v": 110
    },
    {
      "midi": 63,
      "hit": false,
      "t": 89189.0999999996,
      "d": 337.8374999999942,
      "v": 110
    },
    {
      "midi": 44,
      "hit": false,
      "t": 89594.5049999989,
      "d": 337.8374999999942,
      "v": 110
    },
    {
      "midi": 56,
      "hit": false,
      "t": 89594.5049999989,
      "d": 337.8374999999942,
      "v": 110
    },
    {
      "midi": 63,
      "hit": false,
      "t": 89594.5049999996,
      "d": 337.8374999999942,
      "v": 110
    },
    {
      "midi": 44,
      "hit": false,
      "t": 89999.9099999989,
      "d": 299.83078124999884,
      "v": 110
    },
    {
      "midi": 56,
      "hit": false,
      "t": 89999.9099999989,
      "d": 299.83078124999884,
      "v": 110
    },
    {
      "midi": 63,
      "hit": false,
      "t": 89999.9099999996,
      "d": 299.83078124999884,
      "v": 110
    },
    {
      "midi": 44,
      "hit": false,
      "t": 90303.96374999889,
      "d": 299.83078124999884,
      "v": 110
    },
    {
      "midi": 56,
      "hit": false,
      "t": 90303.96374999889,
      "d": 299.83078124999884,
      "v": 110
    },
    {
      "midi": 63,
      "hit": false,
      "t": 90303.96374999959,
      "d": 299.83078124999884,
      "v": 110
    },
    {
      "midi": 42,
      "hit": false,
      "t": 90608.01749999888,
      "d": 198.4795312500064,
      "v": 110
    },
    {
      "midi": 54,
      "hit": false,
      "t": 90608.01749999888,
      "d": 198.4795312500064,
      "v": 110
    },
    {
      "midi": 66,
      "hit": false,
      "t": 90608.01749999958,
      "d": 198.4795312500064,
      "v": 110
    },
    {
      "midi": 40,
      "hit": false,
      "t": 90810.71999999888,
      "d": 540.5399999999936,
      "v": 110
    },
    {
      "midi": 52,
      "hit": false,
      "t": 90810.71999999888,
      "d": 540.5399999999936,
      "v": 110
    },
    {
      "midi": 68,
      "hit": false,
      "t": 90810.71999999958,
      "d": 540.5399999999936,
      "v": 110
    },
    {
      "midi": 40,
      "hit": false,
      "t": 91418.82749999888,
      "d": 97.12828124999942,
      "v": 110
    },
    {
      "midi": 52,
      "hit": false,
      "t": 91418.82749999888,
      "d": 97.12828124999942,
      "v": 110
    },
    {
      "midi": 68,
      "hit": false,
      "t": 91418.82749999958,
      "d": 97.12828124999942,
      "v": 110
    },
    {
      "midi": 40,
      "hit": false,
      "t": 91520.17874999887,
      "d": 97.12828124999942,
      "v": 110
    },
    {
      "midi": 52,
      "hit": false,
      "t": 91520.17874999887,
      "d": 97.12828124999942,
      "v": 110
    },
    {
      "midi": 68,
      "hit": false,
      "t": 91520.17874999957,
      "d": 97.12828124999942,
      "v": 110
    },
    {
      "midi": 40,
      "hit": false,
      "t": 91621.52999999886,
      "d": 540.5399999999936,
      "v": 110
    },
    {
      "midi": 52,
      "hit": false,
      "t": 91621.52999999886,
      "d": 540.5399999999936,
      "v": 110
    },
    {
      "midi": 68,
      "hit": false,
      "t": 91621.52999999956,
      "d": 540.5399999999936,
      "v": 110
    },
    {
      "midi": 40,
      "hit": false,
      "t": 92229.63749999886,
      "d": 97.12828124999942,
      "v": 110
    },
    {
      "midi": 52,
      "hit": false,
      "t": 92229.63749999886,
      "d": 97.12828124999942,
      "v": 110
    },
    {
      "midi": 68,
      "hit": false,
      "t": 92229.63749999956,
      "d": 97.12828124999942,
      "v": 110
    },
    {
      "midi": 40,
      "hit": false,
      "t": 92330.98874999885,
      "d": 97.12828124999942,
      "v": 110
    },
    {
      "midi": 52,
      "hit": false,
      "t": 92330.98874999885,
      "d": 97.12828124999942,
      "v": 110
    },
    {
      "midi": 68,
      "hit": false,
      "t": 92330.98874999955,
      "d": 97.12828124999942,
      "v": 110
    },
    {
      "midi": 40,
      "hit": false,
      "t": 92432.33999999885,
      "d": 337.8374999999942,
      "v": 110
    },
    {
      "midi": 52,
      "hit": false,
      "t": 92432.33999999885,
      "d": 337.8374999999942,
      "v": 110
    },
    {
      "midi": 68,
      "hit": false,
      "t": 92432.33999999955,
      "d": 337.8374999999942,
      "v": 110
    },
    {
      "midi": 40,
      "hit": false,
      "t": 92837.74499999885,
      "d": 337.8374999999942,
      "v": 110
    },
    {
      "midi": 52,
      "hit": false,
      "t": 92837.74499999885,
      "d": 337.8374999999942,
      "v": 110
    },
    {
      "midi": 68,
      "hit": false,
      "t": 92837.74499999954,
      "d": 337.8374999999942,
      "v": 110
    },
    {
      "midi": 40,
      "hit": false,
      "t": 93243.14999999884,
      "d": 299.83078124999884,
      "v": 110
    },
    {
      "midi": 52,
      "hit": false,
      "t": 93243.14999999884,
      "d": 299.83078124999884,
      "v": 110
    },
    {
      "midi": 68,
      "hit": false,
      "t": 93243.14999999954,
      "d": 299.83078124999884,
      "v": 110
    },
    {
      "midi": 40,
      "hit": false,
      "t": 93547.20374999884,
      "d": 299.83078124999884,
      "v": 110
    },
    {
      "midi": 52,
      "hit": false,
      "t": 93547.20374999884,
      "d": 299.83078124999884,
      "v": 110
    },
    {
      "midi": 68,
      "hit": false,
      "t": 93547.20374999953,
      "d": 299.83078124999884,
      "v": 110
    },
    {
      "midi": 42,
      "hit": false,
      "t": 93851.25749999883,
      "d": 198.4795312500064,
      "v": 110
    },
    {
      "midi": 54,
      "hit": false,
      "t": 93851.25749999883,
      "d": 198.4795312500064,
      "v": 110
    },
    {
      "midi": 66,
      "hit": false,
      "t": 93851.25749999953,
      "d": 198.4795312500064,
      "v": 110
    },
    {
      "midi": 44,
      "hit": false,
      "t": 94053.95999999883,
      "d": 540.5399999999936,
      "v": 110
    },
    {
      "midi": 56,
      "hit": false,
      "t": 94053.95999999883,
      "d": 540.5399999999936,
      "v": 110
    },
    {
      "midi": 63,
      "hit": false,
      "t": 94053.95999999953,
      "d": 540.5399999999936,
      "v": 110
    },
    {
      "midi": 44,
      "hit": false,
      "t": 94662.06749999883,
      "d": 97.12828124999942,
      "v": 110
    },
    {
      "midi": 56,
      "hit": false,
      "t": 94662.06749999883,
      "d": 97.12828124999942,
      "v": 110
    },
    {
      "midi": 63,
      "hit": false,
      "t": 94662.06749999952,
      "d": 97.12828124999942,
      "v": 110
    },
    {
      "midi": 44,
      "hit": false,
      "t": 94763.41874999882,
      "d": 97.12828124999942,
      "v": 110
    },
    {
      "midi": 56,
      "hit": false,
      "t": 94763.41874999882,
      "d": 97.12828124999942,
      "v": 110
    },
    {
      "midi": 63,
      "hit": false,
      "t": 94763.41874999952,
      "d": 97.12828124999942,
      "v": 110
    },
    {
      "midi": 44,
      "hit": false,
      "t": 94864.76999999881,
      "d": 540.5399999999936,
      "v": 110
    },
    {
      "midi": 56,
      "hit": false,
      "t": 94864.76999999881,
      "d": 540.5399999999936,
      "v": 110
    },
    {
      "midi": 63,
      "hit": false,
      "t": 94864.76999999951,
      "d": 540.5399999999936,
      "v": 110
    },
    {
      "midi": 44,
      "hit": false,
      "t": 95472.87749999881,
      "d": 97.12828124999942,
      "v": 110
    },
    {
      "midi": 56,
      "hit": false,
      "t": 95472.87749999881,
      "d": 97.12828124999942,
      "v": 110
    },
    {
      "midi": 63,
      "hit": false,
      "t": 95472.87749999951,
      "d": 97.12828124999942,
      "v": 110
    },
    {
      "midi": 44,
      "hit": false,
      "t": 95574.2287499988,
      "d": 97.12828124999942,
      "v": 110
    },
    {
      "midi": 56,
      "hit": false,
      "t": 95574.2287499988,
      "d": 97.12828124999942,
      "v": 110
    },
    {
      "midi": 63,
      "hit": false,
      "t": 95574.2287499995,
      "d": 97.12828124999942,
      "v": 110
    },
    {
      "midi": 44,
      "hit": false,
      "t": 95675.5799999988,
      "d": 337.8374999999942,
      "v": 110
    },
    {
      "midi": 56,
      "hit": false,
      "t": 95675.5799999988,
      "d": 337.8374999999942,
      "v": 110
    },
    {
      "midi": 63,
      "hit": false,
      "t": 95675.57999999949,
      "d": 337.8374999999942,
      "v": 110
    },
    {
      "midi": 44,
      "hit": false,
      "t": 96080.9849999988,
      "d": 337.8374999999942,
      "v": 110
    },
    {
      "midi": 56,
      "hit": false,
      "t": 96080.9849999988,
      "d": 337.8374999999942,
      "v": 110
    },
    {
      "midi": 63,
      "hit": false,
      "t": 96080.98499999949,
      "d": 337.8374999999942,
      "v": 110
    },
    {
      "midi": 44,
      "hit": false,
      "t": 96486.38999999879,
      "d": 299.83078124999884,
      "v": 110
    },
    {
      "midi": 56,
      "hit": false,
      "t": 96486.38999999879,
      "d": 299.83078124999884,
      "v": 110
    },
    {
      "midi": 63,
      "hit": false,
      "t": 96486.38999999949,
      "d": 299.83078124999884,
      "v": 110
    },
    {
      "midi": 44,
      "hit": false,
      "t": 96790.44374999878,
      "d": 299.83078124999884,
      "v": 110
    },
    {
      "midi": 56,
      "hit": false,
      "t": 96790.44374999878,
      "d": 299.83078124999884,
      "v": 110
    },
    {
      "midi": 64,
      "hit": false,
      "t": 96790.44374999948,
      "d": 299.83078124999884,
      "v": 110
    },
    {
      "midi": 44,
      "hit": false,
      "t": 97094.49749999878,
      "d": 198.4795312500064,
      "v": 110
    },
    {
      "midi": 56,
      "hit": false,
      "t": 97094.49749999878,
      "d": 198.4795312500064,
      "v": 110
    },
    {
      "midi": 63,
      "hit": false,
      "t": 97094.49749999947,
      "d": 198.4795312500064,
      "v": 110
    },
    {
      "midi": 45,
      "hit": false,
      "t": 97297.19999999877,
      "d": 540.5399999999936,
      "v": 110
    },
    {
      "midi": 57,
      "hit": false,
      "t": 97297.19999999877,
      "d": 540.5399999999936,
      "v": 110
    },
    {
      "midi": 61,
      "hit": false,
      "t": 97297.19999999947,
      "d": 540.5399999999936,
      "v": 110
    },
    {
      "midi": 45,
      "hit": false,
      "t": 97905.30749999877,
      "d": 97.12828124999942,
      "v": 110
    },
    {
      "midi": 57,
      "hit": false,
      "t": 97905.30749999877,
      "d": 97.12828124999942,
      "v": 110
    },
    {
      "midi": 61,
      "hit": false,
      "t": 97905.30749999947,
      "d": 97.12828124999942,
      "v": 110
    },
    {
      "midi": 45,
      "hit": false,
      "t": 98006.65874999877,
      "d": 97.12828124999942,
      "v": 110
    },
    {
      "midi": 57,
      "hit": false,
      "t": 98006.65874999877,
      "d": 97.12828124999942,
      "v": 110
    },
    {
      "midi": 61,
      "hit": false,
      "t": 98006.65874999946,
      "d": 97.12828124999942,
      "v": 110
    },
    {
      "midi": 45,
      "hit": false,
      "t": 98108.00999999876,
      "d": 540.5399999999936,
      "v": 110
    },
    {
      "midi": 57,
      "hit": false,
      "t": 98108.00999999876,
      "d": 540.5399999999936,
      "v": 110
    },
    {
      "midi": 61,
      "hit": false,
      "t": 98108.00999999946,
      "d": 540.5399999999936,
      "v": 110
    },
    {
      "midi": 45,
      "hit": false,
      "t": 98716.11749999876,
      "d": 97.12828124999942,
      "v": 110
    },
    {
      "midi": 57,
      "hit": false,
      "t": 98716.11749999876,
      "d": 97.12828124999942,
      "v": 110
    },
    {
      "midi": 61,
      "hit": false,
      "t": 98716.11749999945,
      "d": 97.12828124999942,
      "v": 110
    },
    {
      "midi": 45,
      "hit": false,
      "t": 98817.46874999875,
      "d": 97.12828124999942,
      "v": 110
    },
    {
      "midi": 57,
      "hit": false,
      "t": 98817.46874999875,
      "d": 97.12828124999942,
      "v": 110
    },
    {
      "midi": 61,
      "hit": false,
      "t": 98817.46874999945,
      "d": 97.12828124999942,
      "v": 110
    },
    {
      "midi": 45,
      "hit": false,
      "t": 98918.81999999874,
      "d": 337.8374999999942,
      "v": 110
    },
    {
      "midi": 57,
      "hit": false,
      "t": 98918.81999999874,
      "d": 337.8374999999942,
      "v": 110
    },
    {
      "midi": 61,
      "hit": false,
      "t": 98918.81999999944,
      "d": 337.8374999999942,
      "v": 110
    },
    {
      "midi": 45,
      "hit": false,
      "t": 99324.22499999874,
      "d": 337.8374999999942,
      "v": 110
    },
    {
      "midi": 57,
      "hit": false,
      "t": 99324.22499999874,
      "d": 337.8374999999942,
      "v": 110
    },
    {
      "midi": 61,
      "hit": false,
      "t": 99324.22499999944,
      "d": 337.8374999999942,
      "v": 110
    },
    {
      "midi": 45,
      "hit": false,
      "t": 99729.62999999874,
      "d": 299.83078124999884,
      "v": 110
    },
    {
      "midi": 57,
      "hit": false,
      "t": 99729.62999999874,
      "d": 299.83078124999884,
      "v": 110
    },
    {
      "midi": 61,
      "hit": false,
      "t": 99729.62999999944,
      "d": 299.83078124999884,
      "v": 110
    },
    {
      "midi": 45,
      "hit": false,
      "t": 100033.68374999873,
      "d": 299.83078124999884,
      "v": 110
    },
    {
      "midi": 57,
      "hit": false,
      "t": 100033.68374999873,
      "d": 299.83078124999884,
      "v": 110
    },
    {
      "midi": 61,
      "hit": false,
      "t": 100033.68374999943,
      "d": 299.83078124999884,
      "v": 110
    },
    {
      "midi": 47,
      "hit": false,
      "t": 100337.73749999872,
      "d": 198.4795312500064,
      "v": 110
    },
    {
      "midi": 59,
      "hit": false,
      "t": 100337.73749999872,
      "d": 198.4795312500064,
      "v": 110
    },
    {
      "midi": 63,
      "hit": false,
      "t": 100337.73749999942,
      "d": 198.4795312500064,
      "v": 110
    },
    {
      "midi": 44,
      "hit": false,
      "t": 100540.43999999872,
      "d": 540.5399999999936,
      "v": 110
    },
    {
      "midi": 56,
      "hit": false,
      "t": 100540.43999999872,
      "d": 540.5399999999936,
      "v": 110
    },
    {
      "midi": 59,
      "hit": false,
      "t": 100540.43999999942,
      "d": 540.5399999999936,
      "v": 110
    },
    {
      "midi": 44,
      "hit": false,
      "t": 101148.54749999872,
      "d": 97.12828124999942,
      "v": 110
    },
    {
      "midi": 56,
      "hit": false,
      "t": 101148.54749999872,
      "d": 97.12828124999942,
      "v": 110
    },
    {
      "midi": 59,
      "hit": false,
      "t": 101148.54749999942,
      "d": 97.12828124999942,
      "v": 110
    },
    {
      "midi": 44,
      "hit": false,
      "t": 101249.89874999871,
      "d": 97.12828124999942,
      "v": 110
    },
    {
      "midi": 56,
      "hit": false,
      "t": 101249.89874999871,
      "d": 97.12828124999942,
      "v": 110
    },
    {
      "midi": 59,
      "hit": false,
      "t": 101249.89874999941,
      "d": 97.12828124999942,
      "v": 110
    },
    {
      "midi": 44,
      "hit": false,
      "t": 101351.2499999987,
      "d": 540.5399999999936,
      "v": 110
    },
    {
      "midi": 56,
      "hit": false,
      "t": 101351.2499999987,
      "d": 540.5399999999936,
      "v": 110
    },
    {
      "midi": 59,
      "hit": false,
      "t": 101351.2499999994,
      "d": 540.5399999999936,
      "v": 110
    },
    {
      "midi": 44,
      "hit": false,
      "t": 101959.3574999987,
      "d": 97.12828124999942,
      "v": 110
    },
    {
      "midi": 56,
      "hit": false,
      "t": 101959.3574999987,
      "d": 97.12828124999942,
      "v": 110
    },
    {
      "midi": 59,
      "hit": false,
      "t": 101959.3574999994,
      "d": 97.12828124999942,
      "v": 110
    },
    {
      "midi": 44,
      "hit": false,
      "t": 102060.7087499987,
      "d": 97.12828124999942,
      "v": 110
    },
    {
      "midi": 56,
      "hit": false,
      "t": 102060.7087499987,
      "d": 97.12828124999942,
      "v": 110
    },
    {
      "midi": 59,
      "hit": false,
      "t": 102060.7087499994,
      "d": 97.12828124999942,
      "v": 110
    },
    {
      "midi": 44,
      "hit": false,
      "t": 102162.05999999869,
      "d": 337.8374999999942,
      "v": 110
    },
    {
      "midi": 56,
      "hit": false,
      "t": 102162.05999999869,
      "d": 337.8374999999942,
      "v": 110
    },
    {
      "midi": 59,
      "hit": false,
      "t": 102162.05999999939,
      "d": 337.8374999999942,
      "v": 110
    },
    {
      "midi": 44,
      "hit": false,
      "t": 102567.46499999869,
      "d": 337.8374999999942,
      "v": 110
    },
    {
      "midi": 56,
      "hit": false,
      "t": 102567.46499999869,
      "d": 337.8374999999942,
      "v": 110
    },
    {
      "midi": 59,
      "hit": false,
      "t": 102567.46499999939,
      "d": 337.8374999999942,
      "v": 110
    },
    {
      "midi": 44,
      "hit": false,
      "t": 102972.86999999869,
      "d": 299.83078124999884,
      "v": 110
    },
    {
      "midi": 56,
      "hit": false,
      "t": 102972.86999999869,
      "d": 299.83078124999884,
      "v": 110
    },
    {
      "midi": 59,
      "hit": false,
      "t": 102972.86999999938,
      "d": 299.83078124999884,
      "v": 110
    },
    {
      "midi": 44,
      "hit": false,
      "t": 103276.92374999868,
      "d": 299.83078124999884,
      "v": 110
    },
    {
      "midi": 56,
      "hit": false,
      "t": 103276.92374999868,
      "d": 299.83078124999884,
      "v": 110
    },
    {
      "midi": 59,
      "hit": false,
      "t": 103276.92374999938,
      "d": 299.83078124999884,
      "v": 110
    },
    {
      "midi": 44,
      "hit": false,
      "t": 103580.97749999867,
      "d": 198.4795312500064,
      "v": 110
    },
    {
      "midi": 56,
      "hit": false,
      "t": 103580.97749999867,
      "d": 198.4795312500064,
      "v": 110
    },
    {
      "midi": 61,
      "hit": false,
      "t": 103580.97749999937,
      "d": 198.4795312500064,
      "v": 110
    },
    {
      "midi": 44,
      "hit": false,
      "t": 103783.67999999867,
      "d": 540.5399999999936,
      "v": 110
    },
    {
      "midi": 56,
      "hit": false,
      "t": 103783.67999999867,
      "d": 540.5399999999936,
      "v": 110
    },
    {
      "midi": 63,
      "hit": false,
      "t": 103783.67999999937,
      "d": 540.5399999999936,
      "v": 110
    },
    {
      "midi": 44,
      "hit": false,
      "t": 104391.78749999867,
      "d": 97.12828124999942,
      "v": 110
    },
    {
      "midi": 56,
      "hit": false,
      "t": 104391.78749999867,
      "d": 97.12828124999942,
      "v": 110
    },
    {
      "midi": 63,
      "hit": false,
      "t": 104391.78749999937,
      "d": 97.12828124999942,
      "v": 110
    },
    {
      "midi": 44,
      "hit": false,
      "t": 104493.13874999866,
      "d": 97.12828124999942,
      "v": 110
    },
    {
      "midi": 56,
      "hit": false,
      "t": 104493.13874999866,
      "d": 97.12828124999942,
      "v": 110
    },
    {
      "midi": 63,
      "hit": false,
      "t": 104493.13874999936,
      "d": 97.12828124999942,
      "v": 110
    },
    {
      "midi": 44,
      "hit": false,
      "t": 104594.48999999865,
      "d": 540.5399999999936,
      "v": 110
    },
    {
      "midi": 56,
      "hit": false,
      "t": 104594.48999999865,
      "d": 540.5399999999936,
      "v": 110
    },
    {
      "midi": 63,
      "hit": false,
      "t": 104594.48999999935,
      "d": 540.5399999999936,
      "v": 110
    },
    {
      "midi": 44,
      "hit": false,
      "t": 105202.59749999865,
      "d": 97.12828124999942,
      "v": 110
    },
    {
      "midi": 56,
      "hit": false,
      "t": 105202.59749999865,
      "d": 97.12828124999942,
      "v": 110
    },
    {
      "midi": 63,
      "hit": false,
      "t": 105202.59749999935,
      "d": 97.12828124999942,
      "v": 110
    },
    {
      "midi": 44,
      "hit": false,
      "t": 105303.94874999864,
      "d": 97.12828124999942,
      "v": 110
    },
    {
      "midi": 56,
      "hit": false,
      "t": 105303.94874999864,
      "d": 97.12828124999942,
      "v": 110
    },
    {
      "midi": 63,
      "hit": false,
      "t": 105303.94874999934,
      "d": 97.12828124999942,
      "v": 110
    },
    {
      "midi": 44,
      "hit": false,
      "t": 105405.29999999864,
      "d": 337.8374999999942,
      "v": 110
    },
    {
      "midi": 56,
      "hit": false,
      "t": 105405.29999999864,
      "d": 337.8374999999942,
      "v": 110
    },
    {
      "midi": 63,
      "hit": false,
      "t": 105405.29999999933,
      "d": 337.8374999999942,
      "v": 110
    },
    {
      "midi": 44,
      "hit": false,
      "t": 105810.70499999863,
      "d": 337.8374999999942,
      "v": 110
    },
    {
      "midi": 56,
      "hit": false,
      "t": 105810.70499999863,
      "d": 337.8374999999942,
      "v": 110
    },
    {
      "midi": 63,
      "hit": false,
      "t": 105810.70499999933,
      "d": 337.8374999999942,
      "v": 110
    },
    {
      "midi": 44,
      "hit": false,
      "t": 106216.10999999863,
      "d": 299.83078124999884,
      "v": 110
    },
    {
      "midi": 56,
      "hit": false,
      "t": 106216.10999999863,
      "d": 299.83078124999884,
      "v": 110
    },
    {
      "midi": 63,
      "hit": false,
      "t": 106216.10999999933,
      "d": 299.83078124999884,
      "v": 110
    },
    {
      "midi": 44,
      "hit": false,
      "t": 106520.16374999862,
      "d": 299.83078124999884,
      "v": 110
    },
    {
      "midi": 56,
      "hit": false,
      "t": 106520.16374999862,
      "d": 299.83078124999884,
      "v": 110
    },
    {
      "midi": 63,
      "hit": false,
      "t": 106520.16374999932,
      "d": 299.83078124999884,
      "v": 110
    },
    {
      "midi": 44,
      "hit": false,
      "t": 106824.21749999862,
      "d": 198.4795312500064,
      "v": 110
    },
    {
      "midi": 56,
      "hit": false,
      "t": 106824.21749999862,
      "d": 198.4795312500064,
      "v": 110
    },
    {
      "midi": 65,
      "hit": false,
      "t": 106824.21749999931,
      "d": 198.4795312500064,
      "v": 110
    },
    {
      "midi": 44,
      "hit": false,
      "t": 107026.91999999862,
      "d": 540.5399999999936,
      "v": 110
    },
    {
      "midi": 56,
      "hit": false,
      "t": 107026.91999999862,
      "d": 540.5399999999936,
      "v": 110
    },
    {
      "midi": 66,
      "hit": false,
      "t": 107026.91999999931,
      "d": 540.5399999999936,
      "v": 110
    },
    {
      "midi": 44,
      "hit": false,
      "t": 107635.02749999861,
      "d": 97.12828124999942,
      "v": 110
    },
    {
      "midi": 56,
      "hit": false,
      "t": 107635.02749999861,
      "d": 97.12828124999942,
      "v": 110
    },
    {
      "midi": 66,
      "hit": false,
      "t": 107635.02749999931,
      "d": 97.12828124999942,
      "v": 110
    },
    {
      "midi": 44,
      "hit": false,
      "t": 107736.3787499986,
      "d": 97.12828124999942,
      "v": 110
    },
    {
      "midi": 56,
      "hit": false,
      "t": 107736.3787499986,
      "d": 97.12828124999942,
      "v": 110
    },
    {
      "midi": 66,
      "hit": false,
      "t": 107736.3787499993,
      "d": 97.12828124999942,
      "v": 110
    },
    {
      "midi": 44,
      "hit": false,
      "t": 107837.7299999986,
      "d": 540.5399999999936,
      "v": 110
    },
    {
      "midi": 56,
      "hit": false,
      "t": 107837.7299999986,
      "d": 540.5399999999936,
      "v": 110
    },
    {
      "midi": 66,
      "hit": false,
      "t": 107837.7299999993,
      "d": 540.5399999999936,
      "v": 110
    },
    {
      "midi": 44,
      "hit": false,
      "t": 108445.8374999986,
      "d": 97.12828124999942,
      "v": 110
    },
    {
      "midi": 56,
      "hit": false,
      "t": 108445.8374999986,
      "d": 97.12828124999942,
      "v": 110
    },
    {
      "midi": 66,
      "hit": false,
      "t": 108445.8374999993,
      "d": 97.12828124999942,
      "v": 110
    },
    {
      "midi": 44,
      "hit": false,
      "t": 108547.18874999859,
      "d": 97.12828124999942,
      "v": 110
    },
    {
      "midi": 56,
      "hit": false,
      "t": 108547.18874999859,
      "d": 97.12828124999942,
      "v": 110
    },
    {
      "midi": 66,
      "hit": false,
      "t": 108547.18874999929,
      "d": 97.12828124999942,
      "v": 110
    },
    {
      "midi": 44,
      "hit": false,
      "t": 108648.53999999858,
      "d": 337.8374999999942,
      "v": 110
    },
    {
      "midi": 56,
      "hit": false,
      "t": 108648.53999999858,
      "d": 337.8374999999942,
      "v": 110
    },
    {
      "midi": 68,
      "hit": false,
      "t": 108648.53999999928,
      "d": 337.8374999999942,
      "v": 110
    },
    {
      "midi": 44,
      "hit": false,
      "t": 109053.94499999858,
      "d": 337.8374999999942,
      "v": 110
    },
    {
      "midi": 56,
      "hit": false,
      "t": 109053.94499999858,
      "d": 337.8374999999942,
      "v": 110
    },
    {
      "midi": 68,
      "hit": false,
      "t": 109053.94499999928,
      "d": 337.8374999999942,
      "v": 110
    },
    {
      "midi": 44,
      "hit": false,
      "t": 109459.34999999858,
      "d": 299.83078124999884,
      "v": 110
    },
    {
      "midi": 56,
      "hit": false,
      "t": 109459.34999999858,
      "d": 299.83078124999884,
      "v": 110
    },
    {
      "midi": 68,
      "hit": false,
      "t": 109459.34999999928,
      "d": 299.83078124999884,
      "v": 110
    },
    {
      "midi": 44,
      "hit": false,
      "t": 109763.40374999857,
      "d": 97.12828124999942,
      "v": 110
    },
    {
      "midi": 56,
      "hit": false,
      "t": 109763.40374999857,
      "d": 97.12828124999942,
      "v": 110
    },
    {
      "midi": 68,
      "hit": false,
      "t": 109763.40374999927,
      "d": 97.12828124999942,
      "v": 110
    },
    {
      "midi": 37,
      "hit": false,
      "t": 109864.75499999856,
      "d": 198.4795312500064,
      "v": 110
    },
    {
      "midi": 66,
      "hit": false,
      "t": 109864.75499999926,
      "d": 97.12828124999942,
      "v": 110
    },
    {
      "midi": 68,
      "hit": false,
      "t": 109966.10624999925,
      "d": 97.12828124999942,
      "v": 110
    },
    {
      "midi": 37,
      "hit": false,
      "t": 110067.45749999856,
      "d": 97.12828124999942,
      "v": 110
    },
    {
      "midi": 70,
      "hit": false,
      "t": 110067.45749999925,
      "d": 97.12828124999942,
      "v": 110
    },
    {
      "midi": 37,
      "hit": false,
      "t": 110168.80874999856,
      "d": 97.12828124999942,
      "v": 110
    },
    {
      "midi": 73,
      "hit": false,
      "t": 110168.80874999924,
      "d": 97.12828124999942,
      "v": 110
    },
    {
      "midi": 39,
      "hit": false,
      "t": 110270.15999999855,
      "d": 198.4795312500064,
      "v": 110
    },
    {
      "midi": 75,
      "hit": false,
      "t": 110270.15999999923,
      "d": 1959.457500000004,
      "v": 110
    },
    {
      "midi": 51,
      "hit": false,
      "t": 110472.86249999855,
      "d": 97.12828124999942,
      "v": 110
    },
    {
      "midi": 51,
      "hit": false,
      "t": 110574.21374999854,
      "d": 97.12828124999942,
      "v": 110
    },
    {
      "midi": 39,
      "hit": false,
      "t": 110675.56499999853,
      "d": 198.4795312500064,
      "v": 110
    },
    {
      "midi": 51,
      "hit": false,
      "t": 110878.26749999853,
      "d": 97.12828124999942,
      "v": 110
    },
    {
      "midi": 51,
      "hit": false,
      "t": 110979.61874999852,
      "d": 97.12828124999942,
      "v": 110
    },
    {
      "midi": 41,
      "hit": false,
      "t": 111080.96999999852,
      "d": 198.4795312500064,
      "v": 110
    },
    {
      "midi": 53,
      "hit": false,
      "t": 111283.67249999852,
      "d": 97.12828124999942,
      "v": 110
    },
    {
      "midi": 53,
      "hit": false,
      "t": 111385.02374999851,
      "d": 97.12828124999942,
      "v": 110
    },
    {
      "midi": 41,
      "hit": false,
      "t": 111486.3749999985,
      "d": 198.4795312500064,
      "v": 110
    },
    {
      "midi": 53,
      "hit": false,
      "t": 111689.0774999985,
      "d": 97.12828124999942,
      "v": 110
    },
    {
      "midi": 53,
      "hit": false,
      "t": 111790.4287499985,
      "d": 97.12828124999942,
      "v": 110
    },
    {
      "midi": 42,
      "hit": false,
      "t": 111891.77999999849,
      "d": 198.4795312500064,
      "v": 110
    },
    {
      "midi": 54,
      "hit": false,
      "t": 112094.48249999848,
      "d": 97.12828124999942,
      "v": 110
    },
    {
      "midi": 54,
      "hit": false,
      "t": 112195.83374999848,
      "d": 97.12828124999942,
      "v": 110
    },
    {
      "midi": 42,
      "hit": false,
      "t": 112297.18499999847,
      "d": 198.4795312500064,
      "v": 110
    },
    {
      "midi": 75,
      "hit": false,
      "t": 112297.18499999924,
      "d": 337.8374999999942,
      "v": 110
    },
    {
      "midi": 54,
      "hit": false,
      "t": 112499.88749999847,
      "d": 97.12828124999942,
      "v": 110
    },
    {
      "midi": 54,
      "hit": false,
      "t": 112601.23874999846,
      "d": 97.12828124999942,
      "v": 110
    },
    {
      "midi": 41,
      "hit": false,
      "t": 112702.58999999845,
      "d": 198.4795312500064,
      "v": 110
    },
    {
      "midi": 77,
      "hit": false,
      "t": 112702.58999999924,
      "d": 337.8374999999942,
      "v": 110
    },
    {
      "midi": 53,
      "hit": false,
      "t": 112905.29249999845,
      "d": 97.12828124999942,
      "v": 110
    },
    {
      "midi": 53,
      "hit": false,
      "t": 113006.64374999845,
      "d": 97.12828124999942,
      "v": 110
    },
    {
      "midi": 41,
      "hit": false,
      "t": 113107.99499999844,
      "d": 198.4795312500064,
      "v": 110
    },
    {
      "midi": 78,
      "hit": false,
      "t": 113107.99499999924,
      "d": 337.8374999999942,
      "v": 110
    },
    {
      "midi": 53,
      "hit": false,
      "t": 113310.69749999844,
      "d": 97.12828124999942,
      "v": 110
    },
    {
      "midi": 53,
      "hit": false,
      "t": 113412.04874999843,
      "d": 97.12828124999942,
      "v": 110
    },
    {
      "midi": 39,
      "hit": false,
      "t": 113513.39999999842,
      "d": 198.4795312500064,
      "v": 110
    },
    {
      "midi": 77,
      "hit": false,
      "t": 113513.39999999924,
      "d": 299.83078124999884,
      "v": 110
    },
    {
      "midi": 51,
      "hit": false,
      "t": 113716.10249999842,
      "d": 97.12828124999942,
      "v": 110
    },
    {
      "midi": 51,
      "hit": false,
      "t": 113817.45374999841,
      "d": 97.12828124999942,
      "v": 110
    },
    {
      "midi": 75,
      "hit": false,
      "t": 113817.45374999923,
      "d": 299.83078124999884,
      "v": 110
    },
    {
      "midi": 39,
      "hit": false,
      "t": 113918.8049999984,
      "d": 198.4795312500064,
      "v": 110
    },
    {
      "midi": 51,
      "hit": false,
      "t": 114121.5074999984,
      "d": 97.12828124999942,
      "v": 110
    },
    {
      "midi": 73,
      "hit": false,
      "t": 114121.50749999922,
      "d": 198.4795312500064,
      "v": 110
    },
    {
      "midi": 51,
      "hit": false,
      "t": 114222.8587499984,
      "d": 97.12828124999942,
      "v": 110
    },
    {
      "midi": 41,
      "hit": false,
      "t": 114324.20999999839,
      "d": 198.4795312500064,
      "v": 110
    },
    {
      "midi": 75,
      "hit": false,
      "t": 114324.20999999922,
      "d": 2225.5045312500006,
      "v": 110
    },
    {
      "midi": 53,
      "hit": false,
      "t": 114526.91249999839,
      "d": 97.12828124999942,
      "v": 110
    },
    {
      "midi": 53,
      "hit": false,
      "t": 114628.26374999838,
      "d": 97.12828124999942,
      "v": 110
    },
    {
      "midi": 41,
      "hit": false,
      "t": 114729.61499999838,
      "d": 198.4795312500064,
      "v": 110
    },
    {
      "midi": 53,
      "hit": false,
      "t": 114932.31749999837,
      "d": 97.12828124999942,
      "v": 110
    },
    {
      "midi": 53,
      "hit": false,
      "t": 115033.66874999837,
      "d": 97.12828124999942,
      "v": 110
    },
    {
      "midi": 42,
      "hit": false,
      "t": 115135.01999999836,
      "d": 198.4795312500064,
      "v": 110
    },
    {
      "midi": 54,
      "hit": false,
      "t": 115337.72249999836,
      "d": 97.12828124999942,
      "v": 110
    },
    {
      "midi": 54,
      "hit": false,
      "t": 115439.07374999835,
      "d": 97.12828124999942,
      "v": 110
    },
    {
      "midi": 42,
      "hit": false,
      "t": 115540.42499999834,
      "d": 198.4795312500064,
      "v": 110
    },
    {
      "midi": 54,
      "hit": false,
      "t": 115743.12749999834,
      "d": 97.12828124999942,
      "v": 110
    },
    {
      "midi": 54,
      "hit": false,
      "t": 115844.47874999834,
      "d": 97.12828124999942,
      "v": 110
    },
    {
      "midi": 41,
      "hit": false,
      "t": 115945.82999999833,
      "d": 198.4795312500064,
      "v": 110
    },
    {
      "midi": 53,
      "hit": false,
      "t": 116148.53249999833,
      "d": 97.12828124999942,
      "v": 110
    },
    {
      "midi": 53,
      "hit": false,
      "t": 116249.88374999832,
      "d": 97.12828124999942,
      "v": 110
    },
    {
      "midi": 41,
      "hit": false,
      "t": 116351.23499999831,
      "d": 198.4795312500064,
      "v": 110
    },
    {
      "midi": 53,
      "hit": false,
      "t": 116553.93749999831,
      "d": 97.12828124999942,
      "v": 110
    },
    {
      "midi": 70,
      "hit": false,
      "t": 116553.93749999921,
      "d": 97.12828124999942,
      "v": 110
    },
    {
      "midi": 53,
      "hit": false,
      "t": 116655.2887499983,
      "d": 97.12828124999942,
      "v": 110
    },
    {
      "midi": 73,
      "hit": false,
      "t": 116655.2887499992,
      "d": 97.12828124999942,
      "v": 110
    },
    {
      "midi": 39,
      "hit": false,
      "t": 116756.6399999983,
      "d": 198.4795312500064,
      "v": 110
    },
    {
      "midi": 75,
      "hit": false,
      "t": 116756.6399999992,
      "d": 1959.457500000004,
      "v": 110
    },
    {
      "midi": 51,
      "hit": false,
      "t": 116959.3424999983,
      "d": 97.12828124999942,
      "v": 110
    },
    {
      "midi": 51,
      "hit": false,
      "t": 117060.69374999829,
      "d": 97.12828124999942,
      "v": 110
    },
    {
      "midi": 39,
      "hit": false,
      "t": 117162.04499999828,
      "d": 198.4795312500064,
      "v": 110
    },
    {
      "midi": 51,
      "hit": false,
      "t": 117364.74749999828,
      "d": 97.12828124999942,
      "v": 110
    },
    {
      "midi": 51,
      "hit": false,
      "t": 117466.09874999827,
      "d": 97.12828124999942,
      "v": 110
    },
    {
      "midi": 41,
      "hit": false,
      "t": 117567.44999999827,
      "d": 198.4795312500064,
      "v": 110
    },
    {
      "midi": 53,
      "hit": false,
      "t": 117770.15249999826,
      "d": 97.12828124999942,
      "v": 110
    },
    {
      "midi": 53,
      "hit": false,
      "t": 117871.50374999826,
      "d": 97.12828124999942,
      "v": 110
    },
    {
      "midi": 41,
      "hit": false,
      "t": 117972.85499999825,
      "d": 198.4795312500064,
      "v": 110
    },
    {
      "midi": 53,
      "hit": false,
      "t": 118175.55749999825,
      "d": 97.12828124999942,
      "v": 110
    },
    {
      "midi": 53,
      "hit": false,
      "t": 118276.90874999824,
      "d": 97.12828124999942,
      "v": 110
    },
    {
      "midi": 42,
      "hit": false,
      "t": 118378.25999999823,
      "d": 198.4795312500064,
      "v": 110
    },
    {
      "midi": 54,
      "hit": false,
      "t": 118580.96249999823,
      "d": 97.12828124999942,
      "v": 110
    },
    {
      "midi": 54,
      "hit": false,
      "t": 118682.31374999823,
      "d": 97.12828124999942,
      "v": 110
    },
    {
      "midi": 42,
      "hit": false,
      "t": 118783.66499999822,
      "d": 198.4795312500064,
      "v": 110
    },
    {
      "midi": 75,
      "hit": false,
      "t": 118783.66499999921,
      "d": 337.8374999999942,
      "v": 110
    },
    {
      "midi": 54,
      "hit": false,
      "t": 118986.36749999822,
      "d": 97.12828124999942,
      "v": 110
    },
    {
      "midi": 54,
      "hit": false,
      "t": 119087.71874999821,
      "d": 97.12828124999942,
      "v": 110
    },
    {
      "midi": 41,
      "hit": false,
      "t": 119189.0699999982,
      "d": 198.4795312500064,
      "v": 110
    },
    {
      "midi": 77,
      "hit": false,
      "t": 119189.0699999992,
      "d": 337.8374999999942,
      "v": 110
    },
    {
      "midi": 53,
      "hit": false,
      "t": 119391.7724999982,
      "d": 97.12828124999942,
      "v": 110
    },
    {
      "midi": 53,
      "hit": false,
      "t": 119493.1237499982,
      "d": 97.12828124999942,
      "v": 110
    },
    {
      "midi": 41,
      "hit": false,
      "t": 119594.47499999819,
      "d": 198.4795312500064,
      "v": 110
    },
    {
      "midi": 78,
      "hit": false,
      "t": 119594.4749999992,
      "d": 337.8374999999942,
      "v": 110
    },
    {
      "midi": 53,
      "hit": false,
      "t": 119797.17749999819,
      "d": 97.12828124999942,
      "v": 110
    },
    {
      "midi": 53,
      "hit": false,
      "t": 119898.52874999818,
      "d": 97.12828124999942,
      "v": 110
    },
    {
      "midi": 39,
      "hit": false,
      "t": 119999.87999999817,
      "d": 198.4795312500064,
      "v": 110
    },
    {
      "midi": 77,
      "hit": false,
      "t": 119999.8799999992,
      "d": 299.83078124999884,
      "v": 110
    },
    {
      "midi": 51,
      "hit": false,
      "t": 120202.58249999817,
      "d": 97.12828124999942,
      "v": 110
    },
    {
      "midi": 51,
      "hit": false,
      "t": 120303.93374999816,
      "d": 97.12828124999942,
      "v": 110
    },
    {
      "midi": 80,
      "hit": false,
      "t": 120303.9337499992,
      "d": 299.83078124999884,
      "v": 110
    },
    {
      "midi": 39,
      "hit": false,
      "t": 120405.28499999816,
      "d": 198.4795312500064,
      "v": 110
    },
    {
      "midi": 51,
      "hit": false,
      "t": 120607.98749999815,
      "d": 97.12828124999942,
      "v": 110
    },
    {
      "midi": 77,
      "hit": false,
      "t": 120607.98749999919,
      "d": 198.4795312500064,
      "v": 110
    },
    {
      "midi": 51,
      "hit": false,
      "t": 120709.33874999815,
      "d": 97.12828124999942,
      "v": 110
    },
    {
      "midi": 41,
      "hit": false,
      "t": 120810.68999999814,
      "d": 198.4795312500064,
      "v": 110
    },
    {
      "midi": 75,
      "hit": false,
      "t": 120810.68999999919,
      "d": 2225.5045312500006,
      "v": 110
    },
    {
      "midi": 53,
      "hit": false,
      "t": 121013.39249999814,
      "d": 97.12828124999942,
      "v": 110
    },
    {
      "midi": 53,
      "hit": false,
      "t": 121114.74374999813,
      "d": 97.12828124999942,
      "v": 110
    },
    {
      "midi": 41,
      "hit": false,
      "t": 121216.09499999812,
      "d": 198.4795312500064,
      "v": 110
    },
    {
      "midi": 53,
      "hit": false,
      "t": 121418.79749999812,
      "d": 97.12828124999942,
      "v": 110
    },
    {
      "midi": 53,
      "hit": false,
      "t": 121520.14874999812,
      "d": 97.12828124999942,
      "v": 110
    },
    {
      "midi": 42,
      "hit": false,
      "t": 121621.49999999811,
      "d": 198.4795312500064,
      "v": 110
    },
    {
      "midi": 54,
      "hit": false,
      "t": 121824.20249999811,
      "d": 97.12828124999942,
      "v": 110
    },
    {
      "midi": 54,
      "hit": false,
      "t": 121925.5537499981,
      "d": 97.12828124999942,
      "v": 110
    },
    {
      "midi": 42,
      "hit": false,
      "t": 122026.90499999809,
      "d": 198.4795312500064,
      "v": 110
    },
    {
      "midi": 54,
      "hit": false,
      "t": 122229.60749999809,
      "d": 97.12828124999942,
      "v": 110
    },
    {
      "midi": 54,
      "hit": false,
      "t": 122330.95874999808,
      "d": 97.12828124999942,
      "v": 110
    },
    {
      "midi": 41,
      "hit": false,
      "t": 122432.30999999808,
      "d": 198.4795312500064,
      "v": 110
    },
    {
      "midi": 53,
      "hit": false,
      "t": 122635.01249999808,
      "d": 97.12828124999942,
      "v": 110
    },
    {
      "midi": 53,
      "hit": false,
      "t": 122736.36374999807,
      "d": 97.12828124999942,
      "v": 110
    },
    {
      "midi": 37,
      "hit": false,
      "t": 122837.71499999806,
      "d": 198.4795312500064,
      "v": 110
    },
    {
      "midi": 49,
      "hit": false,
      "t": 123040.41749999806,
      "d": 97.12828124999942,
      "v": 110
    },
    {
      "midi": 70,
      "hit": false,
      "t": 123040.41749999918,
      "d": 97.12828124999942,
      "v": 110
    },
    {
      "midi": 49,
      "hit": false,
      "t": 123141.76874999805,
      "d": 97.12828124999942,
      "v": 110
    },
    {
      "midi": 73,
      "hit": false,
      "t": 123141.76874999917,
      "d": 97.12828124999942,
      "v": 110
    },
    {
      "midi": 35,
      "hit": false,
      "t": 123243.11999999805,
      "d": 198.4795312500064,
      "v": 110
    },
    {
      "midi": 75,
      "hit": false,
      "t": 123243.11999999917,
      "d": 1009.2895312500041,
      "v": 110
    },
    {
      "midi": 47,
      "hit": false,
      "t": 123445.82249999804,
      "d": 97.12828124999942,
      "v": 110
    },
    {
      "midi": 47,
      "hit": false,
      "t": 123547.17374999804,
      "d": 97.12828124999942,
      "v": 110
    },
    {
      "midi": 35,
      "hit": false,
      "t": 123648.52499999803,
      "d": 198.4795312500064,
      "v": 110
    },
    {
      "midi": 47,
      "hit": false,
      "t": 123851.22749999803,
      "d": 97.12828124999942,
      "v": 110
    },
    {
      "midi": 47,
      "hit": false,
      "t": 123952.57874999802,
      "d": 97.12828124999942,
      "v": 110
    },
    {
      "midi": 35,
      "hit": false,
      "t": 124053.92999999801,
      "d": 198.4795312500064,
      "v": 110
    },
    {
      "midi": 47,
      "hit": false,
      "t": 124256.63249999801,
      "d": 97.12828124999942,
      "v": 110
    },
    {
      "midi": 75,
      "hit": false,
      "t": 124256.63249999916,
      "d": 198.4795312500064,
      "v": 110
    },
    {
      "midi": 47,
      "hit": false,
      "t": 124357.983749998,
      "d": 97.12828124999942,
      "v": 110
    },
    {
      "midi": 35,
      "hit": false,
      "t": 124459.334999998,
      "d": 198.4795312500064,
      "v": 110
    },
    {
      "midi": 73,
      "hit": false,
      "t": 124459.33499999916,
      "d": 198.4795312500064,
      "v": 110
    },
    {
      "midi": 47,
      "hit": false,
      "t": 124662.037499998,
      "d": 97.12828124999942,
      "v": 110
    },
    {
      "midi": 71,
      "hit": false,
      "t": 124662.03749999916,
      "d": 198.4795312500064,
      "v": 110
    },
    {
      "midi": 47,
      "hit": false,
      "t": 124763.38874999799,
      "d": 97.12828124999942,
      "v": 110
    },
    {
      "midi": 37,
      "hit": false,
      "t": 124864.73999999798,
      "d": 198.4795312500064,
      "v": 110
    },
    {
      "midi": 73,
      "hit": false,
      "t": 124864.73999999916,
      "d": 337.8374999999942,
      "v": 110
    },
    {
      "midi": 49,
      "hit": false,
      "t": 125067.44249999798,
      "d": 97.12828124999942,
      "v": 110
    },
    {
      "midi": 49,
      "hit": false,
      "t": 125168.79374999797,
      "d": 97.12828124999942,
      "v": 110
    },
    {
      "midi": 37,
      "hit": false,
      "t": 125270.14499999797,
      "d": 198.4795312500064,
      "v": 110
    },
    {
      "midi": 68,
      "hit": false,
      "t": 125270.14499999916,
      "d": 198.4795312500064,
      "v": 110
    },
    {
      "midi": 49,
      "hit": false,
      "t": 125472.84749999797,
      "d": 97.12828124999942,
      "v": 110
    },
    {
      "midi": 65,
      "hit": false,
      "t": 125472.84749999916,
      "d": 401.1820312500058,
      "v": 110
    },
    {
      "midi": 49,
      "hit": false,
      "t": 125574.19874999796,
      "d": 97.12828124999942,
      "v": 110
    },
    {
      "midi": 37,
      "hit": false,
      "t": 125675.54999999795,
      "d": 198.4795312500064,
      "v": 110
    },
    {
      "midi": 49,
      "hit": false,
      "t": 125878.25249999795,
      "d": 97.12828124999942,
      "v": 110
    },
    {
      "midi": 66,
      "hit": false,
      "t": 125878.25249999916,
      "d": 198.4795312500064,
      "v": 110
    },
    {
      "midi": 49,
      "hit": false,
      "t": 125979.60374999794,
      "d": 97.12828124999942,
      "v": 110
    },
    {
      "midi": 37,
      "hit": false,
      "t": 126080.95499999794,
      "d": 198.4795312500064,
      "v": 110
    },
    {
      "midi": 68,
      "hit": false,
      "t": 126080.95499999916,
      "d": 198.4795312500064,
      "v": 110
    },
    {
      "midi": 49,
      "hit": false,
      "t": 126283.65749999793,
      "d": 97.12828124999942,
      "v": 110
    },
    {
      "midi": 73,
      "hit": false,
      "t": 126283.65749999916,
      "d": 198.4795312500064,
      "v": 110
    },
    {
      "midi": 49,
      "hit": false,
      "t": 126385.00874999793,
      "d": 97.12828124999942,
      "v": 110
    },
    {
      "midi": 32,
      "hit": false,
      "t": 126486.35999999792,
      "d": 198.4795312500064,
      "v": 110
    },
    {
      "midi": 68,
      "hit": false,
      "t": 126486.35999999916,
      "d": 540.5399999999936,
      "v": 110
    },
    {
      "midi": 44,
      "hit": false,
      "t": 126689.06249999792,
      "d": 97.12828124999942,
      "v": 110
    },
    {
      "midi": 44,
      "hit": false,
      "t": 126790.41374999791,
      "d": 97.12828124999942,
      "v": 110
    },
    {
      "midi": 32,
      "hit": false,
      "t": 126891.7649999979,
      "d": 198.4795312500064,
      "v": 110
    },
    {
      "midi": 44,
      "hit": false,
      "t": 127094.4674999979,
      "d": 97.12828124999942,
      "v": 110
    },
    {
      "midi": 66,
      "hit": false,
      "t": 127094.46749999915,
      "d": 97.12828124999942,
      "v": 110
    },
    {
      "midi": 44,
      "hit": false,
      "t": 127195.8187499979,
      "d": 97.12828124999942,
      "v": 110
    },
    {
      "midi": 65,
      "hit": false,
      "t": 127195.81874999915,
      "d": 97.12828124999942,
      "v": 110
    },
    {
      "midi": 32,
      "hit": false,
      "t": 127297.16999999789,
      "d": 198.4795312500064,
      "v": 110
    },
    {
      "midi": 66,
      "hit": false,
      "t": 127297.16999999914,
      "d": 337.8374999999942,
      "v": 110
    },
    {
      "midi": 44,
      "hit": false,
      "t": 127499.87249999789,
      "d": 97.12828124999942,
      "v": 110
    },
    {
      "midi": 44,
      "hit": false,
      "t": 127601.22374999788,
      "d": 97.12828124999942,
      "v": 110
    },
    {
      "midi": 32,
      "hit": false,
      "t": 127702.57499999787,
      "d": 198.4795312500064,
      "v": 110
    },
    {
      "midi": 65,
      "hit": false,
      "t": 127702.57499999914,
      "d": 337.8374999999942,
      "v": 110
    },
    {
      "midi": 44,
      "hit": false,
      "t": 127905.27749999787,
      "d": 97.12828124999942,
      "v": 110
    },
    {
      "midi": 44,
      "hit": false,
      "t": 128006.62874999786,
      "d": 97.12828124999942,
      "v": 110
    },
    {
      "midi": 35,
      "hit": false,
      "t": 128107.97999999786,
      "d": 198.4795312500064,
      "v": 110
    },
    {
      "midi": 66,
      "hit": false,
      "t": 128107.97999999914,
      "d": 540.5399999999936,
      "v": 110
    },
    {
      "midi": 47,
      "hit": false,
      "t": 128310.68249999786,
      "d": 97.12828124999942,
      "v": 110
    },
    {
      "midi": 47,
      "hit": false,
      "t": 128412.03374999785,
      "d": 97.12828124999942,
      "v": 110
    },
    {
      "midi": 35,
      "hit": false,
      "t": 128513.38499999784,
      "d": 198.4795312500064,
      "v": 110
    },
    {
      "midi": 47,
      "hit": false,
      "t": 128716.08749999784,
      "d": 97.12828124999942,
      "v": 110
    },
    {
      "midi": 68,
      "hit": false,
      "t": 128716.08749999914,
      "d": 97.12828124999942,
      "v": 110
    },
    {
      "midi": 47,
      "hit": false,
      "t": 128817.43874999783,
      "d": 97.12828124999942,
      "v": 110
    },
    {
      "midi": 66,
      "hit": false,
      "t": 128817.43874999913,
      "d": 97.12828124999942,
      "v": 110
    },
    {
      "midi": 37,
      "hit": false,
      "t": 128918.78999999783,
      "d": 198.4795312500064,
      "v": 110
    },
    {
      "midi": 65,
      "hit": false,
      "t": 128918.78999999912,
      "d": 337.8374999999942,
      "v": 110
    },
    {
      "midi": 49,
      "hit": false,
      "t": 129121.49249999782,
      "d": 97.12828124999942,
      "v": 110
    },
    {
      "midi": 49,
      "hit": false,
      "t": 129222.84374999782,
      "d": 97.12828124999942,
      "v": 110
    },
    {
      "midi": 37,
      "hit": false,
      "t": 129324.19499999781,
      "d": 97.12828124999942,
      "v": 110
    },
    {
      "midi": 61,
      "hit": false,
      "t": 129324.19499999912,
      "d": 198.4795312500064,
      "v": 110
    },
    {
      "midi": 37,
      "hit": false,
      "t": 129425.5462499978,
      "d": 97.12828124999942,
      "v": 110
    },
    {
      "midi": 49,
      "hit": false,
      "t": 129526.8974999978,
      "d": 97.12828124999942,
      "v": 110
    },
    {
      "midi": 70,
      "hit": false,
      "t": 129526.89749999912,
      "d": 97.12828124999942,
      "v": 110
    },
    {
      "midi": 49,
      "hit": false,
      "t": 129628.24874999779,
      "d": 97.12828124999942,
      "v": 110
    },
    {
      "midi": 73,
      "hit": false,
      "t": 129628.24874999911,
      "d": 97.12828124999942,
      "v": 110
    },
    {
      "midi": 35,
      "hit": false,
      "t": 129729.59999999778,
      "d": 198.4795312500064,
      "v": 110
    },
    {
      "midi": 75,
      "hit": false,
      "t": 129729.5999999991,
      "d": 1009.2895312500041,
      "v": 110
    },
    {
      "midi": 47,
      "hit": false,
      "t": 129932.30249999778,
      "d": 97.12828124999942,
      "v": 110
    },
    {
      "midi": 47,
      "hit": false,
      "t": 130033.65374999777,
      "d": 97.12828124999942,
      "v": 110
    },
    {
      "midi": 35,
      "hit": false,
      "t": 130135.00499999776,
      "d": 198.4795312500064,
      "v": 110
    },
    {
      "midi": 47,
      "hit": false,
      "t": 130337.70749999776,
      "d": 97.12828124999942,
      "v": 110
    },
    {
      "midi": 47,
      "hit": false,
      "t": 130439.05874999776,
      "d": 97.12828124999942,
      "v": 110
    },
    {
      "midi": 35,
      "hit": false,
      "t": 130540.40999999775,
      "d": 198.4795312500064,
      "v": 110
    },
    {
      "midi": 47,
      "hit": false,
      "t": 130743.11249999775,
      "d": 97.12828124999942,
      "v": 110
    },
    {
      "midi": 75,
      "hit": false,
      "t": 130743.1124999991,
      "d": 198.4795312500064,
      "v": 110
    },
    {
      "midi": 47,
      "hit": false,
      "t": 130844.46374999774,
      "d": 97.12828124999942,
      "v": 110
    },
    {
      "midi": 35,
      "hit": false,
      "t": 130945.81499999773,
      "d": 198.47953124999185,
      "v": 110
    },
    {
      "midi": 73,
      "hit": false,
      "t": 130945.8149999991,
      "d": 198.47953124999185,
      "v": 110
    },
    {
      "midi": 47,
      "hit": false,
      "t": 131148.51749999772,
      "d": 97.12828125001397,
      "v": 110
    },
    {
      "midi": 71,
      "hit": false,
      "t": 131148.51749999908,
      "d": 198.47953124999185,
      "v": 110
    },
    {
      "midi": 47,
      "hit": false,
      "t": 131249.86874999772,
      "d": 97.12828125001397,
      "v": 110
    },
    {
      "midi": 37,
      "hit": false,
      "t": 131351.21999999773,
      "d": 198.47953124999185,
      "v": 110
    },
    {
      "midi": 73,
      "hit": false,
      "t": 131351.21999999907,
      "d": 337.8374999999942,
      "v": 110
    },
    {
      "midi": 49,
      "hit": false,
      "t": 131553.92249999772,
      "d": 97.12828125001397,
      "v": 110
    },
    {
      "midi": 49,
      "hit": false,
      "t": 131655.27374999772,
      "d": 97.12828125001397,
      "v": 110
    },
    {
      "midi": 37,
      "hit": false,
      "t": 131756.62499999773,
      "d": 198.47953124999185,
      "v": 110
    },
    {
      "midi": 68,
      "hit": false,
      "t": 131756.62499999907,
      "d": 198.47953124999185,
      "v": 110
    },
    {
      "midi": 49,
      "hit": false,
      "t": 131959.32749999771,
      "d": 97.12828125001397,
      "v": 110
    },
    {
      "midi": 65,
      "hit": false,
      "t": 131959.32749999905,
      "d": 401.1820312500058,
      "v": 110
    },
    {
      "midi": 49,
      "hit": false,
      "t": 132060.67874999772,
      "d": 97.12828125001397,
      "v": 110
    },
    {
      "midi": 37,
      "hit": false,
      "t": 132162.02999999773,
      "d": 198.47953124999185,
      "v": 110
    },
    {
      "midi": 49,
      "hit": false,
      "t": 132364.7324999977,
      "d": 97.12828125001397,
      "v": 110
    },
    {
      "midi": 66,
      "hit": false,
      "t": 132364.73249999905,
      "d": 198.47953124999185,
      "v": 110
    },
    {
      "midi": 49,
      "hit": false,
      "t": 132466.08374999772,
      "d": 97.12828125001397,
      "v": 110
    },
    {
      "midi": 37,
      "hit": false,
      "t": 132567.43499999773,
      "d": 198.47953124999185,
      "v": 110
    },
    {
      "midi": 68,
      "hit": false,
      "t": 132567.43499999904,
      "d": 198.47953124999185,
      "v": 110
    },
    {
      "midi": 49,
      "hit": false,
      "t": 132770.1374999977,
      "d": 97.12828125001397,
      "v": 110
    },
    {
      "midi": 73,
      "hit": false,
      "t": 132770.13749999902,
      "d": 198.47953124999185,
      "v": 110
    },
    {
      "midi": 49,
      "hit": false,
      "t": 132871.48874999772,
      "d": 97.12828125001397,
      "v": 110
    },
    {
      "midi": 32,
      "hit": false,
      "t": 132972.83999999773,
      "d": 198.47953124999185,
      "v": 110
    },
    {
      "midi": 68,
      "hit": false,
      "t": 132972.839999999,
      "d": 540.5400000000081,
      "v": 110
    },
    {
      "midi": 44,
      "hit": false,
      "t": 133175.5424999977,
      "d": 97.12828125001397,
      "v": 110
    },
    {
      "midi": 44,
      "hit": false,
      "t": 133276.89374999772,
      "d": 97.12828125001397,
      "v": 110
    },
    {
      "midi": 32,
      "hit": false,
      "t": 133378.24499999773,
      "d": 198.47953124999185,
      "v": 110
    },
    {
      "midi": 44,
      "hit": false,
      "t": 133580.9474999977,
      "d": 97.12828125001397,
      "v": 110
    },
    {
      "midi": 66,
      "hit": false,
      "t": 133580.94749999902,
      "d": 97.12828125001397,
      "v": 110
    },
    {
      "midi": 44,
      "hit": false,
      "t": 133682.29874999772,
      "d": 97.12828125001397,
      "v": 110
    },
    {
      "midi": 65,
      "hit": false,
      "t": 133682.29874999903,
      "d": 97.12828125001397,
      "v": 110
    },
    {
      "midi": 32,
      "hit": false,
      "t": 133783.64999999772,
      "d": 198.47953124999185,
      "v": 110
    },
    {
      "midi": 66,
      "hit": false,
      "t": 133783.64999999903,
      "d": 540.5400000000081,
      "v": 110
    },
    {
      "midi": 44,
      "hit": false,
      "t": 133986.3524999977,
      "d": 97.12828125001397,
      "v": 110
    },
    {
      "midi": 44,
      "hit": false,
      "t": 134087.70374999772,
      "d": 97.12828125001397,
      "v": 110
    },
    {
      "midi": 32,
      "hit": false,
      "t": 134189.05499999772,
      "d": 198.47953124999185,
      "v": 110
    },
    {
      "midi": 44,
      "hit": false,
      "t": 134391.7574999977,
      "d": 97.12828125001397,
      "v": 110
    },
    {
      "midi": 58,
      "hit": false,
      "t": 134391.75749999905,
      "d": 97.12828125001397,
      "v": 110
    },
    {
      "midi": 44,
      "hit": false,
      "t": 134493.10874999771,
      "d": 97.12828125001397,
      "v": 110
    },
    {
      "midi": 61,
      "hit": false,
      "t": 134493.10874999905,
      "d": 97.12828125001397,
      "v": 110
    },
    {
      "midi": 35,
      "hit": false,
      "t": 134594.45999999772,
      "d": 198.47953124999185,
      "v": 110
    },
    {
      "midi": 63,
      "hit": false,
      "t": 134594.45999999906,
      "d": 299.83078124999884,
      "v": 110
    },
    {
      "midi": 47,
      "hit": false,
      "t": 134797.1624999977,
      "d": 97.12828125001397,
      "v": 110
    },
    {
      "midi": 35,
      "hit": false,
      "t": 134898.5137499977,
      "d": 198.47953124999185,
      "v": 110
    },
    {
      "midi": 63,
      "hit": false,
      "t": 134898.51374999905,
      "d": 299.83078124999884,
      "v": 110
    },
    {
      "midi": 35,
      "hit": false,
      "t": 135101.2162499977,
      "d": 97.12828125001397,
      "v": 110
    },
    {
      "midi": 47,
      "hit": false,
      "t": 135202.5674999977,
      "d": 97.12828125001397,
      "v": 110
    },
    {
      "midi": 63,
      "hit": false,
      "t": 135202.56749999904,
      "d": 97.12828125001397,
      "v": 110
    },
    {
      "midi": 47,
      "hit": false,
      "t": 135303.9187499977,
      "d": 97.12828125001397,
      "v": 110
    },
    {
      "midi": 63,
      "hit": false,
      "t": 135303.91874999905,
      "d": 97.12828125001397,
      "v": 110
    },
    {
      "midi": 37,
      "hit": false,
      "t": 135405.26999999772,
      "d": 198.47953124999185,
      "v": 110
    },
    {
      "midi": 65,
      "hit": false,
      "t": 135405.26999999906,
      "d": 299.83078124999884,
      "v": 110
    },
    {
      "midi": 49,
      "hit": false,
      "t": 135607.9724999977,
      "d": 97.12828125001397,
      "v": 110
    },
    {
      "midi": 37,
      "hit": false,
      "t": 135709.3237499977,
      "d": 198.47953124999185,
      "v": 110
    },
    {
      "midi": 65,
      "hit": false,
      "t": 135709.32374999905,
      "d": 299.83078124999884,
      "v": 110
    },
    {
      "midi": 37,
      "hit": false,
      "t": 135912.0262499977,
      "d": 97.12828125001397,
      "v": 110
    },
    {
      "midi": 38,
      "hit": false,
      "t": 136013.3774999977,
      "d": 97.12828125001397,
      "v": 110
    },
    {
      "midi": 65,
      "hit": false,
      "t": 136013.37749999904,
      "d": 97.12828125001397,
      "v": 110
    },
    {
      "midi": 39,
      "hit": false,
      "t": 136114.7287499977,
      "d": 97.12828125001397,
      "v": 110
    },
    {
      "midi": 65,
      "hit": false,
      "t": 136114.72874999905,
      "d": 97.12828125001397,
      "v": 110
    },
    {
      "midi": 40,
      "hit": false,
      "t": 136216.07999999772,
      "d": 198.47953124999185,
      "v": 110
    },
    {
      "midi": 64,
      "hit": false,
      "t": 136216.07999999906,
      "d": 1414.6945312499884,
      "v": 110
    },
    {
      "midi": 40,
      "hit": false,
      "t": 136418.7824999977,
      "d": 97.12828125001397,
      "v": 110
    },
    {
      "midi": 40,
      "hit": false,
      "t": 136520.1337499977,
      "d": 97.12828125001397,
      "v": 110
    },
    {
      "midi": 40,
      "hit": false,
      "t": 136621.48499999772,
      "d": 198.47953124999185,
      "v": 110
    },
    {
      "midi": 40,
      "hit": false,
      "t": 136824.1874999977,
      "d": 97.12828125001397,
      "v": 110
    },
    {
      "midi": 40,
      "hit": false,
      "t": 136925.5387499977,
      "d": 97.12828125001397,
      "v": 110
    },
    {
      "midi": 40,
      "hit": false,
      "t": 137026.88999999771,
      "d": 198.47953124999185,
      "v": 110
    },
    {
      "midi": 40,
      "hit": false,
      "t": 137229.5924999977,
      "d": 97.12828125001397,
      "v": 110
    },
    {
      "midi": 40,
      "hit": false,
      "t": 137330.9437499977,
      "d": 97.12828125001397,
      "v": 110
    },
    {
      "midi": 40,
      "hit": false,
      "t": 137432.2949999977,
      "d": 97.12828125001397,
      "v": 110
    },
    {
      "midi": 40,
      "hit": false,
      "t": 137533.64624999772,
      "d": 97.12828125001397,
      "v": 110
    },
    {
      "midi": 40,
      "hit": false,
      "t": 137634.99749999773,
      "d": 97.12828125001397,
      "v": 110
    },
    {
      "midi": 56,
      "hit": false,
      "t": 137634.99749999904,
      "d": 97.12828125001397,
      "v": 110
    },
    {
      "midi": 40,
      "hit": false,
      "t": 137736.34874999773,
      "d": 97.12828125001397,
      "v": 110
    },
    {
      "midi": 68,
      "hit": false,
      "t": 137736.34874999904,
      "d": 97.12828125001397,
      "v": 110
    },
    {
      "midi": 40,
      "hit": false,
      "t": 137837.69999999774,
      "d": 198.47953124999185,
      "v": 110
    },
    {
      "midi": 64,
      "hit": false,
      "t": 137837.69999999905,
      "d": 540.5400000000081,
      "v": 110
    },
    {
      "midi": 40,
      "hit": false,
      "t": 138040.40249999773,
      "d": 97.12828125001397,
      "v": 110
    },
    {
      "midi": 40,
      "hit": false,
      "t": 138141.75374999773,
      "d": 97.12828125001397,
      "v": 110
    },
    {
      "midi": 40,
      "hit": false,
      "t": 138243.10499999774,
      "d": 198.47953124999185,
      "v": 110
    },
    {
      "midi": 40,
      "hit": false,
      "t": 138445.80749999773,
      "d": 97.12828125001397,
      "v": 110
    },
    {
      "midi": 61,
      "hit": false,
      "t": 138445.80749999906,
      "d": 97.12828125001397,
      "v": 110
    },
    {
      "midi": 40,
      "hit": false,
      "t": 138547.15874999773,
      "d": 97.12828125001397,
      "v": 110
    },
    {
      "midi": 63,
      "hit": false,
      "t": 138547.15874999907,
      "d": 97.12828125001397,
      "v": 110
    },
    {
      "midi": 40,
      "hit": false,
      "t": 138648.50999999774,
      "d": 198.47953124999185,
      "v": 110
    },
    {
      "midi": 64,
      "hit": false,
      "t": 138648.50999999908,
      "d": 198.47953124999185,
      "v": 110
    },
    {
      "midi": 40,
      "hit": false,
      "t": 138851.21249999772,
      "d": 97.12828125001397,
      "v": 110
    },
    {
      "midi": 63,
      "hit": false,
      "t": 138851.21249999906,
      "d": 198.47953124999185,
      "v": 110
    },
    {
      "midi": 40,
      "hit": false,
      "t": 138952.56374999773,
      "d": 97.12828125001397,
      "v": 110
    },
    {
      "midi": 40,
      "hit": false,
      "t": 139053.91499999774,
      "d": 97.12828125001397,
      "v": 110
    },
    {
      "midi": 61,
      "hit": false,
      "t": 139053.91499999905,
      "d": 198.47953124999185,
      "v": 110
    },
    {
      "midi": 40,
      "hit": false,
      "t": 139155.26624999775,
      "d": 97.12828125001397,
      "v": 110
    },
    {
      "midi": 40,
      "hit": false,
      "t": 139256.61749999775,
      "d": 97.12828125001397,
      "v": 110
    },
    {
      "midi": 56,
      "hit": false,
      "t": 139256.61749999903,
      "d": 198.47953124999185,
      "v": 110
    },
    {
      "midi": 40,
      "hit": false,
      "t": 139357.96874999776,
      "d": 97.12828125001397,
      "v": 110
    },
    {
      "midi": 38,
      "hit": false,
      "t": 139459.31999999777,
      "d": 198.47953124999185,
      "v": 110
    },
    {
      "midi": 62,
      "hit": false,
      "t": 139459.31999999902,
      "d": 198.47953124999185,
      "v": 110
    },
    {
      "midi": 38,
      "hit": false,
      "t": 139662.02249999775,
      "d": 97.12828125001397,
      "v": 110
    },
    {
      "midi": 61,
      "hit": false,
      "t": 139662.022499999,
      "d": 97.12828125001397,
      "v": 110
    },
    {
      "midi": 38,
      "hit": false,
      "t": 139763.37374999776,
      "d": 97.12828125001397,
      "v": 110
    },
    {
      "midi": 62,
      "hit": false,
      "t": 139763.373749999,
      "d": 46.45265625001048,
      "v": 110
    },
    {
      "midi": 61,
      "hit": false,
      "t": 139814.049374999,
      "d": 46.45265625001048,
      "v": 110
    },
    {
      "midi": 38,
      "hit": false,
      "t": 139864.72499999776,
      "d": 198.47953124999185,
      "v": 110
    },
    {
      "midi": 57,
      "hit": false,
      "t": 139864.72499999902,
      "d": 540.5400000000081,
      "v": 110
    },
    {
      "midi": 38,
      "hit": false,
      "t": 140067.42749999775,
      "d": 97.12828125001397,
      "v": 110
    },
    {
      "midi": 38,
      "hit": false,
      "t": 140168.77874999776,
      "d": 97.12828125001397,
      "v": 110
    },
    {
      "midi": 38,
      "hit": false,
      "t": 140270.12999999776,
      "d": 198.47953124999185,
      "v": 110
    },
    {
      "midi": 38,
      "hit": false,
      "t": 140472.83249999775,
      "d": 97.12828125001397,
      "v": 110
    },
    {
      "midi": 57,
      "hit": false,
      "t": 140472.83249999903,
      "d": 198.47953124999185,
      "v": 110
    },
    {
      "midi": 38,
      "hit": false,
      "t": 140574.18374999776,
      "d": 97.12828125001397,
      "v": 110
    },
    {
      "midi": 38,
      "hit": false,
      "t": 140675.53499999776,
      "d": 97.12828125001397,
      "v": 110
    },
    {
      "midi": 56,
      "hit": false,
      "t": 140675.534999999,
      "d": 198.47953124999185,
      "v": 110
    },
    {
      "midi": 38,
      "hit": false,
      "t": 140776.88624999777,
      "d": 97.12828125001397,
      "v": 110
    },
    {
      "midi": 38,
      "hit": false,
      "t": 140878.23749999778,
      "d": 97.12828125001397,
      "v": 110
    },
    {
      "midi": 61,
      "hit": false,
      "t": 140878.237499999,
      "d": 198.47953124999185,
      "v": 110
    },
    {
      "midi": 38,
      "hit": false,
      "t": 140979.58874999778,
      "d": 97.12828125001397,
      "v": 110
    },
    {
      "midi": 38,
      "hit": false,
      "t": 141080.9399999978,
      "d": 198.47953124999185,
      "v": 110
    },
    {
      "midi": 57,
      "hit": false,
      "t": 141080.93999999898,
      "d": 97.12828125001397,
      "v": 110
    },
    {
      "midi": 56,
      "hit": false,
      "t": 141182.291249999,
      "d": 97.12828125001397,
      "v": 110
    },
    {
      "midi": 38,
      "hit": false,
      "t": 141283.64249999778,
      "d": 97.12828125001397,
      "v": 110
    },
    {
      "midi": 57,
      "hit": false,
      "t": 141283.642499999,
      "d": 1211.9920312500035,
      "v": 110
    },
    {
      "midi": 38,
      "hit": false,
      "t": 141384.99374999778,
      "d": 97.12828125001397,
      "v": 110
    },
    {
      "midi": 38,
      "hit": false,
      "t": 141486.3449999978,
      "d": 198.47953124999185,
      "v": 110
    },
    {
      "midi": 38,
      "hit": false,
      "t": 141689.04749999777,
      "d": 97.12828125001397,
      "v": 110
    },
    {
      "midi": 38,
      "hit": false,
      "t": 141790.39874999778,
      "d": 97.12828125001397,
      "v": 110
    },
    {
      "midi": 38,
      "hit": false,
      "t": 141891.7499999978,
      "d": 198.47953124999185,
      "v": 110
    },
    {
      "midi": 38,
      "hit": false,
      "t": 142094.45249999777,
      "d": 97.12828125001397,
      "v": 110
    },
    {
      "midi": 38,
      "hit": false,
      "t": 142195.80374999778,
      "d": 97.12828125001397,
      "v": 110
    },
    {
      "midi": 38,
      "hit": false,
      "t": 142297.1549999978,
      "d": 97.12828125001397,
      "v": 110
    },
    {
      "midi": 38,
      "hit": false,
      "t": 142398.5062499978,
      "d": 97.12828125001397,
      "v": 110
    },
    {
      "midi": 38,
      "hit": false,
      "t": 142499.8574999978,
      "d": 97.12828125001397,
      "v": 110
    },
    {
      "midi": 56,
      "hit": false,
      "t": 142499.857499999,
      "d": 97.12828125001397,
      "v": 110
    },
    {
      "midi": 38,
      "hit": false,
      "t": 142601.2087499978,
      "d": 97.12828125001397,
      "v": 110
    },
    {
      "midi": 68,
      "hit": false,
      "t": 142601.208749999,
      "d": 97.12828125001397,
      "v": 110
    },
    {
      "midi": 40,
      "hit": false,
      "t": 142702.55999999781,
      "d": 198.47953124999185,
      "v": 110
    },
    {
      "midi": 64,
      "hit": false,
      "t": 142702.559999999,
      "d": 1414.6945312499884,
      "v": 110
    },
    {
      "midi": 40,
      "hit": false,
      "t": 142905.2624999978,
      "d": 97.12828125001397,
      "v": 110
    },
    {
      "midi": 40,
      "hit": false,
      "t": 143006.6137499978,
      "d": 97.12828125001397,
      "v": 110
    },
    {
      "midi": 40,
      "hit": false,
      "t": 143107.9649999978,
      "d": 198.47953124999185,
      "v": 110
    },
    {
      "midi": 40,
      "hit": false,
      "t": 143310.6674999978,
      "d": 97.12828125001397,
      "v": 110
    },
    {
      "midi": 40,
      "hit": false,
      "t": 143412.0187499978,
      "d": 97.12828125001397,
      "v": 110
    },
    {
      "midi": 40,
      "hit": false,
      "t": 143513.3699999978,
      "d": 198.47953124999185,
      "v": 110
    },
    {
      "midi": 40,
      "hit": false,
      "t": 143716.0724999978,
      "d": 97.12828125001397,
      "v": 110
    },
    {
      "midi": 40,
      "hit": false,
      "t": 143817.4237499978,
      "d": 97.12828125001397,
      "v": 110
    },
    {
      "midi": 40,
      "hit": false,
      "t": 143918.7749999978,
      "d": 97.12828125001397,
      "v": 110
    },
    {
      "midi": 40,
      "hit": false,
      "t": 144020.12624999782,
      "d": 97.12828125001397,
      "v": 110
    },
    {
      "midi": 40,
      "hit": false,
      "t": 144121.47749999783,
      "d": 97.12828125001397,
      "v": 110
    },
    {
      "midi": 56,
      "hit": false,
      "t": 144121.477499999,
      "d": 97.12828125001397,
      "v": 110
    },
    {
      "midi": 40,
      "hit": false,
      "t": 144222.82874999783,
      "d": 97.12828125001397,
      "v": 110
    },
    {
      "midi": 68,
      "hit": false,
      "t": 144222.828749999,
      "d": 97.12828125001397,
      "v": 110
    },
    {
      "midi": 40,
      "hit": false,
      "t": 144324.17999999784,
      "d": 198.47953124999185,
      "v": 110
    },
    {
      "midi": 64,
      "hit": false,
      "t": 144324.179999999,
      "d": 540.5400000000081,
      "v": 110
    },
    {
      "midi": 40,
      "hit": false,
      "t": 144526.88249999782,
      "d": 97.12828125001397,
      "v": 110
    },
    {
      "midi": 40,
      "hit": false,
      "t": 144628.23374999783,
      "d": 97.12828125001397,
      "v": 110
    },
    {
      "midi": 40,
      "hit": false,
      "t": 144729.58499999784,
      "d": 198.47953124999185,
      "v": 110
    },
    {
      "midi": 40,
      "hit": false,
      "t": 144932.28749999782,
      "d": 97.12828125001397,
      "v": 110
    },
    {
      "midi": 61,
      "hit": false,
      "t": 144932.28749999902,
      "d": 97.12828125001397,
      "v": 110
    },
    {
      "midi": 40,
      "hit": false,
      "t": 145033.63874999783,
      "d": 97.12828125001397,
      "v": 110
    },
    {
      "midi": 63,
      "hit": false,
      "t": 145033.63874999902,
      "d": 97.12828125001397,
      "v": 110
    },
    {
      "midi": 40,
      "hit": false,
      "t": 145134.98999999784,
      "d": 198.47953124999185,
      "v": 110
    },
    {
      "midi": 64,
      "hit": false,
      "t": 145134.98999999903,
      "d": 198.47953124999185,
      "v": 110
    },
    {
      "midi": 40,
      "hit": false,
      "t": 145337.69249999782,
      "d": 97.12828125001397,
      "v": 110
    },
    {
      "midi": 63,
      "hit": false,
      "t": 145337.69249999902,
      "d": 198.47953124999185,
      "v": 110
    },
    {
      "midi": 40,
      "hit": false,
      "t": 145439.04374999783,
      "d": 97.12828125001397,
      "v": 110
    },
    {
      "midi": 40,
      "hit": false,
      "t": 145540.39499999784,
      "d": 97.12828125001397,
      "v": 110
    },
    {
      "midi": 61,
      "hit": false,
      "t": 145540.394999999,
      "d": 198.47953124999185,
      "v": 110
    },
    {
      "midi": 40,
      "hit": false,
      "t": 145641.74624999784,
      "d": 97.12828125001397,
      "v": 110
    },
    {
      "midi": 40,
      "hit": false,
      "t": 145743.09749999785,
      "d": 97.12828125001397,
      "v": 110
    },
    {
      "midi": 56,
      "hit": false,
      "t": 145743.09749999898,
      "d": 198.47953124999185,
      "v": 110
    },
    {
      "midi": 40,
      "hit": false,
      "t": 145844.44874999786,
      "d": 97.12828125001397,
      "v": 110
    },
    {
      "midi": 38,
      "hit": false,
      "t": 145945.79999999786,
      "d": 198.47953124999185,
      "v": 110
    },
    {
      "midi": 62,
      "hit": false,
      "t": 145945.79999999897,
      "d": 198.47953124999185,
      "v": 110
    },
    {
      "midi": 38,
      "hit": false,
      "t": 146148.50249999785,
      "d": 97.12828125001397,
      "v": 110
    },
    {
      "midi": 61,
      "hit": false,
      "t": 146148.50249999895,
      "d": 97.12828125001397,
      "v": 110
    },
    {
      "midi": 38,
      "hit": false,
      "t": 146249.85374999786,
      "d": 97.12828125001397,
      "v": 110
    },
    {
      "midi": 62,
      "hit": false,
      "t": 146249.85374999896,
      "d": 46.45265625001048,
      "v": 110
    },
    {
      "midi": 61,
      "hit": false,
      "t": 146300.52937499897,
      "d": 46.45265625001048,
      "v": 110
    },
    {
      "midi": 38,
      "hit": false,
      "t": 146351.20499999786,
      "d": 198.47953124999185,
      "v": 110
    },
    {
      "midi": 57,
      "hit": false,
      "t": 146351.20499999897,
      "d": 540.5400000000081,
      "v": 110
    },
    {
      "midi": 38,
      "hit": false,
      "t": 146553.90749999785,
      "d": 97.12828125001397,
      "v": 110
    },
    {
      "midi": 38,
      "hit": false,
      "t": 146655.25874999785,
      "d": 97.12828125001397,
      "v": 110
    },
    {
      "midi": 38,
      "hit": false,
      "t": 146756.60999999786,
      "d": 198.47953124999185,
      "v": 110
    },
    {
      "midi": 38,
      "hit": false,
      "t": 146959.31249999785,
      "d": 97.12828125001397,
      "v": 110
    },
    {
      "midi": 57,
      "hit": false,
      "t": 146959.31249999898,
      "d": 198.47953124999185,
      "v": 110
    },
    {
      "midi": 38,
      "hit": false,
      "t": 147060.66374999785,
      "d": 97.12828125001397,
      "v": 110
    },
    {
      "midi": 38,
      "hit": false,
      "t": 147162.01499999786,
      "d": 97.12828125001397,
      "v": 110
    },
    {
      "midi": 56,
      "hit": false,
      "t": 147162.01499999897,
      "d": 198.47953124999185,
      "v": 110
    },
    {
      "midi": 38,
      "hit": false,
      "t": 147263.36624999787,
      "d": 97.12828125001397,
      "v": 110
    },
    {
      "midi": 38,
      "hit": false,
      "t": 147364.71749999787,
      "d": 97.12828125001397,
      "v": 110
    },
    {
      "midi": 61,
      "hit": false,
      "t": 147364.71749999895,
      "d": 198.47953124999185,
      "v": 110
    },
    {
      "midi": 38,
      "hit": false,
      "t": 147466.06874999788,
      "d": 97.12828125001397,
      "v": 110
    },
    {
      "midi": 38,
      "hit": false,
      "t": 147567.4199999979,
      "d": 198.47953124999185,
      "v": 110
    },
    {
      "midi": 57,
      "hit": false,
      "t": 147567.41999999894,
      "d": 97.12828125001397,
      "v": 110
    },
    {
      "midi": 56,
      "hit": false,
      "t": 147668.77124999894,
      "d": 97.12828125001397,
      "v": 110
    },
    {
      "midi": 38,
      "hit": false,
      "t": 147770.12249999787,
      "d": 97.12828125001397,
      "v": 110
    },
    {
      "midi": 57,
      "hit": false,
      "t": 147770.12249999895,
      "d": 1211.9920312500035,
      "v": 110
    },
    {
      "midi": 38,
      "hit": false,
      "t": 147871.47374999788,
      "d": 97.12828125001397,
      "v": 110
    },
    {
      "midi": 38,
      "hit": false,
      "t": 147972.8249999979,
      "d": 198.47953124999185,
      "v": 110
    },
    {
      "midi": 38,
      "hit": false,
      "t": 148175.52749999787,
      "d": 97.12828125001397,
      "v": 110
    },
    {
      "midi": 38,
      "hit": false,
      "t": 148276.87874999788,
      "d": 97.12828125001397,
      "v": 110
    },
    {
      "midi": 38,
      "hit": false,
      "t": 148378.2299999979,
      "d": 198.47953124999185,
      "v": 110
    },
    {
      "midi": 38,
      "hit": false,
      "t": 148580.93249999787,
      "d": 97.12828125001397,
      "v": 110
    },
    {
      "midi": 38,
      "hit": false,
      "t": 148682.28374999788,
      "d": 97.12828125001397,
      "v": 110
    },
    {
      "midi": 38,
      "hit": false,
      "t": 148783.63499999788,
      "d": 97.12828125001397,
      "v": 110
    },
    {
      "midi": 38,
      "hit": false,
      "t": 148884.9862499979,
      "d": 97.12828125001397,
      "v": 110
    },
    {
      "midi": 35,
      "hit": false,
      "t": 148986.3374999979,
      "d": 97.12828125001397,
      "v": 110
    },
    {
      "midi": 49,
      "hit": false,
      "t": 148986.33749999895,
      "d": 97.12828125001397,
      "v": 110
    },
    {
      "midi": 35,
      "hit": false,
      "t": 149087.6887499979,
      "d": 97.12828125001397,
      "v": 110
    },
    {
      "midi": 54,
      "hit": false,
      "t": 149087.68874999895,
      "d": 97.12828125001397,
      "v": 110
    },
    {
      "midi": 33,
      "hit": false,
      "t": 149189.0399999979,
      "d": 198.47953124999185,
      "v": 110
    },
    {
      "midi": 57,
      "hit": false,
      "t": 149189.03999999896,
      "d": 709.4587499999907,
      "v": 110
    },
    {
      "midi": 33,
      "hit": false,
      "t": 149391.7424999979,
      "d": 97.12828125001397,
      "v": 110
    },
    {
      "midi": 33,
      "hit": false,
      "t": 149493.0937499979,
      "d": 97.12828125001397,
      "v": 110
    },
    {
      "midi": 33,
      "hit": false,
      "t": 149594.4449999979,
      "d": 198.47953124999185,
      "v": 110
    },
    {
      "midi": 33,
      "hit": false,
      "t": 149797.1474999979,
      "d": 97.12828125001397,
      "v": 110
    },
    {
      "midi": 33,
      "hit": false,
      "t": 149898.4987499979,
      "d": 97.12828125001397,
      "v": 110
    },
    {
      "midi": 33,
      "hit": false,
      "t": 149999.8499999979,
      "d": 198.47953124999185,
      "v": 110
    },
    {
      "midi": 61,
      "hit": false,
      "t": 149999.84999999896,
      "d": 540.5400000000081,
      "v": 110
    },
    {
      "midi": 33,
      "hit": false,
      "t": 150202.5524999979,
      "d": 97.12828125001397,
      "v": 110
    },
    {
      "midi": 33,
      "hit": false,
      "t": 150303.9037499979,
      "d": 97.12828125001397,
      "v": 110
    },
    {
      "midi": 33,
      "hit": false,
      "t": 150405.2549999979,
      "d": 198.47953124999185,
      "v": 110
    },
    {
      "midi": 35,
      "hit": false,
      "t": 150607.9574999979,
      "d": 97.12828125001397,
      "v": 110
    },
    {
      "midi": 59,
      "hit": false,
      "t": 150607.95749999897,
      "d": 97.12828125001397,
      "v": 110
    },
    {
      "midi": 37,
      "hit": false,
      "t": 150709.3087499979,
      "d": 97.12828125001397,
      "v": 110
    },
    {
      "midi": 61,
      "hit": false,
      "t": 150709.30874999898,
      "d": 97.12828125001397,
      "v": 110
    },
    {
      "midi": 35,
      "hit": false,
      "t": 150810.6599999979,
      "d": 198.47953124999185,
      "v": 110
    },
    {
      "midi": 63,
      "hit": false,
      "t": 150810.65999999898,
      "d": 337.8374999999942,
      "v": 110
    },
    {
      "midi": 35,
      "hit": false,
      "t": 151013.3624999979,
      "d": 97.12828125001397,
      "v": 110
    },
    {
      "midi": 35,
      "hit": false,
      "t": 151114.7137499979,
      "d": 97.12828125001397,
      "v": 110
    },
    {
      "midi": 35,
      "hit": false,
      "t": 151216.0649999979,
      "d": 198.47953124999185,
      "v": 110
    },
    {
      "midi": 61,
      "hit": false,
      "t": 151216.06499999898,
      "d": 337.8374999999942,
      "v": 110
    },
    {
      "midi": 35,
      "hit": false,
      "t": 151418.7674999979,
      "d": 97.12828125001397,
      "v": 110
    },
    {
      "midi": 35,
      "hit": false,
      "t": 151520.1187499979,
      "d": 97.12828125001397,
      "v": 110
    },
    {
      "midi": 35,
      "hit": false,
      "t": 151621.4699999979,
      "d": 198.47953124999185,
      "v": 110
    },
    {
      "midi": 59,
      "hit": false,
      "t": 151621.46999999898,
      "d": 337.8374999999942,
      "v": 110
    },
    {
      "midi": 35,
      "hit": false,
      "t": 151824.1724999979,
      "d": 97.12828125001397,
      "v": 110
    },
    {
      "midi": 35,
      "hit": false,
      "t": 151925.5237499979,
      "d": 97.12828125001397,
      "v": 110
    },
    {
      "midi": 35,
      "hit": false,
      "t": 152026.8749999979,
      "d": 97.12828125001397,
      "v": 110
    },
    {
      "midi": 56,
      "hit": false,
      "t": 152026.87499999898,
      "d": 337.8374999999942,
      "v": 110
    },
    {
      "midi": 37,
      "hit": false,
      "t": 152128.2262499979,
      "d": 97.12828125001397,
      "v": 110
    },
    {
      "midi": 39,
      "hit": false,
      "t": 152229.57749999792,
      "d": 97.12828125001397,
      "v": 110
    },
    {
      "midi": 41,
      "hit": false,
      "t": 152330.92874999793,
      "d": 97.12828125001397,
      "v": 110
    },
    {
      "midi": 42,
      "hit": false,
      "t": 152432.27999999793,
      "d": 198.47953124999185,
      "v": 110
    },
    {
      "midi": 54,
      "hit": false,
      "t": 152432.27999999898,
      "d": 1414.6945312499884,
      "v": 110
    },
    {
      "midi": 42,
      "hit": false,
      "t": 152634.98249999792,
      "d": 97.12828125001397,
      "v": 110
    },
    {
      "midi": 42,
      "hit": false,
      "t": 152736.33374999792,
      "d": 97.12828125001397,
      "v": 110
    },
    {
      "midi": 42,
      "hit": false,
      "t": 152837.68499999793,
      "d": 198.47953124999185,
      "v": 110
    },
    {
      "midi": 42,
      "hit": false,
      "t": 153040.38749999792,
      "d": 97.12828125001397,
      "v": 110
    },
    {
      "midi": 42,
      "hit": false,
      "t": 153141.73874999792,
      "d": 97.12828125001397,
      "v": 110
    },
    {
      "midi": 42,
      "hit": false,
      "t": 153243.08999999793,
      "d": 198.47953124999185,
      "v": 110
    },
    {
      "midi": 42,
      "hit": false,
      "t": 153445.79249999792,
      "d": 97.12828125001397,
      "v": 110
    },
    {
      "midi": 42,
      "hit": false,
      "t": 153547.14374999792,
      "d": 97.12828125001397,
      "v": 110
    },
    {
      "midi": 42,
      "hit": false,
      "t": 153648.49499999793,
      "d": 97.12828125001397,
      "v": 110
    },
    {
      "midi": 39,
      "hit": false,
      "t": 153749.84624999794,
      "d": 97.12828125001397,
      "v": 110
    },
    {
      "midi": 37,
      "hit": false,
      "t": 153851.19749999794,
      "d": 97.12828125001397,
      "v": 110
    },
    {
      "midi": 54,
      "hit": false,
      "t": 153851.19749999896,
      "d": 97.12828125001397,
      "v": 110
    },
    {
      "midi": 34,
      "hit": false,
      "t": 153952.54874999795,
      "d": 97.12828125001397,
      "v": 110
    },
    {
      "midi": 56,
      "hit": false,
      "t": 153952.54874999897,
      "d": 97.12828125001397,
      "v": 110
    },
    {
      "midi": 30,
      "hit": false,
      "t": 154053.89999999796,
      "d": 198.47953124999185,
      "v": 110
    },
    {
      "midi": 61,
      "hit": false,
      "t": 154053.89999999898,
      "d": 1414.6945312499884,
      "v": 110
    },
    {
      "midi": 30,
      "hit": false,
      "t": 154256.60249999794,
      "d": 97.12828125001397,
      "v": 110
    },
    {
      "midi": 30,
      "hit": false,
      "t": 154357.95374999795,
      "d": 97.12828125001397,
      "v": 110
    },
    {
      "midi": 30,
      "hit": false,
      "t": 154459.30499999796,
      "d": 198.47953124999185,
      "v": 110
    },
    {
      "midi": 30,
      "hit": false,
      "t": 154662.00749999794,
      "d": 97.12828125001397,
      "v": 110
    },
    {
      "midi": 30,
      "hit": false,
      "t": 154763.35874999795,
      "d": 97.12828125001397,
      "v": 110
    },
    {
      "midi": 30,
      "hit": false,
      "t": 154864.70999999795,
      "d": 198.47953124999185,
      "v": 110
    },
    {
      "midi": 30,
      "hit": false,
      "t": 155067.41249999794,
      "d": 97.12828125001397,
      "v": 110
    },
    {
      "midi": 30,
      "hit": false,
      "t": 155168.76374999795,
      "d": 97.12828125001397,
      "v": 110
    },
    {
      "midi": 30,
      "hit": false,
      "t": 155270.11499999795,
      "d": 97.12828125001397,
      "v": 110
    },
    {
      "midi": 32,
      "hit": false,
      "t": 155371.46624999796,
      "d": 97.12828125001397,
      "v": 110
    },
    {
      "midi": 34,
      "hit": false,
      "t": 155472.81749999797,
      "d": 97.12828125001397,
      "v": 110
    },
    {
      "midi": 49,
      "hit": false,
      "t": 155472.81749999896,
      "d": 97.12828125001397,
      "v": 110
    },
    {
      "midi": 35,
      "hit": false,
      "t": 155574.16874999797,
      "d": 97.12828125001397,
      "v": 110
    },
    {
      "midi": 54,
      "hit": false,
      "t": 155574.16874999896,
      "d": 97.12828125001397,
      "v": 110
    },
    {
      "midi": 33,
      "hit": false,
      "t": 155675.51999999798,
      "d": 198.47953124999185,
      "v": 110
    },
    {
      "midi": 57,
      "hit": false,
      "t": 155675.51999999897,
      "d": 709.4587499999907,
      "v": 110
    },
    {
      "midi": 33,
      "hit": false,
      "t": 155878.22249999797,
      "d": 97.12828125001397,
      "v": 110
    },
    {
      "midi": 33,
      "hit": false,
      "t": 155979.57374999797,
      "d": 97.12828125001397,
      "v": 110
    },
    {
      "midi": 33,
      "hit": false,
      "t": 156080.92499999798,
      "d": 198.47953124999185,
      "v": 110
    },
    {
      "midi": 33,
      "hit": false,
      "t": 156283.62749999797,
      "d": 97.12828125001397,
      "v": 110
    },
    {
      "midi": 33,
      "hit": false,
      "t": 156384.97874999797,
      "d": 97.12828125001397,
      "v": 110
    },
    {
      "midi": 33,
      "hit": false,
      "t": 156486.32999999798,
      "d": 198.47953124999185,
      "v": 110
    },
    {
      "midi": 61,
      "hit": false,
      "t": 156486.32999999897,
      "d": 540.5400000000081,
      "v": 110
    },
    {
      "midi": 33,
      "hit": false,
      "t": 156689.03249999796,
      "d": 97.12828125001397,
      "v": 110
    },
    {
      "midi": 33,
      "hit": false,
      "t": 156790.38374999797,
      "d": 97.12828125001397,
      "v": 110
    },
    {
      "midi": 33,
      "hit": false,
      "t": 156891.73499999798,
      "d": 198.47953124999185,
      "v": 110
    },
    {
      "midi": 35,
      "hit": false,
      "t": 157094.43749999796,
      "d": 97.12828125001397,
      "v": 110
    },
    {
      "midi": 59,
      "hit": false,
      "t": 157094.43749999898,
      "d": 97.12828125001397,
      "v": 110
    },
    {
      "midi": 37,
      "hit": false,
      "t": 157195.78874999797,
      "d": 97.12828125001397,
      "v": 110
    },
    {
      "midi": 61,
      "hit": false,
      "t": 157195.788749999,
      "d": 97.12828125001397,
      "v": 110
    },
    {
      "midi": 35,
      "hit": false,
      "t": 157297.13999999798,
      "d": 198.47953124999185,
      "v": 110
    },
    {
      "midi": 63,
      "hit": false,
      "t": 157297.139999999,
      "d": 337.8374999999942,
      "v": 110
    },
    {
      "midi": 35,
      "hit": false,
      "t": 157499.84249999796,
      "d": 97.12828125001397,
      "v": 110
    },
    {
      "midi": 35,
      "hit": false,
      "t": 157601.19374999797,
      "d": 97.12828125001397,
      "v": 110
    },
    {
      "midi": 35,
      "hit": false,
      "t": 157702.54499999798,
      "d": 198.47953124999185,
      "v": 110
    },
    {
      "midi": 61,
      "hit": false,
      "t": 157702.544999999,
      "d": 337.8374999999942,
      "v": 110
    },
    {
      "midi": 35,
      "hit": false,
      "t": 157905.24749999796,
      "d": 97.12828125001397,
      "v": 110
    },
    {
      "midi": 35,
      "hit": false,
      "t": 158006.59874999797,
      "d": 97.12828125001397,
      "v": 110
    },
    {
      "midi": 35,
      "hit": false,
      "t": 158107.94999999797,
      "d": 198.47953124999185,
      "v": 110
    },
    {
      "midi": 59,
      "hit": false,
      "t": 158107.949999999,
      "d": 337.8374999999942,
      "v": 110
    },
    {
      "midi": 35,
      "hit": false,
      "t": 158310.65249999796,
      "d": 97.12828125001397,
      "v": 110
    },
    {
      "midi": 35,
      "hit": false,
      "t": 158412.00374999797,
      "d": 97.12828125001397,
      "v": 110
    },
    {
      "midi": 35,
      "hit": false,
      "t": 158513.35499999797,
      "d": 97.12828125001397,
      "v": 110
    },
    {
      "midi": 56,
      "hit": false,
      "t": 158513.354999999,
      "d": 337.8374999999942,
      "v": 110
    },
    {
      "midi": 37,
      "hit": false,
      "t": 158614.70624999798,
      "d": 97.12828125001397,
      "v": 110
    },
    {
      "midi": 39,
      "hit": false,
      "t": 158716.057499998,
      "d": 97.12828125001397,
      "v": 110
    },
    {
      "midi": 41,
      "hit": false,
      "t": 158817.408749998,
      "d": 97.12828125001397,
      "v": 110
    },
    {
      "midi": 42,
      "hit": false,
      "t": 158918.759999998,
      "d": 198.47953124999185,
      "v": 110
    },
    {
      "midi": 54,
      "hit": false,
      "t": 158918.759999999,
      "d": 1414.6945312499884,
      "v": 110
    },
    {
      "midi": 42,
      "hit": false,
      "t": 159121.462499998,
      "d": 97.12828125001397,
      "v": 110
    },
    {
      "midi": 42,
      "hit": false,
      "t": 159222.813749998,
      "d": 97.12828125001397,
      "v": 110
    },
    {
      "midi": 42,
      "hit": false,
      "t": 159324.164999998,
      "d": 198.47953124999185,
      "v": 110
    },
    {
      "midi": 42,
      "hit": false,
      "t": 159526.86749999798,
      "d": 97.12828125001397,
      "v": 110
    },
    {
      "midi": 42,
      "hit": false,
      "t": 159628.218749998,
      "d": 97.12828125001397,
      "v": 110
    },
    {
      "midi": 42,
      "hit": false,
      "t": 159729.569999998,
      "d": 198.47953124999185,
      "v": 110
    },
    {
      "midi": 42,
      "hit": false,
      "t": 159932.27249999798,
      "d": 97.12828125001397,
      "v": 110
    },
    {
      "midi": 42,
      "hit": false,
      "t": 160033.623749998,
      "d": 97.12828125001397,
      "v": 110
    },
    {
      "midi": 42,
      "hit": false,
      "t": 160134.974999998,
      "d": 97.12828125001397,
      "v": 110
    },
    {
      "midi": 39,
      "hit": false,
      "t": 160236.326249998,
      "d": 97.12828125001397,
      "v": 110
    },
    {
      "midi": 37,
      "hit": false,
      "t": 160337.677499998,
      "d": 97.12828125001397,
      "v": 110
    },
    {
      "midi": 54,
      "hit": false,
      "t": 160337.67749999897,
      "d": 97.12828125001397,
      "v": 110
    },
    {
      "midi": 34,
      "hit": false,
      "t": 160439.02874999802,
      "d": 97.12828125001397,
      "v": 110
    },
    {
      "midi": 56,
      "hit": false,
      "t": 160439.02874999898,
      "d": 97.12828125001397,
      "v": 110
    },
    {
      "midi": 30,
      "hit": false,
      "t": 160540.37999999803,
      "d": 198.47953124999185,
      "v": 110
    },
    {
      "midi": 61,
      "hit": false,
      "t": 160540.379999999,
      "d": 1520.2687499999884,
      "v": 110
    },
    {
      "midi": 30,
      "hit": false,
      "t": 160743.082499998,
      "d": 97.12828125001397,
      "v": 110
    },
    {
      "midi": 30,
      "hit": false,
      "t": 160844.43374999802,
      "d": 97.12828125001397,
      "v": 110
    },
    {
      "midi": 30,
      "hit": false,
      "t": 160945.78499999802,
      "d": 198.47953124999185,
      "v": 110
    },
    {
      "midi": 30,
      "hit": false,
      "t": 161148.487499998,
      "d": 97.12828125001397,
      "v": 110
    },
    {
      "midi": 30,
      "hit": false,
      "t": 161249.83874999802,
      "d": 97.12828125001397,
      "v": 110
    },
    {
      "midi": 30,
      "hit": false,
      "t": 161351.18999999802,
      "d": 198.47953124999185,
      "v": 110
    },
    {
      "midi": 30,
      "hit": false,
      "t": 161553.892499998,
      "d": 97.12828125001397,
      "v": 110
    },
    {
      "midi": 30,
      "hit": false,
      "t": 161655.24374999802,
      "d": 97.12828125001397,
      "v": 110
    },
    {
      "midi": 42,
      "hit": false,
      "t": 161756.59499999802,
      "d": 97.12828125001397,
      "v": 110
    },
    {
      "midi": 30,
      "hit": false,
      "t": 161857.94624999803,
      "d": 97.12828125001397,
      "v": 110
    },
    {
      "midi": 30,
      "hit": false,
      "t": 161959.29749999804,
      "d": 97.12828125001397,
      "v": 110
    },
    {
      "midi": 30,
      "hit": false,
      "t": 162060.64874999804,
      "d": 97.12828125001397,
      "v": 110
    },
    {
      "midi": 40,
      "hit": false,
      "t": 162161.99999999805,
      "d": 540.5400000000081,
      "v": 110
    },
    {
      "midi": 52,
      "hit": false,
      "t": 162161.99999999805,
      "d": 540.5400000000081,
      "v": 110
    },
    {
      "midi": 63,
      "hit": false,
      "t": 162161.99999999898,
      "d": 540.5400000000081,
      "v": 110
    },
    {
      "midi": 40,
      "hit": false,
      "t": 162770.10749999806,
      "d": 97.12828125001397,
      "v": 110
    },
    {
      "midi": 52,
      "hit": false,
      "t": 162770.10749999806,
      "d": 97.12828125001397,
      "v": 110
    },
    {
      "midi": 63,
      "hit": false,
      "t": 162770.107499999,
      "d": 97.12828125001397,
      "v": 110
    },
    {
      "midi": 40,
      "hit": false,
      "t": 162871.45874999807,
      "d": 97.12828125001397,
      "v": 110
    },
    {
      "midi": 52,
      "hit": false,
      "t": 162871.45874999807,
      "d": 97.12828125001397,
      "v": 110
    },
    {
      "midi": 63,
      "hit": false,
      "t": 162871.458749999,
      "d": 97.12828125001397,
      "v": 110
    },
    {
      "midi": 40,
      "hit": false,
      "t": 162972.80999999808,
      "d": 540.5400000000081,
      "v": 110
    },
    {
      "midi": 52,
      "hit": false,
      "t": 162972.80999999808,
      "d": 540.5400000000081,
      "v": 110
    },
    {
      "midi": 63,
      "hit": false,
      "t": 162972.809999999,
      "d": 540.5400000000081,
      "v": 110
    },
    {
      "midi": 40,
      "hit": false,
      "t": 163580.9174999981,
      "d": 97.12828125001397,
      "v": 110
    },
    {
      "midi": 52,
      "hit": false,
      "t": 163580.9174999981,
      "d": 97.12828125001397,
      "v": 110
    },
    {
      "midi": 63,
      "hit": false,
      "t": 163580.91749999902,
      "d": 97.12828125001397,
      "v": 110
    },
    {
      "midi": 40,
      "hit": false,
      "t": 163682.2687499981,
      "d": 97.12828125001397,
      "v": 110
    },
    {
      "midi": 52,
      "hit": false,
      "t": 163682.2687499981,
      "d": 97.12828125001397,
      "v": 110
    },
    {
      "midi": 63,
      "hit": false,
      "t": 163682.26874999903,
      "d": 97.12828125001397,
      "v": 110
    },
    {
      "midi": 40,
      "hit": false,
      "t": 163783.6199999981,
      "d": 337.8374999999942,
      "v": 110
    },
    {
      "midi": 52,
      "hit": false,
      "t": 163783.6199999981,
      "d": 337.8374999999942,
      "v": 110
    },
    {
      "midi": 63,
      "hit": false,
      "t": 163783.61999999903,
      "d": 337.8374999999942,
      "v": 110
    },
    {
      "midi": 40,
      "hit": false,
      "t": 164189.0249999981,
      "d": 337.8374999999942,
      "v": 110
    },
    {
      "midi": 52,
      "hit": false,
      "t": 164189.0249999981,
      "d": 337.8374999999942,
      "v": 110
    },
    {
      "midi": 63,
      "hit": false,
      "t": 164189.02499999903,
      "d": 337.8374999999942,
      "v": 110
    },
    {
      "midi": 40,
      "hit": false,
      "t": 164594.4299999981,
      "d": 299.83078124999884,
      "v": 110
    },
    {
      "midi": 52,
      "hit": false,
      "t": 164594.4299999981,
      "d": 299.83078124999884,
      "v": 110
    },
    {
      "midi": 63,
      "hit": false,
      "t": 164594.42999999903,
      "d": 299.83078124999884,
      "v": 110
    },
    {
      "midi": 40,
      "hit": false,
      "t": 164898.4837499981,
      "d": 299.83078124999884,
      "v": 110
    },
    {
      "midi": 52,
      "hit": false,
      "t": 164898.4837499981,
      "d": 299.83078124999884,
      "v": 110
    },
    {
      "midi": 63,
      "hit": false,
      "t": 164898.48374999902,
      "d": 299.83078124999884,
      "v": 110
    },
    {
      "midi": 42,
      "hit": false,
      "t": 165202.53749999808,
      "d": 198.47953124999185,
      "v": 110
    },
    {
      "midi": 54,
      "hit": false,
      "t": 165202.53749999808,
      "d": 198.47953124999185,
      "v": 110
    },
    {
      "midi": 61,
      "hit": false,
      "t": 165202.53749999902,
      "d": 198.47953124999185,
      "v": 110
    },
    {
      "midi": 44,
      "hit": false,
      "t": 165405.23999999807,
      "d": 540.5400000000081,
      "v": 110
    },
    {
      "midi": 56,
      "hit": false,
      "t": 165405.23999999807,
      "d": 540.5400000000081,
      "v": 110
    },
    {
      "midi": 58,
      "hit": false,
      "t": 165405.239999999,
      "d": 540.5400000000081,
      "v": 110
    },
    {
      "midi": 44,
      "hit": false,
      "t": 166013.34749999808,
      "d": 97.12828125001397,
      "v": 110
    },
    {
      "midi": 56,
      "hit": false,
      "t": 166013.34749999808,
      "d": 97.12828125001397,
      "v": 110
    },
    {
      "midi": 58,
      "hit": false,
      "t": 166013.347499999,
      "d": 97.12828125001397,
      "v": 110
    },
    {
      "midi": 44,
      "hit": false,
      "t": 166114.6987499981,
      "d": 97.12828125001397,
      "v": 110
    },
    {
      "midi": 56,
      "hit": false,
      "t": 166114.6987499981,
      "d": 97.12828125001397,
      "v": 110
    },
    {
      "midi": 58,
      "hit": false,
      "t": 166114.69874999902,
      "d": 97.12828125001397,
      "v": 110
    },
    {
      "midi": 44,
      "hit": false,
      "t": 166216.0499999981,
      "d": 540.5400000000081,
      "v": 110
    },
    {
      "midi": 56,
      "hit": false,
      "t": 166216.0499999981,
      "d": 540.5400000000081,
      "v": 110
    },
    {
      "midi": 58,
      "hit": false,
      "t": 166216.04999999903,
      "d": 540.5400000000081,
      "v": 110
    },
    {
      "midi": 44,
      "hit": false,
      "t": 166824.1574999981,
      "d": 97.12828125001397,
      "v": 110
    },
    {
      "midi": 56,
      "hit": false,
      "t": 166824.1574999981,
      "d": 97.12828125001397,
      "v": 110
    },
    {
      "midi": 58,
      "hit": false,
      "t": 166824.15749999904,
      "d": 97.12828125001397,
      "v": 110
    },
    {
      "midi": 44,
      "hit": false,
      "t": 166925.50874999812,
      "d": 97.12828125001397,
      "v": 110
    },
    {
      "midi": 56,
      "hit": false,
      "t": 166925.50874999812,
      "d": 97.12828125001397,
      "v": 110
    },
    {
      "midi": 58,
      "hit": false,
      "t": 166925.50874999905,
      "d": 97.12828125001397,
      "v": 110
    },
    {
      "midi": 44,
      "hit": false,
      "t": 167026.85999999812,
      "d": 337.8374999999942,
      "v": 110
    },
    {
      "midi": 56,
      "hit": false,
      "t": 167026.85999999812,
      "d": 337.8374999999942,
      "v": 110
    },
    {
      "midi": 58,
      "hit": false,
      "t": 167026.85999999905,
      "d": 337.8374999999942,
      "v": 110
    },
    {
      "midi": 44,
      "hit": false,
      "t": 167432.26499999812,
      "d": 337.8374999999942,
      "v": 110
    },
    {
      "midi": 56,
      "hit": false,
      "t": 167432.26499999812,
      "d": 337.8374999999942,
      "v": 110
    },
    {
      "midi": 58,
      "hit": false,
      "t": 167432.26499999905,
      "d": 337.8374999999942,
      "v": 110
    },
    {
      "midi": 44,
      "hit": false,
      "t": 167837.66999999812,
      "d": 299.83078124999884,
      "v": 110
    },
    {
      "midi": 56,
      "hit": false,
      "t": 167837.66999999812,
      "d": 299.83078124999884,
      "v": 110
    },
    {
      "midi": 58,
      "hit": false,
      "t": 167837.66999999905,
      "d": 299.83078124999884,
      "v": 110
    },
    {
      "midi": 44,
      "hit": false,
      "t": 168141.7237499981,
      "d": 299.83078124999884,
      "v": 110
    },
    {
      "midi": 56,
      "hit": false,
      "t": 168141.7237499981,
      "d": 299.83078124999884,
      "v": 110
    },
    {
      "midi": 58,
      "hit": false,
      "t": 168141.72374999904,
      "d": 299.83078124999884,
      "v": 110
    },
    {
      "midi": 42,
      "hit": false,
      "t": 168445.7774999981,
      "d": 198.47953124999185,
      "v": 110
    },
    {
      "midi": 54,
      "hit": false,
      "t": 168445.7774999981,
      "d": 198.47953124999185,
      "v": 110
    },
    {
      "midi": 61,
      "hit": false,
      "t": 168445.77749999904,
      "d": 198.47953124999185,
      "v": 110
    },
    {
      "midi": 40,
      "hit": false,
      "t": 168648.4799999981,
      "d": 540.5400000000081,
      "v": 110
    },
    {
      "midi": 52,
      "hit": false,
      "t": 168648.4799999981,
      "d": 540.5400000000081,
      "v": 110
    },
    {
      "midi": 63,
      "hit": false,
      "t": 168648.47999999902,
      "d": 540.5400000000081,
      "v": 110
    },
    {
      "midi": 40,
      "hit": false,
      "t": 169256.5874999981,
      "d": 97.12828125001397,
      "v": 110
    },
    {
      "midi": 52,
      "hit": false,
      "t": 169256.5874999981,
      "d": 97.12828125001397,
      "v": 110
    },
    {
      "midi": 63,
      "hit": false,
      "t": 169256.58749999903,
      "d": 97.12828125001397,
      "v": 110
    },
    {
      "midi": 40,
      "hit": false,
      "t": 169357.9387499981,
      "d": 97.12828125001397,
      "v": 110
    },
    {
      "midi": 52,
      "hit": false,
      "t": 169357.9387499981,
      "d": 97.12828125001397,
      "v": 110
    },
    {
      "midi": 63,
      "hit": false,
      "t": 169357.93874999904,
      "d": 97.12828125001397,
      "v": 110
    },
    {
      "midi": 40,
      "hit": false,
      "t": 169459.28999999812,
      "d": 540.5400000000081,
      "v": 110
    },
    {
      "midi": 52,
      "hit": false,
      "t": 169459.28999999812,
      "d": 540.5400000000081,
      "v": 110
    },
    {
      "midi": 63,
      "hit": false,
      "t": 169459.28999999905,
      "d": 540.5400000000081,
      "v": 110
    },
    {
      "midi": 40,
      "hit": false,
      "t": 170067.39749999813,
      "d": 97.12828125001397,
      "v": 110
    },
    {
      "midi": 52,
      "hit": false,
      "t": 170067.39749999813,
      "d": 97.12828125001397,
      "v": 110
    },
    {
      "midi": 63,
      "hit": false,
      "t": 170067.39749999906,
      "d": 97.12828125001397,
      "v": 110
    },
    {
      "midi": 40,
      "hit": false,
      "t": 170168.74874999814,
      "d": 97.12828125001397,
      "v": 110
    },
    {
      "midi": 52,
      "hit": false,
      "t": 170168.74874999814,
      "d": 97.12828125001397,
      "v": 110
    },
    {
      "midi": 63,
      "hit": false,
      "t": 170168.74874999907,
      "d": 97.12828125001397,
      "v": 110
    },
    {
      "midi": 40,
      "hit": false,
      "t": 170270.09999999814,
      "d": 337.8374999999942,
      "v": 110
    },
    {
      "midi": 52,
      "hit": false,
      "t": 170270.09999999814,
      "d": 337.8374999999942,
      "v": 110
    },
    {
      "midi": 63,
      "hit": false,
      "t": 170270.09999999907,
      "d": 337.8374999999942,
      "v": 110
    },
    {
      "midi": 40,
      "hit": false,
      "t": 170675.50499999814,
      "d": 337.8374999999942,
      "v": 110
    },
    {
      "midi": 52,
      "hit": false,
      "t": 170675.50499999814,
      "d": 337.8374999999942,
      "v": 110
    },
    {
      "midi": 63,
      "hit": false,
      "t": 170675.50499999907,
      "d": 337.8374999999942,
      "v": 110
    },
    {
      "midi": 40,
      "hit": false,
      "t": 171080.90999999814,
      "d": 299.83078124999884,
      "v": 110
    },
    {
      "midi": 52,
      "hit": false,
      "t": 171080.90999999814,
      "d": 299.83078124999884,
      "v": 110
    },
    {
      "midi": 63,
      "hit": false,
      "t": 171080.90999999907,
      "d": 299.83078124999884,
      "v": 110
    },
    {
      "midi": 40,
      "hit": false,
      "t": 171384.96374999813,
      "d": 299.83078124999884,
      "v": 110
    },
    {
      "midi": 52,
      "hit": false,
      "t": 171384.96374999813,
      "d": 299.83078124999884,
      "v": 110
    },
    {
      "midi": 63,
      "hit": false,
      "t": 171384.96374999906,
      "d": 299.83078124999884,
      "v": 110
    },
    {
      "midi": 42,
      "hit": false,
      "t": 171689.01749999812,
      "d": 198.47953124999185,
      "v": 110
    },
    {
      "midi": 54,
      "hit": false,
      "t": 171689.01749999812,
      "d": 198.47953124999185,
      "v": 110
    },
    {
      "midi": 61,
      "hit": false,
      "t": 171689.01749999906,
      "d": 198.47953124999185,
      "v": 110
    },
    {
      "midi": 44,
      "hit": false,
      "t": 171891.7199999981,
      "d": 540.5400000000081,
      "v": 110
    },
    {
      "midi": 56,
      "hit": false,
      "t": 171891.7199999981,
      "d": 540.5400000000081,
      "v": 110
    },
    {
      "midi": 58,
      "hit": false,
      "t": 171891.71999999904,
      "d": 540.5400000000081,
      "v": 110
    },
    {
      "midi": 44,
      "hit": false,
      "t": 172499.82749999812,
      "d": 97.12828125001397,
      "v": 110
    },
    {
      "midi": 56,
      "hit": false,
      "t": 172499.82749999812,
      "d": 97.12828125001397,
      "v": 110
    },
    {
      "midi": 58,
      "hit": false,
      "t": 172499.82749999905,
      "d": 97.12828125001397,
      "v": 110
    },
    {
      "midi": 44,
      "hit": false,
      "t": 172601.17874999813,
      "d": 97.12828125001397,
      "v": 110
    },
    {
      "midi": 56,
      "hit": false,
      "t": 172601.17874999813,
      "d": 97.12828125001397,
      "v": 110
    },
    {
      "midi": 58,
      "hit": false,
      "t": 172601.17874999906,
      "d": 97.12828125001397,
      "v": 110
    },
    {
      "midi": 44,
      "hit": false,
      "t": 172702.52999999814,
      "d": 540.5400000000081,
      "v": 110
    },
    {
      "midi": 56,
      "hit": false,
      "t": 172702.52999999814,
      "d": 540.5400000000081,
      "v": 110
    },
    {
      "midi": 58,
      "hit": false,
      "t": 172702.52999999907,
      "d": 540.5400000000081,
      "v": 110
    },
    {
      "midi": 44,
      "hit": false,
      "t": 173310.63749999815,
      "d": 97.12828125001397,
      "v": 110
    },
    {
      "midi": 56,
      "hit": false,
      "t": 173310.63749999815,
      "d": 97.12828125001397,
      "v": 110
    },
    {
      "midi": 58,
      "hit": false,
      "t": 173310.63749999908,
      "d": 97.12828125001397,
      "v": 110
    },
    {
      "midi": 44,
      "hit": false,
      "t": 173411.98874999816,
      "d": 97.12828125001397,
      "v": 110
    },
    {
      "midi": 56,
      "hit": false,
      "t": 173411.98874999816,
      "d": 97.12828125001397,
      "v": 110
    },
    {
      "midi": 58,
      "hit": false,
      "t": 173411.9887499991,
      "d": 97.12828125001397,
      "v": 110
    },
    {
      "midi": 44,
      "hit": false,
      "t": 173513.33999999816,
      "d": 337.8374999999942,
      "v": 110
    },
    {
      "midi": 56,
      "hit": false,
      "t": 173513.33999999816,
      "d": 337.8374999999942,
      "v": 110
    },
    {
      "midi": 58,
      "hit": false,
      "t": 173513.3399999991,
      "d": 337.8374999999942,
      "v": 110
    },
    {
      "midi": 44,
      "hit": false,
      "t": 173918.74499999816,
      "d": 337.8374999999942,
      "v": 110
    },
    {
      "midi": 56,
      "hit": false,
      "t": 173918.74499999816,
      "d": 337.8374999999942,
      "v": 110
    },
    {
      "midi": 58,
      "hit": false,
      "t": 173918.7449999991,
      "d": 337.8374999999942,
      "v": 110
    },
    {
      "midi": 44,
      "hit": false,
      "t": 174324.14999999816,
      "d": 299.83078124999884,
      "v": 110
    },
    {
      "midi": 56,
      "hit": false,
      "t": 174324.14999999816,
      "d": 299.83078124999884,
      "v": 110
    },
    {
      "midi": 58,
      "hit": false,
      "t": 174324.1499999991,
      "d": 299.83078124999884,
      "v": 110
    },
    {
      "midi": 44,
      "hit": false,
      "t": 174628.20374999815,
      "d": 299.83078124999884,
      "v": 110
    },
    {
      "midi": 56,
      "hit": false,
      "t": 174628.20374999815,
      "d": 299.83078124999884,
      "v": 110
    },
    {
      "midi": 59,
      "hit": false,
      "t": 174628.20374999908,
      "d": 299.83078124999884,
      "v": 110
    },
    {
      "midi": 44,
      "hit": false,
      "t": 174932.25749999814,
      "d": 198.47953124999185,
      "v": 110
    },
    {
      "midi": 56,
      "hit": false,
      "t": 174932.25749999814,
      "d": 198.47953124999185,
      "v": 110
    },
    {
      "midi": 56,
      "hit": false,
      "t": 174932.25749999908,
      "d": 198.47953124999185,
      "v": 110
    },
    {
      "midi": 45,
      "hit": false,
      "t": 175134.95999999813,
      "d": 540.5400000000081,
      "v": 110
    },
    {
      "midi": 57,
      "hit": false,
      "t": 175134.95999999813,
      "d": 540.5400000000081,
      "v": 110
    },
    {
      "midi": 56,
      "hit": false,
      "t": 175134.95999999906,
      "d": 540.5400000000081,
      "v": 110
    },
    {
      "midi": 45,
      "hit": false,
      "t": 175743.06749999814,
      "d": 97.12828125001397,
      "v": 110
    },
    {
      "midi": 57,
      "hit": false,
      "t": 175743.06749999814,
      "d": 97.12828125001397,
      "v": 110
    },
    {
      "midi": 56,
      "hit": false,
      "t": 175743.06749999907,
      "d": 97.12828125001397,
      "v": 110
    },
    {
      "midi": 45,
      "hit": false,
      "t": 175844.41874999815,
      "d": 97.12828125001397,
      "v": 110
    },
    {
      "midi": 57,
      "hit": false,
      "t": 175844.41874999815,
      "d": 97.12828125001397,
      "v": 110
    },
    {
      "midi": 56,
      "hit": false,
      "t": 175844.41874999908,
      "d": 97.12828125001397,
      "v": 110
    },
    {
      "midi": 45,
      "hit": false,
      "t": 175945.76999999816,
      "d": 540.5400000000081,
      "v": 110
    },
    {
      "midi": 57,
      "hit": false,
      "t": 175945.76999999816,
      "d": 540.5400000000081,
      "v": 110
    },
    {
      "midi": 56,
      "hit": false,
      "t": 175945.7699999991,
      "d": 540.5400000000081,
      "v": 110
    },
    {
      "midi": 45,
      "hit": false,
      "t": 176553.87749999817,
      "d": 97.12828125001397,
      "v": 110
    },
    {
      "midi": 57,
      "hit": false,
      "t": 176553.87749999817,
      "d": 97.12828125001397,
      "v": 110
    },
    {
      "midi": 56,
      "hit": false,
      "t": 176553.8774999991,
      "d": 97.12828125001397,
      "v": 110
    },
    {
      "midi": 45,
      "hit": false,
      "t": 176655.22874999818,
      "d": 97.12828125001397,
      "v": 110
    },
    {
      "midi": 57,
      "hit": false,
      "t": 176655.22874999818,
      "d": 97.12828125001397,
      "v": 110
    },
    {
      "midi": 56,
      "hit": false,
      "t": 176655.2287499991,
      "d": 97.12828125001397,
      "v": 110
    },
    {
      "midi": 45,
      "hit": false,
      "t": 176756.57999999818,
      "d": 337.8374999999942,
      "v": 110
    },
    {
      "midi": 57,
      "hit": false,
      "t": 176756.57999999818,
      "d": 337.8374999999942,
      "v": 110
    },
    {
      "midi": 56,
      "hit": false,
      "t": 176756.5799999991,
      "d": 337.8374999999942,
      "v": 110
    },
    {
      "midi": 45,
      "hit": false,
      "t": 177161.98499999818,
      "d": 337.8374999999942,
      "v": 110
    },
    {
      "midi": 57,
      "hit": false,
      "t": 177161.98499999818,
      "d": 337.8374999999942,
      "v": 110
    },
    {
      "midi": 56,
      "hit": false,
      "t": 177161.9849999991,
      "d": 337.8374999999942,
      "v": 110
    },
    {
      "midi": 45,
      "hit": false,
      "t": 177567.38999999818,
      "d": 299.83078124999884,
      "v": 110
    },
    {
      "midi": 57,
      "hit": false,
      "t": 177567.38999999818,
      "d": 299.83078124999884,
      "v": 110
    },
    {
      "midi": 56,
      "hit": false,
      "t": 177567.3899999991,
      "d": 299.83078124999884,
      "v": 110
    },
    {
      "midi": 45,
      "hit": false,
      "t": 177871.44374999817,
      "d": 299.83078124999884,
      "v": 110
    },
    {
      "midi": 57,
      "hit": false,
      "t": 177871.44374999817,
      "d": 299.83078124999884,
      "v": 110
    },
    {
      "midi": 56,
      "hit": false,
      "t": 177871.4437499991,
      "d": 299.83078124999884,
      "v": 110
    },
    {
      "midi": 47,
      "hit": false,
      "t": 178175.49749999816,
      "d": 198.47953124999185,
      "v": 110
    },
    {
      "midi": 59,
      "hit": false,
      "t": 178175.49749999816,
      "d": 198.47953124999185,
      "v": 110
    },
    {
      "midi": 57,
      "hit": false,
      "t": 178175.4974999991,
      "d": 198.47953124999185,
      "v": 110
    },
    {
      "midi": 44,
      "hit": false,
      "t": 178378.19999999815,
      "d": 540.5400000000081,
      "v": 110
    },
    {
      "midi": 56,
      "hit": false,
      "t": 178378.19999999815,
      "d": 540.5400000000081,
      "v": 110
    },
    {
      "midi": 56,
      "hit": false,
      "t": 178378.19999999908,
      "d": 540.5400000000081,
      "v": 110
    },
    {
      "midi": 44,
      "hit": false,
      "t": 178986.30749999816,
      "d": 97.12828125001397,
      "v": 110
    },
    {
      "midi": 56,
      "hit": false,
      "t": 178986.30749999816,
      "d": 97.12828125001397,
      "v": 110
    },
    {
      "midi": 56,
      "hit": false,
      "t": 178986.3074999991,
      "d": 97.12828125001397,
      "v": 110
    },
    {
      "midi": 44,
      "hit": false,
      "t": 179087.65874999817,
      "d": 97.12828125001397,
      "v": 110
    },
    {
      "midi": 56,
      "hit": false,
      "t": 179087.65874999817,
      "d": 97.12828125001397,
      "v": 110
    },
    {
      "midi": 56,
      "hit": false,
      "t": 179087.6587499991,
      "d": 97.12828125001397,
      "v": 110
    },
    {
      "midi": 44,
      "hit": false,
      "t": 179189.00999999818,
      "d": 540.5400000000081,
      "v": 110
    },
    {
      "midi": 56,
      "hit": false,
      "t": 179189.00999999818,
      "d": 540.5400000000081,
      "v": 110
    },
    {
      "midi": 56,
      "hit": false,
      "t": 179189.0099999991,
      "d": 540.5400000000081,
      "v": 110
    },
    {
      "midi": 44,
      "hit": false,
      "t": 179797.1174999982,
      "d": 97.12828125001397,
      "v": 110
    },
    {
      "midi": 56,
      "hit": false,
      "t": 179797.1174999982,
      "d": 97.12828125001397,
      "v": 110
    },
    {
      "midi": 56,
      "hit": false,
      "t": 179797.11749999912,
      "d": 97.12828125001397,
      "v": 110
    },
    {
      "midi": 44,
      "hit": false,
      "t": 179898.4687499982,
      "d": 97.12828125001397,
      "v": 110
    },
    {
      "midi": 56,
      "hit": false,
      "t": 179898.4687499982,
      "d": 97.12828125001397,
      "v": 110
    },
    {
      "midi": 56,
      "hit": false,
      "t": 179898.46874999913,
      "d": 97.12828125001397,
      "v": 110
    },
    {
      "midi": 44,
      "hit": false,
      "t": 179999.8199999982,
      "d": 337.8374999999942,
      "v": 110
    },
    {
      "midi": 56,
      "hit": false,
      "t": 179999.8199999982,
      "d": 337.8374999999942,
      "v": 110
    },
    {
      "midi": 56,
      "hit": false,
      "t": 179999.81999999913,
      "d": 337.8374999999942,
      "v": 110
    },
    {
      "midi": 44,
      "hit": false,
      "t": 180405.2249999982,
      "d": 337.8374999999942,
      "v": 110
    },
    {
      "midi": 56,
      "hit": false,
      "t": 180405.2249999982,
      "d": 337.8374999999942,
      "v": 110
    },
    {
      "midi": 56,
      "hit": false,
      "t": 180405.22499999913,
      "d": 337.8374999999942,
      "v": 110
    },
    {
      "midi": 44,
      "hit": false,
      "t": 180810.6299999982,
      "d": 299.83078124999884,
      "v": 110
    },
    {
      "midi": 56,
      "hit": false,
      "t": 180810.6299999982,
      "d": 299.83078124999884,
      "v": 110
    },
    {
      "midi": 56,
      "hit": false,
      "t": 180810.62999999913,
      "d": 299.83078124999884,
      "v": 110
    },
    {
      "midi": 44,
      "hit": false,
      "t": 181114.6837499982,
      "d": 299.83078124999884,
      "v": 110
    },
    {
      "midi": 56,
      "hit": false,
      "t": 181114.6837499982,
      "d": 299.83078124999884,
      "v": 110
    },
    {
      "midi": 56,
      "hit": false,
      "t": 181114.68374999912,
      "d": 299.83078124999884,
      "v": 110
    },
    {
      "midi": 44,
      "hit": false,
      "t": 181418.73749999818,
      "d": 198.47953124999185,
      "v": 110
    },
    {
      "midi": 56,
      "hit": false,
      "t": 181418.73749999818,
      "d": 198.47953124999185,
      "v": 110
    },
    {
      "midi": 58,
      "hit": false,
      "t": 181418.73749999912,
      "d": 198.47953124999185,
      "v": 110
    },
    {
      "midi": 44,
      "hit": false,
      "t": 181621.43999999817,
      "d": 540.5400000000081,
      "v": 110
    },
    {
      "midi": 56,
      "hit": false,
      "t": 181621.43999999817,
      "d": 540.5400000000081,
      "v": 110
    },
    {
      "midi": 59,
      "hit": false,
      "t": 181621.4399999991,
      "d": 540.5400000000081,
      "v": 110
    },
    {
      "midi": 44,
      "hit": false,
      "t": 182229.54749999818,
      "d": 97.12828125001397,
      "v": 110
    },
    {
      "midi": 56,
      "hit": false,
      "t": 182229.54749999818,
      "d": 97.12828125001397,
      "v": 110
    },
    {
      "midi": 59,
      "hit": false,
      "t": 182229.5474999991,
      "d": 97.12828125001397,
      "v": 110
    },
    {
      "midi": 44,
      "hit": false,
      "t": 182330.8987499982,
      "d": 97.12828125001397,
      "v": 110
    },
    {
      "midi": 56,
      "hit": false,
      "t": 182330.8987499982,
      "d": 97.12828125001397,
      "v": 110
    },
    {
      "midi": 59,
      "hit": false,
      "t": 182330.89874999912,
      "d": 97.12828125001397,
      "v": 110
    },
    {
      "midi": 44,
      "hit": false,
      "t": 182432.2499999982,
      "d": 540.5400000000081,
      "v": 110
    },
    {
      "midi": 56,
      "hit": false,
      "t": 182432.2499999982,
      "d": 540.5400000000081,
      "v": 110
    },
    {
      "midi": 59,
      "hit": false,
      "t": 182432.24999999913,
      "d": 540.5400000000081,
      "v": 110
    },
    {
      "midi": 44,
      "hit": false,
      "t": 183040.3574999982,
      "d": 97.12828125001397,
      "v": 110
    },
    {
      "midi": 56,
      "hit": false,
      "t": 183040.3574999982,
      "d": 97.12828125001397,
      "v": 110
    },
    {
      "midi": 59,
      "hit": false,
      "t": 183040.35749999914,
      "d": 97.12828125001397,
      "v": 110
    },
    {
      "midi": 44,
      "hit": false,
      "t": 183141.70874999822,
      "d": 97.12828125001397,
      "v": 110
    },
    {
      "midi": 56,
      "hit": false,
      "t": 183141.70874999822,
      "d": 97.12828125001397,
      "v": 110
    },
    {
      "midi": 59,
      "hit": false,
      "t": 183141.70874999915,
      "d": 97.12828125001397,
      "v": 110
    },
    {
      "midi": 44,
      "hit": false,
      "t": 183243.05999999822,
      "d": 337.8374999999942,
      "v": 110
    },
    {
      "midi": 56,
      "hit": false,
      "t": 183243.05999999822,
      "d": 337.8374999999942,
      "v": 110
    },
    {
      "midi": 59,
      "hit": false,
      "t": 183243.05999999915,
      "d": 337.8374999999942,
      "v": 110
    },
    {
      "midi": 44,
      "hit": false,
      "t": 183648.46499999822,
      "d": 337.8374999999942,
      "v": 110
    },
    {
      "midi": 56,
      "hit": false,
      "t": 183648.46499999822,
      "d": 337.8374999999942,
      "v": 110
    },
    {
      "midi": 59,
      "hit": false,
      "t": 183648.46499999915,
      "d": 337.8374999999942,
      "v": 110
    },
    {
      "midi": 44,
      "hit": false,
      "t": 184053.86999999822,
      "d": 299.83078124999884,
      "v": 110
    },
    {
      "midi": 56,
      "hit": false,
      "t": 184053.86999999822,
      "d": 299.83078124999884,
      "v": 110
    },
    {
      "midi": 59,
      "hit": false,
      "t": 184053.86999999915,
      "d": 299.83078124999884,
      "v": 110
    },
    {
      "midi": 44,
      "hit": false,
      "t": 184357.9237499982,
      "d": 299.83078124999884,
      "v": 110
    },
    {
      "midi": 56,
      "hit": false,
      "t": 184357.9237499982,
      "d": 299.83078124999884,
      "v": 110
    },
    {
      "midi": 59,
      "hit": false,
      "t": 184357.92374999914,
      "d": 299.83078124999884,
      "v": 110
    },
    {
      "midi": 44,
      "hit": false,
      "t": 184661.9774999982,
      "d": 198.47953124999185,
      "v": 110
    },
    {
      "midi": 56,
      "hit": false,
      "t": 184661.9774999982,
      "d": 198.47953124999185,
      "v": 110
    },
    {
      "midi": 59,
      "hit": false,
      "t": 184661.97749999914,
      "d": 198.47953124999185,
      "v": 110
    },
    {
      "midi": 44,
      "hit": false,
      "t": 184864.6799999982,
      "d": 540.5400000000081,
      "v": 110
    },
    {
      "midi": 56,
      "hit": false,
      "t": 184864.6799999982,
      "d": 540.5400000000081,
      "v": 110
    },
    {
      "midi": 61,
      "hit": false,
      "t": 184864.67999999912,
      "d": 540.5400000000081,
      "v": 110
    },
    {
      "midi": 44,
      "hit": false,
      "t": 185472.7874999982,
      "d": 97.12828125001397,
      "v": 110
    },
    {
      "midi": 56,
      "hit": false,
      "t": 185472.7874999982,
      "d": 97.12828125001397,
      "v": 110
    },
    {
      "midi": 61,
      "hit": false,
      "t": 185472.78749999913,
      "d": 97.12828125001397,
      "v": 110
    },
    {
      "midi": 44,
      "hit": false,
      "t": 185574.1387499982,
      "d": 97.12828125001397,
      "v": 110
    },
    {
      "midi": 56,
      "hit": false,
      "t": 185574.1387499982,
      "d": 97.12828125001397,
      "v": 110
    },
    {
      "midi": 61,
      "hit": false,
      "t": 185574.13874999914,
      "d": 97.12828125001397,
      "v": 110
    },
    {
      "midi": 44,
      "hit": false,
      "t": 185675.48999999822,
      "d": 540.5400000000081,
      "v": 110
    },
    {
      "midi": 56,
      "hit": false,
      "t": 185675.48999999822,
      "d": 540.5400000000081,
      "v": 110
    },
    {
      "midi": 61,
      "hit": false,
      "t": 185675.48999999915,
      "d": 540.5400000000081,
      "v": 110
    },
    {
      "midi": 44,
      "hit": false,
      "t": 186283.59749999823,
      "d": 97.12828125001397,
      "v": 110
    },
    {
      "midi": 56,
      "hit": false,
      "t": 186283.59749999823,
      "d": 97.12828125001397,
      "v": 110
    },
    {
      "midi": 61,
      "hit": false,
      "t": 186283.59749999916,
      "d": 97.12828125001397,
      "v": 110
    },
    {
      "midi": 44,
      "hit": false,
      "t": 186384.94874999824,
      "d": 97.12828125001397,
      "v": 110
    },
    {
      "midi": 56,
      "hit": false,
      "t": 186384.94874999824,
      "d": 97.12828125001397,
      "v": 110
    },
    {
      "midi": 61,
      "hit": false,
      "t": 186384.94874999917,
      "d": 97.12828125001397,
      "v": 110
    },
    {
      "midi": 44,
      "hit": false,
      "t": 186486.29999999824,
      "d": 337.8374999999942,
      "v": 110
    },
    {
      "midi": 56,
      "hit": false,
      "t": 186486.29999999824,
      "d": 337.8374999999942,
      "v": 110
    },
    {
      "midi": 60,
      "hit": false,
      "t": 186486.29999999917,
      "d": 337.8374999999942,
      "v": 110
    },
    {
      "midi": 44,
      "hit": false,
      "t": 186891.70499999824,
      "d": 337.8374999999942,
      "v": 110
    },
    {
      "midi": 56,
      "hit": false,
      "t": 186891.70499999824,
      "d": 337.8374999999942,
      "v": 110
    },
    {
      "midi": 60,
      "hit": false,
      "t": 186891.70499999917,
      "d": 337.8374999999942,
      "v": 110
    },
    {
      "midi": 44,
      "hit": false,
      "t": 187297.10999999824,
      "d": 299.83078124999884,
      "v": 110
    },
    {
      "midi": 56,
      "hit": false,
      "t": 187297.10999999824,
      "d": 299.83078124999884,
      "v": 110
    },
    {
      "midi": 60,
      "hit": false,
      "t": 187297.10999999917,
      "d": 299.83078124999884,
      "v": 110
    },
    {
      "midi": 44,
      "hit": false,
      "t": 187601.16374999823,
      "d": 299.83078124999884,
      "v": 110
    },
    {
      "midi": 56,
      "hit": false,
      "t": 187601.16374999823,
      "d": 299.83078124999884,
      "v": 110
    },
    {
      "midi": 60,
      "hit": false,
      "t": 187601.16374999916,
      "d": 299.83078124999884,
      "v": 110
    },
    {
      "midi": 44,
      "hit": false,
      "t": 187905.21749999822,
      "d": 198.47953124999185,
      "v": 110
    },
    {
      "midi": 56,
      "hit": false,
      "t": 187905.21749999822,
      "d": 198.47953124999185,
      "v": 110
    },
    {
      "midi": 60,
      "hit": false,
      "t": 187905.21749999915,
      "d": 198.47953124999185,
      "v": 110
    },
    {
      "midi": 51,
      "hit": false,
      "t": 188107.9199999982,
      "d": 198.47953124999185,
      "v": 110
    },
    {
      "midi": 59,
      "hit": false,
      "t": 188107.91999999914,
      "d": 1414.6945312499884,
      "v": 110
    },
    {
      "midi": 49,
      "hit": false,
      "t": 188310.6224999982,
      "d": 97.12828125001397,
      "v": 110
    },
    {
      "midi": 51,
      "hit": false,
      "t": 188411.9737499982,
      "d": 198.47953124999185,
      "v": 110
    },
    {
      "midi": 51,
      "hit": false,
      "t": 188614.67624999819,
      "d": 97.12828125001397,
      "v": 110
    },
    {
      "midi": 49,
      "hit": false,
      "t": 188716.0274999982,
      "d": 198.47953124999185,
      "v": 110
    },
    {
      "midi": 51,
      "hit": false,
      "t": 188918.72999999818,
      "d": 198.47953124999185,
      "v": 110
    },
    {
      "midi": 49,
      "hit": false,
      "t": 189121.43249999816,
      "d": 198.47953124999185,
      "v": 110
    },
    {
      "midi": 51,
      "hit": false,
      "t": 189324.13499999815,
      "d": 198.47953124999185,
      "v": 110
    },
    {
      "midi": 49,
      "hit": false,
      "t": 189526.83749999813,
      "d": 198.47953124999185,
      "v": 110
    },
    {
      "midi": 59,
      "hit": false,
      "t": 189526.83749999912,
      "d": 97.12828125001397,
      "v": 110
    },
    {
      "midi": 59,
      "hit": false,
      "t": 189628.18874999913,
      "d": 97.12828125001397,
      "v": 110
    },
    {
      "midi": 51,
      "hit": false,
      "t": 189729.53999999812,
      "d": 198.47953124999185,
      "v": 110
    },
    {
      "midi": 63,
      "hit": false,
      "t": 189729.53999999914,
      "d": 709.4587499999907,
      "v": 110
    },
    {
      "midi": 49,
      "hit": false,
      "t": 189932.2424999981,
      "d": 97.12828125001397,
      "v": 110
    },
    {
      "midi": 51,
      "hit": false,
      "t": 190033.5937499981,
      "d": 198.47953124999185,
      "v": 110
    },
    {
      "midi": 51,
      "hit": false,
      "t": 190236.2962499981,
      "d": 97.12828125001397,
      "v": 110
    },
    {
      "midi": 49,
      "hit": false,
      "t": 190337.6474999981,
      "d": 198.47953124999185,
      "v": 110
    },
    {
      "midi": 51,
      "hit": false,
      "t": 190540.34999999808,
      "d": 198.47953124999185,
      "v": 110
    },
    {
      "midi": 59,
      "hit": false,
      "t": 190540.34999999913,
      "d": 337.8374999999942,
      "v": 110
    },
    {
      "midi": 49,
      "hit": false,
      "t": 190743.05249999807,
      "d": 198.47953124999185,
      "v": 110
    },
    {
      "midi": 51,
      "hit": false,
      "t": 190945.75499999805,
      "d": 97.12828125001397,
      "v": 110
    },
    {
      "midi": 63,
      "hit": false,
      "t": 190945.75499999913,
      "d": 337.8374999999942,
      "v": 110
    },
    {
      "midi": 52,
      "hit": false,
      "t": 191047.10624999806,
      "d": 97.12828125001397,
      "v": 110
    },
    {
      "midi": 54,
      "hit": false,
      "t": 191148.45749999807,
      "d": 97.12828125001397,
      "v": 110
    },
    {
      "midi": 51,
      "hit": false,
      "t": 191249.80874999808,
      "d": 97.12828125001397,
      "v": 110
    },
    {
      "midi": 52,
      "hit": false,
      "t": 191351.15999999808,
      "d": 198.47953124999185,
      "v": 110
    },
    {
      "midi": 61,
      "hit": false,
      "t": 191351.15999999913,
      "d": 97.12828125001397,
      "v": 110
    },
    {
      "midi": 59,
      "hit": false,
      "t": 191452.51124999914,
      "d": 97.12828125001397,
      "v": 110
    },
    {
      "midi": 51,
      "hit": false,
      "t": 191553.86249999807,
      "d": 97.12828125001397,
      "v": 110
    },
    {
      "midi": 57,
      "hit": false,
      "t": 191553.86249999914,
      "d": 1211.9920312500035,
      "v": 110
    },
    {
      "midi": 52,
      "hit": false,
      "t": 191655.21374999807,
      "d": 198.47953124999185,
      "v": 110
    },
    {
      "midi": 52,
      "hit": false,
      "t": 191857.91624999806,
      "d": 97.12828125001397,
      "v": 110
    },
    {
      "midi": 51,
      "hit": false,
      "t": 191959.26749999807,
      "d": 198.47953124999185,
      "v": 110
    },
    {
      "midi": 52,
      "hit": false,
      "t": 192161.96999999805,
      "d": 198.47953124999185,
      "v": 110
    },
    {
      "midi": 51,
      "hit": false,
      "t": 192364.67249999804,
      "d": 198.47953124999185,
      "v": 110
    },
    {
      "midi": 52,
      "hit": false,
      "t": 192567.37499999802,
      "d": 198.47953124999185,
      "v": 110
    },
    {
      "midi": 51,
      "hit": false,
      "t": 192770.077499998,
      "d": 198.47953124999185,
      "v": 110
    },
    {
      "midi": 57,
      "hit": false,
      "t": 192770.07749999914,
      "d": 97.12828125001397,
      "v": 110
    },
    {
      "midi": 57,
      "hit": false,
      "t": 192871.42874999915,
      "d": 97.12828125001397,
      "v": 110
    },
    {
      "midi": 52,
      "hit": false,
      "t": 192972.779999998,
      "d": 198.47953124999185,
      "v": 110
    },
    {
      "midi": 61,
      "hit": false,
      "t": 192972.77999999915,
      "d": 709.4587499999907,
      "v": 110
    },
    {
      "midi": 51,
      "hit": false,
      "t": 193175.48249999798,
      "d": 97.12828125001397,
      "v": 110
    },
    {
      "midi": 52,
      "hit": false,
      "t": 193276.83374999798,
      "d": 198.47953124999185,
      "v": 110
    },
    {
      "midi": 52,
      "hit": false,
      "t": 193479.53624999797,
      "d": 97.12828125001397,
      "v": 110
    },
    {
      "midi": 51,
      "hit": false,
      "t": 193580.88749999797,
      "d": 198.47953124999185,
      "v": 110
    },
    {
      "midi": 52,
      "hit": false,
      "t": 193783.58999999796,
      "d": 198.47953124999185,
      "v": 110
    },
    {
      "midi": 57,
      "hit": false,
      "t": 193783.58999999915,
      "d": 337.8374999999942,
      "v": 110
    },
    {
      "midi": 51,
      "hit": false,
      "t": 193986.29249999794,
      "d": 198.47953124999185,
      "v": 110
    },
    {
      "midi": 52,
      "hit": false,
      "t": 194188.99499999793,
      "d": 97.12828125001397,
      "v": 110
    },
    {
      "midi": 61,
      "hit": false,
      "t": 194188.99499999915,
      "d": 337.8374999999942,
      "v": 110
    },
    {
      "midi": 49,
      "hit": false,
      "t": 194290.34624999794,
      "d": 97.12828125001397,
      "v": 110
    },
    {
      "midi": 45,
      "hit": false,
      "t": 194391.69749999794,
      "d": 97.12828125001397,
      "v": 110
    },
    {
      "midi": 52,
      "hit": false,
      "t": 194493.04874999795,
      "d": 97.12828125001397,
      "v": 110
    },
    {
      "midi": 51,
      "hit": false,
      "t": 194594.39999999796,
      "d": 198.47953124999185,
      "v": 110
    },
    {
      "midi": 59,
      "hit": false,
      "t": 194594.39999999915,
      "d": 1414.6945312499884,
      "v": 110
    },
    {
      "midi": 49,
      "hit": false,
      "t": 194797.10249999794,
      "d": 97.12828125001397,
      "v": 110
    },
    {
      "midi": 51,
      "hit": false,
      "t": 194898.45374999795,
      "d": 198.47953124999185,
      "v": 110
    },
    {
      "midi": 51,
      "hit": false,
      "t": 195101.15624999793,
      "d": 97.12828125001397,
      "v": 110
    },
    {
      "midi": 49,
      "hit": false,
      "t": 195202.50749999794,
      "d": 198.47953124999185,
      "v": 110
    },
    {
      "midi": 51,
      "hit": false,
      "t": 195405.20999999793,
      "d": 198.47953124999185,
      "v": 110
    },
    {
      "midi": 49,
      "hit": false,
      "t": 195607.9124999979,
      "d": 198.47953124999185,
      "v": 110
    },
    {
      "midi": 51,
      "hit": false,
      "t": 195810.6149999979,
      "d": 198.47953124999185,
      "v": 110
    },
    {
      "midi": 49,
      "hit": false,
      "t": 196013.31749999788,
      "d": 198.47953124999185,
      "v": 110
    },
    {
      "midi": 59,
      "hit": false,
      "t": 196013.31749999913,
      "d": 97.12828125001397,
      "v": 110
    },
    {
      "midi": 59,
      "hit": false,
      "t": 196114.66874999914,
      "d": 97.12828125001397,
      "v": 110
    },
    {
      "midi": 51,
      "hit": false,
      "t": 196216.01999999786,
      "d": 198.47953124999185,
      "v": 110
    },
    {
      "midi": 63,
      "hit": false,
      "t": 196216.01999999915,
      "d": 709.4587499999907,
      "v": 110
    },
    {
      "midi": 49,
      "hit": false,
      "t": 196418.72249999785,
      "d": 97.12828125001397,
      "v": 110
    },
    {
      "midi": 51,
      "hit": false,
      "t": 196520.07374999786,
      "d": 198.47953124999185,
      "v": 110
    },
    {
      "midi": 51,
      "hit": false,
      "t": 196722.77624999784,
      "d": 97.12828125001397,
      "v": 110
    },
    {
      "midi": 49,
      "hit": false,
      "t": 196824.12749999785,
      "d": 198.47953124999185,
      "v": 110
    },
    {
      "midi": 51,
      "hit": false,
      "t": 197026.82999999783,
      "d": 198.47953124999185,
      "v": 110
    },
    {
      "midi": 59,
      "hit": false,
      "t": 197026.82999999914,
      "d": 337.8374999999942,
      "v": 110
    },
    {
      "midi": 49,
      "hit": false,
      "t": 197229.53249999782,
      "d": 198.47953124999185,
      "v": 110
    },
    {
      "midi": 51,
      "hit": false,
      "t": 197432.2349999978,
      "d": 97.12828125001397,
      "v": 110
    },
    {
      "midi": 63,
      "hit": false,
      "t": 197432.23499999914,
      "d": 337.8374999999942,
      "v": 110
    },
    {
      "midi": 52,
      "hit": false,
      "t": 197533.5862499978,
      "d": 97.12828125001397,
      "v": 110
    },
    {
      "midi": 54,
      "hit": false,
      "t": 197634.93749999782,
      "d": 97.12828125001397,
      "v": 110
    },
    {
      "midi": 51,
      "hit": false,
      "t": 197736.28874999782,
      "d": 97.12828125001397,
      "v": 110
    },
    {
      "midi": 52,
      "hit": false,
      "t": 197837.63999999783,
      "d": 198.47953124999185,
      "v": 110
    },
    {
      "midi": 61,
      "hit": false,
      "t": 197837.63999999914,
      "d": 97.12828125001397,
      "v": 110
    },
    {
      "midi": 59,
      "hit": false,
      "t": 197938.99124999915,
      "d": 97.12828125001397,
      "v": 110
    },
    {
      "midi": 51,
      "hit": false,
      "t": 198040.34249999782,
      "d": 97.12828125001397,
      "v": 110
    },
    {
      "midi": 57,
      "hit": false,
      "t": 198040.34249999915,
      "d": 1211.9920312500035,
      "v": 110
    },
    {
      "midi": 52,
      "hit": false,
      "t": 198141.69374999782,
      "d": 198.47953124999185,
      "v": 110
    },
    {
      "midi": 52,
      "hit": false,
      "t": 198344.3962499978,
      "d": 97.12828125001397,
      "v": 110
    },
    {
      "midi": 51,
      "hit": false,
      "t": 198445.74749999781,
      "d": 198.47953124999185,
      "v": 110
    },
    {
      "midi": 52,
      "hit": false,
      "t": 198648.4499999978,
      "d": 198.47953124999185,
      "v": 110
    },
    {
      "midi": 51,
      "hit": false,
      "t": 198851.15249999778,
      "d": 198.47953124999185,
      "v": 110
    },
    {
      "midi": 52,
      "hit": false,
      "t": 199053.85499999777,
      "d": 198.47953124999185,
      "v": 110
    },
    {
      "midi": 51,
      "hit": false,
      "t": 199256.55749999775,
      "d": 198.47953124999185,
      "v": 110
    },
    {
      "midi": 57,
      "hit": false,
      "t": 199256.55749999915,
      "d": 97.12828125001397,
      "v": 110
    },
    {
      "midi": 57,
      "hit": false,
      "t": 199357.90874999916,
      "d": 97.12828125001397,
      "v": 110
    },
    {
      "midi": 52,
      "hit": false,
      "t": 199459.25999999774,
      "d": 198.47953124999185,
      "v": 110
    },
    {
      "midi": 61,
      "hit": false,
      "t": 199459.25999999917,
      "d": 709.4587499999907,
      "v": 110
    },
    {
      "midi": 51,
      "hit": false,
      "t": 199661.96249999772,
      "d": 97.12828125001397,
      "v": 110
    },
    {
      "midi": 52,
      "hit": false,
      "t": 199763.31374999773,
      "d": 198.47953124999185,
      "v": 110
    },
    {
      "midi": 52,
      "hit": false,
      "t": 199966.01624999772,
      "d": 97.12828125001397,
      "v": 110
    },
    {
      "midi": 51,
      "hit": false,
      "t": 200067.36749999772,
      "d": 198.47953124999185,
      "v": 110
    },
    {
      "midi": 52,
      "hit": false,
      "t": 200270.0699999977,
      "d": 198.47953124999185,
      "v": 110
    },
    {
      "midi": 57,
      "hit": false,
      "t": 200270.06999999916,
      "d": 337.8374999999942,
      "v": 110
    },
    {
      "midi": 51,
      "hit": false,
      "t": 200472.7724999977,
      "d": 198.47953124999185,
      "v": 110
    },
    {
      "midi": 52,
      "hit": false,
      "t": 200675.47499999768,
      "d": 97.12828125001397,
      "v": 110
    },
    {
      "midi": 61,
      "hit": false,
      "t": 200675.47499999916,
      "d": 337.8374999999942,
      "v": 110
    },
    {
      "midi": 49,
      "hit": false,
      "t": 200776.82624999768,
      "d": 97.12828125001397,
      "v": 110
    },
    {
      "midi": 45,
      "hit": false,
      "t": 200878.1774999977,
      "d": 97.12828125001397,
      "v": 110
    },
    {
      "midi": 52,
      "hit": false,
      "t": 200979.5287499977,
      "d": 97.12828125001397,
      "v": 110
    },
    {
      "midi": 52,
      "hit": false,
      "t": 201080.8799999977,
      "d": 1414.6945312499884,
      "v": 110
    },
    {
      "midi": 59,
      "hit": false,
      "t": 201080.87999999916,
      "d": 1414.6945312499884,
      "v": 110
    },
    {
      "midi": 52,
      "hit": false,
      "t": 202499.7974999977,
      "d": 97.12828125001397,
      "v": 110
    },
    {
      "midi": 61,
      "hit": false,
      "t": 202499.79749999914,
      "d": 97.12828125001397,
      "v": 110
    },
    {
      "midi": 52,
      "hit": false,
      "t": 202601.1487499977,
      "d": 97.12828125001397,
      "v": 110
    },
    {
      "midi": 59,
      "hit": false,
      "t": 202601.14874999915,
      "d": 97.12828125001397,
      "v": 110
    },
    {
      "midi": 52,
      "hit": false,
      "t": 202702.4999999977,
      "d": 709.4587499999907,
      "v": 110
    },
    {
      "midi": 59,
      "hit": false,
      "t": 202702.49999999916,
      "d": 709.4587499999907,
      "v": 110
    },
    {
      "midi": 52,
      "hit": false,
      "t": 203513.3099999977,
      "d": 299.83078124999884,
      "v": 110
    },
    {
      "midi": 59,
      "hit": false,
      "t": 203513.30999999915,
      "d": 299.83078124999884,
      "v": 110
    },
    {
      "midi": 52,
      "hit": false,
      "t": 203817.3637499977,
      "d": 299.83078124999884,
      "v": 110
    },
    {
      "midi": 61,
      "hit": false,
      "t": 203817.36374999915,
      "d": 299.83078124999884,
      "v": 110
    },
    {
      "midi": 52,
      "hit": false,
      "t": 204121.41749999768,
      "d": 198.47953124999185,
      "v": 110
    },
    {
      "midi": 59,
      "hit": false,
      "t": 204121.41749999914,
      "d": 198.47953124999185,
      "v": 110
    },
    {
      "midi": 51,
      "hit": false,
      "t": 204324.11999999767,
      "d": 1414.6945312499884,
      "v": 110
    },
    {
      "midi": 58,
      "hit": false,
      "t": 204324.11999999912,
      "d": 1414.6945312499884,
      "v": 110
    },
    {
      "midi": 51,
      "hit": false,
      "t": 205743.03749999765,
      "d": 97.12828125001397,
      "v": 110
    },
    {
      "midi": 58,
      "hit": false,
      "t": 205743.0374999991,
      "d": 97.12828125001397,
      "v": 110
    },
    {
      "midi": 51,
      "hit": false,
      "t": 205844.38874999766,
      "d": 97.12828125001397,
      "v": 110
    },
    {
      "midi": 56,
      "hit": false,
      "t": 205844.3887499991,
      "d": 97.12828125001397,
      "v": 110
    },
    {
      "midi": 51,
      "hit": false,
      "t": 205945.73999999766,
      "d": 337.8374999999942,
      "v": 110
    },
    {
      "midi": 58,
      "hit": false,
      "t": 205945.73999999912,
      "d": 337.8374999999942,
      "v": 110
    },
    {
      "midi": 54,
      "hit": false,
      "t": 206351.14499999766,
      "d": 337.8374999999942,
      "v": 110
    },
    {
      "midi": 61,
      "hit": false,
      "t": 206351.14499999912,
      "d": 337.8374999999942,
      "v": 110
    },
    {
      "midi": 58,
      "hit": false,
      "t": 206756.54999999766,
      "d": 337.8374999999942,
      "v": 110
    },
    {
      "midi": 63,
      "hit": false,
      "t": 206756.54999999912,
      "d": 337.8374999999942,
      "v": 110
    },
    {
      "midi": 61,
      "hit": false,
      "t": 207161.95499999766,
      "d": 337.8374999999942,
      "v": 110
    },
    {
      "midi": 66,
      "hit": false,
      "t": 207161.9549999991,
      "d": 337.8374999999942,
      "v": 110
    },
    {
      "midi": 61,
      "hit": false,
      "t": 207567.35999999766,
      "d": 1414.6945312499884,
      "v": 110
    },
    {
      "midi": 68,
      "hit": false,
      "t": 207567.3599999991,
      "d": 1414.6945312499884,
      "v": 110
    },
    {
      "midi": 61,
      "hit": false,
      "t": 208986.27749999764,
      "d": 97.12828125001397,
      "v": 110
    },
    {
      "midi": 70,
      "hit": false,
      "t": 208986.2774999991,
      "d": 97.12828125001397,
      "v": 110
    },
    {
      "midi": 61,
      "hit": false,
      "t": 209087.62874999765,
      "d": 97.12828125001397,
      "v": 110
    },
    {
      "midi": 68,
      "hit": false,
      "t": 209087.6287499991,
      "d": 97.12828125001397,
      "v": 110
    },
    {
      "midi": 61,
      "hit": false,
      "t": 209188.97999999765,
      "d": 709.4587499999907,
      "v": 110
    },
    {
      "midi": 68,
      "hit": false,
      "t": 209188.9799999991,
      "d": 709.4587499999907,
      "v": 110
    },
    {
      "midi": 59,
      "hit": false,
      "t": 209999.78999999765,
      "d": 299.83078124999884,
      "v": 110
    },
    {
      "midi": 66,
      "hit": false,
      "t": 209999.7899999991,
      "d": 299.83078124999884,
      "v": 110
    },
    {
      "midi": 61,
      "hit": false,
      "t": 210303.84374999764,
      "d": 299.83078124999884,
      "v": 110
    },
    {
      "midi": 68,
      "hit": false,
      "t": 210303.8437499991,
      "d": 299.83078124999884,
      "v": 110
    },
    {
      "midi": 61,
      "hit": false,
      "t": 210607.89749999763,
      "d": 198.47953124999185,
      "v": 110
    },
    {
      "midi": 68,
      "hit": false,
      "t": 210607.8974999991,
      "d": 198.47953124999185,
      "v": 110
    },
    {
      "midi": 63,
      "hit": false,
      "t": 210810.59999999762,
      "d": 709.4587499999907,
      "v": 110
    },
    {
      "midi": 70,
      "hit": false,
      "t": 210810.59999999907,
      "d": 709.4587499999907,
      "v": 110
    },
    {
      "midi": 63,
      "hit": false,
      "t": 211621.40999999762,
      "d": 299.83078124999884,
      "v": 110
    },
    {
      "midi": 70,
      "hit": false,
      "t": 211621.40999999907,
      "d": 299.83078124999884,
      "v": 110
    },
    {
      "midi": 66,
      "hit": false,
      "t": 211925.4637499976,
      "d": 299.83078124999884,
      "v": 110
    },
    {
      "midi": 73,
      "hit": false,
      "t": 211925.46374999906,
      "d": 299.83078124999884,
      "v": 110
    },
    {
      "midi": 63,
      "hit": false,
      "t": 212229.5174999976,
      "d": 97.12828125001397,
      "v": 110
    },
    {
      "midi": 70,
      "hit": false,
      "t": 212229.51749999906,
      "d": 97.12828125001397,
      "v": 110
    },
    {
      "midi": 59,
      "hit": false,
      "t": 212330.8687499976,
      "d": 97.12828125001397,
      "v": 110
    },
    {
      "midi": 66,
      "hit": false,
      "t": 212330.86874999906,
      "d": 97.12828125001397,
      "v": 110
    },
    {
      "midi": 58,
      "hit": false,
      "t": 212432.21999999761,
      "d": 709.4587499999907,
      "v": 110
    },
    {
      "midi": 63,
      "hit": false,
      "t": 212432.21999999907,
      "d": 709.4587499999907,
      "v": 110
    },
    {
      "midi": 58,
      "hit": false,
      "t": 213243.0299999976,
      "d": 198.47953124999185,
      "v": 110
    },
    {
      "midi": 63,
      "hit": false,
      "t": 213243.02999999907,
      "d": 198.47953124999185,
      "v": 110
    },
    {
      "midi": 58,
      "hit": false,
      "t": 213445.7324999976,
      "d": 198.47953124999185,
      "v": 110
    },
    {
      "midi": 65,
      "hit": false,
      "t": 213445.73249999905,
      "d": 198.47953124999185,
      "v": 110
    },
    {
      "midi": 61,
      "hit": false,
      "t": 213648.43499999758,
      "d": 198.47953124999185,
      "v": 110
    },
    {
      "midi": 66,
      "hit": false,
      "t": 213648.43499999904,
      "d": 198.47953124999185,
      "v": 110
    },
    {
      "midi": 58,
      "hit": false,
      "t": 213851.13749999757,
      "d": 198.47953124999185,
      "v": 110
    },
    {
      "midi": 63,
      "hit": false,
      "t": 213851.13749999902,
      "d": 198.47953124999185,
      "v": 110
    },
    {
      "midi": 57,
      "hit": false,
      "t": 214053.83999999755,
      "d": 1414.6945312499884,
      "v": 110
    },
    {
      "midi": 64,
      "hit": false,
      "t": 214053.839999999,
      "d": 1414.6945312499884,
      "v": 110
    },
    {
      "midi": 57,
      "hit": false,
      "t": 215472.75749999753,
      "d": 97.12828125001397,
      "v": 110
    },
    {
      "midi": 64,
      "hit": false,
      "t": 215472.757499999,
      "d": 97.12828125001397,
      "v": 110
    },
    {
      "midi": 57,
      "hit": false,
      "t": 215574.10874999754,
      "d": 97.12828125001397,
      "v": 110
    },
    {
      "midi": 63,
      "hit": false,
      "t": 215574.108749999,
      "d": 97.12828125001397,
      "v": 110
    },
    {
      "midi": 57,
      "hit": false,
      "t": 215675.45999999755,
      "d": 337.8374999999942,
      "v": 110
    },
    {
      "midi": 63,
      "hit": false,
      "t": 215675.459999999,
      "d": 337.8374999999942,
      "v": 110
    },
    {
      "midi": 52,
      "hit": false,
      "t": 216080.86499999755,
      "d": 337.8374999999942,
      "v": 110
    },
    {
      "midi": 56,
      "hit": false,
      "t": 216080.864999999,
      "d": 337.8374999999942,
      "v": 110
    },
    {
      "midi": 54,
      "hit": false,
      "t": 216486.26999999754,
      "d": 337.8374999999942,
      "v": 110
    },
    {
      "midi": 59,
      "hit": false,
      "t": 216486.269999999,
      "d": 337.8374999999942,
      "v": 110
    },
    {
      "midi": 57,
      "hit": false,
      "t": 216891.67499999754,
      "d": 337.8374999999942,
      "v": 110
    },
    {
      "midi": 63,
      "hit": false,
      "t": 216891.674999999,
      "d": 337.8374999999942,
      "v": 110
    },
    {
      "midi": 54,
      "hit": false,
      "t": 217297.07999999754,
      "d": 1414.6945312499884,
      "v": 110
    },
    {
      "midi": 58,
      "hit": false,
      "t": 217297.079999999,
      "d": 1414.6945312499884,
      "v": 110
    },
    {
      "midi": 54,
      "hit": false,
      "t": 218715.99749999752,
      "d": 97.12828125001397,
      "v": 110
    },
    {
      "midi": 59,
      "hit": false,
      "t": 218715.99749999898,
      "d": 97.12828125001397,
      "v": 110
    },
    {
      "midi": 54,
      "hit": false,
      "t": 218817.34874999753,
      "d": 97.12828125001397,
      "v": 110
    },
    {
      "midi": 61,
      "hit": false,
      "t": 218817.348749999,
      "d": 97.12828125001397,
      "v": 110
    },
    {
      "midi": 54,
      "hit": false,
      "t": 218918.69999999754,
      "d": 709.4587499999907,
      "v": 110
    },
    {
      "midi": 58,
      "hit": false,
      "t": 218918.699999999,
      "d": 709.4587499999907,
      "v": 110
    },
    {
      "midi": 54,
      "hit": false,
      "t": 219729.50999999754,
      "d": 299.83078124999884,
      "v": 110
    },
    {
      "midi": 58,
      "hit": false,
      "t": 219729.509999999,
      "d": 299.83078124999884,
      "v": 110
    },
    {
      "midi": 54,
      "hit": false,
      "t": 220033.56374999753,
      "d": 299.83078124999884,
      "v": 110
    },
    {
      "midi": 59,
      "hit": false,
      "t": 220033.56374999898,
      "d": 299.83078124999884,
      "v": 110
    },
    {
      "midi": 51,
      "hit": false,
      "t": 220337.61749999752,
      "d": 198.47953124999185,
      "v": 110
    },
    {
      "midi": 58,
      "hit": false,
      "t": 220337.61749999897,
      "d": 198.47953124999185,
      "v": 110
    },
    {
      "midi": 52,
      "hit": false,
      "t": 220540.3199999975,
      "d": 1414.6945312499884,
      "v": 110
    },
    {
      "midi": 59,
      "hit": false,
      "t": 220540.31999999896,
      "d": 1414.6945312499884,
      "v": 110
    },
    {
      "midi": 52,
      "hit": false,
      "t": 221959.23749999749,
      "d": 97.12828125001397,
      "v": 110
    },
    {
      "midi": 61,
      "hit": false,
      "t": 221959.23749999894,
      "d": 97.12828125001397,
      "v": 110
    },
    {
      "midi": 52,
      "hit": false,
      "t": 222060.5887499975,
      "d": 97.12828125001397,
      "v": 110
    },
    {
      "midi": 58,
      "hit": false,
      "t": 222060.58874999895,
      "d": 97.12828125001397,
      "v": 110
    },
    {
      "midi": 52,
      "hit": false,
      "t": 222161.9399999975,
      "d": 709.4587499999907,
      "v": 110
    },
    {
      "midi": 59,
      "hit": false,
      "t": 222161.93999999895,
      "d": 709.4587499999907,
      "v": 110
    },
    {
      "midi": 52,
      "hit": false,
      "t": 222972.7499999975,
      "d": 198.47953124999185,
      "v": 110
    },
    {
      "midi": 59,
      "hit": false,
      "t": 222972.74999999895,
      "d": 198.47953124999185,
      "v": 110
    },
    {
      "midi": 56,
      "hit": false,
      "t": 223175.45249999748,
      "d": 198.47953124999185,
      "v": 110
    },
    {
      "midi": 61,
      "hit": false,
      "t": 223175.45249999894,
      "d": 198.47953124999185,
      "v": 110
    },
    {
      "midi": 57,
      "hit": false,
      "t": 223378.15499999747,
      "d": 198.47953124999185,
      "v": 110
    },
    {
      "midi": 64,
      "hit": false,
      "t": 223378.15499999892,
      "d": 198.47953124999185,
      "v": 110
    },
    {
      "midi": 60,
      "hit": false,
      "t": 223580.85749999745,
      "d": 198.47953124999185,
      "v": 110
    },
    {
      "midi": 68,
      "hit": false,
      "t": 223580.8574999989,
      "d": 198.47953124999185,
      "v": 110
    },
    {
      "midi": 62,
      "hit": false,
      "t": 223783.55999999744,
      "d": 1414.6945312499884,
      "v": 110
    },
    {
      "midi": 69,
      "hit": false,
      "t": 223783.5599999989,
      "d": 1414.6945312499884,
      "v": 110
    },
    {
      "midi": 62,
      "hit": false,
      "t": 225202.47749999742,
      "d": 97.12828125001397,
      "v": 110
    },
    {
      "midi": 69,
      "hit": false,
      "t": 225202.47749999887,
      "d": 97.12828125001397,
      "v": 110
    },
    {
      "midi": 62,
      "hit": false,
      "t": 225303.82874999742,
      "d": 97.12828125001397,
      "v": 110
    },
    {
      "midi": 69,
      "hit": false,
      "t": 225303.82874999888,
      "d": 97.12828125001397,
      "v": 110
    },
    {
      "midi": 62,
      "hit": false,
      "t": 225405.17999999743,
      "d": 709.4587499999907,
      "v": 110
    },
    {
      "midi": 69,
      "hit": false,
      "t": 225405.1799999989,
      "d": 709.4587499999907,
      "v": 110
    },
    {
      "midi": 64,
      "hit": false,
      "t": 226215.98999999743,
      "d": 709.4587499999907,
      "v": 110
    },
    {
      "midi": 68,
      "hit": false,
      "t": 226215.98999999888,
      "d": 709.4587499999907,
      "v": 110
    },
    {
      "midi": 30,
      "hit": false,
      "t": 227026.79999999743,
      "d": 97.12828125001397,
      "v": 110
    },
    {
      "midi": 78,
      "hit": false,
      "t": 227026.79999999888,
      "d": 97.12828125001397,
      "v": 110
    },
    {
      "midi": 30,
      "hit": false,
      "t": 227128.15124999743,
      "d": 97.12828125001397,
      "v": 110
    },
    {
      "midi": 73,
      "hit": false,
      "t": 227128.1512499989,
      "d": 97.12828125001397,
      "v": 110
    },
    {
      "midi": 42,
      "hit": false,
      "t": 227229.50249999744,
      "d": 97.12828125001397,
      "v": 110
    },
    {
      "midi": 68,
      "hit": false,
      "t": 227229.5024999989,
      "d": 97.12828125001397,
      "v": 110
    },
    {
      "midi": 42,
      "hit": false,
      "t": 227330.85374999745,
      "d": 97.12828125001397,
      "v": 110
    },
    {
      "midi": 66,
      "hit": false,
      "t": 227330.8537499989,
      "d": 97.12828125001397,
      "v": 110
    },
    {
      "midi": 28,
      "hit": false,
      "t": 227432.20499999746,
      "d": 97.12828125001397,
      "v": 110
    },
    {
      "midi": 61,
      "hit": false,
      "t": 227432.2049999989,
      "d": 97.12828125001397,
      "v": 110
    },
    {
      "midi": 28,
      "hit": false,
      "t": 227533.55624999746,
      "d": 97.12828125001397,
      "v": 110
    },
    {
      "midi": 66,
      "hit": false,
      "t": 227533.55624999892,
      "d": 97.12828125001397,
      "v": 110
    },
    {
      "midi": 40,
      "hit": false,
      "t": 227634.90749999747,
      "d": 97.12828125001397,
      "v": 110
    },
    {
      "midi": 68,
      "hit": false,
      "t": 227634.90749999892,
      "d": 97.12828125001397,
      "v": 110
    },
    {
      "midi": 40,
      "hit": false,
      "t": 227736.25874999748,
      "d": 97.12828125001397,
      "v": 110
    },
    {
      "midi": 73,
      "hit": false,
      "t": 227736.25874999893,
      "d": 97.12828125001397,
      "v": 110
    },
    {
      "midi": 30,
      "hit": false,
      "t": 227837.60999999748,
      "d": 97.12828125001397,
      "v": 110
    },
    {
      "midi": 78,
      "hit": false,
      "t": 227837.60999999894,
      "d": 97.12828125001397,
      "v": 110
    },
    {
      "midi": 30,
      "hit": false,
      "t": 227938.9612499975,
      "d": 97.12828125001397,
      "v": 110
    },
    {
      "midi": 73,
      "hit": false,
      "t": 227938.96124999895,
      "d": 97.12828125001397,
      "v": 110
    },
    {
      "midi": 42,
      "hit": false,
      "t": 228040.3124999975,
      "d": 97.12828125001397,
      "v": 110
    },
    {
      "midi": 68,
      "hit": false,
      "t": 228040.31249999895,
      "d": 97.12828125001397,
      "v": 110
    },
    {
      "midi": 42,
      "hit": false,
      "t": 228141.6637499975,
      "d": 97.12828125001397,
      "v": 110
    },
    {
      "midi": 66,
      "hit": false,
      "t": 228141.66374999896,
      "d": 97.12828125001397,
      "v": 110
    },
    {
      "midi": 28,
      "hit": false,
      "t": 228243.0149999975,
      "d": 97.12828125001397,
      "v": 110
    },
    {
      "midi": 61,
      "hit": false,
      "t": 228243.01499999897,
      "d": 97.12828125001397,
      "v": 110
    },
    {
      "midi": 28,
      "hit": false,
      "t": 228344.36624999752,
      "d": 97.12828125001397,
      "v": 110
    },
    {
      "midi": 66,
      "hit": false,
      "t": 228344.36624999897,
      "d": 97.12828125001397,
      "v": 110
    },
    {
      "midi": 40,
      "hit": false,
      "t": 228445.71749999753,
      "d": 97.12828125001397,
      "v": 110
    },
    {
      "midi": 68,
      "hit": false,
      "t": 228445.71749999898,
      "d": 97.12828125001397,
      "v": 110
    },
    {
      "midi": 40,
      "hit": false,
      "t": 228547.06874999753,
      "d": 97.12828125001397,
      "v": 110
    },
    {
      "midi": 73,
      "hit": false,
      "t": 228547.068749999,
      "d": 97.12828125001397,
      "v": 110
    },
    {
      "midi": 30,
      "hit": false,
      "t": 228648.41999999754,
      "d": 97.12828125001397,
      "v": 110
    },
    {
      "midi": 78,
      "hit": false,
      "t": 228648.419999999,
      "d": 97.12828125001397,
      "v": 110
    },
    {
      "midi": 30,
      "hit": false,
      "t": 228749.77124999755,
      "d": 97.12828125001397,
      "v": 110
    },
    {
      "midi": 73,
      "hit": false,
      "t": 228749.771249999,
      "d": 97.12828125001397,
      "v": 110
    },
    {
      "midi": 42,
      "hit": false,
      "t": 228851.12249999755,
      "d": 97.12828125001397,
      "v": 110
    },
    {
      "midi": 68,
      "hit": false,
      "t": 228851.122499999,
      "d": 97.12828125001397,
      "v": 110
    },
    {
      "midi": 42,
      "hit": false,
      "t": 228952.47374999756,
      "d": 97.12828125001397,
      "v": 110
    },
    {
      "midi": 66,
      "hit": false,
      "t": 228952.47374999902,
      "d": 97.12828125001397,
      "v": 110
    },
    {
      "midi": 28,
      "hit": false,
      "t": 229053.82499999757,
      "d": 97.12828125001397,
      "v": 110
    },
    {
      "midi": 61,
      "hit": false,
      "t": 229053.82499999902,
      "d": 97.12828125001397,
      "v": 110
    },
    {
      "midi": 28,
      "hit": false,
      "t": 229155.17624999757,
      "d": 97.12828125001397,
      "v": 110
    },
    {
      "midi": 66,
      "hit": false,
      "t": 229155.17624999903,
      "d": 97.12828125001397,
      "v": 110
    },
    {
      "midi": 40,
      "hit": false,
      "t": 229256.52749999758,
      "d": 97.12828125001397,
      "v": 110
    },
    {
      "midi": 68,
      "hit": false,
      "t": 229256.52749999904,
      "d": 97.12828125001397,
      "v": 110
    },
    {
      "midi": 40,
      "hit": false,
      "t": 229357.8787499976,
      "d": 97.12828125001397,
      "v": 110
    },
    {
      "midi": 73,
      "hit": false,
      "t": 229357.87874999904,
      "d": 97.12828125001397,
      "v": 110
    },
    {
      "midi": 30,
      "hit": false,
      "t": 229459.2299999976,
      "d": 97.12828125001397,
      "v": 110
    },
    {
      "midi": 78,
      "hit": false,
      "t": 229459.22999999905,
      "d": 97.12828125001397,
      "v": 110
    },
    {
      "midi": 30,
      "hit": false,
      "t": 229560.5812499976,
      "d": 97.12828125001397,
      "v": 110
    },
    {
      "midi": 73,
      "hit": false,
      "t": 229560.58124999906,
      "d": 97.12828125001397,
      "v": 110
    },
    {
      "midi": 42,
      "hit": false,
      "t": 229661.9324999976,
      "d": 97.12828125001397,
      "v": 110
    },
    {
      "midi": 68,
      "hit": false,
      "t": 229661.93249999906,
      "d": 97.12828125001397,
      "v": 110
    },
    {
      "midi": 42,
      "hit": false,
      "t": 229763.28374999762,
      "d": 97.12828125001397,
      "v": 110
    },
    {
      "midi": 66,
      "hit": false,
      "t": 229763.28374999907,
      "d": 97.12828125001397,
      "v": 110
    },
    {
      "midi": 28,
      "hit": false,
      "t": 229864.63499999762,
      "d": 97.12828125001397,
      "v": 110
    },
    {
      "midi": 61,
      "hit": false,
      "t": 229864.63499999908,
      "d": 97.12828125001397,
      "v": 110
    },
    {
      "midi": 28,
      "hit": false,
      "t": 229965.98624999763,
      "d": 97.12828125001397,
      "v": 110
    },
    {
      "midi": 66,
      "hit": false,
      "t": 229965.98624999908,
      "d": 97.12828125001397,
      "v": 110
    },
    {
      "midi": 40,
      "hit": false,
      "t": 230067.33749999764,
      "d": 97.12828125001397,
      "v": 110
    },
    {
      "midi": 68,
      "hit": false,
      "t": 230067.3374999991,
      "d": 97.12828125001397,
      "v": 110
    },
    {
      "midi": 40,
      "hit": false,
      "t": 230168.68874999764,
      "d": 97.12828125001397,
      "v": 110
    },
    {
      "midi": 73,
      "hit": false,
      "t": 230168.6887499991,
      "d": 97.12828125001397,
      "v": 110
    },
    {
      "midi": 30,
      "hit": false,
      "t": 230270.03999999765,
      "d": 97.12828125001397,
      "v": 110
    },
    {
      "midi": 78,
      "hit": false,
      "t": 230270.0399999991,
      "d": 97.12828125001397,
      "v": 110
    },
    {
      "midi": 30,
      "hit": false,
      "t": 230371.39124999766,
      "d": 97.12828125001397,
      "v": 110
    },
    {
      "midi": 73,
      "hit": false,
      "t": 230371.3912499991,
      "d": 97.12828125001397,
      "v": 110
    },
    {
      "midi": 42,
      "hit": false,
      "t": 230472.74249999766,
      "d": 97.12828125001397,
      "v": 110
    },
    {
      "midi": 68,
      "hit": false,
      "t": 230472.74249999912,
      "d": 97.12828125001397,
      "v": 110
    },
    {
      "midi": 42,
      "hit": false,
      "t": 230574.09374999767,
      "d": 97.12828125001397,
      "v": 110
    },
    {
      "midi": 66,
      "hit": false,
      "t": 230574.09374999913,
      "d": 97.12828125001397,
      "v": 110
    },
    {
      "midi": 28,
      "hit": false,
      "t": 230675.44499999768,
      "d": 97.12828125001397,
      "v": 110
    },
    {
      "midi": 61,
      "hit": false,
      "t": 230675.44499999913,
      "d": 97.12828125001397,
      "v": 110
    },
    {
      "midi": 28,
      "hit": false,
      "t": 230776.7962499977,
      "d": 97.12828125001397,
      "v": 110
    },
    {
      "midi": 66,
      "hit": false,
      "t": 230776.79624999914,
      "d": 97.12828125001397,
      "v": 110
    },
    {
      "midi": 40,
      "hit": false,
      "t": 230878.1474999977,
      "d": 97.12828125001397,
      "v": 110
    },
    {
      "midi": 68,
      "hit": false,
      "t": 230878.14749999915,
      "d": 97.12828125001397,
      "v": 110
    },
    {
      "midi": 40,
      "hit": false,
      "t": 230979.4987499977,
      "d": 97.12828125001397,
      "v": 110
    },
    {
      "midi": 73,
      "hit": false,
      "t": 230979.49874999915,
      "d": 97.12828125001397,
      "v": 110
    },
    {
      "midi": 30,
      "hit": false,
      "t": 231080.8499999977,
      "d": 97.12828125001397,
      "v": 110
    },
    {
      "midi": 78,
      "hit": false,
      "t": 231080.84999999916,
      "d": 97.12828125001397,
      "v": 110
    },
    {
      "midi": 30,
      "hit": false,
      "t": 231182.2012499977,
      "d": 97.12828125001397,
      "v": 110
    },
    {
      "midi": 73,
      "hit": false,
      "t": 231182.20124999917,
      "d": 97.12828125001397,
      "v": 110
    },
    {
      "midi": 42,
      "hit": false,
      "t": 231283.55249999772,
      "d": 97.12828125001397,
      "v": 110
    },
    {
      "midi": 68,
      "hit": false,
      "t": 231283.55249999918,
      "d": 97.12828125001397,
      "v": 110
    },
    {
      "midi": 42,
      "hit": false,
      "t": 231384.90374999773,
      "d": 97.12828125001397,
      "v": 110
    },
    {
      "midi": 66,
      "hit": false,
      "t": 231384.90374999918,
      "d": 97.12828125001397,
      "v": 110
    },
    {
      "midi": 28,
      "hit": false,
      "t": 231486.25499999773,
      "d": 97.12828125001397,
      "v": 110
    },
    {
      "midi": 61,
      "hit": false,
      "t": 231486.2549999992,
      "d": 97.12828125001397,
      "v": 110
    },
    {
      "midi": 28,
      "hit": false,
      "t": 231587.60624999774,
      "d": 97.12828125001397,
      "v": 110
    },
    {
      "midi": 66,
      "hit": false,
      "t": 231587.6062499992,
      "d": 97.12828125001397,
      "v": 110
    },
    {
      "midi": 40,
      "hit": false,
      "t": 231688.95749999775,
      "d": 97.12828125001397,
      "v": 110
    },
    {
      "midi": 68,
      "hit": false,
      "t": 231688.9574999992,
      "d": 97.12828125001397,
      "v": 110
    },
    {
      "midi": 40,
      "hit": false,
      "t": 231790.30874999776,
      "d": 97.12828125001397,
      "v": 110
    },
    {
      "midi": 73,
      "hit": false,
      "t": 231790.3087499992,
      "d": 97.12828125001397,
      "v": 110
    },
    {
      "midi": 30,
      "hit": false,
      "t": 231891.65999999776,
      "d": 97.12828125001397,
      "v": 110
    },
    {
      "midi": 78,
      "hit": false,
      "t": 231891.65999999922,
      "d": 97.12828125001397,
      "v": 110
    },
    {
      "midi": 30,
      "hit": false,
      "t": 231993.01124999777,
      "d": 97.12828125001397,
      "v": 110
    },
    {
      "midi": 73,
      "hit": false,
      "t": 231993.01124999922,
      "d": 97.12828125001397,
      "v": 110
    },
    {
      "midi": 42,
      "hit": false,
      "t": 232094.36249999778,
      "d": 97.12828125001397,
      "v": 110
    },
    {
      "midi": 68,
      "hit": false,
      "t": 232094.36249999923,
      "d": 97.12828125001397,
      "v": 110
    },
    {
      "midi": 42,
      "hit": false,
      "t": 232195.71374999778,
      "d": 97.12828125001397,
      "v": 110
    },
    {
      "midi": 66,
      "hit": false,
      "t": 232195.71374999924,
      "d": 97.12828125001397,
      "v": 110
    },
    {
      "midi": 30,
      "hit": false,
      "t": 232297.0649999978,
      "d": 97.12828125001397,
      "v": 110
    },
    {
      "midi": 61,
      "hit": false,
      "t": 232297.06499999925,
      "d": 97.12828125001397,
      "v": 110
    },
    {
      "midi": 42,
      "hit": false,
      "t": 232398.4162499978,
      "d": 97.12828125001397,
      "v": 110
    },
    {
      "midi": 66,
      "hit": false,
      "t": 232398.41624999925,
      "d": 97.12828125001397,
      "v": 110
    },
    {
      "midi": 28,
      "hit": false,
      "t": 232499.7674999978,
      "d": 97.12828125001397,
      "v": 110
    },
    {
      "midi": 68,
      "hit": false,
      "t": 232499.76749999926,
      "d": 97.12828125001397,
      "v": 110
    },
    {
      "midi": 40,
      "hit": false,
      "t": 232601.1187499978,
      "d": 97.12828125001397,
      "v": 110
    },
    {
      "midi": 73,
      "hit": false,
      "t": 232601.11874999927,
      "d": 97.12828125001397,
      "v": 110
    },
    {
      "midi": 30,
      "hit": false,
      "t": 232702.46999999782,
      "d": 97.12828125001397,
      "v": 110
    },
    {
      "midi": 78,
      "hit": false,
      "t": 232702.46999999927,
      "d": 97.12828125001397,
      "v": 110
    },
    {
      "midi": 35,
      "hit": false,
      "t": 232803.82124999783,
      "d": 97.12828125001397,
      "v": 110
    },
    {
      "midi": 73,
      "hit": false,
      "t": 232803.82124999928,
      "d": 97.12828125001397,
      "v": 110
    },
    {
      "midi": 40,
      "hit": false,
      "t": 232905.17249999783,
      "d": 97.12828125001397,
      "v": 110
    },
    {
      "midi": 71,
      "hit": false,
      "t": 232905.1724999993,
      "d": 97.12828125001397,
      "v": 110
    },
    {
      "midi": 44,
      "hit": false,
      "t": 233006.52374999784,
      "d": 97.12828125001397,
      "v": 110
    },
    {
      "midi": 68,
      "hit": false,
      "t": 233006.5237499993,
      "d": 97.12828125001397,
      "v": 110
    },
    {
      "midi": 35,
      "hit": false,
      "t": 233107.87499999785,
      "d": 97.12828125001397,
      "v": 110
    },
    {
      "midi": 70,
      "hit": false,
      "t": 233107.8749999993,
      "d": 97.12828125001397,
      "v": 110
    },
    {
      "midi": 40,
      "hit": false,
      "t": 233209.22624999785,
      "d": 97.12828125001397,
      "v": 110
    },
    {
      "midi": 66,
      "hit": false,
      "t": 233209.2262499993,
      "d": 97.12828125001397,
      "v": 110
    },
    {
      "midi": 42,
      "hit": false,
      "t": 233310.57749999786,
      "d": 97.12828125001397,
      "v": 110
    },
    {
      "midi": 61,
      "hit": false,
      "t": 233310.57749999932,
      "d": 97.12828125001397,
      "v": 110
    },
    {
      "midi": 46,
      "hit": false,
      "t": 233411.92874999787,
      "d": 97.12828125001397,
      "v": 110
    },
    {
      "midi": 58,
      "hit": false,
      "t": 233411.92874999932,
      "d": 97.12828125001397,
      "v": 110
    },
    {
      "midi": 39,
      "hit": false,
      "t": 233513.27999999787,
      "d": 97.12828125001397,
      "v": 110
    },
    {
      "midi": 70,
      "hit": false,
      "t": 233513.27999999933,
      "d": 1009.2895312499895,
      "v": 110
    },
    {
      "midi": 39,
      "hit": false,
      "t": 233614.63124999788,
      "d": 97.12828125001397,
      "v": 110
    },
    {
      "midi": 51,
      "hit": false,
      "t": 233715.9824999979,
      "d": 97.12828125001397,
      "v": 110
    },
    {
      "midi": 51,
      "hit": false,
      "t": 233817.3337499979,
      "d": 97.12828125001397,
      "v": 110
    },
    {
      "midi": 39,
      "hit": false,
      "t": 233918.6849999979,
      "d": 97.12828125001397,
      "v": 110
    },
    {
      "midi": 39,
      "hit": false,
      "t": 234020.0362499979,
      "d": 97.12828125001397,
      "v": 110
    },
    {
      "midi": 51,
      "hit": false,
      "t": 234121.38749999792,
      "d": 97.12828125001397,
      "v": 110
    },
    {
      "midi": 51,
      "hit": false,
      "t": 234222.73874999792,
      "d": 97.12828125001397,
      "v": 110
    },
    {
      "midi": 39,
      "hit": false,
      "t": 234324.08999999793,
      "d": 97.12828125001397,
      "v": 110
    },
    {
      "midi": 39,
      "hit": false,
      "t": 234425.44124999794,
      "d": 97.12828125001397,
      "v": 110
    },
    {
      "midi": 51,
      "hit": false,
      "t": 234526.79249999794,
      "d": 97.12828125001397,
      "v": 110
    },
    {
      "midi": 70,
      "hit": false,
      "t": 234526.7924999993,
      "d": 198.47953124999185,
      "v": 110
    },
    {
      "midi": 51,
      "hit": false,
      "t": 234628.14374999795,
      "d": 97.12828125001397,
      "v": 110
    },
    {
      "midi": 39,
      "hit": false,
      "t": 234729.49499999796,
      "d": 97.12828125001397,
      "v": 110
    },
    {
      "midi": 68,
      "hit": false,
      "t": 234729.4949999993,
      "d": 198.47953124999185,
      "v": 110
    },
    {
      "midi": 39,
      "hit": false,
      "t": 234830.84624999797,
      "d": 97.12828125001397,
      "v": 110
    },
    {
      "midi": 51,
      "hit": false,
      "t": 234932.19749999797,
      "d": 97.12828125001397,
      "v": 110
    },
    {
      "midi": 66,
      "hit": false,
      "t": 234932.19749999928,
      "d": 198.47953124999185,
      "v": 110
    },
    {
      "midi": 51,
      "hit": false,
      "t": 235033.54874999798,
      "d": 97.12828125001397,
      "v": 110
    },
    {
      "midi": 37,
      "hit": false,
      "t": 235134.899999998,
      "d": 97.12828125001397,
      "v": 110
    },
    {
      "midi": 65,
      "hit": false,
      "t": 235134.89999999927,
      "d": 1009.2895312499895,
      "v": 110
    },
    {
      "midi": 37,
      "hit": false,
      "t": 235236.251249998,
      "d": 97.12828125001397,
      "v": 110
    },
    {
      "midi": 49,
      "hit": false,
      "t": 235337.602499998,
      "d": 97.12828125001397,
      "v": 110
    },
    {
      "midi": 49,
      "hit": false,
      "t": 235438.953749998,
      "d": 97.12828125001397,
      "v": 110
    },
    {
      "midi": 37,
      "hit": false,
      "t": 235540.304999998,
      "d": 97.12828125001397,
      "v": 110
    },
    {
      "midi": 37,
      "hit": false,
      "t": 235641.65624999802,
      "d": 97.12828125001397,
      "v": 110
    },
    {
      "midi": 49,
      "hit": false,
      "t": 235743.00749999803,
      "d": 97.12828125001397,
      "v": 110
    },
    {
      "midi": 49,
      "hit": false,
      "t": 235844.35874999803,
      "d": 97.12828125001397,
      "v": 110
    },
    {
      "midi": 37,
      "hit": false,
      "t": 235945.70999999804,
      "d": 97.12828125001397,
      "v": 110
    },
    {
      "midi": 37,
      "hit": false,
      "t": 236047.06124999805,
      "d": 97.12828125001397,
      "v": 110
    },
    {
      "midi": 49,
      "hit": false,
      "t": 236148.41249999806,
      "d": 97.12828125001397,
      "v": 110
    },
    {
      "midi": 65,
      "hit": false,
      "t": 236148.41249999925,
      "d": 198.47953124999185,
      "v": 110
    },
    {
      "midi": 49,
      "hit": false,
      "t": 236249.76374999806,
      "d": 97.12828125001397,
      "v": 110
    },
    {
      "midi": 37,
      "hit": false,
      "t": 236351.11499999807,
      "d": 97.12828125001397,
      "v": 110
    },
    {
      "midi": 66,
      "hit": false,
      "t": 236351.11499999923,
      "d": 198.47953124999185,
      "v": 110
    },
    {
      "midi": 37,
      "hit": false,
      "t": 236452.46624999808,
      "d": 97.12828125001397,
      "v": 110
    },
    {
      "midi": 49,
      "hit": false,
      "t": 236553.81749999808,
      "d": 97.12828125001397,
      "v": 110
    },
    {
      "midi": 68,
      "hit": false,
      "t": 236553.81749999922,
      "d": 198.47953124999185,
      "v": 110
    },
    {
      "midi": 49,
      "hit": false,
      "t": 236655.1687499981,
      "d": 97.12828125001397,
      "v": 110
    },
    {
      "midi": 39,
      "hit": false,
      "t": 236756.5199999981,
      "d": 97.12828125001397,
      "v": 110
    },
    {
      "midi": 70,
      "hit": false,
      "t": 236756.5199999992,
      "d": 1009.2895312499895,
      "v": 110
    },
    {
      "midi": 39,
      "hit": false,
      "t": 236857.8712499981,
      "d": 97.12828125001397,
      "v": 110
    },
    {
      "midi": 51,
      "hit": false,
      "t": 236959.2224999981,
      "d": 97.12828125001397,
      "v": 110
    },
    {
      "midi": 51,
      "hit": false,
      "t": 237060.57374999812,
      "d": 97.12828125001397,
      "v": 110
    },
    {
      "midi": 39,
      "hit": false,
      "t": 237161.92499999813,
      "d": 97.12828125001397,
      "v": 110
    },
    {
      "midi": 39,
      "hit": false,
      "t": 237263.27624999813,
      "d": 97.12828125001397,
      "v": 110
    },
    {
      "midi": 51,
      "hit": false,
      "t": 237364.62749999814,
      "d": 97.12828125001397,
      "v": 110
    },
    {
      "midi": 51,
      "hit": false,
      "t": 237465.97874999815,
      "d": 97.12828125001397,
      "v": 110
    },
    {
      "midi": 39,
      "hit": false,
      "t": 237567.32999999815,
      "d": 97.12828125001397,
      "v": 110
    },
    {
      "midi": 39,
      "hit": false,
      "t": 237668.68124999816,
      "d": 97.12828125001397,
      "v": 110
    },
    {
      "midi": 51,
      "hit": false,
      "t": 237770.03249999817,
      "d": 97.12828125001397,
      "v": 110
    },
    {
      "midi": 70,
      "hit": false,
      "t": 237770.0324999992,
      "d": 198.47953124999185,
      "v": 110
    },
    {
      "midi": 51,
      "hit": false,
      "t": 237871.38374999817,
      "d": 97.12828125001397,
      "v": 110
    },
    {
      "midi": 39,
      "hit": false,
      "t": 237972.73499999818,
      "d": 97.12828125001397,
      "v": 110
    },
    {
      "midi": 68,
      "hit": false,
      "t": 237972.73499999917,
      "d": 198.47953124999185,
      "v": 110
    },
    {
      "midi": 39,
      "hit": false,
      "t": 238074.0862499982,
      "d": 97.12828125001397,
      "v": 110
    },
    {
      "midi": 51,
      "hit": false,
      "t": 238175.4374999982,
      "d": 97.12828125001397,
      "v": 110
    },
    {
      "midi": 66,
      "hit": false,
      "t": 238175.43749999916,
      "d": 198.47953124999185,
      "v": 110
    },
    {
      "midi": 51,
      "hit": false,
      "t": 238276.7887499982,
      "d": 97.12828125001397,
      "v": 110
    },
    {
      "midi": 37,
      "hit": false,
      "t": 238378.1399999982,
      "d": 97.12828125001397,
      "v": 110
    },
    {
      "midi": 65,
      "hit": false,
      "t": 238378.13999999914,
      "d": 1009.2895312499895,
      "v": 110
    },
    {
      "midi": 37,
      "hit": false,
      "t": 238479.49124999822,
      "d": 97.12828125001397,
      "v": 110
    },
    {
      "midi": 49,
      "hit": false,
      "t": 238580.84249999822,
      "d": 97.12828125001397,
      "v": 110
    },
    {
      "midi": 49,
      "hit": false,
      "t": 238682.19374999823,
      "d": 97.12828125001397,
      "v": 110
    },
    {
      "midi": 37,
      "hit": false,
      "t": 238783.54499999824,
      "d": 97.12828125001397,
      "v": 110
    },
    {
      "midi": 37,
      "hit": false,
      "t": 238884.89624999824,
      "d": 97.12828125001397,
      "v": 110
    },
    {
      "midi": 49,
      "hit": false,
      "t": 238986.24749999825,
      "d": 97.12828125001397,
      "v": 110
    },
    {
      "midi": 49,
      "hit": false,
      "t": 239087.59874999826,
      "d": 97.12828125001397,
      "v": 110
    },
    {
      "midi": 37,
      "hit": false,
      "t": 239188.94999999827,
      "d": 97.12828125001397,
      "v": 110
    },
    {
      "midi": 37,
      "hit": false,
      "t": 239290.30124999827,
      "d": 97.12828125001397,
      "v": 110
    },
    {
      "midi": 49,
      "hit": false,
      "t": 239391.65249999828,
      "d": 97.12828125001397,
      "v": 110
    },
    {
      "midi": 65,
      "hit": false,
      "t": 239391.65249999912,
      "d": 198.47953124999185,
      "v": 110
    },
    {
      "midi": 49,
      "hit": false,
      "t": 239493.0037499983,
      "d": 97.12828125001397,
      "v": 110
    },
    {
      "midi": 37,
      "hit": false,
      "t": 239594.3549999983,
      "d": 97.12828125001397,
      "v": 110
    },
    {
      "midi": 66,
      "hit": false,
      "t": 239594.3549999991,
      "d": 198.47953124999185,
      "v": 110
    },
    {
      "midi": 37,
      "hit": false,
      "t": 239695.7062499983,
      "d": 97.12828125001397,
      "v": 110
    },
    {
      "midi": 49,
      "hit": false,
      "t": 239797.0574999983,
      "d": 97.12828125001397,
      "v": 110
    },
    {
      "midi": 65,
      "hit": false,
      "t": 239797.0574999991,
      "d": 198.47953124999185,
      "v": 110
    },
    {
      "midi": 49,
      "hit": false,
      "t": 239898.4087499983,
      "d": 97.12828125001397,
      "v": 110
    },
    {
      "midi": 35,
      "hit": false,
      "t": 239999.75999999832,
      "d": 97.12828125001397,
      "v": 110
    },
    {
      "midi": 63,
      "hit": false,
      "t": 239999.75999999908,
      "d": 1009.2895312499895,
      "v": 110
    },
    {
      "midi": 35,
      "hit": false,
      "t": 240101.11124999833,
      "d": 97.12828125001397,
      "v": 110
    },
    {
      "midi": 47,
      "hit": false,
      "t": 240202.46249999834,
      "d": 97.12828125001397,
      "v": 110
    },
    {
      "midi": 47,
      "hit": false,
      "t": 240303.81374999834,
      "d": 97.12828125001397,
      "v": 110
    },
    {
      "midi": 35,
      "hit": false,
      "t": 240405.16499999835,
      "d": 97.12828125001397,
      "v": 110
    },
    {
      "midi": 35,
      "hit": false,
      "t": 240506.51624999836,
      "d": 97.12828125001397,
      "v": 110
    },
    {
      "midi": 47,
      "hit": false,
      "t": 240607.86749999836,
      "d": 97.12828125001397,
      "v": 110
    },
    {
      "midi": 47,
      "hit": false,
      "t": 240709.21874999837,
      "d": 97.12828125001397,
      "v": 110
    },
    {
      "midi": 35,
      "hit": false,
      "t": 240810.56999999838,
      "d": 97.12828125001397,
      "v": 110
    },
    {
      "midi": 35,
      "hit": false,
      "t": 240911.92124999838,
      "d": 97.12828125001397,
      "v": 110
    },
    {
      "midi": 47,
      "hit": false,
      "t": 241013.2724999984,
      "d": 97.12828125001397,
      "v": 110
    },
    {
      "midi": 63,
      "hit": false,
      "t": 241013.27249999906,
      "d": 198.47953124999185,
      "v": 110
    },
    {
      "midi": 47,
      "hit": false,
      "t": 241114.6237499984,
      "d": 97.12828125001397,
      "v": 110
    },
    {
      "midi": 35,
      "hit": false,
      "t": 241215.9749999984,
      "d": 97.12828125001397,
      "v": 110
    },
    {
      "midi": 66,
      "hit": false,
      "t": 241215.97499999905,
      "d": 198.47953124999185,
      "v": 110
    },
    {
      "midi": 35,
      "hit": false,
      "t": 241317.3262499984,
      "d": 97.12828125001397,
      "v": 110
    },
    {
      "midi": 47,
      "hit": false,
      "t": 241418.67749999842,
      "d": 97.12828125001397,
      "v": 110
    },
    {
      "midi": 70,
      "hit": false,
      "t": 241418.67749999903,
      "d": 198.47953124999185,
      "v": 110
    },
    {
      "midi": 47,
      "hit": false,
      "t": 241520.02874999843,
      "d": 97.12828125001397,
      "v": 110
    },
    {
      "midi": 35,
      "hit": false,
      "t": 241621.37999999843,
      "d": 97.12828125001397,
      "v": 110
    },
    {
      "midi": 71,
      "hit": false,
      "t": 241621.37999999902,
      "d": 337.8374999999942,
      "v": 110
    },
    {
      "midi": 35,
      "hit": false,
      "t": 241722.73124999844,
      "d": 97.12828125001397,
      "v": 110
    },
    {
      "midi": 47,
      "hit": false,
      "t": 241824.08249999845,
      "d": 97.12828125001397,
      "v": 110
    },
    {
      "midi": 47,
      "hit": false,
      "t": 241925.43374999845,
      "d": 97.12828125001397,
      "v": 110
    },
    {
      "midi": 35,
      "hit": false,
      "t": 242026.78499999846,
      "d": 97.12828125001397,
      "v": 110
    },
    {
      "midi": 70,
      "hit": false,
      "t": 242026.784999999,
      "d": 198.47953124999185,
      "v": 110
    },
    {
      "midi": 35,
      "hit": false,
      "t": 242128.13624999847,
      "d": 97.12828125001397,
      "v": 110
    },
    {
      "midi": 47,
      "hit": false,
      "t": 242229.48749999847,
      "d": 97.12828125001397,
      "v": 110
    },
    {
      "midi": 73,
      "hit": false,
      "t": 242229.487499999,
      "d": 401.1820312500058,
      "v": 110
    },
    {
      "midi": 47,
      "hit": false,
      "t": 242330.83874999848,
      "d": 97.12828125001397,
      "v": 110
    },
    {
      "midi": 35,
      "hit": false,
      "t": 242432.1899999985,
      "d": 97.12828125001397,
      "v": 110
    },
    {
      "midi": 35,
      "hit": false,
      "t": 242533.5412499985,
      "d": 97.12828125001397,
      "v": 110
    },
    {
      "midi": 47,
      "hit": false,
      "t": 242634.8924999985,
      "d": 97.12828125001397,
      "v": 110
    },
    {
      "midi": 70,
      "hit": false,
      "t": 242634.892499999,
      "d": 198.47953124999185,
      "v": 110
    },
    {
      "midi": 47,
      "hit": false,
      "t": 242736.2437499985,
      "d": 97.12828125001397,
      "v": 110
    },
    {
      "midi": 35,
      "hit": false,
      "t": 242837.59499999852,
      "d": 97.12828125001397,
      "v": 110
    },
    {
      "midi": 66,
      "hit": false,
      "t": 242837.59499999898,
      "d": 198.47953124999185,
      "v": 110
    },
    {
      "midi": 35,
      "hit": false,
      "t": 242938.94624999852,
      "d": 97.12828125001397,
      "v": 110
    },
    {
      "midi": 47,
      "hit": false,
      "t": 243040.29749999853,
      "d": 97.12828125001397,
      "v": 110
    },
    {
      "midi": 70,
      "hit": false,
      "t": 243040.29749999897,
      "d": 198.47953124999185,
      "v": 110
    },
    {
      "midi": 47,
      "hit": false,
      "t": 243141.64874999854,
      "d": 97.12828125001397,
      "v": 110
    },
    {
      "midi": 37,
      "hit": false,
      "t": 243242.99999999854,
      "d": 97.12828125001397,
      "v": 110
    },
    {
      "midi": 68,
      "hit": false,
      "t": 243242.99999999895,
      "d": 1414.6945312499884,
      "v": 110
    },
    {
      "midi": 37,
      "hit": false,
      "t": 243344.35124999855,
      "d": 97.12828125001397,
      "v": 110
    },
    {
      "midi": 49,
      "hit": false,
      "t": 243445.70249999856,
      "d": 97.12828125001397,
      "v": 110
    },
    {
      "midi": 49,
      "hit": false,
      "t": 243547.05374999857,
      "d": 97.12828125001397,
      "v": 110
    },
    {
      "midi": 37,
      "hit": false,
      "t": 243648.40499999857,
      "d": 97.12828125001397,
      "v": 110
    },
    {
      "midi": 37,
      "hit": false,
      "t": 243749.75624999858,
      "d": 97.12828125001397,
      "v": 110
    },
    {
      "midi": 49,
      "hit": false,
      "t": 243851.1074999986,
      "d": 97.12828125001397,
      "v": 110
    },
    {
      "midi": 49,
      "hit": false,
      "t": 243952.4587499986,
      "d": 97.12828125001397,
      "v": 110
    },
    {
      "midi": 37,
      "hit": false,
      "t": 244053.8099999986,
      "d": 97.12828125001397,
      "v": 110
    },
    {
      "midi": 37,
      "hit": false,
      "t": 244155.1612499986,
      "d": 97.12828125001397,
      "v": 110
    },
    {
      "midi": 49,
      "hit": false,
      "t": 244256.51249999861,
      "d": 97.12828125001397,
      "v": 110
    },
    {
      "midi": 49,
      "hit": false,
      "t": 244357.86374999862,
      "d": 97.12828125001397,
      "v": 110
    },
    {
      "midi": 37,
      "hit": false,
      "t": 244459.21499999863,
      "d": 97.12828125001397,
      "v": 110
    },
    {
      "midi": 37,
      "hit": false,
      "t": 244560.56624999864,
      "d": 97.12828125001397,
      "v": 110
    },
    {
      "midi": 49,
      "hit": false,
      "t": 244661.91749999864,
      "d": 97.12828125001397,
      "v": 110
    },
    {
      "midi": 68,
      "hit": false,
      "t": 244661.91749999893,
      "d": 97.12828125001397,
      "v": 110
    },
    {
      "midi": 49,
      "hit": false,
      "t": 244763.26874999865,
      "d": 97.12828125001397,
      "v": 110
    },
    {
      "midi": 68,
      "hit": false,
      "t": 244763.26874999894,
      "d": 97.12828125001397,
      "v": 110
    },
    {
      "midi": 37,
      "hit": false,
      "t": 244864.61999999866,
      "d": 97.12828125001397,
      "v": 110
    },
    {
      "midi": 73,
      "hit": false,
      "t": 244864.61999999895,
      "d": 1520.2687499999884,
      "v": 110
    },
    {
      "midi": 37,
      "hit": false,
      "t": 244965.97124999866,
      "d": 97.12828125001397,
      "v": 110
    },
    {
      "midi": 49,
      "hit": false,
      "t": 245067.32249999867,
      "d": 97.12828125001397,
      "v": 110
    },
    {
      "midi": 49,
      "hit": false,
      "t": 245168.67374999868,
      "d": 97.12828125001397,
      "v": 110
    },
    {
      "midi": 37,
      "hit": false,
      "t": 245270.02499999868,
      "d": 97.12828125001397,
      "v": 110
    },
    {
      "midi": 37,
      "hit": false,
      "t": 245371.3762499987,
      "d": 97.12828125001397,
      "v": 110
    },
    {
      "midi": 49,
      "hit": false,
      "t": 245472.7274999987,
      "d": 97.12828125001397,
      "v": 110
    },
    {
      "midi": 49,
      "hit": false,
      "t": 245574.0787499987,
      "d": 97.12828125001397,
      "v": 110
    },
    {
      "midi": 37,
      "hit": false,
      "t": 245675.4299999987,
      "d": 97.12828125001397,
      "v": 110
    },
    {
      "midi": 37,
      "hit": false,
      "t": 245776.78124999872,
      "d": 97.12828125001397,
      "v": 110
    },
    {
      "midi": 49,
      "hit": false,
      "t": 245878.13249999873,
      "d": 97.12828125001397,
      "v": 110
    },
    {
      "midi": 49,
      "hit": false,
      "t": 245979.48374999873,
      "d": 97.12828125001397,
      "v": 110
    },
    {
      "midi": 37,
      "hit": false,
      "t": 246080.83499999874,
      "d": 97.12828125001397,
      "v": 110
    },
    {
      "midi": 37,
      "hit": false,
      "t": 246182.18624999875,
      "d": 97.12828125001397,
      "v": 110
    },
    {
      "midi": 49,
      "hit": false,
      "t": 246283.53749999875,
      "d": 97.12828125001397,
      "v": 110
    },
    {
      "midi": 49,
      "hit": false,
      "t": 246384.88874999876,
      "d": 97.12828125001397,
      "v": 110
    },
    {
      "midi": 35,
      "hit": false,
      "t": 246486.23999999877,
      "d": 198.47953124999185,
      "v": 110
    },
    {
      "midi": 66,
      "hit": false,
      "t": 246486.23999999894,
      "d": 337.8374999999942,
      "v": 110
    },
    {
      "midi": 35,
      "hit": false,
      "t": 246688.94249999875,
      "d": 97.12828125001397,
      "v": 110
    },
    {
      "midi": 35,
      "hit": false,
      "t": 246790.29374999876,
      "d": 97.12828125001397,
      "v": 110
    },
    {
      "midi": 35,
      "hit": false,
      "t": 246891.64499999877,
      "d": 198.47953124999185,
      "v": 110
    },
    {
      "midi": 65,
      "hit": false,
      "t": 246891.64499999894,
      "d": 198.47953124999185,
      "v": 110
    },
    {
      "midi": 39,
      "hit": false,
      "t": 247094.34749999875,
      "d": 97.12828125001397,
      "v": 110
    },
    {
      "midi": 66,
      "hit": false,
      "t": 247094.34749999893,
      "d": 401.1820312500058,
      "v": 110
    },
    {
      "midi": 39,
      "hit": false,
      "t": 247195.69874999876,
      "d": 97.12828125001397,
      "v": 110
    },
    {
      "midi": 39,
      "hit": false,
      "t": 247297.04999999877,
      "d": 198.47953124999185,
      "v": 110
    },
    {
      "midi": 42,
      "hit": false,
      "t": 247499.75249999875,
      "d": 97.12828125001397,
      "v": 110
    },
    {
      "midi": 68,
      "hit": false,
      "t": 247499.75249999893,
      "d": 198.47953124999185,
      "v": 110
    },
    {
      "midi": 42,
      "hit": false,
      "t": 247601.10374999876,
      "d": 97.12828125001397,
      "v": 110
    },
    {
      "midi": 42,
      "hit": false,
      "t": 247702.45499999876,
      "d": 198.47953124999185,
      "v": 110
    },
    {
      "midi": 66,
      "hit": false,
      "t": 247702.4549999989,
      "d": 743.242499999993,
      "v": 110
    },
    {
      "midi": 46,
      "hit": false,
      "t": 247905.15749999875,
      "d": 97.12828125001397,
      "v": 110
    },
    {
      "midi": 46,
      "hit": false,
      "t": 248006.50874999876,
      "d": 97.12828125001397,
      "v": 110
    },
    {
      "midi": 47,
      "hit": false,
      "t": 248107.85999999876,
      "d": 198.47953124999185,
      "v": 110
    },
    {
      "midi": 47,
      "hit": false,
      "t": 248310.56249999875,
      "d": 97.12828125001397,
      "v": 110
    },
    {
      "midi": 47,
      "hit": false,
      "t": 248411.91374999876,
      "d": 97.12828125001397,
      "v": 110
    },
    {
      "midi": 46,
      "hit": false,
      "t": 248513.26499999876,
      "d": 198.47953124999185,
      "v": 110
    },
    {
      "midi": 66,
      "hit": false,
      "t": 248513.2649999989,
      "d": 337.8374999999942,
      "v": 110
    },
    {
      "midi": 42,
      "hit": false,
      "t": 248715.96749999875,
      "d": 97.12828125001397,
      "v": 110
    },
    {
      "midi": 42,
      "hit": false,
      "t": 248817.31874999875,
      "d": 97.12828125001397,
      "v": 110
    },
    {
      "midi": 42,
      "hit": false,
      "t": 248918.66999999876,
      "d": 198.47953124999185,
      "v": 110
    },
    {
      "midi": 68,
      "hit": false,
      "t": 248918.6699999989,
      "d": 337.8374999999942,
      "v": 110
    },
    {
      "midi": 39,
      "hit": false,
      "t": 249121.37249999875,
      "d": 97.12828125001397,
      "v": 110
    },
    {
      "midi": 39,
      "hit": false,
      "t": 249222.72374999875,
      "d": 97.12828125001397,
      "v": 110
    },
    {
      "midi": 35,
      "hit": false,
      "t": 249324.07499999876,
      "d": 198.47953124999185,
      "v": 110
    },
    {
      "midi": 71,
      "hit": false,
      "t": 249324.0749999989,
      "d": 337.8374999999942,
      "v": 110
    },
    {
      "midi": 37,
      "hit": false,
      "t": 249526.77749999875,
      "d": 97.12828125001397,
      "v": 110
    },
    {
      "midi": 37,
      "hit": false,
      "t": 249628.12874999875,
      "d": 97.12828125001397,
      "v": 110
    },
    {
      "midi": 39,
      "hit": false,
      "t": 249729.47999999876,
      "d": 198.47953124999185,
      "v": 110
    },
    {
      "midi": 70,
      "hit": false,
      "t": 249729.4799999989,
      "d": 337.8374999999942,
      "v": 110
    },
    {
      "midi": 39,
      "hit": false,
      "t": 249932.18249999874,
      "d": 97.12828125001397,
      "v": 110
    },
    {
      "midi": 39,
      "hit": false,
      "t": 250033.53374999875,
      "d": 97.12828125001397,
      "v": 110
    },
    {
      "midi": 39,
      "hit": false,
      "t": 250134.88499999876,
      "d": 198.47953124999185,
      "v": 110
    },
    {
      "midi": 68,
      "hit": false,
      "t": 250134.8849999989,
      "d": 198.47953124999185,
      "v": 110
    },
    {
      "midi": 41,
      "hit": false,
      "t": 250337.58749999874,
      "d": 97.12828125001397,
      "v": 110
    },
    {
      "midi": 70,
      "hit": false,
      "t": 250337.5874999989,
      "d": 401.1820312500058,
      "v": 110
    },
    {
      "midi": 41,
      "hit": false,
      "t": 250438.93874999875,
      "d": 97.12828125001397,
      "v": 110
    },
    {
      "midi": 41,
      "hit": false,
      "t": 250540.28999999876,
      "d": 198.47953124999185,
      "v": 110
    },
    {
      "midi": 42,
      "hit": false,
      "t": 250742.99249999874,
      "d": 97.12828125001397,
      "v": 110
    },
    {
      "midi": 73,
      "hit": false,
      "t": 250742.9924999989,
      "d": 198.47953124999185,
      "v": 110
    },
    {
      "midi": 42,
      "hit": false,
      "t": 250844.34374999875,
      "d": 97.12828125001397,
      "v": 110
    },
    {
      "midi": 42,
      "hit": false,
      "t": 250945.69499999876,
      "d": 198.47953124999185,
      "v": 110
    },
    {
      "midi": 70,
      "hit": false,
      "t": 250945.69499999887,
      "d": 743.242499999993,
      "v": 110
    },
    {
      "midi": 46,
      "hit": false,
      "t": 251148.39749999874,
      "d": 97.12828125001397,
      "v": 110
    },
    {
      "midi": 46,
      "hit": false,
      "t": 251249.74874999875,
      "d": 97.12828125001397,
      "v": 110
    },
    {
      "midi": 49,
      "hit": false,
      "t": 251351.09999999875,
      "d": 198.47953124999185,
      "v": 110
    },
    {
      "midi": 49,
      "hit": false,
      "t": 251553.80249999874,
      "d": 97.12828125001397,
      "v": 110
    },
    {
      "midi": 49,
      "hit": false,
      "t": 251655.15374999875,
      "d": 97.12828125001397,
      "v": 110
    },
    {
      "midi": 46,
      "hit": false,
      "t": 251756.50499999875,
      "d": 198.47953124999185,
      "v": 110
    },
    {
      "midi": 70,
      "hit": false,
      "t": 251756.50499999887,
      "d": 337.8374999999942,
      "v": 110
    },
    {
      "midi": 42,
      "hit": false,
      "t": 251959.20749999874,
      "d": 97.12828125001397,
      "v": 110
    },
    {
      "midi": 42,
      "hit": false,
      "t": 252060.55874999875,
      "d": 97.12828125001397,
      "v": 110
    },
    {
      "midi": 42,
      "hit": false,
      "t": 252161.90999999875,
      "d": 198.47953124999185,
      "v": 110
    },
    {
      "midi": 73,
      "hit": false,
      "t": 252161.90999999887,
      "d": 337.8374999999942,
      "v": 110
    },
    {
      "midi": 41,
      "hit": false,
      "t": 252364.61249999874,
      "d": 97.12828125001397,
      "v": 110
    },
    {
      "midi": 41,
      "hit": false,
      "t": 252465.96374999874,
      "d": 97.12828125001397,
      "v": 110
    },
    {
      "midi": 39,
      "hit": false,
      "t": 252567.31499999875,
      "d": 198.47953124999185,
      "v": 110
    },
    {
      "midi": 77,
      "hit": false,
      "t": 252567.31499999887,
      "d": 337.8374999999942,
      "v": 110
    },
    {
      "midi": 34,
      "hit": false,
      "t": 252770.01749999874,
      "d": 97.12828125001397,
      "v": 110
    },
    {
      "midi": 34,
      "hit": false,
      "t": 252871.36874999874,
      "d": 97.12828125001397,
      "v": 110
    },
    {
      "midi": 35,
      "hit": false,
      "t": 252972.71999999875,
      "d": 97.12828125001397,
      "v": 110
    },
    {
      "midi": 75,
      "hit": false,
      "t": 252972.71999999887,
      "d": 97.12828125001397,
      "v": 110
    },
    {
      "midi": 35,
      "hit": false,
      "t": 253074.07124999876,
      "d": 97.12828125001397,
      "v": 110
    },
    {
      "midi": 75,
      "hit": false,
      "t": 253074.07124999887,
      "d": 97.12828125001397,
      "v": 110
    },
    {
      "midi": 35,
      "hit": false,
      "t": 253175.42249999876,
      "d": 198.47953124999185,
      "v": 110
    },
    {
      "midi": 75,
      "hit": false,
      "t": 253175.42249999888,
      "d": 198.47953124999185,
      "v": 110
    },
    {
      "midi": 35,
      "hit": false,
      "t": 253580.82749999876,
      "d": 97.12828125001397,
      "v": 110
    },
    {
      "midi": 75,
      "hit": false,
      "t": 253580.82749999888,
      "d": 97.12828125001397,
      "v": 110
    },
    {
      "midi": 35,
      "hit": false,
      "t": 253682.17874999877,
      "d": 97.12828125001397,
      "v": 110
    },
    {
      "midi": 75,
      "hit": false,
      "t": 253682.1787499989,
      "d": 97.12828125001397,
      "v": 110
    },
    {
      "midi": 35,
      "hit": false,
      "t": 253783.52999999878,
      "d": 337.8374999999942,
      "v": 110
    },
    {
      "midi": 75,
      "hit": false,
      "t": 253783.5299999989,
      "d": 337.8374999999942,
      "v": 110
    },
    {
      "midi": 35,
      "hit": false,
      "t": 254188.93499999878,
      "d": 97.12828125001397,
      "v": 110
    },
    {
      "midi": 75,
      "hit": false,
      "t": 254188.9349999989,
      "d": 97.12828125001397,
      "v": 110
    },
    {
      "midi": 35,
      "hit": false,
      "t": 254290.28624999878,
      "d": 97.12828125001397,
      "v": 110
    },
    {
      "midi": 75,
      "hit": false,
      "t": 254290.2862499989,
      "d": 97.12828125001397,
      "v": 110
    },
    {
      "midi": 35,
      "hit": false,
      "t": 254391.6374999988,
      "d": 198.47953124999185,
      "v": 110
    },
    {
      "midi": 75,
      "hit": false,
      "t": 254391.6374999989,
      "d": 198.47953124999185,
      "v": 110
    },
    {
      "midi": 35,
      "hit": false,
      "t": 254594.33999999877,
      "d": 97.12828125001397,
      "v": 110
    },
    {
      "midi": 75,
      "hit": false,
      "t": 254594.3399999989,
      "d": 97.12828125001397,
      "v": 110
    },
    {
      "midi": 35,
      "hit": false,
      "t": 254695.69124999878,
      "d": 97.12828125001397,
      "v": 110
    },
    {
      "midi": 75,
      "hit": false,
      "t": 254695.6912499989,
      "d": 97.12828125001397,
      "v": 110
    },
    {
      "midi": 35,
      "hit": false,
      "t": 254797.0424999988,
      "d": 198.47953124999185,
      "v": 110
    },
    {
      "midi": 75,
      "hit": false,
      "t": 254797.0424999989,
      "d": 198.47953124999185,
      "v": 110
    },
    {
      "midi": 35,
      "hit": false,
      "t": 255202.4474999988,
      "d": 97.12828125001397,
      "v": 110
    },
    {
      "midi": 75,
      "hit": false,
      "t": 255202.4474999989,
      "d": 97.12828125001397,
      "v": 110
    },
    {
      "midi": 35,
      "hit": false,
      "t": 255303.7987499988,
      "d": 97.12828125001397,
      "v": 110
    },
    {
      "midi": 75,
      "hit": false,
      "t": 255303.7987499989,
      "d": 97.12828125001397,
      "v": 110
    },
    {
      "midi": 35,
      "hit": false,
      "t": 255405.1499999988,
      "d": 337.8374999999942,
      "v": 110
    },
    {
      "midi": 75,
      "hit": false,
      "t": 255405.14999999892,
      "d": 337.8374999999942,
      "v": 110
    },
    {
      "midi": 34,
      "hit": false,
      "t": 256215.9599999988,
      "d": 97.12828125001397,
      "v": 110
    },
    {
      "midi": 68,
      "hit": false,
      "t": 256215.95999999892,
      "d": 97.12828125001397,
      "v": 110
    },
    {
      "midi": 34,
      "hit": false,
      "t": 256317.3112499988,
      "d": 97.12828125001397,
      "v": 110
    },
    {
      "midi": 68,
      "hit": false,
      "t": 256317.31124999892,
      "d": 97.12828125001397,
      "v": 110
    },
    {
      "midi": 34,
      "hit": false,
      "t": 256418.6624999988,
      "d": 198.47953124999185,
      "v": 110
    },
    {
      "midi": 68,
      "hit": false,
      "t": 256418.66249999893,
      "d": 198.47953124999185,
      "v": 110
    },
    {
      "midi": 34,
      "hit": false,
      "t": 256824.0674999988,
      "d": 97.12828125001397,
      "v": 110
    },
    {
      "midi": 68,
      "hit": false,
      "t": 256824.06749999893,
      "d": 97.12828125001397,
      "v": 110
    },
    {
      "midi": 34,
      "hit": false,
      "t": 256925.41874999882,
      "d": 97.12828125001397,
      "v": 110
    },
    {
      "midi": 68,
      "hit": false,
      "t": 256925.41874999893,
      "d": 97.12828125001397,
      "v": 110
    },
    {
      "midi": 34,
      "hit": false,
      "t": 257026.76999999883,
      "d": 337.8374999999942,
      "v": 110
    },
    {
      "midi": 68,
      "hit": false,
      "t": 257026.76999999894,
      "d": 337.8374999999942,
      "v": 110
    },
    {
      "midi": 34,
      "hit": false,
      "t": 257432.17499999882,
      "d": 97.12828125001397,
      "v": 110
    },
    {
      "midi": 68,
      "hit": false,
      "t": 257432.17499999894,
      "d": 97.12828125001397,
      "v": 110
    },
    {
      "midi": 34,
      "hit": false,
      "t": 257533.52624999883,
      "d": 97.12828125001397,
      "v": 110
    },
    {
      "midi": 68,
      "hit": false,
      "t": 257533.52624999895,
      "d": 97.12828125001397,
      "v": 110
    },
    {
      "midi": 34,
      "hit": false,
      "t": 257634.87749999884,
      "d": 198.47953124999185,
      "v": 110
    },
    {
      "midi": 68,
      "hit": false,
      "t": 257634.87749999895,
      "d": 198.47953124999185,
      "v": 110
    },
    {
      "midi": 34,
      "hit": false,
      "t": 257837.57999999882,
      "d": 97.12828125001397,
      "v": 110
    },
    {
      "midi": 68,
      "hit": false,
      "t": 257837.57999999894,
      "d": 97.12828125001397,
      "v": 110
    },
    {
      "midi": 34,
      "hit": false,
      "t": 257938.93124999883,
      "d": 97.12828125001397,
      "v": 110
    },
    {
      "midi": 68,
      "hit": false,
      "t": 257938.93124999895,
      "d": 97.12828125001397,
      "v": 110
    },
    {
      "midi": 34,
      "hit": false,
      "t": 258040.28249999884,
      "d": 198.47953124999185,
      "v": 110
    },
    {
      "midi": 68,
      "hit": false,
      "t": 258040.28249999895,
      "d": 198.47953124999185,
      "v": 110
    },
    {
      "midi": 34,
      "hit": false,
      "t": 258445.68749999884,
      "d": 97.12828125001397,
      "v": 110
    },
    {
      "midi": 68,
      "hit": false,
      "t": 258445.68749999895,
      "d": 97.12828125001397,
      "v": 110
    },
    {
      "midi": 34,
      "hit": false,
      "t": 258547.03874999884,
      "d": 97.12828125001397,
      "v": 110
    },
    {
      "midi": 68,
      "hit": false,
      "t": 258547.03874999896,
      "d": 97.12828125001397,
      "v": 110
    },
    {
      "midi": 34,
      "hit": false,
      "t": 258648.38999999885,
      "d": 337.8374999999942,
      "v": 110
    },
    {
      "midi": 68,
      "hit": false,
      "t": 258648.38999999897,
      "d": 337.8374999999942,
      "v": 110
    }
  ]
}