{
  "jsonPath": "Rock/Country Rock/Andy Gibb/i-just-wanna-be-your-everything.json",
  "path": "Rock\\Country Rock\\Andy Gibb\\I Just Wanna Be Your Everything.mid",
  "name": "I Just Wanna Be Your Everything",
  "difficulty": "Advanced",
  "bpm": 102.0000510000255,
  "notes": [
    {
      "midi": 55,
      "hit": false,
      "t": 4705.88,
      "d": 1068.626916666667,
      "v": 61
    },
    {
      "midi": 60,
      "hit": false,
      "t": 4705.88,
      "d": 1068.626916666667,
      "v": 61
    },
    {
      "midi": 64,
      "hit": false,
      "t": 4705.88,
      "d": 1068.626916666667,
      "v": 61
    },
    {
      "midi": 52,
      "hit": false,
      "t": 5588.2325,
      "d": 294.1175000000003,
      "v": 54
    },
    {
      "midi": 55,
      "hit": false,
      "t": 5588.2325,
      "d": 294.1175000000003,
      "v": 54
    },
    {
      "midi": 60,
      "hit": false,
      "t": 5588.2325,
      "d": 294.1175000000003,
      "v": 54
    },
    {
      "midi": 57,
      "hit": false,
      "t": 6176.467500000001,
      "d": 637.2545833333334,
      "v": 72
    },
    {
      "midi": 59,
      "hit": false,
      "t": 6176.467500000001,
      "d": 637.2545833333334,
      "v": 72
    },
    {
      "midi": 62,
      "hit": false,
      "t": 6176.467500000001,
      "d": 637.2545833333334,
      "v": 72
    },
    {
      "midi": 66,
      "hit": false,
      "t": 6176.467500000001,
      "d": 637.2545833333334,
      "v": 72
    },
    {
      "midi": 57,
      "hit": false,
      "t": 6764.7025,
      "d": 294.1175000000003,
      "v": 54
    },
    {
      "midi": 59,
      "hit": false,
      "t": 6764.7025,
      "d": 294.1175000000003,
      "v": 54
    },
    {
      "midi": 62,
      "hit": false,
      "t": 6764.7025,
      "d": 294.1175000000003,
      "v": 54
    },
    {
      "midi": 66,
      "hit": false,
      "t": 6764.7025,
      "d": 294.1175000000003,
      "v": 54
    },
    {
      "midi": 57,
      "hit": false,
      "t": 7058.820000000001,
      "d": 205.88224999999966,
      "v": 65
    },
    {
      "midi": 59,
      "hit": false,
      "t": 7058.820000000001,
      "d": 205.88224999999966,
      "v": 65
    },
    {
      "midi": 62,
      "hit": false,
      "t": 7058.820000000001,
      "d": 205.88224999999966,
      "v": 65
    },
    {
      "midi": 66,
      "hit": false,
      "t": 7058.820000000001,
      "d": 205.88224999999966,
      "v": 65
    },
    {
      "midi": 57,
      "hit": false,
      "t": 7352.9375,
      "d": 166.66658333333362,
      "v": 61
    },
    {
      "midi": 59,
      "hit": false,
      "t": 7352.9375,
      "d": 166.66658333333362,
      "v": 61
    },
    {
      "midi": 62,
      "hit": false,
      "t": 7352.9375,
      "d": 166.66658333333362,
      "v": 61
    },
    {
      "midi": 66,
      "hit": false,
      "t": 7352.9375,
      "d": 166.66658333333362,
      "v": 61
    },
    {
      "midi": 57,
      "hit": false,
      "t": 7941.172500000001,
      "d": 926.4701249999998,
      "v": 61
    },
    {
      "midi": 59,
      "hit": false,
      "t": 7941.172500000001,
      "d": 926.4701249999998,
      "v": 61
    },
    {
      "midi": 62,
      "hit": false,
      "t": 7941.172500000001,
      "d": 926.4701249999998,
      "v": 61
    },
    {
      "midi": 66,
      "hit": false,
      "t": 7941.172500000001,
      "d": 926.4701249999998,
      "v": 61
    },
    {
      "midi": 57,
      "hit": false,
      "t": 7941.172500000001,
      "d": 1147.05825,
      "v": 54
    },
    {
      "midi": 61,
      "hit": false,
      "t": 7941.172500000001,
      "d": 1147.05825,
      "v": 54
    },
    {
      "midi": 62,
      "hit": false,
      "t": 7941.172500000001,
      "d": 1147.05825,
      "v": 54
    },
    {
      "midi": 66,
      "hit": false,
      "t": 7941.172500000001,
      "d": 1147.05825,
      "v": 54
    },
    {
      "midi": 57,
      "hit": false,
      "t": 9117.6425,
      "d": 294.1175000000003,
      "v": 52
    },
    {
      "midi": 59,
      "hit": false,
      "t": 9117.6425,
      "d": 294.1175000000003,
      "v": 52
    },
    {
      "midi": 62,
      "hit": false,
      "t": 9117.6425,
      "d": 294.1175000000003,
      "v": 52
    },
    {
      "midi": 66,
      "hit": false,
      "t": 9117.6425,
      "d": 294.1175000000003,
      "v": 52
    },
    {
      "midi": 61,
      "hit": false,
      "t": 9411.76,
      "d": 882.3525000000009,
      "v": 34
    },
    {
      "midi": 64,
      "hit": false,
      "t": 9411.76,
      "d": 882.3525000000009,
      "v": 34
    },
    {
      "midi": 68,
      "hit": false,
      "t": 9411.76,
      "d": 882.3525000000009,
      "v": 34
    },
    {
      "midi": 71,
      "hit": false,
      "t": 9411.76,
      "d": 882.3525000000009,
      "v": 34
    },
    {
      "midi": 61,
      "hit": false,
      "t": 9705.8775,
      "d": 225.49008333333404,
      "v": 61
    },
    {
      "midi": 64,
      "hit": false,
      "t": 9705.8775,
      "d": 225.49008333333404,
      "v": 61
    },
    {
      "midi": 68,
      "hit": false,
      "t": 9705.8775,
      "d": 225.49008333333404,
      "v": 61
    },
    {
      "midi": 71,
      "hit": false,
      "t": 9705.8775,
      "d": 225.49008333333404,
      "v": 61
    },
    {
      "midi": 45,
      "hit": false,
      "t": 10294.112500000001,
      "d": 343.13708333333307,
      "v": 51
    },
    {
      "midi": 61,
      "hit": false,
      "t": 10294.112500000001,
      "d": 294.1175000000003,
      "v": 44
    },
    {
      "midi": 64,
      "hit": false,
      "t": 10294.112500000001,
      "d": 294.1175000000003,
      "v": 44
    },
    {
      "midi": 71,
      "hit": false,
      "t": 10294.112500000001,
      "d": 294.1175000000003,
      "v": 44
    },
    {
      "midi": 56,
      "hit": false,
      "t": 10294.112500000001,
      "d": 2352.9400000000023,
      "v": 44
    },
    {
      "midi": 61,
      "hit": false,
      "t": 10588.230000000001,
      "d": 343.13708333333307,
      "v": 60
    },
    {
      "midi": 64,
      "hit": false,
      "t": 10588.230000000001,
      "d": 343.13708333333307,
      "v": 60
    },
    {
      "midi": 68,
      "hit": false,
      "t": 10588.230000000001,
      "d": 343.13708333333307,
      "v": 60
    },
    {
      "midi": 71,
      "hit": false,
      "t": 10588.230000000001,
      "d": 343.13708333333307,
      "v": 60
    },
    {
      "midi": 61,
      "hit": false,
      "t": 11176.465000000002,
      "d": 186.2744166666671,
      "v": 61
    },
    {
      "midi": 64,
      "hit": false,
      "t": 11176.465000000002,
      "d": 186.2744166666671,
      "v": 61
    },
    {
      "midi": 68,
      "hit": false,
      "t": 11176.465000000002,
      "d": 186.2744166666671,
      "v": 61
    },
    {
      "midi": 71,
      "hit": false,
      "t": 11176.465000000002,
      "d": 186.2744166666671,
      "v": 61
    },
    {
      "midi": 61,
      "hit": false,
      "t": 11470.582500000002,
      "d": 294.1175000000003,
      "v": 57
    },
    {
      "midi": 64,
      "hit": false,
      "t": 11470.582500000002,
      "d": 294.1175000000003,
      "v": 57
    },
    {
      "midi": 68,
      "hit": false,
      "t": 11470.582500000002,
      "d": 294.1175000000003,
      "v": 57
    },
    {
      "midi": 71,
      "hit": false,
      "t": 11470.582500000002,
      "d": 294.1175000000003,
      "v": 57
    },
    {
      "midi": 57,
      "hit": false,
      "t": 11764.700000000003,
      "d": 205.88225000000057,
      "v": 65
    },
    {
      "midi": 59,
      "hit": false,
      "t": 11764.700000000003,
      "d": 205.88225000000057,
      "v": 65
    },
    {
      "midi": 62,
      "hit": false,
      "t": 11764.700000000003,
      "d": 205.88225000000057,
      "v": 65
    },
    {
      "midi": 66,
      "hit": false,
      "t": 11764.700000000003,
      "d": 205.88225000000057,
      "v": 65
    },
    {
      "midi": 57,
      "hit": false,
      "t": 11764.700000000003,
      "d": 1696.0775833333337,
      "v": 47
    },
    {
      "midi": 62,
      "hit": false,
      "t": 11764.700000000003,
      "d": 1696.0775833333337,
      "v": 47
    },
    {
      "midi": 66,
      "hit": false,
      "t": 11764.700000000003,
      "d": 1696.0775833333337,
      "v": 47
    },
    {
      "midi": 71,
      "hit": false,
      "t": 11764.700000000003,
      "d": 1696.0775833333337,
      "v": 47
    },
    {
      "midi": 57,
      "hit": false,
      "t": 12058.817500000003,
      "d": 166.66658333333362,
      "v": 61
    },
    {
      "midi": 59,
      "hit": false,
      "t": 12058.817500000003,
      "d": 166.66658333333362,
      "v": 61
    },
    {
      "midi": 62,
      "hit": false,
      "t": 12058.817500000003,
      "d": 166.66658333333362,
      "v": 61
    },
    {
      "midi": 66,
      "hit": false,
      "t": 12058.817500000003,
      "d": 166.66658333333362,
      "v": 61
    },
    {
      "midi": 57,
      "hit": false,
      "t": 12647.052500000003,
      "d": 926.4701249999998,
      "v": 61
    },
    {
      "midi": 59,
      "hit": false,
      "t": 12647.052500000003,
      "d": 926.4701249999998,
      "v": 61
    },
    {
      "midi": 62,
      "hit": false,
      "t": 12647.052500000003,
      "d": 926.4701249999998,
      "v": 61
    },
    {
      "midi": 66,
      "hit": false,
      "t": 12647.052500000003,
      "d": 926.4701249999998,
      "v": 61
    },
    {
      "midi": 57,
      "hit": false,
      "t": 13529.405000000002,
      "d": 588.2350000000006,
      "v": 54
    },
    {
      "midi": 59,
      "hit": false,
      "t": 13529.405000000002,
      "d": 588.2350000000006,
      "v": 54
    },
    {
      "midi": 62,
      "hit": false,
      "t": 13529.405000000002,
      "d": 588.2350000000006,
      "v": 54
    },
    {
      "midi": 66,
      "hit": false,
      "t": 13529.405000000002,
      "d": 588.2350000000006,
      "v": 54
    },
    {
      "midi": 61,
      "hit": false,
      "t": 14117.640000000003,
      "d": 1504.9012083333328,
      "v": 64
    },
    {
      "midi": 64,
      "hit": false,
      "t": 14117.640000000003,
      "d": 1504.9012083333328,
      "v": 64
    },
    {
      "midi": 69,
      "hit": false,
      "t": 14117.640000000003,
      "d": 1504.9012083333328,
      "v": 64
    },
    {
      "midi": 61,
      "hit": false,
      "t": 14117.640000000003,
      "d": 294.1175000000003,
      "v": 41
    },
    {
      "midi": 64,
      "hit": false,
      "t": 14117.640000000003,
      "d": 294.1175000000003,
      "v": 41
    },
    {
      "midi": 66,
      "hit": false,
      "t": 14117.640000000003,
      "d": 294.1175000000003,
      "v": 41
    },
    {
      "midi": 69,
      "hit": false,
      "t": 14117.640000000003,
      "d": 294.1175000000003,
      "v": 41
    },
    {
      "midi": 61,
      "hit": false,
      "t": 14999.992500000004,
      "d": 593.1369583333326,
      "v": 54
    },
    {
      "midi": 64,
      "hit": false,
      "t": 14999.992500000004,
      "d": 593.1369583333326,
      "v": 54
    },
    {
      "midi": 66,
      "hit": false,
      "t": 14999.992500000004,
      "d": 593.1369583333326,
      "v": 54
    },
    {
      "midi": 69,
      "hit": false,
      "t": 14999.992500000004,
      "d": 593.1369583333326,
      "v": 54
    },
    {
      "midi": 62,
      "hit": false,
      "t": 15294.110000000002,
      "d": 294.1175000000003,
      "v": 55
    },
    {
      "midi": 66,
      "hit": false,
      "t": 15588.227500000003,
      "d": 34.313708333333125,
      "v": 52
    },
    {
      "midi": 61,
      "hit": false,
      "t": 15593.129458333337,
      "d": 877.4505416666652,
      "v": 54
    },
    {
      "midi": 64,
      "hit": false,
      "t": 15593.129458333337,
      "d": 877.4505416666652,
      "v": 54
    },
    {
      "midi": 66,
      "hit": false,
      "t": 15593.129458333337,
      "d": 877.4505416666652,
      "v": 54
    },
    {
      "midi": 69,
      "hit": false,
      "t": 15593.129458333337,
      "d": 877.4505416666652,
      "v": 54
    },
    {
      "midi": 69,
      "hit": false,
      "t": 15882.345000000003,
      "d": 289.21554166666647,
      "v": 60
    },
    {
      "midi": 76,
      "hit": false,
      "t": 16176.462500000003,
      "d": 102.94112499999937,
      "v": 76
    },
    {
      "midi": 57,
      "hit": false,
      "t": 16470.58,
      "d": 1068.626916666668,
      "v": 61
    },
    {
      "midi": 61,
      "hit": false,
      "t": 16470.58,
      "d": 1068.626916666668,
      "v": 61
    },
    {
      "midi": 64,
      "hit": false,
      "t": 16470.58,
      "d": 1068.626916666668,
      "v": 61
    },
    {
      "midi": 61,
      "hit": false,
      "t": 16470.58,
      "d": 274.509666666665,
      "v": 38
    },
    {
      "midi": 69,
      "hit": false,
      "t": 16470.58,
      "d": 274.509666666665,
      "v": 38
    },
    {
      "midi": 76,
      "hit": false,
      "t": 16470.58,
      "d": 274.509666666665,
      "v": 38
    },
    {
      "midi": 57,
      "hit": false,
      "t": 16764.6975,
      "d": 563.7252083333333,
      "v": 45
    },
    {
      "midi": 61,
      "hit": false,
      "t": 16764.6975,
      "d": 563.7252083333333,
      "v": 45
    },
    {
      "midi": 64,
      "hit": false,
      "t": 16764.6975,
      "d": 563.7252083333333,
      "v": 45
    },
    {
      "midi": 61,
      "hit": false,
      "t": 17352.9325,
      "d": 294.1175000000003,
      "v": 48
    },
    {
      "midi": 69,
      "hit": false,
      "t": 17352.9325,
      "d": 2352.9400000000023,
      "v": 48
    },
    {
      "midi": 76,
      "hit": false,
      "t": 17352.9325,
      "d": 2352.9400000000023,
      "v": 48
    },
    {
      "midi": 61,
      "hit": false,
      "t": 17647.050000000003,
      "d": 1068.626916666668,
      "v": 61
    },
    {
      "midi": 66,
      "hit": false,
      "t": 17647.050000000003,
      "d": 1068.626916666668,
      "v": 61
    },
    {
      "midi": 69,
      "hit": false,
      "t": 17647.050000000003,
      "d": 1068.626916666668,
      "v": 61
    },
    {
      "midi": 57,
      "hit": false,
      "t": 18529.4025,
      "d": 294.1175000000003,
      "v": 54
    },
    {
      "midi": 66,
      "hit": false,
      "t": 18529.4025,
      "d": 294.1175000000003,
      "v": 54
    },
    {
      "midi": 73,
      "hit": false,
      "t": 18529.4025,
      "d": 294.1175000000003,
      "v": 54
    },
    {
      "midi": 61,
      "hit": false,
      "t": 18823.52,
      "d": 1176.4700000000012,
      "v": 39
    },
    {
      "midi": 57,
      "hit": false,
      "t": 19117.6375,
      "d": 9.803916666667646,
      "v": 50
    },
    {
      "midi": 59,
      "hit": false,
      "t": 19117.6375,
      "d": 9.803916666667646,
      "v": 50
    },
    {
      "midi": 62,
      "hit": false,
      "t": 19117.6375,
      "d": 9.803916666667646,
      "v": 50
    },
    {
      "midi": 66,
      "hit": false,
      "t": 19117.6375,
      "d": 9.803916666667646,
      "v": 50
    },
    {
      "midi": 57,
      "hit": false,
      "t": 19117.637500000004,
      "d": 225.49008333333404,
      "v": 61
    },
    {
      "midi": 59,
      "hit": false,
      "t": 19117.637500000004,
      "d": 225.49008333333404,
      "v": 61
    },
    {
      "midi": 62,
      "hit": false,
      "t": 19117.637500000004,
      "d": 225.49008333333404,
      "v": 61
    },
    {
      "midi": 66,
      "hit": false,
      "t": 19117.637500000004,
      "d": 225.49008333333404,
      "v": 61
    },
    {
      "midi": 57,
      "hit": false,
      "t": 19705.8725,
      "d": 279.41162500000064,
      "v": 53
    },
    {
      "midi": 59,
      "hit": false,
      "t": 19705.8725,
      "d": 279.41162500000064,
      "v": 53
    },
    {
      "midi": 62,
      "hit": false,
      "t": 19705.8725,
      "d": 279.41162500000064,
      "v": 53
    },
    {
      "midi": 66,
      "hit": false,
      "t": 19705.8725,
      "d": 279.41162500000064,
      "v": 53
    },
    {
      "midi": 47,
      "hit": false,
      "t": 19705.872500000005,
      "d": 343.1370833333349,
      "v": 51
    },
    {
      "midi": 57,
      "hit": false,
      "t": 19999.99,
      "d": 294.1175000000003,
      "v": 48
    },
    {
      "midi": 62,
      "hit": false,
      "t": 19999.99,
      "d": 294.1175000000003,
      "v": 48
    },
    {
      "midi": 66,
      "hit": false,
      "t": 19999.99,
      "d": 294.1175000000003,
      "v": 48
    },
    {
      "midi": 61,
      "hit": false,
      "t": 19999.99,
      "d": 2352.9400000000023,
      "v": 48
    },
    {
      "midi": 57,
      "hit": false,
      "t": 19999.990000000005,
      "d": 343.1370833333349,
      "v": 60
    },
    {
      "midi": 59,
      "hit": false,
      "t": 19999.990000000005,
      "d": 343.1370833333349,
      "v": 60
    },
    {
      "midi": 62,
      "hit": false,
      "t": 19999.990000000005,
      "d": 343.1370833333349,
      "v": 60
    },
    {
      "midi": 66,
      "hit": false,
      "t": 19999.990000000005,
      "d": 343.1370833333349,
      "v": 60
    },
    {
      "midi": 57,
      "hit": false,
      "t": 20588.225000000006,
      "d": 186.2744166666671,
      "v": 61
    },
    {
      "midi": 59,
      "hit": false,
      "t": 20588.225000000006,
      "d": 186.2744166666671,
      "v": 61
    },
    {
      "midi": 62,
      "hit": false,
      "t": 20588.225000000006,
      "d": 186.2744166666671,
      "v": 61
    },
    {
      "midi": 66,
      "hit": false,
      "t": 20588.225000000006,
      "d": 186.2744166666671,
      "v": 61
    },
    {
      "midi": 57,
      "hit": false,
      "t": 20882.342500000002,
      "d": 294.1175000000003,
      "v": 54
    },
    {
      "midi": 59,
      "hit": false,
      "t": 20882.342500000002,
      "d": 294.1175000000003,
      "v": 54
    },
    {
      "midi": 62,
      "hit": false,
      "t": 20882.342500000002,
      "d": 294.1175000000003,
      "v": 54
    },
    {
      "midi": 66,
      "hit": false,
      "t": 20882.342500000002,
      "d": 294.1175000000003,
      "v": 54
    },
    {
      "midi": 59,
      "hit": false,
      "t": 21176.460000000003,
      "d": 882.3525000000009,
      "v": 34
    },
    {
      "midi": 62,
      "hit": false,
      "t": 21176.460000000003,
      "d": 882.3525000000009,
      "v": 34
    },
    {
      "midi": 66,
      "hit": false,
      "t": 21176.460000000003,
      "d": 882.3525000000009,
      "v": 34
    },
    {
      "midi": 68,
      "hit": false,
      "t": 21176.460000000003,
      "d": 882.3525000000009,
      "v": 34
    },
    {
      "midi": 59,
      "hit": false,
      "t": 21176.460000000006,
      "d": 205.88224999999875,
      "v": 65
    },
    {
      "midi": 62,
      "hit": false,
      "t": 21176.460000000006,
      "d": 205.88224999999875,
      "v": 65
    },
    {
      "midi": 66,
      "hit": false,
      "t": 21176.460000000006,
      "d": 205.88224999999875,
      "v": 65
    },
    {
      "midi": 68,
      "hit": false,
      "t": 21176.460000000006,
      "d": 205.88224999999875,
      "v": 65
    },
    {
      "midi": 59,
      "hit": false,
      "t": 21470.577500000007,
      "d": 166.6665833333318,
      "v": 61
    },
    {
      "midi": 62,
      "hit": false,
      "t": 21470.577500000007,
      "d": 166.6665833333318,
      "v": 61
    },
    {
      "midi": 66,
      "hit": false,
      "t": 21470.577500000007,
      "d": 166.6665833333318,
      "v": 61
    },
    {
      "midi": 68,
      "hit": false,
      "t": 21470.577500000007,
      "d": 166.6665833333318,
      "v": 61
    },
    {
      "midi": 59,
      "hit": false,
      "t": 22058.812500000004,
      "d": 926.4701249999998,
      "v": 61
    },
    {
      "midi": 62,
      "hit": false,
      "t": 22058.812500000004,
      "d": 926.4701249999998,
      "v": 61
    },
    {
      "midi": 66,
      "hit": false,
      "t": 22058.812500000004,
      "d": 926.4701249999998,
      "v": 61
    },
    {
      "midi": 68,
      "hit": false,
      "t": 22058.812500000004,
      "d": 926.4701249999998,
      "v": 61
    },
    {
      "midi": 62,
      "hit": false,
      "t": 22058.812500000004,
      "d": 294.1175000000003,
      "v": 44
    },
    {
      "midi": 66,
      "hit": false,
      "t": 22058.812500000004,
      "d": 294.1175000000003,
      "v": 44
    },
    {
      "midi": 71,
      "hit": false,
      "t": 22058.812500000004,
      "d": 1470.5875000000015,
      "v": 44
    },
    {
      "midi": 56,
      "hit": false,
      "t": 22058.812500000004,
      "d": 2352.9400000000023,
      "v": 44
    },
    {
      "midi": 59,
      "hit": false,
      "t": 23235.282500000005,
      "d": 294.1175000000003,
      "v": 57
    },
    {
      "midi": 62,
      "hit": false,
      "t": 23235.282500000005,
      "d": 294.1175000000003,
      "v": 57
    },
    {
      "midi": 66,
      "hit": false,
      "t": 23235.282500000005,
      "d": 294.1175000000003,
      "v": 57
    },
    {
      "midi": 68,
      "hit": false,
      "t": 23235.282500000005,
      "d": 294.1175000000003,
      "v": 57
    },
    {
      "midi": 57,
      "hit": false,
      "t": 23529.400000000005,
      "d": 2249.998875000001,
      "v": 67
    },
    {
      "midi": 59,
      "hit": false,
      "t": 23529.400000000005,
      "d": 2249.998875000001,
      "v": 67
    },
    {
      "midi": 62,
      "hit": false,
      "t": 23529.400000000005,
      "d": 2249.998875000001,
      "v": 67
    },
    {
      "midi": 66,
      "hit": false,
      "t": 23529.400000000005,
      "d": 2249.998875000001,
      "v": 67
    },
    {
      "midi": 57,
      "hit": false,
      "t": 23529.400000000005,
      "d": 294.1175000000003,
      "v": 41
    },
    {
      "midi": 62,
      "hit": false,
      "t": 23529.400000000005,
      "d": 294.1175000000003,
      "v": 41
    },
    {
      "midi": 66,
      "hit": false,
      "t": 23529.400000000005,
      "d": 294.1175000000003,
      "v": 41
    },
    {
      "midi": 57,
      "hit": false,
      "t": 24411.752500000006,
      "d": 593.1369583333326,
      "v": 54
    },
    {
      "midi": 59,
      "hit": false,
      "t": 24411.752500000006,
      "d": 593.1369583333326,
      "v": 54
    },
    {
      "midi": 62,
      "hit": false,
      "t": 24411.752500000006,
      "d": 593.1369583333326,
      "v": 54
    },
    {
      "midi": 66,
      "hit": false,
      "t": 24411.752500000006,
      "d": 593.1369583333326,
      "v": 54
    },
    {
      "midi": 57,
      "hit": false,
      "t": 25004.88945833334,
      "d": 877.4505416666652,
      "v": 54
    },
    {
      "midi": 62,
      "hit": false,
      "t": 25004.88945833334,
      "d": 877.4505416666652,
      "v": 54
    },
    {
      "midi": 66,
      "hit": false,
      "t": 25004.88945833334,
      "d": 877.4505416666652,
      "v": 54
    },
    {
      "midi": 71,
      "hit": false,
      "t": 25004.88945833334,
      "d": 877.4505416666652,
      "v": 54
    },
    {
      "midi": 57,
      "hit": false,
      "t": 25882.340000000004,
      "d": 274.509666666665,
      "v": 38
    },
    {
      "midi": 62,
      "hit": false,
      "t": 25882.340000000004,
      "d": 274.509666666665,
      "v": 38
    },
    {
      "midi": 66,
      "hit": false,
      "t": 25882.340000000004,
      "d": 274.509666666665,
      "v": 38
    },
    {
      "midi": 71,
      "hit": false,
      "t": 25882.340000000004,
      "d": 274.509666666665,
      "v": 38
    },
    {
      "midi": 57,
      "hit": false,
      "t": 25882.340000000007,
      "d": 2249.998875000001,
      "v": 67
    },
    {
      "midi": 59,
      "hit": false,
      "t": 25882.340000000007,
      "d": 2249.998875000001,
      "v": 67
    },
    {
      "midi": 62,
      "hit": false,
      "t": 25882.340000000007,
      "d": 2249.998875000001,
      "v": 67
    },
    {
      "midi": 66,
      "hit": false,
      "t": 25882.340000000007,
      "d": 2249.998875000001,
      "v": 67
    },
    {
      "midi": 57,
      "hit": false,
      "t": 26176.4575,
      "d": 563.7252083333333,
      "v": 45
    },
    {
      "midi": 59,
      "hit": false,
      "t": 26176.4575,
      "d": 563.7252083333333,
      "v": 45
    },
    {
      "midi": 62,
      "hit": false,
      "t": 26176.4575,
      "d": 563.7252083333333,
      "v": 45
    },
    {
      "midi": 66,
      "hit": false,
      "t": 26176.4575,
      "d": 563.7252083333333,
      "v": 45
    },
    {
      "midi": 57,
      "hit": false,
      "t": 26764.6925,
      "d": 588.2350000000006,
      "v": 48
    },
    {
      "midi": 62,
      "hit": false,
      "t": 26764.6925,
      "d": 588.2350000000006,
      "v": 48
    },
    {
      "midi": 66,
      "hit": false,
      "t": 26764.6925,
      "d": 588.2350000000006,
      "v": 48
    },
    {
      "midi": 57,
      "hit": false,
      "t": 27941.162500000002,
      "d": 14.70587499999965,
      "v": 54
    },
    {
      "midi": 62,
      "hit": false,
      "t": 27941.162500000002,
      "d": 14.70587499999965,
      "v": 54
    },
    {
      "midi": 66,
      "hit": false,
      "t": 27941.162500000002,
      "d": 14.70587499999965,
      "v": 54
    },
    {
      "midi": 71,
      "hit": false,
      "t": 27941.162500000002,
      "d": 14.70587499999965,
      "v": 54
    },
    {
      "midi": 68,
      "hit": false,
      "t": 28235.280000000002,
      "d": 274.509666666665,
      "v": 38
    },
    {
      "midi": 71,
      "hit": false,
      "t": 28235.280000000002,
      "d": 274.509666666665,
      "v": 38
    },
    {
      "midi": 76,
      "hit": false,
      "t": 28235.280000000002,
      "d": 882.3524999999972,
      "v": 38
    },
    {
      "midi": 61,
      "hit": false,
      "t": 28235.28000000001,
      "d": 205.88224999999875,
      "v": 65
    },
    {
      "midi": 64,
      "hit": false,
      "t": 28235.28000000001,
      "d": 205.88224999999875,
      "v": 65
    },
    {
      "midi": 68,
      "hit": false,
      "t": 28235.28000000001,
      "d": 205.88224999999875,
      "v": 65
    },
    {
      "midi": 71,
      "hit": false,
      "t": 28235.28000000001,
      "d": 205.88224999999875,
      "v": 65
    },
    {
      "midi": 61,
      "hit": false,
      "t": 28529.3975,
      "d": 563.7252083333333,
      "v": 45
    },
    {
      "midi": 64,
      "hit": false,
      "t": 28529.3975,
      "d": 563.7252083333333,
      "v": 45
    },
    {
      "midi": 68,
      "hit": false,
      "t": 28529.3975,
      "d": 563.7252083333333,
      "v": 45
    },
    {
      "midi": 71,
      "hit": false,
      "t": 28529.3975,
      "d": 563.7252083333333,
      "v": 45
    },
    {
      "midi": 61,
      "hit": false,
      "t": 28529.39750000001,
      "d": 166.6665833333318,
      "v": 61
    },
    {
      "midi": 64,
      "hit": false,
      "t": 28529.39750000001,
      "d": 166.6665833333318,
      "v": 61
    },
    {
      "midi": 68,
      "hit": false,
      "t": 28529.39750000001,
      "d": 166.6665833333318,
      "v": 61
    },
    {
      "midi": 71,
      "hit": false,
      "t": 28529.39750000001,
      "d": 166.6665833333318,
      "v": 61
    },
    {
      "midi": 61,
      "hit": false,
      "t": 29117.6325,
      "d": 588.2350000000006,
      "v": 48
    },
    {
      "midi": 68,
      "hit": false,
      "t": 29117.6325,
      "d": 588.2350000000006,
      "v": 48
    },
    {
      "midi": 71,
      "hit": false,
      "t": 29117.6325,
      "d": 588.2350000000006,
      "v": 48
    },
    {
      "midi": 61,
      "hit": false,
      "t": 29117.632500000007,
      "d": 926.4701249999998,
      "v": 61
    },
    {
      "midi": 64,
      "hit": false,
      "t": 29117.632500000007,
      "d": 926.4701249999998,
      "v": 61
    },
    {
      "midi": 68,
      "hit": false,
      "t": 29117.632500000007,
      "d": 926.4701249999998,
      "v": 61
    },
    {
      "midi": 71,
      "hit": false,
      "t": 29117.632500000007,
      "d": 926.4701249999998,
      "v": 61
    },
    {
      "midi": 61,
      "hit": false,
      "t": 30294.1025,
      "d": 14.70587499999965,
      "v": 54
    },
    {
      "midi": 68,
      "hit": false,
      "t": 30294.1025,
      "d": 14.70587499999965,
      "v": 54
    },
    {
      "midi": 71,
      "hit": false,
      "t": 30294.1025,
      "d": 14.70587499999965,
      "v": 54
    },
    {
      "midi": 76,
      "hit": false,
      "t": 30294.1025,
      "d": 14.70587499999965,
      "v": 54
    },
    {
      "midi": 73,
      "hit": false,
      "t": 30588.22,
      "d": 1696.0775833333319,
      "v": 47
    },
    {
      "midi": 78,
      "hit": false,
      "t": 30588.22,
      "d": 1696.0775833333319,
      "v": 47
    },
    {
      "midi": 69,
      "hit": false,
      "t": 30588.22,
      "d": 2352.939999999995,
      "v": 47
    },
    {
      "midi": 57,
      "hit": false,
      "t": 30588.22000000001,
      "d": 2249.9988749999975,
      "v": 67
    },
    {
      "midi": 59,
      "hit": false,
      "t": 30588.22000000001,
      "d": 2249.9988749999975,
      "v": 67
    },
    {
      "midi": 62,
      "hit": false,
      "t": 30588.22000000001,
      "d": 2249.9988749999975,
      "v": 67
    },
    {
      "midi": 66,
      "hit": false,
      "t": 30588.22000000001,
      "d": 2249.9988749999975,
      "v": 67
    },
    {
      "midi": 59,
      "hit": false,
      "t": 32352.925,
      "d": 588.234999999997,
      "v": 54
    },
    {
      "midi": 62,
      "hit": false,
      "t": 32352.925,
      "d": 588.234999999997,
      "v": 54
    },
    {
      "midi": 66,
      "hit": false,
      "t": 32352.925,
      "d": 1470.5874999999978,
      "v": 54
    },
    {
      "midi": 62,
      "hit": false,
      "t": 32941.159999999996,
      "d": 294.1175000000003,
      "v": 37
    },
    {
      "midi": 61,
      "hit": false,
      "t": 32941.16,
      "d": 921.5681666666642,
      "v": 65
    },
    {
      "midi": 64,
      "hit": false,
      "t": 32941.16,
      "d": 921.5681666666642,
      "v": 65
    },
    {
      "midi": 66,
      "hit": false,
      "t": 32941.16,
      "d": 921.5681666666642,
      "v": 65
    },
    {
      "midi": 69,
      "hit": false,
      "t": 32941.16,
      "d": 921.5681666666642,
      "v": 65
    },
    {
      "midi": 69,
      "hit": false,
      "t": 33235.2775,
      "d": 588.2350000000006,
      "v": 46
    },
    {
      "midi": 69,
      "hit": false,
      "t": 33823.5125,
      "d": 1176.4700000000012,
      "v": 54
    },
    {
      "midi": 76,
      "hit": false,
      "t": 33823.5125,
      "d": 1176.4700000000012,
      "v": 54
    },
    {
      "midi": 50,
      "hit": false,
      "t": 33823.512500000004,
      "d": 328.43120833333523,
      "v": 60
    },
    {
      "midi": 61,
      "hit": false,
      "t": 34117.630000000005,
      "d": 397.0586250000051,
      "v": 64
    },
    {
      "midi": 64,
      "hit": false,
      "t": 34117.630000000005,
      "d": 397.0586250000051,
      "v": 64
    },
    {
      "midi": 66,
      "hit": false,
      "t": 34117.630000000005,
      "d": 397.0586250000051,
      "v": 64
    },
    {
      "midi": 69,
      "hit": false,
      "t": 34117.630000000005,
      "d": 397.0586250000051,
      "v": 64
    },
    {
      "midi": 57,
      "hit": false,
      "t": 34411.7475,
      "d": 44.11762499999895,
      "v": 58
    },
    {
      "midi": 61,
      "hit": false,
      "t": 34411.7475,
      "d": 44.11762499999895,
      "v": 58
    },
    {
      "midi": 64,
      "hit": false,
      "t": 34411.7475,
      "d": 44.11762499999895,
      "v": 58
    },
    {
      "midi": 66,
      "hit": false,
      "t": 34411.7475,
      "d": 44.11762499999895,
      "v": 58
    },
    {
      "midi": 61,
      "hit": false,
      "t": 34705.86500000001,
      "d": 200.98029166666674,
      "v": 76
    },
    {
      "midi": 64,
      "hit": false,
      "t": 34705.86500000001,
      "d": 200.98029166666674,
      "v": 76
    },
    {
      "midi": 66,
      "hit": false,
      "t": 34705.86500000001,
      "d": 200.98029166666674,
      "v": 76
    },
    {
      "midi": 69,
      "hit": false,
      "t": 34705.86500000001,
      "d": 200.98029166666674,
      "v": 76
    },
    {
      "midi": 69,
      "hit": false,
      "t": 34999.9825,
      "d": 1470.5875000000015,
      "v": 52
    },
    {
      "midi": 76,
      "hit": false,
      "t": 34999.9825,
      "d": 1470.5875000000015,
      "v": 52
    },
    {
      "midi": 57,
      "hit": false,
      "t": 35294.1,
      "d": 274.509666666665,
      "v": 52
    },
    {
      "midi": 57,
      "hit": false,
      "t": 35294.10000000001,
      "d": 1068.626916666668,
      "v": 61
    },
    {
      "midi": 61,
      "hit": false,
      "t": 35294.10000000001,
      "d": 1068.626916666668,
      "v": 61
    },
    {
      "midi": 64,
      "hit": false,
      "t": 35294.10000000001,
      "d": 1068.626916666668,
      "v": 61
    },
    {
      "midi": 57,
      "hit": false,
      "t": 35588.2175,
      "d": 524.5095416666663,
      "v": 36
    },
    {
      "midi": 61,
      "hit": false,
      "t": 35588.2175,
      "d": 524.5095416666663,
      "v": 36
    },
    {
      "midi": 64,
      "hit": false,
      "t": 35588.2175,
      "d": 524.5095416666663,
      "v": 36
    },
    {
      "midi": 57,
      "hit": false,
      "t": 36176.4525,
      "d": 294.1175000000003,
      "v": 52
    },
    {
      "midi": 61,
      "hit": false,
      "t": 36470.57,
      "d": 294.1175000000003,
      "v": 54
    },
    {
      "midi": 57,
      "hit": false,
      "t": 36470.570000000014,
      "d": 1068.626916666668,
      "v": 61
    },
    {
      "midi": 61,
      "hit": false,
      "t": 36470.570000000014,
      "d": 1068.626916666668,
      "v": 61
    },
    {
      "midi": 66,
      "hit": false,
      "t": 36470.570000000014,
      "d": 1068.626916666668,
      "v": 61
    },
    {
      "midi": 57,
      "hit": false,
      "t": 36764.6875,
      "d": 544.1173750000016,
      "v": 43
    },
    {
      "midi": 66,
      "hit": false,
      "t": 36764.6875,
      "d": 544.1173750000016,
      "v": 43
    },
    {
      "midi": 73,
      "hit": false,
      "t": 36764.6875,
      "d": 544.1173750000016,
      "v": 43
    },
    {
      "midi": 57,
      "hit": false,
      "t": 37352.9225,
      "d": 294.1175000000003,
      "v": 51
    },
    {
      "midi": 66,
      "hit": false,
      "t": 37352.9225,
      "d": 294.1175000000003,
      "v": 51
    },
    {
      "midi": 61,
      "hit": false,
      "t": 37352.9225,
      "d": 2352.9400000000023,
      "v": 51
    },
    {
      "midi": 57,
      "hit": false,
      "t": 37647.040000000015,
      "d": 205.8822500000024,
      "v": 65
    },
    {
      "midi": 59,
      "hit": false,
      "t": 37647.040000000015,
      "d": 205.8822500000024,
      "v": 65
    },
    {
      "midi": 62,
      "hit": false,
      "t": 37647.040000000015,
      "d": 205.8822500000024,
      "v": 65
    },
    {
      "midi": 66,
      "hit": false,
      "t": 37647.040000000015,
      "d": 205.8822500000024,
      "v": 65
    },
    {
      "midi": 57,
      "hit": false,
      "t": 37941.157500000016,
      "d": 166.6665833333318,
      "v": 61
    },
    {
      "midi": 59,
      "hit": false,
      "t": 37941.157500000016,
      "d": 166.6665833333318,
      "v": 61
    },
    {
      "midi": 62,
      "hit": false,
      "t": 37941.157500000016,
      "d": 166.6665833333318,
      "v": 61
    },
    {
      "midi": 66,
      "hit": false,
      "t": 37941.157500000016,
      "d": 166.6665833333318,
      "v": 61
    },
    {
      "midi": 57,
      "hit": false,
      "t": 38529.3925,
      "d": 1470.5875000000015,
      "v": 54
    },
    {
      "midi": 59,
      "hit": false,
      "t": 38529.3925,
      "d": 1470.5875000000015,
      "v": 54
    },
    {
      "midi": 66,
      "hit": false,
      "t": 38529.3925,
      "d": 1470.5875000000015,
      "v": 54
    },
    {
      "midi": 57,
      "hit": false,
      "t": 38529.392500000016,
      "d": 926.4701249999998,
      "v": 61
    },
    {
      "midi": 59,
      "hit": false,
      "t": 38529.392500000016,
      "d": 926.4701249999998,
      "v": 61
    },
    {
      "midi": 62,
      "hit": false,
      "t": 38529.392500000016,
      "d": 926.4701249999998,
      "v": 61
    },
    {
      "midi": 66,
      "hit": false,
      "t": 38529.392500000016,
      "d": 926.4701249999998,
      "v": 61
    },
    {
      "midi": 59,
      "hit": false,
      "t": 39999.98,
      "d": 294.1175000000003,
      "v": 54
    },
    {
      "midi": 59,
      "hit": false,
      "t": 40294.0975,
      "d": 544.1173750000016,
      "v": 43
    },
    {
      "midi": 62,
      "hit": false,
      "t": 40294.0975,
      "d": 544.1173750000016,
      "v": 43
    },
    {
      "midi": 66,
      "hit": false,
      "t": 40294.0975,
      "d": 544.1173750000016,
      "v": 43
    },
    {
      "midi": 59,
      "hit": false,
      "t": 40294.09750000002,
      "d": 225.4900833333304,
      "v": 61
    },
    {
      "midi": 62,
      "hit": false,
      "t": 40294.09750000002,
      "d": 225.4900833333304,
      "v": 61
    },
    {
      "midi": 66,
      "hit": false,
      "t": 40294.09750000002,
      "d": 225.4900833333304,
      "v": 61
    },
    {
      "midi": 68,
      "hit": false,
      "t": 40294.09750000002,
      "d": 225.4900833333304,
      "v": 61
    },
    {
      "midi": 52,
      "hit": false,
      "t": 40882.33250000002,
      "d": 343.1370833333349,
      "v": 51
    },
    {
      "midi": 59,
      "hit": false,
      "t": 41176.45000000002,
      "d": 343.1370833333349,
      "v": 60
    },
    {
      "midi": 62,
      "hit": false,
      "t": 41176.45000000002,
      "d": 343.1370833333349,
      "v": 60
    },
    {
      "midi": 66,
      "hit": false,
      "t": 41176.45000000002,
      "d": 343.1370833333349,
      "v": 60
    },
    {
      "midi": 68,
      "hit": false,
      "t": 41176.45000000002,
      "d": 343.1370833333349,
      "v": 60
    },
    {
      "midi": 56,
      "hit": false,
      "t": 41470.567500000005,
      "d": 34.313708333334944,
      "v": 50
    },
    {
      "midi": 59,
      "hit": false,
      "t": 41470.567500000005,
      "d": 34.313708333334944,
      "v": 50
    },
    {
      "midi": 62,
      "hit": false,
      "t": 41470.567500000005,
      "d": 34.313708333334944,
      "v": 50
    },
    {
      "midi": 66,
      "hit": false,
      "t": 41470.567500000005,
      "d": 34.313708333334944,
      "v": 50
    },
    {
      "midi": 59,
      "hit": false,
      "t": 41764.68500000002,
      "d": 186.2744166666671,
      "v": 61
    },
    {
      "midi": 62,
      "hit": false,
      "t": 41764.68500000002,
      "d": 186.2744166666671,
      "v": 61
    },
    {
      "midi": 66,
      "hit": false,
      "t": 41764.68500000002,
      "d": 186.2744166666671,
      "v": 61
    },
    {
      "midi": 68,
      "hit": false,
      "t": 41764.68500000002,
      "d": 186.2744166666671,
      "v": 61
    },
    {
      "midi": 59,
      "hit": false,
      "t": 42058.802500000005,
      "d": 19.607833333335293,
      "v": 56
    },
    {
      "midi": 62,
      "hit": false,
      "t": 42058.802500000005,
      "d": 19.607833333335293,
      "v": 56
    },
    {
      "midi": 66,
      "hit": false,
      "t": 42058.802500000005,
      "d": 19.607833333335293,
      "v": 56
    },
    {
      "midi": 68,
      "hit": false,
      "t": 42058.802500000005,
      "d": 19.607833333335293,
      "v": 56
    },
    {
      "midi": 54,
      "hit": false,
      "t": 42352.920000000006,
      "d": 274.509666666665,
      "v": 38
    },
    {
      "midi": 64,
      "hit": false,
      "t": 42352.920000000006,
      "d": 274.509666666665,
      "v": 38
    },
    {
      "midi": 69,
      "hit": false,
      "t": 42352.920000000006,
      "d": 274.509666666665,
      "v": 38
    },
    {
      "midi": 61,
      "hit": false,
      "t": 42352.92000000002,
      "d": 205.8822500000024,
      "v": 65
    },
    {
      "midi": 64,
      "hit": false,
      "t": 42352.92000000002,
      "d": 205.8822500000024,
      "v": 65
    },
    {
      "midi": 66,
      "hit": false,
      "t": 42352.92000000002,
      "d": 205.8822500000024,
      "v": 65
    },
    {
      "midi": 69,
      "hit": false,
      "t": 42352.92000000002,
      "d": 205.8822500000024,
      "v": 65
    },
    {
      "midi": 61,
      "hit": false,
      "t": 42647.037500000006,
      "d": 563.7252083333369,
      "v": 45
    },
    {
      "midi": 64,
      "hit": false,
      "t": 42647.037500000006,
      "d": 563.7252083333369,
      "v": 45
    },
    {
      "midi": 66,
      "hit": false,
      "t": 42647.037500000006,
      "d": 563.7252083333369,
      "v": 45
    },
    {
      "midi": 69,
      "hit": false,
      "t": 42647.037500000006,
      "d": 563.7252083333369,
      "v": 45
    },
    {
      "midi": 61,
      "hit": false,
      "t": 42647.03750000002,
      "d": 166.6665833333318,
      "v": 61
    },
    {
      "midi": 64,
      "hit": false,
      "t": 42647.03750000002,
      "d": 166.6665833333318,
      "v": 61
    },
    {
      "midi": 66,
      "hit": false,
      "t": 42647.03750000002,
      "d": 166.6665833333318,
      "v": 61
    },
    {
      "midi": 69,
      "hit": false,
      "t": 42647.03750000002,
      "d": 166.6665833333318,
      "v": 61
    },
    {
      "midi": 61,
      "hit": false,
      "t": 43235.27250000001,
      "d": 588.2350000000006,
      "v": 48
    },
    {
      "midi": 64,
      "hit": false,
      "t": 43235.27250000001,
      "d": 588.2350000000006,
      "v": 48
    },
    {
      "midi": 69,
      "hit": false,
      "t": 43235.27250000001,
      "d": 588.2350000000006,
      "v": 48
    },
    {
      "midi": 61,
      "hit": false,
      "t": 43235.27250000002,
      "d": 926.4701249999998,
      "v": 61
    },
    {
      "midi": 64,
      "hit": false,
      "t": 43235.27250000002,
      "d": 926.4701249999998,
      "v": 61
    },
    {
      "midi": 66,
      "hit": false,
      "t": 43235.27250000002,
      "d": 926.4701249999998,
      "v": 61
    },
    {
      "midi": 69,
      "hit": false,
      "t": 43235.27250000002,
      "d": 926.4701249999998,
      "v": 61
    },
    {
      "midi": 54,
      "hit": false,
      "t": 44411.74250000001,
      "d": 14.70587499999965,
      "v": 54
    },
    {
      "midi": 61,
      "hit": false,
      "t": 44411.74250000001,
      "d": 14.70587499999965,
      "v": 54
    },
    {
      "midi": 64,
      "hit": false,
      "t": 44411.74250000001,
      "d": 14.70587499999965,
      "v": 54
    },
    {
      "midi": 69,
      "hit": false,
      "t": 44411.74250000001,
      "d": 14.70587499999965,
      "v": 54
    },
    {
      "midi": 61,
      "hit": false,
      "t": 44705.86000000002,
      "d": 1068.626916666668,
      "v": 61
    },
    {
      "midi": 64,
      "hit": false,
      "t": 44705.86000000002,
      "d": 1068.626916666668,
      "v": 61
    },
    {
      "midi": 66,
      "hit": false,
      "t": 44705.86000000002,
      "d": 1068.626916666668,
      "v": 61
    },
    {
      "midi": 69,
      "hit": false,
      "t": 44705.86000000002,
      "d": 1068.626916666668,
      "v": 61
    },
    {
      "midi": 61,
      "hit": false,
      "t": 45294.09500000001,
      "d": 588.2350000000006,
      "v": 68
    },
    {
      "midi": 64,
      "hit": false,
      "t": 45294.09500000001,
      "d": 588.2350000000006,
      "v": 68
    },
    {
      "midi": 66,
      "hit": false,
      "t": 45294.09500000001,
      "d": 588.2350000000006,
      "v": 68
    },
    {
      "midi": 69,
      "hit": false,
      "t": 45294.09500000001,
      "d": 588.2350000000006,
      "v": 68
    },
    {
      "midi": 59,
      "hit": false,
      "t": 45882.33000000001,
      "d": 294.1175000000003,
      "v": 54
    },
    {
      "midi": 59,
      "hit": false,
      "t": 45882.33000000002,
      "d": 1068.626916666668,
      "v": 61
    },
    {
      "midi": 62,
      "hit": false,
      "t": 45882.33000000002,
      "d": 1068.626916666668,
      "v": 61
    },
    {
      "midi": 64,
      "hit": false,
      "t": 45882.33000000002,
      "d": 1068.626916666668,
      "v": 61
    },
    {
      "midi": 68,
      "hit": false,
      "t": 45882.33000000002,
      "d": 1068.626916666668,
      "v": 61
    },
    {
      "midi": 59,
      "hit": false,
      "t": 46176.44750000001,
      "d": 882.3525000000009,
      "v": 48
    },
    {
      "midi": 66,
      "hit": false,
      "t": 46176.44750000001,
      "d": 882.3525000000009,
      "v": 48
    },
    {
      "midi": 62,
      "hit": false,
      "t": 46176.44750000001,
      "d": 2352.9400000000023,
      "v": 48
    },
    {
      "midi": 57,
      "hit": false,
      "t": 47058.80000000001,
      "d": 294.1175000000003,
      "v": 54
    },
    {
      "midi": 61,
      "hit": false,
      "t": 47058.800000000025,
      "d": 205.8822500000024,
      "v": 65
    },
    {
      "midi": 64,
      "hit": false,
      "t": 47058.800000000025,
      "d": 205.8822500000024,
      "v": 65
    },
    {
      "midi": 68,
      "hit": false,
      "t": 47058.800000000025,
      "d": 205.8822500000024,
      "v": 65
    },
    {
      "midi": 71,
      "hit": false,
      "t": 47058.800000000025,
      "d": 205.8822500000024,
      "v": 65
    },
    {
      "midi": 61,
      "hit": false,
      "t": 47352.91750000001,
      "d": 294.1175000000003,
      "v": 43
    },
    {
      "midi": 64,
      "hit": false,
      "t": 47352.91750000001,
      "d": 294.1175000000003,
      "v": 43
    },
    {
      "midi": 56,
      "hit": false,
      "t": 47352.91750000001,
      "d": 544.1173750000016,
      "v": 43
    },
    {
      "midi": 71,
      "hit": false,
      "t": 47352.91750000001,
      "d": 588.2350000000006,
      "v": 43
    },
    {
      "midi": 61,
      "hit": false,
      "t": 47352.917500000025,
      "d": 166.6665833333318,
      "v": 61
    },
    {
      "midi": 64,
      "hit": false,
      "t": 47352.917500000025,
      "d": 166.6665833333318,
      "v": 61
    },
    {
      "midi": 68,
      "hit": false,
      "t": 47352.917500000025,
      "d": 166.6665833333318,
      "v": 61
    },
    {
      "midi": 71,
      "hit": false,
      "t": 47352.917500000025,
      "d": 166.6665833333318,
      "v": 61
    },
    {
      "midi": 61,
      "hit": false,
      "t": 47941.152500000026,
      "d": 926.4701249999998,
      "v": 61
    },
    {
      "midi": 64,
      "hit": false,
      "t": 47941.152500000026,
      "d": 926.4701249999998,
      "v": 61
    },
    {
      "midi": 68,
      "hit": false,
      "t": 47941.152500000026,
      "d": 926.4701249999998,
      "v": 61
    },
    {
      "midi": 71,
      "hit": false,
      "t": 47941.152500000026,
      "d": 926.4701249999998,
      "v": 61
    },
    {
      "midi": 56,
      "hit": false,
      "t": 48529.38750000001,
      "d": 34.313708333334944,
      "v": 50
    },
    {
      "midi": 61,
      "hit": false,
      "t": 48529.38750000001,
      "d": 34.313708333334944,
      "v": 50
    },
    {
      "midi": 64,
      "hit": false,
      "t": 48529.38750000001,
      "d": 34.313708333334944,
      "v": 50
    },
    {
      "midi": 71,
      "hit": false,
      "t": 48529.38750000001,
      "d": 34.313708333334944,
      "v": 50
    },
    {
      "midi": 61,
      "hit": false,
      "t": 49117.62250000001,
      "d": 19.607833333335293,
      "v": 56
    },
    {
      "midi": 64,
      "hit": false,
      "t": 49117.62250000001,
      "d": 19.607833333335293,
      "v": 56
    },
    {
      "midi": 68,
      "hit": false,
      "t": 49117.62250000001,
      "d": 19.607833333335293,
      "v": 56
    },
    {
      "midi": 71,
      "hit": false,
      "t": 49117.62250000001,
      "d": 19.607833333335293,
      "v": 56
    },
    {
      "midi": 61,
      "hit": false,
      "t": 49411.74000000001,
      "d": 294.1175000000003,
      "v": 37
    },
    {
      "midi": 58,
      "hit": false,
      "t": 49411.74000000003,
      "d": 2249.9988749999975,
      "v": 67
    },
    {
      "midi": 61,
      "hit": false,
      "t": 49411.74000000003,
      "d": 2249.9988749999975,
      "v": 67
    },
    {
      "midi": 64,
      "hit": false,
      "t": 49411.74000000003,
      "d": 2249.9988749999975,
      "v": 67
    },
    {
      "midi": 66,
      "hit": false,
      "t": 49411.74000000003,
      "d": 2249.9988749999975,
      "v": 67
    },
    {
      "midi": 52,
      "hit": false,
      "t": 50294.09250000001,
      "d": 1176.4700000000012,
      "v": 54
    },
    {
      "midi": 55,
      "hit": false,
      "t": 50294.09250000001,
      "d": 1176.4700000000012,
      "v": 54
    },
    {
      "midi": 58,
      "hit": false,
      "t": 50294.09250000001,
      "d": 1176.4700000000012,
      "v": 54
    },
    {
      "midi": 62,
      "hit": false,
      "t": 50294.09250000001,
      "d": 1176.4700000000012,
      "v": 54
    },
    {
      "midi": 64,
      "hit": false,
      "t": 50882.327500000014,
      "d": 44.11762499999895,
      "v": 58
    },
    {
      "midi": 66,
      "hit": false,
      "t": 50882.327500000014,
      "d": 44.11762499999895,
      "v": 58
    },
    {
      "midi": 70,
      "hit": false,
      "t": 50882.327500000014,
      "d": 44.11762499999895,
      "v": 58
    },
    {
      "midi": 73,
      "hit": false,
      "t": 50882.327500000014,
      "d": 44.11762499999895,
      "v": 58
    },
    {
      "midi": 58,
      "hit": false,
      "t": 51470.562500000015,
      "d": 2352.9400000000023,
      "v": 52
    },
    {
      "midi": 57,
      "hit": false,
      "t": 51764.680000000015,
      "d": 882.3525000000009,
      "v": 34
    },
    {
      "midi": 59,
      "hit": false,
      "t": 51764.680000000015,
      "d": 882.3525000000009,
      "v": 34
    },
    {
      "midi": 62,
      "hit": false,
      "t": 51764.680000000015,
      "d": 882.3525000000009,
      "v": 34
    },
    {
      "midi": 66,
      "hit": false,
      "t": 51764.680000000015,
      "d": 882.3525000000009,
      "v": 34
    },
    {
      "midi": 57,
      "hit": false,
      "t": 51764.68000000002,
      "d": 205.8822500000024,
      "v": 65
    },
    {
      "midi": 59,
      "hit": false,
      "t": 51764.68000000002,
      "d": 205.8822500000024,
      "v": 65
    },
    {
      "midi": 62,
      "hit": false,
      "t": 51764.68000000002,
      "d": 205.8822500000024,
      "v": 65
    },
    {
      "midi": 66,
      "hit": false,
      "t": 51764.68000000002,
      "d": 205.8822500000024,
      "v": 65
    },
    {
      "midi": 57,
      "hit": false,
      "t": 52058.79750000002,
      "d": 166.6665833333318,
      "v": 61
    },
    {
      "midi": 59,
      "hit": false,
      "t": 52058.79750000002,
      "d": 166.6665833333318,
      "v": 61
    },
    {
      "midi": 62,
      "hit": false,
      "t": 52058.79750000002,
      "d": 166.6665833333318,
      "v": 61
    },
    {
      "midi": 66,
      "hit": false,
      "t": 52058.79750000002,
      "d": 166.6665833333318,
      "v": 61
    },
    {
      "midi": 57,
      "hit": false,
      "t": 52647.032500000016,
      "d": 294.1175000000003,
      "v": 44
    },
    {
      "midi": 62,
      "hit": false,
      "t": 52647.032500000016,
      "d": 294.1175000000003,
      "v": 44
    },
    {
      "midi": 66,
      "hit": false,
      "t": 52647.032500000016,
      "d": 294.1175000000003,
      "v": 44
    },
    {
      "midi": 61,
      "hit": false,
      "t": 52647.032500000016,
      "d": 2352.9400000000023,
      "v": 44
    },
    {
      "midi": 57,
      "hit": false,
      "t": 52647.03250000002,
      "d": 926.4701249999998,
      "v": 61
    },
    {
      "midi": 59,
      "hit": false,
      "t": 52647.03250000002,
      "d": 926.4701249999998,
      "v": 61
    },
    {
      "midi": 62,
      "hit": false,
      "t": 52647.03250000002,
      "d": 926.4701249999998,
      "v": 61
    },
    {
      "midi": 66,
      "hit": false,
      "t": 52647.03250000002,
      "d": 926.4701249999998,
      "v": 61
    },
    {
      "midi": 57,
      "hit": false,
      "t": 53823.50250000002,
      "d": 294.1175000000003,
      "v": 57
    },
    {
      "midi": 59,
      "hit": false,
      "t": 53823.50250000002,
      "d": 294.1175000000003,
      "v": 57
    },
    {
      "midi": 62,
      "hit": false,
      "t": 53823.50250000002,
      "d": 294.1175000000003,
      "v": 57
    },
    {
      "midi": 66,
      "hit": false,
      "t": 53823.50250000002,
      "d": 294.1175000000003,
      "v": 57
    },
    {
      "midi": 59,
      "hit": false,
      "t": 54117.62000000002,
      "d": 882.3525000000009,
      "v": 34
    },
    {
      "midi": 62,
      "hit": false,
      "t": 54117.62000000002,
      "d": 882.3525000000009,
      "v": 34
    },
    {
      "midi": 66,
      "hit": false,
      "t": 54117.62000000002,
      "d": 882.3525000000009,
      "v": 34
    },
    {
      "midi": 69,
      "hit": false,
      "t": 54117.62000000002,
      "d": 1176.4700000000012,
      "v": 34
    },
    {
      "midi": 59,
      "hit": false,
      "t": 54411.737500000025,
      "d": 637.2545833333352,
      "v": 72
    },
    {
      "midi": 62,
      "hit": false,
      "t": 54411.737500000025,
      "d": 637.2545833333352,
      "v": 72
    },
    {
      "midi": 66,
      "hit": false,
      "t": 54411.737500000025,
      "d": 637.2545833333352,
      "v": 72
    },
    {
      "midi": 69,
      "hit": false,
      "t": 54411.737500000025,
      "d": 637.2545833333352,
      "v": 72
    },
    {
      "midi": 62,
      "hit": false,
      "t": 54999.97250000002,
      "d": 294.1175000000003,
      "v": 44
    },
    {
      "midi": 66,
      "hit": false,
      "t": 54999.97250000002,
      "d": 294.1175000000003,
      "v": 44
    },
    {
      "midi": 57,
      "hit": false,
      "t": 54999.97250000002,
      "d": 2352.9400000000023,
      "v": 44
    },
    {
      "midi": 59,
      "hit": false,
      "t": 55588.207500000026,
      "d": 637.2545833333352,
      "v": 72
    },
    {
      "midi": 62,
      "hit": false,
      "t": 55588.207500000026,
      "d": 637.2545833333352,
      "v": 72
    },
    {
      "midi": 64,
      "hit": false,
      "t": 55588.207500000026,
      "d": 637.2545833333352,
      "v": 72
    },
    {
      "midi": 68,
      "hit": false,
      "t": 55588.207500000026,
      "d": 637.2545833333352,
      "v": 72
    },
    {
      "midi": 59,
      "hit": false,
      "t": 55882.32500000002,
      "d": 588.2350000000006,
      "v": 68
    },
    {
      "midi": 62,
      "hit": false,
      "t": 55882.32500000002,
      "d": 588.2350000000006,
      "v": 68
    },
    {
      "midi": 64,
      "hit": false,
      "t": 55882.32500000002,
      "d": 588.2350000000006,
      "v": 68
    },
    {
      "midi": 56,
      "hit": false,
      "t": 56470.56000000002,
      "d": 1176.4700000000012,
      "v": 39
    },
    {
      "midi": 59,
      "hit": false,
      "t": 56470.56000000002,
      "d": 1176.4700000000012,
      "v": 39
    },
    {
      "midi": 61,
      "hit": false,
      "t": 56470.56000000003,
      "d": 205.8822500000024,
      "v": 65
    },
    {
      "midi": 64,
      "hit": false,
      "t": 56470.56000000003,
      "d": 205.8822500000024,
      "v": 65
    },
    {
      "midi": 68,
      "hit": false,
      "t": 56470.56000000003,
      "d": 205.8822500000024,
      "v": 65
    },
    {
      "midi": 71,
      "hit": false,
      "t": 56470.56000000003,
      "d": 205.8822500000024,
      "v": 65
    },
    {
      "midi": 61,
      "hit": false,
      "t": 56764.67750000002,
      "d": 9.803916666664009,
      "v": 50
    },
    {
      "midi": 64,
      "hit": false,
      "t": 56764.67750000002,
      "d": 9.803916666664009,
      "v": 50
    },
    {
      "midi": 68,
      "hit": false,
      "t": 56764.67750000002,
      "d": 9.803916666664009,
      "v": 50
    },
    {
      "midi": 71,
      "hit": false,
      "t": 56764.67750000002,
      "d": 9.803916666664009,
      "v": 50
    },
    {
      "midi": 61,
      "hit": false,
      "t": 56764.67750000003,
      "d": 166.6665833333318,
      "v": 61
    },
    {
      "midi": 64,
      "hit": false,
      "t": 56764.67750000003,
      "d": 166.6665833333318,
      "v": 61
    },
    {
      "midi": 68,
      "hit": false,
      "t": 56764.67750000003,
      "d": 166.6665833333318,
      "v": 61
    },
    {
      "midi": 71,
      "hit": false,
      "t": 56764.67750000003,
      "d": 166.6665833333318,
      "v": 61
    },
    {
      "midi": 61,
      "hit": false,
      "t": 57352.91250000002,
      "d": 279.41162500000064,
      "v": 53
    },
    {
      "midi": 64,
      "hit": false,
      "t": 57352.91250000002,
      "d": 279.41162500000064,
      "v": 53
    },
    {
      "midi": 68,
      "hit": false,
      "t": 57352.91250000002,
      "d": 279.41162500000064,
      "v": 53
    },
    {
      "midi": 71,
      "hit": false,
      "t": 57352.91250000002,
      "d": 279.41162500000064,
      "v": 53
    },
    {
      "midi": 61,
      "hit": false,
      "t": 57352.91250000003,
      "d": 926.4701249999998,
      "v": 61
    },
    {
      "midi": 64,
      "hit": false,
      "t": 57352.91250000003,
      "d": 926.4701249999998,
      "v": 61
    },
    {
      "midi": 68,
      "hit": false,
      "t": 57352.91250000003,
      "d": 926.4701249999998,
      "v": 61
    },
    {
      "midi": 71,
      "hit": false,
      "t": 57352.91250000003,
      "d": 926.4701249999998,
      "v": 61
    },
    {
      "midi": 61,
      "hit": false,
      "t": 57647.03000000002,
      "d": 294.1175000000003,
      "v": 48
    },
    {
      "midi": 64,
      "hit": false,
      "t": 57647.03000000002,
      "d": 294.1175000000003,
      "v": 48
    },
    {
      "midi": 56,
      "hit": false,
      "t": 57647.03000000002,
      "d": 2352.9400000000023,
      "v": 48
    },
    {
      "midi": 59,
      "hit": false,
      "t": 57647.03000000002,
      "d": 2352.9400000000023,
      "v": 48
    },
    {
      "midi": 61,
      "hit": false,
      "t": 58529.38250000002,
      "d": 294.1175000000003,
      "v": 54
    },
    {
      "midi": 64,
      "hit": false,
      "t": 58529.38250000002,
      "d": 294.1175000000003,
      "v": 54
    },
    {
      "midi": 68,
      "hit": false,
      "t": 58529.38250000002,
      "d": 294.1175000000003,
      "v": 54
    },
    {
      "midi": 71,
      "hit": false,
      "t": 58529.38250000002,
      "d": 294.1175000000003,
      "v": 54
    },
    {
      "midi": 65,
      "hit": false,
      "t": 58823.50000000003,
      "d": 1504.9012083333364,
      "v": 64
    },
    {
      "midi": 61,
      "hit": false,
      "t": 59705.85250000002,
      "d": 1176.4700000000012,
      "v": 54
    },
    {
      "midi": 65,
      "hit": false,
      "t": 59705.85250000002,
      "d": 1470.5875000000015,
      "v": 54
    },
    {
      "midi": 69,
      "hit": false,
      "t": 59705.85250000002,
      "d": 1470.5875000000015,
      "v": 54
    },
    {
      "midi": 57,
      "hit": false,
      "t": 59705.85250000002,
      "d": 2352.9400000000023,
      "v": 54
    },
    {
      "midi": 57,
      "hit": false,
      "t": 59999.97000000003,
      "d": 294.1175000000003,
      "v": 55
    },
    {
      "midi": 61,
      "hit": false,
      "t": 60294.08750000003,
      "d": 34.313708333334944,
      "v": 52
    },
    {
      "midi": 65,
      "hit": false,
      "t": 60588.20500000003,
      "d": 289.21554166666465,
      "v": 60
    },
    {
      "midi": 69,
      "hit": false,
      "t": 60882.32250000003,
      "d": 102.94112499999756,
      "v": 76
    },
    {
      "midi": 62,
      "hit": false,
      "t": 61176.440000000024,
      "d": 274.509666666665,
      "v": 52
    },
    {
      "midi": 61,
      "hit": false,
      "t": 61470.557500000024,
      "d": 524.5095416666663,
      "v": 36
    },
    {
      "midi": 66,
      "hit": false,
      "t": 61470.557500000024,
      "d": 524.5095416666663,
      "v": 36
    },
    {
      "midi": 69,
      "hit": false,
      "t": 61470.557500000024,
      "d": 524.5095416666663,
      "v": 36
    },
    {
      "midi": 61,
      "hit": false,
      "t": 61470.55750000003,
      "d": 225.4900833333304,
      "v": 61
    },
    {
      "midi": 64,
      "hit": false,
      "t": 61470.55750000003,
      "d": 225.4900833333304,
      "v": 61
    },
    {
      "midi": 66,
      "hit": false,
      "t": 61470.55750000003,
      "d": 225.4900833333304,
      "v": 61
    },
    {
      "midi": 69,
      "hit": false,
      "t": 61470.55750000003,
      "d": 225.4900833333304,
      "v": 61
    },
    {
      "midi": 62,
      "hit": false,
      "t": 62058.792500000025,
      "d": 318.62729166666395,
      "v": 52
    },
    {
      "midi": 50,
      "hit": false,
      "t": 62058.79250000003,
      "d": 343.1370833333349,
      "v": 51
    },
    {
      "midi": 61,
      "hit": false,
      "t": 62352.910000000025,
      "d": 573.5291249999937,
      "v": 43
    },
    {
      "midi": 64,
      "hit": false,
      "t": 62352.910000000025,
      "d": 573.5291249999937,
      "v": 43
    },
    {
      "midi": 69,
      "hit": false,
      "t": 62352.910000000025,
      "d": 573.5291249999937,
      "v": 43
    },
    {
      "midi": 61,
      "hit": false,
      "t": 62352.91000000003,
      "d": 343.1370833333349,
      "v": 60
    },
    {
      "midi": 64,
      "hit": false,
      "t": 62352.91000000003,
      "d": 343.1370833333349,
      "v": 60
    },
    {
      "midi": 66,
      "hit": false,
      "t": 62352.91000000003,
      "d": 343.1370833333349,
      "v": 60
    },
    {
      "midi": 69,
      "hit": false,
      "t": 62352.91000000003,
      "d": 343.1370833333349,
      "v": 60
    },
    {
      "midi": 62,
      "hit": false,
      "t": 62941.14500000002,
      "d": 303.9214166666643,
      "v": 57
    },
    {
      "midi": 61,
      "hit": false,
      "t": 62941.14500000003,
      "d": 186.2744166666671,
      "v": 61
    },
    {
      "midi": 64,
      "hit": false,
      "t": 62941.14500000003,
      "d": 186.2744166666671,
      "v": 61
    },
    {
      "midi": 66,
      "hit": false,
      "t": 62941.14500000003,
      "d": 186.2744166666671,
      "v": 61
    },
    {
      "midi": 69,
      "hit": false,
      "t": 62941.14500000003,
      "d": 186.2744166666671,
      "v": 61
    },
    {
      "midi": 61,
      "hit": false,
      "t": 63245.06641666668,
      "d": 284.3135833333363,
      "v": 34
    },
    {
      "midi": 64,
      "hit": false,
      "t": 63245.06641666668,
      "d": 284.3135833333363,
      "v": 34
    },
    {
      "midi": 66,
      "hit": false,
      "t": 63245.06641666668,
      "d": 284.3135833333363,
      "v": 34
    },
    {
      "midi": 69,
      "hit": false,
      "t": 63245.06641666668,
      "d": 284.3135833333363,
      "v": 34
    },
    {
      "midi": 61,
      "hit": false,
      "t": 63529.38000000002,
      "d": 294.1175000000003,
      "v": 41
    },
    {
      "midi": 64,
      "hit": false,
      "t": 63529.38000000002,
      "d": 294.1175000000003,
      "v": 41
    },
    {
      "midi": 69,
      "hit": false,
      "t": 63529.38000000002,
      "d": 294.1175000000003,
      "v": 41
    },
    {
      "midi": 54,
      "hit": false,
      "t": 63529.38000000002,
      "d": 1176.4700000000012,
      "v": 41
    },
    {
      "midi": 61,
      "hit": false,
      "t": 63823.497500000034,
      "d": 637.2545833333352,
      "v": 72
    },
    {
      "midi": 64,
      "hit": false,
      "t": 63823.497500000034,
      "d": 637.2545833333352,
      "v": 72
    },
    {
      "midi": 66,
      "hit": false,
      "t": 63823.497500000034,
      "d": 637.2545833333352,
      "v": 72
    },
    {
      "midi": 69,
      "hit": false,
      "t": 63823.497500000034,
      "d": 637.2545833333352,
      "v": 72
    },
    {
      "midi": 61,
      "hit": false,
      "t": 64411.73250000002,
      "d": 294.1175000000003,
      "v": 54
    },
    {
      "midi": 64,
      "hit": false,
      "t": 64411.73250000002,
      "d": 294.1175000000003,
      "v": 54
    },
    {
      "midi": 66,
      "hit": false,
      "t": 64411.73250000002,
      "d": 294.1175000000003,
      "v": 54
    },
    {
      "midi": 69,
      "hit": false,
      "t": 64411.73250000002,
      "d": 294.1175000000003,
      "v": 54
    },
    {
      "midi": 62,
      "hit": false,
      "t": 64705.85000000002,
      "d": 1176.4700000000012,
      "v": 47
    },
    {
      "midi": 65,
      "hit": false,
      "t": 64705.85000000002,
      "d": 1176.4700000000012,
      "v": 47
    },
    {
      "midi": 72,
      "hit": false,
      "t": 64705.85000000002,
      "d": 1176.4700000000012,
      "v": 47
    },
    {
      "midi": 59,
      "hit": false,
      "t": 64999.967500000035,
      "d": 637.2545833333352,
      "v": 72
    },
    {
      "midi": 62,
      "hit": false,
      "t": 64999.967500000035,
      "d": 637.2545833333352,
      "v": 72
    },
    {
      "midi": 64,
      "hit": false,
      "t": 64999.967500000035,
      "d": 637.2545833333352,
      "v": 72
    },
    {
      "midi": 68,
      "hit": false,
      "t": 64999.967500000035,
      "d": 637.2545833333352,
      "v": 72
    },
    {
      "midi": 61,
      "hit": false,
      "t": 65882.32000000004,
      "d": 205.8822499999951,
      "v": 65
    },
    {
      "midi": 64,
      "hit": false,
      "t": 65882.32000000004,
      "d": 205.8822499999951,
      "v": 65
    },
    {
      "midi": 68,
      "hit": false,
      "t": 65882.32000000004,
      "d": 205.8822499999951,
      "v": 65
    },
    {
      "midi": 71,
      "hit": false,
      "t": 65882.32000000004,
      "d": 205.8822499999951,
      "v": 65
    },
    {
      "midi": 61,
      "hit": false,
      "t": 66176.43750000003,
      "d": 166.66658333333908,
      "v": 61
    },
    {
      "midi": 64,
      "hit": false,
      "t": 66176.43750000003,
      "d": 166.66658333333908,
      "v": 61
    },
    {
      "midi": 68,
      "hit": false,
      "t": 66176.43750000003,
      "d": 166.66658333333908,
      "v": 61
    },
    {
      "midi": 71,
      "hit": false,
      "t": 66176.43750000003,
      "d": 166.66658333333908,
      "v": 61
    },
    {
      "midi": 56,
      "hit": false,
      "t": 66764.67250000002,
      "d": 294.117499999993,
      "v": 54
    },
    {
      "midi": 61,
      "hit": false,
      "t": 66764.67250000002,
      "d": 1147.0582499999873,
      "v": 54
    },
    {
      "midi": 64,
      "hit": false,
      "t": 66764.67250000002,
      "d": 1147.0582499999873,
      "v": 54
    },
    {
      "midi": 59,
      "hit": false,
      "t": 66764.67250000002,
      "d": 2352.939999999973,
      "v": 54
    },
    {
      "midi": 61,
      "hit": false,
      "t": 66764.67250000003,
      "d": 926.4701250000071,
      "v": 61
    },
    {
      "midi": 64,
      "hit": false,
      "t": 66764.67250000003,
      "d": 926.4701250000071,
      "v": 61
    },
    {
      "midi": 68,
      "hit": false,
      "t": 66764.67250000003,
      "d": 926.4701250000071,
      "v": 61
    },
    {
      "midi": 71,
      "hit": false,
      "t": 66764.67250000003,
      "d": 926.4701250000071,
      "v": 61
    },
    {
      "midi": 61,
      "hit": false,
      "t": 67941.1425,
      "d": 294.117499999993,
      "v": 52
    },
    {
      "midi": 64,
      "hit": false,
      "t": 67941.1425,
      "d": 294.117499999993,
      "v": 52
    },
    {
      "midi": 68,
      "hit": false,
      "t": 67941.1425,
      "d": 2352.939999999988,
      "v": 52
    },
    {
      "midi": 71,
      "hit": false,
      "t": 67941.1425,
      "d": 2352.939999999988,
      "v": 52
    },
    {
      "midi": 61,
      "hit": false,
      "t": 68235.26,
      "d": 294.117499999993,
      "v": 54
    },
    {
      "midi": 54,
      "hit": false,
      "t": 68235.26000000004,
      "d": 2249.998875000005,
      "v": 67
    },
    {
      "midi": 58,
      "hit": false,
      "t": 68235.26000000004,
      "d": 2249.998875000005,
      "v": 67
    },
    {
      "midi": 61,
      "hit": false,
      "t": 68235.26000000004,
      "d": 2249.998875000005,
      "v": 67
    },
    {
      "midi": 54,
      "hit": false,
      "t": 68529.37749999999,
      "d": 1147.0582500000019,
      "v": 48
    },
    {
      "midi": 61,
      "hit": false,
      "t": 68529.37749999999,
      "d": 1147.0582500000019,
      "v": 48
    },
    {
      "midi": 58,
      "hit": false,
      "t": 68529.37749999999,
      "d": 2352.939999999988,
      "v": 48
    },
    {
      "midi": 70,
      "hit": false,
      "t": 69705.84749999999,
      "d": 269.60770833333663,
      "v": 38
    },
    {
      "midi": 61,
      "hit": false,
      "t": 69999.965,
      "d": 588.234999999986,
      "v": 42
    },
    {
      "midi": 66,
      "hit": false,
      "t": 69999.965,
      "d": 588.234999999986,
      "v": 42
    },
    {
      "midi": 70,
      "hit": false,
      "t": 69999.965,
      "d": 588.234999999986,
      "v": 42
    },
    {
      "midi": 57,
      "hit": false,
      "t": 70588.19999999998,
      "d": 294.117499999993,
      "v": 41
    },
    {
      "midi": 62,
      "hit": false,
      "t": 70588.19999999998,
      "d": 294.117499999993,
      "v": 41
    },
    {
      "midi": 66,
      "hit": false,
      "t": 70588.19999999998,
      "d": 294.117499999993,
      "v": 41
    },
    {
      "midi": 57,
      "hit": false,
      "t": 70588.20000000004,
      "d": 205.8822499999951,
      "v": 65
    },
    {
      "midi": 59,
      "hit": false,
      "t": 70588.20000000004,
      "d": 205.8822499999951,
      "v": 65
    },
    {
      "midi": 62,
      "hit": false,
      "t": 70588.20000000004,
      "d": 205.8822499999951,
      "v": 65
    },
    {
      "midi": 66,
      "hit": false,
      "t": 70588.20000000004,
      "d": 205.8822499999951,
      "v": 65
    },
    {
      "midi": 57,
      "hit": false,
      "t": 70882.31750000003,
      "d": 166.66658333333908,
      "v": 61
    },
    {
      "midi": 59,
      "hit": false,
      "t": 70882.31750000003,
      "d": 166.66658333333908,
      "v": 61
    },
    {
      "midi": 62,
      "hit": false,
      "t": 70882.31750000003,
      "d": 166.66658333333908,
      "v": 61
    },
    {
      "midi": 66,
      "hit": false,
      "t": 70882.31750000003,
      "d": 166.66658333333908,
      "v": 61
    },
    {
      "midi": 57,
      "hit": false,
      "t": 71470.55249999998,
      "d": 593.136958333329,
      "v": 54
    },
    {
      "midi": 59,
      "hit": false,
      "t": 71470.55249999998,
      "d": 593.136958333329,
      "v": 54
    },
    {
      "midi": 62,
      "hit": false,
      "t": 71470.55249999998,
      "d": 593.136958333329,
      "v": 54
    },
    {
      "midi": 66,
      "hit": false,
      "t": 71470.55249999998,
      "d": 593.136958333329,
      "v": 54
    },
    {
      "midi": 57,
      "hit": false,
      "t": 71470.55250000003,
      "d": 926.4701250000071,
      "v": 61
    },
    {
      "midi": 59,
      "hit": false,
      "t": 71470.55250000003,
      "d": 926.4701250000071,
      "v": 61
    },
    {
      "midi": 62,
      "hit": false,
      "t": 71470.55250000003,
      "d": 926.4701250000071,
      "v": 61
    },
    {
      "midi": 66,
      "hit": false,
      "t": 71470.55250000003,
      "d": 926.4701250000071,
      "v": 61
    },
    {
      "midi": 57,
      "hit": false,
      "t": 72063.6894583333,
      "d": 877.4505416666652,
      "v": 54
    },
    {
      "midi": 61,
      "hit": false,
      "t": 72063.6894583333,
      "d": 877.4505416666652,
      "v": 54
    },
    {
      "midi": 62,
      "hit": false,
      "t": 72063.6894583333,
      "d": 877.4505416666652,
      "v": 54
    },
    {
      "midi": 66,
      "hit": false,
      "t": 72063.6894583333,
      "d": 877.4505416666652,
      "v": 54
    },
    {
      "midi": 57,
      "hit": false,
      "t": 72941.13999999997,
      "d": 1176.4699999999866,
      "v": 39
    },
    {
      "midi": 73,
      "hit": false,
      "t": 72941.13999999997,
      "d": 1176.4699999999866,
      "v": 39
    },
    {
      "midi": 59,
      "hit": false,
      "t": 72941.14000000004,
      "d": 1068.6269166666607,
      "v": 61
    },
    {
      "midi": 62,
      "hit": false,
      "t": 72941.14000000004,
      "d": 1068.6269166666607,
      "v": 61
    },
    {
      "midi": 66,
      "hit": false,
      "t": 72941.14000000004,
      "d": 1068.6269166666607,
      "v": 61
    },
    {
      "midi": 69,
      "hit": false,
      "t": 72941.14000000004,
      "d": 1068.6269166666607,
      "v": 61
    },
    {
      "midi": 59,
      "hit": false,
      "t": 73235.25749999996,
      "d": 9.803916666671284,
      "v": 50
    },
    {
      "midi": 62,
      "hit": false,
      "t": 73235.25749999996,
      "d": 9.803916666671284,
      "v": 50
    },
    {
      "midi": 66,
      "hit": false,
      "t": 73235.25749999996,
      "d": 9.803916666671284,
      "v": 50
    },
    {
      "midi": 69,
      "hit": false,
      "t": 73235.25749999996,
      "d": 9.803916666671284,
      "v": 50
    },
    {
      "midi": 59,
      "hit": false,
      "t": 73823.49249999996,
      "d": 279.41162499999336,
      "v": 53
    },
    {
      "midi": 62,
      "hit": false,
      "t": 73823.49249999996,
      "d": 279.41162499999336,
      "v": 53
    },
    {
      "midi": 66,
      "hit": false,
      "t": 73823.49249999996,
      "d": 279.41162499999336,
      "v": 53
    },
    {
      "midi": 69,
      "hit": false,
      "t": 73823.49249999996,
      "d": 279.41162499999336,
      "v": 53
    },
    {
      "midi": 59,
      "hit": false,
      "t": 74117.60999999996,
      "d": 294.117499999993,
      "v": 54
    },
    {
      "midi": 60,
      "hit": false,
      "t": 74411.72749999995,
      "d": 882.3524999999936,
      "v": 48
    },
    {
      "midi": 62,
      "hit": false,
      "t": 74411.72749999995,
      "d": 882.3524999999936,
      "v": 48
    },
    {
      "midi": 65,
      "hit": false,
      "t": 74411.72749999995,
      "d": 882.3524999999936,
      "v": 48
    },
    {
      "midi": 56,
      "hit": false,
      "t": 74411.72749999995,
      "d": 2352.939999999988,
      "v": 48
    },
    {
      "midi": 59,
      "hit": false,
      "t": 74411.72750000004,
      "d": 637.2545833333279,
      "v": 72
    },
    {
      "midi": 62,
      "hit": false,
      "t": 74411.72750000004,
      "d": 637.2545833333279,
      "v": 72
    },
    {
      "midi": 64,
      "hit": false,
      "t": 74411.72750000004,
      "d": 637.2545833333279,
      "v": 72
    },
    {
      "midi": 68,
      "hit": false,
      "t": 74411.72750000004,
      "d": 637.2545833333279,
      "v": 72
    },
    {
      "midi": 57,
      "hit": false,
      "t": 75294.07999999994,
      "d": 1696.0775833333319,
      "v": 47
    },
    {
      "midi": 64,
      "hit": false,
      "t": 75294.07999999994,
      "d": 1696.0775833333319,
      "v": 47
    },
    {
      "midi": 69,
      "hit": false,
      "t": 75294.07999999994,
      "d": 1696.0775833333319,
      "v": 47
    },
    {
      "midi": 57,
      "hit": false,
      "t": 75294.08000000003,
      "d": 205.8822499999951,
      "v": 65
    },
    {
      "midi": 61,
      "hit": false,
      "t": 75294.08000000003,
      "d": 205.8822499999951,
      "v": 65
    },
    {
      "midi": 64,
      "hit": false,
      "t": 75294.08000000003,
      "d": 205.8822499999951,
      "v": 65
    },
    {
      "midi": 57,
      "hit": false,
      "t": 75588.19750000002,
      "d": 166.66658333333908,
      "v": 61
    },
    {
      "midi": 61,
      "hit": false,
      "t": 75588.19750000002,
      "d": 166.66658333333908,
      "v": 61
    },
    {
      "midi": 64,
      "hit": false,
      "t": 75588.19750000002,
      "d": 166.66658333333908,
      "v": 61
    },
    {
      "midi": 57,
      "hit": false,
      "t": 76176.43250000002,
      "d": 926.4701250000071,
      "v": 61
    },
    {
      "midi": 61,
      "hit": false,
      "t": 76176.43250000002,
      "d": 926.4701250000071,
      "v": 61
    },
    {
      "midi": 64,
      "hit": false,
      "t": 76176.43250000002,
      "d": 926.4701250000071,
      "v": 61
    },
    {
      "midi": 57,
      "hit": false,
      "t": 77058.78499999995,
      "d": 588.2350000000006,
      "v": 54
    },
    {
      "midi": 61,
      "hit": false,
      "t": 77058.78499999995,
      "d": 588.2350000000006,
      "v": 54
    },
    {
      "midi": 64,
      "hit": false,
      "t": 77058.78499999995,
      "d": 588.2350000000006,
      "v": 54
    },
    {
      "midi": 65,
      "hit": false,
      "t": 77647.02000000003,
      "d": 1504.9012083333218,
      "v": 64
    },
    {
      "midi": 61,
      "hit": false,
      "t": 78529.37249999994,
      "d": 882.3524999999936,
      "v": 54
    },
    {
      "midi": 57,
      "hit": false,
      "t": 78529.37249999994,
      "d": 1147.0582499999873,
      "v": 54
    },
    {
      "midi": 65,
      "hit": false,
      "t": 78529.37249999994,
      "d": 1147.0582499999873,
      "v": 54
    },
    {
      "midi": 69,
      "hit": false,
      "t": 78529.37249999994,
      "d": 1147.0582499999873,
      "v": 54
    },
    {
      "midi": 57,
      "hit": false,
      "t": 78823.49000000003,
      "d": 294.117499999993,
      "v": 55
    },
    {
      "midi": 61,
      "hit": false,
      "t": 79117.60750000003,
      "d": 34.31370833332767,
      "v": 52
    },
    {
      "midi": 65,
      "hit": false,
      "t": 79411.72500000002,
      "d": 289.21554166666465,
      "v": 60
    },
    {
      "midi": 57,
      "hit": false,
      "t": 79705.84249999993,
      "d": 294.117499999993,
      "v": 52
    },
    {
      "midi": 61,
      "hit": false,
      "t": 79705.84249999993,
      "d": 294.117499999993,
      "v": 52
    },
    {
      "midi": 65,
      "hit": false,
      "t": 79705.84249999993,
      "d": 294.117499999993,
      "v": 52
    },
    {
      "midi": 69,
      "hit": false,
      "t": 79705.84250000001,
      "d": 102.94112499999756,
      "v": 76
    },
    {
      "midi": 59,
      "hit": false,
      "t": 79999.95999999992,
      "d": 882.3524999999936,
      "v": 37
    },
    {
      "midi": 66,
      "hit": false,
      "t": 80294.07749999991,
      "d": 553.9212916666729,
      "v": 46
    },
    {
      "midi": 57,
      "hit": false,
      "t": 80294.07750000001,
      "d": 225.49008333333768,
      "v": 61
    },
    {
      "midi": 59,
      "hit": false,
      "t": 80294.07750000001,
      "d": 225.49008333333768,
      "v": 61
    },
    {
      "midi": 62,
      "hit": false,
      "t": 80294.07750000001,
      "d": 225.49008333333768,
      "v": 61
    },
    {
      "midi": 66,
      "hit": false,
      "t": 80294.07750000001,
      "d": 225.49008333333768,
      "v": 61
    },
    {
      "midi": 47,
      "hit": false,
      "t": 80882.31250000001,
      "d": 343.13708333332033,
      "v": 51
    },
    {
      "midi": 57,
      "hit": false,
      "t": 81176.43000000001,
      "d": 343.13708333332033,
      "v": 60
    },
    {
      "midi": 59,
      "hit": false,
      "t": 81176.43000000001,
      "d": 343.13708333332033,
      "v": 60
    },
    {
      "midi": 62,
      "hit": false,
      "t": 81176.43000000001,
      "d": 343.13708333332033,
      "v": 60
    },
    {
      "midi": 66,
      "hit": false,
      "t": 81176.43000000001,
      "d": 343.13708333332033,
      "v": 60
    },
    {
      "midi": 57,
      "hit": false,
      "t": 81470.54749999991,
      "d": 44.11762499999895,
      "v": 58
    },
    {
      "midi": 59,
      "hit": false,
      "t": 81470.54749999991,
      "d": 44.11762499999895,
      "v": 58
    },
    {
      "midi": 62,
      "hit": false,
      "t": 81470.54749999991,
      "d": 44.11762499999895,
      "v": 58
    },
    {
      "midi": 66,
      "hit": false,
      "t": 81470.54749999991,
      "d": 44.11762499999895,
      "v": 58
    },
    {
      "midi": 57,
      "hit": false,
      "t": 81764.665,
      "d": 186.2744166666671,
      "v": 61
    },
    {
      "midi": 59,
      "hit": false,
      "t": 81764.665,
      "d": 186.2744166666671,
      "v": 61
    },
    {
      "midi": 62,
      "hit": false,
      "t": 81764.665,
      "d": 186.2744166666671,
      "v": 61
    },
    {
      "midi": 66,
      "hit": false,
      "t": 81764.665,
      "d": 186.2744166666671,
      "v": 61
    },
    {
      "midi": 57,
      "hit": false,
      "t": 82058.78249999991,
      "d": 294.117499999993,
      "v": 52
    },
    {
      "midi": 62,
      "hit": false,
      "t": 82058.78249999991,
      "d": 294.117499999993,
      "v": 52
    },
    {
      "midi": 66,
      "hit": false,
      "t": 82058.78249999991,
      "d": 294.117499999993,
      "v": 52
    },
    {
      "midi": 59,
      "hit": false,
      "t": 82058.78249999991,
      "d": 588.234999999986,
      "v": 52
    },
    {
      "midi": 57,
      "hit": false,
      "t": 82352.8999999999,
      "d": 294.117499999993,
      "v": 44
    },
    {
      "midi": 62,
      "hit": false,
      "t": 82352.8999999999,
      "d": 294.117499999993,
      "v": 44
    },
    {
      "midi": 66,
      "hit": false,
      "t": 82352.8999999999,
      "d": 294.117499999993,
      "v": 44
    },
    {
      "midi": 57,
      "hit": false,
      "t": 82352.9,
      "d": 1068.6269166666607,
      "v": 61
    },
    {
      "midi": 59,
      "hit": false,
      "t": 82352.9,
      "d": 1068.6269166666607,
      "v": 61
    },
    {
      "midi": 62,
      "hit": false,
      "t": 82352.9,
      "d": 1068.6269166666607,
      "v": 61
    },
    {
      "midi": 66,
      "hit": false,
      "t": 82352.9,
      "d": 1068.6269166666607,
      "v": 61
    },
    {
      "midi": 59,
      "hit": false,
      "t": 82647.0174999999,
      "d": 882.3525000000081,
      "v": 51
    },
    {
      "midi": 57,
      "hit": false,
      "t": 83235.2524999999,
      "d": 254.90183333333698,
      "v": 47
    },
    {
      "midi": 61,
      "hit": false,
      "t": 83235.2524999999,
      "d": 254.90183333333698,
      "v": 47
    },
    {
      "midi": 62,
      "hit": false,
      "t": 83235.2524999999,
      "d": 254.90183333333698,
      "v": 47
    },
    {
      "midi": 66,
      "hit": false,
      "t": 83235.2524999999,
      "d": 254.90183333333698,
      "v": 47
    },
    {
      "midi": 57,
      "hit": false,
      "t": 83529.37,
      "d": 1475.4894583333225,
      "v": 61
    },
    {
      "midi": 59,
      "hit": false,
      "t": 83529.37,
      "d": 1475.4894583333225,
      "v": 61
    },
    {
      "midi": 62,
      "hit": false,
      "t": 83529.37,
      "d": 1475.4894583333225,
      "v": 61
    },
    {
      "midi": 66,
      "hit": false,
      "t": 83529.37,
      "d": 1475.4894583333225,
      "v": 61
    },
    {
      "midi": 57,
      "hit": false,
      "t": 84117.60499999991,
      "d": 2352.9400000000023,
      "v": 68
    },
    {
      "midi": 59,
      "hit": false,
      "t": 84117.60499999991,
      "d": 2352.9400000000023,
      "v": 68
    },
    {
      "midi": 62,
      "hit": false,
      "t": 84117.60499999991,
      "d": 2352.9400000000023,
      "v": 68
    },
    {
      "midi": 66,
      "hit": false,
      "t": 84117.60499999991,
      "d": 2352.9400000000023,
      "v": 68
    },
    {
      "midi": 47,
      "hit": false,
      "t": 84999.95749999999,
      "d": 362.7449166666629,
      "v": 52
    },
    {
      "midi": 57,
      "hit": false,
      "t": 85294.07499999998,
      "d": 436.2742916666757,
      "v": 64
    },
    {
      "midi": 59,
      "hit": false,
      "t": 85294.07499999998,
      "d": 436.2742916666757,
      "v": 64
    },
    {
      "midi": 62,
      "hit": false,
      "t": 85294.07499999998,
      "d": 436.2742916666757,
      "v": 64
    },
    {
      "midi": 66,
      "hit": false,
      "t": 85294.07499999998,
      "d": 436.2742916666757,
      "v": 64
    },
    {
      "midi": 57,
      "hit": false,
      "t": 85882.31,
      "d": 235.2939999999944,
      "v": 52
    },
    {
      "midi": 59,
      "hit": false,
      "t": 85882.31,
      "d": 235.2939999999944,
      "v": 52
    },
    {
      "midi": 62,
      "hit": false,
      "t": 85882.31,
      "d": 235.2939999999944,
      "v": 52
    },
    {
      "midi": 66,
      "hit": false,
      "t": 85882.31,
      "d": 235.2939999999944,
      "v": 52
    },
    {
      "midi": 57,
      "hit": false,
      "t": 86176.42749999999,
      "d": 200.98029166666674,
      "v": 61
    },
    {
      "midi": 59,
      "hit": false,
      "t": 86176.42749999999,
      "d": 200.98029166666674,
      "v": 61
    },
    {
      "midi": 62,
      "hit": false,
      "t": 86176.42749999999,
      "d": 200.98029166666674,
      "v": 61
    },
    {
      "midi": 66,
      "hit": false,
      "t": 86176.42749999999,
      "d": 200.98029166666674,
      "v": 61
    },
    {
      "midi": 57,
      "hit": false,
      "t": 86764.66249999999,
      "d": 1156.8621666666731,
      "v": 61
    },
    {
      "midi": 59,
      "hit": false,
      "t": 86764.66249999999,
      "d": 1156.8621666666731,
      "v": 61
    },
    {
      "midi": 62,
      "hit": false,
      "t": 86764.66249999999,
      "d": 1156.8621666666731,
      "v": 61
    },
    {
      "midi": 66,
      "hit": false,
      "t": 86764.66249999999,
      "d": 1156.8621666666731,
      "v": 61
    },
    {
      "midi": 61,
      "hit": false,
      "t": 88235.24999999991,
      "d": 882.3524999999936,
      "v": 34
    },
    {
      "midi": 64,
      "hit": false,
      "t": 88235.24999999991,
      "d": 882.3524999999936,
      "v": 34
    },
    {
      "midi": 68,
      "hit": false,
      "t": 88235.24999999991,
      "d": 882.3524999999936,
      "v": 34
    },
    {
      "midi": 71,
      "hit": false,
      "t": 88235.24999999991,
      "d": 882.3524999999936,
      "v": 34
    },
    {
      "midi": 61,
      "hit": false,
      "t": 88235.25,
      "d": 205.8822499999951,
      "v": 65
    },
    {
      "midi": 64,
      "hit": false,
      "t": 88235.25,
      "d": 205.8822499999951,
      "v": 65
    },
    {
      "midi": 68,
      "hit": false,
      "t": 88235.25,
      "d": 205.8822499999951,
      "v": 65
    },
    {
      "midi": 71,
      "hit": false,
      "t": 88235.25,
      "d": 205.8822499999951,
      "v": 65
    },
    {
      "midi": 61,
      "hit": false,
      "t": 88529.3675,
      "d": 166.66658333333908,
      "v": 61
    },
    {
      "midi": 64,
      "hit": false,
      "t": 88529.3675,
      "d": 166.66658333333908,
      "v": 61
    },
    {
      "midi": 68,
      "hit": false,
      "t": 88529.3675,
      "d": 166.66658333333908,
      "v": 61
    },
    {
      "midi": 71,
      "hit": false,
      "t": 88529.3675,
      "d": 166.66658333333908,
      "v": 61
    },
    {
      "midi": 61,
      "hit": false,
      "t": 89117.6024999999,
      "d": 294.117499999993,
      "v": 44
    },
    {
      "midi": 68,
      "hit": false,
      "t": 89117.6024999999,
      "d": 294.117499999993,
      "v": 44
    },
    {
      "midi": 71,
      "hit": false,
      "t": 89117.6024999999,
      "d": 294.117499999993,
      "v": 44
    },
    {
      "midi": 76,
      "hit": false,
      "t": 89117.6024999999,
      "d": 2352.939999999973,
      "v": 44
    },
    {
      "midi": 61,
      "hit": false,
      "t": 89117.6025,
      "d": 926.4701250000071,
      "v": 61
    },
    {
      "midi": 64,
      "hit": false,
      "t": 89117.6025,
      "d": 926.4701250000071,
      "v": 61
    },
    {
      "midi": 68,
      "hit": false,
      "t": 89117.6025,
      "d": 926.4701250000071,
      "v": 61
    },
    {
      "midi": 71,
      "hit": false,
      "t": 89117.6025,
      "d": 926.4701250000071,
      "v": 61
    },
    {
      "midi": 61,
      "hit": false,
      "t": 90294.0724999999,
      "d": 294.117499999993,
      "v": 57
    },
    {
      "midi": 64,
      "hit": false,
      "t": 90294.0724999999,
      "d": 294.117499999993,
      "v": 57
    },
    {
      "midi": 68,
      "hit": false,
      "t": 90294.0724999999,
      "d": 294.117499999993,
      "v": 57
    },
    {
      "midi": 71,
      "hit": false,
      "t": 90294.0724999999,
      "d": 294.117499999993,
      "v": 57
    },
    {
      "midi": 59,
      "hit": false,
      "t": 90588.18999999989,
      "d": 294.117499999993,
      "v": 54
    },
    {
      "midi": 57,
      "hit": false,
      "t": 90588.19,
      "d": 205.8822499999951,
      "v": 65
    },
    {
      "midi": 59,
      "hit": false,
      "t": 90588.19,
      "d": 205.8822499999951,
      "v": 65
    },
    {
      "midi": 62,
      "hit": false,
      "t": 90588.19,
      "d": 205.8822499999951,
      "v": 65
    },
    {
      "midi": 66,
      "hit": false,
      "t": 90588.19,
      "d": 205.8822499999951,
      "v": 65
    },
    {
      "midi": 62,
      "hit": false,
      "t": 90882.30749999988,
      "d": 1147.0582500000019,
      "v": 48
    },
    {
      "midi": 69,
      "hit": false,
      "t": 90882.30749999988,
      "d": 1147.0582500000019,
      "v": 48
    },
    {
      "midi": 71,
      "hit": false,
      "t": 90882.30749999988,
      "d": 1147.0582500000019,
      "v": 48
    },
    {
      "midi": 78,
      "hit": false,
      "t": 90882.30749999988,
      "d": 1147.0582500000019,
      "v": 48
    },
    {
      "midi": 57,
      "hit": false,
      "t": 90882.3075,
      "d": 166.66658333333908,
      "v": 61
    },
    {
      "midi": 59,
      "hit": false,
      "t": 90882.3075,
      "d": 166.66658333333908,
      "v": 61
    },
    {
      "midi": 62,
      "hit": false,
      "t": 90882.3075,
      "d": 166.66658333333908,
      "v": 61
    },
    {
      "midi": 66,
      "hit": false,
      "t": 90882.3075,
      "d": 166.66658333333908,
      "v": 61
    },
    {
      "midi": 57,
      "hit": false,
      "t": 91470.5425,
      "d": 926.4701250000071,
      "v": 61
    },
    {
      "midi": 59,
      "hit": false,
      "t": 91470.5425,
      "d": 926.4701250000071,
      "v": 61
    },
    {
      "midi": 62,
      "hit": false,
      "t": 91470.5425,
      "d": 926.4701250000071,
      "v": 61
    },
    {
      "midi": 66,
      "hit": false,
      "t": 91470.5425,
      "d": 926.4701250000071,
      "v": 61
    },
    {
      "midi": 66,
      "hit": false,
      "t": 92058.77749999988,
      "d": 269.60770833333663,
      "v": 38
    },
    {
      "midi": 57,
      "hit": false,
      "t": 92352.89499999989,
      "d": 588.2350000000006,
      "v": 42
    },
    {
      "midi": 59,
      "hit": false,
      "t": 92352.89499999989,
      "d": 588.2350000000006,
      "v": 42
    },
    {
      "midi": 62,
      "hit": false,
      "t": 92352.89499999989,
      "d": 588.2350000000006,
      "v": 42
    },
    {
      "midi": 66,
      "hit": false,
      "t": 92352.89499999989,
      "d": 588.2350000000006,
      "v": 42
    },
    {
      "midi": 62,
      "hit": false,
      "t": 92941.12999999989,
      "d": 294.117499999993,
      "v": 37
    },
    {
      "midi": 61,
      "hit": false,
      "t": 92941.13,
      "d": 1504.9012083333218,
      "v": 64
    },
    {
      "midi": 64,
      "hit": false,
      "t": 92941.13,
      "d": 1504.9012083333218,
      "v": 64
    },
    {
      "midi": 69,
      "hit": false,
      "t": 92941.13,
      "d": 1504.9012083333218,
      "v": 64
    },
    {
      "midi": 69,
      "hit": false,
      "t": 93235.24749999988,
      "d": 553.9212916666729,
      "v": 46
    },
    {
      "midi": 62,
      "hit": false,
      "t": 94117.6,
      "d": 294.117499999993,
      "v": 55
    },
    {
      "midi": 61,
      "hit": false,
      "t": 94411.71749999988,
      "d": 44.11762499999895,
      "v": 58
    },
    {
      "midi": 64,
      "hit": false,
      "t": 94411.71749999988,
      "d": 44.11762499999895,
      "v": 58
    },
    {
      "midi": 66,
      "hit": false,
      "t": 94411.71749999988,
      "d": 44.11762499999895,
      "v": 58
    },
    {
      "midi": 69,
      "hit": false,
      "t": 94411.71749999988,
      "d": 44.11762499999895,
      "v": 58
    },
    {
      "midi": 66,
      "hit": false,
      "t": 94411.7175,
      "d": 34.31370833332767,
      "v": 52
    },
    {
      "midi": 69,
      "hit": false,
      "t": 94705.83499999999,
      "d": 289.21554166666465,
      "v": 60
    },
    {
      "midi": 61,
      "hit": false,
      "t": 94999.95249999988,
      "d": 294.117499999993,
      "v": 52
    },
    {
      "midi": 64,
      "hit": false,
      "t": 94999.95249999988,
      "d": 294.117499999993,
      "v": 52
    },
    {
      "midi": 76,
      "hit": false,
      "t": 94999.95249999998,
      "d": 102.94112499999756,
      "v": 76
    },
    {
      "midi": 61,
      "hit": false,
      "t": 95294.06999999988,
      "d": 294.117499999993,
      "v": 41
    },
    {
      "midi": 64,
      "hit": false,
      "t": 95294.06999999988,
      "d": 294.117499999993,
      "v": 41
    },
    {
      "midi": 69,
      "hit": false,
      "t": 95294.06999999988,
      "d": 1176.4699999999866,
      "v": 41
    },
    {
      "midi": 57,
      "hit": false,
      "t": 95294.06999999998,
      "d": 1068.6269166666607,
      "v": 61
    },
    {
      "midi": 61,
      "hit": false,
      "t": 95294.06999999998,
      "d": 1068.6269166666607,
      "v": 61
    },
    {
      "midi": 64,
      "hit": false,
      "t": 95294.06999999998,
      "d": 1068.6269166666607,
      "v": 61
    },
    {
      "midi": 57,
      "hit": false,
      "t": 96176.42249999987,
      "d": 294.117499999993,
      "v": 54
    },
    {
      "midi": 61,
      "hit": false,
      "t": 96176.42249999987,
      "d": 294.117499999993,
      "v": 54
    },
    {
      "midi": 64,
      "hit": false,
      "t": 96176.42249999987,
      "d": 294.117499999993,
      "v": 54
    },
    {
      "midi": 57,
      "hit": false,
      "t": 96470.53999999986,
      "d": 274.509666666665,
      "v": 38
    },
    {
      "midi": 66,
      "hit": false,
      "t": 96470.53999999986,
      "d": 274.509666666665,
      "v": 38
    },
    {
      "midi": 73,
      "hit": false,
      "t": 96470.53999999986,
      "d": 274.509666666665,
      "v": 38
    },
    {
      "midi": 61,
      "hit": false,
      "t": 96470.53999999998,
      "d": 1068.6269166666607,
      "v": 61
    },
    {
      "midi": 66,
      "hit": false,
      "t": 96470.53999999998,
      "d": 1068.6269166666607,
      "v": 61
    },
    {
      "midi": 69,
      "hit": false,
      "t": 96470.53999999998,
      "d": 1068.6269166666607,
      "v": 61
    },
    {
      "midi": 57,
      "hit": false,
      "t": 96764.65749999986,
      "d": 563.7252083333296,
      "v": 45
    },
    {
      "midi": 61,
      "hit": false,
      "t": 96764.65749999986,
      "d": 563.7252083333296,
      "v": 45
    },
    {
      "midi": 66,
      "hit": false,
      "t": 96764.65749999986,
      "d": 563.7252083333296,
      "v": 45
    },
    {
      "midi": 57,
      "hit": false,
      "t": 97352.89249999986,
      "d": 294.117499999993,
      "v": 48
    },
    {
      "midi": 66,
      "hit": false,
      "t": 97352.89249999986,
      "d": 294.117499999993,
      "v": 48
    },
    {
      "midi": 73,
      "hit": false,
      "t": 97352.89249999986,
      "d": 2352.939999999988,
      "v": 48
    },
    {
      "midi": 57,
      "hit": false,
      "t": 97647.00999999985,
      "d": 274.509666666665,
      "v": 38
    },
    {
      "midi": 62,
      "hit": false,
      "t": 97647.00999999985,
      "d": 274.509666666665,
      "v": 38
    },
    {
      "midi": 66,
      "hit": false,
      "t": 97647.00999999985,
      "d": 274.509666666665,
      "v": 38
    },
    {
      "midi": 71,
      "hit": false,
      "t": 97647.00999999985,
      "d": 882.3524999999936,
      "v": 38
    },
    {
      "midi": 62,
      "hit": false,
      "t": 97647.00999999998,
      "d": 205.8822499999951,
      "v": 65
    },
    {
      "midi": 66,
      "hit": false,
      "t": 97647.00999999998,
      "d": 205.8822499999951,
      "v": 65
    },
    {
      "midi": 69,
      "hit": false,
      "t": 97647.00999999998,
      "d": 205.8822499999951,
      "v": 65
    },
    {
      "midi": 71,
      "hit": false,
      "t": 97647.00999999998,
      "d": 205.8822499999951,
      "v": 65
    },
    {
      "midi": 57,
      "hit": false,
      "t": 97941.12749999984,
      "d": 563.7252083333296,
      "v": 45
    },
    {
      "midi": 59,
      "hit": false,
      "t": 97941.12749999984,
      "d": 563.7252083333296,
      "v": 45
    },
    {
      "midi": 62,
      "hit": false,
      "t": 97941.12749999984,
      "d": 563.7252083333296,
      "v": 45
    },
    {
      "midi": 66,
      "hit": false,
      "t": 97941.12749999984,
      "d": 563.7252083333296,
      "v": 45
    },
    {
      "midi": 62,
      "hit": false,
      "t": 97941.12749999997,
      "d": 166.66658333333908,
      "v": 61
    },
    {
      "midi": 66,
      "hit": false,
      "t": 97941.12749999997,
      "d": 166.66658333333908,
      "v": 61
    },
    {
      "midi": 69,
      "hit": false,
      "t": 97941.12749999997,
      "d": 166.66658333333908,
      "v": 61
    },
    {
      "midi": 71,
      "hit": false,
      "t": 97941.12749999997,
      "d": 166.66658333333908,
      "v": 61
    },
    {
      "midi": 57,
      "hit": false,
      "t": 98529.36249999984,
      "d": 588.2350000000006,
      "v": 48
    },
    {
      "midi": 62,
      "hit": false,
      "t": 98529.36249999984,
      "d": 588.2350000000006,
      "v": 48
    },
    {
      "midi": 66,
      "hit": false,
      "t": 98529.36249999984,
      "d": 588.2350000000006,
      "v": 48
    },
    {
      "midi": 62,
      "hit": false,
      "t": 98529.36249999997,
      "d": 926.4701250000071,
      "v": 61
    },
    {
      "midi": 66,
      "hit": false,
      "t": 98529.36249999997,
      "d": 926.4701250000071,
      "v": 61
    },
    {
      "midi": 69,
      "hit": false,
      "t": 98529.36249999997,
      "d": 926.4701250000071,
      "v": 61
    },
    {
      "midi": 71,
      "hit": false,
      "t": 98529.36249999997,
      "d": 926.4701250000071,
      "v": 61
    },
    {
      "midi": 57,
      "hit": false,
      "t": 99705.83249999984,
      "d": 14.70587499999965,
      "v": 54
    },
    {
      "midi": 62,
      "hit": false,
      "t": 99705.83249999984,
      "d": 14.70587499999965,
      "v": 54
    },
    {
      "midi": 66,
      "hit": false,
      "t": 99705.83249999984,
      "d": 14.70587499999965,
      "v": 54
    },
    {
      "midi": 71,
      "hit": false,
      "t": 99705.83249999984,
      "d": 14.70587499999965,
      "v": 54
    },
    {
      "midi": 62,
      "hit": false,
      "t": 99999.94999999984,
      "d": 294.117499999993,
      "v": 41
    },
    {
      "midi": 66,
      "hit": false,
      "t": 99999.94999999984,
      "d": 294.117499999993,
      "v": 41
    },
    {
      "midi": 59,
      "hit": false,
      "t": 99999.94999999998,
      "d": 205.8822499999951,
      "v": 65
    },
    {
      "midi": 62,
      "hit": false,
      "t": 99999.94999999998,
      "d": 205.8822499999951,
      "v": 65
    },
    {
      "midi": 66,
      "hit": false,
      "t": 99999.94999999998,
      "d": 205.8822499999951,
      "v": 65
    },
    {
      "midi": 68,
      "hit": false,
      "t": 99999.94999999998,
      "d": 205.8822499999951,
      "v": 65
    },
    {
      "midi": 59,
      "hit": false,
      "t": 100294.06749999998,
      "d": 166.66658333333908,
      "v": 61
    },
    {
      "midi": 62,
      "hit": false,
      "t": 100294.06749999998,
      "d": 166.66658333333908,
      "v": 61
    },
    {
      "midi": 66,
      "hit": false,
      "t": 100294.06749999998,
      "d": 166.66658333333908,
      "v": 61
    },
    {
      "midi": 68,
      "hit": false,
      "t": 100294.06749999998,
      "d": 166.66658333333908,
      "v": 61
    },
    {
      "midi": 59,
      "hit": false,
      "t": 100882.30249999983,
      "d": 593.136958333329,
      "v": 54
    },
    {
      "midi": 62,
      "hit": false,
      "t": 100882.30249999983,
      "d": 593.136958333329,
      "v": 54
    },
    {
      "midi": 66,
      "hit": false,
      "t": 100882.30249999983,
      "d": 593.136958333329,
      "v": 54
    },
    {
      "midi": 68,
      "hit": false,
      "t": 100882.30249999983,
      "d": 593.136958333329,
      "v": 54
    },
    {
      "midi": 59,
      "hit": false,
      "t": 100882.30249999998,
      "d": 926.4701250000071,
      "v": 61
    },
    {
      "midi": 62,
      "hit": false,
      "t": 100882.30249999998,
      "d": 926.4701250000071,
      "v": 61
    },
    {
      "midi": 66,
      "hit": false,
      "t": 100882.30249999998,
      "d": 926.4701250000071,
      "v": 61
    },
    {
      "midi": 68,
      "hit": false,
      "t": 100882.30249999998,
      "d": 926.4701250000071,
      "v": 61
    },
    {
      "midi": 56,
      "hit": false,
      "t": 101475.43945833316,
      "d": 877.4505416666652,
      "v": 54
    },
    {
      "midi": 62,
      "hit": false,
      "t": 101475.43945833316,
      "d": 877.4505416666652,
      "v": 54
    },
    {
      "midi": 66,
      "hit": false,
      "t": 101475.43945833316,
      "d": 877.4505416666652,
      "v": 54
    },
    {
      "midi": 71,
      "hit": false,
      "t": 101475.43945833316,
      "d": 877.4505416666652,
      "v": 54
    },
    {
      "midi": 61,
      "hit": false,
      "t": 102352.88999999998,
      "d": 921.5681666666642,
      "v": 65
    },
    {
      "midi": 64,
      "hit": false,
      "t": 102352.88999999998,
      "d": 921.5681666666642,
      "v": 65
    },
    {
      "midi": 66,
      "hit": false,
      "t": 102352.88999999998,
      "d": 921.5681666666642,
      "v": 65
    },
    {
      "midi": 69,
      "hit": false,
      "t": 102352.88999999998,
      "d": 921.5681666666642,
      "v": 65
    },
    {
      "midi": 66,
      "hit": false,
      "t": 102941.12499999983,
      "d": 887.2544583333365,
      "v": 68
    },
    {
      "midi": 61,
      "hit": false,
      "t": 102941.12499999983,
      "d": 1764.7050000000017,
      "v": 68
    },
    {
      "midi": 64,
      "hit": false,
      "t": 102941.12499999983,
      "d": 1764.7050000000017,
      "v": 68
    },
    {
      "midi": 69,
      "hit": false,
      "t": 102941.12499999983,
      "d": 1764.7050000000017,
      "v": 68
    },
    {
      "midi": 50,
      "hit": false,
      "t": 103235.24249999998,
      "d": 328.43120833333523,
      "v": 60
    },
    {
      "midi": 61,
      "hit": false,
      "t": 103529.35999999999,
      "d": 397.05862499999057,
      "v": 64
    },
    {
      "midi": 64,
      "hit": false,
      "t": 103529.35999999999,
      "d": 397.05862499999057,
      "v": 64
    },
    {
      "midi": 66,
      "hit": false,
      "t": 103529.35999999999,
      "d": 397.05862499999057,
      "v": 64
    },
    {
      "midi": 69,
      "hit": false,
      "t": 103529.35999999999,
      "d": 397.05862499999057,
      "v": 64
    },
    {
      "midi": 61,
      "hit": false,
      "t": 104117.59499999997,
      "d": 200.98029166666674,
      "v": 76
    },
    {
      "midi": 64,
      "hit": false,
      "t": 104117.59499999997,
      "d": 200.98029166666674,
      "v": 76
    },
    {
      "midi": 66,
      "hit": false,
      "t": 104117.59499999997,
      "d": 200.98029166666674,
      "v": 76
    },
    {
      "midi": 69,
      "hit": false,
      "t": 104117.59499999997,
      "d": 200.98029166666674,
      "v": 76
    },
    {
      "midi": 61,
      "hit": false,
      "t": 104705.82999999997,
      "d": 1068.6269166666607,
      "v": 61
    },
    {
      "midi": 64,
      "hit": false,
      "t": 104705.82999999997,
      "d": 1068.6269166666607,
      "v": 61
    },
    {
      "midi": 66,
      "hit": false,
      "t": 104705.82999999997,
      "d": 1068.6269166666607,
      "v": 61
    },
    {
      "midi": 69,
      "hit": false,
      "t": 104705.82999999997,
      "d": 1068.6269166666607,
      "v": 61
    },
    {
      "midi": 61,
      "hit": false,
      "t": 105294.06499999983,
      "d": 588.2350000000006,
      "v": 68
    },
    {
      "midi": 64,
      "hit": false,
      "t": 105294.06499999983,
      "d": 588.2350000000006,
      "v": 68
    },
    {
      "midi": 69,
      "hit": false,
      "t": 105294.06499999983,
      "d": 588.2350000000006,
      "v": 68
    },
    {
      "midi": 66,
      "hit": false,
      "t": 105294.06499999983,
      "d": 2352.939999999973,
      "v": 68
    },
    {
      "midi": 56,
      "hit": false,
      "t": 105882.29999999983,
      "d": 1176.4699999999866,
      "v": 39
    },
    {
      "midi": 65,
      "hit": false,
      "t": 105882.29999999983,
      "d": 1176.4699999999866,
      "v": 39
    },
    {
      "midi": 71,
      "hit": false,
      "t": 105882.29999999983,
      "d": 1176.4699999999866,
      "v": 39
    },
    {
      "midi": 59,
      "hit": false,
      "t": 106176.41749999982,
      "d": 9.803916666671284,
      "v": 50
    },
    {
      "midi": 62,
      "hit": false,
      "t": 106176.41749999982,
      "d": 9.803916666671284,
      "v": 50
    },
    {
      "midi": 64,
      "hit": false,
      "t": 106176.41749999982,
      "d": 9.803916666671284,
      "v": 50
    },
    {
      "midi": 59,
      "hit": false,
      "t": 106176.41749999997,
      "d": 637.2545833333279,
      "v": 72
    },
    {
      "midi": 62,
      "hit": false,
      "t": 106176.41749999997,
      "d": 637.2545833333279,
      "v": 72
    },
    {
      "midi": 64,
      "hit": false,
      "t": 106176.41749999997,
      "d": 637.2545833333279,
      "v": 72
    },
    {
      "midi": 68,
      "hit": false,
      "t": 106176.41749999997,
      "d": 637.2545833333279,
      "v": 72
    },
    {
      "midi": 59,
      "hit": false,
      "t": 106764.65249999982,
      "d": 279.41162499999336,
      "v": 53
    },
    {
      "midi": 62,
      "hit": false,
      "t": 106764.65249999982,
      "d": 279.41162499999336,
      "v": 53
    },
    {
      "midi": 64,
      "hit": false,
      "t": 106764.65249999982,
      "d": 279.41162499999336,
      "v": 53
    },
    {
      "midi": 68,
      "hit": false,
      "t": 106764.65249999982,
      "d": 279.41162499999336,
      "v": 53
    },
    {
      "midi": 57,
      "hit": false,
      "t": 107058.76999999981,
      "d": 2352.939999999973,
      "v": 54
    },
    {
      "midi": 61,
      "hit": false,
      "t": 107058.76999999996,
      "d": 205.8822499999951,
      "v": 65
    },
    {
      "midi": 64,
      "hit": false,
      "t": 107058.76999999996,
      "d": 205.8822499999951,
      "v": 65
    },
    {
      "midi": 68,
      "hit": false,
      "t": 107058.76999999996,
      "d": 205.8822499999951,
      "v": 65
    },
    {
      "midi": 71,
      "hit": false,
      "t": 107058.76999999996,
      "d": 205.8822499999951,
      "v": 65
    },
    {
      "midi": 56,
      "hit": false,
      "t": 107352.88749999981,
      "d": 1147.0582499999873,
      "v": 48
    },
    {
      "midi": 59,
      "hit": false,
      "t": 107352.88749999981,
      "d": 1147.0582499999873,
      "v": 48
    },
    {
      "midi": 61,
      "hit": false,
      "t": 107352.88749999981,
      "d": 1147.0582499999873,
      "v": 48
    },
    {
      "midi": 64,
      "hit": false,
      "t": 107352.88749999981,
      "d": 1147.0582499999873,
      "v": 48
    },
    {
      "midi": 61,
      "hit": false,
      "t": 107352.88749999995,
      "d": 166.66658333333908,
      "v": 61
    },
    {
      "midi": 64,
      "hit": false,
      "t": 107352.88749999995,
      "d": 166.66658333333908,
      "v": 61
    },
    {
      "midi": 68,
      "hit": false,
      "t": 107352.88749999995,
      "d": 166.66658333333908,
      "v": 61
    },
    {
      "midi": 71,
      "hit": false,
      "t": 107352.88749999995,
      "d": 166.66658333333908,
      "v": 61
    },
    {
      "midi": 61,
      "hit": false,
      "t": 107941.12249999995,
      "d": 926.4701250000071,
      "v": 61
    },
    {
      "midi": 64,
      "hit": false,
      "t": 107941.12249999995,
      "d": 926.4701250000071,
      "v": 61
    },
    {
      "midi": 68,
      "hit": false,
      "t": 107941.12249999995,
      "d": 926.4701250000071,
      "v": 61
    },
    {
      "midi": 71,
      "hit": false,
      "t": 107941.12249999995,
      "d": 926.4701250000071,
      "v": 61
    },
    {
      "midi": 64,
      "hit": false,
      "t": 108529.3574999998,
      "d": 269.60770833333663,
      "v": 38
    },
    {
      "midi": 68,
      "hit": false,
      "t": 108823.4749999998,
      "d": 294.117499999993,
      "v": 42
    },
    {
      "midi": 61,
      "hit": false,
      "t": 108823.4749999998,
      "d": 588.234999999986,
      "v": 42
    },
    {
      "midi": 64,
      "hit": false,
      "t": 108823.4749999998,
      "d": 588.234999999986,
      "v": 42
    },
    {
      "midi": 71,
      "hit": false,
      "t": 108823.4749999998,
      "d": 588.234999999986,
      "v": 42
    },
    {
      "midi": 61,
      "hit": false,
      "t": 109411.70999999979,
      "d": 882.3524999999936,
      "v": 34
    },
    {
      "midi": 64,
      "hit": false,
      "t": 109411.70999999979,
      "d": 882.3524999999936,
      "v": 34
    },
    {
      "midi": 70,
      "hit": false,
      "t": 109411.70999999979,
      "d": 882.3524999999936,
      "v": 34
    },
    {
      "midi": 66,
      "hit": false,
      "t": 109411.70999999979,
      "d": 1176.4699999999866,
      "v": 34
    },
    {
      "midi": 58,
      "hit": false,
      "t": 109411.70999999996,
      "d": 205.8822499999951,
      "v": 65
    },
    {
      "midi": 61,
      "hit": false,
      "t": 109411.70999999996,
      "d": 205.8822499999951,
      "v": 65
    },
    {
      "midi": 64,
      "hit": false,
      "t": 109411.70999999996,
      "d": 205.8822499999951,
      "v": 65
    },
    {
      "midi": 66,
      "hit": false,
      "t": 109411.70999999996,
      "d": 205.8822499999951,
      "v": 65
    },
    {
      "midi": 58,
      "hit": false,
      "t": 109705.82749999996,
      "d": 166.66658333333908,
      "v": 61
    },
    {
      "midi": 61,
      "hit": false,
      "t": 109705.82749999996,
      "d": 166.66658333333908,
      "v": 61
    },
    {
      "midi": 64,
      "hit": false,
      "t": 109705.82749999996,
      "d": 166.66658333333908,
      "v": 61
    },
    {
      "midi": 66,
      "hit": false,
      "t": 109705.82749999996,
      "d": 166.66658333333908,
      "v": 61
    },
    {
      "midi": 61,
      "hit": false,
      "t": 110294.06249999978,
      "d": 294.117499999993,
      "v": 44
    },
    {
      "midi": 54,
      "hit": false,
      "t": 110294.06249999978,
      "d": 2352.939999999988,
      "v": 44
    },
    {
      "midi": 58,
      "hit": false,
      "t": 110294.06249999978,
      "d": 2352.939999999988,
      "v": 44
    },
    {
      "midi": 58,
      "hit": false,
      "t": 110294.06249999996,
      "d": 926.4701250000071,
      "v": 61
    },
    {
      "midi": 61,
      "hit": false,
      "t": 110294.06249999996,
      "d": 926.4701250000071,
      "v": 61
    },
    {
      "midi": 64,
      "hit": false,
      "t": 110294.06249999996,
      "d": 926.4701250000071,
      "v": 61
    },
    {
      "midi": 66,
      "hit": false,
      "t": 110294.06249999996,
      "d": 926.4701250000071,
      "v": 61
    },
    {
      "midi": 61,
      "hit": false,
      "t": 111470.53249999977,
      "d": 294.117499999993,
      "v": 57
    },
    {
      "midi": 64,
      "hit": false,
      "t": 111470.53249999977,
      "d": 294.117499999993,
      "v": 57
    },
    {
      "midi": 66,
      "hit": false,
      "t": 111470.53249999977,
      "d": 294.117499999993,
      "v": 57
    },
    {
      "midi": 70,
      "hit": false,
      "t": 111470.53249999977,
      "d": 294.117499999993,
      "v": 57
    },
    {
      "midi": 57,
      "hit": false,
      "t": 112058.76749999996,
      "d": 225.49008333333768,
      "v": 61
    },
    {
      "midi": 59,
      "hit": false,
      "t": 112058.76749999996,
      "d": 225.49008333333768,
      "v": 61
    },
    {
      "midi": 62,
      "hit": false,
      "t": 112058.76749999996,
      "d": 225.49008333333768,
      "v": 61
    },
    {
      "midi": 66,
      "hit": false,
      "t": 112058.76749999996,
      "d": 225.49008333333768,
      "v": 61
    },
    {
      "midi": 62,
      "hit": false,
      "t": 112073.47337499977,
      "d": 573.5291250000009,
      "v": 48
    },
    {
      "midi": 66,
      "hit": false,
      "t": 112073.47337499977,
      "d": 573.5291250000009,
      "v": 48
    },
    {
      "midi": 71,
      "hit": false,
      "t": 112073.47337499977,
      "d": 573.5291250000009,
      "v": 48
    },
    {
      "midi": 47,
      "hit": false,
      "t": 112647.00249999996,
      "d": 343.13708333332033,
      "v": 51
    },
    {
      "midi": 57,
      "hit": false,
      "t": 112656.80641666644,
      "d": 1460.7835833333374,
      "v": 57
    },
    {
      "midi": 59,
      "hit": false,
      "t": 112656.80641666644,
      "d": 1460.7835833333374,
      "v": 57
    },
    {
      "midi": 62,
      "hit": false,
      "t": 112656.80641666644,
      "d": 1460.7835833333374,
      "v": 57
    },
    {
      "midi": 66,
      "hit": false,
      "t": 112656.80641666644,
      "d": 1460.7835833333374,
      "v": 57
    },
    {
      "midi": 57,
      "hit": false,
      "t": 112941.11999999995,
      "d": 343.13708333332033,
      "v": 60
    },
    {
      "midi": 59,
      "hit": false,
      "t": 112941.11999999995,
      "d": 343.13708333332033,
      "v": 60
    },
    {
      "midi": 62,
      "hit": false,
      "t": 112941.11999999995,
      "d": 343.13708333332033,
      "v": 60
    },
    {
      "midi": 66,
      "hit": false,
      "t": 112941.11999999995,
      "d": 343.13708333332033,
      "v": 60
    },
    {
      "midi": 57,
      "hit": false,
      "t": 113529.35499999994,
      "d": 186.2744166666671,
      "v": 61
    },
    {
      "midi": 59,
      "hit": false,
      "t": 113529.35499999994,
      "d": 186.2744166666671,
      "v": 61
    },
    {
      "midi": 62,
      "hit": false,
      "t": 113529.35499999994,
      "d": 186.2744166666671,
      "v": 61
    },
    {
      "midi": 66,
      "hit": false,
      "t": 113529.35499999994,
      "d": 186.2744166666671,
      "v": 61
    },
    {
      "midi": 57,
      "hit": false,
      "t": 114117.58999999978,
      "d": 892.1564166666649,
      "v": 47
    },
    {
      "midi": 66,
      "hit": false,
      "t": 114117.58999999978,
      "d": 892.1564166666649,
      "v": 47
    },
    {
      "midi": 62,
      "hit": false,
      "t": 114117.58999999978,
      "d": 1176.4700000000012,
      "v": 47
    },
    {
      "midi": 71,
      "hit": false,
      "t": 114117.58999999978,
      "d": 1176.4700000000012,
      "v": 47
    },
    {
      "midi": 59,
      "hit": false,
      "t": 114117.58999999994,
      "d": 1068.6269166666607,
      "v": 61
    },
    {
      "midi": 62,
      "hit": false,
      "t": 114117.58999999994,
      "d": 1068.6269166666607,
      "v": 61
    },
    {
      "midi": 66,
      "hit": false,
      "t": 114117.58999999994,
      "d": 1068.6269166666607,
      "v": 61
    },
    {
      "midi": 69,
      "hit": false,
      "t": 114117.58999999994,
      "d": 1068.6269166666607,
      "v": 61
    },
    {
      "midi": 56,
      "hit": false,
      "t": 115294.05999999978,
      "d": 1176.4699999999866,
      "v": 39
    },
    {
      "midi": 67,
      "hit": false,
      "t": 115294.05999999978,
      "d": 1176.4699999999866,
      "v": 39
    },
    {
      "midi": 59,
      "hit": false,
      "t": 115294.05999999994,
      "d": 1068.6269166666607,
      "v": 61
    },
    {
      "midi": 62,
      "hit": false,
      "t": 115294.05999999994,
      "d": 1068.6269166666607,
      "v": 61
    },
    {
      "midi": 64,
      "hit": false,
      "t": 115294.05999999994,
      "d": 1068.6269166666607,
      "v": 61
    },
    {
      "midi": 68,
      "hit": false,
      "t": 115294.05999999994,
      "d": 1068.6269166666607,
      "v": 61
    },
    {
      "midi": 59,
      "hit": false,
      "t": 115588.17749999977,
      "d": 9.803916666671284,
      "v": 50
    },
    {
      "midi": 62,
      "hit": false,
      "t": 115588.17749999977,
      "d": 9.803916666671284,
      "v": 50
    },
    {
      "midi": 64,
      "hit": false,
      "t": 115588.17749999977,
      "d": 9.803916666671284,
      "v": 50
    },
    {
      "midi": 59,
      "hit": false,
      "t": 116176.41249999977,
      "d": 279.41162499999336,
      "v": 53
    },
    {
      "midi": 62,
      "hit": false,
      "t": 116176.41249999977,
      "d": 279.41162499999336,
      "v": 53
    },
    {
      "midi": 64,
      "hit": false,
      "t": 116176.41249999977,
      "d": 279.41162499999336,
      "v": 53
    },
    {
      "midi": 68,
      "hit": false,
      "t": 116176.41249999977,
      "d": 279.41162499999336,
      "v": 53
    },
    {
      "midi": 61,
      "hit": false,
      "t": 116764.64749999993,
      "d": 225.49008333333768,
      "v": 61
    },
    {
      "midi": 64,
      "hit": false,
      "t": 116764.64749999993,
      "d": 225.49008333333768,
      "v": 61
    },
    {
      "midi": 68,
      "hit": false,
      "t": 116764.64749999993,
      "d": 225.49008333333768,
      "v": 61
    },
    {
      "midi": 71,
      "hit": false,
      "t": 116764.64749999993,
      "d": 225.49008333333768,
      "v": 61
    },
    {
      "midi": 56,
      "hit": false,
      "t": 117352.88249999976,
      "d": 1470.5874999999942,
      "v": 54
    },
    {
      "midi": 59,
      "hit": false,
      "t": 117352.88249999976,
      "d": 1470.5874999999942,
      "v": 54
    },
    {
      "midi": 61,
      "hit": false,
      "t": 117352.88249999976,
      "d": 1470.5874999999942,
      "v": 54
    },
    {
      "midi": 64,
      "hit": false,
      "t": 117352.88249999976,
      "d": 1470.5874999999942,
      "v": 54
    },
    {
      "midi": 45,
      "hit": false,
      "t": 117352.88249999993,
      "d": 343.13708333332033,
      "v": 51
    },
    {
      "midi": 61,
      "hit": false,
      "t": 117646.99999999993,
      "d": 343.13708333332033,
      "v": 60
    },
    {
      "midi": 64,
      "hit": false,
      "t": 117646.99999999993,
      "d": 343.13708333332033,
      "v": 60
    },
    {
      "midi": 68,
      "hit": false,
      "t": 117646.99999999993,
      "d": 343.13708333332033,
      "v": 60
    },
    {
      "midi": 71,
      "hit": false,
      "t": 117646.99999999993,
      "d": 343.13708333332033,
      "v": 60
    },
    {
      "midi": 61,
      "hit": false,
      "t": 118235.23499999991,
      "d": 186.2744166666671,
      "v": 61
    },
    {
      "midi": 64,
      "hit": false,
      "t": 118235.23499999991,
      "d": 186.2744166666671,
      "v": 61
    },
    {
      "midi": 68,
      "hit": false,
      "t": 118235.23499999991,
      "d": 186.2744166666671,
      "v": 61
    },
    {
      "midi": 71,
      "hit": false,
      "t": 118235.23499999991,
      "d": 186.2744166666671,
      "v": 61
    },
    {
      "midi": 69,
      "hit": false,
      "t": 118823.46999999975,
      "d": 1176.4699999999866,
      "v": 39
    },
    {
      "midi": 57,
      "hit": false,
      "t": 118823.46999999991,
      "d": 205.8822499999951,
      "v": 65
    },
    {
      "midi": 61,
      "hit": false,
      "t": 118823.46999999991,
      "d": 205.8822499999951,
      "v": 65
    },
    {
      "midi": 65,
      "hit": false,
      "t": 118823.46999999991,
      "d": 205.8822499999951,
      "v": 65
    },
    {
      "midi": 57,
      "hit": false,
      "t": 119117.58749999975,
      "d": 9.803916666671284,
      "v": 50
    },
    {
      "midi": 61,
      "hit": false,
      "t": 119117.58749999975,
      "d": 9.803916666671284,
      "v": 50
    },
    {
      "midi": 65,
      "hit": false,
      "t": 119117.58749999975,
      "d": 9.803916666671284,
      "v": 50
    },
    {
      "midi": 57,
      "hit": false,
      "t": 119117.5874999999,
      "d": 166.66658333333908,
      "v": 61
    },
    {
      "midi": 61,
      "hit": false,
      "t": 119117.5874999999,
      "d": 166.66658333333908,
      "v": 61
    },
    {
      "midi": 65,
      "hit": false,
      "t": 119117.5874999999,
      "d": 166.66658333333908,
      "v": 61
    },
    {
      "midi": 57,
      "hit": false,
      "t": 119705.82249999975,
      "d": 279.41162499999336,
      "v": 53
    },
    {
      "midi": 61,
      "hit": false,
      "t": 119705.82249999975,
      "d": 279.41162499999336,
      "v": 53
    },
    {
      "midi": 65,
      "hit": false,
      "t": 119705.82249999975,
      "d": 279.41162499999336,
      "v": 53
    },
    {
      "midi": 57,
      "hit": false,
      "t": 119705.82249999991,
      "d": 926.4701250000071,
      "v": 61
    },
    {
      "midi": 61,
      "hit": false,
      "t": 119705.82249999991,
      "d": 926.4701250000071,
      "v": 61
    },
    {
      "midi": 65,
      "hit": false,
      "t": 119705.82249999991,
      "d": 926.4701250000071,
      "v": 61
    },
    {
      "midi": 57,
      "hit": false,
      "t": 119999.93999999974,
      "d": 294.117499999993,
      "v": 48
    },
    {
      "midi": 61,
      "hit": false,
      "t": 119999.93999999974,
      "d": 294.117499999993,
      "v": 48
    },
    {
      "midi": 65,
      "hit": false,
      "t": 119999.93999999974,
      "d": 294.117499999993,
      "v": 48
    },
    {
      "midi": 57,
      "hit": false,
      "t": 120882.29249999973,
      "d": 294.117499999993,
      "v": 54
    },
    {
      "midi": 61,
      "hit": false,
      "t": 120882.29249999973,
      "d": 294.117499999993,
      "v": 54
    },
    {
      "midi": 65,
      "hit": false,
      "t": 120882.29249999973,
      "d": 294.117499999993,
      "v": 54
    },
    {
      "midi": 69,
      "hit": false,
      "t": 121176.40999999973,
      "d": 1176.4700000000012,
      "v": 47
    },
    {
      "midi": 61,
      "hit": false,
      "t": 121176.40999999973,
      "d": 1696.0775833333319,
      "v": 47
    },
    {
      "midi": 64,
      "hit": false,
      "t": 121176.40999999973,
      "d": 1696.0775833333319,
      "v": 47
    },
    {
      "midi": 54,
      "hit": false,
      "t": 121176.40999999973,
      "d": 2352.9400000000023,
      "v": 47
    },
    {
      "midi": 61,
      "hit": false,
      "t": 121470.52749999991,
      "d": 225.49008333333768,
      "v": 61
    },
    {
      "midi": 64,
      "hit": false,
      "t": 121470.52749999991,
      "d": 225.49008333333768,
      "v": 61
    },
    {
      "midi": 66,
      "hit": false,
      "t": 121470.52749999991,
      "d": 225.49008333333768,
      "v": 61
    },
    {
      "midi": 69,
      "hit": false,
      "t": 121470.52749999991,
      "d": 225.49008333333768,
      "v": 61
    },
    {
      "midi": 50,
      "hit": false,
      "t": 122058.76249999991,
      "d": 343.13708333332033,
      "v": 51
    },
    {
      "midi": 61,
      "hit": false,
      "t": 122352.8799999999,
      "d": 343.13708333332033,
      "v": 60
    },
    {
      "midi": 64,
      "hit": false,
      "t": 122352.8799999999,
      "d": 343.13708333332033,
      "v": 60
    },
    {
      "midi": 66,
      "hit": false,
      "t": 122352.8799999999,
      "d": 343.13708333332033,
      "v": 60
    },
    {
      "midi": 69,
      "hit": false,
      "t": 122352.8799999999,
      "d": 343.13708333332033,
      "v": 60
    },
    {
      "midi": 61,
      "hit": false,
      "t": 122941.11499999973,
      "d": 588.2350000000006,
      "v": 54
    },
    {
      "midi": 64,
      "hit": false,
      "t": 122941.11499999973,
      "d": 588.2350000000006,
      "v": 54
    },
    {
      "midi": 69,
      "hit": false,
      "t": 122941.11499999973,
      "d": 588.2350000000006,
      "v": 54
    },
    {
      "midi": 61,
      "hit": false,
      "t": 122941.11499999989,
      "d": 186.2744166666671,
      "v": 61
    },
    {
      "midi": 64,
      "hit": false,
      "t": 122941.11499999989,
      "d": 186.2744166666671,
      "v": 61
    },
    {
      "midi": 66,
      "hit": false,
      "t": 122941.11499999989,
      "d": 186.2744166666671,
      "v": 61
    },
    {
      "midi": 69,
      "hit": false,
      "t": 122941.11499999989,
      "d": 186.2744166666671,
      "v": 61
    },
    {
      "midi": 61,
      "hit": false,
      "t": 123529.34999999973,
      "d": 274.509666666665,
      "v": 38
    },
    {
      "midi": 64,
      "hit": false,
      "t": 123529.34999999973,
      "d": 274.509666666665,
      "v": 38
    },
    {
      "midi": 69,
      "hit": false,
      "t": 123529.34999999973,
      "d": 274.509666666665,
      "v": 38
    },
    {
      "midi": 54,
      "hit": false,
      "t": 123529.34999999973,
      "d": 882.3524999999936,
      "v": 38
    },
    {
      "midi": 61,
      "hit": false,
      "t": 123529.34999999989,
      "d": 1068.6269166666607,
      "v": 61
    },
    {
      "midi": 64,
      "hit": false,
      "t": 123529.34999999989,
      "d": 1068.6269166666607,
      "v": 61
    },
    {
      "midi": 66,
      "hit": false,
      "t": 123529.34999999989,
      "d": 1068.6269166666607,
      "v": 61
    },
    {
      "midi": 69,
      "hit": false,
      "t": 123529.34999999989,
      "d": 1068.6269166666607,
      "v": 61
    },
    {
      "midi": 61,
      "hit": false,
      "t": 123823.46749999972,
      "d": 563.7252083333296,
      "v": 45
    },
    {
      "midi": 64,
      "hit": false,
      "t": 123823.46749999972,
      "d": 563.7252083333296,
      "v": 45
    },
    {
      "midi": 66,
      "hit": false,
      "t": 123823.46749999972,
      "d": 563.7252083333296,
      "v": 45
    },
    {
      "midi": 69,
      "hit": false,
      "t": 123823.46749999972,
      "d": 563.7252083333296,
      "v": 45
    },
    {
      "midi": 61,
      "hit": false,
      "t": 124411.70249999972,
      "d": 294.117499999993,
      "v": 48
    },
    {
      "midi": 64,
      "hit": false,
      "t": 124411.70249999972,
      "d": 294.117499999993,
      "v": 48
    },
    {
      "midi": 69,
      "hit": false,
      "t": 124411.70249999972,
      "d": 294.117499999993,
      "v": 48
    },
    {
      "midi": 54,
      "hit": false,
      "t": 124411.70249999972,
      "d": 2352.939999999973,
      "v": 48
    },
    {
      "midi": 59,
      "hit": false,
      "t": 124705.81999999972,
      "d": 882.3524999999936,
      "v": 34
    },
    {
      "midi": 62,
      "hit": false,
      "t": 124705.81999999972,
      "d": 882.3524999999936,
      "v": 34
    },
    {
      "midi": 64,
      "hit": false,
      "t": 124705.81999999972,
      "d": 882.3524999999936,
      "v": 34
    },
    {
      "midi": 68,
      "hit": false,
      "t": 124705.81999999972,
      "d": 1176.4699999999866,
      "v": 34
    },
    {
      "midi": 59,
      "hit": false,
      "t": 124705.81999999989,
      "d": 1068.6269166666607,
      "v": 61
    },
    {
      "midi": 62,
      "hit": false,
      "t": 124705.81999999989,
      "d": 1068.6269166666607,
      "v": 61
    },
    {
      "midi": 64,
      "hit": false,
      "t": 124705.81999999989,
      "d": 1068.6269166666607,
      "v": 61
    },
    {
      "midi": 68,
      "hit": false,
      "t": 124705.81999999989,
      "d": 1068.6269166666607,
      "v": 61
    },
    {
      "midi": 62,
      "hit": false,
      "t": 125588.17249999971,
      "d": 294.117499999993,
      "v": 44
    },
    {
      "midi": 65,
      "hit": false,
      "t": 125588.17249999971,
      "d": 2352.939999999988,
      "v": 44
    },
    {
      "midi": 57,
      "hit": false,
      "t": 125882.2899999997,
      "d": 2352.939999999988,
      "v": 54
    },
    {
      "midi": 61,
      "hit": false,
      "t": 125882.28999999989,
      "d": 205.8822499999951,
      "v": 65
    },
    {
      "midi": 64,
      "hit": false,
      "t": 125882.28999999989,
      "d": 205.8822499999951,
      "v": 65
    },
    {
      "midi": 68,
      "hit": false,
      "t": 125882.28999999989,
      "d": 205.8822499999951,
      "v": 65
    },
    {
      "midi": 71,
      "hit": false,
      "t": 125882.28999999989,
      "d": 205.8822499999951,
      "v": 65
    },
    {
      "midi": 56,
      "hit": false,
      "t": 126176.4074999997,
      "d": 544.1173750000016,
      "v": 43
    },
    {
      "midi": 61,
      "hit": false,
      "t": 126176.4074999997,
      "d": 544.1173750000016,
      "v": 43
    },
    {
      "midi": 64,
      "hit": false,
      "t": 126176.4074999997,
      "d": 544.1173750000016,
      "v": 43
    },
    {
      "midi": 71,
      "hit": false,
      "t": 126176.4074999997,
      "d": 544.1173750000016,
      "v": 43
    },
    {
      "midi": 61,
      "hit": false,
      "t": 126176.40749999988,
      "d": 166.66658333333908,
      "v": 61
    },
    {
      "midi": 64,
      "hit": false,
      "t": 126176.40749999988,
      "d": 166.66658333333908,
      "v": 61
    },
    {
      "midi": 68,
      "hit": false,
      "t": 126176.40749999988,
      "d": 166.66658333333908,
      "v": 61
    },
    {
      "midi": 71,
      "hit": false,
      "t": 126176.40749999988,
      "d": 166.66658333333908,
      "v": 61
    },
    {
      "midi": 61,
      "hit": false,
      "t": 126764.64249999989,
      "d": 926.4701250000071,
      "v": 61
    },
    {
      "midi": 64,
      "hit": false,
      "t": 126764.64249999989,
      "d": 926.4701250000071,
      "v": 61
    },
    {
      "midi": 68,
      "hit": false,
      "t": 126764.64249999989,
      "d": 926.4701250000071,
      "v": 61
    },
    {
      "midi": 71,
      "hit": false,
      "t": 126764.64249999989,
      "d": 926.4701250000071,
      "v": 61
    },
    {
      "midi": 56,
      "hit": false,
      "t": 127352.8774999997,
      "d": 34.31370833332767,
      "v": 50
    },
    {
      "midi": 61,
      "hit": false,
      "t": 127352.8774999997,
      "d": 34.31370833332767,
      "v": 50
    },
    {
      "midi": 64,
      "hit": false,
      "t": 127352.8774999997,
      "d": 34.31370833332767,
      "v": 50
    },
    {
      "midi": 71,
      "hit": false,
      "t": 127352.8774999997,
      "d": 34.31370833332767,
      "v": 50
    },
    {
      "midi": 61,
      "hit": false,
      "t": 127941.1124999997,
      "d": 19.607833333328017,
      "v": 56
    },
    {
      "midi": 64,
      "hit": false,
      "t": 127941.1124999997,
      "d": 19.607833333328017,
      "v": 56
    },
    {
      "midi": 68,
      "hit": false,
      "t": 127941.1124999997,
      "d": 19.607833333328017,
      "v": 56
    },
    {
      "midi": 71,
      "hit": false,
      "t": 127941.1124999997,
      "d": 19.607833333328017,
      "v": 56
    },
    {
      "midi": 61,
      "hit": false,
      "t": 128235.2299999999,
      "d": 921.5681666666642,
      "v": 65
    },
    {
      "midi": 66,
      "hit": false,
      "t": 128235.2299999999,
      "d": 921.5681666666642,
      "v": 65
    },
    {
      "midi": 70,
      "hit": false,
      "t": 128235.2299999999,
      "d": 921.5681666666642,
      "v": 65
    },
    {
      "midi": 61,
      "hit": false,
      "t": 129117.58249999968,
      "d": 1176.4700000000012,
      "v": 54
    },
    {
      "midi": 54,
      "hit": false,
      "t": 129117.58249999968,
      "d": 2352.939999999988,
      "v": 54
    },
    {
      "midi": 58,
      "hit": false,
      "t": 129117.58249999968,
      "d": 2352.939999999988,
      "v": 54
    },
    {
      "midi": 42,
      "hit": false,
      "t": 129117.58249999989,
      "d": 328.43120833333523,
      "v": 60
    },
    {
      "midi": 61,
      "hit": false,
      "t": 129411.6999999999,
      "d": 397.05862499999057,
      "v": 64
    },
    {
      "midi": 66,
      "hit": false,
      "t": 129411.6999999999,
      "d": 397.05862499999057,
      "v": 64
    },
    {
      "midi": 70,
      "hit": false,
      "t": 129411.6999999999,
      "d": 397.05862499999057,
      "v": 64
    },
    {
      "midi": 61,
      "hit": false,
      "t": 129999.93499999988,
      "d": 200.98029166666674,
      "v": 76
    },
    {
      "midi": 66,
      "hit": false,
      "t": 129999.93499999988,
      "d": 200.98029166666674,
      "v": 76
    },
    {
      "midi": 70,
      "hit": false,
      "t": 129999.93499999988,
      "d": 200.98029166666674,
      "v": 76
    },
    {
      "midi": 59,
      "hit": false,
      "t": 130588.16999999968,
      "d": 294.117499999993,
      "v": 54
    },
    {
      "midi": 57,
      "hit": false,
      "t": 130588.16999999988,
      "d": 205.8822499999951,
      "v": 65
    },
    {
      "midi": 59,
      "hit": false,
      "t": 130588.16999999988,
      "d": 205.8822499999951,
      "v": 65
    },
    {
      "midi": 62,
      "hit": false,
      "t": 130588.16999999988,
      "d": 205.8822499999951,
      "v": 65
    },
    {
      "midi": 66,
      "hit": false,
      "t": 130588.16999999988,
      "d": 205.8822499999951,
      "v": 65
    },
    {
      "midi": 66,
      "hit": false,
      "t": 130882.28749999967,
      "d": 588.2350000000006,
      "v": 48
    },
    {
      "midi": 57,
      "hit": false,
      "t": 130882.28749999967,
      "d": 1147.0582499999873,
      "v": 48
    },
    {
      "midi": 62,
      "hit": false,
      "t": 130882.28749999967,
      "d": 1147.0582499999873,
      "v": 48
    },
    {
      "midi": 71,
      "hit": false,
      "t": 130882.28749999967,
      "d": 2352.9399999999587,
      "v": 48
    },
    {
      "midi": 57,
      "hit": false,
      "t": 130882.28749999987,
      "d": 166.66658333333908,
      "v": 61
    },
    {
      "midi": 59,
      "hit": false,
      "t": 130882.28749999987,
      "d": 166.66658333333908,
      "v": 61
    },
    {
      "midi": 62,
      "hit": false,
      "t": 130882.28749999987,
      "d": 166.66658333333908,
      "v": 61
    },
    {
      "midi": 66,
      "hit": false,
      "t": 130882.28749999987,
      "d": 166.66658333333908,
      "v": 61
    },
    {
      "midi": 57,
      "hit": false,
      "t": 131470.52249999988,
      "d": 926.4701249999925,
      "v": 61
    },
    {
      "midi": 59,
      "hit": false,
      "t": 131470.52249999988,
      "d": 926.4701249999925,
      "v": 61
    },
    {
      "midi": 62,
      "hit": false,
      "t": 131470.52249999988,
      "d": 926.4701249999925,
      "v": 61
    },
    {
      "midi": 66,
      "hit": false,
      "t": 131470.52249999988,
      "d": 926.4701249999925,
      "v": 61
    },
    {
      "midi": 66,
      "hit": false,
      "t": 132058.75749999966,
      "d": 269.6077083333221,
      "v": 38
    },
    {
      "midi": 57,
      "hit": false,
      "t": 132352.87499999965,
      "d": 588.234999999986,
      "v": 42
    },
    {
      "midi": 59,
      "hit": false,
      "t": 132352.87499999965,
      "d": 588.234999999986,
      "v": 42
    },
    {
      "midi": 62,
      "hit": false,
      "t": 132352.87499999965,
      "d": 588.234999999986,
      "v": 42
    },
    {
      "midi": 66,
      "hit": false,
      "t": 132352.87499999965,
      "d": 588.234999999986,
      "v": 42
    },
    {
      "midi": 57,
      "hit": false,
      "t": 132941.10999999964,
      "d": 1176.4700000000012,
      "v": 47
    },
    {
      "midi": 62,
      "hit": false,
      "t": 132941.10999999964,
      "d": 1176.4700000000012,
      "v": 47
    },
    {
      "midi": 66,
      "hit": false,
      "t": 132941.10999999964,
      "d": 1176.4700000000012,
      "v": 47
    },
    {
      "midi": 61,
      "hit": false,
      "t": 132941.10999999964,
      "d": 2352.939999999973,
      "v": 47
    },
    {
      "midi": 59,
      "hit": false,
      "t": 133235.22749999986,
      "d": 637.2545833333279,
      "v": 72
    },
    {
      "midi": 62,
      "hit": false,
      "t": 133235.22749999986,
      "d": 637.2545833333279,
      "v": 72
    },
    {
      "midi": 66,
      "hit": false,
      "t": 133235.22749999986,
      "d": 637.2545833333279,
      "v": 72
    },
    {
      "midi": 69,
      "hit": false,
      "t": 133235.22749999986,
      "d": 637.2545833333279,
      "v": 72
    },
    {
      "midi": 62,
      "hit": false,
      "t": 134117.57999999964,
      "d": 294.117499999993,
      "v": 41
    },
    {
      "midi": 56,
      "hit": false,
      "t": 134117.57999999964,
      "d": 1176.469999999972,
      "v": 41
    },
    {
      "midi": 65,
      "hit": false,
      "t": 134117.57999999964,
      "d": 1176.469999999972,
      "v": 41
    },
    {
      "midi": 72,
      "hit": false,
      "t": 134117.57999999964,
      "d": 1176.469999999972,
      "v": 41
    },
    {
      "midi": 59,
      "hit": false,
      "t": 134411.69749999986,
      "d": 637.2545833333279,
      "v": 72
    },
    {
      "midi": 62,
      "hit": false,
      "t": 134411.69749999986,
      "d": 637.2545833333279,
      "v": 72
    },
    {
      "midi": 64,
      "hit": false,
      "t": 134411.69749999986,
      "d": 637.2545833333279,
      "v": 72
    },
    {
      "midi": 68,
      "hit": false,
      "t": 134411.69749999986,
      "d": 637.2545833333279,
      "v": 72
    },
    {
      "midi": 59,
      "hit": false,
      "t": 134999.93249999962,
      "d": 294.117499999993,
      "v": 54
    },
    {
      "midi": 62,
      "hit": false,
      "t": 134999.93249999962,
      "d": 294.117499999993,
      "v": 54
    },
    {
      "midi": 64,
      "hit": false,
      "t": 134999.93249999962,
      "d": 294.117499999993,
      "v": 54
    },
    {
      "midi": 68,
      "hit": false,
      "t": 134999.93249999962,
      "d": 294.117499999993,
      "v": 54
    },
    {
      "midi": 57,
      "hit": false,
      "t": 135294.0499999996,
      "d": 294.117499999993,
      "v": 54
    },
    {
      "midi": 57,
      "hit": false,
      "t": 135294.04999999987,
      "d": 2249.99887499999,
      "v": 67
    },
    {
      "midi": 61,
      "hit": false,
      "t": 135294.04999999987,
      "d": 2249.99887499999,
      "v": 67
    },
    {
      "midi": 64,
      "hit": false,
      "t": 135294.04999999987,
      "d": 2249.99887499999,
      "v": 67
    },
    {
      "midi": 57,
      "hit": false,
      "t": 135588.1674999996,
      "d": 1147.0582500000019,
      "v": 48
    },
    {
      "midi": 64,
      "hit": false,
      "t": 135588.1674999996,
      "d": 1147.0582500000019,
      "v": 48
    },
    {
      "midi": 69,
      "hit": false,
      "t": 135588.1674999996,
      "d": 1147.0582500000019,
      "v": 48
    },
    {
      "midi": 64,
      "hit": false,
      "t": 136764.6374999996,
      "d": 269.6077083333221,
      "v": 38
    },
    {
      "midi": 57,
      "hit": false,
      "t": 137058.7549999996,
      "d": 588.234999999986,
      "v": 42
    },
    {
      "midi": 61,
      "hit": false,
      "t": 137058.7549999996,
      "d": 588.234999999986,
      "v": 42
    },
    {
      "midi": 64,
      "hit": false,
      "t": 137058.7549999996,
      "d": 588.234999999986,
      "v": 42
    },
    {
      "midi": 57,
      "hit": false,
      "t": 137941.10749999987,
      "d": 225.49008333333768,
      "v": 61
    },
    {
      "midi": 61,
      "hit": false,
      "t": 137941.10749999987,
      "d": 225.49008333333768,
      "v": 61
    },
    {
      "midi": 65,
      "hit": false,
      "t": 137941.10749999987,
      "d": 225.49008333333768,
      "v": 61
    },
    {
      "midi": 57,
      "hit": false,
      "t": 137955.8133749996,
      "d": 573.5291250000009,
      "v": 48
    },
    {
      "midi": 61,
      "hit": false,
      "t": 137955.8133749996,
      "d": 573.5291250000009,
      "v": 48
    },
    {
      "midi": 65,
      "hit": false,
      "t": 137955.8133749996,
      "d": 573.5291250000009,
      "v": 48
    },
    {
      "midi": 45,
      "hit": false,
      "t": 138529.34249999988,
      "d": 343.1370833333349,
      "v": 51
    },
    {
      "midi": 57,
      "hit": false,
      "t": 138539.14641666625,
      "d": 1460.7835833333374,
      "v": 57
    },
    {
      "midi": 61,
      "hit": false,
      "t": 138539.14641666625,
      "d": 1460.7835833333374,
      "v": 57
    },
    {
      "midi": 65,
      "hit": false,
      "t": 138539.14641666625,
      "d": 1460.7835833333374,
      "v": 57
    },
    {
      "midi": 57,
      "hit": false,
      "t": 138823.45999999988,
      "d": 343.1370833333349,
      "v": 60
    },
    {
      "midi": 61,
      "hit": false,
      "t": 138823.45999999988,
      "d": 343.1370833333349,
      "v": 60
    },
    {
      "midi": 65,
      "hit": false,
      "t": 138823.45999999988,
      "d": 343.1370833333349,
      "v": 60
    },
    {
      "midi": 57,
      "hit": false,
      "t": 139411.6949999999,
      "d": 186.27441666665254,
      "v": 61
    },
    {
      "midi": 61,
      "hit": false,
      "t": 139411.6949999999,
      "d": 186.27441666665254,
      "v": 61
    },
    {
      "midi": 65,
      "hit": false,
      "t": 139411.6949999999,
      "d": 186.27441666665254,
      "v": 61
    },
    {
      "midi": 59,
      "hit": false,
      "t": 139999.9299999996,
      "d": 294.117499999993,
      "v": 37
    },
    {
      "midi": 62,
      "hit": false,
      "t": 139999.92999999988,
      "d": 205.8822499999951,
      "v": 65
    },
    {
      "midi": 66,
      "hit": false,
      "t": 139999.92999999988,
      "d": 205.8822499999951,
      "v": 65
    },
    {
      "midi": 69,
      "hit": false,
      "t": 139999.92999999988,
      "d": 205.8822499999951,
      "v": 65
    },
    {
      "midi": 71,
      "hit": false,
      "t": 139999.92999999988,
      "d": 205.8822499999951,
      "v": 65
    },
    {
      "midi": 66,
      "hit": false,
      "t": 140294.04749999958,
      "d": 553.9212916666584,
      "v": 46
    },
    {
      "midi": 62,
      "hit": false,
      "t": 140294.04749999987,
      "d": 166.66658333333908,
      "v": 61
    },
    {
      "midi": 66,
      "hit": false,
      "t": 140294.04749999987,
      "d": 166.66658333333908,
      "v": 61
    },
    {
      "midi": 69,
      "hit": false,
      "t": 140294.04749999987,
      "d": 166.66658333333908,
      "v": 61
    },
    {
      "midi": 71,
      "hit": false,
      "t": 140294.04749999987,
      "d": 166.66658333333908,
      "v": 61
    },
    {
      "midi": 71,
      "hit": false,
      "t": 140882.28249999956,
      "d": 1176.4700000000012,
      "v": 54
    },
    {
      "midi": 62,
      "hit": false,
      "t": 140882.28249999988,
      "d": 926.4701249999925,
      "v": 61
    },
    {
      "midi": 66,
      "hit": false,
      "t": 140882.28249999988,
      "d": 926.4701249999925,
      "v": 61
    },
    {
      "midi": 69,
      "hit": false,
      "t": 140882.28249999988,
      "d": 926.4701249999925,
      "v": 61
    },
    {
      "midi": 71,
      "hit": false,
      "t": 140882.28249999988,
      "d": 926.4701249999925,
      "v": 61
    },
    {
      "midi": 57,
      "hit": false,
      "t": 141470.51749999955,
      "d": 44.117625000013504,
      "v": 58
    },
    {
      "midi": 59,
      "hit": false,
      "t": 141470.51749999955,
      "d": 44.117625000013504,
      "v": 58
    },
    {
      "midi": 62,
      "hit": false,
      "t": 141470.51749999955,
      "d": 44.117625000013504,
      "v": 58
    },
    {
      "midi": 66,
      "hit": false,
      "t": 141470.51749999955,
      "d": 44.117625000013504,
      "v": 58
    },
    {
      "midi": 71,
      "hit": false,
      "t": 142058.75249999957,
      "d": 2352.9400000000023,
      "v": 52
    },
    {
      "midi": 59,
      "hit": false,
      "t": 142352.86999999956,
      "d": 294.117499999993,
      "v": 54
    },
    {
      "midi": 57,
      "hit": false,
      "t": 142646.98749999955,
      "d": 882.3525000000081,
      "v": 48
    },
    {
      "midi": 59,
      "hit": false,
      "t": 142646.98749999955,
      "d": 882.3525000000081,
      "v": 48
    },
    {
      "midi": 62,
      "hit": false,
      "t": 142646.98749999955,
      "d": 882.3525000000081,
      "v": 48
    },
    {
      "midi": 66,
      "hit": false,
      "t": 142646.98749999955,
      "d": 882.3525000000081,
      "v": 48
    },
    {
      "midi": 57,
      "hit": false,
      "t": 142646.98749999987,
      "d": 637.2545833333279,
      "v": 72
    },
    {
      "midi": 59,
      "hit": false,
      "t": 142646.98749999987,
      "d": 637.2545833333279,
      "v": 72
    },
    {
      "midi": 62,
      "hit": false,
      "t": 142646.98749999987,
      "d": 637.2545833333279,
      "v": 72
    },
    {
      "midi": 66,
      "hit": false,
      "t": 142646.98749999987,
      "d": 637.2545833333279,
      "v": 72
    },
    {
      "midi": 59,
      "hit": false,
      "t": 143529.33999999956,
      "d": 274.50966666667955,
      "v": 52
    },
    {
      "midi": 57,
      "hit": false,
      "t": 143529.33999999988,
      "d": 2249.99887499999,
      "v": 67
    },
    {
      "midi": 59,
      "hit": false,
      "t": 143529.33999999988,
      "d": 2249.99887499999,
      "v": 67
    },
    {
      "midi": 62,
      "hit": false,
      "t": 143529.33999999988,
      "d": 2249.99887499999,
      "v": 67
    },
    {
      "midi": 66,
      "hit": false,
      "t": 143529.33999999988,
      "d": 2249.99887499999,
      "v": 67
    },
    {
      "midi": 57,
      "hit": false,
      "t": 143823.45749999958,
      "d": 524.5095416666591,
      "v": 36
    },
    {
      "midi": 59,
      "hit": false,
      "t": 143823.45749999958,
      "d": 524.5095416666591,
      "v": 36
    },
    {
      "midi": 62,
      "hit": false,
      "t": 143823.45749999958,
      "d": 524.5095416666591,
      "v": 36
    },
    {
      "midi": 66,
      "hit": false,
      "t": 143823.45749999958,
      "d": 524.5095416666591,
      "v": 36
    },
    {
      "midi": 59,
      "hit": false,
      "t": 144705.80999999956,
      "d": 24.509791666670935,
      "v": 43
    },
    {
      "midi": 57,
      "hit": false,
      "t": 144705.80999999956,
      "d": 573.5291250000009,
      "v": 43
    },
    {
      "midi": 62,
      "hit": false,
      "t": 144705.80999999956,
      "d": 573.5291250000009,
      "v": 43
    },
    {
      "midi": 66,
      "hit": false,
      "t": 144705.80999999956,
      "d": 573.5291250000009,
      "v": 43
    },
    {
      "midi": 59,
      "hit": false,
      "t": 145294.04499999958,
      "d": 303.92141666667885,
      "v": 57
    },
    {
      "midi": 57,
      "hit": false,
      "t": 145597.96641666626,
      "d": 284.3135833333363,
      "v": 34
    },
    {
      "midi": 59,
      "hit": false,
      "t": 145597.96641666626,
      "d": 284.3135833333363,
      "v": 34
    },
    {
      "midi": 62,
      "hit": false,
      "t": 145597.96641666626,
      "d": 284.3135833333363,
      "v": 34
    },
    {
      "midi": 66,
      "hit": false,
      "t": 145597.96641666626,
      "d": 284.3135833333363,
      "v": 34
    },
    {
      "midi": 57,
      "hit": false,
      "t": 145882.27999999988,
      "d": 2249.99887499999,
      "v": 67
    },
    {
      "midi": 59,
      "hit": false,
      "t": 145882.27999999988,
      "d": 2249.99887499999,
      "v": 67
    },
    {
      "midi": 62,
      "hit": false,
      "t": 145882.27999999988,
      "d": 2249.99887499999,
      "v": 67
    },
    {
      "midi": 66,
      "hit": false,
      "t": 145882.27999999988,
      "d": 2249.99887499999,
      "v": 67
    },
    {
      "midi": 57,
      "hit": false,
      "t": 146764.6324999996,
      "d": 1186.273916666658,
      "v": 54
    },
    {
      "midi": 62,
      "hit": false,
      "t": 146764.6324999996,
      "d": 1186.273916666658,
      "v": 54
    },
    {
      "midi": 66,
      "hit": false,
      "t": 146764.6324999996,
      "d": 1186.273916666658,
      "v": 54
    },
    {
      "midi": 73,
      "hit": false,
      "t": 146764.6324999996,
      "d": 2352.939999999973,
      "v": 54
    },
    {
      "midi": 57,
      "hit": false,
      "t": 148235.2199999996,
      "d": 294.117499999993,
      "v": 54
    },
    {
      "midi": 61,
      "hit": false,
      "t": 148235.21999999988,
      "d": 2249.99887499999,
      "v": 67
    },
    {
      "midi": 64,
      "hit": false,
      "t": 148235.21999999988,
      "d": 2249.99887499999,
      "v": 67
    },
    {
      "midi": 68,
      "hit": false,
      "t": 148235.21999999988,
      "d": 2249.99887499999,
      "v": 67
    },
    {
      "midi": 71,
      "hit": false,
      "t": 148235.21999999988,
      "d": 2249.99887499999,
      "v": 67
    },
    {
      "midi": 56,
      "hit": false,
      "t": 148529.3374999996,
      "d": 1147.0582499999728,
      "v": 48
    },
    {
      "midi": 59,
      "hit": false,
      "t": 148529.3374999996,
      "d": 1147.0582499999728,
      "v": 48
    },
    {
      "midi": 64,
      "hit": false,
      "t": 149705.80749999956,
      "d": 269.6077083333221,
      "v": 38
    },
    {
      "midi": 61,
      "hit": false,
      "t": 149999.92499999955,
      "d": 588.234999999986,
      "v": 42
    },
    {
      "midi": 64,
      "hit": false,
      "t": 149999.92499999955,
      "d": 588.234999999986,
      "v": 42
    },
    {
      "midi": 68,
      "hit": false,
      "t": 149999.92499999955,
      "d": 2352.9400000000023,
      "v": 42
    },
    {
      "midi": 71,
      "hit": false,
      "t": 149999.92499999955,
      "d": 2352.9400000000023,
      "v": 42
    },
    {
      "midi": 62,
      "hit": false,
      "t": 150588.1599999999,
      "d": 921.5681666666642,
      "v": 65
    },
    {
      "midi": 66,
      "hit": false,
      "t": 150588.1599999999,
      "d": 921.5681666666642,
      "v": 65
    },
    {
      "midi": 69,
      "hit": false,
      "t": 150588.1599999999,
      "d": 921.5681666666642,
      "v": 65
    },
    {
      "midi": 71,
      "hit": false,
      "t": 150588.1599999999,
      "d": 921.5681666666642,
      "v": 65
    },
    {
      "midi": 73,
      "hit": false,
      "t": 151470.51249999955,
      "d": 2352.939999999973,
      "v": 54
    },
    {
      "midi": 47,
      "hit": false,
      "t": 151470.5124999999,
      "d": 328.4312083333207,
      "v": 60
    },
    {
      "midi": 62,
      "hit": false,
      "t": 151764.6299999999,
      "d": 397.0586250000051,
      "v": 64
    },
    {
      "midi": 66,
      "hit": false,
      "t": 151764.6299999999,
      "d": 397.0586250000051,
      "v": 64
    },
    {
      "midi": 69,
      "hit": false,
      "t": 151764.6299999999,
      "d": 397.0586250000051,
      "v": 64
    },
    {
      "midi": 71,
      "hit": false,
      "t": 151764.6299999999,
      "d": 397.0586250000051,
      "v": 64
    },
    {
      "midi": 62,
      "hit": false,
      "t": 152352.8649999999,
      "d": 200.98029166666674,
      "v": 76
    },
    {
      "midi": 66,
      "hit": false,
      "t": 152352.8649999999,
      "d": 200.98029166666674,
      "v": 76
    },
    {
      "midi": 69,
      "hit": false,
      "t": 152352.8649999999,
      "d": 200.98029166666674,
      "v": 76
    },
    {
      "midi": 71,
      "hit": false,
      "t": 152352.8649999999,
      "d": 200.98029166666674,
      "v": 76
    },
    {
      "midi": 57,
      "hit": false,
      "t": 152646.98249999955,
      "d": 294.117499999993,
      "v": 52
    },
    {
      "midi": 59,
      "hit": false,
      "t": 152646.98249999955,
      "d": 294.117499999993,
      "v": 52
    },
    {
      "midi": 62,
      "hit": false,
      "t": 152646.98249999955,
      "d": 294.117499999993,
      "v": 52
    },
    {
      "midi": 66,
      "hit": false,
      "t": 152646.98249999955,
      "d": 294.117499999993,
      "v": 52
    },
    {
      "midi": 61,
      "hit": false,
      "t": 152941.0999999999,
      "d": 921.5681666666642,
      "v": 65
    },
    {
      "midi": 64,
      "hit": false,
      "t": 152941.0999999999,
      "d": 921.5681666666642,
      "v": 65
    },
    {
      "midi": 66,
      "hit": false,
      "t": 152941.0999999999,
      "d": 921.5681666666642,
      "v": 65
    },
    {
      "midi": 69,
      "hit": false,
      "t": 152941.0999999999,
      "d": 921.5681666666642,
      "v": 65
    },
    {
      "midi": 61,
      "hit": false,
      "t": 153235.21749999953,
      "d": 9.803916666656733,
      "v": 50
    },
    {
      "midi": 64,
      "hit": false,
      "t": 153235.21749999953,
      "d": 9.803916666656733,
      "v": 50
    },
    {
      "midi": 66,
      "hit": false,
      "t": 153235.21749999953,
      "d": 9.803916666656733,
      "v": 50
    },
    {
      "midi": 69,
      "hit": false,
      "t": 153235.21749999953,
      "d": 9.803916666656733,
      "v": 50
    },
    {
      "midi": 61,
      "hit": false,
      "t": 153823.45249999952,
      "d": 279.4116250000079,
      "v": 53
    },
    {
      "midi": 64,
      "hit": false,
      "t": 153823.45249999952,
      "d": 279.4116250000079,
      "v": 53
    },
    {
      "midi": 66,
      "hit": false,
      "t": 153823.45249999952,
      "d": 279.4116250000079,
      "v": 53
    },
    {
      "midi": 69,
      "hit": false,
      "t": 153823.45249999952,
      "d": 279.4116250000079,
      "v": 53
    },
    {
      "midi": 50,
      "hit": false,
      "t": 153823.4524999999,
      "d": 328.4312083333207,
      "v": 60
    },
    {
      "midi": 61,
      "hit": false,
      "t": 154117.56999999954,
      "d": 294.117499999993,
      "v": 48
    },
    {
      "midi": 64,
      "hit": false,
      "t": 154117.56999999954,
      "d": 294.117499999993,
      "v": 48
    },
    {
      "midi": 66,
      "hit": false,
      "t": 154117.56999999954,
      "d": 294.117499999993,
      "v": 48
    },
    {
      "midi": 69,
      "hit": false,
      "t": 154117.56999999954,
      "d": 294.117499999993,
      "v": 48
    },
    {
      "midi": 61,
      "hit": false,
      "t": 154117.5699999999,
      "d": 397.0586250000051,
      "v": 64
    },
    {
      "midi": 64,
      "hit": false,
      "t": 154117.5699999999,
      "d": 397.0586250000051,
      "v": 64
    },
    {
      "midi": 66,
      "hit": false,
      "t": 154117.5699999999,
      "d": 397.0586250000051,
      "v": 64
    },
    {
      "midi": 69,
      "hit": false,
      "t": 154117.5699999999,
      "d": 397.0586250000051,
      "v": 64
    },
    {
      "midi": 61,
      "hit": false,
      "t": 154705.8049999999,
      "d": 200.98029166666674,
      "v": 76
    },
    {
      "midi": 64,
      "hit": false,
      "t": 154705.8049999999,
      "d": 200.98029166666674,
      "v": 76
    },
    {
      "midi": 66,
      "hit": false,
      "t": 154705.8049999999,
      "d": 200.98029166666674,
      "v": 76
    },
    {
      "midi": 69,
      "hit": false,
      "t": 154705.8049999999,
      "d": 200.98029166666674,
      "v": 76
    },
    {
      "midi": 61,
      "hit": false,
      "t": 154999.92249999952,
      "d": 294.117499999993,
      "v": 54
    },
    {
      "midi": 64,
      "hit": false,
      "t": 154999.92249999952,
      "d": 294.117499999993,
      "v": 54
    },
    {
      "midi": 66,
      "hit": false,
      "t": 154999.92249999952,
      "d": 294.117499999993,
      "v": 54
    },
    {
      "midi": 69,
      "hit": false,
      "t": 154999.92249999952,
      "d": 294.117499999993,
      "v": 54
    },
    {
      "midi": 61,
      "hit": false,
      "t": 155294.0399999995,
      "d": 1176.4700000000012,
      "v": 47
    },
    {
      "midi": 69,
      "hit": false,
      "t": 155294.0399999995,
      "d": 1176.4700000000012,
      "v": 47
    },
    {
      "midi": 76,
      "hit": false,
      "t": 155294.0399999995,
      "d": 2352.9400000000023,
      "v": 47
    },
    {
      "midi": 57,
      "hit": false,
      "t": 155294.0399999999,
      "d": 1068.6269166666607,
      "v": 61
    },
    {
      "midi": 61,
      "hit": false,
      "t": 155294.0399999999,
      "d": 1068.6269166666607,
      "v": 61
    },
    {
      "midi": 64,
      "hit": false,
      "t": 155294.0399999999,
      "d": 1068.6269166666607,
      "v": 61
    },
    {
      "midi": 57,
      "hit": false,
      "t": 156470.5099999999,
      "d": 1068.6269166666607,
      "v": 61
    },
    {
      "midi": 61,
      "hit": false,
      "t": 156470.5099999999,
      "d": 1068.6269166666607,
      "v": 61
    },
    {
      "midi": 66,
      "hit": false,
      "t": 156470.5099999999,
      "d": 1068.6269166666607,
      "v": 61
    },
    {
      "midi": 61,
      "hit": false,
      "t": 156779.33337499952,
      "d": 573.5291250000009,
      "v": 48
    },
    {
      "midi": 66,
      "hit": false,
      "t": 156779.33337499952,
      "d": 573.5291250000009,
      "v": 48
    },
    {
      "midi": 57,
      "hit": false,
      "t": 157362.66641666618,
      "d": 284.3135833333363,
      "v": 57
    },
    {
      "midi": 61,
      "hit": false,
      "t": 157362.66641666618,
      "d": 284.3135833333363,
      "v": 57
    },
    {
      "midi": 66,
      "hit": false,
      "t": 157362.66641666618,
      "d": 284.3135833333363,
      "v": 57
    },
    {
      "midi": 59,
      "hit": false,
      "t": 157646.97999999952,
      "d": 294.117499999993,
      "v": 37
    },
    {
      "midi": 57,
      "hit": false,
      "t": 157646.9799999999,
      "d": 2249.99887499999,
      "v": 67
    },
    {
      "midi": 59,
      "hit": false,
      "t": 157646.9799999999,
      "d": 2249.99887499999,
      "v": 67
    },
    {
      "midi": 62,
      "hit": false,
      "t": 157646.9799999999,
      "d": 2249.99887499999,
      "v": 67
    },
    {
      "midi": 66,
      "hit": false,
      "t": 157646.9799999999,
      "d": 2249.99887499999,
      "v": 67
    },
    {
      "midi": 66,
      "hit": false,
      "t": 157941.0974999995,
      "d": 553.9212916666584,
      "v": 46
    },
    {
      "midi": 57,
      "hit": false,
      "t": 159117.56749999948,
      "d": 44.117625000013504,
      "v": 58
    },
    {
      "midi": 59,
      "hit": false,
      "t": 159117.56749999948,
      "d": 44.117625000013504,
      "v": 58
    },
    {
      "midi": 62,
      "hit": false,
      "t": 159117.56749999948,
      "d": 44.117625000013504,
      "v": 58
    },
    {
      "midi": 66,
      "hit": false,
      "t": 159117.56749999948,
      "d": 44.117625000013504,
      "v": 58
    },
    {
      "midi": 62,
      "hit": false,
      "t": 159705.8024999995,
      "d": 294.117499999993,
      "v": 52
    },
    {
      "midi": 66,
      "hit": false,
      "t": 159705.8024999995,
      "d": 294.117499999993,
      "v": 52
    },
    {
      "midi": 59,
      "hit": false,
      "t": 159705.8024999995,
      "d": 588.234999999986,
      "v": 52
    },
    {
      "midi": 57,
      "hit": false,
      "t": 159705.8024999995,
      "d": 2352.939999999886,
      "v": 52
    },
    {
      "midi": 62,
      "hit": false,
      "t": 159999.9199999995,
      "d": 294.117499999993,
      "v": 44
    },
    {
      "midi": 66,
      "hit": false,
      "t": 159999.9199999995,
      "d": 294.117499999993,
      "v": 44
    },
    {
      "midi": 59,
      "hit": false,
      "t": 160294.0374999999,
      "d": 225.49008333333768,
      "v": 61
    },
    {
      "midi": 62,
      "hit": false,
      "t": 160294.0374999999,
      "d": 225.49008333333768,
      "v": 61
    },
    {
      "midi": 66,
      "hit": false,
      "t": 160294.0374999999,
      "d": 225.49008333333768,
      "v": 61
    },
    {
      "midi": 68,
      "hit": false,
      "t": 160294.0374999999,
      "d": 225.49008333333768,
      "v": 61
    },
    {
      "midi": 56,
      "hit": false,
      "t": 160882.27249999947,
      "d": 254.90183333330788,
      "v": 47
    },
    {
      "midi": 62,
      "hit": false,
      "t": 160882.27249999947,
      "d": 254.90183333330788,
      "v": 47
    },
    {
      "midi": 66,
      "hit": false,
      "t": 160882.27249999947,
      "d": 254.90183333330788,
      "v": 47
    },
    {
      "midi": 71,
      "hit": false,
      "t": 160882.27249999947,
      "d": 254.90183333330788,
      "v": 47
    },
    {
      "midi": 52,
      "hit": false,
      "t": 160882.27249999988,
      "d": 343.1370833333349,
      "v": 51
    },
    {
      "midi": 59,
      "hit": false,
      "t": 161176.38999999943,
      "d": 210.78420833332348,
      "v": 43
    },
    {
      "midi": 62,
      "hit": false,
      "t": 161176.38999999943,
      "d": 210.78420833332348,
      "v": 43
    },
    {
      "midi": 66,
      "hit": false,
      "t": 161176.38999999943,
      "d": 210.78420833332348,
      "v": 43
    },
    {
      "midi": 68,
      "hit": false,
      "t": 161176.38999999943,
      "d": 210.78420833332348,
      "v": 43
    },
    {
      "midi": 59,
      "hit": false,
      "t": 161176.38999999987,
      "d": 343.1370833333349,
      "v": 60
    },
    {
      "midi": 62,
      "hit": false,
      "t": 161176.38999999987,
      "d": 343.1370833333349,
      "v": 60
    },
    {
      "midi": 66,
      "hit": false,
      "t": 161176.38999999987,
      "d": 343.1370833333349,
      "v": 60
    },
    {
      "midi": 68,
      "hit": false,
      "t": 161176.38999999987,
      "d": 343.1370833333349,
      "v": 60
    },
    {
      "midi": 59,
      "hit": false,
      "t": 161470.50749999942,
      "d": 882.3524999999499,
      "v": 65
    },
    {
      "midi": 62,
      "hit": false,
      "t": 161470.50749999942,
      "d": 882.3524999999499,
      "v": 65
    },
    {
      "midi": 66,
      "hit": false,
      "t": 161470.50749999942,
      "d": 882.3524999999499,
      "v": 65
    },
    {
      "midi": 68,
      "hit": false,
      "t": 161470.50749999942,
      "d": 882.3524999999499,
      "v": 65
    },
    {
      "midi": 59,
      "hit": false,
      "t": 161764.62499999985,
      "d": 186.27441666668165,
      "v": 61
    },
    {
      "midi": 62,
      "hit": false,
      "t": 161764.62499999985,
      "d": 186.27441666668165,
      "v": 61
    },
    {
      "midi": 66,
      "hit": false,
      "t": 161764.62499999985,
      "d": 186.27441666668165,
      "v": 61
    },
    {
      "midi": 68,
      "hit": false,
      "t": 161764.62499999985,
      "d": 186.27441666668165,
      "v": 61
    },
    {
      "midi": 57,
      "hit": false,
      "t": 162352.85999999984,
      "d": 1504.9012083332636,
      "v": 64
    },
    {
      "midi": 61,
      "hit": false,
      "t": 162352.85999999984,
      "d": 1504.9012083332636,
      "v": 64
    },
    {
      "midi": 64,
      "hit": false,
      "t": 162352.85999999984,
      "d": 1504.9012083332636,
      "v": 64
    },
    {
      "midi": 54,
      "hit": false,
      "t": 163235.21249999932,
      "d": 2352.939999999944,
      "v": 54
    },
    {
      "midi": 62,
      "hit": false,
      "t": 163529.3299999998,
      "d": 294.1174999999639,
      "v": 55
    },
    {
      "midi": 66,
      "hit": false,
      "t": 163823.44749999978,
      "d": 34.31370833332767,
      "v": 52
    },
    {
      "midi": 69,
      "hit": false,
      "t": 164117.56499999977,
      "d": 289.21554166666465,
      "v": 60
    },
    {
      "midi": 61,
      "hit": false,
      "t": 164411.6824999993,
      "d": 294.117499999993,
      "v": 52
    },
    {
      "midi": 64,
      "hit": false,
      "t": 164411.6824999993,
      "d": 294.117499999993,
      "v": 52
    },
    {
      "midi": 69,
      "hit": false,
      "t": 164411.6824999993,
      "d": 294.117499999993,
      "v": 52
    },
    {
      "midi": 76,
      "hit": false,
      "t": 164411.68249999976,
      "d": 102.94112500001211,
      "v": 76
    },
    {
      "midi": 61,
      "hit": false,
      "t": 164705.7999999993,
      "d": 882.352499999979,
      "v": 34
    },
    {
      "midi": 64,
      "hit": false,
      "t": 164705.7999999993,
      "d": 882.352499999979,
      "v": 34
    },
    {
      "midi": 66,
      "hit": false,
      "t": 164705.7999999993,
      "d": 882.352499999979,
      "v": 34
    },
    {
      "midi": 69,
      "hit": false,
      "t": 164705.7999999993,
      "d": 882.352499999979,
      "v": 34
    },
    {
      "midi": 61,
      "hit": false,
      "t": 164705.79999999978,
      "d": 1068.6269166666316,
      "v": 61
    },
    {
      "midi": 64,
      "hit": false,
      "t": 164705.79999999978,
      "d": 1068.6269166666316,
      "v": 61
    },
    {
      "midi": 66,
      "hit": false,
      "t": 164705.79999999978,
      "d": 1068.6269166666316,
      "v": 61
    },
    {
      "midi": 69,
      "hit": false,
      "t": 164705.79999999978,
      "d": 1068.6269166666316,
      "v": 61
    },
    {
      "midi": 61,
      "hit": false,
      "t": 165588.15249999927,
      "d": 294.117499999993,
      "v": 44
    },
    {
      "midi": 64,
      "hit": false,
      "t": 165588.15249999927,
      "d": 294.117499999993,
      "v": 44
    },
    {
      "midi": 69,
      "hit": false,
      "t": 165588.15249999927,
      "d": 294.117499999993,
      "v": 44
    },
    {
      "midi": 54,
      "hit": false,
      "t": 165588.15249999927,
      "d": 2352.939999999915,
      "v": 44
    },
    {
      "midi": 59,
      "hit": false,
      "t": 165882.26999999976,
      "d": 1068.6269166666316,
      "v": 61
    },
    {
      "midi": 62,
      "hit": false,
      "t": 165882.26999999976,
      "d": 1068.6269166666316,
      "v": 61
    },
    {
      "midi": 64,
      "hit": false,
      "t": 165882.26999999976,
      "d": 1068.6269166666316,
      "v": 61
    },
    {
      "midi": 68,
      "hit": false,
      "t": 165882.26999999976,
      "d": 1068.6269166666316,
      "v": 61
    },
    {
      "midi": 65,
      "hit": false,
      "t": 166764.6224999992,
      "d": 294.117499999993,
      "v": 54
    },
    {
      "midi": 72,
      "hit": false,
      "t": 166764.6224999992,
      "d": 294.117499999993,
      "v": 54
    },
    {
      "midi": 62,
      "hit": false,
      "t": 166764.6224999992,
      "d": 2352.939999999944,
      "v": 54
    },
    {
      "midi": 56,
      "hit": false,
      "t": 167058.7399999992,
      "d": 274.50966666665045,
      "v": 38
    },
    {
      "midi": 61,
      "hit": false,
      "t": 167058.7399999992,
      "d": 274.50966666665045,
      "v": 38
    },
    {
      "midi": 64,
      "hit": false,
      "t": 167058.7399999992,
      "d": 274.50966666665045,
      "v": 38
    },
    {
      "midi": 61,
      "hit": false,
      "t": 167058.73999999973,
      "d": 921.5681666666351,
      "v": 65
    },
    {
      "midi": 64,
      "hit": false,
      "t": 167058.73999999973,
      "d": 921.5681666666351,
      "v": 65
    },
    {
      "midi": 68,
      "hit": false,
      "t": 167058.73999999973,
      "d": 921.5681666666351,
      "v": 65
    },
    {
      "midi": 71,
      "hit": false,
      "t": 167058.73999999973,
      "d": 921.5681666666351,
      "v": 65
    },
    {
      "midi": 61,
      "hit": false,
      "t": 167352.8574999992,
      "d": 563.7252083333151,
      "v": 45
    },
    {
      "midi": 64,
      "hit": false,
      "t": 167352.8574999992,
      "d": 563.7252083333151,
      "v": 45
    },
    {
      "midi": 71,
      "hit": false,
      "t": 167352.8574999992,
      "d": 563.7252083333151,
      "v": 45
    },
    {
      "midi": 68,
      "hit": false,
      "t": 167352.8574999992,
      "d": 1176.469999999972,
      "v": 45
    },
    {
      "midi": 61,
      "hit": false,
      "t": 167941.09249999918,
      "d": 588.234999999986,
      "v": 48
    },
    {
      "midi": 64,
      "hit": false,
      "t": 167941.09249999918,
      "d": 588.234999999986,
      "v": 48
    },
    {
      "midi": 71,
      "hit": false,
      "t": 167941.09249999918,
      "d": 588.234999999986,
      "v": 48
    },
    {
      "midi": 45,
      "hit": false,
      "t": 167941.0924999997,
      "d": 328.4312083333207,
      "v": 60
    },
    {
      "midi": 61,
      "hit": false,
      "t": 168235.2099999997,
      "d": 397.0586250000051,
      "v": 64
    },
    {
      "midi": 64,
      "hit": false,
      "t": 168235.2099999997,
      "d": 397.0586250000051,
      "v": 64
    },
    {
      "midi": 68,
      "hit": false,
      "t": 168235.2099999997,
      "d": 397.0586250000051,
      "v": 64
    },
    {
      "midi": 71,
      "hit": false,
      "t": 168235.2099999997,
      "d": 397.0586250000051,
      "v": 64
    },
    {
      "midi": 68,
      "hit": false,
      "t": 168529.32749999917,
      "d": 1176.469999999972,
      "v": 54
    },
    {
      "midi": 61,
      "hit": false,
      "t": 168823.4449999997,
      "d": 200.98029166666674,
      "v": 76
    },
    {
      "midi": 64,
      "hit": false,
      "t": 168823.4449999997,
      "d": 200.98029166666674,
      "v": 76
    },
    {
      "midi": 68,
      "hit": false,
      "t": 168823.4449999997,
      "d": 200.98029166666674,
      "v": 76
    },
    {
      "midi": 71,
      "hit": false,
      "t": 168823.4449999997,
      "d": 200.98029166666674,
      "v": 76
    },
    {
      "midi": 56,
      "hit": false,
      "t": 169117.56249999916,
      "d": 14.705875000014203,
      "v": 54
    },
    {
      "midi": 61,
      "hit": false,
      "t": 169117.56249999916,
      "d": 14.705875000014203,
      "v": 54
    },
    {
      "midi": 64,
      "hit": false,
      "t": 169117.56249999916,
      "d": 14.705875000014203,
      "v": 54
    },
    {
      "midi": 71,
      "hit": false,
      "t": 169117.56249999916,
      "d": 14.705875000014203,
      "v": 54
    }
  ]
}