{
  "jsonPath": "Rock/Deep Soft Rock/Randy Goodrum/you-needed-me.json",
  "path": "Rock\\Deep Soft Rock\\Randy Goodrum\\You Needed Me.mid",
  "name": "You Needed Me",
  "difficulty": "Advanced",
  "bpm": 64,
  "notes": [
    {
      "midi": 43,
      "hit": false,
      "t": 0,
      "d": 468.75,
      "v": 100
    },
    {
      "midi": 50,
      "hit": false,
      "t": 468.75,
      "d": 468.75,
      "v": 100
    },
    {
      "midi": 59,
      "hit": false,
      "t": 937.5,
      "d": 468.75,
      "v": 100
    },
    {
      "midi": 55,
      "hit": false,
      "t": 937.5,
      "d": 468.75,
      "v": 100
    },
    {
      "midi": 55,
      "hit": false,
      "t": 1406.25,
      "d": 468.75,
      "v": 100
    },
    {
      "midi": 43,
      "hit": false,
      "t": 1406.25,
      "d": 6093.75,
      "v": 100
    },
    {
      "midi": 54,
      "hit": false,
      "t": 1875,
      "d": 468.75,
      "v": 100
    },
    {
      "midi": 55,
      "hit": false,
      "t": 2343.75,
      "d": 468.75,
      "v": 100
    },
    {
      "midi": 57,
      "hit": false,
      "t": 2812.5,
      "d": 468.75,
      "v": 100
    },
    {
      "midi": 55,
      "hit": false,
      "t": 3281.25,
      "d": 1406.25,
      "v": 100
    },
    {
      "midi": 62,
      "hit": false,
      "t": 4687.5,
      "d": 937.5,
      "v": 100
    },
    {
      "midi": 67,
      "hit": false,
      "t": 4687.5,
      "d": 937.5,
      "v": 100
    },
    {
      "midi": 71,
      "hit": false,
      "t": 4687.5,
      "d": 937.5,
      "v": 100
    },
    {
      "midi": 64,
      "hit": false,
      "t": 5625,
      "d": 937.5,
      "v": 100
    },
    {
      "midi": 67,
      "hit": false,
      "t": 5625,
      "d": 937.5,
      "v": 100
    },
    {
      "midi": 72,
      "hit": false,
      "t": 5625,
      "d": 937.5,
      "v": 100
    },
    {
      "midi": 59,
      "hit": false,
      "t": 6562.5,
      "d": 937.5,
      "v": 100
    },
    {
      "midi": 62,
      "hit": false,
      "t": 6562.5,
      "d": 937.5,
      "v": 100
    },
    {
      "midi": 67,
      "hit": false,
      "t": 6562.5,
      "d": 937.5,
      "v": 100
    },
    {
      "midi": 43,
      "hit": false,
      "t": 7500,
      "d": 468.75,
      "v": 100
    },
    {
      "midi": 50,
      "hit": false,
      "t": 7968.75,
      "d": 468.75,
      "v": 100
    },
    {
      "midi": 71,
      "hit": false,
      "t": 8437.5,
      "d": 468.75,
      "v": 100
    },
    {
      "midi": 55,
      "hit": false,
      "t": 8437.5,
      "d": 468.75,
      "v": 100
    },
    {
      "midi": 67,
      "hit": false,
      "t": 8906.25,
      "d": 468.75,
      "v": 100
    },
    {
      "midi": 43,
      "hit": false,
      "t": 8906.25,
      "d": 2343.75,
      "v": 100
    },
    {
      "midi": 66,
      "hit": false,
      "t": 9375,
      "d": 468.75,
      "v": 100
    },
    {
      "midi": 67,
      "hit": false,
      "t": 9843.75,
      "d": 468.75,
      "v": 100
    },
    {
      "midi": 74,
      "hit": false,
      "t": 10312.5,
      "d": 468.75,
      "v": 100
    },
    {
      "midi": 64,
      "hit": false,
      "t": 10781.25,
      "d": 2343.75,
      "v": 100
    },
    {
      "midi": 67,
      "hit": false,
      "t": 10781.25,
      "d": 2343.75,
      "v": 100
    },
    {
      "midi": 38,
      "hit": false,
      "t": 11250,
      "d": 1406.25,
      "v": 100
    },
    {
      "midi": 38,
      "hit": false,
      "t": 12656.25,
      "d": 468.75,
      "v": 100
    },
    {
      "midi": 38,
      "hit": false,
      "t": 13125,
      "d": 1875,
      "v": 100
    },
    {
      "midi": 62,
      "hit": false,
      "t": 13593.75,
      "d": 468.75,
      "v": 100
    },
    {
      "midi": 62,
      "hit": false,
      "t": 14062.5,
      "d": 468.75,
      "v": 100
    },
    {
      "midi": 74,
      "hit": false,
      "t": 14531.25,
      "d": 468.75,
      "v": 100
    },
    {
      "midi": 67,
      "hit": false,
      "t": 15000,
      "d": 468.75,
      "v": 100
    },
    {
      "midi": 74,
      "hit": false,
      "t": 15000,
      "d": 468.75,
      "v": 100
    },
    {
      "midi": 43,
      "hit": false,
      "t": 15000,
      "d": 1406.25,
      "v": 100
    },
    {
      "midi": 62,
      "hit": false,
      "t": 15468.75,
      "d": 468.75,
      "v": 100
    },
    {
      "midi": 67,
      "hit": false,
      "t": 15937.5,
      "d": 468.75,
      "v": 100
    },
    {
      "midi": 62,
      "hit": false,
      "t": 16406.25,
      "d": 468.75,
      "v": 100
    },
    {
      "midi": 43,
      "hit": false,
      "t": 16406.25,
      "d": 468.75,
      "v": 100
    },
    {
      "midi": 71,
      "hit": false,
      "t": 16875,
      "d": 468.75,
      "v": 100
    },
    {
      "midi": 43,
      "hit": false,
      "t": 16875,
      "d": 1875,
      "v": 100
    },
    {
      "midi": 62,
      "hit": false,
      "t": 17343.75,
      "d": 468.75,
      "v": 100
    },
    {
      "midi": 62,
      "hit": false,
      "t": 17812.5,
      "d": 468.75,
      "v": 100
    },
    {
      "midi": 74,
      "hit": false,
      "t": 18281.25,
      "d": 468.75,
      "v": 100
    },
    {
      "midi": 64,
      "hit": false,
      "t": 18750,
      "d": 468.75,
      "v": 100
    },
    {
      "midi": 72,
      "hit": false,
      "t": 18750,
      "d": 468.75,
      "v": 100
    },
    {
      "midi": 43,
      "hit": false,
      "t": 18750,
      "d": 1406.25,
      "v": 100
    },
    {
      "midi": 60,
      "hit": false,
      "t": 19218.75,
      "d": 468.75,
      "v": 100
    },
    {
      "midi": 64,
      "hit": false,
      "t": 19687.5,
      "d": 468.75,
      "v": 100
    },
    {
      "midi": 60,
      "hit": false,
      "t": 20156.25,
      "d": 468.75,
      "v": 100
    },
    {
      "midi": 43,
      "hit": false,
      "t": 20156.25,
      "d": 468.75,
      "v": 100
    },
    {
      "midi": 67,
      "hit": false,
      "t": 20625,
      "d": 468.75,
      "v": 100
    },
    {
      "midi": 43,
      "hit": false,
      "t": 20625,
      "d": 1875,
      "v": 100
    },
    {
      "midi": 62,
      "hit": false,
      "t": 21093.75,
      "d": 468.75,
      "v": 100
    },
    {
      "midi": 62,
      "hit": false,
      "t": 21562.5,
      "d": 468.75,
      "v": 100
    },
    {
      "midi": 72,
      "hit": false,
      "t": 22031.25,
      "d": 468.75,
      "v": 100
    },
    {
      "midi": 65,
      "hit": false,
      "t": 22500,
      "d": 468.75,
      "v": 100
    },
    {
      "midi": 72,
      "hit": false,
      "t": 22500,
      "d": 468.75,
      "v": 100
    },
    {
      "midi": 43,
      "hit": false,
      "t": 22500,
      "d": 1406.25,
      "v": 100
    },
    {
      "midi": 62,
      "hit": false,
      "t": 22968.75,
      "d": 468.75,
      "v": 100
    },
    {
      "midi": 65,
      "hit": false,
      "t": 23437.5,
      "d": 468.75,
      "v": 100
    },
    {
      "midi": 62,
      "hit": false,
      "t": 23906.25,
      "d": 468.75,
      "v": 100
    },
    {
      "midi": 43,
      "hit": false,
      "t": 23906.25,
      "d": 468.75,
      "v": 100
    },
    {
      "midi": 69,
      "hit": false,
      "t": 24375,
      "d": 468.75,
      "v": 100
    },
    {
      "midi": 43,
      "hit": false,
      "t": 24375,
      "d": 1875,
      "v": 100
    },
    {
      "midi": 62,
      "hit": false,
      "t": 24843.75,
      "d": 468.75,
      "v": 100
    },
    {
      "midi": 62,
      "hit": false,
      "t": 25312.5,
      "d": 468.75,
      "v": 100
    },
    {
      "midi": 72,
      "hit": false,
      "t": 25781.25,
      "d": 468.75,
      "v": 100
    },
    {
      "midi": 67,
      "hit": false,
      "t": 26250,
      "d": 468.75,
      "v": 100
    },
    {
      "midi": 71,
      "hit": false,
      "t": 26250,
      "d": 468.75,
      "v": 100
    },
    {
      "midi": 43,
      "hit": false,
      "t": 26250,
      "d": 1406.25,
      "v": 100
    },
    {
      "midi": 62,
      "hit": false,
      "t": 26718.75,
      "d": 468.75,
      "v": 100
    },
    {
      "midi": 67,
      "hit": false,
      "t": 27187.5,
      "d": 468.75,
      "v": 100
    },
    {
      "midi": 62,
      "hit": false,
      "t": 27656.25,
      "d": 468.75,
      "v": 100
    },
    {
      "midi": 43,
      "hit": false,
      "t": 27656.25,
      "d": 468.75,
      "v": 100
    },
    {
      "midi": 71,
      "hit": false,
      "t": 28125,
      "d": 468.75,
      "v": 100
    },
    {
      "midi": 43,
      "hit": false,
      "t": 28125,
      "d": 1875,
      "v": 100
    },
    {
      "midi": 62,
      "hit": false,
      "t": 28593.75,
      "d": 468.75,
      "v": 100
    },
    {
      "midi": 62,
      "hit": false,
      "t": 29062.5,
      "d": 468.75,
      "v": 100
    },
    {
      "midi": 74,
      "hit": false,
      "t": 29531.25,
      "d": 468.75,
      "v": 100
    },
    {
      "midi": 66,
      "hit": false,
      "t": 30000,
      "d": 468.75,
      "v": 100
    },
    {
      "midi": 74,
      "hit": false,
      "t": 30000,
      "d": 468.75,
      "v": 100
    },
    {
      "midi": 47,
      "hit": false,
      "t": 30000,
      "d": 1406.25,
      "v": 100
    },
    {
      "midi": 62,
      "hit": false,
      "t": 30468.75,
      "d": 468.75,
      "v": 100
    },
    {
      "midi": 66,
      "hit": false,
      "t": 30937.5,
      "d": 468.75,
      "v": 100
    },
    {
      "midi": 62,
      "hit": false,
      "t": 31406.25,
      "d": 468.75,
      "v": 100
    },
    {
      "midi": 47,
      "hit": false,
      "t": 31406.25,
      "d": 468.75,
      "v": 100
    },
    {
      "midi": 71,
      "hit": false,
      "t": 31875,
      "d": 468.75,
      "v": 100
    },
    {
      "midi": 47,
      "hit": false,
      "t": 31875,
      "d": 1875,
      "v": 100
    },
    {
      "midi": 67,
      "hit": false,
      "t": 32343.75,
      "d": 468.75,
      "v": 100
    },
    {
      "midi": 67,
      "hit": false,
      "t": 32812.5,
      "d": 468.75,
      "v": 100
    },
    {
      "midi": 77,
      "hit": false,
      "t": 33281.25,
      "d": 468.75,
      "v": 100
    },
    {
      "midi": 67,
      "hit": false,
      "t": 33750,
      "d": 468.75,
      "v": 100
    },
    {
      "midi": 72,
      "hit": false,
      "t": 33750,
      "d": 468.75,
      "v": 100
    },
    {
      "midi": 77,
      "hit": false,
      "t": 33750,
      "d": 468.75,
      "v": 100
    },
    {
      "midi": 48,
      "hit": false,
      "t": 33750,
      "d": 1406.25,
      "v": 100
    },
    {
      "midi": 67,
      "hit": false,
      "t": 34218.75,
      "d": 234.375,
      "v": 100
    },
    {
      "midi": 72,
      "hit": false,
      "t": 34218.75,
      "d": 234.375,
      "v": 100
    },
    {
      "midi": 76,
      "hit": false,
      "t": 34218.75,
      "d": 234.375,
      "v": 100
    },
    {
      "midi": 67,
      "hit": false,
      "t": 34453.125,
      "d": 1171.875,
      "v": 100
    },
    {
      "midi": 72,
      "hit": false,
      "t": 34453.125,
      "d": 1171.875,
      "v": 100
    },
    {
      "midi": 76,
      "hit": false,
      "t": 34453.125,
      "d": 1171.875,
      "v": 100
    },
    {
      "midi": 48,
      "hit": false,
      "t": 35156.25,
      "d": 468.75,
      "v": 100
    },
    {
      "midi": 48,
      "hit": false,
      "t": 35625,
      "d": 1875,
      "v": 100
    },
    {
      "midi": 67,
      "hit": false,
      "t": 36093.75,
      "d": 468.75,
      "v": 100
    },
    {
      "midi": 67,
      "hit": false,
      "t": 36562.5,
      "d": 468.75,
      "v": 100
    },
    {
      "midi": 76,
      "hit": false,
      "t": 37031.25,
      "d": 468.75,
      "v": 100
    },
    {
      "midi": 67,
      "hit": false,
      "t": 37500,
      "d": 468.75,
      "v": 100
    },
    {
      "midi": 76,
      "hit": false,
      "t": 37500,
      "d": 468.75,
      "v": 100
    },
    {
      "midi": 45,
      "hit": false,
      "t": 37500,
      "d": 1406.25,
      "v": 100
    },
    {
      "midi": 64,
      "hit": false,
      "t": 37968.75,
      "d": 468.75,
      "v": 100
    },
    {
      "midi": 67,
      "hit": false,
      "t": 38437.5,
      "d": 468.75,
      "v": 100
    },
    {
      "midi": 64,
      "hit": false,
      "t": 38906.25,
      "d": 468.75,
      "v": 100
    },
    {
      "midi": 45,
      "hit": false,
      "t": 38906.25,
      "d": 468.75,
      "v": 100
    },
    {
      "midi": 73,
      "hit": false,
      "t": 39375,
      "d": 468.75,
      "v": 100
    },
    {
      "midi": 45,
      "hit": false,
      "t": 39375,
      "d": 1875,
      "v": 100
    },
    {
      "midi": 69,
      "hit": false,
      "t": 39843.75,
      "d": 468.75,
      "v": 100
    },
    {
      "midi": 69,
      "hit": false,
      "t": 40312.5,
      "d": 468.75,
      "v": 100
    },
    {
      "midi": 79,
      "hit": false,
      "t": 40781.25,
      "d": 468.75,
      "v": 100
    },
    {
      "midi": 69,
      "hit": false,
      "t": 41250,
      "d": 468.75,
      "v": 100
    },
    {
      "midi": 74,
      "hit": false,
      "t": 41250,
      "d": 468.75,
      "v": 100
    },
    {
      "midi": 79,
      "hit": false,
      "t": 41250,
      "d": 468.75,
      "v": 100
    },
    {
      "midi": 38,
      "hit": false,
      "t": 41250,
      "d": 1406.25,
      "v": 100
    },
    {
      "midi": 69,
      "hit": false,
      "t": 41718.75,
      "d": 234.375,
      "v": 100
    },
    {
      "midi": 74,
      "hit": false,
      "t": 41718.75,
      "d": 234.375,
      "v": 100
    },
    {
      "midi": 78,
      "hit": false,
      "t": 41718.75,
      "d": 234.375,
      "v": 100
    },
    {
      "midi": 69,
      "hit": false,
      "t": 41953.125,
      "d": 1171.875,
      "v": 100
    },
    {
      "midi": 74,
      "hit": false,
      "t": 41953.125,
      "d": 1171.875,
      "v": 100
    },
    {
      "midi": 78,
      "hit": false,
      "t": 41953.125,
      "d": 1171.875,
      "v": 100
    },
    {
      "midi": 38,
      "hit": false,
      "t": 42656.25,
      "d": 468.75,
      "v": 100
    },
    {
      "midi": 38,
      "hit": false,
      "t": 43125,
      "d": 1875,
      "v": 100
    },
    {
      "midi": 76,
      "hit": false,
      "t": 43593.75,
      "d": 468.75,
      "v": 100
    },
    {
      "midi": 76,
      "hit": false,
      "t": 44062.5,
      "d": 468.75,
      "v": 100
    },
    {
      "midi": 76,
      "hit": false,
      "t": 44531.25,
      "d": 468.75,
      "v": 100
    },
    {
      "midi": 66,
      "hit": false,
      "t": 45000,
      "d": 468.75,
      "v": 100
    },
    {
      "midi": 69,
      "hit": false,
      "t": 45000,
      "d": 468.75,
      "v": 100
    },
    {
      "midi": 76,
      "hit": false,
      "t": 45000,
      "d": 468.75,
      "v": 100
    },
    {
      "midi": 38,
      "hit": false,
      "t": 45000,
      "d": 1406.25,
      "v": 100
    },
    {
      "midi": 66,
      "hit": false,
      "t": 45468.75,
      "d": 234.375,
      "v": 100
    },
    {
      "midi": 69,
      "hit": false,
      "t": 45468.75,
      "d": 234.375,
      "v": 100
    },
    {
      "midi": 74,
      "hit": false,
      "t": 45468.75,
      "d": 234.375,
      "v": 100
    },
    {
      "midi": 66,
      "hit": false,
      "t": 45703.125,
      "d": 1171.875,
      "v": 100
    },
    {
      "midi": 69,
      "hit": false,
      "t": 45703.125,
      "d": 1171.875,
      "v": 100
    },
    {
      "midi": 74,
      "hit": false,
      "t": 45703.125,
      "d": 1171.875,
      "v": 100
    },
    {
      "midi": 38,
      "hit": false,
      "t": 46406.25,
      "d": 468.75,
      "v": 100
    },
    {
      "midi": 38,
      "hit": false,
      "t": 46875,
      "d": 1875,
      "v": 100
    },
    {
      "midi": 62,
      "hit": false,
      "t": 47343.75,
      "d": 468.75,
      "v": 100
    },
    {
      "midi": 62,
      "hit": false,
      "t": 47812.5,
      "d": 468.75,
      "v": 100
    },
    {
      "midi": 74,
      "hit": false,
      "t": 48281.25,
      "d": 468.75,
      "v": 100
    },
    {
      "midi": 67,
      "hit": false,
      "t": 48750,
      "d": 1875,
      "v": 100
    },
    {
      "midi": 71,
      "hit": false,
      "t": 48750,
      "d": 1875,
      "v": 100
    },
    {
      "midi": 74,
      "hit": false,
      "t": 48750,
      "d": 1875,
      "v": 100
    },
    {
      "midi": 43,
      "hit": false,
      "t": 48750,
      "d": 468.75,
      "v": 100
    },
    {
      "midi": 50,
      "hit": false,
      "t": 49218.75,
      "d": 468.75,
      "v": 100
    },
    {
      "midi": 55,
      "hit": false,
      "t": 49687.5,
      "d": 468.75,
      "v": 100
    },
    {
      "midi": 50,
      "hit": false,
      "t": 50156.25,
      "d": 468.75,
      "v": 100
    },
    {
      "midi": 59,
      "hit": false,
      "t": 50625,
      "d": 1875,
      "v": 100
    },
    {
      "midi": 62,
      "hit": false,
      "t": 51093.75,
      "d": 468.75,
      "v": 100
    },
    {
      "midi": 62,
      "hit": false,
      "t": 51562.5,
      "d": 468.75,
      "v": 100
    },
    {
      "midi": 74,
      "hit": false,
      "t": 52031.25,
      "d": 468.75,
      "v": 100
    },
    {
      "midi": 64,
      "hit": false,
      "t": 52500,
      "d": 468.75,
      "v": 100
    },
    {
      "midi": 67,
      "hit": false,
      "t": 52500,
      "d": 468.75,
      "v": 100
    },
    {
      "midi": 74,
      "hit": false,
      "t": 52500,
      "d": 468.75,
      "v": 100
    },
    {
      "midi": 43,
      "hit": false,
      "t": 52500,
      "d": 468.75,
      "v": 100
    },
    {
      "midi": 64,
      "hit": false,
      "t": 52968.75,
      "d": 234.375,
      "v": 100
    },
    {
      "midi": 67,
      "hit": false,
      "t": 52968.75,
      "d": 234.375,
      "v": 100
    },
    {
      "midi": 72,
      "hit": false,
      "t": 52968.75,
      "d": 234.375,
      "v": 100
    },
    {
      "midi": 52,
      "hit": false,
      "t": 52968.75,
      "d": 468.75,
      "v": 100
    },
    {
      "midi": 64,
      "hit": false,
      "t": 53203.125,
      "d": 1171.875,
      "v": 100
    },
    {
      "midi": 67,
      "hit": false,
      "t": 53203.125,
      "d": 1171.875,
      "v": 100
    },
    {
      "midi": 72,
      "hit": false,
      "t": 53203.125,
      "d": 1171.875,
      "v": 100
    },
    {
      "midi": 55,
      "hit": false,
      "t": 53437.5,
      "d": 468.75,
      "v": 100
    },
    {
      "midi": 52,
      "hit": false,
      "t": 53906.25,
      "d": 468.75,
      "v": 100
    },
    {
      "midi": 60,
      "hit": false,
      "t": 54375,
      "d": 1875,
      "v": 100
    },
    {
      "midi": 62,
      "hit": false,
      "t": 54843.75,
      "d": 468.75,
      "v": 100
    },
    {
      "midi": 62,
      "hit": false,
      "t": 55312.5,
      "d": 468.75,
      "v": 100
    },
    {
      "midi": 72,
      "hit": false,
      "t": 55781.25,
      "d": 468.75,
      "v": 100
    },
    {
      "midi": 66,
      "hit": false,
      "t": 56250,
      "d": 1875,
      "v": 100
    },
    {
      "midi": 69,
      "hit": false,
      "t": 56250,
      "d": 1875,
      "v": 100
    },
    {
      "midi": 72,
      "hit": false,
      "t": 56250,
      "d": 1875,
      "v": 100
    },
    {
      "midi": 43,
      "hit": false,
      "t": 56250,
      "d": 468.75,
      "v": 100
    },
    {
      "midi": 50,
      "hit": false,
      "t": 56718.75,
      "d": 468.75,
      "v": 100
    },
    {
      "midi": 57,
      "hit": false,
      "t": 57187.5,
      "d": 468.75,
      "v": 100
    },
    {
      "midi": 50,
      "hit": false,
      "t": 57656.25,
      "d": 468.75,
      "v": 100
    },
    {
      "midi": 62,
      "hit": false,
      "t": 58125,
      "d": 1875,
      "v": 100
    },
    {
      "midi": 72,
      "hit": false,
      "t": 58593.75,
      "d": 468.75,
      "v": 100
    },
    {
      "midi": 72,
      "hit": false,
      "t": 59062.5,
      "d": 468.75,
      "v": 100
    },
    {
      "midi": 72,
      "hit": false,
      "t": 59531.25,
      "d": 468.75,
      "v": 100
    },
    {
      "midi": 62,
      "hit": false,
      "t": 60000,
      "d": 468.75,
      "v": 100
    },
    {
      "midi": 67,
      "hit": false,
      "t": 60000,
      "d": 468.75,
      "v": 100
    },
    {
      "midi": 72,
      "hit": false,
      "t": 60000,
      "d": 468.75,
      "v": 100
    },
    {
      "midi": 43,
      "hit": false,
      "t": 60000,
      "d": 468.75,
      "v": 100
    },
    {
      "midi": 74,
      "hit": false,
      "t": 60468.75,
      "d": 234.375,
      "v": 100
    },
    {
      "midi": 50,
      "hit": false,
      "t": 60468.75,
      "d": 468.75,
      "v": 100
    },
    {
      "midi": 62,
      "hit": false,
      "t": 60703.125,
      "d": 1171.875,
      "v": 100
    },
    {
      "midi": 67,
      "hit": false,
      "t": 60703.125,
      "d": 1171.875,
      "v": 100
    },
    {
      "midi": 71,
      "hit": false,
      "t": 60703.125,
      "d": 1171.875,
      "v": 100
    },
    {
      "midi": 55,
      "hit": false,
      "t": 60937.5,
      "d": 468.75,
      "v": 100
    },
    {
      "midi": 50,
      "hit": false,
      "t": 61406.25,
      "d": 468.75,
      "v": 100
    },
    {
      "midi": 59,
      "hit": false,
      "t": 61875,
      "d": 1875,
      "v": 100
    },
    {
      "midi": 62,
      "hit": false,
      "t": 62343.75,
      "d": 468.75,
      "v": 100
    },
    {
      "midi": 62,
      "hit": false,
      "t": 62812.5,
      "d": 468.75,
      "v": 100
    },
    {
      "midi": 74,
      "hit": false,
      "t": 63281.25,
      "d": 468.75,
      "v": 100
    },
    {
      "midi": 74,
      "hit": false,
      "t": 63750,
      "d": 1875,
      "v": 100
    },
    {
      "midi": 47,
      "hit": false,
      "t": 63750,
      "d": 468.75,
      "v": 100
    },
    {
      "midi": 54,
      "hit": false,
      "t": 64218.75,
      "d": 468.75,
      "v": 100
    },
    {
      "midi": 59,
      "hit": false,
      "t": 64687.5,
      "d": 468.75,
      "v": 100
    },
    {
      "midi": 54,
      "hit": false,
      "t": 65156.25,
      "d": 468.75,
      "v": 100
    },
    {
      "midi": 62,
      "hit": false,
      "t": 65625,
      "d": 1875,
      "v": 100
    },
    {
      "midi": 67,
      "hit": false,
      "t": 66093.75,
      "d": 468.75,
      "v": 100
    },
    {
      "midi": 67,
      "hit": false,
      "t": 66562.5,
      "d": 468.75,
      "v": 100
    },
    {
      "midi": 77,
      "hit": false,
      "t": 67031.25,
      "d": 468.75,
      "v": 100
    },
    {
      "midi": 67,
      "hit": false,
      "t": 67500,
      "d": 468.75,
      "v": 100
    },
    {
      "midi": 72,
      "hit": false,
      "t": 67500,
      "d": 468.75,
      "v": 100
    },
    {
      "midi": 77,
      "hit": false,
      "t": 67500,
      "d": 468.75,
      "v": 100
    },
    {
      "midi": 36,
      "hit": false,
      "t": 67500,
      "d": 1406.25,
      "v": 100
    },
    {
      "midi": 67,
      "hit": false,
      "t": 67968.75,
      "d": 234.375,
      "v": 100
    },
    {
      "midi": 72,
      "hit": false,
      "t": 67968.75,
      "d": 234.375,
      "v": 100
    },
    {
      "midi": 76,
      "hit": false,
      "t": 67968.75,
      "d": 234.375,
      "v": 100
    },
    {
      "midi": 67,
      "hit": false,
      "t": 68203.125,
      "d": 2109.375,
      "v": 100
    },
    {
      "midi": 72,
      "hit": false,
      "t": 68203.125,
      "d": 2109.375,
      "v": 100
    },
    {
      "midi": 76,
      "hit": false,
      "t": 68203.125,
      "d": 2109.375,
      "v": 100
    },
    {
      "midi": 36,
      "hit": false,
      "t": 68906.25,
      "d": 468.75,
      "v": 100
    },
    {
      "midi": 36,
      "hit": false,
      "t": 69375,
      "d": 937.5,
      "v": 100
    },
    {
      "midi": 73,
      "hit": false,
      "t": 70312.5,
      "d": 468.75,
      "v": 100
    },
    {
      "midi": 76,
      "hit": false,
      "t": 70312.5,
      "d": 468.75,
      "v": 100
    },
    {
      "midi": 37,
      "hit": false,
      "t": 70312.5,
      "d": 937.5,
      "v": 100
    },
    {
      "midi": 79,
      "hit": false,
      "t": 70781.25,
      "d": 468.75,
      "v": 100
    },
    {
      "midi": 71,
      "hit": false,
      "t": 71250,
      "d": 468.75,
      "v": 100
    },
    {
      "midi": 74,
      "hit": false,
      "t": 71250,
      "d": 468.75,
      "v": 100
    },
    {
      "midi": 79,
      "hit": false,
      "t": 71250,
      "d": 468.75,
      "v": 100
    },
    {
      "midi": 38,
      "hit": false,
      "t": 71250,
      "d": 1406.25,
      "v": 100
    },
    {
      "midi": 74,
      "hit": false,
      "t": 71718.75,
      "d": 234.375,
      "v": 100
    },
    {
      "midi": 67,
      "hit": false,
      "t": 71953.125,
      "d": 703.125,
      "v": 100
    },
    {
      "midi": 71,
      "hit": false,
      "t": 71953.125,
      "d": 703.125,
      "v": 100
    },
    {
      "midi": 74,
      "hit": false,
      "t": 71953.125,
      "d": 703.125,
      "v": 100
    },
    {
      "midi": 71,
      "hit": false,
      "t": 72656.25,
      "d": 234.375,
      "v": 100
    },
    {
      "midi": 38,
      "hit": false,
      "t": 72656.25,
      "d": 468.75,
      "v": 100
    },
    {
      "midi": 63,
      "hit": false,
      "t": 72890.625,
      "d": 468.75,
      "v": 100
    },
    {
      "midi": 67,
      "hit": false,
      "t": 72890.625,
      "d": 468.75,
      "v": 100
    },
    {
      "midi": 71,
      "hit": false,
      "t": 72890.625,
      "d": 468.75,
      "v": 100
    },
    {
      "midi": 39,
      "hit": false,
      "t": 73125,
      "d": 937.5,
      "v": 100
    },
    {
      "midi": 69,
      "hit": false,
      "t": 73359.375,
      "d": 468.75,
      "v": 100
    },
    {
      "midi": 59,
      "hit": false,
      "t": 73828.125,
      "d": 937.5,
      "v": 100
    },
    {
      "midi": 64,
      "hit": false,
      "t": 73828.125,
      "d": 937.5,
      "v": 100
    },
    {
      "midi": 69,
      "hit": false,
      "t": 73828.125,
      "d": 937.5,
      "v": 100
    },
    {
      "midi": 40,
      "hit": false,
      "t": 74062.5,
      "d": 937.5,
      "v": 100
    },
    {
      "midi": 67,
      "hit": false,
      "t": 74765.625,
      "d": 234.375,
      "v": 100
    },
    {
      "midi": 61,
      "hit": false,
      "t": 75000,
      "d": 468.75,
      "v": 100
    },
    {
      "midi": 64,
      "hit": false,
      "t": 75000,
      "d": 468.75,
      "v": 100
    },
    {
      "midi": 71,
      "hit": false,
      "t": 75000,
      "d": 468.75,
      "v": 100
    },
    {
      "midi": 45,
      "hit": false,
      "t": 75000,
      "d": 1406.25,
      "v": 100
    },
    {
      "midi": 61,
      "hit": false,
      "t": 75468.75,
      "d": 234.375,
      "v": 100
    },
    {
      "midi": 64,
      "hit": false,
      "t": 75468.75,
      "d": 234.375,
      "v": 100
    },
    {
      "midi": 69,
      "hit": false,
      "t": 75468.75,
      "d": 234.375,
      "v": 100
    },
    {
      "midi": 61,
      "hit": false,
      "t": 75703.125,
      "d": 2109.375,
      "v": 100
    },
    {
      "midi": 64,
      "hit": false,
      "t": 75703.125,
      "d": 2109.375,
      "v": 100
    },
    {
      "midi": 69,
      "hit": false,
      "t": 75703.125,
      "d": 2109.375,
      "v": 100
    },
    {
      "midi": 45,
      "hit": false,
      "t": 76406.25,
      "d": 468.75,
      "v": 100
    },
    {
      "midi": 45,
      "hit": false,
      "t": 76875,
      "d": 1875,
      "v": 100
    },
    {
      "midi": 71,
      "hit": false,
      "t": 78281.25,
      "d": 468.75,
      "v": 100
    },
    {
      "midi": 60,
      "hit": false,
      "t": 78750,
      "d": 468.75,
      "v": 100
    },
    {
      "midi": 66,
      "hit": false,
      "t": 78750,
      "d": 468.75,
      "v": 100
    },
    {
      "midi": 71,
      "hit": false,
      "t": 78750,
      "d": 468.75,
      "v": 100
    },
    {
      "midi": 38,
      "hit": false,
      "t": 78750,
      "d": 1406.25,
      "v": 100
    },
    {
      "midi": 60,
      "hit": false,
      "t": 79218.75,
      "d": 234.375,
      "v": 100
    },
    {
      "midi": 66,
      "hit": false,
      "t": 79218.75,
      "d": 234.375,
      "v": 100
    },
    {
      "midi": 69,
      "hit": false,
      "t": 79218.75,
      "d": 234.375,
      "v": 100
    },
    {
      "midi": 60,
      "hit": false,
      "t": 79453.125,
      "d": 2109.375,
      "v": 100
    },
    {
      "midi": 66,
      "hit": false,
      "t": 79453.125,
      "d": 2109.375,
      "v": 100
    },
    {
      "midi": 69,
      "hit": false,
      "t": 79453.125,
      "d": 2109.375,
      "v": 100
    },
    {
      "midi": 38,
      "hit": false,
      "t": 80156.25,
      "d": 468.75,
      "v": 100
    },
    {
      "midi": 38,
      "hit": false,
      "t": 80625,
      "d": 1875,
      "v": 100
    },
    {
      "midi": 69,
      "hit": false,
      "t": 82031.25,
      "d": 468.75,
      "v": 100
    },
    {
      "midi": 59,
      "hit": false,
      "t": 82500,
      "d": 468.75,
      "v": 100
    },
    {
      "midi": 62,
      "hit": false,
      "t": 82500,
      "d": 468.75,
      "v": 100
    },
    {
      "midi": 69,
      "hit": false,
      "t": 82500,
      "d": 468.75,
      "v": 100
    },
    {
      "midi": 43,
      "hit": false,
      "t": 82500,
      "d": 1406.25,
      "v": 100
    },
    {
      "midi": 67,
      "hit": false,
      "t": 82968.75,
      "d": 234.375,
      "v": 100
    },
    {
      "midi": 59,
      "hit": false,
      "t": 83203.125,
      "d": 1171.875,
      "v": 100
    },
    {
      "midi": 62,
      "hit": false,
      "t": 83203.125,
      "d": 1171.875,
      "v": 100
    },
    {
      "midi": 67,
      "hit": false,
      "t": 83203.125,
      "d": 1171.875,
      "v": 100
    },
    {
      "midi": 43,
      "hit": false,
      "t": 83906.25,
      "d": 468.75,
      "v": 100
    },
    {
      "midi": 59,
      "hit": false,
      "t": 84375,
      "d": 937.5,
      "v": 100
    },
    {
      "midi": 62,
      "hit": false,
      "t": 84375,
      "d": 937.5,
      "v": 100
    },
    {
      "midi": 43,
      "hit": false,
      "t": 84375,
      "d": 937.5,
      "v": 100
    },
    {
      "midi": 59,
      "hit": false,
      "t": 85312.5,
      "d": 468.75,
      "v": 100
    },
    {
      "midi": 66,
      "hit": false,
      "t": 85312.5,
      "d": 468.75,
      "v": 100
    },
    {
      "midi": 39,
      "hit": false,
      "t": 85312.5,
      "d": 937.5,
      "v": 100
    },
    {
      "midi": 70,
      "hit": false,
      "t": 85781.25,
      "d": 234.375,
      "v": 100
    },
    {
      "midi": 70,
      "hit": false,
      "t": 86015.625,
      "d": 234.375,
      "v": 100
    },
    {
      "midi": 67,
      "hit": false,
      "t": 86250,
      "d": 468.75,
      "v": 100
    },
    {
      "midi": 71,
      "hit": false,
      "t": 86250,
      "d": 468.75,
      "v": 100
    },
    {
      "midi": 76,
      "hit": false,
      "t": 86250,
      "d": 468.75,
      "v": 100
    },
    {
      "midi": 40,
      "hit": false,
      "t": 86250,
      "d": 468.75,
      "v": 100
    },
    {
      "midi": 76,
      "hit": false,
      "t": 86718.75,
      "d": 234.375,
      "v": 100
    },
    {
      "midi": 52,
      "hit": false,
      "t": 86718.75,
      "d": 468.75,
      "v": 100
    },
    {
      "midi": 55,
      "hit": false,
      "t": 86718.75,
      "d": 468.75,
      "v": 100
    },
    {
      "midi": 67,
      "hit": false,
      "t": 86953.125,
      "d": 468.75,
      "v": 100
    },
    {
      "midi": 71,
      "hit": false,
      "t": 86953.125,
      "d": 468.75,
      "v": 100
    },
    {
      "midi": 78,
      "hit": false,
      "t": 86953.125,
      "d": 468.75,
      "v": 100
    },
    {
      "midi": 52,
      "hit": false,
      "t": 87187.5,
      "d": 468.75,
      "v": 100
    },
    {
      "midi": 55,
      "hit": false,
      "t": 87187.5,
      "d": 468.75,
      "v": 100
    },
    {
      "midi": 79,
      "hit": false,
      "t": 87421.875,
      "d": 468.75,
      "v": 100
    },
    {
      "midi": 52,
      "hit": false,
      "t": 87656.25,
      "d": 468.75,
      "v": 100
    },
    {
      "midi": 55,
      "hit": false,
      "t": 87656.25,
      "d": 468.75,
      "v": 100
    },
    {
      "midi": 67,
      "hit": false,
      "t": 87890.625,
      "d": 468.75,
      "v": 100
    },
    {
      "midi": 71,
      "hit": false,
      "t": 87890.625,
      "d": 468.75,
      "v": 100
    },
    {
      "midi": 78,
      "hit": false,
      "t": 87890.625,
      "d": 468.75,
      "v": 100
    },
    {
      "midi": 38,
      "hit": false,
      "t": 88125,
      "d": 468.75,
      "v": 100
    },
    {
      "midi": 76,
      "hit": false,
      "t": 88359.375,
      "d": 468.75,
      "v": 100
    },
    {
      "midi": 52,
      "hit": false,
      "t": 88593.75,
      "d": 468.75,
      "v": 100
    },
    {
      "midi": 55,
      "hit": false,
      "t": 88593.75,
      "d": 468.75,
      "v": 100
    },
    {
      "midi": 67,
      "hit": false,
      "t": 88828.125,
      "d": 468.75,
      "v": 100
    },
    {
      "midi": 71,
      "hit": false,
      "t": 88828.125,
      "d": 468.75,
      "v": 100
    },
    {
      "midi": 52,
      "hit": false,
      "t": 89062.5,
      "d": 468.75,
      "v": 100
    },
    {
      "midi": 55,
      "hit": false,
      "t": 89062.5,
      "d": 468.75,
      "v": 100
    },
    {
      "midi": 67,
      "hit": false,
      "t": 89296.875,
      "d": 468.75,
      "v": 100
    },
    {
      "midi": 52,
      "hit": false,
      "t": 89531.25,
      "d": 468.75,
      "v": 100
    },
    {
      "midi": 55,
      "hit": false,
      "t": 89531.25,
      "d": 468.75,
      "v": 100
    },
    {
      "midi": 64,
      "hit": false,
      "t": 89765.625,
      "d": 468.75,
      "v": 100
    },
    {
      "midi": 69,
      "hit": false,
      "t": 89765.625,
      "d": 468.75,
      "v": 100
    },
    {
      "midi": 36,
      "hit": false,
      "t": 90000,
      "d": 468.75,
      "v": 100
    },
    {
      "midi": 71,
      "hit": false,
      "t": 90234.375,
      "d": 468.75,
      "v": 100
    },
    {
      "midi": 52,
      "hit": false,
      "t": 90468.75,
      "d": 468.75,
      "v": 100
    },
    {
      "midi": 55,
      "hit": false,
      "t": 90468.75,
      "d": 468.75,
      "v": 100
    },
    {
      "midi": 64,
      "hit": false,
      "t": 90703.125,
      "d": 1171.875,
      "v": 100
    },
    {
      "midi": 67,
      "hit": false,
      "t": 90703.125,
      "d": 1171.875,
      "v": 100
    },
    {
      "midi": 52,
      "hit": false,
      "t": 90937.5,
      "d": 468.75,
      "v": 100
    },
    {
      "midi": 55,
      "hit": false,
      "t": 90937.5,
      "d": 468.75,
      "v": 100
    },
    {
      "midi": 52,
      "hit": false,
      "t": 91406.25,
      "d": 468.75,
      "v": 100
    },
    {
      "midi": 55,
      "hit": false,
      "t": 91406.25,
      "d": 468.75,
      "v": 100
    },
    {
      "midi": 59,
      "hit": false,
      "t": 91875,
      "d": 1406.25,
      "v": 100
    },
    {
      "midi": 62,
      "hit": false,
      "t": 91875,
      "d": 1406.25,
      "v": 100
    },
    {
      "midi": 35,
      "hit": false,
      "t": 91875,
      "d": 468.75,
      "v": 100
    },
    {
      "midi": 55,
      "hit": false,
      "t": 92343.75,
      "d": 468.75,
      "v": 100
    },
    {
      "midi": 59,
      "hit": false,
      "t": 92343.75,
      "d": 468.75,
      "v": 100
    },
    {
      "midi": 55,
      "hit": false,
      "t": 92812.5,
      "d": 468.75,
      "v": 100
    },
    {
      "midi": 59,
      "hit": false,
      "t": 92812.5,
      "d": 468.75,
      "v": 100
    },
    {
      "midi": 71,
      "hit": false,
      "t": 93281.25,
      "d": 468.75,
      "v": 100
    },
    {
      "midi": 55,
      "hit": false,
      "t": 93281.25,
      "d": 468.75,
      "v": 100
    },
    {
      "midi": 59,
      "hit": false,
      "t": 93281.25,
      "d": 468.75,
      "v": 100
    },
    {
      "midi": 60,
      "hit": false,
      "t": 93750,
      "d": 468.75,
      "v": 100
    },
    {
      "midi": 64,
      "hit": false,
      "t": 93750,
      "d": 468.75,
      "v": 100
    },
    {
      "midi": 69,
      "hit": false,
      "t": 93750,
      "d": 468.75,
      "v": 100
    },
    {
      "midi": 45,
      "hit": false,
      "t": 93750,
      "d": 468.75,
      "v": 100
    },
    {
      "midi": 60,
      "hit": false,
      "t": 94218.75,
      "d": 234.375,
      "v": 100
    },
    {
      "midi": 64,
      "hit": false,
      "t": 94218.75,
      "d": 234.375,
      "v": 100
    },
    {
      "midi": 67,
      "hit": false,
      "t": 94218.75,
      "d": 234.375,
      "v": 100
    },
    {
      "midi": 52,
      "hit": false,
      "t": 94218.75,
      "d": 468.75,
      "v": 100
    },
    {
      "midi": 55,
      "hit": false,
      "t": 94218.75,
      "d": 468.75,
      "v": 100
    },
    {
      "midi": 60,
      "hit": false,
      "t": 94453.125,
      "d": 1171.875,
      "v": 100
    },
    {
      "midi": 64,
      "hit": false,
      "t": 94453.125,
      "d": 1171.875,
      "v": 100
    },
    {
      "midi": 67,
      "hit": false,
      "t": 94453.125,
      "d": 1171.875,
      "v": 100
    },
    {
      "midi": 52,
      "hit": false,
      "t": 94687.5,
      "d": 468.75,
      "v": 100
    },
    {
      "midi": 55,
      "hit": false,
      "t": 94687.5,
      "d": 468.75,
      "v": 100
    },
    {
      "midi": 52,
      "hit": false,
      "t": 95156.25,
      "d": 468.75,
      "v": 100
    },
    {
      "midi": 55,
      "hit": false,
      "t": 95156.25,
      "d": 468.75,
      "v": 100
    },
    {
      "midi": 38,
      "hit": false,
      "t": 95625,
      "d": 468.75,
      "v": 100
    },
    {
      "midi": 67,
      "hit": false,
      "t": 96093.75,
      "d": 468.75,
      "v": 100
    },
    {
      "midi": 52,
      "hit": false,
      "t": 96093.75,
      "d": 468.75,
      "v": 100
    },
    {
      "midi": 55,
      "hit": false,
      "t": 96093.75,
      "d": 468.75,
      "v": 100
    },
    {
      "midi": 76,
      "hit": false,
      "t": 96562.5,
      "d": 468.75,
      "v": 100
    },
    {
      "midi": 52,
      "hit": false,
      "t": 96562.5,
      "d": 468.75,
      "v": 100
    },
    {
      "midi": 55,
      "hit": false,
      "t": 96562.5,
      "d": 468.75,
      "v": 100
    },
    {
      "midi": 74,
      "hit": false,
      "t": 97031.25,
      "d": 468.75,
      "v": 100
    },
    {
      "midi": 52,
      "hit": false,
      "t": 97031.25,
      "d": 468.75,
      "v": 100
    },
    {
      "midi": 55,
      "hit": false,
      "t": 97031.25,
      "d": 468.75,
      "v": 100
    },
    {
      "midi": 74,
      "hit": false,
      "t": 97500,
      "d": 468.75,
      "v": 100
    },
    {
      "midi": 43,
      "hit": false,
      "t": 97500,
      "d": 468.75,
      "v": 100
    },
    {
      "midi": 71,
      "hit": false,
      "t": 97968.75,
      "d": 1406.25,
      "v": 100
    },
    {
      "midi": 55,
      "hit": false,
      "t": 97968.75,
      "d": 468.75,
      "v": 100
    },
    {
      "midi": 59,
      "hit": false,
      "t": 97968.75,
      "d": 468.75,
      "v": 100
    },
    {
      "midi": 55,
      "hit": false,
      "t": 98437.5,
      "d": 468.75,
      "v": 100
    },
    {
      "midi": 59,
      "hit": false,
      "t": 98437.5,
      "d": 468.75,
      "v": 100
    },
    {
      "midi": 55,
      "hit": false,
      "t": 98906.25,
      "d": 468.75,
      "v": 100
    },
    {
      "midi": 59,
      "hit": false,
      "t": 98906.25,
      "d": 468.75,
      "v": 100
    },
    {
      "midi": 47,
      "hit": false,
      "t": 99375,
      "d": 468.75,
      "v": 100
    },
    {
      "midi": 59,
      "hit": false,
      "t": 99843.75,
      "d": 468.75,
      "v": 100
    },
    {
      "midi": 63,
      "hit": false,
      "t": 99843.75,
      "d": 468.75,
      "v": 100
    },
    {
      "midi": 35,
      "hit": false,
      "t": 100312.5,
      "d": 937.5,
      "v": 100
    },
    {
      "midi": 71,
      "hit": false,
      "t": 100781.25,
      "d": 234.375,
      "v": 100
    },
    {
      "midi": 71,
      "hit": false,
      "t": 101015.625,
      "d": 234.375,
      "v": 100
    },
    {
      "midi": 67,
      "hit": false,
      "t": 101250,
      "d": 468.75,
      "v": 100
    },
    {
      "midi": 71,
      "hit": false,
      "t": 101250,
      "d": 468.75,
      "v": 100
    },
    {
      "midi": 76,
      "hit": false,
      "t": 101250,
      "d": 468.75,
      "v": 100
    },
    {
      "midi": 40,
      "hit": false,
      "t": 101250,
      "d": 468.75,
      "v": 100
    },
    {
      "midi": 76,
      "hit": false,
      "t": 101718.75,
      "d": 234.375,
      "v": 100
    },
    {
      "midi": 55,
      "hit": false,
      "t": 101718.75,
      "d": 468.75,
      "v": 100
    },
    {
      "midi": 59,
      "hit": false,
      "t": 101718.75,
      "d": 468.75,
      "v": 100
    },
    {
      "midi": 67,
      "hit": false,
      "t": 101953.125,
      "d": 468.75,
      "v": 100
    },
    {
      "midi": 71,
      "hit": false,
      "t": 101953.125,
      "d": 468.75,
      "v": 100
    },
    {
      "midi": 77,
      "hit": false,
      "t": 101953.125,
      "d": 468.75,
      "v": 100
    },
    {
      "midi": 55,
      "hit": false,
      "t": 102187.5,
      "d": 468.75,
      "v": 100
    },
    {
      "midi": 59,
      "hit": false,
      "t": 102187.5,
      "d": 468.75,
      "v": 100
    },
    {
      "midi": 79,
      "hit": false,
      "t": 102421.875,
      "d": 468.75,
      "v": 100
    },
    {
      "midi": 55,
      "hit": false,
      "t": 102656.25,
      "d": 468.75,
      "v": 100
    },
    {
      "midi": 59,
      "hit": false,
      "t": 102656.25,
      "d": 468.75,
      "v": 100
    },
    {
      "midi": 67,
      "hit": false,
      "t": 102890.625,
      "d": 468.75,
      "v": 100
    },
    {
      "midi": 71,
      "hit": false,
      "t": 102890.625,
      "d": 468.75,
      "v": 100
    },
    {
      "midi": 78,
      "hit": false,
      "t": 102890.625,
      "d": 468.75,
      "v": 100
    },
    {
      "midi": 38,
      "hit": false,
      "t": 103125,
      "d": 468.75,
      "v": 100
    },
    {
      "midi": 76,
      "hit": false,
      "t": 103359.375,
      "d": 468.75,
      "v": 100
    },
    {
      "midi": 55,
      "hit": false,
      "t": 103593.75,
      "d": 468.75,
      "v": 100
    },
    {
      "midi": 59,
      "hit": false,
      "t": 103593.75,
      "d": 468.75,
      "v": 100
    },
    {
      "midi": 67,
      "hit": false,
      "t": 103828.125,
      "d": 468.75,
      "v": 100
    },
    {
      "midi": 71,
      "hit": false,
      "t": 103828.125,
      "d": 468.75,
      "v": 100
    },
    {
      "midi": 55,
      "hit": false,
      "t": 104062.5,
      "d": 468.75,
      "v": 100
    },
    {
      "midi": 59,
      "hit": false,
      "t": 104062.5,
      "d": 468.75,
      "v": 100
    },
    {
      "midi": 67,
      "hit": false,
      "t": 104296.875,
      "d": 468.75,
      "v": 100
    },
    {
      "midi": 55,
      "hit": false,
      "t": 104531.25,
      "d": 468.75,
      "v": 100
    },
    {
      "midi": 59,
      "hit": false,
      "t": 104531.25,
      "d": 468.75,
      "v": 100
    },
    {
      "midi": 64,
      "hit": false,
      "t": 104765.625,
      "d": 468.75,
      "v": 100
    },
    {
      "midi": 69,
      "hit": false,
      "t": 104765.625,
      "d": 468.75,
      "v": 100
    },
    {
      "midi": 36,
      "hit": false,
      "t": 105000,
      "d": 468.75,
      "v": 100
    },
    {
      "midi": 71,
      "hit": false,
      "t": 105234.375,
      "d": 468.75,
      "v": 100
    },
    {
      "midi": 52,
      "hit": false,
      "t": 105468.75,
      "d": 468.75,
      "v": 100
    },
    {
      "midi": 55,
      "hit": false,
      "t": 105468.75,
      "d": 468.75,
      "v": 100
    },
    {
      "midi": 64,
      "hit": false,
      "t": 105703.125,
      "d": 1171.875,
      "v": 100
    },
    {
      "midi": 67,
      "hit": false,
      "t": 105703.125,
      "d": 1171.875,
      "v": 100
    },
    {
      "midi": 52,
      "hit": false,
      "t": 105937.5,
      "d": 468.75,
      "v": 100
    },
    {
      "midi": 55,
      "hit": false,
      "t": 105937.5,
      "d": 468.75,
      "v": 100
    },
    {
      "midi": 52,
      "hit": false,
      "t": 106406.25,
      "d": 468.75,
      "v": 100
    },
    {
      "midi": 55,
      "hit": false,
      "t": 106406.25,
      "d": 468.75,
      "v": 100
    },
    {
      "midi": 62,
      "hit": false,
      "t": 106875,
      "d": 1406.25,
      "v": 100
    },
    {
      "midi": 67,
      "hit": false,
      "t": 106875,
      "d": 1406.25,
      "v": 100
    },
    {
      "midi": 35,
      "hit": false,
      "t": 106875,
      "d": 468.75,
      "v": 100
    },
    {
      "midi": 55,
      "hit": false,
      "t": 107343.75,
      "d": 468.75,
      "v": 100
    },
    {
      "midi": 59,
      "hit": false,
      "t": 107343.75,
      "d": 468.75,
      "v": 100
    },
    {
      "midi": 55,
      "hit": false,
      "t": 107812.5,
      "d": 468.75,
      "v": 100
    },
    {
      "midi": 59,
      "hit": false,
      "t": 107812.5,
      "d": 468.75,
      "v": 100
    },
    {
      "midi": 64,
      "hit": false,
      "t": 108281.25,
      "d": 234.375,
      "v": 100
    },
    {
      "midi": 55,
      "hit": false,
      "t": 108281.25,
      "d": 468.75,
      "v": 100
    },
    {
      "midi": 59,
      "hit": false,
      "t": 108281.25,
      "d": 468.75,
      "v": 100
    },
    {
      "midi": 67,
      "hit": false,
      "t": 108515.625,
      "d": 234.375,
      "v": 100
    },
    {
      "midi": 61,
      "hit": false,
      "t": 108750,
      "d": 468.75,
      "v": 100
    },
    {
      "midi": 64,
      "hit": false,
      "t": 108750,
      "d": 468.75,
      "v": 100
    },
    {
      "midi": 71,
      "hit": false,
      "t": 108750,
      "d": 468.75,
      "v": 100
    },
    {
      "midi": 37,
      "hit": false,
      "t": 108750,
      "d": 468.75,
      "v": 100
    },
    {
      "midi": 69,
      "hit": false,
      "t": 109218.75,
      "d": 234.375,
      "v": 100
    },
    {
      "midi": 52,
      "hit": false,
      "t": 109218.75,
      "d": 468.75,
      "v": 100
    },
    {
      "midi": 55,
      "hit": false,
      "t": 109218.75,
      "d": 468.75,
      "v": 100
    },
    {
      "midi": 61,
      "hit": false,
      "t": 109453.125,
      "d": 703.125,
      "v": 100
    },
    {
      "midi": 64,
      "hit": false,
      "t": 109453.125,
      "d": 703.125,
      "v": 100
    },
    {
      "midi": 69,
      "hit": false,
      "t": 109453.125,
      "d": 703.125,
      "v": 100
    },
    {
      "midi": 52,
      "hit": false,
      "t": 109687.5,
      "d": 468.75,
      "v": 100
    },
    {
      "midi": 55,
      "hit": false,
      "t": 109687.5,
      "d": 468.75,
      "v": 100
    },
    {
      "midi": 67,
      "hit": false,
      "t": 110156.25,
      "d": 234.375,
      "v": 100
    },
    {
      "midi": 52,
      "hit": false,
      "t": 110156.25,
      "d": 468.75,
      "v": 100
    },
    {
      "midi": 55,
      "hit": false,
      "t": 110156.25,
      "d": 468.75,
      "v": 100
    },
    {
      "midi": 61,
      "hit": false,
      "t": 110390.625,
      "d": 468.75,
      "v": 100
    },
    {
      "midi": 64,
      "hit": false,
      "t": 110390.625,
      "d": 468.75,
      "v": 100
    },
    {
      "midi": 67,
      "hit": false,
      "t": 110390.625,
      "d": 468.75,
      "v": 100
    },
    {
      "midi": 45,
      "hit": false,
      "t": 110625,
      "d": 468.75,
      "v": 100
    },
    {
      "midi": 67,
      "hit": false,
      "t": 110859.375,
      "d": 468.75,
      "v": 100
    },
    {
      "midi": 52,
      "hit": false,
      "t": 111093.75,
      "d": 468.75,
      "v": 100
    },
    {
      "midi": 55,
      "hit": false,
      "t": 111093.75,
      "d": 468.75,
      "v": 100
    },
    {
      "midi": 67,
      "hit": false,
      "t": 111328.125,
      "d": 703.125,
      "v": 100
    },
    {
      "midi": 73,
      "hit": false,
      "t": 111328.125,
      "d": 703.125,
      "v": 100
    },
    {
      "midi": 78,
      "hit": false,
      "t": 111328.125,
      "d": 703.125,
      "v": 100
    },
    {
      "midi": 52,
      "hit": false,
      "t": 111562.5,
      "d": 468.75,
      "v": 100
    },
    {
      "midi": 55,
      "hit": false,
      "t": 111562.5,
      "d": 468.75,
      "v": 100
    },
    {
      "midi": 76,
      "hit": false,
      "t": 112031.25,
      "d": 468.75,
      "v": 100
    },
    {
      "midi": 52,
      "hit": false,
      "t": 112031.25,
      "d": 468.75,
      "v": 100
    },
    {
      "midi": 55,
      "hit": false,
      "t": 112031.25,
      "d": 468.75,
      "v": 100
    },
    {
      "midi": 69,
      "hit": false,
      "t": 112500,
      "d": 468.75,
      "v": 100
    },
    {
      "midi": 72,
      "hit": false,
      "t": 112500,
      "d": 468.75,
      "v": 100
    },
    {
      "midi": 78,
      "hit": false,
      "t": 112500,
      "d": 468.75,
      "v": 100
    },
    {
      "midi": 38,
      "hit": false,
      "t": 112500,
      "d": 1406.25,
      "v": 100
    },
    {
      "midi": 76,
      "hit": false,
      "t": 112968.75,
      "d": 234.375,
      "v": 100
    },
    {
      "midi": 74,
      "hit": false,
      "t": 113203.125,
      "d": 3046.875,
      "v": 100
    },
    {
      "midi": 38,
      "hit": false,
      "t": 113906.25,
      "d": 468.75,
      "v": 100
    },
    {
      "midi": 38,
      "hit": false,
      "t": 114375,
      "d": 1875,
      "v": 100
    },
    {
      "midi": 60,
      "hit": false,
      "t": 116250,
      "d": 1875,
      "v": 100
    },
    {
      "midi": 62,
      "hit": false,
      "t": 116250,
      "d": 1875,
      "v": 100
    },
    {
      "midi": 66,
      "hit": false,
      "t": 116250,
      "d": 1875,
      "v": 100
    },
    {
      "midi": 69,
      "hit": false,
      "t": 116250,
      "d": 1875,
      "v": 100
    },
    {
      "midi": 38,
      "hit": false,
      "t": 116250,
      "d": 1406.25,
      "v": 100
    },
    {
      "midi": 38,
      "hit": false,
      "t": 117656.25,
      "d": 468.75,
      "v": 100
    },
    {
      "midi": 38,
      "hit": false,
      "t": 118125,
      "d": 1875,
      "v": 100
    },
    {
      "midi": 62,
      "hit": false,
      "t": 118593.75,
      "d": 468.75,
      "v": 100
    },
    {
      "midi": 62,
      "hit": false,
      "t": 119062.5,
      "d": 468.75,
      "v": 100
    },
    {
      "midi": 74,
      "hit": false,
      "t": 119531.25,
      "d": 468.75,
      "v": 100
    },
    {
      "midi": 67,
      "hit": false,
      "t": 120000,
      "d": 468.75,
      "v": 100
    },
    {
      "midi": 74,
      "hit": false,
      "t": 120000,
      "d": 468.75,
      "v": 100
    },
    {
      "midi": 43,
      "hit": false,
      "t": 120000,
      "d": 1406.25,
      "v": 100
    },
    {
      "midi": 62,
      "hit": false,
      "t": 120468.75,
      "d": 468.75,
      "v": 100
    },
    {
      "midi": 67,
      "hit": false,
      "t": 120937.5,
      "d": 468.75,
      "v": 100
    },
    {
      "midi": 62,
      "hit": false,
      "t": 121406.25,
      "d": 468.75,
      "v": 100
    },
    {
      "midi": 43,
      "hit": false,
      "t": 121406.25,
      "d": 468.75,
      "v": 100
    },
    {
      "midi": 71,
      "hit": false,
      "t": 121875,
      "d": 468.75,
      "v": 100
    },
    {
      "midi": 43,
      "hit": false,
      "t": 121875,
      "d": 1875,
      "v": 100
    },
    {
      "midi": 62,
      "hit": false,
      "t": 122343.75,
      "d": 468.75,
      "v": 100
    },
    {
      "midi": 62,
      "hit": false,
      "t": 122812.5,
      "d": 468.75,
      "v": 100
    },
    {
      "midi": 74,
      "hit": false,
      "t": 123281.25,
      "d": 468.75,
      "v": 100
    },
    {
      "midi": 64,
      "hit": false,
      "t": 123750,
      "d": 468.75,
      "v": 100
    },
    {
      "midi": 72,
      "hit": false,
      "t": 123750,
      "d": 468.75,
      "v": 100
    },
    {
      "midi": 43,
      "hit": false,
      "t": 123750,
      "d": 1406.25,
      "v": 100
    },
    {
      "midi": 60,
      "hit": false,
      "t": 124218.75,
      "d": 468.75,
      "v": 100
    },
    {
      "midi": 64,
      "hit": false,
      "t": 124687.5,
      "d": 468.75,
      "v": 100
    },
    {
      "midi": 60,
      "hit": false,
      "t": 125156.25,
      "d": 468.75,
      "v": 100
    },
    {
      "midi": 43,
      "hit": false,
      "t": 125156.25,
      "d": 468.75,
      "v": 100
    },
    {
      "midi": 67,
      "hit": false,
      "t": 125625,
      "d": 468.75,
      "v": 100
    },
    {
      "midi": 43,
      "hit": false,
      "t": 125625,
      "d": 1875,
      "v": 100
    },
    {
      "midi": 62,
      "hit": false,
      "t": 126093.75,
      "d": 468.75,
      "v": 100
    },
    {
      "midi": 62,
      "hit": false,
      "t": 126562.5,
      "d": 468.75,
      "v": 100
    },
    {
      "midi": 72,
      "hit": false,
      "t": 127031.25,
      "d": 468.75,
      "v": 100
    },
    {
      "midi": 66,
      "hit": false,
      "t": 127500,
      "d": 468.75,
      "v": 100
    },
    {
      "midi": 72,
      "hit": false,
      "t": 127500,
      "d": 468.75,
      "v": 100
    },
    {
      "midi": 43,
      "hit": false,
      "t": 127500,
      "d": 1406.25,
      "v": 100
    },
    {
      "midi": 62,
      "hit": false,
      "t": 127968.75,
      "d": 468.75,
      "v": 100
    },
    {
      "midi": 66,
      "hit": false,
      "t": 128437.5,
      "d": 468.75,
      "v": 100
    },
    {
      "midi": 62,
      "hit": false,
      "t": 128906.25,
      "d": 468.75,
      "v": 100
    },
    {
      "midi": 43,
      "hit": false,
      "t": 128906.25,
      "d": 468.75,
      "v": 100
    },
    {
      "midi": 69,
      "hit": false,
      "t": 129375,
      "d": 468.75,
      "v": 100
    },
    {
      "midi": 43,
      "hit": false,
      "t": 129375,
      "d": 1875,
      "v": 100
    },
    {
      "midi": 62,
      "hit": false,
      "t": 129843.75,
      "d": 468.75,
      "v": 100
    },
    {
      "midi": 62,
      "hit": false,
      "t": 130312.5,
      "d": 468.75,
      "v": 100
    },
    {
      "midi": 72,
      "hit": false,
      "t": 130781.25,
      "d": 468.75,
      "v": 100
    },
    {
      "midi": 67,
      "hit": false,
      "t": 131250,
      "d": 468.75,
      "v": 100
    },
    {
      "midi": 71,
      "hit": false,
      "t": 131250,
      "d": 468.75,
      "v": 100
    },
    {
      "midi": 43,
      "hit": false,
      "t": 131250,
      "d": 1406.25,
      "v": 100
    },
    {
      "midi": 62,
      "hit": false,
      "t": 131718.75,
      "d": 468.75,
      "v": 100
    },
    {
      "midi": 67,
      "hit": false,
      "t": 132187.5,
      "d": 468.75,
      "v": 100
    },
    {
      "midi": 62,
      "hit": false,
      "t": 132656.25,
      "d": 468.75,
      "v": 100
    },
    {
      "midi": 43,
      "hit": false,
      "t": 132656.25,
      "d": 468.75,
      "v": 100
    },
    {
      "midi": 71,
      "hit": false,
      "t": 133125,
      "d": 468.75,
      "v": 100
    },
    {
      "midi": 43,
      "hit": false,
      "t": 133125,
      "d": 1875,
      "v": 100
    },
    {
      "midi": 62,
      "hit": false,
      "t": 133593.75,
      "d": 468.75,
      "v": 100
    },
    {
      "midi": 62,
      "hit": false,
      "t": 134062.5,
      "d": 468.75,
      "v": 100
    },
    {
      "midi": 74,
      "hit": false,
      "t": 134531.25,
      "d": 468.75,
      "v": 100
    },
    {
      "midi": 66,
      "hit": false,
      "t": 135000,
      "d": 468.75,
      "v": 100
    },
    {
      "midi": 74,
      "hit": false,
      "t": 135000,
      "d": 468.75,
      "v": 100
    },
    {
      "midi": 47,
      "hit": false,
      "t": 135000,
      "d": 1406.25,
      "v": 100
    },
    {
      "midi": 62,
      "hit": false,
      "t": 135468.75,
      "d": 468.75,
      "v": 100
    },
    {
      "midi": 66,
      "hit": false,
      "t": 135937.5,
      "d": 468.75,
      "v": 100
    },
    {
      "midi": 62,
      "hit": false,
      "t": 136406.25,
      "d": 468.75,
      "v": 100
    },
    {
      "midi": 47,
      "hit": false,
      "t": 136406.25,
      "d": 468.75,
      "v": 100
    },
    {
      "midi": 71,
      "hit": false,
      "t": 136875,
      "d": 468.75,
      "v": 100
    },
    {
      "midi": 47,
      "hit": false,
      "t": 136875,
      "d": 1875,
      "v": 100
    },
    {
      "midi": 67,
      "hit": false,
      "t": 137343.75,
      "d": 468.75,
      "v": 100
    },
    {
      "midi": 67,
      "hit": false,
      "t": 137812.5,
      "d": 468.75,
      "v": 100
    },
    {
      "midi": 77,
      "hit": false,
      "t": 138281.25,
      "d": 468.75,
      "v": 100
    },
    {
      "midi": 67,
      "hit": false,
      "t": 138750,
      "d": 468.75,
      "v": 100
    },
    {
      "midi": 72,
      "hit": false,
      "t": 138750,
      "d": 468.75,
      "v": 100
    },
    {
      "midi": 77,
      "hit": false,
      "t": 138750,
      "d": 468.75,
      "v": 100
    },
    {
      "midi": 48,
      "hit": false,
      "t": 138750,
      "d": 1406.25,
      "v": 100
    },
    {
      "midi": 67,
      "hit": false,
      "t": 139218.75,
      "d": 234.375,
      "v": 100
    },
    {
      "midi": 72,
      "hit": false,
      "t": 139218.75,
      "d": 234.375,
      "v": 100
    },
    {
      "midi": 76,
      "hit": false,
      "t": 139218.75,
      "d": 234.375,
      "v": 100
    },
    {
      "midi": 67,
      "hit": false,
      "t": 139453.125,
      "d": 1171.875,
      "v": 100
    },
    {
      "midi": 72,
      "hit": false,
      "t": 139453.125,
      "d": 1171.875,
      "v": 100
    },
    {
      "midi": 76,
      "hit": false,
      "t": 139453.125,
      "d": 1171.875,
      "v": 100
    },
    {
      "midi": 48,
      "hit": false,
      "t": 140156.25,
      "d": 468.75,
      "v": 100
    },
    {
      "midi": 48,
      "hit": false,
      "t": 140625,
      "d": 1875,
      "v": 100
    },
    {
      "midi": 67,
      "hit": false,
      "t": 141093.75,
      "d": 468.75,
      "v": 100
    },
    {
      "midi": 67,
      "hit": false,
      "t": 141562.5,
      "d": 468.75,
      "v": 100
    },
    {
      "midi": 76,
      "hit": false,
      "t": 142031.25,
      "d": 468.75,
      "v": 100
    },
    {
      "midi": 67,
      "hit": false,
      "t": 142500,
      "d": 468.75,
      "v": 100
    },
    {
      "midi": 76,
      "hit": false,
      "t": 142500,
      "d": 468.75,
      "v": 100
    },
    {
      "midi": 45,
      "hit": false,
      "t": 142500,
      "d": 1406.25,
      "v": 100
    },
    {
      "midi": 64,
      "hit": false,
      "t": 142968.75,
      "d": 468.75,
      "v": 100
    },
    {
      "midi": 67,
      "hit": false,
      "t": 143437.5,
      "d": 468.75,
      "v": 100
    },
    {
      "midi": 64,
      "hit": false,
      "t": 143906.25,
      "d": 468.75,
      "v": 100
    },
    {
      "midi": 45,
      "hit": false,
      "t": 143906.25,
      "d": 468.75,
      "v": 100
    },
    {
      "midi": 73,
      "hit": false,
      "t": 144375,
      "d": 468.75,
      "v": 100
    },
    {
      "midi": 45,
      "hit": false,
      "t": 144375,
      "d": 1875,
      "v": 100
    },
    {
      "midi": 69,
      "hit": false,
      "t": 144843.75,
      "d": 468.75,
      "v": 100
    },
    {
      "midi": 69,
      "hit": false,
      "t": 145312.5,
      "d": 468.75,
      "v": 100
    },
    {
      "midi": 79,
      "hit": false,
      "t": 145781.25,
      "d": 468.75,
      "v": 100
    },
    {
      "midi": 69,
      "hit": false,
      "t": 146250,
      "d": 468.75,
      "v": 100
    },
    {
      "midi": 74,
      "hit": false,
      "t": 146250,
      "d": 468.75,
      "v": 100
    },
    {
      "midi": 79,
      "hit": false,
      "t": 146250,
      "d": 468.75,
      "v": 100
    },
    {
      "midi": 38,
      "hit": false,
      "t": 146250,
      "d": 1406.25,
      "v": 100
    },
    {
      "midi": 69,
      "hit": false,
      "t": 146718.75,
      "d": 234.375,
      "v": 100
    },
    {
      "midi": 74,
      "hit": false,
      "t": 146718.75,
      "d": 234.375,
      "v": 100
    },
    {
      "midi": 78,
      "hit": false,
      "t": 146718.75,
      "d": 234.375,
      "v": 100
    },
    {
      "midi": 69,
      "hit": false,
      "t": 146953.125,
      "d": 1171.875,
      "v": 100
    },
    {
      "midi": 74,
      "hit": false,
      "t": 146953.125,
      "d": 1171.875,
      "v": 100
    },
    {
      "midi": 78,
      "hit": false,
      "t": 146953.125,
      "d": 1171.875,
      "v": 100
    },
    {
      "midi": 38,
      "hit": false,
      "t": 147656.25,
      "d": 468.75,
      "v": 100
    },
    {
      "midi": 38,
      "hit": false,
      "t": 148125,
      "d": 1875,
      "v": 100
    },
    {
      "midi": 76,
      "hit": false,
      "t": 148593.75,
      "d": 468.75,
      "v": 100
    },
    {
      "midi": 76,
      "hit": false,
      "t": 149062.5,
      "d": 468.75,
      "v": 100
    },
    {
      "midi": 76,
      "hit": false,
      "t": 149531.25,
      "d": 468.75,
      "v": 100
    },
    {
      "midi": 66,
      "hit": false,
      "t": 150000,
      "d": 468.75,
      "v": 100
    },
    {
      "midi": 69,
      "hit": false,
      "t": 150000,
      "d": 468.75,
      "v": 100
    },
    {
      "midi": 76,
      "hit": false,
      "t": 150000,
      "d": 468.75,
      "v": 100
    },
    {
      "midi": 38,
      "hit": false,
      "t": 150000,
      "d": 1406.25,
      "v": 100
    },
    {
      "midi": 66,
      "hit": false,
      "t": 150468.75,
      "d": 234.375,
      "v": 100
    },
    {
      "midi": 69,
      "hit": false,
      "t": 150468.75,
      "d": 234.375,
      "v": 100
    },
    {
      "midi": 74,
      "hit": false,
      "t": 150468.75,
      "d": 234.375,
      "v": 100
    },
    {
      "midi": 66,
      "hit": false,
      "t": 150703.125,
      "d": 1171.875,
      "v": 100
    },
    {
      "midi": 69,
      "hit": false,
      "t": 150703.125,
      "d": 1171.875,
      "v": 100
    },
    {
      "midi": 74,
      "hit": false,
      "t": 150703.125,
      "d": 1171.875,
      "v": 100
    },
    {
      "midi": 38,
      "hit": false,
      "t": 151406.25,
      "d": 468.75,
      "v": 100
    },
    {
      "midi": 38,
      "hit": false,
      "t": 151875,
      "d": 1875,
      "v": 100
    },
    {
      "midi": 62,
      "hit": false,
      "t": 152343.75,
      "d": 468.75,
      "v": 100
    },
    {
      "midi": 62,
      "hit": false,
      "t": 152812.5,
      "d": 468.75,
      "v": 100
    },
    {
      "midi": 74,
      "hit": false,
      "t": 153281.25,
      "d": 468.75,
      "v": 100
    },
    {
      "midi": 67,
      "hit": false,
      "t": 153750,
      "d": 1875,
      "v": 100
    },
    {
      "midi": 71,
      "hit": false,
      "t": 153750,
      "d": 1875,
      "v": 100
    },
    {
      "midi": 74,
      "hit": false,
      "t": 153750,
      "d": 1875,
      "v": 100
    },
    {
      "midi": 43,
      "hit": false,
      "t": 153750,
      "d": 468.75,
      "v": 100
    },
    {
      "midi": 50,
      "hit": false,
      "t": 154218.75,
      "d": 468.75,
      "v": 100
    },
    {
      "midi": 55,
      "hit": false,
      "t": 154687.5,
      "d": 468.75,
      "v": 100
    },
    {
      "midi": 50,
      "hit": false,
      "t": 155156.25,
      "d": 468.75,
      "v": 100
    },
    {
      "midi": 59,
      "hit": false,
      "t": 155625,
      "d": 1875,
      "v": 100
    },
    {
      "midi": 62,
      "hit": false,
      "t": 156093.75,
      "d": 468.75,
      "v": 100
    },
    {
      "midi": 62,
      "hit": false,
      "t": 156562.5,
      "d": 468.75,
      "v": 100
    },
    {
      "midi": 74,
      "hit": false,
      "t": 157031.25,
      "d": 468.75,
      "v": 100
    },
    {
      "midi": 64,
      "hit": false,
      "t": 157500,
      "d": 468.75,
      "v": 100
    },
    {
      "midi": 67,
      "hit": false,
      "t": 157500,
      "d": 468.75,
      "v": 100
    },
    {
      "midi": 74,
      "hit": false,
      "t": 157500,
      "d": 468.75,
      "v": 100
    },
    {
      "midi": 43,
      "hit": false,
      "t": 157500,
      "d": 468.75,
      "v": 100
    },
    {
      "midi": 64,
      "hit": false,
      "t": 157968.75,
      "d": 234.375,
      "v": 100
    },
    {
      "midi": 67,
      "hit": false,
      "t": 157968.75,
      "d": 234.375,
      "v": 100
    },
    {
      "midi": 72,
      "hit": false,
      "t": 157968.75,
      "d": 234.375,
      "v": 100
    },
    {
      "midi": 52,
      "hit": false,
      "t": 157968.75,
      "d": 468.75,
      "v": 100
    },
    {
      "midi": 64,
      "hit": false,
      "t": 158203.125,
      "d": 1171.875,
      "v": 100
    },
    {
      "midi": 67,
      "hit": false,
      "t": 158203.125,
      "d": 1171.875,
      "v": 100
    },
    {
      "midi": 72,
      "hit": false,
      "t": 158203.125,
      "d": 1171.875,
      "v": 100
    },
    {
      "midi": 55,
      "hit": false,
      "t": 158437.5,
      "d": 468.75,
      "v": 100
    },
    {
      "midi": 52,
      "hit": false,
      "t": 158906.25,
      "d": 468.75,
      "v": 100
    },
    {
      "midi": 60,
      "hit": false,
      "t": 159375,
      "d": 1875,
      "v": 100
    },
    {
      "midi": 62,
      "hit": false,
      "t": 159843.75,
      "d": 468.75,
      "v": 100
    },
    {
      "midi": 62,
      "hit": false,
      "t": 160312.5,
      "d": 468.75,
      "v": 100
    },
    {
      "midi": 72,
      "hit": false,
      "t": 160781.25,
      "d": 468.75,
      "v": 100
    },
    {
      "midi": 66,
      "hit": false,
      "t": 161250,
      "d": 1875,
      "v": 100
    },
    {
      "midi": 69,
      "hit": false,
      "t": 161250,
      "d": 1875,
      "v": 100
    },
    {
      "midi": 72,
      "hit": false,
      "t": 161250,
      "d": 1875,
      "v": 100
    },
    {
      "midi": 43,
      "hit": false,
      "t": 161250,
      "d": 468.75,
      "v": 100
    },
    {
      "midi": 50,
      "hit": false,
      "t": 161718.75,
      "d": 468.75,
      "v": 100
    },
    {
      "midi": 57,
      "hit": false,
      "t": 162187.5,
      "d": 468.75,
      "v": 100
    },
    {
      "midi": 50,
      "hit": false,
      "t": 162656.25,
      "d": 468.75,
      "v": 100
    },
    {
      "midi": 62,
      "hit": false,
      "t": 163125,
      "d": 1875,
      "v": 100
    },
    {
      "midi": 72,
      "hit": false,
      "t": 163593.75,
      "d": 468.75,
      "v": 100
    },
    {
      "midi": 72,
      "hit": false,
      "t": 164062.5,
      "d": 468.75,
      "v": 100
    },
    {
      "midi": 72,
      "hit": false,
      "t": 164531.25,
      "d": 468.75,
      "v": 100
    },
    {
      "midi": 62,
      "hit": false,
      "t": 165000,
      "d": 468.75,
      "v": 100
    },
    {
      "midi": 67,
      "hit": false,
      "t": 165000,
      "d": 468.75,
      "v": 100
    },
    {
      "midi": 72,
      "hit": false,
      "t": 165000,
      "d": 468.75,
      "v": 100
    },
    {
      "midi": 43,
      "hit": false,
      "t": 165000,
      "d": 468.75,
      "v": 100
    },
    {
      "midi": 74,
      "hit": false,
      "t": 165468.75,
      "d": 234.375,
      "v": 100
    },
    {
      "midi": 50,
      "hit": false,
      "t": 165468.75,
      "d": 468.75,
      "v": 100
    },
    {
      "midi": 62,
      "hit": false,
      "t": 165703.125,
      "d": 1171.875,
      "v": 100
    },
    {
      "midi": 67,
      "hit": false,
      "t": 165703.125,
      "d": 1171.875,
      "v": 100
    },
    {
      "midi": 71,
      "hit": false,
      "t": 165703.125,
      "d": 1171.875,
      "v": 100
    },
    {
      "midi": 55,
      "hit": false,
      "t": 165937.5,
      "d": 468.75,
      "v": 100
    },
    {
      "midi": 50,
      "hit": false,
      "t": 166406.25,
      "d": 468.75,
      "v": 100
    },
    {
      "midi": 59,
      "hit": false,
      "t": 166875,
      "d": 1875,
      "v": 100
    },
    {
      "midi": 62,
      "hit": false,
      "t": 167343.75,
      "d": 468.75,
      "v": 100
    },
    {
      "midi": 62,
      "hit": false,
      "t": 167812.5,
      "d": 468.75,
      "v": 100
    },
    {
      "midi": 74,
      "hit": false,
      "t": 168281.25,
      "d": 468.75,
      "v": 100
    },
    {
      "midi": 74,
      "hit": false,
      "t": 168750,
      "d": 1875,
      "v": 100
    },
    {
      "midi": 47,
      "hit": false,
      "t": 168750,
      "d": 468.75,
      "v": 100
    },
    {
      "midi": 54,
      "hit": false,
      "t": 169218.75,
      "d": 468.75,
      "v": 100
    },
    {
      "midi": 59,
      "hit": false,
      "t": 169687.5,
      "d": 468.75,
      "v": 100
    },
    {
      "midi": 54,
      "hit": false,
      "t": 170156.25,
      "d": 468.75,
      "v": 100
    },
    {
      "midi": 62,
      "hit": false,
      "t": 170625,
      "d": 1875,
      "v": 100
    },
    {
      "midi": 67,
      "hit": false,
      "t": 171093.75,
      "d": 468.75,
      "v": 100
    },
    {
      "midi": 67,
      "hit": false,
      "t": 171562.5,
      "d": 468.75,
      "v": 100
    },
    {
      "midi": 77,
      "hit": false,
      "t": 172031.25,
      "d": 468.75,
      "v": 100
    },
    {
      "midi": 67,
      "hit": false,
      "t": 172500,
      "d": 468.75,
      "v": 100
    },
    {
      "midi": 72,
      "hit": false,
      "t": 172500,
      "d": 468.75,
      "v": 100
    },
    {
      "midi": 77,
      "hit": false,
      "t": 172500,
      "d": 468.75,
      "v": 100
    },
    {
      "midi": 36,
      "hit": false,
      "t": 172500,
      "d": 1406.25,
      "v": 100
    },
    {
      "midi": 67,
      "hit": false,
      "t": 172968.75,
      "d": 234.375,
      "v": 100
    },
    {
      "midi": 72,
      "hit": false,
      "t": 172968.75,
      "d": 234.375,
      "v": 100
    },
    {
      "midi": 76,
      "hit": false,
      "t": 172968.75,
      "d": 234.375,
      "v": 100
    },
    {
      "midi": 67,
      "hit": false,
      "t": 173203.125,
      "d": 2109.375,
      "v": 100
    },
    {
      "midi": 72,
      "hit": false,
      "t": 173203.125,
      "d": 2109.375,
      "v": 100
    },
    {
      "midi": 76,
      "hit": false,
      "t": 173203.125,
      "d": 2109.375,
      "v": 100
    },
    {
      "midi": 36,
      "hit": false,
      "t": 173906.25,
      "d": 468.75,
      "v": 100
    },
    {
      "midi": 36,
      "hit": false,
      "t": 174375,
      "d": 937.5,
      "v": 100
    },
    {
      "midi": 73,
      "hit": false,
      "t": 175312.5,
      "d": 468.75,
      "v": 100
    },
    {
      "midi": 76,
      "hit": false,
      "t": 175312.5,
      "d": 468.75,
      "v": 100
    },
    {
      "midi": 37,
      "hit": false,
      "t": 175312.5,
      "d": 937.5,
      "v": 100
    },
    {
      "midi": 79,
      "hit": false,
      "t": 175781.25,
      "d": 468.75,
      "v": 100
    },
    {
      "midi": 71,
      "hit": false,
      "t": 176250,
      "d": 468.75,
      "v": 100
    },
    {
      "midi": 74,
      "hit": false,
      "t": 176250,
      "d": 468.75,
      "v": 100
    },
    {
      "midi": 79,
      "hit": false,
      "t": 176250,
      "d": 468.75,
      "v": 100
    },
    {
      "midi": 38,
      "hit": false,
      "t": 176250,
      "d": 1406.25,
      "v": 100
    },
    {
      "midi": 74,
      "hit": false,
      "t": 176718.75,
      "d": 234.375,
      "v": 100
    },
    {
      "midi": 67,
      "hit": false,
      "t": 176953.125,
      "d": 703.125,
      "v": 100
    },
    {
      "midi": 71,
      "hit": false,
      "t": 176953.125,
      "d": 703.125,
      "v": 100
    },
    {
      "midi": 74,
      "hit": false,
      "t": 176953.125,
      "d": 703.125,
      "v": 100
    },
    {
      "midi": 71,
      "hit": false,
      "t": 177656.25,
      "d": 234.375,
      "v": 100
    },
    {
      "midi": 38,
      "hit": false,
      "t": 177656.25,
      "d": 468.75,
      "v": 100
    },
    {
      "midi": 63,
      "hit": false,
      "t": 177890.625,
      "d": 468.75,
      "v": 100
    },
    {
      "midi": 67,
      "hit": false,
      "t": 177890.625,
      "d": 468.75,
      "v": 100
    },
    {
      "midi": 71,
      "hit": false,
      "t": 177890.625,
      "d": 468.75,
      "v": 100
    },
    {
      "midi": 39,
      "hit": false,
      "t": 178125,
      "d": 937.5,
      "v": 100
    },
    {
      "midi": 69,
      "hit": false,
      "t": 178359.375,
      "d": 468.75,
      "v": 100
    },
    {
      "midi": 59,
      "hit": false,
      "t": 178828.125,
      "d": 937.5,
      "v": 100
    },
    {
      "midi": 64,
      "hit": false,
      "t": 178828.125,
      "d": 937.5,
      "v": 100
    },
    {
      "midi": 69,
      "hit": false,
      "t": 178828.125,
      "d": 937.5,
      "v": 100
    },
    {
      "midi": 40,
      "hit": false,
      "t": 179062.5,
      "d": 937.5,
      "v": 100
    },
    {
      "midi": 67,
      "hit": false,
      "t": 179765.625,
      "d": 234.375,
      "v": 100
    },
    {
      "midi": 61,
      "hit": false,
      "t": 180000,
      "d": 468.75,
      "v": 100
    },
    {
      "midi": 64,
      "hit": false,
      "t": 180000,
      "d": 468.75,
      "v": 100
    },
    {
      "midi": 71,
      "hit": false,
      "t": 180000,
      "d": 468.75,
      "v": 100
    },
    {
      "midi": 45,
      "hit": false,
      "t": 180000,
      "d": 1406.25,
      "v": 100
    },
    {
      "midi": 61,
      "hit": false,
      "t": 180468.75,
      "d": 234.375,
      "v": 100
    },
    {
      "midi": 64,
      "hit": false,
      "t": 180468.75,
      "d": 234.375,
      "v": 100
    },
    {
      "midi": 69,
      "hit": false,
      "t": 180468.75,
      "d": 234.375,
      "v": 100
    },
    {
      "midi": 61,
      "hit": false,
      "t": 180703.125,
      "d": 2109.375,
      "v": 100
    },
    {
      "midi": 64,
      "hit": false,
      "t": 180703.125,
      "d": 2109.375,
      "v": 100
    },
    {
      "midi": 69,
      "hit": false,
      "t": 180703.125,
      "d": 2109.375,
      "v": 100
    },
    {
      "midi": 45,
      "hit": false,
      "t": 181406.25,
      "d": 468.75,
      "v": 100
    },
    {
      "midi": 45,
      "hit": false,
      "t": 181875,
      "d": 1875,
      "v": 100
    },
    {
      "midi": 71,
      "hit": false,
      "t": 183281.25,
      "d": 468.75,
      "v": 100
    },
    {
      "midi": 60,
      "hit": false,
      "t": 183750,
      "d": 468.75,
      "v": 100
    },
    {
      "midi": 66,
      "hit": false,
      "t": 183750,
      "d": 468.75,
      "v": 100
    },
    {
      "midi": 71,
      "hit": false,
      "t": 183750,
      "d": 468.75,
      "v": 100
    },
    {
      "midi": 38,
      "hit": false,
      "t": 183750,
      "d": 1406.25,
      "v": 100
    },
    {
      "midi": 60,
      "hit": false,
      "t": 184218.75,
      "d": 234.375,
      "v": 100
    },
    {
      "midi": 66,
      "hit": false,
      "t": 184218.75,
      "d": 234.375,
      "v": 100
    },
    {
      "midi": 69,
      "hit": false,
      "t": 184218.75,
      "d": 234.375,
      "v": 100
    },
    {
      "midi": 60,
      "hit": false,
      "t": 184453.125,
      "d": 2109.375,
      "v": 100
    },
    {
      "midi": 66,
      "hit": false,
      "t": 184453.125,
      "d": 2109.375,
      "v": 100
    },
    {
      "midi": 69,
      "hit": false,
      "t": 184453.125,
      "d": 2109.375,
      "v": 100
    },
    {
      "midi": 38,
      "hit": false,
      "t": 185156.25,
      "d": 468.75,
      "v": 100
    },
    {
      "midi": 38,
      "hit": false,
      "t": 185625,
      "d": 1875,
      "v": 100
    },
    {
      "midi": 69,
      "hit": false,
      "t": 187031.25,
      "d": 468.75,
      "v": 100
    },
    {
      "midi": 59,
      "hit": false,
      "t": 187500,
      "d": 468.75,
      "v": 100
    },
    {
      "midi": 62,
      "hit": false,
      "t": 187500,
      "d": 468.75,
      "v": 100
    },
    {
      "midi": 69,
      "hit": false,
      "t": 187500,
      "d": 468.75,
      "v": 100
    },
    {
      "midi": 43,
      "hit": false,
      "t": 187500,
      "d": 1406.25,
      "v": 100
    },
    {
      "midi": 59,
      "hit": false,
      "t": 187968.75,
      "d": 234.375,
      "v": 100
    },
    {
      "midi": 62,
      "hit": false,
      "t": 187968.75,
      "d": 234.375,
      "v": 100
    },
    {
      "midi": 67,
      "hit": false,
      "t": 187968.75,
      "d": 234.375,
      "v": 100
    },
    {
      "midi": 67,
      "hit": false,
      "t": 188203.125,
      "d": 234.375,
      "v": 100
    },
    {
      "midi": 59,
      "hit": false,
      "t": 188203.125,
      "d": 1171.875,
      "v": 100
    },
    {
      "midi": 62,
      "hit": false,
      "t": 188203.125,
      "d": 1171.875,
      "v": 100
    },
    {
      "midi": 67,
      "hit": false,
      "t": 188437.5,
      "d": 937.5,
      "v": 100
    },
    {
      "midi": 43,
      "hit": false,
      "t": 188906.25,
      "d": 468.75,
      "v": 100
    },
    {
      "midi": 62,
      "hit": false,
      "t": 189375,
      "d": 1406.25,
      "v": 100
    },
    {
      "midi": 64,
      "hit": false,
      "t": 189375,
      "d": 1406.25,
      "v": 100
    },
    {
      "midi": 68,
      "hit": false,
      "t": 189375,
      "d": 1406.25,
      "v": 100
    },
    {
      "midi": 40,
      "hit": false,
      "t": 189375,
      "d": 1875,
      "v": 100
    },
    {
      "midi": 71,
      "hit": false,
      "t": 190781.25,
      "d": 468.75,
      "v": 100
    },
    {
      "midi": 61,
      "hit": false,
      "t": 191250,
      "d": 468.75,
      "v": 100
    },
    {
      "midi": 64,
      "hit": false,
      "t": 191250,
      "d": 468.75,
      "v": 100
    },
    {
      "midi": 67,
      "hit": false,
      "t": 191250,
      "d": 468.75,
      "v": 100
    },
    {
      "midi": 71,
      "hit": false,
      "t": 191250,
      "d": 468.75,
      "v": 100
    },
    {
      "midi": 45,
      "hit": false,
      "t": 191250,
      "d": 1406.25,
      "v": 100
    },
    {
      "midi": 61,
      "hit": false,
      "t": 191718.75,
      "d": 234.375,
      "v": 100
    },
    {
      "midi": 64,
      "hit": false,
      "t": 191718.75,
      "d": 234.375,
      "v": 100
    },
    {
      "midi": 67,
      "hit": false,
      "t": 191718.75,
      "d": 234.375,
      "v": 100
    },
    {
      "midi": 69,
      "hit": false,
      "t": 191718.75,
      "d": 234.375,
      "v": 100
    },
    {
      "midi": 67,
      "hit": false,
      "t": 191953.125,
      "d": 234.375,
      "v": 100
    },
    {
      "midi": 61,
      "hit": false,
      "t": 191953.125,
      "d": 1171.875,
      "v": 100
    },
    {
      "midi": 64,
      "hit": false,
      "t": 191953.125,
      "d": 1171.875,
      "v": 100
    },
    {
      "midi": 69,
      "hit": false,
      "t": 191953.125,
      "d": 1171.875,
      "v": 100
    },
    {
      "midi": 67,
      "hit": false,
      "t": 192187.5,
      "d": 937.5,
      "v": 100
    },
    {
      "midi": 45,
      "hit": false,
      "t": 192656.25,
      "d": 468.75,
      "v": 100
    },
    {
      "midi": 60,
      "hit": false,
      "t": 193125,
      "d": 1406.25,
      "v": 100
    },
    {
      "midi": 62,
      "hit": false,
      "t": 193125,
      "d": 1406.25,
      "v": 100
    },
    {
      "midi": 66,
      "hit": false,
      "t": 193125,
      "d": 1406.25,
      "v": 100
    },
    {
      "midi": 38,
      "hit": false,
      "t": 193125,
      "d": 1406.25,
      "v": 100
    },
    {
      "midi": 69,
      "hit": false,
      "t": 194531.25,
      "d": 468.75,
      "v": 100
    },
    {
      "midi": 38,
      "hit": false,
      "t": 194531.25,
      "d": 468.75,
      "v": 100
    },
    {
      "midi": 59,
      "hit": false,
      "t": 195000,
      "d": 468.75,
      "v": 100
    },
    {
      "midi": 62,
      "hit": false,
      "t": 195000,
      "d": 468.75,
      "v": 100
    },
    {
      "midi": 69,
      "hit": false,
      "t": 195000,
      "d": 468.75,
      "v": 100
    },
    {
      "midi": 43,
      "hit": false,
      "t": 195000,
      "d": 1406.25,
      "v": 100
    },
    {
      "midi": 59,
      "hit": false,
      "t": 195468.75,
      "d": 234.375,
      "v": 100
    },
    {
      "midi": 62,
      "hit": false,
      "t": 195468.75,
      "d": 234.375,
      "v": 100
    },
    {
      "midi": 67,
      "hit": false,
      "t": 195468.75,
      "d": 234.375,
      "v": 100
    },
    {
      "midi": 67,
      "hit": false,
      "t": 195703.125,
      "d": 234.375,
      "v": 100
    },
    {
      "midi": 59,
      "hit": false,
      "t": 195703.125,
      "d": 1171.875,
      "v": 100
    },
    {
      "midi": 62,
      "hit": false,
      "t": 195703.125,
      "d": 1171.875,
      "v": 100
    },
    {
      "midi": 67,
      "hit": false,
      "t": 195937.5,
      "d": 937.5,
      "v": 100
    },
    {
      "midi": 43,
      "hit": false,
      "t": 196406.25,
      "d": 468.75,
      "v": 100
    },
    {
      "midi": 62,
      "hit": false,
      "t": 196875,
      "d": 1406.25,
      "v": 100
    },
    {
      "midi": 64,
      "hit": false,
      "t": 196875,
      "d": 1406.25,
      "v": 100
    },
    {
      "midi": 68,
      "hit": false,
      "t": 196875,
      "d": 1406.25,
      "v": 100
    },
    {
      "midi": 40,
      "hit": false,
      "t": 196875,
      "d": 1875,
      "v": 100
    },
    {
      "midi": 71,
      "hit": false,
      "t": 198281.25,
      "d": 468.75,
      "v": 100
    },
    {
      "midi": 60,
      "hit": false,
      "t": 198750,
      "d": 468.75,
      "v": 100
    },
    {
      "midi": 64,
      "hit": false,
      "t": 198750,
      "d": 468.75,
      "v": 100
    },
    {
      "midi": 67,
      "hit": false,
      "t": 198750,
      "d": 468.75,
      "v": 100
    },
    {
      "midi": 71,
      "hit": false,
      "t": 198750,
      "d": 468.75,
      "v": 100
    },
    {
      "midi": 45,
      "hit": false,
      "t": 198750,
      "d": 1406.25,
      "v": 100
    },
    {
      "midi": 60,
      "hit": false,
      "t": 199218.75,
      "d": 234.375,
      "v": 100
    },
    {
      "midi": 64,
      "hit": false,
      "t": 199218.75,
      "d": 234.375,
      "v": 100
    },
    {
      "midi": 67,
      "hit": false,
      "t": 199218.75,
      "d": 234.375,
      "v": 100
    },
    {
      "midi": 69,
      "hit": false,
      "t": 199218.75,
      "d": 234.375,
      "v": 100
    },
    {
      "midi": 67,
      "hit": false,
      "t": 199453.125,
      "d": 234.375,
      "v": 100
    },
    {
      "midi": 60,
      "hit": false,
      "t": 199453.125,
      "d": 1171.875,
      "v": 100
    },
    {
      "midi": 64,
      "hit": false,
      "t": 199453.125,
      "d": 1171.875,
      "v": 100
    },
    {
      "midi": 69,
      "hit": false,
      "t": 199453.125,
      "d": 1171.875,
      "v": 100
    },
    {
      "midi": 67,
      "hit": false,
      "t": 199687.5,
      "d": 937.5,
      "v": 100
    },
    {
      "midi": 45,
      "hit": false,
      "t": 200156.25,
      "d": 468.75,
      "v": 100
    },
    {
      "midi": 60,
      "hit": false,
      "t": 200625,
      "d": 1406.25,
      "v": 100
    },
    {
      "midi": 62,
      "hit": false,
      "t": 200625,
      "d": 1406.25,
      "v": 100
    },
    {
      "midi": 66,
      "hit": false,
      "t": 200625,
      "d": 1406.25,
      "v": 100
    },
    {
      "midi": 38,
      "hit": false,
      "t": 200625,
      "d": 1406.25,
      "v": 100
    },
    {
      "midi": 69,
      "hit": false,
      "t": 202031.25,
      "d": 468.75,
      "v": 100
    },
    {
      "midi": 38,
      "hit": false,
      "t": 202031.25,
      "d": 468.75,
      "v": 100
    },
    {
      "midi": 59,
      "hit": false,
      "t": 202500,
      "d": 468.75,
      "v": 100
    },
    {
      "midi": 62,
      "hit": false,
      "t": 202500,
      "d": 468.75,
      "v": 100
    },
    {
      "midi": 69,
      "hit": false,
      "t": 202500,
      "d": 468.75,
      "v": 100
    },
    {
      "midi": 43,
      "hit": false,
      "t": 202500,
      "d": 3750,
      "v": 100
    },
    {
      "midi": 50,
      "hit": false,
      "t": 202500,
      "d": 3750,
      "v": 100
    },
    {
      "midi": 71,
      "hit": false,
      "t": 202968.75,
      "d": 234.375,
      "v": 100
    },
    {
      "midi": 71,
      "hit": false,
      "t": 203203.125,
      "d": 703.125,
      "v": 100
    },
    {
      "midi": 69,
      "hit": false,
      "t": 203906.25,
      "d": 234.375,
      "v": 100
    },
    {
      "midi": 67,
      "hit": false,
      "t": 204140.625,
      "d": 2109.375,
      "v": 100
    }
  ]
}