{
  "jsonPath": "Unknown/Unknown/Brazilian Tropical Orchestra/one-less-bell-to-answer.json",
  "path": "Unknown\\Unknown\\Brazilian Tropical Orchestra\\One Less Bell To Answer.mid",
  "name": "One Less Bell To Answer",
  "difficulty": "Advanced",
  "bpm": 93.99998120000376,
  "notes": [
    {
      "midi": 65,
      "hit": false,
      "t": 5117.0223,
      "d": 186.17025000000012,
      "v": 58
    },
    {
      "midi": 69,
      "hit": false,
      "t": 5117.0223,
      "d": 186.17025000000012,
      "v": 56
    },
    {
      "midi": 72,
      "hit": false,
      "t": 5117.0223,
      "d": 186.17025000000012,
      "v": 71
    },
    {
      "midi": 41,
      "hit": false,
      "t": 5117.0223,
      "d": 1712.7663000000011,
      "v": 57
    },
    {
      "midi": 41,
      "hit": false,
      "t": 5138.2989,
      "d": 813.8299500000003,
      "v": 114
    },
    {
      "midi": 76,
      "hit": false,
      "t": 5138.2989,
      "d": 1441.4896500000004,
      "v": 114
    },
    {
      "midi": 69,
      "hit": false,
      "t": 5755.3203,
      "d": 122.34044999999969,
      "v": 66
    },
    {
      "midi": 65,
      "hit": false,
      "t": 5755.3203,
      "d": 127.65959999999995,
      "v": 49
    },
    {
      "midi": 72,
      "hit": false,
      "t": 5755.3203,
      "d": 127.65959999999995,
      "v": 70
    },
    {
      "midi": 41,
      "hit": false,
      "t": 6186.17145,
      "d": 345.74475000000075,
      "v": 114
    },
    {
      "midi": 65,
      "hit": false,
      "t": 6393.6183,
      "d": 106.38299999999981,
      "v": 49
    },
    {
      "midi": 69,
      "hit": false,
      "t": 6393.6183,
      "d": 132.97875000000022,
      "v": 59
    },
    {
      "midi": 72,
      "hit": false,
      "t": 6393.6183,
      "d": 159.57450000000063,
      "v": 77
    },
    {
      "midi": 36,
      "hit": false,
      "t": 6414.8949,
      "d": 867.0214500000002,
      "v": 114
    },
    {
      "midi": 69,
      "hit": false,
      "t": 6414.8949,
      "d": 1489.362,
      "v": 114
    },
    {
      "midi": 57,
      "hit": false,
      "t": 6829.788600000001,
      "d": 473.4043499999998,
      "v": 33
    },
    {
      "midi": 65,
      "hit": false,
      "t": 7031.916300000001,
      "d": 303.19154999999955,
      "v": 65
    },
    {
      "midi": 69,
      "hit": false,
      "t": 7244.6823,
      "d": 223.40430000000015,
      "v": 40
    },
    {
      "midi": 57,
      "hit": false,
      "t": 7468.0866000000005,
      "d": 111.70215000000007,
      "v": 72
    },
    {
      "midi": 65,
      "hit": false,
      "t": 7670.214300000001,
      "d": 409.57454999999936,
      "v": 73
    },
    {
      "midi": 69,
      "hit": false,
      "t": 7670.214300000001,
      "d": 409.57454999999936,
      "v": 78
    },
    {
      "midi": 72,
      "hit": false,
      "t": 7670.214300000001,
      "d": 441.48945000000003,
      "v": 83
    },
    {
      "midi": 41,
      "hit": false,
      "t": 7670.214300000001,
      "d": 1446.808799999998,
      "v": 74
    },
    {
      "midi": 41,
      "hit": false,
      "t": 7691.490900000001,
      "d": 851.0640000000003,
      "v": 114
    },
    {
      "midi": 76,
      "hit": false,
      "t": 7691.490900000001,
      "d": 1420.2130500000003,
      "v": 114
    },
    {
      "midi": 65,
      "hit": false,
      "t": 8308.5123,
      "d": 175.5319500000005,
      "v": 60
    },
    {
      "midi": 69,
      "hit": false,
      "t": 8308.5123,
      "d": 191.4894000000004,
      "v": 66
    },
    {
      "midi": 72,
      "hit": false,
      "t": 8308.5123,
      "d": 196.80854999999974,
      "v": 85
    },
    {
      "midi": 41,
      "hit": false,
      "t": 8739.36345,
      "d": 329.78729999999996,
      "v": 114
    },
    {
      "midi": 65,
      "hit": false,
      "t": 8946.8103,
      "d": 292.553249999999,
      "v": 56
    },
    {
      "midi": 69,
      "hit": false,
      "t": 8946.8103,
      "d": 303.19154999999955,
      "v": 63
    },
    {
      "midi": 72,
      "hit": false,
      "t": 8946.8103,
      "d": 313.8298500000001,
      "v": 81
    },
    {
      "midi": 36,
      "hit": false,
      "t": 8968.0869,
      "d": 904.2555000000011,
      "v": 114
    },
    {
      "midi": 69,
      "hit": false,
      "t": 8968.0869,
      "d": 1420.213050000002,
      "v": 114
    },
    {
      "midi": 57,
      "hit": false,
      "t": 9382.980599999999,
      "d": 797.8725000000031,
      "v": 66
    },
    {
      "midi": 72,
      "hit": false,
      "t": 9585.1083,
      "d": 382.9788000000008,
      "v": 87
    },
    {
      "midi": 69,
      "hit": false,
      "t": 9585.1083,
      "d": 436.1703000000016,
      "v": 79
    },
    {
      "midi": 36,
      "hit": false,
      "t": 10015.959450000002,
      "d": 329.78729999999996,
      "v": 114
    },
    {
      "midi": 65,
      "hit": false,
      "t": 10021.278600000001,
      "d": 148.9362000000001,
      "v": 56
    },
    {
      "midi": 64,
      "hit": false,
      "t": 10223.406300000002,
      "d": 271.2766499999998,
      "v": 65
    },
    {
      "midi": 69,
      "hit": false,
      "t": 10223.406300000002,
      "d": 303.19154999999955,
      "v": 81
    },
    {
      "midi": 67,
      "hit": false,
      "t": 10223.406300000002,
      "d": 308.5106999999989,
      "v": 58
    },
    {
      "midi": 41,
      "hit": false,
      "t": 10223.406300000002,
      "d": 436.17029999999977,
      "v": 66
    },
    {
      "midi": 41,
      "hit": false,
      "t": 10244.682900000002,
      "d": 627.6597000000002,
      "v": 114
    },
    {
      "midi": 57,
      "hit": false,
      "t": 10244.682900000002,
      "d": 627.6597000000002,
      "v": 114
    },
    {
      "midi": 60,
      "hit": false,
      "t": 10244.682900000002,
      "d": 627.6597000000002,
      "v": 114
    },
    {
      "midi": 64,
      "hit": false,
      "t": 10276.597800000001,
      "d": 1404.255600000004,
      "v": 114
    },
    {
      "midi": 53,
      "hit": false,
      "t": 10659.576600000002,
      "d": 287.23409999999967,
      "v": 68
    },
    {
      "midi": 69,
      "hit": false,
      "t": 10861.704300000001,
      "d": 207.44685000000027,
      "v": 66
    },
    {
      "midi": 64,
      "hit": false,
      "t": 10861.704300000001,
      "d": 223.40430000000015,
      "v": 55
    },
    {
      "midi": 67,
      "hit": false,
      "t": 10861.704300000001,
      "d": 223.40430000000015,
      "v": 47
    },
    {
      "midi": 57,
      "hit": false,
      "t": 10882.980900000002,
      "d": 553.1916000000019,
      "v": 114
    },
    {
      "midi": 60,
      "hit": false,
      "t": 10909.576650000003,
      "d": 659.5746000000017,
      "v": 114
    },
    {
      "midi": 41,
      "hit": false,
      "t": 11292.555450000003,
      "d": 345.74475000000166,
      "v": 114
    },
    {
      "midi": 41,
      "hit": false,
      "t": 11297.874600000001,
      "d": 452.12774999999965,
      "v": 62
    },
    {
      "midi": 64,
      "hit": false,
      "t": 11297.874600000001,
      "d": 675.532049999998,
      "v": 53
    },
    {
      "midi": 69,
      "hit": false,
      "t": 11297.874600000001,
      "d": 776.5958999999984,
      "v": 80
    },
    {
      "midi": 67,
      "hit": false,
      "t": 11297.874600000001,
      "d": 792.5533499999983,
      "v": 65
    },
    {
      "midi": 52,
      "hit": false,
      "t": 11521.278900000005,
      "d": 521.2767000000003,
      "v": 114
    },
    {
      "midi": 48,
      "hit": false,
      "t": 11521.278900000005,
      "d": 553.1916000000001,
      "v": 114
    },
    {
      "midi": 36,
      "hit": false,
      "t": 11521.278900000005,
      "d": 835.1065500000004,
      "v": 114
    },
    {
      "midi": 53,
      "hit": false,
      "t": 11936.1726,
      "d": 367.0213499999991,
      "v": 69
    },
    {
      "midi": 64,
      "hit": false,
      "t": 12138.300299999999,
      "d": 388.2979500000001,
      "v": 74
    },
    {
      "midi": 48,
      "hit": false,
      "t": 12159.576900000005,
      "d": 313.8298500000001,
      "v": 114
    },
    {
      "midi": 52,
      "hit": false,
      "t": 12159.576900000005,
      "d": 329.78729999999996,
      "v": 114
    },
    {
      "midi": 48,
      "hit": false,
      "t": 12569.151450000005,
      "d": 345.74474999999984,
      "v": 114
    },
    {
      "midi": 52,
      "hit": false,
      "t": 12569.151450000005,
      "d": 345.74474999999984,
      "v": 114
    },
    {
      "midi": 41,
      "hit": false,
      "t": 12574.470599999999,
      "d": 170.21279999999933,
      "v": 50
    },
    {
      "midi": 62,
      "hit": false,
      "t": 12776.598299999998,
      "d": 345.74474999999984,
      "v": 62
    },
    {
      "midi": 65,
      "hit": false,
      "t": 12776.598299999998,
      "d": 351.0638999999992,
      "v": 51
    },
    {
      "midi": 69,
      "hit": false,
      "t": 12776.598299999998,
      "d": 361.7021999999997,
      "v": 75
    },
    {
      "midi": 41,
      "hit": false,
      "t": 12776.598299999998,
      "d": 1244.6810999999998,
      "v": 50
    },
    {
      "midi": 53,
      "hit": false,
      "t": 12776.598299999998,
      "d": 1244.6810999999998,
      "v": 61
    },
    {
      "midi": 57,
      "hit": false,
      "t": 12797.874900000004,
      "d": 143.61705000000075,
      "v": 114
    },
    {
      "midi": 53,
      "hit": false,
      "t": 12797.874900000004,
      "d": 765.9575999999997,
      "v": 114
    },
    {
      "midi": 41,
      "hit": false,
      "t": 12797.874900000004,
      "d": 781.9150499999996,
      "v": 114
    },
    {
      "midi": 62,
      "hit": false,
      "t": 12829.789800000004,
      "d": 595.7448000000004,
      "v": 114
    },
    {
      "midi": 69,
      "hit": false,
      "t": 13414.896299999997,
      "d": 191.4894000000004,
      "v": 82
    },
    {
      "midi": 65,
      "hit": false,
      "t": 13414.896299999997,
      "d": 202.1277000000009,
      "v": 77
    },
    {
      "midi": 57,
      "hit": false,
      "t": 13436.172900000005,
      "d": 537.2341500000002,
      "v": 114
    },
    {
      "midi": 62,
      "hit": false,
      "t": 13436.172900000005,
      "d": 797.8725000000013,
      "v": 114
    },
    {
      "midi": 65,
      "hit": false,
      "t": 13468.087800000005,
      "d": 765.9576000000015,
      "v": 114
    },
    {
      "midi": 41,
      "hit": false,
      "t": 13845.747450000004,
      "d": 345.74475000000166,
      "v": 114
    },
    {
      "midi": 64,
      "hit": false,
      "t": 14053.194299999997,
      "d": 271.2766499999998,
      "v": 65
    },
    {
      "midi": 69,
      "hit": false,
      "t": 14053.194299999997,
      "d": 303.19154999999955,
      "v": 81
    },
    {
      "midi": 67,
      "hit": false,
      "t": 14053.194299999997,
      "d": 308.5106999999989,
      "v": 58
    },
    {
      "midi": 41,
      "hit": false,
      "t": 14053.194299999997,
      "d": 436.17029999999977,
      "v": 66
    },
    {
      "midi": 57,
      "hit": false,
      "t": 14074.470900000006,
      "d": 627.6597000000002,
      "v": 114
    },
    {
      "midi": 60,
      "hit": false,
      "t": 14074.470900000006,
      "d": 781.9150499999996,
      "v": 114
    },
    {
      "midi": 36,
      "hit": false,
      "t": 14074.470900000006,
      "d": 904.2554999999993,
      "v": 114
    },
    {
      "midi": 64,
      "hit": false,
      "t": 14106.385800000005,
      "d": 744.6810000000005,
      "v": 114
    },
    {
      "midi": 53,
      "hit": false,
      "t": 14489.364599999997,
      "d": 287.2341000000015,
      "v": 68
    },
    {
      "midi": 69,
      "hit": false,
      "t": 14691.492299999998,
      "d": 207.44685000000027,
      "v": 66
    },
    {
      "midi": 64,
      "hit": false,
      "t": 14691.492299999998,
      "d": 223.40430000000015,
      "v": 55
    },
    {
      "midi": 67,
      "hit": false,
      "t": 14691.492299999998,
      "d": 223.40430000000015,
      "v": 47
    },
    {
      "midi": 52,
      "hit": false,
      "t": 14712.768900000006,
      "d": 329.78729999999814,
      "v": 114
    },
    {
      "midi": 48,
      "hit": false,
      "t": 14712.768900000006,
      "d": 345.744749999998,
      "v": 114
    },
    {
      "midi": 48,
      "hit": false,
      "t": 15122.343450000004,
      "d": 191.4894000000004,
      "v": 114
    },
    {
      "midi": 52,
      "hit": false,
      "t": 15122.343450000004,
      "d": 191.4894000000004,
      "v": 114
    },
    {
      "midi": 41,
      "hit": false,
      "t": 15127.662599999998,
      "d": 170.21279999999933,
      "v": 62
    },
    {
      "midi": 57,
      "hit": false,
      "t": 15319.152000000004,
      "d": 53.191500000000815,
      "v": 114
    },
    {
      "midi": 38,
      "hit": false,
      "t": 15319.152000000004,
      "d": 627.6597000000002,
      "v": 114
    },
    {
      "midi": 53,
      "hit": false,
      "t": 15319.152000000004,
      "d": 627.6597000000002,
      "v": 114
    },
    {
      "midi": 65,
      "hit": false,
      "t": 15329.790299999997,
      "d": 271.2766499999998,
      "v": 65
    },
    {
      "midi": 74,
      "hit": false,
      "t": 15329.790299999997,
      "d": 303.19154999999955,
      "v": 81
    },
    {
      "midi": 69,
      "hit": false,
      "t": 15329.790299999997,
      "d": 308.5106999999989,
      "v": 58
    },
    {
      "midi": 52,
      "hit": false,
      "t": 15329.790299999997,
      "d": 436.17029999999977,
      "v": 66
    },
    {
      "midi": 64,
      "hit": false,
      "t": 15345.747750000004,
      "d": 1468.0853999999981,
      "v": 114
    },
    {
      "midi": 57,
      "hit": false,
      "t": 15765.960599999997,
      "d": 287.23409999999967,
      "v": 68
    },
    {
      "midi": 57,
      "hit": false,
      "t": 15957.450000000004,
      "d": 553.1915999999983,
      "v": 114
    },
    {
      "midi": 53,
      "hit": false,
      "t": 15957.450000000004,
      "d": 585.106499999998,
      "v": 114
    },
    {
      "midi": 74,
      "hit": false,
      "t": 15968.088299999996,
      "d": 207.44685000000027,
      "v": 66
    },
    {
      "midi": 65,
      "hit": false,
      "t": 15968.088299999996,
      "d": 223.40430000000015,
      "v": 55
    },
    {
      "midi": 69,
      "hit": false,
      "t": 15968.088299999996,
      "d": 223.40430000000015,
      "v": 47
    },
    {
      "midi": 38,
      "hit": false,
      "t": 16382.982000000004,
      "d": 335.1064499999993,
      "v": 114
    },
    {
      "midi": 52,
      "hit": false,
      "t": 16404.258599999997,
      "d": 452.12774999999965,
      "v": 62
    },
    {
      "midi": 65,
      "hit": false,
      "t": 16404.258599999997,
      "d": 675.532049999998,
      "v": 53
    },
    {
      "midi": 74,
      "hit": false,
      "t": 16404.258599999997,
      "d": 776.5958999999966,
      "v": 80
    },
    {
      "midi": 69,
      "hit": false,
      "t": 16404.258599999997,
      "d": 792.5533499999983,
      "v": 65
    },
    {
      "midi": 33,
      "hit": false,
      "t": 16595.748000000003,
      "d": 627.6597000000002,
      "v": 114
    },
    {
      "midi": 52,
      "hit": false,
      "t": 16595.748000000003,
      "d": 627.6597000000002,
      "v": 114
    },
    {
      "midi": 57,
      "hit": false,
      "t": 16595.748000000003,
      "d": 627.6597000000002,
      "v": 114
    },
    {
      "midi": 53,
      "hit": false,
      "t": 16627.662900000003,
      "d": 595.7448000000004,
      "v": 114
    },
    {
      "midi": 57,
      "hit": false,
      "t": 17042.556599999996,
      "d": 367.0213500000027,
      "v": 69
    },
    {
      "midi": 52,
      "hit": false,
      "t": 17234.046000000002,
      "d": 414.89370000000054,
      "v": 114
    },
    {
      "midi": 65,
      "hit": false,
      "t": 17244.684299999997,
      "d": 388.2979500000001,
      "v": 74
    },
    {
      "midi": 53,
      "hit": false,
      "t": 17265.960900000002,
      "d": 388.2979500000001,
      "v": 114
    },
    {
      "midi": 52,
      "hit": false,
      "t": 17659.578,
      "d": 276.59579999999914,
      "v": 114
    },
    {
      "midi": 52,
      "hit": false,
      "t": 17680.8546,
      "d": 170.21280000000115,
      "v": 50
    },
    {
      "midi": 53,
      "hit": false,
      "t": 17691.4929,
      "d": 175.5319500000005,
      "v": 114
    },
    {
      "midi": 53,
      "hit": false,
      "t": 17872.344,
      "d": 734.0426999999981,
      "v": 114
    },
    {
      "midi": 38,
      "hit": false,
      "t": 17872.344,
      "d": 750.0001499999998,
      "v": 114
    },
    {
      "midi": 57,
      "hit": false,
      "t": 17872.344,
      "d": 803.1916500000007,
      "v": 114
    },
    {
      "midi": 65,
      "hit": false,
      "t": 17882.9823,
      "d": 271.2766499999998,
      "v": 65
    },
    {
      "midi": 72,
      "hit": false,
      "t": 17882.9823,
      "d": 303.19154999999955,
      "v": 81
    },
    {
      "midi": 69,
      "hit": false,
      "t": 17882.9823,
      "d": 308.5106999999989,
      "v": 58
    },
    {
      "midi": 50,
      "hit": false,
      "t": 17882.9823,
      "d": 436.17029999999795,
      "v": 66
    },
    {
      "midi": 62,
      "hit": false,
      "t": 17898.93975,
      "d": 707.4469499999977,
      "v": 114
    },
    {
      "midi": 57,
      "hit": false,
      "t": 18319.152599999998,
      "d": 287.2341000000015,
      "v": 68
    },
    {
      "midi": 60,
      "hit": false,
      "t": 18510.642,
      "d": 569.1490500000036,
      "v": 114
    },
    {
      "midi": 65,
      "hit": false,
      "t": 18510.642,
      "d": 585.1065000000053,
      "v": 114
    },
    {
      "midi": 72,
      "hit": false,
      "t": 18521.2803,
      "d": 207.44685000000027,
      "v": 66
    },
    {
      "midi": 65,
      "hit": false,
      "t": 18521.2803,
      "d": 223.40430000000197,
      "v": 55
    },
    {
      "midi": 69,
      "hit": false,
      "t": 18521.2803,
      "d": 223.40430000000197,
      "v": 47
    },
    {
      "midi": 69,
      "hit": false,
      "t": 18537.23775,
      "d": 526.5958500000015,
      "v": 114
    },
    {
      "midi": 38,
      "hit": false,
      "t": 18936.174000000003,
      "d": 207.4468500000039,
      "v": 114
    },
    {
      "midi": 50,
      "hit": false,
      "t": 18957.4506,
      "d": 452.12774999999965,
      "v": 62
    },
    {
      "midi": 65,
      "hit": false,
      "t": 18957.4506,
      "d": 675.532049999998,
      "v": 53
    },
    {
      "midi": 72,
      "hit": false,
      "t": 18957.4506,
      "d": 776.5958999999966,
      "v": 80
    },
    {
      "midi": 69,
      "hit": false,
      "t": 18957.4506,
      "d": 792.5533499999983,
      "v": 65
    },
    {
      "midi": 60,
      "hit": false,
      "t": 19148.940000000006,
      "d": 627.6597000000002,
      "v": 114
    },
    {
      "midi": 65,
      "hit": false,
      "t": 19148.940000000006,
      "d": 627.6597000000002,
      "v": 114
    },
    {
      "midi": 38,
      "hit": false,
      "t": 19148.940000000006,
      "d": 760.6384499999986,
      "v": 114
    },
    {
      "midi": 57,
      "hit": false,
      "t": 19595.7486,
      "d": 367.0213500000027,
      "v": 69
    },
    {
      "midi": 60,
      "hit": false,
      "t": 19787.238000000005,
      "d": 414.89370000000054,
      "v": 114
    },
    {
      "midi": 65,
      "hit": false,
      "t": 19787.238000000005,
      "d": 414.89370000000054,
      "v": 114
    },
    {
      "midi": 65,
      "hit": false,
      "t": 19797.8763,
      "d": 388.2979500000001,
      "v": 74
    },
    {
      "midi": 65,
      "hit": false,
      "t": 20212.770000000004,
      "d": 207.44685000000027,
      "v": 114
    },
    {
      "midi": 60,
      "hit": false,
      "t": 20212.770000000004,
      "d": 335.1064499999993,
      "v": 114
    },
    {
      "midi": 50,
      "hit": false,
      "t": 20234.0466,
      "d": 170.21280000000115,
      "v": 50
    },
    {
      "midi": 62,
      "hit": false,
      "t": 20425.536000000004,
      "d": 627.6597000000002,
      "v": 114
    },
    {
      "midi": 46,
      "hit": false,
      "t": 20425.536000000004,
      "d": 776.5959000000003,
      "v": 114
    },
    {
      "midi": 65,
      "hit": false,
      "t": 20425.536000000004,
      "d": 803.1916500000007,
      "v": 114
    },
    {
      "midi": 62,
      "hit": false,
      "t": 20436.174300000002,
      "d": 186.1702499999992,
      "v": 58
    },
    {
      "midi": 65,
      "hit": false,
      "t": 20436.174300000002,
      "d": 186.1702499999992,
      "v": 56
    },
    {
      "midi": 69,
      "hit": false,
      "t": 20436.174300000002,
      "d": 186.1702499999992,
      "v": 71
    },
    {
      "midi": 46,
      "hit": false,
      "t": 20436.174300000002,
      "d": 1712.7662999999993,
      "v": 57
    },
    {
      "midi": 69,
      "hit": false,
      "t": 20457.450900000003,
      "d": 53.191500000000815,
      "v": 114
    },
    {
      "midi": 57,
      "hit": false,
      "t": 21063.834000000003,
      "d": 585.1065000000017,
      "v": 114
    },
    {
      "midi": 53,
      "hit": false,
      "t": 21063.834000000003,
      "d": 723.4044000000031,
      "v": 114
    },
    {
      "midi": 65,
      "hit": false,
      "t": 21074.4723,
      "d": 122.34044999999969,
      "v": 66
    },
    {
      "midi": 62,
      "hit": false,
      "t": 21074.4723,
      "d": 127.65959999999905,
      "v": 49
    },
    {
      "midi": 69,
      "hit": false,
      "t": 21074.4723,
      "d": 127.65959999999905,
      "v": 70
    },
    {
      "midi": 62,
      "hit": false,
      "t": 21095.748900000002,
      "d": 553.1916000000019,
      "v": 114
    },
    {
      "midi": 46,
      "hit": false,
      "t": 21489.366000000005,
      "d": 207.44685000000027,
      "v": 114
    },
    {
      "midi": 57,
      "hit": false,
      "t": 21702.132000000005,
      "d": 627.6597000000002,
      "v": 114
    },
    {
      "midi": 62,
      "hit": false,
      "t": 21702.132000000005,
      "d": 627.6597000000002,
      "v": 114
    },
    {
      "midi": 46,
      "hit": false,
      "t": 21702.132000000005,
      "d": 750.0001499999998,
      "v": 114
    },
    {
      "midi": 65,
      "hit": false,
      "t": 21702.132000000005,
      "d": 973.4044499999982,
      "v": 114
    },
    {
      "midi": 62,
      "hit": false,
      "t": 21712.7703,
      "d": 106.38300000000163,
      "v": 49
    },
    {
      "midi": 65,
      "hit": false,
      "t": 21712.7703,
      "d": 132.97875000000204,
      "v": 59
    },
    {
      "midi": 69,
      "hit": false,
      "t": 21712.7703,
      "d": 159.57450000000244,
      "v": 77
    },
    {
      "midi": 53,
      "hit": false,
      "t": 22148.9406,
      "d": 473.4043500000007,
      "v": 33
    },
    {
      "midi": 62,
      "hit": false,
      "t": 22340.430000000004,
      "d": 414.89370000000054,
      "v": 114
    },
    {
      "midi": 57,
      "hit": false,
      "t": 22340.430000000004,
      "d": 515.9575499999992,
      "v": 114
    },
    {
      "midi": 62,
      "hit": false,
      "t": 22351.068300000003,
      "d": 303.19154999999955,
      "v": 65
    },
    {
      "midi": 65,
      "hit": false,
      "t": 22563.834300000002,
      "d": 223.40429999999833,
      "v": 40
    },
    {
      "midi": 62,
      "hit": false,
      "t": 22765.962000000003,
      "d": 207.44685000000027,
      "v": 114
    },
    {
      "midi": 46,
      "hit": false,
      "t": 22787.2386,
      "d": 111.70215000000098,
      "v": 72
    },
    {
      "midi": 69,
      "hit": false,
      "t": 22978.728000000003,
      "d": 345.744749999998,
      "v": 114
    },
    {
      "midi": 45,
      "hit": false,
      "t": 22978.728000000003,
      "d": 760.6384499999949,
      "v": 114
    },
    {
      "midi": 62,
      "hit": false,
      "t": 22989.3663,
      "d": 345.744749999998,
      "v": 62
    },
    {
      "midi": 64,
      "hit": false,
      "t": 22989.3663,
      "d": 351.0638999999974,
      "v": 51
    },
    {
      "midi": 67,
      "hit": false,
      "t": 22989.3663,
      "d": 361.7021999999961,
      "v": 75
    },
    {
      "midi": 45,
      "hit": false,
      "t": 22989.3663,
      "d": 1010.6384999999937,
      "v": 50
    },
    {
      "midi": 52,
      "hit": false,
      "t": 22989.3663,
      "d": 1010.6384999999937,
      "v": 61
    },
    {
      "midi": 67,
      "hit": false,
      "t": 23005.323750000003,
      "d": 569.1490499999964,
      "v": 114
    },
    {
      "midi": 62,
      "hit": false,
      "t": 23010.642900000003,
      "d": 553.1915999999983,
      "v": 114
    },
    {
      "midi": 70,
      "hit": false,
      "t": 23191.494000000002,
      "d": 957.4469999999965,
      "v": 114
    },
    {
      "midi": 67,
      "hit": false,
      "t": 23617.025999999998,
      "d": 611.7022500000021,
      "v": 114
    },
    {
      "midi": 62,
      "hit": false,
      "t": 23617.025999999998,
      "d": 734.0427000000018,
      "v": 114
    },
    {
      "midi": 67,
      "hit": false,
      "t": 23627.664299999997,
      "d": 191.48939999999857,
      "v": 82
    },
    {
      "midi": 64,
      "hit": false,
      "t": 23627.664299999997,
      "d": 202.12769999999728,
      "v": 77
    },
    {
      "midi": 45,
      "hit": false,
      "t": 24042.557999999997,
      "d": 207.4468500000039,
      "v": 114
    },
    {
      "midi": 61,
      "hit": false,
      "t": 24063.834599999995,
      "d": 462.766050000002,
      "v": 65
    },
    {
      "midi": 67,
      "hit": false,
      "t": 24063.834599999995,
      "d": 494.68095000000176,
      "v": 81
    },
    {
      "midi": 64,
      "hit": false,
      "t": 24063.834599999995,
      "d": 500.0001000000011,
      "v": 58
    },
    {
      "midi": 45,
      "hit": false,
      "t": 24063.834599999995,
      "d": 627.6597000000002,
      "v": 66
    },
    {
      "midi": 61,
      "hit": false,
      "t": 24255.324,
      "d": 627.6597000000002,
      "v": 114
    },
    {
      "midi": 45,
      "hit": false,
      "t": 24255.324,
      "d": 776.5959000000003,
      "v": 114
    },
    {
      "midi": 69,
      "hit": false,
      "t": 24255.324,
      "d": 776.5959000000003,
      "v": 114
    },
    {
      "midi": 67,
      "hit": false,
      "t": 24287.2389,
      "d": 595.7448000000004,
      "v": 114
    },
    {
      "midi": 52,
      "hit": false,
      "t": 24702.132599999994,
      "d": 287.2341000000015,
      "v": 68
    },
    {
      "midi": 61,
      "hit": false,
      "t": 24893.622,
      "d": 414.89370000000054,
      "v": 114
    },
    {
      "midi": 64,
      "hit": false,
      "t": 24893.622,
      "d": 414.89370000000054,
      "v": 114
    },
    {
      "midi": 67,
      "hit": false,
      "t": 24893.622,
      "d": 680.8511999999973,
      "v": 114
    },
    {
      "midi": 67,
      "hit": false,
      "t": 24904.260299999994,
      "d": 207.44685000000027,
      "v": 66
    },
    {
      "midi": 61,
      "hit": false,
      "t": 24904.260299999994,
      "d": 223.40430000000197,
      "v": 55
    },
    {
      "midi": 64,
      "hit": false,
      "t": 24904.260299999994,
      "d": 223.40430000000197,
      "v": 47
    },
    {
      "midi": 61,
      "hit": false,
      "t": 25319.154,
      "d": 207.44685000000027,
      "v": 114
    },
    {
      "midi": 64,
      "hit": false,
      "t": 25319.154,
      "d": 207.44685000000027,
      "v": 114
    },
    {
      "midi": 45,
      "hit": false,
      "t": 25340.430599999996,
      "d": 170.21280000000115,
      "v": 62
    },
    {
      "midi": 38,
      "hit": false,
      "t": 25531.92,
      "d": 627.6597000000002,
      "v": 114
    },
    {
      "midi": 65,
      "hit": false,
      "t": 25542.558299999997,
      "d": 345.744749999998,
      "v": 62
    },
    {
      "midi": 69,
      "hit": false,
      "t": 25542.558299999997,
      "d": 351.0638999999974,
      "v": 51
    },
    {
      "midi": 72,
      "hit": false,
      "t": 25542.558299999997,
      "d": 361.7021999999961,
      "v": 75
    },
    {
      "midi": 50,
      "hit": false,
      "t": 25542.558299999997,
      "d": 1010.6384999999937,
      "v": 50
    },
    {
      "midi": 57,
      "hit": false,
      "t": 25542.558299999997,
      "d": 1010.6384999999937,
      "v": 61
    },
    {
      "midi": 67,
      "hit": false,
      "t": 26170.217999999997,
      "d": 329.78729999999996,
      "v": 114
    },
    {
      "midi": 60,
      "hit": false,
      "t": 26170.217999999997,
      "d": 728.7235499999988,
      "v": 114
    },
    {
      "midi": 72,
      "hit": false,
      "t": 26180.856299999992,
      "d": 191.48939999999857,
      "v": 82
    },
    {
      "midi": 69,
      "hit": false,
      "t": 26180.856299999992,
      "d": 202.12769999999728,
      "v": 77
    },
    {
      "midi": 65,
      "hit": false,
      "t": 26382.983999999997,
      "d": 303.19154999999955,
      "v": 114
    },
    {
      "midi": 62,
      "hit": false,
      "t": 26595.749999999996,
      "d": 303.19154999999955,
      "v": 114
    },
    {
      "midi": 65,
      "hit": false,
      "t": 26617.02659999999,
      "d": 462.766050000002,
      "v": 65
    },
    {
      "midi": 71,
      "hit": false,
      "t": 26617.02659999999,
      "d": 494.68095000000176,
      "v": 81
    },
    {
      "midi": 67,
      "hit": false,
      "t": 26617.02659999999,
      "d": 500.0001000000011,
      "v": 58
    },
    {
      "midi": 43,
      "hit": false,
      "t": 26617.02659999999,
      "d": 627.6597000000002,
      "v": 66
    },
    {
      "midi": 65,
      "hit": false,
      "t": 26808.515999999996,
      "d": 207.44685000000027,
      "v": 114
    },
    {
      "midi": 59,
      "hit": false,
      "t": 26808.515999999996,
      "d": 595.7448000000004,
      "v": 114
    },
    {
      "midi": 43,
      "hit": false,
      "t": 26808.515999999996,
      "d": 787.234199999999,
      "v": 114
    },
    {
      "midi": 67,
      "hit": false,
      "t": 27021.281999999996,
      "d": 1989.3620999999985,
      "v": 114
    },
    {
      "midi": 55,
      "hit": false,
      "t": 27255.32459999999,
      "d": 287.2341000000015,
      "v": 68
    },
    {
      "midi": 59,
      "hit": false,
      "t": 27446.813999999995,
      "d": 414.89370000000054,
      "v": 114
    },
    {
      "midi": 65,
      "hit": false,
      "t": 27446.813999999995,
      "d": 414.89370000000054,
      "v": 114
    },
    {
      "midi": 71,
      "hit": false,
      "t": 27457.45229999999,
      "d": 207.44685000000027,
      "v": 66
    },
    {
      "midi": 65,
      "hit": false,
      "t": 27457.45229999999,
      "d": 223.40430000000197,
      "v": 55
    },
    {
      "midi": 67,
      "hit": false,
      "t": 27457.45229999999,
      "d": 223.40430000000197,
      "v": 47
    },
    {
      "midi": 65,
      "hit": false,
      "t": 27872.345999999994,
      "d": 303.19154999999955,
      "v": 114
    },
    {
      "midi": 59,
      "hit": false,
      "t": 27872.345999999994,
      "d": 351.063900000001,
      "v": 114
    },
    {
      "midi": 43,
      "hit": false,
      "t": 27893.62259999999,
      "d": 170.21280000000115,
      "v": 62
    },
    {
      "midi": 43,
      "hit": false,
      "t": 28085.111999999994,
      "d": 627.6597000000002,
      "v": 114
    },
    {
      "midi": 65,
      "hit": false,
      "t": 28095.750299999992,
      "d": 345.744749999998,
      "v": 62
    },
    {
      "midi": 67,
      "hit": false,
      "t": 28095.750299999992,
      "d": 351.0638999999974,
      "v": 51
    },
    {
      "midi": 71,
      "hit": false,
      "t": 28095.750299999992,
      "d": 361.7021999999961,
      "v": 75
    },
    {
      "midi": 43,
      "hit": false,
      "t": 28095.750299999992,
      "d": 1244.6810999999943,
      "v": 50
    },
    {
      "midi": 55,
      "hit": false,
      "t": 28095.750299999992,
      "d": 1244.6810999999943,
      "v": 61
    },
    {
      "midi": 59,
      "hit": false,
      "t": 28723.409999999993,
      "d": 329.78729999999996,
      "v": 114
    },
    {
      "midi": 65,
      "hit": false,
      "t": 28723.409999999993,
      "d": 361.7021999999997,
      "v": 114
    },
    {
      "midi": 71,
      "hit": false,
      "t": 28734.048299999988,
      "d": 191.48939999999857,
      "v": 82
    },
    {
      "midi": 67,
      "hit": false,
      "t": 28734.048299999988,
      "d": 202.12769999999728,
      "v": 77
    },
    {
      "midi": 62,
      "hit": false,
      "t": 29148.941999999992,
      "d": 207.44685000000027,
      "v": 114
    },
    {
      "midi": 62,
      "hit": false,
      "t": 29361.70799999999,
      "d": 728.7235499999988,
      "v": 114
    },
    {
      "midi": 65,
      "hit": false,
      "t": 29361.70799999999,
      "d": 765.9575999999979,
      "v": 114
    },
    {
      "midi": 43,
      "hit": false,
      "t": 29361.70799999999,
      "d": 787.234199999999,
      "v": 114
    },
    {
      "midi": 55,
      "hit": false,
      "t": 29372.346299999987,
      "d": 569.14905,
      "v": 63
    },
    {
      "midi": 65,
      "hit": false,
      "t": 29372.346299999987,
      "d": 569.14905,
      "v": 64
    },
    {
      "midi": 70,
      "hit": false,
      "t": 29372.346299999987,
      "d": 569.14905,
      "v": 59
    },
    {
      "midi": 67,
      "hit": false,
      "t": 29372.346299999987,
      "d": 585.1065000000017,
      "v": 59
    },
    {
      "midi": 43,
      "hit": false,
      "t": 29372.346299999987,
      "d": 606.3831000000027,
      "v": 52
    },
    {
      "midi": 70,
      "hit": false,
      "t": 29388.303749999992,
      "d": 755.3192999999992,
      "v": 114
    },
    {
      "midi": 60,
      "hit": false,
      "t": 30000.00599999999,
      "d": 755.3192999999992,
      "v": 114
    },
    {
      "midi": 64,
      "hit": false,
      "t": 30000.00599999999,
      "d": 787.2342000000026,
      "v": 114
    },
    {
      "midi": 45,
      "hit": false,
      "t": 30000.00599999999,
      "d": 813.829950000003,
      "v": 114
    },
    {
      "midi": 60,
      "hit": false,
      "t": 30010.64429999999,
      "d": 271.2766499999998,
      "v": 65
    },
    {
      "midi": 69,
      "hit": false,
      "t": 30010.64429999999,
      "d": 303.19154999999955,
      "v": 81
    },
    {
      "midi": 64,
      "hit": false,
      "t": 30010.64429999999,
      "d": 308.5106999999989,
      "v": 58
    },
    {
      "midi": 45,
      "hit": false,
      "t": 30010.64429999999,
      "d": 436.17029999999795,
      "v": 66
    },
    {
      "midi": 69,
      "hit": false,
      "t": 30031.92089999999,
      "d": 739.3618500000011,
      "v": 114
    },
    {
      "midi": 52,
      "hit": false,
      "t": 30446.814599999987,
      "d": 191.48939999999857,
      "v": 68
    },
    {
      "midi": 58,
      "hit": false,
      "t": 30638.30399999999,
      "d": 627.6597000000038,
      "v": 114
    },
    {
      "midi": 62,
      "hit": false,
      "t": 30638.30399999999,
      "d": 627.6597000000038,
      "v": 114
    },
    {
      "midi": 46,
      "hit": false,
      "t": 30638.30399999999,
      "d": 739.3618500000011,
      "v": 114
    },
    {
      "midi": 62,
      "hit": false,
      "t": 30648.942299999984,
      "d": 345.744749999998,
      "v": 53
    },
    {
      "midi": 65,
      "hit": false,
      "t": 30648.942299999984,
      "d": 351.0638999999974,
      "v": 42
    },
    {
      "midi": 70,
      "hit": false,
      "t": 30648.942299999984,
      "d": 361.7021999999961,
      "v": 66
    },
    {
      "midi": 46,
      "hit": false,
      "t": 30648.942299999984,
      "d": 627.6596999999965,
      "v": 41
    },
    {
      "midi": 53,
      "hit": false,
      "t": 30648.942299999984,
      "d": 627.6596999999965,
      "v": 52
    },
    {
      "midi": 65,
      "hit": false,
      "t": 30664.89974999999,
      "d": 702.127800000002,
      "v": 114
    },
    {
      "midi": 53,
      "hit": false,
      "t": 31276.60199999999,
      "d": 627.6597000000002,
      "v": 114
    },
    {
      "midi": 48,
      "hit": false,
      "t": 31276.60199999999,
      "d": 765.9575999999979,
      "v": 114
    },
    {
      "midi": 58,
      "hit": false,
      "t": 31276.60199999999,
      "d": 787.234199999999,
      "v": 114
    },
    {
      "midi": 62,
      "hit": false,
      "t": 31287.24029999998,
      "d": 186.1702499999992,
      "v": 58
    },
    {
      "midi": 65,
      "hit": false,
      "t": 31287.24029999998,
      "d": 186.1702499999992,
      "v": 56
    },
    {
      "midi": 70,
      "hit": false,
      "t": 31287.24029999998,
      "d": 186.1702499999992,
      "v": 71
    },
    {
      "midi": 48,
      "hit": false,
      "t": 31287.24029999998,
      "d": 627.6597000000002,
      "v": 57
    },
    {
      "midi": 62,
      "hit": false,
      "t": 31308.51689999999,
      "d": 765.9575999999979,
      "v": 114
    },
    {
      "midi": 53,
      "hit": false,
      "t": 31914.89999999999,
      "d": 627.6597000000002,
      "v": 114
    },
    {
      "midi": 57,
      "hit": false,
      "t": 31914.89999999999,
      "d": 627.6597000000002,
      "v": 114
    },
    {
      "midi": 52,
      "hit": false,
      "t": 31914.89999999999,
      "d": 1202.1278999999959,
      "v": 114
    },
    {
      "midi": 64,
      "hit": false,
      "t": 31925.53829999998,
      "d": 271.2766499999998,
      "v": 65
    },
    {
      "midi": 69,
      "hit": false,
      "t": 31925.53829999998,
      "d": 303.19154999999955,
      "v": 81
    },
    {
      "midi": 67,
      "hit": false,
      "t": 31925.53829999998,
      "d": 308.5106999999989,
      "v": 58
    },
    {
      "midi": 41,
      "hit": false,
      "t": 31925.53829999998,
      "d": 436.17029999999795,
      "v": 66
    },
    {
      "midi": 43,
      "hit": false,
      "t": 31946.81489999999,
      "d": 765.9575999999979,
      "v": 114
    },
    {
      "midi": 60,
      "hit": false,
      "t": 31946.81489999999,
      "d": 2537.2345500000083,
      "v": 114
    },
    {
      "midi": 53,
      "hit": false,
      "t": 32361.708599999976,
      "d": 287.2341000000015,
      "v": 68
    },
    {
      "midi": 53,
      "hit": false,
      "t": 32553.19799999999,
      "d": 414.89370000000054,
      "v": 114
    },
    {
      "midi": 57,
      "hit": false,
      "t": 32553.19799999999,
      "d": 414.89370000000054,
      "v": 114
    },
    {
      "midi": 69,
      "hit": false,
      "t": 32563.836299999977,
      "d": 207.4468500000039,
      "v": 66
    },
    {
      "midi": 64,
      "hit": false,
      "t": 32563.836299999977,
      "d": 223.4043000000056,
      "v": 55
    },
    {
      "midi": 67,
      "hit": false,
      "t": 32563.836299999977,
      "d": 223.4043000000056,
      "v": 47
    },
    {
      "midi": 53,
      "hit": false,
      "t": 32978.72999999999,
      "d": 207.44685000000027,
      "v": 114
    },
    {
      "midi": 57,
      "hit": false,
      "t": 32978.72999999999,
      "d": 207.44685000000027,
      "v": 114
    },
    {
      "midi": 41,
      "hit": false,
      "t": 33000.006599999986,
      "d": 452.12774999999965,
      "v": 62
    },
    {
      "midi": 64,
      "hit": false,
      "t": 33000.006599999986,
      "d": 675.5320500000016,
      "v": 53
    },
    {
      "midi": 69,
      "hit": false,
      "t": 33000.006599999986,
      "d": 776.5959000000003,
      "v": 80
    },
    {
      "midi": 67,
      "hit": false,
      "t": 33000.006599999986,
      "d": 792.553350000002,
      "v": 65
    },
    {
      "midi": 52,
      "hit": false,
      "t": 33159.58109999999,
      "d": 595.7448000000077,
      "v": 114
    },
    {
      "midi": 53,
      "hit": false,
      "t": 33191.49599999999,
      "d": 627.6597000000038,
      "v": 114
    },
    {
      "midi": 57,
      "hit": false,
      "t": 33191.49599999999,
      "d": 627.6597000000038,
      "v": 114
    },
    {
      "midi": 45,
      "hit": false,
      "t": 33191.49599999999,
      "d": 1313.8300500000114,
      "v": 114
    },
    {
      "midi": 36,
      "hit": false,
      "t": 33223.410899999995,
      "d": 803.1916500000007,
      "v": 114
    },
    {
      "midi": 53,
      "hit": false,
      "t": 33638.30459999999,
      "d": 367.02134999999544,
      "v": 69
    },
    {
      "midi": 52,
      "hit": false,
      "t": 33797.8791,
      "d": 340.42559999999503,
      "v": 114
    },
    {
      "midi": 53,
      "hit": false,
      "t": 33829.793999999994,
      "d": 361.7021999999997,
      "v": 114
    },
    {
      "midi": 57,
      "hit": false,
      "t": 33829.793999999994,
      "d": 414.89370000000054,
      "v": 114
    },
    {
      "midi": 64,
      "hit": false,
      "t": 33840.432299999986,
      "d": 388.2979500000001,
      "v": 74
    },
    {
      "midi": 52,
      "hit": false,
      "t": 34223.4111,
      "d": 239.3617499999964,
      "v": 114
    },
    {
      "midi": 53,
      "hit": false,
      "t": 34255.325999999994,
      "d": 207.44685000000027,
      "v": 114
    },
    {
      "midi": 57,
      "hit": false,
      "t": 34255.325999999994,
      "d": 207.44685000000027,
      "v": 114
    },
    {
      "midi": 41,
      "hit": false,
      "t": 34276.602599999984,
      "d": 170.21280000000115,
      "v": 50
    },
    {
      "midi": 50,
      "hit": false,
      "t": 34468.092,
      "d": 734.0427000000127,
      "v": 114
    },
    {
      "midi": 62,
      "hit": false,
      "t": 34478.73029999998,
      "d": 345.7447500000053,
      "v": 62
    },
    {
      "midi": 65,
      "hit": false,
      "t": 34478.73029999998,
      "d": 351.0639000000083,
      "v": 51
    },
    {
      "midi": 69,
      "hit": false,
      "t": 34478.73029999998,
      "d": 361.702200000007,
      "v": 75
    },
    {
      "midi": 41,
      "hit": false,
      "t": 34478.73029999998,
      "d": 1010.6385000000082,
      "v": 50
    },
    {
      "midi": 53,
      "hit": false,
      "t": 34478.73029999998,
      "d": 1010.6385000000082,
      "v": 61
    },
    {
      "midi": 41,
      "hit": false,
      "t": 34500.0069,
      "d": 750.0001500000071,
      "v": 114
    },
    {
      "midi": 57,
      "hit": false,
      "t": 35106.39000000001,
      "d": 414.89370000000054,
      "v": 114
    },
    {
      "midi": 53,
      "hit": false,
      "t": 35106.39000000001,
      "d": 819.1491000000024,
      "v": 114
    },
    {
      "midi": 69,
      "hit": false,
      "t": 35117.02829999999,
      "d": 191.48939999999857,
      "v": 82
    },
    {
      "midi": 65,
      "hit": false,
      "t": 35117.02829999999,
      "d": 202.12769999999728,
      "v": 77
    },
    {
      "midi": 57,
      "hit": false,
      "t": 35531.922000000006,
      "d": 292.5532500000045,
      "v": 114
    },
    {
      "midi": 64,
      "hit": false,
      "t": 35553.19859999999,
      "d": 462.76604999999836,
      "v": 65
    },
    {
      "midi": 69,
      "hit": false,
      "t": 35553.19859999999,
      "d": 494.68095000000176,
      "v": 81
    },
    {
      "midi": 67,
      "hit": false,
      "t": 35553.19859999999,
      "d": 500.00010000000475,
      "v": 58
    },
    {
      "midi": 41,
      "hit": false,
      "t": 35553.19859999999,
      "d": 627.6597000000038,
      "v": 66
    },
    {
      "midi": 52,
      "hit": false,
      "t": 35744.68800000001,
      "d": 723.4043999999922,
      "v": 114
    },
    {
      "midi": 36,
      "hit": false,
      "t": 35776.60290000001,
      "d": 707.4469499999905,
      "v": 114
    },
    {
      "midi": 69,
      "hit": false,
      "t": 35904.26250000001,
      "d": 260.6383499999938,
      "v": 114
    },
    {
      "midi": 67,
      "hit": false,
      "t": 36063.83700000001,
      "d": 265.9574999999968,
      "v": 114
    },
    {
      "midi": 53,
      "hit": false,
      "t": 36191.49659999999,
      "d": 287.2340999999942,
      "v": 68
    },
    {
      "midi": 65,
      "hit": false,
      "t": 36223.4115,
      "d": 292.5532500000045,
      "v": 114
    },
    {
      "midi": 45,
      "hit": false,
      "t": 36382.986000000004,
      "d": 691.489499999996,
      "v": 114
    },
    {
      "midi": 64,
      "hit": false,
      "t": 36382.986000000004,
      "d": 723.4043999999994,
      "v": 114
    },
    {
      "midi": 60,
      "hit": false,
      "t": 36382.986000000004,
      "d": 734.0426999999981,
      "v": 114
    },
    {
      "midi": 69,
      "hit": false,
      "t": 36393.62429999999,
      "d": 207.44685000000027,
      "v": 66
    },
    {
      "midi": 64,
      "hit": false,
      "t": 36393.62429999999,
      "d": 223.40430000000197,
      "v": 55
    },
    {
      "midi": 67,
      "hit": false,
      "t": 36393.62429999999,
      "d": 223.40430000000197,
      "v": 47
    },
    {
      "midi": 67,
      "hit": false,
      "t": 36409.581750000005,
      "d": 553.1915999999983,
      "v": 114
    },
    {
      "midi": 69,
      "hit": false,
      "t": 36808.518000000004,
      "d": 904.2554999999993,
      "v": 114
    },
    {
      "midi": 41,
      "hit": false,
      "t": 36829.794599999994,
      "d": 170.21280000000115,
      "v": 62
    },
    {
      "midi": 52,
      "hit": false,
      "t": 37021.284,
      "d": 1372.340700000008,
      "v": 114
    },
    {
      "midi": 65,
      "hit": false,
      "t": 37031.9223,
      "d": 186.17025000000285,
      "v": 58
    },
    {
      "midi": 69,
      "hit": false,
      "t": 37031.9223,
      "d": 186.17025000000285,
      "v": 56
    },
    {
      "midi": 74,
      "hit": false,
      "t": 37031.9223,
      "d": 186.17025000000285,
      "v": 71
    },
    {
      "midi": 52,
      "hit": false,
      "t": 37031.9223,
      "d": 1712.7663000000175,
      "v": 57
    },
    {
      "midi": 38,
      "hit": false,
      "t": 37053.1989,
      "d": 723.4043999999994,
      "v": 114
    },
    {
      "midi": 53,
      "hit": false,
      "t": 37659.582,
      "d": 414.89370000000054,
      "v": 114
    },
    {
      "midi": 57,
      "hit": false,
      "t": 37659.582,
      "d": 414.89370000000054,
      "v": 114
    },
    {
      "midi": 69,
      "hit": false,
      "t": 37670.2203,
      "d": 122.34045000000333,
      "v": 66
    },
    {
      "midi": 65,
      "hit": false,
      "t": 37670.2203,
      "d": 127.65960000000632,
      "v": 49
    },
    {
      "midi": 74,
      "hit": false,
      "t": 37670.2203,
      "d": 127.65960000000632,
      "v": 70
    },
    {
      "midi": 53,
      "hit": false,
      "t": 38085.114,
      "d": 207.44685000000027,
      "v": 114
    },
    {
      "midi": 57,
      "hit": false,
      "t": 38085.114,
      "d": 303.1915500000032,
      "v": 114
    },
    {
      "midi": 45,
      "hit": false,
      "t": 38297.880000000005,
      "d": 1345.7449500000075,
      "v": 114
    },
    {
      "midi": 65,
      "hit": false,
      "t": 38308.51830000001,
      "d": 106.38300000000163,
      "v": 49
    },
    {
      "midi": 69,
      "hit": false,
      "t": 38308.51830000001,
      "d": 132.97875000000204,
      "v": 59
    },
    {
      "midi": 74,
      "hit": false,
      "t": 38308.51830000001,
      "d": 159.57450000000244,
      "v": 77
    },
    {
      "midi": 33,
      "hit": false,
      "t": 38329.79490000001,
      "d": 835.1065500000041,
      "v": 114
    },
    {
      "midi": 57,
      "hit": false,
      "t": 38744.688600000016,
      "d": 473.40434999999707,
      "v": 33
    },
    {
      "midi": 52,
      "hit": false,
      "t": 38904.26310000001,
      "d": 345.744749999998,
      "v": 114
    },
    {
      "midi": 53,
      "hit": false,
      "t": 38936.178000000014,
      "d": 345.744749999998,
      "v": 114
    },
    {
      "midi": 57,
      "hit": false,
      "t": 38936.178000000014,
      "d": 414.89369999999326,
      "v": 114
    },
    {
      "midi": 65,
      "hit": false,
      "t": 38946.81630000001,
      "d": 303.1915500000032,
      "v": 65
    },
    {
      "midi": 69,
      "hit": false,
      "t": 39159.58230000002,
      "d": 223.40430000000197,
      "v": 40
    },
    {
      "midi": 52,
      "hit": false,
      "t": 39329.79510000001,
      "d": 361.7021999999997,
      "v": 114
    },
    {
      "midi": 53,
      "hit": false,
      "t": 39361.71000000001,
      "d": 292.5532500000045,
      "v": 114
    },
    {
      "midi": 57,
      "hit": false,
      "t": 39361.71000000001,
      "d": 335.1064500000066,
      "v": 114
    },
    {
      "midi": 52,
      "hit": false,
      "t": 39382.98660000002,
      "d": 111.70214999999735,
      "v": 72
    },
    {
      "midi": 50,
      "hit": false,
      "t": 39574.47600000001,
      "d": 760.6384500000058,
      "v": 114
    },
    {
      "midi": 38,
      "hit": false,
      "t": 39574.47600000001,
      "d": 803.1916500000079,
      "v": 114
    },
    {
      "midi": 65,
      "hit": false,
      "t": 39585.114300000016,
      "d": 271.2766499999998,
      "v": 65
    },
    {
      "midi": 72,
      "hit": false,
      "t": 39585.114300000016,
      "d": 303.1915500000032,
      "v": 81
    },
    {
      "midi": 69,
      "hit": false,
      "t": 39585.114300000016,
      "d": 308.5107000000062,
      "v": 58
    },
    {
      "midi": 50,
      "hit": false,
      "t": 39585.114300000016,
      "d": 436.1703000000052,
      "v": 66
    },
    {
      "midi": 57,
      "hit": false,
      "t": 40021.28460000002,
      "d": 287.2340999999942,
      "v": 68
    },
    {
      "midi": 57,
      "hit": false,
      "t": 40212.77400000001,
      "d": 569.1490500000073,
      "v": 114
    },
    {
      "midi": 53,
      "hit": false,
      "t": 40212.77400000001,
      "d": 585.106500000009,
      "v": 114
    },
    {
      "midi": 72,
      "hit": false,
      "t": 40223.41230000002,
      "d": 207.44685000000027,
      "v": 66
    },
    {
      "midi": 65,
      "hit": false,
      "t": 40223.41230000002,
      "d": 223.40430000000197,
      "v": 55
    },
    {
      "midi": 69,
      "hit": false,
      "t": 40223.41230000002,
      "d": 223.40430000000197,
      "v": 47
    },
    {
      "midi": 38,
      "hit": false,
      "t": 40638.30600000002,
      "d": 207.44685000000027,
      "v": 114
    },
    {
      "midi": 50,
      "hit": false,
      "t": 40659.58260000002,
      "d": 452.12774999999965,
      "v": 62
    },
    {
      "midi": 65,
      "hit": false,
      "t": 40659.58260000002,
      "d": 675.5320500000016,
      "v": 53
    },
    {
      "midi": 72,
      "hit": false,
      "t": 40659.58260000002,
      "d": 776.5959000000003,
      "v": 80
    },
    {
      "midi": 69,
      "hit": false,
      "t": 40659.58260000002,
      "d": 792.553350000002,
      "v": 65
    },
    {
      "midi": 57,
      "hit": false,
      "t": 40851.07200000002,
      "d": 707.4469500000123,
      "v": 114
    },
    {
      "midi": 53,
      "hit": false,
      "t": 40851.07200000002,
      "d": 723.404400000014,
      "v": 114
    },
    {
      "midi": 38,
      "hit": false,
      "t": 40851.07200000002,
      "d": 776.5959000000148,
      "v": 114
    },
    {
      "midi": 62,
      "hit": false,
      "t": 41063.838000000025,
      "d": 207.44685000000027,
      "v": 114
    },
    {
      "midi": 62,
      "hit": false,
      "t": 41276.60400000003,
      "d": 292.5532500000045,
      "v": 114
    },
    {
      "midi": 57,
      "hit": false,
      "t": 41297.880600000026,
      "d": 367.02134999999544,
      "v": 69
    },
    {
      "midi": 65,
      "hit": false,
      "t": 41489.37000000003,
      "d": 207.44685000000027,
      "v": 114
    },
    {
      "midi": 65,
      "hit": false,
      "t": 41500.00830000002,
      "d": 388.2979500000001,
      "v": 74
    },
    {
      "midi": 67,
      "hit": false,
      "t": 41648.944500000034,
      "d": 196.80854999999428,
      "v": 114
    },
    {
      "midi": 65,
      "hit": false,
      "t": 41808.51900000003,
      "d": 234.04260000000068,
      "v": 114
    },
    {
      "midi": 50,
      "hit": false,
      "t": 41936.17860000002,
      "d": 170.21280000000115,
      "v": 50
    },
    {
      "midi": 67,
      "hit": false,
      "t": 41968.09350000003,
      "d": 154.25534999999945,
      "v": 114
    },
    {
      "midi": 62,
      "hit": false,
      "t": 42127.668000000034,
      "d": 627.6597000000038,
      "v": 114
    },
    {
      "midi": 46,
      "hit": false,
      "t": 42127.668000000034,
      "d": 776.5959000000075,
      "v": 114
    },
    {
      "midi": 65,
      "hit": false,
      "t": 42127.668000000034,
      "d": 792.5533500000092,
      "v": 114
    },
    {
      "midi": 62,
      "hit": false,
      "t": 42138.30630000002,
      "d": 271.2766499999998,
      "v": 65
    },
    {
      "midi": 69,
      "hit": false,
      "t": 42138.30630000002,
      "d": 303.1915500000032,
      "v": 81
    },
    {
      "midi": 65,
      "hit": false,
      "t": 42138.30630000002,
      "d": 308.5107000000062,
      "v": 58
    },
    {
      "midi": 46,
      "hit": false,
      "t": 42138.30630000002,
      "d": 436.1703000000052,
      "v": 66
    },
    {
      "midi": 69,
      "hit": false,
      "t": 42154.263750000035,
      "d": 734.0427000000054,
      "v": 114
    },
    {
      "midi": 53,
      "hit": false,
      "t": 42574.47660000002,
      "d": 287.2340999999942,
      "v": 68
    },
    {
      "midi": 57,
      "hit": false,
      "t": 42765.96600000004,
      "d": 542.5533000000069,
      "v": 114
    },
    {
      "midi": 53,
      "hit": false,
      "t": 42765.96600000004,
      "d": 734.0427000000127,
      "v": 114
    },
    {
      "midi": 69,
      "hit": false,
      "t": 42776.60430000002,
      "d": 207.44685000000027,
      "v": 66
    },
    {
      "midi": 62,
      "hit": false,
      "t": 42776.60430000002,
      "d": 223.40430000000197,
      "v": 55
    },
    {
      "midi": 65,
      "hit": false,
      "t": 42776.60430000002,
      "d": 223.40430000000197,
      "v": 47
    },
    {
      "midi": 62,
      "hit": false,
      "t": 42792.56175000004,
      "d": 585.106500000009,
      "v": 114
    },
    {
      "midi": 46,
      "hit": false,
      "t": 43191.49800000004,
      "d": 207.44685000000027,
      "v": 114
    },
    {
      "midi": 46,
      "hit": false,
      "t": 43212.774600000026,
      "d": 452.12774999999965,
      "v": 62
    },
    {
      "midi": 62,
      "hit": false,
      "t": 43212.774600000026,
      "d": 675.5320500000016,
      "v": 53
    },
    {
      "midi": 69,
      "hit": false,
      "t": 43212.774600000026,
      "d": 776.5959000000003,
      "v": 80
    },
    {
      "midi": 65,
      "hit": false,
      "t": 43212.774600000026,
      "d": 792.553350000002,
      "v": 65
    },
    {
      "midi": 57,
      "hit": false,
      "t": 43404.26400000005,
      "d": 627.6597000000038,
      "v": 114
    },
    {
      "midi": 62,
      "hit": false,
      "t": 43404.26400000005,
      "d": 627.6597000000038,
      "v": 114
    },
    {
      "midi": 46,
      "hit": false,
      "t": 43404.26400000005,
      "d": 803.1916500000007,
      "v": 114
    },
    {
      "midi": 65,
      "hit": false,
      "t": 43436.17890000005,
      "d": 734.0426999999981,
      "v": 114
    },
    {
      "midi": 53,
      "hit": false,
      "t": 43851.07260000003,
      "d": 367.02134999999544,
      "v": 69
    },
    {
      "midi": 62,
      "hit": false,
      "t": 44042.56200000005,
      "d": 319.1489999999976,
      "v": 114
    },
    {
      "midi": 57,
      "hit": false,
      "t": 44042.56200000005,
      "d": 361.7021999999997,
      "v": 114
    },
    {
      "midi": 62,
      "hit": false,
      "t": 44053.200300000026,
      "d": 388.2979500000001,
      "v": 74
    },
    {
      "midi": 62,
      "hit": false,
      "t": 44468.09400000005,
      "d": 207.44685000000027,
      "v": 114
    },
    {
      "midi": 46,
      "hit": false,
      "t": 44489.370600000024,
      "d": 170.21280000000115,
      "v": 50
    },
    {
      "midi": 45,
      "hit": false,
      "t": 44680.86000000005,
      "d": 792.553350000002,
      "v": 114
    },
    {
      "midi": 69,
      "hit": false,
      "t": 44680.86000000005,
      "d": 904.2554999999993,
      "v": 114
    },
    {
      "midi": 62,
      "hit": false,
      "t": 44691.49830000002,
      "d": 345.7447500000053,
      "v": 62
    },
    {
      "midi": 64,
      "hit": false,
      "t": 44691.49830000002,
      "d": 351.0639000000083,
      "v": 51
    },
    {
      "midi": 67,
      "hit": false,
      "t": 44691.49830000002,
      "d": 361.702200000007,
      "v": 75
    },
    {
      "midi": 45,
      "hit": false,
      "t": 44691.49830000002,
      "d": 1244.6811000000089,
      "v": 50
    },
    {
      "midi": 52,
      "hit": false,
      "t": 44691.49830000002,
      "d": 1244.6811000000089,
      "v": 61
    },
    {
      "midi": 62,
      "hit": false,
      "t": 45319.158000000054,
      "d": 760.6384500000058,
      "v": 114
    },
    {
      "midi": 67,
      "hit": false,
      "t": 45329.79630000003,
      "d": 191.48939999999857,
      "v": 82
    },
    {
      "midi": 64,
      "hit": false,
      "t": 45329.79630000003,
      "d": 202.12769999999728,
      "v": 77
    },
    {
      "midi": 67,
      "hit": false,
      "t": 45345.753750000054,
      "d": 664.8937500000029,
      "v": 114
    },
    {
      "midi": 45,
      "hit": false,
      "t": 45744.69000000005,
      "d": 207.44685000000027,
      "v": 114
    },
    {
      "midi": 70,
      "hit": false,
      "t": 45744.69000000005,
      "d": 303.1915500000032,
      "v": 114
    },
    {
      "midi": 69,
      "hit": false,
      "t": 45957.45600000006,
      "d": 319.1490000000049,
      "v": 114
    },
    {
      "midi": 61,
      "hit": false,
      "t": 45957.45600000006,
      "d": 569.1490500000073,
      "v": 114
    },
    {
      "midi": 64,
      "hit": false,
      "t": 45957.45600000006,
      "d": 569.1490500000073,
      "v": 114
    },
    {
      "midi": 45,
      "hit": false,
      "t": 45957.45600000006,
      "d": 707.4469500000123,
      "v": 114
    },
    {
      "midi": 61,
      "hit": false,
      "t": 45968.094300000026,
      "d": 271.2766499999998,
      "v": 65
    },
    {
      "midi": 67,
      "hit": false,
      "t": 45968.094300000026,
      "d": 303.1915500000032,
      "v": 81
    },
    {
      "midi": 64,
      "hit": false,
      "t": 45968.094300000026,
      "d": 308.5107000000062,
      "v": 58
    },
    {
      "midi": 45,
      "hit": false,
      "t": 45968.094300000026,
      "d": 436.1703000000052,
      "v": 66
    },
    {
      "midi": 67,
      "hit": false,
      "t": 46170.22200000006,
      "d": 957.4470000000074,
      "v": 114
    },
    {
      "midi": 52,
      "hit": false,
      "t": 46404.26460000003,
      "d": 287.2340999999942,
      "v": 68
    },
    {
      "midi": 61,
      "hit": false,
      "t": 46595.754000000066,
      "d": 414.89370000000054,
      "v": 114
    },
    {
      "midi": 67,
      "hit": false,
      "t": 46606.39230000003,
      "d": 207.44685000000027,
      "v": 66
    },
    {
      "midi": 61,
      "hit": false,
      "t": 46606.39230000003,
      "d": 223.40430000000197,
      "v": 55
    },
    {
      "midi": 64,
      "hit": false,
      "t": 46606.39230000003,
      "d": 223.40430000000197,
      "v": 47
    },
    {
      "midi": 64,
      "hit": false,
      "t": 46622.34975000007,
      "d": 414.89370000000054,
      "v": 114
    },
    {
      "midi": 61,
      "hit": false,
      "t": 47021.286000000066,
      "d": 292.5532500000045,
      "v": 114
    },
    {
      "midi": 45,
      "hit": false,
      "t": 47042.562600000034,
      "d": 170.21280000000115,
      "v": 62
    },
    {
      "midi": 64,
      "hit": false,
      "t": 47047.881750000066,
      "d": 276.5958000000028,
      "v": 114
    },
    {
      "midi": 42,
      "hit": false,
      "t": 47234.05200000007,
      "d": 1111.702349999985,
      "v": 114
    },
    {
      "midi": 66,
      "hit": false,
      "t": 47244.69030000004,
      "d": 271.2766499999998,
      "v": 65
    },
    {
      "midi": 73,
      "hit": false,
      "t": 47244.69030000004,
      "d": 303.1915500000032,
      "v": 81
    },
    {
      "midi": 70,
      "hit": false,
      "t": 47244.69030000004,
      "d": 308.5107000000062,
      "v": 58
    },
    {
      "midi": 42,
      "hit": false,
      "t": 47244.69030000004,
      "d": 436.1703000000052,
      "v": 66
    },
    {
      "midi": 66,
      "hit": false,
      "t": 47563.839300000065,
      "d": 260.6383500000011,
      "v": 114
    },
    {
      "midi": 58,
      "hit": false,
      "t": 47659.58400000007,
      "d": 372.34049999999115,
      "v": 114
    },
    {
      "midi": 58,
      "hit": false,
      "t": 47680.86060000004,
      "d": 287.2340999999942,
      "v": 68
    },
    {
      "midi": 68,
      "hit": false,
      "t": 47696.81805000007,
      "d": 223.4042999999947,
      "v": 114
    },
    {
      "midi": 61,
      "hit": false,
      "t": 47872.350000000064,
      "d": 414.89369999999326,
      "v": 114
    },
    {
      "midi": 70,
      "hit": false,
      "t": 47872.350000000064,
      "d": 414.89369999999326,
      "v": 114
    },
    {
      "midi": 73,
      "hit": false,
      "t": 47882.98830000004,
      "d": 207.44685000000027,
      "v": 66
    },
    {
      "midi": 66,
      "hit": false,
      "t": 47882.98830000004,
      "d": 223.40430000000197,
      "v": 55
    },
    {
      "midi": 70,
      "hit": false,
      "t": 47882.98830000004,
      "d": 223.40430000000197,
      "v": 47
    },
    {
      "midi": 66,
      "hit": false,
      "t": 48202.13730000006,
      "d": 207.446849999993,
      "v": 114
    },
    {
      "midi": 42,
      "hit": false,
      "t": 48319.158600000046,
      "d": 452.12774999999965,
      "v": 62
    },
    {
      "midi": 66,
      "hit": false,
      "t": 48319.158600000046,
      "d": 675.5320500000016,
      "v": 53
    },
    {
      "midi": 73,
      "hit": false,
      "t": 48319.158600000046,
      "d": 776.5959000000003,
      "v": 80
    },
    {
      "midi": 70,
      "hit": false,
      "t": 48319.158600000046,
      "d": 792.553350000002,
      "v": 65
    },
    {
      "midi": 68,
      "hit": false,
      "t": 48335.116050000055,
      "d": 154.25534999999945,
      "v": 114
    },
    {
      "midi": 61,
      "hit": false,
      "t": 48510.64800000005,
      "d": 627.6597000000038,
      "v": 114
    },
    {
      "midi": 66,
      "hit": false,
      "t": 48510.64800000005,
      "d": 627.6597000000038,
      "v": 114
    },
    {
      "midi": 42,
      "hit": false,
      "t": 48510.64800000005,
      "d": 1069.1491499999975,
      "v": 114
    },
    {
      "midi": 70,
      "hit": false,
      "t": 48542.562900000055,
      "d": 1000.000199999995,
      "v": 114
    },
    {
      "midi": 58,
      "hit": false,
      "t": 48957.45660000005,
      "d": 367.02134999999544,
      "v": 69
    },
    {
      "midi": 61,
      "hit": false,
      "t": 49148.946000000054,
      "d": 638.297999999988,
      "v": 114
    },
    {
      "midi": 66,
      "hit": false,
      "t": 49148.946000000054,
      "d": 654.2554499999897,
      "v": 114
    },
    {
      "midi": 66,
      "hit": false,
      "t": 49159.584300000046,
      "d": 388.2979500000001,
      "v": 74
    },
    {
      "midi": 73,
      "hit": false,
      "t": 49505.32905000005,
      "d": 207.446849999993,
      "v": 114
    },
    {
      "midi": 42,
      "hit": false,
      "t": 49595.754600000044,
      "d": 170.21280000000115,
      "v": 50
    },
    {
      "midi": 70,
      "hit": false,
      "t": 49638.307800000046,
      "d": 234.04260000000068,
      "v": 114
    },
    {
      "midi": 46,
      "hit": false,
      "t": 49787.24400000004,
      "d": 627.6597000000038,
      "v": 114
    },
    {
      "midi": 58,
      "hit": false,
      "t": 49787.24400000004,
      "d": 627.6597000000038,
      "v": 114
    },
    {
      "midi": 61,
      "hit": false,
      "t": 49787.24400000004,
      "d": 627.6597000000038,
      "v": 114
    },
    {
      "midi": 61,
      "hit": false,
      "t": 49797.88230000004,
      "d": 186.17025000000285,
      "v": 58
    },
    {
      "midi": 65,
      "hit": false,
      "t": 49797.88230000004,
      "d": 186.17025000000285,
      "v": 56
    },
    {
      "midi": 70,
      "hit": false,
      "t": 49797.88230000004,
      "d": 186.17025000000285,
      "v": 71
    },
    {
      "midi": 46,
      "hit": false,
      "t": 49797.88230000004,
      "d": 1712.7663000000175,
      "v": 57
    },
    {
      "midi": 65,
      "hit": false,
      "t": 49819.158900000046,
      "d": 973.4044500000018,
      "v": 114
    },
    {
      "midi": 61,
      "hit": false,
      "t": 50425.542000000045,
      "d": 595.7448000000004,
      "v": 114
    },
    {
      "midi": 58,
      "hit": false,
      "t": 50425.542000000045,
      "d": 723.4044000000067,
      "v": 114
    },
    {
      "midi": 65,
      "hit": false,
      "t": 50436.180300000044,
      "d": 122.34045000000333,
      "v": 66
    },
    {
      "midi": 61,
      "hit": false,
      "t": 50436.180300000044,
      "d": 127.65960000000632,
      "v": 49
    },
    {
      "midi": 70,
      "hit": false,
      "t": 50436.180300000044,
      "d": 127.65960000000632,
      "v": 70
    },
    {
      "midi": 46,
      "hit": false,
      "t": 50851.074000000044,
      "d": 207.44685000000027,
      "v": 114
    },
    {
      "midi": 70,
      "hit": false,
      "t": 50851.074000000044,
      "d": 207.44685000000027,
      "v": 114
    },
    {
      "midi": 61,
      "hit": false,
      "t": 51063.84000000005,
      "d": 627.6597000000038,
      "v": 114
    },
    {
      "midi": 65,
      "hit": false,
      "t": 51063.84000000005,
      "d": 627.6597000000038,
      "v": 114
    },
    {
      "midi": 46,
      "hit": false,
      "t": 51063.84000000005,
      "d": 776.5959000000003,
      "v": 114
    },
    {
      "midi": 61,
      "hit": false,
      "t": 51074.47830000005,
      "d": 106.38300000000163,
      "v": 49
    },
    {
      "midi": 65,
      "hit": false,
      "t": 51074.47830000005,
      "d": 132.97875000000204,
      "v": 59
    },
    {
      "midi": 70,
      "hit": false,
      "t": 51074.47830000005,
      "d": 159.57450000000244,
      "v": 77
    },
    {
      "midi": 70,
      "hit": false,
      "t": 51095.75490000005,
      "d": 723.4043999999994,
      "v": 114
    },
    {
      "midi": 53,
      "hit": false,
      "t": 51510.64860000006,
      "d": 473.40434999999707,
      "v": 33
    },
    {
      "midi": 65,
      "hit": false,
      "t": 51702.13800000005,
      "d": 319.1489999999976,
      "v": 114
    },
    {
      "midi": 61,
      "hit": false,
      "t": 51712.776300000056,
      "d": 303.1915500000032,
      "v": 65
    },
    {
      "midi": 61,
      "hit": false,
      "t": 51914.904000000046,
      "d": 319.1490000000049,
      "v": 114
    },
    {
      "midi": 65,
      "hit": false,
      "t": 51925.54230000006,
      "d": 223.40430000000197,
      "v": 40
    },
    {
      "midi": 58,
      "hit": false,
      "t": 52127.67000000005,
      "d": 207.44685000000027,
      "v": 114
    },
    {
      "midi": 46,
      "hit": false,
      "t": 52148.94660000006,
      "d": 111.70214999999735,
      "v": 72
    },
    {
      "midi": 59,
      "hit": false,
      "t": 52340.43600000005,
      "d": 585.1065000000017,
      "v": 114
    },
    {
      "midi": 47,
      "hit": false,
      "t": 52340.43600000005,
      "d": 760.6384500000058,
      "v": 114
    },
    {
      "midi": 63,
      "hit": false,
      "t": 52351.07430000006,
      "d": 345.7447500000053,
      "v": 62
    },
    {
      "midi": 66,
      "hit": false,
      "t": 52351.07430000006,
      "d": 351.0639000000083,
      "v": 51
    },
    {
      "midi": 68,
      "hit": false,
      "t": 52351.07430000006,
      "d": 361.702200000007,
      "v": 75
    },
    {
      "midi": 47,
      "hit": false,
      "t": 52351.07430000006,
      "d": 2101.0642500000104,
      "v": 50
    },
    {
      "midi": 54,
      "hit": false,
      "t": 52351.07430000006,
      "d": 2122.340850000015,
      "v": 61
    },
    {
      "midi": 63,
      "hit": false,
      "t": 52367.03175000005,
      "d": 515.9575499999992,
      "v": 114
    },
    {
      "midi": 68,
      "hit": false,
      "t": 52765.96800000005,
      "d": 207.44685000000027,
      "v": 114
    },
    {
      "midi": 63,
      "hit": false,
      "t": 52978.734000000055,
      "d": 1026.59595000001,
      "v": 114
    },
    {
      "midi": 59,
      "hit": false,
      "t": 52978.734000000055,
      "d": 1164.8938500000077,
      "v": 114
    },
    {
      "midi": 68,
      "hit": false,
      "t": 52978.734000000055,
      "d": 1164.8938500000077,
      "v": 114
    },
    {
      "midi": 68,
      "hit": false,
      "t": 52989.37230000007,
      "d": 191.48939999999857,
      "v": 82
    },
    {
      "midi": 66,
      "hit": false,
      "t": 52989.37230000007,
      "d": 202.12769999999728,
      "v": 77
    },
    {
      "midi": 47,
      "hit": false,
      "t": 53404.26600000006,
      "d": 207.44685000000027,
      "v": 114
    },
    {
      "midi": 47,
      "hit": false,
      "t": 53617.032000000065,
      "d": 872.3406000000032,
      "v": 114
    },
    {
      "midi": 66,
      "hit": false,
      "t": 53627.67030000006,
      "d": 452.12774999999965,
      "v": 68
    },
    {
      "midi": 68,
      "hit": false,
      "t": 53627.67030000006,
      "d": 452.12774999999965,
      "v": 73
    },
    {
      "midi": 63,
      "hit": false,
      "t": 54042.564000000064,
      "d": 207.44685000000027,
      "v": 114
    },
    {
      "midi": 63,
      "hit": false,
      "t": 54063.84060000006,
      "d": 159.57450000000244,
      "v": 66
    },
    {
      "midi": 59,
      "hit": false,
      "t": 54255.33000000007,
      "d": 627.6597000000038,
      "v": 114
    },
    {
      "midi": 63,
      "hit": false,
      "t": 54255.33000000007,
      "d": 627.6597000000038,
      "v": 114
    },
    {
      "midi": 66,
      "hit": false,
      "t": 54265.968300000066,
      "d": 191.48940000000584,
      "v": 70
    },
    {
      "midi": 68,
      "hit": false,
      "t": 54265.968300000066,
      "d": 207.44685000000754,
      "v": 78
    },
    {
      "midi": 68,
      "hit": false,
      "t": 54287.24490000007,
      "d": 595.7448000000004,
      "v": 114
    },
    {
      "midi": 56,
      "hit": false,
      "t": 54702.13860000007,
      "d": 111.70214999999735,
      "v": 72
    },
    {
      "midi": 56,
      "hit": false,
      "t": 54893.62800000007,
      "d": 627.6596999999965,
      "v": 114
    },
    {
      "midi": 60,
      "hit": false,
      "t": 54893.62800000007,
      "d": 627.6596999999965,
      "v": 114
    },
    {
      "midi": 63,
      "hit": false,
      "t": 54893.62800000007,
      "d": 627.6596999999965,
      "v": 114
    },
    {
      "midi": 46,
      "hit": false,
      "t": 54893.62800000007,
      "d": 750.0001499999926,
      "v": 114
    },
    {
      "midi": 63,
      "hit": false,
      "t": 54904.26630000007,
      "d": 345.7447500000053,
      "v": 62
    },
    {
      "midi": 65,
      "hit": false,
      "t": 54904.26630000007,
      "d": 351.0639000000083,
      "v": 51
    },
    {
      "midi": 68,
      "hit": false,
      "t": 54904.26630000007,
      "d": 361.702200000007,
      "v": 75
    },
    {
      "midi": 34,
      "hit": false,
      "t": 54904.26630000007,
      "d": 1244.6811000000089,
      "v": 50
    },
    {
      "midi": 53,
      "hit": false,
      "t": 54904.26630000007,
      "d": 1244.6811000000089,
      "v": 61
    },
    {
      "midi": 65,
      "hit": false,
      "t": 54930.86205000007,
      "d": 1069.1491499999975,
      "v": 114
    },
    {
      "midi": 56,
      "hit": false,
      "t": 55531.926000000065,
      "d": 292.5532499999972,
      "v": 114
    },
    {
      "midi": 60,
      "hit": false,
      "t": 55531.926000000065,
      "d": 335.1064499999993,
      "v": 114
    },
    {
      "midi": 63,
      "hit": false,
      "t": 55531.926000000065,
      "d": 345.744749999998,
      "v": 114
    },
    {
      "midi": 68,
      "hit": false,
      "t": 55542.56430000008,
      "d": 191.48939999999857,
      "v": 82
    },
    {
      "midi": 65,
      "hit": false,
      "t": 55542.56430000008,
      "d": 202.12769999999728,
      "v": 77
    },
    {
      "midi": 46,
      "hit": false,
      "t": 55957.458000000064,
      "d": 207.44685000000027,
      "v": 114
    },
    {
      "midi": 58,
      "hit": false,
      "t": 55957.458000000064,
      "d": 319.1490000000049,
      "v": 114
    },
    {
      "midi": 46,
      "hit": false,
      "t": 56170.22400000007,
      "d": 627.6597000000038,
      "v": 114
    },
    {
      "midi": 56,
      "hit": false,
      "t": 56170.22400000007,
      "d": 627.6597000000038,
      "v": 114
    },
    {
      "midi": 60,
      "hit": false,
      "t": 56170.22400000007,
      "d": 776.5959000000003,
      "v": 114
    },
    {
      "midi": 63,
      "hit": false,
      "t": 56180.86230000007,
      "d": 271.2766499999998,
      "v": 65
    },
    {
      "midi": 68,
      "hit": false,
      "t": 56180.86230000007,
      "d": 303.1915500000032,
      "v": 81
    },
    {
      "midi": 65,
      "hit": false,
      "t": 56180.86230000007,
      "d": 308.5107000000062,
      "v": 58
    },
    {
      "midi": 34,
      "hit": false,
      "t": 56180.86230000007,
      "d": 436.1703000000052,
      "v": 66
    },
    {
      "midi": 63,
      "hit": false,
      "t": 56202.13890000007,
      "d": 723.4043999999994,
      "v": 114
    },
    {
      "midi": 53,
      "hit": false,
      "t": 56617.03260000008,
      "d": 191.48939999999857,
      "v": 68
    },
    {
      "midi": 46,
      "hit": false,
      "t": 56808.52200000007,
      "d": 553.1915999999983,
      "v": 114
    },
    {
      "midi": 62,
      "hit": false,
      "t": 56808.52200000007,
      "d": 553.1915999999983,
      "v": 114
    },
    {
      "midi": 56,
      "hit": false,
      "t": 56808.52200000007,
      "d": 734.0426999999981,
      "v": 114
    },
    {
      "midi": 65,
      "hit": false,
      "t": 56808.52200000007,
      "d": 750.0001499999998,
      "v": 114
    },
    {
      "midi": 62,
      "hit": false,
      "t": 56819.160300000076,
      "d": 271.2766499999998,
      "v": 65
    },
    {
      "midi": 68,
      "hit": false,
      "t": 56819.160300000076,
      "d": 303.1915500000032,
      "v": 81
    },
    {
      "midi": 65,
      "hit": false,
      "t": 56819.160300000076,
      "d": 308.5107000000062,
      "v": 58
    },
    {
      "midi": 46,
      "hit": false,
      "t": 56819.160300000076,
      "d": 436.1703000000052,
      "v": 66
    },
    {
      "midi": 34,
      "hit": false,
      "t": 57234.05400000007,
      "d": 303.1915499999959,
      "v": 114
    },
    {
      "midi": 53,
      "hit": false,
      "t": 57255.33060000008,
      "d": 191.48939999999857,
      "v": 68
    },
    {
      "midi": 39,
      "hit": false,
      "t": 57446.820000000065,
      "d": 627.6597000000038,
      "v": 114
    },
    {
      "midi": 58,
      "hit": false,
      "t": 57446.820000000065,
      "d": 627.6597000000038,
      "v": 114
    },
    {
      "midi": 62,
      "hit": false,
      "t": 57446.820000000065,
      "d": 627.6597000000038,
      "v": 114
    },
    {
      "midi": 67,
      "hit": false,
      "t": 57446.820000000065,
      "d": 930.851250000007,
      "v": 114
    },
    {
      "midi": 62,
      "hit": false,
      "t": 57457.45830000008,
      "d": 345.7447500000053,
      "v": 62
    },
    {
      "midi": 65,
      "hit": false,
      "t": 57457.45830000008,
      "d": 351.0639000000083,
      "v": 51
    },
    {
      "midi": 67,
      "hit": false,
      "t": 57457.45830000008,
      "d": 361.702200000007,
      "v": 75
    },
    {
      "midi": 39,
      "hit": false,
      "t": 57457.45830000008,
      "d": 1010.6385000000082,
      "v": 50
    },
    {
      "midi": 51,
      "hit": false,
      "t": 57457.45830000008,
      "d": 1010.6385000000082,
      "v": 61
    },
    {
      "midi": 62,
      "hit": false,
      "t": 58085.11800000007,
      "d": 595.7448000000077,
      "v": 114
    },
    {
      "midi": 58,
      "hit": false,
      "t": 58085.11800000007,
      "d": 734.0427000000127,
      "v": 114
    },
    {
      "midi": 39,
      "hit": false,
      "t": 58085.11800000007,
      "d": 750.0001500000144,
      "v": 114
    },
    {
      "midi": 67,
      "hit": false,
      "t": 58095.75630000009,
      "d": 191.48939999999857,
      "v": 82
    },
    {
      "midi": 65,
      "hit": false,
      "t": 58095.75630000009,
      "d": 202.12769999999728,
      "v": 77
    },
    {
      "midi": 65,
      "hit": false,
      "t": 58297.88400000007,
      "d": 319.1490000000049,
      "v": 114
    },
    {
      "midi": 67,
      "hit": false,
      "t": 58510.650000000074,
      "d": 335.1064500000066,
      "v": 114
    },
    {
      "midi": 65,
      "hit": false,
      "t": 58531.926600000086,
      "d": 462.76604999999836,
      "v": 67
    },
    {
      "midi": 70,
      "hit": false,
      "t": 58531.926600000086,
      "d": 494.68095000000176,
      "v": 83
    },
    {
      "midi": 67,
      "hit": false,
      "t": 58531.926600000086,
      "d": 500.00010000000475,
      "v": 60
    },
    {
      "midi": 43,
      "hit": false,
      "t": 58531.926600000086,
      "d": 627.6597000000038,
      "v": 68
    },
    {
      "midi": 43,
      "hit": false,
      "t": 58723.41600000008,
      "d": 627.6597000000038,
      "v": 114
    },
    {
      "midi": 62,
      "hit": false,
      "t": 58723.41600000008,
      "d": 627.6597000000038,
      "v": 114
    },
    {
      "midi": 65,
      "hit": false,
      "t": 58723.41600000008,
      "d": 627.6597000000038,
      "v": 114
    },
    {
      "midi": 70,
      "hit": false,
      "t": 58723.41600000008,
      "d": 930.851250000007,
      "v": 114
    },
    {
      "midi": 55,
      "hit": false,
      "t": 59170.22460000009,
      "d": 287.2340999999942,
      "v": 70
    },
    {
      "midi": 62,
      "hit": false,
      "t": 59361.71400000008,
      "d": 622.3405500000081,
      "v": 114
    },
    {
      "midi": 65,
      "hit": false,
      "t": 59361.71400000008,
      "d": 622.3405500000081,
      "v": 114
    },
    {
      "midi": 43,
      "hit": false,
      "t": 59361.71400000008,
      "d": 803.1916500000152,
      "v": 114
    },
    {
      "midi": 70,
      "hit": false,
      "t": 59372.352300000086,
      "d": 207.44685000000027,
      "v": 68
    },
    {
      "midi": 65,
      "hit": false,
      "t": 59372.352300000086,
      "d": 223.40430000000197,
      "v": 57
    },
    {
      "midi": 67,
      "hit": false,
      "t": 59372.352300000086,
      "d": 223.40430000000197,
      "v": 49
    },
    {
      "midi": 68,
      "hit": false,
      "t": 59574.48000000008,
      "d": 276.5958000000028,
      "v": 114
    },
    {
      "midi": 70,
      "hit": false,
      "t": 59787.24600000009,
      "d": 335.1064500000066,
      "v": 114
    },
    {
      "midi": 43,
      "hit": false,
      "t": 59808.52260000009,
      "d": 170.21280000000115,
      "v": 64
    },
    {
      "midi": 63,
      "hit": false,
      "t": 60000.01200000009,
      "d": 627.6597000000038,
      "v": 114
    },
    {
      "midi": 68,
      "hit": false,
      "t": 60000.01200000009,
      "d": 627.6597000000038,
      "v": 114
    },
    {
      "midi": 44,
      "hit": false,
      "t": 60000.01200000009,
      "d": 803.1916500000007,
      "v": 114
    },
    {
      "midi": 68,
      "hit": false,
      "t": 60010.650300000096,
      "d": 345.7447500000053,
      "v": 62
    },
    {
      "midi": 72,
      "hit": false,
      "t": 60010.650300000096,
      "d": 351.0639000000083,
      "v": 51
    },
    {
      "midi": 75,
      "hit": false,
      "t": 60010.650300000096,
      "d": 361.702200000007,
      "v": 75
    },
    {
      "midi": 44,
      "hit": false,
      "t": 60010.650300000096,
      "d": 1244.6811000000089,
      "v": 50
    },
    {
      "midi": 60,
      "hit": false,
      "t": 60010.650300000096,
      "d": 1244.6811000000089,
      "v": 61
    },
    {
      "midi": 74,
      "hit": false,
      "t": 60026.60775000009,
      "d": 776.5959000000003,
      "v": 114
    },
    {
      "midi": 68,
      "hit": false,
      "t": 60638.31000000009,
      "d": 734.0427000000054,
      "v": 114
    },
    {
      "midi": 63,
      "hit": false,
      "t": 60638.31000000009,
      "d": 760.6384500000058,
      "v": 114
    },
    {
      "midi": 75,
      "hit": false,
      "t": 60648.948300000106,
      "d": 191.48939999999857,
      "v": 82
    },
    {
      "midi": 72,
      "hit": false,
      "t": 60648.948300000106,
      "d": 202.12769999999728,
      "v": 77
    },
    {
      "midi": 72,
      "hit": false,
      "t": 60664.90575000009,
      "d": 750.0001500000071,
      "v": 114
    },
    {
      "midi": 44,
      "hit": false,
      "t": 61063.84200000009,
      "d": 372.3405000000057,
      "v": 114
    },
    {
      "midi": 65,
      "hit": false,
      "t": 61276.608000000095,
      "d": 292.5532500000045,
      "v": 114
    },
    {
      "midi": 62,
      "hit": false,
      "t": 61276.608000000095,
      "d": 303.1915500000032,
      "v": 114
    },
    {
      "midi": 43,
      "hit": false,
      "t": 61276.608000000095,
      "d": 553.1916000000056,
      "v": 114
    },
    {
      "midi": 65,
      "hit": false,
      "t": 61287.2463000001,
      "d": 345.7447500000053,
      "v": 62
    },
    {
      "midi": 67,
      "hit": false,
      "t": 61287.2463000001,
      "d": 351.0639000000083,
      "v": 51
    },
    {
      "midi": 70,
      "hit": false,
      "t": 61287.2463000001,
      "d": 361.702200000007,
      "v": 75
    },
    {
      "midi": 43,
      "hit": false,
      "t": 61287.2463000001,
      "d": 627.6597000000038,
      "v": 50
    },
    {
      "midi": 55,
      "hit": false,
      "t": 61287.2463000001,
      "d": 627.6597000000038,
      "v": 61
    },
    {
      "midi": 70,
      "hit": false,
      "t": 61303.203750000095,
      "d": 265.9575000000041,
      "v": 114
    },
    {
      "midi": 58,
      "hit": false,
      "t": 61489.3740000001,
      "d": 973.4044500000018,
      "v": 114
    },
    {
      "midi": 63,
      "hit": false,
      "t": 61489.3740000001,
      "d": 984.0427500000005,
      "v": 114
    },
    {
      "midi": 43,
      "hit": false,
      "t": 61914.9060000001,
      "d": 627.6597000000038,
      "v": 114
    },
    {
      "midi": 63,
      "hit": false,
      "t": 61925.5443000001,
      "d": 271.2766499999998,
      "v": 65
    },
    {
      "midi": 70,
      "hit": false,
      "t": 61925.5443000001,
      "d": 303.1915500000032,
      "v": 81
    },
    {
      "midi": 67,
      "hit": false,
      "t": 61925.5443000001,
      "d": 308.5107000000062,
      "v": 58
    },
    {
      "midi": 43,
      "hit": false,
      "t": 61925.5443000001,
      "d": 436.1703000000052,
      "v": 66
    },
    {
      "midi": 55,
      "hit": false,
      "t": 62361.71460000011,
      "d": 191.48939999999857,
      "v": 68
    },
    {
      "midi": 44,
      "hit": false,
      "t": 62553.2040000001,
      "d": 627.6596999999965,
      "v": 114
    },
    {
      "midi": 68,
      "hit": false,
      "t": 62563.842300000106,
      "d": 345.7447500000053,
      "v": 62
    },
    {
      "midi": 72,
      "hit": false,
      "t": 62563.842300000106,
      "d": 351.0639000000083,
      "v": 51
    },
    {
      "midi": 75,
      "hit": false,
      "t": 62563.842300000106,
      "d": 361.702200000007,
      "v": 75
    },
    {
      "midi": 44,
      "hit": false,
      "t": 62563.842300000106,
      "d": 1244.6811000000089,
      "v": 50
    },
    {
      "midi": 60,
      "hit": false,
      "t": 62563.842300000106,
      "d": 1244.6811000000089,
      "v": 61
    },
    {
      "midi": 63,
      "hit": false,
      "t": 63191.502000000095,
      "d": 750.0001500000071,
      "v": 114
    },
    {
      "midi": 68,
      "hit": false,
      "t": 63191.502000000095,
      "d": 760.6384500000058,
      "v": 114
    },
    {
      "midi": 75,
      "hit": false,
      "t": 63202.140300000116,
      "d": 191.48939999999857,
      "v": 82
    },
    {
      "midi": 72,
      "hit": false,
      "t": 63202.140300000116,
      "d": 202.12769999999728,
      "v": 77
    },
    {
      "midi": 74,
      "hit": false,
      "t": 63218.097750000095,
      "d": 414.89370000000054,
      "v": 114
    },
    {
      "midi": 44,
      "hit": false,
      "t": 63617.034000000094,
      "d": 372.3405000000057,
      "v": 114
    },
    {
      "midi": 72,
      "hit": false,
      "t": 63617.034000000094,
      "d": 372.3405000000057,
      "v": 114
    },
    {
      "midi": 43,
      "hit": false,
      "t": 63829.8000000001,
      "d": 627.6597000000038,
      "v": 114
    },
    {
      "midi": 62,
      "hit": false,
      "t": 63829.8000000001,
      "d": 691.4895000000033,
      "v": 114
    },
    {
      "midi": 65,
      "hit": false,
      "t": 63829.8000000001,
      "d": 750.0001499999998,
      "v": 114
    },
    {
      "midi": 65,
      "hit": false,
      "t": 63840.43830000011,
      "d": 271.2766499999998,
      "v": 65
    },
    {
      "midi": 70,
      "hit": false,
      "t": 63840.43830000011,
      "d": 303.1915500000032,
      "v": 81
    },
    {
      "midi": 67,
      "hit": false,
      "t": 63840.43830000011,
      "d": 308.5107000000062,
      "v": 58
    },
    {
      "midi": 43,
      "hit": false,
      "t": 63840.43830000011,
      "d": 436.1703000000052,
      "v": 66
    },
    {
      "midi": 70,
      "hit": false,
      "t": 63861.7149000001,
      "d": 723.4043999999994,
      "v": 114
    },
    {
      "midi": 55,
      "hit": false,
      "t": 64276.608600000116,
      "d": 191.48939999999857,
      "v": 68
    },
    {
      "midi": 43,
      "hit": false,
      "t": 64468.0980000001,
      "d": 414.89370000000054,
      "v": 114
    },
    {
      "midi": 58,
      "hit": false,
      "t": 64468.0980000001,
      "d": 414.89370000000054,
      "v": 114
    },
    {
      "midi": 63,
      "hit": false,
      "t": 64468.0980000001,
      "d": 414.89370000000054,
      "v": 114
    },
    {
      "midi": 63,
      "hit": false,
      "t": 64478.73630000011,
      "d": 271.2766499999998,
      "v": 65
    },
    {
      "midi": 70,
      "hit": false,
      "t": 64478.73630000011,
      "d": 303.1915500000032,
      "v": 81
    },
    {
      "midi": 67,
      "hit": false,
      "t": 64478.73630000011,
      "d": 308.5107000000062,
      "v": 58
    },
    {
      "midi": 43,
      "hit": false,
      "t": 64478.73630000011,
      "d": 436.1703000000052,
      "v": 66
    },
    {
      "midi": 63,
      "hit": false,
      "t": 64893.6300000001,
      "d": 207.44685000000027,
      "v": 114
    },
    {
      "midi": 55,
      "hit": false,
      "t": 64914.90660000012,
      "d": 191.48939999999857,
      "v": 68
    },
    {
      "midi": 43,
      "hit": false,
      "t": 65106.3960000001,
      "d": 776.5959000000075,
      "v": 114
    },
    {
      "midi": 60,
      "hit": false,
      "t": 65106.3960000001,
      "d": 1457.4470999999976,
      "v": 114
    },
    {
      "midi": 67,
      "hit": false,
      "t": 65106.3960000001,
      "d": 1819.1492999999973,
      "v": 114
    },
    {
      "midi": 65,
      "hit": false,
      "t": 65117.034300000116,
      "d": 345.7447500000053,
      "v": 62
    },
    {
      "midi": 69,
      "hit": false,
      "t": 65117.034300000116,
      "d": 351.0639000000083,
      "v": 51
    },
    {
      "midi": 72,
      "hit": false,
      "t": 65117.034300000116,
      "d": 361.702200000007,
      "v": 75
    },
    {
      "midi": 43,
      "hit": false,
      "t": 65117.034300000116,
      "d": 1010.6385000000155,
      "v": 50
    },
    {
      "midi": 57,
      "hit": false,
      "t": 65117.034300000116,
      "d": 1010.6385000000155,
      "v": 61
    },
    {
      "midi": 62,
      "hit": false,
      "t": 65148.949200000105,
      "d": 526.5958499999979,
      "v": 114
    },
    {
      "midi": 65,
      "hit": false,
      "t": 65148.949200000105,
      "d": 585.1064999999944,
      "v": 114
    },
    {
      "midi": 62,
      "hit": false,
      "t": 65744.6940000001,
      "d": 734.0426999999909,
      "v": 114
    },
    {
      "midi": 72,
      "hit": false,
      "t": 65755.33230000013,
      "d": 191.48940000000584,
      "v": 82
    },
    {
      "midi": 69,
      "hit": false,
      "t": 65755.33230000013,
      "d": 202.12770000001183,
      "v": 77
    },
    {
      "midi": 65,
      "hit": false,
      "t": 65776.60890000011,
      "d": 723.4043999999849,
      "v": 114
    },
    {
      "midi": 43,
      "hit": false,
      "t": 66170.22600000011,
      "d": 207.446849999993,
      "v": 114
    },
    {
      "midi": 65,
      "hit": false,
      "t": 66191.50260000014,
      "d": 462.76605000000563,
      "v": 67
    },
    {
      "midi": 71,
      "hit": false,
      "t": 66191.50260000014,
      "d": 494.68095000000903,
      "v": 83
    },
    {
      "midi": 67,
      "hit": false,
      "t": 66191.50260000014,
      "d": 500.00010000000475,
      "v": 60
    },
    {
      "midi": 43,
      "hit": false,
      "t": 66191.50260000014,
      "d": 627.6597000000038,
      "v": 68
    },
    {
      "midi": 43,
      "hit": false,
      "t": 66382.9920000001,
      "d": 760.638449999984,
      "v": 114
    },
    {
      "midi": 59,
      "hit": false,
      "t": 66382.9920000001,
      "d": 1250.0002499999828,
      "v": 114
    },
    {
      "midi": 65,
      "hit": false,
      "t": 66808.5240000001,
      "d": 292.55324999998265,
      "v": 114
    },
    {
      "midi": 55,
      "hit": false,
      "t": 66829.80060000015,
      "d": 287.2341000000015,
      "v": 70
    },
    {
      "midi": 62,
      "hit": false,
      "t": 67021.2900000001,
      "d": 542.553299999985,
      "v": 114
    },
    {
      "midi": 71,
      "hit": false,
      "t": 67031.92830000015,
      "d": 207.44685000000754,
      "v": 68
    },
    {
      "midi": 65,
      "hit": false,
      "t": 67031.92830000015,
      "d": 223.40430000000924,
      "v": 57
    },
    {
      "midi": 67,
      "hit": false,
      "t": 67031.92830000015,
      "d": 223.40430000000924,
      "v": 49
    },
    {
      "midi": 65,
      "hit": false,
      "t": 67446.82200000009,
      "d": 207.446849999993,
      "v": 114
    },
    {
      "midi": 43,
      "hit": false,
      "t": 67468.09860000016,
      "d": 170.21279999999388,
      "v": 64
    },
    {
      "midi": 43,
      "hit": false,
      "t": 67659.58800000008,
      "d": 569.1490499999927,
      "v": 114
    },
    {
      "midi": 62,
      "hit": false,
      "t": 67659.58800000008,
      "d": 734.0426999999909,
      "v": 114
    },
    {
      "midi": 65,
      "hit": false,
      "t": 67659.58800000008,
      "d": 941.4895499999839,
      "v": 114
    },
    {
      "midi": 58,
      "hit": false,
      "t": 67659.58800000008,
      "d": 1010.6384999999718,
      "v": 114
    },
    {
      "midi": 65,
      "hit": false,
      "t": 67670.22630000015,
      "d": 345.744749999998,
      "v": 62
    },
    {
      "midi": 67,
      "hit": false,
      "t": 67670.22630000015,
      "d": 351.06389999999374,
      "v": 51
    },
    {
      "midi": 70,
      "hit": false,
      "t": 67670.22630000015,
      "d": 361.7021999999997,
      "v": 75
    },
    {
      "midi": 43,
      "hit": false,
      "t": 67670.22630000015,
      "d": 1010.6385000000009,
      "v": 50
    },
    {
      "midi": 55,
      "hit": false,
      "t": 67670.22630000015,
      "d": 1010.6385000000009,
      "v": 61
    },
    {
      "midi": 69,
      "hit": false,
      "t": 67686.18375000007,
      "d": 526.5958499999979,
      "v": 114
    },
    {
      "midi": 67,
      "hit": false,
      "t": 68085.12000000007,
      "d": 542.553299999985,
      "v": 114
    },
    {
      "midi": 43,
      "hit": false,
      "t": 68297.88600000007,
      "d": 723.4043999999703,
      "v": 114
    },
    {
      "midi": 70,
      "hit": false,
      "t": 68308.52430000015,
      "d": 191.48940000000584,
      "v": 82
    },
    {
      "midi": 67,
      "hit": false,
      "t": 68308.52430000015,
      "d": 202.12770000001183,
      "v": 77
    },
    {
      "midi": 62,
      "hit": false,
      "t": 68510.65200000006,
      "d": 361.70219999998517,
      "v": 114
    },
    {
      "midi": 65,
      "hit": false,
      "t": 68723.41800000005,
      "d": 303.19154999998864,
      "v": 114
    },
    {
      "midi": 64,
      "hit": false,
      "t": 68744.69460000016,
      "d": 462.76605000000563,
      "v": 67
    },
    {
      "midi": 69,
      "hit": false,
      "t": 68744.69460000016,
      "d": 494.68095000000903,
      "v": 83
    },
    {
      "midi": 67,
      "hit": false,
      "t": 68744.69460000016,
      "d": 500.00010000000475,
      "v": 60
    },
    {
      "midi": 48,
      "hit": false,
      "t": 68744.69460000016,
      "d": 627.6597000000038,
      "v": 68
    },
    {
      "midi": 64,
      "hit": false,
      "t": 68936.18400000005,
      "d": 207.44684999997844,
      "v": 114
    },
    {
      "midi": 60,
      "hit": false,
      "t": 68936.18400000005,
      "d": 303.1915499999741,
      "v": 114
    },
    {
      "midi": 36,
      "hit": false,
      "t": 68936.18400000005,
      "d": 595.7447999999713,
      "v": 114
    },
    {
      "midi": 69,
      "hit": false,
      "t": 68962.77975000005,
      "d": 180.8510999999853,
      "v": 114
    },
    {
      "midi": 69,
      "hit": false,
      "t": 69148.95000000003,
      "d": 941.4895499999839,
      "v": 114
    },
    {
      "midi": 64,
      "hit": false,
      "t": 69148.95000000003,
      "d": 957.4469999999856,
      "v": 114
    },
    {
      "midi": 72,
      "hit": false,
      "t": 69180.86490000003,
      "d": 888.298049999983,
      "v": 114
    },
    {
      "midi": 55,
      "hit": false,
      "t": 69382.99260000017,
      "d": 287.2341000000015,
      "v": 70
    },
    {
      "midi": 36,
      "hit": false,
      "t": 69574.48200000002,
      "d": 750.0001499999926,
      "v": 114
    },
    {
      "midi": 69,
      "hit": false,
      "t": 69585.12030000017,
      "d": 207.44685000000754,
      "v": 68
    },
    {
      "midi": 64,
      "hit": false,
      "t": 69585.12030000017,
      "d": 223.40430000000924,
      "v": 57
    },
    {
      "midi": 67,
      "hit": false,
      "t": 69585.12030000017,
      "d": 223.40430000000924,
      "v": 49
    },
    {
      "midi": 48,
      "hit": false,
      "t": 70021.29060000018,
      "d": 170.21279999999388,
      "v": 64
    },
    {
      "midi": 43,
      "hit": false,
      "t": 70212.78000000001,
      "d": 627.6597000000038,
      "v": 114
    },
    {
      "midi": 65,
      "hit": false,
      "t": 70212.78000000001,
      "d": 1000.0002000000095,
      "v": 114
    },
    {
      "midi": 70,
      "hit": false,
      "t": 70212.78000000001,
      "d": 1000.0002000000095,
      "v": 114
    },
    {
      "midi": 65,
      "hit": false,
      "t": 70223.41830000018,
      "d": 345.744749999998,
      "v": 62
    },
    {
      "midi": 67,
      "hit": false,
      "t": 70223.41830000018,
      "d": 351.06389999999374,
      "v": 51
    },
    {
      "midi": 70,
      "hit": false,
      "t": 70223.41830000018,
      "d": 361.7021999999997,
      "v": 75
    },
    {
      "midi": 43,
      "hit": false,
      "t": 70223.41830000018,
      "d": 1244.6811000000016,
      "v": 50
    },
    {
      "midi": 55,
      "hit": false,
      "t": 70223.41830000018,
      "d": 1244.6811000000016,
      "v": 61
    },
    {
      "midi": 74,
      "hit": false,
      "t": 70244.69490000002,
      "d": 930.851250000007,
      "v": 114
    },
    {
      "midi": 43,
      "hit": false,
      "t": 70851.07800000002,
      "d": 803.1916500000079,
      "v": 114
    },
    {
      "midi": 70,
      "hit": false,
      "t": 70861.71630000017,
      "d": 191.48940000000584,
      "v": 82
    },
    {
      "midi": 67,
      "hit": false,
      "t": 70861.71630000017,
      "d": 202.12770000001183,
      "v": 77
    },
    {
      "midi": 72,
      "hit": false,
      "t": 71063.84400000003,
      "d": 319.1490000000049,
      "v": 114
    },
    {
      "midi": 69,
      "hit": false,
      "t": 71276.61000000003,
      "d": 207.44685000000754,
      "v": 114
    },
    {
      "midi": 72,
      "hit": false,
      "t": 71489.37600000003,
      "d": 319.14899999999034,
      "v": 114
    },
    {
      "midi": 36,
      "hit": false,
      "t": 71489.37600000003,
      "d": 569.1490499999927,
      "v": 114
    },
    {
      "midi": 64,
      "hit": false,
      "t": 71500.01430000018,
      "d": 345.744749999998,
      "v": 62
    },
    {
      "midi": 67,
      "hit": false,
      "t": 71500.01430000018,
      "d": 351.06389999999374,
      "v": 51
    },
    {
      "midi": 70,
      "hit": false,
      "t": 71500.01430000018,
      "d": 361.7021999999997,
      "v": 75
    },
    {
      "midi": 48,
      "hit": false,
      "t": 71500.01430000018,
      "d": 627.6597000000038,
      "v": 50
    },
    {
      "midi": 55,
      "hit": false,
      "t": 71500.01430000018,
      "d": 627.6597000000038,
      "v": 61
    },
    {
      "midi": 64,
      "hit": false,
      "t": 71526.61005000003,
      "d": 170.21279999999388,
      "v": 114
    },
    {
      "midi": 70,
      "hit": false,
      "t": 71526.61005000003,
      "d": 170.21279999999388,
      "v": 114
    },
    {
      "midi": 64,
      "hit": false,
      "t": 71702.14200000002,
      "d": 973.4044500000164,
      "v": 114
    },
    {
      "midi": 68,
      "hit": false,
      "t": 71702.14200000002,
      "d": 973.4044500000164,
      "v": 114
    },
    {
      "midi": 74,
      "hit": false,
      "t": 71739.37605000002,
      "d": 904.2555000000139,
      "v": 114
    },
    {
      "midi": 36,
      "hit": false,
      "t": 72127.67400000003,
      "d": 414.89370000000054,
      "v": 114
    },
    {
      "midi": 64,
      "hit": false,
      "t": 72138.3123000002,
      "d": 345.744749999998,
      "v": 62
    },
    {
      "midi": 68,
      "hit": false,
      "t": 72138.3123000002,
      "d": 351.06389999999374,
      "v": 51
    },
    {
      "midi": 72,
      "hit": false,
      "t": 72138.3123000002,
      "d": 361.7021999999997,
      "v": 75
    },
    {
      "midi": 50,
      "hit": false,
      "t": 72138.3123000002,
      "d": 627.6597000000038,
      "v": 50
    },
    {
      "midi": 56,
      "hit": false,
      "t": 72138.3123000002,
      "d": 627.6597000000038,
      "v": 61
    },
    {
      "midi": 36,
      "hit": false,
      "t": 72553.20600000003,
      "d": 319.1490000000049,
      "v": 114
    },
    {
      "midi": 57,
      "hit": false,
      "t": 72765.97200000004,
      "d": 627.6597000000038,
      "v": 114
    },
    {
      "midi": 60,
      "hit": false,
      "t": 72765.97200000004,
      "d": 627.6597000000038,
      "v": 114
    },
    {
      "midi": 41,
      "hit": false,
      "t": 72765.97200000004,
      "d": 750.0001500000071,
      "v": 114
    },
    {
      "midi": 64,
      "hit": false,
      "t": 72776.6103000002,
      "d": 271.2766499999998,
      "v": 67
    },
    {
      "midi": 69,
      "hit": false,
      "t": 72776.6103000002,
      "d": 303.1915500000032,
      "v": 83
    },
    {
      "midi": 67,
      "hit": false,
      "t": 72776.6103000002,
      "d": 308.5106999999989,
      "v": 60
    },
    {
      "midi": 41,
      "hit": false,
      "t": 72776.6103000002,
      "d": 436.17029999999795,
      "v": 68
    },
    {
      "midi": 64,
      "hit": false,
      "t": 72797.88690000004,
      "d": 1388.2981500000024,
      "v": 114
    },
    {
      "midi": 53,
      "hit": false,
      "t": 73212.7806000002,
      "d": 287.2341000000015,
      "v": 70
    },
    {
      "midi": 57,
      "hit": false,
      "t": 73404.27000000005,
      "d": 595.7447999999858,
      "v": 114
    },
    {
      "midi": 69,
      "hit": false,
      "t": 73414.9083000002,
      "d": 207.44685000000754,
      "v": 68
    },
    {
      "midi": 64,
      "hit": false,
      "t": 73414.9083000002,
      "d": 223.40430000000924,
      "v": 57
    },
    {
      "midi": 67,
      "hit": false,
      "t": 73414.9083000002,
      "d": 223.40430000000924,
      "v": 49
    },
    {
      "midi": 60,
      "hit": false,
      "t": 73430.86575000004,
      "d": 723.4043999999994,
      "v": 114
    },
    {
      "midi": 41,
      "hit": false,
      "t": 73829.80200000004,
      "d": 292.5532499999972,
      "v": 114
    },
    {
      "midi": 41,
      "hit": false,
      "t": 73851.07860000021,
      "d": 452.12774999999965,
      "v": 64
    },
    {
      "midi": 64,
      "hit": false,
      "t": 73851.07860000021,
      "d": 675.5320499999943,
      "v": 55
    },
    {
      "midi": 69,
      "hit": false,
      "t": 73851.07860000021,
      "d": 776.5959000000003,
      "v": 82
    },
    {
      "midi": 67,
      "hit": false,
      "t": 73851.07860000021,
      "d": 792.553350000002,
      "v": 67
    },
    {
      "midi": 48,
      "hit": false,
      "t": 74042.56800000003,
      "d": 627.6597000000183,
      "v": 114
    },
    {
      "midi": 52,
      "hit": false,
      "t": 74042.56800000003,
      "d": 627.6597000000183,
      "v": 114
    },
    {
      "midi": 36,
      "hit": false,
      "t": 74042.56800000003,
      "d": 776.5959000000294,
      "v": 114
    },
    {
      "midi": 53,
      "hit": false,
      "t": 74489.3766000002,
      "d": 367.02135000001,
      "v": 71
    },
    {
      "midi": 48,
      "hit": false,
      "t": 74680.86600000005,
      "d": 414.89370000000054,
      "v": 114
    },
    {
      "midi": 52,
      "hit": false,
      "t": 74680.86600000005,
      "d": 414.89370000000054,
      "v": 114
    },
    {
      "midi": 64,
      "hit": false,
      "t": 74691.50430000022,
      "d": 388.29794999999285,
      "v": 76
    },
    {
      "midi": 48,
      "hit": false,
      "t": 75106.39800000006,
      "d": 207.446849999993,
      "v": 114
    },
    {
      "midi": 52,
      "hit": false,
      "t": 75106.39800000006,
      "d": 207.446849999993,
      "v": 114
    },
    {
      "midi": 41,
      "hit": false,
      "t": 75127.67460000022,
      "d": 170.21279999999388,
      "v": 52
    },
    {
      "midi": 57,
      "hit": false,
      "t": 75319.16400000005,
      "d": 74.46809999999823,
      "v": 114
    },
    {
      "midi": 41,
      "hit": false,
      "t": 75319.16400000005,
      "d": 760.6384499999986,
      "v": 114
    },
    {
      "midi": 53,
      "hit": false,
      "t": 75319.16400000005,
      "d": 760.6384499999986,
      "v": 114
    },
    {
      "midi": 62,
      "hit": false,
      "t": 75329.80230000021,
      "d": 345.744749999998,
      "v": 62
    },
    {
      "midi": 65,
      "hit": false,
      "t": 75329.80230000021,
      "d": 351.06389999999374,
      "v": 51
    },
    {
      "midi": 69,
      "hit": false,
      "t": 75329.80230000021,
      "d": 361.7021999999997,
      "v": 75
    },
    {
      "midi": 41,
      "hit": false,
      "t": 75329.80230000021,
      "d": 1010.6385000000009,
      "v": 50
    },
    {
      "midi": 53,
      "hit": false,
      "t": 75329.80230000021,
      "d": 1010.6385000000009,
      "v": 61
    },
    {
      "midi": 62,
      "hit": false,
      "t": 75345.75975000004,
      "d": 601.0639500000107,
      "v": 114
    },
    {
      "midi": 57,
      "hit": false,
      "t": 75957.46200000006,
      "d": 569.1490499999927,
      "v": 114
    },
    {
      "midi": 62,
      "hit": false,
      "t": 75957.46200000006,
      "d": 723.4043999999994,
      "v": 114
    },
    {
      "midi": 69,
      "hit": false,
      "t": 75968.10030000021,
      "d": 191.48940000000584,
      "v": 82
    },
    {
      "midi": 65,
      "hit": false,
      "t": 75968.10030000021,
      "d": 202.12770000001183,
      "v": 77
    },
    {
      "midi": 65,
      "hit": false,
      "t": 75984.05775000005,
      "d": 707.4469499999977,
      "v": 114
    },
    {
      "midi": 41,
      "hit": false,
      "t": 76382.99400000005,
      "d": 303.1915500000032,
      "v": 114
    },
    {
      "midi": 64,
      "hit": false,
      "t": 76404.27060000022,
      "d": 462.76605000000563,
      "v": 67
    },
    {
      "midi": 69,
      "hit": false,
      "t": 76404.27060000022,
      "d": 494.68095000000903,
      "v": 83
    },
    {
      "midi": 67,
      "hit": false,
      "t": 76404.27060000022,
      "d": 500.00010000000475,
      "v": 60
    },
    {
      "midi": 41,
      "hit": false,
      "t": 76404.27060000022,
      "d": 627.6597000000038,
      "v": 68
    },
    {
      "midi": 36,
      "hit": false,
      "t": 76595.76000000005,
      "d": 627.6596999999892,
      "v": 114
    },
    {
      "midi": 57,
      "hit": false,
      "t": 76595.76000000005,
      "d": 627.6596999999892,
      "v": 114
    },
    {
      "midi": 60,
      "hit": false,
      "t": 76595.76000000005,
      "d": 750.0001499999926,
      "v": 114
    },
    {
      "midi": 64,
      "hit": false,
      "t": 76627.67490000006,
      "d": 734.0426999999909,
      "v": 114
    },
    {
      "midi": 53,
      "hit": false,
      "t": 77042.56860000023,
      "d": 287.2341000000015,
      "v": 70
    },
    {
      "midi": 48,
      "hit": false,
      "t": 77234.05800000005,
      "d": 414.89370000000054,
      "v": 114
    },
    {
      "midi": 52,
      "hit": false,
      "t": 77234.05800000005,
      "d": 414.89370000000054,
      "v": 114
    },
    {
      "midi": 57,
      "hit": false,
      "t": 77234.05800000005,
      "d": 595.7448000000004,
      "v": 114
    },
    {
      "midi": 69,
      "hit": false,
      "t": 77244.69630000023,
      "d": 207.44685000000754,
      "v": 68
    },
    {
      "midi": 64,
      "hit": false,
      "t": 77244.69630000023,
      "d": 223.40430000000924,
      "v": 57
    },
    {
      "midi": 67,
      "hit": false,
      "t": 77244.69630000023,
      "d": 223.40430000000924,
      "v": 49
    },
    {
      "midi": 48,
      "hit": false,
      "t": 77659.59000000005,
      "d": 265.9574999999895,
      "v": 114
    },
    {
      "midi": 52,
      "hit": false,
      "t": 77659.59000000005,
      "d": 319.14899999999034,
      "v": 114
    },
    {
      "midi": 41,
      "hit": false,
      "t": 77680.86660000024,
      "d": 170.21279999999388,
      "v": 64
    },
    {
      "midi": 53,
      "hit": false,
      "t": 77872.35600000004,
      "d": 627.6597000000038,
      "v": 114
    },
    {
      "midi": 57,
      "hit": false,
      "t": 77872.35600000004,
      "d": 627.6597000000038,
      "v": 114
    },
    {
      "midi": 38,
      "hit": false,
      "t": 77872.35600000004,
      "d": 723.404400000014,
      "v": 114
    },
    {
      "midi": 65,
      "hit": false,
      "t": 77882.99430000024,
      "d": 186.17024999999558,
      "v": 65
    },
    {
      "midi": 69,
      "hit": false,
      "t": 77882.99430000024,
      "d": 186.17024999999558,
      "v": 63
    },
    {
      "midi": 74,
      "hit": false,
      "t": 77882.99430000024,
      "d": 186.17024999999558,
      "v": 78
    },
    {
      "midi": 52,
      "hit": false,
      "t": 77882.99430000024,
      "d": 1712.7662999999739,
      "v": 64
    },
    {
      "midi": 64,
      "hit": false,
      "t": 77904.27090000005,
      "d": 1361.7024000000238,
      "v": 114
    },
    {
      "midi": 57,
      "hit": false,
      "t": 78510.65400000005,
      "d": 569.1490500000073,
      "v": 114
    },
    {
      "midi": 53,
      "hit": false,
      "t": 78510.65400000005,
      "d": 622.3405500000081,
      "v": 114
    },
    {
      "midi": 69,
      "hit": false,
      "t": 78521.29230000023,
      "d": 122.34045000000333,
      "v": 73
    },
    {
      "midi": 65,
      "hit": false,
      "t": 78521.29230000023,
      "d": 127.65959999999905,
      "v": 56
    },
    {
      "midi": 74,
      "hit": false,
      "t": 78521.29230000023,
      "d": 127.65959999999905,
      "v": 77
    },
    {
      "midi": 38,
      "hit": false,
      "t": 78936.18600000006,
      "d": 319.1490000000049,
      "v": 114
    },
    {
      "midi": 33,
      "hit": false,
      "t": 79148.95200000006,
      "d": 627.6597000000038,
      "v": 114
    },
    {
      "midi": 52,
      "hit": false,
      "t": 79148.95200000006,
      "d": 627.6597000000038,
      "v": 114
    },
    {
      "midi": 57,
      "hit": false,
      "t": 79148.95200000006,
      "d": 627.6597000000038,
      "v": 114
    },
    {
      "midi": 65,
      "hit": false,
      "t": 79159.59030000023,
      "d": 106.38300000000163,
      "v": 56
    },
    {
      "midi": 69,
      "hit": false,
      "t": 79159.59030000023,
      "d": 132.97874999999476,
      "v": 66
    },
    {
      "midi": 74,
      "hit": false,
      "t": 79159.59030000023,
      "d": 159.5744999999879,
      "v": 84
    },
    {
      "midi": 53,
      "hit": false,
      "t": 79186.18605000006,
      "d": 590.4256500000047,
      "v": 114
    },
    {
      "midi": 57,
      "hit": false,
      "t": 79595.76060000021,
      "d": 473.40434999999707,
      "v": 40
    },
    {
      "midi": 52,
      "hit": false,
      "t": 79787.25000000007,
      "d": 414.89370000000054,
      "v": 114
    },
    {
      "midi": 65,
      "hit": false,
      "t": 79797.88830000021,
      "d": 303.1915500000032,
      "v": 72
    },
    {
      "midi": 53,
      "hit": false,
      "t": 79819.16490000008,
      "d": 388.29794999999285,
      "v": 114
    },
    {
      "midi": 69,
      "hit": false,
      "t": 80010.65430000021,
      "d": 223.4042999999947,
      "v": 47
    },
    {
      "midi": 52,
      "hit": false,
      "t": 80212.78200000006,
      "d": 335.1064500000066,
      "v": 114
    },
    {
      "midi": 52,
      "hit": false,
      "t": 80234.05860000021,
      "d": 111.70214999999735,
      "v": 79
    },
    {
      "midi": 53,
      "hit": false,
      "t": 80425.54800000007,
      "d": 85.10640000000421,
      "v": 114
    },
    {
      "midi": 57,
      "hit": false,
      "t": 80425.54800000007,
      "d": 734.04270000002,
      "v": 114
    },
    {
      "midi": 38,
      "hit": false,
      "t": 80425.54800000007,
      "d": 750.0001500000217,
      "v": 114
    },
    {
      "midi": 65,
      "hit": false,
      "t": 80436.1863000002,
      "d": 345.744749999998,
      "v": 59
    },
    {
      "midi": 69,
      "hit": false,
      "t": 80436.1863000002,
      "d": 351.06389999999374,
      "v": 48
    },
    {
      "midi": 72,
      "hit": false,
      "t": 80436.1863000002,
      "d": 361.7021999999997,
      "v": 72
    },
    {
      "midi": 50,
      "hit": false,
      "t": 80436.1863000002,
      "d": 2101.064249999996,
      "v": 47
    },
    {
      "midi": 57,
      "hit": false,
      "t": 80436.1863000002,
      "d": 2122.340849999993,
      "v": 58
    },
    {
      "midi": 62,
      "hit": false,
      "t": 80457.46290000007,
      "d": 707.4469500000123,
      "v": 114
    },
    {
      "midi": 60,
      "hit": false,
      "t": 81063.84600000008,
      "d": 585.106500000009,
      "v": 114
    },
    {
      "midi": 65,
      "hit": false,
      "t": 81063.84600000008,
      "d": 585.106500000009,
      "v": 114
    },
    {
      "midi": 72,
      "hit": false,
      "t": 81074.4843000002,
      "d": 191.48940000000584,
      "v": 79
    },
    {
      "midi": 69,
      "hit": false,
      "t": 81074.4843000002,
      "d": 202.12770000001183,
      "v": 74
    },
    {
      "midi": 69,
      "hit": false,
      "t": 81095.76090000008,
      "d": 569.1490500000073,
      "v": 114
    },
    {
      "midi": 38,
      "hit": false,
      "t": 81489.37800000008,
      "d": 207.44685000000754,
      "v": 114
    },
    {
      "midi": 60,
      "hit": false,
      "t": 81702.14400000009,
      "d": 627.6596999999892,
      "v": 114
    },
    {
      "midi": 65,
      "hit": false,
      "t": 81702.14400000009,
      "d": 627.6596999999892,
      "v": 114
    },
    {
      "midi": 38,
      "hit": false,
      "t": 81702.14400000009,
      "d": 760.6384499999986,
      "v": 114
    },
    {
      "midi": 69,
      "hit": false,
      "t": 81712.78230000021,
      "d": 452.12774999999965,
      "v": 65
    },
    {
      "midi": 72,
      "hit": false,
      "t": 81712.78230000021,
      "d": 452.12774999999965,
      "v": 70
    },
    {
      "midi": 65,
      "hit": false,
      "t": 82148.95260000021,
      "d": 159.57450000000244,
      "v": 63
    },
    {
      "midi": 60,
      "hit": false,
      "t": 82340.44200000008,
      "d": 414.89370000000054,
      "v": 114
    },
    {
      "midi": 65,
      "hit": false,
      "t": 82340.44200000008,
      "d": 414.89370000000054,
      "v": 114
    },
    {
      "midi": 69,
      "hit": false,
      "t": 82351.0803000002,
      "d": 191.4893999999913,
      "v": 67
    },
    {
      "midi": 72,
      "hit": false,
      "t": 82351.0803000002,
      "d": 207.446849999993,
      "v": 75
    },
    {
      "midi": 65,
      "hit": false,
      "t": 82765.97400000009,
      "d": 207.446849999993,
      "v": 114
    },
    {
      "midi": 60,
      "hit": false,
      "t": 82765.97400000009,
      "d": 319.1490000000049,
      "v": 114
    },
    {
      "midi": 60,
      "hit": false,
      "t": 82787.2506000002,
      "d": 111.70214999999735,
      "v": 69
    },
    {
      "midi": 62,
      "hit": false,
      "t": 82978.74000000008,
      "d": 627.6597000000183,
      "v": 114
    },
    {
      "midi": 46,
      "hit": false,
      "t": 82978.74000000008,
      "d": 760.6384500000277,
      "v": 114
    },
    {
      "midi": 65,
      "hit": false,
      "t": 82978.74000000008,
      "d": 776.5959000000294,
      "v": 114
    },
    {
      "midi": 62,
      "hit": false,
      "t": 82989.3783000002,
      "d": 186.17024999999558,
      "v": 65
    },
    {
      "midi": 65,
      "hit": false,
      "t": 82989.3783000002,
      "d": 186.17024999999558,
      "v": 63
    },
    {
      "midi": 69,
      "hit": false,
      "t": 82989.3783000002,
      "d": 186.17024999999558,
      "v": 78
    },
    {
      "midi": 46,
      "hit": false,
      "t": 82989.3783000002,
      "d": 1712.7662999999739,
      "v": 64
    },
    {
      "midi": 69,
      "hit": false,
      "t": 83010.65490000008,
      "d": 10.638300000005984,
      "v": 114
    },
    {
      "midi": 62,
      "hit": false,
      "t": 83617.0380000001,
      "d": 585.106500000009,
      "v": 114
    },
    {
      "midi": 57,
      "hit": false,
      "t": 83617.0380000001,
      "d": 595.744800000015,
      "v": 114
    },
    {
      "midi": 53,
      "hit": false,
      "t": 83617.0380000001,
      "d": 750.0001500000071,
      "v": 114
    },
    {
      "midi": 65,
      "hit": false,
      "t": 83627.6763000002,
      "d": 122.34045000000333,
      "v": 73
    },
    {
      "midi": 62,
      "hit": false,
      "t": 83627.6763000002,
      "d": 127.65959999999905,
      "v": 56
    },
    {
      "midi": 69,
      "hit": false,
      "t": 83627.6763000002,
      "d": 127.65959999999905,
      "v": 77
    },
    {
      "midi": 46,
      "hit": false,
      "t": 84042.57000000011,
      "d": 207.44685000000754,
      "v": 114
    },
    {
      "midi": 57,
      "hit": false,
      "t": 84255.33600000011,
      "d": 627.6597000000038,
      "v": 114
    },
    {
      "midi": 62,
      "hit": false,
      "t": 84255.33600000011,
      "d": 627.6597000000038,
      "v": 114
    },
    {
      "midi": 46,
      "hit": false,
      "t": 84255.33600000011,
      "d": 803.1916500000079,
      "v": 114
    },
    {
      "midi": 62,
      "hit": false,
      "t": 84265.97430000019,
      "d": 106.38300000000163,
      "v": 56
    },
    {
      "midi": 65,
      "hit": false,
      "t": 84265.97430000019,
      "d": 132.97874999999476,
      "v": 66
    },
    {
      "midi": 69,
      "hit": false,
      "t": 84265.97430000019,
      "d": 159.5744999999879,
      "v": 84
    },
    {
      "midi": 65,
      "hit": false,
      "t": 84292.57005000011,
      "d": 941.4895499999984,
      "v": 114
    },
    {
      "midi": 53,
      "hit": false,
      "t": 84702.14460000017,
      "d": 473.40434999999707,
      "v": 40
    },
    {
      "midi": 62,
      "hit": false,
      "t": 84893.63400000012,
      "d": 335.10644999999204,
      "v": 114
    },
    {
      "midi": 57,
      "hit": false,
      "t": 84893.63400000012,
      "d": 345.74474999998347,
      "v": 114
    },
    {
      "midi": 62,
      "hit": false,
      "t": 84904.27230000017,
      "d": 303.1915500000032,
      "v": 72
    },
    {
      "midi": 65,
      "hit": false,
      "t": 85117.03830000017,
      "d": 223.4042999999947,
      "v": 47
    },
    {
      "midi": 62,
      "hit": false,
      "t": 85319.1660000001,
      "d": 207.446849999993,
      "v": 114
    },
    {
      "midi": 46,
      "hit": false,
      "t": 85340.44260000017,
      "d": 111.70214999999735,
      "v": 79
    },
    {
      "midi": 64,
      "hit": false,
      "t": 85531.93200000009,
      "d": 627.6597000000038,
      "v": 114
    },
    {
      "midi": 67,
      "hit": false,
      "t": 85531.93200000009,
      "d": 627.6597000000038,
      "v": 114
    },
    {
      "midi": 45,
      "hit": false,
      "t": 85531.93200000009,
      "d": 792.5533500000165,
      "v": 114
    },
    {
      "midi": 60,
      "hit": false,
      "t": 85542.57030000017,
      "d": 345.744749999998,
      "v": 62
    },
    {
      "midi": 64,
      "hit": false,
      "t": 85542.57030000017,
      "d": 351.06389999999374,
      "v": 51
    },
    {
      "midi": 67,
      "hit": false,
      "t": 85542.57030000017,
      "d": 361.7021999999997,
      "v": 75
    },
    {
      "midi": 45,
      "hit": false,
      "t": 85542.57030000017,
      "d": 1244.6811000000016,
      "v": 50
    },
    {
      "midi": 52,
      "hit": false,
      "t": 85542.57030000017,
      "d": 1244.6811000000016,
      "v": 61
    },
    {
      "midi": 72,
      "hit": false,
      "t": 85569.16605000009,
      "d": 691.4895000000106,
      "v": 114
    },
    {
      "midi": 64,
      "hit": false,
      "t": 86170.2300000001,
      "d": 760.6384500000131,
      "v": 114
    },
    {
      "midi": 67,
      "hit": false,
      "t": 86170.2300000001,
      "d": 760.6384500000131,
      "v": 114
    },
    {
      "midi": 67,
      "hit": false,
      "t": 86180.86830000016,
      "d": 191.48940000000584,
      "v": 82
    },
    {
      "midi": 64,
      "hit": false,
      "t": 86180.86830000016,
      "d": 202.12770000001183,
      "v": 77
    },
    {
      "midi": 74,
      "hit": false,
      "t": 86202.1449000001,
      "d": 750.0001500000071,
      "v": 114
    },
    {
      "midi": 45,
      "hit": false,
      "t": 86595.7620000001,
      "d": 319.1490000000049,
      "v": 114
    },
    {
      "midi": 65,
      "hit": false,
      "t": 86808.52800000011,
      "d": 627.6597000000038,
      "v": 114
    },
    {
      "midi": 69,
      "hit": false,
      "t": 86808.52800000011,
      "d": 750.0001500000217,
      "v": 114
    },
    {
      "midi": 62,
      "hit": false,
      "t": 86808.52800000011,
      "d": 776.5959000000148,
      "v": 114
    },
    {
      "midi": 38,
      "hit": false,
      "t": 86808.52800000011,
      "d": 819.1491000000096,
      "v": 114
    },
    {
      "midi": 65,
      "hit": false,
      "t": 86819.16630000017,
      "d": 271.2766499999998,
      "v": 67
    },
    {
      "midi": 72,
      "hit": false,
      "t": 86819.16630000017,
      "d": 303.1915500000032,
      "v": 83
    },
    {
      "midi": 69,
      "hit": false,
      "t": 86819.16630000017,
      "d": 308.5106999999989,
      "v": 60
    },
    {
      "midi": 50,
      "hit": false,
      "t": 86819.16630000017,
      "d": 436.17029999999795,
      "v": 68
    },
    {
      "midi": 72,
      "hit": false,
      "t": 86840.44290000011,
      "d": 707.4469500000123,
      "v": 114
    },
    {
      "midi": 57,
      "hit": false,
      "t": 87255.33660000017,
      "d": 287.2341000000015,
      "v": 70
    },
    {
      "midi": 65,
      "hit": false,
      "t": 87446.82600000012,
      "d": 1010.6385000000009,
      "v": 114
    },
    {
      "midi": 57,
      "hit": false,
      "t": 87446.82600000012,
      "d": 1148.936400000006,
      "v": 114
    },
    {
      "midi": 60,
      "hit": false,
      "t": 87446.82600000012,
      "d": 1180.8513000000094,
      "v": 114
    },
    {
      "midi": 72,
      "hit": false,
      "t": 87457.46430000017,
      "d": 207.44685000000754,
      "v": 68
    },
    {
      "midi": 65,
      "hit": false,
      "t": 87457.46430000017,
      "d": 223.40430000000924,
      "v": 57
    },
    {
      "midi": 69,
      "hit": false,
      "t": 87457.46430000017,
      "d": 223.40430000000924,
      "v": 49
    },
    {
      "midi": 50,
      "hit": false,
      "t": 87893.63460000018,
      "d": 170.21279999999388,
      "v": 64
    },
    {
      "midi": 43,
      "hit": false,
      "t": 88085.12400000011,
      "d": 776.5959000000148,
      "v": 114
    },
    {
      "midi": 65,
      "hit": false,
      "t": 88095.76230000018,
      "d": 345.744749999998,
      "v": 62
    },
    {
      "midi": 67,
      "hit": false,
      "t": 88095.76230000018,
      "d": 351.06389999999374,
      "v": 51
    },
    {
      "midi": 70,
      "hit": false,
      "t": 88095.76230000018,
      "d": 361.7021999999997,
      "v": 75
    },
    {
      "midi": 43,
      "hit": false,
      "t": 88095.76230000018,
      "d": 1010.6385000000009,
      "v": 50
    },
    {
      "midi": 55,
      "hit": false,
      "t": 88095.76230000018,
      "d": 1010.6385000000009,
      "v": 61
    },
    {
      "midi": 62,
      "hit": false,
      "t": 88510.65600000012,
      "d": 414.8937000000151,
      "v": 114
    },
    {
      "midi": 65,
      "hit": false,
      "t": 88510.65600000012,
      "d": 414.8937000000151,
      "v": 114
    },
    {
      "midi": 70,
      "hit": false,
      "t": 88510.65600000012,
      "d": 414.8937000000151,
      "v": 114
    },
    {
      "midi": 72,
      "hit": false,
      "t": 88542.57090000012,
      "d": 388.2979500000074,
      "v": 114
    },
    {
      "midi": 70,
      "hit": false,
      "t": 88734.06030000017,
      "d": 191.48940000000584,
      "v": 82
    },
    {
      "midi": 67,
      "hit": false,
      "t": 88734.06030000017,
      "d": 202.12770000001183,
      "v": 77
    },
    {
      "midi": 62,
      "hit": false,
      "t": 88936.18800000013,
      "d": 414.893699999986,
      "v": 114
    },
    {
      "midi": 65,
      "hit": false,
      "t": 88936.18800000013,
      "d": 414.893699999986,
      "v": 114
    },
    {
      "midi": 70,
      "hit": false,
      "t": 88936.18800000013,
      "d": 414.893699999986,
      "v": 114
    },
    {
      "midi": 43,
      "hit": false,
      "t": 88936.18800000013,
      "d": 526.5958499999979,
      "v": 114
    },
    {
      "midi": 74,
      "hit": false,
      "t": 88962.78375000012,
      "d": 553.1916000000056,
      "v": 114
    },
    {
      "midi": 62,
      "hit": false,
      "t": 89170.23060000018,
      "d": 462.76605000000563,
      "v": 67
    },
    {
      "midi": 70,
      "hit": false,
      "t": 89170.23060000018,
      "d": 494.68095000000903,
      "v": 83
    },
    {
      "midi": 65,
      "hit": false,
      "t": 89170.23060000018,
      "d": 500.00010000000475,
      "v": 60
    },
    {
      "midi": 48,
      "hit": false,
      "t": 89170.23060000018,
      "d": 627.6597000000038,
      "v": 68
    },
    {
      "midi": 62,
      "hit": false,
      "t": 89361.72000000012,
      "d": 627.6597000000038,
      "v": 114
    },
    {
      "midi": 65,
      "hit": false,
      "t": 89361.72000000012,
      "d": 627.6597000000038,
      "v": 114
    },
    {
      "midi": 70,
      "hit": false,
      "t": 89361.72000000012,
      "d": 627.6597000000038,
      "v": 114
    },
    {
      "midi": 36,
      "hit": false,
      "t": 89361.72000000012,
      "d": 792.5533500000165,
      "v": 114
    },
    {
      "midi": 72,
      "hit": false,
      "t": 89393.63490000012,
      "d": 707.4469500000123,
      "v": 114
    },
    {
      "midi": 53,
      "hit": false,
      "t": 89808.5286000002,
      "d": 287.2341000000015,
      "v": 70
    },
    {
      "midi": 62,
      "hit": false,
      "t": 90000.01800000013,
      "d": 707.4469500000123,
      "v": 114
    },
    {
      "midi": 58,
      "hit": false,
      "t": 90000.01800000013,
      "d": 792.5533500000165,
      "v": 114
    },
    {
      "midi": 70,
      "hit": false,
      "t": 90010.65630000019,
      "d": 207.44685000000754,
      "v": 68
    },
    {
      "midi": 62,
      "hit": false,
      "t": 90010.65630000019,
      "d": 223.40430000000924,
      "v": 57
    },
    {
      "midi": 65,
      "hit": false,
      "t": 90010.65630000019,
      "d": 223.40430000000924,
      "v": 49
    },
    {
      "midi": 65,
      "hit": false,
      "t": 90031.93290000013,
      "d": 723.404400000014,
      "v": 114
    },
    {
      "midi": 48,
      "hit": false,
      "t": 90446.8266000002,
      "d": 170.21279999999388,
      "v": 64
    },
    {
      "midi": 63,
      "hit": false,
      "t": 90638.31600000014,
      "d": 627.6597000000038,
      "v": 114
    },
    {
      "midi": 67,
      "hit": false,
      "t": 90638.31600000014,
      "d": 627.6597000000038,
      "v": 114
    },
    {
      "midi": 45,
      "hit": false,
      "t": 90638.31600000014,
      "d": 734.04270000002,
      "v": 114
    },
    {
      "midi": 60,
      "hit": false,
      "t": 90648.9543000002,
      "d": 345.744749999998,
      "v": 62
    },
    {
      "midi": 63,
      "hit": false,
      "t": 90648.9543000002,
      "d": 351.06389999999374,
      "v": 51
    },
    {
      "midi": 67,
      "hit": false,
      "t": 90648.9543000002,
      "d": 361.7021999999997,
      "v": 75
    },
    {
      "midi": 45,
      "hit": false,
      "t": 90648.9543000002,
      "d": 1010.6385000000009,
      "v": 50
    },
    {
      "midi": 51,
      "hit": false,
      "t": 90648.9543000002,
      "d": 1010.6385000000009,
      "v": 61
    },
    {
      "midi": 74,
      "hit": false,
      "t": 90670.23090000014,
      "d": 776.5959000000148,
      "v": 114
    },
    {
      "midi": 63,
      "hit": false,
      "t": 91276.61400000015,
      "d": 542.5532999999996,
      "v": 114
    },
    {
      "midi": 72,
      "hit": false,
      "t": 91276.61400000015,
      "d": 585.1064999999944,
      "v": 114
    },
    {
      "midi": 67,
      "hit": false,
      "t": 91276.61400000015,
      "d": 723.4043999999849,
      "v": 114
    },
    {
      "midi": 67,
      "hit": false,
      "t": 91287.2523000002,
      "d": 191.48940000000584,
      "v": 82
    },
    {
      "midi": 63,
      "hit": false,
      "t": 91287.2523000002,
      "d": 202.12770000001183,
      "v": 77
    },
    {
      "midi": 75,
      "hit": false,
      "t": 91308.52890000015,
      "d": 585.1064999999799,
      "v": 114
    },
    {
      "midi": 45,
      "hit": false,
      "t": 91702.14600000015,
      "d": 319.1489999999758,
      "v": 114
    },
    {
      "midi": 66,
      "hit": false,
      "t": 91723.42260000021,
      "d": 462.76605000000563,
      "v": 67
    },
    {
      "midi": 72,
      "hit": false,
      "t": 91723.42260000021,
      "d": 494.68095000000903,
      "v": 83
    },
    {
      "midi": 69,
      "hit": false,
      "t": 91723.42260000021,
      "d": 500.00010000000475,
      "v": 60
    },
    {
      "midi": 50,
      "hit": false,
      "t": 91723.42260000021,
      "d": 627.6597000000038,
      "v": 68
    },
    {
      "midi": 63,
      "hit": false,
      "t": 91888.31625000013,
      "d": 627.6596999999892,
      "v": 114
    },
    {
      "midi": 38,
      "hit": false,
      "t": 91914.91200000013,
      "d": 627.6596999999892,
      "v": 114
    },
    {
      "midi": 66,
      "hit": false,
      "t": 91914.91200000013,
      "d": 872.3405999999959,
      "v": 114
    },
    {
      "midi": 72,
      "hit": false,
      "t": 91914.91200000013,
      "d": 904.2554999999993,
      "v": 114
    },
    {
      "midi": 75,
      "hit": false,
      "t": 91946.82690000013,
      "d": 3803.1922499999782,
      "v": 114
    },
    {
      "midi": 57,
      "hit": false,
      "t": 92361.72060000022,
      "d": 287.2341000000015,
      "v": 70
    },
    {
      "midi": 38,
      "hit": false,
      "t": 92553.21000000012,
      "d": 585.1064999999799,
      "v": 114
    },
    {
      "midi": 72,
      "hit": false,
      "t": 92563.84830000022,
      "d": 207.44685000000754,
      "v": 68
    },
    {
      "midi": 66,
      "hit": false,
      "t": 92563.84830000022,
      "d": 223.40430000000924,
      "v": 57
    },
    {
      "midi": 69,
      "hit": false,
      "t": 92563.84830000022,
      "d": 223.40430000000924,
      "v": 49
    },
    {
      "midi": 63,
      "hit": false,
      "t": 92845.76325000012,
      "d": 85.10639999998966,
      "v": 114
    },
    {
      "midi": 66,
      "hit": false,
      "t": 92872.35900000011,
      "d": 106.38300000000163,
      "v": 114
    },
    {
      "midi": 72,
      "hit": false,
      "t": 92877.67815000011,
      "d": 117.02130000000761,
      "v": 114
    },
    {
      "midi": 50,
      "hit": false,
      "t": 93000.01860000023,
      "d": 170.21279999999388,
      "v": 64
    },
    {
      "midi": 66,
      "hit": false,
      "t": 93021.29520000011,
      "d": 164.8936499999836,
      "v": 114
    },
    {
      "midi": 72,
      "hit": false,
      "t": 93021.29520000011,
      "d": 164.8936499999836,
      "v": 114
    },
    {
      "midi": 63,
      "hit": false,
      "t": 93159.5931000001,
      "d": 5.319149999995716,
      "v": 114
    },
    {
      "midi": 38,
      "hit": false,
      "t": 93191.50800000009,
      "d": 414.89370000000054,
      "v": 114
    },
    {
      "midi": 66,
      "hit": false,
      "t": 93191.50800000009,
      "d": 414.89370000000054,
      "v": 114
    },
    {
      "midi": 72,
      "hit": false,
      "t": 93191.50800000009,
      "d": 414.89370000000054,
      "v": 114
    },
    {
      "midi": 66,
      "hit": false,
      "t": 93202.14630000023,
      "d": 186.17024999999558,
      "v": 65
    },
    {
      "midi": 69,
      "hit": false,
      "t": 93202.14630000023,
      "d": 186.17024999999558,
      "v": 63
    },
    {
      "midi": 72,
      "hit": false,
      "t": 93202.14630000023,
      "d": 186.17024999999558,
      "v": 78
    },
    {
      "midi": 50,
      "hit": false,
      "t": 93202.14630000023,
      "d": 1712.7662999999739,
      "v": 64
    },
    {
      "midi": 63,
      "hit": false,
      "t": 93585.12510000009,
      "d": 345.744749999998,
      "v": 114
    },
    {
      "midi": 66,
      "hit": false,
      "t": 93617.0400000001,
      "d": 345.744749999998,
      "v": 114
    },
    {
      "midi": 38,
      "hit": false,
      "t": 93617.0400000001,
      "d": 414.89370000000054,
      "v": 114
    },
    {
      "midi": 72,
      "hit": false,
      "t": 93617.0400000001,
      "d": 414.89370000000054,
      "v": 114
    },
    {
      "midi": 69,
      "hit": false,
      "t": 93840.44430000022,
      "d": 122.34045000000333,
      "v": 73
    },
    {
      "midi": 66,
      "hit": false,
      "t": 93840.44430000022,
      "d": 127.65959999999905,
      "v": 56
    },
    {
      "midi": 72,
      "hit": false,
      "t": 93840.44430000022,
      "d": 127.65959999999905,
      "v": 77
    },
    {
      "midi": 63,
      "hit": false,
      "t": 94010.6571000001,
      "d": 361.7021999999997,
      "v": 114
    },
    {
      "midi": 66,
      "hit": false,
      "t": 94042.5720000001,
      "d": 372.34049999999115,
      "v": 114
    },
    {
      "midi": 38,
      "hit": false,
      "t": 94042.5720000001,
      "d": 414.893699999986,
      "v": 114
    },
    {
      "midi": 72,
      "hit": false,
      "t": 94042.5720000001,
      "d": 414.893699999986,
      "v": 114
    },
    {
      "midi": 63,
      "hit": false,
      "t": 94436.18910000009,
      "d": 361.7021999999997,
      "v": 114
    },
    {
      "midi": 38,
      "hit": false,
      "t": 94468.1040000001,
      "d": 414.89370000000054,
      "v": 114
    },
    {
      "midi": 66,
      "hit": false,
      "t": 94468.1040000001,
      "d": 414.89370000000054,
      "v": 114
    },
    {
      "midi": 72,
      "hit": false,
      "t": 94468.1040000001,
      "d": 414.89370000000054,
      "v": 114
    },
    {
      "midi": 66,
      "hit": false,
      "t": 94478.74230000022,
      "d": 106.38300000000163,
      "v": 56
    },
    {
      "midi": 69,
      "hit": false,
      "t": 94478.74230000022,
      "d": 132.97874999999476,
      "v": 66
    },
    {
      "midi": 72,
      "hit": false,
      "t": 94478.74230000022,
      "d": 159.5744999999879,
      "v": 84
    },
    {
      "midi": 63,
      "hit": false,
      "t": 94867.0402500001,
      "d": 345.7447500000126,
      "v": 114
    },
    {
      "midi": 38,
      "hit": false,
      "t": 94893.6360000001,
      "d": 414.89370000000054,
      "v": 114
    },
    {
      "midi": 66,
      "hit": false,
      "t": 94893.6360000001,
      "d": 414.89370000000054,
      "v": 114
    },
    {
      "midi": 72,
      "hit": false,
      "t": 94893.6360000001,
      "d": 414.89370000000054,
      "v": 114
    },
    {
      "midi": 57,
      "hit": false,
      "t": 94914.9126000002,
      "d": 473.40434999999707,
      "v": 40
    },
    {
      "midi": 66,
      "hit": false,
      "t": 95117.0403000002,
      "d": 303.1915500000032,
      "v": 72
    },
    {
      "midi": 63,
      "hit": false,
      "t": 95292.5722500001,
      "d": 441.4894500000082,
      "v": 114
    },
    {
      "midi": 38,
      "hit": false,
      "t": 95319.1680000001,
      "d": 414.89370000000054,
      "v": 114
    },
    {
      "midi": 66,
      "hit": false,
      "t": 95319.1680000001,
      "d": 414.89370000000054,
      "v": 114
    },
    {
      "midi": 72,
      "hit": false,
      "t": 95319.1680000001,
      "d": 414.89370000000054,
      "v": 114
    },
    {
      "midi": 69,
      "hit": false,
      "t": 95329.8063000002,
      "d": 223.4042999999947,
      "v": 47
    },
    {
      "midi": 50,
      "hit": false,
      "t": 95553.2106000002,
      "d": 111.70214999999735,
      "v": 79
    },
    {
      "midi": 62,
      "hit": false,
      "t": 95744.70000000011,
      "d": 627.6596999999892,
      "v": 114
    },
    {
      "midi": 65,
      "hit": false,
      "t": 95744.70000000011,
      "d": 627.6596999999892,
      "v": 114
    },
    {
      "midi": 70,
      "hit": false,
      "t": 95744.70000000011,
      "d": 627.6596999999892,
      "v": 114
    },
    {
      "midi": 43,
      "hit": false,
      "t": 95744.70000000011,
      "d": 776.5958999999857,
      "v": 114
    },
    {
      "midi": 65,
      "hit": false,
      "t": 95755.33830000019,
      "d": 345.744749999998,
      "v": 62
    },
    {
      "midi": 67,
      "hit": false,
      "t": 95755.33830000019,
      "d": 351.06389999999374,
      "v": 51
    },
    {
      "midi": 70,
      "hit": false,
      "t": 95755.33830000019,
      "d": 361.7021999999997,
      "v": 75
    },
    {
      "midi": 43,
      "hit": false,
      "t": 95755.33830000019,
      "d": 1010.6385000000009,
      "v": 50
    },
    {
      "midi": 55,
      "hit": false,
      "t": 95755.33830000019,
      "d": 1010.6385000000009,
      "v": 61
    },
    {
      "midi": 74,
      "hit": false,
      "t": 95776.6149000001,
      "d": 750.0001499999926,
      "v": 114
    },
    {
      "midi": 62,
      "hit": false,
      "t": 96382.99800000011,
      "d": 750.0001499999926,
      "v": 114
    },
    {
      "midi": 65,
      "hit": false,
      "t": 96382.99800000011,
      "d": 750.0001499999926,
      "v": 114
    },
    {
      "midi": 70,
      "hit": false,
      "t": 96393.63630000019,
      "d": 191.48940000000584,
      "v": 82
    },
    {
      "midi": 67,
      "hit": false,
      "t": 96393.63630000019,
      "d": 202.12770000001183,
      "v": 77
    },
    {
      "midi": 70,
      "hit": false,
      "t": 96409.5937500001,
      "d": 734.0427000000054,
      "v": 114
    },
    {
      "midi": 43,
      "hit": false,
      "t": 96808.5300000001,
      "d": 319.1490000000049,
      "v": 114
    },
    {
      "midi": 60,
      "hit": false,
      "t": 96829.8066000002,
      "d": 462.76605000000563,
      "v": 67
    },
    {
      "midi": 67,
      "hit": false,
      "t": 96829.8066000002,
      "d": 494.68095000000903,
      "v": 83
    },
    {
      "midi": 64,
      "hit": false,
      "t": 96829.8066000002,
      "d": 500.00010000000475,
      "v": 60
    },
    {
      "midi": 45,
      "hit": false,
      "t": 96829.8066000002,
      "d": 627.6597000000038,
      "v": 68
    },
    {
      "midi": 60,
      "hit": false,
      "t": 97021.2960000001,
      "d": 627.6597000000038,
      "v": 114
    },
    {
      "midi": 64,
      "hit": false,
      "t": 97021.2960000001,
      "d": 627.6597000000038,
      "v": 114
    },
    {
      "midi": 67,
      "hit": false,
      "t": 97021.2960000001,
      "d": 627.6597000000038,
      "v": 114
    },
    {
      "midi": 45,
      "hit": false,
      "t": 97021.2960000001,
      "d": 760.6384500000131,
      "v": 114
    },
    {
      "midi": 72,
      "hit": false,
      "t": 97053.21090000011,
      "d": 750.0001500000071,
      "v": 114
    },
    {
      "midi": 52,
      "hit": false,
      "t": 97468.10460000021,
      "d": 287.2341000000015,
      "v": 70
    },
    {
      "midi": 60,
      "hit": false,
      "t": 97659.59400000011,
      "d": 414.89370000000054,
      "v": 114
    },
    {
      "midi": 64,
      "hit": false,
      "t": 97659.59400000011,
      "d": 414.89370000000054,
      "v": 114
    },
    {
      "midi": 67,
      "hit": false,
      "t": 97659.59400000011,
      "d": 414.89370000000054,
      "v": 114
    },
    {
      "midi": 67,
      "hit": false,
      "t": 97670.2323000002,
      "d": 207.44685000000754,
      "v": 68
    },
    {
      "midi": 60,
      "hit": false,
      "t": 97670.2323000002,
      "d": 223.40430000000924,
      "v": 57
    },
    {
      "midi": 64,
      "hit": false,
      "t": 97670.2323000002,
      "d": 223.40430000000924,
      "v": 49
    },
    {
      "midi": 60,
      "hit": false,
      "t": 98085.12600000012,
      "d": 319.14899999999034,
      "v": 114
    },
    {
      "midi": 67,
      "hit": false,
      "t": 98085.12600000012,
      "d": 319.14899999999034,
      "v": 114
    },
    {
      "midi": 64,
      "hit": false,
      "t": 98085.12600000012,
      "d": 335.10644999999204,
      "v": 114
    },
    {
      "midi": 45,
      "hit": false,
      "t": 98106.40260000022,
      "d": 170.21279999999388,
      "v": 64
    },
    {
      "midi": 46,
      "hit": false,
      "t": 98297.89200000012,
      "d": 734.0426999999763,
      "v": 114
    },
    {
      "midi": 62,
      "hit": false,
      "t": 98297.89200000012,
      "d": 1207.4470499999734,
      "v": 114
    },
    {
      "midi": 65,
      "hit": false,
      "t": 98297.89200000012,
      "d": 1207.4470499999734,
      "v": 114
    },
    {
      "midi": 62,
      "hit": false,
      "t": 98308.53030000022,
      "d": 345.744749999998,
      "v": 62
    },
    {
      "midi": 65,
      "hit": false,
      "t": 98308.53030000022,
      "d": 351.06389999999374,
      "v": 51
    },
    {
      "midi": 69,
      "hit": false,
      "t": 98308.53030000022,
      "d": 361.7021999999997,
      "v": 75
    },
    {
      "midi": 46,
      "hit": false,
      "t": 98308.53030000022,
      "d": 1244.6811000000016,
      "v": 50
    },
    {
      "midi": 53,
      "hit": false,
      "t": 98308.53030000022,
      "d": 1244.6811000000016,
      "v": 61
    },
    {
      "midi": 69,
      "hit": false,
      "t": 98324.48775000012,
      "d": 276.5957999999955,
      "v": 114
    },
    {
      "midi": 67,
      "hit": false,
      "t": 98510.65800000011,
      "d": 207.446849999993,
      "v": 114
    },
    {
      "midi": 67,
      "hit": false,
      "t": 98723.4240000001,
      "d": 3329.787900000025,
      "v": 114
    },
    {
      "midi": 69,
      "hit": false,
      "t": 98946.82830000021,
      "d": 191.48940000000584,
      "v": 82
    },
    {
      "midi": 65,
      "hit": false,
      "t": 98946.82830000021,
      "d": 202.12770000001183,
      "v": 77
    },
    {
      "midi": 46,
      "hit": false,
      "t": 99361.7220000001,
      "d": 303.1915500000032,
      "v": 114
    },
    {
      "midi": 48,
      "hit": false,
      "t": 99574.4880000001,
      "d": 414.89370000000054,
      "v": 114
    },
    {
      "midi": 58,
      "hit": false,
      "t": 99574.4880000001,
      "d": 414.89370000000054,
      "v": 114
    },
    {
      "midi": 62,
      "hit": false,
      "t": 99574.4880000001,
      "d": 414.89370000000054,
      "v": 114
    },
    {
      "midi": 65,
      "hit": false,
      "t": 99574.4880000001,
      "d": 414.89370000000054,
      "v": 114
    },
    {
      "midi": 65,
      "hit": false,
      "t": 99585.12630000022,
      "d": 271.2766499999998,
      "v": 67
    },
    {
      "midi": 70,
      "hit": false,
      "t": 99585.12630000022,
      "d": 303.1915500000032,
      "v": 83
    },
    {
      "midi": 67,
      "hit": false,
      "t": 99585.12630000022,
      "d": 308.5106999999989,
      "v": 60
    },
    {
      "midi": 36,
      "hit": false,
      "t": 99585.12630000022,
      "d": 436.17029999999795,
      "v": 68
    },
    {
      "midi": 48,
      "hit": false,
      "t": 100000.0200000001,
      "d": 414.89370000000054,
      "v": 114
    },
    {
      "midi": 58,
      "hit": false,
      "t": 100000.0200000001,
      "d": 414.89370000000054,
      "v": 114
    },
    {
      "midi": 62,
      "hit": false,
      "t": 100000.0200000001,
      "d": 414.89370000000054,
      "v": 114
    },
    {
      "midi": 65,
      "hit": false,
      "t": 100000.0200000001,
      "d": 414.89370000000054,
      "v": 114
    },
    {
      "midi": 55,
      "hit": false,
      "t": 100021.29660000022,
      "d": 287.2341000000015,
      "v": 70
    },
    {
      "midi": 70,
      "hit": false,
      "t": 100223.42430000022,
      "d": 207.44685000000754,
      "v": 68
    },
    {
      "midi": 65,
      "hit": false,
      "t": 100223.42430000022,
      "d": 223.40430000000924,
      "v": 57
    },
    {
      "midi": 67,
      "hit": false,
      "t": 100223.42430000022,
      "d": 223.40430000000924,
      "v": 49
    },
    {
      "midi": 48,
      "hit": false,
      "t": 100425.55200000011,
      "d": 414.89370000000054,
      "v": 114
    },
    {
      "midi": 58,
      "hit": false,
      "t": 100425.55200000011,
      "d": 414.89370000000054,
      "v": 114
    },
    {
      "midi": 62,
      "hit": false,
      "t": 100425.55200000011,
      "d": 414.89370000000054,
      "v": 114
    },
    {
      "midi": 65,
      "hit": false,
      "t": 100425.55200000011,
      "d": 414.89370000000054,
      "v": 114
    },
    {
      "midi": 36,
      "hit": false,
      "t": 100659.59460000023,
      "d": 170.21279999999388,
      "v": 64
    },
    {
      "midi": 48,
      "hit": false,
      "t": 100851.08400000012,
      "d": 361.7021999999997,
      "v": 114
    },
    {
      "midi": 58,
      "hit": false,
      "t": 100851.08400000012,
      "d": 414.89370000000054,
      "v": 114
    },
    {
      "midi": 62,
      "hit": false,
      "t": 100851.08400000012,
      "d": 414.89370000000054,
      "v": 114
    },
    {
      "midi": 65,
      "hit": false,
      "t": 100851.08400000012,
      "d": 414.89370000000054,
      "v": 114
    },
    {
      "midi": 65,
      "hit": false,
      "t": 100861.72230000023,
      "d": 186.17024999999558,
      "v": 65
    },
    {
      "midi": 67,
      "hit": false,
      "t": 100861.72230000023,
      "d": 186.17024999999558,
      "v": 63
    },
    {
      "midi": 70,
      "hit": false,
      "t": 100861.72230000023,
      "d": 186.17024999999558,
      "v": 78
    },
    {
      "midi": 36,
      "hit": false,
      "t": 100861.72230000023,
      "d": 1712.7662999999739,
      "v": 64
    },
    {
      "midi": 48,
      "hit": false,
      "t": 101276.61600000013,
      "d": 414.89370000000054,
      "v": 114
    },
    {
      "midi": 58,
      "hit": false,
      "t": 101276.61600000013,
      "d": 414.89370000000054,
      "v": 114
    },
    {
      "midi": 62,
      "hit": false,
      "t": 101276.61600000013,
      "d": 414.89370000000054,
      "v": 114
    },
    {
      "midi": 65,
      "hit": false,
      "t": 101276.61600000013,
      "d": 414.89370000000054,
      "v": 114
    },
    {
      "midi": 67,
      "hit": false,
      "t": 101500.02030000022,
      "d": 122.34045000000333,
      "v": 73
    },
    {
      "midi": 65,
      "hit": false,
      "t": 101500.02030000022,
      "d": 127.65959999999905,
      "v": 56
    },
    {
      "midi": 70,
      "hit": false,
      "t": 101500.02030000022,
      "d": 127.65959999999905,
      "v": 77
    },
    {
      "midi": 48,
      "hit": false,
      "t": 101702.14800000013,
      "d": 414.893699999986,
      "v": 114
    },
    {
      "midi": 58,
      "hit": false,
      "t": 101702.14800000013,
      "d": 414.893699999986,
      "v": 114
    },
    {
      "midi": 62,
      "hit": false,
      "t": 101702.14800000013,
      "d": 414.893699999986,
      "v": 114
    },
    {
      "midi": 65,
      "hit": false,
      "t": 102095.76510000012,
      "d": 21.276599999997416,
      "v": 114
    },
    {
      "midi": 48,
      "hit": false,
      "t": 102127.68000000012,
      "d": 414.89370000000054,
      "v": 114
    },
    {
      "midi": 58,
      "hit": false,
      "t": 102127.68000000012,
      "d": 414.89370000000054,
      "v": 114
    },
    {
      "midi": 62,
      "hit": false,
      "t": 102127.68000000012,
      "d": 414.89370000000054,
      "v": 114
    },
    {
      "midi": 67,
      "hit": false,
      "t": 102127.68000000012,
      "d": 414.89370000000054,
      "v": 114
    },
    {
      "midi": 65,
      "hit": false,
      "t": 102138.31830000022,
      "d": 106.38300000000163,
      "v": 56
    },
    {
      "midi": 67,
      "hit": false,
      "t": 102138.31830000022,
      "d": 132.97874999999476,
      "v": 66
    },
    {
      "midi": 70,
      "hit": false,
      "t": 102138.31830000022,
      "d": 159.5744999999879,
      "v": 84
    },
    {
      "midi": 48,
      "hit": false,
      "t": 102553.21200000013,
      "d": 414.893699999986,
      "v": 114
    },
    {
      "midi": 62,
      "hit": false,
      "t": 102553.21200000013,
      "d": 414.893699999986,
      "v": 114
    },
    {
      "midi": 65,
      "hit": false,
      "t": 102553.21200000013,
      "d": 414.893699999986,
      "v": 114
    },
    {
      "midi": 58,
      "hit": false,
      "t": 102553.21200000013,
      "d": 542.5532999999705,
      "v": 114
    },
    {
      "midi": 55,
      "hit": false,
      "t": 102574.4886000002,
      "d": 473.40434999999707,
      "v": 40
    },
    {
      "midi": 70,
      "hit": false,
      "t": 102579.80775000012,
      "d": 393.61709999998857,
      "v": 114
    },
    {
      "midi": 65,
      "hit": false,
      "t": 102776.6163000002,
      "d": 303.1915500000032,
      "v": 72
    },
    {
      "midi": 65,
      "hit": false,
      "t": 102978.74400000011,
      "d": 515.9575499999919,
      "v": 114
    },
    {
      "midi": 62,
      "hit": false,
      "t": 102978.74400000011,
      "d": 526.5958499999979,
      "v": 114
    },
    {
      "midi": 70,
      "hit": false,
      "t": 102978.74400000011,
      "d": 542.5532999999996,
      "v": 114
    },
    {
      "midi": 48,
      "hit": false,
      "t": 102978.74400000011,
      "d": 553.1916000000056,
      "v": 114
    },
    {
      "midi": 67,
      "hit": false,
      "t": 102989.3823000002,
      "d": 223.4042999999947,
      "v": 47
    },
    {
      "midi": 74,
      "hit": false,
      "t": 103005.3397500001,
      "d": 515.9575500000064,
      "v": 114
    },
    {
      "midi": 36,
      "hit": false,
      "t": 103212.7866000002,
      "d": 111.70214999999735,
      "v": 79
    },
    {
      "midi": 64,
      "hit": false,
      "t": 103404.2760000001,
      "d": 627.6597000000183,
      "v": 114
    },
    {
      "midi": 69,
      "hit": false,
      "t": 103404.2760000001,
      "d": 627.6597000000183,
      "v": 114
    },
    {
      "midi": 72,
      "hit": false,
      "t": 103404.2760000001,
      "d": 627.6597000000183,
      "v": 114
    },
    {
      "midi": 41,
      "hit": false,
      "t": 103404.2760000001,
      "d": 776.5959000000148,
      "v": 114
    },
    {
      "midi": 64,
      "hit": false,
      "t": 103414.9143000002,
      "d": 186.17024999999558,
      "v": 65
    },
    {
      "midi": 67,
      "hit": false,
      "t": 103414.9143000002,
      "d": 186.17024999999558,
      "v": 63
    },
    {
      "midi": 69,
      "hit": false,
      "t": 103414.9143000002,
      "d": 186.17024999999558,
      "v": 78
    },
    {
      "midi": 41,
      "hit": false,
      "t": 103414.9143000002,
      "d": 1712.7662999999739,
      "v": 64
    },
    {
      "midi": 76,
      "hit": false,
      "t": 103436.1909000001,
      "d": 803.1916500000079,
      "v": 114
    },
    {
      "midi": 64,
      "hit": false,
      "t": 104042.57400000012,
      "d": 569.1490499999927,
      "v": 114
    },
    {
      "midi": 69,
      "hit": false,
      "t": 104042.57400000012,
      "d": 595.7447999999858,
      "v": 114
    },
    {
      "midi": 67,
      "hit": false,
      "t": 104053.21230000019,
      "d": 122.34045000000333,
      "v": 73
    },
    {
      "midi": 64,
      "hit": false,
      "t": 104053.21230000019,
      "d": 127.65959999999905,
      "v": 56
    },
    {
      "midi": 69,
      "hit": false,
      "t": 104053.21230000019,
      "d": 127.65959999999905,
      "v": 77
    },
    {
      "midi": 72,
      "hit": false,
      "t": 104069.16975000012,
      "d": 707.4469499999832,
      "v": 114
    },
    {
      "midi": 41,
      "hit": false,
      "t": 104468.10600000012,
      "d": 303.19154999998864,
      "v": 114
    },
    {
      "midi": 60,
      "hit": false,
      "t": 104680.8720000001,
      "d": 627.6596999999892,
      "v": 114
    },
    {
      "midi": 64,
      "hit": false,
      "t": 104680.8720000001,
      "d": 627.6596999999892,
      "v": 114
    },
    {
      "midi": 36,
      "hit": false,
      "t": 104680.8720000001,
      "d": 819.1490999999951,
      "v": 114
    },
    {
      "midi": 64,
      "hit": false,
      "t": 104691.51030000018,
      "d": 106.38300000000163,
      "v": 56
    },
    {
      "midi": 67,
      "hit": false,
      "t": 104691.51030000018,
      "d": 132.97874999999476,
      "v": 66
    },
    {
      "midi": 69,
      "hit": false,
      "t": 104691.51030000018,
      "d": 159.5744999999879,
      "v": 84
    },
    {
      "midi": 53,
      "hit": false,
      "t": 105127.68060000017,
      "d": 473.40434999999707,
      "v": 40
    },
    {
      "midi": 60,
      "hit": false,
      "t": 105319.1700000001,
      "d": 414.89370000000054,
      "v": 114
    },
    {
      "midi": 64,
      "hit": false,
      "t": 105319.1700000001,
      "d": 414.89370000000054,
      "v": 114
    },
    {
      "midi": 64,
      "hit": false,
      "t": 105329.80830000016,
      "d": 303.1915500000032,
      "v": 72
    },
    {
      "midi": 67,
      "hit": false,
      "t": 105542.57430000017,
      "d": 223.4042999999947,
      "v": 47
    },
    {
      "midi": 60,
      "hit": false,
      "t": 105744.7020000001,
      "d": 207.446849999993,
      "v": 114
    },
    {
      "midi": 64,
      "hit": false,
      "t": 105744.7020000001,
      "d": 207.446849999993,
      "v": 114
    },
    {
      "midi": 41,
      "hit": false,
      "t": 105765.97860000016,
      "d": 111.70214999999735,
      "v": 79
    },
    {
      "midi": 69,
      "hit": false,
      "t": 105957.4680000001,
      "d": 31.9149000000034,
      "v": 114
    },
    {
      "midi": 65,
      "hit": false,
      "t": 105957.4680000001,
      "d": 627.6597000000038,
      "v": 114
    },
    {
      "midi": 41,
      "hit": false,
      "t": 105957.4680000001,
      "d": 723.404400000014,
      "v": 114
    },
    {
      "midi": 62,
      "hit": false,
      "t": 105968.10630000016,
      "d": 345.744749999998,
      "v": 62
    },
    {
      "midi": 65,
      "hit": false,
      "t": 105968.10630000016,
      "d": 351.06389999999374,
      "v": 51
    },
    {
      "midi": 69,
      "hit": false,
      "t": 105968.10630000016,
      "d": 361.7021999999997,
      "v": 75
    },
    {
      "midi": 41,
      "hit": false,
      "t": 105968.10630000016,
      "d": 1244.6811000000016,
      "v": 50
    },
    {
      "midi": 53,
      "hit": false,
      "t": 105968.10630000016,
      "d": 1244.6811000000016,
      "v": 61
    },
    {
      "midi": 74,
      "hit": false,
      "t": 105989.3829000001,
      "d": 595.7448000000004,
      "v": 114
    },
    {
      "midi": 69,
      "hit": false,
      "t": 106595.7660000001,
      "d": 569.1490500000073,
      "v": 114
    },
    {
      "midi": 65,
      "hit": false,
      "t": 106595.7660000001,
      "d": 585.106500000009,
      "v": 114
    },
    {
      "midi": 74,
      "hit": false,
      "t": 106595.7660000001,
      "d": 803.1916500000225,
      "v": 114
    },
    {
      "midi": 69,
      "hit": false,
      "t": 106606.40430000015,
      "d": 191.48940000000584,
      "v": 82
    },
    {
      "midi": 65,
      "hit": false,
      "t": 106606.40430000015,
      "d": 202.12770000001183,
      "v": 77
    },
    {
      "midi": 77,
      "hit": false,
      "t": 106627.68090000011,
      "d": 760.6384500000131,
      "v": 114
    },
    {
      "midi": 41,
      "hit": false,
      "t": 107021.29800000011,
      "d": 335.1064500000066,
      "v": 114
    },
    {
      "midi": 65,
      "hit": false,
      "t": 107234.06400000011,
      "d": 627.6597000000183,
      "v": 114
    },
    {
      "midi": 69,
      "hit": false,
      "t": 107234.06400000011,
      "d": 627.6597000000183,
      "v": 114
    },
    {
      "midi": 36,
      "hit": false,
      "t": 107234.06400000011,
      "d": 723.4044000000285,
      "v": 114
    },
    {
      "midi": 72,
      "hit": false,
      "t": 107234.06400000011,
      "d": 734.0427000000345,
      "v": 114
    },
    {
      "midi": 64,
      "hit": false,
      "t": 107244.70230000016,
      "d": 271.2766499999998,
      "v": 67
    },
    {
      "midi": 69,
      "hit": false,
      "t": 107244.70230000016,
      "d": 303.1915500000032,
      "v": 83
    },
    {
      "midi": 67,
      "hit": false,
      "t": 107244.70230000016,
      "d": 308.5106999999989,
      "v": 60
    },
    {
      "midi": 41,
      "hit": false,
      "t": 107244.70230000016,
      "d": 436.17029999999795,
      "v": 68
    },
    {
      "midi": 76,
      "hit": false,
      "t": 107265.97890000012,
      "d": 707.4469500000268,
      "v": 114
    },
    {
      "midi": 53,
      "hit": false,
      "t": 107680.87260000016,
      "d": 287.2341000000015,
      "v": 70
    },
    {
      "midi": 60,
      "hit": false,
      "t": 107872.36200000014,
      "d": 414.89370000000054,
      "v": 114
    },
    {
      "midi": 64,
      "hit": false,
      "t": 107872.36200000014,
      "d": 414.89370000000054,
      "v": 114
    },
    {
      "midi": 69,
      "hit": false,
      "t": 107872.36200000014,
      "d": 500.00010000000475,
      "v": 114
    },
    {
      "midi": 69,
      "hit": false,
      "t": 107883.00030000016,
      "d": 207.44685000000754,
      "v": 68
    },
    {
      "midi": 64,
      "hit": false,
      "t": 107883.00030000016,
      "d": 223.40430000000924,
      "v": 57
    },
    {
      "midi": 67,
      "hit": false,
      "t": 107883.00030000016,
      "d": 223.40430000000924,
      "v": 49
    },
    {
      "midi": 64,
      "hit": false,
      "t": 108297.89400000015,
      "d": 180.85109999999986,
      "v": 114
    },
    {
      "midi": 60,
      "hit": false,
      "t": 108297.89400000015,
      "d": 292.55324999998265,
      "v": 114
    },
    {
      "midi": 41,
      "hit": false,
      "t": 108319.17060000017,
      "d": 170.21279999999388,
      "v": 64
    },
    {
      "midi": 64,
      "hit": false,
      "t": 108484.06425000014,
      "d": 611.7022499999875,
      "v": 114
    },
    {
      "midi": 65,
      "hit": false,
      "t": 108510.66000000013,
      "d": 627.6596999999892,
      "v": 114
    },
    {
      "midi": 69,
      "hit": false,
      "t": 108510.66000000013,
      "d": 627.6596999999892,
      "v": 114
    },
    {
      "midi": 38,
      "hit": false,
      "t": 108510.66000000013,
      "d": 750.0001499999926,
      "v": 114
    },
    {
      "midi": 76,
      "hit": false,
      "t": 108515.97915000013,
      "d": 1372.3407000000007,
      "v": 114
    },
    {
      "midi": 65,
      "hit": false,
      "t": 108521.29830000017,
      "d": 186.17024999999558,
      "v": 65
    },
    {
      "midi": 69,
      "hit": false,
      "t": 108521.29830000017,
      "d": 186.17024999999558,
      "v": 63
    },
    {
      "midi": 74,
      "hit": false,
      "t": 108521.29830000017,
      "d": 186.17024999999558,
      "v": 78
    },
    {
      "midi": 52,
      "hit": false,
      "t": 108521.29830000017,
      "d": 1712.7662999999739,
      "v": 64
    },
    {
      "midi": 64,
      "hit": false,
      "t": 109122.36225000012,
      "d": 569.1490499999927,
      "v": 114
    },
    {
      "midi": 65,
      "hit": false,
      "t": 109148.95800000013,
      "d": 595.7447999999858,
      "v": 114
    },
    {
      "midi": 69,
      "hit": false,
      "t": 109148.95800000013,
      "d": 595.7447999999858,
      "v": 114
    },
    {
      "midi": 69,
      "hit": false,
      "t": 109159.59630000016,
      "d": 122.34045000000333,
      "v": 73
    },
    {
      "midi": 65,
      "hit": false,
      "t": 109159.59630000016,
      "d": 127.65959999999905,
      "v": 56
    },
    {
      "midi": 74,
      "hit": false,
      "t": 109159.59630000016,
      "d": 127.65959999999905,
      "v": 77
    },
    {
      "midi": 38,
      "hit": false,
      "t": 109574.49000000012,
      "d": 319.1490000000049,
      "v": 114
    },
    {
      "midi": 64,
      "hit": false,
      "t": 109755.34110000012,
      "d": 542.5532999999996,
      "v": 114
    },
    {
      "midi": 65,
      "hit": false,
      "t": 109787.25600000012,
      "d": 595.7448000000004,
      "v": 114
    },
    {
      "midi": 60,
      "hit": false,
      "t": 109787.25600000012,
      "d": 627.6597000000038,
      "v": 114
    },
    {
      "midi": 33,
      "hit": false,
      "t": 109787.25600000012,
      "d": 750.0001500000071,
      "v": 114
    },
    {
      "midi": 69,
      "hit": false,
      "t": 109787.25600000012,
      "d": 2079.7876500000275,
      "v": 114
    },
    {
      "midi": 65,
      "hit": false,
      "t": 109797.89430000016,
      "d": 106.38300000000163,
      "v": 56
    },
    {
      "midi": 69,
      "hit": false,
      "t": 109797.89430000016,
      "d": 132.97874999999476,
      "v": 66
    },
    {
      "midi": 74,
      "hit": false,
      "t": 109797.89430000016,
      "d": 159.5744999999879,
      "v": 84
    },
    {
      "midi": 57,
      "hit": false,
      "t": 110234.06460000014,
      "d": 473.40434999999707,
      "v": 40
    },
    {
      "midi": 64,
      "hit": false,
      "t": 110398.95825000013,
      "d": 760.6384500000131,
      "v": 114
    },
    {
      "midi": 65,
      "hit": false,
      "t": 110425.55400000013,
      "d": 707.4469499999977,
      "v": 114
    },
    {
      "midi": 60,
      "hit": false,
      "t": 110425.55400000013,
      "d": 723.4043999999994,
      "v": 114
    },
    {
      "midi": 65,
      "hit": false,
      "t": 110436.19230000014,
      "d": 303.1915500000032,
      "v": 72
    },
    {
      "midi": 69,
      "hit": false,
      "t": 110648.95830000014,
      "d": 223.4042999999947,
      "v": 47
    },
    {
      "midi": 52,
      "hit": false,
      "t": 110872.36260000014,
      "d": 111.70214999999735,
      "v": 79
    },
    {
      "midi": 38,
      "hit": false,
      "t": 111063.85200000013,
      "d": 734.04270000002,
      "v": 114
    },
    {
      "midi": 65,
      "hit": false,
      "t": 111074.49030000014,
      "d": 345.744749999998,
      "v": 62
    },
    {
      "midi": 69,
      "hit": false,
      "t": 111074.49030000014,
      "d": 351.06389999999374,
      "v": 51
    },
    {
      "midi": 74,
      "hit": false,
      "t": 111074.49030000014,
      "d": 361.7021999999997,
      "v": 75
    },
    {
      "midi": 52,
      "hit": false,
      "t": 111074.49030000014,
      "d": 1010.6385000000009,
      "v": 50
    },
    {
      "midi": 57,
      "hit": false,
      "t": 111074.49030000014,
      "d": 1010.6385000000009,
      "v": 61
    },
    {
      "midi": 64,
      "hit": false,
      "t": 111702.15000000014,
      "d": 707.4469500000123,
      "v": 114
    },
    {
      "midi": 57,
      "hit": false,
      "t": 111702.15000000014,
      "d": 776.5959000000148,
      "v": 114
    },
    {
      "midi": 74,
      "hit": false,
      "t": 111712.78830000013,
      "d": 191.48940000000584,
      "v": 82
    },
    {
      "midi": 69,
      "hit": false,
      "t": 111712.78830000013,
      "d": 202.12770000001183,
      "v": 77
    },
    {
      "midi": 67,
      "hit": false,
      "t": 111734.06490000014,
      "d": 723.404400000014,
      "v": 114
    },
    {
      "midi": 38,
      "hit": false,
      "t": 112127.68200000015,
      "d": 361.7022000000143,
      "v": 114
    },
    {
      "midi": 65,
      "hit": false,
      "t": 112148.95860000014,
      "d": 462.76605000000563,
      "v": 67
    },
    {
      "midi": 70,
      "hit": false,
      "t": 112148.95860000014,
      "d": 494.68095000000903,
      "v": 83
    },
    {
      "midi": 67,
      "hit": false,
      "t": 112148.95860000014,
      "d": 500.00010000000475,
      "v": 60
    },
    {
      "midi": 36,
      "hit": false,
      "t": 112148.95860000014,
      "d": 627.6597000000038,
      "v": 68
    },
    {
      "midi": 43,
      "hit": false,
      "t": 112340.44800000015,
      "d": 414.8937000000151,
      "v": 114
    },
    {
      "midi": 62,
      "hit": false,
      "t": 112340.44800000015,
      "d": 414.8937000000151,
      "v": 114
    },
    {
      "midi": 65,
      "hit": false,
      "t": 112340.44800000015,
      "d": 414.8937000000151,
      "v": 114
    },
    {
      "midi": 58,
      "hit": false,
      "t": 112340.44800000015,
      "d": 553.1916000000056,
      "v": 114
    },
    {
      "midi": 69,
      "hit": false,
      "t": 112372.36290000015,
      "d": 388.2979500000074,
      "v": 114
    },
    {
      "midi": 62,
      "hit": false,
      "t": 112765.98000000016,
      "d": 414.89370000000054,
      "v": 114
    },
    {
      "midi": 65,
      "hit": false,
      "t": 112765.98000000016,
      "d": 414.89370000000054,
      "v": 114
    },
    {
      "midi": 69,
      "hit": false,
      "t": 112765.98000000016,
      "d": 414.89370000000054,
      "v": 114
    },
    {
      "midi": 43,
      "hit": false,
      "t": 112765.98000000016,
      "d": 542.5532999999996,
      "v": 114
    },
    {
      "midi": 55,
      "hit": false,
      "t": 112787.25660000015,
      "d": 287.2341000000015,
      "v": 70
    },
    {
      "midi": 72,
      "hit": false,
      "t": 112792.57575000015,
      "d": 585.106500000009,
      "v": 114
    },
    {
      "midi": 70,
      "hit": false,
      "t": 112989.38430000015,
      "d": 207.44685000000754,
      "v": 68
    },
    {
      "midi": 65,
      "hit": false,
      "t": 112989.38430000015,
      "d": 223.40430000000924,
      "v": 57
    },
    {
      "midi": 67,
      "hit": false,
      "t": 112989.38430000015,
      "d": 223.40430000000924,
      "v": 49
    },
    {
      "midi": 36,
      "hit": false,
      "t": 113191.51200000016,
      "d": 430.8511499999877,
      "v": 114
    },
    {
      "midi": 62,
      "hit": false,
      "t": 113191.51200000016,
      "d": 441.48944999999367,
      "v": 114
    },
    {
      "midi": 67,
      "hit": false,
      "t": 113191.51200000016,
      "d": 441.48944999999367,
      "v": 114
    },
    {
      "midi": 70,
      "hit": false,
      "t": 113191.51200000016,
      "d": 441.48944999999367,
      "v": 114
    },
    {
      "midi": 74,
      "hit": false,
      "t": 113218.10775000016,
      "d": 414.89370000000054,
      "v": 114
    },
    {
      "midi": 36,
      "hit": false,
      "t": 113425.55460000016,
      "d": 170.21279999999388,
      "v": 64
    },
    {
      "midi": 64,
      "hit": false,
      "t": 113617.04400000015,
      "d": 627.6597000000038,
      "v": 114
    },
    {
      "midi": 69,
      "hit": false,
      "t": 113617.04400000015,
      "d": 627.6597000000038,
      "v": 114
    },
    {
      "midi": 72,
      "hit": false,
      "t": 113617.04400000015,
      "d": 627.6597000000038,
      "v": 114
    },
    {
      "midi": 41,
      "hit": false,
      "t": 113617.04400000015,
      "d": 776.5959000000003,
      "v": 114
    },
    {
      "midi": 64,
      "hit": false,
      "t": 113627.68230000016,
      "d": 186.17024999999558,
      "v": 65
    },
    {
      "midi": 67,
      "hit": false,
      "t": 113627.68230000016,
      "d": 186.17024999999558,
      "v": 63
    },
    {
      "midi": 69,
      "hit": false,
      "t": 113627.68230000016,
      "d": 186.17024999999558,
      "v": 78
    },
    {
      "midi": 41,
      "hit": false,
      "t": 113627.68230000016,
      "d": 1712.7662999999739,
      "v": 64
    },
    {
      "midi": 76,
      "hit": false,
      "t": 113648.95890000016,
      "d": 803.1916499999934,
      "v": 114
    },
    {
      "midi": 64,
      "hit": false,
      "t": 114255.34200000016,
      "d": 569.1490499999927,
      "v": 114
    },
    {
      "midi": 69,
      "hit": false,
      "t": 114255.34200000016,
      "d": 595.7447999999858,
      "v": 114
    },
    {
      "midi": 67,
      "hit": false,
      "t": 114265.98030000016,
      "d": 122.34045000000333,
      "v": 73
    },
    {
      "midi": 64,
      "hit": false,
      "t": 114265.98030000016,
      "d": 127.65959999999905,
      "v": 56
    },
    {
      "midi": 69,
      "hit": false,
      "t": 114265.98030000016,
      "d": 127.65959999999905,
      "v": 77
    },
    {
      "midi": 72,
      "hit": false,
      "t": 114281.93775000016,
      "d": 707.4469499999832,
      "v": 114
    },
    {
      "midi": 41,
      "hit": false,
      "t": 114680.87400000016,
      "d": 303.19154999998864,
      "v": 114
    },
    {
      "midi": 60,
      "hit": false,
      "t": 114893.64000000014,
      "d": 627.6596999999892,
      "v": 114
    },
    {
      "midi": 64,
      "hit": false,
      "t": 114893.64000000014,
      "d": 627.6596999999892,
      "v": 114
    },
    {
      "midi": 36,
      "hit": false,
      "t": 114893.64000000014,
      "d": 819.1490999999951,
      "v": 114
    },
    {
      "midi": 64,
      "hit": false,
      "t": 114904.27830000015,
      "d": 106.38300000000163,
      "v": 56
    },
    {
      "midi": 67,
      "hit": false,
      "t": 114904.27830000015,
      "d": 132.97874999999476,
      "v": 66
    },
    {
      "midi": 69,
      "hit": false,
      "t": 114904.27830000015,
      "d": 159.5744999999879,
      "v": 84
    },
    {
      "midi": 53,
      "hit": false,
      "t": 115340.44860000013,
      "d": 473.40434999999707,
      "v": 40
    },
    {
      "midi": 60,
      "hit": false,
      "t": 115531.93800000014,
      "d": 414.89370000000054,
      "v": 114
    },
    {
      "midi": 64,
      "hit": false,
      "t": 115531.93800000014,
      "d": 414.89370000000054,
      "v": 114
    },
    {
      "midi": 64,
      "hit": false,
      "t": 115542.57630000013,
      "d": 303.1915500000032,
      "v": 72
    },
    {
      "midi": 67,
      "hit": false,
      "t": 115755.34230000013,
      "d": 223.4042999999947,
      "v": 47
    },
    {
      "midi": 60,
      "hit": false,
      "t": 115957.47000000015,
      "d": 207.446849999993,
      "v": 114
    },
    {
      "midi": 64,
      "hit": false,
      "t": 115957.47000000015,
      "d": 207.446849999993,
      "v": 114
    },
    {
      "midi": 41,
      "hit": false,
      "t": 115978.74660000013,
      "d": 111.70214999999735,
      "v": 79
    },
    {
      "midi": 69,
      "hit": false,
      "t": 116170.23600000014,
      "d": 31.9149000000034,
      "v": 114
    },
    {
      "midi": 65,
      "hit": false,
      "t": 116170.23600000014,
      "d": 627.6597000000038,
      "v": 114
    },
    {
      "midi": 41,
      "hit": false,
      "t": 116170.23600000014,
      "d": 723.404400000014,
      "v": 114
    },
    {
      "midi": 62,
      "hit": false,
      "t": 116180.87430000013,
      "d": 345.744749999998,
      "v": 62
    },
    {
      "midi": 65,
      "hit": false,
      "t": 116180.87430000013,
      "d": 351.06389999999374,
      "v": 51
    },
    {
      "midi": 69,
      "hit": false,
      "t": 116180.87430000013,
      "d": 361.7021999999997,
      "v": 75
    },
    {
      "midi": 41,
      "hit": false,
      "t": 116180.87430000013,
      "d": 1010.6385000000009,
      "v": 50
    },
    {
      "midi": 53,
      "hit": false,
      "t": 116180.87430000013,
      "d": 1010.6385000000009,
      "v": 61
    },
    {
      "midi": 74,
      "hit": false,
      "t": 116202.15090000014,
      "d": 595.7448000000004,
      "v": 114
    },
    {
      "midi": 69,
      "hit": false,
      "t": 116808.53400000015,
      "d": 569.1490500000073,
      "v": 114
    },
    {
      "midi": 65,
      "hit": false,
      "t": 116808.53400000015,
      "d": 585.106500000009,
      "v": 114
    },
    {
      "midi": 74,
      "hit": false,
      "t": 116808.53400000015,
      "d": 803.1916500000225,
      "v": 114
    },
    {
      "midi": 69,
      "hit": false,
      "t": 116819.17230000012,
      "d": 191.48940000000584,
      "v": 82
    },
    {
      "midi": 65,
      "hit": false,
      "t": 116819.17230000012,
      "d": 202.12770000001183,
      "v": 77
    },
    {
      "midi": 77,
      "hit": false,
      "t": 116840.44890000015,
      "d": 760.6384500000131,
      "v": 114
    },
    {
      "midi": 41,
      "hit": false,
      "t": 117234.06600000015,
      "d": 335.1064500000066,
      "v": 114
    },
    {
      "midi": 64,
      "hit": false,
      "t": 117255.34260000013,
      "d": 462.76605000000563,
      "v": 67
    },
    {
      "midi": 69,
      "hit": false,
      "t": 117255.34260000013,
      "d": 494.68095000000903,
      "v": 83
    },
    {
      "midi": 67,
      "hit": false,
      "t": 117255.34260000013,
      "d": 500.00010000000475,
      "v": 60
    },
    {
      "midi": 41,
      "hit": false,
      "t": 117255.34260000013,
      "d": 627.6597000000038,
      "v": 68
    },
    {
      "midi": 65,
      "hit": false,
      "t": 117446.83200000015,
      "d": 627.6597000000183,
      "v": 114
    },
    {
      "midi": 69,
      "hit": false,
      "t": 117446.83200000015,
      "d": 627.6597000000183,
      "v": 114
    },
    {
      "midi": 36,
      "hit": false,
      "t": 117446.83200000015,
      "d": 723.4044000000285,
      "v": 114
    },
    {
      "midi": 72,
      "hit": false,
      "t": 117446.83200000015,
      "d": 734.0427000000345,
      "v": 114
    },
    {
      "midi": 76,
      "hit": false,
      "t": 117478.74690000016,
      "d": 707.4469500000268,
      "v": 114
    },
    {
      "midi": 53,
      "hit": false,
      "t": 117893.64060000014,
      "d": 287.2341000000015,
      "v": 70
    },
    {
      "midi": 60,
      "hit": false,
      "t": 118085.13000000018,
      "d": 414.89370000000054,
      "v": 114
    },
    {
      "midi": 64,
      "hit": false,
      "t": 118085.13000000018,
      "d": 414.89370000000054,
      "v": 114
    },
    {
      "midi": 69,
      "hit": false,
      "t": 118085.13000000018,
      "d": 500.00010000000475,
      "v": 114
    },
    {
      "midi": 69,
      "hit": false,
      "t": 118095.76830000014,
      "d": 207.44685000000754,
      "v": 68
    },
    {
      "midi": 64,
      "hit": false,
      "t": 118095.76830000014,
      "d": 223.40430000000924,
      "v": 57
    },
    {
      "midi": 67,
      "hit": false,
      "t": 118095.76830000014,
      "d": 223.40430000000924,
      "v": 49
    },
    {
      "midi": 64,
      "hit": false,
      "t": 118510.66200000019,
      "d": 180.85109999999986,
      "v": 114
    },
    {
      "midi": 60,
      "hit": false,
      "t": 118510.66200000019,
      "d": 292.55324999998265,
      "v": 114
    },
    {
      "midi": 41,
      "hit": false,
      "t": 118531.93860000015,
      "d": 170.21279999999388,
      "v": 64
    },
    {
      "midi": 64,
      "hit": false,
      "t": 118696.83225000018,
      "d": 611.7022499999875,
      "v": 114
    },
    {
      "midi": 65,
      "hit": false,
      "t": 118723.42800000017,
      "d": 627.6596999999892,
      "v": 114
    },
    {
      "midi": 69,
      "hit": false,
      "t": 118723.42800000017,
      "d": 627.6596999999892,
      "v": 114
    },
    {
      "midi": 38,
      "hit": false,
      "t": 118723.42800000017,
      "d": 750.0001499999926,
      "v": 114
    },
    {
      "midi": 76,
      "hit": false,
      "t": 118728.74715000017,
      "d": 1372.3407000000007,
      "v": 114
    },
    {
      "midi": 65,
      "hit": false,
      "t": 118734.06630000015,
      "d": 186.17024999999558,
      "v": 65
    },
    {
      "midi": 69,
      "hit": false,
      "t": 118734.06630000015,
      "d": 186.17024999999558,
      "v": 63
    },
    {
      "midi": 74,
      "hit": false,
      "t": 118734.06630000015,
      "d": 186.17024999999558,
      "v": 78
    },
    {
      "midi": 52,
      "hit": false,
      "t": 118734.06630000015,
      "d": 1712.7662999999739,
      "v": 64
    },
    {
      "midi": 64,
      "hit": false,
      "t": 119335.13025000016,
      "d": 569.1490499999927,
      "v": 114
    },
    {
      "midi": 65,
      "hit": false,
      "t": 119361.72600000017,
      "d": 595.7447999999858,
      "v": 114
    },
    {
      "midi": 69,
      "hit": false,
      "t": 119361.72600000017,
      "d": 595.7447999999858,
      "v": 114
    },
    {
      "midi": 69,
      "hit": false,
      "t": 119372.36430000015,
      "d": 122.34045000000333,
      "v": 73
    },
    {
      "midi": 65,
      "hit": false,
      "t": 119372.36430000015,
      "d": 127.65959999999905,
      "v": 56
    },
    {
      "midi": 74,
      "hit": false,
      "t": 119372.36430000015,
      "d": 127.65959999999905,
      "v": 77
    },
    {
      "midi": 38,
      "hit": false,
      "t": 119787.25800000016,
      "d": 319.1490000000049,
      "v": 114
    },
    {
      "midi": 64,
      "hit": false,
      "t": 119968.10910000016,
      "d": 542.5532999999996,
      "v": 114
    },
    {
      "midi": 65,
      "hit": false,
      "t": 120000.02400000016,
      "d": 595.7448000000004,
      "v": 114
    },
    {
      "midi": 60,
      "hit": false,
      "t": 120000.02400000016,
      "d": 627.6597000000038,
      "v": 114
    },
    {
      "midi": 33,
      "hit": false,
      "t": 120000.02400000016,
      "d": 750.0001500000071,
      "v": 114
    },
    {
      "midi": 69,
      "hit": false,
      "t": 120000.02400000016,
      "d": 2079.7876500000275,
      "v": 114
    },
    {
      "midi": 65,
      "hit": false,
      "t": 120010.66230000014,
      "d": 106.38300000000163,
      "v": 56
    },
    {
      "midi": 69,
      "hit": false,
      "t": 120010.66230000014,
      "d": 132.97874999999476,
      "v": 66
    },
    {
      "midi": 74,
      "hit": false,
      "t": 120010.66230000014,
      "d": 159.5744999999879,
      "v": 84
    },
    {
      "midi": 57,
      "hit": false,
      "t": 120446.83260000013,
      "d": 473.40434999999707,
      "v": 40
    },
    {
      "midi": 64,
      "hit": false,
      "t": 120611.72625000017,
      "d": 760.6384500000131,
      "v": 114
    },
    {
      "midi": 65,
      "hit": false,
      "t": 120638.32200000017,
      "d": 707.4469499999977,
      "v": 114
    },
    {
      "midi": 60,
      "hit": false,
      "t": 120638.32200000017,
      "d": 723.4043999999994,
      "v": 114
    },
    {
      "midi": 65,
      "hit": false,
      "t": 120648.96030000012,
      "d": 303.1915500000032,
      "v": 72
    },
    {
      "midi": 69,
      "hit": false,
      "t": 120861.72630000013,
      "d": 223.4042999999947,
      "v": 47
    },
    {
      "midi": 52,
      "hit": false,
      "t": 121085.13060000012,
      "d": 111.70214999999735,
      "v": 79
    },
    {
      "midi": 38,
      "hit": false,
      "t": 121276.62000000017,
      "d": 734.04270000002,
      "v": 114
    },
    {
      "midi": 65,
      "hit": false,
      "t": 121287.25830000012,
      "d": 345.744749999998,
      "v": 62
    },
    {
      "midi": 69,
      "hit": false,
      "t": 121287.25830000012,
      "d": 351.06389999999374,
      "v": 51
    },
    {
      "midi": 74,
      "hit": false,
      "t": 121287.25830000012,
      "d": 361.7021999999997,
      "v": 75
    },
    {
      "midi": 52,
      "hit": false,
      "t": 121287.25830000012,
      "d": 1010.6385000000009,
      "v": 50
    },
    {
      "midi": 57,
      "hit": false,
      "t": 121287.25830000012,
      "d": 1010.6385000000009,
      "v": 61
    },
    {
      "midi": 64,
      "hit": false,
      "t": 121914.91800000018,
      "d": 707.4469500000123,
      "v": 114
    },
    {
      "midi": 57,
      "hit": false,
      "t": 121914.91800000018,
      "d": 776.5959000000148,
      "v": 114
    },
    {
      "midi": 74,
      "hit": false,
      "t": 121925.55630000011,
      "d": 191.48940000000584,
      "v": 82
    },
    {
      "midi": 69,
      "hit": false,
      "t": 121925.55630000011,
      "d": 202.12770000001183,
      "v": 77
    },
    {
      "midi": 67,
      "hit": false,
      "t": 121946.83290000018,
      "d": 723.404400000014,
      "v": 114
    },
    {
      "midi": 38,
      "hit": false,
      "t": 122340.45000000019,
      "d": 361.7022000000143,
      "v": 114
    },
    {
      "midi": 65,
      "hit": false,
      "t": 122361.72660000013,
      "d": 462.76605000000563,
      "v": 67
    },
    {
      "midi": 70,
      "hit": false,
      "t": 122361.72660000013,
      "d": 494.68095000000903,
      "v": 83
    },
    {
      "midi": 67,
      "hit": false,
      "t": 122361.72660000013,
      "d": 500.00010000000475,
      "v": 60
    },
    {
      "midi": 36,
      "hit": false,
      "t": 122361.72660000013,
      "d": 627.6597000000038,
      "v": 68
    },
    {
      "midi": 43,
      "hit": false,
      "t": 122553.21600000019,
      "d": 414.8937000000151,
      "v": 114
    },
    {
      "midi": 62,
      "hit": false,
      "t": 122553.21600000019,
      "d": 414.8937000000151,
      "v": 114
    },
    {
      "midi": 65,
      "hit": false,
      "t": 122553.21600000019,
      "d": 414.8937000000151,
      "v": 114
    },
    {
      "midi": 58,
      "hit": false,
      "t": 122553.21600000019,
      "d": 553.1916000000056,
      "v": 114
    },
    {
      "midi": 69,
      "hit": false,
      "t": 122585.1309000002,
      "d": 388.2979500000074,
      "v": 114
    },
    {
      "midi": 62,
      "hit": false,
      "t": 122978.7480000002,
      "d": 414.89370000000054,
      "v": 114
    },
    {
      "midi": 65,
      "hit": false,
      "t": 122978.7480000002,
      "d": 414.89370000000054,
      "v": 114
    },
    {
      "midi": 69,
      "hit": false,
      "t": 122978.7480000002,
      "d": 414.89370000000054,
      "v": 114
    },
    {
      "midi": 43,
      "hit": false,
      "t": 122978.7480000002,
      "d": 542.5532999999996,
      "v": 114
    },
    {
      "midi": 55,
      "hit": false,
      "t": 123000.02460000014,
      "d": 287.2341000000015,
      "v": 70
    },
    {
      "midi": 72,
      "hit": false,
      "t": 123005.34375000019,
      "d": 585.106500000009,
      "v": 114
    },
    {
      "midi": 70,
      "hit": false,
      "t": 123202.15230000013,
      "d": 207.44685000000754,
      "v": 68
    },
    {
      "midi": 65,
      "hit": false,
      "t": 123202.15230000013,
      "d": 223.40430000000924,
      "v": 57
    },
    {
      "midi": 67,
      "hit": false,
      "t": 123202.15230000013,
      "d": 223.40430000000924,
      "v": 49
    },
    {
      "midi": 36,
      "hit": false,
      "t": 123404.2800000002,
      "d": 430.8511499999877,
      "v": 114
    },
    {
      "midi": 62,
      "hit": false,
      "t": 123404.2800000002,
      "d": 441.48944999999367,
      "v": 114
    },
    {
      "midi": 67,
      "hit": false,
      "t": 123404.2800000002,
      "d": 441.48944999999367,
      "v": 114
    },
    {
      "midi": 70,
      "hit": false,
      "t": 123404.2800000002,
      "d": 441.48944999999367,
      "v": 114
    },
    {
      "midi": 74,
      "hit": false,
      "t": 123430.8757500002,
      "d": 414.89370000000054,
      "v": 114
    },
    {
      "midi": 36,
      "hit": false,
      "t": 123638.32260000015,
      "d": 170.21279999999388,
      "v": 64
    },
    {
      "midi": 64,
      "hit": false,
      "t": 123829.8120000002,
      "d": 627.6597000000038,
      "v": 114
    },
    {
      "midi": 69,
      "hit": false,
      "t": 123829.8120000002,
      "d": 627.6597000000038,
      "v": 114
    },
    {
      "midi": 72,
      "hit": false,
      "t": 123829.8120000002,
      "d": 627.6597000000038,
      "v": 114
    },
    {
      "midi": 41,
      "hit": false,
      "t": 123829.8120000002,
      "d": 776.5959000000003,
      "v": 114
    },
    {
      "midi": 64,
      "hit": false,
      "t": 123840.45030000014,
      "d": 186.17024999999558,
      "v": 65
    },
    {
      "midi": 67,
      "hit": false,
      "t": 123840.45030000014,
      "d": 186.17024999999558,
      "v": 63
    },
    {
      "midi": 69,
      "hit": false,
      "t": 123840.45030000014,
      "d": 186.17024999999558,
      "v": 78
    },
    {
      "midi": 41,
      "hit": false,
      "t": 123840.45030000014,
      "d": 1712.7662999999739,
      "v": 64
    },
    {
      "midi": 76,
      "hit": false,
      "t": 123861.7269000002,
      "d": 803.1916499999934,
      "v": 114
    },
    {
      "midi": 64,
      "hit": false,
      "t": 124468.1100000002,
      "d": 569.1490499999927,
      "v": 114
    },
    {
      "midi": 69,
      "hit": false,
      "t": 124468.1100000002,
      "d": 595.7447999999858,
      "v": 114
    },
    {
      "midi": 67,
      "hit": false,
      "t": 124478.74830000014,
      "d": 122.34045000000333,
      "v": 73
    },
    {
      "midi": 64,
      "hit": false,
      "t": 124478.74830000014,
      "d": 127.65959999999905,
      "v": 56
    },
    {
      "midi": 69,
      "hit": false,
      "t": 124478.74830000014,
      "d": 127.65959999999905,
      "v": 77
    },
    {
      "midi": 72,
      "hit": false,
      "t": 124494.7057500002,
      "d": 707.4469499999832,
      "v": 114
    },
    {
      "midi": 41,
      "hit": false,
      "t": 124893.6420000002,
      "d": 303.19154999998864,
      "v": 114
    },
    {
      "midi": 60,
      "hit": false,
      "t": 125106.40800000018,
      "d": 627.6596999999892,
      "v": 114
    },
    {
      "midi": 64,
      "hit": false,
      "t": 125106.40800000018,
      "d": 627.6596999999892,
      "v": 114
    },
    {
      "midi": 36,
      "hit": false,
      "t": 125106.40800000018,
      "d": 819.1490999999951,
      "v": 114
    },
    {
      "midi": 64,
      "hit": false,
      "t": 125117.04630000013,
      "d": 106.38300000000163,
      "v": 56
    },
    {
      "midi": 67,
      "hit": false,
      "t": 125117.04630000013,
      "d": 132.97874999999476,
      "v": 66
    },
    {
      "midi": 69,
      "hit": false,
      "t": 125117.04630000013,
      "d": 159.5744999999879,
      "v": 84
    },
    {
      "midi": 53,
      "hit": false,
      "t": 125553.21660000012,
      "d": 473.40434999999707,
      "v": 40
    },
    {
      "midi": 60,
      "hit": false,
      "t": 125744.70600000018,
      "d": 414.89370000000054,
      "v": 114
    },
    {
      "midi": 64,
      "hit": false,
      "t": 125744.70600000018,
      "d": 414.89370000000054,
      "v": 114
    },
    {
      "midi": 64,
      "hit": false,
      "t": 125755.34430000011,
      "d": 303.1915500000032,
      "v": 72
    },
    {
      "midi": 67,
      "hit": false,
      "t": 125968.11030000012,
      "d": 223.4042999999947,
      "v": 47
    },
    {
      "midi": 60,
      "hit": false,
      "t": 126170.23800000019,
      "d": 207.446849999993,
      "v": 114
    },
    {
      "midi": 64,
      "hit": false,
      "t": 126170.23800000019,
      "d": 207.446849999993,
      "v": 114
    },
    {
      "midi": 41,
      "hit": false,
      "t": 126191.51460000011,
      "d": 111.70214999999735,
      "v": 79
    },
    {
      "midi": 69,
      "hit": false,
      "t": 126383.00400000018,
      "d": 31.9149000000034,
      "v": 114
    },
    {
      "midi": 65,
      "hit": false,
      "t": 126383.00400000018,
      "d": 627.6597000000038,
      "v": 114
    },
    {
      "midi": 41,
      "hit": false,
      "t": 126383.00400000018,
      "d": 723.404400000014,
      "v": 114
    },
    {
      "midi": 62,
      "hit": false,
      "t": 126393.64230000011,
      "d": 345.744749999998,
      "v": 62
    },
    {
      "midi": 65,
      "hit": false,
      "t": 126393.64230000011,
      "d": 351.06389999999374,
      "v": 51
    },
    {
      "midi": 69,
      "hit": false,
      "t": 126393.64230000011,
      "d": 361.7021999999997,
      "v": 75
    },
    {
      "midi": 41,
      "hit": false,
      "t": 126393.64230000011,
      "d": 1010.6385000000009,
      "v": 50
    },
    {
      "midi": 53,
      "hit": false,
      "t": 126393.64230000011,
      "d": 1010.6385000000009,
      "v": 61
    },
    {
      "midi": 74,
      "hit": false,
      "t": 126414.91890000018,
      "d": 595.7448000000004,
      "v": 114
    },
    {
      "midi": 69,
      "hit": false,
      "t": 127021.30200000019,
      "d": 569.1490500000073,
      "v": 114
    },
    {
      "midi": 65,
      "hit": false,
      "t": 127021.30200000019,
      "d": 585.106500000009,
      "v": 114
    },
    {
      "midi": 74,
      "hit": false,
      "t": 127021.30200000019,
      "d": 803.1916500000225,
      "v": 114
    },
    {
      "midi": 69,
      "hit": false,
      "t": 127031.9403000001,
      "d": 191.48940000000584,
      "v": 82
    },
    {
      "midi": 65,
      "hit": false,
      "t": 127031.9403000001,
      "d": 202.12770000001183,
      "v": 77
    },
    {
      "midi": 77,
      "hit": false,
      "t": 127053.21690000019,
      "d": 760.6384500000131,
      "v": 114
    },
    {
      "midi": 41,
      "hit": false,
      "t": 127446.83400000019,
      "d": 335.1064500000066,
      "v": 114
    },
    {
      "midi": 64,
      "hit": false,
      "t": 127468.11060000012,
      "d": 462.76605000000563,
      "v": 67
    },
    {
      "midi": 69,
      "hit": false,
      "t": 127468.11060000012,
      "d": 494.68095000000903,
      "v": 83
    },
    {
      "midi": 67,
      "hit": false,
      "t": 127468.11060000012,
      "d": 500.00010000000475,
      "v": 60
    },
    {
      "midi": 41,
      "hit": false,
      "t": 127468.11060000012,
      "d": 627.6597000000038,
      "v": 68
    },
    {
      "midi": 65,
      "hit": false,
      "t": 127659.6000000002,
      "d": 627.6597000000183,
      "v": 114
    },
    {
      "midi": 69,
      "hit": false,
      "t": 127659.6000000002,
      "d": 627.6597000000183,
      "v": 114
    },
    {
      "midi": 36,
      "hit": false,
      "t": 127659.6000000002,
      "d": 723.4044000000285,
      "v": 114
    },
    {
      "midi": 72,
      "hit": false,
      "t": 127659.6000000002,
      "d": 734.0427000000345,
      "v": 114
    },
    {
      "midi": 76,
      "hit": false,
      "t": 127691.5149000002,
      "d": 707.4469500000268,
      "v": 114
    },
    {
      "midi": 53,
      "hit": false,
      "t": 128106.40860000013,
      "d": 287.2341000000015,
      "v": 70
    },
    {
      "midi": 60,
      "hit": false,
      "t": 128297.89800000022,
      "d": 414.89370000000054,
      "v": 96
    },
    {
      "midi": 64,
      "hit": false,
      "t": 128297.89800000022,
      "d": 414.89370000000054,
      "v": 96
    },
    {
      "midi": 69,
      "hit": false,
      "t": 128297.89800000022,
      "d": 500.00010000000475,
      "v": 96
    },
    {
      "midi": 69,
      "hit": false,
      "t": 128308.53630000012,
      "d": 207.44685000000754,
      "v": 68
    },
    {
      "midi": 64,
      "hit": false,
      "t": 128308.53630000012,
      "d": 223.40430000000924,
      "v": 57
    },
    {
      "midi": 67,
      "hit": false,
      "t": 128308.53630000012,
      "d": 223.40430000000924,
      "v": 49
    },
    {
      "midi": 64,
      "hit": false,
      "t": 128723.43000000023,
      "d": 180.85109999999986,
      "v": 93
    },
    {
      "midi": 60,
      "hit": false,
      "t": 128723.43000000023,
      "d": 292.55324999998265,
      "v": 93
    },
    {
      "midi": 41,
      "hit": false,
      "t": 128744.70660000014,
      "d": 170.21279999999388,
      "v": 64
    },
    {
      "midi": 64,
      "hit": false,
      "t": 128909.60025000022,
      "d": 611.7022499999875,
      "v": 90
    },
    {
      "midi": 65,
      "hit": false,
      "t": 128936.19600000021,
      "d": 627.6596999999892,
      "v": 90
    },
    {
      "midi": 69,
      "hit": false,
      "t": 128936.19600000021,
      "d": 627.6596999999892,
      "v": 90
    },
    {
      "midi": 38,
      "hit": false,
      "t": 128936.19600000021,
      "d": 750.0001499999926,
      "v": 90
    },
    {
      "midi": 76,
      "hit": false,
      "t": 128941.51515000021,
      "d": 1372.3407000000007,
      "v": 90
    },
    {
      "midi": 65,
      "hit": false,
      "t": 128946.83430000013,
      "d": 271.2766499999998,
      "v": 67
    },
    {
      "midi": 74,
      "hit": false,
      "t": 128946.83430000013,
      "d": 303.1915500000032,
      "v": 83
    },
    {
      "midi": 69,
      "hit": false,
      "t": 128946.83430000013,
      "d": 308.5106999999989,
      "v": 60
    },
    {
      "midi": 52,
      "hit": false,
      "t": 128946.83430000013,
      "d": 436.17029999999795,
      "v": 68
    },
    {
      "midi": 57,
      "hit": false,
      "t": 129383.00460000013,
      "d": 287.2341000000015,
      "v": 70
    },
    {
      "midi": 64,
      "hit": false,
      "t": 129547.8982500002,
      "d": 569.1490499999927,
      "v": 87
    },
    {
      "midi": 65,
      "hit": false,
      "t": 129574.49400000021,
      "d": 595.7447999999858,
      "v": 87
    },
    {
      "midi": 69,
      "hit": false,
      "t": 129574.49400000021,
      "d": 595.7447999999858,
      "v": 87
    },
    {
      "midi": 74,
      "hit": false,
      "t": 129585.13230000013,
      "d": 207.44685000000754,
      "v": 68
    },
    {
      "midi": 65,
      "hit": false,
      "t": 129585.13230000013,
      "d": 223.40430000000924,
      "v": 57
    },
    {
      "midi": 69,
      "hit": false,
      "t": 129585.13230000013,
      "d": 223.40430000000924,
      "v": 49
    },
    {
      "midi": 38,
      "hit": false,
      "t": 130000.0260000002,
      "d": 319.1490000000049,
      "v": 84
    },
    {
      "midi": 52,
      "hit": false,
      "t": 130021.30260000014,
      "d": 452.12774999999965,
      "v": 64
    },
    {
      "midi": 65,
      "hit": false,
      "t": 130021.30260000014,
      "d": 675.5320499999943,
      "v": 55
    },
    {
      "midi": 74,
      "hit": false,
      "t": 130021.30260000014,
      "d": 776.5959000000003,
      "v": 82
    },
    {
      "midi": 69,
      "hit": false,
      "t": 130021.30260000014,
      "d": 792.553350000002,
      "v": 67
    },
    {
      "midi": 64,
      "hit": false,
      "t": 130180.8771000002,
      "d": 542.5532999999996,
      "v": 81
    },
    {
      "midi": 65,
      "hit": false,
      "t": 130212.7920000002,
      "d": 595.7448000000004,
      "v": 81
    },
    {
      "midi": 60,
      "hit": false,
      "t": 130212.7920000002,
      "d": 627.6597000000038,
      "v": 80
    },
    {
      "midi": 33,
      "hit": false,
      "t": 130212.7920000002,
      "d": 750.0001500000071,
      "v": 81
    },
    {
      "midi": 69,
      "hit": false,
      "t": 130212.7920000002,
      "d": 2079.7876499999984,
      "v": 81
    },
    {
      "midi": 57,
      "hit": false,
      "t": 130659.60060000014,
      "d": 367.02135000001,
      "v": 71
    },
    {
      "midi": 64,
      "hit": false,
      "t": 130824.4942500002,
      "d": 760.638449999984,
      "v": 78
    },
    {
      "midi": 65,
      "hit": false,
      "t": 130851.09000000021,
      "d": 707.4469499999977,
      "v": 78
    },
    {
      "midi": 60,
      "hit": false,
      "t": 130851.09000000021,
      "d": 723.4043999999849,
      "v": 78
    },
    {
      "midi": 65,
      "hit": false,
      "t": 130861.72830000015,
      "d": 388.29794999999285,
      "v": 76
    },
    {
      "midi": 52,
      "hit": false,
      "t": 131297.89860000013,
      "d": 170.21280000000843,
      "v": 52
    },
    {
      "midi": 38,
      "hit": false,
      "t": 131489.3880000002,
      "d": 734.0426999999909,
      "v": 75
    },
    {
      "midi": 65,
      "hit": false,
      "t": 131500.02630000014,
      "d": 345.7447500000126,
      "v": 62
    },
    {
      "midi": 69,
      "hit": false,
      "t": 131500.02630000014,
      "d": 351.0639000000083,
      "v": 51
    },
    {
      "midi": 74,
      "hit": false,
      "t": 131500.02630000014,
      "d": 361.7021999999997,
      "v": 75
    },
    {
      "midi": 52,
      "hit": false,
      "t": 131500.02630000014,
      "d": 1244.681099999987,
      "v": 50
    },
    {
      "midi": 57,
      "hit": false,
      "t": 131500.02630000014,
      "d": 1244.681099999987,
      "v": 61
    },
    {
      "midi": 64,
      "hit": false,
      "t": 132127.6860000002,
      "d": 707.4469500000123,
      "v": 72
    },
    {
      "midi": 57,
      "hit": false,
      "t": 132127.6860000002,
      "d": 776.5959000000148,
      "v": 72
    },
    {
      "midi": 74,
      "hit": false,
      "t": 132138.32430000015,
      "d": 191.4893999999913,
      "v": 82
    },
    {
      "midi": 69,
      "hit": false,
      "t": 132138.32430000015,
      "d": 202.12769999998272,
      "v": 77
    },
    {
      "midi": 67,
      "hit": false,
      "t": 132159.6009000002,
      "d": 723.4043999999994,
      "v": 72
    },
    {
      "midi": 38,
      "hit": false,
      "t": 132553.2180000002,
      "d": 361.7021999999997,
      "v": 69
    },
    {
      "midi": 43,
      "hit": false,
      "t": 132765.9840000002,
      "d": 414.893699999986,
      "v": 66
    },
    {
      "midi": 62,
      "hit": false,
      "t": 132765.9840000002,
      "d": 414.893699999986,
      "v": 66
    },
    {
      "midi": 65,
      "hit": false,
      "t": 132765.9840000002,
      "d": 414.893699999986,
      "v": 66
    },
    {
      "midi": 58,
      "hit": false,
      "t": 132765.9840000002,
      "d": 553.191599999991,
      "v": 66
    },
    {
      "midi": 65,
      "hit": false,
      "t": 132776.62230000013,
      "d": 271.27665000001434,
      "v": 67
    },
    {
      "midi": 70,
      "hit": false,
      "t": 132776.62230000013,
      "d": 303.19155000001774,
      "v": 83
    },
    {
      "midi": 67,
      "hit": false,
      "t": 132776.62230000013,
      "d": 308.51070000001346,
      "v": 60
    },
    {
      "midi": 36,
      "hit": false,
      "t": 132776.62230000013,
      "d": 436.17030000002705,
      "v": 68
    },
    {
      "midi": 69,
      "hit": false,
      "t": 132797.8989000002,
      "d": 388.2979499999783,
      "v": 66
    },
    {
      "midi": 62,
      "hit": false,
      "t": 133191.51600000018,
      "d": 414.8937000000151,
      "v": 63
    },
    {
      "midi": 65,
      "hit": false,
      "t": 133191.51600000018,
      "d": 414.8937000000151,
      "v": 63
    },
    {
      "midi": 69,
      "hit": false,
      "t": 133191.51600000018,
      "d": 414.8937000000151,
      "v": 63
    },
    {
      "midi": 43,
      "hit": false,
      "t": 133191.51600000018,
      "d": 542.5533000000287,
      "v": 63
    },
    {
      "midi": 55,
      "hit": false,
      "t": 133212.79260000016,
      "d": 287.2341000000015,
      "v": 70
    },
    {
      "midi": 72,
      "hit": false,
      "t": 133218.1117500002,
      "d": 585.1065000000235,
      "v": 63
    },
    {
      "midi": 70,
      "hit": false,
      "t": 133414.92030000017,
      "d": 207.44684999997844,
      "v": 68
    },
    {
      "midi": 65,
      "hit": false,
      "t": 133414.92030000017,
      "d": 223.4042999999656,
      "v": 57
    },
    {
      "midi": 67,
      "hit": false,
      "t": 133414.92030000017,
      "d": 223.4042999999656,
      "v": 49
    },
    {
      "midi": 36,
      "hit": false,
      "t": 133617.04800000018,
      "d": 430.85115000003134,
      "v": 60
    },
    {
      "midi": 62,
      "hit": false,
      "t": 133617.04800000018,
      "d": 441.48945000002277,
      "v": 60
    },
    {
      "midi": 67,
      "hit": false,
      "t": 133617.04800000018,
      "d": 441.48945000002277,
      "v": 60
    },
    {
      "midi": 70,
      "hit": false,
      "t": 133617.04800000018,
      "d": 441.48945000002277,
      "v": 60
    },
    {
      "midi": 74,
      "hit": false,
      "t": 133643.6437500002,
      "d": 414.8937000000151,
      "v": 60
    },
    {
      "midi": 36,
      "hit": false,
      "t": 133851.09060000014,
      "d": 170.21280000000843,
      "v": 64
    },
    {
      "midi": 43,
      "hit": false,
      "t": 134053.21830000015,
      "d": 351.0639000000083,
      "v": 57
    },
    {
      "midi": 58,
      "hit": false,
      "t": 134053.21830000015,
      "d": 351.0639000000083,
      "v": 58
    },
    {
      "midi": 62,
      "hit": false,
      "t": 134053.21830000015,
      "d": 351.0639000000083,
      "v": 56
    },
    {
      "midi": 65,
      "hit": false,
      "t": 134053.21830000015,
      "d": 351.0639000000083,
      "v": 71
    },
    {
      "midi": 50,
      "hit": false,
      "t": 134494.70775000018,
      "d": 898.9363500000036,
      "v": 75
    },
    {
      "midi": 58,
      "hit": false,
      "t": 134691.51630000016,
      "d": 127.6596000000136,
      "v": 49
    },
    {
      "midi": 62,
      "hit": false,
      "t": 134691.51630000016,
      "d": 329.7873000000254,
      "v": 66
    },
    {
      "midi": 65,
      "hit": false,
      "t": 134691.51630000016,
      "d": 329.7873000000254,
      "v": 70
    },
    {
      "midi": 65,
      "hit": false,
      "t": 135085.1334000002,
      "d": 691.489499999996,
      "v": 77
    },
    {
      "midi": 62,
      "hit": false,
      "t": 135085.1334000002,
      "d": 707.4469499999832,
      "v": 59
    },
    {
      "midi": 58,
      "hit": false,
      "t": 135101.09085000018,
      "d": 723.4043999999994,
      "v": 49
    },
    {
      "midi": 38,
      "hit": false,
      "t": 135750.02715000018,
      "d": 744.6810000000114,
      "v": 68
    },
    {
      "midi": 74,
      "hit": false,
      "t": 135968.11230000018,
      "d": 500.00010000000475,
      "v": 65
    },
    {
      "midi": 67,
      "hit": false,
      "t": 136175.5591500002,
      "d": 345.7447500000126,
      "v": 75
    },
    {
      "midi": 62,
      "hit": false,
      "t": 136383.0060000002,
      "d": 191.4893999999913,
      "v": 64
    },
    {
      "midi": 65,
      "hit": false,
      "t": 136606.4103000002,
      "d": 1984.0429500000027,
      "v": 83
    },
    {
      "midi": 62,
      "hit": false,
      "t": 136606.4103000002,
      "d": 2005.3195500000147,
      "v": 78
    },
    {
      "midi": 70,
      "hit": false,
      "t": 136606.4103000002,
      "d": 2074.4685000000172,
      "v": 68
    },
    {
      "midi": 43,
      "hit": false,
      "t": 136606.4103000002,
      "d": 2122.340850000008,
      "v": 74
    },
    {
      "midi": 74,
      "hit": false,
      "t": 136622.36775000018,
      "d": 2090.4259500000335,
      "v": 49
    },
    {
      "midi": 79,
      "hit": false,
      "t": 136638.32520000017,
      "d": 2159.574900000036,
      "v": 61
    }
  ]
}