{
  "jsonPath": "Unknown/Unknown/Brazilian Tropical Orchestra/wishin-and-hopin.json",
  "path": "Unknown\\Unknown\\Brazilian Tropical Orchestra\\Wishin and Hopin.mid",
  "name": "Wishin and Hopin",
  "difficulty": "Advanced",
  "bpm": 104.99992125005906,
  "notes": [
    {
      "midi": 84,
      "hit": false,
      "t": 4571.432000000001,
      "d": 2123.8111166666667,
      "v": 61
    },
    {
      "midi": 48,
      "hit": false,
      "t": 4571.432000000001,
      "d": 4571.432000000001,
      "v": 60
    },
    {
      "midi": 55,
      "hit": false,
      "t": 5142.861,
      "d": 571.4290000000001,
      "v": 82
    },
    {
      "midi": 60,
      "hit": false,
      "t": 5142.861,
      "d": 571.4290000000001,
      "v": 82
    },
    {
      "midi": 64,
      "hit": false,
      "t": 5142.861,
      "d": 571.4290000000001,
      "v": 82
    },
    {
      "midi": 65,
      "hit": false,
      "t": 5714.29,
      "d": 285.71450000000004,
      "v": 82
    },
    {
      "midi": 64,
      "hit": false,
      "t": 6000.0045,
      "d": 571.4290000000001,
      "v": 82
    },
    {
      "midi": 62,
      "hit": false,
      "t": 6571.4335,
      "d": 142.85725000000002,
      "v": 82
    },
    {
      "midi": 65,
      "hit": false,
      "t": 6714.29075,
      "d": 142.85725000000002,
      "v": 82
    },
    {
      "midi": 55,
      "hit": false,
      "t": 6714.290750000001,
      "d": 2428.5732500000004,
      "v": 54
    },
    {
      "midi": 64,
      "hit": false,
      "t": 6857.148,
      "d": 1142.8580000000002,
      "v": 82
    },
    {
      "midi": 62,
      "hit": false,
      "t": 8000.006,
      "d": 285.71449999999913,
      "v": 82
    },
    {
      "midi": 60,
      "hit": false,
      "t": 8142.863250000001,
      "d": 528.571825,
      "v": 50
    },
    {
      "midi": 60,
      "hit": false,
      "t": 8285.7205,
      "d": 571.4290000000001,
      "v": 82
    },
    {
      "midi": 64,
      "hit": false,
      "t": 8285.720500000001,
      "d": 857.1435000000001,
      "v": 57
    },
    {
      "midi": 67,
      "hit": false,
      "t": 8571.435000000001,
      "d": 571.4290000000001,
      "v": 59
    },
    {
      "midi": 59,
      "hit": false,
      "t": 8857.1495,
      "d": 142.8572499999991,
      "v": 82
    },
    {
      "midi": 60,
      "hit": false,
      "t": 8857.149500000001,
      "d": 285.71450000000004,
      "v": 46
    },
    {
      "midi": 62,
      "hit": false,
      "t": 9000.006749999999,
      "d": 142.8572499999991,
      "v": 82
    },
    {
      "midi": 60,
      "hit": false,
      "t": 9142.863999999998,
      "d": 1142.8580000000002,
      "v": 82
    },
    {
      "midi": 84,
      "hit": false,
      "t": 9142.864000000001,
      "d": 2123.8111166666677,
      "v": 61
    },
    {
      "midi": 48,
      "hit": false,
      "t": 9142.864000000001,
      "d": 4571.432000000001,
      "v": 60
    },
    {
      "midi": 62,
      "hit": false,
      "t": 10285.721999999998,
      "d": 285.71450000000004,
      "v": 82
    },
    {
      "midi": 64,
      "hit": false,
      "t": 10571.436499999998,
      "d": 857.1435000000001,
      "v": 82
    },
    {
      "midi": 55,
      "hit": false,
      "t": 11285.722750000003,
      "d": 2428.5732499999995,
      "v": 54
    },
    {
      "midi": 59,
      "hit": false,
      "t": 12000.008999999998,
      "d": 571.4290000000001,
      "v": 70
    },
    {
      "midi": 65,
      "hit": false,
      "t": 12000.008999999998,
      "d": 571.4290000000001,
      "v": 70
    },
    {
      "midi": 67,
      "hit": false,
      "t": 12000.008999999998,
      "d": 571.4290000000001,
      "v": 70
    },
    {
      "midi": 60,
      "hit": false,
      "t": 12714.295250000003,
      "d": 528.5718249999991,
      "v": 50
    },
    {
      "midi": 64,
      "hit": false,
      "t": 12857.152500000002,
      "d": 857.1435000000001,
      "v": 57
    },
    {
      "midi": 65,
      "hit": false,
      "t": 13142.866999999998,
      "d": 571.4290000000001,
      "v": 70
    },
    {
      "midi": 67,
      "hit": false,
      "t": 13142.866999999998,
      "d": 571.4290000000001,
      "v": 70
    },
    {
      "midi": 67,
      "hit": false,
      "t": 13142.867000000002,
      "d": 571.4290000000001,
      "v": 59
    },
    {
      "midi": 60,
      "hit": false,
      "t": 13428.581500000002,
      "d": 285.71450000000004,
      "v": 46
    },
    {
      "midi": 64,
      "hit": false,
      "t": 13714.295999999998,
      "d": 142.8572499999991,
      "v": 82
    },
    {
      "midi": 48,
      "hit": false,
      "t": 13714.296000000002,
      "d": 1142.8580000000002,
      "v": 55
    },
    {
      "midi": 55,
      "hit": false,
      "t": 13714.296000000002,
      "d": 1142.8580000000002,
      "v": 47
    },
    {
      "midi": 60,
      "hit": false,
      "t": 13714.296000000002,
      "d": 1142.8580000000002,
      "v": 60
    },
    {
      "midi": 64,
      "hit": false,
      "t": 13714.296000000002,
      "d": 1142.8580000000002,
      "v": 53
    },
    {
      "midi": 67,
      "hit": false,
      "t": 13714.296000000002,
      "d": 1142.8580000000002,
      "v": 52
    },
    {
      "midi": 64,
      "hit": false,
      "t": 13857.153249999998,
      "d": 428.57174999999916,
      "v": 82
    },
    {
      "midi": 64,
      "hit": false,
      "t": 14571.439499999997,
      "d": 285.71450000000004,
      "v": 82
    },
    {
      "midi": 62,
      "hit": false,
      "t": 14857.153999999997,
      "d": 142.8572499999991,
      "v": 82
    },
    {
      "midi": 43,
      "hit": false,
      "t": 14857.154000000002,
      "d": 1142.8580000000002,
      "v": 55
    },
    {
      "midi": 59,
      "hit": false,
      "t": 14857.154000000002,
      "d": 1142.8580000000002,
      "v": 47
    },
    {
      "midi": 62,
      "hit": false,
      "t": 14857.154000000002,
      "d": 1142.8580000000002,
      "v": 60
    },
    {
      "midi": 67,
      "hit": false,
      "t": 14857.154000000002,
      "d": 1142.8580000000002,
      "v": 53
    },
    {
      "midi": 71,
      "hit": false,
      "t": 14857.154000000002,
      "d": 1142.8580000000002,
      "v": 52
    },
    {
      "midi": 62,
      "hit": false,
      "t": 15000.011249999996,
      "d": 428.57174999999916,
      "v": 82
    },
    {
      "midi": 62,
      "hit": false,
      "t": 15714.297499999995,
      "d": 285.71450000000004,
      "v": 82
    },
    {
      "midi": 60,
      "hit": false,
      "t": 16000.011999999995,
      "d": 142.8572499999991,
      "v": 82
    },
    {
      "midi": 60,
      "hit": false,
      "t": 16000.012000000002,
      "d": 838.0958666666666,
      "v": 47
    },
    {
      "midi": 65,
      "hit": false,
      "t": 16000.012000000002,
      "d": 1138.0960916666627,
      "v": 56
    },
    {
      "midi": 41,
      "hit": false,
      "t": 16000.012000000002,
      "d": 1142.8579999999965,
      "v": 57
    },
    {
      "midi": 69,
      "hit": false,
      "t": 16000.012000000002,
      "d": 1142.8579999999965,
      "v": 37
    },
    {
      "midi": 60,
      "hit": false,
      "t": 16142.869249999994,
      "d": 428.571750000001,
      "v": 82
    },
    {
      "midi": 57,
      "hit": false,
      "t": 16571.441000000003,
      "d": 504.76228333332983,
      "v": 32
    },
    {
      "midi": 60,
      "hit": false,
      "t": 16857.155499999993,
      "d": 285.7144999999982,
      "v": 82
    },
    {
      "midi": 60,
      "hit": false,
      "t": 16857.1555,
      "d": 280.9525916666644,
      "v": 49
    },
    {
      "midi": 62,
      "hit": false,
      "t": 17142.86999999999,
      "d": 142.85725000000093,
      "v": 82
    },
    {
      "midi": 43,
      "hit": false,
      "t": 17142.87,
      "d": 1142.8580000000002,
      "v": 55
    },
    {
      "midi": 59,
      "hit": false,
      "t": 17142.87,
      "d": 1142.8580000000002,
      "v": 47
    },
    {
      "midi": 62,
      "hit": false,
      "t": 17142.87,
      "d": 1142.8580000000002,
      "v": 60
    },
    {
      "midi": 67,
      "hit": false,
      "t": 17142.87,
      "d": 1142.8580000000002,
      "v": 53
    },
    {
      "midi": 71,
      "hit": false,
      "t": 17142.87,
      "d": 1142.8580000000002,
      "v": 52
    },
    {
      "midi": 62,
      "hit": false,
      "t": 17285.727249999993,
      "d": 428.57174999999916,
      "v": 82
    },
    {
      "midi": 64,
      "hit": false,
      "t": 18285.727999999992,
      "d": 142.85725000000093,
      "v": 82
    },
    {
      "midi": 48,
      "hit": false,
      "t": 18285.728,
      "d": 1142.8580000000002,
      "v": 55
    },
    {
      "midi": 55,
      "hit": false,
      "t": 18285.728,
      "d": 1142.8580000000002,
      "v": 47
    },
    {
      "midi": 60,
      "hit": false,
      "t": 18285.728,
      "d": 1142.8580000000002,
      "v": 60
    },
    {
      "midi": 64,
      "hit": false,
      "t": 18285.728,
      "d": 1142.8580000000002,
      "v": 53
    },
    {
      "midi": 67,
      "hit": false,
      "t": 18285.728,
      "d": 1142.8580000000002,
      "v": 52
    },
    {
      "midi": 64,
      "hit": false,
      "t": 18428.585249999993,
      "d": 428.57174999999916,
      "v": 82
    },
    {
      "midi": 64,
      "hit": false,
      "t": 19142.87149999999,
      "d": 285.7144999999982,
      "v": 82
    },
    {
      "midi": 62,
      "hit": false,
      "t": 19428.58599999999,
      "d": 142.85725000000093,
      "v": 82
    },
    {
      "midi": 62,
      "hit": false,
      "t": 19428.586,
      "d": 838.0958666666666,
      "v": 47
    },
    {
      "midi": 67,
      "hit": false,
      "t": 19428.586,
      "d": 1138.0960916666627,
      "v": 56
    },
    {
      "midi": 43,
      "hit": false,
      "t": 19428.586,
      "d": 1142.8579999999965,
      "v": 57
    },
    {
      "midi": 71,
      "hit": false,
      "t": 19428.586,
      "d": 1142.8579999999965,
      "v": 37
    },
    {
      "midi": 62,
      "hit": false,
      "t": 19571.44324999999,
      "d": 428.57174999999916,
      "v": 82
    },
    {
      "midi": 59,
      "hit": false,
      "t": 20000.015,
      "d": 504.76228333332983,
      "v": 32
    },
    {
      "midi": 62,
      "hit": false,
      "t": 20285.729499999987,
      "d": 285.7144999999982,
      "v": 82
    },
    {
      "midi": 62,
      "hit": false,
      "t": 20285.729499999998,
      "d": 280.9525916666644,
      "v": 49
    },
    {
      "midi": 57,
      "hit": false,
      "t": 20571.443999999985,
      "d": 285.7144999999982,
      "v": 82
    },
    {
      "midi": 60,
      "hit": false,
      "t": 20571.443999999985,
      "d": 285.7144999999982,
      "v": 82
    },
    {
      "midi": 65,
      "hit": false,
      "t": 20571.443999999985,
      "d": 285.7144999999982,
      "v": 82
    },
    {
      "midi": 69,
      "hit": false,
      "t": 20571.443999999996,
      "d": 33.33335833333331,
      "v": 66
    },
    {
      "midi": 65,
      "hit": false,
      "t": 20571.443999999996,
      "d": 1585.7154749999972,
      "v": 64
    },
    {
      "midi": 41,
      "hit": false,
      "t": 20571.443999999996,
      "d": 2285.7159999999967,
      "v": 53
    },
    {
      "midi": 60,
      "hit": false,
      "t": 20571.443999999996,
      "d": 2285.7159999999967,
      "v": 52
    },
    {
      "midi": 57,
      "hit": false,
      "t": 20857.158499999983,
      "d": 571.4290000000001,
      "v": 82
    },
    {
      "midi": 60,
      "hit": false,
      "t": 20857.158499999983,
      "d": 571.4290000000001,
      "v": 82
    },
    {
      "midi": 65,
      "hit": false,
      "t": 20857.158499999983,
      "d": 571.4290000000001,
      "v": 82
    },
    {
      "midi": 60,
      "hit": false,
      "t": 21428.587499999983,
      "d": 285.7144999999982,
      "v": 82
    },
    {
      "midi": 57,
      "hit": false,
      "t": 21714.30199999998,
      "d": 2000.0014999999985,
      "v": 82
    },
    {
      "midi": 60,
      "hit": false,
      "t": 21714.30199999998,
      "d": 2000.0014999999985,
      "v": 82
    },
    {
      "midi": 65,
      "hit": false,
      "t": 21714.30199999998,
      "d": 2000.0014999999985,
      "v": 82
    },
    {
      "midi": 57,
      "hit": false,
      "t": 22000.016499999994,
      "d": 857.1434999999983,
      "v": 66
    },
    {
      "midi": 65,
      "hit": false,
      "t": 22285.730999999992,
      "d": 571.4290000000001,
      "v": 58
    },
    {
      "midi": 69,
      "hit": false,
      "t": 22571.44549999999,
      "d": 280.952591666668,
      "v": 82
    },
    {
      "midi": 60,
      "hit": false,
      "t": 22857.159999999993,
      "d": 1480.9534916666635,
      "v": 55
    },
    {
      "midi": 65,
      "hit": false,
      "t": 22857.159999999993,
      "d": 1571.4297499999957,
      "v": 78
    },
    {
      "midi": 69,
      "hit": false,
      "t": 22857.159999999993,
      "d": 1571.4297499999957,
      "v": 54
    },
    {
      "midi": 41,
      "hit": false,
      "t": 22857.159999999993,
      "d": 2285.7159999999967,
      "v": 72
    },
    {
      "midi": 60,
      "hit": false,
      "t": 23714.30349999998,
      "d": 285.7144999999982,
      "v": 82
    },
    {
      "midi": 57,
      "hit": false,
      "t": 24000.01799999998,
      "d": 380.95266666666794,
      "v": 82
    },
    {
      "midi": 60,
      "hit": false,
      "t": 24000.01799999998,
      "d": 380.95266666666794,
      "v": 82
    },
    {
      "midi": 65,
      "hit": false,
      "t": 24000.01799999998,
      "d": 380.95266666666794,
      "v": 82
    },
    {
      "midi": 57,
      "hit": false,
      "t": 24285.73249999999,
      "d": 819.0482333333312,
      "v": 63
    },
    {
      "midi": 67,
      "hit": false,
      "t": 24380.970666666646,
      "d": 380.95266666666794,
      "v": 82
    },
    {
      "midi": 60,
      "hit": false,
      "t": 24442.87547499999,
      "d": 642.8576250000006,
      "v": 53
    },
    {
      "midi": 65,
      "hit": false,
      "t": 24571.44699999999,
      "d": 480.95274166666786,
      "v": 59
    },
    {
      "midi": 69,
      "hit": false,
      "t": 24714.30424999999,
      "d": 309.5240416666675,
      "v": 58
    },
    {
      "midi": 69,
      "hit": false,
      "t": 24761.923333333314,
      "d": 380.95266666666794,
      "v": 82
    },
    {
      "midi": 59,
      "hit": false,
      "t": 25142.875999999982,
      "d": 285.7144999999982,
      "v": 82
    },
    {
      "midi": 65,
      "hit": false,
      "t": 25142.875999999982,
      "d": 285.7144999999982,
      "v": 82
    },
    {
      "midi": 69,
      "hit": false,
      "t": 25142.875999999982,
      "d": 285.7144999999982,
      "v": 82
    },
    {
      "midi": 59,
      "hit": false,
      "t": 25142.87599999999,
      "d": 471.4289249999965,
      "v": 45
    },
    {
      "midi": 62,
      "hit": false,
      "t": 25142.87599999999,
      "d": 595.2385416666621,
      "v": 55
    },
    {
      "midi": 65,
      "hit": false,
      "t": 25142.87599999999,
      "d": 819.0482333333275,
      "v": 58
    },
    {
      "midi": 67,
      "hit": false,
      "t": 25142.87599999999,
      "d": 842.8577749999931,
      "v": 56
    },
    {
      "midi": 43,
      "hit": false,
      "t": 25142.87599999999,
      "d": 2247.6207333333296,
      "v": 63
    },
    {
      "midi": 67,
      "hit": false,
      "t": 25428.59049999998,
      "d": 571.4290000000001,
      "v": 82
    },
    {
      "midi": 55,
      "hit": false,
      "t": 25428.590499999988,
      "d": 928.5721249999951,
      "v": 57
    },
    {
      "midi": 59,
      "hit": false,
      "t": 25738.11454166665,
      "d": 1047.6198333333305,
      "v": 55
    },
    {
      "midi": 62,
      "hit": false,
      "t": 26000.01949999998,
      "d": 285.7144999999982,
      "v": 82
    },
    {
      "midi": 62,
      "hit": false,
      "t": 26000.019499999984,
      "d": 590.4766333333318,
      "v": 41
    },
    {
      "midi": 59,
      "hit": false,
      "t": 26285.73399999998,
      "d": 1714.2870000000003,
      "v": 82
    },
    {
      "midi": 65,
      "hit": false,
      "t": 26285.73399999998,
      "d": 1714.2870000000003,
      "v": 82
    },
    {
      "midi": 67,
      "hit": false,
      "t": 26285.73399999998,
      "d": 1714.2870000000003,
      "v": 82
    },
    {
      "midi": 65,
      "hit": false,
      "t": 26285.733999999982,
      "d": 395.23839166666585,
      "v": 56
    },
    {
      "midi": 55,
      "hit": false,
      "t": 26571.448499999984,
      "d": 523.8099166666652,
      "v": 52
    },
    {
      "midi": 59,
      "hit": false,
      "t": 26857.162999999982,
      "d": 323.809766666669,
      "v": 10
    },
    {
      "midi": 65,
      "hit": false,
      "t": 26857.162999999982,
      "d": 323.809766666669,
      "v": 45
    },
    {
      "midi": 67,
      "hit": false,
      "t": 27142.877499999984,
      "d": 176.19060833333424,
      "v": 87
    },
    {
      "midi": 59,
      "hit": false,
      "t": 27428.591999999986,
      "d": 471.4289249999965,
      "v": 45
    },
    {
      "midi": 62,
      "hit": false,
      "t": 27428.591999999986,
      "d": 595.2385416666621,
      "v": 55
    },
    {
      "midi": 65,
      "hit": false,
      "t": 27428.591999999986,
      "d": 819.0482333333275,
      "v": 58
    },
    {
      "midi": 67,
      "hit": false,
      "t": 27428.591999999986,
      "d": 842.8577749999931,
      "v": 56
    },
    {
      "midi": 43,
      "hit": false,
      "t": 27428.591999999986,
      "d": 2247.6207333333296,
      "v": 63
    },
    {
      "midi": 55,
      "hit": false,
      "t": 27714.306499999984,
      "d": 928.5721249999951,
      "v": 57
    },
    {
      "midi": 59,
      "hit": false,
      "t": 28023.830541666648,
      "d": 1047.6198333333305,
      "v": 55
    },
    {
      "midi": 67,
      "hit": false,
      "t": 28285.735499999977,
      "d": 285.7144999999982,
      "v": 82
    },
    {
      "midi": 62,
      "hit": false,
      "t": 28285.73549999998,
      "d": 590.4766333333318,
      "v": 41
    },
    {
      "midi": 69,
      "hit": false,
      "t": 28571.449999999975,
      "d": 571.4290000000001,
      "v": 82
    },
    {
      "midi": 65,
      "hit": false,
      "t": 28571.44999999998,
      "d": 395.23839166666585,
      "v": 56
    },
    {
      "midi": 55,
      "hit": false,
      "t": 28857.16449999998,
      "d": 523.8099166666652,
      "v": 52
    },
    {
      "midi": 71,
      "hit": false,
      "t": 29142.878999999975,
      "d": 571.4290000000001,
      "v": 82
    },
    {
      "midi": 59,
      "hit": false,
      "t": 29142.87899999998,
      "d": 323.809766666669,
      "v": 10
    },
    {
      "midi": 65,
      "hit": false,
      "t": 29142.87899999998,
      "d": 323.809766666669,
      "v": 45
    },
    {
      "midi": 67,
      "hit": false,
      "t": 29428.59349999998,
      "d": 176.19060833333424,
      "v": 87
    },
    {
      "midi": 71,
      "hit": false,
      "t": 29714.307999999975,
      "d": 142.85725000000093,
      "v": 82
    },
    {
      "midi": 67,
      "hit": false,
      "t": 29714.307999999983,
      "d": 33.33335833333331,
      "v": 66
    },
    {
      "midi": 64,
      "hit": false,
      "t": 29714.307999999983,
      "d": 1585.7154749999972,
      "v": 64
    },
    {
      "midi": 40,
      "hit": false,
      "t": 29714.307999999983,
      "d": 2285.7159999999967,
      "v": 53
    },
    {
      "midi": 59,
      "hit": false,
      "t": 29714.307999999983,
      "d": 2285.7159999999967,
      "v": 52
    },
    {
      "midi": 71,
      "hit": false,
      "t": 29857.165249999976,
      "d": 285.7144999999982,
      "v": 82
    },
    {
      "midi": 71,
      "hit": false,
      "t": 30142.879749999975,
      "d": 142.85725000000093,
      "v": 82
    },
    {
      "midi": 71,
      "hit": false,
      "t": 30285.736999999976,
      "d": 571.4290000000001,
      "v": 82
    },
    {
      "midi": 64,
      "hit": false,
      "t": 30857.165999999976,
      "d": 1142.8580000000002,
      "v": 82
    },
    {
      "midi": 55,
      "hit": false,
      "t": 31142.88049999998,
      "d": 857.1434999999983,
      "v": 66
    },
    {
      "midi": 64,
      "hit": false,
      "t": 31428.59499999998,
      "d": 571.4290000000001,
      "v": 58
    },
    {
      "midi": 67,
      "hit": false,
      "t": 31714.309499999978,
      "d": 280.952591666668,
      "v": 82
    },
    {
      "midi": 71,
      "hit": false,
      "t": 32000.023999999976,
      "d": 1142.8580000000002,
      "v": 82
    },
    {
      "midi": 59,
      "hit": false,
      "t": 32000.02399999998,
      "d": 433.333658333333,
      "v": 52
    },
    {
      "midi": 64,
      "hit": false,
      "t": 32000.02399999998,
      "d": 580.9528166666678,
      "v": 59
    },
    {
      "midi": 40,
      "hit": false,
      "t": 32000.02399999998,
      "d": 1142.8580000000038,
      "v": 72
    },
    {
      "midi": 56,
      "hit": false,
      "t": 32285.738499999978,
      "d": 857.1435000000056,
      "v": 57
    },
    {
      "midi": 59,
      "hit": false,
      "t": 32571.45299999998,
      "d": 566.6670916666699,
      "v": 55
    },
    {
      "midi": 68,
      "hit": false,
      "t": 32857.16749999998,
      "d": 257.14304999999877,
      "v": 62
    },
    {
      "midi": 64,
      "hit": false,
      "t": 33142.881999999976,
      "d": 1142.8580000000002,
      "v": 82
    },
    {
      "midi": 56,
      "hit": false,
      "t": 33142.88199999998,
      "d": 433.33365833333664,
      "v": 52
    },
    {
      "midi": 59,
      "hit": false,
      "t": 33142.88199999998,
      "d": 580.9528166666714,
      "v": 59
    },
    {
      "midi": 40,
      "hit": false,
      "t": 33142.88199999998,
      "d": 1142.8580000000075,
      "v": 72
    },
    {
      "midi": 52,
      "hit": false,
      "t": 33428.596499999985,
      "d": 857.1435000000056,
      "v": 57
    },
    {
      "midi": 56,
      "hit": false,
      "t": 33714.31099999999,
      "d": 566.6670916666699,
      "v": 55
    },
    {
      "midi": 62,
      "hit": false,
      "t": 34000.02549999999,
      "d": 257.14304999999877,
      "v": 62
    },
    {
      "midi": 72,
      "hit": false,
      "t": 34285.739999999976,
      "d": 2571.430500000002,
      "v": 82
    },
    {
      "midi": 52,
      "hit": false,
      "t": 34285.73999999999,
      "d": 1704.7631833333362,
      "v": 39
    },
    {
      "midi": 57,
      "hit": false,
      "t": 34285.73999999999,
      "d": 1871.4299750000064,
      "v": 58
    },
    {
      "midi": 60,
      "hit": false,
      "t": 34285.73999999999,
      "d": 1947.6205083333407,
      "v": 60
    },
    {
      "midi": 45,
      "hit": false,
      "t": 34285.73999999999,
      "d": 2285.7160000000076,
      "v": 48
    },
    {
      "midi": 64,
      "hit": false,
      "t": 34285.73999999999,
      "d": 2285.7160000000076,
      "v": 59
    },
    {
      "midi": 52,
      "hit": false,
      "t": 36142.884249999996,
      "d": 428.5717500000028,
      "v": 57
    },
    {
      "midi": 57,
      "hit": false,
      "t": 36285.7415,
      "d": 285.71450000000186,
      "v": 45
    },
    {
      "midi": 60,
      "hit": false,
      "t": 36428.59875,
      "d": 142.85725000000093,
      "v": 68
    },
    {
      "midi": 45,
      "hit": false,
      "t": 36571.456,
      "d": 1142.8580000000002,
      "v": 55
    },
    {
      "midi": 52,
      "hit": false,
      "t": 36571.456,
      "d": 1142.8580000000002,
      "v": 47
    },
    {
      "midi": 57,
      "hit": false,
      "t": 36571.456,
      "d": 1142.8580000000002,
      "v": 60
    },
    {
      "midi": 60,
      "hit": false,
      "t": 36571.456,
      "d": 1142.8580000000002,
      "v": 53
    },
    {
      "midi": 64,
      "hit": false,
      "t": 36571.456,
      "d": 1142.8580000000002,
      "v": 52
    },
    {
      "midi": 69,
      "hit": false,
      "t": 37142.88499999998,
      "d": 285.71450000000186,
      "v": 82
    },
    {
      "midi": 69,
      "hit": false,
      "t": 37428.59949999998,
      "d": 285.71450000000186,
      "v": 82
    },
    {
      "midi": 63,
      "hit": false,
      "t": 37714.313999999984,
      "d": 142.85725000000093,
      "v": 82
    },
    {
      "midi": 41,
      "hit": false,
      "t": 37714.314,
      "d": 1142.8580000000002,
      "v": 55
    },
    {
      "midi": 56,
      "hit": false,
      "t": 37714.314,
      "d": 1142.8580000000002,
      "v": 47
    },
    {
      "midi": 60,
      "hit": false,
      "t": 37714.314,
      "d": 1142.8580000000002,
      "v": 60
    },
    {
      "midi": 65,
      "hit": false,
      "t": 37714.314,
      "d": 1142.8580000000002,
      "v": 53
    },
    {
      "midi": 68,
      "hit": false,
      "t": 37714.314,
      "d": 1142.8580000000002,
      "v": 52
    },
    {
      "midi": 62,
      "hit": false,
      "t": 37857.171249999985,
      "d": 142.85725000000093,
      "v": 82
    },
    {
      "midi": 60,
      "hit": false,
      "t": 38000.028499999986,
      "d": 571.4289999999964,
      "v": 82
    },
    {
      "midi": 62,
      "hit": false,
      "t": 38571.45749999998,
      "d": 285.71450000000186,
      "v": 82
    },
    {
      "midi": 64,
      "hit": false,
      "t": 38857.171999999984,
      "d": 142.85725000000093,
      "v": 82
    },
    {
      "midi": 48,
      "hit": false,
      "t": 38857.172,
      "d": 1142.8580000000002,
      "v": 55
    },
    {
      "midi": 55,
      "hit": false,
      "t": 38857.172,
      "d": 1142.8580000000002,
      "v": 47
    },
    {
      "midi": 60,
      "hit": false,
      "t": 38857.172,
      "d": 1142.8580000000002,
      "v": 60
    },
    {
      "midi": 64,
      "hit": false,
      "t": 38857.172,
      "d": 1142.8580000000002,
      "v": 53
    },
    {
      "midi": 67,
      "hit": false,
      "t": 38857.172,
      "d": 1142.8580000000002,
      "v": 52
    },
    {
      "midi": 64,
      "hit": false,
      "t": 39000.029249999985,
      "d": 428.5717500000028,
      "v": 82
    },
    {
      "midi": 64,
      "hit": false,
      "t": 39714.31549999999,
      "d": 285.71450000000186,
      "v": 82
    },
    {
      "midi": 62,
      "hit": false,
      "t": 40000.02999999999,
      "d": 142.85725000000093,
      "v": 82
    },
    {
      "midi": 43,
      "hit": false,
      "t": 40000.03,
      "d": 1142.8580000000002,
      "v": 55
    },
    {
      "midi": 59,
      "hit": false,
      "t": 40000.03,
      "d": 1142.8580000000002,
      "v": 47
    },
    {
      "midi": 62,
      "hit": false,
      "t": 40000.03,
      "d": 1142.8580000000002,
      "v": 60
    },
    {
      "midi": 67,
      "hit": false,
      "t": 40000.03,
      "d": 1142.8580000000002,
      "v": 53
    },
    {
      "midi": 71,
      "hit": false,
      "t": 40000.03,
      "d": 1142.8580000000002,
      "v": 52
    },
    {
      "midi": 62,
      "hit": false,
      "t": 40142.88724999999,
      "d": 428.5717500000028,
      "v": 82
    },
    {
      "midi": 62,
      "hit": false,
      "t": 40857.1735,
      "d": 285.71450000000186,
      "v": 82
    },
    {
      "midi": 41,
      "hit": false,
      "t": 41142.888,
      "d": 1142.8580000000002,
      "v": 55
    },
    {
      "midi": 57,
      "hit": false,
      "t": 41142.888,
      "d": 1142.8580000000002,
      "v": 47
    },
    {
      "midi": 60,
      "hit": false,
      "t": 41142.888,
      "d": 1142.8580000000002,
      "v": 60
    },
    {
      "midi": 65,
      "hit": false,
      "t": 41142.888,
      "d": 1142.8580000000002,
      "v": 53
    },
    {
      "midi": 69,
      "hit": false,
      "t": 41142.888,
      "d": 1142.8580000000002,
      "v": 52
    },
    {
      "midi": 60,
      "hit": false,
      "t": 41142.888,
      "d": 142.85725000000093,
      "v": 82
    },
    {
      "midi": 60,
      "hit": false,
      "t": 41285.74525,
      "d": 428.5717500000028,
      "v": 82
    },
    {
      "midi": 60,
      "hit": false,
      "t": 42000.031500000005,
      "d": 285.71450000000186,
      "v": 82
    },
    {
      "midi": 62,
      "hit": false,
      "t": 42285.746,
      "d": 433.33365833333664,
      "v": 52
    },
    {
      "midi": 67,
      "hit": false,
      "t": 42285.746,
      "d": 580.9528166666714,
      "v": 59
    },
    {
      "midi": 43,
      "hit": false,
      "t": 42285.746,
      "d": 1142.8580000000075,
      "v": 72
    },
    {
      "midi": 60,
      "hit": false,
      "t": 42285.74600000001,
      "d": 142.85725000000093,
      "v": 82
    },
    {
      "midi": 64,
      "hit": false,
      "t": 42285.74600000001,
      "d": 142.85725000000093,
      "v": 82
    },
    {
      "midi": 59,
      "hit": false,
      "t": 42428.60325000001,
      "d": 428.5717500000028,
      "v": 82
    },
    {
      "midi": 62,
      "hit": false,
      "t": 42428.60325000001,
      "d": 428.5717500000028,
      "v": 82
    },
    {
      "midi": 59,
      "hit": false,
      "t": 42571.4605,
      "d": 857.1435000000056,
      "v": 57
    },
    {
      "midi": 62,
      "hit": false,
      "t": 42857.175,
      "d": 566.6670916666699,
      "v": 55
    },
    {
      "midi": 57,
      "hit": false,
      "t": 42857.17500000001,
      "d": 285.71450000000186,
      "v": 82
    },
    {
      "midi": 60,
      "hit": false,
      "t": 42857.17500000001,
      "d": 285.71450000000186,
      "v": 82
    },
    {
      "midi": 71,
      "hit": false,
      "t": 43142.889500000005,
      "d": 257.14304999999877,
      "v": 62
    },
    {
      "midi": 59,
      "hit": false,
      "t": 43142.88950000001,
      "d": 285.71450000000186,
      "v": 82
    },
    {
      "midi": 62,
      "hit": false,
      "t": 43142.88950000001,
      "d": 285.71450000000186,
      "v": 82
    },
    {
      "midi": 60,
      "hit": false,
      "t": 43428.60400000001,
      "d": 838.0958666666629,
      "v": 47
    },
    {
      "midi": 64,
      "hit": false,
      "t": 43428.60400000001,
      "d": 1138.0960916666663,
      "v": 56
    },
    {
      "midi": 48,
      "hit": false,
      "t": 43428.60400000001,
      "d": 1142.8580000000002,
      "v": 57
    },
    {
      "midi": 67,
      "hit": false,
      "t": 43428.60400000001,
      "d": 1142.8580000000002,
      "v": 37
    },
    {
      "midi": 60,
      "hit": false,
      "t": 43428.604000000014,
      "d": 2285.7160000000003,
      "v": 82
    },
    {
      "midi": 55,
      "hit": false,
      "t": 44000.033,
      "d": 504.7622833333371,
      "v": 32
    },
    {
      "midi": 60,
      "hit": false,
      "t": 44285.747500000005,
      "d": 280.952591666668,
      "v": 49
    },
    {
      "midi": 60,
      "hit": false,
      "t": 44571.46200000001,
      "d": 838.0958666666629,
      "v": 47
    },
    {
      "midi": 65,
      "hit": false,
      "t": 44571.46200000001,
      "d": 1138.0960916666663,
      "v": 56
    },
    {
      "midi": 41,
      "hit": false,
      "t": 44571.46200000001,
      "d": 1142.8580000000002,
      "v": 57
    },
    {
      "midi": 69,
      "hit": false,
      "t": 44571.46200000001,
      "d": 1142.8580000000002,
      "v": 37
    },
    {
      "midi": 57,
      "hit": false,
      "t": 45142.891,
      "d": 504.7622833333371,
      "v": 32
    },
    {
      "midi": 60,
      "hit": false,
      "t": 45428.605500000005,
      "d": 280.952591666668,
      "v": 49
    },
    {
      "midi": 67,
      "hit": false,
      "t": 45714.32000000001,
      "d": 33.333358333336946,
      "v": 66
    },
    {
      "midi": 64,
      "hit": false,
      "t": 45714.32000000001,
      "d": 1585.7154750000045,
      "v": 64
    },
    {
      "midi": 48,
      "hit": false,
      "t": 45714.32000000001,
      "d": 2285.7160000000076,
      "v": 53
    },
    {
      "midi": 60,
      "hit": false,
      "t": 45714.32000000001,
      "d": 2285.7160000000076,
      "v": 52
    },
    {
      "midi": 72,
      "hit": false,
      "t": 46857.178000000014,
      "d": 285.71450000000186,
      "v": 82
    },
    {
      "midi": 55,
      "hit": false,
      "t": 47142.89250000001,
      "d": 857.1435000000056,
      "v": 66
    },
    {
      "midi": 67,
      "hit": false,
      "t": 47142.892500000016,
      "d": 285.71450000000186,
      "v": 82
    },
    {
      "midi": 64,
      "hit": false,
      "t": 47428.60700000001,
      "d": 571.4290000000037,
      "v": 58
    },
    {
      "midi": 69,
      "hit": false,
      "t": 47428.60700000002,
      "d": 285.71450000000186,
      "v": 82
    },
    {
      "midi": 67,
      "hit": false,
      "t": 47714.32150000001,
      "d": 280.952591666668,
      "v": 82
    },
    {
      "midi": 67,
      "hit": false,
      "t": 47714.32150000002,
      "d": 285.71450000000186,
      "v": 82
    },
    {
      "midi": 62,
      "hit": false,
      "t": 48000.036000000015,
      "d": 471.42892500000016,
      "v": 45
    },
    {
      "midi": 67,
      "hit": false,
      "t": 48000.036000000015,
      "d": 595.238541666673,
      "v": 55
    },
    {
      "midi": 71,
      "hit": false,
      "t": 48000.036000000015,
      "d": 819.0482333333421,
      "v": 58
    },
    {
      "midi": 43,
      "hit": false,
      "t": 48000.036000000015,
      "d": 2247.620733333344,
      "v": 63
    },
    {
      "midi": 71,
      "hit": false,
      "t": 48000.03600000002,
      "d": 1142.8580000000002,
      "v": 82
    },
    {
      "midi": 59,
      "hit": false,
      "t": 48285.75050000002,
      "d": 928.572125000006,
      "v": 57
    },
    {
      "midi": 62,
      "hit": false,
      "t": 48595.27454166669,
      "d": 1047.6198333333377,
      "v": 55
    },
    {
      "midi": 67,
      "hit": false,
      "t": 48857.17950000002,
      "d": 590.4766333333391,
      "v": 41
    },
    {
      "midi": 71,
      "hit": false,
      "t": 49142.89400000002,
      "d": 395.2383916666731,
      "v": 56
    },
    {
      "midi": 67,
      "hit": false,
      "t": 49142.89400000002,
      "d": 285.71450000000186,
      "v": 82
    },
    {
      "midi": 59,
      "hit": false,
      "t": 49428.608500000024,
      "d": 523.8099166666652,
      "v": 52
    },
    {
      "midi": 69,
      "hit": false,
      "t": 49428.608500000024,
      "d": 571.4289999999964,
      "v": 82
    },
    {
      "midi": 62,
      "hit": false,
      "t": 49714.323000000026,
      "d": 323.8097666666654,
      "v": 10
    },
    {
      "midi": 71,
      "hit": false,
      "t": 49714.323000000026,
      "d": 323.8097666666654,
      "v": 45
    },
    {
      "midi": 62,
      "hit": false,
      "t": 50000.03750000002,
      "d": 857.1434999999983,
      "v": 82
    },
    {
      "midi": 62,
      "hit": false,
      "t": 50285.75200000002,
      "d": 471.42892500000016,
      "v": 45
    },
    {
      "midi": 67,
      "hit": false,
      "t": 50285.75200000002,
      "d": 595.238541666673,
      "v": 55
    },
    {
      "midi": 71,
      "hit": false,
      "t": 50285.75200000002,
      "d": 819.0482333333421,
      "v": 58
    },
    {
      "midi": 43,
      "hit": false,
      "t": 50285.75200000002,
      "d": 2247.620733333344,
      "v": 63
    },
    {
      "midi": 59,
      "hit": false,
      "t": 50571.466500000024,
      "d": 928.572125000006,
      "v": 57
    },
    {
      "midi": 62,
      "hit": false,
      "t": 50880.990541666695,
      "d": 1047.6198333333377,
      "v": 55
    },
    {
      "midi": 67,
      "hit": false,
      "t": 51142.89550000003,
      "d": 590.4766333333391,
      "v": 41
    },
    {
      "midi": 67,
      "hit": false,
      "t": 51428.610000000015,
      "d": 285.71450000000186,
      "v": 82
    },
    {
      "midi": 71,
      "hit": false,
      "t": 51428.61000000003,
      "d": 395.2383916666731,
      "v": 56
    },
    {
      "midi": 69,
      "hit": false,
      "t": 51714.32450000002,
      "d": 571.4289999999964,
      "v": 82
    },
    {
      "midi": 59,
      "hit": false,
      "t": 51714.32450000003,
      "d": 523.8099166666652,
      "v": 52
    },
    {
      "midi": 62,
      "hit": false,
      "t": 52000.03900000003,
      "d": 323.8097666666654,
      "v": 10
    },
    {
      "midi": 71,
      "hit": false,
      "t": 52000.03900000003,
      "d": 323.8097666666654,
      "v": 45
    },
    {
      "midi": 72,
      "hit": false,
      "t": 52285.75350000001,
      "d": 857.1434999999983,
      "v": 82
    },
    {
      "midi": 67,
      "hit": false,
      "t": 52571.46800000003,
      "d": 966.6673916666623,
      "v": 51
    },
    {
      "midi": 60,
      "hit": false,
      "t": 52571.46800000003,
      "d": 980.9531166666638,
      "v": 51
    },
    {
      "midi": 48,
      "hit": false,
      "t": 52571.46800000003,
      "d": 2285.7160000000003,
      "v": 52
    },
    {
      "midi": 55,
      "hit": false,
      "t": 53428.61150000003,
      "d": 1428.572500000002,
      "v": 46
    },
    {
      "midi": 69,
      "hit": false,
      "t": 53714.32600000001,
      "d": 285.71450000000186,
      "v": 82
    },
    {
      "midi": 60,
      "hit": false,
      "t": 53714.32600000003,
      "d": 1142.8580000000002,
      "v": 43
    },
    {
      "midi": 67,
      "hit": false,
      "t": 53714.32600000003,
      "d": 1142.8580000000002,
      "v": 51
    },
    {
      "midi": 67,
      "hit": false,
      "t": 54000.04050000001,
      "d": 285.71450000000186,
      "v": 82
    },
    {
      "midi": 64,
      "hit": false,
      "t": 54285.75500000001,
      "d": 285.71450000000186,
      "v": 82
    },
    {
      "midi": 60,
      "hit": false,
      "t": 54571.469500000014,
      "d": 857.1434999999983,
      "v": 82
    },
    {
      "midi": 55,
      "hit": false,
      "t": 54857.18400000003,
      "d": 1704.7631833333362,
      "v": 39
    },
    {
      "midi": 60,
      "hit": false,
      "t": 54857.18400000003,
      "d": 1871.4299750000064,
      "v": 58
    },
    {
      "midi": 64,
      "hit": false,
      "t": 54857.18400000003,
      "d": 1947.6205083333407,
      "v": 60
    },
    {
      "midi": 48,
      "hit": false,
      "t": 54857.18400000003,
      "d": 2285.7160000000076,
      "v": 48
    },
    {
      "midi": 67,
      "hit": false,
      "t": 54857.18400000003,
      "d": 2285.7160000000076,
      "v": 59
    },
    {
      "midi": 60,
      "hit": false,
      "t": 56000.04200000001,
      "d": 285.71450000000186,
      "v": 82
    },
    {
      "midi": 64,
      "hit": false,
      "t": 56000.04200000001,
      "d": 285.71450000000186,
      "v": 82
    },
    {
      "midi": 67,
      "hit": false,
      "t": 56000.04200000001,
      "d": 285.71450000000186,
      "v": 82
    },
    {
      "midi": 60,
      "hit": false,
      "t": 56285.75650000001,
      "d": 571.4289999999964,
      "v": 82
    },
    {
      "midi": 64,
      "hit": false,
      "t": 56285.75650000001,
      "d": 571.4289999999964,
      "v": 82
    },
    {
      "midi": 69,
      "hit": false,
      "t": 56285.75650000001,
      "d": 571.4289999999964,
      "v": 82
    },
    {
      "midi": 55,
      "hit": false,
      "t": 56714.328250000035,
      "d": 428.5717500000028,
      "v": 57
    },
    {
      "midi": 71,
      "hit": false,
      "t": 56857.18550000001,
      "d": 857.1434999999983,
      "v": 82
    },
    {
      "midi": 60,
      "hit": false,
      "t": 56857.185500000036,
      "d": 285.71450000000186,
      "v": 45
    },
    {
      "midi": 64,
      "hit": false,
      "t": 57000.04275000004,
      "d": 142.85725000000093,
      "v": 68
    },
    {
      "midi": 62,
      "hit": false,
      "t": 57142.90000000004,
      "d": 1480.953491666667,
      "v": 55
    },
    {
      "midi": 67,
      "hit": false,
      "t": 57142.90000000004,
      "d": 1571.429750000003,
      "v": 78
    },
    {
      "midi": 71,
      "hit": false,
      "t": 57142.90000000004,
      "d": 1571.429750000003,
      "v": 54
    },
    {
      "midi": 43,
      "hit": false,
      "t": 57142.90000000004,
      "d": 2285.7160000000076,
      "v": 72
    },
    {
      "midi": 67,
      "hit": false,
      "t": 58285.758,
      "d": 285.71450000000186,
      "v": 82
    },
    {
      "midi": 69,
      "hit": false,
      "t": 58571.4725,
      "d": 571.4289999999964,
      "v": 82
    },
    {
      "midi": 59,
      "hit": false,
      "t": 58571.47250000004,
      "d": 819.0482333333421,
      "v": 63
    },
    {
      "midi": 62,
      "hit": false,
      "t": 58728.61547500004,
      "d": 642.8576250000042,
      "v": 53
    },
    {
      "midi": 67,
      "hit": false,
      "t": 58857.18700000004,
      "d": 480.95274166666786,
      "v": 59
    },
    {
      "midi": 71,
      "hit": false,
      "t": 59000.04425000004,
      "d": 309.52404166666383,
      "v": 58
    },
    {
      "midi": 62,
      "hit": false,
      "t": 59142.9015,
      "d": 1428.572500000002,
      "v": 82
    },
    {
      "midi": 71,
      "hit": false,
      "t": 59428.616000000045,
      "d": 1171.4294500000033,
      "v": 63
    },
    {
      "midi": 43,
      "hit": false,
      "t": 59428.616000000045,
      "d": 2285.7160000000076,
      "v": 46
    },
    {
      "midi": 59,
      "hit": false,
      "t": 59428.616000000045,
      "d": 2285.7160000000076,
      "v": 55
    },
    {
      "midi": 62,
      "hit": false,
      "t": 59428.616000000045,
      "d": 2285.7160000000076,
      "v": 43
    },
    {
      "midi": 67,
      "hit": false,
      "t": 59428.616000000045,
      "d": 2285.7160000000076,
      "v": 53
    },
    {
      "midi": 64,
      "hit": false,
      "t": 60571.474,
      "d": 285.71450000000186,
      "v": 82
    },
    {
      "midi": 79,
      "hit": false,
      "t": 60571.474000000046,
      "d": 623.8099916666688,
      "v": 76
    },
    {
      "midi": 67,
      "hit": false,
      "t": 60857.188500000004,
      "d": 857.1434999999983,
      "v": 82
    },
    {
      "midi": 71,
      "hit": false,
      "t": 61142.90300000005,
      "d": 542.8575500000006,
      "v": 63
    },
    {
      "midi": 67,
      "hit": false,
      "t": 61714.33200000005,
      "d": 33.333358333336946,
      "v": 66
    },
    {
      "midi": 64,
      "hit": false,
      "t": 61714.33200000005,
      "d": 1585.7154750000045,
      "v": 64
    },
    {
      "midi": 40,
      "hit": false,
      "t": 61714.33200000005,
      "d": 2285.7160000000076,
      "v": 53
    },
    {
      "midi": 59,
      "hit": false,
      "t": 61714.33200000005,
      "d": 2285.7160000000076,
      "v": 52
    },
    {
      "midi": 64,
      "hit": false,
      "t": 62285.761,
      "d": 142.85725000000093,
      "v": 82
    },
    {
      "midi": 62,
      "hit": false,
      "t": 62428.61825,
      "d": 428.5717500000028,
      "v": 82
    },
    {
      "midi": 64,
      "hit": false,
      "t": 62857.19,
      "d": 142.85725000000093,
      "v": 82
    },
    {
      "midi": 59,
      "hit": false,
      "t": 63000.04725,
      "d": 428.5717500000028,
      "v": 82
    },
    {
      "midi": 64,
      "hit": false,
      "t": 63000.04725,
      "d": 428.5717500000028,
      "v": 82
    },
    {
      "midi": 67,
      "hit": false,
      "t": 63000.04725,
      "d": 428.5717500000028,
      "v": 82
    },
    {
      "midi": 55,
      "hit": false,
      "t": 63142.904500000055,
      "d": 857.1435000000056,
      "v": 66
    },
    {
      "midi": 64,
      "hit": false,
      "t": 63428.61900000006,
      "d": 571.4290000000037,
      "v": 58
    },
    {
      "midi": 67,
      "hit": false,
      "t": 63714.33350000006,
      "d": 280.952591666668,
      "v": 82
    },
    {
      "midi": 64,
      "hit": false,
      "t": 64000.048,
      "d": 142.85725000000093,
      "v": 82
    },
    {
      "midi": 59,
      "hit": false,
      "t": 64000.04800000006,
      "d": 471.42892500000016,
      "v": 45
    },
    {
      "midi": 64,
      "hit": false,
      "t": 64000.04800000006,
      "d": 595.238541666673,
      "v": 55
    },
    {
      "midi": 67,
      "hit": false,
      "t": 64000.04800000006,
      "d": 819.0482333333421,
      "v": 58
    },
    {
      "midi": 40,
      "hit": false,
      "t": 64000.04800000006,
      "d": 2247.6207333333223,
      "v": 63
    },
    {
      "midi": 64,
      "hit": false,
      "t": 64142.90525,
      "d": 428.5717500000028,
      "v": 82
    },
    {
      "midi": 55,
      "hit": false,
      "t": 64285.76250000006,
      "d": 928.572125000006,
      "v": 57
    },
    {
      "midi": 64,
      "hit": false,
      "t": 64571.477000000006,
      "d": 428.5717500000028,
      "v": 82
    },
    {
      "midi": 59,
      "hit": false,
      "t": 64595.286541666734,
      "d": 1047.6198333333305,
      "v": 55
    },
    {
      "midi": 64,
      "hit": false,
      "t": 64857.191500000066,
      "d": 590.4766333333391,
      "v": 41
    },
    {
      "midi": 62,
      "hit": false,
      "t": 65000.04875000001,
      "d": 142.85725000000093,
      "v": 82
    },
    {
      "midi": 64,
      "hit": false,
      "t": 65142.90600000001,
      "d": 142.85725000000093,
      "v": 82
    },
    {
      "midi": 67,
      "hit": false,
      "t": 65142.90600000007,
      "d": 395.23839166666585,
      "v": 56
    },
    {
      "midi": 59,
      "hit": false,
      "t": 65285.76325000001,
      "d": 714.2862499999974,
      "v": 82
    },
    {
      "midi": 64,
      "hit": false,
      "t": 65285.76325000001,
      "d": 714.2862499999974,
      "v": 82
    },
    {
      "midi": 67,
      "hit": false,
      "t": 65285.76325000001,
      "d": 714.2862499999974,
      "v": 82
    },
    {
      "midi": 55,
      "hit": false,
      "t": 65428.62050000007,
      "d": 523.809916666658,
      "v": 52
    },
    {
      "midi": 59,
      "hit": false,
      "t": 65714.33500000006,
      "d": 323.8097666666581,
      "v": 10
    },
    {
      "midi": 67,
      "hit": false,
      "t": 65714.33500000006,
      "d": 323.8097666666581,
      "v": 45
    },
    {
      "midi": 64,
      "hit": false,
      "t": 66285.76400000001,
      "d": 142.85725000000093,
      "v": 82
    },
    {
      "midi": 59,
      "hit": false,
      "t": 66285.76400000005,
      "d": 433.33365833332937,
      "v": 52
    },
    {
      "midi": 64,
      "hit": false,
      "t": 66285.76400000005,
      "d": 580.9528166666569,
      "v": 59
    },
    {
      "midi": 40,
      "hit": false,
      "t": 66285.76400000005,
      "d": 1142.8579999999783,
      "v": 72
    },
    {
      "midi": 64,
      "hit": false,
      "t": 66428.62125000001,
      "d": 428.5717500000028,
      "v": 82
    },
    {
      "midi": 55,
      "hit": false,
      "t": 66571.47850000006,
      "d": 857.1434999999765,
      "v": 57
    },
    {
      "midi": 64,
      "hit": false,
      "t": 66857.19300000001,
      "d": 428.5717500000028,
      "v": 82
    },
    {
      "midi": 59,
      "hit": false,
      "t": 66857.19300000004,
      "d": 566.6670916666626,
      "v": 55
    },
    {
      "midi": 67,
      "hit": false,
      "t": 67142.90750000004,
      "d": 257.14304999999877,
      "v": 62
    },
    {
      "midi": 62,
      "hit": false,
      "t": 67285.76475000002,
      "d": 142.85725000000093,
      "v": 82
    },
    {
      "midi": 64,
      "hit": false,
      "t": 67428.62200000002,
      "d": 142.85725000000093,
      "v": 82
    },
    {
      "midi": 40,
      "hit": false,
      "t": 67428.62200000003,
      "d": 571.4290000000037,
      "v": 53
    },
    {
      "midi": 55,
      "hit": false,
      "t": 67428.62200000003,
      "d": 571.4290000000037,
      "v": 42
    },
    {
      "midi": 59,
      "hit": false,
      "t": 67428.62200000003,
      "d": 571.4290000000037,
      "v": 47
    },
    {
      "midi": 67,
      "hit": false,
      "t": 67428.62200000003,
      "d": 571.4290000000037,
      "v": 59
    },
    {
      "midi": 59,
      "hit": false,
      "t": 67571.47925000002,
      "d": 714.2862500000047,
      "v": 82
    },
    {
      "midi": 64,
      "hit": false,
      "t": 67571.47925000002,
      "d": 714.2862500000047,
      "v": 82
    },
    {
      "midi": 67,
      "hit": false,
      "t": 67571.47925000002,
      "d": 714.2862500000047,
      "v": 82
    },
    {
      "midi": 64,
      "hit": false,
      "t": 67714.33650000003,
      "d": 285.71450000000186,
      "v": 42
    },
    {
      "midi": 43,
      "hit": false,
      "t": 68000.05100000004,
      "d": 571.4290000000037,
      "v": 48
    },
    {
      "midi": 55,
      "hit": false,
      "t": 68000.05100000004,
      "d": 571.4290000000037,
      "v": 39
    },
    {
      "midi": 59,
      "hit": false,
      "t": 68000.05100000004,
      "d": 571.4290000000037,
      "v": 46
    },
    {
      "midi": 62,
      "hit": false,
      "t": 68000.05100000004,
      "d": 571.4290000000037,
      "v": 59
    },
    {
      "midi": 65,
      "hit": false,
      "t": 68000.05100000004,
      "d": 571.4290000000037,
      "v": 57
    },
    {
      "midi": 65,
      "hit": false,
      "t": 68285.76550000002,
      "d": 285.71450000000186,
      "v": 82
    },
    {
      "midi": 64,
      "hit": false,
      "t": 68571.48000000003,
      "d": 142.85725000000093,
      "v": 82
    },
    {
      "midi": 60,
      "hit": false,
      "t": 68571.48000000004,
      "d": 433.33365833332937,
      "v": 52
    },
    {
      "midi": 64,
      "hit": false,
      "t": 68571.48000000004,
      "d": 580.9528166666569,
      "v": 59
    },
    {
      "midi": 48,
      "hit": false,
      "t": 68571.48000000004,
      "d": 1142.8579999999783,
      "v": 72
    },
    {
      "midi": 64,
      "hit": false,
      "t": 68714.33725000003,
      "d": 428.5717500000028,
      "v": 82
    },
    {
      "midi": 55,
      "hit": false,
      "t": 68857.19450000004,
      "d": 857.1434999999765,
      "v": 57
    },
    {
      "midi": 60,
      "hit": false,
      "t": 69142.90900000003,
      "d": 566.6670916666626,
      "v": 55
    },
    {
      "midi": 67,
      "hit": false,
      "t": 69428.62350000003,
      "d": 257.14304999999877,
      "v": 62
    },
    {
      "midi": 64,
      "hit": false,
      "t": 69428.62350000003,
      "d": 285.71450000000186,
      "v": 82
    },
    {
      "midi": 62,
      "hit": false,
      "t": 69714.33800000002,
      "d": 838.0958666666702,
      "v": 47
    },
    {
      "midi": 67,
      "hit": false,
      "t": 69714.33800000002,
      "d": 1138.0960916666663,
      "v": 56
    },
    {
      "midi": 43,
      "hit": false,
      "t": 69714.33800000002,
      "d": 1142.857999999993,
      "v": 57
    },
    {
      "midi": 71,
      "hit": false,
      "t": 69714.33800000002,
      "d": 1142.857999999993,
      "v": 37
    },
    {
      "midi": 62,
      "hit": false,
      "t": 69714.33800000003,
      "d": 142.85725000000093,
      "v": 82
    },
    {
      "midi": 62,
      "hit": false,
      "t": 69857.19525000003,
      "d": 428.5717500000028,
      "v": 82
    },
    {
      "midi": 59,
      "hit": false,
      "t": 70285.76700000002,
      "d": 504.76228333332983,
      "v": 32
    },
    {
      "midi": 62,
      "hit": false,
      "t": 70571.48150000002,
      "d": 280.95259166666074,
      "v": 49
    },
    {
      "midi": 62,
      "hit": false,
      "t": 70571.48150000004,
      "d": 285.71450000000186,
      "v": 82
    },
    {
      "midi": 60,
      "hit": false,
      "t": 70857.19600000001,
      "d": 838.0958666666702,
      "v": 47
    },
    {
      "midi": 65,
      "hit": false,
      "t": 70857.19600000001,
      "d": 1138.0960916666663,
      "v": 56
    },
    {
      "midi": 41,
      "hit": false,
      "t": 70857.19600000001,
      "d": 1142.857999999993,
      "v": 57
    },
    {
      "midi": 69,
      "hit": false,
      "t": 70857.19600000001,
      "d": 1142.857999999993,
      "v": 37
    },
    {
      "midi": 60,
      "hit": false,
      "t": 70857.19600000004,
      "d": 142.85725000000093,
      "v": 82
    },
    {
      "midi": 60,
      "hit": false,
      "t": 71000.05325000004,
      "d": 428.5717500000028,
      "v": 82
    },
    {
      "midi": 57,
      "hit": false,
      "t": 71428.62500000001,
      "d": 504.76228333332983,
      "v": 32
    },
    {
      "midi": 60,
      "hit": false,
      "t": 71714.33950000002,
      "d": 280.95259166666074,
      "v": 49
    },
    {
      "midi": 60,
      "hit": false,
      "t": 71714.33950000005,
      "d": 285.71450000000186,
      "v": 82
    },
    {
      "midi": 62,
      "hit": false,
      "t": 72000.054,
      "d": 838.0958666666702,
      "v": 47
    },
    {
      "midi": 67,
      "hit": false,
      "t": 72000.054,
      "d": 1138.0960916666663,
      "v": 56
    },
    {
      "midi": 43,
      "hit": false,
      "t": 72000.054,
      "d": 1142.857999999993,
      "v": 57
    },
    {
      "midi": 71,
      "hit": false,
      "t": 72000.054,
      "d": 1142.857999999993,
      "v": 37
    },
    {
      "midi": 62,
      "hit": false,
      "t": 72000.05400000005,
      "d": 142.85725000000093,
      "v": 82
    },
    {
      "midi": 62,
      "hit": false,
      "t": 72142.91125000005,
      "d": 428.5717500000028,
      "v": 82
    },
    {
      "midi": 59,
      "hit": false,
      "t": 72571.48300000001,
      "d": 504.76228333332983,
      "v": 32
    },
    {
      "midi": 62,
      "hit": false,
      "t": 72857.19750000001,
      "d": 280.95259166666074,
      "v": 49
    },
    {
      "midi": 60,
      "hit": false,
      "t": 73142.912,
      "d": 433.33365833332937,
      "v": 52
    },
    {
      "midi": 64,
      "hit": false,
      "t": 73142.912,
      "d": 580.9528166666569,
      "v": 59
    },
    {
      "midi": 48,
      "hit": false,
      "t": 73142.912,
      "d": 1142.8579999999783,
      "v": 72
    },
    {
      "midi": 64,
      "hit": false,
      "t": 73142.91200000005,
      "d": 142.85725000000093,
      "v": 82
    },
    {
      "midi": 64,
      "hit": false,
      "t": 73285.76925000006,
      "d": 428.5717500000028,
      "v": 82
    },
    {
      "midi": 55,
      "hit": false,
      "t": 73428.6265,
      "d": 857.1434999999765,
      "v": 57
    },
    {
      "midi": 60,
      "hit": false,
      "t": 73714.34099999999,
      "d": 566.6670916666626,
      "v": 55
    },
    {
      "midi": 67,
      "hit": false,
      "t": 74000.05549999999,
      "d": 257.14304999999877,
      "v": 62
    },
    {
      "midi": 64,
      "hit": false,
      "t": 74000.05550000006,
      "d": 285.71450000000186,
      "v": 82
    },
    {
      "midi": 62,
      "hit": false,
      "t": 74285.76999999997,
      "d": 838.0958666666702,
      "v": 47
    },
    {
      "midi": 67,
      "hit": false,
      "t": 74285.76999999997,
      "d": 1138.0960916666663,
      "v": 56
    },
    {
      "midi": 43,
      "hit": false,
      "t": 74285.76999999997,
      "d": 1142.857999999993,
      "v": 57
    },
    {
      "midi": 71,
      "hit": false,
      "t": 74285.76999999997,
      "d": 1142.857999999993,
      "v": 37
    },
    {
      "midi": 62,
      "hit": false,
      "t": 74285.77000000006,
      "d": 142.85725000000093,
      "v": 82
    },
    {
      "midi": 62,
      "hit": false,
      "t": 74428.62725000006,
      "d": 428.5717500000028,
      "v": 82
    },
    {
      "midi": 59,
      "hit": false,
      "t": 74857.19899999998,
      "d": 504.76228333332983,
      "v": 32
    },
    {
      "midi": 62,
      "hit": false,
      "t": 75142.91349999998,
      "d": 280.95259166666074,
      "v": 49
    },
    {
      "midi": 62,
      "hit": false,
      "t": 75142.91350000007,
      "d": 285.71450000000186,
      "v": 82
    },
    {
      "midi": 69,
      "hit": false,
      "t": 75428.62799999997,
      "d": 33.33335833332967,
      "v": 66
    },
    {
      "midi": 65,
      "hit": false,
      "t": 75428.62799999997,
      "d": 1585.71547499999,
      "v": 64
    },
    {
      "midi": 41,
      "hit": false,
      "t": 75428.62799999997,
      "d": 2285.715999999986,
      "v": 53
    },
    {
      "midi": 60,
      "hit": false,
      "t": 75428.62799999997,
      "d": 2285.715999999986,
      "v": 52
    },
    {
      "midi": 57,
      "hit": false,
      "t": 75428.62800000007,
      "d": 285.71450000000186,
      "v": 82
    },
    {
      "midi": 60,
      "hit": false,
      "t": 75428.62800000007,
      "d": 285.71450000000186,
      "v": 82
    },
    {
      "midi": 65,
      "hit": false,
      "t": 75428.62800000007,
      "d": 285.71450000000186,
      "v": 82
    },
    {
      "midi": 57,
      "hit": false,
      "t": 75714.34250000007,
      "d": 571.4290000000037,
      "v": 82
    },
    {
      "midi": 60,
      "hit": false,
      "t": 75714.34250000007,
      "d": 571.4290000000037,
      "v": 82
    },
    {
      "midi": 65,
      "hit": false,
      "t": 75714.34250000007,
      "d": 571.4290000000037,
      "v": 82
    },
    {
      "midi": 60,
      "hit": false,
      "t": 76285.77150000008,
      "d": 285.71450000000186,
      "v": 82
    },
    {
      "midi": 57,
      "hit": false,
      "t": 76571.48600000008,
      "d": 2000.0014999999985,
      "v": 82
    },
    {
      "midi": 60,
      "hit": false,
      "t": 76571.48600000008,
      "d": 2000.0014999999985,
      "v": 82
    },
    {
      "midi": 65,
      "hit": false,
      "t": 76571.48600000008,
      "d": 2000.0014999999985,
      "v": 82
    },
    {
      "midi": 57,
      "hit": false,
      "t": 76857.20049999996,
      "d": 857.143499999991,
      "v": 66
    },
    {
      "midi": 65,
      "hit": false,
      "t": 77142.91499999996,
      "d": 571.4289999999892,
      "v": 58
    },
    {
      "midi": 69,
      "hit": false,
      "t": 77428.62949999997,
      "d": 280.95259166666074,
      "v": 82
    },
    {
      "midi": 60,
      "hit": false,
      "t": 77714.34399999995,
      "d": 471.42892500000016,
      "v": 45
    },
    {
      "midi": 65,
      "hit": false,
      "t": 77714.34399999995,
      "d": 595.2385416666657,
      "v": 55
    },
    {
      "midi": 69,
      "hit": false,
      "t": 77714.34399999995,
      "d": 819.0482333333348,
      "v": 58
    },
    {
      "midi": 41,
      "hit": false,
      "t": 77714.34399999995,
      "d": 2247.6207333333296,
      "v": 63
    },
    {
      "midi": 57,
      "hit": false,
      "t": 78000.05849999996,
      "d": 928.572125000006,
      "v": 57
    },
    {
      "midi": 60,
      "hit": false,
      "t": 78309.58254166662,
      "d": 1047.619833333345,
      "v": 55
    },
    {
      "midi": 65,
      "hit": false,
      "t": 78571.48749999996,
      "d": 590.4766333333391,
      "v": 41
    },
    {
      "midi": 60,
      "hit": false,
      "t": 78571.48750000008,
      "d": 285.71450000000186,
      "v": 82
    },
    {
      "midi": 69,
      "hit": false,
      "t": 78857.20199999996,
      "d": 395.2383916666731,
      "v": 56
    },
    {
      "midi": 57,
      "hit": false,
      "t": 78857.20200000008,
      "d": 380.9526666666643,
      "v": 82
    },
    {
      "midi": 60,
      "hit": false,
      "t": 78857.20200000008,
      "d": 380.9526666666643,
      "v": 82
    },
    {
      "midi": 65,
      "hit": false,
      "t": 78857.20200000008,
      "d": 380.9526666666643,
      "v": 82
    },
    {
      "midi": 57,
      "hit": false,
      "t": 79142.91649999996,
      "d": 523.8099166666652,
      "v": 52
    },
    {
      "midi": 67,
      "hit": false,
      "t": 79238.15466666674,
      "d": 380.9526666666643,
      "v": 82
    },
    {
      "midi": 60,
      "hit": false,
      "t": 79428.63099999996,
      "d": 323.8097666666581,
      "v": 10
    },
    {
      "midi": 69,
      "hit": false,
      "t": 79428.63099999996,
      "d": 323.8097666666581,
      "v": 45
    },
    {
      "midi": 69,
      "hit": false,
      "t": 79619.1073333334,
      "d": 380.9526666666643,
      "v": 82
    },
    {
      "midi": 67,
      "hit": false,
      "t": 80000.05999999995,
      "d": 966.6673916666768,
      "v": 51
    },
    {
      "midi": 65,
      "hit": false,
      "t": 80000.05999999995,
      "d": 976.1912083333445,
      "v": 60
    },
    {
      "midi": 59,
      "hit": false,
      "t": 80000.05999999995,
      "d": 980.9531166666711,
      "v": 51
    },
    {
      "midi": 43,
      "hit": false,
      "t": 80000.05999999995,
      "d": 2285.716000000015,
      "v": 52
    },
    {
      "midi": 59,
      "hit": false,
      "t": 80000.06000000007,
      "d": 285.71450000000186,
      "v": 82
    },
    {
      "midi": 65,
      "hit": false,
      "t": 80000.06000000007,
      "d": 285.71450000000186,
      "v": 82
    },
    {
      "midi": 69,
      "hit": false,
      "t": 80000.06000000007,
      "d": 285.71450000000186,
      "v": 82
    },
    {
      "midi": 67,
      "hit": false,
      "t": 80285.77450000007,
      "d": 571.4290000000037,
      "v": 82
    },
    {
      "midi": 55,
      "hit": false,
      "t": 80857.20349999996,
      "d": 1428.5725000000093,
      "v": 46
    },
    {
      "midi": 62,
      "hit": false,
      "t": 80857.20350000008,
      "d": 285.71450000000186,
      "v": 82
    },
    {
      "midi": 59,
      "hit": false,
      "t": 81142.91799999996,
      "d": 1142.8580000000075,
      "v": 43
    },
    {
      "midi": 65,
      "hit": false,
      "t": 81142.91799999996,
      "d": 1142.8580000000075,
      "v": 55
    },
    {
      "midi": 67,
      "hit": false,
      "t": 81142.91799999996,
      "d": 1142.8580000000075,
      "v": 51
    },
    {
      "midi": 59,
      "hit": false,
      "t": 81142.91800000008,
      "d": 1714.2869999999966,
      "v": 82
    },
    {
      "midi": 65,
      "hit": false,
      "t": 81142.91800000008,
      "d": 1714.2869999999966,
      "v": 82
    },
    {
      "midi": 67,
      "hit": false,
      "t": 81142.91800000008,
      "d": 1714.2869999999966,
      "v": 82
    },
    {
      "midi": 59,
      "hit": false,
      "t": 82285.77599999997,
      "d": 1704.763183333329,
      "v": 39
    },
    {
      "midi": 62,
      "hit": false,
      "t": 82285.77599999997,
      "d": 1871.4299749999918,
      "v": 58
    },
    {
      "midi": 65,
      "hit": false,
      "t": 82285.77599999997,
      "d": 1947.6205083333189,
      "v": 60
    },
    {
      "midi": 43,
      "hit": false,
      "t": 82285.77599999997,
      "d": 2285.715999999986,
      "v": 48
    },
    {
      "midi": 67,
      "hit": false,
      "t": 82285.77599999997,
      "d": 2285.715999999986,
      "v": 59
    },
    {
      "midi": 67,
      "hit": false,
      "t": 83142.91950000008,
      "d": 285.71450000000186,
      "v": 82
    },
    {
      "midi": 69,
      "hit": false,
      "t": 83428.63400000008,
      "d": 571.4290000000037,
      "v": 82
    },
    {
      "midi": 71,
      "hit": false,
      "t": 84000.06300000008,
      "d": 571.4290000000037,
      "v": 82
    },
    {
      "midi": 59,
      "hit": false,
      "t": 84142.92024999997,
      "d": 428.57174999998824,
      "v": 57
    },
    {
      "midi": 62,
      "hit": false,
      "t": 84285.77749999995,
      "d": 285.71450000000186,
      "v": 45
    },
    {
      "midi": 65,
      "hit": false,
      "t": 84428.63474999995,
      "d": 142.85725000000093,
      "v": 68
    },
    {
      "midi": 67,
      "hit": false,
      "t": 84571.49199999995,
      "d": 966.6673916666768,
      "v": 51
    },
    {
      "midi": 59,
      "hit": false,
      "t": 84571.49199999995,
      "d": 980.9531166666711,
      "v": 51
    },
    {
      "midi": 40,
      "hit": false,
      "t": 84571.49199999995,
      "d": 2285.716000000015,
      "v": 52
    },
    {
      "midi": 71,
      "hit": false,
      "t": 84571.49200000009,
      "d": 142.85725000000093,
      "v": 82
    },
    {
      "midi": 71,
      "hit": false,
      "t": 84714.34925000009,
      "d": 285.71450000000186,
      "v": 82
    },
    {
      "midi": 71,
      "hit": false,
      "t": 85000.06375000009,
      "d": 142.85725000000093,
      "v": 82
    },
    {
      "midi": 71,
      "hit": false,
      "t": 85142.92100000009,
      "d": 571.4290000000037,
      "v": 82
    },
    {
      "midi": 55,
      "hit": false,
      "t": 85428.63549999996,
      "d": 1428.5725000000093,
      "v": 46
    },
    {
      "midi": 59,
      "hit": false,
      "t": 85714.34999999996,
      "d": 1142.8580000000075,
      "v": 43
    },
    {
      "midi": 67,
      "hit": false,
      "t": 85714.34999999996,
      "d": 1142.8580000000075,
      "v": 51
    },
    {
      "midi": 64,
      "hit": false,
      "t": 85714.3500000001,
      "d": 1142.857999999993,
      "v": 82
    },
    {
      "midi": 59,
      "hit": false,
      "t": 86857.20799999997,
      "d": 433.33365833332937,
      "v": 52
    },
    {
      "midi": 64,
      "hit": false,
      "t": 86857.20799999997,
      "d": 580.9528166666569,
      "v": 59
    },
    {
      "midi": 40,
      "hit": false,
      "t": 86857.20799999997,
      "d": 1142.8579999999783,
      "v": 72
    },
    {
      "midi": 71,
      "hit": false,
      "t": 86857.20800000009,
      "d": 1142.857999999993,
      "v": 82
    },
    {
      "midi": 56,
      "hit": false,
      "t": 87142.92249999997,
      "d": 857.1434999999765,
      "v": 57
    },
    {
      "midi": 59,
      "hit": false,
      "t": 87428.63699999996,
      "d": 566.6670916666626,
      "v": 55
    },
    {
      "midi": 68,
      "hit": false,
      "t": 87714.35149999996,
      "d": 257.14304999999877,
      "v": 62
    },
    {
      "midi": 56,
      "hit": false,
      "t": 88000.06599999995,
      "d": 433.33365833332937,
      "v": 52
    },
    {
      "midi": 59,
      "hit": false,
      "t": 88000.06599999995,
      "d": 580.9528166666569,
      "v": 59
    },
    {
      "midi": 40,
      "hit": false,
      "t": 88000.06599999995,
      "d": 1142.8579999999783,
      "v": 72
    },
    {
      "midi": 64,
      "hit": false,
      "t": 88000.06600000008,
      "d": 1142.857999999993,
      "v": 82
    },
    {
      "midi": 52,
      "hit": false,
      "t": 88285.78049999995,
      "d": 857.1434999999765,
      "v": 57
    },
    {
      "midi": 56,
      "hit": false,
      "t": 88571.49499999994,
      "d": 566.6670916666626,
      "v": 55
    },
    {
      "midi": 62,
      "hit": false,
      "t": 88857.20949999994,
      "d": 257.14304999999877,
      "v": 62
    },
    {
      "midi": 64,
      "hit": false,
      "t": 89142.92399999993,
      "d": 966.6673916666768,
      "v": 51
    },
    {
      "midi": 57,
      "hit": false,
      "t": 89142.92399999993,
      "d": 980.9531166666711,
      "v": 51
    },
    {
      "midi": 45,
      "hit": false,
      "t": 89142.92399999993,
      "d": 2285.716000000015,
      "v": 52
    },
    {
      "midi": 72,
      "hit": false,
      "t": 89142.92400000007,
      "d": 2571.430500000002,
      "v": 82
    },
    {
      "midi": 52,
      "hit": false,
      "t": 90000.06749999993,
      "d": 1428.5725000000093,
      "v": 46
    },
    {
      "midi": 57,
      "hit": false,
      "t": 90285.78199999993,
      "d": 1142.8580000000075,
      "v": 43
    },
    {
      "midi": 64,
      "hit": false,
      "t": 90285.78199999993,
      "d": 1142.8580000000075,
      "v": 51
    },
    {
      "midi": 57,
      "hit": false,
      "t": 91428.63999999994,
      "d": 433.33365833332937,
      "v": 52
    },
    {
      "midi": 60,
      "hit": false,
      "t": 91428.63999999994,
      "d": 580.9528166666569,
      "v": 59
    },
    {
      "midi": 45,
      "hit": false,
      "t": 91428.63999999994,
      "d": 1142.8579999999783,
      "v": 72
    },
    {
      "midi": 52,
      "hit": false,
      "t": 91714.35449999994,
      "d": 857.1434999999765,
      "v": 57
    },
    {
      "midi": 57,
      "hit": false,
      "t": 92000.06899999993,
      "d": 566.6670916666626,
      "v": 55
    },
    {
      "midi": 69,
      "hit": false,
      "t": 92000.06900000008,
      "d": 285.71450000000186,
      "v": 82
    },
    {
      "midi": 64,
      "hit": false,
      "t": 92285.78349999993,
      "d": 257.14304999999877,
      "v": 62
    },
    {
      "midi": 67,
      "hit": false,
      "t": 92285.78350000008,
      "d": 285.71450000000186,
      "v": 82
    },
    {
      "midi": 60,
      "hit": false,
      "t": 92571.49799999992,
      "d": 838.0958666666702,
      "v": 47
    },
    {
      "midi": 65,
      "hit": false,
      "t": 92571.49799999992,
      "d": 1138.0960916666663,
      "v": 56
    },
    {
      "midi": 41,
      "hit": false,
      "t": 92571.49799999992,
      "d": 1142.857999999993,
      "v": 57
    },
    {
      "midi": 68,
      "hit": false,
      "t": 92571.49799999992,
      "d": 1142.857999999993,
      "v": 37
    },
    {
      "midi": 63,
      "hit": false,
      "t": 92571.49800000008,
      "d": 142.85725000000093,
      "v": 82
    },
    {
      "midi": 62,
      "hit": false,
      "t": 92714.35525000008,
      "d": 142.85725000000093,
      "v": 82
    },
    {
      "midi": 60,
      "hit": false,
      "t": 92857.21250000008,
      "d": 571.4290000000037,
      "v": 82
    },
    {
      "midi": 56,
      "hit": false,
      "t": 93142.92699999992,
      "d": 504.76228333332983,
      "v": 32
    },
    {
      "midi": 60,
      "hit": false,
      "t": 93428.64149999993,
      "d": 280.95259166666074,
      "v": 49
    },
    {
      "midi": 62,
      "hit": false,
      "t": 93428.64150000009,
      "d": 285.71450000000186,
      "v": 82
    },
    {
      "midi": 48,
      "hit": false,
      "t": 93714.35599999991,
      "d": 1142.857999999993,
      "v": 55
    },
    {
      "midi": 55,
      "hit": false,
      "t": 93714.35599999991,
      "d": 1142.857999999993,
      "v": 47
    },
    {
      "midi": 60,
      "hit": false,
      "t": 93714.35599999991,
      "d": 1142.857999999993,
      "v": 60
    },
    {
      "midi": 64,
      "hit": false,
      "t": 93714.35599999991,
      "d": 1142.857999999993,
      "v": 53
    },
    {
      "midi": 67,
      "hit": false,
      "t": 93714.35599999991,
      "d": 1142.857999999993,
      "v": 52
    },
    {
      "midi": 64,
      "hit": false,
      "t": 93714.35600000009,
      "d": 142.85725000000093,
      "v": 82
    },
    {
      "midi": 64,
      "hit": false,
      "t": 93857.21325000009,
      "d": 428.5717500000028,
      "v": 82
    },
    {
      "midi": 64,
      "hit": false,
      "t": 94571.49950000009,
      "d": 285.71450000000186,
      "v": 82
    },
    {
      "midi": 62,
      "hit": false,
      "t": 94857.2139999999,
      "d": 433.33365833332937,
      "v": 52
    },
    {
      "midi": 67,
      "hit": false,
      "t": 94857.2139999999,
      "d": 580.9528166666569,
      "v": 59
    },
    {
      "midi": 43,
      "hit": false,
      "t": 94857.2139999999,
      "d": 1142.8579999999783,
      "v": 72
    },
    {
      "midi": 62,
      "hit": false,
      "t": 94857.2140000001,
      "d": 142.85725000000093,
      "v": 82
    },
    {
      "midi": 62,
      "hit": false,
      "t": 95000.0712500001,
      "d": 428.5717500000028,
      "v": 82
    },
    {
      "midi": 59,
      "hit": false,
      "t": 95142.9284999999,
      "d": 857.1434999999765,
      "v": 57
    },
    {
      "midi": 62,
      "hit": false,
      "t": 95428.6429999999,
      "d": 566.6670916666626,
      "v": 55
    },
    {
      "midi": 71,
      "hit": false,
      "t": 95714.3574999999,
      "d": 257.14304999999877,
      "v": 62
    },
    {
      "midi": 62,
      "hit": false,
      "t": 95714.3575000001,
      "d": 285.71450000000186,
      "v": 82
    },
    {
      "midi": 60,
      "hit": false,
      "t": 96000.07199999988,
      "d": 433.33365833332937,
      "v": 52
    },
    {
      "midi": 65,
      "hit": false,
      "t": 96000.07199999988,
      "d": 580.9528166666569,
      "v": 59
    },
    {
      "midi": 41,
      "hit": false,
      "t": 96000.07199999988,
      "d": 1142.8579999999783,
      "v": 72
    },
    {
      "midi": 60,
      "hit": false,
      "t": 96000.0720000001,
      "d": 142.85725000000093,
      "v": 82
    },
    {
      "midi": 60,
      "hit": false,
      "t": 96142.9292500001,
      "d": 428.5717500000028,
      "v": 82
    },
    {
      "midi": 57,
      "hit": false,
      "t": 96285.78649999989,
      "d": 857.1434999999765,
      "v": 57
    },
    {
      "midi": 60,
      "hit": false,
      "t": 96571.50099999987,
      "d": 566.6670916666626,
      "v": 55
    },
    {
      "midi": 69,
      "hit": false,
      "t": 96857.21549999987,
      "d": 257.14304999999877,
      "v": 62
    },
    {
      "midi": 60,
      "hit": false,
      "t": 96857.21550000011,
      "d": 285.71450000000186,
      "v": 82
    },
    {
      "midi": 43,
      "hit": false,
      "t": 97142.92999999986,
      "d": 1142.857999999993,
      "v": 55
    },
    {
      "midi": 59,
      "hit": false,
      "t": 97142.92999999986,
      "d": 1142.857999999993,
      "v": 47
    },
    {
      "midi": 62,
      "hit": false,
      "t": 97142.92999999986,
      "d": 1142.857999999993,
      "v": 60
    },
    {
      "midi": 67,
      "hit": false,
      "t": 97142.92999999986,
      "d": 1142.857999999993,
      "v": 53
    },
    {
      "midi": 71,
      "hit": false,
      "t": 97142.92999999986,
      "d": 1142.857999999993,
      "v": 52
    },
    {
      "midi": 62,
      "hit": false,
      "t": 97142.93000000011,
      "d": 142.85725000000093,
      "v": 82
    },
    {
      "midi": 62,
      "hit": false,
      "t": 97285.78725000011,
      "d": 428.5717500000028,
      "v": 82
    },
    {
      "midi": 62,
      "hit": false,
      "t": 98000.07350000012,
      "d": 285.71450000000186,
      "v": 82
    },
    {
      "midi": 48,
      "hit": false,
      "t": 98285.78799999985,
      "d": 1142.857999999993,
      "v": 55
    },
    {
      "midi": 55,
      "hit": false,
      "t": 98285.78799999985,
      "d": 1142.857999999993,
      "v": 47
    },
    {
      "midi": 60,
      "hit": false,
      "t": 98285.78799999985,
      "d": 1142.857999999993,
      "v": 60
    },
    {
      "midi": 64,
      "hit": false,
      "t": 98285.78799999985,
      "d": 1142.857999999993,
      "v": 53
    },
    {
      "midi": 67,
      "hit": false,
      "t": 98285.78799999985,
      "d": 1142.857999999993,
      "v": 52
    },
    {
      "midi": 64,
      "hit": false,
      "t": 98285.78800000012,
      "d": 142.85725000000093,
      "v": 82
    },
    {
      "midi": 64,
      "hit": false,
      "t": 98428.64525000012,
      "d": 285.71450000000186,
      "v": 82
    },
    {
      "midi": 64,
      "hit": false,
      "t": 99285.78875000012,
      "d": 142.85725000000093,
      "v": 82
    },
    {
      "midi": 62,
      "hit": false,
      "t": 99428.64599999985,
      "d": 838.0958666666702,
      "v": 47
    },
    {
      "midi": 67,
      "hit": false,
      "t": 99428.64599999985,
      "d": 1138.0960916666663,
      "v": 56
    },
    {
      "midi": 43,
      "hit": false,
      "t": 99428.64599999985,
      "d": 1142.857999999993,
      "v": 57
    },
    {
      "midi": 71,
      "hit": false,
      "t": 99428.64599999985,
      "d": 1142.857999999993,
      "v": 37
    },
    {
      "midi": 62,
      "hit": false,
      "t": 99428.64600000012,
      "d": 380.9526666666643,
      "v": 82
    },
    {
      "midi": 64,
      "hit": false,
      "t": 99809.59866666679,
      "d": 380.9526666666643,
      "v": 82
    },
    {
      "midi": 59,
      "hit": false,
      "t": 100000.07499999985,
      "d": 504.76228333332983,
      "v": 32
    },
    {
      "midi": 62,
      "hit": false,
      "t": 100190.55133333345,
      "d": 380.9526666666643,
      "v": 82
    },
    {
      "midi": 62,
      "hit": false,
      "t": 100285.78949999985,
      "d": 280.95259166666074,
      "v": 49
    },
    {
      "midi": 41,
      "hit": false,
      "t": 100571.50399999984,
      "d": 1142.857999999993,
      "v": 55
    },
    {
      "midi": 57,
      "hit": false,
      "t": 100571.50399999984,
      "d": 1142.857999999993,
      "v": 47
    },
    {
      "midi": 60,
      "hit": false,
      "t": 100571.50399999984,
      "d": 1142.857999999993,
      "v": 60
    },
    {
      "midi": 65,
      "hit": false,
      "t": 100571.50399999984,
      "d": 1142.857999999993,
      "v": 53
    },
    {
      "midi": 69,
      "hit": false,
      "t": 100571.50399999984,
      "d": 1142.857999999993,
      "v": 52
    },
    {
      "midi": 53,
      "hit": false,
      "t": 100571.50400000012,
      "d": 285.71450000000186,
      "v": 82
    },
    {
      "midi": 57,
      "hit": false,
      "t": 100571.50400000012,
      "d": 285.71450000000186,
      "v": 82
    },
    {
      "midi": 60,
      "hit": false,
      "t": 100571.50400000012,
      "d": 285.71450000000186,
      "v": 82
    },
    {
      "midi": 57,
      "hit": false,
      "t": 101142.93300000012,
      "d": 571.4290000000037,
      "v": 82
    },
    {
      "midi": 60,
      "hit": false,
      "t": 101142.93300000012,
      "d": 571.4290000000037,
      "v": 82
    },
    {
      "midi": 65,
      "hit": false,
      "t": 101142.93300000012,
      "d": 571.4290000000037,
      "v": 82
    },
    {
      "midi": 43,
      "hit": false,
      "t": 101714.36199999983,
      "d": 571.4290000000037,
      "v": 48
    },
    {
      "midi": 55,
      "hit": false,
      "t": 101714.36199999983,
      "d": 571.4290000000037,
      "v": 39
    },
    {
      "midi": 59,
      "hit": false,
      "t": 101714.36199999983,
      "d": 571.4290000000037,
      "v": 46
    },
    {
      "midi": 62,
      "hit": false,
      "t": 101714.36199999983,
      "d": 571.4290000000037,
      "v": 59
    },
    {
      "midi": 64,
      "hit": false,
      "t": 101714.36199999983,
      "d": 571.4290000000037,
      "v": 57
    },
    {
      "midi": 55,
      "hit": false,
      "t": 101714.36200000012,
      "d": 571.4290000000037,
      "v": 82
    },
    {
      "midi": 59,
      "hit": false,
      "t": 101714.36200000012,
      "d": 571.4290000000037,
      "v": 82
    },
    {
      "midi": 64,
      "hit": false,
      "t": 101714.36200000012,
      "d": 571.4290000000037,
      "v": 82
    },
    {
      "midi": 43,
      "hit": false,
      "t": 102285.79099999984,
      "d": 571.4290000000037,
      "v": 53
    },
    {
      "midi": 55,
      "hit": false,
      "t": 102285.79099999984,
      "d": 571.4290000000037,
      "v": 42
    },
    {
      "midi": 59,
      "hit": false,
      "t": 102285.79099999984,
      "d": 571.4290000000037,
      "v": 47
    },
    {
      "midi": 65,
      "hit": false,
      "t": 102285.79099999984,
      "d": 571.4290000000037,
      "v": 59
    },
    {
      "midi": 53,
      "hit": false,
      "t": 102285.79100000013,
      "d": 571.4290000000037,
      "v": 82
    },
    {
      "midi": 59,
      "hit": false,
      "t": 102285.79100000013,
      "d": 571.4290000000037,
      "v": 82
    },
    {
      "midi": 62,
      "hit": false,
      "t": 102285.79100000013,
      "d": 571.4290000000037,
      "v": 82
    },
    {
      "midi": 62,
      "hit": false,
      "t": 102571.50549999984,
      "d": 285.71450000000186,
      "v": 42
    },
    {
      "midi": 48,
      "hit": false,
      "t": 102857.21999999984,
      "d": 1142.857999999993,
      "v": 55
    },
    {
      "midi": 55,
      "hit": false,
      "t": 102857.21999999984,
      "d": 1142.857999999993,
      "v": 47
    },
    {
      "midi": 60,
      "hit": false,
      "t": 102857.21999999984,
      "d": 1142.857999999993,
      "v": 60
    },
    {
      "midi": 64,
      "hit": false,
      "t": 102857.21999999984,
      "d": 1142.857999999993,
      "v": 53
    },
    {
      "midi": 67,
      "hit": false,
      "t": 102857.21999999984,
      "d": 1142.857999999993,
      "v": 52
    },
    {
      "midi": 60,
      "hit": false,
      "t": 102857.22000000013,
      "d": 3428.5739999999932,
      "v": 82
    },
    {
      "midi": 60,
      "hit": false,
      "t": 104000.07799999983,
      "d": 433.33365833332937,
      "v": 52
    },
    {
      "midi": 65,
      "hit": false,
      "t": 104000.07799999983,
      "d": 580.9528166666569,
      "v": 59
    },
    {
      "midi": 41,
      "hit": false,
      "t": 104000.07799999983,
      "d": 1142.8579999999783,
      "v": 72
    },
    {
      "midi": 57,
      "hit": false,
      "t": 104285.79249999984,
      "d": 857.1434999999765,
      "v": 57
    },
    {
      "midi": 60,
      "hit": false,
      "t": 104571.50699999982,
      "d": 566.6670916666626,
      "v": 55
    },
    {
      "midi": 69,
      "hit": false,
      "t": 104857.22149999983,
      "d": 257.14304999999877,
      "v": 62
    },
    {
      "midi": 48,
      "hit": false,
      "t": 105142.93599999981,
      "d": 1142.857999999993,
      "v": 55
    },
    {
      "midi": 55,
      "hit": false,
      "t": 105142.93599999981,
      "d": 1142.857999999993,
      "v": 47
    },
    {
      "midi": 60,
      "hit": false,
      "t": 105142.93599999981,
      "d": 1142.857999999993,
      "v": 60
    },
    {
      "midi": 64,
      "hit": false,
      "t": 105142.93599999981,
      "d": 1142.857999999993,
      "v": 53
    },
    {
      "midi": 67,
      "hit": false,
      "t": 105142.93599999981,
      "d": 1142.857999999993,
      "v": 52
    },
    {
      "midi": 59,
      "hit": false,
      "t": 106285.7939999998,
      "d": 433.33365833332937,
      "v": 52
    },
    {
      "midi": 62,
      "hit": false,
      "t": 106285.7939999998,
      "d": 580.9528166666569,
      "v": 59
    },
    {
      "midi": 43,
      "hit": false,
      "t": 106285.7939999998,
      "d": 1142.8579999999783,
      "v": 72
    },
    {
      "midi": 55,
      "hit": false,
      "t": 106571.5084999998,
      "d": 857.1434999999765,
      "v": 57
    },
    {
      "midi": 59,
      "hit": false,
      "t": 106857.2229999998,
      "d": 566.6670916666626,
      "v": 55
    },
    {
      "midi": 65,
      "hit": false,
      "t": 107142.9374999998,
      "d": 257.14304999999877,
      "v": 62
    },
    {
      "midi": 48,
      "hit": false,
      "t": 107428.65199999978,
      "d": 1142.857999999993,
      "v": 55
    },
    {
      "midi": 55,
      "hit": false,
      "t": 107428.65199999978,
      "d": 1142.857999999993,
      "v": 47
    },
    {
      "midi": 60,
      "hit": false,
      "t": 107428.65199999978,
      "d": 1142.857999999993,
      "v": 60
    },
    {
      "midi": 64,
      "hit": false,
      "t": 107428.65199999978,
      "d": 1142.857999999993,
      "v": 53
    },
    {
      "midi": 67,
      "hit": false,
      "t": 107428.65199999978,
      "d": 1142.857999999993,
      "v": 52
    },
    {
      "midi": 64,
      "hit": false,
      "t": 107428.65200000012,
      "d": 142.85725000000093,
      "v": 82
    },
    {
      "midi": 64,
      "hit": false,
      "t": 107571.50925000012,
      "d": 428.5717500000028,
      "v": 82
    },
    {
      "midi": 64,
      "hit": false,
      "t": 108285.79550000012,
      "d": 285.71450000000186,
      "v": 82
    },
    {
      "midi": 62,
      "hit": false,
      "t": 108571.50999999978,
      "d": 433.33365833332937,
      "v": 52
    },
    {
      "midi": 67,
      "hit": false,
      "t": 108571.50999999978,
      "d": 580.9528166666569,
      "v": 59
    },
    {
      "midi": 43,
      "hit": false,
      "t": 108571.50999999978,
      "d": 1142.8579999999783,
      "v": 72
    },
    {
      "midi": 62,
      "hit": false,
      "t": 108571.51000000013,
      "d": 142.85725000000093,
      "v": 82
    },
    {
      "midi": 62,
      "hit": false,
      "t": 108714.36725000013,
      "d": 428.5717500000028,
      "v": 82
    },
    {
      "midi": 59,
      "hit": false,
      "t": 108857.22449999978,
      "d": 857.1434999999765,
      "v": 57
    },
    {
      "midi": 62,
      "hit": false,
      "t": 109142.93899999977,
      "d": 566.6670916666626,
      "v": 55
    },
    {
      "midi": 71,
      "hit": false,
      "t": 109428.65349999977,
      "d": 257.14304999999877,
      "v": 62
    },
    {
      "midi": 62,
      "hit": false,
      "t": 109428.65350000013,
      "d": 285.71450000000186,
      "v": 82
    },
    {
      "midi": 60,
      "hit": false,
      "t": 109714.36799999975,
      "d": 838.0958666666702,
      "v": 47
    },
    {
      "midi": 65,
      "hit": false,
      "t": 109714.36799999975,
      "d": 1138.0960916666663,
      "v": 56
    },
    {
      "midi": 41,
      "hit": false,
      "t": 109714.36799999975,
      "d": 1142.857999999993,
      "v": 57
    },
    {
      "midi": 69,
      "hit": false,
      "t": 109714.36799999975,
      "d": 1142.857999999993,
      "v": 37
    },
    {
      "midi": 60,
      "hit": false,
      "t": 109714.36800000013,
      "d": 142.85725000000093,
      "v": 82
    },
    {
      "midi": 60,
      "hit": false,
      "t": 109857.22525000013,
      "d": 428.5717500000028,
      "v": 82
    },
    {
      "midi": 57,
      "hit": false,
      "t": 110285.79699999976,
      "d": 504.76228333332983,
      "v": 32
    },
    {
      "midi": 60,
      "hit": false,
      "t": 110571.51149999976,
      "d": 280.95259166666074,
      "v": 49
    },
    {
      "midi": 60,
      "hit": false,
      "t": 110571.51150000014,
      "d": 285.71450000000186,
      "v": 82
    },
    {
      "midi": 62,
      "hit": false,
      "t": 110857.22599999975,
      "d": 838.0958666666702,
      "v": 47
    },
    {
      "midi": 67,
      "hit": false,
      "t": 110857.22599999975,
      "d": 1138.0960916666663,
      "v": 56
    },
    {
      "midi": 43,
      "hit": false,
      "t": 110857.22599999975,
      "d": 1142.857999999993,
      "v": 57
    },
    {
      "midi": 71,
      "hit": false,
      "t": 110857.22599999975,
      "d": 1142.857999999993,
      "v": 37
    },
    {
      "midi": 62,
      "hit": false,
      "t": 110857.22600000014,
      "d": 142.85725000000093,
      "v": 82
    },
    {
      "midi": 62,
      "hit": false,
      "t": 111000.08325000014,
      "d": 428.5717500000028,
      "v": 82
    },
    {
      "midi": 59,
      "hit": false,
      "t": 111428.65499999975,
      "d": 504.76228333332983,
      "v": 32
    },
    {
      "midi": 62,
      "hit": false,
      "t": 111714.36949999975,
      "d": 280.95259166666074,
      "v": 49
    },
    {
      "midi": 48,
      "hit": false,
      "t": 112000.08399999974,
      "d": 1142.857999999993,
      "v": 55
    },
    {
      "midi": 55,
      "hit": false,
      "t": 112000.08399999974,
      "d": 1142.857999999993,
      "v": 47
    },
    {
      "midi": 60,
      "hit": false,
      "t": 112000.08399999974,
      "d": 1142.857999999993,
      "v": 60
    },
    {
      "midi": 64,
      "hit": false,
      "t": 112000.08399999974,
      "d": 1142.857999999993,
      "v": 53
    },
    {
      "midi": 67,
      "hit": false,
      "t": 112000.08399999974,
      "d": 1142.857999999993,
      "v": 52
    },
    {
      "midi": 64,
      "hit": false,
      "t": 112000.08400000015,
      "d": 142.85725000000093,
      "v": 82
    },
    {
      "midi": 64,
      "hit": false,
      "t": 112142.94125000015,
      "d": 428.5717500000028,
      "v": 82
    },
    {
      "midi": 64,
      "hit": false,
      "t": 112857.22750000015,
      "d": 285.71450000000186,
      "v": 82
    },
    {
      "midi": 62,
      "hit": false,
      "t": 113142.94199999973,
      "d": 433.33365833332937,
      "v": 52
    },
    {
      "midi": 67,
      "hit": false,
      "t": 113142.94199999973,
      "d": 580.9528166666569,
      "v": 59
    },
    {
      "midi": 43,
      "hit": false,
      "t": 113142.94199999973,
      "d": 1142.8579999999783,
      "v": 72
    },
    {
      "midi": 62,
      "hit": false,
      "t": 113142.94200000016,
      "d": 142.85725000000093,
      "v": 82
    },
    {
      "midi": 62,
      "hit": false,
      "t": 113285.79925000016,
      "d": 428.5717500000028,
      "v": 82
    },
    {
      "midi": 59,
      "hit": false,
      "t": 113428.65649999974,
      "d": 857.1434999999765,
      "v": 57
    },
    {
      "midi": 62,
      "hit": false,
      "t": 113714.37099999972,
      "d": 566.6670916666626,
      "v": 55
    },
    {
      "midi": 71,
      "hit": false,
      "t": 114000.08549999972,
      "d": 257.14304999999877,
      "v": 62
    },
    {
      "midi": 62,
      "hit": false,
      "t": 114000.08550000016,
      "d": 285.71450000000186,
      "v": 82
    },
    {
      "midi": 69,
      "hit": false,
      "t": 114285.79999999971,
      "d": 1171.429449999996,
      "v": 63
    },
    {
      "midi": 41,
      "hit": false,
      "t": 114285.79999999971,
      "d": 2285.7160000000003,
      "v": 46
    },
    {
      "midi": 57,
      "hit": false,
      "t": 114285.79999999971,
      "d": 2285.7160000000003,
      "v": 55
    },
    {
      "midi": 60,
      "hit": false,
      "t": 114285.79999999971,
      "d": 2285.7160000000003,
      "v": 43
    },
    {
      "midi": 65,
      "hit": false,
      "t": 114285.79999999971,
      "d": 2285.7160000000003,
      "v": 53
    },
    {
      "midi": 57,
      "hit": false,
      "t": 114285.80000000016,
      "d": 285.71450000000186,
      "v": 82
    },
    {
      "midi": 60,
      "hit": false,
      "t": 114285.80000000016,
      "d": 285.71450000000186,
      "v": 82
    },
    {
      "midi": 65,
      "hit": false,
      "t": 114285.80000000016,
      "d": 285.71450000000186,
      "v": 82
    },
    {
      "midi": 57,
      "hit": false,
      "t": 114571.51450000016,
      "d": 571.4290000000037,
      "v": 82
    },
    {
      "midi": 60,
      "hit": false,
      "t": 114571.51450000016,
      "d": 571.4290000000037,
      "v": 82
    },
    {
      "midi": 65,
      "hit": false,
      "t": 114571.51450000016,
      "d": 571.4290000000037,
      "v": 82
    },
    {
      "midi": 60,
      "hit": false,
      "t": 115142.94350000017,
      "d": 285.71450000000186,
      "v": 82
    },
    {
      "midi": 77,
      "hit": false,
      "t": 115428.6579999997,
      "d": 623.8099916666688,
      "v": 76
    },
    {
      "midi": 57,
      "hit": false,
      "t": 115428.65800000017,
      "d": 2000.0014999999985,
      "v": 82
    },
    {
      "midi": 60,
      "hit": false,
      "t": 115428.65800000017,
      "d": 2000.0014999999985,
      "v": 82
    },
    {
      "midi": 65,
      "hit": false,
      "t": 115428.65800000017,
      "d": 2000.0014999999985,
      "v": 82
    },
    {
      "midi": 69,
      "hit": false,
      "t": 116000.08699999971,
      "d": 542.8575500000006,
      "v": 63
    },
    {
      "midi": 69,
      "hit": false,
      "t": 116571.51599999971,
      "d": 966.6673916666768,
      "v": 51
    },
    {
      "midi": 60,
      "hit": false,
      "t": 116571.51599999971,
      "d": 980.9531166666711,
      "v": 51
    },
    {
      "midi": 41,
      "hit": false,
      "t": 116571.51599999971,
      "d": 2285.716000000015,
      "v": 52
    },
    {
      "midi": 57,
      "hit": false,
      "t": 117428.65949999972,
      "d": 1428.5725000000093,
      "v": 46
    },
    {
      "midi": 60,
      "hit": false,
      "t": 117428.65950000017,
      "d": 285.71450000000186,
      "v": 82
    },
    {
      "midi": 60,
      "hit": false,
      "t": 117714.37399999972,
      "d": 1142.8580000000075,
      "v": 43
    },
    {
      "midi": 69,
      "hit": false,
      "t": 117714.37399999972,
      "d": 1142.8580000000075,
      "v": 51
    },
    {
      "midi": 57,
      "hit": false,
      "t": 117714.37400000017,
      "d": 380.9526666666643,
      "v": 82
    },
    {
      "midi": 60,
      "hit": false,
      "t": 117714.37400000017,
      "d": 380.9526666666643,
      "v": 82
    },
    {
      "midi": 65,
      "hit": false,
      "t": 117714.37400000017,
      "d": 380.9526666666643,
      "v": 82
    },
    {
      "midi": 67,
      "hit": false,
      "t": 118095.32666666684,
      "d": 380.9526666666643,
      "v": 82
    },
    {
      "midi": 69,
      "hit": false,
      "t": 118476.2793333335,
      "d": 380.9526666666643,
      "v": 82
    },
    {
      "midi": 65,
      "hit": false,
      "t": 118857.23199999973,
      "d": 1171.429449999996,
      "v": 63
    },
    {
      "midi": 43,
      "hit": false,
      "t": 118857.23199999973,
      "d": 2285.7160000000003,
      "v": 46
    },
    {
      "midi": 55,
      "hit": false,
      "t": 118857.23199999973,
      "d": 2285.7160000000003,
      "v": 55
    },
    {
      "midi": 59,
      "hit": false,
      "t": 118857.23199999973,
      "d": 2285.7160000000003,
      "v": 43
    },
    {
      "midi": 62,
      "hit": false,
      "t": 118857.23199999973,
      "d": 2285.7160000000003,
      "v": 53
    },
    {
      "midi": 59,
      "hit": false,
      "t": 118857.23200000016,
      "d": 285.71450000000186,
      "v": 82
    },
    {
      "midi": 65,
      "hit": false,
      "t": 118857.23200000016,
      "d": 285.71450000000186,
      "v": 82
    },
    {
      "midi": 69,
      "hit": false,
      "t": 118857.23200000016,
      "d": 285.71450000000186,
      "v": 82
    },
    {
      "midi": 67,
      "hit": false,
      "t": 119142.94650000017,
      "d": 571.4290000000037,
      "v": 82
    },
    {
      "midi": 62,
      "hit": false,
      "t": 119714.37550000017,
      "d": 285.71450000000186,
      "v": 82
    },
    {
      "midi": 74,
      "hit": false,
      "t": 120000.08999999972,
      "d": 623.8099916666688,
      "v": 76
    },
    {
      "midi": 59,
      "hit": false,
      "t": 120000.09000000017,
      "d": 1714.2869999999966,
      "v": 82
    },
    {
      "midi": 65,
      "hit": false,
      "t": 120000.09000000017,
      "d": 1714.2869999999966,
      "v": 82
    },
    {
      "midi": 67,
      "hit": false,
      "t": 120000.09000000017,
      "d": 1714.2869999999966,
      "v": 82
    },
    {
      "midi": 65,
      "hit": false,
      "t": 120571.51899999972,
      "d": 542.8575500000006,
      "v": 63
    },
    {
      "midi": 67,
      "hit": false,
      "t": 121142.94799999973,
      "d": 966.6673916666768,
      "v": 51
    },
    {
      "midi": 65,
      "hit": false,
      "t": 121142.94799999973,
      "d": 976.1912083333445,
      "v": 60
    },
    {
      "midi": 59,
      "hit": false,
      "t": 121142.94799999973,
      "d": 980.9531166666711,
      "v": 51
    },
    {
      "midi": 43,
      "hit": false,
      "t": 121142.94799999973,
      "d": 2285.716000000015,
      "v": 52
    },
    {
      "midi": 55,
      "hit": false,
      "t": 122000.09149999973,
      "d": 1428.5725000000093,
      "v": 46
    },
    {
      "midi": 67,
      "hit": false,
      "t": 122000.09150000017,
      "d": 285.71450000000186,
      "v": 82
    },
    {
      "midi": 59,
      "hit": false,
      "t": 122285.80599999973,
      "d": 1142.8580000000075,
      "v": 43
    },
    {
      "midi": 65,
      "hit": false,
      "t": 122285.80599999973,
      "d": 1142.8580000000075,
      "v": 55
    },
    {
      "midi": 67,
      "hit": false,
      "t": 122285.80599999973,
      "d": 1142.8580000000075,
      "v": 51
    },
    {
      "midi": 69,
      "hit": false,
      "t": 122285.80600000017,
      "d": 571.4290000000037,
      "v": 82
    },
    {
      "midi": 71,
      "hit": false,
      "t": 122857.23500000018,
      "d": 571.4290000000037,
      "v": 82
    },
    {
      "midi": 59,
      "hit": false,
      "t": 123428.66399999974,
      "d": 471.42892500000016,
      "v": 45
    },
    {
      "midi": 64,
      "hit": false,
      "t": 123428.66399999974,
      "d": 595.2385416666657,
      "v": 55
    },
    {
      "midi": 67,
      "hit": false,
      "t": 123428.66399999974,
      "d": 819.0482333333348,
      "v": 58
    },
    {
      "midi": 40,
      "hit": false,
      "t": 123428.66399999974,
      "d": 2247.6207333333296,
      "v": 63
    },
    {
      "midi": 71,
      "hit": false,
      "t": 123428.66400000018,
      "d": 142.85725000000093,
      "v": 82
    },
    {
      "midi": 71,
      "hit": false,
      "t": 123571.52125000018,
      "d": 285.71450000000186,
      "v": 82
    },
    {
      "midi": 55,
      "hit": false,
      "t": 123714.37849999974,
      "d": 928.572125000006,
      "v": 57
    },
    {
      "midi": 71,
      "hit": false,
      "t": 123857.23575000018,
      "d": 142.85725000000093,
      "v": 82
    },
    {
      "midi": 71,
      "hit": false,
      "t": 124000.09300000018,
      "d": 571.4290000000037,
      "v": 82
    },
    {
      "midi": 59,
      "hit": false,
      "t": 124023.90254166641,
      "d": 1047.619833333345,
      "v": 55
    },
    {
      "midi": 64,
      "hit": false,
      "t": 124285.80749999975,
      "d": 590.4766333333391,
      "v": 41
    },
    {
      "midi": 67,
      "hit": false,
      "t": 124571.52199999975,
      "d": 395.2383916666731,
      "v": 56
    },
    {
      "midi": 64,
      "hit": false,
      "t": 124571.52200000019,
      "d": 1142.857999999993,
      "v": 82
    },
    {
      "midi": 55,
      "hit": false,
      "t": 124857.23649999975,
      "d": 523.8099166666652,
      "v": 52
    },
    {
      "midi": 59,
      "hit": false,
      "t": 125142.95099999975,
      "d": 323.8097666666581,
      "v": 10
    },
    {
      "midi": 67,
      "hit": false,
      "t": 125142.95099999975,
      "d": 323.8097666666581,
      "v": 45
    },
    {
      "midi": 59,
      "hit": false,
      "t": 125714.37999999974,
      "d": 838.0958666666702,
      "v": 47
    },
    {
      "midi": 64,
      "hit": false,
      "t": 125714.37999999974,
      "d": 1138.0960916666663,
      "v": 56
    },
    {
      "midi": 40,
      "hit": false,
      "t": 125714.37999999974,
      "d": 1142.857999999993,
      "v": 57
    },
    {
      "midi": 68,
      "hit": false,
      "t": 125714.37999999974,
      "d": 1142.857999999993,
      "v": 37
    },
    {
      "midi": 71,
      "hit": false,
      "t": 125714.38000000018,
      "d": 1142.857999999993,
      "v": 82
    },
    {
      "midi": 56,
      "hit": false,
      "t": 126285.80899999975,
      "d": 504.76228333332983,
      "v": 32
    },
    {
      "midi": 59,
      "hit": false,
      "t": 126571.52349999975,
      "d": 280.95259166666074,
      "v": 49
    },
    {
      "midi": 56,
      "hit": false,
      "t": 126857.23799999974,
      "d": 433.33365833332937,
      "v": 52
    },
    {
      "midi": 59,
      "hit": false,
      "t": 126857.23799999974,
      "d": 580.9528166666569,
      "v": 59
    },
    {
      "midi": 40,
      "hit": false,
      "t": 126857.23799999974,
      "d": 1142.8579999999783,
      "v": 72
    },
    {
      "midi": 64,
      "hit": false,
      "t": 126857.23800000017,
      "d": 1142.857999999993,
      "v": 82
    },
    {
      "midi": 52,
      "hit": false,
      "t": 127142.95249999974,
      "d": 857.1434999999765,
      "v": 57
    },
    {
      "midi": 56,
      "hit": false,
      "t": 127428.66699999972,
      "d": 566.6670916666626,
      "v": 55
    },
    {
      "midi": 62,
      "hit": false,
      "t": 127714.38149999973,
      "d": 257.14304999999877,
      "v": 62
    },
    {
      "midi": 57,
      "hit": false,
      "t": 128000.09599999971,
      "d": 1480.9534916666598,
      "v": 55
    },
    {
      "midi": 60,
      "hit": false,
      "t": 128000.09599999971,
      "d": 1571.4297499999957,
      "v": 78
    },
    {
      "midi": 64,
      "hit": false,
      "t": 128000.09599999971,
      "d": 1571.4297499999957,
      "v": 54
    },
    {
      "midi": 45,
      "hit": false,
      "t": 128000.09599999971,
      "d": 2285.7160000000003,
      "v": 72
    },
    {
      "midi": 72,
      "hit": false,
      "t": 128000.09600000017,
      "d": 2571.430500000002,
      "v": 82
    },
    {
      "midi": 52,
      "hit": false,
      "t": 129428.66849999971,
      "d": 819.0482333333348,
      "v": 63
    },
    {
      "midi": 57,
      "hit": false,
      "t": 129585.8114749997,
      "d": 642.8576250000042,
      "v": 53
    },
    {
      "midi": 60,
      "hit": false,
      "t": 129714.38299999971,
      "d": 480.95274166666786,
      "v": 59
    },
    {
      "midi": 64,
      "hit": false,
      "t": 129857.24024999971,
      "d": 309.52404166666383,
      "v": 58
    },
    {
      "midi": 57,
      "hit": false,
      "t": 130285.81199999971,
      "d": 433.33365833332937,
      "v": 52
    },
    {
      "midi": 60,
      "hit": false,
      "t": 130285.81199999971,
      "d": 580.9528166666569,
      "v": 59
    },
    {
      "midi": 45,
      "hit": false,
      "t": 130285.81199999971,
      "d": 1142.8580000000075,
      "v": 72
    },
    {
      "midi": 52,
      "hit": false,
      "t": 130571.52649999972,
      "d": 857.1435000000056,
      "v": 57
    },
    {
      "midi": 57,
      "hit": false,
      "t": 130857.2409999997,
      "d": 566.6670916666772,
      "v": 55
    },
    {
      "midi": 69,
      "hit": false,
      "t": 130857.24100000017,
      "d": 285.7144999999873,
      "v": 82
    },
    {
      "midi": 64,
      "hit": false,
      "t": 131142.9554999997,
      "d": 257.1430500000133,
      "v": 62
    },
    {
      "midi": 69,
      "hit": false,
      "t": 131142.95550000016,
      "d": 285.71450000000186,
      "v": 82
    },
    {
      "midi": 41,
      "hit": false,
      "t": 131428.66999999972,
      "d": 1142.8580000000075,
      "v": 55
    },
    {
      "midi": 56,
      "hit": false,
      "t": 131428.66999999972,
      "d": 1142.8580000000075,
      "v": 47
    },
    {
      "midi": 60,
      "hit": false,
      "t": 131428.66999999972,
      "d": 1142.8580000000075,
      "v": 60
    },
    {
      "midi": 65,
      "hit": false,
      "t": 131428.66999999972,
      "d": 1142.8580000000075,
      "v": 53
    },
    {
      "midi": 68,
      "hit": false,
      "t": 131428.66999999972,
      "d": 1142.8580000000075,
      "v": 52
    },
    {
      "midi": 63,
      "hit": false,
      "t": 131428.67000000016,
      "d": 142.85725000000093,
      "v": 82
    },
    {
      "midi": 62,
      "hit": false,
      "t": 131571.52725000016,
      "d": 142.85725000000093,
      "v": 82
    },
    {
      "midi": 60,
      "hit": false,
      "t": 131714.38450000016,
      "d": 571.4290000000037,
      "v": 82
    },
    {
      "midi": 62,
      "hit": false,
      "t": 132285.81350000016,
      "d": 285.71450000000186,
      "v": 82
    },
    {
      "midi": 60,
      "hit": false,
      "t": 132571.52799999973,
      "d": 433.3336583333439,
      "v": 52
    },
    {
      "midi": 64,
      "hit": false,
      "t": 132571.52799999973,
      "d": 580.9528166666569,
      "v": 59
    },
    {
      "midi": 48,
      "hit": false,
      "t": 132571.52799999973,
      "d": 1142.8580000000075,
      "v": 72
    },
    {
      "midi": 64,
      "hit": false,
      "t": 132571.52800000017,
      "d": 142.85725000000093,
      "v": 82
    },
    {
      "midi": 64,
      "hit": false,
      "t": 132714.38525000017,
      "d": 428.5717500000028,
      "v": 82
    },
    {
      "midi": 55,
      "hit": false,
      "t": 132857.24249999973,
      "d": 857.1435000000056,
      "v": 57
    },
    {
      "midi": 60,
      "hit": false,
      "t": 133142.95699999973,
      "d": 566.6670916666626,
      "v": 55
    },
    {
      "midi": 67,
      "hit": false,
      "t": 133428.6714999997,
      "d": 257.1430500000133,
      "v": 62
    },
    {
      "midi": 64,
      "hit": false,
      "t": 133428.67150000017,
      "d": 285.71450000000186,
      "v": 82
    },
    {
      "midi": 43,
      "hit": false,
      "t": 133714.38599999974,
      "d": 1142.8580000000075,
      "v": 55
    },
    {
      "midi": 59,
      "hit": false,
      "t": 133714.38599999974,
      "d": 1142.8580000000075,
      "v": 47
    },
    {
      "midi": 62,
      "hit": false,
      "t": 133714.38599999974,
      "d": 1142.8580000000075,
      "v": 60
    },
    {
      "midi": 67,
      "hit": false,
      "t": 133714.38599999974,
      "d": 1142.8580000000075,
      "v": 53
    },
    {
      "midi": 71,
      "hit": false,
      "t": 133714.38599999974,
      "d": 1142.8580000000075,
      "v": 52
    },
    {
      "midi": 62,
      "hit": false,
      "t": 133714.38600000017,
      "d": 142.85725000000093,
      "v": 82
    },
    {
      "midi": 62,
      "hit": false,
      "t": 133857.24325000017,
      "d": 428.5717500000028,
      "v": 82
    },
    {
      "midi": 62,
      "hit": false,
      "t": 134571.52950000018,
      "d": 285.71450000000186,
      "v": 82
    },
    {
      "midi": 60,
      "hit": false,
      "t": 134857.24399999974,
      "d": 433.3336583333439,
      "v": 52
    },
    {
      "midi": 65,
      "hit": false,
      "t": 134857.24399999974,
      "d": 580.9528166666569,
      "v": 59
    },
    {
      "midi": 41,
      "hit": false,
      "t": 134857.24399999974,
      "d": 1142.8580000000075,
      "v": 72
    },
    {
      "midi": 60,
      "hit": false,
      "t": 134857.24400000018,
      "d": 142.85725000000093,
      "v": 82
    },
    {
      "midi": 60,
      "hit": false,
      "t": 135000.10125000018,
      "d": 428.5717500000028,
      "v": 82
    },
    {
      "midi": 57,
      "hit": false,
      "t": 135142.95849999975,
      "d": 857.1435000000056,
      "v": 57
    },
    {
      "midi": 60,
      "hit": false,
      "t": 135428.67299999975,
      "d": 566.6670916666626,
      "v": 55
    },
    {
      "midi": 69,
      "hit": false,
      "t": 135714.38749999972,
      "d": 257.1430500000133,
      "v": 62
    },
    {
      "midi": 60,
      "hit": false,
      "t": 135714.3875000002,
      "d": 285.71450000000186,
      "v": 82
    },
    {
      "midi": 62,
      "hit": false,
      "t": 136000.10199999975,
      "d": 433.3336583333439,
      "v": 52
    },
    {
      "midi": 67,
      "hit": false,
      "t": 136000.10199999975,
      "d": 580.9528166666569,
      "v": 59
    },
    {
      "midi": 43,
      "hit": false,
      "t": 136000.10199999975,
      "d": 1142.8580000000075,
      "v": 72
    },
    {
      "midi": 60,
      "hit": false,
      "t": 136000.1020000002,
      "d": 142.85725000000093,
      "v": 82
    },
    {
      "midi": 64,
      "hit": false,
      "t": 136000.1020000002,
      "d": 142.85725000000093,
      "v": 82
    },
    {
      "midi": 59,
      "hit": false,
      "t": 136142.9592500002,
      "d": 428.5717500000028,
      "v": 82
    },
    {
      "midi": 62,
      "hit": false,
      "t": 136142.9592500002,
      "d": 428.5717500000028,
      "v": 82
    },
    {
      "midi": 59,
      "hit": false,
      "t": 136285.81649999975,
      "d": 857.1435000000056,
      "v": 57
    },
    {
      "midi": 62,
      "hit": false,
      "t": 136571.53099999976,
      "d": 566.6670916666626,
      "v": 55
    },
    {
      "midi": 57,
      "hit": false,
      "t": 136571.5310000002,
      "d": 285.71450000000186,
      "v": 82
    },
    {
      "midi": 60,
      "hit": false,
      "t": 136571.5310000002,
      "d": 285.71450000000186,
      "v": 82
    },
    {
      "midi": 71,
      "hit": false,
      "t": 136857.24549999973,
      "d": 257.1430500000133,
      "v": 62
    },
    {
      "midi": 59,
      "hit": false,
      "t": 136857.2455000002,
      "d": 285.71450000000186,
      "v": 82
    },
    {
      "midi": 62,
      "hit": false,
      "t": 136857.2455000002,
      "d": 285.71450000000186,
      "v": 82
    },
    {
      "midi": 48,
      "hit": false,
      "t": 137142.95999999976,
      "d": 1142.8580000000075,
      "v": 55
    },
    {
      "midi": 55,
      "hit": false,
      "t": 137142.95999999976,
      "d": 1142.8580000000075,
      "v": 47
    },
    {
      "midi": 60,
      "hit": false,
      "t": 137142.95999999976,
      "d": 1142.8580000000075,
      "v": 60
    },
    {
      "midi": 64,
      "hit": false,
      "t": 137142.95999999976,
      "d": 1142.8580000000075,
      "v": 53
    },
    {
      "midi": 67,
      "hit": false,
      "t": 137142.95999999976,
      "d": 1142.8580000000075,
      "v": 52
    },
    {
      "midi": 60,
      "hit": false,
      "t": 137142.9600000002,
      "d": 2285.715999999986,
      "v": 82
    },
    {
      "midi": 60,
      "hit": false,
      "t": 138285.81799999977,
      "d": 838.0958666666702,
      "v": 47
    },
    {
      "midi": 65,
      "hit": false,
      "t": 138285.81799999977,
      "d": 1138.0960916666954,
      "v": 56
    },
    {
      "midi": 41,
      "hit": false,
      "t": 138285.81799999977,
      "d": 1142.8580000000366,
      "v": 57
    },
    {
      "midi": 69,
      "hit": false,
      "t": 138285.81799999977,
      "d": 1142.8580000000366,
      "v": 37
    },
    {
      "midi": 57,
      "hit": false,
      "t": 138857.24699999977,
      "d": 504.7622833333444,
      "v": 32
    },
    {
      "midi": 60,
      "hit": false,
      "t": 139142.96149999977,
      "d": 280.95259166668984,
      "v": 49
    },
    {
      "midi": 60,
      "hit": false,
      "t": 139428.6759999998,
      "d": 471.4289250000147,
      "v": 45
    },
    {
      "midi": 64,
      "hit": false,
      "t": 139428.6759999998,
      "d": 595.2385416666802,
      "v": 55
    },
    {
      "midi": 67,
      "hit": false,
      "t": 139428.6759999998,
      "d": 819.0482333333348,
      "v": 58
    },
    {
      "midi": 48,
      "hit": false,
      "t": 139428.6759999998,
      "d": 2247.620733333344,
      "v": 63
    },
    {
      "midi": 55,
      "hit": false,
      "t": 139714.3904999998,
      "d": 928.572125000006,
      "v": 57
    },
    {
      "midi": 60,
      "hit": false,
      "t": 140023.91454166648,
      "d": 1047.6198333333305,
      "v": 55
    },
    {
      "midi": 64,
      "hit": false,
      "t": 140285.8194999998,
      "d": 590.4766333333391,
      "v": 41
    },
    {
      "midi": 67,
      "hit": false,
      "t": 140571.5339999998,
      "d": 395.2383916666731,
      "v": 56
    },
    {
      "midi": 72,
      "hit": false,
      "t": 140571.5340000002,
      "d": 285.71450000000186,
      "v": 82
    },
    {
      "midi": 55,
      "hit": false,
      "t": 140857.2484999998,
      "d": 523.8099166666798,
      "v": 52
    },
    {
      "midi": 67,
      "hit": false,
      "t": 140857.2485000002,
      "d": 285.71450000000186,
      "v": 82
    },
    {
      "midi": 60,
      "hit": false,
      "t": 141142.9629999998,
      "d": 323.80976666667266,
      "v": 10
    },
    {
      "midi": 67,
      "hit": false,
      "t": 141142.9629999998,
      "d": 323.80976666667266,
      "v": 45
    },
    {
      "midi": 69,
      "hit": false,
      "t": 141142.9630000002,
      "d": 285.71450000000186,
      "v": 82
    },
    {
      "midi": 67,
      "hit": false,
      "t": 141428.6775000002,
      "d": 285.71450000000186,
      "v": 82
    },
    {
      "midi": 62,
      "hit": false,
      "t": 141714.39199999982,
      "d": 471.4289250000147,
      "v": 45
    },
    {
      "midi": 67,
      "hit": false,
      "t": 141714.39199999982,
      "d": 595.2385416666802,
      "v": 55
    },
    {
      "midi": 71,
      "hit": false,
      "t": 141714.39199999982,
      "d": 819.0482333333348,
      "v": 58
    },
    {
      "midi": 43,
      "hit": false,
      "t": 141714.39199999982,
      "d": 2247.620733333344,
      "v": 63
    },
    {
      "midi": 71,
      "hit": false,
      "t": 141714.3920000002,
      "d": 1142.8580000000075,
      "v": 82
    },
    {
      "midi": 59,
      "hit": false,
      "t": 142000.10649999982,
      "d": 928.572125000006,
      "v": 57
    },
    {
      "midi": 62,
      "hit": false,
      "t": 142309.6305416665,
      "d": 1047.6198333333305,
      "v": 55
    },
    {
      "midi": 67,
      "hit": false,
      "t": 142571.53549999982,
      "d": 590.4766333333391,
      "v": 41
    },
    {
      "midi": 71,
      "hit": false,
      "t": 142857.24999999983,
      "d": 395.2383916666731,
      "v": 56
    },
    {
      "midi": 67,
      "hit": false,
      "t": 142857.2500000002,
      "d": 285.71450000000186,
      "v": 82
    },
    {
      "midi": 59,
      "hit": false,
      "t": 143142.96449999983,
      "d": 523.8099166666798,
      "v": 52
    },
    {
      "midi": 69,
      "hit": false,
      "t": 143142.9645000002,
      "d": 571.4290000000037,
      "v": 82
    },
    {
      "midi": 62,
      "hit": false,
      "t": 143428.67899999983,
      "d": 323.80976666667266,
      "v": 10
    },
    {
      "midi": 71,
      "hit": false,
      "t": 143428.67899999983,
      "d": 323.80976666667266,
      "v": 45
    },
    {
      "midi": 62,
      "hit": false,
      "t": 143714.3935000002,
      "d": 857.1435000000056,
      "v": 82
    },
    {
      "midi": 71,
      "hit": false,
      "t": 144000.10799999983,
      "d": 966.6673916666768,
      "v": 51
    },
    {
      "midi": 62,
      "hit": false,
      "t": 144000.10799999983,
      "d": 980.9531166666711,
      "v": 51
    },
    {
      "midi": 43,
      "hit": false,
      "t": 144000.10799999983,
      "d": 2285.716000000015,
      "v": 52
    },
    {
      "midi": 59,
      "hit": false,
      "t": 144857.25149999984,
      "d": 1428.5725000000093,
      "v": 46
    },
    {
      "midi": 62,
      "hit": false,
      "t": 145142.96599999984,
      "d": 1142.8580000000075,
      "v": 43
    },
    {
      "midi": 71,
      "hit": false,
      "t": 145142.96599999984,
      "d": 1142.8580000000075,
      "v": 51
    },
    {
      "midi": 67,
      "hit": false,
      "t": 145142.96600000022,
      "d": 285.71450000000186,
      "v": 82
    },
    {
      "midi": 69,
      "hit": false,
      "t": 145428.68050000022,
      "d": 571.4290000000037,
      "v": 82
    },
    {
      "midi": 72,
      "hit": false,
      "t": 146000.10950000022,
      "d": 857.1435000000056,
      "v": 82
    },
    {
      "midi": 55,
      "hit": false,
      "t": 146285.82399999985,
      "d": 1704.763183333329,
      "v": 39
    },
    {
      "midi": 60,
      "hit": false,
      "t": 146285.82399999985,
      "d": 1871.4299749999773,
      "v": 58
    },
    {
      "midi": 64,
      "hit": false,
      "t": 146285.82399999985,
      "d": 1947.6205083333189,
      "v": 60
    },
    {
      "midi": 48,
      "hit": false,
      "t": 146285.82399999985,
      "d": 2285.715999999986,
      "v": 48
    },
    {
      "midi": 67,
      "hit": false,
      "t": 146285.82399999985,
      "d": 2285.715999999986,
      "v": 59
    },
    {
      "midi": 69,
      "hit": false,
      "t": 147428.68200000023,
      "d": 285.71450000000186,
      "v": 82
    },
    {
      "midi": 67,
      "hit": false,
      "t": 147714.39650000024,
      "d": 285.71450000000186,
      "v": 82
    },
    {
      "midi": 64,
      "hit": false,
      "t": 148000.11100000024,
      "d": 285.71450000000186,
      "v": 82
    },
    {
      "midi": 55,
      "hit": false,
      "t": 148142.96824999983,
      "d": 428.5717500000028,
      "v": 57
    },
    {
      "midi": 60,
      "hit": false,
      "t": 148285.82549999983,
      "d": 285.71450000000186,
      "v": 45
    },
    {
      "midi": 60,
      "hit": false,
      "t": 148285.82550000024,
      "d": 857.1435000000056,
      "v": 82
    },
    {
      "midi": 64,
      "hit": false,
      "t": 148428.68274999983,
      "d": 142.85725000000093,
      "v": 68
    },
    {
      "midi": 60,
      "hit": false,
      "t": 148571.53999999983,
      "d": 471.4289250000147,
      "v": 45
    },
    {
      "midi": 64,
      "hit": false,
      "t": 148571.53999999983,
      "d": 595.2385416666802,
      "v": 55
    },
    {
      "midi": 67,
      "hit": false,
      "t": 148571.53999999983,
      "d": 819.0482333333348,
      "v": 58
    },
    {
      "midi": 48,
      "hit": false,
      "t": 148571.53999999983,
      "d": 2247.620733333344,
      "v": 63
    },
    {
      "midi": 55,
      "hit": false,
      "t": 148857.25449999984,
      "d": 928.572125000006,
      "v": 57
    },
    {
      "midi": 60,
      "hit": false,
      "t": 149166.7785416665,
      "d": 1047.6198333333305,
      "v": 55
    },
    {
      "midi": 64,
      "hit": false,
      "t": 149428.68349999984,
      "d": 590.4766333333391,
      "v": 41
    },
    {
      "midi": 67,
      "hit": false,
      "t": 149714.39799999984,
      "d": 395.2383916666731,
      "v": 56
    },
    {
      "midi": 60,
      "hit": false,
      "t": 149714.39800000025,
      "d": 285.71450000000186,
      "v": 82
    },
    {
      "midi": 64,
      "hit": false,
      "t": 149714.39800000025,
      "d": 285.71450000000186,
      "v": 82
    },
    {
      "midi": 67,
      "hit": false,
      "t": 149714.39800000025,
      "d": 285.71450000000186,
      "v": 82
    },
    {
      "midi": 55,
      "hit": false,
      "t": 150000.11249999984,
      "d": 523.8099166666798,
      "v": 52
    },
    {
      "midi": 60,
      "hit": false,
      "t": 150000.11250000025,
      "d": 571.4290000000037,
      "v": 82
    },
    {
      "midi": 64,
      "hit": false,
      "t": 150000.11250000025,
      "d": 571.4290000000037,
      "v": 82
    },
    {
      "midi": 69,
      "hit": false,
      "t": 150000.11250000025,
      "d": 571.4290000000037,
      "v": 82
    },
    {
      "midi": 60,
      "hit": false,
      "t": 150285.82699999984,
      "d": 323.80976666667266,
      "v": 10
    },
    {
      "midi": 67,
      "hit": false,
      "t": 150285.82699999984,
      "d": 323.80976666667266,
      "v": 45
    },
    {
      "midi": 71,
      "hit": false,
      "t": 150571.54150000025,
      "d": 857.1435000000056,
      "v": 82
    },
    {
      "midi": 62,
      "hit": false,
      "t": 150857.25599999985,
      "d": 471.4289250000147,
      "v": 45
    },
    {
      "midi": 67,
      "hit": false,
      "t": 150857.25599999985,
      "d": 595.2385416666802,
      "v": 55
    },
    {
      "midi": 71,
      "hit": false,
      "t": 150857.25599999985,
      "d": 819.0482333333348,
      "v": 58
    },
    {
      "midi": 43,
      "hit": false,
      "t": 150857.25599999985,
      "d": 2247.620733333344,
      "v": 63
    },
    {
      "midi": 59,
      "hit": false,
      "t": 151142.97049999985,
      "d": 928.572125000006,
      "v": 57
    },
    {
      "midi": 62,
      "hit": false,
      "t": 151452.49454166653,
      "d": 1047.6198333333305,
      "v": 55
    },
    {
      "midi": 67,
      "hit": false,
      "t": 151714.39949999985,
      "d": 590.4766333333391,
      "v": 41
    },
    {
      "midi": 71,
      "hit": false,
      "t": 152000.11399999986,
      "d": 395.2383916666731,
      "v": 56
    },
    {
      "midi": 67,
      "hit": false,
      "t": 152000.11400000026,
      "d": 285.71450000000186,
      "v": 82
    },
    {
      "midi": 59,
      "hit": false,
      "t": 152285.82849999986,
      "d": 523.8099166666798,
      "v": 52
    },
    {
      "midi": 69,
      "hit": false,
      "t": 152285.82850000027,
      "d": 571.4290000000037,
      "v": 82
    },
    {
      "midi": 62,
      "hit": false,
      "t": 152571.54299999986,
      "d": 323.80976666667266,
      "v": 10
    },
    {
      "midi": 71,
      "hit": false,
      "t": 152571.54299999986,
      "d": 323.80976666667266,
      "v": 45
    },
    {
      "midi": 62,
      "hit": false,
      "t": 152857.25750000027,
      "d": 1428.5725000000093,
      "v": 82
    },
    {
      "midi": 62,
      "hit": false,
      "t": 153142.97199999986,
      "d": 1480.9534916666744,
      "v": 55
    },
    {
      "midi": 67,
      "hit": false,
      "t": 153142.97199999986,
      "d": 1571.4297500000102,
      "v": 78
    },
    {
      "midi": 71,
      "hit": false,
      "t": 153142.97199999986,
      "d": 1571.4297500000102,
      "v": 54
    },
    {
      "midi": 43,
      "hit": false,
      "t": 153142.97199999986,
      "d": 2285.716000000015,
      "v": 72
    },
    {
      "midi": 64,
      "hit": false,
      "t": 154285.83000000028,
      "d": 285.71450000000186,
      "v": 82
    },
    {
      "midi": 59,
      "hit": false,
      "t": 154571.54449999987,
      "d": 819.0482333333348,
      "v": 63
    },
    {
      "midi": 67,
      "hit": false,
      "t": 154571.54450000028,
      "d": 857.1435000000056,
      "v": 82
    },
    {
      "midi": 62,
      "hit": false,
      "t": 154728.68747499987,
      "d": 642.8576250000042,
      "v": 53
    },
    {
      "midi": 67,
      "hit": false,
      "t": 154857.25899999987,
      "d": 480.95274166666786,
      "v": 59
    },
    {
      "midi": 71,
      "hit": false,
      "t": 155000.11624999988,
      "d": 309.5240416666784,
      "v": 58
    },
    {
      "midi": 59,
      "hit": false,
      "t": 155428.68799999988,
      "d": 1480.9534916666744,
      "v": 55
    },
    {
      "midi": 64,
      "hit": false,
      "t": 155428.68799999988,
      "d": 1571.4297500000102,
      "v": 78
    },
    {
      "midi": 67,
      "hit": false,
      "t": 155428.68799999988,
      "d": 1571.4297500000102,
      "v": 54
    },
    {
      "midi": 40,
      "hit": false,
      "t": 155428.68799999988,
      "d": 2285.716000000015,
      "v": 72
    },
    {
      "midi": 64,
      "hit": false,
      "t": 156000.1170000003,
      "d": 142.85725000000093,
      "v": 82
    },
    {
      "midi": 62,
      "hit": false,
      "t": 156142.9742500003,
      "d": 428.5717500000028,
      "v": 82
    },
    {
      "midi": 64,
      "hit": false,
      "t": 156571.5460000003,
      "d": 142.85725000000093,
      "v": 82
    },
    {
      "midi": 59,
      "hit": false,
      "t": 156714.4032500003,
      "d": 428.5717500000028,
      "v": 82
    },
    {
      "midi": 64,
      "hit": false,
      "t": 156714.4032500003,
      "d": 428.5717500000028,
      "v": 82
    },
    {
      "midi": 67,
      "hit": false,
      "t": 156714.4032500003,
      "d": 428.5717500000028,
      "v": 82
    },
    {
      "midi": 55,
      "hit": false,
      "t": 156857.2604999999,
      "d": 819.0482333333348,
      "v": 63
    },
    {
      "midi": 59,
      "hit": false,
      "t": 157014.40347499988,
      "d": 642.8576250000042,
      "v": 53
    },
    {
      "midi": 64,
      "hit": false,
      "t": 157142.9749999999,
      "d": 480.95274166666786,
      "v": 59
    },
    {
      "midi": 67,
      "hit": false,
      "t": 157285.8322499999,
      "d": 309.5240416666784,
      "v": 58
    },
    {
      "midi": 67,
      "hit": false,
      "t": 157714.4039999999,
      "d": 966.6673916666768,
      "v": 51
    },
    {
      "midi": 59,
      "hit": false,
      "t": 157714.4039999999,
      "d": 980.9531166666711,
      "v": 51
    },
    {
      "midi": 40,
      "hit": false,
      "t": 157714.4039999999,
      "d": 2285.716000000015,
      "v": 52
    },
    {
      "midi": 64,
      "hit": false,
      "t": 157714.4040000003,
      "d": 142.85725000000093,
      "v": 82
    },
    {
      "midi": 64,
      "hit": false,
      "t": 157857.2612500003,
      "d": 428.5717500000028,
      "v": 82
    },
    {
      "midi": 64,
      "hit": false,
      "t": 158285.8330000003,
      "d": 428.5717500000028,
      "v": 82
    },
    {
      "midi": 55,
      "hit": false,
      "t": 158571.5474999999,
      "d": 1428.5725000000093,
      "v": 46
    },
    {
      "midi": 62,
      "hit": false,
      "t": 158714.4047500003,
      "d": 142.85725000000093,
      "v": 82
    },
    {
      "midi": 59,
      "hit": false,
      "t": 158857.2619999999,
      "d": 1142.8580000000075,
      "v": 43
    },
    {
      "midi": 67,
      "hit": false,
      "t": 158857.2619999999,
      "d": 1142.8580000000075,
      "v": 51
    },
    {
      "midi": 64,
      "hit": false,
      "t": 158857.2620000003,
      "d": 142.85725000000093,
      "v": 82
    },
    {
      "midi": 59,
      "hit": false,
      "t": 159000.1192500003,
      "d": 714.2862500000047,
      "v": 82
    },
    {
      "midi": 64,
      "hit": false,
      "t": 159000.1192500003,
      "d": 714.2862500000047,
      "v": 82
    },
    {
      "midi": 67,
      "hit": false,
      "t": 159000.1192500003,
      "d": 714.2862500000047,
      "v": 82
    },
    {
      "midi": 40,
      "hit": false,
      "t": 160000.1199999999,
      "d": 1142.8580000000075,
      "v": 55
    },
    {
      "midi": 55,
      "hit": false,
      "t": 160000.1199999999,
      "d": 1142.8580000000075,
      "v": 47
    },
    {
      "midi": 59,
      "hit": false,
      "t": 160000.1199999999,
      "d": 1142.8580000000075,
      "v": 60
    },
    {
      "midi": 64,
      "hit": false,
      "t": 160000.1199999999,
      "d": 1142.8580000000075,
      "v": 53
    },
    {
      "midi": 67,
      "hit": false,
      "t": 160000.1199999999,
      "d": 1142.8580000000075,
      "v": 52
    },
    {
      "midi": 64,
      "hit": false,
      "t": 160000.12000000032,
      "d": 142.85725000000093,
      "v": 82
    },
    {
      "midi": 64,
      "hit": false,
      "t": 160142.97725000032,
      "d": 428.5717500000028,
      "v": 82
    },
    {
      "midi": 64,
      "hit": false,
      "t": 160571.54900000032,
      "d": 428.5717500000028,
      "v": 82
    },
    {
      "midi": 62,
      "hit": false,
      "t": 161000.12075000032,
      "d": 142.85725000000093,
      "v": 82
    },
    {
      "midi": 40,
      "hit": false,
      "t": 161142.97799999992,
      "d": 571.4290000000037,
      "v": 48
    },
    {
      "midi": 55,
      "hit": false,
      "t": 161142.97799999992,
      "d": 571.4290000000037,
      "v": 39
    },
    {
      "midi": 59,
      "hit": false,
      "t": 161142.97799999992,
      "d": 571.4290000000037,
      "v": 46
    },
    {
      "midi": 64,
      "hit": false,
      "t": 161142.97799999992,
      "d": 571.4290000000037,
      "v": 59
    },
    {
      "midi": 67,
      "hit": false,
      "t": 161142.97799999992,
      "d": 571.4290000000037,
      "v": 57
    },
    {
      "midi": 64,
      "hit": false,
      "t": 161142.97800000032,
      "d": 142.85725000000093,
      "v": 82
    },
    {
      "midi": 59,
      "hit": false,
      "t": 161285.83525000032,
      "d": 714.2862500000047,
      "v": 82
    },
    {
      "midi": 64,
      "hit": false,
      "t": 161285.83525000032,
      "d": 714.2862500000047,
      "v": 82
    },
    {
      "midi": 67,
      "hit": false,
      "t": 161285.83525000032,
      "d": 714.2862500000047,
      "v": 82
    },
    {
      "midi": 43,
      "hit": false,
      "t": 161714.40699999992,
      "d": 571.4290000000037,
      "v": 53
    },
    {
      "midi": 55,
      "hit": false,
      "t": 161714.40699999992,
      "d": 571.4290000000037,
      "v": 42
    },
    {
      "midi": 59,
      "hit": false,
      "t": 161714.40699999992,
      "d": 571.4290000000037,
      "v": 47
    },
    {
      "midi": 65,
      "hit": false,
      "t": 161714.40699999992,
      "d": 571.4290000000037,
      "v": 59
    },
    {
      "midi": 62,
      "hit": false,
      "t": 162000.12149999992,
      "d": 285.71450000000186,
      "v": 42
    },
    {
      "midi": 65,
      "hit": false,
      "t": 162000.12150000033,
      "d": 285.71450000000186,
      "v": 82
    },
    {
      "midi": 60,
      "hit": false,
      "t": 162285.83599999992,
      "d": 433.3336583333439,
      "v": 52
    },
    {
      "midi": 64,
      "hit": false,
      "t": 162285.83599999992,
      "d": 580.9528166666569,
      "v": 59
    },
    {
      "midi": 48,
      "hit": false,
      "t": 162285.83599999992,
      "d": 1142.8580000000075,
      "v": 72
    },
    {
      "midi": 64,
      "hit": false,
      "t": 162285.83600000033,
      "d": 142.85725000000093,
      "v": 82
    },
    {
      "midi": 64,
      "hit": false,
      "t": 162428.69325000033,
      "d": 428.5717500000028,
      "v": 82
    },
    {
      "midi": 55,
      "hit": false,
      "t": 162571.55049999992,
      "d": 857.1435000000056,
      "v": 57
    },
    {
      "midi": 60,
      "hit": false,
      "t": 162857.26499999993,
      "d": 566.6670916666626,
      "v": 55
    },
    {
      "midi": 67,
      "hit": false,
      "t": 163142.9794999999,
      "d": 257.1430500000133,
      "v": 62
    },
    {
      "midi": 64,
      "hit": false,
      "t": 163142.97950000034,
      "d": 285.71450000000186,
      "v": 82
    },
    {
      "midi": 43,
      "hit": false,
      "t": 163428.69399999993,
      "d": 1142.8580000000075,
      "v": 55
    },
    {
      "midi": 59,
      "hit": false,
      "t": 163428.69399999993,
      "d": 1142.8580000000075,
      "v": 47
    },
    {
      "midi": 62,
      "hit": false,
      "t": 163428.69399999993,
      "d": 1142.8580000000075,
      "v": 60
    },
    {
      "midi": 67,
      "hit": false,
      "t": 163428.69399999993,
      "d": 1142.8580000000075,
      "v": 53
    },
    {
      "midi": 71,
      "hit": false,
      "t": 163428.69399999993,
      "d": 1142.8580000000075,
      "v": 52
    },
    {
      "midi": 62,
      "hit": false,
      "t": 163428.69400000034,
      "d": 142.85725000000093,
      "v": 82
    },
    {
      "midi": 62,
      "hit": false,
      "t": 163571.55125000034,
      "d": 428.5717500000028,
      "v": 82
    },
    {
      "midi": 62,
      "hit": false,
      "t": 164285.83750000034,
      "d": 285.71450000000186,
      "v": 82
    },
    {
      "midi": 60,
      "hit": false,
      "t": 164571.55199999994,
      "d": 838.0958666666702,
      "v": 47
    },
    {
      "midi": 65,
      "hit": false,
      "t": 164571.55199999994,
      "d": 1138.0960916666954,
      "v": 56
    },
    {
      "midi": 41,
      "hit": false,
      "t": 164571.55199999994,
      "d": 1142.8580000000366,
      "v": 57
    },
    {
      "midi": 69,
      "hit": false,
      "t": 164571.55199999994,
      "d": 1142.8580000000366,
      "v": 37
    },
    {
      "midi": 60,
      "hit": false,
      "t": 164571.55200000035,
      "d": 142.85725000000093,
      "v": 82
    },
    {
      "midi": 60,
      "hit": false,
      "t": 164714.40925000035,
      "d": 428.5717500000028,
      "v": 82
    },
    {
      "midi": 57,
      "hit": false,
      "t": 165142.98099999994,
      "d": 504.7622833333444,
      "v": 32
    },
    {
      "midi": 60,
      "hit": false,
      "t": 165428.69549999994,
      "d": 280.95259166668984,
      "v": 49
    },
    {
      "midi": 60,
      "hit": false,
      "t": 165428.69550000035,
      "d": 285.71450000000186,
      "v": 82
    },
    {
      "midi": 62,
      "hit": false,
      "t": 165714.40999999997,
      "d": 433.3336583333439,
      "v": 52
    },
    {
      "midi": 67,
      "hit": false,
      "t": 165714.40999999997,
      "d": 580.9528166666569,
      "v": 59
    },
    {
      "midi": 43,
      "hit": false,
      "t": 165714.40999999997,
      "d": 1142.8580000000075,
      "v": 72
    },
    {
      "midi": 62,
      "hit": false,
      "t": 165714.41000000035,
      "d": 142.85725000000093,
      "v": 82
    },
    {
      "midi": 62,
      "hit": false,
      "t": 165857.26725000035,
      "d": 428.5717500000028,
      "v": 82
    },
    {
      "midi": 59,
      "hit": false,
      "t": 166000.12449999998,
      "d": 857.1435000000056,
      "v": 57
    },
    {
      "midi": 62,
      "hit": false,
      "t": 166285.83899999998,
      "d": 566.6670916666626,
      "v": 55
    },
    {
      "midi": 71,
      "hit": false,
      "t": 166571.55349999995,
      "d": 257.1430500000133,
      "v": 62
    },
    {
      "midi": 60,
      "hit": false,
      "t": 166857.26799999998,
      "d": 838.0958666666702,
      "v": 47
    },
    {
      "midi": 64,
      "hit": false,
      "t": 166857.26799999998,
      "d": 1138.0960916666954,
      "v": 56
    },
    {
      "midi": 48,
      "hit": false,
      "t": 166857.26799999998,
      "d": 1142.8580000000366,
      "v": 57
    },
    {
      "midi": 67,
      "hit": false,
      "t": 166857.26799999998,
      "d": 1142.8580000000366,
      "v": 37
    },
    {
      "midi": 64,
      "hit": false,
      "t": 166857.26800000036,
      "d": 142.85725000000093,
      "v": 82
    },
    {
      "midi": 64,
      "hit": false,
      "t": 167000.12525000036,
      "d": 428.5717500000028,
      "v": 82
    },
    {
      "midi": 55,
      "hit": false,
      "t": 167428.697,
      "d": 504.7622833333444,
      "v": 32
    },
    {
      "midi": 60,
      "hit": false,
      "t": 167714.4115,
      "d": 280.95259166668984,
      "v": 49
    },
    {
      "midi": 64,
      "hit": false,
      "t": 167714.41150000037,
      "d": 285.71450000000186,
      "v": 82
    },
    {
      "midi": 62,
      "hit": false,
      "t": 168000.12600000002,
      "d": 838.0958666666702,
      "v": 47
    },
    {
      "midi": 67,
      "hit": false,
      "t": 168000.12600000002,
      "d": 1138.0960916666954,
      "v": 56
    },
    {
      "midi": 43,
      "hit": false,
      "t": 168000.12600000002,
      "d": 1142.8580000000366,
      "v": 57
    },
    {
      "midi": 71,
      "hit": false,
      "t": 168000.12600000002,
      "d": 1142.8580000000366,
      "v": 37
    },
    {
      "midi": 62,
      "hit": false,
      "t": 168000.12600000037,
      "d": 142.85725000000093,
      "v": 82
    },
    {
      "midi": 62,
      "hit": false,
      "t": 168142.98325000037,
      "d": 428.5717500000028,
      "v": 82
    },
    {
      "midi": 59,
      "hit": false,
      "t": 168571.55500000002,
      "d": 504.7622833333444,
      "v": 32
    },
    {
      "midi": 62,
      "hit": false,
      "t": 168857.26950000002,
      "d": 280.95259166668984,
      "v": 49
    },
    {
      "midi": 62,
      "hit": false,
      "t": 168857.26950000037,
      "d": 285.71450000000186,
      "v": 82
    },
    {
      "midi": 69,
      "hit": false,
      "t": 169142.98400000005,
      "d": 1171.429449999996,
      "v": 63
    },
    {
      "midi": 41,
      "hit": false,
      "t": 169142.98400000005,
      "d": 2285.7159999999567,
      "v": 46
    },
    {
      "midi": 57,
      "hit": false,
      "t": 169142.98400000005,
      "d": 2285.7159999999567,
      "v": 55
    },
    {
      "midi": 60,
      "hit": false,
      "t": 169142.98400000005,
      "d": 2285.7159999999567,
      "v": 43
    },
    {
      "midi": 65,
      "hit": false,
      "t": 169142.98400000005,
      "d": 2285.7159999999567,
      "v": 53
    },
    {
      "midi": 57,
      "hit": false,
      "t": 169142.98400000038,
      "d": 285.71450000000186,
      "v": 82
    },
    {
      "midi": 60,
      "hit": false,
      "t": 169142.98400000038,
      "d": 285.71450000000186,
      "v": 82
    },
    {
      "midi": 65,
      "hit": false,
      "t": 169142.98400000038,
      "d": 285.71450000000186,
      "v": 82
    },
    {
      "midi": 57,
      "hit": false,
      "t": 169428.69850000038,
      "d": 571.4290000000037,
      "v": 82
    },
    {
      "midi": 60,
      "hit": false,
      "t": 169428.69850000038,
      "d": 571.4290000000037,
      "v": 82
    },
    {
      "midi": 65,
      "hit": false,
      "t": 169428.69850000038,
      "d": 571.4290000000037,
      "v": 82
    },
    {
      "midi": 60,
      "hit": false,
      "t": 170000.12750000038,
      "d": 285.71450000000186,
      "v": 82
    },
    {
      "midi": 77,
      "hit": false,
      "t": 170285.84200000006,
      "d": 623.8099916666397,
      "v": 76
    },
    {
      "midi": 57,
      "hit": false,
      "t": 170285.84200000038,
      "d": 2000.001500000013,
      "v": 82
    },
    {
      "midi": 60,
      "hit": false,
      "t": 170285.84200000038,
      "d": 2000.001500000013,
      "v": 82
    },
    {
      "midi": 65,
      "hit": false,
      "t": 170285.84200000038,
      "d": 2000.001500000013,
      "v": 82
    },
    {
      "midi": 69,
      "hit": false,
      "t": 170857.27100000004,
      "d": 542.8575499999861,
      "v": 63
    },
    {
      "midi": 69,
      "hit": false,
      "t": 171428.7,
      "d": 33.33335833332967,
      "v": 66
    },
    {
      "midi": 65,
      "hit": false,
      "t": 171428.7,
      "d": 1585.7154750000045,
      "v": 64
    },
    {
      "midi": 41,
      "hit": false,
      "t": 171428.7,
      "d": 2285.716000000015,
      "v": 53
    },
    {
      "midi": 60,
      "hit": false,
      "t": 171428.7,
      "d": 2285.716000000015,
      "v": 52
    },
    {
      "midi": 60,
      "hit": false,
      "t": 172285.8435000004,
      "d": 285.71450000000186,
      "v": 82
    },
    {
      "midi": 57,
      "hit": false,
      "t": 172571.5580000004,
      "d": 380.95266666667885,
      "v": 82
    },
    {
      "midi": 60,
      "hit": false,
      "t": 172571.5580000004,
      "d": 380.95266666667885,
      "v": 82
    },
    {
      "midi": 65,
      "hit": false,
      "t": 172571.5580000004,
      "d": 380.95266666667885,
      "v": 82
    },
    {
      "midi": 57,
      "hit": false,
      "t": 172857.27250000002,
      "d": 857.1435000000056,
      "v": 66
    },
    {
      "midi": 67,
      "hit": false,
      "t": 172952.51066666708,
      "d": 380.95266666667885,
      "v": 82
    },
    {
      "midi": 65,
      "hit": false,
      "t": 173142.98700000002,
      "d": 571.4290000000037,
      "v": 58
    },
    {
      "midi": 69,
      "hit": false,
      "t": 173333.46333333376,
      "d": 380.95266666667885,
      "v": 82
    },
    {
      "midi": 69,
      "hit": false,
      "t": 173428.70150000002,
      "d": 280.95259166666074,
      "v": 82
    },
    {
      "midi": 59,
      "hit": false,
      "t": 173714.41600000003,
      "d": 1704.763183333329,
      "v": 39
    },
    {
      "midi": 62,
      "hit": false,
      "t": 173714.41600000003,
      "d": 1871.4299749999773,
      "v": 58
    },
    {
      "midi": 65,
      "hit": false,
      "t": 173714.41600000003,
      "d": 1947.6205083333189,
      "v": 60
    },
    {
      "midi": 43,
      "hit": false,
      "t": 173714.41600000003,
      "d": 2285.715999999986,
      "v": 48
    },
    {
      "midi": 67,
      "hit": false,
      "t": 173714.41600000003,
      "d": 2285.715999999986,
      "v": 59
    },
    {
      "midi": 59,
      "hit": false,
      "t": 173714.41600000043,
      "d": 285.71450000000186,
      "v": 82
    },
    {
      "midi": 65,
      "hit": false,
      "t": 173714.41600000043,
      "d": 285.71450000000186,
      "v": 82
    },
    {
      "midi": 69,
      "hit": false,
      "t": 173714.41600000043,
      "d": 285.71450000000186,
      "v": 82
    },
    {
      "midi": 67,
      "hit": false,
      "t": 174000.13050000044,
      "d": 571.4290000000037,
      "v": 82
    },
    {
      "midi": 62,
      "hit": false,
      "t": 174571.55950000044,
      "d": 285.71450000000186,
      "v": 82
    },
    {
      "midi": 59,
      "hit": false,
      "t": 174857.27400000044,
      "d": 1714.2870000000112,
      "v": 82
    },
    {
      "midi": 65,
      "hit": false,
      "t": 174857.27400000044,
      "d": 1714.2870000000112,
      "v": 82
    },
    {
      "midi": 67,
      "hit": false,
      "t": 174857.27400000044,
      "d": 1714.2870000000112,
      "v": 82
    },
    {
      "midi": 59,
      "hit": false,
      "t": 175571.56025,
      "d": 428.5717500000028,
      "v": 57
    },
    {
      "midi": 62,
      "hit": false,
      "t": 175714.4175,
      "d": 285.71450000000186,
      "v": 45
    },
    {
      "midi": 65,
      "hit": false,
      "t": 175857.27475,
      "d": 142.85725000000093,
      "v": 68
    },
    {
      "midi": 59,
      "hit": false,
      "t": 176000.132,
      "d": 471.4289250000147,
      "v": 45
    },
    {
      "midi": 62,
      "hit": false,
      "t": 176000.132,
      "d": 595.2385416666802,
      "v": 55
    },
    {
      "midi": 65,
      "hit": false,
      "t": 176000.132,
      "d": 819.0482333333348,
      "v": 58
    },
    {
      "midi": 67,
      "hit": false,
      "t": 176000.132,
      "d": 842.8577750000113,
      "v": 56
    },
    {
      "midi": 43,
      "hit": false,
      "t": 176000.132,
      "d": 2247.620733333344,
      "v": 63
    },
    {
      "midi": 55,
      "hit": false,
      "t": 176285.8465,
      "d": 928.572125000006,
      "v": 57
    },
    {
      "midi": 59,
      "hit": false,
      "t": 176595.3705416667,
      "d": 1047.6198333333305,
      "v": 55
    },
    {
      "midi": 62,
      "hit": false,
      "t": 176857.27550000002,
      "d": 590.4766333333391,
      "v": 41
    },
    {
      "midi": 67,
      "hit": false,
      "t": 176857.27550000045,
      "d": 285.71450000000186,
      "v": 82
    },
    {
      "midi": 65,
      "hit": false,
      "t": 177142.99000000002,
      "d": 395.2383916666731,
      "v": 56
    },
    {
      "midi": 69,
      "hit": false,
      "t": 177142.99000000046,
      "d": 571.4290000000037,
      "v": 82
    },
    {
      "midi": 55,
      "hit": false,
      "t": 177428.70450000002,
      "d": 523.8099166666798,
      "v": 52
    },
    {
      "midi": 59,
      "hit": false,
      "t": 177714.41900000002,
      "d": 323.80976666667266,
      "v": 10
    },
    {
      "midi": 65,
      "hit": false,
      "t": 177714.41900000002,
      "d": 323.80976666667266,
      "v": 45
    },
    {
      "midi": 71,
      "hit": false,
      "t": 177714.41900000046,
      "d": 571.4290000000037,
      "v": 82
    },
    {
      "midi": 67,
      "hit": false,
      "t": 178000.13350000003,
      "d": 176.1906083333306,
      "v": 87
    },
    {
      "midi": 67,
      "hit": false,
      "t": 178285.84800000003,
      "d": 966.6673916666768,
      "v": 51
    },
    {
      "midi": 59,
      "hit": false,
      "t": 178285.84800000003,
      "d": 980.9531166666711,
      "v": 51
    },
    {
      "midi": 40,
      "hit": false,
      "t": 178285.84800000003,
      "d": 2285.716000000015,
      "v": 52
    },
    {
      "midi": 71,
      "hit": false,
      "t": 178285.84800000046,
      "d": 142.85725000000093,
      "v": 82
    },
    {
      "midi": 71,
      "hit": false,
      "t": 178428.70525000046,
      "d": 285.71450000000186,
      "v": 82
    },
    {
      "midi": 71,
      "hit": false,
      "t": 178714.41975000047,
      "d": 142.85725000000093,
      "v": 82
    },
    {
      "midi": 71,
      "hit": false,
      "t": 178857.27700000047,
      "d": 571.4290000000037,
      "v": 82
    },
    {
      "midi": 55,
      "hit": false,
      "t": 179142.99150000003,
      "d": 1428.5725000000093,
      "v": 46
    },
    {
      "midi": 59,
      "hit": false,
      "t": 179428.70600000003,
      "d": 1142.8580000000075,
      "v": 43
    },
    {
      "midi": 67,
      "hit": false,
      "t": 179428.70600000003,
      "d": 1142.8580000000075,
      "v": 51
    },
    {
      "midi": 64,
      "hit": false,
      "t": 179428.70600000047,
      "d": 1142.8580000000075,
      "v": 82
    },
    {
      "midi": 59,
      "hit": false,
      "t": 180571.56400000004,
      "d": 433.3336583333439,
      "v": 52
    },
    {
      "midi": 64,
      "hit": false,
      "t": 180571.56400000004,
      "d": 580.9528166666569,
      "v": 59
    },
    {
      "midi": 40,
      "hit": false,
      "t": 180571.56400000004,
      "d": 1142.8580000000075,
      "v": 72
    },
    {
      "midi": 71,
      "hit": false,
      "t": 180571.56400000048,
      "d": 1142.8580000000075,
      "v": 82
    },
    {
      "midi": 56,
      "hit": false,
      "t": 180857.27850000004,
      "d": 857.1435000000056,
      "v": 57
    },
    {
      "midi": 59,
      "hit": false,
      "t": 181142.99300000005,
      "d": 566.6670916666626,
      "v": 55
    },
    {
      "midi": 68,
      "hit": false,
      "t": 181428.70750000002,
      "d": 257.1430500000133,
      "v": 62
    },
    {
      "midi": 56,
      "hit": false,
      "t": 181714.42200000005,
      "d": 838.0958666666702,
      "v": 47
    },
    {
      "midi": 59,
      "hit": false,
      "t": 181714.42200000005,
      "d": 1138.0960916666954,
      "v": 56
    },
    {
      "midi": 40,
      "hit": false,
      "t": 181714.42200000005,
      "d": 1142.8580000000366,
      "v": 57
    },
    {
      "midi": 62,
      "hit": false,
      "t": 181714.42200000005,
      "d": 1142.8580000000366,
      "v": 37
    },
    {
      "midi": 64,
      "hit": false,
      "t": 181714.42200000005,
      "d": 1142.8580000000366,
      "v": 55
    },
    {
      "midi": 64,
      "hit": false,
      "t": 181714.4220000005,
      "d": 1142.8580000000075,
      "v": 82
    },
    {
      "midi": 52,
      "hit": false,
      "t": 182285.85100000005,
      "d": 504.7622833333444,
      "v": 32
    },
    {
      "midi": 56,
      "hit": false,
      "t": 182571.56550000006,
      "d": 280.95259166668984,
      "v": 49
    },
    {
      "midi": 64,
      "hit": false,
      "t": 182857.2800000001,
      "d": 33.33335833332967,
      "v": 66
    },
    {
      "midi": 60,
      "hit": false,
      "t": 182857.2800000001,
      "d": 1585.7154750000045,
      "v": 64
    },
    {
      "midi": 45,
      "hit": false,
      "t": 182857.2800000001,
      "d": 2285.716000000015,
      "v": 53
    },
    {
      "midi": 57,
      "hit": false,
      "t": 182857.2800000001,
      "d": 2285.716000000015,
      "v": 52
    },
    {
      "midi": 72,
      "hit": false,
      "t": 182857.2800000005,
      "d": 2571.4304999999877,
      "v": 82
    },
    {
      "midi": 52,
      "hit": false,
      "t": 184285.8525000001,
      "d": 857.1435000000056,
      "v": 66
    },
    {
      "midi": 60,
      "hit": false,
      "t": 184571.5670000001,
      "d": 571.4290000000037,
      "v": 58
    },
    {
      "midi": 64,
      "hit": false,
      "t": 184857.2815000001,
      "d": 280.95259166666074,
      "v": 82
    },
    {
      "midi": 45,
      "hit": false,
      "t": 185142.9960000001,
      "d": 1142.8580000000075,
      "v": 55
    },
    {
      "midi": 52,
      "hit": false,
      "t": 185142.9960000001,
      "d": 1142.8580000000075,
      "v": 47
    },
    {
      "midi": 57,
      "hit": false,
      "t": 185142.9960000001,
      "d": 1142.8580000000075,
      "v": 60
    },
    {
      "midi": 60,
      "hit": false,
      "t": 185142.9960000001,
      "d": 1142.8580000000075,
      "v": 53
    },
    {
      "midi": 64,
      "hit": false,
      "t": 185142.9960000001,
      "d": 1142.8580000000075,
      "v": 52
    },
    {
      "midi": 69,
      "hit": false,
      "t": 185714.42500000048,
      "d": 285.71450000000186,
      "v": 82
    },
    {
      "midi": 67,
      "hit": false,
      "t": 186000.13950000048,
      "d": 285.71450000000186,
      "v": 82
    },
    {
      "midi": 60,
      "hit": false,
      "t": 186285.8540000001,
      "d": 838.0958666666702,
      "v": 47
    },
    {
      "midi": 65,
      "hit": false,
      "t": 186285.8540000001,
      "d": 1138.0960916666954,
      "v": 56
    },
    {
      "midi": 41,
      "hit": false,
      "t": 186285.8540000001,
      "d": 1142.8580000000366,
      "v": 57
    },
    {
      "midi": 68,
      "hit": false,
      "t": 186285.8540000001,
      "d": 1142.8580000000366,
      "v": 37
    },
    {
      "midi": 63,
      "hit": false,
      "t": 186285.8540000005,
      "d": 142.85725000000093,
      "v": 82
    },
    {
      "midi": 62,
      "hit": false,
      "t": 186428.7112500005,
      "d": 142.85725000000093,
      "v": 82
    },
    {
      "midi": 60,
      "hit": false,
      "t": 186571.5685000005,
      "d": 571.4290000000037,
      "v": 82
    },
    {
      "midi": 56,
      "hit": false,
      "t": 186857.2830000001,
      "d": 504.7622833333444,
      "v": 32
    },
    {
      "midi": 60,
      "hit": false,
      "t": 187142.9975000001,
      "d": 280.95259166668984,
      "v": 49
    },
    {
      "midi": 62,
      "hit": false,
      "t": 187142.9975000005,
      "d": 285.71450000000186,
      "v": 82
    },
    {
      "midi": 60,
      "hit": false,
      "t": 187428.71200000015,
      "d": 838.0958666666702,
      "v": 47
    },
    {
      "midi": 64,
      "hit": false,
      "t": 187428.71200000015,
      "d": 1138.0960916666954,
      "v": 56
    },
    {
      "midi": 48,
      "hit": false,
      "t": 187428.71200000015,
      "d": 1142.8580000000366,
      "v": 57
    },
    {
      "midi": 67,
      "hit": false,
      "t": 187428.71200000015,
      "d": 1142.8580000000366,
      "v": 37
    },
    {
      "midi": 64,
      "hit": false,
      "t": 187428.7120000005,
      "d": 142.85725000000093,
      "v": 82
    },
    {
      "midi": 64,
      "hit": false,
      "t": 187571.5692500005,
      "d": 428.5717500000028,
      "v": 82
    },
    {
      "midi": 55,
      "hit": false,
      "t": 188000.14100000015,
      "d": 504.7622833333444,
      "v": 32
    },
    {
      "midi": 60,
      "hit": false,
      "t": 188285.85550000015,
      "d": 280.95259166668984,
      "v": 49
    },
    {
      "midi": 64,
      "hit": false,
      "t": 188285.8555000005,
      "d": 285.71450000000186,
      "v": 82
    },
    {
      "midi": 43,
      "hit": false,
      "t": 188571.57000000018,
      "d": 1142.8580000000075,
      "v": 55
    },
    {
      "midi": 59,
      "hit": false,
      "t": 188571.57000000018,
      "d": 1142.8580000000075,
      "v": 47
    },
    {
      "midi": 62,
      "hit": false,
      "t": 188571.57000000018,
      "d": 1142.8580000000075,
      "v": 60
    },
    {
      "midi": 67,
      "hit": false,
      "t": 188571.57000000018,
      "d": 1142.8580000000075,
      "v": 53
    },
    {
      "midi": 71,
      "hit": false,
      "t": 188571.57000000018,
      "d": 1142.8580000000075,
      "v": 52
    },
    {
      "midi": 62,
      "hit": false,
      "t": 188571.5700000005,
      "d": 142.85725000000093,
      "v": 82
    },
    {
      "midi": 62,
      "hit": false,
      "t": 188714.4272500005,
      "d": 428.5717500000028,
      "v": 82
    },
    {
      "midi": 62,
      "hit": false,
      "t": 189428.7135000005,
      "d": 285.71450000000186,
      "v": 82
    },
    {
      "midi": 41,
      "hit": false,
      "t": 189714.4280000002,
      "d": 1142.8580000000075,
      "v": 55
    },
    {
      "midi": 57,
      "hit": false,
      "t": 189714.4280000002,
      "d": 1142.8580000000075,
      "v": 47
    },
    {
      "midi": 60,
      "hit": false,
      "t": 189714.4280000002,
      "d": 1142.8580000000075,
      "v": 60
    },
    {
      "midi": 65,
      "hit": false,
      "t": 189714.4280000002,
      "d": 1142.8580000000075,
      "v": 53
    },
    {
      "midi": 69,
      "hit": false,
      "t": 189714.4280000002,
      "d": 1142.8580000000075,
      "v": 52
    },
    {
      "midi": 60,
      "hit": false,
      "t": 189714.4280000005,
      "d": 142.85725000000093,
      "v": 82
    },
    {
      "midi": 60,
      "hit": false,
      "t": 189857.2852500005,
      "d": 428.5717500000028,
      "v": 82
    },
    {
      "midi": 60,
      "hit": false,
      "t": 190571.57150000051,
      "d": 285.71450000000186,
      "v": 82
    },
    {
      "midi": 62,
      "hit": false,
      "t": 190857.2860000002,
      "d": 838.0958666666702,
      "v": 47
    },
    {
      "midi": 67,
      "hit": false,
      "t": 190857.2860000002,
      "d": 1138.0960916666954,
      "v": 56
    },
    {
      "midi": 43,
      "hit": false,
      "t": 190857.2860000002,
      "d": 1142.8580000000366,
      "v": 57
    },
    {
      "midi": 71,
      "hit": false,
      "t": 190857.2860000002,
      "d": 1142.8580000000366,
      "v": 37
    },
    {
      "midi": 62,
      "hit": false,
      "t": 190857.28600000052,
      "d": 142.85725000000093,
      "v": 82
    },
    {
      "midi": 62,
      "hit": false,
      "t": 191000.14325000052,
      "d": 428.5717500000028,
      "v": 82
    },
    {
      "midi": 59,
      "hit": false,
      "t": 191428.7150000002,
      "d": 504.7622833333444,
      "v": 32
    },
    {
      "midi": 62,
      "hit": false,
      "t": 191714.4295000002,
      "d": 280.95259166668984,
      "v": 49
    },
    {
      "midi": 62,
      "hit": false,
      "t": 191714.42950000052,
      "d": 285.71450000000186,
      "v": 82
    },
    {
      "midi": 60,
      "hit": false,
      "t": 192000.14400000023,
      "d": 433.3336583333439,
      "v": 52
    },
    {
      "midi": 64,
      "hit": false,
      "t": 192000.14400000023,
      "d": 580.9528166666569,
      "v": 59
    },
    {
      "midi": 48,
      "hit": false,
      "t": 192000.14400000023,
      "d": 1142.8580000000075,
      "v": 72
    },
    {
      "midi": 64,
      "hit": false,
      "t": 192000.14400000052,
      "d": 142.85725000000093,
      "v": 82
    },
    {
      "midi": 64,
      "hit": false,
      "t": 192143.00125000053,
      "d": 285.71450000000186,
      "v": 82
    },
    {
      "midi": 55,
      "hit": false,
      "t": 192285.85850000023,
      "d": 857.1435000000056,
      "v": 57
    },
    {
      "midi": 60,
      "hit": false,
      "t": 192571.57300000024,
      "d": 566.6670916666626,
      "v": 55
    },
    {
      "midi": 67,
      "hit": false,
      "t": 192857.2875000002,
      "d": 257.1430500000133,
      "v": 62
    },
    {
      "midi": 64,
      "hit": false,
      "t": 193000.14475000053,
      "d": 142.85725000000093,
      "v": 82
    },
    {
      "midi": 43,
      "hit": false,
      "t": 193143.00200000024,
      "d": 1142.8580000000075,
      "v": 55
    },
    {
      "midi": 59,
      "hit": false,
      "t": 193143.00200000024,
      "d": 1142.8580000000075,
      "v": 47
    },
    {
      "midi": 62,
      "hit": false,
      "t": 193143.00200000024,
      "d": 1142.8580000000075,
      "v": 60
    },
    {
      "midi": 67,
      "hit": false,
      "t": 193143.00200000024,
      "d": 1142.8580000000075,
      "v": 53
    },
    {
      "midi": 71,
      "hit": false,
      "t": 193143.00200000024,
      "d": 1142.8580000000075,
      "v": 52
    },
    {
      "midi": 62,
      "hit": false,
      "t": 193143.00200000053,
      "d": 380.95266666667885,
      "v": 82
    },
    {
      "midi": 64,
      "hit": false,
      "t": 193523.9546666672,
      "d": 380.95266666667885,
      "v": 82
    },
    {
      "midi": 62,
      "hit": false,
      "t": 193904.9073333339,
      "d": 380.95266666667885,
      "v": 82
    },
    {
      "midi": 41,
      "hit": false,
      "t": 194285.86000000025,
      "d": 1142.8580000000075,
      "v": 55
    },
    {
      "midi": 57,
      "hit": false,
      "t": 194285.86000000025,
      "d": 1142.8580000000075,
      "v": 47
    },
    {
      "midi": 60,
      "hit": false,
      "t": 194285.86000000025,
      "d": 1142.8580000000075,
      "v": 60
    },
    {
      "midi": 65,
      "hit": false,
      "t": 194285.86000000025,
      "d": 1142.8580000000075,
      "v": 53
    },
    {
      "midi": 69,
      "hit": false,
      "t": 194285.86000000025,
      "d": 1142.8580000000075,
      "v": 52
    },
    {
      "midi": 53,
      "hit": false,
      "t": 194285.86000000057,
      "d": 285.71450000000186,
      "v": 82
    },
    {
      "midi": 57,
      "hit": false,
      "t": 194285.86000000057,
      "d": 285.71450000000186,
      "v": 82
    },
    {
      "midi": 60,
      "hit": false,
      "t": 194285.86000000057,
      "d": 285.71450000000186,
      "v": 82
    },
    {
      "midi": 57,
      "hit": false,
      "t": 194857.28900000057,
      "d": 571.4290000000037,
      "v": 82
    },
    {
      "midi": 60,
      "hit": false,
      "t": 194857.28900000057,
      "d": 571.4290000000037,
      "v": 82
    },
    {
      "midi": 65,
      "hit": false,
      "t": 194857.28900000057,
      "d": 571.4290000000037,
      "v": 82
    },
    {
      "midi": 43,
      "hit": false,
      "t": 195428.71800000026,
      "d": 571.4290000000037,
      "v": 48
    },
    {
      "midi": 55,
      "hit": false,
      "t": 195428.71800000026,
      "d": 571.4290000000037,
      "v": 39
    },
    {
      "midi": 59,
      "hit": false,
      "t": 195428.71800000026,
      "d": 571.4290000000037,
      "v": 46
    },
    {
      "midi": 62,
      "hit": false,
      "t": 195428.71800000026,
      "d": 571.4290000000037,
      "v": 59
    },
    {
      "midi": 64,
      "hit": false,
      "t": 195428.71800000026,
      "d": 571.4290000000037,
      "v": 57
    },
    {
      "midi": 55,
      "hit": false,
      "t": 195428.71800000058,
      "d": 571.4290000000037,
      "v": 82
    },
    {
      "midi": 59,
      "hit": false,
      "t": 195428.71800000058,
      "d": 571.4290000000037,
      "v": 82
    },
    {
      "midi": 64,
      "hit": false,
      "t": 195428.71800000058,
      "d": 571.4290000000037,
      "v": 82
    },
    {
      "midi": 43,
      "hit": false,
      "t": 196000.14700000026,
      "d": 571.4290000000037,
      "v": 48
    },
    {
      "midi": 55,
      "hit": false,
      "t": 196000.14700000026,
      "d": 571.4290000000037,
      "v": 39
    },
    {
      "midi": 59,
      "hit": false,
      "t": 196000.14700000026,
      "d": 571.4290000000037,
      "v": 46
    },
    {
      "midi": 62,
      "hit": false,
      "t": 196000.14700000026,
      "d": 571.4290000000037,
      "v": 59
    },
    {
      "midi": 65,
      "hit": false,
      "t": 196000.14700000026,
      "d": 571.4290000000037,
      "v": 57
    },
    {
      "midi": 53,
      "hit": false,
      "t": 196000.14700000058,
      "d": 571.4290000000037,
      "v": 82
    },
    {
      "midi": 59,
      "hit": false,
      "t": 196000.14700000058,
      "d": 571.4290000000037,
      "v": 82
    },
    {
      "midi": 62,
      "hit": false,
      "t": 196000.14700000058,
      "d": 571.4290000000037,
      "v": 82
    },
    {
      "midi": 60,
      "hit": false,
      "t": 196571.57600000026,
      "d": 471.4289250000147,
      "v": 45
    },
    {
      "midi": 64,
      "hit": false,
      "t": 196571.57600000026,
      "d": 595.2385416666802,
      "v": 55
    },
    {
      "midi": 67,
      "hit": false,
      "t": 196571.57600000026,
      "d": 819.0482333333348,
      "v": 58
    },
    {
      "midi": 48,
      "hit": false,
      "t": 196571.57600000026,
      "d": 2247.620733333344,
      "v": 63
    },
    {
      "midi": 60,
      "hit": false,
      "t": 196571.57600000058,
      "d": 1142.8580000000075,
      "v": 82
    },
    {
      "midi": 55,
      "hit": false,
      "t": 196857.29050000026,
      "d": 928.572125000006,
      "v": 57
    },
    {
      "midi": 60,
      "hit": false,
      "t": 197166.81454166694,
      "d": 1047.6198333333305,
      "v": 55
    },
    {
      "midi": 64,
      "hit": false,
      "t": 197428.71950000027,
      "d": 590.4766333333391,
      "v": 41
    },
    {
      "midi": 67,
      "hit": false,
      "t": 197714.43400000027,
      "d": 395.2383916666731,
      "v": 56
    },
    {
      "midi": 72,
      "hit": false,
      "t": 197728.71972500058,
      "d": 1142.8580000000366,
      "v": 60
    },
    {
      "midi": 79,
      "hit": false,
      "t": 197733.48163333393,
      "d": 1142.8580000000366,
      "v": 60
    },
    {
      "midi": 84,
      "hit": false,
      "t": 197738.24354166727,
      "d": 1142.8580000000366,
      "v": 60
    },
    {
      "midi": 88,
      "hit": false,
      "t": 197743.0054500006,
      "d": 1142.8580000000366,
      "v": 60
    },
    {
      "midi": 55,
      "hit": false,
      "t": 198000.14850000027,
      "d": 523.8099166666798,
      "v": 52
    }
  ]
}