{
  "jsonPath": "Rock/Folk Rock/James Taylor/dont-let-me-be-lonely-tonight-lp-version.json",
  "path": "Rock\\Folk Rock\\James Taylor\\Dont Let Me Be Lonely Tonight (LP Version).mid",
  "name": "Dont Let Me Be Lonely Tonight (LP Version)",
  "difficulty": "Advanced",
  "bpm": 126.00991698046636,
  "notes": [
    {
      "midi": 66,
      "hit": false,
      "t": 59190.4331,
      "d": 719.078499999996,
      "v": 105
    },
    {
      "midi": 74,
      "hit": false,
      "t": 59190.4331,
      "d": 732.7752333333265,
      "v": 107
    },
    {
      "midi": 71,
      "hit": false,
      "t": 59204.12983333333,
      "d": 705.3817666666655,
      "v": 107
    },
    {
      "midi": 66,
      "hit": false,
      "t": 59998.54036666666,
      "d": 691.6850333333277,
      "v": 93
    },
    {
      "midi": 74,
      "hit": false,
      "t": 59998.54036666666,
      "d": 691.6850333333277,
      "v": 95
    },
    {
      "midi": 71,
      "hit": false,
      "t": 60005.388733333326,
      "d": 677.9882999999973,
      "v": 101
    },
    {
      "midi": 74,
      "hit": false,
      "t": 60813.49599999999,
      "d": 732.7752333333337,
      "v": 105
    },
    {
      "midi": 66,
      "hit": false,
      "t": 60820.34436666666,
      "d": 719.0785000000033,
      "v": 97
    },
    {
      "midi": 70,
      "hit": false,
      "t": 60820.34436666666,
      "d": 725.9268666666685,
      "v": 95
    },
    {
      "midi": 70,
      "hit": false,
      "t": 61648.996733333326,
      "d": 588.9595333333345,
      "v": 105
    },
    {
      "midi": 66,
      "hit": false,
      "t": 61648.996733333326,
      "d": 602.656266666665,
      "v": 107
    },
    {
      "midi": 74,
      "hit": false,
      "t": 61648.996733333326,
      "d": 602.656266666665,
      "v": 101
    },
    {
      "midi": 66,
      "hit": false,
      "t": 62436.55889999999,
      "d": 910.8327666666664,
      "v": 101
    },
    {
      "midi": 74,
      "hit": false,
      "t": 62436.55889999999,
      "d": 924.5294999999969,
      "v": 111
    },
    {
      "midi": 69,
      "hit": false,
      "t": 62443.407266666654,
      "d": 917.6811333333317,
      "v": 109
    },
    {
      "midi": 66,
      "hit": false,
      "t": 63689.80999999998,
      "d": 1458.7021000000022,
      "v": 107
    },
    {
      "midi": 68,
      "hit": false,
      "t": 63689.80999999998,
      "d": 1458.7021000000022,
      "v": 105
    },
    {
      "midi": 74,
      "hit": false,
      "t": 63689.80999999998,
      "d": 1479.2472000000053,
      "v": 109
    },
    {
      "midi": 74,
      "hit": false,
      "t": 65716.92653333332,
      "d": 924.5295000000042,
      "v": 105
    },
    {
      "midi": 66,
      "hit": false,
      "t": 65716.92653333332,
      "d": 986.1647999999986,
      "v": 99
    },
    {
      "midi": 71,
      "hit": false,
      "t": 66127.82853333332,
      "d": 609.5046333333303,
      "v": 91
    },
    {
      "midi": 64,
      "hit": false,
      "t": 66956.48089999998,
      "d": 746.4719666666642,
      "v": 99
    },
    {
      "midi": 69,
      "hit": false,
      "t": 67339.9894333333,
      "d": 356.11506666666537,
      "v": 91
    },
    {
      "midi": 64,
      "hit": false,
      "t": 67778.28489999998,
      "d": 623.2013666666608,
      "v": 105
    },
    {
      "midi": 61,
      "hit": false,
      "t": 67778.28489999998,
      "d": 643.7464666666638,
      "v": 107
    },
    {
      "midi": 69,
      "hit": false,
      "t": 67778.28489999998,
      "d": 643.7464666666638,
      "v": 105
    },
    {
      "midi": 60,
      "hit": false,
      "t": 68600.08889999999,
      "d": 636.8981000000058,
      "v": 109
    },
    {
      "midi": 64,
      "hit": false,
      "t": 68606.93726666666,
      "d": 602.6562666666723,
      "v": 113
    },
    {
      "midi": 67,
      "hit": false,
      "t": 68606.93726666666,
      "d": 602.6562666666723,
      "v": 115
    },
    {
      "midi": 62,
      "hit": false,
      "t": 69408.19616666666,
      "d": 657.4431999999942,
      "v": 113
    },
    {
      "midi": 67,
      "hit": false,
      "t": 69408.19616666666,
      "d": 657.4431999999942,
      "v": 105
    },
    {
      "midi": 59,
      "hit": false,
      "t": 69408.19616666666,
      "d": 664.2915666666668,
      "v": 103
    },
    {
      "midi": 62,
      "hit": false,
      "t": 70230.00016666666,
      "d": 1835.3622666666633,
      "v": 119
    },
    {
      "midi": 66,
      "hit": false,
      "t": 70230.00016666666,
      "d": 1849.0589999999938,
      "v": 99
    },
    {
      "midi": 57,
      "hit": false,
      "t": 70230.00016666666,
      "d": 1869.6040999999968,
      "v": 95
    },
    {
      "midi": 66,
      "hit": false,
      "t": 72325.60036666667,
      "d": 753.3203333333367,
      "v": 97
    },
    {
      "midi": 74,
      "hit": false,
      "t": 72325.60036666667,
      "d": 753.3203333333367,
      "v": 105
    },
    {
      "midi": 71,
      "hit": false,
      "t": 72332.44873333334,
      "d": 753.3203333333367,
      "v": 103
    },
    {
      "midi": 74,
      "hit": false,
      "t": 73154.25273333334,
      "d": 650.5948333333363,
      "v": 101
    },
    {
      "midi": 66,
      "hit": false,
      "t": 73154.25273333334,
      "d": 657.4432000000088,
      "v": 89
    },
    {
      "midi": 71,
      "hit": false,
      "t": 73154.25273333334,
      "d": 677.9883000000118,
      "v": 101
    },
    {
      "midi": 66,
      "hit": false,
      "t": 73962.36000000002,
      "d": 725.9268666666612,
      "v": 99
    },
    {
      "midi": 70,
      "hit": false,
      "t": 73962.36000000002,
      "d": 725.9268666666612,
      "v": 95
    },
    {
      "midi": 76,
      "hit": false,
      "t": 73962.36000000002,
      "d": 732.7752333333337,
      "v": 109
    },
    {
      "midi": 70,
      "hit": false,
      "t": 74784.16400000002,
      "d": 582.1111666666693,
      "v": 103
    },
    {
      "midi": 66,
      "hit": false,
      "t": 74784.16400000002,
      "d": 616.3530000000028,
      "v": 95
    },
    {
      "midi": 76,
      "hit": false,
      "t": 74784.16400000002,
      "d": 650.5948333333363,
      "v": 105
    },
    {
      "midi": 69,
      "hit": false,
      "t": 75551.18106666669,
      "d": 1150.5256000000081,
      "v": 81
    },
    {
      "midi": 66,
      "hit": false,
      "t": 75551.18106666669,
      "d": 1157.3739666666806,
      "v": 89
    },
    {
      "midi": 74,
      "hit": false,
      "t": 75578.57453333335,
      "d": 506.77913333334436,
      "v": 103
    },
    {
      "midi": 78,
      "hit": false,
      "t": 75585.42290000002,
      "d": 438.2954666666774,
      "v": 99
    },
    {
      "midi": 76,
      "hit": false,
      "t": 75982.62816666669,
      "d": 417.7503666666744,
      "v": 97
    },
    {
      "midi": 74,
      "hit": false,
      "t": 76393.5301666667,
      "d": 308.1765000000014,
      "v": 97
    },
    {
      "midi": 71,
      "hit": false,
      "t": 76811.28053333337,
      "d": 1623.0629000000044,
      "v": 105
    },
    {
      "midi": 76,
      "hit": false,
      "t": 76818.12890000004,
      "d": 1643.607999999993,
      "v": 103
    },
    {
      "midi": 68,
      "hit": false,
      "t": 76818.12890000004,
      "d": 1664.153099999996,
      "v": 105
    },
    {
      "midi": 78,
      "hit": false,
      "t": 78872.63890000003,
      "d": 1164.2223333333386,
      "v": 87
    },
    {
      "midi": 74,
      "hit": false,
      "t": 78879.4872666667,
      "d": 335.56996666666237,
      "v": 89
    },
    {
      "midi": 67,
      "hit": false,
      "t": 78893.18400000004,
      "d": 513.6275000000023,
      "v": 83
    },
    {
      "midi": 71,
      "hit": false,
      "t": 78893.18400000004,
      "d": 1198.464166666672,
      "v": 83
    },
    {
      "midi": 74,
      "hit": false,
      "t": 79304.08600000004,
      "d": 773.8654333333398,
      "v": 91
    },
    {
      "midi": 66,
      "hit": false,
      "t": 79694.44290000004,
      "d": 404.0536333333439,
      "v": 69
    },
    {
      "midi": 67,
      "hit": false,
      "t": 80098.49653333338,
      "d": 732.7752333333337,
      "v": 99
    },
    {
      "midi": 74,
      "hit": false,
      "t": 80098.49653333338,
      "d": 732.7752333333337,
      "v": 91
    },
    {
      "midi": 76,
      "hit": false,
      "t": 80098.49653333338,
      "d": 767.0170666666672,
      "v": 95
    },
    {
      "midi": 76,
      "hit": false,
      "t": 80947.69400000005,
      "d": 691.6850333333423,
      "v": 101
    },
    {
      "midi": 73,
      "hit": false,
      "t": 80954.54236666672,
      "d": 677.9882999999973,
      "v": 103
    },
    {
      "midi": 69,
      "hit": false,
      "t": 80954.54236666672,
      "d": 698.5334000000003,
      "v": 95
    },
    {
      "midi": 76,
      "hit": false,
      "t": 81748.95290000005,
      "d": 1088.8902999999991,
      "v": 115
    },
    {
      "midi": 67,
      "hit": false,
      "t": 81748.95290000005,
      "d": 1609.3661666666594,
      "v": 107
    },
    {
      "midi": 72,
      "hit": false,
      "t": 81748.95290000005,
      "d": 1629.9112666666624,
      "v": 115
    },
    {
      "midi": 76,
      "hit": false,
      "t": 83009.05236666671,
      "d": 335.56996666666237,
      "v": 111
    },
    {
      "midi": 67,
      "hit": false,
      "t": 83419.95436666672,
      "d": 5197.910300000003,
      "v": 91
    },
    {
      "midi": 71,
      "hit": false,
      "t": 83419.95436666672,
      "d": 5232.152133333337,
      "v": 93
    },
    {
      "midi": 74,
      "hit": false,
      "t": 83426.80273333339,
      "d": 5204.758666666661,
      "v": 101
    },
    {
      "midi": 66,
      "hit": false,
      "t": 88720.59016666672,
      "d": 2609.227700000003,
      "v": 83
    },
    {
      "midi": 62,
      "hit": false,
      "t": 88727.43853333339,
      "d": 2664.014633333325,
      "v": 93
    },
    {
      "midi": 59,
      "hit": false,
      "t": 88727.43853333339,
      "d": 2670.8629999999976,
      "v": 93
    },
    {
      "midi": 55,
      "hit": false,
      "t": 88727.43853333339,
      "d": 2780.4368666666705,
      "v": 79
    },
    {
      "midi": 40,
      "hit": false,
      "t": 88727.43853333339,
      "d": 3013.2813333333324,
      "v": 83
    },
    {
      "midi": 54,
      "hit": false,
      "t": 91987.26106666673,
      "d": 883.4393000000127,
      "v": 73
    },
    {
      "midi": 64,
      "hit": false,
      "t": 91994.1094333334,
      "d": 917.6811333333462,
      "v": 87
    },
    {
      "midi": 57,
      "hit": false,
      "t": 91994.1094333334,
      "d": 924.5295000000187,
      "v": 91
    },
    {
      "midi": 61,
      "hit": false,
      "t": 91994.1094333334,
      "d": 972.4680666666827,
      "v": 77
    },
    {
      "midi": 38,
      "hit": false,
      "t": 91994.1094333334,
      "d": 1164.2223333333532,
      "v": 83
    },
    {
      "midi": 54,
      "hit": false,
      "t": 93240.51216666675,
      "d": 1684.6982000000135,
      "v": 69
    },
    {
      "midi": 60,
      "hit": false,
      "t": 93254.20890000009,
      "d": 1643.6080000000075,
      "v": 81
    },
    {
      "midi": 57,
      "hit": false,
      "t": 93254.20890000009,
      "d": 1650.45636666668,
      "v": 85
    },
    {
      "midi": 47,
      "hit": false,
      "t": 93254.20890000009,
      "d": 1698.394933333344,
      "v": 71
    },
    {
      "midi": 69,
      "hit": false,
      "t": 94897.81690000009,
      "d": 465.6889333333238,
      "v": 117
    },
    {
      "midi": 66,
      "hit": false,
      "t": 95301.87053333342,
      "d": 2670.862999999983,
      "v": 75
    },
    {
      "midi": 62,
      "hit": false,
      "t": 95329.26400000008,
      "d": 2616.076066666661,
      "v": 91
    },
    {
      "midi": 59,
      "hit": false,
      "t": 95336.11236666676,
      "d": 2643.469533333322,
      "v": 83
    },
    {
      "midi": 55,
      "hit": false,
      "t": 95336.11236666676,
      "d": 2677.7113666666555,
      "v": 77
    },
    {
      "midi": 62,
      "hit": false,
      "t": 98185.03290000008,
      "d": 417.7503666666744,
      "v": 97
    },
    {
      "midi": 61,
      "hit": false,
      "t": 98595.93490000008,
      "d": 1150.5256000000081,
      "v": 89
    },
    {
      "midi": 66,
      "hit": false,
      "t": 98602.78326666675,
      "d": 1177.919066666669,
      "v": 87
    },
    {
      "midi": 57,
      "hit": false,
      "t": 98623.32836666676,
      "d": 1191.6157999999996,
      "v": 81
    },
    {
      "midi": 69,
      "hit": false,
      "t": 99041.07873333342,
      "d": 753.3203333333367,
      "v": 65
    },
    {
      "midi": 63,
      "hit": false,
      "t": 99821.79253333343,
      "d": 1739.48513333335,
      "v": 65
    },
    {
      "midi": 57,
      "hit": false,
      "t": 99828.6409000001,
      "d": 1732.6367666666774,
      "v": 69
    },
    {
      "midi": 66,
      "hit": false,
      "t": 99828.6409000001,
      "d": 1732.6367666666774,
      "v": 73
    },
    {
      "midi": 71,
      "hit": false,
      "t": 99835.48926666677,
      "d": 1739.4851333333354,
      "v": 75
    },
    {
      "midi": 62,
      "hit": false,
      "t": 102321.44636666677,
      "d": 335.56996666666237,
      "v": 81
    },
    {
      "midi": 66,
      "hit": false,
      "t": 102725.5000000001,
      "d": 767.0170666666672,
      "v": 71
    },
    {
      "midi": 62,
      "hit": false,
      "t": 102732.34836666677,
      "d": 780.7137999999977,
      "v": 71
    },
    {
      "midi": 55,
      "hit": false,
      "t": 102739.19673333345,
      "d": 773.8654333333252,
      "v": 71
    },
    {
      "midi": 59,
      "hit": false,
      "t": 102739.19673333345,
      "d": 773.8654333333252,
      "v": 69
    },
    {
      "midi": 71,
      "hit": false,
      "t": 103156.9471000001,
      "d": 390.35689999999886,
      "v": 79
    },
    {
      "midi": 54,
      "hit": false,
      "t": 103547.3040000001,
      "d": 1629.911266666677,
      "v": 65
    },
    {
      "midi": 73,
      "hit": false,
      "t": 103554.15236666678,
      "d": 1027.2550000000047,
      "v": 59
    },
    {
      "midi": 64,
      "hit": false,
      "t": 103554.15236666678,
      "d": 1650.4563666666654,
      "v": 63
    },
    {
      "midi": 69,
      "hit": false,
      "t": 103561.00073333345,
      "d": 1616.214533333332,
      "v": 81
    },
    {
      "midi": 73,
      "hit": false,
      "t": 104780.01000000011,
      "d": 424.59873333333235,
      "v": 69
    },
    {
      "midi": 66,
      "hit": false,
      "t": 105177.21526666678,
      "d": 876.5909333333402,
      "v": 65
    },
    {
      "midi": 71,
      "hit": false,
      "t": 105190.91200000011,
      "d": 924.5295000000042,
      "v": 77
    },
    {
      "midi": 57,
      "hit": false,
      "t": 105211.45710000012,
      "d": 835.5007333333342,
      "v": 69
    },
    {
      "midi": 62,
      "hit": false,
      "t": 105211.45710000012,
      "d": 1040.9517333333351,
      "v": 77
    },
    {
      "midi": 74,
      "hit": false,
      "t": 105615.51073333345,
      "d": 691.6850333333423,
      "v": 77
    },
    {
      "midi": 56,
      "hit": false,
      "t": 106403.07290000012,
      "d": 1835.3622666666633,
      "v": 53
    },
    {
      "midi": 62,
      "hit": false,
      "t": 106409.92126666679,
      "d": 1794.2720666666573,
      "v": 77
    },
    {
      "midi": 76,
      "hit": false,
      "t": 106409.92126666679,
      "d": 1835.3622666666633,
      "v": 75
    },
    {
      "midi": 64,
      "hit": false,
      "t": 106423.61800000012,
      "d": 1794.2720666666573,
      "v": 67
    },
    {
      "midi": 74,
      "hit": false,
      "t": 109717.68236666679,
      "d": 1136.828866666663,
      "v": 77
    },
    {
      "midi": 74,
      "hit": false,
      "t": 110957.23673333346,
      "d": 725.9268666666612,
      "v": 75
    },
    {
      "midi": 78,
      "hit": false,
      "t": 111751.64726666678,
      "d": 698.5333999999857,
      "v": 83
    },
    {
      "midi": 69,
      "hit": false,
      "t": 111984.49173333345,
      "d": 1513.489033333317,
      "v": 59
    },
    {
      "midi": 72,
      "hit": false,
      "t": 112183.09436666677,
      "d": 1465.550466666653,
      "v": 55
    },
    {
      "midi": 81,
      "hit": false,
      "t": 112388.54536666677,
      "d": 280.7830333333259,
      "v": 79
    },
    {
      "midi": 79,
      "hit": false,
      "t": 112607.6931000001,
      "d": 260.23793333332287,
      "v": 85
    },
    {
      "midi": 78,
      "hit": false,
      "t": 112833.6892000001,
      "d": 376.6601666666684,
      "v": 85
    },
    {
      "midi": 74,
      "hit": false,
      "t": 113210.34936666676,
      "d": 1581.972699999984,
      "v": 79
    },
    {
      "midi": 67,
      "hit": false,
      "t": 113799.30890000009,
      "d": 1219.0092666666606,
      "v": 51
    },
    {
      "midi": 72,
      "hit": false,
      "t": 114032.15336666675,
      "d": 972.4680666666682,
      "v": 57
    },
    {
      "midi": 78,
      "hit": false,
      "t": 114627.96126666675,
      "d": 404.05363333332934,
      "v": 61
    },
    {
      "midi": 74,
      "hit": false,
      "t": 115073.10510000009,
      "d": 342.4183333333349,
      "v": 69
    },
    {
      "midi": 79,
      "hit": false,
      "t": 115073.10510000009,
      "d": 356.11506666666537,
      "v": 75
    },
    {
      "midi": 83,
      "hit": false,
      "t": 115086.80183333342,
      "d": 328.7216000000044,
      "v": 71
    },
    {
      "midi": 74,
      "hit": false,
      "t": 115504.5522000001,
      "d": 643.7464666666638,
      "v": 75
    },
    {
      "midi": 79,
      "hit": false,
      "t": 115504.5522000001,
      "d": 643.7464666666638,
      "v": 83
    },
    {
      "midi": 83,
      "hit": false,
      "t": 115504.5522000001,
      "d": 650.5948333333363,
      "v": 73
    },
    {
      "midi": 83,
      "hit": false,
      "t": 116298.96273333344,
      "d": 308.1765000000014,
      "v": 57
    },
    {
      "midi": 79,
      "hit": false,
      "t": 116298.96273333344,
      "d": 328.7216000000044,
      "v": 67
    },
    {
      "midi": 74,
      "hit": false,
      "t": 116305.81110000011,
      "d": 273.9346666666679,
      "v": 53
    },
    {
      "midi": 78,
      "hit": false,
      "t": 116730.40983333344,
      "d": 315.0248666666739,
      "v": 77
    },
    {
      "midi": 73,
      "hit": false,
      "t": 116737.25820000011,
      "d": 1171.0706999999966,
      "v": 71
    },
    {
      "midi": 81,
      "hit": false,
      "t": 116737.25820000011,
      "d": 1239.5543666666636,
      "v": 73
    },
    {
      "midi": 78,
      "hit": false,
      "t": 117113.91836666678,
      "d": 862.8941999999952,
      "v": 63
    },
    {
      "midi": 76,
      "hit": false,
      "t": 117894.63216666678,
      "d": 431.4470999999903,
      "v": 85
    },
    {
      "midi": 74,
      "hit": false,
      "t": 118326.07926666677,
      "d": 445.14383333333535,
      "v": 81
    },
    {
      "midi": 66,
      "hit": false,
      "t": 118730.1329000001,
      "d": 2520.198933333333,
      "v": 57
    },
    {
      "midi": 74,
      "hit": false,
      "t": 119175.27673333343,
      "d": 2061.3583666666673,
      "v": 65
    },
    {
      "midi": 74,
      "hit": false,
      "t": 124948.44983333343,
      "d": 246.54120000000694,
      "v": 59
    },
    {
      "midi": 74,
      "hit": false,
      "t": 125338.80673333345,
      "d": 273.9346666666679,
      "v": 63
    },
    {
      "midi": 74,
      "hit": false,
      "t": 125777.10220000011,
      "d": 2102.4485666666733,
      "v": 57
    },
    {
      "midi": 66,
      "hit": false,
      "t": 131468.0949000001,
      "d": 2122.9936666666763,
      "v": 55
    },
    {
      "midi": 59,
      "hit": false,
      "t": 131474.94326666679,
      "d": 2116.1453000000038,
      "v": 81
    },
    {
      "midi": 62,
      "hit": false,
      "t": 131488.64000000013,
      "d": 2061.3583666666527,
      "v": 83
    },
    {
      "midi": 55,
      "hit": false,
      "t": 131488.64000000013,
      "d": 2095.600199999986,
      "v": 53
    },
    {
      "midi": 52,
      "hit": false,
      "t": 131488.64000000013,
      "d": 2212.0224333333317,
      "v": 69
    },
    {
      "midi": 66,
      "hit": false,
      "t": 133940.3552666668,
      "d": 712.2301333333598,
      "v": 55
    },
    {
      "midi": 55,
      "hit": false,
      "t": 133954.05200000014,
      "d": 684.8366666666698,
      "v": 67
    },
    {
      "midi": 59,
      "hit": false,
      "t": 133960.9003666668,
      "d": 677.9882999999973,
      "v": 89
    },
    {
      "midi": 62,
      "hit": false,
      "t": 133967.7487333335,
      "d": 671.1399333333247,
      "v": 91
    },
    {
      "midi": 52,
      "hit": false,
      "t": 133967.7487333335,
      "d": 719.0785000000033,
      "v": 69
    },
    {
      "midi": 50,
      "hit": false,
      "t": 134796.40110000016,
      "d": 1212.1609000000171,
      "v": 75
    },
    {
      "midi": 54,
      "hit": false,
      "t": 134810.0978333335,
      "d": 1143.6772333333502,
      "v": 49
    },
    {
      "midi": 57,
      "hit": false,
      "t": 134810.0978333335,
      "d": 1164.2223333333386,
      "v": 83
    },
    {
      "midi": 61,
      "hit": false,
      "t": 134810.0978333335,
      "d": 1198.464166666672,
      "v": 71
    },
    {
      "midi": 64,
      "hit": false,
      "t": 134823.79456666685,
      "d": 1184.767433333327,
      "v": 73
    },
    {
      "midi": 51,
      "hit": false,
      "t": 136042.8038333335,
      "d": 1547.7308666666795,
      "v": 67
    },
    {
      "midi": 54,
      "hit": false,
      "t": 136042.8038333335,
      "d": 1581.972700000013,
      "v": 57
    },
    {
      "midi": 47,
      "hit": false,
      "t": 136056.50056666686,
      "d": 1540.882500000007,
      "v": 65
    },
    {
      "midi": 71,
      "hit": false,
      "t": 136816.66926666687,
      "d": 1123.1321333333326,
      "v": 79
    },
    {
      "midi": 66,
      "hit": false,
      "t": 138015.13343333354,
      "d": 780.7138000000268,
      "v": 47
    },
    {
      "midi": 52,
      "hit": false,
      "t": 138028.83016666688,
      "d": 787.5621666666702,
      "v": 63
    },
    {
      "midi": 55,
      "hit": false,
      "t": 138049.37526666687,
      "d": 746.4719666666933,
      "v": 53
    },
    {
      "midi": 59,
      "hit": false,
      "t": 138063.07200000022,
      "d": 732.7752333333483,
      "v": 77
    },
    {
      "midi": 62,
      "hit": false,
      "t": 138069.9203666669,
      "d": 725.9268666666758,
      "v": 75
    },
    {
      "midi": 66,
      "hit": false,
      "t": 138884.87600000022,
      "d": 753.3203333333659,
      "v": 53
    },
    {
      "midi": 59,
      "hit": false,
      "t": 138898.57273333357,
      "d": 671.1399333333538,
      "v": 75
    },
    {
      "midi": 62,
      "hit": false,
      "t": 138898.57273333357,
      "d": 719.0785000000324,
      "v": 79
    },
    {
      "midi": 55,
      "hit": false,
      "t": 138905.42110000024,
      "d": 677.9883000000264,
      "v": 45
    },
    {
      "midi": 52,
      "hit": false,
      "t": 138919.11783333358,
      "d": 732.7752333333483,
      "v": 67
    },
    {
      "midi": 45,
      "hit": false,
      "t": 139692.98326666694,
      "d": 1129.9805000000051,
      "v": 71
    },
    {
      "midi": 66,
      "hit": false,
      "t": 139713.52836666693,
      "d": 965.6197000000102,
      "v": 51
    },
    {
      "midi": 55,
      "hit": false,
      "t": 139720.3767333336,
      "d": 1410.7635333333455,
      "v": 43
    },
    {
      "midi": 62,
      "hit": false,
      "t": 139727.22510000027,
      "d": 1184.767433333327,
      "v": 73
    },
    {
      "midi": 59,
      "hit": false,
      "t": 139727.22510000027,
      "d": 1260.0994666666666,
      "v": 77
    },
    {
      "midi": 66,
      "hit": false,
      "t": 140911.9925333336,
      "d": 301.328133333358,
      "v": 93
    },
    {
      "midi": 62,
      "hit": false,
      "t": 141124.29190000027,
      "d": 136.96733333336306,
      "v": 81
    },
    {
      "midi": 54,
      "hit": false,
      "t": 141329.7429000003,
      "d": 993.0131666667003,
      "v": 47
    },
    {
      "midi": 57,
      "hit": false,
      "t": 141336.59126666698,
      "d": 972.4680666666827,
      "v": 79
    },
    {
      "midi": 61,
      "hit": false,
      "t": 141350.28800000032,
      "d": 972.4680666666827,
      "v": 61
    },
    {
      "midi": 64,
      "hit": false,
      "t": 141350.28800000032,
      "d": 972.4680666666827,
      "v": 63
    },
    {
      "midi": 63,
      "hit": false,
      "t": 142569.297266667,
      "d": 1725.7883999999904,
      "v": 77
    },
    {
      "midi": 57,
      "hit": false,
      "t": 142589.842366667,
      "d": 1677.849833333341,
      "v": 75
    },
    {
      "midi": 54,
      "hit": false,
      "t": 142603.53910000034,
      "d": 1657.3047333333234,
      "v": 51
    },
    {
      "midi": 60,
      "hit": false,
      "t": 142617.2358333337,
      "d": 1623.06289999999,
      "v": 81
    },
    {
      "midi": 66,
      "hit": false,
      "t": 144651.20073333368,
      "d": 753.3203333333076,
      "v": 51
    },
    {
      "midi": 55,
      "hit": false,
      "t": 144671.74583333367,
      "d": 698.5333999999857,
      "v": 53
    },
    {
      "midi": 59,
      "hit": false,
      "t": 144671.74583333367,
      "d": 698.5333999999857,
      "v": 81
    },
    {
      "midi": 62,
      "hit": false,
      "t": 144671.74583333367,
      "d": 732.7752333333192,
      "v": 79
    },
    {
      "midi": 55,
      "hit": false,
      "t": 145493.54983333364,
      "d": 1520.3374000000185,
      "v": 53
    },
    {
      "midi": 66,
      "hit": false,
      "t": 145493.54983333364,
      "d": 1520.3374000000185,
      "v": 55
    },
    {
      "midi": 59,
      "hit": false,
      "t": 145500.39820000032,
      "d": 1479.2472000000125,
      "v": 79
    },
    {
      "midi": 62,
      "hit": false,
      "t": 145507.246566667,
      "d": 1472.39883333334,
      "v": 83
    },
    {
      "midi": 66,
      "hit": false,
      "t": 147102.91600000032,
      "d": 582.1111666666693,
      "v": 55
    },
    {
      "midi": 59,
      "hit": false,
      "t": 147116.61273333366,
      "d": 568.4144333333243,
      "v": 83
    },
    {
      "midi": 55,
      "hit": false,
      "t": 147116.61273333366,
      "d": 582.1111666666693,
      "v": 57
    },
    {
      "midi": 62,
      "hit": false,
      "t": 147116.61273333366,
      "d": 582.1111666666693,
      "v": 83
    },
    {
      "midi": 54,
      "hit": false,
      "t": 147911.023266667,
      "d": 1054.6484666666656,
      "v": 51
    },
    {
      "midi": 57,
      "hit": false,
      "t": 147911.023266667,
      "d": 1054.6484666666656,
      "v": 77
    },
    {
      "midi": 61,
      "hit": false,
      "t": 147911.023266667,
      "d": 1054.6484666666656,
      "v": 71
    },
    {
      "midi": 64,
      "hit": false,
      "t": 147924.72000000035,
      "d": 1040.9517333333206,
      "v": 63
    },
    {
      "midi": 54,
      "hit": false,
      "t": 149130.03253333367,
      "d": 1773.7269666666398,
      "v": 55
    },
    {
      "midi": 63,
      "hit": false,
      "t": 149136.88090000034,
      "d": 1801.1204333333008,
      "v": 67
    },
    {
      "midi": 57,
      "hit": false,
      "t": 149157.42600000033,
      "d": 1753.1818666666513,
      "v": 75
    },
    {
      "midi": 60,
      "hit": false,
      "t": 149164.274366667,
      "d": 1191.6157999999705,
      "v": 81
    },
    {
      "midi": 71,
      "hit": false,
      "t": 149965.533266667,
      "d": 541.0209666666633,
      "v": 83
    },
    {
      "midi": 59,
      "hit": false,
      "t": 150335.34506666698,
      "d": 849.1974666666356,
      "v": 59
    },
    {
      "midi": 69,
      "hit": false,
      "t": 150568.18953333364,
      "d": 630.0497333333187,
      "v": 81
    },
    {
      "midi": 66,
      "hit": false,
      "t": 151163.99743333363,
      "d": 972.4680666666827,
      "v": 53
    },
    {
      "midi": 55,
      "hit": false,
      "t": 151184.54253333362,
      "d": 897.1360333333432,
      "v": 57
    },
    {
      "midi": 59,
      "hit": false,
      "t": 151191.3909000003,
      "d": 856.0458333333372,
      "v": 79
    },
    {
      "midi": 62,
      "hit": false,
      "t": 151198.23926666696,
      "d": 890.2876666666707,
      "v": 73
    },
    {
      "midi": 66,
      "hit": false,
      "t": 152396.70343333363,
      "d": 287.63139999998384,
      "v": 61
    },
    {
      "midi": 62,
      "hit": false,
      "t": 152417.24853333362,
      "d": 527.3242333333183,
      "v": 81
    },
    {
      "midi": 59,
      "hit": false,
      "t": 152417.24853333362,
      "d": 1739.4851333333063,
      "v": 87
    },
    {
      "midi": 55,
      "hit": false,
      "t": 152417.24853333362,
      "d": 1760.0302333332947,
      "v": 63
    },
    {
      "midi": 66,
      "hit": false,
      "t": 152807.6054333336,
      "d": 1369.6733333333104,
      "v": 71
    },
    {
      "midi": 62,
      "hit": false,
      "t": 153239.0525333336,
      "d": 897.1360333333432,
      "v": 75
    },
    {
      "midi": 54,
      "hit": false,
      "t": 154478.60690000025,
      "d": 1102.5870333333442,
      "v": 49
    },
    {
      "midi": 64,
      "hit": false,
      "t": 154499.15200000023,
      "d": 1095.7386666667007,
      "v": 63
    },
    {
      "midi": 61,
      "hit": false,
      "t": 154506.0003666669,
      "d": 1020.4066333333321,
      "v": 59
    },
    {
      "midi": 57,
      "hit": false,
      "t": 154506.0003666669,
      "d": 1061.4968333333381,
      "v": 75
    },
    {
      "midi": 50,
      "hit": false,
      "t": 154506.0003666669,
      "d": 1102.5870333333733,
      "v": 71
    },
    {
      "midi": 66,
      "hit": false,
      "t": 155711.31290000028,
      "d": 4595.254033333389,
      "v": 55
    },
    {
      "midi": 64,
      "hit": false,
      "t": 155718.16126666695,
      "d": 4554.163833333383,
      "v": 83
    },
    {
      "midi": 55,
      "hit": false,
      "t": 155731.8580000003,
      "d": 4533.6187333333655,
      "v": 69
    },
    {
      "midi": 48,
      "hit": false,
      "t": 155731.8580000003,
      "d": 4574.7089333333715,
      "v": 85
    },
    {
      "midi": 62,
      "hit": false,
      "t": 155738.70636666697,
      "d": 4519.9220000000205,
      "v": 83
    },
    {
      "midi": 90,
      "hit": false,
      "t": 156930.32216666697,
      "d": 3232.429066666693,
      "v": 67
    },
    {
      "midi": 86,
      "hit": false,
      "t": 157252.19540000032,
      "d": 2896.8591000000015,
      "v": 73
    },
    {
      "midi": 79,
      "hit": false,
      "t": 157519.2817000003,
      "d": 2670.863000000012,
      "v": 69
    }
  ]
}