{
  "jsonPath": "Rock/Folk Rock/James Taylor/shed-a-little-light.json",
  "path": "Rock\\Folk Rock\\James Taylor\\Shed A Little Light.mid",
  "name": "Shed A Little Light",
  "difficulty": "Advanced",
  "bpm": 130.00041166797027,
  "notes": [
    {
      "midi": 66,
      "hit": false,
      "t": 1494.5619791666666,
      "d": 1145.1838541666668,
      "v": 72
    },
    {
      "midi": 60,
      "hit": false,
      "t": 1494.5619791666666,
      "d": 1156.8297916666668,
      "v": 79
    },
    {
      "midi": 69,
      "hit": false,
      "t": 1494.5619791666666,
      "d": 1156.8297916666668,
      "v": 82
    },
    {
      "midi": 54,
      "hit": false,
      "t": 1494.5619791666666,
      "d": 1172.3577083333332,
      "v": 66
    },
    {
      "midi": 67,
      "hit": false,
      "t": 2981.3599999999997,
      "d": 1114.1280208333333,
      "v": 73
    },
    {
      "midi": 55,
      "hit": false,
      "t": 2981.3599999999997,
      "d": 1129.6559374999997,
      "v": 71
    },
    {
      "midi": 70,
      "hit": false,
      "t": 2981.3599999999997,
      "d": 1129.6559374999997,
      "v": 60
    },
    {
      "midi": 62,
      "hit": false,
      "t": 2981.3599999999997,
      "d": 1176.2396874999995,
      "v": 55
    },
    {
      "midi": 63,
      "hit": false,
      "t": 4472.039999999999,
      "d": 310.5583333333334,
      "v": 72
    },
    {
      "midi": 67,
      "hit": false,
      "t": 4472.039999999999,
      "d": 310.5583333333334,
      "v": 76
    },
    {
      "midi": 58,
      "hit": false,
      "t": 4472.039999999999,
      "d": 318.3222916666664,
      "v": 60
    },
    {
      "midi": 48,
      "hit": false,
      "t": 4472.039999999999,
      "d": 353.2601041666667,
      "v": 58
    },
    {
      "midi": 51,
      "hit": false,
      "t": 5213.498020833333,
      "d": 353.2601041666667,
      "v": 58
    },
    {
      "midi": 65,
      "hit": false,
      "t": 5213.498020833333,
      "d": 395.96187499999996,
      "v": 70
    },
    {
      "midi": 62,
      "hit": false,
      "t": 5213.498020833333,
      "d": 403.72583333333296,
      "v": 65
    },
    {
      "midi": 58,
      "hit": false,
      "t": 5213.498020833333,
      "d": 434.78166666666584,
      "v": 57
    },
    {
      "midi": 57,
      "hit": false,
      "t": 5962.719999999998,
      "d": 947.2029166666662,
      "v": 56
    },
    {
      "midi": 60,
      "hit": false,
      "t": 5962.719999999998,
      "d": 970.4947916666661,
      "v": 66
    },
    {
      "midi": 41,
      "hit": false,
      "t": 5962.719999999998,
      "d": 2170.0263541666654,
      "v": 51
    },
    {
      "midi": 65,
      "hit": false,
      "t": 5962.719999999998,
      "d": 2247.665937499999,
      "v": 66
    },
    {
      "midi": 58,
      "hit": false,
      "t": 7080.729999999998,
      "d": 131.98729166666635,
      "v": 51
    },
    {
      "midi": 60,
      "hit": false,
      "t": 7080.729999999998,
      "d": 1207.2955208333333,
      "v": 80
    },
    {
      "midi": 53,
      "hit": false,
      "t": 7453.399999999998,
      "d": 380.43395833333307,
      "v": 36
    },
    {
      "midi": 57,
      "hit": false,
      "t": 7453.399999999998,
      "d": 873.4453125,
      "v": 36
    },
    {
      "midi": 43,
      "hit": false,
      "t": 8575.291979166665,
      "d": 139.75124999999935,
      "v": 74
    },
    {
      "midi": 58,
      "hit": false,
      "t": 8575.291979166665,
      "d": 139.75124999999935,
      "v": 89
    },
    {
      "midi": 65,
      "hit": false,
      "t": 8575.291979166665,
      "d": 201.86291666666511,
      "v": 74
    },
    {
      "midi": 45,
      "hit": false,
      "t": 8761.626979166664,
      "d": 50.46572916666628,
      "v": 48
    },
    {
      "midi": 60,
      "hit": false,
      "t": 8761.626979166664,
      "d": 93.16749999999956,
      "v": 85
    },
    {
      "midi": 62,
      "hit": false,
      "t": 8947.961979166663,
      "d": 1191.7676041666673,
      "v": 75
    },
    {
      "midi": 53,
      "hit": false,
      "t": 8947.961979166663,
      "d": 1218.9414583333346,
      "v": 62
    },
    {
      "midi": 58,
      "hit": false,
      "t": 8947.961979166663,
      "d": 1234.4693750000006,
      "v": 57
    },
    {
      "midi": 46,
      "hit": false,
      "t": 8947.961979166663,
      "d": 1269.4071875000009,
      "v": 50
    },
    {
      "midi": 62,
      "hit": false,
      "t": 10438.641979166663,
      "d": 1129.6559374999997,
      "v": 55
    },
    {
      "midi": 65,
      "hit": false,
      "t": 10438.641979166663,
      "d": 1145.1838541666657,
      "v": 63
    },
    {
      "midi": 58,
      "hit": false,
      "t": 10438.641979166663,
      "d": 1176.2396874999995,
      "v": 53
    },
    {
      "midi": 50,
      "hit": false,
      "t": 10438.641979166663,
      "d": 1222.8234374999993,
      "v": 47
    },
    {
      "midi": 58,
      "hit": false,
      "t": 11929.321979166662,
      "d": 341.6141666666663,
      "v": 72
    },
    {
      "midi": 63,
      "hit": false,
      "t": 11929.321979166662,
      "d": 341.6141666666663,
      "v": 74
    },
    {
      "midi": 67,
      "hit": false,
      "t": 11929.321979166662,
      "d": 341.6141666666663,
      "v": 78
    },
    {
      "midi": 51,
      "hit": false,
      "t": 11929.321979166662,
      "d": 388.19791666666606,
      "v": 73
    },
    {
      "midi": 69,
      "hit": false,
      "t": 12674.661979166662,
      "d": 287.2664583333335,
      "v": 79
    },
    {
      "midi": 42,
      "hit": false,
      "t": 12674.661979166662,
      "d": 341.6141666666663,
      "v": 58
    },
    {
      "midi": 66,
      "hit": false,
      "t": 12674.661979166662,
      "d": 380.43395833333307,
      "v": 71
    },
    {
      "midi": 60,
      "hit": false,
      "t": 12674.661979166662,
      "d": 392.07989583333256,
      "v": 76
    },
    {
      "midi": 58,
      "hit": false,
      "t": 13420.00197916666,
      "d": 1086.9541666666664,
      "v": 53
    },
    {
      "midi": 67,
      "hit": false,
      "t": 13420.00197916666,
      "d": 1086.9541666666664,
      "v": 66
    },
    {
      "midi": 62,
      "hit": false,
      "t": 13420.00197916666,
      "d": 1102.4820833333324,
      "v": 72
    },
    {
      "midi": 43,
      "hit": false,
      "t": 13420.00197916666,
      "d": 1133.5379166666662,
      "v": 72
    },
    {
      "midi": 65,
      "hit": false,
      "t": 14910.68197916666,
      "d": 380.43395833333307,
      "v": 80
    },
    {
      "midi": 69,
      "hit": false,
      "t": 14910.68197916666,
      "d": 415.37177083333336,
      "v": 77
    },
    {
      "midi": 60,
      "hit": false,
      "t": 14910.68197916666,
      "d": 438.66364583333416,
      "v": 72
    },
    {
      "midi": 53,
      "hit": false,
      "t": 14910.68197916666,
      "d": 477.48343750000095,
      "v": 70
    },
    {
      "midi": 65,
      "hit": false,
      "t": 15656.02197916666,
      "d": 329.9682291666668,
      "v": 71
    },
    {
      "midi": 50,
      "hit": false,
      "t": 15656.02197916666,
      "d": 364.9060416666671,
      "v": 56
    },
    {
      "midi": 62,
      "hit": false,
      "t": 15656.02197916666,
      "d": 380.43395833333307,
      "v": 57
    },
    {
      "midi": 70,
      "hit": false,
      "t": 15656.02197916666,
      "d": 434.78166666666584,
      "v": 58
    },
    {
      "midi": 67,
      "hit": false,
      "t": 16401.36197916666,
      "d": 314.440312499999,
      "v": 66
    },
    {
      "midi": 63,
      "hit": false,
      "t": 16401.36197916666,
      "d": 341.6141666666663,
      "v": 60
    },
    {
      "midi": 51,
      "hit": false,
      "t": 16401.36197916666,
      "d": 380.43395833333125,
      "v": 62
    },
    {
      "midi": 58,
      "hit": false,
      "t": 16401.36197916666,
      "d": 403.72583333333023,
      "v": 53
    },
    {
      "midi": 62,
      "hit": false,
      "t": 17146.701979166657,
      "d": 399.84385416666555,
      "v": 73
    },
    {
      "midi": 46,
      "hit": false,
      "t": 17146.701979166657,
      "d": 454.19156250000015,
      "v": 66
    },
    {
      "midi": 58,
      "hit": false,
      "t": 17146.701979166657,
      "d": 485.2473958333321,
      "v": 52
    },
    {
      "midi": 65,
      "hit": false,
      "t": 17146.701979166657,
      "d": 504.6572916666664,
      "v": 76
    },
    {
      "midi": 48,
      "hit": false,
      "t": 17892.041979166657,
      "d": 403.72583333333387,
      "v": 60
    },
    {
      "midi": 58,
      "hit": false,
      "t": 17892.041979166657,
      "d": 430.89968750000116,
      "v": 48
    },
    {
      "midi": 63,
      "hit": false,
      "t": 17892.041979166657,
      "d": 430.89968750000116,
      "v": 66
    },
    {
      "midi": 67,
      "hit": false,
      "t": 17892.041979166657,
      "d": 430.89968750000116,
      "v": 71
    },
    {
      "midi": 62,
      "hit": false,
      "t": 18637.381979166657,
      "d": 345.4961458333346,
      "v": 74
    },
    {
      "midi": 58,
      "hit": false,
      "t": 18637.381979166657,
      "d": 357.1420833333359,
      "v": 56
    },
    {
      "midi": 65,
      "hit": false,
      "t": 18637.381979166657,
      "d": 364.9060416666689,
      "v": 82
    },
    {
      "midi": 51,
      "hit": false,
      "t": 18637.381979166657,
      "d": 407.6078125000022,
      "v": 56
    },
    {
      "midi": 60,
      "hit": false,
      "t": 19382.72197916666,
      "d": 768.6318749999991,
      "v": 69
    },
    {
      "midi": 65,
      "hit": false,
      "t": 19382.72197916666,
      "d": 838.5074999999997,
      "v": 63
    },
    {
      "midi": 57,
      "hit": false,
      "t": 19382.72197916666,
      "d": 850.153437500001,
      "v": 55
    },
    {
      "midi": 53,
      "hit": false,
      "t": 19382.72197916666,
      "d": 1114.1280208333337,
      "v": 58
    },
    {
      "midi": 58,
      "hit": false,
      "t": 20496.849999999995,
      "d": 128.10531249999985,
      "v": 69
    },
    {
      "midi": 65,
      "hit": false,
      "t": 20496.849999999995,
      "d": 143.63322916666584,
      "v": 73
    },
    {
      "midi": 65,
      "hit": false,
      "t": 20869.519999999993,
      "d": 916.1470833333333,
      "v": 76
    },
    {
      "midi": 41,
      "hit": false,
      "t": 20869.519999999993,
      "d": 927.7930208333346,
      "v": 43
    },
    {
      "midi": 57,
      "hit": false,
      "t": 20869.519999999993,
      "d": 927.7930208333346,
      "v": 58
    },
    {
      "midi": 58,
      "hit": false,
      "t": 21987.529999999995,
      "d": 120.34135416666686,
      "v": 77
    },
    {
      "midi": 43,
      "hit": false,
      "t": 21987.529999999995,
      "d": 151.39718749999884,
      "v": 79
    },
    {
      "midi": 65,
      "hit": false,
      "t": 21987.529999999995,
      "d": 155.27916666666715,
      "v": 74
    },
    {
      "midi": 45,
      "hit": false,
      "t": 22173.864999999994,
      "d": 65.99364583333227,
      "v": 47
    },
    {
      "midi": 60,
      "hit": false,
      "t": 22173.864999999994,
      "d": 89.28552083333125,
      "v": 91
    },
    {
      "midi": 62,
      "hit": false,
      "t": 22360.199999999993,
      "d": 1160.7117708333317,
      "v": 76
    },
    {
      "midi": 58,
      "hit": false,
      "t": 22360.199999999993,
      "d": 1176.2396874999977,
      "v": 79
    },
    {
      "midi": 46,
      "hit": false,
      "t": 22360.199999999993,
      "d": 1238.3513541666653,
      "v": 60
    },
    {
      "midi": 58,
      "hit": false,
      "t": 23846.998020833325,
      "d": 1152.9478124999987,
      "v": 62
    },
    {
      "midi": 62,
      "hit": false,
      "t": 23846.998020833325,
      "d": 1152.9478124999987,
      "v": 69
    },
    {
      "midi": 65,
      "hit": false,
      "t": 23846.998020833325,
      "d": 1164.59375,
      "v": 71
    },
    {
      "midi": 50,
      "hit": false,
      "t": 23846.998020833325,
      "d": 1242.2333333333336,
      "v": 52
    },
    {
      "midi": 58,
      "hit": false,
      "t": 25341.559999999994,
      "d": 318.3222916666673,
      "v": 60
    },
    {
      "midi": 67,
      "hit": false,
      "t": 25341.559999999994,
      "d": 333.8502083333333,
      "v": 88
    },
    {
      "midi": 63,
      "hit": false,
      "t": 25341.559999999994,
      "d": 345.4961458333346,
      "v": 78
    },
    {
      "midi": 51,
      "hit": false,
      "t": 25341.559999999994,
      "d": 392.0798958333362,
      "v": 72
    },
    {
      "midi": 42,
      "hit": false,
      "t": 26083.01802083333,
      "d": 364.90604166666526,
      "v": 53
    },
    {
      "midi": 60,
      "hit": false,
      "t": 26083.01802083333,
      "d": 372.66999999999825,
      "v": 71
    },
    {
      "midi": 54,
      "hit": false,
      "t": 26083.01802083333,
      "d": 388.19791666666424,
      "v": 36
    },
    {
      "midi": 66,
      "hit": false,
      "t": 26083.01802083333,
      "d": 395.96187499999724,
      "v": 66
    },
    {
      "midi": 69,
      "hit": false,
      "t": 26083.01802083333,
      "d": 395.96187499999724,
      "v": 81
    },
    {
      "midi": 67,
      "hit": false,
      "t": 26828.358020833326,
      "d": 1253.8792708333349,
      "v": 53
    },
    {
      "midi": 55,
      "hit": false,
      "t": 26828.358020833326,
      "d": 1281.0531250000022,
      "v": 48
    },
    {
      "midi": 62,
      "hit": false,
      "t": 26828.358020833326,
      "d": 1281.0531250000022,
      "v": 45
    },
    {
      "midi": 70,
      "hit": false,
      "t": 26828.358020833326,
      "d": 1281.0531250000022,
      "v": 45
    },
    {
      "midi": 69,
      "hit": false,
      "t": 28319.03802083333,
      "d": 489.12937500000044,
      "v": 76
    },
    {
      "midi": 60,
      "hit": false,
      "t": 28319.03802083333,
      "d": 504.6572916666664,
      "v": 72
    },
    {
      "midi": 65,
      "hit": false,
      "t": 28319.03802083333,
      "d": 512.4212499999994,
      "v": 81
    },
    {
      "midi": 53,
      "hit": false,
      "t": 28319.03802083333,
      "d": 520.1852083333324,
      "v": 74
    },
    {
      "midi": 65,
      "hit": false,
      "t": 29060.49604166666,
      "d": 298.912395833333,
      "v": 73
    },
    {
      "midi": 50,
      "hit": false,
      "t": 29060.49604166666,
      "d": 329.96822916666497,
      "v": 63
    },
    {
      "midi": 62,
      "hit": false,
      "t": 29060.49604166666,
      "d": 361.02406249999694,
      "v": 58
    },
    {
      "midi": 70,
      "hit": false,
      "t": 29060.49604166666,
      "d": 399.8438541666619,
      "v": 60
    },
    {
      "midi": 67,
      "hit": false,
      "t": 29809.718020833323,
      "d": 364.90604166666526,
      "v": 86
    },
    {
      "midi": 63,
      "hit": false,
      "t": 29809.718020833323,
      "d": 399.84385416666555,
      "v": 62
    },
    {
      "midi": 51,
      "hit": false,
      "t": 29809.718020833323,
      "d": 461.95552083333314,
      "v": 65
    },
    {
      "midi": 58,
      "hit": false,
      "t": 29809.718020833323,
      "d": 461.95552083333314,
      "v": 57
    },
    {
      "midi": 62,
      "hit": false,
      "t": 30555.058020833323,
      "d": 349.3781249999993,
      "v": 73
    },
    {
      "midi": 58,
      "hit": false,
      "t": 30555.058020833323,
      "d": 438.66364583333416,
      "v": 48
    },
    {
      "midi": 65,
      "hit": false,
      "t": 30555.058020833323,
      "d": 438.66364583333416,
      "v": 74
    },
    {
      "midi": 46,
      "hit": false,
      "t": 30555.058020833323,
      "d": 446.42760416666715,
      "v": 26
    },
    {
      "midi": 48,
      "hit": false,
      "t": 31300.398020833323,
      "d": 427.01770833333285,
      "v": 65
    },
    {
      "midi": 63,
      "hit": false,
      "t": 31300.398020833323,
      "d": 469.71947916666613,
      "v": 64
    },
    {
      "midi": 58,
      "hit": false,
      "t": 31300.398020833323,
      "d": 477.4834374999991,
      "v": 53
    },
    {
      "midi": 67,
      "hit": false,
      "t": 31300.398020833323,
      "d": 493.0113541666651,
      "v": 66
    },
    {
      "midi": 51,
      "hit": false,
      "t": 32045.738020833323,
      "d": 364.90604166666526,
      "v": 68
    },
    {
      "midi": 65,
      "hit": false,
      "t": 32045.738020833323,
      "d": 372.66999999999825,
      "v": 70
    },
    {
      "midi": 62,
      "hit": false,
      "t": 32045.738020833323,
      "d": 376.55197916666657,
      "v": 72
    },
    {
      "midi": 58,
      "hit": false,
      "t": 32045.738020833323,
      "d": 392.07989583333256,
      "v": 54
    },
    {
      "midi": 53,
      "hit": false,
      "t": 32791.07802083332,
      "d": 2950.3041666666686,
      "v": 41
    },
    {
      "midi": 57,
      "hit": false,
      "t": 32791.07802083332,
      "d": 2961.9501041666663,
      "v": 52
    },
    {
      "midi": 65,
      "hit": false,
      "t": 32791.07802083332,
      "d": 2961.9501041666663,
      "v": 47
    },
    {
      "midi": 60,
      "hit": false,
      "t": 32791.07802083332,
      "d": 2977.4780208333323,
      "v": 65
    },
    {
      "midi": 41,
      "hit": false,
      "t": 32791.07802083332,
      "d": 2993.0059374999983,
      "v": 61
    },
    {
      "midi": 58,
      "hit": false,
      "t": 35768.556041666656,
      "d": 337.73218749999796,
      "v": 52
    },
    {
      "midi": 62,
      "hit": false,
      "t": 35768.556041666656,
      "d": 341.6141666666663,
      "v": 62
    },
    {
      "midi": 43,
      "hit": false,
      "t": 35768.556041666656,
      "d": 357.14208333333227,
      "v": 55
    },
    {
      "midi": 55,
      "hit": false,
      "t": 36141.226041666654,
      "d": 97.04947916666424,
      "v": 61
    },
    {
      "midi": 65,
      "hit": false,
      "t": 36517.77802083332,
      "d": 291.1484375,
      "v": 61
    },
    {
      "midi": 60,
      "hit": false,
      "t": 36517.77802083332,
      "d": 357.14208333333227,
      "v": 71
    },
    {
      "midi": 45,
      "hit": false,
      "t": 36517.77802083332,
      "d": 384.3159374999959,
      "v": 42
    },
    {
      "midi": 58,
      "hit": false,
      "t": 37266.999999999985,
      "d": 112.57739583333023,
      "v": 51
    },
    {
      "midi": 62,
      "hit": false,
      "t": 37266.999999999985,
      "d": 368.78802083332994,
      "v": 57
    },
    {
      "midi": 46,
      "hit": false,
      "t": 37266.999999999985,
      "d": 438.6636458333305,
      "v": 42
    },
    {
      "midi": 58,
      "hit": false,
      "t": 37635.788020833315,
      "d": 120.34135416666686,
      "v": 66
    },
    {
      "midi": 59,
      "hit": false,
      "t": 38008.458020833314,
      "d": 229.03677083333605,
      "v": 63
    },
    {
      "midi": 47,
      "hit": false,
      "t": 38008.458020833314,
      "d": 376.55197916666657,
      "v": 53
    },
    {
      "midi": 62,
      "hit": false,
      "t": 38008.458020833314,
      "d": 411.48979166666686,
      "v": 71
    },
    {
      "midi": 55,
      "hit": false,
      "t": 38385.00999999998,
      "d": 178.57104166666977,
      "v": 73
    },
    {
      "midi": 63,
      "hit": false,
      "t": 38753.79802083332,
      "d": 329.9682291666686,
      "v": 49
    },
    {
      "midi": 60,
      "hit": false,
      "t": 38753.79802083332,
      "d": 376.55197916666657,
      "v": 73
    },
    {
      "midi": 48,
      "hit": false,
      "t": 38753.79802083332,
      "d": 411.48979166666686,
      "v": 26
    },
    {
      "midi": 55,
      "hit": false,
      "t": 39130.349999999984,
      "d": 174.68906250000146,
      "v": 48
    },
    {
      "midi": 62,
      "hit": false,
      "t": 39499.13802083332,
      "d": 322.204270833332,
      "v": 69
    },
    {
      "midi": 65,
      "hit": false,
      "t": 39499.13802083332,
      "d": 337.73218749999796,
      "v": 63
    },
    {
      "midi": 50,
      "hit": false,
      "t": 39499.13802083332,
      "d": 353.26010416666395,
      "v": 58
    },
    {
      "midi": 58,
      "hit": false,
      "t": 39499.13802083332,
      "d": 368.78802083332994,
      "v": 57
    },
    {
      "midi": 58,
      "hit": false,
      "t": 40248.359999999986,
      "d": 65.99364583333227,
      "v": 65
    },
    {
      "midi": 51,
      "hit": false,
      "t": 40248.359999999986,
      "d": 368.78802083332994,
      "v": 69
    },
    {
      "midi": 67,
      "hit": false,
      "t": 40248.359999999986,
      "d": 368.78802083332994,
      "v": 68
    },
    {
      "midi": 63,
      "hit": false,
      "t": 40248.359999999986,
      "d": 395.9618749999936,
      "v": 68
    },
    {
      "midi": 58,
      "hit": false,
      "t": 40617.148020833316,
      "d": 77.63958333332994,
      "v": 63
    },
    {
      "midi": 54,
      "hit": false,
      "t": 40993.69999999998,
      "d": 295.0304166666683,
      "v": 70
    },
    {
      "midi": 69,
      "hit": false,
      "t": 40993.69999999998,
      "d": 295.0304166666683,
      "v": 71
    },
    {
      "midi": 66,
      "hit": false,
      "t": 40993.69999999998,
      "d": 372.66999999999825,
      "v": 71
    },
    {
      "midi": 60,
      "hit": false,
      "t": 41366.36999999998,
      "d": 120.34135416666686,
      "v": 64
    },
    {
      "midi": 62,
      "hit": false,
      "t": 41735.15802083331,
      "d": 322.204270833332,
      "v": 78
    },
    {
      "midi": 67,
      "hit": false,
      "t": 41735.15802083331,
      "d": 392.07989583333256,
      "v": 78
    },
    {
      "midi": 43,
      "hit": false,
      "t": 41735.15802083331,
      "d": 500.77531250000175,
      "v": 68
    },
    {
      "midi": 58,
      "hit": false,
      "t": 42111.70999999998,
      "d": 120.34135416666686,
      "v": 73
    },
    {
      "midi": 65,
      "hit": false,
      "t": 42480.498020833315,
      "d": 353.26010416666395,
      "v": 73
    },
    {
      "midi": 60,
      "hit": false,
      "t": 42480.498020833315,
      "d": 376.55197916666657,
      "v": 85
    },
    {
      "midi": 45,
      "hit": false,
      "t": 42480.498020833315,
      "d": 403.72583333333023,
      "v": 67
    },
    {
      "midi": 57,
      "hit": false,
      "t": 42857.04999999998,
      "d": 190.21697916666017,
      "v": 83
    },
    {
      "midi": 58,
      "hit": false,
      "t": 43229.71999999997,
      "d": 120.34135416666686,
      "v": 54
    },
    {
      "midi": 46,
      "hit": false,
      "t": 43229.71999999997,
      "d": 438.6636458333305,
      "v": 62
    },
    {
      "midi": 62,
      "hit": false,
      "t": 43229.71999999997,
      "d": 454.1915624999965,
      "v": 72
    },
    {
      "midi": 65,
      "hit": false,
      "t": 43229.71999999997,
      "d": 485.2473958333285,
      "v": 65
    },
    {
      "midi": 58,
      "hit": false,
      "t": 43598.5080208333,
      "d": 174.68906250000146,
      "v": 79
    },
    {
      "midi": 59,
      "hit": false,
      "t": 43975.05999999997,
      "d": 341.6141666666663,
      "v": 77
    },
    {
      "midi": 62,
      "hit": false,
      "t": 43975.05999999997,
      "d": 345.4961458333346,
      "v": 75
    },
    {
      "midi": 47,
      "hit": false,
      "t": 43975.05999999997,
      "d": 450.3095833333282,
      "v": 66
    },
    {
      "midi": 55,
      "hit": false,
      "t": 44347.72999999997,
      "d": 209.62687499999447,
      "v": 76
    },
    {
      "midi": 63,
      "hit": false,
      "t": 44716.5180208333,
      "d": 310.5583333333343,
      "v": 72
    },
    {
      "midi": 60,
      "hit": false,
      "t": 44716.5180208333,
      "d": 341.6141666666663,
      "v": 82
    },
    {
      "midi": 48,
      "hit": false,
      "t": 44716.5180208333,
      "d": 430.89968750000116,
      "v": 68
    },
    {
      "midi": 55,
      "hit": false,
      "t": 45093.06999999996,
      "d": 201.86291666666511,
      "v": 78
    },
    {
      "midi": 58,
      "hit": false,
      "t": 45461.85802083329,
      "d": 112.57739583333023,
      "v": 56
    },
    {
      "midi": 62,
      "hit": false,
      "t": 45461.85802083329,
      "d": 372.66999999999825,
      "v": 65
    },
    {
      "midi": 65,
      "hit": false,
      "t": 45461.85802083329,
      "d": 372.66999999999825,
      "v": 63
    },
    {
      "midi": 50,
      "hit": false,
      "t": 45461.85802083329,
      "d": 423.13572916666453,
      "v": 52
    },
    {
      "midi": 58,
      "hit": false,
      "t": 45834.52802083329,
      "d": 139.75125000000116,
      "v": 78
    },
    {
      "midi": 63,
      "hit": false,
      "t": 46207.19802083329,
      "d": 411.48979166666686,
      "v": 74
    },
    {
      "midi": 67,
      "hit": false,
      "t": 46207.19802083329,
      "d": 427.01770833333285,
      "v": 86
    },
    {
      "midi": 51,
      "hit": false,
      "t": 46207.19802083329,
      "d": 434.7816666666695,
      "v": 70
    },
    {
      "midi": 58,
      "hit": false,
      "t": 46575.98604166662,
      "d": 81.52156250000553,
      "v": 66
    },
    {
      "midi": 66,
      "hit": false,
      "t": 46952.53802083329,
      "d": 337.73218749999796,
      "v": 58
    },
    {
      "midi": 69,
      "hit": false,
      "t": 46952.53802083329,
      "d": 337.73218749999796,
      "v": 63
    },
    {
      "midi": 54,
      "hit": false,
      "t": 46952.53802083329,
      "d": 582.296875,
      "v": 55
    },
    {
      "midi": 60,
      "hit": false,
      "t": 47325.20802083329,
      "d": 205.74489583333343,
      "v": 63
    },
    {
      "midi": 62,
      "hit": false,
      "t": 47701.75999999996,
      "d": 314.4403125000026,
      "v": 78
    },
    {
      "midi": 67,
      "hit": false,
      "t": 47701.75999999996,
      "d": 388.1979166666715,
      "v": 78
    },
    {
      "midi": 43,
      "hit": false,
      "t": 47701.75999999996,
      "d": 493.0113541666724,
      "v": 68
    },
    {
      "midi": 58,
      "hit": false,
      "t": 48070.548020833296,
      "d": 124.22333333333518,
      "v": 73
    },
    {
      "midi": 65,
      "hit": false,
      "t": 48439.33604166663,
      "d": 353.26010416666395,
      "v": 74
    },
    {
      "midi": 60,
      "hit": false,
      "t": 48439.33604166663,
      "d": 376.55197916666657,
      "v": 86
    },
    {
      "midi": 45,
      "hit": false,
      "t": 48439.33604166663,
      "d": 403.72583333333023,
      "v": 67
    },
    {
      "midi": 57,
      "hit": false,
      "t": 48815.8880208333,
      "d": 190.21697916666017,
      "v": 84
    },
    {
      "midi": 58,
      "hit": false,
      "t": 49188.55802083329,
      "d": 124.22333333333518,
      "v": 55
    },
    {
      "midi": 46,
      "hit": false,
      "t": 49188.55802083329,
      "d": 446.42760416666715,
      "v": 63
    },
    {
      "midi": 62,
      "hit": false,
      "t": 49188.55802083329,
      "d": 461.95552083333314,
      "v": 72
    },
    {
      "midi": 65,
      "hit": false,
      "t": 49188.55802083329,
      "d": 489.1293749999968,
      "v": 65
    },
    {
      "midi": 58,
      "hit": false,
      "t": 49565.10999999996,
      "d": 166.92510416666482,
      "v": 80
    },
    {
      "midi": 59,
      "hit": false,
      "t": 49933.89802083329,
      "d": 341.6141666666663,
      "v": 78
    },
    {
      "midi": 62,
      "hit": false,
      "t": 49933.89802083329,
      "d": 345.4961458333346,
      "v": 76
    },
    {
      "midi": 47,
      "hit": false,
      "t": 49933.89802083329,
      "d": 450.3095833333282,
      "v": 66
    },
    {
      "midi": 55,
      "hit": false,
      "t": 50306.568020833285,
      "d": 213.5088541666628,
      "v": 76
    },
    {
      "midi": 63,
      "hit": false,
      "t": 50683.119999999944,
      "d": 302.7943749999977,
      "v": 72
    },
    {
      "midi": 60,
      "hit": false,
      "t": 50683.119999999944,
      "d": 333.85020833332965,
      "v": 82
    },
    {
      "midi": 48,
      "hit": false,
      "t": 50683.119999999944,
      "d": 423.13572916666453,
      "v": 68
    },
    {
      "midi": 55,
      "hit": false,
      "t": 51051.908020833274,
      "d": 201.86291666666511,
      "v": 78
    },
    {
      "midi": 58,
      "hit": false,
      "t": 51424.57802083327,
      "d": 116.45937499999854,
      "v": 56
    },
    {
      "midi": 62,
      "hit": false,
      "t": 51424.57802083327,
      "d": 372.66999999999825,
      "v": 65
    },
    {
      "midi": 65,
      "hit": false,
      "t": 51424.57802083327,
      "d": 372.66999999999825,
      "v": 63
    },
    {
      "midi": 50,
      "hit": false,
      "t": 51424.57802083327,
      "d": 423.13572916666453,
      "v": 52
    },
    {
      "midi": 58,
      "hit": false,
      "t": 51797.24802083327,
      "d": 139.75125000000116,
      "v": 78
    },
    {
      "midi": 63,
      "hit": false,
      "t": 52166.03604166661,
      "d": 411.48979166666686,
      "v": 74
    },
    {
      "midi": 67,
      "hit": false,
      "t": 52166.03604166661,
      "d": 427.01770833333285,
      "v": 86
    },
    {
      "midi": 51,
      "hit": false,
      "t": 52166.03604166661,
      "d": 438.6636458333305,
      "v": 70
    },
    {
      "midi": 58,
      "hit": false,
      "t": 52542.588020833275,
      "d": 77.63958333332994,
      "v": 66
    },
    {
      "midi": 66,
      "hit": false,
      "t": 52915.25802083327,
      "d": 333.8502083333369,
      "v": 58
    },
    {
      "midi": 69,
      "hit": false,
      "t": 52915.25802083327,
      "d": 333.8502083333369,
      "v": 63
    },
    {
      "midi": 54,
      "hit": false,
      "t": 52915.25802083327,
      "d": 582.2968750000073,
      "v": 55
    },
    {
      "midi": 60,
      "hit": false,
      "t": 53284.04604166661,
      "d": 205.74489583333343,
      "v": 63
    },
    {
      "midi": 58,
      "hit": false,
      "t": 53660.59802083328,
      "d": 50.46572916666628,
      "v": 66
    },
    {
      "midi": 67,
      "hit": false,
      "t": 53660.59802083328,
      "d": 372.66999999999825,
      "v": 92
    },
    {
      "midi": 43,
      "hit": false,
      "t": 53660.59802083328,
      "d": 407.60781249999854,
      "v": 75
    },
    {
      "midi": 62,
      "hit": false,
      "t": 53660.59802083328,
      "d": 473.6014583333308,
      "v": 88
    },
    {
      "midi": 58,
      "hit": false,
      "t": 54033.268020833275,
      "d": 120.34135416666686,
      "v": 94
    },
    {
      "midi": 60,
      "hit": false,
      "t": 54409.81999999994,
      "d": 170.80708333333314,
      "v": 61
    },
    {
      "midi": 65,
      "hit": false,
      "t": 54409.81999999994,
      "d": 388.19791666666424,
      "v": 57
    },
    {
      "midi": 45,
      "hit": false,
      "t": 54409.81999999994,
      "d": 403.72583333333023,
      "v": 47
    },
    {
      "midi": 60,
      "hit": false,
      "t": 54778.60802083327,
      "d": 139.75125000000116,
      "v": 55
    },
    {
      "midi": 58,
      "hit": false,
      "t": 55151.27802083327,
      "d": 403.72583333333023,
      "v": 43
    },
    {
      "midi": 62,
      "hit": false,
      "t": 55151.27802083327,
      "d": 419.2537499999962,
      "v": 51
    },
    {
      "midi": 46,
      "hit": false,
      "t": 55151.27802083327,
      "d": 454.1915624999965,
      "v": 39
    },
    {
      "midi": 59,
      "hit": false,
      "t": 55896.618020833266,
      "d": 318.32229166666366,
      "v": 48
    },
    {
      "midi": 62,
      "hit": false,
      "t": 55896.618020833266,
      "d": 333.85020833332965,
      "v": 49
    },
    {
      "midi": 47,
      "hit": false,
      "t": 55896.618020833266,
      "d": 423.13572916666453,
      "v": 42
    },
    {
      "midi": 55,
      "hit": false,
      "t": 56273.16999999993,
      "d": 190.21697916666744,
      "v": 57
    },
    {
      "midi": 60,
      "hit": false,
      "t": 56645.83999999993,
      "d": 170.80708333333314,
      "v": 58
    },
    {
      "midi": 63,
      "hit": false,
      "t": 56645.83999999993,
      "d": 395.9618749999936,
      "v": 57
    },
    {
      "midi": 48,
      "hit": false,
      "t": 56645.83999999993,
      "d": 489.1293749999968,
      "v": 48
    },
    {
      "midi": 60,
      "hit": false,
      "t": 57014.62802083326,
      "d": 174.68906250000146,
      "v": 95
    },
    {
      "midi": 58,
      "hit": false,
      "t": 57391.17999999993,
      "d": 93.1675000000032,
      "v": 87
    },
    {
      "midi": 50,
      "hit": false,
      "t": 57391.17999999993,
      "d": 345.4961458333346,
      "v": 71
    },
    {
      "midi": 62,
      "hit": false,
      "t": 57391.17999999993,
      "d": 368.7880208333372,
      "v": 89
    },
    {
      "midi": 65,
      "hit": false,
      "t": 57391.17999999993,
      "d": 368.7880208333372,
      "v": 76
    },
    {
      "midi": 58,
      "hit": false,
      "t": 57759.968020833265,
      "d": 116.45937499999854,
      "v": 93
    },
    {
      "midi": 58,
      "hit": false,
      "t": 58136.51999999993,
      "d": 69.87562500000058,
      "v": 58
    },
    {
      "midi": 67,
      "hit": false,
      "t": 58136.51999999993,
      "d": 345.4961458333346,
      "v": 60
    },
    {
      "midi": 63,
      "hit": false,
      "t": 58136.51999999993,
      "d": 399.8438541666692,
      "v": 69
    },
    {
      "midi": 39,
      "hit": false,
      "t": 58136.51999999993,
      "d": 419.2537500000035,
      "v": 55
    },
    {
      "midi": 58,
      "hit": false,
      "t": 58505.30802083327,
      "d": 120.34135416666686,
      "v": 64
    },
    {
      "midi": 55,
      "hit": false,
      "t": 58874.0960416666,
      "d": 174.68906250000146,
      "v": 59
    },
    {
      "midi": 63,
      "hit": false,
      "t": 58874.0960416666,
      "d": 628.8806250000052,
      "v": 72
    },
    {
      "midi": 41,
      "hit": false,
      "t": 58874.0960416666,
      "d": 636.6445833333419,
      "v": 61
    },
    {
      "midi": 58,
      "hit": false,
      "t": 58874.0960416666,
      "d": 636.6445833333419,
      "v": 71
    },
    {
      "midi": 55,
      "hit": false,
      "t": 59250.648020833265,
      "d": 244.56468750000204,
      "v": 60
    },
    {
      "midi": 53,
      "hit": false,
      "t": 59619.43604166661,
      "d": 337.73218749999796,
      "v": 60
    },
    {
      "midi": 58,
      "hit": false,
      "t": 59619.43604166661,
      "d": 364.9060416666616,
      "v": 61
    },
    {
      "midi": 62,
      "hit": false,
      "t": 59619.43604166661,
      "d": 364.9060416666616,
      "v": 60
    },
    {
      "midi": 34,
      "hit": false,
      "t": 59619.43604166661,
      "d": 562.8869791666584,
      "v": 56
    },
    {
      "midi": 62,
      "hit": false,
      "t": 60182.32302083327,
      "d": 73.7576041666689,
      "v": 67
    },
    {
      "midi": 58,
      "hit": false,
      "t": 60182.32302083327,
      "d": 89.28552083333489,
      "v": 71
    },
    {
      "midi": 53,
      "hit": false,
      "t": 60182.32302083327,
      "d": 97.04947916667152,
      "v": 64
    },
    {
      "midi": 34,
      "hit": false,
      "t": 60368.658020833274,
      "d": 139.75125000000116,
      "v": 56
    },
    {
      "midi": 53,
      "hit": false,
      "t": 60551.11104166661,
      "d": 147.51520833333052,
      "v": 61
    },
    {
      "midi": 62,
      "hit": false,
      "t": 60551.11104166661,
      "d": 407.60781249999854,
      "v": 65
    },
    {
      "midi": 58,
      "hit": false,
      "t": 60551.11104166661,
      "d": 434.7816666666622,
      "v": 68
    },
    {
      "midi": 34,
      "hit": false,
      "t": 60737.44604166661,
      "d": 302.7943749999977,
      "v": 68
    },
    {
      "midi": 53,
      "hit": false,
      "t": 60834.495520833276,
      "d": 93.1675000000032,
      "v": 56
    },
    {
      "midi": 57,
      "hit": false,
      "t": 61110.11604166661,
      "d": 89.28552083333489,
      "v": 52
    },
    {
      "midi": 60,
      "hit": false,
      "t": 61110.11604166661,
      "d": 89.28552083333489,
      "v": 46
    },
    {
      "midi": 65,
      "hit": false,
      "t": 61110.11604166661,
      "d": 89.28552083333489,
      "v": 40
    },
    {
      "midi": 38,
      "hit": false,
      "t": 61110.11604166661,
      "d": 372.66999999999825,
      "v": 51
    },
    {
      "midi": 57,
      "hit": false,
      "t": 61482.78604166661,
      "d": 182.4530208333308,
      "v": 61
    },
    {
      "midi": 65,
      "hit": false,
      "t": 61482.78604166661,
      "d": 182.4530208333308,
      "v": 61
    },
    {
      "midi": 60,
      "hit": false,
      "t": 61482.78604166661,
      "d": 283.38447916666337,
      "v": 61
    },
    {
      "midi": 38,
      "hit": false,
      "t": 61665.23906249994,
      "d": 178.5710416666625,
      "v": 40
    },
    {
      "midi": 53,
      "hit": false,
      "t": 61851.57406249994,
      "d": 593.9428124999977,
      "v": 63
    },
    {
      "midi": 62,
      "hit": false,
      "t": 61851.57406249994,
      "d": 613.352708333332,
      "v": 58
    },
    {
      "midi": 43,
      "hit": false,
      "t": 61851.57406249994,
      "d": 636.6445833333346,
      "v": 61
    },
    {
      "midi": 58,
      "hit": false,
      "t": 61851.57406249994,
      "d": 636.6445833333346,
      "v": 51
    },
    {
      "midi": 55,
      "hit": false,
      "t": 62600.7960416666,
      "d": 454.1915624999965,
      "v": 57
    },
    {
      "midi": 58,
      "hit": false,
      "t": 62600.7960416666,
      "d": 469.7194791666625,
      "v": 57
    },
    {
      "midi": 63,
      "hit": false,
      "t": 62600.7960416666,
      "d": 481.36541666666017,
      "v": 63
    },
    {
      "midi": 36,
      "hit": false,
      "t": 62600.7960416666,
      "d": 1017.0785416666549,
      "v": 54
    },
    {
      "midi": 58,
      "hit": false,
      "t": 63159.80104166659,
      "d": 62.11166666666395,
      "v": 63
    },
    {
      "midi": 63,
      "hit": false,
      "t": 63159.80104166659,
      "d": 62.11166666666395,
      "v": 63
    },
    {
      "midi": 55,
      "hit": false,
      "t": 63159.80104166659,
      "d": 69.87562500000058,
      "v": 57
    },
    {
      "midi": 55,
      "hit": false,
      "t": 63532.47104166659,
      "d": 170.80708333333314,
      "v": 63
    },
    {
      "midi": 58,
      "hit": false,
      "t": 63532.47104166659,
      "d": 349.37812499999563,
      "v": 69
    },
    {
      "midi": 63,
      "hit": false,
      "t": 63532.47104166659,
      "d": 411.4897916666596,
      "v": 66
    },
    {
      "midi": 36,
      "hit": false,
      "t": 63718.80604166659,
      "d": 326.086249999993,
      "v": 52
    },
    {
      "midi": 55,
      "hit": false,
      "t": 63909.02302083325,
      "d": 108.69541666666919,
      "v": 58
    },
    {
      "midi": 62,
      "hit": false,
      "t": 64095.35802083325,
      "d": 578.4148958333317,
      "v": 102
    },
    {
      "midi": 65,
      "hit": false,
      "t": 64095.35802083325,
      "d": 597.824791666666,
      "v": 104
    },
    {
      "midi": 58,
      "hit": false,
      "t": 64095.35802083325,
      "d": 644.408541666664,
      "v": 96
    },
    {
      "midi": 39,
      "hit": false,
      "t": 64095.35802083325,
      "d": 698.7562499999985,
      "v": 82
    },
    {
      "midi": 57,
      "hit": false,
      "t": 64836.816041666585,
      "d": 190.21697916666744,
      "v": 87
    },
    {
      "midi": 65,
      "hit": false,
      "t": 64836.816041666585,
      "d": 582.296875,
      "v": 92
    },
    {
      "midi": 60,
      "hit": false,
      "t": 64836.816041666585,
      "d": 621.1166666666686,
      "v": 103
    },
    {
      "midi": 41,
      "hit": false,
      "t": 64836.816041666585,
      "d": 706.5202083333352,
      "v": 90
    },
    {
      "midi": 57,
      "hit": false,
      "t": 65209.48604166658,
      "d": 232.91875000000437,
      "v": 96
    },
    {
      "midi": 55,
      "hit": false,
      "t": 65578.27406249991,
      "d": 407.6078125000058,
      "v": 67
    },
    {
      "midi": 58,
      "hit": false,
      "t": 65578.27406249991,
      "d": 430.89968750000116,
      "v": 70
    },
    {
      "midi": 63,
      "hit": false,
      "t": 65578.27406249991,
      "d": 438.6636458333378,
      "v": 70
    },
    {
      "midi": 36,
      "hit": false,
      "t": 65578.27406249991,
      "d": 986.0227083333157,
      "v": 64
    },
    {
      "midi": 63,
      "hit": false,
      "t": 66141.16104166658,
      "d": 62.11166666666395,
      "v": 95
    },
    {
      "midi": 58,
      "hit": false,
      "t": 66141.16104166658,
      "d": 65.99364583332499,
      "v": 102
    },
    {
      "midi": 55,
      "hit": false,
      "t": 66141.16104166658,
      "d": 77.63958333332266,
      "v": 94
    },
    {
      "midi": 55,
      "hit": false,
      "t": 66513.83104166656,
      "d": 174.68906249999418,
      "v": 94
    },
    {
      "midi": 58,
      "hit": false,
      "t": 66513.83104166656,
      "d": 353.26010416666395,
      "v": 107
    },
    {
      "midi": 63,
      "hit": false,
      "t": 66513.83104166656,
      "d": 368.7880208333372,
      "v": 95
    },
    {
      "midi": 36,
      "hit": false,
      "t": 66704.04802083323,
      "d": 337.73218750000524,
      "v": 87
    },
    {
      "midi": 55,
      "hit": false,
      "t": 66890.38302083324,
      "d": 131.98729166666453,
      "v": 59
    },
    {
      "midi": 58,
      "hit": false,
      "t": 67076.71802083323,
      "d": 178.57104166666977,
      "v": 64
    },
    {
      "midi": 39,
      "hit": false,
      "t": 67076.71802083323,
      "d": 489.1293750000041,
      "v": 47
    },
    {
      "midi": 65,
      "hit": false,
      "t": 67076.71802083323,
      "d": 601.7067708333343,
      "v": 59
    },
    {
      "midi": 62,
      "hit": false,
      "t": 67076.71802083323,
      "d": 659.9364583333372,
      "v": 72
    },
    {
      "midi": 58,
      "hit": false,
      "t": 67445.50604166657,
      "d": 248.44666666667035,
      "v": 71
    },
    {
      "midi": 39,
      "hit": false,
      "t": 67635.72302083323,
      "d": 131.98729166666453,
      "v": 48
    },
    {
      "midi": 57,
      "hit": false,
      "t": 67822.05802083322,
      "d": 197.98093750000407,
      "v": 61
    },
    {
      "midi": 60,
      "hit": false,
      "t": 67822.05802083322,
      "d": 609.4707291666709,
      "v": 67
    },
    {
      "midi": 65,
      "hit": false,
      "t": 67822.05802083322,
      "d": 663.8184374999983,
      "v": 61
    },
    {
      "midi": 41,
      "hit": false,
      "t": 67822.05802083322,
      "d": 683.2283333333326,
      "v": 61
    },
    {
      "midi": 57,
      "hit": false,
      "t": 68190.84604166656,
      "d": 201.86291666666511,
      "v": 59
    },
    {
      "midi": 53,
      "hit": false,
      "t": 68567.39802083322,
      "d": 345.4961458333273,
      "v": 64
    },
    {
      "midi": 62,
      "hit": false,
      "t": 68567.39802083322,
      "d": 395.9618749999936,
      "v": 56
    },
    {
      "midi": 58,
      "hit": false,
      "t": 68567.39802083322,
      "d": 399.84385416665464,
      "v": 61
    },
    {
      "midi": 34,
      "hit": false,
      "t": 68567.39802083322,
      "d": 966.6128124999814,
      "v": 61
    },
    {
      "midi": 53,
      "hit": false,
      "t": 69122.52104166654,
      "d": 85.40354166667385,
      "v": 62
    },
    {
      "midi": 58,
      "hit": false,
      "t": 69122.52104166654,
      "d": 97.04947916667152,
      "v": 64
    },
    {
      "midi": 62,
      "hit": false,
      "t": 69122.52104166654,
      "d": 100.93145833333256,
      "v": 61
    },
    {
      "midi": 53,
      "hit": false,
      "t": 69495.19104166653,
      "d": 240.68270833333372,
      "v": 96
    },
    {
      "midi": 58,
      "hit": false,
      "t": 69495.19104166653,
      "d": 275.62052083332674,
      "v": 103
    },
    {
      "midi": 62,
      "hit": false,
      "t": 69495.19104166653,
      "d": 430.8996874999866,
      "v": 97
    },
    {
      "midi": 36,
      "hit": false,
      "t": 69685.4080208332,
      "d": 248.4466666666558,
      "v": 80
    },
    {
      "midi": 37,
      "hit": false,
      "t": 69871.7430208332,
      "d": 147.5152083333378,
      "v": 64
    },
    {
      "midi": 57,
      "hit": false,
      "t": 70054.19604166652,
      "d": 217.39083333333838,
      "v": 92
    },
    {
      "midi": 60,
      "hit": false,
      "t": 70054.19604166652,
      "d": 562.8869791666657,
      "v": 90
    },
    {
      "midi": 65,
      "hit": false,
      "t": 70054.19604166652,
      "d": 652.1725000000006,
      "v": 82
    },
    {
      "midi": 38,
      "hit": false,
      "t": 70054.19604166652,
      "d": 722.0481250000012,
      "v": 78
    },
    {
      "midi": 57,
      "hit": false,
      "t": 70426.86604166652,
      "d": 190.21697916666744,
      "v": 86
    },
    {
      "midi": 53,
      "hit": false,
      "t": 70799.53604166652,
      "d": 182.4530208333308,
      "v": 95
    },
    {
      "midi": 62,
      "hit": false,
      "t": 70799.53604166652,
      "d": 562.8869791666657,
      "v": 78
    },
    {
      "midi": 58,
      "hit": false,
      "t": 70799.53604166652,
      "d": 586.178854166661,
      "v": 93
    },
    {
      "midi": 43,
      "hit": false,
      "t": 70799.53604166652,
      "d": 667.7004166666593,
      "v": 91
    },
    {
      "midi": 53,
      "hit": false,
      "t": 71172.20604166652,
      "d": 182.4530208333308,
      "v": 93
    },
    {
      "midi": 55,
      "hit": false,
      "t": 71544.87604166652,
      "d": 399.8438541666692,
      "v": 86
    },
    {
      "midi": 58,
      "hit": false,
      "t": 71544.87604166652,
      "d": 419.2537500000035,
      "v": 93
    },
    {
      "midi": 63,
      "hit": false,
      "t": 71544.87604166652,
      "d": 434.78166666667676,
      "v": 92
    },
    {
      "midi": 36,
      "hit": false,
      "t": 71544.87604166652,
      "d": 1020.9605208333523,
      "v": 84
    },
    {
      "midi": 58,
      "hit": false,
      "t": 72099.99906249986,
      "d": 65.99364583333954,
      "v": 96
    },
    {
      "midi": 55,
      "hit": false,
      "t": 72099.99906249986,
      "d": 73.75760416667617,
      "v": 89
    },
    {
      "midi": 63,
      "hit": false,
      "t": 72099.99906249986,
      "d": 73.75760416667617,
      "v": 93
    },
    {
      "midi": 55,
      "hit": false,
      "t": 72476.55104166653,
      "d": 209.62687500000175,
      "v": 91
    },
    {
      "midi": 63,
      "hit": false,
      "t": 72476.55104166653,
      "d": 372.66999999999825,
      "v": 96
    },
    {
      "midi": 58,
      "hit": false,
      "t": 72476.55104166653,
      "d": 411.48979166666686,
      "v": 104
    },
    {
      "midi": 36,
      "hit": false,
      "t": 72662.88604166654,
      "d": 298.91239583333663,
      "v": 90
    },
    {
      "midi": 55,
      "hit": false,
      "t": 72849.22104166653,
      "d": 104.81343750000815,
      "v": 79
    },
    {
      "midi": 58,
      "hit": false,
      "t": 73035.55604166654,
      "d": 174.68906249999418,
      "v": 91
    },
    {
      "midi": 62,
      "hit": false,
      "t": 73035.55604166654,
      "d": 551.2410416666535,
      "v": 95
    },
    {
      "midi": 65,
      "hit": false,
      "t": 73035.55604166654,
      "d": 570.6509374999878,
      "v": 89
    },
    {
      "midi": 39,
      "hit": false,
      "t": 73035.55604166654,
      "d": 722.0481249999866,
      "v": 76
    },
    {
      "midi": 58,
      "hit": false,
      "t": 73412.1080208332,
      "d": 244.56468749999476,
      "v": 108
    },
    {
      "midi": 57,
      "hit": false,
      "t": 73780.89604166652,
      "d": 151.39718749999884,
      "v": 86
    },
    {
      "midi": 65,
      "hit": false,
      "t": 73780.89604166652,
      "d": 562.8869791666657,
      "v": 90
    },
    {
      "midi": 60,
      "hit": false,
      "t": 73780.89604166652,
      "d": 586.1788541666756,
      "v": 110
    },
    {
      "midi": 41,
      "hit": false,
      "t": 73780.89604166652,
      "d": 690.9922916666692,
      "v": 95
    },
    {
      "midi": 57,
      "hit": false,
      "t": 74153.56604166652,
      "d": 205.7448958333407,
      "v": 95
    },
    {
      "midi": 55,
      "hit": false,
      "t": 74526.23604166652,
      "d": 388.1979166666715,
      "v": 90
    },
    {
      "midi": 58,
      "hit": false,
      "t": 74526.23604166652,
      "d": 411.48979166666686,
      "v": 101
    },
    {
      "midi": 63,
      "hit": false,
      "t": 74526.23604166652,
      "d": 438.6636458333378,
      "v": 96
    },
    {
      "midi": 36,
      "hit": false,
      "t": 74526.23604166652,
      "d": 1036.488437500011,
      "v": 85
    },
    {
      "midi": 58,
      "hit": false,
      "t": 75085.24104166652,
      "d": 58.22968750000291,
      "v": 96
    },
    {
      "midi": 63,
      "hit": false,
      "t": 75085.24104166652,
      "d": 65.99364583333954,
      "v": 93
    },
    {
      "midi": 55,
      "hit": false,
      "t": 75085.24104166652,
      "d": 69.87562500000058,
      "v": 90
    },
    {
      "midi": 55,
      "hit": false,
      "t": 75461.7930208332,
      "d": 139.75125000000116,
      "v": 90
    },
    {
      "midi": 58,
      "hit": false,
      "t": 75461.7930208332,
      "d": 271.73854166668025,
      "v": 103
    },
    {
      "midi": 63,
      "hit": false,
      "t": 75461.7930208332,
      "d": 357.1420833333541,
      "v": 95
    },
    {
      "midi": 36,
      "hit": false,
      "t": 75648.1280208332,
      "d": 291.14843750001455,
      "v": 81
    },
    {
      "midi": 55,
      "hit": false,
      "t": 75834.46302083322,
      "d": 120.34135416666686,
      "v": 82
    },
    {
      "midi": 58,
      "hit": false,
      "t": 76020.79802083323,
      "d": 197.98093750000407,
      "v": 90
    },
    {
      "midi": 62,
      "hit": false,
      "t": 76020.79802083323,
      "d": 535.7131249999948,
      "v": 99
    },
    {
      "midi": 65,
      "hit": false,
      "t": 76020.79802083323,
      "d": 574.5329166666634,
      "v": 89
    },
    {
      "midi": 39,
      "hit": false,
      "t": 76020.79802083323,
      "d": 706.5202083333279,
      "v": 83
    },
    {
      "midi": 58,
      "hit": false,
      "t": 76393.46802083323,
      "d": 252.3286458333314,
      "v": 97
    },
    {
      "midi": 57,
      "hit": false,
      "t": 76766.13802083323,
      "d": 155.27916666665988,
      "v": 88
    },
    {
      "midi": 65,
      "hit": false,
      "t": 76766.13802083323,
      "d": 562.8869791666657,
      "v": 89
    },
    {
      "midi": 60,
      "hit": false,
      "t": 76766.13802083323,
      "d": 636.6445833333419,
      "v": 97
    },
    {
      "midi": 41,
      "hit": false,
      "t": 76766.13802083323,
      "d": 718.1661458333401,
      "v": 93
    },
    {
      "midi": 57,
      "hit": false,
      "t": 77138.80802083322,
      "d": 197.98093750000407,
      "v": 91
    },
    {
      "midi": 53,
      "hit": false,
      "t": 77511.47802083324,
      "d": 388.1979166666715,
      "v": 89
    },
    {
      "midi": 62,
      "hit": false,
      "t": 77511.47802083324,
      "d": 407.6078125000058,
      "v": 85
    },
    {
      "midi": 58,
      "hit": false,
      "t": 77511.47802083324,
      "d": 411.48979166666686,
      "v": 78
    },
    {
      "midi": 34,
      "hit": false,
      "t": 77511.47802083324,
      "d": 943.3209375000151,
      "v": 101
    },
    {
      "midi": 53,
      "hit": false,
      "t": 78070.48302083324,
      "d": 89.28552083333489,
      "v": 96
    },
    {
      "midi": 62,
      "hit": false,
      "t": 78070.48302083324,
      "d": 104.81343750000815,
      "v": 100
    },
    {
      "midi": 58,
      "hit": false,
      "t": 78070.48302083324,
      "d": 108.69541666666919,
      "v": 108
    },
    {
      "midi": 53,
      "hit": false,
      "t": 78447.03499999992,
      "d": 263.97458333332906,
      "v": 95
    },
    {
      "midi": 58,
      "hit": false,
      "t": 78447.03499999992,
      "d": 337.7321874999907,
      "v": 106
    },
    {
      "midi": 62,
      "hit": false,
      "t": 78447.03499999992,
      "d": 364.9060416666616,
      "v": 100
    },
    {
      "midi": 36,
      "hit": false,
      "t": 78629.48802083325,
      "d": 236.80072916665813,
      "v": 91
    },
    {
      "midi": 37,
      "hit": false,
      "t": 78815.82302083324,
      "d": 155.27916666665988,
      "v": 79
    },
    {
      "midi": 57,
      "hit": false,
      "t": 79002.15802083323,
      "d": 586.178854166661,
      "v": 117
    },
    {
      "midi": 65,
      "hit": false,
      "t": 79002.15802083323,
      "d": 586.178854166661,
      "v": 121
    },
    {
      "midi": 60,
      "hit": false,
      "t": 79002.15802083323,
      "d": 671.5823958333349,
      "v": 121
    },
    {
      "midi": 38,
      "hit": false,
      "t": 79002.15802083323,
      "d": 710.4021875000035,
      "v": 113
    },
    {
      "midi": 53,
      "hit": false,
      "t": 79747.49802083323,
      "d": 174.68906249999418,
      "v": 121
    },
    {
      "midi": 43,
      "hit": false,
      "t": 79747.49802083323,
      "d": 454.1915624999965,
      "v": 117
    },
    {
      "midi": 62,
      "hit": false,
      "t": 79747.49802083323,
      "d": 621.116666666654,
      "v": 120
    },
    {
      "midi": 58,
      "hit": false,
      "t": 79747.49802083323,
      "d": 648.290520833325,
      "v": 121
    },
    {
      "midi": 53,
      "hit": false,
      "t": 80124.04999999989,
      "d": 209.62687500000175,
      "v": 121
    },
    {
      "midi": 43,
      "hit": false,
      "t": 80306.50302083322,
      "d": 139.75125000000116,
      "v": 121
    },
    {
      "midi": 55,
      "hit": false,
      "t": 80492.83802083322,
      "d": 438.6636458333378,
      "v": 80
    },
    {
      "midi": 58,
      "hit": false,
      "t": 80492.83802083322,
      "d": 450.30958333333547,
      "v": 93
    },
    {
      "midi": 63,
      "hit": false,
      "t": 80492.83802083322,
      "d": 465.83750000000873,
      "v": 92
    },
    {
      "midi": 36,
      "hit": false,
      "t": 80492.83802083322,
      "d": 982.1407291666837,
      "v": 83
    },
    {
      "midi": 58,
      "hit": false,
      "t": 81051.84302083323,
      "d": 65.99364583333954,
      "v": 93
    },
    {
      "midi": 63,
      "hit": false,
      "t": 81051.84302083323,
      "d": 73.75760416667617,
      "v": 93
    },
    {
      "midi": 55,
      "hit": false,
      "t": 81051.84302083323,
      "d": 81.5215625000128,
      "v": 83
    },
    {
      "midi": 55,
      "hit": false,
      "t": 81424.51302083324,
      "d": 166.9251041666721,
      "v": 88
    },
    {
      "midi": 58,
      "hit": false,
      "t": 81424.51302083324,
      "d": 399.8438541666692,
      "v": 96
    },
    {
      "midi": 63,
      "hit": false,
      "t": 81424.51302083324,
      "d": 427.0177083333401,
      "v": 92
    },
    {
      "midi": 36,
      "hit": false,
      "t": 81610.84802083325,
      "d": 333.8502083333442,
      "v": 76
    },
    {
      "midi": 55,
      "hit": false,
      "t": 81793.30104166658,
      "d": 143.63322916667676,
      "v": 76
    },
    {
      "midi": 58,
      "hit": false,
      "t": 81983.51802083326,
      "d": 174.68906249999418,
      "v": 87
    },
    {
      "midi": 62,
      "hit": false,
      "t": 81983.51802083326,
      "d": 481.36541666666744,
      "v": 96
    },
    {
      "midi": 65,
      "hit": false,
      "t": 81983.51802083326,
      "d": 566.7689583333413,
      "v": 85
    },
    {
      "midi": 39,
      "hit": false,
      "t": 81983.51802083326,
      "d": 718.1661458333547,
      "v": 72
    },
    {
      "midi": 58,
      "hit": false,
      "t": 82356.18802083326,
      "d": 260.0926041666826,
      "v": 107
    },
    {
      "midi": 57,
      "hit": false,
      "t": 82728.85802083329,
      "d": 159.16114583333547,
      "v": 92
    },
    {
      "midi": 65,
      "hit": false,
      "t": 82728.85802083329,
      "d": 551.241041666668,
      "v": 92
    },
    {
      "midi": 60,
      "hit": false,
      "t": 82728.85802083329,
      "d": 586.178854166661,
      "v": 103
    },
    {
      "midi": 41,
      "hit": false,
      "t": 82728.85802083329,
      "d": 656.0544791666616,
      "v": 91
    },
    {
      "midi": 57,
      "hit": false,
      "t": 83105.40999999996,
      "d": 197.98093749998952,
      "v": 89
    },
    {
      "midi": 55,
      "hit": false,
      "t": 83474.19802083328,
      "d": 399.8438541666692,
      "v": 93
    },
    {
      "midi": 58,
      "hit": false,
      "t": 83474.19802083328,
      "d": 415.37177083334245,
      "v": 96
    },
    {
      "midi": 63,
      "hit": false,
      "t": 83474.19802083328,
      "d": 430.8996875000157,
      "v": 87
    },
    {
      "midi": 36,
      "hit": false,
      "t": 83474.19802083328,
      "d": 1020.9605208333669,
      "v": 84
    },
    {
      "midi": 58,
      "hit": false,
      "t": 84033.2030208333,
      "d": 89.28552083333489,
      "v": 104
    },
    {
      "midi": 55,
      "hit": false,
      "t": 84033.2030208333,
      "d": 97.04947916667152,
      "v": 86
    },
    {
      "midi": 63,
      "hit": false,
      "t": 84033.2030208333,
      "d": 104.81343750000815,
      "v": 97
    },
    {
      "midi": 55,
      "hit": false,
      "t": 84405.87302083331,
      "d": 116.45937500000582,
      "v": 93
    },
    {
      "midi": 58,
      "hit": false,
      "t": 84405.87302083331,
      "d": 423.1357291666791,
      "v": 101
    },
    {
      "midi": 63,
      "hit": false,
      "t": 84405.87302083331,
      "d": 438.66364583335235,
      "v": 104
    },
    {
      "midi": 36,
      "hit": false,
      "t": 84588.32604166666,
      "d": 283.3844791666779,
      "v": 81
    },
    {
      "midi": 55,
      "hit": false,
      "t": 84778.54302083333,
      "d": 135.86927083334012,
      "v": 121
    },
    {
      "midi": 58,
      "hit": false,
      "t": 84964.87802083333,
      "d": 182.4530208333308,
      "v": 121
    },
    {
      "midi": 39,
      "hit": false,
      "t": 84964.87802083333,
      "d": 465.8374999999942,
      "v": 114
    },
    {
      "midi": 62,
      "hit": false,
      "t": 84964.87802083333,
      "d": 574.5329166666634,
      "v": 121
    },
    {
      "midi": 65,
      "hit": false,
      "t": 84964.87802083333,
      "d": 609.4707291666564,
      "v": 121
    },
    {
      "midi": 58,
      "hit": false,
      "t": 85337.54802083333,
      "d": 248.4466666666558,
      "v": 121
    },
    {
      "midi": 39,
      "hit": false,
      "t": 85520.00104166666,
      "d": 151.39718749999884,
      "v": 80
    },
    {
      "midi": 57,
      "hit": false,
      "t": 85706.33604166665,
      "d": 205.74489583332615,
      "v": 93
    },
    {
      "midi": 65,
      "hit": false,
      "t": 85706.33604166665,
      "d": 582.2968749999854,
      "v": 96
    },
    {
      "midi": 60,
      "hit": false,
      "t": 85706.33604166665,
      "d": 663.8184374999837,
      "v": 103
    },
    {
      "midi": 41,
      "hit": false,
      "t": 85706.33604166665,
      "d": 687.110312499979,
      "v": 98
    },
    {
      "midi": 57,
      "hit": false,
      "t": 86082.88802083331,
      "d": 209.6268749999872,
      "v": 98
    },
    {
      "midi": 53,
      "hit": false,
      "t": 86455.5580208333,
      "d": 384.3159374999959,
      "v": 86
    },
    {
      "midi": 62,
      "hit": false,
      "t": 86455.5580208333,
      "d": 415.3717708333279,
      "v": 93
    },
    {
      "midi": 58,
      "hit": false,
      "t": 86455.5580208333,
      "d": 419.25374999998894,
      "v": 98
    },
    {
      "midi": 34,
      "hit": false,
      "t": 86455.5580208333,
      "d": 974.376770833318,
      "v": 98
    },
    {
      "midi": 53,
      "hit": false,
      "t": 87014.56302083329,
      "d": 77.63958333333721,
      "v": 94
    },
    {
      "midi": 62,
      "hit": false,
      "t": 87014.56302083329,
      "d": 81.52156249999825,
      "v": 98
    },
    {
      "midi": 58,
      "hit": false,
      "t": 87014.56302083329,
      "d": 89.28552083333489,
      "v": 101
    },
    {
      "midi": 53,
      "hit": false,
      "t": 87387.23302083329,
      "d": 318.3222916666564,
      "v": 95
    },
    {
      "midi": 58,
      "hit": false,
      "t": 87387.23302083329,
      "d": 357.142083333325,
      "v": 97
    },
    {
      "midi": 62,
      "hit": false,
      "t": 87387.23302083329,
      "d": 364.9060416666616,
      "v": 97
    },
    {
      "midi": 36,
      "hit": false,
      "t": 87573.56802083328,
      "d": 252.32864583334594,
      "v": 90
    },
    {
      "midi": 37,
      "hit": false,
      "t": 87767.66697916662,
      "d": 143.63322916667676,
      "v": 81
    },
    {
      "midi": 57,
      "hit": false,
      "t": 87954.00197916663,
      "d": 555.1230208333291,
      "v": 121
    },
    {
      "midi": 60,
      "hit": false,
      "t": 87954.00197916663,
      "d": 582.296875,
      "v": 121
    },
    {
      "midi": 65,
      "hit": false,
      "t": 87954.00197916663,
      "d": 609.4707291666709,
      "v": 121
    },
    {
      "midi": 38,
      "hit": false,
      "t": 87954.00197916663,
      "d": 698.7562500000058,
      "v": 121
    },
    {
      "midi": 53,
      "hit": false,
      "t": 88695.45999999996,
      "d": 170.80708333333314,
      "v": 121
    },
    {
      "midi": 43,
      "hit": false,
      "t": 88695.45999999996,
      "d": 438.6636458333378,
      "v": 121
    },
    {
      "midi": 62,
      "hit": false,
      "t": 88695.45999999996,
      "d": 621.1166666666686,
      "v": 121
    },
    {
      "midi": 58,
      "hit": false,
      "t": 88695.45999999996,
      "d": 632.7626041666663,
      "v": 121
    },
    {
      "midi": 53,
      "hit": false,
      "t": 89068.12999999996,
      "d": 221.27281249999942,
      "v": 121
    },
    {
      "midi": 43,
      "hit": false,
      "t": 89254.46499999997,
      "d": 147.51520833332324,
      "v": 65
    },
    {
      "midi": 55,
      "hit": false,
      "t": 89436.91802083328,
      "d": 388.1979166666715,
      "v": 72
    },
    {
      "midi": 58,
      "hit": false,
      "t": 89436.91802083328,
      "d": 415.37177083334245,
      "v": 79
    },
    {
      "midi": 63,
      "hit": false,
      "t": 89436.91802083328,
      "d": 423.1357291666791,
      "v": 83
    },
    {
      "midi": 36,
      "hit": false,
      "t": 89436.91802083328,
      "d": 1009.3145833333401,
      "v": 72
    },
    {
      "midi": 58,
      "hit": false,
      "t": 89999.80499999996,
      "d": 69.87562500000058,
      "v": 85
    },
    {
      "midi": 63,
      "hit": false,
      "t": 89999.80499999996,
      "d": 89.28552083333489,
      "v": 85
    },
    {
      "midi": 55,
      "hit": false,
      "t": 89999.80499999996,
      "d": 93.16749999999593,
      "v": 77
    },
    {
      "midi": 55,
      "hit": false,
      "t": 90368.59302083329,
      "d": 166.9251041666721,
      "v": 81
    },
    {
      "midi": 58,
      "hit": false,
      "t": 90368.59302083329,
      "d": 399.8438541666692,
      "v": 91
    },
    {
      "midi": 63,
      "hit": false,
      "t": 90368.59302083329,
      "d": 415.37177083334245,
      "v": 83
    },
    {
      "midi": 36,
      "hit": false,
      "t": 90558.80999999995,
      "d": 275.6205208333413,
      "v": 68
    },
    {
      "midi": 55,
      "hit": false,
      "t": 90745.14499999996,
      "d": 124.2233333333279,
      "v": 107
    },
    {
      "midi": 58,
      "hit": false,
      "t": 90931.47999999995,
      "d": 120.34135416666686,
      "v": 121
    },
    {
      "midi": 39,
      "hit": false,
      "t": 90931.47999999995,
      "d": 500.77531250000175,
      "v": 96
    },
    {
      "midi": 62,
      "hit": false,
      "t": 90931.47999999995,
      "d": 535.7131249999948,
      "v": 121
    },
    {
      "midi": 65,
      "hit": false,
      "t": 90931.47999999995,
      "d": 578.4148958333244,
      "v": 121
    },
    {
      "midi": 58,
      "hit": false,
      "t": 91300.26802083329,
      "d": 275.62052083332674,
      "v": 121
    },
    {
      "midi": 39,
      "hit": false,
      "t": 91490.48499999994,
      "d": 155.27916666667443,
      "v": 63
    },
    {
      "midi": 57,
      "hit": false,
      "t": 91676.81999999995,
      "d": 213.5088541666628,
      "v": 72
    },
    {
      "midi": 65,
      "hit": false,
      "t": 91676.81999999995,
      "d": 539.5951041666558,
      "v": 64
    },
    {
      "midi": 60,
      "hit": false,
      "t": 91676.81999999995,
      "d": 574.5329166666488,
      "v": 81
    },
    {
      "midi": 41,
      "hit": false,
      "t": 91676.81999999995,
      "d": 617.2346874999785,
      "v": 75
    },
    {
      "midi": 57,
      "hit": false,
      "t": 92045.60802083327,
      "d": 205.74489583332615,
      "v": 72
    },
    {
      "midi": 55,
      "hit": false,
      "t": 92422.15999999993,
      "d": 388.1979166666715,
      "v": 72
    },
    {
      "midi": 58,
      "hit": false,
      "t": 92422.15999999993,
      "d": 403.7258333333448,
      "v": 75
    },
    {
      "midi": 63,
      "hit": false,
      "t": 92422.15999999993,
      "d": 403.7258333333448,
      "v": 71
    },
    {
      "midi": 36,
      "hit": false,
      "t": 92422.15999999993,
      "d": 993.7866666666814,
      "v": 60
    },
    {
      "midi": 58,
      "hit": false,
      "t": 92981.16499999994,
      "d": 77.63958333333721,
      "v": 77
    },
    {
      "midi": 55,
      "hit": false,
      "t": 92981.16499999994,
      "d": 89.28552083333489,
      "v": 69
    },
    {
      "midi": 63,
      "hit": false,
      "t": 92981.16499999994,
      "d": 104.81343750000815,
      "v": 83
    },
    {
      "midi": 55,
      "hit": false,
      "t": 93353.83499999995,
      "d": 151.39718749999884,
      "v": 74
    },
    {
      "midi": 63,
      "hit": false,
      "t": 93353.83499999995,
      "d": 446.4276041666599,
      "v": 82
    },
    {
      "midi": 58,
      "hit": false,
      "t": 93353.83499999995,
      "d": 450.3095833333209,
      "v": 82
    },
    {
      "midi": 36,
      "hit": false,
      "t": 93540.16999999994,
      "d": 263.97458333332906,
      "v": 67
    },
    {
      "midi": 55,
      "hit": false,
      "t": 93722.62302083327,
      "d": 128.1053125000035,
      "v": 81
    },
    {
      "midi": 58,
      "hit": false,
      "t": 93908.95802083328,
      "d": 139.75125000000116,
      "v": 86
    },
    {
      "midi": 62,
      "hit": false,
      "t": 93908.95802083328,
      "d": 547.3590624999924,
      "v": 102
    },
    {
      "midi": 65,
      "hit": false,
      "t": 93908.95802083328,
      "d": 582.2968749999854,
      "v": 90
    },
    {
      "midi": 39,
      "hit": false,
      "t": 93908.95802083328,
      "d": 718.1661458333256,
      "v": 87
    },
    {
      "midi": 58,
      "hit": false,
      "t": 94281.62802083328,
      "d": 248.4466666666558,
      "v": 98
    },
    {
      "midi": 57,
      "hit": false,
      "t": 94654.29802083327,
      "d": 166.9251041666721,
      "v": 91
    },
    {
      "midi": 65,
      "hit": false,
      "t": 94654.29802083327,
      "d": 508.5392708333384,
      "v": 86
    },
    {
      "midi": 60,
      "hit": false,
      "t": 94654.29802083327,
      "d": 636.6445833333419,
      "v": 101
    },
    {
      "midi": 41,
      "hit": false,
      "t": 94654.29802083327,
      "d": 663.8184375000128,
      "v": 85
    },
    {
      "midi": 57,
      "hit": false,
      "t": 95026.96802083327,
      "d": 186.3350000000064,
      "v": 86
    },
    {
      "midi": 58,
      "hit": false,
      "t": 95403.51999999996,
      "d": 4468.158020833333,
      "v": 81
    },
    {
      "midi": 62,
      "hit": false,
      "t": 95403.51999999996,
      "d": 4468.158020833333,
      "v": 89
    },
    {
      "midi": 34,
      "hit": false,
      "t": 95403.51999999996,
      "d": 5034.926979166674,
      "v": 101
    },
    {
      "midi": 53,
      "hit": false,
      "t": 95403.51999999996,
      "d": 5034.926979166674,
      "v": 93
    },
    {
      "midi": 58,
      "hit": false,
      "t": 99871.6780208333,
      "d": 120.34135416666686,
      "v": 50
    },
    {
      "midi": 62,
      "hit": false,
      "t": 99871.6780208333,
      "d": 376.55197916667385,
      "v": 56
    },
    {
      "midi": 46,
      "hit": false,
      "t": 99871.6780208333,
      "d": 446.4276041666744,
      "v": 41
    },
    {
      "midi": 58,
      "hit": false,
      "t": 100248.22999999997,
      "d": 120.34135416666686,
      "v": 65
    },
    {
      "midi": 59,
      "hit": false,
      "t": 100617.0180208333,
      "d": 232.9187499999971,
      "v": 62
    },
    {
      "midi": 47,
      "hit": false,
      "t": 100617.0180208333,
      "d": 376.5519791666593,
      "v": 52
    },
    {
      "midi": 62,
      "hit": false,
      "t": 100617.0180208333,
      "d": 411.4897916666523,
      "v": 70
    },
    {
      "midi": 55,
      "hit": false,
      "t": 100993.56999999996,
      "d": 182.4530208333308,
      "v": 72
    },
    {
      "midi": 63,
      "hit": false,
      "t": 101366.23999999996,
      "d": 326.086249999993,
      "v": 52
    },
    {
      "midi": 60,
      "hit": false,
      "t": 101366.23999999996,
      "d": 368.78802083332266,
      "v": 78
    },
    {
      "midi": 48,
      "hit": false,
      "t": 101366.23999999996,
      "d": 411.4897916666523,
      "v": 27
    },
    {
      "midi": 55,
      "hit": false,
      "t": 101735.02802083328,
      "d": 182.4530208333308,
      "v": 51
    },
    {
      "midi": 62,
      "hit": false,
      "t": 102111.57999999994,
      "d": 322.204270833332,
      "v": 73
    },
    {
      "midi": 65,
      "hit": false,
      "t": 102111.57999999994,
      "d": 337.73218750000524,
      "v": 67
    },
    {
      "midi": 50,
      "hit": false,
      "t": 102111.57999999994,
      "d": 353.2601041666785,
      "v": 62
    },
    {
      "midi": 58,
      "hit": false,
      "t": 102111.57999999994,
      "d": 368.78802083335177,
      "v": 61
    },
    {
      "midi": 58,
      "hit": false,
      "t": 102856.91999999997,
      "d": 69.87562500000058,
      "v": 69
    },
    {
      "midi": 51,
      "hit": false,
      "t": 102856.91999999997,
      "d": 372.66999999999825,
      "v": 73
    },
    {
      "midi": 67,
      "hit": false,
      "t": 102856.91999999997,
      "d": 372.66999999999825,
      "v": 72
    },
    {
      "midi": 63,
      "hit": false,
      "t": 102856.91999999997,
      "d": 399.8438541666692,
      "v": 72
    },
    {
      "midi": 58,
      "hit": false,
      "t": 103229.58999999997,
      "d": 77.63958333333721,
      "v": 67
    },
    {
      "midi": 54,
      "hit": false,
      "t": 103602.25999999997,
      "d": 298.91239583333663,
      "v": 74
    },
    {
      "midi": 69,
      "hit": false,
      "t": 103602.25999999997,
      "d": 298.91239583333663,
      "v": 75
    },
    {
      "midi": 66,
      "hit": false,
      "t": 103602.25999999997,
      "d": 376.55197916667385,
      "v": 75
    },
    {
      "midi": 60,
      "hit": false,
      "t": 103978.81197916664,
      "d": 112.57739583333023,
      "v": 68
    },
    {
      "midi": 62,
      "hit": false,
      "t": 104347.59999999998,
      "d": 318.32229166667094,
      "v": 83
    },
    {
      "midi": 67,
      "hit": false,
      "t": 104347.59999999998,
      "d": 392.07989583333256,
      "v": 83
    },
    {
      "midi": 43,
      "hit": false,
      "t": 104347.59999999998,
      "d": 500.7753124999872,
      "v": 72
    },
    {
      "midi": 58,
      "hit": false,
      "t": 104720.26999999997,
      "d": 124.2233333333279,
      "v": 78
    },
    {
      "midi": 65,
      "hit": false,
      "t": 105092.93999999996,
      "d": 353.26010416666395,
      "v": 78
    },
    {
      "midi": 60,
      "hit": false,
      "t": 105092.93999999996,
      "d": 372.66999999999825,
      "v": 91
    },
    {
      "midi": 45,
      "hit": false,
      "t": 105092.93999999996,
      "d": 395.9618749999936,
      "v": 71
    },
    {
      "midi": 57,
      "hit": false,
      "t": 105465.60999999996,
      "d": 194.09895833332848,
      "v": 89
    },
    {
      "midi": 58,
      "hit": false,
      "t": 105842.16197916662,
      "d": 120.34135416666686,
      "v": 57
    },
    {
      "midi": 46,
      "hit": false,
      "t": 105842.16197916662,
      "d": 438.6636458333378,
      "v": 66
    },
    {
      "midi": 62,
      "hit": false,
      "t": 105842.16197916662,
      "d": 454.19156250001106,
      "v": 76
    },
    {
      "midi": 65,
      "hit": false,
      "t": 105842.16197916662,
      "d": 485.24739583334303,
      "v": 69
    },
    {
      "midi": 58,
      "hit": false,
      "t": 106210.94999999995,
      "d": 170.80708333333314,
      "v": 84
    },
    {
      "midi": 59,
      "hit": false,
      "t": 106579.73802083329,
      "d": 345.4961458333273,
      "v": 82
    },
    {
      "midi": 62,
      "hit": false,
      "t": 106579.73802083329,
      "d": 353.26010416666395,
      "v": 80
    },
    {
      "midi": 47,
      "hit": false,
      "t": 106579.73802083329,
      "d": 454.1915624999965,
      "v": 70
    },
    {
      "midi": 55,
      "hit": false,
      "t": 106956.28999999995,
      "d": 213.50885416667734,
      "v": 81
    },
    {
      "midi": 63,
      "hit": false,
      "t": 107328.95999999996,
      "d": 310.5583333333343,
      "v": 77
    },
    {
      "midi": 60,
      "hit": false,
      "t": 107328.95999999996,
      "d": 341.6141666666663,
      "v": 88
    },
    {
      "midi": 48,
      "hit": false,
      "t": 107328.95999999996,
      "d": 430.8996874999866,
      "v": 72
    },
    {
      "midi": 55,
      "hit": false,
      "t": 107705.51197916662,
      "d": 197.98093749998952,
      "v": 83
    },
    {
      "midi": 58,
      "hit": false,
      "t": 108074.29999999994,
      "d": 116.45937500000582,
      "v": 60
    },
    {
      "midi": 62,
      "hit": false,
      "t": 108074.29999999994,
      "d": 372.6700000000128,
      "v": 69
    },
    {
      "midi": 65,
      "hit": false,
      "t": 108074.29999999994,
      "d": 372.6700000000128,
      "v": 67
    },
    {
      "midi": 50,
      "hit": false,
      "t": 108074.29999999994,
      "d": 427.0177083333401,
      "v": 55
    },
    {
      "midi": 58,
      "hit": false,
      "t": 108446.96999999996,
      "d": 143.6332291666622,
      "v": 83
    },
    {
      "midi": 63,
      "hit": false,
      "t": 108819.63999999996,
      "d": 411.48979166666686,
      "v": 79
    },
    {
      "midi": 67,
      "hit": false,
      "t": 108819.63999999996,
      "d": 427.0177083333401,
      "v": 92
    },
    {
      "midi": 51,
      "hit": false,
      "t": 108819.63999999996,
      "d": 438.6636458333378,
      "v": 74
    },
    {
      "midi": 58,
      "hit": false,
      "t": 109192.30999999995,
      "d": 81.5215625000128,
      "v": 70
    },
    {
      "midi": 66,
      "hit": false,
      "t": 109568.86197916663,
      "d": 329.9682291666686,
      "v": 62
    },
    {
      "midi": 69,
      "hit": false,
      "t": 109568.86197916663,
      "d": 329.9682291666686,
      "v": 67
    },
    {
      "midi": 54,
      "hit": false,
      "t": 109568.86197916663,
      "d": 582.296875,
      "v": 59
    },
    {
      "midi": 60,
      "hit": false,
      "t": 109937.64999999997,
      "d": 205.74489583332615,
      "v": 67
    },
    {
      "midi": 62,
      "hit": false,
      "t": 110310.31999999996,
      "d": 322.204270833332,
      "v": 83
    },
    {
      "midi": 67,
      "hit": false,
      "t": 110310.31999999996,
      "d": 392.07989583333256,
      "v": 83
    },
    {
      "midi": 43,
      "hit": false,
      "t": 110310.31999999996,
      "d": 500.7753124999872,
      "v": 72
    },
    {
      "midi": 58,
      "hit": false,
      "t": 110686.87197916662,
      "d": 120.34135416666686,
      "v": 78
    },
    {
      "midi": 65,
      "hit": false,
      "t": 111055.65999999995,
      "d": 353.26010416666395,
      "v": 79
    },
    {
      "midi": 60,
      "hit": false,
      "t": 111055.65999999995,
      "d": 372.66999999999825,
      "v": 92
    },
    {
      "midi": 45,
      "hit": false,
      "t": 111055.65999999995,
      "d": 399.8438541666692,
      "v": 71
    },
    {
      "midi": 57,
      "hit": false,
      "t": 111428.32999999994,
      "d": 194.09895833334303,
      "v": 90
    },
    {
      "midi": 58,
      "hit": false,
      "t": 111800.99999999996,
      "d": 120.34135416666686,
      "v": 59
    },
    {
      "midi": 46,
      "hit": false,
      "t": 111800.99999999996,
      "d": 442.54562499999884,
      "v": 67
    },
    {
      "midi": 62,
      "hit": false,
      "t": 111800.99999999996,
      "d": 458.0735416666721,
      "v": 76
    },
    {
      "midi": 65,
      "hit": false,
      "t": 111800.99999999996,
      "d": 485.24739583334303,
      "v": 69
    },
    {
      "midi": 58,
      "hit": false,
      "t": 112173.66999999995,
      "d": 166.9251041666721,
      "v": 85
    },
    {
      "midi": 59,
      "hit": false,
      "t": 112546.33999999995,
      "d": 341.6141666666663,
      "v": 83
    },
    {
      "midi": 62,
      "hit": false,
      "t": 112546.33999999995,
      "d": 349.3781250000029,
      "v": 81
    },
    {
      "midi": 47,
      "hit": false,
      "t": 112546.33999999995,
      "d": 454.1915624999965,
      "v": 70
    },
    {
      "midi": 55,
      "hit": false,
      "t": 112919.00999999995,
      "d": 209.62687500000175,
      "v": 81
    },
    {
      "midi": 63,
      "hit": false,
      "t": 113291.67999999995,
      "d": 310.5583333333343,
      "v": 77
    },
    {
      "midi": 60,
      "hit": false,
      "t": 113291.67999999995,
      "d": 337.73218750000524,
      "v": 88
    },
    {
      "midi": 48,
      "hit": false,
      "t": 113291.67999999995,
      "d": 427.0177083333256,
      "v": 72
    },
    {
      "midi": 55,
      "hit": false,
      "t": 113664.34999999995,
      "d": 205.74489583332615,
      "v": 83
    },
    {
      "midi": 58,
      "hit": false,
      "t": 114033.13802083327,
      "d": 116.45937500000582,
      "v": 60
    },
    {
      "midi": 62,
      "hit": false,
      "t": 114033.13802083327,
      "d": 376.55197916667385,
      "v": 69
    },
    {
      "midi": 65,
      "hit": false,
      "t": 114033.13802083327,
      "d": 376.55197916667385,
      "v": 67
    },
    {
      "midi": 50,
      "hit": false,
      "t": 114033.13802083327,
      "d": 427.0177083333401,
      "v": 55
    },
    {
      "midi": 58,
      "hit": false,
      "t": 114409.68999999994,
      "d": 139.75125000000116,
      "v": 83
    },
    {
      "midi": 63,
      "hit": false,
      "t": 114778.47802083328,
      "d": 411.48979166666686,
      "v": 79
    },
    {
      "midi": 67,
      "hit": false,
      "t": 114778.47802083328,
      "d": 427.0177083333401,
      "v": 92
    },
    {
      "midi": 51,
      "hit": false,
      "t": 114778.47802083328,
      "d": 438.6636458333378,
      "v": 74
    },
    {
      "midi": 58,
      "hit": false,
      "t": 115151.14802083328,
      "d": 81.5215625000128,
      "v": 70
    },
    {
      "midi": 66,
      "hit": false,
      "t": 115527.69999999995,
      "d": 333.85020833332965,
      "v": 62
    },
    {
      "midi": 69,
      "hit": false,
      "t": 115527.69999999995,
      "d": 333.85020833332965,
      "v": 67
    },
    {
      "midi": 54,
      "hit": false,
      "t": 115527.69999999995,
      "d": 582.2968749999854,
      "v": 59
    },
    {
      "midi": 60,
      "hit": false,
      "t": 115896.48802083328,
      "d": 205.74489583332615,
      "v": 67
    },
    {
      "midi": 58,
      "hit": false,
      "t": 116273.03999999994,
      "d": 46.58375000000524,
      "v": 70
    },
    {
      "midi": 67,
      "hit": false,
      "t": 116273.03999999994,
      "d": 372.66999999999825,
      "v": 97
    },
    {
      "midi": 43,
      "hit": false,
      "t": 116273.03999999994,
      "d": 407.60781249999127,
      "v": 80
    },
    {
      "midi": 62,
      "hit": false,
      "t": 116273.03999999994,
      "d": 465.8374999999942,
      "v": 94
    },
    {
      "midi": 58,
      "hit": false,
      "t": 116645.70999999993,
      "d": 120.34135416666686,
      "v": 99
    },
    {
      "midi": 60,
      "hit": false,
      "t": 117014.49802083327,
      "d": 174.68906249999418,
      "v": 65
    },
    {
      "midi": 65,
      "hit": false,
      "t": 117014.49802083327,
      "d": 395.9618749999936,
      "v": 61
    },
    {
      "midi": 45,
      "hit": false,
      "t": 117014.49802083327,
      "d": 411.48979166666686,
      "v": 49
    },
    {
      "midi": 60,
      "hit": false,
      "t": 117391.04999999993,
      "d": 139.75125000000116,
      "v": 59
    },
    {
      "midi": 58,
      "hit": false,
      "t": 117759.83802083327,
      "d": 399.8438541666692,
      "v": 46
    },
    {
      "midi": 62,
      "hit": false,
      "t": 117759.83802083327,
      "d": 415.37177083334245,
      "v": 54
    },
    {
      "midi": 46,
      "hit": false,
      "t": 117759.83802083327,
      "d": 458.0735416666721,
      "v": 41
    },
    {
      "midi": 59,
      "hit": false,
      "t": 118509.05999999994,
      "d": 314.44031249999534,
      "v": 50
    },
    {
      "midi": 62,
      "hit": false,
      "t": 118509.05999999994,
      "d": 329.9682291666686,
      "v": 52
    },
    {
      "midi": 47,
      "hit": false,
      "t": 118509.05999999994,
      "d": 423.13572916666453,
      "v": 45
    },
    {
      "midi": 55,
      "hit": false,
      "t": 118881.72999999994,
      "d": 194.09895833332848,
      "v": 61
    },
    {
      "midi": 60,
      "hit": false,
      "t": 119258.2819791666,
      "d": 170.80708333333314,
      "v": 62
    },
    {
      "midi": 63,
      "hit": false,
      "t": 119258.2819791666,
      "d": 395.96187500000815,
      "v": 61
    },
    {
      "midi": 48,
      "hit": false,
      "t": 119258.2819791666,
      "d": 489.1293750000041,
      "v": 51
    },
    {
      "midi": 60,
      "hit": false,
      "t": 119627.06999999993,
      "d": 170.80708333333314,
      "v": 100
    },
    {
      "midi": 58,
      "hit": false,
      "t": 119999.73999999993,
      "d": 100.93145833333256,
      "v": 93
    },
    {
      "midi": 50,
      "hit": false,
      "t": 119999.73999999993,
      "d": 349.3781250000029,
      "v": 75
    },
    {
      "midi": 62,
      "hit": false,
      "t": 119999.73999999993,
      "d": 376.55197916667385,
      "v": 95
    },
    {
      "midi": 65,
      "hit": false,
      "t": 119999.73999999993,
      "d": 376.55197916667385,
      "v": 81
    },
    {
      "midi": 58,
      "hit": false,
      "t": 120376.2919791666,
      "d": 112.57739583333023,
      "v": 98
    },
    {
      "midi": 58,
      "hit": false,
      "t": 120745.07999999994,
      "d": 77.63958333333721,
      "v": 62
    },
    {
      "midi": 67,
      "hit": false,
      "t": 120745.07999999994,
      "d": 345.49614583334187,
      "v": 64
    },
    {
      "midi": 63,
      "hit": false,
      "t": 120745.07999999994,
      "d": 403.7258333333448,
      "v": 73
    },
    {
      "midi": 39,
      "hit": false,
      "t": 120745.07999999994,
      "d": 419.25375000001804,
      "v": 59
    },
    {
      "midi": 58,
      "hit": false,
      "t": 121121.63197916662,
      "d": 112.57739583334478,
      "v": 68
    },
    {
      "midi": 55,
      "hit": false,
      "t": 121490.41999999997,
      "d": 174.68906249999418,
      "v": 63
    },
    {
      "midi": 63,
      "hit": false,
      "t": 121490.41999999997,
      "d": 632.7626041666663,
      "v": 76
    },
    {
      "midi": 41,
      "hit": false,
      "t": 121490.41999999997,
      "d": 636.6445833333273,
      "v": 65
    },
    {
      "midi": 58,
      "hit": false,
      "t": 121490.41999999997,
      "d": 636.6445833333273,
      "v": 75
    },
    {
      "midi": 55,
      "hit": false,
      "t": 121863.08999999997,
      "d": 248.44666666667035,
      "v": 64
    },
    {
      "midi": 53,
      "hit": false,
      "t": 122239.64197916663,
      "d": 333.85020833332965,
      "v": 64
    },
    {
      "midi": 58,
      "hit": false,
      "t": 122239.64197916663,
      "d": 361.0240625000006,
      "v": 65
    },
    {
      "midi": 62,
      "hit": false,
      "t": 122239.64197916663,
      "d": 361.0240625000006,
      "v": 64
    },
    {
      "midi": 34,
      "hit": false,
      "t": 122239.64197916663,
      "d": 555.1230208333291,
      "v": 60
    },
    {
      "midi": 62,
      "hit": false,
      "t": 122794.76499999996,
      "d": 77.63958333333721,
      "v": 71
    },
    {
      "midi": 58,
      "hit": false,
      "t": 122794.76499999996,
      "d": 93.16750000001048,
      "v": 75
    },
    {
      "midi": 53,
      "hit": false,
      "t": 122794.76499999996,
      "d": 100.93145833334711,
      "v": 68
    },
    {
      "midi": 34,
      "hit": false,
      "t": 122984.98197916664,
      "d": 139.75125000000116,
      "v": 60
    },
    {
      "midi": 53,
      "hit": false,
      "t": 123171.31697916664,
      "d": 143.6332291666622,
      "v": 65
    },
    {
      "midi": 62,
      "hit": false,
      "t": 123171.31697916664,
      "d": 403.72583333333023,
      "v": 69
    },
    {
      "midi": 58,
      "hit": false,
      "t": 123171.31697916664,
      "d": 430.89968750000116,
      "v": 72
    },
    {
      "midi": 34,
      "hit": false,
      "t": 123357.65197916664,
      "d": 302.7943750000122,
      "v": 72
    },
    {
      "midi": 53,
      "hit": false,
      "t": 123450.81947916663,
      "d": 97.04947916667152,
      "v": 60
    },
    {
      "midi": 60,
      "hit": false,
      "t": 123726.43999999999,
      "d": 89.28552083333489,
      "v": 48
    },
    {
      "midi": 57,
      "hit": false,
      "t": 123726.43999999999,
      "d": 97.04947916667152,
      "v": 55
    },
    {
      "midi": 65,
      "hit": false,
      "t": 123726.43999999999,
      "d": 97.04947916667152,
      "v": 42
    },
    {
      "midi": 38,
      "hit": false,
      "t": 123726.43999999999,
      "d": 376.55197916667385,
      "v": 54
    },
    {
      "midi": 57,
      "hit": false,
      "t": 124102.99197916666,
      "d": 186.3350000000064,
      "v": 65
    },
    {
      "midi": 65,
      "hit": false,
      "t": 124102.99197916666,
      "d": 186.3350000000064,
      "v": 65
    },
    {
      "midi": 60,
      "hit": false,
      "t": 124102.99197916666,
      "d": 287.26645833333896,
      "v": 65
    },
    {
      "midi": 38,
      "hit": false,
      "t": 124289.32697916667,
      "d": 174.68906249999418,
      "v": 42
    },
    {
      "midi": 53,
      "hit": false,
      "t": 124475.66197916666,
      "d": 590.0608333333366,
      "v": 67
    },
    {
      "midi": 62,
      "hit": false,
      "t": 124475.66197916666,
      "d": 609.4707291666709,
      "v": 62
    },
    {
      "midi": 43,
      "hit": false,
      "t": 124475.66197916666,
      "d": 636.6445833333419,
      "v": 65
    },
    {
      "midi": 58,
      "hit": false,
      "t": 124475.66197916666,
      "d": 636.6445833333419,
      "v": 54
    },
    {
      "midi": 55,
      "hit": false,
      "t": 125221.00197916667,
      "d": 450.30958333333547,
      "v": 61
    },
    {
      "midi": 58,
      "hit": false,
      "t": 125221.00197916667,
      "d": 469.71947916666977,
      "v": 61
    },
    {
      "midi": 63,
      "hit": false,
      "t": 125221.00197916667,
      "d": 481.36541666666744,
      "v": 67
    },
    {
      "midi": 36,
      "hit": false,
      "t": 125221.00197916667,
      "d": 1017.0785416666768,
      "v": 57
    },
    {
      "midi": 63,
      "hit": false,
      "t": 125780.00697916668,
      "d": 54.34770833332732,
      "v": 67
    },
    {
      "midi": 58,
      "hit": false,
      "t": 125780.00697916668,
      "d": 62.11166666666395,
      "v": 67
    },
    {
      "midi": 55,
      "hit": false,
      "t": 125780.00697916668,
      "d": 69.87562500000058,
      "v": 61
    },
    {
      "midi": 55,
      "hit": false,
      "t": 126152.67697916667,
      "d": 163.04312500001106,
      "v": 67
    },
    {
      "midi": 58,
      "hit": false,
      "t": 126152.67697916667,
      "d": 349.37812500001746,
      "v": 73
    },
    {
      "midi": 63,
      "hit": false,
      "t": 126152.67697916667,
      "d": 407.6078125000204,
      "v": 70
    },
    {
      "midi": 36,
      "hit": false,
      "t": 126335.13000000002,
      "d": 322.2042708333465,
      "v": 55
    },
    {
      "midi": 55,
      "hit": false,
      "t": 126521.46500000003,
      "d": 116.45937500000582,
      "v": 62
    },
    {
      "midi": 62,
      "hit": false,
      "t": 126711.6819791667,
      "d": 578.414895833339,
      "v": 109
    },
    {
      "midi": 65,
      "hit": false,
      "t": 126711.6819791667,
      "d": 597.8247916666733,
      "v": 111
    },
    {
      "midi": 58,
      "hit": false,
      "t": 126711.6819791667,
      "d": 644.4085416666785,
      "v": 103
    },
    {
      "midi": 39,
      "hit": false,
      "t": 126711.6819791667,
      "d": 694.8742708333448,
      "v": 88
    },
    {
      "midi": 57,
      "hit": false,
      "t": 127449.25802083337,
      "d": 197.98093750000407,
      "v": 93
    },
    {
      "midi": 65,
      "hit": false,
      "t": 127449.25802083337,
      "d": 586.1788541666756,
      "v": 97
    },
    {
      "midi": 60,
      "hit": false,
      "t": 127449.25802083337,
      "d": 628.8806250000198,
      "v": 110
    },
    {
      "midi": 41,
      "hit": false,
      "t": 127449.25802083337,
      "d": 714.2841666666936,
      "v": 96
    },
    {
      "midi": 57,
      "hit": false,
      "t": 127825.81000000004,
      "d": 236.80072916667268,
      "v": 102
    },
    {
      "midi": 55,
      "hit": false,
      "t": 128198.48000000005,
      "d": 399.8438541666692,
      "v": 71
    },
    {
      "midi": 58,
      "hit": false,
      "t": 128198.48000000005,
      "d": 427.0177083333401,
      "v": 74
    },
    {
      "midi": 63,
      "hit": false,
      "t": 128198.48000000005,
      "d": 434.78166666667676,
      "v": 74
    },
    {
      "midi": 36,
      "hit": false,
      "t": 128198.48000000005,
      "d": 974.3767708333326,
      "v": 68
    },
    {
      "midi": 58,
      "hit": false,
      "t": 128757.48500000006,
      "d": 62.11166666666395,
      "v": 109
    },
    {
      "midi": 63,
      "hit": false,
      "t": 128757.48500000006,
      "d": 62.11166666666395,
      "v": 100
    },
    {
      "midi": 55,
      "hit": false,
      "t": 128757.48500000006,
      "d": 77.63958333333721,
      "v": 99
    },
    {
      "midi": 55,
      "hit": false,
      "t": 129130.15500000006,
      "d": 170.80708333333314,
      "v": 99
    },
    {
      "midi": 58,
      "hit": false,
      "t": 129130.15500000006,
      "d": 349.3781250000029,
      "v": 114
    },
    {
      "midi": 63,
      "hit": false,
      "t": 129130.15500000006,
      "d": 364.9060416666762,
      "v": 100
    },
    {
      "midi": 36,
      "hit": false,
      "t": 129316.49000000006,
      "d": 341.61416666668083,
      "v": 93
    },
    {
      "midi": 55,
      "hit": false,
      "t": 129502.82500000007,
      "d": 135.86927083334012,
      "v": 63
    },
    {
      "midi": 58,
      "hit": false,
      "t": 129693.04197916674,
      "d": 178.57104166666977,
      "v": 68
    },
    {
      "midi": 39,
      "hit": false,
      "t": 129693.04197916674,
      "d": 489.1293750000041,
      "v": 49
    },
    {
      "midi": 65,
      "hit": false,
      "t": 129693.04197916674,
      "d": 597.8247916666733,
      "v": 63
    },
    {
      "midi": 62,
      "hit": false,
      "t": 129693.04197916674,
      "d": 659.9364583333372,
      "v": 76
    },
    {
      "midi": 58,
      "hit": false,
      "t": 130061.83000000007,
      "d": 248.44666666667035,
      "v": 75
    },
    {
      "midi": 39,
      "hit": false,
      "t": 130248.16500000008,
      "d": 135.86927083332557,
      "v": 51
    },
    {
      "midi": 57,
      "hit": false,
      "t": 130434.50000000007,
      "d": 205.74489583332615,
      "v": 65
    },
    {
      "midi": 60,
      "hit": false,
      "t": 130434.50000000007,
      "d": 617.234687499993,
      "v": 71
    },
    {
      "midi": 65,
      "hit": false,
      "t": 130434.50000000007,
      "d": 671.5823958333203,
      "v": 65
    },
    {
      "midi": 41,
      "hit": false,
      "t": 130434.50000000007,
      "d": 690.9922916666401,
      "v": 65
    },
    {
      "midi": 57,
      "hit": false,
      "t": 130811.05197916673,
      "d": 194.09895833332848,
      "v": 63
    },
    {
      "midi": 53,
      "hit": false,
      "t": 131179.84000000005,
      "d": 345.49614583334187,
      "v": 68
    },
    {
      "midi": 62,
      "hit": false,
      "t": 131179.84000000005,
      "d": 395.96187500000815,
      "v": 60
    },
    {
      "midi": 58,
      "hit": false,
      "t": 131179.84000000005,
      "d": 403.72583333333023,
      "v": 65
    },
    {
      "midi": 34,
      "hit": false,
      "t": 131179.84000000005,
      "d": 966.6128125000105,
      "v": 65
    },
    {
      "midi": 53,
      "hit": false,
      "t": 131738.84500000006,
      "d": 85.4035416666593,
      "v": 66
    },
    {
      "midi": 58,
      "hit": false,
      "t": 131738.84500000006,
      "d": 97.04947916665697,
      "v": 68
    },
    {
      "midi": 62,
      "hit": false,
      "t": 131738.84500000006,
      "d": 100.93145833333256,
      "v": 65
    },
    {
      "midi": 53,
      "hit": false,
      "t": 132111.51500000007,
      "d": 236.80072916665813,
      "v": 96
    },
    {
      "midi": 58,
      "hit": false,
      "t": 132111.51500000007,
      "d": 267.85656250000466,
      "v": 103
    },
    {
      "midi": 62,
      "hit": false,
      "t": 132111.51500000007,
      "d": 423.1357291666791,
      "v": 97
    },
    {
      "midi": 36,
      "hit": false,
      "t": 132293.9680208334,
      "d": 256.2106250000361,
      "v": 80
    },
    {
      "midi": 37,
      "hit": false,
      "t": 132484.18500000008,
      "d": 151.39718749999884,
      "v": 64
    },
    {
      "midi": 57,
      "hit": false,
      "t": 132670.52000000008,
      "d": 213.5088541666628,
      "v": 92
    },
    {
      "midi": 60,
      "hit": false,
      "t": 132670.52000000008,
      "d": 559.0050000000047,
      "v": 90
    },
    {
      "midi": 65,
      "hit": false,
      "t": 132670.52000000008,
      "d": 648.2905208333395,
      "v": 82
    },
    {
      "midi": 38,
      "hit": false,
      "t": 132670.52000000008,
      "d": 714.2841666666791,
      "v": 78
    },
    {
      "midi": 57,
      "hit": false,
      "t": 133039.3080208334,
      "d": 186.33499999999185,
      "v": 86
    },
    {
      "midi": 53,
      "hit": false,
      "t": 133415.8600000001,
      "d": 178.57104166666977,
      "v": 95
    },
    {
      "midi": 62,
      "hit": false,
      "t": 133415.8600000001,
      "d": 559.0050000000047,
      "v": 78
    },
    {
      "midi": 58,
      "hit": false,
      "t": 133415.8600000001,
      "d": 586.1788541666756,
      "v": 93
    },
    {
      "midi": 43,
      "hit": false,
      "t": 133415.8600000001,
      "d": 663.8184375000128,
      "v": 91
    },
    {
      "midi": 53,
      "hit": false,
      "t": 133784.64802083344,
      "d": 182.45302083334536,
      "v": 93
    },
    {
      "midi": 55,
      "hit": false,
      "t": 134157.31802083345,
      "d": 403.72583333333023,
      "v": 86
    },
    {
      "midi": 58,
      "hit": false,
      "t": 134157.31802083345,
      "d": 423.13572916665,
      "v": 93
    },
    {
      "midi": 63,
      "hit": false,
      "t": 134157.31802083345,
      "d": 434.78166666664765,
      "v": 92
    },
    {
      "midi": 36,
      "hit": false,
      "t": 134157.31802083345,
      "d": 1028.7244791666162,
      "v": 84
    },
    {
      "midi": 58,
      "hit": false,
      "t": 134716.32302083343,
      "d": 65.99364583333954,
      "v": 96
    },
    {
      "midi": 63,
      "hit": false,
      "t": 134716.32302083343,
      "d": 65.99364583333954,
      "v": 93
    },
    {
      "midi": 55,
      "hit": false,
      "t": 134716.32302083343,
      "d": 73.75760416666162,
      "v": 89
    },
    {
      "midi": 55,
      "hit": false,
      "t": 135088.9930208334,
      "d": 209.6268749999872,
      "v": 91
    },
    {
      "midi": 63,
      "hit": false,
      "t": 135088.9930208334,
      "d": 376.5519791666593,
      "v": 96
    },
    {
      "midi": 58,
      "hit": false,
      "t": 135088.9930208334,
      "d": 415.3717708333279,
      "v": 104
    },
    {
      "midi": 36,
      "hit": false,
      "t": 135279.21000000008,
      "d": 298.9123958333221,
      "v": 90
    },
    {
      "midi": 55,
      "hit": false,
      "t": 135465.54500000007,
      "d": 104.81343750000815,
      "v": 79
    },
    {
      "midi": 58,
      "hit": false,
      "t": 135651.88000000006,
      "d": 174.68906249999418,
      "v": 91
    },
    {
      "midi": 62,
      "hit": false,
      "t": 135651.88000000006,
      "d": 547.3590624999779,
      "v": 95
    },
    {
      "midi": 65,
      "hit": false,
      "t": 135651.88000000006,
      "d": 570.6509374999732,
      "v": 89
    },
    {
      "midi": 39,
      "hit": false,
      "t": 135651.88000000006,
      "d": 718.1661458332965,
      "v": 76
    },
    {
      "midi": 58,
      "hit": false,
      "t": 136024.55000000005,
      "d": 248.4466666666558,
      "v": 108
    },
    {
      "midi": 57,
      "hit": false,
      "t": 136397.22000000003,
      "d": 147.51520833332324,
      "v": 86
    },
    {
      "midi": 65,
      "hit": false,
      "t": 136397.22000000003,
      "d": 562.8869791666511,
      "v": 90
    },
    {
      "midi": 60,
      "hit": false,
      "t": 136397.22000000003,
      "d": 582.296875,
      "v": 110
    },
    {
      "midi": 41,
      "hit": false,
      "t": 136397.22000000003,
      "d": 687.1103125000081,
      "v": 95
    },
    {
      "midi": 57,
      "hit": false,
      "t": 136769.89,
      "d": 205.7448958333407,
      "v": 95
    },
    {
      "midi": 55,
      "hit": false,
      "t": 137138.67802083338,
      "d": 388.19791666665697,
      "v": 90
    },
    {
      "midi": 58,
      "hit": false,
      "t": 137138.67802083338,
      "d": 415.3717708333279,
      "v": 101
    },
    {
      "midi": 63,
      "hit": false,
      "t": 137138.67802083338,
      "d": 442.54562499999884,
      "v": 96
    },
    {
      "midi": 36,
      "hit": false,
      "t": 137138.67802083338,
      "d": 1036.4884374999674,
      "v": 85
    },
    {
      "midi": 58,
      "hit": false,
      "t": 137701.56500000003,
      "d": 54.34770833334187,
      "v": 96
    },
    {
      "midi": 63,
      "hit": false,
      "t": 137701.56500000003,
      "d": 62.11166666666395,
      "v": 93
    },
    {
      "midi": 55,
      "hit": false,
      "t": 137701.56500000003,
      "d": 69.87562499998603,
      "v": 90
    },
    {
      "midi": 55,
      "hit": false,
      "t": 138070.35302083334,
      "d": 139.75125000000116,
      "v": 90
    },
    {
      "midi": 58,
      "hit": false,
      "t": 138070.35302083334,
      "d": 275.62052083332674,
      "v": 103
    },
    {
      "midi": 63,
      "hit": false,
      "t": 138070.35302083334,
      "d": 361.02406249998603,
      "v": 95
    },
    {
      "midi": 36,
      "hit": false,
      "t": 138260.57,
      "d": 291.1484375,
      "v": 81
    },
    {
      "midi": 55,
      "hit": false,
      "t": 138446.905,
      "d": 116.45937500000582,
      "v": 82
    },
    {
      "midi": 58,
      "hit": false,
      "t": 138633.24,
      "d": 194.09895833334303,
      "v": 90
    },
    {
      "midi": 62,
      "hit": false,
      "t": 138633.24,
      "d": 531.8311458333337,
      "v": 99
    },
    {
      "midi": 65,
      "hit": false,
      "t": 138633.24,
      "d": 574.5329166666779,
      "v": 89
    },
    {
      "midi": 39,
      "hit": false,
      "t": 138633.24,
      "d": 706.5202083333279,
      "v": 83
    },
    {
      "midi": 58,
      "hit": false,
      "t": 139002.02802083333,
      "d": 252.3286458333314,
      "v": 97
    },
    {
      "midi": 57,
      "hit": false,
      "t": 139378.58,
      "d": 151.39718749999884,
      "v": 88
    },
    {
      "midi": 65,
      "hit": false,
      "t": 139378.58,
      "d": 555.1230208333582,
      "v": 89
    },
    {
      "midi": 60,
      "hit": false,
      "t": 139378.58,
      "d": 632.7626041666954,
      "v": 97
    },
    {
      "midi": 41,
      "hit": false,
      "t": 139378.58,
      "d": 718.1661458333547,
      "v": 93
    },
    {
      "midi": 57,
      "hit": false,
      "t": 139751.25,
      "d": 197.98093750001863,
      "v": 91
    },
    {
      "midi": 53,
      "hit": false,
      "t": 140123.92,
      "d": 388.19791666665697,
      "v": 89
    },
    {
      "midi": 62,
      "hit": false,
      "t": 140123.92,
      "d": 407.6078124999767,
      "v": 85
    },
    {
      "midi": 58,
      "hit": false,
      "t": 140123.92,
      "d": 411.4897916666523,
      "v": 78
    },
    {
      "midi": 34,
      "hit": false,
      "t": 140123.92,
      "d": 943.3209374999569,
      "v": 101
    },
    {
      "midi": 53,
      "hit": false,
      "t": 140682.925,
      "d": 89.28552083333489,
      "v": 96
    },
    {
      "midi": 62,
      "hit": false,
      "t": 140682.925,
      "d": 97.04947916665697,
      "v": 100
    },
    {
      "midi": 58,
      "hit": false,
      "t": 140682.925,
      "d": 108.69541666665464,
      "v": 108
    },
    {
      "midi": 53,
      "hit": false,
      "t": 141055.59499999997,
      "d": 260.0926041666535,
      "v": 95
    },
    {
      "midi": 58,
      "hit": false,
      "t": 141055.59499999997,
      "d": 341.6141666666663,
      "v": 106
    },
    {
      "midi": 62,
      "hit": false,
      "t": 141055.59499999997,
      "d": 361.02406249998603,
      "v": 100
    },
    {
      "midi": 36,
      "hit": false,
      "t": 141241.92999999996,
      "d": 232.91874999998254,
      "v": 91
    },
    {
      "midi": 37,
      "hit": false,
      "t": 141424.38302083328,
      "d": 155.27916666667443,
      "v": 79
    },
    {
      "midi": 57,
      "hit": false,
      "t": 141610.7180208333,
      "d": 578.4148958333244,
      "v": 117
    },
    {
      "midi": 65,
      "hit": false,
      "t": 141610.7180208333,
      "d": 578.4148958333244,
      "v": 121
    },
    {
      "midi": 60,
      "hit": false,
      "t": 141610.7180208333,
      "d": 667.7004166666593,
      "v": 121
    },
    {
      "midi": 38,
      "hit": false,
      "t": 141610.7180208333,
      "d": 710.4021875000035,
      "v": 113
    },
    {
      "midi": 53,
      "hit": false,
      "t": 142356.0580208333,
      "d": 174.68906249999418,
      "v": 121
    },
    {
      "midi": 43,
      "hit": false,
      "t": 142356.0580208333,
      "d": 454.1915624999965,
      "v": 117
    },
    {
      "midi": 62,
      "hit": false,
      "t": 142356.0580208333,
      "d": 613.3527083333465,
      "v": 120
    },
    {
      "midi": 58,
      "hit": false,
      "t": 142356.0580208333,
      "d": 648.2905208333395,
      "v": 121
    },
    {
      "midi": 53,
      "hit": false,
      "t": 142724.84604166663,
      "d": 217.39083333333838,
      "v": 121
    },
    {
      "midi": 43,
      "hit": false,
      "t": 142915.0630208333,
      "d": 139.75125000000116,
      "v": 121
    },
    {
      "midi": 55,
      "hit": false,
      "t": 143101.3980208333,
      "d": 438.66364583332324,
      "v": 80
    },
    {
      "midi": 58,
      "hit": false,
      "t": 143101.3980208333,
      "d": 450.3095833333209,
      "v": 93
    },
    {
      "midi": 63,
      "hit": false,
      "t": 143101.3980208333,
      "d": 458.073541666643,
      "v": 92
    },
    {
      "midi": 36,
      "hit": false,
      "t": 143101.3980208333,
      "d": 982.1407291666255,
      "v": 83
    },
    {
      "midi": 58,
      "hit": false,
      "t": 143656.5210416666,
      "d": 69.87562499998603,
      "v": 93
    },
    {
      "midi": 63,
      "hit": false,
      "t": 143656.5210416666,
      "d": 73.75760416666162,
      "v": 93
    },
    {
      "midi": 55,
      "hit": false,
      "t": 143656.5210416666,
      "d": 85.4035416666593,
      "v": 83
    },
    {
      "midi": 55,
      "hit": false,
      "t": 144033.07302083325,
      "d": 159.16114583332092,
      "v": 88
    },
    {
      "midi": 58,
      "hit": false,
      "t": 144033.07302083325,
      "d": 399.84385416668374,
      "v": 96
    },
    {
      "midi": 63,
      "hit": false,
      "t": 144033.07302083325,
      "d": 427.0177083333547,
      "v": 92
    },
    {
      "midi": 36,
      "hit": false,
      "t": 144219.40802083325,
      "d": 326.0862500000221,
      "v": 76
    },
    {
      "midi": 55,
      "hit": false,
      "t": 144401.8610416666,
      "d": 143.63322916667676,
      "v": 76
    },
    {
      "midi": 58,
      "hit": false,
      "t": 144588.1960416666,
      "d": 174.68906249999418,
      "v": 87
    },
    {
      "midi": 62,
      "hit": false,
      "t": 144588.1960416666,
      "d": 485.24739583331393,
      "v": 96
    },
    {
      "midi": 65,
      "hit": false,
      "t": 144588.1960416666,
      "d": 570.6509374999732,
      "v": 85
    },
    {
      "midi": 39,
      "hit": false,
      "t": 144588.1960416666,
      "d": 722.0481249999721,
      "v": 72
    },
    {
      "midi": 58,
      "hit": false,
      "t": 144960.8660416666,
      "d": 263.97458333332906,
      "v": 107
    },
    {
      "midi": 57,
      "hit": false,
      "t": 145333.53604166658,
      "d": 163.0431249999965,
      "v": 92
    },
    {
      "midi": 65,
      "hit": false,
      "t": 145333.53604166658,
      "d": 547.3590624999779,
      "v": 92
    },
    {
      "midi": 60,
      "hit": false,
      "t": 145333.53604166658,
      "d": 586.1788541666465,
      "v": 103
    },
    {
      "midi": 41,
      "hit": false,
      "t": 145333.53604166658,
      "d": 652.172499999986,
      "v": 91
    },
    {
      "midi": 57,
      "hit": false,
      "t": 145706.20604166656,
      "d": 201.86291666666511,
      "v": 89
    },
    {
      "midi": 55,
      "hit": false,
      "t": 146078.87604166658,
      "d": 399.84385416665464,
      "v": 93
    },
    {
      "midi": 58,
      "hit": false,
      "t": 146078.87604166658,
      "d": 411.4897916666523,
      "v": 96
    },
    {
      "midi": 63,
      "hit": false,
      "t": 146078.87604166658,
      "d": 430.89968749997206,
      "v": 87
    },
    {
      "midi": 36,
      "hit": false,
      "t": 146078.87604166658,
      "d": 1020.9605208332941,
      "v": 84
    },
    {
      "midi": 58,
      "hit": false,
      "t": 146633.99906249988,
      "d": 97.04947916665697,
      "v": 104
    },
    {
      "midi": 55,
      "hit": false,
      "t": 146633.99906249988,
      "d": 100.93145833333256,
      "v": 86
    },
    {
      "midi": 63,
      "hit": false,
      "t": 146633.99906249988,
      "d": 112.57739583333023,
      "v": 97
    },
    {
      "midi": 55,
      "hit": false,
      "t": 147010.55104166653,
      "d": 120.34135416668141,
      "v": 93
    },
    {
      "midi": 58,
      "hit": false,
      "t": 147010.55104166653,
      "d": 423.1357291667082,
      "v": 101
    },
    {
      "midi": 63,
      "hit": false,
      "t": 147010.55104166653,
      "d": 434.78166666670586,
      "v": 104
    },
    {
      "midi": 36,
      "hit": false,
      "t": 147196.88604166656,
      "d": 275.62052083335584,
      "v": 81
    },
    {
      "midi": 55,
      "hit": false,
      "t": 147379.3390624999,
      "d": 139.75125000000116,
      "v": 84
    },
    {
      "midi": 66,
      "hit": false,
      "t": 147561.79208333325,
      "d": 1152.9478125000023,
      "v": 72
    },
    {
      "midi": 60,
      "hit": false,
      "t": 147561.79208333325,
      "d": 1168.4757291666756,
      "v": 78
    },
    {
      "midi": 69,
      "hit": false,
      "t": 147561.79208333325,
      "d": 1168.4757291666756,
      "v": 81
    },
    {
      "midi": 54,
      "hit": false,
      "t": 147561.79208333325,
      "d": 1184.0036458333489,
      "v": 65
    },
    {
      "midi": 67,
      "hit": false,
      "t": 149056.35406249992,
      "d": 1118.0100000000093,
      "v": 72
    },
    {
      "midi": 55,
      "hit": false,
      "t": 149056.35406249992,
      "d": 1133.5379166666826,
      "v": 71
    },
    {
      "midi": 70,
      "hit": false,
      "t": 149056.35406249992,
      "d": 1133.5379166666826,
      "v": 59
    },
    {
      "midi": 62,
      "hit": false,
      "t": 149056.35406249992,
      "d": 1180.1216666666733,
      "v": 54
    },
    {
      "midi": 63,
      "hit": false,
      "t": 150550.91604166658,
      "d": 310.55833333331975,
      "v": 72
    },
    {
      "midi": 67,
      "hit": false,
      "t": 150550.91604166658,
      "d": 310.55833333331975,
      "v": 75
    },
    {
      "midi": 58,
      "hit": false,
      "t": 150550.91604166658,
      "d": 322.2042708333174,
      "v": 59
    },
    {
      "midi": 48,
      "hit": false,
      "t": 150550.91604166658,
      "d": 357.14208333331044,
      "v": 57
    },
    {
      "midi": 51,
      "hit": false,
      "t": 151292.3740624999,
      "d": 353.26010416666395,
      "v": 57
    },
    {
      "midi": 65,
      "hit": false,
      "t": 151292.3740624999,
      "d": 395.96187500000815,
      "v": 69
    },
    {
      "midi": 62,
      "hit": false,
      "t": 151292.3740624999,
      "d": 407.6078125000058,
      "v": 63
    },
    {
      "midi": 58,
      "hit": false,
      "t": 151292.3740624999,
      "d": 434.78166666667676,
      "v": 56
    },
    {
      "midi": 57,
      "hit": false,
      "t": 152037.7140624999,
      "d": 951.0848958333372,
      "v": 54
    },
    {
      "midi": 60,
      "hit": false,
      "t": 152037.7140624999,
      "d": 970.494791666657,
      "v": 65
    },
    {
      "midi": 41,
      "hit": false,
      "t": 152037.7140624999,
      "d": 2170.02635416665,
      "v": 50
    },
    {
      "midi": 65,
      "hit": false,
      "t": 152037.7140624999,
      "d": 2247.665937499987,
      "v": 65
    },
    {
      "midi": 58,
      "hit": false,
      "t": 153155.72406249988,
      "d": 135.86927083332557,
      "v": 50
    },
    {
      "midi": 60,
      "hit": false,
      "t": 153155.72406249988,
      "d": 1207.2955208333442,
      "v": 78
    },
    {
      "midi": 53,
      "hit": false,
      "t": 153532.27604166654,
      "d": 380.4339583333349,
      "v": 35
    },
    {
      "midi": 57,
      "hit": false,
      "t": 153532.27604166654,
      "d": 869.5633333333535,
      "v": 35
    },
    {
      "midi": 43,
      "hit": false,
      "t": 154646.4040624999,
      "d": 139.75125000000116,
      "v": 72
    },
    {
      "midi": 58,
      "hit": false,
      "t": 154646.4040624999,
      "d": 139.75125000000116,
      "v": 87
    },
    {
      "midi": 65,
      "hit": false,
      "t": 154646.4040624999,
      "d": 205.7448958333116,
      "v": 72
    },
    {
      "midi": 45,
      "hit": false,
      "t": 154832.7390624999,
      "d": 54.34770833331277,
      "v": 48
    },
    {
      "midi": 60,
      "hit": false,
      "t": 154832.7390624999,
      "d": 93.16749999998137,
      "v": 84
    },
    {
      "midi": 62,
      "hit": false,
      "t": 155015.1920833332,
      "d": 1191.767604166671,
      "v": 74
    },
    {
      "midi": 53,
      "hit": false,
      "t": 155015.1920833332,
      "d": 1222.8234375000175,
      "v": 60
    },
    {
      "midi": 58,
      "hit": false,
      "t": 155015.1920833332,
      "d": 1238.3513541666907,
      "v": 56
    },
    {
      "midi": 46,
      "hit": false,
      "t": 155015.1920833332,
      "d": 1265.5252083333617,
      "v": 48
    },
    {
      "midi": 62,
      "hit": false,
      "t": 156505.87208333323,
      "d": 1133.5379166666535,
      "v": 54
    },
    {
      "midi": 65,
      "hit": false,
      "t": 156505.87208333323,
      "d": 1149.0658333333267,
      "v": 62
    },
    {
      "midi": 58,
      "hit": false,
      "t": 156505.87208333323,
      "d": 1176.2396874999977,
      "v": 51
    },
    {
      "midi": 50,
      "hit": false,
      "t": 156505.87208333323,
      "d": 1222.8234374999884,
      "v": 46
    },
    {
      "midi": 58,
      "hit": false,
      "t": 157992.67010416655,
      "d": 345.49614583334187,
      "v": 72
    },
    {
      "midi": 63,
      "hit": false,
      "t": 157992.67010416655,
      "d": 345.49614583334187,
      "v": 72
    },
    {
      "midi": 67,
      "hit": false,
      "t": 157992.67010416655,
      "d": 345.49614583334187,
      "v": 77
    },
    {
      "midi": 51,
      "hit": false,
      "t": 157992.67010416655,
      "d": 392.07989583333256,
      "v": 72
    },
    {
      "midi": 69,
      "hit": false,
      "t": 158738.01010416655,
      "d": 291.1484375,
      "v": 78
    },
    {
      "midi": 42,
      "hit": false,
      "t": 158738.01010416655,
      "d": 345.49614583334187,
      "v": 57
    },
    {
      "midi": 66,
      "hit": false,
      "t": 158738.01010416655,
      "d": 380.4339583333349,
      "v": 71
    },
    {
      "midi": 60,
      "hit": false,
      "t": 158738.01010416655,
      "d": 395.96187500000815,
      "v": 75
    },
    {
      "midi": 58,
      "hit": false,
      "t": 159487.23208333322,
      "d": 1086.9541666666628,
      "v": 51
    },
    {
      "midi": 67,
      "hit": false,
      "t": 159487.23208333322,
      "d": 1086.9541666666628,
      "v": 65
    },
    {
      "midi": 62,
      "hit": false,
      "t": 159487.23208333322,
      "d": 1102.482083333336,
      "v": 71
    },
    {
      "midi": 43,
      "hit": false,
      "t": 159487.23208333322,
      "d": 1129.655937500007,
      "v": 72
    },
    {
      "midi": 65,
      "hit": false,
      "t": 160977.9120833332,
      "d": 376.5519791666593,
      "v": 78
    },
    {
      "midi": 69,
      "hit": false,
      "t": 160977.9120833332,
      "d": 419.2537500000035,
      "v": 75
    },
    {
      "midi": 60,
      "hit": false,
      "t": 160977.9120833332,
      "d": 438.66364583332324,
      "v": 71
    },
    {
      "midi": 53,
      "hit": false,
      "t": 160977.9120833332,
      "d": 477.48343749999185,
      "v": 69
    },
    {
      "midi": 65,
      "hit": false,
      "t": 161723.2520833332,
      "d": 329.9682291666686,
      "v": 71
    },
    {
      "midi": 50,
      "hit": false,
      "t": 161723.2520833332,
      "d": 364.9060416666616,
      "v": 54
    },
    {
      "midi": 62,
      "hit": false,
      "t": 161723.2520833332,
      "d": 380.4339583333349,
      "v": 56
    },
    {
      "midi": 70,
      "hit": false,
      "t": 161723.2520833332,
      "d": 434.78166666667676,
      "v": 57
    },
    {
      "midi": 67,
      "hit": false,
      "t": 162468.5920833332,
      "d": 314.44031249999534,
      "v": 65
    },
    {
      "midi": 63,
      "hit": false,
      "t": 162468.5920833332,
      "d": 345.49614583334187,
      "v": 59
    },
    {
      "midi": 51,
      "hit": false,
      "t": 162468.5920833332,
      "d": 380.4339583333349,
      "v": 60
    },
    {
      "midi": 58,
      "hit": false,
      "t": 162468.5920833332,
      "d": 399.84385416665464,
      "v": 51
    },
    {
      "midi": 62,
      "hit": false,
      "t": 163213.9320833332,
      "d": 399.84385416665464,
      "v": 72
    },
    {
      "midi": 46,
      "hit": false,
      "t": 163213.9320833332,
      "d": 454.1915624999965,
      "v": 65
    },
    {
      "midi": 58,
      "hit": false,
      "t": 163213.9320833332,
      "d": 481.36541666666744,
      "v": 51
    },
    {
      "midi": 65,
      "hit": false,
      "t": 163213.9320833332,
      "d": 500.7753124999872,
      "v": 75
    },
    {
      "midi": 48,
      "hit": false,
      "t": 163955.39010416652,
      "d": 399.84385416665464,
      "v": 59
    },
    {
      "midi": 58,
      "hit": false,
      "t": 163955.39010416652,
      "d": 430.89968750000116,
      "v": 48
    },
    {
      "midi": 63,
      "hit": false,
      "t": 163955.39010416652,
      "d": 430.89968750000116,
      "v": 65
    },
    {
      "midi": 67,
      "hit": false,
      "t": 163955.39010416652,
      "d": 430.89968750000116,
      "v": 71
    },
    {
      "midi": 62,
      "hit": false,
      "t": 164696.84812499984,
      "d": 345.49614583334187,
      "v": 72
    },
    {
      "midi": 58,
      "hit": false,
      "t": 164696.84812499984,
      "d": 361.02406250001513,
      "v": 54
    },
    {
      "midi": 65,
      "hit": false,
      "t": 164696.84812499984,
      "d": 364.9060416666907,
      "v": 81
    },
    {
      "midi": 51,
      "hit": false,
      "t": 164696.84812499984,
      "d": 411.4897916666814,
      "v": 54
    },
    {
      "midi": 60,
      "hit": false,
      "t": 165442.18812499987,
      "d": 776.395833333343,
      "v": 101
    },
    {
      "midi": 65,
      "hit": false,
      "t": 165442.18812499987,
      "d": 838.507500000007,
      "v": 93
    },
    {
      "midi": 57,
      "hit": false,
      "t": 165442.18812499987,
      "d": 854.0354166666802,
      "v": 81
    },
    {
      "midi": 53,
      "hit": false,
      "t": 165442.18812499987,
      "d": 1149.0658333333558,
      "v": 86
    }
  ]
}