{
  "jsonPath": "Rock/Folk Rock/James Taylor/something-in-the-way-she-moves.json",
  "path": "Rock\\Folk Rock\\James Taylor\\Something In The Way She Moves.mid",
  "name": "Something In The Way She Moves",
  "difficulty": "Advanced",
  "bpm": 81.000081000081,
  "notes": [
    {
      "midi": 82,
      "hit": false,
      "t": 42592.55,
      "d": 57.87031250000291,
      "v": 97
    },
    {
      "midi": 94,
      "hit": false,
      "t": 42592.55,
      "d": 82.94744791666744,
      "v": 105
    },
    {
      "midi": 58,
      "hit": false,
      "t": 42592.55,
      "d": 162.03687499999796,
      "v": 100
    },
    {
      "midi": 96,
      "hit": false,
      "t": 42777.735,
      "d": 77.1604166666657,
      "v": 96
    },
    {
      "midi": 84,
      "hit": false,
      "t": 42777.735,
      "d": 100.3085416666654,
      "v": 83
    },
    {
      "midi": 60,
      "hit": false,
      "t": 42777.735,
      "d": 123.45666666666511,
      "v": 88
    },
    {
      "midi": 96,
      "hit": false,
      "t": 42962.92,
      "d": 160.10786458333314,
      "v": 79
    },
    {
      "midi": 84,
      "hit": false,
      "t": 42962.92,
      "d": 163.96588541667006,
      "v": 78
    },
    {
      "midi": 60,
      "hit": false,
      "t": 42962.92,
      "d": 173.61093750000146,
      "v": 90
    },
    {
      "midi": 84,
      "hit": false,
      "t": 43333.29,
      "d": 295.13859374999447,
      "v": 95
    },
    {
      "midi": 60,
      "hit": false,
      "t": 43333.29,
      "d": 302.85463541666104,
      "v": 96
    },
    {
      "midi": 96,
      "hit": false,
      "t": 43333.29,
      "d": 314.42869791666453,
      "v": 102
    },
    {
      "midi": 62,
      "hit": false,
      "t": 44444.399999999994,
      "d": 190.97203124999942,
      "v": 102
    },
    {
      "midi": 98,
      "hit": false,
      "t": 44444.399999999994,
      "d": 210.26213541666948,
      "v": 102
    },
    {
      "midi": 86,
      "hit": false,
      "t": 44444.399999999994,
      "d": 221.83619791667297,
      "v": 105
    },
    {
      "midi": 96,
      "hit": false,
      "t": 45555.51,
      "d": 219.90718750000087,
      "v": 95
    },
    {
      "midi": 84,
      "hit": false,
      "t": 45555.51,
      "d": 231.48125000000437,
      "v": 97
    },
    {
      "midi": 60,
      "hit": false,
      "t": 45555.51,
      "d": 237.2682812500061,
      "v": 93
    },
    {
      "midi": 77,
      "hit": false,
      "t": 47036.99000000001,
      "d": 79.08942708333052,
      "v": 92
    },
    {
      "midi": 89,
      "hit": false,
      "t": 47036.99000000001,
      "d": 86.80546874999709,
      "v": 96
    },
    {
      "midi": 53,
      "hit": false,
      "t": 47036.99000000001,
      "d": 100.3085416666654,
      "v": 88
    },
    {
      "midi": 53,
      "hit": false,
      "t": 47407.36000000001,
      "d": 233.4102604166619,
      "v": 97
    },
    {
      "midi": 77,
      "hit": false,
      "t": 47407.36000000001,
      "d": 248.84234374999505,
      "v": 103
    },
    {
      "midi": 89,
      "hit": false,
      "t": 47407.36000000001,
      "d": 264.2744270833282,
      "v": 103
    },
    {
      "midi": 79,
      "hit": false,
      "t": 48518.47000000001,
      "d": 136.95973958333343,
      "v": 100
    },
    {
      "midi": 55,
      "hit": false,
      "t": 48518.47000000001,
      "d": 140.81776041667035,
      "v": 103
    },
    {
      "midi": 91,
      "hit": false,
      "t": 48518.47000000001,
      "d": 144.67578125000728,
      "v": 99
    },
    {
      "midi": 55,
      "hit": false,
      "t": 48888.84000000002,
      "d": 189.0430208333346,
      "v": 105
    },
    {
      "midi": 91,
      "hit": false,
      "t": 48888.84000000002,
      "d": 192.90104166667152,
      "v": 100
    },
    {
      "midi": 79,
      "hit": false,
      "t": 48888.84000000002,
      "d": 194.83005208333634,
      "v": 100
    },
    {
      "midi": 82,
      "hit": false,
      "t": 54444.39000000002,
      "d": 69.44437499999913,
      "v": 92
    },
    {
      "midi": 94,
      "hit": false,
      "t": 54444.39000000002,
      "d": 92.59249999999884,
      "v": 102
    },
    {
      "midi": 58,
      "hit": false,
      "t": 54444.39000000002,
      "d": 133.1017187499965,
      "v": 99
    },
    {
      "midi": 84,
      "hit": false,
      "t": 54629.57500000002,
      "d": 119.59864583333547,
      "v": 92
    },
    {
      "midi": 96,
      "hit": false,
      "t": 54629.57500000002,
      "d": 119.59864583333547,
      "v": 103
    },
    {
      "midi": 60,
      "hit": false,
      "t": 54629.57500000002,
      "d": 129.24369791666686,
      "v": 99
    },
    {
      "midi": 60,
      "hit": false,
      "t": 54814.76000000002,
      "d": 214.12015624999913,
      "v": 95
    },
    {
      "midi": 84,
      "hit": false,
      "t": 54814.76000000002,
      "d": 214.12015624999913,
      "v": 92
    },
    {
      "midi": 96,
      "hit": false,
      "t": 54814.76000000002,
      "d": 223.76520833333052,
      "v": 97
    },
    {
      "midi": 96,
      "hit": false,
      "t": 55185.13000000001,
      "d": 221.8361979166657,
      "v": 95
    },
    {
      "midi": 84,
      "hit": false,
      "t": 55185.13000000001,
      "d": 227.62322916666744,
      "v": 88
    },
    {
      "midi": 60,
      "hit": false,
      "t": 55185.13000000001,
      "d": 243.05531250000058,
      "v": 102
    },
    {
      "midi": 62,
      "hit": false,
      "t": 56296.24000000001,
      "d": 202.5460937500029,
      "v": 107
    },
    {
      "midi": 98,
      "hit": false,
      "t": 56296.24000000001,
      "d": 212.1911458333343,
      "v": 102
    },
    {
      "midi": 86,
      "hit": false,
      "t": 56296.24000000001,
      "d": 239.19729166667094,
      "v": 102
    },
    {
      "midi": 60,
      "hit": false,
      "t": 57407.35000000001,
      "d": 248.84234375000233,
      "v": 107
    },
    {
      "midi": 96,
      "hit": false,
      "t": 57407.35000000001,
      "d": 262.34541666667064,
      "v": 96
    },
    {
      "midi": 84,
      "hit": false,
      "t": 57407.35000000001,
      "d": 279.7065104166686,
      "v": 95
    },
    {
      "midi": 53,
      "hit": false,
      "t": 58888.830000000016,
      "d": 169.75291666666453,
      "v": 103
    },
    {
      "midi": 89,
      "hit": false,
      "t": 58888.830000000016,
      "d": 187.1140104166625,
      "v": 99
    },
    {
      "midi": 77,
      "hit": false,
      "t": 58888.830000000016,
      "d": 190.97203124999942,
      "v": 102
    },
    {
      "midi": 53,
      "hit": false,
      "t": 59259.20000000002,
      "d": 194.83005208332906,
      "v": 105
    },
    {
      "midi": 89,
      "hit": false,
      "t": 59259.20000000002,
      "d": 233.4102604166619,
      "v": 97
    },
    {
      "midi": 77,
      "hit": false,
      "t": 59259.20000000002,
      "d": 241.12630208332848,
      "v": 100
    },
    {
      "midi": 79,
      "hit": false,
      "t": 60370.31000000001,
      "d": 196.75906250000116,
      "v": 96
    },
    {
      "midi": 91,
      "hit": false,
      "t": 60370.31000000001,
      "d": 196.75906250000116,
      "v": 99
    },
    {
      "midi": 55,
      "hit": false,
      "t": 60370.31000000001,
      "d": 200.6170833333381,
      "v": 100
    },
    {
      "midi": 55,
      "hit": false,
      "t": 60740.680000000015,
      "d": 185.18499999999767,
      "v": 96
    },
    {
      "midi": 91,
      "hit": false,
      "t": 60740.680000000015,
      "d": 194.83005208332906,
      "v": 99
    },
    {
      "midi": 79,
      "hit": false,
      "t": 60740.680000000015,
      "d": 208.33312499999738,
      "v": 96
    },
    {
      "midi": 53,
      "hit": false,
      "t": 62222.16000000001,
      "d": 476.46557291666977,
      "v": 97
    },
    {
      "midi": 84,
      "hit": false,
      "t": 62222.16000000001,
      "d": 507.32973958333605,
      "v": 103
    },
    {
      "midi": 77,
      "hit": false,
      "t": 62222.16000000001,
      "d": 509.2587500000009,
      "v": 107
    },
    {
      "midi": 89,
      "hit": false,
      "t": 62222.16000000001,
      "d": 518.9038020833323,
      "v": 99
    },
    {
      "midi": 86,
      "hit": false,
      "t": 63333.27000000001,
      "d": 173.61093750000146,
      "v": 97
    },
    {
      "midi": 48,
      "hit": false,
      "t": 63333.27000000001,
      "d": 185.18500000000495,
      "v": 99
    },
    {
      "midi": 91,
      "hit": false,
      "t": 63333.27000000001,
      "d": 196.75906250000844,
      "v": 97
    },
    {
      "midi": 79,
      "hit": false,
      "t": 63333.27000000001,
      "d": 217.97817708334333,
      "v": 92
    },
    {
      "midi": 48,
      "hit": false,
      "t": 63703.64000000002,
      "d": 175.53994791666628,
      "v": 103
    },
    {
      "midi": 86,
      "hit": false,
      "t": 63703.64000000002,
      "d": 183.25598958333285,
      "v": 96
    },
    {
      "midi": 91,
      "hit": false,
      "t": 63703.64000000002,
      "d": 212.1911458333343,
      "v": 103
    },
    {
      "midi": 79,
      "hit": false,
      "t": 63703.64000000002,
      "d": 225.69421875000262,
      "v": 99
    },
    {
      "midi": 88,
      "hit": false,
      "t": 88888.80000000002,
      "d": 223.7652083333378,
      "v": 101
    },
    {
      "midi": 81,
      "hit": false,
      "t": 88888.80000000002,
      "d": 308.64166666667734,
      "v": 101
    },
    {
      "midi": 77,
      "hit": false,
      "t": 88888.80000000002,
      "d": 314.4286979166791,
      "v": 97
    },
    {
      "midi": 86,
      "hit": false,
      "t": 89073.98500000002,
      "d": 135.03072916668316,
      "v": 86
    },
    {
      "midi": 76,
      "hit": false,
      "t": 89259.17000000003,
      "d": 231.4812499999971,
      "v": 94
    },
    {
      "midi": 65,
      "hit": false,
      "t": 89259.17000000003,
      "d": 1489.1960416666698,
      "v": 89
    },
    {
      "midi": 69,
      "hit": false,
      "t": 89259.17000000003,
      "d": 1500.7701041666733,
      "v": 92
    },
    {
      "midi": 74,
      "hit": false,
      "t": 89444.35500000003,
      "d": 1313.6560937500035,
      "v": 89
    },
    {
      "midi": 88,
      "hit": false,
      "t": 94814.72000000003,
      "d": 208.33312500000466,
      "v": 109
    },
    {
      "midi": 77,
      "hit": false,
      "t": 94814.72000000003,
      "d": 285.49354166667035,
      "v": 105
    },
    {
      "midi": 81,
      "hit": false,
      "t": 94814.72000000003,
      "d": 293.2095833333442,
      "v": 101
    },
    {
      "midi": 86,
      "hit": false,
      "t": 94999.90500000003,
      "d": 138.8887500000128,
      "v": 83
    },
    {
      "midi": 76,
      "hit": false,
      "t": 95185.09000000004,
      "d": 221.8361979166657,
      "v": 94
    },
    {
      "midi": 65,
      "hit": false,
      "t": 95185.09000000004,
      "d": 1099.535937499997,
      "v": 83
    },
    {
      "midi": 69,
      "hit": false,
      "t": 95185.09000000004,
      "d": 1103.3939583333267,
      "v": 94
    },
    {
      "midi": 74,
      "hit": false,
      "t": 95370.27500000004,
      "d": 922.0669791666587,
      "v": 78
    },
    {
      "midi": 82,
      "hit": false,
      "t": 106666.56000000003,
      "d": 92.59249999999884,
      "v": 92
    },
    {
      "midi": 70,
      "hit": false,
      "t": 106666.56000000003,
      "d": 104.16656250000233,
      "v": 109
    },
    {
      "midi": 79,
      "hit": false,
      "t": 106666.56000000003,
      "d": 106.09557291667443,
      "v": 83
    },
    {
      "midi": 67,
      "hit": false,
      "t": 106666.56000000003,
      "d": 138.8887500000128,
      "v": 101
    },
    {
      "midi": 81,
      "hit": false,
      "t": 106851.74500000004,
      "d": 96.45052083332848,
      "v": 68
    },
    {
      "midi": 69,
      "hit": false,
      "t": 106851.74500000004,
      "d": 106.09557291665988,
      "v": 76
    },
    {
      "midi": 72,
      "hit": false,
      "t": 106851.74500000004,
      "d": 108.02458333333198,
      "v": 74
    },
    {
      "midi": 84,
      "hit": false,
      "t": 106851.74500000004,
      "d": 117.66963541666337,
      "v": 76
    },
    {
      "midi": 82,
      "hit": false,
      "t": 107036.93000000004,
      "d": 117.66963541666337,
      "v": 66
    },
    {
      "midi": 79,
      "hit": false,
      "t": 107036.93000000004,
      "d": 273.91947916666686,
      "v": 46
    },
    {
      "midi": 70,
      "hit": false,
      "t": 107036.93000000004,
      "d": 281.6355208333407,
      "v": 73
    },
    {
      "midi": 67,
      "hit": false,
      "t": 107036.93000000004,
      "d": 298.99661458334594,
      "v": 65
    },
    {
      "midi": 82,
      "hit": false,
      "t": 107407.30000000005,
      "d": 104.16656250000233,
      "v": 62
    },
    {
      "midi": 70,
      "hit": false,
      "t": 107407.30000000005,
      "d": 125.38567708333721,
      "v": 67
    },
    {
      "midi": 79,
      "hit": false,
      "t": 107407.30000000005,
      "d": 140.81776041667035,
      "v": 63
    },
    {
      "midi": 67,
      "hit": false,
      "t": 107407.30000000005,
      "d": 160.10786458333314,
      "v": 63
    },
    {
      "midi": 81,
      "hit": false,
      "t": 107592.48500000004,
      "d": 115.74062500000582,
      "v": 50
    },
    {
      "midi": 69,
      "hit": false,
      "t": 107592.48500000004,
      "d": 119.59864583333547,
      "v": 62
    },
    {
      "midi": 72,
      "hit": false,
      "t": 107592.48500000004,
      "d": 119.59864583333547,
      "v": 61
    },
    {
      "midi": 84,
      "hit": false,
      "t": 107592.48500000004,
      "d": 127.31468750000931,
      "v": 61
    },
    {
      "midi": 82,
      "hit": false,
      "t": 107777.67000000006,
      "d": 362.65395833333605,
      "v": 51
    },
    {
      "midi": 79,
      "hit": false,
      "t": 107777.67000000006,
      "d": 389.6601041666727,
      "v": 45
    },
    {
      "midi": 70,
      "hit": false,
      "t": 107777.67000000006,
      "d": 561.3420312500093,
      "v": 51
    },
    {
      "midi": 67,
      "hit": false,
      "t": 107777.67000000006,
      "d": 570.9870833333407,
      "v": 43
    },
    {
      "midi": 72,
      "hit": false,
      "t": 108888.78000000007,
      "d": 82.94744791666744,
      "v": 89
    },
    {
      "midi": 84,
      "hit": false,
      "t": 108888.78000000007,
      "d": 115.74062500000582,
      "v": 92
    },
    {
      "midi": 74,
      "hit": false,
      "t": 109259.15000000008,
      "d": 59.79932291666046,
      "v": 83
    },
    {
      "midi": 86,
      "hit": false,
      "t": 109259.15000000008,
      "d": 61.72833333333256,
      "v": 89
    },
    {
      "midi": 69,
      "hit": false,
      "t": 109629.52000000008,
      "d": 547.8389583333337,
      "v": 101
    },
    {
      "midi": 72,
      "hit": false,
      "t": 109629.52000000008,
      "d": 549.7679687500058,
      "v": 94
    },
    {
      "midi": 65,
      "hit": false,
      "t": 109629.52000000008,
      "d": 565.200052083339,
      "v": 101
    },
    {
      "midi": 67,
      "hit": false,
      "t": 111111.00000000009,
      "d": 424.3822916666686,
      "v": 94
    },
    {
      "midi": 64,
      "hit": false,
      "t": 111111.00000000009,
      "d": 445.6014062500035,
      "v": 97
    },
    {
      "midi": 72,
      "hit": false,
      "t": 111111.00000000009,
      "d": 453.31744791667734,
      "v": 89
    },
    {
      "midi": 86,
      "hit": false,
      "t": 118518.40000000011,
      "d": 113.81161458333372,
      "v": 76
    },
    {
      "midi": 74,
      "hit": false,
      "t": 118518.40000000011,
      "d": 131.17270833333896,
      "v": 89
    },
    {
      "midi": 70,
      "hit": false,
      "t": 118518.40000000011,
      "d": 148.5338020833442,
      "v": 77
    },
    {
      "midi": 82,
      "hit": false,
      "t": 118518.40000000011,
      "d": 179.39796875001048,
      "v": 67
    },
    {
      "midi": 72,
      "hit": false,
      "t": 118703.58500000012,
      "d": 109.95359375000407,
      "v": 73
    },
    {
      "midi": 76,
      "hit": false,
      "t": 118703.58500000012,
      "d": 109.95359375000407,
      "v": 86
    },
    {
      "midi": 88,
      "hit": false,
      "t": 118703.58500000012,
      "d": 131.17270833333896,
      "v": 72
    },
    {
      "midi": 84,
      "hit": false,
      "t": 118703.58500000012,
      "d": 152.39182291667385,
      "v": 74
    },
    {
      "midi": 74,
      "hit": false,
      "t": 118888.77000000014,
      "d": 77.1604166666657,
      "v": 78
    },
    {
      "midi": 70,
      "hit": false,
      "t": 118888.77000000014,
      "d": 100.30854166667268,
      "v": 76
    },
    {
      "midi": 86,
      "hit": false,
      "t": 118888.77000000014,
      "d": 100.30854166667268,
      "v": 72
    },
    {
      "midi": 82,
      "hit": false,
      "t": 118888.77000000014,
      "d": 160.10786458333314,
      "v": 71
    },
    {
      "midi": 74,
      "hit": false,
      "t": 119259.14000000013,
      "d": 117.66963541666337,
      "v": 83
    },
    {
      "midi": 86,
      "hit": false,
      "t": 119259.14000000013,
      "d": 125.38567708333721,
      "v": 52
    },
    {
      "midi": 70,
      "hit": false,
      "t": 119259.14000000013,
      "d": 136.9597395833407,
      "v": 74
    },
    {
      "midi": 82,
      "hit": false,
      "t": 119259.14000000013,
      "d": 146.6047916666721,
      "v": 45
    },
    {
      "midi": 76,
      "hit": false,
      "t": 119444.32500000014,
      "d": 121.52765624999302,
      "v": 74
    },
    {
      "midi": 88,
      "hit": false,
      "t": 119444.32500000014,
      "d": 125.38567708332266,
      "v": 53
    },
    {
      "midi": 84,
      "hit": false,
      "t": 119444.32500000014,
      "d": 140.8177604166558,
      "v": 55
    },
    {
      "midi": 72,
      "hit": false,
      "t": 119444.32500000014,
      "d": 165.89489583332033,
      "v": 72
    },
    {
      "midi": 86,
      "hit": false,
      "t": 119629.51000000013,
      "d": 109.95359375000407,
      "v": 56
    },
    {
      "midi": 82,
      "hit": false,
      "t": 119629.51000000013,
      "d": 131.17270833333896,
      "v": 38
    },
    {
      "midi": 74,
      "hit": false,
      "t": 119629.51000000013,
      "d": 850.6935937500093,
      "v": 66
    },
    {
      "midi": 70,
      "hit": false,
      "t": 119629.51000000013,
      "d": 862.2676562500128,
      "v": 73
    },
    {
      "midi": 72,
      "hit": false,
      "t": 120740.62000000014,
      "d": 82.94744791666744,
      "v": 92
    },
    {
      "midi": 84,
      "hit": false,
      "t": 120740.62000000014,
      "d": 117.66963541666337,
      "v": 92
    },
    {
      "midi": 86,
      "hit": false,
      "t": 121110.99000000014,
      "d": 50.154270833329065,
      "v": 79
    },
    {
      "midi": 74,
      "hit": false,
      "t": 121110.99000000014,
      "d": 65.5863541666622,
      "v": 79
    },
    {
      "midi": 65,
      "hit": false,
      "t": 121481.36000000013,
      "d": 547.8389583333483,
      "v": 101
    },
    {
      "midi": 72,
      "hit": false,
      "t": 121481.36000000013,
      "d": 551.6969791666779,
      "v": 89
    },
    {
      "midi": 69,
      "hit": false,
      "t": 121481.36000000013,
      "d": 557.4840104166797,
      "v": 101
    },
    {
      "midi": 67,
      "hit": false,
      "t": 122962.84000000014,
      "d": 217.97817708333605,
      "v": 105
    },
    {
      "midi": 64,
      "hit": false,
      "t": 122962.84000000014,
      "d": 227.62322916666744,
      "v": 97
    },
    {
      "midi": 72,
      "hit": false,
      "t": 122962.84000000014,
      "d": 231.4812499999971,
      "v": 92
    },
    {
      "midi": 82,
      "hit": false,
      "t": 128518.39000000014,
      "d": 69.4443750000064,
      "v": 92
    },
    {
      "midi": 94,
      "hit": false,
      "t": 128518.39000000014,
      "d": 92.59250000001339,
      "v": 102
    },
    {
      "midi": 58,
      "hit": false,
      "t": 128518.39000000014,
      "d": 133.10171875001106,
      "v": 99
    },
    {
      "midi": 84,
      "hit": false,
      "t": 128703.57500000016,
      "d": 119.59864583333547,
      "v": 92
    },
    {
      "midi": 96,
      "hit": false,
      "t": 128703.57500000016,
      "d": 119.59864583333547,
      "v": 103
    },
    {
      "midi": 60,
      "hit": false,
      "t": 128703.57500000016,
      "d": 129.24369791666686,
      "v": 99
    },
    {
      "midi": 60,
      "hit": false,
      "t": 128888.76000000015,
      "d": 214.1201562500064,
      "v": 95
    },
    {
      "midi": 84,
      "hit": false,
      "t": 128888.76000000015,
      "d": 214.1201562500064,
      "v": 92
    },
    {
      "midi": 96,
      "hit": false,
      "t": 128888.76000000015,
      "d": 223.7652083333378,
      "v": 97
    },
    {
      "midi": 96,
      "hit": false,
      "t": 129259.13000000016,
      "d": 221.8361979166657,
      "v": 95
    },
    {
      "midi": 84,
      "hit": false,
      "t": 129259.13000000016,
      "d": 227.62322916666744,
      "v": 88
    },
    {
      "midi": 60,
      "hit": false,
      "t": 129259.13000000016,
      "d": 243.05531250000058,
      "v": 102
    },
    {
      "midi": 62,
      "hit": false,
      "t": 130370.24000000017,
      "d": 202.5460937500029,
      "v": 107
    },
    {
      "midi": 98,
      "hit": false,
      "t": 130370.24000000017,
      "d": 212.1911458333343,
      "v": 102
    },
    {
      "midi": 86,
      "hit": false,
      "t": 130370.24000000017,
      "d": 239.19729166667094,
      "v": 102
    },
    {
      "midi": 60,
      "hit": false,
      "t": 131481.35000000018,
      "d": 248.84234375000233,
      "v": 107
    },
    {
      "midi": 96,
      "hit": false,
      "t": 131481.35000000018,
      "d": 262.3454166666779,
      "v": 96
    },
    {
      "midi": 84,
      "hit": false,
      "t": 131481.35000000018,
      "d": 279.7065104166686,
      "v": 95
    },
    {
      "midi": 53,
      "hit": false,
      "t": 132962.8300000002,
      "d": 169.75291666667908,
      "v": 103
    },
    {
      "midi": 89,
      "hit": false,
      "t": 132962.8300000002,
      "d": 187.11401041666977,
      "v": 99
    },
    {
      "midi": 77,
      "hit": false,
      "t": 132962.8300000002,
      "d": 190.97203125001397,
      "v": 102
    },
    {
      "midi": 53,
      "hit": false,
      "t": 133333.20000000022,
      "d": 194.83005208332906,
      "v": 105
    },
    {
      "midi": 89,
      "hit": false,
      "t": 133333.20000000022,
      "d": 233.41026041665464,
      "v": 97
    },
    {
      "midi": 77,
      "hit": false,
      "t": 133333.20000000022,
      "d": 241.12630208331393,
      "v": 100
    },
    {
      "midi": 79,
      "hit": false,
      "t": 134444.3100000002,
      "d": 196.75906250000116,
      "v": 96
    },
    {
      "midi": 91,
      "hit": false,
      "t": 134444.3100000002,
      "d": 196.75906250000116,
      "v": 99
    },
    {
      "midi": 55,
      "hit": false,
      "t": 134444.3100000002,
      "d": 200.61708333334536,
      "v": 100
    },
    {
      "midi": 55,
      "hit": false,
      "t": 134814.68000000023,
      "d": 185.18499999999767,
      "v": 96
    },
    {
      "midi": 91,
      "hit": false,
      "t": 134814.68000000023,
      "d": 194.83005208332906,
      "v": 99
    },
    {
      "midi": 79,
      "hit": false,
      "t": 134814.68000000023,
      "d": 208.33312500000466,
      "v": 96
    },
    {
      "midi": 53,
      "hit": false,
      "t": 136296.16000000024,
      "d": 476.46557291664067,
      "v": 97
    },
    {
      "midi": 84,
      "hit": false,
      "t": 136296.16000000024,
      "d": 507.32973958330695,
      "v": 103
    },
    {
      "midi": 77,
      "hit": false,
      "t": 136296.16000000024,
      "d": 509.25874999997905,
      "v": 107
    },
    {
      "midi": 89,
      "hit": false,
      "t": 136296.16000000024,
      "d": 518.9038020833104,
      "v": 99
    },
    {
      "midi": 86,
      "hit": false,
      "t": 137407.27000000022,
      "d": 173.61093750002328,
      "v": 97
    },
    {
      "midi": 48,
      "hit": false,
      "t": 137407.27000000022,
      "d": 185.18500000002678,
      "v": 99
    },
    {
      "midi": 91,
      "hit": false,
      "t": 137407.27000000022,
      "d": 196.75906250003027,
      "v": 97
    },
    {
      "midi": 79,
      "hit": false,
      "t": 137407.27000000022,
      "d": 217.97817708336515,
      "v": 92
    },
    {
      "midi": 48,
      "hit": false,
      "t": 137777.64000000025,
      "d": 175.53994791666628,
      "v": 103
    },
    {
      "midi": 86,
      "hit": false,
      "t": 137777.64000000025,
      "d": 183.25598958332557,
      "v": 96
    },
    {
      "midi": 91,
      "hit": false,
      "t": 137777.64000000025,
      "d": 212.19114583331975,
      "v": 103
    },
    {
      "midi": 79,
      "hit": false,
      "t": 137777.64000000025,
      "d": 225.69421874999534,
      "v": 99
    },
    {
      "midi": 88,
      "hit": false,
      "t": 162962.80000000022,
      "d": 223.76520833332324,
      "v": 101
    },
    {
      "midi": 81,
      "hit": false,
      "t": 162962.80000000022,
      "d": 308.6416666666628,
      "v": 101
    },
    {
      "midi": 77,
      "hit": false,
      "t": 162962.80000000022,
      "d": 314.42869791665,
      "v": 97
    },
    {
      "midi": 86,
      "hit": false,
      "t": 163147.98500000022,
      "d": 135.0307291666395,
      "v": 86
    },
    {
      "midi": 76,
      "hit": false,
      "t": 163333.1700000002,
      "d": 231.48125000001164,
      "v": 94
    },
    {
      "midi": 65,
      "hit": false,
      "t": 163333.1700000002,
      "d": 1489.1960416666698,
      "v": 89
    },
    {
      "midi": 69,
      "hit": false,
      "t": 163333.1700000002,
      "d": 1500.7701041666733,
      "v": 92
    },
    {
      "midi": 74,
      "hit": false,
      "t": 163518.35500000019,
      "d": 1313.6560937500035,
      "v": 89
    },
    {
      "midi": 88,
      "hit": false,
      "t": 168888.7200000002,
      "d": 208.33312500000466,
      "v": 109
    },
    {
      "midi": 77,
      "hit": false,
      "t": 168888.7200000002,
      "d": 285.4935416666849,
      "v": 105
    },
    {
      "midi": 81,
      "hit": false,
      "t": 168888.7200000002,
      "d": 293.2095833333442,
      "v": 101
    },
    {
      "midi": 86,
      "hit": false,
      "t": 169073.9050000002,
      "d": 138.8887500000128,
      "v": 83
    },
    {
      "midi": 76,
      "hit": false,
      "t": 169259.09000000023,
      "d": 221.83619791665114,
      "v": 94
    },
    {
      "midi": 65,
      "hit": false,
      "t": 169259.09000000023,
      "d": 1099.5359374999825,
      "v": 83
    },
    {
      "midi": 69,
      "hit": false,
      "t": 169259.09000000023,
      "d": 1103.3939583333267,
      "v": 94
    },
    {
      "midi": 74,
      "hit": false,
      "t": 169444.27500000023,
      "d": 922.0669791666733,
      "v": 78
    },
    {
      "midi": 82,
      "hit": false,
      "t": 180740.56000000023,
      "d": 92.59249999999884,
      "v": 92
    },
    {
      "midi": 70,
      "hit": false,
      "t": 180740.56000000023,
      "d": 104.16656250000233,
      "v": 109
    },
    {
      "midi": 79,
      "hit": false,
      "t": 180740.56000000023,
      "d": 106.09557291667443,
      "v": 83
    },
    {
      "midi": 67,
      "hit": false,
      "t": 180740.56000000023,
      "d": 138.8887500000128,
      "v": 101
    },
    {
      "midi": 81,
      "hit": false,
      "t": 180925.74500000026,
      "d": 96.45052083334303,
      "v": 68
    },
    {
      "midi": 69,
      "hit": false,
      "t": 180925.74500000026,
      "d": 106.09557291667443,
      "v": 76
    },
    {
      "midi": 72,
      "hit": false,
      "t": 180925.74500000026,
      "d": 108.02458333334653,
      "v": 74
    },
    {
      "midi": 84,
      "hit": false,
      "t": 180925.74500000026,
      "d": 117.66963541667792,
      "v": 76
    },
    {
      "midi": 82,
      "hit": false,
      "t": 181110.93000000025,
      "d": 117.66963541667792,
      "v": 66
    },
    {
      "midi": 79,
      "hit": false,
      "t": 181110.93000000025,
      "d": 273.9194791666814,
      "v": 46
    },
    {
      "midi": 70,
      "hit": false,
      "t": 181110.93000000025,
      "d": 281.6355208333407,
      "v": 73
    },
    {
      "midi": 67,
      "hit": false,
      "t": 181110.93000000025,
      "d": 298.9966145833314,
      "v": 65
    },
    {
      "midi": 82,
      "hit": false,
      "t": 181481.30000000025,
      "d": 104.16656250000233,
      "v": 62
    },
    {
      "midi": 70,
      "hit": false,
      "t": 181481.30000000025,
      "d": 125.38567708333721,
      "v": 67
    },
    {
      "midi": 79,
      "hit": false,
      "t": 181481.30000000025,
      "d": 140.8177604166849,
      "v": 63
    },
    {
      "midi": 67,
      "hit": false,
      "t": 181481.30000000025,
      "d": 160.1078645833477,
      "v": 63
    },
    {
      "midi": 81,
      "hit": false,
      "t": 181666.48500000028,
      "d": 115.74062500000582,
      "v": 50
    },
    {
      "midi": 69,
      "hit": false,
      "t": 181666.48500000028,
      "d": 119.59864583335002,
      "v": 62
    },
    {
      "midi": 72,
      "hit": false,
      "t": 181666.48500000028,
      "d": 119.59864583335002,
      "v": 61
    },
    {
      "midi": 84,
      "hit": false,
      "t": 181666.48500000028,
      "d": 127.31468750000931,
      "v": 61
    },
    {
      "midi": 82,
      "hit": false,
      "t": 181851.67000000027,
      "d": 362.65395833333605,
      "v": 51
    },
    {
      "midi": 79,
      "hit": false,
      "t": 181851.67000000027,
      "d": 389.66010416665813,
      "v": 45
    },
    {
      "midi": 70,
      "hit": false,
      "t": 181851.67000000027,
      "d": 561.3420312499802,
      "v": 51
    },
    {
      "midi": 67,
      "hit": false,
      "t": 181851.67000000027,
      "d": 570.9870833333116,
      "v": 43
    },
    {
      "midi": 72,
      "hit": false,
      "t": 182962.78000000026,
      "d": 82.94744791666744,
      "v": 89
    },
    {
      "midi": 84,
      "hit": false,
      "t": 182962.78000000026,
      "d": 115.74062500000582,
      "v": 92
    },
    {
      "midi": 74,
      "hit": false,
      "t": 183333.15000000026,
      "d": 59.79932291666046,
      "v": 83
    },
    {
      "midi": 86,
      "hit": false,
      "t": 183333.15000000026,
      "d": 61.72833333333256,
      "v": 89
    },
    {
      "midi": 69,
      "hit": false,
      "t": 183703.52000000025,
      "d": 547.8389583333628,
      "v": 101
    },
    {
      "midi": 72,
      "hit": false,
      "t": 183703.52000000025,
      "d": 549.7679687500349,
      "v": 94
    },
    {
      "midi": 65,
      "hit": false,
      "t": 183703.52000000025,
      "d": 565.2000520833826,
      "v": 101
    },
    {
      "midi": 67,
      "hit": false,
      "t": 185185.00000000032,
      "d": 424.3822916666686,
      "v": 94
    },
    {
      "midi": 64,
      "hit": false,
      "t": 185185.00000000032,
      "d": 445.6014062500035,
      "v": 97
    },
    {
      "midi": 72,
      "hit": false,
      "t": 185185.00000000032,
      "d": 453.3174479166628,
      "v": 89
    },
    {
      "midi": 86,
      "hit": false,
      "t": 192592.4000000003,
      "d": 113.81161458333372,
      "v": 76
    },
    {
      "midi": 74,
      "hit": false,
      "t": 192592.4000000003,
      "d": 131.1727083333244,
      "v": 89
    },
    {
      "midi": 70,
      "hit": false,
      "t": 192592.4000000003,
      "d": 148.5338020833151,
      "v": 77
    },
    {
      "midi": 82,
      "hit": false,
      "t": 192592.4000000003,
      "d": 179.39796874998137,
      "v": 67
    },
    {
      "midi": 72,
      "hit": false,
      "t": 192777.58500000028,
      "d": 109.95359374998952,
      "v": 73
    },
    {
      "midi": 76,
      "hit": false,
      "t": 192777.58500000028,
      "d": 109.95359374998952,
      "v": 86
    },
    {
      "midi": 88,
      "hit": false,
      "t": 192777.58500000028,
      "d": 131.1727083333244,
      "v": 72
    },
    {
      "midi": 84,
      "hit": false,
      "t": 192777.58500000028,
      "d": 152.3918229166593,
      "v": 74
    },
    {
      "midi": 74,
      "hit": false,
      "t": 192962.77000000028,
      "d": 77.16041666668025,
      "v": 78
    },
    {
      "midi": 70,
      "hit": false,
      "t": 192962.77000000028,
      "d": 100.30854166668723,
      "v": 76
    },
    {
      "midi": 86,
      "hit": false,
      "t": 192962.77000000028,
      "d": 100.30854166668723,
      "v": 72
    },
    {
      "midi": 82,
      "hit": false,
      "t": 192962.77000000028,
      "d": 160.1078645833477,
      "v": 71
    },
    {
      "midi": 74,
      "hit": false,
      "t": 193333.1400000003,
      "d": 117.66963541667792,
      "v": 83
    },
    {
      "midi": 86,
      "hit": false,
      "t": 193333.1400000003,
      "d": 125.38567708333721,
      "v": 52
    },
    {
      "midi": 70,
      "hit": false,
      "t": 193333.1400000003,
      "d": 136.9597395833407,
      "v": 74
    },
    {
      "midi": 82,
      "hit": false,
      "t": 193333.1400000003,
      "d": 146.6047916666721,
      "v": 45
    },
    {
      "midi": 76,
      "hit": false,
      "t": 193518.3250000003,
      "d": 121.52765624999302,
      "v": 74
    },
    {
      "midi": 88,
      "hit": false,
      "t": 193518.3250000003,
      "d": 125.38567708333721,
      "v": 53
    },
    {
      "midi": 84,
      "hit": false,
      "t": 193518.3250000003,
      "d": 140.8177604166849,
      "v": 55
    },
    {
      "midi": 72,
      "hit": false,
      "t": 193518.3250000003,
      "d": 165.894895833364,
      "v": 72
    },
    {
      "midi": 86,
      "hit": false,
      "t": 193703.51000000033,
      "d": 109.95359374998952,
      "v": 56
    },
    {
      "midi": 82,
      "hit": false,
      "t": 193703.51000000033,
      "d": 131.1727083333244,
      "v": 38
    },
    {
      "midi": 74,
      "hit": false,
      "t": 193703.51000000033,
      "d": 850.6935937499802,
      "v": 66
    },
    {
      "midi": 70,
      "hit": false,
      "t": 193703.51000000033,
      "d": 862.2676562499837,
      "v": 73
    },
    {
      "midi": 72,
      "hit": false,
      "t": 194814.62000000032,
      "d": 82.94744791666744,
      "v": 92
    },
    {
      "midi": 84,
      "hit": false,
      "t": 194814.62000000032,
      "d": 117.66963541667792,
      "v": 92
    },
    {
      "midi": 86,
      "hit": false,
      "t": 195184.99000000034,
      "d": 50.154270833329065,
      "v": 79
    },
    {
      "midi": 74,
      "hit": false,
      "t": 195184.99000000034,
      "d": 65.58635416667676,
      "v": 79
    },
    {
      "midi": 65,
      "hit": false,
      "t": 195555.36000000036,
      "d": 547.8389583333337,
      "v": 101
    },
    {
      "midi": 72,
      "hit": false,
      "t": 195555.36000000036,
      "d": 551.6969791666779,
      "v": 89
    },
    {
      "midi": 69,
      "hit": false,
      "t": 195555.36000000036,
      "d": 557.4840104166651,
      "v": 101
    },
    {
      "midi": 67,
      "hit": false,
      "t": 197036.84000000037,
      "d": 217.97817708333605,
      "v": 105
    },
    {
      "midi": 64,
      "hit": false,
      "t": 197036.84000000037,
      "d": 227.62322916666744,
      "v": 97
    },
    {
      "midi": 72,
      "hit": false,
      "t": 197036.84000000037,
      "d": 231.48125000001164,
      "v": 92
    },
    {
      "midi": 82,
      "hit": false,
      "t": 202592.39000000036,
      "d": 57.87031249998836,
      "v": 97
    },
    {
      "midi": 94,
      "hit": false,
      "t": 202592.39000000036,
      "d": 82.94744791666744,
      "v": 105
    },
    {
      "midi": 58,
      "hit": false,
      "t": 202592.39000000036,
      "d": 162.0368749999907,
      "v": 100
    },
    {
      "midi": 96,
      "hit": false,
      "t": 202777.57500000036,
      "d": 77.16041666668025,
      "v": 96
    },
    {
      "midi": 84,
      "hit": false,
      "t": 202777.57500000036,
      "d": 100.30854166668723,
      "v": 83
    },
    {
      "midi": 60,
      "hit": false,
      "t": 202777.57500000036,
      "d": 123.45666666669422,
      "v": 88
    },
    {
      "midi": 96,
      "hit": false,
      "t": 202962.7600000004,
      "d": 160.1078645833477,
      "v": 79
    },
    {
      "midi": 84,
      "hit": false,
      "t": 202962.7600000004,
      "d": 163.9658854166919,
      "v": 78
    },
    {
      "midi": 60,
      "hit": false,
      "t": 202962.7600000004,
      "d": 173.61093750002328,
      "v": 90
    },
    {
      "midi": 84,
      "hit": false,
      "t": 203333.1300000004,
      "d": 295.1385937499872,
      "v": 95
    },
    {
      "midi": 60,
      "hit": false,
      "t": 203333.1300000004,
      "d": 302.8546354166465,
      "v": 96
    },
    {
      "midi": 96,
      "hit": false,
      "t": 203333.1300000004,
      "d": 314.42869791665,
      "v": 102
    },
    {
      "midi": 62,
      "hit": false,
      "t": 204444.2400000004,
      "d": 190.97203124998487,
      "v": 102
    },
    {
      "midi": 98,
      "hit": false,
      "t": 204444.2400000004,
      "d": 210.26213541664765,
      "v": 102
    },
    {
      "midi": 86,
      "hit": false,
      "t": 204444.2400000004,
      "d": 221.83619791665114,
      "v": 105
    },
    {
      "midi": 96,
      "hit": false,
      "t": 205555.35000000038,
      "d": 219.90718750000815,
      "v": 95
    },
    {
      "midi": 84,
      "hit": false,
      "t": 205555.35000000038,
      "d": 231.48125000001164,
      "v": 97
    },
    {
      "midi": 60,
      "hit": false,
      "t": 205555.35000000038,
      "d": 237.26828124999884,
      "v": 93
    },
    {
      "midi": 77,
      "hit": false,
      "t": 207036.8300000004,
      "d": 79.08942708332324,
      "v": 92
    },
    {
      "midi": 89,
      "hit": false,
      "t": 207036.8300000004,
      "d": 86.80546874998254,
      "v": 96
    },
    {
      "midi": 53,
      "hit": false,
      "t": 207036.8300000004,
      "d": 100.30854166665813,
      "v": 88
    },
    {
      "midi": 53,
      "hit": false,
      "t": 207407.2000000004,
      "d": 233.41026041668374,
      "v": 97
    },
    {
      "midi": 77,
      "hit": false,
      "t": 207407.2000000004,
      "d": 248.84234375003143,
      "v": 103
    },
    {
      "midi": 89,
      "hit": false,
      "t": 207407.2000000004,
      "d": 264.2744270833791,
      "v": 103
    },
    {
      "midi": 79,
      "hit": false,
      "t": 208518.31000000043,
      "d": 136.9597395833407,
      "v": 100
    },
    {
      "midi": 55,
      "hit": false,
      "t": 208518.31000000043,
      "d": 140.8177604166849,
      "v": 103
    },
    {
      "midi": 91,
      "hit": false,
      "t": 208518.31000000043,
      "d": 144.6757812500291,
      "v": 99
    },
    {
      "midi": 55,
      "hit": false,
      "t": 208888.68000000046,
      "d": 189.04302083334187,
      "v": 105
    },
    {
      "midi": 91,
      "hit": false,
      "t": 208888.68000000046,
      "d": 192.90104166668607,
      "v": 100
    },
    {
      "midi": 79,
      "hit": false,
      "t": 208888.68000000046,
      "d": 194.83005208335817,
      "v": 100
    },
    {
      "midi": 82,
      "hit": false,
      "t": 214444.23000000048,
      "d": 69.44437499999185,
      "v": 92
    },
    {
      "midi": 94,
      "hit": false,
      "t": 214444.23000000048,
      "d": 92.59249999999884,
      "v": 102
    },
    {
      "midi": 58,
      "hit": false,
      "t": 214444.23000000048,
      "d": 133.1017187499965,
      "v": 99
    },
    {
      "midi": 84,
      "hit": false,
      "t": 214629.41500000047,
      "d": 119.59864583332092,
      "v": 92
    },
    {
      "midi": 96,
      "hit": false,
      "t": 214629.41500000047,
      "d": 119.59864583332092,
      "v": 103
    },
    {
      "midi": 60,
      "hit": false,
      "t": 214629.41500000047,
      "d": 129.2436979166523,
      "v": 99
    },
    {
      "midi": 60,
      "hit": false,
      "t": 214814.60000000047,
      "d": 214.12015624999185,
      "v": 95
    },
    {
      "midi": 84,
      "hit": false,
      "t": 214814.60000000047,
      "d": 214.12015624999185,
      "v": 92
    },
    {
      "midi": 96,
      "hit": false,
      "t": 214814.60000000047,
      "d": 223.76520833332324,
      "v": 97
    },
    {
      "midi": 96,
      "hit": false,
      "t": 215184.97000000047,
      "d": 221.83619791665114,
      "v": 95
    },
    {
      "midi": 84,
      "hit": false,
      "t": 215184.97000000047,
      "d": 227.62322916663834,
      "v": 88
    },
    {
      "midi": 60,
      "hit": false,
      "t": 215184.97000000047,
      "d": 243.05531249998603,
      "v": 102
    },
    {
      "midi": 62,
      "hit": false,
      "t": 216296.08000000045,
      "d": 202.54609374998836,
      "v": 107
    },
    {
      "midi": 98,
      "hit": false,
      "t": 216296.08000000045,
      "d": 212.19114583331975,
      "v": 102
    },
    {
      "midi": 86,
      "hit": false,
      "t": 216296.08000000045,
      "d": 239.19729166667094,
      "v": 102
    },
    {
      "midi": 60,
      "hit": false,
      "t": 217407.19000000047,
      "d": 248.84234375000233,
      "v": 107
    },
    {
      "midi": 96,
      "hit": false,
      "t": 217407.19000000047,
      "d": 262.3454166666779,
      "v": 96
    },
    {
      "midi": 84,
      "hit": false,
      "t": 217407.19000000047,
      "d": 279.7065104166686,
      "v": 95
    },
    {
      "midi": 53,
      "hit": false,
      "t": 218888.67000000048,
      "d": 169.75291666667908,
      "v": 103
    },
    {
      "midi": 89,
      "hit": false,
      "t": 218888.67000000048,
      "d": 187.11401041666977,
      "v": 99
    },
    {
      "midi": 77,
      "hit": false,
      "t": 218888.67000000048,
      "d": 190.97203125001397,
      "v": 102
    },
    {
      "midi": 53,
      "hit": false,
      "t": 219259.0400000005,
      "d": 194.83005208332906,
      "v": 105
    },
    {
      "midi": 89,
      "hit": false,
      "t": 219259.0400000005,
      "d": 233.41026041665464,
      "v": 97
    },
    {
      "midi": 77,
      "hit": false,
      "t": 219259.0400000005,
      "d": 241.12630208331393,
      "v": 100
    },
    {
      "midi": 79,
      "hit": false,
      "t": 220370.1500000005,
      "d": 196.75906250000116,
      "v": 96
    },
    {
      "midi": 91,
      "hit": false,
      "t": 220370.1500000005,
      "d": 196.75906250000116,
      "v": 99
    },
    {
      "midi": 55,
      "hit": false,
      "t": 220370.1500000005,
      "d": 200.61708333334536,
      "v": 100
    },
    {
      "midi": 55,
      "hit": false,
      "t": 220740.5200000005,
      "d": 185.18499999999767,
      "v": 96
    },
    {
      "midi": 91,
      "hit": false,
      "t": 220740.5200000005,
      "d": 194.83005208332906,
      "v": 99
    },
    {
      "midi": 79,
      "hit": false,
      "t": 220740.5200000005,
      "d": 208.33312500000466,
      "v": 96
    },
    {
      "midi": 88,
      "hit": false,
      "t": 222222.00000000052,
      "d": 223.76520833332324,
      "v": 101
    },
    {
      "midi": 81,
      "hit": false,
      "t": 222222.00000000052,
      "d": 308.6416666666628,
      "v": 101
    },
    {
      "midi": 77,
      "hit": false,
      "t": 222222.00000000052,
      "d": 314.42869791665,
      "v": 97
    },
    {
      "midi": 86,
      "hit": false,
      "t": 222407.18500000052,
      "d": 135.0307291666395,
      "v": 86
    },
    {
      "midi": 76,
      "hit": false,
      "t": 222592.3700000005,
      "d": 231.48125000001164,
      "v": 94
    },
    {
      "midi": 65,
      "hit": false,
      "t": 222592.3700000005,
      "d": 1489.1960416666698,
      "v": 89
    },
    {
      "midi": 69,
      "hit": false,
      "t": 222592.3700000005,
      "d": 1500.7701041666733,
      "v": 92
    },
    {
      "midi": 74,
      "hit": false,
      "t": 222777.5550000005,
      "d": 1313.6560937500035,
      "v": 89
    },
    {
      "midi": 88,
      "hit": false,
      "t": 228147.9200000005,
      "d": 208.33312500000466,
      "v": 109
    },
    {
      "midi": 77,
      "hit": false,
      "t": 228147.9200000005,
      "d": 285.4935416666849,
      "v": 105
    },
    {
      "midi": 81,
      "hit": false,
      "t": 228147.9200000005,
      "d": 293.2095833333442,
      "v": 101
    },
    {
      "midi": 86,
      "hit": false,
      "t": 228333.1050000005,
      "d": 138.8887500000128,
      "v": 83
    },
    {
      "midi": 76,
      "hit": false,
      "t": 228518.29000000053,
      "d": 221.83619791665114,
      "v": 94
    },
    {
      "midi": 65,
      "hit": false,
      "t": 228518.29000000053,
      "d": 1099.5359374999825,
      "v": 83
    },
    {
      "midi": 69,
      "hit": false,
      "t": 228518.29000000053,
      "d": 1103.3939583333267,
      "v": 94
    },
    {
      "midi": 74,
      "hit": false,
      "t": 228703.47500000053,
      "d": 922.0669791666733,
      "v": 78
    },
    {
      "midi": 82,
      "hit": false,
      "t": 239999.76000000053,
      "d": 92.59249999999884,
      "v": 92
    },
    {
      "midi": 70,
      "hit": false,
      "t": 239999.76000000053,
      "d": 104.16656250000233,
      "v": 109
    },
    {
      "midi": 79,
      "hit": false,
      "t": 239999.76000000053,
      "d": 106.09557291667443,
      "v": 83
    },
    {
      "midi": 67,
      "hit": false,
      "t": 239999.76000000053,
      "d": 138.8887500000128,
      "v": 101
    },
    {
      "midi": 81,
      "hit": false,
      "t": 240184.94500000056,
      "d": 96.45052083334303,
      "v": 68
    },
    {
      "midi": 69,
      "hit": false,
      "t": 240184.94500000056,
      "d": 106.09557291667443,
      "v": 76
    },
    {
      "midi": 72,
      "hit": false,
      "t": 240184.94500000056,
      "d": 108.02458333334653,
      "v": 74
    },
    {
      "midi": 84,
      "hit": false,
      "t": 240184.94500000056,
      "d": 117.66963541667792,
      "v": 76
    },
    {
      "midi": 82,
      "hit": false,
      "t": 240370.13000000056,
      "d": 117.66963541667792,
      "v": 66
    },
    {
      "midi": 79,
      "hit": false,
      "t": 240370.13000000056,
      "d": 273.9194791666814,
      "v": 46
    },
    {
      "midi": 70,
      "hit": false,
      "t": 240370.13000000056,
      "d": 281.6355208333407,
      "v": 73
    },
    {
      "midi": 67,
      "hit": false,
      "t": 240370.13000000056,
      "d": 298.9966145833314,
      "v": 65
    },
    {
      "midi": 82,
      "hit": false,
      "t": 240740.50000000055,
      "d": 104.16656250000233,
      "v": 62
    },
    {
      "midi": 70,
      "hit": false,
      "t": 240740.50000000055,
      "d": 125.38567708333721,
      "v": 67
    },
    {
      "midi": 79,
      "hit": false,
      "t": 240740.50000000055,
      "d": 140.8177604166849,
      "v": 63
    },
    {
      "midi": 67,
      "hit": false,
      "t": 240740.50000000055,
      "d": 160.1078645833477,
      "v": 63
    },
    {
      "midi": 81,
      "hit": false,
      "t": 240925.68500000058,
      "d": 115.74062500000582,
      "v": 50
    },
    {
      "midi": 69,
      "hit": false,
      "t": 240925.68500000058,
      "d": 119.59864583335002,
      "v": 62
    },
    {
      "midi": 72,
      "hit": false,
      "t": 240925.68500000058,
      "d": 119.59864583335002,
      "v": 61
    },
    {
      "midi": 84,
      "hit": false,
      "t": 240925.68500000058,
      "d": 127.31468750000931,
      "v": 61
    },
    {
      "midi": 82,
      "hit": false,
      "t": 241110.87000000058,
      "d": 362.65395833333605,
      "v": 51
    },
    {
      "midi": 79,
      "hit": false,
      "t": 241110.87000000058,
      "d": 389.66010416665813,
      "v": 45
    },
    {
      "midi": 70,
      "hit": false,
      "t": 241110.87000000058,
      "d": 561.3420312499802,
      "v": 51
    },
    {
      "midi": 67,
      "hit": false,
      "t": 241110.87000000058,
      "d": 570.9870833333116,
      "v": 43
    },
    {
      "midi": 72,
      "hit": false,
      "t": 242221.98000000056,
      "d": 82.94744791666744,
      "v": 89
    },
    {
      "midi": 84,
      "hit": false,
      "t": 242221.98000000056,
      "d": 115.74062500000582,
      "v": 92
    },
    {
      "midi": 74,
      "hit": false,
      "t": 242592.35000000056,
      "d": 59.79932291666046,
      "v": 83
    },
    {
      "midi": 86,
      "hit": false,
      "t": 242592.35000000056,
      "d": 61.72833333333256,
      "v": 89
    },
    {
      "midi": 69,
      "hit": false,
      "t": 242962.72000000055,
      "d": 547.8389583333628,
      "v": 101
    },
    {
      "midi": 72,
      "hit": false,
      "t": 242962.72000000055,
      "d": 549.7679687500349,
      "v": 94
    },
    {
      "midi": 65,
      "hit": false,
      "t": 242962.72000000055,
      "d": 565.2000520833826,
      "v": 101
    },
    {
      "midi": 67,
      "hit": false,
      "t": 244444.20000000062,
      "d": 424.3822916666686,
      "v": 94
    },
    {
      "midi": 64,
      "hit": false,
      "t": 244444.20000000062,
      "d": 445.6014062500035,
      "v": 97
    },
    {
      "midi": 72,
      "hit": false,
      "t": 244444.20000000062,
      "d": 453.3174479166628,
      "v": 89
    },
    {
      "midi": 86,
      "hit": false,
      "t": 251851.60000000062,
      "d": 113.81161458333372,
      "v": 76
    },
    {
      "midi": 74,
      "hit": false,
      "t": 251851.60000000062,
      "d": 131.1727083333244,
      "v": 89
    },
    {
      "midi": 70,
      "hit": false,
      "t": 251851.60000000062,
      "d": 148.5338020833151,
      "v": 77
    },
    {
      "midi": 82,
      "hit": false,
      "t": 251851.60000000062,
      "d": 179.39796874998137,
      "v": 67
    },
    {
      "midi": 72,
      "hit": false,
      "t": 252036.7850000006,
      "d": 109.95359374998952,
      "v": 73
    },
    {
      "midi": 76,
      "hit": false,
      "t": 252036.7850000006,
      "d": 109.95359374998952,
      "v": 86
    },
    {
      "midi": 88,
      "hit": false,
      "t": 252036.7850000006,
      "d": 131.1727083333244,
      "v": 72
    },
    {
      "midi": 84,
      "hit": false,
      "t": 252036.7850000006,
      "d": 152.3918229166593,
      "v": 74
    },
    {
      "midi": 74,
      "hit": false,
      "t": 252221.97000000058,
      "d": 77.16041666668025,
      "v": 78
    },
    {
      "midi": 70,
      "hit": false,
      "t": 252221.97000000058,
      "d": 100.30854166668723,
      "v": 76
    },
    {
      "midi": 86,
      "hit": false,
      "t": 252221.97000000058,
      "d": 100.30854166668723,
      "v": 72
    },
    {
      "midi": 82,
      "hit": false,
      "t": 252221.97000000058,
      "d": 160.1078645833477,
      "v": 71
    },
    {
      "midi": 74,
      "hit": false,
      "t": 252592.3400000006,
      "d": 117.66963541667792,
      "v": 83
    },
    {
      "midi": 86,
      "hit": false,
      "t": 252592.3400000006,
      "d": 125.38567708333721,
      "v": 52
    },
    {
      "midi": 70,
      "hit": false,
      "t": 252592.3400000006,
      "d": 136.9597395833407,
      "v": 74
    },
    {
      "midi": 82,
      "hit": false,
      "t": 252592.3400000006,
      "d": 146.6047916666721,
      "v": 45
    },
    {
      "midi": 76,
      "hit": false,
      "t": 252777.5250000006,
      "d": 121.52765624999302,
      "v": 74
    },
    {
      "midi": 88,
      "hit": false,
      "t": 252777.5250000006,
      "d": 125.38567708333721,
      "v": 53
    },
    {
      "midi": 84,
      "hit": false,
      "t": 252777.5250000006,
      "d": 140.8177604166849,
      "v": 55
    },
    {
      "midi": 72,
      "hit": false,
      "t": 252777.5250000006,
      "d": 165.894895833364,
      "v": 72
    },
    {
      "midi": 86,
      "hit": false,
      "t": 252962.71000000063,
      "d": 109.95359374998952,
      "v": 56
    },
    {
      "midi": 82,
      "hit": false,
      "t": 252962.71000000063,
      "d": 131.1727083333244,
      "v": 38
    },
    {
      "midi": 74,
      "hit": false,
      "t": 252962.71000000063,
      "d": 850.6935937499802,
      "v": 66
    },
    {
      "midi": 70,
      "hit": false,
      "t": 252962.71000000063,
      "d": 862.2676562499837,
      "v": 73
    },
    {
      "midi": 72,
      "hit": false,
      "t": 254073.82000000062,
      "d": 82.94744791666744,
      "v": 92
    },
    {
      "midi": 84,
      "hit": false,
      "t": 254073.82000000062,
      "d": 117.66963541667792,
      "v": 92
    },
    {
      "midi": 86,
      "hit": false,
      "t": 254444.19000000064,
      "d": 50.154270833329065,
      "v": 79
    },
    {
      "midi": 74,
      "hit": false,
      "t": 254444.19000000064,
      "d": 65.58635416667676,
      "v": 79
    },
    {
      "midi": 65,
      "hit": false,
      "t": 254814.56000000067,
      "d": 547.8389583333337,
      "v": 101
    },
    {
      "midi": 72,
      "hit": false,
      "t": 254814.56000000067,
      "d": 551.6969791666779,
      "v": 89
    },
    {
      "midi": 69,
      "hit": false,
      "t": 254814.56000000067,
      "d": 557.4840104166651,
      "v": 101
    },
    {
      "midi": 67,
      "hit": false,
      "t": 256296.04000000068,
      "d": 217.97817708333605,
      "v": 105
    },
    {
      "midi": 64,
      "hit": false,
      "t": 256296.04000000068,
      "d": 227.62322916666744,
      "v": 97
    },
    {
      "midi": 72,
      "hit": false,
      "t": 256296.04000000068,
      "d": 231.48125000001164,
      "v": 92
    },
    {
      "midi": 82,
      "hit": false,
      "t": 287407.1200000007,
      "d": 92.59250000002794,
      "v": 92
    },
    {
      "midi": 70,
      "hit": false,
      "t": 287407.1200000007,
      "d": 104.16656250000233,
      "v": 109
    },
    {
      "midi": 79,
      "hit": false,
      "t": 287407.1200000007,
      "d": 106.09557291667443,
      "v": 83
    },
    {
      "midi": 67,
      "hit": false,
      "t": 287407.1200000007,
      "d": 138.8887499999837,
      "v": 101
    },
    {
      "midi": 81,
      "hit": false,
      "t": 287592.3050000007,
      "d": 96.45052083331393,
      "v": 68
    },
    {
      "midi": 69,
      "hit": false,
      "t": 287592.3050000007,
      "d": 106.09557291667443,
      "v": 76
    },
    {
      "midi": 72,
      "hit": false,
      "t": 287592.3050000007,
      "d": 108.02458333334653,
      "v": 74
    },
    {
      "midi": 84,
      "hit": false,
      "t": 287592.3050000007,
      "d": 117.66963541670702,
      "v": 76
    },
    {
      "midi": 82,
      "hit": false,
      "t": 287777.49000000075,
      "d": 117.66963541664882,
      "v": 66
    },
    {
      "midi": 79,
      "hit": false,
      "t": 287777.49000000075,
      "d": 273.9194791666232,
      "v": 46
    },
    {
      "midi": 70,
      "hit": false,
      "t": 287777.49000000075,
      "d": 281.6355208333116,
      "v": 73
    },
    {
      "midi": 67,
      "hit": false,
      "t": 287777.49000000075,
      "d": 298.9966145833023,
      "v": 65
    },
    {
      "midi": 82,
      "hit": false,
      "t": 288147.86000000074,
      "d": 104.16656250000233,
      "v": 62
    },
    {
      "midi": 70,
      "hit": false,
      "t": 288147.86000000074,
      "d": 125.38567708333721,
      "v": 67
    },
    {
      "midi": 79,
      "hit": false,
      "t": 288147.86000000074,
      "d": 140.8177604166558,
      "v": 63
    },
    {
      "midi": 67,
      "hit": false,
      "t": 288147.86000000074,
      "d": 160.1078645833186,
      "v": 63
    },
    {
      "midi": 81,
      "hit": false,
      "t": 288333.04500000074,
      "d": 115.74062499997672,
      "v": 50
    },
    {
      "midi": 69,
      "hit": false,
      "t": 288333.04500000074,
      "d": 119.59864583332092,
      "v": 62
    },
    {
      "midi": 72,
      "hit": false,
      "t": 288333.04500000074,
      "d": 119.59864583332092,
      "v": 61
    },
    {
      "midi": 84,
      "hit": false,
      "t": 288333.04500000074,
      "d": 127.31468750000931,
      "v": 61
    },
    {
      "midi": 82,
      "hit": false,
      "t": 288518.23000000074,
      "d": 362.65395833330695,
      "v": 51
    },
    {
      "midi": 79,
      "hit": false,
      "t": 288518.23000000074,
      "d": 389.66010416665813,
      "v": 45
    },
    {
      "midi": 70,
      "hit": false,
      "t": 288518.23000000074,
      "d": 561.3420312500093,
      "v": 51
    },
    {
      "midi": 67,
      "hit": false,
      "t": 288518.23000000074,
      "d": 570.9870833333698,
      "v": 43
    },
    {
      "midi": 72,
      "hit": false,
      "t": 289629.3400000008,
      "d": 82.94744791666744,
      "v": 89
    },
    {
      "midi": 84,
      "hit": false,
      "t": 289629.3400000008,
      "d": 115.74062499997672,
      "v": 92
    },
    {
      "midi": 74,
      "hit": false,
      "t": 289999.7100000008,
      "d": 59.79932291666046,
      "v": 83
    },
    {
      "midi": 86,
      "hit": false,
      "t": 289999.7100000008,
      "d": 61.72833333333256,
      "v": 89
    },
    {
      "midi": 69,
      "hit": false,
      "t": 290370.0800000008,
      "d": 547.8389583333046,
      "v": 101
    },
    {
      "midi": 72,
      "hit": false,
      "t": 290370.0800000008,
      "d": 549.7679687499767,
      "v": 94
    },
    {
      "midi": 65,
      "hit": false,
      "t": 290370.0800000008,
      "d": 565.2000520832953,
      "v": 101
    },
    {
      "midi": 67,
      "hit": false,
      "t": 291851.56000000075,
      "d": 424.3822916666395,
      "v": 94
    },
    {
      "midi": 64,
      "hit": false,
      "t": 291851.56000000075,
      "d": 445.6014062499744,
      "v": 97
    },
    {
      "midi": 72,
      "hit": false,
      "t": 291851.56000000075,
      "d": 453.3174479166628,
      "v": 89
    },
    {
      "midi": 86,
      "hit": false,
      "t": 299258.9600000008,
      "d": 113.81161458330462,
      "v": 76
    },
    {
      "midi": 74,
      "hit": false,
      "t": 299258.9600000008,
      "d": 131.1727083332953,
      "v": 89
    },
    {
      "midi": 70,
      "hit": false,
      "t": 299258.9600000008,
      "d": 148.533802083286,
      "v": 77
    },
    {
      "midi": 82,
      "hit": false,
      "t": 299258.9600000008,
      "d": 179.39796874998137,
      "v": 67
    },
    {
      "midi": 72,
      "hit": false,
      "t": 299444.1450000008,
      "d": 109.95359375001863,
      "v": 73
    },
    {
      "midi": 76,
      "hit": false,
      "t": 299444.1450000008,
      "d": 109.95359375001863,
      "v": 86
    },
    {
      "midi": 88,
      "hit": false,
      "t": 299444.1450000008,
      "d": 131.1727083333535,
      "v": 72
    },
    {
      "midi": 84,
      "hit": false,
      "t": 299444.1450000008,
      "d": 152.3918229166884,
      "v": 74
    },
    {
      "midi": 74,
      "hit": false,
      "t": 299629.3300000008,
      "d": 77.16041666665114,
      "v": 78
    },
    {
      "midi": 70,
      "hit": false,
      "t": 299629.3300000008,
      "d": 100.30854166665813,
      "v": 76
    },
    {
      "midi": 86,
      "hit": false,
      "t": 299629.3300000008,
      "d": 100.30854166665813,
      "v": 72
    },
    {
      "midi": 82,
      "hit": false,
      "t": 299629.3300000008,
      "d": 160.1078645833186,
      "v": 71
    },
    {
      "midi": 74,
      "hit": false,
      "t": 299999.70000000077,
      "d": 117.66963541664882,
      "v": 83
    },
    {
      "midi": 86,
      "hit": false,
      "t": 299999.70000000077,
      "d": 125.38567708333721,
      "v": 52
    },
    {
      "midi": 70,
      "hit": false,
      "t": 299999.70000000077,
      "d": 136.9597395833116,
      "v": 74
    },
    {
      "midi": 82,
      "hit": false,
      "t": 299999.70000000077,
      "d": 146.6047916666721,
      "v": 45
    },
    {
      "midi": 76,
      "hit": false,
      "t": 300184.88500000077,
      "d": 121.52765624999302,
      "v": 74
    },
    {
      "midi": 88,
      "hit": false,
      "t": 300184.88500000077,
      "d": 125.38567708333721,
      "v": 53
    },
    {
      "midi": 84,
      "hit": false,
      "t": 300184.88500000077,
      "d": 140.8177604166558,
      "v": 55
    },
    {
      "midi": 72,
      "hit": false,
      "t": 300184.88500000077,
      "d": 165.89489583333489,
      "v": 72
    },
    {
      "midi": 86,
      "hit": false,
      "t": 300370.07000000076,
      "d": 109.95359375001863,
      "v": 56
    },
    {
      "midi": 82,
      "hit": false,
      "t": 300370.07000000076,
      "d": 131.1727083333535,
      "v": 38
    },
    {
      "midi": 74,
      "hit": false,
      "t": 300370.07000000076,
      "d": 850.6935937500093,
      "v": 66
    },
    {
      "midi": 70,
      "hit": false,
      "t": 300370.07000000076,
      "d": 862.2676562499837,
      "v": 73
    },
    {
      "midi": 72,
      "hit": false,
      "t": 301481.18000000075,
      "d": 82.94744791666744,
      "v": 92
    },
    {
      "midi": 84,
      "hit": false,
      "t": 301481.18000000075,
      "d": 117.66963541664882,
      "v": 92
    },
    {
      "midi": 86,
      "hit": false,
      "t": 301851.55000000075,
      "d": 50.15427083335817,
      "v": 79
    },
    {
      "midi": 74,
      "hit": false,
      "t": 301851.55000000075,
      "d": 65.58635416667676,
      "v": 79
    },
    {
      "midi": 65,
      "hit": false,
      "t": 302221.92000000074,
      "d": 547.8389583333046,
      "v": 101
    },
    {
      "midi": 72,
      "hit": false,
      "t": 302221.92000000074,
      "d": 551.6969791666488,
      "v": 89
    },
    {
      "midi": 69,
      "hit": false,
      "t": 302221.92000000074,
      "d": 557.4840104166651,
      "v": 101
    },
    {
      "midi": 67,
      "hit": false,
      "t": 303703.4000000007,
      "d": 217.97817708336515,
      "v": 105
    },
    {
      "midi": 64,
      "hit": false,
      "t": 303703.4000000007,
      "d": 227.62322916672565,
      "v": 97
    },
    {
      "midi": 72,
      "hit": false,
      "t": 303703.4000000007,
      "d": 231.48125000006985,
      "v": 92
    },
    {
      "midi": 82,
      "hit": false,
      "t": 309258.9500000008,
      "d": 69.44437500002095,
      "v": 92
    },
    {
      "midi": 94,
      "hit": false,
      "t": 309258.9500000008,
      "d": 92.59250000002794,
      "v": 102
    },
    {
      "midi": 58,
      "hit": false,
      "t": 309258.9500000008,
      "d": 133.1017187500256,
      "v": 99
    },
    {
      "midi": 84,
      "hit": false,
      "t": 309444.1350000008,
      "d": 119.59864583332092,
      "v": 92
    },
    {
      "midi": 96,
      "hit": false,
      "t": 309444.1350000008,
      "d": 119.59864583332092,
      "v": 103
    },
    {
      "midi": 60,
      "hit": false,
      "t": 309444.1350000008,
      "d": 129.2436979166814,
      "v": 99
    },
    {
      "midi": 60,
      "hit": false,
      "t": 309629.3200000008,
      "d": 214.12015625002095,
      "v": 95
    },
    {
      "midi": 84,
      "hit": false,
      "t": 309629.3200000008,
      "d": 214.12015625002095,
      "v": 92
    },
    {
      "midi": 96,
      "hit": false,
      "t": 309629.3200000008,
      "d": 223.76520833338145,
      "v": 97
    },
    {
      "midi": 96,
      "hit": false,
      "t": 309999.6900000009,
      "d": 221.83619791665114,
      "v": 95
    },
    {
      "midi": 84,
      "hit": false,
      "t": 309999.6900000009,
      "d": 227.62322916666744,
      "v": 88
    },
    {
      "midi": 60,
      "hit": false,
      "t": 309999.6900000009,
      "d": 243.05531249998603,
      "v": 102
    },
    {
      "midi": 62,
      "hit": false,
      "t": 311110.80000000086,
      "d": 202.54609374998836,
      "v": 107
    },
    {
      "midi": 98,
      "hit": false,
      "t": 311110.80000000086,
      "d": 212.19114583334886,
      "v": 102
    },
    {
      "midi": 86,
      "hit": false,
      "t": 311110.80000000086,
      "d": 239.19729166670004,
      "v": 102
    },
    {
      "midi": 60,
      "hit": false,
      "t": 312221.9100000009,
      "d": 248.84234375000233,
      "v": 107
    },
    {
      "midi": 96,
      "hit": false,
      "t": 312221.9100000009,
      "d": 262.3454166666488,
      "v": 96
    },
    {
      "midi": 84,
      "hit": false,
      "t": 312221.9100000009,
      "d": 279.7065104166395,
      "v": 95
    },
    {
      "midi": 53,
      "hit": false,
      "t": 313703.3900000009,
      "d": 169.75291666667908,
      "v": 103
    },
    {
      "midi": 89,
      "hit": false,
      "t": 313703.3900000009,
      "d": 187.11401041666977,
      "v": 99
    },
    {
      "midi": 77,
      "hit": false,
      "t": 313703.3900000009,
      "d": 190.97203125001397,
      "v": 102
    },
    {
      "midi": 53,
      "hit": false,
      "t": 314073.7600000009,
      "d": 194.83005208335817,
      "v": 105
    },
    {
      "midi": 89,
      "hit": false,
      "t": 314073.7600000009,
      "d": 233.41026041668374,
      "v": 97
    },
    {
      "midi": 77,
      "hit": false,
      "t": 314073.7600000009,
      "d": 241.12630208337214,
      "v": 100
    },
    {
      "midi": 79,
      "hit": false,
      "t": 315184.8700000009,
      "d": 196.75906249997206,
      "v": 96
    },
    {
      "midi": 91,
      "hit": false,
      "t": 315184.8700000009,
      "d": 196.75906249997206,
      "v": 99
    },
    {
      "midi": 55,
      "hit": false,
      "t": 315184.8700000009,
      "d": 200.61708333331626,
      "v": 100
    },
    {
      "midi": 55,
      "hit": false,
      "t": 315555.2400000009,
      "d": 185.18500000005588,
      "v": 96
    },
    {
      "midi": 91,
      "hit": false,
      "t": 315555.2400000009,
      "d": 194.83005208341638,
      "v": 99
    },
    {
      "midi": 79,
      "hit": false,
      "t": 315555.2400000009,
      "d": 208.33312500006286,
      "v": 96
    },
    {
      "midi": 53,
      "hit": false,
      "t": 317036.720000001,
      "d": 476.46557291666977,
      "v": 97
    },
    {
      "midi": 84,
      "hit": false,
      "t": 317036.720000001,
      "d": 507.32973958336515,
      "v": 103
    },
    {
      "midi": 77,
      "hit": false,
      "t": 317036.720000001,
      "d": 509.25875000003725,
      "v": 107
    },
    {
      "midi": 89,
      "hit": false,
      "t": 317036.720000001,
      "d": 518.9038020833977,
      "v": 99
    },
    {
      "midi": 86,
      "hit": false,
      "t": 318147.8300000011,
      "d": 173.61093750002328,
      "v": 97
    },
    {
      "midi": 48,
      "hit": false,
      "t": 318147.8300000011,
      "d": 185.18499999999767,
      "v": 99
    },
    {
      "midi": 91,
      "hit": false,
      "t": 318147.8300000011,
      "d": 196.75906249997206,
      "v": 97
    },
    {
      "midi": 79,
      "hit": false,
      "t": 318147.8300000011,
      "d": 217.97817708330695,
      "v": 92
    },
    {
      "midi": 48,
      "hit": false,
      "t": 318518.20000000106,
      "d": 175.53994791663717,
      "v": 103
    },
    {
      "midi": 86,
      "hit": false,
      "t": 318518.20000000106,
      "d": 183.25598958332557,
      "v": 96
    },
    {
      "midi": 91,
      "hit": false,
      "t": 318518.20000000106,
      "d": 212.19114583334886,
      "v": 103
    },
    {
      "midi": 79,
      "hit": false,
      "t": 318518.20000000106,
      "d": 225.69421874999534,
      "v": 99
    }
  ]
}