{
  "jsonPath": "Rock/Folk Rock/James Taylor/sweet-baby-james.json",
  "path": "Rock\\Folk Rock\\James Taylor\\Sweet Baby James.mid",
  "name": "Sweet Baby James",
  "difficulty": "Advanced",
  "bpm": 140.00014000014,
  "notes": [
    {
      "midi": 57,
      "hit": false,
      "t": 56566.90771875001,
      "d": 1245.5344687500037,
      "v": 78
    },
    {
      "midi": 62,
      "hit": false,
      "t": 56566.90771875001,
      "d": 1245.5344687500037,
      "v": 84
    },
    {
      "midi": 64,
      "hit": false,
      "t": 56566.90771875001,
      "d": 1254.4630312500012,
      "v": 80
    },
    {
      "midi": 45,
      "hit": false,
      "t": 56571.37200000001,
      "d": 1249.9987499999988,
      "v": 84
    },
    {
      "midi": 57,
      "hit": false,
      "t": 57861.54928125001,
      "d": 1236.605906249999,
      "v": 91
    },
    {
      "midi": 62,
      "hit": false,
      "t": 57861.54928125001,
      "d": 1236.605906249999,
      "v": 95
    },
    {
      "midi": 45,
      "hit": false,
      "t": 57861.54928125001,
      "d": 1245.5344687499964,
      "v": 82
    },
    {
      "midi": 64,
      "hit": false,
      "t": 57861.54928125001,
      "d": 1245.5344687499964,
      "v": 88
    },
    {
      "midi": 61,
      "hit": false,
      "t": 59142.798,
      "d": 1232.1416250000038,
      "v": 95
    },
    {
      "midi": 64,
      "hit": false,
      "t": 59142.798,
      "d": 1241.0701875000013,
      "v": 101
    },
    {
      "midi": 45,
      "hit": false,
      "t": 59147.262281250005,
      "d": 1209.8202187499992,
      "v": 84
    },
    {
      "midi": 57,
      "hit": false,
      "t": 59147.262281250005,
      "d": 1236.605906249999,
      "v": 87
    },
    {
      "midi": 45,
      "hit": false,
      "t": 60419.5824375,
      "d": 1258.927312499989,
      "v": 83
    },
    {
      "midi": 61,
      "hit": false,
      "t": 60424.04671875,
      "d": 285.71399999999994,
      "v": 108
    },
    {
      "midi": 64,
      "hit": false,
      "t": 60432.97528125,
      "d": 316.9639687500021,
      "v": 112
    },
    {
      "midi": 57,
      "hit": false,
      "t": 60432.97528125,
      "d": 325.8925312499996,
      "v": 102
    },
    {
      "midi": 62,
      "hit": false,
      "t": 60678.51075,
      "d": 133.92843749999884,
      "v": 91
    },
    {
      "midi": 57,
      "hit": false,
      "t": 60843.68915625,
      "d": 415.1781562499964,
      "v": 73
    },
    {
      "midi": 64,
      "hit": false,
      "t": 60843.68915625,
      "d": 424.1067187499939,
      "v": 75
    },
    {
      "midi": 62,
      "hit": false,
      "t": 60857.082,
      "d": 388.3924687499966,
      "v": 101
    },
    {
      "midi": 64,
      "hit": false,
      "t": 61281.188718749996,
      "d": 352.67821874999936,
      "v": 77
    },
    {
      "midi": 57,
      "hit": false,
      "t": 61281.188718749996,
      "d": 361.60678124999686,
      "v": 85
    },
    {
      "midi": 61,
      "hit": false,
      "t": 61281.188718749996,
      "d": 361.60678124999686,
      "v": 97
    },
    {
      "midi": 54,
      "hit": false,
      "t": 61714.22399999999,
      "d": 1232.1416250000038,
      "v": 77
    },
    {
      "midi": 62,
      "hit": false,
      "t": 61714.22399999999,
      "d": 1232.1416250000038,
      "v": 91
    },
    {
      "midi": 57,
      "hit": false,
      "t": 61714.22399999999,
      "d": 1241.0701875000013,
      "v": 84
    },
    {
      "midi": 38,
      "hit": false,
      "t": 61714.22399999999,
      "d": 1276.7844374999986,
      "v": 80
    },
    {
      "midi": 55,
      "hit": false,
      "t": 62995.47271874999,
      "d": 1232.1416249999966,
      "v": 76
    },
    {
      "midi": 59,
      "hit": false,
      "t": 62995.47271874999,
      "d": 1232.1416249999966,
      "v": 91
    },
    {
      "midi": 62,
      "hit": false,
      "t": 62995.47271874999,
      "d": 1249.9987499999988,
      "v": 76
    },
    {
      "midi": 43,
      "hit": false,
      "t": 62995.47271874999,
      "d": 1276.7844374999986,
      "v": 82
    },
    {
      "midi": 45,
      "hit": false,
      "t": 64276.72143749999,
      "d": 763.3920937500006,
      "v": 68
    },
    {
      "midi": 55,
      "hit": false,
      "t": 64553.50687499999,
      "d": 540.1780312499977,
      "v": 90
    },
    {
      "midi": 62,
      "hit": false,
      "t": 64553.50687499999,
      "d": 544.6423125000001,
      "v": 95
    },
    {
      "midi": 57,
      "hit": false,
      "t": 64553.50687499999,
      "d": 549.1065937500025,
      "v": 92
    },
    {
      "midi": 55,
      "hit": false,
      "t": 65133.8634375,
      "d": 357.14250000000175,
      "v": 82
    },
    {
      "midi": 57,
      "hit": false,
      "t": 65133.8634375,
      "d": 357.14250000000175,
      "v": 87
    },
    {
      "midi": 62,
      "hit": false,
      "t": 65133.8634375,
      "d": 366.07106249999924,
      "v": 84
    },
    {
      "midi": 45,
      "hit": false,
      "t": 65138.32771875,
      "d": 339.2853749999995,
      "v": 72
    },
    {
      "midi": 62,
      "hit": false,
      "t": 65562.4344375,
      "d": 383.9281875000015,
      "v": 74
    },
    {
      "midi": 54,
      "hit": false,
      "t": 65562.4344375,
      "d": 392.8567500000063,
      "v": 71
    },
    {
      "midi": 42,
      "hit": false,
      "t": 65562.4344375,
      "d": 1276.784437499984,
      "v": 72
    },
    {
      "midi": 57,
      "hit": false,
      "t": 65566.89871874999,
      "d": 388.3924687500112,
      "v": 77
    },
    {
      "midi": 66,
      "hit": false,
      "t": 65999.934,
      "d": 379.46390624999185,
      "v": 89
    },
    {
      "midi": 57,
      "hit": false,
      "t": 66004.39828124999,
      "d": 410.7138750000013,
      "v": 84
    },
    {
      "midi": 62,
      "hit": false,
      "t": 66008.86256249998,
      "d": 410.7138750000013,
      "v": 74
    },
    {
      "midi": 62,
      "hit": false,
      "t": 66437.43356249998,
      "d": 348.213937499997,
      "v": 63
    },
    {
      "midi": 57,
      "hit": false,
      "t": 66437.43356249998,
      "d": 401.7853124999965,
      "v": 58
    },
    {
      "midi": 35,
      "hit": false,
      "t": 66857.07599999997,
      "d": 1241.070187499994,
      "v": 80
    },
    {
      "midi": 62,
      "hit": false,
      "t": 66861.54028124997,
      "d": 1227.6773437499942,
      "v": 92
    },
    {
      "midi": 54,
      "hit": false,
      "t": 66861.54028124997,
      "d": 1245.5344687500037,
      "v": 83
    },
    {
      "midi": 59,
      "hit": false,
      "t": 66866.00456249996,
      "d": 1241.0701875000086,
      "v": 94
    },
    {
      "midi": 43,
      "hit": false,
      "t": 68129.39615624998,
      "d": 1272.3201562500035,
      "v": 78
    },
    {
      "midi": 55,
      "hit": false,
      "t": 68133.86043749997,
      "d": 1258.9273125000036,
      "v": 84
    },
    {
      "midi": 62,
      "hit": false,
      "t": 68133.86043749997,
      "d": 1258.9273125000036,
      "v": 89
    },
    {
      "midi": 59,
      "hit": false,
      "t": 68133.86043749997,
      "d": 1267.8558750000084,
      "v": 85
    },
    {
      "midi": 62,
      "hit": false,
      "t": 69428.50199999998,
      "d": 392.8567500000063,
      "v": 106
    },
    {
      "midi": 66,
      "hit": false,
      "t": 69428.50199999998,
      "d": 392.8567500000063,
      "v": 114
    },
    {
      "midi": 71,
      "hit": false,
      "t": 69428.50199999998,
      "d": 392.8567500000063,
      "v": 102
    },
    {
      "midi": 38,
      "hit": false,
      "t": 69428.50199999998,
      "d": 919.6419374999969,
      "v": 85
    },
    {
      "midi": 66,
      "hit": false,
      "t": 69861.53728124998,
      "d": 397.3210312500014,
      "v": 82
    },
    {
      "midi": 69,
      "hit": false,
      "t": 69861.53728124998,
      "d": 406.24959375000617,
      "v": 88
    },
    {
      "midi": 62,
      "hit": false,
      "t": 69866.00156249998,
      "d": 392.8567500000063,
      "v": 80
    },
    {
      "midi": 45,
      "hit": false,
      "t": 70285.64399999999,
      "d": 446.4281250000058,
      "v": 77
    },
    {
      "midi": 66,
      "hit": false,
      "t": 70290.10828124998,
      "d": 370.53534375000163,
      "v": 97
    },
    {
      "midi": 62,
      "hit": false,
      "t": 70290.10828124998,
      "d": 397.3210312500014,
      "v": 88
    },
    {
      "midi": 66,
      "hit": false,
      "t": 70709.75071874999,
      "d": 1254.4630312500085,
      "v": 85
    },
    {
      "midi": 38,
      "hit": false,
      "t": 70718.67928124999,
      "d": 1245.5344687500037,
      "v": 77
    },
    {
      "midi": 62,
      "hit": false,
      "t": 70718.67928124999,
      "d": 1245.5344687500037,
      "v": 80
    },
    {
      "midi": 69,
      "hit": false,
      "t": 70718.67928124999,
      "d": 1245.5344687500037,
      "v": 88
    },
    {
      "midi": 35,
      "hit": false,
      "t": 71999.928,
      "d": 1263.3915937499842,
      "v": 85
    },
    {
      "midi": 54,
      "hit": false,
      "t": 72004.39228125,
      "d": 1245.5344687499892,
      "v": 83
    },
    {
      "midi": 62,
      "hit": false,
      "t": 72004.39228125,
      "d": 1245.5344687499892,
      "v": 91
    },
    {
      "midi": 59,
      "hit": false,
      "t": 72008.85656249999,
      "d": 1241.070187499994,
      "v": 89
    },
    {
      "midi": 43,
      "hit": false,
      "t": 73276.71243749998,
      "d": 1281.2487187499937,
      "v": 84
    },
    {
      "midi": 59,
      "hit": false,
      "t": 73281.17671874998,
      "d": 1227.6773437499942,
      "v": 88
    },
    {
      "midi": 62,
      "hit": false,
      "t": 73281.17671874998,
      "d": 1227.6773437499942,
      "v": 89
    },
    {
      "midi": 55,
      "hit": false,
      "t": 73281.17671874998,
      "d": 1236.605906249999,
      "v": 84
    },
    {
      "midi": 38,
      "hit": false,
      "t": 74562.42543749997,
      "d": 1258.927312499989,
      "v": 84
    },
    {
      "midi": 54,
      "hit": false,
      "t": 74562.42543749997,
      "d": 1276.7844374999986,
      "v": 76
    },
    {
      "midi": 62,
      "hit": false,
      "t": 74562.42543749997,
      "d": 1299.1058437500033,
      "v": 89
    },
    {
      "midi": 57,
      "hit": false,
      "t": 74566.88971874997,
      "d": 1263.3915937499987,
      "v": 89
    },
    {
      "midi": 38,
      "hit": false,
      "t": 75861.53128124998,
      "d": 1330.3558125000127,
      "v": 104
    },
    {
      "midi": 54,
      "hit": false,
      "t": 76124.92387499998,
      "d": 571.4280000000144,
      "v": 93
    },
    {
      "midi": 62,
      "hit": false,
      "t": 76281.17371874998,
      "d": 357.14250000000175,
      "v": 94
    },
    {
      "midi": 57,
      "hit": false,
      "t": 76281.17371874998,
      "d": 392.8567500000063,
      "v": 90
    },
    {
      "midi": 62,
      "hit": false,
      "t": 76718.67328125,
      "d": 379.46390624999185,
      "v": 77
    },
    {
      "midi": 57,
      "hit": false,
      "t": 76723.1375625,
      "d": 374.99962499999674,
      "v": 68
    },
    {
      "midi": 54,
      "hit": false,
      "t": 76723.1375625,
      "d": 388.3924687499966,
      "v": 65
    },
    {
      "midi": 47,
      "hit": false,
      "t": 77142.77999999998,
      "d": 1276.7844375000132,
      "v": 104
    },
    {
      "midi": 62,
      "hit": false,
      "t": 77566.88671874999,
      "d": 388.3924687499966,
      "v": 91
    },
    {
      "midi": 57,
      "hit": false,
      "t": 77566.88671874999,
      "d": 397.3210312500014,
      "v": 77
    },
    {
      "midi": 64,
      "hit": false,
      "t": 77566.88671874999,
      "d": 415.1781562499964,
      "v": 80
    },
    {
      "midi": 64,
      "hit": false,
      "t": 77990.99343749999,
      "d": 392.8567500000063,
      "v": 82
    },
    {
      "midi": 57,
      "hit": false,
      "t": 77995.45771874998,
      "d": 379.4639062500064,
      "v": 81
    },
    {
      "midi": 62,
      "hit": false,
      "t": 77995.45771874998,
      "d": 379.4639062500064,
      "v": 95
    },
    {
      "midi": 64,
      "hit": false,
      "t": 78419.5644375,
      "d": 821.427749999988,
      "v": 89
    },
    {
      "midi": 40,
      "hit": false,
      "t": 78419.5644375,
      "d": 1299.1058437499742,
      "v": 84
    },
    {
      "midi": 56,
      "hit": false,
      "t": 78424.02871874999,
      "d": 790.1777812499931,
      "v": 103
    },
    {
      "midi": 62,
      "hit": false,
      "t": 78424.02871874999,
      "d": 808.0349062499881,
      "v": 95
    },
    {
      "midi": 62,
      "hit": false,
      "t": 79281.17071874999,
      "d": 388.3924687499966,
      "v": 94
    },
    {
      "midi": 64,
      "hit": false,
      "t": 79281.17071874999,
      "d": 397.3210312500014,
      "v": 88
    },
    {
      "midi": 56,
      "hit": false,
      "t": 79281.17071874999,
      "d": 415.1781562499964,
      "v": 93
    },
    {
      "midi": 45,
      "hit": false,
      "t": 79714.20599999998,
      "d": 558.0351562499854,
      "v": 106
    },
    {
      "midi": 64,
      "hit": false,
      "t": 79986.52715624997,
      "d": 495.53521874998114,
      "v": 95
    },
    {
      "midi": 57,
      "hit": false,
      "t": 79990.99143749996,
      "d": 486.6066562499909,
      "v": 96
    },
    {
      "midi": 62,
      "hit": false,
      "t": 79990.99143749996,
      "d": 499.9994999999908,
      "v": 99
    },
    {
      "midi": 45,
      "hit": false,
      "t": 80424.02671874996,
      "d": 267.8568749999977,
      "v": 87
    },
    {
      "midi": 62,
      "hit": false,
      "t": 80571.34799999995,
      "d": 352.67821875000664,
      "v": 96
    },
    {
      "midi": 57,
      "hit": false,
      "t": 80575.81228124995,
      "d": 339.28537500000675,
      "v": 98
    },
    {
      "midi": 64,
      "hit": false,
      "t": 80575.81228124995,
      "d": 352.67821875000664,
      "v": 95
    },
    {
      "midi": 45,
      "hit": false,
      "t": 80861.52628124996,
      "d": 928.5704999999871,
      "v": 99
    },
    {
      "midi": 64,
      "hit": false,
      "t": 81008.84756249996,
      "d": 745.5349687499984,
      "v": 116
    },
    {
      "midi": 61,
      "hit": false,
      "t": 81008.84756249996,
      "d": 763.3920937499934,
      "v": 108
    },
    {
      "midi": 57,
      "hit": false,
      "t": 81008.84756249996,
      "d": 767.8563749999885,
      "v": 106
    },
    {
      "midi": 61,
      "hit": false,
      "t": 81861.52528124994,
      "d": 330.3568124999874,
      "v": 97
    },
    {
      "midi": 64,
      "hit": false,
      "t": 81861.52528124994,
      "d": 330.3568124999874,
      "v": 112
    },
    {
      "midi": 45,
      "hit": false,
      "t": 81861.52528124994,
      "d": 352.6782187499921,
      "v": 84
    },
    {
      "midi": 57,
      "hit": false,
      "t": 81865.98956249993,
      "d": 321.4282499999972,
      "v": 96
    },
    {
      "midi": 59,
      "hit": false,
      "t": 82290.09628124993,
      "d": 825.8920312499977,
      "v": 92
    },
    {
      "midi": 62,
      "hit": false,
      "t": 82290.09628124993,
      "d": 825.8920312499977,
      "v": 104
    },
    {
      "midi": 67,
      "hit": false,
      "t": 82290.09628124993,
      "d": 825.8920312499977,
      "v": 102
    },
    {
      "midi": 43,
      "hit": false,
      "t": 82290.09628124993,
      "d": 1249.9987499999843,
      "v": 95
    },
    {
      "midi": 62,
      "hit": false,
      "t": 83147.23828124993,
      "d": 370.53534375000163,
      "v": 99
    },
    {
      "midi": 59,
      "hit": false,
      "t": 83147.23828124993,
      "d": 388.3924687499966,
      "v": 87
    },
    {
      "midi": 57,
      "hit": false,
      "t": 83566.88071874992,
      "d": 410.7138750000013,
      "v": 88
    },
    {
      "midi": 61,
      "hit": false,
      "t": 83566.88071874992,
      "d": 415.1781562499964,
      "v": 91
    },
    {
      "midi": 64,
      "hit": false,
      "t": 83566.88071874992,
      "d": 433.0352812499914,
      "v": 104
    },
    {
      "midi": 45,
      "hit": false,
      "t": 83566.88071874992,
      "d": 1223.213062499999,
      "v": 79
    },
    {
      "midi": 57,
      "hit": false,
      "t": 84004.3802812499,
      "d": 379.4639062500064,
      "v": 61
    },
    {
      "midi": 59,
      "hit": false,
      "t": 84004.3802812499,
      "d": 388.3924687500112,
      "v": 101
    },
    {
      "midi": 62,
      "hit": false,
      "t": 84004.3802812499,
      "d": 388.3924687500112,
      "v": 101
    },
    {
      "midi": 61,
      "hit": false,
      "t": 84428.48699999992,
      "d": 374.99962499999674,
      "v": 91
    },
    {
      "midi": 57,
      "hit": false,
      "t": 84432.95128124992,
      "d": 370.53534375000163,
      "v": 92
    },
    {
      "midi": 64,
      "hit": false,
      "t": 84432.95128124992,
      "d": 406.24959375000617,
      "v": 98
    },
    {
      "midi": 67,
      "hit": false,
      "t": 84857.05799999992,
      "d": 160.7141249999986,
      "v": 91
    },
    {
      "midi": 62,
      "hit": false,
      "t": 84857.05799999992,
      "d": 366.07106249999197,
      "v": 89
    },
    {
      "midi": 69,
      "hit": false,
      "t": 84857.05799999992,
      "d": 374.99962499999674,
      "v": 94
    },
    {
      "midi": 38,
      "hit": false,
      "t": 84857.05799999992,
      "d": 736.6064062499936,
      "v": 94
    },
    {
      "midi": 69,
      "hit": false,
      "t": 85272.23615624991,
      "d": 379.46390624999185,
      "v": 94
    },
    {
      "midi": 62,
      "hit": false,
      "t": 85272.23615624991,
      "d": 406.2495937499916,
      "v": 88
    },
    {
      "midi": 66,
      "hit": false,
      "t": 85272.23615624991,
      "d": 406.2495937499916,
      "v": 88
    },
    {
      "midi": 69,
      "hit": false,
      "t": 85700.80715624991,
      "d": 352.6782187499921,
      "v": 84
    },
    {
      "midi": 64,
      "hit": false,
      "t": 85700.80715624991,
      "d": 370.5353437499871,
      "v": 92
    },
    {
      "midi": 62,
      "hit": false,
      "t": 85705.2714374999,
      "d": 366.07106249999197,
      "v": 87
    },
    {
      "midi": 38,
      "hit": false,
      "t": 85709.7357187499,
      "d": 397.3210312500014,
      "v": 94
    },
    {
      "midi": 62,
      "hit": false,
      "t": 86133.8424374999,
      "d": 977.6775937499915,
      "v": 82
    },
    {
      "midi": 66,
      "hit": false,
      "t": 86133.8424374999,
      "d": 991.0704374999914,
      "v": 61
    },
    {
      "midi": 57,
      "hit": false,
      "t": 86138.3067187499,
      "d": 977.6775937499915,
      "v": 77
    },
    {
      "midi": 38,
      "hit": false,
      "t": 86138.3067187499,
      "d": 1258.927312499989,
      "v": 78
    },
    {
      "midi": 43,
      "hit": false,
      "t": 114428.4569999999,
      "d": 1107.1417499999952,
      "v": 72
    },
    {
      "midi": 59,
      "hit": false,
      "t": 114428.4569999999,
      "d": 1267.8558749999938,
      "v": 79
    },
    {
      "midi": 62,
      "hit": false,
      "t": 114428.4569999999,
      "d": 1267.8558749999938,
      "v": 84
    },
    {
      "midi": 43,
      "hit": false,
      "t": 115566.84871874988,
      "d": 1415.177156250007,
      "v": 85
    },
    {
      "midi": 59,
      "hit": false,
      "t": 115718.63428124989,
      "d": 834.8205937500024,
      "v": 88
    },
    {
      "midi": 62,
      "hit": false,
      "t": 115718.63428124989,
      "d": 834.8205937500024,
      "v": 96
    },
    {
      "midi": 67,
      "hit": false,
      "t": 115718.63428124989,
      "d": 1245.5344687500037,
      "v": 96
    },
    {
      "midi": 59,
      "hit": false,
      "t": 116575.7762812499,
      "d": 361.60678124999686,
      "v": 70
    },
    {
      "midi": 62,
      "hit": false,
      "t": 116575.7762812499,
      "d": 370.53534375000163,
      "v": 75
    },
    {
      "midi": 45,
      "hit": false,
      "t": 116999.88299999989,
      "d": 1138.3917187499756,
      "v": 94
    },
    {
      "midi": 74,
      "hit": false,
      "t": 117392.73974999989,
      "d": 674.1064687499747,
      "v": 101
    },
    {
      "midi": 69,
      "hit": false,
      "t": 117397.20403124989,
      "d": 272.3211562499928,
      "v": 106
    },
    {
      "midi": 76,
      "hit": false,
      "t": 117397.20403124989,
      "d": 651.7850624999846,
      "v": 99
    },
    {
      "midi": 71,
      "hit": false,
      "t": 117624.88237499988,
      "d": 258.9283124999929,
      "v": 63
    },
    {
      "midi": 69,
      "hit": false,
      "t": 117830.23931249988,
      "d": 236.60690624998824,
      "v": 78
    },
    {
      "midi": 66,
      "hit": false,
      "t": 118267.73887499986,
      "d": 1241.070187499994,
      "v": 86
    },
    {
      "midi": 50,
      "hit": false,
      "t": 118272.20315624986,
      "d": 1232.1416250000038,
      "v": 87
    },
    {
      "midi": 69,
      "hit": false,
      "t": 118272.20315624986,
      "d": 1232.1416250000038,
      "v": 94
    },
    {
      "midi": 62,
      "hit": false,
      "t": 118272.20315624986,
      "d": 1267.8558749999938,
      "v": 84
    },
    {
      "midi": 54,
      "hit": false,
      "t": 119575.77328124986,
      "d": 1191.9630937499896,
      "v": 78
    },
    {
      "midi": 62,
      "hit": false,
      "t": 119575.77328124986,
      "d": 1236.605906249999,
      "v": 89
    },
    {
      "midi": 59,
      "hit": false,
      "t": 119580.23756249985,
      "d": 1187.4988124999945,
      "v": 87
    },
    {
      "midi": 47,
      "hit": false,
      "t": 119580.23756249985,
      "d": 1223.213062499999,
      "v": 95
    },
    {
      "midi": 43,
      "hit": false,
      "t": 120852.55771874986,
      "d": 1334.8200937499932,
      "v": 84
    },
    {
      "midi": 55,
      "hit": false,
      "t": 120857.02199999985,
      "d": 1241.070187499994,
      "v": 87
    },
    {
      "midi": 59,
      "hit": false,
      "t": 120857.02199999985,
      "d": 1241.070187499994,
      "v": 87
    },
    {
      "midi": 62,
      "hit": false,
      "t": 120857.02199999985,
      "d": 1241.070187499994,
      "v": 85
    },
    {
      "midi": 62,
      "hit": false,
      "t": 122147.19928124985,
      "d": 1214.2844999999943,
      "v": 94
    },
    {
      "midi": 38,
      "hit": false,
      "t": 122147.19928124985,
      "d": 1227.6773437499942,
      "v": 84
    },
    {
      "midi": 54,
      "hit": false,
      "t": 122147.19928124985,
      "d": 1245.5344687499892,
      "v": 97
    },
    {
      "midi": 57,
      "hit": false,
      "t": 122147.19928124985,
      "d": 1245.5344687499892,
      "v": 91
    },
    {
      "midi": 45,
      "hit": false,
      "t": 123428.44799999984,
      "d": 821.4277500000026,
      "v": 80
    },
    {
      "midi": 59,
      "hit": false,
      "t": 123437.37656249985,
      "d": 187.49981249999837,
      "v": 99
    },
    {
      "midi": 52,
      "hit": false,
      "t": 123437.37656249985,
      "d": 383.9281875000015,
      "v": 84
    },
    {
      "midi": 57,
      "hit": false,
      "t": 123437.37656249985,
      "d": 383.9281875000015,
      "v": 95
    },
    {
      "midi": 61,
      "hit": false,
      "t": 123446.30512499985,
      "d": 410.7138750000013,
      "v": 95
    },
    {
      "midi": 59,
      "hit": false,
      "t": 123861.48328124985,
      "d": 200.89265624999825,
      "v": 85
    },
    {
      "midi": 52,
      "hit": false,
      "t": 123865.94756249984,
      "d": 374.99962499999674,
      "v": 78
    },
    {
      "midi": 57,
      "hit": false,
      "t": 123865.94756249984,
      "d": 374.99962499999674,
      "v": 91
    },
    {
      "midi": 61,
      "hit": false,
      "t": 123892.73324999984,
      "d": 357.14250000000175,
      "v": 78
    },
    {
      "midi": 57,
      "hit": false,
      "t": 124281.12571874984,
      "d": 433.03528125000594,
      "v": 91
    },
    {
      "midi": 52,
      "hit": false,
      "t": 124290.05428124985,
      "d": 406.2495937499916,
      "v": 85
    },
    {
      "midi": 45,
      "hit": false,
      "t": 124307.91140624984,
      "d": 397.3210312500014,
      "v": 71
    },
    {
      "midi": 43,
      "hit": false,
      "t": 124714.16099999985,
      "d": 861.6062812500022,
      "v": 69
    },
    {
      "midi": 59,
      "hit": false,
      "t": 124718.62528124984,
      "d": 928.5705000000016,
      "v": 80
    },
    {
      "midi": 62,
      "hit": false,
      "t": 124718.62528124984,
      "d": 950.8919062500063,
      "v": 89
    },
    {
      "midi": 67,
      "hit": false,
      "t": 124718.62528124984,
      "d": 973.2133125000109,
      "v": 89
    },
    {
      "midi": 50,
      "hit": false,
      "t": 125580.23156249984,
      "d": 419.64243750000605,
      "v": 70
    },
    {
      "midi": 43,
      "hit": false,
      "t": 125995.40971874986,
      "d": 374.99962499999674,
      "v": 74
    },
    {
      "midi": 67,
      "hit": false,
      "t": 126272.19515624986,
      "d": 428.5709999999963,
      "v": 99
    },
    {
      "midi": 59,
      "hit": false,
      "t": 126272.19515624986,
      "d": 433.0352812499914,
      "v": 94
    },
    {
      "midi": 62,
      "hit": false,
      "t": 126272.19515624986,
      "d": 473.21381249999104,
      "v": 108
    },
    {
      "midi": 43,
      "hit": false,
      "t": 126705.23043749985,
      "d": 370.53534375000163,
      "v": 69
    },
    {
      "midi": 67,
      "hit": false,
      "t": 126848.08743749985,
      "d": 366.07106249999197,
      "v": 108
    },
    {
      "midi": 59,
      "hit": false,
      "t": 126848.08743749985,
      "d": 379.46390624999185,
      "v": 92
    },
    {
      "midi": 62,
      "hit": false,
      "t": 126848.08743749985,
      "d": 415.1781562499964,
      "v": 106
    },
    {
      "midi": 62,
      "hit": false,
      "t": 127294.51556249984,
      "d": 785.713499999998,
      "v": 106
    },
    {
      "midi": 64,
      "hit": false,
      "t": 127294.51556249984,
      "d": 812.4991874999978,
      "v": 114
    },
    {
      "midi": 69,
      "hit": false,
      "t": 127294.51556249984,
      "d": 830.3563124999928,
      "v": 106
    },
    {
      "midi": 45,
      "hit": false,
      "t": 127294.51556249984,
      "d": 1245.5344687499892,
      "v": 89
    },
    {
      "midi": 69,
      "hit": false,
      "t": 128133.80043749984,
      "d": 383.92818749998696,
      "v": 108
    },
    {
      "midi": 62,
      "hit": false,
      "t": 128138.26471874984,
      "d": 401.7853124999965,
      "v": 101
    },
    {
      "midi": 64,
      "hit": false,
      "t": 128142.72899999983,
      "d": 410.7138750000013,
      "v": 108
    },
    {
      "midi": 66,
      "hit": false,
      "t": 128566.83571874983,
      "d": 772.3206562499981,
      "v": 103
    },
    {
      "midi": 69,
      "hit": false,
      "t": 128566.83571874983,
      "d": 772.3206562499981,
      "v": 101
    },
    {
      "midi": 62,
      "hit": false,
      "t": 128566.83571874983,
      "d": 799.1063437499979,
      "v": 94
    },
    {
      "midi": 50,
      "hit": false,
      "t": 128566.83571874983,
      "d": 1334.8200937499932,
      "v": 84
    },
    {
      "midi": 54,
      "hit": false,
      "t": 129423.97771874983,
      "d": 397.3210312500014,
      "v": 85
    },
    {
      "midi": 62,
      "hit": false,
      "t": 129423.97771874983,
      "d": 406.24959375000617,
      "v": 95
    },
    {
      "midi": 57,
      "hit": false,
      "t": 129428.44199999982,
      "d": 401.78531250001106,
      "v": 101
    },
    {
      "midi": 62,
      "hit": false,
      "t": 129857.01299999983,
      "d": 749.9992499999935,
      "v": 95
    },
    {
      "midi": 71,
      "hit": false,
      "t": 129857.01299999983,
      "d": 749.9992499999935,
      "v": 101
    },
    {
      "midi": 66,
      "hit": false,
      "t": 129857.01299999983,
      "d": 767.8563749999885,
      "v": 99
    },
    {
      "midi": 47,
      "hit": false,
      "t": 129857.01299999983,
      "d": 781.2492187499884,
      "v": 95
    },
    {
      "midi": 66,
      "hit": false,
      "t": 130678.44074999982,
      "d": 401.78531250001106,
      "v": 82
    },
    {
      "midi": 62,
      "hit": false,
      "t": 130687.36931249982,
      "d": 383.9281875000015,
      "v": 92
    },
    {
      "midi": 47,
      "hit": false,
      "t": 130687.36931249982,
      "d": 424.10671875000116,
      "v": 89
    },
    {
      "midi": 71,
      "hit": false,
      "t": 130691.83359374982,
      "d": 370.53534375000163,
      "v": 102
    },
    {
      "midi": 71,
      "hit": false,
      "t": 131151.65456249984,
      "d": 767.8563749999739,
      "v": 96
    },
    {
      "midi": 43,
      "hit": false,
      "t": 131151.65456249984,
      "d": 794.6420624999737,
      "v": 77
    },
    {
      "midi": 67,
      "hit": false,
      "t": 131160.58312499983,
      "d": 785.7134999999835,
      "v": 104
    },
    {
      "midi": 62,
      "hit": false,
      "t": 131165.04740624983,
      "d": 772.3206562499981,
      "v": 101
    },
    {
      "midi": 62,
      "hit": false,
      "t": 132013.26084374983,
      "d": 428.5710000000254,
      "v": 89
    },
    {
      "midi": 71,
      "hit": false,
      "t": 132013.26084374983,
      "d": 428.5710000000254,
      "v": 99
    },
    {
      "midi": 67,
      "hit": false,
      "t": 132013.26084374983,
      "d": 446.4281250000349,
      "v": 98
    },
    {
      "midi": 43,
      "hit": false,
      "t": 132031.11796874984,
      "d": 446.4281250000349,
      "v": 91
    },
    {
      "midi": 64,
      "hit": false,
      "t": 132428.43899999984,
      "d": 535.7137500000244,
      "v": 116
    },
    {
      "midi": 69,
      "hit": false,
      "t": 132428.43899999984,
      "d": 1062.4989375000587,
      "v": 110
    },
    {
      "midi": 50,
      "hit": false,
      "t": 132428.43899999984,
      "d": 1160.7131250000675,
      "v": 101
    },
    {
      "midi": 66,
      "hit": false,
      "t": 132852.54571874987,
      "d": 437.4995625000156,
      "v": 66
    },
    {
      "midi": 64,
      "hit": false,
      "t": 133071.29549999986,
      "d": 241.071187500027,
      "v": 72
    },
    {
      "midi": 62,
      "hit": false,
      "t": 133276.65243749987,
      "d": 290.17828125003143,
      "v": 84
    },
    {
      "midi": 45,
      "hit": false,
      "t": 133513.2593437499,
      "d": 254.46403125001234,
      "v": 75
    },
    {
      "midi": 50,
      "hit": false,
      "t": 133727.5448437499,
      "d": 866.070562500041,
      "v": 87
    },
    {
      "midi": 66,
      "hit": false,
      "t": 133928.4374999999,
      "d": 825.8920312500268,
      "v": 91
    },
    {
      "midi": 57,
      "hit": false,
      "t": 133937.3660624999,
      "d": 535.7137499999953,
      "v": 87
    },
    {
      "midi": 62,
      "hit": false,
      "t": 133941.8303437499,
      "d": 544.6423125000147,
      "v": 91
    },
    {
      "midi": 57,
      "hit": false,
      "t": 134553.43687499993,
      "d": 321.4282499999972,
      "v": 78
    },
    {
      "midi": 45,
      "hit": false,
      "t": 134571.29399999994,
      "d": 218.74978124999325,
      "v": 72
    },
    {
      "midi": 62,
      "hit": false,
      "t": 134571.29399999994,
      "d": 281.249718749983,
      "v": 94
    },
    {
      "midi": 50,
      "hit": false,
      "t": 134781.11521874994,
      "d": 160.7141249999986,
      "v": 104
    },
    {
      "midi": 66,
      "hit": false,
      "t": 134999.86499999993,
      "d": 758.9278125000128,
      "v": 99
    },
    {
      "midi": 62,
      "hit": false,
      "t": 134999.86499999993,
      "d": 781.2492187500175,
      "v": 96
    },
    {
      "midi": 57,
      "hit": false,
      "t": 134999.86499999993,
      "d": 785.7135000000126,
      "v": 91
    },
    {
      "midi": 47,
      "hit": false,
      "t": 134999.86499999993,
      "d": 1334.8200937500224,
      "v": 85
    },
    {
      "midi": 57,
      "hit": false,
      "t": 135852.54271874996,
      "d": 397.3210312500014,
      "v": 87
    },
    {
      "midi": 66,
      "hit": false,
      "t": 135852.54271874996,
      "d": 406.2495937499916,
      "v": 81
    },
    {
      "midi": 62,
      "hit": false,
      "t": 135857.00699999995,
      "d": 392.8567500000063,
      "v": 84
    },
    {
      "midi": 40,
      "hit": false,
      "t": 136285.57799999995,
      "d": 1276.7844374999695,
      "v": 81
    },
    {
      "midi": 56,
      "hit": false,
      "t": 136290.04228124995,
      "d": 816.9634687500075,
      "v": 95
    },
    {
      "midi": 62,
      "hit": false,
      "t": 136290.04228124995,
      "d": 825.8920312499977,
      "v": 84
    },
    {
      "midi": 64,
      "hit": false,
      "t": 136294.50656249994,
      "d": 821.4277500000026,
      "v": 81
    },
    {
      "midi": 62,
      "hit": false,
      "t": 137138.25571874995,
      "d": 415.17815624998184,
      "v": 82
    },
    {
      "midi": 56,
      "hit": false,
      "t": 137138.25571874995,
      "d": 433.0352812499623,
      "v": 81
    },
    {
      "midi": 64,
      "hit": false,
      "t": 137147.18428124994,
      "d": 424.10671874997206,
      "v": 88
    },
    {
      "midi": 33,
      "hit": false,
      "t": 137571.2909999999,
      "d": 892.8562500000116,
      "v": 99
    },
    {
      "midi": 57,
      "hit": false,
      "t": 137798.96934374992,
      "d": 504.46378125000047,
      "v": 110
    },
    {
      "midi": 64,
      "hit": false,
      "t": 137803.43362499992,
      "d": 477.6780937500007,
      "v": 112
    },
    {
      "midi": 62,
      "hit": false,
      "t": 137807.8979062499,
      "d": 468.7495312500105,
      "v": 106
    },
    {
      "midi": 55,
      "hit": false,
      "t": 137816.8264687499,
      "d": 62.499937499989755,
      "v": 80
    },
    {
      "midi": 45,
      "hit": false,
      "t": 137973.0763124999,
      "d": 357.1425000000163,
      "v": 81
    },
    {
      "midi": 55,
      "hit": false,
      "t": 138254.32603124992,
      "d": 272.3211562499928,
      "v": 74
    },
    {
      "midi": 45,
      "hit": false,
      "t": 138397.18303124994,
      "d": 477.6780937499716,
      "v": 76
    },
    {
      "midi": 57,
      "hit": false,
      "t": 138401.64731249993,
      "d": 383.92818749995786,
      "v": 112
    },
    {
      "midi": 62,
      "hit": false,
      "t": 138406.11159374993,
      "d": 370.5353437499725,
      "v": 110
    },
    {
      "midi": 64,
      "hit": false,
      "t": 138406.11159374993,
      "d": 392.8567499999772,
      "v": 124
    },
    {
      "midi": 55,
      "hit": false,
      "t": 138669.5041874999,
      "d": 495.53521875001024,
      "v": 66
    },
    {
      "midi": 33,
      "hit": false,
      "t": 138816.8254687499,
      "d": 1178.5702499999607,
      "v": 99
    },
    {
      "midi": 64,
      "hit": false,
      "t": 139102.53946874992,
      "d": 455.35668749996694,
      "v": 94
    },
    {
      "midi": 57,
      "hit": false,
      "t": 139102.53946874992,
      "d": 486.6066562499618,
      "v": 96
    },
    {
      "midi": 62,
      "hit": false,
      "t": 139111.4680312499,
      "d": 450.8924062499718,
      "v": 101
    },
    {
      "midi": 45,
      "hit": false,
      "t": 139276.6464374999,
      "d": 325.8925312499923,
      "v": 77
    },
    {
      "midi": 55,
      "hit": false,
      "t": 139499.8604999999,
      "d": 142.85700000001816,
      "v": 69
    },
    {
      "midi": 64,
      "hit": false,
      "t": 139682.89603124993,
      "d": 321.428249999939,
      "v": 116
    },
    {
      "midi": 57,
      "hit": false,
      "t": 139682.89603124993,
      "d": 352.678218749963,
      "v": 106
    },
    {
      "midi": 62,
      "hit": false,
      "t": 139691.82459374992,
      "d": 325.8925312499632,
      "v": 110
    },
    {
      "midi": 55,
      "hit": false,
      "t": 139700.7531562499,
      "d": 71.42849999997998,
      "v": 77
    },
    {
      "midi": 45,
      "hit": false,
      "t": 139736.4674062499,
      "d": 160.7141249999986,
      "v": 78
    },
    {
      "midi": 55,
      "hit": false,
      "t": 139982.0028749999,
      "d": 160.7141249999986,
      "v": 60
    },
    {
      "midi": 45,
      "hit": false,
      "t": 139986.46715624988,
      "d": 236.6069062500028,
      "v": 92
    },
    {
      "midi": 33,
      "hit": false,
      "t": 140142.7169999999,
      "d": 941.9633437499579,
      "v": 102
    },
    {
      "midi": 57,
      "hit": false,
      "t": 140392.71674999988,
      "d": 482.1423749999958,
      "v": 108
    },
    {
      "midi": 61,
      "hit": false,
      "t": 140397.18103124987,
      "d": 468.7495312500105,
      "v": 103
    },
    {
      "midi": 45,
      "hit": false,
      "t": 140589.14512499986,
      "d": 294.64256249999744,
      "v": 84
    },
    {
      "midi": 52,
      "hit": false,
      "t": 140821.28774999987,
      "d": 245.5354687499639,
      "v": 77
    },
    {
      "midi": 57,
      "hit": false,
      "t": 140959.68046874987,
      "d": 343.74965624997276,
      "v": 110
    },
    {
      "midi": 61,
      "hit": false,
      "t": 140968.60903124986,
      "d": 339.28537499997765,
      "v": 103
    },
    {
      "midi": 45,
      "hit": false,
      "t": 141004.32328124985,
      "d": 424.10671875000116,
      "v": 94
    },
    {
      "midi": 52,
      "hit": false,
      "t": 141281.10871874983,
      "d": 93.74990625001374,
      "v": 74
    },
    {
      "midi": 61,
      "hit": false,
      "t": 141401.64431249985,
      "d": 392.8567500000063,
      "v": 99
    },
    {
      "midi": 57,
      "hit": false,
      "t": 141406.10859374984,
      "d": 415.17815625001094,
      "v": 91
    },
    {
      "midi": 33,
      "hit": false,
      "t": 141428.42999999985,
      "d": 482.1423749999958,
      "v": 102
    },
    {
      "midi": 62,
      "hit": false,
      "t": 141843.60815624986,
      "d": 441.9638437499816,
      "v": 102
    },
    {
      "midi": 59,
      "hit": false,
      "t": 141852.53671874985,
      "d": 433.0352812499914,
      "v": 85
    },
    {
      "midi": 57,
      "hit": false,
      "t": 141857.00099999984,
      "d": 218.74978124999325,
      "v": 96
    },
    {
      "midi": 35,
      "hit": false,
      "t": 141865.92956249983,
      "d": 473.2138125000056,
      "v": 82
    },
    {
      "midi": 61,
      "hit": false,
      "t": 142263.25059374984,
      "d": 334.82109375001164,
      "v": 91
    },
    {
      "midi": 64,
      "hit": false,
      "t": 142267.71487499983,
      "d": 334.82109375001164,
      "v": 101
    },
    {
      "midi": 37,
      "hit": false,
      "t": 142303.42912499985,
      "d": 316.9639687500021,
      "v": 91
    },
    {
      "midi": 38,
      "hit": false,
      "t": 142718.60728124986,
      "d": 781.2492187499884,
      "v": 82
    },
    {
      "midi": 57,
      "hit": false,
      "t": 142723.07156249986,
      "d": 754.4635312499886,
      "v": 90
    },
    {
      "midi": 62,
      "hit": false,
      "t": 142723.07156249986,
      "d": 758.9278124999837,
      "v": 98
    },
    {
      "midi": 66,
      "hit": false,
      "t": 142723.07156249986,
      "d": 794.6420625000028,
      "v": 97
    },
    {
      "midi": 38,
      "hit": false,
      "t": 143566.82071874986,
      "d": 473.2138124999765,
      "v": 88
    },
    {
      "midi": 66,
      "hit": false,
      "t": 143571.28499999986,
      "d": 374.99962499999674,
      "v": 99
    },
    {
      "midi": 57,
      "hit": false,
      "t": 143571.28499999986,
      "d": 379.46390624999185,
      "v": 89
    },
    {
      "midi": 62,
      "hit": false,
      "t": 143575.74928124985,
      "d": 357.1424999999872,
      "v": 94
    },
    {
      "midi": 43,
      "hit": false,
      "t": 144008.78456249984,
      "d": 334.82109374998254,
      "v": 76
    },
    {
      "midi": 62,
      "hit": false,
      "t": 144281.10571874984,
      "d": 522.32090625001,
      "v": 92
    },
    {
      "midi": 55,
      "hit": false,
      "t": 144281.10571874984,
      "d": 531.2494687500002,
      "v": 82
    },
    {
      "midi": 59,
      "hit": false,
      "t": 144281.10571874984,
      "d": 531.2494687500002,
      "v": 84
    },
    {
      "midi": 43,
      "hit": false,
      "t": 144705.21243749984,
      "d": 187.49981249999837,
      "v": 59
    },
    {
      "midi": 59,
      "hit": false,
      "t": 144848.06943749983,
      "d": 392.8567500000063,
      "v": 110
    },
    {
      "midi": 55,
      "hit": false,
      "t": 144848.06943749983,
      "d": 401.7853124999965,
      "v": 95
    },
    {
      "midi": 62,
      "hit": false,
      "t": 144848.06943749983,
      "d": 428.5709999999963,
      "v": 118
    },
    {
      "midi": 43,
      "hit": false,
      "t": 145129.31915624984,
      "d": 187.49981249999837,
      "v": 54
    },
    {
      "midi": 45,
      "hit": false,
      "t": 145290.03328124984,
      "d": 392.8567499999772,
      "v": 72
    },
    {
      "midi": 57,
      "hit": false,
      "t": 145566.81871874983,
      "d": 504.46378125000047,
      "v": 92
    },
    {
      "midi": 62,
      "hit": false,
      "t": 145566.81871874983,
      "d": 504.46378125000047,
      "v": 102
    },
    {
      "midi": 64,
      "hit": false,
      "t": 145566.81871874983,
      "d": 522.32090625001,
      "v": 101
    },
    {
      "midi": 45,
      "hit": false,
      "t": 145990.92543749983,
      "d": 191.96409375002258,
      "v": 73
    },
    {
      "midi": 57,
      "hit": false,
      "t": 146133.78243749985,
      "d": 419.64243750000605,
      "v": 102
    },
    {
      "midi": 62,
      "hit": false,
      "t": 146133.78243749985,
      "d": 419.64243750000605,
      "v": 108
    },
    {
      "midi": 64,
      "hit": false,
      "t": 146133.78243749985,
      "d": 419.64243750000605,
      "v": 104
    },
    {
      "midi": 45,
      "hit": false,
      "t": 146419.49643749985,
      "d": 183.03553125000326,
      "v": 84
    },
    {
      "midi": 38,
      "hit": false,
      "t": 146566.81771874987,
      "d": 830.3563124999928,
      "v": 84
    },
    {
      "midi": 57,
      "hit": false,
      "t": 146566.81771874987,
      "d": 848.2134375000023,
      "v": 74
    },
    {
      "midi": 62,
      "hit": false,
      "t": 146566.81771874987,
      "d": 848.2134375000023,
      "v": 94
    },
    {
      "midi": 66,
      "hit": false,
      "t": 146575.74628124986,
      "d": 852.6777187499974,
      "v": 93
    },
    {
      "midi": 38,
      "hit": false,
      "t": 147423.95971874986,
      "d": 424.10671874997206,
      "v": 80
    },
    {
      "midi": 57,
      "hit": false,
      "t": 147428.42399999985,
      "d": 410.71387499998673,
      "v": 84
    },
    {
      "midi": 62,
      "hit": false,
      "t": 147428.42399999985,
      "d": 410.71387499998673,
      "v": 95
    },
    {
      "midi": 47,
      "hit": false,
      "t": 147856.99499999982,
      "d": 821.4277500000026,
      "v": 84
    },
    {
      "midi": 62,
      "hit": false,
      "t": 147856.99499999982,
      "d": 821.4277500000026,
      "v": 84
    },
    {
      "midi": 66,
      "hit": false,
      "t": 147856.99499999982,
      "d": 821.4277500000026,
      "v": 97
    },
    {
      "midi": 71,
      "hit": false,
      "t": 147856.99499999982,
      "d": 839.2848750000121,
      "v": 94
    },
    {
      "midi": 71,
      "hit": false,
      "t": 148718.60128124984,
      "d": 397.3210312500014,
      "v": 98
    },
    {
      "midi": 62,
      "hit": false,
      "t": 148718.60128124984,
      "d": 406.2495937499916,
      "v": 92
    },
    {
      "midi": 66,
      "hit": false,
      "t": 148718.60128124984,
      "d": 410.71387499998673,
      "v": 85
    },
    {
      "midi": 47,
      "hit": false,
      "t": 148718.60128124984,
      "d": 437.4995624999865,
      "v": 90
    },
    {
      "midi": 43,
      "hit": false,
      "t": 149147.17228124983,
      "d": 776.7849374999932,
      "v": 75
    },
    {
      "midi": 59,
      "hit": false,
      "t": 149147.17228124983,
      "d": 794.6420625000028,
      "v": 91
    },
    {
      "midi": 67,
      "hit": false,
      "t": 149151.63656249983,
      "d": 785.7135000000126,
      "v": 95
    },
    {
      "midi": 62,
      "hit": false,
      "t": 149151.63656249983,
      "d": 790.1777812500077,
      "v": 98
    },
    {
      "midi": 59,
      "hit": false,
      "t": 149995.38571874984,
      "d": 410.71387499998673,
      "v": 84
    },
    {
      "midi": 62,
      "hit": false,
      "t": 149995.38571874984,
      "d": 433.0352812499914,
      "v": 91
    },
    {
      "midi": 67,
      "hit": false,
      "t": 149995.38571874984,
      "d": 433.0352812499914,
      "v": 88
    },
    {
      "midi": 43,
      "hit": false,
      "t": 150004.31428124983,
      "d": 419.64243750000605,
      "v": 89
    },
    {
      "midi": 38,
      "hit": false,
      "t": 150428.42099999983,
      "d": 1249.998750000028,
      "v": 89
    },
    {
      "midi": 67,
      "hit": false,
      "t": 150446.27812499984,
      "d": 236.6069062500028,
      "v": 89
    },
    {
      "midi": 62,
      "hit": false,
      "t": 150446.27812499984,
      "d": 392.8567500000063,
      "v": 96
    },
    {
      "midi": 69,
      "hit": false,
      "t": 150446.27812499984,
      "d": 392.8567500000063,
      "v": 106
    },
    {
      "midi": 67,
      "hit": false,
      "t": 150861.45628124985,
      "d": 401.7853124999965,
      "v": 106
    },
    {
      "midi": 62,
      "hit": false,
      "t": 150865.92056249984,
      "d": 370.53534375000163,
      "v": 94
    },
    {
      "midi": 62,
      "hit": false,
      "t": 151281.09871874985,
      "d": 397.3210312500014,
      "v": 84
    },
    {
      "midi": 66,
      "hit": false,
      "t": 151290.02728124984,
      "d": 388.3924687500112,
      "v": 101
    },
    {
      "midi": 64,
      "hit": false,
      "t": 151709.66971874985,
      "d": 241.0711874999979,
      "v": 98
    },
    {
      "midi": 62,
      "hit": false,
      "t": 151709.66971874985,
      "d": 825.8920312499977,
      "v": 98
    },
    {
      "midi": 38,
      "hit": false,
      "t": 151723.06256249986,
      "d": 763.3920937499788,
      "v": 112
    },
    {
      "midi": 66,
      "hit": false,
      "t": 151865.91956249985,
      "d": 696.427874999994,
      "v": 89
    },
    {
      "midi": 57,
      "hit": false,
      "t": 152557.88315624985,
      "d": 419.64243749997695,
      "v": 76
    },
    {
      "midi": 62,
      "hit": false,
      "t": 152557.88315624985,
      "d": 419.64243749997695,
      "v": 77
    },
    {
      "midi": 38,
      "hit": false,
      "t": 152566.81171874984,
      "d": 330.3568124999874,
      "v": 92
    },
    {
      "midi": 62,
      "hit": false,
      "t": 152999.84699999983,
      "d": 741.0706875000033,
      "v": 87
    },
    {
      "midi": 54,
      "hit": false,
      "t": 152999.84699999983,
      "d": 803.570624999993,
      "v": 83
    },
    {
      "midi": 47,
      "hit": false,
      "t": 152999.84699999983,
      "d": 1281.2487187500228,
      "v": 85
    },
    {
      "midi": 59,
      "hit": false,
      "t": 153004.31128124983,
      "d": 763.3920937500079,
      "v": 84
    },
    {
      "midi": 66,
      "hit": false,
      "t": 153843.59615624984,
      "d": 352.6782187499921,
      "v": 88
    },
    {
      "midi": 62,
      "hit": false,
      "t": 153843.59615624984,
      "d": 370.53534375000163,
      "v": 71
    },
    {
      "midi": 71,
      "hit": false,
      "t": 153848.06043749984,
      "d": 379.46390625002095,
      "v": 94
    },
    {
      "midi": 43,
      "hit": false,
      "t": 154285.55999999985,
      "d": 1209.8202187499846,
      "v": 81
    },
    {
      "midi": 67,
      "hit": false,
      "t": 154290.02428124985,
      "d": 799.1063437499979,
      "v": 104
    },
    {
      "midi": 71,
      "hit": false,
      "t": 154290.02428124985,
      "d": 799.1063437499979,
      "v": 99
    },
    {
      "midi": 62,
      "hit": false,
      "t": 154294.48856249984,
      "d": 794.6420625000028,
      "v": 96
    },
    {
      "midi": 59,
      "hit": false,
      "t": 155138.23771874985,
      "d": 388.3924687499821,
      "v": 75
    },
    {
      "midi": 62,
      "hit": false,
      "t": 155138.23771874985,
      "d": 388.3924687499821,
      "v": 84
    },
    {
      "midi": 67,
      "hit": false,
      "t": 155138.23771874985,
      "d": 388.3924687499821,
      "v": 69
    },
    {
      "midi": 57,
      "hit": false,
      "t": 155571.27299999984,
      "d": 830.3563124999928,
      "v": 87
    },
    {
      "midi": 38,
      "hit": false,
      "t": 155571.27299999984,
      "d": 1232.1416249999893,
      "v": 77
    },
    {
      "midi": 62,
      "hit": false,
      "t": 155575.73728124984,
      "d": 816.9634687500075,
      "v": 89
    },
    {
      "midi": 66,
      "hit": false,
      "t": 155575.73728124984,
      "d": 816.9634687500075,
      "v": 95
    },
    {
      "midi": 57,
      "hit": false,
      "t": 156432.87928124983,
      "d": 459.82096875002026,
      "v": 69
    },
    {
      "midi": 62,
      "hit": false,
      "t": 156432.87928124983,
      "d": 459.82096875002026,
      "v": 82
    },
    {
      "midi": 66,
      "hit": false,
      "t": 156441.80784374982,
      "d": 406.2495937500207,
      "v": 61
    },
    {
      "midi": 38,
      "hit": false,
      "t": 156865.91456249985,
      "d": 1147.3202812499949,
      "v": 74
    },
    {
      "midi": 64,
      "hit": false,
      "t": 157124.84287499986,
      "d": 178.57125000000815,
      "v": 98
    },
    {
      "midi": 57,
      "hit": false,
      "t": 157129.30715624985,
      "d": 580.3565625000047,
      "v": 90
    },
    {
      "midi": 62,
      "hit": false,
      "t": 157129.30715624985,
      "d": 584.8208437499998,
      "v": 85
    },
    {
      "midi": 66,
      "hit": false,
      "t": 157290.02128124985,
      "d": 339.28537500000675,
      "v": 88
    },
    {
      "midi": 57,
      "hit": false,
      "t": 157718.59228124985,
      "d": 406.2495937499916,
      "v": 92
    },
    {
      "midi": 62,
      "hit": false,
      "t": 157718.59228124985,
      "d": 410.71387499998673,
      "v": 89
    },
    {
      "midi": 66,
      "hit": false,
      "t": 157718.59228124985,
      "d": 415.17815624998184,
      "v": 101
    },
    {
      "midi": 47,
      "hit": false,
      "t": 158142.69899999982,
      "d": 1325.8915312500321,
      "v": 81
    },
    {
      "midi": 64,
      "hit": false,
      "t": 158566.80571874982,
      "d": 392.8567500000063,
      "v": 77
    },
    {
      "midi": 62,
      "hit": false,
      "t": 158571.26999999981,
      "d": 348.213937499997,
      "v": 88
    },
    {
      "midi": 57,
      "hit": false,
      "t": 158571.26999999981,
      "d": 401.7853125000256,
      "v": 72
    },
    {
      "midi": 64,
      "hit": false,
      "t": 159004.30528124984,
      "d": 379.46390624999185,
      "v": 101
    },
    {
      "midi": 57,
      "hit": false,
      "t": 159004.30528124984,
      "d": 397.3210312500014,
      "v": 101
    },
    {
      "midi": 62,
      "hit": false,
      "t": 159004.30528124984,
      "d": 406.2495937499916,
      "v": 102
    },
    {
      "midi": 56,
      "hit": false,
      "t": 159423.94771874984,
      "d": 406.2495937500207,
      "v": 91
    },
    {
      "midi": 64,
      "hit": false,
      "t": 159423.94771874984,
      "d": 406.2495937500207,
      "v": 96
    },
    {
      "midi": 62,
      "hit": false,
      "t": 159423.94771874984,
      "d": 415.17815625001094,
      "v": 84
    },
    {
      "midi": 40,
      "hit": false,
      "t": 159423.94771874984,
      "d": 1272.3201562500035,
      "v": 81
    },
    {
      "midi": 56,
      "hit": false,
      "t": 159861.44728124986,
      "d": 397.3210312500014,
      "v": 108
    },
    {
      "midi": 62,
      "hit": false,
      "t": 159861.44728124986,
      "d": 406.2495937499916,
      "v": 84
    },
    {
      "midi": 64,
      "hit": false,
      "t": 159861.44728124986,
      "d": 406.2495937499916,
      "v": 99
    },
    {
      "midi": 64,
      "hit": false,
      "t": 160281.08971874986,
      "d": 406.2495937499916,
      "v": 108
    },
    {
      "midi": 56,
      "hit": false,
      "t": 160281.08971874986,
      "d": 415.17815624998184,
      "v": 108
    },
    {
      "midi": 62,
      "hit": false,
      "t": 160285.55399999986,
      "d": 374.99962499999674,
      "v": 98
    },
    {
      "midi": 45,
      "hit": false,
      "t": 160723.05356249984,
      "d": 370.5353437499725,
      "v": 101
    },
    {
      "midi": 64,
      "hit": false,
      "t": 160999.83899999983,
      "d": 370.5353437499725,
      "v": 101
    },
    {
      "midi": 57,
      "hit": false,
      "t": 160999.83899999983,
      "d": 379.46390624996275,
      "v": 102
    },
    {
      "midi": 62,
      "hit": false,
      "t": 160999.83899999983,
      "d": 379.46390624996275,
      "v": 99
    },
    {
      "midi": 55,
      "hit": false,
      "t": 161004.30328124983,
      "d": 383.92818749995786,
      "v": 92
    },
    {
      "midi": 45,
      "hit": false,
      "t": 161423.94571874978,
      "d": 178.57124999997905,
      "v": 102
    },
    {
      "midi": 62,
      "hit": false,
      "t": 161566.80271874976,
      "d": 321.4282499999681,
      "v": 94
    },
    {
      "midi": 55,
      "hit": false,
      "t": 161566.80271874976,
      "d": 325.8925312499632,
      "v": 84
    },
    {
      "midi": 64,
      "hit": false,
      "t": 161566.80271874976,
      "d": 334.82109374995343,
      "v": 90
    },
    {
      "midi": 57,
      "hit": false,
      "t": 161566.80271874976,
      "d": 339.28537499994854,
      "v": 95
    },
    {
      "midi": 45,
      "hit": false,
      "t": 161852.51671874974,
      "d": 138.39271874996484,
      "v": 90
    },
    {
      "midi": 33,
      "hit": false,
      "t": 161995.3737187497,
      "d": 1281.2487187500228,
      "v": 83
    },
    {
      "midi": 61,
      "hit": false,
      "t": 162415.0161562497,
      "d": 428.5710000000254,
      "v": 93
    },
    {
      "midi": 64,
      "hit": false,
      "t": 162419.4804374997,
      "d": 392.8567500000063,
      "v": 96
    },
    {
      "midi": 57,
      "hit": false,
      "t": 162419.4804374997,
      "d": 410.71387500001583,
      "v": 85
    },
    {
      "midi": 61,
      "hit": false,
      "t": 162848.05143749973,
      "d": 410.71387499998673,
      "v": 95
    },
    {
      "midi": 64,
      "hit": false,
      "t": 162852.51571874972,
      "d": 424.10671875000116,
      "v": 104
    },
    {
      "midi": 57,
      "hit": false,
      "t": 162852.51571874972,
      "d": 441.9638437499816,
      "v": 84
    },
    {
      "midi": 43,
      "hit": false,
      "t": 163285.55099999972,
      "d": 437.4995624999865,
      "v": 80
    },
    {
      "midi": 67,
      "hit": false,
      "t": 163285.55099999972,
      "d": 794.6420624999737,
      "v": 96
    },
    {
      "midi": 62,
      "hit": false,
      "t": 163285.55099999972,
      "d": 803.5706249999639,
      "v": 102
    },
    {
      "midi": 59,
      "hit": false,
      "t": 163285.55099999972,
      "d": 830.3563124999637,
      "v": 90
    },
    {
      "midi": 43,
      "hit": false,
      "t": 163999.8359999997,
      "d": 218.74978124999325,
      "v": 101
    },
    {
      "midi": 62,
      "hit": false,
      "t": 164138.22871874968,
      "d": 406.2495937500207,
      "v": 112
    },
    {
      "midi": 59,
      "hit": false,
      "t": 164142.69299999968,
      "d": 383.92818750001607,
      "v": 101
    },
    {
      "midi": 67,
      "hit": false,
      "t": 164142.69299999968,
      "d": 383.92818750001607,
      "v": 112
    },
    {
      "midi": 43,
      "hit": false,
      "t": 164419.4784374997,
      "d": 187.49981249999837,
      "v": 91
    },
    {
      "midi": 45,
      "hit": false,
      "t": 164566.7997187497,
      "d": 1272.3201562499744,
      "v": 87
    },
    {
      "midi": 61,
      "hit": false,
      "t": 164571.2639999997,
      "d": 419.64243749997695,
      "v": 105
    },
    {
      "midi": 64,
      "hit": false,
      "t": 164571.2639999997,
      "d": 419.64243749997695,
      "v": 110
    },
    {
      "midi": 57,
      "hit": false,
      "t": 164575.7282812497,
      "d": 415.17815624998184,
      "v": 102
    },
    {
      "midi": 62,
      "hit": false,
      "t": 165004.2992812497,
      "d": 379.46390624999185,
      "v": 99
    },
    {
      "midi": 59,
      "hit": false,
      "t": 165004.2992812497,
      "d": 397.3210312500014,
      "v": 99
    },
    {
      "midi": 57,
      "hit": false,
      "t": 165004.2992812497,
      "d": 406.2495937499916,
      "v": 95
    },
    {
      "midi": 64,
      "hit": false,
      "t": 165432.8702812497,
      "d": 379.46390624999185,
      "v": 99
    },
    {
      "midi": 57,
      "hit": false,
      "t": 165432.8702812497,
      "d": 406.2495937499916,
      "v": 95
    },
    {
      "midi": 61,
      "hit": false,
      "t": 165432.8702812497,
      "d": 406.2495937499916,
      "v": 97
    },
    {
      "midi": 62,
      "hit": false,
      "t": 165856.9769999997,
      "d": 3741.0676875000063,
      "v": 99
    },
    {
      "midi": 57,
      "hit": false,
      "t": 165856.9769999997,
      "d": 3776.7819374999963,
      "v": 104
    },
    {
      "midi": 66,
      "hit": false,
      "t": 165856.9769999997,
      "d": 3781.2462187499914,
      "v": 105
    },
    {
      "midi": 38,
      "hit": false,
      "t": 165856.9769999997,
      "d": 3790.1747812499816,
      "v": 99
    }
  ]
}