{
  "jsonPath": "World/Australian Pop/S Club 7/natural.json",
  "path": "World\\Australian Pop\\S Club 7\\Natural.mid",
  "name": "Natural",
  "difficulty": "Advanced",
  "bpm": 98.00030380094178,
  "notes": [
    {
      "midi": 53,
      "hit": false,
      "t": 12244.86,
      "d": 1011.4764562499986,
      "v": 84
    },
    {
      "midi": 57,
      "hit": false,
      "t": 12550.9815,
      "d": 1036.9865812499993,
      "v": 90
    },
    {
      "midi": 65,
      "hit": false,
      "t": 12857.103,
      "d": 1738.5150187500003,
      "v": 90
    },
    {
      "midi": 62,
      "hit": false,
      "t": 13163.224499999998,
      "d": 635.202112500001,
      "v": 90
    },
    {
      "midi": 50,
      "hit": false,
      "t": 13469.346,
      "d": 1253.8226437499998,
      "v": 93
    },
    {
      "midi": 57,
      "hit": false,
      "t": 13775.467499999999,
      "d": 482.14136250000047,
      "v": 76
    },
    {
      "midi": 62,
      "hit": false,
      "t": 14081.589,
      "d": 609.6919874999985,
      "v": 84
    },
    {
      "midi": 57,
      "hit": false,
      "t": 14387.7105,
      "d": 246.17270624999946,
      "v": 74
    },
    {
      "midi": 43,
      "hit": false,
      "t": 14693.831999999999,
      "d": 1241.0675812499994,
      "v": 99
    },
    {
      "midi": 58,
      "hit": false,
      "t": 14999.9535,
      "d": 966.8337374999992,
      "v": 90
    },
    {
      "midi": 62,
      "hit": false,
      "t": 15306.074999999999,
      "d": 698.977425000001,
      "v": 93
    },
    {
      "midi": 67,
      "hit": false,
      "t": 15612.196499999998,
      "d": 386.4783937500015,
      "v": 102
    },
    {
      "midi": 48,
      "hit": false,
      "t": 15918.317999999997,
      "d": 1221.9349875000062,
      "v": 96
    },
    {
      "midi": 63,
      "hit": false,
      "t": 16224.4395,
      "d": 992.3438625000053,
      "v": 102
    },
    {
      "midi": 58,
      "hit": false,
      "t": 16530.561,
      "d": 641.579643750003,
      "v": 105
    },
    {
      "midi": 55,
      "hit": false,
      "t": 16836.682500000003,
      "d": 329.08061250000173,
      "v": 93
    },
    {
      "midi": 41,
      "hit": false,
      "t": 17142.804000000004,
      "d": 1190.0473312500035,
      "v": 93
    },
    {
      "midi": 57,
      "hit": false,
      "t": 17448.925500000005,
      "d": 1119.8944875000016,
      "v": 108
    },
    {
      "midi": 60,
      "hit": false,
      "t": 17755.047000000006,
      "d": 545.9166750000004,
      "v": 90
    },
    {
      "midi": 65,
      "hit": false,
      "t": 18061.168500000007,
      "d": 845.6606437499977,
      "v": 99
    },
    {
      "midi": 62,
      "hit": false,
      "t": 18367.290000000008,
      "d": 316.32554999999775,
      "v": 99
    },
    {
      "midi": 46,
      "hit": false,
      "t": 18367.290000000008,
      "d": 775.5077999999958,
      "v": 93
    },
    {
      "midi": 57,
      "hit": false,
      "t": 18673.411500000006,
      "d": 552.2942062499969,
      "v": 93
    },
    {
      "midi": 62,
      "hit": false,
      "t": 18979.533000000003,
      "d": 565.0492687500009,
      "v": 96
    },
    {
      "midi": 46,
      "hit": false,
      "t": 19285.654500000004,
      "d": 309.9480187500012,
      "v": 105
    },
    {
      "midi": 57,
      "hit": false,
      "t": 19591.776000000005,
      "d": 565.0492687500009,
      "v": 88
    },
    {
      "midi": 62,
      "hit": false,
      "t": 19591.776000000005,
      "d": 743.6201437500022,
      "v": 88
    },
    {
      "midi": 45,
      "hit": false,
      "t": 19897.897500000006,
      "d": 1292.087831249999,
      "v": 93
    },
    {
      "midi": 52,
      "hit": false,
      "t": 20204.019000000008,
      "d": 1419.6384562499989,
      "v": 88
    },
    {
      "midi": 62,
      "hit": false,
      "t": 20510.14050000001,
      "d": 233.41764374999912,
      "v": 93
    },
    {
      "midi": 61,
      "hit": false,
      "t": 20816.262000000006,
      "d": 1107.1394250000012,
      "v": 99
    },
    {
      "midi": 57,
      "hit": false,
      "t": 21122.383500000007,
      "d": 820.1505187500006,
      "v": 80
    },
    {
      "midi": 45,
      "hit": false,
      "t": 21428.505000000005,
      "d": 552.2942062500042,
      "v": 96
    },
    {
      "midi": 52,
      "hit": false,
      "t": 21734.626500000006,
      "d": 220.6625812500024,
      "v": 60
    },
    {
      "midi": 38,
      "hit": false,
      "t": 22072.63565625,
      "d": 1158.159674999999,
      "v": 114
    },
    {
      "midi": 31,
      "hit": false,
      "t": 24489.72,
      "d": 1253.8226437500016,
      "v": 114
    },
    {
      "midi": 36,
      "hit": false,
      "t": 26938.692000000003,
      "d": 1260.2001749999981,
      "v": 114
    },
    {
      "midi": 29,
      "hit": false,
      "t": 29387.664,
      "d": 1215.5574562500005,
      "v": 108
    },
    {
      "midi": 67,
      "hit": false,
      "t": 30337.91615625001,
      "d": 137.75467500000377,
      "v": 55
    },
    {
      "midi": 53,
      "hit": false,
      "t": 30388.93640625001,
      "d": 1457.9036437500072,
      "v": 63
    },
    {
      "midi": 41,
      "hit": false,
      "t": 30408.06900000001,
      "d": 1368.6182062500047,
      "v": 58
    },
    {
      "midi": 69,
      "hit": false,
      "t": 30433.57912500001,
      "d": 80.3568937500022,
      "v": 84
    },
    {
      "midi": 70,
      "hit": false,
      "t": 30503.731968750013,
      "d": 112.24454999999944,
      "v": 108
    },
    {
      "midi": 69,
      "hit": false,
      "t": 30612.150000000012,
      "d": 290.8154250000007,
      "v": 108
    },
    {
      "midi": 67,
      "hit": false,
      "t": 30918.271500000013,
      "d": 290.8154250000007,
      "v": 105
    },
    {
      "midi": 65,
      "hit": false,
      "t": 31224.393000000015,
      "d": 290.8154250000007,
      "v": 96
    },
    {
      "midi": 64,
      "hit": false,
      "t": 31530.514500000016,
      "d": 290.8154250000007,
      "v": 96
    },
    {
      "midi": 26,
      "hit": false,
      "t": 31836.636000000002,
      "d": 679.8448312500004,
      "v": 108
    },
    {
      "midi": 38,
      "hit": false,
      "t": 31836.636000000002,
      "d": 947.7011437500005,
      "v": 108
    },
    {
      "midi": 62,
      "hit": false,
      "t": 31836.636000000017,
      "d": 290.8154250000007,
      "v": 96
    },
    {
      "midi": 50,
      "hit": false,
      "t": 31836.636000000017,
      "d": 2293.360237500008,
      "v": 88
    },
    {
      "midi": 57,
      "hit": false,
      "t": 32142.757500000018,
      "d": 1024.2315187500026,
      "v": 67
    },
    {
      "midi": 62,
      "hit": false,
      "t": 32448.87900000002,
      "d": 1668.3621750000057,
      "v": 80
    },
    {
      "midi": 69,
      "hit": false,
      "t": 32755.00050000002,
      "d": 1381.373268750005,
      "v": 96
    },
    {
      "midi": 67,
      "hit": false,
      "t": 33061.12200000002,
      "d": 718.1100187500051,
      "v": 80
    },
    {
      "midi": 57,
      "hit": false,
      "t": 33367.24350000002,
      "d": 807.3954562500076,
      "v": 65
    },
    {
      "midi": 65,
      "hit": false,
      "t": 33673.36500000002,
      "d": 501.27395625000645,
      "v": 72
    },
    {
      "midi": 31,
      "hit": false,
      "t": 34285.608,
      "d": 1330.35301875,
      "v": 114
    },
    {
      "midi": 43,
      "hit": false,
      "t": 34285.60800000003,
      "d": 2306.115300000005,
      "v": 96
    },
    {
      "midi": 55,
      "hit": false,
      "t": 34591.72950000003,
      "d": 2031.8814562500047,
      "v": 84
    },
    {
      "midi": 62,
      "hit": false,
      "t": 34897.85100000003,
      "d": 1693.8723000000027,
      "v": 80
    },
    {
      "midi": 69,
      "hit": false,
      "t": 35203.97250000003,
      "d": 1394.1283312500018,
      "v": 80
    },
    {
      "midi": 67,
      "hit": false,
      "t": 35510.094000000034,
      "d": 622.4470500000025,
      "v": 84
    },
    {
      "midi": 65,
      "hit": false,
      "t": 36122.337000000036,
      "d": 475.7638312499985,
      "v": 93
    },
    {
      "midi": 36,
      "hit": false,
      "t": 36734.58,
      "d": 1355.8631437500007,
      "v": 108
    },
    {
      "midi": 48,
      "hit": false,
      "t": 36734.58000000004,
      "d": 1336.7305500000075,
      "v": 105
    },
    {
      "midi": 55,
      "hit": false,
      "t": 37040.70150000004,
      "d": 1968.106143750003,
      "v": 80
    },
    {
      "midi": 60,
      "hit": false,
      "t": 37346.82300000004,
      "d": 922.1910187500034,
      "v": 84
    },
    {
      "midi": 67,
      "hit": false,
      "t": 37652.94450000004,
      "d": 1355.8631437500007,
      "v": 96
    },
    {
      "midi": 64,
      "hit": false,
      "t": 37959.06600000004,
      "d": 1062.49670625,
      "v": 82
    },
    {
      "midi": 48,
      "hit": false,
      "t": 38265.187500000044,
      "d": 781.8853312499996,
      "v": 82
    },
    {
      "midi": 60,
      "hit": false,
      "t": 38571.309000000045,
      "d": 437.4986437499974,
      "v": 99
    },
    {
      "midi": 33,
      "hit": false,
      "t": 39183.552,
      "d": 329.08061250000173,
      "v": 105
    },
    {
      "midi": 45,
      "hit": false,
      "t": 39183.552,
      "d": 335.4581437500019,
      "v": 111
    },
    {
      "midi": 33,
      "hit": false,
      "t": 39183.55200000004,
      "d": 271.68283125000016,
      "v": 111
    },
    {
      "midi": 33,
      "hit": false,
      "t": 39795.795000000006,
      "d": 322.70308125000156,
      "v": 105
    },
    {
      "midi": 45,
      "hit": false,
      "t": 39795.795000000006,
      "d": 335.4581437500019,
      "v": 102
    },
    {
      "midi": 33,
      "hit": false,
      "t": 39795.79500000004,
      "d": 360.9682687500026,
      "v": 117
    },
    {
      "midi": 33,
      "hit": false,
      "t": 40408.03800000001,
      "d": 322.70308125000156,
      "v": 108
    },
    {
      "midi": 45,
      "hit": false,
      "t": 40408.03800000001,
      "d": 335.4581437500019,
      "v": 108
    },
    {
      "midi": 33,
      "hit": false,
      "t": 40408.038000000044,
      "d": 360.9682687500026,
      "v": 120
    },
    {
      "midi": 33,
      "hit": false,
      "t": 41020.28100000001,
      "d": 322.70308125000156,
      "v": 108
    },
    {
      "midi": 45,
      "hit": false,
      "t": 41020.28100000001,
      "d": 367.3458000000028,
      "v": 108
    },
    {
      "midi": 33,
      "hit": false,
      "t": 41020.281000000046,
      "d": 341.8356750000021,
      "v": 120
    },
    {
      "midi": 50,
      "hit": false,
      "t": 41632.52400000005,
      "d": 1228.3125187500045,
      "v": 96
    },
    {
      "midi": 65,
      "hit": false,
      "t": 41938.64550000005,
      "d": 1477.036237500004,
      "v": 102
    },
    {
      "midi": 57,
      "hit": false,
      "t": 42244.76700000005,
      "d": 737.2426125000056,
      "v": 105
    },
    {
      "midi": 62,
      "hit": false,
      "t": 42550.88850000005,
      "d": 609.6919875000021,
      "v": 93
    },
    {
      "midi": 62,
      "hit": false,
      "t": 42857.009999999995,
      "d": 1528.0564874999982,
      "v": 1
    },
    {
      "midi": 65,
      "hit": false,
      "t": 42857.009999999995,
      "d": 1528.0564874999982,
      "v": 1
    },
    {
      "midi": 46,
      "hit": false,
      "t": 42857.01000000005,
      "d": 1234.6900500000047,
      "v": 111
    },
    {
      "midi": 57,
      "hit": false,
      "t": 43163.131500000054,
      "d": 852.0381750000015,
      "v": 99
    },
    {
      "midi": 62,
      "hit": false,
      "t": 43469.253000000055,
      "d": 654.3347062500034,
      "v": 99
    },
    {
      "midi": 65,
      "hit": false,
      "t": 43775.374500000056,
      "d": 392.8559250000035,
      "v": 96
    },
    {
      "midi": 48,
      "hit": false,
      "t": 44081.49600000006,
      "d": 1228.3125187500045,
      "v": 105
    },
    {
      "midi": 60,
      "hit": false,
      "t": 44387.61749999999,
      "d": 2140.2994875000004,
      "v": 1
    },
    {
      "midi": 64,
      "hit": false,
      "t": 44387.61749999999,
      "d": 2140.2994875000004,
      "v": 1
    },
    {
      "midi": 67,
      "hit": false,
      "t": 44387.61750000006,
      "d": 2051.014050000005,
      "v": 93
    },
    {
      "midi": 60,
      "hit": false,
      "t": 44693.73900000006,
      "d": 679.8448312500041,
      "v": 93
    },
    {
      "midi": 64,
      "hit": false,
      "t": 44999.86050000006,
      "d": 558.6717375000007,
      "v": 93
    },
    {
      "midi": 45,
      "hit": false,
      "t": 45305.98200000006,
      "d": 1145.4046125000023,
      "v": 96
    },
    {
      "midi": 60,
      "hit": false,
      "t": 45612.10350000006,
      "d": 405.61098750000383,
      "v": 96
    },
    {
      "midi": 64,
      "hit": false,
      "t": 45918.225000000064,
      "d": 507.65148749999935,
      "v": 96
    },
    {
      "midi": 60,
      "hit": false,
      "t": 46224.346500000065,
      "d": 188.7749249999979,
      "v": 96
    },
    {
      "midi": 58,
      "hit": false,
      "t": 46530.46799999999,
      "d": 2491.0637062500027,
      "v": 1
    },
    {
      "midi": 62,
      "hit": false,
      "t": 46530.46799999999,
      "d": 2491.0637062500027,
      "v": 1
    },
    {
      "midi": 46,
      "hit": false,
      "t": 46530.468000000066,
      "d": 1234.6900500000047,
      "v": 105
    },
    {
      "midi": 65,
      "hit": false,
      "t": 46836.58950000007,
      "d": 2082.901706250006,
      "v": 105
    },
    {
      "midi": 58,
      "hit": false,
      "t": 47142.71100000007,
      "d": 679.8448312500041,
      "v": 93
    },
    {
      "midi": 62,
      "hit": false,
      "t": 47448.83250000007,
      "d": 622.4470500000025,
      "v": 96
    },
    {
      "midi": 43,
      "hit": false,
      "t": 47754.95400000007,
      "d": 1196.4248625000037,
      "v": 96
    },
    {
      "midi": 58,
      "hit": false,
      "t": 48061.07550000007,
      "d": 373.72333125000296,
      "v": 102
    },
    {
      "midi": 62,
      "hit": false,
      "t": 48367.19700000007,
      "d": 565.0492687500009,
      "v": 96
    },
    {
      "midi": 58,
      "hit": false,
      "t": 48673.318500000074,
      "d": 220.66258124999877,
      "v": 102
    },
    {
      "midi": 64,
      "hit": false,
      "t": 48979.440000000075,
      "d": 335.4581437500019,
      "v": 108
    },
    {
      "midi": 45,
      "hit": false,
      "t": 48979.440000000075,
      "d": 341.8356750000021,
      "v": 105
    },
    {
      "midi": 62,
      "hit": false,
      "t": 48979.440000000075,
      "d": 341.8356750000021,
      "v": 114
    },
    {
      "midi": 57,
      "hit": false,
      "t": 48979.440000000075,
      "d": 348.21320625000226,
      "v": 108
    },
    {
      "midi": 57,
      "hit": false,
      "t": 49024.082718749996,
      "d": 2440.0434562500013,
      "v": 1
    },
    {
      "midi": 64,
      "hit": false,
      "t": 49024.082718749996,
      "d": 2440.0434562500013,
      "v": 1
    },
    {
      "midi": 45,
      "hit": false,
      "t": 49591.68300000008,
      "d": 297.19295625000086,
      "v": 117
    },
    {
      "midi": 64,
      "hit": false,
      "t": 49591.68300000008,
      "d": 297.19295625000086,
      "v": 114
    },
    {
      "midi": 57,
      "hit": false,
      "t": 49591.68300000008,
      "d": 303.57048750000104,
      "v": 108
    },
    {
      "midi": 62,
      "hit": false,
      "t": 49591.68300000008,
      "d": 303.57048750000104,
      "v": 111
    },
    {
      "midi": 64,
      "hit": false,
      "t": 50203.92600000008,
      "d": 348.21320625000226,
      "v": 120
    },
    {
      "midi": 43,
      "hit": false,
      "t": 50203.92600000008,
      "d": 354.59073750000243,
      "v": 108
    },
    {
      "midi": 57,
      "hit": false,
      "t": 50203.92600000008,
      "d": 354.59073750000243,
      "v": 114
    },
    {
      "midi": 62,
      "hit": false,
      "t": 50203.92600000008,
      "d": 354.59073750000243,
      "v": 117
    },
    {
      "midi": 64,
      "hit": false,
      "t": 50816.16900000008,
      "d": 354.59073750000243,
      "v": 117
    },
    {
      "midi": 57,
      "hit": false,
      "t": 50816.16900000008,
      "d": 360.9682687500026,
      "v": 117
    },
    {
      "midi": 62,
      "hit": false,
      "t": 50816.16900000008,
      "d": 367.3458000000028,
      "v": 120
    },
    {
      "midi": 43,
      "hit": false,
      "t": 50816.16900000008,
      "d": 380.10086250000313,
      "v": 114
    },
    {
      "midi": 53,
      "hit": false,
      "t": 51428.412000000084,
      "d": 1011.4764562500059,
      "v": 84
    },
    {
      "midi": 62,
      "hit": false,
      "t": 51466.6771875,
      "d": 144.13220624999667,
      "v": 1
    },
    {
      "midi": 67,
      "hit": false,
      "t": 51466.6771875,
      "d": 144.13220624999667,
      "v": 1
    },
    {
      "midi": 65,
      "hit": false,
      "t": 51613.360406249994,
      "d": 144.13220624999667,
      "v": 1
    },
    {
      "midi": 57,
      "hit": false,
      "t": 51734.533500000085,
      "d": 1036.9865812500066,
      "v": 90
    },
    {
      "midi": 62,
      "hit": false,
      "t": 51760.04362499999,
      "d": 890.3033625000025,
      "v": 1
    },
    {
      "midi": 65,
      "hit": false,
      "t": 52040.655000000086,
      "d": 1738.515018750004,
      "v": 90
    },
    {
      "midi": 62,
      "hit": false,
      "t": 52346.77650000009,
      "d": 635.2021125000028,
      "v": 90
    },
    {
      "midi": 62,
      "hit": false,
      "t": 52652.897999999994,
      "d": 1221.934987499997,
      "v": 1
    },
    {
      "midi": 65,
      "hit": false,
      "t": 52652.897999999994,
      "d": 1221.934987499997,
      "v": 1
    },
    {
      "midi": 50,
      "hit": false,
      "t": 52652.89800000009,
      "d": 1253.8226437500052,
      "v": 93
    },
    {
      "midi": 57,
      "hit": false,
      "t": 52959.01950000009,
      "d": 482.14136249999865,
      "v": 76
    },
    {
      "midi": 62,
      "hit": false,
      "t": 53265.14100000009,
      "d": 609.6919875000021,
      "v": 84
    },
    {
      "midi": 57,
      "hit": false,
      "t": 53571.26250000009,
      "d": 246.17270624999946,
      "v": 74
    },
    {
      "midi": 62,
      "hit": false,
      "t": 53877.38399999999,
      "d": 1221.934987499997,
      "v": 1
    },
    {
      "midi": 67,
      "hit": false,
      "t": 53877.38399999999,
      "d": 1221.934987499997,
      "v": 1
    },
    {
      "midi": 43,
      "hit": false,
      "t": 53877.38400000009,
      "d": 1241.0675812500049,
      "v": 99
    },
    {
      "midi": 58,
      "hit": false,
      "t": 54183.505500000094,
      "d": 966.8337375000046,
      "v": 90
    },
    {
      "midi": 62,
      "hit": false,
      "t": 54489.627000000095,
      "d": 698.9774250000046,
      "v": 93
    },
    {
      "midi": 67,
      "hit": false,
      "t": 54795.748500000096,
      "d": 386.4783937500033,
      "v": 102
    },
    {
      "midi": 63,
      "hit": false,
      "t": 55101.86999999999,
      "d": 1221.934987499997,
      "v": 1
    },
    {
      "midi": 67,
      "hit": false,
      "t": 55101.86999999999,
      "d": 1221.934987499997,
      "v": 1
    },
    {
      "midi": 48,
      "hit": false,
      "t": 55101.8700000001,
      "d": 1221.9349875000044,
      "v": 96
    },
    {
      "midi": 63,
      "hit": false,
      "t": 55407.9915000001,
      "d": 992.3438625000053,
      "v": 102
    },
    {
      "midi": 58,
      "hit": false,
      "t": 55714.1130000001,
      "d": 641.579643750003,
      "v": 105
    },
    {
      "midi": 55,
      "hit": false,
      "t": 56020.2345000001,
      "d": 329.08061250000173,
      "v": 93
    },
    {
      "midi": 60,
      "hit": false,
      "t": 56326.355999999985,
      "d": 1221.934987499997,
      "v": 1
    },
    {
      "midi": 65,
      "hit": false,
      "t": 56326.355999999985,
      "d": 1221.934987499997,
      "v": 1
    },
    {
      "midi": 41,
      "hit": false,
      "t": 56326.3560000001,
      "d": 1190.0473312500035,
      "v": 93
    },
    {
      "midi": 57,
      "hit": false,
      "t": 56632.4775000001,
      "d": 1119.8944875000016,
      "v": 108
    },
    {
      "midi": 60,
      "hit": false,
      "t": 56938.599000000104,
      "d": 545.9166750000004,
      "v": 90
    },
    {
      "midi": 65,
      "hit": false,
      "t": 57244.720500000105,
      "d": 845.6606437500013,
      "v": 99
    },
    {
      "midi": 62,
      "hit": false,
      "t": 57550.84199999998,
      "d": 1221.934987499997,
      "v": 1
    },
    {
      "midi": 65,
      "hit": false,
      "t": 57550.84199999998,
      "d": 1221.934987499997,
      "v": 1
    },
    {
      "midi": 62,
      "hit": false,
      "t": 57550.842000000106,
      "d": 316.3255500000014,
      "v": 99
    },
    {
      "midi": 46,
      "hit": false,
      "t": 57550.842000000106,
      "d": 775.5077999999994,
      "v": 93
    },
    {
      "midi": 57,
      "hit": false,
      "t": 57856.96350000011,
      "d": 552.2942062500006,
      "v": 93
    },
    {
      "midi": 62,
      "hit": false,
      "t": 58163.08500000011,
      "d": 565.0492687500009,
      "v": 96
    },
    {
      "midi": 46,
      "hit": false,
      "t": 58469.20650000011,
      "d": 309.9480187500012,
      "v": 105
    },
    {
      "midi": 57,
      "hit": false,
      "t": 58775.32799999998,
      "d": 2446.4209875000015,
      "v": 1
    },
    {
      "midi": 64,
      "hit": false,
      "t": 58775.32799999998,
      "d": 2446.4209875000015,
      "v": 1
    },
    {
      "midi": 57,
      "hit": false,
      "t": 58775.32800000011,
      "d": 565.0492687500009,
      "v": 88
    },
    {
      "midi": 62,
      "hit": false,
      "t": 58775.32800000011,
      "d": 743.6201437500058,
      "v": 88
    },
    {
      "midi": 45,
      "hit": false,
      "t": 59081.44950000011,
      "d": 1292.0878312500063,
      "v": 93
    },
    {
      "midi": 52,
      "hit": false,
      "t": 59387.57100000011,
      "d": 1419.6384562500025,
      "v": 88
    },
    {
      "midi": 62,
      "hit": false,
      "t": 59693.692500000114,
      "d": 233.41764374999912,
      "v": 93
    },
    {
      "midi": 61,
      "hit": false,
      "t": 59999.814000000115,
      "d": 1107.1394250000012,
      "v": 99
    },
    {
      "midi": 57,
      "hit": false,
      "t": 60305.935500000116,
      "d": 820.1505187500006,
      "v": 80
    },
    {
      "midi": 45,
      "hit": false,
      "t": 60612.05700000012,
      "d": 552.2942062500006,
      "v": 96
    },
    {
      "midi": 52,
      "hit": false,
      "t": 60918.17850000012,
      "d": 220.66258124999877,
      "v": 60
    },
    {
      "midi": 38,
      "hit": false,
      "t": 66122.244,
      "d": 195.15245624999807,
      "v": 117
    },
    {
      "midi": 26,
      "hit": false,
      "t": 66122.244,
      "d": 239.795174999992,
      "v": 111
    },
    {
      "midi": 38,
      "hit": false,
      "t": 67040.6085,
      "d": 207.90751874999842,
      "v": 114
    },
    {
      "midi": 26,
      "hit": false,
      "t": 67040.6085,
      "d": 246.17270624999946,
      "v": 120
    },
    {
      "midi": 31,
      "hit": false,
      "t": 68571.216,
      "d": 1253.822643749998,
      "v": 114
    },
    {
      "midi": 36,
      "hit": false,
      "t": 71020.188,
      "d": 1260.2001750000054,
      "v": 114
    },
    {
      "midi": 29,
      "hit": false,
      "t": 73469.16,
      "d": 1215.557456249997,
      "v": 108
    },
    {
      "midi": 67,
      "hit": false,
      "t": 74419.41215625012,
      "d": 137.75467499998922,
      "v": 55
    },
    {
      "midi": 53,
      "hit": false,
      "t": 74470.43240625013,
      "d": 1457.9036437499599,
      "v": 63
    },
    {
      "midi": 41,
      "hit": false,
      "t": 74489.56500000012,
      "d": 1368.618206249972,
      "v": 58
    },
    {
      "midi": 69,
      "hit": false,
      "t": 74515.07512500012,
      "d": 80.35689374999492,
      "v": 84
    },
    {
      "midi": 70,
      "hit": false,
      "t": 74585.22796875011,
      "d": 112.24454999998852,
      "v": 108
    },
    {
      "midi": 69,
      "hit": false,
      "t": 74693.64600000011,
      "d": 290.8154249999934,
      "v": 108
    },
    {
      "midi": 67,
      "hit": false,
      "t": 74999.7675000001,
      "d": 290.8154249999934,
      "v": 105
    },
    {
      "midi": 65,
      "hit": false,
      "t": 75305.8890000001,
      "d": 290.8154249999934,
      "v": 96
    },
    {
      "midi": 64,
      "hit": false,
      "t": 75612.01050000009,
      "d": 290.8154249999934,
      "v": 96
    },
    {
      "midi": 26,
      "hit": false,
      "t": 75918.132,
      "d": 679.8448312499968,
      "v": 108
    },
    {
      "midi": 38,
      "hit": false,
      "t": 75918.132,
      "d": 947.7011437499896,
      "v": 108
    },
    {
      "midi": 62,
      "hit": false,
      "t": 75918.13200000009,
      "d": 290.8154249999934,
      "v": 96
    },
    {
      "midi": 50,
      "hit": false,
      "t": 75918.13200000009,
      "d": 2293.360237499961,
      "v": 88
    },
    {
      "midi": 57,
      "hit": false,
      "t": 76224.25350000008,
      "d": 1024.231518749977,
      "v": 67
    },
    {
      "midi": 62,
      "hit": false,
      "t": 76530.37500000007,
      "d": 1668.362174999973,
      "v": 80
    },
    {
      "midi": 69,
      "hit": false,
      "t": 76836.49650000007,
      "d": 1381.3732687499723,
      "v": 96
    },
    {
      "midi": 67,
      "hit": false,
      "t": 77142.61800000006,
      "d": 718.1100187499833,
      "v": 80
    },
    {
      "midi": 57,
      "hit": false,
      "t": 77448.73950000005,
      "d": 807.3954562499857,
      "v": 65
    },
    {
      "midi": 65,
      "hit": false,
      "t": 77754.86100000005,
      "d": 501.2739562499919,
      "v": 72
    },
    {
      "midi": 31,
      "hit": false,
      "t": 78367.10399999999,
      "d": 1330.35301875,
      "v": 114
    },
    {
      "midi": 43,
      "hit": false,
      "t": 78367.10400000004,
      "d": 2306.115299999976,
      "v": 96
    },
    {
      "midi": 55,
      "hit": false,
      "t": 78673.22550000003,
      "d": 2031.8814562499756,
      "v": 84
    },
    {
      "midi": 62,
      "hit": false,
      "t": 78979.34700000002,
      "d": 1693.8722999999882,
      "v": 80
    },
    {
      "midi": 69,
      "hit": false,
      "t": 79285.46850000002,
      "d": 1394.1283312499872,
      "v": 80
    },
    {
      "midi": 67,
      "hit": false,
      "t": 79591.59000000001,
      "d": 622.4470500000025,
      "v": 84
    },
    {
      "midi": 65,
      "hit": false,
      "t": 80203.83300000001,
      "d": 475.7638312499912,
      "v": 93
    },
    {
      "midi": 36,
      "hit": false,
      "t": 80816.07599999999,
      "d": 1355.8631437500007,
      "v": 108
    },
    {
      "midi": 48,
      "hit": false,
      "t": 80816.076,
      "d": 1336.7305499999784,
      "v": 105
    },
    {
      "midi": 55,
      "hit": false,
      "t": 81122.1975,
      "d": 1968.1061437499884,
      "v": 80
    },
    {
      "midi": 60,
      "hit": false,
      "t": 81428.31899999999,
      "d": 922.1910187499889,
      "v": 84
    },
    {
      "midi": 67,
      "hit": false,
      "t": 81734.44049999998,
      "d": 1355.8631437500007,
      "v": 96
    },
    {
      "midi": 64,
      "hit": false,
      "t": 82040.56199999998,
      "d": 1062.4967062500073,
      "v": 82
    },
    {
      "midi": 48,
      "hit": false,
      "t": 82346.68349999998,
      "d": 781.8853312499996,
      "v": 82
    },
    {
      "midi": 60,
      "hit": false,
      "t": 82652.80499999998,
      "d": 437.4986437500047,
      "v": 99
    },
    {
      "midi": 33,
      "hit": false,
      "t": 83265.04799999998,
      "d": 271.68283125000016,
      "v": 111
    },
    {
      "midi": 33,
      "hit": false,
      "t": 83265.04799999998,
      "d": 329.08061249999446,
      "v": 105
    },
    {
      "midi": 45,
      "hit": false,
      "t": 83265.04799999998,
      "d": 335.45814374998736,
      "v": 111
    },
    {
      "midi": 33,
      "hit": false,
      "t": 83877.29099999997,
      "d": 322.70308125000156,
      "v": 105
    },
    {
      "midi": 45,
      "hit": false,
      "t": 83877.29099999997,
      "d": 335.4581437500019,
      "v": 102
    },
    {
      "midi": 33,
      "hit": false,
      "t": 83877.29099999998,
      "d": 360.9682687500026,
      "v": 117
    },
    {
      "midi": 33,
      "hit": false,
      "t": 84489.53399999997,
      "d": 322.70308125000156,
      "v": 108
    },
    {
      "midi": 45,
      "hit": false,
      "t": 84489.53399999997,
      "d": 335.4581437500019,
      "v": 108
    },
    {
      "midi": 33,
      "hit": false,
      "t": 84489.53399999999,
      "d": 360.9682687500026,
      "v": 120
    },
    {
      "midi": 33,
      "hit": false,
      "t": 85101.77699999997,
      "d": 322.70308125000156,
      "v": 108
    },
    {
      "midi": 45,
      "hit": false,
      "t": 85101.77699999997,
      "d": 367.3457999999955,
      "v": 108
    },
    {
      "midi": 33,
      "hit": false,
      "t": 85101.77699999999,
      "d": 341.8356749999948,
      "v": 120
    },
    {
      "midi": 50,
      "hit": false,
      "t": 85714.01999999997,
      "d": 1228.3125187499681,
      "v": 96
    },
    {
      "midi": 65,
      "hit": false,
      "t": 86020.14149999997,
      "d": 1477.0362374999822,
      "v": 102
    },
    {
      "midi": 57,
      "hit": false,
      "t": 86326.26299999996,
      "d": 737.2426124999765,
      "v": 105
    },
    {
      "midi": 62,
      "hit": false,
      "t": 86632.38449999996,
      "d": 609.6919874999876,
      "v": 93
    },
    {
      "midi": 46,
      "hit": false,
      "t": 86938.50599999995,
      "d": 1234.6900500000047,
      "v": 111
    },
    {
      "midi": 62,
      "hit": false,
      "t": 86938.50599999998,
      "d": 1528.0564874999982,
      "v": 1
    },
    {
      "midi": 65,
      "hit": false,
      "t": 86938.50599999998,
      "d": 1528.0564874999982,
      "v": 1
    },
    {
      "midi": 57,
      "hit": false,
      "t": 87244.62749999994,
      "d": 852.0381750000088,
      "v": 99
    },
    {
      "midi": 62,
      "hit": false,
      "t": 87550.74899999995,
      "d": 654.3347062499961,
      "v": 99
    },
    {
      "midi": 65,
      "hit": false,
      "t": 87856.87049999995,
      "d": 392.8559249999962,
      "v": 96
    },
    {
      "midi": 48,
      "hit": false,
      "t": 88162.99199999995,
      "d": 1228.3125187499681,
      "v": 105
    },
    {
      "midi": 67,
      "hit": false,
      "t": 88469.11349999995,
      "d": 2051.0140499999834,
      "v": 93
    },
    {
      "midi": 60,
      "hit": false,
      "t": 88469.11349999998,
      "d": 2140.2994875000004,
      "v": 1
    },
    {
      "midi": 64,
      "hit": false,
      "t": 88469.11349999998,
      "d": 2140.2994875000004,
      "v": 1
    },
    {
      "midi": 60,
      "hit": false,
      "t": 88775.23499999994,
      "d": 679.8448312499822,
      "v": 93
    },
    {
      "midi": 64,
      "hit": false,
      "t": 89081.35649999994,
      "d": 558.6717374999862,
      "v": 93
    },
    {
      "midi": 45,
      "hit": false,
      "t": 89387.47799999993,
      "d": 1145.4046125000023,
      "v": 96
    },
    {
      "midi": 60,
      "hit": false,
      "t": 89693.59949999992,
      "d": 405.61098749999655,
      "v": 96
    },
    {
      "midi": 64,
      "hit": false,
      "t": 89999.72099999992,
      "d": 507.6514875000139,
      "v": 96
    },
    {
      "midi": 60,
      "hit": false,
      "t": 90305.84249999993,
      "d": 188.77492500000517,
      "v": 96
    },
    {
      "midi": 46,
      "hit": false,
      "t": 90611.96399999993,
      "d": 1234.6900499999756,
      "v": 105
    },
    {
      "midi": 58,
      "hit": false,
      "t": 90611.96399999998,
      "d": 2491.0637062500027,
      "v": 1
    },
    {
      "midi": 62,
      "hit": false,
      "t": 90611.96399999998,
      "d": 2491.0637062500027,
      "v": 1
    },
    {
      "midi": 65,
      "hit": false,
      "t": 90918.08549999993,
      "d": 2082.9017062499624,
      "v": 105
    },
    {
      "midi": 58,
      "hit": false,
      "t": 91224.20699999992,
      "d": 679.8448312499822,
      "v": 93
    },
    {
      "midi": 62,
      "hit": false,
      "t": 91530.32849999992,
      "d": 622.4470499999879,
      "v": 96
    },
    {
      "midi": 43,
      "hit": false,
      "t": 91836.44999999991,
      "d": 1196.4248624999746,
      "v": 96
    },
    {
      "midi": 58,
      "hit": false,
      "t": 92142.5714999999,
      "d": 373.7233312499884,
      "v": 102
    },
    {
      "midi": 62,
      "hit": false,
      "t": 92448.6929999999,
      "d": 565.0492687499936,
      "v": 96
    },
    {
      "midi": 58,
      "hit": false,
      "t": 92754.81449999989,
      "d": 220.66258124999877,
      "v": 102
    },
    {
      "midi": 64,
      "hit": false,
      "t": 93060.93599999989,
      "d": 335.4581437500019,
      "v": 108
    },
    {
      "midi": 45,
      "hit": false,
      "t": 93060.93599999989,
      "d": 341.8356749999948,
      "v": 105
    },
    {
      "midi": 62,
      "hit": false,
      "t": 93060.93599999989,
      "d": 341.8356749999948,
      "v": 114
    },
    {
      "midi": 57,
      "hit": false,
      "t": 93060.93599999989,
      "d": 348.2132062499877,
      "v": 108
    },
    {
      "midi": 57,
      "hit": false,
      "t": 93105.57871874998,
      "d": 2440.0434562500013,
      "v": 1
    },
    {
      "midi": 64,
      "hit": false,
      "t": 93105.57871874998,
      "d": 2440.0434562500013,
      "v": 1
    },
    {
      "midi": 45,
      "hit": false,
      "t": 93673.17899999987,
      "d": 297.19295625000086,
      "v": 117
    },
    {
      "midi": 64,
      "hit": false,
      "t": 93673.17899999987,
      "d": 297.19295625000086,
      "v": 114
    },
    {
      "midi": 57,
      "hit": false,
      "t": 93673.17899999987,
      "d": 303.57048749999376,
      "v": 108
    },
    {
      "midi": 62,
      "hit": false,
      "t": 93673.17899999987,
      "d": 303.57048749999376,
      "v": 111
    },
    {
      "midi": 64,
      "hit": false,
      "t": 94285.42199999986,
      "d": 348.21320625000226,
      "v": 120
    },
    {
      "midi": 43,
      "hit": false,
      "t": 94285.42199999986,
      "d": 354.59073749999516,
      "v": 108
    },
    {
      "midi": 57,
      "hit": false,
      "t": 94285.42199999986,
      "d": 354.59073749999516,
      "v": 114
    },
    {
      "midi": 62,
      "hit": false,
      "t": 94285.42199999986,
      "d": 354.59073749999516,
      "v": 117
    },
    {
      "midi": 64,
      "hit": false,
      "t": 94897.66499999986,
      "d": 354.59073749999516,
      "v": 117
    },
    {
      "midi": 57,
      "hit": false,
      "t": 94897.66499999986,
      "d": 360.96826874998806,
      "v": 117
    },
    {
      "midi": 62,
      "hit": false,
      "t": 94897.66499999986,
      "d": 367.34579999998095,
      "v": 120
    },
    {
      "midi": 43,
      "hit": false,
      "t": 94897.66499999986,
      "d": 380.1008624999813,
      "v": 114
    },
    {
      "midi": 53,
      "hit": false,
      "t": 95509.90799999985,
      "d": 1011.4764562499768,
      "v": 84
    },
    {
      "midi": 62,
      "hit": false,
      "t": 95548.17318749998,
      "d": 144.13220624999667,
      "v": 1
    },
    {
      "midi": 67,
      "hit": false,
      "t": 95548.17318749998,
      "d": 144.13220624999667,
      "v": 1
    },
    {
      "midi": 65,
      "hit": false,
      "t": 95694.85640624998,
      "d": 144.13220624999667,
      "v": 1
    },
    {
      "midi": 57,
      "hit": false,
      "t": 95816.02949999984,
      "d": 1036.9865812499775,
      "v": 90
    },
    {
      "midi": 62,
      "hit": false,
      "t": 95841.53962499998,
      "d": 890.3033624999953,
      "v": 1
    },
    {
      "midi": 65,
      "hit": false,
      "t": 96122.15099999984,
      "d": 1738.5150187499821,
      "v": 90
    },
    {
      "midi": 62,
      "hit": false,
      "t": 96428.27249999983,
      "d": 635.2021124999883,
      "v": 90
    },
    {
      "midi": 50,
      "hit": false,
      "t": 96734.39399999983,
      "d": 1253.8226437499834,
      "v": 93
    },
    {
      "midi": 62,
      "hit": false,
      "t": 96734.39399999997,
      "d": 1221.9349875000044,
      "v": 1
    },
    {
      "midi": 65,
      "hit": false,
      "t": 96734.39399999997,
      "d": 1221.9349875000044,
      "v": 1
    },
    {
      "midi": 57,
      "hit": false,
      "t": 97040.51549999982,
      "d": 482.14136249999865,
      "v": 76
    },
    {
      "midi": 62,
      "hit": false,
      "t": 97346.63699999981,
      "d": 609.6919875000021,
      "v": 84
    },
    {
      "midi": 57,
      "hit": false,
      "t": 97652.75849999982,
      "d": 246.17270624999946,
      "v": 74
    },
    {
      "midi": 43,
      "hit": false,
      "t": 97958.87999999982,
      "d": 1241.0675812499685,
      "v": 99
    },
    {
      "midi": 62,
      "hit": false,
      "t": 97958.87999999998,
      "d": 1221.9349875000044,
      "v": 1
    },
    {
      "midi": 67,
      "hit": false,
      "t": 97958.87999999998,
      "d": 1221.9349875000044,
      "v": 1
    },
    {
      "midi": 58,
      "hit": false,
      "t": 98265.00149999981,
      "d": 966.8337374999683,
      "v": 90
    },
    {
      "midi": 62,
      "hit": false,
      "t": 98571.1229999998,
      "d": 698.9774249999609,
      "v": 93
    },
    {
      "midi": 67,
      "hit": false,
      "t": 98877.2444999998,
      "d": 386.4783937499742,
      "v": 102
    },
    {
      "midi": 48,
      "hit": false,
      "t": 99183.36599999979,
      "d": 1221.9349874999607,
      "v": 96
    },
    {
      "midi": 63,
      "hit": false,
      "t": 99183.36599999998,
      "d": 1221.9349875000044,
      "v": 1
    },
    {
      "midi": 67,
      "hit": false,
      "t": 99183.36599999998,
      "d": 1221.9349875000044,
      "v": 1
    },
    {
      "midi": 63,
      "hit": false,
      "t": 99489.48749999977,
      "d": 992.343862499969,
      "v": 102
    },
    {
      "midi": 58,
      "hit": false,
      "t": 99795.60899999976,
      "d": 641.5796437499812,
      "v": 105
    },
    {
      "midi": 55,
      "hit": false,
      "t": 100101.73049999976,
      "d": 329.08061249999446,
      "v": 93
    },
    {
      "midi": 41,
      "hit": false,
      "t": 100407.85199999975,
      "d": 1190.0473312499817,
      "v": 93
    },
    {
      "midi": 60,
      "hit": false,
      "t": 100407.85199999998,
      "d": 1221.9349875000044,
      "v": 1
    },
    {
      "midi": 65,
      "hit": false,
      "t": 100407.85199999998,
      "d": 1221.9349875000044,
      "v": 1
    },
    {
      "midi": 57,
      "hit": false,
      "t": 100713.97349999975,
      "d": 1119.894487499987,
      "v": 108
    },
    {
      "midi": 60,
      "hit": false,
      "t": 101020.09499999974,
      "d": 545.9166750000004,
      "v": 90
    },
    {
      "midi": 65,
      "hit": false,
      "t": 101326.21649999973,
      "d": 845.6606437500013,
      "v": 99
    },
    {
      "midi": 62,
      "hit": false,
      "t": 101632.33799999973,
      "d": 316.32555000000866,
      "v": 99
    },
    {
      "midi": 46,
      "hit": false,
      "t": 101632.33799999973,
      "d": 775.5078000000067,
      "v": 93
    },
    {
      "midi": 62,
      "hit": false,
      "t": 101632.33799999999,
      "d": 1221.9349875000044,
      "v": 1
    },
    {
      "midi": 65,
      "hit": false,
      "t": 101632.33799999999,
      "d": 1221.9349875000044,
      "v": 1
    },
    {
      "midi": 57,
      "hit": false,
      "t": 101938.45949999974,
      "d": 552.2942062499933,
      "v": 93
    },
    {
      "midi": 62,
      "hit": false,
      "t": 102244.58099999973,
      "d": 565.0492687499936,
      "v": 96
    },
    {
      "midi": 46,
      "hit": false,
      "t": 102550.70249999972,
      "d": 309.94801874998666,
      "v": 105
    },
    {
      "midi": 57,
      "hit": false,
      "t": 102856.82399999972,
      "d": 565.0492687499936,
      "v": 88
    },
    {
      "midi": 62,
      "hit": false,
      "t": 102856.82399999972,
      "d": 743.620143749984,
      "v": 88
    },
    {
      "midi": 57,
      "hit": false,
      "t": 102856.824,
      "d": 2446.420987499994,
      "v": 1
    },
    {
      "midi": 64,
      "hit": false,
      "t": 102856.824,
      "d": 2446.420987499994,
      "v": 1
    },
    {
      "midi": 45,
      "hit": false,
      "t": 103162.94549999971,
      "d": 1292.08783124997,
      "v": 93
    },
    {
      "midi": 52,
      "hit": false,
      "t": 103469.0669999997,
      "d": 1419.6384562499734,
      "v": 88
    },
    {
      "midi": 62,
      "hit": false,
      "t": 103775.1884999997,
      "d": 233.41764374999912,
      "v": 93
    },
    {
      "midi": 61,
      "hit": false,
      "t": 104081.30999999969,
      "d": 1107.1394249999867,
      "v": 99
    },
    {
      "midi": 57,
      "hit": false,
      "t": 104387.43149999969,
      "d": 820.1505187499861,
      "v": 80
    },
    {
      "midi": 45,
      "hit": false,
      "t": 104693.55299999968,
      "d": 552.2942062499933,
      "v": 96
    },
    {
      "midi": 52,
      "hit": false,
      "t": 104999.67449999967,
      "d": 220.66258124999877,
      "v": 60
    },
    {
      "midi": 38,
      "hit": false,
      "t": 110050.67924999967,
      "d": 2191.319737500002,
      "v": 86
    },
    {
      "midi": 43,
      "hit": false,
      "t": 110101.69949999967,
      "d": 2210.452331249995,
      "v": 96
    },
    {
      "midi": 48,
      "hit": false,
      "t": 110152.71974999967,
      "d": 2178.564674999987,
      "v": 96
    },
    {
      "midi": 53,
      "hit": false,
      "t": 110203.73999999967,
      "d": 2255.095049999989,
      "v": 99
    },
    {
      "midi": 57,
      "hit": false,
      "t": 110254.76024999967,
      "d": 2127.5444249999855,
      "v": 96
    },
    {
      "midi": 62,
      "hit": false,
      "t": 110305.78049999967,
      "d": 2197.69726874998,
      "v": 102
    },
    {
      "midi": 43,
      "hit": false,
      "t": 112550.67149999965,
      "d": 2210.4523312500096,
      "v": 80
    },
    {
      "midi": 53,
      "hit": false,
      "t": 112601.69174999965,
      "d": 2191.319737500002,
      "v": 84
    },
    {
      "midi": 55,
      "hit": false,
      "t": 112652.71199999965,
      "d": 2191.319737500002,
      "v": 84
    },
    {
      "midi": 58,
      "hit": false,
      "t": 112703.73224999965,
      "d": 2178.5646750000014,
      "v": 78
    },
    {
      "midi": 62,
      "hit": false,
      "t": 112754.75249999965,
      "d": 2216.8298625000025,
      "v": 86
    },
    {
      "midi": 48,
      "hit": false,
      "t": 114999.64349999966,
      "d": 1049.7416437499924,
      "v": 86
    },
    {
      "midi": 55,
      "hit": false,
      "t": 115050.66374999966,
      "d": 507.65148749999935,
      "v": 84
    },
    {
      "midi": 60,
      "hit": false,
      "t": 115101.68399999966,
      "d": 4397.94554999996,
      "v": 80
    },
    {
      "midi": 65,
      "hit": false,
      "t": 115152.70424999966,
      "d": 903.0584249999811,
      "v": 86
    },
    {
      "midi": 55,
      "hit": false,
      "t": 115713.92699999966,
      "d": 1119.8944874999725,
      "v": 50
    },
    {
      "midi": 64,
      "hit": false,
      "t": 116020.04849999966,
      "d": 1451.5261124999815,
      "v": 78
    },
    {
      "midi": 48,
      "hit": false,
      "t": 116326.16999999963,
      "d": 1215.557456249997,
      "v": 70
    },
    {
      "midi": 41,
      "hit": false,
      "t": 117499.63574999964,
      "d": 1942.5960187499877,
      "v": 96
    },
    {
      "midi": 57,
      "hit": false,
      "t": 117550.65599999962,
      "d": 1936.2184874999948,
      "v": 82
    },
    {
      "midi": 64,
      "hit": false,
      "t": 117601.67624999963,
      "d": 1942.5960187499877,
      "v": 78
    },
    {
      "midi": 50,
      "hit": false,
      "t": 119999.62799999962,
      "d": 2293.360237499961,
      "v": 88
    },
    {
      "midi": 26,
      "hit": false,
      "t": 119999.62799999997,
      "d": 679.8448312499968,
      "v": 108
    },
    {
      "midi": 38,
      "hit": false,
      "t": 119999.62799999997,
      "d": 947.7011437499896,
      "v": 108
    },
    {
      "midi": 57,
      "hit": false,
      "t": 120305.74949999961,
      "d": 1024.231518749977,
      "v": 67
    },
    {
      "midi": 62,
      "hit": false,
      "t": 120611.8709999996,
      "d": 1668.362174999973,
      "v": 80
    },
    {
      "midi": 69,
      "hit": false,
      "t": 120917.9924999996,
      "d": 1381.3732687499723,
      "v": 96
    },
    {
      "midi": 67,
      "hit": false,
      "t": 121224.1139999996,
      "d": 718.1100187499833,
      "v": 80
    },
    {
      "midi": 57,
      "hit": false,
      "t": 121530.23549999959,
      "d": 807.3954562499857,
      "v": 65
    },
    {
      "midi": 65,
      "hit": false,
      "t": 121836.35699999958,
      "d": 501.2739562499919,
      "v": 72
    },
    {
      "midi": 43,
      "hit": false,
      "t": 122448.59999999957,
      "d": 2306.115299999976,
      "v": 96
    },
    {
      "midi": 31,
      "hit": false,
      "t": 122448.59999999996,
      "d": 1330.35301875,
      "v": 114
    },
    {
      "midi": 55,
      "hit": false,
      "t": 122754.72149999956,
      "d": 2031.8814562499756,
      "v": 84
    },
    {
      "midi": 62,
      "hit": false,
      "t": 123060.84299999956,
      "d": 1693.8722999999882,
      "v": 80
    },
    {
      "midi": 69,
      "hit": false,
      "t": 123366.96449999955,
      "d": 1394.1283312499872,
      "v": 80
    },
    {
      "midi": 67,
      "hit": false,
      "t": 123673.08599999954,
      "d": 622.4470500000025,
      "v": 84
    },
    {
      "midi": 62,
      "hit": false,
      "t": 123685.8410625,
      "d": 341.8356749999948,
      "v": 1
    },
    {
      "midi": 65,
      "hit": false,
      "t": 124004.71762499999,
      "d": 290.8154249999934,
      "v": 1
    },
    {
      "midi": 65,
      "hit": false,
      "t": 124285.32899999955,
      "d": 475.7638312499912,
      "v": 93
    },
    {
      "midi": 62,
      "hit": false,
      "t": 124291.70653124999,
      "d": 297.1929562499863,
      "v": 1
    },
    {
      "midi": 67,
      "hit": false,
      "t": 124591.45049999998,
      "d": 1030.6090499999991,
      "v": 1
    },
    {
      "midi": 48,
      "hit": false,
      "t": 124897.57199999953,
      "d": 1336.7305499999784,
      "v": 105
    },
    {
      "midi": 36,
      "hit": false,
      "t": 124897.57199999996,
      "d": 1355.8631437500007,
      "v": 108
    },
    {
      "midi": 55,
      "hit": false,
      "t": 125203.69349999953,
      "d": 1968.1061437499884,
      "v": 80
    },
    {
      "midi": 60,
      "hit": false,
      "t": 125509.81499999952,
      "d": 922.1910187499889,
      "v": 84
    },
    {
      "midi": 67,
      "hit": false,
      "t": 125815.93649999952,
      "d": 1355.8631437500007,
      "v": 96
    },
    {
      "midi": 64,
      "hit": false,
      "t": 126122.05799999951,
      "d": 1062.4967062500073,
      "v": 82
    },
    {
      "midi": 48,
      "hit": false,
      "t": 126428.17949999952,
      "d": 781.8853312499996,
      "v": 82
    },
    {
      "midi": 60,
      "hit": false,
      "t": 126734.30099999951,
      "d": 437.4986437500047,
      "v": 99
    },
    {
      "midi": 33,
      "hit": false,
      "t": 127346.54399999951,
      "d": 271.68283125000016,
      "v": 111
    },
    {
      "midi": 33,
      "hit": false,
      "t": 127346.54399999995,
      "d": 329.08061249999446,
      "v": 105
    },
    {
      "midi": 45,
      "hit": false,
      "t": 127346.54399999995,
      "d": 335.45814374998736,
      "v": 111
    },
    {
      "midi": 33,
      "hit": false,
      "t": 127958.78699999952,
      "d": 360.9682687500026,
      "v": 117
    },
    {
      "midi": 33,
      "hit": false,
      "t": 127958.78699999994,
      "d": 322.70308125000156,
      "v": 105
    },
    {
      "midi": 45,
      "hit": false,
      "t": 127958.78699999994,
      "d": 335.4581437500019,
      "v": 102
    },
    {
      "midi": 33,
      "hit": false,
      "t": 128571.02999999952,
      "d": 360.9682687500026,
      "v": 120
    },
    {
      "midi": 33,
      "hit": false,
      "t": 128571.02999999994,
      "d": 322.70308125000156,
      "v": 108
    },
    {
      "midi": 45,
      "hit": false,
      "t": 128571.02999999994,
      "d": 335.4581437500019,
      "v": 108
    },
    {
      "midi": 33,
      "hit": false,
      "t": 129183.27299999952,
      "d": 341.8356749999948,
      "v": 120
    },
    {
      "midi": 33,
      "hit": false,
      "t": 129183.27299999994,
      "d": 322.70308125000156,
      "v": 108
    },
    {
      "midi": 45,
      "hit": false,
      "t": 129183.27299999994,
      "d": 367.3457999999955,
      "v": 108
    },
    {
      "midi": 50,
      "hit": false,
      "t": 129795.51599999951,
      "d": 1228.3125187499681,
      "v": 96
    },
    {
      "midi": 65,
      "hit": false,
      "t": 130101.6374999995,
      "d": 1477.0362374999531,
      "v": 102
    },
    {
      "midi": 57,
      "hit": false,
      "t": 130407.7589999995,
      "d": 737.2426124999765,
      "v": 105
    },
    {
      "midi": 62,
      "hit": false,
      "t": 130713.88049999949,
      "d": 609.6919874999876,
      "v": 93
    },
    {
      "midi": 46,
      "hit": false,
      "t": 131020.00199999948,
      "d": 1234.6900499999756,
      "v": 111
    },
    {
      "midi": 62,
      "hit": false,
      "t": 131020.00199999998,
      "d": 1528.0564874999982,
      "v": 1
    },
    {
      "midi": 65,
      "hit": false,
      "t": 131020.00199999998,
      "d": 1528.0564874999982,
      "v": 1
    },
    {
      "midi": 57,
      "hit": false,
      "t": 131326.12349999946,
      "d": 852.0381749999942,
      "v": 99
    },
    {
      "midi": 62,
      "hit": false,
      "t": 131632.24499999944,
      "d": 654.3347062500252,
      "v": 99
    },
    {
      "midi": 65,
      "hit": false,
      "t": 131938.36649999945,
      "d": 392.85592500001076,
      "v": 96
    },
    {
      "midi": 48,
      "hit": false,
      "t": 132244.48799999946,
      "d": 1228.3125187500264,
      "v": 105
    },
    {
      "midi": 67,
      "hit": false,
      "t": 132550.60949999947,
      "d": 2051.014049999969,
      "v": 93
    },
    {
      "midi": 60,
      "hit": false,
      "t": 132550.60949999996,
      "d": 2140.299487499986,
      "v": 1
    },
    {
      "midi": 64,
      "hit": false,
      "t": 132550.60949999996,
      "d": 2140.299487499986,
      "v": 1
    },
    {
      "midi": 60,
      "hit": false,
      "t": 132856.73099999948,
      "d": 679.8448312499968,
      "v": 93
    },
    {
      "midi": 64,
      "hit": false,
      "t": 133162.85249999948,
      "d": 558.6717375000007,
      "v": 93
    },
    {
      "midi": 45,
      "hit": false,
      "t": 133468.9739999995,
      "d": 1145.4046124999295,
      "v": 96
    },
    {
      "midi": 60,
      "hit": false,
      "t": 133775.09549999947,
      "d": 405.61098749999655,
      "v": 96
    },
    {
      "midi": 64,
      "hit": false,
      "t": 134081.21699999948,
      "d": 507.65148749997024,
      "v": 96
    },
    {
      "midi": 60,
      "hit": false,
      "t": 134387.33849999946,
      "d": 188.77492500000517,
      "v": 96
    },
    {
      "midi": 46,
      "hit": false,
      "t": 134693.4599999994,
      "d": 1234.6900500000338,
      "v": 105
    },
    {
      "midi": 58,
      "hit": false,
      "t": 134693.45999999993,
      "d": 2491.063706249988,
      "v": 1
    },
    {
      "midi": 62,
      "hit": false,
      "t": 134693.45999999993,
      "d": 2491.063706249988,
      "v": 1
    },
    {
      "midi": 65,
      "hit": false,
      "t": 134999.58149999942,
      "d": 2082.9017062500643,
      "v": 105
    },
    {
      "midi": 58,
      "hit": false,
      "t": 135305.70299999943,
      "d": 679.8448312500259,
      "v": 93
    },
    {
      "midi": 62,
      "hit": false,
      "t": 135611.82449999943,
      "d": 622.447050000017,
      "v": 96
    },
    {
      "midi": 43,
      "hit": false,
      "t": 135917.94599999944,
      "d": 1196.4248625000182,
      "v": 96
    },
    {
      "midi": 58,
      "hit": false,
      "t": 136224.06749999945,
      "d": 373.7233312500175,
      "v": 102
    },
    {
      "midi": 62,
      "hit": false,
      "t": 136530.18899999946,
      "d": 565.0492687500082,
      "v": 96
    },
    {
      "midi": 58,
      "hit": false,
      "t": 136836.31049999947,
      "d": 220.66258125001332,
      "v": 102
    },
    {
      "midi": 64,
      "hit": false,
      "t": 137142.43199999945,
      "d": 335.4581437500019,
      "v": 108
    },
    {
      "midi": 45,
      "hit": false,
      "t": 137142.43199999945,
      "d": 341.83567500000936,
      "v": 105
    },
    {
      "midi": 62,
      "hit": false,
      "t": 137142.43199999945,
      "d": 341.83567500000936,
      "v": 114
    },
    {
      "midi": 57,
      "hit": false,
      "t": 137142.43199999945,
      "d": 348.2132062500168,
      "v": 108
    },
    {
      "midi": 57,
      "hit": false,
      "t": 137187.0747187499,
      "d": 2440.043456249987,
      "v": 1
    },
    {
      "midi": 64,
      "hit": false,
      "t": 137187.0747187499,
      "d": 2440.043456249987,
      "v": 1
    },
    {
      "midi": 45,
      "hit": false,
      "t": 137754.67499999946,
      "d": 297.1929562499863,
      "v": 117
    },
    {
      "midi": 64,
      "hit": false,
      "t": 137754.67499999946,
      "d": 297.1929562499863,
      "v": 114
    },
    {
      "midi": 57,
      "hit": false,
      "t": 137754.67499999946,
      "d": 303.57048749999376,
      "v": 108
    },
    {
      "midi": 62,
      "hit": false,
      "t": 137754.67499999946,
      "d": 303.57048749999376,
      "v": 111
    },
    {
      "midi": 64,
      "hit": false,
      "t": 138366.91799999945,
      "d": 348.2132062499877,
      "v": 120
    },
    {
      "midi": 43,
      "hit": false,
      "t": 138366.91799999945,
      "d": 354.59073749999516,
      "v": 108
    },
    {
      "midi": 57,
      "hit": false,
      "t": 138366.91799999945,
      "d": 354.59073749999516,
      "v": 114
    },
    {
      "midi": 62,
      "hit": false,
      "t": 138366.91799999945,
      "d": 354.59073749999516,
      "v": 117
    },
    {
      "midi": 64,
      "hit": false,
      "t": 138979.16099999944,
      "d": 354.59073749999516,
      "v": 117
    },
    {
      "midi": 57,
      "hit": false,
      "t": 138979.16099999944,
      "d": 360.9682687500026,
      "v": 117
    },
    {
      "midi": 62,
      "hit": false,
      "t": 138979.16099999944,
      "d": 367.34580000001006,
      "v": 120
    },
    {
      "midi": 43,
      "hit": false,
      "t": 138979.16099999944,
      "d": 380.10086249999586,
      "v": 114
    },
    {
      "midi": 53,
      "hit": false,
      "t": 139591.40399999943,
      "d": 1011.476456250035,
      "v": 84
    },
    {
      "midi": 62,
      "hit": false,
      "t": 139629.66918749988,
      "d": 144.13220625001122,
      "v": 1
    },
    {
      "midi": 67,
      "hit": false,
      "t": 139629.66918749988,
      "d": 144.13220625001122,
      "v": 1
    },
    {
      "midi": 65,
      "hit": false,
      "t": 139776.35240624988,
      "d": 144.13220625001122,
      "v": 1
    },
    {
      "midi": 57,
      "hit": false,
      "t": 139897.52549999944,
      "d": 1036.9865812500357,
      "v": 90
    },
    {
      "midi": 62,
      "hit": false,
      "t": 139923.03562499987,
      "d": 890.3033625000098,
      "v": 1
    },
    {
      "midi": 65,
      "hit": false,
      "t": 140203.64699999944,
      "d": 1738.5150187499821,
      "v": 90
    },
    {
      "midi": 62,
      "hit": false,
      "t": 140509.76849999945,
      "d": 635.2021125000028,
      "v": 90
    },
    {
      "midi": 50,
      "hit": false,
      "t": 140815.88999999946,
      "d": 1253.8226437499397,
      "v": 93
    },
    {
      "midi": 62,
      "hit": false,
      "t": 140815.88999999987,
      "d": 1221.9349874999898,
      "v": 1
    },
    {
      "midi": 65,
      "hit": false,
      "t": 140815.88999999987,
      "d": 1221.9349874999898,
      "v": 1
    },
    {
      "midi": 57,
      "hit": false,
      "t": 141122.01149999947,
      "d": 482.14136249996955,
      "v": 76
    },
    {
      "midi": 62,
      "hit": false,
      "t": 141428.13299999945,
      "d": 609.691987499973,
      "v": 84
    },
    {
      "midi": 57,
      "hit": false,
      "t": 141734.25449999943,
      "d": 246.1727062499849,
      "v": 74
    },
    {
      "midi": 43,
      "hit": false,
      "t": 142040.3759999994,
      "d": 1241.0675812500122,
      "v": 99
    },
    {
      "midi": 62,
      "hit": false,
      "t": 142040.37599999984,
      "d": 1221.9349874999898,
      "v": 1
    },
    {
      "midi": 67,
      "hit": false,
      "t": 142040.37599999984,
      "d": 1221.9349874999898,
      "v": 1
    },
    {
      "midi": 58,
      "hit": false,
      "t": 142346.4974999994,
      "d": 966.833737500041,
      "v": 90
    },
    {
      "midi": 62,
      "hit": false,
      "t": 142652.6189999994,
      "d": 698.9774250000482,
      "v": 93
    },
    {
      "midi": 67,
      "hit": false,
      "t": 142958.7404999994,
      "d": 386.4783937500324,
      "v": 102
    },
    {
      "midi": 48,
      "hit": false,
      "t": 143264.8619999994,
      "d": 1221.934987500048,
      "v": 96
    },
    {
      "midi": 63,
      "hit": false,
      "t": 143264.86199999982,
      "d": 1221.9349874999898,
      "v": 1
    },
    {
      "midi": 67,
      "hit": false,
      "t": 143264.86199999982,
      "d": 1221.9349874999898,
      "v": 1
    },
    {
      "midi": 63,
      "hit": false,
      "t": 143570.98349999945,
      "d": 992.3438624999835,
      "v": 102
    },
    {
      "midi": 58,
      "hit": false,
      "t": 143877.10499999946,
      "d": 641.5796437499812,
      "v": 105
    },
    {
      "midi": 55,
      "hit": false,
      "t": 144183.22649999947,
      "d": 329.08061249996535,
      "v": 93
    },
    {
      "midi": 41,
      "hit": false,
      "t": 144489.34799999945,
      "d": 1190.0473312500108,
      "v": 93
    },
    {
      "midi": 60,
      "hit": false,
      "t": 144489.3479999998,
      "d": 1221.9349874999898,
      "v": 1
    },
    {
      "midi": 65,
      "hit": false,
      "t": 144489.3479999998,
      "d": 1221.9349874999898,
      "v": 1
    },
    {
      "midi": 57,
      "hit": false,
      "t": 144795.46949999942,
      "d": 1119.894487500016,
      "v": 108
    },
    {
      "midi": 60,
      "hit": false,
      "t": 145101.59099999943,
      "d": 545.916675000015,
      "v": 90
    },
    {
      "midi": 65,
      "hit": false,
      "t": 145407.71249999944,
      "d": 845.6606437499868,
      "v": 99
    },
    {
      "midi": 62,
      "hit": false,
      "t": 145713.83399999945,
      "d": 316.32554999997956,
      "v": 99
    },
    {
      "midi": 46,
      "hit": false,
      "t": 145713.83399999945,
      "d": 775.5077999999921,
      "v": 93
    },
    {
      "midi": 62,
      "hit": false,
      "t": 145713.83399999977,
      "d": 1221.9349874999898,
      "v": 1
    },
    {
      "midi": 65,
      "hit": false,
      "t": 145713.83399999977,
      "d": 1221.9349874999898,
      "v": 1
    },
    {
      "midi": 57,
      "hit": false,
      "t": 146019.95549999943,
      "d": 552.2942062500224,
      "v": 93
    },
    {
      "midi": 62,
      "hit": false,
      "t": 146326.07699999944,
      "d": 565.0492687500082,
      "v": 96
    },
    {
      "midi": 46,
      "hit": false,
      "t": 146632.19849999945,
      "d": 309.9480187500012,
      "v": 105
    },
    {
      "midi": 57,
      "hit": false,
      "t": 146938.31999999945,
      "d": 565.0492687499791,
      "v": 88
    },
    {
      "midi": 62,
      "hit": false,
      "t": 146938.31999999945,
      "d": 743.620143749984,
      "v": 88
    },
    {
      "midi": 57,
      "hit": false,
      "t": 146938.31999999975,
      "d": 2446.420987499994,
      "v": 1
    },
    {
      "midi": 64,
      "hit": false,
      "t": 146938.31999999975,
      "d": 2446.420987499994,
      "v": 1
    },
    {
      "midi": 45,
      "hit": false,
      "t": 147244.44149999943,
      "d": 1292.0878312500427,
      "v": 93
    },
    {
      "midi": 52,
      "hit": false,
      "t": 147550.56299999944,
      "d": 1419.6384562500461,
      "v": 88
    },
    {
      "midi": 62,
      "hit": false,
      "t": 147856.68449999945,
      "d": 233.41764374999912,
      "v": 93
    },
    {
      "midi": 61,
      "hit": false,
      "t": 148162.80599999946,
      "d": 1107.1394250000303,
      "v": 99
    },
    {
      "midi": 57,
      "hit": false,
      "t": 148468.92749999947,
      "d": 820.1505187500152,
      "v": 80
    },
    {
      "midi": 45,
      "hit": false,
      "t": 148775.04899999948,
      "d": 552.2942062499933,
      "v": 96
    },
    {
      "midi": 52,
      "hit": false,
      "t": 149081.17049999948,
      "d": 220.6625812499842,
      "v": 60
    },
    {
      "midi": 50,
      "hit": false,
      "t": 149387.29199999946,
      "d": 1228.3125187500264,
      "v": 96
    },
    {
      "midi": 65,
      "hit": false,
      "t": 149693.41349999947,
      "d": 1477.0362374999968,
      "v": 102
    },
    {
      "midi": 57,
      "hit": false,
      "t": 149999.53499999948,
      "d": 737.2426125000056,
      "v": 105
    },
    {
      "midi": 62,
      "hit": false,
      "t": 150305.6564999995,
      "d": 609.6919875000021,
      "v": 93
    },
    {
      "midi": 46,
      "hit": false,
      "t": 150611.7779999995,
      "d": 1234.6900499999756,
      "v": 111
    },
    {
      "midi": 62,
      "hit": false,
      "t": 150611.77799999973,
      "d": 1528.0564874999982,
      "v": 1
    },
    {
      "midi": 65,
      "hit": false,
      "t": 150611.77799999973,
      "d": 1528.0564874999982,
      "v": 1
    },
    {
      "midi": 57,
      "hit": false,
      "t": 150917.89949999948,
      "d": 852.0381749999942,
      "v": 99
    },
    {
      "midi": 62,
      "hit": false,
      "t": 151224.02099999945,
      "d": 654.3347062500252,
      "v": 99
    },
    {
      "midi": 65,
      "hit": false,
      "t": 151530.14249999946,
      "d": 392.85592500001076,
      "v": 96
    },
    {
      "midi": 48,
      "hit": false,
      "t": 151836.26399999947,
      "d": 1228.3125187500264,
      "v": 105
    },
    {
      "midi": 67,
      "hit": false,
      "t": 152142.38549999948,
      "d": 2051.014049999969,
      "v": 93
    },
    {
      "midi": 60,
      "hit": false,
      "t": 152142.3854999997,
      "d": 2140.299487499986,
      "v": 1
    },
    {
      "midi": 64,
      "hit": false,
      "t": 152142.3854999997,
      "d": 2140.299487499986,
      "v": 1
    },
    {
      "midi": 60,
      "hit": false,
      "t": 152448.5069999995,
      "d": 679.8448312499968,
      "v": 93
    },
    {
      "midi": 64,
      "hit": false,
      "t": 152754.6284999995,
      "d": 558.6717375000007,
      "v": 93
    },
    {
      "midi": 45,
      "hit": false,
      "t": 153060.7499999995,
      "d": 1145.4046124999295,
      "v": 96
    },
    {
      "midi": 60,
      "hit": false,
      "t": 153366.87149999948,
      "d": 405.61098749999655,
      "v": 96
    },
    {
      "midi": 64,
      "hit": false,
      "t": 153672.9929999995,
      "d": 507.65148749997024,
      "v": 96
    },
    {
      "midi": 60,
      "hit": false,
      "t": 153979.11449999947,
      "d": 188.77492500000517,
      "v": 96
    },
    {
      "midi": 46,
      "hit": false,
      "t": 154285.23599999942,
      "d": 1234.6900500000338,
      "v": 105
    },
    {
      "midi": 58,
      "hit": false,
      "t": 154285.23599999968,
      "d": 2491.063706249988,
      "v": 1
    },
    {
      "midi": 62,
      "hit": false,
      "t": 154285.23599999968,
      "d": 2491.063706249988,
      "v": 1
    },
    {
      "midi": 65,
      "hit": false,
      "t": 154591.35749999943,
      "d": 2082.9017062500643,
      "v": 105
    },
    {
      "midi": 58,
      "hit": false,
      "t": 154897.47899999944,
      "d": 679.8448312500259,
      "v": 93
    },
    {
      "midi": 62,
      "hit": false,
      "t": 155203.60049999945,
      "d": 622.447050000017,
      "v": 96
    },
    {
      "midi": 43,
      "hit": false,
      "t": 155509.72199999946,
      "d": 1196.4248625000182,
      "v": 96
    },
    {
      "midi": 58,
      "hit": false,
      "t": 155815.84349999946,
      "d": 373.7233312500175,
      "v": 102
    },
    {
      "midi": 62,
      "hit": false,
      "t": 156121.96499999947,
      "d": 565.0492687500082,
      "v": 96
    },
    {
      "midi": 58,
      "hit": false,
      "t": 156428.08649999948,
      "d": 220.66258125001332,
      "v": 102
    },
    {
      "midi": 64,
      "hit": false,
      "t": 156734.20799999946,
      "d": 335.4581437500019,
      "v": 108
    },
    {
      "midi": 45,
      "hit": false,
      "t": 156734.20799999946,
      "d": 341.83567500000936,
      "v": 105
    },
    {
      "midi": 62,
      "hit": false,
      "t": 156734.20799999946,
      "d": 341.83567500000936,
      "v": 114
    },
    {
      "midi": 57,
      "hit": false,
      "t": 156734.20799999946,
      "d": 348.2132062500168,
      "v": 108
    },
    {
      "midi": 57,
      "hit": false,
      "t": 156778.85071874966,
      "d": 2440.043456249987,
      "v": 1
    },
    {
      "midi": 64,
      "hit": false,
      "t": 156778.85071874966,
      "d": 2440.043456249987,
      "v": 1
    },
    {
      "midi": 45,
      "hit": false,
      "t": 157346.45099999948,
      "d": 297.1929562499863,
      "v": 117
    },
    {
      "midi": 64,
      "hit": false,
      "t": 157346.45099999948,
      "d": 297.1929562499863,
      "v": 114
    },
    {
      "midi": 57,
      "hit": false,
      "t": 157346.45099999948,
      "d": 303.57048749999376,
      "v": 108
    },
    {
      "midi": 62,
      "hit": false,
      "t": 157346.45099999948,
      "d": 303.57048749999376,
      "v": 111
    },
    {
      "midi": 64,
      "hit": false,
      "t": 157958.69399999946,
      "d": 348.2132062499877,
      "v": 120
    },
    {
      "midi": 43,
      "hit": false,
      "t": 157958.69399999946,
      "d": 354.59073749999516,
      "v": 108
    },
    {
      "midi": 57,
      "hit": false,
      "t": 157958.69399999946,
      "d": 354.59073749999516,
      "v": 114
    },
    {
      "midi": 62,
      "hit": false,
      "t": 157958.69399999946,
      "d": 354.59073749999516,
      "v": 117
    },
    {
      "midi": 64,
      "hit": false,
      "t": 158570.93699999945,
      "d": 354.59073749999516,
      "v": 117
    },
    {
      "midi": 57,
      "hit": false,
      "t": 158570.93699999945,
      "d": 360.9682687500026,
      "v": 117
    },
    {
      "midi": 62,
      "hit": false,
      "t": 158570.93699999945,
      "d": 367.34580000001006,
      "v": 120
    },
    {
      "midi": 43,
      "hit": false,
      "t": 158570.93699999945,
      "d": 380.10086249999586,
      "v": 114
    },
    {
      "midi": 53,
      "hit": false,
      "t": 159183.17999999944,
      "d": 1011.476456250035,
      "v": 84
    },
    {
      "midi": 62,
      "hit": false,
      "t": 159221.44518749963,
      "d": 144.13220625001122,
      "v": 1
    },
    {
      "midi": 67,
      "hit": false,
      "t": 159221.44518749963,
      "d": 144.13220625001122,
      "v": 1
    },
    {
      "midi": 65,
      "hit": false,
      "t": 159368.12840624963,
      "d": 144.13220625001122,
      "v": 1
    },
    {
      "midi": 57,
      "hit": false,
      "t": 159489.30149999945,
      "d": 1036.9865812500357,
      "v": 90
    },
    {
      "midi": 62,
      "hit": false,
      "t": 159514.81162499962,
      "d": 890.3033625000098,
      "v": 1
    },
    {
      "midi": 65,
      "hit": false,
      "t": 159795.42299999946,
      "d": 1738.5150187499821,
      "v": 90
    },
    {
      "midi": 62,
      "hit": false,
      "t": 160101.54449999947,
      "d": 635.2021125000028,
      "v": 90
    },
    {
      "midi": 50,
      "hit": false,
      "t": 160407.66599999947,
      "d": 1253.8226437499397,
      "v": 93
    },
    {
      "midi": 62,
      "hit": false,
      "t": 160407.66599999962,
      "d": 1221.9349874999898,
      "v": 1
    },
    {
      "midi": 65,
      "hit": false,
      "t": 160407.66599999962,
      "d": 1221.9349874999898,
      "v": 1
    },
    {
      "midi": 57,
      "hit": false,
      "t": 160713.78749999948,
      "d": 482.14136249996955,
      "v": 76
    },
    {
      "midi": 62,
      "hit": false,
      "t": 161019.90899999946,
      "d": 609.691987499973,
      "v": 84
    },
    {
      "midi": 57,
      "hit": false,
      "t": 161326.03049999944,
      "d": 246.1727062499849,
      "v": 74
    },
    {
      "midi": 43,
      "hit": false,
      "t": 161632.15199999942,
      "d": 1241.0675812500122,
      "v": 99
    },
    {
      "midi": 62,
      "hit": false,
      "t": 161632.1519999996,
      "d": 1221.9349874999898,
      "v": 1
    },
    {
      "midi": 67,
      "hit": false,
      "t": 161632.1519999996,
      "d": 1221.9349874999898,
      "v": 1
    },
    {
      "midi": 58,
      "hit": false,
      "t": 161938.2734999994,
      "d": 966.833737500041,
      "v": 90
    },
    {
      "midi": 62,
      "hit": false,
      "t": 162244.3949999994,
      "d": 698.9774250000482,
      "v": 93
    },
    {
      "midi": 67,
      "hit": false,
      "t": 162550.51649999942,
      "d": 386.4783937500324,
      "v": 102
    },
    {
      "midi": 48,
      "hit": false,
      "t": 162856.63799999942,
      "d": 1221.934987500048,
      "v": 96
    },
    {
      "midi": 63,
      "hit": false,
      "t": 162856.63799999957,
      "d": 1221.9349874999898,
      "v": 1
    },
    {
      "midi": 67,
      "hit": false,
      "t": 162856.63799999957,
      "d": 1221.9349874999898,
      "v": 1
    },
    {
      "midi": 63,
      "hit": false,
      "t": 163162.75949999946,
      "d": 992.3438624999835,
      "v": 102
    },
    {
      "midi": 58,
      "hit": false,
      "t": 163468.88099999947,
      "d": 641.5796437499812,
      "v": 105
    },
    {
      "midi": 55,
      "hit": false,
      "t": 163775.00249999948,
      "d": 329.08061249996535,
      "v": 93
    },
    {
      "midi": 41,
      "hit": false,
      "t": 164081.12399999946,
      "d": 1190.0473312500108,
      "v": 93
    },
    {
      "midi": 60,
      "hit": false,
      "t": 164081.12399999955,
      "d": 1221.9349874999898,
      "v": 1
    },
    {
      "midi": 65,
      "hit": false,
      "t": 164081.12399999955,
      "d": 1221.9349874999898,
      "v": 1
    },
    {
      "midi": 57,
      "hit": false,
      "t": 164387.24549999944,
      "d": 1119.894487500016,
      "v": 108
    },
    {
      "midi": 60,
      "hit": false,
      "t": 164693.36699999945,
      "d": 545.916675000015,
      "v": 90
    },
    {
      "midi": 65,
      "hit": false,
      "t": 164999.48849999945,
      "d": 845.6606437499868,
      "v": 99
    },
    {
      "midi": 62,
      "hit": false,
      "t": 165305.60999999946,
      "d": 316.32554999997956,
      "v": 99
    },
    {
      "midi": 46,
      "hit": false,
      "t": 165305.60999999946,
      "d": 775.5077999999921,
      "v": 93
    },
    {
      "midi": 62,
      "hit": false,
      "t": 165305.60999999952,
      "d": 1221.9349874999898,
      "v": 1
    },
    {
      "midi": 65,
      "hit": false,
      "t": 165305.60999999952,
      "d": 1221.9349874999898,
      "v": 1
    },
    {
      "midi": 57,
      "hit": false,
      "t": 165611.73149999944,
      "d": 552.2942062500224,
      "v": 93
    },
    {
      "midi": 62,
      "hit": false,
      "t": 165917.85299999945,
      "d": 565.0492687500082,
      "v": 96
    },
    {
      "midi": 46,
      "hit": false,
      "t": 166223.97449999946,
      "d": 309.9480187500012,
      "v": 105
    },
    {
      "midi": 57,
      "hit": false,
      "t": 166530.09599999947,
      "d": 565.0492687499791,
      "v": 88
    },
    {
      "midi": 62,
      "hit": false,
      "t": 166530.09599999947,
      "d": 743.620143749984,
      "v": 88
    },
    {
      "midi": 57,
      "hit": false,
      "t": 166530.0959999995,
      "d": 2446.420987499994,
      "v": 1
    },
    {
      "midi": 64,
      "hit": false,
      "t": 166530.0959999995,
      "d": 2446.420987499994,
      "v": 1
    },
    {
      "midi": 45,
      "hit": false,
      "t": 166836.21749999945,
      "d": 1292.0878312500427,
      "v": 93
    },
    {
      "midi": 52,
      "hit": false,
      "t": 167142.33899999945,
      "d": 1419.6384562500461,
      "v": 88
    },
    {
      "midi": 62,
      "hit": false,
      "t": 167448.46049999946,
      "d": 233.41764374999912,
      "v": 93
    },
    {
      "midi": 61,
      "hit": false,
      "t": 167754.58199999947,
      "d": 1107.1394250000303,
      "v": 99
    },
    {
      "midi": 57,
      "hit": false,
      "t": 168060.70349999948,
      "d": 820.1505187500152,
      "v": 80
    },
    {
      "midi": 45,
      "hit": false,
      "t": 168366.8249999995,
      "d": 552.2942062499933,
      "v": 96
    },
    {
      "midi": 52,
      "hit": false,
      "t": 168672.9464999995,
      "d": 220.6625812499842,
      "v": 60
    },
    {
      "midi": 50,
      "hit": false,
      "t": 168979.06799999948,
      "d": 1228.3125187500264,
      "v": 96
    },
    {
      "midi": 65,
      "hit": false,
      "t": 169285.18949999948,
      "d": 1477.0362374999968,
      "v": 102
    },
    {
      "midi": 57,
      "hit": false,
      "t": 169591.3109999995,
      "d": 737.2426125000056,
      "v": 105
    },
    {
      "midi": 62,
      "hit": false,
      "t": 169897.4324999995,
      "d": 609.6919875000021,
      "v": 93
    },
    {
      "midi": 62,
      "hit": false,
      "t": 170203.55399999948,
      "d": 1528.0564874999982,
      "v": 1
    },
    {
      "midi": 65,
      "hit": false,
      "t": 170203.55399999948,
      "d": 1528.0564874999982,
      "v": 1
    },
    {
      "midi": 46,
      "hit": false,
      "t": 170203.5539999995,
      "d": 1234.6900499999756,
      "v": 111
    },
    {
      "midi": 57,
      "hit": false,
      "t": 170509.6754999995,
      "d": 852.0381749999942,
      "v": 99
    },
    {
      "midi": 62,
      "hit": false,
      "t": 170815.79699999947,
      "d": 654.3347062500252,
      "v": 99
    },
    {
      "midi": 65,
      "hit": false,
      "t": 171121.91849999948,
      "d": 392.85592500001076,
      "v": 96
    },
    {
      "midi": 48,
      "hit": false,
      "t": 171428.03999999948,
      "d": 1228.3125187500264,
      "v": 105
    },
    {
      "midi": 60,
      "hit": false,
      "t": 171734.16149999946,
      "d": 2140.299487499986,
      "v": 1
    },
    {
      "midi": 64,
      "hit": false,
      "t": 171734.16149999946,
      "d": 2140.299487499986,
      "v": 1
    },
    {
      "midi": 67,
      "hit": false,
      "t": 171734.1614999995,
      "d": 2051.014049999969,
      "v": 93
    },
    {
      "midi": 60,
      "hit": false,
      "t": 172040.2829999995,
      "d": 679.8448312499968,
      "v": 93
    },
    {
      "midi": 64,
      "hit": false,
      "t": 172346.4044999995,
      "d": 558.6717375000007,
      "v": 93
    },
    {
      "midi": 45,
      "hit": false,
      "t": 172652.52599999952,
      "d": 1145.4046124999295,
      "v": 96
    },
    {
      "midi": 60,
      "hit": false,
      "t": 172958.6474999995,
      "d": 405.61098749999655,
      "v": 96
    },
    {
      "midi": 64,
      "hit": false,
      "t": 173264.7689999995,
      "d": 507.65148749997024,
      "v": 96
    },
    {
      "midi": 60,
      "hit": false,
      "t": 173570.89049999948,
      "d": 188.77492500000517,
      "v": 96
    },
    {
      "midi": 46,
      "hit": false,
      "t": 173877.01199999943,
      "d": 1234.6900500000338,
      "v": 105
    },
    {
      "midi": 58,
      "hit": false,
      "t": 173877.01199999943,
      "d": 2491.063706249988,
      "v": 1
    },
    {
      "midi": 62,
      "hit": false,
      "t": 173877.01199999943,
      "d": 2491.063706249988,
      "v": 1
    },
    {
      "midi": 65,
      "hit": false,
      "t": 174183.13349999944,
      "d": 2082.9017062500643,
      "v": 105
    },
    {
      "midi": 58,
      "hit": false,
      "t": 174489.25499999945,
      "d": 679.8448312500259,
      "v": 93
    },
    {
      "midi": 62,
      "hit": false,
      "t": 174795.37649999946,
      "d": 622.447050000017,
      "v": 96
    },
    {
      "midi": 43,
      "hit": false,
      "t": 175101.49799999947,
      "d": 1196.4248625000182,
      "v": 96
    },
    {
      "midi": 58,
      "hit": false,
      "t": 175407.61949999948,
      "d": 373.7233312500175,
      "v": 102
    },
    {
      "midi": 62,
      "hit": false,
      "t": 175713.74099999949,
      "d": 565.0492687500082,
      "v": 96
    },
    {
      "midi": 58,
      "hit": false,
      "t": 176019.8624999995,
      "d": 220.66258125001332,
      "v": 102
    },
    {
      "midi": 64,
      "hit": false,
      "t": 176325.98399999947,
      "d": 335.4581437500019,
      "v": 108
    },
    {
      "midi": 45,
      "hit": false,
      "t": 176325.98399999947,
      "d": 341.83567500000936,
      "v": 105
    },
    {
      "midi": 62,
      "hit": false,
      "t": 176325.98399999947,
      "d": 341.83567500000936,
      "v": 114
    },
    {
      "midi": 57,
      "hit": false,
      "t": 176325.98399999947,
      "d": 348.2132062500168,
      "v": 108
    },
    {
      "midi": 57,
      "hit": false,
      "t": 176370.6267187494,
      "d": 2440.043456249987,
      "v": 1
    },
    {
      "midi": 64,
      "hit": false,
      "t": 176370.6267187494,
      "d": 2440.043456249987,
      "v": 1
    },
    {
      "midi": 45,
      "hit": false,
      "t": 176938.2269999995,
      "d": 297.1929562499863,
      "v": 117
    },
    {
      "midi": 64,
      "hit": false,
      "t": 176938.2269999995,
      "d": 297.1929562499863,
      "v": 114
    },
    {
      "midi": 57,
      "hit": false,
      "t": 176938.2269999995,
      "d": 303.57048749999376,
      "v": 108
    },
    {
      "midi": 62,
      "hit": false,
      "t": 176938.2269999995,
      "d": 303.57048749999376,
      "v": 111
    },
    {
      "midi": 64,
      "hit": false,
      "t": 177550.46999999948,
      "d": 348.2132062499877,
      "v": 120
    },
    {
      "midi": 43,
      "hit": false,
      "t": 177550.46999999948,
      "d": 354.59073749999516,
      "v": 108
    },
    {
      "midi": 57,
      "hit": false,
      "t": 177550.46999999948,
      "d": 354.59073749999516,
      "v": 114
    },
    {
      "midi": 62,
      "hit": false,
      "t": 177550.46999999948,
      "d": 354.59073749999516,
      "v": 117
    },
    {
      "midi": 64,
      "hit": false,
      "t": 178162.71299999946,
      "d": 354.59073749999516,
      "v": 117
    },
    {
      "midi": 57,
      "hit": false,
      "t": 178162.71299999946,
      "d": 360.9682687500026,
      "v": 117
    },
    {
      "midi": 62,
      "hit": false,
      "t": 178162.71299999946,
      "d": 367.34580000001006,
      "v": 120
    },
    {
      "midi": 43,
      "hit": false,
      "t": 178162.71299999946,
      "d": 380.10086249999586,
      "v": 114
    },
    {
      "midi": 53,
      "hit": false,
      "t": 178774.95599999945,
      "d": 1011.476456250035,
      "v": 84
    },
    {
      "midi": 62,
      "hit": false,
      "t": 178813.22118749938,
      "d": 144.13220625001122,
      "v": 1
    },
    {
      "midi": 67,
      "hit": false,
      "t": 178813.22118749938,
      "d": 144.13220625001122,
      "v": 1
    },
    {
      "midi": 65,
      "hit": false,
      "t": 178959.90440624938,
      "d": 144.13220625001122,
      "v": 1
    },
    {
      "midi": 57,
      "hit": false,
      "t": 179081.07749999946,
      "d": 1036.9865812500357,
      "v": 90
    },
    {
      "midi": 62,
      "hit": false,
      "t": 179106.58762499937,
      "d": 890.3033625000098,
      "v": 1
    },
    {
      "midi": 65,
      "hit": false,
      "t": 179387.19899999947,
      "d": 1738.5150187499821,
      "v": 90
    },
    {
      "midi": 62,
      "hit": false,
      "t": 179693.32049999948,
      "d": 635.2021125000028,
      "v": 90
    },
    {
      "midi": 62,
      "hit": false,
      "t": 179999.44199999937,
      "d": 1221.9349874999898,
      "v": 1
    },
    {
      "midi": 65,
      "hit": false,
      "t": 179999.44199999937,
      "d": 1221.9349874999898,
      "v": 1
    },
    {
      "midi": 50,
      "hit": false,
      "t": 179999.4419999995,
      "d": 1253.8226437499397,
      "v": 93
    },
    {
      "midi": 57,
      "hit": false,
      "t": 180305.5634999995,
      "d": 482.14136249996955,
      "v": 76
    },
    {
      "midi": 62,
      "hit": false,
      "t": 180611.68499999947,
      "d": 609.691987499973,
      "v": 84
    },
    {
      "midi": 57,
      "hit": false,
      "t": 180917.80649999945,
      "d": 246.1727062499849,
      "v": 74
    },
    {
      "midi": 62,
      "hit": false,
      "t": 181223.92799999935,
      "d": 1221.9349874999898,
      "v": 1
    },
    {
      "midi": 67,
      "hit": false,
      "t": 181223.92799999935,
      "d": 1221.9349874999898,
      "v": 1
    },
    {
      "midi": 43,
      "hit": false,
      "t": 181223.92799999943,
      "d": 1241.0675812500122,
      "v": 99
    },
    {
      "midi": 58,
      "hit": false,
      "t": 181530.0494999994,
      "d": 966.833737500041,
      "v": 90
    },
    {
      "midi": 62,
      "hit": false,
      "t": 181836.17099999942,
      "d": 698.9774250000482,
      "v": 93
    },
    {
      "midi": 67,
      "hit": false,
      "t": 182142.29249999943,
      "d": 386.4783937500324,
      "v": 102
    },
    {
      "midi": 63,
      "hit": false,
      "t": 182448.41399999932,
      "d": 1221.9349874999898,
      "v": 1
    },
    {
      "midi": 67,
      "hit": false,
      "t": 182448.41399999932,
      "d": 1221.9349874999898,
      "v": 1
    },
    {
      "midi": 48,
      "hit": false,
      "t": 182448.41399999944,
      "d": 1221.934987500048,
      "v": 96
    },
    {
      "midi": 63,
      "hit": false,
      "t": 182754.53549999947,
      "d": 992.3438624999835,
      "v": 102
    },
    {
      "midi": 58,
      "hit": false,
      "t": 183060.65699999948,
      "d": 641.5796437499812,
      "v": 105
    },
    {
      "midi": 55,
      "hit": false,
      "t": 183366.7784999995,
      "d": 329.08061249996535,
      "v": 93
    },
    {
      "midi": 60,
      "hit": false,
      "t": 183672.8999999993,
      "d": 1221.9349874999898,
      "v": 1
    },
    {
      "midi": 65,
      "hit": false,
      "t": 183672.8999999993,
      "d": 1221.9349874999898,
      "v": 1
    },
    {
      "midi": 41,
      "hit": false,
      "t": 183672.89999999947,
      "d": 1190.0473312500108,
      "v": 93
    },
    {
      "midi": 57,
      "hit": false,
      "t": 183979.02149999945,
      "d": 1119.894487500016,
      "v": 108
    },
    {
      "midi": 60,
      "hit": false,
      "t": 184285.14299999946,
      "d": 545.916675000015,
      "v": 90
    },
    {
      "midi": 65,
      "hit": false,
      "t": 184591.26449999947,
      "d": 845.6606437499868,
      "v": 99
    },
    {
      "midi": 62,
      "hit": false,
      "t": 184897.38599999927,
      "d": 1221.9349874999898,
      "v": 1
    },
    {
      "midi": 65,
      "hit": false,
      "t": 184897.38599999927,
      "d": 1221.9349874999898,
      "v": 1
    },
    {
      "midi": 62,
      "hit": false,
      "t": 184897.38599999947,
      "d": 316.32554999997956,
      "v": 99
    },
    {
      "midi": 46,
      "hit": false,
      "t": 184897.38599999947,
      "d": 775.5077999999921,
      "v": 93
    },
    {
      "midi": 57,
      "hit": false,
      "t": 185203.50749999945,
      "d": 552.2942062500224,
      "v": 93
    },
    {
      "midi": 62,
      "hit": false,
      "t": 185509.62899999946,
      "d": 565.0492687500082,
      "v": 96
    },
    {
      "midi": 46,
      "hit": false,
      "t": 185815.75049999947,
      "d": 309.9480187500012,
      "v": 105
    },
    {
      "midi": 57,
      "hit": false,
      "t": 186121.87199999925,
      "d": 2446.420987499994,
      "v": 1
    },
    {
      "midi": 64,
      "hit": false,
      "t": 186121.87199999925,
      "d": 2446.420987499994,
      "v": 1
    },
    {
      "midi": 57,
      "hit": false,
      "t": 186121.87199999948,
      "d": 565.0492687499791,
      "v": 88
    },
    {
      "midi": 62,
      "hit": false,
      "t": 186121.87199999948,
      "d": 743.620143749984,
      "v": 88
    },
    {
      "midi": 45,
      "hit": false,
      "t": 186427.99349999946,
      "d": 1292.0878312500427,
      "v": 93
    },
    {
      "midi": 52,
      "hit": false,
      "t": 186734.11499999947,
      "d": 1419.6384562500461,
      "v": 88
    },
    {
      "midi": 62,
      "hit": false,
      "t": 187040.23649999948,
      "d": 233.41764374999912,
      "v": 93
    },
    {
      "midi": 61,
      "hit": false,
      "t": 187346.35799999948,
      "d": 1107.1394250000303,
      "v": 99
    },
    {
      "midi": 57,
      "hit": false,
      "t": 187652.4794999995,
      "d": 820.1505187500152,
      "v": 80
    },
    {
      "midi": 45,
      "hit": false,
      "t": 187958.6009999995,
      "d": 552.2942062499933,
      "v": 96
    },
    {
      "midi": 52,
      "hit": false,
      "t": 188264.7224999995,
      "d": 220.6625812499842,
      "v": 60
    },
    {
      "midi": 65,
      "hit": false,
      "t": 188570.8439999995,
      "d": 227.04011249999166,
      "v": 105
    },
    {
      "midi": 62,
      "hit": false,
      "t": 188570.8439999995,
      "d": 239.79517499997746,
      "v": 111
    },
    {
      "midi": 57,
      "hit": false,
      "t": 188570.8439999995,
      "d": 246.1727062499849,
      "v": 111
    },
    {
      "midi": 38,
      "hit": false,
      "t": 188570.8439999995,
      "d": 271.6828312499856,
      "v": 111
    }
  ]
}