{
  "jsonPath": "Rock/Pop Punk/Blink-182/adams-song.json",
  "path": "Rock\\Pop Punk\\Blink-182\\Adams Song.mid",
  "name": "Adams Song",
  "difficulty": "Intermediate",
  "bpm": 136.0001450668214,
  "notes": [
    {
      "midi": 48,
      "hit": false,
      "t": 183529.21600000001,
      "d": 1760.1084166666842,
      "v": 100
    },
    {
      "midi": 67,
      "hit": false,
      "t": 184190.98,
      "d": 441.17600000000675,
      "v": 100
    },
    {
      "midi": 72,
      "hit": false,
      "t": 184632.15600000002,
      "d": 441.17600000000675,
      "v": 100
    },
    {
      "midi": 74,
      "hit": false,
      "t": 185073.33200000002,
      "d": 441.17600000000675,
      "v": 100
    },
    {
      "midi": 72,
      "hit": false,
      "t": 185514.50800000003,
      "d": 441.17600000000675,
      "v": 100
    },
    {
      "midi": 72,
      "hit": false,
      "t": 187720.38800000004,
      "d": 441.17599999997765,
      "v": 100
    },
    {
      "midi": 74,
      "hit": false,
      "t": 187940.97600000002,
      "d": 441.17599999997765,
      "v": 100
    },
    {
      "midi": 72,
      "hit": false,
      "t": 188382.152,
      "d": 441.17600000000675,
      "v": 100
    },
    {
      "midi": 77,
      "hit": false,
      "t": 189043.916,
      "d": 215.99241666667513,
      "v": 100
    },
    {
      "midi": 77,
      "hit": false,
      "t": 189264.50400000002,
      "d": 215.99241666667513,
      "v": 81
    },
    {
      "midi": 77,
      "hit": false,
      "t": 189485.09200000003,
      "d": 215.99241666667513,
      "v": 61
    },
    {
      "midi": 76,
      "hit": false,
      "t": 189926.26800000004,
      "d": 215.99241666667513,
      "v": 100
    },
    {
      "midi": 76,
      "hit": false,
      "t": 190146.85600000006,
      "d": 215.99241666667513,
      "v": 81
    },
    {
      "midi": 76,
      "hit": false,
      "t": 190367.44400000008,
      "d": 215.99241666667513,
      "v": 61
    },
    {
      "midi": 67,
      "hit": false,
      "t": 191911.56000000008,
      "d": 215.99241666667513,
      "v": 100
    },
    {
      "midi": 72,
      "hit": false,
      "t": 192132.1480000001,
      "d": 215.99241666667513,
      "v": 100
    },
    {
      "midi": 74,
      "hit": false,
      "t": 192573.3240000001,
      "d": 215.99241666667513,
      "v": 100
    },
    {
      "midi": 74,
      "hit": false,
      "t": 192793.91200000013,
      "d": 215.99241666667513,
      "v": 81
    },
    {
      "midi": 74,
      "hit": false,
      "t": 193014.50000000015,
      "d": 215.99241666667513,
      "v": 61
    },
    {
      "midi": 67,
      "hit": false,
      "t": 193455.67600000015,
      "d": 215.99241666667513,
      "v": 100
    },
    {
      "midi": 67,
      "hit": false,
      "t": 193676.26400000017,
      "d": 215.99241666667513,
      "v": 81
    },
    {
      "midi": 67,
      "hit": false,
      "t": 193896.8520000002,
      "d": 215.99241666667513,
      "v": 61
    },
    {
      "midi": 65,
      "hit": false,
      "t": 194117.4400000002,
      "d": 215.99241666667513,
      "v": 100
    },
    {
      "midi": 67,
      "hit": false,
      "t": 194338.02800000022,
      "d": 215.99241666667513,
      "v": 100
    },
    {
      "midi": 72,
      "hit": false,
      "t": 194558.61600000024,
      "d": 215.99241666667513,
      "v": 100
    },
    {
      "midi": 65,
      "hit": false,
      "t": 194779.20400000026,
      "d": 441.17600000000675,
      "v": 100
    },
    {
      "midi": 72,
      "hit": false,
      "t": 195220.38000000027,
      "d": 436.58041666666395,
      "v": 100
    },
    {
      "midi": 76,
      "hit": false,
      "t": 195882.14400000026,
      "d": 215.99241666667513,
      "v": 100
    },
    {
      "midi": 76,
      "hit": false,
      "t": 196102.73200000028,
      "d": 215.99241666667513,
      "v": 81
    },
    {
      "midi": 76,
      "hit": false,
      "t": 196323.3200000003,
      "d": 215.99241666667513,
      "v": 61
    },
    {
      "midi": 77,
      "hit": false,
      "t": 196764.4960000003,
      "d": 215.99241666667513,
      "v": 100
    },
    {
      "midi": 77,
      "hit": false,
      "t": 196985.08400000032,
      "d": 215.99241666667513,
      "v": 81
    },
    {
      "midi": 77,
      "hit": false,
      "t": 197205.67200000034,
      "d": 215.99241666667513,
      "v": 61
    },
    {
      "midi": 79,
      "hit": false,
      "t": 197426.26000000036,
      "d": 1760.1084166667715,
      "v": 120
    },
    {
      "midi": 48,
      "hit": false,
      "t": 197646.84800000035,
      "d": 215.99241666667513,
      "v": 30
    },
    {
      "midi": 60,
      "hit": false,
      "t": 197867.43600000037,
      "d": 215.99241666667513,
      "v": 32
    },
    {
      "midi": 72,
      "hit": false,
      "t": 198088.02400000038,
      "d": 215.99241666667513,
      "v": 35
    },
    {
      "midi": 60,
      "hit": false,
      "t": 198308.6120000004,
      "d": 215.99241666667513,
      "v": 38
    },
    {
      "midi": 48,
      "hit": false,
      "t": 198529.20000000042,
      "d": 215.99241666667513,
      "v": 41
    },
    {
      "midi": 60,
      "hit": false,
      "t": 198749.78800000044,
      "d": 215.99241666667513,
      "v": 44
    },
    {
      "midi": 72,
      "hit": false,
      "t": 198970.37600000045,
      "d": 215.99241666667513,
      "v": 47
    },
    {
      "midi": 60,
      "hit": false,
      "t": 199190.96400000047,
      "d": 215.99241666667513,
      "v": 50
    },
    {
      "midi": 48,
      "hit": false,
      "t": 199411.5520000005,
      "d": 215.99241666667513,
      "v": 53
    },
    {
      "midi": 60,
      "hit": false,
      "t": 199632.1400000005,
      "d": 215.99241666667513,
      "v": 56
    },
    {
      "midi": 72,
      "hit": false,
      "t": 199852.72800000053,
      "d": 215.99241666667513,
      "v": 59
    },
    {
      "midi": 60,
      "hit": false,
      "t": 200073.31600000054,
      "d": 215.99241666667513,
      "v": 61
    },
    {
      "midi": 48,
      "hit": false,
      "t": 200293.90400000056,
      "d": 215.99241666667513,
      "v": 64
    },
    {
      "midi": 60,
      "hit": false,
      "t": 200514.49200000058,
      "d": 215.99241666667513,
      "v": 67
    },
    {
      "midi": 72,
      "hit": false,
      "t": 200735.0800000006,
      "d": 215.99241666667513,
      "v": 70
    },
    {
      "midi": 60,
      "hit": false,
      "t": 200955.66800000062,
      "d": 215.99241666667513,
      "v": 73
    },
    {
      "midi": 48,
      "hit": false,
      "t": 201176.25600000063,
      "d": 215.99241666667513,
      "v": 76
    },
    {
      "midi": 60,
      "hit": false,
      "t": 201396.84400000065,
      "d": 215.99241666667513,
      "v": 79
    },
    {
      "midi": 72,
      "hit": false,
      "t": 201617.43200000067,
      "d": 215.99241666667513,
      "v": 82
    },
    {
      "midi": 60,
      "hit": false,
      "t": 201838.0200000007,
      "d": 215.99241666667513,
      "v": 85
    },
    {
      "midi": 48,
      "hit": false,
      "t": 202058.6080000007,
      "d": 215.99241666667513,
      "v": 88
    },
    {
      "midi": 60,
      "hit": false,
      "t": 202279.19600000072,
      "d": 215.99241666667513,
      "v": 90
    },
    {
      "midi": 72,
      "hit": false,
      "t": 202499.78400000074,
      "d": 215.99241666667513,
      "v": 93
    },
    {
      "midi": 60,
      "hit": false,
      "t": 202720.37200000076,
      "d": 215.99241666667513,
      "v": 96
    },
    {
      "midi": 48,
      "hit": false,
      "t": 202940.96000000078,
      "d": 215.99241666667513,
      "v": 99
    },
    {
      "midi": 60,
      "hit": false,
      "t": 203161.5480000008,
      "d": 215.99241666667513,
      "v": 102
    },
    {
      "midi": 72,
      "hit": false,
      "t": 203382.1360000008,
      "d": 215.99241666667513,
      "v": 105
    },
    {
      "midi": 60,
      "hit": false,
      "t": 203602.72400000083,
      "d": 215.99241666667513,
      "v": 108
    },
    {
      "midi": 48,
      "hit": false,
      "t": 203823.31200000085,
      "d": 215.99241666667513,
      "v": 111
    },
    {
      "midi": 36,
      "hit": false,
      "t": 204043.90000000087,
      "d": 215.99241666667513,
      "v": 114
    },
    {
      "midi": 60,
      "hit": false,
      "t": 204043.90000000087,
      "d": 215.99241666667513,
      "v": 114
    },
    {
      "midi": 36,
      "hit": false,
      "t": 204264.48800000089,
      "d": 215.99241666667513,
      "v": 117
    },
    {
      "midi": 48,
      "hit": false,
      "t": 204264.48800000089,
      "d": 215.99241666667513,
      "v": 117
    },
    {
      "midi": 72,
      "hit": false,
      "t": 204264.48800000089,
      "d": 215.99241666667513,
      "v": 117
    },
    {
      "midi": 36,
      "hit": false,
      "t": 204485.0760000009,
      "d": 215.99241666667513,
      "v": 119
    },
    {
      "midi": 60,
      "hit": false,
      "t": 204485.0760000009,
      "d": 215.99241666667513,
      "v": 119
    },
    {
      "midi": 48,
      "hit": false,
      "t": 204705.66400000092,
      "d": 215.99241666667513,
      "v": 99
    },
    {
      "midi": 36,
      "hit": false,
      "t": 204705.66400000092,
      "d": 7274.808416667249,
      "v": 120
    },
    {
      "midi": 60,
      "hit": false,
      "t": 204926.25200000094,
      "d": 215.99241666667513,
      "v": 100
    },
    {
      "midi": 72,
      "hit": false,
      "t": 205146.84000000096,
      "d": 215.99241666667513,
      "v": 100
    },
    {
      "midi": 48,
      "hit": false,
      "t": 205367.42800000097,
      "d": 215.99241666667513,
      "v": 99
    },
    {
      "midi": 60,
      "hit": false,
      "t": 205588.016000001,
      "d": 215.99241666667513,
      "v": 100
    },
    {
      "midi": 72,
      "hit": false,
      "t": 205808.604000001,
      "d": 215.99241666667513,
      "v": 100
    },
    {
      "midi": 60,
      "hit": false,
      "t": 206029.19200000103,
      "d": 215.99241666667513,
      "v": 100
    },
    {
      "midi": 48,
      "hit": false,
      "t": 206249.78000000105,
      "d": 215.99241666667513,
      "v": 99
    },
    {
      "midi": 48,
      "hit": false,
      "t": 206470.36800000106,
      "d": 215.99241666667513,
      "v": 99
    },
    {
      "midi": 60,
      "hit": false,
      "t": 206690.95600000108,
      "d": 215.99241666667513,
      "v": 100
    },
    {
      "midi": 72,
      "hit": false,
      "t": 206911.5440000011,
      "d": 215.99241666667513,
      "v": 100
    },
    {
      "midi": 48,
      "hit": false,
      "t": 207132.13200000112,
      "d": 215.99241666667513,
      "v": 99
    },
    {
      "midi": 60,
      "hit": false,
      "t": 207352.72000000114,
      "d": 215.99241666667513,
      "v": 100
    },
    {
      "midi": 72,
      "hit": false,
      "t": 207573.30800000115,
      "d": 215.99241666667513,
      "v": 100
    },
    {
      "midi": 60,
      "hit": false,
      "t": 207793.89600000117,
      "d": 215.99241666667513,
      "v": 100
    },
    {
      "midi": 48,
      "hit": false,
      "t": 208014.4840000012,
      "d": 215.99241666667513,
      "v": 99
    },
    {
      "midi": 60,
      "hit": false,
      "t": 208235.0720000012,
      "d": 215.99241666667513,
      "v": 100
    },
    {
      "midi": 72,
      "hit": false,
      "t": 208455.66000000123,
      "d": 215.99241666667513,
      "v": 100
    },
    {
      "midi": 60,
      "hit": false,
      "t": 208676.24800000124,
      "d": 215.99241666667513,
      "v": 100
    },
    {
      "midi": 48,
      "hit": false,
      "t": 208896.83600000126,
      "d": 215.99241666667513,
      "v": 99
    },
    {
      "midi": 60,
      "hit": false,
      "t": 209117.42400000128,
      "d": 215.99241666667513,
      "v": 100
    },
    {
      "midi": 72,
      "hit": false,
      "t": 209338.0120000013,
      "d": 215.99241666667513,
      "v": 100
    },
    {
      "midi": 48,
      "hit": false,
      "t": 209558.60000000132,
      "d": 215.99241666667513,
      "v": 99
    },
    {
      "midi": 60,
      "hit": false,
      "t": 209779.18800000133,
      "d": 215.99241666667513,
      "v": 100
    },
    {
      "midi": 48,
      "hit": false,
      "t": 209999.77600000135,
      "d": 215.99241666667513,
      "v": 99
    },
    {
      "midi": 72,
      "hit": false,
      "t": 209999.77600000135,
      "d": 215.99241666667513,
      "v": 100
    },
    {
      "midi": 60,
      "hit": false,
      "t": 210220.36400000137,
      "d": 215.99241666667513,
      "v": 100
    },
    {
      "midi": 48,
      "hit": false,
      "t": 210440.9520000014,
      "d": 215.99241666667513,
      "v": 99
    },
    {
      "midi": 72,
      "hit": false,
      "t": 210440.9520000014,
      "d": 215.99241666667513,
      "v": 100
    },
    {
      "midi": 48,
      "hit": false,
      "t": 210661.5400000014,
      "d": 215.99241666667513,
      "v": 99
    },
    {
      "midi": 60,
      "hit": false,
      "t": 210882.12800000142,
      "d": 215.99241666667513,
      "v": 100
    },
    {
      "midi": 72,
      "hit": false,
      "t": 211102.71600000144,
      "d": 215.99241666667513,
      "v": 100
    },
    {
      "midi": 48,
      "hit": false,
      "t": 211323.30400000146,
      "d": 215.99241666667513,
      "v": 99
    },
    {
      "midi": 60,
      "hit": false,
      "t": 211323.30400000146,
      "d": 215.99241666667513,
      "v": 100
    },
    {
      "midi": 48,
      "hit": false,
      "t": 211543.89200000148,
      "d": 215.99241666667513,
      "v": 99
    },
    {
      "midi": 60,
      "hit": false,
      "t": 211543.89200000148,
      "d": 215.99241666667513,
      "v": 100
    },
    {
      "midi": 72,
      "hit": false,
      "t": 211764.4800000015,
      "d": 215.99241666667513,
      "v": 100
    }
  ]
}