{
  "jsonPath": "Unknown/Unknown/Gloria Estefan  Miami Sound Machine/cant-stay-away-from-you.json",
  "path": "Unknown\\Unknown\\Gloria Estefan  Miami Sound Machine\\Cant Stay Away From You.mid",
  "name": "Cant Stay Away From You",
  "difficulty": "Advanced",
  "bpm": 72.00002880001152,
  "notes": [
    {
      "midi": 66,
      "hit": false,
      "t": 17708.326250000002,
      "d": 208.33324999999968,
      "v": 100
    },
    {
      "midi": 67,
      "hit": false,
      "t": 17920.99977604167,
      "d": 203.99297395833491,
      "v": 100
    },
    {
      "midi": 71,
      "hit": false,
      "t": 18129.333026041673,
      "d": 208.33324999999968,
      "v": 100
    },
    {
      "midi": 74,
      "hit": false,
      "t": 18342.00655208334,
      "d": 1666.666000000001,
      "v": 100
    },
    {
      "midi": 57,
      "hit": false,
      "t": 23342.00455208334,
      "d": 407.9859479166662,
      "v": 100
    },
    {
      "midi": 64,
      "hit": false,
      "t": 23754.330776041676,
      "d": 203.99297395833491,
      "v": 100
    },
    {
      "midi": 73,
      "hit": false,
      "t": 23962.66402604168,
      "d": 624.999749999999,
      "v": 100
    },
    {
      "midi": 69,
      "hit": false,
      "t": 24587.663776041678,
      "d": 1766.4923489583343,
      "v": 100
    },
    {
      "midi": 57,
      "hit": false,
      "t": 35420.99277604168,
      "d": 203.99297395833128,
      "v": 100
    },
    {
      "midi": 64,
      "hit": false,
      "t": 35629.32602604168,
      "d": 212.67352604166808,
      "v": 100
    },
    {
      "midi": 69,
      "hit": false,
      "t": 36050.33280208335,
      "d": 208.33325000000332,
      "v": 100
    },
    {
      "midi": 73,
      "hit": false,
      "t": 36466.99930208336,
      "d": 208.33325000000332,
      "v": 100
    },
    {
      "midi": 64,
      "hit": false,
      "t": 48754.3207760417,
      "d": 203.99297395833128,
      "v": 100
    },
    {
      "midi": 69,
      "hit": false,
      "t": 48962.654026041695,
      "d": 212.67352604166808,
      "v": 100
    },
    {
      "midi": 71,
      "hit": false,
      "t": 49374.98025000003,
      "d": 208.33325000000332,
      "v": 100
    },
    {
      "midi": 73,
      "hit": false,
      "t": 49795.9870260417,
      "d": 208.33325000000332,
      "v": 100
    },
    {
      "midi": 69,
      "hit": false,
      "t": 50420.986776041704,
      "d": 203.99297395833128,
      "v": 100
    },
    {
      "midi": 81,
      "hit": false,
      "t": 54583.31150000003,
      "d": 208.33325000000332,
      "v": 100
    },
    {
      "midi": 78,
      "hit": false,
      "t": 55008.65855208337,
      "d": 199.6526979166665,
      "v": 100
    },
    {
      "midi": 74,
      "hit": false,
      "t": 55629.3180260417,
      "d": 212.67352604166808,
      "v": 100
    },
    {
      "midi": 69,
      "hit": false,
      "t": 56254.3177760417,
      "d": 203.99297395833128,
      "v": 100
    },
    {
      "midi": 81,
      "hit": false,
      "t": 61262.99632812503,
      "d": 203.99297395833128,
      "v": 100
    },
    {
      "midi": 78,
      "hit": false,
      "t": 61675.322552083366,
      "d": 208.33325000000332,
      "v": 100
    },
    {
      "midi": 74,
      "hit": false,
      "t": 62291.64175000004,
      "d": 217.01380208333285,
      "v": 100
    },
    {
      "midi": 69,
      "hit": false,
      "t": 62929.662328125036,
      "d": 195.31242187500175,
      "v": 100
    },
    {
      "midi": 81,
      "hit": false,
      "t": 67920.97977604171,
      "d": 203.99297395833128,
      "v": 100
    },
    {
      "midi": 78,
      "hit": false,
      "t": 68337.6462760417,
      "d": 212.6735260416608,
      "v": 100
    },
    {
      "midi": 74,
      "hit": false,
      "t": 68966.98630208337,
      "d": 208.33324999999604,
      "v": 100
    },
    {
      "midi": 69,
      "hit": false,
      "t": 69591.98605208338,
      "d": 208.33324999999604,
      "v": 100
    },
    {
      "midi": 81,
      "hit": false,
      "t": 74587.6437760417,
      "d": 203.99297395833128,
      "v": 100
    },
    {
      "midi": 79,
      "hit": false,
      "t": 75004.3102760417,
      "d": 203.99297395833128,
      "v": 100
    },
    {
      "midi": 76,
      "hit": false,
      "t": 75629.3100260417,
      "d": 208.33324999999604,
      "v": 100
    },
    {
      "midi": 69,
      "hit": false,
      "t": 76254.3097760417,
      "d": 203.99297395833128,
      "v": 100
    },
    {
      "midi": 74,
      "hit": false,
      "t": 80012.988828125,
      "d": 412.3262239583273,
      "v": 70
    },
    {
      "midi": 57,
      "hit": false,
      "t": 80420.97477604166,
      "d": 203.99297395833128,
      "v": 80
    },
    {
      "midi": 59,
      "hit": false,
      "t": 80633.64830208333,
      "d": 203.99297395833128,
      "v": 80
    },
    {
      "midi": 62,
      "hit": false,
      "t": 81041.63424999999,
      "d": 208.33324999999604,
      "v": 80
    },
    {
      "midi": 66,
      "hit": false,
      "t": 81458.30074999998,
      "d": 416.66650000000664,
      "v": 80
    },
    {
      "midi": 67,
      "hit": false,
      "t": 81879.30752604165,
      "d": 212.6735260416608,
      "v": 80
    },
    {
      "midi": 66,
      "hit": false,
      "t": 82087.64077604165,
      "d": 203.99297395833128,
      "v": 80
    },
    {
      "midi": 62,
      "hit": false,
      "t": 82295.97402604164,
      "d": 208.33324999999604,
      "v": 80
    },
    {
      "midi": 57,
      "hit": false,
      "t": 82504.30727604164,
      "d": 412.3262239583273,
      "v": 80
    },
    {
      "midi": 74,
      "hit": false,
      "t": 83341.9805520833,
      "d": 199.6526979166665,
      "v": 70
    },
    {
      "midi": 57,
      "hit": false,
      "t": 83754.30677604163,
      "d": 203.99297395833128,
      "v": 80
    },
    {
      "midi": 59,
      "hit": false,
      "t": 83962.64002604163,
      "d": 412.3262239583273,
      "v": 80
    },
    {
      "midi": 62,
      "hit": false,
      "t": 84379.30652604162,
      "d": 412.3262239583273,
      "v": 80
    },
    {
      "midi": 66,
      "hit": false,
      "t": 84795.97302604161,
      "d": 412.3262239583273,
      "v": 80
    },
    {
      "midi": 66,
      "hit": false,
      "t": 85212.6395260416,
      "d": 421.0067760416714,
      "v": 80
    },
    {
      "midi": 67,
      "hit": false,
      "t": 85633.64630208327,
      "d": 208.33324999999604,
      "v": 80
    },
    {
      "midi": 69,
      "hit": false,
      "t": 85841.97955208327,
      "d": 208.33324999999604,
      "v": 80
    },
    {
      "midi": 67,
      "hit": false,
      "t": 86054.65307812493,
      "d": 230.03463020833442,
      "v": 80
    },
    {
      "midi": 66,
      "hit": false,
      "t": 86289.02798437493,
      "d": 590.27754166667,
      "v": 80
    },
    {
      "midi": 74,
      "hit": false,
      "t": 86675.31255208327,
      "d": 416.6664999999921,
      "v": 70
    },
    {
      "midi": 57,
      "hit": false,
      "t": 87091.97905208326,
      "d": 208.33324999999604,
      "v": 80
    },
    {
      "midi": 59,
      "hit": false,
      "t": 87300.31230208326,
      "d": 407.98594791666255,
      "v": 80
    },
    {
      "midi": 62,
      "hit": false,
      "t": 87716.97880208325,
      "d": 407.98594791666255,
      "v": 80
    },
    {
      "midi": 66,
      "hit": false,
      "t": 88133.64530208324,
      "d": 407.98594791666255,
      "v": 80
    },
    {
      "midi": 67,
      "hit": false,
      "t": 88545.97152604157,
      "d": 212.6735260416608,
      "v": 80
    },
    {
      "midi": 66,
      "hit": false,
      "t": 88754.30477604156,
      "d": 203.99297395833128,
      "v": 80
    },
    {
      "midi": 62,
      "hit": false,
      "t": 88962.63802604156,
      "d": 212.6735260416608,
      "v": 80
    },
    {
      "midi": 57,
      "hit": false,
      "t": 89175.31155208322,
      "d": 407.98594791666255,
      "v": 80
    },
    {
      "midi": 74,
      "hit": false,
      "t": 90008.64455208322,
      "d": 199.6526979166665,
      "v": 70
    },
    {
      "midi": 57,
      "hit": false,
      "t": 90420.97077604155,
      "d": 203.99297395833128,
      "v": 80
    },
    {
      "midi": 59,
      "hit": false,
      "t": 90629.30402604154,
      "d": 412.3262239583273,
      "v": 80
    },
    {
      "midi": 62,
      "hit": false,
      "t": 91045.97052604154,
      "d": 412.3262239583273,
      "v": 80
    },
    {
      "midi": 66,
      "hit": false,
      "t": 91462.63702604153,
      "d": 208.33324999999604,
      "v": 80
    },
    {
      "midi": 66,
      "hit": false,
      "t": 91879.30352604152,
      "d": 203.99297395833128,
      "v": 80
    },
    {
      "midi": 62,
      "hit": false,
      "t": 92291.62974999985,
      "d": 212.6735260416608,
      "v": 80
    },
    {
      "midi": 59,
      "hit": false,
      "t": 92504.30327604151,
      "d": 203.99297395833128,
      "v": 80
    },
    {
      "midi": 66,
      "hit": false,
      "t": 92712.6365260415,
      "d": 203.99297395833128,
      "v": 80
    },
    {
      "midi": 62,
      "hit": false,
      "t": 92920.9697760415,
      "d": 203.99297395833128,
      "v": 80
    },
    {
      "midi": 59,
      "hit": false,
      "t": 93129.3030260415,
      "d": 412.3262239583273,
      "v": 80
    },
    {
      "midi": 74,
      "hit": false,
      "t": 93341.97655208316,
      "d": 416.66650000000664,
      "v": 70
    },
    {
      "midi": 57,
      "hit": false,
      "t": 93762.98332812483,
      "d": 203.99297395833128,
      "v": 80
    },
    {
      "midi": 59,
      "hit": false,
      "t": 93966.97630208316,
      "d": 416.66650000000664,
      "v": 80
    },
    {
      "midi": 62,
      "hit": false,
      "t": 94383.64280208317,
      "d": 416.66650000000664,
      "v": 80
    },
    {
      "midi": 66,
      "hit": false,
      "t": 94800.30930208317,
      "d": 416.66650000000664,
      "v": 80
    },
    {
      "midi": 67,
      "hit": false,
      "t": 95216.97580208318,
      "d": 208.33324999999604,
      "v": 80
    },
    {
      "midi": 66,
      "hit": false,
      "t": 95429.64932812484,
      "d": 203.99297395833128,
      "v": 80
    },
    {
      "midi": 62,
      "hit": false,
      "t": 95633.64230208317,
      "d": 208.33324999999604,
      "v": 80
    },
    {
      "midi": 57,
      "hit": false,
      "t": 95846.31582812483,
      "d": 403.6456718749978,
      "v": 80
    },
    {
      "midi": 74,
      "hit": false,
      "t": 96675.30855208317,
      "d": 203.99297395833128,
      "v": 70
    },
    {
      "midi": 57,
      "hit": false,
      "t": 97087.6347760415,
      "d": 203.99297395833128,
      "v": 80
    },
    {
      "midi": 59,
      "hit": false,
      "t": 97300.30830208315,
      "d": 407.98594791666255,
      "v": 80
    },
    {
      "midi": 62,
      "hit": false,
      "t": 97712.63452604148,
      "d": 412.3262239583273,
      "v": 80
    },
    {
      "midi": 66,
      "hit": false,
      "t": 98129.30102604147,
      "d": 412.3262239583273,
      "v": 80
    },
    {
      "midi": 66,
      "hit": false,
      "t": 98545.96752604147,
      "d": 412.3262239583273,
      "v": 80
    },
    {
      "midi": 67,
      "hit": false,
      "t": 98962.63402604146,
      "d": 208.33324999999604,
      "v": 80
    },
    {
      "midi": 69,
      "hit": false,
      "t": 99175.30755208312,
      "d": 199.6526979166665,
      "v": 80
    },
    {
      "midi": 67,
      "hit": false,
      "t": 99379.30052604145,
      "d": 203.99297395833128,
      "v": 80
    },
    {
      "midi": 66,
      "hit": false,
      "t": 99587.63377604145,
      "d": 620.6594739583379,
      "v": 80
    },
    {
      "midi": 74,
      "hit": false,
      "t": 100012.98082812478,
      "d": 412.3262239583273,
      "v": 70
    },
    {
      "midi": 57,
      "hit": false,
      "t": 100420.96677604144,
      "d": 203.99297395833128,
      "v": 80
    },
    {
      "midi": 59,
      "hit": false,
      "t": 100629.30002604144,
      "d": 412.3262239583273,
      "v": 80
    },
    {
      "midi": 62,
      "hit": false,
      "t": 101045.96652604143,
      "d": 412.3262239583273,
      "v": 80
    },
    {
      "midi": 66,
      "hit": false,
      "t": 101462.63302604143,
      "d": 412.3262239583273,
      "v": 80
    },
    {
      "midi": 67,
      "hit": false,
      "t": 101879.29952604142,
      "d": 203.99297395833128,
      "v": 80
    },
    {
      "midi": 66,
      "hit": false,
      "t": 102091.97305208308,
      "d": 199.6526979166665,
      "v": 80
    },
    {
      "midi": 62,
      "hit": false,
      "t": 102295.96602604141,
      "d": 208.33324999999604,
      "v": 80
    },
    {
      "midi": 59,
      "hit": false,
      "t": 102504.2992760414,
      "d": 421.0067760416714,
      "v": 80
    },
    {
      "midi": 74,
      "hit": false,
      "t": 103346.31282812475,
      "d": 203.99297395833128,
      "v": 70
    },
    {
      "midi": 57,
      "hit": false,
      "t": 103762.97932812474,
      "d": 203.99297395833128,
      "v": 80
    },
    {
      "midi": 59,
      "hit": false,
      "t": 103966.97230208307,
      "d": 407.98594791666255,
      "v": 80
    },
    {
      "midi": 62,
      "hit": false,
      "t": 104383.63880208306,
      "d": 407.98594791666255,
      "v": 80
    },
    {
      "midi": 66,
      "hit": false,
      "t": 104800.30530208306,
      "d": 208.33324999999604,
      "v": 80
    },
    {
      "midi": 50,
      "hit": false,
      "t": 105012.97882812501,
      "d": 30.38193229166791,
      "v": 105
    },
    {
      "midi": 52,
      "hit": false,
      "t": 105047.70103645834,
      "d": 56.42358854167105,
      "v": 105
    },
    {
      "midi": 54,
      "hit": false,
      "t": 105108.46490104168,
      "d": 47.74303645832697,
      "v": 105
    },
    {
      "midi": 55,
      "hit": false,
      "t": 105156.2079375,
      "d": 52.083312500006286,
      "v": 105
    },
    {
      "midi": 57,
      "hit": false,
      "t": 105212.63152604167,
      "d": 47.74303645832697,
      "v": 105
    },
    {
      "midi": 66,
      "hit": false,
      "t": 105216.97180208305,
      "d": 208.33324999999604,
      "v": 80
    },
    {
      "midi": 59,
      "hit": false,
      "t": 105260.3745625,
      "d": 52.083312500006286,
      "v": 105
    },
    {
      "midi": 61,
      "hit": false,
      "t": 105316.79815104167,
      "d": 47.74303645832697,
      "v": 105
    },
    {
      "midi": 62,
      "hit": false,
      "t": 105368.88146354166,
      "d": 47.74303645832697,
      "v": 105
    },
    {
      "midi": 64,
      "hit": false,
      "t": 105429.64532812499,
      "d": 39.06248437499744,
      "v": 105
    },
    {
      "midi": 66,
      "hit": false,
      "t": 105468.70781249998,
      "d": 52.083312500006286,
      "v": 105
    },
    {
      "midi": 67,
      "hit": false,
      "t": 105525.13140104165,
      "d": 47.74303645832697,
      "v": 105
    },
    {
      "midi": 40,
      "hit": false,
      "t": 105577.21471354165,
      "d": 47.74303645832697,
      "v": 105
    },
    {
      "midi": 42,
      "hit": false,
      "t": 105629.29802604164,
      "d": 47.74303645832697,
      "v": 105
    },
    {
      "midi": 62,
      "hit": false,
      "t": 105633.63830208304,
      "d": 208.33324999999604,
      "v": 80
    },
    {
      "midi": 43,
      "hit": false,
      "t": 105681.38133854163,
      "d": 47.74303645832697,
      "v": 105
    },
    {
      "midi": 45,
      "hit": false,
      "t": 105733.46465104162,
      "d": 47.74303645832697,
      "v": 105
    },
    {
      "midi": 47,
      "hit": false,
      "t": 105785.54796354161,
      "d": 52.083312500006286,
      "v": 105
    },
    {
      "midi": 49,
      "hit": false,
      "t": 105837.63127604162,
      "d": 39.06248437499744,
      "v": 105
    },
    {
      "midi": 59,
      "hit": false,
      "t": 105846.3118281247,
      "d": 203.99297395833128,
      "v": 80
    },
    {
      "midi": 50,
      "hit": false,
      "t": 105881.03403645828,
      "d": 56.42358854167105,
      "v": 105
    },
    {
      "midi": 52,
      "hit": false,
      "t": 105941.79790104162,
      "d": 47.74303645832697,
      "v": 105
    },
    {
      "midi": 54,
      "hit": false,
      "t": 105989.54093749994,
      "d": 52.083312500006286,
      "v": 105
    },
    {
      "midi": 55,
      "hit": false,
      "t": 106045.96452604161,
      "d": 47.74303645832697,
      "v": 105
    },
    {
      "midi": 66,
      "hit": false,
      "t": 106050.30480208303,
      "d": 208.33324999999604,
      "v": 80
    },
    {
      "midi": 57,
      "hit": false,
      "t": 106098.0478385416,
      "d": 47.74303645832697,
      "v": 105
    },
    {
      "midi": 59,
      "hit": false,
      "t": 106150.1311510416,
      "d": 47.74303645832697,
      "v": 105
    },
    {
      "midi": 61,
      "hit": false,
      "t": 106197.87418749993,
      "d": 52.083312500006286,
      "v": 105
    },
    {
      "midi": 62,
      "hit": false,
      "t": 106258.63805208303,
      "d": 208.33324999999604,
      "v": 80
    },
    {
      "midi": 62,
      "hit": false,
      "t": 106258.63805208326,
      "d": 43.402760416662204,
      "v": 105
    },
    {
      "midi": 64,
      "hit": false,
      "t": 106306.38108854159,
      "d": 47.74303645832697,
      "v": 105
    },
    {
      "midi": 66,
      "hit": false,
      "t": 106358.46440104158,
      "d": 47.74303645832697,
      "v": 105
    },
    {
      "midi": 67,
      "hit": false,
      "t": 106406.2074374999,
      "d": 52.083312500006286,
      "v": 105
    },
    {
      "midi": 59,
      "hit": false,
      "t": 106462.63102604136,
      "d": 412.3262239583273,
      "v": 80
    },
    {
      "midi": 69,
      "hit": false,
      "t": 106462.63102604158,
      "d": 47.74303645832697,
      "v": 105
    },
    {
      "midi": 71,
      "hit": false,
      "t": 106514.71433854157,
      "d": 47.74303645832697,
      "v": 105
    },
    {
      "midi": 73,
      "hit": false,
      "t": 106566.79765104156,
      "d": 47.74303645832697,
      "v": 105
    },
    {
      "midi": 74,
      "hit": false,
      "t": 106614.54068749989,
      "d": 2560.762864583332,
      "v": 105
    },
    {
      "midi": 74,
      "hit": false,
      "t": 106679.64482812468,
      "d": 412.3262239583273,
      "v": 70
    },
    {
      "midi": 57,
      "hit": false,
      "t": 107087.63077604135,
      "d": 203.99297395833128,
      "v": 80
    },
    {
      "midi": 59,
      "hit": false,
      "t": 107295.96402604134,
      "d": 412.3262239583273,
      "v": 80
    },
    {
      "midi": 62,
      "hit": false,
      "t": 107712.63052604134,
      "d": 416.66650000000664,
      "v": 80
    },
    {
      "midi": 81,
      "hit": false,
      "t": 107920.9637760417,
      "d": 203.99297395833128,
      "v": 100
    },
    {
      "midi": 66,
      "hit": false,
      "t": 108129.29702604134,
      "d": 416.66650000000664,
      "v": 80
    },
    {
      "midi": 78,
      "hit": false,
      "t": 108337.63027604169,
      "d": 203.99297395833128,
      "v": 100
    },
    {
      "midi": 67,
      "hit": false,
      "t": 108545.96352604135,
      "d": 203.99297395833128,
      "v": 80
    },
    {
      "midi": 66,
      "hit": false,
      "t": 108754.29677604134,
      "d": 203.99297395833128,
      "v": 80
    },
    {
      "midi": 62,
      "hit": false,
      "t": 108962.63002604134,
      "d": 212.6735260416608,
      "v": 80
    },
    {
      "midi": 74,
      "hit": false,
      "t": 108962.63002604169,
      "d": 208.33324999999604,
      "v": 100
    },
    {
      "midi": 59,
      "hit": false,
      "t": 109175.303552083,
      "d": 407.98594791666255,
      "v": 80
    },
    {
      "midi": 69,
      "hit": false,
      "t": 109587.6297760417,
      "d": 203.99297395833128,
      "v": 100
    },
    {
      "midi": 74,
      "hit": false,
      "t": 110008.636552083,
      "d": 203.99297395833128,
      "v": 70
    },
    {
      "midi": 57,
      "hit": false,
      "t": 110420.96277604133,
      "d": 203.99297395833128,
      "v": 80
    },
    {
      "midi": 59,
      "hit": false,
      "t": 110629.29602604132,
      "d": 421.0067760416714,
      "v": 80
    },
    {
      "midi": 62,
      "hit": false,
      "t": 111050.302802083,
      "d": 416.66650000000664,
      "v": 80
    },
    {
      "midi": 66,
      "hit": false,
      "t": 111471.30957812467,
      "d": 203.99297395833128,
      "v": 80
    },
    {
      "midi": 78,
      "hit": false,
      "t": 111679.64282812503,
      "d": 203.99297395834583,
      "v": 100
    },
    {
      "midi": 66,
      "hit": false,
      "t": 111883.635802083,
      "d": 416.66650000000664,
      "v": 80
    },
    {
      "midi": 74,
      "hit": false,
      "t": 112295.9620260417,
      "d": 217.01380208334012,
      "v": 100
    },
    {
      "midi": 67,
      "hit": false,
      "t": 112300.302302083,
      "d": 208.33324999999604,
      "v": 80
    },
    {
      "midi": 69,
      "hit": false,
      "t": 112512.97582812466,
      "d": 203.99297395833128,
      "v": 80
    },
    {
      "midi": 67,
      "hit": false,
      "t": 112708.28824999966,
      "d": 217.01380208332557,
      "v": 80
    },
    {
      "midi": 66,
      "hit": false,
      "t": 112929.64232812465,
      "d": 833.3329999999987,
      "v": 80
    },
    {
      "midi": 78,
      "hit": false,
      "t": 112929.64232812505,
      "d": 195.31242187500175,
      "v": 100
    },
    {
      "midi": 69,
      "hit": false,
      "t": 113341.96855208339,
      "d": 199.6526979166665,
      "v": 100
    },
    {
      "midi": 57,
      "hit": false,
      "t": 113754.29477604132,
      "d": 203.99297395833128,
      "v": 80
    },
    {
      "midi": 59,
      "hit": false,
      "t": 113966.96830208298,
      "d": 407.98594791666255,
      "v": 80
    },
    {
      "midi": 62,
      "hit": false,
      "t": 114379.29452604131,
      "d": 412.3262239583273,
      "v": 80
    },
    {
      "midi": 66,
      "hit": false,
      "t": 114795.9610260413,
      "d": 412.3262239583273,
      "v": 80
    },
    {
      "midi": 67,
      "hit": false,
      "t": 115212.6275260413,
      "d": 212.6735260416608,
      "v": 80
    },
    {
      "midi": 66,
      "hit": false,
      "t": 115420.96077604129,
      "d": 203.99297395833128,
      "v": 80
    },
    {
      "midi": 62,
      "hit": false,
      "t": 115629.29402604129,
      "d": 212.6735260416608,
      "v": 80
    },
    {
      "midi": 59,
      "hit": false,
      "t": 115846.30782812461,
      "d": 828.992723958334,
      "v": 80
    },
    {
      "midi": 57,
      "hit": false,
      "t": 116675.30055208295,
      "d": 616.3191979166731,
      "v": 80
    },
    {
      "midi": 59,
      "hit": false,
      "t": 117295.96002604128,
      "d": 620.6594739583379,
      "v": 80
    },
    {
      "midi": 54,
      "hit": false,
      "t": 117920.95977604129,
      "d": 620.6594739583379,
      "v": 80
    },
    {
      "midi": 57,
      "hit": false,
      "t": 118545.95952604129,
      "d": 629.3400260416674,
      "v": 80
    },
    {
      "midi": 52,
      "hit": false,
      "t": 119179.63982812462,
      "d": 412.3262239583273,
      "v": 80
    },
    {
      "midi": 54,
      "hit": false,
      "t": 119596.30632812461,
      "d": 412.3262239583273,
      "v": 80
    },
    {
      "midi": 50,
      "hit": false,
      "t": 120012.9728281246,
      "d": 412.3262239583273,
      "v": 80
    },
    {
      "midi": 57,
      "hit": false,
      "t": 120429.6393281246,
      "d": 195.31242187500175,
      "v": 80
    },
    {
      "midi": 62,
      "hit": false,
      "t": 120629.29202604126,
      "d": 412.3262239583273,
      "v": 80
    },
    {
      "midi": 64,
      "hit": false,
      "t": 121045.95852604126,
      "d": 412.3262239583273,
      "v": 80
    },
    {
      "midi": 66,
      "hit": false,
      "t": 121462.62502604125,
      "d": 412.3262239583273,
      "v": 80
    },
    {
      "midi": 69,
      "hit": false,
      "t": 121879.29152604124,
      "d": 412.3262239583273,
      "v": 80
    },
    {
      "midi": 71,
      "hit": false,
      "t": 122295.95802604123,
      "d": 208.33324999999604,
      "v": 80
    },
    {
      "midi": 74,
      "hit": false,
      "t": 122504.29127604123,
      "d": 837.6732760416635,
      "v": 80
    },
    {
      "midi": 57,
      "hit": false,
      "t": 123346.30482812456,
      "d": 403.6456718749978,
      "v": 80
    },
    {
      "midi": 64,
      "hit": false,
      "t": 123754.29077604122,
      "d": 203.99297395833128,
      "v": 80
    },
    {
      "midi": 69,
      "hit": false,
      "t": 123962.62402604122,
      "d": 412.3262239583273,
      "v": 80
    },
    {
      "midi": 67,
      "hit": false,
      "t": 124379.29052604121,
      "d": 412.3262239583273,
      "v": 80
    },
    {
      "midi": 71,
      "hit": false,
      "t": 124795.9570260412,
      "d": 412.3262239583273,
      "v": 80
    },
    {
      "midi": 74,
      "hit": false,
      "t": 125212.62352604119,
      "d": 412.3262239583273,
      "v": 80
    },
    {
      "midi": 69,
      "hit": false,
      "t": 125629.29002604118,
      "d": 208.33324999999604,
      "v": 80
    },
    {
      "midi": 73,
      "hit": false,
      "t": 125837.62327604118,
      "d": 833.3329999999987,
      "v": 80
    },
    {
      "midi": 62,
      "hit": false,
      "t": 126675.29655208284,
      "d": 407.98594791666255,
      "v": 80
    },
    {
      "midi": 64,
      "hit": false,
      "t": 127091.96305208284,
      "d": 208.33324999999604,
      "v": 80
    },
    {
      "midi": 66,
      "hit": false,
      "t": 127300.29630208283,
      "d": 416.66650000000664,
      "v": 80
    },
    {
      "midi": 69,
      "hit": false,
      "t": 127716.96280208284,
      "d": 416.66650000000664,
      "v": 80
    },
    {
      "midi": 74,
      "hit": false,
      "t": 128133.62930208285,
      "d": 1041.6662499999948,
      "v": 80
    },
    {
      "midi": 71,
      "hit": false,
      "t": 129170.95527604118,
      "d": 412.3262239583273,
      "v": 80
    },
    {
      "midi": 69,
      "hit": false,
      "t": 129587.62177604117,
      "d": 421.0067760416714,
      "v": 80
    },
    {
      "midi": 62,
      "hit": false,
      "t": 130004.28827604117,
      "d": 412.3262239583273,
      "v": 80
    },
    {
      "midi": 64,
      "hit": false,
      "t": 130420.95477604117,
      "d": 203.99297395833128,
      "v": 80
    },
    {
      "midi": 66,
      "hit": false,
      "t": 130629.28802604116,
      "d": 412.3262239583273,
      "v": 80
    },
    {
      "midi": 69,
      "hit": false,
      "t": 131045.95452604115,
      "d": 412.3262239583273,
      "v": 80
    },
    {
      "midi": 74,
      "hit": false,
      "t": 131462.62102604116,
      "d": 1801.214557291678,
      "v": 80
    },
    {
      "midi": 57,
      "hit": false,
      "t": 142087.61677604172,
      "d": 203.99297395834583,
      "v": 100
    },
    {
      "midi": 64,
      "hit": false,
      "t": 142295.95002604174,
      "d": 203.99297395834583,
      "v": 100
    },
    {
      "midi": 69,
      "hit": false,
      "t": 142712.61652604176,
      "d": 203.99297395834583,
      "v": 100
    },
    {
      "midi": 73,
      "hit": false,
      "t": 143129.28302604178,
      "d": 208.33324999999604,
      "v": 100
    },
    {
      "midi": 64,
      "hit": false,
      "t": 155429.6253281251,
      "d": 195.3124218749872,
      "v": 100
    },
    {
      "midi": 69,
      "hit": false,
      "t": 155633.61830208343,
      "d": 208.33324999999604,
      "v": 100
    },
    {
      "midi": 71,
      "hit": false,
      "t": 156045.94452604177,
      "d": 212.67352604167536,
      "v": 100
    },
    {
      "midi": 73,
      "hit": false,
      "t": 156462.6110260418,
      "d": 212.67352604167536,
      "v": 100
    },
    {
      "midi": 69,
      "hit": false,
      "t": 157087.6107760418,
      "d": 203.99297395834583,
      "v": 100
    },
    {
      "midi": 69,
      "hit": false,
      "t": 160008.61655208285,
      "d": 2708.3322500000068,
      "v": 85
    },
    {
      "midi": 81,
      "hit": false,
      "t": 160008.61655208285,
      "d": 2708.3322500000068,
      "v": 85
    },
    {
      "midi": 81,
      "hit": false,
      "t": 161262.95632812518,
      "d": 203.99297395834583,
      "v": 100
    },
    {
      "midi": 78,
      "hit": false,
      "t": 161679.6228281252,
      "d": 203.99297395834583,
      "v": 100
    },
    {
      "midi": 74,
      "hit": false,
      "t": 162300.28230208353,
      "d": 208.33324999999604,
      "v": 100
    },
    {
      "midi": 69,
      "hit": false,
      "t": 162716.94880208286,
      "d": 624.9997500000172,
      "v": 85
    },
    {
      "midi": 81,
      "hit": false,
      "t": 162721.28907812454,
      "d": 620.6594739583379,
      "v": 85
    },
    {
      "midi": 69,
      "hit": false,
      "t": 162925.28205208352,
      "d": 208.33324999999604,
      "v": 100
    },
    {
      "midi": 69,
      "hit": false,
      "t": 163346.28882812455,
      "d": 3328.9917239583447,
      "v": 85
    },
    {
      "midi": 81,
      "hit": false,
      "t": 163350.62910416623,
      "d": 3324.6514479166653,
      "v": 85
    },
    {
      "midi": 69,
      "hit": false,
      "t": 166679.62082812458,
      "d": 3328.9917239583447,
      "v": 85
    },
    {
      "midi": 81,
      "hit": false,
      "t": 166679.62082812458,
      "d": 3337.672276041674,
      "v": 85
    },
    {
      "midi": 81,
      "hit": false,
      "t": 167920.93977604184,
      "d": 203.99297395834583,
      "v": 100
    },
    {
      "midi": 78,
      "hit": false,
      "t": 168337.60627604186,
      "d": 203.99297395834583,
      "v": 100
    },
    {
      "midi": 74,
      "hit": false,
      "t": 168962.60602604187,
      "d": 208.33324999999604,
      "v": 100
    },
    {
      "midi": 69,
      "hit": false,
      "t": 169587.60577604186,
      "d": 203.99297395834583,
      "v": 100
    },
    {
      "midi": 69,
      "hit": false,
      "t": 173346.2848281246,
      "d": 2695.311421874998,
      "v": 85
    },
    {
      "midi": 81,
      "hit": false,
      "t": 173346.2848281246,
      "d": 2695.311421874998,
      "v": 85
    },
    {
      "midi": 81,
      "hit": false,
      "t": 174587.60377604188,
      "d": 203.99297395834583,
      "v": 100
    },
    {
      "midi": 78,
      "hit": false,
      "t": 175004.2702760419,
      "d": 203.99297395834583,
      "v": 100
    },
    {
      "midi": 74,
      "hit": false,
      "t": 175629.27002604192,
      "d": 212.67352604167536,
      "v": 100
    },
    {
      "midi": 69,
      "hit": false,
      "t": 176045.93652604127,
      "d": 624.9997499999881,
      "v": 85
    },
    {
      "midi": 81,
      "hit": false,
      "t": 176045.93652604127,
      "d": 629.3400260416674,
      "v": 85
    },
    {
      "midi": 69,
      "hit": false,
      "t": 176254.26977604194,
      "d": 203.99297395834583,
      "v": 100
    },
    {
      "midi": 69,
      "hit": false,
      "t": 176675.27655208294,
      "d": 2708.3322500000068,
      "v": 85
    },
    {
      "midi": 81,
      "hit": false,
      "t": 176675.27655208294,
      "d": 2708.3322500000068,
      "v": 85
    },
    {
      "midi": 81,
      "hit": false,
      "t": 181254.26777604196,
      "d": 203.99297395834583,
      "v": 100
    },
    {
      "midi": 79,
      "hit": false,
      "t": 181670.93427604198,
      "d": 203.99297395834583,
      "v": 100
    },
    {
      "midi": 76,
      "hit": false,
      "t": 182291.59375000032,
      "d": 217.01380208332557,
      "v": 100
    },
    {
      "midi": 69,
      "hit": false,
      "t": 182920.933776042,
      "d": 203.99297395834583,
      "v": 100
    },
    {
      "midi": 69,
      "hit": false,
      "t": 184175.27355208294,
      "d": 828.992723958334,
      "v": 70
    },
    {
      "midi": 81,
      "hit": false,
      "t": 184175.27355208294,
      "d": 833.3330000000133,
      "v": 70
    },
    {
      "midi": 69,
      "hit": false,
      "t": 185008.60655208296,
      "d": 828.992723958334,
      "v": 70
    },
    {
      "midi": 81,
      "hit": false,
      "t": 185008.60655208296,
      "d": 837.6732760416635,
      "v": 70
    },
    {
      "midi": 69,
      "hit": false,
      "t": 185846.27982812462,
      "d": 828.992723958334,
      "v": 70
    },
    {
      "midi": 81,
      "hit": false,
      "t": 185846.27982812462,
      "d": 837.6732760416635,
      "v": 70
    },
    {
      "midi": 74,
      "hit": false,
      "t": 186688.29338020796,
      "d": 403.64567187501234,
      "v": 70
    },
    {
      "midi": 57,
      "hit": false,
      "t": 187096.27932812466,
      "d": 203.99297395834583,
      "v": 80
    },
    {
      "midi": 59,
      "hit": false,
      "t": 187304.61257812468,
      "d": 203.99297395834583,
      "v": 80
    },
    {
      "midi": 62,
      "hit": false,
      "t": 187716.93880208302,
      "d": 208.33324999999604,
      "v": 80
    },
    {
      "midi": 81,
      "hit": false,
      "t": 187929.61232812534,
      "d": 195.3124218749872,
      "v": 100
    },
    {
      "midi": 66,
      "hit": false,
      "t": 188133.60530208301,
      "d": 416.6664999999921,
      "v": 80
    },
    {
      "midi": 78,
      "hit": false,
      "t": 188341.93855208365,
      "d": 199.6526979166665,
      "v": 100
    },
    {
      "midi": 67,
      "hit": false,
      "t": 188550.271802083,
      "d": 208.33324999999604,
      "v": 80
    },
    {
      "midi": 66,
      "hit": false,
      "t": 188762.94532812468,
      "d": 203.99297395834583,
      "v": 80
    },
    {
      "midi": 74,
      "hit": false,
      "t": 188958.2577500003,
      "d": 212.67352604167536,
      "v": 100
    },
    {
      "midi": 62,
      "hit": false,
      "t": 188971.2785781247,
      "d": 203.99297395834583,
      "v": 80
    },
    {
      "midi": 57,
      "hit": false,
      "t": 189179.61182812473,
      "d": 403.64567187501234,
      "v": 80
    },
    {
      "midi": 69,
      "hit": false,
      "t": 189587.59777604198,
      "d": 203.99297395834583,
      "v": 100
    },
    {
      "midi": 74,
      "hit": false,
      "t": 190008.60455208307,
      "d": 199.6526979166665,
      "v": 70
    },
    {
      "midi": 57,
      "hit": false,
      "t": 190420.9307760414,
      "d": 203.99297395834583,
      "v": 80
    },
    {
      "midi": 59,
      "hit": false,
      "t": 190629.26402604143,
      "d": 412.32622395834187,
      "v": 80
    },
    {
      "midi": 62,
      "hit": false,
      "t": 191045.93052604145,
      "d": 412.32622395834187,
      "v": 80
    },
    {
      "midi": 66,
      "hit": false,
      "t": 191462.59702604148,
      "d": 416.6664999999921,
      "v": 80
    },
    {
      "midi": 78,
      "hit": false,
      "t": 191670.93027604197,
      "d": 203.99297395834583,
      "v": 100
    },
    {
      "midi": 66,
      "hit": false,
      "t": 191879.26352604147,
      "d": 412.32622395834187,
      "v": 80
    },
    {
      "midi": 67,
      "hit": false,
      "t": 192295.9300260415,
      "d": 208.33324999999604,
      "v": 80
    },
    {
      "midi": 74,
      "hit": false,
      "t": 192295.93002604198,
      "d": 208.33324999999604,
      "v": 100
    },
    {
      "midi": 69,
      "hit": false,
      "t": 192508.60355208316,
      "d": 199.6526979166665,
      "v": 80
    },
    {
      "midi": 67,
      "hit": false,
      "t": 192712.5965260415,
      "d": 203.99297395834583,
      "v": 80
    },
    {
      "midi": 66,
      "hit": false,
      "t": 192920.92977604154,
      "d": 620.6594739583379,
      "v": 80
    },
    {
      "midi": 69,
      "hit": false,
      "t": 192920.92977604197,
      "d": 203.99297395834583,
      "v": 100
    },
    {
      "midi": 74,
      "hit": false,
      "t": 193341.9365520832,
      "d": 407.98594791666255,
      "v": 70
    },
    {
      "midi": 57,
      "hit": false,
      "t": 193754.26277604155,
      "d": 203.99297395834583,
      "v": 80
    },
    {
      "midi": 59,
      "hit": false,
      "t": 193962.59602604157,
      "d": 421.0067760416714,
      "v": 80
    },
    {
      "midi": 62,
      "hit": false,
      "t": 194383.60280208325,
      "d": 416.6664999999921,
      "v": 80
    },
    {
      "midi": 81,
      "hit": false,
      "t": 194591.93605208365,
      "d": 208.33324999999604,
      "v": 100
    },
    {
      "midi": 66,
      "hit": false,
      "t": 194804.60957812492,
      "d": 412.32622395834187,
      "v": 80
    },
    {
      "midi": 78,
      "hit": false,
      "t": 195008.60255208364,
      "d": 208.33324999999604,
      "v": 100
    },
    {
      "midi": 67,
      "hit": false,
      "t": 195221.27607812494,
      "d": 203.99297395834583,
      "v": 80
    },
    {
      "midi": 66,
      "hit": false,
      "t": 195429.60932812496,
      "d": 203.99297395834583,
      "v": 80
    },
    {
      "midi": 74,
      "hit": false,
      "t": 195633.60230208363,
      "d": 212.67352604167536,
      "v": 100
    },
    {
      "midi": 62,
      "hit": false,
      "t": 195637.942578125,
      "d": 203.99297395834583,
      "v": 80
    },
    {
      "midi": 57,
      "hit": false,
      "t": 195846.275828125,
      "d": 412.32622395834187,
      "v": 80
    },
    {
      "midi": 69,
      "hit": false,
      "t": 196249.92150000032,
      "d": 208.33324999999604,
      "v": 100
    },
    {
      "midi": 74,
      "hit": false,
      "t": 196675.26855208335,
      "d": 203.99297395834583,
      "v": 70
    },
    {
      "midi": 57,
      "hit": false,
      "t": 197096.27532812502,
      "d": 195.3124218749872,
      "v": 80
    },
    {
      "midi": 59,
      "hit": false,
      "t": 197300.26830208334,
      "d": 407.98594791666255,
      "v": 80
    },
    {
      "midi": 62,
      "hit": false,
      "t": 197712.59452604168,
      "d": 412.32622395834187,
      "v": 80
    },
    {
      "midi": 66,
      "hit": false,
      "t": 198129.2610260417,
      "d": 212.67352604167536,
      "v": 80
    },
    {
      "midi": 78,
      "hit": false,
      "t": 198341.93455208367,
      "d": 199.6526979166665,
      "v": 100
    },
    {
      "midi": 66,
      "hit": false,
      "t": 198545.92752604172,
      "d": 203.99297395834583,
      "v": 80
    },
    {
      "midi": 62,
      "hit": false,
      "t": 198962.59402604174,
      "d": 208.33324999999604,
      "v": 80
    },
    {
      "midi": 74,
      "hit": false,
      "t": 198962.594026042,
      "d": 208.33324999999604,
      "v": 100
    },
    {
      "midi": 59,
      "hit": false,
      "t": 199175.26755208342,
      "d": 199.6526979166665,
      "v": 80
    },
    {
      "midi": 66,
      "hit": false,
      "t": 199379.26052604176,
      "d": 212.67352604167536,
      "v": 80
    },
    {
      "midi": 62,
      "hit": false,
      "t": 199587.59377604176,
      "d": 203.99297395834583,
      "v": 80
    },
    {
      "midi": 71,
      "hit": false,
      "t": 199587.593776042,
      "d": 208.33324999999604,
      "v": 100
    },
    {
      "midi": 59,
      "hit": false,
      "t": 199800.26730208343,
      "d": 412.32622395834187,
      "v": 80
    },
    {
      "midi": 74,
      "hit": false,
      "t": 200012.9408281251,
      "d": 412.32622395834187,
      "v": 70
    },
    {
      "midi": 69,
      "hit": false,
      "t": 200012.9408281253,
      "d": 195.3124218749872,
      "v": 100
    },
    {
      "midi": 57,
      "hit": false,
      "t": 200420.92677604177,
      "d": 203.99297395834583,
      "v": 80
    },
    {
      "midi": 59,
      "hit": false,
      "t": 200629.2600260418,
      "d": 412.32622395834187,
      "v": 80
    },
    {
      "midi": 62,
      "hit": false,
      "t": 201045.92652604182,
      "d": 416.6664999999921,
      "v": 80
    },
    {
      "midi": 81,
      "hit": false,
      "t": 201254.25977604196,
      "d": 203.99297395834583,
      "v": 100
    },
    {
      "midi": 66,
      "hit": false,
      "t": 201462.5930260418,
      "d": 416.6664999999921,
      "v": 80
    },
    {
      "midi": 78,
      "hit": false,
      "t": 201670.92627604198,
      "d": 203.99297395834583,
      "v": 100
    },
    {
      "midi": 67,
      "hit": false,
      "t": 201879.2595260418,
      "d": 203.99297395834583,
      "v": 80
    },
    {
      "midi": 66,
      "hit": false,
      "t": 202087.59277604183,
      "d": 203.99297395834583,
      "v": 80
    },
    {
      "midi": 62,
      "hit": false,
      "t": 202295.92602604185,
      "d": 208.33324999999604,
      "v": 80
    },
    {
      "midi": 74,
      "hit": false,
      "t": 202295.926026042,
      "d": 208.33324999999604,
      "v": 100
    },
    {
      "midi": 57,
      "hit": false,
      "t": 202508.59955208353,
      "d": 416.6664999999921,
      "v": 80
    },
    {
      "midi": 69,
      "hit": false,
      "t": 202925.26605208367,
      "d": 208.33324999999604,
      "v": 100
    },
    {
      "midi": 74,
      "hit": false,
      "t": 203341.9325520835,
      "d": 208.33324999999604,
      "v": 70
    },
    {
      "midi": 57,
      "hit": false,
      "t": 203762.93932812518,
      "d": 203.99297395834583,
      "v": 80
    },
    {
      "midi": 59,
      "hit": false,
      "t": 203971.2725781252,
      "d": 403.64567187501234,
      "v": 80
    },
    {
      "midi": 62,
      "hit": false,
      "t": 204383.59880208355,
      "d": 407.98594791666255,
      "v": 80
    },
    {
      "midi": 66,
      "hit": false,
      "t": 204800.26530208354,
      "d": 416.6664999999921,
      "v": 80
    },
    {
      "midi": 78,
      "hit": false,
      "t": 205008.59855208365,
      "d": 199.6526979166665,
      "v": 100
    },
    {
      "midi": 66,
      "hit": false,
      "t": 205216.93180208353,
      "d": 407.98594791666255,
      "v": 80
    },
    {
      "midi": 74,
      "hit": false,
      "t": 205629.258026042,
      "d": 208.33324999999604,
      "v": 100
    },
    {
      "midi": 67,
      "hit": false,
      "t": 205633.59830208353,
      "d": 208.33324999999604,
      "v": 80
    },
    {
      "midi": 69,
      "hit": false,
      "t": 205846.2718281252,
      "d": 195.3124218749872,
      "v": 80
    },
    {
      "midi": 67,
      "hit": false,
      "t": 206045.92452604187,
      "d": 212.67352604167536,
      "v": 80
    },
    {
      "midi": 69,
      "hit": false,
      "t": 206249.91750000033,
      "d": 208.33324999999604,
      "v": 100
    },
    {
      "midi": 66,
      "hit": false,
      "t": 206254.25777604186,
      "d": 620.6594739583379,
      "v": 80
    },
    {
      "midi": 74,
      "hit": false,
      "t": 206679.60482812522,
      "d": 412.32622395834187,
      "v": 70
    },
    {
      "midi": 57,
      "hit": false,
      "t": 207087.59077604188,
      "d": 203.99297395834583,
      "v": 80
    },
    {
      "midi": 59,
      "hit": false,
      "t": 207295.9240260419,
      "d": 412.32622395834187,
      "v": 80
    },
    {
      "midi": 62,
      "hit": false,
      "t": 207712.59052604192,
      "d": 416.6664999999921,
      "v": 80
    },
    {
      "midi": 81,
      "hit": false,
      "t": 207920.923776042,
      "d": 203.99297395834583,
      "v": 100
    },
    {
      "midi": 66,
      "hit": false,
      "t": 208129.25702604192,
      "d": 416.6664999999921,
      "v": 80
    },
    {
      "midi": 78,
      "hit": false,
      "t": 208337.59027604203,
      "d": 203.99297395834583,
      "v": 100
    },
    {
      "midi": 67,
      "hit": false,
      "t": 208545.9235260419,
      "d": 203.99297395834583,
      "v": 80
    },
    {
      "midi": 66,
      "hit": false,
      "t": 208754.25677604193,
      "d": 203.99297395834583,
      "v": 80
    },
    {
      "midi": 62,
      "hit": false,
      "t": 208962.59002604196,
      "d": 208.33324999999604,
      "v": 80
    },
    {
      "midi": 74,
      "hit": false,
      "t": 208962.59002604205,
      "d": 208.33324999999604,
      "v": 100
    },
    {
      "midi": 59,
      "hit": false,
      "t": 209175.26355208363,
      "d": 407.98594791666255,
      "v": 80
    },
    {
      "midi": 69,
      "hit": false,
      "t": 209587.58977604203,
      "d": 203.99297395834583,
      "v": 100
    },
    {
      "midi": 74,
      "hit": false,
      "t": 210008.59655208362,
      "d": 199.6526979166665,
      "v": 70
    },
    {
      "midi": 57,
      "hit": false,
      "t": 210420.92277604196,
      "d": 203.99297395834583,
      "v": 80
    },
    {
      "midi": 59,
      "hit": false,
      "t": 210629.25602604199,
      "d": 421.0067760416714,
      "v": 80
    },
    {
      "midi": 62,
      "hit": false,
      "t": 211050.26280208366,
      "d": 421.0067760416714,
      "v": 80
    },
    {
      "midi": 81,
      "hit": false,
      "t": 211258.5960520837,
      "d": 208.33324999999604,
      "v": 100
    },
    {
      "midi": 66,
      "hit": false,
      "t": 211471.26957812533,
      "d": 203.99297395834583,
      "v": 80
    },
    {
      "midi": 50,
      "hit": false,
      "t": 211679.6028281249,
      "d": 30.38193229166791,
      "v": 105
    },
    {
      "midi": 79,
      "hit": false,
      "t": 211679.60282812538,
      "d": 203.99297395834583,
      "v": 100
    },
    {
      "midi": 52,
      "hit": false,
      "t": 211718.66531249988,
      "d": 52.083312500006286,
      "v": 105
    },
    {
      "midi": 54,
      "hit": false,
      "t": 211779.42917708322,
      "d": 43.402760416676756,
      "v": 105
    },
    {
      "midi": 55,
      "hit": false,
      "t": 211831.51248958323,
      "d": 43.402760416676756,
      "v": 105
    },
    {
      "midi": 57,
      "hit": false,
      "t": 211887.9360781249,
      "d": 39.06248437499744,
      "v": 105
    },
    {
      "midi": 66,
      "hit": false,
      "t": 211887.93607812535,
      "d": 203.99297395834583,
      "v": 80
    },
    {
      "midi": 59,
      "hit": false,
      "t": 211935.67911458324,
      "d": 43.402760416676756,
      "v": 105
    },
    {
      "midi": 61,
      "hit": false,
      "t": 211987.76242708325,
      "d": 43.402760416676756,
      "v": 105
    },
    {
      "midi": 62,
      "hit": false,
      "t": 212039.84573958325,
      "d": 52.083312500006286,
      "v": 105
    },
    {
      "midi": 64,
      "hit": false,
      "t": 212096.26932812494,
      "d": 39.06248437499744,
      "v": 105
    },
    {
      "midi": 66,
      "hit": false,
      "t": 212144.01236458326,
      "d": 43.402760416676756,
      "v": 105
    },
    {
      "midi": 67,
      "hit": false,
      "t": 212196.09567708327,
      "d": 52.083312500006286,
      "v": 105
    },
    {
      "midi": 40,
      "hit": false,
      "t": 212239.49843749995,
      "d": 52.083312500006286,
      "v": 105
    },
    {
      "midi": 42,
      "hit": false,
      "t": 212300.26230208328,
      "d": 43.402760416676756,
      "v": 105
    },
    {
      "midi": 62,
      "hit": false,
      "t": 212300.2623020837,
      "d": 217.01380208335468,
      "v": 80
    },
    {
      "midi": 76,
      "hit": false,
      "t": 212300.26230208372,
      "d": 212.67352604167536,
      "v": 100
    },
    {
      "midi": 43,
      "hit": false,
      "t": 212352.3456145833,
      "d": 43.402760416676756,
      "v": 105
    },
    {
      "midi": 45,
      "hit": false,
      "t": 212404.4289270833,
      "d": 43.402760416676756,
      "v": 105
    },
    {
      "midi": 47,
      "hit": false,
      "t": 212452.17196354165,
      "d": 52.083312500006286,
      "v": 105
    },
    {
      "midi": 49,
      "hit": false,
      "t": 212508.59555208334,
      "d": 34.722208333347226,
      "v": 105
    },
    {
      "midi": 59,
      "hit": false,
      "t": 212512.93582812537,
      "d": 203.99297395834583,
      "v": 80
    },
    {
      "midi": 50,
      "hit": false,
      "t": 212547.65803645836,
      "d": 56.4235885416565,
      "v": 105
    },
    {
      "midi": 52,
      "hit": false,
      "t": 212612.76217708335,
      "d": 43.402760416676756,
      "v": 105
    },
    {
      "midi": 54,
      "hit": false,
      "t": 212656.16493750003,
      "d": 52.083312500006286,
      "v": 105
    },
    {
      "midi": 55,
      "hit": false,
      "t": 212716.92880208336,
      "d": 43.402760416676756,
      "v": 105
    },
    {
      "midi": 66,
      "hit": false,
      "t": 212721.2690781254,
      "d": 212.67352604167536,
      "v": 80
    },
    {
      "midi": 57,
      "hit": false,
      "t": 212760.33156250004,
      "d": 52.083312500006286,
      "v": 105
    },
    {
      "midi": 59,
      "hit": false,
      "t": 212821.09542708338,
      "d": 43.402760416676756,
      "v": 105
    },
    {
      "midi": 61,
      "hit": false,
      "t": 212864.49818750005,
      "d": 52.083312500006286,
      "v": 105
    },
    {
      "midi": 62,
      "hit": false,
      "t": 212925.2620520834,
      "d": 43.402760416676756,
      "v": 105
    },
    {
      "midi": 62,
      "hit": false,
      "t": 212929.6023281254,
      "d": 203.99297395834583,
      "v": 80
    },
    {
      "midi": 69,
      "hit": false,
      "t": 212929.6023281254,
      "d": 208.33324999999604,
      "v": 100
    },
    {
      "midi": 64,
      "hit": false,
      "t": 212968.66481250006,
      "d": 52.083312500006286,
      "v": 105
    },
    {
      "midi": 66,
      "hit": false,
      "t": 213029.4286770834,
      "d": 43.402760416676756,
      "v": 105
    },
    {
      "midi": 67,
      "hit": false,
      "t": 213072.83143750008,
      "d": 52.083312500006286,
      "v": 105
    },
    {
      "midi": 69,
      "hit": false,
      "t": 213133.5953020834,
      "d": 43.402760416676756,
      "v": 105
    },
    {
      "midi": 59,
      "hit": false,
      "t": 213137.9355781254,
      "d": 412.32622395834187,
      "v": 80
    },
    {
      "midi": 71,
      "hit": false,
      "t": 213176.9980625001,
      "d": 52.083312500006286,
      "v": 105
    },
    {
      "midi": 73,
      "hit": false,
      "t": 213237.76192708343,
      "d": 43.402760416676756,
      "v": 105
    },
    {
      "midi": 74,
      "hit": false,
      "t": 213285.50496354178,
      "d": 1306.4230885416619,
      "v": 105
    },
    {
      "midi": 74,
      "hit": false,
      "t": 213350.6091041671,
      "d": 407.98594791666255,
      "v": 70
    },
    {
      "midi": 57,
      "hit": false,
      "t": 213762.93532812543,
      "d": 195.3124218749872,
      "v": 80
    },
    {
      "midi": 59,
      "hit": false,
      "t": 213966.92830208375,
      "d": 407.98594791666255,
      "v": 80
    },
    {
      "midi": 62,
      "hit": false,
      "t": 214379.2545260421,
      "d": 416.6664999999921,
      "v": 80
    },
    {
      "midi": 81,
      "hit": false,
      "t": 214591.92805208373,
      "d": 199.6526979166665,
      "v": 100
    },
    {
      "midi": 66,
      "hit": false,
      "t": 214795.92102604208,
      "d": 416.6664999999921,
      "v": 80
    },
    {
      "midi": 78,
      "hit": false,
      "t": 215008.59455208373,
      "d": 199.6526979166665,
      "v": 100
    },
    {
      "midi": 67,
      "hit": false,
      "t": 215212.58752604207,
      "d": 212.67352604167536,
      "v": 80
    },
    {
      "midi": 66,
      "hit": false,
      "t": 215420.92077604207,
      "d": 203.99297395834583,
      "v": 80
    },
    {
      "midi": 74,
      "hit": false,
      "t": 215629.25402604206,
      "d": 217.01380208332557,
      "v": 100
    },
    {
      "midi": 62,
      "hit": false,
      "t": 215629.2540260421,
      "d": 212.67352604167536,
      "v": 80
    },
    {
      "midi": 59,
      "hit": false,
      "t": 215846.26782812545,
      "d": 403.64567187501234,
      "v": 80
    },
    {
      "midi": 69,
      "hit": false,
      "t": 216254.25377604205,
      "d": 203.99297395834583,
      "v": 100
    },
    {
      "midi": 74,
      "hit": false,
      "t": 216675.26055208378,
      "d": 199.6526979166665,
      "v": 70
    },
    {
      "midi": 57,
      "hit": false,
      "t": 217087.58677604212,
      "d": 203.99297395834583,
      "v": 80
    },
    {
      "midi": 59,
      "hit": false,
      "t": 217295.92002604215,
      "d": 412.32622395834187,
      "v": 80
    },
    {
      "midi": 62,
      "hit": false,
      "t": 217712.58652604217,
      "d": 412.32622395834187,
      "v": 80
    },
    {
      "midi": 66,
      "hit": false,
      "t": 218129.2530260422,
      "d": 208.33324999999604,
      "v": 80
    },
    {
      "midi": 78,
      "hit": false,
      "t": 218341.92655208372,
      "d": 199.6526979166665,
      "v": 100
    },
    {
      "midi": 66,
      "hit": false,
      "t": 218545.91952604218,
      "d": 412.32622395834187,
      "v": 80
    },
    {
      "midi": 74,
      "hit": false,
      "t": 218962.58602604206,
      "d": 212.67352604167536,
      "v": 100
    },
    {
      "midi": 67,
      "hit": false,
      "t": 218962.5860260422,
      "d": 212.67352604167536,
      "v": 80
    },
    {
      "midi": 69,
      "hit": false,
      "t": 219179.59982812556,
      "d": 203.99297395834583,
      "v": 80
    },
    {
      "midi": 67,
      "hit": false,
      "t": 219383.5928020839,
      "d": 208.33324999999604,
      "v": 80
    },
    {
      "midi": 78,
      "hit": false,
      "t": 219596.2663281254,
      "d": 203.99297395834583,
      "v": 100
    },
    {
      "midi": 66,
      "hit": false,
      "t": 219596.26632812558,
      "d": 828.992723958334,
      "v": 80
    },
    {
      "midi": 69,
      "hit": false,
      "t": 220012.9328281254,
      "d": 203.99297395834583,
      "v": 100
    },
    {
      "midi": 57,
      "hit": false,
      "t": 220429.5993281256,
      "d": 203.99297395834583,
      "v": 80
    },
    {
      "midi": 59,
      "hit": false,
      "t": 220633.59230208394,
      "d": 407.98594791666255,
      "v": 80
    },
    {
      "midi": 62,
      "hit": false,
      "t": 221050.25880208393,
      "d": 407.98594791666255,
      "v": 80
    },
    {
      "midi": 66,
      "hit": false,
      "t": 221466.92530208392,
      "d": 407.98594791666255,
      "v": 80
    },
    {
      "midi": 67,
      "hit": false,
      "t": 221883.59180208392,
      "d": 208.33325000002515,
      "v": 80
    },
    {
      "midi": 66,
      "hit": false,
      "t": 222087.58477604226,
      "d": 212.67352604170446,
      "v": 80
    },
    {
      "midi": 62,
      "hit": false,
      "t": 222295.9180260423,
      "d": 212.67352604167536,
      "v": 80
    },
    {
      "midi": 59,
      "hit": false,
      "t": 222512.93182812564,
      "d": 828.992723958334,
      "v": 80
    },
    {
      "midi": 57,
      "hit": false,
      "t": 223346.26482812566,
      "d": 611.9789218750084,
      "v": 80
    },
    {
      "midi": 59,
      "hit": false,
      "t": 223962.58402604234,
      "d": 620.6594739583379,
      "v": 80
    },
    {
      "midi": 54,
      "hit": false,
      "t": 224587.58377604236,
      "d": 620.6594739583379,
      "v": 80
    },
    {
      "midi": 57,
      "hit": false,
      "t": 225212.58352604238,
      "d": 624.9997499999881,
      "v": 80
    },
    {
      "midi": 52,
      "hit": false,
      "t": 225837.58327604237,
      "d": 412.32622395834187,
      "v": 80
    },
    {
      "midi": 54,
      "hit": false,
      "t": 226254.2497760424,
      "d": 421.0067760416714,
      "v": 80
    },
    {
      "midi": 50,
      "hit": false,
      "t": 226675.25655208406,
      "d": 407.98594791666255,
      "v": 80
    },
    {
      "midi": 57,
      "hit": false,
      "t": 227091.92305208405,
      "d": 190.97214583333698,
      "v": 80
    },
    {
      "midi": 62,
      "hit": false,
      "t": 227291.57575000072,
      "d": 425.3470520833216,
      "v": 80
    },
    {
      "midi": 64,
      "hit": false,
      "t": 227716.92280208404,
      "d": 407.98594791666255,
      "v": 80
    },
    {
      "midi": 66,
      "hit": false,
      "t": 228133.58930208403,
      "d": 407.98594791666255,
      "v": 80
    },
    {
      "midi": 69,
      "hit": false,
      "t": 228550.25580208402,
      "d": 407.98594791666255,
      "v": 80
    },
    {
      "midi": 71,
      "hit": false,
      "t": 228962.58202604236,
      "d": 208.33324999999604,
      "v": 80
    },
    {
      "midi": 74,
      "hit": false,
      "t": 229170.91527604236,
      "d": 846.3538281250221,
      "v": 80
    },
    {
      "midi": 57,
      "hit": false,
      "t": 230012.9288281257,
      "d": 403.64567187501234,
      "v": 80
    },
    {
      "midi": 64,
      "hit": false,
      "t": 230420.9147760424,
      "d": 203.99297395834583,
      "v": 80
    },
    {
      "midi": 69,
      "hit": false,
      "t": 230629.24802604242,
      "d": 412.32622395834187,
      "v": 80
    },
    {
      "midi": 67,
      "hit": false,
      "t": 231045.91452604244,
      "d": 412.32622395834187,
      "v": 80
    },
    {
      "midi": 71,
      "hit": false,
      "t": 231462.58102604246,
      "d": 412.32622395834187,
      "v": 80
    },
    {
      "midi": 74,
      "hit": false,
      "t": 231879.24752604248,
      "d": 412.32622395834187,
      "v": 80
    },
    {
      "midi": 69,
      "hit": false,
      "t": 232295.9140260425,
      "d": 208.33324999999604,
      "v": 80
    },
    {
      "midi": 73,
      "hit": false,
      "t": 232504.2472760425,
      "d": 837.6732760416635,
      "v": 80
    },
    {
      "midi": 62,
      "hit": false,
      "t": 233341.92055208416,
      "d": 407.98594791666255,
      "v": 80
    },
    {
      "midi": 64,
      "hit": false,
      "t": 233754.2467760425,
      "d": 203.99297395834583,
      "v": 80
    },
    {
      "midi": 66,
      "hit": false,
      "t": 233962.58002604253,
      "d": 412.32622395834187,
      "v": 80
    },
    {
      "midi": 69,
      "hit": false,
      "t": 234379.24652604255,
      "d": 412.32622395834187,
      "v": 80
    },
    {
      "midi": 74,
      "hit": false,
      "t": 234795.91302604257,
      "d": 1046.0065260416595,
      "v": 80
    },
    {
      "midi": 71,
      "hit": false,
      "t": 235841.91955208423,
      "d": 416.6664999999921,
      "v": 80
    },
    {
      "midi": 69,
      "hit": false,
      "t": 236249.9055000009,
      "d": 434.02760416665114,
      "v": 80
    },
    {
      "midi": 62,
      "hit": false,
      "t": 236675.25255208422,
      "d": 407.98594791666255,
      "v": 80
    },
    {
      "midi": 64,
      "hit": false,
      "t": 237091.9190520842,
      "d": 199.6526979166665,
      "v": 80
    },
    {
      "midi": 66,
      "hit": false,
      "t": 237300.2523020842,
      "d": 407.98594791666255,
      "v": 80
    },
    {
      "midi": 69,
      "hit": false,
      "t": 237716.9188020842,
      "d": 407.98594791666255,
      "v": 80
    },
    {
      "midi": 74,
      "hit": false,
      "t": 238129.24502604254,
      "d": 1041.6662500000093,
      "v": 80
    },
    {
      "midi": 71,
      "hit": false,
      "t": 239170.91127604255,
      "d": 421.0067760416714,
      "v": 80
    },
    {
      "midi": 69,
      "hit": false,
      "t": 239583.2375000009,
      "d": 425.3470520833216,
      "v": 80
    },
    {
      "midi": 50,
      "hit": false,
      "t": 240012.9248281259,
      "d": 403.64567187501234,
      "v": 80
    },
    {
      "midi": 57,
      "hit": false,
      "t": 240420.91077604258,
      "d": 203.99297395834583,
      "v": 80
    },
    {
      "midi": 62,
      "hit": false,
      "t": 240629.2440260426,
      "d": 412.32622395834187,
      "v": 80
    },
    {
      "midi": 64,
      "hit": false,
      "t": 241045.91052604263,
      "d": 412.32622395834187,
      "v": 80
    },
    {
      "midi": 66,
      "hit": false,
      "t": 241462.57702604265,
      "d": 403.64567187501234,
      "v": 80
    },
    {
      "midi": 69,
      "hit": false,
      "t": 241874.903250001,
      "d": 416.6664999999921,
      "v": 80
    },
    {
      "midi": 71,
      "hit": false,
      "t": 242295.91002604266,
      "d": 221.3540781250049,
      "v": 80
    },
    {
      "midi": 74,
      "hit": false,
      "t": 242504.24327604266,
      "d": 837.6732760416635,
      "v": 80
    },
    {
      "midi": 57,
      "hit": false,
      "t": 243346.256828126,
      "d": 403.64567187501234,
      "v": 80
    },
    {
      "midi": 64,
      "hit": false,
      "t": 243754.2427760427,
      "d": 203.99297395834583,
      "v": 80
    },
    {
      "midi": 69,
      "hit": false,
      "t": 243962.57602604272,
      "d": 412.32622395834187,
      "v": 80
    },
    {
      "midi": 67,
      "hit": false,
      "t": 244379.24252604274,
      "d": 412.32622395834187,
      "v": 80
    },
    {
      "midi": 71,
      "hit": false,
      "t": 244795.90902604276,
      "d": 412.32622395834187,
      "v": 80
    },
    {
      "midi": 74,
      "hit": false,
      "t": 245212.57552604278,
      "d": 412.32622395834187,
      "v": 80
    },
    {
      "midi": 67,
      "hit": false,
      "t": 245629.2420260428,
      "d": 208.33324999999604,
      "v": 80
    },
    {
      "midi": 73,
      "hit": false,
      "t": 245837.5752760428,
      "d": 837.6732760416635,
      "v": 80
    },
    {
      "midi": 62,
      "hit": false,
      "t": 246679.58882812614,
      "d": 403.64567187501234,
      "v": 80
    },
    {
      "midi": 64,
      "hit": false,
      "t": 247187.40112500117,
      "d": 208.33324999999604,
      "v": 80
    },
    {
      "midi": 66,
      "hit": false,
      "t": 247708.23425000117,
      "d": 416.6664999999921,
      "v": 80
    },
    {
      "midi": 69,
      "hit": false,
      "t": 248229.06737500118,
      "d": 416.6664999999921,
      "v": 80
    },
    {
      "midi": 74,
      "hit": false,
      "t": 248749.90050000118,
      "d": 624.9997500000172,
      "v": 80
    },
    {
      "midi": 66,
      "hit": false,
      "t": 249270.7336250012,
      "d": 416.6665000000212,
      "v": 80
    },
    {
      "midi": 71,
      "hit": false,
      "t": 249791.56675000122,
      "d": 416.6664999999921,
      "v": 80
    },
    {
      "midi": 69,
      "hit": false,
      "t": 250312.39987500123,
      "d": 416.6664999999921,
      "v": 80
    },
    {
      "midi": 66,
      "hit": false,
      "t": 250841.91355208456,
      "d": 828.992723958334,
      "v": 80
    },
    {
      "midi": 69,
      "hit": false,
      "t": 250841.91355208456,
      "d": 828.992723958334,
      "v": 80
    },
    {
      "midi": 74,
      "hit": false,
      "t": 250841.91355208456,
      "d": 833.3330000000133,
      "v": 80
    }
  ]
}