{
  "jsonPath": "Rock/Alternative Rock/Mercury Rev/gymnopedies-3.json",
  "path": "Rock\\Alternative Rock\\Mercury Rev\\Gymnopedies 3.mid",
  "name": "Gymnopedies 3",
  "difficulty": "Advanced",
  "bpm": 120,
  "notes": [
    {
      "midi": 45,
      "hit": false,
      "t": 0,
      "d": 880.2083333333333,
      "v": 64
    },
    {
      "midi": 64,
      "hit": false,
      "t": 708.3333333333333,
      "d": 1463.5416666666667,
      "v": 49
    },
    {
      "midi": 69,
      "hit": false,
      "t": 708.3333333333333,
      "d": 1479.1666666666667,
      "v": 43
    },
    {
      "midi": 60,
      "hit": false,
      "t": 713.5416666666666,
      "d": 1463.541666666667,
      "v": 43
    },
    {
      "midi": 38,
      "hit": false,
      "t": 2015.625,
      "d": 807.2916666666665,
      "v": 59
    },
    {
      "midi": 67,
      "hit": false,
      "t": 2651.0416666666665,
      "d": 1661.4583333333335,
      "v": 60
    },
    {
      "midi": 64,
      "hit": false,
      "t": 2656.25,
      "d": 1578.125,
      "v": 47
    },
    {
      "midi": 59,
      "hit": false,
      "t": 2666.6666666666665,
      "d": 1546.8750000000005,
      "v": 48
    },
    {
      "midi": 45,
      "hit": false,
      "t": 4140.625,
      "d": 838.541666666667,
      "v": 71
    },
    {
      "midi": 69,
      "hit": false,
      "t": 4822.916666666667,
      "d": 1583.333333333334,
      "v": 54
    },
    {
      "midi": 60,
      "hit": false,
      "t": 4833.333333333334,
      "d": 1552.083333333334,
      "v": 54
    },
    {
      "midi": 64,
      "hit": false,
      "t": 4838.541666666667,
      "d": 1520.833333333334,
      "v": 51
    },
    {
      "midi": 38,
      "hit": false,
      "t": 6255.208333333334,
      "d": 817.7083333333339,
      "v": 54
    },
    {
      "midi": 64,
      "hit": false,
      "t": 6953.125000000002,
      "d": 447.91666666666606,
      "v": 36
    },
    {
      "midi": 67,
      "hit": false,
      "t": 6953.125000000002,
      "d": 822.9166666666661,
      "v": 38
    },
    {
      "midi": 59,
      "hit": false,
      "t": 6958.333333333335,
      "d": 270.83333333333303,
      "v": 33
    },
    {
      "midi": 81,
      "hit": false,
      "t": 8364.583333333334,
      "d": 1854.166666666666,
      "v": 95
    },
    {
      "midi": 45,
      "hit": false,
      "t": 8369.791666666668,
      "d": 255.20833333333394,
      "v": 33
    },
    {
      "midi": 69,
      "hit": false,
      "t": 9031.250000000002,
      "d": 479.1666666666679,
      "v": 30
    },
    {
      "midi": 64,
      "hit": false,
      "t": 9031.250000000002,
      "d": 552.0833333333339,
      "v": 35
    },
    {
      "midi": 60,
      "hit": false,
      "t": 9036.458333333336,
      "d": 593.75,
      "v": 22
    },
    {
      "midi": 79,
      "hit": false,
      "t": 10109.375000000002,
      "d": 796.875,
      "v": 91
    },
    {
      "midi": 48,
      "hit": false,
      "t": 10135.416666666668,
      "d": 197.91666666666606,
      "v": 30
    },
    {
      "midi": 77,
      "hit": false,
      "t": 10708.333333333334,
      "d": 692.7083333333358,
      "v": 96
    },
    {
      "midi": 69,
      "hit": false,
      "t": 10739.583333333334,
      "d": 291.6666666666679,
      "v": 37
    },
    {
      "midi": 64,
      "hit": false,
      "t": 10744.791666666668,
      "d": 463.5416666666679,
      "v": 30
    },
    {
      "midi": 60,
      "hit": false,
      "t": 10744.791666666668,
      "d": 557.2916666666679,
      "v": 36
    },
    {
      "midi": 76,
      "hit": false,
      "t": 11281.250000000002,
      "d": 666.6666666666697,
      "v": 97
    },
    {
      "midi": 74,
      "hit": false,
      "t": 11859.375000000004,
      "d": 656.2500000000018,
      "v": 93
    },
    {
      "midi": 43,
      "hit": false,
      "t": 11895.833333333338,
      "d": 208.33333333333394,
      "v": 31
    },
    {
      "midi": 76,
      "hit": false,
      "t": 12427.083333333338,
      "d": 687.5,
      "v": 89
    },
    {
      "midi": 67,
      "hit": false,
      "t": 12447.916666666672,
      "d": 270.83333333333394,
      "v": 39
    },
    {
      "midi": 62,
      "hit": false,
      "t": 12447.916666666672,
      "d": 427.08333333333394,
      "v": 36
    },
    {
      "midi": 58,
      "hit": false,
      "t": 12447.916666666672,
      "d": 625,
      "v": 33
    },
    {
      "midi": 77,
      "hit": false,
      "t": 13041.666666666672,
      "d": 656.25,
      "v": 81
    },
    {
      "midi": 76,
      "hit": false,
      "t": 13635.416666666672,
      "d": 791.6666666666679,
      "v": 53
    },
    {
      "midi": 38,
      "hit": false,
      "t": 13645.833333333338,
      "d": 166.66666666666788,
      "v": 27
    },
    {
      "midi": 74,
      "hit": false,
      "t": 14213.541666666672,
      "d": 703.1250000000018,
      "v": 54
    },
    {
      "midi": 65,
      "hit": false,
      "t": 14244.791666666672,
      "d": 244.79166666666788,
      "v": 14
    },
    {
      "midi": 62,
      "hit": false,
      "t": 14250.000000000005,
      "d": 286.45833333333394,
      "v": 27
    },
    {
      "midi": 57,
      "hit": false,
      "t": 14250.000000000005,
      "d": 401.0416666666679,
      "v": 22
    },
    {
      "midi": 72,
      "hit": false,
      "t": 14838.541666666673,
      "d": 619.7916666666661,
      "v": 53
    },
    {
      "midi": 76,
      "hit": false,
      "t": 15458.33333333334,
      "d": 1364.5833333333321,
      "v": 31
    },
    {
      "midi": 45,
      "hit": false,
      "t": 15463.541666666673,
      "d": 255.20833333333394,
      "v": 22
    },
    {
      "midi": 64,
      "hit": false,
      "t": 16135.416666666673,
      "d": 635.4166666666661,
      "v": 15
    },
    {
      "midi": 57,
      "hit": false,
      "t": 16135.416666666673,
      "d": 703.1249999999982,
      "v": 13
    },
    {
      "midi": 60,
      "hit": false,
      "t": 16135.416666666673,
      "d": 708.3333333333303,
      "v": 13
    },
    {
      "midi": 79,
      "hit": false,
      "t": 17380.208333333336,
      "d": 848.9583333333285,
      "v": 37
    },
    {
      "midi": 40,
      "hit": false,
      "t": 17406.250000000004,
      "d": 260.41666666666424,
      "v": 45
    },
    {
      "midi": 64,
      "hit": false,
      "t": 18125,
      "d": 552.0833333333321,
      "v": 33
    },
    {
      "midi": 59,
      "hit": false,
      "t": 18130.208333333332,
      "d": 781.25,
      "v": 11
    },
    {
      "midi": 55,
      "hit": false,
      "t": 18135.416666666664,
      "d": 791.6666666666679,
      "v": 16
    },
    {
      "midi": 79,
      "hit": false,
      "t": 18817.708333333332,
      "d": 796.875,
      "v": 95
    },
    {
      "midi": 74,
      "hit": false,
      "t": 19536.458333333332,
      "d": 5749.999999999989,
      "v": 85
    },
    {
      "midi": 43,
      "hit": false,
      "t": 19567.708333333332,
      "d": 307.29166666666424,
      "v": 43
    },
    {
      "midi": 69,
      "hit": false,
      "t": 20208.33333333333,
      "d": 1427.0833333333285,
      "v": 50
    },
    {
      "midi": 65,
      "hit": false,
      "t": 20213.54166666666,
      "d": 1411.4583333333285,
      "v": 49
    },
    {
      "midi": 59,
      "hit": false,
      "t": 20218.749999999993,
      "d": 505.2083333333285,
      "v": 43
    },
    {
      "midi": 50,
      "hit": false,
      "t": 20223.958333333325,
      "d": 270.8333333333321,
      "v": 43
    },
    {
      "midi": 55,
      "hit": false,
      "t": 20223.958333333325,
      "d": 338.54166666666424,
      "v": 41
    },
    {
      "midi": 38,
      "hit": false,
      "t": 21609.37499999999,
      "d": 187.5,
      "v": 57
    },
    {
      "midi": 65,
      "hit": false,
      "t": 22244.791666666657,
      "d": 526.0416666666642,
      "v": 35
    },
    {
      "midi": 60,
      "hit": false,
      "t": 22244.791666666657,
      "d": 572.9166666666642,
      "v": 25
    },
    {
      "midi": 57,
      "hit": false,
      "t": 22249.99999999999,
      "d": 578.125,
      "v": 17
    },
    {
      "midi": 43,
      "hit": false,
      "t": 23442.70833333332,
      "d": 244.79166666666424,
      "v": 37
    },
    {
      "midi": 65,
      "hit": false,
      "t": 24124.999999999985,
      "d": 614.5833333333358,
      "v": 11
    },
    {
      "midi": 69,
      "hit": false,
      "t": 24124.999999999985,
      "d": 723.9583333333358,
      "v": 25
    },
    {
      "midi": 55,
      "hit": false,
      "t": 24135.416666666653,
      "d": 291.6666666666679,
      "v": 22
    },
    {
      "midi": 59,
      "hit": false,
      "t": 24135.416666666653,
      "d": 479.1666666666679,
      "v": 18
    },
    {
      "midi": 50,
      "hit": false,
      "t": 24135.416666666653,
      "d": 604.1666666666679,
      "v": 18
    },
    {
      "midi": 38,
      "hit": false,
      "t": 25302.08333333332,
      "d": 197.91666666666788,
      "v": 35
    },
    {
      "midi": 65,
      "hit": false,
      "t": 25989.583333333325,
      "d": 354.16666666666424,
      "v": 27
    },
    {
      "midi": 57,
      "hit": false,
      "t": 25989.583333333325,
      "d": 489.5833333333321,
      "v": 24
    },
    {
      "midi": 72,
      "hit": false,
      "t": 25989.583333333325,
      "d": 812.5,
      "v": 64
    },
    {
      "midi": 60,
      "hit": false,
      "t": 25994.791666666657,
      "d": 468.75,
      "v": 24
    },
    {
      "midi": 77,
      "hit": false,
      "t": 26614.583333333325,
      "d": 708.3333333333358,
      "v": 91
    },
    {
      "midi": 79,
      "hit": false,
      "t": 27265.624999999993,
      "d": 1447.9166666666679,
      "v": 99
    },
    {
      "midi": 31,
      "hit": false,
      "t": 27276.04166666666,
      "d": 213.54166666666788,
      "v": 41
    },
    {
      "midi": 67,
      "hit": false,
      "t": 27901.04166666666,
      "d": 432.29166666666424,
      "v": 49
    },
    {
      "midi": 64,
      "hit": false,
      "t": 27906.249999999993,
      "d": 500,
      "v": 39
    },
    {
      "midi": 59,
      "hit": false,
      "t": 27911.458333333325,
      "d": 515.625,
      "v": 24
    },
    {
      "midi": 81,
      "hit": false,
      "t": 28546.874999999993,
      "d": 713.5416666666679,
      "v": 76
    },
    {
      "midi": 74,
      "hit": false,
      "t": 29166.66666666666,
      "d": 770.8333333333321,
      "v": 87
    },
    {
      "midi": 31,
      "hit": false,
      "t": 29177.08333333333,
      "d": 192.70833333333212,
      "v": 36
    },
    {
      "midi": 65,
      "hit": false,
      "t": 29781.249999999996,
      "d": 359.37499999999636,
      "v": 38
    },
    {
      "midi": 76,
      "hit": false,
      "t": 29781.249999999996,
      "d": 692.7083333333321,
      "v": 88
    },
    {
      "midi": 57,
      "hit": false,
      "t": 29786.45833333333,
      "d": 473.9583333333321,
      "v": 41
    },
    {
      "midi": 60,
      "hit": false,
      "t": 29791.66666666666,
      "d": 458.3333333333321,
      "v": 33
    },
    {
      "midi": 77,
      "hit": false,
      "t": 30364.58333333333,
      "d": 734.375,
      "v": 89
    },
    {
      "midi": 71,
      "hit": false,
      "t": 30968.749999999996,
      "d": 697.9166666666642,
      "v": 91
    },
    {
      "midi": 31,
      "hit": false,
      "t": 30979.166666666664,
      "d": 177.08333333333212,
      "v": 38
    },
    {
      "midi": 69,
      "hit": false,
      "t": 31536.45833333333,
      "d": 786.4583333333321,
      "v": 73
    },
    {
      "midi": 64,
      "hit": false,
      "t": 31552.08333333333,
      "d": 270.8333333333321,
      "v": 43
    },
    {
      "midi": 57,
      "hit": false,
      "t": 31552.08333333333,
      "d": 354.16666666666424,
      "v": 30
    },
    {
      "midi": 60,
      "hit": false,
      "t": 31552.08333333333,
      "d": 442.7083333333321,
      "v": 17
    },
    {
      "midi": 67,
      "hit": false,
      "t": 32187.499999999993,
      "d": 703.125,
      "v": 59
    },
    {
      "midi": 69,
      "hit": false,
      "t": 32874.99999999999,
      "d": 2052.0833333333285,
      "v": 37
    },
    {
      "midi": 38,
      "hit": false,
      "t": 32906.24999999999,
      "d": 229.16666666666424,
      "v": 30
    },
    {
      "midi": 65,
      "hit": false,
      "t": 33583.33333333332,
      "d": 312.5,
      "v": 16
    },
    {
      "midi": 60,
      "hit": false,
      "t": 33588.54166666666,
      "d": 416.66666666666424,
      "v": 17
    },
    {
      "midi": 57,
      "hit": false,
      "t": 33588.54166666666,
      "d": 442.7083333333285,
      "v": 17
    },
    {
      "midi": 62,
      "hit": false,
      "t": 34880.20833333332,
      "d": 3447.916666666679,
      "v": 31
    },
    {
      "midi": 31,
      "hit": false,
      "t": 34906.249999999985,
      "d": 250,
      "v": 22
    },
    {
      "midi": 65,
      "hit": false,
      "t": 35682.29166666666,
      "d": 395.83333333333576,
      "v": 14
    },
    {
      "midi": 60,
      "hit": false,
      "t": 35687.49999999999,
      "d": 520.8333333333358,
      "v": 22
    },
    {
      "midi": 57,
      "hit": false,
      "t": 35687.49999999999,
      "d": 546.875,
      "v": 25
    },
    {
      "midi": 31,
      "hit": false,
      "t": 36901.04166666666,
      "d": 192.70833333333576,
      "v": 35
    },
    {
      "midi": 67,
      "hit": false,
      "t": 37697.916666666664,
      "d": 281.25,
      "v": 22
    },
    {
      "midi": 64,
      "hit": false,
      "t": 37697.916666666664,
      "d": 296.875,
      "v": 27
    },
    {
      "midi": 59,
      "hit": false,
      "t": 37703.125,
      "d": 354.16666666666424,
      "v": 30
    },
    {
      "midi": 76,
      "hit": false,
      "t": 38979.166666666664,
      "d": 1968.7500000000073,
      "v": 76
    },
    {
      "midi": 36,
      "hit": false,
      "t": 39015.625,
      "d": 213.54166666667152,
      "v": 20
    },
    {
      "midi": 69,
      "hit": false,
      "t": 39682.29166666667,
      "d": 484.375,
      "v": 24
    },
    {
      "midi": 64,
      "hit": false,
      "t": 39697.91666666667,
      "d": 479.16666666666424,
      "v": 22
    },
    {
      "midi": 60,
      "hit": false,
      "t": 39697.91666666667,
      "d": 583.3333333333285,
      "v": 30
    },
    {
      "midi": 77,
      "hit": false,
      "t": 40880.208333333336,
      "d": 744.7916666666715,
      "v": 68
    },
    {
      "midi": 40,
      "hit": false,
      "t": 40916.66666666667,
      "d": 197.91666666666424,
      "v": 45
    },
    {
      "midi": 79,
      "hit": false,
      "t": 41520.833333333336,
      "d": 791.6666666666642,
      "v": 79
    },
    {
      "midi": 67,
      "hit": false,
      "t": 41531.25,
      "d": 281.2500000000073,
      "v": 35
    },
    {
      "midi": 64,
      "hit": false,
      "t": 41536.458333333336,
      "d": 380.20833333333576,
      "v": 25
    },
    {
      "midi": 59,
      "hit": false,
      "t": 41541.66666666667,
      "d": 312.5,
      "v": 24
    },
    {
      "midi": 77,
      "hit": false,
      "t": 42145.833333333336,
      "d": 651.0416666666642,
      "v": 84
    },
    {
      "midi": 76,
      "hit": false,
      "t": 42718.75,
      "d": 739.5833333333358,
      "v": 59
    },
    {
      "midi": 36,
      "hit": false,
      "t": 42750,
      "d": 187.5,
      "v": 27
    },
    {
      "midi": 74,
      "hit": false,
      "t": 43322.916666666664,
      "d": 708.3333333333358,
      "v": 68
    },
    {
      "midi": 69,
      "hit": false,
      "t": 43343.75,
      "d": 281.25,
      "v": 18
    },
    {
      "midi": 64,
      "hit": false,
      "t": 43348.958333333336,
      "d": 354.16666666666424,
      "v": 24
    },
    {
      "midi": 60,
      "hit": false,
      "t": 43354.16666666667,
      "d": 395.8333333333285,
      "v": 22
    },
    {
      "midi": 76,
      "hit": false,
      "t": 43973.958333333336,
      "d": 3421.8749999999927,
      "v": 57
    },
    {
      "midi": 40,
      "hit": false,
      "t": 44552.08333333333,
      "d": 187.5,
      "v": 50
    },
    {
      "midi": 67,
      "hit": false,
      "t": 45213.54166666666,
      "d": 171.87500000000728,
      "v": 35
    },
    {
      "midi": 64,
      "hit": false,
      "t": 45218.74999999999,
      "d": 239.58333333333576,
      "v": 30
    },
    {
      "midi": 59,
      "hit": false,
      "t": 45223.95833333333,
      "d": 203.125,
      "v": 17
    },
    {
      "midi": 36,
      "hit": false,
      "t": 46510.416666666664,
      "d": 197.91666666666424,
      "v": 27
    },
    {
      "midi": 74,
      "hit": false,
      "t": 47218.74999999999,
      "d": 812.5,
      "v": 59
    },
    {
      "midi": 69,
      "hit": false,
      "t": 47223.95833333333,
      "d": 213.54166666666424,
      "v": 12
    },
    {
      "midi": 64,
      "hit": false,
      "t": 47229.166666666664,
      "d": 125,
      "v": 20
    },
    {
      "midi": 60,
      "hit": false,
      "t": 47229.166666666664,
      "d": 369.79166666666424,
      "v": 14
    },
    {
      "midi": 72,
      "hit": false,
      "t": 47843.74999999999,
      "d": 703.125,
      "v": 56
    },
    {
      "midi": 71,
      "hit": false,
      "t": 48427.08333333333,
      "d": 677.0833333333285,
      "v": 59
    },
    {
      "midi": 40,
      "hit": false,
      "t": 48442.70833333333,
      "d": 208.33333333332848,
      "v": 43
    },
    {
      "midi": 72,
      "hit": false,
      "t": 49026.04166666666,
      "d": 802.0833333333358,
      "v": 56
    },
    {
      "midi": 67,
      "hit": false,
      "t": 49072.91666666666,
      "d": 203.125,
      "v": 20
    },
    {
      "midi": 64,
      "hit": false,
      "t": 49072.91666666666,
      "d": 208.33333333333576,
      "v": 20
    },
    {
      "midi": 59,
      "hit": false,
      "t": 49078.12499999999,
      "d": 317.70833333333576,
      "v": 14
    },
    {
      "midi": 71,
      "hit": false,
      "t": 49656.24999999999,
      "d": 609.375,
      "v": 47
    },
    {
      "midi": 69,
      "hit": false,
      "t": 50281.24999999999,
      "d": 2171.8750000000073,
      "v": 34
    },
    {
      "midi": 45,
      "hit": false,
      "t": 50307.291666666664,
      "d": 229.16666666666424,
      "v": 18
    },
    {
      "midi": 65,
      "hit": false,
      "t": 51010.416666666664,
      "d": 463.54166666666424,
      "v": 12
    },
    {
      "midi": 60,
      "hit": false,
      "t": 51020.83333333333,
      "d": 614.5833333333358,
      "v": 11
    },
    {
      "midi": 57,
      "hit": false,
      "t": 51026.041666666664,
      "d": 609.375,
      "v": 14
    },
    {
      "midi": 38,
      "hit": false,
      "t": 52375,
      "d": 822.9166666666715,
      "v": 24
    },
    {
      "midi": 59,
      "hit": false,
      "t": 53062.5,
      "d": 359.3750000000073,
      "v": 20
    },
    {
      "midi": 67,
      "hit": false,
      "t": 53062.5,
      "d": 947.9166666666715,
      "v": 31
    },
    {
      "midi": 64,
      "hit": false,
      "t": 53067.708333333336,
      "d": 885.4166666666715,
      "v": 18
    },
    {
      "midi": 45,
      "hit": false,
      "t": 54375.00000000001,
      "d": 708.3333333333358,
      "v": 18
    },
    {
      "midi": 69,
      "hit": false,
      "t": 55020.83333333334,
      "d": 1442.7083333333285,
      "v": 14
    },
    {
      "midi": 60,
      "hit": false,
      "t": 55036.45833333334,
      "d": 307.29166666666424,
      "v": 14
    },
    {
      "midi": 64,
      "hit": false,
      "t": 55036.45833333334,
      "d": 1161.4583333333285,
      "v": 12
    },
    {
      "midi": 38,
      "hit": false,
      "t": 56307.29166666667,
      "d": 1062.5,
      "v": 18
    },
    {
      "midi": 59,
      "hit": false,
      "t": 56953.125,
      "d": 333.33333333333576,
      "v": 18
    },
    {
      "midi": 67,
      "hit": false,
      "t": 56953.125,
      "d": 723.958333333343,
      "v": 36
    },
    {
      "midi": 64,
      "hit": false,
      "t": 56958.333333333336,
      "d": 526.0416666666715,
      "v": 31
    },
    {
      "midi": 81,
      "hit": false,
      "t": 58213.54166666668,
      "d": 1927.083333333343,
      "v": 59
    },
    {
      "midi": 45,
      "hit": false,
      "t": 58250.000000000015,
      "d": 234.37500000000728,
      "v": 24
    },
    {
      "midi": 69,
      "hit": false,
      "t": 58875.00000000002,
      "d": 500,
      "v": 20
    },
    {
      "midi": 64,
      "hit": false,
      "t": 58885.416666666686,
      "d": 510.4166666666715,
      "v": 30
    },
    {
      "midi": 60,
      "hit": false,
      "t": 58885.416666666686,
      "d": 588.5416666666715,
      "v": 30
    },
    {
      "midi": 79,
      "hit": false,
      "t": 60015.62500000002,
      "d": 786.4583333333285,
      "v": 81
    },
    {
      "midi": 48,
      "hit": false,
      "t": 60052.08333333336,
      "d": 208.33333333332848,
      "v": 24
    },
    {
      "midi": 77,
      "hit": false,
      "t": 60625.000000000015,
      "d": 791.6666666666715,
      "v": 80
    },
    {
      "midi": 69,
      "hit": false,
      "t": 60635.41666666668,
      "d": 385.4166666666715,
      "v": 12
    },
    {
      "midi": 60,
      "hit": false,
      "t": 60635.41666666668,
      "d": 468.7500000000073,
      "v": 25
    },
    {
      "midi": 64,
      "hit": false,
      "t": 60640.625000000015,
      "d": 395.83333333333576,
      "v": 14
    },
    {
      "midi": 76,
      "hit": false,
      "t": 61229.166666666686,
      "d": 645.8333333333358,
      "v": 81
    },
    {
      "midi": 74,
      "hit": false,
      "t": 61802.08333333335,
      "d": 703.1250000000146,
      "v": 64
    },
    {
      "midi": 43,
      "hit": false,
      "t": 61817.70833333335,
      "d": 182.29166666667152,
      "v": 30
    },
    {
      "midi": 76,
      "hit": false,
      "t": 62364.58333333336,
      "d": 718.75,
      "v": 73
    },
    {
      "midi": 58,
      "hit": false,
      "t": 62380.20833333336,
      "d": 557.2916666666715,
      "v": 22
    },
    {
      "midi": 67,
      "hit": false,
      "t": 62385.41666666669,
      "d": 270.83333333333576,
      "v": 25
    },
    {
      "midi": 62,
      "hit": false,
      "t": 62390.62500000003,
      "d": 401.04166666666424,
      "v": 27
    },
    {
      "midi": 77,
      "hit": false,
      "t": 62979.16666666669,
      "d": 729.1666666666642,
      "v": 79
    },
    {
      "midi": 76,
      "hit": false,
      "t": 63546.87500000002,
      "d": 812.5000000000073,
      "v": 68
    },
    {
      "midi": 38,
      "hit": false,
      "t": 63552.08333333336,
      "d": 255.20833333333576,
      "v": 38
    },
    {
      "midi": 74,
      "hit": false,
      "t": 64151.04166666669,
      "d": 776.0416666666642,
      "v": 74
    },
    {
      "midi": 65,
      "hit": false,
      "t": 64171.87500000003,
      "d": 281.25,
      "v": 30
    },
    {
      "midi": 62,
      "hit": false,
      "t": 64171.87500000003,
      "d": 432.29166666666424,
      "v": 12
    },
    {
      "midi": 57,
      "hit": false,
      "t": 64171.87500000003,
      "d": 442.7083333333285,
      "v": 22
    },
    {
      "midi": 72,
      "hit": false,
      "t": 64791.66666666669,
      "d": 692.7083333333285,
      "v": 84
    },
    {
      "midi": 45,
      "hit": false,
      "t": 65427.08333333336,
      "d": 265.625,
      "v": 33
    },
    {
      "midi": 76,
      "hit": false,
      "t": 65427.08333333336,
      "d": 1942.708333333314,
      "v": 75
    },
    {
      "midi": 64,
      "hit": false,
      "t": 66088.54166666669,
      "d": 489.5833333333285,
      "v": 43
    },
    {
      "midi": 60,
      "hit": false,
      "t": 66098.95833333336,
      "d": 552.0833333333139,
      "v": 30
    },
    {
      "midi": 57,
      "hit": false,
      "t": 66104.16666666669,
      "d": 541.666666666657,
      "v": 16
    },
    {
      "midi": 40,
      "hit": false,
      "t": 67260.41666666667,
      "d": 291.6666666666715,
      "v": 49
    },
    {
      "midi": 79,
      "hit": false,
      "t": 67260.41666666667,
      "d": 812.5,
      "v": 87
    },
    {
      "midi": 64,
      "hit": false,
      "t": 67963.54166666667,
      "d": 562.5,
      "v": 54
    },
    {
      "midi": 59,
      "hit": false,
      "t": 67968.75,
      "d": 640.625,
      "v": 41
    },
    {
      "midi": 55,
      "hit": false,
      "t": 67968.75,
      "d": 729.1666666666715,
      "v": 38
    },
    {
      "midi": 79,
      "hit": false,
      "t": 68609.375,
      "d": 739.5833333333285,
      "v": 95
    },
    {
      "midi": 72,
      "hit": false,
      "t": 69218.75,
      "d": 828.1249999999854,
      "v": 83
    },
    {
      "midi": 40,
      "hit": false,
      "t": 69250,
      "d": 187.5,
      "v": 71
    },
    {
      "midi": 71,
      "hit": false,
      "t": 69838.54166666666,
      "d": 651.041666666657,
      "v": 87
    },
    {
      "midi": 65,
      "hit": false,
      "t": 69848.95833333333,
      "d": 463.54166666665697,
      "v": 39
    },
    {
      "midi": 60,
      "hit": false,
      "t": 69854.16666666666,
      "d": 557.291666666657,
      "v": 29
    },
    {
      "midi": 57,
      "hit": false,
      "t": 69854.16666666666,
      "d": 572.916666666657,
      "v": 27
    },
    {
      "midi": 69,
      "hit": false,
      "t": 70416.66666666664,
      "d": 656.25,
      "v": 79
    },
    {
      "midi": 71,
      "hit": false,
      "t": 71052.08333333331,
      "d": 1458.333333333343,
      "v": 80
    },
    {
      "midi": 40,
      "hit": false,
      "t": 71083.33333333331,
      "d": 218.75,
      "v": 31
    },
    {
      "midi": 55,
      "hit": false,
      "t": 71708.33333333331,
      "d": 359.375,
      "v": 25
    },
    {
      "midi": 64,
      "hit": false,
      "t": 71708.33333333331,
      "d": 375,
      "v": 38
    },
    {
      "midi": 59,
      "hit": false,
      "t": 71708.33333333331,
      "d": 447.9166666666715,
      "v": 18
    },
    {
      "midi": 72,
      "hit": false,
      "t": 72390.62499999999,
      "d": 625.0000000000146,
      "v": 57
    },
    {
      "midi": 74,
      "hit": false,
      "t": 72973.95833333333,
      "d": 1901.0416666666715,
      "v": 70
    },
    {
      "midi": 38,
      "hit": false,
      "t": 73015.625,
      "d": 161.45833333332848,
      "v": 30
    },
    {
      "midi": 65,
      "hit": false,
      "t": 73635.41666666667,
      "d": 322.91666666665697,
      "v": 27
    },
    {
      "midi": 60,
      "hit": false,
      "t": 73640.625,
      "d": 375,
      "v": 17
    },
    {
      "midi": 57,
      "hit": false,
      "t": 73645.83333333333,
      "d": 208.33333333332848,
      "v": 20
    },
    {
      "midi": 76,
      "hit": false,
      "t": 74864.58333333334,
      "d": 2046.8749999999854,
      "v": 43
    },
    {
      "midi": 38,
      "hit": false,
      "t": 74869.79166666667,
      "d": 203.125,
      "v": 26
    },
    {
      "midi": 60,
      "hit": false,
      "t": 75604.16666666667,
      "d": 114.58333333332848,
      "v": 31
    },
    {
      "midi": 69,
      "hit": false,
      "t": 75604.16666666667,
      "d": 229.16666666665697,
      "v": 12
    },
    {
      "midi": 64,
      "hit": false,
      "t": 75609.375,
      "d": 140.625,
      "v": 14
    },
    {
      "midi": 38,
      "hit": false,
      "t": 76869.79166666666,
      "d": 1026.0416666666715,
      "v": 36
    },
    {
      "midi": 64,
      "hit": false,
      "t": 77546.875,
      "d": 1213.541666666657,
      "v": 33
    },
    {
      "midi": 60,
      "hit": false,
      "t": 77546.875,
      "d": 1307.291666666657,
      "v": 20
    },
    {
      "midi": 57,
      "hit": false,
      "t": 77546.875,
      "d": 1317.7083333333285,
      "v": 30
    },
    {
      "midi": 38,
      "hit": false,
      "t": 78838.54166666666,
      "d": 942.708333333343,
      "v": 27
    },
    {
      "midi": 65,
      "hit": false,
      "t": 79515.625,
      "d": 645.8333333333285,
      "v": 24
    },
    {
      "midi": 57,
      "hit": false,
      "t": 79520.83333333333,
      "d": 260.4166666666715,
      "v": 16
    },
    {
      "midi": 60,
      "hit": false,
      "t": 79520.83333333333,
      "d": 578.125,
      "v": 30
    },
    {
      "midi": 79,
      "hit": false,
      "t": 80927.08333333333,
      "d": 1505.2083333333576,
      "v": 73
    },
    {
      "midi": 31,
      "hit": false,
      "t": 80937.5,
      "d": 187.5,
      "v": 31
    },
    {
      "midi": 67,
      "hit": false,
      "t": 81635.41666666667,
      "d": 364.58333333334303,
      "v": 33
    },
    {
      "midi": 64,
      "hit": false,
      "t": 81635.41666666667,
      "d": 541.6666666666715,
      "v": 30
    },
    {
      "midi": 59,
      "hit": false,
      "t": 81645.83333333334,
      "d": 588.5416666666715,
      "v": 25
    },
    {
      "midi": 81,
      "hit": false,
      "t": 82322.91666666669,
      "d": 645.833333333343,
      "v": 69
    },
    {
      "midi": 74,
      "hit": false,
      "t": 82906.25000000001,
      "d": 729.1666666666861,
      "v": 79
    },
    {
      "midi": 31,
      "hit": false,
      "t": 82942.70833333336,
      "d": 78.125,
      "v": 36
    },
    {
      "midi": 76,
      "hit": false,
      "t": 83510.4166666667,
      "d": 697.9166666666715,
      "v": 80
    },
    {
      "midi": 65,
      "hit": false,
      "t": 83531.25000000003,
      "d": 406.25,
      "v": 27
    },
    {
      "midi": 57,
      "hit": false,
      "t": 83531.25000000003,
      "d": 479.1666666666715,
      "v": 22
    },
    {
      "midi": 60,
      "hit": false,
      "t": 83541.6666666667,
      "d": 390.625,
      "v": 17
    },
    {
      "midi": 77,
      "hit": false,
      "t": 84119.7916666667,
      "d": 723.958333333343,
      "v": 81
    },
    {
      "midi": 71,
      "hit": false,
      "t": 84687.50000000004,
      "d": 812.5,
      "v": 76
    },
    {
      "midi": 31,
      "hit": false,
      "t": 84718.75000000004,
      "d": 197.91666666667152,
      "v": 27
    },
    {
      "midi": 69,
      "hit": false,
      "t": 85307.29166666672,
      "d": 671.8749999999854,
      "v": 73
    },
    {
      "midi": 64,
      "hit": false,
      "t": 85328.12500000004,
      "d": 380.2083333333285,
      "v": 43
    },
    {
      "midi": 60,
      "hit": false,
      "t": 85328.12500000004,
      "d": 473.9583333333285,
      "v": 25
    },
    {
      "midi": 57,
      "hit": false,
      "t": 85333.33333333337,
      "d": 463.5416666666715,
      "v": 14
    },
    {
      "midi": 67,
      "hit": false,
      "t": 85895.83333333337,
      "d": 729.1666666666715,
      "v": 79
    },
    {
      "midi": 69,
      "hit": false,
      "t": 86552.08333333337,
      "d": 2343.7499999999854,
      "v": 80
    },
    {
      "midi": 38,
      "hit": false,
      "t": 86583.33333333337,
      "d": 281.25000000001455,
      "v": 43
    },
    {
      "midi": 65,
      "hit": false,
      "t": 87291.66666666672,
      "d": 296.87499999998545,
      "v": 37
    },
    {
      "midi": 60,
      "hit": false,
      "t": 87296.87500000004,
      "d": 364.5833333333285,
      "v": 39
    },
    {
      "midi": 57,
      "hit": false,
      "t": 87302.08333333337,
      "d": 473.9583333333285,
      "v": 39
    },
    {
      "midi": 62,
      "hit": false,
      "t": 88833.33333333336,
      "d": 3062.5,
      "v": 49
    },
    {
      "midi": 31,
      "hit": false,
      "t": 88848.95833333336,
      "d": 213.54166666667152,
      "v": 43
    },
    {
      "midi": 65,
      "hit": false,
      "t": 89578.12500000003,
      "d": 468.74999999998545,
      "v": 22
    },
    {
      "midi": 60,
      "hit": false,
      "t": 89583.33333333336,
      "d": 520.8333333333285,
      "v": 17
    },
    {
      "midi": 57,
      "hit": false,
      "t": 89588.54166666669,
      "d": 541.6666666666715,
      "v": 20
    },
    {
      "midi": 31,
      "hit": false,
      "t": 90885.41666666669,
      "d": 161.45833333332848,
      "v": 30
    },
    {
      "midi": 64,
      "hit": false,
      "t": 91578.12500000001,
      "d": 156.25,
      "v": 18
    },
    {
      "midi": 59,
      "hit": false,
      "t": 91578.12500000001,
      "d": 203.125,
      "v": 27
    },
    {
      "midi": 67,
      "hit": false,
      "t": 91578.12500000001,
      "d": 213.54166666667152,
      "v": 22
    },
    {
      "midi": 76,
      "hit": false,
      "t": 93109.37500000003,
      "d": 2078.125,
      "v": 47
    },
    {
      "midi": 36,
      "hit": false,
      "t": 93182.29166666669,
      "d": 218.75,
      "v": 17
    },
    {
      "midi": 69,
      "hit": false,
      "t": 93911.45833333336,
      "d": 500,
      "v": 14
    },
    {
      "midi": 64,
      "hit": false,
      "t": 93921.87500000003,
      "d": 536.4583333333285,
      "v": 13
    },
    {
      "midi": 60,
      "hit": false,
      "t": 93921.87500000003,
      "d": 588.541666666657,
      "v": 11
    },
    {
      "midi": 77,
      "hit": false,
      "t": 95098.95833333336,
      "d": 713.5416666666715,
      "v": 66
    },
    {
      "midi": 40,
      "hit": false,
      "t": 95119.79166666669,
      "d": 203.12500000001455,
      "v": 38
    },
    {
      "midi": 79,
      "hit": false,
      "t": 95729.1666666667,
      "d": 781.25,
      "v": 77
    },
    {
      "midi": 64,
      "hit": false,
      "t": 95760.4166666667,
      "d": 250,
      "v": 35
    },
    {
      "midi": 67,
      "hit": false,
      "t": 95760.4166666667,
      "d": 260.4166666666715,
      "v": 27
    },
    {
      "midi": 59,
      "hit": false,
      "t": 95765.62500000003,
      "d": 276.0416666666715,
      "v": 17
    },
    {
      "midi": 77,
      "hit": false,
      "t": 96343.75000000003,
      "d": 703.1250000000146,
      "v": 79
    },
    {
      "midi": 76,
      "hit": false,
      "t": 96947.9166666667,
      "d": 817.7083333333285,
      "v": 71
    },
    {
      "midi": 36,
      "hit": false,
      "t": 96989.58333333337,
      "d": 151.04166666667152,
      "v": 22
    },
    {
      "midi": 74,
      "hit": false,
      "t": 97588.54166666672,
      "d": 718.7499999999854,
      "v": 73
    },
    {
      "midi": 69,
      "hit": false,
      "t": 97625.00000000004,
      "d": 291.66666666665697,
      "v": 16
    },
    {
      "midi": 60,
      "hit": false,
      "t": 97630.20833333337,
      "d": 473.9583333333285,
      "v": 12
    },
    {
      "midi": 64,
      "hit": false,
      "t": 97635.4166666667,
      "d": 395.8333333333285,
      "v": 7
    },
    {
      "midi": 76,
      "hit": false,
      "t": 98229.1666666667,
      "d": 3817.7083333333285,
      "v": 71
    },
    {
      "midi": 40,
      "hit": false,
      "t": 98822.9166666667,
      "d": 187.5,
      "v": 47
    },
    {
      "midi": 64,
      "hit": false,
      "t": 99500.00000000003,
      "d": 260.4166666666715,
      "v": 25
    },
    {
      "midi": 59,
      "hit": false,
      "t": 99500.00000000003,
      "d": 291.6666666666715,
      "v": 14
    },
    {
      "midi": 67,
      "hit": false,
      "t": 99500.00000000003,
      "d": 296.875,
      "v": 33
    },
    {
      "midi": 36,
      "hit": false,
      "t": 100744.7916666667,
      "d": 203.12499999998545,
      "v": 41
    },
    {
      "midi": 74,
      "hit": false,
      "t": 101520.83333333336,
      "d": 807.2916666666715,
      "v": 79
    },
    {
      "midi": 69,
      "hit": false,
      "t": 101531.25000000003,
      "d": 322.9166666666715,
      "v": 30
    },
    {
      "midi": 64,
      "hit": false,
      "t": 101541.6666666667,
      "d": 203.125,
      "v": 14
    },
    {
      "midi": 60,
      "hit": false,
      "t": 101546.87500000003,
      "d": 406.25,
      "v": 22
    },
    {
      "midi": 72,
      "hit": false,
      "t": 102151.0416666667,
      "d": 718.75,
      "v": 80
    },
    {
      "midi": 71,
      "hit": false,
      "t": 102734.37500000003,
      "d": 661.458333333343,
      "v": 70
    },
    {
      "midi": 40,
      "hit": false,
      "t": 102781.25000000003,
      "d": 177.08333333334303,
      "v": 35
    },
    {
      "midi": 72,
      "hit": false,
      "t": 103338.5416666667,
      "d": 713.5416666666715,
      "v": 63
    },
    {
      "midi": 67,
      "hit": false,
      "t": 103385.4166666667,
      "d": 651.0416666666715,
      "v": 22
    },
    {
      "midi": 64,
      "hit": false,
      "t": 103401.0416666667,
      "d": 661.458333333343,
      "v": 25
    },
    {
      "midi": 59,
      "hit": false,
      "t": 103401.0416666667,
      "d": 697.9166666666715,
      "v": 18
    },
    {
      "midi": 71,
      "hit": false,
      "t": 103958.33333333337,
      "d": 786.4583333333285,
      "v": 60
    },
    {
      "midi": 69,
      "hit": false,
      "t": 104651.0416666667,
      "d": 2479.1666666666715,
      "v": 41
    },
    {
      "midi": 45,
      "hit": false,
      "t": 104671.87500000003,
      "d": 296.87500000001455,
      "v": 20
    },
    {
      "midi": 65,
      "hit": false,
      "t": 105427.08333333337,
      "d": 437.5,
      "v": 20
    },
    {
      "midi": 60,
      "hit": false,
      "t": 105427.08333333337,
      "d": 567.7083333333285,
      "v": 17
    },
    {
      "midi": 57,
      "hit": false,
      "t": 105432.2916666667,
      "d": 687.5,
      "v": 12
    },
    {
      "midi": 38,
      "hit": false,
      "t": 106932.2916666667,
      "d": 1239.5833333333285,
      "v": 35
    },
    {
      "midi": 67,
      "hit": false,
      "t": 107619.7916666667,
      "d": 1588.5416666666715,
      "v": 35
    },
    {
      "midi": 64,
      "hit": false,
      "t": 107625.00000000003,
      "d": 1531.25,
      "v": 36
    },
    {
      "midi": 59,
      "hit": false,
      "t": 107630.20833333336,
      "d": 1536.458333333343,
      "v": 27
    },
    {
      "midi": 45,
      "hit": false,
      "t": 109078.12500000003,
      "d": 822.9166666666715,
      "v": 27
    },
    {
      "midi": 69,
      "hit": false,
      "t": 109765.62500000004,
      "d": 1463.541666666657,
      "v": 17
    },
    {
      "midi": 64,
      "hit": false,
      "t": 109770.83333333337,
      "d": 177.08333333332848,
      "v": 22
    },
    {
      "midi": 60,
      "hit": false,
      "t": 109770.83333333337,
      "d": 1416.666666666657,
      "v": 18
    },
    {
      "midi": 38,
      "hit": false,
      "t": 111151.0416666667,
      "d": 1843.75,
      "v": 24
    },
    {
      "midi": 67,
      "hit": false,
      "t": 111947.9166666667,
      "d": 1062.5,
      "v": 22
    },
    {
      "midi": 64,
      "hit": false,
      "t": 111953.12500000003,
      "d": 703.125,
      "v": 27
    },
    {
      "midi": 59,
      "hit": false,
      "t": 111958.33333333336,
      "d": 885.4166666666715,
      "v": 22
    },
    {
      "midi": 45,
      "hit": false,
      "t": 114744.7916666667,
      "d": 6536.458333333314,
      "v": 12
    },
    {
      "midi": 64,
      "hit": false,
      "t": 114750.00000000003,
      "d": 6510.416666666657,
      "v": 27
    },
    {
      "midi": 40,
      "hit": false,
      "t": 114750.00000000003,
      "d": 6531.249999999985,
      "v": 30
    },
    {
      "midi": 69,
      "hit": false,
      "t": 114750.00000000003,
      "d": 6531.249999999985,
      "v": 7
    },
    {
      "midi": 72,
      "hit": false,
      "t": 114750.00000000003,
      "d": 6541.666666666657,
      "v": 25
    },
    {
      "midi": 33,
      "hit": false,
      "t": 114750.00000000003,
      "d": 6645.8333333333285,
      "v": 11
    },
    {
      "midi": 60,
      "hit": false,
      "t": 114755.20833333336,
      "d": 6536.4583333333285,
      "v": 11
    }
  ]
}