{
  "jsonPath": "Pop/Classic Italian Pop/Matia Bazar/sentimentale-1998-digital-remaster.json",
  "path": "Pop\\Classic Italian Pop\\Matia Bazar\\Sentimentale (1998 Digital Remaster).mid",
  "name": "Sentimentale (1998 Digital Remaster)",
  "difficulty": "Advanced",
  "bpm": 105.000105000105,
  "notes": [
    {
      "midi": 66,
      "hit": false,
      "t": 21750,
      "d": 394.53125,
      "v": 121
    },
    {
      "midi": 68,
      "hit": false,
      "t": 22125,
      "d": 742.1875,
      "v": 92
    },
    {
      "midi": 69,
      "hit": false,
      "t": 22875,
      "d": 753.90625,
      "v": 111
    },
    {
      "midi": 64,
      "hit": false,
      "t": 23625,
      "d": 746.09375,
      "v": 95
    },
    {
      "midi": 71,
      "hit": false,
      "t": 23625,
      "d": 781.25,
      "v": 104
    },
    {
      "midi": 64,
      "hit": false,
      "t": 24375,
      "d": 39.0625,
      "v": 88
    },
    {
      "midi": 69,
      "hit": false,
      "t": 24375,
      "d": 519.53125,
      "v": 97
    },
    {
      "midi": 64,
      "hit": false,
      "t": 25125,
      "d": 554.6875,
      "v": 88
    },
    {
      "midi": 68,
      "hit": false,
      "t": 25125,
      "d": 582.03125,
      "v": 88
    },
    {
      "midi": 64,
      "hit": false,
      "t": 25875,
      "d": 984.375,
      "v": 76
    },
    {
      "midi": 69,
      "hit": false,
      "t": 25875,
      "d": 996.09375,
      "v": 97
    },
    {
      "midi": 40,
      "hit": false,
      "t": 27000,
      "d": 3019.53125,
      "v": 114
    },
    {
      "midi": 47,
      "hit": false,
      "t": 27375,
      "d": 2609.375,
      "v": 92
    },
    {
      "midi": 56,
      "hit": false,
      "t": 27750,
      "d": 2238.28125,
      "v": 80
    },
    {
      "midi": 39,
      "hit": false,
      "t": 30000,
      "d": 2992.1875,
      "v": 98
    },
    {
      "midi": 46,
      "hit": false,
      "t": 30375,
      "d": 2554.6875,
      "v": 64
    },
    {
      "midi": 49,
      "hit": false,
      "t": 30750,
      "d": 796.875,
      "v": 73
    },
    {
      "midi": 51,
      "hit": false,
      "t": 31125,
      "d": 1808.59375,
      "v": 79
    },
    {
      "midi": 38,
      "hit": false,
      "t": 33000,
      "d": 2886.71875,
      "v": 92
    },
    {
      "midi": 50,
      "hit": false,
      "t": 33375,
      "d": 851.5625,
      "v": 56
    },
    {
      "midi": 54,
      "hit": false,
      "t": 33750,
      "d": 2167.96875,
      "v": 76
    },
    {
      "midi": 59,
      "hit": false,
      "t": 34125,
      "d": 1785.15625,
      "v": 88
    },
    {
      "midi": 50,
      "hit": false,
      "t": 34500,
      "d": 1433.59375,
      "v": 66
    },
    {
      "midi": 37,
      "hit": false,
      "t": 36000,
      "d": 2957.03125,
      "v": 78
    },
    {
      "midi": 49,
      "hit": false,
      "t": 36375,
      "d": 1726.5625,
      "v": 71
    },
    {
      "midi": 53,
      "hit": false,
      "t": 36750,
      "d": 2210.9375,
      "v": 72
    },
    {
      "midi": 59,
      "hit": false,
      "t": 37125,
      "d": 1863.28125,
      "v": 78
    },
    {
      "midi": 49,
      "hit": false,
      "t": 38250,
      "d": 753.90625,
      "v": 66
    },
    {
      "midi": 69,
      "hit": false,
      "t": 39000,
      "d": 1609.375,
      "v": 101
    },
    {
      "midi": 42,
      "hit": false,
      "t": 39000,
      "d": 2882.8125,
      "v": 75
    },
    {
      "midi": 49,
      "hit": false,
      "t": 39750,
      "d": 371.09375,
      "v": 72
    },
    {
      "midi": 61,
      "hit": false,
      "t": 39750,
      "d": 2148.4375,
      "v": 76
    },
    {
      "midi": 54,
      "hit": false,
      "t": 40125,
      "d": 371.09375,
      "v": 74
    },
    {
      "midi": 49,
      "hit": false,
      "t": 40125,
      "d": 1718.75,
      "v": 59
    },
    {
      "midi": 54,
      "hit": false,
      "t": 40500,
      "d": 1363.28125,
      "v": 64
    },
    {
      "midi": 60,
      "hit": false,
      "t": 41878.90625,
      "d": 593.75,
      "v": 73
    },
    {
      "midi": 45,
      "hit": false,
      "t": 41945.3125,
      "d": 3000,
      "v": 75
    },
    {
      "midi": 64,
      "hit": false,
      "t": 41953.125,
      "d": 910.15625,
      "v": 76
    },
    {
      "midi": 69,
      "hit": false,
      "t": 42031.25,
      "d": 1394.53125,
      "v": 72
    },
    {
      "midi": 60,
      "hit": false,
      "t": 42726.5625,
      "d": 2230.46875,
      "v": 72
    },
    {
      "midi": 64,
      "hit": false,
      "t": 43093.75,
      "d": 1843.75,
      "v": 67
    },
    {
      "midi": 69,
      "hit": false,
      "t": 43480.46875,
      "d": 1457.03125,
      "v": 61
    },
    {
      "midi": 64,
      "hit": false,
      "t": 45000,
      "d": 1261.71875,
      "v": 73
    },
    {
      "midi": 59,
      "hit": false,
      "t": 45000,
      "d": 1296.875,
      "v": 92
    },
    {
      "midi": 68,
      "hit": false,
      "t": 45000,
      "d": 1363.28125,
      "v": 92
    },
    {
      "midi": 63,
      "hit": false,
      "t": 46500,
      "d": 1402.34375,
      "v": 92
    },
    {
      "midi": 71,
      "hit": false,
      "t": 46500,
      "d": 1433.59375,
      "v": 88
    },
    {
      "midi": 68,
      "hit": false,
      "t": 46500,
      "d": 1437.5,
      "v": 96
    },
    {
      "midi": 57,
      "hit": false,
      "t": 48000,
      "d": 1347.65625,
      "v": 76
    },
    {
      "midi": 54,
      "hit": false,
      "t": 48000,
      "d": 1355.46875,
      "v": 76
    },
    {
      "midi": 61,
      "hit": false,
      "t": 48000,
      "d": 1355.46875,
      "v": 76
    },
    {
      "midi": 57,
      "hit": false,
      "t": 49500,
      "d": 1417.96875,
      "v": 76
    },
    {
      "midi": 53,
      "hit": false,
      "t": 49500,
      "d": 1433.59375,
      "v": 73
    },
    {
      "midi": 60,
      "hit": false,
      "t": 49500,
      "d": 1433.59375,
      "v": 68
    },
    {
      "midi": 40,
      "hit": false,
      "t": 51000,
      "d": 2945.3125,
      "v": 106
    },
    {
      "midi": 47,
      "hit": false,
      "t": 51375,
      "d": 2585.9375,
      "v": 80
    },
    {
      "midi": 52,
      "hit": false,
      "t": 51750,
      "d": 2234.375,
      "v": 84
    },
    {
      "midi": 56,
      "hit": false,
      "t": 52125,
      "d": 1824.21875,
      "v": 88
    },
    {
      "midi": 61,
      "hit": false,
      "t": 52125,
      "d": 1832.03125,
      "v": 97
    },
    {
      "midi": 39,
      "hit": false,
      "t": 54000,
      "d": 2882.8125,
      "v": 93
    },
    {
      "midi": 46,
      "hit": false,
      "t": 54375,
      "d": 1828.125,
      "v": 52
    },
    {
      "midi": 49,
      "hit": false,
      "t": 54750,
      "d": 2152.34375,
      "v": 70
    },
    {
      "midi": 58,
      "hit": false,
      "t": 55125,
      "d": 1750,
      "v": 72
    },
    {
      "midi": 55,
      "hit": false,
      "t": 55125,
      "d": 1753.90625,
      "v": 65
    },
    {
      "midi": 63,
      "hit": false,
      "t": 55125,
      "d": 1757.8125,
      "v": 70
    },
    {
      "midi": 38,
      "hit": false,
      "t": 57000,
      "d": 3027.34375,
      "v": 97
    },
    {
      "midi": 45,
      "hit": false,
      "t": 57375,
      "d": 2660.15625,
      "v": 76
    },
    {
      "midi": 50,
      "hit": false,
      "t": 57750,
      "d": 1210.9375,
      "v": 70
    },
    {
      "midi": 59,
      "hit": false,
      "t": 58125,
      "d": 527.34375,
      "v": 84
    },
    {
      "midi": 54,
      "hit": false,
      "t": 58125,
      "d": 609.375,
      "v": 80
    },
    {
      "midi": 57,
      "hit": false,
      "t": 58500,
      "d": 1492.1875,
      "v": 59
    },
    {
      "midi": 54,
      "hit": false,
      "t": 58875,
      "d": 597.65625,
      "v": 59
    },
    {
      "midi": 50,
      "hit": false,
      "t": 59250,
      "d": 750,
      "v": 58
    },
    {
      "midi": 54,
      "hit": false,
      "t": 59625,
      "d": 406.25,
      "v": 39
    },
    {
      "midi": 37,
      "hit": false,
      "t": 60000,
      "d": 1042.96875,
      "v": 97
    },
    {
      "midi": 44,
      "hit": false,
      "t": 60375,
      "d": 355.46875,
      "v": 64
    },
    {
      "midi": 47,
      "hit": false,
      "t": 60750,
      "d": 2195.3125,
      "v": 80
    },
    {
      "midi": 59,
      "hit": false,
      "t": 61125,
      "d": 1128.90625,
      "v": 84
    },
    {
      "midi": 53,
      "hit": false,
      "t": 61125,
      "d": 1804.6875,
      "v": 76
    },
    {
      "midi": 49,
      "hit": false,
      "t": 62250,
      "d": 636.71875,
      "v": 55
    },
    {
      "midi": 69,
      "hit": false,
      "t": 63000,
      "d": 925.78125,
      "v": 84
    },
    {
      "midi": 61,
      "hit": false,
      "t": 63000,
      "d": 2160.15625,
      "v": 72
    },
    {
      "midi": 66,
      "hit": false,
      "t": 63000,
      "d": 3023.4375,
      "v": 72
    },
    {
      "midi": 57,
      "hit": false,
      "t": 64125,
      "d": 1039.0625,
      "v": 68
    },
    {
      "midi": 54,
      "hit": false,
      "t": 64125,
      "d": 1160.15625,
      "v": 64
    },
    {
      "midi": 57,
      "hit": false,
      "t": 65250,
      "d": 730.46875,
      "v": 63
    },
    {
      "midi": 61,
      "hit": false,
      "t": 65250,
      "d": 746.09375,
      "v": 63
    },
    {
      "midi": 69,
      "hit": false,
      "t": 66000,
      "d": 1207.03125,
      "v": 84
    },
    {
      "midi": 60,
      "hit": false,
      "t": 66000,
      "d": 2085.9375,
      "v": 55
    },
    {
      "midi": 64,
      "hit": false,
      "t": 66000,
      "d": 2089.84375,
      "v": 80
    },
    {
      "midi": 57,
      "hit": false,
      "t": 67125,
      "d": 1281.25,
      "v": 67
    },
    {
      "midi": 64,
      "hit": false,
      "t": 68250,
      "d": 691.40625,
      "v": 67
    },
    {
      "midi": 60,
      "hit": false,
      "t": 68250,
      "d": 695.3125,
      "v": 59
    },
    {
      "midi": 68,
      "hit": false,
      "t": 69000,
      "d": 1378.90625,
      "v": 59
    },
    {
      "midi": 59,
      "hit": false,
      "t": 69000,
      "d": 1394.53125,
      "v": 65
    },
    {
      "midi": 64,
      "hit": false,
      "t": 69000,
      "d": 1394.53125,
      "v": 70
    },
    {
      "midi": 52,
      "hit": false,
      "t": 69000,
      "d": 1410.15625,
      "v": 70
    },
    {
      "midi": 59,
      "hit": false,
      "t": 70500,
      "d": 1410.15625,
      "v": 67
    },
    {
      "midi": 68,
      "hit": false,
      "t": 70500,
      "d": 1410.15625,
      "v": 65
    },
    {
      "midi": 63,
      "hit": false,
      "t": 70500,
      "d": 1425.78125,
      "v": 68
    },
    {
      "midi": 71,
      "hit": false,
      "t": 70500,
      "d": 1433.59375,
      "v": 68
    },
    {
      "midi": 64,
      "hit": false,
      "t": 72000,
      "d": 1281.25,
      "v": 76
    },
    {
      "midi": 69,
      "hit": false,
      "t": 72000,
      "d": 1300.78125,
      "v": 76
    },
    {
      "midi": 61,
      "hit": false,
      "t": 72000,
      "d": 1347.65625,
      "v": 80
    },
    {
      "midi": 54,
      "hit": false,
      "t": 73500,
      "d": 1464.84375,
      "v": 67
    },
    {
      "midi": 59,
      "hit": false,
      "t": 73500,
      "d": 1464.84375,
      "v": 68
    },
    {
      "midi": 63,
      "hit": false,
      "t": 73500,
      "d": 1476.5625,
      "v": 72
    },
    {
      "midi": 42,
      "hit": false,
      "t": 75375,
      "d": 2582.03125,
      "v": 88
    },
    {
      "midi": 57,
      "hit": false,
      "t": 75375,
      "d": 289.0625,
      "v": 101
    },
    {
      "midi": 66,
      "hit": false,
      "t": 75375,
      "d": 304.6875,
      "v": 115
    },
    {
      "midi": 54,
      "hit": false,
      "t": 75750,
      "d": 2226.5625,
      "v": 70
    },
    {
      "midi": 59,
      "hit": false,
      "t": 75750,
      "d": 308.59375,
      "v": 88
    },
    {
      "midi": 68,
      "hit": false,
      "t": 75750,
      "d": 312.5,
      "v": 95
    },
    {
      "midi": 57,
      "hit": false,
      "t": 76125,
      "d": 1867.1875,
      "v": 88
    },
    {
      "midi": 61,
      "hit": false,
      "t": 76125,
      "d": 1882.8125,
      "v": 97
    },
    {
      "midi": 61,
      "hit": false,
      "t": 76125,
      "d": 1820.3125,
      "v": 106
    },
    {
      "midi": 69,
      "hit": false,
      "t": 76125,
      "d": 1847.65625,
      "v": 115
    },
    {
      "midi": 45,
      "hit": false,
      "t": 78000,
      "d": 2851.5625,
      "v": 72
    },
    {
      "midi": 52,
      "hit": false,
      "t": 78000,
      "d": 2863.28125,
      "v": 80
    },
    {
      "midi": 60,
      "hit": false,
      "t": 78375,
      "d": 449.21875,
      "v": 97
    },
    {
      "midi": 69,
      "hit": false,
      "t": 78375,
      "d": 460.9375,
      "v": 110
    },
    {
      "midi": 57,
      "hit": false,
      "t": 78750,
      "d": 2148.4375,
      "v": 70
    },
    {
      "midi": 71,
      "hit": false,
      "t": 78750,
      "d": 335.9375,
      "v": 88
    },
    {
      "midi": 62,
      "hit": false,
      "t": 78750,
      "d": 371.09375,
      "v": 93
    },
    {
      "midi": 72,
      "hit": false,
      "t": 79125,
      "d": 1796.875,
      "v": 97
    },
    {
      "midi": 64,
      "hit": false,
      "t": 79125,
      "d": 1812.5,
      "v": 97
    },
    {
      "midi": 64,
      "hit": false,
      "t": 79125,
      "d": 1843.75,
      "v": 97
    },
    {
      "midi": 72,
      "hit": false,
      "t": 79125,
      "d": 1863.28125,
      "v": 110
    },
    {
      "midi": 59,
      "hit": false,
      "t": 81000,
      "d": 2886.71875,
      "v": 70
    },
    {
      "midi": 52,
      "hit": false,
      "t": 81000,
      "d": 2898.4375,
      "v": 80
    },
    {
      "midi": 68,
      "hit": false,
      "t": 81000,
      "d": 2906.25,
      "v": 84
    },
    {
      "midi": 69,
      "hit": false,
      "t": 85500,
      "d": 640.625,
      "v": 88
    },
    {
      "midi": 68,
      "hit": false,
      "t": 86250,
      "d": 578.125,
      "v": 80
    },
    {
      "midi": 57,
      "hit": false,
      "t": 87375,
      "d": 308.59375,
      "v": 106
    },
    {
      "midi": 66,
      "hit": false,
      "t": 87375,
      "d": 441.40625,
      "v": 110
    },
    {
      "midi": 68,
      "hit": false,
      "t": 87750,
      "d": 222.65625,
      "v": 97
    },
    {
      "midi": 59,
      "hit": false,
      "t": 87750,
      "d": 296.875,
      "v": 84
    },
    {
      "midi": 61,
      "hit": false,
      "t": 88125,
      "d": 1792.96875,
      "v": 106
    },
    {
      "midi": 69,
      "hit": false,
      "t": 88125,
      "d": 1812.5,
      "v": 110
    },
    {
      "midi": 69,
      "hit": false,
      "t": 90000,
      "d": 386.71875,
      "v": 110
    },
    {
      "midi": 60,
      "hit": false,
      "t": 90000,
      "d": 398.4375,
      "v": 93
    },
    {
      "midi": 71,
      "hit": false,
      "t": 90375,
      "d": 343.75,
      "v": 97
    },
    {
      "midi": 62,
      "hit": false,
      "t": 90375,
      "d": 410.15625,
      "v": 76
    },
    {
      "midi": 64,
      "hit": false,
      "t": 90750,
      "d": 2183.59375,
      "v": 115
    },
    {
      "midi": 72,
      "hit": false,
      "t": 90750,
      "d": 2218.75,
      "v": 110
    },
    {
      "midi": 52,
      "hit": false,
      "t": 93000,
      "d": 871.09375,
      "v": 70
    },
    {
      "midi": 56,
      "hit": false,
      "t": 93000,
      "d": 906.25,
      "v": 76
    },
    {
      "midi": 59,
      "hit": false,
      "t": 94125,
      "d": 1578.125,
      "v": 84
    },
    {
      "midi": 52,
      "hit": false,
      "t": 94125,
      "d": 1625,
      "v": 80
    },
    {
      "midi": 56,
      "hit": false,
      "t": 94125,
      "d": 1675.78125,
      "v": 84
    },
    {
      "midi": 52,
      "hit": false,
      "t": 96000,
      "d": 570.3125,
      "v": 65
    },
    {
      "midi": 56,
      "hit": false,
      "t": 96000,
      "d": 906.25,
      "v": 76
    },
    {
      "midi": 49,
      "hit": false,
      "t": 96000,
      "d": 980.46875,
      "v": 65
    },
    {
      "midi": 52,
      "hit": false,
      "t": 96750,
      "d": 191.40625,
      "v": 33
    },
    {
      "midi": 61,
      "hit": false,
      "t": 97125,
      "d": 710.9375,
      "v": 70
    },
    {
      "midi": 52,
      "hit": false,
      "t": 97125,
      "d": 726.5625,
      "v": 70
    },
    {
      "midi": 56,
      "hit": false,
      "t": 97125,
      "d": 765.625,
      "v": 84
    },
    {
      "midi": 49,
      "hit": false,
      "t": 97875,
      "d": 457.03125,
      "v": 70
    },
    {
      "midi": 52,
      "hit": false,
      "t": 98250,
      "d": 644.53125,
      "v": 72
    },
    {
      "midi": 56,
      "hit": false,
      "t": 98250,
      "d": 652.34375,
      "v": 76
    },
    {
      "midi": 56,
      "hit": false,
      "t": 99000,
      "d": 710.9375,
      "v": 68
    },
    {
      "midi": 61,
      "hit": false,
      "t": 99000,
      "d": 714.84375,
      "v": 70
    },
    {
      "midi": 52,
      "hit": false,
      "t": 99000,
      "d": 722.65625,
      "v": 80
    },
    {
      "midi": 45,
      "hit": false,
      "t": 99750,
      "d": 910.15625,
      "v": 70
    },
    {
      "midi": 52,
      "hit": false,
      "t": 100125,
      "d": 917.96875,
      "v": 72
    },
    {
      "midi": 56,
      "hit": false,
      "t": 100125,
      "d": 976.5625,
      "v": 70
    },
    {
      "midi": 61,
      "hit": false,
      "t": 100125,
      "d": 976.5625,
      "v": 84
    },
    {
      "midi": 45,
      "hit": false,
      "t": 100875,
      "d": 1050.78125,
      "v": 80
    },
    {
      "midi": 52,
      "hit": false,
      "t": 101250,
      "d": 675.78125,
      "v": 70
    },
    {
      "midi": 56,
      "hit": false,
      "t": 101250,
      "d": 703.125,
      "v": 67
    },
    {
      "midi": 61,
      "hit": false,
      "t": 101250,
      "d": 730.46875,
      "v": 68
    },
    {
      "midi": 54,
      "hit": false,
      "t": 102000,
      "d": 753.90625,
      "v": 47
    },
    {
      "midi": 59,
      "hit": false,
      "t": 102000,
      "d": 957.03125,
      "v": 67
    },
    {
      "midi": 63,
      "hit": false,
      "t": 102000,
      "d": 960.9375,
      "v": 72
    },
    {
      "midi": 47,
      "hit": false,
      "t": 102000,
      "d": 1093.75,
      "v": 64
    },
    {
      "midi": 59,
      "hit": false,
      "t": 103125,
      "d": 257.8125,
      "v": 80
    },
    {
      "midi": 63,
      "hit": false,
      "t": 103125,
      "d": 289.0625,
      "v": 70
    },
    {
      "midi": 66,
      "hit": false,
      "t": 103125,
      "d": 289.0625,
      "v": 88
    },
    {
      "midi": 59,
      "hit": false,
      "t": 103500,
      "d": 1304.6875,
      "v": 65
    },
    {
      "midi": 66,
      "hit": false,
      "t": 103500,
      "d": 1375,
      "v": 67
    },
    {
      "midi": 63,
      "hit": false,
      "t": 103500,
      "d": 1378.90625,
      "v": 76
    },
    {
      "midi": 52,
      "hit": false,
      "t": 105000,
      "d": 527.34375,
      "v": 72
    },
    {
      "midi": 56,
      "hit": false,
      "t": 105000,
      "d": 964.84375,
      "v": 76
    },
    {
      "midi": 59,
      "hit": false,
      "t": 105000,
      "d": 1031.25,
      "v": 70
    },
    {
      "midi": 40,
      "hit": false,
      "t": 105000,
      "d": 1535.15625,
      "v": 55
    },
    {
      "midi": 52,
      "hit": false,
      "t": 105750,
      "d": 199.21875,
      "v": 56
    },
    {
      "midi": 64,
      "hit": false,
      "t": 106125,
      "d": 769.53125,
      "v": 80
    },
    {
      "midi": 56,
      "hit": false,
      "t": 106125,
      "d": 824.21875,
      "v": 80
    },
    {
      "midi": 59,
      "hit": false,
      "t": 106125,
      "d": 851.5625,
      "v": 58
    },
    {
      "midi": 40,
      "hit": false,
      "t": 106875,
      "d": 1031.25,
      "v": 76
    },
    {
      "midi": 56,
      "hit": false,
      "t": 107250,
      "d": 660.15625,
      "v": 76
    },
    {
      "midi": 59,
      "hit": false,
      "t": 107250,
      "d": 695.3125,
      "v": 64
    },
    {
      "midi": 64,
      "hit": false,
      "t": 107250,
      "d": 703.125,
      "v": 80
    },
    {
      "midi": 52,
      "hit": false,
      "t": 108000,
      "d": 742.1875,
      "v": 80
    },
    {
      "midi": 56,
      "hit": false,
      "t": 108000,
      "d": 894.53125,
      "v": 70
    },
    {
      "midi": 61,
      "hit": false,
      "t": 108000,
      "d": 996.09375,
      "v": 84
    },
    {
      "midi": 49,
      "hit": false,
      "t": 108750,
      "d": 875,
      "v": 65
    },
    {
      "midi": 64,
      "hit": false,
      "t": 109125,
      "d": 796.875,
      "v": 84
    },
    {
      "midi": 56,
      "hit": false,
      "t": 109125,
      "d": 855.46875,
      "v": 72
    },
    {
      "midi": 61,
      "hit": false,
      "t": 109125,
      "d": 855.46875,
      "v": 64
    },
    {
      "midi": 49,
      "hit": false,
      "t": 109875,
      "d": 500,
      "v": 88
    },
    {
      "midi": 52,
      "hit": false,
      "t": 110250,
      "d": 664.0625,
      "v": 55
    },
    {
      "midi": 56,
      "hit": false,
      "t": 110250,
      "d": 718.75,
      "v": 67
    },
    {
      "midi": 61,
      "hit": false,
      "t": 110250,
      "d": 746.09375,
      "v": 72
    },
    {
      "midi": 61,
      "hit": false,
      "t": 111000,
      "d": 19.53125,
      "v": 76
    },
    {
      "midi": 52,
      "hit": false,
      "t": 111000,
      "d": 703.125,
      "v": 53
    },
    {
      "midi": 56,
      "hit": false,
      "t": 111000,
      "d": 730.46875,
      "v": 67
    },
    {
      "midi": 45,
      "hit": false,
      "t": 111750,
      "d": 480.46875,
      "v": 80
    },
    {
      "midi": 64,
      "hit": false,
      "t": 112125,
      "d": 683.59375,
      "v": 80
    },
    {
      "midi": 61,
      "hit": false,
      "t": 112125,
      "d": 746.09375,
      "v": 70
    },
    {
      "midi": 56,
      "hit": false,
      "t": 112125,
      "d": 761.71875,
      "v": 76
    },
    {
      "midi": 45,
      "hit": false,
      "t": 112875,
      "d": 488.28125,
      "v": 84
    },
    {
      "midi": 52,
      "hit": false,
      "t": 113250,
      "d": 609.375,
      "v": 70
    },
    {
      "midi": 56,
      "hit": false,
      "t": 113250,
      "d": 628.90625,
      "v": 70
    },
    {
      "midi": 61,
      "hit": false,
      "t": 113250,
      "d": 671.875,
      "v": 70
    },
    {
      "midi": 68,
      "hit": false,
      "t": 114000,
      "d": 941.40625,
      "v": 80
    },
    {
      "midi": 59,
      "hit": false,
      "t": 114000,
      "d": 976.5625,
      "v": 68
    },
    {
      "midi": 63,
      "hit": false,
      "t": 114000,
      "d": 976.5625,
      "v": 72
    },
    {
      "midi": 47,
      "hit": false,
      "t": 114000,
      "d": 1015.625,
      "v": 80
    },
    {
      "midi": 63,
      "hit": false,
      "t": 115125,
      "d": 222.65625,
      "v": 68
    },
    {
      "midi": 59,
      "hit": false,
      "t": 115125,
      "d": 226.5625,
      "v": 53
    },
    {
      "midi": 71,
      "hit": false,
      "t": 115125,
      "d": 253.90625,
      "v": 80
    },
    {
      "midi": 66,
      "hit": false,
      "t": 115125,
      "d": 281.25,
      "v": 65
    },
    {
      "midi": 59,
      "hit": false,
      "t": 115500,
      "d": 609.375,
      "v": 67
    },
    {
      "midi": 63,
      "hit": false,
      "t": 115500,
      "d": 1339.84375,
      "v": 76
    },
    {
      "midi": 71,
      "hit": false,
      "t": 115500,
      "d": 1367.1875,
      "v": 80
    },
    {
      "midi": 66,
      "hit": false,
      "t": 115500,
      "d": 1375,
      "v": 72
    },
    {
      "midi": 59,
      "hit": false,
      "t": 116250,
      "d": 601.5625,
      "v": 72
    },
    {
      "midi": 57,
      "hit": false,
      "t": 117000,
      "d": 867.1875,
      "v": 80
    },
    {
      "midi": 61,
      "hit": false,
      "t": 117000,
      "d": 937.5,
      "v": 72
    },
    {
      "midi": 66,
      "hit": false,
      "t": 117000,
      "d": 941.40625,
      "v": 72
    },
    {
      "midi": 54,
      "hit": false,
      "t": 117750,
      "d": 902.34375,
      "v": 65
    },
    {
      "midi": 57,
      "hit": false,
      "t": 118125,
      "d": 839.84375,
      "v": 70
    },
    {
      "midi": 66,
      "hit": false,
      "t": 118125,
      "d": 929.6875,
      "v": 72
    },
    {
      "midi": 61,
      "hit": false,
      "t": 118125,
      "d": 937.5,
      "v": 80
    },
    {
      "midi": 54,
      "hit": false,
      "t": 118875,
      "d": 949.21875,
      "v": 53
    },
    {
      "midi": 57,
      "hit": false,
      "t": 119250,
      "d": 628.90625,
      "v": 84
    },
    {
      "midi": 61,
      "hit": false,
      "t": 119250,
      "d": 679.6875,
      "v": 72
    },
    {
      "midi": 66,
      "hit": false,
      "t": 119250,
      "d": 718.75,
      "v": 80
    },
    {
      "midi": 59,
      "hit": false,
      "t": 120000,
      "d": 468.75,
      "v": 76
    },
    {
      "midi": 56,
      "hit": false,
      "t": 120000,
      "d": 726.5625,
      "v": 67
    },
    {
      "midi": 63,
      "hit": false,
      "t": 120000,
      "d": 992.1875,
      "v": 76
    },
    {
      "midi": 68,
      "hit": false,
      "t": 120000,
      "d": 1000,
      "v": 76
    },
    {
      "midi": 59,
      "hit": false,
      "t": 120750,
      "d": 257.8125,
      "v": 68
    },
    {
      "midi": 56,
      "hit": false,
      "t": 120937.5,
      "d": 468.75,
      "v": 55
    },
    {
      "midi": 59,
      "hit": false,
      "t": 121125,
      "d": 800.78125,
      "v": 76
    },
    {
      "midi": 63,
      "hit": false,
      "t": 121125,
      "d": 1750,
      "v": 80
    },
    {
      "midi": 68,
      "hit": false,
      "t": 121125,
      "d": 1777.34375,
      "v": 80
    },
    {
      "midi": 56,
      "hit": false,
      "t": 121875,
      "d": 425.78125,
      "v": 70
    },
    {
      "midi": 59,
      "hit": false,
      "t": 122250,
      "d": 644.53125,
      "v": 67
    },
    {
      "midi": 71,
      "hit": false,
      "t": 122250,
      "d": 703.125,
      "v": 68
    },
    {
      "midi": 64,
      "hit": false,
      "t": 123000,
      "d": 824.21875,
      "v": 76
    },
    {
      "midi": 59,
      "hit": false,
      "t": 123000,
      "d": 828.125,
      "v": 68
    },
    {
      "midi": 68,
      "hit": false,
      "t": 123000,
      "d": 835.9375,
      "v": 68
    },
    {
      "midi": 52,
      "hit": false,
      "t": 123750,
      "d": 964.84375,
      "v": 76
    },
    {
      "midi": 59,
      "hit": false,
      "t": 124125,
      "d": 847.65625,
      "v": 70
    },
    {
      "midi": 64,
      "hit": false,
      "t": 124125,
      "d": 1832.03125,
      "v": 76
    },
    {
      "midi": 68,
      "hit": false,
      "t": 124125,
      "d": 1835.9375,
      "v": 84
    },
    {
      "midi": 52,
      "hit": false,
      "t": 124875,
      "d": 1058.59375,
      "v": 84
    },
    {
      "midi": 59,
      "hit": false,
      "t": 125250,
      "d": 671.875,
      "v": 80
    },
    {
      "midi": 64,
      "hit": false,
      "t": 126000,
      "d": 777.34375,
      "v": 88
    },
    {
      "midi": 61,
      "hit": false,
      "t": 126000,
      "d": 785.15625,
      "v": 84
    },
    {
      "midi": 56,
      "hit": false,
      "t": 126000,
      "d": 804.6875,
      "v": 72
    },
    {
      "midi": 49,
      "hit": false,
      "t": 126750,
      "d": 820.3125,
      "v": 97
    },
    {
      "midi": 64,
      "hit": false,
      "t": 127125,
      "d": 804.6875,
      "v": 88
    },
    {
      "midi": 56,
      "hit": false,
      "t": 127125,
      "d": 886.71875,
      "v": 84
    },
    {
      "midi": 61,
      "hit": false,
      "t": 127125,
      "d": 894.53125,
      "v": 84
    },
    {
      "midi": 49,
      "hit": false,
      "t": 127875,
      "d": 492.1875,
      "v": 70
    },
    {
      "midi": 56,
      "hit": false,
      "t": 128250,
      "d": 632.8125,
      "v": 80
    },
    {
      "midi": 61,
      "hit": false,
      "t": 128250,
      "d": 660.15625,
      "v": 70
    },
    {
      "midi": 64,
      "hit": false,
      "t": 128250,
      "d": 707.03125,
      "v": 84
    },
    {
      "midi": 55,
      "hit": false,
      "t": 129000,
      "d": 1015.625,
      "v": 72
    },
    {
      "midi": 59,
      "hit": false,
      "t": 129000,
      "d": 2128.90625,
      "v": 70
    },
    {
      "midi": 64,
      "hit": false,
      "t": 129000,
      "d": 2128.90625,
      "v": 84
    },
    {
      "midi": 48,
      "hit": false,
      "t": 129750,
      "d": 824.21875,
      "v": 70
    },
    {
      "midi": 67,
      "hit": false,
      "t": 130125,
      "d": 738.28125,
      "v": 68
    },
    {
      "midi": 55,
      "hit": false,
      "t": 130125,
      "d": 921.875,
      "v": 56
    },
    {
      "midi": 48,
      "hit": false,
      "t": 130875,
      "d": 1039.0625,
      "v": 70
    },
    {
      "midi": 55,
      "hit": false,
      "t": 131250,
      "d": 609.375,
      "v": 68
    },
    {
      "midi": 59,
      "hit": false,
      "t": 131250,
      "d": 640.625,
      "v": 70
    },
    {
      "midi": 64,
      "hit": false,
      "t": 131250,
      "d": 679.6875,
      "v": 70
    },
    {
      "midi": 47,
      "hit": false,
      "t": 132000,
      "d": 785.15625,
      "v": 68
    },
    {
      "midi": 59,
      "hit": false,
      "t": 132375,
      "d": 859.375,
      "v": 72
    },
    {
      "midi": 68,
      "hit": false,
      "t": 132375,
      "d": 917.96875,
      "v": 80
    },
    {
      "midi": 63,
      "hit": false,
      "t": 132375,
      "d": 957.03125,
      "v": 68
    },
    {
      "midi": 47,
      "hit": false,
      "t": 133125,
      "d": 757.8125,
      "v": 68
    },
    {
      "midi": 59,
      "hit": false,
      "t": 133500,
      "d": 562.5,
      "v": 80
    },
    {
      "midi": 68,
      "hit": false,
      "t": 133500,
      "d": 804.6875,
      "v": 84
    },
    {
      "midi": 63,
      "hit": false,
      "t": 133500,
      "d": 1410.15625,
      "v": 61
    },
    {
      "midi": 59,
      "hit": false,
      "t": 134250,
      "d": 632.8125,
      "v": 67
    },
    {
      "midi": 66,
      "hit": false,
      "t": 134250,
      "d": 671.875,
      "v": 63
    },
    {
      "midi": 40,
      "hit": false,
      "t": 135000,
      "d": 812.5,
      "v": 88
    },
    {
      "midi": 64,
      "hit": false,
      "t": 135750,
      "d": 832.03125,
      "v": 80
    },
    {
      "midi": 56,
      "hit": false,
      "t": 135750,
      "d": 878.90625,
      "v": 80
    },
    {
      "midi": 59,
      "hit": false,
      "t": 135750,
      "d": 921.875,
      "v": 80
    },
    {
      "midi": 40,
      "hit": false,
      "t": 136125,
      "d": 121.09375,
      "v": 68
    },
    {
      "midi": 40,
      "hit": false,
      "t": 136500,
      "d": 789.0625,
      "v": 76
    },
    {
      "midi": 56,
      "hit": false,
      "t": 136875,
      "d": 1031.25,
      "v": 76
    },
    {
      "midi": 59,
      "hit": false,
      "t": 136875,
      "d": 1085.9375,
      "v": 70
    },
    {
      "midi": 64,
      "hit": false,
      "t": 136875,
      "d": 1121.09375,
      "v": 80
    },
    {
      "midi": 49,
      "hit": false,
      "t": 138000,
      "d": 753.90625,
      "v": 80
    },
    {
      "midi": 56,
      "hit": false,
      "t": 138750,
      "d": 613.28125,
      "v": 80
    },
    {
      "midi": 61,
      "hit": false,
      "t": 138750,
      "d": 695.3125,
      "v": 76
    },
    {
      "midi": 64,
      "hit": false,
      "t": 138750,
      "d": 742.1875,
      "v": 93
    },
    {
      "midi": 49,
      "hit": false,
      "t": 139500,
      "d": 1324.21875,
      "v": 64
    },
    {
      "midi": 64,
      "hit": false,
      "t": 139875,
      "d": 1011.71875,
      "v": 76
    },
    {
      "midi": 68,
      "hit": false,
      "t": 139875,
      "d": 1042.96875,
      "v": 70
    },
    {
      "midi": 73,
      "hit": false,
      "t": 139875,
      "d": 1074.21875,
      "v": 80
    },
    {
      "midi": 56,
      "hit": false,
      "t": 141000,
      "d": 582.03125,
      "v": 68
    },
    {
      "midi": 61,
      "hit": false,
      "t": 141000,
      "d": 1007.8125,
      "v": 72
    },
    {
      "midi": 64,
      "hit": false,
      "t": 141000,
      "d": 1027.34375,
      "v": 84
    },
    {
      "midi": 45,
      "hit": false,
      "t": 141000,
      "d": 1554.6875,
      "v": 80
    },
    {
      "midi": 56,
      "hit": false,
      "t": 141750,
      "d": 160.15625,
      "v": 58
    },
    {
      "midi": 64,
      "hit": false,
      "t": 142125,
      "d": 800.78125,
      "v": 93
    },
    {
      "midi": 56,
      "hit": false,
      "t": 142125,
      "d": 859.375,
      "v": 80
    },
    {
      "midi": 61,
      "hit": false,
      "t": 142125,
      "d": 1789.0625,
      "v": 93
    },
    {
      "midi": 45,
      "hit": false,
      "t": 142875,
      "d": 1042.96875,
      "v": 72
    },
    {
      "midi": 56,
      "hit": false,
      "t": 143250,
      "d": 625,
      "v": 76
    },
    {
      "midi": 64,
      "hit": false,
      "t": 143250,
      "d": 664.0625,
      "v": 80
    },
    {
      "midi": 59,
      "hit": false,
      "t": 144000,
      "d": 871.09375,
      "v": 72
    },
    {
      "midi": 63,
      "hit": false,
      "t": 144000,
      "d": 898.4375,
      "v": 68
    },
    {
      "midi": 68,
      "hit": false,
      "t": 144000,
      "d": 906.25,
      "v": 70
    },
    {
      "midi": 47,
      "hit": false,
      "t": 144000,
      "d": 1625,
      "v": 80
    },
    {
      "midi": 59,
      "hit": false,
      "t": 145125,
      "d": 808.59375,
      "v": 70
    },
    {
      "midi": 68,
      "hit": false,
      "t": 145125,
      "d": 812.5,
      "v": 80
    },
    {
      "midi": 63,
      "hit": false,
      "t": 145125,
      "d": 824.21875,
      "v": 72
    },
    {
      "midi": 47,
      "hit": false,
      "t": 145875,
      "d": 1015.625,
      "v": 76
    },
    {
      "midi": 59,
      "hit": false,
      "t": 146250,
      "d": 625,
      "v": 67
    },
    {
      "midi": 63,
      "hit": false,
      "t": 146250,
      "d": 625,
      "v": 58
    },
    {
      "midi": 66,
      "hit": false,
      "t": 146250,
      "d": 648.4375,
      "v": 70
    },
    {
      "midi": 46,
      "hit": false,
      "t": 147000,
      "d": 1375,
      "v": 72
    },
    {
      "midi": 64,
      "hit": false,
      "t": 147750,
      "d": 1257.8125,
      "v": 88
    },
    {
      "midi": 58,
      "hit": false,
      "t": 147750,
      "d": 1312.5,
      "v": 88
    },
    {
      "midi": 61,
      "hit": false,
      "t": 147750,
      "d": 1339.84375,
      "v": 84
    },
    {
      "midi": 46,
      "hit": false,
      "t": 148500,
      "d": 796.875,
      "v": 80
    },
    {
      "midi": 58,
      "hit": false,
      "t": 149250,
      "d": 636.71875,
      "v": 80
    },
    {
      "midi": 61,
      "hit": false,
      "t": 149250,
      "d": 656.25,
      "v": 80
    },
    {
      "midi": 64,
      "hit": false,
      "t": 149250,
      "d": 679.6875,
      "v": 84
    },
    {
      "midi": 45,
      "hit": false,
      "t": 150000,
      "d": 777.34375,
      "v": 88
    },
    {
      "midi": 64,
      "hit": false,
      "t": 150750,
      "d": 1308.59375,
      "v": 84
    },
    {
      "midi": 56,
      "hit": false,
      "t": 150750,
      "d": 1328.125,
      "v": 84
    },
    {
      "midi": 61,
      "hit": false,
      "t": 150750,
      "d": 1351.5625,
      "v": 84
    },
    {
      "midi": 56,
      "hit": false,
      "t": 152250,
      "d": 234.375,
      "v": 88
    },
    {
      "midi": 61,
      "hit": false,
      "t": 152250,
      "d": 246.09375,
      "v": 84
    },
    {
      "midi": 64,
      "hit": false,
      "t": 152250,
      "d": 257.8125,
      "v": 80
    },
    {
      "midi": 59,
      "hit": false,
      "t": 152625,
      "d": 992.1875,
      "v": 61
    },
    {
      "midi": 52,
      "hit": false,
      "t": 152625,
      "d": 1000,
      "v": 84
    },
    {
      "midi": 56,
      "hit": false,
      "t": 152625,
      "d": 1007.8125,
      "v": 76
    },
    {
      "midi": 59,
      "hit": false,
      "t": 153750,
      "d": 1355.46875,
      "v": 72
    },
    {
      "midi": 52,
      "hit": false,
      "t": 153750,
      "d": 1367.1875,
      "v": 88
    },
    {
      "midi": 56,
      "hit": false,
      "t": 153750,
      "d": 1402.34375,
      "v": 84
    },
    {
      "midi": 56,
      "hit": false,
      "t": 155250,
      "d": 652.34375,
      "v": 80
    },
    {
      "midi": 59,
      "hit": false,
      "t": 155250,
      "d": 660.15625,
      "v": 76
    },
    {
      "midi": 52,
      "hit": false,
      "t": 155250,
      "d": 671.875,
      "v": 93
    },
    {
      "midi": 59,
      "hit": false,
      "t": 156000,
      "d": 472.65625,
      "v": 80
    },
    {
      "midi": 63,
      "hit": false,
      "t": 156000,
      "d": 597.65625,
      "v": 72
    },
    {
      "midi": 66,
      "hit": false,
      "t": 156000,
      "d": 738.28125,
      "v": 80
    },
    {
      "midi": 49,
      "hit": false,
      "t": 156750,
      "d": 539.0625,
      "v": 58
    },
    {
      "midi": 64,
      "hit": false,
      "t": 156750,
      "d": 746.09375,
      "v": 101
    },
    {
      "midi": 61,
      "hit": false,
      "t": 156750,
      "d": 882.8125,
      "v": 84
    },
    {
      "midi": 68,
      "hit": false,
      "t": 156750,
      "d": 968.75,
      "v": 76
    },
    {
      "midi": 49,
      "hit": false,
      "t": 157500,
      "d": 742.1875,
      "v": 72
    },
    {
      "midi": 59,
      "hit": false,
      "t": 157875,
      "d": 531.25,
      "v": 84
    },
    {
      "midi": 63,
      "hit": false,
      "t": 157875,
      "d": 566.40625,
      "v": 80
    },
    {
      "midi": 66,
      "hit": false,
      "t": 157875,
      "d": 582.03125,
      "v": 68
    },
    {
      "midi": 64,
      "hit": false,
      "t": 158625,
      "d": 1843.75,
      "v": 80
    },
    {
      "midi": 57,
      "hit": false,
      "t": 158625,
      "d": 1847.65625,
      "v": 97
    },
    {
      "midi": 54,
      "hit": false,
      "t": 158625,
      "d": 1851.5625,
      "v": 76
    },
    {
      "midi": 56,
      "hit": false,
      "t": 160500,
      "d": 1316.40625,
      "v": 84
    },
    {
      "midi": 59,
      "hit": false,
      "t": 160500,
      "d": 1351.5625,
      "v": 93
    },
    {
      "midi": 66,
      "hit": false,
      "t": 160500,
      "d": 1371.09375,
      "v": 93
    },
    {
      "midi": 69,
      "hit": false,
      "t": 162000,
      "d": 851.5625,
      "v": 97
    },
    {
      "midi": 64,
      "hit": false,
      "t": 162000,
      "d": 867.1875,
      "v": 80
    },
    {
      "midi": 60,
      "hit": false,
      "t": 162000,
      "d": 875,
      "v": 97
    },
    {
      "midi": 66,
      "hit": false,
      "t": 162000,
      "d": 894.53125,
      "v": 80
    },
    {
      "midi": 60,
      "hit": false,
      "t": 163125,
      "d": 484.375,
      "v": 80
    },
    {
      "midi": 64,
      "hit": false,
      "t": 163125,
      "d": 496.09375,
      "v": 97
    },
    {
      "midi": 68,
      "hit": false,
      "t": 163125,
      "d": 527.34375,
      "v": 93
    },
    {
      "midi": 60,
      "hit": false,
      "t": 163875,
      "d": 457.03125,
      "v": 76
    },
    {
      "midi": 64,
      "hit": false,
      "t": 163875,
      "d": 496.09375,
      "v": 93
    },
    {
      "midi": 69,
      "hit": false,
      "t": 163875,
      "d": 550.78125,
      "v": 101
    },
    {
      "midi": 59,
      "hit": false,
      "t": 164625,
      "d": 527.34375,
      "v": 84
    },
    {
      "midi": 71,
      "hit": false,
      "t": 164625,
      "d": 542.96875,
      "v": 93
    },
    {
      "midi": 64,
      "hit": false,
      "t": 164625,
      "d": 558.59375,
      "v": 84
    },
    {
      "midi": 66,
      "hit": false,
      "t": 164625,
      "d": 609.375,
      "v": 72
    },
    {
      "midi": 69,
      "hit": false,
      "t": 165375,
      "d": 492.1875,
      "v": 80
    },
    {
      "midi": 59,
      "hit": false,
      "t": 165375,
      "d": 519.53125,
      "v": 80
    },
    {
      "midi": 64,
      "hit": false,
      "t": 165375,
      "d": 531.25,
      "v": 84
    },
    {
      "midi": 66,
      "hit": false,
      "t": 165375,
      "d": 566.40625,
      "v": 60
    },
    {
      "midi": 59,
      "hit": false,
      "t": 166125,
      "d": 523.4375,
      "v": 70
    },
    {
      "midi": 64,
      "hit": false,
      "t": 166125,
      "d": 542.96875,
      "v": 80
    },
    {
      "midi": 68,
      "hit": false,
      "t": 166125,
      "d": 605.46875,
      "v": 93
    },
    {
      "midi": 59,
      "hit": false,
      "t": 166875,
      "d": 382.8125,
      "v": 70
    },
    {
      "midi": 64,
      "hit": false,
      "t": 166875,
      "d": 589.84375,
      "v": 84
    },
    {
      "midi": 69,
      "hit": false,
      "t": 166875,
      "d": 667.96875,
      "v": 84
    },
    {
      "midi": 40,
      "hit": false,
      "t": 168000,
      "d": 2945.3125,
      "v": 106
    },
    {
      "midi": 47,
      "hit": false,
      "t": 168375,
      "d": 2585.9375,
      "v": 80
    },
    {
      "midi": 52,
      "hit": false,
      "t": 168750,
      "d": 2234.375,
      "v": 84
    },
    {
      "midi": 56,
      "hit": false,
      "t": 169125,
      "d": 1824.21875,
      "v": 88
    },
    {
      "midi": 61,
      "hit": false,
      "t": 169125,
      "d": 1832.03125,
      "v": 97
    },
    {
      "midi": 39,
      "hit": false,
      "t": 171000,
      "d": 2882.8125,
      "v": 93
    },
    {
      "midi": 46,
      "hit": false,
      "t": 171375,
      "d": 1828.125,
      "v": 52
    },
    {
      "midi": 49,
      "hit": false,
      "t": 171750,
      "d": 2152.34375,
      "v": 70
    },
    {
      "midi": 58,
      "hit": false,
      "t": 172125,
      "d": 1750,
      "v": 72
    },
    {
      "midi": 55,
      "hit": false,
      "t": 172125,
      "d": 1753.90625,
      "v": 65
    },
    {
      "midi": 63,
      "hit": false,
      "t": 172125,
      "d": 1757.8125,
      "v": 70
    },
    {
      "midi": 38,
      "hit": false,
      "t": 174000,
      "d": 3027.34375,
      "v": 97
    },
    {
      "midi": 45,
      "hit": false,
      "t": 174375,
      "d": 2660.15625,
      "v": 76
    },
    {
      "midi": 50,
      "hit": false,
      "t": 174750,
      "d": 1210.9375,
      "v": 70
    },
    {
      "midi": 59,
      "hit": false,
      "t": 175125,
      "d": 527.34375,
      "v": 84
    },
    {
      "midi": 54,
      "hit": false,
      "t": 175125,
      "d": 609.375,
      "v": 80
    },
    {
      "midi": 57,
      "hit": false,
      "t": 175500,
      "d": 1492.1875,
      "v": 59
    },
    {
      "midi": 54,
      "hit": false,
      "t": 175875,
      "d": 597.65625,
      "v": 59
    },
    {
      "midi": 50,
      "hit": false,
      "t": 176250,
      "d": 750,
      "v": 58
    },
    {
      "midi": 54,
      "hit": false,
      "t": 176625,
      "d": 406.25,
      "v": 39
    },
    {
      "midi": 37,
      "hit": false,
      "t": 177000,
      "d": 1042.96875,
      "v": 97
    },
    {
      "midi": 44,
      "hit": false,
      "t": 177375,
      "d": 355.46875,
      "v": 64
    },
    {
      "midi": 47,
      "hit": false,
      "t": 177750,
      "d": 2195.3125,
      "v": 80
    },
    {
      "midi": 59,
      "hit": false,
      "t": 178125,
      "d": 1128.90625,
      "v": 84
    },
    {
      "midi": 53,
      "hit": false,
      "t": 178125,
      "d": 1804.6875,
      "v": 76
    },
    {
      "midi": 49,
      "hit": false,
      "t": 179250,
      "d": 636.71875,
      "v": 55
    },
    {
      "midi": 69,
      "hit": false,
      "t": 180000,
      "d": 925.78125,
      "v": 84
    },
    {
      "midi": 61,
      "hit": false,
      "t": 180000,
      "d": 2160.15625,
      "v": 72
    },
    {
      "midi": 66,
      "hit": false,
      "t": 180000,
      "d": 3023.4375,
      "v": 72
    },
    {
      "midi": 57,
      "hit": false,
      "t": 181125,
      "d": 1039.0625,
      "v": 68
    },
    {
      "midi": 54,
      "hit": false,
      "t": 181125,
      "d": 1160.15625,
      "v": 64
    },
    {
      "midi": 57,
      "hit": false,
      "t": 182250,
      "d": 730.46875,
      "v": 63
    },
    {
      "midi": 61,
      "hit": false,
      "t": 182250,
      "d": 746.09375,
      "v": 63
    },
    {
      "midi": 69,
      "hit": false,
      "t": 183000,
      "d": 1207.03125,
      "v": 84
    },
    {
      "midi": 60,
      "hit": false,
      "t": 183000,
      "d": 2085.9375,
      "v": 55
    },
    {
      "midi": 64,
      "hit": false,
      "t": 183000,
      "d": 2089.84375,
      "v": 80
    },
    {
      "midi": 57,
      "hit": false,
      "t": 184125,
      "d": 1281.25,
      "v": 67
    },
    {
      "midi": 64,
      "hit": false,
      "t": 185250,
      "d": 691.40625,
      "v": 67
    },
    {
      "midi": 60,
      "hit": false,
      "t": 185250,
      "d": 695.3125,
      "v": 59
    },
    {
      "midi": 68,
      "hit": false,
      "t": 186000,
      "d": 1378.90625,
      "v": 59
    },
    {
      "midi": 59,
      "hit": false,
      "t": 186000,
      "d": 1394.53125,
      "v": 65
    },
    {
      "midi": 64,
      "hit": false,
      "t": 186000,
      "d": 1394.53125,
      "v": 70
    },
    {
      "midi": 52,
      "hit": false,
      "t": 186000,
      "d": 1410.15625,
      "v": 70
    },
    {
      "midi": 59,
      "hit": false,
      "t": 187500,
      "d": 1410.15625,
      "v": 67
    },
    {
      "midi": 68,
      "hit": false,
      "t": 187500,
      "d": 1410.15625,
      "v": 65
    },
    {
      "midi": 63,
      "hit": false,
      "t": 187500,
      "d": 1425.78125,
      "v": 68
    },
    {
      "midi": 71,
      "hit": false,
      "t": 187500,
      "d": 1433.59375,
      "v": 68
    },
    {
      "midi": 64,
      "hit": false,
      "t": 189000,
      "d": 1281.25,
      "v": 76
    },
    {
      "midi": 69,
      "hit": false,
      "t": 189000,
      "d": 1300.78125,
      "v": 76
    },
    {
      "midi": 61,
      "hit": false,
      "t": 189000,
      "d": 1347.65625,
      "v": 80
    },
    {
      "midi": 54,
      "hit": false,
      "t": 190500,
      "d": 1464.84375,
      "v": 67
    },
    {
      "midi": 59,
      "hit": false,
      "t": 190500,
      "d": 1464.84375,
      "v": 68
    },
    {
      "midi": 63,
      "hit": false,
      "t": 190500,
      "d": 1476.5625,
      "v": 72
    },
    {
      "midi": 42,
      "hit": false,
      "t": 192375,
      "d": 2582.03125,
      "v": 88
    },
    {
      "midi": 57,
      "hit": false,
      "t": 192375,
      "d": 289.0625,
      "v": 101
    },
    {
      "midi": 66,
      "hit": false,
      "t": 192375,
      "d": 304.6875,
      "v": 115
    },
    {
      "midi": 54,
      "hit": false,
      "t": 192750,
      "d": 2226.5625,
      "v": 70
    },
    {
      "midi": 59,
      "hit": false,
      "t": 192750,
      "d": 308.59375,
      "v": 88
    },
    {
      "midi": 68,
      "hit": false,
      "t": 192750,
      "d": 312.5,
      "v": 95
    },
    {
      "midi": 57,
      "hit": false,
      "t": 193125,
      "d": 1867.1875,
      "v": 88
    },
    {
      "midi": 61,
      "hit": false,
      "t": 193125,
      "d": 1882.8125,
      "v": 97
    },
    {
      "midi": 61,
      "hit": false,
      "t": 193125,
      "d": 1820.3125,
      "v": 106
    },
    {
      "midi": 69,
      "hit": false,
      "t": 193125,
      "d": 1847.65625,
      "v": 115
    },
    {
      "midi": 45,
      "hit": false,
      "t": 195000,
      "d": 2851.5625,
      "v": 72
    },
    {
      "midi": 52,
      "hit": false,
      "t": 195000,
      "d": 2863.28125,
      "v": 80
    },
    {
      "midi": 60,
      "hit": false,
      "t": 195375,
      "d": 449.21875,
      "v": 97
    },
    {
      "midi": 69,
      "hit": false,
      "t": 195375,
      "d": 460.9375,
      "v": 110
    },
    {
      "midi": 57,
      "hit": false,
      "t": 195750,
      "d": 2148.4375,
      "v": 70
    },
    {
      "midi": 71,
      "hit": false,
      "t": 195750,
      "d": 335.9375,
      "v": 88
    },
    {
      "midi": 62,
      "hit": false,
      "t": 195750,
      "d": 371.09375,
      "v": 93
    },
    {
      "midi": 72,
      "hit": false,
      "t": 196125,
      "d": 1796.875,
      "v": 97
    },
    {
      "midi": 64,
      "hit": false,
      "t": 196125,
      "d": 1812.5,
      "v": 97
    },
    {
      "midi": 64,
      "hit": false,
      "t": 196125,
      "d": 1843.75,
      "v": 97
    },
    {
      "midi": 72,
      "hit": false,
      "t": 196125,
      "d": 1863.28125,
      "v": 110
    },
    {
      "midi": 59,
      "hit": false,
      "t": 198000,
      "d": 2886.71875,
      "v": 70
    },
    {
      "midi": 52,
      "hit": false,
      "t": 198000,
      "d": 2898.4375,
      "v": 80
    },
    {
      "midi": 68,
      "hit": false,
      "t": 198000,
      "d": 2906.25,
      "v": 84
    },
    {
      "midi": 69,
      "hit": false,
      "t": 202500,
      "d": 640.625,
      "v": 88
    },
    {
      "midi": 68,
      "hit": false,
      "t": 203250,
      "d": 578.125,
      "v": 80
    },
    {
      "midi": 57,
      "hit": false,
      "t": 204375,
      "d": 308.59375,
      "v": 106
    },
    {
      "midi": 66,
      "hit": false,
      "t": 204375,
      "d": 441.40625,
      "v": 110
    },
    {
      "midi": 68,
      "hit": false,
      "t": 204750,
      "d": 222.65625,
      "v": 97
    },
    {
      "midi": 59,
      "hit": false,
      "t": 204750,
      "d": 296.875,
      "v": 84
    },
    {
      "midi": 61,
      "hit": false,
      "t": 205125,
      "d": 1792.96875,
      "v": 106
    },
    {
      "midi": 69,
      "hit": false,
      "t": 205125,
      "d": 1812.5,
      "v": 110
    },
    {
      "midi": 69,
      "hit": false,
      "t": 207000,
      "d": 386.71875,
      "v": 110
    },
    {
      "midi": 60,
      "hit": false,
      "t": 207000,
      "d": 398.4375,
      "v": 93
    },
    {
      "midi": 71,
      "hit": false,
      "t": 207375,
      "d": 343.75,
      "v": 97
    },
    {
      "midi": 62,
      "hit": false,
      "t": 207375,
      "d": 410.15625,
      "v": 76
    },
    {
      "midi": 64,
      "hit": false,
      "t": 207750,
      "d": 2183.59375,
      "v": 115
    },
    {
      "midi": 72,
      "hit": false,
      "t": 207750,
      "d": 2218.75,
      "v": 110
    },
    {
      "midi": 52,
      "hit": false,
      "t": 210000,
      "d": 871.09375,
      "v": 70
    },
    {
      "midi": 56,
      "hit": false,
      "t": 210000,
      "d": 906.25,
      "v": 76
    },
    {
      "midi": 59,
      "hit": false,
      "t": 211125,
      "d": 1578.125,
      "v": 84
    },
    {
      "midi": 52,
      "hit": false,
      "t": 211125,
      "d": 1625,
      "v": 80
    },
    {
      "midi": 56,
      "hit": false,
      "t": 211125,
      "d": 1675.78125,
      "v": 84
    },
    {
      "midi": 52,
      "hit": false,
      "t": 213000,
      "d": 570.3125,
      "v": 65
    },
    {
      "midi": 56,
      "hit": false,
      "t": 213000,
      "d": 906.25,
      "v": 76
    },
    {
      "midi": 49,
      "hit": false,
      "t": 213000,
      "d": 980.46875,
      "v": 65
    },
    {
      "midi": 52,
      "hit": false,
      "t": 213750,
      "d": 191.40625,
      "v": 33
    },
    {
      "midi": 61,
      "hit": false,
      "t": 214125,
      "d": 710.9375,
      "v": 70
    },
    {
      "midi": 52,
      "hit": false,
      "t": 214125,
      "d": 726.5625,
      "v": 70
    },
    {
      "midi": 56,
      "hit": false,
      "t": 214125,
      "d": 765.625,
      "v": 84
    },
    {
      "midi": 49,
      "hit": false,
      "t": 214875,
      "d": 457.03125,
      "v": 70
    },
    {
      "midi": 52,
      "hit": false,
      "t": 215250,
      "d": 644.53125,
      "v": 72
    },
    {
      "midi": 56,
      "hit": false,
      "t": 215250,
      "d": 652.34375,
      "v": 76
    },
    {
      "midi": 56,
      "hit": false,
      "t": 216000,
      "d": 710.9375,
      "v": 68
    },
    {
      "midi": 61,
      "hit": false,
      "t": 216000,
      "d": 714.84375,
      "v": 70
    },
    {
      "midi": 52,
      "hit": false,
      "t": 216000,
      "d": 722.65625,
      "v": 80
    },
    {
      "midi": 45,
      "hit": false,
      "t": 216750,
      "d": 910.15625,
      "v": 70
    },
    {
      "midi": 52,
      "hit": false,
      "t": 217125,
      "d": 917.96875,
      "v": 72
    },
    {
      "midi": 56,
      "hit": false,
      "t": 217125,
      "d": 976.5625,
      "v": 70
    },
    {
      "midi": 61,
      "hit": false,
      "t": 217125,
      "d": 976.5625,
      "v": 84
    },
    {
      "midi": 45,
      "hit": false,
      "t": 217875,
      "d": 1050.78125,
      "v": 80
    },
    {
      "midi": 52,
      "hit": false,
      "t": 218250,
      "d": 675.78125,
      "v": 70
    },
    {
      "midi": 56,
      "hit": false,
      "t": 218250,
      "d": 703.125,
      "v": 67
    },
    {
      "midi": 61,
      "hit": false,
      "t": 218250,
      "d": 730.46875,
      "v": 68
    },
    {
      "midi": 54,
      "hit": false,
      "t": 219000,
      "d": 753.90625,
      "v": 47
    },
    {
      "midi": 59,
      "hit": false,
      "t": 219000,
      "d": 957.03125,
      "v": 67
    },
    {
      "midi": 63,
      "hit": false,
      "t": 219000,
      "d": 960.9375,
      "v": 72
    },
    {
      "midi": 47,
      "hit": false,
      "t": 219000,
      "d": 1093.75,
      "v": 64
    },
    {
      "midi": 59,
      "hit": false,
      "t": 220125,
      "d": 257.8125,
      "v": 80
    },
    {
      "midi": 63,
      "hit": false,
      "t": 220125,
      "d": 289.0625,
      "v": 70
    },
    {
      "midi": 66,
      "hit": false,
      "t": 220125,
      "d": 289.0625,
      "v": 88
    },
    {
      "midi": 59,
      "hit": false,
      "t": 220500,
      "d": 1304.6875,
      "v": 65
    },
    {
      "midi": 66,
      "hit": false,
      "t": 220500,
      "d": 1375,
      "v": 67
    },
    {
      "midi": 63,
      "hit": false,
      "t": 220500,
      "d": 1378.90625,
      "v": 76
    },
    {
      "midi": 52,
      "hit": false,
      "t": 222000,
      "d": 527.34375,
      "v": 72
    },
    {
      "midi": 56,
      "hit": false,
      "t": 222000,
      "d": 964.84375,
      "v": 76
    },
    {
      "midi": 59,
      "hit": false,
      "t": 222000,
      "d": 1031.25,
      "v": 70
    },
    {
      "midi": 40,
      "hit": false,
      "t": 222000,
      "d": 1535.15625,
      "v": 55
    },
    {
      "midi": 52,
      "hit": false,
      "t": 222750,
      "d": 199.21875,
      "v": 56
    },
    {
      "midi": 64,
      "hit": false,
      "t": 223125,
      "d": 769.53125,
      "v": 80
    },
    {
      "midi": 56,
      "hit": false,
      "t": 223125,
      "d": 824.21875,
      "v": 80
    },
    {
      "midi": 59,
      "hit": false,
      "t": 223125,
      "d": 851.5625,
      "v": 58
    },
    {
      "midi": 40,
      "hit": false,
      "t": 223875,
      "d": 1031.25,
      "v": 76
    },
    {
      "midi": 56,
      "hit": false,
      "t": 224250,
      "d": 660.15625,
      "v": 76
    },
    {
      "midi": 59,
      "hit": false,
      "t": 224250,
      "d": 695.3125,
      "v": 64
    },
    {
      "midi": 64,
      "hit": false,
      "t": 224250,
      "d": 703.125,
      "v": 80
    },
    {
      "midi": 52,
      "hit": false,
      "t": 225000,
      "d": 742.1875,
      "v": 80
    },
    {
      "midi": 56,
      "hit": false,
      "t": 225000,
      "d": 894.53125,
      "v": 70
    },
    {
      "midi": 61,
      "hit": false,
      "t": 225000,
      "d": 996.09375,
      "v": 84
    },
    {
      "midi": 49,
      "hit": false,
      "t": 225750,
      "d": 875,
      "v": 65
    },
    {
      "midi": 64,
      "hit": false,
      "t": 226125,
      "d": 796.875,
      "v": 84
    },
    {
      "midi": 56,
      "hit": false,
      "t": 226125,
      "d": 855.46875,
      "v": 72
    },
    {
      "midi": 61,
      "hit": false,
      "t": 226125,
      "d": 855.46875,
      "v": 64
    },
    {
      "midi": 49,
      "hit": false,
      "t": 226875,
      "d": 500,
      "v": 88
    },
    {
      "midi": 52,
      "hit": false,
      "t": 227250,
      "d": 664.0625,
      "v": 55
    },
    {
      "midi": 56,
      "hit": false,
      "t": 227250,
      "d": 718.75,
      "v": 67
    },
    {
      "midi": 61,
      "hit": false,
      "t": 227250,
      "d": 746.09375,
      "v": 72
    },
    {
      "midi": 61,
      "hit": false,
      "t": 228000,
      "d": 19.53125,
      "v": 76
    },
    {
      "midi": 52,
      "hit": false,
      "t": 228000,
      "d": 703.125,
      "v": 53
    },
    {
      "midi": 56,
      "hit": false,
      "t": 228000,
      "d": 730.46875,
      "v": 67
    },
    {
      "midi": 45,
      "hit": false,
      "t": 228750,
      "d": 480.46875,
      "v": 80
    },
    {
      "midi": 64,
      "hit": false,
      "t": 229125,
      "d": 683.59375,
      "v": 80
    },
    {
      "midi": 61,
      "hit": false,
      "t": 229125,
      "d": 746.09375,
      "v": 70
    },
    {
      "midi": 56,
      "hit": false,
      "t": 229125,
      "d": 761.71875,
      "v": 76
    },
    {
      "midi": 45,
      "hit": false,
      "t": 229875,
      "d": 488.28125,
      "v": 84
    },
    {
      "midi": 52,
      "hit": false,
      "t": 230250,
      "d": 609.375,
      "v": 70
    },
    {
      "midi": 56,
      "hit": false,
      "t": 230250,
      "d": 628.90625,
      "v": 70
    },
    {
      "midi": 61,
      "hit": false,
      "t": 230250,
      "d": 671.875,
      "v": 70
    },
    {
      "midi": 68,
      "hit": false,
      "t": 231000,
      "d": 941.40625,
      "v": 80
    },
    {
      "midi": 59,
      "hit": false,
      "t": 231000,
      "d": 976.5625,
      "v": 68
    },
    {
      "midi": 63,
      "hit": false,
      "t": 231000,
      "d": 976.5625,
      "v": 72
    },
    {
      "midi": 47,
      "hit": false,
      "t": 231000,
      "d": 1015.625,
      "v": 80
    },
    {
      "midi": 63,
      "hit": false,
      "t": 232125,
      "d": 222.65625,
      "v": 68
    },
    {
      "midi": 59,
      "hit": false,
      "t": 232125,
      "d": 226.5625,
      "v": 53
    },
    {
      "midi": 71,
      "hit": false,
      "t": 232125,
      "d": 253.90625,
      "v": 80
    },
    {
      "midi": 66,
      "hit": false,
      "t": 232125,
      "d": 281.25,
      "v": 65
    },
    {
      "midi": 59,
      "hit": false,
      "t": 232500,
      "d": 609.375,
      "v": 67
    },
    {
      "midi": 63,
      "hit": false,
      "t": 232500,
      "d": 1339.84375,
      "v": 76
    },
    {
      "midi": 71,
      "hit": false,
      "t": 232500,
      "d": 1367.1875,
      "v": 80
    },
    {
      "midi": 66,
      "hit": false,
      "t": 232500,
      "d": 1375,
      "v": 72
    },
    {
      "midi": 59,
      "hit": false,
      "t": 233250,
      "d": 601.5625,
      "v": 72
    },
    {
      "midi": 57,
      "hit": false,
      "t": 234000,
      "d": 867.1875,
      "v": 80
    },
    {
      "midi": 61,
      "hit": false,
      "t": 234000,
      "d": 937.5,
      "v": 72
    },
    {
      "midi": 66,
      "hit": false,
      "t": 234000,
      "d": 941.40625,
      "v": 72
    },
    {
      "midi": 54,
      "hit": false,
      "t": 234750,
      "d": 902.34375,
      "v": 65
    },
    {
      "midi": 57,
      "hit": false,
      "t": 235125,
      "d": 839.84375,
      "v": 70
    },
    {
      "midi": 66,
      "hit": false,
      "t": 235125,
      "d": 929.6875,
      "v": 72
    },
    {
      "midi": 61,
      "hit": false,
      "t": 235125,
      "d": 937.5,
      "v": 80
    },
    {
      "midi": 54,
      "hit": false,
      "t": 235875,
      "d": 949.21875,
      "v": 53
    },
    {
      "midi": 57,
      "hit": false,
      "t": 236250,
      "d": 628.90625,
      "v": 84
    },
    {
      "midi": 61,
      "hit": false,
      "t": 236250,
      "d": 679.6875,
      "v": 72
    },
    {
      "midi": 66,
      "hit": false,
      "t": 236250,
      "d": 718.75,
      "v": 80
    },
    {
      "midi": 59,
      "hit": false,
      "t": 237000,
      "d": 468.75,
      "v": 76
    },
    {
      "midi": 56,
      "hit": false,
      "t": 237000,
      "d": 726.5625,
      "v": 67
    },
    {
      "midi": 63,
      "hit": false,
      "t": 237000,
      "d": 992.1875,
      "v": 76
    },
    {
      "midi": 68,
      "hit": false,
      "t": 237000,
      "d": 1000,
      "v": 76
    },
    {
      "midi": 59,
      "hit": false,
      "t": 237750,
      "d": 257.8125,
      "v": 68
    },
    {
      "midi": 56,
      "hit": false,
      "t": 237937.5,
      "d": 468.75,
      "v": 55
    },
    {
      "midi": 59,
      "hit": false,
      "t": 238125,
      "d": 800.78125,
      "v": 76
    },
    {
      "midi": 63,
      "hit": false,
      "t": 238125,
      "d": 1750,
      "v": 80
    },
    {
      "midi": 68,
      "hit": false,
      "t": 238125,
      "d": 1777.34375,
      "v": 80
    },
    {
      "midi": 56,
      "hit": false,
      "t": 238875,
      "d": 425.78125,
      "v": 70
    },
    {
      "midi": 59,
      "hit": false,
      "t": 239250,
      "d": 644.53125,
      "v": 67
    },
    {
      "midi": 71,
      "hit": false,
      "t": 239250,
      "d": 703.125,
      "v": 68
    },
    {
      "midi": 57,
      "hit": false,
      "t": 240000,
      "d": 867.1875,
      "v": 80
    },
    {
      "midi": 61,
      "hit": false,
      "t": 240000,
      "d": 937.5,
      "v": 72
    },
    {
      "midi": 66,
      "hit": false,
      "t": 240000,
      "d": 941.40625,
      "v": 72
    },
    {
      "midi": 54,
      "hit": false,
      "t": 240750,
      "d": 902.34375,
      "v": 65
    },
    {
      "midi": 57,
      "hit": false,
      "t": 241125,
      "d": 839.84375,
      "v": 70
    },
    {
      "midi": 66,
      "hit": false,
      "t": 241125,
      "d": 929.6875,
      "v": 72
    },
    {
      "midi": 61,
      "hit": false,
      "t": 241125,
      "d": 937.5,
      "v": 80
    },
    {
      "midi": 54,
      "hit": false,
      "t": 241875,
      "d": 949.21875,
      "v": 53
    },
    {
      "midi": 57,
      "hit": false,
      "t": 242250,
      "d": 628.90625,
      "v": 84
    },
    {
      "midi": 61,
      "hit": false,
      "t": 242250,
      "d": 679.6875,
      "v": 72
    },
    {
      "midi": 66,
      "hit": false,
      "t": 242250,
      "d": 718.75,
      "v": 80
    },
    {
      "midi": 59,
      "hit": false,
      "t": 243000,
      "d": 468.75,
      "v": 76
    },
    {
      "midi": 56,
      "hit": false,
      "t": 243000,
      "d": 726.5625,
      "v": 67
    },
    {
      "midi": 63,
      "hit": false,
      "t": 243000,
      "d": 992.1875,
      "v": 76
    },
    {
      "midi": 68,
      "hit": false,
      "t": 243000,
      "d": 1000,
      "v": 76
    },
    {
      "midi": 59,
      "hit": false,
      "t": 243750,
      "d": 257.8125,
      "v": 68
    },
    {
      "midi": 56,
      "hit": false,
      "t": 243937.5,
      "d": 468.75,
      "v": 55
    },
    {
      "midi": 59,
      "hit": false,
      "t": 244125,
      "d": 800.78125,
      "v": 76
    },
    {
      "midi": 63,
      "hit": false,
      "t": 244125,
      "d": 1750,
      "v": 80
    },
    {
      "midi": 68,
      "hit": false,
      "t": 244125,
      "d": 1777.34375,
      "v": 80
    },
    {
      "midi": 56,
      "hit": false,
      "t": 244875,
      "d": 425.78125,
      "v": 70
    },
    {
      "midi": 59,
      "hit": false,
      "t": 245250,
      "d": 644.53125,
      "v": 67
    },
    {
      "midi": 71,
      "hit": false,
      "t": 245250,
      "d": 703.125,
      "v": 68
    },
    {
      "midi": 64,
      "hit": false,
      "t": 246000,
      "d": 824.21875,
      "v": 76
    },
    {
      "midi": 59,
      "hit": false,
      "t": 246000,
      "d": 828.125,
      "v": 68
    },
    {
      "midi": 68,
      "hit": false,
      "t": 246000,
      "d": 835.9375,
      "v": 68
    },
    {
      "midi": 52,
      "hit": false,
      "t": 246750,
      "d": 964.84375,
      "v": 76
    },
    {
      "midi": 59,
      "hit": false,
      "t": 247125,
      "d": 847.65625,
      "v": 70
    },
    {
      "midi": 64,
      "hit": false,
      "t": 247125,
      "d": 1832.03125,
      "v": 76
    },
    {
      "midi": 68,
      "hit": false,
      "t": 247125,
      "d": 1835.9375,
      "v": 84
    },
    {
      "midi": 52,
      "hit": false,
      "t": 247875,
      "d": 1058.59375,
      "v": 84
    },
    {
      "midi": 59,
      "hit": false,
      "t": 248250,
      "d": 671.875,
      "v": 80
    },
    {
      "midi": 64,
      "hit": false,
      "t": 249000,
      "d": 777.34375,
      "v": 88
    },
    {
      "midi": 61,
      "hit": false,
      "t": 249000,
      "d": 785.15625,
      "v": 84
    },
    {
      "midi": 56,
      "hit": false,
      "t": 249000,
      "d": 804.6875,
      "v": 72
    },
    {
      "midi": 49,
      "hit": false,
      "t": 249750,
      "d": 820.3125,
      "v": 97
    },
    {
      "midi": 64,
      "hit": false,
      "t": 250125,
      "d": 804.6875,
      "v": 88
    },
    {
      "midi": 56,
      "hit": false,
      "t": 250125,
      "d": 886.71875,
      "v": 84
    },
    {
      "midi": 61,
      "hit": false,
      "t": 250125,
      "d": 894.53125,
      "v": 84
    },
    {
      "midi": 49,
      "hit": false,
      "t": 250875,
      "d": 492.1875,
      "v": 70
    },
    {
      "midi": 56,
      "hit": false,
      "t": 251250,
      "d": 632.8125,
      "v": 80
    },
    {
      "midi": 61,
      "hit": false,
      "t": 251250,
      "d": 660.15625,
      "v": 70
    },
    {
      "midi": 64,
      "hit": false,
      "t": 251250,
      "d": 707.03125,
      "v": 84
    },
    {
      "midi": 55,
      "hit": false,
      "t": 252000,
      "d": 1015.625,
      "v": 72
    },
    {
      "midi": 59,
      "hit": false,
      "t": 252000,
      "d": 2128.90625,
      "v": 70
    },
    {
      "midi": 64,
      "hit": false,
      "t": 252000,
      "d": 2128.90625,
      "v": 84
    },
    {
      "midi": 48,
      "hit": false,
      "t": 252750,
      "d": 824.21875,
      "v": 70
    },
    {
      "midi": 67,
      "hit": false,
      "t": 253125,
      "d": 738.28125,
      "v": 68
    },
    {
      "midi": 55,
      "hit": false,
      "t": 253125,
      "d": 921.875,
      "v": 56
    },
    {
      "midi": 48,
      "hit": false,
      "t": 253875,
      "d": 1039.0625,
      "v": 70
    },
    {
      "midi": 55,
      "hit": false,
      "t": 254250,
      "d": 609.375,
      "v": 68
    },
    {
      "midi": 59,
      "hit": false,
      "t": 254250,
      "d": 640.625,
      "v": 70
    },
    {
      "midi": 64,
      "hit": false,
      "t": 254250,
      "d": 679.6875,
      "v": 70
    },
    {
      "midi": 47,
      "hit": false,
      "t": 255000,
      "d": 785.15625,
      "v": 68
    },
    {
      "midi": 59,
      "hit": false,
      "t": 255375,
      "d": 859.375,
      "v": 72
    },
    {
      "midi": 68,
      "hit": false,
      "t": 255375,
      "d": 917.96875,
      "v": 80
    },
    {
      "midi": 63,
      "hit": false,
      "t": 255375,
      "d": 957.03125,
      "v": 68
    },
    {
      "midi": 47,
      "hit": false,
      "t": 256125,
      "d": 757.8125,
      "v": 68
    },
    {
      "midi": 59,
      "hit": false,
      "t": 256500,
      "d": 562.5,
      "v": 80
    },
    {
      "midi": 68,
      "hit": false,
      "t": 256500,
      "d": 804.6875,
      "v": 84
    },
    {
      "midi": 63,
      "hit": false,
      "t": 256500,
      "d": 1410.15625,
      "v": 61
    },
    {
      "midi": 59,
      "hit": false,
      "t": 257250,
      "d": 632.8125,
      "v": 67
    },
    {
      "midi": 66,
      "hit": false,
      "t": 257250,
      "d": 671.875,
      "v": 63
    },
    {
      "midi": 40,
      "hit": false,
      "t": 258000,
      "d": 812.5,
      "v": 88
    },
    {
      "midi": 64,
      "hit": false,
      "t": 258750,
      "d": 832.03125,
      "v": 80
    },
    {
      "midi": 56,
      "hit": false,
      "t": 258750,
      "d": 878.90625,
      "v": 80
    },
    {
      "midi": 59,
      "hit": false,
      "t": 258750,
      "d": 921.875,
      "v": 80
    },
    {
      "midi": 40,
      "hit": false,
      "t": 259125,
      "d": 121.09375,
      "v": 68
    },
    {
      "midi": 40,
      "hit": false,
      "t": 259500,
      "d": 789.0625,
      "v": 76
    },
    {
      "midi": 56,
      "hit": false,
      "t": 259875,
      "d": 1031.25,
      "v": 76
    },
    {
      "midi": 59,
      "hit": false,
      "t": 259875,
      "d": 1085.9375,
      "v": 70
    },
    {
      "midi": 64,
      "hit": false,
      "t": 259875,
      "d": 1121.09375,
      "v": 80
    },
    {
      "midi": 49,
      "hit": false,
      "t": 261000,
      "d": 753.90625,
      "v": 80
    },
    {
      "midi": 56,
      "hit": false,
      "t": 261750,
      "d": 613.28125,
      "v": 80
    },
    {
      "midi": 61,
      "hit": false,
      "t": 261750,
      "d": 695.3125,
      "v": 76
    },
    {
      "midi": 64,
      "hit": false,
      "t": 261750,
      "d": 742.1875,
      "v": 93
    },
    {
      "midi": 49,
      "hit": false,
      "t": 262500,
      "d": 1324.21875,
      "v": 64
    },
    {
      "midi": 64,
      "hit": false,
      "t": 262875,
      "d": 1011.71875,
      "v": 76
    },
    {
      "midi": 68,
      "hit": false,
      "t": 262875,
      "d": 1042.96875,
      "v": 70
    },
    {
      "midi": 73,
      "hit": false,
      "t": 262875,
      "d": 1074.21875,
      "v": 80
    },
    {
      "midi": 56,
      "hit": false,
      "t": 264000,
      "d": 582.03125,
      "v": 68
    },
    {
      "midi": 61,
      "hit": false,
      "t": 264000,
      "d": 1007.8125,
      "v": 72
    },
    {
      "midi": 64,
      "hit": false,
      "t": 264000,
      "d": 1027.34375,
      "v": 84
    },
    {
      "midi": 45,
      "hit": false,
      "t": 264000,
      "d": 1554.6875,
      "v": 80
    },
    {
      "midi": 56,
      "hit": false,
      "t": 264750,
      "d": 160.15625,
      "v": 58
    },
    {
      "midi": 64,
      "hit": false,
      "t": 265125,
      "d": 800.78125,
      "v": 93
    },
    {
      "midi": 56,
      "hit": false,
      "t": 265125,
      "d": 859.375,
      "v": 80
    },
    {
      "midi": 61,
      "hit": false,
      "t": 265125,
      "d": 1789.0625,
      "v": 93
    },
    {
      "midi": 45,
      "hit": false,
      "t": 265875,
      "d": 1042.96875,
      "v": 72
    },
    {
      "midi": 56,
      "hit": false,
      "t": 266250,
      "d": 625,
      "v": 76
    },
    {
      "midi": 64,
      "hit": false,
      "t": 266250,
      "d": 664.0625,
      "v": 80
    },
    {
      "midi": 59,
      "hit": false,
      "t": 267000,
      "d": 871.09375,
      "v": 72
    },
    {
      "midi": 63,
      "hit": false,
      "t": 267000,
      "d": 898.4375,
      "v": 68
    },
    {
      "midi": 68,
      "hit": false,
      "t": 267000,
      "d": 906.25,
      "v": 70
    },
    {
      "midi": 47,
      "hit": false,
      "t": 267000,
      "d": 1625,
      "v": 80
    },
    {
      "midi": 59,
      "hit": false,
      "t": 268125,
      "d": 808.59375,
      "v": 70
    },
    {
      "midi": 68,
      "hit": false,
      "t": 268125,
      "d": 812.5,
      "v": 80
    },
    {
      "midi": 63,
      "hit": false,
      "t": 268125,
      "d": 824.21875,
      "v": 72
    },
    {
      "midi": 47,
      "hit": false,
      "t": 268875,
      "d": 1015.625,
      "v": 76
    },
    {
      "midi": 59,
      "hit": false,
      "t": 269250,
      "d": 625,
      "v": 67
    },
    {
      "midi": 63,
      "hit": false,
      "t": 269250,
      "d": 625,
      "v": 58
    },
    {
      "midi": 66,
      "hit": false,
      "t": 269250,
      "d": 648.4375,
      "v": 70
    },
    {
      "midi": 46,
      "hit": false,
      "t": 270000,
      "d": 789.0625,
      "v": 72
    },
    {
      "midi": 64,
      "hit": false,
      "t": 270750,
      "d": 742.1875,
      "v": 88
    },
    {
      "midi": 58,
      "hit": false,
      "t": 270750,
      "d": 765.625,
      "v": 88
    },
    {
      "midi": 61,
      "hit": false,
      "t": 270750,
      "d": 765.625,
      "v": 84
    },
    {
      "midi": 46,
      "hit": false,
      "t": 271500,
      "d": 796.875,
      "v": 80
    },
    {
      "midi": 58,
      "hit": false,
      "t": 272250,
      "d": 636.71875,
      "v": 80
    },
    {
      "midi": 61,
      "hit": false,
      "t": 272250,
      "d": 656.25,
      "v": 80
    },
    {
      "midi": 64,
      "hit": false,
      "t": 272250,
      "d": 679.6875,
      "v": 84
    },
    {
      "midi": 45,
      "hit": false,
      "t": 273000,
      "d": 777.34375,
      "v": 88
    },
    {
      "midi": 64,
      "hit": false,
      "t": 273750,
      "d": 1308.59375,
      "v": 84
    },
    {
      "midi": 56,
      "hit": false,
      "t": 273750,
      "d": 1328.125,
      "v": 84
    },
    {
      "midi": 61,
      "hit": false,
      "t": 273750,
      "d": 1351.5625,
      "v": 84
    },
    {
      "midi": 56,
      "hit": false,
      "t": 275250,
      "d": 234.375,
      "v": 88
    },
    {
      "midi": 61,
      "hit": false,
      "t": 275250,
      "d": 246.09375,
      "v": 84
    },
    {
      "midi": 64,
      "hit": false,
      "t": 275250,
      "d": 257.8125,
      "v": 80
    },
    {
      "midi": 59,
      "hit": false,
      "t": 275625,
      "d": 992.1875,
      "v": 61
    },
    {
      "midi": 52,
      "hit": false,
      "t": 275625,
      "d": 1000,
      "v": 84
    },
    {
      "midi": 56,
      "hit": false,
      "t": 275625,
      "d": 1007.8125,
      "v": 76
    },
    {
      "midi": 59,
      "hit": false,
      "t": 276750,
      "d": 1355.46875,
      "v": 72
    },
    {
      "midi": 52,
      "hit": false,
      "t": 276750,
      "d": 1367.1875,
      "v": 88
    },
    {
      "midi": 56,
      "hit": false,
      "t": 276750,
      "d": 1402.34375,
      "v": 84
    },
    {
      "midi": 56,
      "hit": false,
      "t": 278250,
      "d": 652.34375,
      "v": 80
    },
    {
      "midi": 59,
      "hit": false,
      "t": 278250,
      "d": 660.15625,
      "v": 76
    },
    {
      "midi": 52,
      "hit": false,
      "t": 278250,
      "d": 671.875,
      "v": 93
    },
    {
      "midi": 59,
      "hit": false,
      "t": 279000,
      "d": 472.65625,
      "v": 80
    },
    {
      "midi": 63,
      "hit": false,
      "t": 279000,
      "d": 597.65625,
      "v": 72
    },
    {
      "midi": 66,
      "hit": false,
      "t": 279000,
      "d": 738.28125,
      "v": 80
    },
    {
      "midi": 64,
      "hit": false,
      "t": 279750,
      "d": 746.09375,
      "v": 95
    },
    {
      "midi": 61,
      "hit": false,
      "t": 279750,
      "d": 765.625,
      "v": 84
    },
    {
      "midi": 68,
      "hit": false,
      "t": 279750,
      "d": 765.625,
      "v": 76
    },
    {
      "midi": 49,
      "hit": false,
      "t": 280500,
      "d": 742.1875,
      "v": 72
    },
    {
      "midi": 59,
      "hit": false,
      "t": 280875,
      "d": 531.25,
      "v": 84
    },
    {
      "midi": 63,
      "hit": false,
      "t": 280875,
      "d": 566.40625,
      "v": 80
    },
    {
      "midi": 66,
      "hit": false,
      "t": 280875,
      "d": 582.03125,
      "v": 68
    },
    {
      "midi": 64,
      "hit": false,
      "t": 281625,
      "d": 1843.75,
      "v": 80
    },
    {
      "midi": 57,
      "hit": false,
      "t": 281625,
      "d": 1847.65625,
      "v": 97
    },
    {
      "midi": 54,
      "hit": false,
      "t": 281625,
      "d": 1851.5625,
      "v": 76
    },
    {
      "midi": 56,
      "hit": false,
      "t": 283500,
      "d": 1316.40625,
      "v": 84
    },
    {
      "midi": 59,
      "hit": false,
      "t": 283500,
      "d": 1351.5625,
      "v": 93
    },
    {
      "midi": 66,
      "hit": false,
      "t": 283500,
      "d": 1371.09375,
      "v": 93
    },
    {
      "midi": 69,
      "hit": false,
      "t": 285000,
      "d": 851.5625,
      "v": 97
    },
    {
      "midi": 64,
      "hit": false,
      "t": 285000,
      "d": 867.1875,
      "v": 80
    },
    {
      "midi": 60,
      "hit": false,
      "t": 285000,
      "d": 875,
      "v": 97
    },
    {
      "midi": 66,
      "hit": false,
      "t": 285000,
      "d": 894.53125,
      "v": 80
    },
    {
      "midi": 60,
      "hit": false,
      "t": 286125,
      "d": 484.375,
      "v": 80
    },
    {
      "midi": 64,
      "hit": false,
      "t": 286125,
      "d": 496.09375,
      "v": 97
    },
    {
      "midi": 68,
      "hit": false,
      "t": 286125,
      "d": 527.34375,
      "v": 93
    },
    {
      "midi": 64,
      "hit": false,
      "t": 286875,
      "d": 976.5625,
      "v": 93
    },
    {
      "midi": 60,
      "hit": false,
      "t": 286875,
      "d": 1023.4375,
      "v": 76
    },
    {
      "midi": 69,
      "hit": false,
      "t": 286875,
      "d": 1023.4375,
      "v": 95
    },
    {
      "midi": 46,
      "hit": false,
      "t": 288000,
      "d": 1375,
      "v": 72
    },
    {
      "midi": 64,
      "hit": false,
      "t": 288750,
      "d": 1257.8125,
      "v": 88
    },
    {
      "midi": 58,
      "hit": false,
      "t": 288750,
      "d": 1312.5,
      "v": 88
    },
    {
      "midi": 61,
      "hit": false,
      "t": 288750,
      "d": 1339.84375,
      "v": 84
    },
    {
      "midi": 46,
      "hit": false,
      "t": 289500,
      "d": 796.875,
      "v": 80
    },
    {
      "midi": 58,
      "hit": false,
      "t": 290250,
      "d": 636.71875,
      "v": 80
    },
    {
      "midi": 61,
      "hit": false,
      "t": 290250,
      "d": 656.25,
      "v": 80
    },
    {
      "midi": 64,
      "hit": false,
      "t": 290250,
      "d": 679.6875,
      "v": 84
    },
    {
      "midi": 45,
      "hit": false,
      "t": 291000,
      "d": 777.34375,
      "v": 88
    },
    {
      "midi": 64,
      "hit": false,
      "t": 291750,
      "d": 1308.59375,
      "v": 84
    },
    {
      "midi": 56,
      "hit": false,
      "t": 291750,
      "d": 1328.125,
      "v": 84
    },
    {
      "midi": 61,
      "hit": false,
      "t": 291750,
      "d": 1351.5625,
      "v": 84
    },
    {
      "midi": 56,
      "hit": false,
      "t": 293250,
      "d": 234.375,
      "v": 88
    },
    {
      "midi": 61,
      "hit": false,
      "t": 293250,
      "d": 246.09375,
      "v": 84
    },
    {
      "midi": 64,
      "hit": false,
      "t": 293250,
      "d": 257.8125,
      "v": 80
    },
    {
      "midi": 59,
      "hit": false,
      "t": 293625,
      "d": 992.1875,
      "v": 61
    },
    {
      "midi": 52,
      "hit": false,
      "t": 293625,
      "d": 1000,
      "v": 84
    },
    {
      "midi": 56,
      "hit": false,
      "t": 293625,
      "d": 1007.8125,
      "v": 76
    },
    {
      "midi": 59,
      "hit": false,
      "t": 294750,
      "d": 1355.46875,
      "v": 72
    },
    {
      "midi": 52,
      "hit": false,
      "t": 294750,
      "d": 1367.1875,
      "v": 88
    },
    {
      "midi": 56,
      "hit": false,
      "t": 294750,
      "d": 1402.34375,
      "v": 84
    },
    {
      "midi": 56,
      "hit": false,
      "t": 296250,
      "d": 652.34375,
      "v": 80
    },
    {
      "midi": 59,
      "hit": false,
      "t": 296250,
      "d": 660.15625,
      "v": 76
    },
    {
      "midi": 52,
      "hit": false,
      "t": 296250,
      "d": 671.875,
      "v": 93
    },
    {
      "midi": 59,
      "hit": false,
      "t": 297000,
      "d": 472.65625,
      "v": 80
    },
    {
      "midi": 63,
      "hit": false,
      "t": 297000,
      "d": 597.65625,
      "v": 72
    },
    {
      "midi": 66,
      "hit": false,
      "t": 297000,
      "d": 738.28125,
      "v": 80
    },
    {
      "midi": 49,
      "hit": false,
      "t": 297750,
      "d": 539.0625,
      "v": 58
    },
    {
      "midi": 64,
      "hit": false,
      "t": 297750,
      "d": 746.09375,
      "v": 101
    },
    {
      "midi": 61,
      "hit": false,
      "t": 297750,
      "d": 882.8125,
      "v": 84
    },
    {
      "midi": 68,
      "hit": false,
      "t": 297750,
      "d": 968.75,
      "v": 76
    },
    {
      "midi": 49,
      "hit": false,
      "t": 298500,
      "d": 742.1875,
      "v": 72
    },
    {
      "midi": 59,
      "hit": false,
      "t": 298875,
      "d": 531.25,
      "v": 84
    },
    {
      "midi": 63,
      "hit": false,
      "t": 298875,
      "d": 566.40625,
      "v": 80
    },
    {
      "midi": 66,
      "hit": false,
      "t": 298875,
      "d": 582.03125,
      "v": 68
    },
    {
      "midi": 64,
      "hit": false,
      "t": 299625,
      "d": 1843.75,
      "v": 80
    },
    {
      "midi": 57,
      "hit": false,
      "t": 299625,
      "d": 1847.65625,
      "v": 97
    },
    {
      "midi": 54,
      "hit": false,
      "t": 299625,
      "d": 1851.5625,
      "v": 76
    },
    {
      "midi": 56,
      "hit": false,
      "t": 301500,
      "d": 1316.40625,
      "v": 84
    },
    {
      "midi": 59,
      "hit": false,
      "t": 301500,
      "d": 1351.5625,
      "v": 93
    },
    {
      "midi": 66,
      "hit": false,
      "t": 301500,
      "d": 1371.09375,
      "v": 93
    },
    {
      "midi": 69,
      "hit": false,
      "t": 303000,
      "d": 851.5625,
      "v": 97
    },
    {
      "midi": 64,
      "hit": false,
      "t": 303000,
      "d": 867.1875,
      "v": 80
    },
    {
      "midi": 60,
      "hit": false,
      "t": 303000,
      "d": 875,
      "v": 97
    },
    {
      "midi": 66,
      "hit": false,
      "t": 303000,
      "d": 894.53125,
      "v": 80
    },
    {
      "midi": 60,
      "hit": false,
      "t": 304125,
      "d": 484.375,
      "v": 80
    },
    {
      "midi": 64,
      "hit": false,
      "t": 304125,
      "d": 496.09375,
      "v": 97
    },
    {
      "midi": 68,
      "hit": false,
      "t": 304125,
      "d": 527.34375,
      "v": 93
    },
    {
      "midi": 64,
      "hit": false,
      "t": 304875,
      "d": 976.5625,
      "v": 93
    },
    {
      "midi": 60,
      "hit": false,
      "t": 304875,
      "d": 1023.4375,
      "v": 76
    },
    {
      "midi": 69,
      "hit": false,
      "t": 304875,
      "d": 1023.4375,
      "v": 95
    },
    {
      "midi": 46,
      "hit": false,
      "t": 306000,
      "d": 1375,
      "v": 72
    },
    {
      "midi": 64,
      "hit": false,
      "t": 306750,
      "d": 1257.8125,
      "v": 88
    },
    {
      "midi": 58,
      "hit": false,
      "t": 306750,
      "d": 1312.5,
      "v": 88
    },
    {
      "midi": 61,
      "hit": false,
      "t": 306750,
      "d": 1339.84375,
      "v": 84
    },
    {
      "midi": 46,
      "hit": false,
      "t": 307500,
      "d": 796.875,
      "v": 80
    },
    {
      "midi": 58,
      "hit": false,
      "t": 308250,
      "d": 636.71875,
      "v": 80
    },
    {
      "midi": 61,
      "hit": false,
      "t": 308250,
      "d": 656.25,
      "v": 80
    },
    {
      "midi": 64,
      "hit": false,
      "t": 308250,
      "d": 679.6875,
      "v": 84
    },
    {
      "midi": 45,
      "hit": false,
      "t": 309000,
      "d": 777.34375,
      "v": 88
    },
    {
      "midi": 64,
      "hit": false,
      "t": 309750,
      "d": 1308.59375,
      "v": 84
    },
    {
      "midi": 56,
      "hit": false,
      "t": 309750,
      "d": 1328.125,
      "v": 84
    },
    {
      "midi": 61,
      "hit": false,
      "t": 309750,
      "d": 1351.5625,
      "v": 84
    },
    {
      "midi": 56,
      "hit": false,
      "t": 311250,
      "d": 234.375,
      "v": 88
    },
    {
      "midi": 61,
      "hit": false,
      "t": 311250,
      "d": 246.09375,
      "v": 84
    },
    {
      "midi": 64,
      "hit": false,
      "t": 311250,
      "d": 257.8125,
      "v": 80
    },
    {
      "midi": 59,
      "hit": false,
      "t": 311625,
      "d": 992.1875,
      "v": 61
    },
    {
      "midi": 52,
      "hit": false,
      "t": 311625,
      "d": 1000,
      "v": 84
    },
    {
      "midi": 56,
      "hit": false,
      "t": 311625,
      "d": 1007.8125,
      "v": 76
    },
    {
      "midi": 59,
      "hit": false,
      "t": 312750,
      "d": 1355.46875,
      "v": 72
    },
    {
      "midi": 52,
      "hit": false,
      "t": 312750,
      "d": 1367.1875,
      "v": 88
    },
    {
      "midi": 56,
      "hit": false,
      "t": 312750,
      "d": 1402.34375,
      "v": 84
    },
    {
      "midi": 56,
      "hit": false,
      "t": 314250,
      "d": 652.34375,
      "v": 80
    },
    {
      "midi": 59,
      "hit": false,
      "t": 314250,
      "d": 660.15625,
      "v": 76
    },
    {
      "midi": 52,
      "hit": false,
      "t": 314250,
      "d": 671.875,
      "v": 93
    },
    {
      "midi": 59,
      "hit": false,
      "t": 315000,
      "d": 472.65625,
      "v": 80
    },
    {
      "midi": 63,
      "hit": false,
      "t": 315000,
      "d": 597.65625,
      "v": 72
    },
    {
      "midi": 66,
      "hit": false,
      "t": 315000,
      "d": 738.28125,
      "v": 80
    },
    {
      "midi": 49,
      "hit": false,
      "t": 315750,
      "d": 539.0625,
      "v": 58
    },
    {
      "midi": 64,
      "hit": false,
      "t": 315750,
      "d": 746.09375,
      "v": 101
    },
    {
      "midi": 61,
      "hit": false,
      "t": 315750,
      "d": 882.8125,
      "v": 84
    },
    {
      "midi": 68,
      "hit": false,
      "t": 315750,
      "d": 968.75,
      "v": 76
    },
    {
      "midi": 49,
      "hit": false,
      "t": 316500,
      "d": 742.1875,
      "v": 72
    },
    {
      "midi": 59,
      "hit": false,
      "t": 316875,
      "d": 531.25,
      "v": 84
    },
    {
      "midi": 63,
      "hit": false,
      "t": 316875,
      "d": 566.40625,
      "v": 80
    },
    {
      "midi": 66,
      "hit": false,
      "t": 316875,
      "d": 582.03125,
      "v": 68
    },
    {
      "midi": 64,
      "hit": false,
      "t": 317625,
      "d": 1843.75,
      "v": 80
    },
    {
      "midi": 57,
      "hit": false,
      "t": 317625,
      "d": 1847.65625,
      "v": 97
    },
    {
      "midi": 54,
      "hit": false,
      "t": 317625,
      "d": 1851.5625,
      "v": 76
    },
    {
      "midi": 56,
      "hit": false,
      "t": 319500,
      "d": 1316.40625,
      "v": 84
    },
    {
      "midi": 59,
      "hit": false,
      "t": 319500,
      "d": 1351.5625,
      "v": 93
    },
    {
      "midi": 66,
      "hit": false,
      "t": 319500,
      "d": 1371.09375,
      "v": 93
    },
    {
      "midi": 69,
      "hit": false,
      "t": 321000,
      "d": 851.5625,
      "v": 97
    },
    {
      "midi": 64,
      "hit": false,
      "t": 321000,
      "d": 867.1875,
      "v": 80
    },
    {
      "midi": 60,
      "hit": false,
      "t": 321000,
      "d": 875,
      "v": 97
    },
    {
      "midi": 66,
      "hit": false,
      "t": 321000,
      "d": 894.53125,
      "v": 80
    },
    {
      "midi": 60,
      "hit": false,
      "t": 322125,
      "d": 484.375,
      "v": 80
    },
    {
      "midi": 64,
      "hit": false,
      "t": 322125,
      "d": 496.09375,
      "v": 97
    },
    {
      "midi": 68,
      "hit": false,
      "t": 322125,
      "d": 527.34375,
      "v": 93
    },
    {
      "midi": 64,
      "hit": false,
      "t": 322875,
      "d": 976.5625,
      "v": 93
    },
    {
      "midi": 60,
      "hit": false,
      "t": 322875,
      "d": 1023.4375,
      "v": 76
    },
    {
      "midi": 69,
      "hit": false,
      "t": 322875,
      "d": 1023.4375,
      "v": 95
    },
    {
      "midi": 46,
      "hit": false,
      "t": 324000,
      "d": 1375,
      "v": 72
    },
    {
      "midi": 64,
      "hit": false,
      "t": 324750,
      "d": 1257.8125,
      "v": 88
    },
    {
      "midi": 58,
      "hit": false,
      "t": 324750,
      "d": 1312.5,
      "v": 88
    },
    {
      "midi": 61,
      "hit": false,
      "t": 324750,
      "d": 1339.84375,
      "v": 84
    },
    {
      "midi": 46,
      "hit": false,
      "t": 325500,
      "d": 796.875,
      "v": 80
    },
    {
      "midi": 58,
      "hit": false,
      "t": 326250,
      "d": 636.71875,
      "v": 80
    },
    {
      "midi": 61,
      "hit": false,
      "t": 326250,
      "d": 656.25,
      "v": 80
    },
    {
      "midi": 64,
      "hit": false,
      "t": 326250,
      "d": 679.6875,
      "v": 84
    },
    {
      "midi": 45,
      "hit": false,
      "t": 327000,
      "d": 777.34375,
      "v": 88
    },
    {
      "midi": 64,
      "hit": false,
      "t": 327750,
      "d": 1308.59375,
      "v": 84
    },
    {
      "midi": 56,
      "hit": false,
      "t": 327750,
      "d": 1328.125,
      "v": 84
    },
    {
      "midi": 61,
      "hit": false,
      "t": 327750,
      "d": 1351.5625,
      "v": 84
    },
    {
      "midi": 56,
      "hit": false,
      "t": 329250,
      "d": 234.375,
      "v": 88
    },
    {
      "midi": 61,
      "hit": false,
      "t": 329250,
      "d": 246.09375,
      "v": 84
    },
    {
      "midi": 64,
      "hit": false,
      "t": 329250,
      "d": 257.8125,
      "v": 80
    },
    {
      "midi": 59,
      "hit": false,
      "t": 329625,
      "d": 992.1875,
      "v": 61
    },
    {
      "midi": 52,
      "hit": false,
      "t": 329625,
      "d": 1000,
      "v": 84
    },
    {
      "midi": 56,
      "hit": false,
      "t": 329625,
      "d": 1007.8125,
      "v": 76
    },
    {
      "midi": 59,
      "hit": false,
      "t": 330750,
      "d": 1355.46875,
      "v": 72
    },
    {
      "midi": 52,
      "hit": false,
      "t": 330750,
      "d": 1367.1875,
      "v": 88
    },
    {
      "midi": 56,
      "hit": false,
      "t": 330750,
      "d": 1402.34375,
      "v": 84
    },
    {
      "midi": 56,
      "hit": false,
      "t": 332250,
      "d": 652.34375,
      "v": 80
    },
    {
      "midi": 59,
      "hit": false,
      "t": 332250,
      "d": 660.15625,
      "v": 76
    },
    {
      "midi": 52,
      "hit": false,
      "t": 332250,
      "d": 671.875,
      "v": 93
    },
    {
      "midi": 59,
      "hit": false,
      "t": 333000,
      "d": 472.65625,
      "v": 80
    },
    {
      "midi": 63,
      "hit": false,
      "t": 333000,
      "d": 597.65625,
      "v": 72
    },
    {
      "midi": 66,
      "hit": false,
      "t": 333000,
      "d": 738.28125,
      "v": 80
    },
    {
      "midi": 49,
      "hit": false,
      "t": 333750,
      "d": 539.0625,
      "v": 58
    },
    {
      "midi": 64,
      "hit": false,
      "t": 333750,
      "d": 746.09375,
      "v": 101
    },
    {
      "midi": 61,
      "hit": false,
      "t": 333750,
      "d": 882.8125,
      "v": 84
    },
    {
      "midi": 68,
      "hit": false,
      "t": 333750,
      "d": 968.75,
      "v": 76
    },
    {
      "midi": 49,
      "hit": false,
      "t": 334500,
      "d": 742.1875,
      "v": 72
    },
    {
      "midi": 59,
      "hit": false,
      "t": 334875,
      "d": 531.25,
      "v": 84
    },
    {
      "midi": 63,
      "hit": false,
      "t": 334875,
      "d": 566.40625,
      "v": 80
    },
    {
      "midi": 66,
      "hit": false,
      "t": 334875,
      "d": 582.03125,
      "v": 68
    },
    {
      "midi": 64,
      "hit": false,
      "t": 335625,
      "d": 1843.75,
      "v": 80
    },
    {
      "midi": 57,
      "hit": false,
      "t": 335625,
      "d": 1847.65625,
      "v": 97
    },
    {
      "midi": 54,
      "hit": false,
      "t": 335625,
      "d": 1851.5625,
      "v": 76
    },
    {
      "midi": 56,
      "hit": false,
      "t": 337500,
      "d": 1316.40625,
      "v": 84
    },
    {
      "midi": 59,
      "hit": false,
      "t": 337500,
      "d": 1351.5625,
      "v": 93
    },
    {
      "midi": 66,
      "hit": false,
      "t": 337500,
      "d": 1371.09375,
      "v": 93
    },
    {
      "midi": 69,
      "hit": false,
      "t": 339000,
      "d": 851.5625,
      "v": 97
    },
    {
      "midi": 64,
      "hit": false,
      "t": 339000,
      "d": 867.1875,
      "v": 80
    },
    {
      "midi": 60,
      "hit": false,
      "t": 339000,
      "d": 875,
      "v": 97
    },
    {
      "midi": 66,
      "hit": false,
      "t": 339000,
      "d": 894.53125,
      "v": 80
    },
    {
      "midi": 60,
      "hit": false,
      "t": 340125,
      "d": 484.375,
      "v": 80
    },
    {
      "midi": 64,
      "hit": false,
      "t": 340125,
      "d": 496.09375,
      "v": 97
    },
    {
      "midi": 68,
      "hit": false,
      "t": 340125,
      "d": 527.34375,
      "v": 93
    },
    {
      "midi": 64,
      "hit": false,
      "t": 340875,
      "d": 746.09375,
      "v": 93
    },
    {
      "midi": 60,
      "hit": false,
      "t": 340875,
      "d": 1023.4375,
      "v": 76
    },
    {
      "midi": 69,
      "hit": false,
      "t": 340875,
      "d": 1023.4375,
      "v": 95
    },
    {
      "midi": 64,
      "hit": false,
      "t": 341625,
      "d": 226.5625,
      "v": 84
    },
    {
      "midi": 59,
      "hit": false,
      "t": 341625,
      "d": 3343.75,
      "v": 97
    },
    {
      "midi": 71,
      "hit": false,
      "t": 341625,
      "d": 3359.375,
      "v": 84
    }
  ]
}