{
  "jsonPath": "Rock/Pop Rock/New Radicals/you-get-what-you-give.json",
  "path": "Rock\\Pop Rock\\New Radicals\\You Get What You Give.mid",
  "name": "You Get What You Give",
  "difficulty": "Advanced",
  "bpm": 114.97424576894775,
  "notes": [
    {
      "midi": 57,
      "hit": false,
      "t": 29223.935999999998,
      "d": 222.8760000000002,
      "v": 92
    },
    {
      "midi": 61,
      "hit": false,
      "t": 29223.935999999998,
      "d": 222.8760000000002,
      "v": 92
    },
    {
      "midi": 64,
      "hit": false,
      "t": 29223.935999999998,
      "d": 222.8760000000002,
      "v": 95
    },
    {
      "midi": 69,
      "hit": false,
      "t": 29223.935999999998,
      "d": 222.8760000000002,
      "v": 63
    },
    {
      "midi": 57,
      "hit": false,
      "t": 29484.863999999998,
      "d": 222.8760000000002,
      "v": 92
    },
    {
      "midi": 61,
      "hit": false,
      "t": 29484.863999999998,
      "d": 222.8760000000002,
      "v": 101
    },
    {
      "midi": 64,
      "hit": false,
      "t": 29484.863999999998,
      "d": 222.8760000000002,
      "v": 95
    },
    {
      "midi": 69,
      "hit": false,
      "t": 29484.863999999998,
      "d": 222.8760000000002,
      "v": 68
    },
    {
      "midi": 57,
      "hit": false,
      "t": 29745.791999999998,
      "d": 222.8760000000002,
      "v": 92
    },
    {
      "midi": 61,
      "hit": false,
      "t": 29745.791999999998,
      "d": 222.8760000000002,
      "v": 110
    },
    {
      "midi": 64,
      "hit": false,
      "t": 29745.791999999998,
      "d": 222.8760000000002,
      "v": 86
    },
    {
      "midi": 69,
      "hit": false,
      "t": 29745.791999999998,
      "d": 222.8760000000002,
      "v": 59
    },
    {
      "midi": 57,
      "hit": false,
      "t": 30006.719999999998,
      "d": 222.8760000000002,
      "v": 92
    },
    {
      "midi": 61,
      "hit": false,
      "t": 30006.719999999998,
      "d": 222.8760000000002,
      "v": 105
    },
    {
      "midi": 64,
      "hit": false,
      "t": 30006.719999999998,
      "d": 222.8760000000002,
      "v": 95
    },
    {
      "midi": 69,
      "hit": false,
      "t": 30006.719999999998,
      "d": 222.8760000000002,
      "v": 63
    },
    {
      "midi": 57,
      "hit": false,
      "t": 30267.647999999997,
      "d": 222.8760000000002,
      "v": 96
    },
    {
      "midi": 61,
      "hit": false,
      "t": 30267.647999999997,
      "d": 222.8760000000002,
      "v": 110
    },
    {
      "midi": 64,
      "hit": false,
      "t": 30267.647999999997,
      "d": 222.8760000000002,
      "v": 95
    },
    {
      "midi": 69,
      "hit": false,
      "t": 30267.647999999997,
      "d": 222.8760000000002,
      "v": 63
    },
    {
      "midi": 57,
      "hit": false,
      "t": 30528.575999999997,
      "d": 222.8760000000002,
      "v": 96
    },
    {
      "midi": 61,
      "hit": false,
      "t": 30528.575999999997,
      "d": 222.8760000000002,
      "v": 110
    },
    {
      "midi": 64,
      "hit": false,
      "t": 30528.575999999997,
      "d": 222.8760000000002,
      "v": 99
    },
    {
      "midi": 69,
      "hit": false,
      "t": 30528.575999999997,
      "d": 222.8760000000002,
      "v": 55
    },
    {
      "midi": 57,
      "hit": false,
      "t": 30789.503999999997,
      "d": 222.8760000000002,
      "v": 96
    },
    {
      "midi": 61,
      "hit": false,
      "t": 30789.503999999997,
      "d": 222.8760000000002,
      "v": 110
    },
    {
      "midi": 64,
      "hit": false,
      "t": 30789.503999999997,
      "d": 222.8760000000002,
      "v": 95
    },
    {
      "midi": 69,
      "hit": false,
      "t": 30789.503999999997,
      "d": 222.8760000000002,
      "v": 63
    },
    {
      "midi": 57,
      "hit": false,
      "t": 31050.431999999997,
      "d": 222.8760000000002,
      "v": 101
    },
    {
      "midi": 61,
      "hit": false,
      "t": 31050.431999999997,
      "d": 222.8760000000002,
      "v": 116
    },
    {
      "midi": 64,
      "hit": false,
      "t": 31050.431999999997,
      "d": 222.8760000000002,
      "v": 90
    },
    {
      "midi": 69,
      "hit": false,
      "t": 31050.431999999997,
      "d": 222.8760000000002,
      "v": 63
    },
    {
      "midi": 55,
      "hit": false,
      "t": 31311.359999999997,
      "d": 222.8760000000002,
      "v": 110
    },
    {
      "midi": 59,
      "hit": false,
      "t": 31311.359999999997,
      "d": 222.8760000000002,
      "v": 110
    },
    {
      "midi": 62,
      "hit": false,
      "t": 31311.359999999997,
      "d": 222.8760000000002,
      "v": 95
    },
    {
      "midi": 67,
      "hit": false,
      "t": 31311.359999999997,
      "d": 222.8760000000002,
      "v": 63
    },
    {
      "midi": 55,
      "hit": false,
      "t": 31572.287999999997,
      "d": 222.8760000000002,
      "v": 116
    },
    {
      "midi": 59,
      "hit": false,
      "t": 31572.287999999997,
      "d": 222.8760000000002,
      "v": 110
    },
    {
      "midi": 62,
      "hit": false,
      "t": 31572.287999999997,
      "d": 222.8760000000002,
      "v": 99
    },
    {
      "midi": 67,
      "hit": false,
      "t": 31572.287999999997,
      "d": 222.8760000000002,
      "v": 72
    },
    {
      "midi": 55,
      "hit": false,
      "t": 31833.215999999997,
      "d": 222.8760000000002,
      "v": 116
    },
    {
      "midi": 59,
      "hit": false,
      "t": 31833.215999999997,
      "d": 222.8760000000002,
      "v": 110
    },
    {
      "midi": 62,
      "hit": false,
      "t": 31833.215999999997,
      "d": 222.8760000000002,
      "v": 95
    },
    {
      "midi": 67,
      "hit": false,
      "t": 31833.215999999997,
      "d": 222.8760000000002,
      "v": 63
    },
    {
      "midi": 55,
      "hit": false,
      "t": 32094.143999999997,
      "d": 222.8760000000002,
      "v": 116
    },
    {
      "midi": 59,
      "hit": false,
      "t": 32094.143999999997,
      "d": 222.8760000000002,
      "v": 110
    },
    {
      "midi": 62,
      "hit": false,
      "t": 32094.143999999997,
      "d": 222.8760000000002,
      "v": 104
    },
    {
      "midi": 67,
      "hit": false,
      "t": 32094.143999999997,
      "d": 222.8760000000002,
      "v": 72
    },
    {
      "midi": 55,
      "hit": false,
      "t": 32355.071999999996,
      "d": 222.8760000000002,
      "v": 116
    },
    {
      "midi": 59,
      "hit": false,
      "t": 32355.071999999996,
      "d": 222.8760000000002,
      "v": 110
    },
    {
      "midi": 62,
      "hit": false,
      "t": 32355.071999999996,
      "d": 222.8760000000002,
      "v": 99
    },
    {
      "midi": 67,
      "hit": false,
      "t": 32355.071999999996,
      "d": 222.8760000000002,
      "v": 63
    },
    {
      "midi": 55,
      "hit": false,
      "t": 32615.999999999996,
      "d": 222.8760000000002,
      "v": 116
    },
    {
      "midi": 59,
      "hit": false,
      "t": 32615.999999999996,
      "d": 222.8760000000002,
      "v": 105
    },
    {
      "midi": 62,
      "hit": false,
      "t": 32615.999999999996,
      "d": 222.8760000000002,
      "v": 104
    },
    {
      "midi": 67,
      "hit": false,
      "t": 32615.999999999996,
      "d": 222.8760000000002,
      "v": 68
    },
    {
      "midi": 55,
      "hit": false,
      "t": 32876.928,
      "d": 222.87599999999657,
      "v": 110
    },
    {
      "midi": 59,
      "hit": false,
      "t": 32876.928,
      "d": 222.87599999999657,
      "v": 105
    },
    {
      "midi": 62,
      "hit": false,
      "t": 32876.928,
      "d": 222.87599999999657,
      "v": 104
    },
    {
      "midi": 67,
      "hit": false,
      "t": 32876.928,
      "d": 222.87599999999657,
      "v": 72
    },
    {
      "midi": 55,
      "hit": false,
      "t": 33137.856,
      "d": 222.87599999999657,
      "v": 116
    },
    {
      "midi": 59,
      "hit": false,
      "t": 33137.856,
      "d": 222.87599999999657,
      "v": 110
    },
    {
      "midi": 62,
      "hit": false,
      "t": 33137.856,
      "d": 222.87599999999657,
      "v": 99
    },
    {
      "midi": 67,
      "hit": false,
      "t": 33137.856,
      "d": 222.87599999999657,
      "v": 72
    },
    {
      "midi": 57,
      "hit": false,
      "t": 33398.784,
      "d": 222.87599999999657,
      "v": 101
    },
    {
      "midi": 61,
      "hit": false,
      "t": 33398.784,
      "d": 222.87599999999657,
      "v": 116
    },
    {
      "midi": 64,
      "hit": false,
      "t": 33398.784,
      "d": 222.87599999999657,
      "v": 99
    },
    {
      "midi": 69,
      "hit": false,
      "t": 33398.784,
      "d": 222.87599999999657,
      "v": 63
    },
    {
      "midi": 57,
      "hit": false,
      "t": 33659.712,
      "d": 222.87599999999657,
      "v": 96
    },
    {
      "midi": 61,
      "hit": false,
      "t": 33659.712,
      "d": 222.87599999999657,
      "v": 116
    },
    {
      "midi": 64,
      "hit": false,
      "t": 33659.712,
      "d": 222.87599999999657,
      "v": 90
    },
    {
      "midi": 69,
      "hit": false,
      "t": 33659.712,
      "d": 222.87599999999657,
      "v": 63
    },
    {
      "midi": 57,
      "hit": false,
      "t": 33920.64,
      "d": 222.87599999999657,
      "v": 101
    },
    {
      "midi": 61,
      "hit": false,
      "t": 33920.64,
      "d": 222.87599999999657,
      "v": 116
    },
    {
      "midi": 64,
      "hit": false,
      "t": 33920.64,
      "d": 222.87599999999657,
      "v": 104
    },
    {
      "midi": 69,
      "hit": false,
      "t": 33920.64,
      "d": 222.87599999999657,
      "v": 63
    },
    {
      "midi": 57,
      "hit": false,
      "t": 34181.568,
      "d": 222.87599999999657,
      "v": 101
    },
    {
      "midi": 61,
      "hit": false,
      "t": 34181.568,
      "d": 222.87599999999657,
      "v": 116
    },
    {
      "midi": 64,
      "hit": false,
      "t": 34181.568,
      "d": 222.87599999999657,
      "v": 104
    },
    {
      "midi": 69,
      "hit": false,
      "t": 34181.568,
      "d": 222.87599999999657,
      "v": 63
    },
    {
      "midi": 57,
      "hit": false,
      "t": 34442.496,
      "d": 222.87599999999657,
      "v": 105
    },
    {
      "midi": 61,
      "hit": false,
      "t": 34442.496,
      "d": 222.87599999999657,
      "v": 110
    },
    {
      "midi": 64,
      "hit": false,
      "t": 34442.496,
      "d": 222.87599999999657,
      "v": 110
    },
    {
      "midi": 69,
      "hit": false,
      "t": 34442.496,
      "d": 222.87599999999657,
      "v": 72
    },
    {
      "midi": 57,
      "hit": false,
      "t": 34703.424,
      "d": 222.87599999999657,
      "v": 101
    },
    {
      "midi": 61,
      "hit": false,
      "t": 34703.424,
      "d": 222.87599999999657,
      "v": 110
    },
    {
      "midi": 64,
      "hit": false,
      "t": 34703.424,
      "d": 222.87599999999657,
      "v": 104
    },
    {
      "midi": 69,
      "hit": false,
      "t": 34703.424,
      "d": 222.87599999999657,
      "v": 72
    },
    {
      "midi": 57,
      "hit": false,
      "t": 34964.352,
      "d": 222.87599999999657,
      "v": 110
    },
    {
      "midi": 61,
      "hit": false,
      "t": 34964.352,
      "d": 222.87599999999657,
      "v": 122
    },
    {
      "midi": 64,
      "hit": false,
      "t": 34964.352,
      "d": 222.87599999999657,
      "v": 104
    },
    {
      "midi": 69,
      "hit": false,
      "t": 34964.352,
      "d": 222.87599999999657,
      "v": 68
    },
    {
      "midi": 57,
      "hit": false,
      "t": 35225.28,
      "d": 222.87599999999657,
      "v": 101
    },
    {
      "midi": 61,
      "hit": false,
      "t": 35225.28,
      "d": 222.87599999999657,
      "v": 110
    },
    {
      "midi": 64,
      "hit": false,
      "t": 35225.28,
      "d": 222.87599999999657,
      "v": 104
    },
    {
      "midi": 69,
      "hit": false,
      "t": 35225.28,
      "d": 222.87599999999657,
      "v": 63
    },
    {
      "midi": 55,
      "hit": false,
      "t": 35486.208,
      "d": 222.87599999999657,
      "v": 110
    },
    {
      "midi": 59,
      "hit": false,
      "t": 35486.208,
      "d": 222.87599999999657,
      "v": 110
    },
    {
      "midi": 62,
      "hit": false,
      "t": 35486.208,
      "d": 222.87599999999657,
      "v": 95
    },
    {
      "midi": 67,
      "hit": false,
      "t": 35486.208,
      "d": 222.87599999999657,
      "v": 68
    },
    {
      "midi": 55,
      "hit": false,
      "t": 35747.136,
      "d": 222.87599999999657,
      "v": 116
    },
    {
      "midi": 59,
      "hit": false,
      "t": 35747.136,
      "d": 222.87599999999657,
      "v": 101
    },
    {
      "midi": 62,
      "hit": false,
      "t": 35747.136,
      "d": 222.87599999999657,
      "v": 99
    },
    {
      "midi": 67,
      "hit": false,
      "t": 35747.136,
      "d": 222.87599999999657,
      "v": 59
    },
    {
      "midi": 55,
      "hit": false,
      "t": 36008.064,
      "d": 222.87599999999657,
      "v": 122
    },
    {
      "midi": 59,
      "hit": false,
      "t": 36008.064,
      "d": 222.87599999999657,
      "v": 110
    },
    {
      "midi": 62,
      "hit": false,
      "t": 36008.064,
      "d": 222.87599999999657,
      "v": 104
    },
    {
      "midi": 67,
      "hit": false,
      "t": 36008.064,
      "d": 222.87599999999657,
      "v": 68
    },
    {
      "midi": 55,
      "hit": false,
      "t": 36268.992,
      "d": 222.87599999999657,
      "v": 116
    },
    {
      "midi": 59,
      "hit": false,
      "t": 36268.992,
      "d": 222.87599999999657,
      "v": 105
    },
    {
      "midi": 62,
      "hit": false,
      "t": 36268.992,
      "d": 222.87599999999657,
      "v": 104
    },
    {
      "midi": 67,
      "hit": false,
      "t": 36268.992,
      "d": 222.87599999999657,
      "v": 68
    },
    {
      "midi": 55,
      "hit": false,
      "t": 36529.92,
      "d": 222.87599999999657,
      "v": 110
    },
    {
      "midi": 59,
      "hit": false,
      "t": 36529.92,
      "d": 222.87599999999657,
      "v": 110
    },
    {
      "midi": 62,
      "hit": false,
      "t": 36529.92,
      "d": 222.87599999999657,
      "v": 110
    },
    {
      "midi": 67,
      "hit": false,
      "t": 36529.92,
      "d": 222.87599999999657,
      "v": 72
    },
    {
      "midi": 55,
      "hit": false,
      "t": 36790.848,
      "d": 222.87599999999657,
      "v": 116
    },
    {
      "midi": 59,
      "hit": false,
      "t": 36790.848,
      "d": 222.87599999999657,
      "v": 110
    },
    {
      "midi": 62,
      "hit": false,
      "t": 36790.848,
      "d": 222.87599999999657,
      "v": 95
    },
    {
      "midi": 67,
      "hit": false,
      "t": 36790.848,
      "d": 222.87599999999657,
      "v": 68
    },
    {
      "midi": 55,
      "hit": false,
      "t": 37051.776,
      "d": 222.87599999999657,
      "v": 116
    },
    {
      "midi": 59,
      "hit": false,
      "t": 37051.776,
      "d": 222.87599999999657,
      "v": 105
    },
    {
      "midi": 62,
      "hit": false,
      "t": 37051.776,
      "d": 222.87599999999657,
      "v": 110
    },
    {
      "midi": 67,
      "hit": false,
      "t": 37051.776,
      "d": 222.87599999999657,
      "v": 63
    },
    {
      "midi": 55,
      "hit": false,
      "t": 37312.704,
      "d": 222.87599999999657,
      "v": 116
    },
    {
      "midi": 59,
      "hit": false,
      "t": 37312.704,
      "d": 222.87599999999657,
      "v": 110
    },
    {
      "midi": 62,
      "hit": false,
      "t": 37312.704,
      "d": 222.87599999999657,
      "v": 110
    },
    {
      "midi": 67,
      "hit": false,
      "t": 37312.704,
      "d": 222.87599999999657,
      "v": 63
    },
    {
      "midi": 57,
      "hit": false,
      "t": 37573.632,
      "d": 222.87599999999657,
      "v": 110
    },
    {
      "midi": 61,
      "hit": false,
      "t": 37573.632,
      "d": 222.87599999999657,
      "v": 116
    },
    {
      "midi": 64,
      "hit": false,
      "t": 37573.632,
      "d": 222.87599999999657,
      "v": 90
    },
    {
      "midi": 69,
      "hit": false,
      "t": 37573.632,
      "d": 222.87599999999657,
      "v": 59
    },
    {
      "midi": 57,
      "hit": false,
      "t": 37834.56,
      "d": 222.87599999999657,
      "v": 105
    },
    {
      "midi": 61,
      "hit": false,
      "t": 37834.56,
      "d": 222.87599999999657,
      "v": 116
    },
    {
      "midi": 64,
      "hit": false,
      "t": 37834.56,
      "d": 222.87599999999657,
      "v": 104
    },
    {
      "midi": 69,
      "hit": false,
      "t": 37834.56,
      "d": 222.87599999999657,
      "v": 59
    },
    {
      "midi": 57,
      "hit": false,
      "t": 38095.488,
      "d": 222.87599999999657,
      "v": 105
    },
    {
      "midi": 61,
      "hit": false,
      "t": 38095.488,
      "d": 222.87599999999657,
      "v": 116
    },
    {
      "midi": 64,
      "hit": false,
      "t": 38095.488,
      "d": 222.87599999999657,
      "v": 99
    },
    {
      "midi": 69,
      "hit": false,
      "t": 38095.488,
      "d": 222.87599999999657,
      "v": 59
    },
    {
      "midi": 57,
      "hit": false,
      "t": 38356.416,
      "d": 222.87599999999657,
      "v": 96
    },
    {
      "midi": 61,
      "hit": false,
      "t": 38356.416,
      "d": 222.87599999999657,
      "v": 116
    },
    {
      "midi": 64,
      "hit": false,
      "t": 38356.416,
      "d": 222.87599999999657,
      "v": 104
    },
    {
      "midi": 69,
      "hit": false,
      "t": 38356.416,
      "d": 222.87599999999657,
      "v": 68
    },
    {
      "midi": 57,
      "hit": false,
      "t": 38617.344,
      "d": 222.87599999999657,
      "v": 101
    },
    {
      "midi": 61,
      "hit": false,
      "t": 38617.344,
      "d": 222.87599999999657,
      "v": 116
    },
    {
      "midi": 64,
      "hit": false,
      "t": 38617.344,
      "d": 222.87599999999657,
      "v": 110
    },
    {
      "midi": 69,
      "hit": false,
      "t": 38617.344,
      "d": 222.87599999999657,
      "v": 63
    },
    {
      "midi": 57,
      "hit": false,
      "t": 38878.272,
      "d": 222.87599999999657,
      "v": 92
    },
    {
      "midi": 61,
      "hit": false,
      "t": 38878.272,
      "d": 222.87599999999657,
      "v": 116
    },
    {
      "midi": 64,
      "hit": false,
      "t": 38878.272,
      "d": 222.87599999999657,
      "v": 104
    },
    {
      "midi": 69,
      "hit": false,
      "t": 38878.272,
      "d": 222.87599999999657,
      "v": 63
    },
    {
      "midi": 57,
      "hit": false,
      "t": 39139.2,
      "d": 222.87599999999657,
      "v": 110
    },
    {
      "midi": 61,
      "hit": false,
      "t": 39139.2,
      "d": 222.87599999999657,
      "v": 116
    },
    {
      "midi": 64,
      "hit": false,
      "t": 39139.2,
      "d": 222.87599999999657,
      "v": 104
    },
    {
      "midi": 69,
      "hit": false,
      "t": 39139.2,
      "d": 222.87599999999657,
      "v": 63
    },
    {
      "midi": 57,
      "hit": false,
      "t": 39400.128,
      "d": 222.87599999999657,
      "v": 110
    },
    {
      "midi": 61,
      "hit": false,
      "t": 39400.128,
      "d": 222.87599999999657,
      "v": 116
    },
    {
      "midi": 64,
      "hit": false,
      "t": 39400.128,
      "d": 222.87599999999657,
      "v": 110
    },
    {
      "midi": 69,
      "hit": false,
      "t": 39400.128,
      "d": 222.87599999999657,
      "v": 68
    },
    {
      "midi": 55,
      "hit": false,
      "t": 39661.056,
      "d": 222.87599999999657,
      "v": 116
    },
    {
      "midi": 59,
      "hit": false,
      "t": 39661.056,
      "d": 222.87599999999657,
      "v": 116
    },
    {
      "midi": 62,
      "hit": false,
      "t": 39661.056,
      "d": 222.87599999999657,
      "v": 99
    },
    {
      "midi": 67,
      "hit": false,
      "t": 39661.056,
      "d": 222.87599999999657,
      "v": 68
    },
    {
      "midi": 55,
      "hit": false,
      "t": 39921.984,
      "d": 222.87599999999657,
      "v": 122
    },
    {
      "midi": 59,
      "hit": false,
      "t": 39921.984,
      "d": 222.87599999999657,
      "v": 116
    },
    {
      "midi": 62,
      "hit": false,
      "t": 39921.984,
      "d": 222.87599999999657,
      "v": 99
    },
    {
      "midi": 67,
      "hit": false,
      "t": 39921.984,
      "d": 222.87599999999657,
      "v": 68
    },
    {
      "midi": 55,
      "hit": false,
      "t": 40182.912,
      "d": 222.87599999999657,
      "v": 116
    },
    {
      "midi": 59,
      "hit": false,
      "t": 40182.912,
      "d": 222.87599999999657,
      "v": 105
    },
    {
      "midi": 62,
      "hit": false,
      "t": 40182.912,
      "d": 222.87599999999657,
      "v": 110
    },
    {
      "midi": 67,
      "hit": false,
      "t": 40182.912,
      "d": 222.87599999999657,
      "v": 77
    },
    {
      "midi": 55,
      "hit": false,
      "t": 40443.84,
      "d": 222.87599999999657,
      "v": 122
    },
    {
      "midi": 59,
      "hit": false,
      "t": 40443.84,
      "d": 222.87599999999657,
      "v": 110
    },
    {
      "midi": 62,
      "hit": false,
      "t": 40443.84,
      "d": 222.87599999999657,
      "v": 104
    },
    {
      "midi": 67,
      "hit": false,
      "t": 40443.84,
      "d": 222.87599999999657,
      "v": 63
    },
    {
      "midi": 55,
      "hit": false,
      "t": 40704.768,
      "d": 222.87599999999657,
      "v": 116
    },
    {
      "midi": 59,
      "hit": false,
      "t": 40704.768,
      "d": 222.87599999999657,
      "v": 110
    },
    {
      "midi": 62,
      "hit": false,
      "t": 40704.768,
      "d": 222.87599999999657,
      "v": 104
    },
    {
      "midi": 67,
      "hit": false,
      "t": 40704.768,
      "d": 222.87599999999657,
      "v": 72
    },
    {
      "midi": 55,
      "hit": false,
      "t": 40965.695999999996,
      "d": 222.87599999999657,
      "v": 116
    },
    {
      "midi": 59,
      "hit": false,
      "t": 40965.695999999996,
      "d": 222.87599999999657,
      "v": 110
    },
    {
      "midi": 62,
      "hit": false,
      "t": 40965.695999999996,
      "d": 222.87599999999657,
      "v": 104
    },
    {
      "midi": 67,
      "hit": false,
      "t": 40965.695999999996,
      "d": 222.87599999999657,
      "v": 63
    },
    {
      "midi": 55,
      "hit": false,
      "t": 41226.623999999996,
      "d": 222.87599999999657,
      "v": 116
    },
    {
      "midi": 59,
      "hit": false,
      "t": 41226.623999999996,
      "d": 222.87599999999657,
      "v": 110
    },
    {
      "midi": 62,
      "hit": false,
      "t": 41226.623999999996,
      "d": 222.87599999999657,
      "v": 104
    },
    {
      "midi": 67,
      "hit": false,
      "t": 41226.623999999996,
      "d": 222.87599999999657,
      "v": 63
    },
    {
      "midi": 55,
      "hit": false,
      "t": 41487.551999999996,
      "d": 222.87599999999657,
      "v": 122
    },
    {
      "midi": 59,
      "hit": false,
      "t": 41487.551999999996,
      "d": 222.87599999999657,
      "v": 116
    },
    {
      "midi": 62,
      "hit": false,
      "t": 41487.551999999996,
      "d": 222.87599999999657,
      "v": 104
    },
    {
      "midi": 67,
      "hit": false,
      "t": 41487.551999999996,
      "d": 222.87599999999657,
      "v": 72
    },
    {
      "midi": 57,
      "hit": false,
      "t": 41748.479999999996,
      "d": 222.87599999999657,
      "v": 101
    },
    {
      "midi": 61,
      "hit": false,
      "t": 41748.479999999996,
      "d": 222.87599999999657,
      "v": 116
    },
    {
      "midi": 64,
      "hit": false,
      "t": 41748.479999999996,
      "d": 222.87599999999657,
      "v": 104
    },
    {
      "midi": 69,
      "hit": false,
      "t": 41748.479999999996,
      "d": 222.87599999999657,
      "v": 72
    },
    {
      "midi": 57,
      "hit": false,
      "t": 42009.407999999996,
      "d": 222.87599999999657,
      "v": 105
    },
    {
      "midi": 61,
      "hit": false,
      "t": 42009.407999999996,
      "d": 222.87599999999657,
      "v": 110
    },
    {
      "midi": 64,
      "hit": false,
      "t": 42009.407999999996,
      "d": 222.87599999999657,
      "v": 99
    },
    {
      "midi": 69,
      "hit": false,
      "t": 42009.407999999996,
      "d": 222.87599999999657,
      "v": 63
    },
    {
      "midi": 57,
      "hit": false,
      "t": 42270.335999999996,
      "d": 222.87599999999657,
      "v": 101
    },
    {
      "midi": 61,
      "hit": false,
      "t": 42270.335999999996,
      "d": 222.87599999999657,
      "v": 116
    },
    {
      "midi": 64,
      "hit": false,
      "t": 42270.335999999996,
      "d": 222.87599999999657,
      "v": 99
    },
    {
      "midi": 69,
      "hit": false,
      "t": 42270.335999999996,
      "d": 222.87599999999657,
      "v": 63
    },
    {
      "midi": 57,
      "hit": false,
      "t": 42531.263999999996,
      "d": 222.87599999999657,
      "v": 105
    },
    {
      "midi": 61,
      "hit": false,
      "t": 42531.263999999996,
      "d": 222.87599999999657,
      "v": 116
    },
    {
      "midi": 64,
      "hit": false,
      "t": 42531.263999999996,
      "d": 222.87599999999657,
      "v": 90
    },
    {
      "midi": 69,
      "hit": false,
      "t": 42531.263999999996,
      "d": 222.87599999999657,
      "v": 63
    },
    {
      "midi": 57,
      "hit": false,
      "t": 42792.191999999995,
      "d": 222.87599999999657,
      "v": 101
    },
    {
      "midi": 61,
      "hit": false,
      "t": 42792.191999999995,
      "d": 222.87599999999657,
      "v": 116
    },
    {
      "midi": 64,
      "hit": false,
      "t": 42792.191999999995,
      "d": 222.87599999999657,
      "v": 99
    },
    {
      "midi": 69,
      "hit": false,
      "t": 42792.191999999995,
      "d": 222.87599999999657,
      "v": 63
    },
    {
      "midi": 57,
      "hit": false,
      "t": 43053.119999999995,
      "d": 222.87599999999657,
      "v": 101
    },
    {
      "midi": 61,
      "hit": false,
      "t": 43053.119999999995,
      "d": 222.87599999999657,
      "v": 116
    },
    {
      "midi": 64,
      "hit": false,
      "t": 43053.119999999995,
      "d": 222.87599999999657,
      "v": 99
    },
    {
      "midi": 69,
      "hit": false,
      "t": 43053.119999999995,
      "d": 222.87599999999657,
      "v": 63
    },
    {
      "midi": 57,
      "hit": false,
      "t": 43314.047999999995,
      "d": 222.87599999999657,
      "v": 96
    },
    {
      "midi": 61,
      "hit": false,
      "t": 43314.047999999995,
      "d": 222.87599999999657,
      "v": 116
    },
    {
      "midi": 64,
      "hit": false,
      "t": 43314.047999999995,
      "d": 222.87599999999657,
      "v": 104
    },
    {
      "midi": 69,
      "hit": false,
      "t": 43314.047999999995,
      "d": 222.87599999999657,
      "v": 59
    },
    {
      "midi": 57,
      "hit": false,
      "t": 43574.975999999995,
      "d": 222.87599999999657,
      "v": 92
    },
    {
      "midi": 61,
      "hit": false,
      "t": 43574.975999999995,
      "d": 222.87599999999657,
      "v": 110
    },
    {
      "midi": 64,
      "hit": false,
      "t": 43574.975999999995,
      "d": 222.87599999999657,
      "v": 104
    },
    {
      "midi": 69,
      "hit": false,
      "t": 43574.975999999995,
      "d": 222.87599999999657,
      "v": 68
    },
    {
      "midi": 55,
      "hit": false,
      "t": 43835.903999999995,
      "d": 222.87599999999657,
      "v": 116
    },
    {
      "midi": 59,
      "hit": false,
      "t": 43835.903999999995,
      "d": 222.87599999999657,
      "v": 110
    },
    {
      "midi": 62,
      "hit": false,
      "t": 43835.903999999995,
      "d": 222.87599999999657,
      "v": 99
    },
    {
      "midi": 67,
      "hit": false,
      "t": 43835.903999999995,
      "d": 222.87599999999657,
      "v": 72
    },
    {
      "midi": 55,
      "hit": false,
      "t": 44096.831999999995,
      "d": 222.87599999999657,
      "v": 110
    },
    {
      "midi": 59,
      "hit": false,
      "t": 44096.831999999995,
      "d": 222.87599999999657,
      "v": 110
    },
    {
      "midi": 62,
      "hit": false,
      "t": 44096.831999999995,
      "d": 222.87599999999657,
      "v": 104
    },
    {
      "midi": 67,
      "hit": false,
      "t": 44096.831999999995,
      "d": 222.87599999999657,
      "v": 72
    },
    {
      "midi": 55,
      "hit": false,
      "t": 44357.759999999995,
      "d": 222.87599999999657,
      "v": 116
    },
    {
      "midi": 59,
      "hit": false,
      "t": 44357.759999999995,
      "d": 222.87599999999657,
      "v": 105
    },
    {
      "midi": 62,
      "hit": false,
      "t": 44357.759999999995,
      "d": 222.87599999999657,
      "v": 104
    },
    {
      "midi": 67,
      "hit": false,
      "t": 44357.759999999995,
      "d": 222.87599999999657,
      "v": 63
    },
    {
      "midi": 55,
      "hit": false,
      "t": 44618.687999999995,
      "d": 222.87599999999657,
      "v": 116
    },
    {
      "midi": 59,
      "hit": false,
      "t": 44618.687999999995,
      "d": 222.87599999999657,
      "v": 110
    },
    {
      "midi": 62,
      "hit": false,
      "t": 44618.687999999995,
      "d": 222.87599999999657,
      "v": 104
    },
    {
      "midi": 67,
      "hit": false,
      "t": 44618.687999999995,
      "d": 222.87599999999657,
      "v": 68
    },
    {
      "midi": 55,
      "hit": false,
      "t": 44879.615999999995,
      "d": 222.87599999999657,
      "v": 116
    },
    {
      "midi": 59,
      "hit": false,
      "t": 44879.615999999995,
      "d": 222.87599999999657,
      "v": 105
    },
    {
      "midi": 62,
      "hit": false,
      "t": 44879.615999999995,
      "d": 222.87599999999657,
      "v": 104
    },
    {
      "midi": 67,
      "hit": false,
      "t": 44879.615999999995,
      "d": 222.87599999999657,
      "v": 68
    },
    {
      "midi": 55,
      "hit": false,
      "t": 45140.543999999994,
      "d": 222.87599999999657,
      "v": 116
    },
    {
      "midi": 59,
      "hit": false,
      "t": 45140.543999999994,
      "d": 222.87599999999657,
      "v": 110
    },
    {
      "midi": 62,
      "hit": false,
      "t": 45140.543999999994,
      "d": 222.87599999999657,
      "v": 104
    },
    {
      "midi": 67,
      "hit": false,
      "t": 45140.543999999994,
      "d": 222.87599999999657,
      "v": 72
    },
    {
      "midi": 55,
      "hit": false,
      "t": 45401.471999999994,
      "d": 222.87599999999657,
      "v": 122
    },
    {
      "midi": 59,
      "hit": false,
      "t": 45401.471999999994,
      "d": 222.87599999999657,
      "v": 110
    },
    {
      "midi": 62,
      "hit": false,
      "t": 45401.471999999994,
      "d": 222.87599999999657,
      "v": 110
    },
    {
      "midi": 67,
      "hit": false,
      "t": 45401.471999999994,
      "d": 222.87599999999657,
      "v": 72
    },
    {
      "midi": 55,
      "hit": false,
      "t": 45662.399999999994,
      "d": 222.87599999999657,
      "v": 122
    },
    {
      "midi": 59,
      "hit": false,
      "t": 45662.399999999994,
      "d": 222.87599999999657,
      "v": 110
    },
    {
      "midi": 62,
      "hit": false,
      "t": 45662.399999999994,
      "d": 222.87599999999657,
      "v": 104
    },
    {
      "midi": 67,
      "hit": false,
      "t": 45662.399999999994,
      "d": 222.87599999999657,
      "v": 68
    },
    {
      "midi": 57,
      "hit": false,
      "t": 45923.327999999994,
      "d": 222.87599999999657,
      "v": 96
    },
    {
      "midi": 61,
      "hit": false,
      "t": 45923.327999999994,
      "d": 222.87599999999657,
      "v": 116
    },
    {
      "midi": 64,
      "hit": false,
      "t": 45923.327999999994,
      "d": 222.87599999999657,
      "v": 104
    },
    {
      "midi": 69,
      "hit": false,
      "t": 45923.327999999994,
      "d": 222.87599999999657,
      "v": 72
    },
    {
      "midi": 57,
      "hit": false,
      "t": 46184.255999999994,
      "d": 222.87599999999657,
      "v": 105
    },
    {
      "midi": 61,
      "hit": false,
      "t": 46184.255999999994,
      "d": 222.87599999999657,
      "v": 122
    },
    {
      "midi": 64,
      "hit": false,
      "t": 46184.255999999994,
      "d": 222.87599999999657,
      "v": 99
    },
    {
      "midi": 69,
      "hit": false,
      "t": 46184.255999999994,
      "d": 222.87599999999657,
      "v": 59
    },
    {
      "midi": 57,
      "hit": false,
      "t": 46445.183999999994,
      "d": 222.87599999999657,
      "v": 96
    },
    {
      "midi": 61,
      "hit": false,
      "t": 46445.183999999994,
      "d": 222.87599999999657,
      "v": 116
    },
    {
      "midi": 64,
      "hit": false,
      "t": 46445.183999999994,
      "d": 222.87599999999657,
      "v": 104
    },
    {
      "midi": 69,
      "hit": false,
      "t": 46445.183999999994,
      "d": 222.87599999999657,
      "v": 68
    },
    {
      "midi": 57,
      "hit": false,
      "t": 46706.111999999994,
      "d": 222.87599999999657,
      "v": 101
    },
    {
      "midi": 61,
      "hit": false,
      "t": 46706.111999999994,
      "d": 222.87599999999657,
      "v": 122
    },
    {
      "midi": 64,
      "hit": false,
      "t": 46706.111999999994,
      "d": 222.87599999999657,
      "v": 99
    },
    {
      "midi": 69,
      "hit": false,
      "t": 46706.111999999994,
      "d": 222.87599999999657,
      "v": 63
    },
    {
      "midi": 57,
      "hit": false,
      "t": 46967.03999999999,
      "d": 222.87599999999657,
      "v": 105
    },
    {
      "midi": 61,
      "hit": false,
      "t": 46967.03999999999,
      "d": 222.87599999999657,
      "v": 122
    },
    {
      "midi": 64,
      "hit": false,
      "t": 46967.03999999999,
      "d": 222.87599999999657,
      "v": 110
    },
    {
      "midi": 69,
      "hit": false,
      "t": 46967.03999999999,
      "d": 222.87599999999657,
      "v": 77
    },
    {
      "midi": 57,
      "hit": false,
      "t": 47227.96799999999,
      "d": 222.87599999999657,
      "v": 101
    },
    {
      "midi": 61,
      "hit": false,
      "t": 47227.96799999999,
      "d": 222.87599999999657,
      "v": 116
    },
    {
      "midi": 64,
      "hit": false,
      "t": 47227.96799999999,
      "d": 222.87599999999657,
      "v": 99
    },
    {
      "midi": 69,
      "hit": false,
      "t": 47227.96799999999,
      "d": 222.87599999999657,
      "v": 72
    },
    {
      "midi": 57,
      "hit": false,
      "t": 47488.89599999999,
      "d": 222.87599999999657,
      "v": 96
    },
    {
      "midi": 61,
      "hit": false,
      "t": 47488.89599999999,
      "d": 222.87599999999657,
      "v": 116
    },
    {
      "midi": 64,
      "hit": false,
      "t": 47488.89599999999,
      "d": 222.87599999999657,
      "v": 99
    },
    {
      "midi": 69,
      "hit": false,
      "t": 47488.89599999999,
      "d": 222.87599999999657,
      "v": 72
    },
    {
      "midi": 57,
      "hit": false,
      "t": 47749.82399999999,
      "d": 222.87599999999657,
      "v": 110
    },
    {
      "midi": 61,
      "hit": false,
      "t": 47749.82399999999,
      "d": 222.87599999999657,
      "v": 116
    },
    {
      "midi": 64,
      "hit": false,
      "t": 47749.82399999999,
      "d": 222.87599999999657,
      "v": 104
    },
    {
      "midi": 69,
      "hit": false,
      "t": 47749.82399999999,
      "d": 222.87599999999657,
      "v": 68
    },
    {
      "midi": 55,
      "hit": false,
      "t": 48010.75199999999,
      "d": 222.87599999999657,
      "v": 116
    },
    {
      "midi": 59,
      "hit": false,
      "t": 48010.75199999999,
      "d": 222.87599999999657,
      "v": 116
    },
    {
      "midi": 62,
      "hit": false,
      "t": 48010.75199999999,
      "d": 222.87599999999657,
      "v": 104
    },
    {
      "midi": 67,
      "hit": false,
      "t": 48010.75199999999,
      "d": 222.87599999999657,
      "v": 72
    },
    {
      "midi": 55,
      "hit": false,
      "t": 48271.67999999999,
      "d": 222.87599999999657,
      "v": 122
    },
    {
      "midi": 59,
      "hit": false,
      "t": 48271.67999999999,
      "d": 222.87599999999657,
      "v": 110
    },
    {
      "midi": 62,
      "hit": false,
      "t": 48271.67999999999,
      "d": 222.87599999999657,
      "v": 110
    },
    {
      "midi": 67,
      "hit": false,
      "t": 48271.67999999999,
      "d": 222.87599999999657,
      "v": 63
    },
    {
      "midi": 55,
      "hit": false,
      "t": 48532.60799999999,
      "d": 222.87599999999657,
      "v": 122
    },
    {
      "midi": 59,
      "hit": false,
      "t": 48532.60799999999,
      "d": 222.87599999999657,
      "v": 116
    },
    {
      "midi": 62,
      "hit": false,
      "t": 48532.60799999999,
      "d": 222.87599999999657,
      "v": 110
    },
    {
      "midi": 67,
      "hit": false,
      "t": 48532.60799999999,
      "d": 222.87599999999657,
      "v": 72
    },
    {
      "midi": 55,
      "hit": false,
      "t": 48793.53599999999,
      "d": 222.87599999999657,
      "v": 116
    },
    {
      "midi": 59,
      "hit": false,
      "t": 48793.53599999999,
      "d": 222.87599999999657,
      "v": 116
    },
    {
      "midi": 62,
      "hit": false,
      "t": 48793.53599999999,
      "d": 222.87599999999657,
      "v": 104
    },
    {
      "midi": 67,
      "hit": false,
      "t": 48793.53599999999,
      "d": 222.87599999999657,
      "v": 72
    },
    {
      "midi": 55,
      "hit": false,
      "t": 49054.46399999999,
      "d": 222.87599999999657,
      "v": 110
    },
    {
      "midi": 59,
      "hit": false,
      "t": 49054.46399999999,
      "d": 222.87599999999657,
      "v": 110
    },
    {
      "midi": 62,
      "hit": false,
      "t": 49054.46399999999,
      "d": 222.87599999999657,
      "v": 104
    },
    {
      "midi": 67,
      "hit": false,
      "t": 49054.46399999999,
      "d": 222.87599999999657,
      "v": 63
    },
    {
      "midi": 55,
      "hit": false,
      "t": 49315.39199999999,
      "d": 222.87599999999657,
      "v": 116
    },
    {
      "midi": 59,
      "hit": false,
      "t": 49315.39199999999,
      "d": 222.87599999999657,
      "v": 110
    },
    {
      "midi": 62,
      "hit": false,
      "t": 49315.39199999999,
      "d": 222.87599999999657,
      "v": 110
    },
    {
      "midi": 67,
      "hit": false,
      "t": 49315.39199999999,
      "d": 222.87599999999657,
      "v": 72
    },
    {
      "midi": 55,
      "hit": false,
      "t": 49576.31999999999,
      "d": 222.87599999999657,
      "v": 116
    },
    {
      "midi": 59,
      "hit": false,
      "t": 49576.31999999999,
      "d": 222.87599999999657,
      "v": 105
    },
    {
      "midi": 62,
      "hit": false,
      "t": 49576.31999999999,
      "d": 222.87599999999657,
      "v": 104
    },
    {
      "midi": 67,
      "hit": false,
      "t": 49576.31999999999,
      "d": 222.87599999999657,
      "v": 72
    },
    {
      "midi": 55,
      "hit": false,
      "t": 49837.24799999999,
      "d": 222.87599999999657,
      "v": 122
    },
    {
      "midi": 59,
      "hit": false,
      "t": 49837.24799999999,
      "d": 222.87599999999657,
      "v": 110
    },
    {
      "midi": 62,
      "hit": false,
      "t": 49837.24799999999,
      "d": 222.87599999999657,
      "v": 110
    },
    {
      "midi": 67,
      "hit": false,
      "t": 49837.24799999999,
      "d": 222.87599999999657,
      "v": 72
    },
    {
      "midi": 62,
      "hit": false,
      "t": 50098.17599999999,
      "d": 1.0872000000017579,
      "v": 99
    },
    {
      "midi": 55,
      "hit": false,
      "t": 50098.17599999999,
      "d": 222.87600000000384,
      "v": 92
    },
    {
      "midi": 59,
      "hit": false,
      "t": 50098.17599999999,
      "d": 222.87600000000384,
      "v": 101
    },
    {
      "midi": 67,
      "hit": false,
      "t": 50098.17599999999,
      "d": 222.87600000000384,
      "v": 63
    },
    {
      "midi": 62,
      "hit": false,
      "t": 50359.104,
      "d": 1.0872000000017579,
      "v": 104
    },
    {
      "midi": 55,
      "hit": false,
      "t": 50359.104,
      "d": 222.87600000000384,
      "v": 92
    },
    {
      "midi": 59,
      "hit": false,
      "t": 50359.104,
      "d": 222.87600000000384,
      "v": 101
    },
    {
      "midi": 67,
      "hit": false,
      "t": 50359.104,
      "d": 222.87600000000384,
      "v": 63
    },
    {
      "midi": 62,
      "hit": false,
      "t": 50620.03200000001,
      "d": 1.0872000000017579,
      "v": 104
    },
    {
      "midi": 55,
      "hit": false,
      "t": 50620.03200000001,
      "d": 222.87600000000384,
      "v": 96
    },
    {
      "midi": 59,
      "hit": false,
      "t": 50620.03200000001,
      "d": 222.87600000000384,
      "v": 92
    },
    {
      "midi": 67,
      "hit": false,
      "t": 50620.03200000001,
      "d": 222.87600000000384,
      "v": 72
    },
    {
      "midi": 62,
      "hit": false,
      "t": 50880.960000000014,
      "d": 1.0872000000017579,
      "v": 99
    },
    {
      "midi": 55,
      "hit": false,
      "t": 50880.960000000014,
      "d": 222.87600000000384,
      "v": 88
    },
    {
      "midi": 59,
      "hit": false,
      "t": 50880.960000000014,
      "d": 222.87600000000384,
      "v": 96
    },
    {
      "midi": 67,
      "hit": false,
      "t": 50880.960000000014,
      "d": 222.87600000000384,
      "v": 63
    },
    {
      "midi": 62,
      "hit": false,
      "t": 51141.88800000002,
      "d": 1.0872000000017579,
      "v": 104
    },
    {
      "midi": 55,
      "hit": false,
      "t": 51141.88800000002,
      "d": 222.87600000000384,
      "v": 96
    },
    {
      "midi": 59,
      "hit": false,
      "t": 51141.88800000002,
      "d": 222.87600000000384,
      "v": 101
    },
    {
      "midi": 67,
      "hit": false,
      "t": 51141.88800000002,
      "d": 222.87600000000384,
      "v": 68
    },
    {
      "midi": 62,
      "hit": false,
      "t": 51402.81600000003,
      "d": 1.0872000000017579,
      "v": 99
    },
    {
      "midi": 55,
      "hit": false,
      "t": 51402.81600000003,
      "d": 222.87600000000384,
      "v": 96
    },
    {
      "midi": 59,
      "hit": false,
      "t": 51402.81600000003,
      "d": 222.87600000000384,
      "v": 105
    },
    {
      "midi": 67,
      "hit": false,
      "t": 51402.81600000003,
      "d": 222.87600000000384,
      "v": 63
    },
    {
      "midi": 62,
      "hit": false,
      "t": 51663.744000000035,
      "d": 1.0872000000017579,
      "v": 104
    },
    {
      "midi": 55,
      "hit": false,
      "t": 51663.744000000035,
      "d": 222.87600000000384,
      "v": 96
    },
    {
      "midi": 59,
      "hit": false,
      "t": 51663.744000000035,
      "d": 222.87600000000384,
      "v": 96
    },
    {
      "midi": 67,
      "hit": false,
      "t": 51663.744000000035,
      "d": 222.87600000000384,
      "v": 63
    },
    {
      "midi": 62,
      "hit": false,
      "t": 51924.67200000004,
      "d": 1.0872000000017579,
      "v": 104
    },
    {
      "midi": 55,
      "hit": false,
      "t": 51924.67200000004,
      "d": 222.87600000000384,
      "v": 96
    },
    {
      "midi": 59,
      "hit": false,
      "t": 51924.67200000004,
      "d": 222.87600000000384,
      "v": 105
    },
    {
      "midi": 67,
      "hit": false,
      "t": 51924.67200000004,
      "d": 222.87600000000384,
      "v": 72
    },
    {
      "midi": 62,
      "hit": false,
      "t": 52185.60000000005,
      "d": 1.0872000000017579,
      "v": 105
    },
    {
      "midi": 57,
      "hit": false,
      "t": 52185.60000000005,
      "d": 222.87600000000384,
      "v": 92
    },
    {
      "midi": 67,
      "hit": false,
      "t": 52185.60000000005,
      "d": 222.87600000000384,
      "v": 63
    },
    {
      "midi": 62,
      "hit": false,
      "t": 52446.52800000006,
      "d": 1.0872000000017579,
      "v": 105
    },
    {
      "midi": 57,
      "hit": false,
      "t": 52446.52800000006,
      "d": 222.87600000000384,
      "v": 96
    },
    {
      "midi": 67,
      "hit": false,
      "t": 52446.52800000006,
      "d": 222.87600000000384,
      "v": 68
    },
    {
      "midi": 62,
      "hit": false,
      "t": 52707.456000000064,
      "d": 1.0872000000017579,
      "v": 104
    },
    {
      "midi": 57,
      "hit": false,
      "t": 52707.456000000064,
      "d": 222.87600000000384,
      "v": 92
    },
    {
      "midi": 67,
      "hit": false,
      "t": 52707.456000000064,
      "d": 222.87600000000384,
      "v": 63
    },
    {
      "midi": 62,
      "hit": false,
      "t": 52968.38400000007,
      "d": 1.0872000000017579,
      "v": 110
    },
    {
      "midi": 57,
      "hit": false,
      "t": 52968.38400000007,
      "d": 222.87600000000384,
      "v": 101
    },
    {
      "midi": 67,
      "hit": false,
      "t": 52968.38400000007,
      "d": 222.87600000000384,
      "v": 68
    },
    {
      "midi": 61,
      "hit": false,
      "t": 53229.31200000008,
      "d": 1.0872000000017579,
      "v": 116
    },
    {
      "midi": 57,
      "hit": false,
      "t": 53229.31200000008,
      "d": 222.87600000000384,
      "v": 96
    },
    {
      "midi": 67,
      "hit": false,
      "t": 53229.31200000008,
      "d": 222.87600000000384,
      "v": 77
    },
    {
      "midi": 61,
      "hit": false,
      "t": 53490.240000000085,
      "d": 1.0872000000017579,
      "v": 116
    },
    {
      "midi": 57,
      "hit": false,
      "t": 53490.240000000085,
      "d": 222.87600000000384,
      "v": 96
    },
    {
      "midi": 67,
      "hit": false,
      "t": 53490.240000000085,
      "d": 222.87600000000384,
      "v": 77
    },
    {
      "midi": 61,
      "hit": false,
      "t": 53751.16800000009,
      "d": 1.0872000000017579,
      "v": 116
    },
    {
      "midi": 57,
      "hit": false,
      "t": 53751.16800000009,
      "d": 222.87600000000384,
      "v": 96
    },
    {
      "midi": 67,
      "hit": false,
      "t": 53751.16800000009,
      "d": 222.87600000000384,
      "v": 83
    },
    {
      "midi": 61,
      "hit": false,
      "t": 54012.0960000001,
      "d": 1.0872000000017579,
      "v": 116
    },
    {
      "midi": 57,
      "hit": false,
      "t": 54012.0960000001,
      "d": 222.87600000000384,
      "v": 96
    },
    {
      "midi": 67,
      "hit": false,
      "t": 54012.0960000001,
      "d": 222.87600000000384,
      "v": 89
    },
    {
      "midi": 57,
      "hit": false,
      "t": 54273.02400000011,
      "d": 222.87599999999657,
      "v": 110
    },
    {
      "midi": 61,
      "hit": false,
      "t": 54273.02400000011,
      "d": 222.87599999999657,
      "v": 116
    },
    {
      "midi": 64,
      "hit": false,
      "t": 54273.02400000011,
      "d": 222.87599999999657,
      "v": 90
    },
    {
      "midi": 69,
      "hit": false,
      "t": 54273.02400000011,
      "d": 222.87599999999657,
      "v": 59
    },
    {
      "midi": 57,
      "hit": false,
      "t": 54533.95200000011,
      "d": 222.87599999999657,
      "v": 105
    },
    {
      "midi": 61,
      "hit": false,
      "t": 54533.95200000011,
      "d": 222.87599999999657,
      "v": 116
    },
    {
      "midi": 64,
      "hit": false,
      "t": 54533.95200000011,
      "d": 222.87599999999657,
      "v": 104
    },
    {
      "midi": 69,
      "hit": false,
      "t": 54533.95200000011,
      "d": 222.87599999999657,
      "v": 59
    },
    {
      "midi": 57,
      "hit": false,
      "t": 54794.88000000011,
      "d": 222.87599999999657,
      "v": 105
    },
    {
      "midi": 61,
      "hit": false,
      "t": 54794.88000000011,
      "d": 222.87599999999657,
      "v": 116
    },
    {
      "midi": 64,
      "hit": false,
      "t": 54794.88000000011,
      "d": 222.87599999999657,
      "v": 99
    },
    {
      "midi": 69,
      "hit": false,
      "t": 54794.88000000011,
      "d": 222.87599999999657,
      "v": 59
    },
    {
      "midi": 57,
      "hit": false,
      "t": 55055.80800000011,
      "d": 222.87599999999657,
      "v": 96
    },
    {
      "midi": 61,
      "hit": false,
      "t": 55055.80800000011,
      "d": 222.87599999999657,
      "v": 116
    },
    {
      "midi": 64,
      "hit": false,
      "t": 55055.80800000011,
      "d": 222.87599999999657,
      "v": 104
    },
    {
      "midi": 69,
      "hit": false,
      "t": 55055.80800000011,
      "d": 222.87599999999657,
      "v": 68
    },
    {
      "midi": 57,
      "hit": false,
      "t": 55316.736000000106,
      "d": 222.87599999999657,
      "v": 101
    },
    {
      "midi": 61,
      "hit": false,
      "t": 55316.736000000106,
      "d": 222.87599999999657,
      "v": 116
    },
    {
      "midi": 64,
      "hit": false,
      "t": 55316.736000000106,
      "d": 222.87599999999657,
      "v": 110
    },
    {
      "midi": 69,
      "hit": false,
      "t": 55316.736000000106,
      "d": 222.87599999999657,
      "v": 63
    },
    {
      "midi": 57,
      "hit": false,
      "t": 55577.664000000106,
      "d": 222.87599999999657,
      "v": 92
    },
    {
      "midi": 61,
      "hit": false,
      "t": 55577.664000000106,
      "d": 222.87599999999657,
      "v": 116
    },
    {
      "midi": 64,
      "hit": false,
      "t": 55577.664000000106,
      "d": 222.87599999999657,
      "v": 104
    },
    {
      "midi": 69,
      "hit": false,
      "t": 55577.664000000106,
      "d": 222.87599999999657,
      "v": 63
    },
    {
      "midi": 57,
      "hit": false,
      "t": 55838.592000000106,
      "d": 222.87599999999657,
      "v": 110
    },
    {
      "midi": 61,
      "hit": false,
      "t": 55838.592000000106,
      "d": 222.87599999999657,
      "v": 116
    },
    {
      "midi": 64,
      "hit": false,
      "t": 55838.592000000106,
      "d": 222.87599999999657,
      "v": 104
    },
    {
      "midi": 69,
      "hit": false,
      "t": 55838.592000000106,
      "d": 222.87599999999657,
      "v": 63
    },
    {
      "midi": 57,
      "hit": false,
      "t": 56099.520000000106,
      "d": 222.87599999999657,
      "v": 110
    },
    {
      "midi": 61,
      "hit": false,
      "t": 56099.520000000106,
      "d": 222.87599999999657,
      "v": 116
    },
    {
      "midi": 64,
      "hit": false,
      "t": 56099.520000000106,
      "d": 222.87599999999657,
      "v": 110
    },
    {
      "midi": 69,
      "hit": false,
      "t": 56099.520000000106,
      "d": 222.87599999999657,
      "v": 68
    },
    {
      "midi": 55,
      "hit": false,
      "t": 56360.448000000106,
      "d": 222.87599999999657,
      "v": 116
    },
    {
      "midi": 59,
      "hit": false,
      "t": 56360.448000000106,
      "d": 222.87599999999657,
      "v": 116
    },
    {
      "midi": 62,
      "hit": false,
      "t": 56360.448000000106,
      "d": 222.87599999999657,
      "v": 99
    },
    {
      "midi": 67,
      "hit": false,
      "t": 56360.448000000106,
      "d": 222.87599999999657,
      "v": 68
    },
    {
      "midi": 55,
      "hit": false,
      "t": 56621.376000000106,
      "d": 222.87599999999657,
      "v": 122
    },
    {
      "midi": 59,
      "hit": false,
      "t": 56621.376000000106,
      "d": 222.87599999999657,
      "v": 116
    },
    {
      "midi": 62,
      "hit": false,
      "t": 56621.376000000106,
      "d": 222.87599999999657,
      "v": 99
    },
    {
      "midi": 67,
      "hit": false,
      "t": 56621.376000000106,
      "d": 222.87599999999657,
      "v": 68
    },
    {
      "midi": 55,
      "hit": false,
      "t": 56882.304000000106,
      "d": 222.87599999999657,
      "v": 116
    },
    {
      "midi": 59,
      "hit": false,
      "t": 56882.304000000106,
      "d": 222.87599999999657,
      "v": 105
    },
    {
      "midi": 62,
      "hit": false,
      "t": 56882.304000000106,
      "d": 222.87599999999657,
      "v": 110
    },
    {
      "midi": 67,
      "hit": false,
      "t": 56882.304000000106,
      "d": 222.87599999999657,
      "v": 77
    },
    {
      "midi": 55,
      "hit": false,
      "t": 57143.232000000105,
      "d": 222.87599999999657,
      "v": 122
    },
    {
      "midi": 59,
      "hit": false,
      "t": 57143.232000000105,
      "d": 222.87599999999657,
      "v": 110
    },
    {
      "midi": 62,
      "hit": false,
      "t": 57143.232000000105,
      "d": 222.87599999999657,
      "v": 104
    },
    {
      "midi": 67,
      "hit": false,
      "t": 57143.232000000105,
      "d": 222.87599999999657,
      "v": 63
    },
    {
      "midi": 55,
      "hit": false,
      "t": 57404.160000000105,
      "d": 222.87599999999657,
      "v": 116
    },
    {
      "midi": 59,
      "hit": false,
      "t": 57404.160000000105,
      "d": 222.87599999999657,
      "v": 110
    },
    {
      "midi": 62,
      "hit": false,
      "t": 57404.160000000105,
      "d": 222.87599999999657,
      "v": 104
    },
    {
      "midi": 67,
      "hit": false,
      "t": 57404.160000000105,
      "d": 222.87599999999657,
      "v": 72
    },
    {
      "midi": 55,
      "hit": false,
      "t": 57665.088000000105,
      "d": 222.87599999999657,
      "v": 116
    },
    {
      "midi": 59,
      "hit": false,
      "t": 57665.088000000105,
      "d": 222.87599999999657,
      "v": 110
    },
    {
      "midi": 62,
      "hit": false,
      "t": 57665.088000000105,
      "d": 222.87599999999657,
      "v": 104
    },
    {
      "midi": 67,
      "hit": false,
      "t": 57665.088000000105,
      "d": 222.87599999999657,
      "v": 63
    },
    {
      "midi": 55,
      "hit": false,
      "t": 57926.016000000105,
      "d": 222.87599999999657,
      "v": 116
    },
    {
      "midi": 59,
      "hit": false,
      "t": 57926.016000000105,
      "d": 222.87599999999657,
      "v": 110
    },
    {
      "midi": 62,
      "hit": false,
      "t": 57926.016000000105,
      "d": 222.87599999999657,
      "v": 104
    },
    {
      "midi": 67,
      "hit": false,
      "t": 57926.016000000105,
      "d": 222.87599999999657,
      "v": 63
    },
    {
      "midi": 55,
      "hit": false,
      "t": 58186.944000000105,
      "d": 222.87599999999657,
      "v": 122
    },
    {
      "midi": 59,
      "hit": false,
      "t": 58186.944000000105,
      "d": 222.87599999999657,
      "v": 116
    },
    {
      "midi": 62,
      "hit": false,
      "t": 58186.944000000105,
      "d": 222.87599999999657,
      "v": 104
    },
    {
      "midi": 67,
      "hit": false,
      "t": 58186.944000000105,
      "d": 222.87599999999657,
      "v": 72
    },
    {
      "midi": 57,
      "hit": false,
      "t": 58447.872000000105,
      "d": 222.87599999999657,
      "v": 101
    },
    {
      "midi": 61,
      "hit": false,
      "t": 58447.872000000105,
      "d": 222.87599999999657,
      "v": 116
    },
    {
      "midi": 64,
      "hit": false,
      "t": 58447.872000000105,
      "d": 222.87599999999657,
      "v": 104
    },
    {
      "midi": 69,
      "hit": false,
      "t": 58447.872000000105,
      "d": 222.87599999999657,
      "v": 72
    },
    {
      "midi": 57,
      "hit": false,
      "t": 58708.800000000105,
      "d": 222.87599999999657,
      "v": 105
    },
    {
      "midi": 61,
      "hit": false,
      "t": 58708.800000000105,
      "d": 222.87599999999657,
      "v": 110
    },
    {
      "midi": 64,
      "hit": false,
      "t": 58708.800000000105,
      "d": 222.87599999999657,
      "v": 99
    },
    {
      "midi": 69,
      "hit": false,
      "t": 58708.800000000105,
      "d": 222.87599999999657,
      "v": 63
    },
    {
      "midi": 57,
      "hit": false,
      "t": 58969.728000000105,
      "d": 222.87599999999657,
      "v": 101
    },
    {
      "midi": 61,
      "hit": false,
      "t": 58969.728000000105,
      "d": 222.87599999999657,
      "v": 116
    },
    {
      "midi": 64,
      "hit": false,
      "t": 58969.728000000105,
      "d": 222.87599999999657,
      "v": 99
    },
    {
      "midi": 69,
      "hit": false,
      "t": 58969.728000000105,
      "d": 222.87599999999657,
      "v": 63
    },
    {
      "midi": 57,
      "hit": false,
      "t": 59230.656000000105,
      "d": 222.87599999999657,
      "v": 105
    },
    {
      "midi": 61,
      "hit": false,
      "t": 59230.656000000105,
      "d": 222.87599999999657,
      "v": 116
    },
    {
      "midi": 64,
      "hit": false,
      "t": 59230.656000000105,
      "d": 222.87599999999657,
      "v": 90
    },
    {
      "midi": 69,
      "hit": false,
      "t": 59230.656000000105,
      "d": 222.87599999999657,
      "v": 63
    },
    {
      "midi": 57,
      "hit": false,
      "t": 59491.584000000104,
      "d": 222.87599999999657,
      "v": 101
    },
    {
      "midi": 61,
      "hit": false,
      "t": 59491.584000000104,
      "d": 222.87599999999657,
      "v": 116
    },
    {
      "midi": 64,
      "hit": false,
      "t": 59491.584000000104,
      "d": 222.87599999999657,
      "v": 99
    },
    {
      "midi": 69,
      "hit": false,
      "t": 59491.584000000104,
      "d": 222.87599999999657,
      "v": 63
    },
    {
      "midi": 57,
      "hit": false,
      "t": 59752.512000000104,
      "d": 222.87599999999657,
      "v": 101
    },
    {
      "midi": 61,
      "hit": false,
      "t": 59752.512000000104,
      "d": 222.87599999999657,
      "v": 116
    },
    {
      "midi": 64,
      "hit": false,
      "t": 59752.512000000104,
      "d": 222.87599999999657,
      "v": 99
    },
    {
      "midi": 69,
      "hit": false,
      "t": 59752.512000000104,
      "d": 222.87599999999657,
      "v": 63
    },
    {
      "midi": 57,
      "hit": false,
      "t": 60013.440000000104,
      "d": 222.87599999999657,
      "v": 96
    },
    {
      "midi": 61,
      "hit": false,
      "t": 60013.440000000104,
      "d": 222.87599999999657,
      "v": 116
    },
    {
      "midi": 64,
      "hit": false,
      "t": 60013.440000000104,
      "d": 222.87599999999657,
      "v": 104
    },
    {
      "midi": 69,
      "hit": false,
      "t": 60013.440000000104,
      "d": 222.87599999999657,
      "v": 59
    },
    {
      "midi": 57,
      "hit": false,
      "t": 60274.368000000104,
      "d": 222.87599999999657,
      "v": 92
    },
    {
      "midi": 61,
      "hit": false,
      "t": 60274.368000000104,
      "d": 222.87599999999657,
      "v": 110
    },
    {
      "midi": 64,
      "hit": false,
      "t": 60274.368000000104,
      "d": 222.87599999999657,
      "v": 104
    },
    {
      "midi": 69,
      "hit": false,
      "t": 60274.368000000104,
      "d": 222.87599999999657,
      "v": 68
    },
    {
      "midi": 55,
      "hit": false,
      "t": 60535.296000000104,
      "d": 222.87599999999657,
      "v": 116
    },
    {
      "midi": 59,
      "hit": false,
      "t": 60535.296000000104,
      "d": 222.87599999999657,
      "v": 110
    },
    {
      "midi": 62,
      "hit": false,
      "t": 60535.296000000104,
      "d": 222.87599999999657,
      "v": 99
    },
    {
      "midi": 67,
      "hit": false,
      "t": 60535.296000000104,
      "d": 222.87599999999657,
      "v": 72
    },
    {
      "midi": 55,
      "hit": false,
      "t": 60796.224000000104,
      "d": 222.87599999999657,
      "v": 110
    },
    {
      "midi": 59,
      "hit": false,
      "t": 60796.224000000104,
      "d": 222.87599999999657,
      "v": 110
    },
    {
      "midi": 62,
      "hit": false,
      "t": 60796.224000000104,
      "d": 222.87599999999657,
      "v": 104
    },
    {
      "midi": 67,
      "hit": false,
      "t": 60796.224000000104,
      "d": 222.87599999999657,
      "v": 72
    },
    {
      "midi": 55,
      "hit": false,
      "t": 61057.152000000104,
      "d": 222.87599999999657,
      "v": 116
    },
    {
      "midi": 59,
      "hit": false,
      "t": 61057.152000000104,
      "d": 222.87599999999657,
      "v": 105
    },
    {
      "midi": 62,
      "hit": false,
      "t": 61057.152000000104,
      "d": 222.87599999999657,
      "v": 104
    },
    {
      "midi": 67,
      "hit": false,
      "t": 61057.152000000104,
      "d": 222.87599999999657,
      "v": 63
    },
    {
      "midi": 55,
      "hit": false,
      "t": 61318.0800000001,
      "d": 222.87599999999657,
      "v": 116
    },
    {
      "midi": 59,
      "hit": false,
      "t": 61318.0800000001,
      "d": 222.87599999999657,
      "v": 110
    },
    {
      "midi": 62,
      "hit": false,
      "t": 61318.0800000001,
      "d": 222.87599999999657,
      "v": 104
    },
    {
      "midi": 67,
      "hit": false,
      "t": 61318.0800000001,
      "d": 222.87599999999657,
      "v": 68
    },
    {
      "midi": 55,
      "hit": false,
      "t": 61579.0080000001,
      "d": 222.87599999999657,
      "v": 116
    },
    {
      "midi": 59,
      "hit": false,
      "t": 61579.0080000001,
      "d": 222.87599999999657,
      "v": 105
    },
    {
      "midi": 62,
      "hit": false,
      "t": 61579.0080000001,
      "d": 222.87599999999657,
      "v": 104
    },
    {
      "midi": 67,
      "hit": false,
      "t": 61579.0080000001,
      "d": 222.87599999999657,
      "v": 68
    },
    {
      "midi": 55,
      "hit": false,
      "t": 61839.9360000001,
      "d": 222.87599999999657,
      "v": 116
    },
    {
      "midi": 59,
      "hit": false,
      "t": 61839.9360000001,
      "d": 222.87599999999657,
      "v": 110
    },
    {
      "midi": 62,
      "hit": false,
      "t": 61839.9360000001,
      "d": 222.87599999999657,
      "v": 104
    },
    {
      "midi": 67,
      "hit": false,
      "t": 61839.9360000001,
      "d": 222.87599999999657,
      "v": 72
    },
    {
      "midi": 55,
      "hit": false,
      "t": 62100.8640000001,
      "d": 222.87599999999657,
      "v": 122
    },
    {
      "midi": 59,
      "hit": false,
      "t": 62100.8640000001,
      "d": 222.87599999999657,
      "v": 110
    },
    {
      "midi": 62,
      "hit": false,
      "t": 62100.8640000001,
      "d": 222.87599999999657,
      "v": 110
    },
    {
      "midi": 67,
      "hit": false,
      "t": 62100.8640000001,
      "d": 222.87599999999657,
      "v": 72
    },
    {
      "midi": 55,
      "hit": false,
      "t": 62361.7920000001,
      "d": 222.87599999999657,
      "v": 122
    },
    {
      "midi": 59,
      "hit": false,
      "t": 62361.7920000001,
      "d": 222.87599999999657,
      "v": 110
    },
    {
      "midi": 62,
      "hit": false,
      "t": 62361.7920000001,
      "d": 222.87599999999657,
      "v": 104
    },
    {
      "midi": 67,
      "hit": false,
      "t": 62361.7920000001,
      "d": 222.87599999999657,
      "v": 68
    },
    {
      "midi": 57,
      "hit": false,
      "t": 62622.7200000001,
      "d": 222.87599999999657,
      "v": 96
    },
    {
      "midi": 61,
      "hit": false,
      "t": 62622.7200000001,
      "d": 222.87599999999657,
      "v": 116
    },
    {
      "midi": 64,
      "hit": false,
      "t": 62622.7200000001,
      "d": 222.87599999999657,
      "v": 104
    },
    {
      "midi": 69,
      "hit": false,
      "t": 62622.7200000001,
      "d": 222.87599999999657,
      "v": 72
    },
    {
      "midi": 57,
      "hit": false,
      "t": 62883.6480000001,
      "d": 222.87599999999657,
      "v": 105
    },
    {
      "midi": 61,
      "hit": false,
      "t": 62883.6480000001,
      "d": 222.87599999999657,
      "v": 122
    },
    {
      "midi": 64,
      "hit": false,
      "t": 62883.6480000001,
      "d": 222.87599999999657,
      "v": 99
    },
    {
      "midi": 69,
      "hit": false,
      "t": 62883.6480000001,
      "d": 222.87599999999657,
      "v": 59
    },
    {
      "midi": 57,
      "hit": false,
      "t": 63144.5760000001,
      "d": 222.87599999999657,
      "v": 96
    },
    {
      "midi": 61,
      "hit": false,
      "t": 63144.5760000001,
      "d": 222.87599999999657,
      "v": 116
    },
    {
      "midi": 64,
      "hit": false,
      "t": 63144.5760000001,
      "d": 222.87599999999657,
      "v": 104
    },
    {
      "midi": 69,
      "hit": false,
      "t": 63144.5760000001,
      "d": 222.87599999999657,
      "v": 68
    },
    {
      "midi": 57,
      "hit": false,
      "t": 63405.5040000001,
      "d": 222.87599999999657,
      "v": 101
    },
    {
      "midi": 61,
      "hit": false,
      "t": 63405.5040000001,
      "d": 222.87599999999657,
      "v": 122
    },
    {
      "midi": 64,
      "hit": false,
      "t": 63405.5040000001,
      "d": 222.87599999999657,
      "v": 99
    },
    {
      "midi": 69,
      "hit": false,
      "t": 63405.5040000001,
      "d": 222.87599999999657,
      "v": 63
    },
    {
      "midi": 57,
      "hit": false,
      "t": 63666.4320000001,
      "d": 222.87599999999657,
      "v": 105
    },
    {
      "midi": 61,
      "hit": false,
      "t": 63666.4320000001,
      "d": 222.87599999999657,
      "v": 122
    },
    {
      "midi": 64,
      "hit": false,
      "t": 63666.4320000001,
      "d": 222.87599999999657,
      "v": 110
    },
    {
      "midi": 69,
      "hit": false,
      "t": 63666.4320000001,
      "d": 222.87599999999657,
      "v": 77
    },
    {
      "midi": 57,
      "hit": false,
      "t": 63927.3600000001,
      "d": 222.87599999999657,
      "v": 101
    },
    {
      "midi": 61,
      "hit": false,
      "t": 63927.3600000001,
      "d": 222.87599999999657,
      "v": 116
    },
    {
      "midi": 64,
      "hit": false,
      "t": 63927.3600000001,
      "d": 222.87599999999657,
      "v": 99
    },
    {
      "midi": 69,
      "hit": false,
      "t": 63927.3600000001,
      "d": 222.87599999999657,
      "v": 72
    },
    {
      "midi": 57,
      "hit": false,
      "t": 64188.2880000001,
      "d": 222.87599999999657,
      "v": 96
    },
    {
      "midi": 61,
      "hit": false,
      "t": 64188.2880000001,
      "d": 222.87599999999657,
      "v": 116
    },
    {
      "midi": 64,
      "hit": false,
      "t": 64188.2880000001,
      "d": 222.87599999999657,
      "v": 99
    },
    {
      "midi": 69,
      "hit": false,
      "t": 64188.2880000001,
      "d": 222.87599999999657,
      "v": 72
    },
    {
      "midi": 57,
      "hit": false,
      "t": 64449.2160000001,
      "d": 222.87599999999657,
      "v": 110
    },
    {
      "midi": 61,
      "hit": false,
      "t": 64449.2160000001,
      "d": 222.87599999999657,
      "v": 116
    },
    {
      "midi": 64,
      "hit": false,
      "t": 64449.2160000001,
      "d": 222.87599999999657,
      "v": 104
    },
    {
      "midi": 69,
      "hit": false,
      "t": 64449.2160000001,
      "d": 222.87599999999657,
      "v": 68
    },
    {
      "midi": 55,
      "hit": false,
      "t": 64710.1440000001,
      "d": 222.87599999999657,
      "v": 116
    },
    {
      "midi": 59,
      "hit": false,
      "t": 64710.1440000001,
      "d": 222.87599999999657,
      "v": 116
    },
    {
      "midi": 62,
      "hit": false,
      "t": 64710.1440000001,
      "d": 222.87599999999657,
      "v": 104
    },
    {
      "midi": 67,
      "hit": false,
      "t": 64710.1440000001,
      "d": 222.87599999999657,
      "v": 72
    },
    {
      "midi": 55,
      "hit": false,
      "t": 64971.0720000001,
      "d": 222.87599999999657,
      "v": 122
    },
    {
      "midi": 59,
      "hit": false,
      "t": 64971.0720000001,
      "d": 222.87599999999657,
      "v": 110
    },
    {
      "midi": 62,
      "hit": false,
      "t": 64971.0720000001,
      "d": 222.87599999999657,
      "v": 110
    },
    {
      "midi": 67,
      "hit": false,
      "t": 64971.0720000001,
      "d": 222.87599999999657,
      "v": 63
    },
    {
      "midi": 55,
      "hit": false,
      "t": 65232.0000000001,
      "d": 222.87599999999657,
      "v": 122
    },
    {
      "midi": 59,
      "hit": false,
      "t": 65232.0000000001,
      "d": 222.87599999999657,
      "v": 116
    },
    {
      "midi": 62,
      "hit": false,
      "t": 65232.0000000001,
      "d": 222.87599999999657,
      "v": 110
    },
    {
      "midi": 67,
      "hit": false,
      "t": 65232.0000000001,
      "d": 222.87599999999657,
      "v": 72
    },
    {
      "midi": 55,
      "hit": false,
      "t": 65492.9280000001,
      "d": 222.87600000000384,
      "v": 116
    },
    {
      "midi": 59,
      "hit": false,
      "t": 65492.9280000001,
      "d": 222.87600000000384,
      "v": 116
    },
    {
      "midi": 62,
      "hit": false,
      "t": 65492.9280000001,
      "d": 222.87600000000384,
      "v": 104
    },
    {
      "midi": 67,
      "hit": false,
      "t": 65492.9280000001,
      "d": 222.87600000000384,
      "v": 72
    },
    {
      "midi": 55,
      "hit": false,
      "t": 65753.8560000001,
      "d": 222.87600000000384,
      "v": 110
    },
    {
      "midi": 59,
      "hit": false,
      "t": 65753.8560000001,
      "d": 222.87600000000384,
      "v": 110
    },
    {
      "midi": 62,
      "hit": false,
      "t": 65753.8560000001,
      "d": 222.87600000000384,
      "v": 104
    },
    {
      "midi": 67,
      "hit": false,
      "t": 65753.8560000001,
      "d": 222.87600000000384,
      "v": 63
    },
    {
      "midi": 55,
      "hit": false,
      "t": 66014.7840000001,
      "d": 222.87600000000384,
      "v": 116
    },
    {
      "midi": 59,
      "hit": false,
      "t": 66014.7840000001,
      "d": 222.87600000000384,
      "v": 110
    },
    {
      "midi": 62,
      "hit": false,
      "t": 66014.7840000001,
      "d": 222.87600000000384,
      "v": 110
    },
    {
      "midi": 67,
      "hit": false,
      "t": 66014.7840000001,
      "d": 222.87600000000384,
      "v": 72
    },
    {
      "midi": 55,
      "hit": false,
      "t": 66275.7120000001,
      "d": 222.87600000000384,
      "v": 116
    },
    {
      "midi": 59,
      "hit": false,
      "t": 66275.7120000001,
      "d": 222.87600000000384,
      "v": 105
    },
    {
      "midi": 62,
      "hit": false,
      "t": 66275.7120000001,
      "d": 222.87600000000384,
      "v": 104
    },
    {
      "midi": 67,
      "hit": false,
      "t": 66275.7120000001,
      "d": 222.87600000000384,
      "v": 72
    },
    {
      "midi": 55,
      "hit": false,
      "t": 66536.6400000001,
      "d": 222.87600000000384,
      "v": 122
    },
    {
      "midi": 59,
      "hit": false,
      "t": 66536.6400000001,
      "d": 222.87600000000384,
      "v": 110
    },
    {
      "midi": 62,
      "hit": false,
      "t": 66536.6400000001,
      "d": 222.87600000000384,
      "v": 110
    },
    {
      "midi": 67,
      "hit": false,
      "t": 66536.6400000001,
      "d": 222.87600000000384,
      "v": 72
    },
    {
      "midi": 62,
      "hit": false,
      "t": 66797.5680000001,
      "d": 1.087199999994482,
      "v": 99
    },
    {
      "midi": 55,
      "hit": false,
      "t": 66797.5680000001,
      "d": 222.8759999999893,
      "v": 92
    },
    {
      "midi": 59,
      "hit": false,
      "t": 66797.5680000001,
      "d": 222.8759999999893,
      "v": 101
    },
    {
      "midi": 67,
      "hit": false,
      "t": 66797.5680000001,
      "d": 222.8759999999893,
      "v": 63
    },
    {
      "midi": 62,
      "hit": false,
      "t": 67058.49600000009,
      "d": 1.087199999994482,
      "v": 104
    },
    {
      "midi": 55,
      "hit": false,
      "t": 67058.49600000009,
      "d": 222.8759999999893,
      "v": 92
    },
    {
      "midi": 59,
      "hit": false,
      "t": 67058.49600000009,
      "d": 222.8759999999893,
      "v": 101
    },
    {
      "midi": 67,
      "hit": false,
      "t": 67058.49600000009,
      "d": 222.8759999999893,
      "v": 63
    },
    {
      "midi": 62,
      "hit": false,
      "t": 67319.42400000007,
      "d": 1.087199999994482,
      "v": 104
    },
    {
      "midi": 55,
      "hit": false,
      "t": 67319.42400000007,
      "d": 222.8759999999893,
      "v": 96
    },
    {
      "midi": 59,
      "hit": false,
      "t": 67319.42400000007,
      "d": 222.8759999999893,
      "v": 92
    },
    {
      "midi": 67,
      "hit": false,
      "t": 67319.42400000007,
      "d": 222.8759999999893,
      "v": 72
    },
    {
      "midi": 62,
      "hit": false,
      "t": 67580.35200000006,
      "d": 1.087199999994482,
      "v": 99
    },
    {
      "midi": 55,
      "hit": false,
      "t": 67580.35200000006,
      "d": 222.8759999999893,
      "v": 88
    },
    {
      "midi": 59,
      "hit": false,
      "t": 67580.35200000006,
      "d": 222.8759999999893,
      "v": 96
    },
    {
      "midi": 67,
      "hit": false,
      "t": 67580.35200000006,
      "d": 222.8759999999893,
      "v": 63
    },
    {
      "midi": 62,
      "hit": false,
      "t": 67841.28000000004,
      "d": 1.087199999994482,
      "v": 104
    },
    {
      "midi": 55,
      "hit": false,
      "t": 67841.28000000004,
      "d": 222.8759999999893,
      "v": 96
    },
    {
      "midi": 59,
      "hit": false,
      "t": 67841.28000000004,
      "d": 222.8759999999893,
      "v": 101
    },
    {
      "midi": 67,
      "hit": false,
      "t": 67841.28000000004,
      "d": 222.8759999999893,
      "v": 68
    },
    {
      "midi": 62,
      "hit": false,
      "t": 68102.20800000003,
      "d": 1.087199999994482,
      "v": 99
    },
    {
      "midi": 55,
      "hit": false,
      "t": 68102.20800000003,
      "d": 222.8759999999893,
      "v": 96
    },
    {
      "midi": 59,
      "hit": false,
      "t": 68102.20800000003,
      "d": 222.8759999999893,
      "v": 105
    },
    {
      "midi": 67,
      "hit": false,
      "t": 68102.20800000003,
      "d": 222.8759999999893,
      "v": 63
    },
    {
      "midi": 62,
      "hit": false,
      "t": 68363.13600000001,
      "d": 1.087199999994482,
      "v": 104
    },
    {
      "midi": 55,
      "hit": false,
      "t": 68363.13600000001,
      "d": 222.8759999999893,
      "v": 96
    },
    {
      "midi": 59,
      "hit": false,
      "t": 68363.13600000001,
      "d": 222.8759999999893,
      "v": 96
    },
    {
      "midi": 67,
      "hit": false,
      "t": 68363.13600000001,
      "d": 222.8759999999893,
      "v": 63
    },
    {
      "midi": 62,
      "hit": false,
      "t": 68624.064,
      "d": 1.087199999994482,
      "v": 104
    },
    {
      "midi": 55,
      "hit": false,
      "t": 68624.064,
      "d": 222.8759999999893,
      "v": 96
    },
    {
      "midi": 59,
      "hit": false,
      "t": 68624.064,
      "d": 222.8759999999893,
      "v": 105
    },
    {
      "midi": 67,
      "hit": false,
      "t": 68624.064,
      "d": 222.8759999999893,
      "v": 72
    },
    {
      "midi": 62,
      "hit": false,
      "t": 68884.99199999998,
      "d": 1.087199999994482,
      "v": 105
    },
    {
      "midi": 57,
      "hit": false,
      "t": 68884.99199999998,
      "d": 222.8759999999893,
      "v": 92
    },
    {
      "midi": 67,
      "hit": false,
      "t": 68884.99199999998,
      "d": 222.8759999999893,
      "v": 63
    },
    {
      "midi": 62,
      "hit": false,
      "t": 69145.91999999997,
      "d": 1.087199999994482,
      "v": 105
    },
    {
      "midi": 57,
      "hit": false,
      "t": 69145.91999999997,
      "d": 222.8759999999893,
      "v": 96
    },
    {
      "midi": 67,
      "hit": false,
      "t": 69145.91999999997,
      "d": 222.8759999999893,
      "v": 68
    },
    {
      "midi": 62,
      "hit": false,
      "t": 69406.84799999995,
      "d": 1.087199999994482,
      "v": 104
    },
    {
      "midi": 57,
      "hit": false,
      "t": 69406.84799999995,
      "d": 222.8759999999893,
      "v": 92
    },
    {
      "midi": 67,
      "hit": false,
      "t": 69406.84799999995,
      "d": 222.8759999999893,
      "v": 63
    },
    {
      "midi": 62,
      "hit": false,
      "t": 69667.77599999994,
      "d": 1.087199999994482,
      "v": 110
    },
    {
      "midi": 57,
      "hit": false,
      "t": 69667.77599999994,
      "d": 222.8759999999893,
      "v": 101
    },
    {
      "midi": 67,
      "hit": false,
      "t": 69667.77599999994,
      "d": 222.8759999999893,
      "v": 68
    },
    {
      "midi": 61,
      "hit": false,
      "t": 69928.70399999993,
      "d": 1.087199999994482,
      "v": 116
    },
    {
      "midi": 57,
      "hit": false,
      "t": 69928.70399999993,
      "d": 222.8759999999893,
      "v": 96
    },
    {
      "midi": 67,
      "hit": false,
      "t": 69928.70399999993,
      "d": 222.8759999999893,
      "v": 77
    },
    {
      "midi": 61,
      "hit": false,
      "t": 70189.63199999991,
      "d": 1.087199999994482,
      "v": 116
    },
    {
      "midi": 57,
      "hit": false,
      "t": 70189.63199999991,
      "d": 222.8759999999893,
      "v": 96
    },
    {
      "midi": 67,
      "hit": false,
      "t": 70189.63199999991,
      "d": 222.8759999999893,
      "v": 77
    },
    {
      "midi": 61,
      "hit": false,
      "t": 70450.5599999999,
      "d": 1.087199999994482,
      "v": 116
    },
    {
      "midi": 57,
      "hit": false,
      "t": 70450.5599999999,
      "d": 222.8759999999893,
      "v": 96
    },
    {
      "midi": 67,
      "hit": false,
      "t": 70450.5599999999,
      "d": 222.8759999999893,
      "v": 83
    },
    {
      "midi": 61,
      "hit": false,
      "t": 70711.48799999988,
      "d": 1.087199999994482,
      "v": 116
    },
    {
      "midi": 57,
      "hit": false,
      "t": 70711.48799999988,
      "d": 222.8759999999893,
      "v": 96
    },
    {
      "midi": 67,
      "hit": false,
      "t": 70711.48799999988,
      "d": 222.8759999999893,
      "v": 89
    },
    {
      "midi": 45,
      "hit": false,
      "t": 70972.41599999987,
      "d": 222.87600000000384,
      "v": 63
    },
    {
      "midi": 49,
      "hit": false,
      "t": 70972.41599999987,
      "d": 222.87600000000384,
      "v": 67
    },
    {
      "midi": 52,
      "hit": false,
      "t": 70972.41599999987,
      "d": 222.87600000000384,
      "v": 67
    },
    {
      "midi": 57,
      "hit": false,
      "t": 70972.41599999987,
      "d": 222.87600000000384,
      "v": 93
    },
    {
      "midi": 61,
      "hit": false,
      "t": 70972.41599999987,
      "d": 222.87600000000384,
      "v": 97
    },
    {
      "midi": 64,
      "hit": false,
      "t": 70972.41599999987,
      "d": 222.87600000000384,
      "v": 101
    },
    {
      "midi": 45,
      "hit": false,
      "t": 71233.34399999987,
      "d": 222.87600000000384,
      "v": 59
    },
    {
      "midi": 49,
      "hit": false,
      "t": 71233.34399999987,
      "d": 222.87600000000384,
      "v": 67
    },
    {
      "midi": 52,
      "hit": false,
      "t": 71233.34399999987,
      "d": 222.87600000000384,
      "v": 67
    },
    {
      "midi": 57,
      "hit": false,
      "t": 71233.34399999987,
      "d": 222.87600000000384,
      "v": 97
    },
    {
      "midi": 61,
      "hit": false,
      "t": 71233.34399999987,
      "d": 222.87600000000384,
      "v": 101
    },
    {
      "midi": 64,
      "hit": false,
      "t": 71233.34399999987,
      "d": 222.87600000000384,
      "v": 101
    },
    {
      "midi": 45,
      "hit": false,
      "t": 71494.27199999987,
      "d": 222.87600000000384,
      "v": 67
    },
    {
      "midi": 49,
      "hit": false,
      "t": 71494.27199999987,
      "d": 222.87600000000384,
      "v": 76
    },
    {
      "midi": 52,
      "hit": false,
      "t": 71494.27199999987,
      "d": 222.87600000000384,
      "v": 76
    },
    {
      "midi": 57,
      "hit": false,
      "t": 71494.27199999987,
      "d": 222.87600000000384,
      "v": 101
    },
    {
      "midi": 61,
      "hit": false,
      "t": 71494.27199999987,
      "d": 222.87600000000384,
      "v": 106
    },
    {
      "midi": 64,
      "hit": false,
      "t": 71494.27199999987,
      "d": 222.87600000000384,
      "v": 101
    },
    {
      "midi": 45,
      "hit": false,
      "t": 71755.19999999987,
      "d": 222.87600000000384,
      "v": 67
    },
    {
      "midi": 49,
      "hit": false,
      "t": 71755.19999999987,
      "d": 222.87600000000384,
      "v": 72
    },
    {
      "midi": 52,
      "hit": false,
      "t": 71755.19999999987,
      "d": 222.87600000000384,
      "v": 72
    },
    {
      "midi": 57,
      "hit": false,
      "t": 71755.19999999987,
      "d": 222.87600000000384,
      "v": 106
    },
    {
      "midi": 61,
      "hit": false,
      "t": 71755.19999999987,
      "d": 222.87600000000384,
      "v": 101
    },
    {
      "midi": 64,
      "hit": false,
      "t": 71755.19999999987,
      "d": 222.87600000000384,
      "v": 101
    },
    {
      "midi": 45,
      "hit": false,
      "t": 72016.12799999987,
      "d": 222.87600000000384,
      "v": 63
    },
    {
      "midi": 49,
      "hit": false,
      "t": 72016.12799999987,
      "d": 222.87600000000384,
      "v": 63
    },
    {
      "midi": 52,
      "hit": false,
      "t": 72016.12799999987,
      "d": 222.87600000000384,
      "v": 67
    },
    {
      "midi": 57,
      "hit": false,
      "t": 72016.12799999987,
      "d": 222.87600000000384,
      "v": 97
    },
    {
      "midi": 61,
      "hit": false,
      "t": 72016.12799999987,
      "d": 222.87600000000384,
      "v": 101
    },
    {
      "midi": 64,
      "hit": false,
      "t": 72016.12799999987,
      "d": 222.87600000000384,
      "v": 106
    },
    {
      "midi": 45,
      "hit": false,
      "t": 72277.05599999987,
      "d": 222.87600000000384,
      "v": 67
    },
    {
      "midi": 49,
      "hit": false,
      "t": 72277.05599999987,
      "d": 222.87600000000384,
      "v": 67
    },
    {
      "midi": 52,
      "hit": false,
      "t": 72277.05599999987,
      "d": 222.87600000000384,
      "v": 76
    },
    {
      "midi": 57,
      "hit": false,
      "t": 72277.05599999987,
      "d": 222.87600000000384,
      "v": 97
    },
    {
      "midi": 61,
      "hit": false,
      "t": 72277.05599999987,
      "d": 222.87600000000384,
      "v": 101
    },
    {
      "midi": 64,
      "hit": false,
      "t": 72277.05599999987,
      "d": 222.87600000000384,
      "v": 101
    },
    {
      "midi": 45,
      "hit": false,
      "t": 72537.98399999987,
      "d": 222.87600000000384,
      "v": 72
    },
    {
      "midi": 49,
      "hit": false,
      "t": 72537.98399999987,
      "d": 222.87600000000384,
      "v": 72
    },
    {
      "midi": 52,
      "hit": false,
      "t": 72537.98399999987,
      "d": 222.87600000000384,
      "v": 76
    },
    {
      "midi": 57,
      "hit": false,
      "t": 72537.98399999987,
      "d": 222.87600000000384,
      "v": 97
    },
    {
      "midi": 61,
      "hit": false,
      "t": 72537.98399999987,
      "d": 222.87600000000384,
      "v": 101
    },
    {
      "midi": 64,
      "hit": false,
      "t": 72537.98399999987,
      "d": 222.87600000000384,
      "v": 101
    },
    {
      "midi": 45,
      "hit": false,
      "t": 72798.91199999987,
      "d": 222.87600000000384,
      "v": 63
    },
    {
      "midi": 49,
      "hit": false,
      "t": 72798.91199999987,
      "d": 222.87600000000384,
      "v": 72
    },
    {
      "midi": 52,
      "hit": false,
      "t": 72798.91199999987,
      "d": 222.87600000000384,
      "v": 76
    },
    {
      "midi": 57,
      "hit": false,
      "t": 72798.91199999987,
      "d": 222.87600000000384,
      "v": 97
    },
    {
      "midi": 61,
      "hit": false,
      "t": 72798.91199999987,
      "d": 222.87600000000384,
      "v": 101
    },
    {
      "midi": 64,
      "hit": false,
      "t": 72798.91199999987,
      "d": 222.87600000000384,
      "v": 97
    },
    {
      "midi": 47,
      "hit": false,
      "t": 73059.83999999987,
      "d": 222.87600000000384,
      "v": 63
    },
    {
      "midi": 50,
      "hit": false,
      "t": 73059.83999999987,
      "d": 222.87600000000384,
      "v": 72
    },
    {
      "midi": 54,
      "hit": false,
      "t": 73059.83999999987,
      "d": 222.87600000000384,
      "v": 63
    },
    {
      "midi": 59,
      "hit": false,
      "t": 73059.83999999987,
      "d": 222.87600000000384,
      "v": 101
    },
    {
      "midi": 62,
      "hit": false,
      "t": 73059.83999999987,
      "d": 222.87600000000384,
      "v": 101
    },
    {
      "midi": 66,
      "hit": false,
      "t": 73059.83999999987,
      "d": 222.87600000000384,
      "v": 77
    },
    {
      "midi": 47,
      "hit": false,
      "t": 73320.76799999987,
      "d": 222.87600000000384,
      "v": 63
    },
    {
      "midi": 50,
      "hit": false,
      "t": 73320.76799999987,
      "d": 222.87600000000384,
      "v": 72
    },
    {
      "midi": 54,
      "hit": false,
      "t": 73320.76799999987,
      "d": 222.87600000000384,
      "v": 72
    },
    {
      "midi": 59,
      "hit": false,
      "t": 73320.76799999987,
      "d": 222.87600000000384,
      "v": 101
    },
    {
      "midi": 62,
      "hit": false,
      "t": 73320.76799999987,
      "d": 222.87600000000384,
      "v": 101
    },
    {
      "midi": 66,
      "hit": false,
      "t": 73320.76799999987,
      "d": 222.87600000000384,
      "v": 81
    },
    {
      "midi": 47,
      "hit": false,
      "t": 73581.69599999987,
      "d": 222.87600000000384,
      "v": 67
    },
    {
      "midi": 50,
      "hit": false,
      "t": 73581.69599999987,
      "d": 222.87600000000384,
      "v": 72
    },
    {
      "midi": 54,
      "hit": false,
      "t": 73581.69599999987,
      "d": 222.87600000000384,
      "v": 72
    },
    {
      "midi": 59,
      "hit": false,
      "t": 73581.69599999987,
      "d": 222.87600000000384,
      "v": 97
    },
    {
      "midi": 62,
      "hit": false,
      "t": 73581.69599999987,
      "d": 222.87600000000384,
      "v": 101
    },
    {
      "midi": 66,
      "hit": false,
      "t": 73581.69599999987,
      "d": 222.87600000000384,
      "v": 86
    },
    {
      "midi": 47,
      "hit": false,
      "t": 73842.62399999987,
      "d": 222.87600000000384,
      "v": 67
    },
    {
      "midi": 50,
      "hit": false,
      "t": 73842.62399999987,
      "d": 222.87600000000384,
      "v": 72
    },
    {
      "midi": 54,
      "hit": false,
      "t": 73842.62399999987,
      "d": 222.87600000000384,
      "v": 72
    },
    {
      "midi": 59,
      "hit": false,
      "t": 73842.62399999987,
      "d": 222.87600000000384,
      "v": 101
    },
    {
      "midi": 62,
      "hit": false,
      "t": 73842.62399999987,
      "d": 222.87600000000384,
      "v": 110
    },
    {
      "midi": 66,
      "hit": false,
      "t": 73842.62399999987,
      "d": 222.87600000000384,
      "v": 90
    },
    {
      "midi": 47,
      "hit": false,
      "t": 74103.55199999987,
      "d": 222.87600000000384,
      "v": 72
    },
    {
      "midi": 50,
      "hit": false,
      "t": 74103.55199999987,
      "d": 222.87600000000384,
      "v": 81
    },
    {
      "midi": 54,
      "hit": false,
      "t": 74103.55199999987,
      "d": 222.87600000000384,
      "v": 72
    },
    {
      "midi": 59,
      "hit": false,
      "t": 74103.55199999987,
      "d": 222.87600000000384,
      "v": 101
    },
    {
      "midi": 62,
      "hit": false,
      "t": 74103.55199999987,
      "d": 222.87600000000384,
      "v": 106
    },
    {
      "midi": 66,
      "hit": false,
      "t": 74103.55199999987,
      "d": 222.87600000000384,
      "v": 90
    },
    {
      "midi": 47,
      "hit": false,
      "t": 74364.47999999986,
      "d": 222.87600000000384,
      "v": 67
    },
    {
      "midi": 50,
      "hit": false,
      "t": 74364.47999999986,
      "d": 222.87600000000384,
      "v": 81
    },
    {
      "midi": 54,
      "hit": false,
      "t": 74364.47999999986,
      "d": 222.87600000000384,
      "v": 72
    },
    {
      "midi": 59,
      "hit": false,
      "t": 74364.47999999986,
      "d": 222.87600000000384,
      "v": 97
    },
    {
      "midi": 62,
      "hit": false,
      "t": 74364.47999999986,
      "d": 222.87600000000384,
      "v": 106
    },
    {
      "midi": 66,
      "hit": false,
      "t": 74364.47999999986,
      "d": 222.87600000000384,
      "v": 99
    },
    {
      "midi": 47,
      "hit": false,
      "t": 74625.40799999986,
      "d": 222.87600000000384,
      "v": 72
    },
    {
      "midi": 50,
      "hit": false,
      "t": 74625.40799999986,
      "d": 222.87600000000384,
      "v": 76
    },
    {
      "midi": 54,
      "hit": false,
      "t": 74625.40799999986,
      "d": 222.87600000000384,
      "v": 67
    },
    {
      "midi": 59,
      "hit": false,
      "t": 74625.40799999986,
      "d": 222.87600000000384,
      "v": 101
    },
    {
      "midi": 62,
      "hit": false,
      "t": 74625.40799999986,
      "d": 222.87600000000384,
      "v": 106
    },
    {
      "midi": 66,
      "hit": false,
      "t": 74625.40799999986,
      "d": 222.87600000000384,
      "v": 94
    },
    {
      "midi": 47,
      "hit": false,
      "t": 74886.33599999986,
      "d": 222.87600000000384,
      "v": 76
    },
    {
      "midi": 50,
      "hit": false,
      "t": 74886.33599999986,
      "d": 222.87600000000384,
      "v": 87
    },
    {
      "midi": 54,
      "hit": false,
      "t": 74886.33599999986,
      "d": 222.87600000000384,
      "v": 67
    },
    {
      "midi": 59,
      "hit": false,
      "t": 74886.33599999986,
      "d": 222.87600000000384,
      "v": 101
    },
    {
      "midi": 62,
      "hit": false,
      "t": 74886.33599999986,
      "d": 222.87600000000384,
      "v": 110
    },
    {
      "midi": 66,
      "hit": false,
      "t": 74886.33599999986,
      "d": 222.87600000000384,
      "v": 94
    },
    {
      "midi": 47,
      "hit": false,
      "t": 75147.26399999986,
      "d": 222.87600000000384,
      "v": 67
    },
    {
      "midi": 50,
      "hit": false,
      "t": 75147.26399999986,
      "d": 222.87600000000384,
      "v": 76
    },
    {
      "midi": 55,
      "hit": false,
      "t": 75147.26399999986,
      "d": 222.87600000000384,
      "v": 74
    },
    {
      "midi": 59,
      "hit": false,
      "t": 75147.26399999986,
      "d": 222.87600000000384,
      "v": 97
    },
    {
      "midi": 62,
      "hit": false,
      "t": 75147.26399999986,
      "d": 222.87600000000384,
      "v": 106
    },
    {
      "midi": 66,
      "hit": false,
      "t": 75147.26399999986,
      "d": 222.87600000000384,
      "v": 94
    },
    {
      "midi": 47,
      "hit": false,
      "t": 75408.19199999986,
      "d": 222.87600000000384,
      "v": 76
    },
    {
      "midi": 50,
      "hit": false,
      "t": 75408.19199999986,
      "d": 222.87600000000384,
      "v": 81
    },
    {
      "midi": 55,
      "hit": false,
      "t": 75408.19199999986,
      "d": 222.87600000000384,
      "v": 70
    },
    {
      "midi": 59,
      "hit": false,
      "t": 75408.19199999986,
      "d": 222.87600000000384,
      "v": 106
    },
    {
      "midi": 62,
      "hit": false,
      "t": 75408.19199999986,
      "d": 222.87600000000384,
      "v": 115
    },
    {
      "midi": 66,
      "hit": false,
      "t": 75408.19199999986,
      "d": 222.87600000000384,
      "v": 94
    },
    {
      "midi": 47,
      "hit": false,
      "t": 75669.11999999986,
      "d": 222.87600000000384,
      "v": 67
    },
    {
      "midi": 50,
      "hit": false,
      "t": 75669.11999999986,
      "d": 222.87600000000384,
      "v": 76
    },
    {
      "midi": 55,
      "hit": false,
      "t": 75669.11999999986,
      "d": 222.87600000000384,
      "v": 74
    },
    {
      "midi": 59,
      "hit": false,
      "t": 75669.11999999986,
      "d": 222.87600000000384,
      "v": 101
    },
    {
      "midi": 62,
      "hit": false,
      "t": 75669.11999999986,
      "d": 222.87600000000384,
      "v": 101
    },
    {
      "midi": 66,
      "hit": false,
      "t": 75669.11999999986,
      "d": 222.87600000000384,
      "v": 94
    },
    {
      "midi": 47,
      "hit": false,
      "t": 75930.04799999986,
      "d": 222.87600000000384,
      "v": 67
    },
    {
      "midi": 50,
      "hit": false,
      "t": 75930.04799999986,
      "d": 222.87600000000384,
      "v": 76
    },
    {
      "midi": 55,
      "hit": false,
      "t": 75930.04799999986,
      "d": 222.87600000000384,
      "v": 74
    },
    {
      "midi": 59,
      "hit": false,
      "t": 75930.04799999986,
      "d": 222.87600000000384,
      "v": 97
    },
    {
      "midi": 62,
      "hit": false,
      "t": 75930.04799999986,
      "d": 222.87600000000384,
      "v": 106
    },
    {
      "midi": 66,
      "hit": false,
      "t": 75930.04799999986,
      "d": 222.87600000000384,
      "v": 94
    },
    {
      "midi": 47,
      "hit": false,
      "t": 76190.97599999986,
      "d": 222.87600000000384,
      "v": 67
    },
    {
      "midi": 50,
      "hit": false,
      "t": 76190.97599999986,
      "d": 222.87600000000384,
      "v": 72
    },
    {
      "midi": 55,
      "hit": false,
      "t": 76190.97599999986,
      "d": 222.87600000000384,
      "v": 66
    },
    {
      "midi": 59,
      "hit": false,
      "t": 76190.97599999986,
      "d": 222.87600000000384,
      "v": 110
    },
    {
      "midi": 62,
      "hit": false,
      "t": 76190.97599999986,
      "d": 222.87600000000384,
      "v": 115
    },
    {
      "midi": 66,
      "hit": false,
      "t": 76190.97599999986,
      "d": 222.87600000000384,
      "v": 99
    },
    {
      "midi": 47,
      "hit": false,
      "t": 76451.90399999986,
      "d": 222.87600000000384,
      "v": 72
    },
    {
      "midi": 50,
      "hit": false,
      "t": 76451.90399999986,
      "d": 222.87600000000384,
      "v": 76
    },
    {
      "midi": 55,
      "hit": false,
      "t": 76451.90399999986,
      "d": 222.87600000000384,
      "v": 70
    },
    {
      "midi": 59,
      "hit": false,
      "t": 76451.90399999986,
      "d": 222.87600000000384,
      "v": 106
    },
    {
      "midi": 62,
      "hit": false,
      "t": 76451.90399999986,
      "d": 222.87600000000384,
      "v": 115
    },
    {
      "midi": 66,
      "hit": false,
      "t": 76451.90399999986,
      "d": 222.87600000000384,
      "v": 90
    },
    {
      "midi": 47,
      "hit": false,
      "t": 76712.83199999986,
      "d": 222.87600000000384,
      "v": 81
    },
    {
      "midi": 50,
      "hit": false,
      "t": 76712.83199999986,
      "d": 222.87600000000384,
      "v": 81
    },
    {
      "midi": 55,
      "hit": false,
      "t": 76712.83199999986,
      "d": 222.87600000000384,
      "v": 74
    },
    {
      "midi": 59,
      "hit": false,
      "t": 76712.83199999986,
      "d": 222.87600000000384,
      "v": 101
    },
    {
      "midi": 62,
      "hit": false,
      "t": 76712.83199999986,
      "d": 222.87600000000384,
      "v": 121
    },
    {
      "midi": 66,
      "hit": false,
      "t": 76712.83199999986,
      "d": 222.87600000000384,
      "v": 94
    },
    {
      "midi": 47,
      "hit": false,
      "t": 76973.75999999986,
      "d": 222.87600000000384,
      "v": 81
    },
    {
      "midi": 50,
      "hit": false,
      "t": 76973.75999999986,
      "d": 222.87600000000384,
      "v": 87
    },
    {
      "midi": 55,
      "hit": false,
      "t": 76973.75999999986,
      "d": 222.87600000000384,
      "v": 79
    },
    {
      "midi": 59,
      "hit": false,
      "t": 76973.75999999986,
      "d": 222.87600000000384,
      "v": 106
    },
    {
      "midi": 62,
      "hit": false,
      "t": 76973.75999999986,
      "d": 222.87600000000384,
      "v": 110
    },
    {
      "midi": 66,
      "hit": false,
      "t": 76973.75999999986,
      "d": 222.87600000000384,
      "v": 99
    },
    {
      "midi": 57,
      "hit": false,
      "t": 77234.68799999986,
      "d": 1.087199999994482,
      "v": 101
    },
    {
      "midi": 50,
      "hit": false,
      "t": 77234.68799999986,
      "d": 222.8759999999893,
      "v": 67
    },
    {
      "midi": 52,
      "hit": false,
      "t": 77234.68799999986,
      "d": 222.8759999999893,
      "v": 76
    },
    {
      "midi": 62,
      "hit": false,
      "t": 77234.68799999986,
      "d": 222.8759999999893,
      "v": 97
    },
    {
      "midi": 66,
      "hit": false,
      "t": 77234.68799999986,
      "d": 222.8759999999893,
      "v": 81
    },
    {
      "midi": 57,
      "hit": false,
      "t": 77495.61599999985,
      "d": 1.087199999994482,
      "v": 93
    },
    {
      "midi": 50,
      "hit": false,
      "t": 77495.61599999985,
      "d": 222.8759999999893,
      "v": 67
    },
    {
      "midi": 52,
      "hit": false,
      "t": 77495.61599999985,
      "d": 222.8759999999893,
      "v": 81
    },
    {
      "midi": 62,
      "hit": false,
      "t": 77495.61599999985,
      "d": 222.8759999999893,
      "v": 101
    },
    {
      "midi": 66,
      "hit": false,
      "t": 77495.61599999985,
      "d": 222.8759999999893,
      "v": 86
    },
    {
      "midi": 57,
      "hit": false,
      "t": 77756.54399999983,
      "d": 1.087199999994482,
      "v": 93
    },
    {
      "midi": 50,
      "hit": false,
      "t": 77756.54399999983,
      "d": 222.8759999999893,
      "v": 67
    },
    {
      "midi": 52,
      "hit": false,
      "t": 77756.54399999983,
      "d": 222.8759999999893,
      "v": 76
    },
    {
      "midi": 62,
      "hit": false,
      "t": 77756.54399999983,
      "d": 222.8759999999893,
      "v": 101
    },
    {
      "midi": 66,
      "hit": false,
      "t": 77756.54399999983,
      "d": 222.8759999999893,
      "v": 81
    },
    {
      "midi": 57,
      "hit": false,
      "t": 78017.47199999982,
      "d": 1.087199999994482,
      "v": 101
    },
    {
      "midi": 50,
      "hit": false,
      "t": 78017.47199999982,
      "d": 222.8759999999893,
      "v": 76
    },
    {
      "midi": 52,
      "hit": false,
      "t": 78017.47199999982,
      "d": 222.8759999999893,
      "v": 81
    },
    {
      "midi": 62,
      "hit": false,
      "t": 78017.47199999982,
      "d": 222.8759999999893,
      "v": 101
    },
    {
      "midi": 66,
      "hit": false,
      "t": 78017.47199999982,
      "d": 222.8759999999893,
      "v": 90
    },
    {
      "midi": 57,
      "hit": false,
      "t": 78278.3999999998,
      "d": 1.087199999994482,
      "v": 101
    },
    {
      "midi": 49,
      "hit": false,
      "t": 78278.3999999998,
      "d": 222.8759999999893,
      "v": 87
    },
    {
      "midi": 52,
      "hit": false,
      "t": 78278.3999999998,
      "d": 222.8759999999893,
      "v": 81
    },
    {
      "midi": 61,
      "hit": false,
      "t": 78278.3999999998,
      "d": 222.8759999999893,
      "v": 101
    },
    {
      "midi": 64,
      "hit": false,
      "t": 78278.3999999998,
      "d": 222.8759999999893,
      "v": 110
    },
    {
      "midi": 57,
      "hit": false,
      "t": 78539.32799999979,
      "d": 1.087199999994482,
      "v": 97
    },
    {
      "midi": 49,
      "hit": false,
      "t": 78539.32799999979,
      "d": 222.8759999999893,
      "v": 87
    },
    {
      "midi": 52,
      "hit": false,
      "t": 78539.32799999979,
      "d": 222.8759999999893,
      "v": 81
    },
    {
      "midi": 61,
      "hit": false,
      "t": 78539.32799999979,
      "d": 222.8759999999893,
      "v": 110
    },
    {
      "midi": 64,
      "hit": false,
      "t": 78539.32799999979,
      "d": 222.8759999999893,
      "v": 110
    },
    {
      "midi": 57,
      "hit": false,
      "t": 78800.25599999978,
      "d": 1.087199999994482,
      "v": 88
    },
    {
      "midi": 49,
      "hit": false,
      "t": 78800.25599999978,
      "d": 222.8759999999893,
      "v": 87
    },
    {
      "midi": 52,
      "hit": false,
      "t": 78800.25599999978,
      "d": 222.8759999999893,
      "v": 76
    },
    {
      "midi": 61,
      "hit": false,
      "t": 78800.25599999978,
      "d": 222.8759999999893,
      "v": 110
    },
    {
      "midi": 64,
      "hit": false,
      "t": 78800.25599999978,
      "d": 222.8759999999893,
      "v": 110
    },
    {
      "midi": 57,
      "hit": false,
      "t": 79061.18399999976,
      "d": 1.087199999994482,
      "v": 101
    },
    {
      "midi": 49,
      "hit": false,
      "t": 79061.18399999976,
      "d": 222.8759999999893,
      "v": 93
    },
    {
      "midi": 52,
      "hit": false,
      "t": 79061.18399999976,
      "d": 222.8759999999893,
      "v": 81
    },
    {
      "midi": 61,
      "hit": false,
      "t": 79061.18399999976,
      "d": 222.8759999999893,
      "v": 101
    },
    {
      "midi": 64,
      "hit": false,
      "t": 79061.18399999976,
      "d": 222.8759999999893,
      "v": 115
    },
    {
      "midi": 45,
      "hit": false,
      "t": 79322.11199999975,
      "d": 222.87600000000384,
      "v": 63
    },
    {
      "midi": 49,
      "hit": false,
      "t": 79322.11199999975,
      "d": 222.87600000000384,
      "v": 63
    },
    {
      "midi": 52,
      "hit": false,
      "t": 79322.11199999975,
      "d": 222.87600000000384,
      "v": 67
    },
    {
      "midi": 57,
      "hit": false,
      "t": 79322.11199999975,
      "d": 222.87600000000384,
      "v": 97
    },
    {
      "midi": 61,
      "hit": false,
      "t": 79322.11199999975,
      "d": 222.87600000000384,
      "v": 110
    },
    {
      "midi": 64,
      "hit": false,
      "t": 79322.11199999975,
      "d": 222.87600000000384,
      "v": 106
    },
    {
      "midi": 45,
      "hit": false,
      "t": 79583.03999999975,
      "d": 222.87600000000384,
      "v": 67
    },
    {
      "midi": 49,
      "hit": false,
      "t": 79583.03999999975,
      "d": 222.87600000000384,
      "v": 76
    },
    {
      "midi": 52,
      "hit": false,
      "t": 79583.03999999975,
      "d": 222.87600000000384,
      "v": 72
    },
    {
      "midi": 57,
      "hit": false,
      "t": 79583.03999999975,
      "d": 222.87600000000384,
      "v": 97
    },
    {
      "midi": 61,
      "hit": false,
      "t": 79583.03999999975,
      "d": 222.87600000000384,
      "v": 97
    },
    {
      "midi": 64,
      "hit": false,
      "t": 79583.03999999975,
      "d": 222.87600000000384,
      "v": 97
    },
    {
      "midi": 45,
      "hit": false,
      "t": 79843.96799999975,
      "d": 222.87600000000384,
      "v": 67
    },
    {
      "midi": 49,
      "hit": false,
      "t": 79843.96799999975,
      "d": 222.87600000000384,
      "v": 76
    },
    {
      "midi": 52,
      "hit": false,
      "t": 79843.96799999975,
      "d": 222.87600000000384,
      "v": 72
    },
    {
      "midi": 57,
      "hit": false,
      "t": 79843.96799999975,
      "d": 222.87600000000384,
      "v": 101
    },
    {
      "midi": 61,
      "hit": false,
      "t": 79843.96799999975,
      "d": 222.87600000000384,
      "v": 106
    },
    {
      "midi": 64,
      "hit": false,
      "t": 79843.96799999975,
      "d": 222.87600000000384,
      "v": 106
    },
    {
      "midi": 45,
      "hit": false,
      "t": 80104.89599999975,
      "d": 222.87600000000384,
      "v": 72
    },
    {
      "midi": 49,
      "hit": false,
      "t": 80104.89599999975,
      "d": 222.87600000000384,
      "v": 76
    },
    {
      "midi": 52,
      "hit": false,
      "t": 80104.89599999975,
      "d": 222.87600000000384,
      "v": 81
    },
    {
      "midi": 57,
      "hit": false,
      "t": 80104.89599999975,
      "d": 222.87600000000384,
      "v": 106
    },
    {
      "midi": 61,
      "hit": false,
      "t": 80104.89599999975,
      "d": 222.87600000000384,
      "v": 110
    },
    {
      "midi": 64,
      "hit": false,
      "t": 80104.89599999975,
      "d": 222.87600000000384,
      "v": 110
    },
    {
      "midi": 45,
      "hit": false,
      "t": 80365.82399999975,
      "d": 222.87600000000384,
      "v": 72
    },
    {
      "midi": 49,
      "hit": false,
      "t": 80365.82399999975,
      "d": 222.87600000000384,
      "v": 72
    },
    {
      "midi": 52,
      "hit": false,
      "t": 80365.82399999975,
      "d": 222.87600000000384,
      "v": 76
    },
    {
      "midi": 57,
      "hit": false,
      "t": 80365.82399999975,
      "d": 222.87600000000384,
      "v": 106
    },
    {
      "midi": 61,
      "hit": false,
      "t": 80365.82399999975,
      "d": 222.87600000000384,
      "v": 110
    },
    {
      "midi": 64,
      "hit": false,
      "t": 80365.82399999975,
      "d": 222.87600000000384,
      "v": 110
    },
    {
      "midi": 45,
      "hit": false,
      "t": 80626.75199999975,
      "d": 222.87600000000384,
      "v": 72
    },
    {
      "midi": 49,
      "hit": false,
      "t": 80626.75199999975,
      "d": 222.87600000000384,
      "v": 76
    },
    {
      "midi": 52,
      "hit": false,
      "t": 80626.75199999975,
      "d": 222.87600000000384,
      "v": 76
    },
    {
      "midi": 57,
      "hit": false,
      "t": 80626.75199999975,
      "d": 222.87600000000384,
      "v": 101
    },
    {
      "midi": 61,
      "hit": false,
      "t": 80626.75199999975,
      "d": 222.87600000000384,
      "v": 110
    },
    {
      "midi": 64,
      "hit": false,
      "t": 80626.75199999975,
      "d": 222.87600000000384,
      "v": 101
    },
    {
      "midi": 45,
      "hit": false,
      "t": 80887.67999999975,
      "d": 222.87600000000384,
      "v": 72
    },
    {
      "midi": 49,
      "hit": false,
      "t": 80887.67999999975,
      "d": 222.87600000000384,
      "v": 67
    },
    {
      "midi": 52,
      "hit": false,
      "t": 80887.67999999975,
      "d": 222.87600000000384,
      "v": 81
    },
    {
      "midi": 57,
      "hit": false,
      "t": 80887.67999999975,
      "d": 222.87600000000384,
      "v": 101
    },
    {
      "midi": 61,
      "hit": false,
      "t": 80887.67999999975,
      "d": 222.87600000000384,
      "v": 106
    },
    {
      "midi": 64,
      "hit": false,
      "t": 80887.67999999975,
      "d": 222.87600000000384,
      "v": 106
    },
    {
      "midi": 45,
      "hit": false,
      "t": 81148.60799999975,
      "d": 222.87600000000384,
      "v": 72
    },
    {
      "midi": 49,
      "hit": false,
      "t": 81148.60799999975,
      "d": 222.87600000000384,
      "v": 67
    },
    {
      "midi": 52,
      "hit": false,
      "t": 81148.60799999975,
      "d": 222.87600000000384,
      "v": 81
    },
    {
      "midi": 57,
      "hit": false,
      "t": 81148.60799999975,
      "d": 222.87600000000384,
      "v": 106
    },
    {
      "midi": 61,
      "hit": false,
      "t": 81148.60799999975,
      "d": 222.87600000000384,
      "v": 110
    },
    {
      "midi": 64,
      "hit": false,
      "t": 81148.60799999975,
      "d": 222.87600000000384,
      "v": 110
    },
    {
      "midi": 47,
      "hit": false,
      "t": 81409.53599999975,
      "d": 222.87600000000384,
      "v": 54
    },
    {
      "midi": 50,
      "hit": false,
      "t": 81409.53599999975,
      "d": 222.87600000000384,
      "v": 67
    },
    {
      "midi": 54,
      "hit": false,
      "t": 81409.53599999975,
      "d": 222.87600000000384,
      "v": 63
    },
    {
      "midi": 59,
      "hit": false,
      "t": 81409.53599999975,
      "d": 222.87600000000384,
      "v": 97
    },
    {
      "midi": 62,
      "hit": false,
      "t": 81409.53599999975,
      "d": 222.87600000000384,
      "v": 101
    },
    {
      "midi": 66,
      "hit": false,
      "t": 81409.53599999975,
      "d": 222.87600000000384,
      "v": 90
    },
    {
      "midi": 47,
      "hit": false,
      "t": 81670.46399999975,
      "d": 222.87600000000384,
      "v": 76
    },
    {
      "midi": 50,
      "hit": false,
      "t": 81670.46399999975,
      "d": 222.87600000000384,
      "v": 81
    },
    {
      "midi": 54,
      "hit": false,
      "t": 81670.46399999975,
      "d": 222.87600000000384,
      "v": 76
    },
    {
      "midi": 59,
      "hit": false,
      "t": 81670.46399999975,
      "d": 222.87600000000384,
      "v": 97
    },
    {
      "midi": 62,
      "hit": false,
      "t": 81670.46399999975,
      "d": 222.87600000000384,
      "v": 97
    },
    {
      "midi": 66,
      "hit": false,
      "t": 81670.46399999975,
      "d": 222.87600000000384,
      "v": 86
    },
    {
      "midi": 47,
      "hit": false,
      "t": 81931.39199999975,
      "d": 222.87600000000384,
      "v": 67
    },
    {
      "midi": 50,
      "hit": false,
      "t": 81931.39199999975,
      "d": 222.87600000000384,
      "v": 81
    },
    {
      "midi": 54,
      "hit": false,
      "t": 81931.39199999975,
      "d": 222.87600000000384,
      "v": 72
    },
    {
      "midi": 59,
      "hit": false,
      "t": 81931.39199999975,
      "d": 222.87600000000384,
      "v": 101
    },
    {
      "midi": 62,
      "hit": false,
      "t": 81931.39199999975,
      "d": 222.87600000000384,
      "v": 101
    },
    {
      "midi": 66,
      "hit": false,
      "t": 81931.39199999975,
      "d": 222.87600000000384,
      "v": 86
    },
    {
      "midi": 47,
      "hit": false,
      "t": 82192.31999999975,
      "d": 222.87600000000384,
      "v": 67
    },
    {
      "midi": 50,
      "hit": false,
      "t": 82192.31999999975,
      "d": 222.87600000000384,
      "v": 81
    },
    {
      "midi": 54,
      "hit": false,
      "t": 82192.31999999975,
      "d": 222.87600000000384,
      "v": 72
    },
    {
      "midi": 59,
      "hit": false,
      "t": 82192.31999999975,
      "d": 222.87600000000384,
      "v": 106
    },
    {
      "midi": 62,
      "hit": false,
      "t": 82192.31999999975,
      "d": 222.87600000000384,
      "v": 106
    },
    {
      "midi": 66,
      "hit": false,
      "t": 82192.31999999975,
      "d": 222.87600000000384,
      "v": 90
    },
    {
      "midi": 47,
      "hit": false,
      "t": 82453.24799999974,
      "d": 222.87600000000384,
      "v": 76
    },
    {
      "midi": 50,
      "hit": false,
      "t": 82453.24799999974,
      "d": 222.87600000000384,
      "v": 81
    },
    {
      "midi": 54,
      "hit": false,
      "t": 82453.24799999974,
      "d": 222.87600000000384,
      "v": 72
    },
    {
      "midi": 59,
      "hit": false,
      "t": 82453.24799999974,
      "d": 222.87600000000384,
      "v": 93
    },
    {
      "midi": 62,
      "hit": false,
      "t": 82453.24799999974,
      "d": 222.87600000000384,
      "v": 101
    },
    {
      "midi": 66,
      "hit": false,
      "t": 82453.24799999974,
      "d": 222.87600000000384,
      "v": 86
    },
    {
      "midi": 47,
      "hit": false,
      "t": 82714.17599999974,
      "d": 222.87600000000384,
      "v": 76
    },
    {
      "midi": 50,
      "hit": false,
      "t": 82714.17599999974,
      "d": 222.87600000000384,
      "v": 81
    },
    {
      "midi": 54,
      "hit": false,
      "t": 82714.17599999974,
      "d": 222.87600000000384,
      "v": 72
    },
    {
      "midi": 59,
      "hit": false,
      "t": 82714.17599999974,
      "d": 222.87600000000384,
      "v": 101
    },
    {
      "midi": 62,
      "hit": false,
      "t": 82714.17599999974,
      "d": 222.87600000000384,
      "v": 101
    },
    {
      "midi": 66,
      "hit": false,
      "t": 82714.17599999974,
      "d": 222.87600000000384,
      "v": 90
    },
    {
      "midi": 47,
      "hit": false,
      "t": 82975.10399999974,
      "d": 222.87600000000384,
      "v": 76
    },
    {
      "midi": 50,
      "hit": false,
      "t": 82975.10399999974,
      "d": 222.87600000000384,
      "v": 87
    },
    {
      "midi": 54,
      "hit": false,
      "t": 82975.10399999974,
      "d": 222.87600000000384,
      "v": 76
    },
    {
      "midi": 59,
      "hit": false,
      "t": 82975.10399999974,
      "d": 222.87600000000384,
      "v": 101
    },
    {
      "midi": 62,
      "hit": false,
      "t": 82975.10399999974,
      "d": 222.87600000000384,
      "v": 106
    },
    {
      "midi": 66,
      "hit": false,
      "t": 82975.10399999974,
      "d": 222.87600000000384,
      "v": 94
    },
    {
      "midi": 47,
      "hit": false,
      "t": 83236.03199999974,
      "d": 222.87600000000384,
      "v": 76
    },
    {
      "midi": 50,
      "hit": false,
      "t": 83236.03199999974,
      "d": 222.87600000000384,
      "v": 81
    },
    {
      "midi": 54,
      "hit": false,
      "t": 83236.03199999974,
      "d": 222.87600000000384,
      "v": 72
    },
    {
      "midi": 59,
      "hit": false,
      "t": 83236.03199999974,
      "d": 222.87600000000384,
      "v": 106
    },
    {
      "midi": 62,
      "hit": false,
      "t": 83236.03199999974,
      "d": 222.87600000000384,
      "v": 110
    },
    {
      "midi": 66,
      "hit": false,
      "t": 83236.03199999974,
      "d": 222.87600000000384,
      "v": 94
    },
    {
      "midi": 47,
      "hit": false,
      "t": 83496.95999999974,
      "d": 222.87600000000384,
      "v": 67
    },
    {
      "midi": 50,
      "hit": false,
      "t": 83496.95999999974,
      "d": 222.87600000000384,
      "v": 72
    },
    {
      "midi": 55,
      "hit": false,
      "t": 83496.95999999974,
      "d": 222.87600000000384,
      "v": 70
    },
    {
      "midi": 59,
      "hit": false,
      "t": 83496.95999999974,
      "d": 222.87600000000384,
      "v": 97
    },
    {
      "midi": 62,
      "hit": false,
      "t": 83496.95999999974,
      "d": 222.87600000000384,
      "v": 101
    },
    {
      "midi": 67,
      "hit": false,
      "t": 83496.95999999974,
      "d": 222.87600000000384,
      "v": 76
    },
    {
      "midi": 47,
      "hit": false,
      "t": 83757.88799999974,
      "d": 222.87600000000384,
      "v": 67
    },
    {
      "midi": 50,
      "hit": false,
      "t": 83757.88799999974,
      "d": 222.87600000000384,
      "v": 81
    },
    {
      "midi": 55,
      "hit": false,
      "t": 83757.88799999974,
      "d": 222.87600000000384,
      "v": 70
    },
    {
      "midi": 59,
      "hit": false,
      "t": 83757.88799999974,
      "d": 222.87600000000384,
      "v": 97
    },
    {
      "midi": 62,
      "hit": false,
      "t": 83757.88799999974,
      "d": 222.87600000000384,
      "v": 101
    },
    {
      "midi": 67,
      "hit": false,
      "t": 83757.88799999974,
      "d": 222.87600000000384,
      "v": 80
    },
    {
      "midi": 47,
      "hit": false,
      "t": 84018.81599999974,
      "d": 222.87600000000384,
      "v": 72
    },
    {
      "midi": 50,
      "hit": false,
      "t": 84018.81599999974,
      "d": 222.87600000000384,
      "v": 76
    },
    {
      "midi": 55,
      "hit": false,
      "t": 84018.81599999974,
      "d": 222.87600000000384,
      "v": 74
    },
    {
      "midi": 59,
      "hit": false,
      "t": 84018.81599999974,
      "d": 222.87600000000384,
      "v": 97
    },
    {
      "midi": 62,
      "hit": false,
      "t": 84018.81599999974,
      "d": 222.87600000000384,
      "v": 106
    },
    {
      "midi": 67,
      "hit": false,
      "t": 84018.81599999974,
      "d": 222.87600000000384,
      "v": 80
    },
    {
      "midi": 47,
      "hit": false,
      "t": 84279.74399999974,
      "d": 222.87600000000384,
      "v": 81
    },
    {
      "midi": 50,
      "hit": false,
      "t": 84279.74399999974,
      "d": 222.87600000000384,
      "v": 81
    },
    {
      "midi": 55,
      "hit": false,
      "t": 84279.74399999974,
      "d": 222.87600000000384,
      "v": 79
    },
    {
      "midi": 59,
      "hit": false,
      "t": 84279.74399999974,
      "d": 222.87600000000384,
      "v": 97
    },
    {
      "midi": 62,
      "hit": false,
      "t": 84279.74399999974,
      "d": 222.87600000000384,
      "v": 101
    },
    {
      "midi": 67,
      "hit": false,
      "t": 84279.74399999974,
      "d": 222.87600000000384,
      "v": 71
    },
    {
      "midi": 47,
      "hit": false,
      "t": 84540.67199999974,
      "d": 222.87600000000384,
      "v": 72
    },
    {
      "midi": 50,
      "hit": false,
      "t": 84540.67199999974,
      "d": 222.87600000000384,
      "v": 81
    },
    {
      "midi": 55,
      "hit": false,
      "t": 84540.67199999974,
      "d": 222.87600000000384,
      "v": 70
    },
    {
      "midi": 59,
      "hit": false,
      "t": 84540.67199999974,
      "d": 222.87600000000384,
      "v": 106
    },
    {
      "midi": 62,
      "hit": false,
      "t": 84540.67199999974,
      "d": 222.87600000000384,
      "v": 101
    },
    {
      "midi": 67,
      "hit": false,
      "t": 84540.67199999974,
      "d": 222.87600000000384,
      "v": 76
    },
    {
      "midi": 47,
      "hit": false,
      "t": 84801.59999999974,
      "d": 222.87600000000384,
      "v": 72
    },
    {
      "midi": 50,
      "hit": false,
      "t": 84801.59999999974,
      "d": 222.87600000000384,
      "v": 81
    },
    {
      "midi": 55,
      "hit": false,
      "t": 84801.59999999974,
      "d": 222.87600000000384,
      "v": 74
    },
    {
      "midi": 59,
      "hit": false,
      "t": 84801.59999999974,
      "d": 222.87600000000384,
      "v": 101
    },
    {
      "midi": 62,
      "hit": false,
      "t": 84801.59999999974,
      "d": 222.87600000000384,
      "v": 110
    },
    {
      "midi": 67,
      "hit": false,
      "t": 84801.59999999974,
      "d": 222.87600000000384,
      "v": 80
    },
    {
      "midi": 47,
      "hit": false,
      "t": 85062.52799999974,
      "d": 222.87600000000384,
      "v": 81
    },
    {
      "midi": 50,
      "hit": false,
      "t": 85062.52799999974,
      "d": 222.87600000000384,
      "v": 87
    },
    {
      "midi": 55,
      "hit": false,
      "t": 85062.52799999974,
      "d": 222.87600000000384,
      "v": 74
    },
    {
      "midi": 59,
      "hit": false,
      "t": 85062.52799999974,
      "d": 222.87600000000384,
      "v": 101
    },
    {
      "midi": 62,
      "hit": false,
      "t": 85062.52799999974,
      "d": 222.87600000000384,
      "v": 106
    },
    {
      "midi": 67,
      "hit": false,
      "t": 85062.52799999974,
      "d": 222.87600000000384,
      "v": 76
    },
    {
      "midi": 47,
      "hit": false,
      "t": 85323.45599999974,
      "d": 222.87600000000384,
      "v": 76
    },
    {
      "midi": 50,
      "hit": false,
      "t": 85323.45599999974,
      "d": 222.87600000000384,
      "v": 87
    },
    {
      "midi": 55,
      "hit": false,
      "t": 85323.45599999974,
      "d": 222.87600000000384,
      "v": 70
    },
    {
      "midi": 59,
      "hit": false,
      "t": 85323.45599999974,
      "d": 222.87600000000384,
      "v": 101
    },
    {
      "midi": 62,
      "hit": false,
      "t": 85323.45599999974,
      "d": 222.87600000000384,
      "v": 115
    },
    {
      "midi": 67,
      "hit": false,
      "t": 85323.45599999974,
      "d": 222.87600000000384,
      "v": 84
    },
    {
      "midi": 57,
      "hit": false,
      "t": 85584.38399999974,
      "d": 1.087199999994482,
      "v": 84
    },
    {
      "midi": 50,
      "hit": false,
      "t": 85584.38399999974,
      "d": 222.8759999999893,
      "v": 67
    },
    {
      "midi": 52,
      "hit": false,
      "t": 85584.38399999974,
      "d": 222.8759999999893,
      "v": 81
    },
    {
      "midi": 61,
      "hit": false,
      "t": 85584.38399999974,
      "d": 222.8759999999893,
      "v": 80
    },
    {
      "midi": 64,
      "hit": false,
      "t": 85584.38399999974,
      "d": 222.8759999999893,
      "v": 110
    },
    {
      "midi": 69,
      "hit": false,
      "t": 85584.38399999974,
      "d": 222.8759999999893,
      "v": 89
    },
    {
      "midi": 57,
      "hit": false,
      "t": 85845.31199999973,
      "d": 1.087199999994482,
      "v": 84
    },
    {
      "midi": 50,
      "hit": false,
      "t": 85845.31199999973,
      "d": 222.8759999999893,
      "v": 76
    },
    {
      "midi": 52,
      "hit": false,
      "t": 85845.31199999973,
      "d": 222.8759999999893,
      "v": 81
    },
    {
      "midi": 61,
      "hit": false,
      "t": 85845.31199999973,
      "d": 222.8759999999893,
      "v": 84
    },
    {
      "midi": 64,
      "hit": false,
      "t": 85845.31199999973,
      "d": 222.8759999999893,
      "v": 110
    },
    {
      "midi": 69,
      "hit": false,
      "t": 85845.31199999973,
      "d": 222.8759999999893,
      "v": 84
    },
    {
      "midi": 57,
      "hit": false,
      "t": 86106.23999999971,
      "d": 1.087199999994482,
      "v": 72
    },
    {
      "midi": 50,
      "hit": false,
      "t": 86106.23999999971,
      "d": 222.8759999999893,
      "v": 72
    },
    {
      "midi": 52,
      "hit": false,
      "t": 86106.23999999971,
      "d": 222.8759999999893,
      "v": 72
    },
    {
      "midi": 61,
      "hit": false,
      "t": 86106.23999999971,
      "d": 222.8759999999893,
      "v": 93
    },
    {
      "midi": 64,
      "hit": false,
      "t": 86106.23999999971,
      "d": 222.8759999999893,
      "v": 115
    },
    {
      "midi": 69,
      "hit": false,
      "t": 86106.23999999971,
      "d": 222.8759999999893,
      "v": 89
    },
    {
      "midi": 57,
      "hit": false,
      "t": 86367.1679999997,
      "d": 1.087199999994482,
      "v": 70
    },
    {
      "midi": 50,
      "hit": false,
      "t": 86367.1679999997,
      "d": 222.8759999999893,
      "v": 76
    },
    {
      "midi": 52,
      "hit": false,
      "t": 86367.1679999997,
      "d": 222.8759999999893,
      "v": 81
    },
    {
      "midi": 61,
      "hit": false,
      "t": 86367.1679999997,
      "d": 222.8759999999893,
      "v": 80
    },
    {
      "midi": 64,
      "hit": false,
      "t": 86367.1679999997,
      "d": 222.8759999999893,
      "v": 110
    },
    {
      "midi": 69,
      "hit": false,
      "t": 86367.1679999997,
      "d": 222.8759999999893,
      "v": 84
    },
    {
      "midi": 57,
      "hit": false,
      "t": 86628.09599999968,
      "d": 1.087199999994482,
      "v": 79
    },
    {
      "midi": 49,
      "hit": false,
      "t": 86628.09599999968,
      "d": 222.8759999999893,
      "v": 76
    },
    {
      "midi": 52,
      "hit": false,
      "t": 86628.09599999968,
      "d": 222.8759999999893,
      "v": 81
    },
    {
      "midi": 61,
      "hit": false,
      "t": 86628.09599999968,
      "d": 222.8759999999893,
      "v": 84
    },
    {
      "midi": 64,
      "hit": false,
      "t": 86628.09599999968,
      "d": 222.8759999999893,
      "v": 115
    },
    {
      "midi": 69,
      "hit": false,
      "t": 86628.09599999968,
      "d": 222.8759999999893,
      "v": 89
    },
    {
      "midi": 57,
      "hit": false,
      "t": 86889.02399999967,
      "d": 1.087199999994482,
      "v": 88
    },
    {
      "midi": 49,
      "hit": false,
      "t": 86889.02399999967,
      "d": 222.8759999999893,
      "v": 76
    },
    {
      "midi": 52,
      "hit": false,
      "t": 86889.02399999967,
      "d": 222.8759999999893,
      "v": 81
    },
    {
      "midi": 61,
      "hit": false,
      "t": 86889.02399999967,
      "d": 222.8759999999893,
      "v": 72
    },
    {
      "midi": 64,
      "hit": false,
      "t": 86889.02399999967,
      "d": 222.8759999999893,
      "v": 110
    },
    {
      "midi": 69,
      "hit": false,
      "t": 86889.02399999967,
      "d": 222.8759999999893,
      "v": 84
    },
    {
      "midi": 57,
      "hit": false,
      "t": 87149.95199999966,
      "d": 1.087199999994482,
      "v": 83
    },
    {
      "midi": 49,
      "hit": false,
      "t": 87149.95199999966,
      "d": 222.8759999999893,
      "v": 93
    },
    {
      "midi": 52,
      "hit": false,
      "t": 87149.95199999966,
      "d": 222.8759999999893,
      "v": 76
    },
    {
      "midi": 61,
      "hit": false,
      "t": 87149.95199999966,
      "d": 222.8759999999893,
      "v": 72
    },
    {
      "midi": 64,
      "hit": false,
      "t": 87149.95199999966,
      "d": 222.8759999999893,
      "v": 115
    },
    {
      "midi": 69,
      "hit": false,
      "t": 87149.95199999966,
      "d": 222.8759999999893,
      "v": 98
    },
    {
      "midi": 57,
      "hit": false,
      "t": 87410.87999999964,
      "d": 1.087199999994482,
      "v": 88
    },
    {
      "midi": 49,
      "hit": false,
      "t": 87410.87999999964,
      "d": 222.8759999999893,
      "v": 87
    },
    {
      "midi": 52,
      "hit": false,
      "t": 87410.87999999964,
      "d": 222.8759999999893,
      "v": 87
    },
    {
      "midi": 61,
      "hit": false,
      "t": 87410.87999999964,
      "d": 222.8759999999893,
      "v": 84
    },
    {
      "midi": 64,
      "hit": false,
      "t": 87410.87999999964,
      "d": 222.8759999999893,
      "v": 115
    },
    {
      "midi": 69,
      "hit": false,
      "t": 87410.87999999964,
      "d": 222.8759999999893,
      "v": 93
    },
    {
      "midi": 57,
      "hit": false,
      "t": 87671.80799999963,
      "d": 222.87600000000384,
      "v": 106
    },
    {
      "midi": 62,
      "hit": false,
      "t": 87671.80799999963,
      "d": 222.87600000000384,
      "v": 101
    },
    {
      "midi": 66,
      "hit": false,
      "t": 87671.80799999963,
      "d": 222.87600000000384,
      "v": 108
    },
    {
      "midi": 69,
      "hit": false,
      "t": 87671.80799999963,
      "d": 222.87600000000384,
      "v": 93
    },
    {
      "midi": 57,
      "hit": false,
      "t": 87932.73599999963,
      "d": 222.87600000000384,
      "v": 106
    },
    {
      "midi": 62,
      "hit": false,
      "t": 87932.73599999963,
      "d": 222.87600000000384,
      "v": 97
    },
    {
      "midi": 66,
      "hit": false,
      "t": 87932.73599999963,
      "d": 222.87600000000384,
      "v": 90
    },
    {
      "midi": 69,
      "hit": false,
      "t": 87932.73599999963,
      "d": 222.87600000000384,
      "v": 80
    },
    {
      "midi": 57,
      "hit": false,
      "t": 88193.66399999963,
      "d": 222.87600000000384,
      "v": 106
    },
    {
      "midi": 62,
      "hit": false,
      "t": 88193.66399999963,
      "d": 222.87600000000384,
      "v": 101
    },
    {
      "midi": 66,
      "hit": false,
      "t": 88193.66399999963,
      "d": 222.87600000000384,
      "v": 94
    },
    {
      "midi": 69,
      "hit": false,
      "t": 88193.66399999963,
      "d": 222.87600000000384,
      "v": 80
    },
    {
      "midi": 57,
      "hit": false,
      "t": 88454.59199999963,
      "d": 222.87600000000384,
      "v": 110
    },
    {
      "midi": 62,
      "hit": false,
      "t": 88454.59199999963,
      "d": 222.87600000000384,
      "v": 97
    },
    {
      "midi": 66,
      "hit": false,
      "t": 88454.59199999963,
      "d": 222.87600000000384,
      "v": 94
    },
    {
      "midi": 69,
      "hit": false,
      "t": 88454.59199999963,
      "d": 222.87600000000384,
      "v": 84
    },
    {
      "midi": 57,
      "hit": false,
      "t": 88715.51999999963,
      "d": 222.87600000000384,
      "v": 115
    },
    {
      "midi": 62,
      "hit": false,
      "t": 88715.51999999963,
      "d": 222.87600000000384,
      "v": 101
    },
    {
      "midi": 66,
      "hit": false,
      "t": 88715.51999999963,
      "d": 222.87600000000384,
      "v": 99
    },
    {
      "midi": 69,
      "hit": false,
      "t": 88715.51999999963,
      "d": 222.87600000000384,
      "v": 80
    },
    {
      "midi": 57,
      "hit": false,
      "t": 88976.44799999963,
      "d": 222.87600000000384,
      "v": 110
    },
    {
      "midi": 62,
      "hit": false,
      "t": 88976.44799999963,
      "d": 222.87600000000384,
      "v": 101
    },
    {
      "midi": 66,
      "hit": false,
      "t": 88976.44799999963,
      "d": 222.87600000000384,
      "v": 99
    },
    {
      "midi": 69,
      "hit": false,
      "t": 88976.44799999963,
      "d": 222.87600000000384,
      "v": 80
    },
    {
      "midi": 57,
      "hit": false,
      "t": 89237.37599999963,
      "d": 222.87600000000384,
      "v": 115
    },
    {
      "midi": 62,
      "hit": false,
      "t": 89237.37599999963,
      "d": 222.87600000000384,
      "v": 106
    },
    {
      "midi": 66,
      "hit": false,
      "t": 89237.37599999963,
      "d": 222.87600000000384,
      "v": 99
    },
    {
      "midi": 69,
      "hit": false,
      "t": 89237.37599999963,
      "d": 222.87600000000384,
      "v": 84
    },
    {
      "midi": 57,
      "hit": false,
      "t": 89498.30399999963,
      "d": 222.87600000000384,
      "v": 115
    },
    {
      "midi": 62,
      "hit": false,
      "t": 89498.30399999963,
      "d": 222.87600000000384,
      "v": 110
    },
    {
      "midi": 66,
      "hit": false,
      "t": 89498.30399999963,
      "d": 222.87600000000384,
      "v": 99
    },
    {
      "midi": 69,
      "hit": false,
      "t": 89498.30399999963,
      "d": 222.87600000000384,
      "v": 84
    },
    {
      "midi": 57,
      "hit": false,
      "t": 89759.23199999963,
      "d": 222.87600000000384,
      "v": 115
    },
    {
      "midi": 62,
      "hit": false,
      "t": 89759.23199999963,
      "d": 222.87600000000384,
      "v": 110
    },
    {
      "midi": 64,
      "hit": false,
      "t": 89759.23199999963,
      "d": 222.87600000000384,
      "v": 106
    },
    {
      "midi": 69,
      "hit": false,
      "t": 89759.23199999963,
      "d": 222.87600000000384,
      "v": 84
    },
    {
      "midi": 57,
      "hit": false,
      "t": 90020.15999999963,
      "d": 222.87600000000384,
      "v": 110
    },
    {
      "midi": 62,
      "hit": false,
      "t": 90020.15999999963,
      "d": 222.87600000000384,
      "v": 110
    },
    {
      "midi": 64,
      "hit": false,
      "t": 90020.15999999963,
      "d": 222.87600000000384,
      "v": 106
    },
    {
      "midi": 69,
      "hit": false,
      "t": 90020.15999999963,
      "d": 222.87600000000384,
      "v": 84
    },
    {
      "midi": 57,
      "hit": false,
      "t": 90281.08799999963,
      "d": 222.87600000000384,
      "v": 115
    },
    {
      "midi": 62,
      "hit": false,
      "t": 90281.08799999963,
      "d": 222.87600000000384,
      "v": 110
    },
    {
      "midi": 64,
      "hit": false,
      "t": 90281.08799999963,
      "d": 222.87600000000384,
      "v": 110
    },
    {
      "midi": 69,
      "hit": false,
      "t": 90281.08799999963,
      "d": 222.87600000000384,
      "v": 84
    },
    {
      "midi": 57,
      "hit": false,
      "t": 90542.01599999962,
      "d": 222.87600000000384,
      "v": 115
    },
    {
      "midi": 62,
      "hit": false,
      "t": 90542.01599999962,
      "d": 222.87600000000384,
      "v": 115
    },
    {
      "midi": 64,
      "hit": false,
      "t": 90542.01599999962,
      "d": 222.87600000000384,
      "v": 106
    },
    {
      "midi": 69,
      "hit": false,
      "t": 90542.01599999962,
      "d": 222.87600000000384,
      "v": 84
    },
    {
      "midi": 57,
      "hit": false,
      "t": 90802.94399999962,
      "d": 222.87600000000384,
      "v": 106
    },
    {
      "midi": 61,
      "hit": false,
      "t": 90802.94399999962,
      "d": 222.87600000000384,
      "v": 121
    },
    {
      "midi": 64,
      "hit": false,
      "t": 90802.94399999962,
      "d": 222.87600000000384,
      "v": 106
    },
    {
      "midi": 69,
      "hit": false,
      "t": 90802.94399999962,
      "d": 222.87600000000384,
      "v": 89
    },
    {
      "midi": 57,
      "hit": false,
      "t": 91063.87199999962,
      "d": 222.87600000000384,
      "v": 97
    },
    {
      "midi": 61,
      "hit": false,
      "t": 91063.87199999962,
      "d": 222.87600000000384,
      "v": 121
    },
    {
      "midi": 64,
      "hit": false,
      "t": 91063.87199999962,
      "d": 222.87600000000384,
      "v": 106
    },
    {
      "midi": 69,
      "hit": false,
      "t": 91063.87199999962,
      "d": 222.87600000000384,
      "v": 84
    },
    {
      "midi": 57,
      "hit": false,
      "t": 91324.79999999962,
      "d": 222.87600000000384,
      "v": 101
    },
    {
      "midi": 61,
      "hit": false,
      "t": 91324.79999999962,
      "d": 222.87600000000384,
      "v": 121
    },
    {
      "midi": 64,
      "hit": false,
      "t": 91324.79999999962,
      "d": 222.87600000000384,
      "v": 110
    },
    {
      "midi": 69,
      "hit": false,
      "t": 91324.79999999962,
      "d": 222.87600000000384,
      "v": 89
    },
    {
      "midi": 57,
      "hit": false,
      "t": 91585.72799999962,
      "d": 222.87600000000384,
      "v": 97
    },
    {
      "midi": 61,
      "hit": false,
      "t": 91585.72799999962,
      "d": 222.87600000000384,
      "v": 110
    },
    {
      "midi": 64,
      "hit": false,
      "t": 91585.72799999962,
      "d": 222.87600000000384,
      "v": 106
    },
    {
      "midi": 69,
      "hit": false,
      "t": 91585.72799999962,
      "d": 222.87600000000384,
      "v": 84
    },
    {
      "midi": 57,
      "hit": false,
      "t": 91846.65599999962,
      "d": 222.87600000000384,
      "v": 101
    },
    {
      "midi": 61,
      "hit": false,
      "t": 91846.65599999962,
      "d": 222.87600000000384,
      "v": 123
    },
    {
      "midi": 64,
      "hit": false,
      "t": 91846.65599999962,
      "d": 222.87600000000384,
      "v": 110
    },
    {
      "midi": 69,
      "hit": false,
      "t": 91846.65599999962,
      "d": 222.87600000000384,
      "v": 93
    },
    {
      "midi": 57,
      "hit": false,
      "t": 92107.58399999962,
      "d": 222.87600000000384,
      "v": 101
    },
    {
      "midi": 61,
      "hit": false,
      "t": 92107.58399999962,
      "d": 222.87600000000384,
      "v": 121
    },
    {
      "midi": 64,
      "hit": false,
      "t": 92107.58399999962,
      "d": 222.87600000000384,
      "v": 115
    },
    {
      "midi": 69,
      "hit": false,
      "t": 92107.58399999962,
      "d": 222.87600000000384,
      "v": 84
    },
    {
      "midi": 57,
      "hit": false,
      "t": 92368.51199999962,
      "d": 222.87600000000384,
      "v": 106
    },
    {
      "midi": 61,
      "hit": false,
      "t": 92368.51199999962,
      "d": 222.87600000000384,
      "v": 115
    },
    {
      "midi": 64,
      "hit": false,
      "t": 92368.51199999962,
      "d": 222.87600000000384,
      "v": 110
    },
    {
      "midi": 69,
      "hit": false,
      "t": 92368.51199999962,
      "d": 222.87600000000384,
      "v": 84
    },
    {
      "midi": 57,
      "hit": false,
      "t": 92629.43999999962,
      "d": 222.87600000000384,
      "v": 106
    },
    {
      "midi": 61,
      "hit": false,
      "t": 92629.43999999962,
      "d": 222.87600000000384,
      "v": 115
    },
    {
      "midi": 64,
      "hit": false,
      "t": 92629.43999999962,
      "d": 222.87600000000384,
      "v": 115
    },
    {
      "midi": 69,
      "hit": false,
      "t": 92629.43999999962,
      "d": 222.87600000000384,
      "v": 89
    },
    {
      "midi": 57,
      "hit": false,
      "t": 92890.36799999962,
      "d": 222.87600000000384,
      "v": 110
    },
    {
      "midi": 61,
      "hit": false,
      "t": 92890.36799999962,
      "d": 222.87600000000384,
      "v": 123
    },
    {
      "midi": 64,
      "hit": false,
      "t": 92890.36799999962,
      "d": 222.87600000000384,
      "v": 115
    },
    {
      "midi": 69,
      "hit": false,
      "t": 92890.36799999962,
      "d": 222.87600000000384,
      "v": 89
    },
    {
      "midi": 57,
      "hit": false,
      "t": 93151.29599999962,
      "d": 222.87600000000384,
      "v": 110
    },
    {
      "midi": 61,
      "hit": false,
      "t": 93151.29599999962,
      "d": 222.87600000000384,
      "v": 115
    },
    {
      "midi": 64,
      "hit": false,
      "t": 93151.29599999962,
      "d": 222.87600000000384,
      "v": 106
    },
    {
      "midi": 69,
      "hit": false,
      "t": 93151.29599999962,
      "d": 222.87600000000384,
      "v": 84
    },
    {
      "midi": 57,
      "hit": false,
      "t": 93412.22399999962,
      "d": 222.87600000000384,
      "v": 106
    },
    {
      "midi": 61,
      "hit": false,
      "t": 93412.22399999962,
      "d": 222.87600000000384,
      "v": 121
    },
    {
      "midi": 64,
      "hit": false,
      "t": 93412.22399999962,
      "d": 222.87600000000384,
      "v": 110
    },
    {
      "midi": 69,
      "hit": false,
      "t": 93412.22399999962,
      "d": 222.87600000000384,
      "v": 84
    },
    {
      "midi": 57,
      "hit": false,
      "t": 93673.15199999962,
      "d": 222.87600000000384,
      "v": 101
    },
    {
      "midi": 61,
      "hit": false,
      "t": 93673.15199999962,
      "d": 222.87600000000384,
      "v": 121
    },
    {
      "midi": 64,
      "hit": false,
      "t": 93673.15199999962,
      "d": 222.87600000000384,
      "v": 115
    },
    {
      "midi": 69,
      "hit": false,
      "t": 93673.15199999962,
      "d": 222.87600000000384,
      "v": 80
    },
    {
      "midi": 59,
      "hit": false,
      "t": 93934.07999999962,
      "d": 222.87600000000384,
      "v": 115
    },
    {
      "midi": 62,
      "hit": false,
      "t": 93934.07999999962,
      "d": 222.87600000000384,
      "v": 106
    },
    {
      "midi": 66,
      "hit": false,
      "t": 93934.07999999962,
      "d": 222.87600000000384,
      "v": 94
    },
    {
      "midi": 69,
      "hit": false,
      "t": 93934.07999999962,
      "d": 222.87600000000384,
      "v": 76
    },
    {
      "midi": 59,
      "hit": false,
      "t": 94195.00799999962,
      "d": 222.87600000000384,
      "v": 115
    },
    {
      "midi": 62,
      "hit": false,
      "t": 94195.00799999962,
      "d": 222.87600000000384,
      "v": 110
    },
    {
      "midi": 66,
      "hit": false,
      "t": 94195.00799999962,
      "d": 222.87600000000384,
      "v": 99
    },
    {
      "midi": 69,
      "hit": false,
      "t": 94195.00799999962,
      "d": 222.87600000000384,
      "v": 80
    },
    {
      "midi": 59,
      "hit": false,
      "t": 94455.93599999962,
      "d": 222.87600000000384,
      "v": 121
    },
    {
      "midi": 62,
      "hit": false,
      "t": 94455.93599999962,
      "d": 222.87600000000384,
      "v": 106
    },
    {
      "midi": 66,
      "hit": false,
      "t": 94455.93599999962,
      "d": 222.87600000000384,
      "v": 108
    },
    {
      "midi": 69,
      "hit": false,
      "t": 94455.93599999962,
      "d": 222.87600000000384,
      "v": 84
    },
    {
      "midi": 59,
      "hit": false,
      "t": 94716.86399999962,
      "d": 222.87600000000384,
      "v": 115
    },
    {
      "midi": 62,
      "hit": false,
      "t": 94716.86399999962,
      "d": 222.87600000000384,
      "v": 101
    },
    {
      "midi": 66,
      "hit": false,
      "t": 94716.86399999962,
      "d": 222.87600000000384,
      "v": 99
    },
    {
      "midi": 69,
      "hit": false,
      "t": 94716.86399999962,
      "d": 222.87600000000384,
      "v": 84
    },
    {
      "midi": 57,
      "hit": false,
      "t": 94977.79199999962,
      "d": 222.87600000000384,
      "v": 106
    },
    {
      "midi": 61,
      "hit": false,
      "t": 94977.79199999962,
      "d": 222.87600000000384,
      "v": 115
    },
    {
      "midi": 64,
      "hit": false,
      "t": 94977.79199999962,
      "d": 222.87600000000384,
      "v": 110
    },
    {
      "midi": 69,
      "hit": false,
      "t": 94977.79199999962,
      "d": 222.87600000000384,
      "v": 84
    },
    {
      "midi": 57,
      "hit": false,
      "t": 95238.71999999962,
      "d": 222.87600000000384,
      "v": 101
    },
    {
      "midi": 61,
      "hit": false,
      "t": 95238.71999999962,
      "d": 222.87600000000384,
      "v": 123
    },
    {
      "midi": 64,
      "hit": false,
      "t": 95238.71999999962,
      "d": 222.87600000000384,
      "v": 115
    },
    {
      "midi": 69,
      "hit": false,
      "t": 95238.71999999962,
      "d": 222.87600000000384,
      "v": 80
    },
    {
      "midi": 57,
      "hit": false,
      "t": 95499.64799999962,
      "d": 222.87600000000384,
      "v": 101
    },
    {
      "midi": 61,
      "hit": false,
      "t": 95499.64799999962,
      "d": 222.87600000000384,
      "v": 121
    },
    {
      "midi": 64,
      "hit": false,
      "t": 95499.64799999962,
      "d": 222.87600000000384,
      "v": 115
    },
    {
      "midi": 69,
      "hit": false,
      "t": 95499.64799999962,
      "d": 222.87600000000384,
      "v": 84
    },
    {
      "midi": 57,
      "hit": false,
      "t": 95760.57599999962,
      "d": 222.87600000000384,
      "v": 110
    },
    {
      "midi": 61,
      "hit": false,
      "t": 95760.57599999962,
      "d": 222.87600000000384,
      "v": 123
    },
    {
      "midi": 64,
      "hit": false,
      "t": 95760.57599999962,
      "d": 222.87600000000384,
      "v": 110
    },
    {
      "midi": 69,
      "hit": false,
      "t": 95760.57599999962,
      "d": 222.87600000000384,
      "v": 84
    },
    {
      "midi": 57,
      "hit": false,
      "t": 96021.50399999962,
      "d": 222.87600000000384,
      "v": 101
    },
    {
      "midi": 62,
      "hit": false,
      "t": 96021.50399999962,
      "d": 222.87600000000384,
      "v": 110
    },
    {
      "midi": 66,
      "hit": false,
      "t": 96021.50399999962,
      "d": 222.87600000000384,
      "v": 99
    },
    {
      "midi": 69,
      "hit": false,
      "t": 96021.50399999962,
      "d": 222.87600000000384,
      "v": 84
    },
    {
      "midi": 57,
      "hit": false,
      "t": 96282.43199999962,
      "d": 222.87600000000384,
      "v": 106
    },
    {
      "midi": 62,
      "hit": false,
      "t": 96282.43199999962,
      "d": 222.87600000000384,
      "v": 110
    },
    {
      "midi": 66,
      "hit": false,
      "t": 96282.43199999962,
      "d": 222.87600000000384,
      "v": 90
    },
    {
      "midi": 69,
      "hit": false,
      "t": 96282.43199999962,
      "d": 222.87600000000384,
      "v": 80
    },
    {
      "midi": 57,
      "hit": false,
      "t": 96543.35999999962,
      "d": 222.87600000000384,
      "v": 97
    },
    {
      "midi": 62,
      "hit": false,
      "t": 96543.35999999962,
      "d": 222.87600000000384,
      "v": 110
    },
    {
      "midi": 66,
      "hit": false,
      "t": 96543.35999999962,
      "d": 222.87600000000384,
      "v": 103
    },
    {
      "midi": 69,
      "hit": false,
      "t": 96543.35999999962,
      "d": 222.87600000000384,
      "v": 89
    },
    {
      "midi": 57,
      "hit": false,
      "t": 96804.28799999962,
      "d": 222.87600000000384,
      "v": 101
    },
    {
      "midi": 62,
      "hit": false,
      "t": 96804.28799999962,
      "d": 222.87600000000384,
      "v": 110
    },
    {
      "midi": 66,
      "hit": false,
      "t": 96804.28799999962,
      "d": 222.87600000000384,
      "v": 99
    },
    {
      "midi": 69,
      "hit": false,
      "t": 96804.28799999962,
      "d": 222.87600000000384,
      "v": 80
    },
    {
      "midi": 57,
      "hit": false,
      "t": 97065.21599999962,
      "d": 222.87600000000384,
      "v": 101
    },
    {
      "midi": 62,
      "hit": false,
      "t": 97065.21599999962,
      "d": 222.87600000000384,
      "v": 110
    },
    {
      "midi": 66,
      "hit": false,
      "t": 97065.21599999962,
      "d": 222.87600000000384,
      "v": 103
    },
    {
      "midi": 69,
      "hit": false,
      "t": 97065.21599999962,
      "d": 222.87600000000384,
      "v": 93
    },
    {
      "midi": 57,
      "hit": false,
      "t": 97326.14399999962,
      "d": 222.87600000000384,
      "v": 101
    },
    {
      "midi": 62,
      "hit": false,
      "t": 97326.14399999962,
      "d": 222.87600000000384,
      "v": 115
    },
    {
      "midi": 66,
      "hit": false,
      "t": 97326.14399999962,
      "d": 222.87600000000384,
      "v": 99
    },
    {
      "midi": 69,
      "hit": false,
      "t": 97326.14399999962,
      "d": 222.87600000000384,
      "v": 84
    },
    {
      "midi": 57,
      "hit": false,
      "t": 97587.07199999962,
      "d": 222.87600000000384,
      "v": 101
    },
    {
      "midi": 62,
      "hit": false,
      "t": 97587.07199999962,
      "d": 222.87600000000384,
      "v": 121
    },
    {
      "midi": 66,
      "hit": false,
      "t": 97587.07199999962,
      "d": 222.87600000000384,
      "v": 99
    },
    {
      "midi": 69,
      "hit": false,
      "t": 97587.07199999962,
      "d": 222.87600000000384,
      "v": 84
    },
    {
      "midi": 57,
      "hit": false,
      "t": 97847.99999999962,
      "d": 222.87600000000384,
      "v": 106
    },
    {
      "midi": 62,
      "hit": false,
      "t": 97847.99999999962,
      "d": 222.87600000000384,
      "v": 121
    },
    {
      "midi": 66,
      "hit": false,
      "t": 97847.99999999962,
      "d": 222.87600000000384,
      "v": 103
    },
    {
      "midi": 69,
      "hit": false,
      "t": 97847.99999999962,
      "d": 222.87600000000384,
      "v": 93
    },
    {
      "midi": 57,
      "hit": false,
      "t": 98108.92799999962,
      "d": 222.87600000000384,
      "v": 101
    },
    {
      "midi": 62,
      "hit": false,
      "t": 98108.92799999962,
      "d": 222.87600000000384,
      "v": 121
    },
    {
      "midi": 64,
      "hit": false,
      "t": 98108.92799999962,
      "d": 222.87600000000384,
      "v": 110
    },
    {
      "midi": 69,
      "hit": false,
      "t": 98108.92799999962,
      "d": 222.87600000000384,
      "v": 80
    },
    {
      "midi": 57,
      "hit": false,
      "t": 98369.85599999962,
      "d": 222.87600000000384,
      "v": 106
    },
    {
      "midi": 62,
      "hit": false,
      "t": 98369.85599999962,
      "d": 222.87600000000384,
      "v": 121
    },
    {
      "midi": 64,
      "hit": false,
      "t": 98369.85599999962,
      "d": 222.87600000000384,
      "v": 106
    },
    {
      "midi": 69,
      "hit": false,
      "t": 98369.85599999962,
      "d": 222.87600000000384,
      "v": 84
    },
    {
      "midi": 57,
      "hit": false,
      "t": 98630.78399999962,
      "d": 222.87600000000384,
      "v": 110
    },
    {
      "midi": 62,
      "hit": false,
      "t": 98630.78399999962,
      "d": 222.87600000000384,
      "v": 121
    },
    {
      "midi": 64,
      "hit": false,
      "t": 98630.78399999962,
      "d": 222.87600000000384,
      "v": 110
    },
    {
      "midi": 69,
      "hit": false,
      "t": 98630.78399999962,
      "d": 222.87600000000384,
      "v": 80
    },
    {
      "midi": 57,
      "hit": false,
      "t": 98891.71199999962,
      "d": 222.87600000000384,
      "v": 106
    },
    {
      "midi": 62,
      "hit": false,
      "t": 98891.71199999962,
      "d": 222.87600000000384,
      "v": 115
    },
    {
      "midi": 64,
      "hit": false,
      "t": 98891.71199999962,
      "d": 222.87600000000384,
      "v": 101
    },
    {
      "midi": 69,
      "hit": false,
      "t": 98891.71199999962,
      "d": 222.87600000000384,
      "v": 71
    },
    {
      "midi": 57,
      "hit": false,
      "t": 99152.63999999962,
      "d": 222.87600000000384,
      "v": 97
    },
    {
      "midi": 61,
      "hit": false,
      "t": 99152.63999999962,
      "d": 222.87600000000384,
      "v": 121
    },
    {
      "midi": 64,
      "hit": false,
      "t": 99152.63999999962,
      "d": 222.87600000000384,
      "v": 106
    },
    {
      "midi": 69,
      "hit": false,
      "t": 99152.63999999962,
      "d": 222.87600000000384,
      "v": 80
    },
    {
      "midi": 57,
      "hit": false,
      "t": 99413.56799999962,
      "d": 222.87600000000384,
      "v": 93
    },
    {
      "midi": 61,
      "hit": false,
      "t": 99413.56799999962,
      "d": 222.87600000000384,
      "v": 123
    },
    {
      "midi": 64,
      "hit": false,
      "t": 99413.56799999962,
      "d": 222.87600000000384,
      "v": 110
    },
    {
      "midi": 69,
      "hit": false,
      "t": 99413.56799999962,
      "d": 222.87600000000384,
      "v": 84
    },
    {
      "midi": 57,
      "hit": false,
      "t": 99674.49599999962,
      "d": 222.87600000000384,
      "v": 101
    },
    {
      "midi": 61,
      "hit": false,
      "t": 99674.49599999962,
      "d": 222.87600000000384,
      "v": 121
    },
    {
      "midi": 64,
      "hit": false,
      "t": 99674.49599999962,
      "d": 222.87600000000384,
      "v": 115
    },
    {
      "midi": 69,
      "hit": false,
      "t": 99674.49599999962,
      "d": 222.87600000000384,
      "v": 84
    },
    {
      "midi": 57,
      "hit": false,
      "t": 99935.42399999962,
      "d": 222.87600000000384,
      "v": 97
    },
    {
      "midi": 61,
      "hit": false,
      "t": 99935.42399999962,
      "d": 222.87600000000384,
      "v": 121
    },
    {
      "midi": 64,
      "hit": false,
      "t": 99935.42399999962,
      "d": 222.87600000000384,
      "v": 115
    },
    {
      "midi": 69,
      "hit": false,
      "t": 99935.42399999962,
      "d": 222.87600000000384,
      "v": 93
    },
    {
      "midi": 57,
      "hit": false,
      "t": 100196.35199999962,
      "d": 222.87600000000384,
      "v": 106
    },
    {
      "midi": 61,
      "hit": false,
      "t": 100196.35199999962,
      "d": 222.87600000000384,
      "v": 115
    },
    {
      "midi": 64,
      "hit": false,
      "t": 100196.35199999962,
      "d": 222.87600000000384,
      "v": 115
    },
    {
      "midi": 69,
      "hit": false,
      "t": 100196.35199999962,
      "d": 222.87600000000384,
      "v": 89
    },
    {
      "midi": 57,
      "hit": false,
      "t": 100457.27999999962,
      "d": 222.87600000000384,
      "v": 106
    },
    {
      "midi": 61,
      "hit": false,
      "t": 100457.27999999962,
      "d": 222.87600000000384,
      "v": 121
    },
    {
      "midi": 64,
      "hit": false,
      "t": 100457.27999999962,
      "d": 222.87600000000384,
      "v": 115
    },
    {
      "midi": 69,
      "hit": false,
      "t": 100457.27999999962,
      "d": 222.87600000000384,
      "v": 84
    },
    {
      "midi": 57,
      "hit": false,
      "t": 100718.20799999962,
      "d": 222.87600000000384,
      "v": 106
    },
    {
      "midi": 61,
      "hit": false,
      "t": 100718.20799999962,
      "d": 222.87600000000384,
      "v": 121
    },
    {
      "midi": 64,
      "hit": false,
      "t": 100718.20799999962,
      "d": 222.87600000000384,
      "v": 110
    },
    {
      "midi": 69,
      "hit": false,
      "t": 100718.20799999962,
      "d": 222.87600000000384,
      "v": 84
    },
    {
      "midi": 57,
      "hit": false,
      "t": 100979.13599999962,
      "d": 222.87600000000384,
      "v": 106
    },
    {
      "midi": 61,
      "hit": false,
      "t": 100979.13599999962,
      "d": 222.87600000000384,
      "v": 121
    },
    {
      "midi": 64,
      "hit": false,
      "t": 100979.13599999962,
      "d": 222.87600000000384,
      "v": 115
    },
    {
      "midi": 69,
      "hit": false,
      "t": 100979.13599999962,
      "d": 222.87600000000384,
      "v": 89
    },
    {
      "midi": 57,
      "hit": false,
      "t": 101240.06399999962,
      "d": 222.87600000000384,
      "v": 101
    },
    {
      "midi": 61,
      "hit": false,
      "t": 101240.06399999962,
      "d": 222.87600000000384,
      "v": 115
    },
    {
      "midi": 64,
      "hit": false,
      "t": 101240.06399999962,
      "d": 222.87600000000384,
      "v": 115
    },
    {
      "midi": 69,
      "hit": false,
      "t": 101240.06399999962,
      "d": 222.87600000000384,
      "v": 84
    },
    {
      "midi": 57,
      "hit": false,
      "t": 101500.99199999962,
      "d": 222.87600000000384,
      "v": 101
    },
    {
      "midi": 61,
      "hit": false,
      "t": 101500.99199999962,
      "d": 222.87600000000384,
      "v": 121
    },
    {
      "midi": 64,
      "hit": false,
      "t": 101500.99199999962,
      "d": 222.87600000000384,
      "v": 110
    },
    {
      "midi": 69,
      "hit": false,
      "t": 101500.99199999962,
      "d": 222.87600000000384,
      "v": 84
    },
    {
      "midi": 57,
      "hit": false,
      "t": 101761.91999999962,
      "d": 222.87600000000384,
      "v": 101
    },
    {
      "midi": 61,
      "hit": false,
      "t": 101761.91999999962,
      "d": 222.87600000000384,
      "v": 115
    },
    {
      "midi": 64,
      "hit": false,
      "t": 101761.91999999962,
      "d": 222.87600000000384,
      "v": 115
    },
    {
      "midi": 69,
      "hit": false,
      "t": 101761.91999999962,
      "d": 222.87600000000384,
      "v": 93
    },
    {
      "midi": 57,
      "hit": false,
      "t": 102022.84799999962,
      "d": 222.87600000000384,
      "v": 110
    },
    {
      "midi": 61,
      "hit": false,
      "t": 102022.84799999962,
      "d": 222.87600000000384,
      "v": 121
    },
    {
      "midi": 64,
      "hit": false,
      "t": 102022.84799999962,
      "d": 222.87600000000384,
      "v": 115
    },
    {
      "midi": 69,
      "hit": false,
      "t": 102022.84799999962,
      "d": 222.87600000000384,
      "v": 89
    },
    {
      "midi": 59,
      "hit": false,
      "t": 102283.77599999962,
      "d": 222.87600000000384,
      "v": 110
    },
    {
      "midi": 62,
      "hit": false,
      "t": 102283.77599999962,
      "d": 222.87600000000384,
      "v": 115
    },
    {
      "midi": 66,
      "hit": false,
      "t": 102283.77599999962,
      "d": 222.87600000000384,
      "v": 99
    },
    {
      "midi": 69,
      "hit": false,
      "t": 102283.77599999962,
      "d": 222.87600000000384,
      "v": 84
    },
    {
      "midi": 59,
      "hit": false,
      "t": 102544.70399999962,
      "d": 222.87600000000384,
      "v": 101
    },
    {
      "midi": 62,
      "hit": false,
      "t": 102544.70399999962,
      "d": 222.87600000000384,
      "v": 101
    },
    {
      "midi": 66,
      "hit": false,
      "t": 102544.70399999962,
      "d": 222.87600000000384,
      "v": 99
    },
    {
      "midi": 69,
      "hit": false,
      "t": 102544.70399999962,
      "d": 222.87600000000384,
      "v": 98
    },
    {
      "midi": 59,
      "hit": false,
      "t": 102805.63199999962,
      "d": 222.87600000000384,
      "v": 115
    },
    {
      "midi": 62,
      "hit": false,
      "t": 102805.63199999962,
      "d": 222.87600000000384,
      "v": 115
    },
    {
      "midi": 66,
      "hit": false,
      "t": 102805.63199999962,
      "d": 222.87600000000384,
      "v": 108
    },
    {
      "midi": 69,
      "hit": false,
      "t": 102805.63199999962,
      "d": 222.87600000000384,
      "v": 89
    },
    {
      "midi": 59,
      "hit": false,
      "t": 103066.55999999962,
      "d": 222.87600000000384,
      "v": 115
    },
    {
      "midi": 62,
      "hit": false,
      "t": 103066.55999999962,
      "d": 222.87600000000384,
      "v": 106
    },
    {
      "midi": 66,
      "hit": false,
      "t": 103066.55999999962,
      "d": 222.87600000000384,
      "v": 108
    },
    {
      "midi": 69,
      "hit": false,
      "t": 103066.55999999962,
      "d": 222.87600000000384,
      "v": 84
    },
    {
      "midi": 57,
      "hit": false,
      "t": 103327.48799999962,
      "d": 222.87600000000384,
      "v": 97
    },
    {
      "midi": 61,
      "hit": false,
      "t": 103327.48799999962,
      "d": 222.87600000000384,
      "v": 121
    },
    {
      "midi": 64,
      "hit": false,
      "t": 103327.48799999962,
      "d": 222.87600000000384,
      "v": 110
    },
    {
      "midi": 69,
      "hit": false,
      "t": 103327.48799999962,
      "d": 222.87600000000384,
      "v": 80
    },
    {
      "midi": 57,
      "hit": false,
      "t": 103588.41599999962,
      "d": 222.87600000000384,
      "v": 101
    },
    {
      "midi": 61,
      "hit": false,
      "t": 103588.41599999962,
      "d": 222.87600000000384,
      "v": 121
    },
    {
      "midi": 64,
      "hit": false,
      "t": 103588.41599999962,
      "d": 222.87600000000384,
      "v": 115
    },
    {
      "midi": 69,
      "hit": false,
      "t": 103588.41599999962,
      "d": 222.87600000000384,
      "v": 80
    },
    {
      "midi": 57,
      "hit": false,
      "t": 103849.34399999962,
      "d": 222.87600000000384,
      "v": 101
    },
    {
      "midi": 61,
      "hit": false,
      "t": 103849.34399999962,
      "d": 222.87600000000384,
      "v": 121
    },
    {
      "midi": 64,
      "hit": false,
      "t": 103849.34399999962,
      "d": 222.87600000000384,
      "v": 110
    },
    {
      "midi": 69,
      "hit": false,
      "t": 103849.34399999962,
      "d": 222.87600000000384,
      "v": 89
    },
    {
      "midi": 57,
      "hit": false,
      "t": 104110.27199999962,
      "d": 222.87600000000384,
      "v": 101
    },
    {
      "midi": 61,
      "hit": false,
      "t": 104110.27199999962,
      "d": 222.87600000000384,
      "v": 121
    },
    {
      "midi": 64,
      "hit": false,
      "t": 104110.27199999962,
      "d": 222.87600000000384,
      "v": 115
    },
    {
      "midi": 69,
      "hit": false,
      "t": 104110.27199999962,
      "d": 222.87600000000384,
      "v": 80
    },
    {
      "midi": 59,
      "hit": false,
      "t": 104371.19999999962,
      "d": 222.87600000000384,
      "v": 115
    },
    {
      "midi": 62,
      "hit": false,
      "t": 104371.19999999962,
      "d": 222.87600000000384,
      "v": 115
    },
    {
      "midi": 66,
      "hit": false,
      "t": 104371.19999999962,
      "d": 222.87600000000384,
      "v": 99
    },
    {
      "midi": 69,
      "hit": false,
      "t": 104371.19999999962,
      "d": 222.87600000000384,
      "v": 84
    },
    {
      "midi": 59,
      "hit": false,
      "t": 104632.12799999962,
      "d": 222.87600000000384,
      "v": 115
    },
    {
      "midi": 62,
      "hit": false,
      "t": 104632.12799999962,
      "d": 222.87600000000384,
      "v": 115
    },
    {
      "midi": 66,
      "hit": false,
      "t": 104632.12799999962,
      "d": 222.87600000000384,
      "v": 99
    },
    {
      "midi": 69,
      "hit": false,
      "t": 104632.12799999962,
      "d": 222.87600000000384,
      "v": 84
    },
    {
      "midi": 59,
      "hit": false,
      "t": 104893.05599999962,
      "d": 222.87600000000384,
      "v": 110
    },
    {
      "midi": 62,
      "hit": false,
      "t": 104893.05599999962,
      "d": 222.87600000000384,
      "v": 110
    },
    {
      "midi": 66,
      "hit": false,
      "t": 104893.05599999962,
      "d": 222.87600000000384,
      "v": 90
    },
    {
      "midi": 69,
      "hit": false,
      "t": 104893.05599999962,
      "d": 222.87600000000384,
      "v": 84
    },
    {
      "midi": 59,
      "hit": false,
      "t": 105153.98399999962,
      "d": 222.87600000000384,
      "v": 115
    },
    {
      "midi": 62,
      "hit": false,
      "t": 105153.98399999962,
      "d": 222.87600000000384,
      "v": 110
    },
    {
      "midi": 66,
      "hit": false,
      "t": 105153.98399999962,
      "d": 222.87600000000384,
      "v": 94
    },
    {
      "midi": 69,
      "hit": false,
      "t": 105153.98399999962,
      "d": 222.87600000000384,
      "v": 84
    },
    {
      "midi": 59,
      "hit": false,
      "t": 105414.91199999962,
      "d": 222.87600000000384,
      "v": 115
    },
    {
      "midi": 62,
      "hit": false,
      "t": 105414.91199999962,
      "d": 222.87600000000384,
      "v": 106
    },
    {
      "midi": 66,
      "hit": false,
      "t": 105414.91199999962,
      "d": 222.87600000000384,
      "v": 99
    },
    {
      "midi": 69,
      "hit": false,
      "t": 105414.91199999962,
      "d": 222.87600000000384,
      "v": 89
    },
    {
      "midi": 59,
      "hit": false,
      "t": 105675.83999999962,
      "d": 222.87600000000384,
      "v": 121
    },
    {
      "midi": 62,
      "hit": false,
      "t": 105675.83999999962,
      "d": 222.87600000000384,
      "v": 110
    },
    {
      "midi": 66,
      "hit": false,
      "t": 105675.83999999962,
      "d": 222.87600000000384,
      "v": 108
    },
    {
      "midi": 69,
      "hit": false,
      "t": 105675.83999999962,
      "d": 222.87600000000384,
      "v": 89
    },
    {
      "midi": 59,
      "hit": false,
      "t": 105936.76799999962,
      "d": 222.87600000000384,
      "v": 121
    },
    {
      "midi": 62,
      "hit": false,
      "t": 105936.76799999962,
      "d": 222.87600000000384,
      "v": 121
    },
    {
      "midi": 66,
      "hit": false,
      "t": 105936.76799999962,
      "d": 222.87600000000384,
      "v": 108
    },
    {
      "midi": 69,
      "hit": false,
      "t": 105936.76799999962,
      "d": 222.87600000000384,
      "v": 89
    },
    {
      "midi": 59,
      "hit": false,
      "t": 106197.69599999962,
      "d": 222.87600000000384,
      "v": 121
    },
    {
      "midi": 62,
      "hit": false,
      "t": 106197.69599999962,
      "d": 222.87600000000384,
      "v": 110
    },
    {
      "midi": 66,
      "hit": false,
      "t": 106197.69599999962,
      "d": 222.87600000000384,
      "v": 108
    },
    {
      "midi": 69,
      "hit": false,
      "t": 106197.69599999962,
      "d": 222.87600000000384,
      "v": 89
    },
    {
      "midi": 57,
      "hit": false,
      "t": 106458.62399999962,
      "d": 744.7320000000036,
      "v": 121
    },
    {
      "midi": 60,
      "hit": false,
      "t": 106458.62399999962,
      "d": 744.7320000000036,
      "v": 121
    },
    {
      "midi": 64,
      "hit": false,
      "t": 106458.62399999962,
      "d": 744.7320000000036,
      "v": 101
    },
    {
      "midi": 69,
      "hit": false,
      "t": 106458.62399999962,
      "d": 744.7320000000036,
      "v": 89
    },
    {
      "midi": 55,
      "hit": false,
      "t": 107241.40799999962,
      "d": 222.87600000000384,
      "v": 121
    },
    {
      "midi": 59,
      "hit": false,
      "t": 107241.40799999962,
      "d": 222.87600000000384,
      "v": 121
    },
    {
      "midi": 62,
      "hit": false,
      "t": 107241.40799999962,
      "d": 222.87600000000384,
      "v": 106
    },
    {
      "midi": 67,
      "hit": false,
      "t": 107241.40799999962,
      "d": 222.87600000000384,
      "v": 80
    },
    {
      "midi": 55,
      "hit": false,
      "t": 107502.33599999962,
      "d": 1005.6600000000035,
      "v": 115
    },
    {
      "midi": 59,
      "hit": false,
      "t": 107502.33599999962,
      "d": 1005.6600000000035,
      "v": 121
    },
    {
      "midi": 62,
      "hit": false,
      "t": 107502.33599999962,
      "d": 1005.6600000000035,
      "v": 110
    },
    {
      "midi": 67,
      "hit": false,
      "t": 107502.33599999962,
      "d": 1005.6600000000035,
      "v": 98
    },
    {
      "midi": 57,
      "hit": false,
      "t": 108546.04799999962,
      "d": 222.87600000000384,
      "v": 92
    },
    {
      "midi": 61,
      "hit": false,
      "t": 108546.04799999962,
      "d": 222.87600000000384,
      "v": 92
    },
    {
      "midi": 64,
      "hit": false,
      "t": 108546.04799999962,
      "d": 222.87600000000384,
      "v": 95
    },
    {
      "midi": 69,
      "hit": false,
      "t": 108546.04799999962,
      "d": 222.87600000000384,
      "v": 63
    },
    {
      "midi": 57,
      "hit": false,
      "t": 108806.97599999962,
      "d": 222.87600000000384,
      "v": 92
    },
    {
      "midi": 61,
      "hit": false,
      "t": 108806.97599999962,
      "d": 222.87600000000384,
      "v": 101
    },
    {
      "midi": 64,
      "hit": false,
      "t": 108806.97599999962,
      "d": 222.87600000000384,
      "v": 95
    },
    {
      "midi": 69,
      "hit": false,
      "t": 108806.97599999962,
      "d": 222.87600000000384,
      "v": 68
    },
    {
      "midi": 57,
      "hit": false,
      "t": 109067.90399999962,
      "d": 222.87600000000384,
      "v": 92
    },
    {
      "midi": 61,
      "hit": false,
      "t": 109067.90399999962,
      "d": 222.87600000000384,
      "v": 110
    },
    {
      "midi": 64,
      "hit": false,
      "t": 109067.90399999962,
      "d": 222.87600000000384,
      "v": 86
    },
    {
      "midi": 69,
      "hit": false,
      "t": 109067.90399999962,
      "d": 222.87600000000384,
      "v": 59
    },
    {
      "midi": 57,
      "hit": false,
      "t": 109328.83199999962,
      "d": 222.87600000000384,
      "v": 92
    },
    {
      "midi": 61,
      "hit": false,
      "t": 109328.83199999962,
      "d": 222.87600000000384,
      "v": 105
    },
    {
      "midi": 64,
      "hit": false,
      "t": 109328.83199999962,
      "d": 222.87600000000384,
      "v": 95
    },
    {
      "midi": 69,
      "hit": false,
      "t": 109328.83199999962,
      "d": 222.87600000000384,
      "v": 63
    },
    {
      "midi": 57,
      "hit": false,
      "t": 109589.75999999962,
      "d": 222.87600000000384,
      "v": 96
    },
    {
      "midi": 61,
      "hit": false,
      "t": 109589.75999999962,
      "d": 222.87600000000384,
      "v": 110
    },
    {
      "midi": 64,
      "hit": false,
      "t": 109589.75999999962,
      "d": 222.87600000000384,
      "v": 95
    },
    {
      "midi": 69,
      "hit": false,
      "t": 109589.75999999962,
      "d": 222.87600000000384,
      "v": 63
    },
    {
      "midi": 57,
      "hit": false,
      "t": 109850.68799999962,
      "d": 222.87600000000384,
      "v": 96
    },
    {
      "midi": 61,
      "hit": false,
      "t": 109850.68799999962,
      "d": 222.87600000000384,
      "v": 110
    },
    {
      "midi": 64,
      "hit": false,
      "t": 109850.68799999962,
      "d": 222.87600000000384,
      "v": 99
    },
    {
      "midi": 69,
      "hit": false,
      "t": 109850.68799999962,
      "d": 222.87600000000384,
      "v": 55
    },
    {
      "midi": 57,
      "hit": false,
      "t": 110111.61599999962,
      "d": 222.87600000000384,
      "v": 96
    },
    {
      "midi": 61,
      "hit": false,
      "t": 110111.61599999962,
      "d": 222.87600000000384,
      "v": 110
    },
    {
      "midi": 64,
      "hit": false,
      "t": 110111.61599999962,
      "d": 222.87600000000384,
      "v": 95
    },
    {
      "midi": 69,
      "hit": false,
      "t": 110111.61599999962,
      "d": 222.87600000000384,
      "v": 63
    },
    {
      "midi": 57,
      "hit": false,
      "t": 110372.54399999962,
      "d": 222.87600000000384,
      "v": 101
    },
    {
      "midi": 61,
      "hit": false,
      "t": 110372.54399999962,
      "d": 222.87600000000384,
      "v": 116
    },
    {
      "midi": 64,
      "hit": false,
      "t": 110372.54399999962,
      "d": 222.87600000000384,
      "v": 90
    },
    {
      "midi": 69,
      "hit": false,
      "t": 110372.54399999962,
      "d": 222.87600000000384,
      "v": 63
    },
    {
      "midi": 55,
      "hit": false,
      "t": 110633.47199999962,
      "d": 222.87600000000384,
      "v": 110
    },
    {
      "midi": 59,
      "hit": false,
      "t": 110633.47199999962,
      "d": 222.87600000000384,
      "v": 110
    },
    {
      "midi": 62,
      "hit": false,
      "t": 110633.47199999962,
      "d": 222.87600000000384,
      "v": 95
    },
    {
      "midi": 67,
      "hit": false,
      "t": 110633.47199999962,
      "d": 222.87600000000384,
      "v": 63
    },
    {
      "midi": 55,
      "hit": false,
      "t": 110894.39999999962,
      "d": 222.87600000000384,
      "v": 116
    },
    {
      "midi": 59,
      "hit": false,
      "t": 110894.39999999962,
      "d": 222.87600000000384,
      "v": 110
    },
    {
      "midi": 62,
      "hit": false,
      "t": 110894.39999999962,
      "d": 222.87600000000384,
      "v": 99
    },
    {
      "midi": 67,
      "hit": false,
      "t": 110894.39999999962,
      "d": 222.87600000000384,
      "v": 72
    },
    {
      "midi": 55,
      "hit": false,
      "t": 111155.32799999962,
      "d": 222.87600000000384,
      "v": 116
    },
    {
      "midi": 59,
      "hit": false,
      "t": 111155.32799999962,
      "d": 222.87600000000384,
      "v": 110
    },
    {
      "midi": 62,
      "hit": false,
      "t": 111155.32799999962,
      "d": 222.87600000000384,
      "v": 95
    },
    {
      "midi": 67,
      "hit": false,
      "t": 111155.32799999962,
      "d": 222.87600000000384,
      "v": 63
    },
    {
      "midi": 55,
      "hit": false,
      "t": 111416.25599999962,
      "d": 222.87600000000384,
      "v": 116
    },
    {
      "midi": 59,
      "hit": false,
      "t": 111416.25599999962,
      "d": 222.87600000000384,
      "v": 110
    },
    {
      "midi": 62,
      "hit": false,
      "t": 111416.25599999962,
      "d": 222.87600000000384,
      "v": 104
    },
    {
      "midi": 67,
      "hit": false,
      "t": 111416.25599999962,
      "d": 222.87600000000384,
      "v": 72
    },
    {
      "midi": 55,
      "hit": false,
      "t": 111677.18399999962,
      "d": 222.87600000000384,
      "v": 116
    },
    {
      "midi": 59,
      "hit": false,
      "t": 111677.18399999962,
      "d": 222.87600000000384,
      "v": 110
    },
    {
      "midi": 62,
      "hit": false,
      "t": 111677.18399999962,
      "d": 222.87600000000384,
      "v": 99
    },
    {
      "midi": 67,
      "hit": false,
      "t": 111677.18399999962,
      "d": 222.87600000000384,
      "v": 63
    },
    {
      "midi": 55,
      "hit": false,
      "t": 111938.11199999962,
      "d": 222.87600000000384,
      "v": 116
    },
    {
      "midi": 59,
      "hit": false,
      "t": 111938.11199999962,
      "d": 222.87600000000384,
      "v": 105
    },
    {
      "midi": 62,
      "hit": false,
      "t": 111938.11199999962,
      "d": 222.87600000000384,
      "v": 104
    },
    {
      "midi": 67,
      "hit": false,
      "t": 111938.11199999962,
      "d": 222.87600000000384,
      "v": 68
    },
    {
      "midi": 55,
      "hit": false,
      "t": 112199.03999999962,
      "d": 222.87600000000384,
      "v": 110
    },
    {
      "midi": 59,
      "hit": false,
      "t": 112199.03999999962,
      "d": 222.87600000000384,
      "v": 105
    },
    {
      "midi": 62,
      "hit": false,
      "t": 112199.03999999962,
      "d": 222.87600000000384,
      "v": 104
    },
    {
      "midi": 67,
      "hit": false,
      "t": 112199.03999999962,
      "d": 222.87600000000384,
      "v": 72
    },
    {
      "midi": 55,
      "hit": false,
      "t": 112459.96799999962,
      "d": 222.87600000000384,
      "v": 116
    },
    {
      "midi": 59,
      "hit": false,
      "t": 112459.96799999962,
      "d": 222.87600000000384,
      "v": 110
    },
    {
      "midi": 62,
      "hit": false,
      "t": 112459.96799999962,
      "d": 222.87600000000384,
      "v": 99
    },
    {
      "midi": 67,
      "hit": false,
      "t": 112459.96799999962,
      "d": 222.87600000000384,
      "v": 72
    },
    {
      "midi": 57,
      "hit": false,
      "t": 112720.89599999962,
      "d": 222.87600000000384,
      "v": 101
    },
    {
      "midi": 61,
      "hit": false,
      "t": 112720.89599999962,
      "d": 222.87600000000384,
      "v": 116
    },
    {
      "midi": 64,
      "hit": false,
      "t": 112720.89599999962,
      "d": 222.87600000000384,
      "v": 99
    },
    {
      "midi": 69,
      "hit": false,
      "t": 112720.89599999962,
      "d": 222.87600000000384,
      "v": 63
    },
    {
      "midi": 57,
      "hit": false,
      "t": 112981.82399999961,
      "d": 222.87600000000384,
      "v": 96
    },
    {
      "midi": 61,
      "hit": false,
      "t": 112981.82399999961,
      "d": 222.87600000000384,
      "v": 116
    },
    {
      "midi": 64,
      "hit": false,
      "t": 112981.82399999961,
      "d": 222.87600000000384,
      "v": 90
    },
    {
      "midi": 69,
      "hit": false,
      "t": 112981.82399999961,
      "d": 222.87600000000384,
      "v": 63
    },
    {
      "midi": 57,
      "hit": false,
      "t": 113242.75199999961,
      "d": 222.87600000000384,
      "v": 101
    },
    {
      "midi": 61,
      "hit": false,
      "t": 113242.75199999961,
      "d": 222.87600000000384,
      "v": 116
    },
    {
      "midi": 64,
      "hit": false,
      "t": 113242.75199999961,
      "d": 222.87600000000384,
      "v": 104
    },
    {
      "midi": 69,
      "hit": false,
      "t": 113242.75199999961,
      "d": 222.87600000000384,
      "v": 63
    },
    {
      "midi": 57,
      "hit": false,
      "t": 113503.67999999961,
      "d": 222.87600000000384,
      "v": 101
    },
    {
      "midi": 61,
      "hit": false,
      "t": 113503.67999999961,
      "d": 222.87600000000384,
      "v": 116
    },
    {
      "midi": 64,
      "hit": false,
      "t": 113503.67999999961,
      "d": 222.87600000000384,
      "v": 104
    },
    {
      "midi": 69,
      "hit": false,
      "t": 113503.67999999961,
      "d": 222.87600000000384,
      "v": 63
    },
    {
      "midi": 57,
      "hit": false,
      "t": 113764.60799999961,
      "d": 222.87600000000384,
      "v": 105
    },
    {
      "midi": 61,
      "hit": false,
      "t": 113764.60799999961,
      "d": 222.87600000000384,
      "v": 110
    },
    {
      "midi": 64,
      "hit": false,
      "t": 113764.60799999961,
      "d": 222.87600000000384,
      "v": 110
    },
    {
      "midi": 69,
      "hit": false,
      "t": 113764.60799999961,
      "d": 222.87600000000384,
      "v": 72
    },
    {
      "midi": 57,
      "hit": false,
      "t": 114025.53599999961,
      "d": 222.87600000000384,
      "v": 101
    },
    {
      "midi": 61,
      "hit": false,
      "t": 114025.53599999961,
      "d": 222.87600000000384,
      "v": 110
    },
    {
      "midi": 64,
      "hit": false,
      "t": 114025.53599999961,
      "d": 222.87600000000384,
      "v": 104
    },
    {
      "midi": 69,
      "hit": false,
      "t": 114025.53599999961,
      "d": 222.87600000000384,
      "v": 72
    },
    {
      "midi": 57,
      "hit": false,
      "t": 114286.46399999961,
      "d": 222.87600000000384,
      "v": 110
    },
    {
      "midi": 61,
      "hit": false,
      "t": 114286.46399999961,
      "d": 222.87600000000384,
      "v": 122
    },
    {
      "midi": 64,
      "hit": false,
      "t": 114286.46399999961,
      "d": 222.87600000000384,
      "v": 104
    },
    {
      "midi": 69,
      "hit": false,
      "t": 114286.46399999961,
      "d": 222.87600000000384,
      "v": 68
    },
    {
      "midi": 57,
      "hit": false,
      "t": 114547.39199999961,
      "d": 222.87600000000384,
      "v": 101
    },
    {
      "midi": 61,
      "hit": false,
      "t": 114547.39199999961,
      "d": 222.87600000000384,
      "v": 110
    },
    {
      "midi": 64,
      "hit": false,
      "t": 114547.39199999961,
      "d": 222.87600000000384,
      "v": 104
    },
    {
      "midi": 69,
      "hit": false,
      "t": 114547.39199999961,
      "d": 222.87600000000384,
      "v": 63
    },
    {
      "midi": 55,
      "hit": false,
      "t": 114808.31999999961,
      "d": 222.87600000000384,
      "v": 110
    },
    {
      "midi": 59,
      "hit": false,
      "t": 114808.31999999961,
      "d": 222.87600000000384,
      "v": 110
    },
    {
      "midi": 62,
      "hit": false,
      "t": 114808.31999999961,
      "d": 222.87600000000384,
      "v": 95
    },
    {
      "midi": 67,
      "hit": false,
      "t": 114808.31999999961,
      "d": 222.87600000000384,
      "v": 68
    },
    {
      "midi": 55,
      "hit": false,
      "t": 115069.24799999961,
      "d": 222.87600000000384,
      "v": 116
    },
    {
      "midi": 59,
      "hit": false,
      "t": 115069.24799999961,
      "d": 222.87600000000384,
      "v": 101
    },
    {
      "midi": 62,
      "hit": false,
      "t": 115069.24799999961,
      "d": 222.87600000000384,
      "v": 99
    },
    {
      "midi": 67,
      "hit": false,
      "t": 115069.24799999961,
      "d": 222.87600000000384,
      "v": 59
    },
    {
      "midi": 55,
      "hit": false,
      "t": 115330.17599999961,
      "d": 222.87600000000384,
      "v": 122
    },
    {
      "midi": 59,
      "hit": false,
      "t": 115330.17599999961,
      "d": 222.87600000000384,
      "v": 110
    },
    {
      "midi": 62,
      "hit": false,
      "t": 115330.17599999961,
      "d": 222.87600000000384,
      "v": 104
    },
    {
      "midi": 67,
      "hit": false,
      "t": 115330.17599999961,
      "d": 222.87600000000384,
      "v": 68
    },
    {
      "midi": 55,
      "hit": false,
      "t": 115591.10399999961,
      "d": 222.87600000000384,
      "v": 116
    },
    {
      "midi": 59,
      "hit": false,
      "t": 115591.10399999961,
      "d": 222.87600000000384,
      "v": 105
    },
    {
      "midi": 62,
      "hit": false,
      "t": 115591.10399999961,
      "d": 222.87600000000384,
      "v": 104
    },
    {
      "midi": 67,
      "hit": false,
      "t": 115591.10399999961,
      "d": 222.87600000000384,
      "v": 68
    },
    {
      "midi": 55,
      "hit": false,
      "t": 115852.03199999961,
      "d": 222.87600000000384,
      "v": 110
    },
    {
      "midi": 59,
      "hit": false,
      "t": 115852.03199999961,
      "d": 222.87600000000384,
      "v": 110
    },
    {
      "midi": 62,
      "hit": false,
      "t": 115852.03199999961,
      "d": 222.87600000000384,
      "v": 110
    },
    {
      "midi": 67,
      "hit": false,
      "t": 115852.03199999961,
      "d": 222.87600000000384,
      "v": 72
    },
    {
      "midi": 55,
      "hit": false,
      "t": 116112.95999999961,
      "d": 222.87600000000384,
      "v": 116
    },
    {
      "midi": 59,
      "hit": false,
      "t": 116112.95999999961,
      "d": 222.87600000000384,
      "v": 110
    },
    {
      "midi": 62,
      "hit": false,
      "t": 116112.95999999961,
      "d": 222.87600000000384,
      "v": 95
    },
    {
      "midi": 67,
      "hit": false,
      "t": 116112.95999999961,
      "d": 222.87600000000384,
      "v": 68
    },
    {
      "midi": 55,
      "hit": false,
      "t": 116373.88799999961,
      "d": 222.87600000000384,
      "v": 116
    },
    {
      "midi": 59,
      "hit": false,
      "t": 116373.88799999961,
      "d": 222.87600000000384,
      "v": 105
    },
    {
      "midi": 62,
      "hit": false,
      "t": 116373.88799999961,
      "d": 222.87600000000384,
      "v": 110
    },
    {
      "midi": 67,
      "hit": false,
      "t": 116373.88799999961,
      "d": 222.87600000000384,
      "v": 63
    },
    {
      "midi": 55,
      "hit": false,
      "t": 116634.81599999961,
      "d": 222.87600000000384,
      "v": 116
    },
    {
      "midi": 59,
      "hit": false,
      "t": 116634.81599999961,
      "d": 222.87600000000384,
      "v": 110
    },
    {
      "midi": 62,
      "hit": false,
      "t": 116634.81599999961,
      "d": 222.87600000000384,
      "v": 110
    },
    {
      "midi": 67,
      "hit": false,
      "t": 116634.81599999961,
      "d": 222.87600000000384,
      "v": 63
    },
    {
      "midi": 57,
      "hit": false,
      "t": 116895.74399999961,
      "d": 222.87600000000384,
      "v": 110
    },
    {
      "midi": 61,
      "hit": false,
      "t": 116895.74399999961,
      "d": 222.87600000000384,
      "v": 116
    },
    {
      "midi": 64,
      "hit": false,
      "t": 116895.74399999961,
      "d": 222.87600000000384,
      "v": 90
    },
    {
      "midi": 69,
      "hit": false,
      "t": 116895.74399999961,
      "d": 222.87600000000384,
      "v": 59
    },
    {
      "midi": 57,
      "hit": false,
      "t": 117156.67199999961,
      "d": 222.87600000000384,
      "v": 105
    },
    {
      "midi": 61,
      "hit": false,
      "t": 117156.67199999961,
      "d": 222.87600000000384,
      "v": 116
    },
    {
      "midi": 64,
      "hit": false,
      "t": 117156.67199999961,
      "d": 222.87600000000384,
      "v": 104
    },
    {
      "midi": 69,
      "hit": false,
      "t": 117156.67199999961,
      "d": 222.87600000000384,
      "v": 59
    },
    {
      "midi": 57,
      "hit": false,
      "t": 117417.59999999961,
      "d": 222.87600000000384,
      "v": 105
    },
    {
      "midi": 61,
      "hit": false,
      "t": 117417.59999999961,
      "d": 222.87600000000384,
      "v": 116
    },
    {
      "midi": 64,
      "hit": false,
      "t": 117417.59999999961,
      "d": 222.87600000000384,
      "v": 99
    },
    {
      "midi": 69,
      "hit": false,
      "t": 117417.59999999961,
      "d": 222.87600000000384,
      "v": 59
    },
    {
      "midi": 57,
      "hit": false,
      "t": 117678.52799999961,
      "d": 222.87600000000384,
      "v": 96
    },
    {
      "midi": 61,
      "hit": false,
      "t": 117678.52799999961,
      "d": 222.87600000000384,
      "v": 116
    },
    {
      "midi": 64,
      "hit": false,
      "t": 117678.52799999961,
      "d": 222.87600000000384,
      "v": 104
    },
    {
      "midi": 69,
      "hit": false,
      "t": 117678.52799999961,
      "d": 222.87600000000384,
      "v": 68
    },
    {
      "midi": 57,
      "hit": false,
      "t": 117939.45599999961,
      "d": 222.87600000000384,
      "v": 101
    },
    {
      "midi": 61,
      "hit": false,
      "t": 117939.45599999961,
      "d": 222.87600000000384,
      "v": 116
    },
    {
      "midi": 64,
      "hit": false,
      "t": 117939.45599999961,
      "d": 222.87600000000384,
      "v": 110
    },
    {
      "midi": 69,
      "hit": false,
      "t": 117939.45599999961,
      "d": 222.87600000000384,
      "v": 63
    },
    {
      "midi": 57,
      "hit": false,
      "t": 118200.38399999961,
      "d": 222.87600000000384,
      "v": 92
    },
    {
      "midi": 61,
      "hit": false,
      "t": 118200.38399999961,
      "d": 222.87600000000384,
      "v": 116
    },
    {
      "midi": 64,
      "hit": false,
      "t": 118200.38399999961,
      "d": 222.87600000000384,
      "v": 104
    },
    {
      "midi": 69,
      "hit": false,
      "t": 118200.38399999961,
      "d": 222.87600000000384,
      "v": 63
    },
    {
      "midi": 57,
      "hit": false,
      "t": 118461.31199999961,
      "d": 222.87600000000384,
      "v": 110
    },
    {
      "midi": 61,
      "hit": false,
      "t": 118461.31199999961,
      "d": 222.87600000000384,
      "v": 116
    },
    {
      "midi": 64,
      "hit": false,
      "t": 118461.31199999961,
      "d": 222.87600000000384,
      "v": 104
    },
    {
      "midi": 69,
      "hit": false,
      "t": 118461.31199999961,
      "d": 222.87600000000384,
      "v": 63
    },
    {
      "midi": 57,
      "hit": false,
      "t": 118722.23999999961,
      "d": 222.87600000000384,
      "v": 110
    },
    {
      "midi": 61,
      "hit": false,
      "t": 118722.23999999961,
      "d": 222.87600000000384,
      "v": 116
    },
    {
      "midi": 64,
      "hit": false,
      "t": 118722.23999999961,
      "d": 222.87600000000384,
      "v": 110
    },
    {
      "midi": 69,
      "hit": false,
      "t": 118722.23999999961,
      "d": 222.87600000000384,
      "v": 68
    },
    {
      "midi": 55,
      "hit": false,
      "t": 118983.16799999961,
      "d": 222.87600000000384,
      "v": 116
    },
    {
      "midi": 59,
      "hit": false,
      "t": 118983.16799999961,
      "d": 222.87600000000384,
      "v": 116
    },
    {
      "midi": 62,
      "hit": false,
      "t": 118983.16799999961,
      "d": 222.87600000000384,
      "v": 99
    },
    {
      "midi": 67,
      "hit": false,
      "t": 118983.16799999961,
      "d": 222.87600000000384,
      "v": 68
    },
    {
      "midi": 55,
      "hit": false,
      "t": 119244.09599999961,
      "d": 222.87600000000384,
      "v": 122
    },
    {
      "midi": 59,
      "hit": false,
      "t": 119244.09599999961,
      "d": 222.87600000000384,
      "v": 116
    },
    {
      "midi": 62,
      "hit": false,
      "t": 119244.09599999961,
      "d": 222.87600000000384,
      "v": 99
    },
    {
      "midi": 67,
      "hit": false,
      "t": 119244.09599999961,
      "d": 222.87600000000384,
      "v": 68
    },
    {
      "midi": 55,
      "hit": false,
      "t": 119505.02399999961,
      "d": 222.87600000000384,
      "v": 116
    },
    {
      "midi": 59,
      "hit": false,
      "t": 119505.02399999961,
      "d": 222.87600000000384,
      "v": 105
    },
    {
      "midi": 62,
      "hit": false,
      "t": 119505.02399999961,
      "d": 222.87600000000384,
      "v": 110
    },
    {
      "midi": 67,
      "hit": false,
      "t": 119505.02399999961,
      "d": 222.87600000000384,
      "v": 77
    },
    {
      "midi": 55,
      "hit": false,
      "t": 119765.95199999961,
      "d": 222.87600000000384,
      "v": 122
    },
    {
      "midi": 59,
      "hit": false,
      "t": 119765.95199999961,
      "d": 222.87600000000384,
      "v": 110
    },
    {
      "midi": 62,
      "hit": false,
      "t": 119765.95199999961,
      "d": 222.87600000000384,
      "v": 104
    },
    {
      "midi": 67,
      "hit": false,
      "t": 119765.95199999961,
      "d": 222.87600000000384,
      "v": 63
    },
    {
      "midi": 55,
      "hit": false,
      "t": 120026.87999999961,
      "d": 222.87600000000384,
      "v": 116
    },
    {
      "midi": 59,
      "hit": false,
      "t": 120026.87999999961,
      "d": 222.87600000000384,
      "v": 110
    },
    {
      "midi": 62,
      "hit": false,
      "t": 120026.87999999961,
      "d": 222.87600000000384,
      "v": 104
    },
    {
      "midi": 67,
      "hit": false,
      "t": 120026.87999999961,
      "d": 222.87600000000384,
      "v": 72
    },
    {
      "midi": 55,
      "hit": false,
      "t": 120287.80799999961,
      "d": 222.87600000000384,
      "v": 116
    },
    {
      "midi": 59,
      "hit": false,
      "t": 120287.80799999961,
      "d": 222.87600000000384,
      "v": 110
    },
    {
      "midi": 62,
      "hit": false,
      "t": 120287.80799999961,
      "d": 222.87600000000384,
      "v": 104
    },
    {
      "midi": 67,
      "hit": false,
      "t": 120287.80799999961,
      "d": 222.87600000000384,
      "v": 63
    },
    {
      "midi": 55,
      "hit": false,
      "t": 120548.73599999961,
      "d": 222.87600000000384,
      "v": 116
    },
    {
      "midi": 59,
      "hit": false,
      "t": 120548.73599999961,
      "d": 222.87600000000384,
      "v": 110
    },
    {
      "midi": 62,
      "hit": false,
      "t": 120548.73599999961,
      "d": 222.87600000000384,
      "v": 104
    },
    {
      "midi": 67,
      "hit": false,
      "t": 120548.73599999961,
      "d": 222.87600000000384,
      "v": 63
    },
    {
      "midi": 55,
      "hit": false,
      "t": 120809.66399999961,
      "d": 222.87600000000384,
      "v": 122
    },
    {
      "midi": 59,
      "hit": false,
      "t": 120809.66399999961,
      "d": 222.87600000000384,
      "v": 116
    },
    {
      "midi": 62,
      "hit": false,
      "t": 120809.66399999961,
      "d": 222.87600000000384,
      "v": 104
    },
    {
      "midi": 67,
      "hit": false,
      "t": 120809.66399999961,
      "d": 222.87600000000384,
      "v": 72
    },
    {
      "midi": 57,
      "hit": false,
      "t": 121070.59199999961,
      "d": 222.87600000000384,
      "v": 101
    },
    {
      "midi": 61,
      "hit": false,
      "t": 121070.59199999961,
      "d": 222.87600000000384,
      "v": 116
    },
    {
      "midi": 64,
      "hit": false,
      "t": 121070.59199999961,
      "d": 222.87600000000384,
      "v": 104
    },
    {
      "midi": 69,
      "hit": false,
      "t": 121070.59199999961,
      "d": 222.87600000000384,
      "v": 72
    },
    {
      "midi": 57,
      "hit": false,
      "t": 121331.51999999961,
      "d": 222.87600000000384,
      "v": 105
    },
    {
      "midi": 61,
      "hit": false,
      "t": 121331.51999999961,
      "d": 222.87600000000384,
      "v": 110
    },
    {
      "midi": 64,
      "hit": false,
      "t": 121331.51999999961,
      "d": 222.87600000000384,
      "v": 99
    },
    {
      "midi": 69,
      "hit": false,
      "t": 121331.51999999961,
      "d": 222.87600000000384,
      "v": 63
    },
    {
      "midi": 57,
      "hit": false,
      "t": 121592.44799999961,
      "d": 222.87600000000384,
      "v": 101
    },
    {
      "midi": 61,
      "hit": false,
      "t": 121592.44799999961,
      "d": 222.87600000000384,
      "v": 116
    },
    {
      "midi": 64,
      "hit": false,
      "t": 121592.44799999961,
      "d": 222.87600000000384,
      "v": 99
    },
    {
      "midi": 69,
      "hit": false,
      "t": 121592.44799999961,
      "d": 222.87600000000384,
      "v": 63
    },
    {
      "midi": 57,
      "hit": false,
      "t": 121853.37599999961,
      "d": 222.87600000000384,
      "v": 105
    },
    {
      "midi": 61,
      "hit": false,
      "t": 121853.37599999961,
      "d": 222.87600000000384,
      "v": 116
    },
    {
      "midi": 64,
      "hit": false,
      "t": 121853.37599999961,
      "d": 222.87600000000384,
      "v": 90
    },
    {
      "midi": 69,
      "hit": false,
      "t": 121853.37599999961,
      "d": 222.87600000000384,
      "v": 63
    },
    {
      "midi": 57,
      "hit": false,
      "t": 122114.30399999961,
      "d": 222.87600000000384,
      "v": 101
    },
    {
      "midi": 61,
      "hit": false,
      "t": 122114.30399999961,
      "d": 222.87600000000384,
      "v": 116
    },
    {
      "midi": 64,
      "hit": false,
      "t": 122114.30399999961,
      "d": 222.87600000000384,
      "v": 99
    },
    {
      "midi": 69,
      "hit": false,
      "t": 122114.30399999961,
      "d": 222.87600000000384,
      "v": 63
    },
    {
      "midi": 57,
      "hit": false,
      "t": 122375.23199999961,
      "d": 222.87600000000384,
      "v": 101
    },
    {
      "midi": 61,
      "hit": false,
      "t": 122375.23199999961,
      "d": 222.87600000000384,
      "v": 116
    },
    {
      "midi": 64,
      "hit": false,
      "t": 122375.23199999961,
      "d": 222.87600000000384,
      "v": 99
    },
    {
      "midi": 69,
      "hit": false,
      "t": 122375.23199999961,
      "d": 222.87600000000384,
      "v": 63
    },
    {
      "midi": 57,
      "hit": false,
      "t": 122636.15999999961,
      "d": 222.87600000000384,
      "v": 96
    },
    {
      "midi": 61,
      "hit": false,
      "t": 122636.15999999961,
      "d": 222.87600000000384,
      "v": 116
    },
    {
      "midi": 64,
      "hit": false,
      "t": 122636.15999999961,
      "d": 222.87600000000384,
      "v": 104
    },
    {
      "midi": 69,
      "hit": false,
      "t": 122636.15999999961,
      "d": 222.87600000000384,
      "v": 59
    },
    {
      "midi": 57,
      "hit": false,
      "t": 122897.08799999961,
      "d": 222.87600000000384,
      "v": 92
    },
    {
      "midi": 61,
      "hit": false,
      "t": 122897.08799999961,
      "d": 222.87600000000384,
      "v": 110
    },
    {
      "midi": 64,
      "hit": false,
      "t": 122897.08799999961,
      "d": 222.87600000000384,
      "v": 104
    },
    {
      "midi": 69,
      "hit": false,
      "t": 122897.08799999961,
      "d": 222.87600000000384,
      "v": 68
    },
    {
      "midi": 55,
      "hit": false,
      "t": 123158.01599999961,
      "d": 222.87600000000384,
      "v": 116
    },
    {
      "midi": 59,
      "hit": false,
      "t": 123158.01599999961,
      "d": 222.87600000000384,
      "v": 110
    },
    {
      "midi": 62,
      "hit": false,
      "t": 123158.01599999961,
      "d": 222.87600000000384,
      "v": 99
    },
    {
      "midi": 67,
      "hit": false,
      "t": 123158.01599999961,
      "d": 222.87600000000384,
      "v": 72
    },
    {
      "midi": 55,
      "hit": false,
      "t": 123418.94399999961,
      "d": 222.87600000000384,
      "v": 110
    },
    {
      "midi": 59,
      "hit": false,
      "t": 123418.94399999961,
      "d": 222.87600000000384,
      "v": 110
    },
    {
      "midi": 62,
      "hit": false,
      "t": 123418.94399999961,
      "d": 222.87600000000384,
      "v": 104
    },
    {
      "midi": 67,
      "hit": false,
      "t": 123418.94399999961,
      "d": 222.87600000000384,
      "v": 72
    },
    {
      "midi": 55,
      "hit": false,
      "t": 123679.87199999961,
      "d": 222.87600000000384,
      "v": 116
    },
    {
      "midi": 59,
      "hit": false,
      "t": 123679.87199999961,
      "d": 222.87600000000384,
      "v": 105
    },
    {
      "midi": 62,
      "hit": false,
      "t": 123679.87199999961,
      "d": 222.87600000000384,
      "v": 104
    },
    {
      "midi": 67,
      "hit": false,
      "t": 123679.87199999961,
      "d": 222.87600000000384,
      "v": 63
    },
    {
      "midi": 55,
      "hit": false,
      "t": 123940.79999999961,
      "d": 222.87600000000384,
      "v": 116
    },
    {
      "midi": 59,
      "hit": false,
      "t": 123940.79999999961,
      "d": 222.87600000000384,
      "v": 110
    },
    {
      "midi": 62,
      "hit": false,
      "t": 123940.79999999961,
      "d": 222.87600000000384,
      "v": 104
    },
    {
      "midi": 67,
      "hit": false,
      "t": 123940.79999999961,
      "d": 222.87600000000384,
      "v": 68
    },
    {
      "midi": 55,
      "hit": false,
      "t": 124201.72799999961,
      "d": 222.87600000000384,
      "v": 116
    },
    {
      "midi": 59,
      "hit": false,
      "t": 124201.72799999961,
      "d": 222.87600000000384,
      "v": 105
    },
    {
      "midi": 62,
      "hit": false,
      "t": 124201.72799999961,
      "d": 222.87600000000384,
      "v": 104
    },
    {
      "midi": 67,
      "hit": false,
      "t": 124201.72799999961,
      "d": 222.87600000000384,
      "v": 68
    },
    {
      "midi": 55,
      "hit": false,
      "t": 124462.65599999961,
      "d": 222.87600000000384,
      "v": 116
    },
    {
      "midi": 59,
      "hit": false,
      "t": 124462.65599999961,
      "d": 222.87600000000384,
      "v": 110
    },
    {
      "midi": 62,
      "hit": false,
      "t": 124462.65599999961,
      "d": 222.87600000000384,
      "v": 104
    },
    {
      "midi": 67,
      "hit": false,
      "t": 124462.65599999961,
      "d": 222.87600000000384,
      "v": 72
    },
    {
      "midi": 55,
      "hit": false,
      "t": 124723.58399999961,
      "d": 222.87600000000384,
      "v": 122
    },
    {
      "midi": 59,
      "hit": false,
      "t": 124723.58399999961,
      "d": 222.87600000000384,
      "v": 110
    },
    {
      "midi": 62,
      "hit": false,
      "t": 124723.58399999961,
      "d": 222.87600000000384,
      "v": 110
    },
    {
      "midi": 67,
      "hit": false,
      "t": 124723.58399999961,
      "d": 222.87600000000384,
      "v": 72
    },
    {
      "midi": 55,
      "hit": false,
      "t": 124984.51199999961,
      "d": 222.87600000000384,
      "v": 122
    },
    {
      "midi": 59,
      "hit": false,
      "t": 124984.51199999961,
      "d": 222.87600000000384,
      "v": 110
    },
    {
      "midi": 62,
      "hit": false,
      "t": 124984.51199999961,
      "d": 222.87600000000384,
      "v": 104
    },
    {
      "midi": 67,
      "hit": false,
      "t": 124984.51199999961,
      "d": 222.87600000000384,
      "v": 68
    },
    {
      "midi": 57,
      "hit": false,
      "t": 125245.43999999961,
      "d": 222.87600000000384,
      "v": 96
    },
    {
      "midi": 61,
      "hit": false,
      "t": 125245.43999999961,
      "d": 222.87600000000384,
      "v": 116
    },
    {
      "midi": 64,
      "hit": false,
      "t": 125245.43999999961,
      "d": 222.87600000000384,
      "v": 104
    },
    {
      "midi": 69,
      "hit": false,
      "t": 125245.43999999961,
      "d": 222.87600000000384,
      "v": 72
    },
    {
      "midi": 57,
      "hit": false,
      "t": 125506.36799999961,
      "d": 222.87600000000384,
      "v": 105
    },
    {
      "midi": 61,
      "hit": false,
      "t": 125506.36799999961,
      "d": 222.87600000000384,
      "v": 122
    },
    {
      "midi": 64,
      "hit": false,
      "t": 125506.36799999961,
      "d": 222.87600000000384,
      "v": 99
    },
    {
      "midi": 69,
      "hit": false,
      "t": 125506.36799999961,
      "d": 222.87600000000384,
      "v": 59
    },
    {
      "midi": 57,
      "hit": false,
      "t": 125767.29599999961,
      "d": 222.87600000000384,
      "v": 96
    },
    {
      "midi": 61,
      "hit": false,
      "t": 125767.29599999961,
      "d": 222.87600000000384,
      "v": 116
    },
    {
      "midi": 64,
      "hit": false,
      "t": 125767.29599999961,
      "d": 222.87600000000384,
      "v": 104
    },
    {
      "midi": 69,
      "hit": false,
      "t": 125767.29599999961,
      "d": 222.87600000000384,
      "v": 68
    },
    {
      "midi": 57,
      "hit": false,
      "t": 126028.22399999961,
      "d": 222.87600000000384,
      "v": 101
    },
    {
      "midi": 61,
      "hit": false,
      "t": 126028.22399999961,
      "d": 222.87600000000384,
      "v": 122
    },
    {
      "midi": 64,
      "hit": false,
      "t": 126028.22399999961,
      "d": 222.87600000000384,
      "v": 99
    },
    {
      "midi": 69,
      "hit": false,
      "t": 126028.22399999961,
      "d": 222.87600000000384,
      "v": 63
    },
    {
      "midi": 57,
      "hit": false,
      "t": 126289.15199999961,
      "d": 222.87600000000384,
      "v": 105
    },
    {
      "midi": 61,
      "hit": false,
      "t": 126289.15199999961,
      "d": 222.87600000000384,
      "v": 122
    },
    {
      "midi": 64,
      "hit": false,
      "t": 126289.15199999961,
      "d": 222.87600000000384,
      "v": 110
    },
    {
      "midi": 69,
      "hit": false,
      "t": 126289.15199999961,
      "d": 222.87600000000384,
      "v": 77
    },
    {
      "midi": 57,
      "hit": false,
      "t": 126550.07999999961,
      "d": 222.87600000000384,
      "v": 101
    },
    {
      "midi": 61,
      "hit": false,
      "t": 126550.07999999961,
      "d": 222.87600000000384,
      "v": 116
    },
    {
      "midi": 64,
      "hit": false,
      "t": 126550.07999999961,
      "d": 222.87600000000384,
      "v": 99
    },
    {
      "midi": 69,
      "hit": false,
      "t": 126550.07999999961,
      "d": 222.87600000000384,
      "v": 72
    },
    {
      "midi": 57,
      "hit": false,
      "t": 126811.00799999961,
      "d": 222.87600000000384,
      "v": 96
    },
    {
      "midi": 61,
      "hit": false,
      "t": 126811.00799999961,
      "d": 222.87600000000384,
      "v": 116
    },
    {
      "midi": 64,
      "hit": false,
      "t": 126811.00799999961,
      "d": 222.87600000000384,
      "v": 99
    },
    {
      "midi": 69,
      "hit": false,
      "t": 126811.00799999961,
      "d": 222.87600000000384,
      "v": 72
    },
    {
      "midi": 57,
      "hit": false,
      "t": 127071.93599999961,
      "d": 222.87600000000384,
      "v": 110
    },
    {
      "midi": 61,
      "hit": false,
      "t": 127071.93599999961,
      "d": 222.87600000000384,
      "v": 116
    },
    {
      "midi": 64,
      "hit": false,
      "t": 127071.93599999961,
      "d": 222.87600000000384,
      "v": 104
    },
    {
      "midi": 69,
      "hit": false,
      "t": 127071.93599999961,
      "d": 222.87600000000384,
      "v": 68
    },
    {
      "midi": 55,
      "hit": false,
      "t": 127332.86399999961,
      "d": 222.87600000000384,
      "v": 116
    },
    {
      "midi": 59,
      "hit": false,
      "t": 127332.86399999961,
      "d": 222.87600000000384,
      "v": 116
    },
    {
      "midi": 62,
      "hit": false,
      "t": 127332.86399999961,
      "d": 222.87600000000384,
      "v": 104
    },
    {
      "midi": 67,
      "hit": false,
      "t": 127332.86399999961,
      "d": 222.87600000000384,
      "v": 72
    },
    {
      "midi": 55,
      "hit": false,
      "t": 127593.79199999961,
      "d": 222.87600000000384,
      "v": 122
    },
    {
      "midi": 59,
      "hit": false,
      "t": 127593.79199999961,
      "d": 222.87600000000384,
      "v": 110
    },
    {
      "midi": 62,
      "hit": false,
      "t": 127593.79199999961,
      "d": 222.87600000000384,
      "v": 110
    },
    {
      "midi": 67,
      "hit": false,
      "t": 127593.79199999961,
      "d": 222.87600000000384,
      "v": 63
    },
    {
      "midi": 55,
      "hit": false,
      "t": 127854.71999999961,
      "d": 222.87600000000384,
      "v": 122
    },
    {
      "midi": 59,
      "hit": false,
      "t": 127854.71999999961,
      "d": 222.87600000000384,
      "v": 116
    },
    {
      "midi": 62,
      "hit": false,
      "t": 127854.71999999961,
      "d": 222.87600000000384,
      "v": 110
    },
    {
      "midi": 67,
      "hit": false,
      "t": 127854.71999999961,
      "d": 222.87600000000384,
      "v": 72
    },
    {
      "midi": 55,
      "hit": false,
      "t": 128115.64799999961,
      "d": 222.87600000000384,
      "v": 116
    },
    {
      "midi": 59,
      "hit": false,
      "t": 128115.64799999961,
      "d": 222.87600000000384,
      "v": 116
    },
    {
      "midi": 62,
      "hit": false,
      "t": 128115.64799999961,
      "d": 222.87600000000384,
      "v": 104
    },
    {
      "midi": 67,
      "hit": false,
      "t": 128115.64799999961,
      "d": 222.87600000000384,
      "v": 72
    },
    {
      "midi": 55,
      "hit": false,
      "t": 128376.57599999961,
      "d": 222.87600000000384,
      "v": 110
    },
    {
      "midi": 59,
      "hit": false,
      "t": 128376.57599999961,
      "d": 222.87600000000384,
      "v": 110
    },
    {
      "midi": 62,
      "hit": false,
      "t": 128376.57599999961,
      "d": 222.87600000000384,
      "v": 104
    },
    {
      "midi": 67,
      "hit": false,
      "t": 128376.57599999961,
      "d": 222.87600000000384,
      "v": 63
    },
    {
      "midi": 55,
      "hit": false,
      "t": 128637.50399999961,
      "d": 222.87600000000384,
      "v": 116
    },
    {
      "midi": 59,
      "hit": false,
      "t": 128637.50399999961,
      "d": 222.87600000000384,
      "v": 110
    },
    {
      "midi": 62,
      "hit": false,
      "t": 128637.50399999961,
      "d": 222.87600000000384,
      "v": 110
    },
    {
      "midi": 67,
      "hit": false,
      "t": 128637.50399999961,
      "d": 222.87600000000384,
      "v": 72
    },
    {
      "midi": 55,
      "hit": false,
      "t": 128898.43199999961,
      "d": 222.87600000000384,
      "v": 116
    },
    {
      "midi": 59,
      "hit": false,
      "t": 128898.43199999961,
      "d": 222.87600000000384,
      "v": 105
    },
    {
      "midi": 62,
      "hit": false,
      "t": 128898.43199999961,
      "d": 222.87600000000384,
      "v": 104
    },
    {
      "midi": 67,
      "hit": false,
      "t": 128898.43199999961,
      "d": 222.87600000000384,
      "v": 72
    },
    {
      "midi": 55,
      "hit": false,
      "t": 129159.35999999961,
      "d": 222.87600000000384,
      "v": 122
    },
    {
      "midi": 59,
      "hit": false,
      "t": 129159.35999999961,
      "d": 222.87600000000384,
      "v": 110
    },
    {
      "midi": 62,
      "hit": false,
      "t": 129159.35999999961,
      "d": 222.87600000000384,
      "v": 110
    },
    {
      "midi": 67,
      "hit": false,
      "t": 129159.35999999961,
      "d": 222.87600000000384,
      "v": 72
    },
    {
      "midi": 62,
      "hit": false,
      "t": 129420.28799999961,
      "d": 1.087199999994482,
      "v": 99
    },
    {
      "midi": 55,
      "hit": false,
      "t": 129420.28799999961,
      "d": 222.8759999999893,
      "v": 92
    },
    {
      "midi": 59,
      "hit": false,
      "t": 129420.28799999961,
      "d": 222.8759999999893,
      "v": 101
    },
    {
      "midi": 67,
      "hit": false,
      "t": 129420.28799999961,
      "d": 222.8759999999893,
      "v": 63
    },
    {
      "midi": 62,
      "hit": false,
      "t": 129681.2159999996,
      "d": 1.087199999994482,
      "v": 104
    },
    {
      "midi": 55,
      "hit": false,
      "t": 129681.2159999996,
      "d": 222.8759999999893,
      "v": 92
    },
    {
      "midi": 59,
      "hit": false,
      "t": 129681.2159999996,
      "d": 222.8759999999893,
      "v": 101
    },
    {
      "midi": 67,
      "hit": false,
      "t": 129681.2159999996,
      "d": 222.8759999999893,
      "v": 63
    },
    {
      "midi": 62,
      "hit": false,
      "t": 129942.14399999958,
      "d": 1.087199999994482,
      "v": 104
    },
    {
      "midi": 55,
      "hit": false,
      "t": 129942.14399999958,
      "d": 222.8759999999893,
      "v": 96
    },
    {
      "midi": 59,
      "hit": false,
      "t": 129942.14399999958,
      "d": 222.8759999999893,
      "v": 92
    },
    {
      "midi": 67,
      "hit": false,
      "t": 129942.14399999958,
      "d": 222.8759999999893,
      "v": 72
    },
    {
      "midi": 62,
      "hit": false,
      "t": 130203.07199999956,
      "d": 1.087199999994482,
      "v": 99
    },
    {
      "midi": 55,
      "hit": false,
      "t": 130203.07199999956,
      "d": 222.8759999999893,
      "v": 88
    },
    {
      "midi": 59,
      "hit": false,
      "t": 130203.07199999956,
      "d": 222.8759999999893,
      "v": 96
    },
    {
      "midi": 67,
      "hit": false,
      "t": 130203.07199999956,
      "d": 222.8759999999893,
      "v": 63
    },
    {
      "midi": 62,
      "hit": false,
      "t": 130463.99999999955,
      "d": 1.087199999994482,
      "v": 104
    },
    {
      "midi": 55,
      "hit": false,
      "t": 130463.99999999955,
      "d": 222.8759999999893,
      "v": 96
    },
    {
      "midi": 59,
      "hit": false,
      "t": 130463.99999999955,
      "d": 222.8759999999893,
      "v": 101
    },
    {
      "midi": 67,
      "hit": false,
      "t": 130463.99999999955,
      "d": 222.8759999999893,
      "v": 68
    },
    {
      "midi": 62,
      "hit": false,
      "t": 130724.92799999953,
      "d": 1.087199999994482,
      "v": 99
    },
    {
      "midi": 55,
      "hit": false,
      "t": 130724.92799999953,
      "d": 222.8759999999893,
      "v": 96
    },
    {
      "midi": 59,
      "hit": false,
      "t": 130724.92799999953,
      "d": 222.8759999999893,
      "v": 105
    },
    {
      "midi": 67,
      "hit": false,
      "t": 130724.92799999953,
      "d": 222.8759999999893,
      "v": 63
    },
    {
      "midi": 62,
      "hit": false,
      "t": 130985.85599999952,
      "d": 1.087199999994482,
      "v": 104
    },
    {
      "midi": 55,
      "hit": false,
      "t": 130985.85599999952,
      "d": 222.87600000000384,
      "v": 96
    },
    {
      "midi": 59,
      "hit": false,
      "t": 130985.85599999952,
      "d": 222.87600000000384,
      "v": 96
    },
    {
      "midi": 67,
      "hit": false,
      "t": 130985.85599999952,
      "d": 222.87600000000384,
      "v": 63
    },
    {
      "midi": 62,
      "hit": false,
      "t": 131246.78399999952,
      "d": 1.0872000000090338,
      "v": 104
    },
    {
      "midi": 55,
      "hit": false,
      "t": 131246.78399999952,
      "d": 222.8760000000184,
      "v": 96
    },
    {
      "midi": 59,
      "hit": false,
      "t": 131246.78399999952,
      "d": 222.8760000000184,
      "v": 105
    },
    {
      "midi": 67,
      "hit": false,
      "t": 131246.78399999952,
      "d": 222.8760000000184,
      "v": 72
    },
    {
      "midi": 62,
      "hit": false,
      "t": 131507.71199999953,
      "d": 1.0872000000090338,
      "v": 105
    },
    {
      "midi": 57,
      "hit": false,
      "t": 131507.71199999953,
      "d": 222.8760000000184,
      "v": 92
    },
    {
      "midi": 67,
      "hit": false,
      "t": 131507.71199999953,
      "d": 222.8760000000184,
      "v": 63
    },
    {
      "midi": 62,
      "hit": false,
      "t": 131768.63999999955,
      "d": 1.0872000000090338,
      "v": 105
    },
    {
      "midi": 57,
      "hit": false,
      "t": 131768.63999999955,
      "d": 222.8760000000184,
      "v": 96
    },
    {
      "midi": 67,
      "hit": false,
      "t": 131768.63999999955,
      "d": 222.8760000000184,
      "v": 68
    },
    {
      "midi": 62,
      "hit": false,
      "t": 132029.56799999956,
      "d": 1.0872000000090338,
      "v": 104
    },
    {
      "midi": 57,
      "hit": false,
      "t": 132029.56799999956,
      "d": 222.8760000000184,
      "v": 92
    },
    {
      "midi": 67,
      "hit": false,
      "t": 132029.56799999956,
      "d": 222.8760000000184,
      "v": 63
    },
    {
      "midi": 62,
      "hit": false,
      "t": 132290.49599999958,
      "d": 1.0872000000090338,
      "v": 110
    },
    {
      "midi": 57,
      "hit": false,
      "t": 132290.49599999958,
      "d": 222.8760000000184,
      "v": 101
    },
    {
      "midi": 67,
      "hit": false,
      "t": 132290.49599999958,
      "d": 222.8760000000184,
      "v": 68
    },
    {
      "midi": 61,
      "hit": false,
      "t": 132551.4239999996,
      "d": 1.0872000000090338,
      "v": 116
    },
    {
      "midi": 57,
      "hit": false,
      "t": 132551.4239999996,
      "d": 222.8760000000184,
      "v": 96
    },
    {
      "midi": 67,
      "hit": false,
      "t": 132551.4239999996,
      "d": 222.8760000000184,
      "v": 77
    },
    {
      "midi": 61,
      "hit": false,
      "t": 132812.3519999996,
      "d": 1.0872000000090338,
      "v": 116
    },
    {
      "midi": 57,
      "hit": false,
      "t": 132812.3519999996,
      "d": 222.8760000000184,
      "v": 96
    },
    {
      "midi": 67,
      "hit": false,
      "t": 132812.3519999996,
      "d": 222.8760000000184,
      "v": 77
    },
    {
      "midi": 61,
      "hit": false,
      "t": 133073.27999999962,
      "d": 1.0872000000090338,
      "v": 116
    },
    {
      "midi": 57,
      "hit": false,
      "t": 133073.27999999962,
      "d": 222.8760000000184,
      "v": 96
    },
    {
      "midi": 67,
      "hit": false,
      "t": 133073.27999999962,
      "d": 222.8760000000184,
      "v": 83
    },
    {
      "midi": 61,
      "hit": false,
      "t": 133334.20799999963,
      "d": 1.0872000000090338,
      "v": 116
    },
    {
      "midi": 57,
      "hit": false,
      "t": 133334.20799999963,
      "d": 222.8760000000184,
      "v": 96
    },
    {
      "midi": 67,
      "hit": false,
      "t": 133334.20799999963,
      "d": 222.8760000000184,
      "v": 89
    },
    {
      "midi": 45,
      "hit": false,
      "t": 133595.13599999965,
      "d": 222.8759999999893,
      "v": 63
    },
    {
      "midi": 49,
      "hit": false,
      "t": 133595.13599999965,
      "d": 222.8759999999893,
      "v": 67
    },
    {
      "midi": 52,
      "hit": false,
      "t": 133595.13599999965,
      "d": 222.8759999999893,
      "v": 67
    },
    {
      "midi": 57,
      "hit": false,
      "t": 133595.13599999965,
      "d": 222.8759999999893,
      "v": 93
    },
    {
      "midi": 61,
      "hit": false,
      "t": 133595.13599999965,
      "d": 222.8759999999893,
      "v": 97
    },
    {
      "midi": 64,
      "hit": false,
      "t": 133595.13599999965,
      "d": 222.8759999999893,
      "v": 101
    },
    {
      "midi": 45,
      "hit": false,
      "t": 133856.06399999963,
      "d": 222.8759999999893,
      "v": 59
    },
    {
      "midi": 49,
      "hit": false,
      "t": 133856.06399999963,
      "d": 222.8759999999893,
      "v": 67
    },
    {
      "midi": 52,
      "hit": false,
      "t": 133856.06399999963,
      "d": 222.8759999999893,
      "v": 67
    },
    {
      "midi": 57,
      "hit": false,
      "t": 133856.06399999963,
      "d": 222.8759999999893,
      "v": 97
    },
    {
      "midi": 61,
      "hit": false,
      "t": 133856.06399999963,
      "d": 222.8759999999893,
      "v": 101
    },
    {
      "midi": 64,
      "hit": false,
      "t": 133856.06399999963,
      "d": 222.8759999999893,
      "v": 101
    },
    {
      "midi": 45,
      "hit": false,
      "t": 134116.99199999962,
      "d": 222.8759999999893,
      "v": 67
    },
    {
      "midi": 49,
      "hit": false,
      "t": 134116.99199999962,
      "d": 222.8759999999893,
      "v": 76
    },
    {
      "midi": 52,
      "hit": false,
      "t": 134116.99199999962,
      "d": 222.8759999999893,
      "v": 76
    },
    {
      "midi": 57,
      "hit": false,
      "t": 134116.99199999962,
      "d": 222.8759999999893,
      "v": 101
    },
    {
      "midi": 61,
      "hit": false,
      "t": 134116.99199999962,
      "d": 222.8759999999893,
      "v": 106
    },
    {
      "midi": 64,
      "hit": false,
      "t": 134116.99199999962,
      "d": 222.8759999999893,
      "v": 101
    },
    {
      "midi": 45,
      "hit": false,
      "t": 134377.9199999996,
      "d": 222.8759999999893,
      "v": 67
    },
    {
      "midi": 49,
      "hit": false,
      "t": 134377.9199999996,
      "d": 222.8759999999893,
      "v": 72
    },
    {
      "midi": 52,
      "hit": false,
      "t": 134377.9199999996,
      "d": 222.8759999999893,
      "v": 72
    },
    {
      "midi": 57,
      "hit": false,
      "t": 134377.9199999996,
      "d": 222.8759999999893,
      "v": 106
    },
    {
      "midi": 61,
      "hit": false,
      "t": 134377.9199999996,
      "d": 222.8759999999893,
      "v": 101
    },
    {
      "midi": 64,
      "hit": false,
      "t": 134377.9199999996,
      "d": 222.8759999999893,
      "v": 101
    },
    {
      "midi": 45,
      "hit": false,
      "t": 134638.8479999996,
      "d": 222.8759999999893,
      "v": 63
    },
    {
      "midi": 49,
      "hit": false,
      "t": 134638.8479999996,
      "d": 222.8759999999893,
      "v": 63
    },
    {
      "midi": 52,
      "hit": false,
      "t": 134638.8479999996,
      "d": 222.8759999999893,
      "v": 67
    },
    {
      "midi": 57,
      "hit": false,
      "t": 134638.8479999996,
      "d": 222.8759999999893,
      "v": 97
    },
    {
      "midi": 61,
      "hit": false,
      "t": 134638.8479999996,
      "d": 222.8759999999893,
      "v": 101
    },
    {
      "midi": 64,
      "hit": false,
      "t": 134638.8479999996,
      "d": 222.8759999999893,
      "v": 106
    },
    {
      "midi": 45,
      "hit": false,
      "t": 134899.77599999958,
      "d": 222.8759999999893,
      "v": 67
    },
    {
      "midi": 49,
      "hit": false,
      "t": 134899.77599999958,
      "d": 222.8759999999893,
      "v": 67
    },
    {
      "midi": 52,
      "hit": false,
      "t": 134899.77599999958,
      "d": 222.8759999999893,
      "v": 76
    },
    {
      "midi": 57,
      "hit": false,
      "t": 134899.77599999958,
      "d": 222.8759999999893,
      "v": 97
    },
    {
      "midi": 61,
      "hit": false,
      "t": 134899.77599999958,
      "d": 222.8759999999893,
      "v": 101
    },
    {
      "midi": 64,
      "hit": false,
      "t": 134899.77599999958,
      "d": 222.8759999999893,
      "v": 101
    },
    {
      "midi": 45,
      "hit": false,
      "t": 135160.70399999956,
      "d": 222.8759999999893,
      "v": 72
    },
    {
      "midi": 49,
      "hit": false,
      "t": 135160.70399999956,
      "d": 222.8759999999893,
      "v": 72
    },
    {
      "midi": 52,
      "hit": false,
      "t": 135160.70399999956,
      "d": 222.8759999999893,
      "v": 76
    },
    {
      "midi": 57,
      "hit": false,
      "t": 135160.70399999956,
      "d": 222.8759999999893,
      "v": 97
    },
    {
      "midi": 61,
      "hit": false,
      "t": 135160.70399999956,
      "d": 222.8759999999893,
      "v": 101
    },
    {
      "midi": 64,
      "hit": false,
      "t": 135160.70399999956,
      "d": 222.8759999999893,
      "v": 101
    },
    {
      "midi": 45,
      "hit": false,
      "t": 135421.63199999955,
      "d": 222.8759999999893,
      "v": 63
    },
    {
      "midi": 49,
      "hit": false,
      "t": 135421.63199999955,
      "d": 222.8759999999893,
      "v": 72
    },
    {
      "midi": 52,
      "hit": false,
      "t": 135421.63199999955,
      "d": 222.8759999999893,
      "v": 76
    },
    {
      "midi": 57,
      "hit": false,
      "t": 135421.63199999955,
      "d": 222.8759999999893,
      "v": 97
    },
    {
      "midi": 61,
      "hit": false,
      "t": 135421.63199999955,
      "d": 222.8759999999893,
      "v": 101
    },
    {
      "midi": 64,
      "hit": false,
      "t": 135421.63199999955,
      "d": 222.8759999999893,
      "v": 97
    },
    {
      "midi": 47,
      "hit": false,
      "t": 135682.55999999953,
      "d": 222.8759999999893,
      "v": 63
    },
    {
      "midi": 50,
      "hit": false,
      "t": 135682.55999999953,
      "d": 222.8759999999893,
      "v": 72
    },
    {
      "midi": 54,
      "hit": false,
      "t": 135682.55999999953,
      "d": 222.8759999999893,
      "v": 63
    },
    {
      "midi": 59,
      "hit": false,
      "t": 135682.55999999953,
      "d": 222.8759999999893,
      "v": 101
    },
    {
      "midi": 62,
      "hit": false,
      "t": 135682.55999999953,
      "d": 222.8759999999893,
      "v": 101
    },
    {
      "midi": 66,
      "hit": false,
      "t": 135682.55999999953,
      "d": 222.8759999999893,
      "v": 77
    },
    {
      "midi": 47,
      "hit": false,
      "t": 135943.48799999952,
      "d": 222.8759999999893,
      "v": 63
    },
    {
      "midi": 50,
      "hit": false,
      "t": 135943.48799999952,
      "d": 222.8759999999893,
      "v": 72
    },
    {
      "midi": 54,
      "hit": false,
      "t": 135943.48799999952,
      "d": 222.8759999999893,
      "v": 72
    },
    {
      "midi": 59,
      "hit": false,
      "t": 135943.48799999952,
      "d": 222.8759999999893,
      "v": 101
    },
    {
      "midi": 62,
      "hit": false,
      "t": 135943.48799999952,
      "d": 222.8759999999893,
      "v": 101
    },
    {
      "midi": 66,
      "hit": false,
      "t": 135943.48799999952,
      "d": 222.8759999999893,
      "v": 81
    },
    {
      "midi": 47,
      "hit": false,
      "t": 136204.4159999995,
      "d": 222.8759999999893,
      "v": 67
    },
    {
      "midi": 50,
      "hit": false,
      "t": 136204.4159999995,
      "d": 222.8759999999893,
      "v": 72
    },
    {
      "midi": 54,
      "hit": false,
      "t": 136204.4159999995,
      "d": 222.8759999999893,
      "v": 72
    },
    {
      "midi": 59,
      "hit": false,
      "t": 136204.4159999995,
      "d": 222.8759999999893,
      "v": 97
    },
    {
      "midi": 62,
      "hit": false,
      "t": 136204.4159999995,
      "d": 222.8759999999893,
      "v": 101
    },
    {
      "midi": 66,
      "hit": false,
      "t": 136204.4159999995,
      "d": 222.8759999999893,
      "v": 86
    },
    {
      "midi": 47,
      "hit": false,
      "t": 136465.3439999995,
      "d": 222.8759999999893,
      "v": 67
    },
    {
      "midi": 50,
      "hit": false,
      "t": 136465.3439999995,
      "d": 222.8759999999893,
      "v": 72
    },
    {
      "midi": 54,
      "hit": false,
      "t": 136465.3439999995,
      "d": 222.8759999999893,
      "v": 72
    },
    {
      "midi": 59,
      "hit": false,
      "t": 136465.3439999995,
      "d": 222.8759999999893,
      "v": 101
    },
    {
      "midi": 62,
      "hit": false,
      "t": 136465.3439999995,
      "d": 222.8759999999893,
      "v": 110
    },
    {
      "midi": 66,
      "hit": false,
      "t": 136465.3439999995,
      "d": 222.8759999999893,
      "v": 90
    },
    {
      "midi": 47,
      "hit": false,
      "t": 136726.27199999947,
      "d": 222.8759999999893,
      "v": 72
    },
    {
      "midi": 50,
      "hit": false,
      "t": 136726.27199999947,
      "d": 222.8759999999893,
      "v": 81
    },
    {
      "midi": 54,
      "hit": false,
      "t": 136726.27199999947,
      "d": 222.8759999999893,
      "v": 72
    },
    {
      "midi": 59,
      "hit": false,
      "t": 136726.27199999947,
      "d": 222.8759999999893,
      "v": 101
    },
    {
      "midi": 62,
      "hit": false,
      "t": 136726.27199999947,
      "d": 222.8759999999893,
      "v": 106
    },
    {
      "midi": 66,
      "hit": false,
      "t": 136726.27199999947,
      "d": 222.8759999999893,
      "v": 90
    },
    {
      "midi": 47,
      "hit": false,
      "t": 136987.19999999946,
      "d": 222.8759999999893,
      "v": 67
    },
    {
      "midi": 50,
      "hit": false,
      "t": 136987.19999999946,
      "d": 222.8759999999893,
      "v": 81
    },
    {
      "midi": 54,
      "hit": false,
      "t": 136987.19999999946,
      "d": 222.8759999999893,
      "v": 72
    },
    {
      "midi": 59,
      "hit": false,
      "t": 136987.19999999946,
      "d": 222.8759999999893,
      "v": 97
    },
    {
      "midi": 62,
      "hit": false,
      "t": 136987.19999999946,
      "d": 222.8759999999893,
      "v": 106
    },
    {
      "midi": 66,
      "hit": false,
      "t": 136987.19999999946,
      "d": 222.8759999999893,
      "v": 99
    },
    {
      "midi": 47,
      "hit": false,
      "t": 137248.12799999944,
      "d": 222.8759999999893,
      "v": 72
    },
    {
      "midi": 50,
      "hit": false,
      "t": 137248.12799999944,
      "d": 222.8759999999893,
      "v": 76
    },
    {
      "midi": 54,
      "hit": false,
      "t": 137248.12799999944,
      "d": 222.8759999999893,
      "v": 67
    },
    {
      "midi": 59,
      "hit": false,
      "t": 137248.12799999944,
      "d": 222.8759999999893,
      "v": 101
    },
    {
      "midi": 62,
      "hit": false,
      "t": 137248.12799999944,
      "d": 222.8759999999893,
      "v": 106
    },
    {
      "midi": 66,
      "hit": false,
      "t": 137248.12799999944,
      "d": 222.8759999999893,
      "v": 94
    },
    {
      "midi": 47,
      "hit": false,
      "t": 137509.05599999943,
      "d": 222.8759999999893,
      "v": 76
    },
    {
      "midi": 50,
      "hit": false,
      "t": 137509.05599999943,
      "d": 222.8759999999893,
      "v": 87
    },
    {
      "midi": 54,
      "hit": false,
      "t": 137509.05599999943,
      "d": 222.8759999999893,
      "v": 67
    },
    {
      "midi": 59,
      "hit": false,
      "t": 137509.05599999943,
      "d": 222.8759999999893,
      "v": 101
    },
    {
      "midi": 62,
      "hit": false,
      "t": 137509.05599999943,
      "d": 222.8759999999893,
      "v": 110
    },
    {
      "midi": 66,
      "hit": false,
      "t": 137509.05599999943,
      "d": 222.8759999999893,
      "v": 94
    },
    {
      "midi": 47,
      "hit": false,
      "t": 137769.98399999941,
      "d": 222.8759999999893,
      "v": 67
    },
    {
      "midi": 50,
      "hit": false,
      "t": 137769.98399999941,
      "d": 222.8759999999893,
      "v": 76
    },
    {
      "midi": 55,
      "hit": false,
      "t": 137769.98399999941,
      "d": 222.8759999999893,
      "v": 74
    },
    {
      "midi": 59,
      "hit": false,
      "t": 137769.98399999941,
      "d": 222.8759999999893,
      "v": 97
    },
    {
      "midi": 62,
      "hit": false,
      "t": 137769.98399999941,
      "d": 222.8759999999893,
      "v": 106
    },
    {
      "midi": 66,
      "hit": false,
      "t": 137769.98399999941,
      "d": 222.8759999999893,
      "v": 94
    },
    {
      "midi": 47,
      "hit": false,
      "t": 138030.9119999994,
      "d": 222.8759999999893,
      "v": 76
    },
    {
      "midi": 50,
      "hit": false,
      "t": 138030.9119999994,
      "d": 222.8759999999893,
      "v": 81
    },
    {
      "midi": 55,
      "hit": false,
      "t": 138030.9119999994,
      "d": 222.8759999999893,
      "v": 70
    },
    {
      "midi": 59,
      "hit": false,
      "t": 138030.9119999994,
      "d": 222.8759999999893,
      "v": 106
    },
    {
      "midi": 62,
      "hit": false,
      "t": 138030.9119999994,
      "d": 222.8759999999893,
      "v": 115
    },
    {
      "midi": 66,
      "hit": false,
      "t": 138030.9119999994,
      "d": 222.8759999999893,
      "v": 94
    },
    {
      "midi": 47,
      "hit": false,
      "t": 138291.83999999939,
      "d": 222.8759999999893,
      "v": 67
    },
    {
      "midi": 50,
      "hit": false,
      "t": 138291.83999999939,
      "d": 222.8759999999893,
      "v": 76
    },
    {
      "midi": 55,
      "hit": false,
      "t": 138291.83999999939,
      "d": 222.8759999999893,
      "v": 74
    },
    {
      "midi": 59,
      "hit": false,
      "t": 138291.83999999939,
      "d": 222.8759999999893,
      "v": 101
    },
    {
      "midi": 62,
      "hit": false,
      "t": 138291.83999999939,
      "d": 222.8759999999893,
      "v": 101
    },
    {
      "midi": 66,
      "hit": false,
      "t": 138291.83999999939,
      "d": 222.8759999999893,
      "v": 94
    },
    {
      "midi": 47,
      "hit": false,
      "t": 138552.76799999937,
      "d": 222.8759999999893,
      "v": 67
    },
    {
      "midi": 50,
      "hit": false,
      "t": 138552.76799999937,
      "d": 222.8759999999893,
      "v": 76
    },
    {
      "midi": 55,
      "hit": false,
      "t": 138552.76799999937,
      "d": 222.8759999999893,
      "v": 74
    },
    {
      "midi": 59,
      "hit": false,
      "t": 138552.76799999937,
      "d": 222.8759999999893,
      "v": 97
    },
    {
      "midi": 62,
      "hit": false,
      "t": 138552.76799999937,
      "d": 222.8759999999893,
      "v": 106
    },
    {
      "midi": 66,
      "hit": false,
      "t": 138552.76799999937,
      "d": 222.8759999999893,
      "v": 94
    },
    {
      "midi": 47,
      "hit": false,
      "t": 138813.69599999936,
      "d": 222.8759999999893,
      "v": 67
    },
    {
      "midi": 50,
      "hit": false,
      "t": 138813.69599999936,
      "d": 222.8759999999893,
      "v": 72
    },
    {
      "midi": 55,
      "hit": false,
      "t": 138813.69599999936,
      "d": 222.8759999999893,
      "v": 66
    },
    {
      "midi": 59,
      "hit": false,
      "t": 138813.69599999936,
      "d": 222.8759999999893,
      "v": 110
    },
    {
      "midi": 62,
      "hit": false,
      "t": 138813.69599999936,
      "d": 222.8759999999893,
      "v": 115
    },
    {
      "midi": 66,
      "hit": false,
      "t": 138813.69599999936,
      "d": 222.8759999999893,
      "v": 99
    },
    {
      "midi": 47,
      "hit": false,
      "t": 139074.62399999934,
      "d": 222.8759999999893,
      "v": 72
    },
    {
      "midi": 50,
      "hit": false,
      "t": 139074.62399999934,
      "d": 222.8759999999893,
      "v": 76
    },
    {
      "midi": 55,
      "hit": false,
      "t": 139074.62399999934,
      "d": 222.8759999999893,
      "v": 70
    },
    {
      "midi": 59,
      "hit": false,
      "t": 139074.62399999934,
      "d": 222.8759999999893,
      "v": 106
    },
    {
      "midi": 62,
      "hit": false,
      "t": 139074.62399999934,
      "d": 222.8759999999893,
      "v": 115
    },
    {
      "midi": 66,
      "hit": false,
      "t": 139074.62399999934,
      "d": 222.8759999999893,
      "v": 90
    },
    {
      "midi": 47,
      "hit": false,
      "t": 139335.55199999933,
      "d": 222.8759999999893,
      "v": 81
    },
    {
      "midi": 50,
      "hit": false,
      "t": 139335.55199999933,
      "d": 222.8759999999893,
      "v": 81
    },
    {
      "midi": 55,
      "hit": false,
      "t": 139335.55199999933,
      "d": 222.8759999999893,
      "v": 74
    },
    {
      "midi": 59,
      "hit": false,
      "t": 139335.55199999933,
      "d": 222.8759999999893,
      "v": 101
    },
    {
      "midi": 62,
      "hit": false,
      "t": 139335.55199999933,
      "d": 222.8759999999893,
      "v": 121
    },
    {
      "midi": 66,
      "hit": false,
      "t": 139335.55199999933,
      "d": 222.8759999999893,
      "v": 94
    },
    {
      "midi": 47,
      "hit": false,
      "t": 139596.4799999993,
      "d": 222.8759999999893,
      "v": 81
    },
    {
      "midi": 50,
      "hit": false,
      "t": 139596.4799999993,
      "d": 222.8759999999893,
      "v": 87
    },
    {
      "midi": 55,
      "hit": false,
      "t": 139596.4799999993,
      "d": 222.8759999999893,
      "v": 79
    },
    {
      "midi": 59,
      "hit": false,
      "t": 139596.4799999993,
      "d": 222.8759999999893,
      "v": 106
    },
    {
      "midi": 62,
      "hit": false,
      "t": 139596.4799999993,
      "d": 222.8759999999893,
      "v": 110
    },
    {
      "midi": 66,
      "hit": false,
      "t": 139596.4799999993,
      "d": 222.8759999999893,
      "v": 99
    },
    {
      "midi": 57,
      "hit": false,
      "t": 139857.4079999993,
      "d": 1.0872000000090338,
      "v": 101
    },
    {
      "midi": 50,
      "hit": false,
      "t": 139857.4079999993,
      "d": 222.8760000000184,
      "v": 67
    },
    {
      "midi": 52,
      "hit": false,
      "t": 139857.4079999993,
      "d": 222.8760000000184,
      "v": 76
    },
    {
      "midi": 62,
      "hit": false,
      "t": 139857.4079999993,
      "d": 222.8760000000184,
      "v": 97
    },
    {
      "midi": 66,
      "hit": false,
      "t": 139857.4079999993,
      "d": 222.8760000000184,
      "v": 81
    },
    {
      "midi": 57,
      "hit": false,
      "t": 140118.3359999993,
      "d": 1.0872000000090338,
      "v": 93
    },
    {
      "midi": 50,
      "hit": false,
      "t": 140118.3359999993,
      "d": 222.8760000000184,
      "v": 67
    },
    {
      "midi": 52,
      "hit": false,
      "t": 140118.3359999993,
      "d": 222.8760000000184,
      "v": 81
    },
    {
      "midi": 62,
      "hit": false,
      "t": 140118.3359999993,
      "d": 222.8760000000184,
      "v": 101
    },
    {
      "midi": 66,
      "hit": false,
      "t": 140118.3359999993,
      "d": 222.8760000000184,
      "v": 86
    },
    {
      "midi": 57,
      "hit": false,
      "t": 140379.26399999933,
      "d": 1.0872000000090338,
      "v": 93
    },
    {
      "midi": 50,
      "hit": false,
      "t": 140379.26399999933,
      "d": 222.8760000000184,
      "v": 67
    },
    {
      "midi": 52,
      "hit": false,
      "t": 140379.26399999933,
      "d": 222.8760000000184,
      "v": 76
    },
    {
      "midi": 62,
      "hit": false,
      "t": 140379.26399999933,
      "d": 222.8760000000184,
      "v": 101
    },
    {
      "midi": 66,
      "hit": false,
      "t": 140379.26399999933,
      "d": 222.8760000000184,
      "v": 81
    },
    {
      "midi": 57,
      "hit": false,
      "t": 140640.19199999934,
      "d": 1.0872000000090338,
      "v": 101
    },
    {
      "midi": 50,
      "hit": false,
      "t": 140640.19199999934,
      "d": 222.8760000000184,
      "v": 76
    },
    {
      "midi": 52,
      "hit": false,
      "t": 140640.19199999934,
      "d": 222.8760000000184,
      "v": 81
    },
    {
      "midi": 62,
      "hit": false,
      "t": 140640.19199999934,
      "d": 222.8760000000184,
      "v": 101
    },
    {
      "midi": 66,
      "hit": false,
      "t": 140640.19199999934,
      "d": 222.8760000000184,
      "v": 90
    },
    {
      "midi": 57,
      "hit": false,
      "t": 140901.11999999936,
      "d": 1.0872000000090338,
      "v": 101
    },
    {
      "midi": 49,
      "hit": false,
      "t": 140901.11999999936,
      "d": 222.8760000000184,
      "v": 87
    },
    {
      "midi": 52,
      "hit": false,
      "t": 140901.11999999936,
      "d": 222.8760000000184,
      "v": 81
    },
    {
      "midi": 61,
      "hit": false,
      "t": 140901.11999999936,
      "d": 222.8760000000184,
      "v": 101
    },
    {
      "midi": 64,
      "hit": false,
      "t": 140901.11999999936,
      "d": 222.8760000000184,
      "v": 110
    },
    {
      "midi": 57,
      "hit": false,
      "t": 141162.04799999937,
      "d": 1.0872000000090338,
      "v": 97
    },
    {
      "midi": 49,
      "hit": false,
      "t": 141162.04799999937,
      "d": 222.8760000000184,
      "v": 87
    },
    {
      "midi": 52,
      "hit": false,
      "t": 141162.04799999937,
      "d": 222.8760000000184,
      "v": 81
    },
    {
      "midi": 61,
      "hit": false,
      "t": 141162.04799999937,
      "d": 222.8760000000184,
      "v": 110
    },
    {
      "midi": 64,
      "hit": false,
      "t": 141162.04799999937,
      "d": 222.8760000000184,
      "v": 110
    },
    {
      "midi": 57,
      "hit": false,
      "t": 141422.97599999938,
      "d": 1.0872000000090338,
      "v": 88
    },
    {
      "midi": 49,
      "hit": false,
      "t": 141422.97599999938,
      "d": 222.8760000000184,
      "v": 87
    },
    {
      "midi": 52,
      "hit": false,
      "t": 141422.97599999938,
      "d": 222.8760000000184,
      "v": 76
    },
    {
      "midi": 61,
      "hit": false,
      "t": 141422.97599999938,
      "d": 222.8760000000184,
      "v": 110
    },
    {
      "midi": 64,
      "hit": false,
      "t": 141422.97599999938,
      "d": 222.8760000000184,
      "v": 110
    },
    {
      "midi": 57,
      "hit": false,
      "t": 141683.9039999994,
      "d": 1.0872000000090338,
      "v": 101
    },
    {
      "midi": 49,
      "hit": false,
      "t": 141683.9039999994,
      "d": 222.8760000000184,
      "v": 93
    },
    {
      "midi": 52,
      "hit": false,
      "t": 141683.9039999994,
      "d": 222.8760000000184,
      "v": 81
    },
    {
      "midi": 61,
      "hit": false,
      "t": 141683.9039999994,
      "d": 222.8760000000184,
      "v": 101
    },
    {
      "midi": 64,
      "hit": false,
      "t": 141683.9039999994,
      "d": 222.8760000000184,
      "v": 115
    },
    {
      "midi": 45,
      "hit": false,
      "t": 141944.8319999994,
      "d": 222.8759999999893,
      "v": 63
    },
    {
      "midi": 49,
      "hit": false,
      "t": 141944.8319999994,
      "d": 222.8759999999893,
      "v": 63
    },
    {
      "midi": 52,
      "hit": false,
      "t": 141944.8319999994,
      "d": 222.8759999999893,
      "v": 67
    },
    {
      "midi": 57,
      "hit": false,
      "t": 141944.8319999994,
      "d": 222.8759999999893,
      "v": 97
    },
    {
      "midi": 61,
      "hit": false,
      "t": 141944.8319999994,
      "d": 222.8759999999893,
      "v": 110
    },
    {
      "midi": 64,
      "hit": false,
      "t": 141944.8319999994,
      "d": 222.8759999999893,
      "v": 106
    },
    {
      "midi": 45,
      "hit": false,
      "t": 142205.7599999994,
      "d": 222.8759999999893,
      "v": 67
    },
    {
      "midi": 49,
      "hit": false,
      "t": 142205.7599999994,
      "d": 222.8759999999893,
      "v": 76
    },
    {
      "midi": 52,
      "hit": false,
      "t": 142205.7599999994,
      "d": 222.8759999999893,
      "v": 72
    },
    {
      "midi": 57,
      "hit": false,
      "t": 142205.7599999994,
      "d": 222.8759999999893,
      "v": 97
    },
    {
      "midi": 61,
      "hit": false,
      "t": 142205.7599999994,
      "d": 222.8759999999893,
      "v": 97
    },
    {
      "midi": 64,
      "hit": false,
      "t": 142205.7599999994,
      "d": 222.8759999999893,
      "v": 97
    },
    {
      "midi": 45,
      "hit": false,
      "t": 142466.68799999938,
      "d": 222.8759999999893,
      "v": 67
    },
    {
      "midi": 49,
      "hit": false,
      "t": 142466.68799999938,
      "d": 222.8759999999893,
      "v": 76
    },
    {
      "midi": 52,
      "hit": false,
      "t": 142466.68799999938,
      "d": 222.8759999999893,
      "v": 72
    },
    {
      "midi": 57,
      "hit": false,
      "t": 142466.68799999938,
      "d": 222.8759999999893,
      "v": 101
    },
    {
      "midi": 61,
      "hit": false,
      "t": 142466.68799999938,
      "d": 222.8759999999893,
      "v": 106
    },
    {
      "midi": 64,
      "hit": false,
      "t": 142466.68799999938,
      "d": 222.8759999999893,
      "v": 106
    },
    {
      "midi": 45,
      "hit": false,
      "t": 142727.61599999937,
      "d": 222.8759999999893,
      "v": 72
    },
    {
      "midi": 49,
      "hit": false,
      "t": 142727.61599999937,
      "d": 222.8759999999893,
      "v": 76
    },
    {
      "midi": 52,
      "hit": false,
      "t": 142727.61599999937,
      "d": 222.8759999999893,
      "v": 81
    },
    {
      "midi": 57,
      "hit": false,
      "t": 142727.61599999937,
      "d": 222.8759999999893,
      "v": 106
    },
    {
      "midi": 61,
      "hit": false,
      "t": 142727.61599999937,
      "d": 222.8759999999893,
      "v": 110
    },
    {
      "midi": 64,
      "hit": false,
      "t": 142727.61599999937,
      "d": 222.8759999999893,
      "v": 110
    },
    {
      "midi": 45,
      "hit": false,
      "t": 142988.54399999935,
      "d": 222.8759999999893,
      "v": 72
    },
    {
      "midi": 49,
      "hit": false,
      "t": 142988.54399999935,
      "d": 222.8759999999893,
      "v": 72
    },
    {
      "midi": 52,
      "hit": false,
      "t": 142988.54399999935,
      "d": 222.8759999999893,
      "v": 76
    },
    {
      "midi": 57,
      "hit": false,
      "t": 142988.54399999935,
      "d": 222.8759999999893,
      "v": 106
    },
    {
      "midi": 61,
      "hit": false,
      "t": 142988.54399999935,
      "d": 222.8759999999893,
      "v": 110
    },
    {
      "midi": 64,
      "hit": false,
      "t": 142988.54399999935,
      "d": 222.8759999999893,
      "v": 110
    },
    {
      "midi": 45,
      "hit": false,
      "t": 143249.47199999934,
      "d": 222.8759999999893,
      "v": 72
    },
    {
      "midi": 49,
      "hit": false,
      "t": 143249.47199999934,
      "d": 222.8759999999893,
      "v": 76
    },
    {
      "midi": 52,
      "hit": false,
      "t": 143249.47199999934,
      "d": 222.8759999999893,
      "v": 76
    },
    {
      "midi": 57,
      "hit": false,
      "t": 143249.47199999934,
      "d": 222.8759999999893,
      "v": 101
    },
    {
      "midi": 61,
      "hit": false,
      "t": 143249.47199999934,
      "d": 222.8759999999893,
      "v": 110
    },
    {
      "midi": 64,
      "hit": false,
      "t": 143249.47199999934,
      "d": 222.8759999999893,
      "v": 101
    },
    {
      "midi": 45,
      "hit": false,
      "t": 143510.39999999932,
      "d": 222.8759999999893,
      "v": 72
    },
    {
      "midi": 49,
      "hit": false,
      "t": 143510.39999999932,
      "d": 222.8759999999893,
      "v": 67
    },
    {
      "midi": 52,
      "hit": false,
      "t": 143510.39999999932,
      "d": 222.8759999999893,
      "v": 81
    },
    {
      "midi": 57,
      "hit": false,
      "t": 143510.39999999932,
      "d": 222.8759999999893,
      "v": 101
    },
    {
      "midi": 61,
      "hit": false,
      "t": 143510.39999999932,
      "d": 222.8759999999893,
      "v": 106
    },
    {
      "midi": 64,
      "hit": false,
      "t": 143510.39999999932,
      "d": 222.8759999999893,
      "v": 106
    },
    {
      "midi": 45,
      "hit": false,
      "t": 143771.3279999993,
      "d": 222.8759999999893,
      "v": 72
    },
    {
      "midi": 49,
      "hit": false,
      "t": 143771.3279999993,
      "d": 222.8759999999893,
      "v": 67
    },
    {
      "midi": 52,
      "hit": false,
      "t": 143771.3279999993,
      "d": 222.8759999999893,
      "v": 81
    },
    {
      "midi": 57,
      "hit": false,
      "t": 143771.3279999993,
      "d": 222.8759999999893,
      "v": 106
    },
    {
      "midi": 61,
      "hit": false,
      "t": 143771.3279999993,
      "d": 222.8759999999893,
      "v": 110
    },
    {
      "midi": 64,
      "hit": false,
      "t": 143771.3279999993,
      "d": 222.8759999999893,
      "v": 110
    },
    {
      "midi": 47,
      "hit": false,
      "t": 144032.2559999993,
      "d": 222.8759999999893,
      "v": 54
    },
    {
      "midi": 50,
      "hit": false,
      "t": 144032.2559999993,
      "d": 222.8759999999893,
      "v": 67
    },
    {
      "midi": 54,
      "hit": false,
      "t": 144032.2559999993,
      "d": 222.8759999999893,
      "v": 63
    },
    {
      "midi": 59,
      "hit": false,
      "t": 144032.2559999993,
      "d": 222.8759999999893,
      "v": 97
    },
    {
      "midi": 62,
      "hit": false,
      "t": 144032.2559999993,
      "d": 222.8759999999893,
      "v": 101
    },
    {
      "midi": 66,
      "hit": false,
      "t": 144032.2559999993,
      "d": 222.8759999999893,
      "v": 90
    },
    {
      "midi": 47,
      "hit": false,
      "t": 144293.18399999928,
      "d": 222.8759999999893,
      "v": 76
    },
    {
      "midi": 50,
      "hit": false,
      "t": 144293.18399999928,
      "d": 222.8759999999893,
      "v": 81
    },
    {
      "midi": 54,
      "hit": false,
      "t": 144293.18399999928,
      "d": 222.8759999999893,
      "v": 76
    },
    {
      "midi": 59,
      "hit": false,
      "t": 144293.18399999928,
      "d": 222.8759999999893,
      "v": 97
    },
    {
      "midi": 62,
      "hit": false,
      "t": 144293.18399999928,
      "d": 222.8759999999893,
      "v": 97
    },
    {
      "midi": 66,
      "hit": false,
      "t": 144293.18399999928,
      "d": 222.8759999999893,
      "v": 86
    },
    {
      "midi": 47,
      "hit": false,
      "t": 144554.11199999927,
      "d": 222.8759999999893,
      "v": 67
    },
    {
      "midi": 50,
      "hit": false,
      "t": 144554.11199999927,
      "d": 222.8759999999893,
      "v": 81
    },
    {
      "midi": 54,
      "hit": false,
      "t": 144554.11199999927,
      "d": 222.8759999999893,
      "v": 72
    },
    {
      "midi": 59,
      "hit": false,
      "t": 144554.11199999927,
      "d": 222.8759999999893,
      "v": 101
    },
    {
      "midi": 62,
      "hit": false,
      "t": 144554.11199999927,
      "d": 222.8759999999893,
      "v": 101
    },
    {
      "midi": 66,
      "hit": false,
      "t": 144554.11199999927,
      "d": 222.8759999999893,
      "v": 86
    },
    {
      "midi": 47,
      "hit": false,
      "t": 144815.03999999925,
      "d": 222.8759999999893,
      "v": 67
    },
    {
      "midi": 50,
      "hit": false,
      "t": 144815.03999999925,
      "d": 222.8759999999893,
      "v": 81
    },
    {
      "midi": 54,
      "hit": false,
      "t": 144815.03999999925,
      "d": 222.8759999999893,
      "v": 72
    },
    {
      "midi": 59,
      "hit": false,
      "t": 144815.03999999925,
      "d": 222.8759999999893,
      "v": 106
    },
    {
      "midi": 62,
      "hit": false,
      "t": 144815.03999999925,
      "d": 222.8759999999893,
      "v": 106
    },
    {
      "midi": 66,
      "hit": false,
      "t": 144815.03999999925,
      "d": 222.8759999999893,
      "v": 90
    },
    {
      "midi": 47,
      "hit": false,
      "t": 145075.96799999924,
      "d": 222.8759999999893,
      "v": 76
    },
    {
      "midi": 50,
      "hit": false,
      "t": 145075.96799999924,
      "d": 222.8759999999893,
      "v": 81
    },
    {
      "midi": 54,
      "hit": false,
      "t": 145075.96799999924,
      "d": 222.8759999999893,
      "v": 72
    },
    {
      "midi": 59,
      "hit": false,
      "t": 145075.96799999924,
      "d": 222.8759999999893,
      "v": 93
    },
    {
      "midi": 62,
      "hit": false,
      "t": 145075.96799999924,
      "d": 222.8759999999893,
      "v": 101
    },
    {
      "midi": 66,
      "hit": false,
      "t": 145075.96799999924,
      "d": 222.8759999999893,
      "v": 86
    },
    {
      "midi": 47,
      "hit": false,
      "t": 145336.89599999922,
      "d": 222.8759999999893,
      "v": 76
    },
    {
      "midi": 50,
      "hit": false,
      "t": 145336.89599999922,
      "d": 222.8759999999893,
      "v": 81
    },
    {
      "midi": 54,
      "hit": false,
      "t": 145336.89599999922,
      "d": 222.8759999999893,
      "v": 72
    },
    {
      "midi": 59,
      "hit": false,
      "t": 145336.89599999922,
      "d": 222.8759999999893,
      "v": 101
    },
    {
      "midi": 62,
      "hit": false,
      "t": 145336.89599999922,
      "d": 222.8759999999893,
      "v": 101
    },
    {
      "midi": 66,
      "hit": false,
      "t": 145336.89599999922,
      "d": 222.8759999999893,
      "v": 90
    },
    {
      "midi": 47,
      "hit": false,
      "t": 145597.8239999992,
      "d": 222.8759999999893,
      "v": 76
    },
    {
      "midi": 50,
      "hit": false,
      "t": 145597.8239999992,
      "d": 222.8759999999893,
      "v": 87
    },
    {
      "midi": 54,
      "hit": false,
      "t": 145597.8239999992,
      "d": 222.8759999999893,
      "v": 76
    },
    {
      "midi": 59,
      "hit": false,
      "t": 145597.8239999992,
      "d": 222.8759999999893,
      "v": 101
    },
    {
      "midi": 62,
      "hit": false,
      "t": 145597.8239999992,
      "d": 222.8759999999893,
      "v": 106
    },
    {
      "midi": 66,
      "hit": false,
      "t": 145597.8239999992,
      "d": 222.8759999999893,
      "v": 94
    },
    {
      "midi": 47,
      "hit": false,
      "t": 145858.7519999992,
      "d": 222.8759999999893,
      "v": 76
    },
    {
      "midi": 50,
      "hit": false,
      "t": 145858.7519999992,
      "d": 222.8759999999893,
      "v": 81
    },
    {
      "midi": 54,
      "hit": false,
      "t": 145858.7519999992,
      "d": 222.8759999999893,
      "v": 72
    },
    {
      "midi": 59,
      "hit": false,
      "t": 145858.7519999992,
      "d": 222.8759999999893,
      "v": 106
    },
    {
      "midi": 62,
      "hit": false,
      "t": 145858.7519999992,
      "d": 222.8759999999893,
      "v": 110
    },
    {
      "midi": 66,
      "hit": false,
      "t": 145858.7519999992,
      "d": 222.8759999999893,
      "v": 94
    },
    {
      "midi": 47,
      "hit": false,
      "t": 146119.67999999918,
      "d": 222.8759999999893,
      "v": 67
    },
    {
      "midi": 50,
      "hit": false,
      "t": 146119.67999999918,
      "d": 222.8759999999893,
      "v": 72
    },
    {
      "midi": 55,
      "hit": false,
      "t": 146119.67999999918,
      "d": 222.8759999999893,
      "v": 70
    },
    {
      "midi": 59,
      "hit": false,
      "t": 146119.67999999918,
      "d": 222.8759999999893,
      "v": 97
    },
    {
      "midi": 62,
      "hit": false,
      "t": 146119.67999999918,
      "d": 222.8759999999893,
      "v": 101
    },
    {
      "midi": 67,
      "hit": false,
      "t": 146119.67999999918,
      "d": 222.8759999999893,
      "v": 76
    },
    {
      "midi": 47,
      "hit": false,
      "t": 146380.60799999916,
      "d": 222.8759999999893,
      "v": 67
    },
    {
      "midi": 50,
      "hit": false,
      "t": 146380.60799999916,
      "d": 222.8759999999893,
      "v": 81
    },
    {
      "midi": 55,
      "hit": false,
      "t": 146380.60799999916,
      "d": 222.8759999999893,
      "v": 70
    },
    {
      "midi": 59,
      "hit": false,
      "t": 146380.60799999916,
      "d": 222.8759999999893,
      "v": 97
    },
    {
      "midi": 62,
      "hit": false,
      "t": 146380.60799999916,
      "d": 222.8759999999893,
      "v": 101
    },
    {
      "midi": 67,
      "hit": false,
      "t": 146380.60799999916,
      "d": 222.8759999999893,
      "v": 80
    },
    {
      "midi": 47,
      "hit": false,
      "t": 146641.53599999915,
      "d": 222.8759999999893,
      "v": 72
    },
    {
      "midi": 50,
      "hit": false,
      "t": 146641.53599999915,
      "d": 222.8759999999893,
      "v": 76
    },
    {
      "midi": 55,
      "hit": false,
      "t": 146641.53599999915,
      "d": 222.8759999999893,
      "v": 74
    },
    {
      "midi": 59,
      "hit": false,
      "t": 146641.53599999915,
      "d": 222.8759999999893,
      "v": 97
    },
    {
      "midi": 62,
      "hit": false,
      "t": 146641.53599999915,
      "d": 222.8759999999893,
      "v": 106
    },
    {
      "midi": 67,
      "hit": false,
      "t": 146641.53599999915,
      "d": 222.8759999999893,
      "v": 80
    },
    {
      "midi": 47,
      "hit": false,
      "t": 146902.46399999913,
      "d": 222.8759999999893,
      "v": 81
    },
    {
      "midi": 50,
      "hit": false,
      "t": 146902.46399999913,
      "d": 222.8759999999893,
      "v": 81
    },
    {
      "midi": 55,
      "hit": false,
      "t": 146902.46399999913,
      "d": 222.8759999999893,
      "v": 79
    },
    {
      "midi": 59,
      "hit": false,
      "t": 146902.46399999913,
      "d": 222.8759999999893,
      "v": 97
    },
    {
      "midi": 62,
      "hit": false,
      "t": 146902.46399999913,
      "d": 222.8759999999893,
      "v": 101
    },
    {
      "midi": 67,
      "hit": false,
      "t": 146902.46399999913,
      "d": 222.8759999999893,
      "v": 71
    },
    {
      "midi": 47,
      "hit": false,
      "t": 147163.39199999912,
      "d": 222.8759999999893,
      "v": 72
    },
    {
      "midi": 50,
      "hit": false,
      "t": 147163.39199999912,
      "d": 222.8759999999893,
      "v": 81
    },
    {
      "midi": 55,
      "hit": false,
      "t": 147163.39199999912,
      "d": 222.8759999999893,
      "v": 70
    },
    {
      "midi": 59,
      "hit": false,
      "t": 147163.39199999912,
      "d": 222.8759999999893,
      "v": 106
    },
    {
      "midi": 62,
      "hit": false,
      "t": 147163.39199999912,
      "d": 222.8759999999893,
      "v": 101
    },
    {
      "midi": 67,
      "hit": false,
      "t": 147163.39199999912,
      "d": 222.8759999999893,
      "v": 76
    },
    {
      "midi": 47,
      "hit": false,
      "t": 147424.3199999991,
      "d": 222.8759999999893,
      "v": 72
    },
    {
      "midi": 50,
      "hit": false,
      "t": 147424.3199999991,
      "d": 222.8759999999893,
      "v": 81
    },
    {
      "midi": 55,
      "hit": false,
      "t": 147424.3199999991,
      "d": 222.8759999999893,
      "v": 74
    },
    {
      "midi": 59,
      "hit": false,
      "t": 147424.3199999991,
      "d": 222.8759999999893,
      "v": 101
    },
    {
      "midi": 62,
      "hit": false,
      "t": 147424.3199999991,
      "d": 222.8759999999893,
      "v": 110
    },
    {
      "midi": 67,
      "hit": false,
      "t": 147424.3199999991,
      "d": 222.8759999999893,
      "v": 80
    },
    {
      "midi": 47,
      "hit": false,
      "t": 147685.2479999991,
      "d": 222.8759999999893,
      "v": 81
    },
    {
      "midi": 50,
      "hit": false,
      "t": 147685.2479999991,
      "d": 222.8759999999893,
      "v": 87
    },
    {
      "midi": 55,
      "hit": false,
      "t": 147685.2479999991,
      "d": 222.8759999999893,
      "v": 74
    },
    {
      "midi": 59,
      "hit": false,
      "t": 147685.2479999991,
      "d": 222.8759999999893,
      "v": 101
    },
    {
      "midi": 62,
      "hit": false,
      "t": 147685.2479999991,
      "d": 222.8759999999893,
      "v": 106
    },
    {
      "midi": 67,
      "hit": false,
      "t": 147685.2479999991,
      "d": 222.8759999999893,
      "v": 76
    },
    {
      "midi": 47,
      "hit": false,
      "t": 147946.17599999908,
      "d": 222.8759999999893,
      "v": 76
    },
    {
      "midi": 50,
      "hit": false,
      "t": 147946.17599999908,
      "d": 222.8759999999893,
      "v": 87
    },
    {
      "midi": 55,
      "hit": false,
      "t": 147946.17599999908,
      "d": 222.8759999999893,
      "v": 70
    },
    {
      "midi": 59,
      "hit": false,
      "t": 147946.17599999908,
      "d": 222.8759999999893,
      "v": 101
    },
    {
      "midi": 62,
      "hit": false,
      "t": 147946.17599999908,
      "d": 222.8759999999893,
      "v": 115
    },
    {
      "midi": 67,
      "hit": false,
      "t": 147946.17599999908,
      "d": 222.8759999999893,
      "v": 84
    },
    {
      "midi": 57,
      "hit": false,
      "t": 148207.10399999906,
      "d": 1.0872000000090338,
      "v": 84
    },
    {
      "midi": 50,
      "hit": false,
      "t": 148207.10399999906,
      "d": 222.8760000000184,
      "v": 67
    },
    {
      "midi": 52,
      "hit": false,
      "t": 148207.10399999906,
      "d": 222.8760000000184,
      "v": 81
    },
    {
      "midi": 61,
      "hit": false,
      "t": 148207.10399999906,
      "d": 222.8760000000184,
      "v": 80
    },
    {
      "midi": 64,
      "hit": false,
      "t": 148207.10399999906,
      "d": 222.8760000000184,
      "v": 110
    },
    {
      "midi": 69,
      "hit": false,
      "t": 148207.10399999906,
      "d": 222.8760000000184,
      "v": 89
    },
    {
      "midi": 57,
      "hit": false,
      "t": 148468.03199999908,
      "d": 1.0872000000090338,
      "v": 84
    },
    {
      "midi": 50,
      "hit": false,
      "t": 148468.03199999908,
      "d": 222.8760000000184,
      "v": 76
    },
    {
      "midi": 52,
      "hit": false,
      "t": 148468.03199999908,
      "d": 222.8760000000184,
      "v": 81
    },
    {
      "midi": 61,
      "hit": false,
      "t": 148468.03199999908,
      "d": 222.8760000000184,
      "v": 84
    },
    {
      "midi": 64,
      "hit": false,
      "t": 148468.03199999908,
      "d": 222.8760000000184,
      "v": 110
    },
    {
      "midi": 69,
      "hit": false,
      "t": 148468.03199999908,
      "d": 222.8760000000184,
      "v": 84
    },
    {
      "midi": 57,
      "hit": false,
      "t": 148728.9599999991,
      "d": 1.0872000000090338,
      "v": 72
    },
    {
      "midi": 50,
      "hit": false,
      "t": 148728.9599999991,
      "d": 222.8760000000184,
      "v": 72
    },
    {
      "midi": 52,
      "hit": false,
      "t": 148728.9599999991,
      "d": 222.8760000000184,
      "v": 72
    },
    {
      "midi": 61,
      "hit": false,
      "t": 148728.9599999991,
      "d": 222.8760000000184,
      "v": 93
    },
    {
      "midi": 64,
      "hit": false,
      "t": 148728.9599999991,
      "d": 222.8760000000184,
      "v": 115
    },
    {
      "midi": 69,
      "hit": false,
      "t": 148728.9599999991,
      "d": 222.8760000000184,
      "v": 89
    },
    {
      "midi": 57,
      "hit": false,
      "t": 148989.8879999991,
      "d": 1.0872000000090338,
      "v": 70
    },
    {
      "midi": 50,
      "hit": false,
      "t": 148989.8879999991,
      "d": 222.8760000000184,
      "v": 76
    },
    {
      "midi": 52,
      "hit": false,
      "t": 148989.8879999991,
      "d": 222.8760000000184,
      "v": 81
    },
    {
      "midi": 61,
      "hit": false,
      "t": 148989.8879999991,
      "d": 222.8760000000184,
      "v": 80
    },
    {
      "midi": 64,
      "hit": false,
      "t": 148989.8879999991,
      "d": 222.8760000000184,
      "v": 110
    },
    {
      "midi": 69,
      "hit": false,
      "t": 148989.8879999991,
      "d": 222.8760000000184,
      "v": 84
    },
    {
      "midi": 57,
      "hit": false,
      "t": 149250.81599999912,
      "d": 1.0872000000090338,
      "v": 79
    },
    {
      "midi": 49,
      "hit": false,
      "t": 149250.81599999912,
      "d": 222.8760000000184,
      "v": 76
    },
    {
      "midi": 52,
      "hit": false,
      "t": 149250.81599999912,
      "d": 222.8760000000184,
      "v": 81
    },
    {
      "midi": 61,
      "hit": false,
      "t": 149250.81599999912,
      "d": 222.8760000000184,
      "v": 84
    },
    {
      "midi": 64,
      "hit": false,
      "t": 149250.81599999912,
      "d": 222.8760000000184,
      "v": 115
    },
    {
      "midi": 69,
      "hit": false,
      "t": 149250.81599999912,
      "d": 222.8760000000184,
      "v": 89
    },
    {
      "midi": 57,
      "hit": false,
      "t": 149511.74399999913,
      "d": 1.0872000000090338,
      "v": 88
    },
    {
      "midi": 49,
      "hit": false,
      "t": 149511.74399999913,
      "d": 222.8760000000184,
      "v": 76
    },
    {
      "midi": 52,
      "hit": false,
      "t": 149511.74399999913,
      "d": 222.8760000000184,
      "v": 81
    },
    {
      "midi": 61,
      "hit": false,
      "t": 149511.74399999913,
      "d": 222.8760000000184,
      "v": 72
    },
    {
      "midi": 64,
      "hit": false,
      "t": 149511.74399999913,
      "d": 222.8760000000184,
      "v": 110
    },
    {
      "midi": 69,
      "hit": false,
      "t": 149511.74399999913,
      "d": 222.8760000000184,
      "v": 84
    },
    {
      "midi": 57,
      "hit": false,
      "t": 149772.67199999915,
      "d": 1.0872000000090338,
      "v": 83
    },
    {
      "midi": 49,
      "hit": false,
      "t": 149772.67199999915,
      "d": 222.8760000000184,
      "v": 93
    },
    {
      "midi": 52,
      "hit": false,
      "t": 149772.67199999915,
      "d": 222.8760000000184,
      "v": 76
    },
    {
      "midi": 61,
      "hit": false,
      "t": 149772.67199999915,
      "d": 222.8760000000184,
      "v": 72
    },
    {
      "midi": 64,
      "hit": false,
      "t": 149772.67199999915,
      "d": 222.8760000000184,
      "v": 115
    },
    {
      "midi": 69,
      "hit": false,
      "t": 149772.67199999915,
      "d": 222.8760000000184,
      "v": 98
    },
    {
      "midi": 57,
      "hit": false,
      "t": 150033.59999999916,
      "d": 1.0872000000090338,
      "v": 88
    },
    {
      "midi": 49,
      "hit": false,
      "t": 150033.59999999916,
      "d": 222.8760000000184,
      "v": 87
    },
    {
      "midi": 52,
      "hit": false,
      "t": 150033.59999999916,
      "d": 222.8760000000184,
      "v": 87
    },
    {
      "midi": 61,
      "hit": false,
      "t": 150033.59999999916,
      "d": 222.8760000000184,
      "v": 84
    },
    {
      "midi": 64,
      "hit": false,
      "t": 150033.59999999916,
      "d": 222.8760000000184,
      "v": 115
    },
    {
      "midi": 69,
      "hit": false,
      "t": 150033.59999999916,
      "d": 222.8760000000184,
      "v": 93
    },
    {
      "midi": 57,
      "hit": false,
      "t": 150294.52799999918,
      "d": 222.8759999999893,
      "v": 106
    },
    {
      "midi": 62,
      "hit": false,
      "t": 150294.52799999918,
      "d": 222.8759999999893,
      "v": 101
    },
    {
      "midi": 66,
      "hit": false,
      "t": 150294.52799999918,
      "d": 222.8759999999893,
      "v": 108
    },
    {
      "midi": 69,
      "hit": false,
      "t": 150294.52799999918,
      "d": 222.8759999999893,
      "v": 93
    },
    {
      "midi": 57,
      "hit": false,
      "t": 150555.45599999916,
      "d": 222.8759999999893,
      "v": 106
    },
    {
      "midi": 62,
      "hit": false,
      "t": 150555.45599999916,
      "d": 222.8759999999893,
      "v": 97
    },
    {
      "midi": 66,
      "hit": false,
      "t": 150555.45599999916,
      "d": 222.8759999999893,
      "v": 90
    },
    {
      "midi": 69,
      "hit": false,
      "t": 150555.45599999916,
      "d": 222.8759999999893,
      "v": 80
    },
    {
      "midi": 57,
      "hit": false,
      "t": 150816.38399999915,
      "d": 222.8759999999893,
      "v": 106
    },
    {
      "midi": 62,
      "hit": false,
      "t": 150816.38399999915,
      "d": 222.8759999999893,
      "v": 101
    },
    {
      "midi": 66,
      "hit": false,
      "t": 150816.38399999915,
      "d": 222.8759999999893,
      "v": 94
    },
    {
      "midi": 69,
      "hit": false,
      "t": 150816.38399999915,
      "d": 222.8759999999893,
      "v": 80
    },
    {
      "midi": 57,
      "hit": false,
      "t": 151077.31199999913,
      "d": 222.8759999999893,
      "v": 110
    },
    {
      "midi": 62,
      "hit": false,
      "t": 151077.31199999913,
      "d": 222.8759999999893,
      "v": 97
    },
    {
      "midi": 66,
      "hit": false,
      "t": 151077.31199999913,
      "d": 222.8759999999893,
      "v": 94
    },
    {
      "midi": 69,
      "hit": false,
      "t": 151077.31199999913,
      "d": 222.8759999999893,
      "v": 84
    },
    {
      "midi": 57,
      "hit": false,
      "t": 151338.23999999912,
      "d": 222.8759999999893,
      "v": 115
    },
    {
      "midi": 62,
      "hit": false,
      "t": 151338.23999999912,
      "d": 222.8759999999893,
      "v": 101
    },
    {
      "midi": 66,
      "hit": false,
      "t": 151338.23999999912,
      "d": 222.8759999999893,
      "v": 99
    },
    {
      "midi": 69,
      "hit": false,
      "t": 151338.23999999912,
      "d": 222.8759999999893,
      "v": 80
    },
    {
      "midi": 57,
      "hit": false,
      "t": 151599.1679999991,
      "d": 222.8759999999893,
      "v": 110
    },
    {
      "midi": 62,
      "hit": false,
      "t": 151599.1679999991,
      "d": 222.8759999999893,
      "v": 101
    },
    {
      "midi": 66,
      "hit": false,
      "t": 151599.1679999991,
      "d": 222.8759999999893,
      "v": 99
    },
    {
      "midi": 69,
      "hit": false,
      "t": 151599.1679999991,
      "d": 222.8759999999893,
      "v": 80
    },
    {
      "midi": 57,
      "hit": false,
      "t": 151860.0959999991,
      "d": 222.8759999999893,
      "v": 115
    },
    {
      "midi": 62,
      "hit": false,
      "t": 151860.0959999991,
      "d": 222.8759999999893,
      "v": 106
    },
    {
      "midi": 66,
      "hit": false,
      "t": 151860.0959999991,
      "d": 222.8759999999893,
      "v": 99
    },
    {
      "midi": 69,
      "hit": false,
      "t": 151860.0959999991,
      "d": 222.8759999999893,
      "v": 84
    },
    {
      "midi": 57,
      "hit": false,
      "t": 152121.02399999907,
      "d": 222.8759999999893,
      "v": 115
    },
    {
      "midi": 62,
      "hit": false,
      "t": 152121.02399999907,
      "d": 222.8759999999893,
      "v": 110
    },
    {
      "midi": 66,
      "hit": false,
      "t": 152121.02399999907,
      "d": 222.8759999999893,
      "v": 99
    },
    {
      "midi": 69,
      "hit": false,
      "t": 152121.02399999907,
      "d": 222.8759999999893,
      "v": 84
    },
    {
      "midi": 57,
      "hit": false,
      "t": 152381.95199999906,
      "d": 222.8759999999893,
      "v": 115
    },
    {
      "midi": 62,
      "hit": false,
      "t": 152381.95199999906,
      "d": 222.8759999999893,
      "v": 110
    },
    {
      "midi": 64,
      "hit": false,
      "t": 152381.95199999906,
      "d": 222.8759999999893,
      "v": 106
    },
    {
      "midi": 69,
      "hit": false,
      "t": 152381.95199999906,
      "d": 222.8759999999893,
      "v": 84
    },
    {
      "midi": 57,
      "hit": false,
      "t": 152642.87999999904,
      "d": 222.8759999999893,
      "v": 110
    },
    {
      "midi": 62,
      "hit": false,
      "t": 152642.87999999904,
      "d": 222.8759999999893,
      "v": 110
    },
    {
      "midi": 64,
      "hit": false,
      "t": 152642.87999999904,
      "d": 222.8759999999893,
      "v": 106
    },
    {
      "midi": 69,
      "hit": false,
      "t": 152642.87999999904,
      "d": 222.8759999999893,
      "v": 84
    },
    {
      "midi": 57,
      "hit": false,
      "t": 152903.80799999903,
      "d": 222.8759999999893,
      "v": 115
    },
    {
      "midi": 62,
      "hit": false,
      "t": 152903.80799999903,
      "d": 222.8759999999893,
      "v": 110
    },
    {
      "midi": 64,
      "hit": false,
      "t": 152903.80799999903,
      "d": 222.8759999999893,
      "v": 110
    },
    {
      "midi": 69,
      "hit": false,
      "t": 152903.80799999903,
      "d": 222.8759999999893,
      "v": 84
    },
    {
      "midi": 57,
      "hit": false,
      "t": 153164.73599999901,
      "d": 222.8759999999893,
      "v": 115
    },
    {
      "midi": 62,
      "hit": false,
      "t": 153164.73599999901,
      "d": 222.8759999999893,
      "v": 115
    },
    {
      "midi": 64,
      "hit": false,
      "t": 153164.73599999901,
      "d": 222.8759999999893,
      "v": 106
    },
    {
      "midi": 69,
      "hit": false,
      "t": 153164.73599999901,
      "d": 222.8759999999893,
      "v": 84
    },
    {
      "midi": 57,
      "hit": false,
      "t": 153425.663999999,
      "d": 222.8759999999893,
      "v": 106
    },
    {
      "midi": 61,
      "hit": false,
      "t": 153425.663999999,
      "d": 222.8759999999893,
      "v": 121
    },
    {
      "midi": 64,
      "hit": false,
      "t": 153425.663999999,
      "d": 222.8759999999893,
      "v": 106
    },
    {
      "midi": 69,
      "hit": false,
      "t": 153425.663999999,
      "d": 222.8759999999893,
      "v": 89
    },
    {
      "midi": 57,
      "hit": false,
      "t": 153686.591999999,
      "d": 222.8759999999893,
      "v": 97
    },
    {
      "midi": 61,
      "hit": false,
      "t": 153686.591999999,
      "d": 222.8759999999893,
      "v": 121
    },
    {
      "midi": 64,
      "hit": false,
      "t": 153686.591999999,
      "d": 222.8759999999893,
      "v": 106
    },
    {
      "midi": 69,
      "hit": false,
      "t": 153686.591999999,
      "d": 222.8759999999893,
      "v": 84
    },
    {
      "midi": 57,
      "hit": false,
      "t": 153947.51999999897,
      "d": 222.8759999999893,
      "v": 101
    },
    {
      "midi": 61,
      "hit": false,
      "t": 153947.51999999897,
      "d": 222.8759999999893,
      "v": 121
    },
    {
      "midi": 64,
      "hit": false,
      "t": 153947.51999999897,
      "d": 222.8759999999893,
      "v": 110
    },
    {
      "midi": 69,
      "hit": false,
      "t": 153947.51999999897,
      "d": 222.8759999999893,
      "v": 89
    },
    {
      "midi": 57,
      "hit": false,
      "t": 154208.44799999896,
      "d": 222.8759999999893,
      "v": 97
    },
    {
      "midi": 61,
      "hit": false,
      "t": 154208.44799999896,
      "d": 222.8759999999893,
      "v": 110
    },
    {
      "midi": 64,
      "hit": false,
      "t": 154208.44799999896,
      "d": 222.8759999999893,
      "v": 106
    },
    {
      "midi": 69,
      "hit": false,
      "t": 154208.44799999896,
      "d": 222.8759999999893,
      "v": 84
    },
    {
      "midi": 57,
      "hit": false,
      "t": 154469.37599999894,
      "d": 222.8759999999893,
      "v": 101
    },
    {
      "midi": 61,
      "hit": false,
      "t": 154469.37599999894,
      "d": 222.8759999999893,
      "v": 123
    },
    {
      "midi": 64,
      "hit": false,
      "t": 154469.37599999894,
      "d": 222.8759999999893,
      "v": 110
    },
    {
      "midi": 69,
      "hit": false,
      "t": 154469.37599999894,
      "d": 222.8759999999893,
      "v": 93
    },
    {
      "midi": 57,
      "hit": false,
      "t": 154730.30399999893,
      "d": 222.8759999999893,
      "v": 101
    },
    {
      "midi": 61,
      "hit": false,
      "t": 154730.30399999893,
      "d": 222.8759999999893,
      "v": 121
    },
    {
      "midi": 64,
      "hit": false,
      "t": 154730.30399999893,
      "d": 222.8759999999893,
      "v": 115
    },
    {
      "midi": 69,
      "hit": false,
      "t": 154730.30399999893,
      "d": 222.8759999999893,
      "v": 84
    },
    {
      "midi": 57,
      "hit": false,
      "t": 154991.2319999989,
      "d": 222.8759999999893,
      "v": 106
    },
    {
      "midi": 61,
      "hit": false,
      "t": 154991.2319999989,
      "d": 222.8759999999893,
      "v": 115
    },
    {
      "midi": 64,
      "hit": false,
      "t": 154991.2319999989,
      "d": 222.8759999999893,
      "v": 110
    },
    {
      "midi": 69,
      "hit": false,
      "t": 154991.2319999989,
      "d": 222.8759999999893,
      "v": 84
    },
    {
      "midi": 57,
      "hit": false,
      "t": 155252.1599999989,
      "d": 222.8759999999893,
      "v": 106
    },
    {
      "midi": 61,
      "hit": false,
      "t": 155252.1599999989,
      "d": 222.8759999999893,
      "v": 115
    },
    {
      "midi": 64,
      "hit": false,
      "t": 155252.1599999989,
      "d": 222.8759999999893,
      "v": 115
    },
    {
      "midi": 69,
      "hit": false,
      "t": 155252.1599999989,
      "d": 222.8759999999893,
      "v": 89
    },
    {
      "midi": 57,
      "hit": false,
      "t": 155513.08799999888,
      "d": 222.8759999999893,
      "v": 110
    },
    {
      "midi": 61,
      "hit": false,
      "t": 155513.08799999888,
      "d": 222.8759999999893,
      "v": 123
    },
    {
      "midi": 64,
      "hit": false,
      "t": 155513.08799999888,
      "d": 222.8759999999893,
      "v": 115
    },
    {
      "midi": 69,
      "hit": false,
      "t": 155513.08799999888,
      "d": 222.8759999999893,
      "v": 89
    },
    {
      "midi": 57,
      "hit": false,
      "t": 155774.01599999887,
      "d": 222.8759999999893,
      "v": 110
    },
    {
      "midi": 61,
      "hit": false,
      "t": 155774.01599999887,
      "d": 222.8759999999893,
      "v": 115
    },
    {
      "midi": 64,
      "hit": false,
      "t": 155774.01599999887,
      "d": 222.8759999999893,
      "v": 106
    },
    {
      "midi": 69,
      "hit": false,
      "t": 155774.01599999887,
      "d": 222.8759999999893,
      "v": 84
    },
    {
      "midi": 57,
      "hit": false,
      "t": 156034.94399999885,
      "d": 222.8759999999893,
      "v": 106
    },
    {
      "midi": 61,
      "hit": false,
      "t": 156034.94399999885,
      "d": 222.8759999999893,
      "v": 121
    },
    {
      "midi": 64,
      "hit": false,
      "t": 156034.94399999885,
      "d": 222.8759999999893,
      "v": 110
    },
    {
      "midi": 69,
      "hit": false,
      "t": 156034.94399999885,
      "d": 222.8759999999893,
      "v": 84
    },
    {
      "midi": 57,
      "hit": false,
      "t": 156295.87199999884,
      "d": 222.8759999999893,
      "v": 101
    },
    {
      "midi": 61,
      "hit": false,
      "t": 156295.87199999884,
      "d": 222.8759999999893,
      "v": 121
    },
    {
      "midi": 64,
      "hit": false,
      "t": 156295.87199999884,
      "d": 222.8759999999893,
      "v": 115
    },
    {
      "midi": 69,
      "hit": false,
      "t": 156295.87199999884,
      "d": 222.8759999999893,
      "v": 80
    },
    {
      "midi": 59,
      "hit": false,
      "t": 156556.79999999882,
      "d": 222.8759999999893,
      "v": 115
    },
    {
      "midi": 62,
      "hit": false,
      "t": 156556.79999999882,
      "d": 222.8759999999893,
      "v": 106
    },
    {
      "midi": 66,
      "hit": false,
      "t": 156556.79999999882,
      "d": 222.8759999999893,
      "v": 94
    },
    {
      "midi": 69,
      "hit": false,
      "t": 156556.79999999882,
      "d": 222.8759999999893,
      "v": 76
    },
    {
      "midi": 59,
      "hit": false,
      "t": 156817.7279999988,
      "d": 222.8759999999893,
      "v": 115
    },
    {
      "midi": 62,
      "hit": false,
      "t": 156817.7279999988,
      "d": 222.8759999999893,
      "v": 110
    },
    {
      "midi": 66,
      "hit": false,
      "t": 156817.7279999988,
      "d": 222.8759999999893,
      "v": 99
    },
    {
      "midi": 69,
      "hit": false,
      "t": 156817.7279999988,
      "d": 222.8759999999893,
      "v": 80
    },
    {
      "midi": 59,
      "hit": false,
      "t": 157078.6559999988,
      "d": 222.8759999999893,
      "v": 121
    },
    {
      "midi": 62,
      "hit": false,
      "t": 157078.6559999988,
      "d": 222.8759999999893,
      "v": 106
    },
    {
      "midi": 66,
      "hit": false,
      "t": 157078.6559999988,
      "d": 222.8759999999893,
      "v": 108
    },
    {
      "midi": 69,
      "hit": false,
      "t": 157078.6559999988,
      "d": 222.8759999999893,
      "v": 84
    },
    {
      "midi": 59,
      "hit": false,
      "t": 157339.58399999878,
      "d": 222.8759999999893,
      "v": 115
    },
    {
      "midi": 62,
      "hit": false,
      "t": 157339.58399999878,
      "d": 222.8759999999893,
      "v": 101
    },
    {
      "midi": 66,
      "hit": false,
      "t": 157339.58399999878,
      "d": 222.8759999999893,
      "v": 99
    },
    {
      "midi": 69,
      "hit": false,
      "t": 157339.58399999878,
      "d": 222.8759999999893,
      "v": 84
    },
    {
      "midi": 57,
      "hit": false,
      "t": 157600.51199999877,
      "d": 222.8759999999893,
      "v": 106
    },
    {
      "midi": 61,
      "hit": false,
      "t": 157600.51199999877,
      "d": 222.8759999999893,
      "v": 115
    },
    {
      "midi": 64,
      "hit": false,
      "t": 157600.51199999877,
      "d": 222.8759999999893,
      "v": 110
    },
    {
      "midi": 69,
      "hit": false,
      "t": 157600.51199999877,
      "d": 222.8759999999893,
      "v": 84
    },
    {
      "midi": 57,
      "hit": false,
      "t": 157861.43999999875,
      "d": 222.8759999999893,
      "v": 101
    },
    {
      "midi": 61,
      "hit": false,
      "t": 157861.43999999875,
      "d": 222.8759999999893,
      "v": 123
    },
    {
      "midi": 64,
      "hit": false,
      "t": 157861.43999999875,
      "d": 222.8759999999893,
      "v": 115
    },
    {
      "midi": 69,
      "hit": false,
      "t": 157861.43999999875,
      "d": 222.8759999999893,
      "v": 80
    },
    {
      "midi": 57,
      "hit": false,
      "t": 158122.36799999874,
      "d": 222.8759999999893,
      "v": 101
    },
    {
      "midi": 61,
      "hit": false,
      "t": 158122.36799999874,
      "d": 222.8759999999893,
      "v": 121
    },
    {
      "midi": 64,
      "hit": false,
      "t": 158122.36799999874,
      "d": 222.8759999999893,
      "v": 115
    },
    {
      "midi": 69,
      "hit": false,
      "t": 158122.36799999874,
      "d": 222.8759999999893,
      "v": 84
    },
    {
      "midi": 57,
      "hit": false,
      "t": 158383.29599999872,
      "d": 222.8759999999893,
      "v": 110
    },
    {
      "midi": 61,
      "hit": false,
      "t": 158383.29599999872,
      "d": 222.8759999999893,
      "v": 123
    },
    {
      "midi": 64,
      "hit": false,
      "t": 158383.29599999872,
      "d": 222.8759999999893,
      "v": 110
    },
    {
      "midi": 69,
      "hit": false,
      "t": 158383.29599999872,
      "d": 222.8759999999893,
      "v": 84
    },
    {
      "midi": 57,
      "hit": false,
      "t": 158644.2239999987,
      "d": 222.8759999999893,
      "v": 101
    },
    {
      "midi": 62,
      "hit": false,
      "t": 158644.2239999987,
      "d": 222.8759999999893,
      "v": 110
    },
    {
      "midi": 66,
      "hit": false,
      "t": 158644.2239999987,
      "d": 222.8759999999893,
      "v": 99
    },
    {
      "midi": 69,
      "hit": false,
      "t": 158644.2239999987,
      "d": 222.8759999999893,
      "v": 84
    },
    {
      "midi": 57,
      "hit": false,
      "t": 158905.1519999987,
      "d": 222.8759999999893,
      "v": 106
    },
    {
      "midi": 62,
      "hit": false,
      "t": 158905.1519999987,
      "d": 222.8759999999893,
      "v": 110
    },
    {
      "midi": 66,
      "hit": false,
      "t": 158905.1519999987,
      "d": 222.8759999999893,
      "v": 90
    },
    {
      "midi": 69,
      "hit": false,
      "t": 158905.1519999987,
      "d": 222.8759999999893,
      "v": 80
    },
    {
      "midi": 57,
      "hit": false,
      "t": 159166.07999999868,
      "d": 222.8759999999893,
      "v": 97
    },
    {
      "midi": 62,
      "hit": false,
      "t": 159166.07999999868,
      "d": 222.8759999999893,
      "v": 110
    },
    {
      "midi": 66,
      "hit": false,
      "t": 159166.07999999868,
      "d": 222.8759999999893,
      "v": 103
    },
    {
      "midi": 69,
      "hit": false,
      "t": 159166.07999999868,
      "d": 222.8759999999893,
      "v": 89
    },
    {
      "midi": 57,
      "hit": false,
      "t": 159427.00799999866,
      "d": 222.8759999999893,
      "v": 101
    },
    {
      "midi": 62,
      "hit": false,
      "t": 159427.00799999866,
      "d": 222.8759999999893,
      "v": 110
    },
    {
      "midi": 66,
      "hit": false,
      "t": 159427.00799999866,
      "d": 222.8759999999893,
      "v": 99
    },
    {
      "midi": 69,
      "hit": false,
      "t": 159427.00799999866,
      "d": 222.8759999999893,
      "v": 80
    },
    {
      "midi": 57,
      "hit": false,
      "t": 159687.93599999865,
      "d": 222.8759999999893,
      "v": 101
    },
    {
      "midi": 62,
      "hit": false,
      "t": 159687.93599999865,
      "d": 222.8759999999893,
      "v": 110
    },
    {
      "midi": 66,
      "hit": false,
      "t": 159687.93599999865,
      "d": 222.8759999999893,
      "v": 103
    },
    {
      "midi": 69,
      "hit": false,
      "t": 159687.93599999865,
      "d": 222.8759999999893,
      "v": 93
    },
    {
      "midi": 57,
      "hit": false,
      "t": 159948.86399999863,
      "d": 222.8759999999893,
      "v": 101
    },
    {
      "midi": 62,
      "hit": false,
      "t": 159948.86399999863,
      "d": 222.8759999999893,
      "v": 115
    },
    {
      "midi": 66,
      "hit": false,
      "t": 159948.86399999863,
      "d": 222.8759999999893,
      "v": 99
    },
    {
      "midi": 69,
      "hit": false,
      "t": 159948.86399999863,
      "d": 222.8759999999893,
      "v": 84
    },
    {
      "midi": 57,
      "hit": false,
      "t": 160209.79199999862,
      "d": 222.8759999999893,
      "v": 101
    },
    {
      "midi": 62,
      "hit": false,
      "t": 160209.79199999862,
      "d": 222.8759999999893,
      "v": 121
    },
    {
      "midi": 66,
      "hit": false,
      "t": 160209.79199999862,
      "d": 222.8759999999893,
      "v": 99
    },
    {
      "midi": 69,
      "hit": false,
      "t": 160209.79199999862,
      "d": 222.8759999999893,
      "v": 84
    },
    {
      "midi": 57,
      "hit": false,
      "t": 160470.7199999986,
      "d": 222.8759999999893,
      "v": 106
    },
    {
      "midi": 62,
      "hit": false,
      "t": 160470.7199999986,
      "d": 222.8759999999893,
      "v": 121
    },
    {
      "midi": 66,
      "hit": false,
      "t": 160470.7199999986,
      "d": 222.8759999999893,
      "v": 103
    },
    {
      "midi": 69,
      "hit": false,
      "t": 160470.7199999986,
      "d": 222.8759999999893,
      "v": 93
    },
    {
      "midi": 57,
      "hit": false,
      "t": 160731.6479999986,
      "d": 222.8759999999893,
      "v": 101
    },
    {
      "midi": 62,
      "hit": false,
      "t": 160731.6479999986,
      "d": 222.8759999999893,
      "v": 121
    },
    {
      "midi": 64,
      "hit": false,
      "t": 160731.6479999986,
      "d": 222.8759999999893,
      "v": 110
    },
    {
      "midi": 69,
      "hit": false,
      "t": 160731.6479999986,
      "d": 222.8759999999893,
      "v": 80
    },
    {
      "midi": 57,
      "hit": false,
      "t": 160992.57599999857,
      "d": 222.8759999999893,
      "v": 106
    },
    {
      "midi": 62,
      "hit": false,
      "t": 160992.57599999857,
      "d": 222.8759999999893,
      "v": 121
    },
    {
      "midi": 64,
      "hit": false,
      "t": 160992.57599999857,
      "d": 222.8759999999893,
      "v": 106
    },
    {
      "midi": 69,
      "hit": false,
      "t": 160992.57599999857,
      "d": 222.8759999999893,
      "v": 84
    },
    {
      "midi": 57,
      "hit": false,
      "t": 161253.50399999856,
      "d": 222.8759999999893,
      "v": 110
    },
    {
      "midi": 62,
      "hit": false,
      "t": 161253.50399999856,
      "d": 222.8759999999893,
      "v": 121
    },
    {
      "midi": 64,
      "hit": false,
      "t": 161253.50399999856,
      "d": 222.8759999999893,
      "v": 110
    },
    {
      "midi": 69,
      "hit": false,
      "t": 161253.50399999856,
      "d": 222.8759999999893,
      "v": 80
    },
    {
      "midi": 57,
      "hit": false,
      "t": 161514.43199999855,
      "d": 222.8759999999893,
      "v": 106
    },
    {
      "midi": 62,
      "hit": false,
      "t": 161514.43199999855,
      "d": 222.8759999999893,
      "v": 115
    },
    {
      "midi": 64,
      "hit": false,
      "t": 161514.43199999855,
      "d": 222.8759999999893,
      "v": 101
    },
    {
      "midi": 69,
      "hit": false,
      "t": 161514.43199999855,
      "d": 222.8759999999893,
      "v": 71
    },
    {
      "midi": 57,
      "hit": false,
      "t": 161775.35999999853,
      "d": 222.8759999999893,
      "v": 97
    },
    {
      "midi": 61,
      "hit": false,
      "t": 161775.35999999853,
      "d": 222.8759999999893,
      "v": 121
    },
    {
      "midi": 64,
      "hit": false,
      "t": 161775.35999999853,
      "d": 222.8759999999893,
      "v": 106
    },
    {
      "midi": 69,
      "hit": false,
      "t": 161775.35999999853,
      "d": 222.8759999999893,
      "v": 80
    },
    {
      "midi": 57,
      "hit": false,
      "t": 162036.28799999852,
      "d": 222.8759999999893,
      "v": 93
    },
    {
      "midi": 61,
      "hit": false,
      "t": 162036.28799999852,
      "d": 222.8759999999893,
      "v": 123
    },
    {
      "midi": 64,
      "hit": false,
      "t": 162036.28799999852,
      "d": 222.8759999999893,
      "v": 110
    },
    {
      "midi": 69,
      "hit": false,
      "t": 162036.28799999852,
      "d": 222.8759999999893,
      "v": 84
    },
    {
      "midi": 57,
      "hit": false,
      "t": 162297.2159999985,
      "d": 222.8759999999893,
      "v": 101
    },
    {
      "midi": 61,
      "hit": false,
      "t": 162297.2159999985,
      "d": 222.8759999999893,
      "v": 121
    },
    {
      "midi": 64,
      "hit": false,
      "t": 162297.2159999985,
      "d": 222.8759999999893,
      "v": 115
    },
    {
      "midi": 69,
      "hit": false,
      "t": 162297.2159999985,
      "d": 222.8759999999893,
      "v": 84
    },
    {
      "midi": 57,
      "hit": false,
      "t": 162558.1439999985,
      "d": 222.8759999999893,
      "v": 97
    },
    {
      "midi": 61,
      "hit": false,
      "t": 162558.1439999985,
      "d": 222.8759999999893,
      "v": 121
    },
    {
      "midi": 64,
      "hit": false,
      "t": 162558.1439999985,
      "d": 222.8759999999893,
      "v": 115
    },
    {
      "midi": 69,
      "hit": false,
      "t": 162558.1439999985,
      "d": 222.8759999999893,
      "v": 93
    },
    {
      "midi": 57,
      "hit": false,
      "t": 162819.07199999847,
      "d": 222.8759999999893,
      "v": 106
    },
    {
      "midi": 61,
      "hit": false,
      "t": 162819.07199999847,
      "d": 222.8759999999893,
      "v": 115
    },
    {
      "midi": 64,
      "hit": false,
      "t": 162819.07199999847,
      "d": 222.8759999999893,
      "v": 115
    },
    {
      "midi": 69,
      "hit": false,
      "t": 162819.07199999847,
      "d": 222.8759999999893,
      "v": 89
    },
    {
      "midi": 57,
      "hit": false,
      "t": 163079.99999999846,
      "d": 222.8759999999893,
      "v": 106
    },
    {
      "midi": 61,
      "hit": false,
      "t": 163079.99999999846,
      "d": 222.8759999999893,
      "v": 121
    },
    {
      "midi": 64,
      "hit": false,
      "t": 163079.99999999846,
      "d": 222.8759999999893,
      "v": 115
    },
    {
      "midi": 69,
      "hit": false,
      "t": 163079.99999999846,
      "d": 222.8759999999893,
      "v": 84
    },
    {
      "midi": 57,
      "hit": false,
      "t": 163340.92799999844,
      "d": 222.8759999999893,
      "v": 106
    },
    {
      "midi": 61,
      "hit": false,
      "t": 163340.92799999844,
      "d": 222.8759999999893,
      "v": 121
    },
    {
      "midi": 64,
      "hit": false,
      "t": 163340.92799999844,
      "d": 222.8759999999893,
      "v": 110
    },
    {
      "midi": 69,
      "hit": false,
      "t": 163340.92799999844,
      "d": 222.8759999999893,
      "v": 84
    },
    {
      "midi": 57,
      "hit": false,
      "t": 163601.85599999843,
      "d": 222.8759999999893,
      "v": 106
    },
    {
      "midi": 61,
      "hit": false,
      "t": 163601.85599999843,
      "d": 222.8759999999893,
      "v": 121
    },
    {
      "midi": 64,
      "hit": false,
      "t": 163601.85599999843,
      "d": 222.8759999999893,
      "v": 115
    },
    {
      "midi": 69,
      "hit": false,
      "t": 163601.85599999843,
      "d": 222.8759999999893,
      "v": 89
    },
    {
      "midi": 57,
      "hit": false,
      "t": 163862.7839999984,
      "d": 222.8759999999893,
      "v": 101
    },
    {
      "midi": 61,
      "hit": false,
      "t": 163862.7839999984,
      "d": 222.8759999999893,
      "v": 115
    },
    {
      "midi": 64,
      "hit": false,
      "t": 163862.7839999984,
      "d": 222.8759999999893,
      "v": 115
    },
    {
      "midi": 69,
      "hit": false,
      "t": 163862.7839999984,
      "d": 222.8759999999893,
      "v": 84
    },
    {
      "midi": 57,
      "hit": false,
      "t": 164123.7119999984,
      "d": 222.8759999999893,
      "v": 101
    },
    {
      "midi": 61,
      "hit": false,
      "t": 164123.7119999984,
      "d": 222.8759999999893,
      "v": 121
    },
    {
      "midi": 64,
      "hit": false,
      "t": 164123.7119999984,
      "d": 222.8759999999893,
      "v": 110
    },
    {
      "midi": 69,
      "hit": false,
      "t": 164123.7119999984,
      "d": 222.8759999999893,
      "v": 84
    },
    {
      "midi": 57,
      "hit": false,
      "t": 164384.63999999838,
      "d": 222.8759999999893,
      "v": 101
    },
    {
      "midi": 61,
      "hit": false,
      "t": 164384.63999999838,
      "d": 222.8759999999893,
      "v": 115
    },
    {
      "midi": 64,
      "hit": false,
      "t": 164384.63999999838,
      "d": 222.8759999999893,
      "v": 115
    },
    {
      "midi": 69,
      "hit": false,
      "t": 164384.63999999838,
      "d": 222.8759999999893,
      "v": 93
    },
    {
      "midi": 57,
      "hit": false,
      "t": 164645.56799999837,
      "d": 222.8759999999893,
      "v": 110
    },
    {
      "midi": 61,
      "hit": false,
      "t": 164645.56799999837,
      "d": 222.8759999999893,
      "v": 121
    },
    {
      "midi": 64,
      "hit": false,
      "t": 164645.56799999837,
      "d": 222.8759999999893,
      "v": 115
    },
    {
      "midi": 69,
      "hit": false,
      "t": 164645.56799999837,
      "d": 222.8759999999893,
      "v": 89
    },
    {
      "midi": 59,
      "hit": false,
      "t": 164906.49599999835,
      "d": 222.8759999999893,
      "v": 110
    },
    {
      "midi": 62,
      "hit": false,
      "t": 164906.49599999835,
      "d": 222.8759999999893,
      "v": 115
    },
    {
      "midi": 66,
      "hit": false,
      "t": 164906.49599999835,
      "d": 222.8759999999893,
      "v": 99
    },
    {
      "midi": 69,
      "hit": false,
      "t": 164906.49599999835,
      "d": 222.8759999999893,
      "v": 84
    },
    {
      "midi": 59,
      "hit": false,
      "t": 165167.42399999834,
      "d": 222.8759999999893,
      "v": 101
    },
    {
      "midi": 62,
      "hit": false,
      "t": 165167.42399999834,
      "d": 222.8759999999893,
      "v": 101
    },
    {
      "midi": 66,
      "hit": false,
      "t": 165167.42399999834,
      "d": 222.8759999999893,
      "v": 99
    },
    {
      "midi": 69,
      "hit": false,
      "t": 165167.42399999834,
      "d": 222.8759999999893,
      "v": 98
    },
    {
      "midi": 59,
      "hit": false,
      "t": 165428.35199999833,
      "d": 222.8759999999893,
      "v": 115
    },
    {
      "midi": 62,
      "hit": false,
      "t": 165428.35199999833,
      "d": 222.8759999999893,
      "v": 115
    },
    {
      "midi": 66,
      "hit": false,
      "t": 165428.35199999833,
      "d": 222.8759999999893,
      "v": 108
    },
    {
      "midi": 69,
      "hit": false,
      "t": 165428.35199999833,
      "d": 222.8759999999893,
      "v": 89
    },
    {
      "midi": 59,
      "hit": false,
      "t": 165689.2799999983,
      "d": 222.8759999999893,
      "v": 115
    },
    {
      "midi": 62,
      "hit": false,
      "t": 165689.2799999983,
      "d": 222.8759999999893,
      "v": 106
    },
    {
      "midi": 66,
      "hit": false,
      "t": 165689.2799999983,
      "d": 222.8759999999893,
      "v": 108
    },
    {
      "midi": 69,
      "hit": false,
      "t": 165689.2799999983,
      "d": 222.8759999999893,
      "v": 84
    },
    {
      "midi": 57,
      "hit": false,
      "t": 165950.2079999983,
      "d": 222.8759999999893,
      "v": 97
    },
    {
      "midi": 61,
      "hit": false,
      "t": 165950.2079999983,
      "d": 222.8759999999893,
      "v": 121
    },
    {
      "midi": 64,
      "hit": false,
      "t": 165950.2079999983,
      "d": 222.8759999999893,
      "v": 110
    },
    {
      "midi": 69,
      "hit": false,
      "t": 165950.2079999983,
      "d": 222.8759999999893,
      "v": 80
    },
    {
      "midi": 57,
      "hit": false,
      "t": 166211.13599999828,
      "d": 222.8759999999893,
      "v": 101
    },
    {
      "midi": 61,
      "hit": false,
      "t": 166211.13599999828,
      "d": 222.8759999999893,
      "v": 121
    },
    {
      "midi": 64,
      "hit": false,
      "t": 166211.13599999828,
      "d": 222.8759999999893,
      "v": 115
    },
    {
      "midi": 69,
      "hit": false,
      "t": 166211.13599999828,
      "d": 222.8759999999893,
      "v": 80
    },
    {
      "midi": 57,
      "hit": false,
      "t": 166472.06399999827,
      "d": 222.8759999999893,
      "v": 101
    },
    {
      "midi": 61,
      "hit": false,
      "t": 166472.06399999827,
      "d": 222.8759999999893,
      "v": 121
    },
    {
      "midi": 64,
      "hit": false,
      "t": 166472.06399999827,
      "d": 222.8759999999893,
      "v": 110
    },
    {
      "midi": 69,
      "hit": false,
      "t": 166472.06399999827,
      "d": 222.8759999999893,
      "v": 89
    },
    {
      "midi": 57,
      "hit": false,
      "t": 166732.99199999825,
      "d": 222.8759999999893,
      "v": 101
    },
    {
      "midi": 61,
      "hit": false,
      "t": 166732.99199999825,
      "d": 222.8759999999893,
      "v": 121
    },
    {
      "midi": 64,
      "hit": false,
      "t": 166732.99199999825,
      "d": 222.8759999999893,
      "v": 115
    },
    {
      "midi": 69,
      "hit": false,
      "t": 166732.99199999825,
      "d": 222.8759999999893,
      "v": 80
    },
    {
      "midi": 59,
      "hit": false,
      "t": 166993.91999999824,
      "d": 222.8759999999893,
      "v": 115
    },
    {
      "midi": 62,
      "hit": false,
      "t": 166993.91999999824,
      "d": 222.8759999999893,
      "v": 115
    },
    {
      "midi": 66,
      "hit": false,
      "t": 166993.91999999824,
      "d": 222.8759999999893,
      "v": 99
    },
    {
      "midi": 69,
      "hit": false,
      "t": 166993.91999999824,
      "d": 222.8759999999893,
      "v": 84
    },
    {
      "midi": 59,
      "hit": false,
      "t": 167254.84799999822,
      "d": 222.8759999999893,
      "v": 115
    },
    {
      "midi": 62,
      "hit": false,
      "t": 167254.84799999822,
      "d": 222.8759999999893,
      "v": 115
    },
    {
      "midi": 66,
      "hit": false,
      "t": 167254.84799999822,
      "d": 222.8759999999893,
      "v": 99
    },
    {
      "midi": 69,
      "hit": false,
      "t": 167254.84799999822,
      "d": 222.8759999999893,
      "v": 84
    },
    {
      "midi": 59,
      "hit": false,
      "t": 167515.7759999982,
      "d": 222.8759999999893,
      "v": 110
    },
    {
      "midi": 62,
      "hit": false,
      "t": 167515.7759999982,
      "d": 222.8759999999893,
      "v": 110
    },
    {
      "midi": 66,
      "hit": false,
      "t": 167515.7759999982,
      "d": 222.8759999999893,
      "v": 90
    },
    {
      "midi": 69,
      "hit": false,
      "t": 167515.7759999982,
      "d": 222.8759999999893,
      "v": 84
    },
    {
      "midi": 59,
      "hit": false,
      "t": 167776.7039999982,
      "d": 222.8759999999893,
      "v": 115
    },
    {
      "midi": 62,
      "hit": false,
      "t": 167776.7039999982,
      "d": 222.8759999999893,
      "v": 110
    },
    {
      "midi": 66,
      "hit": false,
      "t": 167776.7039999982,
      "d": 222.8759999999893,
      "v": 94
    },
    {
      "midi": 69,
      "hit": false,
      "t": 167776.7039999982,
      "d": 222.8759999999893,
      "v": 84
    },
    {
      "midi": 59,
      "hit": false,
      "t": 168037.63199999818,
      "d": 222.8759999999893,
      "v": 115
    },
    {
      "midi": 62,
      "hit": false,
      "t": 168037.63199999818,
      "d": 222.8759999999893,
      "v": 106
    },
    {
      "midi": 66,
      "hit": false,
      "t": 168037.63199999818,
      "d": 222.8759999999893,
      "v": 99
    },
    {
      "midi": 69,
      "hit": false,
      "t": 168037.63199999818,
      "d": 222.8759999999893,
      "v": 89
    },
    {
      "midi": 59,
      "hit": false,
      "t": 168298.55999999816,
      "d": 222.8759999999893,
      "v": 121
    },
    {
      "midi": 62,
      "hit": false,
      "t": 168298.55999999816,
      "d": 222.8759999999893,
      "v": 110
    },
    {
      "midi": 66,
      "hit": false,
      "t": 168298.55999999816,
      "d": 222.8759999999893,
      "v": 108
    },
    {
      "midi": 69,
      "hit": false,
      "t": 168298.55999999816,
      "d": 222.8759999999893,
      "v": 89
    },
    {
      "midi": 59,
      "hit": false,
      "t": 168559.48799999815,
      "d": 222.8759999999893,
      "v": 121
    },
    {
      "midi": 62,
      "hit": false,
      "t": 168559.48799999815,
      "d": 222.8759999999893,
      "v": 121
    },
    {
      "midi": 66,
      "hit": false,
      "t": 168559.48799999815,
      "d": 222.8759999999893,
      "v": 108
    },
    {
      "midi": 69,
      "hit": false,
      "t": 168559.48799999815,
      "d": 222.8759999999893,
      "v": 89
    },
    {
      "midi": 59,
      "hit": false,
      "t": 168820.41599999813,
      "d": 222.8759999999893,
      "v": 121
    },
    {
      "midi": 62,
      "hit": false,
      "t": 168820.41599999813,
      "d": 222.8759999999893,
      "v": 110
    },
    {
      "midi": 66,
      "hit": false,
      "t": 168820.41599999813,
      "d": 222.8759999999893,
      "v": 108
    },
    {
      "midi": 69,
      "hit": false,
      "t": 168820.41599999813,
      "d": 222.8759999999893,
      "v": 89
    },
    {
      "midi": 57,
      "hit": false,
      "t": 169081.34399999812,
      "d": 744.7319999999891,
      "v": 121
    },
    {
      "midi": 60,
      "hit": false,
      "t": 169081.34399999812,
      "d": 744.7319999999891,
      "v": 121
    },
    {
      "midi": 64,
      "hit": false,
      "t": 169081.34399999812,
      "d": 744.7319999999891,
      "v": 101
    },
    {
      "midi": 69,
      "hit": false,
      "t": 169081.34399999812,
      "d": 744.7319999999891,
      "v": 89
    },
    {
      "midi": 55,
      "hit": false,
      "t": 169864.1279999981,
      "d": 222.8759999999893,
      "v": 121
    },
    {
      "midi": 59,
      "hit": false,
      "t": 169864.1279999981,
      "d": 222.8759999999893,
      "v": 121
    },
    {
      "midi": 62,
      "hit": false,
      "t": 169864.1279999981,
      "d": 222.8759999999893,
      "v": 106
    },
    {
      "midi": 67,
      "hit": false,
      "t": 169864.1279999981,
      "d": 222.8759999999893,
      "v": 80
    },
    {
      "midi": 55,
      "hit": false,
      "t": 170125.0559999981,
      "d": 1005.6600000000035,
      "v": 115
    },
    {
      "midi": 59,
      "hit": false,
      "t": 170125.0559999981,
      "d": 1005.6600000000035,
      "v": 121
    },
    {
      "midi": 62,
      "hit": false,
      "t": 170125.0559999981,
      "d": 1005.6600000000035,
      "v": 110
    },
    {
      "midi": 67,
      "hit": false,
      "t": 170125.0559999981,
      "d": 1005.6600000000035,
      "v": 98
    },
    {
      "midi": 64,
      "hit": false,
      "t": 171168.7679999981,
      "d": 1.0872000000090338,
      "v": 101
    },
    {
      "midi": 57,
      "hit": false,
      "t": 171168.7679999981,
      "d": 222.8760000000184,
      "v": 88
    },
    {
      "midi": 61,
      "hit": false,
      "t": 171168.7679999981,
      "d": 222.8760000000184,
      "v": 96
    },
    {
      "midi": 69,
      "hit": false,
      "t": 171168.7679999981,
      "d": 222.8760000000184,
      "v": 94
    },
    {
      "midi": 64,
      "hit": false,
      "t": 171429.6959999981,
      "d": 1.0872000000090338,
      "v": 105
    },
    {
      "midi": 57,
      "hit": false,
      "t": 171429.6959999981,
      "d": 222.8760000000184,
      "v": 96
    },
    {
      "midi": 61,
      "hit": false,
      "t": 171429.6959999981,
      "d": 222.8760000000184,
      "v": 96
    },
    {
      "midi": 69,
      "hit": false,
      "t": 171429.6959999981,
      "d": 222.8760000000184,
      "v": 85
    },
    {
      "midi": 64,
      "hit": false,
      "t": 171690.62399999812,
      "d": 1.0872000000090338,
      "v": 101
    },
    {
      "midi": 57,
      "hit": false,
      "t": 171690.62399999812,
      "d": 222.8760000000184,
      "v": 92
    },
    {
      "midi": 61,
      "hit": false,
      "t": 171690.62399999812,
      "d": 222.8760000000184,
      "v": 105
    },
    {
      "midi": 69,
      "hit": false,
      "t": 171690.62399999812,
      "d": 222.8760000000184,
      "v": 85
    },
    {
      "midi": 64,
      "hit": false,
      "t": 171951.55199999813,
      "d": 1.0872000000090338,
      "v": 105
    },
    {
      "midi": 57,
      "hit": false,
      "t": 171951.55199999813,
      "d": 222.8760000000184,
      "v": 96
    },
    {
      "midi": 61,
      "hit": false,
      "t": 171951.55199999813,
      "d": 222.8760000000184,
      "v": 105
    },
    {
      "midi": 69,
      "hit": false,
      "t": 171951.55199999813,
      "d": 222.8760000000184,
      "v": 85
    },
    {
      "midi": 64,
      "hit": false,
      "t": 172212.47999999815,
      "d": 1.0872000000090338,
      "v": 110
    },
    {
      "midi": 57,
      "hit": false,
      "t": 172212.47999999815,
      "d": 222.8760000000184,
      "v": 92
    },
    {
      "midi": 61,
      "hit": false,
      "t": 172212.47999999815,
      "d": 222.8760000000184,
      "v": 110
    },
    {
      "midi": 69,
      "hit": false,
      "t": 172212.47999999815,
      "d": 222.8760000000184,
      "v": 94
    },
    {
      "midi": 64,
      "hit": false,
      "t": 172473.40799999816,
      "d": 1.0872000000090338,
      "v": 110
    },
    {
      "midi": 57,
      "hit": false,
      "t": 172473.40799999816,
      "d": 222.8760000000184,
      "v": 92
    },
    {
      "midi": 61,
      "hit": false,
      "t": 172473.40799999816,
      "d": 222.8760000000184,
      "v": 110
    },
    {
      "midi": 69,
      "hit": false,
      "t": 172473.40799999816,
      "d": 222.8760000000184,
      "v": 85
    },
    {
      "midi": 64,
      "hit": false,
      "t": 172734.33599999818,
      "d": 1.0872000000090338,
      "v": 110
    },
    {
      "midi": 57,
      "hit": false,
      "t": 172734.33599999818,
      "d": 222.8760000000184,
      "v": 92
    },
    {
      "midi": 61,
      "hit": false,
      "t": 172734.33599999818,
      "d": 222.8760000000184,
      "v": 110
    },
    {
      "midi": 69,
      "hit": false,
      "t": 172734.33599999818,
      "d": 222.8760000000184,
      "v": 85
    },
    {
      "midi": 64,
      "hit": false,
      "t": 172995.2639999982,
      "d": 1.0872000000090338,
      "v": 110
    },
    {
      "midi": 57,
      "hit": false,
      "t": 172995.2639999982,
      "d": 222.8760000000184,
      "v": 105
    },
    {
      "midi": 61,
      "hit": false,
      "t": 172995.2639999982,
      "d": 222.8760000000184,
      "v": 110
    },
    {
      "midi": 69,
      "hit": false,
      "t": 172995.2639999982,
      "d": 222.8760000000184,
      "v": 85
    },
    {
      "midi": 64,
      "hit": false,
      "t": 173256.1919999982,
      "d": 1.0872000000090338,
      "v": 110
    },
    {
      "midi": 57,
      "hit": false,
      "t": 173256.1919999982,
      "d": 222.8760000000184,
      "v": 92
    },
    {
      "midi": 60,
      "hit": false,
      "t": 173256.1919999982,
      "d": 222.8760000000184,
      "v": 96
    },
    {
      "midi": 67,
      "hit": false,
      "t": 173256.1919999982,
      "d": 222.8760000000184,
      "v": 94
    },
    {
      "midi": 64,
      "hit": false,
      "t": 173517.11999999822,
      "d": 1.0872000000090338,
      "v": 101
    },
    {
      "midi": 57,
      "hit": false,
      "t": 173517.11999999822,
      "d": 222.8760000000184,
      "v": 96
    },
    {
      "midi": 60,
      "hit": false,
      "t": 173517.11999999822,
      "d": 222.8760000000184,
      "v": 101
    },
    {
      "midi": 67,
      "hit": false,
      "t": 173517.11999999822,
      "d": 222.8760000000184,
      "v": 85
    },
    {
      "midi": 64,
      "hit": false,
      "t": 173778.04799999823,
      "d": 1.0872000000090338,
      "v": 101
    },
    {
      "midi": 57,
      "hit": false,
      "t": 173778.04799999823,
      "d": 222.8760000000184,
      "v": 101
    },
    {
      "midi": 60,
      "hit": false,
      "t": 173778.04799999823,
      "d": 222.8760000000184,
      "v": 101
    },
    {
      "midi": 67,
      "hit": false,
      "t": 173778.04799999823,
      "d": 222.8760000000184,
      "v": 89
    },
    {
      "midi": 64,
      "hit": false,
      "t": 174038.97599999825,
      "d": 1.0872000000090338,
      "v": 110
    },
    {
      "midi": 57,
      "hit": false,
      "t": 174038.97599999825,
      "d": 222.8760000000184,
      "v": 96
    },
    {
      "midi": 60,
      "hit": false,
      "t": 174038.97599999825,
      "d": 222.8760000000184,
      "v": 101
    },
    {
      "midi": 67,
      "hit": false,
      "t": 174038.97599999825,
      "d": 222.8760000000184,
      "v": 81
    },
    {
      "midi": 62,
      "hit": false,
      "t": 174299.90399999826,
      "d": 1.0872000000090338,
      "v": 110
    },
    {
      "midi": 55,
      "hit": false,
      "t": 174299.90399999826,
      "d": 222.8760000000184,
      "v": 92
    },
    {
      "midi": 59,
      "hit": false,
      "t": 174299.90399999826,
      "d": 222.8760000000184,
      "v": 105
    },
    {
      "midi": 67,
      "hit": false,
      "t": 174299.90399999826,
      "d": 222.8760000000184,
      "v": 85
    },
    {
      "midi": 62,
      "hit": false,
      "t": 174560.83199999828,
      "d": 1.0872000000090338,
      "v": 116
    },
    {
      "midi": 55,
      "hit": false,
      "t": 174560.83199999828,
      "d": 222.8760000000184,
      "v": 101
    },
    {
      "midi": 59,
      "hit": false,
      "t": 174560.83199999828,
      "d": 222.8760000000184,
      "v": 101
    },
    {
      "midi": 67,
      "hit": false,
      "t": 174560.83199999828,
      "d": 222.8760000000184,
      "v": 89
    },
    {
      "midi": 62,
      "hit": false,
      "t": 174821.7599999983,
      "d": 1.0872000000090338,
      "v": 101
    },
    {
      "midi": 55,
      "hit": false,
      "t": 174821.7599999983,
      "d": 222.8760000000184,
      "v": 110
    },
    {
      "midi": 59,
      "hit": false,
      "t": 174821.7599999983,
      "d": 222.8760000000184,
      "v": 110
    },
    {
      "midi": 67,
      "hit": false,
      "t": 174821.7599999983,
      "d": 222.8760000000184,
      "v": 85
    },
    {
      "midi": 62,
      "hit": false,
      "t": 175082.6879999983,
      "d": 1.0872000000090338,
      "v": 110
    },
    {
      "midi": 55,
      "hit": false,
      "t": 175082.6879999983,
      "d": 222.8760000000184,
      "v": 96
    },
    {
      "midi": 59,
      "hit": false,
      "t": 175082.6879999983,
      "d": 222.8760000000184,
      "v": 101
    },
    {
      "midi": 67,
      "hit": false,
      "t": 175082.6879999983,
      "d": 222.8760000000184,
      "v": 94
    },
    {
      "midi": 64,
      "hit": false,
      "t": 175343.61599999832,
      "d": 1.0872000000090338,
      "v": 101
    },
    {
      "midi": 57,
      "hit": false,
      "t": 175343.61599999832,
      "d": 222.8760000000184,
      "v": 92
    },
    {
      "midi": 61,
      "hit": false,
      "t": 175343.61599999832,
      "d": 222.8760000000184,
      "v": 101
    },
    {
      "midi": 69,
      "hit": false,
      "t": 175343.61599999832,
      "d": 222.8760000000184,
      "v": 94
    },
    {
      "midi": 64,
      "hit": false,
      "t": 175604.54399999834,
      "d": 1.0872000000090338,
      "v": 105
    },
    {
      "midi": 57,
      "hit": false,
      "t": 175604.54399999834,
      "d": 222.8760000000184,
      "v": 92
    },
    {
      "midi": 61,
      "hit": false,
      "t": 175604.54399999834,
      "d": 222.8760000000184,
      "v": 110
    },
    {
      "midi": 69,
      "hit": false,
      "t": 175604.54399999834,
      "d": 222.8760000000184,
      "v": 85
    },
    {
      "midi": 64,
      "hit": false,
      "t": 175865.47199999835,
      "d": 1.0872000000090338,
      "v": 105
    },
    {
      "midi": 57,
      "hit": false,
      "t": 175865.47199999835,
      "d": 222.8760000000184,
      "v": 96
    },
    {
      "midi": 61,
      "hit": false,
      "t": 175865.47199999835,
      "d": 222.8760000000184,
      "v": 105
    },
    {
      "midi": 69,
      "hit": false,
      "t": 175865.47199999835,
      "d": 222.8760000000184,
      "v": 89
    },
    {
      "midi": 64,
      "hit": false,
      "t": 176126.39999999836,
      "d": 1.0872000000090338,
      "v": 105
    },
    {
      "midi": 57,
      "hit": false,
      "t": 176126.39999999836,
      "d": 222.8760000000184,
      "v": 105
    },
    {
      "midi": 61,
      "hit": false,
      "t": 176126.39999999836,
      "d": 222.8760000000184,
      "v": 105
    },
    {
      "midi": 69,
      "hit": false,
      "t": 176126.39999999836,
      "d": 222.8760000000184,
      "v": 94
    },
    {
      "midi": 64,
      "hit": false,
      "t": 176387.32799999838,
      "d": 1.0872000000090338,
      "v": 116
    },
    {
      "midi": 57,
      "hit": false,
      "t": 176387.32799999838,
      "d": 222.8760000000184,
      "v": 105
    },
    {
      "midi": 61,
      "hit": false,
      "t": 176387.32799999838,
      "d": 222.8760000000184,
      "v": 105
    },
    {
      "midi": 69,
      "hit": false,
      "t": 176387.32799999838,
      "d": 222.8760000000184,
      "v": 89
    },
    {
      "midi": 64,
      "hit": false,
      "t": 176648.2559999984,
      "d": 1.0872000000090338,
      "v": 105
    },
    {
      "midi": 57,
      "hit": false,
      "t": 176648.2559999984,
      "d": 222.8760000000184,
      "v": 101
    },
    {
      "midi": 61,
      "hit": false,
      "t": 176648.2559999984,
      "d": 222.8760000000184,
      "v": 116
    },
    {
      "midi": 69,
      "hit": false,
      "t": 176648.2559999984,
      "d": 222.8760000000184,
      "v": 94
    },
    {
      "midi": 64,
      "hit": false,
      "t": 176909.1839999984,
      "d": 1.0872000000090338,
      "v": 116
    },
    {
      "midi": 57,
      "hit": false,
      "t": 176909.1839999984,
      "d": 222.8760000000184,
      "v": 101
    },
    {
      "midi": 61,
      "hit": false,
      "t": 176909.1839999984,
      "d": 222.8760000000184,
      "v": 110
    },
    {
      "midi": 69,
      "hit": false,
      "t": 176909.1839999984,
      "d": 222.8760000000184,
      "v": 85
    },
    {
      "midi": 64,
      "hit": false,
      "t": 177170.11199999842,
      "d": 1.0872000000090338,
      "v": 110
    },
    {
      "midi": 57,
      "hit": false,
      "t": 177170.11199999842,
      "d": 222.8760000000184,
      "v": 105
    },
    {
      "midi": 61,
      "hit": false,
      "t": 177170.11199999842,
      "d": 222.8760000000184,
      "v": 110
    },
    {
      "midi": 69,
      "hit": false,
      "t": 177170.11199999842,
      "d": 222.8760000000184,
      "v": 85
    },
    {
      "midi": 64,
      "hit": false,
      "t": 177431.03999999844,
      "d": 1.0872000000090338,
      "v": 105
    },
    {
      "midi": 57,
      "hit": false,
      "t": 177431.03999999844,
      "d": 222.8760000000184,
      "v": 96
    },
    {
      "midi": 60,
      "hit": false,
      "t": 177431.03999999844,
      "d": 222.8760000000184,
      "v": 105
    },
    {
      "midi": 67,
      "hit": false,
      "t": 177431.03999999844,
      "d": 222.8760000000184,
      "v": 94
    },
    {
      "midi": 64,
      "hit": false,
      "t": 177691.96799999845,
      "d": 1.0872000000090338,
      "v": 105
    },
    {
      "midi": 57,
      "hit": false,
      "t": 177691.96799999845,
      "d": 222.8760000000184,
      "v": 101
    },
    {
      "midi": 60,
      "hit": false,
      "t": 177691.96799999845,
      "d": 222.8760000000184,
      "v": 101
    },
    {
      "midi": 67,
      "hit": false,
      "t": 177691.96799999845,
      "d": 222.8760000000184,
      "v": 85
    },
    {
      "midi": 64,
      "hit": false,
      "t": 177952.89599999847,
      "d": 1.0872000000090338,
      "v": 110
    },
    {
      "midi": 57,
      "hit": false,
      "t": 177952.89599999847,
      "d": 222.8760000000184,
      "v": 96
    },
    {
      "midi": 60,
      "hit": false,
      "t": 177952.89599999847,
      "d": 222.8760000000184,
      "v": 105
    },
    {
      "midi": 67,
      "hit": false,
      "t": 177952.89599999847,
      "d": 222.8760000000184,
      "v": 85
    },
    {
      "midi": 64,
      "hit": false,
      "t": 178213.82399999848,
      "d": 1.0872000000090338,
      "v": 110
    },
    {
      "midi": 57,
      "hit": false,
      "t": 178213.82399999848,
      "d": 222.8760000000184,
      "v": 96
    },
    {
      "midi": 60,
      "hit": false,
      "t": 178213.82399999848,
      "d": 222.8760000000184,
      "v": 105
    },
    {
      "midi": 67,
      "hit": false,
      "t": 178213.82399999848,
      "d": 222.8760000000184,
      "v": 81
    },
    {
      "midi": 62,
      "hit": false,
      "t": 178474.7519999985,
      "d": 1.0872000000090338,
      "v": 116
    },
    {
      "midi": 55,
      "hit": false,
      "t": 178474.7519999985,
      "d": 222.8760000000184,
      "v": 96
    },
    {
      "midi": 59,
      "hit": false,
      "t": 178474.7519999985,
      "d": 222.8760000000184,
      "v": 110
    },
    {
      "midi": 67,
      "hit": false,
      "t": 178474.7519999985,
      "d": 222.8760000000184,
      "v": 85
    },
    {
      "midi": 62,
      "hit": false,
      "t": 178735.6799999985,
      "d": 1.0872000000090338,
      "v": 110
    },
    {
      "midi": 55,
      "hit": false,
      "t": 178735.6799999985,
      "d": 222.8760000000184,
      "v": 101
    },
    {
      "midi": 59,
      "hit": false,
      "t": 178735.6799999985,
      "d": 222.8760000000184,
      "v": 116
    },
    {
      "midi": 67,
      "hit": false,
      "t": 178735.6799999985,
      "d": 222.8760000000184,
      "v": 94
    },
    {
      "midi": 62,
      "hit": false,
      "t": 178996.60799999852,
      "d": 1.0872000000090338,
      "v": 116
    },
    {
      "midi": 55,
      "hit": false,
      "t": 178996.60799999852,
      "d": 222.8760000000184,
      "v": 101
    },
    {
      "midi": 59,
      "hit": false,
      "t": 178996.60799999852,
      "d": 222.8760000000184,
      "v": 110
    },
    {
      "midi": 67,
      "hit": false,
      "t": 178996.60799999852,
      "d": 222.8760000000184,
      "v": 89
    },
    {
      "midi": 62,
      "hit": false,
      "t": 179257.53599999854,
      "d": 1.0872000000090338,
      "v": 116
    },
    {
      "midi": 55,
      "hit": false,
      "t": 179257.53599999854,
      "d": 222.8760000000184,
      "v": 110
    },
    {
      "midi": 59,
      "hit": false,
      "t": 179257.53599999854,
      "d": 222.8760000000184,
      "v": 116
    },
    {
      "midi": 67,
      "hit": false,
      "t": 179257.53599999854,
      "d": 222.8760000000184,
      "v": 89
    },
    {
      "midi": 64,
      "hit": false,
      "t": 179518.46399999855,
      "d": 1.0872000000090338,
      "v": 110
    },
    {
      "midi": 57,
      "hit": false,
      "t": 179518.46399999855,
      "d": 222.8760000000184,
      "v": 88
    },
    {
      "midi": 61,
      "hit": false,
      "t": 179518.46399999855,
      "d": 222.8760000000184,
      "v": 101
    },
    {
      "midi": 69,
      "hit": false,
      "t": 179518.46399999855,
      "d": 222.8760000000184,
      "v": 98
    },
    {
      "midi": 64,
      "hit": false,
      "t": 179779.39199999857,
      "d": 1.0872000000090338,
      "v": 101
    },
    {
      "midi": 57,
      "hit": false,
      "t": 179779.39199999857,
      "d": 222.8760000000184,
      "v": 92
    },
    {
      "midi": 61,
      "hit": false,
      "t": 179779.39199999857,
      "d": 222.8760000000184,
      "v": 105
    },
    {
      "midi": 69,
      "hit": false,
      "t": 179779.39199999857,
      "d": 222.8760000000184,
      "v": 85
    },
    {
      "midi": 64,
      "hit": false,
      "t": 180040.31999999858,
      "d": 1.0872000000090338,
      "v": 105
    },
    {
      "midi": 57,
      "hit": false,
      "t": 180040.31999999858,
      "d": 222.8760000000184,
      "v": 96
    },
    {
      "midi": 61,
      "hit": false,
      "t": 180040.31999999858,
      "d": 222.8760000000184,
      "v": 110
    },
    {
      "midi": 69,
      "hit": false,
      "t": 180040.31999999858,
      "d": 222.8760000000184,
      "v": 89
    },
    {
      "midi": 64,
      "hit": false,
      "t": 180301.2479999986,
      "d": 1.0872000000090338,
      "v": 101
    },
    {
      "midi": 57,
      "hit": false,
      "t": 180301.2479999986,
      "d": 222.8760000000184,
      "v": 96
    },
    {
      "midi": 61,
      "hit": false,
      "t": 180301.2479999986,
      "d": 222.8760000000184,
      "v": 110
    },
    {
      "midi": 69,
      "hit": false,
      "t": 180301.2479999986,
      "d": 222.8760000000184,
      "v": 85
    },
    {
      "midi": 64,
      "hit": false,
      "t": 180562.1759999986,
      "d": 1.0872000000090338,
      "v": 105
    },
    {
      "midi": 57,
      "hit": false,
      "t": 180562.1759999986,
      "d": 222.8760000000184,
      "v": 101
    },
    {
      "midi": 61,
      "hit": false,
      "t": 180562.1759999986,
      "d": 222.8760000000184,
      "v": 116
    },
    {
      "midi": 69,
      "hit": false,
      "t": 180562.1759999986,
      "d": 222.8760000000184,
      "v": 98
    },
    {
      "midi": 64,
      "hit": false,
      "t": 180823.10399999862,
      "d": 1.0872000000090338,
      "v": 105
    },
    {
      "midi": 57,
      "hit": false,
      "t": 180823.10399999862,
      "d": 222.8760000000184,
      "v": 101
    },
    {
      "midi": 61,
      "hit": false,
      "t": 180823.10399999862,
      "d": 222.8760000000184,
      "v": 110
    },
    {
      "midi": 69,
      "hit": false,
      "t": 180823.10399999862,
      "d": 222.8760000000184,
      "v": 85
    },
    {
      "midi": 64,
      "hit": false,
      "t": 181084.03199999864,
      "d": 1.0872000000090338,
      "v": 105
    },
    {
      "midi": 57,
      "hit": false,
      "t": 181084.03199999864,
      "d": 222.8760000000184,
      "v": 101
    },
    {
      "midi": 61,
      "hit": false,
      "t": 181084.03199999864,
      "d": 222.8760000000184,
      "v": 105
    },
    {
      "midi": 69,
      "hit": false,
      "t": 181084.03199999864,
      "d": 222.8760000000184,
      "v": 98
    },
    {
      "midi": 64,
      "hit": false,
      "t": 181344.95999999865,
      "d": 1.0872000000090338,
      "v": 110
    },
    {
      "midi": 57,
      "hit": false,
      "t": 181344.95999999865,
      "d": 222.8760000000184,
      "v": 96
    },
    {
      "midi": 61,
      "hit": false,
      "t": 181344.95999999865,
      "d": 222.8760000000184,
      "v": 116
    },
    {
      "midi": 69,
      "hit": false,
      "t": 181344.95999999865,
      "d": 222.8760000000184,
      "v": 98
    },
    {
      "midi": 64,
      "hit": false,
      "t": 181605.88799999867,
      "d": 1.0872000000090338,
      "v": 105
    },
    {
      "midi": 57,
      "hit": false,
      "t": 181605.88799999867,
      "d": 222.8760000000184,
      "v": 92
    },
    {
      "midi": 60,
      "hit": false,
      "t": 181605.88799999867,
      "d": 222.8760000000184,
      "v": 101
    },
    {
      "midi": 67,
      "hit": false,
      "t": 181605.88799999867,
      "d": 222.8760000000184,
      "v": 103
    },
    {
      "midi": 64,
      "hit": false,
      "t": 181866.81599999868,
      "d": 1.0872000000090338,
      "v": 116
    },
    {
      "midi": 57,
      "hit": false,
      "t": 181866.81599999868,
      "d": 222.8760000000184,
      "v": 105
    },
    {
      "midi": 60,
      "hit": false,
      "t": 181866.81599999868,
      "d": 222.8760000000184,
      "v": 110
    },
    {
      "midi": 67,
      "hit": false,
      "t": 181866.81599999868,
      "d": 222.8760000000184,
      "v": 98
    },
    {
      "midi": 64,
      "hit": false,
      "t": 182127.7439999987,
      "d": 1.0872000000090338,
      "v": 105
    },
    {
      "midi": 57,
      "hit": false,
      "t": 182127.7439999987,
      "d": 222.8760000000184,
      "v": 110
    },
    {
      "midi": 60,
      "hit": false,
      "t": 182127.7439999987,
      "d": 222.8760000000184,
      "v": 110
    },
    {
      "midi": 67,
      "hit": false,
      "t": 182127.7439999987,
      "d": 222.8760000000184,
      "v": 103
    },
    {
      "midi": 64,
      "hit": false,
      "t": 182388.6719999987,
      "d": 1.0872000000090338,
      "v": 105
    },
    {
      "midi": 57,
      "hit": false,
      "t": 182388.6719999987,
      "d": 222.8760000000184,
      "v": 110
    },
    {
      "midi": 60,
      "hit": false,
      "t": 182388.6719999987,
      "d": 222.8760000000184,
      "v": 110
    },
    {
      "midi": 67,
      "hit": false,
      "t": 182388.6719999987,
      "d": 222.8760000000184,
      "v": 89
    },
    {
      "midi": 62,
      "hit": false,
      "t": 182649.59999999873,
      "d": 1.0872000000090338,
      "v": 122
    },
    {
      "midi": 55,
      "hit": false,
      "t": 182649.59999999873,
      "d": 222.8760000000184,
      "v": 101
    },
    {
      "midi": 59,
      "hit": false,
      "t": 182649.59999999873,
      "d": 222.8760000000184,
      "v": 105
    },
    {
      "midi": 67,
      "hit": false,
      "t": 182649.59999999873,
      "d": 222.8760000000184,
      "v": 89
    },
    {
      "midi": 62,
      "hit": false,
      "t": 182910.52799999874,
      "d": 1.0872000000090338,
      "v": 110
    },
    {
      "midi": 55,
      "hit": false,
      "t": 182910.52799999874,
      "d": 222.8760000000184,
      "v": 110
    },
    {
      "midi": 59,
      "hit": false,
      "t": 182910.52799999874,
      "d": 222.8760000000184,
      "v": 116
    },
    {
      "midi": 67,
      "hit": false,
      "t": 182910.52799999874,
      "d": 222.8760000000184,
      "v": 94
    },
    {
      "midi": 62,
      "hit": false,
      "t": 183171.45599999875,
      "d": 1.0872000000090338,
      "v": 110
    },
    {
      "midi": 55,
      "hit": false,
      "t": 183171.45599999875,
      "d": 222.8760000000184,
      "v": 110
    },
    {
      "midi": 59,
      "hit": false,
      "t": 183171.45599999875,
      "d": 222.8760000000184,
      "v": 116
    },
    {
      "midi": 67,
      "hit": false,
      "t": 183171.45599999875,
      "d": 222.8760000000184,
      "v": 98
    },
    {
      "midi": 62,
      "hit": false,
      "t": 183432.38399999877,
      "d": 1.0872000000090338,
      "v": 116
    },
    {
      "midi": 55,
      "hit": false,
      "t": 183432.38399999877,
      "d": 222.8760000000184,
      "v": 110
    },
    {
      "midi": 59,
      "hit": false,
      "t": 183432.38399999877,
      "d": 222.8760000000184,
      "v": 116
    },
    {
      "midi": 67,
      "hit": false,
      "t": 183432.38399999877,
      "d": 222.8760000000184,
      "v": 98
    },
    {
      "midi": 64,
      "hit": false,
      "t": 183693.31199999878,
      "d": 1.0872000000090338,
      "v": 105
    },
    {
      "midi": 57,
      "hit": false,
      "t": 183693.31199999878,
      "d": 222.8760000000184,
      "v": 96
    },
    {
      "midi": 61,
      "hit": false,
      "t": 183693.31199999878,
      "d": 222.8760000000184,
      "v": 105
    },
    {
      "midi": 69,
      "hit": false,
      "t": 183693.31199999878,
      "d": 222.8760000000184,
      "v": 98
    },
    {
      "midi": 64,
      "hit": false,
      "t": 183954.2399999988,
      "d": 1.0872000000090338,
      "v": 110
    },
    {
      "midi": 57,
      "hit": false,
      "t": 183954.2399999988,
      "d": 222.8760000000184,
      "v": 101
    },
    {
      "midi": 61,
      "hit": false,
      "t": 183954.2399999988,
      "d": 222.8760000000184,
      "v": 105
    },
    {
      "midi": 69,
      "hit": false,
      "t": 183954.2399999988,
      "d": 222.8760000000184,
      "v": 89
    },
    {
      "midi": 64,
      "hit": false,
      "t": 184215.1679999988,
      "d": 1.0872000000090338,
      "v": 101
    },
    {
      "midi": 57,
      "hit": false,
      "t": 184215.1679999988,
      "d": 222.8760000000184,
      "v": 101
    },
    {
      "midi": 61,
      "hit": false,
      "t": 184215.1679999988,
      "d": 222.8760000000184,
      "v": 116
    },
    {
      "midi": 69,
      "hit": false,
      "t": 184215.1679999988,
      "d": 222.8760000000184,
      "v": 85
    },
    {
      "midi": 64,
      "hit": false,
      "t": 184476.09599999883,
      "d": 1.0872000000090338,
      "v": 116
    },
    {
      "midi": 57,
      "hit": false,
      "t": 184476.09599999883,
      "d": 222.8760000000184,
      "v": 96
    },
    {
      "midi": 61,
      "hit": false,
      "t": 184476.09599999883,
      "d": 222.8760000000184,
      "v": 116
    },
    {
      "midi": 69,
      "hit": false,
      "t": 184476.09599999883,
      "d": 222.8760000000184,
      "v": 94
    },
    {
      "midi": 64,
      "hit": false,
      "t": 184737.02399999884,
      "d": 1.0872000000090338,
      "v": 110
    },
    {
      "midi": 57,
      "hit": false,
      "t": 184737.02399999884,
      "d": 222.8760000000184,
      "v": 105
    },
    {
      "midi": 61,
      "hit": false,
      "t": 184737.02399999884,
      "d": 222.8760000000184,
      "v": 116
    },
    {
      "midi": 69,
      "hit": false,
      "t": 184737.02399999884,
      "d": 222.8760000000184,
      "v": 89
    },
    {
      "midi": 64,
      "hit": false,
      "t": 184997.95199999886,
      "d": 1.0872000000090338,
      "v": 110
    },
    {
      "midi": 57,
      "hit": false,
      "t": 184997.95199999886,
      "d": 222.8760000000184,
      "v": 105
    },
    {
      "midi": 61,
      "hit": false,
      "t": 184997.95199999886,
      "d": 222.8760000000184,
      "v": 110
    },
    {
      "midi": 69,
      "hit": false,
      "t": 184997.95199999886,
      "d": 222.8760000000184,
      "v": 98
    },
    {
      "midi": 64,
      "hit": false,
      "t": 185258.87999999887,
      "d": 1.0872000000090338,
      "v": 110
    },
    {
      "midi": 57,
      "hit": false,
      "t": 185258.87999999887,
      "d": 222.8760000000184,
      "v": 105
    },
    {
      "midi": 61,
      "hit": false,
      "t": 185258.87999999887,
      "d": 222.8760000000184,
      "v": 110
    },
    {
      "midi": 69,
      "hit": false,
      "t": 185258.87999999887,
      "d": 222.8760000000184,
      "v": 94
    },
    {
      "midi": 64,
      "hit": false,
      "t": 185519.80799999888,
      "d": 1.0872000000090338,
      "v": 116
    },
    {
      "midi": 57,
      "hit": false,
      "t": 185519.80799999888,
      "d": 222.8760000000184,
      "v": 101
    },
    {
      "midi": 61,
      "hit": false,
      "t": 185519.80799999888,
      "d": 222.8760000000184,
      "v": 110
    },
    {
      "midi": 69,
      "hit": false,
      "t": 185519.80799999888,
      "d": 222.8760000000184,
      "v": 85
    },
    {
      "midi": 64,
      "hit": false,
      "t": 185780.7359999989,
      "d": 1.0872000000090338,
      "v": 101
    },
    {
      "midi": 57,
      "hit": false,
      "t": 185780.7359999989,
      "d": 222.8760000000184,
      "v": 92
    },
    {
      "midi": 60,
      "hit": false,
      "t": 185780.7359999989,
      "d": 222.8760000000184,
      "v": 101
    },
    {
      "midi": 67,
      "hit": false,
      "t": 185780.7359999989,
      "d": 222.8760000000184,
      "v": 103
    },
    {
      "midi": 64,
      "hit": false,
      "t": 186041.6639999989,
      "d": 1.0872000000090338,
      "v": 110
    },
    {
      "midi": 57,
      "hit": false,
      "t": 186041.6639999989,
      "d": 222.8760000000184,
      "v": 105
    },
    {
      "midi": 60,
      "hit": false,
      "t": 186041.6639999989,
      "d": 222.8760000000184,
      "v": 105
    },
    {
      "midi": 67,
      "hit": false,
      "t": 186041.6639999989,
      "d": 222.8760000000184,
      "v": 94
    },
    {
      "midi": 64,
      "hit": false,
      "t": 186302.59199999893,
      "d": 1.0872000000090338,
      "v": 105
    },
    {
      "midi": 57,
      "hit": false,
      "t": 186302.59199999893,
      "d": 222.8760000000184,
      "v": 101
    },
    {
      "midi": 60,
      "hit": false,
      "t": 186302.59199999893,
      "d": 222.8760000000184,
      "v": 105
    },
    {
      "midi": 67,
      "hit": false,
      "t": 186302.59199999893,
      "d": 222.8760000000184,
      "v": 89
    },
    {
      "midi": 64,
      "hit": false,
      "t": 186563.51999999894,
      "d": 1.0872000000090338,
      "v": 110
    },
    {
      "midi": 57,
      "hit": false,
      "t": 186563.51999999894,
      "d": 222.8760000000184,
      "v": 105
    },
    {
      "midi": 60,
      "hit": false,
      "t": 186563.51999999894,
      "d": 222.8760000000184,
      "v": 116
    },
    {
      "midi": 67,
      "hit": false,
      "t": 186563.51999999894,
      "d": 222.8760000000184,
      "v": 85
    },
    {
      "midi": 62,
      "hit": false,
      "t": 186824.44799999896,
      "d": 1.0872000000090338,
      "v": 116
    },
    {
      "midi": 55,
      "hit": false,
      "t": 186824.44799999896,
      "d": 222.8760000000184,
      "v": 96
    },
    {
      "midi": 59,
      "hit": false,
      "t": 186824.44799999896,
      "d": 222.8760000000184,
      "v": 110
    },
    {
      "midi": 67,
      "hit": false,
      "t": 186824.44799999896,
      "d": 222.8760000000184,
      "v": 76
    },
    {
      "midi": 62,
      "hit": false,
      "t": 187085.37599999897,
      "d": 1.0872000000090338,
      "v": 110
    },
    {
      "midi": 55,
      "hit": false,
      "t": 187085.37599999897,
      "d": 222.8760000000184,
      "v": 96
    },
    {
      "midi": 59,
      "hit": false,
      "t": 187085.37599999897,
      "d": 222.8760000000184,
      "v": 110
    },
    {
      "midi": 67,
      "hit": false,
      "t": 187085.37599999897,
      "d": 222.8760000000184,
      "v": 85
    },
    {
      "midi": 62,
      "hit": false,
      "t": 187346.30399999899,
      "d": 1.0872000000090338,
      "v": 116
    },
    {
      "midi": 55,
      "hit": false,
      "t": 187346.30399999899,
      "d": 222.8760000000184,
      "v": 105
    },
    {
      "midi": 59,
      "hit": false,
      "t": 187346.30399999899,
      "d": 222.8760000000184,
      "v": 110
    },
    {
      "midi": 67,
      "hit": false,
      "t": 187346.30399999899,
      "d": 222.8760000000184,
      "v": 89
    },
    {
      "midi": 62,
      "hit": false,
      "t": 187607.231999999,
      "d": 1.0872000000090338,
      "v": 116
    },
    {
      "midi": 55,
      "hit": false,
      "t": 187607.231999999,
      "d": 222.8760000000184,
      "v": 110
    },
    {
      "midi": 59,
      "hit": false,
      "t": 187607.231999999,
      "d": 222.8760000000184,
      "v": 122
    },
    {
      "midi": 67,
      "hit": false,
      "t": 187607.231999999,
      "d": 222.8760000000184,
      "v": 98
    },
    {
      "midi": 64,
      "hit": false,
      "t": 187868.159999999,
      "d": 1.0872000000090338,
      "v": 105
    },
    {
      "midi": 57,
      "hit": false,
      "t": 187868.159999999,
      "d": 222.8760000000184,
      "v": 83
    },
    {
      "midi": 61,
      "hit": false,
      "t": 187868.159999999,
      "d": 222.8760000000184,
      "v": 105
    },
    {
      "midi": 69,
      "hit": false,
      "t": 187868.159999999,
      "d": 222.8760000000184,
      "v": 89
    },
    {
      "midi": 64,
      "hit": false,
      "t": 188129.08799999903,
      "d": 1.0872000000090338,
      "v": 105
    },
    {
      "midi": 57,
      "hit": false,
      "t": 188129.08799999903,
      "d": 222.8760000000184,
      "v": 101
    },
    {
      "midi": 61,
      "hit": false,
      "t": 188129.08799999903,
      "d": 222.8760000000184,
      "v": 110
    },
    {
      "midi": 69,
      "hit": false,
      "t": 188129.08799999903,
      "d": 222.8760000000184,
      "v": 89
    },
    {
      "midi": 64,
      "hit": false,
      "t": 188390.01599999904,
      "d": 1.0872000000090338,
      "v": 105
    },
    {
      "midi": 57,
      "hit": false,
      "t": 188390.01599999904,
      "d": 222.8760000000184,
      "v": 101
    },
    {
      "midi": 61,
      "hit": false,
      "t": 188390.01599999904,
      "d": 222.8760000000184,
      "v": 105
    },
    {
      "midi": 69,
      "hit": false,
      "t": 188390.01599999904,
      "d": 222.8760000000184,
      "v": 94
    },
    {
      "midi": 64,
      "hit": false,
      "t": 188650.94399999906,
      "d": 1.0872000000090338,
      "v": 105
    },
    {
      "midi": 57,
      "hit": false,
      "t": 188650.94399999906,
      "d": 222.8760000000184,
      "v": 105
    },
    {
      "midi": 61,
      "hit": false,
      "t": 188650.94399999906,
      "d": 222.8760000000184,
      "v": 110
    },
    {
      "midi": 69,
      "hit": false,
      "t": 188650.94399999906,
      "d": 222.8760000000184,
      "v": 94
    },
    {
      "midi": 64,
      "hit": false,
      "t": 188911.87199999907,
      "d": 1.0872000000090338,
      "v": 105
    },
    {
      "midi": 57,
      "hit": false,
      "t": 188911.87199999907,
      "d": 222.8760000000184,
      "v": 96
    },
    {
      "midi": 61,
      "hit": false,
      "t": 188911.87199999907,
      "d": 222.8760000000184,
      "v": 116
    },
    {
      "midi": 69,
      "hit": false,
      "t": 188911.87199999907,
      "d": 222.8760000000184,
      "v": 94
    },
    {
      "midi": 64,
      "hit": false,
      "t": 189172.7999999991,
      "d": 1.0872000000090338,
      "v": 105
    },
    {
      "midi": 57,
      "hit": false,
      "t": 189172.7999999991,
      "d": 222.8760000000184,
      "v": 101
    },
    {
      "midi": 61,
      "hit": false,
      "t": 189172.7999999991,
      "d": 222.8760000000184,
      "v": 110
    },
    {
      "midi": 69,
      "hit": false,
      "t": 189172.7999999991,
      "d": 222.8760000000184,
      "v": 85
    },
    {
      "midi": 64,
      "hit": false,
      "t": 189433.7279999991,
      "d": 1.0872000000090338,
      "v": 105
    },
    {
      "midi": 57,
      "hit": false,
      "t": 189433.7279999991,
      "d": 222.8760000000184,
      "v": 101
    },
    {
      "midi": 61,
      "hit": false,
      "t": 189433.7279999991,
      "d": 222.8760000000184,
      "v": 110
    },
    {
      "midi": 69,
      "hit": false,
      "t": 189433.7279999991,
      "d": 222.8760000000184,
      "v": 94
    },
    {
      "midi": 64,
      "hit": false,
      "t": 189694.65599999912,
      "d": 1.0872000000090338,
      "v": 105
    },
    {
      "midi": 57,
      "hit": false,
      "t": 189694.65599999912,
      "d": 222.8760000000184,
      "v": 96
    },
    {
      "midi": 61,
      "hit": false,
      "t": 189694.65599999912,
      "d": 222.8760000000184,
      "v": 105
    },
    {
      "midi": 69,
      "hit": false,
      "t": 189694.65599999912,
      "d": 222.8760000000184,
      "v": 89
    },
    {
      "midi": 64,
      "hit": false,
      "t": 189955.58399999913,
      "d": 1.0872000000090338,
      "v": 110
    },
    {
      "midi": 57,
      "hit": false,
      "t": 189955.58399999913,
      "d": 222.8760000000184,
      "v": 92
    },
    {
      "midi": 60,
      "hit": false,
      "t": 189955.58399999913,
      "d": 222.8760000000184,
      "v": 101
    },
    {
      "midi": 67,
      "hit": false,
      "t": 189955.58399999913,
      "d": 222.8760000000184,
      "v": 94
    },
    {
      "midi": 64,
      "hit": false,
      "t": 190216.51199999914,
      "d": 1.0872000000090338,
      "v": 110
    },
    {
      "midi": 57,
      "hit": false,
      "t": 190216.51199999914,
      "d": 222.8760000000184,
      "v": 101
    },
    {
      "midi": 60,
      "hit": false,
      "t": 190216.51199999914,
      "d": 222.8760000000184,
      "v": 105
    },
    {
      "midi": 67,
      "hit": false,
      "t": 190216.51199999914,
      "d": 222.8760000000184,
      "v": 98
    },
    {
      "midi": 64,
      "hit": false,
      "t": 190477.43999999916,
      "d": 1.0872000000090338,
      "v": 110
    },
    {
      "midi": 57,
      "hit": false,
      "t": 190477.43999999916,
      "d": 222.8760000000184,
      "v": 96
    },
    {
      "midi": 60,
      "hit": false,
      "t": 190477.43999999916,
      "d": 222.8760000000184,
      "v": 101
    },
    {
      "midi": 67,
      "hit": false,
      "t": 190477.43999999916,
      "d": 222.8760000000184,
      "v": 98
    },
    {
      "midi": 64,
      "hit": false,
      "t": 190738.36799999917,
      "d": 1.0872000000090338,
      "v": 116
    },
    {
      "midi": 57,
      "hit": false,
      "t": 190738.36799999917,
      "d": 222.8760000000184,
      "v": 105
    },
    {
      "midi": 60,
      "hit": false,
      "t": 190738.36799999917,
      "d": 222.8760000000184,
      "v": 116
    },
    {
      "midi": 67,
      "hit": false,
      "t": 190738.36799999917,
      "d": 222.8760000000184,
      "v": 94
    },
    {
      "midi": 62,
      "hit": false,
      "t": 190999.2959999992,
      "d": 1.0872000000090338,
      "v": 110
    },
    {
      "midi": 55,
      "hit": false,
      "t": 190999.2959999992,
      "d": 222.8760000000184,
      "v": 96
    },
    {
      "midi": 59,
      "hit": false,
      "t": 190999.2959999992,
      "d": 222.8760000000184,
      "v": 110
    },
    {
      "midi": 67,
      "hit": false,
      "t": 190999.2959999992,
      "d": 222.8760000000184,
      "v": 89
    },
    {
      "midi": 62,
      "hit": false,
      "t": 191260.2239999992,
      "d": 1.0872000000090338,
      "v": 110
    },
    {
      "midi": 55,
      "hit": false,
      "t": 191260.2239999992,
      "d": 222.8760000000184,
      "v": 101
    },
    {
      "midi": 59,
      "hit": false,
      "t": 191260.2239999992,
      "d": 222.8760000000184,
      "v": 110
    },
    {
      "midi": 67,
      "hit": false,
      "t": 191260.2239999992,
      "d": 222.8760000000184,
      "v": 94
    },
    {
      "midi": 62,
      "hit": false,
      "t": 191521.15199999922,
      "d": 1.0872000000090338,
      "v": 110
    },
    {
      "midi": 55,
      "hit": false,
      "t": 191521.15199999922,
      "d": 222.8760000000184,
      "v": 92
    },
    {
      "midi": 59,
      "hit": false,
      "t": 191521.15199999922,
      "d": 222.8760000000184,
      "v": 105
    },
    {
      "midi": 67,
      "hit": false,
      "t": 191521.15199999922,
      "d": 222.8760000000184,
      "v": 89
    },
    {
      "midi": 62,
      "hit": false,
      "t": 191782.07999999923,
      "d": 1.0872000000090338,
      "v": 110
    },
    {
      "midi": 55,
      "hit": false,
      "t": 191782.07999999923,
      "d": 222.8760000000184,
      "v": 105
    },
    {
      "midi": 59,
      "hit": false,
      "t": 191782.07999999923,
      "d": 222.8760000000184,
      "v": 116
    },
    {
      "midi": 67,
      "hit": false,
      "t": 191782.07999999923,
      "d": 222.8760000000184,
      "v": 89
    },
    {
      "midi": 64,
      "hit": false,
      "t": 192043.00799999924,
      "d": 1.0872000000090338,
      "v": 101
    },
    {
      "midi": 57,
      "hit": false,
      "t": 192043.00799999924,
      "d": 222.8760000000184,
      "v": 88
    },
    {
      "midi": 61,
      "hit": false,
      "t": 192043.00799999924,
      "d": 222.8760000000184,
      "v": 101
    },
    {
      "midi": 69,
      "hit": false,
      "t": 192043.00799999924,
      "d": 222.8760000000184,
      "v": 89
    },
    {
      "midi": 64,
      "hit": false,
      "t": 192303.93599999926,
      "d": 1.0872000000090338,
      "v": 110
    },
    {
      "midi": 57,
      "hit": false,
      "t": 192303.93599999926,
      "d": 222.8760000000184,
      "v": 101
    },
    {
      "midi": 61,
      "hit": false,
      "t": 192303.93599999926,
      "d": 222.8760000000184,
      "v": 110
    },
    {
      "midi": 69,
      "hit": false,
      "t": 192303.93599999926,
      "d": 222.8760000000184,
      "v": 89
    },
    {
      "midi": 64,
      "hit": false,
      "t": 192564.86399999927,
      "d": 1.0872000000090338,
      "v": 110
    },
    {
      "midi": 57,
      "hit": false,
      "t": 192564.86399999927,
      "d": 222.8760000000184,
      "v": 92
    },
    {
      "midi": 61,
      "hit": false,
      "t": 192564.86399999927,
      "d": 222.8760000000184,
      "v": 96
    },
    {
      "midi": 69,
      "hit": false,
      "t": 192564.86399999927,
      "d": 222.8760000000184,
      "v": 94
    },
    {
      "midi": 64,
      "hit": false,
      "t": 192825.7919999993,
      "d": 1.0872000000090338,
      "v": 110
    },
    {
      "midi": 57,
      "hit": false,
      "t": 192825.7919999993,
      "d": 222.8760000000184,
      "v": 105
    },
    {
      "midi": 61,
      "hit": false,
      "t": 192825.7919999993,
      "d": 222.8760000000184,
      "v": 110
    },
    {
      "midi": 69,
      "hit": false,
      "t": 192825.7919999993,
      "d": 222.8760000000184,
      "v": 98
    },
    {
      "midi": 64,
      "hit": false,
      "t": 193086.7199999993,
      "d": 1.0872000000090338,
      "v": 105
    },
    {
      "midi": 57,
      "hit": false,
      "t": 193086.7199999993,
      "d": 222.8760000000184,
      "v": 105
    },
    {
      "midi": 61,
      "hit": false,
      "t": 193086.7199999993,
      "d": 222.8760000000184,
      "v": 110
    },
    {
      "midi": 69,
      "hit": false,
      "t": 193086.7199999993,
      "d": 222.8760000000184,
      "v": 94
    },
    {
      "midi": 64,
      "hit": false,
      "t": 193347.64799999932,
      "d": 1.0872000000090338,
      "v": 116
    },
    {
      "midi": 57,
      "hit": false,
      "t": 193347.64799999932,
      "d": 222.8760000000184,
      "v": 105
    },
    {
      "midi": 61,
      "hit": false,
      "t": 193347.64799999932,
      "d": 222.8760000000184,
      "v": 116
    },
    {
      "midi": 69,
      "hit": false,
      "t": 193347.64799999932,
      "d": 222.8760000000184,
      "v": 103
    },
    {
      "midi": 64,
      "hit": false,
      "t": 193608.57599999933,
      "d": 1.0872000000090338,
      "v": 105
    },
    {
      "midi": 57,
      "hit": false,
      "t": 193608.57599999933,
      "d": 222.8760000000184,
      "v": 96
    },
    {
      "midi": 61,
      "hit": false,
      "t": 193608.57599999933,
      "d": 222.8760000000184,
      "v": 116
    },
    {
      "midi": 69,
      "hit": false,
      "t": 193608.57599999933,
      "d": 222.8760000000184,
      "v": 89
    },
    {
      "midi": 64,
      "hit": false,
      "t": 193869.50399999935,
      "d": 1.0872000000090338,
      "v": 110
    },
    {
      "midi": 57,
      "hit": false,
      "t": 193869.50399999935,
      "d": 222.8760000000184,
      "v": 110
    },
    {
      "midi": 61,
      "hit": false,
      "t": 193869.50399999935,
      "d": 222.8760000000184,
      "v": 116
    },
    {
      "midi": 69,
      "hit": false,
      "t": 193869.50399999935,
      "d": 222.8760000000184,
      "v": 98
    },
    {
      "midi": 62,
      "hit": false,
      "t": 194130.43199999936,
      "d": 1.0872000000090338,
      "v": 110
    },
    {
      "midi": 55,
      "hit": false,
      "t": 194130.43199999936,
      "d": 222.8760000000184,
      "v": 92
    },
    {
      "midi": 59,
      "hit": false,
      "t": 194130.43199999936,
      "d": 222.8760000000184,
      "v": 110
    },
    {
      "midi": 67,
      "hit": false,
      "t": 194130.43199999936,
      "d": 222.8760000000184,
      "v": 98
    },
    {
      "midi": 62,
      "hit": false,
      "t": 194391.35999999937,
      "d": 1.0872000000090338,
      "v": 110
    },
    {
      "midi": 55,
      "hit": false,
      "t": 194391.35999999937,
      "d": 222.8760000000184,
      "v": 110
    },
    {
      "midi": 59,
      "hit": false,
      "t": 194391.35999999937,
      "d": 222.8760000000184,
      "v": 116
    },
    {
      "midi": 67,
      "hit": false,
      "t": 194391.35999999937,
      "d": 222.8760000000184,
      "v": 98
    },
    {
      "midi": 62,
      "hit": false,
      "t": 194652.2879999994,
      "d": 1.0872000000090338,
      "v": 110
    },
    {
      "midi": 55,
      "hit": false,
      "t": 194652.2879999994,
      "d": 222.8760000000184,
      "v": 101
    },
    {
      "midi": 59,
      "hit": false,
      "t": 194652.2879999994,
      "d": 222.8760000000184,
      "v": 110
    },
    {
      "midi": 67,
      "hit": false,
      "t": 194652.2879999994,
      "d": 222.8760000000184,
      "v": 89
    },
    {
      "midi": 62,
      "hit": false,
      "t": 194913.2159999994,
      "d": 1.0872000000090338,
      "v": 105
    },
    {
      "midi": 55,
      "hit": false,
      "t": 194913.2159999994,
      "d": 222.8760000000184,
      "v": 116
    },
    {
      "midi": 59,
      "hit": false,
      "t": 194913.2159999994,
      "d": 222.8760000000184,
      "v": 116
    },
    {
      "midi": 67,
      "hit": false,
      "t": 194913.2159999994,
      "d": 222.8760000000184,
      "v": 103
    },
    {
      "midi": 62,
      "hit": false,
      "t": 195174.14399999942,
      "d": 1.0872000000090338,
      "v": 116
    },
    {
      "midi": 55,
      "hit": false,
      "t": 195174.14399999942,
      "d": 222.8760000000184,
      "v": 105
    },
    {
      "midi": 59,
      "hit": false,
      "t": 195174.14399999942,
      "d": 222.8760000000184,
      "v": 110
    },
    {
      "midi": 67,
      "hit": false,
      "t": 195174.14399999942,
      "d": 222.8760000000184,
      "v": 94
    },
    {
      "midi": 62,
      "hit": false,
      "t": 195435.07199999943,
      "d": 1.0872000000090338,
      "v": 110
    },
    {
      "midi": 55,
      "hit": false,
      "t": 195435.07199999943,
      "d": 222.8760000000184,
      "v": 101
    },
    {
      "midi": 59,
      "hit": false,
      "t": 195435.07199999943,
      "d": 222.8760000000184,
      "v": 116
    },
    {
      "midi": 67,
      "hit": false,
      "t": 195435.07199999943,
      "d": 222.8760000000184,
      "v": 98
    },
    {
      "midi": 62,
      "hit": false,
      "t": 195695.99999999945,
      "d": 1.0872000000090338,
      "v": 110
    },
    {
      "midi": 55,
      "hit": false,
      "t": 195695.99999999945,
      "d": 222.8760000000184,
      "v": 101
    },
    {
      "midi": 59,
      "hit": false,
      "t": 195695.99999999945,
      "d": 222.8760000000184,
      "v": 110
    },
    {
      "midi": 67,
      "hit": false,
      "t": 195695.99999999945,
      "d": 222.8760000000184,
      "v": 94
    },
    {
      "midi": 62,
      "hit": false,
      "t": 195956.92799999946,
      "d": 1.0872000000090338,
      "v": 116
    },
    {
      "midi": 55,
      "hit": false,
      "t": 195956.92799999946,
      "d": 222.8760000000184,
      "v": 110
    },
    {
      "midi": 59,
      "hit": false,
      "t": 195956.92799999946,
      "d": 222.8760000000184,
      "v": 110
    },
    {
      "midi": 67,
      "hit": false,
      "t": 195956.92799999946,
      "d": 222.8760000000184,
      "v": 103
    },
    {
      "midi": 64,
      "hit": false,
      "t": 196217.85599999948,
      "d": 1.0872000000090338,
      "v": 110
    },
    {
      "midi": 57,
      "hit": false,
      "t": 196217.85599999948,
      "d": 222.8760000000184,
      "v": 96
    },
    {
      "midi": 61,
      "hit": false,
      "t": 196217.85599999948,
      "d": 222.8760000000184,
      "v": 110
    },
    {
      "midi": 69,
      "hit": false,
      "t": 196217.85599999948,
      "d": 222.8760000000184,
      "v": 98
    },
    {
      "midi": 64,
      "hit": false,
      "t": 196478.7839999995,
      "d": 1.0872000000090338,
      "v": 105
    },
    {
      "midi": 57,
      "hit": false,
      "t": 196478.7839999995,
      "d": 222.8760000000184,
      "v": 79
    },
    {
      "midi": 61,
      "hit": false,
      "t": 196478.7839999995,
      "d": 222.8760000000184,
      "v": 110
    },
    {
      "midi": 69,
      "hit": false,
      "t": 196478.7839999995,
      "d": 222.8760000000184,
      "v": 94
    },
    {
      "midi": 64,
      "hit": false,
      "t": 196739.7119999995,
      "d": 1.0872000000090338,
      "v": 116
    },
    {
      "midi": 57,
      "hit": false,
      "t": 196739.7119999995,
      "d": 222.8760000000184,
      "v": 105
    },
    {
      "midi": 61,
      "hit": false,
      "t": 196739.7119999995,
      "d": 222.8760000000184,
      "v": 110
    },
    {
      "midi": 69,
      "hit": false,
      "t": 196739.7119999995,
      "d": 222.8760000000184,
      "v": 81
    },
    {
      "midi": 64,
      "hit": false,
      "t": 197000.63999999952,
      "d": 1.0872000000090338,
      "v": 105
    },
    {
      "midi": 57,
      "hit": false,
      "t": 197000.63999999952,
      "d": 222.8760000000184,
      "v": 101
    },
    {
      "midi": 61,
      "hit": false,
      "t": 197000.63999999952,
      "d": 222.8760000000184,
      "v": 110
    },
    {
      "midi": 69,
      "hit": false,
      "t": 197000.63999999952,
      "d": 222.8760000000184,
      "v": 89
    },
    {
      "midi": 64,
      "hit": false,
      "t": 197261.56799999953,
      "d": 1.0872000000090338,
      "v": 110
    },
    {
      "midi": 57,
      "hit": false,
      "t": 197261.56799999953,
      "d": 222.8760000000184,
      "v": 101
    },
    {
      "midi": 61,
      "hit": false,
      "t": 197261.56799999953,
      "d": 222.8760000000184,
      "v": 105
    },
    {
      "midi": 69,
      "hit": false,
      "t": 197261.56799999953,
      "d": 222.8760000000184,
      "v": 94
    },
    {
      "midi": 64,
      "hit": false,
      "t": 197522.49599999955,
      "d": 1.0872000000090338,
      "v": 110
    },
    {
      "midi": 57,
      "hit": false,
      "t": 197522.49599999955,
      "d": 222.8760000000184,
      "v": 101
    },
    {
      "midi": 61,
      "hit": false,
      "t": 197522.49599999955,
      "d": 222.8760000000184,
      "v": 110
    },
    {
      "midi": 69,
      "hit": false,
      "t": 197522.49599999955,
      "d": 222.8760000000184,
      "v": 94
    },
    {
      "midi": 64,
      "hit": false,
      "t": 197783.42399999956,
      "d": 1.0872000000090338,
      "v": 110
    },
    {
      "midi": 57,
      "hit": false,
      "t": 197783.42399999956,
      "d": 222.8760000000184,
      "v": 92
    },
    {
      "midi": 61,
      "hit": false,
      "t": 197783.42399999956,
      "d": 222.8760000000184,
      "v": 105
    },
    {
      "midi": 69,
      "hit": false,
      "t": 197783.42399999956,
      "d": 222.8760000000184,
      "v": 89
    },
    {
      "midi": 64,
      "hit": false,
      "t": 198044.35199999958,
      "d": 1.0872000000090338,
      "v": 105
    },
    {
      "midi": 57,
      "hit": false,
      "t": 198044.35199999958,
      "d": 222.8760000000184,
      "v": 101
    },
    {
      "midi": 61,
      "hit": false,
      "t": 198044.35199999958,
      "d": 222.8760000000184,
      "v": 116
    },
    {
      "midi": 69,
      "hit": false,
      "t": 198044.35199999958,
      "d": 222.8760000000184,
      "v": 89
    },
    {
      "midi": 62,
      "hit": false,
      "t": 198305.2799999996,
      "d": 1.0872000000090338,
      "v": 105
    },
    {
      "midi": 55,
      "hit": false,
      "t": 198305.2799999996,
      "d": 222.8760000000184,
      "v": 101
    },
    {
      "midi": 59,
      "hit": false,
      "t": 198305.2799999996,
      "d": 222.8760000000184,
      "v": 110
    },
    {
      "midi": 67,
      "hit": false,
      "t": 198305.2799999996,
      "d": 222.8760000000184,
      "v": 94
    },
    {
      "midi": 62,
      "hit": false,
      "t": 198566.2079999996,
      "d": 1.0872000000090338,
      "v": 110
    },
    {
      "midi": 55,
      "hit": false,
      "t": 198566.2079999996,
      "d": 222.8760000000184,
      "v": 101
    },
    {
      "midi": 59,
      "hit": false,
      "t": 198566.2079999996,
      "d": 222.8760000000184,
      "v": 110
    },
    {
      "midi": 67,
      "hit": false,
      "t": 198566.2079999996,
      "d": 222.8760000000184,
      "v": 89
    },
    {
      "midi": 62,
      "hit": false,
      "t": 198827.13599999962,
      "d": 1.0872000000090338,
      "v": 110
    },
    {
      "midi": 55,
      "hit": false,
      "t": 198827.13599999962,
      "d": 222.8760000000184,
      "v": 105
    },
    {
      "midi": 59,
      "hit": false,
      "t": 198827.13599999962,
      "d": 222.8760000000184,
      "v": 116
    },
    {
      "midi": 67,
      "hit": false,
      "t": 198827.13599999962,
      "d": 222.8760000000184,
      "v": 103
    },
    {
      "midi": 62,
      "hit": false,
      "t": 199088.06399999963,
      "d": 1.0872000000090338,
      "v": 105
    },
    {
      "midi": 55,
      "hit": false,
      "t": 199088.06399999963,
      "d": 222.8760000000184,
      "v": 101
    },
    {
      "midi": 59,
      "hit": false,
      "t": 199088.06399999963,
      "d": 222.8760000000184,
      "v": 110
    },
    {
      "midi": 67,
      "hit": false,
      "t": 199088.06399999963,
      "d": 222.8760000000184,
      "v": 98
    },
    {
      "midi": 62,
      "hit": false,
      "t": 199348.99199999965,
      "d": 1.0872000000090338,
      "v": 110
    },
    {
      "midi": 55,
      "hit": false,
      "t": 199348.99199999965,
      "d": 222.8760000000184,
      "v": 101
    },
    {
      "midi": 59,
      "hit": false,
      "t": 199348.99199999965,
      "d": 222.8760000000184,
      "v": 116
    },
    {
      "midi": 67,
      "hit": false,
      "t": 199348.99199999965,
      "d": 222.8760000000184,
      "v": 94
    },
    {
      "midi": 62,
      "hit": false,
      "t": 199609.91999999966,
      "d": 1.0872000000090338,
      "v": 110
    },
    {
      "midi": 55,
      "hit": false,
      "t": 199609.91999999966,
      "d": 222.8760000000184,
      "v": 110
    },
    {
      "midi": 59,
      "hit": false,
      "t": 199609.91999999966,
      "d": 222.8760000000184,
      "v": 116
    },
    {
      "midi": 67,
      "hit": false,
      "t": 199609.91999999966,
      "d": 222.8760000000184,
      "v": 98
    },
    {
      "midi": 62,
      "hit": false,
      "t": 199870.84799999968,
      "d": 1.0872000000090338,
      "v": 110
    },
    {
      "midi": 55,
      "hit": false,
      "t": 199870.84799999968,
      "d": 222.8760000000184,
      "v": 101
    },
    {
      "midi": 59,
      "hit": false,
      "t": 199870.84799999968,
      "d": 222.8760000000184,
      "v": 105
    },
    {
      "midi": 67,
      "hit": false,
      "t": 199870.84799999968,
      "d": 222.8760000000184,
      "v": 103
    },
    {
      "midi": 62,
      "hit": false,
      "t": 200131.7759999997,
      "d": 1.0872000000090338,
      "v": 116
    },
    {
      "midi": 55,
      "hit": false,
      "t": 200131.7759999997,
      "d": 222.8760000000184,
      "v": 110
    },
    {
      "midi": 59,
      "hit": false,
      "t": 200131.7759999997,
      "d": 222.8760000000184,
      "v": 116
    },
    {
      "midi": 67,
      "hit": false,
      "t": 200131.7759999997,
      "d": 222.8760000000184,
      "v": 89
    },
    {
      "midi": 64,
      "hit": false,
      "t": 200392.7039999997,
      "d": 1.0872000000090338,
      "v": 110
    },
    {
      "midi": 57,
      "hit": false,
      "t": 200392.7039999997,
      "d": 222.8760000000184,
      "v": 105
    },
    {
      "midi": 61,
      "hit": false,
      "t": 200392.7039999997,
      "d": 222.8760000000184,
      "v": 110
    },
    {
      "midi": 69,
      "hit": false,
      "t": 200392.7039999997,
      "d": 222.8760000000184,
      "v": 94
    },
    {
      "midi": 64,
      "hit": false,
      "t": 200653.63199999972,
      "d": 1.0872000000090338,
      "v": 110
    },
    {
      "midi": 57,
      "hit": false,
      "t": 200653.63199999972,
      "d": 222.8760000000184,
      "v": 101
    },
    {
      "midi": 61,
      "hit": false,
      "t": 200653.63199999972,
      "d": 222.8760000000184,
      "v": 110
    },
    {
      "midi": 69,
      "hit": false,
      "t": 200653.63199999972,
      "d": 222.8760000000184,
      "v": 98
    },
    {
      "midi": 64,
      "hit": false,
      "t": 200914.55999999974,
      "d": 1.0872000000090338,
      "v": 116
    },
    {
      "midi": 57,
      "hit": false,
      "t": 200914.55999999974,
      "d": 222.8760000000184,
      "v": 101
    },
    {
      "midi": 61,
      "hit": false,
      "t": 200914.55999999974,
      "d": 222.8760000000184,
      "v": 116
    },
    {
      "midi": 69,
      "hit": false,
      "t": 200914.55999999974,
      "d": 222.8760000000184,
      "v": 94
    },
    {
      "midi": 64,
      "hit": false,
      "t": 201175.48799999975,
      "d": 1.0872000000090338,
      "v": 116
    },
    {
      "midi": 57,
      "hit": false,
      "t": 201175.48799999975,
      "d": 222.8760000000184,
      "v": 96
    },
    {
      "midi": 61,
      "hit": false,
      "t": 201175.48799999975,
      "d": 222.8760000000184,
      "v": 116
    },
    {
      "midi": 69,
      "hit": false,
      "t": 201175.48799999975,
      "d": 222.8760000000184,
      "v": 94
    },
    {
      "midi": 64,
      "hit": false,
      "t": 201436.41599999976,
      "d": 1.0872000000090338,
      "v": 110
    },
    {
      "midi": 57,
      "hit": false,
      "t": 201436.41599999976,
      "d": 222.8760000000184,
      "v": 105
    },
    {
      "midi": 61,
      "hit": false,
      "t": 201436.41599999976,
      "d": 222.8760000000184,
      "v": 116
    },
    {
      "midi": 69,
      "hit": false,
      "t": 201436.41599999976,
      "d": 222.8760000000184,
      "v": 89
    },
    {
      "midi": 64,
      "hit": false,
      "t": 201697.34399999978,
      "d": 1.0872000000090338,
      "v": 116
    },
    {
      "midi": 57,
      "hit": false,
      "t": 201697.34399999978,
      "d": 222.8760000000184,
      "v": 110
    },
    {
      "midi": 61,
      "hit": false,
      "t": 201697.34399999978,
      "d": 222.8760000000184,
      "v": 116
    },
    {
      "midi": 69,
      "hit": false,
      "t": 201697.34399999978,
      "d": 222.8760000000184,
      "v": 89
    },
    {
      "midi": 64,
      "hit": false,
      "t": 201958.2719999998,
      "d": 1.0872000000090338,
      "v": 110
    },
    {
      "midi": 57,
      "hit": false,
      "t": 201958.2719999998,
      "d": 222.8760000000184,
      "v": 88
    },
    {
      "midi": 61,
      "hit": false,
      "t": 201958.2719999998,
      "d": 222.8760000000184,
      "v": 116
    },
    {
      "midi": 69,
      "hit": false,
      "t": 201958.2719999998,
      "d": 222.8760000000184,
      "v": 94
    },
    {
      "midi": 57,
      "hit": false,
      "t": 202219.1999999998,
      "d": 222.8759999999893,
      "v": 110
    },
    {
      "midi": 64,
      "hit": false,
      "t": 202219.1999999998,
      "d": 222.8759999999893,
      "v": 116
    },
    {
      "midi": 69,
      "hit": false,
      "t": 202219.1999999998,
      "d": 222.8759999999893,
      "v": 94
    },
    {
      "midi": 57,
      "hit": false,
      "t": 202480.1279999998,
      "d": 222.8759999999893,
      "v": 106
    },
    {
      "midi": 62,
      "hit": false,
      "t": 202480.1279999998,
      "d": 222.8759999999893,
      "v": 101
    },
    {
      "midi": 66,
      "hit": false,
      "t": 202480.1279999998,
      "d": 222.8759999999893,
      "v": 108
    },
    {
      "midi": 69,
      "hit": false,
      "t": 202480.1279999998,
      "d": 222.8759999999893,
      "v": 93
    },
    {
      "midi": 57,
      "hit": false,
      "t": 202741.05599999978,
      "d": 222.8759999999893,
      "v": 106
    },
    {
      "midi": 62,
      "hit": false,
      "t": 202741.05599999978,
      "d": 222.8759999999893,
      "v": 97
    },
    {
      "midi": 66,
      "hit": false,
      "t": 202741.05599999978,
      "d": 222.8759999999893,
      "v": 90
    },
    {
      "midi": 69,
      "hit": false,
      "t": 202741.05599999978,
      "d": 222.8759999999893,
      "v": 80
    },
    {
      "midi": 57,
      "hit": false,
      "t": 203001.98399999976,
      "d": 222.8759999999893,
      "v": 106
    },
    {
      "midi": 62,
      "hit": false,
      "t": 203001.98399999976,
      "d": 222.8759999999893,
      "v": 101
    },
    {
      "midi": 66,
      "hit": false,
      "t": 203001.98399999976,
      "d": 222.8759999999893,
      "v": 94
    },
    {
      "midi": 69,
      "hit": false,
      "t": 203001.98399999976,
      "d": 222.8759999999893,
      "v": 80
    },
    {
      "midi": 57,
      "hit": false,
      "t": 203262.91199999975,
      "d": 222.8759999999893,
      "v": 110
    },
    {
      "midi": 62,
      "hit": false,
      "t": 203262.91199999975,
      "d": 222.8759999999893,
      "v": 97
    },
    {
      "midi": 66,
      "hit": false,
      "t": 203262.91199999975,
      "d": 222.8759999999893,
      "v": 94
    },
    {
      "midi": 69,
      "hit": false,
      "t": 203262.91199999975,
      "d": 222.8759999999893,
      "v": 84
    },
    {
      "midi": 57,
      "hit": false,
      "t": 203523.83999999973,
      "d": 222.8759999999893,
      "v": 115
    },
    {
      "midi": 62,
      "hit": false,
      "t": 203523.83999999973,
      "d": 222.8759999999893,
      "v": 101
    },
    {
      "midi": 66,
      "hit": false,
      "t": 203523.83999999973,
      "d": 222.8759999999893,
      "v": 99
    },
    {
      "midi": 69,
      "hit": false,
      "t": 203523.83999999973,
      "d": 222.8759999999893,
      "v": 80
    },
    {
      "midi": 57,
      "hit": false,
      "t": 203784.76799999972,
      "d": 222.8759999999893,
      "v": 110
    },
    {
      "midi": 62,
      "hit": false,
      "t": 203784.76799999972,
      "d": 222.8759999999893,
      "v": 101
    },
    {
      "midi": 66,
      "hit": false,
      "t": 203784.76799999972,
      "d": 222.8759999999893,
      "v": 99
    },
    {
      "midi": 69,
      "hit": false,
      "t": 203784.76799999972,
      "d": 222.8759999999893,
      "v": 80
    },
    {
      "midi": 57,
      "hit": false,
      "t": 204045.6959999997,
      "d": 222.8759999999893,
      "v": 115
    },
    {
      "midi": 62,
      "hit": false,
      "t": 204045.6959999997,
      "d": 222.8759999999893,
      "v": 106
    },
    {
      "midi": 66,
      "hit": false,
      "t": 204045.6959999997,
      "d": 222.8759999999893,
      "v": 99
    },
    {
      "midi": 69,
      "hit": false,
      "t": 204045.6959999997,
      "d": 222.8759999999893,
      "v": 84
    },
    {
      "midi": 57,
      "hit": false,
      "t": 204306.6239999997,
      "d": 222.8759999999893,
      "v": 115
    },
    {
      "midi": 62,
      "hit": false,
      "t": 204306.6239999997,
      "d": 222.8759999999893,
      "v": 110
    },
    {
      "midi": 66,
      "hit": false,
      "t": 204306.6239999997,
      "d": 222.8759999999893,
      "v": 99
    },
    {
      "midi": 69,
      "hit": false,
      "t": 204306.6239999997,
      "d": 222.8759999999893,
      "v": 84
    },
    {
      "midi": 57,
      "hit": false,
      "t": 204567.55199999968,
      "d": 222.8759999999893,
      "v": 115
    },
    {
      "midi": 62,
      "hit": false,
      "t": 204567.55199999968,
      "d": 222.8759999999893,
      "v": 110
    },
    {
      "midi": 64,
      "hit": false,
      "t": 204567.55199999968,
      "d": 222.8759999999893,
      "v": 106
    },
    {
      "midi": 69,
      "hit": false,
      "t": 204567.55199999968,
      "d": 222.8759999999893,
      "v": 84
    },
    {
      "midi": 57,
      "hit": false,
      "t": 204828.47999999966,
      "d": 222.8759999999893,
      "v": 110
    },
    {
      "midi": 62,
      "hit": false,
      "t": 204828.47999999966,
      "d": 222.8759999999893,
      "v": 110
    },
    {
      "midi": 64,
      "hit": false,
      "t": 204828.47999999966,
      "d": 222.8759999999893,
      "v": 106
    },
    {
      "midi": 69,
      "hit": false,
      "t": 204828.47999999966,
      "d": 222.8759999999893,
      "v": 84
    },
    {
      "midi": 57,
      "hit": false,
      "t": 205089.40799999965,
      "d": 222.8759999999893,
      "v": 115
    },
    {
      "midi": 62,
      "hit": false,
      "t": 205089.40799999965,
      "d": 222.8759999999893,
      "v": 110
    },
    {
      "midi": 64,
      "hit": false,
      "t": 205089.40799999965,
      "d": 222.8759999999893,
      "v": 110
    },
    {
      "midi": 69,
      "hit": false,
      "t": 205089.40799999965,
      "d": 222.8759999999893,
      "v": 84
    },
    {
      "midi": 57,
      "hit": false,
      "t": 205350.33599999963,
      "d": 222.8759999999893,
      "v": 115
    },
    {
      "midi": 62,
      "hit": false,
      "t": 205350.33599999963,
      "d": 222.8759999999893,
      "v": 115
    },
    {
      "midi": 64,
      "hit": false,
      "t": 205350.33599999963,
      "d": 222.8759999999893,
      "v": 106
    },
    {
      "midi": 69,
      "hit": false,
      "t": 205350.33599999963,
      "d": 222.8759999999893,
      "v": 84
    },
    {
      "midi": 57,
      "hit": false,
      "t": 205611.26399999962,
      "d": 222.8759999999893,
      "v": 106
    },
    {
      "midi": 61,
      "hit": false,
      "t": 205611.26399999962,
      "d": 222.8759999999893,
      "v": 121
    },
    {
      "midi": 64,
      "hit": false,
      "t": 205611.26399999962,
      "d": 222.8759999999893,
      "v": 106
    },
    {
      "midi": 69,
      "hit": false,
      "t": 205611.26399999962,
      "d": 222.8759999999893,
      "v": 89
    },
    {
      "midi": 57,
      "hit": false,
      "t": 205872.1919999996,
      "d": 222.8759999999893,
      "v": 97
    },
    {
      "midi": 61,
      "hit": false,
      "t": 205872.1919999996,
      "d": 222.8759999999893,
      "v": 121
    },
    {
      "midi": 64,
      "hit": false,
      "t": 205872.1919999996,
      "d": 222.8759999999893,
      "v": 106
    },
    {
      "midi": 69,
      "hit": false,
      "t": 205872.1919999996,
      "d": 222.8759999999893,
      "v": 84
    },
    {
      "midi": 57,
      "hit": false,
      "t": 206133.1199999996,
      "d": 222.8759999999893,
      "v": 101
    },
    {
      "midi": 61,
      "hit": false,
      "t": 206133.1199999996,
      "d": 222.8759999999893,
      "v": 121
    },
    {
      "midi": 64,
      "hit": false,
      "t": 206133.1199999996,
      "d": 222.8759999999893,
      "v": 110
    },
    {
      "midi": 69,
      "hit": false,
      "t": 206133.1199999996,
      "d": 222.8759999999893,
      "v": 89
    },
    {
      "midi": 57,
      "hit": false,
      "t": 206394.04799999957,
      "d": 222.8759999999893,
      "v": 97
    },
    {
      "midi": 61,
      "hit": false,
      "t": 206394.04799999957,
      "d": 222.8759999999893,
      "v": 110
    },
    {
      "midi": 64,
      "hit": false,
      "t": 206394.04799999957,
      "d": 222.8759999999893,
      "v": 106
    },
    {
      "midi": 69,
      "hit": false,
      "t": 206394.04799999957,
      "d": 222.8759999999893,
      "v": 84
    },
    {
      "midi": 57,
      "hit": false,
      "t": 206654.97599999956,
      "d": 222.8759999999893,
      "v": 101
    },
    {
      "midi": 61,
      "hit": false,
      "t": 206654.97599999956,
      "d": 222.8759999999893,
      "v": 123
    },
    {
      "midi": 64,
      "hit": false,
      "t": 206654.97599999956,
      "d": 222.8759999999893,
      "v": 110
    },
    {
      "midi": 69,
      "hit": false,
      "t": 206654.97599999956,
      "d": 222.8759999999893,
      "v": 93
    },
    {
      "midi": 57,
      "hit": false,
      "t": 206915.90399999954,
      "d": 222.8759999999893,
      "v": 101
    },
    {
      "midi": 61,
      "hit": false,
      "t": 206915.90399999954,
      "d": 222.8759999999893,
      "v": 121
    },
    {
      "midi": 64,
      "hit": false,
      "t": 206915.90399999954,
      "d": 222.8759999999893,
      "v": 115
    },
    {
      "midi": 69,
      "hit": false,
      "t": 206915.90399999954,
      "d": 222.8759999999893,
      "v": 84
    },
    {
      "midi": 57,
      "hit": false,
      "t": 207176.83199999953,
      "d": 222.8759999999893,
      "v": 106
    },
    {
      "midi": 61,
      "hit": false,
      "t": 207176.83199999953,
      "d": 222.8759999999893,
      "v": 115
    },
    {
      "midi": 64,
      "hit": false,
      "t": 207176.83199999953,
      "d": 222.8759999999893,
      "v": 110
    },
    {
      "midi": 69,
      "hit": false,
      "t": 207176.83199999953,
      "d": 222.8759999999893,
      "v": 84
    },
    {
      "midi": 57,
      "hit": false,
      "t": 207437.7599999995,
      "d": 222.8759999999893,
      "v": 106
    },
    {
      "midi": 61,
      "hit": false,
      "t": 207437.7599999995,
      "d": 222.8759999999893,
      "v": 115
    },
    {
      "midi": 64,
      "hit": false,
      "t": 207437.7599999995,
      "d": 222.8759999999893,
      "v": 115
    },
    {
      "midi": 69,
      "hit": false,
      "t": 207437.7599999995,
      "d": 222.8759999999893,
      "v": 89
    },
    {
      "midi": 57,
      "hit": false,
      "t": 207698.6879999995,
      "d": 222.8759999999893,
      "v": 110
    },
    {
      "midi": 61,
      "hit": false,
      "t": 207698.6879999995,
      "d": 222.8759999999893,
      "v": 123
    },
    {
      "midi": 64,
      "hit": false,
      "t": 207698.6879999995,
      "d": 222.8759999999893,
      "v": 115
    },
    {
      "midi": 69,
      "hit": false,
      "t": 207698.6879999995,
      "d": 222.8759999999893,
      "v": 89
    },
    {
      "midi": 57,
      "hit": false,
      "t": 207959.61599999949,
      "d": 222.8759999999893,
      "v": 110
    },
    {
      "midi": 61,
      "hit": false,
      "t": 207959.61599999949,
      "d": 222.8759999999893,
      "v": 115
    },
    {
      "midi": 64,
      "hit": false,
      "t": 207959.61599999949,
      "d": 222.8759999999893,
      "v": 106
    },
    {
      "midi": 69,
      "hit": false,
      "t": 207959.61599999949,
      "d": 222.8759999999893,
      "v": 84
    },
    {
      "midi": 57,
      "hit": false,
      "t": 208220.54399999947,
      "d": 222.8759999999893,
      "v": 106
    },
    {
      "midi": 61,
      "hit": false,
      "t": 208220.54399999947,
      "d": 222.8759999999893,
      "v": 121
    },
    {
      "midi": 64,
      "hit": false,
      "t": 208220.54399999947,
      "d": 222.8759999999893,
      "v": 110
    },
    {
      "midi": 69,
      "hit": false,
      "t": 208220.54399999947,
      "d": 222.8759999999893,
      "v": 84
    },
    {
      "midi": 57,
      "hit": false,
      "t": 208481.47199999946,
      "d": 222.8759999999893,
      "v": 101
    },
    {
      "midi": 61,
      "hit": false,
      "t": 208481.47199999946,
      "d": 222.8759999999893,
      "v": 121
    },
    {
      "midi": 64,
      "hit": false,
      "t": 208481.47199999946,
      "d": 222.8759999999893,
      "v": 115
    },
    {
      "midi": 69,
      "hit": false,
      "t": 208481.47199999946,
      "d": 222.8759999999893,
      "v": 80
    },
    {
      "midi": 59,
      "hit": false,
      "t": 208742.39999999944,
      "d": 222.8759999999893,
      "v": 115
    },
    {
      "midi": 62,
      "hit": false,
      "t": 208742.39999999944,
      "d": 222.8759999999893,
      "v": 106
    },
    {
      "midi": 66,
      "hit": false,
      "t": 208742.39999999944,
      "d": 222.8759999999893,
      "v": 94
    },
    {
      "midi": 69,
      "hit": false,
      "t": 208742.39999999944,
      "d": 222.8759999999893,
      "v": 76
    },
    {
      "midi": 59,
      "hit": false,
      "t": 209003.32799999943,
      "d": 222.8759999999893,
      "v": 115
    },
    {
      "midi": 62,
      "hit": false,
      "t": 209003.32799999943,
      "d": 222.8759999999893,
      "v": 110
    },
    {
      "midi": 66,
      "hit": false,
      "t": 209003.32799999943,
      "d": 222.8759999999893,
      "v": 99
    },
    {
      "midi": 69,
      "hit": false,
      "t": 209003.32799999943,
      "d": 222.8759999999893,
      "v": 80
    },
    {
      "midi": 59,
      "hit": false,
      "t": 209264.2559999994,
      "d": 222.8759999999893,
      "v": 121
    },
    {
      "midi": 62,
      "hit": false,
      "t": 209264.2559999994,
      "d": 222.8759999999893,
      "v": 106
    },
    {
      "midi": 66,
      "hit": false,
      "t": 209264.2559999994,
      "d": 222.8759999999893,
      "v": 108
    },
    {
      "midi": 69,
      "hit": false,
      "t": 209264.2559999994,
      "d": 222.8759999999893,
      "v": 84
    },
    {
      "midi": 59,
      "hit": false,
      "t": 209525.1839999994,
      "d": 222.8759999999893,
      "v": 115
    },
    {
      "midi": 62,
      "hit": false,
      "t": 209525.1839999994,
      "d": 222.8759999999893,
      "v": 101
    },
    {
      "midi": 66,
      "hit": false,
      "t": 209525.1839999994,
      "d": 222.8759999999893,
      "v": 99
    },
    {
      "midi": 69,
      "hit": false,
      "t": 209525.1839999994,
      "d": 222.8759999999893,
      "v": 84
    },
    {
      "midi": 57,
      "hit": false,
      "t": 209786.11199999938,
      "d": 222.8759999999893,
      "v": 106
    },
    {
      "midi": 61,
      "hit": false,
      "t": 209786.11199999938,
      "d": 222.8759999999893,
      "v": 115
    },
    {
      "midi": 64,
      "hit": false,
      "t": 209786.11199999938,
      "d": 222.8759999999893,
      "v": 110
    },
    {
      "midi": 69,
      "hit": false,
      "t": 209786.11199999938,
      "d": 222.8759999999893,
      "v": 84
    },
    {
      "midi": 57,
      "hit": false,
      "t": 210047.03999999937,
      "d": 222.8759999999893,
      "v": 101
    },
    {
      "midi": 61,
      "hit": false,
      "t": 210047.03999999937,
      "d": 222.8759999999893,
      "v": 123
    },
    {
      "midi": 64,
      "hit": false,
      "t": 210047.03999999937,
      "d": 222.8759999999893,
      "v": 115
    },
    {
      "midi": 69,
      "hit": false,
      "t": 210047.03999999937,
      "d": 222.8759999999893,
      "v": 80
    },
    {
      "midi": 57,
      "hit": false,
      "t": 210307.96799999935,
      "d": 222.8759999999893,
      "v": 101
    },
    {
      "midi": 61,
      "hit": false,
      "t": 210307.96799999935,
      "d": 222.8759999999893,
      "v": 121
    },
    {
      "midi": 64,
      "hit": false,
      "t": 210307.96799999935,
      "d": 222.8759999999893,
      "v": 115
    },
    {
      "midi": 69,
      "hit": false,
      "t": 210307.96799999935,
      "d": 222.8759999999893,
      "v": 84
    },
    {
      "midi": 57,
      "hit": false,
      "t": 210568.89599999934,
      "d": 222.8759999999893,
      "v": 110
    },
    {
      "midi": 61,
      "hit": false,
      "t": 210568.89599999934,
      "d": 222.8759999999893,
      "v": 123
    },
    {
      "midi": 64,
      "hit": false,
      "t": 210568.89599999934,
      "d": 222.8759999999893,
      "v": 110
    },
    {
      "midi": 69,
      "hit": false,
      "t": 210568.89599999934,
      "d": 222.8759999999893,
      "v": 84
    },
    {
      "midi": 57,
      "hit": false,
      "t": 210829.82399999932,
      "d": 222.8759999999893,
      "v": 101
    },
    {
      "midi": 62,
      "hit": false,
      "t": 210829.82399999932,
      "d": 222.8759999999893,
      "v": 110
    },
    {
      "midi": 66,
      "hit": false,
      "t": 210829.82399999932,
      "d": 222.8759999999893,
      "v": 99
    },
    {
      "midi": 69,
      "hit": false,
      "t": 210829.82399999932,
      "d": 222.8759999999893,
      "v": 84
    },
    {
      "midi": 57,
      "hit": false,
      "t": 211090.7519999993,
      "d": 222.8759999999893,
      "v": 106
    },
    {
      "midi": 62,
      "hit": false,
      "t": 211090.7519999993,
      "d": 222.8759999999893,
      "v": 110
    },
    {
      "midi": 66,
      "hit": false,
      "t": 211090.7519999993,
      "d": 222.8759999999893,
      "v": 90
    },
    {
      "midi": 69,
      "hit": false,
      "t": 211090.7519999993,
      "d": 222.8759999999893,
      "v": 80
    },
    {
      "midi": 57,
      "hit": false,
      "t": 211351.6799999993,
      "d": 222.8759999999893,
      "v": 97
    },
    {
      "midi": 62,
      "hit": false,
      "t": 211351.6799999993,
      "d": 222.8759999999893,
      "v": 110
    },
    {
      "midi": 66,
      "hit": false,
      "t": 211351.6799999993,
      "d": 222.8759999999893,
      "v": 103
    },
    {
      "midi": 69,
      "hit": false,
      "t": 211351.6799999993,
      "d": 222.8759999999893,
      "v": 89
    },
    {
      "midi": 57,
      "hit": false,
      "t": 211612.60799999928,
      "d": 222.8759999999893,
      "v": 101
    },
    {
      "midi": 62,
      "hit": false,
      "t": 211612.60799999928,
      "d": 222.8759999999893,
      "v": 110
    },
    {
      "midi": 66,
      "hit": false,
      "t": 211612.60799999928,
      "d": 222.8759999999893,
      "v": 99
    },
    {
      "midi": 69,
      "hit": false,
      "t": 211612.60799999928,
      "d": 222.8759999999893,
      "v": 80
    },
    {
      "midi": 57,
      "hit": false,
      "t": 211873.53599999927,
      "d": 222.8759999999893,
      "v": 101
    },
    {
      "midi": 62,
      "hit": false,
      "t": 211873.53599999927,
      "d": 222.8759999999893,
      "v": 110
    },
    {
      "midi": 66,
      "hit": false,
      "t": 211873.53599999927,
      "d": 222.8759999999893,
      "v": 103
    },
    {
      "midi": 69,
      "hit": false,
      "t": 211873.53599999927,
      "d": 222.8759999999893,
      "v": 93
    },
    {
      "midi": 57,
      "hit": false,
      "t": 212134.46399999925,
      "d": 222.8759999999893,
      "v": 101
    },
    {
      "midi": 62,
      "hit": false,
      "t": 212134.46399999925,
      "d": 222.8759999999893,
      "v": 115
    },
    {
      "midi": 66,
      "hit": false,
      "t": 212134.46399999925,
      "d": 222.8759999999893,
      "v": 99
    },
    {
      "midi": 69,
      "hit": false,
      "t": 212134.46399999925,
      "d": 222.8759999999893,
      "v": 84
    },
    {
      "midi": 57,
      "hit": false,
      "t": 212395.39199999924,
      "d": 222.8759999999893,
      "v": 101
    },
    {
      "midi": 62,
      "hit": false,
      "t": 212395.39199999924,
      "d": 222.8759999999893,
      "v": 121
    },
    {
      "midi": 66,
      "hit": false,
      "t": 212395.39199999924,
      "d": 222.8759999999893,
      "v": 99
    },
    {
      "midi": 69,
      "hit": false,
      "t": 212395.39199999924,
      "d": 222.8759999999893,
      "v": 84
    },
    {
      "midi": 57,
      "hit": false,
      "t": 212656.31999999922,
      "d": 222.8759999999893,
      "v": 106
    },
    {
      "midi": 62,
      "hit": false,
      "t": 212656.31999999922,
      "d": 222.8759999999893,
      "v": 121
    },
    {
      "midi": 66,
      "hit": false,
      "t": 212656.31999999922,
      "d": 222.8759999999893,
      "v": 103
    },
    {
      "midi": 69,
      "hit": false,
      "t": 212656.31999999922,
      "d": 222.8759999999893,
      "v": 93
    },
    {
      "midi": 57,
      "hit": false,
      "t": 212917.2479999992,
      "d": 222.8759999999893,
      "v": 101
    },
    {
      "midi": 62,
      "hit": false,
      "t": 212917.2479999992,
      "d": 222.8759999999893,
      "v": 121
    },
    {
      "midi": 64,
      "hit": false,
      "t": 212917.2479999992,
      "d": 222.8759999999893,
      "v": 110
    },
    {
      "midi": 69,
      "hit": false,
      "t": 212917.2479999992,
      "d": 222.8759999999893,
      "v": 80
    },
    {
      "midi": 57,
      "hit": false,
      "t": 213178.1759999992,
      "d": 222.8759999999893,
      "v": 106
    },
    {
      "midi": 62,
      "hit": false,
      "t": 213178.1759999992,
      "d": 222.8759999999893,
      "v": 121
    },
    {
      "midi": 64,
      "hit": false,
      "t": 213178.1759999992,
      "d": 222.8759999999893,
      "v": 106
    },
    {
      "midi": 69,
      "hit": false,
      "t": 213178.1759999992,
      "d": 222.8759999999893,
      "v": 84
    },
    {
      "midi": 57,
      "hit": false,
      "t": 213439.10399999918,
      "d": 222.8759999999893,
      "v": 110
    },
    {
      "midi": 62,
      "hit": false,
      "t": 213439.10399999918,
      "d": 222.8759999999893,
      "v": 121
    },
    {
      "midi": 64,
      "hit": false,
      "t": 213439.10399999918,
      "d": 222.8759999999893,
      "v": 110
    },
    {
      "midi": 69,
      "hit": false,
      "t": 213439.10399999918,
      "d": 222.8759999999893,
      "v": 80
    },
    {
      "midi": 57,
      "hit": false,
      "t": 213700.03199999916,
      "d": 222.8759999999893,
      "v": 106
    },
    {
      "midi": 62,
      "hit": false,
      "t": 213700.03199999916,
      "d": 222.8759999999893,
      "v": 115
    },
    {
      "midi": 64,
      "hit": false,
      "t": 213700.03199999916,
      "d": 222.8759999999893,
      "v": 101
    },
    {
      "midi": 69,
      "hit": false,
      "t": 213700.03199999916,
      "d": 222.8759999999893,
      "v": 71
    },
    {
      "midi": 57,
      "hit": false,
      "t": 213960.95999999915,
      "d": 222.8759999999893,
      "v": 97
    },
    {
      "midi": 61,
      "hit": false,
      "t": 213960.95999999915,
      "d": 222.8759999999893,
      "v": 121
    },
    {
      "midi": 64,
      "hit": false,
      "t": 213960.95999999915,
      "d": 222.8759999999893,
      "v": 106
    },
    {
      "midi": 69,
      "hit": false,
      "t": 213960.95999999915,
      "d": 222.8759999999893,
      "v": 80
    },
    {
      "midi": 57,
      "hit": false,
      "t": 214221.88799999913,
      "d": 222.8759999999893,
      "v": 93
    },
    {
      "midi": 61,
      "hit": false,
      "t": 214221.88799999913,
      "d": 222.8759999999893,
      "v": 123
    },
    {
      "midi": 64,
      "hit": false,
      "t": 214221.88799999913,
      "d": 222.8759999999893,
      "v": 110
    },
    {
      "midi": 69,
      "hit": false,
      "t": 214221.88799999913,
      "d": 222.8759999999893,
      "v": 84
    },
    {
      "midi": 57,
      "hit": false,
      "t": 214482.81599999912,
      "d": 222.8759999999893,
      "v": 101
    },
    {
      "midi": 61,
      "hit": false,
      "t": 214482.81599999912,
      "d": 222.8759999999893,
      "v": 121
    },
    {
      "midi": 64,
      "hit": false,
      "t": 214482.81599999912,
      "d": 222.8759999999893,
      "v": 115
    },
    {
      "midi": 69,
      "hit": false,
      "t": 214482.81599999912,
      "d": 222.8759999999893,
      "v": 84
    },
    {
      "midi": 57,
      "hit": false,
      "t": 214743.7439999991,
      "d": 222.8759999999893,
      "v": 97
    },
    {
      "midi": 61,
      "hit": false,
      "t": 214743.7439999991,
      "d": 222.8759999999893,
      "v": 121
    },
    {
      "midi": 64,
      "hit": false,
      "t": 214743.7439999991,
      "d": 222.8759999999893,
      "v": 115
    },
    {
      "midi": 69,
      "hit": false,
      "t": 214743.7439999991,
      "d": 222.8759999999893,
      "v": 93
    },
    {
      "midi": 57,
      "hit": false,
      "t": 215004.6719999991,
      "d": 222.8759999999893,
      "v": 106
    },
    {
      "midi": 61,
      "hit": false,
      "t": 215004.6719999991,
      "d": 222.8759999999893,
      "v": 115
    },
    {
      "midi": 64,
      "hit": false,
      "t": 215004.6719999991,
      "d": 222.8759999999893,
      "v": 115
    },
    {
      "midi": 69,
      "hit": false,
      "t": 215004.6719999991,
      "d": 222.8759999999893,
      "v": 89
    },
    {
      "midi": 57,
      "hit": false,
      "t": 215265.59999999907,
      "d": 222.8759999999893,
      "v": 106
    },
    {
      "midi": 61,
      "hit": false,
      "t": 215265.59999999907,
      "d": 222.8759999999893,
      "v": 121
    },
    {
      "midi": 64,
      "hit": false,
      "t": 215265.59999999907,
      "d": 222.8759999999893,
      "v": 115
    },
    {
      "midi": 69,
      "hit": false,
      "t": 215265.59999999907,
      "d": 222.8759999999893,
      "v": 84
    },
    {
      "midi": 57,
      "hit": false,
      "t": 215526.52799999906,
      "d": 222.8759999999893,
      "v": 106
    },
    {
      "midi": 61,
      "hit": false,
      "t": 215526.52799999906,
      "d": 222.8759999999893,
      "v": 121
    },
    {
      "midi": 64,
      "hit": false,
      "t": 215526.52799999906,
      "d": 222.8759999999893,
      "v": 110
    },
    {
      "midi": 69,
      "hit": false,
      "t": 215526.52799999906,
      "d": 222.8759999999893,
      "v": 84
    },
    {
      "midi": 57,
      "hit": false,
      "t": 215787.45599999905,
      "d": 222.8759999999893,
      "v": 106
    },
    {
      "midi": 61,
      "hit": false,
      "t": 215787.45599999905,
      "d": 222.8759999999893,
      "v": 121
    },
    {
      "midi": 64,
      "hit": false,
      "t": 215787.45599999905,
      "d": 222.8759999999893,
      "v": 115
    },
    {
      "midi": 69,
      "hit": false,
      "t": 215787.45599999905,
      "d": 222.8759999999893,
      "v": 89
    },
    {
      "midi": 57,
      "hit": false,
      "t": 216048.38399999903,
      "d": 222.8759999999893,
      "v": 101
    },
    {
      "midi": 61,
      "hit": false,
      "t": 216048.38399999903,
      "d": 222.8759999999893,
      "v": 115
    },
    {
      "midi": 64,
      "hit": false,
      "t": 216048.38399999903,
      "d": 222.8759999999893,
      "v": 115
    },
    {
      "midi": 69,
      "hit": false,
      "t": 216048.38399999903,
      "d": 222.8759999999893,
      "v": 84
    },
    {
      "midi": 57,
      "hit": false,
      "t": 216309.31199999902,
      "d": 222.8759999999893,
      "v": 101
    },
    {
      "midi": 61,
      "hit": false,
      "t": 216309.31199999902,
      "d": 222.8759999999893,
      "v": 121
    },
    {
      "midi": 64,
      "hit": false,
      "t": 216309.31199999902,
      "d": 222.8759999999893,
      "v": 110
    },
    {
      "midi": 69,
      "hit": false,
      "t": 216309.31199999902,
      "d": 222.8759999999893,
      "v": 84
    },
    {
      "midi": 57,
      "hit": false,
      "t": 216570.239999999,
      "d": 222.8759999999893,
      "v": 101
    },
    {
      "midi": 61,
      "hit": false,
      "t": 216570.239999999,
      "d": 222.8759999999893,
      "v": 115
    },
    {
      "midi": 64,
      "hit": false,
      "t": 216570.239999999,
      "d": 222.8759999999893,
      "v": 115
    },
    {
      "midi": 69,
      "hit": false,
      "t": 216570.239999999,
      "d": 222.8759999999893,
      "v": 93
    },
    {
      "midi": 57,
      "hit": false,
      "t": 216831.167999999,
      "d": 222.8759999999893,
      "v": 110
    },
    {
      "midi": 61,
      "hit": false,
      "t": 216831.167999999,
      "d": 222.8759999999893,
      "v": 121
    },
    {
      "midi": 64,
      "hit": false,
      "t": 216831.167999999,
      "d": 222.8759999999893,
      "v": 115
    },
    {
      "midi": 69,
      "hit": false,
      "t": 216831.167999999,
      "d": 222.8759999999893,
      "v": 89
    },
    {
      "midi": 59,
      "hit": false,
      "t": 217092.09599999897,
      "d": 222.8759999999893,
      "v": 110
    },
    {
      "midi": 62,
      "hit": false,
      "t": 217092.09599999897,
      "d": 222.8759999999893,
      "v": 115
    },
    {
      "midi": 66,
      "hit": false,
      "t": 217092.09599999897,
      "d": 222.8759999999893,
      "v": 99
    },
    {
      "midi": 69,
      "hit": false,
      "t": 217092.09599999897,
      "d": 222.8759999999893,
      "v": 84
    },
    {
      "midi": 59,
      "hit": false,
      "t": 217353.02399999896,
      "d": 222.8759999999893,
      "v": 101
    },
    {
      "midi": 62,
      "hit": false,
      "t": 217353.02399999896,
      "d": 222.8759999999893,
      "v": 101
    },
    {
      "midi": 66,
      "hit": false,
      "t": 217353.02399999896,
      "d": 222.8759999999893,
      "v": 99
    },
    {
      "midi": 69,
      "hit": false,
      "t": 217353.02399999896,
      "d": 222.8759999999893,
      "v": 98
    },
    {
      "midi": 59,
      "hit": false,
      "t": 217613.95199999894,
      "d": 222.8759999999893,
      "v": 115
    },
    {
      "midi": 62,
      "hit": false,
      "t": 217613.95199999894,
      "d": 222.8759999999893,
      "v": 115
    },
    {
      "midi": 66,
      "hit": false,
      "t": 217613.95199999894,
      "d": 222.8759999999893,
      "v": 108
    },
    {
      "midi": 69,
      "hit": false,
      "t": 217613.95199999894,
      "d": 222.8759999999893,
      "v": 89
    },
    {
      "midi": 59,
      "hit": false,
      "t": 217874.87999999893,
      "d": 222.8759999999893,
      "v": 115
    },
    {
      "midi": 62,
      "hit": false,
      "t": 217874.87999999893,
      "d": 222.8759999999893,
      "v": 106
    },
    {
      "midi": 66,
      "hit": false,
      "t": 217874.87999999893,
      "d": 222.8759999999893,
      "v": 108
    },
    {
      "midi": 69,
      "hit": false,
      "t": 217874.87999999893,
      "d": 222.8759999999893,
      "v": 84
    },
    {
      "midi": 57,
      "hit": false,
      "t": 218135.8079999989,
      "d": 222.8759999999893,
      "v": 97
    },
    {
      "midi": 61,
      "hit": false,
      "t": 218135.8079999989,
      "d": 222.8759999999893,
      "v": 121
    },
    {
      "midi": 64,
      "hit": false,
      "t": 218135.8079999989,
      "d": 222.8759999999893,
      "v": 110
    },
    {
      "midi": 69,
      "hit": false,
      "t": 218135.8079999989,
      "d": 222.8759999999893,
      "v": 80
    },
    {
      "midi": 57,
      "hit": false,
      "t": 218396.7359999989,
      "d": 222.8759999999893,
      "v": 101
    },
    {
      "midi": 61,
      "hit": false,
      "t": 218396.7359999989,
      "d": 222.8759999999893,
      "v": 121
    },
    {
      "midi": 64,
      "hit": false,
      "t": 218396.7359999989,
      "d": 222.8759999999893,
      "v": 115
    },
    {
      "midi": 69,
      "hit": false,
      "t": 218396.7359999989,
      "d": 222.8759999999893,
      "v": 80
    },
    {
      "midi": 57,
      "hit": false,
      "t": 218657.66399999888,
      "d": 222.8759999999893,
      "v": 101
    },
    {
      "midi": 61,
      "hit": false,
      "t": 218657.66399999888,
      "d": 222.8759999999893,
      "v": 121
    },
    {
      "midi": 64,
      "hit": false,
      "t": 218657.66399999888,
      "d": 222.8759999999893,
      "v": 110
    },
    {
      "midi": 69,
      "hit": false,
      "t": 218657.66399999888,
      "d": 222.8759999999893,
      "v": 89
    },
    {
      "midi": 57,
      "hit": false,
      "t": 218918.59199999887,
      "d": 222.8759999999893,
      "v": 101
    },
    {
      "midi": 61,
      "hit": false,
      "t": 218918.59199999887,
      "d": 222.8759999999893,
      "v": 121
    },
    {
      "midi": 64,
      "hit": false,
      "t": 218918.59199999887,
      "d": 222.8759999999893,
      "v": 115
    },
    {
      "midi": 69,
      "hit": false,
      "t": 218918.59199999887,
      "d": 222.8759999999893,
      "v": 80
    },
    {
      "midi": 57,
      "hit": false,
      "t": 219179.51999999885,
      "d": 222.8759999999893,
      "v": 106
    },
    {
      "midi": 62,
      "hit": false,
      "t": 219179.51999999885,
      "d": 222.8759999999893,
      "v": 101
    },
    {
      "midi": 66,
      "hit": false,
      "t": 219179.51999999885,
      "d": 222.8759999999893,
      "v": 108
    },
    {
      "midi": 69,
      "hit": false,
      "t": 219179.51999999885,
      "d": 222.8759999999893,
      "v": 93
    },
    {
      "midi": 57,
      "hit": false,
      "t": 219440.44799999884,
      "d": 222.8759999999893,
      "v": 106
    },
    {
      "midi": 62,
      "hit": false,
      "t": 219440.44799999884,
      "d": 222.8759999999893,
      "v": 97
    },
    {
      "midi": 66,
      "hit": false,
      "t": 219440.44799999884,
      "d": 222.8759999999893,
      "v": 90
    },
    {
      "midi": 69,
      "hit": false,
      "t": 219440.44799999884,
      "d": 222.8759999999893,
      "v": 80
    },
    {
      "midi": 57,
      "hit": false,
      "t": 219701.37599999883,
      "d": 222.8759999999893,
      "v": 106
    },
    {
      "midi": 62,
      "hit": false,
      "t": 219701.37599999883,
      "d": 222.8759999999893,
      "v": 101
    },
    {
      "midi": 66,
      "hit": false,
      "t": 219701.37599999883,
      "d": 222.8759999999893,
      "v": 94
    },
    {
      "midi": 69,
      "hit": false,
      "t": 219701.37599999883,
      "d": 222.8759999999893,
      "v": 80
    },
    {
      "midi": 57,
      "hit": false,
      "t": 219962.3039999988,
      "d": 222.8759999999893,
      "v": 110
    },
    {
      "midi": 62,
      "hit": false,
      "t": 219962.3039999988,
      "d": 222.8759999999893,
      "v": 97
    },
    {
      "midi": 66,
      "hit": false,
      "t": 219962.3039999988,
      "d": 222.8759999999893,
      "v": 94
    },
    {
      "midi": 69,
      "hit": false,
      "t": 219962.3039999988,
      "d": 222.8759999999893,
      "v": 84
    },
    {
      "midi": 57,
      "hit": false,
      "t": 220223.2319999988,
      "d": 222.8759999999893,
      "v": 115
    },
    {
      "midi": 62,
      "hit": false,
      "t": 220223.2319999988,
      "d": 222.8759999999893,
      "v": 101
    },
    {
      "midi": 66,
      "hit": false,
      "t": 220223.2319999988,
      "d": 222.8759999999893,
      "v": 99
    },
    {
      "midi": 69,
      "hit": false,
      "t": 220223.2319999988,
      "d": 222.8759999999893,
      "v": 80
    },
    {
      "midi": 57,
      "hit": false,
      "t": 220484.15999999878,
      "d": 222.8759999999893,
      "v": 110
    },
    {
      "midi": 62,
      "hit": false,
      "t": 220484.15999999878,
      "d": 222.8759999999893,
      "v": 101
    },
    {
      "midi": 66,
      "hit": false,
      "t": 220484.15999999878,
      "d": 222.8759999999893,
      "v": 99
    },
    {
      "midi": 69,
      "hit": false,
      "t": 220484.15999999878,
      "d": 222.8759999999893,
      "v": 80
    },
    {
      "midi": 57,
      "hit": false,
      "t": 220745.08799999877,
      "d": 222.8759999999893,
      "v": 115
    },
    {
      "midi": 62,
      "hit": false,
      "t": 220745.08799999877,
      "d": 222.8759999999893,
      "v": 106
    },
    {
      "midi": 66,
      "hit": false,
      "t": 220745.08799999877,
      "d": 222.8759999999893,
      "v": 99
    },
    {
      "midi": 69,
      "hit": false,
      "t": 220745.08799999877,
      "d": 222.8759999999893,
      "v": 84
    },
    {
      "midi": 57,
      "hit": false,
      "t": 221006.01599999875,
      "d": 222.8759999999893,
      "v": 115
    },
    {
      "midi": 62,
      "hit": false,
      "t": 221006.01599999875,
      "d": 222.8759999999893,
      "v": 110
    },
    {
      "midi": 66,
      "hit": false,
      "t": 221006.01599999875,
      "d": 222.8759999999893,
      "v": 99
    },
    {
      "midi": 69,
      "hit": false,
      "t": 221006.01599999875,
      "d": 222.8759999999893,
      "v": 84
    },
    {
      "midi": 57,
      "hit": false,
      "t": 221266.94399999874,
      "d": 222.8759999999893,
      "v": 115
    },
    {
      "midi": 62,
      "hit": false,
      "t": 221266.94399999874,
      "d": 222.8759999999893,
      "v": 110
    },
    {
      "midi": 64,
      "hit": false,
      "t": 221266.94399999874,
      "d": 222.8759999999893,
      "v": 106
    },
    {
      "midi": 69,
      "hit": false,
      "t": 221266.94399999874,
      "d": 222.8759999999893,
      "v": 84
    },
    {
      "midi": 57,
      "hit": false,
      "t": 221527.87199999872,
      "d": 222.8759999999893,
      "v": 110
    },
    {
      "midi": 62,
      "hit": false,
      "t": 221527.87199999872,
      "d": 222.8759999999893,
      "v": 110
    },
    {
      "midi": 64,
      "hit": false,
      "t": 221527.87199999872,
      "d": 222.8759999999893,
      "v": 106
    },
    {
      "midi": 69,
      "hit": false,
      "t": 221527.87199999872,
      "d": 222.8759999999893,
      "v": 84
    },
    {
      "midi": 57,
      "hit": false,
      "t": 221788.7999999987,
      "d": 222.8759999999893,
      "v": 115
    },
    {
      "midi": 62,
      "hit": false,
      "t": 221788.7999999987,
      "d": 222.8759999999893,
      "v": 110
    },
    {
      "midi": 64,
      "hit": false,
      "t": 221788.7999999987,
      "d": 222.8759999999893,
      "v": 110
    },
    {
      "midi": 69,
      "hit": false,
      "t": 221788.7999999987,
      "d": 222.8759999999893,
      "v": 84
    },
    {
      "midi": 57,
      "hit": false,
      "t": 222049.7279999987,
      "d": 222.8759999999893,
      "v": 115
    },
    {
      "midi": 62,
      "hit": false,
      "t": 222049.7279999987,
      "d": 222.8759999999893,
      "v": 115
    },
    {
      "midi": 64,
      "hit": false,
      "t": 222049.7279999987,
      "d": 222.8759999999893,
      "v": 106
    },
    {
      "midi": 69,
      "hit": false,
      "t": 222049.7279999987,
      "d": 222.8759999999893,
      "v": 84
    },
    {
      "midi": 57,
      "hit": false,
      "t": 222310.65599999868,
      "d": 222.8759999999893,
      "v": 106
    },
    {
      "midi": 61,
      "hit": false,
      "t": 222310.65599999868,
      "d": 222.8759999999893,
      "v": 121
    },
    {
      "midi": 64,
      "hit": false,
      "t": 222310.65599999868,
      "d": 222.8759999999893,
      "v": 106
    },
    {
      "midi": 69,
      "hit": false,
      "t": 222310.65599999868,
      "d": 222.8759999999893,
      "v": 89
    },
    {
      "midi": 57,
      "hit": false,
      "t": 222571.58399999866,
      "d": 222.8759999999893,
      "v": 97
    },
    {
      "midi": 61,
      "hit": false,
      "t": 222571.58399999866,
      "d": 222.8759999999893,
      "v": 121
    },
    {
      "midi": 64,
      "hit": false,
      "t": 222571.58399999866,
      "d": 222.8759999999893,
      "v": 106
    },
    {
      "midi": 69,
      "hit": false,
      "t": 222571.58399999866,
      "d": 222.8759999999893,
      "v": 84
    },
    {
      "midi": 57,
      "hit": false,
      "t": 222832.51199999865,
      "d": 222.8759999999893,
      "v": 101
    },
    {
      "midi": 61,
      "hit": false,
      "t": 222832.51199999865,
      "d": 222.8759999999893,
      "v": 121
    },
    {
      "midi": 64,
      "hit": false,
      "t": 222832.51199999865,
      "d": 222.8759999999893,
      "v": 110
    },
    {
      "midi": 69,
      "hit": false,
      "t": 222832.51199999865,
      "d": 222.8759999999893,
      "v": 89
    },
    {
      "midi": 57,
      "hit": false,
      "t": 223093.43999999863,
      "d": 222.8759999999893,
      "v": 97
    },
    {
      "midi": 61,
      "hit": false,
      "t": 223093.43999999863,
      "d": 222.8759999999893,
      "v": 110
    },
    {
      "midi": 64,
      "hit": false,
      "t": 223093.43999999863,
      "d": 222.8759999999893,
      "v": 106
    },
    {
      "midi": 69,
      "hit": false,
      "t": 223093.43999999863,
      "d": 222.8759999999893,
      "v": 84
    },
    {
      "midi": 57,
      "hit": false,
      "t": 223354.36799999862,
      "d": 222.8759999999893,
      "v": 101
    },
    {
      "midi": 61,
      "hit": false,
      "t": 223354.36799999862,
      "d": 222.8759999999893,
      "v": 123
    },
    {
      "midi": 64,
      "hit": false,
      "t": 223354.36799999862,
      "d": 222.8759999999893,
      "v": 110
    },
    {
      "midi": 69,
      "hit": false,
      "t": 223354.36799999862,
      "d": 222.8759999999893,
      "v": 93
    },
    {
      "midi": 57,
      "hit": false,
      "t": 223615.2959999986,
      "d": 222.8759999999893,
      "v": 101
    },
    {
      "midi": 61,
      "hit": false,
      "t": 223615.2959999986,
      "d": 222.8759999999893,
      "v": 121
    },
    {
      "midi": 64,
      "hit": false,
      "t": 223615.2959999986,
      "d": 222.8759999999893,
      "v": 115
    },
    {
      "midi": 69,
      "hit": false,
      "t": 223615.2959999986,
      "d": 222.8759999999893,
      "v": 84
    },
    {
      "midi": 57,
      "hit": false,
      "t": 223876.2239999986,
      "d": 222.8759999999893,
      "v": 106
    },
    {
      "midi": 61,
      "hit": false,
      "t": 223876.2239999986,
      "d": 222.8759999999893,
      "v": 115
    },
    {
      "midi": 64,
      "hit": false,
      "t": 223876.2239999986,
      "d": 222.8759999999893,
      "v": 110
    },
    {
      "midi": 69,
      "hit": false,
      "t": 223876.2239999986,
      "d": 222.8759999999893,
      "v": 84
    },
    {
      "midi": 57,
      "hit": false,
      "t": 224137.15199999858,
      "d": 222.8759999999893,
      "v": 106
    },
    {
      "midi": 61,
      "hit": false,
      "t": 224137.15199999858,
      "d": 222.8759999999893,
      "v": 115
    },
    {
      "midi": 64,
      "hit": false,
      "t": 224137.15199999858,
      "d": 222.8759999999893,
      "v": 115
    },
    {
      "midi": 69,
      "hit": false,
      "t": 224137.15199999858,
      "d": 222.8759999999893,
      "v": 89
    },
    {
      "midi": 57,
      "hit": false,
      "t": 224398.07999999856,
      "d": 222.8759999999893,
      "v": 110
    },
    {
      "midi": 61,
      "hit": false,
      "t": 224398.07999999856,
      "d": 222.8759999999893,
      "v": 123
    },
    {
      "midi": 64,
      "hit": false,
      "t": 224398.07999999856,
      "d": 222.8759999999893,
      "v": 115
    },
    {
      "midi": 69,
      "hit": false,
      "t": 224398.07999999856,
      "d": 222.8759999999893,
      "v": 89
    },
    {
      "midi": 57,
      "hit": false,
      "t": 224659.00799999855,
      "d": 222.8759999999893,
      "v": 110
    },
    {
      "midi": 61,
      "hit": false,
      "t": 224659.00799999855,
      "d": 222.8759999999893,
      "v": 115
    },
    {
      "midi": 64,
      "hit": false,
      "t": 224659.00799999855,
      "d": 222.8759999999893,
      "v": 106
    },
    {
      "midi": 69,
      "hit": false,
      "t": 224659.00799999855,
      "d": 222.8759999999893,
      "v": 84
    },
    {
      "midi": 57,
      "hit": false,
      "t": 224919.93599999853,
      "d": 222.8759999999893,
      "v": 106
    },
    {
      "midi": 61,
      "hit": false,
      "t": 224919.93599999853,
      "d": 222.8759999999893,
      "v": 121
    },
    {
      "midi": 64,
      "hit": false,
      "t": 224919.93599999853,
      "d": 222.8759999999893,
      "v": 110
    },
    {
      "midi": 69,
      "hit": false,
      "t": 224919.93599999853,
      "d": 222.8759999999893,
      "v": 84
    },
    {
      "midi": 57,
      "hit": false,
      "t": 225180.86399999852,
      "d": 222.8759999999893,
      "v": 101
    },
    {
      "midi": 61,
      "hit": false,
      "t": 225180.86399999852,
      "d": 222.8759999999893,
      "v": 121
    },
    {
      "midi": 64,
      "hit": false,
      "t": 225180.86399999852,
      "d": 222.8759999999893,
      "v": 115
    },
    {
      "midi": 69,
      "hit": false,
      "t": 225180.86399999852,
      "d": 222.8759999999893,
      "v": 80
    },
    {
      "midi": 59,
      "hit": false,
      "t": 225441.7919999985,
      "d": 222.8759999999893,
      "v": 115
    },
    {
      "midi": 62,
      "hit": false,
      "t": 225441.7919999985,
      "d": 222.8759999999893,
      "v": 106
    },
    {
      "midi": 66,
      "hit": false,
      "t": 225441.7919999985,
      "d": 222.8759999999893,
      "v": 94
    },
    {
      "midi": 69,
      "hit": false,
      "t": 225441.7919999985,
      "d": 222.8759999999893,
      "v": 76
    },
    {
      "midi": 59,
      "hit": false,
      "t": 225702.7199999985,
      "d": 222.8759999999893,
      "v": 115
    },
    {
      "midi": 62,
      "hit": false,
      "t": 225702.7199999985,
      "d": 222.8759999999893,
      "v": 110
    },
    {
      "midi": 66,
      "hit": false,
      "t": 225702.7199999985,
      "d": 222.8759999999893,
      "v": 99
    },
    {
      "midi": 69,
      "hit": false,
      "t": 225702.7199999985,
      "d": 222.8759999999893,
      "v": 80
    },
    {
      "midi": 59,
      "hit": false,
      "t": 225963.64799999847,
      "d": 222.8759999999893,
      "v": 121
    },
    {
      "midi": 62,
      "hit": false,
      "t": 225963.64799999847,
      "d": 222.8759999999893,
      "v": 106
    },
    {
      "midi": 66,
      "hit": false,
      "t": 225963.64799999847,
      "d": 222.8759999999893,
      "v": 108
    },
    {
      "midi": 69,
      "hit": false,
      "t": 225963.64799999847,
      "d": 222.8759999999893,
      "v": 84
    },
    {
      "midi": 59,
      "hit": false,
      "t": 226224.57599999846,
      "d": 222.8759999999893,
      "v": 115
    },
    {
      "midi": 62,
      "hit": false,
      "t": 226224.57599999846,
      "d": 222.8759999999893,
      "v": 101
    },
    {
      "midi": 66,
      "hit": false,
      "t": 226224.57599999846,
      "d": 222.8759999999893,
      "v": 99
    },
    {
      "midi": 69,
      "hit": false,
      "t": 226224.57599999846,
      "d": 222.8759999999893,
      "v": 84
    },
    {
      "midi": 57,
      "hit": false,
      "t": 226485.50399999844,
      "d": 222.8759999999893,
      "v": 106
    },
    {
      "midi": 61,
      "hit": false,
      "t": 226485.50399999844,
      "d": 222.8759999999893,
      "v": 115
    },
    {
      "midi": 64,
      "hit": false,
      "t": 226485.50399999844,
      "d": 222.8759999999893,
      "v": 110
    },
    {
      "midi": 69,
      "hit": false,
      "t": 226485.50399999844,
      "d": 222.8759999999893,
      "v": 84
    },
    {
      "midi": 57,
      "hit": false,
      "t": 226746.43199999843,
      "d": 222.8759999999893,
      "v": 101
    },
    {
      "midi": 61,
      "hit": false,
      "t": 226746.43199999843,
      "d": 222.8759999999893,
      "v": 123
    },
    {
      "midi": 64,
      "hit": false,
      "t": 226746.43199999843,
      "d": 222.8759999999893,
      "v": 115
    },
    {
      "midi": 69,
      "hit": false,
      "t": 226746.43199999843,
      "d": 222.8759999999893,
      "v": 80
    },
    {
      "midi": 57,
      "hit": false,
      "t": 227007.3599999984,
      "d": 222.8759999999893,
      "v": 101
    },
    {
      "midi": 61,
      "hit": false,
      "t": 227007.3599999984,
      "d": 222.8759999999893,
      "v": 121
    },
    {
      "midi": 64,
      "hit": false,
      "t": 227007.3599999984,
      "d": 222.8759999999893,
      "v": 115
    },
    {
      "midi": 69,
      "hit": false,
      "t": 227007.3599999984,
      "d": 222.8759999999893,
      "v": 84
    },
    {
      "midi": 57,
      "hit": false,
      "t": 227268.2879999984,
      "d": 222.8759999999893,
      "v": 110
    },
    {
      "midi": 61,
      "hit": false,
      "t": 227268.2879999984,
      "d": 222.8759999999893,
      "v": 123
    },
    {
      "midi": 64,
      "hit": false,
      "t": 227268.2879999984,
      "d": 222.8759999999893,
      "v": 110
    },
    {
      "midi": 69,
      "hit": false,
      "t": 227268.2879999984,
      "d": 222.8759999999893,
      "v": 84
    },
    {
      "midi": 57,
      "hit": false,
      "t": 227529.21599999839,
      "d": 222.8759999999893,
      "v": 101
    },
    {
      "midi": 62,
      "hit": false,
      "t": 227529.21599999839,
      "d": 222.8759999999893,
      "v": 110
    },
    {
      "midi": 66,
      "hit": false,
      "t": 227529.21599999839,
      "d": 222.8759999999893,
      "v": 99
    },
    {
      "midi": 69,
      "hit": false,
      "t": 227529.21599999839,
      "d": 222.8759999999893,
      "v": 84
    },
    {
      "midi": 57,
      "hit": false,
      "t": 227790.14399999837,
      "d": 222.8759999999893,
      "v": 106
    },
    {
      "midi": 62,
      "hit": false,
      "t": 227790.14399999837,
      "d": 222.8759999999893,
      "v": 110
    },
    {
      "midi": 66,
      "hit": false,
      "t": 227790.14399999837,
      "d": 222.8759999999893,
      "v": 90
    },
    {
      "midi": 69,
      "hit": false,
      "t": 227790.14399999837,
      "d": 222.8759999999893,
      "v": 80
    },
    {
      "midi": 57,
      "hit": false,
      "t": 228051.07199999836,
      "d": 222.8759999999893,
      "v": 97
    },
    {
      "midi": 62,
      "hit": false,
      "t": 228051.07199999836,
      "d": 222.8759999999893,
      "v": 110
    },
    {
      "midi": 66,
      "hit": false,
      "t": 228051.07199999836,
      "d": 222.8759999999893,
      "v": 103
    },
    {
      "midi": 69,
      "hit": false,
      "t": 228051.07199999836,
      "d": 222.8759999999893,
      "v": 89
    },
    {
      "midi": 57,
      "hit": false,
      "t": 228311.99999999834,
      "d": 222.8759999999893,
      "v": 101
    },
    {
      "midi": 62,
      "hit": false,
      "t": 228311.99999999834,
      "d": 222.8759999999893,
      "v": 110
    },
    {
      "midi": 66,
      "hit": false,
      "t": 228311.99999999834,
      "d": 222.8759999999893,
      "v": 99
    },
    {
      "midi": 69,
      "hit": false,
      "t": 228311.99999999834,
      "d": 222.8759999999893,
      "v": 80
    },
    {
      "midi": 57,
      "hit": false,
      "t": 228572.92799999833,
      "d": 222.8759999999893,
      "v": 101
    },
    {
      "midi": 62,
      "hit": false,
      "t": 228572.92799999833,
      "d": 222.8759999999893,
      "v": 110
    },
    {
      "midi": 66,
      "hit": false,
      "t": 228572.92799999833,
      "d": 222.8759999999893,
      "v": 103
    },
    {
      "midi": 69,
      "hit": false,
      "t": 228572.92799999833,
      "d": 222.8759999999893,
      "v": 93
    },
    {
      "midi": 57,
      "hit": false,
      "t": 228833.8559999983,
      "d": 222.8759999999893,
      "v": 101
    },
    {
      "midi": 62,
      "hit": false,
      "t": 228833.8559999983,
      "d": 222.8759999999893,
      "v": 115
    },
    {
      "midi": 66,
      "hit": false,
      "t": 228833.8559999983,
      "d": 222.8759999999893,
      "v": 99
    },
    {
      "midi": 69,
      "hit": false,
      "t": 228833.8559999983,
      "d": 222.8759999999893,
      "v": 84
    },
    {
      "midi": 57,
      "hit": false,
      "t": 229094.7839999983,
      "d": 222.8759999999893,
      "v": 101
    },
    {
      "midi": 62,
      "hit": false,
      "t": 229094.7839999983,
      "d": 222.8759999999893,
      "v": 121
    },
    {
      "midi": 66,
      "hit": false,
      "t": 229094.7839999983,
      "d": 222.8759999999893,
      "v": 99
    },
    {
      "midi": 69,
      "hit": false,
      "t": 229094.7839999983,
      "d": 222.8759999999893,
      "v": 84
    },
    {
      "midi": 57,
      "hit": false,
      "t": 229355.71199999828,
      "d": 222.8759999999893,
      "v": 106
    },
    {
      "midi": 62,
      "hit": false,
      "t": 229355.71199999828,
      "d": 222.8759999999893,
      "v": 121
    },
    {
      "midi": 66,
      "hit": false,
      "t": 229355.71199999828,
      "d": 222.8759999999893,
      "v": 103
    },
    {
      "midi": 69,
      "hit": false,
      "t": 229355.71199999828,
      "d": 222.8759999999893,
      "v": 93
    },
    {
      "midi": 57,
      "hit": false,
      "t": 229616.63999999827,
      "d": 222.8759999999893,
      "v": 101
    },
    {
      "midi": 62,
      "hit": false,
      "t": 229616.63999999827,
      "d": 222.8759999999893,
      "v": 121
    },
    {
      "midi": 64,
      "hit": false,
      "t": 229616.63999999827,
      "d": 222.8759999999893,
      "v": 110
    },
    {
      "midi": 69,
      "hit": false,
      "t": 229616.63999999827,
      "d": 222.8759999999893,
      "v": 80
    },
    {
      "midi": 57,
      "hit": false,
      "t": 229877.56799999825,
      "d": 222.8759999999893,
      "v": 106
    },
    {
      "midi": 62,
      "hit": false,
      "t": 229877.56799999825,
      "d": 222.8759999999893,
      "v": 121
    },
    {
      "midi": 64,
      "hit": false,
      "t": 229877.56799999825,
      "d": 222.8759999999893,
      "v": 106
    },
    {
      "midi": 69,
      "hit": false,
      "t": 229877.56799999825,
      "d": 222.8759999999893,
      "v": 84
    },
    {
      "midi": 57,
      "hit": false,
      "t": 230138.49599999824,
      "d": 222.8759999999893,
      "v": 110
    },
    {
      "midi": 62,
      "hit": false,
      "t": 230138.49599999824,
      "d": 222.8759999999893,
      "v": 121
    },
    {
      "midi": 64,
      "hit": false,
      "t": 230138.49599999824,
      "d": 222.8759999999893,
      "v": 110
    },
    {
      "midi": 69,
      "hit": false,
      "t": 230138.49599999824,
      "d": 222.8759999999893,
      "v": 80
    },
    {
      "midi": 57,
      "hit": false,
      "t": 230399.42399999822,
      "d": 222.8759999999893,
      "v": 106
    },
    {
      "midi": 62,
      "hit": false,
      "t": 230399.42399999822,
      "d": 222.8759999999893,
      "v": 115
    },
    {
      "midi": 64,
      "hit": false,
      "t": 230399.42399999822,
      "d": 222.8759999999893,
      "v": 101
    },
    {
      "midi": 69,
      "hit": false,
      "t": 230399.42399999822,
      "d": 222.8759999999893,
      "v": 71
    },
    {
      "midi": 57,
      "hit": false,
      "t": 230660.3519999982,
      "d": 222.8759999999893,
      "v": 97
    },
    {
      "midi": 61,
      "hit": false,
      "t": 230660.3519999982,
      "d": 222.8759999999893,
      "v": 121
    },
    {
      "midi": 64,
      "hit": false,
      "t": 230660.3519999982,
      "d": 222.8759999999893,
      "v": 106
    },
    {
      "midi": 69,
      "hit": false,
      "t": 230660.3519999982,
      "d": 222.8759999999893,
      "v": 80
    },
    {
      "midi": 57,
      "hit": false,
      "t": 230921.2799999982,
      "d": 222.8759999999893,
      "v": 93
    },
    {
      "midi": 61,
      "hit": false,
      "t": 230921.2799999982,
      "d": 222.8759999999893,
      "v": 123
    },
    {
      "midi": 64,
      "hit": false,
      "t": 230921.2799999982,
      "d": 222.8759999999893,
      "v": 110
    },
    {
      "midi": 69,
      "hit": false,
      "t": 230921.2799999982,
      "d": 222.8759999999893,
      "v": 84
    },
    {
      "midi": 57,
      "hit": false,
      "t": 231182.20799999818,
      "d": 222.8759999999893,
      "v": 101
    },
    {
      "midi": 61,
      "hit": false,
      "t": 231182.20799999818,
      "d": 222.8759999999893,
      "v": 121
    },
    {
      "midi": 64,
      "hit": false,
      "t": 231182.20799999818,
      "d": 222.8759999999893,
      "v": 115
    },
    {
      "midi": 69,
      "hit": false,
      "t": 231182.20799999818,
      "d": 222.8759999999893,
      "v": 84
    },
    {
      "midi": 57,
      "hit": false,
      "t": 231443.13599999817,
      "d": 222.8759999999893,
      "v": 97
    },
    {
      "midi": 61,
      "hit": false,
      "t": 231443.13599999817,
      "d": 222.8759999999893,
      "v": 121
    },
    {
      "midi": 64,
      "hit": false,
      "t": 231443.13599999817,
      "d": 222.8759999999893,
      "v": 115
    },
    {
      "midi": 69,
      "hit": false,
      "t": 231443.13599999817,
      "d": 222.8759999999893,
      "v": 93
    },
    {
      "midi": 57,
      "hit": false,
      "t": 231704.06399999815,
      "d": 222.8759999999893,
      "v": 106
    },
    {
      "midi": 61,
      "hit": false,
      "t": 231704.06399999815,
      "d": 222.8759999999893,
      "v": 115
    },
    {
      "midi": 64,
      "hit": false,
      "t": 231704.06399999815,
      "d": 222.8759999999893,
      "v": 115
    },
    {
      "midi": 69,
      "hit": false,
      "t": 231704.06399999815,
      "d": 222.8759999999893,
      "v": 89
    },
    {
      "midi": 57,
      "hit": false,
      "t": 231964.99199999814,
      "d": 222.8759999999893,
      "v": 106
    },
    {
      "midi": 61,
      "hit": false,
      "t": 231964.99199999814,
      "d": 222.8759999999893,
      "v": 121
    },
    {
      "midi": 64,
      "hit": false,
      "t": 231964.99199999814,
      "d": 222.8759999999893,
      "v": 115
    },
    {
      "midi": 69,
      "hit": false,
      "t": 231964.99199999814,
      "d": 222.8759999999893,
      "v": 84
    },
    {
      "midi": 57,
      "hit": false,
      "t": 232225.91999999812,
      "d": 222.8759999999893,
      "v": 106
    },
    {
      "midi": 61,
      "hit": false,
      "t": 232225.91999999812,
      "d": 222.8759999999893,
      "v": 121
    },
    {
      "midi": 64,
      "hit": false,
      "t": 232225.91999999812,
      "d": 222.8759999999893,
      "v": 110
    },
    {
      "midi": 69,
      "hit": false,
      "t": 232225.91999999812,
      "d": 222.8759999999893,
      "v": 84
    },
    {
      "midi": 57,
      "hit": false,
      "t": 232486.8479999981,
      "d": 222.8759999999893,
      "v": 106
    },
    {
      "midi": 61,
      "hit": false,
      "t": 232486.8479999981,
      "d": 222.8759999999893,
      "v": 121
    },
    {
      "midi": 64,
      "hit": false,
      "t": 232486.8479999981,
      "d": 222.8759999999893,
      "v": 115
    },
    {
      "midi": 69,
      "hit": false,
      "t": 232486.8479999981,
      "d": 222.8759999999893,
      "v": 89
    },
    {
      "midi": 57,
      "hit": false,
      "t": 232747.7759999981,
      "d": 222.8759999999893,
      "v": 101
    },
    {
      "midi": 61,
      "hit": false,
      "t": 232747.7759999981,
      "d": 222.8759999999893,
      "v": 115
    },
    {
      "midi": 64,
      "hit": false,
      "t": 232747.7759999981,
      "d": 222.8759999999893,
      "v": 115
    },
    {
      "midi": 69,
      "hit": false,
      "t": 232747.7759999981,
      "d": 222.8759999999893,
      "v": 84
    },
    {
      "midi": 57,
      "hit": false,
      "t": 233008.70399999808,
      "d": 222.8759999999893,
      "v": 101
    },
    {
      "midi": 61,
      "hit": false,
      "t": 233008.70399999808,
      "d": 222.8759999999893,
      "v": 121
    },
    {
      "midi": 64,
      "hit": false,
      "t": 233008.70399999808,
      "d": 222.8759999999893,
      "v": 110
    },
    {
      "midi": 69,
      "hit": false,
      "t": 233008.70399999808,
      "d": 222.8759999999893,
      "v": 84
    },
    {
      "midi": 57,
      "hit": false,
      "t": 233269.63199999806,
      "d": 222.8759999999893,
      "v": 101
    },
    {
      "midi": 61,
      "hit": false,
      "t": 233269.63199999806,
      "d": 222.8759999999893,
      "v": 115
    },
    {
      "midi": 64,
      "hit": false,
      "t": 233269.63199999806,
      "d": 222.8759999999893,
      "v": 115
    },
    {
      "midi": 69,
      "hit": false,
      "t": 233269.63199999806,
      "d": 222.8759999999893,
      "v": 93
    },
    {
      "midi": 57,
      "hit": false,
      "t": 233530.55999999805,
      "d": 222.8759999999893,
      "v": 110
    },
    {
      "midi": 61,
      "hit": false,
      "t": 233530.55999999805,
      "d": 222.8759999999893,
      "v": 121
    },
    {
      "midi": 64,
      "hit": false,
      "t": 233530.55999999805,
      "d": 222.8759999999893,
      "v": 115
    },
    {
      "midi": 69,
      "hit": false,
      "t": 233530.55999999805,
      "d": 222.8759999999893,
      "v": 89
    },
    {
      "midi": 59,
      "hit": false,
      "t": 233791.48799999803,
      "d": 222.8759999999893,
      "v": 110
    },
    {
      "midi": 62,
      "hit": false,
      "t": 233791.48799999803,
      "d": 222.8759999999893,
      "v": 115
    },
    {
      "midi": 66,
      "hit": false,
      "t": 233791.48799999803,
      "d": 222.8759999999893,
      "v": 99
    },
    {
      "midi": 69,
      "hit": false,
      "t": 233791.48799999803,
      "d": 222.8759999999893,
      "v": 84
    },
    {
      "midi": 59,
      "hit": false,
      "t": 234052.41599999802,
      "d": 222.8759999999893,
      "v": 101
    },
    {
      "midi": 62,
      "hit": false,
      "t": 234052.41599999802,
      "d": 222.8759999999893,
      "v": 101
    },
    {
      "midi": 66,
      "hit": false,
      "t": 234052.41599999802,
      "d": 222.8759999999893,
      "v": 99
    },
    {
      "midi": 69,
      "hit": false,
      "t": 234052.41599999802,
      "d": 222.8759999999893,
      "v": 98
    },
    {
      "midi": 59,
      "hit": false,
      "t": 234313.343999998,
      "d": 222.8759999999893,
      "v": 115
    },
    {
      "midi": 62,
      "hit": false,
      "t": 234313.343999998,
      "d": 222.8759999999893,
      "v": 115
    },
    {
      "midi": 66,
      "hit": false,
      "t": 234313.343999998,
      "d": 222.8759999999893,
      "v": 108
    },
    {
      "midi": 69,
      "hit": false,
      "t": 234313.343999998,
      "d": 222.8759999999893,
      "v": 89
    },
    {
      "midi": 59,
      "hit": false,
      "t": 234574.271999998,
      "d": 222.8759999999893,
      "v": 115
    },
    {
      "midi": 62,
      "hit": false,
      "t": 234574.271999998,
      "d": 222.8759999999893,
      "v": 106
    },
    {
      "midi": 66,
      "hit": false,
      "t": 234574.271999998,
      "d": 222.8759999999893,
      "v": 108
    },
    {
      "midi": 69,
      "hit": false,
      "t": 234574.271999998,
      "d": 222.8759999999893,
      "v": 84
    },
    {
      "midi": 57,
      "hit": false,
      "t": 234835.19999999797,
      "d": 222.8759999999893,
      "v": 97
    },
    {
      "midi": 61,
      "hit": false,
      "t": 234835.19999999797,
      "d": 222.8759999999893,
      "v": 121
    },
    {
      "midi": 64,
      "hit": false,
      "t": 234835.19999999797,
      "d": 222.8759999999893,
      "v": 110
    },
    {
      "midi": 69,
      "hit": false,
      "t": 234835.19999999797,
      "d": 222.8759999999893,
      "v": 80
    },
    {
      "midi": 57,
      "hit": false,
      "t": 235096.12799999796,
      "d": 222.8759999999893,
      "v": 101
    },
    {
      "midi": 61,
      "hit": false,
      "t": 235096.12799999796,
      "d": 222.8759999999893,
      "v": 121
    },
    {
      "midi": 64,
      "hit": false,
      "t": 235096.12799999796,
      "d": 222.8759999999893,
      "v": 115
    },
    {
      "midi": 69,
      "hit": false,
      "t": 235096.12799999796,
      "d": 222.8759999999893,
      "v": 80
    },
    {
      "midi": 57,
      "hit": false,
      "t": 235357.05599999795,
      "d": 222.8759999999893,
      "v": 101
    },
    {
      "midi": 61,
      "hit": false,
      "t": 235357.05599999795,
      "d": 222.8759999999893,
      "v": 121
    },
    {
      "midi": 64,
      "hit": false,
      "t": 235357.05599999795,
      "d": 222.8759999999893,
      "v": 110
    },
    {
      "midi": 69,
      "hit": false,
      "t": 235357.05599999795,
      "d": 222.8759999999893,
      "v": 89
    },
    {
      "midi": 57,
      "hit": false,
      "t": 235617.98399999793,
      "d": 222.8759999999893,
      "v": 101
    },
    {
      "midi": 61,
      "hit": false,
      "t": 235617.98399999793,
      "d": 222.8759999999893,
      "v": 121
    },
    {
      "midi": 64,
      "hit": false,
      "t": 235617.98399999793,
      "d": 222.8759999999893,
      "v": 115
    },
    {
      "midi": 69,
      "hit": false,
      "t": 235617.98399999793,
      "d": 222.8759999999893,
      "v": 80
    },
    {
      "midi": 57,
      "hit": false,
      "t": 235878.91199999792,
      "d": 222.8759999999893,
      "v": 106
    },
    {
      "midi": 62,
      "hit": false,
      "t": 235878.91199999792,
      "d": 222.8759999999893,
      "v": 101
    },
    {
      "midi": 66,
      "hit": false,
      "t": 235878.91199999792,
      "d": 222.8759999999893,
      "v": 108
    },
    {
      "midi": 69,
      "hit": false,
      "t": 235878.91199999792,
      "d": 222.8759999999893,
      "v": 93
    },
    {
      "midi": 57,
      "hit": false,
      "t": 236139.8399999979,
      "d": 222.8759999999893,
      "v": 106
    },
    {
      "midi": 62,
      "hit": false,
      "t": 236139.8399999979,
      "d": 222.8759999999893,
      "v": 97
    },
    {
      "midi": 66,
      "hit": false,
      "t": 236139.8399999979,
      "d": 222.8759999999893,
      "v": 90
    },
    {
      "midi": 69,
      "hit": false,
      "t": 236139.8399999979,
      "d": 222.8759999999893,
      "v": 80
    },
    {
      "midi": 57,
      "hit": false,
      "t": 236400.7679999979,
      "d": 222.8759999999893,
      "v": 106
    },
    {
      "midi": 62,
      "hit": false,
      "t": 236400.7679999979,
      "d": 222.8759999999893,
      "v": 101
    },
    {
      "midi": 66,
      "hit": false,
      "t": 236400.7679999979,
      "d": 222.8759999999893,
      "v": 94
    },
    {
      "midi": 69,
      "hit": false,
      "t": 236400.7679999979,
      "d": 222.8759999999893,
      "v": 80
    },
    {
      "midi": 57,
      "hit": false,
      "t": 236661.69599999787,
      "d": 222.8759999999893,
      "v": 110
    },
    {
      "midi": 62,
      "hit": false,
      "t": 236661.69599999787,
      "d": 222.8759999999893,
      "v": 97
    },
    {
      "midi": 66,
      "hit": false,
      "t": 236661.69599999787,
      "d": 222.8759999999893,
      "v": 94
    },
    {
      "midi": 69,
      "hit": false,
      "t": 236661.69599999787,
      "d": 222.8759999999893,
      "v": 84
    },
    {
      "midi": 57,
      "hit": false,
      "t": 236922.62399999786,
      "d": 222.8759999999893,
      "v": 115
    },
    {
      "midi": 62,
      "hit": false,
      "t": 236922.62399999786,
      "d": 222.8759999999893,
      "v": 101
    },
    {
      "midi": 66,
      "hit": false,
      "t": 236922.62399999786,
      "d": 222.8759999999893,
      "v": 99
    },
    {
      "midi": 69,
      "hit": false,
      "t": 236922.62399999786,
      "d": 222.8759999999893,
      "v": 80
    },
    {
      "midi": 57,
      "hit": false,
      "t": 237183.55199999784,
      "d": 222.8759999999893,
      "v": 110
    },
    {
      "midi": 62,
      "hit": false,
      "t": 237183.55199999784,
      "d": 222.8759999999893,
      "v": 101
    },
    {
      "midi": 66,
      "hit": false,
      "t": 237183.55199999784,
      "d": 222.8759999999893,
      "v": 99
    },
    {
      "midi": 69,
      "hit": false,
      "t": 237183.55199999784,
      "d": 222.8759999999893,
      "v": 80
    },
    {
      "midi": 57,
      "hit": false,
      "t": 237444.47999999783,
      "d": 222.8759999999893,
      "v": 115
    },
    {
      "midi": 62,
      "hit": false,
      "t": 237444.47999999783,
      "d": 222.8759999999893,
      "v": 106
    },
    {
      "midi": 66,
      "hit": false,
      "t": 237444.47999999783,
      "d": 222.8759999999893,
      "v": 99
    },
    {
      "midi": 69,
      "hit": false,
      "t": 237444.47999999783,
      "d": 222.8759999999893,
      "v": 84
    },
    {
      "midi": 57,
      "hit": false,
      "t": 237705.4079999978,
      "d": 222.8759999999893,
      "v": 115
    },
    {
      "midi": 62,
      "hit": false,
      "t": 237705.4079999978,
      "d": 222.8759999999893,
      "v": 110
    },
    {
      "midi": 66,
      "hit": false,
      "t": 237705.4079999978,
      "d": 222.8759999999893,
      "v": 99
    },
    {
      "midi": 69,
      "hit": false,
      "t": 237705.4079999978,
      "d": 222.8759999999893,
      "v": 84
    },
    {
      "midi": 57,
      "hit": false,
      "t": 237966.3359999978,
      "d": 222.8759999999893,
      "v": 115
    },
    {
      "midi": 62,
      "hit": false,
      "t": 237966.3359999978,
      "d": 222.8759999999893,
      "v": 110
    },
    {
      "midi": 64,
      "hit": false,
      "t": 237966.3359999978,
      "d": 222.8759999999893,
      "v": 106
    },
    {
      "midi": 69,
      "hit": false,
      "t": 237966.3359999978,
      "d": 222.8759999999893,
      "v": 84
    },
    {
      "midi": 57,
      "hit": false,
      "t": 238227.26399999778,
      "d": 222.8759999999893,
      "v": 110
    },
    {
      "midi": 62,
      "hit": false,
      "t": 238227.26399999778,
      "d": 222.8759999999893,
      "v": 110
    },
    {
      "midi": 64,
      "hit": false,
      "t": 238227.26399999778,
      "d": 222.8759999999893,
      "v": 106
    },
    {
      "midi": 69,
      "hit": false,
      "t": 238227.26399999778,
      "d": 222.8759999999893,
      "v": 84
    },
    {
      "midi": 57,
      "hit": false,
      "t": 238488.19199999777,
      "d": 222.8759999999893,
      "v": 115
    },
    {
      "midi": 62,
      "hit": false,
      "t": 238488.19199999777,
      "d": 222.8759999999893,
      "v": 110
    },
    {
      "midi": 64,
      "hit": false,
      "t": 238488.19199999777,
      "d": 222.8759999999893,
      "v": 110
    },
    {
      "midi": 69,
      "hit": false,
      "t": 238488.19199999777,
      "d": 222.8759999999893,
      "v": 84
    },
    {
      "midi": 57,
      "hit": false,
      "t": 238749.11999999775,
      "d": 222.8759999999893,
      "v": 115
    },
    {
      "midi": 62,
      "hit": false,
      "t": 238749.11999999775,
      "d": 222.8759999999893,
      "v": 115
    },
    {
      "midi": 64,
      "hit": false,
      "t": 238749.11999999775,
      "d": 222.8759999999893,
      "v": 106
    },
    {
      "midi": 69,
      "hit": false,
      "t": 238749.11999999775,
      "d": 222.8759999999893,
      "v": 84
    },
    {
      "midi": 57,
      "hit": false,
      "t": 239010.04799999774,
      "d": 222.8759999999893,
      "v": 106
    },
    {
      "midi": 61,
      "hit": false,
      "t": 239010.04799999774,
      "d": 222.8759999999893,
      "v": 121
    },
    {
      "midi": 64,
      "hit": false,
      "t": 239010.04799999774,
      "d": 222.8759999999893,
      "v": 106
    },
    {
      "midi": 69,
      "hit": false,
      "t": 239010.04799999774,
      "d": 222.8759999999893,
      "v": 89
    },
    {
      "midi": 57,
      "hit": false,
      "t": 239270.97599999773,
      "d": 222.8759999999893,
      "v": 97
    },
    {
      "midi": 61,
      "hit": false,
      "t": 239270.97599999773,
      "d": 222.8759999999893,
      "v": 121
    },
    {
      "midi": 64,
      "hit": false,
      "t": 239270.97599999773,
      "d": 222.8759999999893,
      "v": 106
    },
    {
      "midi": 69,
      "hit": false,
      "t": 239270.97599999773,
      "d": 222.8759999999893,
      "v": 84
    },
    {
      "midi": 57,
      "hit": false,
      "t": 239531.9039999977,
      "d": 222.8759999999893,
      "v": 101
    },
    {
      "midi": 61,
      "hit": false,
      "t": 239531.9039999977,
      "d": 222.8759999999893,
      "v": 121
    },
    {
      "midi": 64,
      "hit": false,
      "t": 239531.9039999977,
      "d": 222.8759999999893,
      "v": 110
    },
    {
      "midi": 69,
      "hit": false,
      "t": 239531.9039999977,
      "d": 222.8759999999893,
      "v": 89
    },
    {
      "midi": 57,
      "hit": false,
      "t": 239792.8319999977,
      "d": 222.8759999999893,
      "v": 97
    },
    {
      "midi": 61,
      "hit": false,
      "t": 239792.8319999977,
      "d": 222.8759999999893,
      "v": 110
    },
    {
      "midi": 64,
      "hit": false,
      "t": 239792.8319999977,
      "d": 222.8759999999893,
      "v": 106
    },
    {
      "midi": 69,
      "hit": false,
      "t": 239792.8319999977,
      "d": 222.8759999999893,
      "v": 84
    },
    {
      "midi": 57,
      "hit": false,
      "t": 240053.75999999768,
      "d": 222.8759999999893,
      "v": 101
    },
    {
      "midi": 61,
      "hit": false,
      "t": 240053.75999999768,
      "d": 222.8759999999893,
      "v": 123
    },
    {
      "midi": 64,
      "hit": false,
      "t": 240053.75999999768,
      "d": 222.8759999999893,
      "v": 110
    },
    {
      "midi": 69,
      "hit": false,
      "t": 240053.75999999768,
      "d": 222.8759999999893,
      "v": 93
    },
    {
      "midi": 57,
      "hit": false,
      "t": 240314.68799999767,
      "d": 222.8759999999893,
      "v": 101
    },
    {
      "midi": 61,
      "hit": false,
      "t": 240314.68799999767,
      "d": 222.8759999999893,
      "v": 121
    },
    {
      "midi": 64,
      "hit": false,
      "t": 240314.68799999767,
      "d": 222.8759999999893,
      "v": 115
    },
    {
      "midi": 69,
      "hit": false,
      "t": 240314.68799999767,
      "d": 222.8759999999893,
      "v": 84
    },
    {
      "midi": 57,
      "hit": false,
      "t": 240575.61599999765,
      "d": 222.8759999999893,
      "v": 106
    },
    {
      "midi": 61,
      "hit": false,
      "t": 240575.61599999765,
      "d": 222.8759999999893,
      "v": 115
    },
    {
      "midi": 64,
      "hit": false,
      "t": 240575.61599999765,
      "d": 222.8759999999893,
      "v": 110
    },
    {
      "midi": 69,
      "hit": false,
      "t": 240575.61599999765,
      "d": 222.8759999999893,
      "v": 84
    },
    {
      "midi": 57,
      "hit": false,
      "t": 240836.54399999764,
      "d": 222.8759999999893,
      "v": 106
    },
    {
      "midi": 61,
      "hit": false,
      "t": 240836.54399999764,
      "d": 222.8759999999893,
      "v": 115
    },
    {
      "midi": 64,
      "hit": false,
      "t": 240836.54399999764,
      "d": 222.8759999999893,
      "v": 115
    },
    {
      "midi": 69,
      "hit": false,
      "t": 240836.54399999764,
      "d": 222.8759999999893,
      "v": 89
    },
    {
      "midi": 57,
      "hit": false,
      "t": 241097.47199999762,
      "d": 222.8759999999893,
      "v": 110
    },
    {
      "midi": 61,
      "hit": false,
      "t": 241097.47199999762,
      "d": 222.8759999999893,
      "v": 123
    },
    {
      "midi": 64,
      "hit": false,
      "t": 241097.47199999762,
      "d": 222.8759999999893,
      "v": 115
    },
    {
      "midi": 69,
      "hit": false,
      "t": 241097.47199999762,
      "d": 222.8759999999893,
      "v": 89
    },
    {
      "midi": 57,
      "hit": false,
      "t": 241358.3999999976,
      "d": 222.8759999999893,
      "v": 110
    },
    {
      "midi": 61,
      "hit": false,
      "t": 241358.3999999976,
      "d": 222.8759999999893,
      "v": 115
    },
    {
      "midi": 64,
      "hit": false,
      "t": 241358.3999999976,
      "d": 222.8759999999893,
      "v": 106
    },
    {
      "midi": 69,
      "hit": false,
      "t": 241358.3999999976,
      "d": 222.8759999999893,
      "v": 84
    },
    {
      "midi": 57,
      "hit": false,
      "t": 241619.3279999976,
      "d": 222.8759999999893,
      "v": 106
    },
    {
      "midi": 61,
      "hit": false,
      "t": 241619.3279999976,
      "d": 222.8759999999893,
      "v": 121
    },
    {
      "midi": 64,
      "hit": false,
      "t": 241619.3279999976,
      "d": 222.8759999999893,
      "v": 110
    },
    {
      "midi": 69,
      "hit": false,
      "t": 241619.3279999976,
      "d": 222.8759999999893,
      "v": 84
    },
    {
      "midi": 57,
      "hit": false,
      "t": 241880.25599999758,
      "d": 222.8759999999893,
      "v": 101
    },
    {
      "midi": 61,
      "hit": false,
      "t": 241880.25599999758,
      "d": 222.8759999999893,
      "v": 121
    },
    {
      "midi": 64,
      "hit": false,
      "t": 241880.25599999758,
      "d": 222.8759999999893,
      "v": 115
    },
    {
      "midi": 69,
      "hit": false,
      "t": 241880.25599999758,
      "d": 222.8759999999893,
      "v": 80
    },
    {
      "midi": 59,
      "hit": false,
      "t": 242141.18399999756,
      "d": 222.8759999999893,
      "v": 115
    },
    {
      "midi": 62,
      "hit": false,
      "t": 242141.18399999756,
      "d": 222.8759999999893,
      "v": 106
    },
    {
      "midi": 66,
      "hit": false,
      "t": 242141.18399999756,
      "d": 222.8759999999893,
      "v": 94
    },
    {
      "midi": 69,
      "hit": false,
      "t": 242141.18399999756,
      "d": 222.8759999999893,
      "v": 76
    },
    {
      "midi": 59,
      "hit": false,
      "t": 242402.11199999755,
      "d": 222.8759999999893,
      "v": 115
    },
    {
      "midi": 62,
      "hit": false,
      "t": 242402.11199999755,
      "d": 222.8759999999893,
      "v": 110
    },
    {
      "midi": 66,
      "hit": false,
      "t": 242402.11199999755,
      "d": 222.8759999999893,
      "v": 99
    },
    {
      "midi": 69,
      "hit": false,
      "t": 242402.11199999755,
      "d": 222.8759999999893,
      "v": 80
    },
    {
      "midi": 59,
      "hit": false,
      "t": 242663.03999999753,
      "d": 222.8759999999893,
      "v": 121
    },
    {
      "midi": 62,
      "hit": false,
      "t": 242663.03999999753,
      "d": 222.8759999999893,
      "v": 106
    },
    {
      "midi": 66,
      "hit": false,
      "t": 242663.03999999753,
      "d": 222.8759999999893,
      "v": 108
    },
    {
      "midi": 69,
      "hit": false,
      "t": 242663.03999999753,
      "d": 222.8759999999893,
      "v": 84
    },
    {
      "midi": 59,
      "hit": false,
      "t": 242923.96799999752,
      "d": 222.8759999999893,
      "v": 115
    },
    {
      "midi": 62,
      "hit": false,
      "t": 242923.96799999752,
      "d": 222.8759999999893,
      "v": 101
    },
    {
      "midi": 66,
      "hit": false,
      "t": 242923.96799999752,
      "d": 222.8759999999893,
      "v": 99
    },
    {
      "midi": 69,
      "hit": false,
      "t": 242923.96799999752,
      "d": 222.8759999999893,
      "v": 84
    },
    {
      "midi": 57,
      "hit": false,
      "t": 243184.8959999975,
      "d": 222.8759999999893,
      "v": 106
    },
    {
      "midi": 61,
      "hit": false,
      "t": 243184.8959999975,
      "d": 222.8759999999893,
      "v": 115
    },
    {
      "midi": 64,
      "hit": false,
      "t": 243184.8959999975,
      "d": 222.8759999999893,
      "v": 110
    },
    {
      "midi": 69,
      "hit": false,
      "t": 243184.8959999975,
      "d": 222.8759999999893,
      "v": 84
    },
    {
      "midi": 57,
      "hit": false,
      "t": 243445.8239999975,
      "d": 222.8759999999893,
      "v": 101
    },
    {
      "midi": 61,
      "hit": false,
      "t": 243445.8239999975,
      "d": 222.8759999999893,
      "v": 123
    },
    {
      "midi": 64,
      "hit": false,
      "t": 243445.8239999975,
      "d": 222.8759999999893,
      "v": 115
    },
    {
      "midi": 69,
      "hit": false,
      "t": 243445.8239999975,
      "d": 222.8759999999893,
      "v": 80
    },
    {
      "midi": 57,
      "hit": false,
      "t": 243706.75199999748,
      "d": 222.8759999999893,
      "v": 101
    },
    {
      "midi": 61,
      "hit": false,
      "t": 243706.75199999748,
      "d": 222.8759999999893,
      "v": 121
    },
    {
      "midi": 64,
      "hit": false,
      "t": 243706.75199999748,
      "d": 222.8759999999893,
      "v": 115
    },
    {
      "midi": 69,
      "hit": false,
      "t": 243706.75199999748,
      "d": 222.8759999999893,
      "v": 84
    },
    {
      "midi": 57,
      "hit": false,
      "t": 243967.67999999746,
      "d": 222.8759999999893,
      "v": 110
    },
    {
      "midi": 61,
      "hit": false,
      "t": 243967.67999999746,
      "d": 222.8759999999893,
      "v": 123
    },
    {
      "midi": 64,
      "hit": false,
      "t": 243967.67999999746,
      "d": 222.8759999999893,
      "v": 110
    },
    {
      "midi": 69,
      "hit": false,
      "t": 243967.67999999746,
      "d": 222.8759999999893,
      "v": 84
    },
    {
      "midi": 57,
      "hit": false,
      "t": 244228.60799999745,
      "d": 222.8759999999893,
      "v": 101
    },
    {
      "midi": 62,
      "hit": false,
      "t": 244228.60799999745,
      "d": 222.8759999999893,
      "v": 110
    },
    {
      "midi": 66,
      "hit": false,
      "t": 244228.60799999745,
      "d": 222.8759999999893,
      "v": 99
    },
    {
      "midi": 69,
      "hit": false,
      "t": 244228.60799999745,
      "d": 222.8759999999893,
      "v": 84
    },
    {
      "midi": 57,
      "hit": false,
      "t": 244489.53599999743,
      "d": 222.8759999999893,
      "v": 106
    },
    {
      "midi": 62,
      "hit": false,
      "t": 244489.53599999743,
      "d": 222.8759999999893,
      "v": 110
    },
    {
      "midi": 66,
      "hit": false,
      "t": 244489.53599999743,
      "d": 222.8759999999893,
      "v": 90
    },
    {
      "midi": 69,
      "hit": false,
      "t": 244489.53599999743,
      "d": 222.8759999999893,
      "v": 80
    },
    {
      "midi": 57,
      "hit": false,
      "t": 244750.46399999742,
      "d": 222.8759999999893,
      "v": 97
    },
    {
      "midi": 62,
      "hit": false,
      "t": 244750.46399999742,
      "d": 222.8759999999893,
      "v": 110
    },
    {
      "midi": 66,
      "hit": false,
      "t": 244750.46399999742,
      "d": 222.8759999999893,
      "v": 103
    },
    {
      "midi": 69,
      "hit": false,
      "t": 244750.46399999742,
      "d": 222.8759999999893,
      "v": 89
    },
    {
      "midi": 57,
      "hit": false,
      "t": 245011.3919999974,
      "d": 222.8759999999893,
      "v": 101
    },
    {
      "midi": 62,
      "hit": false,
      "t": 245011.3919999974,
      "d": 222.8759999999893,
      "v": 110
    },
    {
      "midi": 66,
      "hit": false,
      "t": 245011.3919999974,
      "d": 222.8759999999893,
      "v": 99
    },
    {
      "midi": 69,
      "hit": false,
      "t": 245011.3919999974,
      "d": 222.8759999999893,
      "v": 80
    },
    {
      "midi": 57,
      "hit": false,
      "t": 245272.3199999974,
      "d": 222.8759999999893,
      "v": 101
    },
    {
      "midi": 62,
      "hit": false,
      "t": 245272.3199999974,
      "d": 222.8759999999893,
      "v": 110
    },
    {
      "midi": 66,
      "hit": false,
      "t": 245272.3199999974,
      "d": 222.8759999999893,
      "v": 103
    },
    {
      "midi": 69,
      "hit": false,
      "t": 245272.3199999974,
      "d": 222.8759999999893,
      "v": 93
    },
    {
      "midi": 57,
      "hit": false,
      "t": 245533.24799999737,
      "d": 222.8759999999893,
      "v": 101
    },
    {
      "midi": 62,
      "hit": false,
      "t": 245533.24799999737,
      "d": 222.8759999999893,
      "v": 115
    },
    {
      "midi": 66,
      "hit": false,
      "t": 245533.24799999737,
      "d": 222.8759999999893,
      "v": 99
    },
    {
      "midi": 69,
      "hit": false,
      "t": 245533.24799999737,
      "d": 222.8759999999893,
      "v": 84
    },
    {
      "midi": 57,
      "hit": false,
      "t": 245794.17599999736,
      "d": 222.8759999999893,
      "v": 101
    },
    {
      "midi": 62,
      "hit": false,
      "t": 245794.17599999736,
      "d": 222.8759999999893,
      "v": 121
    },
    {
      "midi": 66,
      "hit": false,
      "t": 245794.17599999736,
      "d": 222.8759999999893,
      "v": 99
    },
    {
      "midi": 69,
      "hit": false,
      "t": 245794.17599999736,
      "d": 222.8759999999893,
      "v": 84
    },
    {
      "midi": 57,
      "hit": false,
      "t": 246055.10399999734,
      "d": 222.8759999999893,
      "v": 106
    },
    {
      "midi": 62,
      "hit": false,
      "t": 246055.10399999734,
      "d": 222.8759999999893,
      "v": 121
    },
    {
      "midi": 66,
      "hit": false,
      "t": 246055.10399999734,
      "d": 222.8759999999893,
      "v": 103
    },
    {
      "midi": 69,
      "hit": false,
      "t": 246055.10399999734,
      "d": 222.8759999999893,
      "v": 93
    },
    {
      "midi": 57,
      "hit": false,
      "t": 246316.03199999733,
      "d": 222.8759999999893,
      "v": 101
    },
    {
      "midi": 62,
      "hit": false,
      "t": 246316.03199999733,
      "d": 222.8759999999893,
      "v": 121
    },
    {
      "midi": 64,
      "hit": false,
      "t": 246316.03199999733,
      "d": 222.8759999999893,
      "v": 110
    },
    {
      "midi": 69,
      "hit": false,
      "t": 246316.03199999733,
      "d": 222.8759999999893,
      "v": 80
    },
    {
      "midi": 57,
      "hit": false,
      "t": 246576.9599999973,
      "d": 222.8759999999893,
      "v": 106
    },
    {
      "midi": 62,
      "hit": false,
      "t": 246576.9599999973,
      "d": 222.8759999999893,
      "v": 121
    },
    {
      "midi": 64,
      "hit": false,
      "t": 246576.9599999973,
      "d": 222.8759999999893,
      "v": 106
    },
    {
      "midi": 69,
      "hit": false,
      "t": 246576.9599999973,
      "d": 222.8759999999893,
      "v": 84
    },
    {
      "midi": 57,
      "hit": false,
      "t": 246837.8879999973,
      "d": 222.8759999999893,
      "v": 110
    },
    {
      "midi": 62,
      "hit": false,
      "t": 246837.8879999973,
      "d": 222.8759999999893,
      "v": 121
    },
    {
      "midi": 64,
      "hit": false,
      "t": 246837.8879999973,
      "d": 222.8759999999893,
      "v": 110
    },
    {
      "midi": 69,
      "hit": false,
      "t": 246837.8879999973,
      "d": 222.8759999999893,
      "v": 80
    },
    {
      "midi": 57,
      "hit": false,
      "t": 247098.81599999728,
      "d": 222.8759999999893,
      "v": 106
    },
    {
      "midi": 62,
      "hit": false,
      "t": 247098.81599999728,
      "d": 222.8759999999893,
      "v": 115
    },
    {
      "midi": 64,
      "hit": false,
      "t": 247098.81599999728,
      "d": 222.8759999999893,
      "v": 101
    },
    {
      "midi": 69,
      "hit": false,
      "t": 247098.81599999728,
      "d": 222.8759999999893,
      "v": 71
    },
    {
      "midi": 57,
      "hit": false,
      "t": 247359.74399999727,
      "d": 222.8759999999893,
      "v": 97
    },
    {
      "midi": 61,
      "hit": false,
      "t": 247359.74399999727,
      "d": 222.8759999999893,
      "v": 121
    },
    {
      "midi": 64,
      "hit": false,
      "t": 247359.74399999727,
      "d": 222.8759999999893,
      "v": 106
    },
    {
      "midi": 69,
      "hit": false,
      "t": 247359.74399999727,
      "d": 222.8759999999893,
      "v": 80
    },
    {
      "midi": 57,
      "hit": false,
      "t": 247620.67199999726,
      "d": 222.8759999999893,
      "v": 93
    },
    {
      "midi": 61,
      "hit": false,
      "t": 247620.67199999726,
      "d": 222.8759999999893,
      "v": 123
    },
    {
      "midi": 64,
      "hit": false,
      "t": 247620.67199999726,
      "d": 222.8759999999893,
      "v": 110
    },
    {
      "midi": 69,
      "hit": false,
      "t": 247620.67199999726,
      "d": 222.8759999999893,
      "v": 84
    },
    {
      "midi": 57,
      "hit": false,
      "t": 247881.59999999724,
      "d": 222.8759999999893,
      "v": 101
    },
    {
      "midi": 61,
      "hit": false,
      "t": 247881.59999999724,
      "d": 222.8759999999893,
      "v": 121
    },
    {
      "midi": 64,
      "hit": false,
      "t": 247881.59999999724,
      "d": 222.8759999999893,
      "v": 115
    },
    {
      "midi": 69,
      "hit": false,
      "t": 247881.59999999724,
      "d": 222.8759999999893,
      "v": 84
    },
    {
      "midi": 57,
      "hit": false,
      "t": 248142.52799999723,
      "d": 222.8759999999893,
      "v": 97
    },
    {
      "midi": 61,
      "hit": false,
      "t": 248142.52799999723,
      "d": 222.8759999999893,
      "v": 121
    },
    {
      "midi": 64,
      "hit": false,
      "t": 248142.52799999723,
      "d": 222.8759999999893,
      "v": 115
    },
    {
      "midi": 69,
      "hit": false,
      "t": 248142.52799999723,
      "d": 222.8759999999893,
      "v": 93
    },
    {
      "midi": 57,
      "hit": false,
      "t": 248403.4559999972,
      "d": 222.8759999999893,
      "v": 106
    },
    {
      "midi": 61,
      "hit": false,
      "t": 248403.4559999972,
      "d": 222.8759999999893,
      "v": 115
    },
    {
      "midi": 64,
      "hit": false,
      "t": 248403.4559999972,
      "d": 222.8759999999893,
      "v": 115
    },
    {
      "midi": 69,
      "hit": false,
      "t": 248403.4559999972,
      "d": 222.8759999999893,
      "v": 89
    },
    {
      "midi": 57,
      "hit": false,
      "t": 248664.3839999972,
      "d": 222.8759999999893,
      "v": 106
    },
    {
      "midi": 61,
      "hit": false,
      "t": 248664.3839999972,
      "d": 222.8759999999893,
      "v": 121
    },
    {
      "midi": 64,
      "hit": false,
      "t": 248664.3839999972,
      "d": 222.8759999999893,
      "v": 115
    },
    {
      "midi": 69,
      "hit": false,
      "t": 248664.3839999972,
      "d": 222.8759999999893,
      "v": 84
    },
    {
      "midi": 57,
      "hit": false,
      "t": 248925.31199999718,
      "d": 222.8759999999893,
      "v": 106
    },
    {
      "midi": 61,
      "hit": false,
      "t": 248925.31199999718,
      "d": 222.8759999999893,
      "v": 121
    },
    {
      "midi": 64,
      "hit": false,
      "t": 248925.31199999718,
      "d": 222.8759999999893,
      "v": 110
    },
    {
      "midi": 69,
      "hit": false,
      "t": 248925.31199999718,
      "d": 222.8759999999893,
      "v": 84
    },
    {
      "midi": 57,
      "hit": false,
      "t": 249186.23999999717,
      "d": 222.8759999999893,
      "v": 106
    },
    {
      "midi": 61,
      "hit": false,
      "t": 249186.23999999717,
      "d": 222.8759999999893,
      "v": 121
    },
    {
      "midi": 64,
      "hit": false,
      "t": 249186.23999999717,
      "d": 222.8759999999893,
      "v": 115
    },
    {
      "midi": 69,
      "hit": false,
      "t": 249186.23999999717,
      "d": 222.8759999999893,
      "v": 89
    },
    {
      "midi": 57,
      "hit": false,
      "t": 249447.16799999715,
      "d": 222.8759999999893,
      "v": 101
    },
    {
      "midi": 61,
      "hit": false,
      "t": 249447.16799999715,
      "d": 222.8759999999893,
      "v": 115
    },
    {
      "midi": 64,
      "hit": false,
      "t": 249447.16799999715,
      "d": 222.8759999999893,
      "v": 115
    },
    {
      "midi": 69,
      "hit": false,
      "t": 249447.16799999715,
      "d": 222.8759999999893,
      "v": 84
    },
    {
      "midi": 57,
      "hit": false,
      "t": 249708.09599999714,
      "d": 222.8759999999893,
      "v": 101
    },
    {
      "midi": 61,
      "hit": false,
      "t": 249708.09599999714,
      "d": 222.8759999999893,
      "v": 121
    },
    {
      "midi": 64,
      "hit": false,
      "t": 249708.09599999714,
      "d": 222.8759999999893,
      "v": 110
    },
    {
      "midi": 69,
      "hit": false,
      "t": 249708.09599999714,
      "d": 222.8759999999893,
      "v": 84
    },
    {
      "midi": 57,
      "hit": false,
      "t": 249969.02399999712,
      "d": 222.8759999999893,
      "v": 101
    },
    {
      "midi": 61,
      "hit": false,
      "t": 249969.02399999712,
      "d": 222.8759999999893,
      "v": 115
    },
    {
      "midi": 64,
      "hit": false,
      "t": 249969.02399999712,
      "d": 222.8759999999893,
      "v": 115
    },
    {
      "midi": 69,
      "hit": false,
      "t": 249969.02399999712,
      "d": 222.8759999999893,
      "v": 93
    },
    {
      "midi": 57,
      "hit": false,
      "t": 250229.9519999971,
      "d": 222.8759999999893,
      "v": 110
    },
    {
      "midi": 61,
      "hit": false,
      "t": 250229.9519999971,
      "d": 222.8759999999893,
      "v": 121
    },
    {
      "midi": 64,
      "hit": false,
      "t": 250229.9519999971,
      "d": 222.8759999999893,
      "v": 115
    },
    {
      "midi": 69,
      "hit": false,
      "t": 250229.9519999971,
      "d": 222.8759999999893,
      "v": 89
    },
    {
      "midi": 59,
      "hit": false,
      "t": 250490.8799999971,
      "d": 222.8759999999893,
      "v": 110
    },
    {
      "midi": 62,
      "hit": false,
      "t": 250490.8799999971,
      "d": 222.8759999999893,
      "v": 115
    },
    {
      "midi": 66,
      "hit": false,
      "t": 250490.8799999971,
      "d": 222.8759999999893,
      "v": 99
    },
    {
      "midi": 69,
      "hit": false,
      "t": 250490.8799999971,
      "d": 222.8759999999893,
      "v": 84
    },
    {
      "midi": 59,
      "hit": false,
      "t": 250751.80799999708,
      "d": 222.8759999999893,
      "v": 101
    },
    {
      "midi": 62,
      "hit": false,
      "t": 250751.80799999708,
      "d": 222.8759999999893,
      "v": 101
    },
    {
      "midi": 66,
      "hit": false,
      "t": 250751.80799999708,
      "d": 222.8759999999893,
      "v": 99
    },
    {
      "midi": 69,
      "hit": false,
      "t": 250751.80799999708,
      "d": 222.8759999999893,
      "v": 98
    },
    {
      "midi": 59,
      "hit": false,
      "t": 251012.73599999706,
      "d": 222.8759999999893,
      "v": 115
    },
    {
      "midi": 62,
      "hit": false,
      "t": 251012.73599999706,
      "d": 222.8759999999893,
      "v": 115
    },
    {
      "midi": 66,
      "hit": false,
      "t": 251012.73599999706,
      "d": 222.8759999999893,
      "v": 108
    },
    {
      "midi": 69,
      "hit": false,
      "t": 251012.73599999706,
      "d": 222.8759999999893,
      "v": 89
    },
    {
      "midi": 59,
      "hit": false,
      "t": 251273.66399999705,
      "d": 222.8759999999893,
      "v": 115
    },
    {
      "midi": 62,
      "hit": false,
      "t": 251273.66399999705,
      "d": 222.8759999999893,
      "v": 106
    },
    {
      "midi": 66,
      "hit": false,
      "t": 251273.66399999705,
      "d": 222.8759999999893,
      "v": 108
    },
    {
      "midi": 69,
      "hit": false,
      "t": 251273.66399999705,
      "d": 222.8759999999893,
      "v": 84
    },
    {
      "midi": 57,
      "hit": false,
      "t": 251534.59199999704,
      "d": 222.8759999999893,
      "v": 97
    },
    {
      "midi": 61,
      "hit": false,
      "t": 251534.59199999704,
      "d": 222.8759999999893,
      "v": 121
    },
    {
      "midi": 64,
      "hit": false,
      "t": 251534.59199999704,
      "d": 222.8759999999893,
      "v": 110
    },
    {
      "midi": 69,
      "hit": false,
      "t": 251534.59199999704,
      "d": 222.8759999999893,
      "v": 80
    },
    {
      "midi": 57,
      "hit": false,
      "t": 251795.51999999702,
      "d": 222.8759999999893,
      "v": 101
    },
    {
      "midi": 61,
      "hit": false,
      "t": 251795.51999999702,
      "d": 222.8759999999893,
      "v": 121
    },
    {
      "midi": 64,
      "hit": false,
      "t": 251795.51999999702,
      "d": 222.8759999999893,
      "v": 115
    },
    {
      "midi": 69,
      "hit": false,
      "t": 251795.51999999702,
      "d": 222.8759999999893,
      "v": 80
    },
    {
      "midi": 57,
      "hit": false,
      "t": 252056.447999997,
      "d": 222.8759999999893,
      "v": 101
    },
    {
      "midi": 61,
      "hit": false,
      "t": 252056.447999997,
      "d": 222.8759999999893,
      "v": 121
    },
    {
      "midi": 64,
      "hit": false,
      "t": 252056.447999997,
      "d": 222.8759999999893,
      "v": 110
    },
    {
      "midi": 69,
      "hit": false,
      "t": 252056.447999997,
      "d": 222.8759999999893,
      "v": 89
    },
    {
      "midi": 57,
      "hit": false,
      "t": 252317.375999997,
      "d": 222.8759999999893,
      "v": 101
    },
    {
      "midi": 61,
      "hit": false,
      "t": 252317.375999997,
      "d": 222.8759999999893,
      "v": 121
    },
    {
      "midi": 64,
      "hit": false,
      "t": 252317.375999997,
      "d": 222.8759999999893,
      "v": 115
    },
    {
      "midi": 69,
      "hit": false,
      "t": 252317.375999997,
      "d": 222.8759999999893,
      "v": 80
    },
    {
      "midi": 57,
      "hit": false,
      "t": 252578.30399999698,
      "d": 222.8759999999893,
      "v": 106
    },
    {
      "midi": 62,
      "hit": false,
      "t": 252578.30399999698,
      "d": 222.8759999999893,
      "v": 101
    },
    {
      "midi": 66,
      "hit": false,
      "t": 252578.30399999698,
      "d": 222.8759999999893,
      "v": 108
    },
    {
      "midi": 69,
      "hit": false,
      "t": 252578.30399999698,
      "d": 222.8759999999893,
      "v": 93
    },
    {
      "midi": 57,
      "hit": false,
      "t": 252839.23199999696,
      "d": 222.8759999999893,
      "v": 106
    },
    {
      "midi": 62,
      "hit": false,
      "t": 252839.23199999696,
      "d": 222.8759999999893,
      "v": 97
    },
    {
      "midi": 66,
      "hit": false,
      "t": 252839.23199999696,
      "d": 222.8759999999893,
      "v": 90
    },
    {
      "midi": 69,
      "hit": false,
      "t": 252839.23199999696,
      "d": 222.8759999999893,
      "v": 80
    },
    {
      "midi": 57,
      "hit": false,
      "t": 253100.15999999695,
      "d": 222.8759999999893,
      "v": 106
    },
    {
      "midi": 62,
      "hit": false,
      "t": 253100.15999999695,
      "d": 222.8759999999893,
      "v": 101
    },
    {
      "midi": 66,
      "hit": false,
      "t": 253100.15999999695,
      "d": 222.8759999999893,
      "v": 94
    },
    {
      "midi": 69,
      "hit": false,
      "t": 253100.15999999695,
      "d": 222.8759999999893,
      "v": 80
    },
    {
      "midi": 57,
      "hit": false,
      "t": 253361.08799999693,
      "d": 222.8759999999893,
      "v": 110
    },
    {
      "midi": 62,
      "hit": false,
      "t": 253361.08799999693,
      "d": 222.8759999999893,
      "v": 97
    },
    {
      "midi": 66,
      "hit": false,
      "t": 253361.08799999693,
      "d": 222.8759999999893,
      "v": 94
    },
    {
      "midi": 69,
      "hit": false,
      "t": 253361.08799999693,
      "d": 222.8759999999893,
      "v": 84
    },
    {
      "midi": 57,
      "hit": false,
      "t": 253622.01599999692,
      "d": 222.8759999999893,
      "v": 115
    },
    {
      "midi": 62,
      "hit": false,
      "t": 253622.01599999692,
      "d": 222.8759999999893,
      "v": 101
    },
    {
      "midi": 66,
      "hit": false,
      "t": 253622.01599999692,
      "d": 222.8759999999893,
      "v": 99
    },
    {
      "midi": 69,
      "hit": false,
      "t": 253622.01599999692,
      "d": 222.8759999999893,
      "v": 80
    },
    {
      "midi": 57,
      "hit": false,
      "t": 253882.9439999969,
      "d": 222.8759999999893,
      "v": 110
    },
    {
      "midi": 62,
      "hit": false,
      "t": 253882.9439999969,
      "d": 222.8759999999893,
      "v": 101
    },
    {
      "midi": 66,
      "hit": false,
      "t": 253882.9439999969,
      "d": 222.8759999999893,
      "v": 99
    },
    {
      "midi": 69,
      "hit": false,
      "t": 253882.9439999969,
      "d": 222.8759999999893,
      "v": 80
    },
    {
      "midi": 57,
      "hit": false,
      "t": 254143.8719999969,
      "d": 222.8759999999893,
      "v": 115
    },
    {
      "midi": 62,
      "hit": false,
      "t": 254143.8719999969,
      "d": 222.8759999999893,
      "v": 106
    },
    {
      "midi": 66,
      "hit": false,
      "t": 254143.8719999969,
      "d": 222.8759999999893,
      "v": 99
    },
    {
      "midi": 69,
      "hit": false,
      "t": 254143.8719999969,
      "d": 222.8759999999893,
      "v": 84
    },
    {
      "midi": 57,
      "hit": false,
      "t": 254404.79999999687,
      "d": 222.8759999999893,
      "v": 115
    },
    {
      "midi": 62,
      "hit": false,
      "t": 254404.79999999687,
      "d": 222.8759999999893,
      "v": 110
    },
    {
      "midi": 66,
      "hit": false,
      "t": 254404.79999999687,
      "d": 222.8759999999893,
      "v": 99
    },
    {
      "midi": 69,
      "hit": false,
      "t": 254404.79999999687,
      "d": 222.8759999999893,
      "v": 84
    },
    {
      "midi": 57,
      "hit": false,
      "t": 254665.72799999686,
      "d": 222.8759999999893,
      "v": 115
    },
    {
      "midi": 62,
      "hit": false,
      "t": 254665.72799999686,
      "d": 222.8759999999893,
      "v": 110
    },
    {
      "midi": 64,
      "hit": false,
      "t": 254665.72799999686,
      "d": 222.8759999999893,
      "v": 106
    },
    {
      "midi": 69,
      "hit": false,
      "t": 254665.72799999686,
      "d": 222.8759999999893,
      "v": 84
    },
    {
      "midi": 57,
      "hit": false,
      "t": 254926.65599999684,
      "d": 222.8759999999893,
      "v": 110
    },
    {
      "midi": 62,
      "hit": false,
      "t": 254926.65599999684,
      "d": 222.8759999999893,
      "v": 110
    },
    {
      "midi": 64,
      "hit": false,
      "t": 254926.65599999684,
      "d": 222.8759999999893,
      "v": 106
    },
    {
      "midi": 69,
      "hit": false,
      "t": 254926.65599999684,
      "d": 222.8759999999893,
      "v": 84
    },
    {
      "midi": 57,
      "hit": false,
      "t": 255187.58399999683,
      "d": 222.8759999999893,
      "v": 115
    },
    {
      "midi": 62,
      "hit": false,
      "t": 255187.58399999683,
      "d": 222.8759999999893,
      "v": 110
    },
    {
      "midi": 64,
      "hit": false,
      "t": 255187.58399999683,
      "d": 222.8759999999893,
      "v": 110
    },
    {
      "midi": 69,
      "hit": false,
      "t": 255187.58399999683,
      "d": 222.8759999999893,
      "v": 84
    },
    {
      "midi": 57,
      "hit": false,
      "t": 255448.51199999682,
      "d": 222.8759999999893,
      "v": 115
    },
    {
      "midi": 62,
      "hit": false,
      "t": 255448.51199999682,
      "d": 222.8759999999893,
      "v": 115
    },
    {
      "midi": 64,
      "hit": false,
      "t": 255448.51199999682,
      "d": 222.8759999999893,
      "v": 106
    },
    {
      "midi": 69,
      "hit": false,
      "t": 255448.51199999682,
      "d": 222.8759999999893,
      "v": 84
    },
    {
      "midi": 57,
      "hit": false,
      "t": 255709.4399999968,
      "d": 222.8759999999893,
      "v": 106
    },
    {
      "midi": 61,
      "hit": false,
      "t": 255709.4399999968,
      "d": 222.8759999999893,
      "v": 121
    },
    {
      "midi": 64,
      "hit": false,
      "t": 255709.4399999968,
      "d": 222.8759999999893,
      "v": 106
    },
    {
      "midi": 69,
      "hit": false,
      "t": 255709.4399999968,
      "d": 222.8759999999893,
      "v": 89
    },
    {
      "midi": 57,
      "hit": false,
      "t": 255970.3679999968,
      "d": 222.8759999999893,
      "v": 97
    },
    {
      "midi": 61,
      "hit": false,
      "t": 255970.3679999968,
      "d": 222.8759999999893,
      "v": 121
    },
    {
      "midi": 64,
      "hit": false,
      "t": 255970.3679999968,
      "d": 222.8759999999893,
      "v": 106
    },
    {
      "midi": 69,
      "hit": false,
      "t": 255970.3679999968,
      "d": 222.8759999999893,
      "v": 84
    },
    {
      "midi": 57,
      "hit": false,
      "t": 256231.29599999677,
      "d": 222.8759999999893,
      "v": 101
    },
    {
      "midi": 61,
      "hit": false,
      "t": 256231.29599999677,
      "d": 222.8759999999893,
      "v": 121
    },
    {
      "midi": 64,
      "hit": false,
      "t": 256231.29599999677,
      "d": 222.8759999999893,
      "v": 110
    },
    {
      "midi": 69,
      "hit": false,
      "t": 256231.29599999677,
      "d": 222.8759999999893,
      "v": 89
    },
    {
      "midi": 57,
      "hit": false,
      "t": 256492.22399999676,
      "d": 222.8759999999893,
      "v": 97
    },
    {
      "midi": 61,
      "hit": false,
      "t": 256492.22399999676,
      "d": 222.8759999999893,
      "v": 110
    },
    {
      "midi": 64,
      "hit": false,
      "t": 256492.22399999676,
      "d": 222.8759999999893,
      "v": 106
    },
    {
      "midi": 69,
      "hit": false,
      "t": 256492.22399999676,
      "d": 222.8759999999893,
      "v": 84
    },
    {
      "midi": 57,
      "hit": false,
      "t": 256753.15199999674,
      "d": 222.8759999999893,
      "v": 101
    },
    {
      "midi": 61,
      "hit": false,
      "t": 256753.15199999674,
      "d": 222.8759999999893,
      "v": 123
    },
    {
      "midi": 64,
      "hit": false,
      "t": 256753.15199999674,
      "d": 222.8759999999893,
      "v": 110
    },
    {
      "midi": 69,
      "hit": false,
      "t": 256753.15199999674,
      "d": 222.8759999999893,
      "v": 93
    },
    {
      "midi": 57,
      "hit": false,
      "t": 257014.07999999673,
      "d": 222.8759999999893,
      "v": 101
    },
    {
      "midi": 61,
      "hit": false,
      "t": 257014.07999999673,
      "d": 222.8759999999893,
      "v": 121
    },
    {
      "midi": 64,
      "hit": false,
      "t": 257014.07999999673,
      "d": 222.8759999999893,
      "v": 115
    },
    {
      "midi": 69,
      "hit": false,
      "t": 257014.07999999673,
      "d": 222.8759999999893,
      "v": 84
    },
    {
      "midi": 57,
      "hit": false,
      "t": 257275.0079999967,
      "d": 222.8759999999893,
      "v": 106
    },
    {
      "midi": 61,
      "hit": false,
      "t": 257275.0079999967,
      "d": 222.8759999999893,
      "v": 115
    },
    {
      "midi": 64,
      "hit": false,
      "t": 257275.0079999967,
      "d": 222.8759999999893,
      "v": 110
    },
    {
      "midi": 69,
      "hit": false,
      "t": 257275.0079999967,
      "d": 222.8759999999893,
      "v": 84
    },
    {
      "midi": 57,
      "hit": false,
      "t": 257535.9359999967,
      "d": 222.8759999999893,
      "v": 106
    },
    {
      "midi": 61,
      "hit": false,
      "t": 257535.9359999967,
      "d": 222.8759999999893,
      "v": 115
    },
    {
      "midi": 64,
      "hit": false,
      "t": 257535.9359999967,
      "d": 222.8759999999893,
      "v": 115
    },
    {
      "midi": 69,
      "hit": false,
      "t": 257535.9359999967,
      "d": 222.8759999999893,
      "v": 89
    },
    {
      "midi": 57,
      "hit": false,
      "t": 257796.86399999668,
      "d": 222.8759999999893,
      "v": 110
    },
    {
      "midi": 61,
      "hit": false,
      "t": 257796.86399999668,
      "d": 222.8759999999893,
      "v": 123
    },
    {
      "midi": 64,
      "hit": false,
      "t": 257796.86399999668,
      "d": 222.8759999999893,
      "v": 115
    },
    {
      "midi": 69,
      "hit": false,
      "t": 257796.86399999668,
      "d": 222.8759999999893,
      "v": 89
    },
    {
      "midi": 57,
      "hit": false,
      "t": 258057.79199999667,
      "d": 222.8759999999893,
      "v": 110
    },
    {
      "midi": 61,
      "hit": false,
      "t": 258057.79199999667,
      "d": 222.8759999999893,
      "v": 115
    },
    {
      "midi": 64,
      "hit": false,
      "t": 258057.79199999667,
      "d": 222.8759999999893,
      "v": 106
    },
    {
      "midi": 69,
      "hit": false,
      "t": 258057.79199999667,
      "d": 222.8759999999893,
      "v": 84
    },
    {
      "midi": 57,
      "hit": false,
      "t": 258318.71999999665,
      "d": 222.8759999999893,
      "v": 106
    },
    {
      "midi": 61,
      "hit": false,
      "t": 258318.71999999665,
      "d": 222.8759999999893,
      "v": 121
    },
    {
      "midi": 64,
      "hit": false,
      "t": 258318.71999999665,
      "d": 222.8759999999893,
      "v": 110
    },
    {
      "midi": 69,
      "hit": false,
      "t": 258318.71999999665,
      "d": 222.8759999999893,
      "v": 84
    },
    {
      "midi": 57,
      "hit": false,
      "t": 258579.64799999664,
      "d": 222.8759999999893,
      "v": 101
    },
    {
      "midi": 61,
      "hit": false,
      "t": 258579.64799999664,
      "d": 222.8759999999893,
      "v": 121
    },
    {
      "midi": 64,
      "hit": false,
      "t": 258579.64799999664,
      "d": 222.8759999999893,
      "v": 115
    },
    {
      "midi": 69,
      "hit": false,
      "t": 258579.64799999664,
      "d": 222.8759999999893,
      "v": 80
    },
    {
      "midi": 59,
      "hit": false,
      "t": 258840.57599999662,
      "d": 222.8759999999893,
      "v": 115
    },
    {
      "midi": 62,
      "hit": false,
      "t": 258840.57599999662,
      "d": 222.8759999999893,
      "v": 106
    },
    {
      "midi": 66,
      "hit": false,
      "t": 258840.57599999662,
      "d": 222.8759999999893,
      "v": 94
    },
    {
      "midi": 69,
      "hit": false,
      "t": 258840.57599999662,
      "d": 222.8759999999893,
      "v": 76
    },
    {
      "midi": 59,
      "hit": false,
      "t": 259101.5039999966,
      "d": 222.8759999999893,
      "v": 115
    },
    {
      "midi": 62,
      "hit": false,
      "t": 259101.5039999966,
      "d": 222.8759999999893,
      "v": 110
    },
    {
      "midi": 66,
      "hit": false,
      "t": 259101.5039999966,
      "d": 222.8759999999893,
      "v": 99
    },
    {
      "midi": 69,
      "hit": false,
      "t": 259101.5039999966,
      "d": 222.8759999999893,
      "v": 80
    },
    {
      "midi": 59,
      "hit": false,
      "t": 259362.4319999966,
      "d": 222.8759999999893,
      "v": 121
    },
    {
      "midi": 62,
      "hit": false,
      "t": 259362.4319999966,
      "d": 222.8759999999893,
      "v": 106
    },
    {
      "midi": 66,
      "hit": false,
      "t": 259362.4319999966,
      "d": 222.8759999999893,
      "v": 108
    },
    {
      "midi": 69,
      "hit": false,
      "t": 259362.4319999966,
      "d": 222.8759999999893,
      "v": 84
    },
    {
      "midi": 59,
      "hit": false,
      "t": 259623.35999999658,
      "d": 222.8759999999893,
      "v": 115
    },
    {
      "midi": 62,
      "hit": false,
      "t": 259623.35999999658,
      "d": 222.8759999999893,
      "v": 101
    },
    {
      "midi": 66,
      "hit": false,
      "t": 259623.35999999658,
      "d": 222.8759999999893,
      "v": 99
    },
    {
      "midi": 69,
      "hit": false,
      "t": 259623.35999999658,
      "d": 222.8759999999893,
      "v": 84
    },
    {
      "midi": 57,
      "hit": false,
      "t": 259884.28799999657,
      "d": 222.8759999999893,
      "v": 106
    },
    {
      "midi": 61,
      "hit": false,
      "t": 259884.28799999657,
      "d": 222.8759999999893,
      "v": 115
    },
    {
      "midi": 64,
      "hit": false,
      "t": 259884.28799999657,
      "d": 222.8759999999893,
      "v": 110
    },
    {
      "midi": 69,
      "hit": false,
      "t": 259884.28799999657,
      "d": 222.8759999999893,
      "v": 84
    },
    {
      "midi": 57,
      "hit": false,
      "t": 260145.21599999655,
      "d": 222.8759999999893,
      "v": 101
    },
    {
      "midi": 61,
      "hit": false,
      "t": 260145.21599999655,
      "d": 222.8759999999893,
      "v": 123
    },
    {
      "midi": 64,
      "hit": false,
      "t": 260145.21599999655,
      "d": 222.8759999999893,
      "v": 115
    },
    {
      "midi": 69,
      "hit": false,
      "t": 260145.21599999655,
      "d": 222.8759999999893,
      "v": 80
    },
    {
      "midi": 57,
      "hit": false,
      "t": 260406.14399999654,
      "d": 222.8759999999893,
      "v": 101
    },
    {
      "midi": 61,
      "hit": false,
      "t": 260406.14399999654,
      "d": 222.8759999999893,
      "v": 121
    },
    {
      "midi": 64,
      "hit": false,
      "t": 260406.14399999654,
      "d": 222.8759999999893,
      "v": 115
    },
    {
      "midi": 69,
      "hit": false,
      "t": 260406.14399999654,
      "d": 222.8759999999893,
      "v": 84
    },
    {
      "midi": 57,
      "hit": false,
      "t": 260667.07199999652,
      "d": 222.8759999999893,
      "v": 110
    },
    {
      "midi": 61,
      "hit": false,
      "t": 260667.07199999652,
      "d": 222.8759999999893,
      "v": 123
    },
    {
      "midi": 64,
      "hit": false,
      "t": 260667.07199999652,
      "d": 222.8759999999893,
      "v": 110
    },
    {
      "midi": 69,
      "hit": false,
      "t": 260667.07199999652,
      "d": 222.8759999999893,
      "v": 84
    },
    {
      "midi": 57,
      "hit": false,
      "t": 260927.9999999965,
      "d": 222.8759999999893,
      "v": 101
    },
    {
      "midi": 62,
      "hit": false,
      "t": 260927.9999999965,
      "d": 222.8759999999893,
      "v": 110
    },
    {
      "midi": 66,
      "hit": false,
      "t": 260927.9999999965,
      "d": 222.8759999999893,
      "v": 99
    },
    {
      "midi": 69,
      "hit": false,
      "t": 260927.9999999965,
      "d": 222.8759999999893,
      "v": 84
    },
    {
      "midi": 57,
      "hit": false,
      "t": 261188.9279999965,
      "d": 222.8759999999893,
      "v": 106
    },
    {
      "midi": 62,
      "hit": false,
      "t": 261188.9279999965,
      "d": 222.8759999999893,
      "v": 110
    },
    {
      "midi": 66,
      "hit": false,
      "t": 261188.9279999965,
      "d": 222.8759999999893,
      "v": 90
    },
    {
      "midi": 69,
      "hit": false,
      "t": 261188.9279999965,
      "d": 222.8759999999893,
      "v": 80
    },
    {
      "midi": 57,
      "hit": false,
      "t": 261449.85599999648,
      "d": 222.8759999999893,
      "v": 97
    },
    {
      "midi": 62,
      "hit": false,
      "t": 261449.85599999648,
      "d": 222.8759999999893,
      "v": 110
    },
    {
      "midi": 66,
      "hit": false,
      "t": 261449.85599999648,
      "d": 222.8759999999893,
      "v": 103
    },
    {
      "midi": 69,
      "hit": false,
      "t": 261449.85599999648,
      "d": 222.8759999999893,
      "v": 89
    },
    {
      "midi": 57,
      "hit": false,
      "t": 261710.78399999646,
      "d": 222.8759999999893,
      "v": 101
    },
    {
      "midi": 62,
      "hit": false,
      "t": 261710.78399999646,
      "d": 222.8759999999893,
      "v": 110
    },
    {
      "midi": 66,
      "hit": false,
      "t": 261710.78399999646,
      "d": 222.8759999999893,
      "v": 99
    },
    {
      "midi": 69,
      "hit": false,
      "t": 261710.78399999646,
      "d": 222.8759999999893,
      "v": 80
    },
    {
      "midi": 57,
      "hit": false,
      "t": 261971.71199999645,
      "d": 222.8759999999893,
      "v": 101
    },
    {
      "midi": 62,
      "hit": false,
      "t": 261971.71199999645,
      "d": 222.8759999999893,
      "v": 110
    },
    {
      "midi": 66,
      "hit": false,
      "t": 261971.71199999645,
      "d": 222.8759999999893,
      "v": 103
    },
    {
      "midi": 69,
      "hit": false,
      "t": 261971.71199999645,
      "d": 222.8759999999893,
      "v": 93
    },
    {
      "midi": 57,
      "hit": false,
      "t": 262232.63999999646,
      "d": 222.8759999999893,
      "v": 101
    },
    {
      "midi": 62,
      "hit": false,
      "t": 262232.63999999646,
      "d": 222.8759999999893,
      "v": 115
    },
    {
      "midi": 66,
      "hit": false,
      "t": 262232.63999999646,
      "d": 222.8759999999893,
      "v": 99
    },
    {
      "midi": 69,
      "hit": false,
      "t": 262232.63999999646,
      "d": 222.8759999999893,
      "v": 84
    },
    {
      "midi": 57,
      "hit": false,
      "t": 262493.5679999965,
      "d": 222.8759999999893,
      "v": 101
    },
    {
      "midi": 62,
      "hit": false,
      "t": 262493.5679999965,
      "d": 222.8759999999893,
      "v": 121
    },
    {
      "midi": 66,
      "hit": false,
      "t": 262493.5679999965,
      "d": 222.8759999999893,
      "v": 99
    },
    {
      "midi": 69,
      "hit": false,
      "t": 262493.5679999965,
      "d": 222.8759999999893,
      "v": 84
    },
    {
      "midi": 57,
      "hit": false,
      "t": 262754.4959999965,
      "d": 222.8759999999893,
      "v": 106
    },
    {
      "midi": 62,
      "hit": false,
      "t": 262754.4959999965,
      "d": 222.8759999999893,
      "v": 121
    },
    {
      "midi": 66,
      "hit": false,
      "t": 262754.4959999965,
      "d": 222.8759999999893,
      "v": 103
    },
    {
      "midi": 69,
      "hit": false,
      "t": 262754.4959999965,
      "d": 222.8759999999893,
      "v": 93
    },
    {
      "midi": 57,
      "hit": false,
      "t": 263015.4239999965,
      "d": 222.8759999999893,
      "v": 101
    },
    {
      "midi": 62,
      "hit": false,
      "t": 263015.4239999965,
      "d": 222.8759999999893,
      "v": 121
    },
    {
      "midi": 64,
      "hit": false,
      "t": 263015.4239999965,
      "d": 222.8759999999893,
      "v": 110
    },
    {
      "midi": 69,
      "hit": false,
      "t": 263015.4239999965,
      "d": 222.8759999999893,
      "v": 80
    },
    {
      "midi": 57,
      "hit": false,
      "t": 263276.3519999965,
      "d": 222.8759999999893,
      "v": 106
    },
    {
      "midi": 62,
      "hit": false,
      "t": 263276.3519999965,
      "d": 222.8759999999893,
      "v": 121
    },
    {
      "midi": 64,
      "hit": false,
      "t": 263276.3519999965,
      "d": 222.8759999999893,
      "v": 106
    },
    {
      "midi": 69,
      "hit": false,
      "t": 263276.3519999965,
      "d": 222.8759999999893,
      "v": 84
    },
    {
      "midi": 57,
      "hit": false,
      "t": 263537.27999999654,
      "d": 222.8759999999893,
      "v": 110
    },
    {
      "midi": 62,
      "hit": false,
      "t": 263537.27999999654,
      "d": 222.8759999999893,
      "v": 121
    },
    {
      "midi": 64,
      "hit": false,
      "t": 263537.27999999654,
      "d": 222.8759999999893,
      "v": 110
    },
    {
      "midi": 69,
      "hit": false,
      "t": 263537.27999999654,
      "d": 222.8759999999893,
      "v": 80
    },
    {
      "midi": 57,
      "hit": false,
      "t": 263798.20799999655,
      "d": 222.8759999999893,
      "v": 106
    },
    {
      "midi": 62,
      "hit": false,
      "t": 263798.20799999655,
      "d": 222.8759999999893,
      "v": 115
    },
    {
      "midi": 64,
      "hit": false,
      "t": 263798.20799999655,
      "d": 222.8759999999893,
      "v": 101
    },
    {
      "midi": 69,
      "hit": false,
      "t": 263798.20799999655,
      "d": 222.8759999999893,
      "v": 71
    },
    {
      "midi": 57,
      "hit": false,
      "t": 264059.13599999656,
      "d": 222.8759999999893,
      "v": 97
    },
    {
      "midi": 61,
      "hit": false,
      "t": 264059.13599999656,
      "d": 222.8759999999893,
      "v": 121
    },
    {
      "midi": 64,
      "hit": false,
      "t": 264059.13599999656,
      "d": 222.8759999999893,
      "v": 106
    },
    {
      "midi": 69,
      "hit": false,
      "t": 264059.13599999656,
      "d": 222.8759999999893,
      "v": 80
    },
    {
      "midi": 57,
      "hit": false,
      "t": 264320.0639999966,
      "d": 222.8759999999893,
      "v": 93
    },
    {
      "midi": 61,
      "hit": false,
      "t": 264320.0639999966,
      "d": 222.8759999999893,
      "v": 123
    },
    {
      "midi": 64,
      "hit": false,
      "t": 264320.0639999966,
      "d": 222.8759999999893,
      "v": 110
    },
    {
      "midi": 69,
      "hit": false,
      "t": 264320.0639999966,
      "d": 222.8759999999893,
      "v": 84
    },
    {
      "midi": 57,
      "hit": false,
      "t": 264580.9919999966,
      "d": 222.8759999999893,
      "v": 101
    },
    {
      "midi": 61,
      "hit": false,
      "t": 264580.9919999966,
      "d": 222.8759999999893,
      "v": 121
    },
    {
      "midi": 64,
      "hit": false,
      "t": 264580.9919999966,
      "d": 222.8759999999893,
      "v": 115
    },
    {
      "midi": 69,
      "hit": false,
      "t": 264580.9919999966,
      "d": 222.8759999999893,
      "v": 84
    },
    {
      "midi": 57,
      "hit": false,
      "t": 264841.9199999966,
      "d": 222.8759999999893,
      "v": 97
    },
    {
      "midi": 61,
      "hit": false,
      "t": 264841.9199999966,
      "d": 222.8759999999893,
      "v": 121
    },
    {
      "midi": 64,
      "hit": false,
      "t": 264841.9199999966,
      "d": 222.8759999999893,
      "v": 115
    },
    {
      "midi": 69,
      "hit": false,
      "t": 264841.9199999966,
      "d": 222.8759999999893,
      "v": 93
    },
    {
      "midi": 57,
      "hit": false,
      "t": 265102.8479999966,
      "d": 222.8759999999893,
      "v": 106
    },
    {
      "midi": 61,
      "hit": false,
      "t": 265102.8479999966,
      "d": 222.8759999999893,
      "v": 115
    },
    {
      "midi": 64,
      "hit": false,
      "t": 265102.8479999966,
      "d": 222.8759999999893,
      "v": 115
    },
    {
      "midi": 69,
      "hit": false,
      "t": 265102.8479999966,
      "d": 222.8759999999893,
      "v": 89
    },
    {
      "midi": 57,
      "hit": false,
      "t": 265363.77599999664,
      "d": 222.8759999999893,
      "v": 106
    },
    {
      "midi": 61,
      "hit": false,
      "t": 265363.77599999664,
      "d": 222.8759999999893,
      "v": 121
    },
    {
      "midi": 64,
      "hit": false,
      "t": 265363.77599999664,
      "d": 222.8759999999893,
      "v": 115
    },
    {
      "midi": 69,
      "hit": false,
      "t": 265363.77599999664,
      "d": 222.8759999999893,
      "v": 84
    },
    {
      "midi": 57,
      "hit": false,
      "t": 265624.70399999665,
      "d": 222.8759999999893,
      "v": 106
    },
    {
      "midi": 61,
      "hit": false,
      "t": 265624.70399999665,
      "d": 222.8759999999893,
      "v": 121
    },
    {
      "midi": 64,
      "hit": false,
      "t": 265624.70399999665,
      "d": 222.8759999999893,
      "v": 110
    },
    {
      "midi": 69,
      "hit": false,
      "t": 265624.70399999665,
      "d": 222.8759999999893,
      "v": 84
    },
    {
      "midi": 57,
      "hit": false,
      "t": 265885.63199999667,
      "d": 222.8759999999893,
      "v": 106
    },
    {
      "midi": 61,
      "hit": false,
      "t": 265885.63199999667,
      "d": 222.8759999999893,
      "v": 121
    },
    {
      "midi": 64,
      "hit": false,
      "t": 265885.63199999667,
      "d": 222.8759999999893,
      "v": 115
    },
    {
      "midi": 69,
      "hit": false,
      "t": 265885.63199999667,
      "d": 222.8759999999893,
      "v": 89
    },
    {
      "midi": 57,
      "hit": false,
      "t": 266146.5599999967,
      "d": 222.8759999999893,
      "v": 101
    },
    {
      "midi": 61,
      "hit": false,
      "t": 266146.5599999967,
      "d": 222.8759999999893,
      "v": 115
    },
    {
      "midi": 64,
      "hit": false,
      "t": 266146.5599999967,
      "d": 222.8759999999893,
      "v": 115
    },
    {
      "midi": 69,
      "hit": false,
      "t": 266146.5599999967,
      "d": 222.8759999999893,
      "v": 84
    },
    {
      "midi": 57,
      "hit": false,
      "t": 266407.4879999967,
      "d": 222.8759999999893,
      "v": 101
    },
    {
      "midi": 61,
      "hit": false,
      "t": 266407.4879999967,
      "d": 222.8759999999893,
      "v": 121
    },
    {
      "midi": 64,
      "hit": false,
      "t": 266407.4879999967,
      "d": 222.8759999999893,
      "v": 110
    },
    {
      "midi": 69,
      "hit": false,
      "t": 266407.4879999967,
      "d": 222.8759999999893,
      "v": 84
    },
    {
      "midi": 57,
      "hit": false,
      "t": 266668.4159999967,
      "d": 222.8759999999893,
      "v": 101
    },
    {
      "midi": 61,
      "hit": false,
      "t": 266668.4159999967,
      "d": 222.8759999999893,
      "v": 115
    },
    {
      "midi": 64,
      "hit": false,
      "t": 266668.4159999967,
      "d": 222.8759999999893,
      "v": 115
    },
    {
      "midi": 69,
      "hit": false,
      "t": 266668.4159999967,
      "d": 222.8759999999893,
      "v": 93
    },
    {
      "midi": 57,
      "hit": false,
      "t": 266929.3439999967,
      "d": 222.8759999999893,
      "v": 110
    },
    {
      "midi": 61,
      "hit": false,
      "t": 266929.3439999967,
      "d": 222.8759999999893,
      "v": 121
    },
    {
      "midi": 64,
      "hit": false,
      "t": 266929.3439999967,
      "d": 222.8759999999893,
      "v": 115
    },
    {
      "midi": 69,
      "hit": false,
      "t": 266929.3439999967,
      "d": 222.8759999999893,
      "v": 89
    },
    {
      "midi": 59,
      "hit": false,
      "t": 267190.27199999674,
      "d": 222.8759999999893,
      "v": 110
    },
    {
      "midi": 62,
      "hit": false,
      "t": 267190.27199999674,
      "d": 222.8759999999893,
      "v": 115
    },
    {
      "midi": 66,
      "hit": false,
      "t": 267190.27199999674,
      "d": 222.8759999999893,
      "v": 99
    },
    {
      "midi": 69,
      "hit": false,
      "t": 267190.27199999674,
      "d": 222.8759999999893,
      "v": 84
    },
    {
      "midi": 59,
      "hit": false,
      "t": 267451.19999999675,
      "d": 222.8759999999893,
      "v": 101
    },
    {
      "midi": 62,
      "hit": false,
      "t": 267451.19999999675,
      "d": 222.8759999999893,
      "v": 101
    },
    {
      "midi": 66,
      "hit": false,
      "t": 267451.19999999675,
      "d": 222.8759999999893,
      "v": 99
    },
    {
      "midi": 69,
      "hit": false,
      "t": 267451.19999999675,
      "d": 222.8759999999893,
      "v": 98
    },
    {
      "midi": 59,
      "hit": false,
      "t": 267712.12799999677,
      "d": 222.8759999999893,
      "v": 115
    },
    {
      "midi": 62,
      "hit": false,
      "t": 267712.12799999677,
      "d": 222.8759999999893,
      "v": 115
    },
    {
      "midi": 66,
      "hit": false,
      "t": 267712.12799999677,
      "d": 222.8759999999893,
      "v": 108
    },
    {
      "midi": 69,
      "hit": false,
      "t": 267712.12799999677,
      "d": 222.8759999999893,
      "v": 89
    },
    {
      "midi": 59,
      "hit": false,
      "t": 267973.0559999968,
      "d": 222.8759999999893,
      "v": 115
    },
    {
      "midi": 62,
      "hit": false,
      "t": 267973.0559999968,
      "d": 222.8759999999893,
      "v": 106
    },
    {
      "midi": 66,
      "hit": false,
      "t": 267973.0559999968,
      "d": 222.8759999999893,
      "v": 108
    },
    {
      "midi": 69,
      "hit": false,
      "t": 267973.0559999968,
      "d": 222.8759999999893,
      "v": 84
    },
    {
      "midi": 57,
      "hit": false,
      "t": 268233.9839999968,
      "d": 222.8759999999893,
      "v": 97
    },
    {
      "midi": 61,
      "hit": false,
      "t": 268233.9839999968,
      "d": 222.8759999999893,
      "v": 121
    },
    {
      "midi": 64,
      "hit": false,
      "t": 268233.9839999968,
      "d": 222.8759999999893,
      "v": 110
    },
    {
      "midi": 69,
      "hit": false,
      "t": 268233.9839999968,
      "d": 222.8759999999893,
      "v": 80
    },
    {
      "midi": 57,
      "hit": false,
      "t": 268494.9119999968,
      "d": 222.8759999999893,
      "v": 101
    },
    {
      "midi": 61,
      "hit": false,
      "t": 268494.9119999968,
      "d": 222.8759999999893,
      "v": 121
    },
    {
      "midi": 64,
      "hit": false,
      "t": 268494.9119999968,
      "d": 222.8759999999893,
      "v": 115
    },
    {
      "midi": 69,
      "hit": false,
      "t": 268494.9119999968,
      "d": 222.8759999999893,
      "v": 80
    },
    {
      "midi": 57,
      "hit": false,
      "t": 268755.8399999968,
      "d": 222.8759999999893,
      "v": 101
    },
    {
      "midi": 61,
      "hit": false,
      "t": 268755.8399999968,
      "d": 222.8759999999893,
      "v": 121
    },
    {
      "midi": 64,
      "hit": false,
      "t": 268755.8399999968,
      "d": 222.8759999999893,
      "v": 110
    },
    {
      "midi": 69,
      "hit": false,
      "t": 268755.8399999968,
      "d": 222.8759999999893,
      "v": 89
    },
    {
      "midi": 57,
      "hit": false,
      "t": 269016.76799999684,
      "d": 222.8759999999893,
      "v": 101
    },
    {
      "midi": 61,
      "hit": false,
      "t": 269016.76799999684,
      "d": 222.8759999999893,
      "v": 121
    },
    {
      "midi": 64,
      "hit": false,
      "t": 269016.76799999684,
      "d": 222.8759999999893,
      "v": 115
    },
    {
      "midi": 69,
      "hit": false,
      "t": 269016.76799999684,
      "d": 222.8759999999893,
      "v": 80
    },
    {
      "midi": 57,
      "hit": false,
      "t": 269277.69599999685,
      "d": 222.8759999999893,
      "v": 106
    },
    {
      "midi": 62,
      "hit": false,
      "t": 269277.69599999685,
      "d": 222.8759999999893,
      "v": 101
    },
    {
      "midi": 66,
      "hit": false,
      "t": 269277.69599999685,
      "d": 222.8759999999893,
      "v": 108
    },
    {
      "midi": 69,
      "hit": false,
      "t": 269277.69599999685,
      "d": 222.8759999999893,
      "v": 93
    },
    {
      "midi": 57,
      "hit": false,
      "t": 269538.62399999687,
      "d": 222.8759999999893,
      "v": 106
    },
    {
      "midi": 62,
      "hit": false,
      "t": 269538.62399999687,
      "d": 222.8759999999893,
      "v": 97
    },
    {
      "midi": 66,
      "hit": false,
      "t": 269538.62399999687,
      "d": 222.8759999999893,
      "v": 90
    },
    {
      "midi": 69,
      "hit": false,
      "t": 269538.62399999687,
      "d": 222.8759999999893,
      "v": 80
    },
    {
      "midi": 57,
      "hit": false,
      "t": 269799.5519999969,
      "d": 222.8759999999893,
      "v": 106
    },
    {
      "midi": 62,
      "hit": false,
      "t": 269799.5519999969,
      "d": 222.8759999999893,
      "v": 101
    },
    {
      "midi": 66,
      "hit": false,
      "t": 269799.5519999969,
      "d": 222.8759999999893,
      "v": 94
    },
    {
      "midi": 69,
      "hit": false,
      "t": 269799.5519999969,
      "d": 222.8759999999893,
      "v": 80
    },
    {
      "midi": 57,
      "hit": false,
      "t": 270060.4799999969,
      "d": 222.8759999999893,
      "v": 110
    },
    {
      "midi": 62,
      "hit": false,
      "t": 270060.4799999969,
      "d": 222.8759999999893,
      "v": 97
    },
    {
      "midi": 66,
      "hit": false,
      "t": 270060.4799999969,
      "d": 222.8759999999893,
      "v": 94
    },
    {
      "midi": 69,
      "hit": false,
      "t": 270060.4799999969,
      "d": 222.8759999999893,
      "v": 84
    },
    {
      "midi": 57,
      "hit": false,
      "t": 270321.4079999969,
      "d": 222.8759999999893,
      "v": 115
    },
    {
      "midi": 62,
      "hit": false,
      "t": 270321.4079999969,
      "d": 222.8759999999893,
      "v": 101
    },
    {
      "midi": 66,
      "hit": false,
      "t": 270321.4079999969,
      "d": 222.8759999999893,
      "v": 99
    },
    {
      "midi": 69,
      "hit": false,
      "t": 270321.4079999969,
      "d": 222.8759999999893,
      "v": 80
    },
    {
      "midi": 57,
      "hit": false,
      "t": 270582.3359999969,
      "d": 222.8759999999893,
      "v": 110
    },
    {
      "midi": 62,
      "hit": false,
      "t": 270582.3359999969,
      "d": 222.8759999999893,
      "v": 101
    },
    {
      "midi": 66,
      "hit": false,
      "t": 270582.3359999969,
      "d": 222.8759999999893,
      "v": 99
    },
    {
      "midi": 69,
      "hit": false,
      "t": 270582.3359999969,
      "d": 222.8759999999893,
      "v": 80
    },
    {
      "midi": 57,
      "hit": false,
      "t": 270843.26399999694,
      "d": 222.8759999999893,
      "v": 115
    },
    {
      "midi": 62,
      "hit": false,
      "t": 270843.26399999694,
      "d": 222.8759999999893,
      "v": 106
    },
    {
      "midi": 66,
      "hit": false,
      "t": 270843.26399999694,
      "d": 222.8759999999893,
      "v": 99
    },
    {
      "midi": 69,
      "hit": false,
      "t": 270843.26399999694,
      "d": 222.8759999999893,
      "v": 84
    },
    {
      "midi": 57,
      "hit": false,
      "t": 271104.19199999695,
      "d": 222.8759999999893,
      "v": 115
    },
    {
      "midi": 62,
      "hit": false,
      "t": 271104.19199999695,
      "d": 222.8759999999893,
      "v": 110
    },
    {
      "midi": 66,
      "hit": false,
      "t": 271104.19199999695,
      "d": 222.8759999999893,
      "v": 99
    },
    {
      "midi": 69,
      "hit": false,
      "t": 271104.19199999695,
      "d": 222.8759999999893,
      "v": 84
    },
    {
      "midi": 57,
      "hit": false,
      "t": 271365.11999999697,
      "d": 222.8759999999893,
      "v": 115
    },
    {
      "midi": 62,
      "hit": false,
      "t": 271365.11999999697,
      "d": 222.8759999999893,
      "v": 110
    },
    {
      "midi": 64,
      "hit": false,
      "t": 271365.11999999697,
      "d": 222.8759999999893,
      "v": 106
    },
    {
      "midi": 69,
      "hit": false,
      "t": 271365.11999999697,
      "d": 222.8759999999893,
      "v": 84
    },
    {
      "midi": 57,
      "hit": false,
      "t": 271626.047999997,
      "d": 222.8759999999893,
      "v": 110
    },
    {
      "midi": 62,
      "hit": false,
      "t": 271626.047999997,
      "d": 222.8759999999893,
      "v": 110
    },
    {
      "midi": 64,
      "hit": false,
      "t": 271626.047999997,
      "d": 222.8759999999893,
      "v": 106
    },
    {
      "midi": 69,
      "hit": false,
      "t": 271626.047999997,
      "d": 222.8759999999893,
      "v": 84
    },
    {
      "midi": 57,
      "hit": false,
      "t": 271886.975999997,
      "d": 222.8759999999893,
      "v": 115
    },
    {
      "midi": 62,
      "hit": false,
      "t": 271886.975999997,
      "d": 222.8759999999893,
      "v": 110
    },
    {
      "midi": 64,
      "hit": false,
      "t": 271886.975999997,
      "d": 222.8759999999893,
      "v": 110
    },
    {
      "midi": 69,
      "hit": false,
      "t": 271886.975999997,
      "d": 222.8759999999893,
      "v": 84
    },
    {
      "midi": 57,
      "hit": false,
      "t": 272147.903999997,
      "d": 222.8759999999893,
      "v": 115
    },
    {
      "midi": 62,
      "hit": false,
      "t": 272147.903999997,
      "d": 222.8759999999893,
      "v": 115
    },
    {
      "midi": 64,
      "hit": false,
      "t": 272147.903999997,
      "d": 222.8759999999893,
      "v": 106
    },
    {
      "midi": 69,
      "hit": false,
      "t": 272147.903999997,
      "d": 222.8759999999893,
      "v": 84
    },
    {
      "midi": 57,
      "hit": false,
      "t": 272408.831999997,
      "d": 222.8759999999893,
      "v": 106
    },
    {
      "midi": 61,
      "hit": false,
      "t": 272408.831999997,
      "d": 222.8759999999893,
      "v": 121
    },
    {
      "midi": 64,
      "hit": false,
      "t": 272408.831999997,
      "d": 222.8759999999893,
      "v": 106
    },
    {
      "midi": 69,
      "hit": false,
      "t": 272408.831999997,
      "d": 222.8759999999893,
      "v": 89
    },
    {
      "midi": 57,
      "hit": false,
      "t": 272669.75999999704,
      "d": 222.8759999999893,
      "v": 97
    },
    {
      "midi": 61,
      "hit": false,
      "t": 272669.75999999704,
      "d": 222.8759999999893,
      "v": 121
    },
    {
      "midi": 64,
      "hit": false,
      "t": 272669.75999999704,
      "d": 222.8759999999893,
      "v": 106
    },
    {
      "midi": 69,
      "hit": false,
      "t": 272669.75999999704,
      "d": 222.8759999999893,
      "v": 84
    },
    {
      "midi": 57,
      "hit": false,
      "t": 272930.68799999706,
      "d": 222.8759999999893,
      "v": 101
    },
    {
      "midi": 61,
      "hit": false,
      "t": 272930.68799999706,
      "d": 222.8759999999893,
      "v": 121
    },
    {
      "midi": 64,
      "hit": false,
      "t": 272930.68799999706,
      "d": 222.8759999999893,
      "v": 110
    },
    {
      "midi": 69,
      "hit": false,
      "t": 272930.68799999706,
      "d": 222.8759999999893,
      "v": 89
    },
    {
      "midi": 57,
      "hit": false,
      "t": 273191.61599999707,
      "d": 222.8759999999893,
      "v": 97
    },
    {
      "midi": 61,
      "hit": false,
      "t": 273191.61599999707,
      "d": 222.8759999999893,
      "v": 110
    },
    {
      "midi": 64,
      "hit": false,
      "t": 273191.61599999707,
      "d": 222.8759999999893,
      "v": 106
    },
    {
      "midi": 69,
      "hit": false,
      "t": 273191.61599999707,
      "d": 222.8759999999893,
      "v": 84
    },
    {
      "midi": 57,
      "hit": false,
      "t": 273452.5439999971,
      "d": 222.8759999999893,
      "v": 101
    },
    {
      "midi": 61,
      "hit": false,
      "t": 273452.5439999971,
      "d": 222.8759999999893,
      "v": 123
    },
    {
      "midi": 64,
      "hit": false,
      "t": 273452.5439999971,
      "d": 222.8759999999893,
      "v": 110
    },
    {
      "midi": 69,
      "hit": false,
      "t": 273452.5439999971,
      "d": 222.8759999999893,
      "v": 93
    },
    {
      "midi": 57,
      "hit": false,
      "t": 273713.4719999971,
      "d": 222.8759999999893,
      "v": 101
    },
    {
      "midi": 61,
      "hit": false,
      "t": 273713.4719999971,
      "d": 222.8759999999893,
      "v": 121
    },
    {
      "midi": 64,
      "hit": false,
      "t": 273713.4719999971,
      "d": 222.8759999999893,
      "v": 115
    },
    {
      "midi": 69,
      "hit": false,
      "t": 273713.4719999971,
      "d": 222.8759999999893,
      "v": 84
    },
    {
      "midi": 57,
      "hit": false,
      "t": 273974.3999999971,
      "d": 222.8759999999893,
      "v": 106
    },
    {
      "midi": 61,
      "hit": false,
      "t": 273974.3999999971,
      "d": 222.8759999999893,
      "v": 115
    },
    {
      "midi": 64,
      "hit": false,
      "t": 273974.3999999971,
      "d": 222.8759999999893,
      "v": 110
    },
    {
      "midi": 69,
      "hit": false,
      "t": 273974.3999999971,
      "d": 222.8759999999893,
      "v": 84
    },
    {
      "midi": 57,
      "hit": false,
      "t": 274235.3279999971,
      "d": 222.8759999999893,
      "v": 106
    },
    {
      "midi": 61,
      "hit": false,
      "t": 274235.3279999971,
      "d": 222.8759999999893,
      "v": 115
    },
    {
      "midi": 64,
      "hit": false,
      "t": 274235.3279999971,
      "d": 222.8759999999893,
      "v": 115
    },
    {
      "midi": 69,
      "hit": false,
      "t": 274235.3279999971,
      "d": 222.8759999999893,
      "v": 89
    },
    {
      "midi": 57,
      "hit": false,
      "t": 274496.25599999714,
      "d": 222.8759999999893,
      "v": 110
    },
    {
      "midi": 61,
      "hit": false,
      "t": 274496.25599999714,
      "d": 222.8759999999893,
      "v": 123
    },
    {
      "midi": 64,
      "hit": false,
      "t": 274496.25599999714,
      "d": 222.8759999999893,
      "v": 115
    },
    {
      "midi": 69,
      "hit": false,
      "t": 274496.25599999714,
      "d": 222.8759999999893,
      "v": 89
    },
    {
      "midi": 57,
      "hit": false,
      "t": 274757.18399999716,
      "d": 222.8759999999893,
      "v": 110
    },
    {
      "midi": 61,
      "hit": false,
      "t": 274757.18399999716,
      "d": 222.8759999999893,
      "v": 115
    },
    {
      "midi": 64,
      "hit": false,
      "t": 274757.18399999716,
      "d": 222.8759999999893,
      "v": 106
    },
    {
      "midi": 69,
      "hit": false,
      "t": 274757.18399999716,
      "d": 222.8759999999893,
      "v": 84
    },
    {
      "midi": 57,
      "hit": false,
      "t": 275018.11199999717,
      "d": 222.8759999999893,
      "v": 106
    },
    {
      "midi": 61,
      "hit": false,
      "t": 275018.11199999717,
      "d": 222.8759999999893,
      "v": 121
    },
    {
      "midi": 64,
      "hit": false,
      "t": 275018.11199999717,
      "d": 222.8759999999893,
      "v": 110
    },
    {
      "midi": 69,
      "hit": false,
      "t": 275018.11199999717,
      "d": 222.8759999999893,
      "v": 84
    },
    {
      "midi": 57,
      "hit": false,
      "t": 275279.0399999972,
      "d": 222.8759999999893,
      "v": 101
    },
    {
      "midi": 61,
      "hit": false,
      "t": 275279.0399999972,
      "d": 222.8759999999893,
      "v": 121
    },
    {
      "midi": 64,
      "hit": false,
      "t": 275279.0399999972,
      "d": 222.8759999999893,
      "v": 115
    },
    {
      "midi": 69,
      "hit": false,
      "t": 275279.0399999972,
      "d": 222.8759999999893,
      "v": 80
    },
    {
      "midi": 59,
      "hit": false,
      "t": 275539.9679999972,
      "d": 222.8759999999893,
      "v": 115
    },
    {
      "midi": 62,
      "hit": false,
      "t": 275539.9679999972,
      "d": 222.8759999999893,
      "v": 106
    },
    {
      "midi": 66,
      "hit": false,
      "t": 275539.9679999972,
      "d": 222.8759999999893,
      "v": 94
    },
    {
      "midi": 69,
      "hit": false,
      "t": 275539.9679999972,
      "d": 222.8759999999893,
      "v": 76
    },
    {
      "midi": 59,
      "hit": false,
      "t": 275800.8959999972,
      "d": 222.8759999999893,
      "v": 115
    },
    {
      "midi": 62,
      "hit": false,
      "t": 275800.8959999972,
      "d": 222.8759999999893,
      "v": 110
    },
    {
      "midi": 66,
      "hit": false,
      "t": 275800.8959999972,
      "d": 222.8759999999893,
      "v": 99
    },
    {
      "midi": 69,
      "hit": false,
      "t": 275800.8959999972,
      "d": 222.8759999999893,
      "v": 80
    },
    {
      "midi": 59,
      "hit": false,
      "t": 276061.8239999972,
      "d": 222.8759999999893,
      "v": 121
    },
    {
      "midi": 62,
      "hit": false,
      "t": 276061.8239999972,
      "d": 222.8759999999893,
      "v": 106
    },
    {
      "midi": 66,
      "hit": false,
      "t": 276061.8239999972,
      "d": 222.8759999999893,
      "v": 108
    },
    {
      "midi": 69,
      "hit": false,
      "t": 276061.8239999972,
      "d": 222.8759999999893,
      "v": 84
    },
    {
      "midi": 59,
      "hit": false,
      "t": 276322.75199999724,
      "d": 222.8759999999893,
      "v": 115
    },
    {
      "midi": 62,
      "hit": false,
      "t": 276322.75199999724,
      "d": 222.8759999999893,
      "v": 101
    },
    {
      "midi": 66,
      "hit": false,
      "t": 276322.75199999724,
      "d": 222.8759999999893,
      "v": 99
    },
    {
      "midi": 69,
      "hit": false,
      "t": 276322.75199999724,
      "d": 222.8759999999893,
      "v": 84
    },
    {
      "midi": 57,
      "hit": false,
      "t": 276583.67999999726,
      "d": 222.8759999999893,
      "v": 106
    },
    {
      "midi": 61,
      "hit": false,
      "t": 276583.67999999726,
      "d": 222.8759999999893,
      "v": 115
    },
    {
      "midi": 64,
      "hit": false,
      "t": 276583.67999999726,
      "d": 222.8759999999893,
      "v": 110
    },
    {
      "midi": 69,
      "hit": false,
      "t": 276583.67999999726,
      "d": 222.8759999999893,
      "v": 84
    },
    {
      "midi": 57,
      "hit": false,
      "t": 276844.6079999973,
      "d": 222.8759999999893,
      "v": 101
    },
    {
      "midi": 61,
      "hit": false,
      "t": 276844.6079999973,
      "d": 222.8759999999893,
      "v": 123
    },
    {
      "midi": 64,
      "hit": false,
      "t": 276844.6079999973,
      "d": 222.8759999999893,
      "v": 115
    },
    {
      "midi": 69,
      "hit": false,
      "t": 276844.6079999973,
      "d": 222.8759999999893,
      "v": 80
    },
    {
      "midi": 57,
      "hit": false,
      "t": 277105.5359999973,
      "d": 222.8759999999893,
      "v": 101
    },
    {
      "midi": 61,
      "hit": false,
      "t": 277105.5359999973,
      "d": 222.8759999999893,
      "v": 121
    },
    {
      "midi": 64,
      "hit": false,
      "t": 277105.5359999973,
      "d": 222.8759999999893,
      "v": 115
    },
    {
      "midi": 69,
      "hit": false,
      "t": 277105.5359999973,
      "d": 222.8759999999893,
      "v": 84
    },
    {
      "midi": 57,
      "hit": false,
      "t": 277366.4639999973,
      "d": 222.8759999999893,
      "v": 110
    },
    {
      "midi": 61,
      "hit": false,
      "t": 277366.4639999973,
      "d": 222.8759999999893,
      "v": 123
    },
    {
      "midi": 64,
      "hit": false,
      "t": 277366.4639999973,
      "d": 222.8759999999893,
      "v": 110
    },
    {
      "midi": 69,
      "hit": false,
      "t": 277366.4639999973,
      "d": 222.8759999999893,
      "v": 84
    },
    {
      "midi": 57,
      "hit": false,
      "t": 277627.3919999973,
      "d": 222.8759999999893,
      "v": 101
    },
    {
      "midi": 62,
      "hit": false,
      "t": 277627.3919999973,
      "d": 222.8759999999893,
      "v": 110
    },
    {
      "midi": 66,
      "hit": false,
      "t": 277627.3919999973,
      "d": 222.8759999999893,
      "v": 99
    },
    {
      "midi": 69,
      "hit": false,
      "t": 277627.3919999973,
      "d": 222.8759999999893,
      "v": 84
    },
    {
      "midi": 57,
      "hit": false,
      "t": 277888.31999999733,
      "d": 222.8759999999893,
      "v": 106
    },
    {
      "midi": 62,
      "hit": false,
      "t": 277888.31999999733,
      "d": 222.8759999999893,
      "v": 110
    },
    {
      "midi": 66,
      "hit": false,
      "t": 277888.31999999733,
      "d": 222.8759999999893,
      "v": 90
    },
    {
      "midi": 69,
      "hit": false,
      "t": 277888.31999999733,
      "d": 222.8759999999893,
      "v": 80
    },
    {
      "midi": 57,
      "hit": false,
      "t": 278149.24799999734,
      "d": 222.8759999999893,
      "v": 97
    },
    {
      "midi": 62,
      "hit": false,
      "t": 278149.24799999734,
      "d": 222.8759999999893,
      "v": 110
    },
    {
      "midi": 66,
      "hit": false,
      "t": 278149.24799999734,
      "d": 222.8759999999893,
      "v": 103
    },
    {
      "midi": 69,
      "hit": false,
      "t": 278149.24799999734,
      "d": 222.8759999999893,
      "v": 89
    },
    {
      "midi": 57,
      "hit": false,
      "t": 278410.17599999736,
      "d": 222.8759999999893,
      "v": 101
    },
    {
      "midi": 62,
      "hit": false,
      "t": 278410.17599999736,
      "d": 222.8759999999893,
      "v": 110
    },
    {
      "midi": 66,
      "hit": false,
      "t": 278410.17599999736,
      "d": 222.8759999999893,
      "v": 99
    },
    {
      "midi": 69,
      "hit": false,
      "t": 278410.17599999736,
      "d": 222.8759999999893,
      "v": 80
    },
    {
      "midi": 57,
      "hit": false,
      "t": 278671.1039999974,
      "d": 222.8759999999893,
      "v": 101
    },
    {
      "midi": 62,
      "hit": false,
      "t": 278671.1039999974,
      "d": 222.8759999999893,
      "v": 110
    },
    {
      "midi": 66,
      "hit": false,
      "t": 278671.1039999974,
      "d": 222.8759999999893,
      "v": 103
    },
    {
      "midi": 69,
      "hit": false,
      "t": 278671.1039999974,
      "d": 222.8759999999893,
      "v": 93
    },
    {
      "midi": 57,
      "hit": false,
      "t": 278932.0319999974,
      "d": 222.8759999999893,
      "v": 101
    },
    {
      "midi": 62,
      "hit": false,
      "t": 278932.0319999974,
      "d": 222.8759999999893,
      "v": 115
    },
    {
      "midi": 66,
      "hit": false,
      "t": 278932.0319999974,
      "d": 222.8759999999893,
      "v": 99
    },
    {
      "midi": 69,
      "hit": false,
      "t": 278932.0319999974,
      "d": 222.8759999999893,
      "v": 84
    },
    {
      "midi": 57,
      "hit": false,
      "t": 279192.9599999974,
      "d": 222.8759999999893,
      "v": 101
    },
    {
      "midi": 62,
      "hit": false,
      "t": 279192.9599999974,
      "d": 222.8759999999893,
      "v": 121
    },
    {
      "midi": 66,
      "hit": false,
      "t": 279192.9599999974,
      "d": 222.8759999999893,
      "v": 99
    },
    {
      "midi": 69,
      "hit": false,
      "t": 279192.9599999974,
      "d": 222.8759999999893,
      "v": 84
    },
    {
      "midi": 57,
      "hit": false,
      "t": 279453.8879999974,
      "d": 222.8759999999893,
      "v": 106
    },
    {
      "midi": 62,
      "hit": false,
      "t": 279453.8879999974,
      "d": 222.8759999999893,
      "v": 121
    },
    {
      "midi": 66,
      "hit": false,
      "t": 279453.8879999974,
      "d": 222.8759999999893,
      "v": 103
    },
    {
      "midi": 69,
      "hit": false,
      "t": 279453.8879999974,
      "d": 222.8759999999893,
      "v": 93
    },
    {
      "midi": 57,
      "hit": false,
      "t": 279714.81599999743,
      "d": 222.8759999999893,
      "v": 101
    },
    {
      "midi": 62,
      "hit": false,
      "t": 279714.81599999743,
      "d": 222.8759999999893,
      "v": 121
    },
    {
      "midi": 64,
      "hit": false,
      "t": 279714.81599999743,
      "d": 222.8759999999893,
      "v": 110
    },
    {
      "midi": 69,
      "hit": false,
      "t": 279714.81599999743,
      "d": 222.8759999999893,
      "v": 80
    },
    {
      "midi": 57,
      "hit": false,
      "t": 279975.74399999744,
      "d": 222.8759999999893,
      "v": 106
    },
    {
      "midi": 62,
      "hit": false,
      "t": 279975.74399999744,
      "d": 222.8759999999893,
      "v": 121
    },
    {
      "midi": 64,
      "hit": false,
      "t": 279975.74399999744,
      "d": 222.8759999999893,
      "v": 106
    },
    {
      "midi": 69,
      "hit": false,
      "t": 279975.74399999744,
      "d": 222.8759999999893,
      "v": 84
    },
    {
      "midi": 57,
      "hit": false,
      "t": 280236.67199999746,
      "d": 222.8759999999893,
      "v": 110
    },
    {
      "midi": 62,
      "hit": false,
      "t": 280236.67199999746,
      "d": 222.8759999999893,
      "v": 121
    },
    {
      "midi": 64,
      "hit": false,
      "t": 280236.67199999746,
      "d": 222.8759999999893,
      "v": 110
    },
    {
      "midi": 69,
      "hit": false,
      "t": 280236.67199999746,
      "d": 222.8759999999893,
      "v": 80
    },
    {
      "midi": 57,
      "hit": false,
      "t": 280497.5999999975,
      "d": 222.8759999999893,
      "v": 106
    },
    {
      "midi": 62,
      "hit": false,
      "t": 280497.5999999975,
      "d": 222.8759999999893,
      "v": 115
    },
    {
      "midi": 64,
      "hit": false,
      "t": 280497.5999999975,
      "d": 222.8759999999893,
      "v": 101
    },
    {
      "midi": 69,
      "hit": false,
      "t": 280497.5999999975,
      "d": 222.8759999999893,
      "v": 71
    },
    {
      "midi": 57,
      "hit": false,
      "t": 280758.5279999975,
      "d": 222.8759999999893,
      "v": 97
    },
    {
      "midi": 61,
      "hit": false,
      "t": 280758.5279999975,
      "d": 222.8759999999893,
      "v": 121
    },
    {
      "midi": 64,
      "hit": false,
      "t": 280758.5279999975,
      "d": 222.8759999999893,
      "v": 106
    },
    {
      "midi": 69,
      "hit": false,
      "t": 280758.5279999975,
      "d": 222.8759999999893,
      "v": 80
    },
    {
      "midi": 57,
      "hit": false,
      "t": 281019.4559999975,
      "d": 222.8759999999893,
      "v": 93
    },
    {
      "midi": 61,
      "hit": false,
      "t": 281019.4559999975,
      "d": 222.8759999999893,
      "v": 123
    },
    {
      "midi": 64,
      "hit": false,
      "t": 281019.4559999975,
      "d": 222.8759999999893,
      "v": 110
    },
    {
      "midi": 69,
      "hit": false,
      "t": 281019.4559999975,
      "d": 222.8759999999893,
      "v": 84
    },
    {
      "midi": 57,
      "hit": false,
      "t": 281280.3839999975,
      "d": 222.8759999999893,
      "v": 101
    },
    {
      "midi": 61,
      "hit": false,
      "t": 281280.3839999975,
      "d": 222.8759999999893,
      "v": 121
    },
    {
      "midi": 64,
      "hit": false,
      "t": 281280.3839999975,
      "d": 222.8759999999893,
      "v": 115
    },
    {
      "midi": 69,
      "hit": false,
      "t": 281280.3839999975,
      "d": 222.8759999999893,
      "v": 84
    },
    {
      "midi": 57,
      "hit": false,
      "t": 281541.31199999753,
      "d": 222.8759999999893,
      "v": 97
    },
    {
      "midi": 61,
      "hit": false,
      "t": 281541.31199999753,
      "d": 222.8759999999893,
      "v": 121
    },
    {
      "midi": 64,
      "hit": false,
      "t": 281541.31199999753,
      "d": 222.8759999999893,
      "v": 115
    },
    {
      "midi": 69,
      "hit": false,
      "t": 281541.31199999753,
      "d": 222.8759999999893,
      "v": 93
    },
    {
      "midi": 57,
      "hit": false,
      "t": 281802.23999999755,
      "d": 222.8759999999893,
      "v": 106
    },
    {
      "midi": 61,
      "hit": false,
      "t": 281802.23999999755,
      "d": 222.8759999999893,
      "v": 115
    },
    {
      "midi": 64,
      "hit": false,
      "t": 281802.23999999755,
      "d": 222.8759999999893,
      "v": 115
    },
    {
      "midi": 69,
      "hit": false,
      "t": 281802.23999999755,
      "d": 222.8759999999893,
      "v": 89
    },
    {
      "midi": 57,
      "hit": false,
      "t": 282063.16799999756,
      "d": 222.8759999999893,
      "v": 106
    },
    {
      "midi": 61,
      "hit": false,
      "t": 282063.16799999756,
      "d": 222.8759999999893,
      "v": 121
    },
    {
      "midi": 64,
      "hit": false,
      "t": 282063.16799999756,
      "d": 222.8759999999893,
      "v": 115
    },
    {
      "midi": 69,
      "hit": false,
      "t": 282063.16799999756,
      "d": 222.8759999999893,
      "v": 84
    },
    {
      "midi": 57,
      "hit": false,
      "t": 282324.0959999976,
      "d": 222.8759999999893,
      "v": 106
    },
    {
      "midi": 61,
      "hit": false,
      "t": 282324.0959999976,
      "d": 222.8759999999893,
      "v": 121
    },
    {
      "midi": 64,
      "hit": false,
      "t": 282324.0959999976,
      "d": 222.8759999999893,
      "v": 110
    },
    {
      "midi": 69,
      "hit": false,
      "t": 282324.0959999976,
      "d": 222.8759999999893,
      "v": 84
    },
    {
      "midi": 57,
      "hit": false,
      "t": 282585.0239999976,
      "d": 222.8759999999893,
      "v": 106
    },
    {
      "midi": 61,
      "hit": false,
      "t": 282585.0239999976,
      "d": 222.8759999999893,
      "v": 121
    },
    {
      "midi": 64,
      "hit": false,
      "t": 282585.0239999976,
      "d": 222.8759999999893,
      "v": 115
    },
    {
      "midi": 69,
      "hit": false,
      "t": 282585.0239999976,
      "d": 222.8759999999893,
      "v": 89
    },
    {
      "midi": 57,
      "hit": false,
      "t": 282845.9519999976,
      "d": 222.8759999999893,
      "v": 101
    },
    {
      "midi": 61,
      "hit": false,
      "t": 282845.9519999976,
      "d": 222.8759999999893,
      "v": 115
    },
    {
      "midi": 64,
      "hit": false,
      "t": 282845.9519999976,
      "d": 222.8759999999893,
      "v": 115
    },
    {
      "midi": 69,
      "hit": false,
      "t": 282845.9519999976,
      "d": 222.8759999999893,
      "v": 84
    },
    {
      "midi": 57,
      "hit": false,
      "t": 283106.8799999976,
      "d": 222.8759999999893,
      "v": 101
    },
    {
      "midi": 61,
      "hit": false,
      "t": 283106.8799999976,
      "d": 222.8759999999893,
      "v": 121
    },
    {
      "midi": 64,
      "hit": false,
      "t": 283106.8799999976,
      "d": 222.8759999999893,
      "v": 110
    },
    {
      "midi": 69,
      "hit": false,
      "t": 283106.8799999976,
      "d": 222.8759999999893,
      "v": 84
    },
    {
      "midi": 57,
      "hit": false,
      "t": 283367.80799999763,
      "d": 222.8759999999893,
      "v": 101
    },
    {
      "midi": 61,
      "hit": false,
      "t": 283367.80799999763,
      "d": 222.8759999999893,
      "v": 115
    },
    {
      "midi": 64,
      "hit": false,
      "t": 283367.80799999763,
      "d": 222.8759999999893,
      "v": 115
    },
    {
      "midi": 69,
      "hit": false,
      "t": 283367.80799999763,
      "d": 222.8759999999893,
      "v": 93
    },
    {
      "midi": 57,
      "hit": false,
      "t": 283628.73599999765,
      "d": 222.8759999999893,
      "v": 110
    },
    {
      "midi": 61,
      "hit": false,
      "t": 283628.73599999765,
      "d": 222.8759999999893,
      "v": 121
    },
    {
      "midi": 64,
      "hit": false,
      "t": 283628.73599999765,
      "d": 222.8759999999893,
      "v": 115
    },
    {
      "midi": 69,
      "hit": false,
      "t": 283628.73599999765,
      "d": 222.8759999999893,
      "v": 89
    },
    {
      "midi": 59,
      "hit": false,
      "t": 283889.66399999766,
      "d": 222.8759999999893,
      "v": 110
    },
    {
      "midi": 62,
      "hit": false,
      "t": 283889.66399999766,
      "d": 222.8759999999893,
      "v": 115
    },
    {
      "midi": 66,
      "hit": false,
      "t": 283889.66399999766,
      "d": 222.8759999999893,
      "v": 99
    },
    {
      "midi": 69,
      "hit": false,
      "t": 283889.66399999766,
      "d": 222.8759999999893,
      "v": 84
    },
    {
      "midi": 59,
      "hit": false,
      "t": 284150.5919999977,
      "d": 222.8759999999893,
      "v": 101
    },
    {
      "midi": 62,
      "hit": false,
      "t": 284150.5919999977,
      "d": 222.8759999999893,
      "v": 101
    },
    {
      "midi": 66,
      "hit": false,
      "t": 284150.5919999977,
      "d": 222.8759999999893,
      "v": 99
    },
    {
      "midi": 69,
      "hit": false,
      "t": 284150.5919999977,
      "d": 222.8759999999893,
      "v": 98
    },
    {
      "midi": 59,
      "hit": false,
      "t": 284411.5199999977,
      "d": 222.8759999999893,
      "v": 115
    },
    {
      "midi": 62,
      "hit": false,
      "t": 284411.5199999977,
      "d": 222.8759999999893,
      "v": 115
    },
    {
      "midi": 66,
      "hit": false,
      "t": 284411.5199999977,
      "d": 222.8759999999893,
      "v": 108
    },
    {
      "midi": 69,
      "hit": false,
      "t": 284411.5199999977,
      "d": 222.8759999999893,
      "v": 89
    },
    {
      "midi": 59,
      "hit": false,
      "t": 284672.4479999977,
      "d": 222.8759999999893,
      "v": 115
    },
    {
      "midi": 62,
      "hit": false,
      "t": 284672.4479999977,
      "d": 222.8759999999893,
      "v": 106
    },
    {
      "midi": 66,
      "hit": false,
      "t": 284672.4479999977,
      "d": 222.8759999999893,
      "v": 108
    },
    {
      "midi": 69,
      "hit": false,
      "t": 284672.4479999977,
      "d": 222.8759999999893,
      "v": 84
    },
    {
      "midi": 57,
      "hit": false,
      "t": 284933.3759999977,
      "d": 222.8759999999893,
      "v": 97
    },
    {
      "midi": 61,
      "hit": false,
      "t": 284933.3759999977,
      "d": 222.8759999999893,
      "v": 121
    },
    {
      "midi": 64,
      "hit": false,
      "t": 284933.3759999977,
      "d": 222.8759999999893,
      "v": 110
    },
    {
      "midi": 69,
      "hit": false,
      "t": 284933.3759999977,
      "d": 222.8759999999893,
      "v": 80
    },
    {
      "midi": 57,
      "hit": false,
      "t": 285194.30399999773,
      "d": 222.8759999999893,
      "v": 101
    },
    {
      "midi": 61,
      "hit": false,
      "t": 285194.30399999773,
      "d": 222.8759999999893,
      "v": 121
    },
    {
      "midi": 64,
      "hit": false,
      "t": 285194.30399999773,
      "d": 222.8759999999893,
      "v": 115
    },
    {
      "midi": 69,
      "hit": false,
      "t": 285194.30399999773,
      "d": 222.8759999999893,
      "v": 80
    },
    {
      "midi": 57,
      "hit": false,
      "t": 285455.23199999775,
      "d": 222.8759999999893,
      "v": 101
    },
    {
      "midi": 61,
      "hit": false,
      "t": 285455.23199999775,
      "d": 222.8759999999893,
      "v": 121
    },
    {
      "midi": 64,
      "hit": false,
      "t": 285455.23199999775,
      "d": 222.8759999999893,
      "v": 110
    },
    {
      "midi": 69,
      "hit": false,
      "t": 285455.23199999775,
      "d": 222.8759999999893,
      "v": 89
    },
    {
      "midi": 57,
      "hit": false,
      "t": 285716.15999999776,
      "d": 222.8759999999893,
      "v": 101
    },
    {
      "midi": 61,
      "hit": false,
      "t": 285716.15999999776,
      "d": 222.8759999999893,
      "v": 121
    },
    {
      "midi": 64,
      "hit": false,
      "t": 285716.15999999776,
      "d": 222.8759999999893,
      "v": 115
    },
    {
      "midi": 69,
      "hit": false,
      "t": 285716.15999999776,
      "d": 222.8759999999893,
      "v": 80
    },
    {
      "midi": 57,
      "hit": false,
      "t": 285977.0879999978,
      "d": 222.8759999999893,
      "v": 101
    },
    {
      "midi": 62,
      "hit": false,
      "t": 285977.0879999978,
      "d": 222.8759999999893,
      "v": 110
    },
    {
      "midi": 66,
      "hit": false,
      "t": 285977.0879999978,
      "d": 222.8759999999893,
      "v": 99
    },
    {
      "midi": 69,
      "hit": false,
      "t": 285977.0879999978,
      "d": 222.8759999999893,
      "v": 84
    },
    {
      "midi": 57,
      "hit": false,
      "t": 286238.0159999978,
      "d": 222.8759999999893,
      "v": 106
    },
    {
      "midi": 62,
      "hit": false,
      "t": 286238.0159999978,
      "d": 222.8759999999893,
      "v": 110
    },
    {
      "midi": 66,
      "hit": false,
      "t": 286238.0159999978,
      "d": 222.8759999999893,
      "v": 90
    },
    {
      "midi": 69,
      "hit": false,
      "t": 286238.0159999978,
      "d": 222.8759999999893,
      "v": 80
    },
    {
      "midi": 57,
      "hit": false,
      "t": 286498.9439999978,
      "d": 222.8759999999893,
      "v": 97
    },
    {
      "midi": 62,
      "hit": false,
      "t": 286498.9439999978,
      "d": 222.8759999999893,
      "v": 110
    },
    {
      "midi": 66,
      "hit": false,
      "t": 286498.9439999978,
      "d": 222.8759999999893,
      "v": 103
    },
    {
      "midi": 69,
      "hit": false,
      "t": 286498.9439999978,
      "d": 222.8759999999893,
      "v": 89
    },
    {
      "midi": 57,
      "hit": false,
      "t": 286759.8719999978,
      "d": 222.8759999999893,
      "v": 101
    },
    {
      "midi": 62,
      "hit": false,
      "t": 286759.8719999978,
      "d": 222.8759999999893,
      "v": 110
    },
    {
      "midi": 66,
      "hit": false,
      "t": 286759.8719999978,
      "d": 222.8759999999893,
      "v": 99
    },
    {
      "midi": 69,
      "hit": false,
      "t": 286759.8719999978,
      "d": 222.8759999999893,
      "v": 80
    },
    {
      "midi": 57,
      "hit": false,
      "t": 287020.79999999783,
      "d": 222.8759999999893,
      "v": 101
    },
    {
      "midi": 62,
      "hit": false,
      "t": 287020.79999999783,
      "d": 222.8759999999893,
      "v": 110
    },
    {
      "midi": 66,
      "hit": false,
      "t": 287020.79999999783,
      "d": 222.8759999999893,
      "v": 103
    },
    {
      "midi": 69,
      "hit": false,
      "t": 287020.79999999783,
      "d": 222.8759999999893,
      "v": 93
    },
    {
      "midi": 57,
      "hit": false,
      "t": 287281.72799999785,
      "d": 222.8759999999893,
      "v": 101
    },
    {
      "midi": 62,
      "hit": false,
      "t": 287281.72799999785,
      "d": 222.8759999999893,
      "v": 115
    },
    {
      "midi": 66,
      "hit": false,
      "t": 287281.72799999785,
      "d": 222.8759999999893,
      "v": 99
    },
    {
      "midi": 69,
      "hit": false,
      "t": 287281.72799999785,
      "d": 222.8759999999893,
      "v": 84
    },
    {
      "midi": 57,
      "hit": false,
      "t": 287542.65599999786,
      "d": 222.8759999999893,
      "v": 101
    },
    {
      "midi": 62,
      "hit": false,
      "t": 287542.65599999786,
      "d": 222.8759999999893,
      "v": 121
    },
    {
      "midi": 66,
      "hit": false,
      "t": 287542.65599999786,
      "d": 222.8759999999893,
      "v": 99
    },
    {
      "midi": 69,
      "hit": false,
      "t": 287542.65599999786,
      "d": 222.8759999999893,
      "v": 84
    },
    {
      "midi": 57,
      "hit": false,
      "t": 287803.5839999979,
      "d": 222.8759999999893,
      "v": 106
    },
    {
      "midi": 62,
      "hit": false,
      "t": 287803.5839999979,
      "d": 222.8759999999893,
      "v": 121
    },
    {
      "midi": 66,
      "hit": false,
      "t": 287803.5839999979,
      "d": 222.8759999999893,
      "v": 103
    },
    {
      "midi": 69,
      "hit": false,
      "t": 287803.5839999979,
      "d": 222.8759999999893,
      "v": 93
    },
    {
      "midi": 57,
      "hit": false,
      "t": 288064.5119999979,
      "d": 222.8759999999893,
      "v": 101
    },
    {
      "midi": 62,
      "hit": false,
      "t": 288064.5119999979,
      "d": 222.8759999999893,
      "v": 121
    },
    {
      "midi": 64,
      "hit": false,
      "t": 288064.5119999979,
      "d": 222.8759999999893,
      "v": 110
    },
    {
      "midi": 69,
      "hit": false,
      "t": 288064.5119999979,
      "d": 222.8759999999893,
      "v": 80
    },
    {
      "midi": 57,
      "hit": false,
      "t": 288325.4399999979,
      "d": 222.8759999999893,
      "v": 106
    },
    {
      "midi": 62,
      "hit": false,
      "t": 288325.4399999979,
      "d": 222.8759999999893,
      "v": 121
    },
    {
      "midi": 64,
      "hit": false,
      "t": 288325.4399999979,
      "d": 222.8759999999893,
      "v": 106
    },
    {
      "midi": 69,
      "hit": false,
      "t": 288325.4399999979,
      "d": 222.8759999999893,
      "v": 84
    },
    {
      "midi": 57,
      "hit": false,
      "t": 288586.3679999979,
      "d": 222.8759999999893,
      "v": 110
    },
    {
      "midi": 62,
      "hit": false,
      "t": 288586.3679999979,
      "d": 222.8759999999893,
      "v": 121
    },
    {
      "midi": 64,
      "hit": false,
      "t": 288586.3679999979,
      "d": 222.8759999999893,
      "v": 110
    },
    {
      "midi": 69,
      "hit": false,
      "t": 288586.3679999979,
      "d": 222.8759999999893,
      "v": 80
    },
    {
      "midi": 57,
      "hit": false,
      "t": 288847.29599999794,
      "d": 222.8759999999893,
      "v": 106
    },
    {
      "midi": 62,
      "hit": false,
      "t": 288847.29599999794,
      "d": 222.8759999999893,
      "v": 115
    },
    {
      "midi": 64,
      "hit": false,
      "t": 288847.29599999794,
      "d": 222.8759999999893,
      "v": 101
    },
    {
      "midi": 69,
      "hit": false,
      "t": 288847.29599999794,
      "d": 222.8759999999893,
      "v": 71
    },
    {
      "midi": 57,
      "hit": false,
      "t": 289108.22399999795,
      "d": 222.8759999999893,
      "v": 97
    },
    {
      "midi": 61,
      "hit": false,
      "t": 289108.22399999795,
      "d": 222.8759999999893,
      "v": 121
    },
    {
      "midi": 64,
      "hit": false,
      "t": 289108.22399999795,
      "d": 222.8759999999893,
      "v": 106
    },
    {
      "midi": 69,
      "hit": false,
      "t": 289108.22399999795,
      "d": 222.8759999999893,
      "v": 80
    },
    {
      "midi": 57,
      "hit": false,
      "t": 289369.15199999796,
      "d": 222.8759999999893,
      "v": 93
    },
    {
      "midi": 61,
      "hit": false,
      "t": 289369.15199999796,
      "d": 222.8759999999893,
      "v": 123
    },
    {
      "midi": 64,
      "hit": false,
      "t": 289369.15199999796,
      "d": 222.8759999999893,
      "v": 110
    },
    {
      "midi": 69,
      "hit": false,
      "t": 289369.15199999796,
      "d": 222.8759999999893,
      "v": 84
    },
    {
      "midi": 57,
      "hit": false,
      "t": 289630.079999998,
      "d": 222.8759999999893,
      "v": 101
    },
    {
      "midi": 61,
      "hit": false,
      "t": 289630.079999998,
      "d": 222.8759999999893,
      "v": 121
    },
    {
      "midi": 64,
      "hit": false,
      "t": 289630.079999998,
      "d": 222.8759999999893,
      "v": 115
    },
    {
      "midi": 69,
      "hit": false,
      "t": 289630.079999998,
      "d": 222.8759999999893,
      "v": 84
    },
    {
      "midi": 57,
      "hit": false,
      "t": 289891.007999998,
      "d": 222.8759999999893,
      "v": 97
    },
    {
      "midi": 61,
      "hit": false,
      "t": 289891.007999998,
      "d": 222.8759999999893,
      "v": 121
    },
    {
      "midi": 64,
      "hit": false,
      "t": 289891.007999998,
      "d": 222.8759999999893,
      "v": 115
    },
    {
      "midi": 69,
      "hit": false,
      "t": 289891.007999998,
      "d": 222.8759999999893,
      "v": 93
    },
    {
      "midi": 57,
      "hit": false,
      "t": 290151.935999998,
      "d": 222.8759999999893,
      "v": 106
    },
    {
      "midi": 61,
      "hit": false,
      "t": 290151.935999998,
      "d": 222.8759999999893,
      "v": 115
    },
    {
      "midi": 64,
      "hit": false,
      "t": 290151.935999998,
      "d": 222.8759999999893,
      "v": 115
    },
    {
      "midi": 69,
      "hit": false,
      "t": 290151.935999998,
      "d": 222.8759999999893,
      "v": 89
    },
    {
      "midi": 57,
      "hit": false,
      "t": 290412.863999998,
      "d": 222.8759999999893,
      "v": 106
    },
    {
      "midi": 61,
      "hit": false,
      "t": 290412.863999998,
      "d": 222.8759999999893,
      "v": 121
    },
    {
      "midi": 64,
      "hit": false,
      "t": 290412.863999998,
      "d": 222.8759999999893,
      "v": 115
    },
    {
      "midi": 69,
      "hit": false,
      "t": 290412.863999998,
      "d": 222.8759999999893,
      "v": 84
    },
    {
      "midi": 57,
      "hit": false,
      "t": 290673.79199999804,
      "d": 222.8759999999893,
      "v": 106
    },
    {
      "midi": 61,
      "hit": false,
      "t": 290673.79199999804,
      "d": 222.8759999999893,
      "v": 121
    },
    {
      "midi": 64,
      "hit": false,
      "t": 290673.79199999804,
      "d": 222.8759999999893,
      "v": 110
    },
    {
      "midi": 69,
      "hit": false,
      "t": 290673.79199999804,
      "d": 222.8759999999893,
      "v": 84
    },
    {
      "midi": 57,
      "hit": false,
      "t": 290934.71999999805,
      "d": 222.8759999999893,
      "v": 106
    },
    {
      "midi": 61,
      "hit": false,
      "t": 290934.71999999805,
      "d": 222.8759999999893,
      "v": 121
    },
    {
      "midi": 64,
      "hit": false,
      "t": 290934.71999999805,
      "d": 222.8759999999893,
      "v": 115
    },
    {
      "midi": 69,
      "hit": false,
      "t": 290934.71999999805,
      "d": 222.8759999999893,
      "v": 89
    },
    {
      "midi": 57,
      "hit": false,
      "t": 291195.64799999807,
      "d": 222.8759999999893,
      "v": 101
    },
    {
      "midi": 61,
      "hit": false,
      "t": 291195.64799999807,
      "d": 222.8759999999893,
      "v": 115
    },
    {
      "midi": 64,
      "hit": false,
      "t": 291195.64799999807,
      "d": 222.8759999999893,
      "v": 115
    },
    {
      "midi": 69,
      "hit": false,
      "t": 291195.64799999807,
      "d": 222.8759999999893,
      "v": 84
    },
    {
      "midi": 57,
      "hit": false,
      "t": 291456.5759999981,
      "d": 222.8759999999893,
      "v": 101
    },
    {
      "midi": 61,
      "hit": false,
      "t": 291456.5759999981,
      "d": 222.8759999999893,
      "v": 121
    },
    {
      "midi": 64,
      "hit": false,
      "t": 291456.5759999981,
      "d": 222.8759999999893,
      "v": 110
    },
    {
      "midi": 69,
      "hit": false,
      "t": 291456.5759999981,
      "d": 222.8759999999893,
      "v": 84
    },
    {
      "midi": 57,
      "hit": false,
      "t": 291717.5039999981,
      "d": 222.8759999999893,
      "v": 101
    },
    {
      "midi": 61,
      "hit": false,
      "t": 291717.5039999981,
      "d": 222.8759999999893,
      "v": 115
    },
    {
      "midi": 64,
      "hit": false,
      "t": 291717.5039999981,
      "d": 222.8759999999893,
      "v": 115
    },
    {
      "midi": 69,
      "hit": false,
      "t": 291717.5039999981,
      "d": 222.8759999999893,
      "v": 93
    },
    {
      "midi": 57,
      "hit": false,
      "t": 291978.4319999981,
      "d": 222.8759999999893,
      "v": 110
    },
    {
      "midi": 61,
      "hit": false,
      "t": 291978.4319999981,
      "d": 222.8759999999893,
      "v": 121
    },
    {
      "midi": 64,
      "hit": false,
      "t": 291978.4319999981,
      "d": 222.8759999999893,
      "v": 115
    },
    {
      "midi": 69,
      "hit": false,
      "t": 291978.4319999981,
      "d": 222.8759999999893,
      "v": 89
    },
    {
      "midi": 59,
      "hit": false,
      "t": 292239.3599999981,
      "d": 222.8759999999893,
      "v": 110
    },
    {
      "midi": 62,
      "hit": false,
      "t": 292239.3599999981,
      "d": 222.8759999999893,
      "v": 115
    },
    {
      "midi": 66,
      "hit": false,
      "t": 292239.3599999981,
      "d": 222.8759999999893,
      "v": 99
    },
    {
      "midi": 69,
      "hit": false,
      "t": 292239.3599999981,
      "d": 222.8759999999893,
      "v": 84
    },
    {
      "midi": 59,
      "hit": false,
      "t": 292500.28799999814,
      "d": 222.8759999999893,
      "v": 101
    },
    {
      "midi": 62,
      "hit": false,
      "t": 292500.28799999814,
      "d": 222.8759999999893,
      "v": 101
    },
    {
      "midi": 66,
      "hit": false,
      "t": 292500.28799999814,
      "d": 222.8759999999893,
      "v": 99
    },
    {
      "midi": 69,
      "hit": false,
      "t": 292500.28799999814,
      "d": 222.8759999999893,
      "v": 98
    },
    {
      "midi": 59,
      "hit": false,
      "t": 292761.21599999815,
      "d": 222.8759999999893,
      "v": 115
    },
    {
      "midi": 62,
      "hit": false,
      "t": 292761.21599999815,
      "d": 222.8759999999893,
      "v": 115
    },
    {
      "midi": 66,
      "hit": false,
      "t": 292761.21599999815,
      "d": 222.8759999999893,
      "v": 108
    },
    {
      "midi": 69,
      "hit": false,
      "t": 292761.21599999815,
      "d": 222.8759999999893,
      "v": 89
    },
    {
      "midi": 59,
      "hit": false,
      "t": 293022.14399999817,
      "d": 222.8759999999893,
      "v": 115
    },
    {
      "midi": 62,
      "hit": false,
      "t": 293022.14399999817,
      "d": 222.8759999999893,
      "v": 106
    },
    {
      "midi": 66,
      "hit": false,
      "t": 293022.14399999817,
      "d": 222.8759999999893,
      "v": 108
    },
    {
      "midi": 69,
      "hit": false,
      "t": 293022.14399999817,
      "d": 222.8759999999893,
      "v": 84
    },
    {
      "midi": 57,
      "hit": false,
      "t": 293283.0719999982,
      "d": 222.8759999999893,
      "v": 97
    },
    {
      "midi": 61,
      "hit": false,
      "t": 293283.0719999982,
      "d": 222.8759999999893,
      "v": 121
    },
    {
      "midi": 64,
      "hit": false,
      "t": 293283.0719999982,
      "d": 222.8759999999893,
      "v": 110
    },
    {
      "midi": 69,
      "hit": false,
      "t": 293283.0719999982,
      "d": 222.8759999999893,
      "v": 80
    },
    {
      "midi": 57,
      "hit": false,
      "t": 293543.9999999982,
      "d": 222.8759999999893,
      "v": 101
    },
    {
      "midi": 61,
      "hit": false,
      "t": 293543.9999999982,
      "d": 222.8759999999893,
      "v": 121
    },
    {
      "midi": 64,
      "hit": false,
      "t": 293543.9999999982,
      "d": 222.8759999999893,
      "v": 115
    },
    {
      "midi": 69,
      "hit": false,
      "t": 293543.9999999982,
      "d": 222.8759999999893,
      "v": 80
    },
    {
      "midi": 57,
      "hit": false,
      "t": 293804.9279999982,
      "d": 222.8759999999893,
      "v": 101
    },
    {
      "midi": 61,
      "hit": false,
      "t": 293804.9279999982,
      "d": 222.8759999999893,
      "v": 121
    },
    {
      "midi": 64,
      "hit": false,
      "t": 293804.9279999982,
      "d": 222.8759999999893,
      "v": 110
    },
    {
      "midi": 69,
      "hit": false,
      "t": 293804.9279999982,
      "d": 222.8759999999893,
      "v": 89
    },
    {
      "midi": 57,
      "hit": false,
      "t": 294065.8559999982,
      "d": 222.8759999999893,
      "v": 101
    },
    {
      "midi": 61,
      "hit": false,
      "t": 294065.8559999982,
      "d": 222.8759999999893,
      "v": 121
    },
    {
      "midi": 64,
      "hit": false,
      "t": 294065.8559999982,
      "d": 222.8759999999893,
      "v": 115
    },
    {
      "midi": 69,
      "hit": false,
      "t": 294065.8559999982,
      "d": 222.8759999999893,
      "v": 80
    },
    {
      "midi": 57,
      "hit": false,
      "t": 294326.78399999824,
      "d": 4174.847999999998,
      "v": 101
    },
    {
      "midi": 62,
      "hit": false,
      "t": 294326.78399999824,
      "d": 4174.847999999998,
      "v": 110
    },
    {
      "midi": 66,
      "hit": false,
      "t": 294326.78399999824,
      "d": 4174.847999999998,
      "v": 99
    },
    {
      "midi": 69,
      "hit": false,
      "t": 294326.78399999824,
      "d": 4174.847999999998,
      "v": 84
    }
  ]
}