{
  "jsonPath": "Classical/Classical/Ludwig van Beethoven/fur-elise-1-hand.json",
  "path": "Classical\\Classical\\Ludwig van Beethoven\\Fur Elise (1 hand).mid",
  "name": "Fur Elise (1 hand)",
  "difficulty": "Intermediate",
  "bpm": 120,
  "notes": [
    {
      "midi": 71,
      "hit": false,
      "t": 1000,
      "d": 250,
      "v": 33
    },
    {
      "midi": 70,
      "hit": false,
      "t": 1250,
      "d": 250,
      "v": 34
    },
    {
      "midi": 71,
      "hit": false,
      "t": 1500,
      "d": 250,
      "v": 40
    },
    {
      "midi": 70,
      "hit": false,
      "t": 1750,
      "d": 250,
      "v": 32
    },
    {
      "midi": 71,
      "hit": false,
      "t": 2000,
      "d": 250,
      "v": 38
    },
    {
      "midi": 66,
      "hit": false,
      "t": 2250,
      "d": 250,
      "v": 31
    },
    {
      "midi": 69,
      "hit": false,
      "t": 2500,
      "d": 250,
      "v": 38
    },
    {
      "midi": 67,
      "hit": false,
      "t": 2750,
      "d": 250,
      "v": 33
    },
    {
      "midi": 64,
      "hit": false,
      "t": 3000,
      "d": 750,
      "v": 35
    },
    {
      "midi": 55,
      "hit": false,
      "t": 3750,
      "d": 250,
      "v": 30
    },
    {
      "midi": 59,
      "hit": false,
      "t": 4000,
      "d": 250,
      "v": 37
    },
    {
      "midi": 64,
      "hit": false,
      "t": 4250,
      "d": 250,
      "v": 41
    },
    {
      "midi": 66,
      "hit": false,
      "t": 4500,
      "d": 750,
      "v": 42
    },
    {
      "midi": 59,
      "hit": false,
      "t": 5250,
      "d": 250,
      "v": 32
    },
    {
      "midi": 63,
      "hit": false,
      "t": 5500,
      "d": 250,
      "v": 37
    },
    {
      "midi": 66,
      "hit": false,
      "t": 5750,
      "d": 250,
      "v": 40
    },
    {
      "midi": 67,
      "hit": false,
      "t": 6000,
      "d": 750,
      "v": 42
    },
    {
      "midi": 59,
      "hit": false,
      "t": 6750,
      "d": 250,
      "v": 32
    },
    {
      "midi": 71,
      "hit": false,
      "t": 7000,
      "d": 250,
      "v": 45
    },
    {
      "midi": 70,
      "hit": false,
      "t": 7250,
      "d": 250,
      "v": 37
    },
    {
      "midi": 71,
      "hit": false,
      "t": 7500,
      "d": 250,
      "v": 39
    },
    {
      "midi": 70,
      "hit": false,
      "t": 7750,
      "d": 250,
      "v": 35
    },
    {
      "midi": 71,
      "hit": false,
      "t": 8000,
      "d": 250,
      "v": 34
    },
    {
      "midi": 66,
      "hit": false,
      "t": 8250,
      "d": 250,
      "v": 30
    },
    {
      "midi": 69,
      "hit": false,
      "t": 8500,
      "d": 250,
      "v": 35
    },
    {
      "midi": 67,
      "hit": false,
      "t": 8750,
      "d": 250,
      "v": 34
    },
    {
      "midi": 64,
      "hit": false,
      "t": 9000,
      "d": 750,
      "v": 36
    },
    {
      "midi": 55,
      "hit": false,
      "t": 9750,
      "d": 250,
      "v": 30
    },
    {
      "midi": 59,
      "hit": false,
      "t": 10000,
      "d": 250,
      "v": 40
    },
    {
      "midi": 64,
      "hit": false,
      "t": 10250,
      "d": 250,
      "v": 39
    },
    {
      "midi": 66,
      "hit": false,
      "t": 10500,
      "d": 750,
      "v": 40
    },
    {
      "midi": 59,
      "hit": false,
      "t": 11250,
      "d": 250,
      "v": 32
    },
    {
      "midi": 67,
      "hit": false,
      "t": 11500,
      "d": 250,
      "v": 40
    },
    {
      "midi": 66,
      "hit": false,
      "t": 11750,
      "d": 250,
      "v": 35
    },
    {
      "midi": 64,
      "hit": false,
      "t": 12000,
      "d": 750,
      "v": 34
    },
    {
      "midi": 66,
      "hit": false,
      "t": 12750,
      "d": 250,
      "v": 32
    },
    {
      "midi": 67,
      "hit": false,
      "t": 13000,
      "d": 250,
      "v": 56
    },
    {
      "midi": 69,
      "hit": false,
      "t": 13250,
      "d": 250,
      "v": 81
    },
    {
      "midi": 71,
      "hit": false,
      "t": 13500,
      "d": 750,
      "v": 105
    },
    {
      "midi": 62,
      "hit": false,
      "t": 14250,
      "d": 250,
      "v": 85
    },
    {
      "midi": 72,
      "hit": false,
      "t": 14500,
      "d": 250,
      "v": 117
    },
    {
      "midi": 71,
      "hit": false,
      "t": 14750,
      "d": 250,
      "v": 96
    },
    {
      "midi": 69,
      "hit": false,
      "t": 15000,
      "d": 750,
      "v": 93
    },
    {
      "midi": 60,
      "hit": false,
      "t": 15750,
      "d": 250,
      "v": 86
    },
    {
      "midi": 71,
      "hit": false,
      "t": 16000,
      "d": 250,
      "v": 121
    },
    {
      "midi": 69,
      "hit": false,
      "t": 16250,
      "d": 250,
      "v": 94
    },
    {
      "midi": 67,
      "hit": false,
      "t": 16500,
      "d": 750,
      "v": 94
    },
    {
      "midi": 59,
      "hit": false,
      "t": 17250,
      "d": 250,
      "v": 86
    },
    {
      "midi": 69,
      "hit": false,
      "t": 17500,
      "d": 250,
      "v": 118
    },
    {
      "midi": 67,
      "hit": false,
      "t": 17750,
      "d": 250,
      "v": 91
    },
    {
      "midi": 66,
      "hit": false,
      "t": 18000,
      "d": 500,
      "v": 94
    },
    {
      "midi": 59,
      "hit": false,
      "t": 18500,
      "d": 250,
      "v": 79
    },
    {
      "midi": 59,
      "hit": false,
      "t": 18750,
      "d": 250,
      "v": 94
    },
    {
      "midi": 71,
      "hit": false,
      "t": 19000,
      "d": 250,
      "v": 127
    },
    {
      "midi": 70,
      "hit": false,
      "t": 19250,
      "d": 250,
      "v": 68
    },
    {
      "midi": 71,
      "hit": false,
      "t": 19500,
      "d": 250,
      "v": 50
    },
    {
      "midi": 70,
      "hit": false,
      "t": 19750,
      "d": 250,
      "v": 46
    },
    {
      "midi": 71,
      "hit": false,
      "t": 20000,
      "d": 250,
      "v": 49
    },
    {
      "midi": 66,
      "hit": false,
      "t": 20250,
      "d": 250,
      "v": 41
    },
    {
      "midi": 69,
      "hit": false,
      "t": 20500,
      "d": 250,
      "v": 50
    },
    {
      "midi": 67,
      "hit": false,
      "t": 20750,
      "d": 250,
      "v": 45
    },
    {
      "midi": 64,
      "hit": false,
      "t": 21000,
      "d": 750,
      "v": 46
    },
    {
      "midi": 55,
      "hit": false,
      "t": 21750,
      "d": 250,
      "v": 44
    },
    {
      "midi": 59,
      "hit": false,
      "t": 22000,
      "d": 250,
      "v": 52
    },
    {
      "midi": 64,
      "hit": false,
      "t": 22250,
      "d": 250,
      "v": 57
    },
    {
      "midi": 66,
      "hit": false,
      "t": 22500,
      "d": 750,
      "v": 54
    },
    {
      "midi": 59,
      "hit": false,
      "t": 23250,
      "d": 250,
      "v": 44
    },
    {
      "midi": 63,
      "hit": false,
      "t": 23500,
      "d": 250,
      "v": 54
    },
    {
      "midi": 66,
      "hit": false,
      "t": 23750,
      "d": 250,
      "v": 52
    },
    {
      "midi": 67,
      "hit": false,
      "t": 24000,
      "d": 750,
      "v": 55
    },
    {
      "midi": 59,
      "hit": false,
      "t": 24750,
      "d": 250,
      "v": 41
    },
    {
      "midi": 71,
      "hit": false,
      "t": 25000,
      "d": 250,
      "v": 60
    },
    {
      "midi": 70,
      "hit": false,
      "t": 25250,
      "d": 250,
      "v": 50
    },
    {
      "midi": 71,
      "hit": false,
      "t": 25500,
      "d": 250,
      "v": 52
    },
    {
      "midi": 70,
      "hit": false,
      "t": 25750,
      "d": 250,
      "v": 45
    },
    {
      "midi": 71,
      "hit": false,
      "t": 26000,
      "d": 250,
      "v": 49
    },
    {
      "midi": 66,
      "hit": false,
      "t": 26250,
      "d": 250,
      "v": 44
    },
    {
      "midi": 69,
      "hit": false,
      "t": 26500,
      "d": 250,
      "v": 50
    },
    {
      "midi": 67,
      "hit": false,
      "t": 26750,
      "d": 250,
      "v": 44
    },
    {
      "midi": 64,
      "hit": false,
      "t": 27000,
      "d": 750,
      "v": 48
    },
    {
      "midi": 55,
      "hit": false,
      "t": 27750,
      "d": 250,
      "v": 42
    },
    {
      "midi": 59,
      "hit": false,
      "t": 28000,
      "d": 250,
      "v": 54
    },
    {
      "midi": 64,
      "hit": false,
      "t": 28250,
      "d": 250,
      "v": 55
    },
    {
      "midi": 66,
      "hit": false,
      "t": 28500,
      "d": 750,
      "v": 54
    },
    {
      "midi": 59,
      "hit": false,
      "t": 29250,
      "d": 250,
      "v": 43
    },
    {
      "midi": 67,
      "hit": false,
      "t": 29500,
      "d": 250,
      "v": 57
    },
    {
      "midi": 66,
      "hit": false,
      "t": 29750,
      "d": 250,
      "v": 46
    },
    {
      "midi": 64,
      "hit": false,
      "t": 30000,
      "d": 1500,
      "v": 49
    }
  ]
}