{
  "jsonPath": "Classical/Classical/Ludwig van Beethoven/german-dance.json",
  "path": "Classical\\Classical\\Ludwig van Beethoven\\German Dance.mid",
  "name": "German Dance",
  "difficulty": "Advanced",
  "bpm": 100,
  "notes": [
    {
      "midi": 64,
      "hit": false,
      "t": 1200,
      "d": 600,
      "v": 67
    },
    {
      "midi": 73,
      "hit": false,
      "t": 1800,
      "d": 600,
      "v": 92
    },
    {
      "midi": 57,
      "hit": false,
      "t": 1800,
      "d": 600,
      "v": 72
    },
    {
      "midi": 64,
      "hit": false,
      "t": 1800,
      "d": 600,
      "v": 72
    },
    {
      "midi": 73,
      "hit": false,
      "t": 2400,
      "d": 600,
      "v": 79
    },
    {
      "midi": 57,
      "hit": false,
      "t": 2400,
      "d": 600,
      "v": 73
    },
    {
      "midi": 64,
      "hit": false,
      "t": 2400,
      "d": 600,
      "v": 73
    },
    {
      "midi": 73,
      "hit": false,
      "t": 3000,
      "d": 600,
      "v": 71
    },
    {
      "midi": 57,
      "hit": false,
      "t": 3000,
      "d": 600,
      "v": 77
    },
    {
      "midi": 64,
      "hit": false,
      "t": 3000,
      "d": 600,
      "v": 77
    },
    {
      "midi": 74,
      "hit": false,
      "t": 3600,
      "d": 300,
      "v": 82
    },
    {
      "midi": 59,
      "hit": false,
      "t": 3600,
      "d": 600,
      "v": 75
    },
    {
      "midi": 64,
      "hit": false,
      "t": 3600,
      "d": 600,
      "v": 75
    },
    {
      "midi": 76,
      "hit": false,
      "t": 3900,
      "d": 300,
      "v": 84
    },
    {
      "midi": 78,
      "hit": false,
      "t": 4200,
      "d": 300,
      "v": 82
    },
    {
      "midi": 76,
      "hit": false,
      "t": 4500,
      "d": 300,
      "v": 74
    },
    {
      "midi": 74,
      "hit": false,
      "t": 4800,
      "d": 600,
      "v": 72
    },
    {
      "midi": 71,
      "hit": false,
      "t": 5400,
      "d": 600,
      "v": 69
    },
    {
      "midi": 56,
      "hit": false,
      "t": 5400,
      "d": 600,
      "v": 65
    },
    {
      "midi": 64,
      "hit": false,
      "t": 5400,
      "d": 600,
      "v": 65
    },
    {
      "midi": 71,
      "hit": false,
      "t": 6000,
      "d": 600,
      "v": 76
    },
    {
      "midi": 56,
      "hit": false,
      "t": 6000,
      "d": 600,
      "v": 72
    },
    {
      "midi": 64,
      "hit": false,
      "t": 6000,
      "d": 600,
      "v": 72
    },
    {
      "midi": 71,
      "hit": false,
      "t": 6600,
      "d": 600,
      "v": 75
    },
    {
      "midi": 56,
      "hit": false,
      "t": 6600,
      "d": 600,
      "v": 78
    },
    {
      "midi": 64,
      "hit": false,
      "t": 6600,
      "d": 600,
      "v": 78
    },
    {
      "midi": 73,
      "hit": false,
      "t": 7200,
      "d": 300,
      "v": 80
    },
    {
      "midi": 57,
      "hit": false,
      "t": 7200,
      "d": 600,
      "v": 81
    },
    {
      "midi": 64,
      "hit": false,
      "t": 7200,
      "d": 600,
      "v": 81
    },
    {
      "midi": 74,
      "hit": false,
      "t": 7500,
      "d": 300,
      "v": 77
    },
    {
      "midi": 76,
      "hit": false,
      "t": 7800,
      "d": 300,
      "v": 84
    },
    {
      "midi": 74,
      "hit": false,
      "t": 8100,
      "d": 300,
      "v": 70
    },
    {
      "midi": 73,
      "hit": false,
      "t": 8400,
      "d": 600,
      "v": 70
    },
    {
      "midi": 69,
      "hit": false,
      "t": 9000,
      "d": 300,
      "v": 66
    },
    {
      "midi": 54,
      "hit": false,
      "t": 9000,
      "d": 600,
      "v": 70
    },
    {
      "midi": 71,
      "hit": false,
      "t": 9300,
      "d": 300,
      "v": 83
    },
    {
      "midi": 73,
      "hit": false,
      "t": 9600,
      "d": 300,
      "v": 77
    },
    {
      "midi": 57,
      "hit": false,
      "t": 9600,
      "d": 600,
      "v": 86
    },
    {
      "midi": 61,
      "hit": false,
      "t": 9600,
      "d": 600,
      "v": 86
    },
    {
      "midi": 71,
      "hit": false,
      "t": 9900,
      "d": 300,
      "v": 73
    },
    {
      "midi": 69,
      "hit": false,
      "t": 10200,
      "d": 600,
      "v": 68
    },
    {
      "midi": 57,
      "hit": false,
      "t": 10200,
      "d": 600,
      "v": 79
    },
    {
      "midi": 61,
      "hit": false,
      "t": 10200,
      "d": 600,
      "v": 79
    },
    {
      "midi": 71,
      "hit": false,
      "t": 10800,
      "d": 300,
      "v": 79
    },
    {
      "midi": 50,
      "hit": false,
      "t": 10800,
      "d": 600,
      "v": 69
    },
    {
      "midi": 73,
      "hit": false,
      "t": 11100,
      "d": 300,
      "v": 82
    },
    {
      "midi": 74,
      "hit": false,
      "t": 11400,
      "d": 300,
      "v": 84
    },
    {
      "midi": 54,
      "hit": false,
      "t": 11400,
      "d": 600,
      "v": 85
    },
    {
      "midi": 59,
      "hit": false,
      "t": 11400,
      "d": 600,
      "v": 85
    },
    {
      "midi": 73,
      "hit": false,
      "t": 11700,
      "d": 300,
      "v": 75
    },
    {
      "midi": 71,
      "hit": false,
      "t": 12000,
      "d": 600,
      "v": 72
    },
    {
      "midi": 54,
      "hit": false,
      "t": 12000,
      "d": 600,
      "v": 77
    },
    {
      "midi": 59,
      "hit": false,
      "t": 12000,
      "d": 600,
      "v": 77
    },
    {
      "midi": 68,
      "hit": false,
      "t": 12600,
      "d": 300,
      "v": 67
    },
    {
      "midi": 52,
      "hit": false,
      "t": 12600,
      "d": 600,
      "v": 68
    },
    {
      "midi": 69,
      "hit": false,
      "t": 12900,
      "d": 300,
      "v": 81
    },
    {
      "midi": 71,
      "hit": false,
      "t": 13200,
      "d": 300,
      "v": 80
    },
    {
      "midi": 59,
      "hit": false,
      "t": 13200,
      "d": 600,
      "v": 93
    },
    {
      "midi": 62,
      "hit": false,
      "t": 13200,
      "d": 600,
      "v": 93
    },
    {
      "midi": 69,
      "hit": false,
      "t": 13500,
      "d": 300,
      "v": 72
    },
    {
      "midi": 68,
      "hit": false,
      "t": 13800,
      "d": 600,
      "v": 72
    },
    {
      "midi": 59,
      "hit": false,
      "t": 13800,
      "d": 600,
      "v": 79
    },
    {
      "midi": 62,
      "hit": false,
      "t": 13800,
      "d": 600,
      "v": 79
    },
    {
      "midi": 69,
      "hit": false,
      "t": 14400,
      "d": 600,
      "v": 76
    },
    {
      "midi": 57,
      "hit": false,
      "t": 14400,
      "d": 600,
      "v": 75
    },
    {
      "midi": 61,
      "hit": false,
      "t": 14400,
      "d": 600,
      "v": 75
    },
    {
      "midi": 64,
      "hit": false,
      "t": 15600,
      "d": 600,
      "v": 72
    },
    {
      "midi": 73,
      "hit": false,
      "t": 16200,
      "d": 300,
      "v": 97
    },
    {
      "midi": 57,
      "hit": false,
      "t": 16200,
      "d": 600,
      "v": 67
    },
    {
      "midi": 64,
      "hit": false,
      "t": 16500,
      "d": 300,
      "v": 63
    },
    {
      "midi": 71,
      "hit": false,
      "t": 16800,
      "d": 300,
      "v": 89
    },
    {
      "midi": 56,
      "hit": false,
      "t": 16800,
      "d": 600,
      "v": 70
    },
    {
      "midi": 64,
      "hit": false,
      "t": 17100,
      "d": 300,
      "v": 65
    },
    {
      "midi": 73,
      "hit": false,
      "t": 17400,
      "d": 300,
      "v": 92
    },
    {
      "midi": 57,
      "hit": false,
      "t": 17400,
      "d": 600,
      "v": 79
    },
    {
      "midi": 64,
      "hit": false,
      "t": 17700,
      "d": 300,
      "v": 65
    },
    {
      "midi": 74,
      "hit": false,
      "t": 18000,
      "d": 300,
      "v": 93
    },
    {
      "midi": 59,
      "hit": false,
      "t": 18000,
      "d": 600,
      "v": 78
    },
    {
      "midi": 71,
      "hit": false,
      "t": 18300,
      "d": 300,
      "v": 71
    },
    {
      "midi": 68,
      "hit": false,
      "t": 18600,
      "d": 300,
      "v": 68
    },
    {
      "midi": 52,
      "hit": false,
      "t": 18600,
      "d": 600,
      "v": 69
    },
    {
      "midi": 64,
      "hit": false,
      "t": 18900,
      "d": 300,
      "v": 63
    },
    {
      "midi": 68,
      "hit": false,
      "t": 19200,
      "d": 300,
      "v": 82
    },
    {
      "midi": 64,
      "hit": false,
      "t": 19500,
      "d": 300,
      "v": 71
    },
    {
      "midi": 73,
      "hit": false,
      "t": 19800,
      "d": 300,
      "v": 91
    },
    {
      "midi": 57,
      "hit": false,
      "t": 19800,
      "d": 600,
      "v": 70
    },
    {
      "midi": 64,
      "hit": false,
      "t": 20100,
      "d": 300,
      "v": 65
    },
    {
      "midi": 71,
      "hit": false,
      "t": 20400,
      "d": 300,
      "v": 88
    },
    {
      "midi": 56,
      "hit": false,
      "t": 20400,
      "d": 600,
      "v": 75
    },
    {
      "midi": 64,
      "hit": false,
      "t": 20700,
      "d": 300,
      "v": 69
    },
    {
      "midi": 73,
      "hit": false,
      "t": 21000,
      "d": 300,
      "v": 94
    },
    {
      "midi": 57,
      "hit": false,
      "t": 21000,
      "d": 600,
      "v": 75
    },
    {
      "midi": 64,
      "hit": false,
      "t": 21300,
      "d": 300,
      "v": 62
    },
    {
      "midi": 74,
      "hit": false,
      "t": 21600,
      "d": 300,
      "v": 90
    },
    {
      "midi": 59,
      "hit": false,
      "t": 21600,
      "d": 600,
      "v": 75
    },
    {
      "midi": 71,
      "hit": false,
      "t": 21900,
      "d": 300,
      "v": 72
    },
    {
      "midi": 68,
      "hit": false,
      "t": 22200,
      "d": 300,
      "v": 72
    },
    {
      "midi": 52,
      "hit": false,
      "t": 22200,
      "d": 600,
      "v": 71
    },
    {
      "midi": 64,
      "hit": false,
      "t": 22500,
      "d": 300,
      "v": 65
    },
    {
      "midi": 68,
      "hit": false,
      "t": 22800,
      "d": 300,
      "v": 80
    },
    {
      "midi": 64,
      "hit": false,
      "t": 23100,
      "d": 300,
      "v": 68
    },
    {
      "midi": 76,
      "hit": false,
      "t": 23400,
      "d": 300,
      "v": 97
    },
    {
      "midi": 61,
      "hit": false,
      "t": 23400,
      "d": 600,
      "v": 74
    },
    {
      "midi": 69,
      "hit": false,
      "t": 23700,
      "d": 300,
      "v": 67
    },
    {
      "midi": 74,
      "hit": false,
      "t": 24000,
      "d": 300,
      "v": 84
    },
    {
      "midi": 59,
      "hit": false,
      "t": 24000,
      "d": 600,
      "v": 76
    },
    {
      "midi": 69,
      "hit": false,
      "t": 24300,
      "d": 300,
      "v": 68
    },
    {
      "midi": 76,
      "hit": false,
      "t": 24600,
      "d": 300,
      "v": 90
    },
    {
      "midi": 61,
      "hit": false,
      "t": 24600,
      "d": 600,
      "v": 84
    },
    {
      "midi": 69,
      "hit": false,
      "t": 24900,
      "d": 300,
      "v": 66
    },
    {
      "midi": 78,
      "hit": false,
      "t": 25200,
      "d": 300,
      "v": 90
    },
    {
      "midi": 62,
      "hit": false,
      "t": 25200,
      "d": 600,
      "v": 80
    },
    {
      "midi": 69,
      "hit": false,
      "t": 25500,
      "d": 300,
      "v": 61
    },
    {
      "midi": 80,
      "hit": false,
      "t": 25800,
      "d": 300,
      "v": 91
    },
    {
      "midi": 64,
      "hit": false,
      "t": 25800,
      "d": 600,
      "v": 79
    },
    {
      "midi": 69,
      "hit": false,
      "t": 26100,
      "d": 300,
      "v": 60
    },
    {
      "midi": 81,
      "hit": false,
      "t": 26400,
      "d": 300,
      "v": 96
    },
    {
      "midi": 66,
      "hit": false,
      "t": 26400,
      "d": 600,
      "v": 80
    },
    {
      "midi": 69,
      "hit": false,
      "t": 26700,
      "d": 300,
      "v": 58
    },
    {
      "midi": 73,
      "hit": false,
      "t": 27000,
      "d": 300,
      "v": 80
    },
    {
      "midi": 64,
      "hit": false,
      "t": 27000,
      "d": 600,
      "v": 74
    },
    {
      "midi": 76,
      "hit": false,
      "t": 27300,
      "d": 300,
      "v": 84
    },
    {
      "midi": 69,
      "hit": false,
      "t": 27600,
      "d": 300,
      "v": 62
    },
    {
      "midi": 64,
      "hit": false,
      "t": 27600,
      "d": 600,
      "v": 73
    },
    {
      "midi": 73,
      "hit": false,
      "t": 27900,
      "d": 300,
      "v": 83
    },
    {
      "midi": 71,
      "hit": false,
      "t": 28200,
      "d": 300,
      "v": 73
    },
    {
      "midi": 52,
      "hit": false,
      "t": 28200,
      "d": 600,
      "v": 67
    },
    {
      "midi": 68,
      "hit": false,
      "t": 28500,
      "d": 300,
      "v": 66
    },
    {
      "midi": 69,
      "hit": false,
      "t": 28800,
      "d": 600,
      "v": 79
    },
    {
      "midi": 57,
      "hit": false,
      "t": 28800,
      "d": 600,
      "v": 79
    }
  ]
}