{
  "jsonPath": "Classical/Classical/Ludwig van Beethoven/moonlight-sonata-1st-movement.json",
  "path": "Classical\\Classical\\Ludwig van Beethoven\\Moonlight Sonata 1st movement.mid",
  "name": "Moonlight Sonata 1st movement",
  "difficulty": "Advanced",
  "bpm": 40,
  "notes": [
    {
      "midi": 56,
      "hit": false,
      "t": 0,
      "d": 500,
      "v": 100
    },
    {
      "midi": 37,
      "hit": false,
      "t": 0,
      "d": 6000,
      "v": 35
    },
    {
      "midi": 49,
      "hit": false,
      "t": 0,
      "d": 6000,
      "v": 35
    },
    {
      "midi": 61,
      "hit": false,
      "t": 500,
      "d": 500,
      "v": 100
    },
    {
      "midi": 64,
      "hit": false,
      "t": 1000,
      "d": 500,
      "v": 100
    },
    {
      "midi": 56,
      "hit": false,
      "t": 1500,
      "d": 500,
      "v": 100
    },
    {
      "midi": 61,
      "hit": false,
      "t": 2000,
      "d": 500,
      "v": 100
    },
    {
      "midi": 64,
      "hit": false,
      "t": 2500,
      "d": 500,
      "v": 100
    },
    {
      "midi": 56,
      "hit": false,
      "t": 3000,
      "d": 500,
      "v": 100
    },
    {
      "midi": 61,
      "hit": false,
      "t": 3500,
      "d": 500,
      "v": 100
    },
    {
      "midi": 64,
      "hit": false,
      "t": 4000,
      "d": 500,
      "v": 100
    },
    {
      "midi": 56,
      "hit": false,
      "t": 4500,
      "d": 500,
      "v": 100
    },
    {
      "midi": 61,
      "hit": false,
      "t": 5000,
      "d": 500,
      "v": 100
    },
    {
      "midi": 64,
      "hit": false,
      "t": 5500,
      "d": 500,
      "v": 100
    },
    {
      "midi": 56,
      "hit": false,
      "t": 6000,
      "d": 500,
      "v": 100
    },
    {
      "midi": 35,
      "hit": false,
      "t": 6000,
      "d": 6000,
      "v": 35
    },
    {
      "midi": 47,
      "hit": false,
      "t": 6000,
      "d": 6000,
      "v": 35
    },
    {
      "midi": 61,
      "hit": false,
      "t": 6500,
      "d": 500,
      "v": 100
    },
    {
      "midi": 64,
      "hit": false,
      "t": 7000,
      "d": 500,
      "v": 100
    },
    {
      "midi": 56,
      "hit": false,
      "t": 7500,
      "d": 500,
      "v": 100
    },
    {
      "midi": 61,
      "hit": false,
      "t": 8000,
      "d": 500,
      "v": 100
    },
    {
      "midi": 64,
      "hit": false,
      "t": 8500,
      "d": 500,
      "v": 100
    },
    {
      "midi": 56,
      "hit": false,
      "t": 9000,
      "d": 500,
      "v": 100
    },
    {
      "midi": 61,
      "hit": false,
      "t": 9500,
      "d": 500,
      "v": 100
    },
    {
      "midi": 64,
      "hit": false,
      "t": 10000,
      "d": 500,
      "v": 100
    },
    {
      "midi": 56,
      "hit": false,
      "t": 10500,
      "d": 500,
      "v": 100
    },
    {
      "midi": 61,
      "hit": false,
      "t": 11000,
      "d": 500,
      "v": 100
    },
    {
      "midi": 64,
      "hit": false,
      "t": 11500,
      "d": 500,
      "v": 100
    },
    {
      "midi": 57,
      "hit": false,
      "t": 12000,
      "d": 500,
      "v": 100
    },
    {
      "midi": 33,
      "hit": false,
      "t": 12000,
      "d": 3000,
      "v": 41
    },
    {
      "midi": 45,
      "hit": false,
      "t": 12000,
      "d": 3000,
      "v": 41
    },
    {
      "midi": 61,
      "hit": false,
      "t": 12500,
      "d": 500,
      "v": 100
    },
    {
      "midi": 64,
      "hit": false,
      "t": 13000,
      "d": 500,
      "v": 100
    },
    {
      "midi": 56,
      "hit": false,
      "t": 13500,
      "d": 500,
      "v": 100
    },
    {
      "midi": 61,
      "hit": false,
      "t": 14000,
      "d": 500,
      "v": 100
    },
    {
      "midi": 64,
      "hit": false,
      "t": 14500,
      "d": 500,
      "v": 100
    },
    {
      "midi": 56,
      "hit": false,
      "t": 15000,
      "d": 500,
      "v": 100
    },
    {
      "midi": 30,
      "hit": false,
      "t": 15000,
      "d": 3000,
      "v": 38
    },
    {
      "midi": 42,
      "hit": false,
      "t": 15000,
      "d": 3000,
      "v": 38
    },
    {
      "midi": 61,
      "hit": false,
      "t": 15500,
      "d": 500,
      "v": 100
    },
    {
      "midi": 64,
      "hit": false,
      "t": 16000,
      "d": 500,
      "v": 100
    },
    {
      "midi": 56,
      "hit": false,
      "t": 16500,
      "d": 500,
      "v": 100
    },
    {
      "midi": 61,
      "hit": false,
      "t": 17000,
      "d": 500,
      "v": 100
    },
    {
      "midi": 64,
      "hit": false,
      "t": 17500,
      "d": 500,
      "v": 100
    },
    {
      "midi": 56,
      "hit": false,
      "t": 18000,
      "d": 500,
      "v": 100
    },
    {
      "midi": 32,
      "hit": false,
      "t": 18000,
      "d": 3000,
      "v": 41
    },
    {
      "midi": 44,
      "hit": false,
      "t": 18000,
      "d": 3000,
      "v": 41
    },
    {
      "midi": 61,
      "hit": false,
      "t": 18500,
      "d": 500,
      "v": 100
    },
    {
      "midi": 64,
      "hit": false,
      "t": 19000,
      "d": 500,
      "v": 100
    },
    {
      "midi": 56,
      "hit": false,
      "t": 19500,
      "d": 500,
      "v": 100
    },
    {
      "midi": 61,
      "hit": false,
      "t": 20000,
      "d": 500,
      "v": 100
    },
    {
      "midi": 64,
      "hit": false,
      "t": 20500,
      "d": 500,
      "v": 100
    },
    {
      "midi": 56,
      "hit": false,
      "t": 21000,
      "d": 500,
      "v": 100
    },
    {
      "midi": 32,
      "hit": false,
      "t": 21000,
      "d": 3000,
      "v": 35
    },
    {
      "midi": 44,
      "hit": false,
      "t": 21000,
      "d": 3000,
      "v": 35
    },
    {
      "midi": 61,
      "hit": false,
      "t": 21500,
      "d": 500,
      "v": 100
    },
    {
      "midi": 64,
      "hit": false,
      "t": 22000,
      "d": 500,
      "v": 100
    },
    {
      "midi": 56,
      "hit": false,
      "t": 22500,
      "d": 500,
      "v": 100
    },
    {
      "midi": 61,
      "hit": false,
      "t": 23000,
      "d": 500,
      "v": 100
    },
    {
      "midi": 64,
      "hit": false,
      "t": 23500,
      "d": 500,
      "v": 100
    },
    {
      "midi": 52,
      "hit": false,
      "t": 24000,
      "d": 500,
      "v": 100
    },
    {
      "midi": 37,
      "hit": false,
      "t": 24000,
      "d": 6000,
      "v": 35
    },
    {
      "midi": 44,
      "hit": false,
      "t": 24000,
      "d": 6000,
      "v": 35
    },
    {
      "midi": 49,
      "hit": false,
      "t": 24000,
      "d": 6000,
      "v": 35
    },
    {
      "midi": 56,
      "hit": false,
      "t": 24500,
      "d": 500,
      "v": 100
    },
    {
      "midi": 61,
      "hit": false,
      "t": 25000,
      "d": 500,
      "v": 100
    },
    {
      "midi": 56,
      "hit": false,
      "t": 25500,
      "d": 500,
      "v": 100
    },
    {
      "midi": 61,
      "hit": false,
      "t": 26000,
      "d": 500,
      "v": 100
    },
    {
      "midi": 64,
      "hit": false,
      "t": 26500,
      "d": 500,
      "v": 100
    },
    {
      "midi": 56,
      "hit": false,
      "t": 27000,
      "d": 500,
      "v": 100
    },
    {
      "midi": 61,
      "hit": false,
      "t": 27500,
      "d": 500,
      "v": 100
    },
    {
      "midi": 64,
      "hit": false,
      "t": 28000,
      "d": 500,
      "v": 100
    },
    {
      "midi": 68,
      "hit": false,
      "t": 28500,
      "d": 1125,
      "v": 56
    },
    {
      "midi": 68,
      "hit": false,
      "t": 29625,
      "d": 375,
      "v": 50
    },
    {
      "midi": 68,
      "hit": false,
      "t": 30000,
      "d": 4500,
      "v": 50
    },
    {
      "midi": 36,
      "hit": false,
      "t": 30000,
      "d": 6000,
      "v": 38
    },
    {
      "midi": 44,
      "hit": false,
      "t": 30000,
      "d": 6000,
      "v": 38
    },
    {
      "midi": 48,
      "hit": false,
      "t": 30000,
      "d": 6000,
      "v": 38
    },
    {
      "midi": 68,
      "hit": false,
      "t": 34500,
      "d": 1125,
      "v": 56
    },
    {
      "midi": 68,
      "hit": false,
      "t": 35625,
      "d": 375,
      "v": 53
    },
    {
      "midi": 68,
      "hit": false,
      "t": 36000,
      "d": 3000,
      "v": 53
    },
    {
      "midi": 37,
      "hit": false,
      "t": 36000,
      "d": 3000,
      "v": 35
    },
    {
      "midi": 49,
      "hit": false,
      "t": 36000,
      "d": 3000,
      "v": 35
    },
    {
      "midi": 69,
      "hit": false,
      "t": 39000,
      "d": 3000,
      "v": 56
    },
    {
      "midi": 30,
      "hit": false,
      "t": 39000,
      "d": 3000,
      "v": 32
    },
    {
      "midi": 42,
      "hit": false,
      "t": 39000,
      "d": 3000,
      "v": 32
    },
    {
      "midi": 68,
      "hit": false,
      "t": 42000,
      "d": 3000,
      "v": 56
    },
    {
      "midi": 35,
      "hit": false,
      "t": 42000,
      "d": 3000,
      "v": 41
    },
    {
      "midi": 47,
      "hit": false,
      "t": 42000,
      "d": 3000,
      "v": 41
    },
    {
      "midi": 66,
      "hit": false,
      "t": 45000,
      "d": 1500,
      "v": 53
    },
    {
      "midi": 35,
      "hit": false,
      "t": 45000,
      "d": 3000,
      "v": 41
    },
    {
      "midi": 47,
      "hit": false,
      "t": 45000,
      "d": 3000,
      "v": 41
    },
    {
      "midi": 71,
      "hit": false,
      "t": 46500,
      "d": 1500,
      "v": 50
    },
    {
      "midi": 64,
      "hit": false,
      "t": 48000,
      "d": 1500,
      "v": 47
    },
    {
      "midi": 40,
      "hit": false,
      "t": 48000,
      "d": 6000,
      "v": 35
    },
    {
      "midi": 52,
      "hit": false,
      "t": 48000,
      "d": 6000,
      "v": 35
    },
    {
      "midi": 56,
      "hit": false,
      "t": 49500,
      "d": 500,
      "v": 100
    },
    {
      "midi": 59,
      "hit": false,
      "t": 50000,
      "d": 500,
      "v": 100
    },
    {
      "midi": 64,
      "hit": false,
      "t": 50500,
      "d": 500,
      "v": 100
    },
    {
      "midi": 56,
      "hit": false,
      "t": 51000,
      "d": 500,
      "v": 100
    },
    {
      "midi": 59,
      "hit": false,
      "t": 51500,
      "d": 500,
      "v": 100
    },
    {
      "midi": 64,
      "hit": false,
      "t": 52000,
      "d": 500,
      "v": 100
    },
    {
      "midi": 56,
      "hit": false,
      "t": 52500,
      "d": 500,
      "v": 100
    },
    {
      "midi": 59,
      "hit": false,
      "t": 53000,
      "d": 500,
      "v": 100
    },
    {
      "midi": 64,
      "hit": false,
      "t": 53500,
      "d": 500,
      "v": 100
    },
    {
      "midi": 55,
      "hit": false,
      "t": 54000,
      "d": 500,
      "v": 100
    },
    {
      "midi": 40,
      "hit": false,
      "t": 54000,
      "d": 6000,
      "v": 38
    },
    {
      "midi": 52,
      "hit": false,
      "t": 54000,
      "d": 6000,
      "v": 38
    },
    {
      "midi": 59,
      "hit": false,
      "t": 54500,
      "d": 500,
      "v": 100
    },
    {
      "midi": 64,
      "hit": false,
      "t": 55000,
      "d": 500,
      "v": 100
    },
    {
      "midi": 55,
      "hit": false,
      "t": 55500,
      "d": 500,
      "v": 100
    },
    {
      "midi": 59,
      "hit": false,
      "t": 56000,
      "d": 500,
      "v": 100
    },
    {
      "midi": 64,
      "hit": false,
      "t": 56500,
      "d": 500,
      "v": 100
    },
    {
      "midi": 55,
      "hit": false,
      "t": 57000,
      "d": 500,
      "v": 100
    },
    {
      "midi": 59,
      "hit": false,
      "t": 57500,
      "d": 500,
      "v": 100
    },
    {
      "midi": 64,
      "hit": false,
      "t": 58000,
      "d": 500,
      "v": 100
    },
    {
      "midi": 67,
      "hit": false,
      "t": 58500,
      "d": 1125,
      "v": 46
    },
    {
      "midi": 67,
      "hit": false,
      "t": 59625,
      "d": 375,
      "v": 45
    },
    {
      "midi": 67,
      "hit": false,
      "t": 60000,
      "d": 4500,
      "v": 45
    },
    {
      "midi": 38,
      "hit": false,
      "t": 60000,
      "d": 6000,
      "v": 35
    },
    {
      "midi": 50,
      "hit": false,
      "t": 60000,
      "d": 6000,
      "v": 35
    },
    {
      "midi": 67,
      "hit": false,
      "t": 64500,
      "d": 1125,
      "v": 50
    },
    {
      "midi": 67,
      "hit": false,
      "t": 65625,
      "d": 375,
      "v": 50
    },
    {
      "midi": 67,
      "hit": false,
      "t": 66000,
      "d": 4500,
      "v": 57
    },
    {
      "midi": 36,
      "hit": false,
      "t": 66000,
      "d": 1500,
      "v": 40
    },
    {
      "midi": 48,
      "hit": false,
      "t": 66000,
      "d": 1500,
      "v": 40
    },
    {
      "midi": 35,
      "hit": false,
      "t": 67500,
      "d": 1500,
      "v": 46
    },
    {
      "midi": 47,
      "hit": false,
      "t": 67500,
      "d": 1500,
      "v": 46
    },
    {
      "midi": 34,
      "hit": false,
      "t": 69000,
      "d": 3000,
      "v": 53
    },
    {
      "midi": 46,
      "hit": false,
      "t": 69000,
      "d": 3000,
      "v": 53
    },
    {
      "midi": 66,
      "hit": false,
      "t": 70500,
      "d": 1500,
      "v": 56
    },
    {
      "midi": 66,
      "hit": false,
      "t": 72000,
      "d": 3000,
      "v": 65
    },
    {
      "midi": 35,
      "hit": false,
      "t": 72000,
      "d": 3000,
      "v": 42
    },
    {
      "midi": 47,
      "hit": false,
      "t": 72000,
      "d": 3000,
      "v": 42
    },
    {
      "midi": 67,
      "hit": false,
      "t": 75000,
      "d": 1500,
      "v": 56
    },
    {
      "midi": 40,
      "hit": false,
      "t": 75000,
      "d": 1500,
      "v": 41
    },
    {
      "midi": 64,
      "hit": false,
      "t": 76500,
      "d": 1500,
      "v": 47
    },
    {
      "midi": 43,
      "hit": false,
      "t": 76500,
      "d": 1500,
      "v": 40
    },
    {
      "midi": 66,
      "hit": false,
      "t": 78000,
      "d": 3000,
      "v": 53
    },
    {
      "midi": 42,
      "hit": false,
      "t": 78000,
      "d": 3000,
      "v": 46
    },
    {
      "midi": 66,
      "hit": false,
      "t": 81000,
      "d": 3000,
      "v": 47
    },
    {
      "midi": 30,
      "hit": false,
      "t": 81000,
      "d": 3000,
      "v": 35
    },
    {
      "midi": 42,
      "hit": false,
      "t": 81000,
      "d": 3000,
      "v": 35
    },
    {
      "midi": 59,
      "hit": false,
      "t": 84000,
      "d": 500,
      "v": 100
    },
    {
      "midi": 35,
      "hit": false,
      "t": 84000,
      "d": 6000,
      "v": 35
    },
    {
      "midi": 47,
      "hit": false,
      "t": 84000,
      "d": 6000,
      "v": 35
    },
    {
      "midi": 62,
      "hit": false,
      "t": 84500,
      "d": 500,
      "v": 100
    },
    {
      "midi": 66,
      "hit": false,
      "t": 85000,
      "d": 500,
      "v": 100
    },
    {
      "midi": 59,
      "hit": false,
      "t": 85500,
      "d": 500,
      "v": 100
    },
    {
      "midi": 62,
      "hit": false,
      "t": 86000,
      "d": 500,
      "v": 100
    },
    {
      "midi": 66,
      "hit": false,
      "t": 86500,
      "d": 500,
      "v": 100
    },
    {
      "midi": 59,
      "hit": false,
      "t": 87000,
      "d": 500,
      "v": 100
    },
    {
      "midi": 63,
      "hit": false,
      "t": 87500,
      "d": 500,
      "v": 100
    },
    {
      "midi": 66,
      "hit": false,
      "t": 88000,
      "d": 500,
      "v": 100
    },
    {
      "midi": 71,
      "hit": false,
      "t": 88500,
      "d": 1500,
      "v": 56
    },
    {
      "midi": 72,
      "hit": false,
      "t": 90000,
      "d": 4500,
      "v": 63
    },
    {
      "midi": 40,
      "hit": false,
      "t": 91500,
      "d": 1500,
      "v": 53
    },
    {
      "midi": 52,
      "hit": false,
      "t": 91500,
      "d": 1500,
      "v": 53
    },
    {
      "midi": 43,
      "hit": false,
      "t": 93000,
      "d": 1500,
      "v": 60
    },
    {
      "midi": 55,
      "hit": false,
      "t": 93000,
      "d": 1500,
      "v": 60
    },
    {
      "midi": 70,
      "hit": false,
      "t": 94500,
      "d": 1500,
      "v": 56
    },
    {
      "midi": 40,
      "hit": false,
      "t": 94500,
      "d": 1500,
      "v": 48
    },
    {
      "midi": 52,
      "hit": false,
      "t": 94500,
      "d": 1500,
      "v": 48
    },
    {
      "midi": 71,
      "hit": false,
      "t": 96000,
      "d": 4500,
      "v": 56
    },
    {
      "midi": 35,
      "hit": false,
      "t": 96000,
      "d": 6000,
      "v": 42
    },
    {
      "midi": 47,
      "hit": false,
      "t": 96000,
      "d": 6000,
      "v": 42
    },
    {
      "midi": 71,
      "hit": false,
      "t": 100500,
      "d": 1500,
      "v": 56
    },
    {
      "midi": 72,
      "hit": false,
      "t": 102000,
      "d": 4500,
      "v": 63
    },
    {
      "midi": 40,
      "hit": false,
      "t": 103500,
      "d": 1500,
      "v": 50
    },
    {
      "midi": 52,
      "hit": false,
      "t": 103500,
      "d": 1500,
      "v": 50
    },
    {
      "midi": 43,
      "hit": false,
      "t": 105000,
      "d": 1500,
      "v": 55
    },
    {
      "midi": 55,
      "hit": false,
      "t": 105000,
      "d": 1500,
      "v": 55
    },
    {
      "midi": 70,
      "hit": false,
      "t": 106500,
      "d": 1500,
      "v": 56
    },
    {
      "midi": 40,
      "hit": false,
      "t": 106500,
      "d": 1500,
      "v": 41
    },
    {
      "midi": 52,
      "hit": false,
      "t": 106500,
      "d": 1500,
      "v": 41
    },
    {
      "midi": 71,
      "hit": false,
      "t": 108000,
      "d": 3000,
      "v": 56
    },
    {
      "midi": 35,
      "hit": false,
      "t": 108000,
      "d": 3000,
      "v": 37
    },
    {
      "midi": 47,
      "hit": false,
      "t": 108000,
      "d": 3000,
      "v": 37
    },
    {
      "midi": 71,
      "hit": false,
      "t": 111000,
      "d": 3000,
      "v": 47
    },
    {
      "midi": 32,
      "hit": false,
      "t": 111000,
      "d": 3000,
      "v": 35
    },
    {
      "midi": 44,
      "hit": false,
      "t": 111000,
      "d": 3000,
      "v": 35
    },
    {
      "midi": 71,
      "hit": false,
      "t": 114000,
      "d": 3000,
      "v": 47
    },
    {
      "midi": 29,
      "hit": false,
      "t": 114000,
      "d": 3000,
      "v": 35
    },
    {
      "midi": 41,
      "hit": false,
      "t": 114000,
      "d": 3000,
      "v": 35
    },
    {
      "midi": 69,
      "hit": false,
      "t": 117000,
      "d": 3000,
      "v": 52
    },
    {
      "midi": 30,
      "hit": false,
      "t": 117000,
      "d": 3000,
      "v": 41
    },
    {
      "midi": 42,
      "hit": false,
      "t": 117000,
      "d": 3000,
      "v": 41
    },
    {
      "midi": 67,
      "hit": false,
      "t": 120000,
      "d": 3000,
      "v": 56
    },
    {
      "midi": 35,
      "hit": false,
      "t": 120000,
      "d": 3000,
      "v": 41
    },
    {
      "midi": 47,
      "hit": false,
      "t": 120000,
      "d": 3000,
      "v": 41
    },
    {
      "midi": 66,
      "hit": false,
      "t": 123000,
      "d": 3000,
      "v": 52
    },
    {
      "midi": 36,
      "hit": false,
      "t": 123000,
      "d": 3000,
      "v": 45
    },
    {
      "midi": 48,
      "hit": false,
      "t": 123000,
      "d": 3000,
      "v": 45
    },
    {
      "midi": 61,
      "hit": false,
      "t": 126000,
      "d": 3000,
      "v": 47
    },
    {
      "midi": 37,
      "hit": false,
      "t": 126000,
      "d": 3000,
      "v": 35
    },
    {
      "midi": 61,
      "hit": false,
      "t": 129000,
      "d": 1500,
      "v": 47
    },
    {
      "midi": 37,
      "hit": false,
      "t": 129000,
      "d": 3000,
      "v": 35
    },
    {
      "midi": 61,
      "hit": false,
      "t": 130500,
      "d": 1500,
      "v": 41
    },
    {
      "midi": 54,
      "hit": false,
      "t": 132000,
      "d": 500,
      "v": 100
    },
    {
      "midi": 30,
      "hit": false,
      "t": 132000,
      "d": 6000,
      "v": 35
    },
    {
      "midi": 37,
      "hit": false,
      "t": 132000,
      "d": 6000,
      "v": 35
    },
    {
      "midi": 42,
      "hit": false,
      "t": 132000,
      "d": 6000,
      "v": 35
    },
    {
      "midi": 57,
      "hit": false,
      "t": 132500,
      "d": 500,
      "v": 100
    },
    {
      "midi": 61,
      "hit": false,
      "t": 133000,
      "d": 500,
      "v": 100
    },
    {
      "midi": 57,
      "hit": false,
      "t": 133500,
      "d": 500,
      "v": 100
    },
    {
      "midi": 61,
      "hit": false,
      "t": 134000,
      "d": 500,
      "v": 100
    },
    {
      "midi": 66,
      "hit": false,
      "t": 134500,
      "d": 500,
      "v": 100
    },
    {
      "midi": 61,
      "hit": false,
      "t": 135000,
      "d": 500,
      "v": 100
    },
    {
      "midi": 66,
      "hit": false,
      "t": 135500,
      "d": 500,
      "v": 100
    },
    {
      "midi": 69,
      "hit": false,
      "t": 136000,
      "d": 500,
      "v": 100
    },
    {
      "midi": 73,
      "hit": false,
      "t": 136500,
      "d": 1125,
      "v": 56
    },
    {
      "midi": 73,
      "hit": false,
      "t": 137625,
      "d": 375,
      "v": 56
    },
    {
      "midi": 73,
      "hit": false,
      "t": 138000,
      "d": 4500,
      "v": 61
    },
    {
      "midi": 41,
      "hit": false,
      "t": 138000,
      "d": 6000,
      "v": 33
    },
    {
      "midi": 49,
      "hit": false,
      "t": 138000,
      "d": 6000,
      "v": 33
    },
    {
      "midi": 53,
      "hit": false,
      "t": 138000,
      "d": 6000,
      "v": 33
    },
    {
      "midi": 73,
      "hit": false,
      "t": 142500,
      "d": 1125,
      "v": 56
    },
    {
      "midi": 73,
      "hit": false,
      "t": 143625,
      "d": 375,
      "v": 56
    },
    {
      "midi": 73,
      "hit": false,
      "t": 144000,
      "d": 3000,
      "v": 65
    },
    {
      "midi": 42,
      "hit": false,
      "t": 144000,
      "d": 3000,
      "v": 40
    },
    {
      "midi": 54,
      "hit": false,
      "t": 144000,
      "d": 3000,
      "v": 40
    },
    {
      "midi": 72,
      "hit": false,
      "t": 147000,
      "d": 1500,
      "v": 61
    },
    {
      "midi": 39,
      "hit": false,
      "t": 147000,
      "d": 1500,
      "v": 46
    },
    {
      "midi": 51,
      "hit": false,
      "t": 147000,
      "d": 1500,
      "v": 46
    },
    {
      "midi": 73,
      "hit": false,
      "t": 148500,
      "d": 1500,
      "v": 63
    },
    {
      "midi": 37,
      "hit": false,
      "t": 148500,
      "d": 1500,
      "v": 46
    },
    {
      "midi": 49,
      "hit": false,
      "t": 148500,
      "d": 1500,
      "v": 46
    },
    {
      "midi": 75,
      "hit": false,
      "t": 150000,
      "d": 4500,
      "v": 65
    },
    {
      "midi": 36,
      "hit": false,
      "t": 150000,
      "d": 4500,
      "v": 50
    },
    {
      "midi": 44,
      "hit": false,
      "t": 150000,
      "d": 4500,
      "v": 50
    },
    {
      "midi": 48,
      "hit": false,
      "t": 150000,
      "d": 4500,
      "v": 50
    },
    {
      "midi": 75,
      "hit": false,
      "t": 154500,
      "d": 1500,
      "v": 72
    },
    {
      "midi": 36,
      "hit": false,
      "t": 154500,
      "d": 1500,
      "v": 48
    },
    {
      "midi": 44,
      "hit": false,
      "t": 154500,
      "d": 1500,
      "v": 48
    },
    {
      "midi": 48,
      "hit": false,
      "t": 154500,
      "d": 1500,
      "v": 48
    },
    {
      "midi": 76,
      "hit": false,
      "t": 156000,
      "d": 3000,
      "v": 86
    },
    {
      "midi": 37,
      "hit": false,
      "t": 156000,
      "d": 3000,
      "v": 55
    },
    {
      "midi": 44,
      "hit": false,
      "t": 156000,
      "d": 3000,
      "v": 55
    },
    {
      "midi": 49,
      "hit": false,
      "t": 156000,
      "d": 3000,
      "v": 55
    },
    {
      "midi": 75,
      "hit": false,
      "t": 159000,
      "d": 1500,
      "v": 65
    },
    {
      "midi": 30,
      "hit": false,
      "t": 159000,
      "d": 1500,
      "v": 46
    },
    {
      "midi": 42,
      "hit": false,
      "t": 159000,
      "d": 1500,
      "v": 46
    },
    {
      "midi": 73,
      "hit": false,
      "t": 160500,
      "d": 1500,
      "v": 56
    },
    {
      "midi": 31,
      "hit": false,
      "t": 160500,
      "d": 1500,
      "v": 45
    },
    {
      "midi": 43,
      "hit": false,
      "t": 160500,
      "d": 1500,
      "v": 45
    },
    {
      "midi": 72,
      "hit": false,
      "t": 162000,
      "d": 500,
      "v": 100
    },
    {
      "midi": 32,
      "hit": false,
      "t": 162000,
      "d": 6000,
      "v": 41
    },
    {
      "midi": 44,
      "hit": false,
      "t": 162000,
      "d": 6000,
      "v": 41
    },
    {
      "midi": 60,
      "hit": false,
      "t": 162500,
      "d": 500,
      "v": 100
    },
    {
      "midi": 63,
      "hit": false,
      "t": 163000,
      "d": 500,
      "v": 100
    },
    {
      "midi": 68,
      "hit": false,
      "t": 163500,
      "d": 500,
      "v": 100
    },
    {
      "midi": 60,
      "hit": false,
      "t": 164000,
      "d": 500,
      "v": 100
    },
    {
      "midi": 63,
      "hit": false,
      "t": 164500,
      "d": 500,
      "v": 100
    },
    {
      "midi": 69,
      "hit": false,
      "t": 165000,
      "d": 500,
      "v": 100
    },
    {
      "midi": 60,
      "hit": false,
      "t": 165500,
      "d": 500,
      "v": 100
    },
    {
      "midi": 63,
      "hit": false,
      "t": 166000,
      "d": 500,
      "v": 100
    },
    {
      "midi": 66,
      "hit": false,
      "t": 166500,
      "d": 500,
      "v": 100
    },
    {
      "midi": 60,
      "hit": false,
      "t": 167000,
      "d": 500,
      "v": 100
    },
    {
      "midi": 63,
      "hit": false,
      "t": 167500,
      "d": 500,
      "v": 100
    },
    {
      "midi": 32,
      "hit": false,
      "t": 168000,
      "d": 6000,
      "v": 53
    },
    {
      "midi": 44,
      "hit": false,
      "t": 168000,
      "d": 6000,
      "v": 53
    },
    {
      "midi": 60,
      "hit": false,
      "t": 168500,
      "d": 500,
      "v": 100
    },
    {
      "midi": 63,
      "hit": false,
      "t": 169000,
      "d": 500,
      "v": 100
    },
    {
      "midi": 56,
      "hit": false,
      "t": 169500,
      "d": 500,
      "v": 100
    },
    {
      "midi": 60,
      "hit": false,
      "t": 170000,
      "d": 500,
      "v": 100
    },
    {
      "midi": 63,
      "hit": false,
      "t": 170500,
      "d": 500,
      "v": 100
    },
    {
      "midi": 57,
      "hit": false,
      "t": 171000,
      "d": 500,
      "v": 100
    },
    {
      "midi": 60,
      "hit": false,
      "t": 171500,
      "d": 500,
      "v": 100
    },
    {
      "midi": 63,
      "hit": false,
      "t": 172000,
      "d": 500,
      "v": 100
    },
    {
      "midi": 54,
      "hit": false,
      "t": 172500,
      "d": 500,
      "v": 100
    },
    {
      "midi": 60,
      "hit": false,
      "t": 173000,
      "d": 500,
      "v": 100
    },
    {
      "midi": 63,
      "hit": false,
      "t": 173500,
      "d": 500,
      "v": 100
    },
    {
      "midi": 52,
      "hit": false,
      "t": 174000,
      "d": 500,
      "v": 100
    },
    {
      "midi": 32,
      "hit": false,
      "t": 174000,
      "d": 6000,
      "v": 46
    },
    {
      "midi": 44,
      "hit": false,
      "t": 174000,
      "d": 6000,
      "v": 46
    },
    {
      "midi": 64,
      "hit": false,
      "t": 174500,
      "d": 500,
      "v": 100
    },
    {
      "midi": 68,
      "hit": false,
      "t": 175000,
      "d": 500,
      "v": 100
    },
    {
      "midi": 73,
      "hit": false,
      "t": 175500,
      "d": 500,
      "v": 100
    },
    {
      "midi": 64,
      "hit": false,
      "t": 176000,
      "d": 500,
      "v": 100
    },
    {
      "midi": 68,
      "hit": false,
      "t": 176500,
      "d": 500,
      "v": 100
    },
    {
      "midi": 76,
      "hit": false,
      "t": 177000,
      "d": 500,
      "v": 100
    },
    {
      "midi": 64,
      "hit": false,
      "t": 177500,
      "d": 500,
      "v": 100
    },
    {
      "midi": 68,
      "hit": false,
      "t": 178000,
      "d": 500,
      "v": 100
    },
    {
      "midi": 73,
      "hit": false,
      "t": 178500,
      "d": 500,
      "v": 100
    },
    {
      "midi": 64,
      "hit": false,
      "t": 179000,
      "d": 500,
      "v": 100
    },
    {
      "midi": 68,
      "hit": false,
      "t": 179500,
      "d": 500,
      "v": 100
    },
    {
      "midi": 32,
      "hit": false,
      "t": 180000,
      "d": 6000,
      "v": 52
    },
    {
      "midi": 44,
      "hit": false,
      "t": 180000,
      "d": 6000,
      "v": 52
    },
    {
      "midi": 52,
      "hit": false,
      "t": 180500,
      "d": 500,
      "v": 100
    },
    {
      "midi": 56,
      "hit": false,
      "t": 181000,
      "d": 500,
      "v": 100
    },
    {
      "midi": 61,
      "hit": false,
      "t": 181500,
      "d": 500,
      "v": 100
    },
    {
      "midi": 52,
      "hit": false,
      "t": 182000,
      "d": 500,
      "v": 100
    },
    {
      "midi": 56,
      "hit": false,
      "t": 182500,
      "d": 500,
      "v": 100
    },
    {
      "midi": 64,
      "hit": false,
      "t": 183000,
      "d": 500,
      "v": 100
    },
    {
      "midi": 52,
      "hit": false,
      "t": 183500,
      "d": 500,
      "v": 100
    },
    {
      "midi": 56,
      "hit": false,
      "t": 184000,
      "d": 500,
      "v": 100
    },
    {
      "midi": 61,
      "hit": false,
      "t": 184500,
      "d": 500,
      "v": 100
    },
    {
      "midi": 52,
      "hit": false,
      "t": 185000,
      "d": 500,
      "v": 100
    },
    {
      "midi": 56,
      "hit": false,
      "t": 185500,
      "d": 500,
      "v": 100
    },
    {
      "midi": 51,
      "hit": false,
      "t": 186000,
      "d": 500,
      "v": 100
    },
    {
      "midi": 32,
      "hit": false,
      "t": 186000,
      "d": 6000,
      "v": 46
    },
    {
      "midi": 44,
      "hit": false,
      "t": 186000,
      "d": 6000,
      "v": 46
    },
    {
      "midi": 57,
      "hit": false,
      "t": 186500,
      "d": 500,
      "v": 100
    },
    {
      "midi": 54,
      "hit": false,
      "t": 187000,
      "d": 500,
      "v": 100
    },
    {
      "midi": 60,
      "hit": false,
      "t": 187500,
      "d": 500,
      "v": 100
    },
    {
      "midi": 57,
      "hit": false,
      "t": 188000,
      "d": 500,
      "v": 100
    },
    {
      "midi": 63,
      "hit": false,
      "t": 188500,
      "d": 500,
      "v": 100
    },
    {
      "midi": 60,
      "hit": false,
      "t": 189000,
      "d": 500,
      "v": 100
    },
    {
      "midi": 66,
      "hit": false,
      "t": 189500,
      "d": 500,
      "v": 100
    },
    {
      "midi": 63,
      "hit": false,
      "t": 190000,
      "d": 500,
      "v": 100
    },
    {
      "midi": 69,
      "hit": false,
      "t": 190500,
      "d": 500,
      "v": 100
    },
    {
      "midi": 66,
      "hit": false,
      "t": 191000,
      "d": 500,
      "v": 100
    },
    {
      "midi": 72,
      "hit": false,
      "t": 191500,
      "d": 500,
      "v": 100
    },
    {
      "midi": 52,
      "hit": false,
      "t": 192000,
      "d": 500,
      "v": 100
    },
    {
      "midi": 32,
      "hit": false,
      "t": 192000,
      "d": 6000,
      "v": 46
    },
    {
      "midi": 44,
      "hit": false,
      "t": 192000,
      "d": 6000,
      "v": 46
    },
    {
      "midi": 61,
      "hit": false,
      "t": 192500,
      "d": 500,
      "v": 100
    },
    {
      "midi": 56,
      "hit": false,
      "t": 193000,
      "d": 500,
      "v": 100
    },
    {
      "midi": 64,
      "hit": false,
      "t": 193500,
      "d": 500,
      "v": 100
    },
    {
      "midi": 61,
      "hit": false,
      "t": 194000,
      "d": 500,
      "v": 100
    },
    {
      "midi": 68,
      "hit": false,
      "t": 194500,
      "d": 500,
      "v": 100
    },
    {
      "midi": 64,
      "hit": false,
      "t": 195000,
      "d": 500,
      "v": 100
    },
    {
      "midi": 73,
      "hit": false,
      "t": 195500,
      "d": 500,
      "v": 100
    },
    {
      "midi": 68,
      "hit": false,
      "t": 196000,
      "d": 500,
      "v": 100
    },
    {
      "midi": 76,
      "hit": false,
      "t": 196500,
      "d": 500,
      "v": 100
    },
    {
      "midi": 73,
      "hit": false,
      "t": 197000,
      "d": 500,
      "v": 100
    },
    {
      "midi": 68,
      "hit": false,
      "t": 197500,
      "d": 500,
      "v": 100
    },
    {
      "midi": 61,
      "hit": false,
      "t": 198000,
      "d": 500,
      "v": 100
    },
    {
      "midi": 32,
      "hit": false,
      "t": 198000,
      "d": 6000,
      "v": 45
    },
    {
      "midi": 44,
      "hit": false,
      "t": 198000,
      "d": 6000,
      "v": 45
    },
    {
      "midi": 67,
      "hit": false,
      "t": 198500,
      "d": 500,
      "v": 100
    },
    {
      "midi": 64,
      "hit": false,
      "t": 199000,
      "d": 500,
      "v": 100
    },
    {
      "midi": 70,
      "hit": false,
      "t": 199500,
      "d": 500,
      "v": 100
    },
    {
      "midi": 67,
      "hit": false,
      "t": 200000,
      "d": 500,
      "v": 100
    },
    {
      "midi": 73,
      "hit": false,
      "t": 200500,
      "d": 500,
      "v": 100
    },
    {
      "midi": 70,
      "hit": false,
      "t": 201000,
      "d": 500,
      "v": 100
    },
    {
      "midi": 76,
      "hit": false,
      "t": 201500,
      "d": 500,
      "v": 100
    },
    {
      "midi": 73,
      "hit": false,
      "t": 202000,
      "d": 500,
      "v": 100
    },
    {
      "midi": 79,
      "hit": false,
      "t": 202500,
      "d": 500,
      "v": 100
    },
    {
      "midi": 76,
      "hit": false,
      "t": 203000,
      "d": 500,
      "v": 100
    },
    {
      "midi": 82,
      "hit": false,
      "t": 203500,
      "d": 500,
      "v": 100
    },
    {
      "midi": 66,
      "hit": false,
      "t": 204000,
      "d": 500,
      "v": 100
    },
    {
      "midi": 32,
      "hit": false,
      "t": 204000,
      "d": 6000,
      "v": 46
    },
    {
      "midi": 44,
      "hit": false,
      "t": 204000,
      "d": 6000,
      "v": 46
    },
    {
      "midi": 72,
      "hit": false,
      "t": 204500,
      "d": 500,
      "v": 100
    },
    {
      "midi": 69,
      "hit": false,
      "t": 205000,
      "d": 500,
      "v": 100
    },
    {
      "midi": 75,
      "hit": false,
      "t": 205500,
      "d": 500,
      "v": 100
    },
    {
      "midi": 72,
      "hit": false,
      "t": 206000,
      "d": 500,
      "v": 100
    },
    {
      "midi": 78,
      "hit": false,
      "t": 206500,
      "d": 500,
      "v": 100
    },
    {
      "midi": 75,
      "hit": false,
      "t": 207000,
      "d": 500,
      "v": 100
    },
    {
      "midi": 81,
      "hit": false,
      "t": 207500,
      "d": 500,
      "v": 100
    },
    {
      "midi": 78,
      "hit": false,
      "t": 208000,
      "d": 500,
      "v": 100
    },
    {
      "midi": 84,
      "hit": false,
      "t": 208500,
      "d": 500,
      "v": 100
    },
    {
      "midi": 81,
      "hit": false,
      "t": 209000,
      "d": 500,
      "v": 100
    },
    {
      "midi": 87,
      "hit": false,
      "t": 209500,
      "d": 500,
      "v": 100
    },
    {
      "midi": 84,
      "hit": false,
      "t": 210000,
      "d": 500,
      "v": 100
    },
    {
      "midi": 78,
      "hit": false,
      "t": 210500,
      "d": 500,
      "v": 100
    },
    {
      "midi": 81,
      "hit": false,
      "t": 211000,
      "d": 500,
      "v": 100
    },
    {
      "midi": 75,
      "hit": false,
      "t": 211500,
      "d": 500,
      "v": 100
    },
    {
      "midi": 78,
      "hit": false,
      "t": 212000,
      "d": 500,
      "v": 100
    },
    {
      "midi": 72,
      "hit": false,
      "t": 212500,
      "d": 500,
      "v": 100
    },
    {
      "midi": 75,
      "hit": false,
      "t": 213000,
      "d": 500,
      "v": 100
    },
    {
      "midi": 69,
      "hit": false,
      "t": 213500,
      "d": 500,
      "v": 100
    },
    {
      "midi": 72,
      "hit": false,
      "t": 214000,
      "d": 500,
      "v": 100
    },
    {
      "midi": 66,
      "hit": false,
      "t": 214500,
      "d": 500,
      "v": 100
    },
    {
      "midi": 69,
      "hit": false,
      "t": 215000,
      "d": 500,
      "v": 100
    },
    {
      "midi": 63,
      "hit": false,
      "t": 215500,
      "d": 500,
      "v": 100
    },
    {
      "midi": 66,
      "hit": false,
      "t": 216000,
      "d": 500,
      "v": 100
    },
    {
      "midi": 60,
      "hit": false,
      "t": 216500,
      "d": 500,
      "v": 100
    },
    {
      "midi": 63,
      "hit": false,
      "t": 217000,
      "d": 500,
      "v": 100
    },
    {
      "midi": 57,
      "hit": false,
      "t": 217500,
      "d": 500,
      "v": 100
    },
    {
      "midi": 60,
      "hit": false,
      "t": 218000,
      "d": 500,
      "v": 100
    },
    {
      "midi": 54,
      "hit": false,
      "t": 218500,
      "d": 500,
      "v": 100
    },
    {
      "midi": 57,
      "hit": false,
      "t": 219000,
      "d": 500,
      "v": 100
    },
    {
      "midi": 51,
      "hit": false,
      "t": 219500,
      "d": 500,
      "v": 100
    },
    {
      "midi": 54,
      "hit": false,
      "t": 220000,
      "d": 500,
      "v": 100
    },
    {
      "midi": 49,
      "hit": false,
      "t": 220500,
      "d": 500,
      "v": 100
    },
    {
      "midi": 54,
      "hit": false,
      "t": 221000,
      "d": 500,
      "v": 100
    },
    {
      "midi": 57,
      "hit": false,
      "t": 221500,
      "d": 500,
      "v": 100
    },
    {
      "midi": 48,
      "hit": false,
      "t": 222000,
      "d": 500,
      "v": 100
    },
    {
      "midi": 32,
      "hit": false,
      "t": 222000,
      "d": 6000,
      "v": 56
    },
    {
      "midi": 44,
      "hit": false,
      "t": 222000,
      "d": 6000,
      "v": 56
    },
    {
      "midi": 54,
      "hit": false,
      "t": 222500,
      "d": 500,
      "v": 100
    },
    {
      "midi": 56,
      "hit": false,
      "t": 223000,
      "d": 500,
      "v": 100
    },
    {
      "midi": 57,
      "hit": false,
      "t": 223500,
      "d": 500,
      "v": 100
    },
    {
      "midi": 56,
      "hit": false,
      "t": 224000,
      "d": 500,
      "v": 100
    },
    {
      "midi": 54,
      "hit": false,
      "t": 224500,
      "d": 500,
      "v": 100
    },
    {
      "midi": 51,
      "hit": false,
      "t": 225000,
      "d": 500,
      "v": 100
    },
    {
      "midi": 54,
      "hit": false,
      "t": 225500,
      "d": 500,
      "v": 100
    },
    {
      "midi": 57,
      "hit": false,
      "t": 226000,
      "d": 500,
      "v": 100
    },
    {
      "midi": 49,
      "hit": false,
      "t": 226500,
      "d": 500,
      "v": 100
    },
    {
      "midi": 54,
      "hit": false,
      "t": 227000,
      "d": 500,
      "v": 100
    },
    {
      "midi": 57,
      "hit": false,
      "t": 227500,
      "d": 500,
      "v": 100
    },
    {
      "midi": 48,
      "hit": false,
      "t": 228000,
      "d": 500,
      "v": 100
    },
    {
      "midi": 32,
      "hit": false,
      "t": 228000,
      "d": 6000,
      "v": 47
    },
    {
      "midi": 44,
      "hit": false,
      "t": 228000,
      "d": 6000,
      "v": 47
    },
    {
      "midi": 54,
      "hit": false,
      "t": 228500,
      "d": 500,
      "v": 100
    },
    {
      "midi": 56,
      "hit": false,
      "t": 229000,
      "d": 500,
      "v": 100
    },
    {
      "midi": 57,
      "hit": false,
      "t": 229500,
      "d": 500,
      "v": 100
    },
    {
      "midi": 56,
      "hit": false,
      "t": 230000,
      "d": 500,
      "v": 100
    },
    {
      "midi": 54,
      "hit": false,
      "t": 230500,
      "d": 500,
      "v": 100
    },
    {
      "midi": 50,
      "hit": false,
      "t": 231000,
      "d": 500,
      "v": 100
    },
    {
      "midi": 54,
      "hit": false,
      "t": 231500,
      "d": 500,
      "v": 100
    },
    {
      "midi": 57,
      "hit": false,
      "t": 232000,
      "d": 500,
      "v": 100
    },
    {
      "midi": 49,
      "hit": false,
      "t": 232500,
      "d": 500,
      "v": 100
    },
    {
      "midi": 54,
      "hit": false,
      "t": 233000,
      "d": 500,
      "v": 100
    },
    {
      "midi": 57,
      "hit": false,
      "t": 233500,
      "d": 500,
      "v": 100
    },
    {
      "midi": 48,
      "hit": false,
      "t": 234000,
      "d": 500,
      "v": 100
    },
    {
      "midi": 32,
      "hit": false,
      "t": 234000,
      "d": 3000,
      "v": 42
    },
    {
      "midi": 44,
      "hit": false,
      "t": 234000,
      "d": 3000,
      "v": 42
    },
    {
      "midi": 48,
      "hit": false,
      "t": 234000,
      "d": 3000,
      "v": 42
    },
    {
      "midi": 54,
      "hit": false,
      "t": 234500,
      "d": 500,
      "v": 100
    },
    {
      "midi": 56,
      "hit": false,
      "t": 235000,
      "d": 500,
      "v": 100
    },
    {
      "midi": 57,
      "hit": false,
      "t": 235500,
      "d": 500,
      "v": 100
    },
    {
      "midi": 56,
      "hit": false,
      "t": 236000,
      "d": 500,
      "v": 100
    },
    {
      "midi": 54,
      "hit": false,
      "t": 236500,
      "d": 500,
      "v": 100
    },
    {
      "midi": 49,
      "hit": false,
      "t": 237000,
      "d": 500,
      "v": 100
    },
    {
      "midi": 33,
      "hit": false,
      "t": 237000,
      "d": 3000,
      "v": 41
    },
    {
      "midi": 45,
      "hit": false,
      "t": 237000,
      "d": 3000,
      "v": 41
    },
    {
      "midi": 52,
      "hit": false,
      "t": 237500,
      "d": 500,
      "v": 100
    },
    {
      "midi": 61,
      "hit": false,
      "t": 238000,
      "d": 500,
      "v": 100
    },
    {
      "midi": 49,
      "hit": false,
      "t": 238500,
      "d": 500,
      "v": 100
    },
    {
      "midi": 52,
      "hit": false,
      "t": 239000,
      "d": 500,
      "v": 100
    },
    {
      "midi": 61,
      "hit": false,
      "t": 239500,
      "d": 500,
      "v": 100
    },
    {
      "midi": 51,
      "hit": false,
      "t": 240000,
      "d": 500,
      "v": 100
    },
    {
      "midi": 30,
      "hit": false,
      "t": 240000,
      "d": 3000,
      "v": 35
    },
    {
      "midi": 42,
      "hit": false,
      "t": 240000,
      "d": 3000,
      "v": 35
    },
    {
      "midi": 57,
      "hit": false,
      "t": 240500,
      "d": 500,
      "v": 100
    },
    {
      "midi": 61,
      "hit": false,
      "t": 241000,
      "d": 500,
      "v": 100
    },
    {
      "midi": 51,
      "hit": false,
      "t": 241500,
      "d": 500,
      "v": 100
    },
    {
      "midi": 57,
      "hit": false,
      "t": 242000,
      "d": 500,
      "v": 100
    },
    {
      "midi": 61,
      "hit": false,
      "t": 242500,
      "d": 500,
      "v": 100
    },
    {
      "midi": 51,
      "hit": false,
      "t": 243000,
      "d": 500,
      "v": 100
    },
    {
      "midi": 32,
      "hit": false,
      "t": 243000,
      "d": 3000,
      "v": 46
    },
    {
      "midi": 44,
      "hit": false,
      "t": 243000,
      "d": 3000,
      "v": 46
    },
    {
      "midi": 56,
      "hit": false,
      "t": 243500,
      "d": 500,
      "v": 100
    },
    {
      "midi": 60,
      "hit": false,
      "t": 244000,
      "d": 500,
      "v": 100
    },
    {
      "midi": 51,
      "hit": false,
      "t": 244500,
      "d": 500,
      "v": 100
    },
    {
      "midi": 54,
      "hit": false,
      "t": 245000,
      "d": 500,
      "v": 100
    },
    {
      "midi": 60,
      "hit": false,
      "t": 245500,
      "d": 500,
      "v": 100
    },
    {
      "midi": 52,
      "hit": false,
      "t": 246000,
      "d": 500,
      "v": 100
    },
    {
      "midi": 37,
      "hit": false,
      "t": 246000,
      "d": 6000,
      "v": 41
    },
    {
      "midi": 44,
      "hit": false,
      "t": 246000,
      "d": 6000,
      "v": 41
    },
    {
      "midi": 49,
      "hit": false,
      "t": 246000,
      "d": 6000,
      "v": 41
    },
    {
      "midi": 56,
      "hit": false,
      "t": 246500,
      "d": 500,
      "v": 100
    },
    {
      "midi": 61,
      "hit": false,
      "t": 247000,
      "d": 500,
      "v": 100
    },
    {
      "midi": 56,
      "hit": false,
      "t": 247500,
      "d": 500,
      "v": 100
    },
    {
      "midi": 61,
      "hit": false,
      "t": 248000,
      "d": 500,
      "v": 100
    },
    {
      "midi": 64,
      "hit": false,
      "t": 248500,
      "d": 500,
      "v": 100
    },
    {
      "midi": 56,
      "hit": false,
      "t": 249000,
      "d": 500,
      "v": 100
    },
    {
      "midi": 61,
      "hit": false,
      "t": 249500,
      "d": 500,
      "v": 100
    },
    {
      "midi": 64,
      "hit": false,
      "t": 250000,
      "d": 500,
      "v": 100
    },
    {
      "midi": 68,
      "hit": false,
      "t": 250500,
      "d": 1125,
      "v": 56
    },
    {
      "midi": 68,
      "hit": false,
      "t": 251625,
      "d": 375,
      "v": 56
    },
    {
      "midi": 68,
      "hit": false,
      "t": 252000,
      "d": 4500,
      "v": 56
    },
    {
      "midi": 36,
      "hit": false,
      "t": 252000,
      "d": 6000,
      "v": 46
    },
    {
      "midi": 44,
      "hit": false,
      "t": 252000,
      "d": 6000,
      "v": 46
    },
    {
      "midi": 48,
      "hit": false,
      "t": 252000,
      "d": 6000,
      "v": 46
    },
    {
      "midi": 68,
      "hit": false,
      "t": 256500,
      "d": 1125,
      "v": 56
    },
    {
      "midi": 68,
      "hit": false,
      "t": 257625,
      "d": 375,
      "v": 56
    },
    {
      "midi": 68,
      "hit": false,
      "t": 258000,
      "d": 3000,
      "v": 56
    },
    {
      "midi": 37,
      "hit": false,
      "t": 258000,
      "d": 3000,
      "v": 46
    },
    {
      "midi": 49,
      "hit": false,
      "t": 258000,
      "d": 3000,
      "v": 46
    },
    {
      "midi": 69,
      "hit": false,
      "t": 261000,
      "d": 3000,
      "v": 56
    },
    {
      "midi": 30,
      "hit": false,
      "t": 261000,
      "d": 3000,
      "v": 46
    },
    {
      "midi": 42,
      "hit": false,
      "t": 261000,
      "d": 3000,
      "v": 46
    },
    {
      "midi": 68,
      "hit": false,
      "t": 264000,
      "d": 3000,
      "v": 56
    },
    {
      "midi": 35,
      "hit": false,
      "t": 264000,
      "d": 3000,
      "v": 46
    },
    {
      "midi": 47,
      "hit": false,
      "t": 264000,
      "d": 3000,
      "v": 46
    },
    {
      "midi": 66,
      "hit": false,
      "t": 267000,
      "d": 1500,
      "v": 56
    },
    {
      "midi": 35,
      "hit": false,
      "t": 267000,
      "d": 3000,
      "v": 46
    },
    {
      "midi": 47,
      "hit": false,
      "t": 267000,
      "d": 3000,
      "v": 46
    },
    {
      "midi": 71,
      "hit": false,
      "t": 268500,
      "d": 1500,
      "v": 56
    },
    {
      "midi": 64,
      "hit": false,
      "t": 270000,
      "d": 1500,
      "v": 56
    },
    {
      "midi": 40,
      "hit": false,
      "t": 270000,
      "d": 6000,
      "v": 45
    },
    {
      "midi": 52,
      "hit": false,
      "t": 270000,
      "d": 6000,
      "v": 45
    },
    {
      "midi": 59,
      "hit": false,
      "t": 271500,
      "d": 500,
      "v": 100
    },
    {
      "midi": 64,
      "hit": false,
      "t": 272000,
      "d": 500,
      "v": 100
    },
    {
      "midi": 68,
      "hit": false,
      "t": 272500,
      "d": 500,
      "v": 100
    },
    {
      "midi": 59,
      "hit": false,
      "t": 273000,
      "d": 500,
      "v": 100
    },
    {
      "midi": 64,
      "hit": false,
      "t": 273500,
      "d": 500,
      "v": 100
    },
    {
      "midi": 68,
      "hit": false,
      "t": 274000,
      "d": 500,
      "v": 100
    },
    {
      "midi": 71,
      "hit": false,
      "t": 274500,
      "d": 1125,
      "v": 61
    },
    {
      "midi": 71,
      "hit": false,
      "t": 275625,
      "d": 375,
      "v": 56
    },
    {
      "midi": 71,
      "hit": false,
      "t": 276000,
      "d": 4500,
      "v": 61
    },
    {
      "midi": 39,
      "hit": false,
      "t": 276000,
      "d": 6000,
      "v": 35
    },
    {
      "midi": 51,
      "hit": false,
      "t": 276000,
      "d": 6000,
      "v": 35
    },
    {
      "midi": 71,
      "hit": false,
      "t": 280500,
      "d": 1125,
      "v": 63
    },
    {
      "midi": 71,
      "hit": false,
      "t": 281625,
      "d": 375,
      "v": 56
    },
    {
      "midi": 71,
      "hit": false,
      "t": 282000,
      "d": 3000,
      "v": 63
    },
    {
      "midi": 40,
      "hit": false,
      "t": 282000,
      "d": 3000,
      "v": 37
    },
    {
      "midi": 52,
      "hit": false,
      "t": 282000,
      "d": 3000,
      "v": 37
    },
    {
      "midi": 72,
      "hit": false,
      "t": 285000,
      "d": 1500,
      "v": 65
    },
    {
      "midi": 39,
      "hit": false,
      "t": 285000,
      "d": 1500,
      "v": 37
    },
    {
      "midi": 51,
      "hit": false,
      "t": 285000,
      "d": 1500,
      "v": 37
    },
    {
      "midi": 73,
      "hit": false,
      "t": 286500,
      "d": 1500,
      "v": 72
    },
    {
      "midi": 37,
      "hit": false,
      "t": 286500,
      "d": 1500,
      "v": 40
    },
    {
      "midi": 49,
      "hit": false,
      "t": 286500,
      "d": 1500,
      "v": 40
    },
    {
      "midi": 75,
      "hit": false,
      "t": 288000,
      "d": 3000,
      "v": 75
    },
    {
      "midi": 36,
      "hit": false,
      "t": 288000,
      "d": 3000,
      "v": 45
    },
    {
      "midi": 44,
      "hit": false,
      "t": 288000,
      "d": 3000,
      "v": 45
    },
    {
      "midi": 48,
      "hit": false,
      "t": 288000,
      "d": 3000,
      "v": 45
    },
    {
      "midi": 76,
      "hit": false,
      "t": 291000,
      "d": 3000,
      "v": 56
    },
    {
      "midi": 37,
      "hit": false,
      "t": 291000,
      "d": 3000,
      "v": 38
    },
    {
      "midi": 44,
      "hit": false,
      "t": 291000,
      "d": 3000,
      "v": 38
    },
    {
      "midi": 49,
      "hit": false,
      "t": 291000,
      "d": 3000,
      "v": 38
    },
    {
      "midi": 74,
      "hit": false,
      "t": 294000,
      "d": 3000,
      "v": 56
    },
    {
      "midi": 30,
      "hit": false,
      "t": 294000,
      "d": 3000,
      "v": 41
    },
    {
      "midi": 42,
      "hit": false,
      "t": 294000,
      "d": 3000,
      "v": 41
    },
    {
      "midi": 72,
      "hit": false,
      "t": 297000,
      "d": 3000,
      "v": 56
    },
    {
      "midi": 32,
      "hit": false,
      "t": 297000,
      "d": 3000,
      "v": 41
    },
    {
      "midi": 44,
      "hit": false,
      "t": 297000,
      "d": 3000,
      "v": 41
    },
    {
      "midi": 73,
      "hit": false,
      "t": 300000,
      "d": 4500,
      "v": 56
    },
    {
      "midi": 37,
      "hit": false,
      "t": 300000,
      "d": 6000,
      "v": 38
    },
    {
      "midi": 49,
      "hit": false,
      "t": 300000,
      "d": 6000,
      "v": 38
    },
    {
      "midi": 73,
      "hit": false,
      "t": 304500,
      "d": 1500,
      "v": 56
    },
    {
      "midi": 74,
      "hit": false,
      "t": 306000,
      "d": 4500,
      "v": 71
    },
    {
      "midi": 42,
      "hit": false,
      "t": 307500,
      "d": 1500,
      "v": 47
    },
    {
      "midi": 54,
      "hit": false,
      "t": 307500,
      "d": 1500,
      "v": 47
    },
    {
      "midi": 45,
      "hit": false,
      "t": 309000,
      "d": 1500,
      "v": 56
    },
    {
      "midi": 57,
      "hit": false,
      "t": 309000,
      "d": 1500,
      "v": 56
    },
    {
      "midi": 72,
      "hit": false,
      "t": 310500,
      "d": 1500,
      "v": 56
    },
    {
      "midi": 42,
      "hit": false,
      "t": 310500,
      "d": 1500,
      "v": 50
    },
    {
      "midi": 54,
      "hit": false,
      "t": 310500,
      "d": 1500,
      "v": 50
    },
    {
      "midi": 73,
      "hit": false,
      "t": 312000,
      "d": 4500,
      "v": 56
    },
    {
      "midi": 37,
      "hit": false,
      "t": 312000,
      "d": 6000,
      "v": 41
    },
    {
      "midi": 49,
      "hit": false,
      "t": 312000,
      "d": 6000,
      "v": 41
    },
    {
      "midi": 73,
      "hit": false,
      "t": 316500,
      "d": 1500,
      "v": 56
    },
    {
      "midi": 74,
      "hit": false,
      "t": 318000,
      "d": 4500,
      "v": 68
    },
    {
      "midi": 42,
      "hit": false,
      "t": 319500,
      "d": 1500,
      "v": 48
    },
    {
      "midi": 54,
      "hit": false,
      "t": 319500,
      "d": 1500,
      "v": 48
    },
    {
      "midi": 45,
      "hit": false,
      "t": 321000,
      "d": 1500,
      "v": 57
    },
    {
      "midi": 57,
      "hit": false,
      "t": 321000,
      "d": 1500,
      "v": 57
    },
    {
      "midi": 72,
      "hit": false,
      "t": 322500,
      "d": 1500,
      "v": 56
    },
    {
      "midi": 42,
      "hit": false,
      "t": 322500,
      "d": 1500,
      "v": 48
    },
    {
      "midi": 54,
      "hit": false,
      "t": 322500,
      "d": 1500,
      "v": 48
    },
    {
      "midi": 73,
      "hit": false,
      "t": 324000,
      "d": 3000,
      "v": 61
    },
    {
      "midi": 37,
      "hit": false,
      "t": 324000,
      "d": 3000,
      "v": 40
    },
    {
      "midi": 49,
      "hit": false,
      "t": 324000,
      "d": 3000,
      "v": 40
    },
    {
      "midi": 73,
      "hit": false,
      "t": 327000,
      "d": 3000,
      "v": 56
    },
    {
      "midi": 30,
      "hit": false,
      "t": 327000,
      "d": 3000,
      "v": 42
    },
    {
      "midi": 42,
      "hit": false,
      "t": 327000,
      "d": 3000,
      "v": 42
    },
    {
      "midi": 71,
      "hit": false,
      "t": 330000,
      "d": 4500,
      "v": 56
    },
    {
      "midi": 39,
      "hit": false,
      "t": 330000,
      "d": 4500,
      "v": 45
    },
    {
      "midi": 51,
      "hit": false,
      "t": 330000,
      "d": 4500,
      "v": 45
    },
    {
      "midi": 71,
      "hit": false,
      "t": 334500,
      "d": 1500,
      "v": 56
    },
    {
      "midi": 40,
      "hit": false,
      "t": 334500,
      "d": 1500,
      "v": 41
    },
    {
      "midi": 52,
      "hit": false,
      "t": 334500,
      "d": 1500,
      "v": 41
    },
    {
      "midi": 69,
      "hit": false,
      "t": 336000,
      "d": 1500,
      "v": 56
    },
    {
      "midi": 37,
      "hit": false,
      "t": 336000,
      "d": 1500,
      "v": 46
    },
    {
      "midi": 49,
      "hit": false,
      "t": 336000,
      "d": 1500,
      "v": 46
    },
    {
      "midi": 69,
      "hit": false,
      "t": 337500,
      "d": 1500,
      "v": 56
    },
    {
      "midi": 39,
      "hit": false,
      "t": 337500,
      "d": 1500,
      "v": 40
    },
    {
      "midi": 51,
      "hit": false,
      "t": 337500,
      "d": 1500,
      "v": 40
    },
    {
      "midi": 68,
      "hit": false,
      "t": 339000,
      "d": 1500,
      "v": 56
    },
    {
      "midi": 36,
      "hit": false,
      "t": 339000,
      "d": 1500,
      "v": 46
    },
    {
      "midi": 48,
      "hit": false,
      "t": 339000,
      "d": 1500,
      "v": 46
    },
    {
      "midi": 68,
      "hit": false,
      "t": 340500,
      "d": 1500,
      "v": 56
    },
    {
      "midi": 37,
      "hit": false,
      "t": 340500,
      "d": 1500,
      "v": 40
    },
    {
      "midi": 49,
      "hit": false,
      "t": 340500,
      "d": 1500,
      "v": 40
    },
    {
      "midi": 66,
      "hit": false,
      "t": 342000,
      "d": 3000,
      "v": 56
    },
    {
      "midi": 33,
      "hit": false,
      "t": 342000,
      "d": 3000,
      "v": 46
    },
    {
      "midi": 45,
      "hit": false,
      "t": 342000,
      "d": 3000,
      "v": 46
    },
    {
      "midi": 68,
      "hit": false,
      "t": 345000,
      "d": 1500,
      "v": 67
    },
    {
      "midi": 32,
      "hit": false,
      "t": 345000,
      "d": 1500,
      "v": 50
    },
    {
      "midi": 44,
      "hit": false,
      "t": 345000,
      "d": 1500,
      "v": 50
    },
    {
      "midi": 69,
      "hit": false,
      "t": 346500,
      "d": 1500,
      "v": 77
    },
    {
      "midi": 30,
      "hit": false,
      "t": 346500,
      "d": 1500,
      "v": 57
    },
    {
      "midi": 42,
      "hit": false,
      "t": 346500,
      "d": 1500,
      "v": 57
    },
    {
      "midi": 68,
      "hit": false,
      "t": 348000,
      "d": 3000,
      "v": 56
    },
    {
      "midi": 32,
      "hit": false,
      "t": 348000,
      "d": 3000,
      "v": 46
    },
    {
      "midi": 44,
      "hit": false,
      "t": 348000,
      "d": 3000,
      "v": 46
    },
    {
      "midi": 68,
      "hit": false,
      "t": 351000,
      "d": 3000,
      "v": 47
    },
    {
      "midi": 32,
      "hit": false,
      "t": 351000,
      "d": 3000,
      "v": 46
    },
    {
      "midi": 44,
      "hit": false,
      "t": 351000,
      "d": 3000,
      "v": 46
    },
    {
      "midi": 61,
      "hit": false,
      "t": 354000,
      "d": 1500,
      "v": 41
    },
    {
      "midi": 37,
      "hit": false,
      "t": 354000,
      "d": 6000,
      "v": 37
    },
    {
      "midi": 56,
      "hit": false,
      "t": 355500,
      "d": 500,
      "v": 100
    },
    {
      "midi": 61,
      "hit": false,
      "t": 356000,
      "d": 500,
      "v": 100
    },
    {
      "midi": 64,
      "hit": false,
      "t": 356500,
      "d": 500,
      "v": 100
    },
    {
      "midi": 56,
      "hit": false,
      "t": 357000,
      "d": 500,
      "v": 100
    },
    {
      "midi": 61,
      "hit": false,
      "t": 357500,
      "d": 500,
      "v": 100
    },
    {
      "midi": 64,
      "hit": false,
      "t": 358000,
      "d": 500,
      "v": 100
    },
    {
      "midi": 56,
      "hit": false,
      "t": 358500,
      "d": 500,
      "v": 100
    },
    {
      "midi": 44,
      "hit": false,
      "t": 358500,
      "d": 1125,
      "v": 53
    },
    {
      "midi": 61,
      "hit": false,
      "t": 359000,
      "d": 500,
      "v": 100
    },
    {
      "midi": 64,
      "hit": false,
      "t": 359500,
      "d": 500,
      "v": 100
    },
    {
      "midi": 44,
      "hit": false,
      "t": 359625,
      "d": 375,
      "v": 53
    },
    {
      "midi": 56,
      "hit": false,
      "t": 360000,
      "d": 500,
      "v": 100
    },
    {
      "midi": 36,
      "hit": false,
      "t": 360000,
      "d": 6000,
      "v": 37
    },
    {
      "midi": 63,
      "hit": false,
      "t": 360500,
      "d": 500,
      "v": 100
    },
    {
      "midi": 66,
      "hit": false,
      "t": 361000,
      "d": 500,
      "v": 100
    },
    {
      "midi": 56,
      "hit": false,
      "t": 361500,
      "d": 500,
      "v": 100
    },
    {
      "midi": 63,
      "hit": false,
      "t": 362000,
      "d": 500,
      "v": 100
    },
    {
      "midi": 66,
      "hit": false,
      "t": 362500,
      "d": 500,
      "v": 100
    },
    {
      "midi": 56,
      "hit": false,
      "t": 363000,
      "d": 500,
      "v": 100
    },
    {
      "midi": 63,
      "hit": false,
      "t": 363500,
      "d": 500,
      "v": 100
    },
    {
      "midi": 66,
      "hit": false,
      "t": 364000,
      "d": 500,
      "v": 100
    },
    {
      "midi": 56,
      "hit": false,
      "t": 364500,
      "d": 500,
      "v": 100
    },
    {
      "midi": 63,
      "hit": false,
      "t": 365000,
      "d": 500,
      "v": 100
    },
    {
      "midi": 66,
      "hit": false,
      "t": 365500,
      "d": 500,
      "v": 100
    },
    {
      "midi": 56,
      "hit": false,
      "t": 366000,
      "d": 500,
      "v": 100
    },
    {
      "midi": 44,
      "hit": false,
      "t": 366000,
      "d": 4500,
      "v": 53
    },
    {
      "midi": 37,
      "hit": false,
      "t": 366000,
      "d": 6000,
      "v": 37
    },
    {
      "midi": 64,
      "hit": false,
      "t": 366500,
      "d": 500,
      "v": 100
    },
    {
      "midi": 61,
      "hit": false,
      "t": 367000,
      "d": 500,
      "v": 100
    },
    {
      "midi": 68,
      "hit": false,
      "t": 367500,
      "d": 500,
      "v": 100
    },
    {
      "midi": 64,
      "hit": false,
      "t": 368000,
      "d": 500,
      "v": 100
    },
    {
      "midi": 73,
      "hit": false,
      "t": 368500,
      "d": 500,
      "v": 100
    },
    {
      "midi": 68,
      "hit": false,
      "t": 369000,
      "d": 500,
      "v": 100
    },
    {
      "midi": 76,
      "hit": false,
      "t": 369500,
      "d": 500,
      "v": 100
    },
    {
      "midi": 73,
      "hit": false,
      "t": 370000,
      "d": 500,
      "v": 100
    },
    {
      "midi": 80,
      "hit": false,
      "t": 370500,
      "d": 500,
      "v": 100
    },
    {
      "midi": 44,
      "hit": false,
      "t": 370500,
      "d": 1125,
      "v": 53
    },
    {
      "midi": 76,
      "hit": false,
      "t": 371000,
      "d": 500,
      "v": 100
    },
    {
      "midi": 73,
      "hit": false,
      "t": 371500,
      "d": 500,
      "v": 100
    },
    {
      "midi": 44,
      "hit": false,
      "t": 371625,
      "d": 375,
      "v": 60
    },
    {
      "midi": 72,
      "hit": false,
      "t": 372000,
      "d": 500,
      "v": 100
    },
    {
      "midi": 44,
      "hit": false,
      "t": 372000,
      "d": 4500,
      "v": 63
    },
    {
      "midi": 32,
      "hit": false,
      "t": 372000,
      "d": 6000,
      "v": 37
    },
    {
      "midi": 75,
      "hit": false,
      "t": 372500,
      "d": 500,
      "v": 100
    },
    {
      "midi": 69,
      "hit": false,
      "t": 373000,
      "d": 500,
      "v": 100
    },
    {
      "midi": 72,
      "hit": false,
      "t": 373500,
      "d": 500,
      "v": 100
    },
    {
      "midi": 66,
      "hit": false,
      "t": 374000,
      "d": 500,
      "v": 100
    },
    {
      "midi": 69,
      "hit": false,
      "t": 374500,
      "d": 500,
      "v": 100
    },
    {
      "midi": 63,
      "hit": false,
      "t": 375000,
      "d": 500,
      "v": 100
    },
    {
      "midi": 66,
      "hit": false,
      "t": 375500,
      "d": 500,
      "v": 100
    },
    {
      "midi": 57,
      "hit": false,
      "t": 376000,
      "d": 500,
      "v": 100
    },
    {
      "midi": 60,
      "hit": false,
      "t": 376500,
      "d": 500,
      "v": 100
    },
    {
      "midi": 44,
      "hit": false,
      "t": 376500,
      "d": 1125,
      "v": 62
    },
    {
      "midi": 56,
      "hit": false,
      "t": 377000,
      "d": 500,
      "v": 100
    },
    {
      "midi": 54,
      "hit": false,
      "t": 377500,
      "d": 500,
      "v": 100
    },
    {
      "midi": 44,
      "hit": false,
      "t": 377625,
      "d": 375,
      "v": 60
    },
    {
      "midi": 52,
      "hit": false,
      "t": 378000,
      "d": 500,
      "v": 100
    },
    {
      "midi": 61,
      "hit": false,
      "t": 378000,
      "d": 500,
      "v": 100
    },
    {
      "midi": 44,
      "hit": false,
      "t": 378000,
      "d": 4500,
      "v": 53
    },
    {
      "midi": 37,
      "hit": false,
      "t": 378000,
      "d": 6000,
      "v": 37
    },
    {
      "midi": 64,
      "hit": false,
      "t": 378500,
      "d": 500,
      "v": 100
    },
    {
      "midi": 61,
      "hit": false,
      "t": 379000,
      "d": 500,
      "v": 100
    },
    {
      "midi": 68,
      "hit": false,
      "t": 379500,
      "d": 500,
      "v": 100
    },
    {
      "midi": 64,
      "hit": false,
      "t": 380000,
      "d": 500,
      "v": 100
    },
    {
      "midi": 73,
      "hit": false,
      "t": 380500,
      "d": 500,
      "v": 100
    },
    {
      "midi": 68,
      "hit": false,
      "t": 381000,
      "d": 500,
      "v": 100
    },
    {
      "midi": 76,
      "hit": false,
      "t": 381500,
      "d": 500,
      "v": 100
    },
    {
      "midi": 73,
      "hit": false,
      "t": 382000,
      "d": 500,
      "v": 100
    },
    {
      "midi": 80,
      "hit": false,
      "t": 382500,
      "d": 500,
      "v": 100
    },
    {
      "midi": 44,
      "hit": false,
      "t": 382500,
      "d": 1125,
      "v": 53
    },
    {
      "midi": 76,
      "hit": false,
      "t": 383000,
      "d": 500,
      "v": 100
    },
    {
      "midi": 73,
      "hit": false,
      "t": 383500,
      "d": 500,
      "v": 100
    },
    {
      "midi": 44,
      "hit": false,
      "t": 383625,
      "d": 375,
      "v": 56
    },
    {
      "midi": 72,
      "hit": false,
      "t": 384000,
      "d": 500,
      "v": 100
    },
    {
      "midi": 44,
      "hit": false,
      "t": 384000,
      "d": 4500,
      "v": 63
    },
    {
      "midi": 32,
      "hit": false,
      "t": 384000,
      "d": 6000,
      "v": 37
    },
    {
      "midi": 75,
      "hit": false,
      "t": 384500,
      "d": 500,
      "v": 100
    },
    {
      "midi": 69,
      "hit": false,
      "t": 385000,
      "d": 500,
      "v": 100
    },
    {
      "midi": 72,
      "hit": false,
      "t": 385500,
      "d": 500,
      "v": 100
    },
    {
      "midi": 66,
      "hit": false,
      "t": 386000,
      "d": 500,
      "v": 100
    },
    {
      "midi": 69,
      "hit": false,
      "t": 386500,
      "d": 500,
      "v": 100
    },
    {
      "midi": 63,
      "hit": false,
      "t": 387000,
      "d": 500,
      "v": 100
    },
    {
      "midi": 66,
      "hit": false,
      "t": 387500,
      "d": 500,
      "v": 100
    },
    {
      "midi": 57,
      "hit": false,
      "t": 388000,
      "d": 500,
      "v": 100
    },
    {
      "midi": 60,
      "hit": false,
      "t": 388500,
      "d": 500,
      "v": 100
    },
    {
      "midi": 44,
      "hit": false,
      "t": 388500,
      "d": 1125,
      "v": 61
    },
    {
      "midi": 56,
      "hit": false,
      "t": 389000,
      "d": 500,
      "v": 100
    },
    {
      "midi": 54,
      "hit": false,
      "t": 389500,
      "d": 500,
      "v": 100
    },
    {
      "midi": 44,
      "hit": false,
      "t": 389625,
      "d": 375,
      "v": 53
    },
    {
      "midi": 61,
      "hit": false,
      "t": 390000,
      "d": 500,
      "v": 100
    },
    {
      "midi": 44,
      "hit": false,
      "t": 390000,
      "d": 3000,
      "v": 53
    },
    {
      "midi": 37,
      "hit": false,
      "t": 390000,
      "d": 6000,
      "v": 37
    },
    {
      "midi": 56,
      "hit": false,
      "t": 390500,
      "d": 500,
      "v": 100
    },
    {
      "midi": 61,
      "hit": false,
      "t": 391000,
      "d": 500,
      "v": 100
    },
    {
      "midi": 64,
      "hit": false,
      "t": 391500,
      "d": 500,
      "v": 100
    },
    {
      "midi": 61,
      "hit": false,
      "t": 392000,
      "d": 500,
      "v": 100
    },
    {
      "midi": 56,
      "hit": false,
      "t": 392500,
      "d": 500,
      "v": 100
    },
    {
      "midi": 49,
      "hit": false,
      "t": 393000,
      "d": 3000,
      "v": 53
    },
    {
      "midi": 52,
      "hit": false,
      "t": 393500,
      "d": 500,
      "v": 100
    },
    {
      "midi": 56,
      "hit": false,
      "t": 394000,
      "d": 500,
      "v": 100
    },
    {
      "midi": 61,
      "hit": false,
      "t": 394500,
      "d": 500,
      "v": 100
    },
    {
      "midi": 56,
      "hit": false,
      "t": 395000,
      "d": 500,
      "v": 100
    },
    {
      "midi": 52,
      "hit": false,
      "t": 395500,
      "d": 500,
      "v": 100
    },
    {
      "midi": 44,
      "hit": false,
      "t": 396000,
      "d": 3000,
      "v": 50
    },
    {
      "midi": 49,
      "hit": false,
      "t": 396500,
      "d": 500,
      "v": 100
    },
    {
      "midi": 52,
      "hit": false,
      "t": 397000,
      "d": 500,
      "v": 100
    },
    {
      "midi": 56,
      "hit": false,
      "t": 397500,
      "d": 500,
      "v": 100
    },
    {
      "midi": 52,
      "hit": false,
      "t": 398000,
      "d": 500,
      "v": 100
    },
    {
      "midi": 49,
      "hit": false,
      "t": 398500,
      "d": 500,
      "v": 100
    },
    {
      "midi": 44,
      "hit": false,
      "t": 399000,
      "d": 500,
      "v": 100
    },
    {
      "midi": 49,
      "hit": false,
      "t": 399500,
      "d": 500,
      "v": 100
    },
    {
      "midi": 44,
      "hit": false,
      "t": 400000,
      "d": 500,
      "v": 100
    },
    {
      "midi": 40,
      "hit": false,
      "t": 400500,
      "d": 500,
      "v": 100
    },
    {
      "midi": 44,
      "hit": false,
      "t": 401000,
      "d": 500,
      "v": 100
    },
    {
      "midi": 40,
      "hit": false,
      "t": 401500,
      "d": 500,
      "v": 100
    },
    {
      "midi": 37,
      "hit": false,
      "t": 402000,
      "d": 3000,
      "v": 38
    },
    {
      "midi": 52,
      "hit": false,
      "t": 405000,
      "d": 3000,
      "v": 31
    },
    {
      "midi": 56,
      "hit": false,
      "t": 405000,
      "d": 3000,
      "v": 31
    },
    {
      "midi": 61,
      "hit": false,
      "t": 405000,
      "d": 3000,
      "v": 37
    },
    {
      "midi": 44,
      "hit": false,
      "t": 405000,
      "d": 3000,
      "v": 26
    },
    {
      "midi": 49,
      "hit": false,
      "t": 405000,
      "d": 3000,
      "v": 31
    },
    {
      "midi": 37,
      "hit": false,
      "t": 405000,
      "d": 3000,
      "v": 26
    },
    {
      "midi": 52,
      "hit": false,
      "t": 408000,
      "d": 6000,
      "v": 31
    },
    {
      "midi": 56,
      "hit": false,
      "t": 408000,
      "d": 6000,
      "v": 31
    },
    {
      "midi": 61,
      "hit": false,
      "t": 408000,
      "d": 6000,
      "v": 37
    },
    {
      "midi": 44,
      "hit": false,
      "t": 408000,
      "d": 6000,
      "v": 26
    },
    {
      "midi": 49,
      "hit": false,
      "t": 408000,
      "d": 6000,
      "v": 31
    },
    {
      "midi": 37,
      "hit": false,
      "t": 408000,
      "d": 6000,
      "v": 26
    }
  ]
}