{
  "jsonPath": "Classical/Classical/Ludwig van Beethoven/rondo-opus-129.json",
  "path": "Classical\\Classical\\Ludwig van Beethoven\\Rondo Opus 129.mid",
  "name": "Rondo Opus 129",
  "difficulty": "Advanced",
  "bpm": 110.00011000011,
  "notes": [
    {
      "midi": 71,
      "hit": false,
      "t": 0,
      "d": 545.4540000000001,
      "v": 127
    },
    {
      "midi": 55,
      "hit": false,
      "t": 0,
      "d": 272.72700000000003,
      "v": 127
    },
    {
      "midi": 59,
      "hit": false,
      "t": 0,
      "d": 272.72700000000003,
      "v": 127
    },
    {
      "midi": 62,
      "hit": false,
      "t": 0,
      "d": 272.72700000000003,
      "v": 127
    },
    {
      "midi": 55,
      "hit": false,
      "t": 272.72700000000003,
      "d": 272.72700000000003,
      "v": 127
    },
    {
      "midi": 59,
      "hit": false,
      "t": 272.72700000000003,
      "d": 272.72700000000003,
      "v": 127
    },
    {
      "midi": 62,
      "hit": false,
      "t": 272.72700000000003,
      "d": 272.72700000000003,
      "v": 127
    },
    {
      "midi": 74,
      "hit": false,
      "t": 545.4540000000001,
      "d": 272.727,
      "v": 127
    },
    {
      "midi": 55,
      "hit": false,
      "t": 545.4540000000001,
      "d": 272.727,
      "v": 127
    },
    {
      "midi": 59,
      "hit": false,
      "t": 545.4540000000001,
      "d": 272.727,
      "v": 127
    },
    {
      "midi": 62,
      "hit": false,
      "t": 545.4540000000001,
      "d": 272.727,
      "v": 127
    },
    {
      "midi": 74,
      "hit": false,
      "t": 818.181,
      "d": 272.7270000000001,
      "v": 127
    },
    {
      "midi": 55,
      "hit": false,
      "t": 818.181,
      "d": 272.7270000000001,
      "v": 127
    },
    {
      "midi": 59,
      "hit": false,
      "t": 818.181,
      "d": 272.7270000000001,
      "v": 127
    },
    {
      "midi": 62,
      "hit": false,
      "t": 818.181,
      "d": 272.7270000000001,
      "v": 127
    },
    {
      "midi": 79,
      "hit": false,
      "t": 1090.9080000000001,
      "d": 272.7270000000001,
      "v": 127
    },
    {
      "midi": 55,
      "hit": false,
      "t": 1090.9080000000001,
      "d": 272.7270000000001,
      "v": 127
    },
    {
      "midi": 59,
      "hit": false,
      "t": 1090.9080000000001,
      "d": 272.7270000000001,
      "v": 127
    },
    {
      "midi": 62,
      "hit": false,
      "t": 1090.9080000000001,
      "d": 272.7270000000001,
      "v": 127
    },
    {
      "midi": 79,
      "hit": false,
      "t": 1363.6350000000002,
      "d": 272.7270000000001,
      "v": 127
    },
    {
      "midi": 55,
      "hit": false,
      "t": 1363.6350000000002,
      "d": 272.7270000000001,
      "v": 127
    },
    {
      "midi": 59,
      "hit": false,
      "t": 1363.6350000000002,
      "d": 272.7270000000001,
      "v": 127
    },
    {
      "midi": 62,
      "hit": false,
      "t": 1363.6350000000002,
      "d": 272.7270000000001,
      "v": 127
    },
    {
      "midi": 83,
      "hit": false,
      "t": 1636.3620000000003,
      "d": 545.454,
      "v": 127
    },
    {
      "midi": 55,
      "hit": false,
      "t": 1636.3620000000003,
      "d": 272.7270000000001,
      "v": 127
    },
    {
      "midi": 59,
      "hit": false,
      "t": 1636.3620000000003,
      "d": 272.7270000000001,
      "v": 127
    },
    {
      "midi": 62,
      "hit": false,
      "t": 1636.3620000000003,
      "d": 272.7270000000001,
      "v": 127
    },
    {
      "midi": 55,
      "hit": false,
      "t": 1909.0890000000004,
      "d": 272.72699999999986,
      "v": 127
    },
    {
      "midi": 59,
      "hit": false,
      "t": 1909.0890000000004,
      "d": 272.72699999999986,
      "v": 127
    },
    {
      "midi": 62,
      "hit": false,
      "t": 1909.0890000000004,
      "d": 272.72699999999986,
      "v": 127
    },
    {
      "midi": 86,
      "hit": false,
      "t": 2181.8160000000003,
      "d": 136.36349999999993,
      "v": 127
    },
    {
      "midi": 55,
      "hit": false,
      "t": 2181.8160000000003,
      "d": 272.72699999999986,
      "v": 127
    },
    {
      "midi": 60,
      "hit": false,
      "t": 2181.8160000000003,
      "d": 272.72699999999986,
      "v": 127
    },
    {
      "midi": 62,
      "hit": false,
      "t": 2181.8160000000003,
      "d": 272.72699999999986,
      "v": 127
    },
    {
      "midi": 66,
      "hit": false,
      "t": 2181.8160000000003,
      "d": 272.72699999999986,
      "v": 127
    },
    {
      "midi": 84,
      "hit": false,
      "t": 2318.1795,
      "d": 136.36349999999993,
      "v": 127
    },
    {
      "midi": 86,
      "hit": false,
      "t": 2454.543,
      "d": 136.36349999999993,
      "v": 127
    },
    {
      "midi": 55,
      "hit": false,
      "t": 2454.543,
      "d": 272.72699999999986,
      "v": 127
    },
    {
      "midi": 60,
      "hit": false,
      "t": 2454.543,
      "d": 272.72699999999986,
      "v": 127
    },
    {
      "midi": 62,
      "hit": false,
      "t": 2454.543,
      "d": 272.72699999999986,
      "v": 127
    },
    {
      "midi": 66,
      "hit": false,
      "t": 2454.543,
      "d": 272.72699999999986,
      "v": 127
    },
    {
      "midi": 84,
      "hit": false,
      "t": 2590.9065,
      "d": 136.36349999999993,
      "v": 127
    },
    {
      "midi": 81,
      "hit": false,
      "t": 2727.27,
      "d": 545.4540000000002,
      "v": 127
    },
    {
      "midi": 55,
      "hit": false,
      "t": 2727.27,
      "d": 272.72699999999986,
      "v": 127
    },
    {
      "midi": 60,
      "hit": false,
      "t": 2727.27,
      "d": 272.72699999999986,
      "v": 127
    },
    {
      "midi": 62,
      "hit": false,
      "t": 2727.27,
      "d": 272.72699999999986,
      "v": 127
    },
    {
      "midi": 66,
      "hit": false,
      "t": 2727.27,
      "d": 272.72699999999986,
      "v": 127
    },
    {
      "midi": 55,
      "hit": false,
      "t": 2999.997,
      "d": 272.72699999999986,
      "v": 127
    },
    {
      "midi": 60,
      "hit": false,
      "t": 2999.997,
      "d": 272.72699999999986,
      "v": 127
    },
    {
      "midi": 62,
      "hit": false,
      "t": 2999.997,
      "d": 272.72699999999986,
      "v": 127
    },
    {
      "midi": 66,
      "hit": false,
      "t": 2999.997,
      "d": 272.72699999999986,
      "v": 127
    },
    {
      "midi": 55,
      "hit": false,
      "t": 3272.7239999999997,
      "d": 272.72699999999986,
      "v": 127
    },
    {
      "midi": 60,
      "hit": false,
      "t": 3272.7239999999997,
      "d": 272.72699999999986,
      "v": 127
    },
    {
      "midi": 62,
      "hit": false,
      "t": 3272.7239999999997,
      "d": 272.72699999999986,
      "v": 127
    },
    {
      "midi": 66,
      "hit": false,
      "t": 3272.7239999999997,
      "d": 272.72699999999986,
      "v": 127
    },
    {
      "midi": 86,
      "hit": false,
      "t": 3272.724,
      "d": 136.36349999999993,
      "v": 127
    },
    {
      "midi": 84,
      "hit": false,
      "t": 3409.0875,
      "d": 136.36349999999993,
      "v": 127
    },
    {
      "midi": 55,
      "hit": false,
      "t": 3545.4509999999996,
      "d": 272.72699999999986,
      "v": 127
    },
    {
      "midi": 60,
      "hit": false,
      "t": 3545.4509999999996,
      "d": 272.72699999999986,
      "v": 127
    },
    {
      "midi": 62,
      "hit": false,
      "t": 3545.4509999999996,
      "d": 272.72699999999986,
      "v": 127
    },
    {
      "midi": 66,
      "hit": false,
      "t": 3545.4509999999996,
      "d": 272.72699999999986,
      "v": 127
    },
    {
      "midi": 86,
      "hit": false,
      "t": 3545.451,
      "d": 136.36349999999993,
      "v": 127
    },
    {
      "midi": 84,
      "hit": false,
      "t": 3681.8145,
      "d": 136.36349999999993,
      "v": 127
    },
    {
      "midi": 55,
      "hit": false,
      "t": 3818.1779999999994,
      "d": 272.72699999999986,
      "v": 127
    },
    {
      "midi": 60,
      "hit": false,
      "t": 3818.1779999999994,
      "d": 272.72699999999986,
      "v": 127
    },
    {
      "midi": 62,
      "hit": false,
      "t": 3818.1779999999994,
      "d": 272.72699999999986,
      "v": 127
    },
    {
      "midi": 66,
      "hit": false,
      "t": 3818.1779999999994,
      "d": 272.72699999999986,
      "v": 127
    },
    {
      "midi": 81,
      "hit": false,
      "t": 3818.178,
      "d": 545.4539999999997,
      "v": 127
    },
    {
      "midi": 55,
      "hit": false,
      "t": 4090.9049999999993,
      "d": 272.7270000000003,
      "v": 127
    },
    {
      "midi": 60,
      "hit": false,
      "t": 4090.9049999999993,
      "d": 272.7270000000003,
      "v": 127
    },
    {
      "midi": 62,
      "hit": false,
      "t": 4090.9049999999993,
      "d": 272.7270000000003,
      "v": 127
    },
    {
      "midi": 66,
      "hit": false,
      "t": 4090.9049999999993,
      "d": 272.7270000000003,
      "v": 127
    },
    {
      "midi": 71,
      "hit": false,
      "t": 4363.632,
      "d": 545.4539999999997,
      "v": 127
    },
    {
      "midi": 55,
      "hit": false,
      "t": 4363.632,
      "d": 272.72699999999986,
      "v": 127
    },
    {
      "midi": 59,
      "hit": false,
      "t": 4363.632,
      "d": 272.72699999999986,
      "v": 127
    },
    {
      "midi": 62,
      "hit": false,
      "t": 4363.632,
      "d": 272.72699999999986,
      "v": 127
    },
    {
      "midi": 55,
      "hit": false,
      "t": 4636.3589999999995,
      "d": 272.72699999999986,
      "v": 127
    },
    {
      "midi": 59,
      "hit": false,
      "t": 4636.3589999999995,
      "d": 272.72699999999986,
      "v": 127
    },
    {
      "midi": 62,
      "hit": false,
      "t": 4636.3589999999995,
      "d": 272.72699999999986,
      "v": 127
    },
    {
      "midi": 74,
      "hit": false,
      "t": 4909.085999999999,
      "d": 272.72699999999986,
      "v": 127
    },
    {
      "midi": 55,
      "hit": false,
      "t": 4909.085999999999,
      "d": 272.72699999999986,
      "v": 127
    },
    {
      "midi": 59,
      "hit": false,
      "t": 4909.085999999999,
      "d": 272.72699999999986,
      "v": 127
    },
    {
      "midi": 62,
      "hit": false,
      "t": 4909.085999999999,
      "d": 272.72699999999986,
      "v": 127
    },
    {
      "midi": 74,
      "hit": false,
      "t": 5181.812999999999,
      "d": 272.72699999999986,
      "v": 127
    },
    {
      "midi": 55,
      "hit": false,
      "t": 5181.812999999999,
      "d": 272.72699999999986,
      "v": 127
    },
    {
      "midi": 59,
      "hit": false,
      "t": 5181.812999999999,
      "d": 272.72699999999986,
      "v": 127
    },
    {
      "midi": 62,
      "hit": false,
      "t": 5181.812999999999,
      "d": 272.72699999999986,
      "v": 127
    },
    {
      "midi": 79,
      "hit": false,
      "t": 5454.539999999999,
      "d": 272.72699999999986,
      "v": 127
    },
    {
      "midi": 55,
      "hit": false,
      "t": 5454.539999999999,
      "d": 272.72699999999986,
      "v": 127
    },
    {
      "midi": 59,
      "hit": false,
      "t": 5454.539999999999,
      "d": 272.72699999999986,
      "v": 127
    },
    {
      "midi": 62,
      "hit": false,
      "t": 5454.539999999999,
      "d": 272.72699999999986,
      "v": 127
    },
    {
      "midi": 79,
      "hit": false,
      "t": 5727.266999999999,
      "d": 272.72699999999986,
      "v": 127
    },
    {
      "midi": 55,
      "hit": false,
      "t": 5727.266999999999,
      "d": 272.72699999999986,
      "v": 127
    },
    {
      "midi": 59,
      "hit": false,
      "t": 5727.266999999999,
      "d": 272.72699999999986,
      "v": 127
    },
    {
      "midi": 62,
      "hit": false,
      "t": 5727.266999999999,
      "d": 272.72699999999986,
      "v": 127
    },
    {
      "midi": 83,
      "hit": false,
      "t": 5999.993999999999,
      "d": 545.4539999999997,
      "v": 127
    },
    {
      "midi": 55,
      "hit": false,
      "t": 5999.993999999999,
      "d": 272.72699999999986,
      "v": 127
    },
    {
      "midi": 59,
      "hit": false,
      "t": 5999.993999999999,
      "d": 272.72699999999986,
      "v": 127
    },
    {
      "midi": 62,
      "hit": false,
      "t": 5999.993999999999,
      "d": 272.72699999999986,
      "v": 127
    },
    {
      "midi": 55,
      "hit": false,
      "t": 6272.720999999999,
      "d": 272.72699999999986,
      "v": 127
    },
    {
      "midi": 59,
      "hit": false,
      "t": 6272.720999999999,
      "d": 272.72699999999986,
      "v": 127
    },
    {
      "midi": 62,
      "hit": false,
      "t": 6272.720999999999,
      "d": 272.72699999999986,
      "v": 127
    },
    {
      "midi": 86,
      "hit": false,
      "t": 6545.4479999999985,
      "d": 136.36350000000039,
      "v": 127
    },
    {
      "midi": 55,
      "hit": false,
      "t": 6545.4479999999985,
      "d": 272.72699999999986,
      "v": 127
    },
    {
      "midi": 60,
      "hit": false,
      "t": 6545.4479999999985,
      "d": 272.72699999999986,
      "v": 127
    },
    {
      "midi": 62,
      "hit": false,
      "t": 6545.4479999999985,
      "d": 272.72699999999986,
      "v": 127
    },
    {
      "midi": 66,
      "hit": false,
      "t": 6545.4479999999985,
      "d": 272.72699999999986,
      "v": 127
    },
    {
      "midi": 84,
      "hit": false,
      "t": 6681.811499999999,
      "d": 136.36350000000039,
      "v": 127
    },
    {
      "midi": 55,
      "hit": false,
      "t": 6818.174999999998,
      "d": 272.72699999999986,
      "v": 127
    },
    {
      "midi": 60,
      "hit": false,
      "t": 6818.174999999998,
      "d": 272.72699999999986,
      "v": 127
    },
    {
      "midi": 62,
      "hit": false,
      "t": 6818.174999999998,
      "d": 272.72699999999986,
      "v": 127
    },
    {
      "midi": 66,
      "hit": false,
      "t": 6818.174999999998,
      "d": 272.72699999999986,
      "v": 127
    },
    {
      "midi": 86,
      "hit": false,
      "t": 6818.174999999999,
      "d": 136.36350000000039,
      "v": 127
    },
    {
      "midi": 84,
      "hit": false,
      "t": 6954.5385,
      "d": 136.36350000000039,
      "v": 127
    },
    {
      "midi": 55,
      "hit": false,
      "t": 7090.901999999998,
      "d": 272.72699999999986,
      "v": 127
    },
    {
      "midi": 60,
      "hit": false,
      "t": 7090.901999999998,
      "d": 272.72699999999986,
      "v": 127
    },
    {
      "midi": 62,
      "hit": false,
      "t": 7090.901999999998,
      "d": 272.72699999999986,
      "v": 127
    },
    {
      "midi": 66,
      "hit": false,
      "t": 7090.901999999998,
      "d": 272.72699999999986,
      "v": 127
    },
    {
      "midi": 81,
      "hit": false,
      "t": 7090.902,
      "d": 272.72699999999986,
      "v": 127
    },
    {
      "midi": 55,
      "hit": false,
      "t": 7363.628999999998,
      "d": 272.72699999999986,
      "v": 127
    },
    {
      "midi": 60,
      "hit": false,
      "t": 7363.628999999998,
      "d": 272.72699999999986,
      "v": 127
    },
    {
      "midi": 62,
      "hit": false,
      "t": 7363.628999999998,
      "d": 272.72699999999986,
      "v": 127
    },
    {
      "midi": 66,
      "hit": false,
      "t": 7363.628999999998,
      "d": 272.72699999999986,
      "v": 127
    },
    {
      "midi": 81,
      "hit": false,
      "t": 7363.629,
      "d": 136.36350000000039,
      "v": 127
    },
    {
      "midi": 83,
      "hit": false,
      "t": 7499.9925,
      "d": 136.36350000000039,
      "v": 127
    },
    {
      "midi": 55,
      "hit": false,
      "t": 7636.355999999998,
      "d": 272.72699999999986,
      "v": 127
    },
    {
      "midi": 59,
      "hit": false,
      "t": 7636.355999999998,
      "d": 272.72699999999986,
      "v": 127
    },
    {
      "midi": 62,
      "hit": false,
      "t": 7636.355999999998,
      "d": 272.72699999999986,
      "v": 127
    },
    {
      "midi": 67,
      "hit": false,
      "t": 7636.355999999998,
      "d": 272.72699999999986,
      "v": 127
    },
    {
      "midi": 79,
      "hit": false,
      "t": 7636.356000000001,
      "d": 545.4539999999997,
      "v": 127
    },
    {
      "midi": 55,
      "hit": false,
      "t": 7909.082999999998,
      "d": 272.72699999999986,
      "v": 127
    },
    {
      "midi": 59,
      "hit": false,
      "t": 7909.082999999998,
      "d": 272.72699999999986,
      "v": 127
    },
    {
      "midi": 55,
      "hit": false,
      "t": 8181.809999999998,
      "d": 272.72700000000077,
      "v": 127
    },
    {
      "midi": 59,
      "hit": false,
      "t": 8181.809999999998,
      "d": 272.72700000000077,
      "v": 127
    },
    {
      "midi": 55,
      "hit": false,
      "t": 8454.536999999998,
      "d": 272.72700000000077,
      "v": 127
    },
    {
      "midi": 59,
      "hit": false,
      "t": 8454.536999999998,
      "d": 272.72700000000077,
      "v": 127
    },
    {
      "midi": 52,
      "hit": false,
      "t": 8727.264,
      "d": 272.72700000000077,
      "v": 127
    },
    {
      "midi": 55,
      "hit": false,
      "t": 8727.264,
      "d": 272.72700000000077,
      "v": 127
    },
    {
      "midi": 59,
      "hit": false,
      "t": 8727.264,
      "d": 272.72700000000077,
      "v": 127
    },
    {
      "midi": 83,
      "hit": false,
      "t": 8727.264000000001,
      "d": 136.36349999999948,
      "v": 127
    },
    {
      "midi": 81,
      "hit": false,
      "t": 8863.6275,
      "d": 136.36349999999948,
      "v": 127
    },
    {
      "midi": 79,
      "hit": false,
      "t": 8999.991,
      "d": 136.36349999999948,
      "v": 127
    },
    {
      "midi": 52,
      "hit": false,
      "t": 8999.991,
      "d": 272.72700000000077,
      "v": 127
    },
    {
      "midi": 55,
      "hit": false,
      "t": 8999.991,
      "d": 272.72700000000077,
      "v": 127
    },
    {
      "midi": 59,
      "hit": false,
      "t": 8999.991,
      "d": 272.72700000000077,
      "v": 127
    },
    {
      "midi": 78,
      "hit": false,
      "t": 9136.3545,
      "d": 136.36349999999948,
      "v": 127
    },
    {
      "midi": 76,
      "hit": false,
      "t": 9272.717999999999,
      "d": 136.36349999999948,
      "v": 127
    },
    {
      "midi": 52,
      "hit": false,
      "t": 9272.718,
      "d": 272.72700000000077,
      "v": 127
    },
    {
      "midi": 55,
      "hit": false,
      "t": 9272.718,
      "d": 272.72700000000077,
      "v": 127
    },
    {
      "midi": 59,
      "hit": false,
      "t": 9272.718,
      "d": 272.72700000000077,
      "v": 127
    },
    {
      "midi": 78,
      "hit": false,
      "t": 9409.081499999998,
      "d": 136.36349999999948,
      "v": 127
    },
    {
      "midi": 79,
      "hit": false,
      "t": 9545.444999999998,
      "d": 136.36349999999948,
      "v": 127
    },
    {
      "midi": 52,
      "hit": false,
      "t": 9545.445000000002,
      "d": 272.72700000000077,
      "v": 127
    },
    {
      "midi": 55,
      "hit": false,
      "t": 9545.445000000002,
      "d": 272.72700000000077,
      "v": 127
    },
    {
      "midi": 59,
      "hit": false,
      "t": 9545.445000000002,
      "d": 272.72700000000077,
      "v": 127
    },
    {
      "midi": 81,
      "hit": false,
      "t": 9681.808499999997,
      "d": 136.36349999999948,
      "v": 127
    },
    {
      "midi": 83,
      "hit": false,
      "t": 9818.171999999997,
      "d": 272.72700000000077,
      "v": 127
    },
    {
      "midi": 52,
      "hit": false,
      "t": 9818.172000000002,
      "d": 272.72700000000077,
      "v": 127
    },
    {
      "midi": 55,
      "hit": false,
      "t": 9818.172000000002,
      "d": 272.72700000000077,
      "v": 127
    },
    {
      "midi": 59,
      "hit": false,
      "t": 9818.172000000002,
      "d": 272.72700000000077,
      "v": 127
    },
    {
      "midi": 83,
      "hit": false,
      "t": 10090.898999999998,
      "d": 272.72700000000077,
      "v": 127
    },
    {
      "midi": 52,
      "hit": false,
      "t": 10090.899000000003,
      "d": 272.72700000000077,
      "v": 127
    },
    {
      "midi": 55,
      "hit": false,
      "t": 10090.899000000003,
      "d": 272.72700000000077,
      "v": 127
    },
    {
      "midi": 59,
      "hit": false,
      "t": 10090.899000000003,
      "d": 272.72700000000077,
      "v": 127
    },
    {
      "midi": 88,
      "hit": false,
      "t": 10363.625999999998,
      "d": 545.4539999999997,
      "v": 127
    },
    {
      "midi": 52,
      "hit": false,
      "t": 10363.626000000004,
      "d": 272.72700000000077,
      "v": 127
    },
    {
      "midi": 55,
      "hit": false,
      "t": 10363.626000000004,
      "d": 272.72700000000077,
      "v": 127
    },
    {
      "midi": 59,
      "hit": false,
      "t": 10363.626000000004,
      "d": 272.72700000000077,
      "v": 127
    },
    {
      "midi": 52,
      "hit": false,
      "t": 10636.353000000005,
      "d": 272.72700000000077,
      "v": 127
    },
    {
      "midi": 55,
      "hit": false,
      "t": 10636.353000000005,
      "d": 272.72700000000077,
      "v": 127
    },
    {
      "midi": 59,
      "hit": false,
      "t": 10636.353000000005,
      "d": 272.72700000000077,
      "v": 127
    },
    {
      "midi": 88,
      "hit": false,
      "t": 10909.079999999998,
      "d": 136.36349999999948,
      "v": 127
    },
    {
      "midi": 47,
      "hit": false,
      "t": 10909.080000000005,
      "d": 272.72700000000077,
      "v": 127
    },
    {
      "midi": 54,
      "hit": false,
      "t": 10909.080000000005,
      "d": 272.72700000000077,
      "v": 127
    },
    {
      "midi": 57,
      "hit": false,
      "t": 10909.080000000005,
      "d": 272.72700000000077,
      "v": 127
    },
    {
      "midi": 59,
      "hit": false,
      "t": 10909.080000000005,
      "d": 272.72700000000077,
      "v": 127
    },
    {
      "midi": 87,
      "hit": false,
      "t": 11045.443499999998,
      "d": 136.36349999999948,
      "v": 127
    },
    {
      "midi": 88,
      "hit": false,
      "t": 11181.806999999997,
      "d": 136.36349999999948,
      "v": 127
    },
    {
      "midi": 47,
      "hit": false,
      "t": 11181.807000000006,
      "d": 272.72700000000077,
      "v": 127
    },
    {
      "midi": 54,
      "hit": false,
      "t": 11181.807000000006,
      "d": 272.72700000000077,
      "v": 127
    },
    {
      "midi": 57,
      "hit": false,
      "t": 11181.807000000006,
      "d": 272.72700000000077,
      "v": 127
    },
    {
      "midi": 59,
      "hit": false,
      "t": 11181.807000000006,
      "d": 272.72700000000077,
      "v": 127
    },
    {
      "midi": 87,
      "hit": false,
      "t": 11318.170499999997,
      "d": 136.36349999999948,
      "v": 127
    },
    {
      "midi": 83,
      "hit": false,
      "t": 11454.533999999996,
      "d": 545.4539999999997,
      "v": 127
    },
    {
      "midi": 47,
      "hit": false,
      "t": 11454.534000000007,
      "d": 272.72700000000077,
      "v": 127
    },
    {
      "midi": 54,
      "hit": false,
      "t": 11454.534000000007,
      "d": 272.72700000000077,
      "v": 127
    },
    {
      "midi": 57,
      "hit": false,
      "t": 11454.534000000007,
      "d": 272.72700000000077,
      "v": 127
    },
    {
      "midi": 59,
      "hit": false,
      "t": 11454.534000000007,
      "d": 272.72700000000077,
      "v": 127
    },
    {
      "midi": 47,
      "hit": false,
      "t": 11727.261000000008,
      "d": 272.72700000000077,
      "v": 127
    },
    {
      "midi": 54,
      "hit": false,
      "t": 11727.261000000008,
      "d": 272.72700000000077,
      "v": 127
    },
    {
      "midi": 57,
      "hit": false,
      "t": 11727.261000000008,
      "d": 272.72700000000077,
      "v": 127
    },
    {
      "midi": 59,
      "hit": false,
      "t": 11727.261000000008,
      "d": 272.72700000000077,
      "v": 127
    },
    {
      "midi": 88,
      "hit": false,
      "t": 11999.987999999996,
      "d": 136.36349999999948,
      "v": 127
    },
    {
      "midi": 47,
      "hit": false,
      "t": 11999.988000000008,
      "d": 272.72700000000077,
      "v": 127
    },
    {
      "midi": 54,
      "hit": false,
      "t": 11999.988000000008,
      "d": 272.72700000000077,
      "v": 127
    },
    {
      "midi": 57,
      "hit": false,
      "t": 11999.988000000008,
      "d": 272.72700000000077,
      "v": 127
    },
    {
      "midi": 59,
      "hit": false,
      "t": 11999.988000000008,
      "d": 272.72700000000077,
      "v": 127
    },
    {
      "midi": 87,
      "hit": false,
      "t": 12136.351499999995,
      "d": 136.36349999999948,
      "v": 127
    },
    {
      "midi": 88,
      "hit": false,
      "t": 12272.714999999995,
      "d": 136.36349999999948,
      "v": 127
    },
    {
      "midi": 47,
      "hit": false,
      "t": 12272.71500000001,
      "d": 272.72700000000077,
      "v": 127
    },
    {
      "midi": 54,
      "hit": false,
      "t": 12272.71500000001,
      "d": 272.72700000000077,
      "v": 127
    },
    {
      "midi": 57,
      "hit": false,
      "t": 12272.71500000001,
      "d": 272.72700000000077,
      "v": 127
    },
    {
      "midi": 59,
      "hit": false,
      "t": 12272.71500000001,
      "d": 272.72700000000077,
      "v": 127
    },
    {
      "midi": 87,
      "hit": false,
      "t": 12409.078499999994,
      "d": 136.36349999999948,
      "v": 127
    },
    {
      "midi": 83,
      "hit": false,
      "t": 12545.441999999994,
      "d": 545.4539999999997,
      "v": 127
    },
    {
      "midi": 47,
      "hit": false,
      "t": 12545.44200000001,
      "d": 272.72700000000077,
      "v": 127
    },
    {
      "midi": 54,
      "hit": false,
      "t": 12545.44200000001,
      "d": 272.72700000000077,
      "v": 127
    },
    {
      "midi": 57,
      "hit": false,
      "t": 12545.44200000001,
      "d": 272.72700000000077,
      "v": 127
    },
    {
      "midi": 59,
      "hit": false,
      "t": 12545.44200000001,
      "d": 272.72700000000077,
      "v": 127
    },
    {
      "midi": 47,
      "hit": false,
      "t": 12818.16900000001,
      "d": 272.72700000000077,
      "v": 127
    },
    {
      "midi": 54,
      "hit": false,
      "t": 12818.16900000001,
      "d": 272.72700000000077,
      "v": 127
    },
    {
      "midi": 57,
      "hit": false,
      "t": 12818.16900000001,
      "d": 272.72700000000077,
      "v": 127
    },
    {
      "midi": 59,
      "hit": false,
      "t": 12818.16900000001,
      "d": 272.72700000000077,
      "v": 127
    },
    {
      "midi": 83,
      "hit": false,
      "t": 13090.895999999993,
      "d": 136.36349999999948,
      "v": 127
    },
    {
      "midi": 52,
      "hit": false,
      "t": 13090.896000000012,
      "d": 272.72700000000077,
      "v": 127
    },
    {
      "midi": 55,
      "hit": false,
      "t": 13090.896000000012,
      "d": 272.72700000000077,
      "v": 127
    },
    {
      "midi": 59,
      "hit": false,
      "t": 13090.896000000012,
      "d": 272.72700000000077,
      "v": 127
    },
    {
      "midi": 81,
      "hit": false,
      "t": 13227.259499999993,
      "d": 136.36349999999948,
      "v": 127
    },
    {
      "midi": 79,
      "hit": false,
      "t": 13363.622999999992,
      "d": 136.36349999999948,
      "v": 127
    },
    {
      "midi": 52,
      "hit": false,
      "t": 13363.623000000012,
      "d": 272.72700000000077,
      "v": 127
    },
    {
      "midi": 55,
      "hit": false,
      "t": 13363.623000000012,
      "d": 272.72700000000077,
      "v": 127
    },
    {
      "midi": 59,
      "hit": false,
      "t": 13363.623000000012,
      "d": 272.72700000000077,
      "v": 127
    },
    {
      "midi": 78,
      "hit": false,
      "t": 13499.986499999992,
      "d": 136.36349999999948,
      "v": 127
    },
    {
      "midi": 76,
      "hit": false,
      "t": 13636.349999999991,
      "d": 136.36349999999948,
      "v": 127
    },
    {
      "midi": 52,
      "hit": false,
      "t": 13636.350000000013,
      "d": 272.72700000000077,
      "v": 127
    },
    {
      "midi": 55,
      "hit": false,
      "t": 13636.350000000013,
      "d": 272.72700000000077,
      "v": 127
    },
    {
      "midi": 59,
      "hit": false,
      "t": 13636.350000000013,
      "d": 272.72700000000077,
      "v": 127
    },
    {
      "midi": 78,
      "hit": false,
      "t": 13772.71349999999,
      "d": 136.36349999999948,
      "v": 127
    },
    {
      "midi": 79,
      "hit": false,
      "t": 13909.07699999999,
      "d": 136.36349999999948,
      "v": 127
    },
    {
      "midi": 52,
      "hit": false,
      "t": 13909.077000000014,
      "d": 272.72700000000077,
      "v": 127
    },
    {
      "midi": 55,
      "hit": false,
      "t": 13909.077000000014,
      "d": 272.72700000000077,
      "v": 127
    },
    {
      "midi": 59,
      "hit": false,
      "t": 13909.077000000014,
      "d": 272.72700000000077,
      "v": 127
    },
    {
      "midi": 81,
      "hit": false,
      "t": 14045.44049999999,
      "d": 136.36349999999948,
      "v": 127
    },
    {
      "midi": 83,
      "hit": false,
      "t": 14181.80399999999,
      "d": 272.72700000000077,
      "v": 127
    },
    {
      "midi": 52,
      "hit": false,
      "t": 14181.804000000015,
      "d": 272.72700000000077,
      "v": 127
    },
    {
      "midi": 55,
      "hit": false,
      "t": 14181.804000000015,
      "d": 272.72700000000077,
      "v": 127
    },
    {
      "midi": 59,
      "hit": false,
      "t": 14181.804000000015,
      "d": 272.72700000000077,
      "v": 127
    },
    {
      "midi": 83,
      "hit": false,
      "t": 14454.53099999999,
      "d": 272.72700000000077,
      "v": 127
    },
    {
      "midi": 52,
      "hit": false,
      "t": 14454.531000000015,
      "d": 272.72700000000077,
      "v": 127
    },
    {
      "midi": 55,
      "hit": false,
      "t": 14454.531000000015,
      "d": 272.72700000000077,
      "v": 127
    },
    {
      "midi": 59,
      "hit": false,
      "t": 14454.531000000015,
      "d": 272.72700000000077,
      "v": 127
    },
    {
      "midi": 88,
      "hit": false,
      "t": 14727.25799999999,
      "d": 545.4539999999997,
      "v": 127
    },
    {
      "midi": 52,
      "hit": false,
      "t": 14727.258000000016,
      "d": 272.72700000000077,
      "v": 127
    },
    {
      "midi": 55,
      "hit": false,
      "t": 14727.258000000016,
      "d": 272.72700000000077,
      "v": 127
    },
    {
      "midi": 59,
      "hit": false,
      "t": 14727.258000000016,
      "d": 272.72700000000077,
      "v": 127
    },
    {
      "midi": 52,
      "hit": false,
      "t": 14999.985000000017,
      "d": 272.72700000000077,
      "v": 127
    },
    {
      "midi": 55,
      "hit": false,
      "t": 14999.985000000017,
      "d": 272.72700000000077,
      "v": 127
    },
    {
      "midi": 59,
      "hit": false,
      "t": 14999.985000000017,
      "d": 272.72700000000077,
      "v": 127
    },
    {
      "midi": 85,
      "hit": false,
      "t": 15272.71199999999,
      "d": 818.1810000000005,
      "v": 127
    },
    {
      "midi": 45,
      "hit": false,
      "t": 15272.712000000018,
      "d": 272.72700000000077,
      "v": 127
    },
    {
      "midi": 52,
      "hit": false,
      "t": 15272.712000000018,
      "d": 272.72700000000077,
      "v": 127
    },
    {
      "midi": 55,
      "hit": false,
      "t": 15272.712000000018,
      "d": 272.72700000000077,
      "v": 127
    },
    {
      "midi": 57,
      "hit": false,
      "t": 15272.712000000018,
      "d": 272.72700000000077,
      "v": 127
    },
    {
      "midi": 45,
      "hit": false,
      "t": 15545.439000000018,
      "d": 272.72700000000077,
      "v": 127
    },
    {
      "midi": 52,
      "hit": false,
      "t": 15545.439000000018,
      "d": 272.72700000000077,
      "v": 127
    },
    {
      "midi": 55,
      "hit": false,
      "t": 15545.439000000018,
      "d": 272.72700000000077,
      "v": 127
    },
    {
      "midi": 57,
      "hit": false,
      "t": 15545.439000000018,
      "d": 272.72700000000077,
      "v": 127
    },
    {
      "midi": 45,
      "hit": false,
      "t": 15818.16600000002,
      "d": 272.72700000000077,
      "v": 127
    },
    {
      "midi": 52,
      "hit": false,
      "t": 15818.16600000002,
      "d": 272.72700000000077,
      "v": 127
    },
    {
      "midi": 55,
      "hit": false,
      "t": 15818.16600000002,
      "d": 272.72700000000077,
      "v": 127
    },
    {
      "midi": 57,
      "hit": false,
      "t": 15818.16600000002,
      "d": 272.72700000000077,
      "v": 127
    },
    {
      "midi": 83,
      "hit": false,
      "t": 16090.892999999991,
      "d": 272.72700000000077,
      "v": 127
    },
    {
      "midi": 45,
      "hit": false,
      "t": 16090.89300000002,
      "d": 272.72700000000077,
      "v": 127
    },
    {
      "midi": 52,
      "hit": false,
      "t": 16090.89300000002,
      "d": 272.72700000000077,
      "v": 127
    },
    {
      "midi": 55,
      "hit": false,
      "t": 16090.89300000002,
      "d": 272.72700000000077,
      "v": 127
    },
    {
      "midi": 57,
      "hit": false,
      "t": 16090.89300000002,
      "d": 272.72700000000077,
      "v": 127
    },
    {
      "midi": 86,
      "hit": false,
      "t": 16363.619999999992,
      "d": 545.4540000000015,
      "v": 127
    },
    {
      "midi": 50,
      "hit": false,
      "t": 16363.62000000002,
      "d": 272.72699999999895,
      "v": 127
    },
    {
      "midi": 54,
      "hit": false,
      "t": 16363.62000000002,
      "d": 272.72699999999895,
      "v": 127
    },
    {
      "midi": 57,
      "hit": false,
      "t": 16363.62000000002,
      "d": 272.72699999999895,
      "v": 127
    },
    {
      "midi": 50,
      "hit": false,
      "t": 16636.34700000002,
      "d": 272.72699999999895,
      "v": 127
    },
    {
      "midi": 54,
      "hit": false,
      "t": 16636.34700000002,
      "d": 272.72699999999895,
      "v": 127
    },
    {
      "midi": 57,
      "hit": false,
      "t": 16636.34700000002,
      "d": 272.72699999999895,
      "v": 127
    },
    {
      "midi": 74,
      "hit": false,
      "t": 16909.073999999993,
      "d": 545.4540000000015,
      "v": 127
    },
    {
      "midi": 50,
      "hit": false,
      "t": 16909.07400000002,
      "d": 272.72699999999895,
      "v": 127
    },
    {
      "midi": 54,
      "hit": false,
      "t": 16909.07400000002,
      "d": 272.72699999999895,
      "v": 127
    },
    {
      "midi": 57,
      "hit": false,
      "t": 16909.07400000002,
      "d": 272.72699999999895,
      "v": 127
    },
    {
      "midi": 50,
      "hit": false,
      "t": 17181.801000000018,
      "d": 272.72699999999895,
      "v": 127
    },
    {
      "midi": 54,
      "hit": false,
      "t": 17181.801000000018,
      "d": 272.72699999999895,
      "v": 127
    },
    {
      "midi": 57,
      "hit": false,
      "t": 17181.801000000018,
      "d": 272.72699999999895,
      "v": 127
    },
    {
      "midi": 71,
      "hit": false,
      "t": 17454.527999999995,
      "d": 545.4540000000015,
      "v": 127
    },
    {
      "midi": 43,
      "hit": false,
      "t": 17454.528000000017,
      "d": 272.72699999999895,
      "v": 127
    },
    {
      "midi": 47,
      "hit": false,
      "t": 17454.528000000017,
      "d": 272.72699999999895,
      "v": 127
    },
    {
      "midi": 50,
      "hit": false,
      "t": 17454.528000000017,
      "d": 272.72699999999895,
      "v": 127
    },
    {
      "midi": 55,
      "hit": false,
      "t": 17454.528000000017,
      "d": 272.72699999999895,
      "v": 127
    },
    {
      "midi": 43,
      "hit": false,
      "t": 17727.255000000016,
      "d": 272.72699999999895,
      "v": 127
    },
    {
      "midi": 47,
      "hit": false,
      "t": 17727.255000000016,
      "d": 272.72699999999895,
      "v": 127
    },
    {
      "midi": 50,
      "hit": false,
      "t": 17727.255000000016,
      "d": 272.72699999999895,
      "v": 127
    },
    {
      "midi": 55,
      "hit": false,
      "t": 17727.255000000016,
      "d": 272.72699999999895,
      "v": 127
    },
    {
      "midi": 74,
      "hit": false,
      "t": 17999.981999999996,
      "d": 272.72699999999895,
      "v": 127
    },
    {
      "midi": 43,
      "hit": false,
      "t": 17999.982000000015,
      "d": 272.72699999999895,
      "v": 127
    },
    {
      "midi": 47,
      "hit": false,
      "t": 17999.982000000015,
      "d": 272.72699999999895,
      "v": 127
    },
    {
      "midi": 50,
      "hit": false,
      "t": 17999.982000000015,
      "d": 272.72699999999895,
      "v": 127
    },
    {
      "midi": 55,
      "hit": false,
      "t": 17999.982000000015,
      "d": 272.72699999999895,
      "v": 127
    },
    {
      "midi": 74,
      "hit": false,
      "t": 18272.708999999995,
      "d": 272.72699999999895,
      "v": 127
    },
    {
      "midi": 43,
      "hit": false,
      "t": 18272.709000000013,
      "d": 272.72699999999895,
      "v": 127
    },
    {
      "midi": 47,
      "hit": false,
      "t": 18272.709000000013,
      "d": 272.72699999999895,
      "v": 127
    },
    {
      "midi": 50,
      "hit": false,
      "t": 18272.709000000013,
      "d": 272.72699999999895,
      "v": 127
    },
    {
      "midi": 55,
      "hit": false,
      "t": 18272.709000000013,
      "d": 272.72699999999895,
      "v": 127
    },
    {
      "midi": 79,
      "hit": false,
      "t": 18545.435999999994,
      "d": 272.72699999999895,
      "v": 127
    },
    {
      "midi": 43,
      "hit": false,
      "t": 18545.436000000012,
      "d": 272.72699999999895,
      "v": 127
    },
    {
      "midi": 47,
      "hit": false,
      "t": 18545.436000000012,
      "d": 272.72699999999895,
      "v": 127
    },
    {
      "midi": 50,
      "hit": false,
      "t": 18545.436000000012,
      "d": 272.72699999999895,
      "v": 127
    },
    {
      "midi": 55,
      "hit": false,
      "t": 18545.436000000012,
      "d": 272.72699999999895,
      "v": 127
    },
    {
      "midi": 79,
      "hit": false,
      "t": 18818.162999999993,
      "d": 272.72699999999895,
      "v": 127
    },
    {
      "midi": 43,
      "hit": false,
      "t": 18818.16300000001,
      "d": 272.72699999999895,
      "v": 127
    },
    {
      "midi": 47,
      "hit": false,
      "t": 18818.16300000001,
      "d": 272.72699999999895,
      "v": 127
    },
    {
      "midi": 50,
      "hit": false,
      "t": 18818.16300000001,
      "d": 272.72699999999895,
      "v": 127
    },
    {
      "midi": 55,
      "hit": false,
      "t": 18818.16300000001,
      "d": 272.72699999999895,
      "v": 127
    },
    {
      "midi": 83,
      "hit": false,
      "t": 19090.889999999992,
      "d": 545.4540000000015,
      "v": 127
    },
    {
      "midi": 43,
      "hit": false,
      "t": 19090.89000000001,
      "d": 272.72699999999895,
      "v": 127
    },
    {
      "midi": 47,
      "hit": false,
      "t": 19090.89000000001,
      "d": 272.72699999999895,
      "v": 127
    },
    {
      "midi": 50,
      "hit": false,
      "t": 19090.89000000001,
      "d": 272.72699999999895,
      "v": 127
    },
    {
      "midi": 55,
      "hit": false,
      "t": 19090.89000000001,
      "d": 272.72699999999895,
      "v": 127
    },
    {
      "midi": 43,
      "hit": false,
      "t": 19363.61700000001,
      "d": 272.72699999999895,
      "v": 127
    },
    {
      "midi": 47,
      "hit": false,
      "t": 19363.61700000001,
      "d": 272.72699999999895,
      "v": 127
    },
    {
      "midi": 50,
      "hit": false,
      "t": 19363.61700000001,
      "d": 272.72699999999895,
      "v": 127
    },
    {
      "midi": 55,
      "hit": false,
      "t": 19363.61700000001,
      "d": 272.72699999999895,
      "v": 127
    },
    {
      "midi": 86,
      "hit": false,
      "t": 19636.343999999994,
      "d": 136.36349999999948,
      "v": 127
    },
    {
      "midi": 43,
      "hit": false,
      "t": 19636.34400000001,
      "d": 272.72699999999895,
      "v": 127
    },
    {
      "midi": 48,
      "hit": false,
      "t": 19636.34400000001,
      "d": 272.72699999999895,
      "v": 127
    },
    {
      "midi": 50,
      "hit": false,
      "t": 19636.34400000001,
      "d": 272.72699999999895,
      "v": 127
    },
    {
      "midi": 54,
      "hit": false,
      "t": 19636.34400000001,
      "d": 272.72699999999895,
      "v": 127
    },
    {
      "midi": 84,
      "hit": false,
      "t": 19772.707499999993,
      "d": 136.36349999999948,
      "v": 127
    },
    {
      "midi": 86,
      "hit": false,
      "t": 19909.070999999993,
      "d": 136.36349999999948,
      "v": 127
    },
    {
      "midi": 43,
      "hit": false,
      "t": 19909.071000000007,
      "d": 272.72699999999895,
      "v": 127
    },
    {
      "midi": 48,
      "hit": false,
      "t": 19909.071000000007,
      "d": 272.72699999999895,
      "v": 127
    },
    {
      "midi": 50,
      "hit": false,
      "t": 19909.071000000007,
      "d": 272.72699999999895,
      "v": 127
    },
    {
      "midi": 54,
      "hit": false,
      "t": 19909.071000000007,
      "d": 272.72699999999895,
      "v": 127
    },
    {
      "midi": 84,
      "hit": false,
      "t": 20045.434499999992,
      "d": 136.36349999999948,
      "v": 127
    },
    {
      "midi": 81,
      "hit": false,
      "t": 20181.79799999999,
      "d": 545.4540000000015,
      "v": 127
    },
    {
      "midi": 43,
      "hit": false,
      "t": 20181.798000000006,
      "d": 272.72699999999895,
      "v": 127
    },
    {
      "midi": 48,
      "hit": false,
      "t": 20181.798000000006,
      "d": 272.72699999999895,
      "v": 127
    },
    {
      "midi": 50,
      "hit": false,
      "t": 20181.798000000006,
      "d": 272.72699999999895,
      "v": 127
    },
    {
      "midi": 54,
      "hit": false,
      "t": 20181.798000000006,
      "d": 272.72699999999895,
      "v": 127
    },
    {
      "midi": 43,
      "hit": false,
      "t": 20454.525000000005,
      "d": 272.72699999999895,
      "v": 127
    },
    {
      "midi": 48,
      "hit": false,
      "t": 20454.525000000005,
      "d": 272.72699999999895,
      "v": 127
    },
    {
      "midi": 50,
      "hit": false,
      "t": 20454.525000000005,
      "d": 272.72699999999895,
      "v": 127
    },
    {
      "midi": 54,
      "hit": false,
      "t": 20454.525000000005,
      "d": 272.72699999999895,
      "v": 127
    },
    {
      "midi": 86,
      "hit": false,
      "t": 20727.251999999993,
      "d": 136.36349999999948,
      "v": 127
    },
    {
      "midi": 43,
      "hit": false,
      "t": 20727.252000000004,
      "d": 272.72699999999895,
      "v": 127
    },
    {
      "midi": 48,
      "hit": false,
      "t": 20727.252000000004,
      "d": 272.72699999999895,
      "v": 127
    },
    {
      "midi": 50,
      "hit": false,
      "t": 20727.252000000004,
      "d": 272.72699999999895,
      "v": 127
    },
    {
      "midi": 54,
      "hit": false,
      "t": 20727.252000000004,
      "d": 272.72699999999895,
      "v": 127
    },
    {
      "midi": 84,
      "hit": false,
      "t": 20863.615499999993,
      "d": 136.36349999999948,
      "v": 127
    },
    {
      "midi": 86,
      "hit": false,
      "t": 20999.978999999992,
      "d": 136.36349999999948,
      "v": 127
    },
    {
      "midi": 43,
      "hit": false,
      "t": 20999.979000000003,
      "d": 272.72699999999895,
      "v": 127
    },
    {
      "midi": 48,
      "hit": false,
      "t": 20999.979000000003,
      "d": 272.72699999999895,
      "v": 127
    },
    {
      "midi": 50,
      "hit": false,
      "t": 20999.979000000003,
      "d": 272.72699999999895,
      "v": 127
    },
    {
      "midi": 54,
      "hit": false,
      "t": 20999.979000000003,
      "d": 272.72699999999895,
      "v": 127
    },
    {
      "midi": 84,
      "hit": false,
      "t": 21136.34249999999,
      "d": 136.36349999999948,
      "v": 127
    },
    {
      "midi": 81,
      "hit": false,
      "t": 21272.70599999999,
      "d": 545.4540000000015,
      "v": 127
    },
    {
      "midi": 43,
      "hit": false,
      "t": 21272.706000000002,
      "d": 272.72699999999895,
      "v": 127
    },
    {
      "midi": 48,
      "hit": false,
      "t": 21272.706000000002,
      "d": 272.72699999999895,
      "v": 127
    },
    {
      "midi": 50,
      "hit": false,
      "t": 21272.706000000002,
      "d": 272.72699999999895,
      "v": 127
    },
    {
      "midi": 54,
      "hit": false,
      "t": 21272.706000000002,
      "d": 272.72699999999895,
      "v": 127
    },
    {
      "midi": 43,
      "hit": false,
      "t": 21545.433,
      "d": 272.72699999999895,
      "v": 127
    },
    {
      "midi": 48,
      "hit": false,
      "t": 21545.433,
      "d": 272.72699999999895,
      "v": 127
    },
    {
      "midi": 50,
      "hit": false,
      "t": 21545.433,
      "d": 272.72699999999895,
      "v": 127
    },
    {
      "midi": 54,
      "hit": false,
      "t": 21545.433,
      "d": 272.72699999999895,
      "v": 127
    },
    {
      "midi": 71,
      "hit": false,
      "t": 21818.159999999993,
      "d": 545.4540000000015,
      "v": 127
    },
    {
      "midi": 43,
      "hit": false,
      "t": 21818.16,
      "d": 272.72699999999895,
      "v": 127
    },
    {
      "midi": 47,
      "hit": false,
      "t": 21818.16,
      "d": 272.72699999999895,
      "v": 127
    },
    {
      "midi": 50,
      "hit": false,
      "t": 21818.16,
      "d": 272.72699999999895,
      "v": 127
    },
    {
      "midi": 55,
      "hit": false,
      "t": 21818.16,
      "d": 272.72699999999895,
      "v": 127
    },
    {
      "midi": 43,
      "hit": false,
      "t": 22090.887,
      "d": 272.72699999999895,
      "v": 127
    },
    {
      "midi": 47,
      "hit": false,
      "t": 22090.887,
      "d": 272.72699999999895,
      "v": 127
    },
    {
      "midi": 50,
      "hit": false,
      "t": 22090.887,
      "d": 272.72699999999895,
      "v": 127
    },
    {
      "midi": 55,
      "hit": false,
      "t": 22090.887,
      "d": 272.72699999999895,
      "v": 127
    },
    {
      "midi": 74,
      "hit": false,
      "t": 22363.613999999994,
      "d": 272.72699999999895,
      "v": 127
    },
    {
      "midi": 43,
      "hit": false,
      "t": 22363.613999999998,
      "d": 272.72699999999895,
      "v": 127
    },
    {
      "midi": 47,
      "hit": false,
      "t": 22363.613999999998,
      "d": 272.72699999999895,
      "v": 127
    },
    {
      "midi": 50,
      "hit": false,
      "t": 22363.613999999998,
      "d": 272.72699999999895,
      "v": 127
    },
    {
      "midi": 55,
      "hit": false,
      "t": 22363.613999999998,
      "d": 272.72699999999895,
      "v": 127
    },
    {
      "midi": 74,
      "hit": false,
      "t": 22636.340999999993,
      "d": 272.72699999999895,
      "v": 127
    },
    {
      "midi": 43,
      "hit": false,
      "t": 22636.340999999997,
      "d": 272.72699999999895,
      "v": 127
    },
    {
      "midi": 47,
      "hit": false,
      "t": 22636.340999999997,
      "d": 272.72699999999895,
      "v": 127
    },
    {
      "midi": 50,
      "hit": false,
      "t": 22636.340999999997,
      "d": 272.72699999999895,
      "v": 127
    },
    {
      "midi": 55,
      "hit": false,
      "t": 22636.340999999997,
      "d": 272.72699999999895,
      "v": 127
    },
    {
      "midi": 79,
      "hit": false,
      "t": 22909.067999999992,
      "d": 272.72699999999895,
      "v": 127
    },
    {
      "midi": 43,
      "hit": false,
      "t": 22909.067999999996,
      "d": 272.72699999999895,
      "v": 127
    },
    {
      "midi": 47,
      "hit": false,
      "t": 22909.067999999996,
      "d": 272.72699999999895,
      "v": 127
    },
    {
      "midi": 50,
      "hit": false,
      "t": 22909.067999999996,
      "d": 272.72699999999895,
      "v": 127
    },
    {
      "midi": 55,
      "hit": false,
      "t": 22909.067999999996,
      "d": 272.72699999999895,
      "v": 127
    },
    {
      "midi": 79,
      "hit": false,
      "t": 23181.79499999999,
      "d": 272.72699999999895,
      "v": 127
    },
    {
      "midi": 43,
      "hit": false,
      "t": 23181.794999999995,
      "d": 272.72699999999895,
      "v": 127
    },
    {
      "midi": 47,
      "hit": false,
      "t": 23181.794999999995,
      "d": 272.72699999999895,
      "v": 127
    },
    {
      "midi": 50,
      "hit": false,
      "t": 23181.794999999995,
      "d": 272.72699999999895,
      "v": 127
    },
    {
      "midi": 55,
      "hit": false,
      "t": 23181.794999999995,
      "d": 272.72699999999895,
      "v": 127
    },
    {
      "midi": 83,
      "hit": false,
      "t": 23454.52199999999,
      "d": 545.4540000000015,
      "v": 127
    },
    {
      "midi": 43,
      "hit": false,
      "t": 23454.521999999994,
      "d": 272.72699999999895,
      "v": 127
    },
    {
      "midi": 47,
      "hit": false,
      "t": 23454.521999999994,
      "d": 272.72699999999895,
      "v": 127
    },
    {
      "midi": 50,
      "hit": false,
      "t": 23454.521999999994,
      "d": 272.72699999999895,
      "v": 127
    },
    {
      "midi": 55,
      "hit": false,
      "t": 23454.521999999994,
      "d": 272.72699999999895,
      "v": 127
    },
    {
      "midi": 43,
      "hit": false,
      "t": 23727.248999999993,
      "d": 272.72699999999895,
      "v": 127
    },
    {
      "midi": 47,
      "hit": false,
      "t": 23727.248999999993,
      "d": 272.72699999999895,
      "v": 127
    },
    {
      "midi": 50,
      "hit": false,
      "t": 23727.248999999993,
      "d": 272.72699999999895,
      "v": 127
    },
    {
      "midi": 55,
      "hit": false,
      "t": 23727.248999999993,
      "d": 272.72699999999895,
      "v": 127
    },
    {
      "midi": 86,
      "hit": false,
      "t": 23999.97599999999,
      "d": 136.36349999999948,
      "v": 127
    },
    {
      "midi": 43,
      "hit": false,
      "t": 23999.97599999999,
      "d": 272.72699999999895,
      "v": 127
    },
    {
      "midi": 48,
      "hit": false,
      "t": 23999.97599999999,
      "d": 272.72699999999895,
      "v": 127
    },
    {
      "midi": 50,
      "hit": false,
      "t": 23999.97599999999,
      "d": 272.72699999999895,
      "v": 127
    },
    {
      "midi": 54,
      "hit": false,
      "t": 23999.97599999999,
      "d": 272.72699999999895,
      "v": 127
    },
    {
      "midi": 84,
      "hit": false,
      "t": 24136.33949999999,
      "d": 136.36349999999948,
      "v": 127
    },
    {
      "midi": 86,
      "hit": false,
      "t": 24272.70299999999,
      "d": 136.36349999999948,
      "v": 127
    },
    {
      "midi": 43,
      "hit": false,
      "t": 24272.70299999999,
      "d": 272.72699999999895,
      "v": 127
    },
    {
      "midi": 48,
      "hit": false,
      "t": 24272.70299999999,
      "d": 272.72699999999895,
      "v": 127
    },
    {
      "midi": 50,
      "hit": false,
      "t": 24272.70299999999,
      "d": 272.72699999999895,
      "v": 127
    },
    {
      "midi": 54,
      "hit": false,
      "t": 24272.70299999999,
      "d": 272.72699999999895,
      "v": 127
    },
    {
      "midi": 84,
      "hit": false,
      "t": 24409.06649999999,
      "d": 136.36349999999948,
      "v": 127
    },
    {
      "midi": 81,
      "hit": false,
      "t": 24545.42999999999,
      "d": 272.72699999999895,
      "v": 127
    },
    {
      "midi": 43,
      "hit": false,
      "t": 24545.42999999999,
      "d": 272.72699999999895,
      "v": 127
    },
    {
      "midi": 48,
      "hit": false,
      "t": 24545.42999999999,
      "d": 272.72699999999895,
      "v": 127
    },
    {
      "midi": 50,
      "hit": false,
      "t": 24545.42999999999,
      "d": 272.72699999999895,
      "v": 127
    },
    {
      "midi": 54,
      "hit": false,
      "t": 24545.42999999999,
      "d": 272.72699999999895,
      "v": 127
    },
    {
      "midi": 81,
      "hit": false,
      "t": 24818.15699999999,
      "d": 136.36349999999948,
      "v": 127
    },
    {
      "midi": 43,
      "hit": false,
      "t": 24818.15699999999,
      "d": 272.72699999999895,
      "v": 127
    },
    {
      "midi": 48,
      "hit": false,
      "t": 24818.15699999999,
      "d": 272.72699999999895,
      "v": 127
    },
    {
      "midi": 50,
      "hit": false,
      "t": 24818.15699999999,
      "d": 272.72699999999895,
      "v": 127
    },
    {
      "midi": 54,
      "hit": false,
      "t": 24818.15699999999,
      "d": 272.72699999999895,
      "v": 127
    },
    {
      "midi": 83,
      "hit": false,
      "t": 24954.520499999988,
      "d": 136.36349999999948,
      "v": 127
    },
    {
      "midi": 79,
      "hit": false,
      "t": 25090.883999999987,
      "d": 545.4540000000015,
      "v": 127
    },
    {
      "midi": 43,
      "hit": false,
      "t": 25090.883999999987,
      "d": 545.4540000000015,
      "v": 127
    },
    {
      "midi": 47,
      "hit": false,
      "t": 25090.883999999987,
      "d": 545.4540000000015,
      "v": 127
    },
    {
      "midi": 50,
      "hit": false,
      "t": 25090.883999999987,
      "d": 545.4540000000015,
      "v": 127
    },
    {
      "midi": 55,
      "hit": false,
      "t": 25090.883999999987,
      "d": 545.4540000000015,
      "v": 127
    },
    {
      "midi": 43,
      "hit": false,
      "t": 25636.33799999999,
      "d": 545.4540000000015,
      "v": 127
    },
    {
      "midi": 83,
      "hit": false,
      "t": 26181.79199999999,
      "d": 136.36349999999948,
      "v": 127
    },
    {
      "midi": 40,
      "hit": false,
      "t": 26181.79199999999,
      "d": 272.72699999999895,
      "v": 127
    },
    {
      "midi": 43,
      "hit": false,
      "t": 26181.79199999999,
      "d": 272.72699999999895,
      "v": 127
    },
    {
      "midi": 47,
      "hit": false,
      "t": 26181.79199999999,
      "d": 272.72699999999895,
      "v": 127
    },
    {
      "midi": 52,
      "hit": false,
      "t": 26181.79199999999,
      "d": 272.72699999999895,
      "v": 127
    },
    {
      "midi": 81,
      "hit": false,
      "t": 26318.15549999999,
      "d": 136.36349999999948,
      "v": 127
    },
    {
      "midi": 79,
      "hit": false,
      "t": 26454.51899999999,
      "d": 136.36349999999948,
      "v": 127
    },
    {
      "midi": 40,
      "hit": false,
      "t": 26454.51899999999,
      "d": 272.72699999999895,
      "v": 127
    },
    {
      "midi": 43,
      "hit": false,
      "t": 26454.51899999999,
      "d": 272.72699999999895,
      "v": 127
    },
    {
      "midi": 47,
      "hit": false,
      "t": 26454.51899999999,
      "d": 272.72699999999895,
      "v": 127
    },
    {
      "midi": 52,
      "hit": false,
      "t": 26454.51899999999,
      "d": 272.72699999999895,
      "v": 127
    },
    {
      "midi": 78,
      "hit": false,
      "t": 26590.88249999999,
      "d": 136.36349999999948,
      "v": 127
    },
    {
      "midi": 76,
      "hit": false,
      "t": 26727.24599999999,
      "d": 136.36349999999948,
      "v": 127
    },
    {
      "midi": 78,
      "hit": false,
      "t": 26863.609499999988,
      "d": 136.36349999999948,
      "v": 127
    },
    {
      "midi": 79,
      "hit": false,
      "t": 26999.972999999987,
      "d": 136.36349999999948,
      "v": 127
    },
    {
      "midi": 40,
      "hit": false,
      "t": 26999.972999999987,
      "d": 272.72699999999895,
      "v": 127
    },
    {
      "midi": 43,
      "hit": false,
      "t": 26999.972999999987,
      "d": 272.72699999999895,
      "v": 127
    },
    {
      "midi": 47,
      "hit": false,
      "t": 26999.972999999987,
      "d": 272.72699999999895,
      "v": 127
    },
    {
      "midi": 52,
      "hit": false,
      "t": 26999.972999999987,
      "d": 272.72699999999895,
      "v": 127
    },
    {
      "midi": 76,
      "hit": false,
      "t": 27136.336499999987,
      "d": 136.36349999999948,
      "v": 127
    },
    {
      "midi": 75,
      "hit": false,
      "t": 27272.699999999986,
      "d": 136.36349999999948,
      "v": 127
    },
    {
      "midi": 47,
      "hit": false,
      "t": 27272.699999999986,
      "d": 272.72699999999895,
      "v": 127
    },
    {
      "midi": 54,
      "hit": false,
      "t": 27272.699999999986,
      "d": 272.72699999999895,
      "v": 127
    },
    {
      "midi": 57,
      "hit": false,
      "t": 27272.699999999986,
      "d": 272.72699999999895,
      "v": 127
    },
    {
      "midi": 76,
      "hit": false,
      "t": 27409.063499999986,
      "d": 136.36349999999948,
      "v": 127
    },
    {
      "midi": 78,
      "hit": false,
      "t": 27545.426999999985,
      "d": 136.36349999999948,
      "v": 127
    },
    {
      "midi": 47,
      "hit": false,
      "t": 27545.426999999985,
      "d": 272.72699999999895,
      "v": 127
    },
    {
      "midi": 54,
      "hit": false,
      "t": 27545.426999999985,
      "d": 272.72699999999895,
      "v": 127
    },
    {
      "midi": 57,
      "hit": false,
      "t": 27545.426999999985,
      "d": 272.72699999999895,
      "v": 127
    },
    {
      "midi": 75,
      "hit": false,
      "t": 27681.790499999985,
      "d": 136.36349999999948,
      "v": 127
    },
    {
      "midi": 71,
      "hit": false,
      "t": 27818.153999999984,
      "d": 136.36349999999948,
      "v": 127
    },
    {
      "midi": 73,
      "hit": false,
      "t": 27954.517499999984,
      "d": 136.36349999999948,
      "v": 127
    },
    {
      "midi": 75,
      "hit": false,
      "t": 28090.880999999983,
      "d": 136.36349999999948,
      "v": 127
    },
    {
      "midi": 47,
      "hit": false,
      "t": 28090.880999999983,
      "d": 272.72699999999895,
      "v": 127
    },
    {
      "midi": 54,
      "hit": false,
      "t": 28090.880999999983,
      "d": 272.72699999999895,
      "v": 127
    },
    {
      "midi": 57,
      "hit": false,
      "t": 28090.880999999983,
      "d": 272.72699999999895,
      "v": 127
    },
    {
      "midi": 71,
      "hit": false,
      "t": 28227.244499999983,
      "d": 136.36349999999948,
      "v": 127
    },
    {
      "midi": 67,
      "hit": false,
      "t": 28363.607999999982,
      "d": 136.36349999999948,
      "v": 127
    },
    {
      "midi": 52,
      "hit": false,
      "t": 28363.607999999982,
      "d": 272.72699999999895,
      "v": 127
    },
    {
      "midi": 55,
      "hit": false,
      "t": 28363.607999999982,
      "d": 272.72699999999895,
      "v": 127
    },
    {
      "midi": 69,
      "hit": false,
      "t": 28499.97149999998,
      "d": 136.36349999999948,
      "v": 127
    },
    {
      "midi": 71,
      "hit": false,
      "t": 28636.33499999998,
      "d": 136.36349999999948,
      "v": 127
    },
    {
      "midi": 52,
      "hit": false,
      "t": 28636.33499999998,
      "d": 272.72699999999895,
      "v": 127
    },
    {
      "midi": 55,
      "hit": false,
      "t": 28636.33499999998,
      "d": 272.72699999999895,
      "v": 127
    },
    {
      "midi": 67,
      "hit": false,
      "t": 28772.69849999998,
      "d": 136.36349999999948,
      "v": 127
    },
    {
      "midi": 64,
      "hit": false,
      "t": 28909.06199999998,
      "d": 136.36349999999948,
      "v": 127
    },
    {
      "midi": 66,
      "hit": false,
      "t": 29045.42549999998,
      "d": 136.36349999999948,
      "v": 127
    },
    {
      "midi": 67,
      "hit": false,
      "t": 29181.78899999998,
      "d": 136.36349999999948,
      "v": 127
    },
    {
      "midi": 52,
      "hit": false,
      "t": 29181.78899999998,
      "d": 272.72699999999895,
      "v": 127
    },
    {
      "midi": 55,
      "hit": false,
      "t": 29181.78899999998,
      "d": 272.72699999999895,
      "v": 127
    },
    {
      "midi": 64,
      "hit": false,
      "t": 29318.15249999998,
      "d": 136.36349999999948,
      "v": 127
    },
    {
      "midi": 63,
      "hit": false,
      "t": 29454.515999999978,
      "d": 136.36349999999948,
      "v": 127
    },
    {
      "midi": 47,
      "hit": false,
      "t": 29454.515999999978,
      "d": 272.72699999999895,
      "v": 127
    },
    {
      "midi": 64,
      "hit": false,
      "t": 29590.879499999977,
      "d": 136.36349999999948,
      "v": 127
    },
    {
      "midi": 66,
      "hit": false,
      "t": 29727.242999999977,
      "d": 136.36349999999948,
      "v": 127
    },
    {
      "midi": 47,
      "hit": false,
      "t": 29727.242999999977,
      "d": 272.72699999999895,
      "v": 127
    },
    {
      "midi": 63,
      "hit": false,
      "t": 29863.606499999976,
      "d": 136.36349999999948,
      "v": 127
    },
    {
      "midi": 59,
      "hit": false,
      "t": 29999.969999999976,
      "d": 136.36349999999948,
      "v": 127
    },
    {
      "midi": 61,
      "hit": false,
      "t": 30136.333499999975,
      "d": 136.36349999999948,
      "v": 127
    },
    {
      "midi": 63,
      "hit": false,
      "t": 30272.696999999975,
      "d": 136.36349999999948,
      "v": 127
    },
    {
      "midi": 47,
      "hit": false,
      "t": 30272.696999999975,
      "d": 272.72699999999895,
      "v": 127
    },
    {
      "midi": 59,
      "hit": false,
      "t": 30409.060499999974,
      "d": 136.36349999999948,
      "v": 127
    },
    {
      "midi": 55,
      "hit": false,
      "t": 30545.423999999974,
      "d": 136.36349999999948,
      "v": 127
    },
    {
      "midi": 57,
      "hit": false,
      "t": 30681.787499999973,
      "d": 136.36349999999948,
      "v": 127
    },
    {
      "midi": 59,
      "hit": false,
      "t": 30818.150999999973,
      "d": 136.36349999999948,
      "v": 127
    },
    {
      "midi": 55,
      "hit": false,
      "t": 30954.514499999972,
      "d": 136.36349999999948,
      "v": 127
    },
    {
      "midi": 52,
      "hit": false,
      "t": 31090.87799999997,
      "d": 136.36349999999948,
      "v": 127
    },
    {
      "midi": 54,
      "hit": false,
      "t": 31227.24149999997,
      "d": 136.36349999999948,
      "v": 127
    },
    {
      "midi": 55,
      "hit": false,
      "t": 31363.60499999997,
      "d": 136.36349999999948,
      "v": 127
    },
    {
      "midi": 52,
      "hit": false,
      "t": 31499.96849999997,
      "d": 136.36349999999948,
      "v": 127
    },
    {
      "midi": 49,
      "hit": false,
      "t": 31636.33199999997,
      "d": 136.36349999999948,
      "v": 127
    },
    {
      "midi": 50,
      "hit": false,
      "t": 31772.69549999997,
      "d": 136.36349999999948,
      "v": 127
    },
    {
      "midi": 52,
      "hit": false,
      "t": 31909.05899999997,
      "d": 136.36349999999948,
      "v": 127
    },
    {
      "midi": 54,
      "hit": false,
      "t": 32045.422499999968,
      "d": 136.36349999999948,
      "v": 127
    },
    {
      "midi": 55,
      "hit": false,
      "t": 32181.785999999967,
      "d": 136.36349999999948,
      "v": 127
    },
    {
      "midi": 57,
      "hit": false,
      "t": 32318.149499999967,
      "d": 136.36349999999948,
      "v": 127
    },
    {
      "midi": 59,
      "hit": false,
      "t": 32454.512999999966,
      "d": 136.36349999999948,
      "v": 127
    },
    {
      "midi": 61,
      "hit": false,
      "t": 32590.876499999966,
      "d": 136.36349999999948,
      "v": 127
    },
    {
      "midi": 50,
      "hit": false,
      "t": 32727.239999999965,
      "d": 545.4540000000015,
      "v": 127
    },
    {
      "midi": 62,
      "hit": false,
      "t": 32727.239999999972,
      "d": 136.3635000000031,
      "v": 127
    },
    {
      "midi": 64,
      "hit": false,
      "t": 32863.603499999976,
      "d": 136.36349999999948,
      "v": 127
    },
    {
      "midi": 66,
      "hit": false,
      "t": 32999.966999999975,
      "d": 136.36349999999948,
      "v": 127
    },
    {
      "midi": 67,
      "hit": false,
      "t": 33136.330499999975,
      "d": 136.36349999999948,
      "v": 127
    },
    {
      "midi": 45,
      "hit": false,
      "t": 33272.69399999997,
      "d": 545.4539999999979,
      "v": 127
    },
    {
      "midi": 52,
      "hit": false,
      "t": 33272.69399999997,
      "d": 545.4539999999979,
      "v": 127
    },
    {
      "midi": 55,
      "hit": false,
      "t": 33272.69399999997,
      "d": 545.4539999999979,
      "v": 127
    },
    {
      "midi": 69,
      "hit": false,
      "t": 33272.693999999974,
      "d": 136.36349999999948,
      "v": 127
    },
    {
      "midi": 71,
      "hit": false,
      "t": 33409.05749999997,
      "d": 136.36349999999948,
      "v": 127
    },
    {
      "midi": 72,
      "hit": false,
      "t": 33545.42099999997,
      "d": 136.36349999999948,
      "v": 127
    },
    {
      "midi": 73,
      "hit": false,
      "t": 33681.78449999997,
      "d": 136.36349999999948,
      "v": 127
    },
    {
      "midi": 50,
      "hit": false,
      "t": 33818.147999999965,
      "d": 545.4539999999979,
      "v": 127
    },
    {
      "midi": 54,
      "hit": false,
      "t": 33818.147999999965,
      "d": 545.4539999999979,
      "v": 127
    },
    {
      "midi": 74,
      "hit": false,
      "t": 33818.14799999997,
      "d": 136.36349999999948,
      "v": 127
    },
    {
      "midi": 76,
      "hit": false,
      "t": 33954.51149999997,
      "d": 136.36349999999948,
      "v": 127
    },
    {
      "midi": 78,
      "hit": false,
      "t": 34090.87499999997,
      "d": 136.36349999999948,
      "v": 127
    },
    {
      "midi": 79,
      "hit": false,
      "t": 34227.23849999997,
      "d": 136.36349999999948,
      "v": 127
    },
    {
      "midi": 81,
      "hit": false,
      "t": 34363.60199999997,
      "d": 136.36349999999948,
      "v": 127
    },
    {
      "midi": 83,
      "hit": false,
      "t": 34499.96549999997,
      "d": 136.36349999999948,
      "v": 127
    },
    {
      "midi": 84,
      "hit": false,
      "t": 34636.32899999997,
      "d": 136.36349999999948,
      "v": 127
    },
    {
      "midi": 81,
      "hit": false,
      "t": 34772.69249999997,
      "d": 136.36349999999948,
      "v": 127
    },
    {
      "midi": 55,
      "hit": false,
      "t": 34909.05599999996,
      "d": 272.72699999999895,
      "v": 127
    },
    {
      "midi": 59,
      "hit": false,
      "t": 34909.05599999996,
      "d": 272.72699999999895,
      "v": 127
    },
    {
      "midi": 62,
      "hit": false,
      "t": 34909.05599999996,
      "d": 272.72699999999895,
      "v": 127
    },
    {
      "midi": 71,
      "hit": false,
      "t": 34909.05599999997,
      "d": 545.4539999999979,
      "v": 127
    },
    {
      "midi": 83,
      "hit": false,
      "t": 34909.05599999997,
      "d": 545.4539999999979,
      "v": 127
    },
    {
      "midi": 55,
      "hit": false,
      "t": 35181.78299999996,
      "d": 272.72699999999895,
      "v": 127
    },
    {
      "midi": 59,
      "hit": false,
      "t": 35181.78299999996,
      "d": 272.72699999999895,
      "v": 127
    },
    {
      "midi": 62,
      "hit": false,
      "t": 35181.78299999996,
      "d": 272.72699999999895,
      "v": 127
    },
    {
      "midi": 55,
      "hit": false,
      "t": 35454.50999999996,
      "d": 272.72699999999895,
      "v": 127
    },
    {
      "midi": 59,
      "hit": false,
      "t": 35454.50999999996,
      "d": 272.72699999999895,
      "v": 127
    },
    {
      "midi": 62,
      "hit": false,
      "t": 35454.50999999996,
      "d": 272.72699999999895,
      "v": 127
    },
    {
      "midi": 74,
      "hit": false,
      "t": 35454.509999999966,
      "d": 272.72699999999895,
      "v": 127
    },
    {
      "midi": 55,
      "hit": false,
      "t": 35727.23699999996,
      "d": 272.72699999999895,
      "v": 127
    },
    {
      "midi": 59,
      "hit": false,
      "t": 35727.23699999996,
      "d": 272.72699999999895,
      "v": 127
    },
    {
      "midi": 62,
      "hit": false,
      "t": 35727.23699999996,
      "d": 272.72699999999895,
      "v": 127
    },
    {
      "midi": 74,
      "hit": false,
      "t": 35727.236999999965,
      "d": 272.72699999999895,
      "v": 127
    },
    {
      "midi": 55,
      "hit": false,
      "t": 35999.963999999956,
      "d": 272.72699999999895,
      "v": 127
    },
    {
      "midi": 59,
      "hit": false,
      "t": 35999.963999999956,
      "d": 272.72699999999895,
      "v": 127
    },
    {
      "midi": 62,
      "hit": false,
      "t": 35999.963999999956,
      "d": 272.72699999999895,
      "v": 127
    },
    {
      "midi": 79,
      "hit": false,
      "t": 35999.96399999996,
      "d": 272.72699999999895,
      "v": 127
    },
    {
      "midi": 55,
      "hit": false,
      "t": 36272.690999999955,
      "d": 272.72699999999895,
      "v": 127
    },
    {
      "midi": 59,
      "hit": false,
      "t": 36272.690999999955,
      "d": 272.72699999999895,
      "v": 127
    },
    {
      "midi": 62,
      "hit": false,
      "t": 36272.690999999955,
      "d": 272.72699999999895,
      "v": 127
    },
    {
      "midi": 79,
      "hit": false,
      "t": 36272.69099999996,
      "d": 272.72699999999895,
      "v": 127
    },
    {
      "midi": 55,
      "hit": false,
      "t": 36545.417999999954,
      "d": 272.72699999999895,
      "v": 127
    },
    {
      "midi": 59,
      "hit": false,
      "t": 36545.417999999954,
      "d": 272.72699999999895,
      "v": 127
    },
    {
      "midi": 62,
      "hit": false,
      "t": 36545.417999999954,
      "d": 272.72699999999895,
      "v": 127
    },
    {
      "midi": 83,
      "hit": false,
      "t": 36545.41799999996,
      "d": 545.4539999999979,
      "v": 127
    },
    {
      "midi": 55,
      "hit": false,
      "t": 36818.14499999995,
      "d": 272.72699999999895,
      "v": 127
    },
    {
      "midi": 59,
      "hit": false,
      "t": 36818.14499999995,
      "d": 272.72699999999895,
      "v": 127
    },
    {
      "midi": 62,
      "hit": false,
      "t": 36818.14499999995,
      "d": 272.72699999999895,
      "v": 127
    },
    {
      "midi": 55,
      "hit": false,
      "t": 37090.87199999995,
      "d": 272.72699999999895,
      "v": 127
    },
    {
      "midi": 60,
      "hit": false,
      "t": 37090.87199999995,
      "d": 272.72699999999895,
      "v": 127
    },
    {
      "midi": 62,
      "hit": false,
      "t": 37090.87199999995,
      "d": 272.72699999999895,
      "v": 127
    },
    {
      "midi": 66,
      "hit": false,
      "t": 37090.87199999995,
      "d": 272.72699999999895,
      "v": 127
    },
    {
      "midi": 86,
      "hit": false,
      "t": 37090.87199999996,
      "d": 136.36349999999948,
      "v": 127
    },
    {
      "midi": 84,
      "hit": false,
      "t": 37227.23549999996,
      "d": 136.36349999999948,
      "v": 127
    },
    {
      "midi": 55,
      "hit": false,
      "t": 37363.59899999995,
      "d": 272.72699999999895,
      "v": 127
    },
    {
      "midi": 60,
      "hit": false,
      "t": 37363.59899999995,
      "d": 272.72699999999895,
      "v": 127
    },
    {
      "midi": 62,
      "hit": false,
      "t": 37363.59899999995,
      "d": 272.72699999999895,
      "v": 127
    },
    {
      "midi": 66,
      "hit": false,
      "t": 37363.59899999995,
      "d": 272.72699999999895,
      "v": 127
    },
    {
      "midi": 86,
      "hit": false,
      "t": 37363.59899999996,
      "d": 136.36349999999948,
      "v": 127
    },
    {
      "midi": 84,
      "hit": false,
      "t": 37499.96249999996,
      "d": 136.36349999999948,
      "v": 127
    },
    {
      "midi": 55,
      "hit": false,
      "t": 37636.32599999995,
      "d": 272.72699999999895,
      "v": 127
    },
    {
      "midi": 60,
      "hit": false,
      "t": 37636.32599999995,
      "d": 272.72699999999895,
      "v": 127
    },
    {
      "midi": 62,
      "hit": false,
      "t": 37636.32599999995,
      "d": 272.72699999999895,
      "v": 127
    },
    {
      "midi": 66,
      "hit": false,
      "t": 37636.32599999995,
      "d": 272.72699999999895,
      "v": 127
    },
    {
      "midi": 81,
      "hit": false,
      "t": 37636.32599999996,
      "d": 545.4539999999979,
      "v": 127
    },
    {
      "midi": 55,
      "hit": false,
      "t": 37909.05299999995,
      "d": 272.72699999999895,
      "v": 127
    },
    {
      "midi": 60,
      "hit": false,
      "t": 37909.05299999995,
      "d": 272.72699999999895,
      "v": 127
    },
    {
      "midi": 62,
      "hit": false,
      "t": 37909.05299999995,
      "d": 272.72699999999895,
      "v": 127
    },
    {
      "midi": 66,
      "hit": false,
      "t": 37909.05299999995,
      "d": 272.72699999999895,
      "v": 127
    },
    {
      "midi": 55,
      "hit": false,
      "t": 38181.77999999995,
      "d": 272.72699999999895,
      "v": 127
    },
    {
      "midi": 60,
      "hit": false,
      "t": 38181.77999999995,
      "d": 272.72699999999895,
      "v": 127
    },
    {
      "midi": 62,
      "hit": false,
      "t": 38181.77999999995,
      "d": 272.72699999999895,
      "v": 127
    },
    {
      "midi": 66,
      "hit": false,
      "t": 38181.77999999995,
      "d": 272.72699999999895,
      "v": 127
    },
    {
      "midi": 86,
      "hit": false,
      "t": 38181.779999999955,
      "d": 136.36349999999948,
      "v": 127
    },
    {
      "midi": 84,
      "hit": false,
      "t": 38318.143499999955,
      "d": 136.36349999999948,
      "v": 127
    },
    {
      "midi": 55,
      "hit": false,
      "t": 38454.50699999995,
      "d": 272.72699999999895,
      "v": 127
    },
    {
      "midi": 60,
      "hit": false,
      "t": 38454.50699999995,
      "d": 272.72699999999895,
      "v": 127
    },
    {
      "midi": 62,
      "hit": false,
      "t": 38454.50699999995,
      "d": 272.72699999999895,
      "v": 127
    },
    {
      "midi": 66,
      "hit": false,
      "t": 38454.50699999995,
      "d": 272.72699999999895,
      "v": 127
    },
    {
      "midi": 86,
      "hit": false,
      "t": 38454.506999999954,
      "d": 136.36349999999948,
      "v": 127
    },
    {
      "midi": 84,
      "hit": false,
      "t": 38590.87049999995,
      "d": 136.36349999999948,
      "v": 127
    },
    {
      "midi": 55,
      "hit": false,
      "t": 38727.233999999946,
      "d": 272.72699999999895,
      "v": 127
    },
    {
      "midi": 60,
      "hit": false,
      "t": 38727.233999999946,
      "d": 272.72699999999895,
      "v": 127
    },
    {
      "midi": 62,
      "hit": false,
      "t": 38727.233999999946,
      "d": 272.72699999999895,
      "v": 127
    },
    {
      "midi": 66,
      "hit": false,
      "t": 38727.233999999946,
      "d": 272.72699999999895,
      "v": 127
    },
    {
      "midi": 81,
      "hit": false,
      "t": 38727.23399999995,
      "d": 545.4539999999979,
      "v": 127
    },
    {
      "midi": 55,
      "hit": false,
      "t": 38999.960999999945,
      "d": 272.72699999999895,
      "v": 127
    },
    {
      "midi": 60,
      "hit": false,
      "t": 38999.960999999945,
      "d": 272.72699999999895,
      "v": 127
    },
    {
      "midi": 62,
      "hit": false,
      "t": 38999.960999999945,
      "d": 272.72699999999895,
      "v": 127
    },
    {
      "midi": 66,
      "hit": false,
      "t": 38999.960999999945,
      "d": 272.72699999999895,
      "v": 127
    },
    {
      "midi": 55,
      "hit": false,
      "t": 39272.687999999944,
      "d": 272.72699999999895,
      "v": 127
    },
    {
      "midi": 59,
      "hit": false,
      "t": 39272.687999999944,
      "d": 272.72699999999895,
      "v": 127
    },
    {
      "midi": 62,
      "hit": false,
      "t": 39272.687999999944,
      "d": 272.72699999999895,
      "v": 127
    },
    {
      "midi": 71,
      "hit": false,
      "t": 39272.68799999995,
      "d": 545.4539999999979,
      "v": 127
    },
    {
      "midi": 55,
      "hit": false,
      "t": 39545.41499999994,
      "d": 272.72699999999895,
      "v": 127
    },
    {
      "midi": 59,
      "hit": false,
      "t": 39545.41499999994,
      "d": 272.72699999999895,
      "v": 127
    },
    {
      "midi": 62,
      "hit": false,
      "t": 39545.41499999994,
      "d": 272.72699999999895,
      "v": 127
    },
    {
      "midi": 55,
      "hit": false,
      "t": 39818.14199999994,
      "d": 272.72699999999895,
      "v": 127
    },
    {
      "midi": 59,
      "hit": false,
      "t": 39818.14199999994,
      "d": 272.72699999999895,
      "v": 127
    },
    {
      "midi": 62,
      "hit": false,
      "t": 39818.14199999994,
      "d": 272.72699999999895,
      "v": 127
    },
    {
      "midi": 74,
      "hit": false,
      "t": 39818.14199999995,
      "d": 272.72699999999895,
      "v": 127
    },
    {
      "midi": 55,
      "hit": false,
      "t": 40090.86899999994,
      "d": 272.72699999999895,
      "v": 127
    },
    {
      "midi": 59,
      "hit": false,
      "t": 40090.86899999994,
      "d": 272.72699999999895,
      "v": 127
    },
    {
      "midi": 62,
      "hit": false,
      "t": 40090.86899999994,
      "d": 272.72699999999895,
      "v": 127
    },
    {
      "midi": 74,
      "hit": false,
      "t": 40090.86899999995,
      "d": 272.72699999999895,
      "v": 127
    },
    {
      "midi": 55,
      "hit": false,
      "t": 40363.59599999994,
      "d": 272.72699999999895,
      "v": 127
    },
    {
      "midi": 59,
      "hit": false,
      "t": 40363.59599999994,
      "d": 272.72699999999895,
      "v": 127
    },
    {
      "midi": 62,
      "hit": false,
      "t": 40363.59599999994,
      "d": 272.72699999999895,
      "v": 127
    },
    {
      "midi": 79,
      "hit": false,
      "t": 40363.59599999995,
      "d": 272.72699999999895,
      "v": 127
    },
    {
      "midi": 55,
      "hit": false,
      "t": 40636.32299999994,
      "d": 272.72699999999895,
      "v": 127
    },
    {
      "midi": 59,
      "hit": false,
      "t": 40636.32299999994,
      "d": 272.72699999999895,
      "v": 127
    },
    {
      "midi": 62,
      "hit": false,
      "t": 40636.32299999994,
      "d": 272.72699999999895,
      "v": 127
    },
    {
      "midi": 79,
      "hit": false,
      "t": 40636.322999999946,
      "d": 272.72699999999895,
      "v": 127
    },
    {
      "midi": 55,
      "hit": false,
      "t": 40909.04999999994,
      "d": 272.72699999999895,
      "v": 127
    },
    {
      "midi": 59,
      "hit": false,
      "t": 40909.04999999994,
      "d": 272.72699999999895,
      "v": 127
    },
    {
      "midi": 62,
      "hit": false,
      "t": 40909.04999999994,
      "d": 272.72699999999895,
      "v": 127
    },
    {
      "midi": 83,
      "hit": false,
      "t": 40909.049999999945,
      "d": 545.4539999999979,
      "v": 127
    },
    {
      "midi": 55,
      "hit": false,
      "t": 41181.77699999994,
      "d": 272.72699999999895,
      "v": 127
    },
    {
      "midi": 59,
      "hit": false,
      "t": 41181.77699999994,
      "d": 272.72699999999895,
      "v": 127
    },
    {
      "midi": 62,
      "hit": false,
      "t": 41181.77699999994,
      "d": 272.72699999999895,
      "v": 127
    },
    {
      "midi": 55,
      "hit": false,
      "t": 41454.503999999935,
      "d": 272.72699999999895,
      "v": 127
    },
    {
      "midi": 60,
      "hit": false,
      "t": 41454.503999999935,
      "d": 272.72699999999895,
      "v": 127
    },
    {
      "midi": 62,
      "hit": false,
      "t": 41454.503999999935,
      "d": 272.72699999999895,
      "v": 127
    },
    {
      "midi": 66,
      "hit": false,
      "t": 41454.503999999935,
      "d": 272.72699999999895,
      "v": 127
    },
    {
      "midi": 86,
      "hit": false,
      "t": 41454.50399999994,
      "d": 136.36349999999948,
      "v": 127
    },
    {
      "midi": 84,
      "hit": false,
      "t": 41590.86749999994,
      "d": 136.36349999999948,
      "v": 127
    },
    {
      "midi": 55,
      "hit": false,
      "t": 41727.230999999934,
      "d": 272.72699999999895,
      "v": 127
    },
    {
      "midi": 60,
      "hit": false,
      "t": 41727.230999999934,
      "d": 272.72699999999895,
      "v": 127
    },
    {
      "midi": 62,
      "hit": false,
      "t": 41727.230999999934,
      "d": 272.72699999999895,
      "v": 127
    },
    {
      "midi": 66,
      "hit": false,
      "t": 41727.230999999934,
      "d": 272.72699999999895,
      "v": 127
    },
    {
      "midi": 86,
      "hit": false,
      "t": 41727.23099999994,
      "d": 136.36349999999948,
      "v": 127
    },
    {
      "midi": 84,
      "hit": false,
      "t": 41863.59449999994,
      "d": 136.36349999999948,
      "v": 127
    },
    {
      "midi": 55,
      "hit": false,
      "t": 41999.95799999993,
      "d": 272.72699999999895,
      "v": 127
    },
    {
      "midi": 60,
      "hit": false,
      "t": 41999.95799999993,
      "d": 272.72699999999895,
      "v": 127
    },
    {
      "midi": 62,
      "hit": false,
      "t": 41999.95799999993,
      "d": 272.72699999999895,
      "v": 127
    },
    {
      "midi": 66,
      "hit": false,
      "t": 41999.95799999993,
      "d": 272.72699999999895,
      "v": 127
    },
    {
      "midi": 81,
      "hit": false,
      "t": 41999.95799999994,
      "d": 272.72699999999895,
      "v": 127
    },
    {
      "midi": 55,
      "hit": false,
      "t": 42272.68499999993,
      "d": 272.72699999999895,
      "v": 127
    },
    {
      "midi": 60,
      "hit": false,
      "t": 42272.68499999993,
      "d": 272.72699999999895,
      "v": 127
    },
    {
      "midi": 62,
      "hit": false,
      "t": 42272.68499999993,
      "d": 272.72699999999895,
      "v": 127
    },
    {
      "midi": 66,
      "hit": false,
      "t": 42272.68499999993,
      "d": 272.72699999999895,
      "v": 127
    },
    {
      "midi": 81,
      "hit": false,
      "t": 42272.68499999994,
      "d": 136.36349999999948,
      "v": 127
    },
    {
      "midi": 83,
      "hit": false,
      "t": 42409.04849999994,
      "d": 136.36349999999948,
      "v": 127
    },
    {
      "midi": 55,
      "hit": false,
      "t": 42545.41199999993,
      "d": 272.72699999999895,
      "v": 127
    },
    {
      "midi": 59,
      "hit": false,
      "t": 42545.41199999993,
      "d": 272.72699999999895,
      "v": 127
    },
    {
      "midi": 62,
      "hit": false,
      "t": 42545.41199999993,
      "d": 272.72699999999895,
      "v": 127
    },
    {
      "midi": 67,
      "hit": false,
      "t": 42545.41199999993,
      "d": 272.72699999999895,
      "v": 127
    },
    {
      "midi": 79,
      "hit": false,
      "t": 42545.41199999994,
      "d": 545.4539999999979,
      "v": 127
    },
    {
      "midi": 55,
      "hit": false,
      "t": 42818.13899999993,
      "d": 272.72699999999895,
      "v": 127
    },
    {
      "midi": 59,
      "hit": false,
      "t": 42818.13899999993,
      "d": 272.72699999999895,
      "v": 127
    },
    {
      "midi": 55,
      "hit": false,
      "t": 43090.86599999993,
      "d": 272.72699999999895,
      "v": 127
    },
    {
      "midi": 59,
      "hit": false,
      "t": 43090.86599999993,
      "d": 272.72699999999895,
      "v": 127
    },
    {
      "midi": 55,
      "hit": false,
      "t": 43363.59299999993,
      "d": 272.72699999999895,
      "v": 127
    },
    {
      "midi": 59,
      "hit": false,
      "t": 43363.59299999993,
      "d": 272.72699999999895,
      "v": 127
    },
    {
      "midi": 52,
      "hit": false,
      "t": 43636.31999999993,
      "d": 272.72699999999895,
      "v": 127
    },
    {
      "midi": 55,
      "hit": false,
      "t": 43636.31999999993,
      "d": 272.72699999999895,
      "v": 127
    },
    {
      "midi": 59,
      "hit": false,
      "t": 43636.31999999993,
      "d": 272.72699999999895,
      "v": 127
    },
    {
      "midi": 83,
      "hit": false,
      "t": 43636.319999999934,
      "d": 136.36349999999948,
      "v": 127
    },
    {
      "midi": 81,
      "hit": false,
      "t": 43772.683499999934,
      "d": 136.36349999999948,
      "v": 127
    },
    {
      "midi": 52,
      "hit": false,
      "t": 43909.046999999926,
      "d": 272.72699999999895,
      "v": 127
    },
    {
      "midi": 55,
      "hit": false,
      "t": 43909.046999999926,
      "d": 272.72699999999895,
      "v": 127
    },
    {
      "midi": 59,
      "hit": false,
      "t": 43909.046999999926,
      "d": 272.72699999999895,
      "v": 127
    },
    {
      "midi": 79,
      "hit": false,
      "t": 43909.04699999993,
      "d": 136.36349999999948,
      "v": 127
    },
    {
      "midi": 78,
      "hit": false,
      "t": 44045.41049999993,
      "d": 136.36349999999948,
      "v": 127
    },
    {
      "midi": 52,
      "hit": false,
      "t": 44181.773999999925,
      "d": 272.72699999999895,
      "v": 127
    },
    {
      "midi": 55,
      "hit": false,
      "t": 44181.773999999925,
      "d": 272.72699999999895,
      "v": 127
    },
    {
      "midi": 59,
      "hit": false,
      "t": 44181.773999999925,
      "d": 272.72699999999895,
      "v": 127
    },
    {
      "midi": 76,
      "hit": false,
      "t": 44181.77399999993,
      "d": 136.36349999999948,
      "v": 127
    },
    {
      "midi": 78,
      "hit": false,
      "t": 44318.13749999993,
      "d": 136.36349999999948,
      "v": 127
    },
    {
      "midi": 52,
      "hit": false,
      "t": 44454.500999999924,
      "d": 272.72699999999895,
      "v": 127
    },
    {
      "midi": 55,
      "hit": false,
      "t": 44454.500999999924,
      "d": 272.72699999999895,
      "v": 127
    },
    {
      "midi": 59,
      "hit": false,
      "t": 44454.500999999924,
      "d": 272.72699999999895,
      "v": 127
    },
    {
      "midi": 79,
      "hit": false,
      "t": 44454.50099999993,
      "d": 136.36349999999948,
      "v": 127
    },
    {
      "midi": 81,
      "hit": false,
      "t": 44590.86449999993,
      "d": 136.36349999999948,
      "v": 127
    },
    {
      "midi": 52,
      "hit": false,
      "t": 44727.22799999992,
      "d": 272.72699999999895,
      "v": 127
    },
    {
      "midi": 55,
      "hit": false,
      "t": 44727.22799999992,
      "d": 272.72699999999895,
      "v": 127
    },
    {
      "midi": 59,
      "hit": false,
      "t": 44727.22799999992,
      "d": 272.72699999999895,
      "v": 127
    },
    {
      "midi": 83,
      "hit": false,
      "t": 44727.22799999993,
      "d": 272.72699999999895,
      "v": 127
    },
    {
      "midi": 52,
      "hit": false,
      "t": 44999.95499999992,
      "d": 272.72699999999895,
      "v": 127
    },
    {
      "midi": 55,
      "hit": false,
      "t": 44999.95499999992,
      "d": 272.72699999999895,
      "v": 127
    },
    {
      "midi": 59,
      "hit": false,
      "t": 44999.95499999992,
      "d": 272.72699999999895,
      "v": 127
    },
    {
      "midi": 83,
      "hit": false,
      "t": 44999.95499999993,
      "d": 272.72699999999895,
      "v": 127
    },
    {
      "midi": 52,
      "hit": false,
      "t": 45272.68199999992,
      "d": 272.72699999999895,
      "v": 127
    },
    {
      "midi": 55,
      "hit": false,
      "t": 45272.68199999992,
      "d": 272.72699999999895,
      "v": 127
    },
    {
      "midi": 59,
      "hit": false,
      "t": 45272.68199999992,
      "d": 272.72699999999895,
      "v": 127
    },
    {
      "midi": 88,
      "hit": false,
      "t": 45272.68199999993,
      "d": 545.4539999999979,
      "v": 127
    },
    {
      "midi": 52,
      "hit": false,
      "t": 45545.40899999992,
      "d": 272.72699999999895,
      "v": 127
    },
    {
      "midi": 55,
      "hit": false,
      "t": 45545.40899999992,
      "d": 272.72699999999895,
      "v": 127
    },
    {
      "midi": 59,
      "hit": false,
      "t": 45545.40899999992,
      "d": 272.72699999999895,
      "v": 127
    },
    {
      "midi": 47,
      "hit": false,
      "t": 45818.13599999992,
      "d": 272.72699999999895,
      "v": 127
    },
    {
      "midi": 54,
      "hit": false,
      "t": 45818.13599999992,
      "d": 272.72699999999895,
      "v": 127
    },
    {
      "midi": 57,
      "hit": false,
      "t": 45818.13599999992,
      "d": 272.72699999999895,
      "v": 127
    },
    {
      "midi": 59,
      "hit": false,
      "t": 45818.13599999992,
      "d": 272.72699999999895,
      "v": 127
    },
    {
      "midi": 88,
      "hit": false,
      "t": 45818.135999999926,
      "d": 136.36349999999948,
      "v": 127
    },
    {
      "midi": 87,
      "hit": false,
      "t": 45954.499499999925,
      "d": 136.36349999999948,
      "v": 127
    },
    {
      "midi": 47,
      "hit": false,
      "t": 46090.86299999992,
      "d": 272.72699999999895,
      "v": 127
    },
    {
      "midi": 54,
      "hit": false,
      "t": 46090.86299999992,
      "d": 272.72699999999895,
      "v": 127
    },
    {
      "midi": 57,
      "hit": false,
      "t": 46090.86299999992,
      "d": 272.72699999999895,
      "v": 127
    },
    {
      "midi": 59,
      "hit": false,
      "t": 46090.86299999992,
      "d": 272.72699999999895,
      "v": 127
    },
    {
      "midi": 88,
      "hit": false,
      "t": 46090.862999999925,
      "d": 136.36349999999948,
      "v": 127
    },
    {
      "midi": 87,
      "hit": false,
      "t": 46227.226499999924,
      "d": 136.36349999999948,
      "v": 127
    },
    {
      "midi": 47,
      "hit": false,
      "t": 46363.58999999992,
      "d": 272.72699999999895,
      "v": 127
    },
    {
      "midi": 54,
      "hit": false,
      "t": 46363.58999999992,
      "d": 272.72699999999895,
      "v": 127
    },
    {
      "midi": 57,
      "hit": false,
      "t": 46363.58999999992,
      "d": 272.72699999999895,
      "v": 127
    },
    {
      "midi": 59,
      "hit": false,
      "t": 46363.58999999992,
      "d": 272.72699999999895,
      "v": 127
    },
    {
      "midi": 83,
      "hit": false,
      "t": 46363.589999999924,
      "d": 545.4539999999979,
      "v": 127
    },
    {
      "midi": 47,
      "hit": false,
      "t": 46636.316999999915,
      "d": 272.72699999999895,
      "v": 127
    },
    {
      "midi": 54,
      "hit": false,
      "t": 46636.316999999915,
      "d": 272.72699999999895,
      "v": 127
    },
    {
      "midi": 57,
      "hit": false,
      "t": 46636.316999999915,
      "d": 272.72699999999895,
      "v": 127
    },
    {
      "midi": 59,
      "hit": false,
      "t": 46636.316999999915,
      "d": 272.72699999999895,
      "v": 127
    },
    {
      "midi": 47,
      "hit": false,
      "t": 46909.043999999914,
      "d": 272.72699999999895,
      "v": 127
    },
    {
      "midi": 54,
      "hit": false,
      "t": 46909.043999999914,
      "d": 272.72699999999895,
      "v": 127
    },
    {
      "midi": 57,
      "hit": false,
      "t": 46909.043999999914,
      "d": 272.72699999999895,
      "v": 127
    },
    {
      "midi": 59,
      "hit": false,
      "t": 46909.043999999914,
      "d": 272.72699999999895,
      "v": 127
    },
    {
      "midi": 88,
      "hit": false,
      "t": 46909.04399999992,
      "d": 136.36349999999948,
      "v": 127
    },
    {
      "midi": 87,
      "hit": false,
      "t": 47045.40749999992,
      "d": 136.36349999999948,
      "v": 127
    },
    {
      "midi": 47,
      "hit": false,
      "t": 47181.77099999991,
      "d": 272.72699999999895,
      "v": 127
    },
    {
      "midi": 54,
      "hit": false,
      "t": 47181.77099999991,
      "d": 272.72699999999895,
      "v": 127
    },
    {
      "midi": 57,
      "hit": false,
      "t": 47181.77099999991,
      "d": 272.72699999999895,
      "v": 127
    },
    {
      "midi": 59,
      "hit": false,
      "t": 47181.77099999991,
      "d": 272.72699999999895,
      "v": 127
    },
    {
      "midi": 88,
      "hit": false,
      "t": 47181.77099999992,
      "d": 136.36349999999948,
      "v": 127
    },
    {
      "midi": 87,
      "hit": false,
      "t": 47318.13449999992,
      "d": 136.36349999999948,
      "v": 127
    },
    {
      "midi": 47,
      "hit": false,
      "t": 47454.49799999991,
      "d": 272.72699999999895,
      "v": 127
    },
    {
      "midi": 54,
      "hit": false,
      "t": 47454.49799999991,
      "d": 272.72699999999895,
      "v": 127
    },
    {
      "midi": 57,
      "hit": false,
      "t": 47454.49799999991,
      "d": 272.72699999999895,
      "v": 127
    },
    {
      "midi": 59,
      "hit": false,
      "t": 47454.49799999991,
      "d": 272.72699999999895,
      "v": 127
    },
    {
      "midi": 83,
      "hit": false,
      "t": 47454.49799999992,
      "d": 545.4539999999979,
      "v": 127
    },
    {
      "midi": 47,
      "hit": false,
      "t": 47727.22499999991,
      "d": 272.72699999999895,
      "v": 127
    },
    {
      "midi": 54,
      "hit": false,
      "t": 47727.22499999991,
      "d": 272.72699999999895,
      "v": 127
    },
    {
      "midi": 57,
      "hit": false,
      "t": 47727.22499999991,
      "d": 272.72699999999895,
      "v": 127
    },
    {
      "midi": 59,
      "hit": false,
      "t": 47727.22499999991,
      "d": 272.72699999999895,
      "v": 127
    },
    {
      "midi": 52,
      "hit": false,
      "t": 47999.95199999991,
      "d": 272.72699999999895,
      "v": 127
    },
    {
      "midi": 55,
      "hit": false,
      "t": 47999.95199999991,
      "d": 272.72699999999895,
      "v": 127
    },
    {
      "midi": 59,
      "hit": false,
      "t": 47999.95199999991,
      "d": 272.72699999999895,
      "v": 127
    },
    {
      "midi": 83,
      "hit": false,
      "t": 47999.95199999992,
      "d": 136.36349999999948,
      "v": 127
    },
    {
      "midi": 81,
      "hit": false,
      "t": 48136.31549999992,
      "d": 136.36349999999948,
      "v": 127
    },
    {
      "midi": 52,
      "hit": false,
      "t": 48272.67899999991,
      "d": 272.72699999999895,
      "v": 127
    },
    {
      "midi": 55,
      "hit": false,
      "t": 48272.67899999991,
      "d": 272.72699999999895,
      "v": 127
    },
    {
      "midi": 59,
      "hit": false,
      "t": 48272.67899999991,
      "d": 272.72699999999895,
      "v": 127
    },
    {
      "midi": 79,
      "hit": false,
      "t": 48272.67899999992,
      "d": 136.36349999999948,
      "v": 127
    },
    {
      "midi": 78,
      "hit": false,
      "t": 48409.042499999916,
      "d": 136.36349999999948,
      "v": 127
    },
    {
      "midi": 52,
      "hit": false,
      "t": 48545.40599999991,
      "d": 272.72699999999895,
      "v": 127
    },
    {
      "midi": 55,
      "hit": false,
      "t": 48545.40599999991,
      "d": 272.72699999999895,
      "v": 127
    },
    {
      "midi": 59,
      "hit": false,
      "t": 48545.40599999991,
      "d": 272.72699999999895,
      "v": 127
    },
    {
      "midi": 76,
      "hit": false,
      "t": 48545.405999999915,
      "d": 136.36349999999948,
      "v": 127
    },
    {
      "midi": 78,
      "hit": false,
      "t": 48681.769499999915,
      "d": 136.36349999999948,
      "v": 127
    },
    {
      "midi": 52,
      "hit": false,
      "t": 48818.13299999991,
      "d": 272.72699999999895,
      "v": 127
    },
    {
      "midi": 55,
      "hit": false,
      "t": 48818.13299999991,
      "d": 272.72699999999895,
      "v": 127
    },
    {
      "midi": 59,
      "hit": false,
      "t": 48818.13299999991,
      "d": 272.72699999999895,
      "v": 127
    },
    {
      "midi": 79,
      "hit": false,
      "t": 48818.132999999914,
      "d": 136.36349999999948,
      "v": 127
    },
    {
      "midi": 81,
      "hit": false,
      "t": 48954.496499999914,
      "d": 136.36349999999948,
      "v": 127
    },
    {
      "midi": 52,
      "hit": false,
      "t": 49090.859999999906,
      "d": 272.72699999999895,
      "v": 127
    },
    {
      "midi": 55,
      "hit": false,
      "t": 49090.859999999906,
      "d": 272.72699999999895,
      "v": 127
    },
    {
      "midi": 59,
      "hit": false,
      "t": 49090.859999999906,
      "d": 272.72699999999895,
      "v": 127
    },
    {
      "midi": 83,
      "hit": false,
      "t": 49090.85999999991,
      "d": 272.72699999999895,
      "v": 127
    },
    {
      "midi": 52,
      "hit": false,
      "t": 49363.586999999905,
      "d": 272.72699999999895,
      "v": 127
    },
    {
      "midi": 55,
      "hit": false,
      "t": 49363.586999999905,
      "d": 272.72699999999895,
      "v": 127
    },
    {
      "midi": 59,
      "hit": false,
      "t": 49363.586999999905,
      "d": 272.72699999999895,
      "v": 127
    },
    {
      "midi": 83,
      "hit": false,
      "t": 49363.58699999991,
      "d": 272.72699999999895,
      "v": 127
    },
    {
      "midi": 52,
      "hit": false,
      "t": 49636.313999999904,
      "d": 272.72699999999895,
      "v": 127
    },
    {
      "midi": 55,
      "hit": false,
      "t": 49636.313999999904,
      "d": 272.72699999999895,
      "v": 127
    },
    {
      "midi": 59,
      "hit": false,
      "t": 49636.313999999904,
      "d": 272.72699999999895,
      "v": 127
    },
    {
      "midi": 88,
      "hit": false,
      "t": 49636.31399999991,
      "d": 545.4539999999979,
      "v": 127
    },
    {
      "midi": 52,
      "hit": false,
      "t": 49909.0409999999,
      "d": 272.72699999999895,
      "v": 127
    },
    {
      "midi": 55,
      "hit": false,
      "t": 49909.0409999999,
      "d": 272.72699999999895,
      "v": 127
    },
    {
      "midi": 59,
      "hit": false,
      "t": 49909.0409999999,
      "d": 272.72699999999895,
      "v": 127
    },
    {
      "midi": 45,
      "hit": false,
      "t": 50181.7679999999,
      "d": 272.72699999999895,
      "v": 127
    },
    {
      "midi": 52,
      "hit": false,
      "t": 50181.7679999999,
      "d": 272.72699999999895,
      "v": 127
    },
    {
      "midi": 55,
      "hit": false,
      "t": 50181.7679999999,
      "d": 272.72699999999895,
      "v": 127
    },
    {
      "midi": 57,
      "hit": false,
      "t": 50181.7679999999,
      "d": 272.72699999999895,
      "v": 127
    },
    {
      "midi": 85,
      "hit": false,
      "t": 50181.76799999991,
      "d": 818.1809999999969,
      "v": 127
    },
    {
      "midi": 45,
      "hit": false,
      "t": 50454.4949999999,
      "d": 272.72699999999895,
      "v": 127
    },
    {
      "midi": 52,
      "hit": false,
      "t": 50454.4949999999,
      "d": 272.72699999999895,
      "v": 127
    },
    {
      "midi": 55,
      "hit": false,
      "t": 50454.4949999999,
      "d": 272.72699999999895,
      "v": 127
    },
    {
      "midi": 57,
      "hit": false,
      "t": 50454.4949999999,
      "d": 272.72699999999895,
      "v": 127
    },
    {
      "midi": 45,
      "hit": false,
      "t": 50727.2219999999,
      "d": 272.72699999999895,
      "v": 127
    },
    {
      "midi": 52,
      "hit": false,
      "t": 50727.2219999999,
      "d": 272.72699999999895,
      "v": 127
    },
    {
      "midi": 55,
      "hit": false,
      "t": 50727.2219999999,
      "d": 272.72699999999895,
      "v": 127
    },
    {
      "midi": 57,
      "hit": false,
      "t": 50727.2219999999,
      "d": 272.72699999999895,
      "v": 127
    },
    {
      "midi": 45,
      "hit": false,
      "t": 50999.9489999999,
      "d": 272.72699999999895,
      "v": 127
    },
    {
      "midi": 52,
      "hit": false,
      "t": 50999.9489999999,
      "d": 272.72699999999895,
      "v": 127
    },
    {
      "midi": 55,
      "hit": false,
      "t": 50999.9489999999,
      "d": 272.72699999999895,
      "v": 127
    },
    {
      "midi": 57,
      "hit": false,
      "t": 50999.9489999999,
      "d": 272.72699999999895,
      "v": 127
    },
    {
      "midi": 83,
      "hit": false,
      "t": 50999.948999999906,
      "d": 272.72699999999895,
      "v": 127
    },
    {
      "midi": 50,
      "hit": false,
      "t": 51272.6759999999,
      "d": 272.72699999999895,
      "v": 127
    },
    {
      "midi": 54,
      "hit": false,
      "t": 51272.6759999999,
      "d": 272.72699999999895,
      "v": 127
    },
    {
      "midi": 57,
      "hit": false,
      "t": 51272.6759999999,
      "d": 272.72699999999895,
      "v": 127
    },
    {
      "midi": 86,
      "hit": false,
      "t": 51272.675999999905,
      "d": 545.4539999999979,
      "v": 127
    },
    {
      "midi": 50,
      "hit": false,
      "t": 51545.4029999999,
      "d": 272.72699999999895,
      "v": 127
    },
    {
      "midi": 54,
      "hit": false,
      "t": 51545.4029999999,
      "d": 272.72699999999895,
      "v": 127
    },
    {
      "midi": 57,
      "hit": false,
      "t": 51545.4029999999,
      "d": 272.72699999999895,
      "v": 127
    },
    {
      "midi": 50,
      "hit": false,
      "t": 51818.129999999896,
      "d": 272.72699999999895,
      "v": 127
    },
    {
      "midi": 54,
      "hit": false,
      "t": 51818.129999999896,
      "d": 272.72699999999895,
      "v": 127
    },
    {
      "midi": 57,
      "hit": false,
      "t": 51818.129999999896,
      "d": 272.72699999999895,
      "v": 127
    },
    {
      "midi": 74,
      "hit": false,
      "t": 51818.1299999999,
      "d": 545.4539999999979,
      "v": 127
    },
    {
      "midi": 50,
      "hit": false,
      "t": 52090.856999999894,
      "d": 272.72699999999895,
      "v": 127
    },
    {
      "midi": 54,
      "hit": false,
      "t": 52090.856999999894,
      "d": 272.72699999999895,
      "v": 127
    },
    {
      "midi": 57,
      "hit": false,
      "t": 52090.856999999894,
      "d": 272.72699999999895,
      "v": 127
    },
    {
      "midi": 43,
      "hit": false,
      "t": 52363.58399999989,
      "d": 272.72699999999895,
      "v": 127
    },
    {
      "midi": 47,
      "hit": false,
      "t": 52363.58399999989,
      "d": 272.72699999999895,
      "v": 127
    },
    {
      "midi": 50,
      "hit": false,
      "t": 52363.58399999989,
      "d": 272.72699999999895,
      "v": 127
    },
    {
      "midi": 55,
      "hit": false,
      "t": 52363.58399999989,
      "d": 272.72699999999895,
      "v": 127
    },
    {
      "midi": 71,
      "hit": false,
      "t": 52363.5839999999,
      "d": 545.4539999999979,
      "v": 127
    },
    {
      "midi": 43,
      "hit": false,
      "t": 52636.31099999989,
      "d": 272.72699999999895,
      "v": 127
    },
    {
      "midi": 47,
      "hit": false,
      "t": 52636.31099999989,
      "d": 272.72699999999895,
      "v": 127
    },
    {
      "midi": 50,
      "hit": false,
      "t": 52636.31099999989,
      "d": 272.72699999999895,
      "v": 127
    },
    {
      "midi": 55,
      "hit": false,
      "t": 52636.31099999989,
      "d": 272.72699999999895,
      "v": 127
    },
    {
      "midi": 43,
      "hit": false,
      "t": 52909.03799999989,
      "d": 272.72699999999895,
      "v": 127
    },
    {
      "midi": 47,
      "hit": false,
      "t": 52909.03799999989,
      "d": 272.72699999999895,
      "v": 127
    },
    {
      "midi": 50,
      "hit": false,
      "t": 52909.03799999989,
      "d": 272.72699999999895,
      "v": 127
    },
    {
      "midi": 55,
      "hit": false,
      "t": 52909.03799999989,
      "d": 272.72699999999895,
      "v": 127
    },
    {
      "midi": 74,
      "hit": false,
      "t": 52909.0379999999,
      "d": 272.72699999999895,
      "v": 127
    },
    {
      "midi": 43,
      "hit": false,
      "t": 53181.76499999989,
      "d": 272.72699999999895,
      "v": 127
    },
    {
      "midi": 47,
      "hit": false,
      "t": 53181.76499999989,
      "d": 272.72699999999895,
      "v": 127
    },
    {
      "midi": 50,
      "hit": false,
      "t": 53181.76499999989,
      "d": 272.72699999999895,
      "v": 127
    },
    {
      "midi": 55,
      "hit": false,
      "t": 53181.76499999989,
      "d": 272.72699999999895,
      "v": 127
    },
    {
      "midi": 74,
      "hit": false,
      "t": 53181.7649999999,
      "d": 272.72699999999895,
      "v": 127
    },
    {
      "midi": 43,
      "hit": false,
      "t": 53454.49199999989,
      "d": 272.72699999999895,
      "v": 127
    },
    {
      "midi": 47,
      "hit": false,
      "t": 53454.49199999989,
      "d": 272.72699999999895,
      "v": 127
    },
    {
      "midi": 50,
      "hit": false,
      "t": 53454.49199999989,
      "d": 272.72699999999895,
      "v": 127
    },
    {
      "midi": 55,
      "hit": false,
      "t": 53454.49199999989,
      "d": 272.72699999999895,
      "v": 127
    },
    {
      "midi": 79,
      "hit": false,
      "t": 53454.4919999999,
      "d": 272.72699999999895,
      "v": 127
    },
    {
      "midi": 43,
      "hit": false,
      "t": 53727.21899999989,
      "d": 272.72699999999895,
      "v": 127
    },
    {
      "midi": 47,
      "hit": false,
      "t": 53727.21899999989,
      "d": 272.72699999999895,
      "v": 127
    },
    {
      "midi": 50,
      "hit": false,
      "t": 53727.21899999989,
      "d": 272.72699999999895,
      "v": 127
    },
    {
      "midi": 55,
      "hit": false,
      "t": 53727.21899999989,
      "d": 272.72699999999895,
      "v": 127
    },
    {
      "midi": 79,
      "hit": false,
      "t": 53727.218999999895,
      "d": 272.72699999999895,
      "v": 127
    },
    {
      "midi": 43,
      "hit": false,
      "t": 53999.94599999989,
      "d": 272.72699999999895,
      "v": 127
    },
    {
      "midi": 47,
      "hit": false,
      "t": 53999.94599999989,
      "d": 272.72699999999895,
      "v": 127
    },
    {
      "midi": 50,
      "hit": false,
      "t": 53999.94599999989,
      "d": 272.72699999999895,
      "v": 127
    },
    {
      "midi": 55,
      "hit": false,
      "t": 53999.94599999989,
      "d": 272.72699999999895,
      "v": 127
    },
    {
      "midi": 83,
      "hit": false,
      "t": 53999.945999999894,
      "d": 545.4539999999979,
      "v": 127
    },
    {
      "midi": 43,
      "hit": false,
      "t": 54272.672999999886,
      "d": 272.72699999999895,
      "v": 127
    },
    {
      "midi": 47,
      "hit": false,
      "t": 54272.672999999886,
      "d": 272.72699999999895,
      "v": 127
    },
    {
      "midi": 50,
      "hit": false,
      "t": 54272.672999999886,
      "d": 272.72699999999895,
      "v": 127
    },
    {
      "midi": 55,
      "hit": false,
      "t": 54272.672999999886,
      "d": 272.72699999999895,
      "v": 127
    },
    {
      "midi": 43,
      "hit": false,
      "t": 54545.399999999885,
      "d": 272.72699999999895,
      "v": 127
    },
    {
      "midi": 48,
      "hit": false,
      "t": 54545.399999999885,
      "d": 272.72699999999895,
      "v": 127
    },
    {
      "midi": 50,
      "hit": false,
      "t": 54545.399999999885,
      "d": 272.72699999999895,
      "v": 127
    },
    {
      "midi": 54,
      "hit": false,
      "t": 54545.399999999885,
      "d": 272.72699999999895,
      "v": 127
    },
    {
      "midi": 86,
      "hit": false,
      "t": 54545.39999999989,
      "d": 136.36349999999948,
      "v": 127
    },
    {
      "midi": 84,
      "hit": false,
      "t": 54681.76349999989,
      "d": 136.36349999999948,
      "v": 127
    },
    {
      "midi": 43,
      "hit": false,
      "t": 54818.126999999884,
      "d": 272.72699999999895,
      "v": 127
    },
    {
      "midi": 48,
      "hit": false,
      "t": 54818.126999999884,
      "d": 272.72699999999895,
      "v": 127
    },
    {
      "midi": 50,
      "hit": false,
      "t": 54818.126999999884,
      "d": 272.72699999999895,
      "v": 127
    },
    {
      "midi": 54,
      "hit": false,
      "t": 54818.126999999884,
      "d": 272.72699999999895,
      "v": 127
    },
    {
      "midi": 86,
      "hit": false,
      "t": 54818.12699999989,
      "d": 136.36349999999948,
      "v": 127
    },
    {
      "midi": 84,
      "hit": false,
      "t": 54954.49049999989,
      "d": 136.36349999999948,
      "v": 127
    },
    {
      "midi": 43,
      "hit": false,
      "t": 55090.85399999988,
      "d": 272.72699999999895,
      "v": 127
    },
    {
      "midi": 48,
      "hit": false,
      "t": 55090.85399999988,
      "d": 272.72699999999895,
      "v": 127
    },
    {
      "midi": 50,
      "hit": false,
      "t": 55090.85399999988,
      "d": 272.72699999999895,
      "v": 127
    },
    {
      "midi": 54,
      "hit": false,
      "t": 55090.85399999988,
      "d": 272.72699999999895,
      "v": 127
    },
    {
      "midi": 81,
      "hit": false,
      "t": 55090.85399999989,
      "d": 545.4539999999979,
      "v": 127
    },
    {
      "midi": 43,
      "hit": false,
      "t": 55363.58099999988,
      "d": 272.72699999999895,
      "v": 127
    },
    {
      "midi": 48,
      "hit": false,
      "t": 55363.58099999988,
      "d": 272.72699999999895,
      "v": 127
    },
    {
      "midi": 50,
      "hit": false,
      "t": 55363.58099999988,
      "d": 272.72699999999895,
      "v": 127
    },
    {
      "midi": 54,
      "hit": false,
      "t": 55363.58099999988,
      "d": 272.72699999999895,
      "v": 127
    },
    {
      "midi": 43,
      "hit": false,
      "t": 55636.30799999988,
      "d": 272.72699999999895,
      "v": 127
    },
    {
      "midi": 48,
      "hit": false,
      "t": 55636.30799999988,
      "d": 272.72699999999895,
      "v": 127
    },
    {
      "midi": 50,
      "hit": false,
      "t": 55636.30799999988,
      "d": 272.72699999999895,
      "v": 127
    },
    {
      "midi": 54,
      "hit": false,
      "t": 55636.30799999988,
      "d": 272.72699999999895,
      "v": 127
    },
    {
      "midi": 86,
      "hit": false,
      "t": 55636.30799999989,
      "d": 136.36349999999948,
      "v": 127
    },
    {
      "midi": 84,
      "hit": false,
      "t": 55772.67149999989,
      "d": 136.36349999999948,
      "v": 127
    },
    {
      "midi": 43,
      "hit": false,
      "t": 55909.03499999988,
      "d": 272.72699999999895,
      "v": 127
    },
    {
      "midi": 48,
      "hit": false,
      "t": 55909.03499999988,
      "d": 272.72699999999895,
      "v": 127
    },
    {
      "midi": 50,
      "hit": false,
      "t": 55909.03499999988,
      "d": 272.72699999999895,
      "v": 127
    },
    {
      "midi": 54,
      "hit": false,
      "t": 55909.03499999988,
      "d": 272.72699999999895,
      "v": 127
    },
    {
      "midi": 86,
      "hit": false,
      "t": 55909.03499999989,
      "d": 136.36349999999948,
      "v": 127
    },
    {
      "midi": 84,
      "hit": false,
      "t": 56045.39849999989,
      "d": 136.36349999999948,
      "v": 127
    },
    {
      "midi": 43,
      "hit": false,
      "t": 56181.76199999988,
      "d": 272.72699999999895,
      "v": 127
    },
    {
      "midi": 48,
      "hit": false,
      "t": 56181.76199999988,
      "d": 272.72699999999895,
      "v": 127
    },
    {
      "midi": 50,
      "hit": false,
      "t": 56181.76199999988,
      "d": 272.72699999999895,
      "v": 127
    },
    {
      "midi": 54,
      "hit": false,
      "t": 56181.76199999988,
      "d": 272.72699999999895,
      "v": 127
    },
    {
      "midi": 81,
      "hit": false,
      "t": 56181.761999999886,
      "d": 545.4539999999979,
      "v": 127
    },
    {
      "midi": 43,
      "hit": false,
      "t": 56454.48899999988,
      "d": 272.72699999999895,
      "v": 127
    },
    {
      "midi": 48,
      "hit": false,
      "t": 56454.48899999988,
      "d": 272.72699999999895,
      "v": 127
    },
    {
      "midi": 50,
      "hit": false,
      "t": 56454.48899999988,
      "d": 272.72699999999895,
      "v": 127
    },
    {
      "midi": 54,
      "hit": false,
      "t": 56454.48899999988,
      "d": 272.72699999999895,
      "v": 127
    },
    {
      "midi": 43,
      "hit": false,
      "t": 56727.21599999988,
      "d": 272.72699999999895,
      "v": 127
    },
    {
      "midi": 47,
      "hit": false,
      "t": 56727.21599999988,
      "d": 272.72699999999895,
      "v": 127
    },
    {
      "midi": 50,
      "hit": false,
      "t": 56727.21599999988,
      "d": 272.72699999999895,
      "v": 127
    },
    {
      "midi": 55,
      "hit": false,
      "t": 56727.21599999988,
      "d": 272.72699999999895,
      "v": 127
    },
    {
      "midi": 71,
      "hit": false,
      "t": 56727.215999999884,
      "d": 545.4539999999979,
      "v": 127
    },
    {
      "midi": 43,
      "hit": false,
      "t": 56999.942999999876,
      "d": 272.72699999999895,
      "v": 127
    },
    {
      "midi": 47,
      "hit": false,
      "t": 56999.942999999876,
      "d": 272.72699999999895,
      "v": 127
    },
    {
      "midi": 50,
      "hit": false,
      "t": 56999.942999999876,
      "d": 272.72699999999895,
      "v": 127
    },
    {
      "midi": 55,
      "hit": false,
      "t": 56999.942999999876,
      "d": 272.72699999999895,
      "v": 127
    },
    {
      "midi": 43,
      "hit": false,
      "t": 57272.669999999875,
      "d": 272.72699999999895,
      "v": 127
    },
    {
      "midi": 47,
      "hit": false,
      "t": 57272.669999999875,
      "d": 272.72699999999895,
      "v": 127
    },
    {
      "midi": 50,
      "hit": false,
      "t": 57272.669999999875,
      "d": 272.72699999999895,
      "v": 127
    },
    {
      "midi": 55,
      "hit": false,
      "t": 57272.669999999875,
      "d": 272.72699999999895,
      "v": 127
    },
    {
      "midi": 74,
      "hit": false,
      "t": 57272.66999999988,
      "d": 272.72699999999895,
      "v": 127
    },
    {
      "midi": 43,
      "hit": false,
      "t": 57545.39699999987,
      "d": 272.72699999999895,
      "v": 127
    },
    {
      "midi": 47,
      "hit": false,
      "t": 57545.39699999987,
      "d": 272.72699999999895,
      "v": 127
    },
    {
      "midi": 50,
      "hit": false,
      "t": 57545.39699999987,
      "d": 272.72699999999895,
      "v": 127
    },
    {
      "midi": 55,
      "hit": false,
      "t": 57545.39699999987,
      "d": 272.72699999999895,
      "v": 127
    },
    {
      "midi": 74,
      "hit": false,
      "t": 57545.39699999988,
      "d": 272.72699999999895,
      "v": 127
    },
    {
      "midi": 43,
      "hit": false,
      "t": 57818.12399999987,
      "d": 272.72699999999895,
      "v": 127
    },
    {
      "midi": 47,
      "hit": false,
      "t": 57818.12399999987,
      "d": 272.72699999999895,
      "v": 127
    },
    {
      "midi": 50,
      "hit": false,
      "t": 57818.12399999987,
      "d": 272.72699999999895,
      "v": 127
    },
    {
      "midi": 55,
      "hit": false,
      "t": 57818.12399999987,
      "d": 272.72699999999895,
      "v": 127
    },
    {
      "midi": 79,
      "hit": false,
      "t": 57818.12399999988,
      "d": 272.72699999999895,
      "v": 127
    },
    {
      "midi": 43,
      "hit": false,
      "t": 58090.85099999987,
      "d": 272.72699999999895,
      "v": 127
    },
    {
      "midi": 47,
      "hit": false,
      "t": 58090.85099999987,
      "d": 272.72699999999895,
      "v": 127
    },
    {
      "midi": 50,
      "hit": false,
      "t": 58090.85099999987,
      "d": 272.72699999999895,
      "v": 127
    },
    {
      "midi": 55,
      "hit": false,
      "t": 58090.85099999987,
      "d": 272.72699999999895,
      "v": 127
    },
    {
      "midi": 79,
      "hit": false,
      "t": 58090.85099999988,
      "d": 272.72699999999895,
      "v": 127
    },
    {
      "midi": 43,
      "hit": false,
      "t": 58363.57799999987,
      "d": 272.72699999999895,
      "v": 127
    },
    {
      "midi": 47,
      "hit": false,
      "t": 58363.57799999987,
      "d": 272.72699999999895,
      "v": 127
    },
    {
      "midi": 50,
      "hit": false,
      "t": 58363.57799999987,
      "d": 272.72699999999895,
      "v": 127
    },
    {
      "midi": 55,
      "hit": false,
      "t": 58363.57799999987,
      "d": 272.72699999999895,
      "v": 127
    },
    {
      "midi": 83,
      "hit": false,
      "t": 58363.57799999988,
      "d": 545.4539999999979,
      "v": 127
    },
    {
      "midi": 43,
      "hit": false,
      "t": 58636.30499999987,
      "d": 272.72699999999895,
      "v": 127
    },
    {
      "midi": 47,
      "hit": false,
      "t": 58636.30499999987,
      "d": 272.72699999999895,
      "v": 127
    },
    {
      "midi": 50,
      "hit": false,
      "t": 58636.30499999987,
      "d": 272.72699999999895,
      "v": 127
    },
    {
      "midi": 55,
      "hit": false,
      "t": 58636.30499999987,
      "d": 272.72699999999895,
      "v": 127
    },
    {
      "midi": 43,
      "hit": false,
      "t": 58909.03199999987,
      "d": 272.72699999999895,
      "v": 127
    },
    {
      "midi": 48,
      "hit": false,
      "t": 58909.03199999987,
      "d": 272.72699999999895,
      "v": 127
    },
    {
      "midi": 50,
      "hit": false,
      "t": 58909.03199999987,
      "d": 272.72699999999895,
      "v": 127
    },
    {
      "midi": 54,
      "hit": false,
      "t": 58909.03199999987,
      "d": 272.72699999999895,
      "v": 127
    },
    {
      "midi": 86,
      "hit": false,
      "t": 58909.031999999876,
      "d": 136.36349999999948,
      "v": 127
    },
    {
      "midi": 84,
      "hit": false,
      "t": 59045.395499999875,
      "d": 136.36349999999948,
      "v": 127
    },
    {
      "midi": 43,
      "hit": false,
      "t": 59181.75899999987,
      "d": 272.72699999999895,
      "v": 127
    },
    {
      "midi": 48,
      "hit": false,
      "t": 59181.75899999987,
      "d": 272.72699999999895,
      "v": 127
    },
    {
      "midi": 50,
      "hit": false,
      "t": 59181.75899999987,
      "d": 272.72699999999895,
      "v": 127
    },
    {
      "midi": 54,
      "hit": false,
      "t": 59181.75899999987,
      "d": 272.72699999999895,
      "v": 127
    },
    {
      "midi": 86,
      "hit": false,
      "t": 59181.758999999875,
      "d": 136.36349999999948,
      "v": 127
    },
    {
      "midi": 84,
      "hit": false,
      "t": 59318.122499999874,
      "d": 136.36349999999948,
      "v": 127
    },
    {
      "midi": 43,
      "hit": false,
      "t": 59454.485999999866,
      "d": 272.72699999999895,
      "v": 127
    },
    {
      "midi": 48,
      "hit": false,
      "t": 59454.485999999866,
      "d": 272.72699999999895,
      "v": 127
    },
    {
      "midi": 50,
      "hit": false,
      "t": 59454.485999999866,
      "d": 272.72699999999895,
      "v": 127
    },
    {
      "midi": 54,
      "hit": false,
      "t": 59454.485999999866,
      "d": 272.72699999999895,
      "v": 127
    },
    {
      "midi": 81,
      "hit": false,
      "t": 59454.48599999987,
      "d": 272.72699999999895,
      "v": 127
    },
    {
      "midi": 43,
      "hit": false,
      "t": 59727.212999999865,
      "d": 272.72699999999895,
      "v": 127
    },
    {
      "midi": 48,
      "hit": false,
      "t": 59727.212999999865,
      "d": 272.72699999999895,
      "v": 127
    },
    {
      "midi": 50,
      "hit": false,
      "t": 59727.212999999865,
      "d": 272.72699999999895,
      "v": 127
    },
    {
      "midi": 54,
      "hit": false,
      "t": 59727.212999999865,
      "d": 272.72699999999895,
      "v": 127
    },
    {
      "midi": 81,
      "hit": false,
      "t": 59727.21299999987,
      "d": 136.36349999999948,
      "v": 127
    },
    {
      "midi": 83,
      "hit": false,
      "t": 59863.57649999987,
      "d": 136.36349999999948,
      "v": 127
    },
    {
      "midi": 43,
      "hit": false,
      "t": 59999.939999999864,
      "d": 545.4539999999979,
      "v": 127
    },
    {
      "midi": 47,
      "hit": false,
      "t": 59999.939999999864,
      "d": 545.4539999999979,
      "v": 127
    },
    {
      "midi": 50,
      "hit": false,
      "t": 59999.939999999864,
      "d": 545.4539999999979,
      "v": 127
    },
    {
      "midi": 55,
      "hit": false,
      "t": 59999.939999999864,
      "d": 545.4539999999979,
      "v": 127
    },
    {
      "midi": 79,
      "hit": false,
      "t": 59999.93999999987,
      "d": 545.4539999999979,
      "v": 127
    },
    {
      "midi": 43,
      "hit": false,
      "t": 60545.39399999986,
      "d": 545.4539999999979,
      "v": 127
    },
    {
      "midi": 74,
      "hit": false,
      "t": 60818.12099999987,
      "d": 272.72699999999895,
      "v": 127
    },
    {
      "midi": 43,
      "hit": false,
      "t": 61090.84799999986,
      "d": 272.72699999999895,
      "v": 127
    },
    {
      "midi": 46,
      "hit": false,
      "t": 61090.84799999986,
      "d": 272.72699999999895,
      "v": 127
    },
    {
      "midi": 50,
      "hit": false,
      "t": 61090.84799999986,
      "d": 272.72699999999895,
      "v": 127
    },
    {
      "midi": 55,
      "hit": false,
      "t": 61090.84799999986,
      "d": 272.72699999999895,
      "v": 127
    },
    {
      "midi": 82,
      "hit": false,
      "t": 61090.84799999987,
      "d": 136.36349999999948,
      "v": 127
    },
    {
      "midi": 86,
      "hit": false,
      "t": 61227.21149999987,
      "d": 136.36349999999948,
      "v": 127
    },
    {
      "midi": 43,
      "hit": false,
      "t": 61363.57499999986,
      "d": 272.72699999999895,
      "v": 127
    },
    {
      "midi": 46,
      "hit": false,
      "t": 61363.57499999986,
      "d": 272.72699999999895,
      "v": 127
    },
    {
      "midi": 50,
      "hit": false,
      "t": 61363.57499999986,
      "d": 272.72699999999895,
      "v": 127
    },
    {
      "midi": 55,
      "hit": false,
      "t": 61363.57499999986,
      "d": 272.72699999999895,
      "v": 127
    },
    {
      "midi": 79,
      "hit": false,
      "t": 61363.574999999866,
      "d": 136.36349999999948,
      "v": 127
    },
    {
      "midi": 82,
      "hit": false,
      "t": 61499.938499999866,
      "d": 136.36349999999948,
      "v": 127
    },
    {
      "midi": 74,
      "hit": false,
      "t": 61636.301999999865,
      "d": 136.36349999999948,
      "v": 127
    },
    {
      "midi": 79,
      "hit": false,
      "t": 61772.665499999865,
      "d": 136.36349999999948,
      "v": 127
    },
    {
      "midi": 43,
      "hit": false,
      "t": 61909.02899999986,
      "d": 272.72699999999895,
      "v": 127
    },
    {
      "midi": 46,
      "hit": false,
      "t": 61909.02899999986,
      "d": 272.72699999999895,
      "v": 127
    },
    {
      "midi": 50,
      "hit": false,
      "t": 61909.02899999986,
      "d": 272.72699999999895,
      "v": 127
    },
    {
      "midi": 55,
      "hit": false,
      "t": 61909.02899999986,
      "d": 272.72699999999895,
      "v": 127
    },
    {
      "midi": 70,
      "hit": false,
      "t": 61909.028999999864,
      "d": 136.36349999999948,
      "v": 127
    },
    {
      "midi": 74,
      "hit": false,
      "t": 62045.39249999986,
      "d": 136.36349999999948,
      "v": 127
    },
    {
      "midi": 48,
      "hit": false,
      "t": 62181.755999999856,
      "d": 272.72699999999895,
      "v": 127
    },
    {
      "midi": 51,
      "hit": false,
      "t": 62181.755999999856,
      "d": 272.72699999999895,
      "v": 127
    },
    {
      "midi": 55,
      "hit": false,
      "t": 62181.755999999856,
      "d": 272.72699999999895,
      "v": 127
    },
    {
      "midi": 75,
      "hit": false,
      "t": 62181.75599999986,
      "d": 136.36349999999948,
      "v": 127
    },
    {
      "midi": 79,
      "hit": false,
      "t": 62318.11949999986,
      "d": 136.36349999999948,
      "v": 127
    },
    {
      "midi": 48,
      "hit": false,
      "t": 62454.482999999855,
      "d": 272.72699999999895,
      "v": 127
    },
    {
      "midi": 51,
      "hit": false,
      "t": 62454.482999999855,
      "d": 272.72699999999895,
      "v": 127
    },
    {
      "midi": 55,
      "hit": false,
      "t": 62454.482999999855,
      "d": 272.72699999999895,
      "v": 127
    },
    {
      "midi": 72,
      "hit": false,
      "t": 62454.48299999986,
      "d": 136.36349999999948,
      "v": 127
    },
    {
      "midi": 75,
      "hit": false,
      "t": 62590.84649999986,
      "d": 136.36349999999948,
      "v": 127
    },
    {
      "midi": 67,
      "hit": false,
      "t": 62727.20999999986,
      "d": 136.36349999999948,
      "v": 127
    },
    {
      "midi": 72,
      "hit": false,
      "t": 62863.57349999986,
      "d": 136.36349999999948,
      "v": 127
    },
    {
      "midi": 48,
      "hit": false,
      "t": 62999.93699999985,
      "d": 272.72699999999895,
      "v": 127
    },
    {
      "midi": 51,
      "hit": false,
      "t": 62999.93699999985,
      "d": 272.72699999999895,
      "v": 127
    },
    {
      "midi": 55,
      "hit": false,
      "t": 62999.93699999985,
      "d": 272.72699999999895,
      "v": 127
    },
    {
      "midi": 63,
      "hit": false,
      "t": 62999.93699999986,
      "d": 136.36349999999948,
      "v": 127
    },
    {
      "midi": 67,
      "hit": false,
      "t": 63136.30049999986,
      "d": 136.36349999999948,
      "v": 127
    },
    {
      "midi": 41,
      "hit": false,
      "t": 63272.66399999985,
      "d": 272.72699999999895,
      "v": 127
    },
    {
      "midi": 45,
      "hit": false,
      "t": 63272.66399999985,
      "d": 272.72699999999895,
      "v": 127
    },
    {
      "midi": 48,
      "hit": false,
      "t": 63272.66399999985,
      "d": 272.72699999999895,
      "v": 127
    },
    {
      "midi": 53,
      "hit": false,
      "t": 63272.66399999985,
      "d": 272.72699999999895,
      "v": 127
    },
    {
      "midi": 81,
      "hit": false,
      "t": 63272.66399999986,
      "d": 136.36349999999948,
      "v": 127
    },
    {
      "midi": 84,
      "hit": false,
      "t": 63409.02749999986,
      "d": 136.36349999999948,
      "v": 127
    },
    {
      "midi": 41,
      "hit": false,
      "t": 63545.39099999985,
      "d": 272.72699999999895,
      "v": 127
    },
    {
      "midi": 45,
      "hit": false,
      "t": 63545.39099999985,
      "d": 272.72699999999895,
      "v": 127
    },
    {
      "midi": 48,
      "hit": false,
      "t": 63545.39099999985,
      "d": 272.72699999999895,
      "v": 127
    },
    {
      "midi": 53,
      "hit": false,
      "t": 63545.39099999985,
      "d": 272.72699999999895,
      "v": 127
    },
    {
      "midi": 77,
      "hit": false,
      "t": 63545.39099999986,
      "d": 136.36349999999948,
      "v": 127
    },
    {
      "midi": 81,
      "hit": false,
      "t": 63681.75449999986,
      "d": 136.36349999999948,
      "v": 127
    },
    {
      "midi": 72,
      "hit": false,
      "t": 63818.11799999986,
      "d": 136.36349999999948,
      "v": 127
    },
    {
      "midi": 77,
      "hit": false,
      "t": 63954.481499999856,
      "d": 136.36349999999948,
      "v": 127
    },
    {
      "midi": 41,
      "hit": false,
      "t": 64090.84499999985,
      "d": 272.72699999999895,
      "v": 127
    },
    {
      "midi": 45,
      "hit": false,
      "t": 64090.84499999985,
      "d": 272.72699999999895,
      "v": 127
    },
    {
      "midi": 48,
      "hit": false,
      "t": 64090.84499999985,
      "d": 272.72699999999895,
      "v": 127
    },
    {
      "midi": 53,
      "hit": false,
      "t": 64090.84499999985,
      "d": 272.72699999999895,
      "v": 127
    },
    {
      "midi": 69,
      "hit": false,
      "t": 64090.844999999856,
      "d": 136.36349999999948,
      "v": 127
    },
    {
      "midi": 72,
      "hit": false,
      "t": 64227.208499999855,
      "d": 136.36349999999948,
      "v": 127
    },
    {
      "midi": 46,
      "hit": false,
      "t": 64363.57199999985,
      "d": 272.72699999999895,
      "v": 127
    },
    {
      "midi": 50,
      "hit": false,
      "t": 64363.57199999985,
      "d": 272.72699999999895,
      "v": 127
    },
    {
      "midi": 53,
      "hit": false,
      "t": 64363.57199999985,
      "d": 272.72699999999895,
      "v": 127
    },
    {
      "midi": 74,
      "hit": false,
      "t": 64363.571999999855,
      "d": 136.36349999999948,
      "v": 127
    },
    {
      "midi": 77,
      "hit": false,
      "t": 64499.935499999854,
      "d": 136.36349999999948,
      "v": 127
    },
    {
      "midi": 46,
      "hit": false,
      "t": 64636.298999999846,
      "d": 272.72699999999895,
      "v": 127
    },
    {
      "midi": 50,
      "hit": false,
      "t": 64636.298999999846,
      "d": 272.72699999999895,
      "v": 127
    },
    {
      "midi": 53,
      "hit": false,
      "t": 64636.298999999846,
      "d": 272.72699999999895,
      "v": 127
    },
    {
      "midi": 70,
      "hit": false,
      "t": 64636.29899999985,
      "d": 136.36349999999948,
      "v": 127
    },
    {
      "midi": 74,
      "hit": false,
      "t": 64772.66249999985,
      "d": 136.36349999999948,
      "v": 127
    },
    {
      "midi": 65,
      "hit": false,
      "t": 64909.02599999985,
      "d": 136.36349999999948,
      "v": 127
    },
    {
      "midi": 70,
      "hit": false,
      "t": 65045.38949999985,
      "d": 136.36349999999948,
      "v": 127
    },
    {
      "midi": 46,
      "hit": false,
      "t": 65181.752999999844,
      "d": 272.72699999999895,
      "v": 127
    },
    {
      "midi": 50,
      "hit": false,
      "t": 65181.752999999844,
      "d": 272.72699999999895,
      "v": 127
    },
    {
      "midi": 53,
      "hit": false,
      "t": 65181.752999999844,
      "d": 272.72699999999895,
      "v": 127
    },
    {
      "midi": 62,
      "hit": false,
      "t": 65181.75299999985,
      "d": 136.36349999999948,
      "v": 127
    },
    {
      "midi": 65,
      "hit": false,
      "t": 65318.11649999985,
      "d": 136.36349999999948,
      "v": 127
    },
    {
      "midi": 38,
      "hit": false,
      "t": 65454.47999999984,
      "d": 272.7270000000062,
      "v": 127
    },
    {
      "midi": 50,
      "hit": false,
      "t": 65454.47999999984,
      "d": 272.7270000000062,
      "v": 127
    },
    {
      "midi": 89,
      "hit": false,
      "t": 65454.47999999985,
      "d": 136.36350000000675,
      "v": 127
    },
    {
      "midi": 86,
      "hit": false,
      "t": 65590.84349999986,
      "d": 136.36350000000675,
      "v": 127
    },
    {
      "midi": 38,
      "hit": false,
      "t": 65727.20699999985,
      "d": 272.72699999999895,
      "v": 127
    },
    {
      "midi": 50,
      "hit": false,
      "t": 65727.20699999985,
      "d": 272.72699999999895,
      "v": 127
    },
    {
      "midi": 82,
      "hit": false,
      "t": 65727.20699999986,
      "d": 136.36350000000675,
      "v": 127
    },
    {
      "midi": 86,
      "hit": false,
      "t": 65863.57049999987,
      "d": 136.36350000000675,
      "v": 127
    },
    {
      "midi": 77,
      "hit": false,
      "t": 65999.93399999988,
      "d": 136.36350000000675,
      "v": 127
    },
    {
      "midi": 82,
      "hit": false,
      "t": 66136.29749999988,
      "d": 136.36350000000675,
      "v": 127
    },
    {
      "midi": 38,
      "hit": false,
      "t": 66272.66099999985,
      "d": 272.72699999999895,
      "v": 127
    },
    {
      "midi": 50,
      "hit": false,
      "t": 66272.66099999985,
      "d": 272.72699999999895,
      "v": 127
    },
    {
      "midi": 74,
      "hit": false,
      "t": 66272.66099999989,
      "d": 136.36350000000675,
      "v": 127
    },
    {
      "midi": 77,
      "hit": false,
      "t": 66409.0244999999,
      "d": 136.36350000000675,
      "v": 127
    },
    {
      "midi": 39,
      "hit": false,
      "t": 66545.38799999985,
      "d": 272.72699999999895,
      "v": 127
    },
    {
      "midi": 51,
      "hit": false,
      "t": 66545.38799999985,
      "d": 272.72699999999895,
      "v": 127
    },
    {
      "midi": 72,
      "hit": false,
      "t": 66545.3879999999,
      "d": 136.36350000000675,
      "v": 127
    },
    {
      "midi": 75,
      "hit": false,
      "t": 66681.75149999991,
      "d": 136.36350000000675,
      "v": 127
    },
    {
      "midi": 39,
      "hit": false,
      "t": 66818.11499999985,
      "d": 272.72699999999895,
      "v": 127
    },
    {
      "midi": 51,
      "hit": false,
      "t": 66818.11499999985,
      "d": 272.72699999999895,
      "v": 127
    },
    {
      "midi": 67,
      "hit": false,
      "t": 66818.11499999992,
      "d": 136.36350000000675,
      "v": 127
    },
    {
      "midi": 72,
      "hit": false,
      "t": 66954.47849999992,
      "d": 136.36350000000675,
      "v": 127
    },
    {
      "midi": 63,
      "hit": false,
      "t": 67090.84199999993,
      "d": 136.36350000000675,
      "v": 127
    },
    {
      "midi": 67,
      "hit": false,
      "t": 67227.20549999994,
      "d": 136.36350000000675,
      "v": 127
    },
    {
      "midi": 39,
      "hit": false,
      "t": 67363.56899999984,
      "d": 272.72699999999895,
      "v": 127
    },
    {
      "midi": 51,
      "hit": false,
      "t": 67363.56899999984,
      "d": 272.72699999999895,
      "v": 127
    },
    {
      "midi": 60,
      "hit": false,
      "t": 67363.56899999994,
      "d": 136.36350000000675,
      "v": 127
    },
    {
      "midi": 63,
      "hit": false,
      "t": 67499.93249999995,
      "d": 136.36350000000675,
      "v": 127
    },
    {
      "midi": 41,
      "hit": false,
      "t": 67636.29599999984,
      "d": 545.4539999999979,
      "v": 127
    },
    {
      "midi": 53,
      "hit": false,
      "t": 67636.29599999984,
      "d": 545.4539999999979,
      "v": 127
    },
    {
      "midi": 62,
      "hit": false,
      "t": 67636.29599999996,
      "d": 136.36350000000675,
      "v": 127
    },
    {
      "midi": 65,
      "hit": false,
      "t": 67772.65949999997,
      "d": 136.36350000000675,
      "v": 127
    },
    {
      "midi": 58,
      "hit": false,
      "t": 67909.02299999997,
      "d": 136.36350000000675,
      "v": 127
    },
    {
      "midi": 62,
      "hit": false,
      "t": 68045.38649999998,
      "d": 136.36350000000675,
      "v": 127
    },
    {
      "midi": 41,
      "hit": false,
      "t": 68181.74999999984,
      "d": 545.4539999999979,
      "v": 127
    },
    {
      "midi": 60,
      "hit": false,
      "t": 68181.74999999999,
      "d": 136.36350000000675,
      "v": 127
    },
    {
      "midi": 63,
      "hit": false,
      "t": 68318.11349999999,
      "d": 136.36350000000675,
      "v": 127
    },
    {
      "midi": 57,
      "hit": false,
      "t": 68454.477,
      "d": 136.36350000000675,
      "v": 127
    },
    {
      "midi": 60,
      "hit": false,
      "t": 68590.8405,
      "d": 136.36350000000675,
      "v": 127
    },
    {
      "midi": 58,
      "hit": false,
      "t": 68727.20400000001,
      "d": 545.4539999999979,
      "v": 127
    },
    {
      "midi": 46,
      "hit": false,
      "t": 68863.56749999984,
      "d": 136.36350000000675,
      "v": 127
    },
    {
      "midi": 50,
      "hit": false,
      "t": 68999.93099999985,
      "d": 136.36350000000675,
      "v": 127
    },
    {
      "midi": 48,
      "hit": false,
      "t": 69136.29449999986,
      "d": 136.36350000000675,
      "v": 127
    },
    {
      "midi": 46,
      "hit": false,
      "t": 69272.65799999986,
      "d": 136.36350000000675,
      "v": 127
    },
    {
      "midi": 48,
      "hit": false,
      "t": 69409.02149999987,
      "d": 136.36350000000675,
      "v": 127
    },
    {
      "midi": 46,
      "hit": false,
      "t": 69545.38499999988,
      "d": 136.36350000000675,
      "v": 127
    },
    {
      "midi": 74,
      "hit": false,
      "t": 69545.38500000001,
      "d": 272.72699999999895,
      "v": 127
    },
    {
      "midi": 45,
      "hit": false,
      "t": 69681.74849999989,
      "d": 136.36350000000675,
      "v": 127
    },
    {
      "midi": 43,
      "hit": false,
      "t": 69818.11199999989,
      "d": 272.72699999999895,
      "v": 127
    },
    {
      "midi": 46,
      "hit": false,
      "t": 69818.11199999989,
      "d": 272.72699999999895,
      "v": 127
    },
    {
      "midi": 50,
      "hit": false,
      "t": 69818.11199999989,
      "d": 272.72699999999895,
      "v": 127
    },
    {
      "midi": 55,
      "hit": false,
      "t": 69818.11199999989,
      "d": 272.72699999999895,
      "v": 127
    },
    {
      "midi": 82,
      "hit": false,
      "t": 69818.11200000001,
      "d": 136.36350000000675,
      "v": 127
    },
    {
      "midi": 86,
      "hit": false,
      "t": 69954.47550000002,
      "d": 136.36350000000675,
      "v": 127
    },
    {
      "midi": 43,
      "hit": false,
      "t": 70090.83899999989,
      "d": 272.72699999999895,
      "v": 127
    },
    {
      "midi": 46,
      "hit": false,
      "t": 70090.83899999989,
      "d": 272.72699999999895,
      "v": 127
    },
    {
      "midi": 50,
      "hit": false,
      "t": 70090.83899999989,
      "d": 272.72699999999895,
      "v": 127
    },
    {
      "midi": 55,
      "hit": false,
      "t": 70090.83899999989,
      "d": 272.72699999999895,
      "v": 127
    },
    {
      "midi": 79,
      "hit": false,
      "t": 70090.83900000002,
      "d": 136.36350000000675,
      "v": 127
    },
    {
      "midi": 82,
      "hit": false,
      "t": 70227.20250000003,
      "d": 136.36350000000675,
      "v": 127
    },
    {
      "midi": 74,
      "hit": false,
      "t": 70363.56600000004,
      "d": 136.36350000000675,
      "v": 127
    },
    {
      "midi": 79,
      "hit": false,
      "t": 70499.92950000004,
      "d": 136.36350000000675,
      "v": 127
    },
    {
      "midi": 43,
      "hit": false,
      "t": 70636.29299999989,
      "d": 272.72699999999895,
      "v": 127
    },
    {
      "midi": 46,
      "hit": false,
      "t": 70636.29299999989,
      "d": 272.72699999999895,
      "v": 127
    },
    {
      "midi": 50,
      "hit": false,
      "t": 70636.29299999989,
      "d": 272.72699999999895,
      "v": 127
    },
    {
      "midi": 55,
      "hit": false,
      "t": 70636.29299999989,
      "d": 272.72699999999895,
      "v": 127
    },
    {
      "midi": 70,
      "hit": false,
      "t": 70636.29300000005,
      "d": 136.36350000000675,
      "v": 127
    },
    {
      "midi": 74,
      "hit": false,
      "t": 70772.65650000006,
      "d": 136.36350000000675,
      "v": 127
    },
    {
      "midi": 48,
      "hit": false,
      "t": 70909.01999999989,
      "d": 272.72699999999895,
      "v": 127
    },
    {
      "midi": 51,
      "hit": false,
      "t": 70909.01999999989,
      "d": 272.72699999999895,
      "v": 127
    },
    {
      "midi": 55,
      "hit": false,
      "t": 70909.01999999989,
      "d": 272.72699999999895,
      "v": 127
    },
    {
      "midi": 75,
      "hit": false,
      "t": 70909.02000000006,
      "d": 136.36350000000675,
      "v": 127
    },
    {
      "midi": 79,
      "hit": false,
      "t": 71045.38350000007,
      "d": 136.36350000000675,
      "v": 127
    },
    {
      "midi": 48,
      "hit": false,
      "t": 71181.74699999989,
      "d": 272.72699999999895,
      "v": 127
    },
    {
      "midi": 51,
      "hit": false,
      "t": 71181.74699999989,
      "d": 272.72699999999895,
      "v": 127
    },
    {
      "midi": 55,
      "hit": false,
      "t": 71181.74699999989,
      "d": 272.72699999999895,
      "v": 127
    },
    {
      "midi": 72,
      "hit": false,
      "t": 71181.74700000008,
      "d": 136.36350000000675,
      "v": 127
    },
    {
      "midi": 75,
      "hit": false,
      "t": 71318.11050000008,
      "d": 136.36350000000675,
      "v": 127
    },
    {
      "midi": 67,
      "hit": false,
      "t": 71454.47400000009,
      "d": 136.36350000000675,
      "v": 127
    },
    {
      "midi": 72,
      "hit": false,
      "t": 71590.8375000001,
      "d": 136.36350000000675,
      "v": 127
    },
    {
      "midi": 48,
      "hit": false,
      "t": 71727.20099999988,
      "d": 272.72699999999895,
      "v": 127
    },
    {
      "midi": 51,
      "hit": false,
      "t": 71727.20099999988,
      "d": 272.72699999999895,
      "v": 127
    },
    {
      "midi": 55,
      "hit": false,
      "t": 71727.20099999988,
      "d": 272.72699999999895,
      "v": 127
    },
    {
      "midi": 63,
      "hit": false,
      "t": 71727.2010000001,
      "d": 136.36350000000675,
      "v": 127
    },
    {
      "midi": 67,
      "hit": false,
      "t": 71863.56450000011,
      "d": 136.36350000000675,
      "v": 127
    },
    {
      "midi": 41,
      "hit": false,
      "t": 71999.92799999988,
      "d": 272.72699999999895,
      "v": 127
    },
    {
      "midi": 45,
      "hit": false,
      "t": 71999.92799999988,
      "d": 272.72699999999895,
      "v": 127
    },
    {
      "midi": 48,
      "hit": false,
      "t": 71999.92799999988,
      "d": 272.72699999999895,
      "v": 127
    },
    {
      "midi": 53,
      "hit": false,
      "t": 71999.92799999988,
      "d": 272.72699999999895,
      "v": 127
    },
    {
      "midi": 81,
      "hit": false,
      "t": 71999.92800000012,
      "d": 136.36350000000675,
      "v": 127
    },
    {
      "midi": 84,
      "hit": false,
      "t": 72136.29150000012,
      "d": 136.36350000000675,
      "v": 127
    },
    {
      "midi": 41,
      "hit": false,
      "t": 72272.65499999988,
      "d": 272.72699999999895,
      "v": 127
    },
    {
      "midi": 45,
      "hit": false,
      "t": 72272.65499999988,
      "d": 272.72699999999895,
      "v": 127
    },
    {
      "midi": 48,
      "hit": false,
      "t": 72272.65499999988,
      "d": 272.72699999999895,
      "v": 127
    },
    {
      "midi": 53,
      "hit": false,
      "t": 72272.65499999988,
      "d": 272.72699999999895,
      "v": 127
    },
    {
      "midi": 77,
      "hit": false,
      "t": 72272.65500000013,
      "d": 136.36350000000675,
      "v": 127
    },
    {
      "midi": 81,
      "hit": false,
      "t": 72409.01850000014,
      "d": 136.36350000000675,
      "v": 127
    },
    {
      "midi": 72,
      "hit": false,
      "t": 72545.38200000014,
      "d": 136.36350000000675,
      "v": 127
    },
    {
      "midi": 77,
      "hit": false,
      "t": 72681.74550000015,
      "d": 136.36350000000675,
      "v": 127
    },
    {
      "midi": 41,
      "hit": false,
      "t": 72818.10899999988,
      "d": 272.72699999999895,
      "v": 127
    },
    {
      "midi": 45,
      "hit": false,
      "t": 72818.10899999988,
      "d": 272.72699999999895,
      "v": 127
    },
    {
      "midi": 48,
      "hit": false,
      "t": 72818.10899999988,
      "d": 272.72699999999895,
      "v": 127
    },
    {
      "midi": 53,
      "hit": false,
      "t": 72818.10899999988,
      "d": 272.72699999999895,
      "v": 127
    },
    {
      "midi": 69,
      "hit": false,
      "t": 72818.10900000016,
      "d": 136.36350000000675,
      "v": 127
    },
    {
      "midi": 72,
      "hit": false,
      "t": 72954.47250000016,
      "d": 136.36350000000675,
      "v": 127
    },
    {
      "midi": 46,
      "hit": false,
      "t": 73090.83599999988,
      "d": 272.72699999999895,
      "v": 127
    },
    {
      "midi": 50,
      "hit": false,
      "t": 73090.83599999988,
      "d": 272.72699999999895,
      "v": 127
    },
    {
      "midi": 53,
      "hit": false,
      "t": 73090.83599999988,
      "d": 272.72699999999895,
      "v": 127
    },
    {
      "midi": 74,
      "hit": false,
      "t": 73090.83600000017,
      "d": 136.36350000000675,
      "v": 127
    },
    {
      "midi": 77,
      "hit": false,
      "t": 73227.19950000018,
      "d": 136.36350000000675,
      "v": 127
    },
    {
      "midi": 46,
      "hit": false,
      "t": 73363.56299999988,
      "d": 272.72699999999895,
      "v": 127
    },
    {
      "midi": 50,
      "hit": false,
      "t": 73363.56299999988,
      "d": 272.72699999999895,
      "v": 127
    },
    {
      "midi": 53,
      "hit": false,
      "t": 73363.56299999988,
      "d": 272.72699999999895,
      "v": 127
    },
    {
      "midi": 70,
      "hit": false,
      "t": 73363.56300000018,
      "d": 136.36350000000675,
      "v": 127
    },
    {
      "midi": 74,
      "hit": false,
      "t": 73499.92650000019,
      "d": 136.36350000000675,
      "v": 127
    },
    {
      "midi": 65,
      "hit": false,
      "t": 73636.2900000002,
      "d": 136.36350000000675,
      "v": 127
    },
    {
      "midi": 70,
      "hit": false,
      "t": 73772.6535000002,
      "d": 136.36350000000675,
      "v": 127
    },
    {
      "midi": 46,
      "hit": false,
      "t": 73909.01699999988,
      "d": 272.72699999999895,
      "v": 127
    },
    {
      "midi": 50,
      "hit": false,
      "t": 73909.01699999988,
      "d": 272.72699999999895,
      "v": 127
    },
    {
      "midi": 53,
      "hit": false,
      "t": 73909.01699999988,
      "d": 272.72699999999895,
      "v": 127
    },
    {
      "midi": 62,
      "hit": false,
      "t": 73909.01700000021,
      "d": 136.36350000000675,
      "v": 127
    },
    {
      "midi": 65,
      "hit": false,
      "t": 74045.38050000022,
      "d": 136.36350000000675,
      "v": 127
    },
    {
      "midi": 38,
      "hit": false,
      "t": 74181.74399999988,
      "d": 272.72699999999895,
      "v": 127
    },
    {
      "midi": 50,
      "hit": false,
      "t": 74181.74399999988,
      "d": 272.72699999999895,
      "v": 127
    },
    {
      "midi": 89,
      "hit": false,
      "t": 74181.74400000022,
      "d": 136.36350000000675,
      "v": 127
    },
    {
      "midi": 86,
      "hit": false,
      "t": 74318.10750000023,
      "d": 136.36350000000675,
      "v": 127
    },
    {
      "midi": 38,
      "hit": false,
      "t": 74454.47099999987,
      "d": 272.72699999999895,
      "v": 127
    },
    {
      "midi": 50,
      "hit": false,
      "t": 74454.47099999987,
      "d": 272.72699999999895,
      "v": 127
    },
    {
      "midi": 82,
      "hit": false,
      "t": 74454.47100000024,
      "d": 136.36350000000675,
      "v": 127
    },
    {
      "midi": 86,
      "hit": false,
      "t": 74590.83450000024,
      "d": 136.36350000000675,
      "v": 127
    },
    {
      "midi": 77,
      "hit": false,
      "t": 74727.19800000025,
      "d": 136.36350000000675,
      "v": 127
    },
    {
      "midi": 82,
      "hit": false,
      "t": 74863.56150000026,
      "d": 136.36350000000675,
      "v": 127
    },
    {
      "midi": 38,
      "hit": false,
      "t": 74999.92499999987,
      "d": 272.72699999999895,
      "v": 127
    },
    {
      "midi": 50,
      "hit": false,
      "t": 74999.92499999987,
      "d": 272.72699999999895,
      "v": 127
    },
    {
      "midi": 74,
      "hit": false,
      "t": 74999.92500000026,
      "d": 136.36350000000675,
      "v": 127
    },
    {
      "midi": 77,
      "hit": false,
      "t": 75136.28850000027,
      "d": 136.36350000000675,
      "v": 127
    },
    {
      "midi": 39,
      "hit": false,
      "t": 75272.65199999987,
      "d": 272.72699999999895,
      "v": 127
    },
    {
      "midi": 51,
      "hit": false,
      "t": 75272.65199999987,
      "d": 272.72699999999895,
      "v": 127
    },
    {
      "midi": 72,
      "hit": false,
      "t": 75272.65200000028,
      "d": 136.36350000000675,
      "v": 127
    },
    {
      "midi": 75,
      "hit": false,
      "t": 75409.01550000029,
      "d": 136.36350000000675,
      "v": 127
    },
    {
      "midi": 39,
      "hit": false,
      "t": 75545.37899999987,
      "d": 272.72699999999895,
      "v": 127
    },
    {
      "midi": 51,
      "hit": false,
      "t": 75545.37899999987,
      "d": 272.72699999999895,
      "v": 127
    },
    {
      "midi": 67,
      "hit": false,
      "t": 75545.37900000029,
      "d": 136.36350000000675,
      "v": 127
    },
    {
      "midi": 72,
      "hit": false,
      "t": 75681.7425000003,
      "d": 136.36350000000675,
      "v": 127
    },
    {
      "midi": 63,
      "hit": false,
      "t": 75818.1060000003,
      "d": 136.36350000000675,
      "v": 127
    },
    {
      "midi": 67,
      "hit": false,
      "t": 75954.46950000031,
      "d": 136.36350000000675,
      "v": 127
    },
    {
      "midi": 39,
      "hit": false,
      "t": 76090.83299999987,
      "d": 272.72699999999895,
      "v": 127
    },
    {
      "midi": 51,
      "hit": false,
      "t": 76090.83299999987,
      "d": 272.72699999999895,
      "v": 127
    },
    {
      "midi": 60,
      "hit": false,
      "t": 76090.83300000032,
      "d": 136.36350000000675,
      "v": 127
    },
    {
      "midi": 63,
      "hit": false,
      "t": 76227.19650000033,
      "d": 136.36350000000675,
      "v": 127
    },
    {
      "midi": 41,
      "hit": false,
      "t": 76363.55999999987,
      "d": 545.4539999999979,
      "v": 127
    },
    {
      "midi": 53,
      "hit": false,
      "t": 76363.55999999987,
      "d": 545.4539999999979,
      "v": 127
    },
    {
      "midi": 62,
      "hit": false,
      "t": 76363.56000000033,
      "d": 136.36350000000675,
      "v": 127
    },
    {
      "midi": 65,
      "hit": false,
      "t": 76499.92350000034,
      "d": 136.36350000000675,
      "v": 127
    },
    {
      "midi": 58,
      "hit": false,
      "t": 76636.28700000035,
      "d": 136.36350000000675,
      "v": 127
    },
    {
      "midi": 62,
      "hit": false,
      "t": 76772.65050000035,
      "d": 136.36350000000675,
      "v": 127
    },
    {
      "midi": 41,
      "hit": false,
      "t": 76909.01399999986,
      "d": 545.4539999999979,
      "v": 127
    },
    {
      "midi": 60,
      "hit": false,
      "t": 76909.01400000036,
      "d": 136.36350000000675,
      "v": 127
    },
    {
      "midi": 63,
      "hit": false,
      "t": 77045.37750000037,
      "d": 136.36350000000675,
      "v": 127
    },
    {
      "midi": 57,
      "hit": false,
      "t": 77181.74100000037,
      "d": 136.36350000000675,
      "v": 127
    },
    {
      "midi": 60,
      "hit": false,
      "t": 77318.10450000038,
      "d": 136.36350000000675,
      "v": 127
    },
    {
      "midi": 58,
      "hit": false,
      "t": 77454.46800000039,
      "d": 545.4539999999979,
      "v": 127
    },
    {
      "midi": 46,
      "hit": false,
      "t": 77590.83149999987,
      "d": 136.36350000000675,
      "v": 127
    },
    {
      "midi": 50,
      "hit": false,
      "t": 77727.19499999988,
      "d": 136.36350000000675,
      "v": 127
    },
    {
      "midi": 53,
      "hit": false,
      "t": 77863.55849999988,
      "d": 136.36350000000675,
      "v": 127
    },
    {
      "midi": 58,
      "hit": false,
      "t": 77999.92199999989,
      "d": 545.4539999999979,
      "v": 127
    },
    {
      "midi": 77,
      "hit": false,
      "t": 78272.64900000038,
      "d": 272.72699999999895,
      "v": 127
    },
    {
      "midi": 46,
      "hit": false,
      "t": 78545.37599999989,
      "d": 818.1809999999969,
      "v": 127
    },
    {
      "midi": 58,
      "hit": false,
      "t": 78545.37599999989,
      "d": 818.1809999999969,
      "v": 127
    },
    {
      "midi": 89,
      "hit": false,
      "t": 78545.37600000038,
      "d": 136.36350000000675,
      "v": 127
    },
    {
      "midi": 86,
      "hit": false,
      "t": 78681.73950000039,
      "d": 136.36350000000675,
      "v": 127
    },
    {
      "midi": 82,
      "hit": false,
      "t": 78818.1030000004,
      "d": 136.36350000000675,
      "v": 127
    },
    {
      "midi": 86,
      "hit": false,
      "t": 78954.4665000004,
      "d": 136.36350000000675,
      "v": 127
    },
    {
      "midi": 77,
      "hit": false,
      "t": 79090.83000000041,
      "d": 136.36350000000675,
      "v": 127
    },
    {
      "midi": 82,
      "hit": false,
      "t": 79227.19350000042,
      "d": 136.36350000000675,
      "v": 127
    },
    {
      "midi": 44,
      "hit": false,
      "t": 79363.55699999988,
      "d": 272.72699999999895,
      "v": 127
    },
    {
      "midi": 56,
      "hit": false,
      "t": 79363.55699999988,
      "d": 272.72699999999895,
      "v": 127
    },
    {
      "midi": 74,
      "hit": false,
      "t": 79363.55700000042,
      "d": 136.36350000000675,
      "v": 127
    },
    {
      "midi": 77,
      "hit": false,
      "t": 79499.92050000043,
      "d": 136.36350000000675,
      "v": 127
    },
    {
      "midi": 43,
      "hit": false,
      "t": 79636.28399999988,
      "d": 545.4539999999979,
      "v": 127
    },
    {
      "midi": 55,
      "hit": false,
      "t": 79636.28399999988,
      "d": 545.4539999999979,
      "v": 127
    },
    {
      "midi": 71,
      "hit": false,
      "t": 79636.28400000044,
      "d": 136.36350000000675,
      "v": 127
    },
    {
      "midi": 74,
      "hit": false,
      "t": 79772.64750000044,
      "d": 136.36350000000675,
      "v": 127
    },
    {
      "midi": 65,
      "hit": false,
      "t": 79909.01100000045,
      "d": 136.36350000000675,
      "v": 127
    },
    {
      "midi": 71,
      "hit": false,
      "t": 80045.37450000046,
      "d": 136.36350000000675,
      "v": 127
    },
    {
      "midi": 62,
      "hit": false,
      "t": 80181.73800000046,
      "d": 136.36350000000675,
      "v": 127
    },
    {
      "midi": 65,
      "hit": false,
      "t": 80318.10150000047,
      "d": 136.36350000000675,
      "v": 127
    },
    {
      "midi": 43,
      "hit": false,
      "t": 80454.46499999988,
      "d": 272.72699999999895,
      "v": 127
    },
    {
      "midi": 55,
      "hit": false,
      "t": 80454.46499999988,
      "d": 272.72699999999895,
      "v": 127
    },
    {
      "midi": 59,
      "hit": false,
      "t": 80454.46500000048,
      "d": 136.36350000000675,
      "v": 127
    },
    {
      "midi": 62,
      "hit": false,
      "t": 80590.82850000048,
      "d": 136.36350000000675,
      "v": 127
    },
    {
      "midi": 48,
      "hit": false,
      "t": 80727.19199999988,
      "d": 545.4539999999979,
      "v": 127
    },
    {
      "midi": 60,
      "hit": false,
      "t": 80727.19199999988,
      "d": 545.4539999999979,
      "v": 127
    },
    {
      "midi": 87,
      "hit": false,
      "t": 80727.19200000049,
      "d": 136.36350000000675,
      "v": 127
    },
    {
      "midi": 84,
      "hit": false,
      "t": 80863.5555000005,
      "d": 136.36350000000675,
      "v": 127
    },
    {
      "midi": 79,
      "hit": false,
      "t": 80999.9190000005,
      "d": 136.36350000000675,
      "v": 127
    },
    {
      "midi": 84,
      "hit": false,
      "t": 81136.28250000051,
      "d": 136.36350000000675,
      "v": 127
    },
    {
      "midi": 75,
      "hit": false,
      "t": 81272.64600000052,
      "d": 136.36350000000675,
      "v": 127
    },
    {
      "midi": 79,
      "hit": false,
      "t": 81409.00950000052,
      "d": 136.36350000000675,
      "v": 127
    },
    {
      "midi": 46,
      "hit": false,
      "t": 81545.37299999988,
      "d": 272.72699999999895,
      "v": 127
    },
    {
      "midi": 58,
      "hit": false,
      "t": 81545.37299999988,
      "d": 272.72699999999895,
      "v": 127
    },
    {
      "midi": 74,
      "hit": false,
      "t": 81545.37300000053,
      "d": 136.36350000000675,
      "v": 127
    },
    {
      "midi": 79,
      "hit": false,
      "t": 81681.73650000054,
      "d": 136.36350000000675,
      "v": 127
    },
    {
      "midi": 45,
      "hit": false,
      "t": 81818.09999999987,
      "d": 545.4539999999979,
      "v": 127
    },
    {
      "midi": 57,
      "hit": false,
      "t": 81818.09999999987,
      "d": 545.4539999999979,
      "v": 127
    },
    {
      "midi": 73,
      "hit": false,
      "t": 81818.10000000054,
      "d": 136.36350000000675,
      "v": 127
    },
    {
      "midi": 76,
      "hit": false,
      "t": 81954.46350000055,
      "d": 136.36350000000675,
      "v": 127
    },
    {
      "midi": 67,
      "hit": false,
      "t": 82090.82700000056,
      "d": 136.36350000000675,
      "v": 127
    },
    {
      "midi": 73,
      "hit": false,
      "t": 82227.19050000056,
      "d": 136.36350000000675,
      "v": 127
    },
    {
      "midi": 64,
      "hit": false,
      "t": 82363.55400000057,
      "d": 136.36350000000675,
      "v": 127
    },
    {
      "midi": 67,
      "hit": false,
      "t": 82499.91750000058,
      "d": 136.36350000000675,
      "v": 127
    },
    {
      "midi": 33,
      "hit": false,
      "t": 82636.28099999987,
      "d": 272.72699999999895,
      "v": 127
    },
    {
      "midi": 45,
      "hit": false,
      "t": 82636.28099999987,
      "d": 272.72699999999895,
      "v": 127
    },
    {
      "midi": 61,
      "hit": false,
      "t": 82636.28100000058,
      "d": 136.36350000000675,
      "v": 127
    },
    {
      "midi": 64,
      "hit": false,
      "t": 82772.64450000059,
      "d": 136.36350000000675,
      "v": 127
    },
    {
      "midi": 38,
      "hit": false,
      "t": 82909.00799999987,
      "d": 818.1809999999969,
      "v": 127
    },
    {
      "midi": 50,
      "hit": false,
      "t": 82909.00799999987,
      "d": 818.1809999999969,
      "v": 127
    },
    {
      "midi": 62,
      "hit": false,
      "t": 82909.0080000006,
      "d": 136.36350000000675,
      "v": 127
    },
    {
      "midi": 66,
      "hit": false,
      "t": 83045.3715000006,
      "d": 136.36350000000675,
      "v": 127
    },
    {
      "midi": 69,
      "hit": false,
      "t": 83181.73500000061,
      "d": 136.36350000000675,
      "v": 127
    },
    {
      "midi": 66,
      "hit": false,
      "t": 83318.09850000062,
      "d": 136.36350000000675,
      "v": 127
    },
    {
      "midi": 74,
      "hit": false,
      "t": 83454.46200000063,
      "d": 136.36350000000675,
      "v": 127
    },
    {
      "midi": 69,
      "hit": false,
      "t": 83590.82550000063,
      "d": 136.36350000000675,
      "v": 127
    },
    {
      "midi": 36,
      "hit": false,
      "t": 83727.18899999987,
      "d": 272.72699999999895,
      "v": 127
    },
    {
      "midi": 48,
      "hit": false,
      "t": 83727.18899999987,
      "d": 272.72699999999895,
      "v": 127
    },
    {
      "midi": 78,
      "hit": false,
      "t": 83727.18900000064,
      "d": 136.36350000000675,
      "v": 127
    },
    {
      "midi": 74,
      "hit": false,
      "t": 83863.55250000065,
      "d": 136.36350000000675,
      "v": 127
    },
    {
      "midi": 34,
      "hit": false,
      "t": 83999.91599999987,
      "d": 272.72699999999895,
      "v": 127
    },
    {
      "midi": 46,
      "hit": false,
      "t": 83999.91599999987,
      "d": 272.72699999999895,
      "v": 127
    },
    {
      "midi": 79,
      "hit": false,
      "t": 83999.91600000065,
      "d": 136.36350000000675,
      "v": 127
    },
    {
      "midi": 74,
      "hit": false,
      "t": 84136.27950000066,
      "d": 136.36350000000675,
      "v": 127
    },
    {
      "midi": 34,
      "hit": false,
      "t": 84272.64299999987,
      "d": 272.72699999999895,
      "v": 127
    },
    {
      "midi": 46,
      "hit": false,
      "t": 84272.64299999987,
      "d": 272.72699999999895,
      "v": 127
    },
    {
      "midi": 70,
      "hit": false,
      "t": 84272.64300000067,
      "d": 136.36350000000675,
      "v": 127
    },
    {
      "midi": 74,
      "hit": false,
      "t": 84409.00650000067,
      "d": 136.36350000000675,
      "v": 127
    },
    {
      "midi": 67,
      "hit": false,
      "t": 84545.37000000068,
      "d": 136.36350000000675,
      "v": 127
    },
    {
      "midi": 70,
      "hit": false,
      "t": 84681.73350000069,
      "d": 136.36350000000675,
      "v": 127
    },
    {
      "midi": 34,
      "hit": false,
      "t": 84818.09699999986,
      "d": 272.72699999999895,
      "v": 127
    },
    {
      "midi": 46,
      "hit": false,
      "t": 84818.09699999986,
      "d": 272.72699999999895,
      "v": 127
    },
    {
      "midi": 62,
      "hit": false,
      "t": 84818.0970000007,
      "d": 136.36350000000675,
      "v": 127
    },
    {
      "midi": 67,
      "hit": false,
      "t": 84954.4605000007,
      "d": 136.36350000000675,
      "v": 127
    },
    {
      "midi": 36,
      "hit": false,
      "t": 85090.82399999986,
      "d": 545.4539999999979,
      "v": 127
    },
    {
      "midi": 48,
      "hit": false,
      "t": 85090.82399999986,
      "d": 545.4539999999979,
      "v": 127
    },
    {
      "midi": 63,
      "hit": false,
      "t": 85090.8240000007,
      "d": 136.36350000000675,
      "v": 127
    },
    {
      "midi": 67,
      "hit": false,
      "t": 85227.18750000071,
      "d": 136.36350000000675,
      "v": 127
    },
    {
      "midi": 60,
      "hit": false,
      "t": 85363.55100000072,
      "d": 136.36350000000675,
      "v": 127
    },
    {
      "midi": 63,
      "hit": false,
      "t": 85499.91450000073,
      "d": 136.36350000000675,
      "v": 127
    },
    {
      "midi": 38,
      "hit": false,
      "t": 85636.27799999986,
      "d": 545.4539999999979,
      "v": 127
    },
    {
      "midi": 50,
      "hit": false,
      "t": 85636.27799999986,
      "d": 545.4539999999979,
      "v": 127
    },
    {
      "midi": 57,
      "hit": false,
      "t": 85636.27800000073,
      "d": 136.36350000000675,
      "v": 127
    },
    {
      "midi": 60,
      "hit": false,
      "t": 85772.64150000074,
      "d": 136.36350000000675,
      "v": 127
    },
    {
      "midi": 54,
      "hit": false,
      "t": 85909.00500000075,
      "d": 136.36350000000675,
      "v": 127
    },
    {
      "midi": 57,
      "hit": false,
      "t": 86045.36850000075,
      "d": 136.36350000000675,
      "v": 127
    },
    {
      "midi": 55,
      "hit": false,
      "t": 86181.73200000076,
      "d": 545.4539999999979,
      "v": 127
    },
    {
      "midi": 31,
      "hit": false,
      "t": 86318.09549999986,
      "d": 136.36350000000675,
      "v": 127
    },
    {
      "midi": 34,
      "hit": false,
      "t": 86454.45899999987,
      "d": 136.36350000000675,
      "v": 127
    },
    {
      "midi": 38,
      "hit": false,
      "t": 86590.82249999988,
      "d": 136.36350000000675,
      "v": 127
    },
    {
      "midi": 43,
      "hit": false,
      "t": 86727.18599999989,
      "d": 545.4539999999979,
      "v": 127
    },
    {
      "midi": 77,
      "hit": false,
      "t": 86999.91300000076,
      "d": 272.72699999999895,
      "v": 127
    },
    {
      "midi": 46,
      "hit": false,
      "t": 87272.63999999988,
      "d": 818.1809999999969,
      "v": 127
    },
    {
      "midi": 58,
      "hit": false,
      "t": 87272.63999999988,
      "d": 818.1809999999969,
      "v": 127
    },
    {
      "midi": 89,
      "hit": false,
      "t": 87272.64000000076,
      "d": 136.36350000000675,
      "v": 127
    },
    {
      "midi": 86,
      "hit": false,
      "t": 87409.00350000076,
      "d": 136.36350000000675,
      "v": 127
    },
    {
      "midi": 82,
      "hit": false,
      "t": 87545.36700000077,
      "d": 136.36350000000675,
      "v": 127
    },
    {
      "midi": 86,
      "hit": false,
      "t": 87681.73050000078,
      "d": 136.36350000000675,
      "v": 127
    },
    {
      "midi": 77,
      "hit": false,
      "t": 87818.09400000078,
      "d": 136.36350000000675,
      "v": 127
    },
    {
      "midi": 82,
      "hit": false,
      "t": 87954.45750000079,
      "d": 136.36350000000675,
      "v": 127
    },
    {
      "midi": 44,
      "hit": false,
      "t": 88090.82099999988,
      "d": 272.72699999999895,
      "v": 127
    },
    {
      "midi": 56,
      "hit": false,
      "t": 88090.82099999988,
      "d": 272.72699999999895,
      "v": 127
    },
    {
      "midi": 74,
      "hit": false,
      "t": 88090.8210000008,
      "d": 136.36350000000675,
      "v": 127
    },
    {
      "midi": 77,
      "hit": false,
      "t": 88227.1845000008,
      "d": 136.36350000000675,
      "v": 127
    },
    {
      "midi": 43,
      "hit": false,
      "t": 88363.54799999988,
      "d": 545.4539999999979,
      "v": 127
    },
    {
      "midi": 55,
      "hit": false,
      "t": 88363.54799999988,
      "d": 545.4539999999979,
      "v": 127
    },
    {
      "midi": 71,
      "hit": false,
      "t": 88363.54800000081,
      "d": 136.36350000000675,
      "v": 127
    },
    {
      "midi": 74,
      "hit": false,
      "t": 88499.91150000082,
      "d": 136.36350000000675,
      "v": 127
    },
    {
      "midi": 65,
      "hit": false,
      "t": 88636.27500000082,
      "d": 136.36350000000675,
      "v": 127
    },
    {
      "midi": 71,
      "hit": false,
      "t": 88772.63850000083,
      "d": 136.36350000000675,
      "v": 127
    },
    {
      "midi": 62,
      "hit": false,
      "t": 88909.00200000084,
      "d": 136.36350000000675,
      "v": 127
    },
    {
      "midi": 65,
      "hit": false,
      "t": 89045.36550000084,
      "d": 136.36350000000675,
      "v": 127
    },
    {
      "midi": 43,
      "hit": false,
      "t": 89181.72899999988,
      "d": 272.72699999999895,
      "v": 127
    },
    {
      "midi": 55,
      "hit": false,
      "t": 89181.72899999988,
      "d": 272.72699999999895,
      "v": 127
    },
    {
      "midi": 59,
      "hit": false,
      "t": 89181.72900000085,
      "d": 136.36350000000675,
      "v": 127
    },
    {
      "midi": 62,
      "hit": false,
      "t": 89318.09250000086,
      "d": 136.36350000000675,
      "v": 127
    },
    {
      "midi": 48,
      "hit": false,
      "t": 89454.45599999987,
      "d": 545.4539999999979,
      "v": 127
    },
    {
      "midi": 60,
      "hit": false,
      "t": 89454.45599999987,
      "d": 545.4539999999979,
      "v": 127
    },
    {
      "midi": 87,
      "hit": false,
      "t": 89454.45600000086,
      "d": 136.36350000000675,
      "v": 127
    },
    {
      "midi": 84,
      "hit": false,
      "t": 89590.81950000087,
      "d": 136.36350000000675,
      "v": 127
    },
    {
      "midi": 79,
      "hit": false,
      "t": 89727.18300000088,
      "d": 136.36350000000675,
      "v": 127
    },
    {
      "midi": 84,
      "hit": false,
      "t": 89863.54650000088,
      "d": 136.36350000000675,
      "v": 127
    },
    {
      "midi": 75,
      "hit": false,
      "t": 89999.91000000089,
      "d": 136.36350000000675,
      "v": 127
    },
    {
      "midi": 79,
      "hit": false,
      "t": 90136.2735000009,
      "d": 136.36350000000675,
      "v": 127
    },
    {
      "midi": 46,
      "hit": false,
      "t": 90272.63699999987,
      "d": 272.72699999999895,
      "v": 127
    },
    {
      "midi": 58,
      "hit": false,
      "t": 90272.63699999987,
      "d": 272.72699999999895,
      "v": 127
    },
    {
      "midi": 74,
      "hit": false,
      "t": 90272.6370000009,
      "d": 136.36350000000675,
      "v": 127
    },
    {
      "midi": 79,
      "hit": false,
      "t": 90409.00050000091,
      "d": 136.36350000000675,
      "v": 127
    },
    {
      "midi": 45,
      "hit": false,
      "t": 90545.36399999987,
      "d": 545.4539999999979,
      "v": 127
    },
    {
      "midi": 57,
      "hit": false,
      "t": 90545.36399999987,
      "d": 545.4539999999979,
      "v": 127
    },
    {
      "midi": 73,
      "hit": false,
      "t": 90545.36400000092,
      "d": 136.36350000000675,
      "v": 127
    },
    {
      "midi": 76,
      "hit": false,
      "t": 90681.72750000092,
      "d": 136.36350000000675,
      "v": 127
    },
    {
      "midi": 67,
      "hit": false,
      "t": 90818.09100000093,
      "d": 136.36350000000675,
      "v": 127
    },
    {
      "midi": 73,
      "hit": false,
      "t": 90954.45450000094,
      "d": 136.36350000000675,
      "v": 127
    },
    {
      "midi": 64,
      "hit": false,
      "t": 91090.81800000095,
      "d": 136.36350000000675,
      "v": 127
    },
    {
      "midi": 67,
      "hit": false,
      "t": 91227.18150000095,
      "d": 136.36350000000675,
      "v": 127
    },
    {
      "midi": 33,
      "hit": false,
      "t": 91363.54499999987,
      "d": 272.72699999999895,
      "v": 127
    },
    {
      "midi": 45,
      "hit": false,
      "t": 91363.54499999987,
      "d": 272.72699999999895,
      "v": 127
    },
    {
      "midi": 61,
      "hit": false,
      "t": 91363.54500000096,
      "d": 136.36350000000675,
      "v": 127
    },
    {
      "midi": 64,
      "hit": false,
      "t": 91499.90850000097,
      "d": 136.36350000000675,
      "v": 127
    },
    {
      "midi": 38,
      "hit": false,
      "t": 91636.27199999987,
      "d": 818.1809999999969,
      "v": 127
    },
    {
      "midi": 50,
      "hit": false,
      "t": 91636.27199999987,
      "d": 818.1809999999969,
      "v": 127
    },
    {
      "midi": 62,
      "hit": false,
      "t": 91636.27200000097,
      "d": 136.36350000000675,
      "v": 127
    },
    {
      "midi": 66,
      "hit": false,
      "t": 91772.63550000098,
      "d": 136.36350000000675,
      "v": 127
    },
    {
      "midi": 69,
      "hit": false,
      "t": 91908.99900000099,
      "d": 136.36350000000675,
      "v": 127
    },
    {
      "midi": 66,
      "hit": false,
      "t": 92045.36250000099,
      "d": 136.36350000000675,
      "v": 127
    },
    {
      "midi": 74,
      "hit": false,
      "t": 92181.726000001,
      "d": 136.36350000000675,
      "v": 127
    },
    {
      "midi": 69,
      "hit": false,
      "t": 92318.089500001,
      "d": 136.36350000000675,
      "v": 127
    },
    {
      "midi": 36,
      "hit": false,
      "t": 92454.45299999986,
      "d": 272.72699999999895,
      "v": 127
    },
    {
      "midi": 48,
      "hit": false,
      "t": 92454.45299999986,
      "d": 272.72699999999895,
      "v": 127
    },
    {
      "midi": 78,
      "hit": false,
      "t": 92454.45300000101,
      "d": 136.36350000000675,
      "v": 127
    },
    {
      "midi": 74,
      "hit": false,
      "t": 92590.81650000102,
      "d": 136.36350000000675,
      "v": 127
    },
    {
      "midi": 34,
      "hit": false,
      "t": 92727.17999999986,
      "d": 272.72699999999895,
      "v": 127
    },
    {
      "midi": 46,
      "hit": false,
      "t": 92727.17999999986,
      "d": 272.72699999999895,
      "v": 127
    },
    {
      "midi": 79,
      "hit": false,
      "t": 92727.18000000103,
      "d": 136.36350000000675,
      "v": 127
    },
    {
      "midi": 74,
      "hit": false,
      "t": 92863.54350000103,
      "d": 136.36350000000675,
      "v": 127
    },
    {
      "midi": 34,
      "hit": false,
      "t": 92999.90699999986,
      "d": 272.72699999999895,
      "v": 127
    },
    {
      "midi": 46,
      "hit": false,
      "t": 92999.90699999986,
      "d": 272.72699999999895,
      "v": 127
    },
    {
      "midi": 70,
      "hit": false,
      "t": 92999.90700000104,
      "d": 136.36350000000675,
      "v": 127
    },
    {
      "midi": 74,
      "hit": false,
      "t": 93136.27050000105,
      "d": 136.36350000000675,
      "v": 127
    },
    {
      "midi": 67,
      "hit": false,
      "t": 93272.63400000105,
      "d": 136.36350000000675,
      "v": 127
    },
    {
      "midi": 70,
      "hit": false,
      "t": 93408.99750000106,
      "d": 136.36350000000675,
      "v": 127
    },
    {
      "midi": 34,
      "hit": false,
      "t": 93545.36099999986,
      "d": 272.72699999999895,
      "v": 127
    },
    {
      "midi": 46,
      "hit": false,
      "t": 93545.36099999986,
      "d": 272.72699999999895,
      "v": 127
    },
    {
      "midi": 62,
      "hit": false,
      "t": 93545.36100000107,
      "d": 136.36350000000675,
      "v": 127
    },
    {
      "midi": 67,
      "hit": false,
      "t": 93681.72450000107,
      "d": 136.36350000000675,
      "v": 127
    },
    {
      "midi": 36,
      "hit": false,
      "t": 93818.08799999986,
      "d": 545.4539999999979,
      "v": 127
    },
    {
      "midi": 48,
      "hit": false,
      "t": 93818.08799999986,
      "d": 545.4539999999979,
      "v": 127
    },
    {
      "midi": 63,
      "hit": false,
      "t": 93818.08800000108,
      "d": 136.36350000000675,
      "v": 127
    },
    {
      "midi": 67,
      "hit": false,
      "t": 93954.45150000109,
      "d": 136.36350000000675,
      "v": 127
    },
    {
      "midi": 60,
      "hit": false,
      "t": 94090.8150000011,
      "d": 136.36350000000675,
      "v": 127
    },
    {
      "midi": 63,
      "hit": false,
      "t": 94227.1785000011,
      "d": 136.36350000000675,
      "v": 127
    },
    {
      "midi": 38,
      "hit": false,
      "t": 94363.54199999986,
      "d": 545.4539999999979,
      "v": 127
    },
    {
      "midi": 50,
      "hit": false,
      "t": 94363.54199999986,
      "d": 545.4539999999979,
      "v": 127
    },
    {
      "midi": 57,
      "hit": false,
      "t": 94363.5420000011,
      "d": 136.36350000000675,
      "v": 127
    },
    {
      "midi": 60,
      "hit": false,
      "t": 94499.90550000111,
      "d": 136.36350000000675,
      "v": 127
    },
    {
      "midi": 54,
      "hit": false,
      "t": 94636.26900000112,
      "d": 136.36350000000675,
      "v": 127
    },
    {
      "midi": 57,
      "hit": false,
      "t": 94772.63250000113,
      "d": 136.36350000000675,
      "v": 127
    },
    {
      "midi": 31,
      "hit": false,
      "t": 94908.99599999985,
      "d": 545.4539999999979,
      "v": 127
    },
    {
      "midi": 43,
      "hit": false,
      "t": 94908.99599999985,
      "d": 545.4539999999979,
      "v": 127
    },
    {
      "midi": 55,
      "hit": false,
      "t": 94908.99600000113,
      "d": 136.36350000000675,
      "v": 127
    },
    {
      "midi": 62,
      "hit": false,
      "t": 95045.35950000114,
      "d": 136.36350000000675,
      "v": 127
    },
    {
      "midi": 58,
      "hit": false,
      "t": 95181.72300000115,
      "d": 136.36350000000675,
      "v": 127
    },
    {
      "midi": 62,
      "hit": false,
      "t": 95318.08650000115,
      "d": 136.36350000000675,
      "v": 127
    },
    {
      "midi": 55,
      "hit": false,
      "t": 95454.45000000116,
      "d": 545.4539999999979,
      "v": 127
    },
    {
      "midi": 34,
      "hit": false,
      "t": 95590.81349999986,
      "d": 136.36350000000675,
      "v": 127
    },
    {
      "midi": 36,
      "hit": false,
      "t": 95727.17699999987,
      "d": 136.36350000000675,
      "v": 127
    },
    {
      "midi": 38,
      "hit": false,
      "t": 95863.54049999987,
      "d": 136.36350000000675,
      "v": 127
    },
    {
      "midi": 39,
      "hit": false,
      "t": 95999.90399999988,
      "d": 545.4539999999979,
      "v": 127
    },
    {
      "midi": 55,
      "hit": false,
      "t": 95999.90400000116,
      "d": 272.72699999999895,
      "v": 127
    },
    {
      "midi": 58,
      "hit": false,
      "t": 95999.90400000116,
      "d": 272.72699999999895,
      "v": 127
    },
    {
      "midi": 55,
      "hit": false,
      "t": 96272.63100000116,
      "d": 272.72699999999895,
      "v": 127
    },
    {
      "midi": 58,
      "hit": false,
      "t": 96272.63100000116,
      "d": 272.72699999999895,
      "v": 127
    },
    {
      "midi": 43,
      "hit": false,
      "t": 96545.35799999988,
      "d": 272.72699999999895,
      "v": 127
    },
    {
      "midi": 55,
      "hit": false,
      "t": 96545.35800000116,
      "d": 272.72699999999895,
      "v": 127
    },
    {
      "midi": 58,
      "hit": false,
      "t": 96545.35800000116,
      "d": 272.72699999999895,
      "v": 127
    },
    {
      "midi": 43,
      "hit": false,
      "t": 96818.08499999988,
      "d": 272.72699999999895,
      "v": 127
    },
    {
      "midi": 55,
      "hit": false,
      "t": 96818.08500000116,
      "d": 272.72699999999895,
      "v": 127
    },
    {
      "midi": 58,
      "hit": false,
      "t": 96818.08500000116,
      "d": 272.72699999999895,
      "v": 127
    },
    {
      "midi": 46,
      "hit": false,
      "t": 97090.81199999987,
      "d": 272.72699999999895,
      "v": 127
    },
    {
      "midi": 55,
      "hit": false,
      "t": 97090.81200000115,
      "d": 272.72699999999895,
      "v": 127
    },
    {
      "midi": 58,
      "hit": false,
      "t": 97090.81200000115,
      "d": 272.72699999999895,
      "v": 127
    },
    {
      "midi": 46,
      "hit": false,
      "t": 97363.53899999987,
      "d": 272.72699999999895,
      "v": 127
    },
    {
      "midi": 55,
      "hit": false,
      "t": 97363.53900000115,
      "d": 272.72699999999895,
      "v": 127
    },
    {
      "midi": 58,
      "hit": false,
      "t": 97363.53900000115,
      "d": 272.72699999999895,
      "v": 127
    },
    {
      "midi": 51,
      "hit": false,
      "t": 97636.26599999987,
      "d": 545.4539999999979,
      "v": 127
    },
    {
      "midi": 55,
      "hit": false,
      "t": 97636.26600000115,
      "d": 272.72699999999895,
      "v": 127
    },
    {
      "midi": 58,
      "hit": false,
      "t": 97636.26600000115,
      "d": 272.72699999999895,
      "v": 127
    },
    {
      "midi": 55,
      "hit": false,
      "t": 97908.99300000115,
      "d": 272.72699999999895,
      "v": 127
    },
    {
      "midi": 58,
      "hit": false,
      "t": 97908.99300000115,
      "d": 272.72699999999895,
      "v": 127
    },
    {
      "midi": 51,
      "hit": false,
      "t": 98181.71999999987,
      "d": 136.36350000000675,
      "v": 127
    },
    {
      "midi": 56,
      "hit": false,
      "t": 98181.72000000115,
      "d": 272.72699999999895,
      "v": 127
    },
    {
      "midi": 58,
      "hit": false,
      "t": 98181.72000000115,
      "d": 272.72699999999895,
      "v": 127
    },
    {
      "midi": 50,
      "hit": false,
      "t": 98318.08349999988,
      "d": 136.36350000000675,
      "v": 127
    },
    {
      "midi": 51,
      "hit": false,
      "t": 98454.44699999988,
      "d": 136.36350000000675,
      "v": 127
    },
    {
      "midi": 56,
      "hit": false,
      "t": 98454.44700000115,
      "d": 272.72699999999895,
      "v": 127
    },
    {
      "midi": 58,
      "hit": false,
      "t": 98454.44700000115,
      "d": 272.72699999999895,
      "v": 127
    },
    {
      "midi": 50,
      "hit": false,
      "t": 98590.81049999989,
      "d": 136.36350000000675,
      "v": 127
    },
    {
      "midi": 46,
      "hit": false,
      "t": 98727.1739999999,
      "d": 545.4539999999979,
      "v": 127
    },
    {
      "midi": 56,
      "hit": false,
      "t": 98727.17400000115,
      "d": 272.72699999999895,
      "v": 127
    },
    {
      "midi": 58,
      "hit": false,
      "t": 98727.17400000115,
      "d": 272.72699999999895,
      "v": 127
    },
    {
      "midi": 56,
      "hit": false,
      "t": 98999.90100000115,
      "d": 272.72699999999895,
      "v": 127
    },
    {
      "midi": 58,
      "hit": false,
      "t": 98999.90100000115,
      "d": 272.72699999999895,
      "v": 127
    },
    {
      "midi": 51,
      "hit": false,
      "t": 99272.6279999999,
      "d": 136.36350000000675,
      "v": 127
    },
    {
      "midi": 56,
      "hit": false,
      "t": 99272.62800000115,
      "d": 272.72699999999895,
      "v": 127
    },
    {
      "midi": 58,
      "hit": false,
      "t": 99272.62800000115,
      "d": 272.72699999999895,
      "v": 127
    },
    {
      "midi": 50,
      "hit": false,
      "t": 99408.9914999999,
      "d": 136.36350000000675,
      "v": 127
    },
    {
      "midi": 51,
      "hit": false,
      "t": 99545.35499999991,
      "d": 136.36350000000675,
      "v": 127
    },
    {
      "midi": 56,
      "hit": false,
      "t": 99545.35500000115,
      "d": 272.72699999999895,
      "v": 127
    },
    {
      "midi": 58,
      "hit": false,
      "t": 99545.35500000115,
      "d": 272.72699999999895,
      "v": 127
    },
    {
      "midi": 50,
      "hit": false,
      "t": 99681.71849999992,
      "d": 136.36350000000675,
      "v": 127
    },
    {
      "midi": 46,
      "hit": false,
      "t": 99818.08199999992,
      "d": 545.4539999999979,
      "v": 127
    },
    {
      "midi": 56,
      "hit": false,
      "t": 99818.08200000114,
      "d": 272.72699999999895,
      "v": 127
    },
    {
      "midi": 58,
      "hit": false,
      "t": 99818.08200000114,
      "d": 272.72699999999895,
      "v": 127
    },
    {
      "midi": 56,
      "hit": false,
      "t": 100090.80900000114,
      "d": 272.72699999999895,
      "v": 127
    },
    {
      "midi": 58,
      "hit": false,
      "t": 100090.80900000114,
      "d": 272.72699999999895,
      "v": 127
    },
    {
      "midi": 51,
      "hit": false,
      "t": 100363.53599999992,
      "d": 272.72699999999895,
      "v": 127
    },
    {
      "midi": 55,
      "hit": false,
      "t": 100363.53599999992,
      "d": 272.72699999999895,
      "v": 127
    },
    {
      "midi": 58,
      "hit": false,
      "t": 100363.53599999992,
      "d": 272.72699999999895,
      "v": 127
    },
    {
      "midi": 63,
      "hit": false,
      "t": 100363.53600000114,
      "d": 545.4539999999979,
      "v": 127
    },
    {
      "midi": 51,
      "hit": false,
      "t": 100636.26299999992,
      "d": 272.72699999999895,
      "v": 127
    },
    {
      "midi": 55,
      "hit": false,
      "t": 100636.26299999992,
      "d": 272.72699999999895,
      "v": 127
    },
    {
      "midi": 58,
      "hit": false,
      "t": 100636.26299999992,
      "d": 272.72699999999895,
      "v": 127
    },
    {
      "midi": 51,
      "hit": false,
      "t": 100908.98999999992,
      "d": 272.72699999999895,
      "v": 127
    },
    {
      "midi": 55,
      "hit": false,
      "t": 100908.98999999992,
      "d": 272.72699999999895,
      "v": 127
    },
    {
      "midi": 58,
      "hit": false,
      "t": 100908.98999999992,
      "d": 272.72699999999895,
      "v": 127
    },
    {
      "midi": 67,
      "hit": false,
      "t": 100908.99000000114,
      "d": 272.72699999999895,
      "v": 127
    },
    {
      "midi": 51,
      "hit": false,
      "t": 101181.71699999992,
      "d": 272.72699999999895,
      "v": 127
    },
    {
      "midi": 55,
      "hit": false,
      "t": 101181.71699999992,
      "d": 272.72699999999895,
      "v": 127
    },
    {
      "midi": 58,
      "hit": false,
      "t": 101181.71699999992,
      "d": 272.72699999999895,
      "v": 127
    },
    {
      "midi": 67,
      "hit": false,
      "t": 101181.71700000114,
      "d": 272.72699999999895,
      "v": 127
    },
    {
      "midi": 51,
      "hit": false,
      "t": 101454.44399999992,
      "d": 272.72699999999895,
      "v": 127
    },
    {
      "midi": 55,
      "hit": false,
      "t": 101454.44399999992,
      "d": 272.72699999999895,
      "v": 127
    },
    {
      "midi": 58,
      "hit": false,
      "t": 101454.44399999992,
      "d": 272.72699999999895,
      "v": 127
    },
    {
      "midi": 70,
      "hit": false,
      "t": 101454.44400000114,
      "d": 272.72699999999895,
      "v": 127
    },
    {
      "midi": 51,
      "hit": false,
      "t": 101727.17099999991,
      "d": 272.72699999999895,
      "v": 127
    },
    {
      "midi": 55,
      "hit": false,
      "t": 101727.17099999991,
      "d": 272.72699999999895,
      "v": 127
    },
    {
      "midi": 58,
      "hit": false,
      "t": 101727.17099999991,
      "d": 272.72699999999895,
      "v": 127
    },
    {
      "midi": 70,
      "hit": false,
      "t": 101727.17100000114,
      "d": 272.72699999999895,
      "v": 127
    },
    {
      "midi": 51,
      "hit": false,
      "t": 101999.89799999991,
      "d": 272.72699999999895,
      "v": 127
    },
    {
      "midi": 55,
      "hit": false,
      "t": 101999.89799999991,
      "d": 272.72699999999895,
      "v": 127
    },
    {
      "midi": 58,
      "hit": false,
      "t": 101999.89799999991,
      "d": 272.72699999999895,
      "v": 127
    },
    {
      "midi": 75,
      "hit": false,
      "t": 101999.89800000114,
      "d": 545.4539999999979,
      "v": 127
    },
    {
      "midi": 51,
      "hit": false,
      "t": 102272.62499999991,
      "d": 272.72699999999895,
      "v": 127
    },
    {
      "midi": 55,
      "hit": false,
      "t": 102272.62499999991,
      "d": 272.72699999999895,
      "v": 127
    },
    {
      "midi": 58,
      "hit": false,
      "t": 102272.62499999991,
      "d": 272.72699999999895,
      "v": 127
    },
    {
      "midi": 52,
      "hit": false,
      "t": 102545.35199999991,
      "d": 272.72699999999895,
      "v": 127
    },
    {
      "midi": 55,
      "hit": false,
      "t": 102545.35199999991,
      "d": 272.72699999999895,
      "v": 127
    },
    {
      "midi": 58,
      "hit": false,
      "t": 102545.35199999991,
      "d": 272.72699999999895,
      "v": 127
    },
    {
      "midi": 74,
      "hit": false,
      "t": 102545.35200000113,
      "d": 136.36350000000675,
      "v": 127
    },
    {
      "midi": 73,
      "hit": false,
      "t": 102681.71550000114,
      "d": 136.36350000000675,
      "v": 127
    },
    {
      "midi": 52,
      "hit": false,
      "t": 102818.07899999991,
      "d": 272.72699999999895,
      "v": 127
    },
    {
      "midi": 55,
      "hit": false,
      "t": 102818.07899999991,
      "d": 272.72699999999895,
      "v": 127
    },
    {
      "midi": 58,
      "hit": false,
      "t": 102818.07899999991,
      "d": 272.72699999999895,
      "v": 127
    },
    {
      "midi": 74,
      "hit": false,
      "t": 102818.07900000115,
      "d": 136.36350000000675,
      "v": 127
    },
    {
      "midi": 73,
      "hit": false,
      "t": 102954.44250000115,
      "d": 136.36350000000675,
      "v": 127
    },
    {
      "midi": 52,
      "hit": false,
      "t": 103090.80599999991,
      "d": 272.72699999999895,
      "v": 127
    },
    {
      "midi": 55,
      "hit": false,
      "t": 103090.80599999991,
      "d": 272.72699999999895,
      "v": 127
    },
    {
      "midi": 58,
      "hit": false,
      "t": 103090.80599999991,
      "d": 272.72699999999895,
      "v": 127
    },
    {
      "midi": 79,
      "hit": false,
      "t": 103090.80600000116,
      "d": 545.4539999999979,
      "v": 127
    },
    {
      "midi": 52,
      "hit": false,
      "t": 103363.53299999991,
      "d": 272.72699999999895,
      "v": 127
    },
    {
      "midi": 55,
      "hit": false,
      "t": 103363.53299999991,
      "d": 272.72699999999895,
      "v": 127
    },
    {
      "midi": 58,
      "hit": false,
      "t": 103363.53299999991,
      "d": 272.72699999999895,
      "v": 127
    },
    {
      "midi": 54,
      "hit": false,
      "t": 103636.25999999991,
      "d": 272.72699999999895,
      "v": 127
    },
    {
      "midi": 57,
      "hit": false,
      "t": 103636.25999999991,
      "d": 272.72699999999895,
      "v": 127
    },
    {
      "midi": 62,
      "hit": false,
      "t": 103636.25999999991,
      "d": 272.72699999999895,
      "v": 127
    },
    {
      "midi": 74,
      "hit": false,
      "t": 103636.26000000116,
      "d": 136.36350000000675,
      "v": 127
    },
    {
      "midi": 72,
      "hit": false,
      "t": 103772.62350000117,
      "d": 136.36350000000675,
      "v": 127
    },
    {
      "midi": 54,
      "hit": false,
      "t": 103908.9869999999,
      "d": 272.72699999999895,
      "v": 127
    },
    {
      "midi": 57,
      "hit": false,
      "t": 103908.9869999999,
      "d": 272.72699999999895,
      "v": 127
    },
    {
      "midi": 62,
      "hit": false,
      "t": 103908.9869999999,
      "d": 272.72699999999895,
      "v": 127
    },
    {
      "midi": 74,
      "hit": false,
      "t": 103908.98700000117,
      "d": 136.36350000000675,
      "v": 127
    },
    {
      "midi": 72,
      "hit": false,
      "t": 104045.35050000118,
      "d": 136.36350000000675,
      "v": 127
    },
    {
      "midi": 54,
      "hit": false,
      "t": 104181.7139999999,
      "d": 272.72699999999895,
      "v": 127
    },
    {
      "midi": 57,
      "hit": false,
      "t": 104181.7139999999,
      "d": 272.72699999999895,
      "v": 127
    },
    {
      "midi": 62,
      "hit": false,
      "t": 104181.7139999999,
      "d": 272.72699999999895,
      "v": 127
    },
    {
      "midi": 81,
      "hit": false,
      "t": 104181.71400000119,
      "d": 545.4539999999979,
      "v": 127
    },
    {
      "midi": 54,
      "hit": false,
      "t": 104454.4409999999,
      "d": 272.72699999999895,
      "v": 127
    },
    {
      "midi": 57,
      "hit": false,
      "t": 104454.4409999999,
      "d": 272.72699999999895,
      "v": 127
    },
    {
      "midi": 62,
      "hit": false,
      "t": 104454.4409999999,
      "d": 272.72699999999895,
      "v": 127
    },
    {
      "midi": 55,
      "hit": false,
      "t": 104727.1679999999,
      "d": 272.72699999999895,
      "v": 127
    },
    {
      "midi": 59,
      "hit": false,
      "t": 104727.1679999999,
      "d": 272.72699999999895,
      "v": 127
    },
    {
      "midi": 62,
      "hit": false,
      "t": 104727.1679999999,
      "d": 272.72699999999895,
      "v": 127
    },
    {
      "midi": 71,
      "hit": false,
      "t": 104727.16800000118,
      "d": 545.4539999999979,
      "v": 127
    },
    {
      "midi": 55,
      "hit": false,
      "t": 104999.8949999999,
      "d": 272.72699999999895,
      "v": 127
    },
    {
      "midi": 59,
      "hit": false,
      "t": 104999.8949999999,
      "d": 272.72699999999895,
      "v": 127
    },
    {
      "midi": 62,
      "hit": false,
      "t": 104999.8949999999,
      "d": 272.72699999999895,
      "v": 127
    },
    {
      "midi": 55,
      "hit": false,
      "t": 105272.6219999999,
      "d": 272.72699999999895,
      "v": 127
    },
    {
      "midi": 59,
      "hit": false,
      "t": 105272.6219999999,
      "d": 272.72699999999895,
      "v": 127
    },
    {
      "midi": 62,
      "hit": false,
      "t": 105272.6219999999,
      "d": 272.72699999999895,
      "v": 127
    },
    {
      "midi": 74,
      "hit": false,
      "t": 105272.62200000118,
      "d": 272.72699999999895,
      "v": 127
    },
    {
      "midi": 55,
      "hit": false,
      "t": 105545.3489999999,
      "d": 272.72699999999895,
      "v": 127
    },
    {
      "midi": 59,
      "hit": false,
      "t": 105545.3489999999,
      "d": 272.72699999999895,
      "v": 127
    },
    {
      "midi": 62,
      "hit": false,
      "t": 105545.3489999999,
      "d": 272.72699999999895,
      "v": 127
    },
    {
      "midi": 74,
      "hit": false,
      "t": 105545.34900000118,
      "d": 272.72699999999895,
      "v": 127
    },
    {
      "midi": 55,
      "hit": false,
      "t": 105818.0759999999,
      "d": 272.72699999999895,
      "v": 127
    },
    {
      "midi": 59,
      "hit": false,
      "t": 105818.0759999999,
      "d": 272.72699999999895,
      "v": 127
    },
    {
      "midi": 62,
      "hit": false,
      "t": 105818.0759999999,
      "d": 272.72699999999895,
      "v": 127
    },
    {
      "midi": 79,
      "hit": false,
      "t": 105818.07600000118,
      "d": 272.72699999999895,
      "v": 127
    },
    {
      "midi": 55,
      "hit": false,
      "t": 106090.8029999999,
      "d": 272.72699999999895,
      "v": 127
    },
    {
      "midi": 59,
      "hit": false,
      "t": 106090.8029999999,
      "d": 272.72699999999895,
      "v": 127
    },
    {
      "midi": 62,
      "hit": false,
      "t": 106090.8029999999,
      "d": 272.72699999999895,
      "v": 127
    },
    {
      "midi": 79,
      "hit": false,
      "t": 106090.80300000118,
      "d": 272.72699999999895,
      "v": 127
    },
    {
      "midi": 55,
      "hit": false,
      "t": 106363.5299999999,
      "d": 272.72699999999895,
      "v": 127
    },
    {
      "midi": 59,
      "hit": false,
      "t": 106363.5299999999,
      "d": 272.72699999999895,
      "v": 127
    },
    {
      "midi": 62,
      "hit": false,
      "t": 106363.5299999999,
      "d": 272.72699999999895,
      "v": 127
    },
    {
      "midi": 83,
      "hit": false,
      "t": 106363.53000000118,
      "d": 545.4539999999979,
      "v": 127
    },
    {
      "midi": 55,
      "hit": false,
      "t": 106636.2569999999,
      "d": 272.72699999999895,
      "v": 127
    },
    {
      "midi": 59,
      "hit": false,
      "t": 106636.2569999999,
      "d": 272.72699999999895,
      "v": 127
    },
    {
      "midi": 62,
      "hit": false,
      "t": 106636.2569999999,
      "d": 272.72699999999895,
      "v": 127
    },
    {
      "midi": 55,
      "hit": false,
      "t": 106908.9839999999,
      "d": 272.72699999999895,
      "v": 127
    },
    {
      "midi": 60,
      "hit": false,
      "t": 106908.9839999999,
      "d": 272.72699999999895,
      "v": 127
    },
    {
      "midi": 62,
      "hit": false,
      "t": 106908.9839999999,
      "d": 272.72699999999895,
      "v": 127
    },
    {
      "midi": 66,
      "hit": false,
      "t": 106908.9839999999,
      "d": 272.72699999999895,
      "v": 127
    },
    {
      "midi": 86,
      "hit": false,
      "t": 106908.98400000118,
      "d": 136.36350000000675,
      "v": 127
    },
    {
      "midi": 84,
      "hit": false,
      "t": 107045.34750000118,
      "d": 136.36350000000675,
      "v": 127
    },
    {
      "midi": 55,
      "hit": false,
      "t": 107181.7109999999,
      "d": 272.72699999999895,
      "v": 127
    },
    {
      "midi": 60,
      "hit": false,
      "t": 107181.7109999999,
      "d": 272.72699999999895,
      "v": 127
    },
    {
      "midi": 62,
      "hit": false,
      "t": 107181.7109999999,
      "d": 272.72699999999895,
      "v": 127
    },
    {
      "midi": 66,
      "hit": false,
      "t": 107181.7109999999,
      "d": 272.72699999999895,
      "v": 127
    },
    {
      "midi": 86,
      "hit": false,
      "t": 107181.71100000119,
      "d": 136.36350000000675,
      "v": 127
    },
    {
      "midi": 84,
      "hit": false,
      "t": 107318.0745000012,
      "d": 136.36350000000675,
      "v": 127
    },
    {
      "midi": 55,
      "hit": false,
      "t": 107454.4379999999,
      "d": 272.72699999999895,
      "v": 127
    },
    {
      "midi": 60,
      "hit": false,
      "t": 107454.4379999999,
      "d": 272.72699999999895,
      "v": 127
    },
    {
      "midi": 62,
      "hit": false,
      "t": 107454.4379999999,
      "d": 272.72699999999895,
      "v": 127
    },
    {
      "midi": 66,
      "hit": false,
      "t": 107454.4379999999,
      "d": 272.72699999999895,
      "v": 127
    },
    {
      "midi": 81,
      "hit": false,
      "t": 107454.4380000012,
      "d": 545.4539999999979,
      "v": 127
    },
    {
      "midi": 55,
      "hit": false,
      "t": 107727.16499999989,
      "d": 272.72699999999895,
      "v": 127
    },
    {
      "midi": 60,
      "hit": false,
      "t": 107727.16499999989,
      "d": 272.72699999999895,
      "v": 127
    },
    {
      "midi": 62,
      "hit": false,
      "t": 107727.16499999989,
      "d": 272.72699999999895,
      "v": 127
    },
    {
      "midi": 66,
      "hit": false,
      "t": 107727.16499999989,
      "d": 272.72699999999895,
      "v": 127
    },
    {
      "midi": 55,
      "hit": false,
      "t": 107999.89199999989,
      "d": 272.72699999999895,
      "v": 127
    },
    {
      "midi": 60,
      "hit": false,
      "t": 107999.89199999989,
      "d": 272.72699999999895,
      "v": 127
    },
    {
      "midi": 62,
      "hit": false,
      "t": 107999.89199999989,
      "d": 272.72699999999895,
      "v": 127
    },
    {
      "midi": 66,
      "hit": false,
      "t": 107999.89199999989,
      "d": 272.72699999999895,
      "v": 127
    },
    {
      "midi": 86,
      "hit": false,
      "t": 107999.8920000012,
      "d": 136.36350000000675,
      "v": 127
    },
    {
      "midi": 84,
      "hit": false,
      "t": 108136.2555000012,
      "d": 136.36350000000675,
      "v": 127
    },
    {
      "midi": 55,
      "hit": false,
      "t": 108272.61899999989,
      "d": 272.72699999999895,
      "v": 127
    },
    {
      "midi": 60,
      "hit": false,
      "t": 108272.61899999989,
      "d": 272.72699999999895,
      "v": 127
    },
    {
      "midi": 62,
      "hit": false,
      "t": 108272.61899999989,
      "d": 272.72699999999895,
      "v": 127
    },
    {
      "midi": 66,
      "hit": false,
      "t": 108272.61899999989,
      "d": 272.72699999999895,
      "v": 127
    },
    {
      "midi": 86,
      "hit": false,
      "t": 108272.61900000121,
      "d": 136.36350000000675,
      "v": 127
    },
    {
      "midi": 84,
      "hit": false,
      "t": 108408.98250000122,
      "d": 136.36350000000675,
      "v": 127
    },
    {
      "midi": 55,
      "hit": false,
      "t": 108545.34599999989,
      "d": 272.72699999999895,
      "v": 127
    },
    {
      "midi": 60,
      "hit": false,
      "t": 108545.34599999989,
      "d": 272.72699999999895,
      "v": 127
    },
    {
      "midi": 62,
      "hit": false,
      "t": 108545.34599999989,
      "d": 272.72699999999895,
      "v": 127
    },
    {
      "midi": 66,
      "hit": false,
      "t": 108545.34599999989,
      "d": 272.72699999999895,
      "v": 127
    },
    {
      "midi": 81,
      "hit": false,
      "t": 108545.34600000123,
      "d": 409.0905000000057,
      "v": 127
    },
    {
      "midi": 55,
      "hit": false,
      "t": 108818.07299999989,
      "d": 272.72699999999895,
      "v": 127
    },
    {
      "midi": 60,
      "hit": false,
      "t": 108818.07299999989,
      "d": 272.72699999999895,
      "v": 127
    },
    {
      "midi": 62,
      "hit": false,
      "t": 108818.07299999989,
      "d": 272.72699999999895,
      "v": 127
    },
    {
      "midi": 66,
      "hit": false,
      "t": 108818.07299999989,
      "d": 272.72699999999895,
      "v": 127
    },
    {
      "midi": 70,
      "hit": false,
      "t": 108954.43650000123,
      "d": 136.36350000000675,
      "v": 127
    },
    {
      "midi": 55,
      "hit": false,
      "t": 109090.79999999989,
      "d": 272.72699999999895,
      "v": 127
    },
    {
      "midi": 59,
      "hit": false,
      "t": 109090.79999999989,
      "d": 272.72699999999895,
      "v": 127
    },
    {
      "midi": 62,
      "hit": false,
      "t": 109090.79999999989,
      "d": 272.72699999999895,
      "v": 127
    },
    {
      "midi": 71,
      "hit": false,
      "t": 109090.80000000124,
      "d": 409.0905000000057,
      "v": 127
    },
    {
      "midi": 55,
      "hit": false,
      "t": 109363.52699999989,
      "d": 272.72699999999895,
      "v": 127
    },
    {
      "midi": 59,
      "hit": false,
      "t": 109363.52699999989,
      "d": 272.72699999999895,
      "v": 127
    },
    {
      "midi": 62,
      "hit": false,
      "t": 109363.52699999989,
      "d": 272.72699999999895,
      "v": 127
    },
    {
      "midi": 73,
      "hit": false,
      "t": 109499.89050000125,
      "d": 136.36350000000675,
      "v": 127
    },
    {
      "midi": 55,
      "hit": false,
      "t": 109636.25399999988,
      "d": 272.72699999999895,
      "v": 127
    },
    {
      "midi": 59,
      "hit": false,
      "t": 109636.25399999988,
      "d": 272.72699999999895,
      "v": 127
    },
    {
      "midi": 62,
      "hit": false,
      "t": 109636.25399999988,
      "d": 272.72699999999895,
      "v": 127
    },
    {
      "midi": 74,
      "hit": false,
      "t": 109636.25400000125,
      "d": 272.72699999999895,
      "v": 127
    },
    {
      "midi": 55,
      "hit": false,
      "t": 109908.98099999988,
      "d": 272.72699999999895,
      "v": 127
    },
    {
      "midi": 59,
      "hit": false,
      "t": 109908.98099999988,
      "d": 272.72699999999895,
      "v": 127
    },
    {
      "midi": 62,
      "hit": false,
      "t": 109908.98099999988,
      "d": 272.72699999999895,
      "v": 127
    },
    {
      "midi": 74,
      "hit": false,
      "t": 109908.98100000125,
      "d": 136.36350000000675,
      "v": 127
    },
    {
      "midi": 78,
      "hit": false,
      "t": 110045.34450000126,
      "d": 136.36350000000675,
      "v": 127
    },
    {
      "midi": 55,
      "hit": false,
      "t": 110181.70799999988,
      "d": 272.72699999999895,
      "v": 127
    },
    {
      "midi": 59,
      "hit": false,
      "t": 110181.70799999988,
      "d": 272.72699999999895,
      "v": 127
    },
    {
      "midi": 62,
      "hit": false,
      "t": 110181.70799999988,
      "d": 272.72699999999895,
      "v": 127
    },
    {
      "midi": 79,
      "hit": false,
      "t": 110181.70800000126,
      "d": 272.72699999999895,
      "v": 127
    },
    {
      "midi": 55,
      "hit": false,
      "t": 110454.43499999988,
      "d": 272.72699999999895,
      "v": 127
    },
    {
      "midi": 59,
      "hit": false,
      "t": 110454.43499999988,
      "d": 272.72699999999895,
      "v": 127
    },
    {
      "midi": 62,
      "hit": false,
      "t": 110454.43499999988,
      "d": 272.72699999999895,
      "v": 127
    },
    {
      "midi": 79,
      "hit": false,
      "t": 110454.43500000126,
      "d": 136.36350000000675,
      "v": 127
    },
    {
      "midi": 82,
      "hit": false,
      "t": 110590.79850000127,
      "d": 136.36350000000675,
      "v": 127
    },
    {
      "midi": 55,
      "hit": false,
      "t": 110727.16199999988,
      "d": 272.72699999999895,
      "v": 127
    },
    {
      "midi": 59,
      "hit": false,
      "t": 110727.16199999988,
      "d": 272.72699999999895,
      "v": 127
    },
    {
      "midi": 62,
      "hit": false,
      "t": 110727.16199999988,
      "d": 272.72699999999895,
      "v": 127
    },
    {
      "midi": 83,
      "hit": false,
      "t": 110727.16200000128,
      "d": 545.4539999999979,
      "v": 127
    },
    {
      "midi": 55,
      "hit": false,
      "t": 110999.88899999988,
      "d": 272.72699999999895,
      "v": 127
    },
    {
      "midi": 59,
      "hit": false,
      "t": 110999.88899999988,
      "d": 272.72699999999895,
      "v": 127
    },
    {
      "midi": 62,
      "hit": false,
      "t": 110999.88899999988,
      "d": 272.72699999999895,
      "v": 127
    },
    {
      "midi": 55,
      "hit": false,
      "t": 111272.61599999988,
      "d": 272.72699999999895,
      "v": 127
    },
    {
      "midi": 60,
      "hit": false,
      "t": 111272.61599999988,
      "d": 272.72699999999895,
      "v": 127
    },
    {
      "midi": 62,
      "hit": false,
      "t": 111272.61599999988,
      "d": 272.72699999999895,
      "v": 127
    },
    {
      "midi": 66,
      "hit": false,
      "t": 111272.61599999988,
      "d": 272.72699999999895,
      "v": 127
    },
    {
      "midi": 86,
      "hit": false,
      "t": 111272.61600000128,
      "d": 136.36350000000675,
      "v": 127
    },
    {
      "midi": 84,
      "hit": false,
      "t": 111408.97950000128,
      "d": 136.36350000000675,
      "v": 127
    },
    {
      "midi": 55,
      "hit": false,
      "t": 111545.34299999988,
      "d": 272.72699999999895,
      "v": 127
    },
    {
      "midi": 60,
      "hit": false,
      "t": 111545.34299999988,
      "d": 272.72699999999895,
      "v": 127
    },
    {
      "midi": 62,
      "hit": false,
      "t": 111545.34299999988,
      "d": 272.72699999999895,
      "v": 127
    },
    {
      "midi": 66,
      "hit": false,
      "t": 111545.34299999988,
      "d": 272.72699999999895,
      "v": 127
    },
    {
      "midi": 86,
      "hit": false,
      "t": 111545.34300000129,
      "d": 136.36350000000675,
      "v": 127
    },
    {
      "midi": 84,
      "hit": false,
      "t": 111681.7065000013,
      "d": 136.36350000000675,
      "v": 127
    },
    {
      "midi": 55,
      "hit": false,
      "t": 111818.06999999988,
      "d": 272.72699999999895,
      "v": 127
    },
    {
      "midi": 60,
      "hit": false,
      "t": 111818.06999999988,
      "d": 272.72699999999895,
      "v": 127
    },
    {
      "midi": 62,
      "hit": false,
      "t": 111818.06999999988,
      "d": 272.72699999999895,
      "v": 127
    },
    {
      "midi": 66,
      "hit": false,
      "t": 111818.06999999988,
      "d": 272.72699999999895,
      "v": 127
    },
    {
      "midi": 81,
      "hit": false,
      "t": 111818.0700000013,
      "d": 272.72699999999895,
      "v": 127
    },
    {
      "midi": 55,
      "hit": false,
      "t": 112090.79699999987,
      "d": 272.72699999999895,
      "v": 127
    },
    {
      "midi": 60,
      "hit": false,
      "t": 112090.79699999987,
      "d": 272.72699999999895,
      "v": 127
    },
    {
      "midi": 62,
      "hit": false,
      "t": 112090.79699999987,
      "d": 272.72699999999895,
      "v": 127
    },
    {
      "midi": 66,
      "hit": false,
      "t": 112090.79699999987,
      "d": 272.72699999999895,
      "v": 127
    },
    {
      "midi": 81,
      "hit": false,
      "t": 112090.7970000013,
      "d": 136.36350000000675,
      "v": 127
    },
    {
      "midi": 83,
      "hit": false,
      "t": 112227.16050000131,
      "d": 136.36350000000675,
      "v": 127
    },
    {
      "midi": 55,
      "hit": false,
      "t": 112363.52399999987,
      "d": 272.72699999999895,
      "v": 127
    },
    {
      "midi": 59,
      "hit": false,
      "t": 112363.52399999987,
      "d": 272.72699999999895,
      "v": 127
    },
    {
      "midi": 62,
      "hit": false,
      "t": 112363.52399999987,
      "d": 272.72699999999895,
      "v": 127
    },
    {
      "midi": 67,
      "hit": false,
      "t": 112363.52399999987,
      "d": 272.72699999999895,
      "v": 127
    },
    {
      "midi": 79,
      "hit": false,
      "t": 112363.52400000131,
      "d": 545.4539999999979,
      "v": 127
    },
    {
      "midi": 55,
      "hit": false,
      "t": 112636.25099999987,
      "d": 272.72699999999895,
      "v": 127
    },
    {
      "midi": 59,
      "hit": false,
      "t": 112636.25099999987,
      "d": 272.72699999999895,
      "v": 127
    },
    {
      "midi": 55,
      "hit": false,
      "t": 112908.97799999987,
      "d": 272.72699999999895,
      "v": 127
    },
    {
      "midi": 59,
      "hit": false,
      "t": 112908.97799999987,
      "d": 272.72699999999895,
      "v": 127
    },
    {
      "midi": 55,
      "hit": false,
      "t": 113181.70499999987,
      "d": 272.72699999999895,
      "v": 127
    },
    {
      "midi": 59,
      "hit": false,
      "t": 113181.70499999987,
      "d": 272.72699999999895,
      "v": 127
    },
    {
      "midi": 52,
      "hit": false,
      "t": 113454.43199999987,
      "d": 272.72699999999895,
      "v": 127
    },
    {
      "midi": 55,
      "hit": false,
      "t": 113454.43199999987,
      "d": 272.72699999999895,
      "v": 127
    },
    {
      "midi": 59,
      "hit": false,
      "t": 113454.43199999987,
      "d": 272.72699999999895,
      "v": 127
    },
    {
      "midi": 83,
      "hit": false,
      "t": 113454.43200000131,
      "d": 136.36350000000675,
      "v": 127
    },
    {
      "midi": 81,
      "hit": false,
      "t": 113590.79550000132,
      "d": 136.36350000000675,
      "v": 127
    },
    {
      "midi": 52,
      "hit": false,
      "t": 113727.15899999987,
      "d": 272.72699999999895,
      "v": 127
    },
    {
      "midi": 55,
      "hit": false,
      "t": 113727.15899999987,
      "d": 272.72699999999895,
      "v": 127
    },
    {
      "midi": 59,
      "hit": false,
      "t": 113727.15899999987,
      "d": 272.72699999999895,
      "v": 127
    },
    {
      "midi": 79,
      "hit": false,
      "t": 113727.15900000132,
      "d": 136.36350000000675,
      "v": 127
    },
    {
      "midi": 78,
      "hit": false,
      "t": 113863.52250000133,
      "d": 136.36350000000675,
      "v": 127
    },
    {
      "midi": 52,
      "hit": false,
      "t": 113999.88599999987,
      "d": 272.72699999999895,
      "v": 127
    },
    {
      "midi": 55,
      "hit": false,
      "t": 113999.88599999987,
      "d": 272.72699999999895,
      "v": 127
    },
    {
      "midi": 59,
      "hit": false,
      "t": 113999.88599999987,
      "d": 272.72699999999895,
      "v": 127
    },
    {
      "midi": 76,
      "hit": false,
      "t": 113999.88600000134,
      "d": 136.36350000000675,
      "v": 127
    },
    {
      "midi": 78,
      "hit": false,
      "t": 114136.24950000134,
      "d": 136.36350000000675,
      "v": 127
    },
    {
      "midi": 52,
      "hit": false,
      "t": 114272.61299999987,
      "d": 272.72699999999895,
      "v": 127
    },
    {
      "midi": 55,
      "hit": false,
      "t": 114272.61299999987,
      "d": 272.72699999999895,
      "v": 127
    },
    {
      "midi": 59,
      "hit": false,
      "t": 114272.61299999987,
      "d": 272.72699999999895,
      "v": 127
    },
    {
      "midi": 79,
      "hit": false,
      "t": 114272.61300000135,
      "d": 136.36350000000675,
      "v": 127
    },
    {
      "midi": 81,
      "hit": false,
      "t": 114408.97650000136,
      "d": 136.36350000000675,
      "v": 127
    },
    {
      "midi": 52,
      "hit": false,
      "t": 114545.33999999987,
      "d": 272.72699999999895,
      "v": 127
    },
    {
      "midi": 55,
      "hit": false,
      "t": 114545.33999999987,
      "d": 272.72699999999895,
      "v": 127
    },
    {
      "midi": 59,
      "hit": false,
      "t": 114545.33999999987,
      "d": 272.72699999999895,
      "v": 127
    },
    {
      "midi": 83,
      "hit": false,
      "t": 114545.34000000136,
      "d": 272.72699999999895,
      "v": 127
    },
    {
      "midi": 52,
      "hit": false,
      "t": 114818.06699999986,
      "d": 272.72699999999895,
      "v": 127
    },
    {
      "midi": 55,
      "hit": false,
      "t": 114818.06699999986,
      "d": 272.72699999999895,
      "v": 127
    },
    {
      "midi": 59,
      "hit": false,
      "t": 114818.06699999986,
      "d": 272.72699999999895,
      "v": 127
    },
    {
      "midi": 83,
      "hit": false,
      "t": 114818.06700000136,
      "d": 272.72699999999895,
      "v": 127
    },
    {
      "midi": 52,
      "hit": false,
      "t": 115090.79399999986,
      "d": 272.72699999999895,
      "v": 127
    },
    {
      "midi": 55,
      "hit": false,
      "t": 115090.79399999986,
      "d": 272.72699999999895,
      "v": 127
    },
    {
      "midi": 59,
      "hit": false,
      "t": 115090.79399999986,
      "d": 272.72699999999895,
      "v": 127
    },
    {
      "midi": 88,
      "hit": false,
      "t": 115090.79400000136,
      "d": 545.4539999999979,
      "v": 127
    },
    {
      "midi": 52,
      "hit": false,
      "t": 115363.52099999986,
      "d": 272.72699999999895,
      "v": 127
    },
    {
      "midi": 55,
      "hit": false,
      "t": 115363.52099999986,
      "d": 272.72699999999895,
      "v": 127
    },
    {
      "midi": 59,
      "hit": false,
      "t": 115363.52099999986,
      "d": 272.72699999999895,
      "v": 127
    },
    {
      "midi": 47,
      "hit": false,
      "t": 115636.24799999986,
      "d": 272.72699999999895,
      "v": 127
    },
    {
      "midi": 54,
      "hit": false,
      "t": 115636.24799999986,
      "d": 272.72699999999895,
      "v": 127
    },
    {
      "midi": 57,
      "hit": false,
      "t": 115636.24799999986,
      "d": 272.72699999999895,
      "v": 127
    },
    {
      "midi": 59,
      "hit": false,
      "t": 115636.24799999986,
      "d": 272.72699999999895,
      "v": 127
    },
    {
      "midi": 88,
      "hit": false,
      "t": 115636.24800000136,
      "d": 136.36350000000675,
      "v": 127
    },
    {
      "midi": 87,
      "hit": false,
      "t": 115772.61150000137,
      "d": 136.36350000000675,
      "v": 127
    },
    {
      "midi": 47,
      "hit": false,
      "t": 115908.97499999986,
      "d": 272.72699999999895,
      "v": 127
    },
    {
      "midi": 54,
      "hit": false,
      "t": 115908.97499999986,
      "d": 272.72699999999895,
      "v": 127
    },
    {
      "midi": 57,
      "hit": false,
      "t": 115908.97499999986,
      "d": 272.72699999999895,
      "v": 127
    },
    {
      "midi": 59,
      "hit": false,
      "t": 115908.97499999986,
      "d": 272.72699999999895,
      "v": 127
    },
    {
      "midi": 88,
      "hit": false,
      "t": 115908.97500000137,
      "d": 136.36350000000675,
      "v": 127
    },
    {
      "midi": 87,
      "hit": false,
      "t": 116045.33850000138,
      "d": 136.36350000000675,
      "v": 127
    },
    {
      "midi": 47,
      "hit": false,
      "t": 116181.70199999986,
      "d": 272.72699999999895,
      "v": 127
    },
    {
      "midi": 54,
      "hit": false,
      "t": 116181.70199999986,
      "d": 272.72699999999895,
      "v": 127
    },
    {
      "midi": 57,
      "hit": false,
      "t": 116181.70199999986,
      "d": 272.72699999999895,
      "v": 127
    },
    {
      "midi": 59,
      "hit": false,
      "t": 116181.70199999986,
      "d": 272.72699999999895,
      "v": 127
    },
    {
      "midi": 83,
      "hit": false,
      "t": 116181.70200000139,
      "d": 545.4539999999979,
      "v": 127
    },
    {
      "midi": 47,
      "hit": false,
      "t": 116454.42899999986,
      "d": 272.72699999999895,
      "v": 127
    },
    {
      "midi": 54,
      "hit": false,
      "t": 116454.42899999986,
      "d": 272.72699999999895,
      "v": 127
    },
    {
      "midi": 57,
      "hit": false,
      "t": 116454.42899999986,
      "d": 272.72699999999895,
      "v": 127
    },
    {
      "midi": 59,
      "hit": false,
      "t": 116454.42899999986,
      "d": 272.72699999999895,
      "v": 127
    },
    {
      "midi": 47,
      "hit": false,
      "t": 116727.15599999986,
      "d": 272.72699999999895,
      "v": 127
    },
    {
      "midi": 54,
      "hit": false,
      "t": 116727.15599999986,
      "d": 272.72699999999895,
      "v": 127
    },
    {
      "midi": 57,
      "hit": false,
      "t": 116727.15599999986,
      "d": 272.72699999999895,
      "v": 127
    },
    {
      "midi": 59,
      "hit": false,
      "t": 116727.15599999986,
      "d": 272.72699999999895,
      "v": 127
    },
    {
      "midi": 88,
      "hit": false,
      "t": 116727.15600000139,
      "d": 136.36350000000675,
      "v": 127
    },
    {
      "midi": 87,
      "hit": false,
      "t": 116863.51950000139,
      "d": 136.36350000000675,
      "v": 127
    },
    {
      "midi": 47,
      "hit": false,
      "t": 116999.88299999986,
      "d": 272.72699999999895,
      "v": 127
    },
    {
      "midi": 54,
      "hit": false,
      "t": 116999.88299999986,
      "d": 272.72699999999895,
      "v": 127
    },
    {
      "midi": 57,
      "hit": false,
      "t": 116999.88299999986,
      "d": 272.72699999999895,
      "v": 127
    },
    {
      "midi": 59,
      "hit": false,
      "t": 116999.88299999986,
      "d": 272.72699999999895,
      "v": 127
    },
    {
      "midi": 88,
      "hit": false,
      "t": 116999.8830000014,
      "d": 136.36350000000675,
      "v": 127
    },
    {
      "midi": 87,
      "hit": false,
      "t": 117136.2465000014,
      "d": 136.36350000000675,
      "v": 127
    },
    {
      "midi": 47,
      "hit": false,
      "t": 117272.60999999986,
      "d": 272.72699999999895,
      "v": 127
    },
    {
      "midi": 54,
      "hit": false,
      "t": 117272.60999999986,
      "d": 272.72699999999895,
      "v": 127
    },
    {
      "midi": 57,
      "hit": false,
      "t": 117272.60999999986,
      "d": 272.72699999999895,
      "v": 127
    },
    {
      "midi": 59,
      "hit": false,
      "t": 117272.60999999986,
      "d": 272.72699999999895,
      "v": 127
    },
    {
      "midi": 83,
      "hit": false,
      "t": 117272.61000000141,
      "d": 545.4539999999979,
      "v": 127
    },
    {
      "midi": 47,
      "hit": false,
      "t": 117545.33699999985,
      "d": 272.72699999999895,
      "v": 127
    },
    {
      "midi": 54,
      "hit": false,
      "t": 117545.33699999985,
      "d": 272.72699999999895,
      "v": 127
    },
    {
      "midi": 57,
      "hit": false,
      "t": 117545.33699999985,
      "d": 272.72699999999895,
      "v": 127
    },
    {
      "midi": 59,
      "hit": false,
      "t": 117545.33699999985,
      "d": 272.72699999999895,
      "v": 127
    },
    {
      "midi": 52,
      "hit": false,
      "t": 117818.06399999985,
      "d": 272.72699999999895,
      "v": 127
    },
    {
      "midi": 55,
      "hit": false,
      "t": 117818.06399999985,
      "d": 272.72699999999895,
      "v": 127
    },
    {
      "midi": 59,
      "hit": false,
      "t": 117818.06399999985,
      "d": 272.72699999999895,
      "v": 127
    },
    {
      "midi": 83,
      "hit": false,
      "t": 117818.06400000141,
      "d": 136.36350000000675,
      "v": 127
    },
    {
      "midi": 81,
      "hit": false,
      "t": 117954.42750000142,
      "d": 136.36350000000675,
      "v": 127
    },
    {
      "midi": 52,
      "hit": false,
      "t": 118090.79099999985,
      "d": 272.72699999999895,
      "v": 127
    },
    {
      "midi": 55,
      "hit": false,
      "t": 118090.79099999985,
      "d": 272.72699999999895,
      "v": 127
    },
    {
      "midi": 59,
      "hit": false,
      "t": 118090.79099999985,
      "d": 272.72699999999895,
      "v": 127
    },
    {
      "midi": 79,
      "hit": false,
      "t": 118090.79100000142,
      "d": 136.36350000000675,
      "v": 127
    },
    {
      "midi": 78,
      "hit": false,
      "t": 118227.15450000143,
      "d": 136.36350000000675,
      "v": 127
    },
    {
      "midi": 52,
      "hit": false,
      "t": 118363.51799999985,
      "d": 272.72699999999895,
      "v": 127
    },
    {
      "midi": 55,
      "hit": false,
      "t": 118363.51799999985,
      "d": 272.72699999999895,
      "v": 127
    },
    {
      "midi": 59,
      "hit": false,
      "t": 118363.51799999985,
      "d": 272.72699999999895,
      "v": 127
    },
    {
      "midi": 76,
      "hit": false,
      "t": 118363.51800000144,
      "d": 136.36350000000675,
      "v": 127
    },
    {
      "midi": 78,
      "hit": false,
      "t": 118499.88150000144,
      "d": 136.36350000000675,
      "v": 127
    },
    {
      "midi": 52,
      "hit": false,
      "t": 118636.24499999985,
      "d": 272.72699999999895,
      "v": 127
    },
    {
      "midi": 55,
      "hit": false,
      "t": 118636.24499999985,
      "d": 272.72699999999895,
      "v": 127
    },
    {
      "midi": 59,
      "hit": false,
      "t": 118636.24499999985,
      "d": 272.72699999999895,
      "v": 127
    },
    {
      "midi": 79,
      "hit": false,
      "t": 118636.24500000145,
      "d": 136.36350000000675,
      "v": 127
    },
    {
      "midi": 81,
      "hit": false,
      "t": 118772.60850000146,
      "d": 136.36350000000675,
      "v": 127
    },
    {
      "midi": 52,
      "hit": false,
      "t": 118908.97199999985,
      "d": 272.72699999999895,
      "v": 127
    },
    {
      "midi": 55,
      "hit": false,
      "t": 118908.97199999985,
      "d": 272.72699999999895,
      "v": 127
    },
    {
      "midi": 59,
      "hit": false,
      "t": 118908.97199999985,
      "d": 272.72699999999895,
      "v": 127
    },
    {
      "midi": 83,
      "hit": false,
      "t": 118908.97200000146,
      "d": 272.72699999999895,
      "v": 127
    },
    {
      "midi": 52,
      "hit": false,
      "t": 119181.69899999985,
      "d": 272.72699999999895,
      "v": 127
    },
    {
      "midi": 55,
      "hit": false,
      "t": 119181.69899999985,
      "d": 272.72699999999895,
      "v": 127
    },
    {
      "midi": 59,
      "hit": false,
      "t": 119181.69899999985,
      "d": 272.72699999999895,
      "v": 127
    },
    {
      "midi": 83,
      "hit": false,
      "t": 119181.69900000146,
      "d": 272.72699999999895,
      "v": 127
    },
    {
      "midi": 52,
      "hit": false,
      "t": 119454.42599999985,
      "d": 272.72699999999895,
      "v": 127
    },
    {
      "midi": 55,
      "hit": false,
      "t": 119454.42599999985,
      "d": 272.72699999999895,
      "v": 127
    },
    {
      "midi": 59,
      "hit": false,
      "t": 119454.42599999985,
      "d": 272.72699999999895,
      "v": 127
    },
    {
      "midi": 88,
      "hit": false,
      "t": 119454.42600000146,
      "d": 545.4539999999979,
      "v": 127
    },
    {
      "midi": 52,
      "hit": false,
      "t": 119727.15299999985,
      "d": 272.72699999999895,
      "v": 127
    },
    {
      "midi": 55,
      "hit": false,
      "t": 119727.15299999985,
      "d": 272.72699999999895,
      "v": 127
    },
    {
      "midi": 59,
      "hit": false,
      "t": 119727.15299999985,
      "d": 272.72699999999895,
      "v": 127
    },
    {
      "midi": 45,
      "hit": false,
      "t": 119999.87999999984,
      "d": 272.72699999999895,
      "v": 127
    },
    {
      "midi": 52,
      "hit": false,
      "t": 119999.87999999984,
      "d": 272.72699999999895,
      "v": 127
    },
    {
      "midi": 55,
      "hit": false,
      "t": 119999.87999999984,
      "d": 272.72699999999895,
      "v": 127
    },
    {
      "midi": 57,
      "hit": false,
      "t": 119999.87999999984,
      "d": 272.72699999999895,
      "v": 127
    },
    {
      "midi": 85,
      "hit": false,
      "t": 119999.88000000146,
      "d": 818.1809999999969,
      "v": 127
    },
    {
      "midi": 45,
      "hit": false,
      "t": 120272.60699999984,
      "d": 272.72699999999895,
      "v": 127
    },
    {
      "midi": 52,
      "hit": false,
      "t": 120272.60699999984,
      "d": 272.72699999999895,
      "v": 127
    },
    {
      "midi": 55,
      "hit": false,
      "t": 120272.60699999984,
      "d": 272.72699999999895,
      "v": 127
    },
    {
      "midi": 57,
      "hit": false,
      "t": 120272.60699999984,
      "d": 272.72699999999895,
      "v": 127
    },
    {
      "midi": 45,
      "hit": false,
      "t": 120545.33399999984,
      "d": 272.72699999999895,
      "v": 127
    },
    {
      "midi": 52,
      "hit": false,
      "t": 120545.33399999984,
      "d": 272.72699999999895,
      "v": 127
    },
    {
      "midi": 55,
      "hit": false,
      "t": 120545.33399999984,
      "d": 272.72699999999895,
      "v": 127
    },
    {
      "midi": 57,
      "hit": false,
      "t": 120545.33399999984,
      "d": 272.72699999999895,
      "v": 127
    },
    {
      "midi": 45,
      "hit": false,
      "t": 120818.06099999984,
      "d": 272.72699999999895,
      "v": 127
    },
    {
      "midi": 52,
      "hit": false,
      "t": 120818.06099999984,
      "d": 272.72699999999895,
      "v": 127
    },
    {
      "midi": 55,
      "hit": false,
      "t": 120818.06099999984,
      "d": 272.72699999999895,
      "v": 127
    },
    {
      "midi": 57,
      "hit": false,
      "t": 120818.06099999984,
      "d": 272.72699999999895,
      "v": 127
    },
    {
      "midi": 83,
      "hit": false,
      "t": 120818.06100000146,
      "d": 272.72699999999895,
      "v": 127
    },
    {
      "midi": 50,
      "hit": false,
      "t": 121090.78799999984,
      "d": 272.72699999999895,
      "v": 127
    },
    {
      "midi": 54,
      "hit": false,
      "t": 121090.78799999984,
      "d": 272.72699999999895,
      "v": 127
    },
    {
      "midi": 57,
      "hit": false,
      "t": 121090.78799999984,
      "d": 272.72699999999895,
      "v": 127
    },
    {
      "midi": 86,
      "hit": false,
      "t": 121090.78800000146,
      "d": 545.4539999999979,
      "v": 127
    },
    {
      "midi": 50,
      "hit": false,
      "t": 121363.51499999984,
      "d": 272.72699999999895,
      "v": 127
    },
    {
      "midi": 54,
      "hit": false,
      "t": 121363.51499999984,
      "d": 272.72699999999895,
      "v": 127
    },
    {
      "midi": 57,
      "hit": false,
      "t": 121363.51499999984,
      "d": 272.72699999999895,
      "v": 127
    },
    {
      "midi": 50,
      "hit": false,
      "t": 121636.24199999984,
      "d": 272.72699999999895,
      "v": 127
    },
    {
      "midi": 54,
      "hit": false,
      "t": 121636.24199999984,
      "d": 272.72699999999895,
      "v": 127
    },
    {
      "midi": 57,
      "hit": false,
      "t": 121636.24199999984,
      "d": 272.72699999999895,
      "v": 127
    },
    {
      "midi": 74,
      "hit": false,
      "t": 121636.24200000145,
      "d": 545.4539999999979,
      "v": 127
    },
    {
      "midi": 50,
      "hit": false,
      "t": 121908.96899999984,
      "d": 272.72699999999895,
      "v": 127
    },
    {
      "midi": 54,
      "hit": false,
      "t": 121908.96899999984,
      "d": 272.72699999999895,
      "v": 127
    },
    {
      "midi": 57,
      "hit": false,
      "t": 121908.96899999984,
      "d": 272.72699999999895,
      "v": 127
    },
    {
      "midi": 43,
      "hit": false,
      "t": 122181.69599999984,
      "d": 272.72699999999895,
      "v": 127
    },
    {
      "midi": 47,
      "hit": false,
      "t": 122181.69599999984,
      "d": 272.72699999999895,
      "v": 127
    },
    {
      "midi": 50,
      "hit": false,
      "t": 122181.69599999984,
      "d": 272.72699999999895,
      "v": 127
    },
    {
      "midi": 55,
      "hit": false,
      "t": 122181.69599999984,
      "d": 272.72699999999895,
      "v": 127
    },
    {
      "midi": 70,
      "hit": false,
      "t": 122181.69600000145,
      "d": 136.36350000000675,
      "v": 127
    },
    {
      "midi": 71,
      "hit": false,
      "t": 122318.05950000146,
      "d": 136.36350000000675,
      "v": 127
    },
    {
      "midi": 43,
      "hit": false,
      "t": 122454.42299999984,
      "d": 272.72699999999895,
      "v": 127
    },
    {
      "midi": 47,
      "hit": false,
      "t": 122454.42299999984,
      "d": 272.72699999999895,
      "v": 127
    },
    {
      "midi": 50,
      "hit": false,
      "t": 122454.42299999984,
      "d": 272.72699999999895,
      "v": 127
    },
    {
      "midi": 55,
      "hit": false,
      "t": 122454.42299999984,
      "d": 272.72699999999895,
      "v": 127
    },
    {
      "midi": 70,
      "hit": false,
      "t": 122454.42300000146,
      "d": 136.36350000000675,
      "v": 127
    },
    {
      "midi": 71,
      "hit": false,
      "t": 122590.78650000147,
      "d": 136.36350000000675,
      "v": 127
    },
    {
      "midi": 43,
      "hit": false,
      "t": 122727.14999999983,
      "d": 272.72699999999895,
      "v": 127
    },
    {
      "midi": 47,
      "hit": false,
      "t": 122727.14999999983,
      "d": 272.72699999999895,
      "v": 127
    },
    {
      "midi": 50,
      "hit": false,
      "t": 122727.14999999983,
      "d": 272.72699999999895,
      "v": 127
    },
    {
      "midi": 55,
      "hit": false,
      "t": 122727.14999999983,
      "d": 272.72699999999895,
      "v": 127
    },
    {
      "midi": 73,
      "hit": false,
      "t": 122727.15000000148,
      "d": 136.36350000000675,
      "v": 127
    },
    {
      "midi": 74,
      "hit": false,
      "t": 122863.51350000149,
      "d": 136.36350000000675,
      "v": 127
    },
    {
      "midi": 43,
      "hit": false,
      "t": 122999.87699999983,
      "d": 272.72699999999895,
      "v": 127
    },
    {
      "midi": 47,
      "hit": false,
      "t": 122999.87699999983,
      "d": 272.72699999999895,
      "v": 127
    },
    {
      "midi": 50,
      "hit": false,
      "t": 122999.87699999983,
      "d": 272.72699999999895,
      "v": 127
    },
    {
      "midi": 55,
      "hit": false,
      "t": 122999.87699999983,
      "d": 272.72699999999895,
      "v": 127
    },
    {
      "midi": 73,
      "hit": false,
      "t": 122999.87700000149,
      "d": 136.36350000000675,
      "v": 127
    },
    {
      "midi": 74,
      "hit": false,
      "t": 123136.2405000015,
      "d": 136.36350000000675,
      "v": 127
    },
    {
      "midi": 43,
      "hit": false,
      "t": 123272.60399999983,
      "d": 272.72699999999895,
      "v": 127
    },
    {
      "midi": 47,
      "hit": false,
      "t": 123272.60399999983,
      "d": 272.72699999999895,
      "v": 127
    },
    {
      "midi": 50,
      "hit": false,
      "t": 123272.60399999983,
      "d": 272.72699999999895,
      "v": 127
    },
    {
      "midi": 55,
      "hit": false,
      "t": 123272.60399999983,
      "d": 272.72699999999895,
      "v": 127
    },
    {
      "midi": 78,
      "hit": false,
      "t": 123272.6040000015,
      "d": 136.36350000000675,
      "v": 127
    },
    {
      "midi": 79,
      "hit": false,
      "t": 123408.96750000151,
      "d": 136.36350000000675,
      "v": 127
    },
    {
      "midi": 43,
      "hit": false,
      "t": 123545.33099999983,
      "d": 272.72699999999895,
      "v": 127
    },
    {
      "midi": 47,
      "hit": false,
      "t": 123545.33099999983,
      "d": 272.72699999999895,
      "v": 127
    },
    {
      "midi": 50,
      "hit": false,
      "t": 123545.33099999983,
      "d": 272.72699999999895,
      "v": 127
    },
    {
      "midi": 55,
      "hit": false,
      "t": 123545.33099999983,
      "d": 272.72699999999895,
      "v": 127
    },
    {
      "midi": 78,
      "hit": false,
      "t": 123545.33100000152,
      "d": 136.36350000000675,
      "v": 127
    },
    {
      "midi": 79,
      "hit": false,
      "t": 123681.69450000153,
      "d": 136.36350000000675,
      "v": 127
    },
    {
      "midi": 43,
      "hit": false,
      "t": 123818.05799999983,
      "d": 272.72699999999895,
      "v": 127
    },
    {
      "midi": 47,
      "hit": false,
      "t": 123818.05799999983,
      "d": 272.72699999999895,
      "v": 127
    },
    {
      "midi": 50,
      "hit": false,
      "t": 123818.05799999983,
      "d": 272.72699999999895,
      "v": 127
    },
    {
      "midi": 55,
      "hit": false,
      "t": 123818.05799999983,
      "d": 272.72699999999895,
      "v": 127
    },
    {
      "midi": 82,
      "hit": false,
      "t": 123818.05800000153,
      "d": 136.36350000000675,
      "v": 127
    },
    {
      "midi": 83,
      "hit": false,
      "t": 123954.42150000154,
      "d": 136.36350000000675,
      "v": 127
    },
    {
      "midi": 43,
      "hit": false,
      "t": 124090.78499999983,
      "d": 272.72699999999895,
      "v": 127
    },
    {
      "midi": 47,
      "hit": false,
      "t": 124090.78499999983,
      "d": 272.72699999999895,
      "v": 127
    },
    {
      "midi": 50,
      "hit": false,
      "t": 124090.78499999983,
      "d": 272.72699999999895,
      "v": 127
    },
    {
      "midi": 55,
      "hit": false,
      "t": 124090.78499999983,
      "d": 272.72699999999895,
      "v": 127
    },
    {
      "midi": 82,
      "hit": false,
      "t": 124090.78500000155,
      "d": 136.36350000000675,
      "v": 127
    },
    {
      "midi": 83,
      "hit": false,
      "t": 124227.14850000155,
      "d": 136.36350000000675,
      "v": 127
    },
    {
      "midi": 43,
      "hit": false,
      "t": 124363.51199999983,
      "d": 272.72699999999895,
      "v": 127
    },
    {
      "midi": 48,
      "hit": false,
      "t": 124363.51199999983,
      "d": 272.72699999999895,
      "v": 127
    },
    {
      "midi": 50,
      "hit": false,
      "t": 124363.51199999983,
      "d": 272.72699999999895,
      "v": 127
    },
    {
      "midi": 54,
      "hit": false,
      "t": 124363.51199999983,
      "d": 272.72699999999895,
      "v": 127
    },
    {
      "midi": 86,
      "hit": false,
      "t": 124363.51200000156,
      "d": 136.36350000000675,
      "v": 127
    },
    {
      "midi": 85,
      "hit": false,
      "t": 124499.87550000157,
      "d": 136.36350000000675,
      "v": 127
    },
    {
      "midi": 43,
      "hit": false,
      "t": 124636.23899999983,
      "d": 272.72699999999895,
      "v": 127
    },
    {
      "midi": 48,
      "hit": false,
      "t": 124636.23899999983,
      "d": 272.72699999999895,
      "v": 127
    },
    {
      "midi": 50,
      "hit": false,
      "t": 124636.23899999983,
      "d": 272.72699999999895,
      "v": 127
    },
    {
      "midi": 54,
      "hit": false,
      "t": 124636.23899999983,
      "d": 272.72699999999895,
      "v": 127
    },
    {
      "midi": 84,
      "hit": false,
      "t": 124636.23900000157,
      "d": 136.36350000000675,
      "v": 127
    },
    {
      "midi": 83,
      "hit": false,
      "t": 124772.60250000158,
      "d": 136.36350000000675,
      "v": 127
    },
    {
      "midi": 43,
      "hit": false,
      "t": 124908.96599999983,
      "d": 272.72699999999895,
      "v": 127
    },
    {
      "midi": 48,
      "hit": false,
      "t": 124908.96599999983,
      "d": 272.72699999999895,
      "v": 127
    },
    {
      "midi": 50,
      "hit": false,
      "t": 124908.96599999983,
      "d": 272.72699999999895,
      "v": 127
    },
    {
      "midi": 54,
      "hit": false,
      "t": 124908.96599999983,
      "d": 272.72699999999895,
      "v": 127
    },
    {
      "midi": 81,
      "hit": false,
      "t": 124908.96600000159,
      "d": 545.4539999999979,
      "v": 127
    },
    {
      "midi": 43,
      "hit": false,
      "t": 125181.69299999982,
      "d": 272.72699999999895,
      "v": 127
    },
    {
      "midi": 48,
      "hit": false,
      "t": 125181.69299999982,
      "d": 272.72699999999895,
      "v": 127
    },
    {
      "midi": 50,
      "hit": false,
      "t": 125181.69299999982,
      "d": 272.72699999999895,
      "v": 127
    },
    {
      "midi": 54,
      "hit": false,
      "t": 125181.69299999982,
      "d": 272.72699999999895,
      "v": 127
    },
    {
      "midi": 43,
      "hit": false,
      "t": 125454.41999999982,
      "d": 272.72699999999895,
      "v": 127
    },
    {
      "midi": 48,
      "hit": false,
      "t": 125454.41999999982,
      "d": 272.72699999999895,
      "v": 127
    },
    {
      "midi": 50,
      "hit": false,
      "t": 125454.41999999982,
      "d": 272.72699999999895,
      "v": 127
    },
    {
      "midi": 54,
      "hit": false,
      "t": 125454.41999999982,
      "d": 272.72699999999895,
      "v": 127
    },
    {
      "midi": 86,
      "hit": false,
      "t": 125454.42000000158,
      "d": 136.36350000000675,
      "v": 127
    },
    {
      "midi": 85,
      "hit": false,
      "t": 125590.78350000159,
      "d": 136.36350000000675,
      "v": 127
    },
    {
      "midi": 43,
      "hit": false,
      "t": 125727.14699999982,
      "d": 272.72699999999895,
      "v": 127
    },
    {
      "midi": 48,
      "hit": false,
      "t": 125727.14699999982,
      "d": 272.72699999999895,
      "v": 127
    },
    {
      "midi": 50,
      "hit": false,
      "t": 125727.14699999982,
      "d": 272.72699999999895,
      "v": 127
    },
    {
      "midi": 54,
      "hit": false,
      "t": 125727.14699999982,
      "d": 272.72699999999895,
      "v": 127
    },
    {
      "midi": 84,
      "hit": false,
      "t": 125727.1470000016,
      "d": 136.36350000000675,
      "v": 127
    },
    {
      "midi": 83,
      "hit": false,
      "t": 125863.5105000016,
      "d": 136.36350000000675,
      "v": 127
    },
    {
      "midi": 43,
      "hit": false,
      "t": 125999.87399999982,
      "d": 272.72699999999895,
      "v": 127
    },
    {
      "midi": 48,
      "hit": false,
      "t": 125999.87399999982,
      "d": 272.72699999999895,
      "v": 127
    },
    {
      "midi": 50,
      "hit": false,
      "t": 125999.87399999982,
      "d": 272.72699999999895,
      "v": 127
    },
    {
      "midi": 54,
      "hit": false,
      "t": 125999.87399999982,
      "d": 272.72699999999895,
      "v": 127
    },
    {
      "midi": 81,
      "hit": false,
      "t": 125999.87400000161,
      "d": 545.4539999999979,
      "v": 127
    },
    {
      "midi": 43,
      "hit": false,
      "t": 126272.60099999982,
      "d": 272.72699999999895,
      "v": 127
    },
    {
      "midi": 48,
      "hit": false,
      "t": 126272.60099999982,
      "d": 272.72699999999895,
      "v": 127
    },
    {
      "midi": 50,
      "hit": false,
      "t": 126272.60099999982,
      "d": 272.72699999999895,
      "v": 127
    },
    {
      "midi": 54,
      "hit": false,
      "t": 126272.60099999982,
      "d": 272.72699999999895,
      "v": 127
    },
    {
      "midi": 43,
      "hit": false,
      "t": 126545.32799999982,
      "d": 272.72699999999895,
      "v": 127
    },
    {
      "midi": 47,
      "hit": false,
      "t": 126545.32799999982,
      "d": 272.72699999999895,
      "v": 127
    },
    {
      "midi": 50,
      "hit": false,
      "t": 126545.32799999982,
      "d": 272.72699999999895,
      "v": 127
    },
    {
      "midi": 55,
      "hit": false,
      "t": 126545.32799999982,
      "d": 272.72699999999895,
      "v": 127
    },
    {
      "midi": 70,
      "hit": false,
      "t": 126545.32800000161,
      "d": 136.36350000000675,
      "v": 127
    },
    {
      "midi": 71,
      "hit": false,
      "t": 126681.69150000162,
      "d": 136.36350000000675,
      "v": 127
    },
    {
      "midi": 43,
      "hit": false,
      "t": 126818.05499999982,
      "d": 272.72699999999895,
      "v": 127
    },
    {
      "midi": 47,
      "hit": false,
      "t": 126818.05499999982,
      "d": 272.72699999999895,
      "v": 127
    },
    {
      "midi": 50,
      "hit": false,
      "t": 126818.05499999982,
      "d": 272.72699999999895,
      "v": 127
    },
    {
      "midi": 55,
      "hit": false,
      "t": 126818.05499999982,
      "d": 272.72699999999895,
      "v": 127
    },
    {
      "midi": 59,
      "hit": false,
      "t": 126818.05500000162,
      "d": 272.72699999999895,
      "v": 127
    },
    {
      "midi": 43,
      "hit": false,
      "t": 127090.78199999982,
      "d": 272.72699999999895,
      "v": 127
    },
    {
      "midi": 47,
      "hit": false,
      "t": 127090.78199999982,
      "d": 272.72699999999895,
      "v": 127
    },
    {
      "midi": 50,
      "hit": false,
      "t": 127090.78199999982,
      "d": 272.72699999999895,
      "v": 127
    },
    {
      "midi": 55,
      "hit": false,
      "t": 127090.78199999982,
      "d": 272.72699999999895,
      "v": 127
    },
    {
      "midi": 73,
      "hit": false,
      "t": 127090.78200000162,
      "d": 136.36350000000675,
      "v": 127
    },
    {
      "midi": 74,
      "hit": false,
      "t": 127227.14550000163,
      "d": 136.36350000000675,
      "v": 127
    },
    {
      "midi": 43,
      "hit": false,
      "t": 127363.50899999982,
      "d": 272.72699999999895,
      "v": 127
    },
    {
      "midi": 47,
      "hit": false,
      "t": 127363.50899999982,
      "d": 272.72699999999895,
      "v": 127
    },
    {
      "midi": 50,
      "hit": false,
      "t": 127363.50899999982,
      "d": 272.72699999999895,
      "v": 127
    },
    {
      "midi": 55,
      "hit": false,
      "t": 127363.50899999982,
      "d": 272.72699999999895,
      "v": 127
    },
    {
      "midi": 62,
      "hit": false,
      "t": 127363.50900000164,
      "d": 272.72699999999895,
      "v": 127
    },
    {
      "midi": 43,
      "hit": false,
      "t": 127636.23599999982,
      "d": 272.72699999999895,
      "v": 127
    },
    {
      "midi": 47,
      "hit": false,
      "t": 127636.23599999982,
      "d": 272.72699999999895,
      "v": 127
    },
    {
      "midi": 50,
      "hit": false,
      "t": 127636.23599999982,
      "d": 272.72699999999895,
      "v": 127
    },
    {
      "midi": 55,
      "hit": false,
      "t": 127636.23599999982,
      "d": 272.72699999999895,
      "v": 127
    },
    {
      "midi": 78,
      "hit": false,
      "t": 127636.23600000163,
      "d": 136.36350000000675,
      "v": 127
    },
    {
      "midi": 79,
      "hit": false,
      "t": 127772.59950000164,
      "d": 136.36350000000675,
      "v": 127
    },
    {
      "midi": 43,
      "hit": false,
      "t": 127908.96299999981,
      "d": 272.72699999999895,
      "v": 127
    },
    {
      "midi": 47,
      "hit": false,
      "t": 127908.96299999981,
      "d": 272.72699999999895,
      "v": 127
    },
    {
      "midi": 50,
      "hit": false,
      "t": 127908.96299999981,
      "d": 272.72699999999895,
      "v": 127
    },
    {
      "midi": 55,
      "hit": false,
      "t": 127908.96299999981,
      "d": 272.72699999999895,
      "v": 127
    },
    {
      "midi": 67,
      "hit": false,
      "t": 127908.96300000165,
      "d": 272.72699999999895,
      "v": 127
    },
    {
      "midi": 43,
      "hit": false,
      "t": 128181.68999999981,
      "d": 272.72699999999895,
      "v": 127
    },
    {
      "midi": 47,
      "hit": false,
      "t": 128181.68999999981,
      "d": 272.72699999999895,
      "v": 127
    },
    {
      "midi": 50,
      "hit": false,
      "t": 128181.68999999981,
      "d": 272.72699999999895,
      "v": 127
    },
    {
      "midi": 55,
      "hit": false,
      "t": 128181.68999999981,
      "d": 272.72699999999895,
      "v": 127
    },
    {
      "midi": 82,
      "hit": false,
      "t": 128181.69000000165,
      "d": 136.36350000000675,
      "v": 127
    },
    {
      "midi": 83,
      "hit": false,
      "t": 128318.05350000165,
      "d": 136.36350000000675,
      "v": 127
    },
    {
      "midi": 43,
      "hit": false,
      "t": 128454.41699999981,
      "d": 272.72699999999895,
      "v": 127
    },
    {
      "midi": 47,
      "hit": false,
      "t": 128454.41699999981,
      "d": 272.72699999999895,
      "v": 127
    },
    {
      "midi": 50,
      "hit": false,
      "t": 128454.41699999981,
      "d": 272.72699999999895,
      "v": 127
    },
    {
      "midi": 55,
      "hit": false,
      "t": 128454.41699999981,
      "d": 272.72699999999895,
      "v": 127
    },
    {
      "midi": 71,
      "hit": false,
      "t": 128454.41700000166,
      "d": 272.72699999999895,
      "v": 127
    },
    {
      "midi": 43,
      "hit": false,
      "t": 128727.14399999981,
      "d": 272.72699999999895,
      "v": 127
    },
    {
      "midi": 48,
      "hit": false,
      "t": 128727.14399999981,
      "d": 272.72699999999895,
      "v": 127
    },
    {
      "midi": 50,
      "hit": false,
      "t": 128727.14399999981,
      "d": 272.72699999999895,
      "v": 127
    },
    {
      "midi": 54,
      "hit": false,
      "t": 128727.14399999981,
      "d": 272.72699999999895,
      "v": 127
    },
    {
      "midi": 86,
      "hit": false,
      "t": 128727.14400000166,
      "d": 136.36350000000675,
      "v": 127
    },
    {
      "midi": 85,
      "hit": false,
      "t": 128863.50750000167,
      "d": 136.36350000000675,
      "v": 127
    },
    {
      "midi": 43,
      "hit": false,
      "t": 128999.87099999981,
      "d": 272.72699999999895,
      "v": 127
    },
    {
      "midi": 48,
      "hit": false,
      "t": 128999.87099999981,
      "d": 272.72699999999895,
      "v": 127
    },
    {
      "midi": 50,
      "hit": false,
      "t": 128999.87099999981,
      "d": 272.72699999999895,
      "v": 127
    },
    {
      "midi": 54,
      "hit": false,
      "t": 128999.87099999981,
      "d": 272.72699999999895,
      "v": 127
    },
    {
      "midi": 84,
      "hit": false,
      "t": 128999.87100000167,
      "d": 136.36350000000675,
      "v": 127
    },
    {
      "midi": 83,
      "hit": false,
      "t": 129136.23450000168,
      "d": 136.36350000000675,
      "v": 127
    },
    {
      "midi": 43,
      "hit": false,
      "t": 129272.59799999981,
      "d": 272.72699999999895,
      "v": 127
    },
    {
      "midi": 48,
      "hit": false,
      "t": 129272.59799999981,
      "d": 272.72699999999895,
      "v": 127
    },
    {
      "midi": 50,
      "hit": false,
      "t": 129272.59799999981,
      "d": 272.72699999999895,
      "v": 127
    },
    {
      "midi": 54,
      "hit": false,
      "t": 129272.59799999981,
      "d": 272.72699999999895,
      "v": 127
    },
    {
      "midi": 81,
      "hit": false,
      "t": 129272.59800000169,
      "d": 136.36350000000675,
      "v": 127
    },
    {
      "midi": 83,
      "hit": false,
      "t": 129408.9615000017,
      "d": 136.36350000000675,
      "v": 127
    },
    {
      "midi": 43,
      "hit": false,
      "t": 129545.32499999981,
      "d": 272.72699999999895,
      "v": 127
    },
    {
      "midi": 48,
      "hit": false,
      "t": 129545.32499999981,
      "d": 272.72699999999895,
      "v": 127
    },
    {
      "midi": 50,
      "hit": false,
      "t": 129545.32499999981,
      "d": 272.72699999999895,
      "v": 127
    },
    {
      "midi": 54,
      "hit": false,
      "t": 129545.32499999981,
      "d": 272.72699999999895,
      "v": 127
    },
    {
      "midi": 84,
      "hit": false,
      "t": 129545.3250000017,
      "d": 136.36350000000675,
      "v": 127
    },
    {
      "midi": 81,
      "hit": false,
      "t": 129681.6885000017,
      "d": 136.36350000000675,
      "v": 127
    },
    {
      "midi": 43,
      "hit": false,
      "t": 129818.0519999998,
      "d": 545.4539999999979,
      "v": 127
    },
    {
      "midi": 47,
      "hit": false,
      "t": 129818.0519999998,
      "d": 545.4539999999979,
      "v": 127
    },
    {
      "midi": 50,
      "hit": false,
      "t": 129818.0519999998,
      "d": 545.4539999999979,
      "v": 127
    },
    {
      "midi": 55,
      "hit": false,
      "t": 129818.0519999998,
      "d": 545.4539999999979,
      "v": 127
    },
    {
      "midi": 79,
      "hit": false,
      "t": 129818.05200000171,
      "d": 545.4539999999979,
      "v": 127
    },
    {
      "midi": 43,
      "hit": false,
      "t": 130363.5059999998,
      "d": 545.4539999999979,
      "v": 127
    },
    {
      "midi": 76,
      "hit": false,
      "t": 130908.96000000171,
      "d": 545.4539999999979,
      "v": 127
    },
    {
      "midi": 80,
      "hit": false,
      "t": 130908.96000000171,
      "d": 545.4539999999979,
      "v": 127
    },
    {
      "midi": 83,
      "hit": false,
      "t": 130908.96000000171,
      "d": 545.4539999999979,
      "v": 127
    },
    {
      "midi": 88,
      "hit": false,
      "t": 130908.96000000171,
      "d": 545.4539999999979,
      "v": 127
    },
    {
      "midi": 40,
      "hit": false,
      "t": 131181.6869999998,
      "d": 272.7270000000135,
      "v": 127
    },
    {
      "midi": 44,
      "hit": false,
      "t": 131454.41399999982,
      "d": 272.7270000000135,
      "v": 127
    },
    {
      "midi": 71,
      "hit": false,
      "t": 131454.4140000017,
      "d": 545.4539999999979,
      "v": 127
    },
    {
      "midi": 76,
      "hit": false,
      "t": 131454.4140000017,
      "d": 545.4539999999979,
      "v": 127
    },
    {
      "midi": 80,
      "hit": false,
      "t": 131454.4140000017,
      "d": 545.4539999999979,
      "v": 127
    },
    {
      "midi": 83,
      "hit": false,
      "t": 131454.4140000017,
      "d": 545.4539999999979,
      "v": 127
    },
    {
      "midi": 47,
      "hit": false,
      "t": 131727.14099999983,
      "d": 272.7270000000135,
      "v": 127
    },
    {
      "midi": 52,
      "hit": false,
      "t": 131999.86799999984,
      "d": 272.7270000000135,
      "v": 127
    },
    {
      "midi": 68,
      "hit": false,
      "t": 131999.8680000017,
      "d": 545.4539999999979,
      "v": 127
    },
    {
      "midi": 71,
      "hit": false,
      "t": 131999.8680000017,
      "d": 545.4539999999979,
      "v": 127
    },
    {
      "midi": 76,
      "hit": false,
      "t": 131999.8680000017,
      "d": 545.4539999999979,
      "v": 127
    },
    {
      "midi": 80,
      "hit": false,
      "t": 131999.8680000017,
      "d": 545.4539999999979,
      "v": 127
    },
    {
      "midi": 56,
      "hit": false,
      "t": 132272.59499999986,
      "d": 272.7270000000135,
      "v": 127
    },
    {
      "midi": 59,
      "hit": false,
      "t": 132545.32199999987,
      "d": 545.4539999999979,
      "v": 127
    },
    {
      "midi": 64,
      "hit": false,
      "t": 132818.04900000172,
      "d": 272.7270000000135,
      "v": 127
    },
    {
      "midi": 68,
      "hit": false,
      "t": 132818.04900000172,
      "d": 272.7270000000135,
      "v": 127
    },
    {
      "midi": 76,
      "hit": false,
      "t": 132818.04900000172,
      "d": 272.7270000000135,
      "v": 127
    },
    {
      "midi": 66,
      "hit": false,
      "t": 133090.77600000173,
      "d": 272.7270000000135,
      "v": 127
    },
    {
      "midi": 69,
      "hit": false,
      "t": 133090.77600000173,
      "d": 272.7270000000135,
      "v": 127
    },
    {
      "midi": 71,
      "hit": false,
      "t": 133090.77600000173,
      "d": 272.7270000000135,
      "v": 127
    },
    {
      "midi": 75,
      "hit": false,
      "t": 133090.77600000173,
      "d": 272.7270000000135,
      "v": 127
    },
    {
      "midi": 64,
      "hit": false,
      "t": 133363.50300000174,
      "d": 272.7270000000135,
      "v": 127
    },
    {
      "midi": 68,
      "hit": false,
      "t": 133363.50300000174,
      "d": 272.7270000000135,
      "v": 127
    },
    {
      "midi": 71,
      "hit": false,
      "t": 133363.50300000174,
      "d": 272.7270000000135,
      "v": 127
    },
    {
      "midi": 76,
      "hit": false,
      "t": 133363.50300000174,
      "d": 272.7270000000135,
      "v": 127
    },
    {
      "midi": 63,
      "hit": false,
      "t": 133636.23000000176,
      "d": 272.7270000000135,
      "v": 127
    },
    {
      "midi": 66,
      "hit": false,
      "t": 133636.23000000176,
      "d": 272.7270000000135,
      "v": 127
    },
    {
      "midi": 71,
      "hit": false,
      "t": 133636.23000000176,
      "d": 272.7270000000135,
      "v": 127
    },
    {
      "midi": 78,
      "hit": false,
      "t": 133636.23000000176,
      "d": 272.7270000000135,
      "v": 127
    },
    {
      "midi": 61,
      "hit": false,
      "t": 133908.95700000177,
      "d": 272.7270000000135,
      "v": 127
    },
    {
      "midi": 64,
      "hit": false,
      "t": 133908.95700000177,
      "d": 272.7270000000135,
      "v": 127
    },
    {
      "midi": 71,
      "hit": false,
      "t": 133908.95700000177,
      "d": 272.7270000000135,
      "v": 127
    },
    {
      "midi": 80,
      "hit": false,
      "t": 133908.95700000177,
      "d": 272.7270000000135,
      "v": 127
    },
    {
      "midi": 59,
      "hit": false,
      "t": 134181.68399999986,
      "d": 272.7270000000135,
      "v": 127
    },
    {
      "midi": 63,
      "hit": false,
      "t": 134181.68399999986,
      "d": 272.7270000000135,
      "v": 127
    },
    {
      "midi": 71,
      "hit": false,
      "t": 134181.68400000178,
      "d": 272.7270000000135,
      "v": 127
    },
    {
      "midi": 81,
      "hit": false,
      "t": 134181.68400000178,
      "d": 272.7270000000135,
      "v": 127
    },
    {
      "midi": 57,
      "hit": false,
      "t": 134454.41099999988,
      "d": 272.7270000000135,
      "v": 127
    },
    {
      "midi": 61,
      "hit": false,
      "t": 134454.41099999988,
      "d": 272.7270000000135,
      "v": 127
    },
    {
      "midi": 71,
      "hit": false,
      "t": 134454.4110000018,
      "d": 272.7270000000135,
      "v": 127
    },
    {
      "midi": 83,
      "hit": false,
      "t": 134454.4110000018,
      "d": 272.7270000000135,
      "v": 127
    },
    {
      "midi": 56,
      "hit": false,
      "t": 134727.1379999999,
      "d": 272.7270000000135,
      "v": 127
    },
    {
      "midi": 59,
      "hit": false,
      "t": 134727.1379999999,
      "d": 272.7270000000135,
      "v": 127
    },
    {
      "midi": 73,
      "hit": false,
      "t": 134727.1380000018,
      "d": 272.7270000000135,
      "v": 127
    },
    {
      "midi": 85,
      "hit": false,
      "t": 134727.1380000018,
      "d": 272.7270000000135,
      "v": 127
    },
    {
      "midi": 54,
      "hit": false,
      "t": 134999.8649999999,
      "d": 272.7270000000135,
      "v": 127
    },
    {
      "midi": 57,
      "hit": false,
      "t": 134999.8649999999,
      "d": 272.7270000000135,
      "v": 127
    },
    {
      "midi": 75,
      "hit": false,
      "t": 134999.86500000182,
      "d": 272.7270000000135,
      "v": 127
    },
    {
      "midi": 87,
      "hit": false,
      "t": 134999.86500000182,
      "d": 272.7270000000135,
      "v": 127
    },
    {
      "midi": 76,
      "hit": false,
      "t": 135272.59200000184,
      "d": 545.4539999999979,
      "v": 127
    },
    {
      "midi": 80,
      "hit": false,
      "t": 135272.59200000184,
      "d": 545.4539999999979,
      "v": 127
    },
    {
      "midi": 83,
      "hit": false,
      "t": 135272.59200000184,
      "d": 545.4539999999979,
      "v": 127
    },
    {
      "midi": 88,
      "hit": false,
      "t": 135272.59200000184,
      "d": 545.4539999999979,
      "v": 127
    },
    {
      "midi": 40,
      "hit": false,
      "t": 135545.31899999993,
      "d": 272.7270000000135,
      "v": 127
    },
    {
      "midi": 44,
      "hit": false,
      "t": 135818.04599999994,
      "d": 272.7270000000135,
      "v": 127
    },
    {
      "midi": 71,
      "hit": false,
      "t": 135818.04600000184,
      "d": 545.4539999999979,
      "v": 127
    },
    {
      "midi": 76,
      "hit": false,
      "t": 135818.04600000184,
      "d": 545.4539999999979,
      "v": 127
    },
    {
      "midi": 80,
      "hit": false,
      "t": 135818.04600000184,
      "d": 545.4539999999979,
      "v": 127
    },
    {
      "midi": 83,
      "hit": false,
      "t": 135818.04600000184,
      "d": 545.4539999999979,
      "v": 127
    },
    {
      "midi": 47,
      "hit": false,
      "t": 136090.77299999996,
      "d": 272.7270000000135,
      "v": 127
    },
    {
      "midi": 52,
      "hit": false,
      "t": 136363.49999999997,
      "d": 272.7270000000135,
      "v": 127
    },
    {
      "midi": 68,
      "hit": false,
      "t": 136363.50000000183,
      "d": 545.4539999999979,
      "v": 127
    },
    {
      "midi": 71,
      "hit": false,
      "t": 136363.50000000183,
      "d": 545.4539999999979,
      "v": 127
    },
    {
      "midi": 76,
      "hit": false,
      "t": 136363.50000000183,
      "d": 545.4539999999979,
      "v": 127
    },
    {
      "midi": 80,
      "hit": false,
      "t": 136363.50000000183,
      "d": 545.4539999999979,
      "v": 127
    },
    {
      "midi": 56,
      "hit": false,
      "t": 136636.22699999998,
      "d": 272.7270000000135,
      "v": 127
    },
    {
      "midi": 59,
      "hit": false,
      "t": 136908.954,
      "d": 272.7270000000135,
      "v": 127
    },
    {
      "midi": 64,
      "hit": false,
      "t": 137181.681,
      "d": 272.7270000000135,
      "v": 127
    },
    {
      "midi": 68,
      "hit": false,
      "t": 137181.68100000184,
      "d": 272.7270000000135,
      "v": 127
    },
    {
      "midi": 71,
      "hit": false,
      "t": 137181.68100000184,
      "d": 272.7270000000135,
      "v": 127
    },
    {
      "midi": 63,
      "hit": false,
      "t": 137454.40800000002,
      "d": 272.7270000000135,
      "v": 127
    },
    {
      "midi": 66,
      "hit": false,
      "t": 137454.40800000186,
      "d": 272.7270000000135,
      "v": 127
    },
    {
      "midi": 71,
      "hit": false,
      "t": 137454.40800000186,
      "d": 272.7270000000135,
      "v": 127
    },
    {
      "midi": 64,
      "hit": false,
      "t": 137727.13500000004,
      "d": 272.7270000000135,
      "v": 127
    },
    {
      "midi": 68,
      "hit": false,
      "t": 137727.13500000187,
      "d": 272.7270000000135,
      "v": 127
    },
    {
      "midi": 71,
      "hit": false,
      "t": 137727.13500000187,
      "d": 272.7270000000135,
      "v": 127
    },
    {
      "midi": 63,
      "hit": false,
      "t": 137999.86200000005,
      "d": 272.7270000000135,
      "v": 127
    },
    {
      "midi": 66,
      "hit": false,
      "t": 137999.8620000019,
      "d": 272.7270000000135,
      "v": 127
    },
    {
      "midi": 71,
      "hit": false,
      "t": 137999.8620000019,
      "d": 272.7270000000135,
      "v": 127
    },
    {
      "midi": 54,
      "hit": false,
      "t": 138272.58900000007,
      "d": 272.7270000000135,
      "v": 127
    },
    {
      "midi": 61,
      "hit": false,
      "t": 138272.58900000007,
      "d": 272.7270000000135,
      "v": 127
    },
    {
      "midi": 64,
      "hit": false,
      "t": 138272.5890000019,
      "d": 272.7270000000135,
      "v": 127
    },
    {
      "midi": 70,
      "hit": false,
      "t": 138272.5890000019,
      "d": 272.7270000000135,
      "v": 127
    },
    {
      "midi": 47,
      "hit": false,
      "t": 138545.31600000008,
      "d": 272.7270000000135,
      "v": 127
    },
    {
      "midi": 59,
      "hit": false,
      "t": 138545.31600000008,
      "d": 272.7270000000135,
      "v": 127
    },
    {
      "midi": 63,
      "hit": false,
      "t": 138545.3160000019,
      "d": 545.4539999999979,
      "v": 127
    },
    {
      "midi": 71,
      "hit": false,
      "t": 138545.3160000019,
      "d": 545.4539999999979,
      "v": 127
    },
    {
      "midi": 54,
      "hit": false,
      "t": 138818.0430000001,
      "d": 272.7270000000135,
      "v": 127
    },
    {
      "midi": 47,
      "hit": false,
      "t": 139090.7700000001,
      "d": 545.4539999999979,
      "v": 127
    },
    {
      "midi": 76,
      "hit": false,
      "t": 139636.2240000019,
      "d": 545.4539999999979,
      "v": 127
    },
    {
      "midi": 80,
      "hit": false,
      "t": 139636.2240000019,
      "d": 545.4539999999979,
      "v": 127
    },
    {
      "midi": 83,
      "hit": false,
      "t": 139636.2240000019,
      "d": 545.4539999999979,
      "v": 127
    },
    {
      "midi": 88,
      "hit": false,
      "t": 139636.2240000019,
      "d": 545.4539999999979,
      "v": 127
    },
    {
      "midi": 40,
      "hit": false,
      "t": 139908.95100000012,
      "d": 272.7270000000135,
      "v": 127
    },
    {
      "midi": 44,
      "hit": false,
      "t": 140181.67800000013,
      "d": 272.7270000000135,
      "v": 127
    },
    {
      "midi": 71,
      "hit": false,
      "t": 140181.6780000019,
      "d": 545.4539999999979,
      "v": 127
    },
    {
      "midi": 76,
      "hit": false,
      "t": 140181.6780000019,
      "d": 545.4539999999979,
      "v": 127
    },
    {
      "midi": 80,
      "hit": false,
      "t": 140181.6780000019,
      "d": 545.4539999999979,
      "v": 127
    },
    {
      "midi": 83,
      "hit": false,
      "t": 140181.6780000019,
      "d": 545.4539999999979,
      "v": 127
    },
    {
      "midi": 47,
      "hit": false,
      "t": 140454.40500000014,
      "d": 272.7270000000135,
      "v": 127
    },
    {
      "midi": 52,
      "hit": false,
      "t": 140727.13200000016,
      "d": 272.7270000000135,
      "v": 127
    },
    {
      "midi": 68,
      "hit": false,
      "t": 140727.1320000019,
      "d": 545.4539999999979,
      "v": 127
    },
    {
      "midi": 71,
      "hit": false,
      "t": 140727.1320000019,
      "d": 545.4539999999979,
      "v": 127
    },
    {
      "midi": 76,
      "hit": false,
      "t": 140727.1320000019,
      "d": 545.4539999999979,
      "v": 127
    },
    {
      "midi": 80,
      "hit": false,
      "t": 140727.1320000019,
      "d": 545.4539999999979,
      "v": 127
    },
    {
      "midi": 56,
      "hit": false,
      "t": 140999.85900000017,
      "d": 272.7270000000135,
      "v": 127
    },
    {
      "midi": 59,
      "hit": false,
      "t": 141272.58600000018,
      "d": 545.4539999999979,
      "v": 127
    },
    {
      "midi": 64,
      "hit": false,
      "t": 141545.31300000192,
      "d": 272.7270000000135,
      "v": 127
    },
    {
      "midi": 68,
      "hit": false,
      "t": 141545.31300000192,
      "d": 272.7270000000135,
      "v": 127
    },
    {
      "midi": 76,
      "hit": false,
      "t": 141545.31300000192,
      "d": 272.7270000000135,
      "v": 127
    },
    {
      "midi": 66,
      "hit": false,
      "t": 141818.04000000193,
      "d": 272.7270000000135,
      "v": 127
    },
    {
      "midi": 69,
      "hit": false,
      "t": 141818.04000000193,
      "d": 272.7270000000135,
      "v": 127
    },
    {
      "midi": 71,
      "hit": false,
      "t": 141818.04000000193,
      "d": 272.7270000000135,
      "v": 127
    },
    {
      "midi": 75,
      "hit": false,
      "t": 141818.04000000193,
      "d": 272.7270000000135,
      "v": 127
    },
    {
      "midi": 64,
      "hit": false,
      "t": 142090.76700000194,
      "d": 272.7270000000135,
      "v": 127
    },
    {
      "midi": 68,
      "hit": false,
      "t": 142090.76700000194,
      "d": 272.7270000000135,
      "v": 127
    },
    {
      "midi": 71,
      "hit": false,
      "t": 142090.76700000194,
      "d": 272.7270000000135,
      "v": 127
    },
    {
      "midi": 76,
      "hit": false,
      "t": 142090.76700000194,
      "d": 272.7270000000135,
      "v": 127
    },
    {
      "midi": 63,
      "hit": false,
      "t": 142363.49400000196,
      "d": 272.7270000000135,
      "v": 127
    },
    {
      "midi": 66,
      "hit": false,
      "t": 142363.49400000196,
      "d": 272.7270000000135,
      "v": 127
    },
    {
      "midi": 71,
      "hit": false,
      "t": 142363.49400000196,
      "d": 272.7270000000135,
      "v": 127
    },
    {
      "midi": 78,
      "hit": false,
      "t": 142363.49400000196,
      "d": 272.7270000000135,
      "v": 127
    },
    {
      "midi": 61,
      "hit": false,
      "t": 142636.22100000197,
      "d": 272.7270000000135,
      "v": 127
    },
    {
      "midi": 64,
      "hit": false,
      "t": 142636.22100000197,
      "d": 272.7270000000135,
      "v": 127
    },
    {
      "midi": 71,
      "hit": false,
      "t": 142636.22100000197,
      "d": 272.7270000000135,
      "v": 127
    },
    {
      "midi": 80,
      "hit": false,
      "t": 142636.22100000197,
      "d": 272.7270000000135,
      "v": 127
    },
    {
      "midi": 59,
      "hit": false,
      "t": 142908.94800000018,
      "d": 272.7270000000135,
      "v": 127
    },
    {
      "midi": 63,
      "hit": false,
      "t": 142908.94800000018,
      "d": 272.7270000000135,
      "v": 127
    },
    {
      "midi": 71,
      "hit": false,
      "t": 142908.94800000198,
      "d": 272.7270000000135,
      "v": 127
    },
    {
      "midi": 81,
      "hit": false,
      "t": 142908.94800000198,
      "d": 272.7270000000135,
      "v": 127
    },
    {
      "midi": 57,
      "hit": false,
      "t": 143181.6750000002,
      "d": 272.7270000000135,
      "v": 127
    },
    {
      "midi": 61,
      "hit": false,
      "t": 143181.6750000002,
      "d": 272.7270000000135,
      "v": 127
    },
    {
      "midi": 71,
      "hit": false,
      "t": 143181.675000002,
      "d": 272.7270000000135,
      "v": 127
    },
    {
      "midi": 83,
      "hit": false,
      "t": 143181.675000002,
      "d": 272.7270000000135,
      "v": 127
    },
    {
      "midi": 56,
      "hit": false,
      "t": 143454.4020000002,
      "d": 272.7270000000135,
      "v": 127
    },
    {
      "midi": 59,
      "hit": false,
      "t": 143454.4020000002,
      "d": 272.7270000000135,
      "v": 127
    },
    {
      "midi": 73,
      "hit": false,
      "t": 143454.402000002,
      "d": 272.7270000000135,
      "v": 127
    },
    {
      "midi": 85,
      "hit": false,
      "t": 143454.402000002,
      "d": 272.7270000000135,
      "v": 127
    },
    {
      "midi": 54,
      "hit": false,
      "t": 143727.12900000022,
      "d": 272.7270000000135,
      "v": 127
    },
    {
      "midi": 57,
      "hit": false,
      "t": 143727.12900000022,
      "d": 272.7270000000135,
      "v": 127
    },
    {
      "midi": 75,
      "hit": false,
      "t": 143727.12900000202,
      "d": 272.7270000000135,
      "v": 127
    },
    {
      "midi": 87,
      "hit": false,
      "t": 143727.12900000202,
      "d": 272.7270000000135,
      "v": 127
    },
    {
      "midi": 76,
      "hit": false,
      "t": 143999.85600000204,
      "d": 545.4539999999979,
      "v": 127
    },
    {
      "midi": 80,
      "hit": false,
      "t": 143999.85600000204,
      "d": 545.4539999999979,
      "v": 127
    },
    {
      "midi": 83,
      "hit": false,
      "t": 143999.85600000204,
      "d": 545.4539999999979,
      "v": 127
    },
    {
      "midi": 88,
      "hit": false,
      "t": 143999.85600000204,
      "d": 545.4539999999979,
      "v": 127
    },
    {
      "midi": 40,
      "hit": false,
      "t": 144272.58300000025,
      "d": 272.7270000000135,
      "v": 127
    },
    {
      "midi": 44,
      "hit": false,
      "t": 144545.31000000026,
      "d": 272.7270000000135,
      "v": 127
    },
    {
      "midi": 71,
      "hit": false,
      "t": 144545.31000000203,
      "d": 545.4539999999979,
      "v": 127
    },
    {
      "midi": 76,
      "hit": false,
      "t": 144545.31000000203,
      "d": 545.4539999999979,
      "v": 127
    },
    {
      "midi": 80,
      "hit": false,
      "t": 144545.31000000203,
      "d": 545.4539999999979,
      "v": 127
    },
    {
      "midi": 83,
      "hit": false,
      "t": 144545.31000000203,
      "d": 545.4539999999979,
      "v": 127
    },
    {
      "midi": 47,
      "hit": false,
      "t": 144818.03700000027,
      "d": 272.7270000000135,
      "v": 127
    },
    {
      "midi": 52,
      "hit": false,
      "t": 145090.7640000003,
      "d": 272.7270000000135,
      "v": 127
    },
    {
      "midi": 68,
      "hit": false,
      "t": 145090.76400000203,
      "d": 545.4539999999979,
      "v": 127
    },
    {
      "midi": 71,
      "hit": false,
      "t": 145090.76400000203,
      "d": 545.4539999999979,
      "v": 127
    },
    {
      "midi": 76,
      "hit": false,
      "t": 145090.76400000203,
      "d": 545.4539999999979,
      "v": 127
    },
    {
      "midi": 80,
      "hit": false,
      "t": 145090.76400000203,
      "d": 545.4539999999979,
      "v": 127
    },
    {
      "midi": 56,
      "hit": false,
      "t": 145363.4910000003,
      "d": 272.7270000000135,
      "v": 127
    },
    {
      "midi": 59,
      "hit": false,
      "t": 145636.2180000003,
      "d": 272.7270000000135,
      "v": 127
    },
    {
      "midi": 64,
      "hit": false,
      "t": 145908.94500000033,
      "d": 272.7270000000135,
      "v": 127
    },
    {
      "midi": 68,
      "hit": false,
      "t": 145908.94500000204,
      "d": 272.7270000000135,
      "v": 127
    },
    {
      "midi": 71,
      "hit": false,
      "t": 145908.94500000204,
      "d": 272.7270000000135,
      "v": 127
    },
    {
      "midi": 63,
      "hit": false,
      "t": 146181.67200000034,
      "d": 272.7270000000135,
      "v": 127
    },
    {
      "midi": 66,
      "hit": false,
      "t": 146181.67200000206,
      "d": 272.7270000000135,
      "v": 127
    },
    {
      "midi": 71,
      "hit": false,
      "t": 146181.67200000206,
      "d": 272.7270000000135,
      "v": 127
    },
    {
      "midi": 64,
      "hit": false,
      "t": 146454.39900000035,
      "d": 272.7270000000135,
      "v": 127
    },
    {
      "midi": 68,
      "hit": false,
      "t": 146454.39900000207,
      "d": 272.7270000000135,
      "v": 127
    },
    {
      "midi": 71,
      "hit": false,
      "t": 146454.39900000207,
      "d": 272.7270000000135,
      "v": 127
    },
    {
      "midi": 63,
      "hit": false,
      "t": 146727.12600000037,
      "d": 272.7270000000135,
      "v": 127
    },
    {
      "midi": 66,
      "hit": false,
      "t": 146727.12600000208,
      "d": 272.7270000000135,
      "v": 127
    },
    {
      "midi": 71,
      "hit": false,
      "t": 146727.12600000208,
      "d": 272.7270000000135,
      "v": 127
    },
    {
      "midi": 54,
      "hit": false,
      "t": 146999.85300000038,
      "d": 272.7270000000135,
      "v": 127
    },
    {
      "midi": 61,
      "hit": false,
      "t": 146999.85300000038,
      "d": 272.7270000000135,
      "v": 127
    },
    {
      "midi": 64,
      "hit": false,
      "t": 146999.8530000021,
      "d": 272.7270000000135,
      "v": 127
    },
    {
      "midi": 70,
      "hit": false,
      "t": 146999.8530000021,
      "d": 272.7270000000135,
      "v": 127
    },
    {
      "midi": 47,
      "hit": false,
      "t": 147272.5800000004,
      "d": 272.7270000000135,
      "v": 127
    },
    {
      "midi": 59,
      "hit": false,
      "t": 147272.5800000004,
      "d": 272.7270000000135,
      "v": 127
    },
    {
      "midi": 63,
      "hit": false,
      "t": 147272.5800000021,
      "d": 545.4539999999979,
      "v": 127
    },
    {
      "midi": 71,
      "hit": false,
      "t": 147272.5800000021,
      "d": 545.4539999999979,
      "v": 127
    },
    {
      "midi": 54,
      "hit": false,
      "t": 147545.3070000004,
      "d": 272.7270000000135,
      "v": 127
    },
    {
      "midi": 47,
      "hit": false,
      "t": 147818.03400000042,
      "d": 545.4539999999979,
      "v": 127
    },
    {
      "midi": 71,
      "hit": false,
      "t": 148090.76100000212,
      "d": 272.7270000000135,
      "v": 127
    },
    {
      "midi": 71,
      "hit": false,
      "t": 148363.48800000214,
      "d": 272.7270000000135,
      "v": 127
    },
    {
      "midi": 81,
      "hit": false,
      "t": 148363.48800000214,
      "d": 272.7270000000135,
      "v": 127
    },
    {
      "midi": 71,
      "hit": false,
      "t": 148636.21500000043,
      "d": 272.7270000000135,
      "v": 127
    },
    {
      "midi": 71,
      "hit": false,
      "t": 148636.21500000215,
      "d": 272.7270000000135,
      "v": 127
    },
    {
      "midi": 80,
      "hit": false,
      "t": 148636.21500000215,
      "d": 272.7270000000135,
      "v": 127
    },
    {
      "midi": 69,
      "hit": false,
      "t": 148908.94200000045,
      "d": 272.7270000000135,
      "v": 127
    },
    {
      "midi": 71,
      "hit": false,
      "t": 148908.94200000216,
      "d": 272.7270000000135,
      "v": 127
    },
    {
      "midi": 78,
      "hit": false,
      "t": 148908.94200000216,
      "d": 272.7270000000135,
      "v": 127
    },
    {
      "midi": 68,
      "hit": false,
      "t": 149181.66900000046,
      "d": 272.7270000000135,
      "v": 127
    },
    {
      "midi": 71,
      "hit": false,
      "t": 149181.66900000218,
      "d": 272.7270000000135,
      "v": 127
    },
    {
      "midi": 76,
      "hit": false,
      "t": 149181.66900000218,
      "d": 272.7270000000135,
      "v": 127
    },
    {
      "midi": 66,
      "hit": false,
      "t": 149454.39600000047,
      "d": 272.7270000000135,
      "v": 127
    },
    {
      "midi": 71,
      "hit": false,
      "t": 149454.3960000022,
      "d": 272.7270000000135,
      "v": 127
    },
    {
      "midi": 75,
      "hit": false,
      "t": 149454.3960000022,
      "d": 272.7270000000135,
      "v": 127
    },
    {
      "midi": 64,
      "hit": false,
      "t": 149727.1230000005,
      "d": 272.7270000000135,
      "v": 127
    },
    {
      "midi": 71,
      "hit": false,
      "t": 149727.1230000022,
      "d": 272.7270000000135,
      "v": 127
    },
    {
      "midi": 73,
      "hit": false,
      "t": 149727.1230000022,
      "d": 272.7270000000135,
      "v": 127
    },
    {
      "midi": 63,
      "hit": false,
      "t": 149999.8500000005,
      "d": 272.7270000000135,
      "v": 127
    },
    {
      "midi": 71,
      "hit": false,
      "t": 149999.85000000222,
      "d": 272.7270000000135,
      "v": 127
    },
    {
      "midi": 59,
      "hit": false,
      "t": 150272.5770000005,
      "d": 272.7270000000135,
      "v": 127
    },
    {
      "midi": 69,
      "hit": false,
      "t": 150272.57700000223,
      "d": 272.7270000000135,
      "v": 127
    },
    {
      "midi": 71,
      "hit": false,
      "t": 150272.57700000223,
      "d": 272.7270000000135,
      "v": 127
    },
    {
      "midi": 64,
      "hit": false,
      "t": 150545.30400000053,
      "d": 272.7270000000135,
      "v": 127
    },
    {
      "midi": 68,
      "hit": false,
      "t": 150545.30400000224,
      "d": 272.7270000000135,
      "v": 127
    },
    {
      "midi": 71,
      "hit": false,
      "t": 150545.30400000224,
      "d": 272.7270000000135,
      "v": 127
    },
    {
      "midi": 57,
      "hit": false,
      "t": 150818.03100000054,
      "d": 272.7270000000135,
      "v": 127
    },
    {
      "midi": 66,
      "hit": false,
      "t": 150818.03100000226,
      "d": 272.7270000000135,
      "v": 127
    },
    {
      "midi": 71,
      "hit": false,
      "t": 150818.03100000226,
      "d": 272.7270000000135,
      "v": 127
    },
    {
      "midi": 56,
      "hit": false,
      "t": 151090.75800000055,
      "d": 272.7270000000135,
      "v": 127
    },
    {
      "midi": 64,
      "hit": false,
      "t": 151090.75800000227,
      "d": 272.7270000000135,
      "v": 127
    },
    {
      "midi": 71,
      "hit": false,
      "t": 151090.75800000227,
      "d": 272.7270000000135,
      "v": 127
    },
    {
      "midi": 54,
      "hit": false,
      "t": 151363.48500000057,
      "d": 272.7270000000135,
      "v": 127
    },
    {
      "midi": 63,
      "hit": false,
      "t": 151363.48500000229,
      "d": 272.7270000000135,
      "v": 127
    },
    {
      "midi": 71,
      "hit": false,
      "t": 151363.48500000229,
      "d": 272.7270000000135,
      "v": 127
    },
    {
      "midi": 56,
      "hit": false,
      "t": 151636.21200000058,
      "d": 272.7270000000135,
      "v": 127
    },
    {
      "midi": 64,
      "hit": false,
      "t": 151636.2120000023,
      "d": 272.7270000000135,
      "v": 127
    },
    {
      "midi": 71,
      "hit": false,
      "t": 151636.2120000023,
      "d": 272.7270000000135,
      "v": 127
    },
    {
      "midi": 57,
      "hit": false,
      "t": 151908.9390000006,
      "d": 272.7270000000135,
      "v": 127
    },
    {
      "midi": 63,
      "hit": false,
      "t": 151908.9390000023,
      "d": 272.7270000000135,
      "v": 127
    },
    {
      "midi": 71,
      "hit": false,
      "t": 151908.9390000023,
      "d": 272.7270000000135,
      "v": 127
    },
    {
      "midi": 56,
      "hit": false,
      "t": 152181.6660000006,
      "d": 272.7270000000135,
      "v": 127
    },
    {
      "midi": 64,
      "hit": false,
      "t": 152181.66600000233,
      "d": 272.7270000000135,
      "v": 127
    },
    {
      "midi": 71,
      "hit": false,
      "t": 152181.66600000233,
      "d": 272.7270000000135,
      "v": 127
    },
    {
      "midi": 52,
      "hit": false,
      "t": 152454.39300000062,
      "d": 272.7270000000135,
      "v": 127
    },
    {
      "midi": 68,
      "hit": false,
      "t": 152454.39300000234,
      "d": 272.7270000000135,
      "v": 127
    },
    {
      "midi": 71,
      "hit": false,
      "t": 152454.39300000234,
      "d": 272.7270000000135,
      "v": 127
    },
    {
      "midi": 47,
      "hit": false,
      "t": 152727.12000000064,
      "d": 545.4539999999979,
      "v": 127
    },
    {
      "midi": 71,
      "hit": false,
      "t": 152727.12000000235,
      "d": 272.7270000000135,
      "v": 127
    },
    {
      "midi": 81,
      "hit": false,
      "t": 152727.12000000235,
      "d": 272.7270000000135,
      "v": 127
    },
    {
      "midi": 71,
      "hit": false,
      "t": 152999.84700000237,
      "d": 272.7270000000135,
      "v": 127
    },
    {
      "midi": 80,
      "hit": false,
      "t": 152999.84700000237,
      "d": 272.7270000000135,
      "v": 127
    },
    {
      "midi": 69,
      "hit": false,
      "t": 153272.57400000063,
      "d": 272.7270000000135,
      "v": 127
    },
    {
      "midi": 71,
      "hit": false,
      "t": 153272.57400000238,
      "d": 272.7270000000135,
      "v": 127
    },
    {
      "midi": 78,
      "hit": false,
      "t": 153272.57400000238,
      "d": 272.7270000000135,
      "v": 127
    },
    {
      "midi": 68,
      "hit": false,
      "t": 153545.30100000065,
      "d": 272.7270000000135,
      "v": 127
    },
    {
      "midi": 71,
      "hit": false,
      "t": 153545.3010000024,
      "d": 272.7270000000135,
      "v": 127
    },
    {
      "midi": 76,
      "hit": false,
      "t": 153545.3010000024,
      "d": 272.7270000000135,
      "v": 127
    },
    {
      "midi": 66,
      "hit": false,
      "t": 153818.02800000066,
      "d": 272.7270000000135,
      "v": 127
    },
    {
      "midi": 71,
      "hit": false,
      "t": 153818.0280000024,
      "d": 272.7270000000135,
      "v": 127
    },
    {
      "midi": 75,
      "hit": false,
      "t": 153818.0280000024,
      "d": 272.7270000000135,
      "v": 127
    },
    {
      "midi": 64,
      "hit": false,
      "t": 154090.75500000067,
      "d": 272.7270000000135,
      "v": 127
    },
    {
      "midi": 71,
      "hit": false,
      "t": 154090.75500000242,
      "d": 272.7270000000135,
      "v": 127
    },
    {
      "midi": 73,
      "hit": false,
      "t": 154090.75500000242,
      "d": 272.7270000000135,
      "v": 127
    },
    {
      "midi": 63,
      "hit": false,
      "t": 154363.4820000007,
      "d": 272.7270000000135,
      "v": 127
    },
    {
      "midi": 71,
      "hit": false,
      "t": 154363.48200000243,
      "d": 272.7270000000135,
      "v": 127
    },
    {
      "midi": 59,
      "hit": false,
      "t": 154636.2090000007,
      "d": 272.7270000000135,
      "v": 127
    },
    {
      "midi": 69,
      "hit": false,
      "t": 154636.20900000245,
      "d": 272.7270000000135,
      "v": 127
    },
    {
      "midi": 71,
      "hit": false,
      "t": 154636.20900000245,
      "d": 272.7270000000135,
      "v": 127
    },
    {
      "midi": 64,
      "hit": false,
      "t": 154908.93600000071,
      "d": 272.7270000000135,
      "v": 127
    },
    {
      "midi": 68,
      "hit": false,
      "t": 154908.93600000246,
      "d": 272.7270000000135,
      "v": 127
    },
    {
      "midi": 71,
      "hit": false,
      "t": 154908.93600000246,
      "d": 272.7270000000135,
      "v": 127
    },
    {
      "midi": 57,
      "hit": false,
      "t": 155181.66300000073,
      "d": 272.7270000000135,
      "v": 127
    },
    {
      "midi": 66,
      "hit": false,
      "t": 155181.66300000247,
      "d": 272.7270000000135,
      "v": 127
    },
    {
      "midi": 69,
      "hit": false,
      "t": 155181.66300000247,
      "d": 272.7270000000135,
      "v": 127
    },
    {
      "midi": 59,
      "hit": false,
      "t": 155454.39000000074,
      "d": 272.7270000000135,
      "v": 127
    },
    {
      "midi": 64,
      "hit": false,
      "t": 155454.3900000025,
      "d": 272.7270000000135,
      "v": 127
    },
    {
      "midi": 68,
      "hit": false,
      "t": 155454.3900000025,
      "d": 272.7270000000135,
      "v": 127
    },
    {
      "midi": 47,
      "hit": false,
      "t": 155727.11700000076,
      "d": 272.7270000000135,
      "v": 127
    },
    {
      "midi": 63,
      "hit": false,
      "t": 155727.1170000025,
      "d": 272.7270000000135,
      "v": 127
    },
    {
      "midi": 66,
      "hit": false,
      "t": 155727.1170000025,
      "d": 272.7270000000135,
      "v": 127
    },
    {
      "midi": 52,
      "hit": false,
      "t": 155999.84400000077,
      "d": 272.7270000000135,
      "v": 127
    },
    {
      "midi": 64,
      "hit": false,
      "t": 155999.84400000251,
      "d": 545.4539999999979,
      "v": 127
    },
    {
      "midi": 47,
      "hit": false,
      "t": 156272.57100000078,
      "d": 272.7270000000135,
      "v": 127
    },
    {
      "midi": 40,
      "hit": false,
      "t": 156545.2980000008,
      "d": 545.4539999999979,
      "v": 127
    },
    {
      "midi": 71,
      "hit": false,
      "t": 156818.02500000253,
      "d": 272.7270000000135,
      "v": 127
    },
    {
      "midi": 71,
      "hit": false,
      "t": 157090.75200000254,
      "d": 272.7270000000135,
      "v": 127
    },
    {
      "midi": 81,
      "hit": false,
      "t": 157090.75200000254,
      "d": 272.7270000000135,
      "v": 127
    },
    {
      "midi": 71,
      "hit": false,
      "t": 157363.4790000008,
      "d": 272.7270000000135,
      "v": 127
    },
    {
      "midi": 71,
      "hit": false,
      "t": 157363.47900000255,
      "d": 272.7270000000135,
      "v": 127
    },
    {
      "midi": 80,
      "hit": false,
      "t": 157363.47900000255,
      "d": 272.7270000000135,
      "v": 127
    },
    {
      "midi": 69,
      "hit": false,
      "t": 157636.20600000082,
      "d": 272.7270000000135,
      "v": 127
    },
    {
      "midi": 71,
      "hit": false,
      "t": 157636.20600000257,
      "d": 272.7270000000135,
      "v": 127
    },
    {
      "midi": 78,
      "hit": false,
      "t": 157636.20600000257,
      "d": 272.7270000000135,
      "v": 127
    },
    {
      "midi": 68,
      "hit": false,
      "t": 157908.93300000083,
      "d": 272.7270000000135,
      "v": 127
    },
    {
      "midi": 71,
      "hit": false,
      "t": 157908.93300000258,
      "d": 272.7270000000135,
      "v": 127
    },
    {
      "midi": 76,
      "hit": false,
      "t": 157908.93300000258,
      "d": 272.7270000000135,
      "v": 127
    },
    {
      "midi": 66,
      "hit": false,
      "t": 158181.66000000085,
      "d": 272.7270000000135,
      "v": 127
    },
    {
      "midi": 71,
      "hit": false,
      "t": 158181.6600000026,
      "d": 272.7270000000135,
      "v": 127
    },
    {
      "midi": 75,
      "hit": false,
      "t": 158181.6600000026,
      "d": 272.7270000000135,
      "v": 127
    },
    {
      "midi": 64,
      "hit": false,
      "t": 158454.38700000086,
      "d": 272.7270000000135,
      "v": 127
    },
    {
      "midi": 71,
      "hit": false,
      "t": 158454.3870000026,
      "d": 272.7270000000135,
      "v": 127
    },
    {
      "midi": 73,
      "hit": false,
      "t": 158454.3870000026,
      "d": 272.7270000000135,
      "v": 127
    },
    {
      "midi": 63,
      "hit": false,
      "t": 158727.11400000087,
      "d": 272.7270000000135,
      "v": 127
    },
    {
      "midi": 71,
      "hit": false,
      "t": 158727.11400000262,
      "d": 272.7270000000135,
      "v": 127
    },
    {
      "midi": 59,
      "hit": false,
      "t": 158999.8410000009,
      "d": 272.7270000000135,
      "v": 127
    },
    {
      "midi": 69,
      "hit": false,
      "t": 158999.84100000263,
      "d": 272.7270000000135,
      "v": 127
    },
    {
      "midi": 71,
      "hit": false,
      "t": 158999.84100000263,
      "d": 272.7270000000135,
      "v": 127
    },
    {
      "midi": 64,
      "hit": false,
      "t": 159272.5680000009,
      "d": 272.7270000000135,
      "v": 127
    },
    {
      "midi": 68,
      "hit": false,
      "t": 159272.56800000265,
      "d": 272.7270000000135,
      "v": 127
    },
    {
      "midi": 71,
      "hit": false,
      "t": 159272.56800000265,
      "d": 272.7270000000135,
      "v": 127
    },
    {
      "midi": 57,
      "hit": false,
      "t": 159545.29500000092,
      "d": 272.7270000000135,
      "v": 127
    },
    {
      "midi": 66,
      "hit": false,
      "t": 159545.29500000266,
      "d": 272.7270000000135,
      "v": 127
    },
    {
      "midi": 71,
      "hit": false,
      "t": 159545.29500000266,
      "d": 272.7270000000135,
      "v": 127
    },
    {
      "midi": 56,
      "hit": false,
      "t": 159818.02200000093,
      "d": 272.7270000000135,
      "v": 127
    },
    {
      "midi": 64,
      "hit": false,
      "t": 159818.02200000267,
      "d": 272.7270000000135,
      "v": 127
    },
    {
      "midi": 71,
      "hit": false,
      "t": 159818.02200000267,
      "d": 272.7270000000135,
      "v": 127
    },
    {
      "midi": 54,
      "hit": false,
      "t": 160090.74900000094,
      "d": 272.7270000000135,
      "v": 127
    },
    {
      "midi": 63,
      "hit": false,
      "t": 160090.7490000027,
      "d": 272.7270000000135,
      "v": 127
    },
    {
      "midi": 71,
      "hit": false,
      "t": 160090.7490000027,
      "d": 272.7270000000135,
      "v": 127
    },
    {
      "midi": 56,
      "hit": false,
      "t": 160363.47600000096,
      "d": 272.7270000000135,
      "v": 127
    },
    {
      "midi": 64,
      "hit": false,
      "t": 160363.4760000027,
      "d": 272.7270000000135,
      "v": 127
    },
    {
      "midi": 71,
      "hit": false,
      "t": 160363.4760000027,
      "d": 272.7270000000135,
      "v": 127
    },
    {
      "midi": 57,
      "hit": false,
      "t": 160636.20300000097,
      "d": 272.7270000000135,
      "v": 127
    },
    {
      "midi": 63,
      "hit": false,
      "t": 160636.20300000272,
      "d": 272.7270000000135,
      "v": 127
    },
    {
      "midi": 71,
      "hit": false,
      "t": 160636.20300000272,
      "d": 272.7270000000135,
      "v": 127
    },
    {
      "midi": 56,
      "hit": false,
      "t": 160908.93000000098,
      "d": 272.7270000000135,
      "v": 127
    },
    {
      "midi": 64,
      "hit": false,
      "t": 160908.93000000273,
      "d": 272.7270000000135,
      "v": 127
    },
    {
      "midi": 71,
      "hit": false,
      "t": 160908.93000000273,
      "d": 272.7270000000135,
      "v": 127
    },
    {
      "midi": 52,
      "hit": false,
      "t": 161181.657000001,
      "d": 272.7270000000135,
      "v": 127
    },
    {
      "midi": 68,
      "hit": false,
      "t": 161181.65700000274,
      "d": 272.7270000000135,
      "v": 127
    },
    {
      "midi": 71,
      "hit": false,
      "t": 161181.65700000274,
      "d": 272.7270000000135,
      "v": 127
    },
    {
      "midi": 47,
      "hit": false,
      "t": 161454.384000001,
      "d": 545.4539999999979,
      "v": 127
    },
    {
      "midi": 71,
      "hit": false,
      "t": 161454.38400000276,
      "d": 272.7270000000135,
      "v": 127
    },
    {
      "midi": 81,
      "hit": false,
      "t": 161454.38400000276,
      "d": 272.7270000000135,
      "v": 127
    },
    {
      "midi": 71,
      "hit": false,
      "t": 161727.11100000277,
      "d": 272.7270000000135,
      "v": 127
    },
    {
      "midi": 80,
      "hit": false,
      "t": 161727.11100000277,
      "d": 272.7270000000135,
      "v": 127
    },
    {
      "midi": 69,
      "hit": false,
      "t": 161999.838000001,
      "d": 272.7270000000135,
      "v": 127
    },
    {
      "midi": 71,
      "hit": false,
      "t": 161999.83800000278,
      "d": 272.7270000000135,
      "v": 127
    },
    {
      "midi": 78,
      "hit": false,
      "t": 161999.83800000278,
      "d": 272.7270000000135,
      "v": 127
    },
    {
      "midi": 68,
      "hit": false,
      "t": 162272.56500000102,
      "d": 272.7270000000135,
      "v": 127
    },
    {
      "midi": 71,
      "hit": false,
      "t": 162272.5650000028,
      "d": 272.7270000000135,
      "v": 127
    },
    {
      "midi": 76,
      "hit": false,
      "t": 162272.5650000028,
      "d": 272.7270000000135,
      "v": 127
    },
    {
      "midi": 66,
      "hit": false,
      "t": 162545.29200000103,
      "d": 272.7270000000135,
      "v": 127
    },
    {
      "midi": 71,
      "hit": false,
      "t": 162545.2920000028,
      "d": 272.7270000000135,
      "v": 127
    },
    {
      "midi": 75,
      "hit": false,
      "t": 162545.2920000028,
      "d": 272.7270000000135,
      "v": 127
    },
    {
      "midi": 64,
      "hit": false,
      "t": 162818.01900000105,
      "d": 272.7270000000135,
      "v": 127
    },
    {
      "midi": 71,
      "hit": false,
      "t": 162818.01900000282,
      "d": 272.7270000000135,
      "v": 127
    },
    {
      "midi": 73,
      "hit": false,
      "t": 162818.01900000282,
      "d": 272.7270000000135,
      "v": 127
    },
    {
      "midi": 63,
      "hit": false,
      "t": 163090.74600000106,
      "d": 272.7270000000135,
      "v": 127
    },
    {
      "midi": 71,
      "hit": false,
      "t": 163090.74600000284,
      "d": 272.7270000000135,
      "v": 127
    },
    {
      "midi": 59,
      "hit": false,
      "t": 163363.47300000107,
      "d": 272.7270000000135,
      "v": 127
    },
    {
      "midi": 69,
      "hit": false,
      "t": 163363.47300000285,
      "d": 272.7270000000135,
      "v": 127
    },
    {
      "midi": 71,
      "hit": false,
      "t": 163363.47300000285,
      "d": 272.7270000000135,
      "v": 127
    },
    {
      "midi": 64,
      "hit": false,
      "t": 163636.2000000011,
      "d": 272.7270000000135,
      "v": 127
    },
    {
      "midi": 68,
      "hit": false,
      "t": 163636.20000000286,
      "d": 272.7270000000135,
      "v": 127
    },
    {
      "midi": 71,
      "hit": false,
      "t": 163636.20000000286,
      "d": 272.7270000000135,
      "v": 127
    },
    {
      "midi": 57,
      "hit": false,
      "t": 163908.9270000011,
      "d": 272.7270000000135,
      "v": 127
    },
    {
      "midi": 66,
      "hit": false,
      "t": 163908.92700000288,
      "d": 272.7270000000135,
      "v": 127
    },
    {
      "midi": 69,
      "hit": false,
      "t": 163908.92700000288,
      "d": 272.7270000000135,
      "v": 127
    },
    {
      "midi": 59,
      "hit": false,
      "t": 164181.65400000112,
      "d": 272.7270000000135,
      "v": 127
    },
    {
      "midi": 64,
      "hit": false,
      "t": 164181.6540000029,
      "d": 272.7270000000135,
      "v": 127
    },
    {
      "midi": 68,
      "hit": false,
      "t": 164181.6540000029,
      "d": 272.7270000000135,
      "v": 127
    },
    {
      "midi": 47,
      "hit": false,
      "t": 164454.38100000113,
      "d": 272.7270000000135,
      "v": 127
    },
    {
      "midi": 63,
      "hit": false,
      "t": 164454.3810000029,
      "d": 272.7270000000135,
      "v": 127
    },
    {
      "midi": 66,
      "hit": false,
      "t": 164454.3810000029,
      "d": 272.7270000000135,
      "v": 127
    },
    {
      "midi": 52,
      "hit": false,
      "t": 164727.10800000114,
      "d": 272.7270000000135,
      "v": 127
    },
    {
      "midi": 64,
      "hit": false,
      "t": 164727.10800000292,
      "d": 545.4539999999979,
      "v": 127
    },
    {
      "midi": 47,
      "hit": false,
      "t": 164999.83500000116,
      "d": 272.7270000000135,
      "v": 127
    },
    {
      "midi": 40,
      "hit": false,
      "t": 165272.56200000117,
      "d": 545.4539999999979,
      "v": 127
    },
    {
      "midi": 71,
      "hit": false,
      "t": 165545.28900000293,
      "d": 272.7270000000135,
      "v": 127
    },
    {
      "midi": 71,
      "hit": false,
      "t": 165818.01600000294,
      "d": 545.4539999999979,
      "v": 127
    },
    {
      "midi": 76,
      "hit": false,
      "t": 165818.01600000294,
      "d": 545.4539999999979,
      "v": 127
    },
    {
      "midi": 80,
      "hit": false,
      "t": 165818.01600000294,
      "d": 545.4539999999979,
      "v": 127
    },
    {
      "midi": 83,
      "hit": false,
      "t": 165818.01600000294,
      "d": 545.4539999999979,
      "v": 127
    },
    {
      "midi": 40,
      "hit": false,
      "t": 166090.74300000118,
      "d": 272.7270000000135,
      "v": 127
    },
    {
      "midi": 44,
      "hit": false,
      "t": 166363.4700000012,
      "d": 272.7270000000135,
      "v": 127
    },
    {
      "midi": 68,
      "hit": false,
      "t": 166363.47000000294,
      "d": 545.4539999999979,
      "v": 127
    },
    {
      "midi": 71,
      "hit": false,
      "t": 166363.47000000294,
      "d": 545.4539999999979,
      "v": 127
    },
    {
      "midi": 76,
      "hit": false,
      "t": 166363.47000000294,
      "d": 545.4539999999979,
      "v": 127
    },
    {
      "midi": 80,
      "hit": false,
      "t": 166363.47000000294,
      "d": 545.4539999999979,
      "v": 127
    },
    {
      "midi": 47,
      "hit": false,
      "t": 166636.1970000012,
      "d": 272.7270000000135,
      "v": 127
    },
    {
      "midi": 52,
      "hit": false,
      "t": 166908.92400000122,
      "d": 272.7270000000135,
      "v": 127
    },
    {
      "midi": 64,
      "hit": false,
      "t": 166908.92400000294,
      "d": 545.4539999999979,
      "v": 127
    },
    {
      "midi": 68,
      "hit": false,
      "t": 166908.92400000294,
      "d": 545.4539999999979,
      "v": 127
    },
    {
      "midi": 71,
      "hit": false,
      "t": 166908.92400000294,
      "d": 545.4539999999979,
      "v": 127
    },
    {
      "midi": 76,
      "hit": false,
      "t": 166908.92400000294,
      "d": 545.4539999999979,
      "v": 127
    },
    {
      "midi": 56,
      "hit": false,
      "t": 167181.65100000123,
      "d": 272.7270000000135,
      "v": 127
    },
    {
      "midi": 59,
      "hit": false,
      "t": 167454.37800000125,
      "d": 272.7270000000135,
      "v": 127
    },
    {
      "midi": 62,
      "hit": false,
      "t": 167727.10500000126,
      "d": 272.7270000000135,
      "v": 127
    },
    {
      "midi": 64,
      "hit": false,
      "t": 167727.10500000295,
      "d": 272.7270000000135,
      "v": 127
    },
    {
      "midi": 68,
      "hit": false,
      "t": 167727.10500000295,
      "d": 272.7270000000135,
      "v": 127
    },
    {
      "midi": 60,
      "hit": false,
      "t": 167999.83200000128,
      "d": 272.7270000000135,
      "v": 127
    },
    {
      "midi": 64,
      "hit": false,
      "t": 167999.83200000296,
      "d": 272.7270000000135,
      "v": 127
    },
    {
      "midi": 69,
      "hit": false,
      "t": 167999.83200000296,
      "d": 272.7270000000135,
      "v": 127
    },
    {
      "midi": 62,
      "hit": false,
      "t": 168272.5590000013,
      "d": 272.7270000000135,
      "v": 127
    },
    {
      "midi": 64,
      "hit": false,
      "t": 168272.55900000298,
      "d": 272.7270000000135,
      "v": 127
    },
    {
      "midi": 68,
      "hit": false,
      "t": 168272.55900000298,
      "d": 272.7270000000135,
      "v": 127
    },
    {
      "midi": 60,
      "hit": false,
      "t": 168545.2860000013,
      "d": 272.7270000000135,
      "v": 127
    },
    {
      "midi": 64,
      "hit": false,
      "t": 168545.286000003,
      "d": 272.7270000000135,
      "v": 127
    },
    {
      "midi": 69,
      "hit": false,
      "t": 168545.286000003,
      "d": 272.7270000000135,
      "v": 127
    },
    {
      "midi": 56,
      "hit": false,
      "t": 168818.01300000132,
      "d": 272.7270000000135,
      "v": 127
    },
    {
      "midi": 64,
      "hit": false,
      "t": 168818.013000003,
      "d": 272.7270000000135,
      "v": 127
    },
    {
      "midi": 71,
      "hit": false,
      "t": 168818.013000003,
      "d": 272.7270000000135,
      "v": 127
    },
    {
      "midi": 57,
      "hit": false,
      "t": 169090.74000000133,
      "d": 272.7270000000135,
      "v": 127
    },
    {
      "midi": 64,
      "hit": false,
      "t": 169090.74000000302,
      "d": 272.7270000000135,
      "v": 127
    },
    {
      "midi": 72,
      "hit": false,
      "t": 169090.74000000302,
      "d": 272.7270000000135,
      "v": 127
    },
    {
      "midi": 56,
      "hit": false,
      "t": 169363.46700000134,
      "d": 272.7270000000135,
      "v": 127
    },
    {
      "midi": 64,
      "hit": false,
      "t": 169363.46700000303,
      "d": 272.7270000000135,
      "v": 127
    },
    {
      "midi": 71,
      "hit": false,
      "t": 169363.46700000303,
      "d": 272.7270000000135,
      "v": 127
    },
    {
      "midi": 57,
      "hit": false,
      "t": 169636.19400000136,
      "d": 272.7270000000135,
      "v": 127
    },
    {
      "midi": 64,
      "hit": false,
      "t": 169636.19400000304,
      "d": 272.7270000000135,
      "v": 127
    },
    {
      "midi": 72,
      "hit": false,
      "t": 169636.19400000304,
      "d": 272.7270000000135,
      "v": 127
    },
    {
      "midi": 60,
      "hit": false,
      "t": 169908.92100000137,
      "d": 272.7270000000135,
      "v": 127
    },
    {
      "midi": 62,
      "hit": false,
      "t": 169908.92100000306,
      "d": 272.7270000000135,
      "v": 127
    },
    {
      "midi": 66,
      "hit": false,
      "t": 169908.92100000306,
      "d": 272.7270000000135,
      "v": 127
    },
    {
      "midi": 59,
      "hit": false,
      "t": 170181.64800000138,
      "d": 272.7270000000135,
      "v": 127
    },
    {
      "midi": 62,
      "hit": false,
      "t": 170181.64800000307,
      "d": 272.7270000000135,
      "v": 127
    },
    {
      "midi": 67,
      "hit": false,
      "t": 170181.64800000307,
      "d": 272.7270000000135,
      "v": 127
    },
    {
      "midi": 60,
      "hit": false,
      "t": 170454.3750000014,
      "d": 272.7270000000135,
      "v": 127
    },
    {
      "midi": 62,
      "hit": false,
      "t": 170454.37500000309,
      "d": 272.7270000000135,
      "v": 127
    },
    {
      "midi": 66,
      "hit": false,
      "t": 170454.37500000309,
      "d": 272.7270000000135,
      "v": 127
    },
    {
      "midi": 59,
      "hit": false,
      "t": 170727.1020000014,
      "d": 272.7270000000135,
      "v": 127
    },
    {
      "midi": 62,
      "hit": false,
      "t": 170727.1020000031,
      "d": 272.7270000000135,
      "v": 127
    },
    {
      "midi": 67,
      "hit": false,
      "t": 170727.1020000031,
      "d": 272.7270000000135,
      "v": 127
    },
    {
      "midi": 54,
      "hit": false,
      "t": 170999.82900000142,
      "d": 272.7270000000135,
      "v": 127
    },
    {
      "midi": 62,
      "hit": false,
      "t": 170999.8290000031,
      "d": 272.7270000000135,
      "v": 127
    },
    {
      "midi": 69,
      "hit": false,
      "t": 170999.8290000031,
      "d": 272.7270000000135,
      "v": 127
    },
    {
      "midi": 43,
      "hit": false,
      "t": 171272.55600000144,
      "d": 136.36350000000675,
      "v": 127
    },
    {
      "midi": 71,
      "hit": false,
      "t": 171272.55600000313,
      "d": 545.4539999999979,
      "v": 127
    },
    {
      "midi": 59,
      "hit": false,
      "t": 171408.91950000144,
      "d": 136.36350000000675,
      "v": 127
    },
    {
      "midi": 50,
      "hit": false,
      "t": 171545.28300000145,
      "d": 136.36350000000675,
      "v": 127
    },
    {
      "midi": 59,
      "hit": false,
      "t": 171681.64650000146,
      "d": 136.36350000000675,
      "v": 127
    },
    {
      "midi": 55,
      "hit": false,
      "t": 171818.01000000146,
      "d": 136.36350000000675,
      "v": 127
    },
    {
      "midi": 74,
      "hit": false,
      "t": 171818.01000000312,
      "d": 272.7270000000135,
      "v": 127
    },
    {
      "midi": 59,
      "hit": false,
      "t": 171954.37350000147,
      "d": 136.36350000000675,
      "v": 127
    },
    {
      "midi": 50,
      "hit": false,
      "t": 172090.73700000148,
      "d": 136.36350000000675,
      "v": 127
    },
    {
      "midi": 74,
      "hit": false,
      "t": 172090.73700000314,
      "d": 272.7270000000135,
      "v": 127
    },
    {
      "midi": 59,
      "hit": false,
      "t": 172227.10050000148,
      "d": 136.36350000000675,
      "v": 127
    },
    {
      "midi": 43,
      "hit": false,
      "t": 172363.4640000015,
      "d": 136.36350000000675,
      "v": 127
    },
    {
      "midi": 79,
      "hit": false,
      "t": 172363.46400000315,
      "d": 272.7270000000135,
      "v": 127
    },
    {
      "midi": 59,
      "hit": false,
      "t": 172499.8275000015,
      "d": 136.36350000000675,
      "v": 127
    },
    {
      "midi": 50,
      "hit": false,
      "t": 172636.1910000015,
      "d": 136.36350000000675,
      "v": 127
    },
    {
      "midi": 79,
      "hit": false,
      "t": 172636.19100000316,
      "d": 272.7270000000135,
      "v": 127
    },
    {
      "midi": 59,
      "hit": false,
      "t": 172772.5545000015,
      "d": 136.36350000000675,
      "v": 127
    },
    {
      "midi": 55,
      "hit": false,
      "t": 172908.91800000152,
      "d": 136.36350000000675,
      "v": 127
    },
    {
      "midi": 83,
      "hit": false,
      "t": 172908.91800000318,
      "d": 545.4539999999979,
      "v": 127
    },
    {
      "midi": 59,
      "hit": false,
      "t": 173045.28150000153,
      "d": 136.36350000000675,
      "v": 127
    },
    {
      "midi": 50,
      "hit": false,
      "t": 173181.64500000153,
      "d": 136.36350000000675,
      "v": 127
    },
    {
      "midi": 59,
      "hit": false,
      "t": 173318.00850000154,
      "d": 136.36350000000675,
      "v": 127
    },
    {
      "midi": 43,
      "hit": false,
      "t": 173454.37200000155,
      "d": 136.36350000000675,
      "v": 127
    },
    {
      "midi": 86,
      "hit": false,
      "t": 173454.37200000318,
      "d": 136.36350000000675,
      "v": 127
    },
    {
      "midi": 60,
      "hit": false,
      "t": 173590.73550000155,
      "d": 136.36350000000675,
      "v": 127
    },
    {
      "midi": 84,
      "hit": false,
      "t": 173590.73550000318,
      "d": 136.36350000000675,
      "v": 127
    },
    {
      "midi": 50,
      "hit": false,
      "t": 173727.09900000156,
      "d": 136.36350000000675,
      "v": 127
    },
    {
      "midi": 86,
      "hit": false,
      "t": 173727.0990000032,
      "d": 136.36350000000675,
      "v": 127
    },
    {
      "midi": 60,
      "hit": false,
      "t": 173863.46250000157,
      "d": 136.36350000000675,
      "v": 127
    },
    {
      "midi": 84,
      "hit": false,
      "t": 173863.4625000032,
      "d": 136.36350000000675,
      "v": 127
    },
    {
      "midi": 54,
      "hit": false,
      "t": 173999.82600000157,
      "d": 136.36350000000675,
      "v": 127
    },
    {
      "midi": 81,
      "hit": false,
      "t": 173999.8260000032,
      "d": 545.4539999999979,
      "v": 127
    },
    {
      "midi": 60,
      "hit": false,
      "t": 174136.18950000158,
      "d": 136.36350000000675,
      "v": 127
    },
    {
      "midi": 50,
      "hit": false,
      "t": 174272.5530000016,
      "d": 136.36350000000675,
      "v": 127
    },
    {
      "midi": 60,
      "hit": false,
      "t": 174408.9165000016,
      "d": 136.36350000000675,
      "v": 127
    },
    {
      "midi": 43,
      "hit": false,
      "t": 174545.2800000016,
      "d": 136.36350000000675,
      "v": 127
    },
    {
      "midi": 86,
      "hit": false,
      "t": 174545.2800000032,
      "d": 136.36350000000675,
      "v": 127
    },
    {
      "midi": 60,
      "hit": false,
      "t": 174681.6435000016,
      "d": 136.36350000000675,
      "v": 127
    },
    {
      "midi": 84,
      "hit": false,
      "t": 174681.6435000032,
      "d": 136.36350000000675,
      "v": 127
    },
    {
      "midi": 50,
      "hit": false,
      "t": 174818.0070000016,
      "d": 136.36350000000675,
      "v": 127
    },
    {
      "midi": 86,
      "hit": false,
      "t": 174818.0070000032,
      "d": 136.36350000000675,
      "v": 127
    },
    {
      "midi": 60,
      "hit": false,
      "t": 174954.37050000162,
      "d": 136.36350000000675,
      "v": 127
    },
    {
      "midi": 84,
      "hit": false,
      "t": 174954.37050000322,
      "d": 136.36350000000675,
      "v": 127
    },
    {
      "midi": 54,
      "hit": false,
      "t": 175090.73400000163,
      "d": 136.36350000000675,
      "v": 127
    },
    {
      "midi": 81,
      "hit": false,
      "t": 175090.73400000323,
      "d": 545.4539999999979,
      "v": 127
    },
    {
      "midi": 60,
      "hit": false,
      "t": 175227.09750000163,
      "d": 136.36350000000675,
      "v": 127
    },
    {
      "midi": 50,
      "hit": false,
      "t": 175363.46100000164,
      "d": 136.36350000000675,
      "v": 127
    },
    {
      "midi": 60,
      "hit": false,
      "t": 175499.82450000165,
      "d": 136.36350000000675,
      "v": 127
    },
    {
      "midi": 43,
      "hit": false,
      "t": 175636.18800000165,
      "d": 136.36350000000675,
      "v": 127
    },
    {
      "midi": 71,
      "hit": false,
      "t": 175636.18800000323,
      "d": 545.4539999999979,
      "v": 127
    },
    {
      "midi": 59,
      "hit": false,
      "t": 175772.55150000166,
      "d": 136.36350000000675,
      "v": 127
    },
    {
      "midi": 50,
      "hit": false,
      "t": 175908.91500000167,
      "d": 136.36350000000675,
      "v": 127
    },
    {
      "midi": 59,
      "hit": false,
      "t": 176045.27850000167,
      "d": 136.36350000000675,
      "v": 127
    },
    {
      "midi": 55,
      "hit": false,
      "t": 176181.64200000168,
      "d": 136.36350000000675,
      "v": 127
    },
    {
      "midi": 74,
      "hit": false,
      "t": 176181.64200000322,
      "d": 272.7270000000135,
      "v": 127
    },
    {
      "midi": 59,
      "hit": false,
      "t": 176318.0055000017,
      "d": 136.36350000000675,
      "v": 127
    },
    {
      "midi": 50,
      "hit": false,
      "t": 176454.3690000017,
      "d": 136.36350000000675,
      "v": 127
    },
    {
      "midi": 74,
      "hit": false,
      "t": 176454.36900000324,
      "d": 272.7270000000135,
      "v": 127
    },
    {
      "midi": 59,
      "hit": false,
      "t": 176590.7325000017,
      "d": 136.36350000000675,
      "v": 127
    },
    {
      "midi": 43,
      "hit": false,
      "t": 176727.0960000017,
      "d": 136.36350000000675,
      "v": 127
    },
    {
      "midi": 79,
      "hit": false,
      "t": 176727.09600000325,
      "d": 272.7270000000135,
      "v": 127
    },
    {
      "midi": 59,
      "hit": false,
      "t": 176863.4595000017,
      "d": 136.36350000000675,
      "v": 127
    },
    {
      "midi": 50,
      "hit": false,
      "t": 176999.82300000172,
      "d": 136.36350000000675,
      "v": 127
    },
    {
      "midi": 79,
      "hit": false,
      "t": 176999.82300000326,
      "d": 272.7270000000135,
      "v": 127
    },
    {
      "midi": 59,
      "hit": false,
      "t": 177136.18650000173,
      "d": 136.36350000000675,
      "v": 127
    },
    {
      "midi": 55,
      "hit": false,
      "t": 177272.55000000173,
      "d": 136.36350000000675,
      "v": 127
    },
    {
      "midi": 83,
      "hit": false,
      "t": 177272.55000000328,
      "d": 545.4539999999979,
      "v": 127
    },
    {
      "midi": 59,
      "hit": false,
      "t": 177408.91350000174,
      "d": 136.36350000000675,
      "v": 127
    },
    {
      "midi": 50,
      "hit": false,
      "t": 177545.27700000175,
      "d": 136.36350000000675,
      "v": 127
    },
    {
      "midi": 59,
      "hit": false,
      "t": 177681.64050000175,
      "d": 136.36350000000675,
      "v": 127
    },
    {
      "midi": 43,
      "hit": false,
      "t": 177818.00400000176,
      "d": 136.36350000000675,
      "v": 127
    },
    {
      "midi": 86,
      "hit": false,
      "t": 177818.00400000327,
      "d": 136.36350000000675,
      "v": 127
    },
    {
      "midi": 60,
      "hit": false,
      "t": 177954.36750000177,
      "d": 136.36350000000675,
      "v": 127
    },
    {
      "midi": 84,
      "hit": false,
      "t": 177954.36750000328,
      "d": 136.36350000000675,
      "v": 127
    },
    {
      "midi": 50,
      "hit": false,
      "t": 178090.73100000178,
      "d": 136.36350000000675,
      "v": 127
    },
    {
      "midi": 86,
      "hit": false,
      "t": 178090.7310000033,
      "d": 136.36350000000675,
      "v": 127
    },
    {
      "midi": 60,
      "hit": false,
      "t": 178227.09450000178,
      "d": 136.36350000000675,
      "v": 127
    },
    {
      "midi": 84,
      "hit": false,
      "t": 178227.0945000033,
      "d": 136.36350000000675,
      "v": 127
    },
    {
      "midi": 54,
      "hit": false,
      "t": 178363.4580000018,
      "d": 136.36350000000675,
      "v": 127
    },
    {
      "midi": 81,
      "hit": false,
      "t": 178363.4580000033,
      "d": 272.7270000000135,
      "v": 127
    },
    {
      "midi": 60,
      "hit": false,
      "t": 178499.8215000018,
      "d": 136.36350000000675,
      "v": 127
    },
    {
      "midi": 50,
      "hit": false,
      "t": 178636.1850000018,
      "d": 136.36350000000675,
      "v": 127
    },
    {
      "midi": 81,
      "hit": false,
      "t": 178636.18500000332,
      "d": 136.36350000000675,
      "v": 127
    },
    {
      "midi": 60,
      "hit": false,
      "t": 178772.5485000018,
      "d": 136.36350000000675,
      "v": 127
    },
    {
      "midi": 83,
      "hit": false,
      "t": 178772.54850000332,
      "d": 136.36350000000675,
      "v": 127
    },
    {
      "midi": 43,
      "hit": false,
      "t": 178908.91200000182,
      "d": 136.36350000000675,
      "v": 127
    },
    {
      "midi": 79,
      "hit": false,
      "t": 178908.91200000333,
      "d": 545.4539999999979,
      "v": 127
    },
    {
      "midi": 59,
      "hit": false,
      "t": 179045.27550000182,
      "d": 136.36350000000675,
      "v": 127
    },
    {
      "midi": 50,
      "hit": false,
      "t": 179181.63900000183,
      "d": 136.36350000000675,
      "v": 127
    },
    {
      "midi": 59,
      "hit": false,
      "t": 179318.00250000184,
      "d": 136.36350000000675,
      "v": 127
    },
    {
      "midi": 43,
      "hit": false,
      "t": 179454.36600000184,
      "d": 545.4539999999979,
      "v": 127
    },
    {
      "midi": 52,
      "hit": false,
      "t": 179999.82000000184,
      "d": 136.36350000000675,
      "v": 127
    },
    {
      "midi": 83,
      "hit": false,
      "t": 179999.82000000332,
      "d": 136.36350000000675,
      "v": 127
    },
    {
      "midi": 64,
      "hit": false,
      "t": 180136.18350000185,
      "d": 136.36350000000675,
      "v": 127
    },
    {
      "midi": 81,
      "hit": false,
      "t": 180136.18350000333,
      "d": 136.36350000000675,
      "v": 127
    },
    {
      "midi": 59,
      "hit": false,
      "t": 180272.54700000185,
      "d": 136.36350000000675,
      "v": 127
    },
    {
      "midi": 79,
      "hit": false,
      "t": 180272.54700000334,
      "d": 136.36350000000675,
      "v": 127
    },
    {
      "midi": 64,
      "hit": false,
      "t": 180408.91050000186,
      "d": 136.36350000000675,
      "v": 127
    },
    {
      "midi": 78,
      "hit": false,
      "t": 180408.91050000335,
      "d": 136.36350000000675,
      "v": 127
    },
    {
      "midi": 54,
      "hit": false,
      "t": 180545.27400000187,
      "d": 136.36350000000675,
      "v": 127
    },
    {
      "midi": 76,
      "hit": false,
      "t": 180545.27400000335,
      "d": 136.36350000000675,
      "v": 127
    },
    {
      "midi": 64,
      "hit": false,
      "t": 180681.63750000187,
      "d": 136.36350000000675,
      "v": 127
    },
    {
      "midi": 78,
      "hit": false,
      "t": 180681.63750000336,
      "d": 136.36350000000675,
      "v": 127
    },
    {
      "midi": 59,
      "hit": false,
      "t": 180818.00100000188,
      "d": 136.36350000000675,
      "v": 127
    },
    {
      "midi": 79,
      "hit": false,
      "t": 180818.00100000337,
      "d": 136.36350000000675,
      "v": 127
    },
    {
      "midi": 64,
      "hit": false,
      "t": 180954.3645000019,
      "d": 136.36350000000675,
      "v": 127
    },
    {
      "midi": 81,
      "hit": false,
      "t": 180954.36450000337,
      "d": 136.36350000000675,
      "v": 127
    },
    {
      "midi": 55,
      "hit": false,
      "t": 181090.7280000019,
      "d": 136.36350000000675,
      "v": 127
    },
    {
      "midi": 83,
      "hit": false,
      "t": 181090.72800000338,
      "d": 272.7270000000135,
      "v": 127
    },
    {
      "midi": 64,
      "hit": false,
      "t": 181227.0915000019,
      "d": 136.36350000000675,
      "v": 127
    },
    {
      "midi": 59,
      "hit": false,
      "t": 181363.4550000019,
      "d": 136.36350000000675,
      "v": 127
    },
    {
      "midi": 83,
      "hit": false,
      "t": 181363.4550000034,
      "d": 272.7270000000135,
      "v": 127
    },
    {
      "midi": 64,
      "hit": false,
      "t": 181499.81850000191,
      "d": 136.36350000000675,
      "v": 127
    },
    {
      "midi": 52,
      "hit": false,
      "t": 181636.18200000192,
      "d": 136.36350000000675,
      "v": 127
    },
    {
      "midi": 88,
      "hit": false,
      "t": 181636.1820000034,
      "d": 545.4539999999979,
      "v": 127
    },
    {
      "midi": 64,
      "hit": false,
      "t": 181772.54550000193,
      "d": 136.36350000000675,
      "v": 127
    },
    {
      "midi": 59,
      "hit": false,
      "t": 181908.90900000194,
      "d": 136.36350000000675,
      "v": 127
    },
    {
      "midi": 64,
      "hit": false,
      "t": 182045.27250000194,
      "d": 136.36350000000675,
      "v": 127
    },
    {
      "midi": 47,
      "hit": false,
      "t": 182181.63600000195,
      "d": 136.36350000000675,
      "v": 127
    },
    {
      "midi": 88,
      "hit": false,
      "t": 182181.6360000034,
      "d": 136.36350000000675,
      "v": 127
    },
    {
      "midi": 59,
      "hit": false,
      "t": 182317.99950000196,
      "d": 136.36350000000675,
      "v": 127
    },
    {
      "midi": 87,
      "hit": false,
      "t": 182317.9995000034,
      "d": 136.36350000000675,
      "v": 127
    },
    {
      "midi": 57,
      "hit": false,
      "t": 182454.36300000196,
      "d": 136.36350000000675,
      "v": 127
    },
    {
      "midi": 88,
      "hit": false,
      "t": 182454.36300000342,
      "d": 136.36350000000675,
      "v": 127
    },
    {
      "midi": 59,
      "hit": false,
      "t": 182590.72650000197,
      "d": 136.36350000000675,
      "v": 127
    },
    {
      "midi": 87,
      "hit": false,
      "t": 182590.72650000342,
      "d": 136.36350000000675,
      "v": 127
    },
    {
      "midi": 51,
      "hit": false,
      "t": 182727.09000000198,
      "d": 136.36350000000675,
      "v": 127
    },
    {
      "midi": 83,
      "hit": false,
      "t": 182727.09000000343,
      "d": 545.4539999999979,
      "v": 127
    },
    {
      "midi": 59,
      "hit": false,
      "t": 182863.45350000198,
      "d": 136.36350000000675,
      "v": 127
    },
    {
      "midi": 57,
      "hit": false,
      "t": 182999.817000002,
      "d": 136.36350000000675,
      "v": 127
    },
    {
      "midi": 59,
      "hit": false,
      "t": 183136.180500002,
      "d": 136.36350000000675,
      "v": 127
    },
    {
      "midi": 54,
      "hit": false,
      "t": 183272.544000002,
      "d": 136.36350000000675,
      "v": 127
    },
    {
      "midi": 88,
      "hit": false,
      "t": 183272.54400000343,
      "d": 136.36350000000675,
      "v": 127
    },
    {
      "midi": 59,
      "hit": false,
      "t": 183408.907500002,
      "d": 136.36350000000675,
      "v": 127
    },
    {
      "midi": 87,
      "hit": false,
      "t": 183408.90750000344,
      "d": 136.36350000000675,
      "v": 127
    },
    {
      "midi": 57,
      "hit": false,
      "t": 183545.27100000202,
      "d": 136.36350000000675,
      "v": 127
    },
    {
      "midi": 88,
      "hit": false,
      "t": 183545.27100000344,
      "d": 136.36350000000675,
      "v": 127
    },
    {
      "midi": 59,
      "hit": false,
      "t": 183681.63450000202,
      "d": 136.36350000000675,
      "v": 127
    },
    {
      "midi": 87,
      "hit": false,
      "t": 183681.63450000345,
      "d": 136.36350000000675,
      "v": 127
    },
    {
      "midi": 51,
      "hit": false,
      "t": 183817.99800000203,
      "d": 136.36350000000675,
      "v": 127
    },
    {
      "midi": 83,
      "hit": false,
      "t": 183817.99800000346,
      "d": 545.4539999999979,
      "v": 127
    },
    {
      "midi": 59,
      "hit": false,
      "t": 183954.36150000204,
      "d": 136.36350000000675,
      "v": 127
    },
    {
      "midi": 57,
      "hit": false,
      "t": 184090.72500000204,
      "d": 136.36350000000675,
      "v": 127
    },
    {
      "midi": 59,
      "hit": false,
      "t": 184227.08850000205,
      "d": 136.36350000000675,
      "v": 127
    },
    {
      "midi": 52,
      "hit": false,
      "t": 184363.45200000206,
      "d": 136.36350000000675,
      "v": 127
    },
    {
      "midi": 83,
      "hit": false,
      "t": 184363.45200000345,
      "d": 136.36350000000675,
      "v": 127
    },
    {
      "midi": 64,
      "hit": false,
      "t": 184499.81550000206,
      "d": 136.36350000000675,
      "v": 127
    },
    {
      "midi": 81,
      "hit": false,
      "t": 184499.81550000346,
      "d": 136.36350000000675,
      "v": 127
    },
    {
      "midi": 59,
      "hit": false,
      "t": 184636.17900000207,
      "d": 136.36350000000675,
      "v": 127
    },
    {
      "midi": 79,
      "hit": false,
      "t": 184636.17900000347,
      "d": 136.36350000000675,
      "v": 127
    },
    {
      "midi": 64,
      "hit": false,
      "t": 184772.54250000208,
      "d": 136.36350000000675,
      "v": 127
    },
    {
      "midi": 78,
      "hit": false,
      "t": 184772.54250000347,
      "d": 136.36350000000675,
      "v": 127
    },
    {
      "midi": 54,
      "hit": false,
      "t": 184908.90600000208,
      "d": 136.36350000000675,
      "v": 127
    },
    {
      "midi": 76,
      "hit": false,
      "t": 184908.90600000348,
      "d": 136.36350000000675,
      "v": 127
    },
    {
      "midi": 64,
      "hit": false,
      "t": 185045.2695000021,
      "d": 136.36350000000675,
      "v": 127
    },
    {
      "midi": 78,
      "hit": false,
      "t": 185045.2695000035,
      "d": 136.36350000000675,
      "v": 127
    },
    {
      "midi": 59,
      "hit": false,
      "t": 185181.6330000021,
      "d": 136.36350000000675,
      "v": 127
    },
    {
      "midi": 79,
      "hit": false,
      "t": 185181.6330000035,
      "d": 136.36350000000675,
      "v": 127
    },
    {
      "midi": 64,
      "hit": false,
      "t": 185317.9965000021,
      "d": 136.36350000000675,
      "v": 127
    },
    {
      "midi": 81,
      "hit": false,
      "t": 185317.9965000035,
      "d": 136.36350000000675,
      "v": 127
    },
    {
      "midi": 55,
      "hit": false,
      "t": 185454.3600000021,
      "d": 136.36350000000675,
      "v": 127
    },
    {
      "midi": 83,
      "hit": false,
      "t": 185454.3600000035,
      "d": 272.7270000000135,
      "v": 127
    },
    {
      "midi": 64,
      "hit": false,
      "t": 185590.72350000212,
      "d": 136.36350000000675,
      "v": 127
    },
    {
      "midi": 59,
      "hit": false,
      "t": 185727.08700000212,
      "d": 136.36350000000675,
      "v": 127
    },
    {
      "midi": 83,
      "hit": false,
      "t": 185727.08700000352,
      "d": 272.7270000000135,
      "v": 127
    },
    {
      "midi": 64,
      "hit": false,
      "t": 185863.45050000213,
      "d": 136.36350000000675,
      "v": 127
    },
    {
      "midi": 52,
      "hit": false,
      "t": 185999.81400000214,
      "d": 136.36350000000675,
      "v": 127
    },
    {
      "midi": 88,
      "hit": false,
      "t": 185999.81400000353,
      "d": 545.4539999999979,
      "v": 127
    },
    {
      "midi": 64,
      "hit": false,
      "t": 186136.17750000214,
      "d": 136.36350000000675,
      "v": 127
    },
    {
      "midi": 59,
      "hit": false,
      "t": 186272.54100000215,
      "d": 136.36350000000675,
      "v": 127
    },
    {
      "midi": 64,
      "hit": false,
      "t": 186408.90450000216,
      "d": 136.36350000000675,
      "v": 127
    },
    {
      "midi": 45,
      "hit": false,
      "t": 186545.26800000216,
      "d": 136.36350000000675,
      "v": 127
    },
    {
      "midi": 85,
      "hit": false,
      "t": 186545.26800000353,
      "d": 818.1810000000114,
      "v": 127
    },
    {
      "midi": 57,
      "hit": false,
      "t": 186681.63150000217,
      "d": 136.36350000000675,
      "v": 127
    },
    {
      "midi": 52,
      "hit": false,
      "t": 186817.99500000218,
      "d": 136.36350000000675,
      "v": 127
    },
    {
      "midi": 57,
      "hit": false,
      "t": 186954.35850000218,
      "d": 136.36350000000675,
      "v": 127
    },
    {
      "midi": 55,
      "hit": false,
      "t": 187090.7220000022,
      "d": 136.36350000000675,
      "v": 127
    },
    {
      "midi": 57,
      "hit": false,
      "t": 187227.0855000022,
      "d": 136.36350000000675,
      "v": 127
    },
    {
      "midi": 52,
      "hit": false,
      "t": 187363.4490000022,
      "d": 136.36350000000675,
      "v": 127
    },
    {
      "midi": 83,
      "hit": false,
      "t": 187363.44900000354,
      "d": 272.7270000000135,
      "v": 127
    },
    {
      "midi": 57,
      "hit": false,
      "t": 187499.8125000022,
      "d": 136.36350000000675,
      "v": 127
    },
    {
      "midi": 50,
      "hit": false,
      "t": 187636.17600000222,
      "d": 136.36350000000675,
      "v": 127
    },
    {
      "midi": 86,
      "hit": false,
      "t": 187636.17600000356,
      "d": 545.4539999999979,
      "v": 127
    },
    {
      "midi": 52,
      "hit": false,
      "t": 187772.53950000223,
      "d": 136.36350000000675,
      "v": 127
    },
    {
      "midi": 54,
      "hit": false,
      "t": 187908.90300000223,
      "d": 136.36350000000675,
      "v": 127
    },
    {
      "midi": 55,
      "hit": false,
      "t": 188045.26650000224,
      "d": 136.36350000000675,
      "v": 127
    },
    {
      "midi": 57,
      "hit": false,
      "t": 188181.63000000225,
      "d": 136.36350000000675,
      "v": 127
    },
    {
      "midi": 74,
      "hit": false,
      "t": 188181.63000000356,
      "d": 545.4539999999979,
      "v": 127
    },
    {
      "midi": 59,
      "hit": false,
      "t": 188317.99350000225,
      "d": 136.36350000000675,
      "v": 127
    },
    {
      "midi": 60,
      "hit": false,
      "t": 188454.35700000226,
      "d": 136.36350000000675,
      "v": 127
    },
    {
      "midi": 57,
      "hit": false,
      "t": 188590.72050000227,
      "d": 136.36350000000675,
      "v": 127
    },
    {
      "midi": 43,
      "hit": false,
      "t": 188727.08400000227,
      "d": 136.36350000000675,
      "v": 127
    },
    {
      "midi": 71,
      "hit": false,
      "t": 188727.08400000355,
      "d": 545.4539999999979,
      "v": 127
    },
    {
      "midi": 59,
      "hit": false,
      "t": 188863.44750000228,
      "d": 136.36350000000675,
      "v": 127
    },
    {
      "midi": 50,
      "hit": false,
      "t": 188999.8110000023,
      "d": 136.36350000000675,
      "v": 127
    },
    {
      "midi": 59,
      "hit": false,
      "t": 189136.1745000023,
      "d": 136.36350000000675,
      "v": 127
    },
    {
      "midi": 55,
      "hit": false,
      "t": 189272.5380000023,
      "d": 136.36350000000675,
      "v": 127
    },
    {
      "midi": 74,
      "hit": false,
      "t": 189272.53800000355,
      "d": 272.7270000000135,
      "v": 127
    },
    {
      "midi": 59,
      "hit": false,
      "t": 189408.9015000023,
      "d": 136.36350000000675,
      "v": 127
    },
    {
      "midi": 50,
      "hit": false,
      "t": 189545.2650000023,
      "d": 136.36350000000675,
      "v": 127
    },
    {
      "midi": 74,
      "hit": false,
      "t": 189545.26500000356,
      "d": 272.7270000000135,
      "v": 127
    },
    {
      "midi": 59,
      "hit": false,
      "t": 189681.62850000232,
      "d": 136.36350000000675,
      "v": 127
    },
    {
      "midi": 43,
      "hit": false,
      "t": 189817.99200000233,
      "d": 136.36350000000675,
      "v": 127
    },
    {
      "midi": 79,
      "hit": false,
      "t": 189817.99200000358,
      "d": 272.7270000000135,
      "v": 127
    },
    {
      "midi": 59,
      "hit": false,
      "t": 189954.35550000233,
      "d": 136.36350000000675,
      "v": 127
    },
    {
      "midi": 50,
      "hit": false,
      "t": 190090.71900000234,
      "d": 136.36350000000675,
      "v": 127
    },
    {
      "midi": 79,
      "hit": false,
      "t": 190090.7190000036,
      "d": 272.7270000000135,
      "v": 127
    },
    {
      "midi": 59,
      "hit": false,
      "t": 190227.08250000235,
      "d": 136.36350000000675,
      "v": 127
    },
    {
      "midi": 55,
      "hit": false,
      "t": 190363.44600000235,
      "d": 136.36350000000675,
      "v": 127
    },
    {
      "midi": 83,
      "hit": false,
      "t": 190363.4460000036,
      "d": 545.4539999999979,
      "v": 127
    },
    {
      "midi": 59,
      "hit": false,
      "t": 190499.80950000236,
      "d": 136.36350000000675,
      "v": 127
    },
    {
      "midi": 50,
      "hit": false,
      "t": 190636.17300000237,
      "d": 136.36350000000675,
      "v": 127
    },
    {
      "midi": 59,
      "hit": false,
      "t": 190772.53650000237,
      "d": 136.36350000000675,
      "v": 127
    },
    {
      "midi": 43,
      "hit": false,
      "t": 190908.90000000238,
      "d": 136.36350000000675,
      "v": 127
    },
    {
      "midi": 86,
      "hit": false,
      "t": 190908.9000000036,
      "d": 136.36350000000675,
      "v": 127
    },
    {
      "midi": 60,
      "hit": false,
      "t": 191045.2635000024,
      "d": 136.36350000000675,
      "v": 127
    },
    {
      "midi": 84,
      "hit": false,
      "t": 191045.2635000036,
      "d": 136.36350000000675,
      "v": 127
    },
    {
      "midi": 50,
      "hit": false,
      "t": 191181.6270000024,
      "d": 136.36350000000675,
      "v": 127
    },
    {
      "midi": 86,
      "hit": false,
      "t": 191181.62700000362,
      "d": 136.36350000000675,
      "v": 127
    },
    {
      "midi": 60,
      "hit": false,
      "t": 191317.9905000024,
      "d": 136.36350000000675,
      "v": 127
    },
    {
      "midi": 84,
      "hit": false,
      "t": 191317.99050000362,
      "d": 136.36350000000675,
      "v": 127
    },
    {
      "midi": 54,
      "hit": false,
      "t": 191454.3540000024,
      "d": 136.36350000000675,
      "v": 127
    },
    {
      "midi": 81,
      "hit": false,
      "t": 191454.35400000363,
      "d": 545.4539999999979,
      "v": 127
    },
    {
      "midi": 60,
      "hit": false,
      "t": 191590.7175000024,
      "d": 136.36350000000675,
      "v": 127
    },
    {
      "midi": 50,
      "hit": false,
      "t": 191727.08100000242,
      "d": 136.36350000000675,
      "v": 127
    },
    {
      "midi": 60,
      "hit": false,
      "t": 191863.44450000243,
      "d": 136.36350000000675,
      "v": 127
    },
    {
      "midi": 43,
      "hit": false,
      "t": 191999.80800000243,
      "d": 136.36350000000675,
      "v": 127
    },
    {
      "midi": 86,
      "hit": false,
      "t": 191999.80800000363,
      "d": 136.36350000000675,
      "v": 127
    },
    {
      "midi": 60,
      "hit": false,
      "t": 192136.17150000244,
      "d": 136.36350000000675,
      "v": 127
    },
    {
      "midi": 84,
      "hit": false,
      "t": 192136.17150000363,
      "d": 136.36350000000675,
      "v": 127
    },
    {
      "midi": 50,
      "hit": false,
      "t": 192272.53500000245,
      "d": 136.36350000000675,
      "v": 127
    },
    {
      "midi": 86,
      "hit": false,
      "t": 192272.53500000364,
      "d": 136.36350000000675,
      "v": 127
    },
    {
      "midi": 60,
      "hit": false,
      "t": 192408.89850000245,
      "d": 136.36350000000675,
      "v": 127
    },
    {
      "midi": 84,
      "hit": false,
      "t": 192408.89850000365,
      "d": 136.36350000000675,
      "v": 127
    },
    {
      "midi": 54,
      "hit": false,
      "t": 192545.26200000246,
      "d": 136.36350000000675,
      "v": 127
    },
    {
      "midi": 81,
      "hit": false,
      "t": 192545.26200000365,
      "d": 545.4539999999979,
      "v": 127
    },
    {
      "midi": 60,
      "hit": false,
      "t": 192681.62550000247,
      "d": 136.36350000000675,
      "v": 127
    },
    {
      "midi": 50,
      "hit": false,
      "t": 192817.98900000248,
      "d": 136.36350000000675,
      "v": 127
    },
    {
      "midi": 60,
      "hit": false,
      "t": 192954.35250000248,
      "d": 136.36350000000675,
      "v": 127
    },
    {
      "midi": 43,
      "hit": false,
      "t": 193090.7160000025,
      "d": 136.36350000000675,
      "v": 127
    },
    {
      "midi": 71,
      "hit": false,
      "t": 193090.71600000365,
      "d": 545.4539999999979,
      "v": 127
    },
    {
      "midi": 59,
      "hit": false,
      "t": 193227.0795000025,
      "d": 136.36350000000675,
      "v": 127
    },
    {
      "midi": 50,
      "hit": false,
      "t": 193363.4430000025,
      "d": 136.36350000000675,
      "v": 127
    },
    {
      "midi": 59,
      "hit": false,
      "t": 193499.8065000025,
      "d": 136.36350000000675,
      "v": 127
    },
    {
      "midi": 55,
      "hit": false,
      "t": 193636.17000000252,
      "d": 136.36350000000675,
      "v": 127
    },
    {
      "midi": 74,
      "hit": false,
      "t": 193636.17000000365,
      "d": 272.7270000000135,
      "v": 127
    },
    {
      "midi": 59,
      "hit": false,
      "t": 193772.53350000252,
      "d": 136.36350000000675,
      "v": 127
    },
    {
      "midi": 50,
      "hit": false,
      "t": 193908.89700000253,
      "d": 136.36350000000675,
      "v": 127
    },
    {
      "midi": 74,
      "hit": false,
      "t": 193908.89700000366,
      "d": 272.7270000000135,
      "v": 127
    },
    {
      "midi": 59,
      "hit": false,
      "t": 194045.26050000254,
      "d": 136.36350000000675,
      "v": 127
    },
    {
      "midi": 43,
      "hit": false,
      "t": 194181.62400000254,
      "d": 136.36350000000675,
      "v": 127
    },
    {
      "midi": 79,
      "hit": false,
      "t": 194181.62400000368,
      "d": 272.7270000000135,
      "v": 127
    },
    {
      "midi": 59,
      "hit": false,
      "t": 194317.98750000255,
      "d": 136.36350000000675,
      "v": 127
    },
    {
      "midi": 50,
      "hit": false,
      "t": 194454.35100000256,
      "d": 136.36350000000675,
      "v": 127
    },
    {
      "midi": 79,
      "hit": false,
      "t": 194454.3510000037,
      "d": 272.7270000000135,
      "v": 127
    },
    {
      "midi": 59,
      "hit": false,
      "t": 194590.71450000256,
      "d": 136.36350000000675,
      "v": 127
    },
    {
      "midi": 55,
      "hit": false,
      "t": 194727.07800000257,
      "d": 136.36350000000675,
      "v": 127
    },
    {
      "midi": 83,
      "hit": false,
      "t": 194727.0780000037,
      "d": 545.4539999999979,
      "v": 127
    },
    {
      "midi": 59,
      "hit": false,
      "t": 194863.44150000258,
      "d": 136.36350000000675,
      "v": 127
    },
    {
      "midi": 50,
      "hit": false,
      "t": 194999.80500000258,
      "d": 136.36350000000675,
      "v": 127
    },
    {
      "midi": 59,
      "hit": false,
      "t": 195136.1685000026,
      "d": 136.36350000000675,
      "v": 127
    },
    {
      "midi": 43,
      "hit": false,
      "t": 195272.5320000026,
      "d": 136.36350000000675,
      "v": 127
    },
    {
      "midi": 86,
      "hit": false,
      "t": 195272.5320000037,
      "d": 136.36350000000675,
      "v": 127
    },
    {
      "midi": 60,
      "hit": false,
      "t": 195408.8955000026,
      "d": 136.36350000000675,
      "v": 127
    },
    {
      "midi": 84,
      "hit": false,
      "t": 195408.8955000037,
      "d": 136.36350000000675,
      "v": 127
    },
    {
      "midi": 50,
      "hit": false,
      "t": 195545.2590000026,
      "d": 136.36350000000675,
      "v": 127
    },
    {
      "midi": 86,
      "hit": false,
      "t": 195545.25900000372,
      "d": 136.36350000000675,
      "v": 127
    },
    {
      "midi": 60,
      "hit": false,
      "t": 195681.62250000262,
      "d": 136.36350000000675,
      "v": 127
    },
    {
      "midi": 84,
      "hit": false,
      "t": 195681.62250000372,
      "d": 136.36350000000675,
      "v": 127
    },
    {
      "midi": 54,
      "hit": false,
      "t": 195817.98600000262,
      "d": 136.36350000000675,
      "v": 127
    },
    {
      "midi": 81,
      "hit": false,
      "t": 195817.98600000373,
      "d": 272.7270000000135,
      "v": 127
    },
    {
      "midi": 60,
      "hit": false,
      "t": 195954.34950000263,
      "d": 136.36350000000675,
      "v": 127
    },
    {
      "midi": 50,
      "hit": false,
      "t": 196090.71300000264,
      "d": 136.36350000000675,
      "v": 127
    },
    {
      "midi": 81,
      "hit": false,
      "t": 196090.71300000374,
      "d": 136.36350000000675,
      "v": 127
    },
    {
      "midi": 60,
      "hit": false,
      "t": 196227.07650000264,
      "d": 136.36350000000675,
      "v": 127
    },
    {
      "midi": 83,
      "hit": false,
      "t": 196227.07650000375,
      "d": 136.36350000000675,
      "v": 127
    },
    {
      "midi": 43,
      "hit": false,
      "t": 196363.44000000265,
      "d": 136.36350000000675,
      "v": 127
    },
    {
      "midi": 79,
      "hit": false,
      "t": 196363.44000000376,
      "d": 545.4539999999979,
      "v": 127
    },
    {
      "midi": 59,
      "hit": false,
      "t": 196499.80350000266,
      "d": 136.36350000000675,
      "v": 127
    },
    {
      "midi": 50,
      "hit": false,
      "t": 196636.16700000266,
      "d": 136.36350000000675,
      "v": 127
    },
    {
      "midi": 59,
      "hit": false,
      "t": 196772.53050000267,
      "d": 136.36350000000675,
      "v": 127
    },
    {
      "midi": 43,
      "hit": false,
      "t": 196908.89400000268,
      "d": 545.4539999999979,
      "v": 127
    },
    {
      "midi": 67,
      "hit": false,
      "t": 197181.62100000377,
      "d": 272.7270000000135,
      "v": 127
    },
    {
      "midi": 54,
      "hit": false,
      "t": 197454.34800000268,
      "d": 545.4539999999979,
      "v": 127
    },
    {
      "midi": 74,
      "hit": false,
      "t": 197454.34800000378,
      "d": 136.36350000000675,
      "v": 127
    },
    {
      "midi": 72,
      "hit": false,
      "t": 197590.7115000038,
      "d": 136.36350000000675,
      "v": 127
    },
    {
      "midi": 74,
      "hit": false,
      "t": 197727.0750000038,
      "d": 136.36350000000675,
      "v": 127
    },
    {
      "midi": 72,
      "hit": false,
      "t": 197863.4385000038,
      "d": 136.36350000000675,
      "v": 127
    },
    {
      "midi": 61,
      "hit": false,
      "t": 197999.80200000267,
      "d": 136.36350000000675,
      "v": 127
    },
    {
      "midi": 69,
      "hit": false,
      "t": 197999.8020000038,
      "d": 545.4539999999979,
      "v": 127
    },
    {
      "midi": 62,
      "hit": false,
      "t": 198136.16550000268,
      "d": 136.36350000000675,
      "v": 127
    },
    {
      "midi": 61,
      "hit": false,
      "t": 198272.5290000027,
      "d": 136.36350000000675,
      "v": 127
    },
    {
      "midi": 62,
      "hit": false,
      "t": 198408.8925000027,
      "d": 136.36350000000675,
      "v": 127
    },
    {
      "midi": 55,
      "hit": false,
      "t": 198545.2560000027,
      "d": 545.4539999999979,
      "v": 127
    },
    {
      "midi": 72,
      "hit": false,
      "t": 198545.2560000038,
      "d": 136.36350000000675,
      "v": 127
    },
    {
      "midi": 71,
      "hit": false,
      "t": 198681.6195000038,
      "d": 136.36350000000675,
      "v": 127
    },
    {
      "midi": 72,
      "hit": false,
      "t": 198817.98300000382,
      "d": 136.36350000000675,
      "v": 127
    },
    {
      "midi": 71,
      "hit": false,
      "t": 198954.34650000383,
      "d": 136.36350000000675,
      "v": 127
    },
    {
      "midi": 61,
      "hit": false,
      "t": 199090.7100000027,
      "d": 136.36350000000675,
      "v": 127
    },
    {
      "midi": 67,
      "hit": false,
      "t": 199090.71000000383,
      "d": 545.4539999999979,
      "v": 127
    },
    {
      "midi": 62,
      "hit": false,
      "t": 199227.0735000027,
      "d": 136.36350000000675,
      "v": 127
    },
    {
      "midi": 61,
      "hit": false,
      "t": 199363.4370000027,
      "d": 136.36350000000675,
      "v": 127
    },
    {
      "midi": 62,
      "hit": false,
      "t": 199499.80050000272,
      "d": 136.36350000000675,
      "v": 127
    },
    {
      "midi": 57,
      "hit": false,
      "t": 199636.16400000273,
      "d": 545.4539999999979,
      "v": 127
    },
    {
      "midi": 71,
      "hit": false,
      "t": 199636.16400000383,
      "d": 136.36350000000675,
      "v": 127
    },
    {
      "midi": 69,
      "hit": false,
      "t": 199772.52750000384,
      "d": 136.36350000000675,
      "v": 127
    },
    {
      "midi": 71,
      "hit": false,
      "t": 199908.89100000384,
      "d": 136.36350000000675,
      "v": 127
    },
    {
      "midi": 69,
      "hit": false,
      "t": 200045.25450000385,
      "d": 136.36350000000675,
      "v": 127
    },
    {
      "midi": 61,
      "hit": false,
      "t": 200181.61800000272,
      "d": 136.36350000000675,
      "v": 127
    },
    {
      "midi": 66,
      "hit": false,
      "t": 200181.61800000386,
      "d": 545.4539999999979,
      "v": 127
    },
    {
      "midi": 62,
      "hit": false,
      "t": 200317.98150000273,
      "d": 136.36350000000675,
      "v": 127
    },
    {
      "midi": 61,
      "hit": false,
      "t": 200454.34500000274,
      "d": 136.36350000000675,
      "v": 127
    },
    {
      "midi": 62,
      "hit": false,
      "t": 200590.70850000274,
      "d": 136.36350000000675,
      "v": 127
    },
    {
      "midi": 59,
      "hit": false,
      "t": 200727.07200000275,
      "d": 545.4539999999979,
      "v": 127
    },
    {
      "midi": 69,
      "hit": false,
      "t": 200727.07200000386,
      "d": 136.36350000000675,
      "v": 127
    },
    {
      "midi": 67,
      "hit": false,
      "t": 200863.43550000386,
      "d": 136.36350000000675,
      "v": 127
    },
    {
      "midi": 69,
      "hit": false,
      "t": 200999.79900000387,
      "d": 136.36350000000675,
      "v": 127
    },
    {
      "midi": 67,
      "hit": false,
      "t": 201136.16250000388,
      "d": 136.36350000000675,
      "v": 127
    },
    {
      "midi": 61,
      "hit": false,
      "t": 201272.52600000275,
      "d": 136.36350000000675,
      "v": 127
    },
    {
      "midi": 74,
      "hit": false,
      "t": 201272.52600000388,
      "d": 545.4539999999979,
      "v": 127
    },
    {
      "midi": 62,
      "hit": false,
      "t": 201408.88950000276,
      "d": 136.36350000000675,
      "v": 127
    },
    {
      "midi": 61,
      "hit": false,
      "t": 201545.25300000276,
      "d": 136.36350000000675,
      "v": 127
    },
    {
      "midi": 62,
      "hit": false,
      "t": 201681.61650000277,
      "d": 136.36350000000675,
      "v": 127
    },
    {
      "midi": 54,
      "hit": false,
      "t": 201817.98000000278,
      "d": 545.4539999999979,
      "v": 127
    },
    {
      "midi": 74,
      "hit": false,
      "t": 201817.98000000388,
      "d": 136.36350000000675,
      "v": 127
    },
    {
      "midi": 72,
      "hit": false,
      "t": 201954.3435000039,
      "d": 136.36350000000675,
      "v": 127
    },
    {
      "midi": 74,
      "hit": false,
      "t": 202090.7070000039,
      "d": 136.36350000000675,
      "v": 127
    },
    {
      "midi": 72,
      "hit": false,
      "t": 202227.0705000039,
      "d": 136.36350000000675,
      "v": 127
    },
    {
      "midi": 63,
      "hit": false,
      "t": 202363.43400000277,
      "d": 136.36350000000675,
      "v": 127
    },
    {
      "midi": 69,
      "hit": false,
      "t": 202363.4340000039,
      "d": 545.4539999999979,
      "v": 127
    },
    {
      "midi": 62,
      "hit": false,
      "t": 202499.79750000278,
      "d": 136.36350000000675,
      "v": 127
    },
    {
      "midi": 63,
      "hit": false,
      "t": 202636.1610000028,
      "d": 136.36350000000675,
      "v": 127
    },
    {
      "midi": 62,
      "hit": false,
      "t": 202772.5245000028,
      "d": 136.36350000000675,
      "v": 127
    },
    {
      "midi": 55,
      "hit": false,
      "t": 202908.8880000028,
      "d": 545.4539999999979,
      "v": 127
    },
    {
      "midi": 72,
      "hit": false,
      "t": 202908.8880000039,
      "d": 136.36350000000675,
      "v": 127
    },
    {
      "midi": 70,
      "hit": false,
      "t": 203045.2515000039,
      "d": 136.36350000000675,
      "v": 127
    },
    {
      "midi": 72,
      "hit": false,
      "t": 203181.61500000392,
      "d": 136.36350000000675,
      "v": 127
    },
    {
      "midi": 70,
      "hit": false,
      "t": 203317.97850000393,
      "d": 136.36350000000675,
      "v": 127
    },
    {
      "midi": 63,
      "hit": false,
      "t": 203454.3420000028,
      "d": 136.36350000000675,
      "v": 127
    },
    {
      "midi": 67,
      "hit": false,
      "t": 203454.34200000393,
      "d": 545.4539999999979,
      "v": 127
    },
    {
      "midi": 62,
      "hit": false,
      "t": 203590.7055000028,
      "d": 136.36350000000675,
      "v": 127
    },
    {
      "midi": 63,
      "hit": false,
      "t": 203727.0690000028,
      "d": 136.36350000000675,
      "v": 127
    },
    {
      "midi": 62,
      "hit": false,
      "t": 203863.43250000282,
      "d": 136.36350000000675,
      "v": 127
    },
    {
      "midi": 52,
      "hit": false,
      "t": 203999.79600000283,
      "d": 545.4539999999979,
      "v": 127
    },
    {
      "midi": 79,
      "hit": false,
      "t": 203999.79600000393,
      "d": 136.36350000000675,
      "v": 127
    },
    {
      "midi": 73,
      "hit": false,
      "t": 204136.15950000394,
      "d": 136.36350000000675,
      "v": 127
    },
    {
      "midi": 79,
      "hit": false,
      "t": 204272.52300000394,
      "d": 136.36350000000675,
      "v": 127
    },
    {
      "midi": 73,
      "hit": false,
      "t": 204408.88650000395,
      "d": 136.36350000000675,
      "v": 127
    },
    {
      "midi": 55,
      "hit": false,
      "t": 204545.25000000282,
      "d": 136.36350000000675,
      "v": 127
    },
    {
      "midi": 67,
      "hit": false,
      "t": 204545.25000000396,
      "d": 545.4539999999979,
      "v": 127
    },
    {
      "midi": 58,
      "hit": false,
      "t": 204681.61350000283,
      "d": 136.36350000000675,
      "v": 127
    },
    {
      "midi": 55,
      "hit": false,
      "t": 204817.97700000284,
      "d": 136.36350000000675,
      "v": 127
    },
    {
      "midi": 58,
      "hit": false,
      "t": 204954.34050000284,
      "d": 136.36350000000675,
      "v": 127
    },
    {
      "midi": 51,
      "hit": false,
      "t": 205090.70400000285,
      "d": 545.4539999999979,
      "v": 127
    },
    {
      "midi": 79,
      "hit": false,
      "t": 205090.70400000396,
      "d": 136.36350000000675,
      "v": 127
    },
    {
      "midi": 73,
      "hit": false,
      "t": 205227.06750000396,
      "d": 136.36350000000675,
      "v": 127
    },
    {
      "midi": 79,
      "hit": false,
      "t": 205363.43100000397,
      "d": 136.36350000000675,
      "v": 127
    },
    {
      "midi": 73,
      "hit": false,
      "t": 205499.79450000398,
      "d": 136.36350000000675,
      "v": 127
    },
    {
      "midi": 55,
      "hit": false,
      "t": 205636.15800000285,
      "d": 136.36350000000675,
      "v": 127
    },
    {
      "midi": 67,
      "hit": false,
      "t": 205636.15800000398,
      "d": 545.4539999999979,
      "v": 127
    },
    {
      "midi": 58,
      "hit": false,
      "t": 205772.52150000285,
      "d": 136.36350000000675,
      "v": 127
    },
    {
      "midi": 55,
      "hit": false,
      "t": 205908.88500000286,
      "d": 136.36350000000675,
      "v": 127
    },
    {
      "midi": 58,
      "hit": false,
      "t": 206045.24850000287,
      "d": 136.36350000000675,
      "v": 127
    },
    {
      "midi": 50,
      "hit": false,
      "t": 206181.61200000287,
      "d": 545.4539999999979,
      "v": 127
    },
    {
      "midi": 78,
      "hit": false,
      "t": 206181.61200000398,
      "d": 136.36350000000675,
      "v": 127
    },
    {
      "midi": 74,
      "hit": false,
      "t": 206317.975500004,
      "d": 136.36350000000675,
      "v": 127
    },
    {
      "midi": 78,
      "hit": false,
      "t": 206454.339000004,
      "d": 136.36350000000675,
      "v": 127
    },
    {
      "midi": 74,
      "hit": false,
      "t": 206590.702500004,
      "d": 136.36350000000675,
      "v": 127
    },
    {
      "midi": 57,
      "hit": false,
      "t": 206727.06600000287,
      "d": 136.36350000000675,
      "v": 127
    },
    {
      "midi": 69,
      "hit": false,
      "t": 206727.066000004,
      "d": 545.4539999999979,
      "v": 127
    },
    {
      "midi": 62,
      "hit": false,
      "t": 206863.42950000288,
      "d": 136.36350000000675,
      "v": 127
    },
    {
      "midi": 57,
      "hit": false,
      "t": 206999.7930000029,
      "d": 136.36350000000675,
      "v": 127
    },
    {
      "midi": 62,
      "hit": false,
      "t": 207136.1565000029,
      "d": 136.36350000000675,
      "v": 127
    },
    {
      "midi": 50,
      "hit": false,
      "t": 207272.5200000029,
      "d": 545.4539999999979,
      "v": 127
    },
    {
      "midi": 78,
      "hit": false,
      "t": 207272.520000004,
      "d": 136.36350000000675,
      "v": 127
    },
    {
      "midi": 74,
      "hit": false,
      "t": 207408.883500004,
      "d": 136.36350000000675,
      "v": 127
    },
    {
      "midi": 78,
      "hit": false,
      "t": 207545.24700000402,
      "d": 136.36350000000675,
      "v": 127
    },
    {
      "midi": 74,
      "hit": false,
      "t": 207681.61050000403,
      "d": 136.36350000000675,
      "v": 127
    },
    {
      "midi": 57,
      "hit": false,
      "t": 207817.9740000029,
      "d": 136.36350000000675,
      "v": 127
    },
    {
      "midi": 69,
      "hit": false,
      "t": 207817.97400000403,
      "d": 545.4539999999979,
      "v": 127
    },
    {
      "midi": 62,
      "hit": false,
      "t": 207954.3375000029,
      "d": 136.36350000000675,
      "v": 127
    },
    {
      "midi": 57,
      "hit": false,
      "t": 208090.7010000029,
      "d": 136.36350000000675,
      "v": 127
    },
    {
      "midi": 62,
      "hit": false,
      "t": 208227.06450000292,
      "d": 136.36350000000675,
      "v": 127
    },
    {
      "midi": 51,
      "hit": false,
      "t": 208363.42800000292,
      "d": 545.4539999999979,
      "v": 127
    },
    {
      "midi": 79,
      "hit": false,
      "t": 208363.42800000403,
      "d": 136.36350000000675,
      "v": 127
    },
    {
      "midi": 73,
      "hit": false,
      "t": 208499.79150000404,
      "d": 136.36350000000675,
      "v": 127
    },
    {
      "midi": 79,
      "hit": false,
      "t": 208636.15500000404,
      "d": 136.36350000000675,
      "v": 127
    },
    {
      "midi": 73,
      "hit": false,
      "t": 208772.51850000405,
      "d": 136.36350000000675,
      "v": 127
    },
    {
      "midi": 55,
      "hit": false,
      "t": 208908.88200000292,
      "d": 136.36350000000675,
      "v": 127
    },
    {
      "midi": 67,
      "hit": false,
      "t": 208908.88200000406,
      "d": 545.4539999999979,
      "v": 127
    },
    {
      "midi": 58,
      "hit": false,
      "t": 209045.24550000293,
      "d": 136.36350000000675,
      "v": 127
    },
    {
      "midi": 55,
      "hit": false,
      "t": 209181.60900000294,
      "d": 136.36350000000675,
      "v": 127
    },
    {
      "midi": 58,
      "hit": false,
      "t": 209317.97250000294,
      "d": 136.36350000000675,
      "v": 127
    },
    {
      "midi": 51,
      "hit": false,
      "t": 209454.33600000295,
      "d": 545.4539999999979,
      "v": 127
    },
    {
      "midi": 79,
      "hit": false,
      "t": 209454.33600000406,
      "d": 136.36350000000675,
      "v": 127
    },
    {
      "midi": 73,
      "hit": false,
      "t": 209590.69950000406,
      "d": 136.36350000000675,
      "v": 127
    },
    {
      "midi": 79,
      "hit": false,
      "t": 209727.06300000407,
      "d": 136.36350000000675,
      "v": 127
    },
    {
      "midi": 73,
      "hit": false,
      "t": 209863.42650000408,
      "d": 136.36350000000675,
      "v": 127
    },
    {
      "midi": 55,
      "hit": false,
      "t": 209999.79000000295,
      "d": 136.36350000000675,
      "v": 127
    },
    {
      "midi": 67,
      "hit": false,
      "t": 209999.79000000408,
      "d": 545.4539999999979,
      "v": 127
    },
    {
      "midi": 58,
      "hit": false,
      "t": 210136.15350000295,
      "d": 136.36350000000675,
      "v": 127
    },
    {
      "midi": 55,
      "hit": false,
      "t": 210272.51700000296,
      "d": 136.36350000000675,
      "v": 127
    },
    {
      "midi": 58,
      "hit": false,
      "t": 210408.88050000297,
      "d": 136.36350000000675,
      "v": 127
    },
    {
      "midi": 56,
      "hit": false,
      "t": 210545.24400000297,
      "d": 272.7270000000135,
      "v": 127
    },
    {
      "midi": 60,
      "hit": false,
      "t": 210545.24400000297,
      "d": 272.7270000000135,
      "v": 127
    },
    {
      "midi": 72,
      "hit": false,
      "t": 210545.24400000408,
      "d": 545.4539999999979,
      "v": 127
    },
    {
      "midi": 56,
      "hit": false,
      "t": 210817.971000003,
      "d": 272.7270000000135,
      "v": 127
    },
    {
      "midi": 60,
      "hit": false,
      "t": 210817.971000003,
      "d": 272.7270000000135,
      "v": 127
    },
    {
      "midi": 63,
      "hit": false,
      "t": 210817.971000003,
      "d": 272.7270000000135,
      "v": 127
    },
    {
      "midi": 56,
      "hit": false,
      "t": 211090.698000003,
      "d": 272.7270000000135,
      "v": 127
    },
    {
      "midi": 60,
      "hit": false,
      "t": 211090.698000003,
      "d": 272.7270000000135,
      "v": 127
    },
    {
      "midi": 63,
      "hit": false,
      "t": 211090.698000003,
      "d": 272.7270000000135,
      "v": 127
    },
    {
      "midi": 75,
      "hit": false,
      "t": 211090.69800000408,
      "d": 272.7270000000135,
      "v": 127
    },
    {
      "midi": 56,
      "hit": false,
      "t": 211363.42500000302,
      "d": 272.7270000000135,
      "v": 127
    },
    {
      "midi": 60,
      "hit": false,
      "t": 211363.42500000302,
      "d": 272.7270000000135,
      "v": 127
    },
    {
      "midi": 63,
      "hit": false,
      "t": 211363.42500000302,
      "d": 272.7270000000135,
      "v": 127
    },
    {
      "midi": 75,
      "hit": false,
      "t": 211363.4250000041,
      "d": 272.7270000000135,
      "v": 127
    },
    {
      "midi": 56,
      "hit": false,
      "t": 211636.15200000303,
      "d": 272.7270000000135,
      "v": 127
    },
    {
      "midi": 60,
      "hit": false,
      "t": 211636.15200000303,
      "d": 272.7270000000135,
      "v": 127
    },
    {
      "midi": 63,
      "hit": false,
      "t": 211636.15200000303,
      "d": 272.7270000000135,
      "v": 127
    },
    {
      "midi": 80,
      "hit": false,
      "t": 211636.1520000041,
      "d": 272.7270000000135,
      "v": 127
    },
    {
      "midi": 56,
      "hit": false,
      "t": 211908.87900000304,
      "d": 272.7270000000135,
      "v": 127
    },
    {
      "midi": 60,
      "hit": false,
      "t": 211908.87900000304,
      "d": 272.7270000000135,
      "v": 127
    },
    {
      "midi": 63,
      "hit": false,
      "t": 211908.87900000304,
      "d": 272.7270000000135,
      "v": 127
    },
    {
      "midi": 80,
      "hit": false,
      "t": 211908.87900000412,
      "d": 272.7270000000135,
      "v": 127
    },
    {
      "midi": 56,
      "hit": false,
      "t": 212181.60600000306,
      "d": 272.7270000000135,
      "v": 127
    },
    {
      "midi": 60,
      "hit": false,
      "t": 212181.60600000306,
      "d": 272.7270000000135,
      "v": 127
    },
    {
      "midi": 63,
      "hit": false,
      "t": 212181.60600000306,
      "d": 272.7270000000135,
      "v": 127
    },
    {
      "midi": 84,
      "hit": false,
      "t": 212181.60600000413,
      "d": 545.4539999999979,
      "v": 127
    },
    {
      "midi": 56,
      "hit": false,
      "t": 212454.33300000307,
      "d": 272.7270000000135,
      "v": 127
    },
    {
      "midi": 60,
      "hit": false,
      "t": 212454.33300000307,
      "d": 272.7270000000135,
      "v": 127
    },
    {
      "midi": 63,
      "hit": false,
      "t": 212454.33300000307,
      "d": 272.7270000000135,
      "v": 127
    },
    {
      "midi": 56,
      "hit": false,
      "t": 212727.06000000308,
      "d": 272.7270000000135,
      "v": 127
    },
    {
      "midi": 61,
      "hit": false,
      "t": 212727.06000000308,
      "d": 272.7270000000135,
      "v": 127
    },
    {
      "midi": 63,
      "hit": false,
      "t": 212727.06000000308,
      "d": 272.7270000000135,
      "v": 127
    },
    {
      "midi": 67,
      "hit": false,
      "t": 212727.06000000308,
      "d": 272.7270000000135,
      "v": 127
    },
    {
      "midi": 87,
      "hit": false,
      "t": 212727.06000000413,
      "d": 136.36350000000675,
      "v": 127
    },
    {
      "midi": 85,
      "hit": false,
      "t": 212863.42350000414,
      "d": 136.36350000000675,
      "v": 127
    },
    {
      "midi": 56,
      "hit": false,
      "t": 212999.7870000031,
      "d": 272.7270000000135,
      "v": 127
    },
    {
      "midi": 61,
      "hit": false,
      "t": 212999.7870000031,
      "d": 272.7270000000135,
      "v": 127
    },
    {
      "midi": 63,
      "hit": false,
      "t": 212999.7870000031,
      "d": 272.7270000000135,
      "v": 127
    },
    {
      "midi": 67,
      "hit": false,
      "t": 212999.7870000031,
      "d": 272.7270000000135,
      "v": 127
    },
    {
      "midi": 87,
      "hit": false,
      "t": 212999.78700000414,
      "d": 136.36350000000675,
      "v": 127
    },
    {
      "midi": 85,
      "hit": false,
      "t": 213136.15050000415,
      "d": 136.36350000000675,
      "v": 127
    },
    {
      "midi": 56,
      "hit": false,
      "t": 213272.5140000031,
      "d": 272.7270000000135,
      "v": 127
    },
    {
      "midi": 61,
      "hit": false,
      "t": 213272.5140000031,
      "d": 272.7270000000135,
      "v": 127
    },
    {
      "midi": 63,
      "hit": false,
      "t": 213272.5140000031,
      "d": 272.7270000000135,
      "v": 127
    },
    {
      "midi": 67,
      "hit": false,
      "t": 213272.5140000031,
      "d": 272.7270000000135,
      "v": 127
    },
    {
      "midi": 82,
      "hit": false,
      "t": 213272.51400000416,
      "d": 545.4539999999979,
      "v": 127
    },
    {
      "midi": 56,
      "hit": false,
      "t": 213545.24100000312,
      "d": 272.7270000000135,
      "v": 127
    },
    {
      "midi": 61,
      "hit": false,
      "t": 213545.24100000312,
      "d": 272.7270000000135,
      "v": 127
    },
    {
      "midi": 63,
      "hit": false,
      "t": 213545.24100000312,
      "d": 272.7270000000135,
      "v": 127
    },
    {
      "midi": 67,
      "hit": false,
      "t": 213545.24100000312,
      "d": 272.7270000000135,
      "v": 127
    },
    {
      "midi": 56,
      "hit": false,
      "t": 213817.96800000314,
      "d": 272.7270000000135,
      "v": 127
    },
    {
      "midi": 61,
      "hit": false,
      "t": 213817.96800000314,
      "d": 272.7270000000135,
      "v": 127
    },
    {
      "midi": 63,
      "hit": false,
      "t": 213817.96800000314,
      "d": 272.7270000000135,
      "v": 127
    },
    {
      "midi": 67,
      "hit": false,
      "t": 213817.96800000314,
      "d": 272.7270000000135,
      "v": 127
    },
    {
      "midi": 87,
      "hit": false,
      "t": 213817.96800000416,
      "d": 136.36350000000675,
      "v": 127
    },
    {
      "midi": 85,
      "hit": false,
      "t": 213954.33150000416,
      "d": 136.36350000000675,
      "v": 127
    },
    {
      "midi": 56,
      "hit": false,
      "t": 214090.69500000315,
      "d": 272.7270000000135,
      "v": 127
    },
    {
      "midi": 61,
      "hit": false,
      "t": 214090.69500000315,
      "d": 272.7270000000135,
      "v": 127
    },
    {
      "midi": 63,
      "hit": false,
      "t": 214090.69500000315,
      "d": 272.7270000000135,
      "v": 127
    },
    {
      "midi": 67,
      "hit": false,
      "t": 214090.69500000315,
      "d": 272.7270000000135,
      "v": 127
    },
    {
      "midi": 87,
      "hit": false,
      "t": 214090.69500000417,
      "d": 136.36350000000675,
      "v": 127
    },
    {
      "midi": 85,
      "hit": false,
      "t": 214227.05850000418,
      "d": 136.36350000000675,
      "v": 127
    },
    {
      "midi": 56,
      "hit": false,
      "t": 214363.42200000316,
      "d": 272.7270000000135,
      "v": 127
    },
    {
      "midi": 61,
      "hit": false,
      "t": 214363.42200000316,
      "d": 272.7270000000135,
      "v": 127
    },
    {
      "midi": 63,
      "hit": false,
      "t": 214363.42200000316,
      "d": 272.7270000000135,
      "v": 127
    },
    {
      "midi": 67,
      "hit": false,
      "t": 214363.42200000316,
      "d": 272.7270000000135,
      "v": 127
    },
    {
      "midi": 82,
      "hit": false,
      "t": 214363.42200000418,
      "d": 545.4539999999979,
      "v": 127
    },
    {
      "midi": 56,
      "hit": false,
      "t": 214636.14900000318,
      "d": 272.7270000000135,
      "v": 127
    },
    {
      "midi": 61,
      "hit": false,
      "t": 214636.14900000318,
      "d": 272.7270000000135,
      "v": 127
    },
    {
      "midi": 63,
      "hit": false,
      "t": 214636.14900000318,
      "d": 272.7270000000135,
      "v": 127
    },
    {
      "midi": 67,
      "hit": false,
      "t": 214636.14900000318,
      "d": 272.7270000000135,
      "v": 127
    },
    {
      "midi": 56,
      "hit": false,
      "t": 214908.8760000032,
      "d": 272.7270000000135,
      "v": 127
    },
    {
      "midi": 60,
      "hit": false,
      "t": 214908.8760000032,
      "d": 272.7270000000135,
      "v": 127
    },
    {
      "midi": 63,
      "hit": false,
      "t": 214908.8760000032,
      "d": 272.7270000000135,
      "v": 127
    },
    {
      "midi": 72,
      "hit": false,
      "t": 214908.87600000418,
      "d": 545.4539999999979,
      "v": 127
    },
    {
      "midi": 56,
      "hit": false,
      "t": 215181.6030000032,
      "d": 272.7270000000135,
      "v": 127
    },
    {
      "midi": 60,
      "hit": false,
      "t": 215181.6030000032,
      "d": 272.7270000000135,
      "v": 127
    },
    {
      "midi": 63,
      "hit": false,
      "t": 215181.6030000032,
      "d": 272.7270000000135,
      "v": 127
    },
    {
      "midi": 56,
      "hit": false,
      "t": 215454.33000000322,
      "d": 272.7270000000135,
      "v": 127
    },
    {
      "midi": 60,
      "hit": false,
      "t": 215454.33000000322,
      "d": 272.7270000000135,
      "v": 127
    },
    {
      "midi": 63,
      "hit": false,
      "t": 215454.33000000322,
      "d": 272.7270000000135,
      "v": 127
    },
    {
      "midi": 75,
      "hit": false,
      "t": 215454.33000000418,
      "d": 272.7270000000135,
      "v": 127
    },
    {
      "midi": 56,
      "hit": false,
      "t": 215727.05700000323,
      "d": 272.7270000000135,
      "v": 127
    },
    {
      "midi": 60,
      "hit": false,
      "t": 215727.05700000323,
      "d": 272.7270000000135,
      "v": 127
    },
    {
      "midi": 63,
      "hit": false,
      "t": 215727.05700000323,
      "d": 272.7270000000135,
      "v": 127
    },
    {
      "midi": 75,
      "hit": false,
      "t": 215727.0570000042,
      "d": 272.7270000000135,
      "v": 127
    },
    {
      "midi": 56,
      "hit": false,
      "t": 215999.78400000324,
      "d": 272.7270000000135,
      "v": 127
    },
    {
      "midi": 60,
      "hit": false,
      "t": 215999.78400000324,
      "d": 272.7270000000135,
      "v": 127
    },
    {
      "midi": 63,
      "hit": false,
      "t": 215999.78400000324,
      "d": 272.7270000000135,
      "v": 127
    },
    {
      "midi": 80,
      "hit": false,
      "t": 215999.7840000042,
      "d": 272.7270000000135,
      "v": 127
    },
    {
      "midi": 56,
      "hit": false,
      "t": 216272.51100000326,
      "d": 272.7270000000135,
      "v": 127
    },
    {
      "midi": 60,
      "hit": false,
      "t": 216272.51100000326,
      "d": 272.7270000000135,
      "v": 127
    },
    {
      "midi": 63,
      "hit": false,
      "t": 216272.51100000326,
      "d": 272.7270000000135,
      "v": 127
    },
    {
      "midi": 80,
      "hit": false,
      "t": 216272.51100000422,
      "d": 272.7270000000135,
      "v": 127
    },
    {
      "midi": 56,
      "hit": false,
      "t": 216545.23800000327,
      "d": 272.7270000000135,
      "v": 127
    },
    {
      "midi": 60,
      "hit": false,
      "t": 216545.23800000327,
      "d": 272.7270000000135,
      "v": 127
    },
    {
      "midi": 63,
      "hit": false,
      "t": 216545.23800000327,
      "d": 272.7270000000135,
      "v": 127
    },
    {
      "midi": 84,
      "hit": false,
      "t": 216545.23800000423,
      "d": 545.4539999999979,
      "v": 127
    },
    {
      "midi": 56,
      "hit": false,
      "t": 216817.96500000329,
      "d": 272.7270000000135,
      "v": 127
    },
    {
      "midi": 60,
      "hit": false,
      "t": 216817.96500000329,
      "d": 272.7270000000135,
      "v": 127
    },
    {
      "midi": 63,
      "hit": false,
      "t": 216817.96500000329,
      "d": 272.7270000000135,
      "v": 127
    },
    {
      "midi": 56,
      "hit": false,
      "t": 217090.6920000033,
      "d": 272.7270000000135,
      "v": 127
    },
    {
      "midi": 61,
      "hit": false,
      "t": 217090.6920000033,
      "d": 272.7270000000135,
      "v": 127
    },
    {
      "midi": 63,
      "hit": false,
      "t": 217090.6920000033,
      "d": 272.7270000000135,
      "v": 127
    },
    {
      "midi": 67,
      "hit": false,
      "t": 217090.6920000033,
      "d": 272.7270000000135,
      "v": 127
    },
    {
      "midi": 87,
      "hit": false,
      "t": 217090.69200000423,
      "d": 136.36350000000675,
      "v": 127
    },
    {
      "midi": 85,
      "hit": false,
      "t": 217227.05550000424,
      "d": 136.36350000000675,
      "v": 127
    },
    {
      "midi": 56,
      "hit": false,
      "t": 217363.4190000033,
      "d": 272.7270000000135,
      "v": 127
    },
    {
      "midi": 61,
      "hit": false,
      "t": 217363.4190000033,
      "d": 272.7270000000135,
      "v": 127
    },
    {
      "midi": 63,
      "hit": false,
      "t": 217363.4190000033,
      "d": 272.7270000000135,
      "v": 127
    },
    {
      "midi": 67,
      "hit": false,
      "t": 217363.4190000033,
      "d": 272.7270000000135,
      "v": 127
    },
    {
      "midi": 87,
      "hit": false,
      "t": 217363.41900000424,
      "d": 136.36350000000675,
      "v": 127
    },
    {
      "midi": 85,
      "hit": false,
      "t": 217499.78250000425,
      "d": 136.36350000000675,
      "v": 127
    },
    {
      "midi": 56,
      "hit": false,
      "t": 217636.14600000333,
      "d": 272.7270000000135,
      "v": 127
    },
    {
      "midi": 61,
      "hit": false,
      "t": 217636.14600000333,
      "d": 272.7270000000135,
      "v": 127
    },
    {
      "midi": 63,
      "hit": false,
      "t": 217636.14600000333,
      "d": 272.7270000000135,
      "v": 127
    },
    {
      "midi": 67,
      "hit": false,
      "t": 217636.14600000333,
      "d": 272.7270000000135,
      "v": 127
    },
    {
      "midi": 82,
      "hit": false,
      "t": 217636.14600000426,
      "d": 272.7270000000135,
      "v": 127
    },
    {
      "midi": 56,
      "hit": false,
      "t": 217908.87300000334,
      "d": 272.7270000000135,
      "v": 127
    },
    {
      "midi": 61,
      "hit": false,
      "t": 217908.87300000334,
      "d": 272.7270000000135,
      "v": 127
    },
    {
      "midi": 63,
      "hit": false,
      "t": 217908.87300000334,
      "d": 272.7270000000135,
      "v": 127
    },
    {
      "midi": 67,
      "hit": false,
      "t": 217908.87300000334,
      "d": 272.7270000000135,
      "v": 127
    },
    {
      "midi": 82,
      "hit": false,
      "t": 217908.87300000427,
      "d": 136.36350000000675,
      "v": 127
    },
    {
      "midi": 84,
      "hit": false,
      "t": 218045.23650000428,
      "d": 136.36350000000675,
      "v": 127
    },
    {
      "midi": 56,
      "hit": false,
      "t": 218181.60000000335,
      "d": 272.7270000000135,
      "v": 127
    },
    {
      "midi": 60,
      "hit": false,
      "t": 218181.60000000335,
      "d": 272.7270000000135,
      "v": 127
    },
    {
      "midi": 63,
      "hit": false,
      "t": 218181.60000000335,
      "d": 272.7270000000135,
      "v": 127
    },
    {
      "midi": 68,
      "hit": false,
      "t": 218181.60000000335,
      "d": 272.7270000000135,
      "v": 127
    },
    {
      "midi": 80,
      "hit": false,
      "t": 218181.60000000428,
      "d": 545.4539999999979,
      "v": 127
    },
    {
      "midi": 55,
      "hit": false,
      "t": 218454.32700000337,
      "d": 272.7270000000135,
      "v": 127
    },
    {
      "midi": 56,
      "hit": false,
      "t": 218727.05400000338,
      "d": 272.7270000000135,
      "v": 127
    },
    {
      "midi": 58,
      "hit": false,
      "t": 218999.7810000034,
      "d": 272.7270000000135,
      "v": 127
    },
    {
      "midi": 60,
      "hit": false,
      "t": 219272.5080000034,
      "d": 136.36350000000675,
      "v": 127
    },
    {
      "midi": 68,
      "hit": false,
      "t": 219272.50800000428,
      "d": 272.7270000000135,
      "v": 127
    },
    {
      "midi": 72,
      "hit": false,
      "t": 219272.50800000428,
      "d": 272.7270000000135,
      "v": 127
    },
    {
      "midi": 58,
      "hit": false,
      "t": 219408.8715000034,
      "d": 136.36350000000675,
      "v": 127
    },
    {
      "midi": 56,
      "hit": false,
      "t": 219545.23500000342,
      "d": 136.36350000000675,
      "v": 127
    },
    {
      "midi": 68,
      "hit": false,
      "t": 219545.2350000043,
      "d": 272.7270000000135,
      "v": 127
    },
    {
      "midi": 72,
      "hit": false,
      "t": 219545.2350000043,
      "d": 272.7270000000135,
      "v": 127
    },
    {
      "midi": 55,
      "hit": false,
      "t": 219681.59850000343,
      "d": 136.36350000000675,
      "v": 127
    },
    {
      "midi": 53,
      "hit": false,
      "t": 219817.96200000343,
      "d": 136.36350000000675,
      "v": 127
    },
    {
      "midi": 68,
      "hit": false,
      "t": 219817.9620000043,
      "d": 272.7270000000135,
      "v": 127
    },
    {
      "midi": 72,
      "hit": false,
      "t": 219817.9620000043,
      "d": 272.7270000000135,
      "v": 127
    },
    {
      "midi": 55,
      "hit": false,
      "t": 219954.32550000344,
      "d": 136.36350000000675,
      "v": 127
    },
    {
      "midi": 56,
      "hit": false,
      "t": 220090.68900000345,
      "d": 136.36350000000675,
      "v": 127
    },
    {
      "midi": 68,
      "hit": false,
      "t": 220090.68900000432,
      "d": 272.7270000000135,
      "v": 127
    },
    {
      "midi": 72,
      "hit": false,
      "t": 220090.68900000432,
      "d": 272.7270000000135,
      "v": 127
    },
    {
      "midi": 58,
      "hit": false,
      "t": 220227.05250000345,
      "d": 136.36350000000675,
      "v": 127
    },
    {
      "midi": 60,
      "hit": false,
      "t": 220363.41600000346,
      "d": 272.7270000000135,
      "v": 127
    },
    {
      "midi": 68,
      "hit": false,
      "t": 220363.41600000433,
      "d": 272.7270000000135,
      "v": 127
    },
    {
      "midi": 72,
      "hit": false,
      "t": 220363.41600000433,
      "d": 272.7270000000135,
      "v": 127
    },
    {
      "midi": 60,
      "hit": false,
      "t": 220636.14300000347,
      "d": 272.7270000000135,
      "v": 127
    },
    {
      "midi": 68,
      "hit": false,
      "t": 220636.14300000435,
      "d": 272.7270000000135,
      "v": 127
    },
    {
      "midi": 72,
      "hit": false,
      "t": 220636.14300000435,
      "d": 272.7270000000135,
      "v": 127
    },
    {
      "midi": 65,
      "hit": false,
      "t": 220908.8700000035,
      "d": 545.4539999999979,
      "v": 127
    },
    {
      "midi": 68,
      "hit": false,
      "t": 220908.87000000436,
      "d": 272.7270000000135,
      "v": 127
    },
    {
      "midi": 72,
      "hit": false,
      "t": 220908.87000000436,
      "d": 272.7270000000135,
      "v": 127
    },
    {
      "midi": 68,
      "hit": false,
      "t": 221181.59700000437,
      "d": 272.7270000000135,
      "v": 127
    },
    {
      "midi": 72,
      "hit": false,
      "t": 221181.59700000437,
      "d": 272.7270000000135,
      "v": 127
    },
    {
      "midi": 65,
      "hit": false,
      "t": 221454.3240000035,
      "d": 136.36350000000675,
      "v": 127
    },
    {
      "midi": 70,
      "hit": false,
      "t": 221454.3240000044,
      "d": 272.7270000000135,
      "v": 127
    },
    {
      "midi": 72,
      "hit": false,
      "t": 221454.3240000044,
      "d": 272.7270000000135,
      "v": 127
    },
    {
      "midi": 64,
      "hit": false,
      "t": 221590.6875000035,
      "d": 136.36350000000675,
      "v": 127
    },
    {
      "midi": 65,
      "hit": false,
      "t": 221727.0510000035,
      "d": 136.36350000000675,
      "v": 127
    },
    {
      "midi": 70,
      "hit": false,
      "t": 221727.0510000044,
      "d": 272.7270000000135,
      "v": 127
    },
    {
      "midi": 72,
      "hit": false,
      "t": 221727.0510000044,
      "d": 272.7270000000135,
      "v": 127
    },
    {
      "midi": 64,
      "hit": false,
      "t": 221863.4145000035,
      "d": 136.36350000000675,
      "v": 127
    },
    {
      "midi": 60,
      "hit": false,
      "t": 221999.7780000035,
      "d": 545.4539999999979,
      "v": 127
    },
    {
      "midi": 70,
      "hit": false,
      "t": 221999.77800000441,
      "d": 272.7270000000135,
      "v": 127
    },
    {
      "midi": 72,
      "hit": false,
      "t": 221999.77800000441,
      "d": 272.7270000000135,
      "v": 127
    },
    {
      "midi": 70,
      "hit": false,
      "t": 222272.50500000443,
      "d": 272.7270000000135,
      "v": 127
    },
    {
      "midi": 72,
      "hit": false,
      "t": 222272.50500000443,
      "d": 272.7270000000135,
      "v": 127
    },
    {
      "midi": 65,
      "hit": false,
      "t": 222545.2320000035,
      "d": 136.36350000000675,
      "v": 127
    },
    {
      "midi": 70,
      "hit": false,
      "t": 222545.23200000444,
      "d": 272.7270000000135,
      "v": 127
    },
    {
      "midi": 72,
      "hit": false,
      "t": 222545.23200000444,
      "d": 272.7270000000135,
      "v": 127
    },
    {
      "midi": 64,
      "hit": false,
      "t": 222681.59550000352,
      "d": 136.36350000000675,
      "v": 127
    },
    {
      "midi": 65,
      "hit": false,
      "t": 222817.95900000352,
      "d": 136.36350000000675,
      "v": 127
    },
    {
      "midi": 70,
      "hit": false,
      "t": 222817.95900000446,
      "d": 272.7270000000135,
      "v": 127
    },
    {
      "midi": 72,
      "hit": false,
      "t": 222817.95900000446,
      "d": 272.7270000000135,
      "v": 127
    },
    {
      "midi": 64,
      "hit": false,
      "t": 222954.32250000353,
      "d": 136.36350000000675,
      "v": 127
    },
    {
      "midi": 60,
      "hit": false,
      "t": 223090.68600000354,
      "d": 545.4539999999979,
      "v": 127
    },
    {
      "midi": 70,
      "hit": false,
      "t": 223090.68600000447,
      "d": 272.7270000000135,
      "v": 127
    },
    {
      "midi": 72,
      "hit": false,
      "t": 223090.68600000447,
      "d": 272.7270000000135,
      "v": 127
    },
    {
      "midi": 70,
      "hit": false,
      "t": 223363.41300000448,
      "d": 272.7270000000135,
      "v": 127
    },
    {
      "midi": 72,
      "hit": false,
      "t": 223363.41300000448,
      "d": 272.7270000000135,
      "v": 127
    },
    {
      "midi": 60,
      "hit": false,
      "t": 223636.14000000354,
      "d": 136.36350000000675,
      "v": 127
    },
    {
      "midi": 68,
      "hit": false,
      "t": 223636.1400000045,
      "d": 272.7270000000135,
      "v": 127
    },
    {
      "midi": 72,
      "hit": false,
      "t": 223636.1400000045,
      "d": 272.7270000000135,
      "v": 127
    },
    {
      "midi": 58,
      "hit": false,
      "t": 223772.50350000354,
      "d": 136.36350000000675,
      "v": 127
    },
    {
      "midi": 56,
      "hit": false,
      "t": 223908.86700000355,
      "d": 136.36350000000675,
      "v": 127
    },
    {
      "midi": 68,
      "hit": false,
      "t": 223908.8670000045,
      "d": 272.7270000000135,
      "v": 127
    },
    {
      "midi": 72,
      "hit": false,
      "t": 223908.8670000045,
      "d": 272.7270000000135,
      "v": 127
    },
    {
      "midi": 55,
      "hit": false,
      "t": 224045.23050000356,
      "d": 136.36350000000675,
      "v": 127
    },
    {
      "midi": 53,
      "hit": false,
      "t": 224181.59400000356,
      "d": 136.36350000000675,
      "v": 127
    },
    {
      "midi": 68,
      "hit": false,
      "t": 224181.59400000452,
      "d": 272.7270000000135,
      "v": 127
    },
    {
      "midi": 72,
      "hit": false,
      "t": 224181.59400000452,
      "d": 272.7270000000135,
      "v": 127
    },
    {
      "midi": 55,
      "hit": false,
      "t": 224317.95750000357,
      "d": 136.36350000000675,
      "v": 127
    },
    {
      "midi": 56,
      "hit": false,
      "t": 224454.32100000358,
      "d": 136.36350000000675,
      "v": 127
    },
    {
      "midi": 68,
      "hit": false,
      "t": 224454.32100000454,
      "d": 272.7270000000135,
      "v": 127
    },
    {
      "midi": 72,
      "hit": false,
      "t": 224454.32100000454,
      "d": 272.7270000000135,
      "v": 127
    },
    {
      "midi": 58,
      "hit": false,
      "t": 224590.68450000358,
      "d": 136.36350000000675,
      "v": 127
    },
    {
      "midi": 60,
      "hit": false,
      "t": 224727.0480000036,
      "d": 272.7270000000135,
      "v": 127
    },
    {
      "midi": 68,
      "hit": false,
      "t": 224727.04800000455,
      "d": 272.7270000000135,
      "v": 127
    },
    {
      "midi": 72,
      "hit": false,
      "t": 224727.04800000455,
      "d": 272.7270000000135,
      "v": 127
    },
    {
      "midi": 60,
      "hit": false,
      "t": 224999.7750000036,
      "d": 272.7270000000135,
      "v": 127
    },
    {
      "midi": 68,
      "hit": false,
      "t": 224999.77500000456,
      "d": 272.7270000000135,
      "v": 127
    },
    {
      "midi": 72,
      "hit": false,
      "t": 224999.77500000456,
      "d": 272.7270000000135,
      "v": 127
    },
    {
      "midi": 65,
      "hit": false,
      "t": 225272.50200000362,
      "d": 545.4539999999979,
      "v": 127
    },
    {
      "midi": 68,
      "hit": false,
      "t": 225272.50200000458,
      "d": 272.7270000000135,
      "v": 127
    },
    {
      "midi": 72,
      "hit": false,
      "t": 225272.50200000458,
      "d": 272.7270000000135,
      "v": 127
    },
    {
      "midi": 68,
      "hit": false,
      "t": 225545.2290000046,
      "d": 272.7270000000135,
      "v": 127
    },
    {
      "midi": 72,
      "hit": false,
      "t": 225545.2290000046,
      "d": 272.7270000000135,
      "v": 127
    },
    {
      "midi": 62,
      "hit": false,
      "t": 225817.9560000036,
      "d": 818.1810000000114,
      "v": 127
    },
    {
      "midi": 68,
      "hit": false,
      "t": 225817.9560000046,
      "d": 272.7270000000135,
      "v": 127
    },
    {
      "midi": 70,
      "hit": false,
      "t": 225817.9560000046,
      "d": 272.7270000000135,
      "v": 127
    },
    {
      "midi": 68,
      "hit": false,
      "t": 226090.68300000462,
      "d": 272.7270000000135,
      "v": 127
    },
    {
      "midi": 70,
      "hit": false,
      "t": 226090.68300000462,
      "d": 272.7270000000135,
      "v": 127
    },
    {
      "midi": 68,
      "hit": false,
      "t": 226363.41000000463,
      "d": 272.7270000000135,
      "v": 127
    },
    {
      "midi": 70,
      "hit": false,
      "t": 226363.41000000463,
      "d": 272.7270000000135,
      "v": 127
    },
    {
      "midi": 60,
      "hit": false,
      "t": 226636.13700000363,
      "d": 272.7270000000135,
      "v": 127
    },
    {
      "midi": 68,
      "hit": false,
      "t": 226636.13700000464,
      "d": 272.7270000000135,
      "v": 127
    },
    {
      "midi": 70,
      "hit": false,
      "t": 226636.13700000464,
      "d": 272.7270000000135,
      "v": 127
    },
    {
      "midi": 63,
      "hit": false,
      "t": 226908.86400000364,
      "d": 545.4539999999979,
      "v": 127
    },
    {
      "midi": 67,
      "hit": false,
      "t": 226908.86400000466,
      "d": 272.7270000000135,
      "v": 127
    },
    {
      "midi": 70,
      "hit": false,
      "t": 226908.86400000466,
      "d": 272.7270000000135,
      "v": 127
    },
    {
      "midi": 67,
      "hit": false,
      "t": 227181.59100000467,
      "d": 272.7270000000135,
      "v": 127
    },
    {
      "midi": 70,
      "hit": false,
      "t": 227181.59100000467,
      "d": 272.7270000000135,
      "v": 127
    },
    {
      "midi": 67,
      "hit": false,
      "t": 227454.31800000469,
      "d": 272.7270000000135,
      "v": 127
    },
    {
      "midi": 70,
      "hit": false,
      "t": 227454.31800000469,
      "d": 272.7270000000135,
      "v": 127
    },
    {
      "midi": 67,
      "hit": false,
      "t": 227727.0450000047,
      "d": 272.7270000000135,
      "v": 127
    },
    {
      "midi": 70,
      "hit": false,
      "t": 227727.0450000047,
      "d": 272.7270000000135,
      "v": 127
    },
    {
      "midi": 56,
      "hit": false,
      "t": 227999.77200000364,
      "d": 272.7270000000135,
      "v": 127
    },
    {
      "midi": 60,
      "hit": false,
      "t": 227999.77200000364,
      "d": 272.7270000000135,
      "v": 127
    },
    {
      "midi": 63,
      "hit": false,
      "t": 227999.77200000364,
      "d": 272.7270000000135,
      "v": 127
    },
    {
      "midi": 72,
      "hit": false,
      "t": 227999.7720000047,
      "d": 545.4539999999979,
      "v": 127
    },
    {
      "midi": 56,
      "hit": false,
      "t": 228272.49900000365,
      "d": 272.7270000000135,
      "v": 127
    },
    {
      "midi": 60,
      "hit": false,
      "t": 228272.49900000365,
      "d": 272.7270000000135,
      "v": 127
    },
    {
      "midi": 63,
      "hit": false,
      "t": 228272.49900000365,
      "d": 272.7270000000135,
      "v": 127
    },
    {
      "midi": 56,
      "hit": false,
      "t": 228545.22600000366,
      "d": 272.7270000000135,
      "v": 127
    },
    {
      "midi": 60,
      "hit": false,
      "t": 228545.22600000366,
      "d": 272.7270000000135,
      "v": 127
    },
    {
      "midi": 63,
      "hit": false,
      "t": 228545.22600000366,
      "d": 272.7270000000135,
      "v": 127
    },
    {
      "midi": 75,
      "hit": false,
      "t": 228545.2260000047,
      "d": 272.7270000000135,
      "v": 127
    },
    {
      "midi": 56,
      "hit": false,
      "t": 228817.95300000368,
      "d": 272.7270000000135,
      "v": 127
    },
    {
      "midi": 60,
      "hit": false,
      "t": 228817.95300000368,
      "d": 272.7270000000135,
      "v": 127
    },
    {
      "midi": 63,
      "hit": false,
      "t": 228817.95300000368,
      "d": 272.7270000000135,
      "v": 127
    },
    {
      "midi": 75,
      "hit": false,
      "t": 228817.95300000472,
      "d": 272.7270000000135,
      "v": 127
    },
    {
      "midi": 56,
      "hit": false,
      "t": 229090.6800000037,
      "d": 272.7270000000135,
      "v": 127
    },
    {
      "midi": 60,
      "hit": false,
      "t": 229090.6800000037,
      "d": 272.7270000000135,
      "v": 127
    },
    {
      "midi": 63,
      "hit": false,
      "t": 229090.6800000037,
      "d": 272.7270000000135,
      "v": 127
    },
    {
      "midi": 80,
      "hit": false,
      "t": 229090.68000000474,
      "d": 272.7270000000135,
      "v": 127
    },
    {
      "midi": 56,
      "hit": false,
      "t": 229363.4070000037,
      "d": 272.7270000000135,
      "v": 127
    },
    {
      "midi": 60,
      "hit": false,
      "t": 229363.4070000037,
      "d": 272.7270000000135,
      "v": 127
    },
    {
      "midi": 63,
      "hit": false,
      "t": 229363.4070000037,
      "d": 272.7270000000135,
      "v": 127
    },
    {
      "midi": 80,
      "hit": false,
      "t": 229363.40700000475,
      "d": 272.7270000000135,
      "v": 127
    },
    {
      "midi": 56,
      "hit": false,
      "t": 229636.13400000372,
      "d": 272.7270000000135,
      "v": 127
    },
    {
      "midi": 60,
      "hit": false,
      "t": 229636.13400000372,
      "d": 272.7270000000135,
      "v": 127
    },
    {
      "midi": 63,
      "hit": false,
      "t": 229636.13400000372,
      "d": 272.7270000000135,
      "v": 127
    },
    {
      "midi": 84,
      "hit": false,
      "t": 229636.13400000476,
      "d": 545.4539999999979,
      "v": 127
    },
    {
      "midi": 56,
      "hit": false,
      "t": 229908.86100000373,
      "d": 272.7270000000135,
      "v": 127
    },
    {
      "midi": 60,
      "hit": false,
      "t": 229908.86100000373,
      "d": 272.7270000000135,
      "v": 127
    },
    {
      "midi": 63,
      "hit": false,
      "t": 229908.86100000373,
      "d": 272.7270000000135,
      "v": 127
    },
    {
      "midi": 55,
      "hit": false,
      "t": 230181.58800000374,
      "d": 272.7270000000135,
      "v": 127
    },
    {
      "midi": 58,
      "hit": false,
      "t": 230181.58800000374,
      "d": 272.7270000000135,
      "v": 127
    },
    {
      "midi": 61,
      "hit": false,
      "t": 230181.58800000374,
      "d": 272.7270000000135,
      "v": 127
    },
    {
      "midi": 63,
      "hit": false,
      "t": 230181.58800000374,
      "d": 272.7270000000135,
      "v": 127
    },
    {
      "midi": 87,
      "hit": false,
      "t": 230181.58800000476,
      "d": 136.36350000000675,
      "v": 127
    },
    {
      "midi": 85,
      "hit": false,
      "t": 230317.95150000477,
      "d": 136.36350000000675,
      "v": 127
    },
    {
      "midi": 55,
      "hit": false,
      "t": 230454.31500000376,
      "d": 272.7270000000135,
      "v": 127
    },
    {
      "midi": 58,
      "hit": false,
      "t": 230454.31500000376,
      "d": 272.7270000000135,
      "v": 127
    },
    {
      "midi": 61,
      "hit": false,
      "t": 230454.31500000376,
      "d": 272.7270000000135,
      "v": 127
    },
    {
      "midi": 63,
      "hit": false,
      "t": 230454.31500000376,
      "d": 272.7270000000135,
      "v": 127
    },
    {
      "midi": 87,
      "hit": false,
      "t": 230454.31500000478,
      "d": 136.36350000000675,
      "v": 127
    },
    {
      "midi": 85,
      "hit": false,
      "t": 230590.67850000478,
      "d": 136.36350000000675,
      "v": 127
    },
    {
      "midi": 55,
      "hit": false,
      "t": 230727.04200000377,
      "d": 272.7270000000135,
      "v": 127
    },
    {
      "midi": 58,
      "hit": false,
      "t": 230727.04200000377,
      "d": 272.7270000000135,
      "v": 127
    },
    {
      "midi": 61,
      "hit": false,
      "t": 230727.04200000377,
      "d": 272.7270000000135,
      "v": 127
    },
    {
      "midi": 63,
      "hit": false,
      "t": 230727.04200000377,
      "d": 272.7270000000135,
      "v": 127
    },
    {
      "midi": 82,
      "hit": false,
      "t": 230727.0420000048,
      "d": 545.4539999999979,
      "v": 127
    },
    {
      "midi": 55,
      "hit": false,
      "t": 230999.76900000378,
      "d": 272.7270000000135,
      "v": 127
    },
    {
      "midi": 58,
      "hit": false,
      "t": 230999.76900000378,
      "d": 272.7270000000135,
      "v": 127
    },
    {
      "midi": 61,
      "hit": false,
      "t": 230999.76900000378,
      "d": 272.7270000000135,
      "v": 127
    },
    {
      "midi": 63,
      "hit": false,
      "t": 230999.76900000378,
      "d": 272.7270000000135,
      "v": 127
    },
    {
      "midi": 55,
      "hit": false,
      "t": 231272.4960000038,
      "d": 272.7270000000135,
      "v": 127
    },
    {
      "midi": 58,
      "hit": false,
      "t": 231272.4960000038,
      "d": 272.7270000000135,
      "v": 127
    },
    {
      "midi": 61,
      "hit": false,
      "t": 231272.4960000038,
      "d": 272.7270000000135,
      "v": 127
    },
    {
      "midi": 63,
      "hit": false,
      "t": 231272.4960000038,
      "d": 272.7270000000135,
      "v": 127
    },
    {
      "midi": 87,
      "hit": false,
      "t": 231272.4960000048,
      "d": 136.36350000000675,
      "v": 127
    },
    {
      "midi": 85,
      "hit": false,
      "t": 231408.8595000048,
      "d": 136.36350000000675,
      "v": 127
    },
    {
      "midi": 55,
      "hit": false,
      "t": 231545.2230000038,
      "d": 272.7270000000135,
      "v": 127
    },
    {
      "midi": 58,
      "hit": false,
      "t": 231545.2230000038,
      "d": 272.7270000000135,
      "v": 127
    },
    {
      "midi": 61,
      "hit": false,
      "t": 231545.2230000038,
      "d": 272.7270000000135,
      "v": 127
    },
    {
      "midi": 63,
      "hit": false,
      "t": 231545.2230000038,
      "d": 272.7270000000135,
      "v": 127
    },
    {
      "midi": 87,
      "hit": false,
      "t": 231545.2230000048,
      "d": 136.36350000000675,
      "v": 127
    },
    {
      "midi": 85,
      "hit": false,
      "t": 231681.5865000048,
      "d": 136.36350000000675,
      "v": 127
    },
    {
      "midi": 55,
      "hit": false,
      "t": 231817.95000000382,
      "d": 272.7270000000135,
      "v": 127
    },
    {
      "midi": 58,
      "hit": false,
      "t": 231817.95000000382,
      "d": 272.7270000000135,
      "v": 127
    },
    {
      "midi": 61,
      "hit": false,
      "t": 231817.95000000382,
      "d": 272.7270000000135,
      "v": 127
    },
    {
      "midi": 63,
      "hit": false,
      "t": 231817.95000000382,
      "d": 272.7270000000135,
      "v": 127
    },
    {
      "midi": 82,
      "hit": false,
      "t": 231817.9500000048,
      "d": 545.4539999999979,
      "v": 127
    },
    {
      "midi": 55,
      "hit": false,
      "t": 232090.67700000384,
      "d": 272.7270000000135,
      "v": 127
    },
    {
      "midi": 58,
      "hit": false,
      "t": 232090.67700000384,
      "d": 272.7270000000135,
      "v": 127
    },
    {
      "midi": 61,
      "hit": false,
      "t": 232090.67700000384,
      "d": 272.7270000000135,
      "v": 127
    },
    {
      "midi": 63,
      "hit": false,
      "t": 232090.67700000384,
      "d": 272.7270000000135,
      "v": 127
    },
    {
      "midi": 44,
      "hit": false,
      "t": 232363.40400000385,
      "d": 545.4539999999979,
      "v": 127
    },
    {
      "midi": 84,
      "hit": false,
      "t": 232499.76750000482,
      "d": 136.36350000000675,
      "v": 127
    },
    {
      "midi": 80,
      "hit": false,
      "t": 232636.13100000483,
      "d": 136.36350000000675,
      "v": 127
    },
    {
      "midi": 75,
      "hit": false,
      "t": 232772.49450000483,
      "d": 136.36350000000675,
      "v": 127
    },
    {
      "midi": 48,
      "hit": false,
      "t": 232908.85800000385,
      "d": 272.7270000000135,
      "v": 127
    },
    {
      "midi": 72,
      "hit": false,
      "t": 232908.85800000484,
      "d": 136.36350000000675,
      "v": 127
    },
    {
      "midi": 80,
      "hit": false,
      "t": 233045.22150000485,
      "d": 136.36350000000675,
      "v": 127
    },
    {
      "midi": 48,
      "hit": false,
      "t": 233181.58500000386,
      "d": 272.7270000000135,
      "v": 127
    },
    {
      "midi": 75,
      "hit": false,
      "t": 233181.58500000485,
      "d": 136.36350000000675,
      "v": 127
    },
    {
      "midi": 72,
      "hit": false,
      "t": 233317.94850000486,
      "d": 136.36350000000675,
      "v": 127
    },
    {
      "midi": 51,
      "hit": false,
      "t": 233454.31200000388,
      "d": 272.7270000000135,
      "v": 127
    },
    {
      "midi": 68,
      "hit": false,
      "t": 233454.31200000487,
      "d": 136.36350000000675,
      "v": 127
    },
    {
      "midi": 72,
      "hit": false,
      "t": 233590.67550000487,
      "d": 136.36350000000675,
      "v": 127
    },
    {
      "midi": 51,
      "hit": false,
      "t": 233727.0390000039,
      "d": 272.7270000000135,
      "v": 127
    },
    {
      "midi": 68,
      "hit": false,
      "t": 233727.03900000488,
      "d": 136.36350000000675,
      "v": 127
    },
    {
      "midi": 63,
      "hit": false,
      "t": 233863.4025000049,
      "d": 136.36350000000675,
      "v": 127
    },
    {
      "midi": 56,
      "hit": false,
      "t": 233999.7660000039,
      "d": 545.4539999999979,
      "v": 127
    },
    {
      "midi": 60,
      "hit": false,
      "t": 233999.7660000049,
      "d": 136.36350000000675,
      "v": 127
    },
    {
      "midi": 68,
      "hit": false,
      "t": 234136.1295000049,
      "d": 136.36350000000675,
      "v": 127
    },
    {
      "midi": 63,
      "hit": false,
      "t": 234272.4930000049,
      "d": 136.36350000000675,
      "v": 127
    },
    {
      "midi": 60,
      "hit": false,
      "t": 234408.8565000049,
      "d": 136.36350000000675,
      "v": 127
    },
    {
      "midi": 58,
      "hit": false,
      "t": 234545.2200000039,
      "d": 545.4539999999979,
      "v": 127
    },
    {
      "midi": 67,
      "hit": false,
      "t": 234681.58350000493,
      "d": 136.36350000000675,
      "v": 127
    },
    {
      "midi": 72,
      "hit": false,
      "t": 234817.94700000493,
      "d": 136.36350000000675,
      "v": 127
    },
    {
      "midi": 76,
      "hit": false,
      "t": 234954.31050000494,
      "d": 136.36350000000675,
      "v": 127
    },
    {
      "midi": 55,
      "hit": false,
      "t": 235090.6740000039,
      "d": 272.7270000000135,
      "v": 127
    },
    {
      "midi": 79,
      "hit": false,
      "t": 235090.67400000495,
      "d": 136.36350000000675,
      "v": 127
    },
    {
      "midi": 72,
      "hit": false,
      "t": 235227.03750000495,
      "d": 136.36350000000675,
      "v": 127
    },
    {
      "midi": 55,
      "hit": false,
      "t": 235363.4010000039,
      "d": 272.7270000000135,
      "v": 127
    },
    {
      "midi": 76,
      "hit": false,
      "t": 235363.40100000496,
      "d": 136.36350000000675,
      "v": 127
    },
    {
      "midi": 79,
      "hit": false,
      "t": 235499.76450000497,
      "d": 136.36350000000675,
      "v": 127
    },
    {
      "midi": 52,
      "hit": false,
      "t": 235636.12800000393,
      "d": 272.7270000000135,
      "v": 127
    },
    {
      "midi": 84,
      "hit": false,
      "t": 235636.12800000497,
      "d": 136.36350000000675,
      "v": 127
    },
    {
      "midi": 76,
      "hit": false,
      "t": 235772.49150000498,
      "d": 136.36350000000675,
      "v": 127
    },
    {
      "midi": 52,
      "hit": false,
      "t": 235908.85500000394,
      "d": 272.7270000000135,
      "v": 127
    },
    {
      "midi": 79,
      "hit": false,
      "t": 235908.855000005,
      "d": 136.36350000000675,
      "v": 127
    },
    {
      "midi": 84,
      "hit": false,
      "t": 236045.218500005,
      "d": 136.36350000000675,
      "v": 127
    },
    {
      "midi": 48,
      "hit": false,
      "t": 236181.58200000395,
      "d": 545.4539999999979,
      "v": 127
    },
    {
      "midi": 88,
      "hit": false,
      "t": 236181.582000005,
      "d": 136.36350000000675,
      "v": 127
    },
    {
      "midi": 79,
      "hit": false,
      "t": 236317.945500005,
      "d": 136.36350000000675,
      "v": 127
    },
    {
      "midi": 84,
      "hit": false,
      "t": 236454.309000005,
      "d": 136.36350000000675,
      "v": 127
    },
    {
      "midi": 88,
      "hit": false,
      "t": 236590.67250000502,
      "d": 136.36350000000675,
      "v": 127
    },
    {
      "midi": 44,
      "hit": false,
      "t": 236727.03600000395,
      "d": 545.4539999999979,
      "v": 127
    },
    {
      "midi": 89,
      "hit": false,
      "t": 236863.39950000503,
      "d": 136.36350000000675,
      "v": 127
    },
    {
      "midi": 84,
      "hit": false,
      "t": 236999.76300000504,
      "d": 136.36350000000675,
      "v": 127
    },
    {
      "midi": 80,
      "hit": false,
      "t": 237136.12650000505,
      "d": 136.36350000000675,
      "v": 127
    },
    {
      "midi": 48,
      "hit": false,
      "t": 237272.49000000395,
      "d": 272.7270000000135,
      "v": 127
    },
    {
      "midi": 77,
      "hit": false,
      "t": 237272.49000000505,
      "d": 136.36350000000675,
      "v": 127
    },
    {
      "midi": 84,
      "hit": false,
      "t": 237408.85350000506,
      "d": 136.36350000000675,
      "v": 127
    },
    {
      "midi": 48,
      "hit": false,
      "t": 237545.21700000396,
      "d": 272.7270000000135,
      "v": 127
    },
    {
      "midi": 80,
      "hit": false,
      "t": 237545.21700000507,
      "d": 136.36350000000675,
      "v": 127
    },
    {
      "midi": 77,
      "hit": false,
      "t": 237681.58050000508,
      "d": 136.36350000000675,
      "v": 127
    },
    {
      "midi": 53,
      "hit": false,
      "t": 237817.94400000398,
      "d": 272.7270000000135,
      "v": 127
    },
    {
      "midi": 72,
      "hit": false,
      "t": 237817.94400000508,
      "d": 136.36350000000675,
      "v": 127
    },
    {
      "midi": 76,
      "hit": false,
      "t": 237954.3075000051,
      "d": 136.36350000000675,
      "v": 127
    },
    {
      "midi": 53,
      "hit": false,
      "t": 238090.671000004,
      "d": 272.7270000000135,
      "v": 127
    },
    {
      "midi": 72,
      "hit": false,
      "t": 238090.6710000051,
      "d": 136.36350000000675,
      "v": 127
    },
    {
      "midi": 68,
      "hit": false,
      "t": 238227.0345000051,
      "d": 136.36350000000675,
      "v": 127
    },
    {
      "midi": 56,
      "hit": false,
      "t": 238363.398000004,
      "d": 545.4539999999979,
      "v": 127
    },
    {
      "midi": 65,
      "hit": false,
      "t": 238363.3980000051,
      "d": 136.36350000000675,
      "v": 127
    },
    {
      "midi": 72,
      "hit": false,
      "t": 238499.76150000512,
      "d": 136.36350000000675,
      "v": 127
    },
    {
      "midi": 68,
      "hit": false,
      "t": 238636.12500000512,
      "d": 136.36350000000675,
      "v": 127
    },
    {
      "midi": 65,
      "hit": false,
      "t": 238772.48850000513,
      "d": 136.36350000000675,
      "v": 127
    },
    {
      "midi": 54,
      "hit": false,
      "t": 238908.852000004,
      "d": 545.4539999999979,
      "v": 127
    },
    {
      "midi": 60,
      "hit": false,
      "t": 239045.21550000514,
      "d": 136.36350000000675,
      "v": 127
    },
    {
      "midi": 63,
      "hit": false,
      "t": 239181.57900000515,
      "d": 136.36350000000675,
      "v": 127
    },
    {
      "midi": 68,
      "hit": false,
      "t": 239317.94250000516,
      "d": 136.36350000000675,
      "v": 127
    },
    {
      "midi": 51,
      "hit": false,
      "t": 239454.306000004,
      "d": 272.7270000000135,
      "v": 127
    },
    {
      "midi": 72,
      "hit": false,
      "t": 239454.30600000516,
      "d": 136.36350000000675,
      "v": 127
    },
    {
      "midi": 63,
      "hit": false,
      "t": 239590.66950000517,
      "d": 136.36350000000675,
      "v": 127
    },
    {
      "midi": 51,
      "hit": false,
      "t": 239727.033000004,
      "d": 272.7270000000135,
      "v": 127
    },
    {
      "midi": 68,
      "hit": false,
      "t": 239727.03300000518,
      "d": 136.36350000000675,
      "v": 127
    },
    {
      "midi": 72,
      "hit": false,
      "t": 239863.39650000518,
      "d": 136.36350000000675,
      "v": 127
    },
    {
      "midi": 48,
      "hit": false,
      "t": 239999.76000000403,
      "d": 272.7270000000135,
      "v": 127
    },
    {
      "midi": 75,
      "hit": false,
      "t": 239999.7600000052,
      "d": 136.36350000000675,
      "v": 127
    },
    {
      "midi": 68,
      "hit": false,
      "t": 240136.1235000052,
      "d": 136.36350000000675,
      "v": 127
    },
    {
      "midi": 48,
      "hit": false,
      "t": 240272.48700000404,
      "d": 272.7270000000135,
      "v": 127
    },
    {
      "midi": 72,
      "hit": false,
      "t": 240272.4870000052,
      "d": 136.36350000000675,
      "v": 127
    },
    {
      "midi": 75,
      "hit": false,
      "t": 240408.8505000052,
      "d": 136.36350000000675,
      "v": 127
    },
    {
      "midi": 42,
      "hit": false,
      "t": 240545.21400000405,
      "d": 545.4539999999979,
      "v": 127
    },
    {
      "midi": 80,
      "hit": false,
      "t": 240545.21400000522,
      "d": 136.36350000000675,
      "v": 127
    },
    {
      "midi": 72,
      "hit": false,
      "t": 240681.57750000522,
      "d": 136.36350000000675,
      "v": 127
    },
    {
      "midi": 75,
      "hit": false,
      "t": 240817.94100000523,
      "d": 136.36350000000675,
      "v": 127
    },
    {
      "midi": 80,
      "hit": false,
      "t": 240954.30450000524,
      "d": 136.36350000000675,
      "v": 127
    },
    {
      "midi": 61,
      "hit": false,
      "t": 241090.66800000524,
      "d": 545.4539999999979,
      "v": 127
    },
    {
      "midi": 73,
      "hit": false,
      "t": 241090.66800000524,
      "d": 545.4539999999979,
      "v": 127
    },
    {
      "midi": 53,
      "hit": false,
      "t": 241227.03150000406,
      "d": 136.36350000000675,
      "v": 127
    },
    {
      "midi": 49,
      "hit": false,
      "t": 241363.39500000406,
      "d": 136.36350000000675,
      "v": 127
    },
    {
      "midi": 44,
      "hit": false,
      "t": 241499.75850000407,
      "d": 136.36350000000675,
      "v": 127
    },
    {
      "midi": 41,
      "hit": false,
      "t": 241636.12200000408,
      "d": 136.36350000000675,
      "v": 127
    },
    {
      "midi": 65,
      "hit": false,
      "t": 241636.12200000524,
      "d": 272.7270000000135,
      "v": 127
    },
    {
      "midi": 77,
      "hit": false,
      "t": 241636.12200000524,
      "d": 272.7270000000135,
      "v": 127
    },
    {
      "midi": 49,
      "hit": false,
      "t": 241772.48550000408,
      "d": 136.36350000000675,
      "v": 127
    },
    {
      "midi": 44,
      "hit": false,
      "t": 241908.8490000041,
      "d": 136.36350000000675,
      "v": 127
    },
    {
      "midi": 65,
      "hit": false,
      "t": 241908.84900000526,
      "d": 272.7270000000135,
      "v": 127
    },
    {
      "midi": 77,
      "hit": false,
      "t": 241908.84900000526,
      "d": 272.7270000000135,
      "v": 127
    },
    {
      "midi": 41,
      "hit": false,
      "t": 242045.2125000041,
      "d": 136.36350000000675,
      "v": 127
    },
    {
      "midi": 37,
      "hit": false,
      "t": 242181.5760000041,
      "d": 136.36350000000675,
      "v": 127
    },
    {
      "midi": 68,
      "hit": false,
      "t": 242181.57600000527,
      "d": 272.7270000000135,
      "v": 127
    },
    {
      "midi": 80,
      "hit": false,
      "t": 242181.57600000527,
      "d": 272.7270000000135,
      "v": 127
    },
    {
      "midi": 41,
      "hit": false,
      "t": 242317.9395000041,
      "d": 136.36350000000675,
      "v": 127
    },
    {
      "midi": 37,
      "hit": false,
      "t": 242454.30300000412,
      "d": 136.36350000000675,
      "v": 127
    },
    {
      "midi": 68,
      "hit": false,
      "t": 242454.30300000528,
      "d": 272.7270000000135,
      "v": 127
    },
    {
      "midi": 80,
      "hit": false,
      "t": 242454.30300000528,
      "d": 272.7270000000135,
      "v": 127
    },
    {
      "midi": 32,
      "hit": false,
      "t": 242590.66650000412,
      "d": 136.36350000000675,
      "v": 127
    },
    {
      "midi": 29,
      "hit": false,
      "t": 242727.03000000413,
      "d": 136.36350000000675,
      "v": 127
    },
    {
      "midi": 73,
      "hit": false,
      "t": 242727.0300000053,
      "d": 545.4539999999979,
      "v": 127
    },
    {
      "midi": 85,
      "hit": false,
      "t": 242727.0300000053,
      "d": 545.4539999999979,
      "v": 127
    },
    {
      "midi": 32,
      "hit": false,
      "t": 242863.39350000414,
      "d": 136.36350000000675,
      "v": 127
    },
    {
      "midi": 37,
      "hit": false,
      "t": 242999.75700000415,
      "d": 136.36350000000675,
      "v": 127
    },
    {
      "midi": 41,
      "hit": false,
      "t": 243136.12050000415,
      "d": 136.36350000000675,
      "v": 127
    },
    {
      "midi": 29,
      "hit": false,
      "t": 243272.48400000416,
      "d": 136.36350000000675,
      "v": 127
    },
    {
      "midi": 75,
      "hit": false,
      "t": 243272.4840000053,
      "d": 545.4539999999979,
      "v": 127
    },
    {
      "midi": 87,
      "hit": false,
      "t": 243272.4840000053,
      "d": 545.4539999999979,
      "v": 127
    },
    {
      "midi": 33,
      "hit": false,
      "t": 243408.84750000417,
      "d": 136.36350000000675,
      "v": 127
    },
    {
      "midi": 36,
      "hit": false,
      "t": 243545.21100000417,
      "d": 136.36350000000675,
      "v": 127
    },
    {
      "midi": 41,
      "hit": false,
      "t": 243681.57450000418,
      "d": 136.36350000000675,
      "v": 127
    },
    {
      "midi": 33,
      "hit": false,
      "t": 243817.9380000042,
      "d": 136.36350000000675,
      "v": 127
    },
    {
      "midi": 72,
      "hit": false,
      "t": 243817.9380000053,
      "d": 272.7270000000135,
      "v": 127
    },
    {
      "midi": 75,
      "hit": false,
      "t": 243817.9380000053,
      "d": 272.7270000000135,
      "v": 127
    },
    {
      "midi": 81,
      "hit": false,
      "t": 243817.9380000053,
      "d": 272.7270000000135,
      "v": 127
    },
    {
      "midi": 84,
      "hit": false,
      "t": 243817.9380000053,
      "d": 272.7270000000135,
      "v": 127
    },
    {
      "midi": 36,
      "hit": false,
      "t": 243954.3015000042,
      "d": 136.36350000000675,
      "v": 127
    },
    {
      "midi": 41,
      "hit": false,
      "t": 244090.6650000042,
      "d": 136.36350000000675,
      "v": 127
    },
    {
      "midi": 72,
      "hit": false,
      "t": 244090.6650000053,
      "d": 272.7270000000135,
      "v": 127
    },
    {
      "midi": 75,
      "hit": false,
      "t": 244090.6650000053,
      "d": 272.7270000000135,
      "v": 127
    },
    {
      "midi": 81,
      "hit": false,
      "t": 244090.6650000053,
      "d": 272.7270000000135,
      "v": 127
    },
    {
      "midi": 84,
      "hit": false,
      "t": 244090.6650000053,
      "d": 272.7270000000135,
      "v": 127
    },
    {
      "midi": 45,
      "hit": false,
      "t": 244227.0285000042,
      "d": 136.36350000000675,
      "v": 127
    },
    {
      "midi": 36,
      "hit": false,
      "t": 244363.3920000042,
      "d": 136.36350000000675,
      "v": 127
    },
    {
      "midi": 69,
      "hit": false,
      "t": 244363.39200000532,
      "d": 272.7270000000135,
      "v": 127
    },
    {
      "midi": 72,
      "hit": false,
      "t": 244363.39200000532,
      "d": 272.7270000000135,
      "v": 127
    },
    {
      "midi": 75,
      "hit": false,
      "t": 244363.39200000532,
      "d": 272.7270000000135,
      "v": 127
    },
    {
      "midi": 81,
      "hit": false,
      "t": 244363.39200000532,
      "d": 272.7270000000135,
      "v": 127
    },
    {
      "midi": 41,
      "hit": false,
      "t": 244499.75550000422,
      "d": 136.36350000000675,
      "v": 127
    },
    {
      "midi": 45,
      "hit": false,
      "t": 244636.11900000423,
      "d": 136.36350000000675,
      "v": 127
    },
    {
      "midi": 69,
      "hit": false,
      "t": 244636.11900000533,
      "d": 272.7270000000135,
      "v": 127
    },
    {
      "midi": 72,
      "hit": false,
      "t": 244636.11900000533,
      "d": 272.7270000000135,
      "v": 127
    },
    {
      "midi": 75,
      "hit": false,
      "t": 244636.11900000533,
      "d": 272.7270000000135,
      "v": 127
    },
    {
      "midi": 81,
      "hit": false,
      "t": 244636.11900000533,
      "d": 272.7270000000135,
      "v": 127
    },
    {
      "midi": 48,
      "hit": false,
      "t": 244772.48250000423,
      "d": 136.36350000000675,
      "v": 127
    },
    {
      "midi": 41,
      "hit": false,
      "t": 244908.84600000424,
      "d": 136.36350000000675,
      "v": 127
    },
    {
      "midi": 63,
      "hit": false,
      "t": 244908.84600000535,
      "d": 545.4539999999979,
      "v": 127
    },
    {
      "midi": 75,
      "hit": false,
      "t": 244908.84600000535,
      "d": 545.4539999999979,
      "v": 127
    },
    {
      "midi": 45,
      "hit": false,
      "t": 245045.20950000425,
      "d": 136.36350000000675,
      "v": 127
    },
    {
      "midi": 48,
      "hit": false,
      "t": 245181.57300000425,
      "d": 136.36350000000675,
      "v": 127
    },
    {
      "midi": 53,
      "hit": false,
      "t": 245317.93650000426,
      "d": 136.36350000000675,
      "v": 127
    },
    {
      "midi": 46,
      "hit": false,
      "t": 245454.30000000427,
      "d": 136.36350000000675,
      "v": 127
    },
    {
      "midi": 73,
      "hit": false,
      "t": 245454.30000000534,
      "d": 545.4539999999979,
      "v": 127
    },
    {
      "midi": 53,
      "hit": false,
      "t": 245590.66350000427,
      "d": 136.36350000000675,
      "v": 127
    },
    {
      "midi": 49,
      "hit": false,
      "t": 245727.02700000428,
      "d": 136.36350000000675,
      "v": 127
    },
    {
      "midi": 46,
      "hit": false,
      "t": 245863.3905000043,
      "d": 136.36350000000675,
      "v": 127
    },
    {
      "midi": 41,
      "hit": false,
      "t": 245999.7540000043,
      "d": 136.36350000000675,
      "v": 127
    },
    {
      "midi": 77,
      "hit": false,
      "t": 245999.75400000534,
      "d": 272.7270000000135,
      "v": 127
    },
    {
      "midi": 49,
      "hit": false,
      "t": 246136.1175000043,
      "d": 136.36350000000675,
      "v": 127
    },
    {
      "midi": 46,
      "hit": false,
      "t": 246272.4810000043,
      "d": 136.36350000000675,
      "v": 127
    },
    {
      "midi": 77,
      "hit": false,
      "t": 246272.48100000535,
      "d": 272.7270000000135,
      "v": 127
    },
    {
      "midi": 41,
      "hit": false,
      "t": 246408.8445000043,
      "d": 136.36350000000675,
      "v": 127
    },
    {
      "midi": 37,
      "hit": false,
      "t": 246545.20800000432,
      "d": 136.36350000000675,
      "v": 127
    },
    {
      "midi": 82,
      "hit": false,
      "t": 246545.20800000537,
      "d": 272.7270000000135,
      "v": 127
    },
    {
      "midi": 46,
      "hit": false,
      "t": 246681.57150000433,
      "d": 136.36350000000675,
      "v": 127
    },
    {
      "midi": 41,
      "hit": false,
      "t": 246817.93500000433,
      "d": 136.36350000000675,
      "v": 127
    },
    {
      "midi": 82,
      "hit": false,
      "t": 246817.93500000538,
      "d": 272.7270000000135,
      "v": 127
    },
    {
      "midi": 37,
      "hit": false,
      "t": 246954.29850000434,
      "d": 136.36350000000675,
      "v": 127
    },
    {
      "midi": 34,
      "hit": false,
      "t": 247090.66200000435,
      "d": 136.36350000000675,
      "v": 127
    },
    {
      "midi": 85,
      "hit": false,
      "t": 247090.6620000054,
      "d": 545.4539999999979,
      "v": 127
    },
    {
      "midi": 37,
      "hit": false,
      "t": 247227.02550000435,
      "d": 136.36350000000675,
      "v": 127
    },
    {
      "midi": 41,
      "hit": false,
      "t": 247363.38900000436,
      "d": 136.36350000000675,
      "v": 127
    },
    {
      "midi": 46,
      "hit": false,
      "t": 247499.75250000437,
      "d": 136.36350000000675,
      "v": 127
    },
    {
      "midi": 37,
      "hit": false,
      "t": 247636.11600000437,
      "d": 136.36350000000675,
      "v": 127
    },
    {
      "midi": 83,
      "hit": false,
      "t": 247636.1160000054,
      "d": 545.4539999999979,
      "v": 127
    },
    {
      "midi": 41,
      "hit": false,
      "t": 247772.47950000438,
      "d": 136.36350000000675,
      "v": 127
    },
    {
      "midi": 44,
      "hit": false,
      "t": 247908.8430000044,
      "d": 136.36350000000675,
      "v": 127
    },
    {
      "midi": 49,
      "hit": false,
      "t": 248045.2065000044,
      "d": 136.36350000000675,
      "v": 127
    },
    {
      "midi": 41,
      "hit": false,
      "t": 248181.5700000044,
      "d": 136.36350000000675,
      "v": 127
    },
    {
      "midi": 80,
      "hit": false,
      "t": 248181.5700000054,
      "d": 272.7270000000135,
      "v": 127
    },
    {
      "midi": 44,
      "hit": false,
      "t": 248317.9335000044,
      "d": 136.36350000000675,
      "v": 127
    },
    {
      "midi": 49,
      "hit": false,
      "t": 248454.29700000442,
      "d": 136.36350000000675,
      "v": 127
    },
    {
      "midi": 80,
      "hit": false,
      "t": 248454.2970000054,
      "d": 272.7270000000135,
      "v": 127
    },
    {
      "midi": 53,
      "hit": false,
      "t": 248590.66050000442,
      "d": 136.36350000000675,
      "v": 127
    },
    {
      "midi": 44,
      "hit": false,
      "t": 248727.02400000443,
      "d": 136.36350000000675,
      "v": 127
    },
    {
      "midi": 77,
      "hit": false,
      "t": 248727.02400000542,
      "d": 272.7270000000135,
      "v": 127
    },
    {
      "midi": 49,
      "hit": false,
      "t": 248863.38750000444,
      "d": 136.36350000000675,
      "v": 127
    },
    {
      "midi": 53,
      "hit": false,
      "t": 248999.75100000444,
      "d": 136.36350000000675,
      "v": 127
    },
    {
      "midi": 77,
      "hit": false,
      "t": 248999.75100000543,
      "d": 272.7270000000135,
      "v": 127
    },
    {
      "midi": 56,
      "hit": false,
      "t": 249136.11450000445,
      "d": 136.36350000000675,
      "v": 127
    },
    {
      "midi": 49,
      "hit": false,
      "t": 249272.47800000446,
      "d": 136.36350000000675,
      "v": 127
    },
    {
      "midi": 71,
      "hit": false,
      "t": 249272.47800000545,
      "d": 545.4539999999979,
      "v": 127
    },
    {
      "midi": 53,
      "hit": false,
      "t": 249408.84150000446,
      "d": 136.36350000000675,
      "v": 127
    },
    {
      "midi": 56,
      "hit": false,
      "t": 249545.20500000447,
      "d": 136.36350000000675,
      "v": 127
    },
    {
      "midi": 61,
      "hit": false,
      "t": 249681.56850000448,
      "d": 136.36350000000675,
      "v": 127
    },
    {
      "midi": 54,
      "hit": false,
      "t": 249817.93200000448,
      "d": 136.36350000000675,
      "v": 127
    },
    {
      "midi": 70,
      "hit": false,
      "t": 249817.93200000544,
      "d": 545.4539999999979,
      "v": 127
    },
    {
      "midi": 61,
      "hit": false,
      "t": 249954.2955000045,
      "d": 136.36350000000675,
      "v": 127
    },
    {
      "midi": 58,
      "hit": false,
      "t": 250090.6590000045,
      "d": 136.36350000000675,
      "v": 127
    },
    {
      "midi": 54,
      "hit": false,
      "t": 250227.0225000045,
      "d": 136.36350000000675,
      "v": 127
    },
    {
      "midi": 49,
      "hit": false,
      "t": 250363.3860000045,
      "d": 136.36350000000675,
      "v": 127
    },
    {
      "midi": 73,
      "hit": false,
      "t": 250363.38600000544,
      "d": 272.7270000000135,
      "v": 127
    },
    {
      "midi": 58,
      "hit": false,
      "t": 250499.74950000452,
      "d": 136.36350000000675,
      "v": 127
    },
    {
      "midi": 54,
      "hit": false,
      "t": 250636.11300000452,
      "d": 136.36350000000675,
      "v": 127
    },
    {
      "midi": 73,
      "hit": false,
      "t": 250636.11300000545,
      "d": 272.7270000000135,
      "v": 127
    },
    {
      "midi": 49,
      "hit": false,
      "t": 250772.47650000453,
      "d": 136.36350000000675,
      "v": 127
    },
    {
      "midi": 46,
      "hit": false,
      "t": 250908.84000000454,
      "d": 136.36350000000675,
      "v": 127
    },
    {
      "midi": 78,
      "hit": false,
      "t": 250908.84000000547,
      "d": 272.7270000000135,
      "v": 127
    },
    {
      "midi": 54,
      "hit": false,
      "t": 251045.20350000454,
      "d": 136.36350000000675,
      "v": 127
    },
    {
      "midi": 49,
      "hit": false,
      "t": 251181.56700000455,
      "d": 136.36350000000675,
      "v": 127
    },
    {
      "midi": 78,
      "hit": false,
      "t": 251181.56700000548,
      "d": 272.7270000000135,
      "v": 127
    },
    {
      "midi": 46,
      "hit": false,
      "t": 251317.93050000456,
      "d": 136.36350000000675,
      "v": 127
    },
    {
      "midi": 42,
      "hit": false,
      "t": 251454.29400000456,
      "d": 136.36350000000675,
      "v": 127
    },
    {
      "midi": 82,
      "hit": false,
      "t": 251454.2940000055,
      "d": 545.4539999999979,
      "v": 127
    },
    {
      "midi": 46,
      "hit": false,
      "t": 251590.65750000457,
      "d": 136.36350000000675,
      "v": 127
    },
    {
      "midi": 49,
      "hit": false,
      "t": 251727.02100000458,
      "d": 136.36350000000675,
      "v": 127
    },
    {
      "midi": 54,
      "hit": false,
      "t": 251863.38450000458,
      "d": 136.36350000000675,
      "v": 127
    },
    {
      "midi": 40,
      "hit": false,
      "t": 251999.7480000046,
      "d": 136.36350000000675,
      "v": 127
    },
    {
      "midi": 85,
      "hit": false,
      "t": 251999.7480000055,
      "d": 545.4539999999979,
      "v": 127
    },
    {
      "midi": 43,
      "hit": false,
      "t": 252136.1115000046,
      "d": 136.36350000000675,
      "v": 127
    },
    {
      "midi": 46,
      "hit": false,
      "t": 252272.4750000046,
      "d": 136.36350000000675,
      "v": 127
    },
    {
      "midi": 49,
      "hit": false,
      "t": 252408.8385000046,
      "d": 136.36350000000675,
      "v": 127
    },
    {
      "midi": 43,
      "hit": false,
      "t": 252545.20200000462,
      "d": 136.36350000000675,
      "v": 127
    },
    {
      "midi": 82,
      "hit": false,
      "t": 252545.2020000055,
      "d": 272.7270000000135,
      "v": 127
    },
    {
      "midi": 46,
      "hit": false,
      "t": 252681.56550000462,
      "d": 136.36350000000675,
      "v": 127
    },
    {
      "midi": 49,
      "hit": false,
      "t": 252817.92900000463,
      "d": 136.36350000000675,
      "v": 127
    },
    {
      "midi": 82,
      "hit": false,
      "t": 252817.9290000055,
      "d": 272.7270000000135,
      "v": 127
    },
    {
      "midi": 52,
      "hit": false,
      "t": 252954.29250000464,
      "d": 136.36350000000675,
      "v": 127
    },
    {
      "midi": 43,
      "hit": false,
      "t": 253090.65600000464,
      "d": 136.36350000000675,
      "v": 127
    },
    {
      "midi": 79,
      "hit": false,
      "t": 253090.65600000552,
      "d": 272.7270000000135,
      "v": 127
    },
    {
      "midi": 46,
      "hit": false,
      "t": 253227.01950000465,
      "d": 136.36350000000675,
      "v": 127
    },
    {
      "midi": 49,
      "hit": false,
      "t": 253363.38300000466,
      "d": 136.36350000000675,
      "v": 127
    },
    {
      "midi": 79,
      "hit": false,
      "t": 253363.38300000553,
      "d": 272.7270000000135,
      "v": 127
    },
    {
      "midi": 52,
      "hit": false,
      "t": 253499.74650000466,
      "d": 136.36350000000675,
      "v": 127
    },
    {
      "midi": 43,
      "hit": false,
      "t": 253636.11000000467,
      "d": 136.36350000000675,
      "v": 127
    },
    {
      "midi": 76,
      "hit": false,
      "t": 253636.11000000554,
      "d": 545.4539999999979,
      "v": 127
    },
    {
      "midi": 46,
      "hit": false,
      "t": 253772.47350000468,
      "d": 136.36350000000675,
      "v": 127
    },
    {
      "midi": 49,
      "hit": false,
      "t": 253908.83700000469,
      "d": 136.36350000000675,
      "v": 127
    },
    {
      "midi": 52,
      "hit": false,
      "t": 254045.2005000047,
      "d": 136.36350000000675,
      "v": 127
    },
    {
      "midi": 87,
      "hit": false,
      "t": 254181.56400000554,
      "d": 545.4539999999979,
      "v": 127
    },
    {
      "midi": 41,
      "hit": false,
      "t": 254317.9275000047,
      "d": 136.36350000000675,
      "v": 127
    },
    {
      "midi": 45,
      "hit": false,
      "t": 254454.2910000047,
      "d": 136.36350000000675,
      "v": 127
    },
    {
      "midi": 48,
      "hit": false,
      "t": 254590.65450000472,
      "d": 136.36350000000675,
      "v": 127
    },
    {
      "midi": 41,
      "hit": false,
      "t": 254727.01800000473,
      "d": 136.36350000000675,
      "v": 127
    },
    {
      "midi": 84,
      "hit": false,
      "t": 254727.01800000554,
      "d": 272.7270000000135,
      "v": 127
    },
    {
      "midi": 45,
      "hit": false,
      "t": 254863.38150000473,
      "d": 136.36350000000675,
      "v": 127
    },
    {
      "midi": 48,
      "hit": false,
      "t": 254999.74500000474,
      "d": 136.36350000000675,
      "v": 127
    },
    {
      "midi": 84,
      "hit": false,
      "t": 254999.74500000555,
      "d": 272.7270000000135,
      "v": 127
    },
    {
      "midi": 53,
      "hit": false,
      "t": 255136.10850000475,
      "d": 136.36350000000675,
      "v": 127
    },
    {
      "midi": 41,
      "hit": false,
      "t": 255272.47200000475,
      "d": 136.36350000000675,
      "v": 127
    },
    {
      "midi": 81,
      "hit": false,
      "t": 255272.47200000557,
      "d": 272.7270000000135,
      "v": 127
    },
    {
      "midi": 45,
      "hit": false,
      "t": 255408.83550000476,
      "d": 136.36350000000675,
      "v": 127
    },
    {
      "midi": 48,
      "hit": false,
      "t": 255545.19900000477,
      "d": 136.36350000000675,
      "v": 127
    },
    {
      "midi": 81,
      "hit": false,
      "t": 255545.19900000558,
      "d": 272.7270000000135,
      "v": 127
    },
    {
      "midi": 51,
      "hit": false,
      "t": 255681.56250000477,
      "d": 136.36350000000675,
      "v": 127
    },
    {
      "midi": 41,
      "hit": false,
      "t": 255817.92600000478,
      "d": 136.36350000000675,
      "v": 127
    },
    {
      "midi": 77,
      "hit": false,
      "t": 255817.9260000056,
      "d": 272.7270000000135,
      "v": 127
    },
    {
      "midi": 45,
      "hit": false,
      "t": 255954.2895000048,
      "d": 136.36350000000675,
      "v": 127
    },
    {
      "midi": 48,
      "hit": false,
      "t": 256090.6530000048,
      "d": 136.36350000000675,
      "v": 127
    },
    {
      "midi": 77,
      "hit": false,
      "t": 256090.6530000056,
      "d": 272.7270000000135,
      "v": 127
    },
    {
      "midi": 51,
      "hit": false,
      "t": 256227.0165000048,
      "d": 136.36350000000675,
      "v": 127
    },
    {
      "midi": 41,
      "hit": false,
      "t": 256363.3800000048,
      "d": 545.4539999999979,
      "v": 127
    },
    {
      "midi": 75,
      "hit": false,
      "t": 256363.38000000562,
      "d": 136.36350000000675,
      "v": 127
    },
    {
      "midi": 57,
      "hit": false,
      "t": 256499.74350000563,
      "d": 136.36350000000675,
      "v": 127
    },
    {
      "midi": 58,
      "hit": false,
      "t": 256636.10700000564,
      "d": 136.36350000000675,
      "v": 127
    },
    {
      "midi": 60,
      "hit": false,
      "t": 256772.47050000564,
      "d": 136.36350000000675,
      "v": 127
    },
    {
      "midi": 62,
      "hit": false,
      "t": 256908.83400000565,
      "d": 136.36350000000675,
      "v": 127
    },
    {
      "midi": 63,
      "hit": false,
      "t": 257045.19750000566,
      "d": 136.36350000000675,
      "v": 127
    },
    {
      "midi": 65,
      "hit": false,
      "t": 257181.56100000566,
      "d": 136.36350000000675,
      "v": 127
    },
    {
      "midi": 67,
      "hit": false,
      "t": 257317.92450000567,
      "d": 136.36350000000675,
      "v": 127
    },
    {
      "midi": 69,
      "hit": false,
      "t": 257454.28800000568,
      "d": 136.36350000000675,
      "v": 127
    },
    {
      "midi": 70,
      "hit": false,
      "t": 257590.65150000568,
      "d": 136.36350000000675,
      "v": 127
    },
    {
      "midi": 72,
      "hit": false,
      "t": 257727.0150000057,
      "d": 136.36350000000675,
      "v": 127
    },
    {
      "midi": 74,
      "hit": false,
      "t": 257863.3785000057,
      "d": 136.36350000000675,
      "v": 127
    },
    {
      "midi": 75,
      "hit": false,
      "t": 257999.7420000057,
      "d": 136.36350000000675,
      "v": 127
    },
    {
      "midi": 77,
      "hit": false,
      "t": 258136.1055000057,
      "d": 136.36350000000675,
      "v": 127
    },
    {
      "midi": 79,
      "hit": false,
      "t": 258272.46900000572,
      "d": 136.36350000000675,
      "v": 127
    },
    {
      "midi": 81,
      "hit": false,
      "t": 258408.83250000572,
      "d": 136.36350000000675,
      "v": 127
    },
    {
      "midi": 82,
      "hit": false,
      "t": 258545.19600000573,
      "d": 136.36350000000675,
      "v": 127
    },
    {
      "midi": 84,
      "hit": false,
      "t": 258681.55950000574,
      "d": 136.36350000000675,
      "v": 127
    },
    {
      "midi": 86,
      "hit": false,
      "t": 258817.92300000574,
      "d": 136.36350000000675,
      "v": 127
    },
    {
      "midi": 87,
      "hit": false,
      "t": 258954.28650000575,
      "d": 136.36350000000675,
      "v": 127
    },
    {
      "midi": 89,
      "hit": false,
      "t": 259090.65000000576,
      "d": 136.36350000000675,
      "v": 127
    },
    {
      "midi": 87,
      "hit": false,
      "t": 259227.01350000576,
      "d": 136.36350000000675,
      "v": 127
    },
    {
      "midi": 86,
      "hit": false,
      "t": 259363.37700000577,
      "d": 136.36350000000675,
      "v": 127
    },
    {
      "midi": 84,
      "hit": false,
      "t": 259499.74050000578,
      "d": 136.36350000000675,
      "v": 127
    },
    {
      "midi": 82,
      "hit": false,
      "t": 259636.10400000578,
      "d": 136.36350000000675,
      "v": 127
    },
    {
      "midi": 81,
      "hit": false,
      "t": 259772.4675000058,
      "d": 136.36350000000675,
      "v": 127
    },
    {
      "midi": 79,
      "hit": false,
      "t": 259908.8310000058,
      "d": 136.36350000000675,
      "v": 127
    },
    {
      "midi": 77,
      "hit": false,
      "t": 260045.1945000058,
      "d": 136.36350000000675,
      "v": 127
    },
    {
      "midi": 75,
      "hit": false,
      "t": 260181.5580000058,
      "d": 136.36350000000675,
      "v": 127
    },
    {
      "midi": 74,
      "hit": false,
      "t": 260317.92150000582,
      "d": 136.36350000000675,
      "v": 127
    },
    {
      "midi": 72,
      "hit": false,
      "t": 260454.28500000582,
      "d": 136.36350000000675,
      "v": 127
    },
    {
      "midi": 70,
      "hit": false,
      "t": 260590.64850000583,
      "d": 136.36350000000675,
      "v": 127
    },
    {
      "midi": 69,
      "hit": false,
      "t": 260727.01200000584,
      "d": 136.36350000000675,
      "v": 127
    },
    {
      "midi": 67,
      "hit": false,
      "t": 260863.37550000584,
      "d": 136.36350000000675,
      "v": 127
    },
    {
      "midi": 65,
      "hit": false,
      "t": 260999.73900000585,
      "d": 136.36350000000675,
      "v": 127
    },
    {
      "midi": 63,
      "hit": false,
      "t": 261136.10250000586,
      "d": 136.36350000000675,
      "v": 127
    },
    {
      "midi": 62,
      "hit": false,
      "t": 261272.46600000586,
      "d": 136.36350000000675,
      "v": 127
    },
    {
      "midi": 60,
      "hit": false,
      "t": 261408.82950000587,
      "d": 136.36350000000675,
      "v": 127
    },
    {
      "midi": 58,
      "hit": false,
      "t": 261545.1930000048,
      "d": 136.36350000000675,
      "v": 127
    },
    {
      "midi": 57,
      "hit": false,
      "t": 261681.5565000048,
      "d": 136.36350000000675,
      "v": 127
    },
    {
      "midi": 55,
      "hit": false,
      "t": 261817.92000000481,
      "d": 136.36350000000675,
      "v": 127
    },
    {
      "midi": 53,
      "hit": false,
      "t": 261954.28350000482,
      "d": 136.36350000000675,
      "v": 127
    },
    {
      "midi": 51,
      "hit": false,
      "t": 262090.64700000483,
      "d": 136.36349999997765,
      "v": 127
    },
    {
      "midi": 50,
      "hit": false,
      "t": 262227.0105000048,
      "d": 136.36349999997765,
      "v": 127
    },
    {
      "midi": 48,
      "hit": false,
      "t": 262363.3740000048,
      "d": 136.36349999997765,
      "v": 127
    },
    {
      "midi": 46,
      "hit": false,
      "t": 262499.73750000476,
      "d": 136.36349999997765,
      "v": 127
    },
    {
      "midi": 45,
      "hit": false,
      "t": 262636.10100000474,
      "d": 136.36349999997765,
      "v": 127
    },
    {
      "midi": 43,
      "hit": false,
      "t": 262772.4645000047,
      "d": 136.36349999997765,
      "v": 127
    },
    {
      "midi": 41,
      "hit": false,
      "t": 262908.8280000047,
      "d": 136.36349999997765,
      "v": 127
    },
    {
      "midi": 43,
      "hit": false,
      "t": 263045.1915000047,
      "d": 136.36349999997765,
      "v": 127
    },
    {
      "midi": 45,
      "hit": false,
      "t": 263181.55500000465,
      "d": 136.36349999997765,
      "v": 127
    },
    {
      "midi": 46,
      "hit": false,
      "t": 263317.9185000046,
      "d": 136.36349999997765,
      "v": 127
    },
    {
      "midi": 48,
      "hit": false,
      "t": 263454.2820000046,
      "d": 136.36349999997765,
      "v": 127
    },
    {
      "midi": 50,
      "hit": false,
      "t": 263590.6455000046,
      "d": 136.36349999997765,
      "v": 127
    },
    {
      "midi": 51,
      "hit": false,
      "t": 263727.00900000456,
      "d": 136.36349999997765,
      "v": 127
    },
    {
      "midi": 53,
      "hit": false,
      "t": 263863.37250000454,
      "d": 136.36349999997765,
      "v": 127
    },
    {
      "midi": 55,
      "hit": false,
      "t": 263999.7360000045,
      "d": 136.36349999997765,
      "v": 127
    },
    {
      "midi": 57,
      "hit": false,
      "t": 264136.0995000045,
      "d": 136.36349999997765,
      "v": 127
    },
    {
      "midi": 58,
      "hit": false,
      "t": 264272.46300000447,
      "d": 136.36349999997765,
      "v": 127
    },
    {
      "midi": 60,
      "hit": false,
      "t": 264408.82650000445,
      "d": 136.36349999997765,
      "v": 127
    },
    {
      "midi": 62,
      "hit": false,
      "t": 264545.1900000059,
      "d": 136.36349999997765,
      "v": 127
    },
    {
      "midi": 63,
      "hit": false,
      "t": 264681.55350000586,
      "d": 136.36349999997765,
      "v": 127
    },
    {
      "midi": 65,
      "hit": false,
      "t": 264817.91700000584,
      "d": 136.36349999997765,
      "v": 127
    },
    {
      "midi": 67,
      "hit": false,
      "t": 264954.2805000058,
      "d": 136.36349999997765,
      "v": 127
    },
    {
      "midi": 69,
      "hit": false,
      "t": 265090.6440000058,
      "d": 136.36349999997765,
      "v": 127
    },
    {
      "midi": 70,
      "hit": false,
      "t": 265227.00750000577,
      "d": 136.36349999997765,
      "v": 127
    },
    {
      "midi": 72,
      "hit": false,
      "t": 265363.37100000575,
      "d": 136.36349999997765,
      "v": 127
    },
    {
      "midi": 74,
      "hit": false,
      "t": 265499.7345000057,
      "d": 136.36349999997765,
      "v": 127
    },
    {
      "midi": 75,
      "hit": false,
      "t": 265636.0980000057,
      "d": 136.36349999997765,
      "v": 127
    },
    {
      "midi": 77,
      "hit": false,
      "t": 265772.4615000057,
      "d": 136.36349999997765,
      "v": 127
    },
    {
      "midi": 79,
      "hit": false,
      "t": 265908.82500000566,
      "d": 136.36349999997765,
      "v": 127
    },
    {
      "midi": 77,
      "hit": false,
      "t": 266045.18850000564,
      "d": 136.36349999997765,
      "v": 127
    },
    {
      "midi": 75,
      "hit": false,
      "t": 266181.5520000056,
      "d": 136.36349999997765,
      "v": 127
    },
    {
      "midi": 74,
      "hit": false,
      "t": 266317.9155000056,
      "d": 136.36349999997765,
      "v": 127
    },
    {
      "midi": 72,
      "hit": false,
      "t": 266454.27900000557,
      "d": 136.36349999997765,
      "v": 127
    },
    {
      "midi": 70,
      "hit": false,
      "t": 266590.64250000555,
      "d": 136.36349999997765,
      "v": 127
    },
    {
      "midi": 69,
      "hit": false,
      "t": 266727.0060000055,
      "d": 136.36349999997765,
      "v": 127
    },
    {
      "midi": 68,
      "hit": false,
      "t": 266863.3695000055,
      "d": 136.36349999997765,
      "v": 127
    },
    {
      "midi": 67,
      "hit": false,
      "t": 266999.7330000055,
      "d": 136.36349999997765,
      "v": 127
    },
    {
      "midi": 66,
      "hit": false,
      "t": 267136.09650000546,
      "d": 136.36349999997765,
      "v": 127
    },
    {
      "midi": 46,
      "hit": false,
      "t": 267272.46000000444,
      "d": 545.454000000027,
      "v": 127
    },
    {
      "midi": 64,
      "hit": false,
      "t": 267272.46000000543,
      "d": 272.7270000000135,
      "v": 127
    },
    {
      "midi": 65,
      "hit": false,
      "t": 267545.18700000545,
      "d": 272.7270000000135,
      "v": 127
    },
    {
      "midi": 52,
      "hit": false,
      "t": 267817.9140000045,
      "d": 272.7270000000135,
      "v": 127
    },
    {
      "midi": 70,
      "hit": false,
      "t": 267817.91400000546,
      "d": 545.454000000027,
      "v": 127
    },
    {
      "midi": 53,
      "hit": false,
      "t": 268090.6410000045,
      "d": 272.7270000000135,
      "v": 127
    },
    {
      "midi": 58,
      "hit": false,
      "t": 268363.3680000045,
      "d": 545.454000000027,
      "v": 127
    },
    {
      "midi": 73,
      "hit": false,
      "t": 268363.3680000055,
      "d": 272.7270000000135,
      "v": 127
    },
    {
      "midi": 74,
      "hit": false,
      "t": 268636.0950000055,
      "d": 272.7270000000135,
      "v": 127
    },
    {
      "midi": 52,
      "hit": false,
      "t": 268908.8220000045,
      "d": 272.7270000000135,
      "v": 127
    },
    {
      "midi": 77,
      "hit": false,
      "t": 268908.8220000055,
      "d": 545.454000000027,
      "v": 127
    },
    {
      "midi": 53,
      "hit": false,
      "t": 269181.54900000454,
      "d": 272.7270000000135,
      "v": 127
    },
    {
      "midi": 57,
      "hit": false,
      "t": 269454.27600000455,
      "d": 545.454000000027,
      "v": 127
    },
    {
      "midi": 77,
      "hit": false,
      "t": 269454.27600000554,
      "d": 272.7270000000135,
      "v": 127
    },
    {
      "midi": 75,
      "hit": false,
      "t": 269727.00300000556,
      "d": 272.7270000000135,
      "v": 127
    },
    {
      "midi": 52,
      "hit": false,
      "t": 269999.7300000046,
      "d": 272.7270000000135,
      "v": 127
    },
    {
      "midi": 72,
      "hit": false,
      "t": 269999.73000000557,
      "d": 545.454000000027,
      "v": 127
    },
    {
      "midi": 53,
      "hit": false,
      "t": 270272.4570000046,
      "d": 272.7270000000135,
      "v": 127
    },
    {
      "midi": 57,
      "hit": false,
      "t": 270545.1840000046,
      "d": 545.454000000027,
      "v": 127
    },
    {
      "midi": 77,
      "hit": false,
      "t": 270545.1840000056,
      "d": 272.7270000000135,
      "v": 127
    },
    {
      "midi": 75,
      "hit": false,
      "t": 270817.9110000056,
      "d": 272.7270000000135,
      "v": 127
    },
    {
      "midi": 52,
      "hit": false,
      "t": 271090.63800000463,
      "d": 272.7270000000135,
      "v": 127
    },
    {
      "midi": 72,
      "hit": false,
      "t": 271090.6380000056,
      "d": 545.454000000027,
      "v": 127
    },
    {
      "midi": 53,
      "hit": false,
      "t": 271363.36500000465,
      "d": 272.7270000000135,
      "v": 127
    },
    {
      "midi": 46,
      "hit": false,
      "t": 271636.09200000466,
      "d": 545.454000000027,
      "v": 127
    },
    {
      "midi": 61,
      "hit": false,
      "t": 271636.09200000565,
      "d": 272.7270000000135,
      "v": 127
    },
    {
      "midi": 62,
      "hit": false,
      "t": 271908.81900000566,
      "d": 272.7270000000135,
      "v": 127
    },
    {
      "midi": 49,
      "hit": false,
      "t": 272181.5460000047,
      "d": 272.7270000000135,
      "v": 127
    },
    {
      "midi": 65,
      "hit": false,
      "t": 272181.5460000057,
      "d": 545.454000000027,
      "v": 127
    },
    {
      "midi": 50,
      "hit": false,
      "t": 272454.2730000047,
      "d": 272.7270000000135,
      "v": 127
    },
    {
      "midi": 53,
      "hit": false,
      "t": 272727.0000000047,
      "d": 545.454000000027,
      "v": 127
    },
    {
      "midi": 69,
      "hit": false,
      "t": 272727.0000000057,
      "d": 272.7270000000135,
      "v": 127
    },
    {
      "midi": 70,
      "hit": false,
      "t": 272999.7270000057,
      "d": 272.7270000000135,
      "v": 127
    },
    {
      "midi": 52,
      "hit": false,
      "t": 273272.45400000474,
      "d": 272.7270000000135,
      "v": 127
    },
    {
      "midi": 74,
      "hit": false,
      "t": 273272.45400000573,
      "d": 545.454000000027,
      "v": 127
    },
    {
      "midi": 53,
      "hit": false,
      "t": 273545.18100000476,
      "d": 272.7270000000135,
      "v": 127
    },
    {
      "midi": 46,
      "hit": false,
      "t": 273817.90800000477,
      "d": 545.454000000027,
      "v": 127
    },
    {
      "midi": 77,
      "hit": false,
      "t": 273817.90800000576,
      "d": 272.7270000000135,
      "v": 127
    },
    {
      "midi": 75,
      "hit": false,
      "t": 274090.6350000058,
      "d": 272.7270000000135,
      "v": 127
    },
    {
      "midi": 56,
      "hit": false,
      "t": 274363.3620000048,
      "d": 272.7270000000135,
      "v": 127
    },
    {
      "midi": 63,
      "hit": false,
      "t": 274363.3620000058,
      "d": 545.454000000027,
      "v": 127
    },
    {
      "midi": 72,
      "hit": false,
      "t": 274363.3620000058,
      "d": 545.454000000027,
      "v": 127
    },
    {
      "midi": 57,
      "hit": false,
      "t": 274636.0890000048,
      "d": 272.7270000000135,
      "v": 127
    },
    {
      "midi": 46,
      "hit": false,
      "t": 274908.8160000048,
      "d": 545.454000000027,
      "v": 127
    },
    {
      "midi": 62,
      "hit": false,
      "t": 274908.8160000058,
      "d": 545.454000000027,
      "v": 127
    },
    {
      "midi": 70,
      "hit": false,
      "t": 274908.8160000058,
      "d": 545.454000000027,
      "v": 127
    },
    {
      "midi": 57,
      "hit": false,
      "t": 275454.27000000485,
      "d": 272.7270000000135,
      "v": 127
    },
    {
      "midi": 58,
      "hit": false,
      "t": 275726.99700000486,
      "d": 272.7270000000135,
      "v": 127
    },
    {
      "midi": 61,
      "hit": false,
      "t": 275999.72400000587,
      "d": 272.7270000000135,
      "v": 127
    },
    {
      "midi": 73,
      "hit": false,
      "t": 275999.72400000587,
      "d": 272.7270000000135,
      "v": 127
    },
    {
      "midi": 62,
      "hit": false,
      "t": 276272.4510000059,
      "d": 272.7270000000135,
      "v": 127
    },
    {
      "midi": 74,
      "hit": false,
      "t": 276272.4510000059,
      "d": 272.7270000000135,
      "v": 127
    },
    {
      "midi": 54,
      "hit": false,
      "t": 276545.1780000049,
      "d": 272.7270000000135,
      "v": 127
    },
    {
      "midi": 57,
      "hit": false,
      "t": 276545.1780000049,
      "d": 272.7270000000135,
      "v": 127
    },
    {
      "midi": 67,
      "hit": false,
      "t": 276545.1780000059,
      "d": 545.454000000027,
      "v": 127
    },
    {
      "midi": 79,
      "hit": false,
      "t": 276545.1780000059,
      "d": 545.454000000027,
      "v": 127
    },
    {
      "midi": 55,
      "hit": false,
      "t": 276817.9050000049,
      "d": 272.7270000000135,
      "v": 127
    },
    {
      "midi": 58,
      "hit": false,
      "t": 276817.9050000049,
      "d": 272.7270000000135,
      "v": 127
    },
    {
      "midi": 61,
      "hit": false,
      "t": 277090.6320000059,
      "d": 272.7270000000135,
      "v": 127
    },
    {
      "midi": 73,
      "hit": false,
      "t": 277090.6320000059,
      "d": 272.7270000000135,
      "v": 127
    },
    {
      "midi": 62,
      "hit": false,
      "t": 277363.35900000593,
      "d": 272.7270000000135,
      "v": 127
    },
    {
      "midi": 74,
      "hit": false,
      "t": 277363.35900000593,
      "d": 272.7270000000135,
      "v": 127
    },
    {
      "midi": 54,
      "hit": false,
      "t": 277636.08600000496,
      "d": 272.7270000000135,
      "v": 127
    },
    {
      "midi": 57,
      "hit": false,
      "t": 277636.08600000496,
      "d": 272.7270000000135,
      "v": 127
    },
    {
      "midi": 67,
      "hit": false,
      "t": 277636.08600000595,
      "d": 545.454000000027,
      "v": 127
    },
    {
      "midi": 79,
      "hit": false,
      "t": 277636.08600000595,
      "d": 545.454000000027,
      "v": 127
    },
    {
      "midi": 55,
      "hit": false,
      "t": 277908.813000005,
      "d": 272.7270000000135,
      "v": 127
    },
    {
      "midi": 58,
      "hit": false,
      "t": 277908.813000005,
      "d": 272.7270000000135,
      "v": 127
    },
    {
      "midi": 67,
      "hit": false,
      "t": 278181.540000006,
      "d": 272.7270000000135,
      "v": 127
    },
    {
      "midi": 79,
      "hit": false,
      "t": 278181.540000006,
      "d": 272.7270000000135,
      "v": 127
    },
    {
      "midi": 66,
      "hit": false,
      "t": 278454.267000006,
      "d": 272.7270000000135,
      "v": 127
    },
    {
      "midi": 78,
      "hit": false,
      "t": 278454.267000006,
      "d": 272.7270000000135,
      "v": 127
    },
    {
      "midi": 56,
      "hit": false,
      "t": 278726.994000005,
      "d": 272.7270000000135,
      "v": 127
    },
    {
      "midi": 59,
      "hit": false,
      "t": 278726.994000005,
      "d": 272.7270000000135,
      "v": 127
    },
    {
      "midi": 62,
      "hit": false,
      "t": 278726.994000006,
      "d": 545.454000000027,
      "v": 127
    },
    {
      "midi": 74,
      "hit": false,
      "t": 278726.994000006,
      "d": 545.454000000027,
      "v": 127
    },
    {
      "midi": 57,
      "hit": false,
      "t": 278999.721000005,
      "d": 272.7270000000135,
      "v": 127
    },
    {
      "midi": 60,
      "hit": false,
      "t": 278999.721000005,
      "d": 272.7270000000135,
      "v": 127
    },
    {
      "midi": 67,
      "hit": false,
      "t": 279272.448000006,
      "d": 272.7270000000135,
      "v": 127
    },
    {
      "midi": 79,
      "hit": false,
      "t": 279272.448000006,
      "d": 272.7270000000135,
      "v": 127
    },
    {
      "midi": 66,
      "hit": false,
      "t": 279545.17500000604,
      "d": 272.7270000000135,
      "v": 127
    },
    {
      "midi": 78,
      "hit": false,
      "t": 279545.17500000604,
      "d": 272.7270000000135,
      "v": 127
    },
    {
      "midi": 56,
      "hit": false,
      "t": 279817.90200000507,
      "d": 272.7270000000135,
      "v": 127
    },
    {
      "midi": 59,
      "hit": false,
      "t": 279817.90200000507,
      "d": 272.7270000000135,
      "v": 127
    },
    {
      "midi": 62,
      "hit": false,
      "t": 279817.90200000606,
      "d": 545.454000000027,
      "v": 127
    },
    {
      "midi": 74,
      "hit": false,
      "t": 279817.90200000606,
      "d": 545.454000000027,
      "v": 127
    },
    {
      "midi": 57,
      "hit": false,
      "t": 280090.6290000051,
      "d": 272.7270000000135,
      "v": 127
    },
    {
      "midi": 60,
      "hit": false,
      "t": 280090.6290000051,
      "d": 272.7270000000135,
      "v": 127
    },
    {
      "midi": 61,
      "hit": false,
      "t": 280363.3560000061,
      "d": 272.7270000000135,
      "v": 127
    },
    {
      "midi": 73,
      "hit": false,
      "t": 280363.3560000061,
      "d": 272.7270000000135,
      "v": 127
    },
    {
      "midi": 62,
      "hit": false,
      "t": 280636.0830000061,
      "d": 272.7270000000135,
      "v": 127
    },
    {
      "midi": 74,
      "hit": false,
      "t": 280636.0830000061,
      "d": 272.7270000000135,
      "v": 127
    },
    {
      "midi": 54,
      "hit": false,
      "t": 280908.8100000051,
      "d": 272.7270000000135,
      "v": 127
    },
    {
      "midi": 57,
      "hit": false,
      "t": 280908.8100000051,
      "d": 272.7270000000135,
      "v": 127
    },
    {
      "midi": 67,
      "hit": false,
      "t": 280908.8100000061,
      "d": 545.454000000027,
      "v": 127
    },
    {
      "midi": 79,
      "hit": false,
      "t": 280908.8100000061,
      "d": 545.454000000027,
      "v": 127
    },
    {
      "midi": 55,
      "hit": false,
      "t": 281181.53700000513,
      "d": 272.7270000000135,
      "v": 127
    },
    {
      "midi": 58,
      "hit": false,
      "t": 281181.53700000513,
      "d": 272.7270000000135,
      "v": 127
    },
    {
      "midi": 61,
      "hit": false,
      "t": 281454.26400000614,
      "d": 272.7270000000135,
      "v": 127
    },
    {
      "midi": 73,
      "hit": false,
      "t": 281454.26400000614,
      "d": 272.7270000000135,
      "v": 127
    },
    {
      "midi": 62,
      "hit": false,
      "t": 281726.99100000615,
      "d": 272.7270000000135,
      "v": 127
    },
    {
      "midi": 74,
      "hit": false,
      "t": 281726.99100000615,
      "d": 272.7270000000135,
      "v": 127
    },
    {
      "midi": 54,
      "hit": false,
      "t": 281999.7180000052,
      "d": 272.7270000000135,
      "v": 127
    },
    {
      "midi": 57,
      "hit": false,
      "t": 281999.7180000052,
      "d": 272.7270000000135,
      "v": 127
    },
    {
      "midi": 67,
      "hit": false,
      "t": 281999.71800000616,
      "d": 545.454000000027,
      "v": 127
    },
    {
      "midi": 79,
      "hit": false,
      "t": 281999.71800000616,
      "d": 545.454000000027,
      "v": 127
    },
    {
      "midi": 55,
      "hit": false,
      "t": 282272.4450000052,
      "d": 272.7270000000135,
      "v": 127
    },
    {
      "midi": 58,
      "hit": false,
      "t": 282272.4450000052,
      "d": 272.7270000000135,
      "v": 127
    },
    {
      "midi": 65,
      "hit": false,
      "t": 282545.1720000062,
      "d": 272.7270000000135,
      "v": 127
    },
    {
      "midi": 77,
      "hit": false,
      "t": 282545.1720000062,
      "d": 272.7270000000135,
      "v": 127
    },
    {
      "midi": 63,
      "hit": false,
      "t": 282817.8990000062,
      "d": 272.7270000000135,
      "v": 127
    },
    {
      "midi": 75,
      "hit": false,
      "t": 282817.8990000062,
      "d": 272.7270000000135,
      "v": 127
    },
    {
      "midi": 54,
      "hit": false,
      "t": 283090.6260000052,
      "d": 272.7270000000135,
      "v": 127
    },
    {
      "midi": 57,
      "hit": false,
      "t": 283090.6260000052,
      "d": 272.7270000000135,
      "v": 127
    },
    {
      "midi": 55,
      "hit": false,
      "t": 283363.35300000524,
      "d": 272.7270000000135,
      "v": 127
    },
    {
      "midi": 58,
      "hit": false,
      "t": 283363.35300000524,
      "d": 272.7270000000135,
      "v": 127
    },
    {
      "midi": 67,
      "hit": false,
      "t": 283636.08000000624,
      "d": 272.7270000000135,
      "v": 127
    },
    {
      "midi": 79,
      "hit": false,
      "t": 283636.08000000624,
      "d": 272.7270000000135,
      "v": 127
    },
    {
      "midi": 65,
      "hit": false,
      "t": 283908.80700000626,
      "d": 272.7270000000135,
      "v": 127
    },
    {
      "midi": 77,
      "hit": false,
      "t": 283908.80700000626,
      "d": 272.7270000000135,
      "v": 127
    },
    {
      "midi": 56,
      "hit": false,
      "t": 284181.5340000053,
      "d": 272.7270000000135,
      "v": 127
    },
    {
      "midi": 59,
      "hit": false,
      "t": 284181.5340000053,
      "d": 272.7270000000135,
      "v": 127
    },
    {
      "midi": 57,
      "hit": false,
      "t": 284454.2610000053,
      "d": 272.7270000000135,
      "v": 127
    },
    {
      "midi": 60,
      "hit": false,
      "t": 284454.2610000053,
      "d": 272.7270000000135,
      "v": 127
    },
    {
      "midi": 46,
      "hit": false,
      "t": 284726.9880000053,
      "d": 545.454000000027,
      "v": 127
    },
    {
      "midi": 61,
      "hit": false,
      "t": 284726.9880000063,
      "d": 272.7270000000135,
      "v": 127
    },
    {
      "midi": 73,
      "hit": false,
      "t": 284726.9880000063,
      "d": 272.7270000000135,
      "v": 127
    },
    {
      "midi": 62,
      "hit": false,
      "t": 284999.7150000063,
      "d": 272.7270000000135,
      "v": 127
    },
    {
      "midi": 74,
      "hit": false,
      "t": 284999.7150000063,
      "d": 272.7270000000135,
      "v": 127
    },
    {
      "midi": 49,
      "hit": false,
      "t": 285272.44200000534,
      "d": 272.7270000000135,
      "v": 127
    },
    {
      "midi": 65,
      "hit": false,
      "t": 285272.4420000063,
      "d": 545.454000000027,
      "v": 127
    },
    {
      "midi": 77,
      "hit": false,
      "t": 285272.4420000063,
      "d": 545.454000000027,
      "v": 127
    },
    {
      "midi": 50,
      "hit": false,
      "t": 285545.16900000535,
      "d": 272.7270000000135,
      "v": 127
    },
    {
      "midi": 53,
      "hit": false,
      "t": 285817.89600000536,
      "d": 545.454000000027,
      "v": 127
    },
    {
      "midi": 69,
      "hit": false,
      "t": 285817.89600000635,
      "d": 272.7270000000135,
      "v": 127
    },
    {
      "midi": 81,
      "hit": false,
      "t": 285817.89600000635,
      "d": 272.7270000000135,
      "v": 127
    },
    {
      "midi": 70,
      "hit": false,
      "t": 286090.62300000637,
      "d": 272.7270000000135,
      "v": 127
    },
    {
      "midi": 82,
      "hit": false,
      "t": 286090.62300000637,
      "d": 272.7270000000135,
      "v": 127
    },
    {
      "midi": 57,
      "hit": false,
      "t": 286363.3500000054,
      "d": 272.7270000000135,
      "v": 127
    },
    {
      "midi": 74,
      "hit": false,
      "t": 286363.3500000064,
      "d": 545.454000000027,
      "v": 127
    },
    {
      "midi": 86,
      "hit": false,
      "t": 286363.3500000064,
      "d": 545.454000000027,
      "v": 127
    },
    {
      "midi": 58,
      "hit": false,
      "t": 286636.0770000054,
      "d": 272.7270000000135,
      "v": 127
    },
    {
      "midi": 46,
      "hit": false,
      "t": 286908.8040000054,
      "d": 545.454000000027,
      "v": 127
    },
    {
      "midi": 77,
      "hit": false,
      "t": 286908.8040000064,
      "d": 272.7270000000135,
      "v": 127
    },
    {
      "midi": 89,
      "hit": false,
      "t": 286908.8040000064,
      "d": 272.7270000000135,
      "v": 127
    },
    {
      "midi": 75,
      "hit": false,
      "t": 287181.5310000064,
      "d": 272.7270000000135,
      "v": 127
    },
    {
      "midi": 87,
      "hit": false,
      "t": 287181.5310000064,
      "d": 272.7270000000135,
      "v": 127
    },
    {
      "midi": 56,
      "hit": false,
      "t": 287454.25800000544,
      "d": 272.7270000000135,
      "v": 127
    },
    {
      "midi": 72,
      "hit": false,
      "t": 287454.25800000643,
      "d": 545.454000000027,
      "v": 127
    },
    {
      "midi": 84,
      "hit": false,
      "t": 287454.25800000643,
      "d": 545.454000000027,
      "v": 127
    },
    {
      "midi": 57,
      "hit": false,
      "t": 287726.98500000546,
      "d": 272.7270000000135,
      "v": 127
    },
    {
      "midi": 46,
      "hit": false,
      "t": 287999.7120000055,
      "d": 545.454000000027,
      "v": 127
    },
    {
      "midi": 77,
      "hit": false,
      "t": 287999.71200000646,
      "d": 272.7270000000135,
      "v": 127
    },
    {
      "midi": 89,
      "hit": false,
      "t": 287999.71200000646,
      "d": 272.7270000000135,
      "v": 127
    },
    {
      "midi": 75,
      "hit": false,
      "t": 288272.4390000065,
      "d": 272.7270000000135,
      "v": 127
    },
    {
      "midi": 87,
      "hit": false,
      "t": 288272.4390000065,
      "d": 272.7270000000135,
      "v": 127
    },
    {
      "midi": 56,
      "hit": false,
      "t": 288545.1660000055,
      "d": 272.7270000000135,
      "v": 127
    },
    {
      "midi": 72,
      "hit": false,
      "t": 288545.1660000065,
      "d": 545.454000000027,
      "v": 127
    },
    {
      "midi": 84,
      "hit": false,
      "t": 288545.1660000065,
      "d": 545.454000000027,
      "v": 127
    },
    {
      "midi": 57,
      "hit": false,
      "t": 288817.8930000055,
      "d": 272.7270000000135,
      "v": 127
    },
    {
      "midi": 46,
      "hit": false,
      "t": 289090.6200000055,
      "d": 545.454000000027,
      "v": 127
    },
    {
      "midi": 61,
      "hit": false,
      "t": 289090.6200000065,
      "d": 272.7270000000135,
      "v": 127
    },
    {
      "midi": 73,
      "hit": false,
      "t": 289090.6200000065,
      "d": 272.7270000000135,
      "v": 127
    },
    {
      "midi": 62,
      "hit": false,
      "t": 289363.3470000065,
      "d": 272.7270000000135,
      "v": 127
    },
    {
      "midi": 74,
      "hit": false,
      "t": 289363.3470000065,
      "d": 272.7270000000135,
      "v": 127
    },
    {
      "midi": 49,
      "hit": false,
      "t": 289636.07400000555,
      "d": 272.7270000000135,
      "v": 127
    },
    {
      "midi": 65,
      "hit": false,
      "t": 289636.07400000654,
      "d": 545.454000000027,
      "v": 127
    },
    {
      "midi": 77,
      "hit": false,
      "t": 289636.07400000654,
      "d": 545.454000000027,
      "v": 127
    },
    {
      "midi": 50,
      "hit": false,
      "t": 289908.80100000557,
      "d": 272.7270000000135,
      "v": 127
    },
    {
      "midi": 53,
      "hit": false,
      "t": 290181.5280000056,
      "d": 545.454000000027,
      "v": 127
    },
    {
      "midi": 69,
      "hit": false,
      "t": 290181.52800000657,
      "d": 272.7270000000135,
      "v": 127
    },
    {
      "midi": 81,
      "hit": false,
      "t": 290181.52800000657,
      "d": 272.7270000000135,
      "v": 127
    },
    {
      "midi": 70,
      "hit": false,
      "t": 290454.2550000066,
      "d": 272.7270000000135,
      "v": 127
    },
    {
      "midi": 82,
      "hit": false,
      "t": 290454.2550000066,
      "d": 272.7270000000135,
      "v": 127
    },
    {
      "midi": 57,
      "hit": false,
      "t": 290726.9820000056,
      "d": 272.7270000000135,
      "v": 127
    },
    {
      "midi": 74,
      "hit": false,
      "t": 290726.9820000066,
      "d": 545.454000000027,
      "v": 127
    },
    {
      "midi": 86,
      "hit": false,
      "t": 290726.9820000066,
      "d": 545.454000000027,
      "v": 127
    },
    {
      "midi": 58,
      "hit": false,
      "t": 290999.7090000056,
      "d": 272.7270000000135,
      "v": 127
    },
    {
      "midi": 57,
      "hit": false,
      "t": 291272.43600000563,
      "d": 545.454000000027,
      "v": 127
    },
    {
      "midi": 77,
      "hit": false,
      "t": 291272.4360000066,
      "d": 272.7270000000135,
      "v": 127
    },
    {
      "midi": 75,
      "hit": false,
      "t": 291545.16300000664,
      "d": 272.7270000000135,
      "v": 127
    },
    {
      "midi": 62,
      "hit": false,
      "t": 291817.89000000566,
      "d": 272.7270000000135,
      "v": 127
    },
    {
      "midi": 72,
      "hit": false,
      "t": 291817.89000000665,
      "d": 545.454000000027,
      "v": 127
    },
    {
      "midi": 63,
      "hit": false,
      "t": 292090.6170000057,
      "d": 272.7270000000135,
      "v": 127
    },
    {
      "midi": 58,
      "hit": false,
      "t": 292363.3440000057,
      "d": 545.454000000027,
      "v": 127
    },
    {
      "midi": 77,
      "hit": false,
      "t": 292363.3440000067,
      "d": 272.7270000000135,
      "v": 127
    },
    {
      "midi": 74,
      "hit": false,
      "t": 292636.0710000067,
      "d": 272.7270000000135,
      "v": 127
    },
    {
      "midi": 61,
      "hit": false,
      "t": 292908.7980000057,
      "d": 272.7270000000135,
      "v": 127
    },
    {
      "midi": 70,
      "hit": false,
      "t": 292908.7980000067,
      "d": 545.454000000027,
      "v": 127
    },
    {
      "midi": 62,
      "hit": false,
      "t": 293181.5250000057,
      "d": 272.7270000000135,
      "v": 127
    },
    {
      "midi": 59,
      "hit": false,
      "t": 293454.25200000574,
      "d": 545.454000000027,
      "v": 127
    },
    {
      "midi": 79,
      "hit": false,
      "t": 293454.25200000673,
      "d": 272.7270000000135,
      "v": 127
    },
    {
      "midi": 77,
      "hit": false,
      "t": 293726.97900000674,
      "d": 272.7270000000135,
      "v": 127
    },
    {
      "midi": 64,
      "hit": false,
      "t": 293999.70600000577,
      "d": 272.7270000000135,
      "v": 127
    },
    {
      "midi": 74,
      "hit": false,
      "t": 293999.70600000676,
      "d": 545.454000000027,
      "v": 127
    },
    {
      "midi": 65,
      "hit": false,
      "t": 294272.4330000058,
      "d": 272.7270000000135,
      "v": 127
    },
    {
      "midi": 60,
      "hit": false,
      "t": 294545.1600000058,
      "d": 545.454000000027,
      "v": 127
    },
    {
      "midi": 79,
      "hit": false,
      "t": 294545.1600000068,
      "d": 272.7270000000135,
      "v": 127
    },
    {
      "midi": 75,
      "hit": false,
      "t": 294817.8870000068,
      "d": 272.7270000000135,
      "v": 127
    },
    {
      "midi": 62,
      "hit": false,
      "t": 295090.6140000058,
      "d": 272.7270000000135,
      "v": 127
    },
    {
      "midi": 74,
      "hit": false,
      "t": 295090.6140000068,
      "d": 545.454000000027,
      "v": 127
    },
    {
      "midi": 63,
      "hit": false,
      "t": 295363.34100000584,
      "d": 272.7270000000135,
      "v": 127
    },
    {
      "midi": 57,
      "hit": false,
      "t": 295636.06800000585,
      "d": 545.454000000027,
      "v": 127
    },
    {
      "midi": 84,
      "hit": false,
      "t": 295636.06800000684,
      "d": 272.7270000000135,
      "v": 127
    },
    {
      "midi": 78,
      "hit": false,
      "t": 295908.79500000685,
      "d": 272.7270000000135,
      "v": 127
    },
    {
      "midi": 59,
      "hit": false,
      "t": 296181.5220000059,
      "d": 272.7270000000135,
      "v": 127
    },
    {
      "midi": 72,
      "hit": false,
      "t": 296181.52200000687,
      "d": 545.454000000027,
      "v": 127
    },
    {
      "midi": 60,
      "hit": false,
      "t": 296454.2490000059,
      "d": 272.7270000000135,
      "v": 127
    },
    {
      "midi": 55,
      "hit": false,
      "t": 296726.9760000059,
      "d": 545.454000000027,
      "v": 127
    },
    {
      "midi": 84,
      "hit": false,
      "t": 296726.9760000069,
      "d": 272.7270000000135,
      "v": 127
    },
    {
      "midi": 79,
      "hit": false,
      "t": 296999.7030000069,
      "d": 272.7270000000135,
      "v": 127
    },
    {
      "midi": 59,
      "hit": false,
      "t": 297272.43000000593,
      "d": 272.7270000000135,
      "v": 127
    },
    {
      "midi": 72,
      "hit": false,
      "t": 297272.4300000069,
      "d": 545.454000000027,
      "v": 127
    },
    {
      "midi": 60,
      "hit": false,
      "t": 297545.15700000594,
      "d": 272.7270000000135,
      "v": 127
    },
    {
      "midi": 54,
      "hit": false,
      "t": 297817.88400000596,
      "d": 545.454000000027,
      "v": 127
    },
    {
      "midi": 84,
      "hit": false,
      "t": 297817.88400000695,
      "d": 272.7270000000135,
      "v": 127
    },
    {
      "midi": 81,
      "hit": false,
      "t": 298090.61100000696,
      "d": 272.7270000000135,
      "v": 127
    },
    {
      "midi": 59,
      "hit": false,
      "t": 298363.338000006,
      "d": 272.7270000000135,
      "v": 127
    },
    {
      "midi": 72,
      "hit": false,
      "t": 298363.338000007,
      "d": 545.454000000027,
      "v": 127
    },
    {
      "midi": 60,
      "hit": false,
      "t": 298636.065000006,
      "d": 272.7270000000135,
      "v": 127
    },
    {
      "midi": 52,
      "hit": false,
      "t": 298908.792000006,
      "d": 545.454000000027,
      "v": 127
    },
    {
      "midi": 84,
      "hit": false,
      "t": 298908.792000007,
      "d": 272.7270000000135,
      "v": 127
    },
    {
      "midi": 81,
      "hit": false,
      "t": 299181.519000007,
      "d": 272.7270000000135,
      "v": 127
    },
    {
      "midi": 59,
      "hit": false,
      "t": 299454.24600000604,
      "d": 272.7270000000135,
      "v": 127
    },
    {
      "midi": 72,
      "hit": false,
      "t": 299454.246000007,
      "d": 545.454000000027,
      "v": 127
    },
    {
      "midi": 60,
      "hit": false,
      "t": 299726.97300000605,
      "d": 272.7270000000135,
      "v": 127
    },
    {
      "midi": 50,
      "hit": false,
      "t": 299999.70000000607,
      "d": 545.454000000027,
      "v": 127
    },
    {
      "midi": 54,
      "hit": false,
      "t": 299999.70000000607,
      "d": 545.454000000027,
      "v": 127
    },
    {
      "midi": 57,
      "hit": false,
      "t": 299999.70000000607,
      "d": 545.454000000027,
      "v": 127
    },
    {
      "midi": 62,
      "hit": false,
      "t": 299999.70000000607,
      "d": 545.454000000027,
      "v": 127
    },
    {
      "midi": 84,
      "hit": false,
      "t": 300136.06350000703,
      "d": 136.36349999997765,
      "v": 127
    },
    {
      "midi": 88,
      "hit": false,
      "t": 300272.427000007,
      "d": 136.36349999997765,
      "v": 127
    },
    {
      "midi": 86,
      "hit": false,
      "t": 300408.790500007,
      "d": 136.36349999997765,
      "v": 127
    },
    {
      "midi": 84,
      "hit": false,
      "t": 300545.15400000697,
      "d": 136.36349999997765,
      "v": 127
    },
    {
      "midi": 83,
      "hit": false,
      "t": 300681.51750000694,
      "d": 136.36349999997765,
      "v": 127
    },
    {
      "midi": 81,
      "hit": false,
      "t": 300817.8810000069,
      "d": 136.36349999997765,
      "v": 127
    },
    {
      "midi": 79,
      "hit": false,
      "t": 300954.2445000069,
      "d": 136.36349999997765,
      "v": 127
    },
    {
      "midi": 78,
      "hit": false,
      "t": 301090.6080000069,
      "d": 136.36349999997765,
      "v": 127
    },
    {
      "midi": 76,
      "hit": false,
      "t": 301226.97150000685,
      "d": 136.36349999997765,
      "v": 127
    },
    {
      "midi": 74,
      "hit": false,
      "t": 301363.33500000683,
      "d": 136.36349999997765,
      "v": 127
    },
    {
      "midi": 72,
      "hit": false,
      "t": 301499.6985000068,
      "d": 136.36349999997765,
      "v": 127
    },
    {
      "midi": 71,
      "hit": false,
      "t": 301636.0620000068,
      "d": 136.36349999997765,
      "v": 127
    },
    {
      "midi": 69,
      "hit": false,
      "t": 301772.42550000676,
      "d": 136.36349999997765,
      "v": 127
    },
    {
      "midi": 67,
      "hit": false,
      "t": 301908.78900000674,
      "d": 136.36349999997765,
      "v": 127
    },
    {
      "midi": 66,
      "hit": false,
      "t": 302045.1525000067,
      "d": 136.36349999997765,
      "v": 127
    },
    {
      "midi": 64,
      "hit": false,
      "t": 302181.5160000067,
      "d": 136.36349999997765,
      "v": 127
    },
    {
      "midi": 62,
      "hit": false,
      "t": 302317.8795000067,
      "d": 136.36349999997765,
      "v": 127
    },
    {
      "midi": 60,
      "hit": false,
      "t": 302454.24300000665,
      "d": 136.36349999997765,
      "v": 127
    },
    {
      "midi": 59,
      "hit": false,
      "t": 302590.60650000663,
      "d": 136.36349999997765,
      "v": 127
    },
    {
      "midi": 57,
      "hit": false,
      "t": 302726.9700000061,
      "d": 136.36349999997765,
      "v": 127
    },
    {
      "midi": 55,
      "hit": false,
      "t": 302863.33350000606,
      "d": 136.36349999997765,
      "v": 127
    },
    {
      "midi": 54,
      "hit": false,
      "t": 302999.69700000604,
      "d": 136.36349999997765,
      "v": 127
    },
    {
      "midi": 52,
      "hit": false,
      "t": 303136.060500006,
      "d": 136.36349999997765,
      "v": 127
    },
    {
      "midi": 50,
      "hit": false,
      "t": 303272.424000006,
      "d": 136.36349999997765,
      "v": 127
    },
    {
      "midi": 48,
      "hit": false,
      "t": 303408.787500006,
      "d": 136.36349999997765,
      "v": 127
    },
    {
      "midi": 47,
      "hit": false,
      "t": 303545.15100000595,
      "d": 136.36349999997765,
      "v": 127
    },
    {
      "midi": 45,
      "hit": false,
      "t": 303681.5145000059,
      "d": 136.36349999997765,
      "v": 127
    },
    {
      "midi": 43,
      "hit": false,
      "t": 303817.8780000059,
      "d": 136.36349999997765,
      "v": 127
    },
    {
      "midi": 42,
      "hit": false,
      "t": 303954.2415000059,
      "d": 136.36349999997765,
      "v": 127
    },
    {
      "midi": 40,
      "hit": false,
      "t": 304090.60500000586,
      "d": 136.36349999997765,
      "v": 127
    },
    {
      "midi": 38,
      "hit": false,
      "t": 304226.96850000584,
      "d": 136.36349999997765,
      "v": 127
    },
    {
      "midi": 37,
      "hit": false,
      "t": 304363.3320000058,
      "d": 136.36349999997765,
      "v": 127
    },
    {
      "midi": 38,
      "hit": false,
      "t": 304499.6955000058,
      "d": 136.36349999997765,
      "v": 127
    },
    {
      "midi": 40,
      "hit": false,
      "t": 304636.0590000058,
      "d": 136.36349999997765,
      "v": 127
    },
    {
      "midi": 42,
      "hit": false,
      "t": 304772.42250000575,
      "d": 136.36349999997765,
      "v": 127
    },
    {
      "midi": 43,
      "hit": false,
      "t": 304908.7860000057,
      "d": 136.36349999997765,
      "v": 127
    },
    {
      "midi": 45,
      "hit": false,
      "t": 305045.1495000057,
      "d": 136.36349999997765,
      "v": 127
    },
    {
      "midi": 47,
      "hit": false,
      "t": 305181.5130000057,
      "d": 136.36349999997765,
      "v": 127
    },
    {
      "midi": 48,
      "hit": false,
      "t": 305317.87650000566,
      "d": 136.36349999997765,
      "v": 127
    },
    {
      "midi": 50,
      "hit": false,
      "t": 305454.24000000564,
      "d": 181.8180000000284,
      "v": 127
    },
    {
      "midi": 51,
      "hit": false,
      "t": 305636.05800000567,
      "d": 181.8180000000284,
      "v": 127
    },
    {
      "midi": 52,
      "hit": false,
      "t": 305817.8760000057,
      "d": 181.8180000000284,
      "v": 127
    },
    {
      "midi": 53,
      "hit": false,
      "t": 305999.6940000057,
      "d": 181.8180000000284,
      "v": 127
    },
    {
      "midi": 54,
      "hit": false,
      "t": 306181.51200000575,
      "d": 181.8180000000284,
      "v": 127
    },
    {
      "midi": 55,
      "hit": false,
      "t": 306363.3300000058,
      "d": 181.8180000000284,
      "v": 127
    },
    {
      "midi": 56,
      "hit": false,
      "t": 306545.1480000058,
      "d": 181.8180000000284,
      "v": 127
    },
    {
      "midi": 57,
      "hit": false,
      "t": 306726.96600000584,
      "d": 181.8180000000284,
      "v": 127
    },
    {
      "midi": 58,
      "hit": false,
      "t": 306908.78400000586,
      "d": 181.8180000000284,
      "v": 127
    },
    {
      "midi": 59,
      "hit": false,
      "t": 307090.6020000059,
      "d": 181.8180000000284,
      "v": 127
    },
    {
      "midi": 60,
      "hit": false,
      "t": 307272.4200000059,
      "d": 181.8180000000284,
      "v": 127
    },
    {
      "midi": 61,
      "hit": false,
      "t": 307454.23800000595,
      "d": 181.8180000000284,
      "v": 127
    },
    {
      "midi": 62,
      "hit": false,
      "t": 307636.0560000066,
      "d": 181.8180000000284,
      "v": 127
    },
    {
      "midi": 64,
      "hit": false,
      "t": 307817.87400000665,
      "d": 181.8180000000284,
      "v": 127
    },
    {
      "midi": 66,
      "hit": false,
      "t": 307999.6920000067,
      "d": 181.8180000000284,
      "v": 127
    },
    {
      "midi": 67,
      "hit": false,
      "t": 308181.5100000067,
      "d": 181.8180000000284,
      "v": 127
    },
    {
      "midi": 69,
      "hit": false,
      "t": 308363.32800000673,
      "d": 181.8180000000284,
      "v": 127
    },
    {
      "midi": 70,
      "hit": false,
      "t": 308545.14600000676,
      "d": 181.8180000000284,
      "v": 127
    },
    {
      "midi": 70,
      "hit": false,
      "t": 308726.9640000068,
      "d": 272.7270000000135,
      "v": 127
    },
    {
      "midi": 71,
      "hit": false,
      "t": 308999.6910000068,
      "d": 272.7270000000135,
      "v": 127
    },
    {
      "midi": 54,
      "hit": false,
      "t": 309272.418000006,
      "d": 272.7270000000135,
      "v": 127
    },
    {
      "midi": 62,
      "hit": false,
      "t": 309272.4180000068,
      "d": 545.454000000027,
      "v": 127
    },
    {
      "midi": 71,
      "hit": false,
      "t": 309272.4180000068,
      "d": 545.454000000027,
      "v": 127
    },
    {
      "midi": 74,
      "hit": false,
      "t": 309272.4180000068,
      "d": 545.454000000027,
      "v": 127
    },
    {
      "midi": 55,
      "hit": false,
      "t": 309545.145000006,
      "d": 272.7270000000135,
      "v": 127
    },
    {
      "midi": 50,
      "hit": false,
      "t": 309817.872000006,
      "d": 545.454000000027,
      "v": 127
    },
    {
      "midi": 78,
      "hit": false,
      "t": 309817.87200000684,
      "d": 272.7270000000135,
      "v": 127
    },
    {
      "midi": 79,
      "hit": false,
      "t": 310090.59900000686,
      "d": 272.7270000000135,
      "v": 127
    },
    {
      "midi": 54,
      "hit": false,
      "t": 310363.32600000605,
      "d": 272.7270000000135,
      "v": 127
    },
    {
      "midi": 71,
      "hit": false,
      "t": 310363.32600000687,
      "d": 545.454000000027,
      "v": 127
    },
    {
      "midi": 74,
      "hit": false,
      "t": 310363.32600000687,
      "d": 545.454000000027,
      "v": 127
    },
    {
      "midi": 83,
      "hit": false,
      "t": 310363.32600000687,
      "d": 545.454000000027,
      "v": 127
    },
    {
      "midi": 55,
      "hit": false,
      "t": 310636.05300000607,
      "d": 272.7270000000135,
      "v": 127
    },
    {
      "midi": 50,
      "hit": false,
      "t": 310908.7800000061,
      "d": 545.454000000027,
      "v": 127
    },
    {
      "midi": 86,
      "hit": false,
      "t": 310908.7800000069,
      "d": 272.7270000000135,
      "v": 127
    },
    {
      "midi": 84,
      "hit": false,
      "t": 311181.5070000069,
      "d": 272.7270000000135,
      "v": 127
    },
    {
      "midi": 60,
      "hit": false,
      "t": 311454.2340000061,
      "d": 272.7270000000135,
      "v": 127
    },
    {
      "midi": 74,
      "hit": false,
      "t": 311454.2340000069,
      "d": 545.454000000027,
      "v": 127
    },
    {
      "midi": 81,
      "hit": false,
      "t": 311454.2340000069,
      "d": 545.454000000027,
      "v": 127
    },
    {
      "midi": 62,
      "hit": false,
      "t": 311726.9610000061,
      "d": 272.7270000000135,
      "v": 127
    },
    {
      "midi": 50,
      "hit": false,
      "t": 311999.68800000614,
      "d": 545.454000000027,
      "v": 127
    },
    {
      "midi": 86,
      "hit": false,
      "t": 311999.68800000695,
      "d": 272.7270000000135,
      "v": 127
    },
    {
      "midi": 84,
      "hit": false,
      "t": 312272.41500000696,
      "d": 272.7270000000135,
      "v": 127
    },
    {
      "midi": 60,
      "hit": false,
      "t": 312545.14200000616,
      "d": 272.7270000000135,
      "v": 127
    },
    {
      "midi": 74,
      "hit": false,
      "t": 312545.142000007,
      "d": 545.454000000027,
      "v": 127
    },
    {
      "midi": 81,
      "hit": false,
      "t": 312545.142000007,
      "d": 545.454000000027,
      "v": 127
    },
    {
      "midi": 62,
      "hit": false,
      "t": 312817.8690000062,
      "d": 272.7270000000135,
      "v": 127
    },
    {
      "midi": 55,
      "hit": false,
      "t": 313090.5960000062,
      "d": 545.454000000027,
      "v": 127
    },
    {
      "midi": 59,
      "hit": false,
      "t": 313090.5960000062,
      "d": 545.454000000027,
      "v": 127
    },
    {
      "midi": 70,
      "hit": false,
      "t": 313090.596000007,
      "d": 272.7270000000135,
      "v": 127
    },
    {
      "midi": 71,
      "hit": false,
      "t": 313363.323000007,
      "d": 272.7270000000135,
      "v": 127
    },
    {
      "midi": 54,
      "hit": false,
      "t": 313636.0500000062,
      "d": 272.7270000000135,
      "v": 127
    },
    {
      "midi": 62,
      "hit": false,
      "t": 313636.05000000703,
      "d": 545.454000000027,
      "v": 127
    },
    {
      "midi": 71,
      "hit": false,
      "t": 313636.05000000703,
      "d": 545.454000000027,
      "v": 127
    },
    {
      "midi": 74,
      "hit": false,
      "t": 313636.05000000703,
      "d": 545.454000000027,
      "v": 127
    },
    {
      "midi": 55,
      "hit": false,
      "t": 313908.77700000623,
      "d": 272.7270000000135,
      "v": 127
    },
    {
      "midi": 50,
      "hit": false,
      "t": 314181.50400000624,
      "d": 545.454000000027,
      "v": 127
    },
    {
      "midi": 78,
      "hit": false,
      "t": 314181.50400000706,
      "d": 272.7270000000135,
      "v": 127
    },
    {
      "midi": 79,
      "hit": false,
      "t": 314454.2310000071,
      "d": 272.7270000000135,
      "v": 127
    },
    {
      "midi": 54,
      "hit": false,
      "t": 314726.95800000627,
      "d": 272.7270000000135,
      "v": 127
    },
    {
      "midi": 71,
      "hit": false,
      "t": 314726.9580000071,
      "d": 545.454000000027,
      "v": 127
    },
    {
      "midi": 74,
      "hit": false,
      "t": 314726.9580000071,
      "d": 545.454000000027,
      "v": 127
    },
    {
      "midi": 83,
      "hit": false,
      "t": 314726.9580000071,
      "d": 545.454000000027,
      "v": 127
    },
    {
      "midi": 55,
      "hit": false,
      "t": 314999.6850000063,
      "d": 272.7270000000135,
      "v": 127
    },
    {
      "midi": 50,
      "hit": false,
      "t": 315272.4120000063,
      "d": 545.454000000027,
      "v": 127
    },
    {
      "midi": 86,
      "hit": false,
      "t": 315272.4120000071,
      "d": 272.7270000000135,
      "v": 127
    },
    {
      "midi": 84,
      "hit": false,
      "t": 315545.1390000071,
      "d": 272.7270000000135,
      "v": 127
    },
    {
      "midi": 60,
      "hit": false,
      "t": 315817.8660000063,
      "d": 272.7270000000135,
      "v": 127
    },
    {
      "midi": 74,
      "hit": false,
      "t": 315817.86600000714,
      "d": 545.454000000027,
      "v": 127
    },
    {
      "midi": 81,
      "hit": false,
      "t": 315817.86600000714,
      "d": 545.454000000027,
      "v": 127
    },
    {
      "midi": 62,
      "hit": false,
      "t": 316090.59300000634,
      "d": 272.7270000000135,
      "v": 127
    },
    {
      "midi": 55,
      "hit": false,
      "t": 316363.32000000635,
      "d": 272.7270000000135,
      "v": 127
    },
    {
      "midi": 59,
      "hit": false,
      "t": 316363.32000000635,
      "d": 272.7270000000135,
      "v": 127
    },
    {
      "midi": 74,
      "hit": false,
      "t": 316363.32000000717,
      "d": 545.454000000027,
      "v": 127
    },
    {
      "midi": 79,
      "hit": false,
      "t": 316363.32000000717,
      "d": 545.454000000027,
      "v": 127
    },
    {
      "midi": 50,
      "hit": false,
      "t": 316636.04700000637,
      "d": 272.7270000000135,
      "v": 127
    },
    {
      "midi": 47,
      "hit": false,
      "t": 316908.7740000064,
      "d": 272.7270000000135,
      "v": 127
    },
    {
      "midi": 43,
      "hit": false,
      "t": 317181.5010000064,
      "d": 272.7270000000135,
      "v": 127
    },
    {
      "midi": 70,
      "hit": false,
      "t": 317454.2280000072,
      "d": 272.7270000000135,
      "v": 127
    },
    {
      "midi": 82,
      "hit": false,
      "t": 317454.2280000072,
      "d": 272.7270000000135,
      "v": 127
    },
    {
      "midi": 71,
      "hit": false,
      "t": 317726.95500000723,
      "d": 272.7270000000135,
      "v": 127
    },
    {
      "midi": 83,
      "hit": false,
      "t": 317726.95500000723,
      "d": 272.7270000000135,
      "v": 127
    },
    {
      "midi": 63,
      "hit": false,
      "t": 317999.68200000643,
      "d": 272.7270000000135,
      "v": 127
    },
    {
      "midi": 66,
      "hit": false,
      "t": 317999.68200000643,
      "d": 272.7270000000135,
      "v": 127
    },
    {
      "midi": 76,
      "hit": false,
      "t": 317999.68200000725,
      "d": 545.454000000027,
      "v": 127
    },
    {
      "midi": 88,
      "hit": false,
      "t": 317999.68200000725,
      "d": 545.454000000027,
      "v": 127
    },
    {
      "midi": 64,
      "hit": false,
      "t": 318272.40900000645,
      "d": 272.7270000000135,
      "v": 127
    },
    {
      "midi": 67,
      "hit": false,
      "t": 318272.40900000645,
      "d": 272.7270000000135,
      "v": 127
    },
    {
      "midi": 70,
      "hit": false,
      "t": 318545.1360000073,
      "d": 272.7270000000135,
      "v": 127
    },
    {
      "midi": 82,
      "hit": false,
      "t": 318545.1360000073,
      "d": 272.7270000000135,
      "v": 127
    },
    {
      "midi": 71,
      "hit": false,
      "t": 318817.8630000073,
      "d": 272.7270000000135,
      "v": 127
    },
    {
      "midi": 83,
      "hit": false,
      "t": 318817.8630000073,
      "d": 272.7270000000135,
      "v": 127
    },
    {
      "midi": 63,
      "hit": false,
      "t": 319090.5900000065,
      "d": 272.7270000000135,
      "v": 127
    },
    {
      "midi": 66,
      "hit": false,
      "t": 319090.5900000065,
      "d": 272.7270000000135,
      "v": 127
    },
    {
      "midi": 76,
      "hit": false,
      "t": 319090.5900000073,
      "d": 545.454000000027,
      "v": 127
    },
    {
      "midi": 88,
      "hit": false,
      "t": 319090.5900000073,
      "d": 545.454000000027,
      "v": 127
    },
    {
      "midi": 64,
      "hit": false,
      "t": 319363.3170000065,
      "d": 272.7270000000135,
      "v": 127
    },
    {
      "midi": 67,
      "hit": false,
      "t": 319363.3170000065,
      "d": 272.7270000000135,
      "v": 127
    },
    {
      "midi": 76,
      "hit": false,
      "t": 319636.0440000073,
      "d": 272.7270000000135,
      "v": 127
    },
    {
      "midi": 88,
      "hit": false,
      "t": 319636.0440000073,
      "d": 272.7270000000135,
      "v": 127
    },
    {
      "midi": 75,
      "hit": false,
      "t": 319908.77100000734,
      "d": 272.7270000000135,
      "v": 127
    },
    {
      "midi": 87,
      "hit": false,
      "t": 319908.77100000734,
      "d": 272.7270000000135,
      "v": 127
    },
    {
      "midi": 65,
      "hit": false,
      "t": 320181.49800000654,
      "d": 272.7270000000135,
      "v": 127
    },
    {
      "midi": 68,
      "hit": false,
      "t": 320181.49800000654,
      "d": 272.7270000000135,
      "v": 127
    },
    {
      "midi": 71,
      "hit": false,
      "t": 320181.49800000736,
      "d": 545.454000000027,
      "v": 127
    },
    {
      "midi": 83,
      "hit": false,
      "t": 320181.49800000736,
      "d": 545.454000000027,
      "v": 127
    },
    {
      "midi": 66,
      "hit": false,
      "t": 320454.22500000655,
      "d": 272.7270000000135,
      "v": 127
    },
    {
      "midi": 69,
      "hit": false,
      "t": 320454.22500000655,
      "d": 272.7270000000135,
      "v": 127
    },
    {
      "midi": 76,
      "hit": false,
      "t": 320726.9520000074,
      "d": 272.7270000000135,
      "v": 127
    },
    {
      "midi": 88,
      "hit": false,
      "t": 320726.9520000074,
      "d": 272.7270000000135,
      "v": 127
    },
    {
      "midi": 75,
      "hit": false,
      "t": 320999.6790000074,
      "d": 272.7270000000135,
      "v": 127
    },
    {
      "midi": 87,
      "hit": false,
      "t": 320999.6790000074,
      "d": 272.7270000000135,
      "v": 127
    },
    {
      "midi": 65,
      "hit": false,
      "t": 321272.4060000066,
      "d": 272.7270000000135,
      "v": 127
    },
    {
      "midi": 68,
      "hit": false,
      "t": 321272.4060000066,
      "d": 272.7270000000135,
      "v": 127
    },
    {
      "midi": 71,
      "hit": false,
      "t": 321272.4060000074,
      "d": 545.454000000027,
      "v": 127
    },
    {
      "midi": 83,
      "hit": false,
      "t": 321272.4060000074,
      "d": 545.454000000027,
      "v": 127
    },
    {
      "midi": 66,
      "hit": false,
      "t": 321545.1330000066,
      "d": 272.7270000000135,
      "v": 127
    },
    {
      "midi": 69,
      "hit": false,
      "t": 321545.1330000066,
      "d": 272.7270000000135,
      "v": 127
    },
    {
      "midi": 70,
      "hit": false,
      "t": 321817.86000000744,
      "d": 272.7270000000135,
      "v": 127
    },
    {
      "midi": 82,
      "hit": false,
      "t": 321817.86000000744,
      "d": 272.7270000000135,
      "v": 127
    },
    {
      "midi": 71,
      "hit": false,
      "t": 322090.58700000745,
      "d": 272.7270000000135,
      "v": 127
    },
    {
      "midi": 83,
      "hit": false,
      "t": 322090.58700000745,
      "d": 272.7270000000135,
      "v": 127
    },
    {
      "midi": 63,
      "hit": false,
      "t": 322363.31400000665,
      "d": 272.7270000000135,
      "v": 127
    },
    {
      "midi": 66,
      "hit": false,
      "t": 322363.31400000665,
      "d": 272.7270000000135,
      "v": 127
    },
    {
      "midi": 76,
      "hit": false,
      "t": 322363.31400000746,
      "d": 545.454000000027,
      "v": 127
    },
    {
      "midi": 88,
      "hit": false,
      "t": 322363.31400000746,
      "d": 545.454000000027,
      "v": 127
    },
    {
      "midi": 64,
      "hit": false,
      "t": 322636.04100000666,
      "d": 272.7270000000135,
      "v": 127
    },
    {
      "midi": 67,
      "hit": false,
      "t": 322636.04100000666,
      "d": 272.7270000000135,
      "v": 127
    },
    {
      "midi": 70,
      "hit": false,
      "t": 322908.7680000075,
      "d": 272.7270000000135,
      "v": 127
    },
    {
      "midi": 82,
      "hit": false,
      "t": 322908.7680000075,
      "d": 272.7270000000135,
      "v": 127
    },
    {
      "midi": 71,
      "hit": false,
      "t": 323181.4950000075,
      "d": 272.7270000000135,
      "v": 127
    },
    {
      "midi": 83,
      "hit": false,
      "t": 323181.4950000075,
      "d": 272.7270000000135,
      "v": 127
    },
    {
      "midi": 63,
      "hit": false,
      "t": 323454.2220000067,
      "d": 272.7270000000135,
      "v": 127
    },
    {
      "midi": 66,
      "hit": false,
      "t": 323454.2220000067,
      "d": 272.7270000000135,
      "v": 127
    },
    {
      "midi": 76,
      "hit": false,
      "t": 323454.2220000075,
      "d": 545.454000000027,
      "v": 127
    },
    {
      "midi": 88,
      "hit": false,
      "t": 323454.2220000075,
      "d": 545.454000000027,
      "v": 127
    },
    {
      "midi": 64,
      "hit": false,
      "t": 323726.9490000067,
      "d": 272.7270000000135,
      "v": 127
    },
    {
      "midi": 67,
      "hit": false,
      "t": 323726.9490000067,
      "d": 272.7270000000135,
      "v": 127
    },
    {
      "midi": 74,
      "hit": false,
      "t": 323999.67600000754,
      "d": 272.7270000000135,
      "v": 127
    },
    {
      "midi": 86,
      "hit": false,
      "t": 323999.67600000754,
      "d": 272.7270000000135,
      "v": 127
    },
    {
      "midi": 73,
      "hit": false,
      "t": 324272.40300000756,
      "d": 272.7270000000135,
      "v": 127
    },
    {
      "midi": 85,
      "hit": false,
      "t": 324272.40300000756,
      "d": 272.7270000000135,
      "v": 127
    },
    {
      "midi": 63,
      "hit": false,
      "t": 324545.13000000676,
      "d": 272.7270000000135,
      "v": 127
    },
    {
      "midi": 66,
      "hit": false,
      "t": 324545.13000000676,
      "d": 272.7270000000135,
      "v": 127
    },
    {
      "midi": 64,
      "hit": false,
      "t": 324817.85700000677,
      "d": 272.7270000000135,
      "v": 127
    },
    {
      "midi": 67,
      "hit": false,
      "t": 324817.85700000677,
      "d": 272.7270000000135,
      "v": 127
    },
    {
      "midi": 76,
      "hit": false,
      "t": 325090.5840000076,
      "d": 272.7270000000135,
      "v": 127
    },
    {
      "midi": 88,
      "hit": false,
      "t": 325090.5840000076,
      "d": 272.7270000000135,
      "v": 127
    },
    {
      "midi": 74,
      "hit": false,
      "t": 325363.3110000076,
      "d": 272.7270000000135,
      "v": 127
    },
    {
      "midi": 86,
      "hit": false,
      "t": 325363.3110000076,
      "d": 272.7270000000135,
      "v": 127
    },
    {
      "midi": 65,
      "hit": false,
      "t": 325636.0380000068,
      "d": 272.7270000000135,
      "v": 127
    },
    {
      "midi": 68,
      "hit": false,
      "t": 325636.0380000068,
      "d": 272.7270000000135,
      "v": 127
    },
    {
      "midi": 66,
      "hit": false,
      "t": 325908.7650000068,
      "d": 272.7270000000135,
      "v": 127
    },
    {
      "midi": 69,
      "hit": false,
      "t": 325908.7650000068,
      "d": 272.7270000000135,
      "v": 127
    },
    {
      "midi": 55,
      "hit": false,
      "t": 326181.49200000684,
      "d": 136.36349999997765,
      "v": 127
    },
    {
      "midi": 70,
      "hit": false,
      "t": 326181.49200000765,
      "d": 272.7270000000135,
      "v": 127
    },
    {
      "midi": 62,
      "hit": false,
      "t": 326317.8555000068,
      "d": 136.36349999997765,
      "v": 127
    },
    {
      "midi": 59,
      "hit": false,
      "t": 326454.2190000068,
      "d": 136.36349999997765,
      "v": 127
    },
    {
      "midi": 71,
      "hit": false,
      "t": 326454.21900000767,
      "d": 272.7270000000135,
      "v": 127
    },
    {
      "midi": 55,
      "hit": false,
      "t": 326590.58250000677,
      "d": 136.36349999997765,
      "v": 127
    },
    {
      "midi": 50,
      "hit": false,
      "t": 326726.94600000675,
      "d": 136.36349999997765,
      "v": 127
    },
    {
      "midi": 73,
      "hit": false,
      "t": 326726.9460000077,
      "d": 272.7270000000135,
      "v": 127
    },
    {
      "midi": 59,
      "hit": false,
      "t": 326863.3095000067,
      "d": 136.36349999997765,
      "v": 127
    },
    {
      "midi": 55,
      "hit": false,
      "t": 326999.6730000067,
      "d": 136.36349999997765,
      "v": 127
    },
    {
      "midi": 74,
      "hit": false,
      "t": 326999.6730000077,
      "d": 272.7270000000135,
      "v": 127
    },
    {
      "midi": 50,
      "hit": false,
      "t": 327136.0365000067,
      "d": 136.36349999997765,
      "v": 127
    },
    {
      "midi": 47,
      "hit": false,
      "t": 327272.40000000666,
      "d": 136.36349999997765,
      "v": 127
    },
    {
      "midi": 78,
      "hit": false,
      "t": 327272.4000000077,
      "d": 272.7270000000135,
      "v": 127
    },
    {
      "midi": 55,
      "hit": false,
      "t": 327408.76350000664,
      "d": 136.36349999997765,
      "v": 127
    },
    {
      "midi": 50,
      "hit": false,
      "t": 327545.1270000066,
      "d": 136.36349999997765,
      "v": 127
    },
    {
      "midi": 79,
      "hit": false,
      "t": 327545.1270000077,
      "d": 272.7270000000135,
      "v": 127
    },
    {
      "midi": 47,
      "hit": false,
      "t": 327681.4905000066,
      "d": 136.36349999997765,
      "v": 127
    },
    {
      "midi": 43,
      "hit": false,
      "t": 327817.85400000657,
      "d": 136.36349999997765,
      "v": 127
    },
    {
      "midi": 82,
      "hit": false,
      "t": 327817.85400000773,
      "d": 272.7270000000135,
      "v": 127
    },
    {
      "midi": 50,
      "hit": false,
      "t": 327954.21750000655,
      "d": 136.36349999997765,
      "v": 127
    },
    {
      "midi": 47,
      "hit": false,
      "t": 328090.5810000065,
      "d": 136.36349999997765,
      "v": 127
    },
    {
      "midi": 83,
      "hit": false,
      "t": 328090.58100000775,
      "d": 272.7270000000135,
      "v": 127
    },
    {
      "midi": 43,
      "hit": false,
      "t": 328226.9445000065,
      "d": 136.36349999997765,
      "v": 127
    },
    {
      "midi": 42,
      "hit": false,
      "t": 328363.3080000065,
      "d": 136.36349999997765,
      "v": 127
    },
    {
      "midi": 86,
      "hit": false,
      "t": 328363.30800000776,
      "d": 136.36349999997765,
      "v": 127
    },
    {
      "midi": 45,
      "hit": false,
      "t": 328499.67150000646,
      "d": 136.36349999997765,
      "v": 127
    },
    {
      "midi": 84,
      "hit": false,
      "t": 328499.67150000774,
      "d": 136.36349999997765,
      "v": 127
    },
    {
      "midi": 38,
      "hit": false,
      "t": 328636.03500000644,
      "d": 136.36349999997765,
      "v": 127
    },
    {
      "midi": 86,
      "hit": false,
      "t": 328636.0350000077,
      "d": 136.36349999997765,
      "v": 127
    },
    {
      "midi": 42,
      "hit": false,
      "t": 328772.3985000064,
      "d": 136.36349999997765,
      "v": 127
    },
    {
      "midi": 84,
      "hit": false,
      "t": 328772.3985000077,
      "d": 136.36349999997765,
      "v": 127
    },
    {
      "midi": 45,
      "hit": false,
      "t": 328908.7620000064,
      "d": 136.36349999997765,
      "v": 127
    },
    {
      "midi": 81,
      "hit": false,
      "t": 328908.7620000077,
      "d": 545.454000000027,
      "v": 127
    },
    {
      "midi": 50,
      "hit": false,
      "t": 329045.12550000637,
      "d": 136.36349999997765,
      "v": 127
    },
    {
      "midi": 54,
      "hit": false,
      "t": 329181.48900000635,
      "d": 136.36349999997765,
      "v": 127
    },
    {
      "midi": 57,
      "hit": false,
      "t": 329317.8525000063,
      "d": 136.36349999997765,
      "v": 127
    },
    {
      "midi": 54,
      "hit": false,
      "t": 329454.2160000063,
      "d": 136.36349999997765,
      "v": 127
    },
    {
      "midi": 86,
      "hit": false,
      "t": 329454.2160000077,
      "d": 136.36349999997765,
      "v": 127
    },
    {
      "midi": 57,
      "hit": false,
      "t": 329590.5795000063,
      "d": 136.36349999997765,
      "v": 127
    },
    {
      "midi": 84,
      "hit": false,
      "t": 329590.5795000077,
      "d": 136.36349999997765,
      "v": 127
    },
    {
      "midi": 50,
      "hit": false,
      "t": 329726.94300000626,
      "d": 136.36349999997765,
      "v": 127
    },
    {
      "midi": 86,
      "hit": false,
      "t": 329726.94300000765,
      "d": 136.36349999997765,
      "v": 127
    },
    {
      "midi": 54,
      "hit": false,
      "t": 329863.30650000623,
      "d": 136.36349999997765,
      "v": 127
    },
    {
      "midi": 84,
      "hit": false,
      "t": 329863.30650000763,
      "d": 136.36349999997765,
      "v": 127
    },
    {
      "midi": 57,
      "hit": false,
      "t": 329999.6700000062,
      "d": 136.36349999997765,
      "v": 127
    },
    {
      "midi": 81,
      "hit": false,
      "t": 329999.6700000076,
      "d": 545.454000000027,
      "v": 127
    },
    {
      "midi": 62,
      "hit": false,
      "t": 330136.0335000062,
      "d": 136.36349999997765,
      "v": 127
    },
    {
      "midi": 60,
      "hit": false,
      "t": 330272.39700000617,
      "d": 136.36349999997765,
      "v": 127
    },
    {
      "midi": 57,
      "hit": false,
      "t": 330408.76050000614,
      "d": 136.36349999997765,
      "v": 127
    },
    {
      "midi": 55,
      "hit": false,
      "t": 330545.1240000061,
      "d": 136.36349999997765,
      "v": 127
    },
    {
      "midi": 70,
      "hit": false,
      "t": 330545.12400000764,
      "d": 272.7270000000135,
      "v": 127
    },
    {
      "midi": 62,
      "hit": false,
      "t": 330681.4875000061,
      "d": 136.36349999997765,
      "v": 127
    },
    {
      "midi": 59,
      "hit": false,
      "t": 330817.8510000061,
      "d": 136.36349999997765,
      "v": 127
    },
    {
      "midi": 71,
      "hit": false,
      "t": 330817.85100000765,
      "d": 272.7270000000135,
      "v": 127
    },
    {
      "midi": 55,
      "hit": false,
      "t": 330954.21450000606,
      "d": 136.36349999997765,
      "v": 127
    },
    {
      "midi": 50,
      "hit": false,
      "t": 331090.57800000603,
      "d": 136.36349999997765,
      "v": 127
    },
    {
      "midi": 73,
      "hit": false,
      "t": 331090.57800000766,
      "d": 272.7270000000135,
      "v": 127
    },
    {
      "midi": 59,
      "hit": false,
      "t": 331226.941500006,
      "d": 136.36349999997765,
      "v": 127
    },
    {
      "midi": 55,
      "hit": false,
      "t": 331363.305000006,
      "d": 136.36349999997765,
      "v": 127
    },
    {
      "midi": 74,
      "hit": false,
      "t": 331363.3050000077,
      "d": 272.7270000000135,
      "v": 127
    },
    {
      "midi": 50,
      "hit": false,
      "t": 331499.66850000597,
      "d": 136.36349999997765,
      "v": 127
    },
    {
      "midi": 47,
      "hit": false,
      "t": 331636.03200000594,
      "d": 136.36349999997765,
      "v": 127
    },
    {
      "midi": 78,
      "hit": false,
      "t": 331636.0320000077,
      "d": 272.7270000000135,
      "v": 127
    },
    {
      "midi": 55,
      "hit": false,
      "t": 331772.3955000059,
      "d": 136.36349999997765,
      "v": 127
    },
    {
      "midi": 50,
      "hit": false,
      "t": 331908.7590000059,
      "d": 136.36349999997765,
      "v": 127
    },
    {
      "midi": 79,
      "hit": false,
      "t": 331908.7590000077,
      "d": 272.7270000000135,
      "v": 127
    },
    {
      "midi": 47,
      "hit": false,
      "t": 332045.1225000059,
      "d": 136.36349999997765,
      "v": 127
    },
    {
      "midi": 43,
      "hit": false,
      "t": 332181.48600000585,
      "d": 136.36349999997765,
      "v": 127
    },
    {
      "midi": 82,
      "hit": false,
      "t": 332181.4860000077,
      "d": 272.7270000000135,
      "v": 127
    },
    {
      "midi": 50,
      "hit": false,
      "t": 332317.84950000583,
      "d": 136.36349999997765,
      "v": 127
    },
    {
      "midi": 47,
      "hit": false,
      "t": 332454.2130000058,
      "d": 136.36349999997765,
      "v": 127
    },
    {
      "midi": 83,
      "hit": false,
      "t": 332454.21300000773,
      "d": 272.7270000000135,
      "v": 127
    },
    {
      "midi": 43,
      "hit": false,
      "t": 332590.5765000058,
      "d": 136.36349999997765,
      "v": 127
    },
    {
      "midi": 38,
      "hit": false,
      "t": 332726.94000000576,
      "d": 136.36349999997765,
      "v": 127
    },
    {
      "midi": 86,
      "hit": false,
      "t": 332726.94000000774,
      "d": 136.36349999997765,
      "v": 127
    },
    {
      "midi": 50,
      "hit": false,
      "t": 332863.30350000574,
      "d": 136.36349999997765,
      "v": 127
    },
    {
      "midi": 84,
      "hit": false,
      "t": 332863.3035000077,
      "d": 136.36349999997765,
      "v": 127
    },
    {
      "midi": 54,
      "hit": false,
      "t": 332999.6670000057,
      "d": 136.36349999997765,
      "v": 127
    },
    {
      "midi": 86,
      "hit": false,
      "t": 332999.6670000077,
      "d": 136.36349999997765,
      "v": 127
    },
    {
      "midi": 57,
      "hit": false,
      "t": 333136.0305000057,
      "d": 136.36349999997765,
      "v": 127
    },
    {
      "midi": 84,
      "hit": false,
      "t": 333136.0305000077,
      "d": 136.36349999997765,
      "v": 127
    },
    {
      "midi": 50,
      "hit": false,
      "t": 333272.3940000057,
      "d": 136.36349999997765,
      "v": 127
    },
    {
      "midi": 81,
      "hit": false,
      "t": 333272.39400000765,
      "d": 272.7270000000135,
      "v": 127
    },
    {
      "midi": 60,
      "hit": false,
      "t": 333408.75750000565,
      "d": 136.36349999997765,
      "v": 127
    },
    {
      "midi": 54,
      "hit": false,
      "t": 333545.12100000563,
      "d": 136.36349999997765,
      "v": 127
    },
    {
      "midi": 81,
      "hit": false,
      "t": 333545.12100000767,
      "d": 136.36349999997765,
      "v": 127
    },
    {
      "midi": 60,
      "hit": false,
      "t": 333681.4845000056,
      "d": 136.36349999997765,
      "v": 127
    },
    {
      "midi": 83,
      "hit": false,
      "t": 333681.48450000765,
      "d": 136.36349999997765,
      "v": 127
    },
    {
      "midi": 55,
      "hit": false,
      "t": 333817.8480000056,
      "d": 136.36349999997765,
      "v": 127
    },
    {
      "midi": 79,
      "hit": false,
      "t": 333817.8480000076,
      "d": 545.454000000027,
      "v": 127
    },
    {
      "midi": 59,
      "hit": false,
      "t": 333954.21150000556,
      "d": 136.36349999997765,
      "v": 127
    },
    {
      "midi": 62,
      "hit": false,
      "t": 334090.57500000554,
      "d": 136.36349999997765,
      "v": 127
    },
    {
      "midi": 59,
      "hit": false,
      "t": 334226.9385000055,
      "d": 136.36349999997765,
      "v": 127
    },
    {
      "midi": 55,
      "hit": false,
      "t": 334363.3020000055,
      "d": 545.454000000027,
      "v": 127
    },
    {
      "midi": 74,
      "hit": false,
      "t": 334636.02900000766,
      "d": 272.7270000000135,
      "v": 127
    },
    {
      "midi": 86,
      "hit": false,
      "t": 334908.7560000077,
      "d": 136.36349999997765,
      "v": 127
    },
    {
      "midi": 84,
      "hit": false,
      "t": 335045.11950000766,
      "d": 136.36349999997765,
      "v": 127
    },
    {
      "midi": 86,
      "hit": false,
      "t": 335181.48300000763,
      "d": 136.36349999997765,
      "v": 127
    },
    {
      "midi": 84,
      "hit": false,
      "t": 335317.8465000076,
      "d": 136.36349999997765,
      "v": 127
    },
    {
      "midi": 79,
      "hit": false,
      "t": 335454.21000000555,
      "d": 136.36349999997765,
      "v": 127
    },
    {
      "midi": 81,
      "hit": false,
      "t": 335454.2100000076,
      "d": 545.454000000027,
      "v": 127
    },
    {
      "midi": 78,
      "hit": false,
      "t": 335590.5735000055,
      "d": 136.36349999997765,
      "v": 127
    },
    {
      "midi": 79,
      "hit": false,
      "t": 335726.9370000055,
      "d": 136.36349999997765,
      "v": 127
    },
    {
      "midi": 78,
      "hit": false,
      "t": 335863.3005000055,
      "d": 136.36349999997765,
      "v": 127
    },
    {
      "midi": 84,
      "hit": false,
      "t": 335999.6640000076,
      "d": 136.36349999997765,
      "v": 127
    },
    {
      "midi": 83,
      "hit": false,
      "t": 336136.0275000076,
      "d": 136.36349999997765,
      "v": 127
    },
    {
      "midi": 84,
      "hit": false,
      "t": 336272.39100000757,
      "d": 136.36349999997765,
      "v": 127
    },
    {
      "midi": 83,
      "hit": false,
      "t": 336408.75450000755,
      "d": 136.36349999997765,
      "v": 127
    },
    {
      "midi": 75,
      "hit": false,
      "t": 336545.1180000055,
      "d": 136.36349999997765,
      "v": 127
    },
    {
      "midi": 79,
      "hit": false,
      "t": 336545.1180000075,
      "d": 545.454000000027,
      "v": 127
    },
    {
      "midi": 76,
      "hit": false,
      "t": 336681.48150000547,
      "d": 136.36349999997765,
      "v": 127
    },
    {
      "midi": 75,
      "hit": false,
      "t": 336817.84500000544,
      "d": 136.36349999997765,
      "v": 127
    },
    {
      "midi": 76,
      "hit": false,
      "t": 336954.2085000054,
      "d": 136.36349999997765,
      "v": 127
    },
    {
      "midi": 83,
      "hit": false,
      "t": 337090.57200000755,
      "d": 136.36349999997765,
      "v": 127
    },
    {
      "midi": 81,
      "hit": false,
      "t": 337226.93550000753,
      "d": 136.36349999997765,
      "v": 127
    },
    {
      "midi": 83,
      "hit": false,
      "t": 337363.2990000075,
      "d": 136.36349999997765,
      "v": 127
    },
    {
      "midi": 81,
      "hit": false,
      "t": 337499.6625000075,
      "d": 136.36349999997765,
      "v": 127
    },
    {
      "midi": 76,
      "hit": false,
      "t": 337636.0260000054,
      "d": 136.36349999997765,
      "v": 127
    },
    {
      "midi": 78,
      "hit": false,
      "t": 337636.02600000746,
      "d": 545.454000000027,
      "v": 127
    },
    {
      "midi": 75,
      "hit": false,
      "t": 337772.3895000054,
      "d": 136.36349999997765,
      "v": 127
    },
    {
      "midi": 76,
      "hit": false,
      "t": 337908.7530000054,
      "d": 136.36349999997765,
      "v": 127
    },
    {
      "midi": 75,
      "hit": false,
      "t": 338045.11650000536,
      "d": 136.36349999997765,
      "v": 127
    },
    {
      "midi": 81,
      "hit": false,
      "t": 338181.4800000075,
      "d": 136.36349999997765,
      "v": 127
    },
    {
      "midi": 79,
      "hit": false,
      "t": 338317.84350000747,
      "d": 136.36349999997765,
      "v": 127
    },
    {
      "midi": 81,
      "hit": false,
      "t": 338454.20700000745,
      "d": 136.36349999997765,
      "v": 127
    },
    {
      "midi": 79,
      "hit": false,
      "t": 338590.5705000074,
      "d": 136.36349999997765,
      "v": 127
    },
    {
      "midi": 71,
      "hit": false,
      "t": 338726.93400000536,
      "d": 136.36349999997765,
      "v": 127
    },
    {
      "midi": 76,
      "hit": false,
      "t": 338726.9340000074,
      "d": 545.454000000027,
      "v": 127
    },
    {
      "midi": 72,
      "hit": false,
      "t": 338863.29750000534,
      "d": 136.36349999997765,
      "v": 127
    },
    {
      "midi": 71,
      "hit": false,
      "t": 338999.6610000053,
      "d": 136.36349999997765,
      "v": 127
    },
    {
      "midi": 72,
      "hit": false,
      "t": 339136.0245000053,
      "d": 136.36349999997765,
      "v": 127
    },
    {
      "midi": 79,
      "hit": false,
      "t": 339272.3880000074,
      "d": 136.36349999997765,
      "v": 127
    },
    {
      "midi": 77,
      "hit": false,
      "t": 339408.7515000074,
      "d": 136.36349999997765,
      "v": 127
    },
    {
      "midi": 79,
      "hit": false,
      "t": 339545.1150000074,
      "d": 136.36349999997765,
      "v": 127
    },
    {
      "midi": 77,
      "hit": false,
      "t": 339681.47850000736,
      "d": 136.36349999997765,
      "v": 127
    },
    {
      "midi": 72,
      "hit": false,
      "t": 339817.8420000053,
      "d": 136.36349999997765,
      "v": 127
    },
    {
      "midi": 74,
      "hit": false,
      "t": 339817.84200000734,
      "d": 545.454000000027,
      "v": 127
    },
    {
      "midi": 71,
      "hit": false,
      "t": 339954.2055000053,
      "d": 136.36349999997765,
      "v": 127
    },
    {
      "midi": 72,
      "hit": false,
      "t": 340090.56900000526,
      "d": 136.36349999997765,
      "v": 127
    },
    {
      "midi": 71,
      "hit": false,
      "t": 340226.93250000523,
      "d": 136.36349999997765,
      "v": 127
    },
    {
      "midi": 68,
      "hit": false,
      "t": 340363.2960000052,
      "d": 545.454000000027,
      "v": 127
    },
    {
      "midi": 77,
      "hit": false,
      "t": 340363.29600000737,
      "d": 136.36349999997765,
      "v": 127
    },
    {
      "midi": 76,
      "hit": false,
      "t": 340499.65950000734,
      "d": 136.36349999997765,
      "v": 127
    },
    {
      "midi": 77,
      "hit": false,
      "t": 340636.0230000073,
      "d": 136.36349999997765,
      "v": 127
    },
    {
      "midi": 76,
      "hit": false,
      "t": 340772.3865000073,
      "d": 136.36349999997765,
      "v": 127
    },
    {
      "midi": 71,
      "hit": false,
      "t": 340908.75000000524,
      "d": 136.36349999997765,
      "v": 127
    },
    {
      "midi": 72,
      "hit": false,
      "t": 340908.7500000073,
      "d": 545.454000000027,
      "v": 127
    },
    {
      "midi": 69,
      "hit": false,
      "t": 341045.1135000052,
      "d": 136.36349999997765,
      "v": 127
    },
    {
      "midi": 71,
      "hit": false,
      "t": 341181.4770000052,
      "d": 136.36349999997765,
      "v": 127
    },
    {
      "midi": 69,
      "hit": false,
      "t": 341317.8405000052,
      "d": 136.36349999997765,
      "v": 127
    },
    {
      "midi": 66,
      "hit": false,
      "t": 341454.20400000515,
      "d": 545.454000000027,
      "v": 127
    },
    {
      "midi": 76,
      "hit": false,
      "t": 341454.2040000073,
      "d": 136.36349999997765,
      "v": 127
    },
    {
      "midi": 74,
      "hit": false,
      "t": 341590.5675000073,
      "d": 136.36349999997765,
      "v": 127
    },
    {
      "midi": 76,
      "hit": false,
      "t": 341726.93100000726,
      "d": 136.36349999997765,
      "v": 127
    },
    {
      "midi": 74,
      "hit": false,
      "t": 341863.29450000724,
      "d": 136.36349999997765,
      "v": 127
    },
    {
      "midi": 69,
      "hit": false,
      "t": 341999.6580000052,
      "d": 136.36349999997765,
      "v": 127
    },
    {
      "midi": 71,
      "hit": false,
      "t": 341999.6580000072,
      "d": 545.454000000027,
      "v": 127
    },
    {
      "midi": 67,
      "hit": false,
      "t": 342136.02150000515,
      "d": 136.36349999997765,
      "v": 127
    },
    {
      "midi": 69,
      "hit": false,
      "t": 342272.38500000513,
      "d": 136.36349999997765,
      "v": 127
    },
    {
      "midi": 67,
      "hit": false,
      "t": 342408.7485000051,
      "d": 136.36349999997765,
      "v": 127
    },
    {
      "midi": 64,
      "hit": false,
      "t": 342545.1120000051,
      "d": 545.454000000027,
      "v": 127
    },
    {
      "midi": 74,
      "hit": false,
      "t": 342545.11200000724,
      "d": 136.36349999997765,
      "v": 127
    },
    {
      "midi": 72,
      "hit": false,
      "t": 342681.4755000072,
      "d": 136.36349999997765,
      "v": 127
    },
    {
      "midi": 74,
      "hit": false,
      "t": 342817.8390000072,
      "d": 136.36349999997765,
      "v": 127
    },
    {
      "midi": 72,
      "hit": false,
      "t": 342954.2025000072,
      "d": 136.36349999997765,
      "v": 127
    },
    {
      "midi": 67,
      "hit": false,
      "t": 343090.5660000051,
      "d": 136.36349999997765,
      "v": 127
    },
    {
      "midi": 69,
      "hit": false,
      "t": 343090.56600000715,
      "d": 545.454000000027,
      "v": 127
    },
    {
      "midi": 66,
      "hit": false,
      "t": 343226.9295000051,
      "d": 136.36349999997765,
      "v": 127
    },
    {
      "midi": 67,
      "hit": false,
      "t": 343363.29300000507,
      "d": 136.36349999997765,
      "v": 127
    },
    {
      "midi": 66,
      "hit": false,
      "t": 343499.65650000505,
      "d": 136.36349999997765,
      "v": 127
    },
    {
      "midi": 63,
      "hit": false,
      "t": 343636.020000005,
      "d": 272.7270000000135,
      "v": 127
    },
    {
      "midi": 72,
      "hit": false,
      "t": 343636.0200000072,
      "d": 136.36349999997765,
      "v": 127
    },
    {
      "midi": 71,
      "hit": false,
      "t": 343772.38350000716,
      "d": 136.36349999997765,
      "v": 127
    },
    {
      "midi": 64,
      "hit": false,
      "t": 343908.74700000504,
      "d": 272.7270000000135,
      "v": 127
    },
    {
      "midi": 69,
      "hit": false,
      "t": 343908.74700000713,
      "d": 136.36349999997765,
      "v": 127
    },
    {
      "midi": 67,
      "hit": false,
      "t": 344045.1105000071,
      "d": 136.36349999997765,
      "v": 127
    },
    {
      "midi": 61,
      "hit": false,
      "t": 344181.47400000505,
      "d": 272.7270000000135,
      "v": 127
    },
    {
      "midi": 71,
      "hit": false,
      "t": 344181.4740000071,
      "d": 136.36349999997765,
      "v": 127
    },
    {
      "midi": 69,
      "hit": false,
      "t": 344317.83750000707,
      "d": 136.36349999997765,
      "v": 127
    },
    {
      "midi": 62,
      "hit": false,
      "t": 344454.20100000506,
      "d": 272.7270000000135,
      "v": 127
    },
    {
      "midi": 67,
      "hit": false,
      "t": 344454.20100000704,
      "d": 136.36349999997765,
      "v": 127
    },
    {
      "midi": 66,
      "hit": false,
      "t": 344590.564500007,
      "d": 136.36349999997765,
      "v": 127
    },
    {
      "midi": 59,
      "hit": false,
      "t": 344726.9280000051,
      "d": 272.7270000000135,
      "v": 127
    },
    {
      "midi": 69,
      "hit": false,
      "t": 344726.928000007,
      "d": 136.36349999997765,
      "v": 127
    },
    {
      "midi": 67,
      "hit": false,
      "t": 344863.291500007,
      "d": 136.36349999997765,
      "v": 127
    },
    {
      "midi": 60,
      "hit": false,
      "t": 344999.6550000051,
      "d": 272.7270000000135,
      "v": 127
    },
    {
      "midi": 66,
      "hit": false,
      "t": 344999.65500000695,
      "d": 136.36349999997765,
      "v": 127
    },
    {
      "midi": 64,
      "hit": false,
      "t": 345136.01850000693,
      "d": 136.36349999997765,
      "v": 127
    },
    {
      "midi": 57,
      "hit": false,
      "t": 345272.3820000051,
      "d": 272.7270000000135,
      "v": 127
    },
    {
      "midi": 67,
      "hit": false,
      "t": 345272.3820000069,
      "d": 136.36349999997765,
      "v": 127
    },
    {
      "midi": 66,
      "hit": false,
      "t": 345408.7455000069,
      "d": 136.36349999997765,
      "v": 127
    },
    {
      "midi": 59,
      "hit": false,
      "t": 345545.1090000051,
      "d": 272.7270000000135,
      "v": 127
    },
    {
      "midi": 64,
      "hit": false,
      "t": 345545.10900000687,
      "d": 136.36349999997765,
      "v": 127
    },
    {
      "midi": 62,
      "hit": false,
      "t": 345681.47250000684,
      "d": 136.36349999997765,
      "v": 127
    },
    {
      "midi": 55,
      "hit": false,
      "t": 345817.83600000513,
      "d": 272.7270000000135,
      "v": 127
    },
    {
      "midi": 66,
      "hit": false,
      "t": 345817.8360000068,
      "d": 136.36349999997765,
      "v": 127
    },
    {
      "midi": 64,
      "hit": false,
      "t": 345954.1995000068,
      "d": 136.36349999997765,
      "v": 127
    },
    {
      "midi": 57,
      "hit": false,
      "t": 346090.56300000515,
      "d": 272.7270000000135,
      "v": 127
    },
    {
      "midi": 62,
      "hit": false,
      "t": 346090.5630000068,
      "d": 136.36349999997765,
      "v": 127
    },
    {
      "midi": 60,
      "hit": false,
      "t": 346226.92650000675,
      "d": 136.36349999997765,
      "v": 127
    },
    {
      "midi": 54,
      "hit": false,
      "t": 346363.29000000516,
      "d": 272.7270000000135,
      "v": 127
    },
    {
      "midi": 64,
      "hit": false,
      "t": 346363.29000000673,
      "d": 136.36349999997765,
      "v": 127
    },
    {
      "midi": 62,
      "hit": false,
      "t": 346499.6535000067,
      "d": 136.36349999997765,
      "v": 127
    },
    {
      "midi": 55,
      "hit": false,
      "t": 346636.0170000052,
      "d": 272.7270000000135,
      "v": 127
    },
    {
      "midi": 60,
      "hit": false,
      "t": 346636.0170000067,
      "d": 136.36349999997765,
      "v": 127
    },
    {
      "midi": 59,
      "hit": false,
      "t": 346772.38050000666,
      "d": 136.36349999997765,
      "v": 127
    },
    {
      "midi": 52,
      "hit": false,
      "t": 346908.7440000052,
      "d": 272.7270000000135,
      "v": 127
    },
    {
      "midi": 62,
      "hit": false,
      "t": 346908.74400000664,
      "d": 136.36349999997765,
      "v": 127
    },
    {
      "midi": 60,
      "hit": false,
      "t": 347045.1075000066,
      "d": 136.36349999997765,
      "v": 127
    },
    {
      "midi": 54,
      "hit": false,
      "t": 347181.4710000052,
      "d": 272.7270000000135,
      "v": 127
    },
    {
      "midi": 59,
      "hit": false,
      "t": 347181.4710000066,
      "d": 136.36349999997765,
      "v": 127
    },
    {
      "midi": 57,
      "hit": false,
      "t": 347317.8345000066,
      "d": 136.36349999997765,
      "v": 127
    },
    {
      "midi": 51,
      "hit": false,
      "t": 347454.1980000052,
      "d": 272.7270000000135,
      "v": 127
    },
    {
      "midi": 60,
      "hit": false,
      "t": 347454.19800000655,
      "d": 136.36349999997765,
      "v": 127
    },
    {
      "midi": 59,
      "hit": false,
      "t": 347590.56150000653,
      "d": 136.36349999997765,
      "v": 127
    },
    {
      "midi": 52,
      "hit": false,
      "t": 347726.9250000052,
      "d": 272.7270000000135,
      "v": 127
    },
    {
      "midi": 57,
      "hit": false,
      "t": 347726.9250000065,
      "d": 136.36349999997765,
      "v": 127
    },
    {
      "midi": 55,
      "hit": false,
      "t": 347863.2885000065,
      "d": 136.36349999997765,
      "v": 127
    },
    {
      "midi": 51,
      "hit": false,
      "t": 347999.65200000524,
      "d": 136.36349999997765,
      "v": 127
    },
    {
      "midi": 63,
      "hit": false,
      "t": 348136.0155000052,
      "d": 136.36349999997765,
      "v": 127
    },
    {
      "midi": 54,
      "hit": false,
      "t": 348272.3790000052,
      "d": 136.36349999997765,
      "v": 127
    },
    {
      "midi": 63,
      "hit": false,
      "t": 348408.7425000052,
      "d": 136.36349999997765,
      "v": 127
    },
    {
      "midi": 60,
      "hit": false,
      "t": 348545.10600000515,
      "d": 136.36349999997765,
      "v": 127
    },
    {
      "midi": 63,
      "hit": false,
      "t": 348681.4695000051,
      "d": 136.36349999997765,
      "v": 127
    },
    {
      "midi": 51,
      "hit": false,
      "t": 348817.8330000051,
      "d": 136.36349999997765,
      "v": 127
    },
    {
      "midi": 63,
      "hit": false,
      "t": 348954.1965000051,
      "d": 136.36349999997765,
      "v": 127
    },
    {
      "midi": 52,
      "hit": false,
      "t": 349090.56000000506,
      "d": 136.36349999997765,
      "v": 127
    },
    {
      "midi": 64,
      "hit": false,
      "t": 349226.92350000504,
      "d": 136.36349999997765,
      "v": 127
    },
    {
      "midi": 55,
      "hit": false,
      "t": 349363.287000005,
      "d": 136.36349999997765,
      "v": 127
    },
    {
      "midi": 64,
      "hit": false,
      "t": 349499.650500005,
      "d": 136.36349999997765,
      "v": 127
    },
    {
      "midi": 61,
      "hit": false,
      "t": 349636.014000005,
      "d": 136.36349999997765,
      "v": 127
    },
    {
      "midi": 64,
      "hit": false,
      "t": 349772.37750000495,
      "d": 136.36349999997765,
      "v": 127
    },
    {
      "midi": 52,
      "hit": false,
      "t": 349908.7410000049,
      "d": 136.36349999997765,
      "v": 127
    },
    {
      "midi": 64,
      "hit": false,
      "t": 350045.1045000049,
      "d": 136.36349999997765,
      "v": 127
    },
    {
      "midi": 47,
      "hit": false,
      "t": 350181.4680000049,
      "d": 136.36349999997765,
      "v": 127
    },
    {
      "midi": 59,
      "hit": false,
      "t": 350317.83150000486,
      "d": 136.36349999997765,
      "v": 127
    },
    {
      "midi": 61,
      "hit": false,
      "t": 350454.19500000484,
      "d": 136.36349999997765,
      "v": 127
    },
    {
      "midi": 63,
      "hit": false,
      "t": 350590.5585000048,
      "d": 136.36349999997765,
      "v": 127
    },
    {
      "midi": 64,
      "hit": false,
      "t": 350726.9220000065,
      "d": 136.36349999997765,
      "v": 127
    },
    {
      "midi": 66,
      "hit": false,
      "t": 350863.28550000646,
      "d": 136.36349999997765,
      "v": 127
    },
    {
      "midi": 68,
      "hit": false,
      "t": 350999.64900000644,
      "d": 136.36349999997765,
      "v": 127
    },
    {
      "midi": 70,
      "hit": false,
      "t": 351136.0125000064,
      "d": 136.36349999997765,
      "v": 127
    },
    {
      "midi": 71,
      "hit": false,
      "t": 351272.3760000064,
      "d": 136.36349999997765,
      "v": 127
    },
    {
      "midi": 73,
      "hit": false,
      "t": 351408.73950000637,
      "d": 136.36349999997765,
      "v": 127
    },
    {
      "midi": 75,
      "hit": false,
      "t": 351545.10300000635,
      "d": 136.36349999997765,
      "v": 127
    },
    {
      "midi": 76,
      "hit": false,
      "t": 351681.4665000063,
      "d": 136.36349999997765,
      "v": 127
    },
    {
      "midi": 78,
      "hit": false,
      "t": 351817.8300000063,
      "d": 136.36349999997765,
      "v": 127
    },
    {
      "midi": 80,
      "hit": false,
      "t": 351954.1935000063,
      "d": 136.36349999997765,
      "v": 127
    },
    {
      "midi": 82,
      "hit": false,
      "t": 352090.55700000626,
      "d": 136.36349999997765,
      "v": 127
    },
    {
      "midi": 83,
      "hit": false,
      "t": 352226.92050000624,
      "d": 136.36349999997765,
      "v": 127
    },
    {
      "midi": 50,
      "hit": false,
      "t": 352363.2840000048,
      "d": 1090.9079999999958,
      "v": 127
    },
    {
      "midi": 53,
      "hit": false,
      "t": 352363.2840000048,
      "d": 1090.9079999999958,
      "v": 127
    },
    {
      "midi": 56,
      "hit": false,
      "t": 352363.2840000062,
      "d": 136.36349999997765,
      "v": 127
    },
    {
      "midi": 68,
      "hit": false,
      "t": 352499.6475000062,
      "d": 136.36349999997765,
      "v": 127
    },
    {
      "midi": 59,
      "hit": false,
      "t": 352636.01100000617,
      "d": 136.36349999997765,
      "v": 127
    },
    {
      "midi": 68,
      "hit": false,
      "t": 352772.37450000615,
      "d": 136.36349999997765,
      "v": 127
    },
    {
      "midi": 65,
      "hit": false,
      "t": 352908.7380000061,
      "d": 136.36349999997765,
      "v": 127
    },
    {
      "midi": 68,
      "hit": false,
      "t": 353045.1015000061,
      "d": 136.36349999997765,
      "v": 127
    },
    {
      "midi": 56,
      "hit": false,
      "t": 353181.4650000061,
      "d": 136.36349999997765,
      "v": 127
    },
    {
      "midi": 68,
      "hit": false,
      "t": 353317.82850000606,
      "d": 136.36349999997765,
      "v": 127
    },
    {
      "midi": 51,
      "hit": false,
      "t": 353454.1920000048,
      "d": 1090.9079999999958,
      "v": 127
    },
    {
      "midi": 54,
      "hit": false,
      "t": 353454.1920000048,
      "d": 1090.9079999999958,
      "v": 127
    },
    {
      "midi": 57,
      "hit": false,
      "t": 353454.19200000603,
      "d": 136.36349999997765,
      "v": 127
    },
    {
      "midi": 69,
      "hit": false,
      "t": 353590.555500006,
      "d": 136.36349999997765,
      "v": 127
    },
    {
      "midi": 60,
      "hit": false,
      "t": 353726.919000006,
      "d": 136.36349999997765,
      "v": 127
    },
    {
      "midi": 69,
      "hit": false,
      "t": 353863.28250000597,
      "d": 136.36349999997765,
      "v": 127
    },
    {
      "midi": 66,
      "hit": false,
      "t": 353999.64600000595,
      "d": 136.36349999997765,
      "v": 127
    },
    {
      "midi": 69,
      "hit": false,
      "t": 354136.0095000059,
      "d": 136.36349999997765,
      "v": 127
    },
    {
      "midi": 57,
      "hit": false,
      "t": 354272.3730000059,
      "d": 136.36349999997765,
      "v": 127
    },
    {
      "midi": 69,
      "hit": false,
      "t": 354408.7365000059,
      "d": 136.36349999997765,
      "v": 127
    },
    {
      "midi": 52,
      "hit": false,
      "t": 354545.1000000048,
      "d": 545.454000000027,
      "v": 127
    },
    {
      "midi": 56,
      "hit": false,
      "t": 354545.1000000048,
      "d": 545.454000000027,
      "v": 127
    },
    {
      "midi": 64,
      "hit": false,
      "t": 354681.46350000583,
      "d": 136.36349999997765,
      "v": 127
    },
    {
      "midi": 66,
      "hit": false,
      "t": 354817.8270000058,
      "d": 136.36349999997765,
      "v": 127
    },
    {
      "midi": 68,
      "hit": false,
      "t": 354954.1905000058,
      "d": 136.36349999997765,
      "v": 127
    },
    {
      "midi": 69,
      "hit": false,
      "t": 355090.55400000577,
      "d": 136.36349999997765,
      "v": 127
    },
    {
      "midi": 71,
      "hit": false,
      "t": 355226.91750000574,
      "d": 136.36349999997765,
      "v": 127
    },
    {
      "midi": 73,
      "hit": false,
      "t": 355363.2810000057,
      "d": 136.36349999997765,
      "v": 127
    },
    {
      "midi": 75,
      "hit": false,
      "t": 355499.6445000057,
      "d": 136.36349999997765,
      "v": 127
    },
    {
      "midi": 76,
      "hit": false,
      "t": 355636.0080000057,
      "d": 136.36349999997765,
      "v": 127
    },
    {
      "midi": 78,
      "hit": false,
      "t": 355772.37150000565,
      "d": 136.36349999997765,
      "v": 127
    },
    {
      "midi": 80,
      "hit": false,
      "t": 355908.73500000563,
      "d": 136.36349999997765,
      "v": 127
    },
    {
      "midi": 81,
      "hit": false,
      "t": 356045.0985000056,
      "d": 136.36349999997765,
      "v": 127
    },
    {
      "midi": 83,
      "hit": false,
      "t": 356181.4620000056,
      "d": 136.36349999997765,
      "v": 127
    },
    {
      "midi": 85,
      "hit": false,
      "t": 356317.82550000557,
      "d": 136.36349999997765,
      "v": 127
    },
    {
      "midi": 87,
      "hit": false,
      "t": 356454.18900000554,
      "d": 136.36349999997765,
      "v": 127
    },
    {
      "midi": 88,
      "hit": false,
      "t": 356590.5525000055,
      "d": 136.36349999997765,
      "v": 127
    },
    {
      "midi": 55,
      "hit": false,
      "t": 356726.91600000486,
      "d": 1090.9079999999958,
      "v": 127
    },
    {
      "midi": 58,
      "hit": false,
      "t": 356726.91600000486,
      "d": 1090.9079999999958,
      "v": 127
    },
    {
      "midi": 61,
      "hit": false,
      "t": 356726.9160000055,
      "d": 136.36349999997765,
      "v": 127
    },
    {
      "midi": 73,
      "hit": false,
      "t": 356863.2795000055,
      "d": 136.36349999997765,
      "v": 127
    },
    {
      "midi": 64,
      "hit": false,
      "t": 356999.64300000545,
      "d": 136.36349999997765,
      "v": 127
    },
    {
      "midi": 73,
      "hit": false,
      "t": 357136.00650000543,
      "d": 136.36349999997765,
      "v": 127
    },
    {
      "midi": 70,
      "hit": false,
      "t": 357272.3700000054,
      "d": 136.36349999997765,
      "v": 127
    },
    {
      "midi": 73,
      "hit": false,
      "t": 357408.7335000054,
      "d": 136.36349999997765,
      "v": 127
    },
    {
      "midi": 61,
      "hit": false,
      "t": 357545.09700000536,
      "d": 136.36349999997765,
      "v": 127
    },
    {
      "midi": 73,
      "hit": false,
      "t": 357681.46050000534,
      "d": 136.36349999997765,
      "v": 127
    },
    {
      "midi": 56,
      "hit": false,
      "t": 357817.82400000485,
      "d": 2181.8159999999916,
      "v": 127
    },
    {
      "midi": 59,
      "hit": false,
      "t": 357817.82400000485,
      "d": 2181.8159999999916,
      "v": 127
    },
    {
      "midi": 62,
      "hit": false,
      "t": 357817.8240000053,
      "d": 136.36349999997765,
      "v": 127
    },
    {
      "midi": 74,
      "hit": false,
      "t": 357954.1875000053,
      "d": 136.36349999997765,
      "v": 127
    },
    {
      "midi": 65,
      "hit": false,
      "t": 358090.5510000053,
      "d": 136.36349999997765,
      "v": 127
    },
    {
      "midi": 74,
      "hit": false,
      "t": 358226.91450000525,
      "d": 136.36349999997765,
      "v": 127
    },
    {
      "midi": 71,
      "hit": false,
      "t": 358363.27800000523,
      "d": 136.36349999997765,
      "v": 127
    },
    {
      "midi": 74,
      "hit": false,
      "t": 358499.6415000052,
      "d": 136.36349999997765,
      "v": 127
    },
    {
      "midi": 62,
      "hit": false,
      "t": 358636.0050000052,
      "d": 136.36349999997765,
      "v": 127
    },
    {
      "midi": 74,
      "hit": false,
      "t": 358772.36850000516,
      "d": 136.36349999997765,
      "v": 127
    },
    {
      "midi": 62,
      "hit": false,
      "t": 358908.73200000514,
      "d": 136.36349999997765,
      "v": 127
    },
    {
      "midi": 74,
      "hit": false,
      "t": 359045.0955000051,
      "d": 136.36349999997765,
      "v": 127
    },
    {
      "midi": 65,
      "hit": false,
      "t": 359181.4590000051,
      "d": 136.36349999997765,
      "v": 127
    },
    {
      "midi": 74,
      "hit": false,
      "t": 359317.8225000051,
      "d": 136.36349999997765,
      "v": 127
    },
    {
      "midi": 71,
      "hit": false,
      "t": 359454.18600000505,
      "d": 136.36349999997765,
      "v": 127
    },
    {
      "midi": 74,
      "hit": false,
      "t": 359590.549500005,
      "d": 136.36349999997765,
      "v": 127
    },
    {
      "midi": 62,
      "hit": false,
      "t": 359726.913000005,
      "d": 136.36349999997765,
      "v": 127
    },
    {
      "midi": 74,
      "hit": false,
      "t": 359863.276500005,
      "d": 136.36349999997765,
      "v": 127
    },
    {
      "midi": 48,
      "hit": false,
      "t": 359999.64000000485,
      "d": 1090.9079999999958,
      "v": 127
    },
    {
      "midi": 60,
      "hit": false,
      "t": 359999.64000000485,
      "d": 1090.9079999999958,
      "v": 127
    },
    {
      "midi": 63,
      "hit": false,
      "t": 359999.64000000496,
      "d": 136.36349999997765,
      "v": 127
    },
    {
      "midi": 75,
      "hit": false,
      "t": 360136.00350000494,
      "d": 136.36349999997765,
      "v": 127
    },
    {
      "midi": 67,
      "hit": false,
      "t": 360272.3670000049,
      "d": 136.36349999997765,
      "v": 127
    },
    {
      "midi": 75,
      "hit": false,
      "t": 360408.7305000049,
      "d": 136.36349999997765,
      "v": 127
    },
    {
      "midi": 72,
      "hit": false,
      "t": 360545.0940000049,
      "d": 136.36349999997765,
      "v": 127
    },
    {
      "midi": 75,
      "hit": false,
      "t": 360681.45750000485,
      "d": 136.36349999997765,
      "v": 127
    },
    {
      "midi": 63,
      "hit": false,
      "t": 360817.8210000048,
      "d": 136.36349999997765,
      "v": 127
    },
    {
      "midi": 75,
      "hit": false,
      "t": 360954.1845000048,
      "d": 136.36349999997765,
      "v": 127
    },
    {
      "midi": 60,
      "hit": false,
      "t": 361090.5480000048,
      "d": 136.36349999997765,
      "v": 127
    },
    {
      "midi": 53,
      "hit": false,
      "t": 361090.54800000484,
      "d": 1090.9079999999958,
      "v": 127
    },
    {
      "midi": 57,
      "hit": false,
      "t": 361090.54800000484,
      "d": 1090.9079999999958,
      "v": 127
    },
    {
      "midi": 72,
      "hit": false,
      "t": 361226.91150000476,
      "d": 136.36349999997765,
      "v": 127
    },
    {
      "midi": 63,
      "hit": false,
      "t": 361363.27500000474,
      "d": 136.36349999997765,
      "v": 127
    },
    {
      "midi": 72,
      "hit": false,
      "t": 361499.6385000047,
      "d": 136.36349999997765,
      "v": 127
    },
    {
      "midi": 69,
      "hit": false,
      "t": 361636.0020000047,
      "d": 136.36349999997765,
      "v": 127
    },
    {
      "midi": 72,
      "hit": false,
      "t": 361772.3655000047,
      "d": 136.36349999997765,
      "v": 127
    },
    {
      "midi": 60,
      "hit": false,
      "t": 361908.72900000465,
      "d": 136.36349999997765,
      "v": 127
    },
    {
      "midi": 72,
      "hit": false,
      "t": 362045.0925000046,
      "d": 136.36349999997765,
      "v": 127
    },
    {
      "midi": 60,
      "hit": false,
      "t": 362181.4560000046,
      "d": 136.36349999997765,
      "v": 127
    },
    {
      "midi": 54,
      "hit": false,
      "t": 362181.45600000484,
      "d": 1090.9079999999958,
      "v": 127
    },
    {
      "midi": 57,
      "hit": false,
      "t": 362181.45600000484,
      "d": 1090.9079999999958,
      "v": 127
    },
    {
      "midi": 72,
      "hit": false,
      "t": 362317.8195000046,
      "d": 136.36349999997765,
      "v": 127
    },
    {
      "midi": 63,
      "hit": false,
      "t": 362454.18300000456,
      "d": 136.36349999997765,
      "v": 127
    },
    {
      "midi": 72,
      "hit": false,
      "t": 362590.54650000454,
      "d": 136.36349999997765,
      "v": 127
    },
    {
      "midi": 69,
      "hit": false,
      "t": 362726.9100000045,
      "d": 136.36349999997765,
      "v": 127
    },
    {
      "midi": 72,
      "hit": false,
      "t": 362863.2735000045,
      "d": 136.36349999997765,
      "v": 127
    },
    {
      "midi": 60,
      "hit": false,
      "t": 362999.63700000447,
      "d": 136.36349999997765,
      "v": 127
    },
    {
      "midi": 72,
      "hit": false,
      "t": 363136.00050000445,
      "d": 136.36349999997765,
      "v": 127
    },
    {
      "midi": 60,
      "hit": false,
      "t": 363272.3640000044,
      "d": 136.36349999997765,
      "v": 127
    },
    {
      "midi": 53,
      "hit": false,
      "t": 363272.36400000483,
      "d": 1090.9079999999958,
      "v": 127
    },
    {
      "midi": 57,
      "hit": false,
      "t": 363272.36400000483,
      "d": 1090.9079999999958,
      "v": 127
    },
    {
      "midi": 72,
      "hit": false,
      "t": 363408.7275000044,
      "d": 136.36349999997765,
      "v": 127
    },
    {
      "midi": 63,
      "hit": false,
      "t": 363545.0910000044,
      "d": 136.36349999997765,
      "v": 127
    },
    {
      "midi": 72,
      "hit": false,
      "t": 363681.45450000436,
      "d": 136.36349999997765,
      "v": 127
    },
    {
      "midi": 69,
      "hit": false,
      "t": 363817.81800000434,
      "d": 136.36349999997765,
      "v": 127
    },
    {
      "midi": 72,
      "hit": false,
      "t": 363954.1815000043,
      "d": 136.36349999997765,
      "v": 127
    },
    {
      "midi": 60,
      "hit": false,
      "t": 364090.5450000043,
      "d": 136.36349999997765,
      "v": 127
    },
    {
      "midi": 72,
      "hit": false,
      "t": 364226.90850000427,
      "d": 136.36349999997765,
      "v": 127
    },
    {
      "midi": 61,
      "hit": false,
      "t": 364363.27200000425,
      "d": 136.36349999997765,
      "v": 127
    },
    {
      "midi": 46,
      "hit": false,
      "t": 364363.2720000048,
      "d": 1090.9079999999958,
      "v": 127
    },
    {
      "midi": 58,
      "hit": false,
      "t": 364363.2720000048,
      "d": 1090.9079999999958,
      "v": 127
    },
    {
      "midi": 73,
      "hit": false,
      "t": 364499.6355000042,
      "d": 136.36349999997765,
      "v": 127
    },
    {
      "midi": 65,
      "hit": false,
      "t": 364635.9990000042,
      "d": 136.36349999997765,
      "v": 127
    },
    {
      "midi": 73,
      "hit": false,
      "t": 364772.3625000042,
      "d": 136.36349999997765,
      "v": 127
    },
    {
      "midi": 70,
      "hit": false,
      "t": 364908.72600000416,
      "d": 136.36349999997765,
      "v": 127
    },
    {
      "midi": 73,
      "hit": false,
      "t": 365045.08950000413,
      "d": 136.36349999997765,
      "v": 127
    },
    {
      "midi": 61,
      "hit": false,
      "t": 365181.4530000041,
      "d": 136.36349999997765,
      "v": 127
    },
    {
      "midi": 73,
      "hit": false,
      "t": 365317.8165000041,
      "d": 136.36349999997765,
      "v": 127
    },
    {
      "midi": 58,
      "hit": false,
      "t": 365454.18000000407,
      "d": 136.36349999997765,
      "v": 127
    },
    {
      "midi": 51,
      "hit": false,
      "t": 365454.1800000048,
      "d": 1090.9079999999958,
      "v": 127
    },
    {
      "midi": 55,
      "hit": false,
      "t": 365454.1800000048,
      "d": 1090.9079999999958,
      "v": 127
    },
    {
      "midi": 70,
      "hit": false,
      "t": 365590.54350000405,
      "d": 136.36349999997765,
      "v": 127
    },
    {
      "midi": 61,
      "hit": false,
      "t": 365726.907000004,
      "d": 136.36349999997765,
      "v": 127
    },
    {
      "midi": 70,
      "hit": false,
      "t": 365863.270500004,
      "d": 136.36349999997765,
      "v": 127
    },
    {
      "midi": 67,
      "hit": false,
      "t": 365999.634000004,
      "d": 136.36349999997765,
      "v": 127
    },
    {
      "midi": 70,
      "hit": false,
      "t": 366135.99750000396,
      "d": 136.36349999997765,
      "v": 127
    },
    {
      "midi": 58,
      "hit": false,
      "t": 366272.36100000393,
      "d": 136.36349999997765,
      "v": 127
    },
    {
      "midi": 70,
      "hit": false,
      "t": 366408.7245000039,
      "d": 136.36349999997765,
      "v": 127
    },
    {
      "midi": 58,
      "hit": false,
      "t": 366545.0880000039,
      "d": 136.36349999997765,
      "v": 127
    },
    {
      "midi": 52,
      "hit": false,
      "t": 366545.0880000048,
      "d": 1090.9079999999958,
      "v": 127
    },
    {
      "midi": 55,
      "hit": false,
      "t": 366545.0880000048,
      "d": 1090.9079999999958,
      "v": 127
    },
    {
      "midi": 70,
      "hit": false,
      "t": 366681.45150000387,
      "d": 136.36349999997765,
      "v": 127
    },
    {
      "midi": 61,
      "hit": false,
      "t": 366817.81500000384,
      "d": 136.36349999997765,
      "v": 127
    },
    {
      "midi": 70,
      "hit": false,
      "t": 366954.1785000038,
      "d": 136.36349999997765,
      "v": 127
    },
    {
      "midi": 67,
      "hit": false,
      "t": 367090.5420000038,
      "d": 136.36349999997765,
      "v": 127
    },
    {
      "midi": 70,
      "hit": false,
      "t": 367226.9055000038,
      "d": 136.36349999997765,
      "v": 127
    },
    {
      "midi": 58,
      "hit": false,
      "t": 367363.26900000375,
      "d": 136.36349999997765,
      "v": 127
    },
    {
      "midi": 70,
      "hit": false,
      "t": 367499.63250000373,
      "d": 136.36349999997765,
      "v": 127
    },
    {
      "midi": 51,
      "hit": false,
      "t": 367635.9960000048,
      "d": 545.454000000027,
      "v": 127
    },
    {
      "midi": 55,
      "hit": false,
      "t": 367635.9960000048,
      "d": 545.454000000027,
      "v": 127
    },
    {
      "midi": 58,
      "hit": false,
      "t": 367772.3595000037,
      "d": 136.36349999997765,
      "v": 127
    },
    {
      "midi": 60,
      "hit": false,
      "t": 367908.72300000367,
      "d": 136.36349999997765,
      "v": 127
    },
    {
      "midi": 61,
      "hit": false,
      "t": 368045.08650000364,
      "d": 136.36349999997765,
      "v": 127
    },
    {
      "midi": 63,
      "hit": false,
      "t": 368181.4500000036,
      "d": 136.36349999997765,
      "v": 127
    },
    {
      "midi": 65,
      "hit": false,
      "t": 368317.8135000036,
      "d": 136.36349999997765,
      "v": 127
    },
    {
      "midi": 67,
      "hit": false,
      "t": 368454.1770000036,
      "d": 136.36349999997765,
      "v": 127
    },
    {
      "midi": 68,
      "hit": false,
      "t": 368590.54050000355,
      "d": 136.36349999997765,
      "v": 127
    },
    {
      "midi": 70,
      "hit": false,
      "t": 368726.90400000353,
      "d": 136.36349999997765,
      "v": 127
    },
    {
      "midi": 72,
      "hit": false,
      "t": 368863.2675000035,
      "d": 136.36349999997765,
      "v": 127
    },
    {
      "midi": 73,
      "hit": false,
      "t": 368999.6310000035,
      "d": 136.36349999997765,
      "v": 127
    },
    {
      "midi": 75,
      "hit": false,
      "t": 369135.99450000346,
      "d": 136.36349999997765,
      "v": 127
    },
    {
      "midi": 77,
      "hit": false,
      "t": 369272.35800000344,
      "d": 136.36349999997765,
      "v": 127
    },
    {
      "midi": 79,
      "hit": false,
      "t": 369408.7215000034,
      "d": 136.36349999997765,
      "v": 127
    },
    {
      "midi": 80,
      "hit": false,
      "t": 369545.0850000034,
      "d": 136.36349999997765,
      "v": 127
    },
    {
      "midi": 82,
      "hit": false,
      "t": 369681.4485000034,
      "d": 136.36349999997765,
      "v": 127
    },
    {
      "midi": 84,
      "hit": false,
      "t": 369817.81200000335,
      "d": 545.454000000027,
      "v": 127
    },
    {
      "midi": 32,
      "hit": false,
      "t": 369817.81200000487,
      "d": 136.36349999997765,
      "v": 127
    },
    {
      "midi": 36,
      "hit": false,
      "t": 369954.17550000484,
      "d": 136.36349999997765,
      "v": 127
    },
    {
      "midi": 39,
      "hit": false,
      "t": 370090.5390000048,
      "d": 136.36349999997765,
      "v": 127
    },
    {
      "midi": 44,
      "hit": false,
      "t": 370226.9025000048,
      "d": 136.36349999997765,
      "v": 127
    },
    {
      "midi": 80,
      "hit": false,
      "t": 370363.2660000034,
      "d": 272.7270000000135,
      "v": 127
    },
    {
      "midi": 36,
      "hit": false,
      "t": 370363.2660000048,
      "d": 136.36349999997765,
      "v": 127
    },
    {
      "midi": 39,
      "hit": false,
      "t": 370499.62950000475,
      "d": 136.36349999997765,
      "v": 127
    },
    {
      "midi": 80,
      "hit": false,
      "t": 370635.9930000034,
      "d": 272.7270000000135,
      "v": 127
    },
    {
      "midi": 44,
      "hit": false,
      "t": 370635.99300000473,
      "d": 136.36349999997765,
      "v": 127
    },
    {
      "midi": 48,
      "hit": false,
      "t": 370772.3565000047,
      "d": 136.36349999997765,
      "v": 127
    },
    {
      "midi": 75,
      "hit": false,
      "t": 370908.7200000034,
      "d": 272.7270000000135,
      "v": 127
    },
    {
      "midi": 39,
      "hit": false,
      "t": 370908.7200000047,
      "d": 136.36349999997765,
      "v": 127
    },
    {
      "midi": 44,
      "hit": false,
      "t": 371045.08350000466,
      "d": 136.36349999997765,
      "v": 127
    },
    {
      "midi": 75,
      "hit": false,
      "t": 371181.4470000034,
      "d": 272.7270000000135,
      "v": 127
    },
    {
      "midi": 48,
      "hit": false,
      "t": 371181.44700000464,
      "d": 136.36349999997765,
      "v": 127
    },
    {
      "midi": 51,
      "hit": false,
      "t": 371317.8105000046,
      "d": 136.36349999997765,
      "v": 127
    },
    {
      "midi": 72,
      "hit": false,
      "t": 371454.17400000343,
      "d": 545.454000000027,
      "v": 127
    },
    {
      "midi": 44,
      "hit": false,
      "t": 371454.1740000046,
      "d": 136.36349999997765,
      "v": 127
    },
    {
      "midi": 48,
      "hit": false,
      "t": 371590.5375000046,
      "d": 136.36349999997765,
      "v": 127
    },
    {
      "midi": 51,
      "hit": false,
      "t": 371726.90100000455,
      "d": 136.36349999997765,
      "v": 127
    },
    {
      "midi": 56,
      "hit": false,
      "t": 371863.26450000453,
      "d": 136.36349999997765,
      "v": 127
    },
    {
      "midi": 58,
      "hit": false,
      "t": 371999.62800000346,
      "d": 136.36349999997765,
      "v": 127
    },
    {
      "midi": 55,
      "hit": false,
      "t": 371999.6280000045,
      "d": 545.454000000027,
      "v": 127
    },
    {
      "midi": 60,
      "hit": false,
      "t": 372135.99150000344,
      "d": 136.36349999997765,
      "v": 127
    },
    {
      "midi": 64,
      "hit": false,
      "t": 372272.3550000034,
      "d": 136.36349999997765,
      "v": 127
    },
    {
      "midi": 70,
      "hit": false,
      "t": 372408.7185000034,
      "d": 136.36349999997765,
      "v": 127
    },
    {
      "midi": 60,
      "hit": false,
      "t": 372545.0820000034,
      "d": 136.36349999997765,
      "v": 127
    },
    {
      "midi": 52,
      "hit": false,
      "t": 372545.08200000454,
      "d": 272.7270000000135,
      "v": 127
    },
    {
      "midi": 64,
      "hit": false,
      "t": 372681.44550000335,
      "d": 136.36349999997765,
      "v": 127
    },
    {
      "midi": 70,
      "hit": false,
      "t": 372817.8090000033,
      "d": 136.36349999997765,
      "v": 127
    },
    {
      "midi": 52,
      "hit": false,
      "t": 372817.80900000455,
      "d": 272.7270000000135,
      "v": 127
    },
    {
      "midi": 72,
      "hit": false,
      "t": 372954.1725000033,
      "d": 136.36349999997765,
      "v": 127
    },
    {
      "midi": 64,
      "hit": false,
      "t": 373090.5360000033,
      "d": 136.36349999997765,
      "v": 127
    },
    {
      "midi": 48,
      "hit": false,
      "t": 373090.53600000456,
      "d": 272.7270000000135,
      "v": 127
    },
    {
      "midi": 70,
      "hit": false,
      "t": 373226.89950000326,
      "d": 136.36349999997765,
      "v": 127
    },
    {
      "midi": 72,
      "hit": false,
      "t": 373363.26300000324,
      "d": 136.36349999997765,
      "v": 127
    },
    {
      "midi": 48,
      "hit": false,
      "t": 373363.2630000046,
      "d": 272.7270000000135,
      "v": 127
    },
    {
      "midi": 76,
      "hit": false,
      "t": 373499.6265000032,
      "d": 136.36349999997765,
      "v": 127
    },
    {
      "midi": 70,
      "hit": false,
      "t": 373635.9900000032,
      "d": 136.36349999997765,
      "v": 127
    },
    {
      "midi": 43,
      "hit": false,
      "t": 373635.9900000046,
      "d": 545.454000000027,
      "v": 127
    },
    {
      "midi": 72,
      "hit": false,
      "t": 373772.35350000317,
      "d": 136.36349999997765,
      "v": 127
    },
    {
      "midi": 76,
      "hit": false,
      "t": 373908.71700000315,
      "d": 136.36349999997765,
      "v": 127
    },
    {
      "midi": 82,
      "hit": false,
      "t": 374045.0805000031,
      "d": 136.36349999997765,
      "v": 127
    },
    {
      "midi": 80,
      "hit": false,
      "t": 374181.4440000031,
      "d": 545.454000000027,
      "v": 127
    },
    {
      "midi": 29,
      "hit": false,
      "t": 374181.4440000046,
      "d": 136.36349999997765,
      "v": 127
    },
    {
      "midi": 32,
      "hit": false,
      "t": 374317.8075000046,
      "d": 136.36349999997765,
      "v": 127
    },
    {
      "midi": 36,
      "hit": false,
      "t": 374454.1710000046,
      "d": 136.36349999997765,
      "v": 127
    },
    {
      "midi": 41,
      "hit": false,
      "t": 374590.53450000455,
      "d": 136.36349999997765,
      "v": 127
    },
    {
      "midi": 77,
      "hit": false,
      "t": 374726.89800000313,
      "d": 272.7270000000135,
      "v": 127
    },
    {
      "midi": 32,
      "hit": false,
      "t": 374726.8980000045,
      "d": 136.36349999997765,
      "v": 127
    },
    {
      "midi": 36,
      "hit": false,
      "t": 374863.2615000045,
      "d": 136.36349999997765,
      "v": 127
    },
    {
      "midi": 77,
      "hit": false,
      "t": 374999.62500000314,
      "d": 272.7270000000135,
      "v": 127
    },
    {
      "midi": 41,
      "hit": false,
      "t": 374999.6250000045,
      "d": 136.36349999997765,
      "v": 127
    },
    {
      "midi": 44,
      "hit": false,
      "t": 375135.98850000446,
      "d": 136.36349999997765,
      "v": 127
    },
    {
      "midi": 72,
      "hit": false,
      "t": 375272.35200000316,
      "d": 272.7270000000135,
      "v": 127
    },
    {
      "midi": 36,
      "hit": false,
      "t": 375272.35200000444,
      "d": 136.36349999997765,
      "v": 127
    },
    {
      "midi": 41,
      "hit": false,
      "t": 375408.7155000044,
      "d": 136.36349999997765,
      "v": 127
    },
    {
      "midi": 72,
      "hit": false,
      "t": 375545.07900000317,
      "d": 272.7270000000135,
      "v": 127
    },
    {
      "midi": 44,
      "hit": false,
      "t": 375545.0790000044,
      "d": 136.36349999997765,
      "v": 127
    },
    {
      "midi": 48,
      "hit": false,
      "t": 375681.44250000437,
      "d": 136.36349999997765,
      "v": 127
    },
    {
      "midi": 68,
      "hit": false,
      "t": 375817.8060000032,
      "d": 545.454000000027,
      "v": 127
    },
    {
      "midi": 41,
      "hit": false,
      "t": 375817.80600000435,
      "d": 136.36349999997765,
      "v": 127
    },
    {
      "midi": 44,
      "hit": false,
      "t": 375954.1695000043,
      "d": 136.36349999997765,
      "v": 127
    },
    {
      "midi": 48,
      "hit": false,
      "t": 376090.5330000043,
      "d": 136.36349999997765,
      "v": 127
    },
    {
      "midi": 53,
      "hit": false,
      "t": 376226.8965000043,
      "d": 136.36349999997765,
      "v": 127
    },
    {
      "midi": 55,
      "hit": false,
      "t": 376363.2600000032,
      "d": 136.36349999997765,
      "v": 127
    },
    {
      "midi": 51,
      "hit": false,
      "t": 376363.26000000426,
      "d": 545.454000000027,
      "v": 127
    },
    {
      "midi": 60,
      "hit": false,
      "t": 376499.6235000032,
      "d": 136.36349999997765,
      "v": 127
    },
    {
      "midi": 63,
      "hit": false,
      "t": 376635.98700000317,
      "d": 136.36349999997765,
      "v": 127
    },
    {
      "midi": 67,
      "hit": false,
      "t": 376772.35050000314,
      "d": 136.36349999997765,
      "v": 127
    },
    {
      "midi": 60,
      "hit": false,
      "t": 376908.7140000031,
      "d": 136.36349999997765,
      "v": 127
    },
    {
      "midi": 48,
      "hit": false,
      "t": 376908.7140000043,
      "d": 272.7270000000135,
      "v": 127
    },
    {
      "midi": 63,
      "hit": false,
      "t": 377045.0775000031,
      "d": 136.36349999997765,
      "v": 127
    },
    {
      "midi": 67,
      "hit": false,
      "t": 377181.4410000031,
      "d": 136.36349999997765,
      "v": 127
    },
    {
      "midi": 48,
      "hit": false,
      "t": 377181.4410000043,
      "d": 272.7270000000135,
      "v": 127
    },
    {
      "midi": 72,
      "hit": false,
      "t": 377317.80450000305,
      "d": 136.36349999997765,
      "v": 127
    },
    {
      "midi": 63,
      "hit": false,
      "t": 377454.16800000303,
      "d": 136.36349999997765,
      "v": 127
    },
    {
      "midi": 43,
      "hit": false,
      "t": 377454.1680000043,
      "d": 272.7270000000135,
      "v": 127
    },
    {
      "midi": 67,
      "hit": false,
      "t": 377590.531500003,
      "d": 136.36349999997765,
      "v": 127
    },
    {
      "midi": 72,
      "hit": false,
      "t": 377726.895000003,
      "d": 136.36349999997765,
      "v": 127
    },
    {
      "midi": 43,
      "hit": false,
      "t": 377726.8950000043,
      "d": 272.7270000000135,
      "v": 127
    },
    {
      "midi": 75,
      "hit": false,
      "t": 377863.25850000296,
      "d": 136.36349999997765,
      "v": 127
    },
    {
      "midi": 67,
      "hit": false,
      "t": 377999.62200000294,
      "d": 136.36349999997765,
      "v": 127
    },
    {
      "midi": 39,
      "hit": false,
      "t": 377999.62200000434,
      "d": 545.454000000027,
      "v": 127
    },
    {
      "midi": 72,
      "hit": false,
      "t": 378135.9855000029,
      "d": 136.36349999997765,
      "v": 127
    },
    {
      "midi": 75,
      "hit": false,
      "t": 378272.3490000029,
      "d": 136.36349999997765,
      "v": 127
    },
    {
      "midi": 79,
      "hit": false,
      "t": 378408.7125000029,
      "d": 136.36349999997765,
      "v": 127
    },
    {
      "midi": 38,
      "hit": false,
      "t": 378545.07600000437,
      "d": 545.454000000027,
      "v": 127
    },
    {
      "midi": 84,
      "hit": false,
      "t": 378681.43950000283,
      "d": 136.36349999997765,
      "v": 127
    },
    {
      "midi": 81,
      "hit": false,
      "t": 378817.8030000028,
      "d": 136.36349999997765,
      "v": 127
    },
    {
      "midi": 78,
      "hit": false,
      "t": 378954.1665000028,
      "d": 136.36349999997765,
      "v": 127
    },
    {
      "midi": 72,
      "hit": false,
      "t": 379090.53000000276,
      "d": 136.36349999997765,
      "v": 127
    },
    {
      "midi": 42,
      "hit": false,
      "t": 379090.5300000044,
      "d": 272.7270000000135,
      "v": 127
    },
    {
      "midi": 78,
      "hit": false,
      "t": 379226.89350000274,
      "d": 136.36349999997765,
      "v": 127
    },
    {
      "midi": 72,
      "hit": false,
      "t": 379363.2570000027,
      "d": 136.36349999997765,
      "v": 127
    },
    {
      "midi": 42,
      "hit": false,
      "t": 379363.2570000044,
      "d": 272.7270000000135,
      "v": 127
    },
    {
      "midi": 69,
      "hit": false,
      "t": 379499.6205000027,
      "d": 136.36349999997765,
      "v": 127
    },
    {
      "midi": 66,
      "hit": false,
      "t": 379635.9840000027,
      "d": 136.36349999997765,
      "v": 127
    },
    {
      "midi": 45,
      "hit": false,
      "t": 379635.9840000044,
      "d": 272.7270000000135,
      "v": 127
    },
    {
      "midi": 72,
      "hit": false,
      "t": 379772.34750000265,
      "d": 136.36349999997765,
      "v": 127
    },
    {
      "midi": 69,
      "hit": false,
      "t": 379908.71100000263,
      "d": 136.36349999997765,
      "v": 127
    },
    {
      "midi": 45,
      "hit": false,
      "t": 379908.71100000443,
      "d": 272.7270000000135,
      "v": 127
    },
    {
      "midi": 66,
      "hit": false,
      "t": 380045.0745000026,
      "d": 136.36349999997765,
      "v": 127
    },
    {
      "midi": 60,
      "hit": false,
      "t": 380181.4380000026,
      "d": 136.36349999997765,
      "v": 127
    },
    {
      "midi": 50,
      "hit": false,
      "t": 380181.43800000445,
      "d": 545.454000000027,
      "v": 127
    },
    {
      "midi": 69,
      "hit": false,
      "t": 380317.80150000256,
      "d": 136.36349999997765,
      "v": 127
    },
    {
      "midi": 66,
      "hit": false,
      "t": 380454.16500000254,
      "d": 136.36349999997765,
      "v": 127
    },
    {
      "midi": 60,
      "hit": false,
      "t": 380590.5285000025,
      "d": 136.36349999997765,
      "v": 127
    },
    {
      "midi": 38,
      "hit": false,
      "t": 380726.8920000045,
      "d": 545.454000000027,
      "v": 127
    },
    {
      "midi": 82,
      "hit": false,
      "t": 380863.2555000025,
      "d": 136.36349999997765,
      "v": 127
    },
    {
      "midi": 79,
      "hit": false,
      "t": 380999.61900000245,
      "d": 136.36349999997765,
      "v": 127
    },
    {
      "midi": 74,
      "hit": false,
      "t": 381135.9825000024,
      "d": 136.36349999997765,
      "v": 127
    },
    {
      "midi": 70,
      "hit": false,
      "t": 381272.3460000024,
      "d": 136.36349999997765,
      "v": 127
    },
    {
      "midi": 43,
      "hit": false,
      "t": 381272.3460000045,
      "d": 272.7270000000135,
      "v": 127
    },
    {
      "midi": 79,
      "hit": false,
      "t": 381408.7095000024,
      "d": 136.36349999997765,
      "v": 127
    },
    {
      "midi": 74,
      "hit": false,
      "t": 381545.07300000236,
      "d": 136.36349999997765,
      "v": 127
    },
    {
      "midi": 43,
      "hit": false,
      "t": 381545.0730000045,
      "d": 272.7270000000135,
      "v": 127
    },
    {
      "midi": 70,
      "hit": false,
      "t": 381681.43650000234,
      "d": 136.36349999997765,
      "v": 127
    },
    {
      "midi": 67,
      "hit": false,
      "t": 381817.8000000023,
      "d": 136.36349999997765,
      "v": 127
    },
    {
      "midi": 46,
      "hit": false,
      "t": 381817.8000000045,
      "d": 272.7270000000135,
      "v": 127
    },
    {
      "midi": 70,
      "hit": false,
      "t": 381954.1635000023,
      "d": 136.36349999997765,
      "v": 127
    },
    {
      "midi": 67,
      "hit": false,
      "t": 382090.5270000023,
      "d": 136.36349999997765,
      "v": 127
    },
    {
      "midi": 46,
      "hit": false,
      "t": 382090.52700000454,
      "d": 272.7270000000135,
      "v": 127
    },
    {
      "midi": 62,
      "hit": false,
      "t": 382226.89050000225,
      "d": 136.36349999997765,
      "v": 127
    },
    {
      "midi": 58,
      "hit": false,
      "t": 382363.2540000022,
      "d": 136.36349999997765,
      "v": 127
    },
    {
      "midi": 50,
      "hit": false,
      "t": 382363.25400000456,
      "d": 545.454000000027,
      "v": 127
    },
    {
      "midi": 67,
      "hit": false,
      "t": 382499.6175000022,
      "d": 136.36349999997765,
      "v": 127
    },
    {
      "midi": 62,
      "hit": false,
      "t": 382635.9810000022,
      "d": 136.36349999997765,
      "v": 127
    },
    {
      "midi": 58,
      "hit": false,
      "t": 382772.34450000216,
      "d": 136.36349999997765,
      "v": 127
    },
    {
      "midi": 38,
      "hit": false,
      "t": 382908.7080000046,
      "d": 545.454000000027,
      "v": 127
    },
    {
      "midi": 79,
      "hit": false,
      "t": 383045.0715000021,
      "d": 136.36349999997765,
      "v": 127
    },
    {
      "midi": 76,
      "hit": false,
      "t": 383181.4350000021,
      "d": 136.36349999997765,
      "v": 127
    },
    {
      "midi": 73,
      "hit": false,
      "t": 383317.79850000207,
      "d": 136.36349999997765,
      "v": 127
    },
    {
      "midi": 67,
      "hit": false,
      "t": 383454.16200000205,
      "d": 136.36349999997765,
      "v": 127
    },
    {
      "midi": 43,
      "hit": false,
      "t": 383454.1620000046,
      "d": 272.7270000000135,
      "v": 127
    },
    {
      "midi": 76,
      "hit": false,
      "t": 383590.525500002,
      "d": 136.36349999997765,
      "v": 127
    },
    {
      "midi": 73,
      "hit": false,
      "t": 383726.889000002,
      "d": 136.36349999997765,
      "v": 127
    },
    {
      "midi": 43,
      "hit": false,
      "t": 383726.8890000046,
      "d": 272.7270000000135,
      "v": 127
    },
    {
      "midi": 67,
      "hit": false,
      "t": 383863.252500002,
      "d": 136.36349999997765,
      "v": 127
    },
    {
      "midi": 64,
      "hit": false,
      "t": 383999.61600000196,
      "d": 136.36349999997765,
      "v": 127
    },
    {
      "midi": 46,
      "hit": false,
      "t": 383999.61600000464,
      "d": 272.7270000000135,
      "v": 127
    },
    {
      "midi": 67,
      "hit": false,
      "t": 384135.97950000194,
      "d": 136.36349999997765,
      "v": 127
    },
    {
      "midi": 64,
      "hit": false,
      "t": 384272.3430000019,
      "d": 136.36349999997765,
      "v": 127
    },
    {
      "midi": 46,
      "hit": false,
      "t": 384272.34300000465,
      "d": 272.7270000000135,
      "v": 127
    },
    {
      "midi": 61,
      "hit": false,
      "t": 384408.7065000019,
      "d": 136.36349999997765,
      "v": 127
    },
    {
      "midi": 55,
      "hit": false,
      "t": 384545.07000000187,
      "d": 136.36349999997765,
      "v": 127
    },
    {
      "midi": 50,
      "hit": false,
      "t": 384545.07000000466,
      "d": 545.454000000027,
      "v": 127
    },
    {
      "midi": 64,
      "hit": false,
      "t": 384681.43350000185,
      "d": 136.36349999997765,
      "v": 127
    },
    {
      "midi": 61,
      "hit": false,
      "t": 384817.7970000018,
      "d": 136.36349999997765,
      "v": 127
    },
    {
      "midi": 55,
      "hit": false,
      "t": 384954.1605000018,
      "d": 136.36349999997765,
      "v": 127
    },
    {
      "midi": 38,
      "hit": false,
      "t": 385090.5240000047,
      "d": 545.454000000027,
      "v": 127
    },
    {
      "midi": 81,
      "hit": false,
      "t": 385226.88750000176,
      "d": 136.36349999997765,
      "v": 127
    },
    {
      "midi": 78,
      "hit": false,
      "t": 385363.25100000174,
      "d": 136.36349999997765,
      "v": 127
    },
    {
      "midi": 74,
      "hit": false,
      "t": 385499.6145000017,
      "d": 136.36349999997765,
      "v": 127
    },
    {
      "midi": 69,
      "hit": false,
      "t": 385635.9780000017,
      "d": 136.36349999997765,
      "v": 127
    },
    {
      "midi": 78,
      "hit": false,
      "t": 385772.34150000167,
      "d": 136.36349999997765,
      "v": 127
    },
    {
      "midi": 74,
      "hit": false,
      "t": 385908.70500000165,
      "d": 136.36349999997765,
      "v": 127
    },
    {
      "midi": 69,
      "hit": false,
      "t": 386045.0685000016,
      "d": 136.36349999997765,
      "v": 127
    },
    {
      "midi": 66,
      "hit": false,
      "t": 386181.4320000016,
      "d": 136.36349999997765,
      "v": 127
    },
    {
      "midi": 74,
      "hit": false,
      "t": 386317.7955000016,
      "d": 136.36349999997765,
      "v": 127
    },
    {
      "midi": 69,
      "hit": false,
      "t": 386454.15900000156,
      "d": 136.36349999997765,
      "v": 127
    },
    {
      "midi": 66,
      "hit": false,
      "t": 386590.52250000153,
      "d": 136.36349999997765,
      "v": 127
    },
    {
      "midi": 62,
      "hit": false,
      "t": 386726.8860000015,
      "d": 136.36349999997765,
      "v": 127
    },
    {
      "midi": 69,
      "hit": false,
      "t": 386863.2495000015,
      "d": 136.36349999997765,
      "v": 127
    },
    {
      "midi": 66,
      "hit": false,
      "t": 386999.61300000147,
      "d": 136.36349999997765,
      "v": 127
    },
    {
      "midi": 62,
      "hit": false,
      "t": 387135.97650000144,
      "d": 136.36349999997765,
      "v": 127
    },
    {
      "midi": 38,
      "hit": false,
      "t": 387272.34000000474,
      "d": 545.454000000027,
      "v": 127
    },
    {
      "midi": 84,
      "hit": false,
      "t": 387408.7035000014,
      "d": 136.36349999997765,
      "v": 127
    },
    {
      "midi": 81,
      "hit": false,
      "t": 387545.0670000014,
      "d": 136.36349999997765,
      "v": 127
    },
    {
      "midi": 78,
      "hit": false,
      "t": 387681.43050000136,
      "d": 136.36349999997765,
      "v": 127
    },
    {
      "midi": 72,
      "hit": false,
      "t": 387817.79400000133,
      "d": 136.36349999997765,
      "v": 127
    },
    {
      "midi": 42,
      "hit": false,
      "t": 387817.79400000477,
      "d": 272.7270000000135,
      "v": 127
    },
    {
      "midi": 78,
      "hit": false,
      "t": 387954.1575000013,
      "d": 136.36349999997765,
      "v": 127
    },
    {
      "midi": 72,
      "hit": false,
      "t": 388090.5210000013,
      "d": 136.36349999997765,
      "v": 127
    },
    {
      "midi": 42,
      "hit": false,
      "t": 388090.5210000048,
      "d": 272.7270000000135,
      "v": 127
    },
    {
      "midi": 69,
      "hit": false,
      "t": 388226.88450000127,
      "d": 136.36349999997765,
      "v": 127
    },
    {
      "midi": 66,
      "hit": false,
      "t": 388363.24800000124,
      "d": 136.36349999997765,
      "v": 127
    },
    {
      "midi": 45,
      "hit": false,
      "t": 388363.2480000048,
      "d": 272.7270000000135,
      "v": 127
    },
    {
      "midi": 72,
      "hit": false,
      "t": 388499.6115000012,
      "d": 136.36349999997765,
      "v": 127
    },
    {
      "midi": 69,
      "hit": false,
      "t": 388635.9750000012,
      "d": 136.36349999997765,
      "v": 127
    },
    {
      "midi": 45,
      "hit": false,
      "t": 388635.9750000048,
      "d": 272.7270000000135,
      "v": 127
    },
    {
      "midi": 66,
      "hit": false,
      "t": 388772.3385000012,
      "d": 136.36349999997765,
      "v": 127
    },
    {
      "midi": 60,
      "hit": false,
      "t": 388908.70200000115,
      "d": 136.36349999997765,
      "v": 127
    },
    {
      "midi": 50,
      "hit": false,
      "t": 388908.7020000048,
      "d": 545.454000000027,
      "v": 127
    },
    {
      "midi": 69,
      "hit": false,
      "t": 389045.06550000113,
      "d": 136.36349999997765,
      "v": 127
    },
    {
      "midi": 66,
      "hit": false,
      "t": 389181.4290000011,
      "d": 136.36349999997765,
      "v": 127
    },
    {
      "midi": 60,
      "hit": false,
      "t": 389317.7925000011,
      "d": 136.36349999997765,
      "v": 127
    },
    {
      "midi": 39,
      "hit": false,
      "t": 389454.15600000485,
      "d": 545.454000000027,
      "v": 127
    },
    {
      "midi": 84,
      "hit": false,
      "t": 389590.51950000104,
      "d": 136.36349999997765,
      "v": 127
    },
    {
      "midi": 79,
      "hit": false,
      "t": 389726.883000001,
      "d": 136.36349999997765,
      "v": 127
    },
    {
      "midi": 75,
      "hit": false,
      "t": 389863.246500001,
      "d": 136.36349999997765,
      "v": 127
    },
    {
      "midi": 72,
      "hit": false,
      "t": 389999.610000001,
      "d": 136.36349999997765,
      "v": 127
    },
    {
      "midi": 43,
      "hit": false,
      "t": 389999.6100000049,
      "d": 272.7270000000135,
      "v": 127
    },
    {
      "midi": 75,
      "hit": false,
      "t": 390135.97350000095,
      "d": 136.36349999997765,
      "v": 127
    },
    {
      "midi": 72,
      "hit": false,
      "t": 390272.33700000093,
      "d": 136.36349999997765,
      "v": 127
    },
    {
      "midi": 43,
      "hit": false,
      "t": 390272.3370000049,
      "d": 272.7270000000135,
      "v": 127
    },
    {
      "midi": 67,
      "hit": false,
      "t": 390408.7005000009,
      "d": 136.36349999997765,
      "v": 127
    },
    {
      "midi": 63,
      "hit": false,
      "t": 390545.0640000009,
      "d": 136.36349999997765,
      "v": 127
    },
    {
      "midi": 48,
      "hit": false,
      "t": 390545.0640000049,
      "d": 272.7270000000135,
      "v": 127
    },
    {
      "midi": 72,
      "hit": false,
      "t": 390681.42750000086,
      "d": 136.36349999997765,
      "v": 127
    },
    {
      "midi": 67,
      "hit": false,
      "t": 390817.79100000084,
      "d": 136.36349999997765,
      "v": 127
    },
    {
      "midi": 48,
      "hit": false,
      "t": 390817.7910000049,
      "d": 272.7270000000135,
      "v": 127
    },
    {
      "midi": 63,
      "hit": false,
      "t": 390954.1545000008,
      "d": 136.36349999997765,
      "v": 127
    },
    {
      "midi": 60,
      "hit": false,
      "t": 391090.5180000008,
      "d": 136.36349999997765,
      "v": 127
    },
    {
      "midi": 51,
      "hit": false,
      "t": 391090.51800000493,
      "d": 545.454000000027,
      "v": 127
    },
    {
      "midi": 67,
      "hit": false,
      "t": 391226.8815000008,
      "d": 136.36349999997765,
      "v": 127
    },
    {
      "midi": 63,
      "hit": false,
      "t": 391363.24500000075,
      "d": 136.36349999997765,
      "v": 127
    },
    {
      "midi": 60,
      "hit": false,
      "t": 391499.60850000073,
      "d": 136.36349999997765,
      "v": 127
    },
    {
      "midi": 40,
      "hit": false,
      "t": 391635.97200000496,
      "d": 545.454000000027,
      "v": 127
    },
    {
      "midi": 84,
      "hit": false,
      "t": 391772.3355000007,
      "d": 136.36349999997765,
      "v": 127
    },
    {
      "midi": 79,
      "hit": false,
      "t": 391908.69900000066,
      "d": 136.36349999997765,
      "v": 127
    },
    {
      "midi": 76,
      "hit": false,
      "t": 392045.06250000064,
      "d": 136.36349999997765,
      "v": 127
    },
    {
      "midi": 72,
      "hit": false,
      "t": 392181.4260000006,
      "d": 136.36349999997765,
      "v": 127
    },
    {
      "midi": 43,
      "hit": false,
      "t": 392181.426000005,
      "d": 272.7270000000135,
      "v": 127
    },
    {
      "midi": 76,
      "hit": false,
      "t": 392317.7895000006,
      "d": 136.36349999997765,
      "v": 127
    },
    {
      "midi": 72,
      "hit": false,
      "t": 392454.1530000006,
      "d": 136.36349999997765,
      "v": 127
    },
    {
      "midi": 43,
      "hit": false,
      "t": 392454.153000005,
      "d": 272.7270000000135,
      "v": 127
    },
    {
      "midi": 67,
      "hit": false,
      "t": 392590.51650000055,
      "d": 136.36349999997765,
      "v": 127
    },
    {
      "midi": 64,
      "hit": false,
      "t": 392726.8800000005,
      "d": 136.36349999997765,
      "v": 127
    },
    {
      "midi": 48,
      "hit": false,
      "t": 392726.880000005,
      "d": 272.7270000000135,
      "v": 127
    },
    {
      "midi": 67,
      "hit": false,
      "t": 392863.2435000005,
      "d": 136.36349999997765,
      "v": 127
    },
    {
      "midi": 64,
      "hit": false,
      "t": 392999.6070000005,
      "d": 136.36349999997765,
      "v": 127
    },
    {
      "midi": 48,
      "hit": false,
      "t": 392999.607000005,
      "d": 272.7270000000135,
      "v": 127
    },
    {
      "midi": 60,
      "hit": false,
      "t": 393135.97050000046,
      "d": 136.36349999997765,
      "v": 127
    },
    {
      "midi": 55,
      "hit": false,
      "t": 393272.33400000044,
      "d": 136.36349999997765,
      "v": 127
    },
    {
      "midi": 52,
      "hit": false,
      "t": 393272.33400000504,
      "d": 545.454000000027,
      "v": 127
    },
    {
      "midi": 64,
      "hit": false,
      "t": 393408.6975000004,
      "d": 136.36349999997765,
      "v": 127
    },
    {
      "midi": 60,
      "hit": false,
      "t": 393545.0610000004,
      "d": 136.36349999997765,
      "v": 127
    },
    {
      "midi": 55,
      "hit": false,
      "t": 393681.4245000004,
      "d": 136.36349999997765,
      "v": 127
    },
    {
      "midi": 41,
      "hit": false,
      "t": 393817.78800000506,
      "d": 545.454000000027,
      "v": 127
    },
    {
      "midi": 84,
      "hit": false,
      "t": 393954.1515000003,
      "d": 136.36349999997765,
      "v": 127
    },
    {
      "midi": 81,
      "hit": false,
      "t": 394090.5150000003,
      "d": 136.36349999997765,
      "v": 127
    },
    {
      "midi": 77,
      "hit": false,
      "t": 394226.8785000003,
      "d": 136.36349999997765,
      "v": 127
    },
    {
      "midi": 72,
      "hit": false,
      "t": 394363.24200000026,
      "d": 136.36349999997765,
      "v": 127
    },
    {
      "midi": 45,
      "hit": false,
      "t": 394363.2420000051,
      "d": 272.7270000000135,
      "v": 127
    },
    {
      "midi": 77,
      "hit": false,
      "t": 394499.60550000024,
      "d": 136.36349999997765,
      "v": 127
    },
    {
      "midi": 72,
      "hit": false,
      "t": 394635.9690000002,
      "d": 136.36349999997765,
      "v": 127
    },
    {
      "midi": 45,
      "hit": false,
      "t": 394635.9690000051,
      "d": 272.7270000000135,
      "v": 127
    },
    {
      "midi": 69,
      "hit": false,
      "t": 394772.3325000002,
      "d": 136.36349999997765,
      "v": 127
    },
    {
      "midi": 65,
      "hit": false,
      "t": 394908.6960000002,
      "d": 136.36349999997765,
      "v": 127
    },
    {
      "midi": 48,
      "hit": false,
      "t": 394908.6960000051,
      "d": 272.7270000000135,
      "v": 127
    },
    {
      "midi": 72,
      "hit": false,
      "t": 395045.05950000015,
      "d": 136.36349999997765,
      "v": 127
    },
    {
      "midi": 69,
      "hit": false,
      "t": 395181.4230000001,
      "d": 136.36349999997765,
      "v": 127
    },
    {
      "midi": 48,
      "hit": false,
      "t": 395181.42300000513,
      "d": 272.7270000000135,
      "v": 127
    },
    {
      "midi": 65,
      "hit": false,
      "t": 395317.7865000001,
      "d": 136.36349999997765,
      "v": 127
    },
    {
      "midi": 60,
      "hit": false,
      "t": 395454.1500000001,
      "d": 136.36349999997765,
      "v": 127
    },
    {
      "midi": 53,
      "hit": false,
      "t": 395454.15000000515,
      "d": 545.454000000027,
      "v": 127
    },
    {
      "midi": 69,
      "hit": false,
      "t": 395590.51350000006,
      "d": 136.36349999997765,
      "v": 127
    },
    {
      "midi": 65,
      "hit": false,
      "t": 395726.87700000004,
      "d": 136.36349999997765,
      "v": 127
    },
    {
      "midi": 60,
      "hit": false,
      "t": 395863.2405,
      "d": 136.36349999997765,
      "v": 127
    },
    {
      "midi": 42,
      "hit": false,
      "t": 395999.6040000052,
      "d": 545.454000000027,
      "v": 127
    },
    {
      "midi": 45,
      "hit": false,
      "t": 395999.6040000052,
      "d": 545.454000000027,
      "v": 127
    },
    {
      "midi": 48,
      "hit": false,
      "t": 395999.6040000052,
      "d": 545.454000000027,
      "v": 127
    },
    {
      "midi": 50,
      "hit": false,
      "t": 395999.6040000052,
      "d": 545.454000000027,
      "v": 127
    },
    {
      "midi": 84,
      "hit": false,
      "t": 396135.96749999997,
      "d": 136.36349999997765,
      "v": 127
    },
    {
      "midi": 83,
      "hit": false,
      "t": 396272.33099999995,
      "d": 136.36349999997765,
      "v": 127
    },
    {
      "midi": 81,
      "hit": false,
      "t": 396408.6944999999,
      "d": 136.36349999997765,
      "v": 127
    },
    {
      "midi": 79,
      "hit": false,
      "t": 396545.0579999999,
      "d": 136.36349999997765,
      "v": 127
    },
    {
      "midi": 78,
      "hit": false,
      "t": 396681.4214999999,
      "d": 136.36349999997765,
      "v": 127
    },
    {
      "midi": 76,
      "hit": false,
      "t": 396817.78499999986,
      "d": 136.36349999997765,
      "v": 127
    },
    {
      "midi": 74,
      "hit": false,
      "t": 396954.14849999984,
      "d": 136.36349999997765,
      "v": 127
    },
    {
      "midi": 72,
      "hit": false,
      "t": 397090.5119999998,
      "d": 136.36349999997765,
      "v": 127
    },
    {
      "midi": 71,
      "hit": false,
      "t": 397226.8754999998,
      "d": 136.36349999997765,
      "v": 127
    },
    {
      "midi": 69,
      "hit": false,
      "t": 397363.23899999977,
      "d": 136.36349999997765,
      "v": 127
    },
    {
      "midi": 67,
      "hit": false,
      "t": 397499.60249999975,
      "d": 136.36349999997765,
      "v": 127
    },
    {
      "midi": 66,
      "hit": false,
      "t": 397635.9659999997,
      "d": 136.36349999997765,
      "v": 127
    },
    {
      "midi": 64,
      "hit": false,
      "t": 397772.3294999997,
      "d": 136.36349999997765,
      "v": 127
    },
    {
      "midi": 62,
      "hit": false,
      "t": 397908.6929999997,
      "d": 136.36349999997765,
      "v": 127
    },
    {
      "midi": 60,
      "hit": false,
      "t": 398045.05649999966,
      "d": 136.36349999997765,
      "v": 127
    },
    {
      "midi": 59,
      "hit": false,
      "t": 398181.4200000052,
      "d": 136.36349999997765,
      "v": 127
    },
    {
      "midi": 57,
      "hit": false,
      "t": 398317.7835000052,
      "d": 136.36349999997765,
      "v": 127
    },
    {
      "midi": 55,
      "hit": false,
      "t": 398454.1470000052,
      "d": 136.36349999997765,
      "v": 127
    },
    {
      "midi": 54,
      "hit": false,
      "t": 398590.51050000516,
      "d": 136.36349999997765,
      "v": 127
    },
    {
      "midi": 52,
      "hit": false,
      "t": 398726.87400000513,
      "d": 136.36349999997765,
      "v": 127
    },
    {
      "midi": 50,
      "hit": false,
      "t": 398863.2375000051,
      "d": 136.36349999997765,
      "v": 127
    },
    {
      "midi": 48,
      "hit": false,
      "t": 398999.6010000051,
      "d": 136.36349999997765,
      "v": 127
    },
    {
      "midi": 47,
      "hit": false,
      "t": 399135.96450000507,
      "d": 136.36349999997765,
      "v": 127
    },
    {
      "midi": 45,
      "hit": false,
      "t": 399272.32800000504,
      "d": 136.36349999997765,
      "v": 127
    },
    {
      "midi": 43,
      "hit": false,
      "t": 399408.691500005,
      "d": 136.36349999997765,
      "v": 127
    },
    {
      "midi": 42,
      "hit": false,
      "t": 399545.055000005,
      "d": 136.36349999997765,
      "v": 127
    },
    {
      "midi": 40,
      "hit": false,
      "t": 399681.418500005,
      "d": 136.36349999997765,
      "v": 127
    },
    {
      "midi": 38,
      "hit": false,
      "t": 399817.78200000495,
      "d": 136.36349999997765,
      "v": 127
    },
    {
      "midi": 37,
      "hit": false,
      "t": 399954.14550000493,
      "d": 136.36349999997765,
      "v": 127
    },
    {
      "midi": 38,
      "hit": false,
      "t": 400090.5090000049,
      "d": 136.36349999997765,
      "v": 127
    },
    {
      "midi": 37,
      "hit": false,
      "t": 400226.8725000049,
      "d": 136.36349999997765,
      "v": 127
    },
    {
      "midi": 38,
      "hit": false,
      "t": 400363.23600000486,
      "d": 545.454000000027,
      "v": 127
    },
    {
      "midi": 42,
      "hit": false,
      "t": 400908.6900000049,
      "d": 272.7270000000135,
      "v": 127
    },
    {
      "midi": 42,
      "hit": false,
      "t": 401181.4170000049,
      "d": 272.7270000000135,
      "v": 127
    },
    {
      "midi": 45,
      "hit": false,
      "t": 401454.1440000049,
      "d": 545.454000000027,
      "v": 127
    },
    {
      "midi": 50,
      "hit": false,
      "t": 401454.1440000049,
      "d": 545.454000000027,
      "v": 127
    },
    {
      "midi": 54,
      "hit": false,
      "t": 401999.59800000495,
      "d": 272.7270000000135,
      "v": 127
    },
    {
      "midi": 54,
      "hit": false,
      "t": 402272.32500000496,
      "d": 272.7270000000135,
      "v": 127
    },
    {
      "midi": 42,
      "hit": false,
      "t": 402545.052000005,
      "d": 545.454000000027,
      "v": 127
    },
    {
      "midi": 57,
      "hit": false,
      "t": 402545.052000005,
      "d": 545.454000000027,
      "v": 127
    },
    {
      "midi": 45,
      "hit": false,
      "t": 403090.506000005,
      "d": 272.7270000000135,
      "v": 127
    },
    {
      "midi": 45,
      "hit": false,
      "t": 403363.233000005,
      "d": 272.7270000000135,
      "v": 127
    },
    {
      "midi": 48,
      "hit": false,
      "t": 403635.960000005,
      "d": 545.454000000027,
      "v": 127
    },
    {
      "midi": 54,
      "hit": false,
      "t": 403635.960000005,
      "d": 545.454000000027,
      "v": 127
    },
    {
      "midi": 57,
      "hit": false,
      "t": 404181.41400000505,
      "d": 272.7270000000135,
      "v": 127
    },
    {
      "midi": 57,
      "hit": false,
      "t": 404454.14100000507,
      "d": 272.7270000000135,
      "v": 127
    },
    {
      "midi": 45,
      "hit": false,
      "t": 404726.8680000051,
      "d": 545.454000000027,
      "v": 127
    },
    {
      "midi": 60,
      "hit": false,
      "t": 404726.8680000051,
      "d": 545.454000000027,
      "v": 127
    },
    {
      "midi": 48,
      "hit": false,
      "t": 405272.3220000051,
      "d": 272.7270000000135,
      "v": 127
    },
    {
      "midi": 48,
      "hit": false,
      "t": 405545.0490000051,
      "d": 272.7270000000135,
      "v": 127
    },
    {
      "midi": 57,
      "hit": false,
      "t": 405817.7759999996,
      "d": 545.454000000027,
      "v": 127
    },
    {
      "midi": 51,
      "hit": false,
      "t": 405817.77600000513,
      "d": 545.454000000027,
      "v": 127
    },
    {
      "midi": 60,
      "hit": false,
      "t": 406363.22999999963,
      "d": 272.7270000000135,
      "v": 127
    },
    {
      "midi": 60,
      "hit": false,
      "t": 406635.95699999965,
      "d": 272.7270000000135,
      "v": 127
    },
    {
      "midi": 60,
      "hit": false,
      "t": 406908.68399999966,
      "d": 545.454000000027,
      "v": 127
    },
    {
      "midi": 63,
      "hit": false,
      "t": 406908.68399999966,
      "d": 545.454000000027,
      "v": 127
    },
    {
      "midi": 42,
      "hit": false,
      "t": 406908.6840000052,
      "d": 545.454000000027,
      "v": 127
    },
    {
      "midi": 57,
      "hit": false,
      "t": 407454.1380000052,
      "d": 272.7270000000135,
      "v": 127
    },
    {
      "midi": 48,
      "hit": false,
      "t": 407726.86500000523,
      "d": 272.7270000000135,
      "v": 127
    },
    {
      "midi": 51,
      "hit": false,
      "t": 407726.86500000523,
      "d": 272.7270000000135,
      "v": 127
    },
    {
      "midi": 60,
      "hit": false,
      "t": 407999.5919999997,
      "d": 545.454000000027,
      "v": 127
    },
    {
      "midi": 63,
      "hit": false,
      "t": 407999.5919999997,
      "d": 545.454000000027,
      "v": 127
    },
    {
      "midi": 42,
      "hit": false,
      "t": 407999.59200000524,
      "d": 545.454000000027,
      "v": 127
    },
    {
      "midi": 57,
      "hit": false,
      "t": 408545.04600000527,
      "d": 272.7270000000135,
      "v": 127
    },
    {
      "midi": 48,
      "hit": false,
      "t": 408817.7730000053,
      "d": 272.7270000000135,
      "v": 127
    },
    {
      "midi": 51,
      "hit": false,
      "t": 408817.7730000053,
      "d": 272.7270000000135,
      "v": 127
    },
    {
      "midi": 60,
      "hit": false,
      "t": 409090.49999999977,
      "d": 545.454000000027,
      "v": 127
    },
    {
      "midi": 64,
      "hit": false,
      "t": 409090.49999999977,
      "d": 545.454000000027,
      "v": 127
    },
    {
      "midi": 43,
      "hit": false,
      "t": 409090.5000000053,
      "d": 545.454000000027,
      "v": 127
    },
    {
      "midi": 55,
      "hit": false,
      "t": 409635.9539999998,
      "d": 545.454000000027,
      "v": 127
    },
    {
      "midi": 48,
      "hit": false,
      "t": 409635.9540000053,
      "d": 272.7270000000135,
      "v": 127
    },
    {
      "midi": 52,
      "hit": false,
      "t": 409635.9540000053,
      "d": 272.7270000000135,
      "v": 127
    },
    {
      "midi": 48,
      "hit": false,
      "t": 409908.68100000534,
      "d": 272.7270000000135,
      "v": 127
    },
    {
      "midi": 52,
      "hit": false,
      "t": 409908.68100000534,
      "d": 272.7270000000135,
      "v": 127
    },
    {
      "midi": 59,
      "hit": false,
      "t": 410181.4079999998,
      "d": 545.454000000027,
      "v": 127
    },
    {
      "midi": 65,
      "hit": false,
      "t": 410181.4079999998,
      "d": 545.454000000027,
      "v": 127
    },
    {
      "midi": 43,
      "hit": false,
      "t": 410181.40800000535,
      "d": 545.454000000027,
      "v": 127
    },
    {
      "midi": 55,
      "hit": false,
      "t": 410726.86199999985,
      "d": 545.454000000027,
      "v": 127
    },
    {
      "midi": 50,
      "hit": false,
      "t": 410726.8620000054,
      "d": 272.7270000000135,
      "v": 127
    },
    {
      "midi": 53,
      "hit": false,
      "t": 410726.8620000054,
      "d": 272.7270000000135,
      "v": 127
    },
    {
      "midi": 50,
      "hit": false,
      "t": 410999.5890000054,
      "d": 272.7270000000135,
      "v": 127
    },
    {
      "midi": 53,
      "hit": false,
      "t": 410999.5890000054,
      "d": 272.7270000000135,
      "v": 127
    },
    {
      "midi": 62,
      "hit": false,
      "t": 411272.3159999999,
      "d": 545.454000000027,
      "v": 127
    },
    {
      "midi": 65,
      "hit": false,
      "t": 411272.3159999999,
      "d": 545.454000000027,
      "v": 127
    },
    {
      "midi": 44,
      "hit": false,
      "t": 411272.3160000054,
      "d": 545.454000000027,
      "v": 127
    },
    {
      "midi": 56,
      "hit": false,
      "t": 411817.7699999999,
      "d": 545.454000000027,
      "v": 127
    },
    {
      "midi": 59,
      "hit": false,
      "t": 411817.7699999999,
      "d": 545.454000000027,
      "v": 127
    },
    {
      "midi": 50,
      "hit": false,
      "t": 411817.77000000543,
      "d": 272.7270000000135,
      "v": 127
    },
    {
      "midi": 53,
      "hit": false,
      "t": 411817.77000000543,
      "d": 272.7270000000135,
      "v": 127
    },
    {
      "midi": 50,
      "hit": false,
      "t": 412090.49700000545,
      "d": 272.7270000000135,
      "v": 127
    },
    {
      "midi": 53,
      "hit": false,
      "t": 412090.49700000545,
      "d": 272.7270000000135,
      "v": 127
    },
    {
      "midi": 62,
      "hit": false,
      "t": 412363.22399999993,
      "d": 545.454000000027,
      "v": 127
    },
    {
      "midi": 65,
      "hit": false,
      "t": 412363.22399999993,
      "d": 545.454000000027,
      "v": 127
    },
    {
      "midi": 44,
      "hit": false,
      "t": 412363.22400000546,
      "d": 545.454000000027,
      "v": 127
    },
    {
      "midi": 56,
      "hit": false,
      "t": 412908.67799999996,
      "d": 545.454000000027,
      "v": 127
    },
    {
      "midi": 59,
      "hit": false,
      "t": 412908.67799999996,
      "d": 545.454000000027,
      "v": 127
    },
    {
      "midi": 50,
      "hit": false,
      "t": 412908.6780000055,
      "d": 272.7270000000135,
      "v": 127
    },
    {
      "midi": 53,
      "hit": false,
      "t": 412908.6780000055,
      "d": 272.7270000000135,
      "v": 127
    },
    {
      "midi": 50,
      "hit": false,
      "t": 413181.4050000055,
      "d": 272.7270000000135,
      "v": 127
    },
    {
      "midi": 53,
      "hit": false,
      "t": 413181.4050000055,
      "d": 272.7270000000135,
      "v": 127
    },
    {
      "midi": 62,
      "hit": false,
      "t": 413454.132,
      "d": 545.454000000027,
      "v": 127
    },
    {
      "midi": 66,
      "hit": false,
      "t": 413454.132,
      "d": 545.454000000027,
      "v": 127
    },
    {
      "midi": 45,
      "hit": false,
      "t": 413454.1320000055,
      "d": 545.454000000027,
      "v": 127
    },
    {
      "midi": 57,
      "hit": false,
      "t": 413999.586,
      "d": 545.454000000027,
      "v": 127
    },
    {
      "midi": 50,
      "hit": false,
      "t": 413999.58600000554,
      "d": 272.7270000000135,
      "v": 127
    },
    {
      "midi": 54,
      "hit": false,
      "t": 413999.58600000554,
      "d": 272.7270000000135,
      "v": 127
    },
    {
      "midi": 50,
      "hit": false,
      "t": 414272.31300000555,
      "d": 272.7270000000135,
      "v": 127
    },
    {
      "midi": 54,
      "hit": false,
      "t": 414272.31300000555,
      "d": 272.7270000000135,
      "v": 127
    },
    {
      "midi": 61,
      "hit": false,
      "t": 414545.04000000004,
      "d": 545.454000000027,
      "v": 127
    },
    {
      "midi": 67,
      "hit": false,
      "t": 414545.04000000004,
      "d": 545.454000000027,
      "v": 127
    },
    {
      "midi": 45,
      "hit": false,
      "t": 414545.04000000557,
      "d": 545.454000000027,
      "v": 127
    },
    {
      "midi": 57,
      "hit": false,
      "t": 415090.49400000006,
      "d": 545.454000000027,
      "v": 127
    },
    {
      "midi": 52,
      "hit": false,
      "t": 415090.4940000056,
      "d": 272.7270000000135,
      "v": 127
    },
    {
      "midi": 55,
      "hit": false,
      "t": 415090.4940000056,
      "d": 272.7270000000135,
      "v": 127
    },
    {
      "midi": 52,
      "hit": false,
      "t": 415363.2210000056,
      "d": 272.7270000000135,
      "v": 127
    },
    {
      "midi": 55,
      "hit": false,
      "t": 415363.2210000056,
      "d": 272.7270000000135,
      "v": 127
    },
    {
      "midi": 64,
      "hit": false,
      "t": 415635.9480000001,
      "d": 545.454000000027,
      "v": 127
    },
    {
      "midi": 67,
      "hit": false,
      "t": 415635.9480000001,
      "d": 545.454000000027,
      "v": 127
    },
    {
      "midi": 46,
      "hit": false,
      "t": 415635.9480000056,
      "d": 545.454000000027,
      "v": 127
    },
    {
      "midi": 58,
      "hit": false,
      "t": 416181.4020000001,
      "d": 545.454000000027,
      "v": 127
    },
    {
      "midi": 61,
      "hit": false,
      "t": 416181.4020000001,
      "d": 545.454000000027,
      "v": 127
    },
    {
      "midi": 52,
      "hit": false,
      "t": 416181.40200000565,
      "d": 272.7270000000135,
      "v": 127
    },
    {
      "midi": 55,
      "hit": false,
      "t": 416181.40200000565,
      "d": 272.7270000000135,
      "v": 127
    },
    {
      "midi": 52,
      "hit": false,
      "t": 416454.12900000566,
      "d": 272.7270000000135,
      "v": 127
    },
    {
      "midi": 55,
      "hit": false,
      "t": 416454.12900000566,
      "d": 272.7270000000135,
      "v": 127
    },
    {
      "midi": 64,
      "hit": false,
      "t": 416726.85600000015,
      "d": 545.454000000027,
      "v": 127
    },
    {
      "midi": 67,
      "hit": false,
      "t": 416726.85600000015,
      "d": 545.454000000027,
      "v": 127
    },
    {
      "midi": 46,
      "hit": false,
      "t": 416726.8560000057,
      "d": 545.454000000027,
      "v": 127
    },
    {
      "midi": 58,
      "hit": false,
      "t": 417272.3100000002,
      "d": 545.454000000027,
      "v": 127
    },
    {
      "midi": 61,
      "hit": false,
      "t": 417272.3100000002,
      "d": 545.454000000027,
      "v": 127
    },
    {
      "midi": 52,
      "hit": false,
      "t": 417272.3100000057,
      "d": 272.7270000000135,
      "v": 127
    },
    {
      "midi": 55,
      "hit": false,
      "t": 417272.3100000057,
      "d": 272.7270000000135,
      "v": 127
    },
    {
      "midi": 52,
      "hit": false,
      "t": 417545.0370000057,
      "d": 272.7270000000135,
      "v": 127
    },
    {
      "midi": 55,
      "hit": false,
      "t": 417545.0370000057,
      "d": 272.7270000000135,
      "v": 127
    },
    {
      "midi": 64,
      "hit": false,
      "t": 417817.7640000002,
      "d": 545.454000000027,
      "v": 127
    },
    {
      "midi": 68,
      "hit": false,
      "t": 417817.7640000002,
      "d": 545.454000000027,
      "v": 127
    },
    {
      "midi": 47,
      "hit": false,
      "t": 417817.7640000057,
      "d": 545.454000000027,
      "v": 127
    },
    {
      "midi": 59,
      "hit": false,
      "t": 418363.2180000002,
      "d": 545.454000000027,
      "v": 127
    },
    {
      "midi": 52,
      "hit": false,
      "t": 418363.21800000576,
      "d": 272.7270000000135,
      "v": 127
    },
    {
      "midi": 56,
      "hit": false,
      "t": 418363.21800000576,
      "d": 272.7270000000135,
      "v": 127
    },
    {
      "midi": 52,
      "hit": false,
      "t": 418635.94500000577,
      "d": 272.7270000000135,
      "v": 127
    },
    {
      "midi": 56,
      "hit": false,
      "t": 418635.94500000577,
      "d": 272.7270000000135,
      "v": 127
    },
    {
      "midi": 63,
      "hit": false,
      "t": 418908.67200000025,
      "d": 545.454000000027,
      "v": 127
    },
    {
      "midi": 69,
      "hit": false,
      "t": 418908.67200000025,
      "d": 545.454000000027,
      "v": 127
    },
    {
      "midi": 47,
      "hit": false,
      "t": 418908.6720000058,
      "d": 545.454000000027,
      "v": 127
    },
    {
      "midi": 59,
      "hit": false,
      "t": 419454.1260000003,
      "d": 545.454000000027,
      "v": 127
    },
    {
      "midi": 54,
      "hit": false,
      "t": 419454.1260000058,
      "d": 272.7270000000135,
      "v": 127
    },
    {
      "midi": 57,
      "hit": false,
      "t": 419454.1260000058,
      "d": 272.7270000000135,
      "v": 127
    },
    {
      "midi": 54,
      "hit": false,
      "t": 419726.8530000058,
      "d": 272.7270000000135,
      "v": 127
    },
    {
      "midi": 57,
      "hit": false,
      "t": 419726.8530000058,
      "d": 272.7270000000135,
      "v": 127
    },
    {
      "midi": 64,
      "hit": false,
      "t": 419999.5800000003,
      "d": 545.454000000027,
      "v": 127
    },
    {
      "midi": 71,
      "hit": false,
      "t": 419999.5800000003,
      "d": 545.454000000027,
      "v": 127
    },
    {
      "midi": 47,
      "hit": false,
      "t": 419999.58000000584,
      "d": 545.454000000027,
      "v": 127
    },
    {
      "midi": 59,
      "hit": false,
      "t": 420545.03400000033,
      "d": 545.454000000027,
      "v": 127
    },
    {
      "midi": 56,
      "hit": false,
      "t": 420545.03400000586,
      "d": 272.7270000000135,
      "v": 127
    },
    {
      "midi": 56,
      "hit": false,
      "t": 420817.7610000059,
      "d": 272.7270000000135,
      "v": 127
    },
    {
      "midi": 63,
      "hit": false,
      "t": 421090.48800000036,
      "d": 545.454000000027,
      "v": 127
    },
    {
      "midi": 69,
      "hit": false,
      "t": 421090.48800000036,
      "d": 545.454000000027,
      "v": 127
    },
    {
      "midi": 47,
      "hit": false,
      "t": 421090.4880000059,
      "d": 545.454000000027,
      "v": 127
    },
    {
      "midi": 59,
      "hit": false,
      "t": 421635.9420000004,
      "d": 545.454000000027,
      "v": 127
    },
    {
      "midi": 54,
      "hit": false,
      "t": 421635.9420000059,
      "d": 272.7270000000135,
      "v": 127
    },
    {
      "midi": 57,
      "hit": false,
      "t": 421635.9420000059,
      "d": 272.7270000000135,
      "v": 127
    },
    {
      "midi": 54,
      "hit": false,
      "t": 421908.66900000593,
      "d": 272.7270000000135,
      "v": 127
    },
    {
      "midi": 57,
      "hit": false,
      "t": 421908.66900000593,
      "d": 272.7270000000135,
      "v": 127
    },
    {
      "midi": 64,
      "hit": false,
      "t": 422181.3960000004,
      "d": 545.454000000027,
      "v": 127
    },
    {
      "midi": 68,
      "hit": false,
      "t": 422181.3960000004,
      "d": 545.454000000027,
      "v": 127
    },
    {
      "midi": 47,
      "hit": false,
      "t": 422181.39600000595,
      "d": 545.454000000027,
      "v": 127
    },
    {
      "midi": 59,
      "hit": false,
      "t": 422726.85000000044,
      "d": 545.454000000027,
      "v": 127
    },
    {
      "midi": 52,
      "hit": false,
      "t": 422726.850000006,
      "d": 272.7270000000135,
      "v": 127
    },
    {
      "midi": 56,
      "hit": false,
      "t": 422726.850000006,
      "d": 272.7270000000135,
      "v": 127
    },
    {
      "midi": 52,
      "hit": false,
      "t": 422999.577000006,
      "d": 272.7270000000135,
      "v": 127
    },
    {
      "midi": 56,
      "hit": false,
      "t": 422999.577000006,
      "d": 272.7270000000135,
      "v": 127
    },
    {
      "midi": 63,
      "hit": false,
      "t": 423272.30400000047,
      "d": 545.454000000027,
      "v": 127
    },
    {
      "midi": 69,
      "hit": false,
      "t": 423272.30400000047,
      "d": 545.454000000027,
      "v": 127
    },
    {
      "midi": 47,
      "hit": false,
      "t": 423272.304000006,
      "d": 545.454000000027,
      "v": 127
    },
    {
      "midi": 59,
      "hit": false,
      "t": 423817.7580000005,
      "d": 545.454000000027,
      "v": 127
    },
    {
      "midi": 54,
      "hit": false,
      "t": 423817.758000006,
      "d": 272.7270000000135,
      "v": 127
    },
    {
      "midi": 57,
      "hit": false,
      "t": 423817.758000006,
      "d": 272.7270000000135,
      "v": 127
    },
    {
      "midi": 54,
      "hit": false,
      "t": 424090.48500000604,
      "d": 272.7270000000135,
      "v": 127
    },
    {
      "midi": 57,
      "hit": false,
      "t": 424090.48500000604,
      "d": 272.7270000000135,
      "v": 127
    },
    {
      "midi": 63,
      "hit": false,
      "t": 424363.2120000005,
      "d": 545.454000000027,
      "v": 127
    },
    {
      "midi": 70,
      "hit": false,
      "t": 424363.2120000005,
      "d": 545.454000000027,
      "v": 127
    },
    {
      "midi": 46,
      "hit": false,
      "t": 424363.21200000605,
      "d": 545.454000000027,
      "v": 127
    },
    {
      "midi": 58,
      "hit": false,
      "t": 424908.66600000055,
      "d": 545.454000000027,
      "v": 127
    },
    {
      "midi": 51,
      "hit": false,
      "t": 424908.6660000061,
      "d": 272.7270000000135,
      "v": 127
    },
    {
      "midi": 55,
      "hit": false,
      "t": 424908.6660000061,
      "d": 272.7270000000135,
      "v": 127
    },
    {
      "midi": 51,
      "hit": false,
      "t": 425181.3930000061,
      "d": 272.7270000000135,
      "v": 127
    },
    {
      "midi": 55,
      "hit": false,
      "t": 425181.3930000061,
      "d": 272.7270000000135,
      "v": 127
    },
    {
      "midi": 62,
      "hit": false,
      "t": 425454.1200000006,
      "d": 545.454000000027,
      "v": 127
    },
    {
      "midi": 68,
      "hit": false,
      "t": 425454.1200000006,
      "d": 545.454000000027,
      "v": 127
    },
    {
      "midi": 46,
      "hit": false,
      "t": 425454.1200000061,
      "d": 545.454000000027,
      "v": 127
    },
    {
      "midi": 58,
      "hit": false,
      "t": 425999.5740000006,
      "d": 545.454000000027,
      "v": 127
    },
    {
      "midi": 53,
      "hit": false,
      "t": 425999.57400000613,
      "d": 272.7270000000135,
      "v": 127
    },
    {
      "midi": 56,
      "hit": false,
      "t": 425999.57400000613,
      "d": 272.7270000000135,
      "v": 127
    },
    {
      "midi": 53,
      "hit": false,
      "t": 426272.30100000615,
      "d": 272.7270000000135,
      "v": 127
    },
    {
      "midi": 56,
      "hit": false,
      "t": 426272.30100000615,
      "d": 272.7270000000135,
      "v": 127
    },
    {
      "midi": 63,
      "hit": false,
      "t": 426545.02800000063,
      "d": 545.454000000027,
      "v": 127
    },
    {
      "midi": 67,
      "hit": false,
      "t": 426545.02800000063,
      "d": 545.454000000027,
      "v": 127
    },
    {
      "midi": 51,
      "hit": false,
      "t": 426545.02800000616,
      "d": 545.454000000027,
      "v": 127
    },
    {
      "midi": 58,
      "hit": false,
      "t": 427090.48200000066,
      "d": 545.454000000027,
      "v": 127
    },
    {
      "midi": 55,
      "hit": false,
      "t": 427090.4820000062,
      "d": 272.7270000000135,
      "v": 127
    },
    {
      "midi": 55,
      "hit": false,
      "t": 427363.2090000062,
      "d": 272.7270000000135,
      "v": 127
    },
    {
      "midi": 67,
      "hit": false,
      "t": 427635.9360000007,
      "d": 545.454000000027,
      "v": 127
    },
    {
      "midi": 72,
      "hit": false,
      "t": 427635.9360000007,
      "d": 545.454000000027,
      "v": 127
    },
    {
      "midi": 51,
      "hit": false,
      "t": 427635.9360000062,
      "d": 545.454000000027,
      "v": 127
    },
    {
      "midi": 60,
      "hit": false,
      "t": 428181.3900000007,
      "d": 545.454000000027,
      "v": 127
    },
    {
      "midi": 55,
      "hit": false,
      "t": 428181.39000000624,
      "d": 272.7270000000135,
      "v": 127
    },
    {
      "midi": 55,
      "hit": false,
      "t": 428454.11700000626,
      "d": 272.7270000000135,
      "v": 127
    },
    {
      "midi": 67,
      "hit": false,
      "t": 428726.84400000074,
      "d": 545.454000000027,
      "v": 127
    },
    {
      "midi": 74,
      "hit": false,
      "t": 428726.84400000074,
      "d": 545.454000000027,
      "v": 127
    },
    {
      "midi": 50,
      "hit": false,
      "t": 428726.84400000627,
      "d": 545.454000000027,
      "v": 127
    },
    {
      "midi": 62,
      "hit": false,
      "t": 429272.29800000077,
      "d": 545.454000000027,
      "v": 127
    },
    {
      "midi": 55,
      "hit": false,
      "t": 429272.2980000063,
      "d": 272.7270000000135,
      "v": 127
    },
    {
      "midi": 57,
      "hit": false,
      "t": 429272.2980000063,
      "d": 272.7270000000135,
      "v": 127
    },
    {
      "midi": 55,
      "hit": false,
      "t": 429545.0250000063,
      "d": 272.7270000000135,
      "v": 127
    },
    {
      "midi": 57,
      "hit": false,
      "t": 429545.0250000063,
      "d": 272.7270000000135,
      "v": 127
    },
    {
      "midi": 66,
      "hit": false,
      "t": 429817.7520000008,
      "d": 545.454000000027,
      "v": 127
    },
    {
      "midi": 72,
      "hit": false,
      "t": 429817.7520000008,
      "d": 545.454000000027,
      "v": 127
    },
    {
      "midi": 50,
      "hit": false,
      "t": 429817.7520000063,
      "d": 545.454000000027,
      "v": 127
    },
    {
      "midi": 60,
      "hit": false,
      "t": 430363.2060000008,
      "d": 545.454000000027,
      "v": 127
    },
    {
      "midi": 54,
      "hit": false,
      "t": 430363.20600000635,
      "d": 272.7270000000135,
      "v": 127
    },
    {
      "midi": 57,
      "hit": false,
      "t": 430363.20600000635,
      "d": 272.7270000000135,
      "v": 127
    },
    {
      "midi": 54,
      "hit": false,
      "t": 430635.93300000636,
      "d": 272.7270000000135,
      "v": 127
    },
    {
      "midi": 57,
      "hit": false,
      "t": 430635.93300000636,
      "d": 272.7270000000135,
      "v": 127
    },
    {
      "midi": 67,
      "hit": false,
      "t": 430908.66000000085,
      "d": 545.454000000027,
      "v": 127
    },
    {
      "midi": 70,
      "hit": false,
      "t": 430908.66000000085,
      "d": 545.454000000027,
      "v": 127
    },
    {
      "midi": 55,
      "hit": false,
      "t": 430908.6600000064,
      "d": 545.454000000027,
      "v": 127
    },
    {
      "midi": 62,
      "hit": false,
      "t": 431454.1140000009,
      "d": 545.454000000027,
      "v": 127
    },
    {
      "midi": 58,
      "hit": false,
      "t": 431454.1140000064,
      "d": 272.7270000000135,
      "v": 127
    },
    {
      "midi": 58,
      "hit": false,
      "t": 431726.8410000064,
      "d": 272.7270000000135,
      "v": 127
    },
    {
      "midi": 67,
      "hit": false,
      "t": 431999.5680000009,
      "d": 545.454000000027,
      "v": 127
    },
    {
      "midi": 72,
      "hit": false,
      "t": 431999.5680000009,
      "d": 545.454000000027,
      "v": 127
    },
    {
      "midi": 51,
      "hit": false,
      "t": 431999.56800000643,
      "d": 545.454000000027,
      "v": 127
    },
    {
      "midi": 60,
      "hit": false,
      "t": 432545.0220000009,
      "d": 545.454000000027,
      "v": 127
    },
    {
      "midi": 55,
      "hit": false,
      "t": 432545.02200000646,
      "d": 272.7270000000135,
      "v": 127
    },
    {
      "midi": 57,
      "hit": false,
      "t": 432545.02200000646,
      "d": 272.7270000000135,
      "v": 127
    },
    {
      "midi": 55,
      "hit": false,
      "t": 432817.7490000065,
      "d": 272.7270000000135,
      "v": 127
    },
    {
      "midi": 57,
      "hit": false,
      "t": 432817.7490000065,
      "d": 272.7270000000135,
      "v": 127
    },
    {
      "midi": 67,
      "hit": false,
      "t": 433090.47600000096,
      "d": 545.454000000027,
      "v": 127
    },
    {
      "midi": 74,
      "hit": false,
      "t": 433090.47600000096,
      "d": 545.454000000027,
      "v": 127
    },
    {
      "midi": 50,
      "hit": false,
      "t": 433090.4760000065,
      "d": 545.454000000027,
      "v": 127
    },
    {
      "midi": 60,
      "hit": false,
      "t": 433635.930000001,
      "d": 545.454000000027,
      "v": 127
    },
    {
      "midi": 55,
      "hit": false,
      "t": 433635.9300000065,
      "d": 272.7270000000135,
      "v": 127
    },
    {
      "midi": 57,
      "hit": false,
      "t": 433635.9300000065,
      "d": 272.7270000000135,
      "v": 127
    },
    {
      "midi": 55,
      "hit": false,
      "t": 433908.6570000065,
      "d": 272.7270000000135,
      "v": 127
    },
    {
      "midi": 57,
      "hit": false,
      "t": 433908.6570000065,
      "d": 272.7270000000135,
      "v": 127
    },
    {
      "midi": 66,
      "hit": false,
      "t": 434181.384000001,
      "d": 545.454000000027,
      "v": 127
    },
    {
      "midi": 74,
      "hit": false,
      "t": 434181.384000001,
      "d": 545.454000000027,
      "v": 127
    },
    {
      "midi": 50,
      "hit": false,
      "t": 434181.38400000654,
      "d": 545.454000000027,
      "v": 127
    },
    {
      "midi": 60,
      "hit": false,
      "t": 434726.83800000104,
      "d": 545.454000000027,
      "v": 127
    },
    {
      "midi": 54,
      "hit": false,
      "t": 434726.83800000657,
      "d": 272.7270000000135,
      "v": 127
    },
    {
      "midi": 57,
      "hit": false,
      "t": 434726.83800000657,
      "d": 272.7270000000135,
      "v": 127
    },
    {
      "midi": 54,
      "hit": false,
      "t": 434999.5650000066,
      "d": 272.7270000000135,
      "v": 127
    },
    {
      "midi": 57,
      "hit": false,
      "t": 434999.5650000066,
      "d": 272.7270000000135,
      "v": 127
    },
    {
      "midi": 59,
      "hit": false,
      "t": 435272.29200000106,
      "d": 545.454000000027,
      "v": 127
    },
    {
      "midi": 62,
      "hit": false,
      "t": 435272.29200000106,
      "d": 545.454000000027,
      "v": 127
    },
    {
      "midi": 67,
      "hit": false,
      "t": 435272.29200000106,
      "d": 545.454000000027,
      "v": 127
    },
    {
      "midi": 71,
      "hit": false,
      "t": 435272.29200000106,
      "d": 545.454000000027,
      "v": 127
    },
    {
      "midi": 43,
      "hit": false,
      "t": 435545.0190000066,
      "d": 272.7270000000135,
      "v": 127
    },
    {
      "midi": 47,
      "hit": false,
      "t": 435545.0190000066,
      "d": 272.7270000000135,
      "v": 127
    },
    {
      "midi": 50,
      "hit": false,
      "t": 435545.0190000066,
      "d": 272.7270000000135,
      "v": 127
    },
    {
      "midi": 55,
      "hit": false,
      "t": 435545.0190000066,
      "d": 272.7270000000135,
      "v": 127
    },
    {
      "midi": 74,
      "hit": false,
      "t": 435817.7460000011,
      "d": 545.454000000027,
      "v": 127
    },
    {
      "midi": 43,
      "hit": false,
      "t": 436090.47300000663,
      "d": 272.7270000000135,
      "v": 127
    },
    {
      "midi": 47,
      "hit": false,
      "t": 436090.47300000663,
      "d": 272.7270000000135,
      "v": 127
    },
    {
      "midi": 50,
      "hit": false,
      "t": 436090.47300000663,
      "d": 272.7270000000135,
      "v": 127
    },
    {
      "midi": 55,
      "hit": false,
      "t": 436090.47300000663,
      "d": 272.7270000000135,
      "v": 127
    },
    {
      "midi": 79,
      "hit": false,
      "t": 436363.2000000011,
      "d": 545.454000000027,
      "v": 127
    },
    {
      "midi": 43,
      "hit": false,
      "t": 436635.92700000666,
      "d": 272.7270000000135,
      "v": 127
    },
    {
      "midi": 47,
      "hit": false,
      "t": 436635.92700000666,
      "d": 272.7270000000135,
      "v": 127
    },
    {
      "midi": 50,
      "hit": false,
      "t": 436635.92700000666,
      "d": 272.7270000000135,
      "v": 127
    },
    {
      "midi": 55,
      "hit": false,
      "t": 436635.92700000666,
      "d": 272.7270000000135,
      "v": 127
    },
    {
      "midi": 83,
      "hit": false,
      "t": 436908.65400000114,
      "d": 545.454000000027,
      "v": 127
    },
    {
      "midi": 43,
      "hit": false,
      "t": 437181.3810000067,
      "d": 272.7270000000135,
      "v": 127
    },
    {
      "midi": 47,
      "hit": false,
      "t": 437181.3810000067,
      "d": 272.7270000000135,
      "v": 127
    },
    {
      "midi": 50,
      "hit": false,
      "t": 437181.3810000067,
      "d": 272.7270000000135,
      "v": 127
    },
    {
      "midi": 55,
      "hit": false,
      "t": 437181.3810000067,
      "d": 272.7270000000135,
      "v": 127
    },
    {
      "midi": 84,
      "hit": false,
      "t": 437454.1080000012,
      "d": 136.36349999997765,
      "v": 127
    },
    {
      "midi": 86,
      "hit": false,
      "t": 437590.47150000115,
      "d": 136.36349999997765,
      "v": 127
    },
    {
      "midi": 84,
      "hit": false,
      "t": 437726.8350000011,
      "d": 136.36349999997765,
      "v": 127
    },
    {
      "midi": 43,
      "hit": false,
      "t": 437726.8350000067,
      "d": 272.7270000000135,
      "v": 127
    },
    {
      "midi": 48,
      "hit": false,
      "t": 437726.8350000067,
      "d": 272.7270000000135,
      "v": 127
    },
    {
      "midi": 50,
      "hit": false,
      "t": 437726.8350000067,
      "d": 272.7270000000135,
      "v": 127
    },
    {
      "midi": 54,
      "hit": false,
      "t": 437726.8350000067,
      "d": 272.7270000000135,
      "v": 127
    },
    {
      "midi": 83,
      "hit": false,
      "t": 437863.1985000011,
      "d": 136.36349999997765,
      "v": 127
    },
    {
      "midi": 81,
      "hit": false,
      "t": 437999.5620000011,
      "d": 136.36349999997765,
      "v": 127
    },
    {
      "midi": 83,
      "hit": false,
      "t": 438135.92550000106,
      "d": 136.36349999997765,
      "v": 127
    },
    {
      "midi": 81,
      "hit": false,
      "t": 438272.28900000104,
      "d": 136.36349999997765,
      "v": 127
    },
    {
      "midi": 43,
      "hit": false,
      "t": 438272.28900000674,
      "d": 272.7270000000135,
      "v": 127
    },
    {
      "midi": 48,
      "hit": false,
      "t": 438272.28900000674,
      "d": 272.7270000000135,
      "v": 127
    },
    {
      "midi": 50,
      "hit": false,
      "t": 438272.28900000674,
      "d": 272.7270000000135,
      "v": 127
    },
    {
      "midi": 54,
      "hit": false,
      "t": 438272.28900000674,
      "d": 272.7270000000135,
      "v": 127
    },
    {
      "midi": 79,
      "hit": false,
      "t": 438408.652500001,
      "d": 136.36349999997765,
      "v": 127
    },
    {
      "midi": 78,
      "hit": false,
      "t": 438545.016000001,
      "d": 136.36349999997765,
      "v": 127
    },
    {
      "midi": 79,
      "hit": false,
      "t": 438681.37950000097,
      "d": 136.36349999997765,
      "v": 127
    },
    {
      "midi": 78,
      "hit": false,
      "t": 438817.74300000095,
      "d": 136.36349999997765,
      "v": 127
    },
    {
      "midi": 43,
      "hit": false,
      "t": 438817.74300000677,
      "d": 272.7270000000135,
      "v": 127
    },
    {
      "midi": 48,
      "hit": false,
      "t": 438817.74300000677,
      "d": 272.7270000000135,
      "v": 127
    },
    {
      "midi": 50,
      "hit": false,
      "t": 438817.74300000677,
      "d": 272.7270000000135,
      "v": 127
    },
    {
      "midi": 54,
      "hit": false,
      "t": 438817.74300000677,
      "d": 272.7270000000135,
      "v": 127
    },
    {
      "midi": 76,
      "hit": false,
      "t": 438954.1065000009,
      "d": 136.36349999997765,
      "v": 127
    },
    {
      "midi": 74,
      "hit": false,
      "t": 439090.4700000009,
      "d": 136.36349999997765,
      "v": 127
    },
    {
      "midi": 76,
      "hit": false,
      "t": 439226.8335000009,
      "d": 136.36349999997765,
      "v": 127
    },
    {
      "midi": 74,
      "hit": false,
      "t": 439363.19700000086,
      "d": 136.36349999997765,
      "v": 127
    },
    {
      "midi": 43,
      "hit": false,
      "t": 439363.1970000068,
      "d": 272.7270000000135,
      "v": 127
    },
    {
      "midi": 48,
      "hit": false,
      "t": 439363.1970000068,
      "d": 272.7270000000135,
      "v": 127
    },
    {
      "midi": 50,
      "hit": false,
      "t": 439363.1970000068,
      "d": 272.7270000000135,
      "v": 127
    },
    {
      "midi": 54,
      "hit": false,
      "t": 439363.1970000068,
      "d": 272.7270000000135,
      "v": 127
    },
    {
      "midi": 72,
      "hit": false,
      "t": 439499.56050000084,
      "d": 136.36349999997765,
      "v": 127
    },
    {
      "midi": 59,
      "hit": false,
      "t": 439635.9240000008,
      "d": 545.454000000027,
      "v": 127
    },
    {
      "midi": 62,
      "hit": false,
      "t": 439635.9240000008,
      "d": 545.454000000027,
      "v": 127
    },
    {
      "midi": 67,
      "hit": false,
      "t": 439635.9240000008,
      "d": 545.454000000027,
      "v": 127
    },
    {
      "midi": 71,
      "hit": false,
      "t": 439635.9240000008,
      "d": 545.454000000027,
      "v": 127
    },
    {
      "midi": 43,
      "hit": false,
      "t": 439908.6510000068,
      "d": 272.7270000000135,
      "v": 127
    },
    {
      "midi": 47,
      "hit": false,
      "t": 439908.6510000068,
      "d": 272.7270000000135,
      "v": 127
    },
    {
      "midi": 50,
      "hit": false,
      "t": 439908.6510000068,
      "d": 272.7270000000135,
      "v": 127
    },
    {
      "midi": 55,
      "hit": false,
      "t": 439908.6510000068,
      "d": 272.7270000000135,
      "v": 127
    },
    {
      "midi": 62,
      "hit": false,
      "t": 440181.37800000084,
      "d": 545.454000000027,
      "v": 127
    },
    {
      "midi": 67,
      "hit": false,
      "t": 440181.37800000084,
      "d": 545.454000000027,
      "v": 127
    },
    {
      "midi": 71,
      "hit": false,
      "t": 440181.37800000084,
      "d": 545.454000000027,
      "v": 127
    },
    {
      "midi": 74,
      "hit": false,
      "t": 440181.37800000084,
      "d": 545.454000000027,
      "v": 127
    },
    {
      "midi": 43,
      "hit": false,
      "t": 440454.10500000685,
      "d": 272.7270000000135,
      "v": 127
    },
    {
      "midi": 47,
      "hit": false,
      "t": 440454.10500000685,
      "d": 272.7270000000135,
      "v": 127
    },
    {
      "midi": 50,
      "hit": false,
      "t": 440454.10500000685,
      "d": 272.7270000000135,
      "v": 127
    },
    {
      "midi": 55,
      "hit": false,
      "t": 440454.10500000685,
      "d": 272.7270000000135,
      "v": 127
    },
    {
      "midi": 67,
      "hit": false,
      "t": 440726.83200000087,
      "d": 545.454000000027,
      "v": 127
    },
    {
      "midi": 71,
      "hit": false,
      "t": 440726.83200000087,
      "d": 545.454000000027,
      "v": 127
    },
    {
      "midi": 74,
      "hit": false,
      "t": 440726.83200000087,
      "d": 545.454000000027,
      "v": 127
    },
    {
      "midi": 79,
      "hit": false,
      "t": 440726.83200000087,
      "d": 545.454000000027,
      "v": 127
    },
    {
      "midi": 43,
      "hit": false,
      "t": 440999.5590000069,
      "d": 272.7270000000135,
      "v": 127
    },
    {
      "midi": 47,
      "hit": false,
      "t": 440999.5590000069,
      "d": 272.7270000000135,
      "v": 127
    },
    {
      "midi": 50,
      "hit": false,
      "t": 440999.5590000069,
      "d": 272.7270000000135,
      "v": 127
    },
    {
      "midi": 55,
      "hit": false,
      "t": 440999.5590000069,
      "d": 272.7270000000135,
      "v": 127
    },
    {
      "midi": 71,
      "hit": false,
      "t": 441272.2860000009,
      "d": 545.454000000027,
      "v": 127
    },
    {
      "midi": 74,
      "hit": false,
      "t": 441272.2860000009,
      "d": 545.454000000027,
      "v": 127
    },
    {
      "midi": 79,
      "hit": false,
      "t": 441272.2860000009,
      "d": 545.454000000027,
      "v": 127
    },
    {
      "midi": 83,
      "hit": false,
      "t": 441272.2860000009,
      "d": 545.454000000027,
      "v": 127
    },
    {
      "midi": 43,
      "hit": false,
      "t": 441545.0130000069,
      "d": 272.7270000000135,
      "v": 127
    },
    {
      "midi": 47,
      "hit": false,
      "t": 441545.0130000069,
      "d": 272.7270000000135,
      "v": 127
    },
    {
      "midi": 50,
      "hit": false,
      "t": 441545.0130000069,
      "d": 272.7270000000135,
      "v": 127
    },
    {
      "midi": 55,
      "hit": false,
      "t": 441545.0130000069,
      "d": 272.7270000000135,
      "v": 127
    },
    {
      "midi": 84,
      "hit": false,
      "t": 441817.7400000009,
      "d": 136.36349999997765,
      "v": 127
    },
    {
      "midi": 86,
      "hit": false,
      "t": 441954.1035000009,
      "d": 136.36349999997765,
      "v": 127
    },
    {
      "midi": 84,
      "hit": false,
      "t": 442090.4670000009,
      "d": 136.36349999997765,
      "v": 127
    },
    {
      "midi": 43,
      "hit": false,
      "t": 442090.46700000693,
      "d": 272.7270000000135,
      "v": 127
    },
    {
      "midi": 48,
      "hit": false,
      "t": 442090.46700000693,
      "d": 272.7270000000135,
      "v": 127
    },
    {
      "midi": 50,
      "hit": false,
      "t": 442090.46700000693,
      "d": 272.7270000000135,
      "v": 127
    },
    {
      "midi": 54,
      "hit": false,
      "t": 442090.46700000693,
      "d": 272.7270000000135,
      "v": 127
    },
    {
      "midi": 83,
      "hit": false,
      "t": 442226.83050000085,
      "d": 136.36349999997765,
      "v": 127
    },
    {
      "midi": 81,
      "hit": false,
      "t": 442363.19400000083,
      "d": 136.36349999997765,
      "v": 127
    },
    {
      "midi": 83,
      "hit": false,
      "t": 442499.5575000008,
      "d": 136.36349999997765,
      "v": 127
    },
    {
      "midi": 84,
      "hit": false,
      "t": 442635.9210000008,
      "d": 136.36349999997765,
      "v": 127
    },
    {
      "midi": 43,
      "hit": false,
      "t": 442635.92100000696,
      "d": 272.7270000000135,
      "v": 127
    },
    {
      "midi": 48,
      "hit": false,
      "t": 442635.92100000696,
      "d": 272.7270000000135,
      "v": 127
    },
    {
      "midi": 50,
      "hit": false,
      "t": 442635.92100000696,
      "d": 272.7270000000135,
      "v": 127
    },
    {
      "midi": 54,
      "hit": false,
      "t": 442635.92100000696,
      "d": 272.7270000000135,
      "v": 127
    },
    {
      "midi": 81,
      "hit": false,
      "t": 442772.28450000077,
      "d": 136.36349999997765,
      "v": 127
    },
    {
      "midi": 67,
      "hit": false,
      "t": 442908.64800000074,
      "d": 545.454000000027,
      "v": 127
    },
    {
      "midi": 71,
      "hit": false,
      "t": 442908.64800000074,
      "d": 545.454000000027,
      "v": 127
    },
    {
      "midi": 74,
      "hit": false,
      "t": 442908.64800000074,
      "d": 545.454000000027,
      "v": 127
    },
    {
      "midi": 79,
      "hit": false,
      "t": 442908.64800000074,
      "d": 545.454000000027,
      "v": 127
    },
    {
      "midi": 43,
      "hit": false,
      "t": 443181.375000007,
      "d": 272.7270000000135,
      "v": 127
    },
    {
      "midi": 47,
      "hit": false,
      "t": 443181.375000007,
      "d": 272.7270000000135,
      "v": 127
    },
    {
      "midi": 50,
      "hit": false,
      "t": 443181.375000007,
      "d": 272.7270000000135,
      "v": 127
    },
    {
      "midi": 55,
      "hit": false,
      "t": 443181.375000007,
      "d": 272.7270000000135,
      "v": 127
    },
    {
      "midi": 59,
      "hit": false,
      "t": 443454.10200000077,
      "d": 545.454000000027,
      "v": 127
    },
    {
      "midi": 62,
      "hit": false,
      "t": 443454.10200000077,
      "d": 545.454000000027,
      "v": 127
    },
    {
      "midi": 67,
      "hit": false,
      "t": 443454.10200000077,
      "d": 545.454000000027,
      "v": 127
    },
    {
      "midi": 43,
      "hit": false,
      "t": 443726.829000007,
      "d": 272.7270000000135,
      "v": 127
    },
    {
      "midi": 47,
      "hit": false,
      "t": 443726.829000007,
      "d": 272.7270000000135,
      "v": 127
    },
    {
      "midi": 50,
      "hit": false,
      "t": 443726.829000007,
      "d": 272.7270000000135,
      "v": 127
    },
    {
      "midi": 55,
      "hit": false,
      "t": 443726.829000007,
      "d": 272.7270000000135,
      "v": 127
    },
    {
      "midi": 71,
      "hit": false,
      "t": 443999.5560000008,
      "d": 545.454000000027,
      "v": 127
    },
    {
      "midi": 76,
      "hit": false,
      "t": 443999.5560000008,
      "d": 545.454000000027,
      "v": 127
    },
    {
      "midi": 79,
      "hit": false,
      "t": 443999.5560000008,
      "d": 545.454000000027,
      "v": 127
    },
    {
      "midi": 83,
      "hit": false,
      "t": 443999.5560000008,
      "d": 545.454000000027,
      "v": 127
    },
    {
      "midi": 52,
      "hit": false,
      "t": 444272.28300000704,
      "d": 272.7270000000135,
      "v": 127
    },
    {
      "midi": 55,
      "hit": false,
      "t": 444272.28300000704,
      "d": 272.7270000000135,
      "v": 127
    },
    {
      "midi": 59,
      "hit": false,
      "t": 444272.28300000704,
      "d": 272.7270000000135,
      "v": 127
    },
    {
      "midi": 64,
      "hit": false,
      "t": 444272.28300000704,
      "d": 272.7270000000135,
      "v": 127
    },
    {
      "midi": 64,
      "hit": false,
      "t": 444545.0100000008,
      "d": 545.454000000027,
      "v": 127
    },
    {
      "midi": 67,
      "hit": false,
      "t": 444545.0100000008,
      "d": 545.454000000027,
      "v": 127
    },
    {
      "midi": 71,
      "hit": false,
      "t": 444545.0100000008,
      "d": 545.454000000027,
      "v": 127
    },
    {
      "midi": 76,
      "hit": false,
      "t": 444545.0100000008,
      "d": 545.454000000027,
      "v": 127
    },
    {
      "midi": 52,
      "hit": false,
      "t": 444817.73700000707,
      "d": 272.7270000000135,
      "v": 127
    },
    {
      "midi": 55,
      "hit": false,
      "t": 444817.73700000707,
      "d": 272.7270000000135,
      "v": 127
    },
    {
      "midi": 59,
      "hit": false,
      "t": 444817.73700000707,
      "d": 272.7270000000135,
      "v": 127
    },
    {
      "midi": 64,
      "hit": false,
      "t": 444817.73700000707,
      "d": 272.7270000000135,
      "v": 127
    },
    {
      "midi": 71,
      "hit": false,
      "t": 445090.46400000085,
      "d": 545.454000000027,
      "v": 127
    },
    {
      "midi": 76,
      "hit": false,
      "t": 445090.46400000085,
      "d": 545.454000000027,
      "v": 127
    },
    {
      "midi": 79,
      "hit": false,
      "t": 445090.46400000085,
      "d": 545.454000000027,
      "v": 127
    },
    {
      "midi": 83,
      "hit": false,
      "t": 445090.46400000085,
      "d": 545.454000000027,
      "v": 127
    },
    {
      "midi": 52,
      "hit": false,
      "t": 445363.1910000071,
      "d": 272.7270000000135,
      "v": 127
    },
    {
      "midi": 55,
      "hit": false,
      "t": 445363.1910000071,
      "d": 272.7270000000135,
      "v": 127
    },
    {
      "midi": 59,
      "hit": false,
      "t": 445363.1910000071,
      "d": 272.7270000000135,
      "v": 127
    },
    {
      "midi": 64,
      "hit": false,
      "t": 445363.1910000071,
      "d": 272.7270000000135,
      "v": 127
    },
    {
      "midi": 76,
      "hit": false,
      "t": 445635.9180000009,
      "d": 545.454000000027,
      "v": 127
    },
    {
      "midi": 79,
      "hit": false,
      "t": 445635.9180000009,
      "d": 545.454000000027,
      "v": 127
    },
    {
      "midi": 83,
      "hit": false,
      "t": 445635.9180000009,
      "d": 545.454000000027,
      "v": 127
    },
    {
      "midi": 88,
      "hit": false,
      "t": 445635.9180000009,
      "d": 545.454000000027,
      "v": 127
    },
    {
      "midi": 52,
      "hit": false,
      "t": 445908.6450000071,
      "d": 272.7270000000135,
      "v": 127
    },
    {
      "midi": 55,
      "hit": false,
      "t": 445908.6450000071,
      "d": 272.7270000000135,
      "v": 127
    },
    {
      "midi": 59,
      "hit": false,
      "t": 445908.6450000071,
      "d": 272.7270000000135,
      "v": 127
    },
    {
      "midi": 64,
      "hit": false,
      "t": 445908.6450000071,
      "d": 272.7270000000135,
      "v": 127
    },
    {
      "midi": 87,
      "hit": false,
      "t": 446181.3720000009,
      "d": 136.36349999997765,
      "v": 127
    },
    {
      "midi": 88,
      "hit": false,
      "t": 446317.7355000009,
      "d": 136.36349999997765,
      "v": 127
    },
    {
      "midi": 87,
      "hit": false,
      "t": 446454.09900000086,
      "d": 136.36349999997765,
      "v": 127
    },
    {
      "midi": 47,
      "hit": false,
      "t": 446454.09900000715,
      "d": 272.7270000000135,
      "v": 127
    },
    {
      "midi": 54,
      "hit": false,
      "t": 446454.09900000715,
      "d": 272.7270000000135,
      "v": 127
    },
    {
      "midi": 57,
      "hit": false,
      "t": 446454.09900000715,
      "d": 272.7270000000135,
      "v": 127
    },
    {
      "midi": 59,
      "hit": false,
      "t": 446454.09900000715,
      "d": 272.7270000000135,
      "v": 127
    },
    {
      "midi": 84,
      "hit": false,
      "t": 446590.46250000084,
      "d": 136.36349999997765,
      "v": 127
    },
    {
      "midi": 78,
      "hit": false,
      "t": 446726.8260000008,
      "d": 545.454000000027,
      "v": 127
    },
    {
      "midi": 81,
      "hit": false,
      "t": 446726.8260000008,
      "d": 545.454000000027,
      "v": 127
    },
    {
      "midi": 83,
      "hit": false,
      "t": 446726.8260000008,
      "d": 545.454000000027,
      "v": 127
    },
    {
      "midi": 47,
      "hit": false,
      "t": 446999.5530000072,
      "d": 272.7270000000135,
      "v": 127
    },
    {
      "midi": 54,
      "hit": false,
      "t": 446999.5530000072,
      "d": 272.7270000000135,
      "v": 127
    },
    {
      "midi": 57,
      "hit": false,
      "t": 446999.5530000072,
      "d": 272.7270000000135,
      "v": 127
    },
    {
      "midi": 59,
      "hit": false,
      "t": 446999.5530000072,
      "d": 272.7270000000135,
      "v": 127
    },
    {
      "midi": 87,
      "hit": false,
      "t": 447272.28000000084,
      "d": 136.36349999997765,
      "v": 127
    },
    {
      "midi": 88,
      "hit": false,
      "t": 447408.6435000008,
      "d": 136.36349999997765,
      "v": 127
    },
    {
      "midi": 87,
      "hit": false,
      "t": 447545.0070000008,
      "d": 136.36349999997765,
      "v": 127
    },
    {
      "midi": 47,
      "hit": false,
      "t": 447545.0070000072,
      "d": 272.7270000000135,
      "v": 127
    },
    {
      "midi": 54,
      "hit": false,
      "t": 447545.0070000072,
      "d": 272.7270000000135,
      "v": 127
    },
    {
      "midi": 57,
      "hit": false,
      "t": 447545.0070000072,
      "d": 272.7270000000135,
      "v": 127
    },
    {
      "midi": 59,
      "hit": false,
      "t": 447545.0070000072,
      "d": 272.7270000000135,
      "v": 127
    },
    {
      "midi": 84,
      "hit": false,
      "t": 447681.3705000008,
      "d": 136.36349999997765,
      "v": 127
    },
    {
      "midi": 78,
      "hit": false,
      "t": 447817.73400000075,
      "d": 545.454000000027,
      "v": 127
    },
    {
      "midi": 81,
      "hit": false,
      "t": 447817.73400000075,
      "d": 545.454000000027,
      "v": 127
    },
    {
      "midi": 83,
      "hit": false,
      "t": 447817.73400000075,
      "d": 545.454000000027,
      "v": 127
    },
    {
      "midi": 47,
      "hit": false,
      "t": 448090.4610000072,
      "d": 272.7270000000135,
      "v": 127
    },
    {
      "midi": 54,
      "hit": false,
      "t": 448090.4610000072,
      "d": 272.7270000000135,
      "v": 127
    },
    {
      "midi": 57,
      "hit": false,
      "t": 448090.4610000072,
      "d": 272.7270000000135,
      "v": 127
    },
    {
      "midi": 59,
      "hit": false,
      "t": 448090.4610000072,
      "d": 272.7270000000135,
      "v": 127
    },
    {
      "midi": 71,
      "hit": false,
      "t": 448363.1880000008,
      "d": 545.454000000027,
      "v": 127
    },
    {
      "midi": 76,
      "hit": false,
      "t": 448363.1880000008,
      "d": 545.454000000027,
      "v": 127
    },
    {
      "midi": 79,
      "hit": false,
      "t": 448363.1880000008,
      "d": 545.454000000027,
      "v": 127
    },
    {
      "midi": 83,
      "hit": false,
      "t": 448363.1880000008,
      "d": 545.454000000027,
      "v": 127
    },
    {
      "midi": 40,
      "hit": false,
      "t": 448635.91500000726,
      "d": 272.7270000000135,
      "v": 127
    },
    {
      "midi": 43,
      "hit": false,
      "t": 448635.91500000726,
      "d": 272.7270000000135,
      "v": 127
    },
    {
      "midi": 47,
      "hit": false,
      "t": 448635.91500000726,
      "d": 272.7270000000135,
      "v": 127
    },
    {
      "midi": 52,
      "hit": false,
      "t": 448635.91500000726,
      "d": 272.7270000000135,
      "v": 127
    },
    {
      "midi": 64,
      "hit": false,
      "t": 448908.6420000008,
      "d": 545.454000000027,
      "v": 127
    },
    {
      "midi": 67,
      "hit": false,
      "t": 448908.6420000008,
      "d": 545.454000000027,
      "v": 127
    },
    {
      "midi": 71,
      "hit": false,
      "t": 448908.6420000008,
      "d": 545.454000000027,
      "v": 127
    },
    {
      "midi": 76,
      "hit": false,
      "t": 448908.6420000008,
      "d": 545.454000000027,
      "v": 127
    },
    {
      "midi": 40,
      "hit": false,
      "t": 449181.3690000073,
      "d": 272.7270000000135,
      "v": 127
    },
    {
      "midi": 43,
      "hit": false,
      "t": 449181.3690000073,
      "d": 272.7270000000135,
      "v": 127
    },
    {
      "midi": 47,
      "hit": false,
      "t": 449181.3690000073,
      "d": 272.7270000000135,
      "v": 127
    },
    {
      "midi": 52,
      "hit": false,
      "t": 449181.3690000073,
      "d": 272.7270000000135,
      "v": 127
    },
    {
      "midi": 71,
      "hit": false,
      "t": 449454.09600000083,
      "d": 545.454000000027,
      "v": 127
    },
    {
      "midi": 76,
      "hit": false,
      "t": 449454.09600000083,
      "d": 545.454000000027,
      "v": 127
    },
    {
      "midi": 79,
      "hit": false,
      "t": 449454.09600000083,
      "d": 545.454000000027,
      "v": 127
    },
    {
      "midi": 83,
      "hit": false,
      "t": 449454.09600000083,
      "d": 545.454000000027,
      "v": 127
    },
    {
      "midi": 40,
      "hit": false,
      "t": 449726.8230000073,
      "d": 272.7270000000135,
      "v": 127
    },
    {
      "midi": 43,
      "hit": false,
      "t": 449726.8230000073,
      "d": 272.7270000000135,
      "v": 127
    },
    {
      "midi": 47,
      "hit": false,
      "t": 449726.8230000073,
      "d": 272.7270000000135,
      "v": 127
    },
    {
      "midi": 52,
      "hit": false,
      "t": 449726.8230000073,
      "d": 272.7270000000135,
      "v": 127
    },
    {
      "midi": 76,
      "hit": false,
      "t": 449999.55000000086,
      "d": 545.454000000027,
      "v": 127
    },
    {
      "midi": 79,
      "hit": false,
      "t": 449999.55000000086,
      "d": 545.454000000027,
      "v": 127
    },
    {
      "midi": 83,
      "hit": false,
      "t": 449999.55000000086,
      "d": 545.454000000027,
      "v": 127
    },
    {
      "midi": 88,
      "hit": false,
      "t": 449999.55000000086,
      "d": 545.454000000027,
      "v": 127
    },
    {
      "midi": 40,
      "hit": false,
      "t": 450272.27700000734,
      "d": 272.7270000000135,
      "v": 127
    },
    {
      "midi": 43,
      "hit": false,
      "t": 450272.27700000734,
      "d": 272.7270000000135,
      "v": 127
    },
    {
      "midi": 47,
      "hit": false,
      "t": 450272.27700000734,
      "d": 272.7270000000135,
      "v": 127
    },
    {
      "midi": 52,
      "hit": false,
      "t": 450272.27700000734,
      "d": 272.7270000000135,
      "v": 127
    },
    {
      "midi": 85,
      "hit": false,
      "t": 450545.0040000009,
      "d": 136.36349999997765,
      "v": 127
    },
    {
      "midi": 86,
      "hit": false,
      "t": 450681.36750000087,
      "d": 136.36349999997765,
      "v": 127
    },
    {
      "midi": 85,
      "hit": false,
      "t": 450817.73100000084,
      "d": 136.36349999997765,
      "v": 127
    },
    {
      "midi": 45,
      "hit": false,
      "t": 450817.73100000736,
      "d": 272.7270000000135,
      "v": 127
    },
    {
      "midi": 49,
      "hit": false,
      "t": 450817.73100000736,
      "d": 272.7270000000135,
      "v": 127
    },
    {
      "midi": 52,
      "hit": false,
      "t": 450817.73100000736,
      "d": 272.7270000000135,
      "v": 127
    },
    {
      "midi": 55,
      "hit": false,
      "t": 450817.73100000736,
      "d": 272.7270000000135,
      "v": 127
    },
    {
      "midi": 83,
      "hit": false,
      "t": 450954.0945000008,
      "d": 136.36349999997765,
      "v": 127
    },
    {
      "midi": 81,
      "hit": false,
      "t": 451090.4580000008,
      "d": 136.36349999997765,
      "v": 127
    },
    {
      "midi": 79,
      "hit": false,
      "t": 451226.8215000008,
      "d": 136.36349999997765,
      "v": 127
    },
    {
      "midi": 78,
      "hit": false,
      "t": 451363.18500000075,
      "d": 136.36349999997765,
      "v": 127
    },
    {
      "midi": 45,
      "hit": false,
      "t": 451363.1850000074,
      "d": 272.7270000000135,
      "v": 127
    },
    {
      "midi": 49,
      "hit": false,
      "t": 451363.1850000074,
      "d": 272.7270000000135,
      "v": 127
    },
    {
      "midi": 52,
      "hit": false,
      "t": 451363.1850000074,
      "d": 272.7270000000135,
      "v": 127
    },
    {
      "midi": 55,
      "hit": false,
      "t": 451363.1850000074,
      "d": 272.7270000000135,
      "v": 127
    },
    {
      "midi": 76,
      "hit": false,
      "t": 451499.54850000073,
      "d": 136.36349999997765,
      "v": 127
    },
    {
      "midi": 74,
      "hit": false,
      "t": 451635.9120000007,
      "d": 136.36349999997765,
      "v": 127
    },
    {
      "midi": 76,
      "hit": false,
      "t": 451772.2755000007,
      "d": 136.36349999997765,
      "v": 127
    },
    {
      "midi": 74,
      "hit": false,
      "t": 451908.63900000066,
      "d": 136.36349999997765,
      "v": 127
    },
    {
      "midi": 50,
      "hit": false,
      "t": 451908.6390000074,
      "d": 272.7270000000135,
      "v": 127
    },
    {
      "midi": 54,
      "hit": false,
      "t": 451908.6390000074,
      "d": 272.7270000000135,
      "v": 127
    },
    {
      "midi": 73,
      "hit": false,
      "t": 452045.00250000064,
      "d": 136.36349999997765,
      "v": 127
    },
    {
      "midi": 74,
      "hit": false,
      "t": 452181.3660000006,
      "d": 545.454000000027,
      "v": 127
    },
    {
      "midi": 50,
      "hit": false,
      "t": 452454.09300000744,
      "d": 272.7270000000135,
      "v": 127
    },
    {
      "midi": 54,
      "hit": false,
      "t": 452454.09300000744,
      "d": 272.7270000000135,
      "v": 127
    },
    {
      "midi": 57,
      "hit": false,
      "t": 452454.09300000744,
      "d": 272.7270000000135,
      "v": 127
    },
    {
      "midi": 62,
      "hit": false,
      "t": 452454.09300000744,
      "d": 272.7270000000135,
      "v": 127
    },
    {
      "midi": 59,
      "hit": false,
      "t": 452726.82000000065,
      "d": 545.454000000027,
      "v": 127
    },
    {
      "midi": 71,
      "hit": false,
      "t": 452726.82000000065,
      "d": 545.454000000027,
      "v": 127
    },
    {
      "midi": 62,
      "hit": false,
      "t": 452863.18350000744,
      "d": 136.36349999997765,
      "v": 127
    },
    {
      "midi": 59,
      "hit": false,
      "t": 452999.5470000074,
      "d": 136.36349999997765,
      "v": 127
    },
    {
      "midi": 55,
      "hit": false,
      "t": 453135.9105000074,
      "d": 136.36349999997765,
      "v": 127
    },
    {
      "midi": 62,
      "hit": false,
      "t": 453272.2740000007,
      "d": 272.7270000000135,
      "v": 127
    },
    {
      "midi": 74,
      "hit": false,
      "t": 453272.2740000007,
      "d": 272.7270000000135,
      "v": 127
    },
    {
      "midi": 50,
      "hit": false,
      "t": 453272.27400000737,
      "d": 136.36349999997765,
      "v": 127
    },
    {
      "midi": 59,
      "hit": false,
      "t": 453408.63750000735,
      "d": 136.36349999997765,
      "v": 127
    },
    {
      "midi": 62,
      "hit": false,
      "t": 453545.0010000007,
      "d": 272.7270000000135,
      "v": 127
    },
    {
      "midi": 74,
      "hit": false,
      "t": 453545.0010000007,
      "d": 272.7270000000135,
      "v": 127
    },
    {
      "midi": 55,
      "hit": false,
      "t": 453545.0010000073,
      "d": 136.36349999997765,
      "v": 127
    },
    {
      "midi": 50,
      "hit": false,
      "t": 453681.3645000073,
      "d": 136.36349999997765,
      "v": 127
    },
    {
      "midi": 67,
      "hit": false,
      "t": 453817.7280000007,
      "d": 272.7270000000135,
      "v": 127
    },
    {
      "midi": 79,
      "hit": false,
      "t": 453817.7280000007,
      "d": 272.7270000000135,
      "v": 127
    },
    {
      "midi": 47,
      "hit": false,
      "t": 453817.7280000073,
      "d": 136.36349999997765,
      "v": 127
    },
    {
      "midi": 55,
      "hit": false,
      "t": 453954.09150000726,
      "d": 136.36349999997765,
      "v": 127
    },
    {
      "midi": 67,
      "hit": false,
      "t": 454090.4550000007,
      "d": 272.7270000000135,
      "v": 127
    },
    {
      "midi": 79,
      "hit": false,
      "t": 454090.4550000007,
      "d": 272.7270000000135,
      "v": 127
    },
    {
      "midi": 50,
      "hit": false,
      "t": 454090.45500000723,
      "d": 136.36349999997765,
      "v": 127
    },
    {
      "midi": 47,
      "hit": false,
      "t": 454226.8185000072,
      "d": 136.36349999997765,
      "v": 127
    },
    {
      "midi": 71,
      "hit": false,
      "t": 454363.1820000007,
      "d": 545.454000000027,
      "v": 127
    },
    {
      "midi": 83,
      "hit": false,
      "t": 454363.1820000007,
      "d": 545.454000000027,
      "v": 127
    },
    {
      "midi": 43,
      "hit": false,
      "t": 454363.1820000072,
      "d": 136.36349999997765,
      "v": 127
    },
    {
      "midi": 50,
      "hit": false,
      "t": 454499.54550000717,
      "d": 136.36349999997765,
      "v": 127
    },
    {
      "midi": 47,
      "hit": false,
      "t": 454635.90900000714,
      "d": 136.36349999997765,
      "v": 127
    },
    {
      "midi": 43,
      "hit": false,
      "t": 454772.2725000071,
      "d": 136.36349999997765,
      "v": 127
    },
    {
      "midi": 86,
      "hit": false,
      "t": 454908.63600000076,
      "d": 136.36349999997765,
      "v": 127
    },
    {
      "midi": 38,
      "hit": false,
      "t": 454908.6360000071,
      "d": 136.36349999997765,
      "v": 127
    },
    {
      "midi": 84,
      "hit": false,
      "t": 455044.99950000073,
      "d": 136.36349999997765,
      "v": 127
    },
    {
      "midi": 42,
      "hit": false,
      "t": 455044.9995000071,
      "d": 136.36349999997765,
      "v": 127
    },
    {
      "midi": 86,
      "hit": false,
      "t": 455181.3630000007,
      "d": 136.36349999997765,
      "v": 127
    },
    {
      "midi": 45,
      "hit": false,
      "t": 455181.36300000706,
      "d": 136.36349999997765,
      "v": 127
    },
    {
      "midi": 84,
      "hit": false,
      "t": 455317.7265000007,
      "d": 136.36349999997765,
      "v": 127
    },
    {
      "midi": 50,
      "hit": false,
      "t": 455317.72650000703,
      "d": 136.36349999997765,
      "v": 127
    },
    {
      "midi": 81,
      "hit": false,
      "t": 455454.09000000067,
      "d": 545.454000000027,
      "v": 127
    },
    {
      "midi": 42,
      "hit": false,
      "t": 455454.090000007,
      "d": 136.36349999997765,
      "v": 127
    },
    {
      "midi": 45,
      "hit": false,
      "t": 455590.453500007,
      "d": 136.36349999997765,
      "v": 127
    },
    {
      "midi": 50,
      "hit": false,
      "t": 455726.81700000697,
      "d": 136.36349999997765,
      "v": 127
    },
    {
      "midi": 54,
      "hit": false,
      "t": 455863.18050000694,
      "d": 136.36349999997765,
      "v": 127
    },
    {
      "midi": 86,
      "hit": false,
      "t": 455999.5440000007,
      "d": 136.36349999997765,
      "v": 127
    },
    {
      "midi": 45,
      "hit": false,
      "t": 455999.5440000069,
      "d": 136.36349999997765,
      "v": 127
    },
    {
      "midi": 84,
      "hit": false,
      "t": 456135.90750000067,
      "d": 136.36349999997765,
      "v": 127
    },
    {
      "midi": 50,
      "hit": false,
      "t": 456135.9075000069,
      "d": 136.36349999997765,
      "v": 127
    },
    {
      "midi": 86,
      "hit": false,
      "t": 456272.27100000065,
      "d": 136.36349999997765,
      "v": 127
    },
    {
      "midi": 54,
      "hit": false,
      "t": 456272.2710000069,
      "d": 136.36349999997765,
      "v": 127
    },
    {
      "midi": 84,
      "hit": false,
      "t": 456408.6345000006,
      "d": 136.36349999997765,
      "v": 127
    },
    {
      "midi": 57,
      "hit": false,
      "t": 456408.63450000685,
      "d": 136.36349999997765,
      "v": 127
    },
    {
      "midi": 81,
      "hit": false,
      "t": 456544.9980000006,
      "d": 545.454000000027,
      "v": 127
    },
    {
      "midi": 50,
      "hit": false,
      "t": 456544.99800000683,
      "d": 136.36349999997765,
      "v": 127
    },
    {
      "midi": 54,
      "hit": false,
      "t": 456681.3615000068,
      "d": 136.36349999997765,
      "v": 127
    },
    {
      "midi": 57,
      "hit": false,
      "t": 456817.7250000068,
      "d": 136.36349999997765,
      "v": 127
    },
    {
      "midi": 60,
      "hit": false,
      "t": 456954.08850000676,
      "d": 136.36349999997765,
      "v": 127
    },
    {
      "midi": 59,
      "hit": false,
      "t": 457090.45200000063,
      "d": 545.454000000027,
      "v": 127
    },
    {
      "midi": 71,
      "hit": false,
      "t": 457090.45200000063,
      "d": 545.454000000027,
      "v": 127
    },
    {
      "midi": 62,
      "hit": false,
      "t": 457226.8155000067,
      "d": 136.36349999997765,
      "v": 127
    },
    {
      "midi": 59,
      "hit": false,
      "t": 457363.1790000067,
      "d": 136.36349999997765,
      "v": 127
    },
    {
      "midi": 55,
      "hit": false,
      "t": 457499.5425000067,
      "d": 136.36349999997765,
      "v": 127
    },
    {
      "midi": 62,
      "hit": false,
      "t": 457635.90600000066,
      "d": 272.7270000000135,
      "v": 127
    },
    {
      "midi": 74,
      "hit": false,
      "t": 457635.90600000066,
      "d": 272.7270000000135,
      "v": 127
    },
    {
      "midi": 50,
      "hit": false,
      "t": 457635.90600000665,
      "d": 136.36349999997765,
      "v": 127
    },
    {
      "midi": 59,
      "hit": false,
      "t": 457772.26950000663,
      "d": 136.36349999997765,
      "v": 127
    },
    {
      "midi": 62,
      "hit": false,
      "t": 457908.6330000007,
      "d": 272.7270000000135,
      "v": 127
    },
    {
      "midi": 74,
      "hit": false,
      "t": 457908.6330000007,
      "d": 272.7270000000135,
      "v": 127
    },
    {
      "midi": 55,
      "hit": false,
      "t": 457908.6330000066,
      "d": 136.36349999997765,
      "v": 127
    },
    {
      "midi": 50,
      "hit": false,
      "t": 458044.9965000066,
      "d": 136.36349999997765,
      "v": 127
    },
    {
      "midi": 67,
      "hit": false,
      "t": 458181.3600000007,
      "d": 272.7270000000135,
      "v": 127
    },
    {
      "midi": 79,
      "hit": false,
      "t": 458181.3600000007,
      "d": 272.7270000000135,
      "v": 127
    },
    {
      "midi": 47,
      "hit": false,
      "t": 458181.36000000656,
      "d": 136.36349999997765,
      "v": 127
    },
    {
      "midi": 55,
      "hit": false,
      "t": 458317.72350000654,
      "d": 136.36349999997765,
      "v": 127
    },
    {
      "midi": 67,
      "hit": false,
      "t": 458454.0870000007,
      "d": 272.7270000000135,
      "v": 127
    },
    {
      "midi": 79,
      "hit": false,
      "t": 458454.0870000007,
      "d": 272.7270000000135,
      "v": 127
    },
    {
      "midi": 50,
      "hit": false,
      "t": 458454.0870000065,
      "d": 136.36349999997765,
      "v": 127
    },
    {
      "midi": 47,
      "hit": false,
      "t": 458590.4505000065,
      "d": 136.36349999997765,
      "v": 127
    },
    {
      "midi": 71,
      "hit": false,
      "t": 458726.8140000007,
      "d": 545.454000000027,
      "v": 127
    },
    {
      "midi": 83,
      "hit": false,
      "t": 458726.8140000007,
      "d": 545.454000000027,
      "v": 127
    },
    {
      "midi": 43,
      "hit": false,
      "t": 458726.8140000065,
      "d": 136.36349999997765,
      "v": 127
    },
    {
      "midi": 50,
      "hit": false,
      "t": 458863.17750000645,
      "d": 136.36349999997765,
      "v": 127
    },
    {
      "midi": 47,
      "hit": false,
      "t": 458999.54100000643,
      "d": 136.36349999997765,
      "v": 127
    },
    {
      "midi": 43,
      "hit": false,
      "t": 459135.9045000064,
      "d": 136.36349999997765,
      "v": 127
    },
    {
      "midi": 86,
      "hit": false,
      "t": 459272.26800000074,
      "d": 136.36349999997765,
      "v": 127
    },
    {
      "midi": 38,
      "hit": false,
      "t": 459272.2680000064,
      "d": 136.36349999997765,
      "v": 127
    },
    {
      "midi": 84,
      "hit": false,
      "t": 459408.6315000007,
      "d": 136.36349999997765,
      "v": 127
    },
    {
      "midi": 42,
      "hit": false,
      "t": 459408.63150000636,
      "d": 136.36349999997765,
      "v": 127
    },
    {
      "midi": 86,
      "hit": false,
      "t": 459544.9950000007,
      "d": 136.36349999997765,
      "v": 127
    },
    {
      "midi": 45,
      "hit": false,
      "t": 459544.99500000634,
      "d": 136.36349999997765,
      "v": 127
    },
    {
      "midi": 84,
      "hit": false,
      "t": 459681.3585000007,
      "d": 136.36349999997765,
      "v": 127
    },
    {
      "midi": 50,
      "hit": false,
      "t": 459681.3585000063,
      "d": 136.36349999997765,
      "v": 127
    },
    {
      "midi": 81,
      "hit": false,
      "t": 459817.72200000065,
      "d": 272.7270000000135,
      "v": 127
    },
    {
      "midi": 38,
      "hit": false,
      "t": 459817.7220000063,
      "d": 136.36349999997765,
      "v": 127
    },
    {
      "midi": 42,
      "hit": false,
      "t": 459954.0855000063,
      "d": 136.36349999997765,
      "v": 127
    },
    {
      "midi": 81,
      "hit": false,
      "t": 460090.44900000066,
      "d": 136.36349999997765,
      "v": 127
    },
    {
      "midi": 45,
      "hit": false,
      "t": 460090.44900000625,
      "d": 136.36349999997765,
      "v": 127
    },
    {
      "midi": 83,
      "hit": false,
      "t": 460226.81250000064,
      "d": 136.36349999997765,
      "v": 127
    },
    {
      "midi": 50,
      "hit": false,
      "t": 460226.8125000062,
      "d": 136.36349999997765,
      "v": 127
    },
    {
      "midi": 79,
      "hit": false,
      "t": 460363.1760000006,
      "d": 545.454000000027,
      "v": 127
    },
    {
      "midi": 43,
      "hit": false,
      "t": 460363.1760000062,
      "d": 545.454000000027,
      "v": 127
    },
    {
      "midi": 67,
      "hit": false,
      "t": 460908.63000000064,
      "d": 136.36349999997765,
      "v": 127
    },
    {
      "midi": 69,
      "hit": false,
      "t": 461044.9935000006,
      "d": 136.36349999997765,
      "v": 127
    },
    {
      "midi": 71,
      "hit": false,
      "t": 461181.3570000006,
      "d": 136.36349999997765,
      "v": 127
    },
    {
      "midi": 72,
      "hit": false,
      "t": 461317.7205000006,
      "d": 136.36349999997765,
      "v": 127
    },
    {
      "midi": 74,
      "hit": false,
      "t": 461454.08400000056,
      "d": 136.36349999997765,
      "v": 127
    },
    {
      "midi": 72,
      "hit": false,
      "t": 461590.44750000053,
      "d": 136.36349999997765,
      "v": 127
    },
    {
      "midi": 71,
      "hit": false,
      "t": 461726.8110000005,
      "d": 136.36349999997765,
      "v": 127
    },
    {
      "midi": 69,
      "hit": false,
      "t": 461863.1745000005,
      "d": 136.36349999997765,
      "v": 127
    },
    {
      "midi": 67,
      "hit": false,
      "t": 461999.53800000047,
      "d": 136.36349999997765,
      "v": 127
    },
    {
      "midi": 69,
      "hit": false,
      "t": 462135.90150000044,
      "d": 136.36349999997765,
      "v": 127
    },
    {
      "midi": 71,
      "hit": false,
      "t": 462272.2650000004,
      "d": 136.36349999997765,
      "v": 127
    },
    {
      "midi": 72,
      "hit": false,
      "t": 462408.6285000004,
      "d": 136.36349999997765,
      "v": 127
    },
    {
      "midi": 74,
      "hit": false,
      "t": 462544.9920000004,
      "d": 272.7270000000135,
      "v": 127
    },
    {
      "midi": 74,
      "hit": false,
      "t": 462817.7190000004,
      "d": 272.7270000000135,
      "v": 127
    },
    {
      "midi": 79,
      "hit": false,
      "t": 463090.4460000004,
      "d": 545.454000000027,
      "v": 127
    },
    {
      "midi": 79,
      "hit": false,
      "t": 463635.90000000043,
      "d": 545.454000000027,
      "v": 127
    },
    {
      "midi": 57,
      "hit": false,
      "t": 463635.90000000625,
      "d": 136.36349999997765,
      "v": 127
    },
    {
      "midi": 55,
      "hit": false,
      "t": 463772.26350000623,
      "d": 136.36349999997765,
      "v": 127
    },
    {
      "midi": 54,
      "hit": false,
      "t": 463908.6270000062,
      "d": 136.36349999997765,
      "v": 127
    },
    {
      "midi": 52,
      "hit": false,
      "t": 464044.9905000062,
      "d": 136.36349999997765,
      "v": 127
    },
    {
      "midi": 78,
      "hit": false,
      "t": 464181.35400000046,
      "d": 545.454000000027,
      "v": 127
    },
    {
      "midi": 50,
      "hit": false,
      "t": 464181.35400000616,
      "d": 136.36349999997765,
      "v": 127
    },
    {
      "midi": 52,
      "hit": false,
      "t": 464317.71750000614,
      "d": 136.36349999997765,
      "v": 127
    },
    {
      "midi": 54,
      "hit": false,
      "t": 464454.0810000061,
      "d": 136.36349999997765,
      "v": 127
    },
    {
      "midi": 55,
      "hit": false,
      "t": 464590.4445000061,
      "d": 136.36349999997765,
      "v": 127
    },
    {
      "midi": 57,
      "hit": false,
      "t": 464726.8080000061,
      "d": 272.7270000000135,
      "v": 127
    },
    {
      "midi": 77,
      "hit": false,
      "t": 464999.5350000005,
      "d": 272.7270000000135,
      "v": 127
    },
    {
      "midi": 57,
      "hit": false,
      "t": 464999.5350000061,
      "d": 272.7270000000135,
      "v": 127
    },
    {
      "midi": 77,
      "hit": false,
      "t": 465272.2620000005,
      "d": 272.7270000000135,
      "v": 127
    },
    {
      "midi": 62,
      "hit": false,
      "t": 465272.2620000061,
      "d": 545.454000000027,
      "v": 127
    },
    {
      "midi": 77,
      "hit": false,
      "t": 465544.9890000005,
      "d": 272.7270000000135,
      "v": 127
    },
    {
      "midi": 76,
      "hit": false,
      "t": 465817.71600000054,
      "d": 136.36349999997765,
      "v": 127
    },
    {
      "midi": 62,
      "hit": false,
      "t": 465817.7160000061,
      "d": 545.454000000027,
      "v": 127
    },
    {
      "midi": 74,
      "hit": false,
      "t": 465954.0795000005,
      "d": 136.36349999997765,
      "v": 127
    },
    {
      "midi": 72,
      "hit": false,
      "t": 466090.4430000005,
      "d": 136.36349999997765,
      "v": 127
    },
    {
      "midi": 71,
      "hit": false,
      "t": 466226.8065000005,
      "d": 136.36349999997765,
      "v": 127
    },
    {
      "midi": 69,
      "hit": false,
      "t": 466363.17000000045,
      "d": 136.36349999997765,
      "v": 127
    },
    {
      "midi": 60,
      "hit": false,
      "t": 466363.17000000615,
      "d": 545.454000000027,
      "v": 127
    },
    {
      "midi": 71,
      "hit": false,
      "t": 466499.5335000004,
      "d": 136.36349999997765,
      "v": 127
    },
    {
      "midi": 72,
      "hit": false,
      "t": 466635.8970000004,
      "d": 136.36349999997765,
      "v": 127
    },
    {
      "midi": 74,
      "hit": false,
      "t": 466772.2605000004,
      "d": 136.36349999997765,
      "v": 127
    },
    {
      "midi": 76,
      "hit": false,
      "t": 466908.62400000036,
      "d": 272.7270000000135,
      "v": 127
    },
    {
      "midi": 76,
      "hit": false,
      "t": 467181.3510000004,
      "d": 272.7270000000135,
      "v": 127
    },
    {
      "midi": 60,
      "hit": false,
      "t": 467181.3510000062,
      "d": 272.7270000000135,
      "v": 127
    },
    {
      "midi": 81,
      "hit": false,
      "t": 467454.0780000004,
      "d": 545.454000000027,
      "v": 127
    },
    {
      "midi": 60,
      "hit": false,
      "t": 467454.0780000062,
      "d": 272.7270000000135,
      "v": 127
    },
    {
      "midi": 60,
      "hit": false,
      "t": 467726.8050000062,
      "d": 272.7270000000135,
      "v": 127
    },
    {
      "midi": 81,
      "hit": false,
      "t": 467999.5320000004,
      "d": 545.454000000027,
      "v": 127
    },
    {
      "midi": 59,
      "hit": false,
      "t": 467999.53200000623,
      "d": 136.36349999997765,
      "v": 127
    },
    {
      "midi": 57,
      "hit": false,
      "t": 468135.8955000062,
      "d": 136.36349999997765,
      "v": 127
    },
    {
      "midi": 55,
      "hit": false,
      "t": 468272.2590000062,
      "d": 136.36349999997765,
      "v": 127
    },
    {
      "midi": 54,
      "hit": false,
      "t": 468408.62250000617,
      "d": 136.36349999997765,
      "v": 127
    },
    {
      "midi": 79,
      "hit": false,
      "t": 468544.98600000044,
      "d": 545.454000000027,
      "v": 127
    },
    {
      "midi": 52,
      "hit": false,
      "t": 468544.98600000615,
      "d": 136.36349999997765,
      "v": 127
    },
    {
      "midi": 54,
      "hit": false,
      "t": 468681.3495000061,
      "d": 136.36349999997765,
      "v": 127
    },
    {
      "midi": 55,
      "hit": false,
      "t": 468817.7130000061,
      "d": 136.36349999997765,
      "v": 127
    },
    {
      "midi": 57,
      "hit": false,
      "t": 468954.0765000061,
      "d": 136.36349999997765,
      "v": 127
    },
    {
      "midi": 59,
      "hit": false,
      "t": 469090.44000000606,
      "d": 272.7270000000135,
      "v": 127
    },
    {
      "midi": 79,
      "hit": false,
      "t": 469363.1670000005,
      "d": 272.7270000000135,
      "v": 127
    },
    {
      "midi": 59,
      "hit": false,
      "t": 469363.16700000607,
      "d": 272.7270000000135,
      "v": 127
    },
    {
      "midi": 79,
      "hit": false,
      "t": 469635.8940000005,
      "d": 272.7270000000135,
      "v": 127
    },
    {
      "midi": 64,
      "hit": false,
      "t": 469635.8940000061,
      "d": 545.454000000027,
      "v": 127
    },
    {
      "midi": 79,
      "hit": false,
      "t": 469908.6210000005,
      "d": 272.7270000000135,
      "v": 127
    },
    {
      "midi": 78,
      "hit": false,
      "t": 470181.3480000005,
      "d": 136.36349999997765,
      "v": 127
    },
    {
      "midi": 64,
      "hit": false,
      "t": 470181.3480000061,
      "d": 545.454000000027,
      "v": 127
    },
    {
      "midi": 76,
      "hit": false,
      "t": 470317.7115000005,
      "d": 136.36349999997765,
      "v": 127
    },
    {
      "midi": 75,
      "hit": false,
      "t": 470454.0750000005,
      "d": 136.36349999997765,
      "v": 127
    },
    {
      "midi": 73,
      "hit": false,
      "t": 470590.43850000045,
      "d": 136.36349999997765,
      "v": 127
    },
    {
      "midi": 71,
      "hit": false,
      "t": 470726.80200000043,
      "d": 136.36349999997765,
      "v": 127
    },
    {
      "midi": 63,
      "hit": false,
      "t": 470726.80200000614,
      "d": 545.454000000027,
      "v": 127
    },
    {
      "midi": 73,
      "hit": false,
      "t": 470863.1655000004,
      "d": 136.36349999997765,
      "v": 127
    },
    {
      "midi": 75,
      "hit": false,
      "t": 470999.5290000004,
      "d": 136.36349999997765,
      "v": 127
    },
    {
      "midi": 76,
      "hit": false,
      "t": 471135.89250000037,
      "d": 136.36349999997765,
      "v": 127
    },
    {
      "midi": 78,
      "hit": false,
      "t": 471272.25600000034,
      "d": 272.7270000000135,
      "v": 127
    },
    {
      "midi": 63,
      "hit": false,
      "t": 471272.25600000616,
      "d": 1090.9079999999958,
      "v": 127
    },
    {
      "midi": 66,
      "hit": false,
      "t": 471272.25600000616,
      "d": 1090.9079999999958,
      "v": 127
    },
    {
      "midi": 71,
      "hit": false,
      "t": 471272.25600000616,
      "d": 1090.9079999999958,
      "v": 127
    },
    {
      "midi": 78,
      "hit": false,
      "t": 471544.98300000036,
      "d": 272.7270000000135,
      "v": 127
    },
    {
      "midi": 83,
      "hit": false,
      "t": 471817.71000000037,
      "d": 545.454000000027,
      "v": 127
    },
    {
      "midi": 80,
      "hit": false,
      "t": 472363.1640000004,
      "d": 272.7270000000135,
      "v": 127
    },
    {
      "midi": 62,
      "hit": false,
      "t": 472363.16400000616,
      "d": 1090.9079999999958,
      "v": 127
    },
    {
      "midi": 64,
      "hit": false,
      "t": 472363.16400000616,
      "d": 1090.9079999999958,
      "v": 127
    },
    {
      "midi": 71,
      "hit": false,
      "t": 472363.16400000616,
      "d": 1090.9079999999958,
      "v": 127
    },
    {
      "midi": 80,
      "hit": false,
      "t": 472635.8910000004,
      "d": 272.7270000000135,
      "v": 127
    },
    {
      "midi": 88,
      "hit": false,
      "t": 472908.6180000004,
      "d": 545.454000000027,
      "v": 127
    },
    {
      "midi": 76,
      "hit": false,
      "t": 473454.07200000045,
      "d": 272.7270000000135,
      "v": 127
    },
    {
      "midi": 61,
      "hit": false,
      "t": 473454.07200000616,
      "d": 1090.9079999999958,
      "v": 127
    },
    {
      "midi": 67,
      "hit": false,
      "t": 473454.07200000616,
      "d": 1090.9079999999958,
      "v": 127
    },
    {
      "midi": 69,
      "hit": false,
      "t": 473454.07200000616,
      "d": 1090.9079999999958,
      "v": 127
    },
    {
      "midi": 76,
      "hit": false,
      "t": 473726.79900000046,
      "d": 272.7270000000135,
      "v": 127
    },
    {
      "midi": 81,
      "hit": false,
      "t": 473999.5260000005,
      "d": 545.454000000027,
      "v": 127
    },
    {
      "midi": 78,
      "hit": false,
      "t": 474544.9800000005,
      "d": 272.7270000000135,
      "v": 127
    },
    {
      "midi": 60,
      "hit": false,
      "t": 474544.98000000615,
      "d": 1090.9079999999958,
      "v": 127
    },
    {
      "midi": 62,
      "hit": false,
      "t": 474544.98000000615,
      "d": 1090.9079999999958,
      "v": 127
    },
    {
      "midi": 69,
      "hit": false,
      "t": 474544.98000000615,
      "d": 1090.9079999999958,
      "v": 127
    },
    {
      "midi": 78,
      "hit": false,
      "t": 474817.7070000005,
      "d": 272.7270000000135,
      "v": 127
    },
    {
      "midi": 86,
      "hit": false,
      "t": 475090.43400000053,
      "d": 545.454000000027,
      "v": 127
    },
    {
      "midi": 74,
      "hit": false,
      "t": 475635.88800000056,
      "d": 272.7270000000135,
      "v": 127
    },
    {
      "midi": 59,
      "hit": false,
      "t": 475635.88800000615,
      "d": 1090.9079999999958,
      "v": 127
    },
    {
      "midi": 62,
      "hit": false,
      "t": 475635.88800000615,
      "d": 1090.9079999999958,
      "v": 127
    },
    {
      "midi": 67,
      "hit": false,
      "t": 475635.88800000615,
      "d": 1090.9079999999958,
      "v": 127
    },
    {
      "midi": 74,
      "hit": false,
      "t": 475908.6150000006,
      "d": 272.7270000000135,
      "v": 127
    },
    {
      "midi": 79,
      "hit": false,
      "t": 476181.3420000006,
      "d": 545.454000000027,
      "v": 127
    },
    {
      "midi": 76,
      "hit": false,
      "t": 476726.7960000006,
      "d": 272.7270000000135,
      "v": 127
    },
    {
      "midi": 48,
      "hit": false,
      "t": 476726.79600000614,
      "d": 1090.9079999999958,
      "v": 127
    },
    {
      "midi": 55,
      "hit": false,
      "t": 476726.79600000614,
      "d": 1090.9079999999958,
      "v": 127
    },
    {
      "midi": 60,
      "hit": false,
      "t": 476726.79600000614,
      "d": 1090.9079999999958,
      "v": 127
    },
    {
      "midi": 76,
      "hit": false,
      "t": 476999.5230000006,
      "d": 272.7270000000135,
      "v": 127
    },
    {
      "midi": 84,
      "hit": false,
      "t": 477272.25000000064,
      "d": 545.454000000027,
      "v": 127
    },
    {
      "midi": 74,
      "hit": false,
      "t": 477817.70400000067,
      "d": 272.7270000000135,
      "v": 127
    },
    {
      "midi": 50,
      "hit": false,
      "t": 477817.70400000614,
      "d": 1090.9079999999958,
      "v": 127
    },
    {
      "midi": 55,
      "hit": false,
      "t": 477817.70400000614,
      "d": 1090.9079999999958,
      "v": 127
    },
    {
      "midi": 59,
      "hit": false,
      "t": 477817.70400000614,
      "d": 1090.9079999999958,
      "v": 127
    },
    {
      "midi": 74,
      "hit": false,
      "t": 478090.4310000007,
      "d": 272.7270000000135,
      "v": 127
    },
    {
      "midi": 83,
      "hit": false,
      "t": 478363.1580000007,
      "d": 545.454000000027,
      "v": 127
    },
    {
      "midi": 72,
      "hit": false,
      "t": 478908.6120000007,
      "d": 272.7270000000135,
      "v": 127
    },
    {
      "midi": 52,
      "hit": false,
      "t": 478908.61200000613,
      "d": 1090.9079999999958,
      "v": 127
    },
    {
      "midi": 55,
      "hit": false,
      "t": 478908.61200000613,
      "d": 1090.9079999999958,
      "v": 127
    },
    {
      "midi": 60,
      "hit": false,
      "t": 478908.61200000613,
      "d": 1090.9079999999958,
      "v": 127
    },
    {
      "midi": 72,
      "hit": false,
      "t": 479181.33900000073,
      "d": 272.7270000000135,
      "v": 127
    },
    {
      "midi": 81,
      "hit": false,
      "t": 479454.06600000075,
      "d": 545.454000000027,
      "v": 127
    },
    {
      "midi": 73,
      "hit": false,
      "t": 479999.5200000008,
      "d": 272.7270000000135,
      "v": 127
    },
    {
      "midi": 51,
      "hit": false,
      "t": 479999.52000000613,
      "d": 1090.9079999999958,
      "v": 127
    },
    {
      "midi": 55,
      "hit": false,
      "t": 479999.52000000613,
      "d": 1090.9079999999958,
      "v": 127
    },
    {
      "midi": 61,
      "hit": false,
      "t": 479999.52000000613,
      "d": 1090.9079999999958,
      "v": 127
    },
    {
      "midi": 73,
      "hit": false,
      "t": 480272.2470000008,
      "d": 272.7270000000135,
      "v": 127
    },
    {
      "midi": 81,
      "hit": false,
      "t": 480544.9740000008,
      "d": 545.454000000027,
      "v": 127
    },
    {
      "midi": 71,
      "hit": false,
      "t": 481090.42800000083,
      "d": 272.7270000000135,
      "v": 127
    },
    {
      "midi": 74,
      "hit": false,
      "t": 481090.42800000083,
      "d": 272.7270000000135,
      "v": 127
    },
    {
      "midi": 83,
      "hit": false,
      "t": 481090.42800000083,
      "d": 272.7270000000135,
      "v": 127
    },
    {
      "midi": 50,
      "hit": false,
      "t": 481090.4280000061,
      "d": 545.454000000027,
      "v": 127
    },
    {
      "midi": 55,
      "hit": false,
      "t": 481090.4280000061,
      "d": 545.454000000027,
      "v": 127
    },
    {
      "midi": 59,
      "hit": false,
      "t": 481090.4280000061,
      "d": 545.454000000027,
      "v": 127
    },
    {
      "midi": 62,
      "hit": false,
      "t": 481090.4280000061,
      "d": 545.454000000027,
      "v": 127
    },
    {
      "midi": 62,
      "hit": false,
      "t": 481363.15500000084,
      "d": 272.7270000000135,
      "v": 127
    },
    {
      "midi": 67,
      "hit": false,
      "t": 481635.88200000086,
      "d": 272.7270000000135,
      "v": 127
    },
    {
      "midi": 67,
      "hit": false,
      "t": 481908.60900000087,
      "d": 272.7270000000135,
      "v": 127
    },
    {
      "midi": 71,
      "hit": false,
      "t": 482181.3360000009,
      "d": 272.7270000000135,
      "v": 127
    },
    {
      "midi": 71,
      "hit": false,
      "t": 482454.0630000009,
      "d": 272.7270000000135,
      "v": 127
    },
    {
      "midi": 74,
      "hit": false,
      "t": 482726.7900000009,
      "d": 545.454000000027,
      "v": 127
    },
    {
      "midi": 74,
      "hit": false,
      "t": 483272.24400000094,
      "d": 136.36349999997765,
      "v": 127
    },
    {
      "midi": 50,
      "hit": false,
      "t": 483272.2440000062,
      "d": 545.454000000027,
      "v": 127
    },
    {
      "midi": 72,
      "hit": false,
      "t": 483408.6075000009,
      "d": 136.36349999997765,
      "v": 127
    },
    {
      "midi": 74,
      "hit": false,
      "t": 483544.9710000009,
      "d": 136.36349999997765,
      "v": 127
    },
    {
      "midi": 72,
      "hit": false,
      "t": 483681.33450000087,
      "d": 136.36349999997765,
      "v": 127
    },
    {
      "midi": 69,
      "hit": false,
      "t": 483817.69800000085,
      "d": 545.454000000027,
      "v": 127
    },
    {
      "midi": 54,
      "hit": false,
      "t": 483817.6980000062,
      "d": 272.7270000000135,
      "v": 127
    },
    {
      "midi": 54,
      "hit": false,
      "t": 484090.4250000062,
      "d": 272.7270000000135,
      "v": 127
    },
    {
      "midi": 74,
      "hit": false,
      "t": 484363.1520000009,
      "d": 136.36349999997765,
      "v": 127
    },
    {
      "midi": 57,
      "hit": false,
      "t": 484363.15200000623,
      "d": 272.7270000000135,
      "v": 127
    },
    {
      "midi": 72,
      "hit": false,
      "t": 484499.51550000085,
      "d": 136.36349999997765,
      "v": 127
    },
    {
      "midi": 74,
      "hit": false,
      "t": 484635.87900000083,
      "d": 136.36349999997765,
      "v": 127
    },
    {
      "midi": 57,
      "hit": false,
      "t": 484635.87900000624,
      "d": 272.7270000000135,
      "v": 127
    },
    {
      "midi": 72,
      "hit": false,
      "t": 484772.2425000008,
      "d": 136.36349999997765,
      "v": 127
    },
    {
      "midi": 69,
      "hit": false,
      "t": 484908.6060000008,
      "d": 545.454000000027,
      "v": 127
    },
    {
      "midi": 60,
      "hit": false,
      "t": 484908.60600000626,
      "d": 272.7270000000135,
      "v": 127
    },
    {
      "midi": 60,
      "hit": false,
      "t": 485181.33300000627,
      "d": 272.7270000000135,
      "v": 127
    },
    {
      "midi": 67,
      "hit": false,
      "t": 485454.0600000008,
      "d": 545.454000000027,
      "v": 127
    },
    {
      "midi": 60,
      "hit": false,
      "t": 485454.0600000063,
      "d": 136.36349999997765,
      "v": 127
    },
    {
      "midi": 59,
      "hit": false,
      "t": 485590.42350000626,
      "d": 136.36349999997765,
      "v": 127
    },
    {
      "midi": 60,
      "hit": false,
      "t": 485726.78700000624,
      "d": 136.36349999997765,
      "v": 127
    },
    {
      "midi": 59,
      "hit": false,
      "t": 485863.1505000062,
      "d": 136.36349999997765,
      "v": 127
    },
    {
      "midi": 71,
      "hit": false,
      "t": 485999.51400000084,
      "d": 272.7270000000135,
      "v": 127
    },
    {
      "midi": 55,
      "hit": false,
      "t": 485999.5140000062,
      "d": 545.454000000027,
      "v": 127
    },
    {
      "midi": 71,
      "hit": false,
      "t": 486272.24100000085,
      "d": 272.7270000000135,
      "v": 127
    },
    {
      "midi": 74,
      "hit": false,
      "t": 486544.96800000087,
      "d": 272.7270000000135,
      "v": 127
    },
    {
      "midi": 60,
      "hit": false,
      "t": 486544.9680000062,
      "d": 136.36349999997765,
      "v": 127
    },
    {
      "midi": 59,
      "hit": false,
      "t": 486681.3315000062,
      "d": 136.36349999997765,
      "v": 127
    },
    {
      "midi": 74,
      "hit": false,
      "t": 486817.6950000009,
      "d": 272.7270000000135,
      "v": 127
    },
    {
      "midi": 60,
      "hit": false,
      "t": 486817.6950000062,
      "d": 136.36349999997765,
      "v": 127
    },
    {
      "midi": 59,
      "hit": false,
      "t": 486954.05850000615,
      "d": 136.36349999997765,
      "v": 127
    },
    {
      "midi": 79,
      "hit": false,
      "t": 487090.4220000009,
      "d": 272.7270000000135,
      "v": 127
    },
    {
      "midi": 55,
      "hit": false,
      "t": 487090.42200000613,
      "d": 545.454000000027,
      "v": 127
    },
    {
      "midi": 79,
      "hit": false,
      "t": 487363.1490000009,
      "d": 272.7270000000135,
      "v": 127
    },
    {
      "midi": 79,
      "hit": false,
      "t": 487635.8760000009,
      "d": 136.36349999997765,
      "v": 127
    },
    {
      "midi": 62,
      "hit": false,
      "t": 487635.87600000616,
      "d": 545.454000000027,
      "v": 127
    },
    {
      "midi": 78,
      "hit": false,
      "t": 487772.2395000009,
      "d": 136.36349999997765,
      "v": 127
    },
    {
      "midi": 79,
      "hit": false,
      "t": 487908.6030000009,
      "d": 136.36349999997765,
      "v": 127
    },
    {
      "midi": 78,
      "hit": false,
      "t": 488044.96650000085,
      "d": 136.36349999997765,
      "v": 127
    },
    {
      "midi": 74,
      "hit": false,
      "t": 488181.33000000083,
      "d": 545.454000000027,
      "v": 127
    },
    {
      "midi": 66,
      "hit": false,
      "t": 488181.3300000062,
      "d": 272.7270000000135,
      "v": 127
    },
    {
      "midi": 66,
      "hit": false,
      "t": 488454.0570000062,
      "d": 272.7270000000135,
      "v": 127
    },
    {
      "midi": 79,
      "hit": false,
      "t": 488726.78400000086,
      "d": 136.36349999997765,
      "v": 127
    },
    {
      "midi": 69,
      "hit": false,
      "t": 488726.7840000062,
      "d": 272.7270000000135,
      "v": 127
    },
    {
      "midi": 78,
      "hit": false,
      "t": 488863.14750000084,
      "d": 136.36349999997765,
      "v": 127
    },
    {
      "midi": 79,
      "hit": false,
      "t": 488999.5110000008,
      "d": 136.36349999997765,
      "v": 127
    },
    {
      "midi": 69,
      "hit": false,
      "t": 488999.5110000062,
      "d": 272.7270000000135,
      "v": 127
    },
    {
      "midi": 78,
      "hit": false,
      "t": 489135.8745000008,
      "d": 136.36349999997765,
      "v": 127
    },
    {
      "midi": 74,
      "hit": false,
      "t": 489272.23800000077,
      "d": 545.454000000027,
      "v": 127
    },
    {
      "midi": 72,
      "hit": false,
      "t": 489272.23800000624,
      "d": 272.7270000000135,
      "v": 127
    },
    {
      "midi": 72,
      "hit": false,
      "t": 489544.96500000625,
      "d": 272.7270000000135,
      "v": 127
    },
    {
      "midi": 74,
      "hit": false,
      "t": 489817.6920000008,
      "d": 545.454000000027,
      "v": 127
    },
    {
      "midi": 72,
      "hit": false,
      "t": 489817.69200000627,
      "d": 136.36349999997765,
      "v": 127
    },
    {
      "midi": 71,
      "hit": false,
      "t": 489954.05550000624,
      "d": 136.36349999997765,
      "v": 127
    },
    {
      "midi": 72,
      "hit": false,
      "t": 490090.4190000062,
      "d": 136.36349999997765,
      "v": 127
    },
    {
      "midi": 71,
      "hit": false,
      "t": 490226.7825000062,
      "d": 136.36349999997765,
      "v": 127
    },
    {
      "midi": 74,
      "hit": false,
      "t": 490363.1460000008,
      "d": 272.7270000000135,
      "v": 127
    },
    {
      "midi": 79,
      "hit": false,
      "t": 490363.1460000008,
      "d": 272.7270000000135,
      "v": 127
    },
    {
      "midi": 67,
      "hit": false,
      "t": 490363.1460000062,
      "d": 545.454000000027,
      "v": 127
    },
    {
      "midi": 74,
      "hit": false,
      "t": 490635.87300000084,
      "d": 272.7270000000135,
      "v": 127
    },
    {
      "midi": 79,
      "hit": false,
      "t": 490635.87300000084,
      "d": 272.7270000000135,
      "v": 127
    },
    {
      "midi": 79,
      "hit": false,
      "t": 490908.60000000085,
      "d": 272.7270000000135,
      "v": 127
    },
    {
      "midi": 83,
      "hit": false,
      "t": 490908.60000000085,
      "d": 272.7270000000135,
      "v": 127
    },
    {
      "midi": 72,
      "hit": false,
      "t": 490908.6000000062,
      "d": 136.36349999997765,
      "v": 127
    },
    {
      "midi": 71,
      "hit": false,
      "t": 491044.9635000062,
      "d": 136.36349999997765,
      "v": 127
    },
    {
      "midi": 79,
      "hit": false,
      "t": 491181.32700000086,
      "d": 272.7270000000135,
      "v": 127
    },
    {
      "midi": 83,
      "hit": false,
      "t": 491181.32700000086,
      "d": 272.7270000000135,
      "v": 127
    },
    {
      "midi": 72,
      "hit": false,
      "t": 491181.32700000616,
      "d": 136.36349999997765,
      "v": 127
    },
    {
      "midi": 71,
      "hit": false,
      "t": 491317.69050000614,
      "d": 136.36349999997765,
      "v": 127
    },
    {
      "midi": 83,
      "hit": false,
      "t": 491454.0540000009,
      "d": 545.454000000027,
      "v": 127
    },
    {
      "midi": 86,
      "hit": false,
      "t": 491454.0540000009,
      "d": 545.454000000027,
      "v": 127
    },
    {
      "midi": 67,
      "hit": false,
      "t": 491454.0540000061,
      "d": 545.454000000027,
      "v": 127
    },
    {
      "midi": 86,
      "hit": false,
      "t": 491999.5080000009,
      "d": 136.36349999997765,
      "v": 127
    },
    {
      "midi": 62,
      "hit": false,
      "t": 491999.50800000614,
      "d": 545.454000000027,
      "v": 127
    },
    {
      "midi": 84,
      "hit": false,
      "t": 492135.8715000009,
      "d": 136.36349999997765,
      "v": 127
    },
    {
      "midi": 86,
      "hit": false,
      "t": 492272.23500000086,
      "d": 136.36349999997765,
      "v": 127
    },
    {
      "midi": 84,
      "hit": false,
      "t": 492408.59850000084,
      "d": 136.36349999997765,
      "v": 127
    },
    {
      "midi": 81,
      "hit": false,
      "t": 492544.9620000008,
      "d": 136.36349999997765,
      "v": 127
    },
    {
      "midi": 66,
      "hit": false,
      "t": 492544.96200000617,
      "d": 272.7270000000135,
      "v": 127
    },
    {
      "midi": 74,
      "hit": false,
      "t": 492681.3255000008,
      "d": 136.36349999997765,
      "v": 127
    },
    {
      "midi": 75,
      "hit": false,
      "t": 492817.68900000077,
      "d": 136.36349999997765,
      "v": 127
    },
    {
      "midi": 66,
      "hit": false,
      "t": 492817.6890000062,
      "d": 272.7270000000135,
      "v": 127
    },
    {
      "midi": 74,
      "hit": false,
      "t": 492954.05250000075,
      "d": 136.36349999997765,
      "v": 127
    },
    {
      "midi": 86,
      "hit": false,
      "t": 493090.4160000007,
      "d": 136.36349999997765,
      "v": 127
    },
    {
      "midi": 69,
      "hit": false,
      "t": 493090.4160000062,
      "d": 272.7270000000135,
      "v": 127
    },
    {
      "midi": 84,
      "hit": false,
      "t": 493226.7795000007,
      "d": 136.36349999997765,
      "v": 127
    },
    {
      "midi": 86,
      "hit": false,
      "t": 493363.1430000007,
      "d": 136.36349999997765,
      "v": 127
    },
    {
      "midi": 69,
      "hit": false,
      "t": 493363.1430000062,
      "d": 272.7270000000135,
      "v": 127
    },
    {
      "midi": 84,
      "hit": false,
      "t": 493499.50650000066,
      "d": 136.36349999997765,
      "v": 127
    },
    {
      "midi": 81,
      "hit": false,
      "t": 493635.87000000064,
      "d": 136.36349999997765,
      "v": 127
    },
    {
      "midi": 72,
      "hit": false,
      "t": 493635.8700000062,
      "d": 545.454000000027,
      "v": 127
    },
    {
      "midi": 74,
      "hit": false,
      "t": 493772.2335000006,
      "d": 136.36349999997765,
      "v": 127
    },
    {
      "midi": 75,
      "hit": false,
      "t": 493908.5970000006,
      "d": 136.36349999997765,
      "v": 127
    },
    {
      "midi": 74,
      "hit": false,
      "t": 494044.96050000057,
      "d": 136.36349999997765,
      "v": 127
    },
    {
      "midi": 83,
      "hit": false,
      "t": 494181.32400000055,
      "d": 136.36349999997765,
      "v": 127
    },
    {
      "midi": 55,
      "hit": false,
      "t": 494181.32400000625,
      "d": 545.454000000027,
      "v": 127
    },
    {
      "midi": 74,
      "hit": false,
      "t": 494317.6875000005,
      "d": 136.36349999997765,
      "v": 127
    },
    {
      "midi": 76,
      "hit": false,
      "t": 494454.0510000005,
      "d": 136.36349999997765,
      "v": 127
    },
    {
      "midi": 74,
      "hit": false,
      "t": 494590.4145000005,
      "d": 136.36349999997765,
      "v": 127
    },
    {
      "midi": 66,
      "hit": false,
      "t": 494726.7780000063,
      "d": 136.36349999997765,
      "v": 127
    },
    {
      "midi": 67,
      "hit": false,
      "t": 494863.14150000626,
      "d": 136.36349999997765,
      "v": 127
    },
    {
      "midi": 66,
      "hit": false,
      "t": 494999.50500000623,
      "d": 136.36349999997765,
      "v": 127
    },
    {
      "midi": 67,
      "hit": false,
      "t": 495135.8685000062,
      "d": 136.36349999997765,
      "v": 127
    },
    {
      "midi": 84,
      "hit": false,
      "t": 495272.2320000005,
      "d": 136.36349999997765,
      "v": 127
    },
    {
      "midi": 55,
      "hit": false,
      "t": 495272.2320000062,
      "d": 545.454000000027,
      "v": 127
    },
    {
      "midi": 74,
      "hit": false,
      "t": 495408.59550000046,
      "d": 136.36349999997765,
      "v": 127
    },
    {
      "midi": 75,
      "hit": false,
      "t": 495544.95900000044,
      "d": 136.36349999997765,
      "v": 127
    },
    {
      "midi": 74,
      "hit": false,
      "t": 495681.3225000004,
      "d": 136.36349999997765,
      "v": 127
    },
    {
      "midi": 67,
      "hit": false,
      "t": 495817.6860000062,
      "d": 136.36349999997765,
      "v": 127
    },
    {
      "midi": 66,
      "hit": false,
      "t": 495954.0495000062,
      "d": 136.36349999997765,
      "v": 127
    },
    {
      "midi": 67,
      "hit": false,
      "t": 496090.41300000617,
      "d": 136.36349999997765,
      "v": 127
    },
    {
      "midi": 66,
      "hit": false,
      "t": 496226.77650000615,
      "d": 136.36349999997765,
      "v": 127
    },
    {
      "midi": 71,
      "hit": false,
      "t": 496363.1400000004,
      "d": 136.36349999997765,
      "v": 127
    },
    {
      "midi": 43,
      "hit": false,
      "t": 496363.1400000061,
      "d": 545.454000000027,
      "v": 127
    },
    {
      "midi": 62,
      "hit": false,
      "t": 496499.5035000004,
      "d": 136.36349999997765,
      "v": 127
    },
    {
      "midi": 64,
      "hit": false,
      "t": 496635.8670000004,
      "d": 136.36349999997765,
      "v": 127
    },
    {
      "midi": 62,
      "hit": false,
      "t": 496772.23050000035,
      "d": 136.36349999997765,
      "v": 127
    },
    {
      "midi": 54,
      "hit": false,
      "t": 496908.59400000615,
      "d": 136.36349999997765,
      "v": 127
    },
    {
      "midi": 55,
      "hit": false,
      "t": 497044.95750000613,
      "d": 136.36349999997765,
      "v": 127
    },
    {
      "midi": 54,
      "hit": false,
      "t": 497181.3210000061,
      "d": 136.36349999997765,
      "v": 127
    },
    {
      "midi": 55,
      "hit": false,
      "t": 497317.6845000061,
      "d": 136.36349999997765,
      "v": 127
    },
    {
      "midi": 72,
      "hit": false,
      "t": 497454.04800000036,
      "d": 136.36349999997765,
      "v": 127
    },
    {
      "midi": 43,
      "hit": false,
      "t": 497454.04800000606,
      "d": 545.454000000027,
      "v": 127
    },
    {
      "midi": 62,
      "hit": false,
      "t": 497590.41150000034,
      "d": 136.36349999997765,
      "v": 127
    },
    {
      "midi": 63,
      "hit": false,
      "t": 497726.7750000003,
      "d": 136.36349999997765,
      "v": 127
    },
    {
      "midi": 62,
      "hit": false,
      "t": 497863.1385000003,
      "d": 136.36349999997765,
      "v": 127
    },
    {
      "midi": 55,
      "hit": false,
      "t": 497999.5020000061,
      "d": 136.36349999997765,
      "v": 127
    },
    {
      "midi": 54,
      "hit": false,
      "t": 498135.86550000607,
      "d": 136.36349999997765,
      "v": 127
    },
    {
      "midi": 55,
      "hit": false,
      "t": 498272.22900000605,
      "d": 136.36349999997765,
      "v": 127
    },
    {
      "midi": 54,
      "hit": false,
      "t": 498408.592500006,
      "d": 136.36349999997765,
      "v": 127
    },
    {
      "midi": 59,
      "hit": false,
      "t": 498544.9560000003,
      "d": 136.36349999997765,
      "v": 127
    },
    {
      "midi": 31,
      "hit": false,
      "t": 498544.956000006,
      "d": 545.454000000027,
      "v": 127
    },
    {
      "midi": 50,
      "hit": false,
      "t": 498681.3195000003,
      "d": 136.36349999997765,
      "v": 127
    },
    {
      "midi": 52,
      "hit": false,
      "t": 498817.68300000025,
      "d": 136.36349999997765,
      "v": 127
    },
    {
      "midi": 50,
      "hit": false,
      "t": 498954.04650000023,
      "d": 136.36349999997765,
      "v": 127
    },
    {
      "midi": 42,
      "hit": false,
      "t": 499090.410000006,
      "d": 136.36349999997765,
      "v": 127
    },
    {
      "midi": 43,
      "hit": false,
      "t": 499226.773500006,
      "d": 136.36349999997765,
      "v": 127
    },
    {
      "midi": 42,
      "hit": false,
      "t": 499363.137000006,
      "d": 136.36349999997765,
      "v": 127
    },
    {
      "midi": 43,
      "hit": false,
      "t": 499499.50050000596,
      "d": 136.36349999997765,
      "v": 127
    },
    {
      "midi": 60,
      "hit": false,
      "t": 499635.86400000023,
      "d": 136.36349999997765,
      "v": 127
    },
    {
      "midi": 31,
      "hit": false,
      "t": 499635.86400000594,
      "d": 545.454000000027,
      "v": 127
    },
    {
      "midi": 50,
      "hit": false,
      "t": 499772.2275000002,
      "d": 136.36349999997765,
      "v": 127
    },
    {
      "midi": 51,
      "hit": false,
      "t": 499908.5910000002,
      "d": 136.36349999997765,
      "v": 127
    },
    {
      "midi": 50,
      "hit": false,
      "t": 500044.95450000017,
      "d": 136.36349999997765,
      "v": 127
    },
    {
      "midi": 43,
      "hit": false,
      "t": 500181.31800000597,
      "d": 136.36349999997765,
      "v": 127
    },
    {
      "midi": 42,
      "hit": false,
      "t": 500317.68150000594,
      "d": 136.36349999997765,
      "v": 127
    },
    {
      "midi": 43,
      "hit": false,
      "t": 500454.0450000059,
      "d": 136.36349999997765,
      "v": 127
    },
    {
      "midi": 42,
      "hit": false,
      "t": 500590.4085000059,
      "d": 136.36349999997765,
      "v": 127
    },
    {
      "midi": 59,
      "hit": false,
      "t": 500726.7720000002,
      "d": 136.36349999997765,
      "v": 127
    },
    {
      "midi": 31,
      "hit": false,
      "t": 500726.7720000059,
      "d": 545.454000000027,
      "v": 127
    },
    {
      "midi": 50,
      "hit": false,
      "t": 500863.13550000015,
      "d": 136.36349999997765,
      "v": 127
    },
    {
      "midi": 52,
      "hit": false,
      "t": 500999.4990000001,
      "d": 136.36349999997765,
      "v": 127
    },
    {
      "midi": 50,
      "hit": false,
      "t": 501135.8625000001,
      "d": 136.36349999997765,
      "v": 127
    },
    {
      "midi": 42,
      "hit": false,
      "t": 501272.2260000059,
      "d": 136.36349999997765,
      "v": 127
    },
    {
      "midi": 43,
      "hit": false,
      "t": 501408.5895000059,
      "d": 136.36349999997765,
      "v": 127
    },
    {
      "midi": 42,
      "hit": false,
      "t": 501544.95300000586,
      "d": 136.36349999997765,
      "v": 127
    },
    {
      "midi": 43,
      "hit": false,
      "t": 501681.31650000584,
      "d": 136.36349999997765,
      "v": 127
    },
    {
      "midi": 60,
      "hit": false,
      "t": 501817.6800000001,
      "d": 136.36349999997765,
      "v": 127
    },
    {
      "midi": 31,
      "hit": false,
      "t": 501817.6800000058,
      "d": 545.454000000027,
      "v": 127
    },
    {
      "midi": 50,
      "hit": false,
      "t": 501954.0435000001,
      "d": 136.36349999997765,
      "v": 127
    },
    {
      "midi": 51,
      "hit": false,
      "t": 502090.40700000006,
      "d": 136.36349999997765,
      "v": 127
    },
    {
      "midi": 50,
      "hit": false,
      "t": 502226.77050000004,
      "d": 136.36349999997765,
      "v": 127
    },
    {
      "midi": 42,
      "hit": false,
      "t": 502363.13400000584,
      "d": 136.36349999997765,
      "v": 127
    },
    {
      "midi": 43,
      "hit": false,
      "t": 502499.4975000058,
      "d": 136.36349999997765,
      "v": 127
    },
    {
      "midi": 42,
      "hit": false,
      "t": 502635.8610000058,
      "d": 136.36349999997765,
      "v": 127
    },
    {
      "midi": 43,
      "hit": false,
      "t": 502772.2245000058,
      "d": 136.36349999997765,
      "v": 127
    },
    {
      "midi": 59,
      "hit": false,
      "t": 502908.58800000005,
      "d": 136.36349999997765,
      "v": 127
    },
    {
      "midi": 31,
      "hit": false,
      "t": 502908.58800000575,
      "d": 545.454000000027,
      "v": 127
    },
    {
      "midi": 50,
      "hit": false,
      "t": 503044.9515,
      "d": 136.36349999997765,
      "v": 127
    },
    {
      "midi": 52,
      "hit": false,
      "t": 503181.315,
      "d": 136.36349999997765,
      "v": 127
    },
    {
      "midi": 50,
      "hit": false,
      "t": 503317.6785,
      "d": 136.36349999997765,
      "v": 127
    },
    {
      "midi": 42,
      "hit": false,
      "t": 503454.0420000058,
      "d": 136.36349999997765,
      "v": 127
    },
    {
      "midi": 43,
      "hit": false,
      "t": 503590.40550000576,
      "d": 136.36349999997765,
      "v": 127
    },
    {
      "midi": 42,
      "hit": false,
      "t": 503726.76900000573,
      "d": 136.36349999997765,
      "v": 127
    },
    {
      "midi": 43,
      "hit": false,
      "t": 503863.1325000057,
      "d": 136.36349999997765,
      "v": 127
    },
    {
      "midi": 66,
      "hit": false,
      "t": 503999.496,
      "d": 136.36349999997765,
      "v": 127
    },
    {
      "midi": 31,
      "hit": false,
      "t": 503999.4960000057,
      "d": 545.454000000027,
      "v": 127
    },
    {
      "midi": 67,
      "hit": false,
      "t": 504135.85949999996,
      "d": 136.36349999997765,
      "v": 127
    },
    {
      "midi": 66,
      "hit": false,
      "t": 504272.22299999994,
      "d": 136.36349999997765,
      "v": 127
    },
    {
      "midi": 67,
      "hit": false,
      "t": 504408.5864999999,
      "d": 136.36349999997765,
      "v": 127
    },
    {
      "midi": 42,
      "hit": false,
      "t": 504544.9500000057,
      "d": 136.36349999997765,
      "v": 127
    },
    {
      "midi": 43,
      "hit": false,
      "t": 504681.3135000057,
      "d": 136.36349999997765,
      "v": 127
    },
    {
      "midi": 42,
      "hit": false,
      "t": 504817.6770000057,
      "d": 136.36349999997765,
      "v": 127
    },
    {
      "midi": 43,
      "hit": false,
      "t": 504954.04050000565,
      "d": 136.36349999997765,
      "v": 127
    },
    {
      "midi": 59,
      "hit": false,
      "t": 505090.4039999999,
      "d": 136.36349999997765,
      "v": 127
    },
    {
      "midi": 31,
      "hit": false,
      "t": 505090.4040000056,
      "d": 545.454000000027,
      "v": 127
    },
    {
      "midi": 50,
      "hit": false,
      "t": 505226.7674999999,
      "d": 136.36349999997765,
      "v": 127
    },
    {
      "midi": 52,
      "hit": false,
      "t": 505363.1309999999,
      "d": 136.36349999997765,
      "v": 127
    },
    {
      "midi": 50,
      "hit": false,
      "t": 505499.49449999986,
      "d": 136.36349999997765,
      "v": 127
    },
    {
      "midi": 42,
      "hit": false,
      "t": 505635.85800000565,
      "d": 136.36349999997765,
      "v": 127
    },
    {
      "midi": 43,
      "hit": false,
      "t": 505772.22150000563,
      "d": 136.36349999997765,
      "v": 127
    },
    {
      "midi": 42,
      "hit": false,
      "t": 505908.5850000056,
      "d": 136.36349999997765,
      "v": 127
    },
    {
      "midi": 43,
      "hit": false,
      "t": 506044.9485000056,
      "d": 136.36349999997765,
      "v": 127
    },
    {
      "midi": 73,
      "hit": false,
      "t": 506181.31199999986,
      "d": 136.36349999997765,
      "v": 127
    },
    {
      "midi": 31,
      "hit": false,
      "t": 506181.31200000556,
      "d": 545.454000000027,
      "v": 127
    },
    {
      "midi": 74,
      "hit": false,
      "t": 506317.67549999984,
      "d": 136.36349999997765,
      "v": 127
    },
    {
      "midi": 73,
      "hit": false,
      "t": 506454.0389999998,
      "d": 136.36349999997765,
      "v": 127
    },
    {
      "midi": 74,
      "hit": false,
      "t": 506590.4024999998,
      "d": 136.36349999997765,
      "v": 127
    },
    {
      "midi": 42,
      "hit": false,
      "t": 506726.7660000056,
      "d": 136.36349999997765,
      "v": 127
    },
    {
      "midi": 43,
      "hit": false,
      "t": 506863.12950000557,
      "d": 136.36349999997765,
      "v": 127
    },
    {
      "midi": 42,
      "hit": false,
      "t": 506999.49300000555,
      "d": 136.36349999997765,
      "v": 127
    },
    {
      "midi": 43,
      "hit": false,
      "t": 507135.8565000055,
      "d": 136.36349999997765,
      "v": 127
    },
    {
      "midi": 59,
      "hit": false,
      "t": 507272.2199999998,
      "d": 136.36349999997765,
      "v": 127
    },
    {
      "midi": 31,
      "hit": false,
      "t": 507272.2200000055,
      "d": 545.454000000027,
      "v": 127
    },
    {
      "midi": 50,
      "hit": false,
      "t": 507408.5834999998,
      "d": 136.36349999997765,
      "v": 127
    },
    {
      "midi": 52,
      "hit": false,
      "t": 507544.94699999975,
      "d": 136.36349999997765,
      "v": 127
    },
    {
      "midi": 50,
      "hit": false,
      "t": 507681.31049999973,
      "d": 136.36349999997765,
      "v": 127
    },
    {
      "midi": 42,
      "hit": false,
      "t": 507817.6740000055,
      "d": 136.36349999997765,
      "v": 127
    },
    {
      "midi": 43,
      "hit": false,
      "t": 507954.0375000055,
      "d": 136.36349999997765,
      "v": 127
    },
    {
      "midi": 42,
      "hit": false,
      "t": 508090.4010000055,
      "d": 136.36349999997765,
      "v": 127
    },
    {
      "midi": 43,
      "hit": false,
      "t": 508226.76450000546,
      "d": 136.36349999997765,
      "v": 127
    },
    {
      "midi": 78,
      "hit": false,
      "t": 508363.12799999974,
      "d": 136.36349999997765,
      "v": 127
    },
    {
      "midi": 31,
      "hit": false,
      "t": 508363.12800000544,
      "d": 545.454000000027,
      "v": 127
    },
    {
      "midi": 79,
      "hit": false,
      "t": 508499.4914999997,
      "d": 136.36349999997765,
      "v": 127
    },
    {
      "midi": 78,
      "hit": false,
      "t": 508635.8549999997,
      "d": 136.36349999997765,
      "v": 127
    },
    {
      "midi": 79,
      "hit": false,
      "t": 508772.21849999967,
      "d": 136.36349999997765,
      "v": 127
    },
    {
      "midi": 42,
      "hit": false,
      "t": 508908.58200000547,
      "d": 136.36349999997765,
      "v": 127
    },
    {
      "midi": 43,
      "hit": false,
      "t": 509044.94550000544,
      "d": 136.36349999997765,
      "v": 127
    },
    {
      "midi": 42,
      "hit": false,
      "t": 509181.3090000054,
      "d": 136.36349999997765,
      "v": 127
    },
    {
      "midi": 43,
      "hit": false,
      "t": 509317.6725000054,
      "d": 136.36349999997765,
      "v": 127
    },
    {
      "midi": 31,
      "hit": false,
      "t": 509454.0360000054,
      "d": 545.454000000027,
      "v": 127
    },
    {
      "midi": 67,
      "hit": false,
      "t": 510544.94399999967,
      "d": 545.454000000027,
      "v": 127
    },
    {
      "midi": 71,
      "hit": false,
      "t": 510544.94399999967,
      "d": 545.454000000027,
      "v": 127
    },
    {
      "midi": 74,
      "hit": false,
      "t": 510544.94399999967,
      "d": 545.454000000027,
      "v": 127
    },
    {
      "midi": 79,
      "hit": false,
      "t": 510544.94399999967,
      "d": 545.454000000027,
      "v": 127
    },
    {
      "midi": 43,
      "hit": false,
      "t": 510544.94400000543,
      "d": 545.454000000027,
      "v": 127
    },
    {
      "midi": 47,
      "hit": false,
      "t": 510544.94400000543,
      "d": 545.454000000027,
      "v": 127
    },
    {
      "midi": 50,
      "hit": false,
      "t": 510544.94400000543,
      "d": 545.454000000027,
      "v": 127
    },
    {
      "midi": 55,
      "hit": false,
      "t": 510544.94400000543,
      "d": 545.454000000027,
      "v": 127
    },
    {
      "midi": 55,
      "hit": false,
      "t": 511635.8519999997,
      "d": 545.454000000027,
      "v": 127
    },
    {
      "midi": 59,
      "hit": false,
      "t": 511635.8519999997,
      "d": 545.454000000027,
      "v": 127
    },
    {
      "midi": 62,
      "hit": false,
      "t": 511635.8519999997,
      "d": 545.454000000027,
      "v": 127
    },
    {
      "midi": 67,
      "hit": false,
      "t": 511635.8519999997,
      "d": 545.454000000027,
      "v": 127
    },
    {
      "midi": 31,
      "hit": false,
      "t": 511635.8520000055,
      "d": 545.454000000027,
      "v": 127
    },
    {
      "midi": 35,
      "hit": false,
      "t": 511635.8520000055,
      "d": 545.454000000027,
      "v": 127
    },
    {
      "midi": 38,
      "hit": false,
      "t": 511635.8520000055,
      "d": 545.454000000027,
      "v": 127
    },
    {
      "midi": 43,
      "hit": false,
      "t": 511635.8520000055,
      "d": 545.454000000027,
      "v": 127
    }
  ]
}