{
  "jsonPath": "Classical/Classical/Ludwig van Beethoven/sonata-no-8-1cpathetique-1d.json",
  "path": "Classical\\Classical\\Ludwig van Beethoven\\Sonata No 8  1CPathétique 1D.mid",
  "name": "Sonata No 8  1CPathétique 1D",
  "difficulty": "Advanced",
  "bpm": 216.00060480169344,
  "notes": [
    {
      "midi": 67,
      "hit": false,
      "t": 0,
      "d": 138.88850000000002,
      "v": 127
    },
    {
      "midi": 72,
      "hit": false,
      "t": 138.88850000000002,
      "d": 138.88850000000002,
      "v": 127
    },
    {
      "midi": 74,
      "hit": false,
      "t": 277.77700000000004,
      "d": 138.88850000000002,
      "v": 127
    },
    {
      "midi": 75,
      "hit": false,
      "t": 416.66550000000007,
      "d": 416.66550000000007,
      "v": 127
    },
    {
      "midi": 48,
      "hit": false,
      "t": 416.66550000000007,
      "d": 138.88850000000002,
      "v": 127
    },
    {
      "midi": 51,
      "hit": false,
      "t": 555.5540000000001,
      "d": 138.88850000000002,
      "v": 127
    },
    {
      "midi": 55,
      "hit": false,
      "t": 694.4425000000001,
      "d": 138.88850000000002,
      "v": 127
    },
    {
      "midi": 77,
      "hit": false,
      "t": 833.3310000000001,
      "d": 138.88850000000002,
      "v": 127
    },
    {
      "midi": 60,
      "hit": false,
      "t": 833.3310000000001,
      "d": 138.88850000000002,
      "v": 127
    },
    {
      "midi": 74,
      "hit": false,
      "t": 972.2195000000002,
      "d": 138.88850000000002,
      "v": 127
    },
    {
      "midi": 48,
      "hit": false,
      "t": 972.2195000000002,
      "d": 138.88850000000002,
      "v": 127
    },
    {
      "midi": 53,
      "hit": false,
      "t": 1111.1080000000002,
      "d": 138.88850000000002,
      "v": 127
    },
    {
      "midi": 55,
      "hit": false,
      "t": 1249.9965000000002,
      "d": 138.88850000000002,
      "v": 127
    },
    {
      "midi": 75,
      "hit": false,
      "t": 1388.8850000000002,
      "d": 138.88850000000002,
      "v": 127
    },
    {
      "midi": 59,
      "hit": false,
      "t": 1388.8850000000002,
      "d": 138.88850000000002,
      "v": 127
    },
    {
      "midi": 72,
      "hit": false,
      "t": 1527.7735000000002,
      "d": 416.66550000000007,
      "v": 127
    },
    {
      "midi": 48,
      "hit": false,
      "t": 1527.7735000000002,
      "d": 138.88850000000002,
      "v": 127
    },
    {
      "midi": 51,
      "hit": false,
      "t": 1666.6620000000003,
      "d": 138.88850000000002,
      "v": 127
    },
    {
      "midi": 55,
      "hit": false,
      "t": 1805.5505000000003,
      "d": 138.88850000000002,
      "v": 127
    },
    {
      "midi": 60,
      "hit": false,
      "t": 1944.4390000000003,
      "d": 138.88850000000002,
      "v": 127
    },
    {
      "midi": 74,
      "hit": false,
      "t": 2013.8832500000003,
      "d": 69.44425000000001,
      "v": 127
    },
    {
      "midi": 72,
      "hit": false,
      "t": 2083.3275000000003,
      "d": 138.88850000000002,
      "v": 127
    },
    {
      "midi": 63,
      "hit": false,
      "t": 2083.3275000000003,
      "d": 138.88850000000002,
      "v": 127
    },
    {
      "midi": 71,
      "hit": false,
      "t": 2222.2160000000003,
      "d": 138.88850000000002,
      "v": 127
    },
    {
      "midi": 67,
      "hit": false,
      "t": 2222.2160000000003,
      "d": 138.88850000000002,
      "v": 127
    },
    {
      "midi": 72,
      "hit": false,
      "t": 2361.1045000000004,
      "d": 138.88850000000002,
      "v": 127
    },
    {
      "midi": 63,
      "hit": false,
      "t": 2361.1045000000004,
      "d": 138.88850000000002,
      "v": 127
    },
    {
      "midi": 74,
      "hit": false,
      "t": 2499.9930000000004,
      "d": 69.44425000000001,
      "v": 127
    },
    {
      "midi": 62,
      "hit": false,
      "t": 2499.9930000000004,
      "d": 138.88850000000002,
      "v": 127
    },
    {
      "midi": 77,
      "hit": false,
      "t": 2569.4372500000004,
      "d": 69.44425000000001,
      "v": 127
    },
    {
      "midi": 75,
      "hit": false,
      "t": 2638.8815000000004,
      "d": 138.88850000000002,
      "v": 127
    },
    {
      "midi": 60,
      "hit": false,
      "t": 2638.8815000000004,
      "d": 138.88850000000002,
      "v": 127
    },
    {
      "midi": 74,
      "hit": false,
      "t": 2777.7700000000004,
      "d": 138.88850000000002,
      "v": 127
    },
    {
      "midi": 67,
      "hit": false,
      "t": 2777.7700000000004,
      "d": 138.88850000000002,
      "v": 127
    },
    {
      "midi": 75,
      "hit": false,
      "t": 2916.6585000000005,
      "d": 138.88850000000002,
      "v": 127
    },
    {
      "midi": 60,
      "hit": false,
      "t": 2916.6585000000005,
      "d": 138.88850000000002,
      "v": 127
    },
    {
      "midi": 63,
      "hit": false,
      "t": 2916.6585000000005,
      "d": 138.88850000000002,
      "v": 127
    },
    {
      "midi": 77,
      "hit": false,
      "t": 3055.5470000000005,
      "d": 138.88850000000002,
      "v": 127
    },
    {
      "midi": 67,
      "hit": false,
      "t": 3055.5470000000005,
      "d": 138.88850000000002,
      "v": 127
    },
    {
      "midi": 79,
      "hit": false,
      "t": 3194.4355000000005,
      "d": 138.88850000000002,
      "v": 127
    },
    {
      "midi": 59,
      "hit": false,
      "t": 3194.4355000000005,
      "d": 138.88850000000002,
      "v": 127
    },
    {
      "midi": 62,
      "hit": false,
      "t": 3194.4355000000005,
      "d": 138.88850000000002,
      "v": 127
    },
    {
      "midi": 67,
      "hit": false,
      "t": 3333.3240000000005,
      "d": 138.88850000000002,
      "v": 127
    },
    {
      "midi": 79,
      "hit": false,
      "t": 3472.2125000000005,
      "d": 277.77700000000004,
      "v": 127
    },
    {
      "midi": 56,
      "hit": false,
      "t": 3472.2125000000005,
      "d": 138.88850000000002,
      "v": 127
    },
    {
      "midi": 60,
      "hit": false,
      "t": 3472.2125000000005,
      "d": 138.88850000000002,
      "v": 127
    },
    {
      "midi": 67,
      "hit": false,
      "t": 3611.1010000000006,
      "d": 138.88850000000002,
      "v": 127
    },
    {
      "midi": 79,
      "hit": false,
      "t": 3749.9895000000006,
      "d": 694.4425000000001,
      "v": 127
    },
    {
      "midi": 55,
      "hit": false,
      "t": 3749.9895000000006,
      "d": 138.88850000000002,
      "v": 127
    },
    {
      "midi": 59,
      "hit": false,
      "t": 3888.8780000000006,
      "d": 138.88850000000002,
      "v": 127
    },
    {
      "midi": 62,
      "hit": false,
      "t": 4027.7665000000006,
      "d": 138.88850000000002,
      "v": 127
    },
    {
      "midi": 67,
      "hit": false,
      "t": 4166.655000000001,
      "d": 138.88850000000002,
      "v": 127
    },
    {
      "midi": 55,
      "hit": false,
      "t": 4305.543500000001,
      "d": 138.88850000000002,
      "v": 127
    },
    {
      "midi": 59,
      "hit": false,
      "t": 4444.432000000001,
      "d": 138.88850000000002,
      "v": 127
    },
    {
      "midi": 77,
      "hit": false,
      "t": 4583.320500000001,
      "d": 138.88850000000002,
      "v": 127
    },
    {
      "midi": 62,
      "hit": false,
      "t": 4583.320500000001,
      "d": 138.88850000000002,
      "v": 127
    },
    {
      "midi": 79,
      "hit": false,
      "t": 4722.209000000001,
      "d": 69.44425000000047,
      "v": 127
    },
    {
      "midi": 67,
      "hit": false,
      "t": 4722.209000000001,
      "d": 138.88850000000002,
      "v": 127
    },
    {
      "midi": 77,
      "hit": false,
      "t": 4791.653250000001,
      "d": 69.44425000000047,
      "v": 127
    },
    {
      "midi": 53,
      "hit": false,
      "t": 4861.097500000001,
      "d": 138.88850000000002,
      "v": 127
    },
    {
      "midi": 80,
      "hit": false,
      "t": 4861.097500000002,
      "d": 555.5540000000001,
      "v": 127
    },
    {
      "midi": 56,
      "hit": false,
      "t": 4999.986000000001,
      "d": 138.88850000000002,
      "v": 127
    },
    {
      "midi": 59,
      "hit": false,
      "t": 5138.874500000001,
      "d": 138.88850000000002,
      "v": 127
    },
    {
      "midi": 62,
      "hit": false,
      "t": 5277.763000000001,
      "d": 138.88850000000002,
      "v": 127
    },
    {
      "midi": 53,
      "hit": false,
      "t": 5416.651500000001,
      "d": 138.88850000000002,
      "v": 127
    },
    {
      "midi": 74,
      "hit": false,
      "t": 5416.651500000002,
      "d": 138.88850000000002,
      "v": 127
    },
    {
      "midi": 56,
      "hit": false,
      "t": 5555.540000000001,
      "d": 138.88850000000002,
      "v": 127
    },
    {
      "midi": 59,
      "hit": false,
      "t": 5694.428500000001,
      "d": 138.88850000000002,
      "v": 127
    },
    {
      "midi": 75,
      "hit": false,
      "t": 5694.428500000002,
      "d": 138.88850000000002,
      "v": 127
    },
    {
      "midi": 62,
      "hit": false,
      "t": 5833.317000000001,
      "d": 138.88850000000002,
      "v": 127
    },
    {
      "midi": 77,
      "hit": false,
      "t": 5833.317000000002,
      "d": 69.44424999999956,
      "v": 127
    },
    {
      "midi": 75,
      "hit": false,
      "t": 5902.761250000001,
      "d": 69.44425000000047,
      "v": 127
    },
    {
      "midi": 51,
      "hit": false,
      "t": 5972.205500000001,
      "d": 138.88850000000002,
      "v": 127
    },
    {
      "midi": 79,
      "hit": false,
      "t": 5972.205500000002,
      "d": 555.5540000000001,
      "v": 127
    },
    {
      "midi": 55,
      "hit": false,
      "t": 6111.094000000001,
      "d": 138.88850000000002,
      "v": 127
    },
    {
      "midi": 60,
      "hit": false,
      "t": 6249.982500000001,
      "d": 138.88850000000002,
      "v": 127
    },
    {
      "midi": 63,
      "hit": false,
      "t": 6388.871000000001,
      "d": 138.88850000000002,
      "v": 127
    },
    {
      "midi": 56,
      "hit": false,
      "t": 6527.759500000001,
      "d": 138.88850000000002,
      "v": 127
    },
    {
      "midi": 72,
      "hit": false,
      "t": 6527.759500000002,
      "d": 138.88850000000002,
      "v": 127
    },
    {
      "midi": 60,
      "hit": false,
      "t": 6666.648000000001,
      "d": 138.88850000000002,
      "v": 127
    },
    {
      "midi": 63,
      "hit": false,
      "t": 6805.536500000001,
      "d": 138.88850000000002,
      "v": 127
    },
    {
      "midi": 72,
      "hit": false,
      "t": 6805.536500000002,
      "d": 138.88850000000002,
      "v": 127
    },
    {
      "midi": 66,
      "hit": false,
      "t": 6944.425000000001,
      "d": 138.88850000000002,
      "v": 127
    },
    {
      "midi": 74,
      "hit": false,
      "t": 6944.425000000002,
      "d": 138.88850000000002,
      "v": 127
    },
    {
      "midi": 55,
      "hit": false,
      "t": 7083.313500000001,
      "d": 138.88850000000002,
      "v": 127
    },
    {
      "midi": 75,
      "hit": false,
      "t": 7083.313500000002,
      "d": 277.77700000000004,
      "v": 127
    },
    {
      "midi": 60,
      "hit": false,
      "t": 7222.202000000001,
      "d": 138.88850000000002,
      "v": 127
    },
    {
      "midi": 63,
      "hit": false,
      "t": 7361.090500000001,
      "d": 138.88850000000002,
      "v": 127
    },
    {
      "midi": 75,
      "hit": false,
      "t": 7361.090500000002,
      "d": 138.88850000000002,
      "v": 127
    },
    {
      "midi": 67,
      "hit": false,
      "t": 7499.979000000001,
      "d": 138.88850000000002,
      "v": 127
    },
    {
      "midi": 77,
      "hit": false,
      "t": 7499.979000000002,
      "d": 138.88850000000002,
      "v": 127
    },
    {
      "midi": 55,
      "hit": false,
      "t": 7638.867500000001,
      "d": 138.88850000000002,
      "v": 127
    },
    {
      "midi": 74,
      "hit": false,
      "t": 7638.867500000002,
      "d": 138.88850000000002,
      "v": 127
    },
    {
      "midi": 59,
      "hit": false,
      "t": 7777.756000000001,
      "d": 138.88850000000002,
      "v": 127
    },
    {
      "midi": 62,
      "hit": false,
      "t": 7916.644500000001,
      "d": 138.88850000000002,
      "v": 127
    },
    {
      "midi": 74,
      "hit": false,
      "t": 7916.644500000002,
      "d": 138.88850000000002,
      "v": 127
    },
    {
      "midi": 67,
      "hit": false,
      "t": 8055.533000000001,
      "d": 277.77700000000004,
      "v": 127
    },
    {
      "midi": 75,
      "hit": false,
      "t": 8055.533000000002,
      "d": 138.88850000000002,
      "v": 127
    },
    {
      "midi": 72,
      "hit": false,
      "t": 8194.421500000002,
      "d": 277.77700000000004,
      "v": 127
    },
    {
      "midi": 48,
      "hit": false,
      "t": 8333.310000000001,
      "d": 138.88850000000093,
      "v": 127
    },
    {
      "midi": 51,
      "hit": false,
      "t": 8472.198500000002,
      "d": 138.88850000000093,
      "v": 127
    },
    {
      "midi": 55,
      "hit": false,
      "t": 8611.087000000003,
      "d": 138.88850000000093,
      "v": 127
    },
    {
      "midi": 60,
      "hit": false,
      "t": 8749.975500000004,
      "d": 138.88850000000093,
      "v": 127
    },
    {
      "midi": 77,
      "hit": false,
      "t": 9027.752500000002,
      "d": 138.88850000000093,
      "v": 127
    },
    {
      "midi": 79,
      "hit": false,
      "t": 9166.641000000003,
      "d": 138.88850000000093,
      "v": 127
    },
    {
      "midi": 68,
      "hit": false,
      "t": 9305.529500000004,
      "d": 555.5540000000001,
      "v": 127
    },
    {
      "midi": 80,
      "hit": false,
      "t": 9305.529500000004,
      "d": 555.5540000000001,
      "v": 127
    },
    {
      "midi": 41,
      "hit": false,
      "t": 9444.418000000005,
      "d": 138.88850000000093,
      "v": 127
    },
    {
      "midi": 47,
      "hit": false,
      "t": 9583.306500000006,
      "d": 138.88850000000093,
      "v": 127
    },
    {
      "midi": 50,
      "hit": false,
      "t": 9722.195000000007,
      "d": 138.88850000000093,
      "v": 127
    },
    {
      "midi": 74,
      "hit": false,
      "t": 9861.083500000004,
      "d": 138.88850000000093,
      "v": 127
    },
    {
      "midi": 53,
      "hit": false,
      "t": 9861.083500000008,
      "d": 138.88850000000093,
      "v": 127
    },
    {
      "midi": 56,
      "hit": false,
      "t": 9999.972000000009,
      "d": 138.88850000000093,
      "v": 127
    },
    {
      "midi": 75,
      "hit": false,
      "t": 10138.860500000006,
      "d": 138.88850000000093,
      "v": 127
    },
    {
      "midi": 55,
      "hit": false,
      "t": 10138.86050000001,
      "d": 138.88850000000093,
      "v": 127
    },
    {
      "midi": 77,
      "hit": false,
      "t": 10277.749000000007,
      "d": 138.88850000000093,
      "v": 127
    },
    {
      "midi": 53,
      "hit": false,
      "t": 10277.74900000001,
      "d": 277.77700000000004,
      "v": 127
    },
    {
      "midi": 67,
      "hit": false,
      "t": 10416.637500000008,
      "d": 555.5540000000001,
      "v": 127
    },
    {
      "midi": 79,
      "hit": false,
      "t": 10416.637500000008,
      "d": 555.5540000000001,
      "v": 127
    },
    {
      "midi": 39,
      "hit": false,
      "t": 10555.52600000001,
      "d": 138.8884999999991,
      "v": 127
    },
    {
      "midi": 43,
      "hit": false,
      "t": 10694.41450000001,
      "d": 138.88850000000093,
      "v": 127
    },
    {
      "midi": 48,
      "hit": false,
      "t": 10833.30300000001,
      "d": 138.88850000000093,
      "v": 127
    },
    {
      "midi": 72,
      "hit": false,
      "t": 10972.191500000008,
      "d": 138.88850000000093,
      "v": 127
    },
    {
      "midi": 51,
      "hit": false,
      "t": 10972.191500000012,
      "d": 138.88850000000093,
      "v": 127
    },
    {
      "midi": 55,
      "hit": false,
      "t": 11111.080000000013,
      "d": 138.88850000000093,
      "v": 127
    },
    {
      "midi": 72,
      "hit": false,
      "t": 11249.96850000001,
      "d": 138.88850000000093,
      "v": 127
    },
    {
      "midi": 56,
      "hit": false,
      "t": 11249.968500000014,
      "d": 138.88850000000093,
      "v": 127
    },
    {
      "midi": 74,
      "hit": false,
      "t": 11388.85700000001,
      "d": 138.88850000000093,
      "v": 127
    },
    {
      "midi": 54,
      "hit": false,
      "t": 11388.857000000015,
      "d": 138.88850000000093,
      "v": 127
    },
    {
      "midi": 75,
      "hit": false,
      "t": 11527.745500000012,
      "d": 277.77700000000004,
      "v": 127
    },
    {
      "midi": 43,
      "hit": false,
      "t": 11527.745500000015,
      "d": 138.88850000000093,
      "v": 127
    },
    {
      "midi": 55,
      "hit": false,
      "t": 11666.634000000016,
      "d": 138.88850000000093,
      "v": 127
    },
    {
      "midi": 75,
      "hit": false,
      "t": 11805.522500000012,
      "d": 138.8884999999991,
      "v": 127
    },
    {
      "midi": 60,
      "hit": false,
      "t": 11805.522500000017,
      "d": 138.88850000000093,
      "v": 127
    },
    {
      "midi": 77,
      "hit": false,
      "t": 11944.411000000011,
      "d": 138.88850000000093,
      "v": 127
    },
    {
      "midi": 55,
      "hit": false,
      "t": 11944.411000000018,
      "d": 138.88850000000093,
      "v": 127
    },
    {
      "midi": 74,
      "hit": false,
      "t": 12083.299500000012,
      "d": 138.88850000000093,
      "v": 127
    },
    {
      "midi": 43,
      "hit": false,
      "t": 12083.29950000002,
      "d": 138.88850000000093,
      "v": 127
    },
    {
      "midi": 55,
      "hit": false,
      "t": 12222.18800000002,
      "d": 138.88850000000093,
      "v": 127
    },
    {
      "midi": 74,
      "hit": false,
      "t": 12361.076500000014,
      "d": 138.88850000000093,
      "v": 127
    },
    {
      "midi": 59,
      "hit": false,
      "t": 12361.076500000021,
      "d": 138.88850000000093,
      "v": 127
    },
    {
      "midi": 75,
      "hit": false,
      "t": 12499.965000000015,
      "d": 138.88850000000093,
      "v": 127
    },
    {
      "midi": 55,
      "hit": false,
      "t": 12499.965000000022,
      "d": 138.88850000000093,
      "v": 127
    },
    {
      "midi": 72,
      "hit": false,
      "t": 12638.853500000016,
      "d": 277.77700000000004,
      "v": 127
    },
    {
      "midi": 48,
      "hit": false,
      "t": 12638.853500000023,
      "d": 138.88850000000093,
      "v": 127
    },
    {
      "midi": 60,
      "hit": false,
      "t": 12777.742000000024,
      "d": 138.88850000000093,
      "v": 127
    },
    {
      "midi": 82,
      "hit": false,
      "t": 12916.630500000016,
      "d": 416.665500000001,
      "v": 127
    },
    {
      "midi": 59,
      "hit": false,
      "t": 12916.630500000025,
      "d": 138.88850000000093,
      "v": 127
    },
    {
      "midi": 60,
      "hit": false,
      "t": 13055.519000000026,
      "d": 138.88850000000093,
      "v": 127
    },
    {
      "midi": 52,
      "hit": false,
      "t": 13194.407500000027,
      "d": 138.88850000000093,
      "v": 127
    },
    {
      "midi": 60,
      "hit": false,
      "t": 13333.296000000028,
      "d": 138.88850000000093,
      "v": 127
    },
    {
      "midi": 82,
      "hit": false,
      "t": 13472.184500000018,
      "d": 416.66549999999916,
      "v": 127
    },
    {
      "midi": 55,
      "hit": false,
      "t": 13472.184500000028,
      "d": 138.88850000000093,
      "v": 127
    },
    {
      "midi": 60,
      "hit": false,
      "t": 13611.07300000003,
      "d": 138.88850000000093,
      "v": 127
    },
    {
      "midi": 53,
      "hit": false,
      "t": 13749.96150000003,
      "d": 138.88850000000093,
      "v": 127
    },
    {
      "midi": 80,
      "hit": false,
      "t": 13888.850000000017,
      "d": 138.88850000000093,
      "v": 127
    },
    {
      "midi": 60,
      "hit": false,
      "t": 13888.850000000031,
      "d": 138.88850000000093,
      "v": 127
    },
    {
      "midi": 79,
      "hit": false,
      "t": 14027.738500000018,
      "d": 138.88850000000093,
      "v": 127
    },
    {
      "midi": 56,
      "hit": false,
      "t": 14027.738500000032,
      "d": 138.88850000000093,
      "v": 127
    },
    {
      "midi": 77,
      "hit": false,
      "t": 14166.627000000019,
      "d": 138.88850000000093,
      "v": 127
    },
    {
      "midi": 60,
      "hit": false,
      "t": 14166.627000000033,
      "d": 138.88850000000093,
      "v": 127
    },
    {
      "midi": 75,
      "hit": false,
      "t": 14305.51550000002,
      "d": 138.88850000000093,
      "v": 127
    },
    {
      "midi": 55,
      "hit": false,
      "t": 14305.515500000034,
      "d": 138.88850000000093,
      "v": 127
    },
    {
      "midi": 74,
      "hit": false,
      "t": 14444.40400000002,
      "d": 138.88850000000093,
      "v": 127
    },
    {
      "midi": 65,
      "hit": false,
      "t": 14444.404000000035,
      "d": 138.88850000000093,
      "v": 127
    },
    {
      "midi": 72,
      "hit": false,
      "t": 14583.292500000021,
      "d": 138.88850000000093,
      "v": 127
    },
    {
      "midi": 59,
      "hit": false,
      "t": 14583.292500000036,
      "d": 138.88850000000093,
      "v": 127
    },
    {
      "midi": 71,
      "hit": false,
      "t": 14722.181000000022,
      "d": 138.88850000000093,
      "v": 127
    },
    {
      "midi": 65,
      "hit": false,
      "t": 14722.181000000037,
      "d": 138.88850000000093,
      "v": 127
    },
    {
      "midi": 72,
      "hit": false,
      "t": 14861.069500000023,
      "d": 277.77700000000004,
      "v": 127
    },
    {
      "midi": 56,
      "hit": false,
      "t": 14861.069500000038,
      "d": 138.88850000000093,
      "v": 127
    },
    {
      "midi": 63,
      "hit": false,
      "t": 14999.958000000039,
      "d": 138.88850000000093,
      "v": 127
    },
    {
      "midi": 72,
      "hit": false,
      "t": 15138.846500000023,
      "d": 416.665500000001,
      "v": 127
    },
    {
      "midi": 84,
      "hit": false,
      "t": 15138.846500000023,
      "d": 416.665500000001,
      "v": 127
    },
    {
      "midi": 60,
      "hit": false,
      "t": 15138.84650000004,
      "d": 138.88850000000093,
      "v": 127
    },
    {
      "midi": 63,
      "hit": false,
      "t": 15277.73500000004,
      "d": 138.88850000000093,
      "v": 127
    },
    {
      "midi": 55,
      "hit": false,
      "t": 15416.623500000042,
      "d": 138.88850000000093,
      "v": 127
    },
    {
      "midi": 64,
      "hit": false,
      "t": 15555.512000000042,
      "d": 138.88850000000093,
      "v": 127
    },
    {
      "midi": 82,
      "hit": false,
      "t": 15694.400500000025,
      "d": 416.66549999999916,
      "v": 127
    },
    {
      "midi": 60,
      "hit": false,
      "t": 15694.400500000043,
      "d": 138.88850000000093,
      "v": 127
    },
    {
      "midi": 64,
      "hit": false,
      "t": 15833.289000000044,
      "d": 138.88850000000093,
      "v": 127
    },
    {
      "midi": 53,
      "hit": false,
      "t": 15972.177500000045,
      "d": 138.88850000000093,
      "v": 127
    },
    {
      "midi": 80,
      "hit": false,
      "t": 16111.066000000024,
      "d": 138.88850000000093,
      "v": 127
    },
    {
      "midi": 65,
      "hit": false,
      "t": 16111.066000000046,
      "d": 138.88850000000093,
      "v": 127
    },
    {
      "midi": 79,
      "hit": false,
      "t": 16249.954500000025,
      "d": 138.88850000000093,
      "v": 127
    },
    {
      "midi": 60,
      "hit": false,
      "t": 16249.954500000047,
      "d": 138.88850000000093,
      "v": 127
    },
    {
      "midi": 77,
      "hit": false,
      "t": 16388.843000000026,
      "d": 138.88850000000093,
      "v": 127
    },
    {
      "midi": 65,
      "hit": false,
      "t": 16388.843000000048,
      "d": 138.88850000000093,
      "v": 127
    },
    {
      "midi": 75,
      "hit": false,
      "t": 16527.731500000027,
      "d": 138.88850000000093,
      "v": 127
    },
    {
      "midi": 55,
      "hit": false,
      "t": 16527.73150000005,
      "d": 138.88850000000093,
      "v": 127
    },
    {
      "midi": 74,
      "hit": false,
      "t": 16666.620000000028,
      "d": 138.88850000000093,
      "v": 127
    },
    {
      "midi": 67,
      "hit": false,
      "t": 16666.62000000005,
      "d": 138.88850000000093,
      "v": 127
    },
    {
      "midi": 72,
      "hit": false,
      "t": 16805.50850000003,
      "d": 138.88850000000093,
      "v": 127
    },
    {
      "midi": 55,
      "hit": false,
      "t": 16805.50850000005,
      "d": 138.88850000000093,
      "v": 127
    },
    {
      "midi": 71,
      "hit": false,
      "t": 16944.39700000003,
      "d": 138.88850000000093,
      "v": 127
    },
    {
      "midi": 67,
      "hit": false,
      "t": 16944.39700000005,
      "d": 138.88850000000093,
      "v": 127
    },
    {
      "midi": 72,
      "hit": false,
      "t": 17083.28550000003,
      "d": 277.7769999999982,
      "v": 127
    },
    {
      "midi": 60,
      "hit": false,
      "t": 17083.285500000053,
      "d": 277.7769999999982,
      "v": 127
    },
    {
      "midi": 74,
      "hit": false,
      "t": 17361.06250000003,
      "d": 208.3327500000014,
      "v": 127
    },
    {
      "midi": 55,
      "hit": false,
      "t": 17361.06250000005,
      "d": 277.77700000000186,
      "v": 127
    },
    {
      "midi": 59,
      "hit": false,
      "t": 17361.06250000005,
      "d": 277.77700000000186,
      "v": 127
    },
    {
      "midi": 72,
      "hit": false,
      "t": 17569.39525000003,
      "d": 69.44425000000047,
      "v": 127
    },
    {
      "midi": 75,
      "hit": false,
      "t": 17638.83950000003,
      "d": 138.88850000000093,
      "v": 127
    },
    {
      "midi": 48,
      "hit": false,
      "t": 17638.839500000053,
      "d": 138.88850000000093,
      "v": 127
    },
    {
      "midi": 60,
      "hit": false,
      "t": 17638.839500000053,
      "d": 138.88850000000093,
      "v": 127
    },
    {
      "midi": 71,
      "hit": false,
      "t": 17916.616500000033,
      "d": 277.77700000000186,
      "v": 127
    },
    {
      "midi": 74,
      "hit": false,
      "t": 17916.616500000033,
      "d": 277.77700000000186,
      "v": 127
    },
    {
      "midi": 83,
      "hit": false,
      "t": 17916.616500000033,
      "d": 277.77700000000186,
      "v": 127
    },
    {
      "midi": 43,
      "hit": false,
      "t": 17916.616500000055,
      "d": 277.77700000000186,
      "v": 127
    },
    {
      "midi": 55,
      "hit": false,
      "t": 17916.616500000055,
      "d": 277.77700000000186,
      "v": 127
    },
    {
      "midi": 72,
      "hit": false,
      "t": 18194.393500000035,
      "d": 277.77700000000186,
      "v": 127
    },
    {
      "midi": 75,
      "hit": false,
      "t": 18194.393500000035,
      "d": 277.77700000000186,
      "v": 127
    },
    {
      "midi": 84,
      "hit": false,
      "t": 18194.393500000035,
      "d": 277.77700000000186,
      "v": 127
    },
    {
      "midi": 36,
      "hit": false,
      "t": 18194.393500000057,
      "d": 277.77700000000186,
      "v": 127
    },
    {
      "midi": 48,
      "hit": false,
      "t": 18194.393500000057,
      "d": 277.77700000000186,
      "v": 127
    },
    {
      "midi": 55,
      "hit": false,
      "t": 19305.501500000035,
      "d": 694.442500000001,
      "v": 127
    },
    {
      "midi": 60,
      "hit": false,
      "t": 19305.501500000035,
      "d": 694.442500000001,
      "v": 127
    },
    {
      "midi": 64,
      "hit": false,
      "t": 19305.501500000035,
      "d": 694.442500000001,
      "v": 127
    },
    {
      "midi": 34,
      "hit": false,
      "t": 19305.501500000057,
      "d": 694.442500000001,
      "v": 127
    },
    {
      "midi": 46,
      "hit": false,
      "t": 19305.501500000057,
      "d": 694.442500000001,
      "v": 127
    },
    {
      "midi": 65,
      "hit": false,
      "t": 20416.609500000035,
      "d": 138.88850000000093,
      "v": 127
    },
    {
      "midi": 32,
      "hit": false,
      "t": 20416.609500000057,
      "d": 277.77700000000186,
      "v": 127
    },
    {
      "midi": 44,
      "hit": false,
      "t": 20416.609500000057,
      "d": 277.77700000000186,
      "v": 127
    },
    {
      "midi": 72,
      "hit": false,
      "t": 20555.498000000036,
      "d": 138.88850000000093,
      "v": 127
    },
    {
      "midi": 68,
      "hit": false,
      "t": 20694.386500000037,
      "d": 138.88850000000093,
      "v": 127
    },
    {
      "midi": 77,
      "hit": false,
      "t": 20833.275000000038,
      "d": 138.88850000000093,
      "v": 127
    },
    {
      "midi": 72,
      "hit": false,
      "t": 20972.16350000004,
      "d": 138.88850000000093,
      "v": 127
    },
    {
      "midi": 80,
      "hit": false,
      "t": 21111.05200000004,
      "d": 138.88850000000093,
      "v": 127
    },
    {
      "midi": 77,
      "hit": false,
      "t": 21249.94050000004,
      "d": 138.88850000000093,
      "v": 127
    },
    {
      "midi": 84,
      "hit": false,
      "t": 21388.82900000004,
      "d": 138.88850000000093,
      "v": 127
    },
    {
      "midi": 82,
      "hit": false,
      "t": 21527.717500000042,
      "d": 138.88850000000093,
      "v": 127
    },
    {
      "midi": 79,
      "hit": false,
      "t": 21666.606000000043,
      "d": 138.88850000000093,
      "v": 127
    },
    {
      "midi": 76,
      "hit": false,
      "t": 21805.494500000044,
      "d": 138.88850000000093,
      "v": 127
    },
    {
      "midi": 52,
      "hit": false,
      "t": 21805.49450000006,
      "d": 277.77700000000186,
      "v": 127
    },
    {
      "midi": 60,
      "hit": false,
      "t": 21805.49450000006,
      "d": 277.77700000000186,
      "v": 127
    },
    {
      "midi": 72,
      "hit": false,
      "t": 21944.383000000045,
      "d": 138.88850000000093,
      "v": 127
    },
    {
      "midi": 70,
      "hit": false,
      "t": 22083.271500000046,
      "d": 138.88850000000093,
      "v": 127
    },
    {
      "midi": 52,
      "hit": false,
      "t": 22083.27150000006,
      "d": 138.88850000000093,
      "v": 127
    },
    {
      "midi": 60,
      "hit": false,
      "t": 22083.27150000006,
      "d": 138.88850000000093,
      "v": 127
    },
    {
      "midi": 71,
      "hit": false,
      "t": 22222.160000000047,
      "d": 138.88850000000093,
      "v": 127
    },
    {
      "midi": 72,
      "hit": false,
      "t": 22361.048500000048,
      "d": 138.88850000000093,
      "v": 127
    },
    {
      "midi": 52,
      "hit": false,
      "t": 22361.048500000063,
      "d": 277.77700000000186,
      "v": 127
    },
    {
      "midi": 60,
      "hit": false,
      "t": 22361.048500000063,
      "d": 277.77700000000186,
      "v": 127
    },
    {
      "midi": 67,
      "hit": false,
      "t": 22499.93700000005,
      "d": 138.88850000000093,
      "v": 127
    },
    {
      "midi": 70,
      "hit": false,
      "t": 22638.82550000005,
      "d": 555.5540000000001,
      "v": 127
    },
    {
      "midi": 53,
      "hit": false,
      "t": 22638.825500000064,
      "d": 694.442500000001,
      "v": 127
    },
    {
      "midi": 60,
      "hit": false,
      "t": 22638.825500000064,
      "d": 694.442500000001,
      "v": 127
    },
    {
      "midi": 68,
      "hit": false,
      "t": 23194.37950000005,
      "d": 138.88850000000093,
      "v": 127
    },
    {
      "midi": 53,
      "hit": false,
      "t": 23749.93350000005,
      "d": 694.442500000001,
      "v": 127
    },
    {
      "midi": 58,
      "hit": false,
      "t": 23749.93350000005,
      "d": 694.442500000001,
      "v": 127
    },
    {
      "midi": 62,
      "hit": false,
      "t": 23749.93350000005,
      "d": 694.442500000001,
      "v": 127
    },
    {
      "midi": 32,
      "hit": false,
      "t": 23749.933500000065,
      "d": 694.442500000001,
      "v": 127
    },
    {
      "midi": 44,
      "hit": false,
      "t": 23749.933500000065,
      "d": 694.442500000001,
      "v": 127
    },
    {
      "midi": 63,
      "hit": false,
      "t": 24861.04150000005,
      "d": 138.88850000000093,
      "v": 127
    },
    {
      "midi": 31,
      "hit": false,
      "t": 24861.041500000065,
      "d": 277.77700000000186,
      "v": 127
    },
    {
      "midi": 43,
      "hit": false,
      "t": 24861.041500000065,
      "d": 277.77700000000186,
      "v": 127
    },
    {
      "midi": 70,
      "hit": false,
      "t": 24999.93000000005,
      "d": 138.88850000000093,
      "v": 127
    },
    {
      "midi": 67,
      "hit": false,
      "t": 25138.818500000052,
      "d": 138.88850000000093,
      "v": 127
    },
    {
      "midi": 75,
      "hit": false,
      "t": 25277.707000000053,
      "d": 138.88850000000093,
      "v": 127
    },
    {
      "midi": 70,
      "hit": false,
      "t": 25416.595500000054,
      "d": 138.88850000000093,
      "v": 127
    },
    {
      "midi": 79,
      "hit": false,
      "t": 25555.484000000055,
      "d": 138.88850000000093,
      "v": 127
    },
    {
      "midi": 75,
      "hit": false,
      "t": 25694.372500000056,
      "d": 138.88850000000093,
      "v": 127
    },
    {
      "midi": 82,
      "hit": false,
      "t": 25833.261000000057,
      "d": 138.88850000000093,
      "v": 127
    },
    {
      "midi": 80,
      "hit": false,
      "t": 25972.149500000058,
      "d": 138.88850000000093,
      "v": 127
    },
    {
      "midi": 79,
      "hit": false,
      "t": 26111.03800000006,
      "d": 138.88850000000093,
      "v": 127
    },
    {
      "midi": 77,
      "hit": false,
      "t": 26249.92650000006,
      "d": 138.88850000000093,
      "v": 127
    },
    {
      "midi": 50,
      "hit": false,
      "t": 26249.926500000067,
      "d": 277.77700000000186,
      "v": 127
    },
    {
      "midi": 58,
      "hit": false,
      "t": 26249.926500000067,
      "d": 277.77700000000186,
      "v": 127
    },
    {
      "midi": 75,
      "hit": false,
      "t": 26388.81500000006,
      "d": 138.88850000000093,
      "v": 127
    },
    {
      "midi": 74,
      "hit": false,
      "t": 26527.70350000006,
      "d": 138.88850000000093,
      "v": 127
    },
    {
      "midi": 50,
      "hit": false,
      "t": 26527.70350000007,
      "d": 138.88850000000093,
      "v": 127
    },
    {
      "midi": 58,
      "hit": false,
      "t": 26527.70350000007,
      "d": 138.88850000000093,
      "v": 127
    },
    {
      "midi": 72,
      "hit": false,
      "t": 26666.592000000062,
      "d": 138.88850000000093,
      "v": 127
    },
    {
      "midi": 70,
      "hit": false,
      "t": 26805.480500000063,
      "d": 138.88850000000093,
      "v": 127
    },
    {
      "midi": 50,
      "hit": false,
      "t": 26805.48050000007,
      "d": 277.77700000000186,
      "v": 127
    },
    {
      "midi": 58,
      "hit": false,
      "t": 26805.48050000007,
      "d": 277.77700000000186,
      "v": 127
    },
    {
      "midi": 68,
      "hit": false,
      "t": 26944.369000000064,
      "d": 138.88850000000093,
      "v": 127
    },
    {
      "midi": 67,
      "hit": false,
      "t": 27083.257500000065,
      "d": 277.77700000000186,
      "v": 127
    },
    {
      "midi": 51,
      "hit": false,
      "t": 27083.257500000072,
      "d": 138.88850000000093,
      "v": 127
    },
    {
      "midi": 58,
      "hit": false,
      "t": 27222.146000000073,
      "d": 138.88850000000093,
      "v": 127
    },
    {
      "midi": 70,
      "hit": false,
      "t": 27361.034500000067,
      "d": 416.66549999999916,
      "v": 127
    },
    {
      "midi": 63,
      "hit": false,
      "t": 27361.034500000074,
      "d": 138.88850000000093,
      "v": 127
    },
    {
      "midi": 58,
      "hit": false,
      "t": 27499.923000000075,
      "d": 138.88850000000093,
      "v": 127
    },
    {
      "midi": 56,
      "hit": false,
      "t": 27638.811500000076,
      "d": 138.88850000000093,
      "v": 127
    },
    {
      "midi": 58,
      "hit": false,
      "t": 27777.700000000077,
      "d": 138.88850000000093,
      "v": 127
    },
    {
      "midi": 70,
      "hit": false,
      "t": 27916.588500000067,
      "d": 416.66549999999916,
      "v": 127
    },
    {
      "midi": 62,
      "hit": false,
      "t": 27916.588500000078,
      "d": 138.88850000000093,
      "v": 127
    },
    {
      "midi": 58,
      "hit": false,
      "t": 28055.47700000008,
      "d": 138.88850000000093,
      "v": 127
    },
    {
      "midi": 55,
      "hit": false,
      "t": 28194.36550000008,
      "d": 138.88850000000093,
      "v": 127
    },
    {
      "midi": 72,
      "hit": false,
      "t": 28333.254000000066,
      "d": 138.88850000000093,
      "v": 127
    },
    {
      "midi": 58,
      "hit": false,
      "t": 28333.25400000008,
      "d": 138.88850000000093,
      "v": 127
    },
    {
      "midi": 74,
      "hit": false,
      "t": 28472.142500000067,
      "d": 138.88850000000093,
      "v": 127
    },
    {
      "midi": 63,
      "hit": false,
      "t": 28472.14250000008,
      "d": 138.88850000000093,
      "v": 127
    },
    {
      "midi": 75,
      "hit": false,
      "t": 28611.031000000068,
      "d": 138.88850000000093,
      "v": 127
    },
    {
      "midi": 58,
      "hit": false,
      "t": 28611.031000000083,
      "d": 138.88850000000093,
      "v": 127
    },
    {
      "midi": 77,
      "hit": false,
      "t": 28749.91950000007,
      "d": 138.88850000000093,
      "v": 127
    },
    {
      "midi": 50,
      "hit": false,
      "t": 28749.919500000084,
      "d": 138.88850000000093,
      "v": 127
    },
    {
      "midi": 79,
      "hit": false,
      "t": 28888.80800000007,
      "d": 138.88850000000093,
      "v": 127
    },
    {
      "midi": 58,
      "hit": false,
      "t": 28888.808000000085,
      "d": 138.88850000000093,
      "v": 127
    },
    {
      "midi": 80,
      "hit": false,
      "t": 29027.69650000007,
      "d": 138.88850000000093,
      "v": 127
    },
    {
      "midi": 62,
      "hit": false,
      "t": 29027.696500000086,
      "d": 138.88850000000093,
      "v": 127
    },
    {
      "midi": 77,
      "hit": false,
      "t": 29166.585000000072,
      "d": 138.88850000000093,
      "v": 127
    },
    {
      "midi": 58,
      "hit": false,
      "t": 29166.585000000086,
      "d": 138.88850000000093,
      "v": 127
    },
    {
      "midi": 80,
      "hit": false,
      "t": 29305.473500000073,
      "d": 138.88850000000093,
      "v": 127
    },
    {
      "midi": 51,
      "hit": false,
      "t": 29305.473500000087,
      "d": 138.88850000000093,
      "v": 127
    },
    {
      "midi": 79,
      "hit": false,
      "t": 29444.362000000074,
      "d": 138.88850000000093,
      "v": 127
    },
    {
      "midi": 58,
      "hit": false,
      "t": 29444.36200000009,
      "d": 138.88850000000093,
      "v": 127
    },
    {
      "midi": 77,
      "hit": false,
      "t": 29583.250500000075,
      "d": 138.88850000000093,
      "v": 127
    },
    {
      "midi": 63,
      "hit": false,
      "t": 29583.25050000009,
      "d": 138.88850000000093,
      "v": 127
    },
    {
      "midi": 75,
      "hit": false,
      "t": 29722.139000000076,
      "d": 138.88850000000093,
      "v": 127
    },
    {
      "midi": 58,
      "hit": false,
      "t": 29722.13900000009,
      "d": 138.88850000000093,
      "v": 127
    },
    {
      "midi": 75,
      "hit": false,
      "t": 29861.027500000077,
      "d": 138.88850000000093,
      "v": 127
    },
    {
      "midi": 56,
      "hit": false,
      "t": 29861.02750000009,
      "d": 138.88850000000093,
      "v": 127
    },
    {
      "midi": 74,
      "hit": false,
      "t": 29999.916000000077,
      "d": 138.88850000000093,
      "v": 127
    },
    {
      "midi": 58,
      "hit": false,
      "t": 29999.916000000092,
      "d": 138.88850000000093,
      "v": 127
    },
    {
      "midi": 72,
      "hit": false,
      "t": 30138.80450000008,
      "d": 138.88850000000093,
      "v": 127
    },
    {
      "midi": 65,
      "hit": false,
      "t": 30138.804500000093,
      "d": 138.88850000000093,
      "v": 127
    },
    {
      "midi": 74,
      "hit": false,
      "t": 30277.69300000008,
      "d": 138.88850000000093,
      "v": 127
    },
    {
      "midi": 58,
      "hit": false,
      "t": 30277.693000000094,
      "d": 138.88850000000093,
      "v": 127
    },
    {
      "midi": 77,
      "hit": false,
      "t": 30416.58150000008,
      "d": 138.88850000000093,
      "v": 127
    },
    {
      "midi": 55,
      "hit": false,
      "t": 30416.581500000095,
      "d": 138.88850000000093,
      "v": 127
    },
    {
      "midi": 75,
      "hit": false,
      "t": 30555.47000000008,
      "d": 138.88850000000093,
      "v": 127
    },
    {
      "midi": 58,
      "hit": false,
      "t": 30555.470000000096,
      "d": 138.88850000000093,
      "v": 127
    },
    {
      "midi": 74,
      "hit": false,
      "t": 30694.358500000082,
      "d": 138.88850000000093,
      "v": 127
    },
    {
      "midi": 63,
      "hit": false,
      "t": 30694.358500000097,
      "d": 138.88850000000093,
      "v": 127
    },
    {
      "midi": 72,
      "hit": false,
      "t": 30833.247000000083,
      "d": 138.88850000000093,
      "v": 127
    },
    {
      "midi": 58,
      "hit": false,
      "t": 30833.247000000098,
      "d": 138.88850000000093,
      "v": 127
    },
    {
      "midi": 68,
      "hit": false,
      "t": 30972.135500000084,
      "d": 138.88850000000093,
      "v": 127
    },
    {
      "midi": 70,
      "hit": false,
      "t": 30972.135500000084,
      "d": 138.88850000000093,
      "v": 127
    },
    {
      "midi": 50,
      "hit": false,
      "t": 30972.1355000001,
      "d": 138.88850000000093,
      "v": 127
    },
    {
      "midi": 58,
      "hit": false,
      "t": 31111.0240000001,
      "d": 138.88850000000093,
      "v": 127
    },
    {
      "midi": 68,
      "hit": false,
      "t": 31249.912500000086,
      "d": 277.77700000000186,
      "v": 127
    },
    {
      "midi": 70,
      "hit": false,
      "t": 31249.912500000086,
      "d": 277.77700000000186,
      "v": 127
    },
    {
      "midi": 50,
      "hit": false,
      "t": 31249.9125000001,
      "d": 138.88850000000093,
      "v": 127
    },
    {
      "midi": 58,
      "hit": false,
      "t": 31388.8010000001,
      "d": 138.88850000000093,
      "v": 127
    },
    {
      "midi": 70,
      "hit": false,
      "t": 31527.689500000088,
      "d": 138.88850000000093,
      "v": 127
    },
    {
      "midi": 51,
      "hit": false,
      "t": 31527.689500000102,
      "d": 138.88850000000093,
      "v": 127
    },
    {
      "midi": 67,
      "hit": false,
      "t": 31666.57800000009,
      "d": 138.88850000000093,
      "v": 127
    },
    {
      "midi": 58,
      "hit": false,
      "t": 31666.578000000103,
      "d": 138.88850000000093,
      "v": 127
    },
    {
      "midi": 65,
      "hit": false,
      "t": 31805.46650000009,
      "d": 138.88850000000093,
      "v": 127
    },
    {
      "midi": 51,
      "hit": false,
      "t": 31805.466500000104,
      "d": 138.88850000000093,
      "v": 127
    },
    {
      "midi": 63,
      "hit": false,
      "t": 31944.35500000009,
      "d": 138.88850000000093,
      "v": 127
    },
    {
      "midi": 58,
      "hit": false,
      "t": 31944.355000000105,
      "d": 138.88850000000093,
      "v": 127
    },
    {
      "midi": 63,
      "hit": false,
      "t": 32083.24350000009,
      "d": 138.88850000000093,
      "v": 127
    },
    {
      "midi": 56,
      "hit": false,
      "t": 32083.243500000106,
      "d": 138.88850000000093,
      "v": 127
    },
    {
      "midi": 62,
      "hit": false,
      "t": 32222.132000000092,
      "d": 138.88850000000093,
      "v": 127
    },
    {
      "midi": 58,
      "hit": false,
      "t": 32222.132000000107,
      "d": 138.88850000000093,
      "v": 127
    },
    {
      "midi": 60,
      "hit": false,
      "t": 32361.020500000093,
      "d": 138.88850000000093,
      "v": 127
    },
    {
      "midi": 56,
      "hit": false,
      "t": 32361.020500000108,
      "d": 138.88850000000093,
      "v": 127
    },
    {
      "midi": 62,
      "hit": false,
      "t": 32499.909000000094,
      "d": 138.88850000000093,
      "v": 127
    },
    {
      "midi": 58,
      "hit": false,
      "t": 32499.90900000011,
      "d": 138.88850000000093,
      "v": 127
    },
    {
      "midi": 63,
      "hit": false,
      "t": 32638.797500000095,
      "d": 138.88850000000093,
      "v": 127
    },
    {
      "midi": 54,
      "hit": false,
      "t": 32638.79750000011,
      "d": 138.88850000000093,
      "v": 127
    },
    {
      "midi": 72,
      "hit": false,
      "t": 32777.686000000096,
      "d": 138.88850000000093,
      "v": 127
    },
    {
      "midi": 58,
      "hit": false,
      "t": 32777.68600000011,
      "d": 138.88850000000093,
      "v": 127
    },
    {
      "midi": 74,
      "hit": false,
      "t": 32916.5745000001,
      "d": 138.88850000000093,
      "v": 127
    },
    {
      "midi": 54,
      "hit": false,
      "t": 32916.57450000011,
      "d": 138.88850000000093,
      "v": 127
    },
    {
      "midi": 75,
      "hit": false,
      "t": 33055.4630000001,
      "d": 138.88850000000093,
      "v": 127
    },
    {
      "midi": 58,
      "hit": false,
      "t": 33055.46300000011,
      "d": 138.88850000000093,
      "v": 127
    },
    {
      "midi": 77,
      "hit": false,
      "t": 33194.3515000001,
      "d": 138.88850000000093,
      "v": 127
    },
    {
      "midi": 50,
      "hit": false,
      "t": 33194.35150000011,
      "d": 138.88850000000093,
      "v": 127
    },
    {
      "midi": 78,
      "hit": false,
      "t": 33333.2400000001,
      "d": 138.88850000000093,
      "v": 127
    },
    {
      "midi": 58,
      "hit": false,
      "t": 33333.240000000114,
      "d": 138.88850000000093,
      "v": 127
    },
    {
      "midi": 80,
      "hit": false,
      "t": 33472.1285000001,
      "d": 138.88850000000093,
      "v": 127
    },
    {
      "midi": 50,
      "hit": false,
      "t": 33472.128500000115,
      "d": 138.88850000000093,
      "v": 127
    },
    {
      "midi": 77,
      "hit": false,
      "t": 33611.0170000001,
      "d": 138.88850000000093,
      "v": 127
    },
    {
      "midi": 58,
      "hit": false,
      "t": 33611.017000000116,
      "d": 138.88850000000093,
      "v": 127
    },
    {
      "midi": 78,
      "hit": false,
      "t": 33749.9055000001,
      "d": 277.77700000000186,
      "v": 127
    },
    {
      "midi": 51,
      "hit": false,
      "t": 33749.90550000012,
      "d": 138.88850000000093,
      "v": 127
    },
    {
      "midi": 58,
      "hit": false,
      "t": 33888.79400000012,
      "d": 138.88850000000093,
      "v": 127
    },
    {
      "midi": 82,
      "hit": false,
      "t": 34027.682500000104,
      "d": 416.6655000000028,
      "v": 127
    },
    {
      "midi": 54,
      "hit": false,
      "t": 34027.68250000012,
      "d": 138.88850000000093,
      "v": 127
    },
    {
      "midi": 58,
      "hit": false,
      "t": 34166.57100000012,
      "d": 138.88850000000093,
      "v": 127
    },
    {
      "midi": 46,
      "hit": false,
      "t": 34305.45950000012,
      "d": 138.88850000000093,
      "v": 127
    },
    {
      "midi": 58,
      "hit": false,
      "t": 34444.34800000012,
      "d": 138.88850000000093,
      "v": 127
    },
    {
      "midi": 82,
      "hit": false,
      "t": 34583.23650000011,
      "d": 555.5539999999964,
      "v": 127
    },
    {
      "midi": 50,
      "hit": false,
      "t": 34583.23650000012,
      "d": 138.88850000000093,
      "v": 127
    },
    {
      "midi": 58,
      "hit": false,
      "t": 34722.125000000124,
      "d": 138.88850000000093,
      "v": 127
    },
    {
      "midi": 47,
      "hit": false,
      "t": 34861.013500000125,
      "d": 138.88850000000093,
      "v": 127
    },
    {
      "midi": 58,
      "hit": false,
      "t": 34999.902000000126,
      "d": 138.88850000000093,
      "v": 127
    },
    {
      "midi": 87,
      "hit": false,
      "t": 35138.790500000105,
      "d": 416.6655000000028,
      "v": 127
    },
    {
      "midi": 51,
      "hit": false,
      "t": 35138.79050000013,
      "d": 138.88850000000093,
      "v": 127
    },
    {
      "midi": 58,
      "hit": false,
      "t": 35277.67900000013,
      "d": 138.88850000000093,
      "v": 127
    },
    {
      "midi": 47,
      "hit": false,
      "t": 35416.56750000013,
      "d": 138.88850000000093,
      "v": 127
    },
    {
      "midi": 57,
      "hit": false,
      "t": 35555.45600000013,
      "d": 138.88850000000093,
      "v": 127
    },
    {
      "midi": 81,
      "hit": false,
      "t": 35694.34450000011,
      "d": 277.77700000000186,
      "v": 127
    },
    {
      "midi": 51,
      "hit": false,
      "t": 35694.34450000013,
      "d": 138.88850000000093,
      "v": 127
    },
    {
      "midi": 57,
      "hit": false,
      "t": 35833.23300000013,
      "d": 138.88850000000093,
      "v": 127
    },
    {
      "midi": 82,
      "hit": false,
      "t": 35972.12150000011,
      "d": 555.5540000000037,
      "v": 127
    },
    {
      "midi": 46,
      "hit": false,
      "t": 35972.12150000013,
      "d": 277.77700000000186,
      "v": 127
    },
    {
      "midi": 58,
      "hit": false,
      "t": 36249.898500000134,
      "d": 277.77700000000186,
      "v": 127
    },
    {
      "midi": 62,
      "hit": false,
      "t": 36249.898500000134,
      "d": 277.77700000000186,
      "v": 127
    },
    {
      "midi": 65,
      "hit": false,
      "t": 36249.898500000134,
      "d": 277.77700000000186,
      "v": 127
    },
    {
      "midi": 58,
      "hit": false,
      "t": 36527.675500000136,
      "d": 138.88850000000093,
      "v": 127
    },
    {
      "midi": 63,
      "hit": false,
      "t": 36527.675500000136,
      "d": 138.88850000000093,
      "v": 127
    },
    {
      "midi": 66,
      "hit": false,
      "t": 36527.675500000136,
      "d": 138.88850000000093,
      "v": 127
    },
    {
      "midi": 81,
      "hit": false,
      "t": 36597.119750000114,
      "d": 69.44425000000047,
      "v": 127
    },
    {
      "midi": 82,
      "hit": false,
      "t": 36736.008250000115,
      "d": 69.44425000000047,
      "v": 127
    },
    {
      "midi": 84,
      "hit": false,
      "t": 36805.452500000116,
      "d": 69.44425000000047,
      "v": 127
    },
    {
      "midi": 82,
      "hit": false,
      "t": 36874.896750000116,
      "d": 69.44425000000047,
      "v": 127
    },
    {
      "midi": 81,
      "hit": false,
      "t": 37013.78525000012,
      "d": 69.44425000000047,
      "v": 127
    },
    {
      "midi": 82,
      "hit": false,
      "t": 37083.22950000012,
      "d": 555.5540000000037,
      "v": 127
    },
    {
      "midi": 58,
      "hit": false,
      "t": 37361.006500000134,
      "d": 277.77700000000186,
      "v": 127
    },
    {
      "midi": 62,
      "hit": false,
      "t": 37361.006500000134,
      "d": 277.77700000000186,
      "v": 127
    },
    {
      "midi": 65,
      "hit": false,
      "t": 37361.006500000134,
      "d": 277.77700000000186,
      "v": 127
    },
    {
      "midi": 58,
      "hit": false,
      "t": 37638.783500000136,
      "d": 138.88850000000093,
      "v": 127
    },
    {
      "midi": 63,
      "hit": false,
      "t": 37638.783500000136,
      "d": 138.88850000000093,
      "v": 127
    },
    {
      "midi": 66,
      "hit": false,
      "t": 37638.783500000136,
      "d": 138.88850000000093,
      "v": 127
    },
    {
      "midi": 81,
      "hit": false,
      "t": 37708.22775000012,
      "d": 69.44425000000047,
      "v": 127
    },
    {
      "midi": 82,
      "hit": false,
      "t": 37847.11625000012,
      "d": 69.44425000000047,
      "v": 127
    },
    {
      "midi": 84,
      "hit": false,
      "t": 37916.56050000012,
      "d": 69.44425000000047,
      "v": 127
    },
    {
      "midi": 82,
      "hit": false,
      "t": 37986.004750000124,
      "d": 69.44425000000047,
      "v": 127
    },
    {
      "midi": 81,
      "hit": false,
      "t": 38124.893250000125,
      "d": 69.44425000000047,
      "v": 127
    },
    {
      "midi": 58,
      "hit": false,
      "t": 38194.33750000014,
      "d": 277.77700000000186,
      "v": 127
    },
    {
      "midi": 62,
      "hit": false,
      "t": 38194.33750000014,
      "d": 277.77700000000186,
      "v": 127
    },
    {
      "midi": 65,
      "hit": false,
      "t": 38194.33750000014,
      "d": 277.77700000000186,
      "v": 127
    },
    {
      "midi": 82,
      "hit": false,
      "t": 38263.781750000126,
      "d": 69.44425000000047,
      "v": 127
    },
    {
      "midi": 84,
      "hit": false,
      "t": 38402.67025000013,
      "d": 69.44425000000047,
      "v": 127
    },
    {
      "midi": 86,
      "hit": false,
      "t": 38472.11450000013,
      "d": 69.44425000000047,
      "v": 127
    },
    {
      "midi": 84,
      "hit": false,
      "t": 38541.55875000013,
      "d": 69.44425000000047,
      "v": 127
    },
    {
      "midi": 82,
      "hit": false,
      "t": 38680.44725000013,
      "d": 69.44425000000047,
      "v": 127
    },
    {
      "midi": 58,
      "hit": false,
      "t": 38749.89150000014,
      "d": 138.88850000000093,
      "v": 127
    },
    {
      "midi": 65,
      "hit": false,
      "t": 38749.89150000014,
      "d": 138.88850000000093,
      "v": 127
    },
    {
      "midi": 68,
      "hit": false,
      "t": 38749.89150000014,
      "d": 138.88850000000093,
      "v": 127
    },
    {
      "midi": 86,
      "hit": false,
      "t": 38819.33575000013,
      "d": 69.44425000000047,
      "v": 127
    },
    {
      "midi": 87,
      "hit": false,
      "t": 38958.22425000013,
      "d": 69.44425000000047,
      "v": 127
    },
    {
      "midi": 89,
      "hit": false,
      "t": 39027.66850000013,
      "d": 69.44425000000047,
      "v": 127
    },
    {
      "midi": 87,
      "hit": false,
      "t": 39097.11275000013,
      "d": 69.44425000000047,
      "v": 127
    },
    {
      "midi": 86,
      "hit": false,
      "t": 39236.00125000013,
      "d": 69.44425000000047,
      "v": 127
    },
    {
      "midi": 89,
      "hit": false,
      "t": 39305.44550000013,
      "d": 69.44425000000047,
      "v": 127
    },
    {
      "midi": 58,
      "hit": false,
      "t": 39305.44550000015,
      "d": 277.77700000000186,
      "v": 127
    },
    {
      "midi": 62,
      "hit": false,
      "t": 39305.44550000015,
      "d": 277.77700000000186,
      "v": 127
    },
    {
      "midi": 65,
      "hit": false,
      "t": 39305.44550000015,
      "d": 277.77700000000186,
      "v": 127
    },
    {
      "midi": 68,
      "hit": false,
      "t": 39305.44550000015,
      "d": 277.77700000000186,
      "v": 127
    },
    {
      "midi": 87,
      "hit": false,
      "t": 39374.88975000013,
      "d": 69.44425000000047,
      "v": 127
    },
    {
      "midi": 86,
      "hit": false,
      "t": 39513.778250000134,
      "d": 69.44425000000047,
      "v": 127
    },
    {
      "midi": 84,
      "hit": false,
      "t": 39583.222500000134,
      "d": 69.44425000000047,
      "v": 127
    },
    {
      "midi": 82,
      "hit": false,
      "t": 39652.666750000135,
      "d": 69.44425000000047,
      "v": 127
    },
    {
      "midi": 80,
      "hit": false,
      "t": 39791.555250000136,
      "d": 69.44425000000047,
      "v": 127
    },
    {
      "midi": 79,
      "hit": false,
      "t": 39860.999500000136,
      "d": 69.44425000000047,
      "v": 127
    },
    {
      "midi": 77,
      "hit": false,
      "t": 39930.44375000014,
      "d": 69.44425000000047,
      "v": 127
    },
    {
      "midi": 75,
      "hit": false,
      "t": 40069.33225000014,
      "d": 69.44425000000047,
      "v": 127
    },
    {
      "midi": 74,
      "hit": false,
      "t": 40138.77650000014,
      "d": 69.44425000000047,
      "v": 127
    },
    {
      "midi": 72,
      "hit": false,
      "t": 40208.22075000014,
      "d": 69.44425000000047,
      "v": 127
    },
    {
      "midi": 70,
      "hit": false,
      "t": 40277.66500000014,
      "d": 69.44425000000047,
      "v": 127
    },
    {
      "midi": 68,
      "hit": false,
      "t": 40347.10925000014,
      "d": 69.44425000000047,
      "v": 127
    },
    {
      "midi": 67,
      "hit": false,
      "t": 40416.55350000014,
      "d": 69.44425000000047,
      "v": 127
    },
    {
      "midi": 51,
      "hit": false,
      "t": 40416.55350000015,
      "d": 277.77700000000186,
      "v": 127
    },
    {
      "midi": 63,
      "hit": false,
      "t": 40485.99775000014,
      "d": 69.44425000000047,
      "v": 127
    },
    {
      "midi": 65,
      "hit": false,
      "t": 40624.88625000014,
      "d": 69.44425000000047,
      "v": 127
    },
    {
      "midi": 67,
      "hit": false,
      "t": 40694.33050000014,
      "d": 69.44425000000047,
      "v": 127
    },
    {
      "midi": 65,
      "hit": false,
      "t": 40763.77475000014,
      "d": 69.44425000000047,
      "v": 127
    },
    {
      "midi": 63,
      "hit": false,
      "t": 40902.66325000014,
      "d": 69.44425000000047,
      "v": 127
    },
    {
      "midi": 68,
      "hit": false,
      "t": 40972.107500000144,
      "d": 138.88850000000093,
      "v": 127
    },
    {
      "midi": 58,
      "hit": false,
      "t": 41041.55175000015,
      "d": 69.44425000000047,
      "v": 127
    },
    {
      "midi": 60,
      "hit": false,
      "t": 41180.44025000015,
      "d": 69.44425000000047,
      "v": 127
    },
    {
      "midi": 62,
      "hit": false,
      "t": 41249.88450000015,
      "d": 69.44425000000047,
      "v": 127
    },
    {
      "midi": 60,
      "hit": false,
      "t": 41319.32875000015,
      "d": 69.44425000000047,
      "v": 127
    },
    {
      "midi": 58,
      "hit": false,
      "t": 41458.217250000154,
      "d": 69.44425000000047,
      "v": 127
    },
    {
      "midi": 67,
      "hit": false,
      "t": 41527.66150000015,
      "d": 69.44425000000047,
      "v": 127
    },
    {
      "midi": 63,
      "hit": false,
      "t": 41527.661500000155,
      "d": 277.77700000000186,
      "v": 127
    },
    {
      "midi": 75,
      "hit": false,
      "t": 41597.10575000015,
      "d": 69.44425000000047,
      "v": 127
    },
    {
      "midi": 77,
      "hit": false,
      "t": 41735.99425000015,
      "d": 69.44425000000047,
      "v": 127
    },
    {
      "midi": 79,
      "hit": false,
      "t": 41805.43850000015,
      "d": 69.44425000000047,
      "v": 127
    },
    {
      "midi": 77,
      "hit": false,
      "t": 41874.88275000015,
      "d": 69.44425000000047,
      "v": 127
    },
    {
      "midi": 75,
      "hit": false,
      "t": 42013.77125000015,
      "d": 69.44425000000047,
      "v": 127
    },
    {
      "midi": 80,
      "hit": false,
      "t": 42083.21550000015,
      "d": 138.88850000000093,
      "v": 127
    },
    {
      "midi": 58,
      "hit": false,
      "t": 42152.65975000016,
      "d": 69.44425000000047,
      "v": 127
    },
    {
      "midi": 60,
      "hit": false,
      "t": 42291.54825000016,
      "d": 69.44425000000047,
      "v": 127
    },
    {
      "midi": 62,
      "hit": false,
      "t": 42360.99250000016,
      "d": 69.44425000000047,
      "v": 127
    },
    {
      "midi": 60,
      "hit": false,
      "t": 42430.43675000016,
      "d": 69.44425000000047,
      "v": 127
    },
    {
      "midi": 58,
      "hit": false,
      "t": 42569.32525000016,
      "d": 69.44425000000047,
      "v": 127
    },
    {
      "midi": 79,
      "hit": false,
      "t": 42638.769500000155,
      "d": 69.44425000000047,
      "v": 127
    },
    {
      "midi": 63,
      "hit": false,
      "t": 42638.76950000016,
      "d": 277.77700000000186,
      "v": 127
    },
    {
      "midi": 75,
      "hit": false,
      "t": 42708.213750000155,
      "d": 69.44425000000047,
      "v": 127
    },
    {
      "midi": 77,
      "hit": false,
      "t": 42847.102250000156,
      "d": 69.44425000000047,
      "v": 127
    },
    {
      "midi": 79,
      "hit": false,
      "t": 42916.54650000016,
      "d": 69.44425000000047,
      "v": 127
    },
    {
      "midi": 77,
      "hit": false,
      "t": 42985.99075000016,
      "d": 69.44425000000047,
      "v": 127
    },
    {
      "midi": 75,
      "hit": false,
      "t": 43124.87925000016,
      "d": 69.44425000000047,
      "v": 127
    },
    {
      "midi": 82,
      "hit": false,
      "t": 43194.32350000016,
      "d": 69.44425000000047,
      "v": 127
    },
    {
      "midi": 63,
      "hit": false,
      "t": 43194.323500000166,
      "d": 138.88850000000093,
      "v": 127
    },
    {
      "midi": 79,
      "hit": false,
      "t": 43263.76775000016,
      "d": 69.44425000000047,
      "v": 127
    },
    {
      "midi": 80,
      "hit": false,
      "t": 43402.65625000016,
      "d": 69.44425000000047,
      "v": 127
    },
    {
      "midi": 82,
      "hit": false,
      "t": 43472.10050000016,
      "d": 69.44425000000047,
      "v": 127
    },
    {
      "midi": 80,
      "hit": false,
      "t": 43541.54475000016,
      "d": 69.44425000000047,
      "v": 127
    },
    {
      "midi": 79,
      "hit": false,
      "t": 43680.43325000016,
      "d": 69.44425000000047,
      "v": 127
    },
    {
      "midi": 85,
      "hit": false,
      "t": 43749.87750000016,
      "d": 69.44425000000047,
      "v": 127
    },
    {
      "midi": 55,
      "hit": false,
      "t": 43749.87750000017,
      "d": 277.77700000000186,
      "v": 127
    },
    {
      "midi": 58,
      "hit": false,
      "t": 43749.87750000017,
      "d": 277.77700000000186,
      "v": 127
    },
    {
      "midi": 61,
      "hit": false,
      "t": 43749.87750000017,
      "d": 277.77700000000186,
      "v": 127
    },
    {
      "midi": 63,
      "hit": false,
      "t": 43749.87750000017,
      "d": 277.77700000000186,
      "v": 127
    },
    {
      "midi": 84,
      "hit": false,
      "t": 43819.32175000016,
      "d": 69.44425000000047,
      "v": 127
    },
    {
      "midi": 82,
      "hit": false,
      "t": 43958.210250000164,
      "d": 69.44425000000047,
      "v": 127
    },
    {
      "midi": 80,
      "hit": false,
      "t": 44027.654500000164,
      "d": 69.44425000000047,
      "v": 127
    },
    {
      "midi": 79,
      "hit": false,
      "t": 44097.098750000165,
      "d": 69.44425000000047,
      "v": 127
    },
    {
      "midi": 77,
      "hit": false,
      "t": 44235.987250000166,
      "d": 69.44425000000047,
      "v": 127
    },
    {
      "midi": 75,
      "hit": false,
      "t": 44305.431500000166,
      "d": 69.44425000000047,
      "v": 127
    },
    {
      "midi": 74,
      "hit": false,
      "t": 44374.87575000017,
      "d": 69.44425000000047,
      "v": 127
    },
    {
      "midi": 75,
      "hit": false,
      "t": 44513.76425000017,
      "d": 69.44425000000047,
      "v": 127
    },
    {
      "midi": 76,
      "hit": false,
      "t": 44583.20850000017,
      "d": 69.44425000000047,
      "v": 127
    },
    {
      "midi": 77,
      "hit": false,
      "t": 44652.65275000017,
      "d": 69.44425000000047,
      "v": 127
    },
    {
      "midi": 73,
      "hit": false,
      "t": 44791.54125000017,
      "d": 69.44425000000047,
      "v": 127
    },
    {
      "midi": 44,
      "hit": false,
      "t": 44860.98550000017,
      "d": 69.44425000000047,
      "v": 127
    },
    {
      "midi": 48,
      "hit": false,
      "t": 44930.42975000017,
      "d": 69.44425000000047,
      "v": 127
    },
    {
      "midi": 51,
      "hit": false,
      "t": 45069.31825000017,
      "d": 69.44425000000047,
      "v": 127
    },
    {
      "midi": 60,
      "hit": false,
      "t": 45138.76250000017,
      "d": 69.44425000000047,
      "v": 127
    },
    {
      "midi": 56,
      "hit": false,
      "t": 45138.76250000017,
      "d": 277.77700000000186,
      "v": 127
    },
    {
      "midi": 63,
      "hit": false,
      "t": 45208.20675000017,
      "d": 69.44425000000047,
      "v": 127
    },
    {
      "midi": 68,
      "hit": false,
      "t": 45347.09525000017,
      "d": 69.44425000000047,
      "v": 127
    },
    {
      "midi": 72,
      "hit": false,
      "t": 45416.53950000017,
      "d": 69.44425000000047,
      "v": 127
    },
    {
      "midi": 75,
      "hit": false,
      "t": 45485.983750000174,
      "d": 69.44425000000047,
      "v": 127
    },
    {
      "midi": 80,
      "hit": false,
      "t": 45624.872250000175,
      "d": 69.44425000000047,
      "v": 127
    },
    {
      "midi": 84,
      "hit": false,
      "t": 45694.316500000175,
      "d": 138.88850000000093,
      "v": 127
    },
    {
      "midi": 84,
      "hit": false,
      "t": 45833.20500000018,
      "d": 138.88850000000093,
      "v": 127
    },
    {
      "midi": 84,
      "hit": false,
      "t": 45972.09350000018,
      "d": 138.88850000000093,
      "v": 127
    },
    {
      "midi": 58,
      "hit": false,
      "t": 45972.09350000018,
      "d": 277.77700000000186,
      "v": 127
    },
    {
      "midi": 63,
      "hit": false,
      "t": 45972.09350000018,
      "d": 277.77700000000186,
      "v": 127
    },
    {
      "midi": 67,
      "hit": false,
      "t": 45972.09350000018,
      "d": 277.77700000000186,
      "v": 127
    },
    {
      "midi": 82,
      "hit": false,
      "t": 46110.98200000018,
      "d": 138.88850000000093,
      "v": 127
    },
    {
      "midi": 80,
      "hit": false,
      "t": 46249.87050000018,
      "d": 138.88850000000093,
      "v": 127
    },
    {
      "midi": 79,
      "hit": false,
      "t": 46388.75900000018,
      "d": 138.88850000000093,
      "v": 127
    },
    {
      "midi": 79,
      "hit": false,
      "t": 46527.64750000018,
      "d": 138.88850000000093,
      "v": 127
    },
    {
      "midi": 58,
      "hit": false,
      "t": 46527.64750000018,
      "d": 138.88850000000093,
      "v": 127
    },
    {
      "midi": 65,
      "hit": false,
      "t": 46527.64750000018,
      "d": 138.88850000000093,
      "v": 127
    },
    {
      "midi": 68,
      "hit": false,
      "t": 46527.64750000018,
      "d": 138.88850000000093,
      "v": 127
    },
    {
      "midi": 77,
      "hit": false,
      "t": 46666.53600000018,
      "d": 138.88850000000093,
      "v": 127
    },
    {
      "midi": 75,
      "hit": false,
      "t": 46805.42450000018,
      "d": 138.88850000000093,
      "v": 127
    },
    {
      "midi": 74,
      "hit": false,
      "t": 46944.313000000184,
      "d": 138.88850000000093,
      "v": 127
    },
    {
      "midi": 75,
      "hit": false,
      "t": 47083.201500000185,
      "d": 277.77700000000186,
      "v": 127
    },
    {
      "midi": 63,
      "hit": false,
      "t": 47083.201500000185,
      "d": 277.77700000000186,
      "v": 127
    },
    {
      "midi": 67,
      "hit": false,
      "t": 47083.201500000185,
      "d": 277.77700000000186,
      "v": 127
    },
    {
      "midi": 58,
      "hit": false,
      "t": 47916.53250000019,
      "d": 277.77700000000186,
      "v": 127
    },
    {
      "midi": 56,
      "hit": false,
      "t": 48194.309500000185,
      "d": 277.77700000000186,
      "v": 127
    },
    {
      "midi": 58,
      "hit": false,
      "t": 48194.309500000185,
      "d": 277.77700000000186,
      "v": 127
    },
    {
      "midi": 62,
      "hit": false,
      "t": 48194.30950000019,
      "d": 277.77700000000186,
      "v": 127
    },
    {
      "midi": 65,
      "hit": false,
      "t": 48194.30950000019,
      "d": 277.77700000000186,
      "v": 127
    },
    {
      "midi": 56,
      "hit": false,
      "t": 48472.08650000019,
      "d": 277.77700000000186,
      "v": 127
    },
    {
      "midi": 58,
      "hit": false,
      "t": 48472.08650000019,
      "d": 277.77700000000186,
      "v": 127
    },
    {
      "midi": 62,
      "hit": false,
      "t": 48472.086500000194,
      "d": 277.77700000000186,
      "v": 127
    },
    {
      "midi": 65,
      "hit": false,
      "t": 48472.086500000194,
      "d": 277.77700000000186,
      "v": 127
    },
    {
      "midi": 56,
      "hit": false,
      "t": 48749.86350000019,
      "d": 138.88850000000093,
      "v": 127
    },
    {
      "midi": 58,
      "hit": false,
      "t": 48749.86350000019,
      "d": 138.88850000000093,
      "v": 127
    },
    {
      "midi": 62,
      "hit": false,
      "t": 48749.863500000196,
      "d": 138.88850000000093,
      "v": 127
    },
    {
      "midi": 65,
      "hit": false,
      "t": 48749.863500000196,
      "d": 138.88850000000093,
      "v": 127
    },
    {
      "midi": 56,
      "hit": false,
      "t": 49027.64050000019,
      "d": 277.77700000000186,
      "v": 127
    },
    {
      "midi": 58,
      "hit": false,
      "t": 49027.64050000019,
      "d": 277.77700000000186,
      "v": 127
    },
    {
      "midi": 62,
      "hit": false,
      "t": 49027.6405000002,
      "d": 277.77700000000186,
      "v": 127
    },
    {
      "midi": 65,
      "hit": false,
      "t": 49027.6405000002,
      "d": 277.77700000000186,
      "v": 127
    },
    {
      "midi": 55,
      "hit": false,
      "t": 49305.41750000019,
      "d": 694.4424999999974,
      "v": 127
    },
    {
      "midi": 58,
      "hit": false,
      "t": 49305.41750000019,
      "d": 694.4424999999974,
      "v": 127
    },
    {
      "midi": 63,
      "hit": false,
      "t": 49305.4175000002,
      "d": 694.4424999999974,
      "v": 127
    },
    {
      "midi": 70,
      "hit": false,
      "t": 49305.4175000002,
      "d": 694.4424999999974,
      "v": 127
    },
    {
      "midi": 55,
      "hit": false,
      "t": 50138.74850000019,
      "d": 277.77700000000186,
      "v": 127
    },
    {
      "midi": 63,
      "hit": false,
      "t": 50138.7485000002,
      "d": 277.77700000000186,
      "v": 127
    },
    {
      "midi": 70,
      "hit": false,
      "t": 50138.7485000002,
      "d": 277.77700000000186,
      "v": 127
    },
    {
      "midi": 60,
      "hit": false,
      "t": 50416.52550000019,
      "d": 555.5540000000037,
      "v": 127
    },
    {
      "midi": 63,
      "hit": false,
      "t": 50416.5255000002,
      "d": 555.5539999999964,
      "v": 127
    },
    {
      "midi": 68,
      "hit": false,
      "t": 50416.5255000002,
      "d": 555.5539999999964,
      "v": 127
    },
    {
      "midi": 63,
      "hit": false,
      "t": 50972.079500000196,
      "d": 138.88850000000093,
      "v": 127
    },
    {
      "midi": 65,
      "hit": false,
      "t": 50972.079500000196,
      "d": 138.88850000000093,
      "v": 127
    },
    {
      "midi": 69,
      "hit": false,
      "t": 50972.079500000196,
      "d": 138.88850000000093,
      "v": 127
    },
    {
      "midi": 59,
      "hit": false,
      "t": 50972.079500000196,
      "d": 138.88850000000093,
      "v": 127
    },
    {
      "midi": 62,
      "hit": false,
      "t": 51527.6335000002,
      "d": 694.4424999999974,
      "v": 127
    },
    {
      "midi": 65,
      "hit": false,
      "t": 51527.6335000002,
      "d": 694.4424999999974,
      "v": 127
    },
    {
      "midi": 70,
      "hit": false,
      "t": 51527.6335000002,
      "d": 694.4424999999974,
      "v": 127
    },
    {
      "midi": 58,
      "hit": false,
      "t": 51527.6335000002,
      "d": 694.4424999999974,
      "v": 127
    },
    {
      "midi": 70,
      "hit": false,
      "t": 52360.9645000002,
      "d": 277.77700000000186,
      "v": 127
    },
    {
      "midi": 70,
      "hit": false,
      "t": 52638.7415000002,
      "d": 277.77700000000186,
      "v": 127
    },
    {
      "midi": 77,
      "hit": false,
      "t": 52638.7415000002,
      "d": 277.77700000000186,
      "v": 127
    },
    {
      "midi": 56,
      "hit": false,
      "t": 52638.7415000002,
      "d": 277.77700000000186,
      "v": 127
    },
    {
      "midi": 62,
      "hit": false,
      "t": 52638.7415000002,
      "d": 277.77700000000186,
      "v": 127
    },
    {
      "midi": 70,
      "hit": false,
      "t": 52916.5185000002,
      "d": 277.77700000000186,
      "v": 127
    },
    {
      "midi": 77,
      "hit": false,
      "t": 52916.5185000002,
      "d": 277.77700000000186,
      "v": 127
    },
    {
      "midi": 56,
      "hit": false,
      "t": 52916.5185000002,
      "d": 277.77700000000186,
      "v": 127
    },
    {
      "midi": 62,
      "hit": false,
      "t": 52916.5185000002,
      "d": 277.77700000000186,
      "v": 127
    },
    {
      "midi": 70,
      "hit": false,
      "t": 53194.295500000204,
      "d": 138.88850000000093,
      "v": 127
    },
    {
      "midi": 77,
      "hit": false,
      "t": 53194.295500000204,
      "d": 138.88850000000093,
      "v": 127
    },
    {
      "midi": 56,
      "hit": false,
      "t": 53194.295500000204,
      "d": 138.88850000000093,
      "v": 127
    },
    {
      "midi": 62,
      "hit": false,
      "t": 53194.295500000204,
      "d": 138.88850000000093,
      "v": 127
    },
    {
      "midi": 70,
      "hit": false,
      "t": 53472.072500000206,
      "d": 277.77700000000186,
      "v": 127
    },
    {
      "midi": 77,
      "hit": false,
      "t": 53472.072500000206,
      "d": 277.77700000000186,
      "v": 127
    },
    {
      "midi": 56,
      "hit": false,
      "t": 53472.072500000206,
      "d": 277.77700000000186,
      "v": 127
    },
    {
      "midi": 62,
      "hit": false,
      "t": 53472.072500000206,
      "d": 277.77700000000186,
      "v": 127
    },
    {
      "midi": 82,
      "hit": false,
      "t": 53749.84950000021,
      "d": 555.5539999999964,
      "v": 127
    },
    {
      "midi": 55,
      "hit": false,
      "t": 53749.84950000021,
      "d": 694.4424999999974,
      "v": 127
    },
    {
      "midi": 63,
      "hit": false,
      "t": 53749.84950000021,
      "d": 694.4424999999974,
      "v": 127
    },
    {
      "midi": 73,
      "hit": false,
      "t": 54305.403500000204,
      "d": 138.88850000000093,
      "v": 127
    },
    {
      "midi": 83,
      "hit": false,
      "t": 54583.180500000206,
      "d": 277.77700000000186,
      "v": 127
    },
    {
      "midi": 72,
      "hit": false,
      "t": 54860.95750000021,
      "d": 277.77700000000186,
      "v": 127
    },
    {
      "midi": 84,
      "hit": false,
      "t": 54860.95750000021,
      "d": 277.77700000000186,
      "v": 127
    },
    {
      "midi": 56,
      "hit": false,
      "t": 54860.95750000021,
      "d": 277.77700000000186,
      "v": 127
    },
    {
      "midi": 63,
      "hit": false,
      "t": 54860.95750000021,
      "d": 277.77700000000186,
      "v": 127
    },
    {
      "midi": 65,
      "hit": false,
      "t": 55416.51150000021,
      "d": 138.88850000000093,
      "v": 127
    },
    {
      "midi": 68,
      "hit": false,
      "t": 55416.51150000021,
      "d": 138.88850000000093,
      "v": 127
    },
    {
      "midi": 74,
      "hit": false,
      "t": 55416.51150000021,
      "d": 138.88850000000093,
      "v": 127
    },
    {
      "midi": 46,
      "hit": false,
      "t": 55416.51150000021,
      "d": 138.88850000000093,
      "v": 127
    },
    {
      "midi": 58,
      "hit": false,
      "t": 55416.51150000021,
      "d": 138.88850000000093,
      "v": 127
    },
    {
      "midi": 67,
      "hit": false,
      "t": 55972.065500000215,
      "d": 277.77700000000186,
      "v": 127
    },
    {
      "midi": 75,
      "hit": false,
      "t": 55972.065500000215,
      "d": 277.77700000000186,
      "v": 127
    },
    {
      "midi": 63,
      "hit": false,
      "t": 56041.509750000216,
      "d": 69.44425000000047,
      "v": 127
    },
    {
      "midi": 65,
      "hit": false,
      "t": 56180.39825000022,
      "d": 69.44425000000047,
      "v": 127
    },
    {
      "midi": 67,
      "hit": false,
      "t": 56249.84250000022,
      "d": 69.44425000000047,
      "v": 127
    },
    {
      "midi": 65,
      "hit": false,
      "t": 56319.28675000022,
      "d": 69.44425000000047,
      "v": 127
    },
    {
      "midi": 63,
      "hit": false,
      "t": 56458.17525000022,
      "d": 69.44425000000047,
      "v": 127
    },
    {
      "midi": 68,
      "hit": false,
      "t": 56527.61950000022,
      "d": 138.88850000000093,
      "v": 127
    },
    {
      "midi": 70,
      "hit": false,
      "t": 56597.06375000022,
      "d": 69.44425000000047,
      "v": 127
    },
    {
      "midi": 72,
      "hit": false,
      "t": 56735.95225000022,
      "d": 69.44425000000047,
      "v": 127
    },
    {
      "midi": 74,
      "hit": false,
      "t": 56805.39650000022,
      "d": 69.44425000000047,
      "v": 127
    },
    {
      "midi": 72,
      "hit": false,
      "t": 56874.84075000022,
      "d": 69.44425000000047,
      "v": 127
    },
    {
      "midi": 70,
      "hit": false,
      "t": 57013.72925000022,
      "d": 69.44425000000047,
      "v": 127
    },
    {
      "midi": 75,
      "hit": false,
      "t": 57083.17350000022,
      "d": 277.77700000000186,
      "v": 127
    },
    {
      "midi": 67,
      "hit": false,
      "t": 57083.17350000022,
      "d": 69.44425000000047,
      "v": 127
    },
    {
      "midi": 63,
      "hit": false,
      "t": 57152.61775000022,
      "d": 69.44425000000047,
      "v": 127
    },
    {
      "midi": 65,
      "hit": false,
      "t": 57291.506250000224,
      "d": 69.44425000000047,
      "v": 127
    },
    {
      "midi": 67,
      "hit": false,
      "t": 57360.950500000225,
      "d": 69.44425000000047,
      "v": 127
    },
    {
      "midi": 65,
      "hit": false,
      "t": 57430.394750000225,
      "d": 69.44425000000047,
      "v": 127
    },
    {
      "midi": 63,
      "hit": false,
      "t": 57569.283250000226,
      "d": 69.44425000000047,
      "v": 127
    },
    {
      "midi": 68,
      "hit": false,
      "t": 57638.72750000023,
      "d": 138.88850000000093,
      "v": 127
    },
    {
      "midi": 70,
      "hit": false,
      "t": 57708.17175000023,
      "d": 69.44425000000047,
      "v": 127
    },
    {
      "midi": 72,
      "hit": false,
      "t": 57847.06025000023,
      "d": 69.44425000000047,
      "v": 127
    },
    {
      "midi": 74,
      "hit": false,
      "t": 57916.50450000023,
      "d": 69.44425000000047,
      "v": 127
    },
    {
      "midi": 72,
      "hit": false,
      "t": 57985.94875000023,
      "d": 69.44425000000047,
      "v": 127
    },
    {
      "midi": 70,
      "hit": false,
      "t": 58124.83725000023,
      "d": 69.44425000000047,
      "v": 127
    },
    {
      "midi": 75,
      "hit": false,
      "t": 58194.28150000023,
      "d": 69.44425000000047,
      "v": 127
    },
    {
      "midi": 63,
      "hit": false,
      "t": 58194.28150000023,
      "d": 277.77700000000186,
      "v": 127
    },
    {
      "midi": 67,
      "hit": false,
      "t": 58194.28150000023,
      "d": 277.77700000000186,
      "v": 127
    },
    {
      "midi": 79,
      "hit": false,
      "t": 58263.72575000023,
      "d": 69.44425000000047,
      "v": 127
    },
    {
      "midi": 77,
      "hit": false,
      "t": 58402.61425000023,
      "d": 69.44425000000047,
      "v": 127
    },
    {
      "midi": 75,
      "hit": false,
      "t": 58472.05850000023,
      "d": 69.44425000000047,
      "v": 127
    },
    {
      "midi": 60,
      "hit": false,
      "t": 58472.05850000023,
      "d": 277.77700000000186,
      "v": 127
    },
    {
      "midi": 74,
      "hit": false,
      "t": 58541.50275000023,
      "d": 69.44425000000047,
      "v": 127
    },
    {
      "midi": 72,
      "hit": false,
      "t": 58680.39125000023,
      "d": 69.44425000000047,
      "v": 127
    },
    {
      "midi": 71,
      "hit": false,
      "t": 58749.835500000234,
      "d": 69.44425000000047,
      "v": 127
    },
    {
      "midi": 56,
      "hit": false,
      "t": 58749.835500000234,
      "d": 138.88850000000093,
      "v": 127
    },
    {
      "midi": 72,
      "hit": false,
      "t": 58819.279750000234,
      "d": 69.44425000000047,
      "v": 127
    },
    {
      "midi": 70,
      "hit": false,
      "t": 58958.168250000235,
      "d": 69.44425000000047,
      "v": 127
    },
    {
      "midi": 68,
      "hit": false,
      "t": 59027.612500000236,
      "d": 69.44425000000047,
      "v": 127
    },
    {
      "midi": 58,
      "hit": false,
      "t": 59027.612500000236,
      "d": 277.77700000000186,
      "v": 127
    },
    {
      "midi": 67,
      "hit": false,
      "t": 59097.056750000236,
      "d": 69.44425000000047,
      "v": 127
    },
    {
      "midi": 65,
      "hit": false,
      "t": 59235.94525000024,
      "d": 69.44425000000047,
      "v": 127
    },
    {
      "midi": 63,
      "hit": false,
      "t": 59305.38950000024,
      "d": 277.77700000000186,
      "v": 127
    },
    {
      "midi": 39,
      "hit": false,
      "t": 59374.83375000024,
      "d": 69.44425000000047,
      "v": 127
    },
    {
      "midi": 41,
      "hit": false,
      "t": 59513.72225000024,
      "d": 69.44425000000047,
      "v": 127
    },
    {
      "midi": 43,
      "hit": false,
      "t": 59583.16650000024,
      "d": 69.44425000000047,
      "v": 127
    },
    {
      "midi": 41,
      "hit": false,
      "t": 59652.61075000024,
      "d": 69.44425000000047,
      "v": 127
    },
    {
      "midi": 39,
      "hit": false,
      "t": 59791.49925000024,
      "d": 69.44425000000047,
      "v": 127
    },
    {
      "midi": 44,
      "hit": false,
      "t": 59860.94350000024,
      "d": 138.88850000000093,
      "v": 127
    },
    {
      "midi": 58,
      "hit": false,
      "t": 59930.38775000024,
      "d": 69.44425000000047,
      "v": 127
    },
    {
      "midi": 60,
      "hit": false,
      "t": 60069.27625000024,
      "d": 69.44425000000047,
      "v": 127
    },
    {
      "midi": 62,
      "hit": false,
      "t": 60138.72050000024,
      "d": 69.44425000000047,
      "v": 127
    },
    {
      "midi": 60,
      "hit": false,
      "t": 60208.164750000244,
      "d": 69.44425000000047,
      "v": 127
    },
    {
      "midi": 58,
      "hit": false,
      "t": 60347.053250000245,
      "d": 69.44425000000047,
      "v": 127
    },
    {
      "midi": 63,
      "hit": false,
      "t": 60416.497500000245,
      "d": 277.77700000000186,
      "v": 127
    },
    {
      "midi": 43,
      "hit": false,
      "t": 60416.497500000245,
      "d": 69.44425000000047,
      "v": 127
    },
    {
      "midi": 39,
      "hit": false,
      "t": 60485.941750000246,
      "d": 69.44425000000047,
      "v": 127
    },
    {
      "midi": 41,
      "hit": false,
      "t": 60624.83025000025,
      "d": 69.44425000000047,
      "v": 127
    },
    {
      "midi": 43,
      "hit": false,
      "t": 60694.27450000025,
      "d": 69.44425000000047,
      "v": 127
    },
    {
      "midi": 41,
      "hit": false,
      "t": 60763.71875000025,
      "d": 69.44425000000047,
      "v": 127
    },
    {
      "midi": 39,
      "hit": false,
      "t": 60902.60725000025,
      "d": 69.44425000000047,
      "v": 127
    },
    {
      "midi": 44,
      "hit": false,
      "t": 60972.05150000025,
      "d": 138.88850000000093,
      "v": 127
    },
    {
      "midi": 58,
      "hit": false,
      "t": 61041.49575000025,
      "d": 69.44425000000047,
      "v": 127
    },
    {
      "midi": 60,
      "hit": false,
      "t": 61180.38425000025,
      "d": 69.44425000000047,
      "v": 127
    },
    {
      "midi": 62,
      "hit": false,
      "t": 61249.82850000025,
      "d": 69.44425000000047,
      "v": 127
    },
    {
      "midi": 60,
      "hit": false,
      "t": 61319.27275000025,
      "d": 69.44425000000047,
      "v": 127
    },
    {
      "midi": 58,
      "hit": false,
      "t": 61458.16125000025,
      "d": 69.44425000000047,
      "v": 127
    },
    {
      "midi": 63,
      "hit": false,
      "t": 61527.60550000025,
      "d": 277.77700000000186,
      "v": 127
    },
    {
      "midi": 43,
      "hit": false,
      "t": 61527.60550000025,
      "d": 69.44425000000047,
      "v": 127
    },
    {
      "midi": 39,
      "hit": false,
      "t": 61597.04975000025,
      "d": 69.44425000000047,
      "v": 127
    },
    {
      "midi": 41,
      "hit": false,
      "t": 61735.938250000254,
      "d": 69.44425000000047,
      "v": 127
    },
    {
      "midi": 43,
      "hit": false,
      "t": 61805.382500000254,
      "d": 69.44425000000047,
      "v": 127
    },
    {
      "midi": 41,
      "hit": false,
      "t": 61874.826750000255,
      "d": 69.44425000000047,
      "v": 127
    },
    {
      "midi": 39,
      "hit": false,
      "t": 62013.715250000256,
      "d": 69.44425000000047,
      "v": 127
    },
    {
      "midi": 44,
      "hit": false,
      "t": 62083.159500000256,
      "d": 138.88850000000093,
      "v": 127
    },
    {
      "midi": 59,
      "hit": false,
      "t": 62152.60375000026,
      "d": 69.44425000000047,
      "v": 127
    },
    {
      "midi": 60,
      "hit": false,
      "t": 62291.49225000026,
      "d": 69.44425000000047,
      "v": 127
    },
    {
      "midi": 62,
      "hit": false,
      "t": 62360.93650000026,
      "d": 69.44425000000047,
      "v": 127
    },
    {
      "midi": 60,
      "hit": false,
      "t": 62430.38075000026,
      "d": 69.44425000000047,
      "v": 127
    },
    {
      "midi": 59,
      "hit": false,
      "t": 62569.26925000026,
      "d": 69.44425000000047,
      "v": 127
    },
    {
      "midi": 65,
      "hit": false,
      "t": 62638.71350000026,
      "d": 69.44425000000047,
      "v": 127
    },
    {
      "midi": 63,
      "hit": false,
      "t": 62708.15775000026,
      "d": 69.44425000000047,
      "v": 127
    },
    {
      "midi": 62,
      "hit": false,
      "t": 62847.04625000026,
      "d": 69.44425000000047,
      "v": 127
    },
    {
      "midi": 68,
      "hit": false,
      "t": 62916.49050000026,
      "d": 69.44425000000047,
      "v": 127
    },
    {
      "midi": 67,
      "hit": false,
      "t": 62985.93475000026,
      "d": 69.44425000000047,
      "v": 127
    },
    {
      "midi": 65,
      "hit": false,
      "t": 63124.82325000026,
      "d": 69.44425000000047,
      "v": 127
    },
    {
      "midi": 74,
      "hit": false,
      "t": 63194.267500000264,
      "d": 69.44425000000047,
      "v": 127
    },
    {
      "midi": 72,
      "hit": false,
      "t": 63263.711750000264,
      "d": 69.44425000000047,
      "v": 127
    },
    {
      "midi": 71,
      "hit": false,
      "t": 63402.600250000265,
      "d": 69.44425000000047,
      "v": 127
    },
    {
      "midi": 77,
      "hit": false,
      "t": 63472.044500000266,
      "d": 69.44425000000047,
      "v": 127
    },
    {
      "midi": 75,
      "hit": false,
      "t": 63541.488750000266,
      "d": 69.44425000000047,
      "v": 127
    },
    {
      "midi": 74,
      "hit": false,
      "t": 63680.37725000027,
      "d": 69.44425000000047,
      "v": 127
    },
    {
      "midi": 31,
      "hit": false,
      "t": 63749.82150000026,
      "d": 694.4424999999974,
      "v": 127
    },
    {
      "midi": 43,
      "hit": false,
      "t": 63749.82150000026,
      "d": 694.4424999999974,
      "v": 127
    },
    {
      "midi": 89,
      "hit": false,
      "t": 63749.82150000027,
      "d": 694.4424999999974,
      "v": 127
    },
    {
      "midi": 87,
      "hit": false,
      "t": 64583.152500000266,
      "d": 69.44425000000047,
      "v": 127
    },
    {
      "midi": 86,
      "hit": false,
      "t": 64652.596750000266,
      "d": 69.44425000000047,
      "v": 127
    },
    {
      "midi": 84,
      "hit": false,
      "t": 64791.48525000027,
      "d": 69.44425000000047,
      "v": 127
    },
    {
      "midi": 83,
      "hit": false,
      "t": 64860.92950000027,
      "d": 69.44425000000047,
      "v": 127
    },
    {
      "midi": 80,
      "hit": false,
      "t": 64930.37375000027,
      "d": 69.44425000000047,
      "v": 127
    },
    {
      "midi": 79,
      "hit": false,
      "t": 65069.26225000027,
      "d": 69.44425000000047,
      "v": 127
    },
    {
      "midi": 77,
      "hit": false,
      "t": 65138.70650000027,
      "d": 69.44425000000047,
      "v": 127
    },
    {
      "midi": 75,
      "hit": false,
      "t": 65208.15075000027,
      "d": 69.44425000000047,
      "v": 127
    },
    {
      "midi": 74,
      "hit": false,
      "t": 65347.03925000027,
      "d": 69.44425000000047,
      "v": 127
    },
    {
      "midi": 72,
      "hit": false,
      "t": 65416.48350000027,
      "d": 69.44425000000047,
      "v": 127
    },
    {
      "midi": 71,
      "hit": false,
      "t": 65485.92775000027,
      "d": 69.44424999999319,
      "v": 127
    },
    {
      "midi": 68,
      "hit": false,
      "t": 65624.81625000027,
      "d": 69.44425000000047,
      "v": 127
    },
    {
      "midi": 67,
      "hit": false,
      "t": 65694.26050000027,
      "d": 69.44425000000047,
      "v": 127
    },
    {
      "midi": 65,
      "hit": false,
      "t": 65763.70475000027,
      "d": 69.44425000000047,
      "v": 127
    },
    {
      "midi": 62,
      "hit": false,
      "t": 65833.14900000027,
      "d": 69.44425000000047,
      "v": 127
    },
    {
      "midi": 63,
      "hit": false,
      "t": 65833.14900000027,
      "d": 69.44425000000047,
      "v": 127
    },
    {
      "midi": 60,
      "hit": false,
      "t": 65902.59325000027,
      "d": 69.44425000000047,
      "v": 127
    },
    {
      "midi": 43,
      "hit": false,
      "t": 65972.03750000025,
      "d": 694.4425000000047,
      "v": 127
    },
    {
      "midi": 50,
      "hit": false,
      "t": 65972.03750000025,
      "d": 694.4425000000047,
      "v": 127
    },
    {
      "midi": 53,
      "hit": false,
      "t": 65972.03750000025,
      "d": 694.4425000000047,
      "v": 127
    },
    {
      "midi": 59,
      "hit": false,
      "t": 65972.03750000027,
      "d": 694.4425000000047,
      "v": 127
    },
    {
      "midi": 67,
      "hit": false,
      "t": 67777.58800000028,
      "d": 138.88850000000093,
      "v": 127
    },
    {
      "midi": 72,
      "hit": false,
      "t": 67916.47650000028,
      "d": 138.88850000000093,
      "v": 127
    },
    {
      "midi": 74,
      "hit": false,
      "t": 68055.36500000028,
      "d": 138.88850000000093,
      "v": 127
    },
    {
      "midi": 48,
      "hit": false,
      "t": 68194.25350000025,
      "d": 138.88850000000093,
      "v": 127
    },
    {
      "midi": 75,
      "hit": false,
      "t": 68194.25350000028,
      "d": 416.6655000000028,
      "v": 127
    },
    {
      "midi": 51,
      "hit": false,
      "t": 68333.14200000025,
      "d": 138.88850000000093,
      "v": 127
    },
    {
      "midi": 55,
      "hit": false,
      "t": 68472.03050000026,
      "d": 138.88850000000093,
      "v": 127
    },
    {
      "midi": 60,
      "hit": false,
      "t": 68610.91900000026,
      "d": 138.88850000000093,
      "v": 127
    },
    {
      "midi": 77,
      "hit": false,
      "t": 68610.91900000029,
      "d": 138.88850000000093,
      "v": 127
    },
    {
      "midi": 48,
      "hit": false,
      "t": 68749.80750000026,
      "d": 138.88850000000093,
      "v": 127
    },
    {
      "midi": 74,
      "hit": false,
      "t": 68749.80750000029,
      "d": 138.88850000000093,
      "v": 127
    },
    {
      "midi": 53,
      "hit": false,
      "t": 68888.69600000026,
      "d": 138.88850000000093,
      "v": 127
    },
    {
      "midi": 55,
      "hit": false,
      "t": 69027.58450000026,
      "d": 138.88850000000093,
      "v": 127
    },
    {
      "midi": 59,
      "hit": false,
      "t": 69166.47300000026,
      "d": 138.88850000000093,
      "v": 127
    },
    {
      "midi": 75,
      "hit": false,
      "t": 69166.47300000029,
      "d": 138.88850000000093,
      "v": 127
    },
    {
      "midi": 48,
      "hit": false,
      "t": 69305.36150000026,
      "d": 138.88850000000093,
      "v": 127
    },
    {
      "midi": 72,
      "hit": false,
      "t": 69305.36150000029,
      "d": 416.6655000000028,
      "v": 127
    },
    {
      "midi": 51,
      "hit": false,
      "t": 69444.25000000026,
      "d": 138.88850000000093,
      "v": 127
    },
    {
      "midi": 55,
      "hit": false,
      "t": 69583.13850000026,
      "d": 138.88850000000093,
      "v": 127
    },
    {
      "midi": 60,
      "hit": false,
      "t": 69722.02700000026,
      "d": 138.88850000000093,
      "v": 127
    },
    {
      "midi": 74,
      "hit": false,
      "t": 69791.4712500003,
      "d": 69.44425000000047,
      "v": 127
    },
    {
      "midi": 63,
      "hit": false,
      "t": 69860.91550000026,
      "d": 138.88850000000093,
      "v": 127
    },
    {
      "midi": 72,
      "hit": false,
      "t": 69860.9155000003,
      "d": 138.88850000000093,
      "v": 127
    },
    {
      "midi": 67,
      "hit": false,
      "t": 69999.80400000027,
      "d": 138.88850000000093,
      "v": 127
    },
    {
      "midi": 71,
      "hit": false,
      "t": 69999.8040000003,
      "d": 138.88850000000093,
      "v": 127
    },
    {
      "midi": 63,
      "hit": false,
      "t": 70138.69250000027,
      "d": 138.88850000000093,
      "v": 127
    },
    {
      "midi": 72,
      "hit": false,
      "t": 70138.6925000003,
      "d": 138.88850000000093,
      "v": 127
    },
    {
      "midi": 62,
      "hit": false,
      "t": 70277.58100000027,
      "d": 138.88850000000093,
      "v": 127
    },
    {
      "midi": 74,
      "hit": false,
      "t": 70277.5810000003,
      "d": 69.44425000000047,
      "v": 127
    },
    {
      "midi": 77,
      "hit": false,
      "t": 70347.0252500003,
      "d": 69.44425000000047,
      "v": 127
    },
    {
      "midi": 60,
      "hit": false,
      "t": 70416.46950000027,
      "d": 138.88850000000093,
      "v": 127
    },
    {
      "midi": 75,
      "hit": false,
      "t": 70416.4695000003,
      "d": 138.88850000000093,
      "v": 127
    },
    {
      "midi": 67,
      "hit": false,
      "t": 70555.35800000027,
      "d": 138.88850000000093,
      "v": 127
    },
    {
      "midi": 74,
      "hit": false,
      "t": 70555.3580000003,
      "d": 138.88850000000093,
      "v": 127
    },
    {
      "midi": 60,
      "hit": false,
      "t": 70694.24650000027,
      "d": 138.88850000000093,
      "v": 127
    },
    {
      "midi": 63,
      "hit": false,
      "t": 70694.24650000027,
      "d": 138.88850000000093,
      "v": 127
    },
    {
      "midi": 75,
      "hit": false,
      "t": 70694.2465000003,
      "d": 138.88850000000093,
      "v": 127
    },
    {
      "midi": 67,
      "hit": false,
      "t": 70833.13500000027,
      "d": 138.88850000000093,
      "v": 127
    },
    {
      "midi": 77,
      "hit": false,
      "t": 70833.1350000003,
      "d": 138.88850000000093,
      "v": 127
    },
    {
      "midi": 59,
      "hit": false,
      "t": 70972.02350000027,
      "d": 138.88850000000093,
      "v": 127
    },
    {
      "midi": 62,
      "hit": false,
      "t": 70972.02350000027,
      "d": 138.88850000000093,
      "v": 127
    },
    {
      "midi": 79,
      "hit": false,
      "t": 70972.0235000003,
      "d": 138.88850000000093,
      "v": 127
    },
    {
      "midi": 67,
      "hit": false,
      "t": 71110.91200000027,
      "d": 138.88850000000093,
      "v": 127
    },
    {
      "midi": 56,
      "hit": false,
      "t": 71249.80050000027,
      "d": 138.88850000000093,
      "v": 127
    },
    {
      "midi": 60,
      "hit": false,
      "t": 71249.80050000027,
      "d": 138.88850000000093,
      "v": 127
    },
    {
      "midi": 79,
      "hit": false,
      "t": 71249.8005000003,
      "d": 277.77700000000186,
      "v": 127
    },
    {
      "midi": 67,
      "hit": false,
      "t": 71388.68900000027,
      "d": 138.88850000000093,
      "v": 127
    },
    {
      "midi": 55,
      "hit": false,
      "t": 71527.57750000028,
      "d": 138.88850000000093,
      "v": 127
    },
    {
      "midi": 79,
      "hit": false,
      "t": 71527.5775000003,
      "d": 694.4425000000047,
      "v": 127
    },
    {
      "midi": 59,
      "hit": false,
      "t": 71666.46600000028,
      "d": 138.88850000000093,
      "v": 127
    },
    {
      "midi": 62,
      "hit": false,
      "t": 71805.35450000028,
      "d": 138.88850000000093,
      "v": 127
    },
    {
      "midi": 67,
      "hit": false,
      "t": 71944.24300000028,
      "d": 138.88850000000093,
      "v": 127
    },
    {
      "midi": 55,
      "hit": false,
      "t": 72083.13150000028,
      "d": 138.88850000000093,
      "v": 127
    },
    {
      "midi": 59,
      "hit": false,
      "t": 72222.02000000028,
      "d": 138.88850000000093,
      "v": 127
    },
    {
      "midi": 62,
      "hit": false,
      "t": 72360.90850000028,
      "d": 138.88850000000093,
      "v": 127
    },
    {
      "midi": 77,
      "hit": false,
      "t": 72360.90850000031,
      "d": 138.88850000000093,
      "v": 127
    },
    {
      "midi": 67,
      "hit": false,
      "t": 72499.79700000028,
      "d": 138.88850000000093,
      "v": 127
    },
    {
      "midi": 79,
      "hit": false,
      "t": 72499.79700000031,
      "d": 69.44425000000047,
      "v": 127
    },
    {
      "midi": 77,
      "hit": false,
      "t": 72569.24125000031,
      "d": 69.44425000000047,
      "v": 127
    },
    {
      "midi": 53,
      "hit": false,
      "t": 72638.68550000028,
      "d": 138.88850000000093,
      "v": 127
    },
    {
      "midi": 80,
      "hit": false,
      "t": 72638.68550000031,
      "d": 555.5540000000037,
      "v": 127
    },
    {
      "midi": 56,
      "hit": false,
      "t": 72777.57400000028,
      "d": 138.88850000000093,
      "v": 127
    },
    {
      "midi": 59,
      "hit": false,
      "t": 72916.46250000029,
      "d": 138.88850000000093,
      "v": 127
    },
    {
      "midi": 62,
      "hit": false,
      "t": 73055.35100000029,
      "d": 138.88850000000093,
      "v": 127
    },
    {
      "midi": 53,
      "hit": false,
      "t": 73194.23950000029,
      "d": 138.88850000000093,
      "v": 127
    },
    {
      "midi": 74,
      "hit": false,
      "t": 73194.23950000032,
      "d": 138.88850000000093,
      "v": 127
    },
    {
      "midi": 56,
      "hit": false,
      "t": 73333.12800000029,
      "d": 138.88850000000093,
      "v": 127
    },
    {
      "midi": 59,
      "hit": false,
      "t": 73472.01650000029,
      "d": 138.88850000000093,
      "v": 127
    },
    {
      "midi": 75,
      "hit": false,
      "t": 73472.01650000032,
      "d": 138.88850000000093,
      "v": 127
    },
    {
      "midi": 62,
      "hit": false,
      "t": 73610.90500000029,
      "d": 138.88850000000093,
      "v": 127
    },
    {
      "midi": 77,
      "hit": false,
      "t": 73610.90500000032,
      "d": 69.44425000000047,
      "v": 127
    },
    {
      "midi": 75,
      "hit": false,
      "t": 73680.34925000032,
      "d": 69.44425000000047,
      "v": 127
    },
    {
      "midi": 51,
      "hit": false,
      "t": 73749.79350000029,
      "d": 138.88850000000093,
      "v": 127
    },
    {
      "midi": 79,
      "hit": false,
      "t": 73749.79350000032,
      "d": 555.5540000000037,
      "v": 127
    },
    {
      "midi": 55,
      "hit": false,
      "t": 73888.68200000029,
      "d": 138.88850000000093,
      "v": 127
    },
    {
      "midi": 60,
      "hit": false,
      "t": 74027.57050000029,
      "d": 138.88850000000093,
      "v": 127
    },
    {
      "midi": 63,
      "hit": false,
      "t": 74166.4590000003,
      "d": 138.88850000000093,
      "v": 127
    },
    {
      "midi": 56,
      "hit": false,
      "t": 74305.3475000003,
      "d": 138.88850000000093,
      "v": 127
    },
    {
      "midi": 72,
      "hit": false,
      "t": 74305.34750000032,
      "d": 138.88850000000093,
      "v": 127
    },
    {
      "midi": 60,
      "hit": false,
      "t": 74444.2360000003,
      "d": 138.88850000000093,
      "v": 127
    },
    {
      "midi": 63,
      "hit": false,
      "t": 74583.1245000003,
      "d": 138.88850000000093,
      "v": 127
    },
    {
      "midi": 72,
      "hit": false,
      "t": 74583.12450000033,
      "d": 138.88850000000093,
      "v": 127
    },
    {
      "midi": 66,
      "hit": false,
      "t": 74722.0130000003,
      "d": 138.88850000000093,
      "v": 127
    },
    {
      "midi": 74,
      "hit": false,
      "t": 74722.01300000033,
      "d": 138.88850000000093,
      "v": 127
    },
    {
      "midi": 55,
      "hit": false,
      "t": 74860.9015000003,
      "d": 138.88850000000093,
      "v": 127
    },
    {
      "midi": 75,
      "hit": false,
      "t": 74860.90150000033,
      "d": 277.77700000000186,
      "v": 127
    },
    {
      "midi": 60,
      "hit": false,
      "t": 74999.7900000003,
      "d": 138.88850000000093,
      "v": 127
    },
    {
      "midi": 63,
      "hit": false,
      "t": 75138.6785000003,
      "d": 138.88850000000093,
      "v": 127
    },
    {
      "midi": 75,
      "hit": false,
      "t": 75138.67850000033,
      "d": 138.88850000000093,
      "v": 127
    },
    {
      "midi": 67,
      "hit": false,
      "t": 75277.5670000003,
      "d": 138.88850000000093,
      "v": 127
    },
    {
      "midi": 77,
      "hit": false,
      "t": 75277.56700000033,
      "d": 138.88850000000093,
      "v": 127
    },
    {
      "midi": 55,
      "hit": false,
      "t": 75416.4555000003,
      "d": 138.88850000000093,
      "v": 127
    },
    {
      "midi": 74,
      "hit": false,
      "t": 75416.45550000033,
      "d": 138.88850000000093,
      "v": 127
    },
    {
      "midi": 59,
      "hit": false,
      "t": 75555.3440000003,
      "d": 138.88850000000093,
      "v": 127
    },
    {
      "midi": 62,
      "hit": false,
      "t": 75694.2325000003,
      "d": 138.88850000000093,
      "v": 127
    },
    {
      "midi": 74,
      "hit": false,
      "t": 75694.23250000033,
      "d": 138.88850000000093,
      "v": 127
    },
    {
      "midi": 67,
      "hit": false,
      "t": 75833.1210000003,
      "d": 277.77700000000186,
      "v": 127
    },
    {
      "midi": 75,
      "hit": false,
      "t": 75833.12100000033,
      "d": 138.88850000000093,
      "v": 127
    },
    {
      "midi": 72,
      "hit": false,
      "t": 75972.00950000033,
      "d": 277.77700000000186,
      "v": 127
    },
    {
      "midi": 48,
      "hit": false,
      "t": 76110.8980000003,
      "d": 138.88850000000093,
      "v": 127
    },
    {
      "midi": 51,
      "hit": false,
      "t": 76249.78650000031,
      "d": 138.88850000000093,
      "v": 127
    },
    {
      "midi": 55,
      "hit": false,
      "t": 76388.67500000031,
      "d": 138.88850000000093,
      "v": 127
    },
    {
      "midi": 60,
      "hit": false,
      "t": 76527.56350000031,
      "d": 138.88850000000093,
      "v": 127
    },
    {
      "midi": 77,
      "hit": false,
      "t": 76805.34050000034,
      "d": 138.88850000000093,
      "v": 127
    },
    {
      "midi": 79,
      "hit": false,
      "t": 76944.22900000034,
      "d": 138.88850000000093,
      "v": 127
    },
    {
      "midi": 68,
      "hit": false,
      "t": 77083.11750000034,
      "d": 555.5540000000037,
      "v": 127
    },
    {
      "midi": 80,
      "hit": false,
      "t": 77083.11750000034,
      "d": 555.5540000000037,
      "v": 127
    },
    {
      "midi": 41,
      "hit": false,
      "t": 77222.00600000031,
      "d": 138.88850000000093,
      "v": 127
    },
    {
      "midi": 47,
      "hit": false,
      "t": 77360.89450000032,
      "d": 138.88850000000093,
      "v": 127
    },
    {
      "midi": 50,
      "hit": false,
      "t": 77499.78300000032,
      "d": 138.88850000000093,
      "v": 127
    },
    {
      "midi": 53,
      "hit": false,
      "t": 77638.67150000032,
      "d": 138.88850000000093,
      "v": 127
    },
    {
      "midi": 74,
      "hit": false,
      "t": 77638.67150000035,
      "d": 138.88850000000093,
      "v": 127
    },
    {
      "midi": 56,
      "hit": false,
      "t": 77777.56000000032,
      "d": 138.88850000000093,
      "v": 127
    },
    {
      "midi": 55,
      "hit": false,
      "t": 77916.44850000032,
      "d": 138.88850000000093,
      "v": 127
    },
    {
      "midi": 75,
      "hit": false,
      "t": 77916.44850000035,
      "d": 138.88850000000093,
      "v": 127
    },
    {
      "midi": 53,
      "hit": false,
      "t": 78055.33700000032,
      "d": 277.77700000000186,
      "v": 127
    },
    {
      "midi": 77,
      "hit": false,
      "t": 78055.33700000035,
      "d": 138.88850000000093,
      "v": 127
    },
    {
      "midi": 67,
      "hit": false,
      "t": 78194.22550000035,
      "d": 555.5540000000037,
      "v": 127
    },
    {
      "midi": 79,
      "hit": false,
      "t": 78194.22550000035,
      "d": 555.5540000000037,
      "v": 127
    },
    {
      "midi": 39,
      "hit": false,
      "t": 78333.11400000032,
      "d": 138.88850000000093,
      "v": 127
    },
    {
      "midi": 43,
      "hit": false,
      "t": 78472.00250000032,
      "d": 138.88850000000093,
      "v": 127
    },
    {
      "midi": 48,
      "hit": false,
      "t": 78610.89100000032,
      "d": 138.88850000000093,
      "v": 127
    },
    {
      "midi": 51,
      "hit": false,
      "t": 78749.77950000032,
      "d": 138.88850000000093,
      "v": 127
    },
    {
      "midi": 72,
      "hit": false,
      "t": 78749.77950000035,
      "d": 138.88850000000093,
      "v": 127
    },
    {
      "midi": 55,
      "hit": false,
      "t": 78888.66800000033,
      "d": 138.88850000000093,
      "v": 127
    },
    {
      "midi": 56,
      "hit": false,
      "t": 79027.55650000033,
      "d": 138.88850000000093,
      "v": 127
    },
    {
      "midi": 72,
      "hit": false,
      "t": 79027.55650000036,
      "d": 138.88850000000093,
      "v": 127
    },
    {
      "midi": 54,
      "hit": false,
      "t": 79166.44500000033,
      "d": 138.88850000000093,
      "v": 127
    },
    {
      "midi": 74,
      "hit": false,
      "t": 79166.44500000036,
      "d": 138.88850000000093,
      "v": 127
    },
    {
      "midi": 43,
      "hit": false,
      "t": 79305.33350000033,
      "d": 138.88850000000093,
      "v": 127
    },
    {
      "midi": 75,
      "hit": false,
      "t": 79305.33350000036,
      "d": 277.77700000000186,
      "v": 127
    },
    {
      "midi": 55,
      "hit": false,
      "t": 79444.22200000033,
      "d": 138.88850000000093,
      "v": 127
    },
    {
      "midi": 60,
      "hit": false,
      "t": 79583.11050000033,
      "d": 138.88850000000093,
      "v": 127
    },
    {
      "midi": 75,
      "hit": false,
      "t": 79583.11050000036,
      "d": 138.88850000000093,
      "v": 127
    },
    {
      "midi": 55,
      "hit": false,
      "t": 79721.99900000033,
      "d": 138.88850000000093,
      "v": 127
    },
    {
      "midi": 77,
      "hit": false,
      "t": 79721.99900000036,
      "d": 138.88850000000093,
      "v": 127
    },
    {
      "midi": 43,
      "hit": false,
      "t": 79860.88750000033,
      "d": 138.88850000000093,
      "v": 127
    },
    {
      "midi": 74,
      "hit": false,
      "t": 79860.88750000036,
      "d": 138.88850000000093,
      "v": 127
    },
    {
      "midi": 55,
      "hit": false,
      "t": 79999.77600000033,
      "d": 138.88850000000093,
      "v": 127
    },
    {
      "midi": 59,
      "hit": false,
      "t": 80138.66450000033,
      "d": 138.88850000000093,
      "v": 127
    },
    {
      "midi": 74,
      "hit": false,
      "t": 80138.66450000036,
      "d": 138.88850000000093,
      "v": 127
    },
    {
      "midi": 55,
      "hit": false,
      "t": 80277.55300000033,
      "d": 138.88850000000093,
      "v": 127
    },
    {
      "midi": 75,
      "hit": false,
      "t": 80277.55300000036,
      "d": 138.88850000000093,
      "v": 127
    },
    {
      "midi": 48,
      "hit": false,
      "t": 80416.44150000034,
      "d": 138.88850000000093,
      "v": 127
    },
    {
      "midi": 72,
      "hit": false,
      "t": 80416.44150000036,
      "d": 277.77700000000186,
      "v": 127
    },
    {
      "midi": 60,
      "hit": false,
      "t": 80555.33000000034,
      "d": 138.88850000000093,
      "v": 127
    },
    {
      "midi": 59,
      "hit": false,
      "t": 80694.21850000034,
      "d": 138.88850000000093,
      "v": 127
    },
    {
      "midi": 82,
      "hit": false,
      "t": 80694.21850000037,
      "d": 416.6655000000028,
      "v": 127
    },
    {
      "midi": 60,
      "hit": false,
      "t": 80833.10700000034,
      "d": 138.88850000000093,
      "v": 127
    },
    {
      "midi": 52,
      "hit": false,
      "t": 80971.99550000034,
      "d": 138.88850000000093,
      "v": 127
    },
    {
      "midi": 60,
      "hit": false,
      "t": 81110.88400000034,
      "d": 138.88850000000093,
      "v": 127
    },
    {
      "midi": 55,
      "hit": false,
      "t": 81249.77250000034,
      "d": 138.88850000000093,
      "v": 127
    },
    {
      "midi": 82,
      "hit": false,
      "t": 81249.77250000037,
      "d": 416.6655000000028,
      "v": 127
    },
    {
      "midi": 60,
      "hit": false,
      "t": 81388.66100000034,
      "d": 138.88850000000093,
      "v": 127
    },
    {
      "midi": 53,
      "hit": false,
      "t": 81527.54950000034,
      "d": 138.88850000000093,
      "v": 127
    },
    {
      "midi": 60,
      "hit": false,
      "t": 81666.43800000034,
      "d": 138.88850000000093,
      "v": 127
    },
    {
      "midi": 80,
      "hit": false,
      "t": 81666.43800000037,
      "d": 138.88850000000093,
      "v": 127
    },
    {
      "midi": 56,
      "hit": false,
      "t": 81805.32650000034,
      "d": 138.88850000000093,
      "v": 127
    },
    {
      "midi": 79,
      "hit": false,
      "t": 81805.32650000037,
      "d": 138.88850000000093,
      "v": 127
    },
    {
      "midi": 60,
      "hit": false,
      "t": 81944.21500000035,
      "d": 138.88850000000093,
      "v": 127
    },
    {
      "midi": 77,
      "hit": false,
      "t": 81944.21500000037,
      "d": 138.88850000000093,
      "v": 127
    },
    {
      "midi": 55,
      "hit": false,
      "t": 82083.10350000035,
      "d": 138.88850000000093,
      "v": 127
    },
    {
      "midi": 75,
      "hit": false,
      "t": 82083.10350000038,
      "d": 138.88850000000093,
      "v": 127
    },
    {
      "midi": 65,
      "hit": false,
      "t": 82221.99200000035,
      "d": 138.88850000000093,
      "v": 127
    },
    {
      "midi": 74,
      "hit": false,
      "t": 82221.99200000038,
      "d": 138.88850000000093,
      "v": 127
    },
    {
      "midi": 59,
      "hit": false,
      "t": 82360.88050000035,
      "d": 138.88850000000093,
      "v": 127
    },
    {
      "midi": 72,
      "hit": false,
      "t": 82360.88050000038,
      "d": 138.88850000000093,
      "v": 127
    },
    {
      "midi": 65,
      "hit": false,
      "t": 82499.76900000035,
      "d": 138.88850000000093,
      "v": 127
    },
    {
      "midi": 71,
      "hit": false,
      "t": 82499.76900000038,
      "d": 138.88850000000093,
      "v": 127
    },
    {
      "midi": 56,
      "hit": false,
      "t": 82638.65750000035,
      "d": 138.88850000000093,
      "v": 127
    },
    {
      "midi": 72,
      "hit": false,
      "t": 82638.65750000038,
      "d": 277.77700000000186,
      "v": 127
    },
    {
      "midi": 63,
      "hit": false,
      "t": 82777.54600000035,
      "d": 138.88850000000093,
      "v": 127
    },
    {
      "midi": 60,
      "hit": false,
      "t": 82916.43450000035,
      "d": 138.88850000000093,
      "v": 127
    },
    {
      "midi": 72,
      "hit": false,
      "t": 82916.43450000038,
      "d": 416.6655000000028,
      "v": 127
    },
    {
      "midi": 84,
      "hit": false,
      "t": 82916.43450000038,
      "d": 416.6655000000028,
      "v": 127
    },
    {
      "midi": 63,
      "hit": false,
      "t": 83055.32300000035,
      "d": 138.88850000000093,
      "v": 127
    },
    {
      "midi": 55,
      "hit": false,
      "t": 83194.21150000035,
      "d": 138.88850000000093,
      "v": 127
    },
    {
      "midi": 64,
      "hit": false,
      "t": 83333.10000000036,
      "d": 138.88850000000093,
      "v": 127
    },
    {
      "midi": 60,
      "hit": false,
      "t": 83471.98850000036,
      "d": 138.88850000000093,
      "v": 127
    },
    {
      "midi": 82,
      "hit": false,
      "t": 83471.98850000039,
      "d": 416.6655000000028,
      "v": 127
    },
    {
      "midi": 64,
      "hit": false,
      "t": 83610.87700000036,
      "d": 138.88850000000093,
      "v": 127
    },
    {
      "midi": 53,
      "hit": false,
      "t": 83749.76550000036,
      "d": 138.88850000000093,
      "v": 127
    },
    {
      "midi": 65,
      "hit": false,
      "t": 83888.65400000036,
      "d": 138.88850000000093,
      "v": 127
    },
    {
      "midi": 80,
      "hit": false,
      "t": 83888.65400000039,
      "d": 138.88850000000093,
      "v": 127
    },
    {
      "midi": 60,
      "hit": false,
      "t": 84027.54250000036,
      "d": 138.88850000000093,
      "v": 127
    },
    {
      "midi": 79,
      "hit": false,
      "t": 84027.54250000039,
      "d": 138.88850000000093,
      "v": 127
    },
    {
      "midi": 65,
      "hit": false,
      "t": 84166.43100000036,
      "d": 138.88850000000093,
      "v": 127
    },
    {
      "midi": 77,
      "hit": false,
      "t": 84166.43100000039,
      "d": 138.88850000000093,
      "v": 127
    },
    {
      "midi": 55,
      "hit": false,
      "t": 84305.31950000036,
      "d": 138.88850000000093,
      "v": 127
    },
    {
      "midi": 75,
      "hit": false,
      "t": 84305.31950000039,
      "d": 138.88850000000093,
      "v": 127
    },
    {
      "midi": 67,
      "hit": false,
      "t": 84444.20800000036,
      "d": 138.88850000000093,
      "v": 127
    },
    {
      "midi": 74,
      "hit": false,
      "t": 84444.20800000039,
      "d": 138.88850000000093,
      "v": 127
    },
    {
      "midi": 55,
      "hit": false,
      "t": 84583.09650000036,
      "d": 138.88850000000093,
      "v": 127
    },
    {
      "midi": 72,
      "hit": false,
      "t": 84583.09650000039,
      "d": 138.88850000000093,
      "v": 127
    },
    {
      "midi": 67,
      "hit": false,
      "t": 84721.98500000036,
      "d": 138.88850000000093,
      "v": 127
    },
    {
      "midi": 71,
      "hit": false,
      "t": 84721.9850000004,
      "d": 138.88850000000093,
      "v": 127
    },
    {
      "midi": 60,
      "hit": false,
      "t": 84860.87350000037,
      "d": 277.77700000000186,
      "v": 127
    },
    {
      "midi": 72,
      "hit": false,
      "t": 84860.8735000004,
      "d": 277.77700000000186,
      "v": 127
    },
    {
      "midi": 55,
      "hit": false,
      "t": 85138.65050000037,
      "d": 277.77700000000186,
      "v": 127
    },
    {
      "midi": 59,
      "hit": false,
      "t": 85138.65050000037,
      "d": 277.77700000000186,
      "v": 127
    },
    {
      "midi": 74,
      "hit": false,
      "t": 85138.6505000004,
      "d": 208.3327500000014,
      "v": 127
    },
    {
      "midi": 72,
      "hit": false,
      "t": 85346.9832500004,
      "d": 69.44425000000047,
      "v": 127
    },
    {
      "midi": 48,
      "hit": false,
      "t": 85416.42750000037,
      "d": 138.88850000000093,
      "v": 127
    },
    {
      "midi": 60,
      "hit": false,
      "t": 85416.42750000037,
      "d": 138.88850000000093,
      "v": 127
    },
    {
      "midi": 75,
      "hit": false,
      "t": 85416.4275000004,
      "d": 138.88850000000093,
      "v": 127
    },
    {
      "midi": 43,
      "hit": false,
      "t": 85694.20450000037,
      "d": 277.77700000000186,
      "v": 127
    },
    {
      "midi": 55,
      "hit": false,
      "t": 85694.20450000037,
      "d": 277.77700000000186,
      "v": 127
    },
    {
      "midi": 71,
      "hit": false,
      "t": 85694.2045000004,
      "d": 277.77700000000186,
      "v": 127
    },
    {
      "midi": 74,
      "hit": false,
      "t": 85694.2045000004,
      "d": 277.77700000000186,
      "v": 127
    },
    {
      "midi": 83,
      "hit": false,
      "t": 85694.2045000004,
      "d": 277.77700000000186,
      "v": 127
    },
    {
      "midi": 36,
      "hit": false,
      "t": 85971.98150000037,
      "d": 277.77700000000186,
      "v": 127
    },
    {
      "midi": 48,
      "hit": false,
      "t": 85971.98150000037,
      "d": 277.77700000000186,
      "v": 127
    },
    {
      "midi": 72,
      "hit": false,
      "t": 85971.9815000004,
      "d": 277.77700000000186,
      "v": 127
    },
    {
      "midi": 75,
      "hit": false,
      "t": 85971.9815000004,
      "d": 277.77700000000186,
      "v": 127
    },
    {
      "midi": 84,
      "hit": false,
      "t": 85971.9815000004,
      "d": 277.77700000000186,
      "v": 127
    },
    {
      "midi": 44,
      "hit": false,
      "t": 86666.42400000038,
      "d": 138.88850000000093,
      "v": 127
    },
    {
      "midi": 48,
      "hit": false,
      "t": 86805.31250000038,
      "d": 138.88850000000093,
      "v": 127
    },
    {
      "midi": 51,
      "hit": false,
      "t": 86944.20100000038,
      "d": 138.88850000000093,
      "v": 127
    },
    {
      "midi": 56,
      "hit": false,
      "t": 87083.08950000038,
      "d": 555.5540000000037,
      "v": 127
    },
    {
      "midi": 60,
      "hit": false,
      "t": 87083.08950000041,
      "d": 555.5540000000037,
      "v": 127
    },
    {
      "midi": 49,
      "hit": false,
      "t": 87638.64350000038,
      "d": 138.88850000000093,
      "v": 127
    },
    {
      "midi": 65,
      "hit": false,
      "t": 87638.64350000041,
      "d": 138.88850000000093,
      "v": 127
    },
    {
      "midi": 55,
      "hit": false,
      "t": 88194.19750000039,
      "d": 555.5540000000037,
      "v": 127
    },
    {
      "midi": 58,
      "hit": false,
      "t": 88194.19750000042,
      "d": 555.5540000000037,
      "v": 127
    },
    {
      "midi": 48,
      "hit": false,
      "t": 88749.75150000039,
      "d": 138.88850000000093,
      "v": 127
    },
    {
      "midi": 63,
      "hit": false,
      "t": 88749.75150000042,
      "d": 138.88850000000093,
      "v": 127
    },
    {
      "midi": 53,
      "hit": false,
      "t": 89305.3055000004,
      "d": 277.77700000000186,
      "v": 127
    },
    {
      "midi": 56,
      "hit": false,
      "t": 89305.30550000042,
      "d": 555.5540000000037,
      "v": 127
    },
    {
      "midi": 46,
      "hit": false,
      "t": 89583.0825000004,
      "d": 416.6655000000028,
      "v": 127
    },
    {
      "midi": 61,
      "hit": false,
      "t": 89860.85950000043,
      "d": 138.88850000000093,
      "v": 127
    },
    {
      "midi": 48,
      "hit": false,
      "t": 90138.6365000004,
      "d": 277.77700000000186,
      "v": 127
    },
    {
      "midi": 60,
      "hit": false,
      "t": 90138.63650000043,
      "d": 277.77700000000186,
      "v": 127
    },
    {
      "midi": 49,
      "hit": false,
      "t": 90416.4135000004,
      "d": 277.77700000000186,
      "v": 127
    },
    {
      "midi": 58,
      "hit": false,
      "t": 90416.41350000043,
      "d": 277.77700000000186,
      "v": 127
    },
    {
      "midi": 50,
      "hit": false,
      "t": 90694.1905000004,
      "d": 277.77700000000186,
      "v": 127
    },
    {
      "midi": 56,
      "hit": false,
      "t": 90694.19050000043,
      "d": 277.77700000000186,
      "v": 127
    },
    {
      "midi": 51,
      "hit": false,
      "t": 90971.9675000004,
      "d": 138.88850000000093,
      "v": 127
    },
    {
      "midi": 55,
      "hit": false,
      "t": 90971.96750000044,
      "d": 138.88850000000093,
      "v": 127
    },
    {
      "midi": 39,
      "hit": false,
      "t": 91249.74450000041,
      "d": 277.77700000000186,
      "v": 127
    },
    {
      "midi": 44,
      "hit": false,
      "t": 91527.52150000041,
      "d": 555.5540000000037,
      "v": 127
    },
    {
      "midi": 72,
      "hit": false,
      "t": 91805.29850000044,
      "d": 416.6655000000028,
      "v": 127
    },
    {
      "midi": 49,
      "hit": false,
      "t": 92083.07550000041,
      "d": 138.88850000000093,
      "v": 127
    },
    {
      "midi": 65,
      "hit": false,
      "t": 92360.85250000044,
      "d": 555.5540000000037,
      "v": 127
    },
    {
      "midi": 43,
      "hit": false,
      "t": 92638.62950000042,
      "d": 555.5540000000037,
      "v": 127
    },
    {
      "midi": 70,
      "hit": false,
      "t": 92916.40650000045,
      "d": 416.6655000000028,
      "v": 127
    },
    {
      "midi": 48,
      "hit": false,
      "t": 93194.18350000042,
      "d": 138.88850000000093,
      "v": 127
    },
    {
      "midi": 63,
      "hit": false,
      "t": 93471.96050000045,
      "d": 555.5540000000037,
      "v": 127
    },
    {
      "midi": 41,
      "hit": false,
      "t": 93749.73750000042,
      "d": 555.5540000000037,
      "v": 127
    },
    {
      "midi": 68,
      "hit": false,
      "t": 94027.51450000046,
      "d": 277.77700000000186,
      "v": 127
    },
    {
      "midi": 43,
      "hit": false,
      "t": 94305.29150000043,
      "d": 138.88850000000093,
      "v": 127
    },
    {
      "midi": 67,
      "hit": false,
      "t": 94305.29150000046,
      "d": 138.88850000000093,
      "v": 127
    },
    {
      "midi": 44,
      "hit": false,
      "t": 94583.06850000043,
      "d": 277.77700000000186,
      "v": 127
    },
    {
      "midi": 65,
      "hit": false,
      "t": 94583.06850000046,
      "d": 277.77700000000186,
      "v": 127
    },
    {
      "midi": 45,
      "hit": false,
      "t": 94860.84550000043,
      "d": 277.77700000000186,
      "v": 127
    },
    {
      "midi": 63,
      "hit": false,
      "t": 94860.84550000046,
      "d": 277.77700000000186,
      "v": 127
    },
    {
      "midi": 46,
      "hit": false,
      "t": 95138.62250000043,
      "d": 277.77700000000186,
      "v": 127
    },
    {
      "midi": 62,
      "hit": false,
      "t": 95138.62250000046,
      "d": 277.77700000000186,
      "v": 127
    },
    {
      "midi": 39,
      "hit": false,
      "t": 95416.39950000044,
      "d": 138.88850000000093,
      "v": 127
    },
    {
      "midi": 65,
      "hit": false,
      "t": 95416.39950000047,
      "d": 138.88850000000093,
      "v": 127
    },
    {
      "midi": 63,
      "hit": false,
      "t": 95694.17650000047,
      "d": 277.77700000000186,
      "v": 127
    },
    {
      "midi": 72,
      "hit": false,
      "t": 95971.95350000047,
      "d": 555.5540000000037,
      "v": 127
    },
    {
      "midi": 56,
      "hit": false,
      "t": 96249.73050000044,
      "d": 416.6655000000028,
      "v": 127
    },
    {
      "midi": 60,
      "hit": false,
      "t": 96249.73050000044,
      "d": 416.6655000000028,
      "v": 127
    },
    {
      "midi": 65,
      "hit": false,
      "t": 96527.50750000047,
      "d": 138.88850000000093,
      "v": 127
    },
    {
      "midi": 77,
      "hit": false,
      "t": 96527.50750000047,
      "d": 138.88850000000093,
      "v": 127
    },
    {
      "midi": 49,
      "hit": false,
      "t": 96805.28450000045,
      "d": 555.5540000000037,
      "v": 127
    },
    {
      "midi": 53,
      "hit": false,
      "t": 96805.28450000045,
      "d": 555.5540000000037,
      "v": 127
    },
    {
      "midi": 70,
      "hit": false,
      "t": 97083.06150000048,
      "d": 555.5540000000037,
      "v": 127
    },
    {
      "midi": 55,
      "hit": false,
      "t": 97360.83850000045,
      "d": 416.6655000000028,
      "v": 127
    },
    {
      "midi": 58,
      "hit": false,
      "t": 97360.83850000045,
      "d": 416.6655000000028,
      "v": 127
    },
    {
      "midi": 75,
      "hit": false,
      "t": 97638.61550000048,
      "d": 138.88850000000093,
      "v": 127
    },
    {
      "midi": 48,
      "hit": false,
      "t": 97916.39250000045,
      "d": 555.5540000000037,
      "v": 127
    },
    {
      "midi": 51,
      "hit": false,
      "t": 97916.39250000045,
      "d": 555.5540000000037,
      "v": 127
    },
    {
      "midi": 68,
      "hit": false,
      "t": 98194.16950000048,
      "d": 277.77700000000186,
      "v": 127
    },
    {
      "midi": 53,
      "hit": false,
      "t": 98471.94650000046,
      "d": 277.77700000000186,
      "v": 127
    },
    {
      "midi": 56,
      "hit": false,
      "t": 98471.94650000046,
      "d": 277.77700000000186,
      "v": 127
    },
    {
      "midi": 60,
      "hit": false,
      "t": 98471.94650000049,
      "d": 277.77700000000186,
      "v": 127
    },
    {
      "midi": 46,
      "hit": false,
      "t": 98749.72350000046,
      "d": 138.88850000000093,
      "v": 127
    },
    {
      "midi": 65,
      "hit": false,
      "t": 98749.72350000049,
      "d": 138.88850000000093,
      "v": 127
    },
    {
      "midi": 73,
      "hit": false,
      "t": 98749.72350000049,
      "d": 138.88850000000093,
      "v": 127
    },
    {
      "midi": 48,
      "hit": false,
      "t": 99027.50050000046,
      "d": 277.77700000000186,
      "v": 127
    },
    {
      "midi": 63,
      "hit": false,
      "t": 99027.50050000049,
      "d": 277.77700000000186,
      "v": 127
    },
    {
      "midi": 72,
      "hit": false,
      "t": 99027.50050000049,
      "d": 277.77700000000186,
      "v": 127
    },
    {
      "midi": 49,
      "hit": false,
      "t": 99305.27750000046,
      "d": 277.77700000000186,
      "v": 127
    },
    {
      "midi": 61,
      "hit": false,
      "t": 99305.27750000049,
      "d": 277.77700000000186,
      "v": 127
    },
    {
      "midi": 70,
      "hit": false,
      "t": 99305.27750000049,
      "d": 277.77700000000186,
      "v": 127
    },
    {
      "midi": 50,
      "hit": false,
      "t": 99583.05450000046,
      "d": 277.77700000000186,
      "v": 127
    },
    {
      "midi": 60,
      "hit": false,
      "t": 99583.0545000005,
      "d": 277.77700000000186,
      "v": 127
    },
    {
      "midi": 68,
      "hit": false,
      "t": 99583.0545000005,
      "d": 277.77700000000186,
      "v": 127
    },
    {
      "midi": 51,
      "hit": false,
      "t": 99860.83150000047,
      "d": 138.88850000000093,
      "v": 127
    },
    {
      "midi": 58,
      "hit": false,
      "t": 99860.8315000005,
      "d": 138.88850000000093,
      "v": 127
    },
    {
      "midi": 67,
      "hit": false,
      "t": 99860.8315000005,
      "d": 138.88850000000093,
      "v": 127
    },
    {
      "midi": 63,
      "hit": false,
      "t": 100138.6085000005,
      "d": 277.77700000000186,
      "v": 127
    },
    {
      "midi": 56,
      "hit": false,
      "t": 100416.38550000047,
      "d": 555.5540000000037,
      "v": 127
    },
    {
      "midi": 60,
      "hit": false,
      "t": 100416.38550000047,
      "d": 555.5540000000037,
      "v": 127
    },
    {
      "midi": 72,
      "hit": false,
      "t": 100694.1625000005,
      "d": 416.6655000000028,
      "v": 127
    },
    {
      "midi": 84,
      "hit": false,
      "t": 100694.1625000005,
      "d": 416.6655000000028,
      "v": 127
    },
    {
      "midi": 61,
      "hit": false,
      "t": 100971.93950000047,
      "d": 138.88850000000093,
      "v": 127
    },
    {
      "midi": 65,
      "hit": false,
      "t": 100971.93950000047,
      "d": 138.88850000000093,
      "v": 127
    },
    {
      "midi": 77,
      "hit": false,
      "t": 101249.7165000005,
      "d": 555.5540000000037,
      "v": 127
    },
    {
      "midi": 55,
      "hit": false,
      "t": 101527.49350000048,
      "d": 555.5540000000037,
      "v": 127
    },
    {
      "midi": 58,
      "hit": false,
      "t": 101527.49350000048,
      "d": 555.5540000000037,
      "v": 127
    },
    {
      "midi": 70,
      "hit": false,
      "t": 101805.27050000051,
      "d": 416.6655000000028,
      "v": 127
    },
    {
      "midi": 82,
      "hit": false,
      "t": 101805.27050000051,
      "d": 416.6655000000028,
      "v": 127
    },
    {
      "midi": 60,
      "hit": false,
      "t": 102083.04750000048,
      "d": 138.88850000000093,
      "v": 127
    },
    {
      "midi": 63,
      "hit": false,
      "t": 102083.04750000048,
      "d": 138.88850000000093,
      "v": 127
    },
    {
      "midi": 75,
      "hit": false,
      "t": 102360.82450000051,
      "d": 277.77700000000186,
      "v": 127
    },
    {
      "midi": 53,
      "hit": false,
      "t": 102638.60150000048,
      "d": 555.5540000000037,
      "v": 127
    },
    {
      "midi": 72,
      "hit": false,
      "t": 102638.60150000051,
      "d": 277.77700000000186,
      "v": 127
    },
    {
      "midi": 80,
      "hit": false,
      "t": 102916.37850000052,
      "d": 277.77700000000186,
      "v": 127
    },
    {
      "midi": 55,
      "hit": false,
      "t": 103194.15550000049,
      "d": 138.88850000000093,
      "v": 127
    },
    {
      "midi": 70,
      "hit": false,
      "t": 103194.15550000052,
      "d": 138.88850000000093,
      "v": 127
    },
    {
      "midi": 79,
      "hit": false,
      "t": 103194.15550000052,
      "d": 138.88850000000093,
      "v": 127
    },
    {
      "midi": 56,
      "hit": false,
      "t": 103471.93250000049,
      "d": 277.77700000000186,
      "v": 127
    },
    {
      "midi": 68,
      "hit": false,
      "t": 103471.93250000052,
      "d": 277.77700000000186,
      "v": 127
    },
    {
      "midi": 77,
      "hit": false,
      "t": 103471.93250000052,
      "d": 277.77700000000186,
      "v": 127
    },
    {
      "midi": 57,
      "hit": false,
      "t": 103749.70950000049,
      "d": 277.77700000000186,
      "v": 127
    },
    {
      "midi": 67,
      "hit": false,
      "t": 103749.70950000052,
      "d": 277.77700000000186,
      "v": 127
    },
    {
      "midi": 75,
      "hit": false,
      "t": 103749.70950000052,
      "d": 277.77700000000186,
      "v": 127
    },
    {
      "midi": 58,
      "hit": false,
      "t": 104027.4865000005,
      "d": 277.77700000000186,
      "v": 127
    },
    {
      "midi": 65,
      "hit": false,
      "t": 104027.48650000052,
      "d": 277.77700000000186,
      "v": 127
    },
    {
      "midi": 74,
      "hit": false,
      "t": 104027.48650000052,
      "d": 277.77700000000186,
      "v": 127
    },
    {
      "midi": 51,
      "hit": false,
      "t": 104305.2635000005,
      "d": 138.88850000000093,
      "v": 127
    },
    {
      "midi": 68,
      "hit": false,
      "t": 104305.26350000052,
      "d": 138.88850000000093,
      "v": 127
    },
    {
      "midi": 77,
      "hit": false,
      "t": 104305.26350000052,
      "d": 138.88850000000093,
      "v": 127
    },
    {
      "midi": 63,
      "hit": false,
      "t": 104583.0405000005,
      "d": 277.77700000000186,
      "v": 127
    },
    {
      "midi": 67,
      "hit": false,
      "t": 104583.04050000053,
      "d": 277.77700000000186,
      "v": 127
    },
    {
      "midi": 75,
      "hit": false,
      "t": 104583.04050000053,
      "d": 277.77700000000186,
      "v": 127
    },
    {
      "midi": 62,
      "hit": false,
      "t": 104860.8175000005,
      "d": 277.77700000000186,
      "v": 127
    },
    {
      "midi": 63,
      "hit": false,
      "t": 105138.5945000005,
      "d": 277.77700000000186,
      "v": 127
    },
    {
      "midi": 66,
      "hit": false,
      "t": 105416.3715000005,
      "d": 138.88850000000093,
      "v": 127
    },
    {
      "midi": 57,
      "hit": false,
      "t": 105694.1485000005,
      "d": 277.77700000000186,
      "v": 127
    },
    {
      "midi": 75,
      "hit": false,
      "t": 105694.14850000053,
      "d": 277.77700000000186,
      "v": 127
    },
    {
      "midi": 58,
      "hit": false,
      "t": 105971.9255000005,
      "d": 277.77700000000186,
      "v": 127
    },
    {
      "midi": 72,
      "hit": false,
      "t": 105971.92550000054,
      "d": 277.77700000000186,
      "v": 127
    },
    {
      "midi": 73,
      "hit": false,
      "t": 106249.70250000054,
      "d": 277.77700000000186,
      "v": 127
    },
    {
      "midi": 77,
      "hit": false,
      "t": 106527.47950000054,
      "d": 138.88850000000093,
      "v": 127
    },
    {
      "midi": 51,
      "hit": false,
      "t": 106805.25650000051,
      "d": 277.77700000000186,
      "v": 127
    },
    {
      "midi": 61,
      "hit": false,
      "t": 106805.25650000051,
      "d": 277.77700000000186,
      "v": 127
    },
    {
      "midi": 67,
      "hit": false,
      "t": 106805.25650000054,
      "d": 277.77700000000186,
      "v": 127
    },
    {
      "midi": 56,
      "hit": false,
      "t": 107083.03350000051,
      "d": 277.77700000000186,
      "v": 127
    },
    {
      "midi": 60,
      "hit": false,
      "t": 107083.03350000051,
      "d": 277.77700000000186,
      "v": 127
    },
    {
      "midi": 70,
      "hit": false,
      "t": 107083.03350000054,
      "d": 277.77700000000186,
      "v": 127
    },
    {
      "midi": 68,
      "hit": false,
      "t": 107360.81050000055,
      "d": 277.77700000000186,
      "v": 127
    },
    {
      "midi": 72,
      "hit": false,
      "t": 107638.58750000055,
      "d": 138.88850000000093,
      "v": 127
    },
    {
      "midi": 46,
      "hit": false,
      "t": 107916.36450000052,
      "d": 277.77700000000186,
      "v": 127
    },
    {
      "midi": 56,
      "hit": false,
      "t": 107916.36450000052,
      "d": 277.77700000000186,
      "v": 127
    },
    {
      "midi": 62,
      "hit": false,
      "t": 107916.36450000055,
      "d": 277.77700000000186,
      "v": 127
    },
    {
      "midi": 51,
      "hit": false,
      "t": 108194.14150000052,
      "d": 277.77700000000186,
      "v": 127
    },
    {
      "midi": 55,
      "hit": false,
      "t": 108194.14150000052,
      "d": 277.77700000000186,
      "v": 127
    },
    {
      "midi": 63,
      "hit": false,
      "t": 108194.14150000055,
      "d": 277.77700000000186,
      "v": 127
    },
    {
      "midi": 82,
      "hit": false,
      "t": 108471.91850000055,
      "d": 277.77700000000186,
      "v": 127
    },
    {
      "midi": 87,
      "hit": false,
      "t": 108749.69550000055,
      "d": 138.88850000000093,
      "v": 127
    },
    {
      "midi": 75,
      "hit": false,
      "t": 108888.58400000053,
      "d": 138.88850000000093,
      "v": 127
    },
    {
      "midi": 77,
      "hit": false,
      "t": 109027.47250000053,
      "d": 138.88850000000093,
      "v": 127
    },
    {
      "midi": 85,
      "hit": false,
      "t": 109027.47250000056,
      "d": 277.77700000000186,
      "v": 127
    },
    {
      "midi": 79,
      "hit": false,
      "t": 109166.36100000053,
      "d": 138.88850000000093,
      "v": 127
    },
    {
      "midi": 80,
      "hit": false,
      "t": 109305.24950000053,
      "d": 138.88850000000093,
      "v": 127
    },
    {
      "midi": 84,
      "hit": false,
      "t": 109305.24950000056,
      "d": 555.5540000000037,
      "v": 127
    },
    {
      "midi": 79,
      "hit": false,
      "t": 109444.13800000053,
      "d": 138.88850000000093,
      "v": 127
    },
    {
      "midi": 77,
      "hit": false,
      "t": 109583.02650000053,
      "d": 138.88850000000093,
      "v": 127
    },
    {
      "midi": 75,
      "hit": false,
      "t": 109721.91500000053,
      "d": 138.88850000000093,
      "v": 127
    },
    {
      "midi": 73,
      "hit": false,
      "t": 109860.80350000053,
      "d": 138.88850000000093,
      "v": 127
    },
    {
      "midi": 89,
      "hit": false,
      "t": 109860.80350000056,
      "d": 138.88850000000093,
      "v": 127
    },
    {
      "midi": 72,
      "hit": false,
      "t": 109999.69200000053,
      "d": 138.88850000000093,
      "v": 127
    },
    {
      "midi": 70,
      "hit": false,
      "t": 110138.58050000053,
      "d": 138.88850000000093,
      "v": 127
    },
    {
      "midi": 68,
      "hit": false,
      "t": 110277.46900000054,
      "d": 138.88850000000093,
      "v": 127
    },
    {
      "midi": 67,
      "hit": false,
      "t": 110416.35750000054,
      "d": 138.88850000000093,
      "v": 127
    },
    {
      "midi": 82,
      "hit": false,
      "t": 110416.35750000057,
      "d": 555.5540000000037,
      "v": 127
    },
    {
      "midi": 65,
      "hit": false,
      "t": 110555.24600000054,
      "d": 138.88850000000093,
      "v": 127
    },
    {
      "midi": 63,
      "hit": false,
      "t": 110694.13450000054,
      "d": 138.88850000000093,
      "v": 127
    },
    {
      "midi": 61,
      "hit": false,
      "t": 110833.02300000054,
      "d": 138.88850000000093,
      "v": 127
    },
    {
      "midi": 60,
      "hit": false,
      "t": 110971.91150000054,
      "d": 138.88850000000093,
      "v": 127
    },
    {
      "midi": 87,
      "hit": false,
      "t": 110971.91150000057,
      "d": 138.88850000000093,
      "v": 127
    },
    {
      "midi": 58,
      "hit": false,
      "t": 111110.80000000054,
      "d": 138.88850000000093,
      "v": 127
    },
    {
      "midi": 56,
      "hit": false,
      "t": 111249.68850000054,
      "d": 138.88850000000093,
      "v": 127
    },
    {
      "midi": 55,
      "hit": false,
      "t": 111388.57700000054,
      "d": 138.88850000000093,
      "v": 127
    },
    {
      "midi": 53,
      "hit": false,
      "t": 111527.46550000054,
      "d": 138.88850000000093,
      "v": 127
    },
    {
      "midi": 80,
      "hit": false,
      "t": 111527.46550000057,
      "d": 555.5540000000037,
      "v": 127
    },
    {
      "midi": 51,
      "hit": false,
      "t": 111666.35400000055,
      "d": 138.88850000000093,
      "v": 127
    },
    {
      "midi": 49,
      "hit": false,
      "t": 111805.24250000055,
      "d": 138.88850000000093,
      "v": 127
    },
    {
      "midi": 48,
      "hit": false,
      "t": 111944.13100000055,
      "d": 138.88850000000093,
      "v": 127
    },
    {
      "midi": 46,
      "hit": false,
      "t": 112083.01950000055,
      "d": 138.88850000000093,
      "v": 127
    },
    {
      "midi": 73,
      "hit": false,
      "t": 112083.01950000058,
      "d": 138.88850000000093,
      "v": 127
    },
    {
      "midi": 85,
      "hit": false,
      "t": 112083.01950000058,
      "d": 138.88850000000093,
      "v": 127
    },
    {
      "midi": 45,
      "hit": false,
      "t": 112221.90800000055,
      "d": 138.88850000000093,
      "v": 127
    },
    {
      "midi": 46,
      "hit": false,
      "t": 112360.79650000055,
      "d": 138.88850000000093,
      "v": 127
    },
    {
      "midi": 72,
      "hit": false,
      "t": 112360.79650000058,
      "d": 277.77700000000186,
      "v": 127
    },
    {
      "midi": 84,
      "hit": false,
      "t": 112360.79650000058,
      "d": 277.77700000000186,
      "v": 127
    },
    {
      "midi": 48,
      "hit": false,
      "t": 112499.68500000055,
      "d": 138.88850000000093,
      "v": 127
    },
    {
      "midi": 49,
      "hit": false,
      "t": 112638.57350000055,
      "d": 138.88850000000093,
      "v": 127
    },
    {
      "midi": 70,
      "hit": false,
      "t": 112638.57350000058,
      "d": 277.77700000000186,
      "v": 127
    },
    {
      "midi": 82,
      "hit": false,
      "t": 112638.57350000058,
      "d": 277.77700000000186,
      "v": 127
    },
    {
      "midi": 48,
      "hit": false,
      "t": 112777.46200000055,
      "d": 138.88850000000093,
      "v": 127
    },
    {
      "midi": 49,
      "hit": false,
      "t": 112916.35050000055,
      "d": 138.88850000000093,
      "v": 127
    },
    {
      "midi": 68,
      "hit": false,
      "t": 112916.35050000058,
      "d": 277.77700000000186,
      "v": 127
    },
    {
      "midi": 80,
      "hit": false,
      "t": 112916.35050000058,
      "d": 277.77700000000186,
      "v": 127
    },
    {
      "midi": 50,
      "hit": false,
      "t": 113055.23900000055,
      "d": 138.88850000000093,
      "v": 127
    },
    {
      "midi": 51,
      "hit": false,
      "t": 113194.12750000056,
      "d": 138.88850000000093,
      "v": 127
    },
    {
      "midi": 67,
      "hit": false,
      "t": 113194.12750000058,
      "d": 138.88850000000093,
      "v": 127
    },
    {
      "midi": 79,
      "hit": false,
      "t": 113194.12750000058,
      "d": 138.88850000000093,
      "v": 127
    },
    {
      "midi": 53,
      "hit": false,
      "t": 113333.01600000056,
      "d": 138.88850000000093,
      "v": 127
    },
    {
      "midi": 54,
      "hit": false,
      "t": 113471.90450000056,
      "d": 138.88850000000093,
      "v": 127
    },
    {
      "midi": 73,
      "hit": false,
      "t": 113471.90450000059,
      "d": 277.77700000000186,
      "v": 127
    },
    {
      "midi": 55,
      "hit": false,
      "t": 113610.79300000056,
      "d": 138.88850000000093,
      "v": 127
    },
    {
      "midi": 44,
      "hit": false,
      "t": 113749.68150000056,
      "d": 555.5540000000037,
      "v": 127
    },
    {
      "midi": 84,
      "hit": false,
      "t": 113749.68150000059,
      "d": 138.88850000000093,
      "v": 127
    },
    {
      "midi": 82,
      "hit": false,
      "t": 113888.57000000059,
      "d": 138.88850000000093,
      "v": 127
    },
    {
      "midi": 80,
      "hit": false,
      "t": 114027.45850000059,
      "d": 138.88850000000093,
      "v": 127
    },
    {
      "midi": 79,
      "hit": false,
      "t": 114166.34700000059,
      "d": 138.88850000000093,
      "v": 127
    },
    {
      "midi": 49,
      "hit": false,
      "t": 114305.23550000056,
      "d": 138.88850000000093,
      "v": 127
    },
    {
      "midi": 77,
      "hit": false,
      "t": 114305.23550000059,
      "d": 138.88850000000093,
      "v": 127
    },
    {
      "midi": 75,
      "hit": false,
      "t": 114444.1240000006,
      "d": 138.88850000000093,
      "v": 127
    },
    {
      "midi": 73,
      "hit": false,
      "t": 114583.0125000006,
      "d": 138.88850000000093,
      "v": 127
    },
    {
      "midi": 72,
      "hit": false,
      "t": 114721.9010000006,
      "d": 138.88850000000093,
      "v": 127
    },
    {
      "midi": 43,
      "hit": false,
      "t": 114860.78950000057,
      "d": 555.5540000000037,
      "v": 127
    },
    {
      "midi": 70,
      "hit": false,
      "t": 114860.7895000006,
      "d": 138.88850000000093,
      "v": 127
    },
    {
      "midi": 68,
      "hit": false,
      "t": 114999.6780000006,
      "d": 138.88850000000093,
      "v": 127
    },
    {
      "midi": 67,
      "hit": false,
      "t": 115138.5665000006,
      "d": 138.88850000000093,
      "v": 127
    },
    {
      "midi": 65,
      "hit": false,
      "t": 115277.4550000006,
      "d": 138.88850000000093,
      "v": 127
    },
    {
      "midi": 48,
      "hit": false,
      "t": 115416.34350000057,
      "d": 138.88850000000093,
      "v": 127
    },
    {
      "midi": 64,
      "hit": false,
      "t": 115416.3435000006,
      "d": 138.88850000000093,
      "v": 127
    },
    {
      "midi": 61,
      "hit": false,
      "t": 115555.2320000006,
      "d": 138.88850000000093,
      "v": 127
    },
    {
      "midi": 60,
      "hit": false,
      "t": 115694.1205000006,
      "d": 138.88850000000093,
      "v": 127
    },
    {
      "midi": 58,
      "hit": false,
      "t": 115833.0090000006,
      "d": 138.88850000000093,
      "v": 127
    },
    {
      "midi": 41,
      "hit": false,
      "t": 115971.89750000057,
      "d": 555.5540000000037,
      "v": 127
    },
    {
      "midi": 56,
      "hit": false,
      "t": 115971.8975000006,
      "d": 138.88850000000093,
      "v": 127
    },
    {
      "midi": 55,
      "hit": false,
      "t": 116110.7860000006,
      "d": 138.88850000000093,
      "v": 127
    },
    {
      "midi": 53,
      "hit": false,
      "t": 116249.6745000006,
      "d": 138.88850000000093,
      "v": 127
    },
    {
      "midi": 52,
      "hit": false,
      "t": 116388.5630000006,
      "d": 138.88850000000093,
      "v": 127
    },
    {
      "midi": 29,
      "hit": false,
      "t": 116527.45150000058,
      "d": 138.88850000000093,
      "v": 127
    },
    {
      "midi": 41,
      "hit": false,
      "t": 116527.45150000058,
      "d": 138.88850000000093,
      "v": 127
    },
    {
      "midi": 53,
      "hit": false,
      "t": 116527.4515000006,
      "d": 138.88850000000093,
      "v": 127
    },
    {
      "midi": 55,
      "hit": false,
      "t": 116666.34000000061,
      "d": 138.88850000000093,
      "v": 127
    },
    {
      "midi": 56,
      "hit": false,
      "t": 116805.22850000061,
      "d": 138.88850000000093,
      "v": 127
    },
    {
      "midi": 55,
      "hit": false,
      "t": 116944.11700000061,
      "d": 138.88850000000093,
      "v": 127
    },
    {
      "midi": 53,
      "hit": false,
      "t": 117083.00550000061,
      "d": 138.88850000000093,
      "v": 127
    },
    {
      "midi": 51,
      "hit": false,
      "t": 117221.89400000061,
      "d": 138.88850000000093,
      "v": 127
    },
    {
      "midi": 50,
      "hit": false,
      "t": 117360.78250000061,
      "d": 138.88850000000093,
      "v": 127
    },
    {
      "midi": 48,
      "hit": false,
      "t": 117499.67100000061,
      "d": 138.88850000000093,
      "v": 127
    },
    {
      "midi": 30,
      "hit": false,
      "t": 117638.55950000059,
      "d": 138.88850000000093,
      "v": 127
    },
    {
      "midi": 42,
      "hit": false,
      "t": 117638.55950000059,
      "d": 138.88850000000093,
      "v": 127
    },
    {
      "midi": 47,
      "hit": false,
      "t": 117638.55950000061,
      "d": 138.88850000000093,
      "v": 127
    },
    {
      "midi": 48,
      "hit": false,
      "t": 117777.44800000062,
      "d": 138.88850000000093,
      "v": 127
    },
    {
      "midi": 50,
      "hit": false,
      "t": 117916.33650000062,
      "d": 138.88850000000093,
      "v": 127
    },
    {
      "midi": 48,
      "hit": false,
      "t": 118055.22500000062,
      "d": 208.3327500000014,
      "v": 127
    },
    {
      "midi": 31,
      "hit": false,
      "t": 118194.11350000059,
      "d": 277.77700000000186,
      "v": 127
    },
    {
      "midi": 43,
      "hit": false,
      "t": 118263.55775000062,
      "d": 69.44425000000047,
      "v": 127
    },
    {
      "midi": 47,
      "hit": false,
      "t": 118333.00200000062,
      "d": 69.44425000000047,
      "v": 127
    },
    {
      "midi": 50,
      "hit": false,
      "t": 118402.44625000062,
      "d": 69.44425000000047,
      "v": 127
    },
    {
      "midi": 55,
      "hit": false,
      "t": 118471.89050000062,
      "d": 277.77700000000186,
      "v": 127
    },
    {
      "midi": 38,
      "hit": false,
      "t": 118610.77900000059,
      "d": 69.44425000000047,
      "v": 127
    },
    {
      "midi": 35,
      "hit": false,
      "t": 118680.22325000059,
      "d": 69.44425000000047,
      "v": 127
    },
    {
      "midi": 31,
      "hit": false,
      "t": 118749.66750000059,
      "d": 138.88850000000093,
      "v": 127
    },
    {
      "midi": 43,
      "hit": false,
      "t": 118819.11175000062,
      "d": 69.44425000000047,
      "v": 127
    },
    {
      "midi": 48,
      "hit": false,
      "t": 118888.55600000062,
      "d": 69.44425000000047,
      "v": 127
    },
    {
      "midi": 51,
      "hit": false,
      "t": 118958.00025000062,
      "d": 69.44425000000047,
      "v": 127
    },
    {
      "midi": 55,
      "hit": false,
      "t": 119027.44450000062,
      "d": 277.77700000000186,
      "v": 127
    },
    {
      "midi": 39,
      "hit": false,
      "t": 119166.3330000006,
      "d": 69.44425000000047,
      "v": 127
    },
    {
      "midi": 36,
      "hit": false,
      "t": 119235.7772500006,
      "d": 69.44425000000047,
      "v": 127
    },
    {
      "midi": 31,
      "hit": false,
      "t": 119305.2215000006,
      "d": 277.77700000000186,
      "v": 127
    },
    {
      "midi": 43,
      "hit": false,
      "t": 119374.66575000063,
      "d": 69.44425000000047,
      "v": 127
    },
    {
      "midi": 50,
      "hit": false,
      "t": 119444.11000000063,
      "d": 69.44425000000047,
      "v": 127
    },
    {
      "midi": 53,
      "hit": false,
      "t": 119513.55425000063,
      "d": 69.44425000000047,
      "v": 127
    },
    {
      "midi": 55,
      "hit": false,
      "t": 119582.99850000063,
      "d": 277.77700000000186,
      "v": 127
    },
    {
      "midi": 41,
      "hit": false,
      "t": 119721.8870000006,
      "d": 69.44425000000047,
      "v": 127
    },
    {
      "midi": 38,
      "hit": false,
      "t": 119791.3312500006,
      "d": 69.44425000000047,
      "v": 127
    },
    {
      "midi": 31,
      "hit": false,
      "t": 119860.7755000006,
      "d": 138.88850000000093,
      "v": 127
    },
    {
      "midi": 43,
      "hit": false,
      "t": 119930.21975000063,
      "d": 69.44425000000047,
      "v": 127
    },
    {
      "midi": 48,
      "hit": false,
      "t": 119999.66400000063,
      "d": 69.44425000000047,
      "v": 127
    },
    {
      "midi": 51,
      "hit": false,
      "t": 120069.10825000063,
      "d": 69.44425000000047,
      "v": 127
    },
    {
      "midi": 55,
      "hit": false,
      "t": 120138.55250000063,
      "d": 277.77700000000186,
      "v": 127
    },
    {
      "midi": 39,
      "hit": false,
      "t": 120277.4410000006,
      "d": 69.44425000000047,
      "v": 127
    },
    {
      "midi": 36,
      "hit": false,
      "t": 120346.8852500006,
      "d": 69.44425000000047,
      "v": 127
    },
    {
      "midi": 31,
      "hit": false,
      "t": 120416.3295000006,
      "d": 277.77700000000186,
      "v": 127
    },
    {
      "midi": 55,
      "hit": false,
      "t": 120485.77375000063,
      "d": 69.44425000000047,
      "v": 127
    },
    {
      "midi": 59,
      "hit": false,
      "t": 120555.21800000063,
      "d": 69.44425000000047,
      "v": 127
    },
    {
      "midi": 62,
      "hit": false,
      "t": 120624.66225000063,
      "d": 69.44425000000047,
      "v": 127
    },
    {
      "midi": 67,
      "hit": false,
      "t": 120694.10650000063,
      "d": 277.77700000000186,
      "v": 127
    },
    {
      "midi": 50,
      "hit": false,
      "t": 120832.9950000006,
      "d": 69.44425000000047,
      "v": 127
    },
    {
      "midi": 47,
      "hit": false,
      "t": 120902.4392500006,
      "d": 69.44425000000047,
      "v": 127
    },
    {
      "midi": 43,
      "hit": false,
      "t": 120971.88350000061,
      "d": 138.88850000000093,
      "v": 127
    },
    {
      "midi": 55,
      "hit": false,
      "t": 121041.32775000064,
      "d": 69.44425000000047,
      "v": 127
    },
    {
      "midi": 60,
      "hit": false,
      "t": 121110.77200000064,
      "d": 69.44425000000047,
      "v": 127
    },
    {
      "midi": 63,
      "hit": false,
      "t": 121180.21625000064,
      "d": 69.44425000000047,
      "v": 127
    },
    {
      "midi": 67,
      "hit": false,
      "t": 121249.66050000064,
      "d": 277.77700000000186,
      "v": 127
    },
    {
      "midi": 51,
      "hit": false,
      "t": 121388.54900000061,
      "d": 69.44425000000047,
      "v": 127
    },
    {
      "midi": 48,
      "hit": false,
      "t": 121457.99325000061,
      "d": 69.44425000000047,
      "v": 127
    },
    {
      "midi": 43,
      "hit": false,
      "t": 121527.43750000061,
      "d": 277.77700000000186,
      "v": 127
    },
    {
      "midi": 55,
      "hit": false,
      "t": 121596.88175000064,
      "d": 69.44425000000047,
      "v": 127
    },
    {
      "midi": 62,
      "hit": false,
      "t": 121666.32600000064,
      "d": 69.44425000000047,
      "v": 127
    },
    {
      "midi": 65,
      "hit": false,
      "t": 121735.77025000064,
      "d": 69.44425000000047,
      "v": 127
    },
    {
      "midi": 67,
      "hit": false,
      "t": 121805.21450000064,
      "d": 277.77700000000186,
      "v": 127
    },
    {
      "midi": 53,
      "hit": false,
      "t": 121944.10300000061,
      "d": 69.44425000000047,
      "v": 127
    },
    {
      "midi": 50,
      "hit": false,
      "t": 122013.54725000061,
      "d": 69.44425000000047,
      "v": 127
    },
    {
      "midi": 43,
      "hit": false,
      "t": 122082.99150000061,
      "d": 138.88850000000093,
      "v": 127
    },
    {
      "midi": 55,
      "hit": false,
      "t": 122152.43575000064,
      "d": 69.44425000000047,
      "v": 127
    },
    {
      "midi": 60,
      "hit": false,
      "t": 122221.88000000064,
      "d": 69.44425000000047,
      "v": 127
    },
    {
      "midi": 63,
      "hit": false,
      "t": 122291.32425000065,
      "d": 69.44425000000047,
      "v": 127
    },
    {
      "midi": 67,
      "hit": false,
      "t": 122360.76850000065,
      "d": 277.77700000000186,
      "v": 127
    },
    {
      "midi": 51,
      "hit": false,
      "t": 122499.65700000062,
      "d": 69.44425000000047,
      "v": 127
    },
    {
      "midi": 48,
      "hit": false,
      "t": 122569.10125000062,
      "d": 69.44425000000047,
      "v": 127
    },
    {
      "midi": 43,
      "hit": false,
      "t": 122638.54550000062,
      "d": 277.77700000000186,
      "v": 127
    },
    {
      "midi": 67,
      "hit": false,
      "t": 122707.98975000065,
      "d": 69.44425000000047,
      "v": 127
    },
    {
      "midi": 71,
      "hit": false,
      "t": 122777.43400000065,
      "d": 69.44425000000047,
      "v": 127
    },
    {
      "midi": 74,
      "hit": false,
      "t": 122846.87825000065,
      "d": 69.44425000000047,
      "v": 127
    },
    {
      "midi": 79,
      "hit": false,
      "t": 122916.32250000065,
      "d": 277.77700000000186,
      "v": 127
    },
    {
      "midi": 62,
      "hit": false,
      "t": 123055.21100000062,
      "d": 69.44425000000047,
      "v": 127
    },
    {
      "midi": 59,
      "hit": false,
      "t": 123124.65525000062,
      "d": 69.44425000000047,
      "v": 127
    },
    {
      "midi": 55,
      "hit": false,
      "t": 123194.09950000062,
      "d": 138.88850000000093,
      "v": 127
    },
    {
      "midi": 67,
      "hit": false,
      "t": 123263.54375000065,
      "d": 69.44425000000047,
      "v": 127
    },
    {
      "midi": 72,
      "hit": false,
      "t": 123332.98800000065,
      "d": 69.44425000000047,
      "v": 127
    },
    {
      "midi": 75,
      "hit": false,
      "t": 123402.43225000065,
      "d": 69.44425000000047,
      "v": 127
    },
    {
      "midi": 79,
      "hit": false,
      "t": 123471.87650000065,
      "d": 277.77700000000186,
      "v": 127
    },
    {
      "midi": 63,
      "hit": false,
      "t": 123610.76500000063,
      "d": 69.44425000000047,
      "v": 127
    },
    {
      "midi": 60,
      "hit": false,
      "t": 123680.20925000063,
      "d": 69.44425000000047,
      "v": 127
    },
    {
      "midi": 55,
      "hit": false,
      "t": 123749.65350000063,
      "d": 277.77700000000186,
      "v": 127
    },
    {
      "midi": 67,
      "hit": false,
      "t": 123819.09775000066,
      "d": 69.44425000000047,
      "v": 127
    },
    {
      "midi": 74,
      "hit": false,
      "t": 123888.54200000066,
      "d": 69.44425000000047,
      "v": 127
    },
    {
      "midi": 77,
      "hit": false,
      "t": 123957.98625000066,
      "d": 69.44425000000047,
      "v": 127
    },
    {
      "midi": 79,
      "hit": false,
      "t": 124027.43050000066,
      "d": 277.77700000000186,
      "v": 127
    },
    {
      "midi": 65,
      "hit": false,
      "t": 124166.31900000063,
      "d": 69.44425000000047,
      "v": 127
    },
    {
      "midi": 62,
      "hit": false,
      "t": 124235.76325000063,
      "d": 69.44425000000047,
      "v": 127
    },
    {
      "midi": 55,
      "hit": false,
      "t": 124305.20750000063,
      "d": 138.88850000000093,
      "v": 127
    },
    {
      "midi": 67,
      "hit": false,
      "t": 124374.65175000066,
      "d": 69.44425000000047,
      "v": 127
    },
    {
      "midi": 72,
      "hit": false,
      "t": 124444.09600000066,
      "d": 69.44425000000047,
      "v": 127
    },
    {
      "midi": 75,
      "hit": false,
      "t": 124513.54025000066,
      "d": 69.44425000000047,
      "v": 127
    },
    {
      "midi": 79,
      "hit": false,
      "t": 124582.98450000066,
      "d": 277.77700000000186,
      "v": 127
    },
    {
      "midi": 63,
      "hit": false,
      "t": 124721.87300000063,
      "d": 69.44425000000047,
      "v": 127
    },
    {
      "midi": 60,
      "hit": false,
      "t": 124791.31725000063,
      "d": 69.44425000000047,
      "v": 127
    },
    {
      "midi": 55,
      "hit": false,
      "t": 124860.76150000063,
      "d": 277.77700000000186,
      "v": 127
    },
    {
      "midi": 67,
      "hit": false,
      "t": 124930.20575000066,
      "d": 69.44425000000047,
      "v": 127
    },
    {
      "midi": 66,
      "hit": false,
      "t": 125069.09425000066,
      "d": 69.44425000000047,
      "v": 127
    },
    {
      "midi": 67,
      "hit": false,
      "t": 125138.53850000066,
      "d": 69.44425000000047,
      "v": 127
    },
    {
      "midi": 71,
      "hit": false,
      "t": 125207.98275000066,
      "d": 69.44425000000047,
      "v": 127
    },
    {
      "midi": 74,
      "hit": false,
      "t": 125346.87125000067,
      "d": 69.44425000000047,
      "v": 127
    },
    {
      "midi": 79,
      "hit": false,
      "t": 125416.31550000067,
      "d": 69.44425000000047,
      "v": 127
    },
    {
      "midi": 74,
      "hit": false,
      "t": 125485.75975000067,
      "d": 69.44425000000047,
      "v": 127
    },
    {
      "midi": 71,
      "hit": false,
      "t": 125624.64825000067,
      "d": 69.44425000000047,
      "v": 127
    },
    {
      "midi": 55,
      "hit": false,
      "t": 125694.09250000064,
      "d": 69.44425000000047,
      "v": 127
    },
    {
      "midi": 67,
      "hit": false,
      "t": 125694.09250000067,
      "d": 277.77700000000186,
      "v": 127
    },
    {
      "midi": 50,
      "hit": false,
      "t": 125763.53675000064,
      "d": 69.44425000000047,
      "v": 127
    },
    {
      "midi": 47,
      "hit": false,
      "t": 125902.42525000064,
      "d": 69.44425000000047,
      "v": 127
    },
    {
      "midi": 43,
      "hit": false,
      "t": 125971.86950000064,
      "d": 277.77700000000186,
      "v": 127
    },
    {
      "midi": 71,
      "hit": false,
      "t": 126041.31375000067,
      "d": 69.44425000000047,
      "v": 127
    },
    {
      "midi": 70,
      "hit": false,
      "t": 126180.20225000067,
      "d": 69.44425000000047,
      "v": 127
    },
    {
      "midi": 71,
      "hit": false,
      "t": 126249.64650000067,
      "d": 69.44425000000047,
      "v": 127
    },
    {
      "midi": 74,
      "hit": false,
      "t": 126319.09075000067,
      "d": 69.44425000000047,
      "v": 127
    },
    {
      "midi": 79,
      "hit": false,
      "t": 126457.97925000067,
      "d": 69.44425000000047,
      "v": 127
    },
    {
      "midi": 83,
      "hit": false,
      "t": 126527.42350000067,
      "d": 69.44425000000047,
      "v": 127
    },
    {
      "midi": 79,
      "hit": false,
      "t": 126596.86775000067,
      "d": 69.44425000000047,
      "v": 127
    },
    {
      "midi": 74,
      "hit": false,
      "t": 126735.75625000068,
      "d": 69.44425000000047,
      "v": 127
    },
    {
      "midi": 55,
      "hit": false,
      "t": 126805.20050000065,
      "d": 69.44425000000047,
      "v": 127
    },
    {
      "midi": 71,
      "hit": false,
      "t": 126805.20050000068,
      "d": 277.77700000000186,
      "v": 127
    },
    {
      "midi": 50,
      "hit": false,
      "t": 126874.64475000065,
      "d": 69.44425000000047,
      "v": 127
    },
    {
      "midi": 47,
      "hit": false,
      "t": 127013.53325000065,
      "d": 69.44425000000047,
      "v": 127
    },
    {
      "midi": 43,
      "hit": false,
      "t": 127082.97750000065,
      "d": 277.77700000000186,
      "v": 127
    },
    {
      "midi": 74,
      "hit": false,
      "t": 127152.42175000068,
      "d": 69.44425000000047,
      "v": 127
    },
    {
      "midi": 73,
      "hit": false,
      "t": 127291.31025000068,
      "d": 69.44425000000047,
      "v": 127
    },
    {
      "midi": 74,
      "hit": false,
      "t": 127360.75450000068,
      "d": 69.44425000000047,
      "v": 127
    },
    {
      "midi": 79,
      "hit": false,
      "t": 127430.19875000068,
      "d": 69.44425000000047,
      "v": 127
    },
    {
      "midi": 83,
      "hit": false,
      "t": 127569.08725000068,
      "d": 69.44425000000047,
      "v": 127
    },
    {
      "midi": 86,
      "hit": false,
      "t": 127638.53150000068,
      "d": 69.44425000000047,
      "v": 127
    },
    {
      "midi": 83,
      "hit": false,
      "t": 127707.97575000068,
      "d": 69.44425000000047,
      "v": 127
    },
    {
      "midi": 79,
      "hit": false,
      "t": 127846.86425000068,
      "d": 69.44425000000047,
      "v": 127
    },
    {
      "midi": 43,
      "hit": false,
      "t": 127916.30850000065,
      "d": 69.44425000000047,
      "v": 127
    },
    {
      "midi": 74,
      "hit": false,
      "t": 127916.30850000068,
      "d": 277.77700000000186,
      "v": 127
    },
    {
      "midi": 38,
      "hit": false,
      "t": 127985.75275000065,
      "d": 69.44425000000047,
      "v": 127
    },
    {
      "midi": 35,
      "hit": false,
      "t": 128124.64125000066,
      "d": 69.44425000000047,
      "v": 127
    },
    {
      "midi": 31,
      "hit": false,
      "t": 128194.08550000066,
      "d": 277.77700000000186,
      "v": 127
    },
    {
      "midi": 77,
      "hit": false,
      "t": 128263.52975000069,
      "d": 69.44425000000047,
      "v": 127
    },
    {
      "midi": 76,
      "hit": false,
      "t": 128402.41825000069,
      "d": 69.44425000000047,
      "v": 127
    },
    {
      "midi": 77,
      "hit": false,
      "t": 128471.86250000069,
      "d": 69.44425000000047,
      "v": 127
    },
    {
      "midi": 83,
      "hit": false,
      "t": 128541.30675000069,
      "d": 69.44425000000047,
      "v": 127
    },
    {
      "midi": 86,
      "hit": false,
      "t": 128680.19525000069,
      "d": 69.44425000000047,
      "v": 127
    },
    {
      "midi": 89,
      "hit": false,
      "t": 128749.63950000069,
      "d": 69.44425000000047,
      "v": 127
    },
    {
      "midi": 86,
      "hit": false,
      "t": 128819.08375000069,
      "d": 69.44425000000047,
      "v": 127
    },
    {
      "midi": 83,
      "hit": false,
      "t": 128957.97225000069,
      "d": 69.44425000000047,
      "v": 127
    },
    {
      "midi": 89,
      "hit": false,
      "t": 129027.41650000069,
      "d": 69.44425000000047,
      "v": 127
    },
    {
      "midi": 86,
      "hit": false,
      "t": 129096.86075000069,
      "d": 69.44425000000047,
      "v": 127
    },
    {
      "midi": 83,
      "hit": false,
      "t": 129235.74925000069,
      "d": 69.44425000000047,
      "v": 127
    },
    {
      "midi": 31,
      "hit": false,
      "t": 129305.19350000066,
      "d": 694.4425000000047,
      "v": 127
    },
    {
      "midi": 43,
      "hit": false,
      "t": 129305.19350000066,
      "d": 694.4425000000047,
      "v": 127
    },
    {
      "midi": 89,
      "hit": false,
      "t": 129305.19350000069,
      "d": 694.4425000000047,
      "v": 127
    },
    {
      "midi": 87,
      "hit": false,
      "t": 130138.5245000007,
      "d": 69.44425000000047,
      "v": 127
    },
    {
      "midi": 86,
      "hit": false,
      "t": 130207.9687500007,
      "d": 69.44425000000047,
      "v": 127
    },
    {
      "midi": 84,
      "hit": false,
      "t": 130346.8572500007,
      "d": 69.44425000000047,
      "v": 127
    },
    {
      "midi": 83,
      "hit": false,
      "t": 130416.3015000007,
      "d": 69.44425000000047,
      "v": 127
    },
    {
      "midi": 80,
      "hit": false,
      "t": 130485.7457500007,
      "d": 69.44425000000047,
      "v": 127
    },
    {
      "midi": 79,
      "hit": false,
      "t": 130624.6342500007,
      "d": 69.44425000000047,
      "v": 127
    },
    {
      "midi": 77,
      "hit": false,
      "t": 130694.0785000007,
      "d": 69.44425000000047,
      "v": 127
    },
    {
      "midi": 75,
      "hit": false,
      "t": 130763.5227500007,
      "d": 69.44425000000047,
      "v": 127
    },
    {
      "midi": 74,
      "hit": false,
      "t": 130902.4112500007,
      "d": 69.44425000000047,
      "v": 127
    },
    {
      "midi": 72,
      "hit": false,
      "t": 130971.8555000007,
      "d": 69.44425000000047,
      "v": 127
    },
    {
      "midi": 71,
      "hit": false,
      "t": 131041.2997500007,
      "d": 69.44425000000047,
      "v": 127
    },
    {
      "midi": 68,
      "hit": false,
      "t": 131180.1882500007,
      "d": 69.44425000000047,
      "v": 127
    },
    {
      "midi": 67,
      "hit": false,
      "t": 131249.6325000007,
      "d": 69.44425000000047,
      "v": 127
    },
    {
      "midi": 65,
      "hit": false,
      "t": 131319.0767500007,
      "d": 69.44425000000047,
      "v": 127
    },
    {
      "midi": 62,
      "hit": false,
      "t": 131388.5210000007,
      "d": 69.44425000000047,
      "v": 127
    },
    {
      "midi": 63,
      "hit": false,
      "t": 131388.5210000007,
      "d": 69.44425000000047,
      "v": 127
    },
    {
      "midi": 60,
      "hit": false,
      "t": 131457.9652500007,
      "d": 69.44425000000047,
      "v": 127
    },
    {
      "midi": 43,
      "hit": false,
      "t": 131527.40950000068,
      "d": 694.4425000000047,
      "v": 127
    },
    {
      "midi": 50,
      "hit": false,
      "t": 131527.40950000068,
      "d": 694.4425000000047,
      "v": 127
    },
    {
      "midi": 53,
      "hit": false,
      "t": 131527.40950000068,
      "d": 694.4425000000047,
      "v": 127
    },
    {
      "midi": 59,
      "hit": false,
      "t": 131527.4095000007,
      "d": 694.4425000000047,
      "v": 127
    },
    {
      "midi": 67,
      "hit": false,
      "t": 133332.96000000072,
      "d": 138.88850000000093,
      "v": 127
    },
    {
      "midi": 72,
      "hit": false,
      "t": 133471.84850000072,
      "d": 138.88850000000093,
      "v": 127
    },
    {
      "midi": 74,
      "hit": false,
      "t": 133610.73700000072,
      "d": 138.88850000000093,
      "v": 127
    },
    {
      "midi": 48,
      "hit": false,
      "t": 133749.6255000007,
      "d": 138.88850000000093,
      "v": 127
    },
    {
      "midi": 75,
      "hit": false,
      "t": 133749.62550000072,
      "d": 416.6655000000028,
      "v": 127
    },
    {
      "midi": 51,
      "hit": false,
      "t": 133888.5140000007,
      "d": 138.88850000000093,
      "v": 127
    },
    {
      "midi": 55,
      "hit": false,
      "t": 134027.4025000007,
      "d": 138.88850000000093,
      "v": 127
    },
    {
      "midi": 60,
      "hit": false,
      "t": 134166.2910000007,
      "d": 138.88850000000093,
      "v": 127
    },
    {
      "midi": 77,
      "hit": false,
      "t": 134166.29100000073,
      "d": 138.88850000000093,
      "v": 127
    },
    {
      "midi": 48,
      "hit": false,
      "t": 134305.1795000007,
      "d": 138.88850000000093,
      "v": 127
    },
    {
      "midi": 74,
      "hit": false,
      "t": 134305.17950000073,
      "d": 138.88850000000093,
      "v": 127
    },
    {
      "midi": 53,
      "hit": false,
      "t": 134444.0680000007,
      "d": 138.88850000000093,
      "v": 127
    },
    {
      "midi": 55,
      "hit": false,
      "t": 134582.9565000007,
      "d": 138.88850000000093,
      "v": 127
    },
    {
      "midi": 59,
      "hit": false,
      "t": 134721.8450000007,
      "d": 138.88850000000093,
      "v": 127
    },
    {
      "midi": 75,
      "hit": false,
      "t": 134721.84500000073,
      "d": 138.88850000000093,
      "v": 127
    },
    {
      "midi": 48,
      "hit": false,
      "t": 134860.7335000007,
      "d": 138.88850000000093,
      "v": 127
    },
    {
      "midi": 72,
      "hit": false,
      "t": 134860.73350000073,
      "d": 416.6655000000028,
      "v": 127
    },
    {
      "midi": 51,
      "hit": false,
      "t": 134999.6220000007,
      "d": 138.88850000000093,
      "v": 127
    },
    {
      "midi": 55,
      "hit": false,
      "t": 135138.5105000007,
      "d": 138.88850000000093,
      "v": 127
    },
    {
      "midi": 60,
      "hit": false,
      "t": 135277.3990000007,
      "d": 138.88850000000093,
      "v": 127
    },
    {
      "midi": 74,
      "hit": false,
      "t": 135346.84325000073,
      "d": 69.44425000000047,
      "v": 127
    },
    {
      "midi": 63,
      "hit": false,
      "t": 135416.2875000007,
      "d": 138.88850000000093,
      "v": 127
    },
    {
      "midi": 72,
      "hit": false,
      "t": 135416.28750000073,
      "d": 138.88850000000093,
      "v": 127
    },
    {
      "midi": 67,
      "hit": false,
      "t": 135555.1760000007,
      "d": 138.88850000000093,
      "v": 127
    },
    {
      "midi": 71,
      "hit": false,
      "t": 135555.17600000073,
      "d": 138.88850000000093,
      "v": 127
    },
    {
      "midi": 63,
      "hit": false,
      "t": 135694.0645000007,
      "d": 138.88850000000093,
      "v": 127
    },
    {
      "midi": 72,
      "hit": false,
      "t": 135694.06450000074,
      "d": 138.88850000000093,
      "v": 127
    },
    {
      "midi": 62,
      "hit": false,
      "t": 135832.9530000007,
      "d": 138.88850000000093,
      "v": 127
    },
    {
      "midi": 74,
      "hit": false,
      "t": 135832.95300000074,
      "d": 69.44425000000047,
      "v": 127
    },
    {
      "midi": 77,
      "hit": false,
      "t": 135902.39725000074,
      "d": 69.44425000000047,
      "v": 127
    },
    {
      "midi": 60,
      "hit": false,
      "t": 135971.8415000007,
      "d": 138.88850000000093,
      "v": 127
    },
    {
      "midi": 75,
      "hit": false,
      "t": 135971.84150000074,
      "d": 138.88850000000093,
      "v": 127
    },
    {
      "midi": 67,
      "hit": false,
      "t": 136110.7300000007,
      "d": 138.88850000000093,
      "v": 127
    },
    {
      "midi": 74,
      "hit": false,
      "t": 136110.73000000074,
      "d": 138.88850000000093,
      "v": 127
    },
    {
      "midi": 60,
      "hit": false,
      "t": 136249.6185000007,
      "d": 138.88850000000093,
      "v": 127
    },
    {
      "midi": 63,
      "hit": false,
      "t": 136249.6185000007,
      "d": 138.88850000000093,
      "v": 127
    },
    {
      "midi": 75,
      "hit": false,
      "t": 136249.61850000074,
      "d": 138.88850000000093,
      "v": 127
    },
    {
      "midi": 67,
      "hit": false,
      "t": 136388.5070000007,
      "d": 138.88850000000093,
      "v": 127
    },
    {
      "midi": 77,
      "hit": false,
      "t": 136388.50700000074,
      "d": 138.88850000000093,
      "v": 127
    },
    {
      "midi": 59,
      "hit": false,
      "t": 136527.3955000007,
      "d": 138.88850000000093,
      "v": 127
    },
    {
      "midi": 62,
      "hit": false,
      "t": 136527.3955000007,
      "d": 138.88850000000093,
      "v": 127
    },
    {
      "midi": 79,
      "hit": false,
      "t": 136527.39550000074,
      "d": 138.88850000000093,
      "v": 127
    },
    {
      "midi": 67,
      "hit": false,
      "t": 136666.2840000007,
      "d": 138.88850000000093,
      "v": 127
    },
    {
      "midi": 56,
      "hit": false,
      "t": 136805.1725000007,
      "d": 138.88850000000093,
      "v": 127
    },
    {
      "midi": 60,
      "hit": false,
      "t": 136805.1725000007,
      "d": 138.88850000000093,
      "v": 127
    },
    {
      "midi": 79,
      "hit": false,
      "t": 136805.17250000074,
      "d": 277.77700000000186,
      "v": 127
    },
    {
      "midi": 67,
      "hit": false,
      "t": 136944.06100000071,
      "d": 138.88850000000093,
      "v": 127
    },
    {
      "midi": 55,
      "hit": false,
      "t": 137082.94950000072,
      "d": 138.88850000000093,
      "v": 127
    },
    {
      "midi": 79,
      "hit": false,
      "t": 137082.94950000074,
      "d": 694.4425000000047,
      "v": 127
    },
    {
      "midi": 59,
      "hit": false,
      "t": 137221.83800000072,
      "d": 138.88850000000093,
      "v": 127
    },
    {
      "midi": 62,
      "hit": false,
      "t": 137360.72650000072,
      "d": 138.88850000000093,
      "v": 127
    },
    {
      "midi": 67,
      "hit": false,
      "t": 137499.61500000072,
      "d": 138.88850000000093,
      "v": 127
    },
    {
      "midi": 55,
      "hit": false,
      "t": 137638.50350000072,
      "d": 138.88850000000093,
      "v": 127
    },
    {
      "midi": 59,
      "hit": false,
      "t": 137777.39200000072,
      "d": 138.88850000000093,
      "v": 127
    },
    {
      "midi": 62,
      "hit": false,
      "t": 137916.28050000072,
      "d": 138.88850000000093,
      "v": 127
    },
    {
      "midi": 77,
      "hit": false,
      "t": 137916.28050000075,
      "d": 138.88850000000093,
      "v": 127
    },
    {
      "midi": 67,
      "hit": false,
      "t": 138055.16900000072,
      "d": 138.88850000000093,
      "v": 127
    },
    {
      "midi": 79,
      "hit": false,
      "t": 138055.16900000075,
      "d": 69.44425000000047,
      "v": 127
    },
    {
      "midi": 77,
      "hit": false,
      "t": 138124.61325000075,
      "d": 69.44425000000047,
      "v": 127
    },
    {
      "midi": 53,
      "hit": false,
      "t": 138194.05750000072,
      "d": 138.88850000000093,
      "v": 127
    },
    {
      "midi": 80,
      "hit": false,
      "t": 138194.05750000075,
      "d": 555.5540000000037,
      "v": 127
    },
    {
      "midi": 56,
      "hit": false,
      "t": 138332.94600000072,
      "d": 138.88850000000093,
      "v": 127
    },
    {
      "midi": 59,
      "hit": false,
      "t": 138471.83450000072,
      "d": 138.88850000000093,
      "v": 127
    },
    {
      "midi": 62,
      "hit": false,
      "t": 138610.72300000073,
      "d": 138.88850000000093,
      "v": 127
    },
    {
      "midi": 53,
      "hit": false,
      "t": 138749.61150000073,
      "d": 138.88850000000093,
      "v": 127
    },
    {
      "midi": 74,
      "hit": false,
      "t": 138749.61150000076,
      "d": 138.88850000000093,
      "v": 127
    },
    {
      "midi": 56,
      "hit": false,
      "t": 138888.50000000073,
      "d": 138.88850000000093,
      "v": 127
    },
    {
      "midi": 59,
      "hit": false,
      "t": 139027.38850000073,
      "d": 138.88850000000093,
      "v": 127
    },
    {
      "midi": 75,
      "hit": false,
      "t": 139027.38850000076,
      "d": 138.88850000000093,
      "v": 127
    },
    {
      "midi": 62,
      "hit": false,
      "t": 139166.27700000073,
      "d": 138.88850000000093,
      "v": 127
    },
    {
      "midi": 77,
      "hit": false,
      "t": 139166.27700000076,
      "d": 69.44425000000047,
      "v": 127
    },
    {
      "midi": 75,
      "hit": false,
      "t": 139235.72125000076,
      "d": 69.44425000000047,
      "v": 127
    },
    {
      "midi": 51,
      "hit": false,
      "t": 139305.16550000073,
      "d": 138.88850000000093,
      "v": 127
    },
    {
      "midi": 79,
      "hit": false,
      "t": 139305.16550000076,
      "d": 555.5540000000037,
      "v": 127
    },
    {
      "midi": 55,
      "hit": false,
      "t": 139444.05400000073,
      "d": 138.88850000000093,
      "v": 127
    },
    {
      "midi": 60,
      "hit": false,
      "t": 139582.94250000073,
      "d": 138.88850000000093,
      "v": 127
    },
    {
      "midi": 63,
      "hit": false,
      "t": 139721.83100000073,
      "d": 138.88850000000093,
      "v": 127
    },
    {
      "midi": 56,
      "hit": false,
      "t": 139860.71950000073,
      "d": 138.88850000000093,
      "v": 127
    },
    {
      "midi": 72,
      "hit": false,
      "t": 139860.71950000076,
      "d": 138.88850000000093,
      "v": 127
    },
    {
      "midi": 60,
      "hit": false,
      "t": 139999.60800000074,
      "d": 138.88850000000093,
      "v": 127
    },
    {
      "midi": 63,
      "hit": false,
      "t": 140138.49650000074,
      "d": 138.88850000000093,
      "v": 127
    },
    {
      "midi": 72,
      "hit": false,
      "t": 140138.49650000077,
      "d": 138.88850000000093,
      "v": 127
    },
    {
      "midi": 66,
      "hit": false,
      "t": 140277.38500000074,
      "d": 138.88850000000093,
      "v": 127
    },
    {
      "midi": 74,
      "hit": false,
      "t": 140277.38500000077,
      "d": 138.88850000000093,
      "v": 127
    },
    {
      "midi": 55,
      "hit": false,
      "t": 140416.27350000074,
      "d": 138.88850000000093,
      "v": 127
    },
    {
      "midi": 75,
      "hit": false,
      "t": 140416.27350000077,
      "d": 277.77700000000186,
      "v": 127
    },
    {
      "midi": 60,
      "hit": false,
      "t": 140555.16200000074,
      "d": 138.88850000000093,
      "v": 127
    },
    {
      "midi": 63,
      "hit": false,
      "t": 140694.05050000074,
      "d": 138.88850000000093,
      "v": 127
    },
    {
      "midi": 75,
      "hit": false,
      "t": 140694.05050000077,
      "d": 138.88850000000093,
      "v": 127
    },
    {
      "midi": 67,
      "hit": false,
      "t": 140832.93900000074,
      "d": 138.88850000000093,
      "v": 127
    },
    {
      "midi": 77,
      "hit": false,
      "t": 140832.93900000077,
      "d": 138.88850000000093,
      "v": 127
    },
    {
      "midi": 55,
      "hit": false,
      "t": 140971.82750000074,
      "d": 138.88850000000093,
      "v": 127
    },
    {
      "midi": 74,
      "hit": false,
      "t": 140971.82750000077,
      "d": 138.88850000000093,
      "v": 127
    },
    {
      "midi": 59,
      "hit": false,
      "t": 141110.71600000074,
      "d": 138.88850000000093,
      "v": 127
    },
    {
      "midi": 62,
      "hit": false,
      "t": 141249.60450000074,
      "d": 138.88850000000093,
      "v": 127
    },
    {
      "midi": 74,
      "hit": false,
      "t": 141249.60450000077,
      "d": 138.88850000000093,
      "v": 127
    },
    {
      "midi": 67,
      "hit": false,
      "t": 141388.49300000074,
      "d": 277.77700000000186,
      "v": 127
    },
    {
      "midi": 75,
      "hit": false,
      "t": 141388.49300000077,
      "d": 138.88850000000093,
      "v": 127
    },
    {
      "midi": 72,
      "hit": false,
      "t": 141527.38150000077,
      "d": 277.77700000000186,
      "v": 127
    },
    {
      "midi": 36,
      "hit": false,
      "t": 141666.27000000075,
      "d": 138.88850000000093,
      "v": 127
    },
    {
      "midi": 39,
      "hit": false,
      "t": 141805.15850000075,
      "d": 138.88850000000093,
      "v": 127
    },
    {
      "midi": 43,
      "hit": false,
      "t": 141944.04700000075,
      "d": 138.88850000000093,
      "v": 127
    },
    {
      "midi": 48,
      "hit": false,
      "t": 142082.93550000075,
      "d": 138.88850000000093,
      "v": 127
    },
    {
      "midi": 51,
      "hit": false,
      "t": 142221.82400000075,
      "d": 138.88850000000093,
      "v": 127
    },
    {
      "midi": 53,
      "hit": false,
      "t": 142360.71250000075,
      "d": 138.88850000000093,
      "v": 127
    },
    {
      "midi": 55,
      "hit": false,
      "t": 142499.60100000075,
      "d": 138.88850000000093,
      "v": 127
    },
    {
      "midi": 56,
      "hit": false,
      "t": 142638.48950000075,
      "d": 555.5540000000037,
      "v": 127
    },
    {
      "midi": 59,
      "hit": false,
      "t": 142777.37800000078,
      "d": 138.88850000000093,
      "v": 127
    },
    {
      "midi": 62,
      "hit": false,
      "t": 142916.26650000078,
      "d": 138.88850000000093,
      "v": 127
    },
    {
      "midi": 65,
      "hit": false,
      "t": 143055.15500000078,
      "d": 277.77700000000186,
      "v": 127
    },
    {
      "midi": 50,
      "hit": false,
      "t": 143194.04350000076,
      "d": 138.88850000000093,
      "v": 127
    },
    {
      "midi": 77,
      "hit": false,
      "t": 143332.9320000008,
      "d": 138.88850000000093,
      "v": 127
    },
    {
      "midi": 51,
      "hit": false,
      "t": 143471.82050000076,
      "d": 138.88850000000093,
      "v": 127
    },
    {
      "midi": 74,
      "hit": false,
      "t": 143471.8205000008,
      "d": 138.88850000000093,
      "v": 127
    },
    {
      "midi": 53,
      "hit": false,
      "t": 143610.70900000076,
      "d": 138.88850000000093,
      "v": 127
    },
    {
      "midi": 71,
      "hit": false,
      "t": 143610.7090000008,
      "d": 277.77700000000186,
      "v": 127
    },
    {
      "midi": 55,
      "hit": false,
      "t": 143749.59750000076,
      "d": 555.5540000000037,
      "v": 127
    },
    {
      "midi": 60,
      "hit": false,
      "t": 143888.4860000008,
      "d": 138.88850000000093,
      "v": 127
    },
    {
      "midi": 63,
      "hit": false,
      "t": 144027.3745000008,
      "d": 138.88850000000093,
      "v": 127
    },
    {
      "midi": 67,
      "hit": false,
      "t": 144166.2630000008,
      "d": 277.77700000000186,
      "v": 127
    },
    {
      "midi": 48,
      "hit": false,
      "t": 144305.15150000076,
      "d": 138.88850000000093,
      "v": 127
    },
    {
      "midi": 79,
      "hit": false,
      "t": 144444.0400000008,
      "d": 138.88850000000093,
      "v": 127
    },
    {
      "midi": 58,
      "hit": false,
      "t": 144582.92850000077,
      "d": 138.88850000000093,
      "v": 127
    },
    {
      "midi": 75,
      "hit": false,
      "t": 144582.9285000008,
      "d": 138.88850000000093,
      "v": 127
    },
    {
      "midi": 60,
      "hit": false,
      "t": 144721.81700000077,
      "d": 138.88850000000093,
      "v": 127
    },
    {
      "midi": 72,
      "hit": false,
      "t": 144721.8170000008,
      "d": 277.77700000000186,
      "v": 127
    },
    {
      "midi": 61,
      "hit": false,
      "t": 144860.70550000077,
      "d": 555.5540000000037,
      "v": 127
    },
    {
      "midi": 64,
      "hit": false,
      "t": 144999.5940000008,
      "d": 138.88850000000093,
      "v": 127
    },
    {
      "midi": 67,
      "hit": false,
      "t": 145138.4825000008,
      "d": 138.88850000000093,
      "v": 127
    },
    {
      "midi": 70,
      "hit": false,
      "t": 145277.3710000008,
      "d": 277.77700000000186,
      "v": 127
    },
    {
      "midi": 55,
      "hit": false,
      "t": 145416.25950000077,
      "d": 138.88850000000093,
      "v": 127
    },
    {
      "midi": 82,
      "hit": false,
      "t": 145555.1480000008,
      "d": 138.88850000000093,
      "v": 127
    },
    {
      "midi": 56,
      "hit": false,
      "t": 145694.03650000077,
      "d": 138.88850000000093,
      "v": 127
    },
    {
      "midi": 79,
      "hit": false,
      "t": 145694.0365000008,
      "d": 138.88850000000093,
      "v": 127
    },
    {
      "midi": 58,
      "hit": false,
      "t": 145832.92500000077,
      "d": 138.88850000000093,
      "v": 127
    },
    {
      "midi": 76,
      "hit": false,
      "t": 145832.9250000008,
      "d": 277.77700000000186,
      "v": 127
    },
    {
      "midi": 60,
      "hit": false,
      "t": 145971.81350000078,
      "d": 555.5540000000037,
      "v": 127
    },
    {
      "midi": 65,
      "hit": false,
      "t": 146110.7020000008,
      "d": 138.88850000000093,
      "v": 127
    },
    {
      "midi": 68,
      "hit": false,
      "t": 146249.5905000008,
      "d": 138.88850000000093,
      "v": 127
    },
    {
      "midi": 72,
      "hit": false,
      "t": 146388.4790000008,
      "d": 138.88850000000093,
      "v": 127
    },
    {
      "midi": 53,
      "hit": false,
      "t": 146527.36750000078,
      "d": 138.88850000000093,
      "v": 127
    },
    {
      "midi": 77,
      "hit": false,
      "t": 146527.3675000008,
      "d": 138.88850000000093,
      "v": 127
    },
    {
      "midi": 80,
      "hit": false,
      "t": 146666.2560000008,
      "d": 138.88850000000093,
      "v": 127
    },
    {
      "midi": 84,
      "hit": false,
      "t": 146805.1445000008,
      "d": 138.88850000000093,
      "v": 127
    },
    {
      "midi": 89,
      "hit": false,
      "t": 146944.0330000008,
      "d": 416.6655000000028,
      "v": 127
    },
    {
      "midi": 60,
      "hit": false,
      "t": 147082.92150000078,
      "d": 277.77700000000186,
      "v": 127
    },
    {
      "midi": 65,
      "hit": false,
      "t": 147360.69850000078,
      "d": 277.77700000000186,
      "v": 127
    },
    {
      "midi": 87,
      "hit": false,
      "t": 147360.6985000008,
      "d": 277.77700000000186,
      "v": 127
    },
    {
      "midi": 60,
      "hit": false,
      "t": 147638.4755000008,
      "d": 138.88850000000093,
      "v": 127
    },
    {
      "midi": 86,
      "hit": false,
      "t": 147638.47550000082,
      "d": 138.88850000000093,
      "v": 127
    },
    {
      "midi": 66,
      "hit": false,
      "t": 147916.2525000008,
      "d": 277.77700000000186,
      "v": 127
    },
    {
      "midi": 84,
      "hit": false,
      "t": 147916.25250000082,
      "d": 277.77700000000186,
      "v": 127
    },
    {
      "midi": 55,
      "hit": false,
      "t": 148194.0295000008,
      "d": 277.77700000000186,
      "v": 127
    },
    {
      "midi": 83,
      "hit": false,
      "t": 148194.02950000082,
      "d": 277.77700000000186,
      "v": 127
    },
    {
      "midi": 67,
      "hit": false,
      "t": 148471.8065000008,
      "d": 277.77700000000186,
      "v": 127
    },
    {
      "midi": 79,
      "hit": false,
      "t": 148471.80650000082,
      "d": 416.6655000000028,
      "v": 127
    },
    {
      "midi": 65,
      "hit": false,
      "t": 148749.5835000008,
      "d": 138.88850000000093,
      "v": 127
    },
    {
      "midi": 67,
      "hit": false,
      "t": 149027.3605000008,
      "d": 277.77700000000186,
      "v": 127
    },
    {
      "midi": 79,
      "hit": false,
      "t": 149027.36050000082,
      "d": 416.6655000000028,
      "v": 127
    },
    {
      "midi": 64,
      "hit": false,
      "t": 149305.1375000008,
      "d": 277.77700000000186,
      "v": 127
    },
    {
      "midi": 81,
      "hit": false,
      "t": 149444.02600000083,
      "d": 138.88850000000093,
      "v": 127
    },
    {
      "midi": 67,
      "hit": false,
      "t": 149582.9145000008,
      "d": 277.77700000000186,
      "v": 127
    },
    {
      "midi": 83,
      "hit": false,
      "t": 149582.91450000083,
      "d": 138.88850000000093,
      "v": 127
    },
    {
      "midi": 84,
      "hit": false,
      "t": 149721.80300000083,
      "d": 138.88850000000093,
      "v": 127
    },
    {
      "midi": 59,
      "hit": false,
      "t": 149860.6915000008,
      "d": 138.88850000000093,
      "v": 127
    },
    {
      "midi": 86,
      "hit": false,
      "t": 149860.69150000083,
      "d": 138.88850000000093,
      "v": 127
    },
    {
      "midi": 88,
      "hit": false,
      "t": 149999.58000000083,
      "d": 138.88850000000093,
      "v": 127
    },
    {
      "midi": 67,
      "hit": false,
      "t": 150138.4685000008,
      "d": 277.77700000000186,
      "v": 127
    },
    {
      "midi": 89,
      "hit": false,
      "t": 150138.46850000083,
      "d": 138.88850000000093,
      "v": 127
    },
    {
      "midi": 86,
      "hit": false,
      "t": 150277.35700000083,
      "d": 138.88850000000093,
      "v": 127
    },
    {
      "midi": 60,
      "hit": false,
      "t": 150416.2455000008,
      "d": 277.77700000000186,
      "v": 127
    },
    {
      "midi": 89,
      "hit": false,
      "t": 150416.24550000083,
      "d": 138.88850000000093,
      "v": 127
    },
    {
      "midi": 88,
      "hit": false,
      "t": 150555.13400000083,
      "d": 138.88850000000093,
      "v": 127
    },
    {
      "midi": 67,
      "hit": false,
      "t": 150694.0225000008,
      "d": 277.77700000000186,
      "v": 127
    },
    {
      "midi": 86,
      "hit": false,
      "t": 150694.02250000084,
      "d": 138.88850000000093,
      "v": 127
    },
    {
      "midi": 84,
      "hit": false,
      "t": 150832.91100000084,
      "d": 138.88850000000093,
      "v": 127
    },
    {
      "midi": 74,
      "hit": false,
      "t": 150971.7995000008,
      "d": 138.88850000000093,
      "v": 127
    },
    {
      "midi": 84,
      "hit": false,
      "t": 150971.79950000084,
      "d": 138.88850000000093,
      "v": 127
    },
    {
      "midi": 83,
      "hit": false,
      "t": 151110.68800000084,
      "d": 138.88850000000093,
      "v": 127
    },
    {
      "midi": 67,
      "hit": false,
      "t": 151249.5765000008,
      "d": 277.77700000000186,
      "v": 127
    },
    {
      "midi": 81,
      "hit": false,
      "t": 151249.57650000084,
      "d": 138.88850000000093,
      "v": 127
    },
    {
      "midi": 83,
      "hit": false,
      "t": 151388.46500000084,
      "d": 138.88850000000093,
      "v": 127
    },
    {
      "midi": 72,
      "hit": false,
      "t": 151527.3535000008,
      "d": 277.77700000000186,
      "v": 127
    },
    {
      "midi": 86,
      "hit": false,
      "t": 151527.35350000084,
      "d": 138.88850000000093,
      "v": 127
    },
    {
      "midi": 84,
      "hit": false,
      "t": 151666.24200000084,
      "d": 138.88850000000093,
      "v": 127
    },
    {
      "midi": 67,
      "hit": false,
      "t": 151805.1305000008,
      "d": 277.77700000000186,
      "v": 127
    },
    {
      "midi": 83,
      "hit": false,
      "t": 151805.13050000084,
      "d": 138.88850000000093,
      "v": 127
    },
    {
      "midi": 81,
      "hit": false,
      "t": 151944.01900000084,
      "d": 138.88850000000093,
      "v": 127
    },
    {
      "midi": 59,
      "hit": false,
      "t": 152082.90750000082,
      "d": 138.88850000000093,
      "v": 127
    },
    {
      "midi": 77,
      "hit": false,
      "t": 152082.90750000085,
      "d": 138.88850000000093,
      "v": 127
    },
    {
      "midi": 79,
      "hit": false,
      "t": 152082.90750000085,
      "d": 138.88850000000093,
      "v": 127
    },
    {
      "midi": 67,
      "hit": false,
      "t": 152360.68450000082,
      "d": 277.77700000000186,
      "v": 127
    },
    {
      "midi": 77,
      "hit": false,
      "t": 152360.68450000085,
      "d": 277.77700000000186,
      "v": 127
    },
    {
      "midi": 79,
      "hit": false,
      "t": 152360.68450000085,
      "d": 277.77700000000186,
      "v": 127
    },
    {
      "midi": 60,
      "hit": false,
      "t": 152638.46150000082,
      "d": 277.77700000000186,
      "v": 127
    },
    {
      "midi": 79,
      "hit": false,
      "t": 152638.46150000085,
      "d": 138.88850000000093,
      "v": 127
    },
    {
      "midi": 76,
      "hit": false,
      "t": 152777.35000000085,
      "d": 138.88850000000093,
      "v": 127
    },
    {
      "midi": 67,
      "hit": false,
      "t": 152916.23850000082,
      "d": 277.77700000000186,
      "v": 127
    },
    {
      "midi": 74,
      "hit": false,
      "t": 152916.23850000085,
      "d": 138.88850000000093,
      "v": 127
    },
    {
      "midi": 72,
      "hit": false,
      "t": 153055.12700000085,
      "d": 138.88850000000093,
      "v": 127
    },
    {
      "midi": 65,
      "hit": false,
      "t": 153194.01550000082,
      "d": 138.88850000000093,
      "v": 127
    },
    {
      "midi": 72,
      "hit": false,
      "t": 153194.01550000085,
      "d": 138.88850000000093,
      "v": 127
    },
    {
      "midi": 71,
      "hit": false,
      "t": 153332.90400000085,
      "d": 138.88850000000093,
      "v": 127
    },
    {
      "midi": 67,
      "hit": false,
      "t": 153471.79250000083,
      "d": 277.77700000000186,
      "v": 127
    },
    {
      "midi": 69,
      "hit": false,
      "t": 153471.79250000085,
      "d": 138.88850000000093,
      "v": 127
    },
    {
      "midi": 71,
      "hit": false,
      "t": 153610.68100000086,
      "d": 138.88850000000093,
      "v": 127
    },
    {
      "midi": 64,
      "hit": false,
      "t": 153749.56950000083,
      "d": 277.77700000000186,
      "v": 127
    },
    {
      "midi": 72,
      "hit": false,
      "t": 153749.56950000086,
      "d": 138.88850000000093,
      "v": 127
    },
    {
      "midi": 81,
      "hit": false,
      "t": 153888.45800000086,
      "d": 138.88850000000093,
      "v": 127
    },
    {
      "midi": 67,
      "hit": false,
      "t": 154027.34650000083,
      "d": 277.77700000000186,
      "v": 127
    },
    {
      "midi": 83,
      "hit": false,
      "t": 154027.34650000086,
      "d": 138.88850000000093,
      "v": 127
    },
    {
      "midi": 84,
      "hit": false,
      "t": 154166.23500000086,
      "d": 138.88850000000093,
      "v": 127
    },
    {
      "midi": 59,
      "hit": false,
      "t": 154305.12350000083,
      "d": 138.88850000000093,
      "v": 127
    },
    {
      "midi": 86,
      "hit": false,
      "t": 154305.12350000086,
      "d": 138.88850000000093,
      "v": 127
    },
    {
      "midi": 88,
      "hit": false,
      "t": 154444.01200000086,
      "d": 138.88850000000093,
      "v": 127
    },
    {
      "midi": 67,
      "hit": false,
      "t": 154582.90050000083,
      "d": 277.77700000000186,
      "v": 127
    },
    {
      "midi": 89,
      "hit": false,
      "t": 154582.90050000086,
      "d": 138.88850000000093,
      "v": 127
    },
    {
      "midi": 86,
      "hit": false,
      "t": 154721.78900000086,
      "d": 138.88850000000093,
      "v": 127
    },
    {
      "midi": 60,
      "hit": false,
      "t": 154860.67750000083,
      "d": 277.77700000000186,
      "v": 127
    },
    {
      "midi": 89,
      "hit": false,
      "t": 154860.67750000086,
      "d": 138.88850000000093,
      "v": 127
    },
    {
      "midi": 88,
      "hit": false,
      "t": 154999.56600000086,
      "d": 138.88850000000093,
      "v": 127
    },
    {
      "midi": 67,
      "hit": false,
      "t": 155138.45450000084,
      "d": 277.77700000000186,
      "v": 127
    },
    {
      "midi": 86,
      "hit": false,
      "t": 155138.45450000087,
      "d": 138.88850000000093,
      "v": 127
    },
    {
      "midi": 84,
      "hit": false,
      "t": 155277.34300000087,
      "d": 138.88850000000093,
      "v": 127
    },
    {
      "midi": 72,
      "hit": false,
      "t": 155416.23150000084,
      "d": 138.88850000000093,
      "v": 127
    },
    {
      "midi": 83,
      "hit": false,
      "t": 155416.23150000087,
      "d": 138.88850000000093,
      "v": 127
    },
    {
      "midi": 84,
      "hit": false,
      "t": 155555.12000000087,
      "d": 138.88850000000093,
      "v": 127
    },
    {
      "midi": 67,
      "hit": false,
      "t": 155694.00850000084,
      "d": 277.77700000000186,
      "v": 127
    },
    {
      "midi": 88,
      "hit": false,
      "t": 155694.00850000087,
      "d": 138.88850000000093,
      "v": 127
    },
    {
      "midi": 84,
      "hit": false,
      "t": 155832.89700000087,
      "d": 138.88850000000093,
      "v": 127
    },
    {
      "midi": 72,
      "hit": false,
      "t": 155971.78550000084,
      "d": 277.77700000000186,
      "v": 127
    },
    {
      "midi": 83,
      "hit": false,
      "t": 155971.78550000087,
      "d": 138.88850000000093,
      "v": 127
    },
    {
      "midi": 81,
      "hit": false,
      "t": 156110.67400000087,
      "d": 138.88850000000093,
      "v": 127
    },
    {
      "midi": 69,
      "hit": false,
      "t": 156249.56250000084,
      "d": 277.77700000000186,
      "v": 127
    },
    {
      "midi": 84,
      "hit": false,
      "t": 156249.56250000087,
      "d": 138.88850000000093,
      "v": 127
    },
    {
      "midi": 81,
      "hit": false,
      "t": 156388.45100000087,
      "d": 138.88850000000093,
      "v": 127
    },
    {
      "midi": 73,
      "hit": false,
      "t": 156527.33950000085,
      "d": 138.88850000000093,
      "v": 127
    },
    {
      "midi": 79,
      "hit": false,
      "t": 156527.33950000087,
      "d": 138.88850000000093,
      "v": 127
    },
    {
      "midi": 77,
      "hit": false,
      "t": 156666.22800000088,
      "d": 138.88850000000093,
      "v": 127
    },
    {
      "midi": 69,
      "hit": false,
      "t": 156805.11650000085,
      "d": 277.77700000000186,
      "v": 127
    },
    {
      "midi": 81,
      "hit": false,
      "t": 156805.11650000088,
      "d": 138.88850000000093,
      "v": 127
    },
    {
      "midi": 77,
      "hit": false,
      "t": 156944.00500000088,
      "d": 138.88850000000093,
      "v": 127
    },
    {
      "midi": 65,
      "hit": false,
      "t": 157082.89350000085,
      "d": 277.77700000000186,
      "v": 127
    },
    {
      "midi": 74,
      "hit": false,
      "t": 157082.89350000085,
      "d": 277.77700000000186,
      "v": 127
    },
    {
      "midi": 76,
      "hit": false,
      "t": 157082.89350000088,
      "d": 138.88850000000093,
      "v": 127
    },
    {
      "midi": 74,
      "hit": false,
      "t": 157221.78200000088,
      "d": 138.88850000000093,
      "v": 127
    },
    {
      "midi": 69,
      "hit": false,
      "t": 157360.67050000085,
      "d": 277.77700000000186,
      "v": 127
    },
    {
      "midi": 77,
      "hit": false,
      "t": 157360.67050000088,
      "d": 138.88850000000093,
      "v": 127
    },
    {
      "midi": 74,
      "hit": false,
      "t": 157499.55900000088,
      "d": 138.88850000000093,
      "v": 127
    },
    {
      "midi": 65,
      "hit": false,
      "t": 157638.44750000085,
      "d": 138.88850000000093,
      "v": 127
    },
    {
      "midi": 81,
      "hit": false,
      "t": 157638.44750000088,
      "d": 138.88850000000093,
      "v": 127
    },
    {
      "midi": 77,
      "hit": false,
      "t": 157777.33600000088,
      "d": 138.88850000000093,
      "v": 127
    },
    {
      "midi": 66,
      "hit": false,
      "t": 157916.22450000086,
      "d": 277.77700000000186,
      "v": 127
    },
    {
      "midi": 74,
      "hit": false,
      "t": 157916.22450000088,
      "d": 138.88850000000093,
      "v": 127
    },
    {
      "midi": 72,
      "hit": false,
      "t": 158055.11300000089,
      "d": 138.88850000000093,
      "v": 127
    },
    {
      "midi": 67,
      "hit": false,
      "t": 158194.00150000086,
      "d": 138.88850000000093,
      "v": 127
    },
    {
      "midi": 71,
      "hit": false,
      "t": 158194.0015000009,
      "d": 69.44425000000047,
      "v": 127
    },
    {
      "midi": 67,
      "hit": false,
      "t": 158263.4457500009,
      "d": 69.44425000000047,
      "v": 127
    },
    {
      "midi": 69,
      "hit": false,
      "t": 158402.3342500009,
      "d": 69.44425000000047,
      "v": 127
    },
    {
      "midi": 71,
      "hit": false,
      "t": 158471.7785000009,
      "d": 69.44425000000047,
      "v": 127
    },
    {
      "midi": 69,
      "hit": false,
      "t": 158541.2227500009,
      "d": 69.44425000000047,
      "v": 127
    },
    {
      "midi": 67,
      "hit": false,
      "t": 158680.1112500009,
      "d": 69.44425000000047,
      "v": 127
    },
    {
      "midi": 72,
      "hit": false,
      "t": 158749.5555000009,
      "d": 138.88850000000093,
      "v": 127
    },
    {
      "midi": 62,
      "hit": false,
      "t": 158818.99975000086,
      "d": 69.44425000000047,
      "v": 127
    },
    {
      "midi": 64,
      "hit": false,
      "t": 158957.88825000086,
      "d": 69.44425000000047,
      "v": 127
    },
    {
      "midi": 66,
      "hit": false,
      "t": 159027.33250000086,
      "d": 69.44425000000047,
      "v": 127
    },
    {
      "midi": 64,
      "hit": false,
      "t": 159096.77675000086,
      "d": 69.44425000000047,
      "v": 127
    },
    {
      "midi": 62,
      "hit": false,
      "t": 159235.66525000086,
      "d": 69.44425000000047,
      "v": 127
    },
    {
      "midi": 67,
      "hit": false,
      "t": 159305.10950000086,
      "d": 138.88850000000093,
      "v": 127
    },
    {
      "midi": 71,
      "hit": false,
      "t": 159305.1095000009,
      "d": 69.44425000000047,
      "v": 127
    },
    {
      "midi": 67,
      "hit": false,
      "t": 159374.5537500009,
      "d": 69.44425000000047,
      "v": 127
    },
    {
      "midi": 69,
      "hit": false,
      "t": 159513.4422500009,
      "d": 69.44425000000047,
      "v": 127
    },
    {
      "midi": 71,
      "hit": false,
      "t": 159582.8865000009,
      "d": 69.44425000000047,
      "v": 127
    },
    {
      "midi": 69,
      "hit": false,
      "t": 159652.3307500009,
      "d": 69.44425000000047,
      "v": 127
    },
    {
      "midi": 67,
      "hit": false,
      "t": 159791.2192500009,
      "d": 69.44425000000047,
      "v": 127
    },
    {
      "midi": 72,
      "hit": false,
      "t": 159860.6635000009,
      "d": 138.88850000000093,
      "v": 127
    },
    {
      "midi": 62,
      "hit": false,
      "t": 159930.10775000087,
      "d": 69.44425000000047,
      "v": 127
    },
    {
      "midi": 64,
      "hit": false,
      "t": 160068.99625000087,
      "d": 69.44425000000047,
      "v": 127
    },
    {
      "midi": 66,
      "hit": false,
      "t": 160138.44050000087,
      "d": 69.44425000000047,
      "v": 127
    },
    {
      "midi": 64,
      "hit": false,
      "t": 160207.88475000087,
      "d": 69.44425000000047,
      "v": 127
    },
    {
      "midi": 62,
      "hit": false,
      "t": 160346.77325000087,
      "d": 69.44425000000047,
      "v": 127
    },
    {
      "midi": 67,
      "hit": false,
      "t": 160416.21750000087,
      "d": 138.88850000000093,
      "v": 127
    },
    {
      "midi": 71,
      "hit": false,
      "t": 160416.2175000009,
      "d": 69.44425000000047,
      "v": 127
    },
    {
      "midi": 67,
      "hit": false,
      "t": 160485.6617500009,
      "d": 69.44425000000047,
      "v": 127
    },
    {
      "midi": 69,
      "hit": false,
      "t": 160624.5502500009,
      "d": 69.44425000000047,
      "v": 127
    },
    {
      "midi": 71,
      "hit": false,
      "t": 160693.9945000009,
      "d": 69.44425000000047,
      "v": 127
    },
    {
      "midi": 69,
      "hit": false,
      "t": 160763.4387500009,
      "d": 69.44425000000047,
      "v": 127
    },
    {
      "midi": 67,
      "hit": false,
      "t": 160902.3272500009,
      "d": 69.44425000000047,
      "v": 127
    },
    {
      "midi": 67,
      "hit": false,
      "t": 160971.77150000088,
      "d": 138.88850000000093,
      "v": 127
    },
    {
      "midi": 74,
      "hit": false,
      "t": 160971.7715000009,
      "d": 69.44425000000047,
      "v": 127
    },
    {
      "midi": 71,
      "hit": false,
      "t": 161041.2157500009,
      "d": 69.44425000000047,
      "v": 127
    },
    {
      "midi": 72,
      "hit": false,
      "t": 161180.1042500009,
      "d": 69.44425000000047,
      "v": 127
    },
    {
      "midi": 74,
      "hit": false,
      "t": 161249.5485000009,
      "d": 69.44425000000047,
      "v": 127
    },
    {
      "midi": 72,
      "hit": false,
      "t": 161318.9927500009,
      "d": 69.44425000000047,
      "v": 127
    },
    {
      "midi": 71,
      "hit": false,
      "t": 161457.8812500009,
      "d": 69.44425000000047,
      "v": 127
    },
    {
      "midi": 55,
      "hit": false,
      "t": 161527.32550000088,
      "d": 277.77700000000186,
      "v": 127
    },
    {
      "midi": 59,
      "hit": false,
      "t": 161527.32550000088,
      "d": 277.77700000000186,
      "v": 127
    },
    {
      "midi": 62,
      "hit": false,
      "t": 161527.32550000088,
      "d": 277.77700000000186,
      "v": 127
    },
    {
      "midi": 65,
      "hit": false,
      "t": 161527.32550000088,
      "d": 277.77700000000186,
      "v": 127
    },
    {
      "midi": 77,
      "hit": false,
      "t": 161527.3255000009,
      "d": 69.44425000000047,
      "v": 127
    },
    {
      "midi": 76,
      "hit": false,
      "t": 161596.7697500009,
      "d": 69.44425000000047,
      "v": 127
    },
    {
      "midi": 74,
      "hit": false,
      "t": 161735.6582500009,
      "d": 69.44425000000047,
      "v": 127
    },
    {
      "midi": 72,
      "hit": false,
      "t": 161805.1025000009,
      "d": 69.44425000000047,
      "v": 127
    },
    {
      "midi": 71,
      "hit": false,
      "t": 161874.5467500009,
      "d": 69.44425000000047,
      "v": 127
    },
    {
      "midi": 69,
      "hit": false,
      "t": 162013.4352500009,
      "d": 69.44425000000047,
      "v": 127
    },
    {
      "midi": 67,
      "hit": false,
      "t": 162082.8795000009,
      "d": 69.44425000000047,
      "v": 127
    },
    {
      "midi": 69,
      "hit": false,
      "t": 162152.3237500009,
      "d": 69.44425000000047,
      "v": 127
    },
    {
      "midi": 67,
      "hit": false,
      "t": 162291.2122500009,
      "d": 69.44425000000047,
      "v": 127
    },
    {
      "midi": 65,
      "hit": false,
      "t": 162360.6565000009,
      "d": 69.44425000000047,
      "v": 127
    },
    {
      "midi": 64,
      "hit": false,
      "t": 162430.10075000091,
      "d": 69.44425000000047,
      "v": 127
    },
    {
      "midi": 62,
      "hit": false,
      "t": 162568.98925000092,
      "d": 69.44425000000047,
      "v": 127
    },
    {
      "midi": 48,
      "hit": false,
      "t": 162638.4335000009,
      "d": 277.77700000000186,
      "v": 127
    },
    {
      "midi": 64,
      "hit": false,
      "t": 162638.43350000092,
      "d": 69.44425000000047,
      "v": 127
    },
    {
      "midi": 60,
      "hit": false,
      "t": 162707.87775000092,
      "d": 69.44425000000047,
      "v": 127
    },
    {
      "midi": 62,
      "hit": false,
      "t": 162846.76625000092,
      "d": 69.44425000000047,
      "v": 127
    },
    {
      "midi": 64,
      "hit": false,
      "t": 162916.21050000092,
      "d": 69.44425000000047,
      "v": 127
    },
    {
      "midi": 62,
      "hit": false,
      "t": 162985.65475000092,
      "d": 69.44425000000047,
      "v": 127
    },
    {
      "midi": 60,
      "hit": false,
      "t": 163124.54325000092,
      "d": 69.44425000000047,
      "v": 127
    },
    {
      "midi": 65,
      "hit": false,
      "t": 163193.98750000092,
      "d": 138.88850000000093,
      "v": 127
    },
    {
      "midi": 55,
      "hit": false,
      "t": 163263.4317500009,
      "d": 69.44425000000047,
      "v": 127
    },
    {
      "midi": 57,
      "hit": false,
      "t": 163402.3202500009,
      "d": 69.44425000000047,
      "v": 127
    },
    {
      "midi": 59,
      "hit": false,
      "t": 163471.7645000009,
      "d": 69.44425000000047,
      "v": 127
    },
    {
      "midi": 57,
      "hit": false,
      "t": 163541.2087500009,
      "d": 69.44425000000047,
      "v": 127
    },
    {
      "midi": 55,
      "hit": false,
      "t": 163680.0972500009,
      "d": 69.44425000000047,
      "v": 127
    },
    {
      "midi": 60,
      "hit": false,
      "t": 163749.5415000009,
      "d": 277.77700000000186,
      "v": 127
    },
    {
      "midi": 64,
      "hit": false,
      "t": 163749.54150000092,
      "d": 69.44425000000047,
      "v": 127
    },
    {
      "midi": 72,
      "hit": false,
      "t": 163818.98575000092,
      "d": 69.44425000000047,
      "v": 127
    },
    {
      "midi": 74,
      "hit": false,
      "t": 163957.87425000092,
      "d": 69.44425000000047,
      "v": 127
    },
    {
      "midi": 76,
      "hit": false,
      "t": 164027.31850000093,
      "d": 69.44425000000047,
      "v": 127
    },
    {
      "midi": 74,
      "hit": false,
      "t": 164096.76275000093,
      "d": 69.44425000000047,
      "v": 127
    },
    {
      "midi": 72,
      "hit": false,
      "t": 164235.65125000093,
      "d": 69.44425000000047,
      "v": 127
    },
    {
      "midi": 77,
      "hit": false,
      "t": 164305.09550000093,
      "d": 138.88850000000093,
      "v": 127
    },
    {
      "midi": 55,
      "hit": false,
      "t": 164374.5397500009,
      "d": 69.44425000000047,
      "v": 127
    },
    {
      "midi": 57,
      "hit": false,
      "t": 164513.4282500009,
      "d": 69.44425000000047,
      "v": 127
    },
    {
      "midi": 59,
      "hit": false,
      "t": 164582.8725000009,
      "d": 69.44425000000047,
      "v": 127
    },
    {
      "midi": 57,
      "hit": false,
      "t": 164652.3167500009,
      "d": 69.44425000000047,
      "v": 127
    },
    {
      "midi": 55,
      "hit": false,
      "t": 164791.2052500009,
      "d": 69.44425000000047,
      "v": 127
    },
    {
      "midi": 60,
      "hit": false,
      "t": 164860.6495000009,
      "d": 277.77700000000186,
      "v": 127
    },
    {
      "midi": 76,
      "hit": false,
      "t": 164860.64950000093,
      "d": 69.44425000000047,
      "v": 127
    },
    {
      "midi": 72,
      "hit": false,
      "t": 164930.09375000093,
      "d": 69.44425000000047,
      "v": 127
    },
    {
      "midi": 74,
      "hit": false,
      "t": 165068.98225000093,
      "d": 69.44425000000047,
      "v": 127
    },
    {
      "midi": 76,
      "hit": false,
      "t": 165138.42650000093,
      "d": 69.44425000000047,
      "v": 127
    },
    {
      "midi": 74,
      "hit": false,
      "t": 165207.87075000093,
      "d": 69.44425000000047,
      "v": 127
    },
    {
      "midi": 72,
      "hit": false,
      "t": 165346.75925000093,
      "d": 69.44425000000047,
      "v": 127
    },
    {
      "midi": 60,
      "hit": false,
      "t": 165416.2035000009,
      "d": 138.88850000000093,
      "v": 127
    },
    {
      "midi": 79,
      "hit": false,
      "t": 165416.20350000093,
      "d": 69.44425000000047,
      "v": 127
    },
    {
      "midi": 76,
      "hit": false,
      "t": 165485.64775000094,
      "d": 69.44425000000047,
      "v": 127
    },
    {
      "midi": 77,
      "hit": false,
      "t": 165624.53625000094,
      "d": 69.44425000000047,
      "v": 127
    },
    {
      "midi": 79,
      "hit": false,
      "t": 165693.98050000094,
      "d": 69.44425000000047,
      "v": 127
    },
    {
      "midi": 77,
      "hit": false,
      "t": 165763.42475000094,
      "d": 69.44425000000047,
      "v": 127
    },
    {
      "midi": 76,
      "hit": false,
      "t": 165902.31325000094,
      "d": 69.44425000000047,
      "v": 127
    },
    {
      "midi": 52,
      "hit": false,
      "t": 165971.7575000009,
      "d": 277.77700000000186,
      "v": 127
    },
    {
      "midi": 55,
      "hit": false,
      "t": 165971.7575000009,
      "d": 277.77700000000186,
      "v": 127
    },
    {
      "midi": 58,
      "hit": false,
      "t": 165971.7575000009,
      "d": 277.77700000000186,
      "v": 127
    },
    {
      "midi": 60,
      "hit": false,
      "t": 165971.7575000009,
      "d": 277.77700000000186,
      "v": 127
    },
    {
      "midi": 82,
      "hit": false,
      "t": 165971.75750000094,
      "d": 69.44425000000047,
      "v": 127
    },
    {
      "midi": 81,
      "hit": false,
      "t": 166041.20175000094,
      "d": 69.44425000000047,
      "v": 127
    },
    {
      "midi": 79,
      "hit": false,
      "t": 166180.09025000094,
      "d": 69.44425000000047,
      "v": 127
    },
    {
      "midi": 77,
      "hit": false,
      "t": 166249.53450000094,
      "d": 69.44425000000047,
      "v": 127
    },
    {
      "midi": 76,
      "hit": false,
      "t": 166318.97875000094,
      "d": 69.44425000000047,
      "v": 127
    },
    {
      "midi": 74,
      "hit": false,
      "t": 166457.86725000094,
      "d": 69.44425000000047,
      "v": 127
    },
    {
      "midi": 72,
      "hit": false,
      "t": 166527.31150000094,
      "d": 69.44425000000047,
      "v": 127
    },
    {
      "midi": 71,
      "hit": false,
      "t": 166596.75575000094,
      "d": 69.44425000000047,
      "v": 127
    },
    {
      "midi": 72,
      "hit": false,
      "t": 166735.64425000094,
      "d": 69.44425000000047,
      "v": 127
    },
    {
      "midi": 73,
      "hit": false,
      "t": 166805.08850000094,
      "d": 69.44425000000047,
      "v": 127
    },
    {
      "midi": 74,
      "hit": false,
      "t": 166874.53275000094,
      "d": 69.44425000000047,
      "v": 127
    },
    {
      "midi": 70,
      "hit": false,
      "t": 167013.42125000095,
      "d": 69.44425000000047,
      "v": 127
    },
    {
      "midi": 41,
      "hit": false,
      "t": 167082.86550000092,
      "d": 69.44425000000047,
      "v": 127
    },
    {
      "midi": 45,
      "hit": false,
      "t": 167152.30975000092,
      "d": 69.44425000000047,
      "v": 127
    },
    {
      "midi": 48,
      "hit": false,
      "t": 167291.19825000092,
      "d": 69.44425000000047,
      "v": 127
    },
    {
      "midi": 53,
      "hit": false,
      "t": 167360.64250000092,
      "d": 277.77700000000186,
      "v": 127
    },
    {
      "midi": 57,
      "hit": false,
      "t": 167360.64250000095,
      "d": 69.44425000000047,
      "v": 127
    },
    {
      "midi": 60,
      "hit": false,
      "t": 167430.08675000095,
      "d": 69.44425000000047,
      "v": 127
    },
    {
      "midi": 65,
      "hit": false,
      "t": 167568.97525000095,
      "d": 69.44425000000047,
      "v": 127
    },
    {
      "midi": 69,
      "hit": false,
      "t": 167638.41950000095,
      "d": 69.44425000000047,
      "v": 127
    },
    {
      "midi": 72,
      "hit": false,
      "t": 167707.86375000095,
      "d": 69.44425000000047,
      "v": 127
    },
    {
      "midi": 77,
      "hit": false,
      "t": 167846.75225000095,
      "d": 69.44425000000047,
      "v": 127
    },
    {
      "midi": 81,
      "hit": false,
      "t": 167916.19650000095,
      "d": 138.88850000000093,
      "v": 127
    },
    {
      "midi": 81,
      "hit": false,
      "t": 168055.08500000095,
      "d": 138.88850000000093,
      "v": 127
    },
    {
      "midi": 55,
      "hit": false,
      "t": 168193.97350000092,
      "d": 277.77700000000186,
      "v": 127
    },
    {
      "midi": 60,
      "hit": false,
      "t": 168193.97350000092,
      "d": 277.77700000000186,
      "v": 127
    },
    {
      "midi": 64,
      "hit": false,
      "t": 168193.97350000092,
      "d": 277.77700000000186,
      "v": 127
    },
    {
      "midi": 81,
      "hit": false,
      "t": 168193.97350000095,
      "d": 138.88850000000093,
      "v": 127
    },
    {
      "midi": 79,
      "hit": false,
      "t": 168332.86200000095,
      "d": 138.88850000000093,
      "v": 127
    },
    {
      "midi": 77,
      "hit": false,
      "t": 168471.75050000096,
      "d": 138.88850000000093,
      "v": 127
    },
    {
      "midi": 76,
      "hit": false,
      "t": 168610.63900000096,
      "d": 138.88850000000093,
      "v": 127
    },
    {
      "midi": 55,
      "hit": false,
      "t": 168749.52750000093,
      "d": 138.88850000000093,
      "v": 127
    },
    {
      "midi": 62,
      "hit": false,
      "t": 168749.52750000093,
      "d": 138.88850000000093,
      "v": 127
    },
    {
      "midi": 65,
      "hit": false,
      "t": 168749.52750000093,
      "d": 138.88850000000093,
      "v": 127
    },
    {
      "midi": 76,
      "hit": false,
      "t": 168749.52750000096,
      "d": 138.88850000000093,
      "v": 127
    },
    {
      "midi": 74,
      "hit": false,
      "t": 168888.41600000096,
      "d": 138.88850000000093,
      "v": 127
    },
    {
      "midi": 72,
      "hit": false,
      "t": 169027.30450000096,
      "d": 138.88850000000093,
      "v": 127
    },
    {
      "midi": 71,
      "hit": false,
      "t": 169166.19300000096,
      "d": 138.88850000000093,
      "v": 127
    },
    {
      "midi": 60,
      "hit": false,
      "t": 169305.08150000093,
      "d": 277.77700000000186,
      "v": 127
    },
    {
      "midi": 64,
      "hit": false,
      "t": 169305.08150000093,
      "d": 277.77700000000186,
      "v": 127
    },
    {
      "midi": 72,
      "hit": false,
      "t": 169305.08150000096,
      "d": 277.77700000000186,
      "v": 127
    },
    {
      "midi": 67,
      "hit": false,
      "t": 170138.41250000097,
      "d": 277.77700000000186,
      "v": 127
    },
    {
      "midi": 65,
      "hit": false,
      "t": 170416.18950000094,
      "d": 277.77700000000186,
      "v": 127
    },
    {
      "midi": 67,
      "hit": false,
      "t": 170416.18950000094,
      "d": 277.77700000000186,
      "v": 127
    },
    {
      "midi": 71,
      "hit": false,
      "t": 170416.18950000097,
      "d": 277.77700000000186,
      "v": 127
    },
    {
      "midi": 74,
      "hit": false,
      "t": 170416.18950000097,
      "d": 277.77700000000186,
      "v": 127
    },
    {
      "midi": 65,
      "hit": false,
      "t": 170693.96650000094,
      "d": 277.77700000000186,
      "v": 127
    },
    {
      "midi": 67,
      "hit": false,
      "t": 170693.96650000094,
      "d": 277.77700000000186,
      "v": 127
    },
    {
      "midi": 71,
      "hit": false,
      "t": 170693.96650000097,
      "d": 277.77700000000186,
      "v": 127
    },
    {
      "midi": 74,
      "hit": false,
      "t": 170693.96650000097,
      "d": 277.77700000000186,
      "v": 127
    },
    {
      "midi": 65,
      "hit": false,
      "t": 170971.74350000094,
      "d": 138.88850000000093,
      "v": 127
    },
    {
      "midi": 67,
      "hit": false,
      "t": 170971.74350000094,
      "d": 138.88850000000093,
      "v": 127
    },
    {
      "midi": 71,
      "hit": false,
      "t": 170971.74350000097,
      "d": 138.88850000000093,
      "v": 127
    },
    {
      "midi": 74,
      "hit": false,
      "t": 170971.74350000097,
      "d": 138.88850000000093,
      "v": 127
    },
    {
      "midi": 65,
      "hit": false,
      "t": 171249.52050000094,
      "d": 277.77700000000186,
      "v": 127
    },
    {
      "midi": 67,
      "hit": false,
      "t": 171249.52050000094,
      "d": 277.77700000000186,
      "v": 127
    },
    {
      "midi": 71,
      "hit": false,
      "t": 171249.52050000097,
      "d": 277.77700000000186,
      "v": 127
    },
    {
      "midi": 74,
      "hit": false,
      "t": 171249.52050000097,
      "d": 277.77700000000186,
      "v": 127
    },
    {
      "midi": 64,
      "hit": false,
      "t": 171527.29750000095,
      "d": 694.4425000000047,
      "v": 127
    },
    {
      "midi": 67,
      "hit": false,
      "t": 171527.29750000095,
      "d": 694.4425000000047,
      "v": 127
    },
    {
      "midi": 72,
      "hit": false,
      "t": 171527.29750000098,
      "d": 694.4425000000047,
      "v": 127
    },
    {
      "midi": 79,
      "hit": false,
      "t": 171527.29750000098,
      "d": 694.4425000000047,
      "v": 127
    },
    {
      "midi": 64,
      "hit": false,
      "t": 172360.62850000095,
      "d": 277.77700000000186,
      "v": 127
    },
    {
      "midi": 72,
      "hit": false,
      "t": 172360.62850000098,
      "d": 277.77700000000186,
      "v": 127
    },
    {
      "midi": 79,
      "hit": false,
      "t": 172360.62850000098,
      "d": 277.77700000000186,
      "v": 127
    },
    {
      "midi": 69,
      "hit": false,
      "t": 172638.40550000095,
      "d": 555.5540000000037,
      "v": 127
    },
    {
      "midi": 72,
      "hit": false,
      "t": 172638.40550000098,
      "d": 555.5540000000037,
      "v": 127
    },
    {
      "midi": 75,
      "hit": false,
      "t": 172638.40550000098,
      "d": 555.5540000000037,
      "v": 127
    },
    {
      "midi": 78,
      "hit": false,
      "t": 172638.40550000098,
      "d": 555.5540000000037,
      "v": 127
    },
    {
      "midi": 69,
      "hit": false,
      "t": 173193.95950000096,
      "d": 138.88850000000093,
      "v": 127
    },
    {
      "midi": 72,
      "hit": false,
      "t": 173193.959500001,
      "d": 138.88850000000093,
      "v": 127
    },
    {
      "midi": 74,
      "hit": false,
      "t": 173193.959500001,
      "d": 138.88850000000093,
      "v": 127
    },
    {
      "midi": 78,
      "hit": false,
      "t": 173193.959500001,
      "d": 138.88850000000093,
      "v": 127
    },
    {
      "midi": 67,
      "hit": false,
      "t": 173749.51350000096,
      "d": 277.77700000000186,
      "v": 127
    },
    {
      "midi": 71,
      "hit": false,
      "t": 173749.513500001,
      "d": 277.77700000000186,
      "v": 127
    },
    {
      "midi": 74,
      "hit": false,
      "t": 173749.513500001,
      "d": 277.77700000000186,
      "v": 127
    },
    {
      "midi": 79,
      "hit": false,
      "t": 173749.513500001,
      "d": 277.77700000000186,
      "v": 127
    },
    {
      "midi": 55,
      "hit": false,
      "t": 174582.844500001,
      "d": 277.77700000000186,
      "v": 127
    },
    {
      "midi": 53,
      "hit": false,
      "t": 174860.62150000097,
      "d": 277.77700000000186,
      "v": 127
    },
    {
      "midi": 55,
      "hit": false,
      "t": 174860.62150000097,
      "d": 277.77700000000186,
      "v": 127
    },
    {
      "midi": 59,
      "hit": false,
      "t": 174860.621500001,
      "d": 277.77700000000186,
      "v": 127
    },
    {
      "midi": 62,
      "hit": false,
      "t": 174860.621500001,
      "d": 277.77700000000186,
      "v": 127
    },
    {
      "midi": 53,
      "hit": false,
      "t": 175138.39850000097,
      "d": 277.77700000000186,
      "v": 127
    },
    {
      "midi": 55,
      "hit": false,
      "t": 175138.39850000097,
      "d": 277.77700000000186,
      "v": 127
    },
    {
      "midi": 59,
      "hit": false,
      "t": 175138.398500001,
      "d": 277.77700000000186,
      "v": 127
    },
    {
      "midi": 62,
      "hit": false,
      "t": 175138.398500001,
      "d": 277.77700000000186,
      "v": 127
    },
    {
      "midi": 53,
      "hit": false,
      "t": 175416.17550000097,
      "d": 138.88850000000093,
      "v": 127
    },
    {
      "midi": 55,
      "hit": false,
      "t": 175416.17550000097,
      "d": 138.88850000000093,
      "v": 127
    },
    {
      "midi": 59,
      "hit": false,
      "t": 175416.175500001,
      "d": 138.88850000000093,
      "v": 127
    },
    {
      "midi": 62,
      "hit": false,
      "t": 175416.175500001,
      "d": 138.88850000000093,
      "v": 127
    },
    {
      "midi": 53,
      "hit": false,
      "t": 175693.95250000097,
      "d": 277.77700000000186,
      "v": 127
    },
    {
      "midi": 55,
      "hit": false,
      "t": 175693.95250000097,
      "d": 277.77700000000186,
      "v": 127
    },
    {
      "midi": 59,
      "hit": false,
      "t": 175693.952500001,
      "d": 277.77700000000186,
      "v": 127
    },
    {
      "midi": 62,
      "hit": false,
      "t": 175693.952500001,
      "d": 277.77700000000186,
      "v": 127
    },
    {
      "midi": 51,
      "hit": false,
      "t": 175971.72950000098,
      "d": 694.4425000000047,
      "v": 127
    },
    {
      "midi": 55,
      "hit": false,
      "t": 175971.72950000098,
      "d": 694.4425000000047,
      "v": 127
    },
    {
      "midi": 67,
      "hit": false,
      "t": 175971.729500001,
      "d": 277.77700000000186,
      "v": 127
    },
    {
      "midi": 59,
      "hit": false,
      "t": 176249.506500001,
      "d": 277.77700000000186,
      "v": 127
    },
    {
      "midi": 60,
      "hit": false,
      "t": 176527.283500001,
      "d": 138.88850000000093,
      "v": 127
    },
    {
      "midi": 51,
      "hit": false,
      "t": 176805.06050000098,
      "d": 277.77700000000186,
      "v": 127
    },
    {
      "midi": 67,
      "hit": false,
      "t": 176805.060500001,
      "d": 277.77700000000186,
      "v": 127
    },
    {
      "midi": 56,
      "hit": false,
      "t": 177082.83750000098,
      "d": 277.77700000000186,
      "v": 127
    },
    {
      "midi": 65,
      "hit": false,
      "t": 177082.837500001,
      "d": 277.77700000000186,
      "v": 127
    },
    {
      "midi": 56,
      "hit": false,
      "t": 177360.614500001,
      "d": 277.77700000000186,
      "v": 127
    },
    {
      "midi": 60,
      "hit": false,
      "t": 177360.61450000101,
      "d": 277.77700000000186,
      "v": 127
    },
    {
      "midi": 65,
      "hit": false,
      "t": 177360.61450000101,
      "d": 277.77700000000186,
      "v": 127
    },
    {
      "midi": 56,
      "hit": false,
      "t": 177638.391500001,
      "d": 138.88850000000093,
      "v": 127
    },
    {
      "midi": 58,
      "hit": false,
      "t": 177638.391500001,
      "d": 138.88850000000093,
      "v": 127
    },
    {
      "midi": 62,
      "hit": false,
      "t": 177638.39150000102,
      "d": 138.88850000000093,
      "v": 127
    },
    {
      "midi": 65,
      "hit": false,
      "t": 177638.39150000102,
      "d": 138.88850000000093,
      "v": 127
    },
    {
      "midi": 56,
      "hit": false,
      "t": 177916.168500001,
      "d": 277.77700000000186,
      "v": 127
    },
    {
      "midi": 58,
      "hit": false,
      "t": 177916.168500001,
      "d": 277.77700000000186,
      "v": 127
    },
    {
      "midi": 65,
      "hit": false,
      "t": 177916.16850000102,
      "d": 277.77700000000186,
      "v": 127
    },
    {
      "midi": 55,
      "hit": false,
      "t": 178193.945500001,
      "d": 694.4425000000047,
      "v": 127
    },
    {
      "midi": 58,
      "hit": false,
      "t": 178193.945500001,
      "d": 694.4425000000047,
      "v": 127
    },
    {
      "midi": 70,
      "hit": false,
      "t": 178193.94550000102,
      "d": 277.77700000000186,
      "v": 127
    },
    {
      "midi": 62,
      "hit": false,
      "t": 178471.72250000102,
      "d": 277.77700000000186,
      "v": 127
    },
    {
      "midi": 63,
      "hit": false,
      "t": 178749.49950000102,
      "d": 138.88850000000093,
      "v": 127
    },
    {
      "midi": 55,
      "hit": false,
      "t": 179027.276500001,
      "d": 277.77700000000186,
      "v": 127
    },
    {
      "midi": 70,
      "hit": false,
      "t": 179027.27650000103,
      "d": 277.77700000000186,
      "v": 127
    },
    {
      "midi": 60,
      "hit": false,
      "t": 179305.053500001,
      "d": 277.77700000000186,
      "v": 127
    },
    {
      "midi": 69,
      "hit": false,
      "t": 179305.05350000103,
      "d": 277.77700000000186,
      "v": 127
    },
    {
      "midi": 60,
      "hit": false,
      "t": 179582.830500001,
      "d": 277.77700000000186,
      "v": 127
    },
    {
      "midi": 63,
      "hit": false,
      "t": 179582.830500001,
      "d": 277.77700000000186,
      "v": 127
    },
    {
      "midi": 66,
      "hit": false,
      "t": 179582.83050000103,
      "d": 277.77700000000186,
      "v": 127
    },
    {
      "midi": 69,
      "hit": false,
      "t": 179582.83050000103,
      "d": 277.77700000000186,
      "v": 127
    },
    {
      "midi": 60,
      "hit": false,
      "t": 179860.607500001,
      "d": 138.88850000000093,
      "v": 127
    },
    {
      "midi": 63,
      "hit": false,
      "t": 179860.607500001,
      "d": 138.88850000000093,
      "v": 127
    },
    {
      "midi": 66,
      "hit": false,
      "t": 179860.60750000103,
      "d": 138.88850000000093,
      "v": 127
    },
    {
      "midi": 69,
      "hit": false,
      "t": 179860.60750000103,
      "d": 138.88850000000093,
      "v": 127
    },
    {
      "midi": 60,
      "hit": false,
      "t": 180138.384500001,
      "d": 277.77700000000186,
      "v": 127
    },
    {
      "midi": 63,
      "hit": false,
      "t": 180138.384500001,
      "d": 277.77700000000186,
      "v": 127
    },
    {
      "midi": 69,
      "hit": false,
      "t": 180138.38450000103,
      "d": 277.77700000000186,
      "v": 127
    },
    {
      "midi": 59,
      "hit": false,
      "t": 180416.161500001,
      "d": 694.4425000000047,
      "v": 127
    },
    {
      "midi": 62,
      "hit": false,
      "t": 180416.161500001,
      "d": 694.4425000000047,
      "v": 127
    },
    {
      "midi": 74,
      "hit": false,
      "t": 180416.16150000104,
      "d": 277.77700000000186,
      "v": 127
    },
    {
      "midi": 66,
      "hit": false,
      "t": 180693.93850000104,
      "d": 277.77700000000186,
      "v": 127
    },
    {
      "midi": 67,
      "hit": false,
      "t": 180971.71550000104,
      "d": 138.88850000000093,
      "v": 127
    },
    {
      "midi": 60,
      "hit": false,
      "t": 181249.492500001,
      "d": 277.77700000000186,
      "v": 127
    },
    {
      "midi": 63,
      "hit": false,
      "t": 181249.492500001,
      "d": 277.77700000000186,
      "v": 127
    },
    {
      "midi": 69,
      "hit": false,
      "t": 181249.49250000104,
      "d": 277.77700000000186,
      "v": 127
    },
    {
      "midi": 59,
      "hit": false,
      "t": 181527.269500001,
      "d": 694.4425000000047,
      "v": 127
    },
    {
      "midi": 62,
      "hit": false,
      "t": 181527.269500001,
      "d": 694.4425000000047,
      "v": 127
    },
    {
      "midi": 74,
      "hit": false,
      "t": 181527.26950000104,
      "d": 277.77700000000186,
      "v": 127
    },
    {
      "midi": 66,
      "hit": false,
      "t": 181805.04650000104,
      "d": 277.77700000000186,
      "v": 127
    },
    {
      "midi": 67,
      "hit": false,
      "t": 182082.82350000105,
      "d": 138.88850000000093,
      "v": 127
    },
    {
      "midi": 65,
      "hit": false,
      "t": 182360.60050000102,
      "d": 277.77700000000186,
      "v": 127
    },
    {
      "midi": 68,
      "hit": false,
      "t": 182360.60050000102,
      "d": 277.77700000000186,
      "v": 127
    },
    {
      "midi": 74,
      "hit": false,
      "t": 182360.60050000105,
      "d": 277.77700000000186,
      "v": 127
    },
    {
      "midi": 63,
      "hit": false,
      "t": 182638.37750000102,
      "d": 694.4425000000047,
      "v": 127
    },
    {
      "midi": 67,
      "hit": false,
      "t": 182638.37750000102,
      "d": 694.4425000000047,
      "v": 127
    },
    {
      "midi": 79,
      "hit": false,
      "t": 182638.37750000105,
      "d": 277.77700000000186,
      "v": 127
    },
    {
      "midi": 71,
      "hit": false,
      "t": 182916.15450000105,
      "d": 277.77700000000186,
      "v": 127
    },
    {
      "midi": 72,
      "hit": false,
      "t": 183193.93150000105,
      "d": 138.88850000000093,
      "v": 127
    },
    {
      "midi": 65,
      "hit": false,
      "t": 183471.70850000103,
      "d": 277.77700000000186,
      "v": 127
    },
    {
      "midi": 68,
      "hit": false,
      "t": 183471.70850000103,
      "d": 277.77700000000186,
      "v": 127
    },
    {
      "midi": 74,
      "hit": false,
      "t": 183471.70850000106,
      "d": 277.77700000000186,
      "v": 127
    },
    {
      "midi": 63,
      "hit": false,
      "t": 183749.48550000103,
      "d": 694.4425000000047,
      "v": 127
    },
    {
      "midi": 67,
      "hit": false,
      "t": 183749.48550000103,
      "d": 694.4425000000047,
      "v": 127
    },
    {
      "midi": 79,
      "hit": false,
      "t": 183749.48550000106,
      "d": 277.77700000000186,
      "v": 127
    },
    {
      "midi": 71,
      "hit": false,
      "t": 184027.26250000106,
      "d": 277.77700000000186,
      "v": 127
    },
    {
      "midi": 72,
      "hit": false,
      "t": 184305.03950000106,
      "d": 138.88850000000093,
      "v": 127
    },
    {
      "midi": 65,
      "hit": false,
      "t": 184582.81650000103,
      "d": 277.77700000000186,
      "v": 127
    },
    {
      "midi": 68,
      "hit": false,
      "t": 184582.81650000103,
      "d": 277.77700000000186,
      "v": 127
    },
    {
      "midi": 74,
      "hit": false,
      "t": 184582.81650000106,
      "d": 277.77700000000186,
      "v": 127
    },
    {
      "midi": 80,
      "hit": false,
      "t": 184860.59350000106,
      "d": 277.77700000000186,
      "v": 127
    },
    {
      "midi": 70,
      "hit": false,
      "t": 185138.37050000107,
      "d": 277.77700000000186,
      "v": 127
    },
    {
      "midi": 71,
      "hit": false,
      "t": 185416.14750000107,
      "d": 138.88850000000093,
      "v": 127
    },
    {
      "midi": 74,
      "hit": false,
      "t": 185693.92450000107,
      "d": 277.77700000000186,
      "v": 127
    },
    {
      "midi": 79,
      "hit": false,
      "t": 185971.70150000107,
      "d": 277.77700000000186,
      "v": 127
    },
    {
      "midi": 70,
      "hit": false,
      "t": 186249.47850000107,
      "d": 277.77700000000186,
      "v": 127
    },
    {
      "midi": 71,
      "hit": false,
      "t": 186527.25550000108,
      "d": 138.88850000000093,
      "v": 127
    },
    {
      "midi": 74,
      "hit": false,
      "t": 186805.03250000108,
      "d": 277.77700000000186,
      "v": 127
    },
    {
      "midi": 78,
      "hit": false,
      "t": 187082.80950000108,
      "d": 277.77700000000186,
      "v": 127
    },
    {
      "midi": 70,
      "hit": false,
      "t": 187360.58650000108,
      "d": 277.77700000000186,
      "v": 127
    },
    {
      "midi": 71,
      "hit": false,
      "t": 187638.36350000108,
      "d": 138.88850000000093,
      "v": 127
    },
    {
      "midi": 74,
      "hit": false,
      "t": 187916.1405000011,
      "d": 277.77700000000186,
      "v": 127
    },
    {
      "midi": 77,
      "hit": false,
      "t": 188193.9175000011,
      "d": 277.77700000000186,
      "v": 127
    },
    {
      "midi": 70,
      "hit": false,
      "t": 188471.6945000011,
      "d": 277.77700000000186,
      "v": 127
    },
    {
      "midi": 71,
      "hit": false,
      "t": 188749.4715000011,
      "d": 138.88850000000093,
      "v": 127
    },
    {
      "midi": 43,
      "hit": false,
      "t": 189027.24850000103,
      "d": 277.77700000000186,
      "v": 127
    },
    {
      "midi": 48,
      "hit": false,
      "t": 189305.02550000104,
      "d": 138.88850000000093,
      "v": 127
    },
    {
      "midi": 67,
      "hit": false,
      "t": 189305.0255000011,
      "d": 416.6655000000028,
      "v": 127
    },
    {
      "midi": 72,
      "hit": false,
      "t": 189305.0255000011,
      "d": 416.6655000000028,
      "v": 127
    },
    {
      "midi": 75,
      "hit": false,
      "t": 189305.0255000011,
      "d": 416.6655000000028,
      "v": 127
    },
    {
      "midi": 51,
      "hit": false,
      "t": 189443.91400000104,
      "d": 138.88850000000093,
      "v": 127
    },
    {
      "midi": 55,
      "hit": false,
      "t": 189582.80250000104,
      "d": 138.88850000000093,
      "v": 127
    },
    {
      "midi": 60,
      "hit": false,
      "t": 189721.69100000104,
      "d": 138.88850000000093,
      "v": 127
    },
    {
      "midi": 77,
      "hit": false,
      "t": 189721.6910000011,
      "d": 138.88850000000093,
      "v": 127
    },
    {
      "midi": 48,
      "hit": false,
      "t": 189860.57950000104,
      "d": 138.88850000000093,
      "v": 127
    },
    {
      "midi": 74,
      "hit": false,
      "t": 189860.5795000011,
      "d": 138.88850000000093,
      "v": 127
    },
    {
      "midi": 53,
      "hit": false,
      "t": 189999.46800000104,
      "d": 138.88850000000093,
      "v": 127
    },
    {
      "midi": 55,
      "hit": false,
      "t": 190138.35650000104,
      "d": 138.88850000000093,
      "v": 127
    },
    {
      "midi": 59,
      "hit": false,
      "t": 190277.24500000104,
      "d": 138.88850000000093,
      "v": 127
    },
    {
      "midi": 75,
      "hit": false,
      "t": 190277.2450000011,
      "d": 138.88850000000093,
      "v": 127
    },
    {
      "midi": 48,
      "hit": false,
      "t": 190416.13350000104,
      "d": 138.88850000000093,
      "v": 127
    },
    {
      "midi": 72,
      "hit": false,
      "t": 190416.1335000011,
      "d": 416.6655000000028,
      "v": 127
    },
    {
      "midi": 51,
      "hit": false,
      "t": 190555.02200000104,
      "d": 138.88850000000093,
      "v": 127
    },
    {
      "midi": 55,
      "hit": false,
      "t": 190693.91050000105,
      "d": 138.88850000000093,
      "v": 127
    },
    {
      "midi": 60,
      "hit": false,
      "t": 190832.79900000105,
      "d": 138.88850000000093,
      "v": 127
    },
    {
      "midi": 74,
      "hit": false,
      "t": 190902.2432500011,
      "d": 69.44425000000047,
      "v": 127
    },
    {
      "midi": 63,
      "hit": false,
      "t": 190971.68750000105,
      "d": 138.88850000000093,
      "v": 127
    },
    {
      "midi": 72,
      "hit": false,
      "t": 190971.6875000011,
      "d": 138.88850000000093,
      "v": 127
    },
    {
      "midi": 67,
      "hit": false,
      "t": 191110.57600000105,
      "d": 138.88850000000093,
      "v": 127
    },
    {
      "midi": 71,
      "hit": false,
      "t": 191110.5760000011,
      "d": 138.88850000000093,
      "v": 127
    },
    {
      "midi": 63,
      "hit": false,
      "t": 191249.46450000105,
      "d": 138.88850000000093,
      "v": 127
    },
    {
      "midi": 72,
      "hit": false,
      "t": 191249.4645000011,
      "d": 138.88850000000093,
      "v": 127
    },
    {
      "midi": 62,
      "hit": false,
      "t": 191388.35300000105,
      "d": 138.88850000000093,
      "v": 127
    },
    {
      "midi": 74,
      "hit": false,
      "t": 191388.3530000011,
      "d": 69.44425000000047,
      "v": 127
    },
    {
      "midi": 77,
      "hit": false,
      "t": 191457.7972500011,
      "d": 69.44425000000047,
      "v": 127
    },
    {
      "midi": 60,
      "hit": false,
      "t": 191527.24150000105,
      "d": 138.88850000000093,
      "v": 127
    },
    {
      "midi": 75,
      "hit": false,
      "t": 191527.2415000011,
      "d": 138.88850000000093,
      "v": 127
    },
    {
      "midi": 67,
      "hit": false,
      "t": 191666.13000000105,
      "d": 138.88850000000093,
      "v": 127
    },
    {
      "midi": 74,
      "hit": false,
      "t": 191666.1300000011,
      "d": 138.88850000000093,
      "v": 127
    },
    {
      "midi": 60,
      "hit": false,
      "t": 191805.01850000105,
      "d": 138.88850000000093,
      "v": 127
    },
    {
      "midi": 63,
      "hit": false,
      "t": 191805.01850000105,
      "d": 138.88850000000093,
      "v": 127
    },
    {
      "midi": 75,
      "hit": false,
      "t": 191805.0185000011,
      "d": 138.88850000000093,
      "v": 127
    },
    {
      "midi": 67,
      "hit": false,
      "t": 191943.90700000105,
      "d": 138.88850000000093,
      "v": 127
    },
    {
      "midi": 77,
      "hit": false,
      "t": 191943.9070000011,
      "d": 138.88850000000093,
      "v": 127
    },
    {
      "midi": 59,
      "hit": false,
      "t": 192082.79550000106,
      "d": 138.88850000000093,
      "v": 127
    },
    {
      "midi": 62,
      "hit": false,
      "t": 192082.79550000106,
      "d": 138.88850000000093,
      "v": 127
    },
    {
      "midi": 79,
      "hit": false,
      "t": 192082.7955000011,
      "d": 138.88850000000093,
      "v": 127
    },
    {
      "midi": 67,
      "hit": false,
      "t": 192221.68400000106,
      "d": 138.88850000000093,
      "v": 127
    },
    {
      "midi": 56,
      "hit": false,
      "t": 192360.57250000106,
      "d": 138.88850000000093,
      "v": 127
    },
    {
      "midi": 60,
      "hit": false,
      "t": 192360.57250000106,
      "d": 138.88850000000093,
      "v": 127
    },
    {
      "midi": 79,
      "hit": false,
      "t": 192360.57250000112,
      "d": 277.77700000000186,
      "v": 127
    },
    {
      "midi": 67,
      "hit": false,
      "t": 192499.46100000106,
      "d": 138.88850000000093,
      "v": 127
    },
    {
      "midi": 55,
      "hit": false,
      "t": 192638.34950000106,
      "d": 138.88850000000093,
      "v": 127
    },
    {
      "midi": 79,
      "hit": false,
      "t": 192638.34950000112,
      "d": 694.4425000000047,
      "v": 127
    },
    {
      "midi": 59,
      "hit": false,
      "t": 192777.23800000106,
      "d": 138.88850000000093,
      "v": 127
    },
    {
      "midi": 62,
      "hit": false,
      "t": 192916.12650000106,
      "d": 138.88850000000093,
      "v": 127
    },
    {
      "midi": 67,
      "hit": false,
      "t": 193055.01500000106,
      "d": 138.88850000000093,
      "v": 127
    },
    {
      "midi": 55,
      "hit": false,
      "t": 193193.90350000106,
      "d": 138.88850000000093,
      "v": 127
    },
    {
      "midi": 59,
      "hit": false,
      "t": 193332.79200000106,
      "d": 138.88850000000093,
      "v": 127
    },
    {
      "midi": 62,
      "hit": false,
      "t": 193471.68050000106,
      "d": 138.88850000000093,
      "v": 127
    },
    {
      "midi": 77,
      "hit": false,
      "t": 193471.68050000112,
      "d": 138.88850000000093,
      "v": 127
    },
    {
      "midi": 67,
      "hit": false,
      "t": 193610.56900000107,
      "d": 138.88850000000093,
      "v": 127
    },
    {
      "midi": 79,
      "hit": false,
      "t": 193610.56900000112,
      "d": 69.44425000000047,
      "v": 127
    },
    {
      "midi": 77,
      "hit": false,
      "t": 193680.01325000112,
      "d": 69.44425000000047,
      "v": 127
    },
    {
      "midi": 53,
      "hit": false,
      "t": 193749.45750000107,
      "d": 138.88850000000093,
      "v": 127
    },
    {
      "midi": 80,
      "hit": false,
      "t": 193749.45750000112,
      "d": 555.5540000000037,
      "v": 127
    },
    {
      "midi": 56,
      "hit": false,
      "t": 193888.34600000107,
      "d": 138.88850000000093,
      "v": 127
    },
    {
      "midi": 59,
      "hit": false,
      "t": 194027.23450000107,
      "d": 138.88850000000093,
      "v": 127
    },
    {
      "midi": 62,
      "hit": false,
      "t": 194166.12300000107,
      "d": 138.88850000000093,
      "v": 127
    },
    {
      "midi": 53,
      "hit": false,
      "t": 194305.01150000107,
      "d": 138.88850000000093,
      "v": 127
    },
    {
      "midi": 74,
      "hit": false,
      "t": 194305.01150000113,
      "d": 138.88850000000093,
      "v": 127
    },
    {
      "midi": 56,
      "hit": false,
      "t": 194443.90000000107,
      "d": 138.88850000000093,
      "v": 127
    },
    {
      "midi": 59,
      "hit": false,
      "t": 194582.78850000107,
      "d": 138.88850000000093,
      "v": 127
    },
    {
      "midi": 75,
      "hit": false,
      "t": 194582.78850000113,
      "d": 138.88850000000093,
      "v": 127
    },
    {
      "midi": 62,
      "hit": false,
      "t": 194721.67700000107,
      "d": 138.88850000000093,
      "v": 127
    },
    {
      "midi": 77,
      "hit": false,
      "t": 194721.67700000113,
      "d": 69.44425000000047,
      "v": 127
    },
    {
      "midi": 75,
      "hit": false,
      "t": 194791.12125000113,
      "d": 69.44425000000047,
      "v": 127
    },
    {
      "midi": 51,
      "hit": false,
      "t": 194860.56550000107,
      "d": 138.88850000000093,
      "v": 127
    },
    {
      "midi": 79,
      "hit": false,
      "t": 194860.56550000113,
      "d": 555.5540000000037,
      "v": 127
    },
    {
      "midi": 55,
      "hit": false,
      "t": 194999.45400000107,
      "d": 138.88850000000093,
      "v": 127
    },
    {
      "midi": 60,
      "hit": false,
      "t": 195138.34250000108,
      "d": 138.88850000000093,
      "v": 127
    },
    {
      "midi": 63,
      "hit": false,
      "t": 195277.23100000108,
      "d": 138.88850000000093,
      "v": 127
    },
    {
      "midi": 56,
      "hit": false,
      "t": 195416.11950000108,
      "d": 138.88850000000093,
      "v": 127
    },
    {
      "midi": 72,
      "hit": false,
      "t": 195416.11950000114,
      "d": 138.88850000000093,
      "v": 127
    },
    {
      "midi": 60,
      "hit": false,
      "t": 195555.00800000108,
      "d": 138.88850000000093,
      "v": 127
    },
    {
      "midi": 63,
      "hit": false,
      "t": 195693.89650000108,
      "d": 138.88850000000093,
      "v": 127
    },
    {
      "midi": 72,
      "hit": false,
      "t": 195693.89650000114,
      "d": 138.88850000000093,
      "v": 127
    },
    {
      "midi": 66,
      "hit": false,
      "t": 195832.78500000108,
      "d": 138.88850000000093,
      "v": 127
    },
    {
      "midi": 74,
      "hit": false,
      "t": 195832.78500000114,
      "d": 138.88850000000093,
      "v": 127
    },
    {
      "midi": 55,
      "hit": false,
      "t": 195971.67350000108,
      "d": 138.88850000000093,
      "v": 127
    },
    {
      "midi": 75,
      "hit": false,
      "t": 195971.67350000114,
      "d": 277.77700000000186,
      "v": 127
    },
    {
      "midi": 60,
      "hit": false,
      "t": 196110.56200000108,
      "d": 138.88850000000093,
      "v": 127
    },
    {
      "midi": 63,
      "hit": false,
      "t": 196249.45050000108,
      "d": 138.88850000000093,
      "v": 127
    },
    {
      "midi": 75,
      "hit": false,
      "t": 196249.45050000114,
      "d": 138.88850000000093,
      "v": 127
    },
    {
      "midi": 67,
      "hit": false,
      "t": 196388.33900000108,
      "d": 138.88850000000093,
      "v": 127
    },
    {
      "midi": 77,
      "hit": false,
      "t": 196388.33900000114,
      "d": 138.88850000000093,
      "v": 127
    },
    {
      "midi": 55,
      "hit": false,
      "t": 196527.22750000108,
      "d": 138.88850000000093,
      "v": 127
    },
    {
      "midi": 74,
      "hit": false,
      "t": 196527.22750000114,
      "d": 138.88850000000093,
      "v": 127
    },
    {
      "midi": 59,
      "hit": false,
      "t": 196666.1160000011,
      "d": 138.88850000000093,
      "v": 127
    },
    {
      "midi": 62,
      "hit": false,
      "t": 196805.0045000011,
      "d": 138.88850000000093,
      "v": 127
    },
    {
      "midi": 74,
      "hit": false,
      "t": 196805.00450000115,
      "d": 138.88850000000093,
      "v": 127
    },
    {
      "midi": 67,
      "hit": false,
      "t": 196943.8930000011,
      "d": 138.88850000000093,
      "v": 127
    },
    {
      "midi": 75,
      "hit": false,
      "t": 196943.89300000115,
      "d": 138.88850000000093,
      "v": 127
    },
    {
      "midi": 60,
      "hit": false,
      "t": 197082.7815000011,
      "d": 277.77700000000186,
      "v": 127
    },
    {
      "midi": 72,
      "hit": false,
      "t": 197082.78150000115,
      "d": 138.88850000000093,
      "v": 127
    },
    {
      "midi": 71,
      "hit": false,
      "t": 197221.67000000115,
      "d": 138.88850000000093,
      "v": 127
    },
    {
      "midi": 72,
      "hit": false,
      "t": 197360.55850000115,
      "d": 138.88850000000093,
      "v": 127
    },
    {
      "midi": 74,
      "hit": false,
      "t": 197499.44700000115,
      "d": 138.88850000000093,
      "v": 127
    },
    {
      "midi": 75,
      "hit": false,
      "t": 197638.33550000115,
      "d": 138.88850000000093,
      "v": 127
    },
    {
      "midi": 76,
      "hit": false,
      "t": 197777.22400000115,
      "d": 138.88850000000093,
      "v": 127
    },
    {
      "midi": 77,
      "hit": false,
      "t": 197916.11250000115,
      "d": 138.88850000000093,
      "v": 127
    },
    {
      "midi": 79,
      "hit": false,
      "t": 198055.00100000115,
      "d": 138.88850000000093,
      "v": 127
    },
    {
      "midi": 41,
      "hit": false,
      "t": 198193.8895000011,
      "d": 138.88850000000093,
      "v": 127
    },
    {
      "midi": 80,
      "hit": false,
      "t": 198193.88950000115,
      "d": 138.88850000000093,
      "v": 127
    },
    {
      "midi": 44,
      "hit": false,
      "t": 198332.7780000011,
      "d": 138.88850000000093,
      "v": 127
    },
    {
      "midi": 79,
      "hit": false,
      "t": 198332.77800000116,
      "d": 138.88850000000093,
      "v": 127
    },
    {
      "midi": 47,
      "hit": false,
      "t": 198471.6665000011,
      "d": 138.88850000000093,
      "v": 127
    },
    {
      "midi": 82,
      "hit": false,
      "t": 198471.66650000116,
      "d": 138.88850000000093,
      "v": 127
    },
    {
      "midi": 50,
      "hit": false,
      "t": 198610.5550000011,
      "d": 138.88850000000093,
      "v": 127
    },
    {
      "midi": 80,
      "hit": false,
      "t": 198610.55500000116,
      "d": 138.88850000000093,
      "v": 127
    },
    {
      "midi": 41,
      "hit": false,
      "t": 198749.4435000011,
      "d": 138.88850000000093,
      "v": 127
    },
    {
      "midi": 79,
      "hit": false,
      "t": 198749.44350000116,
      "d": 138.88850000000093,
      "v": 127
    },
    {
      "midi": 44,
      "hit": false,
      "t": 198888.3320000011,
      "d": 138.88850000000093,
      "v": 127
    },
    {
      "midi": 77,
      "hit": false,
      "t": 198888.33200000116,
      "d": 138.88850000000093,
      "v": 127
    },
    {
      "midi": 47,
      "hit": false,
      "t": 199027.2205000011,
      "d": 138.88850000000093,
      "v": 127
    },
    {
      "midi": 75,
      "hit": false,
      "t": 199027.22050000116,
      "d": 138.88850000000093,
      "v": 127
    },
    {
      "midi": 50,
      "hit": false,
      "t": 199166.1090000011,
      "d": 138.88850000000093,
      "v": 127
    },
    {
      "midi": 74,
      "hit": false,
      "t": 199166.10900000116,
      "d": 138.88850000000093,
      "v": 127
    },
    {
      "midi": 39,
      "hit": false,
      "t": 199304.9975000011,
      "d": 138.88850000000093,
      "v": 127
    },
    {
      "midi": 79,
      "hit": false,
      "t": 199304.99750000116,
      "d": 138.88850000000093,
      "v": 127
    },
    {
      "midi": 43,
      "hit": false,
      "t": 199443.8860000011,
      "d": 138.88850000000093,
      "v": 127
    },
    {
      "midi": 78,
      "hit": false,
      "t": 199443.88600000116,
      "d": 138.88850000000093,
      "v": 127
    },
    {
      "midi": 48,
      "hit": false,
      "t": 199582.7745000011,
      "d": 138.88850000000093,
      "v": 127
    },
    {
      "midi": 80,
      "hit": false,
      "t": 199582.77450000116,
      "d": 138.88850000000093,
      "v": 127
    },
    {
      "midi": 51,
      "hit": false,
      "t": 199721.6630000011,
      "d": 138.88850000000093,
      "v": 127
    },
    {
      "midi": 79,
      "hit": false,
      "t": 199721.66300000116,
      "d": 138.88850000000093,
      "v": 127
    },
    {
      "midi": 44,
      "hit": false,
      "t": 199860.5515000011,
      "d": 138.88850000000093,
      "v": 127
    },
    {
      "midi": 77,
      "hit": false,
      "t": 199860.55150000117,
      "d": 138.88850000000093,
      "v": 127
    },
    {
      "midi": 48,
      "hit": false,
      "t": 199999.4400000011,
      "d": 138.88850000000093,
      "v": 127
    },
    {
      "midi": 75,
      "hit": false,
      "t": 199999.44000000117,
      "d": 138.88850000000093,
      "v": 127
    },
    {
      "midi": 51,
      "hit": false,
      "t": 200138.3285000011,
      "d": 138.88850000000093,
      "v": 127
    },
    {
      "midi": 74,
      "hit": false,
      "t": 200138.32850000117,
      "d": 138.88850000000093,
      "v": 127
    },
    {
      "midi": 54,
      "hit": false,
      "t": 200277.2170000011,
      "d": 138.88850000000093,
      "v": 127
    },
    {
      "midi": 72,
      "hit": false,
      "t": 200277.21700000117,
      "d": 138.88850000000093,
      "v": 127
    },
    {
      "midi": 43,
      "hit": false,
      "t": 200416.1055000011,
      "d": 138.88850000000093,
      "v": 127
    },
    {
      "midi": 75,
      "hit": false,
      "t": 200416.10550000117,
      "d": 138.88850000000093,
      "v": 127
    },
    {
      "midi": 48,
      "hit": false,
      "t": 200554.9940000011,
      "d": 138.88850000000093,
      "v": 127
    },
    {
      "midi": 74,
      "hit": false,
      "t": 200554.99400000117,
      "d": 138.88850000000093,
      "v": 127
    },
    {
      "midi": 51,
      "hit": false,
      "t": 200693.8825000011,
      "d": 138.88850000000093,
      "v": 127
    },
    {
      "midi": 77,
      "hit": false,
      "t": 200693.88250000117,
      "d": 138.88850000000093,
      "v": 127
    },
    {
      "midi": 55,
      "hit": false,
      "t": 200832.7710000011,
      "d": 138.88850000000093,
      "v": 127
    },
    {
      "midi": 75,
      "hit": false,
      "t": 200832.77100000117,
      "d": 138.88850000000093,
      "v": 127
    },
    {
      "midi": 43,
      "hit": false,
      "t": 200971.65950000111,
      "d": 138.88850000000093,
      "v": 127
    },
    {
      "midi": 74,
      "hit": false,
      "t": 200971.65950000117,
      "d": 138.88850000000093,
      "v": 127
    },
    {
      "midi": 55,
      "hit": false,
      "t": 201110.54800000112,
      "d": 138.88850000000093,
      "v": 127
    },
    {
      "midi": 73,
      "hit": false,
      "t": 201110.54800000117,
      "d": 138.88850000000093,
      "v": 127
    },
    {
      "midi": 43,
      "hit": false,
      "t": 201249.43650000112,
      "d": 138.88850000000093,
      "v": 127
    },
    {
      "midi": 75,
      "hit": false,
      "t": 201249.43650000117,
      "d": 138.88850000000093,
      "v": 127
    },
    {
      "midi": 55,
      "hit": false,
      "t": 201388.32500000112,
      "d": 138.88850000000093,
      "v": 127
    },
    {
      "midi": 74,
      "hit": false,
      "t": 201388.32500000118,
      "d": 138.88850000000093,
      "v": 127
    },
    {
      "midi": 48,
      "hit": false,
      "t": 201527.21350000112,
      "d": 138.88850000000093,
      "v": 127
    },
    {
      "midi": 72,
      "hit": false,
      "t": 201527.21350000118,
      "d": 277.77700000000186,
      "v": 127
    },
    {
      "midi": 60,
      "hit": false,
      "t": 201666.10200000112,
      "d": 138.88850000000093,
      "v": 127
    },
    {
      "midi": 59,
      "hit": false,
      "t": 201804.99050000112,
      "d": 138.88850000000093,
      "v": 127
    },
    {
      "midi": 60,
      "hit": false,
      "t": 201943.87900000112,
      "d": 138.88850000000093,
      "v": 127
    },
    {
      "midi": 58,
      "hit": false,
      "t": 202082.76750000112,
      "d": 138.88850000000093,
      "v": 127
    },
    {
      "midi": 84,
      "hit": false,
      "t": 202152.21175000118,
      "d": 69.44425000000047,
      "v": 127
    },
    {
      "midi": 60,
      "hit": false,
      "t": 202221.65600000112,
      "d": 138.88850000000093,
      "v": 127
    },
    {
      "midi": 86,
      "hit": false,
      "t": 202291.10025000118,
      "d": 69.44425000000047,
      "v": 127
    },
    {
      "midi": 55,
      "hit": false,
      "t": 202360.54450000112,
      "d": 138.88850000000093,
      "v": 127
    },
    {
      "midi": 88,
      "hit": false,
      "t": 202360.54450000118,
      "d": 69.44425000000047,
      "v": 127
    },
    {
      "midi": 86,
      "hit": false,
      "t": 202429.98875000118,
      "d": 69.44425000000047,
      "v": 127
    },
    {
      "midi": 60,
      "hit": false,
      "t": 202499.43300000113,
      "d": 138.88850000000093,
      "v": 127
    },
    {
      "midi": 84,
      "hit": false,
      "t": 202568.87725000118,
      "d": 69.44425000000047,
      "v": 127
    },
    {
      "midi": 56,
      "hit": false,
      "t": 202638.32150000113,
      "d": 138.88850000000093,
      "v": 127
    },
    {
      "midi": 89,
      "hit": false,
      "t": 202638.32150000118,
      "d": 277.77700000000186,
      "v": 127
    },
    {
      "midi": 60,
      "hit": false,
      "t": 202777.21000000113,
      "d": 138.88850000000093,
      "v": 127
    },
    {
      "midi": 53,
      "hit": false,
      "t": 202916.09850000113,
      "d": 138.88850000000093,
      "v": 127
    },
    {
      "midi": 60,
      "hit": false,
      "t": 203054.98700000113,
      "d": 138.88850000000093,
      "v": 127
    },
    {
      "midi": 58,
      "hit": false,
      "t": 203193.87550000113,
      "d": 138.88850000000093,
      "v": 127
    },
    {
      "midi": 84,
      "hit": false,
      "t": 203263.3197500012,
      "d": 69.44425000000047,
      "v": 127
    },
    {
      "midi": 60,
      "hit": false,
      "t": 203332.76400000113,
      "d": 138.88850000000093,
      "v": 127
    },
    {
      "midi": 86,
      "hit": false,
      "t": 203402.2082500012,
      "d": 69.44425000000047,
      "v": 127
    },
    {
      "midi": 55,
      "hit": false,
      "t": 203471.65250000113,
      "d": 138.88850000000093,
      "v": 127
    },
    {
      "midi": 88,
      "hit": false,
      "t": 203471.6525000012,
      "d": 69.44425000000047,
      "v": 127
    },
    {
      "midi": 86,
      "hit": false,
      "t": 203541.0967500012,
      "d": 69.44425000000047,
      "v": 127
    },
    {
      "midi": 60,
      "hit": false,
      "t": 203610.54100000113,
      "d": 138.88850000000093,
      "v": 127
    },
    {
      "midi": 84,
      "hit": false,
      "t": 203679.9852500012,
      "d": 69.44425000000047,
      "v": 127
    },
    {
      "midi": 56,
      "hit": false,
      "t": 203749.42950000113,
      "d": 138.88850000000093,
      "v": 127
    },
    {
      "midi": 89,
      "hit": false,
      "t": 203749.4295000012,
      "d": 277.77700000000186,
      "v": 127
    },
    {
      "midi": 60,
      "hit": false,
      "t": 203888.31800000113,
      "d": 138.88850000000093,
      "v": 127
    },
    {
      "midi": 53,
      "hit": false,
      "t": 204027.20650000114,
      "d": 138.88850000000093,
      "v": 127
    },
    {
      "midi": 60,
      "hit": false,
      "t": 204166.09500000114,
      "d": 138.88850000000093,
      "v": 127
    },
    {
      "midi": 58,
      "hit": false,
      "t": 204304.98350000114,
      "d": 138.88850000000093,
      "v": 127
    },
    {
      "midi": 84,
      "hit": false,
      "t": 204374.4277500012,
      "d": 69.44425000000047,
      "v": 127
    },
    {
      "midi": 60,
      "hit": false,
      "t": 204443.87200000114,
      "d": 138.88850000000093,
      "v": 127
    },
    {
      "midi": 86,
      "hit": false,
      "t": 204513.3162500012,
      "d": 69.44425000000047,
      "v": 127
    },
    {
      "midi": 55,
      "hit": false,
      "t": 204582.76050000114,
      "d": 138.88850000000093,
      "v": 127
    },
    {
      "midi": 88,
      "hit": false,
      "t": 204582.7605000012,
      "d": 69.44425000000047,
      "v": 127
    },
    {
      "midi": 86,
      "hit": false,
      "t": 204652.2047500012,
      "d": 69.44425000000047,
      "v": 127
    },
    {
      "midi": 60,
      "hit": false,
      "t": 204721.64900000114,
      "d": 138.88850000000093,
      "v": 127
    },
    {
      "midi": 84,
      "hit": false,
      "t": 204791.0932500012,
      "d": 69.44425000000047,
      "v": 127
    },
    {
      "midi": 56,
      "hit": false,
      "t": 204860.53750000114,
      "d": 277.77700000000186,
      "v": 127
    },
    {
      "midi": 89,
      "hit": false,
      "t": 204860.5375000012,
      "d": 277.77700000000186,
      "v": 127
    },
    {
      "midi": 44,
      "hit": false,
      "t": 205138.31450000114,
      "d": 277.77700000000186,
      "v": 127
    },
    {
      "midi": 48,
      "hit": false,
      "t": 205138.31450000114,
      "d": 277.77700000000186,
      "v": 127
    },
    {
      "midi": 51,
      "hit": false,
      "t": 205138.31450000114,
      "d": 277.77700000000186,
      "v": 127
    },
    {
      "midi": 56,
      "hit": false,
      "t": 205138.31450000114,
      "d": 277.77700000000186,
      "v": 127
    },
    {
      "midi": 72,
      "hit": false,
      "t": 205138.3145000012,
      "d": 277.77700000000186,
      "v": 127
    },
    {
      "midi": 75,
      "hit": false,
      "t": 205138.3145000012,
      "d": 277.77700000000186,
      "v": 127
    },
    {
      "midi": 78,
      "hit": false,
      "t": 205138.3145000012,
      "d": 277.77700000000186,
      "v": 127
    },
    {
      "midi": 84,
      "hit": false,
      "t": 205138.3145000012,
      "d": 277.77700000000186,
      "v": 127
    },
    {
      "midi": 43,
      "hit": false,
      "t": 205416.09150000114,
      "d": 138.88850000000093,
      "v": 127
    },
    {
      "midi": 48,
      "hit": false,
      "t": 205416.09150000114,
      "d": 138.88850000000093,
      "v": 127
    },
    {
      "midi": 51,
      "hit": false,
      "t": 205416.09150000114,
      "d": 138.88850000000093,
      "v": 127
    },
    {
      "midi": 55,
      "hit": false,
      "t": 205416.09150000114,
      "d": 138.88850000000093,
      "v": 127
    },
    {
      "midi": 72,
      "hit": false,
      "t": 205416.0915000012,
      "d": 138.88850000000093,
      "v": 127
    },
    {
      "midi": 75,
      "hit": false,
      "t": 205416.0915000012,
      "d": 138.88850000000093,
      "v": 127
    },
    {
      "midi": 79,
      "hit": false,
      "t": 205416.0915000012,
      "d": 138.88850000000093,
      "v": 127
    },
    {
      "midi": 84,
      "hit": false,
      "t": 205416.0915000012,
      "d": 138.88850000000093,
      "v": 127
    },
    {
      "midi": 43,
      "hit": false,
      "t": 205693.86850000115,
      "d": 277.77700000000186,
      "v": 127
    },
    {
      "midi": 47,
      "hit": false,
      "t": 205693.86850000115,
      "d": 277.77700000000186,
      "v": 127
    },
    {
      "midi": 50,
      "hit": false,
      "t": 205693.86850000115,
      "d": 277.77700000000186,
      "v": 127
    },
    {
      "midi": 55,
      "hit": false,
      "t": 205693.86850000115,
      "d": 277.77700000000186,
      "v": 127
    },
    {
      "midi": 71,
      "hit": false,
      "t": 205693.8685000012,
      "d": 277.77700000000186,
      "v": 127
    },
    {
      "midi": 74,
      "hit": false,
      "t": 205693.8685000012,
      "d": 277.77700000000186,
      "v": 127
    },
    {
      "midi": 79,
      "hit": false,
      "t": 205693.8685000012,
      "d": 277.77700000000186,
      "v": 127
    },
    {
      "midi": 83,
      "hit": false,
      "t": 205693.8685000012,
      "d": 277.77700000000186,
      "v": 127
    },
    {
      "midi": 36,
      "hit": false,
      "t": 205971.64550000115,
      "d": 138.88850000000093,
      "v": 127
    },
    {
      "midi": 72,
      "hit": false,
      "t": 205971.6455000012,
      "d": 277.77700000000186,
      "v": 127
    },
    {
      "midi": 75,
      "hit": false,
      "t": 205971.6455000012,
      "d": 277.77700000000186,
      "v": 127
    },
    {
      "midi": 79,
      "hit": false,
      "t": 205971.6455000012,
      "d": 277.77700000000186,
      "v": 127
    },
    {
      "midi": 84,
      "hit": false,
      "t": 205971.6455000012,
      "d": 277.77700000000186,
      "v": 127
    },
    {
      "midi": 48,
      "hit": false,
      "t": 206110.53400000115,
      "d": 138.88850000000093,
      "v": 127
    },
    {
      "midi": 47,
      "hit": false,
      "t": 206249.42250000115,
      "d": 138.88850000000093,
      "v": 127
    },
    {
      "midi": 48,
      "hit": false,
      "t": 206388.31100000115,
      "d": 138.88850000000093,
      "v": 127
    },
    {
      "midi": 46,
      "hit": false,
      "t": 206527.19950000115,
      "d": 138.88850000000093,
      "v": 127
    },
    {
      "midi": 72,
      "hit": false,
      "t": 206596.6437500012,
      "d": 69.44425000000047,
      "v": 127
    },
    {
      "midi": 48,
      "hit": false,
      "t": 206666.08800000115,
      "d": 138.88850000000093,
      "v": 127
    },
    {
      "midi": 74,
      "hit": false,
      "t": 206735.5322500012,
      "d": 69.44425000000047,
      "v": 127
    },
    {
      "midi": 43,
      "hit": false,
      "t": 206804.97650000115,
      "d": 138.88850000000093,
      "v": 127
    },
    {
      "midi": 76,
      "hit": false,
      "t": 206804.9765000012,
      "d": 69.44425000000047,
      "v": 127
    },
    {
      "midi": 74,
      "hit": false,
      "t": 206874.4207500012,
      "d": 69.44425000000047,
      "v": 127
    },
    {
      "midi": 48,
      "hit": false,
      "t": 206943.86500000115,
      "d": 138.88850000000093,
      "v": 127
    },
    {
      "midi": 72,
      "hit": false,
      "t": 207013.3092500012,
      "d": 69.44425000000047,
      "v": 127
    },
    {
      "midi": 44,
      "hit": false,
      "t": 207082.75350000116,
      "d": 138.88850000000093,
      "v": 127
    },
    {
      "midi": 77,
      "hit": false,
      "t": 207082.7535000012,
      "d": 277.77700000000186,
      "v": 127
    },
    {
      "midi": 48,
      "hit": false,
      "t": 207221.64200000116,
      "d": 138.88850000000093,
      "v": 127
    },
    {
      "midi": 41,
      "hit": false,
      "t": 207360.53050000116,
      "d": 138.88850000000093,
      "v": 127
    },
    {
      "midi": 48,
      "hit": false,
      "t": 207499.41900000116,
      "d": 138.88850000000093,
      "v": 127
    },
    {
      "midi": 46,
      "hit": false,
      "t": 207638.30750000116,
      "d": 138.88850000000093,
      "v": 127
    },
    {
      "midi": 72,
      "hit": false,
      "t": 207707.75175000122,
      "d": 69.44425000000047,
      "v": 127
    },
    {
      "midi": 48,
      "hit": false,
      "t": 207777.19600000116,
      "d": 138.88850000000093,
      "v": 127
    },
    {
      "midi": 74,
      "hit": false,
      "t": 207846.64025000122,
      "d": 69.44425000000047,
      "v": 127
    },
    {
      "midi": 43,
      "hit": false,
      "t": 207916.08450000116,
      "d": 138.88850000000093,
      "v": 127
    },
    {
      "midi": 76,
      "hit": false,
      "t": 207916.08450000122,
      "d": 69.44425000000047,
      "v": 127
    },
    {
      "midi": 74,
      "hit": false,
      "t": 207985.52875000122,
      "d": 69.44425000000047,
      "v": 127
    },
    {
      "midi": 48,
      "hit": false,
      "t": 208054.97300000116,
      "d": 138.88850000000093,
      "v": 127
    },
    {
      "midi": 72,
      "hit": false,
      "t": 208124.41725000122,
      "d": 69.44425000000047,
      "v": 127
    },
    {
      "midi": 44,
      "hit": false,
      "t": 208193.86150000116,
      "d": 138.88850000000093,
      "v": 127
    },
    {
      "midi": 77,
      "hit": false,
      "t": 208193.86150000122,
      "d": 277.77700000000186,
      "v": 127
    },
    {
      "midi": 48,
      "hit": false,
      "t": 208332.75000000116,
      "d": 138.88850000000093,
      "v": 127
    },
    {
      "midi": 41,
      "hit": false,
      "t": 208471.63850000117,
      "d": 138.88850000000093,
      "v": 127
    },
    {
      "midi": 48,
      "hit": false,
      "t": 208610.52700000117,
      "d": 138.88850000000093,
      "v": 127
    },
    {
      "midi": 46,
      "hit": false,
      "t": 208749.41550000117,
      "d": 138.88850000000093,
      "v": 127
    },
    {
      "midi": 60,
      "hit": false,
      "t": 208818.85975000123,
      "d": 69.44425000000047,
      "v": 127
    },
    {
      "midi": 48,
      "hit": false,
      "t": 208888.30400000117,
      "d": 138.88850000000093,
      "v": 127
    },
    {
      "midi": 62,
      "hit": false,
      "t": 208957.74825000123,
      "d": 69.44425000000047,
      "v": 127
    },
    {
      "midi": 43,
      "hit": false,
      "t": 209027.19250000117,
      "d": 138.88850000000093,
      "v": 127
    },
    {
      "midi": 64,
      "hit": false,
      "t": 209027.19250000123,
      "d": 69.44425000000047,
      "v": 127
    },
    {
      "midi": 62,
      "hit": false,
      "t": 209096.63675000123,
      "d": 69.44425000000047,
      "v": 127
    },
    {
      "midi": 48,
      "hit": false,
      "t": 209166.08100000117,
      "d": 138.88850000000093,
      "v": 127
    },
    {
      "midi": 60,
      "hit": false,
      "t": 209235.52525000123,
      "d": 69.44425000000047,
      "v": 127
    },
    {
      "midi": 44,
      "hit": false,
      "t": 209304.96950000117,
      "d": 277.77700000000186,
      "v": 127
    },
    {
      "midi": 65,
      "hit": false,
      "t": 209304.96950000123,
      "d": 69.44425000000047,
      "v": 127
    },
    {
      "midi": 60,
      "hit": false,
      "t": 209374.41375000123,
      "d": 69.44425000000047,
      "v": 127
    },
    {
      "midi": 62,
      "hit": false,
      "t": 209513.30225000123,
      "d": 69.44425000000047,
      "v": 127
    },
    {
      "midi": 44,
      "hit": false,
      "t": 209582.74650000117,
      "d": 277.77700000000186,
      "v": 127
    },
    {
      "midi": 56,
      "hit": false,
      "t": 209582.74650000117,
      "d": 277.77700000000186,
      "v": 127
    },
    {
      "midi": 63,
      "hit": false,
      "t": 209582.74650000123,
      "d": 69.44425000000047,
      "v": 127
    },
    {
      "midi": 62,
      "hit": false,
      "t": 209652.19075000123,
      "d": 69.44425000000047,
      "v": 127
    },
    {
      "midi": 60,
      "hit": false,
      "t": 209791.07925000123,
      "d": 69.44425000000047,
      "v": 127
    },
    {
      "midi": 65,
      "hit": false,
      "t": 209860.52350000123,
      "d": 69.44425000000047,
      "v": 127
    },
    {
      "midi": 60,
      "hit": false,
      "t": 209929.96775000123,
      "d": 69.44425000000047,
      "v": 127
    },
    {
      "midi": 62,
      "hit": false,
      "t": 210068.85625000123,
      "d": 69.44425000000047,
      "v": 127
    },
    {
      "midi": 44,
      "hit": false,
      "t": 210138.30050000118,
      "d": 277.77700000000186,
      "v": 127
    },
    {
      "midi": 48,
      "hit": false,
      "t": 210138.30050000118,
      "d": 277.77700000000186,
      "v": 127
    },
    {
      "midi": 51,
      "hit": false,
      "t": 210138.30050000118,
      "d": 277.77700000000186,
      "v": 127
    },
    {
      "midi": 56,
      "hit": false,
      "t": 210138.30050000118,
      "d": 277.77700000000186,
      "v": 127
    },
    {
      "midi": 63,
      "hit": false,
      "t": 210138.30050000123,
      "d": 69.44425000000047,
      "v": 127
    },
    {
      "midi": 62,
      "hit": false,
      "t": 210207.74475000123,
      "d": 69.44425000000047,
      "v": 127
    },
    {
      "midi": 60,
      "hit": false,
      "t": 210346.63325000124,
      "d": 69.44425000000047,
      "v": 127
    },
    {
      "midi": 67,
      "hit": false,
      "t": 210416.07750000124,
      "d": 69.44425000000047,
      "v": 127
    },
    {
      "midi": 60,
      "hit": false,
      "t": 210485.52175000124,
      "d": 69.44425000000047,
      "v": 127
    },
    {
      "midi": 62,
      "hit": false,
      "t": 210624.41025000124,
      "d": 69.44425000000047,
      "v": 127
    },
    {
      "midi": 43,
      "hit": false,
      "t": 210693.85450000118,
      "d": 277.77700000000186,
      "v": 127
    },
    {
      "midi": 48,
      "hit": false,
      "t": 210693.85450000118,
      "d": 277.77700000000186,
      "v": 127
    },
    {
      "midi": 51,
      "hit": false,
      "t": 210693.85450000118,
      "d": 277.77700000000186,
      "v": 127
    },
    {
      "midi": 55,
      "hit": false,
      "t": 210693.85450000118,
      "d": 277.77700000000186,
      "v": 127
    },
    {
      "midi": 63,
      "hit": false,
      "t": 210693.85450000124,
      "d": 69.44425000000047,
      "v": 127
    },
    {
      "midi": 62,
      "hit": false,
      "t": 210763.29875000124,
      "d": 69.44425000000047,
      "v": 127
    },
    {
      "midi": 60,
      "hit": false,
      "t": 210902.18725000124,
      "d": 69.44425000000047,
      "v": 127
    },
    {
      "midi": 69,
      "hit": false,
      "t": 210971.63150000124,
      "d": 69.44425000000047,
      "v": 127
    },
    {
      "midi": 60,
      "hit": false,
      "t": 211041.07575000124,
      "d": 69.44425000000047,
      "v": 127
    },
    {
      "midi": 62,
      "hit": false,
      "t": 211179.96425000124,
      "d": 69.44425000000047,
      "v": 127
    },
    {
      "midi": 42,
      "hit": false,
      "t": 211249.40850000118,
      "d": 277.77700000000186,
      "v": 127
    },
    {
      "midi": 48,
      "hit": false,
      "t": 211249.40850000118,
      "d": 277.77700000000186,
      "v": 127
    },
    {
      "midi": 51,
      "hit": false,
      "t": 211249.40850000118,
      "d": 277.77700000000186,
      "v": 127
    },
    {
      "midi": 54,
      "hit": false,
      "t": 211249.40850000118,
      "d": 277.77700000000186,
      "v": 127
    },
    {
      "midi": 63,
      "hit": false,
      "t": 211249.40850000124,
      "d": 69.44425000000047,
      "v": 127
    },
    {
      "midi": 62,
      "hit": false,
      "t": 211318.85275000124,
      "d": 69.44425000000047,
      "v": 127
    },
    {
      "midi": 60,
      "hit": false,
      "t": 211457.74125000124,
      "d": 69.44425000000047,
      "v": 127
    },
    {
      "midi": 71,
      "hit": false,
      "t": 211527.18550000124,
      "d": 69.44425000000047,
      "v": 127
    },
    {
      "midi": 59,
      "hit": false,
      "t": 211596.62975000124,
      "d": 69.44425000000047,
      "v": 127
    },
    {
      "midi": 60,
      "hit": false,
      "t": 211735.51825000125,
      "d": 69.44425000000047,
      "v": 127
    },
    {
      "midi": 41,
      "hit": false,
      "t": 211804.9625000012,
      "d": 277.77700000000186,
      "v": 127
    },
    {
      "midi": 47,
      "hit": false,
      "t": 211804.9625000012,
      "d": 277.77700000000186,
      "v": 127
    },
    {
      "midi": 50,
      "hit": false,
      "t": 211804.9625000012,
      "d": 277.77700000000186,
      "v": 127
    },
    {
      "midi": 53,
      "hit": false,
      "t": 211804.9625000012,
      "d": 277.77700000000186,
      "v": 127
    },
    {
      "midi": 62,
      "hit": false,
      "t": 211804.96250000125,
      "d": 69.44425000000047,
      "v": 127
    },
    {
      "midi": 60,
      "hit": false,
      "t": 211874.40675000125,
      "d": 69.44425000000047,
      "v": 127
    },
    {
      "midi": 59,
      "hit": false,
      "t": 212013.29525000125,
      "d": 69.44425000000047,
      "v": 127
    },
    {
      "midi": 72,
      "hit": false,
      "t": 212082.73950000125,
      "d": 69.44425000000047,
      "v": 127
    },
    {
      "midi": 60,
      "hit": false,
      "t": 212152.18375000125,
      "d": 69.44425000000047,
      "v": 127
    },
    {
      "midi": 62,
      "hit": false,
      "t": 212291.07225000125,
      "d": 69.44425000000047,
      "v": 127
    },
    {
      "midi": 39,
      "hit": false,
      "t": 212360.5165000012,
      "d": 277.77700000000186,
      "v": 127
    },
    {
      "midi": 43,
      "hit": false,
      "t": 212360.5165000012,
      "d": 277.77700000000186,
      "v": 127
    },
    {
      "midi": 48,
      "hit": false,
      "t": 212360.5165000012,
      "d": 277.77700000000186,
      "v": 127
    },
    {
      "midi": 51,
      "hit": false,
      "t": 212360.5165000012,
      "d": 277.77700000000186,
      "v": 127
    },
    {
      "midi": 63,
      "hit": false,
      "t": 212360.51650000125,
      "d": 69.44425000000047,
      "v": 127
    },
    {
      "midi": 62,
      "hit": false,
      "t": 212429.96075000125,
      "d": 69.44425000000047,
      "v": 127
    },
    {
      "midi": 60,
      "hit": false,
      "t": 212568.84925000125,
      "d": 69.44425000000047,
      "v": 127
    },
    {
      "midi": 74,
      "hit": false,
      "t": 212638.29350000125,
      "d": 69.44425000000047,
      "v": 127
    },
    {
      "midi": 62,
      "hit": false,
      "t": 212707.73775000125,
      "d": 69.44425000000047,
      "v": 127
    },
    {
      "midi": 63,
      "hit": false,
      "t": 212846.62625000125,
      "d": 69.44425000000047,
      "v": 127
    },
    {
      "midi": 41,
      "hit": false,
      "t": 212916.0705000012,
      "d": 277.77700000000186,
      "v": 127
    },
    {
      "midi": 44,
      "hit": false,
      "t": 212916.0705000012,
      "d": 277.77700000000186,
      "v": 127
    },
    {
      "midi": 50,
      "hit": false,
      "t": 212916.0705000012,
      "d": 277.77700000000186,
      "v": 127
    },
    {
      "midi": 53,
      "hit": false,
      "t": 212916.0705000012,
      "d": 277.77700000000186,
      "v": 127
    },
    {
      "midi": 65,
      "hit": false,
      "t": 212916.07050000125,
      "d": 69.44425000000047,
      "v": 127
    },
    {
      "midi": 63,
      "hit": false,
      "t": 212985.51475000125,
      "d": 69.44425000000047,
      "v": 127
    },
    {
      "midi": 62,
      "hit": false,
      "t": 213124.40325000125,
      "d": 69.44425000000047,
      "v": 127
    },
    {
      "midi": 71,
      "hit": false,
      "t": 213193.84750000125,
      "d": 69.44425000000047,
      "v": 127
    },
    {
      "midi": 59,
      "hit": false,
      "t": 213263.29175000126,
      "d": 69.44425000000047,
      "v": 127
    },
    {
      "midi": 60,
      "hit": false,
      "t": 213402.18025000126,
      "d": 69.44425000000047,
      "v": 127
    },
    {
      "midi": 43,
      "hit": false,
      "t": 213471.6245000012,
      "d": 277.77700000000186,
      "v": 127
    },
    {
      "midi": 47,
      "hit": false,
      "t": 213471.6245000012,
      "d": 277.77700000000186,
      "v": 127
    },
    {
      "midi": 50,
      "hit": false,
      "t": 213471.6245000012,
      "d": 277.77700000000186,
      "v": 127
    },
    {
      "midi": 55,
      "hit": false,
      "t": 213471.6245000012,
      "d": 277.77700000000186,
      "v": 127
    },
    {
      "midi": 62,
      "hit": false,
      "t": 213471.62450000126,
      "d": 69.44425000000047,
      "v": 127
    },
    {
      "midi": 60,
      "hit": false,
      "t": 213541.06875000126,
      "d": 69.44425000000047,
      "v": 127
    },
    {
      "midi": 59,
      "hit": false,
      "t": 213679.95725000126,
      "d": 69.44425000000047,
      "v": 127
    },
    {
      "midi": 36,
      "hit": false,
      "t": 213749.4015000012,
      "d": 277.77700000000186,
      "v": 127
    },
    {
      "midi": 48,
      "hit": false,
      "t": 213749.4015000012,
      "d": 277.77700000000186,
      "v": 127
    },
    {
      "midi": 60,
      "hit": false,
      "t": 213749.40150000126,
      "d": 277.77700000000186,
      "v": 127
    },
    {
      "midi": 72,
      "hit": false,
      "t": 213749.40150000126,
      "d": 277.77700000000186,
      "v": 127
    },
    {
      "midi": 51,
      "hit": false,
      "t": 214027.1785000012,
      "d": 416.6655000000028,
      "v": 127
    },
    {
      "midi": 55,
      "hit": false,
      "t": 214027.1785000012,
      "d": 416.6655000000028,
      "v": 127
    },
    {
      "midi": 60,
      "hit": false,
      "t": 214027.1785000012,
      "d": 416.6655000000028,
      "v": 127
    },
    {
      "midi": 79,
      "hit": false,
      "t": 214304.95550000126,
      "d": 138.88850000000093,
      "v": 127
    },
    {
      "midi": 77,
      "hit": false,
      "t": 214582.73250000126,
      "d": 69.44425000000047,
      "v": 127
    },
    {
      "midi": 75,
      "hit": false,
      "t": 214652.17675000126,
      "d": 69.44425000000047,
      "v": 127
    },
    {
      "midi": 74,
      "hit": false,
      "t": 214721.62100000127,
      "d": 69.44425000000047,
      "v": 127
    },
    {
      "midi": 72,
      "hit": false,
      "t": 214791.06525000127,
      "d": 69.44425000000047,
      "v": 127
    },
    {
      "midi": 53,
      "hit": false,
      "t": 214860.5095000012,
      "d": 277.77700000000186,
      "v": 127
    },
    {
      "midi": 56,
      "hit": false,
      "t": 214860.5095000012,
      "d": 277.77700000000186,
      "v": 127
    },
    {
      "midi": 60,
      "hit": false,
      "t": 214860.5095000012,
      "d": 277.77700000000186,
      "v": 127
    },
    {
      "midi": 62,
      "hit": false,
      "t": 214860.5095000012,
      "d": 277.77700000000186,
      "v": 127
    },
    {
      "midi": 74,
      "hit": false,
      "t": 214860.50950000127,
      "d": 277.77700000000186,
      "v": 127
    },
    {
      "midi": 55,
      "hit": false,
      "t": 215138.2865000012,
      "d": 416.6655000000028,
      "v": 127
    },
    {
      "midi": 59,
      "hit": false,
      "t": 215138.2865000012,
      "d": 416.6655000000028,
      "v": 127
    },
    {
      "midi": 62,
      "hit": false,
      "t": 215138.2865000012,
      "d": 416.6655000000028,
      "v": 127
    },
    {
      "midi": 77,
      "hit": false,
      "t": 215416.06350000127,
      "d": 138.88850000000093,
      "v": 127
    },
    {
      "midi": 75,
      "hit": false,
      "t": 215693.84050000127,
      "d": 69.44425000000047,
      "v": 127
    },
    {
      "midi": 74,
      "hit": false,
      "t": 215763.28475000127,
      "d": 69.44425000000047,
      "v": 127
    },
    {
      "midi": 72,
      "hit": false,
      "t": 215832.72900000127,
      "d": 69.44425000000047,
      "v": 127
    },
    {
      "midi": 71,
      "hit": false,
      "t": 215902.17325000127,
      "d": 69.44425000000047,
      "v": 127
    },
    {
      "midi": 51,
      "hit": false,
      "t": 215971.61750000122,
      "d": 277.77700000000186,
      "v": 127
    },
    {
      "midi": 55,
      "hit": false,
      "t": 215971.61750000122,
      "d": 277.77700000000186,
      "v": 127
    },
    {
      "midi": 60,
      "hit": false,
      "t": 215971.61750000122,
      "d": 277.77700000000186,
      "v": 127
    },
    {
      "midi": 72,
      "hit": false,
      "t": 215971.61750000127,
      "d": 277.77700000000186,
      "v": 127
    },
    {
      "midi": 51,
      "hit": false,
      "t": 216249.39450000122,
      "d": 416.6655000000028,
      "v": 127
    },
    {
      "midi": 55,
      "hit": false,
      "t": 216249.39450000122,
      "d": 416.6655000000028,
      "v": 127
    },
    {
      "midi": 60,
      "hit": false,
      "t": 216249.39450000122,
      "d": 416.6655000000028,
      "v": 127
    },
    {
      "midi": 79,
      "hit": false,
      "t": 216527.17150000128,
      "d": 138.88850000000093,
      "v": 127
    },
    {
      "midi": 77,
      "hit": false,
      "t": 216804.94850000128,
      "d": 69.44425000000047,
      "v": 127
    },
    {
      "midi": 75,
      "hit": false,
      "t": 216874.39275000128,
      "d": 69.44425000000047,
      "v": 127
    },
    {
      "midi": 74,
      "hit": false,
      "t": 216943.83700000128,
      "d": 69.44425000000047,
      "v": 127
    },
    {
      "midi": 72,
      "hit": false,
      "t": 217013.28125000128,
      "d": 69.44425000000047,
      "v": 127
    },
    {
      "midi": 53,
      "hit": false,
      "t": 217082.72550000122,
      "d": 277.77700000000186,
      "v": 127
    },
    {
      "midi": 56,
      "hit": false,
      "t": 217082.72550000122,
      "d": 277.77700000000186,
      "v": 127
    },
    {
      "midi": 60,
      "hit": false,
      "t": 217082.72550000122,
      "d": 277.77700000000186,
      "v": 127
    },
    {
      "midi": 62,
      "hit": false,
      "t": 217082.72550000122,
      "d": 277.77700000000186,
      "v": 127
    },
    {
      "midi": 74,
      "hit": false,
      "t": 217082.72550000128,
      "d": 277.77700000000186,
      "v": 127
    },
    {
      "midi": 55,
      "hit": false,
      "t": 217360.50250000122,
      "d": 416.6655000000028,
      "v": 127
    },
    {
      "midi": 59,
      "hit": false,
      "t": 217360.50250000122,
      "d": 416.6655000000028,
      "v": 127
    },
    {
      "midi": 62,
      "hit": false,
      "t": 217360.50250000122,
      "d": 416.6655000000028,
      "v": 127
    },
    {
      "midi": 77,
      "hit": false,
      "t": 217638.27950000128,
      "d": 138.88850000000093,
      "v": 127
    },
    {
      "midi": 75,
      "hit": false,
      "t": 217916.0565000013,
      "d": 69.44425000000047,
      "v": 127
    },
    {
      "midi": 74,
      "hit": false,
      "t": 217985.5007500013,
      "d": 69.44425000000047,
      "v": 127
    },
    {
      "midi": 72,
      "hit": false,
      "t": 218054.9450000013,
      "d": 69.44425000000047,
      "v": 127
    },
    {
      "midi": 71,
      "hit": false,
      "t": 218124.3892500013,
      "d": 69.44425000000047,
      "v": 127
    },
    {
      "midi": 51,
      "hit": false,
      "t": 218193.83350000123,
      "d": 277.77700000000186,
      "v": 127
    },
    {
      "midi": 55,
      "hit": false,
      "t": 218193.83350000123,
      "d": 277.77700000000186,
      "v": 127
    },
    {
      "midi": 60,
      "hit": false,
      "t": 218193.83350000123,
      "d": 277.77700000000186,
      "v": 127
    },
    {
      "midi": 72,
      "hit": false,
      "t": 218193.8335000013,
      "d": 277.77700000000186,
      "v": 127
    },
    {
      "midi": 51,
      "hit": false,
      "t": 218471.61050000123,
      "d": 416.6655000000028,
      "v": 127
    },
    {
      "midi": 55,
      "hit": false,
      "t": 218471.61050000123,
      "d": 416.6655000000028,
      "v": 127
    },
    {
      "midi": 60,
      "hit": false,
      "t": 218471.61050000123,
      "d": 416.6655000000028,
      "v": 127
    },
    {
      "midi": 79,
      "hit": false,
      "t": 218749.3875000013,
      "d": 138.88850000000093,
      "v": 127
    },
    {
      "midi": 77,
      "hit": false,
      "t": 219027.1645000013,
      "d": 69.44425000000047,
      "v": 127
    },
    {
      "midi": 75,
      "hit": false,
      "t": 219096.6087500013,
      "d": 69.44425000000047,
      "v": 127
    },
    {
      "midi": 74,
      "hit": false,
      "t": 219166.0530000013,
      "d": 69.44425000000047,
      "v": 127
    },
    {
      "midi": 72,
      "hit": false,
      "t": 219235.4972500013,
      "d": 69.44425000000047,
      "v": 127
    },
    {
      "midi": 53,
      "hit": false,
      "t": 219304.94150000124,
      "d": 277.77700000000186,
      "v": 127
    },
    {
      "midi": 56,
      "hit": false,
      "t": 219304.94150000124,
      "d": 277.77700000000186,
      "v": 127
    },
    {
      "midi": 61,
      "hit": false,
      "t": 219304.94150000124,
      "d": 277.77700000000186,
      "v": 127
    },
    {
      "midi": 73,
      "hit": false,
      "t": 219304.9415000013,
      "d": 277.77700000000186,
      "v": 127
    },
    {
      "midi": 53,
      "hit": false,
      "t": 219582.71850000124,
      "d": 416.6655000000028,
      "v": 127
    },
    {
      "midi": 56,
      "hit": false,
      "t": 219582.71850000124,
      "d": 416.6655000000028,
      "v": 127
    },
    {
      "midi": 61,
      "hit": false,
      "t": 219582.71850000124,
      "d": 416.6655000000028,
      "v": 127
    },
    {
      "midi": 89,
      "hit": false,
      "t": 219860.4955000013,
      "d": 138.88850000000093,
      "v": 127
    },
    {
      "midi": 53,
      "hit": false,
      "t": 220138.27250000124,
      "d": 277.77700000000186,
      "v": 127
    },
    {
      "midi": 56,
      "hit": false,
      "t": 220138.27250000124,
      "d": 277.77700000000186,
      "v": 127
    },
    {
      "midi": 61,
      "hit": false,
      "t": 220138.27250000124,
      "d": 277.77700000000186,
      "v": 127
    },
    {
      "midi": 55,
      "hit": false,
      "t": 220416.04950000125,
      "d": 694.4425000000047,
      "v": 127
    },
    {
      "midi": 58,
      "hit": false,
      "t": 220416.04950000125,
      "d": 694.4425000000047,
      "v": 127
    },
    {
      "midi": 61,
      "hit": false,
      "t": 220416.04950000125,
      "d": 694.4425000000047,
      "v": 127
    },
    {
      "midi": 63,
      "hit": false,
      "t": 220416.04950000125,
      "d": 694.4425000000047,
      "v": 127
    },
    {
      "midi": 87,
      "hit": false,
      "t": 221249.3805000013,
      "d": 69.44425000000047,
      "v": 127
    },
    {
      "midi": 85,
      "hit": false,
      "t": 221318.8247500013,
      "d": 69.44425000000047,
      "v": 127
    },
    {
      "midi": 84,
      "hit": false,
      "t": 221457.7132500013,
      "d": 69.44425000000047,
      "v": 127
    },
    {
      "midi": 82,
      "hit": false,
      "t": 221527.1575000013,
      "d": 69.44425000000047,
      "v": 127
    },
    {
      "midi": 80,
      "hit": false,
      "t": 221596.6017500013,
      "d": 69.44425000000047,
      "v": 127
    },
    {
      "midi": 79,
      "hit": false,
      "t": 221735.4902500013,
      "d": 69.44425000000047,
      "v": 127
    },
    {
      "midi": 77,
      "hit": false,
      "t": 221804.9345000013,
      "d": 69.44425000000047,
      "v": 127
    },
    {
      "midi": 75,
      "hit": false,
      "t": 221874.3787500013,
      "d": 69.44425000000047,
      "v": 127
    },
    {
      "midi": 73,
      "hit": false,
      "t": 222013.2672500013,
      "d": 69.44425000000047,
      "v": 127
    },
    {
      "midi": 72,
      "hit": false,
      "t": 222082.71150000131,
      "d": 69.44425000000047,
      "v": 127
    },
    {
      "midi": 68,
      "hit": false,
      "t": 222152.15575000132,
      "d": 69.44425000000047,
      "v": 127
    },
    {
      "midi": 70,
      "hit": false,
      "t": 222152.15575000132,
      "d": 69.44425000000047,
      "v": 127
    },
    {
      "midi": 67,
      "hit": false,
      "t": 222221.60000000132,
      "d": 69.44425000000047,
      "v": 127
    },
    {
      "midi": 63,
      "hit": false,
      "t": 222291.04425000132,
      "d": 69.44425000000047,
      "v": 127
    },
    {
      "midi": 65,
      "hit": false,
      "t": 222291.04425000132,
      "d": 69.44425000000047,
      "v": 127
    },
    {
      "midi": 60,
      "hit": false,
      "t": 222360.48850000132,
      "d": 69.44425000000047,
      "v": 127
    },
    {
      "midi": 61,
      "hit": false,
      "t": 222360.48850000132,
      "d": 69.44425000000047,
      "v": 127
    },
    {
      "midi": 58,
      "hit": false,
      "t": 222429.93275000132,
      "d": 69.44425000000047,
      "v": 127
    },
    {
      "midi": 55,
      "hit": false,
      "t": 222499.37700000132,
      "d": 69.44425000000047,
      "v": 127
    },
    {
      "midi": 56,
      "hit": false,
      "t": 222499.37700000132,
      "d": 69.44425000000047,
      "v": 127
    },
    {
      "midi": 51,
      "hit": false,
      "t": 222568.82125000132,
      "d": 69.44425000000047,
      "v": 127
    },
    {
      "midi": 53,
      "hit": false,
      "t": 222568.82125000132,
      "d": 69.44425000000047,
      "v": 127
    },
    {
      "midi": 31,
      "hit": false,
      "t": 222638.26550000126,
      "d": 694.4425000000047,
      "v": 127
    },
    {
      "midi": 39,
      "hit": false,
      "t": 222638.26550000126,
      "d": 694.4425000000047,
      "v": 127
    },
    {
      "midi": 43,
      "hit": false,
      "t": 222638.26550000126,
      "d": 694.4425000000047,
      "v": 127
    },
    {
      "midi": 49,
      "hit": false,
      "t": 222638.26550000132,
      "d": 694.4425000000047,
      "v": 127
    },
    {
      "midi": 56,
      "hit": false,
      "t": 224582.70450000133,
      "d": 138.88850000000093,
      "v": 127
    },
    {
      "midi": 58,
      "hit": false,
      "t": 224721.59300000133,
      "d": 138.88850000000093,
      "v": 127
    },
    {
      "midi": 51,
      "hit": false,
      "t": 224860.48150000127,
      "d": 555.5540000000037,
      "v": 127
    },
    {
      "midi": 60,
      "hit": false,
      "t": 224860.48150000133,
      "d": 416.6655000000028,
      "v": 127
    },
    {
      "midi": 61,
      "hit": false,
      "t": 225277.14700000134,
      "d": 138.88850000000093,
      "v": 127
    },
    {
      "midi": 49,
      "hit": false,
      "t": 225416.03550000128,
      "d": 138.88850000000093,
      "v": 127
    },
    {
      "midi": 58,
      "hit": false,
      "t": 225416.03550000134,
      "d": 138.88850000000093,
      "v": 127
    },
    {
      "midi": 60,
      "hit": false,
      "t": 225832.70100000134,
      "d": 138.88850000000093,
      "v": 127
    },
    {
      "midi": 48,
      "hit": false,
      "t": 225971.58950000128,
      "d": 277.77700000000186,
      "v": 127
    },
    {
      "midi": 56,
      "hit": false,
      "t": 225971.58950000134,
      "d": 277.77700000000186,
      "v": 127
    },
    {
      "midi": 68,
      "hit": false,
      "t": 226804.92050000135,
      "d": 138.88850000000093,
      "v": 127
    },
    {
      "midi": 70,
      "hit": false,
      "t": 226943.80900000135,
      "d": 138.88850000000093,
      "v": 127
    },
    {
      "midi": 63,
      "hit": false,
      "t": 227082.6975000013,
      "d": 555.5540000000037,
      "v": 127
    },
    {
      "midi": 72,
      "hit": false,
      "t": 227082.69750000135,
      "d": 416.6655000000028,
      "v": 127
    },
    {
      "midi": 73,
      "hit": false,
      "t": 227499.36300000135,
      "d": 138.88850000000093,
      "v": 127
    },
    {
      "midi": 61,
      "hit": false,
      "t": 227638.2515000013,
      "d": 138.88850000000093,
      "v": 127
    },
    {
      "midi": 70,
      "hit": false,
      "t": 227638.25150000135,
      "d": 138.88850000000093,
      "v": 127
    },
    {
      "midi": 72,
      "hit": false,
      "t": 228054.91700000135,
      "d": 138.88850000000093,
      "v": 127
    },
    {
      "midi": 60,
      "hit": false,
      "t": 228193.8055000013,
      "d": 277.77700000000186,
      "v": 127
    },
    {
      "midi": 68,
      "hit": false,
      "t": 228193.80550000136,
      "d": 277.77700000000186,
      "v": 127
    },
    {
      "midi": 72,
      "hit": false,
      "t": 229027.13650000136,
      "d": 277.77700000000186,
      "v": 127
    },
    {
      "midi": 68,
      "hit": false,
      "t": 229304.9135000013,
      "d": 277.77700000000186,
      "v": 127
    },
    {
      "midi": 75,
      "hit": false,
      "t": 229304.91350000136,
      "d": 277.77700000000186,
      "v": 127
    },
    {
      "midi": 78,
      "hit": false,
      "t": 229304.91350000136,
      "d": 277.77700000000186,
      "v": 127
    },
    {
      "midi": 72,
      "hit": false,
      "t": 230138.24450000137,
      "d": 277.77700000000186,
      "v": 127
    },
    {
      "midi": 67,
      "hit": false,
      "t": 230416.0215000013,
      "d": 277.77700000000186,
      "v": 127
    },
    {
      "midi": 75,
      "hit": false,
      "t": 230416.02150000137,
      "d": 277.77700000000186,
      "v": 127
    },
    {
      "midi": 79,
      "hit": false,
      "t": 230416.02150000137,
      "d": 277.77700000000186,
      "v": 127
    },
    {
      "midi": 87,
      "hit": false,
      "t": 231249.35250000138,
      "d": 69.44425000000047,
      "v": 127
    },
    {
      "midi": 86,
      "hit": false,
      "t": 231318.79675000138,
      "d": 69.44425000000047,
      "v": 127
    },
    {
      "midi": 84,
      "hit": false,
      "t": 231457.68525000138,
      "d": 69.44425000000047,
      "v": 127
    },
    {
      "midi": 43,
      "hit": false,
      "t": 231527.12950000132,
      "d": 277.77700000000186,
      "v": 127
    },
    {
      "midi": 47,
      "hit": false,
      "t": 231527.12950000132,
      "d": 277.77700000000186,
      "v": 127
    },
    {
      "midi": 50,
      "hit": false,
      "t": 231527.12950000132,
      "d": 277.77700000000186,
      "v": 127
    },
    {
      "midi": 55,
      "hit": false,
      "t": 231527.12950000132,
      "d": 277.77700000000186,
      "v": 127
    },
    {
      "midi": 89,
      "hit": false,
      "t": 231527.12950000138,
      "d": 69.44425000000047,
      "v": 127
    },
    {
      "midi": 87,
      "hit": false,
      "t": 231596.57375000138,
      "d": 69.44425000000047,
      "v": 127
    },
    {
      "midi": 86,
      "hit": false,
      "t": 231735.46225000138,
      "d": 69.44425000000047,
      "v": 127
    },
    {
      "midi": 84,
      "hit": false,
      "t": 231804.90650000138,
      "d": 69.44425000000047,
      "v": 127
    },
    {
      "midi": 83,
      "hit": false,
      "t": 231874.35075000138,
      "d": 69.44425000000047,
      "v": 127
    },
    {
      "midi": 80,
      "hit": false,
      "t": 232013.23925000138,
      "d": 69.44425000000047,
      "v": 127
    },
    {
      "midi": 79,
      "hit": false,
      "t": 232082.68350000138,
      "d": 69.44425000000047,
      "v": 127
    },
    {
      "midi": 77,
      "hit": false,
      "t": 232152.12775000138,
      "d": 69.44425000000047,
      "v": 127
    },
    {
      "midi": 75,
      "hit": false,
      "t": 232291.01625000138,
      "d": 69.44425000000047,
      "v": 127
    },
    {
      "midi": 74,
      "hit": false,
      "t": 232360.46050000138,
      "d": 69.44425000000047,
      "v": 127
    },
    {
      "midi": 72,
      "hit": false,
      "t": 232429.90475000138,
      "d": 69.44425000000047,
      "v": 127
    },
    {
      "midi": 71,
      "hit": false,
      "t": 232568.79325000138,
      "d": 69.44425000000047,
      "v": 127
    },
    {
      "midi": 36,
      "hit": false,
      "t": 232638.23750000133,
      "d": 277.77700000000186,
      "v": 127
    },
    {
      "midi": 39,
      "hit": false,
      "t": 232638.23750000133,
      "d": 277.77700000000186,
      "v": 127
    },
    {
      "midi": 43,
      "hit": false,
      "t": 232638.23750000133,
      "d": 277.77700000000186,
      "v": 127
    },
    {
      "midi": 48,
      "hit": false,
      "t": 232638.23750000133,
      "d": 277.77700000000186,
      "v": 127
    },
    {
      "midi": 72,
      "hit": false,
      "t": 232638.23750000139,
      "d": 277.77700000000186,
      "v": 127
    }
  ]
}