{
  "jsonPath": "Classical/Classical/Ludwig van Beethoven/sonata-no-6.json",
  "path": "Classical\\Classical\\Ludwig van Beethoven\\Sonata No 6.mid",
  "name": "Sonata No 6",
  "difficulty": "Advanced",
  "bpm": 148.000148000148,
  "notes": [
    {
      "midi": 48,
      "hit": false,
      "t": 0,
      "d": 202.70250000000001,
      "v": 127
    },
    {
      "midi": 53,
      "hit": false,
      "t": 202.70250000000001,
      "d": 202.70250000000001,
      "v": 127
    },
    {
      "midi": 53,
      "hit": false,
      "t": 405.40500000000003,
      "d": 202.70250000000004,
      "v": 127
    },
    {
      "midi": 53,
      "hit": false,
      "t": 608.1075000000001,
      "d": 202.7025,
      "v": 127
    },
    {
      "midi": 48,
      "hit": false,
      "t": 810.8100000000001,
      "d": 202.7025,
      "v": 127
    },
    {
      "midi": 57,
      "hit": false,
      "t": 1013.5125,
      "d": 202.7025000000001,
      "v": 127
    },
    {
      "midi": 57,
      "hit": false,
      "t": 1216.2150000000001,
      "d": 202.7025000000001,
      "v": 127
    },
    {
      "midi": 57,
      "hit": false,
      "t": 1418.9175000000002,
      "d": 202.7025000000001,
      "v": 127
    },
    {
      "midi": 53,
      "hit": false,
      "t": 1621.6200000000003,
      "d": 202.7025000000001,
      "v": 127
    },
    {
      "midi": 60,
      "hit": false,
      "t": 1824.3225000000004,
      "d": 202.7025000000001,
      "v": 127
    },
    {
      "midi": 60,
      "hit": false,
      "t": 2027.0250000000005,
      "d": 202.70249999999987,
      "v": 127
    },
    {
      "midi": 60,
      "hit": false,
      "t": 2229.7275000000004,
      "d": 101.35125000000016,
      "v": 127
    },
    {
      "midi": 62,
      "hit": false,
      "t": 2331.0787500000006,
      "d": 101.35125000000016,
      "v": 127
    },
    {
      "midi": 60,
      "hit": false,
      "t": 2432.4300000000007,
      "d": 101.35125000000016,
      "v": 127
    },
    {
      "midi": 58,
      "hit": false,
      "t": 2533.781250000001,
      "d": 101.35125000000016,
      "v": 127
    },
    {
      "midi": 57,
      "hit": false,
      "t": 2635.132500000001,
      "d": 202.70249999999987,
      "v": 127
    },
    {
      "midi": 57,
      "hit": false,
      "t": 2837.835000000001,
      "d": 202.70249999999987,
      "v": 127
    },
    {
      "midi": 57,
      "hit": false,
      "t": 3040.537500000001,
      "d": 101.35125000000016,
      "v": 127
    },
    {
      "midi": 58,
      "hit": false,
      "t": 3141.888750000001,
      "d": 101.35125000000016,
      "v": 127
    },
    {
      "midi": 60,
      "hit": false,
      "t": 3243.2400000000002,
      "d": 202.70249999999987,
      "v": 127
    },
    {
      "midi": 57,
      "hit": false,
      "t": 3243.240000000001,
      "d": 101.35125000000016,
      "v": 127
    },
    {
      "midi": 55,
      "hit": false,
      "t": 3344.5912500000013,
      "d": 101.35125000000016,
      "v": 127
    },
    {
      "midi": 65,
      "hit": false,
      "t": 3445.9425,
      "d": 202.70249999999987,
      "v": 127
    },
    {
      "midi": 57,
      "hit": false,
      "t": 3445.9425000000015,
      "d": 202.70249999999987,
      "v": 127
    },
    {
      "midi": 65,
      "hit": false,
      "t": 3648.645,
      "d": 202.70249999999987,
      "v": 127
    },
    {
      "midi": 60,
      "hit": false,
      "t": 3648.6450000000013,
      "d": 101.35125000000016,
      "v": 127
    },
    {
      "midi": 58,
      "hit": false,
      "t": 3749.9962500000015,
      "d": 101.35125000000016,
      "v": 127
    },
    {
      "midi": 65,
      "hit": false,
      "t": 3851.3475,
      "d": 202.70249999999987,
      "v": 127
    },
    {
      "midi": 57,
      "hit": false,
      "t": 3851.3475000000017,
      "d": 202.70249999999987,
      "v": 127
    },
    {
      "midi": 60,
      "hit": false,
      "t": 4054.0499999999997,
      "d": 202.70249999999987,
      "v": 127
    },
    {
      "midi": 55,
      "hit": false,
      "t": 4054.0500000000015,
      "d": 202.70249999999987,
      "v": 127
    },
    {
      "midi": 69,
      "hit": false,
      "t": 4256.7525,
      "d": 202.70250000000033,
      "v": 127
    },
    {
      "midi": 53,
      "hit": false,
      "t": 4256.752500000001,
      "d": 202.70250000000033,
      "v": 127
    },
    {
      "midi": 69,
      "hit": false,
      "t": 4459.455,
      "d": 202.70250000000033,
      "v": 127
    },
    {
      "midi": 52,
      "hit": false,
      "t": 4459.455000000002,
      "d": 202.70250000000033,
      "v": 127
    },
    {
      "midi": 69,
      "hit": false,
      "t": 4662.1575,
      "d": 202.70250000000033,
      "v": 127
    },
    {
      "midi": 53,
      "hit": false,
      "t": 4662.157500000002,
      "d": 202.70250000000033,
      "v": 127
    },
    {
      "midi": 65,
      "hit": false,
      "t": 4864.860000000001,
      "d": 202.70250000000033,
      "v": 127
    },
    {
      "midi": 50,
      "hit": false,
      "t": 4864.860000000002,
      "d": 202.70250000000033,
      "v": 127
    },
    {
      "midi": 72,
      "hit": false,
      "t": 5067.562500000001,
      "d": 202.70250000000033,
      "v": 127
    },
    {
      "midi": 52,
      "hit": false,
      "t": 5067.562500000003,
      "d": 202.70250000000033,
      "v": 127
    },
    {
      "midi": 72,
      "hit": false,
      "t": 5270.265000000001,
      "d": 202.70250000000033,
      "v": 127
    },
    {
      "midi": 48,
      "hit": false,
      "t": 5270.265000000003,
      "d": 202.70250000000033,
      "v": 127
    },
    {
      "midi": 72,
      "hit": false,
      "t": 5472.967500000002,
      "d": 101.35124999999971,
      "v": 127
    },
    {
      "midi": 50,
      "hit": false,
      "t": 5472.967500000003,
      "d": 202.70250000000033,
      "v": 127
    },
    {
      "midi": 74,
      "hit": false,
      "t": 5574.318750000001,
      "d": 101.35124999999971,
      "v": 127
    },
    {
      "midi": 72,
      "hit": false,
      "t": 5675.670000000001,
      "d": 101.35124999999971,
      "v": 127
    },
    {
      "midi": 52,
      "hit": false,
      "t": 5675.670000000004,
      "d": 202.70250000000033,
      "v": 127
    },
    {
      "midi": 70,
      "hit": false,
      "t": 5777.021250000001,
      "d": 101.35124999999971,
      "v": 127
    },
    {
      "midi": 69,
      "hit": false,
      "t": 5878.3725,
      "d": 202.70250000000033,
      "v": 127
    },
    {
      "midi": 53,
      "hit": false,
      "t": 5878.372500000004,
      "d": 202.70250000000033,
      "v": 127
    },
    {
      "midi": 69,
      "hit": false,
      "t": 6081.075000000001,
      "d": 202.70250000000033,
      "v": 127
    },
    {
      "midi": 55,
      "hit": false,
      "t": 6081.075000000004,
      "d": 202.70250000000033,
      "v": 127
    },
    {
      "midi": 67,
      "hit": false,
      "t": 6283.777500000001,
      "d": 101.35124999999971,
      "v": 127
    },
    {
      "midi": 57,
      "hit": false,
      "t": 6283.777500000005,
      "d": 202.70250000000033,
      "v": 127
    },
    {
      "midi": 69,
      "hit": false,
      "t": 6385.128750000001,
      "d": 101.35124999999971,
      "v": 127
    },
    {
      "midi": 67,
      "hit": false,
      "t": 6486.4800000000005,
      "d": 101.35124999999971,
      "v": 127
    },
    {
      "midi": 59,
      "hit": false,
      "t": 6486.480000000005,
      "d": 202.70250000000033,
      "v": 127
    },
    {
      "midi": 65,
      "hit": false,
      "t": 6587.83125,
      "d": 101.35124999999971,
      "v": 127
    },
    {
      "midi": 72,
      "hit": false,
      "t": 6689.1825,
      "d": 202.70250000000033,
      "v": 127
    },
    {
      "midi": 60,
      "hit": false,
      "t": 6689.182500000005,
      "d": 202.70250000000033,
      "v": 127
    },
    {
      "midi": 64,
      "hit": false,
      "t": 6689.182500000005,
      "d": 202.70250000000033,
      "v": 127
    },
    {
      "midi": 72,
      "hit": false,
      "t": 6891.885,
      "d": 202.70250000000033,
      "v": 127
    },
    {
      "midi": 62,
      "hit": false,
      "t": 6891.885000000006,
      "d": 202.70250000000033,
      "v": 127
    },
    {
      "midi": 65,
      "hit": false,
      "t": 6891.885000000006,
      "d": 202.70250000000033,
      "v": 127
    },
    {
      "midi": 72,
      "hit": false,
      "t": 7094.587500000001,
      "d": 202.70250000000033,
      "v": 127
    },
    {
      "midi": 64,
      "hit": false,
      "t": 7094.587500000006,
      "d": 202.70250000000033,
      "v": 127
    },
    {
      "midi": 67,
      "hit": false,
      "t": 7094.587500000006,
      "d": 202.70250000000033,
      "v": 127
    },
    {
      "midi": 67,
      "hit": false,
      "t": 7297.290000000001,
      "d": 202.70250000000033,
      "v": 127
    },
    {
      "midi": 62,
      "hit": false,
      "t": 7297.290000000006,
      "d": 202.70250000000033,
      "v": 127
    },
    {
      "midi": 65,
      "hit": false,
      "t": 7297.290000000006,
      "d": 202.70250000000033,
      "v": 127
    },
    {
      "midi": 76,
      "hit": false,
      "t": 7499.992500000001,
      "d": 202.70250000000033,
      "v": 127
    },
    {
      "midi": 60,
      "hit": false,
      "t": 7499.992500000007,
      "d": 202.70250000000033,
      "v": 127
    },
    {
      "midi": 64,
      "hit": false,
      "t": 7499.992500000007,
      "d": 202.70250000000033,
      "v": 127
    },
    {
      "midi": 76,
      "hit": false,
      "t": 7702.6950000000015,
      "d": 202.70250000000033,
      "v": 127
    },
    {
      "midi": 59,
      "hit": false,
      "t": 7702.695000000007,
      "d": 202.70250000000033,
      "v": 127
    },
    {
      "midi": 62,
      "hit": false,
      "t": 7702.695000000007,
      "d": 202.70250000000033,
      "v": 127
    },
    {
      "midi": 76,
      "hit": false,
      "t": 7905.397500000002,
      "d": 202.70250000000033,
      "v": 127
    },
    {
      "midi": 60,
      "hit": false,
      "t": 7905.397500000007,
      "d": 202.70250000000033,
      "v": 127
    },
    {
      "midi": 64,
      "hit": false,
      "t": 7905.397500000007,
      "d": 202.70250000000033,
      "v": 127
    },
    {
      "midi": 72,
      "hit": false,
      "t": 8108.100000000002,
      "d": 202.70249999999942,
      "v": 127
    },
    {
      "midi": 57,
      "hit": false,
      "t": 8108.100000000008,
      "d": 202.70249999999942,
      "v": 127
    },
    {
      "midi": 60,
      "hit": false,
      "t": 8108.100000000008,
      "d": 202.70249999999942,
      "v": 127
    },
    {
      "midi": 79,
      "hit": false,
      "t": 8310.802500000002,
      "d": 202.70249999999942,
      "v": 127
    },
    {
      "midi": 59,
      "hit": false,
      "t": 8310.802500000007,
      "d": 202.70249999999942,
      "v": 127
    },
    {
      "midi": 62,
      "hit": false,
      "t": 8310.802500000007,
      "d": 202.70249999999942,
      "v": 127
    },
    {
      "midi": 79,
      "hit": false,
      "t": 8513.505000000001,
      "d": 202.70249999999942,
      "v": 127
    },
    {
      "midi": 55,
      "hit": false,
      "t": 8513.505000000006,
      "d": 202.70249999999942,
      "v": 127
    },
    {
      "midi": 59,
      "hit": false,
      "t": 8513.505000000006,
      "d": 202.70249999999942,
      "v": 127
    },
    {
      "midi": 79,
      "hit": false,
      "t": 8716.2075,
      "d": 101.35124999999971,
      "v": 127
    },
    {
      "midi": 57,
      "hit": false,
      "t": 8716.207500000006,
      "d": 202.70249999999942,
      "v": 127
    },
    {
      "midi": 60,
      "hit": false,
      "t": 8716.207500000006,
      "d": 202.70249999999942,
      "v": 127
    },
    {
      "midi": 81,
      "hit": false,
      "t": 8817.55875,
      "d": 101.35124999999971,
      "v": 127
    },
    {
      "midi": 79,
      "hit": false,
      "t": 8918.91,
      "d": 101.35124999999971,
      "v": 127
    },
    {
      "midi": 59,
      "hit": false,
      "t": 8918.910000000005,
      "d": 202.70249999999942,
      "v": 127
    },
    {
      "midi": 62,
      "hit": false,
      "t": 8918.910000000005,
      "d": 202.70249999999942,
      "v": 127
    },
    {
      "midi": 77,
      "hit": false,
      "t": 9020.26125,
      "d": 101.35124999999971,
      "v": 127
    },
    {
      "midi": 76,
      "hit": false,
      "t": 9121.6125,
      "d": 202.70249999999942,
      "v": 127
    },
    {
      "midi": 60,
      "hit": false,
      "t": 9121.612500000005,
      "d": 202.70249999999942,
      "v": 127
    },
    {
      "midi": 64,
      "hit": false,
      "t": 9121.612500000005,
      "d": 202.70249999999942,
      "v": 127
    },
    {
      "midi": 76,
      "hit": false,
      "t": 9324.314999999999,
      "d": 202.70249999999942,
      "v": 127
    },
    {
      "midi": 62,
      "hit": false,
      "t": 9324.315000000004,
      "d": 202.70249999999942,
      "v": 127
    },
    {
      "midi": 65,
      "hit": false,
      "t": 9324.315000000004,
      "d": 202.70249999999942,
      "v": 127
    },
    {
      "midi": 76,
      "hit": false,
      "t": 9527.017499999998,
      "d": 101.35124999999971,
      "v": 127
    },
    {
      "midi": 64,
      "hit": false,
      "t": 9527.017500000004,
      "d": 202.70249999999942,
      "v": 127
    },
    {
      "midi": 67,
      "hit": false,
      "t": 9527.017500000004,
      "d": 202.70249999999942,
      "v": 127
    },
    {
      "midi": 74,
      "hit": false,
      "t": 9628.368749999998,
      "d": 101.35124999999971,
      "v": 127
    },
    {
      "midi": 76,
      "hit": false,
      "t": 9729.719999999998,
      "d": 101.35124999999971,
      "v": 127
    },
    {
      "midi": 60,
      "hit": false,
      "t": 9729.720000000003,
      "d": 202.70249999999942,
      "v": 127
    },
    {
      "midi": 64,
      "hit": false,
      "t": 9729.720000000003,
      "d": 202.70249999999942,
      "v": 127
    },
    {
      "midi": 72,
      "hit": false,
      "t": 9831.071249999997,
      "d": 101.35124999999971,
      "v": 127
    },
    {
      "midi": 81,
      "hit": false,
      "t": 9932.422499999997,
      "d": 202.70249999999942,
      "v": 127
    },
    {
      "midi": 61,
      "hit": false,
      "t": 9932.422500000002,
      "d": 202.70249999999942,
      "v": 127
    },
    {
      "midi": 64,
      "hit": false,
      "t": 9932.422500000002,
      "d": 202.70249999999942,
      "v": 127
    },
    {
      "midi": 81,
      "hit": false,
      "t": 10135.124999999996,
      "d": 202.70249999999942,
      "v": 127
    },
    {
      "midi": 57,
      "hit": false,
      "t": 10135.125000000002,
      "d": 202.70249999999942,
      "v": 127
    },
    {
      "midi": 61,
      "hit": false,
      "t": 10135.125000000002,
      "d": 202.70249999999942,
      "v": 127
    },
    {
      "midi": 81,
      "hit": false,
      "t": 10337.827499999996,
      "d": 101.35124999999971,
      "v": 127
    },
    {
      "midi": 59,
      "hit": false,
      "t": 10337.827500000001,
      "d": 202.70249999999942,
      "v": 127
    },
    {
      "midi": 62,
      "hit": false,
      "t": 10337.827500000001,
      "d": 202.70249999999942,
      "v": 127
    },
    {
      "midi": 82,
      "hit": false,
      "t": 10439.178749999995,
      "d": 101.35124999999971,
      "v": 127
    },
    {
      "midi": 81,
      "hit": false,
      "t": 10540.529999999995,
      "d": 101.35124999999971,
      "v": 127
    },
    {
      "midi": 61,
      "hit": false,
      "t": 10540.53,
      "d": 202.70249999999942,
      "v": 127
    },
    {
      "midi": 64,
      "hit": false,
      "t": 10540.53,
      "d": 202.70249999999942,
      "v": 127
    },
    {
      "midi": 79,
      "hit": false,
      "t": 10641.881249999995,
      "d": 101.35124999999971,
      "v": 127
    },
    {
      "midi": 77,
      "hit": false,
      "t": 10743.232499999995,
      "d": 202.70249999999942,
      "v": 127
    },
    {
      "midi": 62,
      "hit": false,
      "t": 10743.2325,
      "d": 202.70249999999942,
      "v": 127
    },
    {
      "midi": 65,
      "hit": false,
      "t": 10743.2325,
      "d": 202.70249999999942,
      "v": 127
    },
    {
      "midi": 77,
      "hit": false,
      "t": 10945.934999999994,
      "d": 202.70249999999942,
      "v": 127
    },
    {
      "midi": 64,
      "hit": false,
      "t": 10945.935,
      "d": 202.70249999999942,
      "v": 127
    },
    {
      "midi": 67,
      "hit": false,
      "t": 10945.935,
      "d": 202.70249999999942,
      "v": 127
    },
    {
      "midi": 77,
      "hit": false,
      "t": 11148.637499999993,
      "d": 101.35124999999971,
      "v": 127
    },
    {
      "midi": 65,
      "hit": false,
      "t": 11148.637499999999,
      "d": 202.70249999999942,
      "v": 127
    },
    {
      "midi": 69,
      "hit": false,
      "t": 11148.637499999999,
      "d": 202.70249999999942,
      "v": 127
    },
    {
      "midi": 76,
      "hit": false,
      "t": 11249.988749999993,
      "d": 101.35124999999971,
      "v": 127
    },
    {
      "midi": 77,
      "hit": false,
      "t": 11351.339999999993,
      "d": 101.35124999999971,
      "v": 127
    },
    {
      "midi": 62,
      "hit": false,
      "t": 11351.339999999998,
      "d": 202.70249999999942,
      "v": 127
    },
    {
      "midi": 65,
      "hit": false,
      "t": 11351.339999999998,
      "d": 202.70249999999942,
      "v": 127
    },
    {
      "midi": 74,
      "hit": false,
      "t": 11452.691249999993,
      "d": 101.35124999999971,
      "v": 127
    },
    {
      "midi": 89,
      "hit": false,
      "t": 11554.042499999992,
      "d": 202.70249999999942,
      "v": 127
    },
    {
      "midi": 59,
      "hit": false,
      "t": 11554.042499999998,
      "d": 202.70249999999942,
      "v": 127
    },
    {
      "midi": 62,
      "hit": false,
      "t": 11554.042499999998,
      "d": 202.70249999999942,
      "v": 127
    },
    {
      "midi": 67,
      "hit": false,
      "t": 11554.042499999998,
      "d": 202.70249999999942,
      "v": 127
    },
    {
      "midi": 89,
      "hit": false,
      "t": 11756.744999999992,
      "d": 202.70249999999942,
      "v": 127
    },
    {
      "midi": 59,
      "hit": false,
      "t": 11756.744999999997,
      "d": 202.70249999999942,
      "v": 127
    },
    {
      "midi": 62,
      "hit": false,
      "t": 11756.744999999997,
      "d": 202.70249999999942,
      "v": 127
    },
    {
      "midi": 67,
      "hit": false,
      "t": 11756.744999999997,
      "d": 202.70249999999942,
      "v": 127
    },
    {
      "midi": 88,
      "hit": false,
      "t": 11959.447499999991,
      "d": 101.35124999999971,
      "v": 127
    },
    {
      "midi": 60,
      "hit": false,
      "t": 11959.447499999997,
      "d": 202.70249999999942,
      "v": 127
    },
    {
      "midi": 64,
      "hit": false,
      "t": 11959.447499999997,
      "d": 202.70249999999942,
      "v": 127
    },
    {
      "midi": 67,
      "hit": false,
      "t": 11959.447499999997,
      "d": 202.70249999999942,
      "v": 127
    },
    {
      "midi": 87,
      "hit": false,
      "t": 12060.79874999999,
      "d": 101.35124999999971,
      "v": 127
    },
    {
      "midi": 88,
      "hit": false,
      "t": 12162.14999999999,
      "d": 101.35124999999971,
      "v": 127
    },
    {
      "midi": 84,
      "hit": false,
      "t": 12263.50124999999,
      "d": 101.35124999999971,
      "v": 127
    },
    {
      "midi": 89,
      "hit": false,
      "t": 12364.85249999999,
      "d": 202.70249999999942,
      "v": 127
    },
    {
      "midi": 59,
      "hit": false,
      "t": 12364.852499999995,
      "d": 202.70249999999942,
      "v": 127
    },
    {
      "midi": 62,
      "hit": false,
      "t": 12364.852499999995,
      "d": 202.70249999999942,
      "v": 127
    },
    {
      "midi": 67,
      "hit": false,
      "t": 12364.852499999995,
      "d": 202.70249999999942,
      "v": 127
    },
    {
      "midi": 89,
      "hit": false,
      "t": 12567.55499999999,
      "d": 202.70249999999942,
      "v": 127
    },
    {
      "midi": 59,
      "hit": false,
      "t": 12567.554999999995,
      "d": 202.70249999999942,
      "v": 127
    },
    {
      "midi": 62,
      "hit": false,
      "t": 12567.554999999995,
      "d": 202.70249999999942,
      "v": 127
    },
    {
      "midi": 67,
      "hit": false,
      "t": 12567.554999999995,
      "d": 202.70249999999942,
      "v": 127
    },
    {
      "midi": 88,
      "hit": false,
      "t": 12770.257499999989,
      "d": 101.35124999999971,
      "v": 127
    },
    {
      "midi": 60,
      "hit": false,
      "t": 12770.257499999994,
      "d": 202.70249999999942,
      "v": 127
    },
    {
      "midi": 64,
      "hit": false,
      "t": 12770.257499999994,
      "d": 202.70249999999942,
      "v": 127
    },
    {
      "midi": 67,
      "hit": false,
      "t": 12770.257499999994,
      "d": 202.70249999999942,
      "v": 127
    },
    {
      "midi": 87,
      "hit": false,
      "t": 12871.608749999989,
      "d": 101.35124999999971,
      "v": 127
    },
    {
      "midi": 88,
      "hit": false,
      "t": 12972.959999999988,
      "d": 101.35124999999971,
      "v": 127
    },
    {
      "midi": 84,
      "hit": false,
      "t": 13074.311249999988,
      "d": 101.35124999999971,
      "v": 127
    },
    {
      "midi": 86,
      "hit": false,
      "t": 13175.662499999988,
      "d": 101.35124999999971,
      "v": 127
    },
    {
      "midi": 53,
      "hit": false,
      "t": 13175.662499999993,
      "d": 202.70249999999942,
      "v": 127
    },
    {
      "midi": 57,
      "hit": false,
      "t": 13175.662499999993,
      "d": 202.70249999999942,
      "v": 127
    },
    {
      "midi": 62,
      "hit": false,
      "t": 13175.662499999993,
      "d": 202.70249999999942,
      "v": 127
    },
    {
      "midi": 84,
      "hit": false,
      "t": 13277.013749999987,
      "d": 101.35124999999971,
      "v": 127
    },
    {
      "midi": 83,
      "hit": false,
      "t": 13378.364999999987,
      "d": 101.35124999999971,
      "v": 127
    },
    {
      "midi": 81,
      "hit": false,
      "t": 13479.716249999987,
      "d": 101.35124999999971,
      "v": 127
    },
    {
      "midi": 79,
      "hit": false,
      "t": 13581.067499999986,
      "d": 101.35124999999971,
      "v": 127
    },
    {
      "midi": 55,
      "hit": false,
      "t": 13581.067499999992,
      "d": 202.70249999999942,
      "v": 127
    },
    {
      "midi": 59,
      "hit": false,
      "t": 13581.067499999992,
      "d": 202.70249999999942,
      "v": 127
    },
    {
      "midi": 62,
      "hit": false,
      "t": 13581.067499999992,
      "d": 202.70249999999942,
      "v": 127
    },
    {
      "midi": 77,
      "hit": false,
      "t": 13682.418749999986,
      "d": 101.35124999999971,
      "v": 127
    },
    {
      "midi": 76,
      "hit": false,
      "t": 13783.769999999986,
      "d": 101.35124999999971,
      "v": 127
    },
    {
      "midi": 74,
      "hit": false,
      "t": 13885.121249999986,
      "d": 101.35124999999971,
      "v": 127
    },
    {
      "midi": 72,
      "hit": false,
      "t": 13986.472499999985,
      "d": 101.35124999999971,
      "v": 127
    },
    {
      "midi": 48,
      "hit": false,
      "t": 13986.47249999999,
      "d": 405.40500000000065,
      "v": 127
    },
    {
      "midi": 52,
      "hit": false,
      "t": 13986.47249999999,
      "d": 405.40500000000065,
      "v": 127
    },
    {
      "midi": 55,
      "hit": false,
      "t": 13986.47249999999,
      "d": 405.40500000000065,
      "v": 127
    },
    {
      "midi": 60,
      "hit": false,
      "t": 13986.47249999999,
      "d": 405.40500000000065,
      "v": 127
    },
    {
      "midi": 71,
      "hit": false,
      "t": 14087.823749999985,
      "d": 101.35124999999971,
      "v": 127
    },
    {
      "midi": 72,
      "hit": false,
      "t": 14189.174999999985,
      "d": 101.35124999999971,
      "v": 127
    },
    {
      "midi": 74,
      "hit": false,
      "t": 14290.526249999984,
      "d": 101.35124999999971,
      "v": 127
    },
    {
      "midi": 76,
      "hit": false,
      "t": 14391.877499999984,
      "d": 101.35124999999971,
      "v": 127
    },
    {
      "midi": 77,
      "hit": false,
      "t": 14493.228749999984,
      "d": 101.35124999999971,
      "v": 127
    },
    {
      "midi": 79,
      "hit": false,
      "t": 14594.579999999984,
      "d": 101.35124999999971,
      "v": 127
    },
    {
      "midi": 76,
      "hit": false,
      "t": 14695.931249999983,
      "d": 101.35124999999971,
      "v": 127
    },
    {
      "midi": 77,
      "hit": false,
      "t": 14797.282499999983,
      "d": 101.35124999999971,
      "v": 127
    },
    {
      "midi": 47,
      "hit": false,
      "t": 14797.282499999992,
      "d": 202.70249999999942,
      "v": 127
    },
    {
      "midi": 50,
      "hit": false,
      "t": 14797.282499999992,
      "d": 202.70249999999942,
      "v": 127
    },
    {
      "midi": 53,
      "hit": false,
      "t": 14797.282499999992,
      "d": 202.70249999999942,
      "v": 127
    },
    {
      "midi": 55,
      "hit": false,
      "t": 14797.282499999992,
      "d": 202.70249999999942,
      "v": 127
    },
    {
      "midi": 74,
      "hit": false,
      "t": 14898.633749999983,
      "d": 101.35124999999971,
      "v": 127
    },
    {
      "midi": 77,
      "hit": false,
      "t": 14999.984999999982,
      "d": 101.35124999999971,
      "v": 127
    },
    {
      "midi": 47,
      "hit": false,
      "t": 14999.984999999991,
      "d": 202.70249999999942,
      "v": 127
    },
    {
      "midi": 50,
      "hit": false,
      "t": 14999.984999999991,
      "d": 202.70249999999942,
      "v": 127
    },
    {
      "midi": 53,
      "hit": false,
      "t": 14999.984999999991,
      "d": 202.70249999999942,
      "v": 127
    },
    {
      "midi": 55,
      "hit": false,
      "t": 14999.984999999991,
      "d": 202.70249999999942,
      "v": 127
    },
    {
      "midi": 74,
      "hit": false,
      "t": 15101.336249999982,
      "d": 101.35124999999971,
      "v": 127
    },
    {
      "midi": 76,
      "hit": false,
      "t": 15202.687499999982,
      "d": 101.35124999999971,
      "v": 127
    },
    {
      "midi": 48,
      "hit": false,
      "t": 15202.68749999999,
      "d": 202.70249999999942,
      "v": 127
    },
    {
      "midi": 52,
      "hit": false,
      "t": 15202.68749999999,
      "d": 202.70249999999942,
      "v": 127
    },
    {
      "midi": 55,
      "hit": false,
      "t": 15202.68749999999,
      "d": 202.70249999999942,
      "v": 127
    },
    {
      "midi": 75,
      "hit": false,
      "t": 15304.038749999982,
      "d": 101.35124999999971,
      "v": 127
    },
    {
      "midi": 76,
      "hit": false,
      "t": 15405.389999999981,
      "d": 101.35124999999971,
      "v": 127
    },
    {
      "midi": 72,
      "hit": false,
      "t": 15506.741249999981,
      "d": 101.35124999999971,
      "v": 127
    },
    {
      "midi": 77,
      "hit": false,
      "t": 15608.09249999998,
      "d": 101.35124999999971,
      "v": 127
    },
    {
      "midi": 47,
      "hit": false,
      "t": 15608.09249999999,
      "d": 202.70249999999942,
      "v": 127
    },
    {
      "midi": 50,
      "hit": false,
      "t": 15608.09249999999,
      "d": 202.70249999999942,
      "v": 127
    },
    {
      "midi": 53,
      "hit": false,
      "t": 15608.09249999999,
      "d": 202.70249999999942,
      "v": 127
    },
    {
      "midi": 55,
      "hit": false,
      "t": 15608.09249999999,
      "d": 202.70249999999942,
      "v": 127
    },
    {
      "midi": 74,
      "hit": false,
      "t": 15709.44374999998,
      "d": 101.35124999999971,
      "v": 127
    },
    {
      "midi": 77,
      "hit": false,
      "t": 15810.79499999998,
      "d": 101.35124999999971,
      "v": 127
    },
    {
      "midi": 47,
      "hit": false,
      "t": 15810.79499999999,
      "d": 202.70249999999942,
      "v": 127
    },
    {
      "midi": 50,
      "hit": false,
      "t": 15810.79499999999,
      "d": 202.70249999999942,
      "v": 127
    },
    {
      "midi": 53,
      "hit": false,
      "t": 15810.79499999999,
      "d": 202.70249999999942,
      "v": 127
    },
    {
      "midi": 55,
      "hit": false,
      "t": 15810.79499999999,
      "d": 202.70249999999942,
      "v": 127
    },
    {
      "midi": 74,
      "hit": false,
      "t": 15912.14624999998,
      "d": 101.35124999999971,
      "v": 127
    },
    {
      "midi": 76,
      "hit": false,
      "t": 16013.49749999998,
      "d": 101.35124999999971,
      "v": 127
    },
    {
      "midi": 48,
      "hit": false,
      "t": 16013.497499999989,
      "d": 202.70249999999942,
      "v": 127
    },
    {
      "midi": 52,
      "hit": false,
      "t": 16013.497499999989,
      "d": 202.70249999999942,
      "v": 127
    },
    {
      "midi": 55,
      "hit": false,
      "t": 16013.497499999989,
      "d": 202.70249999999942,
      "v": 127
    },
    {
      "midi": 75,
      "hit": false,
      "t": 16114.84874999998,
      "d": 101.35124999999971,
      "v": 127
    },
    {
      "midi": 76,
      "hit": false,
      "t": 16216.199999999979,
      "d": 101.35124999999971,
      "v": 127
    },
    {
      "midi": 72,
      "hit": false,
      "t": 16317.551249999979,
      "d": 101.35124999999971,
      "v": 127
    },
    {
      "midi": 81,
      "hit": false,
      "t": 16418.90249999998,
      "d": 101.35124999999971,
      "v": 127
    },
    {
      "midi": 41,
      "hit": false,
      "t": 16418.90249999999,
      "d": 202.70249999999942,
      "v": 127
    },
    {
      "midi": 80,
      "hit": false,
      "t": 16520.253749999978,
      "d": 101.35124999999971,
      "v": 127
    },
    {
      "midi": 81,
      "hit": false,
      "t": 16621.604999999978,
      "d": 101.35124999999971,
      "v": 127
    },
    {
      "midi": 53,
      "hit": false,
      "t": 16621.60499999999,
      "d": 202.70249999999942,
      "v": 127
    },
    {
      "midi": 80,
      "hit": false,
      "t": 16722.956249999977,
      "d": 101.35124999999971,
      "v": 127
    },
    {
      "midi": 81,
      "hit": false,
      "t": 16824.307499999977,
      "d": 101.35124999999971,
      "v": 127
    },
    {
      "midi": 53,
      "hit": false,
      "t": 16824.307499999988,
      "d": 202.70249999999942,
      "v": 127
    },
    {
      "midi": 79,
      "hit": false,
      "t": 16925.658749999977,
      "d": 101.35124999999971,
      "v": 127
    },
    {
      "midi": 77,
      "hit": false,
      "t": 17027.009999999977,
      "d": 101.35124999999971,
      "v": 127
    },
    {
      "midi": 53,
      "hit": false,
      "t": 17027.009999999987,
      "d": 202.70249999999942,
      "v": 127
    },
    {
      "midi": 76,
      "hit": false,
      "t": 17128.361249999976,
      "d": 101.35124999999971,
      "v": 127
    },
    {
      "midi": 74,
      "hit": false,
      "t": 17229.712499999976,
      "d": 101.35124999999971,
      "v": 127
    },
    {
      "midi": 43,
      "hit": false,
      "t": 17229.712499999987,
      "d": 202.70249999999942,
      "v": 127
    },
    {
      "midi": 72,
      "hit": false,
      "t": 17331.063749999976,
      "d": 101.35124999999971,
      "v": 127
    },
    {
      "midi": 71,
      "hit": false,
      "t": 17432.414999999975,
      "d": 101.35124999999971,
      "v": 127
    },
    {
      "midi": 55,
      "hit": false,
      "t": 17432.414999999986,
      "d": 202.70249999999942,
      "v": 127
    },
    {
      "midi": 69,
      "hit": false,
      "t": 17533.766249999975,
      "d": 101.35124999999971,
      "v": 127
    },
    {
      "midi": 67,
      "hit": false,
      "t": 17635.117499999975,
      "d": 101.35124999999971,
      "v": 127
    },
    {
      "midi": 55,
      "hit": false,
      "t": 17635.117499999986,
      "d": 202.70249999999942,
      "v": 127
    },
    {
      "midi": 65,
      "hit": false,
      "t": 17736.468749999975,
      "d": 101.35124999999971,
      "v": 127
    },
    {
      "midi": 64,
      "hit": false,
      "t": 17837.819999999974,
      "d": 101.35124999999971,
      "v": 127
    },
    {
      "midi": 55,
      "hit": false,
      "t": 17837.819999999985,
      "d": 202.70249999999942,
      "v": 127
    },
    {
      "midi": 62,
      "hit": false,
      "t": 17939.171249999974,
      "d": 101.35124999999971,
      "v": 127
    },
    {
      "midi": 60,
      "hit": false,
      "t": 18040.522499999974,
      "d": 202.70249999999942,
      "v": 127
    },
    {
      "midi": 48,
      "hit": false,
      "t": 18040.522499999985,
      "d": 202.70249999999942,
      "v": 127
    },
    {
      "midi": 52,
      "hit": false,
      "t": 18243.224999999973,
      "d": 202.70249999999942,
      "v": 127
    },
    {
      "midi": 55,
      "hit": false,
      "t": 18243.224999999973,
      "d": 202.70249999999942,
      "v": 127
    },
    {
      "midi": 48,
      "hit": false,
      "t": 18243.224999999984,
      "d": 202.70249999999942,
      "v": 127
    },
    {
      "midi": 52,
      "hit": false,
      "t": 18445.927499999972,
      "d": 202.70249999999942,
      "v": 127
    },
    {
      "midi": 55,
      "hit": false,
      "t": 18445.927499999972,
      "d": 202.70249999999942,
      "v": 127
    },
    {
      "midi": 48,
      "hit": false,
      "t": 18445.927499999983,
      "d": 202.70249999999942,
      "v": 127
    },
    {
      "midi": 52,
      "hit": false,
      "t": 18648.629999999972,
      "d": 202.70249999999942,
      "v": 127
    },
    {
      "midi": 60,
      "hit": false,
      "t": 18648.629999999972,
      "d": 202.70249999999942,
      "v": 127
    },
    {
      "midi": 43,
      "hit": false,
      "t": 18648.629999999983,
      "d": 202.70249999999942,
      "v": 127
    },
    {
      "midi": 52,
      "hit": false,
      "t": 18851.33249999997,
      "d": 202.70249999999942,
      "v": 127
    },
    {
      "midi": 55,
      "hit": false,
      "t": 18851.33249999997,
      "d": 202.70249999999942,
      "v": 127
    },
    {
      "midi": 48,
      "hit": false,
      "t": 18851.332499999982,
      "d": 202.70249999999942,
      "v": 127
    },
    {
      "midi": 52,
      "hit": false,
      "t": 19054.03499999997,
      "d": 202.70249999999942,
      "v": 127
    },
    {
      "midi": 55,
      "hit": false,
      "t": 19054.03499999997,
      "d": 202.70249999999942,
      "v": 127
    },
    {
      "midi": 48,
      "hit": false,
      "t": 19054.03499999998,
      "d": 202.70249999999942,
      "v": 127
    },
    {
      "midi": 52,
      "hit": false,
      "t": 19256.73749999997,
      "d": 202.70249999999942,
      "v": 127
    },
    {
      "midi": 55,
      "hit": false,
      "t": 19256.73749999997,
      "d": 202.70249999999942,
      "v": 127
    },
    {
      "midi": 48,
      "hit": false,
      "t": 19256.73749999998,
      "d": 202.70249999999942,
      "v": 127
    },
    {
      "midi": 52,
      "hit": false,
      "t": 19459.43999999997,
      "d": 202.70249999999942,
      "v": 127
    },
    {
      "midi": 60,
      "hit": false,
      "t": 19459.43999999997,
      "d": 202.70249999999942,
      "v": 127
    },
    {
      "midi": 43,
      "hit": false,
      "t": 19459.43999999998,
      "d": 202.70249999999942,
      "v": 127
    },
    {
      "midi": 53,
      "hit": false,
      "t": 19662.14249999997,
      "d": 202.70249999999942,
      "v": 127
    },
    {
      "midi": 55,
      "hit": false,
      "t": 19662.14249999997,
      "d": 202.70249999999942,
      "v": 127
    },
    {
      "midi": 50,
      "hit": false,
      "t": 19662.14249999998,
      "d": 202.70249999999942,
      "v": 127
    },
    {
      "midi": 53,
      "hit": false,
      "t": 19864.84499999997,
      "d": 202.70249999999942,
      "v": 127
    },
    {
      "midi": 62,
      "hit": false,
      "t": 19864.84499999997,
      "d": 202.70249999999942,
      "v": 127
    },
    {
      "midi": 48,
      "hit": false,
      "t": 19864.84499999998,
      "d": 202.70249999999942,
      "v": 127
    },
    {
      "midi": 53,
      "hit": false,
      "t": 20067.547499999968,
      "d": 202.70249999999942,
      "v": 127
    },
    {
      "midi": 62,
      "hit": false,
      "t": 20067.547499999968,
      "d": 202.70249999999942,
      "v": 127
    },
    {
      "midi": 47,
      "hit": false,
      "t": 20067.54749999998,
      "d": 202.70249999999942,
      "v": 127
    },
    {
      "midi": 53,
      "hit": false,
      "t": 20270.249999999967,
      "d": 202.70249999999942,
      "v": 127
    },
    {
      "midi": 62,
      "hit": false,
      "t": 20270.249999999967,
      "d": 202.70249999999942,
      "v": 127
    },
    {
      "midi": 45,
      "hit": false,
      "t": 20270.249999999978,
      "d": 202.70249999999942,
      "v": 127
    },
    {
      "midi": 53,
      "hit": false,
      "t": 20472.952499999967,
      "d": 202.70249999999942,
      "v": 127
    },
    {
      "midi": 62,
      "hit": false,
      "t": 20472.952499999967,
      "d": 202.70249999999942,
      "v": 127
    },
    {
      "midi": 43,
      "hit": false,
      "t": 20472.952499999978,
      "d": 202.70249999999942,
      "v": 127
    },
    {
      "midi": 53,
      "hit": false,
      "t": 20675.654999999966,
      "d": 202.70249999999942,
      "v": 127
    },
    {
      "midi": 62,
      "hit": false,
      "t": 20675.654999999966,
      "d": 202.70249999999942,
      "v": 127
    },
    {
      "midi": 45,
      "hit": false,
      "t": 20675.654999999977,
      "d": 202.70249999999942,
      "v": 127
    },
    {
      "midi": 53,
      "hit": false,
      "t": 20878.357499999966,
      "d": 101.35124999999971,
      "v": 127
    },
    {
      "midi": 62,
      "hit": false,
      "t": 20878.357499999966,
      "d": 101.35124999999971,
      "v": 127
    },
    {
      "midi": 47,
      "hit": false,
      "t": 20878.357499999976,
      "d": 202.70249999999942,
      "v": 127
    },
    {
      "midi": 64,
      "hit": false,
      "t": 20979.708749999965,
      "d": 101.35124999999971,
      "v": 127
    },
    {
      "midi": 53,
      "hit": false,
      "t": 21081.059999999965,
      "d": 101.35124999999971,
      "v": 127
    },
    {
      "midi": 62,
      "hit": false,
      "t": 21081.059999999965,
      "d": 101.35124999999971,
      "v": 127
    },
    {
      "midi": 43,
      "hit": false,
      "t": 21081.059999999976,
      "d": 202.70249999999942,
      "v": 127
    },
    {
      "midi": 64,
      "hit": false,
      "t": 21182.411249999965,
      "d": 101.35124999999971,
      "v": 127
    },
    {
      "midi": 52,
      "hit": false,
      "t": 21283.762499999964,
      "d": 202.70249999999942,
      "v": 127
    },
    {
      "midi": 60,
      "hit": false,
      "t": 21283.762499999964,
      "d": 202.70249999999942,
      "v": 127
    },
    {
      "midi": 48,
      "hit": false,
      "t": 21283.762499999975,
      "d": 202.70249999999942,
      "v": 127
    },
    {
      "midi": 52,
      "hit": false,
      "t": 21486.464999999964,
      "d": 202.70249999999942,
      "v": 127
    },
    {
      "midi": 55,
      "hit": false,
      "t": 21486.464999999964,
      "d": 202.70249999999942,
      "v": 127
    },
    {
      "midi": 48,
      "hit": false,
      "t": 21486.464999999975,
      "d": 202.70249999999942,
      "v": 127
    },
    {
      "midi": 52,
      "hit": false,
      "t": 21689.167499999963,
      "d": 202.70249999999942,
      "v": 127
    },
    {
      "midi": 55,
      "hit": false,
      "t": 21689.167499999963,
      "d": 202.70249999999942,
      "v": 127
    },
    {
      "midi": 48,
      "hit": false,
      "t": 21689.167499999974,
      "d": 202.70249999999942,
      "v": 127
    },
    {
      "midi": 52,
      "hit": false,
      "t": 21891.869999999963,
      "d": 202.70249999999942,
      "v": 127
    },
    {
      "midi": 60,
      "hit": false,
      "t": 21891.869999999963,
      "d": 202.70249999999942,
      "v": 127
    },
    {
      "midi": 43,
      "hit": false,
      "t": 21891.869999999974,
      "d": 202.70249999999942,
      "v": 127
    },
    {
      "midi": 52,
      "hit": false,
      "t": 22094.572499999962,
      "d": 202.70249999999942,
      "v": 127
    },
    {
      "midi": 55,
      "hit": false,
      "t": 22094.572499999962,
      "d": 202.70249999999942,
      "v": 127
    },
    {
      "midi": 48,
      "hit": false,
      "t": 22094.572499999973,
      "d": 202.70249999999942,
      "v": 127
    },
    {
      "midi": 52,
      "hit": false,
      "t": 22297.27499999996,
      "d": 202.70249999999942,
      "v": 127
    },
    {
      "midi": 55,
      "hit": false,
      "t": 22297.27499999996,
      "d": 202.70249999999942,
      "v": 127
    },
    {
      "midi": 48,
      "hit": false,
      "t": 22297.274999999972,
      "d": 202.70249999999942,
      "v": 127
    },
    {
      "midi": 52,
      "hit": false,
      "t": 22499.97749999996,
      "d": 202.70249999999942,
      "v": 127
    },
    {
      "midi": 55,
      "hit": false,
      "t": 22499.97749999996,
      "d": 202.70249999999942,
      "v": 127
    },
    {
      "midi": 48,
      "hit": false,
      "t": 22499.97749999997,
      "d": 202.70249999999942,
      "v": 127
    },
    {
      "midi": 52,
      "hit": false,
      "t": 22702.67999999996,
      "d": 202.70249999999942,
      "v": 127
    },
    {
      "midi": 60,
      "hit": false,
      "t": 22702.67999999996,
      "d": 202.70249999999942,
      "v": 127
    },
    {
      "midi": 43,
      "hit": false,
      "t": 22702.67999999997,
      "d": 202.70249999999942,
      "v": 127
    },
    {
      "midi": 53,
      "hit": false,
      "t": 22905.38249999996,
      "d": 202.70249999999942,
      "v": 127
    },
    {
      "midi": 55,
      "hit": false,
      "t": 22905.38249999996,
      "d": 202.70249999999942,
      "v": 127
    },
    {
      "midi": 50,
      "hit": false,
      "t": 22905.38249999997,
      "d": 202.70249999999942,
      "v": 127
    },
    {
      "midi": 53,
      "hit": false,
      "t": 23108.08499999996,
      "d": 202.70249999999942,
      "v": 127
    },
    {
      "midi": 62,
      "hit": false,
      "t": 23108.08499999996,
      "d": 202.70249999999942,
      "v": 127
    },
    {
      "midi": 48,
      "hit": false,
      "t": 23108.08499999997,
      "d": 202.70249999999942,
      "v": 127
    },
    {
      "midi": 53,
      "hit": false,
      "t": 23310.78749999996,
      "d": 202.70249999999942,
      "v": 127
    },
    {
      "midi": 62,
      "hit": false,
      "t": 23310.78749999996,
      "d": 202.70249999999942,
      "v": 127
    },
    {
      "midi": 47,
      "hit": false,
      "t": 23310.78749999997,
      "d": 202.70249999999942,
      "v": 127
    },
    {
      "midi": 53,
      "hit": false,
      "t": 23513.489999999958,
      "d": 202.70249999999942,
      "v": 127
    },
    {
      "midi": 62,
      "hit": false,
      "t": 23513.489999999958,
      "d": 202.70249999999942,
      "v": 127
    },
    {
      "midi": 45,
      "hit": false,
      "t": 23513.48999999997,
      "d": 202.70249999999942,
      "v": 127
    },
    {
      "midi": 53,
      "hit": false,
      "t": 23716.192499999957,
      "d": 202.70249999999942,
      "v": 127
    },
    {
      "midi": 62,
      "hit": false,
      "t": 23716.192499999957,
      "d": 202.70249999999942,
      "v": 127
    },
    {
      "midi": 43,
      "hit": false,
      "t": 23716.19249999997,
      "d": 202.70249999999942,
      "v": 127
    },
    {
      "midi": 53,
      "hit": false,
      "t": 23918.894999999957,
      "d": 202.70249999999942,
      "v": 127
    },
    {
      "midi": 62,
      "hit": false,
      "t": 23918.894999999957,
      "d": 202.70249999999942,
      "v": 127
    },
    {
      "midi": 45,
      "hit": false,
      "t": 23918.894999999968,
      "d": 202.70249999999942,
      "v": 127
    },
    {
      "midi": 53,
      "hit": false,
      "t": 24121.597499999956,
      "d": 101.35124999999971,
      "v": 127
    },
    {
      "midi": 62,
      "hit": false,
      "t": 24121.597499999956,
      "d": 101.35124999999971,
      "v": 127
    },
    {
      "midi": 47,
      "hit": false,
      "t": 24121.597499999967,
      "d": 202.70249999999942,
      "v": 127
    },
    {
      "midi": 64,
      "hit": false,
      "t": 24222.948749999956,
      "d": 101.35124999999971,
      "v": 127
    },
    {
      "midi": 53,
      "hit": false,
      "t": 24324.299999999956,
      "d": 101.35124999999971,
      "v": 127
    },
    {
      "midi": 62,
      "hit": false,
      "t": 24324.299999999956,
      "d": 101.35124999999971,
      "v": 127
    },
    {
      "midi": 43,
      "hit": false,
      "t": 24324.299999999967,
      "d": 202.70249999999942,
      "v": 127
    },
    {
      "midi": 64,
      "hit": false,
      "t": 24425.651249999955,
      "d": 101.35124999999971,
      "v": 127
    },
    {
      "midi": 52,
      "hit": false,
      "t": 24527.002499999955,
      "d": 202.70249999999942,
      "v": 127
    },
    {
      "midi": 60,
      "hit": false,
      "t": 24527.002499999955,
      "d": 202.70249999999942,
      "v": 127
    },
    {
      "midi": 36,
      "hit": false,
      "t": 24527.002499999966,
      "d": 202.70249999999942,
      "v": 127
    },
    {
      "midi": 48,
      "hit": false,
      "t": 24527.002499999966,
      "d": 202.70249999999942,
      "v": 127
    },
    {
      "midi": 55,
      "hit": false,
      "t": 24729.704999999954,
      "d": 202.70249999999942,
      "v": 127
    },
    {
      "midi": 43,
      "hit": false,
      "t": 24729.704999999965,
      "d": 202.70249999999942,
      "v": 127
    },
    {
      "midi": 52,
      "hit": false,
      "t": 24932.407499999954,
      "d": 202.70249999999942,
      "v": 127
    },
    {
      "midi": 60,
      "hit": false,
      "t": 24932.407499999954,
      "d": 202.70249999999942,
      "v": 127
    },
    {
      "midi": 36,
      "hit": false,
      "t": 24932.407499999965,
      "d": 202.70249999999942,
      "v": 127
    },
    {
      "midi": 48,
      "hit": false,
      "t": 24932.407499999965,
      "d": 202.70249999999942,
      "v": 127
    },
    {
      "midi": 55,
      "hit": false,
      "t": 25135.109999999953,
      "d": 202.70249999999942,
      "v": 127
    },
    {
      "midi": 43,
      "hit": false,
      "t": 25135.109999999964,
      "d": 202.70249999999942,
      "v": 127
    },
    {
      "midi": 52,
      "hit": false,
      "t": 25337.812499999953,
      "d": 405.40499999999884,
      "v": 127
    },
    {
      "midi": 60,
      "hit": false,
      "t": 25337.812499999953,
      "d": 405.40499999999884,
      "v": 127
    },
    {
      "midi": 36,
      "hit": false,
      "t": 25337.812499999964,
      "d": 405.40499999999884,
      "v": 127
    },
    {
      "midi": 48,
      "hit": false,
      "t": 25337.812499999964,
      "d": 405.40499999999884,
      "v": 127
    },
    {
      "midi": 51,
      "hit": false,
      "t": 25945.91999999995,
      "d": 202.70249999999942,
      "v": 127
    },
    {
      "midi": 39,
      "hit": false,
      "t": 25945.919999999962,
      "d": 202.70249999999942,
      "v": 127
    },
    {
      "midi": 56,
      "hit": false,
      "t": 26148.62249999995,
      "d": 202.70249999999942,
      "v": 127
    },
    {
      "midi": 44,
      "hit": false,
      "t": 26148.62249999996,
      "d": 202.70249999999942,
      "v": 127
    },
    {
      "midi": 56,
      "hit": false,
      "t": 26351.32499999995,
      "d": 202.70249999999942,
      "v": 127
    },
    {
      "midi": 44,
      "hit": false,
      "t": 26351.32499999996,
      "d": 202.70249999999942,
      "v": 127
    },
    {
      "midi": 56,
      "hit": false,
      "t": 26554.02749999995,
      "d": 101.35124999999971,
      "v": 127
    },
    {
      "midi": 58,
      "hit": false,
      "t": 26554.02749999995,
      "d": 101.35124999999971,
      "v": 127
    },
    {
      "midi": 44,
      "hit": false,
      "t": 26554.02749999996,
      "d": 101.35124999999971,
      "v": 127
    },
    {
      "midi": 46,
      "hit": false,
      "t": 26554.02749999996,
      "d": 101.35124999999971,
      "v": 127
    },
    {
      "midi": 55,
      "hit": false,
      "t": 26655.37874999995,
      "d": 101.35124999999971,
      "v": 127
    },
    {
      "midi": 43,
      "hit": false,
      "t": 26655.37874999996,
      "d": 101.35124999999971,
      "v": 127
    },
    {
      "midi": 56,
      "hit": false,
      "t": 26756.72999999995,
      "d": 101.35124999999971,
      "v": 127
    },
    {
      "midi": 44,
      "hit": false,
      "t": 26756.72999999996,
      "d": 101.35124999999971,
      "v": 127
    },
    {
      "midi": 58,
      "hit": false,
      "t": 26858.08124999995,
      "d": 101.35124999999971,
      "v": 127
    },
    {
      "midi": 46,
      "hit": false,
      "t": 26858.08124999996,
      "d": 101.35124999999971,
      "v": 127
    },
    {
      "midi": 60,
      "hit": false,
      "t": 26959.432499999948,
      "d": 202.70249999999942,
      "v": 127
    },
    {
      "midi": 48,
      "hit": false,
      "t": 26959.43249999996,
      "d": 202.70249999999942,
      "v": 127
    },
    {
      "midi": 60,
      "hit": false,
      "t": 27162.134999999947,
      "d": 202.70249999999942,
      "v": 127
    },
    {
      "midi": 48,
      "hit": false,
      "t": 27162.13499999996,
      "d": 202.70249999999942,
      "v": 127
    },
    {
      "midi": 60,
      "hit": false,
      "t": 27364.837499999947,
      "d": 101.35124999999971,
      "v": 127
    },
    {
      "midi": 61,
      "hit": false,
      "t": 27364.837499999947,
      "d": 101.35124999999971,
      "v": 127
    },
    {
      "midi": 48,
      "hit": false,
      "t": 27364.837499999958,
      "d": 101.35124999999971,
      "v": 127
    },
    {
      "midi": 49,
      "hit": false,
      "t": 27364.837499999958,
      "d": 101.35124999999971,
      "v": 127
    },
    {
      "midi": 59,
      "hit": false,
      "t": 27466.188749999947,
      "d": 101.35124999999971,
      "v": 127
    },
    {
      "midi": 47,
      "hit": false,
      "t": 27466.188749999958,
      "d": 101.35124999999971,
      "v": 127
    },
    {
      "midi": 60,
      "hit": false,
      "t": 27567.539999999946,
      "d": 101.35124999999971,
      "v": 127
    },
    {
      "midi": 48,
      "hit": false,
      "t": 27567.539999999957,
      "d": 101.35124999999971,
      "v": 127
    },
    {
      "midi": 61,
      "hit": false,
      "t": 27668.891249999946,
      "d": 101.35124999999971,
      "v": 127
    },
    {
      "midi": 49,
      "hit": false,
      "t": 27668.891249999957,
      "d": 101.35124999999971,
      "v": 127
    },
    {
      "midi": 63,
      "hit": false,
      "t": 27770.242499999946,
      "d": 202.70249999999942,
      "v": 127
    },
    {
      "midi": 51,
      "hit": false,
      "t": 27770.242499999957,
      "d": 202.70249999999942,
      "v": 127
    },
    {
      "midi": 63,
      "hit": false,
      "t": 27972.944999999945,
      "d": 202.70249999999942,
      "v": 127
    },
    {
      "midi": 51,
      "hit": false,
      "t": 27972.944999999956,
      "d": 202.70249999999942,
      "v": 127
    },
    {
      "midi": 63,
      "hit": false,
      "t": 28175.647499999945,
      "d": 101.35124999999971,
      "v": 127
    },
    {
      "midi": 65,
      "hit": false,
      "t": 28175.647499999945,
      "d": 101.35124999999971,
      "v": 127
    },
    {
      "midi": 51,
      "hit": false,
      "t": 28175.647499999955,
      "d": 101.35124999999971,
      "v": 127
    },
    {
      "midi": 53,
      "hit": false,
      "t": 28175.647499999955,
      "d": 101.35124999999971,
      "v": 127
    },
    {
      "midi": 62,
      "hit": false,
      "t": 28276.998749999944,
      "d": 101.35124999999971,
      "v": 127
    },
    {
      "midi": 50,
      "hit": false,
      "t": 28276.998749999955,
      "d": 101.35124999999971,
      "v": 127
    },
    {
      "midi": 63,
      "hit": false,
      "t": 28378.349999999944,
      "d": 101.35124999999971,
      "v": 127
    },
    {
      "midi": 51,
      "hit": false,
      "t": 28378.349999999955,
      "d": 101.35124999999971,
      "v": 127
    },
    {
      "midi": 65,
      "hit": false,
      "t": 28479.701249999944,
      "d": 101.35124999999971,
      "v": 127
    },
    {
      "midi": 53,
      "hit": false,
      "t": 28479.701249999955,
      "d": 101.35124999999971,
      "v": 127
    },
    {
      "midi": 67,
      "hit": false,
      "t": 28581.052499999943,
      "d": 202.70249999999942,
      "v": 127
    },
    {
      "midi": 55,
      "hit": false,
      "t": 28581.052499999954,
      "d": 202.70249999999942,
      "v": 127
    },
    {
      "midi": 67,
      "hit": false,
      "t": 28783.754999999943,
      "d": 202.70249999999942,
      "v": 127
    },
    {
      "midi": 55,
      "hit": false,
      "t": 28783.754999999954,
      "d": 202.70249999999942,
      "v": 127
    },
    {
      "midi": 67,
      "hit": false,
      "t": 28986.457499999942,
      "d": 101.35124999999971,
      "v": 127
    },
    {
      "midi": 55,
      "hit": false,
      "t": 28986.457499999953,
      "d": 101.35124999999971,
      "v": 127
    },
    {
      "midi": 63,
      "hit": false,
      "t": 29087.808749999942,
      "d": 101.35124999999971,
      "v": 127
    },
    {
      "midi": 51,
      "hit": false,
      "t": 29087.808749999953,
      "d": 101.35124999999971,
      "v": 127
    },
    {
      "midi": 65,
      "hit": false,
      "t": 29189.15999999994,
      "d": 101.35124999999971,
      "v": 127
    },
    {
      "midi": 53,
      "hit": false,
      "t": 29189.159999999953,
      "d": 101.35124999999971,
      "v": 127
    },
    {
      "midi": 67,
      "hit": false,
      "t": 29290.51124999994,
      "d": 101.35124999999971,
      "v": 127
    },
    {
      "midi": 55,
      "hit": false,
      "t": 29290.511249999952,
      "d": 101.35124999999971,
      "v": 127
    },
    {
      "midi": 68,
      "hit": false,
      "t": 29391.86249999994,
      "d": 202.70249999999942,
      "v": 127
    },
    {
      "midi": 56,
      "hit": false,
      "t": 29391.862499999952,
      "d": 101.35124999999971,
      "v": 127
    },
    {
      "midi": 60,
      "hit": false,
      "t": 29493.21374999995,
      "d": 101.35124999999971,
      "v": 127
    },
    {
      "midi": 68,
      "hit": false,
      "t": 29594.56499999994,
      "d": 202.70249999999942,
      "v": 127
    },
    {
      "midi": 56,
      "hit": false,
      "t": 29594.56499999995,
      "d": 101.35124999999971,
      "v": 127
    },
    {
      "midi": 60,
      "hit": false,
      "t": 29695.91624999995,
      "d": 101.35124999999971,
      "v": 127
    },
    {
      "midi": 68,
      "hit": false,
      "t": 29797.26749999994,
      "d": 202.70249999999942,
      "v": 127
    },
    {
      "midi": 56,
      "hit": false,
      "t": 29797.26749999995,
      "d": 101.35124999999971,
      "v": 127
    },
    {
      "midi": 60,
      "hit": false,
      "t": 29898.61874999995,
      "d": 101.35124999999971,
      "v": 127
    },
    {
      "midi": 63,
      "hit": false,
      "t": 29999.96999999994,
      "d": 202.70249999999942,
      "v": 127
    },
    {
      "midi": 56,
      "hit": false,
      "t": 29999.96999999995,
      "d": 101.35124999999971,
      "v": 127
    },
    {
      "midi": 60,
      "hit": false,
      "t": 30101.32124999995,
      "d": 101.35124999999971,
      "v": 127
    },
    {
      "midi": 72,
      "hit": false,
      "t": 30202.67249999994,
      "d": 202.70249999999942,
      "v": 127
    },
    {
      "midi": 56,
      "hit": false,
      "t": 30202.67249999995,
      "d": 101.35124999999971,
      "v": 127
    },
    {
      "midi": 60,
      "hit": false,
      "t": 30304.02374999995,
      "d": 101.35124999999971,
      "v": 127
    },
    {
      "midi": 72,
      "hit": false,
      "t": 30405.374999999938,
      "d": 202.70249999999942,
      "v": 127
    },
    {
      "midi": 56,
      "hit": false,
      "t": 30405.37499999995,
      "d": 101.35124999999971,
      "v": 127
    },
    {
      "midi": 60,
      "hit": false,
      "t": 30506.72624999995,
      "d": 101.35124999999971,
      "v": 127
    },
    {
      "midi": 72,
      "hit": false,
      "t": 30608.077499999938,
      "d": 202.70249999999942,
      "v": 127
    },
    {
      "midi": 56,
      "hit": false,
      "t": 30608.07749999995,
      "d": 101.35124999999971,
      "v": 127
    },
    {
      "midi": 60,
      "hit": false,
      "t": 30709.42874999995,
      "d": 101.35124999999971,
      "v": 127
    },
    {
      "midi": 68,
      "hit": false,
      "t": 30810.779999999937,
      "d": 202.70249999999942,
      "v": 127
    },
    {
      "midi": 56,
      "hit": false,
      "t": 30810.779999999948,
      "d": 101.35124999999971,
      "v": 127
    },
    {
      "midi": 60,
      "hit": false,
      "t": 30912.131249999948,
      "d": 101.35124999999971,
      "v": 127
    },
    {
      "midi": 75,
      "hit": false,
      "t": 31013.482499999936,
      "d": 202.70249999999942,
      "v": 127
    },
    {
      "midi": 56,
      "hit": false,
      "t": 31013.482499999947,
      "d": 101.35124999999971,
      "v": 127
    },
    {
      "midi": 58,
      "hit": false,
      "t": 31114.833749999947,
      "d": 101.35124999999971,
      "v": 127
    },
    {
      "midi": 75,
      "hit": false,
      "t": 31216.184999999936,
      "d": 202.70249999999942,
      "v": 127
    },
    {
      "midi": 56,
      "hit": false,
      "t": 31216.184999999947,
      "d": 101.35124999999971,
      "v": 127
    },
    {
      "midi": 58,
      "hit": false,
      "t": 31317.536249999946,
      "d": 101.35124999999971,
      "v": 127
    },
    {
      "midi": 75,
      "hit": false,
      "t": 31418.887499999935,
      "d": 101.35124999999971,
      "v": 127
    },
    {
      "midi": 56,
      "hit": false,
      "t": 31418.887499999946,
      "d": 101.35124999999971,
      "v": 127
    },
    {
      "midi": 77,
      "hit": false,
      "t": 31520.238749999935,
      "d": 101.35124999999971,
      "v": 127
    },
    {
      "midi": 58,
      "hit": false,
      "t": 31520.238749999946,
      "d": 101.35124999999971,
      "v": 127
    },
    {
      "midi": 75,
      "hit": false,
      "t": 31621.589999999935,
      "d": 101.35124999999971,
      "v": 127
    },
    {
      "midi": 56,
      "hit": false,
      "t": 31621.589999999946,
      "d": 101.35124999999971,
      "v": 127
    },
    {
      "midi": 74,
      "hit": false,
      "t": 31722.941249999934,
      "d": 101.35124999999971,
      "v": 127
    },
    {
      "midi": 58,
      "hit": false,
      "t": 31722.941249999945,
      "d": 101.35124999999971,
      "v": 127
    },
    {
      "midi": 75,
      "hit": false,
      "t": 31824.292499999934,
      "d": 202.70249999999942,
      "v": 127
    },
    {
      "midi": 51,
      "hit": false,
      "t": 31824.292499999945,
      "d": 101.35124999999971,
      "v": 127
    },
    {
      "midi": 55,
      "hit": false,
      "t": 31824.292499999945,
      "d": 101.35124999999971,
      "v": 127
    },
    {
      "midi": 58,
      "hit": false,
      "t": 31925.643749999945,
      "d": 101.35124999999971,
      "v": 127
    },
    {
      "midi": 75,
      "hit": false,
      "t": 32026.994999999933,
      "d": 202.70249999999942,
      "v": 127
    },
    {
      "midi": 51,
      "hit": false,
      "t": 32026.994999999944,
      "d": 101.35124999999971,
      "v": 127
    },
    {
      "midi": 55,
      "hit": false,
      "t": 32026.994999999944,
      "d": 101.35124999999971,
      "v": 127
    },
    {
      "midi": 58,
      "hit": false,
      "t": 32128.346249999944,
      "d": 101.35124999999971,
      "v": 127
    },
    {
      "midi": 75,
      "hit": false,
      "t": 32229.697499999933,
      "d": 101.35124999999971,
      "v": 127
    },
    {
      "midi": 51,
      "hit": false,
      "t": 32229.697499999944,
      "d": 101.35124999999971,
      "v": 127
    },
    {
      "midi": 55,
      "hit": false,
      "t": 32229.697499999944,
      "d": 101.35124999999971,
      "v": 127
    },
    {
      "midi": 77,
      "hit": false,
      "t": 32331.048749999933,
      "d": 101.35124999999971,
      "v": 127
    },
    {
      "midi": 58,
      "hit": false,
      "t": 32331.048749999944,
      "d": 101.35124999999971,
      "v": 127
    },
    {
      "midi": 75,
      "hit": false,
      "t": 32432.399999999932,
      "d": 101.35124999999971,
      "v": 127
    },
    {
      "midi": 51,
      "hit": false,
      "t": 32432.399999999943,
      "d": 101.35124999999971,
      "v": 127
    },
    {
      "midi": 55,
      "hit": false,
      "t": 32432.399999999943,
      "d": 101.35124999999971,
      "v": 127
    },
    {
      "midi": 73,
      "hit": false,
      "t": 32533.751249999932,
      "d": 101.35124999999971,
      "v": 127
    },
    {
      "midi": 58,
      "hit": false,
      "t": 32533.751249999943,
      "d": 101.35124999999971,
      "v": 127
    },
    {
      "midi": 72,
      "hit": false,
      "t": 32635.10249999993,
      "d": 202.70250000000306,
      "v": 127
    },
    {
      "midi": 80,
      "hit": false,
      "t": 32635.10249999993,
      "d": 202.70250000000306,
      "v": 127
    },
    {
      "midi": 56,
      "hit": false,
      "t": 32635.102499999943,
      "d": 405.40499999999884,
      "v": 127
    },
    {
      "midi": 80,
      "hit": false,
      "t": 32837.804999999935,
      "d": 202.70249999999942,
      "v": 127
    },
    {
      "midi": 80,
      "hit": false,
      "t": 33040.507499999934,
      "d": 202.70249999999942,
      "v": 127
    },
    {
      "midi": 75,
      "hit": false,
      "t": 33243.209999999934,
      "d": 202.70249999999942,
      "v": 127
    },
    {
      "midi": 60,
      "hit": false,
      "t": 33243.20999999994,
      "d": 202.70249999999942,
      "v": 127
    },
    {
      "midi": 84,
      "hit": false,
      "t": 33445.91249999993,
      "d": 202.70249999999942,
      "v": 127
    },
    {
      "midi": 68,
      "hit": false,
      "t": 33445.91249999994,
      "d": 202.70249999999942,
      "v": 127
    },
    {
      "midi": 84,
      "hit": false,
      "t": 33648.61499999993,
      "d": 202.70249999999942,
      "v": 127
    },
    {
      "midi": 68,
      "hit": false,
      "t": 33648.61499999994,
      "d": 202.70249999999942,
      "v": 127
    },
    {
      "midi": 84,
      "hit": false,
      "t": 33851.31749999993,
      "d": 202.70249999999942,
      "v": 127
    },
    {
      "midi": 68,
      "hit": false,
      "t": 33851.31749999994,
      "d": 202.70249999999942,
      "v": 127
    },
    {
      "midi": 80,
      "hit": false,
      "t": 34054.01999999993,
      "d": 202.70249999999942,
      "v": 127
    },
    {
      "midi": 63,
      "hit": false,
      "t": 34054.01999999994,
      "d": 202.70249999999942,
      "v": 127
    },
    {
      "midi": 87,
      "hit": false,
      "t": 34256.72249999993,
      "d": 202.70249999999942,
      "v": 127
    },
    {
      "midi": 72,
      "hit": false,
      "t": 34256.72249999994,
      "d": 202.70249999999942,
      "v": 127
    },
    {
      "midi": 87,
      "hit": false,
      "t": 34459.42499999993,
      "d": 202.70249999999942,
      "v": 127
    },
    {
      "midi": 72,
      "hit": false,
      "t": 34459.42499999994,
      "d": 202.70249999999942,
      "v": 127
    },
    {
      "midi": 87,
      "hit": false,
      "t": 34662.12749999993,
      "d": 101.35124999999971,
      "v": 127
    },
    {
      "midi": 72,
      "hit": false,
      "t": 34662.12749999994,
      "d": 101.35124999999971,
      "v": 127
    },
    {
      "midi": 89,
      "hit": false,
      "t": 34763.47874999993,
      "d": 101.35124999999971,
      "v": 127
    },
    {
      "midi": 73,
      "hit": false,
      "t": 34763.47874999994,
      "d": 101.35124999999971,
      "v": 127
    },
    {
      "midi": 87,
      "hit": false,
      "t": 34864.82999999993,
      "d": 101.35124999999971,
      "v": 127
    },
    {
      "midi": 72,
      "hit": false,
      "t": 34864.829999999936,
      "d": 101.35124999999971,
      "v": 127
    },
    {
      "midi": 85,
      "hit": false,
      "t": 34966.18124999993,
      "d": 101.35124999999971,
      "v": 127
    },
    {
      "midi": 70,
      "hit": false,
      "t": 34966.181249999936,
      "d": 101.35124999999971,
      "v": 127
    },
    {
      "midi": 84,
      "hit": false,
      "t": 35067.53249999993,
      "d": 202.70249999999942,
      "v": 127
    },
    {
      "midi": 69,
      "hit": false,
      "t": 35067.532499999936,
      "d": 202.70249999999942,
      "v": 127
    },
    {
      "midi": 84,
      "hit": false,
      "t": 35270.23499999993,
      "d": 202.70249999999942,
      "v": 127
    },
    {
      "midi": 75,
      "hit": false,
      "t": 35270.234999999935,
      "d": 202.70249999999942,
      "v": 127
    },
    {
      "midi": 84,
      "hit": false,
      "t": 35472.93749999993,
      "d": 101.35124999999971,
      "v": 127
    },
    {
      "midi": 75,
      "hit": false,
      "t": 35472.937499999935,
      "d": 101.35124999999971,
      "v": 127
    },
    {
      "midi": 85,
      "hit": false,
      "t": 35574.28874999993,
      "d": 101.35124999999971,
      "v": 127
    },
    {
      "midi": 77,
      "hit": false,
      "t": 35574.288749999934,
      "d": 101.35124999999971,
      "v": 127
    },
    {
      "midi": 84,
      "hit": false,
      "t": 35675.63999999993,
      "d": 101.35124999999971,
      "v": 127
    },
    {
      "midi": 75,
      "hit": false,
      "t": 35675.639999999934,
      "d": 101.35124999999971,
      "v": 127
    },
    {
      "midi": 82,
      "hit": false,
      "t": 35776.99124999993,
      "d": 101.35124999999971,
      "v": 127
    },
    {
      "midi": 73,
      "hit": false,
      "t": 35776.991249999934,
      "d": 101.35124999999971,
      "v": 127
    },
    {
      "midi": 75,
      "hit": false,
      "t": 35878.342499999926,
      "d": 202.70249999999942,
      "v": 127
    },
    {
      "midi": 80,
      "hit": false,
      "t": 35878.342499999926,
      "d": 202.70249999999942,
      "v": 127
    },
    {
      "midi": 72,
      "hit": false,
      "t": 35878.34249999993,
      "d": 202.70249999999942,
      "v": 127
    },
    {
      "midi": 75,
      "hit": false,
      "t": 36081.044999999925,
      "d": 202.70249999999942,
      "v": 127
    },
    {
      "midi": 80,
      "hit": false,
      "t": 36081.044999999925,
      "d": 202.70249999999942,
      "v": 127
    },
    {
      "midi": 72,
      "hit": false,
      "t": 36081.04499999993,
      "d": 202.70249999999942,
      "v": 127
    },
    {
      "midi": 80,
      "hit": false,
      "t": 36283.747499999925,
      "d": 101.35124999999971,
      "v": 127
    },
    {
      "midi": 72,
      "hit": false,
      "t": 36283.74749999993,
      "d": 101.35124999999971,
      "v": 127
    },
    {
      "midi": 77,
      "hit": false,
      "t": 36385.098749999925,
      "d": 101.35124999999971,
      "v": 127
    },
    {
      "midi": 73,
      "hit": false,
      "t": 36385.09874999993,
      "d": 101.35124999999971,
      "v": 127
    },
    {
      "midi": 82,
      "hit": false,
      "t": 36486.449999999924,
      "d": 101.35124999999971,
      "v": 127
    },
    {
      "midi": 72,
      "hit": false,
      "t": 36486.44999999993,
      "d": 101.35124999999971,
      "v": 127
    },
    {
      "midi": 73,
      "hit": false,
      "t": 36587.801249999924,
      "d": 101.35124999999971,
      "v": 127
    },
    {
      "midi": 70,
      "hit": false,
      "t": 36587.80124999993,
      "d": 101.35124999999971,
      "v": 127
    },
    {
      "midi": 72,
      "hit": false,
      "t": 36689.152499999924,
      "d": 405.40499999999884,
      "v": 127
    },
    {
      "midi": 84,
      "hit": false,
      "t": 36689.152499999924,
      "d": 405.40499999999884,
      "v": 127
    },
    {
      "midi": 69,
      "hit": false,
      "t": 36689.15249999993,
      "d": 202.70249999999942,
      "v": 127
    },
    {
      "midi": 69,
      "hit": false,
      "t": 36891.85499999993,
      "d": 202.70249999999942,
      "v": 127
    },
    {
      "midi": 69,
      "hit": false,
      "t": 37094.55749999993,
      "d": 101.35124999999971,
      "v": 127
    },
    {
      "midi": 70,
      "hit": false,
      "t": 37195.90874999993,
      "d": 101.35124999999971,
      "v": 127
    },
    {
      "midi": 69,
      "hit": false,
      "t": 37297.25999999993,
      "d": 101.35124999999971,
      "v": 127
    },
    {
      "midi": 65,
      "hit": false,
      "t": 37398.61124999993,
      "d": 101.35124999999971,
      "v": 127
    },
    {
      "midi": 85,
      "hit": false,
      "t": 37499.96249999992,
      "d": 202.70249999999942,
      "v": 127
    },
    {
      "midi": 70,
      "hit": false,
      "t": 37499.96249999993,
      "d": 405.40499999999884,
      "v": 127
    },
    {
      "midi": 85,
      "hit": false,
      "t": 37702.66499999992,
      "d": 202.70249999999942,
      "v": 127
    },
    {
      "midi": 85,
      "hit": false,
      "t": 37905.36749999992,
      "d": 101.35124999999971,
      "v": 127
    },
    {
      "midi": 87,
      "hit": false,
      "t": 38006.71874999992,
      "d": 101.35124999999971,
      "v": 127
    },
    {
      "midi": 85,
      "hit": false,
      "t": 38108.06999999992,
      "d": 101.35124999999971,
      "v": 127
    },
    {
      "midi": 84,
      "hit": false,
      "t": 38209.42124999992,
      "d": 101.35124999999971,
      "v": 127
    },
    {
      "midi": 82,
      "hit": false,
      "t": 38310.77249999992,
      "d": 202.70249999999942,
      "v": 127
    },
    {
      "midi": 73,
      "hit": false,
      "t": 38310.77249999993,
      "d": 202.70249999999942,
      "v": 127
    },
    {
      "midi": 82,
      "hit": false,
      "t": 38513.47499999992,
      "d": 202.70249999999942,
      "v": 127
    },
    {
      "midi": 73,
      "hit": false,
      "t": 38513.474999999926,
      "d": 202.70249999999942,
      "v": 127
    },
    {
      "midi": 82,
      "hit": false,
      "t": 38716.17749999992,
      "d": 101.35124999999971,
      "v": 127
    },
    {
      "midi": 73,
      "hit": false,
      "t": 38716.177499999925,
      "d": 101.35124999999971,
      "v": 127
    },
    {
      "midi": 84,
      "hit": false,
      "t": 38817.52874999992,
      "d": 101.35124999999971,
      "v": 127
    },
    {
      "midi": 75,
      "hit": false,
      "t": 38817.528749999925,
      "d": 101.35124999999971,
      "v": 127
    },
    {
      "midi": 82,
      "hit": false,
      "t": 38918.87999999992,
      "d": 101.35124999999971,
      "v": 127
    },
    {
      "midi": 73,
      "hit": false,
      "t": 38918.879999999925,
      "d": 101.35124999999971,
      "v": 127
    },
    {
      "midi": 80,
      "hit": false,
      "t": 39020.23124999992,
      "d": 101.35124999999971,
      "v": 127
    },
    {
      "midi": 72,
      "hit": false,
      "t": 39020.231249999924,
      "d": 101.35124999999971,
      "v": 127
    },
    {
      "midi": 76,
      "hit": false,
      "t": 39121.58249999992,
      "d": 202.70249999999942,
      "v": 127
    },
    {
      "midi": 79,
      "hit": false,
      "t": 39121.58249999992,
      "d": 202.70249999999942,
      "v": 127
    },
    {
      "midi": 70,
      "hit": false,
      "t": 39121.582499999924,
      "d": 202.70249999999942,
      "v": 127
    },
    {
      "midi": 76,
      "hit": false,
      "t": 39324.284999999916,
      "d": 202.70249999999942,
      "v": 127
    },
    {
      "midi": 79,
      "hit": false,
      "t": 39324.284999999916,
      "d": 202.70249999999942,
      "v": 127
    },
    {
      "midi": 70,
      "hit": false,
      "t": 39324.28499999992,
      "d": 202.70249999999942,
      "v": 127
    },
    {
      "midi": 76,
      "hit": false,
      "t": 39526.987499999916,
      "d": 202.70249999999942,
      "v": 127
    },
    {
      "midi": 79,
      "hit": false,
      "t": 39526.987499999916,
      "d": 202.70249999999942,
      "v": 127
    },
    {
      "midi": 70,
      "hit": false,
      "t": 39526.98749999992,
      "d": 101.35124999999971,
      "v": 127
    },
    {
      "midi": 72,
      "hit": false,
      "t": 39628.33874999992,
      "d": 101.35124999999971,
      "v": 127
    },
    {
      "midi": 77,
      "hit": false,
      "t": 39729.689999999915,
      "d": 202.70249999999942,
      "v": 127
    },
    {
      "midi": 80,
      "hit": false,
      "t": 39729.689999999915,
      "d": 202.70249999999942,
      "v": 127
    },
    {
      "midi": 70,
      "hit": false,
      "t": 39729.68999999992,
      "d": 101.35124999999971,
      "v": 127
    },
    {
      "midi": 68,
      "hit": false,
      "t": 39831.04124999992,
      "d": 101.35124999999971,
      "v": 127
    },
    {
      "midi": 79,
      "hit": false,
      "t": 39932.392499999914,
      "d": 608.1074999999983,
      "v": 127
    },
    {
      "midi": 82,
      "hit": false,
      "t": 39932.392499999914,
      "d": 608.1074999999983,
      "v": 127
    },
    {
      "midi": 67,
      "hit": false,
      "t": 39932.39249999992,
      "d": 101.35124999999971,
      "v": 127
    },
    {
      "midi": 68,
      "hit": false,
      "t": 40033.74374999992,
      "d": 101.35124999999971,
      "v": 127
    },
    {
      "midi": 67,
      "hit": false,
      "t": 40135.09499999992,
      "d": 101.35124999999971,
      "v": 127
    },
    {
      "midi": 65,
      "hit": false,
      "t": 40236.44624999992,
      "d": 101.35124999999971,
      "v": 127
    },
    {
      "midi": 64,
      "hit": false,
      "t": 40337.79749999992,
      "d": 101.35124999999971,
      "v": 127
    },
    {
      "midi": 62,
      "hit": false,
      "t": 40439.14874999992,
      "d": 101.35124999999971,
      "v": 127
    },
    {
      "midi": 64,
      "hit": false,
      "t": 40540.49999999992,
      "d": 101.35124999999971,
      "v": 127
    },
    {
      "midi": 60,
      "hit": false,
      "t": 40641.85124999992,
      "d": 101.35124999999971,
      "v": 127
    },
    {
      "midi": 80,
      "hit": false,
      "t": 40743.20249999991,
      "d": 202.70249999999942,
      "v": 127
    },
    {
      "midi": 65,
      "hit": false,
      "t": 40743.20249999992,
      "d": 608.1074999999983,
      "v": 127
    },
    {
      "midi": 80,
      "hit": false,
      "t": 40945.90499999991,
      "d": 202.70249999999942,
      "v": 127
    },
    {
      "midi": 80,
      "hit": false,
      "t": 41148.60749999991,
      "d": 101.35124999999971,
      "v": 127
    },
    {
      "midi": 79,
      "hit": false,
      "t": 41249.95874999991,
      "d": 101.35124999999971,
      "v": 127
    },
    {
      "midi": 80,
      "hit": false,
      "t": 41351.30999999991,
      "d": 101.35124999999971,
      "v": 127
    },
    {
      "midi": 77,
      "hit": false,
      "t": 41452.66124999991,
      "d": 101.35124999999971,
      "v": 127
    },
    {
      "midi": 77,
      "hit": false,
      "t": 41554.01249999991,
      "d": 202.70249999999942,
      "v": 127
    },
    {
      "midi": 83,
      "hit": false,
      "t": 41554.01249999991,
      "d": 202.70249999999942,
      "v": 127
    },
    {
      "midi": 67,
      "hit": false,
      "t": 41554.01249999992,
      "d": 608.1074999999983,
      "v": 127
    },
    {
      "midi": 77,
      "hit": false,
      "t": 41756.71499999991,
      "d": 202.70249999999942,
      "v": 127
    },
    {
      "midi": 77,
      "hit": false,
      "t": 41959.41749999991,
      "d": 101.35124999999971,
      "v": 127
    },
    {
      "midi": 75,
      "hit": false,
      "t": 42060.76874999991,
      "d": 101.35124999999971,
      "v": 127
    },
    {
      "midi": 77,
      "hit": false,
      "t": 42162.11999999991,
      "d": 101.35124999999971,
      "v": 127
    },
    {
      "midi": 74,
      "hit": false,
      "t": 42263.47124999991,
      "d": 101.35124999999971,
      "v": 127
    },
    {
      "midi": 84,
      "hit": false,
      "t": 42364.82249999991,
      "d": 202.70249999999942,
      "v": 127
    },
    {
      "midi": 60,
      "hit": false,
      "t": 42364.822499999915,
      "d": 608.1074999999983,
      "v": 127
    },
    {
      "midi": 84,
      "hit": false,
      "t": 42567.52499999991,
      "d": 202.70249999999942,
      "v": 127
    },
    {
      "midi": 84,
      "hit": false,
      "t": 42770.227499999906,
      "d": 101.35124999999971,
      "v": 127
    },
    {
      "midi": 83,
      "hit": false,
      "t": 42871.578749999906,
      "d": 101.35124999999971,
      "v": 127
    },
    {
      "midi": 84,
      "hit": false,
      "t": 42972.929999999906,
      "d": 101.35124999999971,
      "v": 127
    },
    {
      "midi": 87,
      "hit": false,
      "t": 43074.281249999905,
      "d": 101.35124999999971,
      "v": 127
    },
    {
      "midi": 72,
      "hit": false,
      "t": 43175.632499999905,
      "d": 202.70249999999942,
      "v": 127
    },
    {
      "midi": 78,
      "hit": false,
      "t": 43175.632499999905,
      "d": 202.70249999999942,
      "v": 127
    },
    {
      "midi": 62,
      "hit": false,
      "t": 43175.63249999991,
      "d": 608.1074999999983,
      "v": 127
    },
    {
      "midi": 72,
      "hit": false,
      "t": 43378.334999999905,
      "d": 202.70249999999942,
      "v": 127
    },
    {
      "midi": 72,
      "hit": false,
      "t": 43581.037499999904,
      "d": 101.35124999999971,
      "v": 127
    },
    {
      "midi": 71,
      "hit": false,
      "t": 43682.388749999904,
      "d": 101.35124999999971,
      "v": 127
    },
    {
      "midi": 72,
      "hit": false,
      "t": 43783.7399999999,
      "d": 101.35124999999971,
      "v": 127
    },
    {
      "midi": 69,
      "hit": false,
      "t": 43885.0912499999,
      "d": 101.35124999999971,
      "v": 127
    },
    {
      "midi": 70,
      "hit": false,
      "t": 43986.4424999999,
      "d": 202.70249999999942,
      "v": 127
    },
    {
      "midi": 79,
      "hit": false,
      "t": 43986.4424999999,
      "d": 202.70249999999942,
      "v": 127
    },
    {
      "midi": 55,
      "hit": false,
      "t": 43986.44249999991,
      "d": 608.1074999999983,
      "v": 127
    },
    {
      "midi": 70,
      "hit": false,
      "t": 44189.1449999999,
      "d": 202.70249999999942,
      "v": 127
    },
    {
      "midi": 70,
      "hit": false,
      "t": 44391.8474999999,
      "d": 101.35124999999971,
      "v": 127
    },
    {
      "midi": 69,
      "hit": false,
      "t": 44493.1987499999,
      "d": 101.35124999999971,
      "v": 127
    },
    {
      "midi": 70,
      "hit": false,
      "t": 44594.5499999999,
      "d": 101.35124999999971,
      "v": 127
    },
    {
      "midi": 67,
      "hit": false,
      "t": 44695.9012499999,
      "d": 101.35124999999971,
      "v": 127
    },
    {
      "midi": 78,
      "hit": false,
      "t": 44797.2524999999,
      "d": 202.70249999999942,
      "v": 127
    },
    {
      "midi": 50,
      "hit": false,
      "t": 44797.25249999991,
      "d": 608.1074999999983,
      "v": 127
    },
    {
      "midi": 62,
      "hit": false,
      "t": 44797.25249999991,
      "d": 608.1074999999983,
      "v": 127
    },
    {
      "midi": 78,
      "hit": false,
      "t": 44999.9549999999,
      "d": 202.70249999999942,
      "v": 127
    },
    {
      "midi": 78,
      "hit": false,
      "t": 45202.6574999999,
      "d": 101.35124999999971,
      "v": 127
    },
    {
      "midi": 76,
      "hit": false,
      "t": 45304.0087499999,
      "d": 101.35124999999971,
      "v": 127
    },
    {
      "midi": 78,
      "hit": false,
      "t": 45405.3599999999,
      "d": 101.35124999999971,
      "v": 127
    },
    {
      "midi": 74,
      "hit": false,
      "t": 45506.7112499999,
      "d": 101.35124999999971,
      "v": 127
    },
    {
      "midi": 79,
      "hit": false,
      "t": 45608.0624999999,
      "d": 202.70249999999942,
      "v": 127
    },
    {
      "midi": 43,
      "hit": false,
      "t": 45608.062499999905,
      "d": 608.1074999999983,
      "v": 127
    },
    {
      "midi": 55,
      "hit": false,
      "t": 45608.062499999905,
      "d": 608.1074999999983,
      "v": 127
    },
    {
      "midi": 79,
      "hit": false,
      "t": 45810.7649999999,
      "d": 202.70249999999942,
      "v": 127
    },
    {
      "midi": 79,
      "hit": false,
      "t": 46013.4674999999,
      "d": 101.35124999999971,
      "v": 127
    },
    {
      "midi": 78,
      "hit": false,
      "t": 46114.8187499999,
      "d": 101.35124999999971,
      "v": 127
    },
    {
      "midi": 79,
      "hit": false,
      "t": 46216.1699999999,
      "d": 101.35124999999971,
      "v": 127
    },
    {
      "midi": 82,
      "hit": false,
      "t": 46317.521249999896,
      "d": 101.35124999999971,
      "v": 127
    },
    {
      "midi": 67,
      "hit": false,
      "t": 46418.872499999896,
      "d": 202.70249999999942,
      "v": 127
    },
    {
      "midi": 73,
      "hit": false,
      "t": 46418.872499999896,
      "d": 202.70249999999942,
      "v": 127
    },
    {
      "midi": 45,
      "hit": false,
      "t": 46418.8724999999,
      "d": 608.1074999999983,
      "v": 127
    },
    {
      "midi": 57,
      "hit": false,
      "t": 46418.8724999999,
      "d": 608.1074999999983,
      "v": 127
    },
    {
      "midi": 67,
      "hit": false,
      "t": 46621.574999999895,
      "d": 202.70249999999942,
      "v": 127
    },
    {
      "midi": 67,
      "hit": false,
      "t": 46824.277499999895,
      "d": 101.35124999999971,
      "v": 127
    },
    {
      "midi": 65,
      "hit": false,
      "t": 46925.628749999894,
      "d": 101.35124999999971,
      "v": 127
    },
    {
      "midi": 67,
      "hit": false,
      "t": 47026.979999999894,
      "d": 101.35124999999971,
      "v": 127
    },
    {
      "midi": 64,
      "hit": false,
      "t": 47128.331249999894,
      "d": 101.35124999999971,
      "v": 127
    },
    {
      "midi": 65,
      "hit": false,
      "t": 47229.68249999989,
      "d": 202.70249999999942,
      "v": 127
    },
    {
      "midi": 74,
      "hit": false,
      "t": 47229.68249999989,
      "d": 202.70249999999942,
      "v": 127
    },
    {
      "midi": 38,
      "hit": false,
      "t": 47229.6824999999,
      "d": 608.1074999999983,
      "v": 127
    },
    {
      "midi": 50,
      "hit": false,
      "t": 47229.6824999999,
      "d": 608.1074999999983,
      "v": 127
    },
    {
      "midi": 65,
      "hit": false,
      "t": 47432.38499999989,
      "d": 202.70249999999942,
      "v": 127
    },
    {
      "midi": 65,
      "hit": false,
      "t": 47635.08749999989,
      "d": 101.35124999999971,
      "v": 127
    },
    {
      "midi": 64,
      "hit": false,
      "t": 47736.43874999989,
      "d": 101.35124999999971,
      "v": 127
    },
    {
      "midi": 65,
      "hit": false,
      "t": 47837.78999999989,
      "d": 101.35124999999971,
      "v": 127
    },
    {
      "midi": 62,
      "hit": false,
      "t": 47939.14124999989,
      "d": 101.35124999999971,
      "v": 127
    },
    {
      "midi": 73,
      "hit": false,
      "t": 48040.49249999989,
      "d": 202.70249999999942,
      "v": 127
    },
    {
      "midi": 45,
      "hit": false,
      "t": 48040.4924999999,
      "d": 608.1074999999983,
      "v": 127
    },
    {
      "midi": 57,
      "hit": false,
      "t": 48040.4924999999,
      "d": 608.1074999999983,
      "v": 127
    },
    {
      "midi": 73,
      "hit": false,
      "t": 48243.19499999989,
      "d": 202.70249999999942,
      "v": 127
    },
    {
      "midi": 73,
      "hit": false,
      "t": 48445.89749999989,
      "d": 101.35124999999971,
      "v": 127
    },
    {
      "midi": 71,
      "hit": false,
      "t": 48547.24874999989,
      "d": 101.35124999999971,
      "v": 127
    },
    {
      "midi": 73,
      "hit": false,
      "t": 48648.59999999989,
      "d": 101.35124999999971,
      "v": 127
    },
    {
      "midi": 69,
      "hit": false,
      "t": 48749.95124999989,
      "d": 101.35124999999971,
      "v": 127
    },
    {
      "midi": 74,
      "hit": false,
      "t": 48851.30249999989,
      "d": 202.70249999999942,
      "v": 127
    },
    {
      "midi": 38,
      "hit": false,
      "t": 48851.302499999896,
      "d": 608.1074999999983,
      "v": 127
    },
    {
      "midi": 50,
      "hit": false,
      "t": 48851.302499999896,
      "d": 608.1074999999983,
      "v": 127
    },
    {
      "midi": 74,
      "hit": false,
      "t": 49054.00499999989,
      "d": 202.70249999999942,
      "v": 127
    },
    {
      "midi": 74,
      "hit": false,
      "t": 49256.70749999989,
      "d": 101.35124999999971,
      "v": 127
    },
    {
      "midi": 73,
      "hit": false,
      "t": 49358.05874999989,
      "d": 101.35124999999971,
      "v": 127
    },
    {
      "midi": 74,
      "hit": false,
      "t": 49459.40999999989,
      "d": 101.35124999999971,
      "v": 127
    },
    {
      "midi": 77,
      "hit": false,
      "t": 49560.76124999989,
      "d": 101.35124999999971,
      "v": 127
    },
    {
      "midi": 65,
      "hit": false,
      "t": 49662.11249999989,
      "d": 202.70249999999942,
      "v": 127
    },
    {
      "midi": 68,
      "hit": false,
      "t": 49662.11249999989,
      "d": 202.70249999999942,
      "v": 127
    },
    {
      "midi": 34,
      "hit": false,
      "t": 49662.112499999894,
      "d": 608.1074999999983,
      "v": 127
    },
    {
      "midi": 46,
      "hit": false,
      "t": 49662.112499999894,
      "d": 608.1074999999983,
      "v": 127
    },
    {
      "midi": 65,
      "hit": false,
      "t": 49864.814999999886,
      "d": 202.70249999999942,
      "v": 127
    },
    {
      "midi": 65,
      "hit": false,
      "t": 50067.517499999885,
      "d": 101.35124999999971,
      "v": 127
    },
    {
      "midi": 64,
      "hit": false,
      "t": 50168.868749999885,
      "d": 101.35124999999971,
      "v": 127
    },
    {
      "midi": 65,
      "hit": false,
      "t": 50270.219999999885,
      "d": 101.35124999999971,
      "v": 127
    },
    {
      "midi": 62,
      "hit": false,
      "t": 50371.571249999884,
      "d": 101.35124999999971,
      "v": 127
    },
    {
      "midi": 61,
      "hit": false,
      "t": 50472.922499999884,
      "d": 202.70249999999942,
      "v": 127
    },
    {
      "midi": 69,
      "hit": false,
      "t": 50472.922499999884,
      "d": 202.70249999999942,
      "v": 127
    },
    {
      "midi": 33,
      "hit": false,
      "t": 50472.92249999989,
      "d": 202.70249999999942,
      "v": 127
    },
    {
      "midi": 45,
      "hit": false,
      "t": 50472.92249999989,
      "d": 202.70249999999942,
      "v": 127
    },
    {
      "midi": 61,
      "hit": false,
      "t": 50675.62499999988,
      "d": 202.70249999999942,
      "v": 127
    },
    {
      "midi": 52,
      "hit": false,
      "t": 50675.62499999989,
      "d": 202.70249999999942,
      "v": 127
    },
    {
      "midi": 61,
      "hit": false,
      "t": 50878.32749999988,
      "d": 101.35124999999971,
      "v": 127
    },
    {
      "midi": 52,
      "hit": false,
      "t": 50878.32749999989,
      "d": 101.35124999999971,
      "v": 127
    },
    {
      "midi": 59,
      "hit": false,
      "t": 50979.67874999988,
      "d": 101.35124999999971,
      "v": 127
    },
    {
      "midi": 51,
      "hit": false,
      "t": 50979.67874999989,
      "d": 101.35124999999971,
      "v": 127
    },
    {
      "midi": 61,
      "hit": false,
      "t": 51081.02999999988,
      "d": 101.35124999999971,
      "v": 127
    },
    {
      "midi": 52,
      "hit": false,
      "t": 51081.02999999989,
      "d": 101.35124999999971,
      "v": 127
    },
    {
      "midi": 57,
      "hit": false,
      "t": 51182.38124999988,
      "d": 101.35124999999971,
      "v": 127
    },
    {
      "midi": 49,
      "hit": false,
      "t": 51182.38124999989,
      "d": 101.35124999999971,
      "v": 127
    },
    {
      "midi": 62,
      "hit": false,
      "t": 51283.73249999988,
      "d": 202.70249999999942,
      "v": 127
    },
    {
      "midi": 68,
      "hit": false,
      "t": 51283.73249999988,
      "d": 202.70249999999942,
      "v": 127
    },
    {
      "midi": 53,
      "hit": false,
      "t": 51283.73249999989,
      "d": 202.70249999999942,
      "v": 127
    },
    {
      "midi": 62,
      "hit": false,
      "t": 51486.43499999988,
      "d": 202.70249999999942,
      "v": 127
    },
    {
      "midi": 53,
      "hit": false,
      "t": 51486.43499999989,
      "d": 202.70249999999942,
      "v": 127
    },
    {
      "midi": 62,
      "hit": false,
      "t": 51689.13749999988,
      "d": 101.35124999999971,
      "v": 127
    },
    {
      "midi": 53,
      "hit": false,
      "t": 51689.13749999989,
      "d": 101.35124999999971,
      "v": 127
    },
    {
      "midi": 61,
      "hit": false,
      "t": 51790.48874999988,
      "d": 101.35124999999971,
      "v": 127
    },
    {
      "midi": 52,
      "hit": false,
      "t": 51790.48874999989,
      "d": 101.35124999999971,
      "v": 127
    },
    {
      "midi": 62,
      "hit": false,
      "t": 51891.83999999988,
      "d": 101.35124999999971,
      "v": 127
    },
    {
      "midi": 53,
      "hit": false,
      "t": 51891.83999999989,
      "d": 101.35124999999971,
      "v": 127
    },
    {
      "midi": 59,
      "hit": false,
      "t": 51993.19124999988,
      "d": 101.35124999999971,
      "v": 127
    },
    {
      "midi": 50,
      "hit": false,
      "t": 51993.19124999989,
      "d": 101.35124999999971,
      "v": 127
    },
    {
      "midi": 61,
      "hit": false,
      "t": 52094.54249999988,
      "d": 202.70249999999942,
      "v": 127
    },
    {
      "midi": 69,
      "hit": false,
      "t": 52094.54249999988,
      "d": 202.70249999999942,
      "v": 127
    },
    {
      "midi": 52,
      "hit": false,
      "t": 52094.54249999989,
      "d": 202.70249999999942,
      "v": 127
    },
    {
      "midi": 61,
      "hit": false,
      "t": 52297.24499999988,
      "d": 202.70249999999942,
      "v": 127
    },
    {
      "midi": 52,
      "hit": false,
      "t": 52297.244999999886,
      "d": 202.70249999999942,
      "v": 127
    },
    {
      "midi": 61,
      "hit": false,
      "t": 52499.94749999988,
      "d": 101.35124999999971,
      "v": 127
    },
    {
      "midi": 52,
      "hit": false,
      "t": 52499.947499999886,
      "d": 101.35124999999971,
      "v": 127
    },
    {
      "midi": 59,
      "hit": false,
      "t": 52601.29874999988,
      "d": 101.35124999999971,
      "v": 127
    },
    {
      "midi": 51,
      "hit": false,
      "t": 52601.298749999885,
      "d": 101.35124999999971,
      "v": 127
    },
    {
      "midi": 61,
      "hit": false,
      "t": 52702.64999999988,
      "d": 101.35124999999971,
      "v": 127
    },
    {
      "midi": 52,
      "hit": false,
      "t": 52702.649999999885,
      "d": 101.35124999999971,
      "v": 127
    },
    {
      "midi": 57,
      "hit": false,
      "t": 52804.00124999988,
      "d": 101.35124999999971,
      "v": 127
    },
    {
      "midi": 49,
      "hit": false,
      "t": 52804.001249999885,
      "d": 101.35124999999971,
      "v": 127
    },
    {
      "midi": 62,
      "hit": false,
      "t": 52905.35249999988,
      "d": 202.70249999999942,
      "v": 127
    },
    {
      "midi": 68,
      "hit": false,
      "t": 52905.35249999988,
      "d": 202.70249999999942,
      "v": 127
    },
    {
      "midi": 53,
      "hit": false,
      "t": 52905.352499999884,
      "d": 202.70249999999942,
      "v": 127
    },
    {
      "midi": 62,
      "hit": false,
      "t": 53108.05499999988,
      "d": 202.70249999999942,
      "v": 127
    },
    {
      "midi": 53,
      "hit": false,
      "t": 53108.054999999884,
      "d": 202.70249999999942,
      "v": 127
    },
    {
      "midi": 62,
      "hit": false,
      "t": 53310.757499999876,
      "d": 101.35124999999971,
      "v": 127
    },
    {
      "midi": 53,
      "hit": false,
      "t": 53310.75749999988,
      "d": 101.35124999999971,
      "v": 127
    },
    {
      "midi": 61,
      "hit": false,
      "t": 53412.108749999876,
      "d": 101.35124999999971,
      "v": 127
    },
    {
      "midi": 52,
      "hit": false,
      "t": 53412.10874999988,
      "d": 101.35124999999971,
      "v": 127
    },
    {
      "midi": 62,
      "hit": false,
      "t": 53513.459999999875,
      "d": 101.35124999999971,
      "v": 127
    },
    {
      "midi": 53,
      "hit": false,
      "t": 53513.45999999988,
      "d": 101.35124999999971,
      "v": 127
    },
    {
      "midi": 59,
      "hit": false,
      "t": 53614.811249999875,
      "d": 101.35124999999971,
      "v": 127
    },
    {
      "midi": 50,
      "hit": false,
      "t": 53614.81124999988,
      "d": 101.35124999999971,
      "v": 127
    },
    {
      "midi": 61,
      "hit": false,
      "t": 53716.162499999875,
      "d": 202.70249999999942,
      "v": 127
    },
    {
      "midi": 69,
      "hit": false,
      "t": 53716.162499999875,
      "d": 202.70249999999942,
      "v": 127
    },
    {
      "midi": 45,
      "hit": false,
      "t": 53716.16249999988,
      "d": 405.40499999999884,
      "v": 127
    },
    {
      "midi": 52,
      "hit": false,
      "t": 53716.16249999988,
      "d": 405.40499999999884,
      "v": 127
    },
    {
      "midi": 81,
      "hit": false,
      "t": 53918.864999999874,
      "d": 101.35124999999971,
      "v": 127
    },
    {
      "midi": 80,
      "hit": false,
      "t": 54020.216249999874,
      "d": 101.35124999999971,
      "v": 127
    },
    {
      "midi": 81,
      "hit": false,
      "t": 54121.567499999874,
      "d": 101.35124999999971,
      "v": 127
    },
    {
      "midi": 80,
      "hit": false,
      "t": 54222.91874999987,
      "d": 101.35124999999971,
      "v": 127
    },
    {
      "midi": 81,
      "hit": false,
      "t": 54324.26999999987,
      "d": 101.35124999999971,
      "v": 127
    },
    {
      "midi": 80,
      "hit": false,
      "t": 54425.62124999987,
      "d": 101.35124999999971,
      "v": 127
    },
    {
      "midi": 81,
      "hit": false,
      "t": 54526.97249999987,
      "d": 101.35124999999971,
      "v": 127
    },
    {
      "midi": 80,
      "hit": false,
      "t": 54628.32374999987,
      "d": 101.35124999999971,
      "v": 127
    },
    {
      "midi": 81,
      "hit": false,
      "t": 54729.67499999987,
      "d": 101.35124999999971,
      "v": 127
    },
    {
      "midi": 80,
      "hit": false,
      "t": 54831.02624999987,
      "d": 101.35124999999971,
      "v": 127
    },
    {
      "midi": 81,
      "hit": false,
      "t": 54932.37749999987,
      "d": 101.35124999999971,
      "v": 127
    },
    {
      "midi": 80,
      "hit": false,
      "t": 55033.72874999987,
      "d": 101.35124999999971,
      "v": 127
    },
    {
      "midi": 81,
      "hit": false,
      "t": 55135.07999999987,
      "d": 101.35124999999971,
      "v": 127
    },
    {
      "midi": 80,
      "hit": false,
      "t": 55236.43124999987,
      "d": 101.35124999999971,
      "v": 127
    },
    {
      "midi": 69,
      "hit": false,
      "t": 55337.78249999987,
      "d": 202.70249999999942,
      "v": 127
    },
    {
      "midi": 78,
      "hit": false,
      "t": 55337.78249999987,
      "d": 202.70249999999942,
      "v": 127
    },
    {
      "midi": 81,
      "hit": false,
      "t": 55337.78249999987,
      "d": 202.70249999999942,
      "v": 127
    },
    {
      "midi": 62,
      "hit": false,
      "t": 55337.782499999885,
      "d": 202.70249999999942,
      "v": 127
    },
    {
      "midi": 69,
      "hit": false,
      "t": 55540.48499999987,
      "d": 202.70249999999942,
      "v": 127
    },
    {
      "midi": 78,
      "hit": false,
      "t": 55540.48499999987,
      "d": 202.70249999999942,
      "v": 127
    },
    {
      "midi": 81,
      "hit": false,
      "t": 55540.48499999987,
      "d": 202.70249999999942,
      "v": 127
    },
    {
      "midi": 62,
      "hit": false,
      "t": 55540.484999999884,
      "d": 202.70249999999942,
      "v": 127
    },
    {
      "midi": 69,
      "hit": false,
      "t": 55743.18749999987,
      "d": 202.70249999999942,
      "v": 127
    },
    {
      "midi": 78,
      "hit": false,
      "t": 55743.18749999987,
      "d": 202.70249999999942,
      "v": 127
    },
    {
      "midi": 81,
      "hit": false,
      "t": 55743.18749999987,
      "d": 202.70249999999942,
      "v": 127
    },
    {
      "midi": 62,
      "hit": false,
      "t": 55743.18749999988,
      "d": 202.70249999999942,
      "v": 127
    },
    {
      "midi": 69,
      "hit": false,
      "t": 55945.88999999987,
      "d": 202.70249999999942,
      "v": 127
    },
    {
      "midi": 78,
      "hit": false,
      "t": 55945.88999999987,
      "d": 202.70249999999942,
      "v": 127
    },
    {
      "midi": 81,
      "hit": false,
      "t": 55945.88999999987,
      "d": 202.70249999999942,
      "v": 127
    },
    {
      "midi": 57,
      "hit": false,
      "t": 55945.88999999988,
      "d": 202.70249999999942,
      "v": 127
    },
    {
      "midi": 69,
      "hit": false,
      "t": 56148.59249999987,
      "d": 202.70249999999942,
      "v": 127
    },
    {
      "midi": 78,
      "hit": false,
      "t": 56148.59249999987,
      "d": 202.70249999999942,
      "v": 127
    },
    {
      "midi": 81,
      "hit": false,
      "t": 56148.59249999987,
      "d": 202.70249999999942,
      "v": 127
    },
    {
      "midi": 62,
      "hit": false,
      "t": 56148.59249999988,
      "d": 202.70249999999942,
      "v": 127
    },
    {
      "midi": 69,
      "hit": false,
      "t": 56351.29499999987,
      "d": 202.70249999999942,
      "v": 127
    },
    {
      "midi": 78,
      "hit": false,
      "t": 56351.29499999987,
      "d": 202.70249999999942,
      "v": 127
    },
    {
      "midi": 81,
      "hit": false,
      "t": 56351.29499999987,
      "d": 202.70249999999942,
      "v": 127
    },
    {
      "midi": 62,
      "hit": false,
      "t": 56351.29499999988,
      "d": 202.70249999999942,
      "v": 127
    },
    {
      "midi": 69,
      "hit": false,
      "t": 56553.99749999987,
      "d": 202.70249999999942,
      "v": 127
    },
    {
      "midi": 78,
      "hit": false,
      "t": 56553.99749999987,
      "d": 202.70249999999942,
      "v": 127
    },
    {
      "midi": 81,
      "hit": false,
      "t": 56553.99749999987,
      "d": 202.70249999999942,
      "v": 127
    },
    {
      "midi": 62,
      "hit": false,
      "t": 56553.99749999988,
      "d": 202.70249999999942,
      "v": 127
    },
    {
      "midi": 69,
      "hit": false,
      "t": 56756.699999999866,
      "d": 202.70249999999942,
      "v": 127
    },
    {
      "midi": 78,
      "hit": false,
      "t": 56756.699999999866,
      "d": 202.70249999999942,
      "v": 127
    },
    {
      "midi": 81,
      "hit": false,
      "t": 56756.699999999866,
      "d": 202.70249999999942,
      "v": 127
    },
    {
      "midi": 57,
      "hit": false,
      "t": 56756.69999999988,
      "d": 202.70249999999942,
      "v": 127
    },
    {
      "midi": 79,
      "hit": false,
      "t": 56959.402499999866,
      "d": 202.70249999999942,
      "v": 127
    },
    {
      "midi": 81,
      "hit": false,
      "t": 56959.402499999866,
      "d": 202.70249999999942,
      "v": 127
    },
    {
      "midi": 64,
      "hit": false,
      "t": 56959.40249999988,
      "d": 202.70249999999942,
      "v": 127
    },
    {
      "midi": 79,
      "hit": false,
      "t": 57162.104999999865,
      "d": 202.70249999999942,
      "v": 127
    },
    {
      "midi": 81,
      "hit": false,
      "t": 57162.104999999865,
      "d": 202.70249999999942,
      "v": 127
    },
    {
      "midi": 83,
      "hit": false,
      "t": 57162.104999999865,
      "d": 202.70249999999942,
      "v": 127
    },
    {
      "midi": 62,
      "hit": false,
      "t": 57162.10499999988,
      "d": 202.70249999999942,
      "v": 127
    },
    {
      "midi": 79,
      "hit": false,
      "t": 57364.807499999864,
      "d": 202.70249999999942,
      "v": 127
    },
    {
      "midi": 81,
      "hit": false,
      "t": 57364.807499999864,
      "d": 202.70249999999942,
      "v": 127
    },
    {
      "midi": 85,
      "hit": false,
      "t": 57364.807499999864,
      "d": 202.70249999999942,
      "v": 127
    },
    {
      "midi": 61,
      "hit": false,
      "t": 57364.80749999988,
      "d": 202.70249999999942,
      "v": 127
    },
    {
      "midi": 79,
      "hit": false,
      "t": 57567.509999999864,
      "d": 202.70249999999942,
      "v": 127
    },
    {
      "midi": 81,
      "hit": false,
      "t": 57567.509999999864,
      "d": 202.70249999999942,
      "v": 127
    },
    {
      "midi": 86,
      "hit": false,
      "t": 57567.509999999864,
      "d": 202.70249999999942,
      "v": 127
    },
    {
      "midi": 59,
      "hit": false,
      "t": 57567.50999999988,
      "d": 202.70249999999942,
      "v": 127
    },
    {
      "midi": 79,
      "hit": false,
      "t": 57770.21249999986,
      "d": 202.70249999999942,
      "v": 127
    },
    {
      "midi": 81,
      "hit": false,
      "t": 57770.21249999986,
      "d": 202.70249999999942,
      "v": 127
    },
    {
      "midi": 88,
      "hit": false,
      "t": 57770.21249999986,
      "d": 202.70249999999942,
      "v": 127
    },
    {
      "midi": 57,
      "hit": false,
      "t": 57770.21249999988,
      "d": 202.70249999999942,
      "v": 127
    },
    {
      "midi": 79,
      "hit": false,
      "t": 57972.91499999986,
      "d": 202.70249999999942,
      "v": 127
    },
    {
      "midi": 81,
      "hit": false,
      "t": 57972.91499999986,
      "d": 202.70249999999942,
      "v": 127
    },
    {
      "midi": 85,
      "hit": false,
      "t": 57972.91499999986,
      "d": 202.70249999999942,
      "v": 127
    },
    {
      "midi": 61,
      "hit": false,
      "t": 57972.91499999988,
      "d": 202.70249999999942,
      "v": 127
    },
    {
      "midi": 79,
      "hit": false,
      "t": 58175.61749999986,
      "d": 202.70249999999942,
      "v": 127
    },
    {
      "midi": 81,
      "hit": false,
      "t": 58175.61749999986,
      "d": 202.70249999999942,
      "v": 127
    },
    {
      "midi": 86,
      "hit": false,
      "t": 58175.61749999986,
      "d": 202.70249999999942,
      "v": 127
    },
    {
      "midi": 59,
      "hit": false,
      "t": 58175.61749999988,
      "d": 202.70249999999942,
      "v": 127
    },
    {
      "midi": 79,
      "hit": false,
      "t": 58378.31999999986,
      "d": 202.70249999999942,
      "v": 127
    },
    {
      "midi": 81,
      "hit": false,
      "t": 58378.31999999986,
      "d": 202.70249999999942,
      "v": 127
    },
    {
      "midi": 88,
      "hit": false,
      "t": 58378.31999999986,
      "d": 202.70249999999942,
      "v": 127
    },
    {
      "midi": 57,
      "hit": false,
      "t": 58378.319999999876,
      "d": 202.70249999999942,
      "v": 127
    },
    {
      "midi": 69,
      "hit": false,
      "t": 58581.02249999986,
      "d": 202.70249999999942,
      "v": 127
    },
    {
      "midi": 78,
      "hit": false,
      "t": 58581.02249999986,
      "d": 202.70249999999942,
      "v": 127
    },
    {
      "midi": 81,
      "hit": false,
      "t": 58581.02249999986,
      "d": 202.70249999999942,
      "v": 127
    },
    {
      "midi": 62,
      "hit": false,
      "t": 58581.022499999875,
      "d": 202.70249999999942,
      "v": 127
    },
    {
      "midi": 69,
      "hit": false,
      "t": 58783.72499999986,
      "d": 202.70249999999942,
      "v": 127
    },
    {
      "midi": 78,
      "hit": false,
      "t": 58783.72499999986,
      "d": 202.70249999999942,
      "v": 127
    },
    {
      "midi": 81,
      "hit": false,
      "t": 58783.72499999986,
      "d": 202.70249999999942,
      "v": 127
    },
    {
      "midi": 62,
      "hit": false,
      "t": 58783.724999999875,
      "d": 202.70249999999942,
      "v": 127
    },
    {
      "midi": 69,
      "hit": false,
      "t": 58986.42749999986,
      "d": 202.70249999999942,
      "v": 127
    },
    {
      "midi": 78,
      "hit": false,
      "t": 58986.42749999986,
      "d": 202.70249999999942,
      "v": 127
    },
    {
      "midi": 81,
      "hit": false,
      "t": 58986.42749999986,
      "d": 202.70249999999942,
      "v": 127
    },
    {
      "midi": 62,
      "hit": false,
      "t": 58986.427499999874,
      "d": 202.70249999999942,
      "v": 127
    },
    {
      "midi": 74,
      "hit": false,
      "t": 59189.12999999986,
      "d": 202.70249999999942,
      "v": 127
    },
    {
      "midi": 78,
      "hit": false,
      "t": 59189.12999999986,
      "d": 202.70249999999942,
      "v": 127
    },
    {
      "midi": 81,
      "hit": false,
      "t": 59189.12999999986,
      "d": 202.70249999999942,
      "v": 127
    },
    {
      "midi": 57,
      "hit": false,
      "t": 59189.129999999874,
      "d": 202.70249999999942,
      "v": 127
    },
    {
      "midi": 69,
      "hit": false,
      "t": 59391.83249999986,
      "d": 202.70249999999942,
      "v": 127
    },
    {
      "midi": 78,
      "hit": false,
      "t": 59391.83249999986,
      "d": 202.70249999999942,
      "v": 127
    },
    {
      "midi": 81,
      "hit": false,
      "t": 59391.83249999986,
      "d": 202.70249999999942,
      "v": 127
    },
    {
      "midi": 62,
      "hit": false,
      "t": 59391.83249999987,
      "d": 202.70249999999942,
      "v": 127
    },
    {
      "midi": 69,
      "hit": false,
      "t": 59594.53499999986,
      "d": 202.70249999999942,
      "v": 127
    },
    {
      "midi": 78,
      "hit": false,
      "t": 59594.53499999986,
      "d": 202.70249999999942,
      "v": 127
    },
    {
      "midi": 81,
      "hit": false,
      "t": 59594.53499999986,
      "d": 202.70249999999942,
      "v": 127
    },
    {
      "midi": 62,
      "hit": false,
      "t": 59594.53499999987,
      "d": 202.70249999999942,
      "v": 127
    },
    {
      "midi": 69,
      "hit": false,
      "t": 59797.23749999986,
      "d": 202.70249999999942,
      "v": 127
    },
    {
      "midi": 78,
      "hit": false,
      "t": 59797.23749999986,
      "d": 202.70249999999942,
      "v": 127
    },
    {
      "midi": 81,
      "hit": false,
      "t": 59797.23749999986,
      "d": 202.70249999999942,
      "v": 127
    },
    {
      "midi": 62,
      "hit": false,
      "t": 59797.23749999987,
      "d": 202.70249999999942,
      "v": 127
    },
    {
      "midi": 74,
      "hit": false,
      "t": 59999.93999999986,
      "d": 202.70249999999942,
      "v": 127
    },
    {
      "midi": 78,
      "hit": false,
      "t": 59999.93999999986,
      "d": 202.70249999999942,
      "v": 127
    },
    {
      "midi": 81,
      "hit": false,
      "t": 59999.93999999986,
      "d": 202.70249999999942,
      "v": 127
    },
    {
      "midi": 57,
      "hit": false,
      "t": 59999.93999999987,
      "d": 202.70249999999942,
      "v": 127
    },
    {
      "midi": 79,
      "hit": false,
      "t": 60202.642499999856,
      "d": 202.70249999999942,
      "v": 127
    },
    {
      "midi": 81,
      "hit": false,
      "t": 60202.642499999856,
      "d": 202.70249999999942,
      "v": 127
    },
    {
      "midi": 64,
      "hit": false,
      "t": 60202.64249999987,
      "d": 202.70249999999942,
      "v": 127
    },
    {
      "midi": 79,
      "hit": false,
      "t": 60405.344999999856,
      "d": 202.70249999999942,
      "v": 127
    },
    {
      "midi": 81,
      "hit": false,
      "t": 60405.344999999856,
      "d": 202.70249999999942,
      "v": 127
    },
    {
      "midi": 83,
      "hit": false,
      "t": 60405.344999999856,
      "d": 202.70249999999942,
      "v": 127
    },
    {
      "midi": 62,
      "hit": false,
      "t": 60405.34499999987,
      "d": 202.70249999999942,
      "v": 127
    },
    {
      "midi": 79,
      "hit": false,
      "t": 60608.047499999855,
      "d": 202.70249999999942,
      "v": 127
    },
    {
      "midi": 81,
      "hit": false,
      "t": 60608.047499999855,
      "d": 202.70249999999942,
      "v": 127
    },
    {
      "midi": 85,
      "hit": false,
      "t": 60608.047499999855,
      "d": 202.70249999999942,
      "v": 127
    },
    {
      "midi": 61,
      "hit": false,
      "t": 60608.04749999987,
      "d": 202.70249999999942,
      "v": 127
    },
    {
      "midi": 79,
      "hit": false,
      "t": 60810.749999999854,
      "d": 202.70249999999942,
      "v": 127
    },
    {
      "midi": 81,
      "hit": false,
      "t": 60810.749999999854,
      "d": 202.70249999999942,
      "v": 127
    },
    {
      "midi": 86,
      "hit": false,
      "t": 60810.749999999854,
      "d": 202.70249999999942,
      "v": 127
    },
    {
      "midi": 59,
      "hit": false,
      "t": 60810.74999999987,
      "d": 202.70249999999942,
      "v": 127
    },
    {
      "midi": 79,
      "hit": false,
      "t": 61013.452499999854,
      "d": 202.70249999999942,
      "v": 127
    },
    {
      "midi": 81,
      "hit": false,
      "t": 61013.452499999854,
      "d": 202.70249999999942,
      "v": 127
    },
    {
      "midi": 88,
      "hit": false,
      "t": 61013.452499999854,
      "d": 202.70249999999942,
      "v": 127
    },
    {
      "midi": 57,
      "hit": false,
      "t": 61013.45249999987,
      "d": 202.70249999999942,
      "v": 127
    },
    {
      "midi": 79,
      "hit": false,
      "t": 61216.15499999985,
      "d": 202.70249999999942,
      "v": 127
    },
    {
      "midi": 81,
      "hit": false,
      "t": 61216.15499999985,
      "d": 202.70249999999942,
      "v": 127
    },
    {
      "midi": 85,
      "hit": false,
      "t": 61216.15499999985,
      "d": 202.70249999999942,
      "v": 127
    },
    {
      "midi": 61,
      "hit": false,
      "t": 61216.15499999987,
      "d": 202.70249999999942,
      "v": 127
    },
    {
      "midi": 79,
      "hit": false,
      "t": 61418.85749999985,
      "d": 202.70249999999942,
      "v": 127
    },
    {
      "midi": 81,
      "hit": false,
      "t": 61418.85749999985,
      "d": 202.70249999999942,
      "v": 127
    },
    {
      "midi": 86,
      "hit": false,
      "t": 61418.85749999985,
      "d": 202.70249999999942,
      "v": 127
    },
    {
      "midi": 59,
      "hit": false,
      "t": 61418.85749999987,
      "d": 202.70249999999942,
      "v": 127
    },
    {
      "midi": 79,
      "hit": false,
      "t": 61621.55999999985,
      "d": 202.70249999999942,
      "v": 127
    },
    {
      "midi": 81,
      "hit": false,
      "t": 61621.55999999985,
      "d": 202.70249999999942,
      "v": 127
    },
    {
      "midi": 88,
      "hit": false,
      "t": 61621.55999999985,
      "d": 202.70249999999942,
      "v": 127
    },
    {
      "midi": 57,
      "hit": false,
      "t": 61621.55999999987,
      "d": 202.70249999999942,
      "v": 127
    },
    {
      "midi": 78,
      "hit": false,
      "t": 61824.26249999985,
      "d": 202.70249999999942,
      "v": 127
    },
    {
      "midi": 81,
      "hit": false,
      "t": 61824.26249999985,
      "d": 202.70249999999942,
      "v": 127
    },
    {
      "midi": 74,
      "hit": false,
      "t": 61824.262499999866,
      "d": 202.70249999999942,
      "v": 127
    },
    {
      "midi": 78,
      "hit": false,
      "t": 62026.96499999985,
      "d": 202.70249999999942,
      "v": 127
    },
    {
      "midi": 81,
      "hit": false,
      "t": 62026.96499999985,
      "d": 202.70249999999942,
      "v": 127
    },
    {
      "midi": 72,
      "hit": false,
      "t": 62026.964999999866,
      "d": 202.70249999999942,
      "v": 127
    },
    {
      "midi": 78,
      "hit": false,
      "t": 62229.66749999985,
      "d": 202.70249999999942,
      "v": 127
    },
    {
      "midi": 83,
      "hit": false,
      "t": 62229.66749999985,
      "d": 202.70249999999942,
      "v": 127
    },
    {
      "midi": 71,
      "hit": false,
      "t": 62229.667499999865,
      "d": 202.70249999999942,
      "v": 127
    },
    {
      "midi": 78,
      "hit": false,
      "t": 62432.36999999985,
      "d": 202.70249999999942,
      "v": 127
    },
    {
      "midi": 84,
      "hit": false,
      "t": 62432.36999999985,
      "d": 202.70249999999942,
      "v": 127
    },
    {
      "midi": 69,
      "hit": false,
      "t": 62432.369999999864,
      "d": 202.70249999999942,
      "v": 127
    },
    {
      "midi": 77,
      "hit": false,
      "t": 62635.07249999985,
      "d": 202.70249999999942,
      "v": 127
    },
    {
      "midi": 86,
      "hit": false,
      "t": 62635.07249999985,
      "d": 202.70249999999942,
      "v": 127
    },
    {
      "midi": 67,
      "hit": false,
      "t": 62635.072499999864,
      "d": 202.70249999999942,
      "v": 127
    },
    {
      "midi": 77,
      "hit": false,
      "t": 62837.77499999985,
      "d": 202.70249999999942,
      "v": 127
    },
    {
      "midi": 83,
      "hit": false,
      "t": 62837.77499999985,
      "d": 202.70249999999942,
      "v": 127
    },
    {
      "midi": 71,
      "hit": false,
      "t": 62837.77499999986,
      "d": 202.70249999999942,
      "v": 127
    },
    {
      "midi": 77,
      "hit": false,
      "t": 63040.47749999985,
      "d": 202.70249999999942,
      "v": 127
    },
    {
      "midi": 84,
      "hit": false,
      "t": 63040.47749999985,
      "d": 202.70249999999942,
      "v": 127
    },
    {
      "midi": 69,
      "hit": false,
      "t": 63040.47749999986,
      "d": 202.70249999999942,
      "v": 127
    },
    {
      "midi": 77,
      "hit": false,
      "t": 63243.17999999985,
      "d": 202.70249999999942,
      "v": 127
    },
    {
      "midi": 86,
      "hit": false,
      "t": 63243.17999999985,
      "d": 202.70249999999942,
      "v": 127
    },
    {
      "midi": 67,
      "hit": false,
      "t": 63243.17999999986,
      "d": 202.70249999999942,
      "v": 127
    },
    {
      "midi": 76,
      "hit": false,
      "t": 63445.88249999985,
      "d": 202.70249999999942,
      "v": 127
    },
    {
      "midi": 79,
      "hit": false,
      "t": 63445.88249999985,
      "d": 202.70249999999942,
      "v": 127
    },
    {
      "midi": 72,
      "hit": false,
      "t": 63445.88249999986,
      "d": 202.70249999999942,
      "v": 127
    },
    {
      "midi": 76,
      "hit": false,
      "t": 63648.584999999846,
      "d": 202.70249999999942,
      "v": 127
    },
    {
      "midi": 79,
      "hit": false,
      "t": 63648.584999999846,
      "d": 202.70249999999942,
      "v": 127
    },
    {
      "midi": 70,
      "hit": false,
      "t": 63648.58499999986,
      "d": 202.70249999999942,
      "v": 127
    },
    {
      "midi": 76,
      "hit": false,
      "t": 63851.287499999846,
      "d": 202.70249999999942,
      "v": 127
    },
    {
      "midi": 81,
      "hit": false,
      "t": 63851.287499999846,
      "d": 202.70249999999942,
      "v": 127
    },
    {
      "midi": 69,
      "hit": false,
      "t": 63851.28749999986,
      "d": 202.70249999999942,
      "v": 127
    },
    {
      "midi": 76,
      "hit": false,
      "t": 64053.989999999845,
      "d": 202.70249999999942,
      "v": 127
    },
    {
      "midi": 82,
      "hit": false,
      "t": 64053.989999999845,
      "d": 202.70249999999942,
      "v": 127
    },
    {
      "midi": 67,
      "hit": false,
      "t": 64053.98999999986,
      "d": 202.70249999999942,
      "v": 127
    },
    {
      "midi": 75,
      "hit": false,
      "t": 64256.692499999845,
      "d": 202.70249999999942,
      "v": 127
    },
    {
      "midi": 84,
      "hit": false,
      "t": 64256.692499999845,
      "d": 202.70249999999942,
      "v": 127
    },
    {
      "midi": 65,
      "hit": false,
      "t": 64256.69249999986,
      "d": 202.70249999999942,
      "v": 127
    },
    {
      "midi": 75,
      "hit": false,
      "t": 64459.394999999844,
      "d": 202.70249999999942,
      "v": 127
    },
    {
      "midi": 81,
      "hit": false,
      "t": 64459.394999999844,
      "d": 202.70249999999942,
      "v": 127
    },
    {
      "midi": 69,
      "hit": false,
      "t": 64459.39499999986,
      "d": 202.70249999999942,
      "v": 127
    },
    {
      "midi": 75,
      "hit": false,
      "t": 64662.09749999984,
      "d": 202.70249999999942,
      "v": 127
    },
    {
      "midi": 82,
      "hit": false,
      "t": 64662.09749999984,
      "d": 202.70249999999942,
      "v": 127
    },
    {
      "midi": 67,
      "hit": false,
      "t": 64662.09749999986,
      "d": 202.70249999999942,
      "v": 127
    },
    {
      "midi": 75,
      "hit": false,
      "t": 64864.79999999984,
      "d": 202.70249999999942,
      "v": 127
    },
    {
      "midi": 84,
      "hit": false,
      "t": 64864.79999999984,
      "d": 202.70249999999942,
      "v": 127
    },
    {
      "midi": 65,
      "hit": false,
      "t": 64864.79999999986,
      "d": 202.70249999999942,
      "v": 127
    },
    {
      "midi": 74,
      "hit": false,
      "t": 65067.50249999984,
      "d": 202.70249999999942,
      "v": 127
    },
    {
      "midi": 77,
      "hit": false,
      "t": 65067.50249999984,
      "d": 202.70249999999942,
      "v": 127
    },
    {
      "midi": 70,
      "hit": false,
      "t": 65067.50249999986,
      "d": 202.70249999999942,
      "v": 127
    },
    {
      "midi": 74,
      "hit": false,
      "t": 65270.20499999984,
      "d": 202.70249999999942,
      "v": 127
    },
    {
      "midi": 77,
      "hit": false,
      "t": 65270.20499999984,
      "d": 202.70249999999942,
      "v": 127
    },
    {
      "midi": 72,
      "hit": false,
      "t": 65270.204999999856,
      "d": 202.70249999999942,
      "v": 127
    },
    {
      "midi": 76,
      "hit": false,
      "t": 65472.90749999984,
      "d": 202.70249999999942,
      "v": 127
    },
    {
      "midi": 79,
      "hit": false,
      "t": 65472.90749999984,
      "d": 202.70249999999942,
      "v": 127
    },
    {
      "midi": 70,
      "hit": false,
      "t": 65472.907499999856,
      "d": 202.70249999999942,
      "v": 127
    },
    {
      "midi": 77,
      "hit": false,
      "t": 65675.60999999984,
      "d": 202.70249999999942,
      "v": 127
    },
    {
      "midi": 81,
      "hit": false,
      "t": 65675.60999999984,
      "d": 202.70249999999942,
      "v": 127
    },
    {
      "midi": 69,
      "hit": false,
      "t": 65675.60999999986,
      "d": 202.70249999999942,
      "v": 127
    },
    {
      "midi": 79,
      "hit": false,
      "t": 65878.31249999984,
      "d": 202.70249999999942,
      "v": 127
    },
    {
      "midi": 82,
      "hit": false,
      "t": 65878.31249999984,
      "d": 202.70249999999942,
      "v": 127
    },
    {
      "midi": 67,
      "hit": false,
      "t": 65878.31249999985,
      "d": 202.70249999999942,
      "v": 127
    },
    {
      "midi": 79,
      "hit": false,
      "t": 66081.01499999984,
      "d": 202.70249999999942,
      "v": 127
    },
    {
      "midi": 82,
      "hit": false,
      "t": 66081.01499999984,
      "d": 202.70249999999942,
      "v": 127
    },
    {
      "midi": 65,
      "hit": false,
      "t": 66081.01499999985,
      "d": 202.70249999999942,
      "v": 127
    },
    {
      "midi": 79,
      "hit": false,
      "t": 66283.71749999984,
      "d": 202.70249999999942,
      "v": 127
    },
    {
      "midi": 82,
      "hit": false,
      "t": 66283.71749999984,
      "d": 202.70249999999942,
      "v": 127
    },
    {
      "midi": 64,
      "hit": false,
      "t": 66283.71749999985,
      "d": 202.70249999999942,
      "v": 127
    },
    {
      "midi": 79,
      "hit": false,
      "t": 66486.41999999984,
      "d": 202.70249999999942,
      "v": 127
    },
    {
      "midi": 82,
      "hit": false,
      "t": 66486.41999999984,
      "d": 202.70249999999942,
      "v": 127
    },
    {
      "midi": 62,
      "hit": false,
      "t": 66486.41999999985,
      "d": 202.70249999999942,
      "v": 127
    },
    {
      "midi": 79,
      "hit": false,
      "t": 66689.12249999984,
      "d": 202.70249999999942,
      "v": 127
    },
    {
      "midi": 82,
      "hit": false,
      "t": 66689.12249999984,
      "d": 202.70249999999942,
      "v": 127
    },
    {
      "midi": 60,
      "hit": false,
      "t": 66689.12249999985,
      "d": 202.70249999999942,
      "v": 127
    },
    {
      "midi": 79,
      "hit": false,
      "t": 66891.82499999984,
      "d": 202.70249999999942,
      "v": 127
    },
    {
      "midi": 82,
      "hit": false,
      "t": 66891.82499999984,
      "d": 202.70249999999942,
      "v": 127
    },
    {
      "midi": 59,
      "hit": false,
      "t": 66891.82499999985,
      "d": 202.70249999999942,
      "v": 127
    },
    {
      "midi": 79,
      "hit": false,
      "t": 67094.52749999984,
      "d": 202.70249999999942,
      "v": 127
    },
    {
      "midi": 82,
      "hit": false,
      "t": 67094.52749999984,
      "d": 202.70249999999942,
      "v": 127
    },
    {
      "midi": 58,
      "hit": false,
      "t": 67094.52749999985,
      "d": 202.70249999999942,
      "v": 127
    },
    {
      "midi": 79,
      "hit": false,
      "t": 67297.22999999984,
      "d": 202.70249999999942,
      "v": 127
    },
    {
      "midi": 82,
      "hit": false,
      "t": 67297.22999999984,
      "d": 202.70249999999942,
      "v": 127
    },
    {
      "midi": 57,
      "hit": false,
      "t": 67297.22999999985,
      "d": 202.70249999999942,
      "v": 127
    },
    {
      "midi": 79,
      "hit": false,
      "t": 67499.93249999984,
      "d": 202.70249999999942,
      "v": 127
    },
    {
      "midi": 82,
      "hit": false,
      "t": 67499.93249999984,
      "d": 202.70249999999942,
      "v": 127
    },
    {
      "midi": 55,
      "hit": false,
      "t": 67499.93249999985,
      "d": 202.70249999999942,
      "v": 127
    },
    {
      "midi": 81,
      "hit": false,
      "t": 67702.63499999983,
      "d": 202.70249999999942,
      "v": 127
    },
    {
      "midi": 82,
      "hit": false,
      "t": 67702.63499999983,
      "d": 202.70249999999942,
      "v": 127
    },
    {
      "midi": 53,
      "hit": false,
      "t": 67702.63499999985,
      "d": 202.70249999999942,
      "v": 127
    },
    {
      "midi": 79,
      "hit": false,
      "t": 67905.33749999983,
      "d": 202.70249999999942,
      "v": 127
    },
    {
      "midi": 82,
      "hit": false,
      "t": 67905.33749999983,
      "d": 202.70249999999942,
      "v": 127
    },
    {
      "midi": 52,
      "hit": false,
      "t": 67905.33749999985,
      "d": 202.70249999999942,
      "v": 127
    },
    {
      "midi": 77,
      "hit": false,
      "t": 68108.03999999983,
      "d": 202.70249999999942,
      "v": 127
    },
    {
      "midi": 82,
      "hit": false,
      "t": 68108.03999999983,
      "d": 202.70249999999942,
      "v": 127
    },
    {
      "midi": 50,
      "hit": false,
      "t": 68108.03999999985,
      "d": 202.70249999999942,
      "v": 127
    },
    {
      "midi": 76,
      "hit": false,
      "t": 68310.74249999983,
      "d": 101.35125000000698,
      "v": 127
    },
    {
      "midi": 82,
      "hit": false,
      "t": 68310.74249999983,
      "d": 101.35125000000698,
      "v": 127
    },
    {
      "midi": 48,
      "hit": false,
      "t": 68310.74249999985,
      "d": 405.40499999999884,
      "v": 127
    },
    {
      "midi": 84,
      "hit": false,
      "t": 68412.09374999984,
      "d": 101.35125000000698,
      "v": 127
    },
    {
      "midi": 86,
      "hit": false,
      "t": 68513.44499999985,
      "d": 101.35125000000698,
      "v": 127
    },
    {
      "midi": 84,
      "hit": false,
      "t": 68614.79624999985,
      "d": 101.35125000000698,
      "v": 127
    },
    {
      "midi": 82,
      "hit": false,
      "t": 68716.14749999986,
      "d": 101.35125000000698,
      "v": 127
    },
    {
      "midi": 81,
      "hit": false,
      "t": 68817.49874999987,
      "d": 101.35125000000698,
      "v": 127
    },
    {
      "midi": 79,
      "hit": false,
      "t": 68918.84999999987,
      "d": 101.35125000000698,
      "v": 127
    },
    {
      "midi": 77,
      "hit": false,
      "t": 69020.20124999988,
      "d": 101.35125000000698,
      "v": 127
    },
    {
      "midi": 76,
      "hit": false,
      "t": 69121.55249999989,
      "d": 101.35125000000698,
      "v": 127
    },
    {
      "midi": 77,
      "hit": false,
      "t": 69222.9037499999,
      "d": 101.35125000000698,
      "v": 127
    },
    {
      "midi": 79,
      "hit": false,
      "t": 69324.2549999999,
      "d": 101.35125000000698,
      "v": 127
    },
    {
      "midi": 77,
      "hit": false,
      "t": 69425.60624999991,
      "d": 101.35125000000698,
      "v": 127
    },
    {
      "midi": 76,
      "hit": false,
      "t": 69526.95749999992,
      "d": 101.35125000000698,
      "v": 127
    },
    {
      "midi": 74,
      "hit": false,
      "t": 69628.30874999992,
      "d": 101.35125000000698,
      "v": 127
    },
    {
      "midi": 36,
      "hit": false,
      "t": 69729.65999999984,
      "d": 67.56750000000466,
      "v": 127
    },
    {
      "midi": 72,
      "hit": false,
      "t": 69729.65999999993,
      "d": 101.35125000000698,
      "v": 127
    },
    {
      "midi": 38,
      "hit": false,
      "t": 69797.22749999985,
      "d": 67.56750000000466,
      "v": 127
    },
    {
      "midi": 70,
      "hit": false,
      "t": 69831.01124999994,
      "d": 101.35125000000698,
      "v": 127
    },
    {
      "midi": 40,
      "hit": false,
      "t": 69864.79499999985,
      "d": 67.56750000000466,
      "v": 127
    },
    {
      "midi": 41,
      "hit": false,
      "t": 69932.36249999986,
      "d": 202.70249999999942,
      "v": 127
    },
    {
      "midi": 69,
      "hit": false,
      "t": 69932.36249999994,
      "d": 202.70249999999942,
      "v": 127
    },
    {
      "midi": 41,
      "hit": false,
      "t": 70135.06499999986,
      "d": 202.70249999999942,
      "v": 127
    },
    {
      "midi": 84,
      "hit": false,
      "t": 70135.06499999994,
      "d": 101.35125000000698,
      "v": 127
    },
    {
      "midi": 82,
      "hit": false,
      "t": 70236.41624999995,
      "d": 101.35125000000698,
      "v": 127
    },
    {
      "midi": 41,
      "hit": false,
      "t": 70337.76749999986,
      "d": 202.70249999999942,
      "v": 127
    },
    {
      "midi": 81,
      "hit": false,
      "t": 70337.76749999996,
      "d": 101.35125000000698,
      "v": 127
    },
    {
      "midi": 79,
      "hit": false,
      "t": 70439.11874999997,
      "d": 101.35125000000698,
      "v": 127
    },
    {
      "midi": 36,
      "hit": false,
      "t": 70540.46999999986,
      "d": 202.70249999999942,
      "v": 127
    },
    {
      "midi": 77,
      "hit": false,
      "t": 70540.46999999997,
      "d": 101.35125000000698,
      "v": 127
    },
    {
      "midi": 76,
      "hit": false,
      "t": 70641.82124999998,
      "d": 101.35125000000698,
      "v": 127
    },
    {
      "midi": 45,
      "hit": false,
      "t": 70743.17249999986,
      "d": 202.70249999999942,
      "v": 127
    },
    {
      "midi": 77,
      "hit": false,
      "t": 70743.17249999999,
      "d": 101.35125000000698,
      "v": 127
    },
    {
      "midi": 76,
      "hit": false,
      "t": 70844.52375,
      "d": 101.35125000000698,
      "v": 127
    },
    {
      "midi": 45,
      "hit": false,
      "t": 70945.87499999985,
      "d": 202.70249999999942,
      "v": 127
    },
    {
      "midi": 74,
      "hit": false,
      "t": 70945.875,
      "d": 101.35125000000698,
      "v": 127
    },
    {
      "midi": 72,
      "hit": false,
      "t": 71047.22625,
      "d": 101.35125000000698,
      "v": 127
    },
    {
      "midi": 45,
      "hit": false,
      "t": 71148.57749999985,
      "d": 202.70249999999942,
      "v": 127
    },
    {
      "midi": 70,
      "hit": false,
      "t": 71148.57750000001,
      "d": 101.35125000000698,
      "v": 127
    },
    {
      "midi": 69,
      "hit": false,
      "t": 71249.92875000002,
      "d": 101.35125000000698,
      "v": 127
    },
    {
      "midi": 41,
      "hit": false,
      "t": 71351.27999999985,
      "d": 202.70249999999942,
      "v": 127
    },
    {
      "midi": 67,
      "hit": false,
      "t": 71351.28000000003,
      "d": 101.35125000000698,
      "v": 127
    },
    {
      "midi": 65,
      "hit": false,
      "t": 71452.63125000003,
      "d": 101.35125000000698,
      "v": 127
    },
    {
      "midi": 48,
      "hit": false,
      "t": 71553.98249999985,
      "d": 202.70249999999942,
      "v": 127
    },
    {
      "midi": 64,
      "hit": false,
      "t": 71553.98250000004,
      "d": 101.35125000000698,
      "v": 127
    },
    {
      "midi": 65,
      "hit": false,
      "t": 71655.33375000005,
      "d": 101.35125000000698,
      "v": 127
    },
    {
      "midi": 48,
      "hit": false,
      "t": 71756.68499999985,
      "d": 202.70249999999942,
      "v": 127
    },
    {
      "midi": 67,
      "hit": false,
      "t": 71756.68500000006,
      "d": 101.35125000000698,
      "v": 127
    },
    {
      "midi": 65,
      "hit": false,
      "t": 71858.03625000006,
      "d": 101.35125000000698,
      "v": 127
    },
    {
      "midi": 48,
      "hit": false,
      "t": 71959.38749999985,
      "d": 101.35125000000698,
      "v": 127
    },
    {
      "midi": 64,
      "hit": false,
      "t": 71959.38750000007,
      "d": 101.35125000000698,
      "v": 127
    },
    {
      "midi": 50,
      "hit": false,
      "t": 72060.73874999986,
      "d": 101.35125000000698,
      "v": 127
    },
    {
      "midi": 60,
      "hit": false,
      "t": 72060.73875000008,
      "d": 101.35125000000698,
      "v": 127
    },
    {
      "midi": 48,
      "hit": false,
      "t": 72162.08999999987,
      "d": 101.35125000000698,
      "v": 127
    },
    {
      "midi": 62,
      "hit": false,
      "t": 72162.09000000008,
      "d": 101.35125000000698,
      "v": 127
    },
    {
      "midi": 46,
      "hit": false,
      "t": 72263.44124999987,
      "d": 101.35125000000698,
      "v": 127
    },
    {
      "midi": 64,
      "hit": false,
      "t": 72263.44125000009,
      "d": 101.35125000000698,
      "v": 127
    },
    {
      "midi": 45,
      "hit": false,
      "t": 72364.79249999988,
      "d": 202.70249999999942,
      "v": 127
    },
    {
      "midi": 65,
      "hit": false,
      "t": 72364.7925000001,
      "d": 101.35125000000698,
      "v": 127
    },
    {
      "midi": 60,
      "hit": false,
      "t": 72466.1437500001,
      "d": 101.35125000000698,
      "v": 127
    },
    {
      "midi": 45,
      "hit": false,
      "t": 72567.49499999988,
      "d": 202.70249999999942,
      "v": 127
    },
    {
      "midi": 65,
      "hit": false,
      "t": 72567.49500000011,
      "d": 101.35125000000698,
      "v": 127
    },
    {
      "midi": 60,
      "hit": false,
      "t": 72668.84625000012,
      "d": 101.35125000000698,
      "v": 127
    },
    {
      "midi": 45,
      "hit": false,
      "t": 72770.19749999988,
      "d": 101.35125000000698,
      "v": 127
    },
    {
      "midi": 65,
      "hit": false,
      "t": 72770.19750000013,
      "d": 101.35125000000698,
      "v": 127
    },
    {
      "midi": 46,
      "hit": false,
      "t": 72871.54874999989,
      "d": 101.35125000000698,
      "v": 127
    },
    {
      "midi": 60,
      "hit": false,
      "t": 72871.54875000013,
      "d": 101.35125000000698,
      "v": 127
    },
    {
      "midi": 45,
      "hit": false,
      "t": 72972.89999999989,
      "d": 101.35125000000698,
      "v": 127
    },
    {
      "midi": 67,
      "hit": false,
      "t": 72972.90000000014,
      "d": 101.35125000000698,
      "v": 127
    },
    {
      "midi": 43,
      "hit": false,
      "t": 73074.2512499999,
      "d": 101.35125000000698,
      "v": 127
    },
    {
      "midi": 60,
      "hit": false,
      "t": 73074.25125000015,
      "d": 101.35125000000698,
      "v": 127
    },
    {
      "midi": 41,
      "hit": false,
      "t": 73175.6024999999,
      "d": 202.70249999999942,
      "v": 127
    },
    {
      "midi": 69,
      "hit": false,
      "t": 73175.60250000015,
      "d": 202.70249999999942,
      "v": 127
    },
    {
      "midi": 60,
      "hit": false,
      "t": 73378.3049999999,
      "d": 101.35125000000698,
      "v": 127
    },
    {
      "midi": 65,
      "hit": false,
      "t": 73378.30500000015,
      "d": 202.70249999999942,
      "v": 127
    },
    {
      "midi": 58,
      "hit": false,
      "t": 73479.65624999991,
      "d": 101.35125000000698,
      "v": 127
    },
    {
      "midi": 57,
      "hit": false,
      "t": 73581.00749999992,
      "d": 101.35125000000698,
      "v": 127
    },
    {
      "midi": 65,
      "hit": false,
      "t": 73581.00750000015,
      "d": 202.70249999999942,
      "v": 127
    },
    {
      "midi": 55,
      "hit": false,
      "t": 73682.35874999993,
      "d": 101.35125000000698,
      "v": 127
    },
    {
      "midi": 53,
      "hit": false,
      "t": 73783.70999999993,
      "d": 101.35125000000698,
      "v": 127
    },
    {
      "midi": 60,
      "hit": false,
      "t": 73783.71000000015,
      "d": 202.70249999999942,
      "v": 127
    },
    {
      "midi": 52,
      "hit": false,
      "t": 73885.06124999994,
      "d": 101.35125000000698,
      "v": 127
    },
    {
      "midi": 53,
      "hit": false,
      "t": 73986.41249999995,
      "d": 101.35125000000698,
      "v": 127
    },
    {
      "midi": 69,
      "hit": false,
      "t": 73986.41250000015,
      "d": 202.70249999999942,
      "v": 127
    },
    {
      "midi": 52,
      "hit": false,
      "t": 74087.76374999995,
      "d": 101.35125000000698,
      "v": 127
    },
    {
      "midi": 50,
      "hit": false,
      "t": 74189.11499999996,
      "d": 101.35125000000698,
      "v": 127
    },
    {
      "midi": 69,
      "hit": false,
      "t": 74189.11500000015,
      "d": 202.70249999999942,
      "v": 127
    },
    {
      "midi": 48,
      "hit": false,
      "t": 74290.46624999997,
      "d": 101.35125000000698,
      "v": 127
    },
    {
      "midi": 46,
      "hit": false,
      "t": 74391.81749999998,
      "d": 101.35125000000698,
      "v": 127
    },
    {
      "midi": 69,
      "hit": false,
      "t": 74391.81750000015,
      "d": 202.70249999999942,
      "v": 127
    },
    {
      "midi": 45,
      "hit": false,
      "t": 74493.16874999998,
      "d": 101.35125000000698,
      "v": 127
    },
    {
      "midi": 43,
      "hit": false,
      "t": 74594.51999999999,
      "d": 101.35125000000698,
      "v": 127
    },
    {
      "midi": 65,
      "hit": false,
      "t": 74594.52000000015,
      "d": 202.70249999999942,
      "v": 127
    },
    {
      "midi": 41,
      "hit": false,
      "t": 74695.87125,
      "d": 101.35125000000698,
      "v": 127
    },
    {
      "midi": 40,
      "hit": false,
      "t": 74797.2225,
      "d": 101.35125000000698,
      "v": 127
    },
    {
      "midi": 72,
      "hit": false,
      "t": 74797.22250000015,
      "d": 202.70249999999942,
      "v": 127
    },
    {
      "midi": 41,
      "hit": false,
      "t": 74898.57375000001,
      "d": 101.35125000000698,
      "v": 127
    },
    {
      "midi": 43,
      "hit": false,
      "t": 74999.92500000002,
      "d": 101.35125000000698,
      "v": 127
    },
    {
      "midi": 72,
      "hit": false,
      "t": 74999.92500000015,
      "d": 202.70249999999942,
      "v": 127
    },
    {
      "midi": 41,
      "hit": false,
      "t": 75101.27625000002,
      "d": 101.35125000000698,
      "v": 127
    },
    {
      "midi": 40,
      "hit": false,
      "t": 75202.62750000003,
      "d": 101.35125000000698,
      "v": 127
    },
    {
      "midi": 72,
      "hit": false,
      "t": 75202.62750000015,
      "d": 101.35125000000698,
      "v": 127
    },
    {
      "midi": 36,
      "hit": false,
      "t": 75303.97875000004,
      "d": 101.35125000000698,
      "v": 127
    },
    {
      "midi": 74,
      "hit": false,
      "t": 75303.97875000015,
      "d": 101.35125000000698,
      "v": 127
    },
    {
      "midi": 38,
      "hit": false,
      "t": 75405.33000000005,
      "d": 101.35125000000698,
      "v": 127
    },
    {
      "midi": 72,
      "hit": false,
      "t": 75405.33000000016,
      "d": 101.35125000000698,
      "v": 127
    },
    {
      "midi": 40,
      "hit": false,
      "t": 75506.68125000005,
      "d": 101.35125000000698,
      "v": 127
    },
    {
      "midi": 70,
      "hit": false,
      "t": 75506.68125000017,
      "d": 101.35125000000698,
      "v": 127
    },
    {
      "midi": 41,
      "hit": false,
      "t": 75608.03250000006,
      "d": 202.70249999999942,
      "v": 127
    },
    {
      "midi": 69,
      "hit": false,
      "t": 75608.03250000018,
      "d": 101.35125000000698,
      "v": 127
    },
    {
      "midi": 72,
      "hit": false,
      "t": 75709.38375000018,
      "d": 101.35125000000698,
      "v": 127
    },
    {
      "midi": 39,
      "hit": false,
      "t": 75810.73500000006,
      "d": 202.70249999999942,
      "v": 127
    },
    {
      "midi": 67,
      "hit": false,
      "t": 75810.73500000019,
      "d": 101.35125000000698,
      "v": 127
    },
    {
      "midi": 73,
      "hit": false,
      "t": 75912.0862500002,
      "d": 101.35125000000698,
      "v": 127
    },
    {
      "midi": 38,
      "hit": false,
      "t": 76013.43750000006,
      "d": 202.70249999999942,
      "v": 127
    },
    {
      "midi": 66,
      "hit": false,
      "t": 76013.4375000002,
      "d": 101.35125000000698,
      "v": 127
    },
    {
      "midi": 74,
      "hit": false,
      "t": 76114.78875000021,
      "d": 101.35125000000698,
      "v": 127
    },
    {
      "midi": 42,
      "hit": false,
      "t": 76216.14000000006,
      "d": 202.70249999999942,
      "v": 127
    },
    {
      "midi": 69,
      "hit": false,
      "t": 76216.14000000022,
      "d": 101.35125000000698,
      "v": 127
    },
    {
      "midi": 72,
      "hit": false,
      "t": 76317.49125000022,
      "d": 101.35125000000698,
      "v": 127
    },
    {
      "midi": 43,
      "hit": false,
      "t": 76418.84250000006,
      "d": 202.70249999999942,
      "v": 127
    },
    {
      "midi": 70,
      "hit": false,
      "t": 76418.84250000023,
      "d": 202.70249999999942,
      "v": 127
    },
    {
      "midi": 43,
      "hit": false,
      "t": 76621.54500000006,
      "d": 202.70249999999942,
      "v": 127
    },
    {
      "midi": 86,
      "hit": false,
      "t": 76621.54500000023,
      "d": 101.35125000000698,
      "v": 127
    },
    {
      "midi": 84,
      "hit": false,
      "t": 76722.89625000024,
      "d": 101.35125000000698,
      "v": 127
    },
    {
      "midi": 43,
      "hit": false,
      "t": 76824.24750000006,
      "d": 202.70249999999942,
      "v": 127
    },
    {
      "midi": 82,
      "hit": false,
      "t": 76824.24750000025,
      "d": 101.35125000000698,
      "v": 127
    },
    {
      "midi": 81,
      "hit": false,
      "t": 76925.59875000025,
      "d": 101.35125000000698,
      "v": 127
    },
    {
      "midi": 38,
      "hit": false,
      "t": 77026.95000000006,
      "d": 202.70249999999942,
      "v": 127
    },
    {
      "midi": 79,
      "hit": false,
      "t": 77026.95000000026,
      "d": 101.35125000000698,
      "v": 127
    },
    {
      "midi": 78,
      "hit": false,
      "t": 77128.30125000027,
      "d": 101.35125000000698,
      "v": 127
    },
    {
      "midi": 46,
      "hit": false,
      "t": 77229.65250000005,
      "d": 202.70249999999942,
      "v": 127
    },
    {
      "midi": 79,
      "hit": false,
      "t": 77229.65250000027,
      "d": 101.35125000000698,
      "v": 127
    },
    {
      "midi": 77,
      "hit": false,
      "t": 77331.00375000028,
      "d": 101.35125000000698,
      "v": 127
    },
    {
      "midi": 46,
      "hit": false,
      "t": 77432.35500000005,
      "d": 202.70249999999942,
      "v": 127
    },
    {
      "midi": 75,
      "hit": false,
      "t": 77432.35500000029,
      "d": 101.35125000000698,
      "v": 127
    },
    {
      "midi": 74,
      "hit": false,
      "t": 77533.7062500003,
      "d": 101.35125000000698,
      "v": 127
    },
    {
      "midi": 46,
      "hit": false,
      "t": 77635.05750000005,
      "d": 202.70249999999942,
      "v": 127
    },
    {
      "midi": 72,
      "hit": false,
      "t": 77635.0575000003,
      "d": 101.35125000000698,
      "v": 127
    },
    {
      "midi": 70,
      "hit": false,
      "t": 77736.40875000031,
      "d": 101.35125000000698,
      "v": 127
    },
    {
      "midi": 43,
      "hit": false,
      "t": 77837.76000000005,
      "d": 202.70249999999942,
      "v": 127
    },
    {
      "midi": 69,
      "hit": false,
      "t": 77837.76000000031,
      "d": 101.35125000000698,
      "v": 127
    },
    {
      "midi": 67,
      "hit": false,
      "t": 77939.11125000032,
      "d": 101.35125000000698,
      "v": 127
    },
    {
      "midi": 50,
      "hit": false,
      "t": 78040.46250000005,
      "d": 202.70249999999942,
      "v": 127
    },
    {
      "midi": 66,
      "hit": false,
      "t": 78040.46250000033,
      "d": 101.35125000000698,
      "v": 127
    },
    {
      "midi": 67,
      "hit": false,
      "t": 78141.81375000034,
      "d": 101.35125000000698,
      "v": 127
    },
    {
      "midi": 50,
      "hit": false,
      "t": 78243.16500000005,
      "d": 202.70249999999942,
      "v": 127
    },
    {
      "midi": 69,
      "hit": false,
      "t": 78243.16500000034,
      "d": 101.35125000000698,
      "v": 127
    },
    {
      "midi": 67,
      "hit": false,
      "t": 78344.51625000035,
      "d": 101.35125000000698,
      "v": 127
    },
    {
      "midi": 50,
      "hit": false,
      "t": 78445.86750000005,
      "d": 101.35125000000698,
      "v": 127
    },
    {
      "midi": 66,
      "hit": false,
      "t": 78445.86750000036,
      "d": 101.35125000000698,
      "v": 127
    },
    {
      "midi": 51,
      "hit": false,
      "t": 78547.21875000006,
      "d": 101.35125000000698,
      "v": 127
    },
    {
      "midi": 62,
      "hit": false,
      "t": 78547.21875000036,
      "d": 101.35125000000698,
      "v": 127
    },
    {
      "midi": 50,
      "hit": false,
      "t": 78648.57000000007,
      "d": 101.35125000000698,
      "v": 127
    },
    {
      "midi": 64,
      "hit": false,
      "t": 78648.57000000037,
      "d": 101.35125000000698,
      "v": 127
    },
    {
      "midi": 48,
      "hit": false,
      "t": 78749.92125000007,
      "d": 101.35125000000698,
      "v": 127
    },
    {
      "midi": 66,
      "hit": false,
      "t": 78749.92125000038,
      "d": 101.35125000000698,
      "v": 127
    },
    {
      "midi": 46,
      "hit": false,
      "t": 78851.27250000008,
      "d": 202.70249999999942,
      "v": 127
    },
    {
      "midi": 67,
      "hit": false,
      "t": 78851.27250000038,
      "d": 101.35125000000698,
      "v": 127
    },
    {
      "midi": 62,
      "hit": false,
      "t": 78952.62375000039,
      "d": 101.35125000000698,
      "v": 127
    },
    {
      "midi": 46,
      "hit": false,
      "t": 79053.97500000008,
      "d": 202.70249999999942,
      "v": 127
    },
    {
      "midi": 67,
      "hit": false,
      "t": 79053.9750000004,
      "d": 101.35125000000698,
      "v": 127
    },
    {
      "midi": 62,
      "hit": false,
      "t": 79155.3262500004,
      "d": 101.35125000000698,
      "v": 127
    },
    {
      "midi": 46,
      "hit": false,
      "t": 79256.67750000008,
      "d": 101.35125000000698,
      "v": 127
    },
    {
      "midi": 67,
      "hit": false,
      "t": 79256.67750000041,
      "d": 101.35125000000698,
      "v": 127
    },
    {
      "midi": 48,
      "hit": false,
      "t": 79358.02875000008,
      "d": 101.35125000000698,
      "v": 127
    },
    {
      "midi": 62,
      "hit": false,
      "t": 79358.02875000042,
      "d": 101.35125000000698,
      "v": 127
    },
    {
      "midi": 46,
      "hit": false,
      "t": 79459.38000000009,
      "d": 101.35125000000698,
      "v": 127
    },
    {
      "midi": 69,
      "hit": false,
      "t": 79459.38000000043,
      "d": 101.35125000000698,
      "v": 127
    },
    {
      "midi": 45,
      "hit": false,
      "t": 79560.7312500001,
      "d": 101.35125000000698,
      "v": 127
    },
    {
      "midi": 62,
      "hit": false,
      "t": 79560.73125000043,
      "d": 101.35125000000698,
      "v": 127
    },
    {
      "midi": 43,
      "hit": false,
      "t": 79662.0825000001,
      "d": 202.70249999999942,
      "v": 127
    },
    {
      "midi": 70,
      "hit": false,
      "t": 79662.08250000044,
      "d": 202.70249999999942,
      "v": 127
    },
    {
      "midi": 62,
      "hit": false,
      "t": 79864.7850000001,
      "d": 101.35125000000698,
      "v": 127
    },
    {
      "midi": 67,
      "hit": false,
      "t": 79864.78500000044,
      "d": 202.70249999999942,
      "v": 127
    },
    {
      "midi": 60,
      "hit": false,
      "t": 79966.13625000011,
      "d": 101.35125000000698,
      "v": 127
    },
    {
      "midi": 58,
      "hit": false,
      "t": 80067.48750000012,
      "d": 101.35125000000698,
      "v": 127
    },
    {
      "midi": 67,
      "hit": false,
      "t": 80067.48750000044,
      "d": 202.70249999999942,
      "v": 127
    },
    {
      "midi": 57,
      "hit": false,
      "t": 80168.83875000013,
      "d": 101.35125000000698,
      "v": 127
    },
    {
      "midi": 55,
      "hit": false,
      "t": 80270.19000000013,
      "d": 101.35125000000698,
      "v": 127
    },
    {
      "midi": 62,
      "hit": false,
      "t": 80270.19000000044,
      "d": 202.70249999999942,
      "v": 127
    },
    {
      "midi": 54,
      "hit": false,
      "t": 80371.54125000014,
      "d": 101.35125000000698,
      "v": 127
    },
    {
      "midi": 55,
      "hit": false,
      "t": 80472.89250000015,
      "d": 101.35125000000698,
      "v": 127
    },
    {
      "midi": 70,
      "hit": false,
      "t": 80472.89250000044,
      "d": 202.70249999999942,
      "v": 127
    },
    {
      "midi": 53,
      "hit": false,
      "t": 80574.24375000015,
      "d": 101.35125000000698,
      "v": 127
    },
    {
      "midi": 51,
      "hit": false,
      "t": 80675.59500000016,
      "d": 101.35125000000698,
      "v": 127
    },
    {
      "midi": 70,
      "hit": false,
      "t": 80675.59500000044,
      "d": 202.70249999999942,
      "v": 127
    },
    {
      "midi": 50,
      "hit": false,
      "t": 80776.94625000017,
      "d": 101.35125000000698,
      "v": 127
    },
    {
      "midi": 48,
      "hit": false,
      "t": 80878.29750000018,
      "d": 101.35125000000698,
      "v": 127
    },
    {
      "midi": 70,
      "hit": false,
      "t": 80878.29750000044,
      "d": 202.70249999999942,
      "v": 127
    },
    {
      "midi": 46,
      "hit": false,
      "t": 80979.64875000018,
      "d": 101.35125000000698,
      "v": 127
    },
    {
      "midi": 45,
      "hit": false,
      "t": 81081.00000000019,
      "d": 101.35125000000698,
      "v": 127
    },
    {
      "midi": 67,
      "hit": false,
      "t": 81081.00000000044,
      "d": 202.70249999999942,
      "v": 127
    },
    {
      "midi": 43,
      "hit": false,
      "t": 81182.3512500002,
      "d": 101.35125000000698,
      "v": 127
    },
    {
      "midi": 42,
      "hit": false,
      "t": 81283.7025000002,
      "d": 101.35125000000698,
      "v": 127
    },
    {
      "midi": 74,
      "hit": false,
      "t": 81283.70250000044,
      "d": 202.70249999999942,
      "v": 127
    },
    {
      "midi": 43,
      "hit": false,
      "t": 81385.05375000021,
      "d": 101.35125000000698,
      "v": 127
    },
    {
      "midi": 45,
      "hit": false,
      "t": 81486.40500000022,
      "d": 101.35125000000698,
      "v": 127
    },
    {
      "midi": 74,
      "hit": false,
      "t": 81486.40500000044,
      "d": 202.70249999999942,
      "v": 127
    },
    {
      "midi": 43,
      "hit": false,
      "t": 81587.75625000022,
      "d": 101.35125000000698,
      "v": 127
    },
    {
      "midi": 42,
      "hit": false,
      "t": 81689.10750000023,
      "d": 101.35125000000698,
      "v": 127
    },
    {
      "midi": 74,
      "hit": false,
      "t": 81689.10750000043,
      "d": 101.35125000000698,
      "v": 127
    },
    {
      "midi": 38,
      "hit": false,
      "t": 81790.45875000024,
      "d": 101.35125000000698,
      "v": 127
    },
    {
      "midi": 75,
      "hit": false,
      "t": 81790.45875000044,
      "d": 101.35125000000698,
      "v": 127
    },
    {
      "midi": 40,
      "hit": false,
      "t": 81891.81000000025,
      "d": 101.35125000000698,
      "v": 127
    },
    {
      "midi": 74,
      "hit": false,
      "t": 81891.81000000045,
      "d": 101.35125000000698,
      "v": 127
    },
    {
      "midi": 42,
      "hit": false,
      "t": 81993.16125000025,
      "d": 101.35125000000698,
      "v": 127
    },
    {
      "midi": 72,
      "hit": false,
      "t": 81993.16125000046,
      "d": 101.35125000000698,
      "v": 127
    },
    {
      "midi": 43,
      "hit": false,
      "t": 82094.51250000026,
      "d": 202.70249999999942,
      "v": 127
    },
    {
      "midi": 70,
      "hit": false,
      "t": 82094.51250000046,
      "d": 101.35125000000698,
      "v": 127
    },
    {
      "midi": 74,
      "hit": false,
      "t": 82195.86375000047,
      "d": 101.35125000000698,
      "v": 127
    },
    {
      "midi": 42,
      "hit": false,
      "t": 82297.21500000026,
      "d": 202.70249999999942,
      "v": 127
    },
    {
      "midi": 76,
      "hit": false,
      "t": 82297.21500000048,
      "d": 101.35125000000698,
      "v": 127
    },
    {
      "midi": 70,
      "hit": false,
      "t": 82398.56625000048,
      "d": 101.35125000000698,
      "v": 127
    },
    {
      "midi": 41,
      "hit": false,
      "t": 82499.91750000026,
      "d": 202.70249999999942,
      "v": 127
    },
    {
      "midi": 77,
      "hit": false,
      "t": 82499.91750000049,
      "d": 101.35125000000698,
      "v": 127
    },
    {
      "midi": 69,
      "hit": false,
      "t": 82601.2687500005,
      "d": 101.35125000000698,
      "v": 127
    },
    {
      "midi": 45,
      "hit": false,
      "t": 82702.62000000026,
      "d": 202.70249999999942,
      "v": 127
    },
    {
      "midi": 75,
      "hit": false,
      "t": 82702.6200000005,
      "d": 101.35125000000698,
      "v": 127
    },
    {
      "midi": 72,
      "hit": false,
      "t": 82803.97125000051,
      "d": 101.35125000000698,
      "v": 127
    },
    {
      "midi": 46,
      "hit": false,
      "t": 82905.32250000026,
      "d": 202.70249999999942,
      "v": 127
    },
    {
      "midi": 74,
      "hit": false,
      "t": 82905.32250000052,
      "d": 202.70249999999942,
      "v": 127
    },
    {
      "midi": 46,
      "hit": false,
      "t": 83108.02500000026,
      "d": 202.70249999999942,
      "v": 127
    },
    {
      "midi": 89,
      "hit": false,
      "t": 83108.02500000052,
      "d": 101.35125000000698,
      "v": 127
    },
    {
      "midi": 87,
      "hit": false,
      "t": 83209.37625000053,
      "d": 101.35125000000698,
      "v": 127
    },
    {
      "midi": 46,
      "hit": false,
      "t": 83310.72750000026,
      "d": 202.70249999999942,
      "v": 127
    },
    {
      "midi": 86,
      "hit": false,
      "t": 83310.72750000053,
      "d": 101.35125000000698,
      "v": 127
    },
    {
      "midi": 84,
      "hit": false,
      "t": 83412.07875000054,
      "d": 101.35125000000698,
      "v": 127
    },
    {
      "midi": 41,
      "hit": false,
      "t": 83513.43000000025,
      "d": 202.70249999999942,
      "v": 127
    },
    {
      "midi": 82,
      "hit": false,
      "t": 83513.43000000055,
      "d": 101.35125000000698,
      "v": 127
    },
    {
      "midi": 81,
      "hit": false,
      "t": 83614.78125000055,
      "d": 101.35125000000698,
      "v": 127
    },
    {
      "midi": 50,
      "hit": false,
      "t": 83716.13250000025,
      "d": 202.70249999999942,
      "v": 127
    },
    {
      "midi": 82,
      "hit": false,
      "t": 83716.13250000056,
      "d": 101.35125000000698,
      "v": 127
    },
    {
      "midi": 81,
      "hit": false,
      "t": 83817.48375000057,
      "d": 101.35125000000698,
      "v": 127
    },
    {
      "midi": 50,
      "hit": false,
      "t": 83918.83500000025,
      "d": 202.70249999999942,
      "v": 127
    },
    {
      "midi": 79,
      "hit": false,
      "t": 83918.83500000057,
      "d": 101.35125000000698,
      "v": 127
    },
    {
      "midi": 77,
      "hit": false,
      "t": 84020.18625000058,
      "d": 101.35125000000698,
      "v": 127
    },
    {
      "midi": 50,
      "hit": false,
      "t": 84121.53750000025,
      "d": 202.70249999999942,
      "v": 127
    },
    {
      "midi": 75,
      "hit": false,
      "t": 84121.53750000059,
      "d": 101.35125000000698,
      "v": 127
    },
    {
      "midi": 74,
      "hit": false,
      "t": 84222.8887500006,
      "d": 101.35125000000698,
      "v": 127
    },
    {
      "midi": 46,
      "hit": false,
      "t": 84324.24000000025,
      "d": 202.70249999999942,
      "v": 127
    },
    {
      "midi": 72,
      "hit": false,
      "t": 84324.2400000006,
      "d": 101.35125000000698,
      "v": 127
    },
    {
      "midi": 70,
      "hit": false,
      "t": 84425.59125000061,
      "d": 101.35125000000698,
      "v": 127
    },
    {
      "midi": 53,
      "hit": false,
      "t": 84526.94250000025,
      "d": 202.70249999999942,
      "v": 127
    },
    {
      "midi": 69,
      "hit": false,
      "t": 84526.94250000062,
      "d": 101.35125000000698,
      "v": 127
    },
    {
      "midi": 70,
      "hit": false,
      "t": 84628.29375000062,
      "d": 101.35125000000698,
      "v": 127
    },
    {
      "midi": 53,
      "hit": false,
      "t": 84729.64500000025,
      "d": 202.70249999999942,
      "v": 127
    },
    {
      "midi": 72,
      "hit": false,
      "t": 84729.64500000063,
      "d": 101.35125000000698,
      "v": 127
    },
    {
      "midi": 70,
      "hit": false,
      "t": 84830.99625000064,
      "d": 101.35125000000698,
      "v": 127
    },
    {
      "midi": 53,
      "hit": false,
      "t": 84932.34750000025,
      "d": 101.35125000000698,
      "v": 127
    },
    {
      "midi": 69,
      "hit": false,
      "t": 84932.34750000064,
      "d": 101.35125000000698,
      "v": 127
    },
    {
      "midi": 55,
      "hit": false,
      "t": 85033.69875000026,
      "d": 101.35125000000698,
      "v": 127
    },
    {
      "midi": 65,
      "hit": false,
      "t": 85033.69875000065,
      "d": 101.35125000000698,
      "v": 127
    },
    {
      "midi": 53,
      "hit": false,
      "t": 85135.05000000026,
      "d": 101.35125000000698,
      "v": 127
    },
    {
      "midi": 67,
      "hit": false,
      "t": 85135.05000000066,
      "d": 101.35125000000698,
      "v": 127
    },
    {
      "midi": 51,
      "hit": false,
      "t": 85236.40125000027,
      "d": 101.35125000000698,
      "v": 127
    },
    {
      "midi": 69,
      "hit": false,
      "t": 85236.40125000066,
      "d": 101.35125000000698,
      "v": 127
    },
    {
      "midi": 50,
      "hit": false,
      "t": 85337.75250000028,
      "d": 202.70249999999942,
      "v": 127
    },
    {
      "midi": 70,
      "hit": false,
      "t": 85337.75250000067,
      "d": 101.35125000000698,
      "v": 127
    },
    {
      "midi": 65,
      "hit": false,
      "t": 85439.10375000068,
      "d": 101.35125000000698,
      "v": 127
    },
    {
      "midi": 50,
      "hit": false,
      "t": 85540.45500000028,
      "d": 202.70249999999942,
      "v": 127
    },
    {
      "midi": 70,
      "hit": false,
      "t": 85540.45500000069,
      "d": 101.35125000000698,
      "v": 127
    },
    {
      "midi": 65,
      "hit": false,
      "t": 85641.80625000069,
      "d": 101.35125000000698,
      "v": 127
    },
    {
      "midi": 50,
      "hit": false,
      "t": 85743.15750000028,
      "d": 101.35125000000698,
      "v": 127
    },
    {
      "midi": 70,
      "hit": false,
      "t": 85743.1575000007,
      "d": 101.35125000000698,
      "v": 127
    },
    {
      "midi": 51,
      "hit": false,
      "t": 85844.50875000028,
      "d": 101.35125000000698,
      "v": 127
    },
    {
      "midi": 65,
      "hit": false,
      "t": 85844.5087500007,
      "d": 101.35125000000698,
      "v": 127
    },
    {
      "midi": 50,
      "hit": false,
      "t": 85945.86000000029,
      "d": 101.35125000000698,
      "v": 127
    },
    {
      "midi": 72,
      "hit": false,
      "t": 85945.86000000071,
      "d": 101.35125000000698,
      "v": 127
    },
    {
      "midi": 48,
      "hit": false,
      "t": 86047.2112500003,
      "d": 101.35125000000698,
      "v": 127
    },
    {
      "midi": 65,
      "hit": false,
      "t": 86047.21125000072,
      "d": 101.35125000000698,
      "v": 127
    },
    {
      "midi": 46,
      "hit": false,
      "t": 86148.5625000003,
      "d": 202.70249999999942,
      "v": 127
    },
    {
      "midi": 73,
      "hit": false,
      "t": 86148.56250000073,
      "d": 202.70249999999942,
      "v": 127
    },
    {
      "midi": 58,
      "hit": false,
      "t": 86351.2650000003,
      "d": 101.35125000000698,
      "v": 127
    },
    {
      "midi": 70,
      "hit": false,
      "t": 86351.26500000073,
      "d": 101.35125000000698,
      "v": 127
    },
    {
      "midi": 61,
      "hit": false,
      "t": 86452.61625000031,
      "d": 101.35125000000698,
      "v": 127
    },
    {
      "midi": 82,
      "hit": false,
      "t": 86452.61625000073,
      "d": 101.35125000000698,
      "v": 127
    },
    {
      "midi": 58,
      "hit": false,
      "t": 86553.96750000032,
      "d": 101.35125000000698,
      "v": 127
    },
    {
      "midi": 70,
      "hit": false,
      "t": 86553.96750000074,
      "d": 101.35125000000698,
      "v": 127
    },
    {
      "midi": 61,
      "hit": false,
      "t": 86655.31875000033,
      "d": 101.35125000000698,
      "v": 127
    },
    {
      "midi": 82,
      "hit": false,
      "t": 86655.31875000075,
      "d": 101.35125000000698,
      "v": 127
    },
    {
      "midi": 58,
      "hit": false,
      "t": 86756.67000000033,
      "d": 101.35125000000698,
      "v": 127
    },
    {
      "midi": 65,
      "hit": false,
      "t": 86756.67000000075,
      "d": 101.35125000000698,
      "v": 127
    },
    {
      "midi": 61,
      "hit": false,
      "t": 86858.02125000034,
      "d": 101.35125000000698,
      "v": 127
    },
    {
      "midi": 77,
      "hit": false,
      "t": 86858.02125000076,
      "d": 101.35125000000698,
      "v": 127
    },
    {
      "midi": 58,
      "hit": false,
      "t": 86959.37250000035,
      "d": 101.35125000000698,
      "v": 127
    },
    {
      "midi": 73,
      "hit": false,
      "t": 86959.37250000077,
      "d": 101.35125000000698,
      "v": 127
    },
    {
      "midi": 61,
      "hit": false,
      "t": 87060.72375000035,
      "d": 101.35125000000698,
      "v": 127
    },
    {
      "midi": 85,
      "hit": false,
      "t": 87060.72375000078,
      "d": 101.35125000000698,
      "v": 127
    },
    {
      "midi": 58,
      "hit": false,
      "t": 87162.07500000036,
      "d": 101.35125000000698,
      "v": 127
    },
    {
      "midi": 73,
      "hit": false,
      "t": 87162.07500000078,
      "d": 101.35125000000698,
      "v": 127
    },
    {
      "midi": 61,
      "hit": false,
      "t": 87263.42625000037,
      "d": 101.35125000000698,
      "v": 127
    },
    {
      "midi": 85,
      "hit": false,
      "t": 87263.42625000079,
      "d": 101.35125000000698,
      "v": 127
    },
    {
      "midi": 58,
      "hit": false,
      "t": 87364.77750000037,
      "d": 101.35125000000698,
      "v": 127
    },
    {
      "midi": 73,
      "hit": false,
      "t": 87364.7775000008,
      "d": 101.35125000000698,
      "v": 127
    },
    {
      "midi": 61,
      "hit": false,
      "t": 87466.12875000038,
      "d": 101.35125000000698,
      "v": 127
    },
    {
      "midi": 85,
      "hit": false,
      "t": 87466.1287500008,
      "d": 101.35125000000698,
      "v": 127
    },
    {
      "midi": 58,
      "hit": false,
      "t": 87567.48000000039,
      "d": 101.35125000000698,
      "v": 127
    },
    {
      "midi": 70,
      "hit": false,
      "t": 87567.48000000081,
      "d": 101.35125000000698,
      "v": 127
    },
    {
      "midi": 61,
      "hit": false,
      "t": 87668.8312500004,
      "d": 101.35125000000698,
      "v": 127
    },
    {
      "midi": 82,
      "hit": false,
      "t": 87668.83125000082,
      "d": 101.35125000000698,
      "v": 127
    },
    {
      "midi": 53,
      "hit": false,
      "t": 87770.1825000004,
      "d": 101.35125000000698,
      "v": 127
    },
    {
      "midi": 77,
      "hit": false,
      "t": 87770.18250000082,
      "d": 101.35125000000698,
      "v": 127
    },
    {
      "midi": 60,
      "hit": false,
      "t": 87871.53375000041,
      "d": 101.35125000000698,
      "v": 127
    },
    {
      "midi": 89,
      "hit": false,
      "t": 87871.53375000083,
      "d": 101.35125000000698,
      "v": 127
    },
    {
      "midi": 57,
      "hit": false,
      "t": 87972.88500000042,
      "d": 101.35125000000698,
      "v": 127
    },
    {
      "midi": 77,
      "hit": false,
      "t": 87972.88500000084,
      "d": 101.35125000000698,
      "v": 127
    },
    {
      "midi": 60,
      "hit": false,
      "t": 88074.23625000042,
      "d": 101.35125000000698,
      "v": 127
    },
    {
      "midi": 89,
      "hit": false,
      "t": 88074.23625000085,
      "d": 101.35125000000698,
      "v": 127
    },
    {
      "midi": 57,
      "hit": false,
      "t": 88175.58750000043,
      "d": 101.35125000000698,
      "v": 127
    },
    {
      "midi": 77,
      "hit": false,
      "t": 88175.58750000085,
      "d": 101.35125000000698,
      "v": 127
    },
    {
      "midi": 60,
      "hit": false,
      "t": 88276.93875000044,
      "d": 101.35125000000698,
      "v": 127
    },
    {
      "midi": 89,
      "hit": false,
      "t": 88276.93875000086,
      "d": 101.35125000000698,
      "v": 127
    },
    {
      "midi": 57,
      "hit": false,
      "t": 88378.29000000044,
      "d": 101.35125000000698,
      "v": 127
    },
    {
      "midi": 75,
      "hit": false,
      "t": 88378.29000000087,
      "d": 101.35125000000698,
      "v": 127
    },
    {
      "midi": 60,
      "hit": false,
      "t": 88479.64125000045,
      "d": 101.35125000000698,
      "v": 127
    },
    {
      "midi": 87,
      "hit": false,
      "t": 88479.64125000087,
      "d": 101.35125000000698,
      "v": 127
    },
    {
      "midi": 58,
      "hit": false,
      "t": 88580.99250000046,
      "d": 101.35125000000698,
      "v": 127
    },
    {
      "midi": 73,
      "hit": false,
      "t": 88580.99250000088,
      "d": 101.35125000000698,
      "v": 127
    },
    {
      "midi": 61,
      "hit": false,
      "t": 88682.34375000047,
      "d": 101.35125000000698,
      "v": 127
    },
    {
      "midi": 85,
      "hit": false,
      "t": 88682.34375000089,
      "d": 101.35125000000698,
      "v": 127
    },
    {
      "midi": 58,
      "hit": false,
      "t": 88783.69500000047,
      "d": 101.35125000000698,
      "v": 127
    },
    {
      "midi": 73,
      "hit": false,
      "t": 88783.6950000009,
      "d": 101.35125000000698,
      "v": 127
    },
    {
      "midi": 61,
      "hit": false,
      "t": 88885.04625000048,
      "d": 101.35125000000698,
      "v": 127
    },
    {
      "midi": 85,
      "hit": false,
      "t": 88885.0462500009,
      "d": 101.35125000000698,
      "v": 127
    },
    {
      "midi": 58,
      "hit": false,
      "t": 88986.39750000049,
      "d": 101.35125000000698,
      "v": 127
    },
    {
      "midi": 73,
      "hit": false,
      "t": 88986.39750000091,
      "d": 101.35125000000698,
      "v": 127
    },
    {
      "midi": 61,
      "hit": false,
      "t": 89087.7487500005,
      "d": 101.35125000000698,
      "v": 127
    },
    {
      "midi": 85,
      "hit": false,
      "t": 89087.74875000092,
      "d": 101.35125000000698,
      "v": 127
    },
    {
      "midi": 58,
      "hit": false,
      "t": 89189.1000000005,
      "d": 101.35125000000698,
      "v": 127
    },
    {
      "midi": 70,
      "hit": false,
      "t": 89189.10000000092,
      "d": 101.35125000000698,
      "v": 127
    },
    {
      "midi": 61,
      "hit": false,
      "t": 89290.45125000051,
      "d": 101.35125000000698,
      "v": 127
    },
    {
      "midi": 82,
      "hit": false,
      "t": 89290.45125000093,
      "d": 101.35125000000698,
      "v": 127
    },
    {
      "midi": 53,
      "hit": false,
      "t": 89391.80250000051,
      "d": 101.35125000000698,
      "v": 127
    },
    {
      "midi": 77,
      "hit": false,
      "t": 89391.80250000094,
      "d": 101.35125000000698,
      "v": 127
    },
    {
      "midi": 60,
      "hit": false,
      "t": 89493.15375000052,
      "d": 101.35125000000698,
      "v": 127
    },
    {
      "midi": 89,
      "hit": false,
      "t": 89493.15375000094,
      "d": 101.35125000000698,
      "v": 127
    },
    {
      "midi": 57,
      "hit": false,
      "t": 89594.50500000053,
      "d": 101.35125000000698,
      "v": 127
    },
    {
      "midi": 77,
      "hit": false,
      "t": 89594.50500000095,
      "d": 101.35125000000698,
      "v": 127
    },
    {
      "midi": 60,
      "hit": false,
      "t": 89695.85625000054,
      "d": 101.35125000000698,
      "v": 127
    },
    {
      "midi": 89,
      "hit": false,
      "t": 89695.85625000096,
      "d": 101.35125000000698,
      "v": 127
    },
    {
      "midi": 57,
      "hit": false,
      "t": 89797.20750000054,
      "d": 101.35125000000698,
      "v": 127
    },
    {
      "midi": 77,
      "hit": false,
      "t": 89797.20750000096,
      "d": 101.35125000000698,
      "v": 127
    },
    {
      "midi": 60,
      "hit": false,
      "t": 89898.55875000055,
      "d": 101.35125000000698,
      "v": 127
    },
    {
      "midi": 89,
      "hit": false,
      "t": 89898.55875000097,
      "d": 101.35125000000698,
      "v": 127
    },
    {
      "midi": 57,
      "hit": false,
      "t": 89999.91000000056,
      "d": 101.35125000000698,
      "v": 127
    },
    {
      "midi": 75,
      "hit": false,
      "t": 89999.91000000098,
      "d": 101.35125000000698,
      "v": 127
    },
    {
      "midi": 60,
      "hit": false,
      "t": 90101.26125000056,
      "d": 101.35125000000698,
      "v": 127
    },
    {
      "midi": 87,
      "hit": false,
      "t": 90101.26125000099,
      "d": 101.35125000000698,
      "v": 127
    },
    {
      "midi": 58,
      "hit": false,
      "t": 90202.61250000057,
      "d": 101.35125000000698,
      "v": 127
    },
    {
      "midi": 73,
      "hit": false,
      "t": 90202.61250000099,
      "d": 101.35125000000698,
      "v": 127
    },
    {
      "midi": 61,
      "hit": false,
      "t": 90303.96375000058,
      "d": 101.35125000000698,
      "v": 127
    },
    {
      "midi": 85,
      "hit": false,
      "t": 90303.963750001,
      "d": 101.35125000000698,
      "v": 127
    },
    {
      "midi": 58,
      "hit": false,
      "t": 90405.31500000058,
      "d": 101.35125000000698,
      "v": 127
    },
    {
      "midi": 73,
      "hit": false,
      "t": 90405.315000001,
      "d": 101.35125000000698,
      "v": 127
    },
    {
      "midi": 61,
      "hit": false,
      "t": 90506.66625000059,
      "d": 101.35125000000698,
      "v": 127
    },
    {
      "midi": 85,
      "hit": false,
      "t": 90506.66625000101,
      "d": 101.35125000000698,
      "v": 127
    },
    {
      "midi": 58,
      "hit": false,
      "t": 90608.0175000006,
      "d": 101.35125000000698,
      "v": 127
    },
    {
      "midi": 73,
      "hit": false,
      "t": 90608.01750000102,
      "d": 101.35125000000698,
      "v": 127
    },
    {
      "midi": 61,
      "hit": false,
      "t": 90709.3687500006,
      "d": 101.35125000000698,
      "v": 127
    },
    {
      "midi": 85,
      "hit": false,
      "t": 90709.36875000103,
      "d": 101.35125000000698,
      "v": 127
    },
    {
      "midi": 60,
      "hit": false,
      "t": 90810.72000000061,
      "d": 101.35125000000698,
      "v": 127
    },
    {
      "midi": 72,
      "hit": false,
      "t": 90810.72000000103,
      "d": 101.35125000000698,
      "v": 127
    },
    {
      "midi": 63,
      "hit": false,
      "t": 90912.07125000062,
      "d": 101.35125000000698,
      "v": 127
    },
    {
      "midi": 84,
      "hit": false,
      "t": 90912.07125000104,
      "d": 101.35125000000698,
      "v": 127
    },
    {
      "midi": 61,
      "hit": false,
      "t": 91013.42250000063,
      "d": 101.35125000000698,
      "v": 127
    },
    {
      "midi": 70,
      "hit": false,
      "t": 91013.42250000105,
      "d": 101.35125000000698,
      "v": 127
    },
    {
      "midi": 65,
      "hit": false,
      "t": 91114.77375000063,
      "d": 101.35125000000698,
      "v": 127
    },
    {
      "midi": 82,
      "hit": false,
      "t": 91114.77375000106,
      "d": 101.35125000000698,
      "v": 127
    },
    {
      "midi": 61,
      "hit": false,
      "t": 91216.12500000064,
      "d": 101.35125000000698,
      "v": 127
    },
    {
      "midi": 70,
      "hit": false,
      "t": 91216.12500000106,
      "d": 101.35125000000698,
      "v": 127
    },
    {
      "midi": 65,
      "hit": false,
      "t": 91317.47625000065,
      "d": 101.35125000000698,
      "v": 127
    },
    {
      "midi": 82,
      "hit": false,
      "t": 91317.47625000107,
      "d": 101.35125000000698,
      "v": 127
    },
    {
      "midi": 61,
      "hit": false,
      "t": 91418.82750000065,
      "d": 101.35125000000698,
      "v": 127
    },
    {
      "midi": 70,
      "hit": false,
      "t": 91418.82750000108,
      "d": 101.35125000000698,
      "v": 127
    },
    {
      "midi": 65,
      "hit": false,
      "t": 91520.17875000066,
      "d": 101.35125000000698,
      "v": 127
    },
    {
      "midi": 82,
      "hit": false,
      "t": 91520.17875000108,
      "d": 101.35125000000698,
      "v": 127
    },
    {
      "midi": 60,
      "hit": false,
      "t": 91621.53000000067,
      "d": 101.35125000000698,
      "v": 127
    },
    {
      "midi": 68,
      "hit": false,
      "t": 91621.53000000109,
      "d": 101.35125000000698,
      "v": 127
    },
    {
      "midi": 63,
      "hit": false,
      "t": 91722.88125000068,
      "d": 101.35125000000698,
      "v": 127
    },
    {
      "midi": 80,
      "hit": false,
      "t": 91722.8812500011,
      "d": 101.35125000000698,
      "v": 127
    },
    {
      "midi": 58,
      "hit": false,
      "t": 91824.23250000068,
      "d": 101.35125000000698,
      "v": 127
    },
    {
      "midi": 66,
      "hit": false,
      "t": 91824.2325000011,
      "d": 101.35125000000698,
      "v": 127
    },
    {
      "midi": 61,
      "hit": false,
      "t": 91925.58375000069,
      "d": 101.35125000000698,
      "v": 127
    },
    {
      "midi": 78,
      "hit": false,
      "t": 91925.58375000111,
      "d": 101.35125000000698,
      "v": 127
    },
    {
      "midi": 58,
      "hit": false,
      "t": 92026.9350000007,
      "d": 101.35125000000698,
      "v": 127
    },
    {
      "midi": 66,
      "hit": false,
      "t": 92026.93500000112,
      "d": 101.35125000000698,
      "v": 127
    },
    {
      "midi": 61,
      "hit": false,
      "t": 92128.2862500007,
      "d": 101.35125000000698,
      "v": 127
    },
    {
      "midi": 78,
      "hit": false,
      "t": 92128.28625000113,
      "d": 101.35125000000698,
      "v": 127
    },
    {
      "midi": 58,
      "hit": false,
      "t": 92229.63750000071,
      "d": 101.35125000000698,
      "v": 127
    },
    {
      "midi": 66,
      "hit": false,
      "t": 92229.63750000113,
      "d": 101.35125000000698,
      "v": 127
    },
    {
      "midi": 61,
      "hit": false,
      "t": 92330.98875000072,
      "d": 101.35125000000698,
      "v": 127
    },
    {
      "midi": 78,
      "hit": false,
      "t": 92330.98875000114,
      "d": 101.35125000000698,
      "v": 127
    },
    {
      "midi": 56,
      "hit": false,
      "t": 92432.34000000072,
      "d": 101.35125000000698,
      "v": 127
    },
    {
      "midi": 65,
      "hit": false,
      "t": 92432.34000000115,
      "d": 101.35125000000698,
      "v": 127
    },
    {
      "midi": 60,
      "hit": false,
      "t": 92533.69125000073,
      "d": 101.35125000000698,
      "v": 127
    },
    {
      "midi": 77,
      "hit": false,
      "t": 92533.69125000115,
      "d": 101.35125000000698,
      "v": 127
    },
    {
      "midi": 55,
      "hit": false,
      "t": 92635.04250000074,
      "d": 101.35125000000698,
      "v": 127
    },
    {
      "midi": 64,
      "hit": false,
      "t": 92635.04250000116,
      "d": 101.35125000000698,
      "v": 127
    },
    {
      "midi": 58,
      "hit": false,
      "t": 92736.39375000075,
      "d": 101.35125000000698,
      "v": 127
    },
    {
      "midi": 76,
      "hit": false,
      "t": 92736.39375000117,
      "d": 101.35125000000698,
      "v": 127
    },
    {
      "midi": 55,
      "hit": false,
      "t": 92837.74500000075,
      "d": 101.35125000000698,
      "v": 127
    },
    {
      "midi": 64,
      "hit": false,
      "t": 92837.74500000117,
      "d": 101.35125000000698,
      "v": 127
    },
    {
      "midi": 58,
      "hit": false,
      "t": 92939.09625000076,
      "d": 101.35125000000698,
      "v": 127
    },
    {
      "midi": 76,
      "hit": false,
      "t": 92939.09625000118,
      "d": 101.35125000000698,
      "v": 127
    },
    {
      "midi": 55,
      "hit": false,
      "t": 93040.44750000077,
      "d": 101.35125000000698,
      "v": 127
    },
    {
      "midi": 64,
      "hit": false,
      "t": 93040.44750000119,
      "d": 101.35125000000698,
      "v": 127
    },
    {
      "midi": 58,
      "hit": false,
      "t": 93141.79875000077,
      "d": 101.35125000000698,
      "v": 127
    },
    {
      "midi": 76,
      "hit": false,
      "t": 93141.7987500012,
      "d": 101.35125000000698,
      "v": 127
    },
    {
      "midi": 55,
      "hit": false,
      "t": 93243.15000000078,
      "d": 101.35125000000698,
      "v": 127
    },
    {
      "midi": 67,
      "hit": false,
      "t": 93243.1500000012,
      "d": 101.35125000000698,
      "v": 127
    },
    {
      "midi": 58,
      "hit": false,
      "t": 93344.50125000079,
      "d": 101.35125000000698,
      "v": 127
    },
    {
      "midi": 79,
      "hit": false,
      "t": 93344.50125000121,
      "d": 101.35125000000698,
      "v": 127
    },
    {
      "midi": 56,
      "hit": false,
      "t": 93445.8525000008,
      "d": 101.35125000000698,
      "v": 127
    },
    {
      "midi": 65,
      "hit": false,
      "t": 93445.85250000122,
      "d": 101.35125000000698,
      "v": 127
    },
    {
      "midi": 60,
      "hit": false,
      "t": 93547.2037500008,
      "d": 101.35125000000698,
      "v": 127
    },
    {
      "midi": 77,
      "hit": false,
      "t": 93547.20375000122,
      "d": 101.35125000000698,
      "v": 127
    },
    {
      "midi": 56,
      "hit": false,
      "t": 93648.55500000081,
      "d": 101.35125000000698,
      "v": 127
    },
    {
      "midi": 68,
      "hit": false,
      "t": 93648.55500000123,
      "d": 101.35125000000698,
      "v": 127
    },
    {
      "midi": 60,
      "hit": false,
      "t": 93749.90625000081,
      "d": 101.35125000000698,
      "v": 127
    },
    {
      "midi": 80,
      "hit": false,
      "t": 93749.90625000124,
      "d": 101.35125000000698,
      "v": 127
    },
    {
      "midi": 52,
      "hit": false,
      "t": 93851.25750000082,
      "d": 101.35125000000698,
      "v": 127
    },
    {
      "midi": 67,
      "hit": false,
      "t": 93851.25750000124,
      "d": 101.35125000000698,
      "v": 127
    },
    {
      "midi": 60,
      "hit": false,
      "t": 93952.60875000083,
      "d": 101.35125000000698,
      "v": 127
    },
    {
      "midi": 79,
      "hit": false,
      "t": 93952.60875000125,
      "d": 101.35125000000698,
      "v": 127
    },
    {
      "midi": 52,
      "hit": false,
      "t": 94053.96000000084,
      "d": 101.35125000000698,
      "v": 127
    },
    {
      "midi": 70,
      "hit": false,
      "t": 94053.96000000126,
      "d": 101.35125000000698,
      "v": 127
    },
    {
      "midi": 60,
      "hit": false,
      "t": 94155.31125000084,
      "d": 101.35125000000698,
      "v": 127
    },
    {
      "midi": 82,
      "hit": false,
      "t": 94155.31125000126,
      "d": 101.35125000000698,
      "v": 127
    },
    {
      "midi": 53,
      "hit": false,
      "t": 94256.66250000085,
      "d": 101.35125000000698,
      "v": 127
    },
    {
      "midi": 68,
      "hit": false,
      "t": 94256.66250000127,
      "d": 101.35125000000698,
      "v": 127
    },
    {
      "midi": 60,
      "hit": false,
      "t": 94358.01375000086,
      "d": 101.35125000000698,
      "v": 127
    },
    {
      "midi": 80,
      "hit": false,
      "t": 94358.01375000128,
      "d": 101.35125000000698,
      "v": 127
    },
    {
      "midi": 53,
      "hit": false,
      "t": 94459.36500000086,
      "d": 101.35125000000698,
      "v": 127
    },
    {
      "midi": 72,
      "hit": false,
      "t": 94459.36500000129,
      "d": 101.35125000000698,
      "v": 127
    },
    {
      "midi": 60,
      "hit": false,
      "t": 94560.71625000087,
      "d": 101.35125000000698,
      "v": 127
    },
    {
      "midi": 84,
      "hit": false,
      "t": 94560.7162500013,
      "d": 101.35125000000698,
      "v": 127
    },
    {
      "midi": 51,
      "hit": false,
      "t": 94662.06750000088,
      "d": 101.35125000000698,
      "v": 127
    },
    {
      "midi": 69,
      "hit": false,
      "t": 94662.0675000013,
      "d": 101.35125000000698,
      "v": 127
    },
    {
      "midi": 53,
      "hit": false,
      "t": 94763.41875000088,
      "d": 101.35125000000698,
      "v": 127
    },
    {
      "midi": 81,
      "hit": false,
      "t": 94763.4187500013,
      "d": 101.35125000000698,
      "v": 127
    },
    {
      "midi": 51,
      "hit": false,
      "t": 94864.77000000089,
      "d": 101.35125000000698,
      "v": 127
    },
    {
      "midi": 72,
      "hit": false,
      "t": 94864.77000000131,
      "d": 101.35125000000698,
      "v": 127
    },
    {
      "midi": 53,
      "hit": false,
      "t": 94966.1212500009,
      "d": 101.35125000000698,
      "v": 127
    },
    {
      "midi": 84,
      "hit": false,
      "t": 94966.12125000132,
      "d": 101.35125000000698,
      "v": 127
    },
    {
      "midi": 49,
      "hit": false,
      "t": 95067.4725000009,
      "d": 101.35125000000698,
      "v": 127
    },
    {
      "midi": 70,
      "hit": false,
      "t": 95067.47250000133,
      "d": 101.35125000000698,
      "v": 127
    },
    {
      "midi": 53,
      "hit": false,
      "t": 95168.82375000091,
      "d": 101.35125000000698,
      "v": 127
    },
    {
      "midi": 82,
      "hit": false,
      "t": 95168.82375000133,
      "d": 101.35125000000698,
      "v": 127
    },
    {
      "midi": 49,
      "hit": false,
      "t": 95270.17500000092,
      "d": 101.35125000000698,
      "v": 127
    },
    {
      "midi": 73,
      "hit": false,
      "t": 95270.17500000134,
      "d": 101.35125000000698,
      "v": 127
    },
    {
      "midi": 53,
      "hit": false,
      "t": 95371.52625000093,
      "d": 101.35125000000698,
      "v": 127
    },
    {
      "midi": 85,
      "hit": false,
      "t": 95371.52625000135,
      "d": 101.35125000000698,
      "v": 127
    },
    {
      "midi": 45,
      "hit": false,
      "t": 95472.87750000093,
      "d": 101.35125000000698,
      "v": 127
    },
    {
      "midi": 72,
      "hit": false,
      "t": 95472.87750000136,
      "d": 101.35125000000698,
      "v": 127
    },
    {
      "midi": 53,
      "hit": false,
      "t": 95574.22875000094,
      "d": 101.35125000000698,
      "v": 127
    },
    {
      "midi": 84,
      "hit": false,
      "t": 95574.22875000136,
      "d": 101.35125000000698,
      "v": 127
    },
    {
      "midi": 45,
      "hit": false,
      "t": 95675.58000000095,
      "d": 101.35125000000698,
      "v": 127
    },
    {
      "midi": 75,
      "hit": false,
      "t": 95675.58000000137,
      "d": 101.35125000000698,
      "v": 127
    },
    {
      "midi": 53,
      "hit": false,
      "t": 95776.93125000095,
      "d": 101.35125000000698,
      "v": 127
    },
    {
      "midi": 87,
      "hit": false,
      "t": 95776.93125000138,
      "d": 101.35125000000698,
      "v": 127
    },
    {
      "midi": 46,
      "hit": false,
      "t": 95878.28250000096,
      "d": 101.35125000000698,
      "v": 127
    },
    {
      "midi": 73,
      "hit": false,
      "t": 95878.28250000138,
      "d": 101.35125000000698,
      "v": 127
    },
    {
      "midi": 53,
      "hit": false,
      "t": 95979.63375000097,
      "d": 101.35125000000698,
      "v": 127
    },
    {
      "midi": 85,
      "hit": false,
      "t": 95979.63375000139,
      "d": 101.35125000000698,
      "v": 127
    },
    {
      "midi": 46,
      "hit": false,
      "t": 96080.98500000098,
      "d": 101.35125000000698,
      "v": 127
    },
    {
      "midi": 73,
      "hit": false,
      "t": 96080.9850000014,
      "d": 101.35125000000698,
      "v": 127
    },
    {
      "midi": 53,
      "hit": false,
      "t": 96182.33625000098,
      "d": 101.35125000000698,
      "v": 127
    },
    {
      "midi": 85,
      "hit": false,
      "t": 96182.3362500014,
      "d": 101.35125000000698,
      "v": 127
    },
    {
      "midi": 46,
      "hit": false,
      "t": 96283.68750000099,
      "d": 101.35125000000698,
      "v": 127
    },
    {
      "midi": 73,
      "hit": false,
      "t": 96283.68750000141,
      "d": 101.35125000000698,
      "v": 127
    },
    {
      "midi": 53,
      "hit": false,
      "t": 96385.038750001,
      "d": 101.35125000000698,
      "v": 127
    },
    {
      "midi": 85,
      "hit": false,
      "t": 96385.03875000142,
      "d": 101.35125000000698,
      "v": 127
    },
    {
      "midi": 48,
      "hit": false,
      "t": 96486.390000001,
      "d": 101.35125000000698,
      "v": 127
    },
    {
      "midi": 72,
      "hit": false,
      "t": 96486.39000000143,
      "d": 101.35125000000698,
      "v": 127
    },
    {
      "midi": 53,
      "hit": false,
      "t": 96587.74125000101,
      "d": 101.35125000000698,
      "v": 127
    },
    {
      "midi": 84,
      "hit": false,
      "t": 96587.74125000143,
      "d": 101.35125000000698,
      "v": 127
    },
    {
      "midi": 49,
      "hit": false,
      "t": 96689.09250000102,
      "d": 101.35125000000698,
      "v": 127
    },
    {
      "midi": 71,
      "hit": false,
      "t": 96689.09250000144,
      "d": 101.35125000000698,
      "v": 127
    },
    {
      "midi": 53,
      "hit": false,
      "t": 96790.44375000102,
      "d": 101.35125000000698,
      "v": 127
    },
    {
      "midi": 83,
      "hit": false,
      "t": 96790.44375000145,
      "d": 101.35125000000698,
      "v": 127
    },
    {
      "midi": 49,
      "hit": false,
      "t": 96891.79500000103,
      "d": 101.35125000000698,
      "v": 127
    },
    {
      "midi": 71,
      "hit": false,
      "t": 96891.79500000145,
      "d": 101.35125000000698,
      "v": 127
    },
    {
      "midi": 53,
      "hit": false,
      "t": 96993.14625000104,
      "d": 101.35125000000698,
      "v": 127
    },
    {
      "midi": 83,
      "hit": false,
      "t": 96993.14625000146,
      "d": 101.35125000000698,
      "v": 127
    },
    {
      "midi": 49,
      "hit": false,
      "t": 97094.49750000105,
      "d": 101.35125000000698,
      "v": 127
    },
    {
      "midi": 71,
      "hit": false,
      "t": 97094.49750000147,
      "d": 101.35125000000698,
      "v": 127
    },
    {
      "midi": 53,
      "hit": false,
      "t": 97195.84875000105,
      "d": 101.35125000000698,
      "v": 127
    },
    {
      "midi": 83,
      "hit": false,
      "t": 97195.84875000147,
      "d": 101.35125000000698,
      "v": 127
    },
    {
      "midi": 37,
      "hit": false,
      "t": 97297.20000000106,
      "d": 101.35125000000698,
      "v": 127
    },
    {
      "midi": 77,
      "hit": false,
      "t": 97297.20000000148,
      "d": 101.35125000000698,
      "v": 127
    },
    {
      "midi": 49,
      "hit": false,
      "t": 97398.55125000107,
      "d": 101.35125000000698,
      "v": 127
    },
    {
      "midi": 89,
      "hit": false,
      "t": 97398.55125000149,
      "d": 101.35125000000698,
      "v": 127
    },
    {
      "midi": 36,
      "hit": false,
      "t": 97499.90250000107,
      "d": 101.35125000000698,
      "v": 127
    },
    {
      "midi": 76,
      "hit": false,
      "t": 97499.9025000015,
      "d": 101.35125000000698,
      "v": 127
    },
    {
      "midi": 48,
      "hit": false,
      "t": 97601.25375000108,
      "d": 101.35125000000698,
      "v": 127
    },
    {
      "midi": 88,
      "hit": false,
      "t": 97601.2537500015,
      "d": 101.35125000000698,
      "v": 127
    },
    {
      "midi": 36,
      "hit": false,
      "t": 97702.60500000109,
      "d": 101.35125000000698,
      "v": 127
    },
    {
      "midi": 76,
      "hit": false,
      "t": 97702.60500000151,
      "d": 101.35125000000698,
      "v": 127
    },
    {
      "midi": 48,
      "hit": false,
      "t": 97803.9562500011,
      "d": 101.35125000000698,
      "v": 127
    },
    {
      "midi": 88,
      "hit": false,
      "t": 97803.95625000152,
      "d": 101.35125000000698,
      "v": 127
    },
    {
      "midi": 36,
      "hit": false,
      "t": 97905.3075000011,
      "d": 101.35125000000698,
      "v": 127
    },
    {
      "midi": 76,
      "hit": false,
      "t": 97905.30750000152,
      "d": 101.35125000000698,
      "v": 127
    },
    {
      "midi": 48,
      "hit": false,
      "t": 98006.65875000111,
      "d": 101.35125000000698,
      "v": 127
    },
    {
      "midi": 88,
      "hit": false,
      "t": 98006.65875000153,
      "d": 101.35125000000698,
      "v": 127
    },
    {
      "midi": 40,
      "hit": false,
      "t": 98108.01000000112,
      "d": 101.35125000000698,
      "v": 127
    },
    {
      "midi": 70,
      "hit": false,
      "t": 98108.01000000154,
      "d": 101.35125000000698,
      "v": 127
    },
    {
      "midi": 52,
      "hit": false,
      "t": 98209.36125000112,
      "d": 101.35125000000698,
      "v": 127
    },
    {
      "midi": 82,
      "hit": false,
      "t": 98209.36125000154,
      "d": 101.35125000000698,
      "v": 127
    },
    {
      "midi": 41,
      "hit": false,
      "t": 98310.71250000113,
      "d": 101.35125000000698,
      "v": 127
    },
    {
      "midi": 69,
      "hit": false,
      "t": 98310.71250000155,
      "d": 101.35125000000698,
      "v": 127
    },
    {
      "midi": 53,
      "hit": false,
      "t": 98412.06375000114,
      "d": 101.35125000000698,
      "v": 127
    },
    {
      "midi": 81,
      "hit": false,
      "t": 98412.06375000156,
      "d": 101.35125000000698,
      "v": 127
    },
    {
      "midi": 41,
      "hit": false,
      "t": 98513.41500000114,
      "d": 101.35125000000698,
      "v": 127
    },
    {
      "midi": 69,
      "hit": false,
      "t": 98513.41500000157,
      "d": 101.35125000000698,
      "v": 127
    },
    {
      "midi": 53,
      "hit": false,
      "t": 98614.76625000115,
      "d": 101.35125000000698,
      "v": 127
    },
    {
      "midi": 81,
      "hit": false,
      "t": 98614.76625000157,
      "d": 101.35125000000698,
      "v": 127
    },
    {
      "midi": 41,
      "hit": false,
      "t": 98716.11750000116,
      "d": 101.35125000000698,
      "v": 127
    },
    {
      "midi": 69,
      "hit": false,
      "t": 98716.11750000158,
      "d": 101.35125000000698,
      "v": 127
    },
    {
      "midi": 53,
      "hit": false,
      "t": 98817.46875000116,
      "d": 101.35125000000698,
      "v": 127
    },
    {
      "midi": 81,
      "hit": false,
      "t": 98817.46875000159,
      "d": 101.35125000000698,
      "v": 127
    },
    {
      "midi": 33,
      "hit": false,
      "t": 98918.82000000117,
      "d": 101.35125000000698,
      "v": 127
    },
    {
      "midi": 75,
      "hit": false,
      "t": 98918.8200000016,
      "d": 101.35125000000698,
      "v": 127
    },
    {
      "midi": 45,
      "hit": false,
      "t": 99020.17125000118,
      "d": 101.35125000000698,
      "v": 127
    },
    {
      "midi": 87,
      "hit": false,
      "t": 99020.1712500016,
      "d": 101.35125000000698,
      "v": 127
    },
    {
      "midi": 34,
      "hit": false,
      "t": 99121.52250000119,
      "d": 101.35125000000698,
      "v": 127
    },
    {
      "midi": 74,
      "hit": false,
      "t": 99121.5225000016,
      "d": 202.70249999999942,
      "v": 127
    },
    {
      "midi": 46,
      "hit": false,
      "t": 99222.87375000119,
      "d": 101.35125000000698,
      "v": 127
    },
    {
      "midi": 34,
      "hit": false,
      "t": 99324.2250000012,
      "d": 101.35125000000698,
      "v": 127
    },
    {
      "midi": 86,
      "hit": false,
      "t": 99324.2250000016,
      "d": 101.35125000000698,
      "v": 127
    },
    {
      "midi": 46,
      "hit": false,
      "t": 99425.5762500012,
      "d": 101.35125000000698,
      "v": 127
    },
    {
      "midi": 85,
      "hit": false,
      "t": 99425.57625000161,
      "d": 101.35125000000698,
      "v": 127
    },
    {
      "midi": 34,
      "hit": false,
      "t": 99526.92750000121,
      "d": 101.35125000000698,
      "v": 127
    },
    {
      "midi": 86,
      "hit": false,
      "t": 99526.92750000162,
      "d": 101.35125000000698,
      "v": 127
    },
    {
      "midi": 46,
      "hit": false,
      "t": 99628.27875000122,
      "d": 101.35125000000698,
      "v": 127
    },
    {
      "midi": 84,
      "hit": false,
      "t": 99628.27875000163,
      "d": 101.35125000000698,
      "v": 127
    },
    {
      "midi": 35,
      "hit": false,
      "t": 99729.63000000123,
      "d": 101.35125000000698,
      "v": 127
    },
    {
      "midi": 82,
      "hit": false,
      "t": 99729.63000000163,
      "d": 101.35125000000698,
      "v": 127
    },
    {
      "midi": 47,
      "hit": false,
      "t": 99830.98125000123,
      "d": 101.35125000000698,
      "v": 127
    },
    {
      "midi": 81,
      "hit": false,
      "t": 99830.98125000164,
      "d": 101.35125000000698,
      "v": 127
    },
    {
      "midi": 36,
      "hit": false,
      "t": 99932.33250000124,
      "d": 101.35125000000698,
      "v": 127
    },
    {
      "midi": 79,
      "hit": false,
      "t": 99932.33250000165,
      "d": 101.35125000000698,
      "v": 127
    },
    {
      "midi": 48,
      "hit": false,
      "t": 100033.68375000125,
      "d": 101.35125000000698,
      "v": 127
    },
    {
      "midi": 77,
      "hit": false,
      "t": 100033.68375000166,
      "d": 101.35125000000698,
      "v": 127
    },
    {
      "midi": 36,
      "hit": false,
      "t": 100135.03500000125,
      "d": 101.35125000000698,
      "v": 127
    },
    {
      "midi": 76,
      "hit": false,
      "t": 100135.03500000166,
      "d": 101.35125000000698,
      "v": 127
    },
    {
      "midi": 48,
      "hit": false,
      "t": 100236.38625000126,
      "d": 101.35125000000698,
      "v": 127
    },
    {
      "midi": 74,
      "hit": false,
      "t": 100236.38625000167,
      "d": 101.35125000000698,
      "v": 127
    },
    {
      "midi": 36,
      "hit": false,
      "t": 100337.73750000127,
      "d": 101.35125000000698,
      "v": 127
    },
    {
      "midi": 72,
      "hit": false,
      "t": 100337.73750000168,
      "d": 101.35125000000698,
      "v": 127
    },
    {
      "midi": 48,
      "hit": false,
      "t": 100439.08875000128,
      "d": 101.35125000000698,
      "v": 127
    },
    {
      "midi": 70,
      "hit": false,
      "t": 100439.08875000168,
      "d": 101.35125000000698,
      "v": 127
    },
    {
      "midi": 36,
      "hit": false,
      "t": 100540.44000000128,
      "d": 101.35125000000698,
      "v": 127
    },
    {
      "midi": 69,
      "hit": false,
      "t": 100540.44000000169,
      "d": 101.35125000000698,
      "v": 127
    },
    {
      "midi": 48,
      "hit": false,
      "t": 100641.79125000129,
      "d": 101.35125000000698,
      "v": 127
    },
    {
      "midi": 67,
      "hit": false,
      "t": 100641.7912500017,
      "d": 101.35125000000698,
      "v": 127
    },
    {
      "midi": 53,
      "hit": false,
      "t": 100743.1425000013,
      "d": 202.70249999999942,
      "v": 127
    },
    {
      "midi": 65,
      "hit": false,
      "t": 100743.1425000017,
      "d": 202.70249999999942,
      "v": 127
    },
    {
      "midi": 53,
      "hit": false,
      "t": 100945.8450000013,
      "d": 202.70249999999942,
      "v": 127
    },
    {
      "midi": 57,
      "hit": false,
      "t": 100945.8450000017,
      "d": 202.70249999999942,
      "v": 127
    },
    {
      "midi": 60,
      "hit": false,
      "t": 100945.8450000017,
      "d": 202.70249999999942,
      "v": 127
    },
    {
      "midi": 53,
      "hit": false,
      "t": 101148.5475000013,
      "d": 202.70249999999942,
      "v": 127
    },
    {
      "midi": 57,
      "hit": false,
      "t": 101148.5475000017,
      "d": 202.70249999999942,
      "v": 127
    },
    {
      "midi": 60,
      "hit": false,
      "t": 101148.5475000017,
      "d": 202.70249999999942,
      "v": 127
    },
    {
      "midi": 48,
      "hit": false,
      "t": 101351.2500000013,
      "d": 202.70249999999942,
      "v": 127
    },
    {
      "midi": 57,
      "hit": false,
      "t": 101351.2500000017,
      "d": 202.70249999999942,
      "v": 127
    },
    {
      "midi": 65,
      "hit": false,
      "t": 101351.2500000017,
      "d": 202.70249999999942,
      "v": 127
    },
    {
      "midi": 53,
      "hit": false,
      "t": 101553.9525000013,
      "d": 202.70249999999942,
      "v": 127
    },
    {
      "midi": 57,
      "hit": false,
      "t": 101553.9525000017,
      "d": 202.70249999999942,
      "v": 127
    },
    {
      "midi": 60,
      "hit": false,
      "t": 101553.9525000017,
      "d": 202.70249999999942,
      "v": 127
    },
    {
      "midi": 53,
      "hit": false,
      "t": 101756.6550000013,
      "d": 202.70249999999942,
      "v": 127
    },
    {
      "midi": 57,
      "hit": false,
      "t": 101756.6550000017,
      "d": 202.70249999999942,
      "v": 127
    },
    {
      "midi": 60,
      "hit": false,
      "t": 101756.6550000017,
      "d": 202.70249999999942,
      "v": 127
    },
    {
      "midi": 53,
      "hit": false,
      "t": 101959.3575000013,
      "d": 202.70249999999942,
      "v": 127
    },
    {
      "midi": 57,
      "hit": false,
      "t": 101959.3575000017,
      "d": 202.70249999999942,
      "v": 127
    },
    {
      "midi": 60,
      "hit": false,
      "t": 101959.3575000017,
      "d": 202.70249999999942,
      "v": 127
    },
    {
      "midi": 48,
      "hit": false,
      "t": 102162.0600000013,
      "d": 202.70249999999942,
      "v": 127
    },
    {
      "midi": 57,
      "hit": false,
      "t": 102162.0600000017,
      "d": 202.70249999999942,
      "v": 127
    },
    {
      "midi": 65,
      "hit": false,
      "t": 102162.0600000017,
      "d": 202.70249999999942,
      "v": 127
    },
    {
      "midi": 55,
      "hit": false,
      "t": 102364.76250000129,
      "d": 202.70249999999942,
      "v": 127
    },
    {
      "midi": 58,
      "hit": false,
      "t": 102364.7625000017,
      "d": 202.70249999999942,
      "v": 127
    },
    {
      "midi": 60,
      "hit": false,
      "t": 102364.7625000017,
      "d": 202.70249999999942,
      "v": 127
    },
    {
      "midi": 53,
      "hit": false,
      "t": 102567.46500000129,
      "d": 202.70249999999942,
      "v": 127
    },
    {
      "midi": 58,
      "hit": false,
      "t": 102567.4650000017,
      "d": 202.70249999999942,
      "v": 127
    },
    {
      "midi": 67,
      "hit": false,
      "t": 102567.4650000017,
      "d": 202.70249999999942,
      "v": 127
    },
    {
      "midi": 52,
      "hit": false,
      "t": 102770.16750000129,
      "d": 202.70249999999942,
      "v": 127
    },
    {
      "midi": 58,
      "hit": false,
      "t": 102770.1675000017,
      "d": 202.70249999999942,
      "v": 127
    },
    {
      "midi": 67,
      "hit": false,
      "t": 102770.1675000017,
      "d": 202.70249999999942,
      "v": 127
    },
    {
      "midi": 50,
      "hit": false,
      "t": 102972.87000000129,
      "d": 202.70249999999942,
      "v": 127
    },
    {
      "midi": 58,
      "hit": false,
      "t": 102972.8700000017,
      "d": 202.70249999999942,
      "v": 127
    },
    {
      "midi": 67,
      "hit": false,
      "t": 102972.8700000017,
      "d": 202.70249999999942,
      "v": 127
    },
    {
      "midi": 48,
      "hit": false,
      "t": 103175.57250000129,
      "d": 202.70249999999942,
      "v": 127
    },
    {
      "midi": 58,
      "hit": false,
      "t": 103175.5725000017,
      "d": 202.70249999999942,
      "v": 127
    },
    {
      "midi": 67,
      "hit": false,
      "t": 103175.5725000017,
      "d": 202.70249999999942,
      "v": 127
    },
    {
      "midi": 50,
      "hit": false,
      "t": 103378.27500000129,
      "d": 202.70249999999942,
      "v": 127
    },
    {
      "midi": 58,
      "hit": false,
      "t": 103378.2750000017,
      "d": 202.70249999999942,
      "v": 127
    },
    {
      "midi": 67,
      "hit": false,
      "t": 103378.2750000017,
      "d": 202.70249999999942,
      "v": 127
    },
    {
      "midi": 52,
      "hit": false,
      "t": 103580.97750000129,
      "d": 202.70249999999942,
      "v": 127
    },
    {
      "midi": 58,
      "hit": false,
      "t": 103580.9775000017,
      "d": 101.35125000000698,
      "v": 127
    },
    {
      "midi": 67,
      "hit": false,
      "t": 103580.9775000017,
      "d": 101.35125000000698,
      "v": 127
    },
    {
      "midi": 69,
      "hit": false,
      "t": 103682.3287500017,
      "d": 101.35125000000698,
      "v": 127
    },
    {
      "midi": 48,
      "hit": false,
      "t": 103783.68000000129,
      "d": 202.70249999999942,
      "v": 127
    },
    {
      "midi": 58,
      "hit": false,
      "t": 103783.68000000171,
      "d": 101.35125000000698,
      "v": 127
    },
    {
      "midi": 67,
      "hit": false,
      "t": 103783.68000000171,
      "d": 101.35125000000698,
      "v": 127
    },
    {
      "midi": 69,
      "hit": false,
      "t": 103885.03125000172,
      "d": 101.35125000000698,
      "v": 127
    },
    {
      "midi": 53,
      "hit": false,
      "t": 103986.38250000129,
      "d": 202.70249999999942,
      "v": 127
    },
    {
      "midi": 57,
      "hit": false,
      "t": 103986.38250000172,
      "d": 202.70249999999942,
      "v": 127
    },
    {
      "midi": 65,
      "hit": false,
      "t": 103986.38250000172,
      "d": 202.70249999999942,
      "v": 127
    },
    {
      "midi": 53,
      "hit": false,
      "t": 104189.08500000129,
      "d": 202.70249999999942,
      "v": 127
    },
    {
      "midi": 57,
      "hit": false,
      "t": 104189.08500000172,
      "d": 202.70249999999942,
      "v": 127
    },
    {
      "midi": 60,
      "hit": false,
      "t": 104189.08500000172,
      "d": 202.70249999999942,
      "v": 127
    },
    {
      "midi": 53,
      "hit": false,
      "t": 104391.78750000129,
      "d": 202.70249999999942,
      "v": 127
    },
    {
      "midi": 57,
      "hit": false,
      "t": 104391.78750000172,
      "d": 202.70249999999942,
      "v": 127
    },
    {
      "midi": 60,
      "hit": false,
      "t": 104391.78750000172,
      "d": 202.70249999999942,
      "v": 127
    },
    {
      "midi": 48,
      "hit": false,
      "t": 104594.49000000129,
      "d": 202.70249999999942,
      "v": 127
    },
    {
      "midi": 57,
      "hit": false,
      "t": 104594.49000000172,
      "d": 202.70249999999942,
      "v": 127
    },
    {
      "midi": 65,
      "hit": false,
      "t": 104594.49000000172,
      "d": 202.70249999999942,
      "v": 127
    },
    {
      "midi": 53,
      "hit": false,
      "t": 104797.19250000129,
      "d": 202.70249999999942,
      "v": 127
    },
    {
      "midi": 57,
      "hit": false,
      "t": 104797.19250000172,
      "d": 202.70249999999942,
      "v": 127
    },
    {
      "midi": 60,
      "hit": false,
      "t": 104797.19250000172,
      "d": 202.70249999999942,
      "v": 127
    },
    {
      "midi": 53,
      "hit": false,
      "t": 104999.89500000128,
      "d": 202.70249999999942,
      "v": 127
    },
    {
      "midi": 57,
      "hit": false,
      "t": 104999.89500000172,
      "d": 202.70249999999942,
      "v": 127
    },
    {
      "midi": 60,
      "hit": false,
      "t": 104999.89500000172,
      "d": 202.70249999999942,
      "v": 127
    },
    {
      "midi": 53,
      "hit": false,
      "t": 105202.59750000128,
      "d": 202.70249999999942,
      "v": 127
    },
    {
      "midi": 57,
      "hit": false,
      "t": 105202.59750000172,
      "d": 202.70249999999942,
      "v": 127
    },
    {
      "midi": 60,
      "hit": false,
      "t": 105202.59750000172,
      "d": 202.70249999999942,
      "v": 127
    },
    {
      "midi": 48,
      "hit": false,
      "t": 105405.30000000128,
      "d": 202.70249999999942,
      "v": 127
    },
    {
      "midi": 57,
      "hit": false,
      "t": 105405.30000000172,
      "d": 202.70249999999942,
      "v": 127
    },
    {
      "midi": 65,
      "hit": false,
      "t": 105405.30000000172,
      "d": 202.70249999999942,
      "v": 127
    },
    {
      "midi": 55,
      "hit": false,
      "t": 105608.00250000128,
      "d": 202.70249999999942,
      "v": 127
    },
    {
      "midi": 58,
      "hit": false,
      "t": 105608.00250000172,
      "d": 202.70249999999942,
      "v": 127
    },
    {
      "midi": 60,
      "hit": false,
      "t": 105608.00250000172,
      "d": 202.70249999999942,
      "v": 127
    },
    {
      "midi": 53,
      "hit": false,
      "t": 105810.70500000128,
      "d": 202.70249999999942,
      "v": 127
    },
    {
      "midi": 58,
      "hit": false,
      "t": 105810.70500000172,
      "d": 202.70249999999942,
      "v": 127
    },
    {
      "midi": 67,
      "hit": false,
      "t": 105810.70500000172,
      "d": 202.70249999999942,
      "v": 127
    },
    {
      "midi": 52,
      "hit": false,
      "t": 106013.40750000128,
      "d": 202.70249999999942,
      "v": 127
    },
    {
      "midi": 58,
      "hit": false,
      "t": 106013.40750000172,
      "d": 202.70249999999942,
      "v": 127
    },
    {
      "midi": 67,
      "hit": false,
      "t": 106013.40750000172,
      "d": 202.70249999999942,
      "v": 127
    },
    {
      "midi": 50,
      "hit": false,
      "t": 106216.11000000128,
      "d": 202.70249999999942,
      "v": 127
    },
    {
      "midi": 58,
      "hit": false,
      "t": 106216.11000000172,
      "d": 202.70249999999942,
      "v": 127
    },
    {
      "midi": 67,
      "hit": false,
      "t": 106216.11000000172,
      "d": 202.70249999999942,
      "v": 127
    },
    {
      "midi": 48,
      "hit": false,
      "t": 106418.81250000128,
      "d": 202.70249999999942,
      "v": 127
    },
    {
      "midi": 58,
      "hit": false,
      "t": 106418.81250000172,
      "d": 202.70249999999942,
      "v": 127
    },
    {
      "midi": 67,
      "hit": false,
      "t": 106418.81250000172,
      "d": 202.70249999999942,
      "v": 127
    },
    {
      "midi": 50,
      "hit": false,
      "t": 106621.51500000128,
      "d": 202.70249999999942,
      "v": 127
    },
    {
      "midi": 58,
      "hit": false,
      "t": 106621.51500000172,
      "d": 202.70249999999942,
      "v": 127
    },
    {
      "midi": 67,
      "hit": false,
      "t": 106621.51500000172,
      "d": 202.70249999999942,
      "v": 127
    },
    {
      "midi": 52,
      "hit": false,
      "t": 106824.21750000128,
      "d": 202.70249999999942,
      "v": 127
    },
    {
      "midi": 58,
      "hit": false,
      "t": 106824.21750000172,
      "d": 101.35125000000698,
      "v": 127
    },
    {
      "midi": 67,
      "hit": false,
      "t": 106824.21750000172,
      "d": 101.35125000000698,
      "v": 127
    },
    {
      "midi": 69,
      "hit": false,
      "t": 106925.56875000172,
      "d": 101.35125000000698,
      "v": 127
    },
    {
      "midi": 48,
      "hit": false,
      "t": 107026.92000000128,
      "d": 202.70249999999942,
      "v": 127
    },
    {
      "midi": 58,
      "hit": false,
      "t": 107026.92000000173,
      "d": 101.35125000000698,
      "v": 127
    },
    {
      "midi": 67,
      "hit": false,
      "t": 107026.92000000173,
      "d": 101.35125000000698,
      "v": 127
    },
    {
      "midi": 69,
      "hit": false,
      "t": 107128.27125000174,
      "d": 101.35125000000698,
      "v": 127
    },
    {
      "midi": 41,
      "hit": false,
      "t": 107229.62250000128,
      "d": 202.70249999999942,
      "v": 127
    },
    {
      "midi": 57,
      "hit": false,
      "t": 107229.62250000174,
      "d": 202.70249999999942,
      "v": 127
    },
    {
      "midi": 65,
      "hit": false,
      "t": 107229.62250000174,
      "d": 202.70249999999942,
      "v": 127
    },
    {
      "midi": 65,
      "hit": false,
      "t": 107432.32500000128,
      "d": 202.70249999999942,
      "v": 127
    },
    {
      "midi": 72,
      "hit": false,
      "t": 107432.32500000174,
      "d": 202.70249999999942,
      "v": 127
    },
    {
      "midi": 81,
      "hit": false,
      "t": 107432.32500000174,
      "d": 202.70249999999942,
      "v": 127
    },
    {
      "midi": 84,
      "hit": false,
      "t": 107432.32500000174,
      "d": 202.70249999999942,
      "v": 127
    },
    {
      "midi": 65,
      "hit": false,
      "t": 107635.02750000128,
      "d": 202.70249999999942,
      "v": 127
    },
    {
      "midi": 72,
      "hit": false,
      "t": 107635.02750000174,
      "d": 202.70249999999942,
      "v": 127
    },
    {
      "midi": 81,
      "hit": false,
      "t": 107635.02750000174,
      "d": 202.70249999999942,
      "v": 127
    },
    {
      "midi": 84,
      "hit": false,
      "t": 107635.02750000174,
      "d": 202.70249999999942,
      "v": 127
    },
    {
      "midi": 60,
      "hit": false,
      "t": 107837.73000000128,
      "d": 202.70249999999942,
      "v": 127
    },
    {
      "midi": 77,
      "hit": false,
      "t": 107837.73000000174,
      "d": 202.70249999999942,
      "v": 127
    },
    {
      "midi": 81,
      "hit": false,
      "t": 107837.73000000174,
      "d": 202.70249999999942,
      "v": 127
    },
    {
      "midi": 84,
      "hit": false,
      "t": 107837.73000000174,
      "d": 202.70249999999942,
      "v": 127
    },
    {
      "midi": 65,
      "hit": false,
      "t": 108040.43250000128,
      "d": 202.70249999999942,
      "v": 127
    },
    {
      "midi": 72,
      "hit": false,
      "t": 108040.43250000174,
      "d": 202.70249999999942,
      "v": 127
    },
    {
      "midi": 81,
      "hit": false,
      "t": 108040.43250000174,
      "d": 202.70249999999942,
      "v": 127
    },
    {
      "midi": 84,
      "hit": false,
      "t": 108040.43250000174,
      "d": 202.70249999999942,
      "v": 127
    },
    {
      "midi": 65,
      "hit": false,
      "t": 108243.13500000128,
      "d": 202.70249999999942,
      "v": 127
    },
    {
      "midi": 72,
      "hit": false,
      "t": 108243.13500000174,
      "d": 202.70249999999942,
      "v": 127
    },
    {
      "midi": 81,
      "hit": false,
      "t": 108243.13500000174,
      "d": 202.70249999999942,
      "v": 127
    },
    {
      "midi": 84,
      "hit": false,
      "t": 108243.13500000174,
      "d": 202.70249999999942,
      "v": 127
    },
    {
      "midi": 65,
      "hit": false,
      "t": 108445.83750000127,
      "d": 202.70249999999942,
      "v": 127
    },
    {
      "midi": 72,
      "hit": false,
      "t": 108445.83750000174,
      "d": 202.70249999999942,
      "v": 127
    },
    {
      "midi": 81,
      "hit": false,
      "t": 108445.83750000174,
      "d": 202.70249999999942,
      "v": 127
    },
    {
      "midi": 84,
      "hit": false,
      "t": 108445.83750000174,
      "d": 202.70249999999942,
      "v": 127
    },
    {
      "midi": 60,
      "hit": false,
      "t": 108648.54000000127,
      "d": 202.70249999999942,
      "v": 127
    },
    {
      "midi": 77,
      "hit": false,
      "t": 108648.54000000174,
      "d": 202.70249999999942,
      "v": 127
    },
    {
      "midi": 81,
      "hit": false,
      "t": 108648.54000000174,
      "d": 202.70249999999942,
      "v": 127
    },
    {
      "midi": 84,
      "hit": false,
      "t": 108648.54000000174,
      "d": 202.70249999999942,
      "v": 127
    },
    {
      "midi": 67,
      "hit": false,
      "t": 108851.24250000127,
      "d": 202.70249999999942,
      "v": 127
    },
    {
      "midi": 72,
      "hit": false,
      "t": 108851.24250000174,
      "d": 202.70249999999942,
      "v": 127
    },
    {
      "midi": 82,
      "hit": false,
      "t": 108851.24250000174,
      "d": 202.70249999999942,
      "v": 127
    },
    {
      "midi": 84,
      "hit": false,
      "t": 108851.24250000174,
      "d": 202.70249999999942,
      "v": 127
    },
    {
      "midi": 65,
      "hit": false,
      "t": 109053.94500000127,
      "d": 202.70249999999942,
      "v": 127
    },
    {
      "midi": 74,
      "hit": false,
      "t": 109053.94500000174,
      "d": 202.70249999999942,
      "v": 127
    },
    {
      "midi": 82,
      "hit": false,
      "t": 109053.94500000174,
      "d": 202.70249999999942,
      "v": 127
    },
    {
      "midi": 84,
      "hit": false,
      "t": 109053.94500000174,
      "d": 202.70249999999942,
      "v": 127
    },
    {
      "midi": 64,
      "hit": false,
      "t": 109256.64750000127,
      "d": 202.70249999999942,
      "v": 127
    },
    {
      "midi": 76,
      "hit": false,
      "t": 109256.64750000174,
      "d": 202.70249999999942,
      "v": 127
    },
    {
      "midi": 82,
      "hit": false,
      "t": 109256.64750000174,
      "d": 202.70249999999942,
      "v": 127
    },
    {
      "midi": 84,
      "hit": false,
      "t": 109256.64750000174,
      "d": 202.70249999999942,
      "v": 127
    },
    {
      "midi": 62,
      "hit": false,
      "t": 109459.35000000127,
      "d": 202.70249999999942,
      "v": 127
    },
    {
      "midi": 77,
      "hit": false,
      "t": 109459.35000000174,
      "d": 202.70249999999942,
      "v": 127
    },
    {
      "midi": 82,
      "hit": false,
      "t": 109459.35000000174,
      "d": 202.70249999999942,
      "v": 127
    },
    {
      "midi": 84,
      "hit": false,
      "t": 109459.35000000174,
      "d": 202.70249999999942,
      "v": 127
    },
    {
      "midi": 60,
      "hit": false,
      "t": 109662.05250000127,
      "d": 202.70249999999942,
      "v": 127
    },
    {
      "midi": 79,
      "hit": false,
      "t": 109662.05250000174,
      "d": 202.70249999999942,
      "v": 127
    },
    {
      "midi": 82,
      "hit": false,
      "t": 109662.05250000174,
      "d": 202.70249999999942,
      "v": 127
    },
    {
      "midi": 84,
      "hit": false,
      "t": 109662.05250000174,
      "d": 202.70249999999942,
      "v": 127
    },
    {
      "midi": 64,
      "hit": false,
      "t": 109864.75500000127,
      "d": 202.70249999999942,
      "v": 127
    },
    {
      "midi": 76,
      "hit": false,
      "t": 109864.75500000174,
      "d": 202.70249999999942,
      "v": 127
    },
    {
      "midi": 82,
      "hit": false,
      "t": 109864.75500000174,
      "d": 202.70249999999942,
      "v": 127
    },
    {
      "midi": 84,
      "hit": false,
      "t": 109864.75500000174,
      "d": 202.70249999999942,
      "v": 127
    },
    {
      "midi": 62,
      "hit": false,
      "t": 110067.45750000127,
      "d": 202.70249999999942,
      "v": 127
    },
    {
      "midi": 77,
      "hit": false,
      "t": 110067.45750000174,
      "d": 202.70249999999942,
      "v": 127
    },
    {
      "midi": 82,
      "hit": false,
      "t": 110067.45750000174,
      "d": 202.70249999999942,
      "v": 127
    },
    {
      "midi": 84,
      "hit": false,
      "t": 110067.45750000174,
      "d": 202.70249999999942,
      "v": 127
    },
    {
      "midi": 60,
      "hit": false,
      "t": 110270.16000000127,
      "d": 202.70249999999942,
      "v": 127
    },
    {
      "midi": 79,
      "hit": false,
      "t": 110270.16000000174,
      "d": 202.70249999999942,
      "v": 127
    },
    {
      "midi": 82,
      "hit": false,
      "t": 110270.16000000174,
      "d": 202.70249999999942,
      "v": 127
    },
    {
      "midi": 84,
      "hit": false,
      "t": 110270.16000000174,
      "d": 202.70249999999942,
      "v": 127
    },
    {
      "midi": 65,
      "hit": false,
      "t": 110472.86250000127,
      "d": 202.70249999999942,
      "v": 127
    },
    {
      "midi": 72,
      "hit": false,
      "t": 110472.86250000173,
      "d": 202.70249999999942,
      "v": 127
    },
    {
      "midi": 81,
      "hit": false,
      "t": 110472.86250000173,
      "d": 202.70249999999942,
      "v": 127
    },
    {
      "midi": 84,
      "hit": false,
      "t": 110472.86250000173,
      "d": 202.70249999999942,
      "v": 127
    },
    {
      "midi": 65,
      "hit": false,
      "t": 110675.56500000127,
      "d": 202.70249999999942,
      "v": 127
    },
    {
      "midi": 72,
      "hit": false,
      "t": 110675.56500000173,
      "d": 202.70249999999942,
      "v": 127
    },
    {
      "midi": 81,
      "hit": false,
      "t": 110675.56500000173,
      "d": 202.70249999999942,
      "v": 127
    },
    {
      "midi": 84,
      "hit": false,
      "t": 110675.56500000173,
      "d": 202.70249999999942,
      "v": 127
    },
    {
      "midi": 65,
      "hit": false,
      "t": 110878.26750000127,
      "d": 202.70249999999942,
      "v": 127
    },
    {
      "midi": 72,
      "hit": false,
      "t": 110878.26750000173,
      "d": 202.70249999999942,
      "v": 127
    },
    {
      "midi": 81,
      "hit": false,
      "t": 110878.26750000173,
      "d": 202.70249999999942,
      "v": 127
    },
    {
      "midi": 84,
      "hit": false,
      "t": 110878.26750000173,
      "d": 202.70249999999942,
      "v": 127
    },
    {
      "midi": 60,
      "hit": false,
      "t": 111080.97000000127,
      "d": 202.70249999999942,
      "v": 127
    },
    {
      "midi": 77,
      "hit": false,
      "t": 111080.97000000173,
      "d": 202.70249999999942,
      "v": 127
    },
    {
      "midi": 81,
      "hit": false,
      "t": 111080.97000000173,
      "d": 202.70249999999942,
      "v": 127
    },
    {
      "midi": 84,
      "hit": false,
      "t": 111080.97000000173,
      "d": 202.70249999999942,
      "v": 127
    },
    {
      "midi": 65,
      "hit": false,
      "t": 111283.67250000127,
      "d": 202.70249999999942,
      "v": 127
    },
    {
      "midi": 72,
      "hit": false,
      "t": 111283.67250000173,
      "d": 202.70249999999942,
      "v": 127
    },
    {
      "midi": 81,
      "hit": false,
      "t": 111283.67250000173,
      "d": 202.70249999999942,
      "v": 127
    },
    {
      "midi": 84,
      "hit": false,
      "t": 111283.67250000173,
      "d": 202.70249999999942,
      "v": 127
    },
    {
      "midi": 65,
      "hit": false,
      "t": 111486.37500000127,
      "d": 202.70249999999942,
      "v": 127
    },
    {
      "midi": 72,
      "hit": false,
      "t": 111486.37500000173,
      "d": 202.70249999999942,
      "v": 127
    },
    {
      "midi": 81,
      "hit": false,
      "t": 111486.37500000173,
      "d": 202.70249999999942,
      "v": 127
    },
    {
      "midi": 84,
      "hit": false,
      "t": 111486.37500000173,
      "d": 202.70249999999942,
      "v": 127
    },
    {
      "midi": 65,
      "hit": false,
      "t": 111689.07750000127,
      "d": 202.70249999999942,
      "v": 127
    },
    {
      "midi": 72,
      "hit": false,
      "t": 111689.07750000173,
      "d": 202.70249999999942,
      "v": 127
    },
    {
      "midi": 81,
      "hit": false,
      "t": 111689.07750000173,
      "d": 202.70249999999942,
      "v": 127
    },
    {
      "midi": 84,
      "hit": false,
      "t": 111689.07750000173,
      "d": 202.70249999999942,
      "v": 127
    },
    {
      "midi": 60,
      "hit": false,
      "t": 111891.78000000126,
      "d": 202.70249999999942,
      "v": 127
    },
    {
      "midi": 77,
      "hit": false,
      "t": 111891.78000000173,
      "d": 202.70249999999942,
      "v": 127
    },
    {
      "midi": 81,
      "hit": false,
      "t": 111891.78000000173,
      "d": 202.70249999999942,
      "v": 127
    },
    {
      "midi": 84,
      "hit": false,
      "t": 111891.78000000173,
      "d": 202.70249999999942,
      "v": 127
    },
    {
      "midi": 67,
      "hit": false,
      "t": 112094.48250000126,
      "d": 202.70249999999942,
      "v": 127
    },
    {
      "midi": 72,
      "hit": false,
      "t": 112094.48250000173,
      "d": 202.70249999999942,
      "v": 127
    },
    {
      "midi": 82,
      "hit": false,
      "t": 112094.48250000173,
      "d": 202.70249999999942,
      "v": 127
    },
    {
      "midi": 84,
      "hit": false,
      "t": 112094.48250000173,
      "d": 202.70249999999942,
      "v": 127
    },
    {
      "midi": 65,
      "hit": false,
      "t": 112297.18500000126,
      "d": 202.70249999999942,
      "v": 127
    },
    {
      "midi": 74,
      "hit": false,
      "t": 112297.18500000173,
      "d": 202.70249999999942,
      "v": 127
    },
    {
      "midi": 82,
      "hit": false,
      "t": 112297.18500000173,
      "d": 202.70249999999942,
      "v": 127
    },
    {
      "midi": 84,
      "hit": false,
      "t": 112297.18500000173,
      "d": 202.70249999999942,
      "v": 127
    },
    {
      "midi": 64,
      "hit": false,
      "t": 112499.88750000126,
      "d": 202.70249999999942,
      "v": 127
    },
    {
      "midi": 76,
      "hit": false,
      "t": 112499.88750000173,
      "d": 202.70249999999942,
      "v": 127
    },
    {
      "midi": 82,
      "hit": false,
      "t": 112499.88750000173,
      "d": 202.70249999999942,
      "v": 127
    },
    {
      "midi": 84,
      "hit": false,
      "t": 112499.88750000173,
      "d": 202.70249999999942,
      "v": 127
    },
    {
      "midi": 62,
      "hit": false,
      "t": 112702.59000000126,
      "d": 202.70249999999942,
      "v": 127
    },
    {
      "midi": 77,
      "hit": false,
      "t": 112702.59000000173,
      "d": 202.70249999999942,
      "v": 127
    },
    {
      "midi": 82,
      "hit": false,
      "t": 112702.59000000173,
      "d": 202.70249999999942,
      "v": 127
    },
    {
      "midi": 84,
      "hit": false,
      "t": 112702.59000000173,
      "d": 202.70249999999942,
      "v": 127
    },
    {
      "midi": 60,
      "hit": false,
      "t": 112905.29250000126,
      "d": 202.70249999999942,
      "v": 127
    },
    {
      "midi": 79,
      "hit": false,
      "t": 112905.29250000173,
      "d": 202.70249999999942,
      "v": 127
    },
    {
      "midi": 82,
      "hit": false,
      "t": 112905.29250000173,
      "d": 202.70249999999942,
      "v": 127
    },
    {
      "midi": 84,
      "hit": false,
      "t": 112905.29250000173,
      "d": 202.70249999999942,
      "v": 127
    },
    {
      "midi": 64,
      "hit": false,
      "t": 113107.99500000126,
      "d": 202.70249999999942,
      "v": 127
    },
    {
      "midi": 76,
      "hit": false,
      "t": 113107.99500000173,
      "d": 202.70249999999942,
      "v": 127
    },
    {
      "midi": 82,
      "hit": false,
      "t": 113107.99500000173,
      "d": 202.70249999999942,
      "v": 127
    },
    {
      "midi": 84,
      "hit": false,
      "t": 113107.99500000173,
      "d": 202.70249999999942,
      "v": 127
    },
    {
      "midi": 62,
      "hit": false,
      "t": 113310.69750000126,
      "d": 202.70249999999942,
      "v": 127
    },
    {
      "midi": 77,
      "hit": false,
      "t": 113310.69750000173,
      "d": 202.70249999999942,
      "v": 127
    },
    {
      "midi": 82,
      "hit": false,
      "t": 113310.69750000173,
      "d": 202.70249999999942,
      "v": 127
    },
    {
      "midi": 84,
      "hit": false,
      "t": 113310.69750000173,
      "d": 202.70249999999942,
      "v": 127
    },
    {
      "midi": 60,
      "hit": false,
      "t": 113513.40000000126,
      "d": 202.70249999999942,
      "v": 127
    },
    {
      "midi": 79,
      "hit": false,
      "t": 113513.40000000173,
      "d": 202.70249999999942,
      "v": 127
    },
    {
      "midi": 82,
      "hit": false,
      "t": 113513.40000000173,
      "d": 202.70249999999942,
      "v": 127
    },
    {
      "midi": 84,
      "hit": false,
      "t": 113513.40000000173,
      "d": 202.70249999999942,
      "v": 127
    },
    {
      "midi": 65,
      "hit": false,
      "t": 113716.10250000126,
      "d": 202.70249999999942,
      "v": 127
    },
    {
      "midi": 77,
      "hit": false,
      "t": 113716.10250000173,
      "d": 202.70249999999942,
      "v": 127
    },
    {
      "midi": 81,
      "hit": false,
      "t": 113716.10250000173,
      "d": 202.70249999999942,
      "v": 127
    },
    {
      "midi": 84,
      "hit": false,
      "t": 113716.10250000173,
      "d": 202.70249999999942,
      "v": 127
    },
    {
      "midi": 76,
      "hit": false,
      "t": 113918.80500000126,
      "d": 202.70249999999942,
      "v": 127
    },
    {
      "midi": 81,
      "hit": false,
      "t": 113918.80500000172,
      "d": 202.70249999999942,
      "v": 127
    },
    {
      "midi": 84,
      "hit": false,
      "t": 113918.80500000172,
      "d": 202.70249999999942,
      "v": 127
    },
    {
      "midi": 74,
      "hit": false,
      "t": 114121.50750000126,
      "d": 202.70249999999942,
      "v": 127
    },
    {
      "midi": 81,
      "hit": false,
      "t": 114121.50750000172,
      "d": 202.70249999999942,
      "v": 127
    },
    {
      "midi": 84,
      "hit": false,
      "t": 114121.50750000172,
      "d": 202.70249999999942,
      "v": 127
    },
    {
      "midi": 72,
      "hit": false,
      "t": 114324.21000000126,
      "d": 202.70249999999942,
      "v": 127
    },
    {
      "midi": 81,
      "hit": false,
      "t": 114324.21000000172,
      "d": 202.70249999999942,
      "v": 127
    },
    {
      "midi": 84,
      "hit": false,
      "t": 114324.21000000172,
      "d": 202.70249999999942,
      "v": 127
    },
    {
      "midi": 70,
      "hit": false,
      "t": 114526.91250000126,
      "d": 202.70249999999942,
      "v": 127
    },
    {
      "midi": 76,
      "hit": false,
      "t": 114526.91250000172,
      "d": 202.70249999999942,
      "v": 127
    },
    {
      "midi": 79,
      "hit": false,
      "t": 114526.91250000172,
      "d": 202.70249999999942,
      "v": 127
    },
    {
      "midi": 84,
      "hit": false,
      "t": 114526.91250000172,
      "d": 202.70249999999942,
      "v": 127
    },
    {
      "midi": 69,
      "hit": false,
      "t": 114729.61500000126,
      "d": 202.70249999999942,
      "v": 127
    },
    {
      "midi": 76,
      "hit": false,
      "t": 114729.61500000172,
      "d": 202.70249999999942,
      "v": 127
    },
    {
      "midi": 79,
      "hit": false,
      "t": 114729.61500000172,
      "d": 202.70249999999942,
      "v": 127
    },
    {
      "midi": 84,
      "hit": false,
      "t": 114729.61500000172,
      "d": 202.70249999999942,
      "v": 127
    },
    {
      "midi": 67,
      "hit": false,
      "t": 114932.31750000126,
      "d": 202.70249999999942,
      "v": 127
    },
    {
      "midi": 76,
      "hit": false,
      "t": 114932.31750000172,
      "d": 202.70249999999942,
      "v": 127
    },
    {
      "midi": 79,
      "hit": false,
      "t": 114932.31750000172,
      "d": 202.70249999999942,
      "v": 127
    },
    {
      "midi": 86,
      "hit": false,
      "t": 114932.31750000172,
      "d": 202.70249999999942,
      "v": 127
    },
    {
      "midi": 72,
      "hit": false,
      "t": 115135.02000000126,
      "d": 202.70249999999942,
      "v": 127
    },
    {
      "midi": 76,
      "hit": false,
      "t": 115135.02000000172,
      "d": 202.70249999999942,
      "v": 127
    },
    {
      "midi": 79,
      "hit": false,
      "t": 115135.02000000172,
      "d": 202.70249999999942,
      "v": 127
    },
    {
      "midi": 88,
      "hit": false,
      "t": 115135.02000000172,
      "d": 202.70249999999942,
      "v": 127
    },
    {
      "midi": 65,
      "hit": false,
      "t": 115337.72250000125,
      "d": 202.70249999999942,
      "v": 127
    },
    {
      "midi": 77,
      "hit": false,
      "t": 115337.72250000172,
      "d": 202.70249999999942,
      "v": 127
    },
    {
      "midi": 81,
      "hit": false,
      "t": 115337.72250000172,
      "d": 202.70249999999942,
      "v": 127
    },
    {
      "midi": 89,
      "hit": false,
      "t": 115337.72250000172,
      "d": 202.70249999999942,
      "v": 127
    },
    {
      "midi": 64,
      "hit": false,
      "t": 115540.42500000125,
      "d": 202.70249999999942,
      "v": 127
    },
    {
      "midi": 72,
      "hit": false,
      "t": 115540.42500000172,
      "d": 202.70249999999942,
      "v": 127
    },
    {
      "midi": 81,
      "hit": false,
      "t": 115540.42500000172,
      "d": 202.70249999999942,
      "v": 127
    },
    {
      "midi": 84,
      "hit": false,
      "t": 115540.42500000172,
      "d": 202.70249999999942,
      "v": 127
    },
    {
      "midi": 62,
      "hit": false,
      "t": 115743.12750000125,
      "d": 202.70249999999942,
      "v": 127
    },
    {
      "midi": 72,
      "hit": false,
      "t": 115743.12750000172,
      "d": 202.70249999999942,
      "v": 127
    },
    {
      "midi": 81,
      "hit": false,
      "t": 115743.12750000172,
      "d": 202.70249999999942,
      "v": 127
    },
    {
      "midi": 84,
      "hit": false,
      "t": 115743.12750000172,
      "d": 202.70249999999942,
      "v": 127
    },
    {
      "midi": 60,
      "hit": false,
      "t": 115945.83000000125,
      "d": 202.70249999999942,
      "v": 127
    },
    {
      "midi": 72,
      "hit": false,
      "t": 115945.83000000172,
      "d": 202.70249999999942,
      "v": 127
    },
    {
      "midi": 81,
      "hit": false,
      "t": 115945.83000000172,
      "d": 202.70249999999942,
      "v": 127
    },
    {
      "midi": 84,
      "hit": false,
      "t": 115945.83000000172,
      "d": 202.70249999999942,
      "v": 127
    },
    {
      "midi": 58,
      "hit": false,
      "t": 116148.53250000125,
      "d": 202.70249999999942,
      "v": 127
    },
    {
      "midi": 72,
      "hit": false,
      "t": 116148.53250000172,
      "d": 202.70249999999942,
      "v": 127
    },
    {
      "midi": 82,
      "hit": false,
      "t": 116148.53250000172,
      "d": 202.70249999999942,
      "v": 127
    },
    {
      "midi": 84,
      "hit": false,
      "t": 116148.53250000172,
      "d": 202.70249999999942,
      "v": 127
    },
    {
      "midi": 57,
      "hit": false,
      "t": 116351.23500000125,
      "d": 202.70249999999942,
      "v": 127
    },
    {
      "midi": 72,
      "hit": false,
      "t": 116351.23500000172,
      "d": 202.70249999999942,
      "v": 127
    },
    {
      "midi": 82,
      "hit": false,
      "t": 116351.23500000172,
      "d": 202.70249999999942,
      "v": 127
    },
    {
      "midi": 84,
      "hit": false,
      "t": 116351.23500000172,
      "d": 202.70249999999942,
      "v": 127
    },
    {
      "midi": 55,
      "hit": false,
      "t": 116553.93750000125,
      "d": 202.70249999999942,
      "v": 127
    },
    {
      "midi": 74,
      "hit": false,
      "t": 116553.93750000172,
      "d": 202.70249999999942,
      "v": 127
    },
    {
      "midi": 82,
      "hit": false,
      "t": 116553.93750000172,
      "d": 202.70249999999942,
      "v": 127
    },
    {
      "midi": 84,
      "hit": false,
      "t": 116553.93750000172,
      "d": 202.70249999999942,
      "v": 127
    },
    {
      "midi": 60,
      "hit": false,
      "t": 116756.64000000125,
      "d": 202.70249999999942,
      "v": 127
    },
    {
      "midi": 76,
      "hit": false,
      "t": 116756.64000000172,
      "d": 202.70249999999942,
      "v": 127
    },
    {
      "midi": 82,
      "hit": false,
      "t": 116756.64000000172,
      "d": 202.70249999999942,
      "v": 127
    },
    {
      "midi": 84,
      "hit": false,
      "t": 116756.64000000172,
      "d": 202.70249999999942,
      "v": 127
    },
    {
      "midi": 53,
      "hit": false,
      "t": 116959.34250000125,
      "d": 202.70249999999942,
      "v": 127
    },
    {
      "midi": 57,
      "hit": false,
      "t": 116959.34250000125,
      "d": 202.70249999999942,
      "v": 127
    },
    {
      "midi": 77,
      "hit": false,
      "t": 116959.34250000172,
      "d": 202.70249999999942,
      "v": 127
    },
    {
      "midi": 89,
      "hit": false,
      "t": 116959.34250000172,
      "d": 202.70249999999942,
      "v": 127
    },
    {
      "midi": 53,
      "hit": false,
      "t": 117162.04500000125,
      "d": 202.70249999999942,
      "v": 127
    },
    {
      "midi": 57,
      "hit": false,
      "t": 117162.04500000125,
      "d": 202.70249999999942,
      "v": 127
    },
    {
      "midi": 76,
      "hit": false,
      "t": 117162.04500000172,
      "d": 202.70249999999942,
      "v": 127
    },
    {
      "midi": 88,
      "hit": false,
      "t": 117162.04500000172,
      "d": 202.70249999999942,
      "v": 127
    },
    {
      "midi": 53,
      "hit": false,
      "t": 117364.74750000125,
      "d": 202.70249999999942,
      "v": 127
    },
    {
      "midi": 57,
      "hit": false,
      "t": 117364.74750000125,
      "d": 202.70249999999942,
      "v": 127
    },
    {
      "midi": 74,
      "hit": false,
      "t": 117364.74750000171,
      "d": 202.70249999999942,
      "v": 127
    },
    {
      "midi": 86,
      "hit": false,
      "t": 117364.74750000171,
      "d": 202.70249999999942,
      "v": 127
    },
    {
      "midi": 53,
      "hit": false,
      "t": 117567.45000000125,
      "d": 202.70249999999942,
      "v": 127
    },
    {
      "midi": 57,
      "hit": false,
      "t": 117567.45000000125,
      "d": 202.70249999999942,
      "v": 127
    },
    {
      "midi": 72,
      "hit": false,
      "t": 117567.45000000171,
      "d": 202.70249999999942,
      "v": 127
    },
    {
      "midi": 84,
      "hit": false,
      "t": 117567.45000000171,
      "d": 202.70249999999942,
      "v": 127
    },
    {
      "midi": 53,
      "hit": false,
      "t": 117770.15250000125,
      "d": 202.70249999999942,
      "v": 127
    },
    {
      "midi": 55,
      "hit": false,
      "t": 117770.15250000125,
      "d": 202.70249999999942,
      "v": 127
    },
    {
      "midi": 70,
      "hit": false,
      "t": 117770.15250000171,
      "d": 202.70249999999942,
      "v": 127
    },
    {
      "midi": 82,
      "hit": false,
      "t": 117770.15250000171,
      "d": 202.70249999999942,
      "v": 127
    },
    {
      "midi": 53,
      "hit": false,
      "t": 117972.85500000125,
      "d": 202.70249999999942,
      "v": 127
    },
    {
      "midi": 55,
      "hit": false,
      "t": 117972.85500000125,
      "d": 202.70249999999942,
      "v": 127
    },
    {
      "midi": 69,
      "hit": false,
      "t": 117972.85500000171,
      "d": 202.70249999999942,
      "v": 127
    },
    {
      "midi": 81,
      "hit": false,
      "t": 117972.85500000171,
      "d": 202.70249999999942,
      "v": 127
    },
    {
      "midi": 52,
      "hit": false,
      "t": 118175.55750000125,
      "d": 202.70249999999942,
      "v": 127
    },
    {
      "midi": 55,
      "hit": false,
      "t": 118175.55750000125,
      "d": 202.70249999999942,
      "v": 127
    },
    {
      "midi": 67,
      "hit": false,
      "t": 118175.55750000171,
      "d": 202.70249999999942,
      "v": 127
    },
    {
      "midi": 79,
      "hit": false,
      "t": 118175.55750000171,
      "d": 202.70249999999942,
      "v": 127
    },
    {
      "midi": 52,
      "hit": false,
      "t": 118378.26000000125,
      "d": 202.70249999999942,
      "v": 127
    },
    {
      "midi": 55,
      "hit": false,
      "t": 118378.26000000125,
      "d": 202.70249999999942,
      "v": 127
    },
    {
      "midi": 72,
      "hit": false,
      "t": 118378.26000000171,
      "d": 202.70249999999942,
      "v": 127
    },
    {
      "midi": 84,
      "hit": false,
      "t": 118378.26000000171,
      "d": 202.70249999999942,
      "v": 127
    },
    {
      "midi": 53,
      "hit": false,
      "t": 118580.96250000125,
      "d": 202.70249999999942,
      "v": 127
    },
    {
      "midi": 65,
      "hit": false,
      "t": 118580.96250000171,
      "d": 202.70249999999942,
      "v": 127
    },
    {
      "midi": 77,
      "hit": false,
      "t": 118580.96250000171,
      "d": 202.70249999999942,
      "v": 127
    },
    {
      "midi": 36,
      "hit": false,
      "t": 118783.66500000125,
      "d": 202.70249999999942,
      "v": 127
    },
    {
      "midi": 64,
      "hit": false,
      "t": 118783.66500000171,
      "d": 202.70249999999942,
      "v": 127
    },
    {
      "midi": 76,
      "hit": false,
      "t": 118783.66500000171,
      "d": 202.70249999999942,
      "v": 127
    },
    {
      "midi": 36,
      "hit": false,
      "t": 118986.36750000124,
      "d": 202.70249999999942,
      "v": 127
    },
    {
      "midi": 62,
      "hit": false,
      "t": 118986.36750000171,
      "d": 202.70249999999942,
      "v": 127
    },
    {
      "midi": 74,
      "hit": false,
      "t": 118986.36750000171,
      "d": 202.70249999999942,
      "v": 127
    },
    {
      "midi": 36,
      "hit": false,
      "t": 119189.07000000124,
      "d": 202.70249999999942,
      "v": 127
    },
    {
      "midi": 60,
      "hit": false,
      "t": 119189.07000000171,
      "d": 202.70249999999942,
      "v": 127
    },
    {
      "midi": 72,
      "hit": false,
      "t": 119189.07000000171,
      "d": 202.70249999999942,
      "v": 127
    },
    {
      "midi": 36,
      "hit": false,
      "t": 119391.77250000124,
      "d": 202.70249999999942,
      "v": 127
    },
    {
      "midi": 58,
      "hit": false,
      "t": 119391.77250000171,
      "d": 202.70249999999942,
      "v": 127
    },
    {
      "midi": 70,
      "hit": false,
      "t": 119391.77250000171,
      "d": 202.70249999999942,
      "v": 127
    },
    {
      "midi": 36,
      "hit": false,
      "t": 119594.47500000124,
      "d": 202.70249999999942,
      "v": 127
    },
    {
      "midi": 57,
      "hit": false,
      "t": 119594.47500000171,
      "d": 202.70249999999942,
      "v": 127
    },
    {
      "midi": 69,
      "hit": false,
      "t": 119594.47500000171,
      "d": 202.70249999999942,
      "v": 127
    },
    {
      "midi": 38,
      "hit": false,
      "t": 119797.17750000124,
      "d": 202.70249999999942,
      "v": 127
    },
    {
      "midi": 55,
      "hit": false,
      "t": 119797.17750000171,
      "d": 202.70249999999942,
      "v": 127
    },
    {
      "midi": 67,
      "hit": false,
      "t": 119797.17750000171,
      "d": 202.70249999999942,
      "v": 127
    },
    {
      "midi": 40,
      "hit": false,
      "t": 119999.88000000124,
      "d": 202.70249999999942,
      "v": 127
    },
    {
      "midi": 60,
      "hit": false,
      "t": 119999.8800000017,
      "d": 202.70249999999942,
      "v": 127
    },
    {
      "midi": 72,
      "hit": false,
      "t": 119999.8800000017,
      "d": 202.70249999999942,
      "v": 127
    },
    {
      "midi": 29,
      "hit": false,
      "t": 120202.58250000124,
      "d": 405.40499999999884,
      "v": 127
    },
    {
      "midi": 41,
      "hit": false,
      "t": 120202.58250000124,
      "d": 405.40499999999884,
      "v": 127
    },
    {
      "midi": 53,
      "hit": false,
      "t": 120202.5825000017,
      "d": 405.40499999999884,
      "v": 127
    },
    {
      "midi": 65,
      "hit": false,
      "t": 120202.5825000017,
      "d": 405.40499999999884,
      "v": 127
    }
  ]
}