{
  "jsonPath": "Classical/Classical/Ludwig van Beethoven/sonata-no-25-3rd.json",
  "path": "Classical\\Classical\\Ludwig van Beethoven\\Sonata No 25 3rd.mid",
  "name": "Sonata No 25 3rd",
  "difficulty": "Advanced",
  "bpm": 138.00019320027047,
  "notes": [
    {
      "midi": 71,
      "hit": false,
      "t": 0,
      "d": 217.39100000000002,
      "v": 127
    },
    {
      "midi": 55,
      "hit": false,
      "t": 0,
      "d": 434.78200000000004,
      "v": 127
    },
    {
      "midi": 59,
      "hit": false,
      "t": 0,
      "d": 434.78200000000004,
      "v": 127
    },
    {
      "midi": 72,
      "hit": false,
      "t": 217.39100000000002,
      "d": 108.69549999999998,
      "v": 127
    },
    {
      "midi": 71,
      "hit": false,
      "t": 326.0865,
      "d": 108.69550000000004,
      "v": 127
    },
    {
      "midi": 74,
      "hit": false,
      "t": 434.78200000000004,
      "d": 217.39099999999996,
      "v": 127
    },
    {
      "midi": 54,
      "hit": false,
      "t": 434.78200000000004,
      "d": 434.78200000000004,
      "v": 127
    },
    {
      "midi": 57,
      "hit": false,
      "t": 434.78200000000004,
      "d": 434.78200000000004,
      "v": 127
    },
    {
      "midi": 76,
      "hit": false,
      "t": 652.173,
      "d": 108.69550000000004,
      "v": 127
    },
    {
      "midi": 74,
      "hit": false,
      "t": 760.8685,
      "d": 108.69550000000004,
      "v": 127
    },
    {
      "midi": 67,
      "hit": false,
      "t": 869.5640000000001,
      "d": 217.39100000000008,
      "v": 127
    },
    {
      "midi": 52,
      "hit": false,
      "t": 869.5640000000001,
      "d": 434.7819999999999,
      "v": 127
    },
    {
      "midi": 55,
      "hit": false,
      "t": 869.5640000000001,
      "d": 434.7819999999999,
      "v": 127
    },
    {
      "midi": 69,
      "hit": false,
      "t": 1086.9550000000002,
      "d": 108.69550000000004,
      "v": 127
    },
    {
      "midi": 67,
      "hit": false,
      "t": 1195.6505000000002,
      "d": 108.69550000000004,
      "v": 127
    },
    {
      "midi": 50,
      "hit": false,
      "t": 1304.346,
      "d": 434.78200000000015,
      "v": 127
    },
    {
      "midi": 54,
      "hit": false,
      "t": 1304.346,
      "d": 434.78200000000015,
      "v": 127
    },
    {
      "midi": 71,
      "hit": false,
      "t": 1304.3460000000002,
      "d": 434.7819999999999,
      "v": 127
    },
    {
      "midi": 64,
      "hit": false,
      "t": 1739.1280000000002,
      "d": 217.39100000000008,
      "v": 127
    },
    {
      "midi": 48,
      "hit": false,
      "t": 1739.1280000000002,
      "d": 434.78200000000015,
      "v": 127
    },
    {
      "midi": 52,
      "hit": false,
      "t": 1739.1280000000002,
      "d": 434.78200000000015,
      "v": 127
    },
    {
      "midi": 66,
      "hit": false,
      "t": 1956.5190000000002,
      "d": 108.69549999999981,
      "v": 127
    },
    {
      "midi": 64,
      "hit": false,
      "t": 2065.2145,
      "d": 108.69549999999981,
      "v": 127
    },
    {
      "midi": 67,
      "hit": false,
      "t": 2173.91,
      "d": 217.39100000000008,
      "v": 127
    },
    {
      "midi": 47,
      "hit": false,
      "t": 2173.9100000000003,
      "d": 434.78200000000015,
      "v": 127
    },
    {
      "midi": 50,
      "hit": false,
      "t": 2173.9100000000003,
      "d": 434.78200000000015,
      "v": 127
    },
    {
      "midi": 69,
      "hit": false,
      "t": 2391.301,
      "d": 108.69549999999981,
      "v": 127
    },
    {
      "midi": 67,
      "hit": false,
      "t": 2499.9964999999997,
      "d": 108.69549999999981,
      "v": 127
    },
    {
      "midi": 69,
      "hit": false,
      "t": 2608.6919999999996,
      "d": 217.39100000000008,
      "v": 127
    },
    {
      "midi": 50,
      "hit": false,
      "t": 2608.6920000000005,
      "d": 434.78200000000015,
      "v": 127
    },
    {
      "midi": 54,
      "hit": false,
      "t": 2608.6920000000005,
      "d": 434.78200000000015,
      "v": 127
    },
    {
      "midi": 71,
      "hit": false,
      "t": 2826.0829999999996,
      "d": 108.69549999999981,
      "v": 127
    },
    {
      "midi": 69,
      "hit": false,
      "t": 2934.7784999999994,
      "d": 108.69549999999981,
      "v": 127
    },
    {
      "midi": 71,
      "hit": false,
      "t": 3043.4739999999993,
      "d": 434.78200000000015,
      "v": 127
    },
    {
      "midi": 43,
      "hit": false,
      "t": 3043.4740000000006,
      "d": 434.78200000000015,
      "v": 127
    },
    {
      "midi": 55,
      "hit": false,
      "t": 3043.4740000000006,
      "d": 434.78200000000015,
      "v": 127
    },
    {
      "midi": 71,
      "hit": false,
      "t": 3478.2559999999994,
      "d": 217.39100000000008,
      "v": 127
    },
    {
      "midi": 55,
      "hit": false,
      "t": 3478.2560000000008,
      "d": 434.78200000000015,
      "v": 127
    },
    {
      "midi": 59,
      "hit": false,
      "t": 3478.2560000000008,
      "d": 434.78200000000015,
      "v": 127
    },
    {
      "midi": 72,
      "hit": false,
      "t": 3695.6469999999995,
      "d": 108.69549999999981,
      "v": 127
    },
    {
      "midi": 71,
      "hit": false,
      "t": 3804.3424999999993,
      "d": 108.69549999999981,
      "v": 127
    },
    {
      "midi": 74,
      "hit": false,
      "t": 3913.037999999999,
      "d": 217.39100000000008,
      "v": 127
    },
    {
      "midi": 54,
      "hit": false,
      "t": 3913.038000000001,
      "d": 434.7819999999997,
      "v": 127
    },
    {
      "midi": 57,
      "hit": false,
      "t": 3913.038000000001,
      "d": 434.7819999999997,
      "v": 127
    },
    {
      "midi": 76,
      "hit": false,
      "t": 4130.428999999999,
      "d": 108.69549999999981,
      "v": 127
    },
    {
      "midi": 74,
      "hit": false,
      "t": 4239.124499999999,
      "d": 108.69549999999981,
      "v": 127
    },
    {
      "midi": 79,
      "hit": false,
      "t": 4347.819999999999,
      "d": 217.39099999999962,
      "v": 127
    },
    {
      "midi": 52,
      "hit": false,
      "t": 4347.820000000001,
      "d": 434.78200000000015,
      "v": 127
    },
    {
      "midi": 61,
      "hit": false,
      "t": 4347.820000000001,
      "d": 434.78200000000015,
      "v": 127
    },
    {
      "midi": 81,
      "hit": false,
      "t": 4565.210999999998,
      "d": 108.69549999999981,
      "v": 127
    },
    {
      "midi": 79,
      "hit": false,
      "t": 4673.906499999998,
      "d": 108.69549999999981,
      "v": 127
    },
    {
      "midi": 78,
      "hit": false,
      "t": 4782.601999999998,
      "d": 434.78200000000015,
      "v": 127
    },
    {
      "midi": 50,
      "hit": false,
      "t": 4782.602000000001,
      "d": 434.78200000000015,
      "v": 127
    },
    {
      "midi": 62,
      "hit": false,
      "t": 4782.602000000001,
      "d": 434.78200000000015,
      "v": 127
    },
    {
      "midi": 76,
      "hit": false,
      "t": 5217.383999999998,
      "d": 217.39099999999962,
      "v": 127
    },
    {
      "midi": 55,
      "hit": false,
      "t": 5217.384000000001,
      "d": 434.78200000000015,
      "v": 127
    },
    {
      "midi": 59,
      "hit": false,
      "t": 5217.384000000001,
      "d": 434.78200000000015,
      "v": 127
    },
    {
      "midi": 78,
      "hit": false,
      "t": 5434.774999999998,
      "d": 108.69549999999981,
      "v": 127
    },
    {
      "midi": 76,
      "hit": false,
      "t": 5543.470499999998,
      "d": 108.69549999999981,
      "v": 127
    },
    {
      "midi": 73,
      "hit": false,
      "t": 5652.165999999997,
      "d": 217.39099999999962,
      "v": 127
    },
    {
      "midi": 57,
      "hit": false,
      "t": 5652.166000000001,
      "d": 434.78200000000015,
      "v": 127
    },
    {
      "midi": 64,
      "hit": false,
      "t": 5652.166000000001,
      "d": 434.78200000000015,
      "v": 127
    },
    {
      "midi": 71,
      "hit": false,
      "t": 5869.556999999997,
      "d": 108.69549999999981,
      "v": 127
    },
    {
      "midi": 73,
      "hit": false,
      "t": 5978.252499999997,
      "d": 108.69549999999981,
      "v": 127
    },
    {
      "midi": 74,
      "hit": false,
      "t": 6086.947999999997,
      "d": 434.78200000000015,
      "v": 127
    },
    {
      "midi": 50,
      "hit": false,
      "t": 6086.948000000001,
      "d": 434.78200000000015,
      "v": 127
    },
    {
      "midi": 62,
      "hit": false,
      "t": 6086.948000000001,
      "d": 434.78200000000015,
      "v": 127
    },
    {
      "midi": 74,
      "hit": false,
      "t": 6956.511999999997,
      "d": 217.39099999999962,
      "v": 127
    },
    {
      "midi": 50,
      "hit": false,
      "t": 6956.5120000000015,
      "d": 217.39099999999962,
      "v": 127
    },
    {
      "midi": 76,
      "hit": false,
      "t": 7173.902999999997,
      "d": 108.69549999999981,
      "v": 127
    },
    {
      "midi": 52,
      "hit": false,
      "t": 7173.903000000001,
      "d": 108.69549999999981,
      "v": 127
    },
    {
      "midi": 74,
      "hit": false,
      "t": 7282.598499999996,
      "d": 108.69549999999981,
      "v": 127
    },
    {
      "midi": 50,
      "hit": false,
      "t": 7282.598500000001,
      "d": 108.69549999999981,
      "v": 127
    },
    {
      "midi": 71,
      "hit": false,
      "t": 7391.293999999996,
      "d": 217.39099999999962,
      "v": 127
    },
    {
      "midi": 47,
      "hit": false,
      "t": 7391.294000000001,
      "d": 217.39099999999962,
      "v": 127
    },
    {
      "midi": 73,
      "hit": false,
      "t": 7608.684999999996,
      "d": 217.39099999999962,
      "v": 127
    },
    {
      "midi": 49,
      "hit": false,
      "t": 7608.685,
      "d": 217.39099999999962,
      "v": 127
    },
    {
      "midi": 74,
      "hit": false,
      "t": 7826.0759999999955,
      "d": 434.78199999999924,
      "v": 127
    },
    {
      "midi": 50,
      "hit": false,
      "t": 7826.076,
      "d": 434.78200000000015,
      "v": 127
    },
    {
      "midi": 62,
      "hit": false,
      "t": 8260.857999999995,
      "d": 434.78199999999924,
      "v": 127
    },
    {
      "midi": 38,
      "hit": false,
      "t": 8260.858,
      "d": 434.78199999999924,
      "v": 127
    },
    {
      "midi": 64,
      "hit": false,
      "t": 8695.639999999994,
      "d": 217.39099999999962,
      "v": 127
    },
    {
      "midi": 66,
      "hit": false,
      "t": 8695.639999999994,
      "d": 217.39099999999962,
      "v": 127
    },
    {
      "midi": 40,
      "hit": false,
      "t": 8695.64,
      "d": 217.39099999999962,
      "v": 127
    },
    {
      "midi": 42,
      "hit": false,
      "t": 8695.64,
      "d": 217.39099999999962,
      "v": 127
    },
    {
      "midi": 62,
      "hit": false,
      "t": 8913.030999999994,
      "d": 217.39099999999962,
      "v": 127
    },
    {
      "midi": 38,
      "hit": false,
      "t": 8913.030999999999,
      "d": 217.39099999999962,
      "v": 127
    },
    {
      "midi": 64,
      "hit": false,
      "t": 9130.421999999993,
      "d": 217.39099999999962,
      "v": 127
    },
    {
      "midi": 40,
      "hit": false,
      "t": 9130.421999999999,
      "d": 217.39099999999962,
      "v": 127
    },
    {
      "midi": 66,
      "hit": false,
      "t": 9347.812999999993,
      "d": 217.39099999999962,
      "v": 127
    },
    {
      "midi": 42,
      "hit": false,
      "t": 9347.812999999998,
      "d": 217.39099999999962,
      "v": 127
    },
    {
      "midi": 67,
      "hit": false,
      "t": 9565.203999999992,
      "d": 434.78199999999924,
      "v": 127
    },
    {
      "midi": 43,
      "hit": false,
      "t": 9565.203999999998,
      "d": 434.78199999999924,
      "v": 127
    },
    {
      "midi": 55,
      "hit": false,
      "t": 9999.985999999992,
      "d": 434.78199999999924,
      "v": 127
    },
    {
      "midi": 31,
      "hit": false,
      "t": 9999.985999999997,
      "d": 434.78199999999924,
      "v": 127
    },
    {
      "midi": 74,
      "hit": false,
      "t": 10434.767999999991,
      "d": 217.39099999999962,
      "v": 127
    },
    {
      "midi": 50,
      "hit": false,
      "t": 10434.767999999996,
      "d": 434.78199999999924,
      "v": 127
    },
    {
      "midi": 76,
      "hit": false,
      "t": 10652.15899999999,
      "d": 217.39099999999962,
      "v": 127
    },
    {
      "midi": 71,
      "hit": false,
      "t": 10869.54999999999,
      "d": 217.39099999999962,
      "v": 127
    },
    {
      "midi": 45,
      "hit": false,
      "t": 10869.549999999996,
      "d": 434.78199999999924,
      "v": 127
    },
    {
      "midi": 52,
      "hit": false,
      "t": 10869.549999999996,
      "d": 434.78199999999924,
      "v": 127
    },
    {
      "midi": 73,
      "hit": false,
      "t": 11086.94099999999,
      "d": 217.39099999999962,
      "v": 127
    },
    {
      "midi": 66,
      "hit": false,
      "t": 11304.33199999999,
      "d": 434.78199999999924,
      "v": 127
    },
    {
      "midi": 74,
      "hit": false,
      "t": 11304.33199999999,
      "d": 434.78199999999924,
      "v": 127
    },
    {
      "midi": 50,
      "hit": false,
      "t": 11304.331999999995,
      "d": 434.78199999999924,
      "v": 127
    },
    {
      "midi": 65,
      "hit": false,
      "t": 11739.113999999989,
      "d": 434.78199999999924,
      "v": 127
    },
    {
      "midi": 71,
      "hit": false,
      "t": 11739.113999999989,
      "d": 434.78199999999924,
      "v": 127
    },
    {
      "midi": 43,
      "hit": false,
      "t": 11739.113999999994,
      "d": 434.78199999999924,
      "v": 127
    },
    {
      "midi": 50,
      "hit": false,
      "t": 11739.113999999994,
      "d": 434.78199999999924,
      "v": 127
    },
    {
      "midi": 74,
      "hit": false,
      "t": 12173.895999999988,
      "d": 217.39099999999962,
      "v": 127
    },
    {
      "midi": 36,
      "hit": false,
      "t": 12173.895999999993,
      "d": 434.78199999999924,
      "v": 127
    },
    {
      "midi": 48,
      "hit": false,
      "t": 12173.895999999993,
      "d": 434.78199999999924,
      "v": 127
    },
    {
      "midi": 72,
      "hit": false,
      "t": 12391.286999999988,
      "d": 217.39099999999962,
      "v": 127
    },
    {
      "midi": 69,
      "hit": false,
      "t": 12608.677999999987,
      "d": 217.39099999999962,
      "v": 127
    },
    {
      "midi": 38,
      "hit": false,
      "t": 12608.677999999993,
      "d": 434.78199999999924,
      "v": 127
    },
    {
      "midi": 50,
      "hit": false,
      "t": 12608.677999999993,
      "d": 434.78199999999924,
      "v": 127
    },
    {
      "midi": 66,
      "hit": false,
      "t": 12826.068999999987,
      "d": 217.39099999999962,
      "v": 127
    },
    {
      "midi": 59,
      "hit": false,
      "t": 13043.459999999986,
      "d": 434.78199999999924,
      "v": 127
    },
    {
      "midi": 67,
      "hit": false,
      "t": 13043.459999999986,
      "d": 434.78199999999924,
      "v": 127
    },
    {
      "midi": 43,
      "hit": false,
      "t": 13043.459999999992,
      "d": 217.39099999999962,
      "v": 127
    },
    {
      "midi": 55,
      "hit": false,
      "t": 13260.850999999991,
      "d": 217.39099999999962,
      "v": 127
    },
    {
      "midi": 54,
      "hit": false,
      "t": 13478.241999999991,
      "d": 217.39099999999962,
      "v": 127
    },
    {
      "midi": 52,
      "hit": false,
      "t": 13695.63299999999,
      "d": 217.39099999999962,
      "v": 127
    },
    {
      "midi": 59,
      "hit": false,
      "t": 13913.023999999985,
      "d": 434.78199999999924,
      "v": 127
    },
    {
      "midi": 67,
      "hit": false,
      "t": 13913.023999999985,
      "d": 434.78199999999924,
      "v": 127
    },
    {
      "midi": 43,
      "hit": false,
      "t": 13913.02399999999,
      "d": 434.78199999999924,
      "v": 127
    },
    {
      "midi": 55,
      "hit": false,
      "t": 14347.80599999999,
      "d": 217.39099999999962,
      "v": 127
    },
    {
      "midi": 57,
      "hit": false,
      "t": 14565.19699999999,
      "d": 108.69549999999981,
      "v": 127
    },
    {
      "midi": 55,
      "hit": false,
      "t": 14673.892499999989,
      "d": 108.69549999999981,
      "v": 127
    },
    {
      "midi": 59,
      "hit": false,
      "t": 14782.587999999989,
      "d": 217.39099999999962,
      "v": 127
    },
    {
      "midi": 60,
      "hit": false,
      "t": 14999.978999999988,
      "d": 108.69549999999981,
      "v": 127
    },
    {
      "midi": 59,
      "hit": false,
      "t": 15108.674499999988,
      "d": 108.69549999999981,
      "v": 127
    },
    {
      "midi": 71,
      "hit": false,
      "t": 15217.369999999984,
      "d": 217.39099999999962,
      "v": 127
    },
    {
      "midi": 72,
      "hit": false,
      "t": 15434.760999999984,
      "d": 108.69549999999981,
      "v": 127
    },
    {
      "midi": 71,
      "hit": false,
      "t": 15543.456499999984,
      "d": 108.69549999999981,
      "v": 127
    },
    {
      "midi": 64,
      "hit": false,
      "t": 15652.151999999984,
      "d": 217.39099999999962,
      "v": 127
    },
    {
      "midi": 52,
      "hit": false,
      "t": 15652.151999999987,
      "d": 108.69549999999981,
      "v": 127
    },
    {
      "midi": 55,
      "hit": false,
      "t": 15652.151999999987,
      "d": 108.69549999999981,
      "v": 127
    },
    {
      "midi": 59,
      "hit": false,
      "t": 15760.847499999987,
      "d": 108.69549999999981,
      "v": 127
    },
    {
      "midi": 66,
      "hit": false,
      "t": 15869.542999999983,
      "d": 108.69549999999981,
      "v": 127
    },
    {
      "midi": 52,
      "hit": false,
      "t": 15869.542999999987,
      "d": 108.69549999999981,
      "v": 127
    },
    {
      "midi": 55,
      "hit": false,
      "t": 15869.542999999987,
      "d": 108.69549999999981,
      "v": 127
    },
    {
      "midi": 64,
      "hit": false,
      "t": 15978.238499999983,
      "d": 108.69549999999981,
      "v": 127
    },
    {
      "midi": 59,
      "hit": false,
      "t": 15978.238499999987,
      "d": 108.69549999999981,
      "v": 127
    },
    {
      "midi": 79,
      "hit": false,
      "t": 16086.933999999983,
      "d": 434.78199999999924,
      "v": 127
    },
    {
      "midi": 52,
      "hit": false,
      "t": 16086.933999999987,
      "d": 108.69549999999981,
      "v": 127
    },
    {
      "midi": 55,
      "hit": false,
      "t": 16086.933999999987,
      "d": 108.69549999999981,
      "v": 127
    },
    {
      "midi": 59,
      "hit": false,
      "t": 16195.629499999986,
      "d": 108.69549999999981,
      "v": 127
    },
    {
      "midi": 52,
      "hit": false,
      "t": 16304.324999999986,
      "d": 108.69550000000163,
      "v": 127
    },
    {
      "midi": 55,
      "hit": false,
      "t": 16304.324999999986,
      "d": 108.69550000000163,
      "v": 127
    },
    {
      "midi": 59,
      "hit": false,
      "t": 16413.020499999988,
      "d": 108.69550000000163,
      "v": 127
    },
    {
      "midi": 78,
      "hit": false,
      "t": 16521.715999999982,
      "d": 217.39099999999962,
      "v": 127
    },
    {
      "midi": 52,
      "hit": false,
      "t": 16521.71599999999,
      "d": 108.69550000000163,
      "v": 127
    },
    {
      "midi": 54,
      "hit": false,
      "t": 16521.71599999999,
      "d": 108.69550000000163,
      "v": 127
    },
    {
      "midi": 57,
      "hit": false,
      "t": 16521.71599999999,
      "d": 108.69550000000163,
      "v": 127
    },
    {
      "midi": 59,
      "hit": false,
      "t": 16630.41149999999,
      "d": 108.69550000000163,
      "v": 127
    },
    {
      "midi": 81,
      "hit": false,
      "t": 16739.10699999998,
      "d": 217.39099999999962,
      "v": 127
    },
    {
      "midi": 52,
      "hit": false,
      "t": 16739.106999999993,
      "d": 108.69550000000163,
      "v": 127
    },
    {
      "midi": 54,
      "hit": false,
      "t": 16739.106999999993,
      "d": 108.69550000000163,
      "v": 127
    },
    {
      "midi": 57,
      "hit": false,
      "t": 16739.106999999993,
      "d": 108.69550000000163,
      "v": 127
    },
    {
      "midi": 59,
      "hit": false,
      "t": 16847.802499999994,
      "d": 108.69550000000163,
      "v": 127
    },
    {
      "midi": 78,
      "hit": false,
      "t": 16956.49799999998,
      "d": 217.39099999999962,
      "v": 127
    },
    {
      "midi": 52,
      "hit": false,
      "t": 16956.497999999996,
      "d": 108.69550000000163,
      "v": 127
    },
    {
      "midi": 54,
      "hit": false,
      "t": 16956.497999999996,
      "d": 108.69550000000163,
      "v": 127
    },
    {
      "midi": 57,
      "hit": false,
      "t": 16956.497999999996,
      "d": 108.69550000000163,
      "v": 127
    },
    {
      "midi": 59,
      "hit": false,
      "t": 17065.193499999998,
      "d": 108.69550000000163,
      "v": 127
    },
    {
      "midi": 75,
      "hit": false,
      "t": 17173.88899999998,
      "d": 217.39099999999962,
      "v": 127
    },
    {
      "midi": 52,
      "hit": false,
      "t": 17173.889,
      "d": 108.69550000000163,
      "v": 127
    },
    {
      "midi": 54,
      "hit": false,
      "t": 17173.889,
      "d": 108.69550000000163,
      "v": 127
    },
    {
      "midi": 57,
      "hit": false,
      "t": 17173.889,
      "d": 108.69550000000163,
      "v": 127
    },
    {
      "midi": 59,
      "hit": false,
      "t": 17282.5845,
      "d": 108.69550000000163,
      "v": 127
    },
    {
      "midi": 76,
      "hit": false,
      "t": 17391.27999999998,
      "d": 434.78199999999924,
      "v": 127
    },
    {
      "midi": 52,
      "hit": false,
      "t": 17391.280000000002,
      "d": 108.69550000000163,
      "v": 127
    },
    {
      "midi": 55,
      "hit": false,
      "t": 17391.280000000002,
      "d": 108.69550000000163,
      "v": 127
    },
    {
      "midi": 59,
      "hit": false,
      "t": 17499.975500000004,
      "d": 108.69550000000163,
      "v": 127
    },
    {
      "midi": 52,
      "hit": false,
      "t": 17608.671000000006,
      "d": 108.69550000000163,
      "v": 127
    },
    {
      "midi": 55,
      "hit": false,
      "t": 17608.671000000006,
      "d": 108.69550000000163,
      "v": 127
    },
    {
      "midi": 59,
      "hit": false,
      "t": 17717.366500000007,
      "d": 108.69550000000163,
      "v": 127
    },
    {
      "midi": 71,
      "hit": false,
      "t": 17826.06199999998,
      "d": 217.39099999999962,
      "v": 127
    },
    {
      "midi": 52,
      "hit": false,
      "t": 17826.06200000001,
      "d": 108.69550000000163,
      "v": 127
    },
    {
      "midi": 55,
      "hit": false,
      "t": 17826.06200000001,
      "d": 108.69550000000163,
      "v": 127
    },
    {
      "midi": 59,
      "hit": false,
      "t": 17934.75750000001,
      "d": 108.69550000000163,
      "v": 127
    },
    {
      "midi": 71,
      "hit": false,
      "t": 18043.45299999998,
      "d": 217.39099999999962,
      "v": 127
    },
    {
      "midi": 52,
      "hit": false,
      "t": 18043.453000000012,
      "d": 108.69550000000163,
      "v": 127
    },
    {
      "midi": 55,
      "hit": false,
      "t": 18043.453000000012,
      "d": 108.69550000000163,
      "v": 127
    },
    {
      "midi": 59,
      "hit": false,
      "t": 18152.148500000014,
      "d": 108.69550000000163,
      "v": 127
    },
    {
      "midi": 72,
      "hit": false,
      "t": 18260.84399999998,
      "d": 108.69550000000163,
      "v": 127
    },
    {
      "midi": 60,
      "hit": false,
      "t": 18260.844000000016,
      "d": 108.69550000000163,
      "v": 127
    },
    {
      "midi": 71,
      "hit": false,
      "t": 18369.53949999998,
      "d": 108.69550000000163,
      "v": 127
    },
    {
      "midi": 59,
      "hit": false,
      "t": 18369.539500000017,
      "d": 108.69550000000163,
      "v": 127
    },
    {
      "midi": 69,
      "hit": false,
      "t": 18478.234999999982,
      "d": 108.69550000000163,
      "v": 127
    },
    {
      "midi": 57,
      "hit": false,
      "t": 18478.23500000002,
      "d": 108.69550000000163,
      "v": 127
    },
    {
      "midi": 67,
      "hit": false,
      "t": 18586.930499999984,
      "d": 108.69550000000163,
      "v": 127
    },
    {
      "midi": 55,
      "hit": false,
      "t": 18586.93050000002,
      "d": 108.69550000000163,
      "v": 127
    },
    {
      "midi": 66,
      "hit": false,
      "t": 18695.625999999986,
      "d": 108.69550000000163,
      "v": 127
    },
    {
      "midi": 54,
      "hit": false,
      "t": 18695.626000000022,
      "d": 108.69550000000163,
      "v": 127
    },
    {
      "midi": 67,
      "hit": false,
      "t": 18804.321499999987,
      "d": 108.69550000000163,
      "v": 127
    },
    {
      "midi": 55,
      "hit": false,
      "t": 18804.321500000024,
      "d": 108.69550000000163,
      "v": 127
    },
    {
      "midi": 66,
      "hit": false,
      "t": 18913.01699999999,
      "d": 108.69550000000163,
      "v": 127
    },
    {
      "midi": 54,
      "hit": false,
      "t": 18913.017000000025,
      "d": 108.69550000000163,
      "v": 127
    },
    {
      "midi": 64,
      "hit": false,
      "t": 19021.71249999999,
      "d": 108.69550000000163,
      "v": 127
    },
    {
      "midi": 52,
      "hit": false,
      "t": 19021.712500000027,
      "d": 108.69550000000163,
      "v": 127
    },
    {
      "midi": 63,
      "hit": false,
      "t": 19130.407999999992,
      "d": 108.69550000000163,
      "v": 127
    },
    {
      "midi": 51,
      "hit": false,
      "t": 19130.40800000003,
      "d": 108.69550000000163,
      "v": 127
    },
    {
      "midi": 64,
      "hit": false,
      "t": 19239.103499999994,
      "d": 108.69550000000163,
      "v": 127
    },
    {
      "midi": 52,
      "hit": false,
      "t": 19239.10350000003,
      "d": 108.69550000000163,
      "v": 127
    },
    {
      "midi": 66,
      "hit": false,
      "t": 19347.798999999995,
      "d": 108.69550000000163,
      "v": 127
    },
    {
      "midi": 54,
      "hit": false,
      "t": 19347.79900000003,
      "d": 108.69550000000163,
      "v": 127
    },
    {
      "midi": 63,
      "hit": false,
      "t": 19456.494499999997,
      "d": 108.69550000000163,
      "v": 127
    },
    {
      "midi": 51,
      "hit": false,
      "t": 19456.494500000033,
      "d": 108.69550000000163,
      "v": 127
    },
    {
      "midi": 59,
      "hit": false,
      "t": 19565.19,
      "d": 217.39099999999962,
      "v": 127
    },
    {
      "midi": 47,
      "hit": false,
      "t": 19565.190000000035,
      "d": 217.39099999999962,
      "v": 127
    },
    {
      "midi": 59,
      "hit": false,
      "t": 19782.581,
      "d": 217.39099999999962,
      "v": 127
    },
    {
      "midi": 63,
      "hit": false,
      "t": 19782.581,
      "d": 217.39099999999962,
      "v": 127
    },
    {
      "midi": 66,
      "hit": false,
      "t": 19782.581,
      "d": 217.39099999999962,
      "v": 127
    },
    {
      "midi": 47,
      "hit": false,
      "t": 19782.581000000035,
      "d": 217.39099999999962,
      "v": 127
    },
    {
      "midi": 59,
      "hit": false,
      "t": 19999.971999999998,
      "d": 217.39099999999962,
      "v": 127
    },
    {
      "midi": 64,
      "hit": false,
      "t": 19999.971999999998,
      "d": 217.39099999999962,
      "v": 127
    },
    {
      "midi": 67,
      "hit": false,
      "t": 19999.971999999998,
      "d": 217.39099999999962,
      "v": 127
    },
    {
      "midi": 47,
      "hit": false,
      "t": 19999.972000000034,
      "d": 217.39099999999962,
      "v": 127
    },
    {
      "midi": 59,
      "hit": false,
      "t": 20217.362999999998,
      "d": 217.39099999999962,
      "v": 127
    },
    {
      "midi": 64,
      "hit": false,
      "t": 20217.362999999998,
      "d": 217.39099999999962,
      "v": 127
    },
    {
      "midi": 67,
      "hit": false,
      "t": 20217.362999999998,
      "d": 217.39099999999962,
      "v": 127
    },
    {
      "midi": 47,
      "hit": false,
      "t": 20217.363000000034,
      "d": 217.39099999999962,
      "v": 127
    },
    {
      "midi": 59,
      "hit": false,
      "t": 20434.753999999997,
      "d": 217.39099999999962,
      "v": 127
    },
    {
      "midi": 64,
      "hit": false,
      "t": 20434.753999999997,
      "d": 217.39099999999962,
      "v": 127
    },
    {
      "midi": 67,
      "hit": false,
      "t": 20434.753999999997,
      "d": 217.39099999999962,
      "v": 127
    },
    {
      "midi": 47,
      "hit": false,
      "t": 20434.754000000034,
      "d": 217.39099999999962,
      "v": 127
    },
    {
      "midi": 59,
      "hit": false,
      "t": 20652.144999999997,
      "d": 217.39099999999962,
      "v": 127
    },
    {
      "midi": 64,
      "hit": false,
      "t": 20652.144999999997,
      "d": 217.39099999999962,
      "v": 127
    },
    {
      "midi": 67,
      "hit": false,
      "t": 20652.144999999997,
      "d": 217.39099999999962,
      "v": 127
    },
    {
      "midi": 47,
      "hit": false,
      "t": 20652.145000000033,
      "d": 217.39099999999962,
      "v": 127
    },
    {
      "midi": 59,
      "hit": false,
      "t": 20869.535999999996,
      "d": 434.78199999999924,
      "v": 127
    },
    {
      "midi": 63,
      "hit": false,
      "t": 20869.535999999996,
      "d": 434.78199999999924,
      "v": 127
    },
    {
      "midi": 66,
      "hit": false,
      "t": 20869.535999999996,
      "d": 434.78199999999924,
      "v": 127
    },
    {
      "midi": 47,
      "hit": false,
      "t": 20869.536000000033,
      "d": 434.78199999999924,
      "v": 127
    },
    {
      "midi": 59,
      "hit": false,
      "t": 21304.318000000032,
      "d": 217.39099999999962,
      "v": 127
    },
    {
      "midi": 60,
      "hit": false,
      "t": 21521.70900000003,
      "d": 108.69550000000163,
      "v": 127
    },
    {
      "midi": 59,
      "hit": false,
      "t": 21630.404500000033,
      "d": 108.69550000000163,
      "v": 127
    },
    {
      "midi": 71,
      "hit": false,
      "t": 21739.099999999995,
      "d": 217.39099999999962,
      "v": 127
    },
    {
      "midi": 72,
      "hit": false,
      "t": 21956.490999999995,
      "d": 108.69550000000163,
      "v": 127
    },
    {
      "midi": 71,
      "hit": false,
      "t": 22065.186499999996,
      "d": 108.69550000000163,
      "v": 127
    },
    {
      "midi": 83,
      "hit": false,
      "t": 22173.881999999998,
      "d": 434.78199999999924,
      "v": 127
    },
    {
      "midi": 57,
      "hit": false,
      "t": 23043.446000000036,
      "d": 217.39099999999962,
      "v": 127
    },
    {
      "midi": 59,
      "hit": false,
      "t": 23260.837000000036,
      "d": 108.69550000000163,
      "v": 127
    },
    {
      "midi": 57,
      "hit": false,
      "t": 23369.532500000038,
      "d": 108.69550000000163,
      "v": 127
    },
    {
      "midi": 72,
      "hit": false,
      "t": 23478.227999999996,
      "d": 217.39099999999962,
      "v": 127
    },
    {
      "midi": 74,
      "hit": false,
      "t": 23695.618999999995,
      "d": 108.69550000000163,
      "v": 127
    },
    {
      "midi": 72,
      "hit": false,
      "t": 23804.314499999997,
      "d": 108.69550000000163,
      "v": 127
    },
    {
      "midi": 84,
      "hit": false,
      "t": 23913.01,
      "d": 434.78199999999924,
      "v": 127
    },
    {
      "midi": 54,
      "hit": false,
      "t": 24782.57400000004,
      "d": 217.39099999999962,
      "v": 127
    },
    {
      "midi": 55,
      "hit": false,
      "t": 24999.96500000004,
      "d": 108.69550000000163,
      "v": 127
    },
    {
      "midi": 54,
      "hit": false,
      "t": 25108.66050000004,
      "d": 108.69550000000163,
      "v": 127
    },
    {
      "midi": 72,
      "hit": false,
      "t": 25217.355999999996,
      "d": 217.39099999999962,
      "v": 127
    },
    {
      "midi": 74,
      "hit": false,
      "t": 25434.746999999996,
      "d": 108.69550000000163,
      "v": 127
    },
    {
      "midi": 72,
      "hit": false,
      "t": 25543.442499999997,
      "d": 108.69550000000163,
      "v": 127
    },
    {
      "midi": 81,
      "hit": false,
      "t": 25652.138,
      "d": 217.39099999999962,
      "v": 127
    },
    {
      "midi": 83,
      "hit": false,
      "t": 25869.529,
      "d": 108.69550000000163,
      "v": 127
    },
    {
      "midi": 81,
      "hit": false,
      "t": 25978.2245,
      "d": 108.69550000000163,
      "v": 127
    },
    {
      "midi": 72,
      "hit": false,
      "t": 26086.920000000002,
      "d": 217.39099999999962,
      "v": 127
    },
    {
      "midi": 74,
      "hit": false,
      "t": 26304.311,
      "d": 108.69550000000163,
      "v": 127
    },
    {
      "midi": 72,
      "hit": false,
      "t": 26413.006500000003,
      "d": 108.69550000000163,
      "v": 127
    },
    {
      "midi": 81,
      "hit": false,
      "t": 26521.702000000005,
      "d": 217.39099999999962,
      "v": 127
    },
    {
      "midi": 83,
      "hit": false,
      "t": 26739.093000000004,
      "d": 108.69550000000163,
      "v": 127
    },
    {
      "midi": 81,
      "hit": false,
      "t": 26847.788500000006,
      "d": 108.69550000000163,
      "v": 127
    },
    {
      "midi": 72,
      "hit": false,
      "t": 26956.484000000008,
      "d": 217.39099999999962,
      "v": 127
    },
    {
      "midi": 74,
      "hit": false,
      "t": 27173.875000000007,
      "d": 108.69550000000163,
      "v": 127
    },
    {
      "midi": 72,
      "hit": false,
      "t": 27282.57050000001,
      "d": 108.69550000000163,
      "v": 127
    },
    {
      "midi": 78,
      "hit": false,
      "t": 27391.26600000001,
      "d": 217.39099999999962,
      "v": 127
    },
    {
      "midi": 79,
      "hit": false,
      "t": 27608.65700000001,
      "d": 108.69550000000163,
      "v": 127
    },
    {
      "midi": 78,
      "hit": false,
      "t": 27717.35250000001,
      "d": 108.69550000000163,
      "v": 127
    },
    {
      "midi": 72,
      "hit": false,
      "t": 27826.048000000013,
      "d": 217.39099999999962,
      "v": 127
    },
    {
      "midi": 74,
      "hit": false,
      "t": 28043.439000000013,
      "d": 108.69550000000163,
      "v": 127
    },
    {
      "midi": 72,
      "hit": false,
      "t": 28152.134500000015,
      "d": 108.69550000000163,
      "v": 127
    },
    {
      "midi": 74,
      "hit": false,
      "t": 28260.830000000016,
      "d": 217.39099999999962,
      "v": 127
    },
    {
      "midi": 76,
      "hit": false,
      "t": 28478.221000000016,
      "d": 108.69550000000163,
      "v": 127
    },
    {
      "midi": 74,
      "hit": false,
      "t": 28586.916500000018,
      "d": 108.69550000000163,
      "v": 127
    },
    {
      "midi": 73,
      "hit": false,
      "t": 28695.61200000002,
      "d": 217.39099999999962,
      "v": 127
    },
    {
      "midi": 74,
      "hit": false,
      "t": 28913.00300000002,
      "d": 108.69550000000163,
      "v": 127
    },
    {
      "midi": 73,
      "hit": false,
      "t": 29021.69850000002,
      "d": 108.69550000000163,
      "v": 127
    },
    {
      "midi": 74,
      "hit": false,
      "t": 29130.394000000022,
      "d": 217.39099999999962,
      "v": 127
    },
    {
      "midi": 76,
      "hit": false,
      "t": 29347.78500000002,
      "d": 108.69550000000163,
      "v": 127
    },
    {
      "midi": 74,
      "hit": false,
      "t": 29456.480500000023,
      "d": 108.69550000000163,
      "v": 127
    },
    {
      "midi": 72,
      "hit": false,
      "t": 29565.176000000025,
      "d": 217.39099999999962,
      "v": 127
    },
    {
      "midi": 74,
      "hit": false,
      "t": 29782.567000000025,
      "d": 108.69550000000163,
      "v": 127
    },
    {
      "midi": 72,
      "hit": false,
      "t": 29891.262500000026,
      "d": 108.69550000000163,
      "v": 127
    },
    {
      "midi": 74,
      "hit": false,
      "t": 29999.958000000028,
      "d": 217.39099999999962,
      "v": 127
    },
    {
      "midi": 76,
      "hit": false,
      "t": 30217.349000000027,
      "d": 108.69550000000163,
      "v": 127
    },
    {
      "midi": 74,
      "hit": false,
      "t": 30326.04450000003,
      "d": 108.69550000000163,
      "v": 127
    },
    {
      "midi": 71,
      "hit": false,
      "t": 30434.74000000003,
      "d": 217.39099999999962,
      "v": 127
    },
    {
      "midi": 55,
      "hit": false,
      "t": 30434.74000000004,
      "d": 144.92733333333308,
      "v": 127
    },
    {
      "midi": 59,
      "hit": false,
      "t": 30579.667333333375,
      "d": 144.92733333333308,
      "v": 127
    },
    {
      "midi": 72,
      "hit": false,
      "t": 30652.13100000003,
      "d": 108.69550000000163,
      "v": 127
    },
    {
      "midi": 62,
      "hit": false,
      "t": 30724.594666666708,
      "d": 144.92733333333308,
      "v": 127
    },
    {
      "midi": 71,
      "hit": false,
      "t": 30760.826500000032,
      "d": 108.69550000000163,
      "v": 127
    },
    {
      "midi": 74,
      "hit": false,
      "t": 30869.522000000034,
      "d": 217.39099999999962,
      "v": 127
    },
    {
      "midi": 54,
      "hit": false,
      "t": 30869.52200000004,
      "d": 144.92733333333308,
      "v": 127
    },
    {
      "midi": 57,
      "hit": false,
      "t": 31014.449333333374,
      "d": 144.92733333333308,
      "v": 127
    },
    {
      "midi": 76,
      "hit": false,
      "t": 31086.913000000033,
      "d": 108.69550000000163,
      "v": 127
    },
    {
      "midi": 62,
      "hit": false,
      "t": 31159.376666666707,
      "d": 144.92733333333308,
      "v": 127
    },
    {
      "midi": 74,
      "hit": false,
      "t": 31195.608500000035,
      "d": 108.69550000000163,
      "v": 127
    },
    {
      "midi": 67,
      "hit": false,
      "t": 31304.304000000036,
      "d": 217.39099999999962,
      "v": 127
    },
    {
      "midi": 52,
      "hit": false,
      "t": 31304.30400000004,
      "d": 144.92733333333308,
      "v": 127
    },
    {
      "midi": 55,
      "hit": false,
      "t": 31449.231333333373,
      "d": 144.92733333333308,
      "v": 127
    },
    {
      "midi": 69,
      "hit": false,
      "t": 31521.695000000036,
      "d": 108.69550000000163,
      "v": 127
    },
    {
      "midi": 59,
      "hit": false,
      "t": 31594.158666666706,
      "d": 144.92733333333308,
      "v": 127
    },
    {
      "midi": 67,
      "hit": false,
      "t": 31630.390500000038,
      "d": 108.69550000000163,
      "v": 127
    },
    {
      "midi": 71,
      "hit": false,
      "t": 31739.08600000004,
      "d": 434.78199999999924,
      "v": 127
    },
    {
      "midi": 50,
      "hit": false,
      "t": 31739.08600000004,
      "d": 144.92733333333308,
      "v": 127
    },
    {
      "midi": 54,
      "hit": false,
      "t": 31884.013333333372,
      "d": 144.92733333333308,
      "v": 127
    },
    {
      "midi": 59,
      "hit": false,
      "t": 32028.940666666706,
      "d": 144.92733333333308,
      "v": 127
    },
    {
      "midi": 64,
      "hit": false,
      "t": 32173.86800000004,
      "d": 217.39099999999962,
      "v": 127
    },
    {
      "midi": 48,
      "hit": false,
      "t": 32173.86800000004,
      "d": 144.92733333333308,
      "v": 127
    },
    {
      "midi": 52,
      "hit": false,
      "t": 32318.79533333337,
      "d": 144.92733333333308,
      "v": 127
    },
    {
      "midi": 66,
      "hit": false,
      "t": 32391.25900000004,
      "d": 108.69550000000163,
      "v": 127
    },
    {
      "midi": 55,
      "hit": false,
      "t": 32463.722666666705,
      "d": 144.92733333333308,
      "v": 127
    },
    {
      "midi": 64,
      "hit": false,
      "t": 32499.95450000004,
      "d": 108.69550000000163,
      "v": 127
    },
    {
      "midi": 47,
      "hit": false,
      "t": 32608.650000000038,
      "d": 144.92733333333308,
      "v": 127
    },
    {
      "midi": 67,
      "hit": false,
      "t": 32608.65000000004,
      "d": 217.39099999999962,
      "v": 127
    },
    {
      "midi": 50,
      "hit": false,
      "t": 32753.57733333337,
      "d": 144.92733333333308,
      "v": 127
    },
    {
      "midi": 69,
      "hit": false,
      "t": 32826.04100000004,
      "d": 108.69550000000163,
      "v": 127
    },
    {
      "midi": 55,
      "hit": false,
      "t": 32898.504666666704,
      "d": 144.92733333333308,
      "v": 127
    },
    {
      "midi": 67,
      "hit": false,
      "t": 32934.73650000004,
      "d": 108.69550000000163,
      "v": 127
    },
    {
      "midi": 45,
      "hit": false,
      "t": 33043.43200000004,
      "d": 144.92733333333308,
      "v": 127
    },
    {
      "midi": 69,
      "hit": false,
      "t": 33043.432000000044,
      "d": 217.39100000000326,
      "v": 127
    },
    {
      "midi": 50,
      "hit": false,
      "t": 33188.35933333337,
      "d": 144.92733333333308,
      "v": 127
    },
    {
      "midi": 71,
      "hit": false,
      "t": 33260.82300000005,
      "d": 108.69550000000163,
      "v": 127
    },
    {
      "midi": 54,
      "hit": false,
      "t": 33333.2866666667,
      "d": 144.92733333333308,
      "v": 127
    },
    {
      "midi": 69,
      "hit": false,
      "t": 33369.51850000005,
      "d": 108.69550000000163,
      "v": 127
    },
    {
      "midi": 43,
      "hit": false,
      "t": 33478.214000000036,
      "d": 144.92733333333308,
      "v": 127
    },
    {
      "midi": 71,
      "hit": false,
      "t": 33478.21400000005,
      "d": 434.78199999999924,
      "v": 127
    },
    {
      "midi": 50,
      "hit": false,
      "t": 33623.14133333337,
      "d": 144.92733333333308,
      "v": 127
    },
    {
      "midi": 55,
      "hit": false,
      "t": 33768.0686666667,
      "d": 144.92733333333308,
      "v": 127
    },
    {
      "midi": 55,
      "hit": false,
      "t": 33912.996000000036,
      "d": 144.92733333333308,
      "v": 127
    },
    {
      "midi": 71,
      "hit": false,
      "t": 33912.99600000005,
      "d": 217.39100000000326,
      "v": 127
    },
    {
      "midi": 59,
      "hit": false,
      "t": 34057.92333333337,
      "d": 144.92733333333308,
      "v": 127
    },
    {
      "midi": 72,
      "hit": false,
      "t": 34130.38700000005,
      "d": 108.69550000000163,
      "v": 127
    },
    {
      "midi": 62,
      "hit": false,
      "t": 34202.8506666667,
      "d": 144.92733333333308,
      "v": 127
    },
    {
      "midi": 71,
      "hit": false,
      "t": 34239.082500000055,
      "d": 108.69550000000163,
      "v": 127
    },
    {
      "midi": 54,
      "hit": false,
      "t": 34347.778000000035,
      "d": 144.92733333333308,
      "v": 127
    },
    {
      "midi": 74,
      "hit": false,
      "t": 34347.77800000006,
      "d": 217.39100000000326,
      "v": 127
    },
    {
      "midi": 57,
      "hit": false,
      "t": 34492.70533333337,
      "d": 144.92733333333308,
      "v": 127
    },
    {
      "midi": 76,
      "hit": false,
      "t": 34565.16900000006,
      "d": 108.69550000000163,
      "v": 127
    },
    {
      "midi": 62,
      "hit": false,
      "t": 34637.6326666667,
      "d": 144.92733333333308,
      "v": 127
    },
    {
      "midi": 74,
      "hit": false,
      "t": 34673.86450000006,
      "d": 108.69550000000163,
      "v": 127
    },
    {
      "midi": 52,
      "hit": false,
      "t": 34782.560000000034,
      "d": 144.92733333333308,
      "v": 127
    },
    {
      "midi": 79,
      "hit": false,
      "t": 34782.56000000006,
      "d": 217.39100000000326,
      "v": 127
    },
    {
      "midi": 57,
      "hit": false,
      "t": 34927.48733333337,
      "d": 144.92733333333308,
      "v": 127
    },
    {
      "midi": 81,
      "hit": false,
      "t": 34999.95100000007,
      "d": 108.69550000000163,
      "v": 127
    },
    {
      "midi": 61,
      "hit": false,
      "t": 35072.4146666667,
      "d": 144.92733333333308,
      "v": 127
    },
    {
      "midi": 79,
      "hit": false,
      "t": 35108.64650000007,
      "d": 108.69550000000163,
      "v": 127
    },
    {
      "midi": 50,
      "hit": false,
      "t": 35217.34200000003,
      "d": 144.92733333333308,
      "v": 127
    },
    {
      "midi": 78,
      "hit": false,
      "t": 35217.34200000007,
      "d": 434.78199999999924,
      "v": 127
    },
    {
      "midi": 57,
      "hit": false,
      "t": 35362.26933333337,
      "d": 144.92733333333308,
      "v": 127
    },
    {
      "midi": 62,
      "hit": false,
      "t": 35507.1966666667,
      "d": 144.92733333333308,
      "v": 127
    },
    {
      "midi": 55,
      "hit": false,
      "t": 35652.12400000003,
      "d": 144.92733333333308,
      "v": 127
    },
    {
      "midi": 76,
      "hit": false,
      "t": 35652.12400000007,
      "d": 217.39100000000326,
      "v": 127
    },
    {
      "midi": 59,
      "hit": false,
      "t": 35797.051333333366,
      "d": 144.92733333333308,
      "v": 127
    },
    {
      "midi": 78,
      "hit": false,
      "t": 35869.51500000007,
      "d": 108.69550000000163,
      "v": 127
    },
    {
      "midi": 62,
      "hit": false,
      "t": 35941.9786666667,
      "d": 144.92733333333308,
      "v": 127
    },
    {
      "midi": 76,
      "hit": false,
      "t": 35978.210500000074,
      "d": 108.69550000000163,
      "v": 127
    },
    {
      "midi": 57,
      "hit": false,
      "t": 36086.90600000003,
      "d": 144.92733333333308,
      "v": 127
    },
    {
      "midi": 73,
      "hit": false,
      "t": 36086.906000000075,
      "d": 217.39100000000326,
      "v": 127
    },
    {
      "midi": 64,
      "hit": false,
      "t": 36231.833333333365,
      "d": 144.92733333333308,
      "v": 127
    },
    {
      "midi": 71,
      "hit": false,
      "t": 36304.29700000008,
      "d": 108.69550000000163,
      "v": 127
    },
    {
      "midi": 67,
      "hit": false,
      "t": 36376.7606666667,
      "d": 144.92733333333308,
      "v": 127
    },
    {
      "midi": 73,
      "hit": false,
      "t": 36412.99250000008,
      "d": 108.69550000000163,
      "v": 127
    },
    {
      "midi": 62,
      "hit": false,
      "t": 36521.68800000003,
      "d": 144.92733333333308,
      "v": 127
    },
    {
      "midi": 71,
      "hit": false,
      "t": 36521.68800000008,
      "d": 434.78199999999924,
      "v": 127
    },
    {
      "midi": 69,
      "hit": false,
      "t": 36666.615333333364,
      "d": 144.92733333333308,
      "v": 127
    },
    {
      "midi": 66,
      "hit": false,
      "t": 36811.5426666667,
      "d": 144.92733333333308,
      "v": 127
    },
    {
      "midi": 62,
      "hit": false,
      "t": 36956.47000000003,
      "d": 144.92733333333308,
      "v": 127
    },
    {
      "midi": 57,
      "hit": false,
      "t": 37101.39733333336,
      "d": 144.92733333333308,
      "v": 127
    },
    {
      "midi": 54,
      "hit": false,
      "t": 37246.3246666667,
      "d": 144.92733333333308,
      "v": 127
    },
    {
      "midi": 50,
      "hit": false,
      "t": 37391.25200000003,
      "d": 217.39100000000326,
      "v": 127
    },
    {
      "midi": 74,
      "hit": false,
      "t": 37391.25200000008,
      "d": 217.39100000000326,
      "v": 127
    },
    {
      "midi": 52,
      "hit": false,
      "t": 37608.64300000003,
      "d": 108.69550000000163,
      "v": 127
    },
    {
      "midi": 76,
      "hit": false,
      "t": 37608.643000000084,
      "d": 108.69550000000163,
      "v": 127
    },
    {
      "midi": 50,
      "hit": false,
      "t": 37717.338500000034,
      "d": 108.69550000000163,
      "v": 127
    },
    {
      "midi": 74,
      "hit": false,
      "t": 37717.338500000085,
      "d": 108.69550000000163,
      "v": 127
    },
    {
      "midi": 47,
      "hit": false,
      "t": 37826.034000000036,
      "d": 217.39100000000326,
      "v": 127
    },
    {
      "midi": 71,
      "hit": false,
      "t": 37826.03400000009,
      "d": 217.39100000000326,
      "v": 127
    },
    {
      "midi": 49,
      "hit": false,
      "t": 38043.42500000004,
      "d": 217.39100000000326,
      "v": 127
    },
    {
      "midi": 73,
      "hit": false,
      "t": 38043.42500000009,
      "d": 217.39100000000326,
      "v": 127
    },
    {
      "midi": 50,
      "hit": false,
      "t": 38260.81600000004,
      "d": 434.78199999999924,
      "v": 127
    },
    {
      "midi": 74,
      "hit": false,
      "t": 38260.81600000009,
      "d": 434.78199999999924,
      "v": 127
    },
    {
      "midi": 38,
      "hit": false,
      "t": 38695.59800000004,
      "d": 434.78199999999924,
      "v": 127
    },
    {
      "midi": 62,
      "hit": false,
      "t": 38695.59800000009,
      "d": 434.78199999999924,
      "v": 127
    },
    {
      "midi": 40,
      "hit": false,
      "t": 39130.38000000004,
      "d": 217.39100000000326,
      "v": 127
    },
    {
      "midi": 42,
      "hit": false,
      "t": 39130.38000000004,
      "d": 217.39100000000326,
      "v": 127
    },
    {
      "midi": 64,
      "hit": false,
      "t": 39130.38000000009,
      "d": 217.39100000000326,
      "v": 127
    },
    {
      "midi": 66,
      "hit": false,
      "t": 39130.38000000009,
      "d": 217.39100000000326,
      "v": 127
    },
    {
      "midi": 38,
      "hit": false,
      "t": 39347.771000000044,
      "d": 217.39100000000326,
      "v": 127
    },
    {
      "midi": 62,
      "hit": false,
      "t": 39347.771000000095,
      "d": 217.39100000000326,
      "v": 127
    },
    {
      "midi": 40,
      "hit": false,
      "t": 39565.16200000005,
      "d": 217.39100000000326,
      "v": 127
    },
    {
      "midi": 64,
      "hit": false,
      "t": 39565.1620000001,
      "d": 217.39100000000326,
      "v": 127
    },
    {
      "midi": 42,
      "hit": false,
      "t": 39782.55300000005,
      "d": 217.39100000000326,
      "v": 127
    },
    {
      "midi": 66,
      "hit": false,
      "t": 39782.5530000001,
      "d": 217.39100000000326,
      "v": 127
    },
    {
      "midi": 43,
      "hit": false,
      "t": 39999.944000000054,
      "d": 434.78199999999924,
      "v": 127
    },
    {
      "midi": 67,
      "hit": false,
      "t": 39999.944000000105,
      "d": 434.78199999999924,
      "v": 127
    },
    {
      "midi": 31,
      "hit": false,
      "t": 40434.72600000005,
      "d": 434.78199999999924,
      "v": 127
    },
    {
      "midi": 55,
      "hit": false,
      "t": 40434.726000000104,
      "d": 434.78199999999924,
      "v": 127
    },
    {
      "midi": 50,
      "hit": false,
      "t": 40869.50800000005,
      "d": 144.92733333333308,
      "v": 127
    },
    {
      "midi": 74,
      "hit": false,
      "t": 40869.5080000001,
      "d": 217.39100000000326,
      "v": 127
    },
    {
      "midi": 54,
      "hit": false,
      "t": 41014.435333333386,
      "d": 144.92733333333308,
      "v": 127
    },
    {
      "midi": 76,
      "hit": false,
      "t": 41086.89900000011,
      "d": 108.69550000000163,
      "v": 127
    },
    {
      "midi": 57,
      "hit": false,
      "t": 41159.36266666672,
      "d": 144.92733333333308,
      "v": 127
    },
    {
      "midi": 74,
      "hit": false,
      "t": 41195.59450000011,
      "d": 108.69550000000163,
      "v": 127
    },
    {
      "midi": 52,
      "hit": false,
      "t": 41304.29000000005,
      "d": 144.92733333333308,
      "v": 127
    },
    {
      "midi": 71,
      "hit": false,
      "t": 41304.29000000011,
      "d": 217.39100000000326,
      "v": 127
    },
    {
      "midi": 55,
      "hit": false,
      "t": 41449.217333333385,
      "d": 144.92733333333308,
      "v": 127
    },
    {
      "midi": 73,
      "hit": false,
      "t": 41521.68100000011,
      "d": 217.39100000000326,
      "v": 127
    },
    {
      "midi": 57,
      "hit": false,
      "t": 41594.14466666672,
      "d": 144.92733333333308,
      "v": 127
    },
    {
      "midi": 50,
      "hit": false,
      "t": 41739.07200000005,
      "d": 144.92733333333308,
      "v": 127
    },
    {
      "midi": 74,
      "hit": false,
      "t": 41739.07200000012,
      "d": 434.78199999999924,
      "v": 127
    },
    {
      "midi": 54,
      "hit": false,
      "t": 41883.999333333384,
      "d": 144.92733333333308,
      "v": 127
    },
    {
      "midi": 57,
      "hit": false,
      "t": 42028.92666666672,
      "d": 144.92733333333308,
      "v": 127
    },
    {
      "midi": 43,
      "hit": false,
      "t": 42173.85400000005,
      "d": 144.92733333333308,
      "v": 127
    },
    {
      "midi": 71,
      "hit": false,
      "t": 42173.854000000116,
      "d": 434.78199999999924,
      "v": 127
    },
    {
      "midi": 53,
      "hit": false,
      "t": 42318.78133333338,
      "d": 144.92733333333308,
      "v": 127
    },
    {
      "midi": 55,
      "hit": false,
      "t": 42463.70866666672,
      "d": 144.92733333333308,
      "v": 127
    },
    {
      "midi": 48,
      "hit": false,
      "t": 42608.63600000005,
      "d": 144.92733333333308,
      "v": 127
    },
    {
      "midi": 74,
      "hit": false,
      "t": 42608.636000000115,
      "d": 217.39100000000326,
      "v": 127
    },
    {
      "midi": 52,
      "hit": false,
      "t": 42753.56333333338,
      "d": 144.92733333333308,
      "v": 127
    },
    {
      "midi": 72,
      "hit": false,
      "t": 42826.02700000012,
      "d": 217.39100000000326,
      "v": 127
    },
    {
      "midi": 57,
      "hit": false,
      "t": 42898.490666666716,
      "d": 144.92733333333308,
      "v": 127
    },
    {
      "midi": 50,
      "hit": false,
      "t": 43043.41800000005,
      "d": 144.92733333333308,
      "v": 127
    },
    {
      "midi": 69,
      "hit": false,
      "t": 43043.41800000012,
      "d": 217.39100000000326,
      "v": 127
    },
    {
      "midi": 54,
      "hit": false,
      "t": 43188.34533333338,
      "d": 144.92733333333308,
      "v": 127
    },
    {
      "midi": 66,
      "hit": false,
      "t": 43260.809000000125,
      "d": 217.39100000000326,
      "v": 127
    },
    {
      "midi": 57,
      "hit": false,
      "t": 43333.272666666715,
      "d": 144.92733333333308,
      "v": 127
    },
    {
      "midi": 43,
      "hit": false,
      "t": 43478.20000000005,
      "d": 144.92733333333308,
      "v": 127
    },
    {
      "midi": 67,
      "hit": false,
      "t": 43478.20000000013,
      "d": 434.78199999999924,
      "v": 127
    },
    {
      "midi": 50,
      "hit": false,
      "t": 43623.12733333338,
      "d": 144.92733333333308,
      "v": 127
    },
    {
      "midi": 55,
      "hit": false,
      "t": 43768.054666666714,
      "d": 144.92733333333308,
      "v": 127
    },
    {
      "midi": 43,
      "hit": false,
      "t": 44021.67750000005,
      "d": 108.69550000000163,
      "v": 127
    },
    {
      "midi": 55,
      "hit": false,
      "t": 44021.67750000013,
      "d": 108.69550000000163,
      "v": 127
    },
    {
      "midi": 45,
      "hit": false,
      "t": 44130.37300000005,
      "d": 108.69550000000163,
      "v": 127
    },
    {
      "midi": 57,
      "hit": false,
      "t": 44130.37300000013,
      "d": 108.69550000000163,
      "v": 127
    },
    {
      "midi": 47,
      "hit": false,
      "t": 44239.06850000005,
      "d": 108.69550000000163,
      "v": 127
    },
    {
      "midi": 59,
      "hit": false,
      "t": 44239.06850000013,
      "d": 108.69550000000163,
      "v": 127
    },
    {
      "midi": 48,
      "hit": false,
      "t": 44347.764000000054,
      "d": 108.69550000000163,
      "v": 127
    },
    {
      "midi": 60,
      "hit": false,
      "t": 44347.764000000134,
      "d": 108.69550000000163,
      "v": 127
    },
    {
      "midi": 43,
      "hit": false,
      "t": 44456.459500000055,
      "d": 108.69550000000163,
      "v": 127
    },
    {
      "midi": 55,
      "hit": false,
      "t": 44456.459500000135,
      "d": 108.69550000000163,
      "v": 127
    },
    {
      "midi": 45,
      "hit": false,
      "t": 44565.15500000006,
      "d": 108.69550000000163,
      "v": 127
    },
    {
      "midi": 57,
      "hit": false,
      "t": 44565.15500000014,
      "d": 108.69550000000163,
      "v": 127
    },
    {
      "midi": 47,
      "hit": false,
      "t": 44673.85050000006,
      "d": 108.69550000000163,
      "v": 127
    },
    {
      "midi": 59,
      "hit": false,
      "t": 44673.85050000014,
      "d": 108.69550000000163,
      "v": 127
    },
    {
      "midi": 48,
      "hit": false,
      "t": 44782.54600000006,
      "d": 108.69550000000163,
      "v": 127
    },
    {
      "midi": 60,
      "hit": false,
      "t": 44782.54600000014,
      "d": 108.69550000000163,
      "v": 127
    },
    {
      "midi": 50,
      "hit": false,
      "t": 44891.24150000006,
      "d": 108.69550000000163,
      "v": 127
    },
    {
      "midi": 62,
      "hit": false,
      "t": 44891.24150000014,
      "d": 108.69550000000163,
      "v": 127
    },
    {
      "midi": 52,
      "hit": false,
      "t": 44999.93700000006,
      "d": 108.69550000000163,
      "v": 127
    },
    {
      "midi": 64,
      "hit": false,
      "t": 44999.93700000014,
      "d": 108.69550000000163,
      "v": 127
    },
    {
      "midi": 53,
      "hit": false,
      "t": 45108.632500000065,
      "d": 108.69550000000163,
      "v": 127
    },
    {
      "midi": 65,
      "hit": false,
      "t": 45108.632500000145,
      "d": 108.69550000000163,
      "v": 127
    },
    {
      "midi": 48,
      "hit": false,
      "t": 45217.32800000007,
      "d": 217.39100000000326,
      "v": 127
    },
    {
      "midi": 52,
      "hit": false,
      "t": 45217.32800000007,
      "d": 217.39100000000326,
      "v": 127
    },
    {
      "midi": 55,
      "hit": false,
      "t": 45217.32800000007,
      "d": 217.39100000000326,
      "v": 127
    },
    {
      "midi": 67,
      "hit": false,
      "t": 45217.32800000015,
      "d": 217.39100000000326,
      "v": 127
    },
    {
      "midi": 48,
      "hit": false,
      "t": 45434.71900000007,
      "d": 217.39100000000326,
      "v": 127
    },
    {
      "midi": 52,
      "hit": false,
      "t": 45434.71900000007,
      "d": 217.39100000000326,
      "v": 127
    },
    {
      "midi": 55,
      "hit": false,
      "t": 45434.71900000007,
      "d": 217.39100000000326,
      "v": 127
    },
    {
      "midi": 64,
      "hit": false,
      "t": 45434.71900000015,
      "d": 217.39100000000326,
      "v": 127
    },
    {
      "midi": 48,
      "hit": false,
      "t": 45652.11000000007,
      "d": 217.39100000000326,
      "v": 127
    },
    {
      "midi": 52,
      "hit": false,
      "t": 45652.11000000007,
      "d": 217.39100000000326,
      "v": 127
    },
    {
      "midi": 55,
      "hit": false,
      "t": 45652.11000000007,
      "d": 217.39100000000326,
      "v": 127
    },
    {
      "midi": 72,
      "hit": false,
      "t": 45652.11000000015,
      "d": 217.39100000000326,
      "v": 127
    },
    {
      "midi": 48,
      "hit": false,
      "t": 45869.50100000008,
      "d": 217.39100000000326,
      "v": 127
    },
    {
      "midi": 52,
      "hit": false,
      "t": 45869.50100000008,
      "d": 217.39100000000326,
      "v": 127
    },
    {
      "midi": 55,
      "hit": false,
      "t": 45869.50100000008,
      "d": 217.39100000000326,
      "v": 127
    },
    {
      "midi": 67,
      "hit": false,
      "t": 45869.50100000016,
      "d": 217.39100000000326,
      "v": 127
    },
    {
      "midi": 48,
      "hit": false,
      "t": 46086.89200000008,
      "d": 217.39100000000326,
      "v": 127
    },
    {
      "midi": 52,
      "hit": false,
      "t": 46086.89200000008,
      "d": 217.39100000000326,
      "v": 127
    },
    {
      "midi": 55,
      "hit": false,
      "t": 46086.89200000008,
      "d": 217.39100000000326,
      "v": 127
    },
    {
      "midi": 60,
      "hit": false,
      "t": 46086.89200000008,
      "d": 217.39100000000326,
      "v": 127
    },
    {
      "midi": 76,
      "hit": false,
      "t": 46086.89200000016,
      "d": 217.39100000000326,
      "v": 127
    },
    {
      "midi": 48,
      "hit": false,
      "t": 46304.28300000008,
      "d": 217.39100000000326,
      "v": 127
    },
    {
      "midi": 52,
      "hit": false,
      "t": 46304.28300000008,
      "d": 217.39100000000326,
      "v": 127
    },
    {
      "midi": 55,
      "hit": false,
      "t": 46304.28300000008,
      "d": 217.39100000000326,
      "v": 127
    },
    {
      "midi": 60,
      "hit": false,
      "t": 46304.28300000008,
      "d": 217.39100000000326,
      "v": 127
    },
    {
      "midi": 72,
      "hit": false,
      "t": 46304.28300000016,
      "d": 217.39100000000326,
      "v": 127
    },
    {
      "midi": 48,
      "hit": false,
      "t": 46521.67400000009,
      "d": 217.39100000000326,
      "v": 127
    },
    {
      "midi": 52,
      "hit": false,
      "t": 46521.67400000009,
      "d": 217.39100000000326,
      "v": 127
    },
    {
      "midi": 55,
      "hit": false,
      "t": 46521.67400000009,
      "d": 217.39100000000326,
      "v": 127
    },
    {
      "midi": 60,
      "hit": false,
      "t": 46521.67400000009,
      "d": 217.39100000000326,
      "v": 127
    },
    {
      "midi": 79,
      "hit": false,
      "t": 46521.67400000017,
      "d": 217.39100000000326,
      "v": 127
    },
    {
      "midi": 48,
      "hit": false,
      "t": 46739.06500000009,
      "d": 217.39100000000326,
      "v": 127
    },
    {
      "midi": 52,
      "hit": false,
      "t": 46739.06500000009,
      "d": 217.39100000000326,
      "v": 127
    },
    {
      "midi": 55,
      "hit": false,
      "t": 46739.06500000009,
      "d": 217.39100000000326,
      "v": 127
    },
    {
      "midi": 60,
      "hit": false,
      "t": 46739.06500000009,
      "d": 217.39100000000326,
      "v": 127
    },
    {
      "midi": 76,
      "hit": false,
      "t": 46739.06500000017,
      "d": 217.39100000000326,
      "v": 127
    },
    {
      "midi": 53,
      "hit": false,
      "t": 46956.45600000009,
      "d": 434.78199999999924,
      "v": 127
    },
    {
      "midi": 57,
      "hit": false,
      "t": 46956.45600000009,
      "d": 434.78199999999924,
      "v": 127
    },
    {
      "midi": 60,
      "hit": false,
      "t": 46956.45600000009,
      "d": 434.78199999999924,
      "v": 127
    },
    {
      "midi": 69,
      "hit": false,
      "t": 46956.45600000017,
      "d": 434.78199999999924,
      "v": 127
    },
    {
      "midi": 81,
      "hit": false,
      "t": 46956.45600000017,
      "d": 434.78199999999924,
      "v": 127
    },
    {
      "midi": 48,
      "hit": false,
      "t": 47499.933500000094,
      "d": 108.69550000000163,
      "v": 127
    },
    {
      "midi": 60,
      "hit": false,
      "t": 47499.933500000174,
      "d": 108.69550000000163,
      "v": 127
    },
    {
      "midi": 50,
      "hit": false,
      "t": 47608.629000000095,
      "d": 108.69550000000163,
      "v": 127
    },
    {
      "midi": 62,
      "hit": false,
      "t": 47608.629000000175,
      "d": 108.69550000000163,
      "v": 127
    },
    {
      "midi": 52,
      "hit": false,
      "t": 47717.3245000001,
      "d": 108.69550000000163,
      "v": 127
    },
    {
      "midi": 64,
      "hit": false,
      "t": 47717.32450000018,
      "d": 108.69550000000163,
      "v": 127
    },
    {
      "midi": 53,
      "hit": false,
      "t": 47826.0200000001,
      "d": 108.69550000000163,
      "v": 127
    },
    {
      "midi": 65,
      "hit": false,
      "t": 47826.02000000018,
      "d": 108.69550000000163,
      "v": 127
    },
    {
      "midi": 48,
      "hit": false,
      "t": 47934.7155000001,
      "d": 108.69550000000163,
      "v": 127
    },
    {
      "midi": 60,
      "hit": false,
      "t": 47934.71550000018,
      "d": 108.69550000000163,
      "v": 127
    },
    {
      "midi": 50,
      "hit": false,
      "t": 48043.4110000001,
      "d": 108.69550000000163,
      "v": 127
    },
    {
      "midi": 62,
      "hit": false,
      "t": 48043.41100000018,
      "d": 108.69550000000163,
      "v": 127
    },
    {
      "midi": 52,
      "hit": false,
      "t": 48152.1065000001,
      "d": 108.69550000000163,
      "v": 127
    },
    {
      "midi": 64,
      "hit": false,
      "t": 48152.10650000018,
      "d": 108.69550000000163,
      "v": 127
    },
    {
      "midi": 53,
      "hit": false,
      "t": 48260.802000000105,
      "d": 108.69550000000163,
      "v": 127
    },
    {
      "midi": 65,
      "hit": false,
      "t": 48260.802000000185,
      "d": 108.69550000000163,
      "v": 127
    },
    {
      "midi": 55,
      "hit": false,
      "t": 48369.49750000011,
      "d": 108.69550000000163,
      "v": 127
    },
    {
      "midi": 67,
      "hit": false,
      "t": 48369.49750000019,
      "d": 108.69550000000163,
      "v": 127
    },
    {
      "midi": 57,
      "hit": false,
      "t": 48478.19300000011,
      "d": 108.69550000000163,
      "v": 127
    },
    {
      "midi": 69,
      "hit": false,
      "t": 48478.19300000019,
      "d": 108.69550000000163,
      "v": 127
    },
    {
      "midi": 58,
      "hit": false,
      "t": 48586.88850000011,
      "d": 108.69550000000163,
      "v": 127
    },
    {
      "midi": 70,
      "hit": false,
      "t": 48586.88850000019,
      "d": 108.69550000000163,
      "v": 127
    },
    {
      "midi": 53,
      "hit": false,
      "t": 48695.58400000011,
      "d": 217.39100000000326,
      "v": 127
    },
    {
      "midi": 57,
      "hit": false,
      "t": 48695.58400000011,
      "d": 217.39100000000326,
      "v": 127
    },
    {
      "midi": 60,
      "hit": false,
      "t": 48695.58400000011,
      "d": 217.39100000000326,
      "v": 127
    },
    {
      "midi": 72,
      "hit": false,
      "t": 48695.58400000019,
      "d": 217.39100000000326,
      "v": 127
    },
    {
      "midi": 53,
      "hit": false,
      "t": 48912.975000000115,
      "d": 217.39100000000326,
      "v": 127
    },
    {
      "midi": 57,
      "hit": false,
      "t": 48912.975000000115,
      "d": 217.39100000000326,
      "v": 127
    },
    {
      "midi": 60,
      "hit": false,
      "t": 48912.975000000115,
      "d": 217.39100000000326,
      "v": 127
    },
    {
      "midi": 65,
      "hit": false,
      "t": 48912.975000000115,
      "d": 217.39100000000326,
      "v": 127
    },
    {
      "midi": 69,
      "hit": false,
      "t": 48912.975000000195,
      "d": 217.39100000000326,
      "v": 127
    },
    {
      "midi": 53,
      "hit": false,
      "t": 49130.36600000012,
      "d": 217.39100000000326,
      "v": 127
    },
    {
      "midi": 57,
      "hit": false,
      "t": 49130.36600000012,
      "d": 217.39100000000326,
      "v": 127
    },
    {
      "midi": 60,
      "hit": false,
      "t": 49130.36600000012,
      "d": 217.39100000000326,
      "v": 127
    },
    {
      "midi": 65,
      "hit": false,
      "t": 49130.36600000012,
      "d": 217.39100000000326,
      "v": 127
    },
    {
      "midi": 77,
      "hit": false,
      "t": 49130.3660000002,
      "d": 217.39100000000326,
      "v": 127
    },
    {
      "midi": 53,
      "hit": false,
      "t": 49347.75700000012,
      "d": 217.39100000000326,
      "v": 127
    },
    {
      "midi": 57,
      "hit": false,
      "t": 49347.75700000012,
      "d": 217.39100000000326,
      "v": 127
    },
    {
      "midi": 60,
      "hit": false,
      "t": 49347.75700000012,
      "d": 217.39100000000326,
      "v": 127
    },
    {
      "midi": 65,
      "hit": false,
      "t": 49347.75700000012,
      "d": 217.39100000000326,
      "v": 127
    },
    {
      "midi": 72,
      "hit": false,
      "t": 49347.7570000002,
      "d": 217.39100000000326,
      "v": 127
    },
    {
      "midi": 53,
      "hit": false,
      "t": 49565.148000000125,
      "d": 217.39100000000326,
      "v": 127
    },
    {
      "midi": 57,
      "hit": false,
      "t": 49565.148000000125,
      "d": 217.39100000000326,
      "v": 127
    },
    {
      "midi": 60,
      "hit": false,
      "t": 49565.148000000125,
      "d": 217.39100000000326,
      "v": 127
    },
    {
      "midi": 65,
      "hit": false,
      "t": 49565.148000000125,
      "d": 217.39100000000326,
      "v": 127
    },
    {
      "midi": 81,
      "hit": false,
      "t": 49565.148000000205,
      "d": 217.39100000000326,
      "v": 127
    },
    {
      "midi": 53,
      "hit": false,
      "t": 49782.53900000013,
      "d": 217.39100000000326,
      "v": 127
    },
    {
      "midi": 57,
      "hit": false,
      "t": 49782.53900000013,
      "d": 217.39100000000326,
      "v": 127
    },
    {
      "midi": 60,
      "hit": false,
      "t": 49782.53900000013,
      "d": 217.39100000000326,
      "v": 127
    },
    {
      "midi": 65,
      "hit": false,
      "t": 49782.53900000013,
      "d": 217.39100000000326,
      "v": 127
    },
    {
      "midi": 77,
      "hit": false,
      "t": 49782.53900000021,
      "d": 217.39100000000326,
      "v": 127
    },
    {
      "midi": 55,
      "hit": false,
      "t": 49999.93000000013,
      "d": 217.39100000000326,
      "v": 127
    },
    {
      "midi": 59,
      "hit": false,
      "t": 49999.93000000013,
      "d": 217.39100000000326,
      "v": 127
    },
    {
      "midi": 62,
      "hit": false,
      "t": 49999.93000000013,
      "d": 217.39100000000326,
      "v": 127
    },
    {
      "midi": 89,
      "hit": false,
      "t": 49999.93000000021,
      "d": 217.39100000000326,
      "v": 127
    },
    {
      "midi": 55,
      "hit": false,
      "t": 50217.321000000135,
      "d": 217.39100000000326,
      "v": 127
    },
    {
      "midi": 59,
      "hit": false,
      "t": 50217.321000000135,
      "d": 217.39100000000326,
      "v": 127
    },
    {
      "midi": 62,
      "hit": false,
      "t": 50217.321000000135,
      "d": 217.39100000000326,
      "v": 127
    },
    {
      "midi": 83,
      "hit": false,
      "t": 50217.321000000215,
      "d": 217.39100000000326,
      "v": 127
    },
    {
      "midi": 48,
      "hit": false,
      "t": 50434.71200000014,
      "d": 434.78199999999924,
      "v": 127
    },
    {
      "midi": 60,
      "hit": false,
      "t": 50434.71200000014,
      "d": 434.78199999999924,
      "v": 127
    },
    {
      "midi": 72,
      "hit": false,
      "t": 50434.71200000022,
      "d": 434.78199999999924,
      "v": 127
    },
    {
      "midi": 84,
      "hit": false,
      "t": 50434.71200000022,
      "d": 434.78199999999924,
      "v": 127
    },
    {
      "midi": 43,
      "hit": false,
      "t": 50978.18950000014,
      "d": 108.69550000000163,
      "v": 127
    },
    {
      "midi": 55,
      "hit": false,
      "t": 50978.18950000022,
      "d": 108.69550000000163,
      "v": 127
    },
    {
      "midi": 45,
      "hit": false,
      "t": 51086.88500000014,
      "d": 108.69550000000163,
      "v": 127
    },
    {
      "midi": 57,
      "hit": false,
      "t": 51086.88500000022,
      "d": 108.69550000000163,
      "v": 127
    },
    {
      "midi": 47,
      "hit": false,
      "t": 51195.58050000014,
      "d": 108.69550000000163,
      "v": 127
    },
    {
      "midi": 59,
      "hit": false,
      "t": 51195.58050000022,
      "d": 108.69550000000163,
      "v": 127
    },
    {
      "midi": 48,
      "hit": false,
      "t": 51304.27600000014,
      "d": 108.69550000000163,
      "v": 127
    },
    {
      "midi": 60,
      "hit": false,
      "t": 51304.27600000022,
      "d": 108.69550000000163,
      "v": 127
    },
    {
      "midi": 43,
      "hit": false,
      "t": 51412.971500000145,
      "d": 108.69550000000163,
      "v": 127
    },
    {
      "midi": 55,
      "hit": false,
      "t": 51412.971500000225,
      "d": 108.69550000000163,
      "v": 127
    },
    {
      "midi": 45,
      "hit": false,
      "t": 51521.66700000015,
      "d": 108.69550000000163,
      "v": 127
    },
    {
      "midi": 57,
      "hit": false,
      "t": 51521.66700000023,
      "d": 108.69550000000163,
      "v": 127
    },
    {
      "midi": 47,
      "hit": false,
      "t": 51630.36250000015,
      "d": 108.69550000000163,
      "v": 127
    },
    {
      "midi": 59,
      "hit": false,
      "t": 51630.36250000023,
      "d": 108.69550000000163,
      "v": 127
    },
    {
      "midi": 48,
      "hit": false,
      "t": 51739.05800000015,
      "d": 108.69550000000163,
      "v": 127
    },
    {
      "midi": 60,
      "hit": false,
      "t": 51739.05800000023,
      "d": 108.69550000000163,
      "v": 127
    },
    {
      "midi": 50,
      "hit": false,
      "t": 51847.75350000015,
      "d": 108.69550000000163,
      "v": 127
    },
    {
      "midi": 62,
      "hit": false,
      "t": 51847.75350000023,
      "d": 108.69550000000163,
      "v": 127
    },
    {
      "midi": 52,
      "hit": false,
      "t": 51956.44900000015,
      "d": 108.69550000000163,
      "v": 127
    },
    {
      "midi": 64,
      "hit": false,
      "t": 51956.44900000023,
      "d": 108.69550000000163,
      "v": 127
    },
    {
      "midi": 53,
      "hit": false,
      "t": 52065.144500000155,
      "d": 108.69550000000163,
      "v": 127
    },
    {
      "midi": 65,
      "hit": false,
      "t": 52065.144500000235,
      "d": 108.69550000000163,
      "v": 127
    },
    {
      "midi": 48,
      "hit": false,
      "t": 52173.84000000016,
      "d": 217.39100000000326,
      "v": 127
    },
    {
      "midi": 52,
      "hit": false,
      "t": 52173.84000000016,
      "d": 217.39100000000326,
      "v": 127
    },
    {
      "midi": 55,
      "hit": false,
      "t": 52173.84000000016,
      "d": 217.39100000000326,
      "v": 127
    },
    {
      "midi": 67,
      "hit": false,
      "t": 52173.84000000024,
      "d": 108.69550000000163,
      "v": 127
    },
    {
      "midi": 64,
      "hit": false,
      "t": 52282.53550000024,
      "d": 108.69550000000163,
      "v": 127
    },
    {
      "midi": 48,
      "hit": false,
      "t": 52391.23100000016,
      "d": 217.39100000000326,
      "v": 127
    },
    {
      "midi": 52,
      "hit": false,
      "t": 52391.23100000016,
      "d": 217.39100000000326,
      "v": 127
    },
    {
      "midi": 55,
      "hit": false,
      "t": 52391.23100000016,
      "d": 217.39100000000326,
      "v": 127
    },
    {
      "midi": 60,
      "hit": false,
      "t": 52391.23100000024,
      "d": 108.69550000000163,
      "v": 127
    },
    {
      "midi": 67,
      "hit": false,
      "t": 52499.92650000024,
      "d": 108.69550000000163,
      "v": 127
    },
    {
      "midi": 48,
      "hit": false,
      "t": 52608.62200000016,
      "d": 217.39100000000326,
      "v": 127
    },
    {
      "midi": 52,
      "hit": false,
      "t": 52608.62200000016,
      "d": 217.39100000000326,
      "v": 127
    },
    {
      "midi": 55,
      "hit": false,
      "t": 52608.62200000016,
      "d": 217.39100000000326,
      "v": 127
    },
    {
      "midi": 72,
      "hit": false,
      "t": 52608.62200000024,
      "d": 108.69550000000163,
      "v": 127
    },
    {
      "midi": 67,
      "hit": false,
      "t": 52717.317500000245,
      "d": 108.69550000000163,
      "v": 127
    },
    {
      "midi": 48,
      "hit": false,
      "t": 52826.013000000166,
      "d": 217.39100000000326,
      "v": 127
    },
    {
      "midi": 52,
      "hit": false,
      "t": 52826.013000000166,
      "d": 217.39100000000326,
      "v": 127
    },
    {
      "midi": 55,
      "hit": false,
      "t": 52826.013000000166,
      "d": 217.39100000000326,
      "v": 127
    },
    {
      "midi": 64,
      "hit": false,
      "t": 52826.01300000025,
      "d": 108.69550000000163,
      "v": 127
    },
    {
      "midi": 72,
      "hit": false,
      "t": 52934.70850000025,
      "d": 108.69550000000163,
      "v": 127
    },
    {
      "midi": 48,
      "hit": false,
      "t": 53043.40400000017,
      "d": 217.39100000000326,
      "v": 127
    },
    {
      "midi": 52,
      "hit": false,
      "t": 53043.40400000017,
      "d": 217.39100000000326,
      "v": 127
    },
    {
      "midi": 55,
      "hit": false,
      "t": 53043.40400000017,
      "d": 217.39100000000326,
      "v": 127
    },
    {
      "midi": 60,
      "hit": false,
      "t": 53043.40400000017,
      "d": 217.39100000000326,
      "v": 127
    },
    {
      "midi": 76,
      "hit": false,
      "t": 53043.40400000025,
      "d": 108.69550000000163,
      "v": 127
    },
    {
      "midi": 72,
      "hit": false,
      "t": 53152.09950000025,
      "d": 108.69550000000163,
      "v": 127
    },
    {
      "midi": 48,
      "hit": false,
      "t": 53260.79500000017,
      "d": 217.39100000000326,
      "v": 127
    },
    {
      "midi": 52,
      "hit": false,
      "t": 53260.79500000017,
      "d": 217.39100000000326,
      "v": 127
    },
    {
      "midi": 55,
      "hit": false,
      "t": 53260.79500000017,
      "d": 217.39100000000326,
      "v": 127
    },
    {
      "midi": 60,
      "hit": false,
      "t": 53260.79500000017,
      "d": 217.39100000000326,
      "v": 127
    },
    {
      "midi": 67,
      "hit": false,
      "t": 53260.79500000025,
      "d": 108.69550000000163,
      "v": 127
    },
    {
      "midi": 76,
      "hit": false,
      "t": 53369.490500000255,
      "d": 108.69550000000163,
      "v": 127
    },
    {
      "midi": 48,
      "hit": false,
      "t": 53478.186000000176,
      "d": 217.39100000000326,
      "v": 127
    },
    {
      "midi": 52,
      "hit": false,
      "t": 53478.186000000176,
      "d": 217.39100000000326,
      "v": 127
    },
    {
      "midi": 55,
      "hit": false,
      "t": 53478.186000000176,
      "d": 217.39100000000326,
      "v": 127
    },
    {
      "midi": 60,
      "hit": false,
      "t": 53478.186000000176,
      "d": 217.39100000000326,
      "v": 127
    },
    {
      "midi": 79,
      "hit": false,
      "t": 53478.186000000256,
      "d": 108.69550000000163,
      "v": 127
    },
    {
      "midi": 76,
      "hit": false,
      "t": 53586.88150000026,
      "d": 108.69550000000163,
      "v": 127
    },
    {
      "midi": 48,
      "hit": false,
      "t": 53695.57700000018,
      "d": 217.39100000000326,
      "v": 127
    },
    {
      "midi": 52,
      "hit": false,
      "t": 53695.57700000018,
      "d": 217.39100000000326,
      "v": 127
    },
    {
      "midi": 55,
      "hit": false,
      "t": 53695.57700000018,
      "d": 217.39100000000326,
      "v": 127
    },
    {
      "midi": 60,
      "hit": false,
      "t": 53695.57700000018,
      "d": 217.39100000000326,
      "v": 127
    },
    {
      "midi": 72,
      "hit": false,
      "t": 53695.57700000026,
      "d": 108.69550000000163,
      "v": 127
    },
    {
      "midi": 79,
      "hit": false,
      "t": 53804.27250000026,
      "d": 108.69550000000163,
      "v": 127
    },
    {
      "midi": 53,
      "hit": false,
      "t": 53912.96800000018,
      "d": 434.78199999999924,
      "v": 127
    },
    {
      "midi": 57,
      "hit": false,
      "t": 53912.96800000018,
      "d": 434.78199999999924,
      "v": 127
    },
    {
      "midi": 60,
      "hit": false,
      "t": 53912.96800000018,
      "d": 434.78199999999924,
      "v": 127
    },
    {
      "midi": 69,
      "hit": false,
      "t": 53912.96800000026,
      "d": 434.78199999999924,
      "v": 127
    },
    {
      "midi": 72,
      "hit": false,
      "t": 53912.96800000026,
      "d": 434.78199999999924,
      "v": 127
    },
    {
      "midi": 77,
      "hit": false,
      "t": 53912.96800000026,
      "d": 434.78199999999924,
      "v": 127
    },
    {
      "midi": 81,
      "hit": false,
      "t": 53912.96800000026,
      "d": 434.78199999999924,
      "v": 127
    },
    {
      "midi": 48,
      "hit": false,
      "t": 54456.44550000018,
      "d": 108.69550000000163,
      "v": 127
    },
    {
      "midi": 60,
      "hit": false,
      "t": 54456.44550000026,
      "d": 108.69550000000163,
      "v": 127
    },
    {
      "midi": 50,
      "hit": false,
      "t": 54565.141000000185,
      "d": 108.69550000000163,
      "v": 127
    },
    {
      "midi": 62,
      "hit": false,
      "t": 54565.141000000265,
      "d": 108.69550000000163,
      "v": 127
    },
    {
      "midi": 52,
      "hit": false,
      "t": 54673.83650000019,
      "d": 108.69550000000163,
      "v": 127
    },
    {
      "midi": 64,
      "hit": false,
      "t": 54673.83650000027,
      "d": 108.69550000000163,
      "v": 127
    },
    {
      "midi": 53,
      "hit": false,
      "t": 54782.53200000019,
      "d": 108.69550000000163,
      "v": 127
    },
    {
      "midi": 65,
      "hit": false,
      "t": 54782.53200000027,
      "d": 108.69550000000163,
      "v": 127
    },
    {
      "midi": 48,
      "hit": false,
      "t": 54891.22750000019,
      "d": 108.69550000000163,
      "v": 127
    },
    {
      "midi": 60,
      "hit": false,
      "t": 54891.22750000027,
      "d": 108.69550000000163,
      "v": 127
    },
    {
      "midi": 50,
      "hit": false,
      "t": 54999.92300000019,
      "d": 108.69550000000163,
      "v": 127
    },
    {
      "midi": 62,
      "hit": false,
      "t": 54999.92300000027,
      "d": 108.69550000000163,
      "v": 127
    },
    {
      "midi": 52,
      "hit": false,
      "t": 55108.61850000019,
      "d": 108.69550000000163,
      "v": 127
    },
    {
      "midi": 64,
      "hit": false,
      "t": 55108.61850000027,
      "d": 108.69550000000163,
      "v": 127
    },
    {
      "midi": 53,
      "hit": false,
      "t": 55217.314000000195,
      "d": 108.69550000000163,
      "v": 127
    },
    {
      "midi": 65,
      "hit": false,
      "t": 55217.314000000275,
      "d": 108.69550000000163,
      "v": 127
    },
    {
      "midi": 55,
      "hit": false,
      "t": 55326.0095000002,
      "d": 108.69550000000163,
      "v": 127
    },
    {
      "midi": 67,
      "hit": false,
      "t": 55326.00950000028,
      "d": 108.69550000000163,
      "v": 127
    },
    {
      "midi": 57,
      "hit": false,
      "t": 55434.7050000002,
      "d": 108.69550000000163,
      "v": 127
    },
    {
      "midi": 69,
      "hit": false,
      "t": 55434.70500000028,
      "d": 108.69550000000163,
      "v": 127
    },
    {
      "midi": 58,
      "hit": false,
      "t": 55543.4005000002,
      "d": 108.69550000000163,
      "v": 127
    },
    {
      "midi": 70,
      "hit": false,
      "t": 55543.40050000028,
      "d": 108.69550000000163,
      "v": 127
    },
    {
      "midi": 53,
      "hit": false,
      "t": 55652.0960000002,
      "d": 217.39100000000326,
      "v": 127
    },
    {
      "midi": 57,
      "hit": false,
      "t": 55652.0960000002,
      "d": 217.39100000000326,
      "v": 127
    },
    {
      "midi": 60,
      "hit": false,
      "t": 55652.0960000002,
      "d": 217.39100000000326,
      "v": 127
    },
    {
      "midi": 72,
      "hit": false,
      "t": 55652.09600000028,
      "d": 108.69550000000163,
      "v": 127
    },
    {
      "midi": 69,
      "hit": false,
      "t": 55760.79150000028,
      "d": 108.69550000000163,
      "v": 127
    },
    {
      "midi": 53,
      "hit": false,
      "t": 55869.487000000205,
      "d": 217.39100000000326,
      "v": 127
    },
    {
      "midi": 57,
      "hit": false,
      "t": 55869.487000000205,
      "d": 217.39100000000326,
      "v": 127
    },
    {
      "midi": 60,
      "hit": false,
      "t": 55869.487000000205,
      "d": 217.39100000000326,
      "v": 127
    },
    {
      "midi": 65,
      "hit": false,
      "t": 55869.487000000285,
      "d": 108.69550000000163,
      "v": 127
    },
    {
      "midi": 72,
      "hit": false,
      "t": 55978.18250000029,
      "d": 108.69550000000163,
      "v": 127
    },
    {
      "midi": 53,
      "hit": false,
      "t": 56086.87800000021,
      "d": 217.39100000000326,
      "v": 127
    },
    {
      "midi": 57,
      "hit": false,
      "t": 56086.87800000021,
      "d": 217.39100000000326,
      "v": 127
    },
    {
      "midi": 60,
      "hit": false,
      "t": 56086.87800000021,
      "d": 217.39100000000326,
      "v": 127
    },
    {
      "midi": 77,
      "hit": false,
      "t": 56086.87800000029,
      "d": 108.69550000000163,
      "v": 127
    },
    {
      "midi": 72,
      "hit": false,
      "t": 56195.57350000029,
      "d": 108.69550000000163,
      "v": 127
    },
    {
      "midi": 53,
      "hit": false,
      "t": 56304.26900000021,
      "d": 217.39100000000326,
      "v": 127
    },
    {
      "midi": 57,
      "hit": false,
      "t": 56304.26900000021,
      "d": 217.39100000000326,
      "v": 127
    },
    {
      "midi": 60,
      "hit": false,
      "t": 56304.26900000021,
      "d": 217.39100000000326,
      "v": 127
    },
    {
      "midi": 69,
      "hit": false,
      "t": 56304.26900000029,
      "d": 108.69550000000163,
      "v": 127
    },
    {
      "midi": 77,
      "hit": false,
      "t": 56412.96450000029,
      "d": 108.69550000000163,
      "v": 127
    },
    {
      "midi": 53,
      "hit": false,
      "t": 56521.660000000214,
      "d": 217.39100000000326,
      "v": 127
    },
    {
      "midi": 57,
      "hit": false,
      "t": 56521.660000000214,
      "d": 217.39100000000326,
      "v": 127
    },
    {
      "midi": 60,
      "hit": false,
      "t": 56521.660000000214,
      "d": 217.39100000000326,
      "v": 127
    },
    {
      "midi": 65,
      "hit": false,
      "t": 56521.660000000214,
      "d": 217.39100000000326,
      "v": 127
    },
    {
      "midi": 81,
      "hit": false,
      "t": 56521.660000000295,
      "d": 108.69550000000163,
      "v": 127
    },
    {
      "midi": 77,
      "hit": false,
      "t": 56630.355500000296,
      "d": 108.69550000000163,
      "v": 127
    },
    {
      "midi": 53,
      "hit": false,
      "t": 56739.05100000022,
      "d": 217.39100000000326,
      "v": 127
    },
    {
      "midi": 57,
      "hit": false,
      "t": 56739.05100000022,
      "d": 217.39100000000326,
      "v": 127
    },
    {
      "midi": 60,
      "hit": false,
      "t": 56739.05100000022,
      "d": 217.39100000000326,
      "v": 127
    },
    {
      "midi": 65,
      "hit": false,
      "t": 56739.05100000022,
      "d": 217.39100000000326,
      "v": 127
    },
    {
      "midi": 72,
      "hit": false,
      "t": 56739.0510000003,
      "d": 108.69550000000163,
      "v": 127
    },
    {
      "midi": 81,
      "hit": false,
      "t": 56847.7465000003,
      "d": 108.69550000000163,
      "v": 127
    },
    {
      "midi": 55,
      "hit": false,
      "t": 56956.44200000022,
      "d": 217.39100000000326,
      "v": 127
    },
    {
      "midi": 59,
      "hit": false,
      "t": 56956.44200000022,
      "d": 217.39100000000326,
      "v": 127
    },
    {
      "midi": 62,
      "hit": false,
      "t": 56956.44200000022,
      "d": 217.39100000000326,
      "v": 127
    },
    {
      "midi": 77,
      "hit": false,
      "t": 56956.4420000003,
      "d": 108.69550000000163,
      "v": 127
    },
    {
      "midi": 89,
      "hit": false,
      "t": 57065.1375000003,
      "d": 108.69550000000163,
      "v": 127
    },
    {
      "midi": 55,
      "hit": false,
      "t": 57173.833000000224,
      "d": 217.39100000000326,
      "v": 127
    },
    {
      "midi": 59,
      "hit": false,
      "t": 57173.833000000224,
      "d": 217.39100000000326,
      "v": 127
    },
    {
      "midi": 62,
      "hit": false,
      "t": 57173.833000000224,
      "d": 217.39100000000326,
      "v": 127
    },
    {
      "midi": 86,
      "hit": false,
      "t": 57173.833000000304,
      "d": 108.69550000000163,
      "v": 127
    },
    {
      "midi": 83,
      "hit": false,
      "t": 57282.528500000306,
      "d": 108.69550000000163,
      "v": 127
    },
    {
      "midi": 48,
      "hit": false,
      "t": 57391.22400000023,
      "d": 434.78199999999924,
      "v": 127
    },
    {
      "midi": 60,
      "hit": false,
      "t": 57391.22400000023,
      "d": 434.78199999999924,
      "v": 127
    },
    {
      "midi": 84,
      "hit": false,
      "t": 57391.22400000031,
      "d": 434.78199999999924,
      "v": 127
    },
    {
      "midi": 60,
      "hit": false,
      "t": 58260.788000000226,
      "d": 144.92733333333308,
      "v": 127
    },
    {
      "midi": 76,
      "hit": false,
      "t": 58260.788000000306,
      "d": 217.39100000000326,
      "v": 127
    },
    {
      "midi": 64,
      "hit": false,
      "t": 58405.71533333356,
      "d": 144.92733333333308,
      "v": 127
    },
    {
      "midi": 77,
      "hit": false,
      "t": 58478.17900000031,
      "d": 108.69550000000163,
      "v": 127
    },
    {
      "midi": 67,
      "hit": false,
      "t": 58550.64266666689,
      "d": 144.92733333333308,
      "v": 127
    },
    {
      "midi": 76,
      "hit": false,
      "t": 58586.87450000031,
      "d": 108.69550000000163,
      "v": 127
    },
    {
      "midi": 59,
      "hit": false,
      "t": 58695.570000000225,
      "d": 144.92733333333308,
      "v": 127
    },
    {
      "midi": 79,
      "hit": false,
      "t": 58695.57000000031,
      "d": 217.39100000000326,
      "v": 127
    },
    {
      "midi": 62,
      "hit": false,
      "t": 58840.49733333356,
      "d": 144.92733333333308,
      "v": 127
    },
    {
      "midi": 81,
      "hit": false,
      "t": 58912.961000000316,
      "d": 108.69550000000163,
      "v": 127
    },
    {
      "midi": 67,
      "hit": false,
      "t": 58985.42466666689,
      "d": 144.92733333333308,
      "v": 127
    },
    {
      "midi": 79,
      "hit": false,
      "t": 59021.65650000032,
      "d": 108.69550000000163,
      "v": 127
    },
    {
      "midi": 60,
      "hit": false,
      "t": 59130.352000000225,
      "d": 144.92733333333308,
      "v": 127
    },
    {
      "midi": 76,
      "hit": false,
      "t": 59130.35200000032,
      "d": 217.39100000000326,
      "v": 127
    },
    {
      "midi": 64,
      "hit": false,
      "t": 59275.27933333356,
      "d": 144.92733333333308,
      "v": 127
    },
    {
      "midi": 77,
      "hit": false,
      "t": 59347.74300000032,
      "d": 108.69550000000163,
      "v": 127
    },
    {
      "midi": 67,
      "hit": false,
      "t": 59420.20666666689,
      "d": 144.92733333333308,
      "v": 127
    },
    {
      "midi": 76,
      "hit": false,
      "t": 59456.438500000324,
      "d": 108.69550000000163,
      "v": 127
    },
    {
      "midi": 59,
      "hit": false,
      "t": 59565.134000000224,
      "d": 144.92733333333308,
      "v": 127
    },
    {
      "midi": 79,
      "hit": false,
      "t": 59565.134000000326,
      "d": 217.39100000000326,
      "v": 127
    },
    {
      "midi": 62,
      "hit": false,
      "t": 59710.06133333356,
      "d": 144.92733333333308,
      "v": 127
    },
    {
      "midi": 81,
      "hit": false,
      "t": 59782.52500000033,
      "d": 108.69550000000163,
      "v": 127
    },
    {
      "midi": 67,
      "hit": false,
      "t": 59854.98866666689,
      "d": 144.92733333333308,
      "v": 127
    },
    {
      "midi": 79,
      "hit": false,
      "t": 59891.22050000033,
      "d": 108.69550000000163,
      "v": 127
    },
    {
      "midi": 57,
      "hit": false,
      "t": 59999.91600000022,
      "d": 144.92733333333308,
      "v": 127
    },
    {
      "midi": 72,
      "hit": false,
      "t": 59999.91600000033,
      "d": 217.39100000000326,
      "v": 127
    },
    {
      "midi": 60,
      "hit": false,
      "t": 60144.843333333556,
      "d": 144.92733333333308,
      "v": 127
    },
    {
      "midi": 74,
      "hit": false,
      "t": 60217.307000000335,
      "d": 108.69550000000163,
      "v": 127
    },
    {
      "midi": 64,
      "hit": false,
      "t": 60289.77066666689,
      "d": 144.92733333333308,
      "v": 127
    },
    {
      "midi": 72,
      "hit": false,
      "t": 60326.00250000034,
      "d": 108.69550000000163,
      "v": 127
    },
    {
      "midi": 56,
      "hit": false,
      "t": 60434.69800000022,
      "d": 144.92733333333308,
      "v": 127
    },
    {
      "midi": 76,
      "hit": false,
      "t": 60434.69800000034,
      "d": 217.39100000000326,
      "v": 127
    },
    {
      "midi": 59,
      "hit": false,
      "t": 60579.625333333555,
      "d": 144.92733333333308,
      "v": 127
    },
    {
      "midi": 77,
      "hit": false,
      "t": 60652.08900000034,
      "d": 108.69550000000163,
      "v": 127
    },
    {
      "midi": 64,
      "hit": false,
      "t": 60724.55266666689,
      "d": 144.92733333333308,
      "v": 127
    },
    {
      "midi": 76,
      "hit": false,
      "t": 60760.78450000034,
      "d": 108.69550000000163,
      "v": 127
    },
    {
      "midi": 57,
      "hit": false,
      "t": 60869.48000000022,
      "d": 144.92733333333308,
      "v": 127
    },
    {
      "midi": 72,
      "hit": false,
      "t": 60869.480000000345,
      "d": 217.39100000000326,
      "v": 127
    },
    {
      "midi": 60,
      "hit": false,
      "t": 61014.407333333555,
      "d": 144.92733333333308,
      "v": 127
    },
    {
      "midi": 74,
      "hit": false,
      "t": 61086.87100000035,
      "d": 108.69550000000163,
      "v": 127
    },
    {
      "midi": 64,
      "hit": false,
      "t": 61159.33466666689,
      "d": 144.92733333333308,
      "v": 127
    },
    {
      "midi": 72,
      "hit": false,
      "t": 61195.56650000035,
      "d": 108.69550000000163,
      "v": 127
    },
    {
      "midi": 56,
      "hit": false,
      "t": 61304.26200000022,
      "d": 144.92733333333308,
      "v": 127
    },
    {
      "midi": 76,
      "hit": false,
      "t": 61304.26200000035,
      "d": 217.39100000000326,
      "v": 127
    },
    {
      "midi": 59,
      "hit": false,
      "t": 61449.189333333554,
      "d": 144.92733333333308,
      "v": 127
    },
    {
      "midi": 77,
      "hit": false,
      "t": 61521.653000000355,
      "d": 108.69550000000163,
      "v": 127
    },
    {
      "midi": 64,
      "hit": false,
      "t": 61594.11666666689,
      "d": 144.92733333333308,
      "v": 127
    },
    {
      "midi": 76,
      "hit": false,
      "t": 61630.34850000036,
      "d": 108.69550000000163,
      "v": 127
    },
    {
      "midi": 57,
      "hit": false,
      "t": 61739.04400000022,
      "d": 144.92733333333308,
      "v": 127
    },
    {
      "midi": 72,
      "hit": false,
      "t": 61739.04400000036,
      "d": 217.39100000000326,
      "v": 127
    },
    {
      "midi": 60,
      "hit": false,
      "t": 61883.97133333355,
      "d": 144.92733333333308,
      "v": 127
    },
    {
      "midi": 74,
      "hit": false,
      "t": 61956.43500000036,
      "d": 108.69550000000163,
      "v": 127
    },
    {
      "midi": 64,
      "hit": false,
      "t": 62028.898666666886,
      "d": 144.92733333333308,
      "v": 127
    },
    {
      "midi": 72,
      "hit": false,
      "t": 62065.13050000036,
      "d": 108.69550000000163,
      "v": 127
    },
    {
      "midi": 54,
      "hit": false,
      "t": 62173.82600000022,
      "d": 144.92733333333308,
      "v": 127
    },
    {
      "midi": 74,
      "hit": false,
      "t": 62173.826000000365,
      "d": 217.39100000000326,
      "v": 127
    },
    {
      "midi": 57,
      "hit": false,
      "t": 62318.75333333355,
      "d": 144.92733333333308,
      "v": 127
    },
    {
      "midi": 76,
      "hit": false,
      "t": 62391.21700000037,
      "d": 108.69550000000163,
      "v": 127
    },
    {
      "midi": 62,
      "hit": false,
      "t": 62463.680666666885,
      "d": 144.92733333333308,
      "v": 127
    },
    {
      "midi": 74,
      "hit": false,
      "t": 62499.91250000037,
      "d": 108.69550000000163,
      "v": 127
    },
    {
      "midi": 55,
      "hit": false,
      "t": 62608.60800000022,
      "d": 108.69550000000163,
      "v": 127
    },
    {
      "midi": 71,
      "hit": false,
      "t": 62608.60800000037,
      "d": 217.39100000000326,
      "v": 127
    },
    {
      "midi": 59,
      "hit": false,
      "t": 62717.30350000022,
      "d": 108.69550000000163,
      "v": 127
    },
    {
      "midi": 62,
      "hit": false,
      "t": 62825.99900000022,
      "d": 108.69550000000163,
      "v": 127
    },
    {
      "midi": 72,
      "hit": false,
      "t": 62825.999000000375,
      "d": 108.69550000000163,
      "v": 127
    },
    {
      "midi": 59,
      "hit": false,
      "t": 62934.69450000022,
      "d": 108.69550000000163,
      "v": 127
    },
    {
      "midi": 71,
      "hit": false,
      "t": 62934.694500000376,
      "d": 108.69550000000163,
      "v": 127
    },
    {
      "midi": 54,
      "hit": false,
      "t": 63043.390000000225,
      "d": 108.69550000000163,
      "v": 127
    },
    {
      "midi": 74,
      "hit": false,
      "t": 63043.39000000038,
      "d": 217.39100000000326,
      "v": 127
    },
    {
      "midi": 57,
      "hit": false,
      "t": 63152.08550000023,
      "d": 108.69550000000163,
      "v": 127
    },
    {
      "midi": 62,
      "hit": false,
      "t": 63260.78100000023,
      "d": 108.69550000000163,
      "v": 127
    },
    {
      "midi": 76,
      "hit": false,
      "t": 63260.78100000038,
      "d": 108.69550000000163,
      "v": 127
    },
    {
      "midi": 57,
      "hit": false,
      "t": 63369.47650000023,
      "d": 108.69550000000163,
      "v": 127
    },
    {
      "midi": 74,
      "hit": false,
      "t": 63369.47650000038,
      "d": 108.69550000000163,
      "v": 127
    },
    {
      "midi": 52,
      "hit": false,
      "t": 63478.17200000023,
      "d": 108.69550000000163,
      "v": 127
    },
    {
      "midi": 67,
      "hit": false,
      "t": 63478.172000000384,
      "d": 217.39100000000326,
      "v": 127
    },
    {
      "midi": 55,
      "hit": false,
      "t": 63586.86750000023,
      "d": 108.69550000000163,
      "v": 127
    },
    {
      "midi": 59,
      "hit": false,
      "t": 63695.563000000235,
      "d": 108.69550000000163,
      "v": 127
    },
    {
      "midi": 69,
      "hit": false,
      "t": 63695.56300000039,
      "d": 108.69550000000163,
      "v": 127
    },
    {
      "midi": 55,
      "hit": false,
      "t": 63804.25850000024,
      "d": 108.69550000000163,
      "v": 127
    },
    {
      "midi": 67,
      "hit": false,
      "t": 63804.25850000039,
      "d": 108.69550000000163,
      "v": 127
    },
    {
      "midi": 50,
      "hit": false,
      "t": 63912.95400000024,
      "d": 108.69550000000163,
      "v": 127
    },
    {
      "midi": 71,
      "hit": false,
      "t": 63912.95400000039,
      "d": 434.78199999999924,
      "v": 127
    },
    {
      "midi": 54,
      "hit": false,
      "t": 64021.64950000024,
      "d": 108.69550000000163,
      "v": 127
    },
    {
      "midi": 59,
      "hit": false,
      "t": 64130.34500000024,
      "d": 108.69550000000163,
      "v": 127
    },
    {
      "midi": 54,
      "hit": false,
      "t": 64239.04050000024,
      "d": 108.69550000000163,
      "v": 127
    },
    {
      "midi": 48,
      "hit": false,
      "t": 64347.736000000245,
      "d": 108.69550000000163,
      "v": 127
    },
    {
      "midi": 64,
      "hit": false,
      "t": 64347.73600000039,
      "d": 217.39100000000326,
      "v": 127
    },
    {
      "midi": 52,
      "hit": false,
      "t": 64456.431500000246,
      "d": 108.69550000000163,
      "v": 127
    },
    {
      "midi": 55,
      "hit": false,
      "t": 64565.12700000025,
      "d": 108.69550000000163,
      "v": 127
    },
    {
      "midi": 66,
      "hit": false,
      "t": 64565.12700000039,
      "d": 108.69550000000163,
      "v": 127
    },
    {
      "midi": 52,
      "hit": false,
      "t": 64673.82250000025,
      "d": 108.69550000000163,
      "v": 127
    },
    {
      "midi": 64,
      "hit": false,
      "t": 64673.822500000395,
      "d": 108.69550000000163,
      "v": 127
    },
    {
      "midi": 47,
      "hit": false,
      "t": 64782.51800000025,
      "d": 108.69550000000163,
      "v": 127
    },
    {
      "midi": 67,
      "hit": false,
      "t": 64782.5180000004,
      "d": 217.39100000000326,
      "v": 127
    },
    {
      "midi": 50,
      "hit": false,
      "t": 64891.21350000025,
      "d": 108.69550000000163,
      "v": 127
    },
    {
      "midi": 55,
      "hit": false,
      "t": 64999.909000000254,
      "d": 108.69550000000163,
      "v": 127
    },
    {
      "midi": 69,
      "hit": false,
      "t": 64999.9090000004,
      "d": 108.69550000000163,
      "v": 127
    },
    {
      "midi": 50,
      "hit": false,
      "t": 65108.604500000256,
      "d": 108.69550000000163,
      "v": 127
    },
    {
      "midi": 67,
      "hit": false,
      "t": 65108.6045000004,
      "d": 108.69550000000163,
      "v": 127
    },
    {
      "midi": 45,
      "hit": false,
      "t": 65217.30000000026,
      "d": 108.69550000000163,
      "v": 127
    },
    {
      "midi": 69,
      "hit": false,
      "t": 65217.3000000004,
      "d": 217.39100000000326,
      "v": 127
    },
    {
      "midi": 50,
      "hit": false,
      "t": 65325.99550000026,
      "d": 108.69550000000163,
      "v": 127
    },
    {
      "midi": 54,
      "hit": false,
      "t": 65434.69100000026,
      "d": 108.69549999999435,
      "v": 127
    },
    {
      "midi": 71,
      "hit": false,
      "t": 65434.691000000406,
      "d": 108.69549999999435,
      "v": 127
    },
    {
      "midi": 50,
      "hit": false,
      "t": 65543.38650000026,
      "d": 108.69550000000163,
      "v": 127
    },
    {
      "midi": 69,
      "hit": false,
      "t": 65543.3865000004,
      "d": 108.69550000000163,
      "v": 127
    },
    {
      "midi": 43,
      "hit": false,
      "t": 65652.08200000026,
      "d": 108.69550000000163,
      "v": 127
    },
    {
      "midi": 71,
      "hit": false,
      "t": 65652.0820000004,
      "d": 434.7820000000065,
      "v": 127
    },
    {
      "midi": 50,
      "hit": false,
      "t": 65760.77750000026,
      "d": 108.69550000000163,
      "v": 127
    },
    {
      "midi": 55,
      "hit": false,
      "t": 65869.47300000026,
      "d": 108.69550000000163,
      "v": 127
    },
    {
      "midi": 50,
      "hit": false,
      "t": 65978.16850000026,
      "d": 108.69550000000163,
      "v": 127
    },
    {
      "midi": 55,
      "hit": false,
      "t": 66086.86400000026,
      "d": 108.69550000000163,
      "v": 127
    },
    {
      "midi": 71,
      "hit": false,
      "t": 66086.86400000041,
      "d": 217.39100000000326,
      "v": 127
    },
    {
      "midi": 59,
      "hit": false,
      "t": 66195.55950000026,
      "d": 108.69550000000163,
      "v": 127
    },
    {
      "midi": 62,
      "hit": false,
      "t": 66304.25500000027,
      "d": 108.69550000000163,
      "v": 127
    },
    {
      "midi": 72,
      "hit": false,
      "t": 66304.25500000041,
      "d": 108.69550000000163,
      "v": 127
    },
    {
      "midi": 59,
      "hit": false,
      "t": 66412.95050000027,
      "d": 108.69550000000163,
      "v": 127
    },
    {
      "midi": 71,
      "hit": false,
      "t": 66412.95050000041,
      "d": 108.69550000000163,
      "v": 127
    },
    {
      "midi": 54,
      "hit": false,
      "t": 66521.64600000027,
      "d": 108.69550000000163,
      "v": 127
    },
    {
      "midi": 74,
      "hit": false,
      "t": 66521.64600000042,
      "d": 217.39100000000326,
      "v": 127
    },
    {
      "midi": 57,
      "hit": false,
      "t": 66630.34150000027,
      "d": 108.69550000000163,
      "v": 127
    },
    {
      "midi": 62,
      "hit": false,
      "t": 66739.03700000027,
      "d": 108.69550000000163,
      "v": 127
    },
    {
      "midi": 76,
      "hit": false,
      "t": 66739.03700000042,
      "d": 108.69550000000163,
      "v": 127
    },
    {
      "midi": 57,
      "hit": false,
      "t": 66847.73250000027,
      "d": 108.69550000000163,
      "v": 127
    },
    {
      "midi": 74,
      "hit": false,
      "t": 66847.73250000042,
      "d": 108.69550000000163,
      "v": 127
    },
    {
      "midi": 52,
      "hit": false,
      "t": 66956.42800000028,
      "d": 108.69550000000163,
      "v": 127
    },
    {
      "midi": 79,
      "hit": false,
      "t": 66956.42800000042,
      "d": 217.39100000000326,
      "v": 127
    },
    {
      "midi": 57,
      "hit": false,
      "t": 67065.12350000028,
      "d": 108.69550000000163,
      "v": 127
    },
    {
      "midi": 61,
      "hit": false,
      "t": 67173.81900000028,
      "d": 108.69550000000163,
      "v": 127
    },
    {
      "midi": 81,
      "hit": false,
      "t": 67173.81900000043,
      "d": 108.69550000000163,
      "v": 127
    },
    {
      "midi": 57,
      "hit": false,
      "t": 67282.51450000028,
      "d": 108.69550000000163,
      "v": 127
    },
    {
      "midi": 79,
      "hit": false,
      "t": 67282.51450000043,
      "d": 108.69550000000163,
      "v": 127
    },
    {
      "midi": 50,
      "hit": false,
      "t": 67391.21000000028,
      "d": 108.69550000000163,
      "v": 127
    },
    {
      "midi": 78,
      "hit": false,
      "t": 67391.21000000043,
      "d": 434.7820000000065,
      "v": 127
    },
    {
      "midi": 57,
      "hit": false,
      "t": 67499.90550000028,
      "d": 108.69550000000163,
      "v": 127
    },
    {
      "midi": 62,
      "hit": false,
      "t": 67608.60100000029,
      "d": 108.69550000000163,
      "v": 127
    },
    {
      "midi": 57,
      "hit": false,
      "t": 67717.29650000029,
      "d": 108.69550000000163,
      "v": 127
    },
    {
      "midi": 55,
      "hit": false,
      "t": 67825.99200000029,
      "d": 108.69550000000163,
      "v": 127
    },
    {
      "midi": 76,
      "hit": false,
      "t": 67825.99200000043,
      "d": 217.39100000000326,
      "v": 127
    },
    {
      "midi": 59,
      "hit": false,
      "t": 67934.68750000029,
      "d": 108.69550000000163,
      "v": 127
    },
    {
      "midi": 64,
      "hit": false,
      "t": 68043.38300000029,
      "d": 108.69550000000163,
      "v": 127
    },
    {
      "midi": 78,
      "hit": false,
      "t": 68043.38300000044,
      "d": 108.69550000000163,
      "v": 127
    },
    {
      "midi": 59,
      "hit": false,
      "t": 68152.0785000003,
      "d": 108.69550000000163,
      "v": 127
    },
    {
      "midi": 76,
      "hit": false,
      "t": 68152.07850000044,
      "d": 108.69550000000163,
      "v": 127
    },
    {
      "midi": 57,
      "hit": false,
      "t": 68260.7740000003,
      "d": 108.69550000000163,
      "v": 127
    },
    {
      "midi": 73,
      "hit": false,
      "t": 68260.77400000044,
      "d": 217.39100000000326,
      "v": 127
    },
    {
      "midi": 74,
      "hit": false,
      "t": 68260.77400000044,
      "d": 217.39100000000326,
      "v": 127
    },
    {
      "midi": 64,
      "hit": false,
      "t": 68369.4695000003,
      "d": 108.69550000000163,
      "v": 127
    },
    {
      "midi": 67,
      "hit": false,
      "t": 68478.1650000003,
      "d": 108.69550000000163,
      "v": 127
    },
    {
      "midi": 71,
      "hit": false,
      "t": 68478.16500000044,
      "d": 108.69550000000163,
      "v": 127
    },
    {
      "midi": 64,
      "hit": false,
      "t": 68586.8605000003,
      "d": 108.69550000000163,
      "v": 127
    },
    {
      "midi": 73,
      "hit": false,
      "t": 68586.86050000045,
      "d": 108.69550000000163,
      "v": 127
    },
    {
      "midi": 50,
      "hit": false,
      "t": 68695.5560000003,
      "d": 108.69550000000163,
      "v": 127
    },
    {
      "midi": 74,
      "hit": false,
      "t": 68695.55600000045,
      "d": 434.7820000000065,
      "v": 127
    },
    {
      "midi": 54,
      "hit": false,
      "t": 68804.2515000003,
      "d": 108.69550000000163,
      "v": 127
    },
    {
      "midi": 57,
      "hit": false,
      "t": 68912.9470000003,
      "d": 108.69550000000163,
      "v": 127
    },
    {
      "midi": 62,
      "hit": false,
      "t": 69021.64250000031,
      "d": 108.69550000000163,
      "v": 127
    },
    {
      "midi": 61,
      "hit": false,
      "t": 69130.33800000031,
      "d": 108.69550000000163,
      "v": 127
    },
    {
      "midi": 62,
      "hit": false,
      "t": 69239.03350000031,
      "d": 108.69550000000163,
      "v": 127
    },
    {
      "midi": 60,
      "hit": false,
      "t": 69347.72900000031,
      "d": 108.69550000000163,
      "v": 127
    },
    {
      "midi": 57,
      "hit": false,
      "t": 69456.42450000031,
      "d": 108.69550000000163,
      "v": 127
    },
    {
      "midi": 55,
      "hit": false,
      "t": 69565.12000000032,
      "d": 108.69550000000163,
      "v": 127
    },
    {
      "midi": 62,
      "hit": false,
      "t": 69673.81550000032,
      "d": 108.69550000000163,
      "v": 127
    },
    {
      "midi": 71,
      "hit": false,
      "t": 69710.04733333379,
      "d": 144.92733333334036,
      "v": 127
    },
    {
      "midi": 59,
      "hit": false,
      "t": 69782.51100000032,
      "d": 108.69550000000163,
      "v": 127
    },
    {
      "midi": 83,
      "hit": false,
      "t": 69854.97466666713,
      "d": 144.92733333334036,
      "v": 127
    },
    {
      "midi": 62,
      "hit": false,
      "t": 69891.20650000032,
      "d": 108.69550000000163,
      "v": 127
    },
    {
      "midi": 54,
      "hit": false,
      "t": 69999.90200000032,
      "d": 108.69550000000163,
      "v": 127
    },
    {
      "midi": 62,
      "hit": false,
      "t": 70108.59750000032,
      "d": 108.69550000000163,
      "v": 127
    },
    {
      "midi": 74,
      "hit": false,
      "t": 70144.82933333381,
      "d": 144.92733333334036,
      "v": 127
    },
    {
      "midi": 57,
      "hit": false,
      "t": 70217.29300000033,
      "d": 108.69550000000163,
      "v": 127
    },
    {
      "midi": 86,
      "hit": false,
      "t": 70289.75666666715,
      "d": 144.92733333334036,
      "v": 127
    },
    {
      "midi": 62,
      "hit": false,
      "t": 70325.98850000033,
      "d": 108.69550000000163,
      "v": 127
    },
    {
      "midi": 52,
      "hit": false,
      "t": 70434.68400000033,
      "d": 108.69550000000163,
      "v": 127
    },
    {
      "midi": 59,
      "hit": false,
      "t": 70543.37950000033,
      "d": 108.69550000000163,
      "v": 127
    },
    {
      "midi": 67,
      "hit": false,
      "t": 70579.61133333383,
      "d": 144.92733333334036,
      "v": 127
    },
    {
      "midi": 55,
      "hit": false,
      "t": 70652.07500000033,
      "d": 108.69550000000163,
      "v": 127
    },
    {
      "midi": 79,
      "hit": false,
      "t": 70724.53866666717,
      "d": 144.92733333334036,
      "v": 127
    },
    {
      "midi": 59,
      "hit": false,
      "t": 70760.77050000033,
      "d": 108.69550000000163,
      "v": 127
    },
    {
      "midi": 50,
      "hit": false,
      "t": 70869.46600000034,
      "d": 108.69550000000163,
      "v": 127
    },
    {
      "midi": 59,
      "hit": false,
      "t": 70978.16150000034,
      "d": 108.69550000000163,
      "v": 127
    },
    {
      "midi": 71,
      "hit": false,
      "t": 71014.39333333385,
      "d": 144.92733333334036,
      "v": 127
    },
    {
      "midi": 54,
      "hit": false,
      "t": 71086.85700000034,
      "d": 108.69550000000163,
      "v": 127
    },
    {
      "midi": 83,
      "hit": false,
      "t": 71159.32066666719,
      "d": 144.92733333334036,
      "v": 127
    },
    {
      "midi": 59,
      "hit": false,
      "t": 71195.55250000034,
      "d": 108.69550000000163,
      "v": 127
    },
    {
      "midi": 48,
      "hit": false,
      "t": 71304.24800000034,
      "d": 108.69550000000163,
      "v": 127
    },
    {
      "midi": 55,
      "hit": false,
      "t": 71412.94350000034,
      "d": 108.69550000000163,
      "v": 127
    },
    {
      "midi": 64,
      "hit": false,
      "t": 71449.17533333387,
      "d": 144.92733333334036,
      "v": 127
    },
    {
      "midi": 52,
      "hit": false,
      "t": 71521.63900000034,
      "d": 108.69550000000163,
      "v": 127
    },
    {
      "midi": 76,
      "hit": false,
      "t": 71594.10266666721,
      "d": 144.92733333334036,
      "v": 127
    },
    {
      "midi": 55,
      "hit": false,
      "t": 71630.33450000035,
      "d": 108.69550000000163,
      "v": 127
    },
    {
      "midi": 47,
      "hit": false,
      "t": 71739.03000000035,
      "d": 108.69550000000163,
      "v": 127
    },
    {
      "midi": 55,
      "hit": false,
      "t": 71847.72550000035,
      "d": 108.69550000000163,
      "v": 127
    },
    {
      "midi": 67,
      "hit": false,
      "t": 71883.95733333389,
      "d": 144.92733333334036,
      "v": 127
    },
    {
      "midi": 50,
      "hit": false,
      "t": 71956.42100000035,
      "d": 108.69550000000163,
      "v": 127
    },
    {
      "midi": 79,
      "hit": false,
      "t": 72028.88466666723,
      "d": 144.92733333334036,
      "v": 127
    },
    {
      "midi": 55,
      "hit": false,
      "t": 72065.11650000035,
      "d": 108.69550000000163,
      "v": 127
    },
    {
      "midi": 45,
      "hit": false,
      "t": 72173.81200000035,
      "d": 108.69550000000163,
      "v": 127
    },
    {
      "midi": 54,
      "hit": false,
      "t": 72282.50750000036,
      "d": 108.69550000000163,
      "v": 127
    },
    {
      "midi": 69,
      "hit": false,
      "t": 72318.73933333391,
      "d": 144.92733333334036,
      "v": 127
    },
    {
      "midi": 50,
      "hit": false,
      "t": 72391.20300000036,
      "d": 108.69550000000163,
      "v": 127
    },
    {
      "midi": 81,
      "hit": false,
      "t": 72463.66666666725,
      "d": 144.92733333334036,
      "v": 127
    },
    {
      "midi": 54,
      "hit": false,
      "t": 72499.89850000036,
      "d": 108.69550000000163,
      "v": 127
    },
    {
      "midi": 43,
      "hit": false,
      "t": 72608.59400000036,
      "d": 108.69550000000163,
      "v": 127
    },
    {
      "midi": 55,
      "hit": false,
      "t": 72717.28950000036,
      "d": 108.69550000000163,
      "v": 127
    },
    {
      "midi": 71,
      "hit": false,
      "t": 72753.52133333393,
      "d": 144.92733333334036,
      "v": 127
    },
    {
      "midi": 50,
      "hit": false,
      "t": 72825.98500000036,
      "d": 108.69550000000163,
      "v": 127
    },
    {
      "midi": 83,
      "hit": false,
      "t": 72898.44866666727,
      "d": 144.92733333334036,
      "v": 127
    },
    {
      "midi": 55,
      "hit": false,
      "t": 72934.68050000037,
      "d": 108.69550000000163,
      "v": 127
    },
    {
      "midi": 55,
      "hit": false,
      "t": 73043.37600000037,
      "d": 108.69550000000163,
      "v": 127
    },
    {
      "midi": 62,
      "hit": false,
      "t": 73152.07150000037,
      "d": 108.69550000000163,
      "v": 127
    },
    {
      "midi": 71,
      "hit": false,
      "t": 73188.30333333396,
      "d": 144.92733333334036,
      "v": 127
    },
    {
      "midi": 59,
      "hit": false,
      "t": 73260.76700000037,
      "d": 108.69550000000163,
      "v": 127
    },
    {
      "midi": 83,
      "hit": false,
      "t": 73333.2306666673,
      "d": 144.92733333334036,
      "v": 127
    },
    {
      "midi": 62,
      "hit": false,
      "t": 73369.46250000037,
      "d": 108.69550000000163,
      "v": 127
    },
    {
      "midi": 54,
      "hit": false,
      "t": 73478.15800000037,
      "d": 108.69550000000163,
      "v": 127
    },
    {
      "midi": 62,
      "hit": false,
      "t": 73586.85350000038,
      "d": 108.69550000000163,
      "v": 127
    },
    {
      "midi": 74,
      "hit": false,
      "t": 73623.08533333398,
      "d": 144.92733333334036,
      "v": 127
    },
    {
      "midi": 57,
      "hit": false,
      "t": 73695.54900000038,
      "d": 108.69550000000163,
      "v": 127
    },
    {
      "midi": 86,
      "hit": false,
      "t": 73768.01266666732,
      "d": 144.92733333334036,
      "v": 127
    },
    {
      "midi": 62,
      "hit": false,
      "t": 73804.24450000038,
      "d": 108.69550000000163,
      "v": 127
    },
    {
      "midi": 52,
      "hit": false,
      "t": 73912.94000000038,
      "d": 108.69550000000163,
      "v": 127
    },
    {
      "midi": 61,
      "hit": false,
      "t": 74021.63550000038,
      "d": 108.69550000000163,
      "v": 127
    },
    {
      "midi": 79,
      "hit": false,
      "t": 74057.867333334,
      "d": 144.92733333334036,
      "v": 127
    },
    {
      "midi": 57,
      "hit": false,
      "t": 74130.33100000038,
      "d": 108.69550000000163,
      "v": 127
    },
    {
      "midi": 91,
      "hit": false,
      "t": 74202.79466666734,
      "d": 144.92733333334036,
      "v": 127
    },
    {
      "midi": 61,
      "hit": false,
      "t": 74239.02650000039,
      "d": 108.69550000000163,
      "v": 127
    },
    {
      "midi": 50,
      "hit": false,
      "t": 74347.72200000039,
      "d": 108.69550000000163,
      "v": 127
    },
    {
      "midi": 62,
      "hit": false,
      "t": 74456.41750000039,
      "d": 108.69550000000163,
      "v": 127
    },
    {
      "midi": 78,
      "hit": false,
      "t": 74492.64933333402,
      "d": 144.92733333334036,
      "v": 127
    },
    {
      "midi": 57,
      "hit": false,
      "t": 74565.11300000039,
      "d": 108.69550000000163,
      "v": 127
    },
    {
      "midi": 90,
      "hit": false,
      "t": 74637.57666666736,
      "d": 144.92733333334036,
      "v": 127
    },
    {
      "midi": 62,
      "hit": false,
      "t": 74673.80850000039,
      "d": 108.69550000000163,
      "v": 127
    },
    {
      "midi": 55,
      "hit": false,
      "t": 74782.5040000004,
      "d": 108.69550000000163,
      "v": 127
    },
    {
      "midi": 64,
      "hit": false,
      "t": 74891.1995000004,
      "d": 108.69550000000163,
      "v": 127
    },
    {
      "midi": 76,
      "hit": false,
      "t": 74927.43133333404,
      "d": 144.92733333334036,
      "v": 127
    },
    {
      "midi": 59,
      "hit": false,
      "t": 74999.8950000004,
      "d": 108.69550000000163,
      "v": 127
    },
    {
      "midi": 88,
      "hit": false,
      "t": 75072.35866666738,
      "d": 144.92733333334036,
      "v": 127
    },
    {
      "midi": 64,
      "hit": false,
      "t": 75108.5905000004,
      "d": 108.69550000000163,
      "v": 127
    },
    {
      "midi": 57,
      "hit": false,
      "t": 75217.2860000004,
      "d": 108.69550000000163,
      "v": 127
    },
    {
      "midi": 67,
      "hit": false,
      "t": 75325.9815000004,
      "d": 108.69550000000163,
      "v": 127
    },
    {
      "midi": 73,
      "hit": false,
      "t": 75362.21333333406,
      "d": 144.92733333334036,
      "v": 127
    },
    {
      "midi": 64,
      "hit": false,
      "t": 75434.6770000004,
      "d": 108.69550000000163,
      "v": 127
    },
    {
      "midi": 85,
      "hit": false,
      "t": 75507.1406666674,
      "d": 144.92733333334036,
      "v": 127
    },
    {
      "midi": 67,
      "hit": false,
      "t": 75543.3725000004,
      "d": 108.69550000000163,
      "v": 127
    },
    {
      "midi": 50,
      "hit": false,
      "t": 75652.0680000004,
      "d": 108.69550000000163,
      "v": 127
    },
    {
      "midi": 54,
      "hit": false,
      "t": 75760.76350000041,
      "d": 108.69550000000163,
      "v": 127
    },
    {
      "midi": 74,
      "hit": false,
      "t": 75796.99533333408,
      "d": 144.92733333334036,
      "v": 127
    },
    {
      "midi": 57,
      "hit": false,
      "t": 75869.45900000041,
      "d": 108.69550000000163,
      "v": 127
    },
    {
      "midi": 86,
      "hit": false,
      "t": 75941.92266666742,
      "d": 144.92733333334036,
      "v": 127
    },
    {
      "midi": 62,
      "hit": false,
      "t": 75978.15450000041,
      "d": 108.69550000000163,
      "v": 127
    },
    {
      "midi": 61,
      "hit": false,
      "t": 76086.85000000041,
      "d": 108.69550000000163,
      "v": 127
    },
    {
      "midi": 62,
      "hit": false,
      "t": 76195.54550000041,
      "d": 108.69550000000163,
      "v": 127
    },
    {
      "midi": 57,
      "hit": false,
      "t": 76304.24100000042,
      "d": 108.69550000000163,
      "v": 127
    },
    {
      "midi": 54,
      "hit": false,
      "t": 76412.93650000042,
      "d": 108.69550000000163,
      "v": 127
    },
    {
      "midi": 50,
      "hit": false,
      "t": 76521.63200000042,
      "d": 217.39100000000326,
      "v": 127
    },
    {
      "midi": 74,
      "hit": false,
      "t": 76521.63200000077,
      "d": 217.39100000000326,
      "v": 127
    },
    {
      "midi": 52,
      "hit": false,
      "t": 76739.02300000042,
      "d": 108.69550000000163,
      "v": 127
    },
    {
      "midi": 76,
      "hit": false,
      "t": 76739.02300000077,
      "d": 108.69550000000163,
      "v": 127
    },
    {
      "midi": 50,
      "hit": false,
      "t": 76847.71850000042,
      "d": 108.69550000000163,
      "v": 127
    },
    {
      "midi": 74,
      "hit": false,
      "t": 76847.71850000077,
      "d": 108.69550000000163,
      "v": 127
    },
    {
      "midi": 47,
      "hit": false,
      "t": 76956.41400000043,
      "d": 217.39100000000326,
      "v": 127
    },
    {
      "midi": 71,
      "hit": false,
      "t": 76956.41400000078,
      "d": 217.39100000000326,
      "v": 127
    },
    {
      "midi": 49,
      "hit": false,
      "t": 77173.80500000043,
      "d": 217.39100000000326,
      "v": 127
    },
    {
      "midi": 73,
      "hit": false,
      "t": 77173.80500000078,
      "d": 217.39100000000326,
      "v": 127
    },
    {
      "midi": 50,
      "hit": false,
      "t": 77391.19600000043,
      "d": 434.7820000000065,
      "v": 127
    },
    {
      "midi": 74,
      "hit": false,
      "t": 77391.19600000078,
      "d": 434.7820000000065,
      "v": 127
    },
    {
      "midi": 38,
      "hit": false,
      "t": 77825.97800000044,
      "d": 434.7820000000065,
      "v": 127
    },
    {
      "midi": 62,
      "hit": false,
      "t": 77825.97800000079,
      "d": 434.7820000000065,
      "v": 127
    },
    {
      "midi": 40,
      "hit": false,
      "t": 78260.76000000045,
      "d": 217.39100000000326,
      "v": 127
    },
    {
      "midi": 42,
      "hit": false,
      "t": 78260.76000000045,
      "d": 217.39100000000326,
      "v": 127
    },
    {
      "midi": 64,
      "hit": false,
      "t": 78260.7600000008,
      "d": 217.39100000000326,
      "v": 127
    },
    {
      "midi": 66,
      "hit": false,
      "t": 78260.7600000008,
      "d": 217.39100000000326,
      "v": 127
    },
    {
      "midi": 38,
      "hit": false,
      "t": 78478.15100000045,
      "d": 217.39100000000326,
      "v": 127
    },
    {
      "midi": 62,
      "hit": false,
      "t": 78478.1510000008,
      "d": 217.39100000000326,
      "v": 127
    },
    {
      "midi": 40,
      "hit": false,
      "t": 78695.54200000045,
      "d": 217.39100000000326,
      "v": 127
    },
    {
      "midi": 64,
      "hit": false,
      "t": 78695.5420000008,
      "d": 217.39100000000326,
      "v": 127
    },
    {
      "midi": 42,
      "hit": false,
      "t": 78912.93300000046,
      "d": 217.39100000000326,
      "v": 127
    },
    {
      "midi": 66,
      "hit": false,
      "t": 78912.9330000008,
      "d": 217.39100000000326,
      "v": 127
    },
    {
      "midi": 43,
      "hit": false,
      "t": 79130.32400000046,
      "d": 434.7820000000065,
      "v": 127
    },
    {
      "midi": 67,
      "hit": false,
      "t": 79130.32400000081,
      "d": 434.7820000000065,
      "v": 127
    },
    {
      "midi": 31,
      "hit": false,
      "t": 79565.10600000047,
      "d": 434.7820000000065,
      "v": 127
    },
    {
      "midi": 55,
      "hit": false,
      "t": 79565.10600000081,
      "d": 434.7820000000065,
      "v": 127
    },
    {
      "midi": 50,
      "hit": false,
      "t": 79999.88800000047,
      "d": 108.69550000000163,
      "v": 127
    },
    {
      "midi": 57,
      "hit": false,
      "t": 80108.58350000047,
      "d": 108.69550000000163,
      "v": 127
    },
    {
      "midi": 74,
      "hit": false,
      "t": 80144.81533333416,
      "d": 144.92733333334036,
      "v": 127
    },
    {
      "midi": 54,
      "hit": false,
      "t": 80217.27900000048,
      "d": 108.69550000000163,
      "v": 127
    },
    {
      "midi": 86,
      "hit": false,
      "t": 80289.7426666675,
      "d": 144.92733333334036,
      "v": 127
    },
    {
      "midi": 57,
      "hit": false,
      "t": 80325.97450000048,
      "d": 108.69550000000163,
      "v": 127
    },
    {
      "midi": 52,
      "hit": false,
      "t": 80434.67000000048,
      "d": 108.69550000000163,
      "v": 127
    },
    {
      "midi": 57,
      "hit": false,
      "t": 80543.36550000048,
      "d": 108.69550000000163,
      "v": 127
    },
    {
      "midi": 73,
      "hit": false,
      "t": 80579.59733333418,
      "d": 144.92733333334036,
      "v": 127
    },
    {
      "midi": 55,
      "hit": false,
      "t": 80652.06100000048,
      "d": 108.69550000000163,
      "v": 127
    },
    {
      "midi": 85,
      "hit": false,
      "t": 80724.52466666752,
      "d": 144.92733333334036,
      "v": 127
    },
    {
      "midi": 57,
      "hit": false,
      "t": 80760.75650000048,
      "d": 108.69550000000163,
      "v": 127
    },
    {
      "midi": 50,
      "hit": false,
      "t": 80869.45200000048,
      "d": 108.69550000000163,
      "v": 127
    },
    {
      "midi": 57,
      "hit": false,
      "t": 80978.14750000049,
      "d": 108.69550000000163,
      "v": 127
    },
    {
      "midi": 74,
      "hit": false,
      "t": 81014.3793333342,
      "d": 144.92733333334036,
      "v": 127
    },
    {
      "midi": 54,
      "hit": false,
      "t": 81086.84300000049,
      "d": 108.69550000000163,
      "v": 127
    },
    {
      "midi": 86,
      "hit": false,
      "t": 81159.30666666754,
      "d": 144.92733333334036,
      "v": 127
    },
    {
      "midi": 57,
      "hit": false,
      "t": 81195.53850000049,
      "d": 108.69550000000163,
      "v": 127
    },
    {
      "midi": 43,
      "hit": false,
      "t": 81304.23400000049,
      "d": 108.69550000000163,
      "v": 127
    },
    {
      "midi": 55,
      "hit": false,
      "t": 81412.9295000005,
      "d": 108.69550000000163,
      "v": 127
    },
    {
      "midi": 71,
      "hit": false,
      "t": 81449.16133333422,
      "d": 144.92733333334036,
      "v": 127
    },
    {
      "midi": 53,
      "hit": false,
      "t": 81521.6250000005,
      "d": 108.69550000000163,
      "v": 127
    },
    {
      "midi": 83,
      "hit": false,
      "t": 81594.08866666757,
      "d": 144.92733333334036,
      "v": 127
    },
    {
      "midi": 55,
      "hit": false,
      "t": 81630.3205000005,
      "d": 108.69550000000163,
      "v": 127
    },
    {
      "midi": 48,
      "hit": false,
      "t": 81739.0160000005,
      "d": 108.69550000000163,
      "v": 127
    },
    {
      "midi": 57,
      "hit": false,
      "t": 81847.7115000005,
      "d": 108.69550000000163,
      "v": 127
    },
    {
      "midi": 72,
      "hit": false,
      "t": 81883.94333333425,
      "d": 144.92733333334036,
      "v": 127
    },
    {
      "midi": 52,
      "hit": false,
      "t": 81956.4070000005,
      "d": 108.69550000000163,
      "v": 127
    },
    {
      "midi": 84,
      "hit": false,
      "t": 82028.87066666759,
      "d": 144.92733333334036,
      "v": 127
    },
    {
      "midi": 57,
      "hit": false,
      "t": 82065.1025000005,
      "d": 108.69550000000163,
      "v": 127
    },
    {
      "midi": 50,
      "hit": false,
      "t": 82173.7980000005,
      "d": 108.69550000000163,
      "v": 127
    },
    {
      "midi": 60,
      "hit": false,
      "t": 82282.4935000005,
      "d": 108.69550000000163,
      "v": 127
    },
    {
      "midi": 66,
      "hit": false,
      "t": 82318.72533333427,
      "d": 144.92733333334036,
      "v": 127
    },
    {
      "midi": 57,
      "hit": false,
      "t": 82391.18900000051,
      "d": 108.69550000000163,
      "v": 127
    },
    {
      "midi": 78,
      "hit": false,
      "t": 82463.6526666676,
      "d": 144.92733333334036,
      "v": 127
    },
    {
      "midi": 60,
      "hit": false,
      "t": 82499.88450000051,
      "d": 108.69550000000163,
      "v": 127
    },
    {
      "midi": 55,
      "hit": false,
      "t": 82608.58000000051,
      "d": 108.69550000000163,
      "v": 127
    },
    {
      "midi": 59,
      "hit": false,
      "t": 82608.58000000051,
      "d": 108.69550000000163,
      "v": 127
    },
    {
      "midi": 67,
      "hit": false,
      "t": 82608.58000000095,
      "d": 434.7820000000065,
      "v": 127
    },
    {
      "midi": 79,
      "hit": false,
      "t": 82608.58000000095,
      "d": 434.7820000000065,
      "v": 127
    },
    {
      "midi": 62,
      "hit": false,
      "t": 82717.27550000051,
      "d": 108.69550000000163,
      "v": 127
    },
    {
      "midi": 60,
      "hit": false,
      "t": 82825.97100000051,
      "d": 108.69550000000163,
      "v": 127
    },
    {
      "midi": 59,
      "hit": false,
      "t": 82934.66650000052,
      "d": 108.69550000000163,
      "v": 127
    },
    {
      "midi": 57,
      "hit": false,
      "t": 83043.36200000052,
      "d": 108.69550000000163,
      "v": 127
    },
    {
      "midi": 55,
      "hit": false,
      "t": 83152.05750000052,
      "d": 108.69550000000163,
      "v": 127
    },
    {
      "midi": 54,
      "hit": false,
      "t": 83260.75300000052,
      "d": 108.69550000000163,
      "v": 127
    },
    {
      "midi": 52,
      "hit": false,
      "t": 83369.44850000052,
      "d": 108.69550000000163,
      "v": 127
    },
    {
      "midi": 50,
      "hit": false,
      "t": 83478.14400000052,
      "d": 217.39100000000326,
      "v": 127
    },
    {
      "midi": 74,
      "hit": false,
      "t": 83478.14400000096,
      "d": 217.39100000000326,
      "v": 127
    },
    {
      "midi": 52,
      "hit": false,
      "t": 83695.53500000053,
      "d": 108.69550000000163,
      "v": 127
    },
    {
      "midi": 76,
      "hit": false,
      "t": 83695.53500000096,
      "d": 108.69550000000163,
      "v": 127
    },
    {
      "midi": 50,
      "hit": false,
      "t": 83804.23050000053,
      "d": 108.69550000000163,
      "v": 127
    },
    {
      "midi": 74,
      "hit": false,
      "t": 83804.23050000097,
      "d": 108.69550000000163,
      "v": 127
    },
    {
      "midi": 47,
      "hit": false,
      "t": 83912.92600000053,
      "d": 217.39100000000326,
      "v": 127
    },
    {
      "midi": 71,
      "hit": false,
      "t": 83912.92600000097,
      "d": 217.39100000000326,
      "v": 127
    },
    {
      "midi": 49,
      "hit": false,
      "t": 84130.31700000053,
      "d": 217.39100000000326,
      "v": 127
    },
    {
      "midi": 73,
      "hit": false,
      "t": 84130.31700000097,
      "d": 217.39100000000326,
      "v": 127
    },
    {
      "midi": 50,
      "hit": false,
      "t": 84347.70800000054,
      "d": 434.7820000000065,
      "v": 127
    },
    {
      "midi": 74,
      "hit": false,
      "t": 84347.70800000097,
      "d": 434.7820000000065,
      "v": 127
    },
    {
      "midi": 38,
      "hit": false,
      "t": 84782.49000000054,
      "d": 434.7820000000065,
      "v": 127
    },
    {
      "midi": 62,
      "hit": false,
      "t": 84782.49000000098,
      "d": 434.7820000000065,
      "v": 127
    },
    {
      "midi": 74,
      "hit": false,
      "t": 85217.27200000055,
      "d": 108.69550000000163,
      "v": 127
    },
    {
      "midi": 86,
      "hit": false,
      "t": 85217.27200000099,
      "d": 217.39100000000326,
      "v": 127
    },
    {
      "midi": 78,
      "hit": false,
      "t": 85325.96750000055,
      "d": 108.69550000000163,
      "v": 127
    },
    {
      "midi": 74,
      "hit": false,
      "t": 85434.66300000055,
      "d": 108.69550000000163,
      "v": 127
    },
    {
      "midi": 88,
      "hit": false,
      "t": 85434.66300000099,
      "d": 108.69550000000163,
      "v": 127
    },
    {
      "midi": 78,
      "hit": false,
      "t": 85543.35850000056,
      "d": 108.69550000000163,
      "v": 127
    },
    {
      "midi": 86,
      "hit": false,
      "t": 85543.35850000099,
      "d": 108.69550000000163,
      "v": 127
    },
    {
      "midi": 76,
      "hit": false,
      "t": 85652.05400000056,
      "d": 108.69550000000163,
      "v": 127
    },
    {
      "midi": 83,
      "hit": false,
      "t": 85652.054000001,
      "d": 217.39100000000326,
      "v": 127
    },
    {
      "midi": 79,
      "hit": false,
      "t": 85760.74950000056,
      "d": 108.69550000000163,
      "v": 127
    },
    {
      "midi": 76,
      "hit": false,
      "t": 85869.44500000056,
      "d": 108.69550000000163,
      "v": 127
    },
    {
      "midi": 85,
      "hit": false,
      "t": 85869.445000001,
      "d": 217.39100000000326,
      "v": 127
    },
    {
      "midi": 79,
      "hit": false,
      "t": 85978.14050000056,
      "d": 108.69550000000163,
      "v": 127
    },
    {
      "midi": 74,
      "hit": false,
      "t": 86086.83600000056,
      "d": 434.7820000000065,
      "v": 127
    },
    {
      "midi": 78,
      "hit": false,
      "t": 86086.83600000056,
      "d": 434.7820000000065,
      "v": 127
    },
    {
      "midi": 86,
      "hit": false,
      "t": 86086.836000001,
      "d": 434.7820000000065,
      "v": 127
    },
    {
      "midi": 40,
      "hit": false,
      "t": 86956.40000000058,
      "d": 217.39100000000326,
      "v": 127
    },
    {
      "midi": 42,
      "hit": false,
      "t": 86956.40000000058,
      "d": 217.39100000000326,
      "v": 127
    },
    {
      "midi": 64,
      "hit": false,
      "t": 86956.40000000101,
      "d": 217.39100000000326,
      "v": 127
    },
    {
      "midi": 66,
      "hit": false,
      "t": 86956.40000000101,
      "d": 217.39100000000326,
      "v": 127
    },
    {
      "midi": 38,
      "hit": false,
      "t": 87173.79100000058,
      "d": 217.39100000000326,
      "v": 127
    },
    {
      "midi": 62,
      "hit": false,
      "t": 87173.79100000102,
      "d": 217.39100000000326,
      "v": 127
    },
    {
      "midi": 40,
      "hit": false,
      "t": 87391.18200000058,
      "d": 217.39100000000326,
      "v": 127
    },
    {
      "midi": 64,
      "hit": false,
      "t": 87391.18200000102,
      "d": 217.39100000000326,
      "v": 127
    },
    {
      "midi": 42,
      "hit": false,
      "t": 87608.57300000059,
      "d": 217.39100000000326,
      "v": 127
    },
    {
      "midi": 66,
      "hit": false,
      "t": 87608.57300000102,
      "d": 217.39100000000326,
      "v": 127
    },
    {
      "midi": 43,
      "hit": false,
      "t": 87825.96400000059,
      "d": 434.7820000000065,
      "v": 127
    },
    {
      "midi": 67,
      "hit": false,
      "t": 87825.96400000103,
      "d": 434.7820000000065,
      "v": 127
    },
    {
      "midi": 31,
      "hit": false,
      "t": 88260.7460000006,
      "d": 434.7820000000065,
      "v": 127
    },
    {
      "midi": 55,
      "hit": false,
      "t": 88260.74600000103,
      "d": 434.7820000000065,
      "v": 127
    },
    {
      "midi": 72,
      "hit": false,
      "t": 88695.5280000006,
      "d": 108.69550000000163,
      "v": 127
    },
    {
      "midi": 88,
      "hit": false,
      "t": 88695.52800000104,
      "d": 217.39100000000326,
      "v": 127
    },
    {
      "midi": 90,
      "hit": false,
      "t": 88695.52800000104,
      "d": 217.39100000000326,
      "v": 127
    },
    {
      "midi": 76,
      "hit": false,
      "t": 88804.2235000006,
      "d": 108.69550000000163,
      "v": 127
    },
    {
      "midi": 71,
      "hit": false,
      "t": 88912.9190000006,
      "d": 108.69550000000163,
      "v": 127
    },
    {
      "midi": 86,
      "hit": false,
      "t": 88912.91900000104,
      "d": 217.39100000000326,
      "v": 127
    },
    {
      "midi": 74,
      "hit": false,
      "t": 89021.6145000006,
      "d": 108.69550000000163,
      "v": 127
    },
    {
      "midi": 72,
      "hit": false,
      "t": 89130.31000000061,
      "d": 108.69550000000163,
      "v": 127
    },
    {
      "midi": 88,
      "hit": false,
      "t": 89130.31000000105,
      "d": 217.39100000000326,
      "v": 127
    },
    {
      "midi": 76,
      "hit": false,
      "t": 89239.00550000061,
      "d": 108.69550000000163,
      "v": 127
    },
    {
      "midi": 69,
      "hit": false,
      "t": 89347.70100000061,
      "d": 108.69550000000163,
      "v": 127
    },
    {
      "midi": 90,
      "hit": false,
      "t": 89347.70100000105,
      "d": 217.39100000000326,
      "v": 127
    },
    {
      "midi": 72,
      "hit": false,
      "t": 89456.39650000061,
      "d": 108.69550000000163,
      "v": 127
    },
    {
      "midi": 71,
      "hit": false,
      "t": 89565.09200000062,
      "d": 434.7820000000065,
      "v": 127
    },
    {
      "midi": 74,
      "hit": false,
      "t": 89565.09200000062,
      "d": 434.7820000000065,
      "v": 127
    },
    {
      "midi": 91,
      "hit": false,
      "t": 89565.09200000105,
      "d": 434.7820000000065,
      "v": 127
    },
    {
      "midi": 60,
      "hit": false,
      "t": 90434.65600000063,
      "d": 108.69550000000163,
      "v": 127
    },
    {
      "midi": 76,
      "hit": false,
      "t": 90434.65600000106,
      "d": 217.39100000000326,
      "v": 127
    },
    {
      "midi": 78,
      "hit": false,
      "t": 90434.65600000106,
      "d": 217.39100000000326,
      "v": 127
    },
    {
      "midi": 64,
      "hit": false,
      "t": 90543.35150000063,
      "d": 108.69550000000163,
      "v": 127
    },
    {
      "midi": 59,
      "hit": false,
      "t": 90652.04700000063,
      "d": 108.69550000000163,
      "v": 127
    },
    {
      "midi": 74,
      "hit": false,
      "t": 90652.04700000107,
      "d": 217.39100000000326,
      "v": 127
    },
    {
      "midi": 62,
      "hit": false,
      "t": 90760.74250000063,
      "d": 108.69550000000163,
      "v": 127
    },
    {
      "midi": 60,
      "hit": false,
      "t": 90869.43800000063,
      "d": 108.69550000000163,
      "v": 127
    },
    {
      "midi": 76,
      "hit": false,
      "t": 90869.43800000107,
      "d": 217.39100000000326,
      "v": 127
    },
    {
      "midi": 64,
      "hit": false,
      "t": 90978.13350000064,
      "d": 108.69550000000163,
      "v": 127
    },
    {
      "midi": 57,
      "hit": false,
      "t": 91086.82900000064,
      "d": 108.69550000000163,
      "v": 127
    },
    {
      "midi": 78,
      "hit": false,
      "t": 91086.82900000107,
      "d": 217.39100000000326,
      "v": 127
    },
    {
      "midi": 60,
      "hit": false,
      "t": 91195.52450000064,
      "d": 108.69550000000163,
      "v": 127
    },
    {
      "midi": 59,
      "hit": false,
      "t": 91304.22000000064,
      "d": 108.69550000000163,
      "v": 127
    },
    {
      "midi": 79,
      "hit": false,
      "t": 91304.22000000108,
      "d": 434.7820000000065,
      "v": 127
    },
    {
      "midi": 62,
      "hit": false,
      "t": 91412.91550000064,
      "d": 108.69550000000163,
      "v": 127
    },
    {
      "midi": 59,
      "hit": false,
      "t": 91521.61100000064,
      "d": 108.69550000000163,
      "v": 127
    },
    {
      "midi": 62,
      "hit": false,
      "t": 91630.30650000065,
      "d": 108.69550000000163,
      "v": 127
    },
    {
      "midi": 55,
      "hit": false,
      "t": 91739.00200000065,
      "d": 108.69550000000163,
      "v": 127
    },
    {
      "midi": 74,
      "hit": false,
      "t": 91739.00200000108,
      "d": 217.39100000000326,
      "v": 127
    },
    {
      "midi": 65,
      "hit": false,
      "t": 91847.69750000065,
      "d": 108.69550000000163,
      "v": 127
    },
    {
      "midi": 55,
      "hit": false,
      "t": 91956.39300000065,
      "d": 108.69550000000163,
      "v": 127
    },
    {
      "midi": 76,
      "hit": false,
      "t": 91956.39300000109,
      "d": 108.69550000000163,
      "v": 127
    },
    {
      "midi": 65,
      "hit": false,
      "t": 92065.08850000065,
      "d": 108.69550000000163,
      "v": 127
    },
    {
      "midi": 74,
      "hit": false,
      "t": 92065.08850000109,
      "d": 108.69550000000163,
      "v": 127
    },
    {
      "midi": 60,
      "hit": false,
      "t": 92173.78400000065,
      "d": 108.69550000000163,
      "v": 127
    },
    {
      "midi": 72,
      "hit": false,
      "t": 92173.78400000109,
      "d": 217.39100000000326,
      "v": 127
    },
    {
      "midi": 64,
      "hit": false,
      "t": 92282.47950000066,
      "d": 108.69550000000163,
      "v": 127
    },
    {
      "midi": 60,
      "hit": false,
      "t": 92391.17500000066,
      "d": 108.69550000000163,
      "v": 127
    },
    {
      "midi": 74,
      "hit": false,
      "t": 92391.1750000011,
      "d": 108.69550000000163,
      "v": 127
    },
    {
      "midi": 64,
      "hit": false,
      "t": 92499.87050000066,
      "d": 108.69550000000163,
      "v": 127
    },
    {
      "midi": 72,
      "hit": false,
      "t": 92499.8705000011,
      "d": 108.69550000000163,
      "v": 127
    },
    {
      "midi": 62,
      "hit": false,
      "t": 92608.56600000066,
      "d": 108.69550000000163,
      "v": 127
    },
    {
      "midi": 69,
      "hit": false,
      "t": 92608.5660000011,
      "d": 217.39100000000326,
      "v": 127
    },
    {
      "midi": 66,
      "hit": false,
      "t": 92717.26150000066,
      "d": 108.69550000000163,
      "v": 127
    },
    {
      "midi": 62,
      "hit": false,
      "t": 92825.95700000066,
      "d": 108.69550000000163,
      "v": 127
    },
    {
      "midi": 71,
      "hit": false,
      "t": 92825.9570000011,
      "d": 108.69550000000163,
      "v": 127
    },
    {
      "midi": 66,
      "hit": false,
      "t": 92934.65250000067,
      "d": 108.69550000000163,
      "v": 127
    },
    {
      "midi": 69,
      "hit": false,
      "t": 92934.6525000011,
      "d": 108.69550000000163,
      "v": 127
    },
    {
      "midi": 55,
      "hit": false,
      "t": 93043.34800000067,
      "d": 108.69550000000163,
      "v": 127
    },
    {
      "midi": 71,
      "hit": false,
      "t": 93043.3480000011,
      "d": 217.39100000000326,
      "v": 127
    },
    {
      "midi": 67,
      "hit": false,
      "t": 93152.04350000067,
      "d": 108.69550000000163,
      "v": 127
    },
    {
      "midi": 55,
      "hit": false,
      "t": 93260.73900000067,
      "d": 108.69550000000163,
      "v": 127
    },
    {
      "midi": 72,
      "hit": false,
      "t": 93260.73900000111,
      "d": 108.69550000000163,
      "v": 127
    },
    {
      "midi": 67,
      "hit": false,
      "t": 93369.43450000067,
      "d": 108.69550000000163,
      "v": 127
    },
    {
      "midi": 71,
      "hit": false,
      "t": 93369.43450000111,
      "d": 108.69550000000163,
      "v": 127
    },
    {
      "midi": 59,
      "hit": false,
      "t": 93478.13000000067,
      "d": 108.69550000000163,
      "v": 127
    },
    {
      "midi": 74,
      "hit": false,
      "t": 93478.13000000111,
      "d": 217.39100000000326,
      "v": 127
    },
    {
      "midi": 65,
      "hit": false,
      "t": 93586.82550000068,
      "d": 108.69550000000163,
      "v": 127
    },
    {
      "midi": 59,
      "hit": false,
      "t": 93695.52100000068,
      "d": 108.69550000000163,
      "v": 127
    },
    {
      "midi": 76,
      "hit": false,
      "t": 93695.52100000111,
      "d": 108.69550000000163,
      "v": 127
    },
    {
      "midi": 65,
      "hit": false,
      "t": 93804.21650000068,
      "d": 108.69550000000163,
      "v": 127
    },
    {
      "midi": 74,
      "hit": false,
      "t": 93804.21650000112,
      "d": 108.69550000000163,
      "v": 127
    },
    {
      "midi": 60,
      "hit": false,
      "t": 93912.91200000068,
      "d": 108.69550000000163,
      "v": 127
    },
    {
      "midi": 72,
      "hit": false,
      "t": 93912.91200000112,
      "d": 217.39100000000326,
      "v": 127
    },
    {
      "midi": 64,
      "hit": false,
      "t": 94021.60750000068,
      "d": 108.69550000000163,
      "v": 127
    },
    {
      "midi": 60,
      "hit": false,
      "t": 94130.30300000068,
      "d": 108.69550000000163,
      "v": 127
    },
    {
      "midi": 74,
      "hit": false,
      "t": 94130.30300000112,
      "d": 108.69550000000163,
      "v": 127
    },
    {
      "midi": 64,
      "hit": false,
      "t": 94238.99850000069,
      "d": 108.69550000000163,
      "v": 127
    },
    {
      "midi": 72,
      "hit": false,
      "t": 94238.99850000112,
      "d": 108.69550000000163,
      "v": 127
    },
    {
      "midi": 62,
      "hit": false,
      "t": 94347.69400000069,
      "d": 108.69550000000163,
      "v": 127
    },
    {
      "midi": 69,
      "hit": false,
      "t": 94347.69400000112,
      "d": 217.39100000000326,
      "v": 127
    },
    {
      "midi": 66,
      "hit": false,
      "t": 94456.38950000069,
      "d": 108.69550000000163,
      "v": 127
    },
    {
      "midi": 62,
      "hit": false,
      "t": 94565.08500000069,
      "d": 108.69550000000163,
      "v": 127
    },
    {
      "midi": 71,
      "hit": false,
      "t": 94565.08500000113,
      "d": 108.69550000000163,
      "v": 127
    },
    {
      "midi": 66,
      "hit": false,
      "t": 94673.78050000069,
      "d": 108.69550000000163,
      "v": 127
    },
    {
      "midi": 69,
      "hit": false,
      "t": 94673.78050000113,
      "d": 108.69550000000163,
      "v": 127
    },
    {
      "midi": 55,
      "hit": false,
      "t": 94782.4760000007,
      "d": 108.69550000000163,
      "v": 127
    },
    {
      "midi": 71,
      "hit": false,
      "t": 94782.47600000113,
      "d": 434.7820000000065,
      "v": 127
    },
    {
      "midi": 67,
      "hit": false,
      "t": 94891.1715000007,
      "d": 108.69550000000163,
      "v": 127
    },
    {
      "midi": 55,
      "hit": false,
      "t": 94999.8670000007,
      "d": 108.69550000000163,
      "v": 127
    },
    {
      "midi": 67,
      "hit": false,
      "t": 95108.5625000007,
      "d": 108.69550000000163,
      "v": 127
    },
    {
      "midi": 59,
      "hit": false,
      "t": 95217.2580000007,
      "d": 108.69550000000163,
      "v": 127
    },
    {
      "midi": 65,
      "hit": false,
      "t": 95325.9535000007,
      "d": 108.69550000000163,
      "v": 127
    },
    {
      "midi": 74,
      "hit": false,
      "t": 95362.18533333448,
      "d": 144.92733333334036,
      "v": 127
    },
    {
      "midi": 59,
      "hit": false,
      "t": 95434.6490000007,
      "d": 108.69550000000163,
      "v": 127
    },
    {
      "midi": 86,
      "hit": false,
      "t": 95507.11266666782,
      "d": 144.92733333334036,
      "v": 127
    },
    {
      "midi": 65,
      "hit": false,
      "t": 95543.3445000007,
      "d": 108.69550000000163,
      "v": 127
    },
    {
      "midi": 60,
      "hit": false,
      "t": 95652.0400000007,
      "d": 108.69550000000163,
      "v": 127
    },
    {
      "midi": 64,
      "hit": false,
      "t": 95760.73550000071,
      "d": 108.69550000000163,
      "v": 127
    },
    {
      "midi": 72,
      "hit": false,
      "t": 95796.9673333345,
      "d": 144.92733333334036,
      "v": 127
    },
    {
      "midi": 60,
      "hit": false,
      "t": 95869.43100000071,
      "d": 108.69550000000163,
      "v": 127
    },
    {
      "midi": 84,
      "hit": false,
      "t": 95941.89466666784,
      "d": 144.92733333334036,
      "v": 127
    },
    {
      "midi": 64,
      "hit": false,
      "t": 95978.12650000071,
      "d": 108.69550000000163,
      "v": 127
    },
    {
      "midi": 62,
      "hit": false,
      "t": 96086.82200000071,
      "d": 108.69550000000163,
      "v": 127
    },
    {
      "midi": 66,
      "hit": false,
      "t": 96195.51750000071,
      "d": 108.69550000000163,
      "v": 127
    },
    {
      "midi": 69,
      "hit": false,
      "t": 96231.74933333452,
      "d": 144.92733333334036,
      "v": 127
    },
    {
      "midi": 62,
      "hit": false,
      "t": 96304.21300000072,
      "d": 108.69550000000163,
      "v": 127
    },
    {
      "midi": 81,
      "hit": false,
      "t": 96376.67666666786,
      "d": 144.92733333334036,
      "v": 127
    },
    {
      "midi": 66,
      "hit": false,
      "t": 96412.90850000072,
      "d": 108.69550000000163,
      "v": 127
    },
    {
      "midi": 55,
      "hit": false,
      "t": 96521.60400000072,
      "d": 108.69550000000163,
      "v": 127
    },
    {
      "midi": 67,
      "hit": false,
      "t": 96630.29950000072,
      "d": 108.69550000000163,
      "v": 127
    },
    {
      "midi": 71,
      "hit": false,
      "t": 96666.53133333454,
      "d": 144.92733333334036,
      "v": 127
    },
    {
      "midi": 55,
      "hit": false,
      "t": 96738.99500000072,
      "d": 108.69550000000163,
      "v": 127
    },
    {
      "midi": 83,
      "hit": false,
      "t": 96811.45866666788,
      "d": 144.92733333334036,
      "v": 127
    },
    {
      "midi": 67,
      "hit": false,
      "t": 96847.69050000072,
      "d": 108.69550000000163,
      "v": 127
    },
    {
      "midi": 59,
      "hit": false,
      "t": 96956.38600000073,
      "d": 108.69550000000163,
      "v": 127
    },
    {
      "midi": 65,
      "hit": false,
      "t": 97065.08150000073,
      "d": 108.69550000000163,
      "v": 127
    },
    {
      "midi": 74,
      "hit": false,
      "t": 97101.31333333456,
      "d": 144.92733333334036,
      "v": 127
    },
    {
      "midi": 59,
      "hit": false,
      "t": 97173.77700000073,
      "d": 108.69550000000163,
      "v": 127
    },
    {
      "midi": 86,
      "hit": false,
      "t": 97246.2406666679,
      "d": 144.92733333334036,
      "v": 127
    },
    {
      "midi": 65,
      "hit": false,
      "t": 97282.47250000073,
      "d": 108.69550000000163,
      "v": 127
    },
    {
      "midi": 60,
      "hit": false,
      "t": 97391.16800000073,
      "d": 108.69550000000163,
      "v": 127
    },
    {
      "midi": 64,
      "hit": false,
      "t": 97499.86350000073,
      "d": 108.69550000000163,
      "v": 127
    },
    {
      "midi": 72,
      "hit": false,
      "t": 97536.09533333458,
      "d": 144.92733333334036,
      "v": 127
    },
    {
      "midi": 60,
      "hit": false,
      "t": 97608.55900000074,
      "d": 108.69550000000163,
      "v": 127
    },
    {
      "midi": 84,
      "hit": false,
      "t": 97681.02266666792,
      "d": 144.92733333334036,
      "v": 127
    },
    {
      "midi": 64,
      "hit": false,
      "t": 97717.25450000074,
      "d": 108.69550000000163,
      "v": 127
    },
    {
      "midi": 62,
      "hit": false,
      "t": 97825.95000000074,
      "d": 108.69550000000163,
      "v": 127
    },
    {
      "midi": 66,
      "hit": false,
      "t": 97934.64550000074,
      "d": 108.69550000000163,
      "v": 127
    },
    {
      "midi": 69,
      "hit": false,
      "t": 97970.8773333346,
      "d": 144.92733333334036,
      "v": 127
    },
    {
      "midi": 62,
      "hit": false,
      "t": 98043.34100000074,
      "d": 108.69550000000163,
      "v": 127
    },
    {
      "midi": 81,
      "hit": false,
      "t": 98115.80466666794,
      "d": 144.92733333334036,
      "v": 127
    },
    {
      "midi": 66,
      "hit": false,
      "t": 98152.03650000074,
      "d": 108.69550000000163,
      "v": 127
    },
    {
      "midi": 55,
      "hit": false,
      "t": 98260.73200000075,
      "d": 108.69550000000163,
      "v": 127
    },
    {
      "midi": 71,
      "hit": false,
      "t": 98260.73200000128,
      "d": 217.39100000000326,
      "v": 127
    },
    {
      "midi": 59,
      "hit": false,
      "t": 98369.42750000075,
      "d": 108.69550000000163,
      "v": 127
    },
    {
      "midi": 62,
      "hit": false,
      "t": 98478.12300000075,
      "d": 108.69550000000163,
      "v": 127
    },
    {
      "midi": 72,
      "hit": false,
      "t": 98478.12300000129,
      "d": 108.69550000000163,
      "v": 127
    },
    {
      "midi": 67,
      "hit": false,
      "t": 98586.81850000075,
      "d": 108.69550000000163,
      "v": 127
    },
    {
      "midi": 71,
      "hit": false,
      "t": 98586.81850000129,
      "d": 108.69550000000163,
      "v": 127
    },
    {
      "midi": 55,
      "hit": false,
      "t": 98695.51400000075,
      "d": 108.69550000000163,
      "v": 127
    },
    {
      "midi": 74,
      "hit": false,
      "t": 98695.51400000129,
      "d": 217.39100000000326,
      "v": 127
    },
    {
      "midi": 59,
      "hit": false,
      "t": 98804.20950000075,
      "d": 108.69550000000163,
      "v": 127
    },
    {
      "midi": 62,
      "hit": false,
      "t": 98912.90500000076,
      "d": 108.69550000000163,
      "v": 127
    },
    {
      "midi": 76,
      "hit": false,
      "t": 98912.9050000013,
      "d": 108.69550000000163,
      "v": 127
    },
    {
      "midi": 67,
      "hit": false,
      "t": 99021.60050000076,
      "d": 108.69550000000163,
      "v": 127
    },
    {
      "midi": 74,
      "hit": false,
      "t": 99021.6005000013,
      "d": 108.69550000000163,
      "v": 127
    },
    {
      "midi": 55,
      "hit": false,
      "t": 99130.29600000076,
      "d": 108.69550000000163,
      "v": 127
    },
    {
      "midi": 71,
      "hit": false,
      "t": 99130.2960000013,
      "d": 217.39100000000326,
      "v": 127
    },
    {
      "midi": 59,
      "hit": false,
      "t": 99238.99150000076,
      "d": 108.69550000000163,
      "v": 127
    },
    {
      "midi": 62,
      "hit": false,
      "t": 99347.68700000076,
      "d": 108.69550000000163,
      "v": 127
    },
    {
      "midi": 72,
      "hit": false,
      "t": 99347.6870000013,
      "d": 108.69550000000163,
      "v": 127
    },
    {
      "midi": 67,
      "hit": false,
      "t": 99456.38250000076,
      "d": 108.69550000000163,
      "v": 127
    },
    {
      "midi": 71,
      "hit": false,
      "t": 99456.3825000013,
      "d": 108.69550000000163,
      "v": 127
    },
    {
      "midi": 55,
      "hit": false,
      "t": 99565.07800000077,
      "d": 108.69550000000163,
      "v": 127
    },
    {
      "midi": 79,
      "hit": false,
      "t": 99565.0780000013,
      "d": 217.39100000000326,
      "v": 127
    },
    {
      "midi": 59,
      "hit": false,
      "t": 99673.77350000077,
      "d": 108.69550000000163,
      "v": 127
    },
    {
      "midi": 62,
      "hit": false,
      "t": 99782.46900000077,
      "d": 108.69550000000163,
      "v": 127
    },
    {
      "midi": 81,
      "hit": false,
      "t": 99782.4690000013,
      "d": 108.69550000000163,
      "v": 127
    },
    {
      "midi": 67,
      "hit": false,
      "t": 99891.16450000077,
      "d": 108.69550000000163,
      "v": 127
    },
    {
      "midi": 79,
      "hit": false,
      "t": 99891.16450000131,
      "d": 108.69550000000163,
      "v": 127
    },
    {
      "midi": 55,
      "hit": false,
      "t": 99999.86000000077,
      "d": 108.69550000000163,
      "v": 127
    },
    {
      "midi": 74,
      "hit": false,
      "t": 99999.86000000131,
      "d": 217.39100000000326,
      "v": 127
    },
    {
      "midi": 59,
      "hit": false,
      "t": 100108.55550000077,
      "d": 108.69550000000163,
      "v": 127
    },
    {
      "midi": 62,
      "hit": false,
      "t": 100217.25100000078,
      "d": 108.69550000000163,
      "v": 127
    },
    {
      "midi": 76,
      "hit": false,
      "t": 100217.25100000131,
      "d": 108.69550000000163,
      "v": 127
    },
    {
      "midi": 67,
      "hit": false,
      "t": 100325.94650000078,
      "d": 108.69550000000163,
      "v": 127
    },
    {
      "midi": 74,
      "hit": false,
      "t": 100325.94650000132,
      "d": 108.69550000000163,
      "v": 127
    },
    {
      "midi": 55,
      "hit": false,
      "t": 100434.64200000078,
      "d": 108.69550000000163,
      "v": 127
    },
    {
      "midi": 83,
      "hit": false,
      "t": 100434.64200000132,
      "d": 217.39100000000326,
      "v": 127
    },
    {
      "midi": 59,
      "hit": false,
      "t": 100543.33750000078,
      "d": 108.69550000000163,
      "v": 127
    },
    {
      "midi": 62,
      "hit": false,
      "t": 100652.03300000078,
      "d": 108.69550000000163,
      "v": 127
    },
    {
      "midi": 84,
      "hit": false,
      "t": 100652.03300000132,
      "d": 108.69550000000163,
      "v": 127
    },
    {
      "midi": 67,
      "hit": false,
      "t": 100760.72850000078,
      "d": 108.69550000000163,
      "v": 127
    },
    {
      "midi": 83,
      "hit": false,
      "t": 100760.72850000132,
      "d": 108.69550000000163,
      "v": 127
    },
    {
      "midi": 55,
      "hit": false,
      "t": 100869.42400000078,
      "d": 108.69550000000163,
      "v": 127
    },
    {
      "midi": 79,
      "hit": false,
      "t": 100869.42400000132,
      "d": 434.7820000000065,
      "v": 127
    },
    {
      "midi": 59,
      "hit": false,
      "t": 100978.11950000079,
      "d": 108.69550000000163,
      "v": 127
    },
    {
      "midi": 62,
      "hit": false,
      "t": 101086.81500000079,
      "d": 108.69550000000163,
      "v": 127
    },
    {
      "midi": 67,
      "hit": false,
      "t": 101195.51050000079,
      "d": 108.69550000000163,
      "v": 127
    },
    {
      "midi": 50,
      "hit": false,
      "t": 101304.20600000079,
      "d": 108.69550000000163,
      "v": 127
    },
    {
      "midi": 74,
      "hit": false,
      "t": 101304.20600000133,
      "d": 434.7820000000065,
      "v": 127
    },
    {
      "midi": 78,
      "hit": false,
      "t": 101304.20600000133,
      "d": 434.7820000000065,
      "v": 127
    },
    {
      "midi": 81,
      "hit": false,
      "t": 101304.20600000133,
      "d": 434.7820000000065,
      "v": 127
    },
    {
      "midi": 86,
      "hit": false,
      "t": 101304.20600000133,
      "d": 434.7820000000065,
      "v": 127
    },
    {
      "midi": 54,
      "hit": false,
      "t": 101412.9015000008,
      "d": 108.69550000000163,
      "v": 127
    },
    {
      "midi": 57,
      "hit": false,
      "t": 101521.5970000008,
      "d": 108.69550000000163,
      "v": 127
    },
    {
      "midi": 62,
      "hit": false,
      "t": 101630.2925000008,
      "d": 108.69550000000163,
      "v": 127
    },
    {
      "midi": 43,
      "hit": false,
      "t": 101738.9880000008,
      "d": 217.39100000000326,
      "v": 127
    },
    {
      "midi": 71,
      "hit": false,
      "t": 101738.98800000134,
      "d": 434.7820000000065,
      "v": 127
    },
    {
      "midi": 79,
      "hit": false,
      "t": 101738.98800000134,
      "d": 434.7820000000065,
      "v": 127
    },
    {
      "midi": 83,
      "hit": false,
      "t": 101738.98800000134,
      "d": 434.7820000000065,
      "v": 127
    }
  ]
}