{
  "jsonPath": "Classical/Classical/Ludwig van Beethoven/sonate-15-andante.json",
  "path": "Classical\\Classical\\Ludwig van Beethoven\\Sonate 15 - Andante.mid",
  "name": "Sonate 15 - Andante",
  "difficulty": "Advanced",
  "bpm": 90.00009000009,
  "notes": [
    {
      "midi": 53,
      "hit": false,
      "t": 0,
      "d": 666.666,
      "v": 72
    },
    {
      "midi": 57,
      "hit": false,
      "t": 0,
      "d": 666.666,
      "v": 72
    },
    {
      "midi": 62,
      "hit": false,
      "t": 0,
      "d": 666.666,
      "v": 72
    },
    {
      "midi": 38,
      "hit": false,
      "t": 0,
      "d": 166.6665,
      "v": 72
    },
    {
      "midi": 50,
      "hit": false,
      "t": 166.6665,
      "d": 166.6665,
      "v": 72
    },
    {
      "midi": 45,
      "hit": false,
      "t": 333.333,
      "d": 166.66649999999998,
      "v": 72
    },
    {
      "midi": 50,
      "hit": false,
      "t": 499.9995,
      "d": 166.66650000000004,
      "v": 72
    },
    {
      "midi": 57,
      "hit": false,
      "t": 666.666,
      "d": 666.666,
      "v": 72
    },
    {
      "midi": 64,
      "hit": false,
      "t": 666.666,
      "d": 666.666,
      "v": 72
    },
    {
      "midi": 69,
      "hit": false,
      "t": 666.666,
      "d": 666.666,
      "v": 72
    },
    {
      "midi": 37,
      "hit": false,
      "t": 666.666,
      "d": 166.66650000000004,
      "v": 72
    },
    {
      "midi": 49,
      "hit": false,
      "t": 833.3325000000001,
      "d": 166.66650000000004,
      "v": 72
    },
    {
      "midi": 45,
      "hit": false,
      "t": 999.9990000000001,
      "d": 166.66649999999993,
      "v": 72
    },
    {
      "midi": 49,
      "hit": false,
      "t": 1166.6655,
      "d": 166.66650000000004,
      "v": 72
    },
    {
      "midi": 57,
      "hit": false,
      "t": 1333.332,
      "d": 333.3330000000001,
      "v": 72
    },
    {
      "midi": 62,
      "hit": false,
      "t": 1333.332,
      "d": 333.3330000000001,
      "v": 72
    },
    {
      "midi": 67,
      "hit": false,
      "t": 1333.332,
      "d": 333.3330000000001,
      "v": 72
    },
    {
      "midi": 38,
      "hit": false,
      "t": 1333.332,
      "d": 166.66650000000004,
      "v": 72
    },
    {
      "midi": 50,
      "hit": false,
      "t": 1499.9985000000001,
      "d": 166.66650000000004,
      "v": 72
    },
    {
      "midi": 65,
      "hit": false,
      "t": 1666.6650000000002,
      "d": 166.66650000000004,
      "v": 72
    },
    {
      "midi": 45,
      "hit": false,
      "t": 1666.6650000000002,
      "d": 166.66650000000004,
      "v": 72
    },
    {
      "midi": 50,
      "hit": false,
      "t": 1833.3315000000002,
      "d": 166.66650000000004,
      "v": 72
    },
    {
      "midi": 64,
      "hit": false,
      "t": 1999.9980000000003,
      "d": 166.66650000000004,
      "v": 72
    },
    {
      "midi": 62,
      "hit": false,
      "t": 1999.9980000000003,
      "d": 333.33299999999986,
      "v": 72
    },
    {
      "midi": 38,
      "hit": false,
      "t": 1999.9980000000003,
      "d": 166.66650000000004,
      "v": 72
    },
    {
      "midi": 50,
      "hit": false,
      "t": 2166.6645000000003,
      "d": 166.66649999999981,
      "v": 72
    },
    {
      "midi": 62,
      "hit": false,
      "t": 2333.331,
      "d": 333.3330000000001,
      "v": 72
    },
    {
      "midi": 69,
      "hit": false,
      "t": 2333.331,
      "d": 333.3330000000001,
      "v": 72
    },
    {
      "midi": 74,
      "hit": false,
      "t": 2333.331,
      "d": 333.3330000000001,
      "v": 72
    },
    {
      "midi": 41,
      "hit": false,
      "t": 2333.331,
      "d": 166.66649999999981,
      "v": 72
    },
    {
      "midi": 53,
      "hit": false,
      "t": 2499.9975,
      "d": 166.66649999999981,
      "v": 72
    },
    {
      "midi": 46,
      "hit": false,
      "t": 2666.6639999999998,
      "d": 166.66649999999981,
      "v": 72
    },
    {
      "midi": 64,
      "hit": false,
      "t": 2666.664,
      "d": 333.3330000000001,
      "v": 72
    },
    {
      "midi": 67,
      "hit": false,
      "t": 2666.664,
      "d": 333.3330000000001,
      "v": 72
    },
    {
      "midi": 74,
      "hit": false,
      "t": 2666.664,
      "d": 333.3330000000001,
      "v": 72
    },
    {
      "midi": 58,
      "hit": false,
      "t": 2833.3304999999996,
      "d": 166.66649999999981,
      "v": 75
    },
    {
      "midi": 45,
      "hit": false,
      "t": 2999.9969999999994,
      "d": 166.66649999999981,
      "v": 78
    },
    {
      "midi": 65,
      "hit": false,
      "t": 2999.9970000000003,
      "d": 333.3330000000001,
      "v": 78
    },
    {
      "midi": 69,
      "hit": false,
      "t": 2999.9970000000003,
      "d": 333.3330000000001,
      "v": 78
    },
    {
      "midi": 74,
      "hit": false,
      "t": 2999.9970000000003,
      "d": 333.3330000000001,
      "v": 78
    },
    {
      "midi": 57,
      "hit": false,
      "t": 3166.663499999999,
      "d": 166.66649999999981,
      "v": 82
    },
    {
      "midi": 43,
      "hit": false,
      "t": 3333.329999999999,
      "d": 166.66649999999981,
      "v": 85
    },
    {
      "midi": 64,
      "hit": false,
      "t": 3333.3300000000004,
      "d": 333.3330000000001,
      "v": 85
    },
    {
      "midi": 70,
      "hit": false,
      "t": 3333.3300000000004,
      "d": 333.3330000000001,
      "v": 85
    },
    {
      "midi": 74,
      "hit": false,
      "t": 3333.3300000000004,
      "d": 333.3330000000001,
      "v": 85
    },
    {
      "midi": 55,
      "hit": false,
      "t": 3499.996499999999,
      "d": 166.66649999999981,
      "v": 88
    },
    {
      "midi": 44,
      "hit": false,
      "t": 3666.6629999999986,
      "d": 166.66649999999981,
      "v": 92
    },
    {
      "midi": 65,
      "hit": false,
      "t": 3666.6630000000005,
      "d": 333.3330000000001,
      "v": 92
    },
    {
      "midi": 71,
      "hit": false,
      "t": 3666.6630000000005,
      "d": 333.3330000000001,
      "v": 92
    },
    {
      "midi": 74,
      "hit": false,
      "t": 3666.6630000000005,
      "d": 333.3330000000001,
      "v": 92
    },
    {
      "midi": 56,
      "hit": false,
      "t": 3833.3294999999985,
      "d": 166.66649999999981,
      "v": 95
    },
    {
      "midi": 45,
      "hit": false,
      "t": 3999.9959999999983,
      "d": 166.66650000000027,
      "v": 72
    },
    {
      "midi": 65,
      "hit": false,
      "t": 3999.9960000000005,
      "d": 666.6659999999997,
      "v": 72
    },
    {
      "midi": 69,
      "hit": false,
      "t": 3999.9960000000005,
      "d": 666.6659999999997,
      "v": 72
    },
    {
      "midi": 74,
      "hit": false,
      "t": 3999.9960000000005,
      "d": 666.6659999999997,
      "v": 72
    },
    {
      "midi": 57,
      "hit": false,
      "t": 4166.6624999999985,
      "d": 166.66650000000027,
      "v": 72
    },
    {
      "midi": 56,
      "hit": false,
      "t": 4333.328999999999,
      "d": 166.66650000000027,
      "v": 72
    },
    {
      "midi": 57,
      "hit": false,
      "t": 4499.995499999999,
      "d": 166.66650000000027,
      "v": 72
    },
    {
      "midi": 45,
      "hit": false,
      "t": 4666.661999999999,
      "d": 166.66650000000027,
      "v": 72
    },
    {
      "midi": 64,
      "hit": false,
      "t": 4666.662,
      "d": 333.33299999999963,
      "v": 72
    },
    {
      "midi": 69,
      "hit": false,
      "t": 4666.662,
      "d": 333.33299999999963,
      "v": 72
    },
    {
      "midi": 73,
      "hit": false,
      "t": 4666.662,
      "d": 333.33299999999963,
      "v": 72
    },
    {
      "midi": 57,
      "hit": false,
      "t": 4833.3285,
      "d": 166.66650000000027,
      "v": 72
    },
    {
      "midi": 43,
      "hit": false,
      "t": 4999.995,
      "d": 166.66650000000027,
      "v": 72
    },
    {
      "midi": 55,
      "hit": false,
      "t": 5166.6615,
      "d": 166.66650000000027,
      "v": 72
    },
    {
      "midi": 57,
      "hit": false,
      "t": 5333.3279999999995,
      "d": 666.6660000000002,
      "v": 72
    },
    {
      "midi": 60,
      "hit": false,
      "t": 5333.3279999999995,
      "d": 666.6660000000002,
      "v": 72
    },
    {
      "midi": 65,
      "hit": false,
      "t": 5333.3279999999995,
      "d": 666.6660000000002,
      "v": 72
    },
    {
      "midi": 41,
      "hit": false,
      "t": 5333.328,
      "d": 166.66650000000027,
      "v": 72
    },
    {
      "midi": 53,
      "hit": false,
      "t": 5499.994500000001,
      "d": 166.66650000000027,
      "v": 72
    },
    {
      "midi": 48,
      "hit": false,
      "t": 5666.661000000001,
      "d": 166.66650000000027,
      "v": 72
    },
    {
      "midi": 53,
      "hit": false,
      "t": 5833.327500000001,
      "d": 166.66650000000027,
      "v": 72
    },
    {
      "midi": 60,
      "hit": false,
      "t": 5999.994,
      "d": 666.6660000000002,
      "v": 72
    },
    {
      "midi": 67,
      "hit": false,
      "t": 5999.994,
      "d": 666.6660000000002,
      "v": 72
    },
    {
      "midi": 72,
      "hit": false,
      "t": 5999.994,
      "d": 666.6660000000002,
      "v": 72
    },
    {
      "midi": 40,
      "hit": false,
      "t": 5999.9940000000015,
      "d": 166.66650000000027,
      "v": 72
    },
    {
      "midi": 52,
      "hit": false,
      "t": 6166.660500000002,
      "d": 166.66650000000027,
      "v": 72
    },
    {
      "midi": 48,
      "hit": false,
      "t": 6333.327000000002,
      "d": 166.66650000000027,
      "v": 72
    },
    {
      "midi": 52,
      "hit": false,
      "t": 6499.993500000002,
      "d": 166.66650000000027,
      "v": 72
    },
    {
      "midi": 60,
      "hit": false,
      "t": 6666.66,
      "d": 333.33299999999963,
      "v": 72
    },
    {
      "midi": 65,
      "hit": false,
      "t": 6666.66,
      "d": 333.33299999999963,
      "v": 72
    },
    {
      "midi": 70,
      "hit": false,
      "t": 6666.66,
      "d": 333.33299999999963,
      "v": 72
    },
    {
      "midi": 41,
      "hit": false,
      "t": 6666.660000000003,
      "d": 166.66650000000027,
      "v": 72
    },
    {
      "midi": 53,
      "hit": false,
      "t": 6833.326500000003,
      "d": 166.66650000000027,
      "v": 72
    },
    {
      "midi": 69,
      "hit": false,
      "t": 6999.9929999999995,
      "d": 166.66650000000027,
      "v": 72
    },
    {
      "midi": 48,
      "hit": false,
      "t": 6999.993000000003,
      "d": 166.66650000000027,
      "v": 72
    },
    {
      "midi": 53,
      "hit": false,
      "t": 7166.659500000003,
      "d": 166.66650000000027,
      "v": 72
    },
    {
      "midi": 68,
      "hit": false,
      "t": 7333.326,
      "d": 166.66650000000027,
      "v": 72
    },
    {
      "midi": 69,
      "hit": false,
      "t": 7333.326,
      "d": 333.33300000000054,
      "v": 72
    },
    {
      "midi": 41,
      "hit": false,
      "t": 7333.326000000004,
      "d": 166.66650000000027,
      "v": 72
    },
    {
      "midi": 53,
      "hit": false,
      "t": 7499.992500000004,
      "d": 166.66650000000027,
      "v": 72
    },
    {
      "midi": 65,
      "hit": false,
      "t": 7666.659000000001,
      "d": 333.33299999999963,
      "v": 72
    },
    {
      "midi": 69,
      "hit": false,
      "t": 7666.659000000001,
      "d": 333.33299999999963,
      "v": 72
    },
    {
      "midi": 71,
      "hit": false,
      "t": 7666.659000000001,
      "d": 333.33299999999963,
      "v": 72
    },
    {
      "midi": 38,
      "hit": false,
      "t": 7666.659000000004,
      "d": 166.66650000000027,
      "v": 72
    },
    {
      "midi": 50,
      "hit": false,
      "t": 7833.3255000000045,
      "d": 166.66650000000027,
      "v": 72
    },
    {
      "midi": 64,
      "hit": false,
      "t": 7999.992,
      "d": 666.6659999999993,
      "v": 72
    },
    {
      "midi": 69,
      "hit": false,
      "t": 7999.992,
      "d": 666.6659999999993,
      "v": 72
    },
    {
      "midi": 72,
      "hit": false,
      "t": 7999.992,
      "d": 666.6659999999993,
      "v": 72
    },
    {
      "midi": 40,
      "hit": false,
      "t": 7999.992000000005,
      "d": 166.66650000000027,
      "v": 72
    },
    {
      "midi": 52,
      "hit": false,
      "t": 8166.658500000005,
      "d": 166.66649999999936,
      "v": 75
    },
    {
      "midi": 45,
      "hit": false,
      "t": 8333.325000000004,
      "d": 166.66649999999936,
      "v": 78
    },
    {
      "midi": 52,
      "hit": false,
      "t": 8499.991500000004,
      "d": 166.66649999999936,
      "v": 82
    },
    {
      "midi": 62,
      "hit": false,
      "t": 8666.658,
      "d": 666.6659999999993,
      "v": 85
    },
    {
      "midi": 64,
      "hit": false,
      "t": 8666.658,
      "d": 666.6659999999993,
      "v": 85
    },
    {
      "midi": 68,
      "hit": false,
      "t": 8666.658,
      "d": 666.6659999999993,
      "v": 85
    },
    {
      "midi": 40,
      "hit": false,
      "t": 8666.658000000003,
      "d": 166.66649999999936,
      "v": 85
    },
    {
      "midi": 52,
      "hit": false,
      "t": 8833.324500000002,
      "d": 166.66649999999936,
      "v": 88
    },
    {
      "midi": 47,
      "hit": false,
      "t": 8999.991000000002,
      "d": 166.66649999999936,
      "v": 92
    },
    {
      "midi": 52,
      "hit": false,
      "t": 9166.657500000001,
      "d": 166.66649999999936,
      "v": 95
    },
    {
      "midi": 60,
      "hit": false,
      "t": 9333.323999999999,
      "d": 166.66649999999936,
      "v": 72
    },
    {
      "midi": 64,
      "hit": false,
      "t": 9333.323999999999,
      "d": 166.66649999999936,
      "v": 72
    },
    {
      "midi": 69,
      "hit": false,
      "t": 9333.323999999999,
      "d": 166.66649999999936,
      "v": 72
    },
    {
      "midi": 33,
      "hit": false,
      "t": 9333.324,
      "d": 166.66649999999936,
      "v": 72
    },
    {
      "midi": 45,
      "hit": false,
      "t": 9499.9905,
      "d": 166.66649999999936,
      "v": 72
    },
    {
      "midi": 58,
      "hit": false,
      "t": 9666.656999999997,
      "d": 333.33300000000054,
      "v": 75
    },
    {
      "midi": 34,
      "hit": false,
      "t": 9666.657,
      "d": 166.66649999999936,
      "v": 75
    },
    {
      "midi": 46,
      "hit": false,
      "t": 9833.323499999999,
      "d": 166.66649999999936,
      "v": 79
    },
    {
      "midi": 57,
      "hit": false,
      "t": 9999.989999999998,
      "d": 333.33300000000054,
      "v": 83
    },
    {
      "midi": 33,
      "hit": false,
      "t": 9999.989999999998,
      "d": 166.66649999999936,
      "v": 83
    },
    {
      "midi": 45,
      "hit": false,
      "t": 10166.656499999997,
      "d": 166.66649999999936,
      "v": 87
    },
    {
      "midi": 37,
      "hit": false,
      "t": 10333.322999999997,
      "d": 166.66649999999936,
      "v": 91
    },
    {
      "midi": 61,
      "hit": false,
      "t": 10333.322999999999,
      "d": 333.33300000000054,
      "v": 91
    },
    {
      "midi": 49,
      "hit": false,
      "t": 10499.989499999996,
      "d": 166.66649999999936,
      "v": 95
    },
    {
      "midi": 38,
      "hit": false,
      "t": 10666.655999999995,
      "d": 166.66649999999936,
      "v": 72
    },
    {
      "midi": 53,
      "hit": false,
      "t": 10666.655999999999,
      "d": 666.6659999999993,
      "v": 72
    },
    {
      "midi": 57,
      "hit": false,
      "t": 10666.655999999999,
      "d": 666.6659999999993,
      "v": 72
    },
    {
      "midi": 62,
      "hit": false,
      "t": 10666.655999999999,
      "d": 666.6659999999993,
      "v": 72
    },
    {
      "midi": 50,
      "hit": false,
      "t": 10833.322499999995,
      "d": 166.66649999999936,
      "v": 72
    },
    {
      "midi": 45,
      "hit": false,
      "t": 10999.988999999994,
      "d": 166.66649999999936,
      "v": 72
    },
    {
      "midi": 50,
      "hit": false,
      "t": 11166.655499999993,
      "d": 166.66649999999936,
      "v": 72
    },
    {
      "midi": 37,
      "hit": false,
      "t": 11333.321999999993,
      "d": 166.66649999999936,
      "v": 72
    },
    {
      "midi": 57,
      "hit": false,
      "t": 11333.321999999998,
      "d": 666.6659999999993,
      "v": 72
    },
    {
      "midi": 64,
      "hit": false,
      "t": 11333.321999999998,
      "d": 666.6659999999993,
      "v": 72
    },
    {
      "midi": 69,
      "hit": false,
      "t": 11333.321999999998,
      "d": 666.6659999999993,
      "v": 72
    },
    {
      "midi": 49,
      "hit": false,
      "t": 11499.988499999992,
      "d": 166.66649999999936,
      "v": 72
    },
    {
      "midi": 45,
      "hit": false,
      "t": 11666.654999999992,
      "d": 166.66649999999936,
      "v": 72
    },
    {
      "midi": 49,
      "hit": false,
      "t": 11833.321499999991,
      "d": 166.66649999999936,
      "v": 72
    },
    {
      "midi": 38,
      "hit": false,
      "t": 11999.98799999999,
      "d": 166.66649999999936,
      "v": 72
    },
    {
      "midi": 57,
      "hit": false,
      "t": 11999.987999999998,
      "d": 333.33300000000054,
      "v": 72
    },
    {
      "midi": 62,
      "hit": false,
      "t": 11999.987999999998,
      "d": 333.33300000000054,
      "v": 72
    },
    {
      "midi": 67,
      "hit": false,
      "t": 11999.987999999998,
      "d": 333.33300000000054,
      "v": 72
    },
    {
      "midi": 50,
      "hit": false,
      "t": 12166.65449999999,
      "d": 166.66649999999936,
      "v": 72
    },
    {
      "midi": 45,
      "hit": false,
      "t": 12333.320999999989,
      "d": 166.66649999999936,
      "v": 72
    },
    {
      "midi": 65,
      "hit": false,
      "t": 12333.320999999998,
      "d": 166.66649999999936,
      "v": 72
    },
    {
      "midi": 50,
      "hit": false,
      "t": 12499.987499999988,
      "d": 166.66649999999936,
      "v": 72
    },
    {
      "midi": 38,
      "hit": false,
      "t": 12666.653999999988,
      "d": 166.66649999999936,
      "v": 72
    },
    {
      "midi": 64,
      "hit": false,
      "t": 12666.653999999997,
      "d": 166.66649999999936,
      "v": 72
    },
    {
      "midi": 62,
      "hit": false,
      "t": 12666.653999999997,
      "d": 333.3329999999987,
      "v": 72
    },
    {
      "midi": 50,
      "hit": false,
      "t": 12833.320499999987,
      "d": 166.66649999999936,
      "v": 72
    },
    {
      "midi": 41,
      "hit": false,
      "t": 12999.986999999986,
      "d": 166.66649999999936,
      "v": 72
    },
    {
      "midi": 62,
      "hit": false,
      "t": 12999.986999999996,
      "d": 333.33300000000054,
      "v": 72
    },
    {
      "midi": 69,
      "hit": false,
      "t": 12999.986999999996,
      "d": 333.33300000000054,
      "v": 72
    },
    {
      "midi": 74,
      "hit": false,
      "t": 12999.986999999996,
      "d": 333.33300000000054,
      "v": 72
    },
    {
      "midi": 53,
      "hit": false,
      "t": 13166.653499999986,
      "d": 166.66649999999936,
      "v": 72
    },
    {
      "midi": 46,
      "hit": false,
      "t": 13333.319999999985,
      "d": 166.66649999999936,
      "v": 72
    },
    {
      "midi": 64,
      "hit": false,
      "t": 13333.319999999996,
      "d": 333.33300000000054,
      "v": 72
    },
    {
      "midi": 67,
      "hit": false,
      "t": 13333.319999999996,
      "d": 333.33300000000054,
      "v": 72
    },
    {
      "midi": 74,
      "hit": false,
      "t": 13333.319999999996,
      "d": 333.33300000000054,
      "v": 72
    },
    {
      "midi": 58,
      "hit": false,
      "t": 13499.986499999985,
      "d": 166.66649999999936,
      "v": 75
    },
    {
      "midi": 45,
      "hit": false,
      "t": 13666.652999999984,
      "d": 166.66649999999936,
      "v": 78
    },
    {
      "midi": 65,
      "hit": false,
      "t": 13666.652999999997,
      "d": 333.33300000000054,
      "v": 78
    },
    {
      "midi": 69,
      "hit": false,
      "t": 13666.652999999997,
      "d": 333.33300000000054,
      "v": 78
    },
    {
      "midi": 74,
      "hit": false,
      "t": 13666.652999999997,
      "d": 333.33300000000054,
      "v": 78
    },
    {
      "midi": 57,
      "hit": false,
      "t": 13833.319499999983,
      "d": 166.66649999999936,
      "v": 82
    },
    {
      "midi": 43,
      "hit": false,
      "t": 13999.985999999983,
      "d": 166.66649999999936,
      "v": 85
    },
    {
      "midi": 64,
      "hit": false,
      "t": 13999.985999999997,
      "d": 333.33300000000054,
      "v": 85
    },
    {
      "midi": 70,
      "hit": false,
      "t": 13999.985999999997,
      "d": 333.33300000000054,
      "v": 85
    },
    {
      "midi": 74,
      "hit": false,
      "t": 13999.985999999997,
      "d": 333.33300000000054,
      "v": 85
    },
    {
      "midi": 55,
      "hit": false,
      "t": 14166.652499999982,
      "d": 166.66649999999936,
      "v": 88
    },
    {
      "midi": 44,
      "hit": false,
      "t": 14333.318999999981,
      "d": 166.66649999999936,
      "v": 92
    },
    {
      "midi": 65,
      "hit": false,
      "t": 14333.318999999998,
      "d": 333.33300000000054,
      "v": 92
    },
    {
      "midi": 71,
      "hit": false,
      "t": 14333.318999999998,
      "d": 333.33300000000054,
      "v": 92
    },
    {
      "midi": 74,
      "hit": false,
      "t": 14333.318999999998,
      "d": 333.33300000000054,
      "v": 92
    },
    {
      "midi": 56,
      "hit": false,
      "t": 14499.98549999998,
      "d": 166.66649999999936,
      "v": 95
    },
    {
      "midi": 45,
      "hit": false,
      "t": 14666.65199999998,
      "d": 166.66649999999936,
      "v": 72
    },
    {
      "midi": 65,
      "hit": false,
      "t": 14666.651999999998,
      "d": 666.6659999999993,
      "v": 72
    },
    {
      "midi": 69,
      "hit": false,
      "t": 14666.651999999998,
      "d": 666.6659999999993,
      "v": 72
    },
    {
      "midi": 74,
      "hit": false,
      "t": 14666.651999999998,
      "d": 666.6659999999993,
      "v": 72
    },
    {
      "midi": 57,
      "hit": false,
      "t": 14833.31849999998,
      "d": 166.66649999999936,
      "v": 72
    },
    {
      "midi": 56,
      "hit": false,
      "t": 14999.984999999979,
      "d": 166.66649999999936,
      "v": 72
    },
    {
      "midi": 57,
      "hit": false,
      "t": 15166.651499999978,
      "d": 166.66649999999936,
      "v": 72
    },
    {
      "midi": 45,
      "hit": false,
      "t": 15333.317999999977,
      "d": 166.66649999999936,
      "v": 72
    },
    {
      "midi": 64,
      "hit": false,
      "t": 15333.317999999997,
      "d": 333.33300000000054,
      "v": 72
    },
    {
      "midi": 69,
      "hit": false,
      "t": 15333.317999999997,
      "d": 333.33300000000054,
      "v": 72
    },
    {
      "midi": 73,
      "hit": false,
      "t": 15333.317999999997,
      "d": 333.33300000000054,
      "v": 72
    },
    {
      "midi": 57,
      "hit": false,
      "t": 15499.984499999977,
      "d": 166.66649999999936,
      "v": 72
    },
    {
      "midi": 43,
      "hit": false,
      "t": 15666.650999999976,
      "d": 166.66649999999936,
      "v": 72
    },
    {
      "midi": 55,
      "hit": false,
      "t": 15833.317499999976,
      "d": 166.66649999999936,
      "v": 72
    },
    {
      "midi": 41,
      "hit": false,
      "t": 15999.983999999975,
      "d": 166.66649999999936,
      "v": 72
    },
    {
      "midi": 57,
      "hit": false,
      "t": 15999.983999999999,
      "d": 666.6659999999993,
      "v": 72
    },
    {
      "midi": 60,
      "hit": false,
      "t": 15999.983999999999,
      "d": 666.6659999999993,
      "v": 72
    },
    {
      "midi": 65,
      "hit": false,
      "t": 15999.983999999999,
      "d": 666.6659999999993,
      "v": 72
    },
    {
      "midi": 53,
      "hit": false,
      "t": 16166.650499999974,
      "d": 166.66649999999936,
      "v": 72
    },
    {
      "midi": 48,
      "hit": false,
      "t": 16333.316999999974,
      "d": 166.66649999999936,
      "v": 72
    },
    {
      "midi": 53,
      "hit": false,
      "t": 16499.983499999973,
      "d": 166.66649999999936,
      "v": 72
    },
    {
      "midi": 40,
      "hit": false,
      "t": 16666.649999999972,
      "d": 166.66649999999936,
      "v": 72
    },
    {
      "midi": 60,
      "hit": false,
      "t": 16666.649999999998,
      "d": 666.6660000000011,
      "v": 72
    },
    {
      "midi": 67,
      "hit": false,
      "t": 16666.649999999998,
      "d": 666.6660000000011,
      "v": 72
    },
    {
      "midi": 72,
      "hit": false,
      "t": 16666.649999999998,
      "d": 666.6660000000011,
      "v": 72
    },
    {
      "midi": 52,
      "hit": false,
      "t": 16833.31649999997,
      "d": 166.66649999999936,
      "v": 72
    },
    {
      "midi": 48,
      "hit": false,
      "t": 16999.98299999997,
      "d": 166.66649999999936,
      "v": 72
    },
    {
      "midi": 52,
      "hit": false,
      "t": 17166.64949999997,
      "d": 166.66649999999936,
      "v": 72
    },
    {
      "midi": 41,
      "hit": false,
      "t": 17333.31599999997,
      "d": 166.66649999999936,
      "v": 72
    },
    {
      "midi": 60,
      "hit": false,
      "t": 17333.316,
      "d": 333.3329999999987,
      "v": 72
    },
    {
      "midi": 65,
      "hit": false,
      "t": 17333.316,
      "d": 333.3329999999987,
      "v": 72
    },
    {
      "midi": 70,
      "hit": false,
      "t": 17333.316,
      "d": 333.3329999999987,
      "v": 72
    },
    {
      "midi": 53,
      "hit": false,
      "t": 17499.98249999997,
      "d": 166.66649999999936,
      "v": 72
    },
    {
      "midi": 48,
      "hit": false,
      "t": 17666.64899999997,
      "d": 166.66649999999936,
      "v": 72
    },
    {
      "midi": 69,
      "hit": false,
      "t": 17666.648999999998,
      "d": 166.66649999999936,
      "v": 72
    },
    {
      "midi": 53,
      "hit": false,
      "t": 17833.315499999968,
      "d": 166.66649999999936,
      "v": 72
    },
    {
      "midi": 41,
      "hit": false,
      "t": 17999.981999999967,
      "d": 166.66649999999936,
      "v": 72
    },
    {
      "midi": 68,
      "hit": false,
      "t": 17999.981999999996,
      "d": 166.66649999999936,
      "v": 72
    },
    {
      "midi": 69,
      "hit": false,
      "t": 17999.981999999996,
      "d": 333.3329999999987,
      "v": 72
    },
    {
      "midi": 53,
      "hit": false,
      "t": 18166.648499999967,
      "d": 166.66649999999936,
      "v": 72
    },
    {
      "midi": 38,
      "hit": false,
      "t": 18333.314999999966,
      "d": 166.66649999999936,
      "v": 72
    },
    {
      "midi": 65,
      "hit": false,
      "t": 18333.314999999995,
      "d": 333.3329999999987,
      "v": 72
    },
    {
      "midi": 69,
      "hit": false,
      "t": 18333.314999999995,
      "d": 333.3329999999987,
      "v": 72
    },
    {
      "midi": 71,
      "hit": false,
      "t": 18333.314999999995,
      "d": 333.3329999999987,
      "v": 72
    },
    {
      "midi": 50,
      "hit": false,
      "t": 18499.981499999965,
      "d": 166.66649999999936,
      "v": 72
    },
    {
      "midi": 40,
      "hit": false,
      "t": 18666.647999999965,
      "d": 166.66649999999936,
      "v": 72
    },
    {
      "midi": 64,
      "hit": false,
      "t": 18666.647999999994,
      "d": 666.6660000000011,
      "v": 72
    },
    {
      "midi": 69,
      "hit": false,
      "t": 18666.647999999994,
      "d": 666.6660000000011,
      "v": 72
    },
    {
      "midi": 72,
      "hit": false,
      "t": 18666.647999999994,
      "d": 666.6660000000011,
      "v": 72
    },
    {
      "midi": 52,
      "hit": false,
      "t": 18833.314499999964,
      "d": 166.66649999999936,
      "v": 75
    },
    {
      "midi": 45,
      "hit": false,
      "t": 18999.980999999963,
      "d": 166.66649999999936,
      "v": 78
    },
    {
      "midi": 52,
      "hit": false,
      "t": 19166.647499999963,
      "d": 166.66649999999936,
      "v": 82
    },
    {
      "midi": 40,
      "hit": false,
      "t": 19333.313999999962,
      "d": 166.66649999999936,
      "v": 85
    },
    {
      "midi": 62,
      "hit": false,
      "t": 19333.313999999995,
      "d": 666.6660000000011,
      "v": 85
    },
    {
      "midi": 64,
      "hit": false,
      "t": 19333.313999999995,
      "d": 666.6660000000011,
      "v": 85
    },
    {
      "midi": 68,
      "hit": false,
      "t": 19333.313999999995,
      "d": 666.6660000000011,
      "v": 85
    },
    {
      "midi": 52,
      "hit": false,
      "t": 19499.98049999996,
      "d": 166.66649999999936,
      "v": 88
    },
    {
      "midi": 47,
      "hit": false,
      "t": 19666.64699999996,
      "d": 166.66649999999936,
      "v": 92
    },
    {
      "midi": 52,
      "hit": false,
      "t": 19833.31349999996,
      "d": 166.66649999999936,
      "v": 95
    },
    {
      "midi": 33,
      "hit": false,
      "t": 19999.97999999996,
      "d": 166.66649999999936,
      "v": 72
    },
    {
      "midi": 60,
      "hit": false,
      "t": 19999.979999999996,
      "d": 166.66649999999936,
      "v": 72
    },
    {
      "midi": 64,
      "hit": false,
      "t": 19999.979999999996,
      "d": 166.66649999999936,
      "v": 72
    },
    {
      "midi": 69,
      "hit": false,
      "t": 19999.979999999996,
      "d": 166.66649999999936,
      "v": 72
    },
    {
      "midi": 45,
      "hit": false,
      "t": 20166.64649999996,
      "d": 166.66649999999936,
      "v": 72
    },
    {
      "midi": 34,
      "hit": false,
      "t": 20333.31299999996,
      "d": 166.66649999999936,
      "v": 75
    },
    {
      "midi": 58,
      "hit": false,
      "t": 20333.312999999995,
      "d": 333.3329999999987,
      "v": 75
    },
    {
      "midi": 46,
      "hit": false,
      "t": 20499.979499999958,
      "d": 166.66649999999936,
      "v": 78
    },
    {
      "midi": 33,
      "hit": false,
      "t": 20666.645999999957,
      "d": 166.66649999999936,
      "v": 82
    },
    {
      "midi": 57,
      "hit": false,
      "t": 20666.645999999993,
      "d": 333.3329999999987,
      "v": 82
    },
    {
      "midi": 45,
      "hit": false,
      "t": 20833.312499999956,
      "d": 166.66649999999936,
      "v": 85
    },
    {
      "midi": 32,
      "hit": false,
      "t": 20999.978999999956,
      "d": 166.66649999999936,
      "v": 88
    },
    {
      "midi": 56,
      "hit": false,
      "t": 20999.978999999992,
      "d": 333.3329999999987,
      "v": 88
    },
    {
      "midi": 44,
      "hit": false,
      "t": 21166.645499999955,
      "d": 166.66649999999936,
      "v": 92
    },
    {
      "midi": 33,
      "hit": false,
      "t": 21333.311999999954,
      "d": 166.66649999999936,
      "v": 72
    },
    {
      "midi": 45,
      "hit": false,
      "t": 21333.311999999954,
      "d": 166.66649999999936,
      "v": 72
    },
    {
      "midi": 73,
      "hit": false,
      "t": 21333.31199999999,
      "d": 666.6660000000011,
      "v": 72
    },
    {
      "midi": 76,
      "hit": false,
      "t": 21333.31199999999,
      "d": 666.6660000000011,
      "v": 72
    },
    {
      "midi": 57,
      "hit": false,
      "t": 21499.978499999954,
      "d": 166.66649999999936,
      "v": 73
    },
    {
      "midi": 57,
      "hit": false,
      "t": 21666.644999999953,
      "d": 166.66649999999936,
      "v": 73
    },
    {
      "midi": 57,
      "hit": false,
      "t": 21833.311499999953,
      "d": 166.66649999999936,
      "v": 73
    },
    {
      "midi": 57,
      "hit": false,
      "t": 21999.977999999952,
      "d": 166.66649999999936,
      "v": 73
    },
    {
      "midi": 76,
      "hit": false,
      "t": 21999.977999999992,
      "d": 499.9995000000017,
      "v": 73
    },
    {
      "midi": 79,
      "hit": false,
      "t": 21999.977999999992,
      "d": 499.9995000000017,
      "v": 73
    },
    {
      "midi": 57,
      "hit": false,
      "t": 22166.64449999995,
      "d": 166.66649999999936,
      "v": 73
    },
    {
      "midi": 57,
      "hit": false,
      "t": 22333.31099999995,
      "d": 166.66649999999936,
      "v": 73
    },
    {
      "midi": 57,
      "hit": false,
      "t": 22499.97749999995,
      "d": 166.66649999999936,
      "v": 73
    },
    {
      "midi": 57,
      "hit": false,
      "t": 22666.64399999995,
      "d": 166.66649999999936,
      "v": 73
    },
    {
      "midi": 74,
      "hit": false,
      "t": 22666.643999999993,
      "d": 166.66649999999936,
      "v": 73
    },
    {
      "midi": 77,
      "hit": false,
      "t": 22666.643999999993,
      "d": 166.66649999999936,
      "v": 73
    },
    {
      "midi": 57,
      "hit": false,
      "t": 22833.31049999995,
      "d": 166.66649999999936,
      "v": 80
    },
    {
      "midi": 57,
      "hit": false,
      "t": 22999.976999999948,
      "d": 166.66649999999936,
      "v": 88
    },
    {
      "midi": 67,
      "hit": false,
      "t": 22999.97699999999,
      "d": 666.6660000000011,
      "v": 88
    },
    {
      "midi": 70,
      "hit": false,
      "t": 22999.97699999999,
      "d": 666.6660000000011,
      "v": 88
    },
    {
      "midi": 73,
      "hit": false,
      "t": 22999.97699999999,
      "d": 666.6660000000011,
      "v": 88
    },
    {
      "midi": 76,
      "hit": false,
      "t": 22999.97699999999,
      "d": 666.6660000000011,
      "v": 88
    },
    {
      "midi": 57,
      "hit": false,
      "t": 23166.643499999947,
      "d": 166.66649999999936,
      "v": 96
    },
    {
      "midi": 57,
      "hit": false,
      "t": 23333.309999999947,
      "d": 166.66649999999936,
      "v": 97
    },
    {
      "midi": 57,
      "hit": false,
      "t": 23499.976499999946,
      "d": 166.66649999999936,
      "v": 97
    },
    {
      "midi": 57,
      "hit": false,
      "t": 23666.642999999945,
      "d": 166.66649999999936,
      "v": 97
    },
    {
      "midi": 77,
      "hit": false,
      "t": 23666.642999999993,
      "d": 166.66649999999936,
      "v": 97
    },
    {
      "midi": 68,
      "hit": false,
      "t": 23666.642999999993,
      "d": 333.3329999999987,
      "v": 97
    },
    {
      "midi": 71,
      "hit": false,
      "t": 23666.642999999993,
      "d": 333.3329999999987,
      "v": 97
    },
    {
      "midi": 57,
      "hit": false,
      "t": 23833.309499999945,
      "d": 166.66649999999936,
      "v": 73
    },
    {
      "midi": 57,
      "hit": false,
      "t": 23999.975999999944,
      "d": 166.66649999999936,
      "v": 72
    },
    {
      "midi": 74,
      "hit": false,
      "t": 23999.97599999999,
      "d": 166.66649999999936,
      "v": 73
    },
    {
      "midi": 69,
      "hit": false,
      "t": 23999.97599999999,
      "d": 666.6660000000011,
      "v": 72
    },
    {
      "midi": 73,
      "hit": false,
      "t": 23999.97599999999,
      "d": 666.6660000000011,
      "v": 72
    },
    {
      "midi": 57,
      "hit": false,
      "t": 24166.642499999944,
      "d": 166.66649999999936,
      "v": 75
    },
    {
      "midi": 57,
      "hit": false,
      "t": 24333.308999999943,
      "d": 166.66649999999936,
      "v": 78
    },
    {
      "midi": 57,
      "hit": false,
      "t": 24499.975499999942,
      "d": 166.66649999999936,
      "v": 81
    },
    {
      "midi": 57,
      "hit": false,
      "t": 24666.64199999994,
      "d": 166.66649999999936,
      "v": 84
    },
    {
      "midi": 57,
      "hit": false,
      "t": 24833.30849999994,
      "d": 166.66649999999936,
      "v": 88
    },
    {
      "midi": 73,
      "hit": false,
      "t": 24833.308499999992,
      "d": 166.66649999999936,
      "v": 88
    },
    {
      "midi": 76,
      "hit": false,
      "t": 24833.308499999992,
      "d": 166.66649999999936,
      "v": 88
    },
    {
      "midi": 57,
      "hit": false,
      "t": 24999.97499999994,
      "d": 166.66649999999936,
      "v": 91
    },
    {
      "midi": 76,
      "hit": false,
      "t": 24999.97499999999,
      "d": 166.66649999999936,
      "v": 91
    },
    {
      "midi": 79,
      "hit": false,
      "t": 24999.97499999999,
      "d": 166.66649999999936,
      "v": 91
    },
    {
      "midi": 57,
      "hit": false,
      "t": 25166.64149999994,
      "d": 166.66649999999936,
      "v": 94
    },
    {
      "midi": 57,
      "hit": false,
      "t": 25333.30799999994,
      "d": 166.66649999999936,
      "v": 72
    },
    {
      "midi": 74,
      "hit": false,
      "t": 25333.30799999999,
      "d": 166.66649999999936,
      "v": 96
    },
    {
      "midi": 77,
      "hit": false,
      "t": 25333.30799999999,
      "d": 166.66649999999936,
      "v": 96
    },
    {
      "midi": 57,
      "hit": false,
      "t": 25499.97449999994,
      "d": 166.66649999999936,
      "v": 72
    },
    {
      "midi": 57,
      "hit": false,
      "t": 25666.640999999938,
      "d": 166.66649999999936,
      "v": 72
    },
    {
      "midi": 67,
      "hit": false,
      "t": 25666.64099999999,
      "d": 666.6660000000011,
      "v": 72
    },
    {
      "midi": 70,
      "hit": false,
      "t": 25666.64099999999,
      "d": 666.6660000000011,
      "v": 72
    },
    {
      "midi": 73,
      "hit": false,
      "t": 25666.64099999999,
      "d": 666.6660000000011,
      "v": 72
    },
    {
      "midi": 76,
      "hit": false,
      "t": 25666.64099999999,
      "d": 666.6660000000011,
      "v": 72
    },
    {
      "midi": 57,
      "hit": false,
      "t": 25833.307499999937,
      "d": 166.66649999999936,
      "v": 72
    },
    {
      "midi": 57,
      "hit": false,
      "t": 25999.973999999936,
      "d": 166.66649999999936,
      "v": 72
    },
    {
      "midi": 57,
      "hit": false,
      "t": 26166.640499999936,
      "d": 166.66649999999936,
      "v": 72
    },
    {
      "midi": 57,
      "hit": false,
      "t": 26333.306999999935,
      "d": 166.66649999999936,
      "v": 72
    },
    {
      "midi": 77,
      "hit": false,
      "t": 26333.30699999999,
      "d": 166.66649999999936,
      "v": 72
    },
    {
      "midi": 68,
      "hit": false,
      "t": 26333.30699999999,
      "d": 333.3329999999987,
      "v": 72
    },
    {
      "midi": 71,
      "hit": false,
      "t": 26333.30699999999,
      "d": 333.3329999999987,
      "v": 72
    },
    {
      "midi": 57,
      "hit": false,
      "t": 26499.973499999935,
      "d": 166.66649999999936,
      "v": 72
    },
    {
      "midi": 57,
      "hit": false,
      "t": 26666.639999999934,
      "d": 166.66649999999936,
      "v": 72
    },
    {
      "midi": 74,
      "hit": false,
      "t": 26666.63999999999,
      "d": 166.66649999999936,
      "v": 72
    },
    {
      "midi": 64,
      "hit": false,
      "t": 26666.63999999999,
      "d": 333.3329999999987,
      "v": 72
    },
    {
      "midi": 69,
      "hit": false,
      "t": 26666.63999999999,
      "d": 333.3329999999987,
      "v": 72
    },
    {
      "midi": 73,
      "hit": false,
      "t": 26666.63999999999,
      "d": 333.3329999999987,
      "v": 72
    },
    {
      "midi": 57,
      "hit": false,
      "t": 26833.306499999933,
      "d": 166.66649999999936,
      "v": 72
    },
    {
      "midi": 57,
      "hit": false,
      "t": 26999.972999999933,
      "d": 166.66649999999936,
      "v": 72
    },
    {
      "midi": 67,
      "hit": false,
      "t": 26999.972999999987,
      "d": 666.6660000000011,
      "v": 110
    },
    {
      "midi": 70,
      "hit": false,
      "t": 26999.972999999987,
      "d": 666.6660000000011,
      "v": 72
    },
    {
      "midi": 73,
      "hit": false,
      "t": 26999.972999999987,
      "d": 666.6660000000011,
      "v": 72
    },
    {
      "midi": 76,
      "hit": false,
      "t": 26999.972999999987,
      "d": 666.6660000000011,
      "v": 72
    },
    {
      "midi": 57,
      "hit": false,
      "t": 27166.639499999932,
      "d": 166.66649999999936,
      "v": 72
    },
    {
      "midi": 57,
      "hit": false,
      "t": 27333.30599999993,
      "d": 166.66649999999936,
      "v": 72
    },
    {
      "midi": 57,
      "hit": false,
      "t": 27499.97249999993,
      "d": 166.66649999999936,
      "v": 72
    },
    {
      "midi": 57,
      "hit": false,
      "t": 27666.63899999993,
      "d": 166.66649999999936,
      "v": 72
    },
    {
      "midi": 77,
      "hit": false,
      "t": 27666.63899999999,
      "d": 166.66649999999936,
      "v": 72
    },
    {
      "midi": 68,
      "hit": false,
      "t": 27666.63899999999,
      "d": 333.3329999999987,
      "v": 72
    },
    {
      "midi": 71,
      "hit": false,
      "t": 27666.63899999999,
      "d": 333.3329999999987,
      "v": 72
    },
    {
      "midi": 57,
      "hit": false,
      "t": 27833.30549999993,
      "d": 166.66649999999936,
      "v": 72
    },
    {
      "midi": 57,
      "hit": false,
      "t": 27999.97199999993,
      "d": 166.66649999999936,
      "v": 72
    },
    {
      "midi": 64,
      "hit": false,
      "t": 27999.971999999987,
      "d": 166.66649999999936,
      "v": 72
    },
    {
      "midi": 69,
      "hit": false,
      "t": 27999.971999999987,
      "d": 166.66649999999936,
      "v": 72
    },
    {
      "midi": 73,
      "hit": false,
      "t": 27999.971999999987,
      "d": 166.66649999999936,
      "v": 72
    },
    {
      "midi": 74,
      "hit": false,
      "t": 27999.971999999987,
      "d": 166.66649999999936,
      "v": 72
    },
    {
      "midi": 57,
      "hit": false,
      "t": 28166.638499999928,
      "d": 166.66649999999936,
      "v": 72
    },
    {
      "midi": 57,
      "hit": false,
      "t": 28333.304999999928,
      "d": 166.66649999999936,
      "v": 72
    },
    {
      "midi": 76,
      "hit": false,
      "t": 28333.304999999986,
      "d": 166.66649999999936,
      "v": 72
    },
    {
      "midi": 77,
      "hit": false,
      "t": 28333.304999999986,
      "d": 166.66649999999936,
      "v": 110
    },
    {
      "midi": 68,
      "hit": false,
      "t": 28333.304999999986,
      "d": 333.3329999999987,
      "v": 72
    },
    {
      "midi": 71,
      "hit": false,
      "t": 28333.304999999986,
      "d": 333.3329999999987,
      "v": 72
    },
    {
      "midi": 57,
      "hit": false,
      "t": 28499.971499999927,
      "d": 166.66649999999936,
      "v": 72
    },
    {
      "midi": 57,
      "hit": false,
      "t": 28666.637999999926,
      "d": 166.66649999999936,
      "v": 72
    },
    {
      "midi": 64,
      "hit": false,
      "t": 28666.637999999984,
      "d": 166.66649999999936,
      "v": 72
    },
    {
      "midi": 69,
      "hit": false,
      "t": 28666.637999999984,
      "d": 166.66649999999936,
      "v": 72
    },
    {
      "midi": 73,
      "hit": false,
      "t": 28666.637999999984,
      "d": 166.66649999999936,
      "v": 72
    },
    {
      "midi": 74,
      "hit": false,
      "t": 28666.637999999984,
      "d": 166.66649999999936,
      "v": 72
    },
    {
      "midi": 57,
      "hit": false,
      "t": 28833.304499999926,
      "d": 166.66649999999936,
      "v": 72
    },
    {
      "midi": 57,
      "hit": false,
      "t": 28999.970999999925,
      "d": 166.66649999999936,
      "v": 72
    },
    {
      "midi": 76,
      "hit": false,
      "t": 28999.970999999983,
      "d": 166.66649999999936,
      "v": 72
    },
    {
      "midi": 77,
      "hit": false,
      "t": 28999.970999999983,
      "d": 166.66649999999936,
      "v": 110
    },
    {
      "midi": 68,
      "hit": false,
      "t": 28999.970999999983,
      "d": 333.3329999999987,
      "v": 72
    },
    {
      "midi": 71,
      "hit": false,
      "t": 28999.970999999983,
      "d": 333.3329999999987,
      "v": 72
    },
    {
      "midi": 57,
      "hit": false,
      "t": 29166.637499999924,
      "d": 166.66649999999936,
      "v": 72
    },
    {
      "midi": 57,
      "hit": false,
      "t": 29333.303999999924,
      "d": 333.3329999999987,
      "v": 72
    },
    {
      "midi": 74,
      "hit": false,
      "t": 29333.303999999982,
      "d": 166.66649999999936,
      "v": 72
    },
    {
      "midi": 64,
      "hit": false,
      "t": 29333.303999999982,
      "d": 333.3329999999987,
      "v": 72
    },
    {
      "midi": 69,
      "hit": false,
      "t": 29333.303999999982,
      "d": 333.3329999999987,
      "v": 72
    },
    {
      "midi": 73,
      "hit": false,
      "t": 29333.303999999982,
      "d": 333.3329999999987,
      "v": 72
    },
    {
      "midi": 76,
      "hit": false,
      "t": 29999.96999999998,
      "d": 666.6660000000011,
      "v": 72
    },
    {
      "midi": 79,
      "hit": false,
      "t": 30666.63599999998,
      "d": 999.9989999999998,
      "v": 72
    },
    {
      "midi": 61,
      "hit": false,
      "t": 31666.63499999998,
      "d": 333.3329999999987,
      "v": 72
    },
    {
      "midi": 73,
      "hit": false,
      "t": 31666.63499999998,
      "d": 333.3329999999987,
      "v": 72
    },
    {
      "midi": 38,
      "hit": false,
      "t": 31999.96799999992,
      "d": 166.66649999999936,
      "v": 72
    },
    {
      "midi": 62,
      "hit": false,
      "t": 31999.96799999998,
      "d": 666.6660000000011,
      "v": 72
    },
    {
      "midi": 74,
      "hit": false,
      "t": 31999.96799999998,
      "d": 666.6660000000011,
      "v": 72
    },
    {
      "midi": 50,
      "hit": false,
      "t": 32166.63449999992,
      "d": 166.66649999999936,
      "v": 72
    },
    {
      "midi": 45,
      "hit": false,
      "t": 32333.30099999992,
      "d": 166.66649999999936,
      "v": 72
    },
    {
      "midi": 50,
      "hit": false,
      "t": 32499.96749999992,
      "d": 166.66649999999936,
      "v": 72
    },
    {
      "midi": 37,
      "hit": false,
      "t": 32666.633999999918,
      "d": 166.66649999999936,
      "v": 72
    },
    {
      "midi": 69,
      "hit": false,
      "t": 32666.63399999998,
      "d": 666.6660000000011,
      "v": 72
    },
    {
      "midi": 81,
      "hit": false,
      "t": 32666.63399999998,
      "d": 666.6660000000011,
      "v": 72
    },
    {
      "midi": 49,
      "hit": false,
      "t": 32833.30049999992,
      "d": 166.66649999999936,
      "v": 72
    },
    {
      "midi": 45,
      "hit": false,
      "t": 32999.96699999992,
      "d": 166.66649999999936,
      "v": 72
    },
    {
      "midi": 49,
      "hit": false,
      "t": 33166.633499999916,
      "d": 166.66649999999936,
      "v": 72
    },
    {
      "midi": 38,
      "hit": false,
      "t": 33333.299999999916,
      "d": 166.66649999999936,
      "v": 72
    },
    {
      "midi": 67,
      "hit": false,
      "t": 33333.29999999998,
      "d": 333.3329999999987,
      "v": 72
    },
    {
      "midi": 79,
      "hit": false,
      "t": 33333.29999999998,
      "d": 333.3329999999987,
      "v": 72
    },
    {
      "midi": 50,
      "hit": false,
      "t": 33499.966499999915,
      "d": 166.66649999999936,
      "v": 72
    },
    {
      "midi": 45,
      "hit": false,
      "t": 33666.632999999914,
      "d": 166.66649999999936,
      "v": 72
    },
    {
      "midi": 65,
      "hit": false,
      "t": 33666.63299999998,
      "d": 166.66649999999936,
      "v": 72
    },
    {
      "midi": 77,
      "hit": false,
      "t": 33666.63299999998,
      "d": 166.66649999999936,
      "v": 72
    },
    {
      "midi": 50,
      "hit": false,
      "t": 33833.299499999914,
      "d": 166.66649999999936,
      "v": 72
    },
    {
      "midi": 38,
      "hit": false,
      "t": 33999.96599999991,
      "d": 166.66649999999936,
      "v": 72
    },
    {
      "midi": 64,
      "hit": false,
      "t": 33999.96599999998,
      "d": 166.66649999999936,
      "v": 72
    },
    {
      "midi": 76,
      "hit": false,
      "t": 33999.96599999998,
      "d": 166.66649999999936,
      "v": 72
    },
    {
      "midi": 62,
      "hit": false,
      "t": 33999.96599999998,
      "d": 333.3329999999987,
      "v": 72
    },
    {
      "midi": 74,
      "hit": false,
      "t": 33999.96599999998,
      "d": 333.3329999999987,
      "v": 72
    },
    {
      "midi": 50,
      "hit": false,
      "t": 34166.63249999991,
      "d": 166.66649999999936,
      "v": 72
    },
    {
      "midi": 35,
      "hit": false,
      "t": 34333.29899999991,
      "d": 166.66649999999936,
      "v": 72
    },
    {
      "midi": 67,
      "hit": false,
      "t": 34333.29899999998,
      "d": 333.3329999999987,
      "v": 110
    },
    {
      "midi": 79,
      "hit": false,
      "t": 34333.29899999998,
      "d": 333.3329999999987,
      "v": 72
    },
    {
      "midi": 47,
      "hit": false,
      "t": 34499.96549999991,
      "d": 166.66649999999936,
      "v": 72
    },
    {
      "midi": 36,
      "hit": false,
      "t": 34666.63199999991,
      "d": 166.66649999999936,
      "v": 72
    },
    {
      "midi": 65,
      "hit": false,
      "t": 34666.631999999976,
      "d": 333.3329999999987,
      "v": 72
    },
    {
      "midi": 77,
      "hit": false,
      "t": 34666.631999999976,
      "d": 333.3329999999987,
      "v": 72
    },
    {
      "midi": 48,
      "hit": false,
      "t": 34833.29849999991,
      "d": 166.66649999999936,
      "v": 72
    },
    {
      "midi": 43,
      "hit": false,
      "t": 34999.96499999991,
      "d": 166.66649999999936,
      "v": 72
    },
    {
      "midi": 64,
      "hit": false,
      "t": 34999.964999999975,
      "d": 166.66649999999936,
      "v": 72
    },
    {
      "midi": 76,
      "hit": false,
      "t": 34999.964999999975,
      "d": 166.66649999999936,
      "v": 72
    },
    {
      "midi": 48,
      "hit": false,
      "t": 35166.63149999991,
      "d": 166.66649999999936,
      "v": 72
    },
    {
      "midi": 36,
      "hit": false,
      "t": 35333.29799999991,
      "d": 166.66649999999936,
      "v": 72
    },
    {
      "midi": 62,
      "hit": false,
      "t": 35333.29799999997,
      "d": 166.66649999999936,
      "v": 72
    },
    {
      "midi": 74,
      "hit": false,
      "t": 35333.29799999997,
      "d": 166.66649999999936,
      "v": 72
    },
    {
      "midi": 60,
      "hit": false,
      "t": 35333.29799999997,
      "d": 333.3329999999987,
      "v": 72
    },
    {
      "midi": 72,
      "hit": false,
      "t": 35333.29799999997,
      "d": 333.3329999999987,
      "v": 72
    },
    {
      "midi": 48,
      "hit": false,
      "t": 35499.96449999991,
      "d": 166.66649999999936,
      "v": 72
    },
    {
      "midi": 37,
      "hit": false,
      "t": 35666.63099999991,
      "d": 166.66649999999936,
      "v": 72
    },
    {
      "midi": 69,
      "hit": false,
      "t": 35666.63099999997,
      "d": 333.3329999999987,
      "v": 72
    },
    {
      "midi": 81,
      "hit": false,
      "t": 35666.63099999997,
      "d": 333.3329999999987,
      "v": 110
    },
    {
      "midi": 49,
      "hit": false,
      "t": 35833.297499999906,
      "d": 166.66649999999936,
      "v": 72
    },
    {
      "midi": 38,
      "hit": false,
      "t": 35999.963999999905,
      "d": 166.66649999999936,
      "v": 72
    },
    {
      "midi": 67,
      "hit": false,
      "t": 35999.96399999997,
      "d": 333.3329999999987,
      "v": 72
    },
    {
      "midi": 79,
      "hit": false,
      "t": 35999.96399999997,
      "d": 333.3329999999987,
      "v": 72
    },
    {
      "midi": 50,
      "hit": false,
      "t": 36166.630499999905,
      "d": 166.66649999999936,
      "v": 72
    },
    {
      "midi": 45,
      "hit": false,
      "t": 36333.296999999904,
      "d": 166.66649999999936,
      "v": 72
    },
    {
      "midi": 65,
      "hit": false,
      "t": 36333.29699999997,
      "d": 166.66649999999936,
      "v": 72
    },
    {
      "midi": 77,
      "hit": false,
      "t": 36333.29699999997,
      "d": 166.66649999999936,
      "v": 72
    },
    {
      "midi": 50,
      "hit": false,
      "t": 36499.9634999999,
      "d": 166.66649999999936,
      "v": 72
    },
    {
      "midi": 38,
      "hit": false,
      "t": 36666.6299999999,
      "d": 166.66649999999936,
      "v": 72
    },
    {
      "midi": 64,
      "hit": false,
      "t": 36666.62999999997,
      "d": 166.66649999999936,
      "v": 72
    },
    {
      "midi": 76,
      "hit": false,
      "t": 36666.62999999997,
      "d": 166.66649999999936,
      "v": 72
    },
    {
      "midi": 62,
      "hit": false,
      "t": 36666.62999999997,
      "d": 333.3329999999987,
      "v": 72
    },
    {
      "midi": 74,
      "hit": false,
      "t": 36666.62999999997,
      "d": 333.3329999999987,
      "v": 72
    },
    {
      "midi": 50,
      "hit": false,
      "t": 36833.2964999999,
      "d": 166.66649999999936,
      "v": 83
    },
    {
      "midi": 42,
      "hit": false,
      "t": 36999.9629999999,
      "d": 166.66649999999936,
      "v": 94
    },
    {
      "midi": 74,
      "hit": false,
      "t": 36999.96299999997,
      "d": 166.66649999999936,
      "v": 94
    },
    {
      "midi": 86,
      "hit": false,
      "t": 36999.96299999997,
      "d": 166.66649999999936,
      "v": 94
    },
    {
      "midi": 54,
      "hit": false,
      "t": 37166.6294999999,
      "d": 166.66649999999936,
      "v": 108
    },
    {
      "midi": 43,
      "hit": false,
      "t": 37333.2959999999,
      "d": 166.66649999999936,
      "v": 105
    },
    {
      "midi": 72,
      "hit": false,
      "t": 37333.295999999966,
      "d": 166.66649999999936,
      "v": 116
    },
    {
      "midi": 84,
      "hit": false,
      "t": 37333.295999999966,
      "d": 166.66649999999936,
      "v": 116
    },
    {
      "midi": 55,
      "hit": false,
      "t": 37499.9624999999,
      "d": 166.66649999999936,
      "v": 105
    },
    {
      "midi": 70,
      "hit": false,
      "t": 37499.962499999965,
      "d": 166.66649999999936,
      "v": 105
    },
    {
      "midi": 82,
      "hit": false,
      "t": 37499.962499999965,
      "d": 166.66649999999936,
      "v": 105
    },
    {
      "midi": 46,
      "hit": false,
      "t": 37666.6289999999,
      "d": 166.66649999999936,
      "v": 105
    },
    {
      "midi": 69,
      "hit": false,
      "t": 37666.628999999964,
      "d": 166.66649999999936,
      "v": 105
    },
    {
      "midi": 81,
      "hit": false,
      "t": 37666.628999999964,
      "d": 166.66649999999936,
      "v": 105
    },
    {
      "midi": 58,
      "hit": false,
      "t": 37833.2954999999,
      "d": 166.66649999999936,
      "v": 105
    },
    {
      "midi": 68,
      "hit": false,
      "t": 37833.295499999964,
      "d": 166.66649999999936,
      "v": 105
    },
    {
      "midi": 80,
      "hit": false,
      "t": 37833.295499999964,
      "d": 166.66649999999936,
      "v": 105
    },
    {
      "midi": 45,
      "hit": false,
      "t": 37999.9619999999,
      "d": 166.66649999999936,
      "v": 105
    },
    {
      "midi": 68,
      "hit": false,
      "t": 37999.96199999996,
      "d": 166.66649999999936,
      "v": 105
    },
    {
      "midi": 80,
      "hit": false,
      "t": 37999.96199999996,
      "d": 166.66649999999936,
      "v": 105
    },
    {
      "midi": 57,
      "hit": false,
      "t": 38166.6284999999,
      "d": 166.66649999999936,
      "v": 105
    },
    {
      "midi": 69,
      "hit": false,
      "t": 38166.62849999996,
      "d": 333.3329999999987,
      "v": 105
    },
    {
      "midi": 81,
      "hit": false,
      "t": 38166.62849999996,
      "d": 333.3329999999987,
      "v": 105
    },
    {
      "midi": 33,
      "hit": false,
      "t": 38333.2949999999,
      "d": 166.66649999999936,
      "v": 105
    },
    {
      "midi": 45,
      "hit": false,
      "t": 38499.961499999896,
      "d": 166.66649999999936,
      "v": 105
    },
    {
      "midi": 55,
      "hit": false,
      "t": 38499.96149999996,
      "d": 166.66649999999936,
      "v": 105
    },
    {
      "midi": 61,
      "hit": false,
      "t": 38499.96149999996,
      "d": 166.66649999999936,
      "v": 105
    },
    {
      "midi": 38,
      "hit": false,
      "t": 38666.627999999895,
      "d": 166.66649999999936,
      "v": 72
    },
    {
      "midi": 55,
      "hit": false,
      "t": 38666.62799999996,
      "d": 666.6659999999974,
      "v": 72
    },
    {
      "midi": 61,
      "hit": false,
      "t": 38666.62799999996,
      "d": 666.6659999999974,
      "v": 72
    },
    {
      "midi": 64,
      "hit": false,
      "t": 38666.62799999996,
      "d": 666.6659999999974,
      "v": 72
    },
    {
      "midi": 50,
      "hit": false,
      "t": 38833.294499999894,
      "d": 166.66649999999936,
      "v": 72
    },
    {
      "midi": 45,
      "hit": false,
      "t": 38999.960999999894,
      "d": 166.66649999999936,
      "v": 72
    },
    {
      "midi": 50,
      "hit": false,
      "t": 39166.62749999989,
      "d": 166.66649999999936,
      "v": 72
    },
    {
      "midi": 38,
      "hit": false,
      "t": 39333.29399999989,
      "d": 166.66649999999936,
      "v": 72
    },
    {
      "midi": 53,
      "hit": false,
      "t": 39333.29399999996,
      "d": 166.66649999999936,
      "v": 72
    },
    {
      "midi": 57,
      "hit": false,
      "t": 39333.29399999996,
      "d": 166.66649999999936,
      "v": 72
    },
    {
      "midi": 62,
      "hit": false,
      "t": 39333.29399999996,
      "d": 166.66649999999936,
      "v": 72
    },
    {
      "midi": 57,
      "hit": false,
      "t": 39499.96049999996,
      "d": 166.66649999999936,
      "v": 72
    },
    {
      "midi": 53,
      "hit": false,
      "t": 39666.62699999996,
      "d": 166.66649999999936,
      "v": 72
    },
    {
      "midi": 50,
      "hit": false,
      "t": 39833.29349999989,
      "d": 166.66649999999936,
      "v": 72
    },
    {
      "midi": 33,
      "hit": false,
      "t": 39999.95999999989,
      "d": 166.66649999999936,
      "v": 72
    },
    {
      "midi": 45,
      "hit": false,
      "t": 39999.95999999989,
      "d": 166.66649999999936,
      "v": 72
    },
    {
      "midi": 73,
      "hit": false,
      "t": 39999.959999999955,
      "d": 666.6659999999974,
      "v": 72
    },
    {
      "midi": 76,
      "hit": false,
      "t": 39999.959999999955,
      "d": 666.6659999999974,
      "v": 72
    },
    {
      "midi": 57,
      "hit": false,
      "t": 40166.62649999989,
      "d": 166.66649999999936,
      "v": 72
    },
    {
      "midi": 57,
      "hit": false,
      "t": 40333.29299999989,
      "d": 166.66649999999936,
      "v": 72
    },
    {
      "midi": 57,
      "hit": false,
      "t": 40499.95949999989,
      "d": 166.66649999999936,
      "v": 72
    },
    {
      "midi": 57,
      "hit": false,
      "t": 40666.62599999989,
      "d": 166.66649999999936,
      "v": 72
    },
    {
      "midi": 76,
      "hit": false,
      "t": 40666.62599999995,
      "d": 499.9994999999981,
      "v": 72
    },
    {
      "midi": 79,
      "hit": false,
      "t": 40666.62599999995,
      "d": 499.9994999999981,
      "v": 72
    },
    {
      "midi": 57,
      "hit": false,
      "t": 40833.29249999989,
      "d": 166.66649999999936,
      "v": 72
    },
    {
      "midi": 57,
      "hit": false,
      "t": 40999.958999999886,
      "d": 166.66649999999936,
      "v": 72
    },
    {
      "midi": 57,
      "hit": false,
      "t": 41166.625499999886,
      "d": 166.66649999999936,
      "v": 72
    },
    {
      "midi": 57,
      "hit": false,
      "t": 41333.291999999885,
      "d": 166.66649999999936,
      "v": 72
    },
    {
      "midi": 74,
      "hit": false,
      "t": 41333.29199999995,
      "d": 166.66649999999936,
      "v": 72
    },
    {
      "midi": 77,
      "hit": false,
      "t": 41333.29199999995,
      "d": 166.66649999999936,
      "v": 72
    },
    {
      "midi": 57,
      "hit": false,
      "t": 41499.958499999884,
      "d": 166.66649999999936,
      "v": 79
    },
    {
      "midi": 57,
      "hit": false,
      "t": 41666.62499999988,
      "d": 166.66649999999936,
      "v": 87
    },
    {
      "midi": 67,
      "hit": false,
      "t": 41666.62499999995,
      "d": 666.6659999999974,
      "v": 87
    },
    {
      "midi": 70,
      "hit": false,
      "t": 41666.62499999995,
      "d": 666.6659999999974,
      "v": 87
    },
    {
      "midi": 73,
      "hit": false,
      "t": 41666.62499999995,
      "d": 666.6659999999974,
      "v": 87
    },
    {
      "midi": 76,
      "hit": false,
      "t": 41666.62499999995,
      "d": 666.6659999999974,
      "v": 87
    },
    {
      "midi": 57,
      "hit": false,
      "t": 41833.29149999988,
      "d": 166.66649999999936,
      "v": 95
    },
    {
      "midi": 57,
      "hit": false,
      "t": 41999.95799999988,
      "d": 166.66649999999936,
      "v": 96
    },
    {
      "midi": 57,
      "hit": false,
      "t": 42166.62449999988,
      "d": 166.66649999999936,
      "v": 96
    },
    {
      "midi": 57,
      "hit": false,
      "t": 42333.29099999988,
      "d": 166.66649999999936,
      "v": 96
    },
    {
      "midi": 77,
      "hit": false,
      "t": 42333.29099999995,
      "d": 166.66649999999936,
      "v": 96
    },
    {
      "midi": 68,
      "hit": false,
      "t": 42333.29099999995,
      "d": 333.3329999999987,
      "v": 96
    },
    {
      "midi": 71,
      "hit": false,
      "t": 42333.29099999995,
      "d": 333.3329999999987,
      "v": 96
    },
    {
      "midi": 57,
      "hit": false,
      "t": 42499.95749999988,
      "d": 166.66649999999936,
      "v": 72
    },
    {
      "midi": 57,
      "hit": false,
      "t": 42666.62399999988,
      "d": 166.66649999999936,
      "v": 72
    },
    {
      "midi": 74,
      "hit": false,
      "t": 42666.623999999945,
      "d": 166.66649999999936,
      "v": 72
    },
    {
      "midi": 69,
      "hit": false,
      "t": 42666.623999999945,
      "d": 666.6659999999974,
      "v": 72
    },
    {
      "midi": 73,
      "hit": false,
      "t": 42666.623999999945,
      "d": 666.6659999999974,
      "v": 72
    },
    {
      "midi": 57,
      "hit": false,
      "t": 42833.29049999988,
      "d": 166.66649999999936,
      "v": 75
    },
    {
      "midi": 57,
      "hit": false,
      "t": 42999.95699999988,
      "d": 166.66649999999936,
      "v": 78
    },
    {
      "midi": 57,
      "hit": false,
      "t": 43166.62349999988,
      "d": 166.66649999999936,
      "v": 81
    },
    {
      "midi": 57,
      "hit": false,
      "t": 43333.28999999988,
      "d": 166.66649999999936,
      "v": 84
    },
    {
      "midi": 57,
      "hit": false,
      "t": 43499.95649999988,
      "d": 166.66649999999936,
      "v": 88
    },
    {
      "midi": 73,
      "hit": false,
      "t": 43499.95649999994,
      "d": 166.66649999999936,
      "v": 88
    },
    {
      "midi": 76,
      "hit": false,
      "t": 43499.95649999994,
      "d": 166.66649999999936,
      "v": 88
    },
    {
      "midi": 57,
      "hit": false,
      "t": 43666.622999999876,
      "d": 166.66649999999936,
      "v": 91
    },
    {
      "midi": 76,
      "hit": false,
      "t": 43666.62299999994,
      "d": 166.66649999999936,
      "v": 91
    },
    {
      "midi": 79,
      "hit": false,
      "t": 43666.62299999994,
      "d": 166.66649999999936,
      "v": 91
    },
    {
      "midi": 57,
      "hit": false,
      "t": 43833.289499999875,
      "d": 166.66649999999936,
      "v": 94
    },
    {
      "midi": 57,
      "hit": false,
      "t": 43999.955999999875,
      "d": 166.66649999999936,
      "v": 72
    },
    {
      "midi": 74,
      "hit": false,
      "t": 43999.95599999994,
      "d": 166.66649999999936,
      "v": 96
    },
    {
      "midi": 77,
      "hit": false,
      "t": 43999.95599999994,
      "d": 166.66649999999936,
      "v": 96
    },
    {
      "midi": 57,
      "hit": false,
      "t": 44166.622499999874,
      "d": 166.66649999999936,
      "v": 72
    },
    {
      "midi": 57,
      "hit": false,
      "t": 44333.28899999987,
      "d": 166.66649999999936,
      "v": 72
    },
    {
      "midi": 67,
      "hit": false,
      "t": 44333.28899999994,
      "d": 666.6659999999974,
      "v": 72
    },
    {
      "midi": 70,
      "hit": false,
      "t": 44333.28899999994,
      "d": 666.6659999999974,
      "v": 72
    },
    {
      "midi": 73,
      "hit": false,
      "t": 44333.28899999994,
      "d": 666.6659999999974,
      "v": 72
    },
    {
      "midi": 76,
      "hit": false,
      "t": 44333.28899999994,
      "d": 666.6659999999974,
      "v": 72
    },
    {
      "midi": 57,
      "hit": false,
      "t": 44499.95549999987,
      "d": 166.66649999999936,
      "v": 72
    },
    {
      "midi": 57,
      "hit": false,
      "t": 44666.62199999987,
      "d": 166.66649999999936,
      "v": 72
    },
    {
      "midi": 57,
      "hit": false,
      "t": 44833.28849999987,
      "d": 166.66649999999936,
      "v": 72
    },
    {
      "midi": 57,
      "hit": false,
      "t": 44999.95499999987,
      "d": 166.66649999999936,
      "v": 72
    },
    {
      "midi": 77,
      "hit": false,
      "t": 44999.954999999936,
      "d": 166.66649999999936,
      "v": 72
    },
    {
      "midi": 68,
      "hit": false,
      "t": 44999.954999999936,
      "d": 333.3329999999987,
      "v": 72
    },
    {
      "midi": 71,
      "hit": false,
      "t": 44999.954999999936,
      "d": 333.3329999999987,
      "v": 72
    },
    {
      "midi": 57,
      "hit": false,
      "t": 45166.62149999987,
      "d": 166.66649999999936,
      "v": 72
    },
    {
      "midi": 57,
      "hit": false,
      "t": 45333.28799999987,
      "d": 166.66649999999936,
      "v": 72
    },
    {
      "midi": 74,
      "hit": false,
      "t": 45333.287999999935,
      "d": 166.66649999999936,
      "v": 72
    },
    {
      "midi": 64,
      "hit": false,
      "t": 45333.287999999935,
      "d": 333.3329999999987,
      "v": 72
    },
    {
      "midi": 69,
      "hit": false,
      "t": 45333.287999999935,
      "d": 333.3329999999987,
      "v": 72
    },
    {
      "midi": 73,
      "hit": false,
      "t": 45333.287999999935,
      "d": 333.3329999999987,
      "v": 72
    },
    {
      "midi": 57,
      "hit": false,
      "t": 45499.95449999987,
      "d": 166.66649999999936,
      "v": 72
    },
    {
      "midi": 57,
      "hit": false,
      "t": 45666.62099999987,
      "d": 166.66649999999936,
      "v": 72
    },
    {
      "midi": 67,
      "hit": false,
      "t": 45666.620999999934,
      "d": 666.6659999999974,
      "v": 110
    },
    {
      "midi": 70,
      "hit": false,
      "t": 45666.620999999934,
      "d": 666.6659999999974,
      "v": 72
    },
    {
      "midi": 73,
      "hit": false,
      "t": 45666.620999999934,
      "d": 666.6659999999974,
      "v": 72
    },
    {
      "midi": 76,
      "hit": false,
      "t": 45666.620999999934,
      "d": 666.6659999999974,
      "v": 72
    },
    {
      "midi": 57,
      "hit": false,
      "t": 45833.28749999987,
      "d": 166.66649999999936,
      "v": 72
    },
    {
      "midi": 57,
      "hit": false,
      "t": 45999.95399999987,
      "d": 166.66649999999936,
      "v": 72
    },
    {
      "midi": 57,
      "hit": false,
      "t": 46166.620499999866,
      "d": 166.66649999999936,
      "v": 72
    },
    {
      "midi": 57,
      "hit": false,
      "t": 46333.286999999866,
      "d": 166.66649999999936,
      "v": 72
    },
    {
      "midi": 77,
      "hit": false,
      "t": 46333.28699999993,
      "d": 166.66649999999936,
      "v": 72
    },
    {
      "midi": 68,
      "hit": false,
      "t": 46333.28699999993,
      "d": 333.3329999999987,
      "v": 72
    },
    {
      "midi": 71,
      "hit": false,
      "t": 46333.28699999993,
      "d": 333.3329999999987,
      "v": 72
    },
    {
      "midi": 57,
      "hit": false,
      "t": 46499.953499999865,
      "d": 166.66649999999936,
      "v": 72
    },
    {
      "midi": 57,
      "hit": false,
      "t": 46666.619999999864,
      "d": 166.66649999999936,
      "v": 72
    },
    {
      "midi": 64,
      "hit": false,
      "t": 46666.61999999993,
      "d": 166.66649999999936,
      "v": 72
    },
    {
      "midi": 69,
      "hit": false,
      "t": 46666.61999999993,
      "d": 166.66649999999936,
      "v": 72
    },
    {
      "midi": 73,
      "hit": false,
      "t": 46666.61999999993,
      "d": 166.66649999999936,
      "v": 72
    },
    {
      "midi": 74,
      "hit": false,
      "t": 46666.61999999993,
      "d": 166.66649999999936,
      "v": 72
    },
    {
      "midi": 57,
      "hit": false,
      "t": 46833.286499999864,
      "d": 166.66649999999936,
      "v": 72
    },
    {
      "midi": 57,
      "hit": false,
      "t": 46999.95299999986,
      "d": 166.66649999999936,
      "v": 72
    },
    {
      "midi": 76,
      "hit": false,
      "t": 46999.95299999993,
      "d": 166.66649999999936,
      "v": 72
    },
    {
      "midi": 77,
      "hit": false,
      "t": 46999.95299999993,
      "d": 166.66649999999936,
      "v": 110
    },
    {
      "midi": 68,
      "hit": false,
      "t": 46999.95299999993,
      "d": 333.3329999999987,
      "v": 72
    },
    {
      "midi": 71,
      "hit": false,
      "t": 46999.95299999993,
      "d": 333.3329999999987,
      "v": 72
    },
    {
      "midi": 57,
      "hit": false,
      "t": 47166.61949999986,
      "d": 166.66649999999936,
      "v": 72
    },
    {
      "midi": 57,
      "hit": false,
      "t": 47333.28599999986,
      "d": 166.66649999999936,
      "v": 72
    },
    {
      "midi": 64,
      "hit": false,
      "t": 47333.28599999993,
      "d": 166.66649999999936,
      "v": 72
    },
    {
      "midi": 69,
      "hit": false,
      "t": 47333.28599999993,
      "d": 166.66649999999936,
      "v": 72
    },
    {
      "midi": 73,
      "hit": false,
      "t": 47333.28599999993,
      "d": 166.66649999999936,
      "v": 72
    },
    {
      "midi": 74,
      "hit": false,
      "t": 47333.28599999993,
      "d": 166.66649999999936,
      "v": 72
    },
    {
      "midi": 57,
      "hit": false,
      "t": 47499.95249999986,
      "d": 166.66649999999936,
      "v": 72
    },
    {
      "midi": 57,
      "hit": false,
      "t": 47666.61899999986,
      "d": 166.66649999999936,
      "v": 72
    },
    {
      "midi": 76,
      "hit": false,
      "t": 47666.618999999926,
      "d": 166.66649999999936,
      "v": 72
    },
    {
      "midi": 77,
      "hit": false,
      "t": 47666.618999999926,
      "d": 166.66649999999936,
      "v": 110
    },
    {
      "midi": 68,
      "hit": false,
      "t": 47666.618999999926,
      "d": 333.3329999999987,
      "v": 72
    },
    {
      "midi": 71,
      "hit": false,
      "t": 47666.618999999926,
      "d": 333.3329999999987,
      "v": 72
    },
    {
      "midi": 57,
      "hit": false,
      "t": 47833.28549999986,
      "d": 166.66649999999936,
      "v": 72
    },
    {
      "midi": 57,
      "hit": false,
      "t": 47999.95199999986,
      "d": 333.3329999999987,
      "v": 72
    },
    {
      "midi": 74,
      "hit": false,
      "t": 47999.951999999925,
      "d": 166.66649999999936,
      "v": 72
    },
    {
      "midi": 64,
      "hit": false,
      "t": 47999.951999999925,
      "d": 333.3329999999987,
      "v": 72
    },
    {
      "midi": 69,
      "hit": false,
      "t": 47999.951999999925,
      "d": 333.3329999999987,
      "v": 72
    },
    {
      "midi": 73,
      "hit": false,
      "t": 47999.951999999925,
      "d": 333.3329999999987,
      "v": 72
    },
    {
      "midi": 76,
      "hit": false,
      "t": 48666.61799999992,
      "d": 666.6659999999974,
      "v": 72
    },
    {
      "midi": 79,
      "hit": false,
      "t": 49333.28399999992,
      "d": 999.9990000000034,
      "v": 72
    },
    {
      "midi": 61,
      "hit": false,
      "t": 50333.28299999992,
      "d": 333.3329999999987,
      "v": 72
    },
    {
      "midi": 73,
      "hit": false,
      "t": 50333.28299999992,
      "d": 333.3329999999987,
      "v": 72
    },
    {
      "midi": 38,
      "hit": false,
      "t": 50666.615999999856,
      "d": 166.66649999999936,
      "v": 72
    },
    {
      "midi": 62,
      "hit": false,
      "t": 50666.61599999992,
      "d": 666.6659999999974,
      "v": 72
    },
    {
      "midi": 74,
      "hit": false,
      "t": 50666.61599999992,
      "d": 666.6659999999974,
      "v": 72
    },
    {
      "midi": 50,
      "hit": false,
      "t": 50833.282499999856,
      "d": 166.66649999999936,
      "v": 72
    },
    {
      "midi": 45,
      "hit": false,
      "t": 50999.948999999855,
      "d": 166.66649999999936,
      "v": 72
    },
    {
      "midi": 50,
      "hit": false,
      "t": 51166.615499999854,
      "d": 166.66649999999936,
      "v": 72
    },
    {
      "midi": 37,
      "hit": false,
      "t": 51333.281999999854,
      "d": 166.66649999999936,
      "v": 72
    },
    {
      "midi": 69,
      "hit": false,
      "t": 51333.28199999992,
      "d": 666.6659999999974,
      "v": 72
    },
    {
      "midi": 81,
      "hit": false,
      "t": 51333.28199999992,
      "d": 666.6659999999974,
      "v": 72
    },
    {
      "midi": 49,
      "hit": false,
      "t": 51499.94849999985,
      "d": 166.66649999999936,
      "v": 72
    },
    {
      "midi": 45,
      "hit": false,
      "t": 51666.61499999985,
      "d": 166.66649999999936,
      "v": 72
    },
    {
      "midi": 49,
      "hit": false,
      "t": 51833.28149999985,
      "d": 166.66649999999936,
      "v": 72
    },
    {
      "midi": 38,
      "hit": false,
      "t": 51999.94799999985,
      "d": 166.66649999999936,
      "v": 72
    },
    {
      "midi": 67,
      "hit": false,
      "t": 51999.94799999992,
      "d": 333.3329999999987,
      "v": 72
    },
    {
      "midi": 79,
      "hit": false,
      "t": 51999.94799999992,
      "d": 333.3329999999987,
      "v": 72
    },
    {
      "midi": 50,
      "hit": false,
      "t": 52166.61449999985,
      "d": 166.66649999999936,
      "v": 72
    },
    {
      "midi": 45,
      "hit": false,
      "t": 52333.28099999985,
      "d": 166.66649999999936,
      "v": 72
    },
    {
      "midi": 65,
      "hit": false,
      "t": 52333.280999999915,
      "d": 166.66649999999936,
      "v": 72
    },
    {
      "midi": 77,
      "hit": false,
      "t": 52333.280999999915,
      "d": 166.66649999999936,
      "v": 72
    },
    {
      "midi": 50,
      "hit": false,
      "t": 52499.94749999985,
      "d": 166.66649999999936,
      "v": 72
    },
    {
      "midi": 38,
      "hit": false,
      "t": 52666.61399999985,
      "d": 166.66649999999936,
      "v": 72
    },
    {
      "midi": 64,
      "hit": false,
      "t": 52666.613999999914,
      "d": 166.66649999999936,
      "v": 72
    },
    {
      "midi": 76,
      "hit": false,
      "t": 52666.613999999914,
      "d": 166.66649999999936,
      "v": 72
    },
    {
      "midi": 62,
      "hit": false,
      "t": 52666.613999999914,
      "d": 333.3329999999987,
      "v": 72
    },
    {
      "midi": 74,
      "hit": false,
      "t": 52666.613999999914,
      "d": 333.3329999999987,
      "v": 72
    },
    {
      "midi": 50,
      "hit": false,
      "t": 52833.28049999985,
      "d": 166.66649999999936,
      "v": 72
    },
    {
      "midi": 35,
      "hit": false,
      "t": 52999.94699999985,
      "d": 166.66649999999936,
      "v": 72
    },
    {
      "midi": 67,
      "hit": false,
      "t": 52999.94699999991,
      "d": 333.3329999999987,
      "v": 110
    },
    {
      "midi": 79,
      "hit": false,
      "t": 52999.94699999991,
      "d": 333.3329999999987,
      "v": 72
    },
    {
      "midi": 47,
      "hit": false,
      "t": 53166.61349999985,
      "d": 166.66649999999936,
      "v": 72
    },
    {
      "midi": 36,
      "hit": false,
      "t": 53333.279999999846,
      "d": 166.66649999999936,
      "v": 72
    },
    {
      "midi": 65,
      "hit": false,
      "t": 53333.27999999991,
      "d": 333.3329999999987,
      "v": 72
    },
    {
      "midi": 77,
      "hit": false,
      "t": 53333.27999999991,
      "d": 333.3329999999987,
      "v": 72
    },
    {
      "midi": 48,
      "hit": false,
      "t": 53499.946499999845,
      "d": 166.66649999999936,
      "v": 72
    },
    {
      "midi": 43,
      "hit": false,
      "t": 53666.612999999845,
      "d": 166.66649999999936,
      "v": 72
    },
    {
      "midi": 64,
      "hit": false,
      "t": 53666.61299999991,
      "d": 166.66649999999936,
      "v": 72
    },
    {
      "midi": 76,
      "hit": false,
      "t": 53666.61299999991,
      "d": 166.66649999999936,
      "v": 72
    },
    {
      "midi": 48,
      "hit": false,
      "t": 53833.279499999844,
      "d": 166.66649999999936,
      "v": 72
    },
    {
      "midi": 36,
      "hit": false,
      "t": 53999.94599999984,
      "d": 166.66649999999936,
      "v": 72
    },
    {
      "midi": 62,
      "hit": false,
      "t": 53999.94599999991,
      "d": 166.66649999999936,
      "v": 72
    },
    {
      "midi": 74,
      "hit": false,
      "t": 53999.94599999991,
      "d": 166.66649999999936,
      "v": 72
    },
    {
      "midi": 60,
      "hit": false,
      "t": 53999.94599999991,
      "d": 333.3329999999987,
      "v": 72
    },
    {
      "midi": 72,
      "hit": false,
      "t": 53999.94599999991,
      "d": 333.3329999999987,
      "v": 72
    },
    {
      "midi": 48,
      "hit": false,
      "t": 54166.61249999984,
      "d": 166.66649999999936,
      "v": 72
    },
    {
      "midi": 37,
      "hit": false,
      "t": 54333.27899999984,
      "d": 166.66649999999936,
      "v": 72
    },
    {
      "midi": 69,
      "hit": false,
      "t": 54333.27899999991,
      "d": 333.3329999999987,
      "v": 72
    },
    {
      "midi": 81,
      "hit": false,
      "t": 54333.27899999991,
      "d": 333.3329999999987,
      "v": 110
    },
    {
      "midi": 49,
      "hit": false,
      "t": 54499.94549999984,
      "d": 166.66649999999936,
      "v": 72
    },
    {
      "midi": 38,
      "hit": false,
      "t": 54666.61199999984,
      "d": 166.66649999999936,
      "v": 72
    },
    {
      "midi": 67,
      "hit": false,
      "t": 54666.61199999991,
      "d": 333.3329999999987,
      "v": 72
    },
    {
      "midi": 79,
      "hit": false,
      "t": 54666.61199999991,
      "d": 333.3329999999987,
      "v": 72
    },
    {
      "midi": 50,
      "hit": false,
      "t": 54833.27849999984,
      "d": 166.66649999999936,
      "v": 72
    },
    {
      "midi": 45,
      "hit": false,
      "t": 54999.94499999984,
      "d": 166.66649999999936,
      "v": 72
    },
    {
      "midi": 65,
      "hit": false,
      "t": 54999.944999999905,
      "d": 166.66649999999936,
      "v": 72
    },
    {
      "midi": 77,
      "hit": false,
      "t": 54999.944999999905,
      "d": 166.66649999999936,
      "v": 72
    },
    {
      "midi": 50,
      "hit": false,
      "t": 55166.61149999984,
      "d": 166.66649999999936,
      "v": 72
    },
    {
      "midi": 38,
      "hit": false,
      "t": 55333.27799999984,
      "d": 166.66649999999936,
      "v": 72
    },
    {
      "midi": 64,
      "hit": false,
      "t": 55333.277999999904,
      "d": 166.66649999999936,
      "v": 72
    },
    {
      "midi": 76,
      "hit": false,
      "t": 55333.277999999904,
      "d": 166.66649999999936,
      "v": 72
    },
    {
      "midi": 62,
      "hit": false,
      "t": 55333.277999999904,
      "d": 333.3329999999987,
      "v": 72
    },
    {
      "midi": 74,
      "hit": false,
      "t": 55333.277999999904,
      "d": 333.3329999999987,
      "v": 72
    },
    {
      "midi": 50,
      "hit": false,
      "t": 55499.94449999984,
      "d": 166.66649999999936,
      "v": 83
    },
    {
      "midi": 42,
      "hit": false,
      "t": 55666.61099999984,
      "d": 166.66649999999936,
      "v": 94
    },
    {
      "midi": 74,
      "hit": false,
      "t": 55666.6109999999,
      "d": 166.66649999999936,
      "v": 94
    },
    {
      "midi": 86,
      "hit": false,
      "t": 55666.6109999999,
      "d": 166.66649999999936,
      "v": 94
    },
    {
      "midi": 54,
      "hit": false,
      "t": 55833.27749999984,
      "d": 166.66649999999936,
      "v": 108
    },
    {
      "midi": 43,
      "hit": false,
      "t": 55999.943999999836,
      "d": 166.66649999999936,
      "v": 105
    },
    {
      "midi": 72,
      "hit": false,
      "t": 55999.9439999999,
      "d": 166.66649999999936,
      "v": 116
    },
    {
      "midi": 84,
      "hit": false,
      "t": 55999.9439999999,
      "d": 166.66649999999936,
      "v": 116
    },
    {
      "midi": 55,
      "hit": false,
      "t": 56166.610499999835,
      "d": 166.66649999999936,
      "v": 105
    },
    {
      "midi": 70,
      "hit": false,
      "t": 56166.6104999999,
      "d": 166.66649999999936,
      "v": 105
    },
    {
      "midi": 82,
      "hit": false,
      "t": 56166.6104999999,
      "d": 166.66649999999936,
      "v": 105
    },
    {
      "midi": 46,
      "hit": false,
      "t": 56333.276999999835,
      "d": 166.66649999999936,
      "v": 105
    },
    {
      "midi": 69,
      "hit": false,
      "t": 56333.2769999999,
      "d": 166.66649999999936,
      "v": 105
    },
    {
      "midi": 81,
      "hit": false,
      "t": 56333.2769999999,
      "d": 166.66649999999936,
      "v": 105
    },
    {
      "midi": 58,
      "hit": false,
      "t": 56499.943499999834,
      "d": 166.66649999999936,
      "v": 105
    },
    {
      "midi": 68,
      "hit": false,
      "t": 56499.9434999999,
      "d": 166.66649999999936,
      "v": 105
    },
    {
      "midi": 80,
      "hit": false,
      "t": 56499.9434999999,
      "d": 166.66649999999936,
      "v": 105
    },
    {
      "midi": 45,
      "hit": false,
      "t": 56666.60999999983,
      "d": 166.66649999999936,
      "v": 105
    },
    {
      "midi": 68,
      "hit": false,
      "t": 56666.6099999999,
      "d": 166.66649999999936,
      "v": 105
    },
    {
      "midi": 80,
      "hit": false,
      "t": 56666.6099999999,
      "d": 166.66649999999936,
      "v": 105
    },
    {
      "midi": 57,
      "hit": false,
      "t": 56833.27649999983,
      "d": 166.66649999999936,
      "v": 105
    },
    {
      "midi": 69,
      "hit": false,
      "t": 56833.2764999999,
      "d": 333.3329999999987,
      "v": 105
    },
    {
      "midi": 81,
      "hit": false,
      "t": 56833.2764999999,
      "d": 333.3329999999987,
      "v": 105
    },
    {
      "midi": 33,
      "hit": false,
      "t": 56999.94299999983,
      "d": 166.66649999999936,
      "v": 105
    },
    {
      "midi": 45,
      "hit": false,
      "t": 57166.60949999983,
      "d": 166.66649999999936,
      "v": 105
    },
    {
      "midi": 55,
      "hit": false,
      "t": 57166.6094999999,
      "d": 166.66649999999936,
      "v": 105
    },
    {
      "midi": 61,
      "hit": false,
      "t": 57166.6094999999,
      "d": 166.66649999999936,
      "v": 105
    },
    {
      "midi": 38,
      "hit": false,
      "t": 57333.27599999983,
      "d": 166.66649999999936,
      "v": 72
    },
    {
      "midi": 55,
      "hit": false,
      "t": 57333.275999999896,
      "d": 666.6659999999974,
      "v": 72
    },
    {
      "midi": 61,
      "hit": false,
      "t": 57333.275999999896,
      "d": 666.6659999999974,
      "v": 72
    },
    {
      "midi": 64,
      "hit": false,
      "t": 57333.275999999896,
      "d": 666.6659999999974,
      "v": 72
    },
    {
      "midi": 50,
      "hit": false,
      "t": 57499.94249999983,
      "d": 166.66649999999936,
      "v": 72
    },
    {
      "midi": 45,
      "hit": false,
      "t": 57666.60899999983,
      "d": 166.66649999999936,
      "v": 72
    },
    {
      "midi": 50,
      "hit": false,
      "t": 57833.27549999983,
      "d": 166.66649999999936,
      "v": 72
    },
    {
      "midi": 38,
      "hit": false,
      "t": 57999.94199999983,
      "d": 166.66649999999936,
      "v": 72
    },
    {
      "midi": 53,
      "hit": false,
      "t": 57999.94199999989,
      "d": 333.3329999999987,
      "v": 72
    },
    {
      "midi": 57,
      "hit": false,
      "t": 57999.94199999989,
      "d": 333.3329999999987,
      "v": 72
    },
    {
      "midi": 62,
      "hit": false,
      "t": 57999.94199999989,
      "d": 333.3329999999987,
      "v": 72
    },
    {
      "midi": 57,
      "hit": false,
      "t": 58499.94149999989,
      "d": 166.66649999999936,
      "v": 72
    },
    {
      "midi": 50,
      "hit": false,
      "t": 58666.607999999826,
      "d": 166.66649999999936,
      "v": 72
    },
    {
      "midi": 57,
      "hit": false,
      "t": 58666.607999999826,
      "d": 166.66649999999936,
      "v": 72
    },
    {
      "midi": 62,
      "hit": false,
      "t": 58666.60799999989,
      "d": 166.66649999999936,
      "v": 72
    },
    {
      "midi": 66,
      "hit": false,
      "t": 58666.60799999989,
      "d": 166.66649999999936,
      "v": 72
    },
    {
      "midi": 50,
      "hit": false,
      "t": 58999.940999999824,
      "d": 166.66649999999936,
      "v": 72
    },
    {
      "midi": 57,
      "hit": false,
      "t": 58999.940999999824,
      "d": 166.66649999999936,
      "v": 72
    },
    {
      "midi": 62,
      "hit": false,
      "t": 58999.94099999989,
      "d": 166.66649999999936,
      "v": 72
    },
    {
      "midi": 66,
      "hit": false,
      "t": 58999.94099999989,
      "d": 166.66649999999936,
      "v": 72
    },
    {
      "midi": 80,
      "hit": false,
      "t": 59333.27399999989,
      "d": 166.66649999999936,
      "v": 72
    },
    {
      "midi": 81,
      "hit": false,
      "t": 59333.27399999989,
      "d": 166.66649999999936,
      "v": 72
    },
    {
      "midi": 74,
      "hit": false,
      "t": 59499.94049999989,
      "d": 166.66649999999936,
      "v": 72
    },
    {
      "midi": 78,
      "hit": false,
      "t": 59499.94049999989,
      "d": 166.66649999999936,
      "v": 72
    },
    {
      "midi": 69,
      "hit": false,
      "t": 59666.60699999989,
      "d": 166.66649999999936,
      "v": 72
    },
    {
      "midi": 66,
      "hit": false,
      "t": 59833.27349999989,
      "d": 166.66649999999936,
      "v": 72
    },
    {
      "midi": 67,
      "hit": false,
      "t": 59833.27349999989,
      "d": 166.66649999999936,
      "v": 72
    },
    {
      "midi": 43,
      "hit": false,
      "t": 59999.93999999982,
      "d": 166.66649999999936,
      "v": 72
    },
    {
      "midi": 55,
      "hit": false,
      "t": 59999.93999999982,
      "d": 166.66649999999936,
      "v": 72
    },
    {
      "midi": 59,
      "hit": false,
      "t": 59999.939999999886,
      "d": 166.66649999999936,
      "v": 72
    },
    {
      "midi": 62,
      "hit": false,
      "t": 59999.939999999886,
      "d": 166.66649999999936,
      "v": 72
    },
    {
      "midi": 64,
      "hit": false,
      "t": 59999.939999999886,
      "d": 166.66649999999936,
      "v": 72
    },
    {
      "midi": 43,
      "hit": false,
      "t": 60333.27299999982,
      "d": 166.66649999999936,
      "v": 72
    },
    {
      "midi": 55,
      "hit": false,
      "t": 60333.27299999982,
      "d": 166.66649999999936,
      "v": 72
    },
    {
      "midi": 59,
      "hit": false,
      "t": 60333.272999999885,
      "d": 166.66649999999936,
      "v": 72
    },
    {
      "midi": 62,
      "hit": false,
      "t": 60333.272999999885,
      "d": 166.66649999999936,
      "v": 72
    },
    {
      "midi": 64,
      "hit": false,
      "t": 60333.272999999885,
      "d": 166.66649999999936,
      "v": 72
    },
    {
      "midi": 82,
      "hit": false,
      "t": 60666.60599999988,
      "d": 166.66649999999936,
      "v": 72
    },
    {
      "midi": 83,
      "hit": false,
      "t": 60666.60599999988,
      "d": 166.66649999999936,
      "v": 72
    },
    {
      "midi": 76,
      "hit": false,
      "t": 60833.27249999988,
      "d": 166.66649999999936,
      "v": 72
    },
    {
      "midi": 79,
      "hit": false,
      "t": 60833.27249999988,
      "d": 166.66649999999936,
      "v": 72
    },
    {
      "midi": 71,
      "hit": false,
      "t": 60999.93899999988,
      "d": 166.66649999999936,
      "v": 72
    },
    {
      "midi": 64,
      "hit": false,
      "t": 61166.60549999988,
      "d": 166.66649999999936,
      "v": 72
    },
    {
      "midi": 67,
      "hit": false,
      "t": 61166.60549999988,
      "d": 166.66649999999936,
      "v": 72
    },
    {
      "midi": 45,
      "hit": false,
      "t": 61333.271999999815,
      "d": 166.66649999999936,
      "v": 72
    },
    {
      "midi": 52,
      "hit": false,
      "t": 61333.271999999815,
      "d": 166.66649999999936,
      "v": 72
    },
    {
      "midi": 55,
      "hit": false,
      "t": 61333.271999999815,
      "d": 166.66649999999936,
      "v": 72
    },
    {
      "midi": 61,
      "hit": false,
      "t": 61333.27199999988,
      "d": 166.66649999999936,
      "v": 72
    },
    {
      "midi": 45,
      "hit": false,
      "t": 61666.604999999814,
      "d": 166.66649999999936,
      "v": 72
    },
    {
      "midi": 52,
      "hit": false,
      "t": 61666.604999999814,
      "d": 166.66649999999936,
      "v": 72
    },
    {
      "midi": 55,
      "hit": false,
      "t": 61666.604999999814,
      "d": 166.66649999999936,
      "v": 72
    },
    {
      "midi": 61,
      "hit": false,
      "t": 61666.60499999988,
      "d": 166.66649999999936,
      "v": 72
    },
    {
      "midi": 78,
      "hit": false,
      "t": 61999.93799999988,
      "d": 166.66649999999936,
      "v": 72
    },
    {
      "midi": 79,
      "hit": false,
      "t": 61999.93799999988,
      "d": 166.66649999999936,
      "v": 72
    },
    {
      "midi": 73,
      "hit": false,
      "t": 62166.60449999988,
      "d": 166.66649999999936,
      "v": 72
    },
    {
      "midi": 76,
      "hit": false,
      "t": 62166.60449999988,
      "d": 166.66649999999936,
      "v": 72
    },
    {
      "midi": 67,
      "hit": false,
      "t": 62333.27099999988,
      "d": 166.66649999999936,
      "v": 72
    },
    {
      "midi": 61,
      "hit": false,
      "t": 62499.937499999876,
      "d": 166.66649999999936,
      "v": 72
    },
    {
      "midi": 64,
      "hit": false,
      "t": 62499.937499999876,
      "d": 166.66649999999936,
      "v": 72
    },
    {
      "midi": 38,
      "hit": false,
      "t": 62666.60399999981,
      "d": 166.66649999999936,
      "v": 72
    },
    {
      "midi": 50,
      "hit": false,
      "t": 62666.60399999981,
      "d": 166.66649999999936,
      "v": 72
    },
    {
      "midi": 62,
      "hit": false,
      "t": 62666.603999999876,
      "d": 166.66649999999936,
      "v": 72
    },
    {
      "midi": 57,
      "hit": false,
      "t": 62833.270499999875,
      "d": 166.66649999999936,
      "v": 72
    },
    {
      "midi": 66,
      "hit": false,
      "t": 62833.270499999875,
      "d": 166.66649999999936,
      "v": 72
    },
    {
      "midi": 33,
      "hit": false,
      "t": 62999.93699999981,
      "d": 166.66649999999936,
      "v": 72
    },
    {
      "midi": 45,
      "hit": false,
      "t": 62999.93699999981,
      "d": 166.66649999999936,
      "v": 72
    },
    {
      "midi": 61,
      "hit": false,
      "t": 62999.936999999874,
      "d": 166.66649999999936,
      "v": 72
    },
    {
      "midi": 64,
      "hit": false,
      "t": 62999.936999999874,
      "d": 166.66649999999936,
      "v": 72
    },
    {
      "midi": 57,
      "hit": false,
      "t": 63166.603499999874,
      "d": 166.66649999999936,
      "v": 72
    },
    {
      "midi": 67,
      "hit": false,
      "t": 63166.603499999874,
      "d": 166.66649999999936,
      "v": 72
    },
    {
      "midi": 38,
      "hit": false,
      "t": 63333.26999999981,
      "d": 166.66649999999936,
      "v": 72
    },
    {
      "midi": 50,
      "hit": false,
      "t": 63333.26999999981,
      "d": 166.66649999999936,
      "v": 72
    },
    {
      "midi": 62,
      "hit": false,
      "t": 63333.26999999987,
      "d": 166.66649999999936,
      "v": 72
    },
    {
      "midi": 66,
      "hit": false,
      "t": 63333.26999999987,
      "d": 166.66649999999936,
      "v": 72
    },
    {
      "midi": 73,
      "hit": false,
      "t": 63499.93649999987,
      "d": 166.66649999999936,
      "v": 72
    },
    {
      "midi": 74,
      "hit": false,
      "t": 63499.93649999987,
      "d": 166.66649999999936,
      "v": 92
    },
    {
      "midi": 71,
      "hit": false,
      "t": 63666.60299999987,
      "d": 166.66649999999936,
      "v": 72
    },
    {
      "midi": 67,
      "hit": false,
      "t": 63833.26949999987,
      "d": 166.66649999999936,
      "v": 72
    },
    {
      "midi": 69,
      "hit": false,
      "t": 63833.26949999987,
      "d": 166.66649999999936,
      "v": 72
    },
    {
      "midi": 50,
      "hit": false,
      "t": 63999.935999999805,
      "d": 166.66649999999936,
      "v": 72
    },
    {
      "midi": 57,
      "hit": false,
      "t": 63999.935999999805,
      "d": 166.66649999999936,
      "v": 72
    },
    {
      "midi": 62,
      "hit": false,
      "t": 63999.93599999987,
      "d": 166.66649999999936,
      "v": 72
    },
    {
      "midi": 66,
      "hit": false,
      "t": 63999.93599999987,
      "d": 166.66649999999936,
      "v": 72
    },
    {
      "midi": 50,
      "hit": false,
      "t": 64333.268999999804,
      "d": 166.66649999999936,
      "v": 72
    },
    {
      "midi": 57,
      "hit": false,
      "t": 64333.268999999804,
      "d": 166.66649999999936,
      "v": 72
    },
    {
      "midi": 62,
      "hit": false,
      "t": 64333.26899999987,
      "d": 166.66649999999936,
      "v": 72
    },
    {
      "midi": 66,
      "hit": false,
      "t": 64333.26899999987,
      "d": 166.66649999999936,
      "v": 72
    },
    {
      "midi": 80,
      "hit": false,
      "t": 64666.60199999987,
      "d": 166.66649999999936,
      "v": 72
    },
    {
      "midi": 81,
      "hit": false,
      "t": 64666.60199999987,
      "d": 166.66649999999936,
      "v": 72
    },
    {
      "midi": 74,
      "hit": false,
      "t": 64833.26849999987,
      "d": 166.66649999999936,
      "v": 72
    },
    {
      "midi": 78,
      "hit": false,
      "t": 64833.26849999987,
      "d": 166.66649999999936,
      "v": 72
    },
    {
      "midi": 69,
      "hit": false,
      "t": 64999.93499999987,
      "d": 166.66649999999936,
      "v": 72
    },
    {
      "midi": 66,
      "hit": false,
      "t": 65166.601499999866,
      "d": 166.66649999999936,
      "v": 72
    },
    {
      "midi": 67,
      "hit": false,
      "t": 65166.601499999866,
      "d": 166.66649999999936,
      "v": 72
    },
    {
      "midi": 44,
      "hit": false,
      "t": 65333.2679999998,
      "d": 166.66649999999936,
      "v": 105
    },
    {
      "midi": 52,
      "hit": false,
      "t": 65333.2679999998,
      "d": 166.66649999999936,
      "v": 105
    },
    {
      "midi": 59,
      "hit": false,
      "t": 65333.267999999865,
      "d": 166.66649999999936,
      "v": 105
    },
    {
      "midi": 62,
      "hit": false,
      "t": 65333.267999999865,
      "d": 166.66649999999936,
      "v": 105
    },
    {
      "midi": 64,
      "hit": false,
      "t": 65333.267999999865,
      "d": 166.66649999999936,
      "v": 105
    },
    {
      "midi": 44,
      "hit": false,
      "t": 65666.6009999998,
      "d": 166.66650000000664,
      "v": 105
    },
    {
      "midi": 52,
      "hit": false,
      "t": 65666.6009999998,
      "d": 166.66650000000664,
      "v": 105
    },
    {
      "midi": 59,
      "hit": false,
      "t": 65666.60099999986,
      "d": 166.66650000000664,
      "v": 105
    },
    {
      "midi": 62,
      "hit": false,
      "t": 65666.60099999986,
      "d": 166.66650000000664,
      "v": 105
    },
    {
      "midi": 64,
      "hit": false,
      "t": 65666.60099999986,
      "d": 166.66650000000664,
      "v": 105
    },
    {
      "midi": 85,
      "hit": false,
      "t": 65999.93399999988,
      "d": 166.66650000000664,
      "v": 105
    },
    {
      "midi": 86,
      "hit": false,
      "t": 65999.93399999988,
      "d": 166.66650000000664,
      "v": 98
    },
    {
      "midi": 80,
      "hit": false,
      "t": 66166.60049999988,
      "d": 166.66650000000664,
      "v": 81
    },
    {
      "midi": 83,
      "hit": false,
      "t": 66166.60049999988,
      "d": 166.66650000000664,
      "v": 88
    },
    {
      "midi": 76,
      "hit": false,
      "t": 66333.26699999989,
      "d": 166.66650000000664,
      "v": 77
    },
    {
      "midi": 71,
      "hit": false,
      "t": 66499.9334999999,
      "d": 166.66650000000664,
      "v": 61
    },
    {
      "midi": 74,
      "hit": false,
      "t": 66499.9334999999,
      "d": 166.66650000000664,
      "v": 69
    },
    {
      "midi": 57,
      "hit": false,
      "t": 66666.59999999982,
      "d": 333.3329999999987,
      "v": 72
    },
    {
      "midi": 64,
      "hit": false,
      "t": 66666.59999999982,
      "d": 333.3329999999987,
      "v": 72
    },
    {
      "midi": 73,
      "hit": false,
      "t": 66666.5999999999,
      "d": 166.66650000000664,
      "v": 72
    },
    {
      "midi": 80,
      "hit": false,
      "t": 66833.26649999991,
      "d": 166.66650000000664,
      "v": 72
    },
    {
      "midi": 81,
      "hit": false,
      "t": 66833.26649999991,
      "d": 166.66650000000664,
      "v": 72
    },
    {
      "midi": 81,
      "hit": false,
      "t": 66999.93299999992,
      "d": 166.66650000000664,
      "v": 72
    },
    {
      "midi": 73,
      "hit": false,
      "t": 67166.59949999992,
      "d": 166.66650000000664,
      "v": 72
    },
    {
      "midi": 76,
      "hit": false,
      "t": 67166.59949999992,
      "d": 166.66650000000664,
      "v": 72
    },
    {
      "midi": 52,
      "hit": false,
      "t": 67333.26599999981,
      "d": 333.3329999999987,
      "v": 72
    },
    {
      "midi": 62,
      "hit": false,
      "t": 67333.26599999981,
      "d": 333.3329999999987,
      "v": 72
    },
    {
      "midi": 71,
      "hit": false,
      "t": 67333.26599999993,
      "d": 166.66650000000664,
      "v": 72
    },
    {
      "midi": 75,
      "hit": false,
      "t": 67499.93249999994,
      "d": 166.66650000000664,
      "v": 72
    },
    {
      "midi": 76,
      "hit": false,
      "t": 67499.93249999994,
      "d": 166.66650000000664,
      "v": 72
    },
    {
      "midi": 76,
      "hit": false,
      "t": 67666.59899999994,
      "d": 166.66650000000664,
      "v": 72
    },
    {
      "midi": 71,
      "hit": false,
      "t": 67833.26549999995,
      "d": 166.66650000000664,
      "v": 72
    },
    {
      "midi": 74,
      "hit": false,
      "t": 67833.26549999995,
      "d": 166.66650000000664,
      "v": 72
    },
    {
      "midi": 57,
      "hit": false,
      "t": 67999.93199999981,
      "d": 333.3329999999987,
      "v": 72
    },
    {
      "midi": 61,
      "hit": false,
      "t": 67999.93199999981,
      "d": 333.3329999999987,
      "v": 72
    },
    {
      "midi": 69,
      "hit": false,
      "t": 67999.93199999996,
      "d": 166.66650000000664,
      "v": 72
    },
    {
      "midi": 64,
      "hit": false,
      "t": 68166.59849999996,
      "d": 166.66650000000664,
      "v": 72
    },
    {
      "midi": 73,
      "hit": false,
      "t": 68166.59849999996,
      "d": 166.66650000000664,
      "v": 72
    },
    {
      "midi": 57,
      "hit": false,
      "t": 68333.26499999981,
      "d": 333.3329999999987,
      "v": 72
    },
    {
      "midi": 61,
      "hit": false,
      "t": 68333.26499999981,
      "d": 333.3329999999987,
      "v": 72
    },
    {
      "midi": 69,
      "hit": false,
      "t": 68333.26499999997,
      "d": 166.66650000000664,
      "v": 72
    },
    {
      "midi": 64,
      "hit": false,
      "t": 68499.93149999998,
      "d": 166.66650000000664,
      "v": 72
    },
    {
      "midi": 73,
      "hit": false,
      "t": 68499.93149999998,
      "d": 166.66650000000664,
      "v": 72
    },
    {
      "midi": 57,
      "hit": false,
      "t": 68666.59799999981,
      "d": 333.3329999999987,
      "v": 72
    },
    {
      "midi": 61,
      "hit": false,
      "t": 68666.59799999981,
      "d": 333.3329999999987,
      "v": 72
    },
    {
      "midi": 69,
      "hit": false,
      "t": 68666.59799999998,
      "d": 166.66650000000664,
      "v": 72
    },
    {
      "midi": 73,
      "hit": false,
      "t": 68833.26449999999,
      "d": 166.66650000000664,
      "v": 72
    },
    {
      "midi": 76,
      "hit": false,
      "t": 68833.26449999999,
      "d": 166.66650000000664,
      "v": 92
    },
    {
      "midi": 69,
      "hit": false,
      "t": 68999.931,
      "d": 166.66650000000664,
      "v": 72
    },
    {
      "midi": 67,
      "hit": false,
      "t": 69166.5975,
      "d": 166.66650000000664,
      "v": 72
    },
    {
      "midi": 71,
      "hit": false,
      "t": 69166.5975,
      "d": 166.66650000000664,
      "v": 72
    },
    {
      "midi": 50,
      "hit": false,
      "t": 69333.2639999998,
      "d": 166.66650000000664,
      "v": 72
    },
    {
      "midi": 57,
      "hit": false,
      "t": 69333.2639999998,
      "d": 166.66650000000664,
      "v": 72
    },
    {
      "midi": 62,
      "hit": false,
      "t": 69333.26400000001,
      "d": 166.66650000000664,
      "v": 72
    },
    {
      "midi": 66,
      "hit": false,
      "t": 69333.26400000001,
      "d": 166.66650000000664,
      "v": 72
    },
    {
      "midi": 50,
      "hit": false,
      "t": 69666.59699999982,
      "d": 166.66650000000664,
      "v": 72
    },
    {
      "midi": 57,
      "hit": false,
      "t": 69666.59699999982,
      "d": 166.66650000000664,
      "v": 72
    },
    {
      "midi": 62,
      "hit": false,
      "t": 69666.59700000002,
      "d": 166.66650000000664,
      "v": 72
    },
    {
      "midi": 66,
      "hit": false,
      "t": 69666.59700000002,
      "d": 166.66650000000664,
      "v": 72
    },
    {
      "midi": 80,
      "hit": false,
      "t": 69999.93000000004,
      "d": 166.66650000000664,
      "v": 72
    },
    {
      "midi": 81,
      "hit": false,
      "t": 69999.93000000004,
      "d": 166.66650000000664,
      "v": 72
    },
    {
      "midi": 74,
      "hit": false,
      "t": 70166.59650000004,
      "d": 166.66650000000664,
      "v": 72
    },
    {
      "midi": 78,
      "hit": false,
      "t": 70166.59650000004,
      "d": 166.66650000000664,
      "v": 72
    },
    {
      "midi": 69,
      "hit": false,
      "t": 70333.26300000005,
      "d": 166.66650000000664,
      "v": 72
    },
    {
      "midi": 66,
      "hit": false,
      "t": 70499.92950000006,
      "d": 166.66650000000664,
      "v": 72
    },
    {
      "midi": 67,
      "hit": false,
      "t": 70499.92950000006,
      "d": 166.66650000000664,
      "v": 72
    },
    {
      "midi": 43,
      "hit": false,
      "t": 70666.59599999983,
      "d": 166.66650000000664,
      "v": 72
    },
    {
      "midi": 55,
      "hit": false,
      "t": 70666.59599999983,
      "d": 166.66650000000664,
      "v": 72
    },
    {
      "midi": 59,
      "hit": false,
      "t": 70666.59600000006,
      "d": 166.66650000000664,
      "v": 72
    },
    {
      "midi": 62,
      "hit": false,
      "t": 70666.59600000006,
      "d": 166.66650000000664,
      "v": 72
    },
    {
      "midi": 64,
      "hit": false,
      "t": 70666.59600000006,
      "d": 166.66650000000664,
      "v": 72
    },
    {
      "midi": 43,
      "hit": false,
      "t": 70999.92899999984,
      "d": 166.66650000000664,
      "v": 72
    },
    {
      "midi": 55,
      "hit": false,
      "t": 70999.92899999984,
      "d": 166.66650000000664,
      "v": 72
    },
    {
      "midi": 59,
      "hit": false,
      "t": 70999.92900000008,
      "d": 166.66650000000664,
      "v": 72
    },
    {
      "midi": 62,
      "hit": false,
      "t": 70999.92900000008,
      "d": 166.66650000000664,
      "v": 72
    },
    {
      "midi": 64,
      "hit": false,
      "t": 70999.92900000008,
      "d": 166.66650000000664,
      "v": 72
    },
    {
      "midi": 82,
      "hit": false,
      "t": 71333.26200000009,
      "d": 166.66650000000664,
      "v": 72
    },
    {
      "midi": 83,
      "hit": false,
      "t": 71333.26200000009,
      "d": 166.66650000000664,
      "v": 72
    },
    {
      "midi": 76,
      "hit": false,
      "t": 71499.9285000001,
      "d": 166.66650000000664,
      "v": 72
    },
    {
      "midi": 79,
      "hit": false,
      "t": 71499.9285000001,
      "d": 166.66650000000664,
      "v": 72
    },
    {
      "midi": 71,
      "hit": false,
      "t": 71666.5950000001,
      "d": 166.66650000000664,
      "v": 72
    },
    {
      "midi": 64,
      "hit": false,
      "t": 71833.26150000011,
      "d": 166.66650000000664,
      "v": 72
    },
    {
      "midi": 67,
      "hit": false,
      "t": 71833.26150000011,
      "d": 166.66650000000664,
      "v": 72
    },
    {
      "midi": 45,
      "hit": false,
      "t": 71999.92799999985,
      "d": 166.66650000000664,
      "v": 72
    },
    {
      "midi": 52,
      "hit": false,
      "t": 71999.92799999985,
      "d": 166.66650000000664,
      "v": 72
    },
    {
      "midi": 55,
      "hit": false,
      "t": 71999.92800000012,
      "d": 166.66650000000664,
      "v": 72
    },
    {
      "midi": 61,
      "hit": false,
      "t": 71999.92800000012,
      "d": 166.66650000000664,
      "v": 72
    },
    {
      "midi": 45,
      "hit": false,
      "t": 72333.26099999987,
      "d": 166.66650000000664,
      "v": 72
    },
    {
      "midi": 52,
      "hit": false,
      "t": 72333.26099999987,
      "d": 166.66650000000664,
      "v": 72
    },
    {
      "midi": 55,
      "hit": false,
      "t": 72333.26100000013,
      "d": 166.66650000000664,
      "v": 72
    },
    {
      "midi": 61,
      "hit": false,
      "t": 72333.26100000013,
      "d": 166.66650000000664,
      "v": 72
    },
    {
      "midi": 78,
      "hit": false,
      "t": 72666.59400000014,
      "d": 166.66650000000664,
      "v": 72
    },
    {
      "midi": 79,
      "hit": false,
      "t": 72666.59400000014,
      "d": 166.66650000000664,
      "v": 72
    },
    {
      "midi": 73,
      "hit": false,
      "t": 72833.26050000015,
      "d": 166.66650000000664,
      "v": 72
    },
    {
      "midi": 76,
      "hit": false,
      "t": 72833.26050000015,
      "d": 166.66650000000664,
      "v": 72
    },
    {
      "midi": 67,
      "hit": false,
      "t": 72999.92700000016,
      "d": 166.66650000000664,
      "v": 72
    },
    {
      "midi": 61,
      "hit": false,
      "t": 73166.59350000016,
      "d": 166.66650000000664,
      "v": 72
    },
    {
      "midi": 64,
      "hit": false,
      "t": 73166.59350000016,
      "d": 166.66650000000664,
      "v": 72
    },
    {
      "midi": 38,
      "hit": false,
      "t": 73333.25999999988,
      "d": 166.66650000000664,
      "v": 72
    },
    {
      "midi": 50,
      "hit": false,
      "t": 73333.25999999988,
      "d": 166.66650000000664,
      "v": 72
    },
    {
      "midi": 62,
      "hit": false,
      "t": 73333.26000000017,
      "d": 166.66650000000664,
      "v": 72
    },
    {
      "midi": 57,
      "hit": false,
      "t": 73499.92650000018,
      "d": 166.66650000000664,
      "v": 72
    },
    {
      "midi": 66,
      "hit": false,
      "t": 73499.92650000018,
      "d": 166.66650000000664,
      "v": 72
    },
    {
      "midi": 33,
      "hit": false,
      "t": 73666.59299999989,
      "d": 166.66650000000664,
      "v": 72
    },
    {
      "midi": 45,
      "hit": false,
      "t": 73666.59299999989,
      "d": 166.66650000000664,
      "v": 72
    },
    {
      "midi": 61,
      "hit": false,
      "t": 73666.59300000018,
      "d": 166.66650000000664,
      "v": 72
    },
    {
      "midi": 64,
      "hit": false,
      "t": 73666.59300000018,
      "d": 166.66650000000664,
      "v": 72
    },
    {
      "midi": 57,
      "hit": false,
      "t": 73833.25950000019,
      "d": 166.66650000000664,
      "v": 72
    },
    {
      "midi": 67,
      "hit": false,
      "t": 73833.25950000019,
      "d": 166.66650000000664,
      "v": 72
    },
    {
      "midi": 38,
      "hit": false,
      "t": 73999.9259999999,
      "d": 166.66650000000664,
      "v": 72
    },
    {
      "midi": 50,
      "hit": false,
      "t": 73999.9259999999,
      "d": 166.66650000000664,
      "v": 72
    },
    {
      "midi": 62,
      "hit": false,
      "t": 73999.9260000002,
      "d": 166.66650000000664,
      "v": 72
    },
    {
      "midi": 66,
      "hit": false,
      "t": 73999.9260000002,
      "d": 166.66650000000664,
      "v": 72
    },
    {
      "midi": 73,
      "hit": false,
      "t": 74166.5925000002,
      "d": 166.66650000000664,
      "v": 72
    },
    {
      "midi": 74,
      "hit": false,
      "t": 74166.5925000002,
      "d": 166.66650000000664,
      "v": 92
    },
    {
      "midi": 71,
      "hit": false,
      "t": 74333.25900000021,
      "d": 166.66650000000664,
      "v": 72
    },
    {
      "midi": 67,
      "hit": false,
      "t": 74499.92550000022,
      "d": 166.66650000000664,
      "v": 72
    },
    {
      "midi": 69,
      "hit": false,
      "t": 74499.92550000022,
      "d": 166.66650000000664,
      "v": 72
    },
    {
      "midi": 50,
      "hit": false,
      "t": 74666.59199999992,
      "d": 166.66650000000664,
      "v": 72
    },
    {
      "midi": 57,
      "hit": false,
      "t": 74666.59200000022,
      "d": 166.66650000000664,
      "v": 72
    },
    {
      "midi": 62,
      "hit": false,
      "t": 74666.59200000022,
      "d": 166.66650000000664,
      "v": 72
    },
    {
      "midi": 66,
      "hit": false,
      "t": 74666.59200000022,
      "d": 166.66650000000664,
      "v": 72
    },
    {
      "midi": 50,
      "hit": false,
      "t": 74999.92499999993,
      "d": 166.66650000000664,
      "v": 72
    },
    {
      "midi": 57,
      "hit": false,
      "t": 74999.92500000024,
      "d": 166.66650000000664,
      "v": 72
    },
    {
      "midi": 62,
      "hit": false,
      "t": 74999.92500000024,
      "d": 166.66650000000664,
      "v": 72
    },
    {
      "midi": 66,
      "hit": false,
      "t": 74999.92500000024,
      "d": 166.66650000000664,
      "v": 72
    },
    {
      "midi": 80,
      "hit": false,
      "t": 75333.25800000025,
      "d": 166.66650000000664,
      "v": 72
    },
    {
      "midi": 81,
      "hit": false,
      "t": 75333.25800000025,
      "d": 166.66650000000664,
      "v": 72
    },
    {
      "midi": 74,
      "hit": false,
      "t": 75499.92450000026,
      "d": 166.66650000000664,
      "v": 72
    },
    {
      "midi": 78,
      "hit": false,
      "t": 75499.92450000026,
      "d": 166.66650000000664,
      "v": 72
    },
    {
      "midi": 69,
      "hit": false,
      "t": 75666.59100000026,
      "d": 166.66650000000664,
      "v": 72
    },
    {
      "midi": 66,
      "hit": false,
      "t": 75833.25750000027,
      "d": 166.66650000000664,
      "v": 72
    },
    {
      "midi": 67,
      "hit": false,
      "t": 75833.25750000027,
      "d": 166.66650000000664,
      "v": 72
    },
    {
      "midi": 44,
      "hit": false,
      "t": 75999.92399999994,
      "d": 166.66650000000664,
      "v": 105
    },
    {
      "midi": 52,
      "hit": false,
      "t": 75999.92399999994,
      "d": 166.66650000000664,
      "v": 105
    },
    {
      "midi": 59,
      "hit": false,
      "t": 75999.92400000028,
      "d": 166.66650000000664,
      "v": 105
    },
    {
      "midi": 62,
      "hit": false,
      "t": 75999.92400000028,
      "d": 166.66650000000664,
      "v": 105
    },
    {
      "midi": 64,
      "hit": false,
      "t": 75999.92400000028,
      "d": 166.66650000000664,
      "v": 105
    },
    {
      "midi": 44,
      "hit": false,
      "t": 76333.25699999995,
      "d": 166.66650000000664,
      "v": 105
    },
    {
      "midi": 52,
      "hit": false,
      "t": 76333.25699999995,
      "d": 166.66650000000664,
      "v": 105
    },
    {
      "midi": 59,
      "hit": false,
      "t": 76333.25700000029,
      "d": 166.66650000000664,
      "v": 105
    },
    {
      "midi": 62,
      "hit": false,
      "t": 76333.25700000029,
      "d": 166.66650000000664,
      "v": 105
    },
    {
      "midi": 64,
      "hit": false,
      "t": 76333.25700000029,
      "d": 166.66650000000664,
      "v": 105
    },
    {
      "midi": 85,
      "hit": false,
      "t": 76666.5900000003,
      "d": 166.66650000000664,
      "v": 105
    },
    {
      "midi": 86,
      "hit": false,
      "t": 76666.5900000003,
      "d": 166.66650000000664,
      "v": 98
    },
    {
      "midi": 80,
      "hit": false,
      "t": 76833.25650000031,
      "d": 166.66650000000664,
      "v": 81
    },
    {
      "midi": 83,
      "hit": false,
      "t": 76833.25650000031,
      "d": 166.66650000000664,
      "v": 88
    },
    {
      "midi": 76,
      "hit": false,
      "t": 76999.92300000032,
      "d": 166.66650000000664,
      "v": 77
    },
    {
      "midi": 71,
      "hit": false,
      "t": 77166.58950000032,
      "d": 166.66650000000664,
      "v": 61
    },
    {
      "midi": 74,
      "hit": false,
      "t": 77166.58950000032,
      "d": 166.66650000000664,
      "v": 69
    },
    {
      "midi": 57,
      "hit": false,
      "t": 77333.25599999996,
      "d": 333.3329999999987,
      "v": 72
    },
    {
      "midi": 64,
      "hit": false,
      "t": 77333.25599999996,
      "d": 333.3329999999987,
      "v": 72
    },
    {
      "midi": 73,
      "hit": false,
      "t": 77333.25600000033,
      "d": 166.66650000000664,
      "v": 72
    },
    {
      "midi": 80,
      "hit": false,
      "t": 77499.92250000034,
      "d": 166.66650000000664,
      "v": 72
    },
    {
      "midi": 81,
      "hit": false,
      "t": 77499.92250000034,
      "d": 166.66650000000664,
      "v": 72
    },
    {
      "midi": 81,
      "hit": false,
      "t": 77666.58900000034,
      "d": 166.66650000000664,
      "v": 72
    },
    {
      "midi": 73,
      "hit": false,
      "t": 77833.25550000035,
      "d": 166.66650000000664,
      "v": 72
    },
    {
      "midi": 76,
      "hit": false,
      "t": 77833.25550000035,
      "d": 166.66650000000664,
      "v": 72
    },
    {
      "midi": 52,
      "hit": false,
      "t": 77999.92199999996,
      "d": 333.3329999999987,
      "v": 72
    },
    {
      "midi": 62,
      "hit": false,
      "t": 77999.92199999996,
      "d": 333.3329999999987,
      "v": 72
    },
    {
      "midi": 71,
      "hit": false,
      "t": 77999.92200000036,
      "d": 166.66650000000664,
      "v": 72
    },
    {
      "midi": 75,
      "hit": false,
      "t": 78166.58850000036,
      "d": 166.66650000000664,
      "v": 72
    },
    {
      "midi": 76,
      "hit": false,
      "t": 78166.58850000036,
      "d": 166.66650000000664,
      "v": 72
    },
    {
      "midi": 76,
      "hit": false,
      "t": 78333.25500000037,
      "d": 166.66650000000664,
      "v": 72
    },
    {
      "midi": 71,
      "hit": false,
      "t": 78499.92150000038,
      "d": 166.66650000000664,
      "v": 72
    },
    {
      "midi": 74,
      "hit": false,
      "t": 78499.92150000038,
      "d": 166.66650000000664,
      "v": 72
    },
    {
      "midi": 57,
      "hit": false,
      "t": 78666.58799999996,
      "d": 333.3329999999987,
      "v": 72
    },
    {
      "midi": 61,
      "hit": false,
      "t": 78666.58799999996,
      "d": 333.3329999999987,
      "v": 72
    },
    {
      "midi": 69,
      "hit": false,
      "t": 78666.58800000038,
      "d": 166.66650000000664,
      "v": 72
    },
    {
      "midi": 64,
      "hit": false,
      "t": 78833.25450000039,
      "d": 166.66650000000664,
      "v": 72
    },
    {
      "midi": 73,
      "hit": false,
      "t": 78833.25450000039,
      "d": 166.66650000000664,
      "v": 72
    },
    {
      "midi": 57,
      "hit": false,
      "t": 78999.92099999996,
      "d": 333.3329999999987,
      "v": 72
    },
    {
      "midi": 61,
      "hit": false,
      "t": 78999.92099999996,
      "d": 333.3329999999987,
      "v": 72
    },
    {
      "midi": 69,
      "hit": false,
      "t": 78999.9210000004,
      "d": 166.66650000000664,
      "v": 72
    },
    {
      "midi": 64,
      "hit": false,
      "t": 79166.5875000004,
      "d": 166.66650000000664,
      "v": 72
    },
    {
      "midi": 73,
      "hit": false,
      "t": 79166.5875000004,
      "d": 166.66650000000664,
      "v": 72
    },
    {
      "midi": 57,
      "hit": false,
      "t": 79333.25399999996,
      "d": 166.66650000000664,
      "v": 72
    },
    {
      "midi": 61,
      "hit": false,
      "t": 79333.25399999996,
      "d": 166.66650000000664,
      "v": 72
    },
    {
      "midi": 69,
      "hit": false,
      "t": 79333.25400000041,
      "d": 166.66650000000664,
      "v": 72
    },
    {
      "midi": 61,
      "hit": false,
      "t": 79499.92050000041,
      "d": 166.66650000000664,
      "v": 72
    },
    {
      "midi": 64,
      "hit": false,
      "t": 79499.92050000041,
      "d": 166.66650000000664,
      "v": 72
    },
    {
      "midi": 57,
      "hit": false,
      "t": 79666.58700000042,
      "d": 166.66650000000664,
      "v": 72
    },
    {
      "midi": 55,
      "hit": false,
      "t": 79833.25350000043,
      "d": 166.66650000000664,
      "v": 72
    },
    {
      "midi": 59,
      "hit": false,
      "t": 79833.25350000043,
      "d": 166.66650000000664,
      "v": 72
    },
    {
      "midi": 42,
      "hit": false,
      "t": 79999.91999999997,
      "d": 166.66650000000664,
      "v": 105
    },
    {
      "midi": 50,
      "hit": false,
      "t": 79999.91999999997,
      "d": 166.66650000000664,
      "v": 105
    },
    {
      "midi": 54,
      "hit": false,
      "t": 79999.92000000043,
      "d": 166.66650000000664,
      "v": 105
    },
    {
      "midi": 57,
      "hit": false,
      "t": 79999.92000000043,
      "d": 166.66650000000664,
      "v": 105
    },
    {
      "midi": 60,
      "hit": false,
      "t": 79999.92000000043,
      "d": 166.66650000000664,
      "v": 105
    },
    {
      "midi": 62,
      "hit": false,
      "t": 79999.92000000043,
      "d": 166.66650000000664,
      "v": 105
    },
    {
      "midi": 42,
      "hit": false,
      "t": 80333.25299999998,
      "d": 166.66650000000664,
      "v": 105
    },
    {
      "midi": 50,
      "hit": false,
      "t": 80333.25299999998,
      "d": 166.66650000000664,
      "v": 105
    },
    {
      "midi": 54,
      "hit": false,
      "t": 80333.25300000045,
      "d": 166.66650000000664,
      "v": 105
    },
    {
      "midi": 57,
      "hit": false,
      "t": 80333.25300000045,
      "d": 166.66650000000664,
      "v": 105
    },
    {
      "midi": 60,
      "hit": false,
      "t": 80333.25300000045,
      "d": 166.66650000000664,
      "v": 105
    },
    {
      "midi": 62,
      "hit": false,
      "t": 80333.25300000045,
      "d": 166.66650000000664,
      "v": 105
    },
    {
      "midi": 83,
      "hit": false,
      "t": 80666.58600000046,
      "d": 166.66650000000664,
      "v": 72
    },
    {
      "midi": 84,
      "hit": false,
      "t": 80666.58600000046,
      "d": 166.66650000000664,
      "v": 72
    },
    {
      "midi": 78,
      "hit": false,
      "t": 80833.25250000047,
      "d": 166.66650000000664,
      "v": 72
    },
    {
      "midi": 81,
      "hit": false,
      "t": 80833.25250000047,
      "d": 166.66650000000664,
      "v": 72
    },
    {
      "midi": 74,
      "hit": false,
      "t": 80999.91900000047,
      "d": 166.66650000000664,
      "v": 72
    },
    {
      "midi": 69,
      "hit": false,
      "t": 81166.58550000048,
      "d": 166.66650000000664,
      "v": 72
    },
    {
      "midi": 72,
      "hit": false,
      "t": 81166.58550000048,
      "d": 166.66650000000664,
      "v": 72
    },
    {
      "midi": 43,
      "hit": false,
      "t": 81333.252,
      "d": 166.66650000000664,
      "v": 105
    },
    {
      "midi": 50,
      "hit": false,
      "t": 81333.252,
      "d": 166.66650000000664,
      "v": 105
    },
    {
      "midi": 55,
      "hit": false,
      "t": 81333.25200000049,
      "d": 166.66650000000664,
      "v": 105
    },
    {
      "midi": 59,
      "hit": false,
      "t": 81333.25200000049,
      "d": 166.66650000000664,
      "v": 105
    },
    {
      "midi": 62,
      "hit": false,
      "t": 81333.25200000049,
      "d": 166.66650000000664,
      "v": 105
    },
    {
      "midi": 43,
      "hit": false,
      "t": 81666.585,
      "d": 166.66650000000664,
      "v": 105
    },
    {
      "midi": 50,
      "hit": false,
      "t": 81666.585,
      "d": 166.66650000000664,
      "v": 105
    },
    {
      "midi": 55,
      "hit": false,
      "t": 81666.5850000005,
      "d": 166.66650000000664,
      "v": 105
    },
    {
      "midi": 59,
      "hit": false,
      "t": 81666.5850000005,
      "d": 166.66650000000664,
      "v": 105
    },
    {
      "midi": 62,
      "hit": false,
      "t": 81666.5850000005,
      "d": 166.66650000000664,
      "v": 105
    },
    {
      "midi": 85,
      "hit": false,
      "t": 81999.91800000051,
      "d": 166.66650000000664,
      "v": 72
    },
    {
      "midi": 86,
      "hit": false,
      "t": 81999.91800000051,
      "d": 166.66650000000664,
      "v": 72
    },
    {
      "midi": 79,
      "hit": false,
      "t": 82166.58450000052,
      "d": 166.66650000000664,
      "v": 72
    },
    {
      "midi": 83,
      "hit": false,
      "t": 82166.58450000052,
      "d": 166.66650000000664,
      "v": 72
    },
    {
      "midi": 66,
      "hit": false,
      "t": 82333.25100000002,
      "d": 333.3329999999987,
      "v": 72
    },
    {
      "midi": 86,
      "hit": false,
      "t": 82333.25100000053,
      "d": 166.66650000000664,
      "v": 72
    },
    {
      "midi": 81,
      "hit": false,
      "t": 82499.91750000053,
      "d": 166.66650000000664,
      "v": 72
    },
    {
      "midi": 84,
      "hit": false,
      "t": 82499.91750000053,
      "d": 166.66650000000664,
      "v": 72
    },
    {
      "midi": 67,
      "hit": false,
      "t": 82666.58400000002,
      "d": 333.3329999999987,
      "v": 72
    },
    {
      "midi": 84,
      "hit": false,
      "t": 82666.58400000054,
      "d": 166.66650000000664,
      "v": 72
    },
    {
      "midi": 79,
      "hit": false,
      "t": 82833.25050000055,
      "d": 166.66650000000664,
      "v": 76
    },
    {
      "midi": 83,
      "hit": false,
      "t": 82833.25050000055,
      "d": 166.66650000000664,
      "v": 74
    },
    {
      "midi": 63,
      "hit": false,
      "t": 82999.91700000002,
      "d": 333.3329999999987,
      "v": 79
    },
    {
      "midi": 83,
      "hit": false,
      "t": 82999.91700000055,
      "d": 166.66650000000664,
      "v": 79
    },
    {
      "midi": 78,
      "hit": false,
      "t": 83166.58350000056,
      "d": 166.66650000000664,
      "v": 83
    },
    {
      "midi": 81,
      "hit": false,
      "t": 83166.58350000056,
      "d": 166.66650000000664,
      "v": 81
    },
    {
      "midi": 64,
      "hit": false,
      "t": 83333.25000000001,
      "d": 333.3329999999987,
      "v": 86
    },
    {
      "midi": 81,
      "hit": false,
      "t": 83333.25000000057,
      "d": 166.66650000000664,
      "v": 86
    },
    {
      "midi": 76,
      "hit": false,
      "t": 83499.91650000057,
      "d": 166.66650000000664,
      "v": 90
    },
    {
      "midi": 79,
      "hit": false,
      "t": 83499.91650000057,
      "d": 166.66650000000664,
      "v": 88
    },
    {
      "midi": 66,
      "hit": false,
      "t": 83666.58300000001,
      "d": 333.3329999999987,
      "v": 93
    },
    {
      "midi": 79,
      "hit": false,
      "t": 83666.58300000058,
      "d": 166.66650000000664,
      "v": 93
    },
    {
      "midi": 75,
      "hit": false,
      "t": 83833.24950000059,
      "d": 166.66650000000664,
      "v": 96
    },
    {
      "midi": 78,
      "hit": false,
      "t": 83833.24950000059,
      "d": 166.66650000000664,
      "v": 95
    },
    {
      "midi": 67,
      "hit": false,
      "t": 83999.91600000001,
      "d": 333.3329999999987,
      "v": 96
    },
    {
      "midi": 78,
      "hit": false,
      "t": 83999.9160000006,
      "d": 166.66650000000664,
      "v": 96
    },
    {
      "midi": 71,
      "hit": false,
      "t": 84166.5825000006,
      "d": 166.66650000000664,
      "v": 92
    },
    {
      "midi": 76,
      "hit": false,
      "t": 84166.5825000006,
      "d": 166.66650000000664,
      "v": 94
    },
    {
      "midi": 68,
      "hit": false,
      "t": 84333.24900000001,
      "d": 333.3329999999987,
      "v": 90
    },
    {
      "midi": 76,
      "hit": false,
      "t": 84333.24900000061,
      "d": 166.66650000000664,
      "v": 90
    },
    {
      "midi": 71,
      "hit": false,
      "t": 84499.91550000061,
      "d": 166.66650000000664,
      "v": 86
    },
    {
      "midi": 74,
      "hit": false,
      "t": 84499.91550000061,
      "d": 166.66650000000664,
      "v": 88
    },
    {
      "midi": 69,
      "hit": false,
      "t": 84666.58200000001,
      "d": 333.3329999999987,
      "v": 84
    },
    {
      "midi": 74,
      "hit": false,
      "t": 84666.58200000062,
      "d": 166.66650000000664,
      "v": 84
    },
    {
      "midi": 71,
      "hit": false,
      "t": 84833.24850000063,
      "d": 166.66650000000664,
      "v": 79
    },
    {
      "midi": 73,
      "hit": false,
      "t": 84833.24850000063,
      "d": 166.66650000000664,
      "v": 81
    },
    {
      "midi": 69,
      "hit": false,
      "t": 84999.91500000063,
      "d": 166.66650000000664,
      "v": 77
    },
    {
      "midi": 67,
      "hit": false,
      "t": 85166.58150000064,
      "d": 166.66650000000664,
      "v": 73
    },
    {
      "midi": 71,
      "hit": false,
      "t": 85166.58150000064,
      "d": 166.66650000000664,
      "v": 75
    },
    {
      "midi": 50,
      "hit": false,
      "t": 85333.248,
      "d": 166.66650000000664,
      "v": 72
    },
    {
      "midi": 57,
      "hit": false,
      "t": 85333.248,
      "d": 166.66650000000664,
      "v": 72
    },
    {
      "midi": 62,
      "hit": false,
      "t": 85333.24800000065,
      "d": 166.66650000000664,
      "v": 72
    },
    {
      "midi": 66,
      "hit": false,
      "t": 85333.24800000065,
      "d": 166.66650000000664,
      "v": 72
    },
    {
      "midi": 50,
      "hit": false,
      "t": 85666.58100000002,
      "d": 166.66650000000664,
      "v": 72
    },
    {
      "midi": 57,
      "hit": false,
      "t": 85666.58100000002,
      "d": 166.66650000000664,
      "v": 72
    },
    {
      "midi": 62,
      "hit": false,
      "t": 85666.58100000066,
      "d": 166.66650000000664,
      "v": 72
    },
    {
      "midi": 66,
      "hit": false,
      "t": 85666.58100000066,
      "d": 166.66650000000664,
      "v": 72
    },
    {
      "midi": 80,
      "hit": false,
      "t": 85999.91400000067,
      "d": 166.66650000000664,
      "v": 72
    },
    {
      "midi": 81,
      "hit": false,
      "t": 85999.91400000067,
      "d": 166.66650000000664,
      "v": 72
    },
    {
      "midi": 74,
      "hit": false,
      "t": 86166.58050000068,
      "d": 166.66650000000664,
      "v": 72
    },
    {
      "midi": 78,
      "hit": false,
      "t": 86166.58050000068,
      "d": 166.66650000000664,
      "v": 72
    },
    {
      "midi": 69,
      "hit": false,
      "t": 86333.24700000069,
      "d": 166.66650000000664,
      "v": 72
    },
    {
      "midi": 66,
      "hit": false,
      "t": 86499.9135000007,
      "d": 166.66650000000664,
      "v": 72
    },
    {
      "midi": 67,
      "hit": false,
      "t": 86499.9135000007,
      "d": 166.66650000000664,
      "v": 72
    },
    {
      "midi": 43,
      "hit": false,
      "t": 86666.58000000003,
      "d": 166.66650000000664,
      "v": 72
    },
    {
      "midi": 55,
      "hit": false,
      "t": 86666.58000000003,
      "d": 166.66650000000664,
      "v": 72
    },
    {
      "midi": 59,
      "hit": false,
      "t": 86666.5800000007,
      "d": 166.66650000000664,
      "v": 72
    },
    {
      "midi": 62,
      "hit": false,
      "t": 86666.5800000007,
      "d": 166.66650000000664,
      "v": 72
    },
    {
      "midi": 64,
      "hit": false,
      "t": 86666.5800000007,
      "d": 166.66650000000664,
      "v": 72
    },
    {
      "midi": 43,
      "hit": false,
      "t": 86999.91300000004,
      "d": 166.66650000000664,
      "v": 72
    },
    {
      "midi": 55,
      "hit": false,
      "t": 86999.91300000004,
      "d": 166.66650000000664,
      "v": 72
    },
    {
      "midi": 59,
      "hit": false,
      "t": 86999.91300000071,
      "d": 166.66650000000664,
      "v": 72
    },
    {
      "midi": 62,
      "hit": false,
      "t": 86999.91300000071,
      "d": 166.66650000000664,
      "v": 72
    },
    {
      "midi": 64,
      "hit": false,
      "t": 86999.91300000071,
      "d": 166.66650000000664,
      "v": 72
    },
    {
      "midi": 85,
      "hit": false,
      "t": 87333.24600000073,
      "d": 166.66650000000664,
      "v": 72
    },
    {
      "midi": 86,
      "hit": false,
      "t": 87333.24600000073,
      "d": 166.66650000000664,
      "v": 72
    },
    {
      "midi": 81,
      "hit": false,
      "t": 87499.91250000073,
      "d": 166.66650000000664,
      "v": 72
    },
    {
      "midi": 83,
      "hit": false,
      "t": 87499.91250000073,
      "d": 166.66650000000664,
      "v": 72
    },
    {
      "midi": 79,
      "hit": false,
      "t": 87666.57900000074,
      "d": 166.66650000000664,
      "v": 72
    },
    {
      "midi": 76,
      "hit": false,
      "t": 87833.24550000075,
      "d": 166.66650000000664,
      "v": 72
    },
    {
      "midi": 78,
      "hit": false,
      "t": 87833.24550000075,
      "d": 166.66650000000664,
      "v": 72
    },
    {
      "midi": 57,
      "hit": false,
      "t": 87999.91200000005,
      "d": 333.3329999999987,
      "v": 72
    },
    {
      "midi": 62,
      "hit": false,
      "t": 87999.91200000005,
      "d": 333.3329999999987,
      "v": 72
    },
    {
      "midi": 66,
      "hit": false,
      "t": 87999.91200000005,
      "d": 333.3329999999987,
      "v": 72
    },
    {
      "midi": 74,
      "hit": false,
      "t": 87999.91200000075,
      "d": 166.66650000000664,
      "v": 72
    },
    {
      "midi": 80,
      "hit": false,
      "t": 88166.57850000076,
      "d": 166.66650000000664,
      "v": 72
    },
    {
      "midi": 81,
      "hit": false,
      "t": 88166.57850000076,
      "d": 166.66650000000664,
      "v": 72
    },
    {
      "midi": 81,
      "hit": false,
      "t": 88333.24500000077,
      "d": 166.66650000000664,
      "v": 72
    },
    {
      "midi": 74,
      "hit": false,
      "t": 88499.91150000077,
      "d": 166.66650000000664,
      "v": 72
    },
    {
      "midi": 78,
      "hit": false,
      "t": 88499.91150000077,
      "d": 166.66650000000664,
      "v": 72
    },
    {
      "midi": 57,
      "hit": false,
      "t": 88666.57800000005,
      "d": 333.3329999999987,
      "v": 72
    },
    {
      "midi": 64,
      "hit": false,
      "t": 88666.57800000005,
      "d": 333.3329999999987,
      "v": 72
    },
    {
      "midi": 67,
      "hit": false,
      "t": 88666.57800000005,
      "d": 333.3329999999987,
      "v": 72
    },
    {
      "midi": 73,
      "hit": false,
      "t": 88666.57800000078,
      "d": 166.66650000000664,
      "v": 72
    },
    {
      "midi": 78,
      "hit": false,
      "t": 88833.24450000079,
      "d": 166.66650000000664,
      "v": 72
    },
    {
      "midi": 79,
      "hit": false,
      "t": 88833.24450000079,
      "d": 166.66650000000664,
      "v": 72
    },
    {
      "midi": 79,
      "hit": false,
      "t": 88999.9110000008,
      "d": 166.66650000000664,
      "v": 72
    },
    {
      "midi": 73,
      "hit": false,
      "t": 89166.5775000008,
      "d": 166.66650000000664,
      "v": 72
    },
    {
      "midi": 76,
      "hit": false,
      "t": 89166.5775000008,
      "d": 166.66650000000664,
      "v": 72
    },
    {
      "midi": 62,
      "hit": false,
      "t": 89333.24400000005,
      "d": 333.3329999999987,
      "v": 72
    },
    {
      "midi": 66,
      "hit": false,
      "t": 89333.24400000005,
      "d": 333.3329999999987,
      "v": 72
    },
    {
      "midi": 74,
      "hit": false,
      "t": 89333.2440000008,
      "d": 166.66650000000664,
      "v": 72
    },
    {
      "midi": 69,
      "hit": false,
      "t": 89499.91050000081,
      "d": 166.66650000000664,
      "v": 72
    },
    {
      "midi": 78,
      "hit": false,
      "t": 89499.91050000081,
      "d": 166.66650000000664,
      "v": 72
    },
    {
      "midi": 62,
      "hit": false,
      "t": 89666.57700000005,
      "d": 333.3329999999987,
      "v": 72
    },
    {
      "midi": 66,
      "hit": false,
      "t": 89666.57700000005,
      "d": 333.3329999999987,
      "v": 72
    },
    {
      "midi": 74,
      "hit": false,
      "t": 89666.57700000082,
      "d": 166.66650000000664,
      "v": 72
    },
    {
      "midi": 69,
      "hit": false,
      "t": 89833.24350000083,
      "d": 166.66650000000664,
      "v": 72
    },
    {
      "midi": 78,
      "hit": false,
      "t": 89833.24350000083,
      "d": 166.66650000000664,
      "v": 72
    },
    {
      "midi": 62,
      "hit": false,
      "t": 89999.91000000005,
      "d": 166.66650000000664,
      "v": 72
    },
    {
      "midi": 66,
      "hit": false,
      "t": 89999.91000000005,
      "d": 166.66650000000664,
      "v": 72
    },
    {
      "midi": 74,
      "hit": false,
      "t": 89999.91000000083,
      "d": 166.66650000000664,
      "v": 72
    },
    {
      "midi": 48,
      "hit": false,
      "t": 90166.57650000005,
      "d": 166.66650000000664,
      "v": 72
    },
    {
      "midi": 50,
      "hit": false,
      "t": 90166.57650000005,
      "d": 166.66650000000664,
      "v": 72
    },
    {
      "midi": 47,
      "hit": false,
      "t": 90333.24300000006,
      "d": 166.66650000000664,
      "v": 72
    },
    {
      "midi": 43,
      "hit": false,
      "t": 90499.90950000007,
      "d": 166.66650000000664,
      "v": 72
    },
    {
      "midi": 45,
      "hit": false,
      "t": 90499.90950000007,
      "d": 166.66650000000664,
      "v": 72
    },
    {
      "midi": 42,
      "hit": false,
      "t": 90666.57600000007,
      "d": 166.66650000000664,
      "v": 105
    },
    {
      "midi": 50,
      "hit": false,
      "t": 90666.57600000007,
      "d": 166.66650000000664,
      "v": 105
    },
    {
      "midi": 54,
      "hit": false,
      "t": 90666.57600000007,
      "d": 166.66650000000664,
      "v": 105
    },
    {
      "midi": 57,
      "hit": false,
      "t": 90666.57600000084,
      "d": 166.66650000000664,
      "v": 105
    },
    {
      "midi": 60,
      "hit": false,
      "t": 90666.57600000084,
      "d": 166.66650000000664,
      "v": 105
    },
    {
      "midi": 62,
      "hit": false,
      "t": 90666.57600000084,
      "d": 166.66650000000664,
      "v": 105
    },
    {
      "midi": 42,
      "hit": false,
      "t": 90999.90900000009,
      "d": 166.66650000000664,
      "v": 105
    },
    {
      "midi": 50,
      "hit": false,
      "t": 90999.90900000009,
      "d": 166.66650000000664,
      "v": 105
    },
    {
      "midi": 54,
      "hit": false,
      "t": 90999.90900000009,
      "d": 166.66650000000664,
      "v": 105
    },
    {
      "midi": 57,
      "hit": false,
      "t": 90999.90900000086,
      "d": 166.66650000000664,
      "v": 105
    },
    {
      "midi": 60,
      "hit": false,
      "t": 90999.90900000086,
      "d": 166.66650000000664,
      "v": 105
    },
    {
      "midi": 62,
      "hit": false,
      "t": 90999.90900000086,
      "d": 166.66650000000664,
      "v": 105
    },
    {
      "midi": 83,
      "hit": false,
      "t": 91333.24200000087,
      "d": 166.66650000000664,
      "v": 72
    },
    {
      "midi": 84,
      "hit": false,
      "t": 91333.24200000087,
      "d": 166.66650000000664,
      "v": 72
    },
    {
      "midi": 78,
      "hit": false,
      "t": 91499.90850000088,
      "d": 166.66650000000664,
      "v": 72
    },
    {
      "midi": 81,
      "hit": false,
      "t": 91499.90850000088,
      "d": 166.66650000000664,
      "v": 72
    },
    {
      "midi": 74,
      "hit": false,
      "t": 91666.57500000088,
      "d": 166.66650000000664,
      "v": 72
    },
    {
      "midi": 69,
      "hit": false,
      "t": 91833.24150000089,
      "d": 166.66650000000664,
      "v": 72
    },
    {
      "midi": 72,
      "hit": false,
      "t": 91833.24150000089,
      "d": 166.66650000000664,
      "v": 72
    },
    {
      "midi": 43,
      "hit": false,
      "t": 91999.9080000001,
      "d": 166.66650000000664,
      "v": 105
    },
    {
      "midi": 50,
      "hit": false,
      "t": 91999.9080000001,
      "d": 166.66650000000664,
      "v": 105
    },
    {
      "midi": 55,
      "hit": false,
      "t": 91999.9080000001,
      "d": 166.66650000000664,
      "v": 105
    },
    {
      "midi": 59,
      "hit": false,
      "t": 91999.9080000009,
      "d": 166.66650000000664,
      "v": 105
    },
    {
      "midi": 62,
      "hit": false,
      "t": 91999.9080000009,
      "d": 166.66650000000664,
      "v": 105
    },
    {
      "midi": 43,
      "hit": false,
      "t": 92333.24100000011,
      "d": 166.66650000000664,
      "v": 105
    },
    {
      "midi": 50,
      "hit": false,
      "t": 92333.24100000011,
      "d": 166.66650000000664,
      "v": 105
    },
    {
      "midi": 55,
      "hit": false,
      "t": 92333.24100000011,
      "d": 166.66650000000664,
      "v": 105
    },
    {
      "midi": 59,
      "hit": false,
      "t": 92333.24100000091,
      "d": 166.66650000000664,
      "v": 105
    },
    {
      "midi": 62,
      "hit": false,
      "t": 92333.24100000091,
      "d": 166.66650000000664,
      "v": 105
    },
    {
      "midi": 85,
      "hit": false,
      "t": 92666.57400000092,
      "d": 166.66650000000664,
      "v": 72
    },
    {
      "midi": 86,
      "hit": false,
      "t": 92666.57400000092,
      "d": 166.66650000000664,
      "v": 72
    },
    {
      "midi": 79,
      "hit": false,
      "t": 92833.24050000093,
      "d": 166.66650000000664,
      "v": 72
    },
    {
      "midi": 83,
      "hit": false,
      "t": 92833.24050000093,
      "d": 166.66650000000664,
      "v": 72
    },
    {
      "midi": 66,
      "hit": false,
      "t": 92999.90700000012,
      "d": 333.3329999999987,
      "v": 72
    },
    {
      "midi": 86,
      "hit": false,
      "t": 92999.90700000094,
      "d": 166.66650000000664,
      "v": 72
    },
    {
      "midi": 81,
      "hit": false,
      "t": 93166.57350000094,
      "d": 166.66650000000664,
      "v": 72
    },
    {
      "midi": 84,
      "hit": false,
      "t": 93166.57350000094,
      "d": 166.66650000000664,
      "v": 72
    },
    {
      "midi": 67,
      "hit": false,
      "t": 93333.24000000012,
      "d": 333.3329999999987,
      "v": 72
    },
    {
      "midi": 84,
      "hit": false,
      "t": 93333.24000000095,
      "d": 166.66650000000664,
      "v": 72
    },
    {
      "midi": 79,
      "hit": false,
      "t": 93499.90650000096,
      "d": 166.66650000000664,
      "v": 76
    },
    {
      "midi": 83,
      "hit": false,
      "t": 93499.90650000096,
      "d": 166.66650000000664,
      "v": 74
    },
    {
      "midi": 63,
      "hit": false,
      "t": 93666.57300000012,
      "d": 333.3329999999987,
      "v": 79
    },
    {
      "midi": 83,
      "hit": false,
      "t": 93666.57300000096,
      "d": 166.66650000000664,
      "v": 79
    },
    {
      "midi": 78,
      "hit": false,
      "t": 93833.23950000097,
      "d": 166.66650000000664,
      "v": 83
    },
    {
      "midi": 81,
      "hit": false,
      "t": 93833.23950000097,
      "d": 166.66650000000664,
      "v": 81
    },
    {
      "midi": 64,
      "hit": false,
      "t": 93999.90600000012,
      "d": 333.3329999999987,
      "v": 86
    },
    {
      "midi": 81,
      "hit": false,
      "t": 93999.90600000098,
      "d": 166.66650000000664,
      "v": 86
    },
    {
      "midi": 76,
      "hit": false,
      "t": 94166.57250000098,
      "d": 166.66650000000664,
      "v": 90
    },
    {
      "midi": 79,
      "hit": false,
      "t": 94166.57250000098,
      "d": 166.66650000000664,
      "v": 88
    },
    {
      "midi": 66,
      "hit": false,
      "t": 94333.23900000012,
      "d": 333.3329999999987,
      "v": 93
    },
    {
      "midi": 79,
      "hit": false,
      "t": 94333.23900000099,
      "d": 166.66650000000664,
      "v": 93
    },
    {
      "midi": 75,
      "hit": false,
      "t": 94499.905500001,
      "d": 166.66650000000664,
      "v": 96
    },
    {
      "midi": 78,
      "hit": false,
      "t": 94499.905500001,
      "d": 166.66650000000664,
      "v": 95
    },
    {
      "midi": 67,
      "hit": false,
      "t": 94666.57200000012,
      "d": 333.3329999999987,
      "v": 96
    },
    {
      "midi": 78,
      "hit": false,
      "t": 94666.572000001,
      "d": 166.66650000000664,
      "v": 96
    },
    {
      "midi": 71,
      "hit": false,
      "t": 94833.23850000101,
      "d": 166.66650000000664,
      "v": 92
    },
    {
      "midi": 76,
      "hit": false,
      "t": 94833.23850000101,
      "d": 166.66650000000664,
      "v": 94
    },
    {
      "midi": 68,
      "hit": false,
      "t": 94999.90500000012,
      "d": 333.3329999999987,
      "v": 90
    },
    {
      "midi": 76,
      "hit": false,
      "t": 94999.90500000102,
      "d": 166.66650000000664,
      "v": 90
    },
    {
      "midi": 71,
      "hit": false,
      "t": 95166.57150000102,
      "d": 166.66650000000664,
      "v": 86
    },
    {
      "midi": 74,
      "hit": false,
      "t": 95166.57150000102,
      "d": 166.66650000000664,
      "v": 88
    },
    {
      "midi": 69,
      "hit": false,
      "t": 95333.23800000011,
      "d": 333.3329999999987,
      "v": 84
    },
    {
      "midi": 74,
      "hit": false,
      "t": 95333.23800000103,
      "d": 166.66650000000664,
      "v": 84
    },
    {
      "midi": 71,
      "hit": false,
      "t": 95499.90450000104,
      "d": 166.66650000000664,
      "v": 79
    },
    {
      "midi": 73,
      "hit": false,
      "t": 95499.90450000104,
      "d": 166.66650000000664,
      "v": 81
    },
    {
      "midi": 69,
      "hit": false,
      "t": 95666.57100000104,
      "d": 166.66650000000664,
      "v": 77
    },
    {
      "midi": 67,
      "hit": false,
      "t": 95833.23750000105,
      "d": 166.66650000000664,
      "v": 73
    },
    {
      "midi": 71,
      "hit": false,
      "t": 95833.23750000105,
      "d": 166.66650000000664,
      "v": 75
    },
    {
      "midi": 50,
      "hit": false,
      "t": 95999.90400000011,
      "d": 166.66650000000664,
      "v": 72
    },
    {
      "midi": 57,
      "hit": false,
      "t": 95999.90400000011,
      "d": 166.66650000000664,
      "v": 72
    },
    {
      "midi": 62,
      "hit": false,
      "t": 95999.90400000106,
      "d": 166.66650000000664,
      "v": 72
    },
    {
      "midi": 66,
      "hit": false,
      "t": 95999.90400000106,
      "d": 166.66650000000664,
      "v": 72
    },
    {
      "midi": 50,
      "hit": false,
      "t": 96333.23700000012,
      "d": 166.66650000000664,
      "v": 72
    },
    {
      "midi": 57,
      "hit": false,
      "t": 96333.23700000012,
      "d": 166.66650000000664,
      "v": 72
    },
    {
      "midi": 62,
      "hit": false,
      "t": 96333.23700000107,
      "d": 166.66650000000664,
      "v": 72
    },
    {
      "midi": 66,
      "hit": false,
      "t": 96333.23700000107,
      "d": 166.66650000000664,
      "v": 72
    },
    {
      "midi": 80,
      "hit": false,
      "t": 96666.57000000108,
      "d": 166.66650000000664,
      "v": 72
    },
    {
      "midi": 81,
      "hit": false,
      "t": 96666.57000000108,
      "d": 166.66650000000664,
      "v": 72
    },
    {
      "midi": 74,
      "hit": false,
      "t": 96833.23650000109,
      "d": 166.66650000000664,
      "v": 72
    },
    {
      "midi": 78,
      "hit": false,
      "t": 96833.23650000109,
      "d": 166.66650000000664,
      "v": 72
    },
    {
      "midi": 69,
      "hit": false,
      "t": 96999.9030000011,
      "d": 166.66650000000664,
      "v": 72
    },
    {
      "midi": 66,
      "hit": false,
      "t": 97166.5695000011,
      "d": 166.66650000000664,
      "v": 72
    },
    {
      "midi": 67,
      "hit": false,
      "t": 97166.5695000011,
      "d": 166.66650000000664,
      "v": 72
    },
    {
      "midi": 43,
      "hit": false,
      "t": 97333.23600000014,
      "d": 166.66650000000664,
      "v": 72
    },
    {
      "midi": 55,
      "hit": false,
      "t": 97333.23600000014,
      "d": 166.66650000000664,
      "v": 72
    },
    {
      "midi": 59,
      "hit": false,
      "t": 97333.23600000014,
      "d": 166.66650000000664,
      "v": 72
    },
    {
      "midi": 62,
      "hit": false,
      "t": 97333.23600000111,
      "d": 166.66650000000664,
      "v": 72
    },
    {
      "midi": 64,
      "hit": false,
      "t": 97333.23600000111,
      "d": 166.66650000000664,
      "v": 72
    },
    {
      "midi": 43,
      "hit": false,
      "t": 97666.56900000015,
      "d": 166.66650000000664,
      "v": 72
    },
    {
      "midi": 55,
      "hit": false,
      "t": 97666.56900000015,
      "d": 166.66650000000664,
      "v": 72
    },
    {
      "midi": 59,
      "hit": false,
      "t": 97666.56900000015,
      "d": 166.66650000000664,
      "v": 72
    },
    {
      "midi": 62,
      "hit": false,
      "t": 97666.56900000112,
      "d": 166.66650000000664,
      "v": 72
    },
    {
      "midi": 64,
      "hit": false,
      "t": 97666.56900000112,
      "d": 166.66650000000664,
      "v": 72
    },
    {
      "midi": 85,
      "hit": false,
      "t": 97999.90200000114,
      "d": 166.66650000000664,
      "v": 72
    },
    {
      "midi": 86,
      "hit": false,
      "t": 97999.90200000114,
      "d": 166.66650000000664,
      "v": 72
    },
    {
      "midi": 81,
      "hit": false,
      "t": 98166.56850000114,
      "d": 166.66650000000664,
      "v": 72
    },
    {
      "midi": 83,
      "hit": false,
      "t": 98166.56850000114,
      "d": 166.66650000000664,
      "v": 72
    },
    {
      "midi": 79,
      "hit": false,
      "t": 98333.23500000115,
      "d": 166.66650000000664,
      "v": 72
    },
    {
      "midi": 76,
      "hit": false,
      "t": 98499.90150000116,
      "d": 166.66650000000664,
      "v": 72
    },
    {
      "midi": 78,
      "hit": false,
      "t": 98499.90150000116,
      "d": 166.66650000000664,
      "v": 72
    },
    {
      "midi": 57,
      "hit": false,
      "t": 98666.56800000016,
      "d": 333.3329999999987,
      "v": 72
    },
    {
      "midi": 62,
      "hit": false,
      "t": 98666.56800000016,
      "d": 333.3329999999987,
      "v": 72
    },
    {
      "midi": 66,
      "hit": false,
      "t": 98666.56800000016,
      "d": 333.3329999999987,
      "v": 72
    },
    {
      "midi": 74,
      "hit": false,
      "t": 98666.56800000116,
      "d": 166.66650000000664,
      "v": 72
    },
    {
      "midi": 80,
      "hit": false,
      "t": 98833.23450000117,
      "d": 166.66650000000664,
      "v": 72
    },
    {
      "midi": 81,
      "hit": false,
      "t": 98833.23450000117,
      "d": 166.66650000000664,
      "v": 72
    },
    {
      "midi": 81,
      "hit": false,
      "t": 98999.90100000118,
      "d": 166.66650000000664,
      "v": 72
    },
    {
      "midi": 74,
      "hit": false,
      "t": 99166.56750000118,
      "d": 166.66650000000664,
      "v": 72
    },
    {
      "midi": 78,
      "hit": false,
      "t": 99166.56750000118,
      "d": 166.66650000000664,
      "v": 72
    },
    {
      "midi": 57,
      "hit": false,
      "t": 99333.23400000016,
      "d": 333.3329999999987,
      "v": 72
    },
    {
      "midi": 64,
      "hit": false,
      "t": 99333.23400000016,
      "d": 333.3329999999987,
      "v": 72
    },
    {
      "midi": 67,
      "hit": false,
      "t": 99333.23400000016,
      "d": 333.3329999999987,
      "v": 72
    },
    {
      "midi": 73,
      "hit": false,
      "t": 99333.23400000119,
      "d": 166.66650000000664,
      "v": 72
    },
    {
      "midi": 78,
      "hit": false,
      "t": 99499.9005000012,
      "d": 166.66650000000664,
      "v": 72
    },
    {
      "midi": 79,
      "hit": false,
      "t": 99499.9005000012,
      "d": 166.66650000000664,
      "v": 72
    },
    {
      "midi": 79,
      "hit": false,
      "t": 99666.5670000012,
      "d": 166.66650000000664,
      "v": 72
    },
    {
      "midi": 73,
      "hit": false,
      "t": 99833.23350000121,
      "d": 166.66650000000664,
      "v": 72
    },
    {
      "midi": 76,
      "hit": false,
      "t": 99833.23350000121,
      "d": 166.66650000000664,
      "v": 72
    },
    {
      "midi": 62,
      "hit": false,
      "t": 99999.90000000015,
      "d": 333.3329999999987,
      "v": 72
    },
    {
      "midi": 66,
      "hit": false,
      "t": 99999.90000000015,
      "d": 333.3329999999987,
      "v": 72
    },
    {
      "midi": 74,
      "hit": false,
      "t": 99999.90000000122,
      "d": 166.66650000000664,
      "v": 72
    },
    {
      "midi": 69,
      "hit": false,
      "t": 100166.56650000122,
      "d": 166.66650000000664,
      "v": 72
    },
    {
      "midi": 78,
      "hit": false,
      "t": 100166.56650000122,
      "d": 166.66650000000664,
      "v": 72
    },
    {
      "midi": 62,
      "hit": false,
      "t": 100333.23300000015,
      "d": 333.3329999999987,
      "v": 72
    },
    {
      "midi": 66,
      "hit": false,
      "t": 100333.23300000015,
      "d": 333.3329999999987,
      "v": 72
    },
    {
      "midi": 74,
      "hit": false,
      "t": 100333.23300000123,
      "d": 166.66650000000664,
      "v": 72
    },
    {
      "midi": 69,
      "hit": false,
      "t": 100499.89950000124,
      "d": 166.66650000000664,
      "v": 72
    },
    {
      "midi": 78,
      "hit": false,
      "t": 100499.89950000124,
      "d": 166.66650000000664,
      "v": 72
    },
    {
      "midi": 62,
      "hit": false,
      "t": 100666.56600000015,
      "d": 333.3329999999987,
      "v": 72
    },
    {
      "midi": 66,
      "hit": false,
      "t": 100666.56600000015,
      "d": 333.3329999999987,
      "v": 72
    },
    {
      "midi": 74,
      "hit": false,
      "t": 100666.56600000124,
      "d": 333.3329999999987,
      "v": 72
    },
    {
      "midi": 57,
      "hit": false,
      "t": 100999.89900000015,
      "d": 333.3329999999987,
      "v": 72
    },
    {
      "midi": 38,
      "hit": false,
      "t": 101333.23200000015,
      "d": 166.66650000000664,
      "v": 72
    },
    {
      "midi": 53,
      "hit": false,
      "t": 101333.23200000124,
      "d": 666.6659999999974,
      "v": 72
    },
    {
      "midi": 57,
      "hit": false,
      "t": 101333.23200000124,
      "d": 666.6659999999974,
      "v": 72
    },
    {
      "midi": 62,
      "hit": false,
      "t": 101333.23200000124,
      "d": 666.6659999999974,
      "v": 72
    },
    {
      "midi": 50,
      "hit": false,
      "t": 101499.89850000016,
      "d": 166.66650000000664,
      "v": 72
    },
    {
      "midi": 45,
      "hit": false,
      "t": 101666.56500000016,
      "d": 166.66650000000664,
      "v": 72
    },
    {
      "midi": 50,
      "hit": false,
      "t": 101833.23150000017,
      "d": 166.66650000000664,
      "v": 72
    },
    {
      "midi": 37,
      "hit": false,
      "t": 101999.89800000018,
      "d": 166.66650000000664,
      "v": 72
    },
    {
      "midi": 57,
      "hit": false,
      "t": 101999.89800000124,
      "d": 666.6659999999974,
      "v": 72
    },
    {
      "midi": 64,
      "hit": false,
      "t": 101999.89800000124,
      "d": 666.6659999999974,
      "v": 72
    },
    {
      "midi": 69,
      "hit": false,
      "t": 101999.89800000124,
      "d": 666.6659999999974,
      "v": 72
    },
    {
      "midi": 49,
      "hit": false,
      "t": 102166.56450000018,
      "d": 166.66650000000664,
      "v": 72
    },
    {
      "midi": 45,
      "hit": false,
      "t": 102333.23100000019,
      "d": 166.66650000000664,
      "v": 72
    },
    {
      "midi": 49,
      "hit": false,
      "t": 102499.8975000002,
      "d": 166.66650000000664,
      "v": 72
    },
    {
      "midi": 38,
      "hit": false,
      "t": 102666.5640000002,
      "d": 166.66650000000664,
      "v": 72
    },
    {
      "midi": 57,
      "hit": false,
      "t": 102666.56400000124,
      "d": 333.3329999999987,
      "v": 72
    },
    {
      "midi": 62,
      "hit": false,
      "t": 102666.56400000124,
      "d": 333.3329999999987,
      "v": 72
    },
    {
      "midi": 67,
      "hit": false,
      "t": 102666.56400000124,
      "d": 333.3329999999987,
      "v": 72
    },
    {
      "midi": 50,
      "hit": false,
      "t": 102833.23050000021,
      "d": 166.66650000000664,
      "v": 72
    },
    {
      "midi": 45,
      "hit": false,
      "t": 102999.89700000022,
      "d": 166.66650000000664,
      "v": 72
    },
    {
      "midi": 65,
      "hit": false,
      "t": 102999.89700000123,
      "d": 166.66650000000664,
      "v": 72
    },
    {
      "midi": 50,
      "hit": false,
      "t": 103166.56350000022,
      "d": 166.66650000000664,
      "v": 72
    },
    {
      "midi": 38,
      "hit": false,
      "t": 103333.23000000023,
      "d": 166.66650000000664,
      "v": 72
    },
    {
      "midi": 64,
      "hit": false,
      "t": 103333.23000000125,
      "d": 166.66650000000664,
      "v": 72
    },
    {
      "midi": 62,
      "hit": false,
      "t": 103333.23000000125,
      "d": 333.33300000001327,
      "v": 72
    },
    {
      "midi": 50,
      "hit": false,
      "t": 103499.89650000024,
      "d": 166.66650000000664,
      "v": 72
    },
    {
      "midi": 41,
      "hit": false,
      "t": 103666.56300000024,
      "d": 166.66650000000664,
      "v": 72
    },
    {
      "midi": 62,
      "hit": false,
      "t": 103666.56300000126,
      "d": 333.3329999999987,
      "v": 72
    },
    {
      "midi": 69,
      "hit": false,
      "t": 103666.56300000126,
      "d": 333.3329999999987,
      "v": 72
    },
    {
      "midi": 74,
      "hit": false,
      "t": 103666.56300000126,
      "d": 333.3329999999987,
      "v": 72
    },
    {
      "midi": 53,
      "hit": false,
      "t": 103833.22950000025,
      "d": 166.66650000000664,
      "v": 72
    },
    {
      "midi": 46,
      "hit": false,
      "t": 103999.89600000026,
      "d": 166.66650000000664,
      "v": 72
    },
    {
      "midi": 64,
      "hit": false,
      "t": 103999.89600000126,
      "d": 333.3329999999987,
      "v": 72
    },
    {
      "midi": 67,
      "hit": false,
      "t": 103999.89600000126,
      "d": 333.3329999999987,
      "v": 72
    },
    {
      "midi": 74,
      "hit": false,
      "t": 103999.89600000126,
      "d": 333.3329999999987,
      "v": 72
    },
    {
      "midi": 58,
      "hit": false,
      "t": 104166.56250000026,
      "d": 166.66650000000664,
      "v": 75
    },
    {
      "midi": 45,
      "hit": false,
      "t": 104333.22900000027,
      "d": 166.66650000000664,
      "v": 78
    },
    {
      "midi": 65,
      "hit": false,
      "t": 104333.22900000126,
      "d": 333.3329999999987,
      "v": 78
    },
    {
      "midi": 69,
      "hit": false,
      "t": 104333.22900000126,
      "d": 333.3329999999987,
      "v": 78
    },
    {
      "midi": 74,
      "hit": false,
      "t": 104333.22900000126,
      "d": 333.3329999999987,
      "v": 78
    },
    {
      "midi": 57,
      "hit": false,
      "t": 104499.89550000028,
      "d": 166.66650000000664,
      "v": 81
    },
    {
      "midi": 43,
      "hit": false,
      "t": 104666.56200000028,
      "d": 166.66650000000664,
      "v": 85
    },
    {
      "midi": 64,
      "hit": false,
      "t": 104666.56200000126,
      "d": 333.3329999999987,
      "v": 85
    },
    {
      "midi": 70,
      "hit": false,
      "t": 104666.56200000126,
      "d": 333.3329999999987,
      "v": 85
    },
    {
      "midi": 74,
      "hit": false,
      "t": 104666.56200000126,
      "d": 333.3329999999987,
      "v": 85
    },
    {
      "midi": 55,
      "hit": false,
      "t": 104833.22850000029,
      "d": 166.66650000000664,
      "v": 88
    },
    {
      "midi": 44,
      "hit": false,
      "t": 104999.8950000003,
      "d": 166.66650000000664,
      "v": 91
    },
    {
      "midi": 65,
      "hit": false,
      "t": 104999.89500000126,
      "d": 333.3329999999987,
      "v": 91
    },
    {
      "midi": 71,
      "hit": false,
      "t": 104999.89500000126,
      "d": 333.3329999999987,
      "v": 91
    },
    {
      "midi": 74,
      "hit": false,
      "t": 104999.89500000126,
      "d": 333.3329999999987,
      "v": 91
    },
    {
      "midi": 56,
      "hit": false,
      "t": 105166.5615000003,
      "d": 166.66650000000664,
      "v": 94
    },
    {
      "midi": 45,
      "hit": false,
      "t": 105333.22800000031,
      "d": 166.66650000000664,
      "v": 72
    },
    {
      "midi": 65,
      "hit": false,
      "t": 105333.22800000125,
      "d": 666.6659999999974,
      "v": 72
    },
    {
      "midi": 69,
      "hit": false,
      "t": 105333.22800000125,
      "d": 666.6659999999974,
      "v": 72
    },
    {
      "midi": 74,
      "hit": false,
      "t": 105333.22800000125,
      "d": 666.6659999999974,
      "v": 72
    },
    {
      "midi": 57,
      "hit": false,
      "t": 105499.89450000032,
      "d": 166.66650000000664,
      "v": 72
    },
    {
      "midi": 56,
      "hit": false,
      "t": 105666.56100000032,
      "d": 166.66650000000664,
      "v": 72
    },
    {
      "midi": 57,
      "hit": false,
      "t": 105833.22750000033,
      "d": 166.66650000000664,
      "v": 72
    },
    {
      "midi": 45,
      "hit": false,
      "t": 105999.89400000033,
      "d": 166.66650000000664,
      "v": 72
    },
    {
      "midi": 64,
      "hit": false,
      "t": 105999.89400000125,
      "d": 333.3329999999987,
      "v": 72
    },
    {
      "midi": 69,
      "hit": false,
      "t": 105999.89400000125,
      "d": 333.3329999999987,
      "v": 72
    },
    {
      "midi": 73,
      "hit": false,
      "t": 105999.89400000125,
      "d": 333.3329999999987,
      "v": 72
    },
    {
      "midi": 57,
      "hit": false,
      "t": 106166.56050000034,
      "d": 166.66650000000664,
      "v": 72
    },
    {
      "midi": 43,
      "hit": false,
      "t": 106333.22700000035,
      "d": 166.66650000000664,
      "v": 72
    },
    {
      "midi": 55,
      "hit": false,
      "t": 106499.89350000035,
      "d": 166.66650000000664,
      "v": 72
    },
    {
      "midi": 41,
      "hit": false,
      "t": 106666.56000000036,
      "d": 166.66650000000664,
      "v": 72
    },
    {
      "midi": 57,
      "hit": false,
      "t": 106666.56000000036,
      "d": 166.66650000000664,
      "v": 72
    },
    {
      "midi": 60,
      "hit": false,
      "t": 106666.56000000125,
      "d": 666.6659999999974,
      "v": 72
    },
    {
      "midi": 65,
      "hit": false,
      "t": 106666.56000000125,
      "d": 666.6659999999974,
      "v": 72
    },
    {
      "midi": 53,
      "hit": false,
      "t": 106833.22650000037,
      "d": 166.66650000000664,
      "v": 72
    },
    {
      "midi": 48,
      "hit": false,
      "t": 106999.89300000037,
      "d": 166.66650000000664,
      "v": 72
    },
    {
      "midi": 53,
      "hit": false,
      "t": 107166.55950000038,
      "d": 166.66650000000664,
      "v": 72
    },
    {
      "midi": 40,
      "hit": false,
      "t": 107333.22600000039,
      "d": 166.66650000000664,
      "v": 72
    },
    {
      "midi": 60,
      "hit": false,
      "t": 107333.22600000125,
      "d": 666.6659999999974,
      "v": 72
    },
    {
      "midi": 67,
      "hit": false,
      "t": 107333.22600000125,
      "d": 666.6659999999974,
      "v": 72
    },
    {
      "midi": 72,
      "hit": false,
      "t": 107333.22600000125,
      "d": 666.6659999999974,
      "v": 72
    },
    {
      "midi": 52,
      "hit": false,
      "t": 107499.8925000004,
      "d": 166.66650000000664,
      "v": 72
    },
    {
      "midi": 48,
      "hit": false,
      "t": 107666.5590000004,
      "d": 166.66650000000664,
      "v": 72
    },
    {
      "midi": 52,
      "hit": false,
      "t": 107833.22550000041,
      "d": 166.66650000000664,
      "v": 72
    },
    {
      "midi": 41,
      "hit": false,
      "t": 107999.89200000041,
      "d": 166.66650000000664,
      "v": 72
    },
    {
      "midi": 60,
      "hit": false,
      "t": 107999.89200000124,
      "d": 333.3329999999987,
      "v": 72
    },
    {
      "midi": 65,
      "hit": false,
      "t": 107999.89200000124,
      "d": 333.3329999999987,
      "v": 72
    },
    {
      "midi": 70,
      "hit": false,
      "t": 107999.89200000124,
      "d": 333.3329999999987,
      "v": 72
    },
    {
      "midi": 53,
      "hit": false,
      "t": 108166.55850000042,
      "d": 166.66650000000664,
      "v": 72
    },
    {
      "midi": 48,
      "hit": false,
      "t": 108333.22500000043,
      "d": 166.66650000000664,
      "v": 72
    },
    {
      "midi": 69,
      "hit": false,
      "t": 108333.22500000124,
      "d": 166.66650000000664,
      "v": 72
    },
    {
      "midi": 53,
      "hit": false,
      "t": 108499.89150000043,
      "d": 166.66650000000664,
      "v": 72
    },
    {
      "midi": 41,
      "hit": false,
      "t": 108666.55800000044,
      "d": 166.66650000000664,
      "v": 72
    },
    {
      "midi": 68,
      "hit": false,
      "t": 108666.55800000126,
      "d": 166.66650000000664,
      "v": 72
    },
    {
      "midi": 69,
      "hit": false,
      "t": 108666.55800000126,
      "d": 333.33300000001327,
      "v": 72
    },
    {
      "midi": 53,
      "hit": false,
      "t": 108833.22450000045,
      "d": 166.66650000000664,
      "v": 72
    },
    {
      "midi": 38,
      "hit": false,
      "t": 108999.89100000045,
      "d": 166.66650000000664,
      "v": 72
    },
    {
      "midi": 65,
      "hit": false,
      "t": 108999.89100000127,
      "d": 333.3329999999987,
      "v": 72
    },
    {
      "midi": 69,
      "hit": false,
      "t": 108999.89100000127,
      "d": 333.3329999999987,
      "v": 72
    },
    {
      "midi": 71,
      "hit": false,
      "t": 108999.89100000127,
      "d": 333.3329999999987,
      "v": 72
    },
    {
      "midi": 50,
      "hit": false,
      "t": 109166.55750000046,
      "d": 166.66650000000664,
      "v": 72
    },
    {
      "midi": 40,
      "hit": false,
      "t": 109333.22400000047,
      "d": 166.66650000000664,
      "v": 72
    },
    {
      "midi": 64,
      "hit": false,
      "t": 109333.22400000127,
      "d": 666.6659999999974,
      "v": 72
    },
    {
      "midi": 69,
      "hit": false,
      "t": 109333.22400000127,
      "d": 666.6659999999974,
      "v": 72
    },
    {
      "midi": 72,
      "hit": false,
      "t": 109333.22400000127,
      "d": 666.6659999999974,
      "v": 72
    },
    {
      "midi": 52,
      "hit": false,
      "t": 109499.89050000047,
      "d": 166.66650000000664,
      "v": 75
    },
    {
      "midi": 45,
      "hit": false,
      "t": 109666.55700000048,
      "d": 166.66650000000664,
      "v": 78
    },
    {
      "midi": 52,
      "hit": false,
      "t": 109833.22350000049,
      "d": 166.66650000000664,
      "v": 81
    },
    {
      "midi": 40,
      "hit": false,
      "t": 109999.8900000005,
      "d": 166.66650000000664,
      "v": 85
    },
    {
      "midi": 62,
      "hit": false,
      "t": 109999.89000000127,
      "d": 666.6659999999974,
      "v": 85
    },
    {
      "midi": 64,
      "hit": false,
      "t": 109999.89000000127,
      "d": 666.6659999999974,
      "v": 85
    },
    {
      "midi": 68,
      "hit": false,
      "t": 109999.89000000127,
      "d": 666.6659999999974,
      "v": 85
    },
    {
      "midi": 52,
      "hit": false,
      "t": 110166.5565000005,
      "d": 166.66650000000664,
      "v": 88
    },
    {
      "midi": 47,
      "hit": false,
      "t": 110333.22300000051,
      "d": 166.66650000000664,
      "v": 91
    },
    {
      "midi": 52,
      "hit": false,
      "t": 110499.88950000051,
      "d": 166.66650000000664,
      "v": 94
    },
    {
      "midi": 33,
      "hit": false,
      "t": 110666.55600000052,
      "d": 166.66650000000664,
      "v": 72
    },
    {
      "midi": 60,
      "hit": false,
      "t": 110666.55600000126,
      "d": 166.66650000000664,
      "v": 72
    },
    {
      "midi": 64,
      "hit": false,
      "t": 110666.55600000126,
      "d": 166.66650000000664,
      "v": 72
    },
    {
      "midi": 69,
      "hit": false,
      "t": 110666.55600000126,
      "d": 166.66650000000664,
      "v": 72
    },
    {
      "midi": 45,
      "hit": false,
      "t": 110833.22250000053,
      "d": 166.66650000000664,
      "v": 72
    },
    {
      "midi": 34,
      "hit": false,
      "t": 110999.88900000053,
      "d": 166.66650000000664,
      "v": 75
    },
    {
      "midi": 58,
      "hit": false,
      "t": 110999.88900000128,
      "d": 333.3329999999987,
      "v": 75
    },
    {
      "midi": 46,
      "hit": false,
      "t": 111166.55550000054,
      "d": 166.66650000000664,
      "v": 79
    },
    {
      "midi": 33,
      "hit": false,
      "t": 111333.22200000055,
      "d": 166.66650000000664,
      "v": 82
    },
    {
      "midi": 57,
      "hit": false,
      "t": 111333.22200000127,
      "d": 333.3329999999987,
      "v": 82
    },
    {
      "midi": 45,
      "hit": false,
      "t": 111499.88850000055,
      "d": 166.66650000000664,
      "v": 86
    },
    {
      "midi": 37,
      "hit": false,
      "t": 111666.55500000056,
      "d": 166.66650000000664,
      "v": 90
    },
    {
      "midi": 61,
      "hit": false,
      "t": 111666.55500000127,
      "d": 333.3329999999987,
      "v": 90
    },
    {
      "midi": 49,
      "hit": false,
      "t": 111833.22150000057,
      "d": 166.66650000000664,
      "v": 93
    },
    {
      "midi": 38,
      "hit": false,
      "t": 111999.88800000057,
      "d": 166.66650000000664,
      "v": 72
    },
    {
      "midi": 62,
      "hit": false,
      "t": 111999.88800000127,
      "d": 166.66650000000664,
      "v": 72
    },
    {
      "midi": 50,
      "hit": false,
      "t": 112166.55450000058,
      "d": 166.66650000000664,
      "v": 72
    },
    {
      "midi": 65,
      "hit": false,
      "t": 112166.55450000128,
      "d": 166.66650000000664,
      "v": 72
    },
    {
      "midi": 69,
      "hit": false,
      "t": 112166.55450000128,
      "d": 166.66650000000664,
      "v": 72
    },
    {
      "midi": 45,
      "hit": false,
      "t": 112333.22100000059,
      "d": 166.66650000000664,
      "v": 72
    },
    {
      "midi": 73,
      "hit": false,
      "t": 112333.22100000129,
      "d": 166.66650000000664,
      "v": 72
    },
    {
      "midi": 74,
      "hit": false,
      "t": 112333.22100000129,
      "d": 166.66650000000664,
      "v": 72
    },
    {
      "midi": 50,
      "hit": false,
      "t": 112499.8875000006,
      "d": 166.66650000000664,
      "v": 72
    },
    {
      "midi": 76,
      "hit": false,
      "t": 112499.88750000129,
      "d": 166.66650000000664,
      "v": 72
    },
    {
      "midi": 77,
      "hit": false,
      "t": 112499.88750000129,
      "d": 166.66650000000664,
      "v": 72
    },
    {
      "midi": 37,
      "hit": false,
      "t": 112666.5540000006,
      "d": 166.66650000000664,
      "v": 72
    },
    {
      "midi": 79,
      "hit": false,
      "t": 112666.5540000013,
      "d": 166.66650000000664,
      "v": 72
    },
    {
      "midi": 80,
      "hit": false,
      "t": 112666.5540000013,
      "d": 166.66650000000664,
      "v": 72
    },
    {
      "midi": 49,
      "hit": false,
      "t": 112833.2205000006,
      "d": 166.66650000000664,
      "v": 72
    },
    {
      "midi": 80,
      "hit": false,
      "t": 112833.2205000013,
      "d": 166.66650000000664,
      "v": 72
    },
    {
      "midi": 81,
      "hit": false,
      "t": 112833.2205000013,
      "d": 166.66650000000664,
      "v": 72
    },
    {
      "midi": 45,
      "hit": false,
      "t": 112999.88700000061,
      "d": 166.66650000000664,
      "v": 72
    },
    {
      "midi": 80,
      "hit": false,
      "t": 112999.88700000131,
      "d": 166.66650000000664,
      "v": 72
    },
    {
      "midi": 81,
      "hit": false,
      "t": 112999.88700000131,
      "d": 166.66650000000664,
      "v": 72
    },
    {
      "midi": 49,
      "hit": false,
      "t": 113166.55350000062,
      "d": 166.66650000000664,
      "v": 72
    },
    {
      "midi": 81,
      "hit": false,
      "t": 113166.55350000132,
      "d": 166.66650000000664,
      "v": 72
    },
    {
      "midi": 82,
      "hit": false,
      "t": 113166.55350000132,
      "d": 166.66650000000664,
      "v": 72
    },
    {
      "midi": 38,
      "hit": false,
      "t": 113333.22000000063,
      "d": 166.66650000000664,
      "v": 72
    },
    {
      "midi": 79,
      "hit": false,
      "t": 113333.22000000133,
      "d": 166.66650000000664,
      "v": 72
    },
    {
      "midi": 81,
      "hit": false,
      "t": 113333.22000000133,
      "d": 166.66650000000664,
      "v": 72
    },
    {
      "midi": 50,
      "hit": false,
      "t": 113499.88650000063,
      "d": 166.66650000000664,
      "v": 72
    },
    {
      "midi": 76,
      "hit": false,
      "t": 113499.88650000133,
      "d": 166.66650000000664,
      "v": 72
    },
    {
      "midi": 77,
      "hit": false,
      "t": 113499.88650000133,
      "d": 166.66650000000664,
      "v": 72
    },
    {
      "midi": 45,
      "hit": false,
      "t": 113666.55300000064,
      "d": 166.66650000000664,
      "v": 72
    },
    {
      "midi": 73,
      "hit": false,
      "t": 113666.55300000134,
      "d": 166.66650000000664,
      "v": 72
    },
    {
      "midi": 74,
      "hit": false,
      "t": 113666.55300000134,
      "d": 166.66650000000664,
      "v": 72
    },
    {
      "midi": 50,
      "hit": false,
      "t": 113833.21950000065,
      "d": 166.66650000000664,
      "v": 72
    },
    {
      "midi": 73,
      "hit": false,
      "t": 113833.21950000135,
      "d": 166.66650000000664,
      "v": 72
    },
    {
      "midi": 74,
      "hit": false,
      "t": 113833.21950000135,
      "d": 166.66650000000664,
      "v": 72
    },
    {
      "midi": 38,
      "hit": false,
      "t": 113999.88600000065,
      "d": 166.66650000000664,
      "v": 72
    },
    {
      "midi": 73,
      "hit": false,
      "t": 113999.88600000135,
      "d": 166.66650000000664,
      "v": 72
    },
    {
      "midi": 74,
      "hit": false,
      "t": 113999.88600000135,
      "d": 166.66650000000664,
      "v": 72
    },
    {
      "midi": 50,
      "hit": false,
      "t": 114166.55250000066,
      "d": 166.66650000000664,
      "v": 72
    },
    {
      "midi": 74,
      "hit": false,
      "t": 114166.55250000136,
      "d": 166.66650000000664,
      "v": 72
    },
    {
      "midi": 76,
      "hit": false,
      "t": 114166.55250000136,
      "d": 166.66650000000664,
      "v": 72
    },
    {
      "midi": 41,
      "hit": false,
      "t": 114333.21900000067,
      "d": 166.66650000000664,
      "v": 72
    },
    {
      "midi": 69,
      "hit": false,
      "t": 114333.21900000137,
      "d": 166.66650000000664,
      "v": 72
    },
    {
      "midi": 74,
      "hit": false,
      "t": 114333.21900000137,
      "d": 166.66650000000664,
      "v": 72
    },
    {
      "midi": 53,
      "hit": false,
      "t": 114499.88550000067,
      "d": 166.66650000000664,
      "v": 72
    },
    {
      "midi": 74,
      "hit": false,
      "t": 114499.88550000137,
      "d": 166.66650000000664,
      "v": 72
    },
    {
      "midi": 76,
      "hit": false,
      "t": 114499.88550000137,
      "d": 166.66650000000664,
      "v": 72
    },
    {
      "midi": 46,
      "hit": false,
      "t": 114666.55200000068,
      "d": 166.66650000000664,
      "v": 72
    },
    {
      "midi": 64,
      "hit": false,
      "t": 114666.55200000138,
      "d": 166.66650000000664,
      "v": 72
    },
    {
      "midi": 67,
      "hit": false,
      "t": 114666.55200000138,
      "d": 166.66650000000664,
      "v": 72
    },
    {
      "midi": 74,
      "hit": false,
      "t": 114666.55200000138,
      "d": 166.66650000000664,
      "v": 72
    },
    {
      "midi": 58,
      "hit": false,
      "t": 114833.21850000069,
      "d": 166.66650000000664,
      "v": 75
    },
    {
      "midi": 74,
      "hit": false,
      "t": 114833.21850000139,
      "d": 166.66650000000664,
      "v": 73
    },
    {
      "midi": 76,
      "hit": false,
      "t": 114833.21850000139,
      "d": 166.66650000000664,
      "v": 75
    },
    {
      "midi": 45,
      "hit": false,
      "t": 114999.8850000007,
      "d": 166.66650000000664,
      "v": 78
    },
    {
      "midi": 65,
      "hit": false,
      "t": 114999.88500000139,
      "d": 166.66650000000664,
      "v": 78
    },
    {
      "midi": 69,
      "hit": false,
      "t": 114999.88500000139,
      "d": 166.66650000000664,
      "v": 78
    },
    {
      "midi": 74,
      "hit": false,
      "t": 114999.88500000139,
      "d": 166.66650000000664,
      "v": 76
    },
    {
      "midi": 57,
      "hit": false,
      "t": 115166.5515000007,
      "d": 166.66650000000664,
      "v": 81
    },
    {
      "midi": 74,
      "hit": false,
      "t": 115166.5515000014,
      "d": 166.66650000000664,
      "v": 80
    },
    {
      "midi": 76,
      "hit": false,
      "t": 115166.5515000014,
      "d": 166.66650000000664,
      "v": 81
    },
    {
      "midi": 43,
      "hit": false,
      "t": 115333.2180000007,
      "d": 166.66650000000664,
      "v": 85
    },
    {
      "midi": 64,
      "hit": false,
      "t": 115333.2180000014,
      "d": 166.66650000000664,
      "v": 85
    },
    {
      "midi": 70,
      "hit": false,
      "t": 115333.2180000014,
      "d": 166.66650000000664,
      "v": 85
    },
    {
      "midi": 74,
      "hit": false,
      "t": 115333.2180000014,
      "d": 166.66650000000664,
      "v": 83
    },
    {
      "midi": 55,
      "hit": false,
      "t": 115499.88450000071,
      "d": 166.66650000000664,
      "v": 88
    },
    {
      "midi": 74,
      "hit": false,
      "t": 115499.88450000141,
      "d": 166.66650000000664,
      "v": 86
    },
    {
      "midi": 76,
      "hit": false,
      "t": 115499.88450000141,
      "d": 166.66650000000664,
      "v": 88
    },
    {
      "midi": 44,
      "hit": false,
      "t": 115666.55100000072,
      "d": 166.66650000000664,
      "v": 91
    },
    {
      "midi": 65,
      "hit": false,
      "t": 115666.55100000142,
      "d": 166.66650000000664,
      "v": 91
    },
    {
      "midi": 71,
      "hit": false,
      "t": 115666.55100000142,
      "d": 166.66650000000664,
      "v": 91
    },
    {
      "midi": 74,
      "hit": false,
      "t": 115666.55100000142,
      "d": 166.66650000000664,
      "v": 90
    },
    {
      "midi": 56,
      "hit": false,
      "t": 115833.21750000073,
      "d": 166.66650000000664,
      "v": 94
    },
    {
      "midi": 74,
      "hit": false,
      "t": 115833.21750000142,
      "d": 166.66650000000664,
      "v": 93
    },
    {
      "midi": 76,
      "hit": false,
      "t": 115833.21750000142,
      "d": 166.66650000000664,
      "v": 94
    },
    {
      "midi": 45,
      "hit": false,
      "t": 115999.88400000073,
      "d": 166.66650000000664,
      "v": 72
    },
    {
      "midi": 65,
      "hit": false,
      "t": 115999.88400000143,
      "d": 166.66650000000664,
      "v": 72
    },
    {
      "midi": 69,
      "hit": false,
      "t": 115999.88400000143,
      "d": 166.66650000000664,
      "v": 72
    },
    {
      "midi": 74,
      "hit": false,
      "t": 115999.88400000143,
      "d": 166.66650000000664,
      "v": 96
    },
    {
      "midi": 57,
      "hit": false,
      "t": 116166.55050000074,
      "d": 166.66650000000664,
      "v": 72
    },
    {
      "midi": 73,
      "hit": false,
      "t": 116166.55050000144,
      "d": 166.66650000000664,
      "v": 72
    },
    {
      "midi": 74,
      "hit": false,
      "t": 116166.55050000144,
      "d": 166.66650000000664,
      "v": 72
    },
    {
      "midi": 56,
      "hit": false,
      "t": 116333.21700000075,
      "d": 166.66650000000664,
      "v": 72
    },
    {
      "midi": 73,
      "hit": false,
      "t": 116333.21700000144,
      "d": 166.66650000000664,
      "v": 72
    },
    {
      "midi": 74,
      "hit": false,
      "t": 116333.21700000144,
      "d": 166.66650000000664,
      "v": 72
    },
    {
      "midi": 57,
      "hit": false,
      "t": 116499.88350000075,
      "d": 166.66650000000664,
      "v": 72
    },
    {
      "midi": 76,
      "hit": false,
      "t": 116499.88350000145,
      "d": 166.66650000000664,
      "v": 72
    },
    {
      "midi": 77,
      "hit": false,
      "t": 116499.88350000145,
      "d": 166.66650000000664,
      "v": 72
    },
    {
      "midi": 45,
      "hit": false,
      "t": 116666.55000000076,
      "d": 166.66650000000664,
      "v": 72
    },
    {
      "midi": 64,
      "hit": false,
      "t": 116666.55000000146,
      "d": 166.66650000000664,
      "v": 72
    },
    {
      "midi": 73,
      "hit": false,
      "t": 116666.55000000146,
      "d": 166.66650000000664,
      "v": 72
    },
    {
      "midi": 74,
      "hit": false,
      "t": 116666.55000000146,
      "d": 166.66650000000664,
      "v": 72
    },
    {
      "midi": 57,
      "hit": false,
      "t": 116833.21650000077,
      "d": 166.66650000000664,
      "v": 72
    },
    {
      "midi": 72,
      "hit": false,
      "t": 116833.21650000146,
      "d": 166.66650000000664,
      "v": 72
    },
    {
      "midi": 74,
      "hit": false,
      "t": 116833.21650000146,
      "d": 166.66650000000664,
      "v": 72
    },
    {
      "midi": 43,
      "hit": false,
      "t": 116999.88300000077,
      "d": 166.66650000000664,
      "v": 72
    },
    {
      "midi": 71,
      "hit": false,
      "t": 116999.88300000147,
      "d": 166.66650000000664,
      "v": 72
    },
    {
      "midi": 72,
      "hit": false,
      "t": 116999.88300000147,
      "d": 166.66650000000664,
      "v": 72
    },
    {
      "midi": 55,
      "hit": false,
      "t": 117166.54950000078,
      "d": 166.66650000000664,
      "v": 72
    },
    {
      "midi": 72,
      "hit": false,
      "t": 117166.54950000148,
      "d": 166.66650000000664,
      "v": 72
    },
    {
      "midi": 74,
      "hit": false,
      "t": 117166.54950000148,
      "d": 166.66650000000664,
      "v": 72
    },
    {
      "midi": 41,
      "hit": false,
      "t": 117333.21600000079,
      "d": 166.66650000000664,
      "v": 72
    },
    {
      "midi": 76,
      "hit": false,
      "t": 117333.21600000148,
      "d": 166.66650000000664,
      "v": 72
    },
    {
      "midi": 77,
      "hit": false,
      "t": 117333.21600000148,
      "d": 166.66650000000664,
      "v": 72
    },
    {
      "midi": 53,
      "hit": false,
      "t": 117499.8825000008,
      "d": 166.66650000000664,
      "v": 72
    },
    {
      "midi": 65,
      "hit": false,
      "t": 117499.88250000149,
      "d": 166.66650000000664,
      "v": 72
    },
    {
      "midi": 69,
      "hit": false,
      "t": 117499.88250000149,
      "d": 166.66650000000664,
      "v": 72
    },
    {
      "midi": 48,
      "hit": false,
      "t": 117666.5490000008,
      "d": 166.66650000000664,
      "v": 72
    },
    {
      "midi": 72,
      "hit": false,
      "t": 117666.5490000015,
      "d": 166.66650000000664,
      "v": 72
    },
    {
      "midi": 77,
      "hit": false,
      "t": 117666.5490000015,
      "d": 166.66650000000664,
      "v": 72
    },
    {
      "midi": 53,
      "hit": false,
      "t": 117833.2155000008,
      "d": 166.66650000000664,
      "v": 72
    },
    {
      "midi": 79,
      "hit": false,
      "t": 117833.2155000015,
      "d": 166.66650000000664,
      "v": 72
    },
    {
      "midi": 81,
      "hit": false,
      "t": 117833.2155000015,
      "d": 166.66650000000664,
      "v": 72
    },
    {
      "midi": 40,
      "hit": false,
      "t": 117999.88200000081,
      "d": 166.66650000000664,
      "v": 72
    },
    {
      "midi": 82,
      "hit": false,
      "t": 117999.88200000151,
      "d": 166.66650000000664,
      "v": 72
    },
    {
      "midi": 83,
      "hit": false,
      "t": 117999.88200000151,
      "d": 166.66650000000664,
      "v": 72
    },
    {
      "midi": 52,
      "hit": false,
      "t": 118166.54850000082,
      "d": 166.66650000000664,
      "v": 72
    },
    {
      "midi": 83,
      "hit": false,
      "t": 118166.54850000152,
      "d": 166.66650000000664,
      "v": 72
    },
    {
      "midi": 84,
      "hit": false,
      "t": 118166.54850000152,
      "d": 166.66650000000664,
      "v": 72
    },
    {
      "midi": 48,
      "hit": false,
      "t": 118333.21500000083,
      "d": 166.66650000000664,
      "v": 72
    },
    {
      "midi": 83,
      "hit": false,
      "t": 118333.21500000152,
      "d": 166.66650000000664,
      "v": 72
    },
    {
      "midi": 84,
      "hit": false,
      "t": 118333.21500000152,
      "d": 166.66650000000664,
      "v": 72
    },
    {
      "midi": 52,
      "hit": false,
      "t": 118499.88150000083,
      "d": 166.66650000000664,
      "v": 72
    },
    {
      "midi": 84,
      "hit": false,
      "t": 118499.88150000153,
      "d": 166.66650000000664,
      "v": 72
    },
    {
      "midi": 86,
      "hit": false,
      "t": 118499.88150000153,
      "d": 166.66650000000664,
      "v": 72
    },
    {
      "midi": 41,
      "hit": false,
      "t": 118666.54800000084,
      "d": 166.66650000000664,
      "v": 72
    },
    {
      "midi": 82,
      "hit": false,
      "t": 118666.54800000154,
      "d": 166.66650000000664,
      "v": 72
    },
    {
      "midi": 84,
      "hit": false,
      "t": 118666.54800000154,
      "d": 166.66650000000664,
      "v": 72
    },
    {
      "midi": 53,
      "hit": false,
      "t": 118833.21450000085,
      "d": 166.66650000000664,
      "v": 72
    },
    {
      "midi": 80,
      "hit": false,
      "t": 118833.21450000154,
      "d": 166.66650000000664,
      "v": 72
    },
    {
      "midi": 81,
      "hit": false,
      "t": 118833.21450000154,
      "d": 166.66650000000664,
      "v": 72
    },
    {
      "midi": 48,
      "hit": false,
      "t": 118999.88100000085,
      "d": 166.66650000000664,
      "v": 72
    },
    {
      "midi": 80,
      "hit": false,
      "t": 118999.88100000155,
      "d": 166.66650000000664,
      "v": 72
    },
    {
      "midi": 81,
      "hit": false,
      "t": 118999.88100000155,
      "d": 166.66650000000664,
      "v": 72
    },
    {
      "midi": 53,
      "hit": false,
      "t": 119166.54750000086,
      "d": 166.66650000000664,
      "v": 72
    },
    {
      "midi": 81,
      "hit": false,
      "t": 119166.54750000156,
      "d": 166.66650000000664,
      "v": 72
    },
    {
      "midi": 82,
      "hit": false,
      "t": 119166.54750000156,
      "d": 166.66650000000664,
      "v": 72
    },
    {
      "midi": 41,
      "hit": false,
      "t": 119333.21400000087,
      "d": 166.66650000000664,
      "v": 72
    },
    {
      "midi": 69,
      "hit": false,
      "t": 119333.21400000156,
      "d": 166.66650000000664,
      "v": 72
    },
    {
      "midi": 81,
      "hit": false,
      "t": 119333.21400000156,
      "d": 166.66650000000664,
      "v": 72
    },
    {
      "midi": 53,
      "hit": false,
      "t": 119499.88050000087,
      "d": 166.66650000000664,
      "v": 72
    },
    {
      "midi": 80,
      "hit": false,
      "t": 119499.88050000157,
      "d": 166.66650000000664,
      "v": 72
    },
    {
      "midi": 81,
      "hit": false,
      "t": 119499.88050000157,
      "d": 166.66650000000664,
      "v": 72
    },
    {
      "midi": 38,
      "hit": false,
      "t": 119666.54700000088,
      "d": 166.66650000000664,
      "v": 72
    },
    {
      "midi": 71,
      "hit": false,
      "t": 119666.54700000158,
      "d": 166.66650000000664,
      "v": 72
    },
    {
      "midi": 81,
      "hit": false,
      "t": 119666.54700000158,
      "d": 166.66650000000664,
      "v": 72
    },
    {
      "midi": 50,
      "hit": false,
      "t": 119833.21350000089,
      "d": 166.66650000000664,
      "v": 72
    },
    {
      "midi": 81,
      "hit": false,
      "t": 119833.21350000158,
      "d": 166.66650000000664,
      "v": 72
    },
    {
      "midi": 83,
      "hit": false,
      "t": 119833.21350000158,
      "d": 166.66650000000664,
      "v": 72
    },
    {
      "midi": 40,
      "hit": false,
      "t": 119999.88000000089,
      "d": 166.66650000000664,
      "v": 72
    },
    {
      "midi": 72,
      "hit": false,
      "t": 119999.88000000159,
      "d": 166.66650000000664,
      "v": 72
    },
    {
      "midi": 83,
      "hit": false,
      "t": 119999.88000000159,
      "d": 166.66650000000664,
      "v": 72
    },
    {
      "midi": 52,
      "hit": false,
      "t": 120166.5465000009,
      "d": 166.66650000000664,
      "v": 72
    },
    {
      "midi": 83,
      "hit": false,
      "t": 120166.5465000016,
      "d": 166.66650000000664,
      "v": 72
    },
    {
      "midi": 84,
      "hit": false,
      "t": 120166.5465000016,
      "d": 166.66650000000664,
      "v": 72
    },
    {
      "midi": 45,
      "hit": false,
      "t": 120333.2130000009,
      "d": 166.66650000000664,
      "v": 72
    },
    {
      "midi": 84,
      "hit": false,
      "t": 120333.2130000016,
      "d": 166.66650000000664,
      "v": 72
    },
    {
      "midi": 88,
      "hit": false,
      "t": 120333.2130000016,
      "d": 166.66650000000664,
      "v": 72
    },
    {
      "midi": 52,
      "hit": false,
      "t": 120499.87950000091,
      "d": 166.66650000000664,
      "v": 72
    },
    {
      "midi": 83,
      "hit": false,
      "t": 120499.87950000161,
      "d": 166.66650000000664,
      "v": 72
    },
    {
      "midi": 84,
      "hit": false,
      "t": 120499.87950000161,
      "d": 166.66650000000664,
      "v": 72
    },
    {
      "midi": 40,
      "hit": false,
      "t": 120666.54600000092,
      "d": 166.66650000000664,
      "v": 72
    },
    {
      "midi": 80,
      "hit": false,
      "t": 120666.54600000162,
      "d": 166.66650000000664,
      "v": 72
    },
    {
      "midi": 81,
      "hit": false,
      "t": 120666.54600000162,
      "d": 166.66650000000664,
      "v": 72
    },
    {
      "midi": 52,
      "hit": false,
      "t": 120833.21250000093,
      "d": 166.66650000000664,
      "v": 72
    },
    {
      "midi": 76,
      "hit": false,
      "t": 120833.21250000162,
      "d": 166.66650000000664,
      "v": 72
    },
    {
      "midi": 77,
      "hit": false,
      "t": 120833.21250000162,
      "d": 166.66650000000664,
      "v": 72
    },
    {
      "midi": 47,
      "hit": false,
      "t": 120999.87900000093,
      "d": 166.66650000000664,
      "v": 72
    },
    {
      "midi": 72,
      "hit": false,
      "t": 120999.87900000163,
      "d": 166.66650000000664,
      "v": 72
    },
    {
      "midi": 74,
      "hit": false,
      "t": 120999.87900000163,
      "d": 166.66650000000664,
      "v": 72
    },
    {
      "midi": 52,
      "hit": false,
      "t": 121166.54550000094,
      "d": 166.66650000000664,
      "v": 72
    },
    {
      "midi": 69,
      "hit": false,
      "t": 121166.54550000164,
      "d": 166.66650000000664,
      "v": 72
    },
    {
      "midi": 71,
      "hit": false,
      "t": 121166.54550000164,
      "d": 166.66650000000664,
      "v": 72
    },
    {
      "midi": 33,
      "hit": false,
      "t": 121333.21200000095,
      "d": 166.66650000000664,
      "v": 72
    },
    {
      "midi": 68,
      "hit": false,
      "t": 121333.21200000164,
      "d": 166.66650000000664,
      "v": 72
    },
    {
      "midi": 69,
      "hit": false,
      "t": 121333.21200000164,
      "d": 166.66650000000664,
      "v": 72
    },
    {
      "midi": 45,
      "hit": false,
      "t": 121499.87850000095,
      "d": 166.66650000000664,
      "v": 73
    },
    {
      "midi": 57,
      "hit": false,
      "t": 121499.87850000165,
      "d": 166.66650000000664,
      "v": 73
    },
    {
      "midi": 34,
      "hit": false,
      "t": 121666.54500000096,
      "d": 166.66650000000664,
      "v": 77
    },
    {
      "midi": 46,
      "hit": false,
      "t": 121833.21150000097,
      "d": 166.66650000000664,
      "v": 80
    },
    {
      "midi": 58,
      "hit": false,
      "t": 121833.21150000166,
      "d": 166.66650000000664,
      "v": 80
    },
    {
      "midi": 33,
      "hit": false,
      "t": 121999.87800000097,
      "d": 166.66650000000664,
      "v": 83
    },
    {
      "midi": 45,
      "hit": false,
      "t": 122166.54450000098,
      "d": 166.66650000000664,
      "v": 87
    },
    {
      "midi": 57,
      "hit": false,
      "t": 122166.54450000168,
      "d": 166.66650000000664,
      "v": 87
    },
    {
      "midi": 32,
      "hit": false,
      "t": 122333.21100000099,
      "d": 166.66650000000664,
      "v": 90
    },
    {
      "midi": 44,
      "hit": false,
      "t": 122499.87750000099,
      "d": 166.66650000000664,
      "v": 94
    },
    {
      "midi": 56,
      "hit": false,
      "t": 122499.87750000169,
      "d": 166.66650000000664,
      "v": 94
    },
    {
      "midi": 33,
      "hit": false,
      "t": 122666.544000001,
      "d": 166.66650000000664,
      "v": 72
    },
    {
      "midi": 45,
      "hit": false,
      "t": 122666.544000001,
      "d": 166.66650000000664,
      "v": 72
    },
    {
      "midi": 73,
      "hit": false,
      "t": 122666.5440000017,
      "d": 666.6659999999974,
      "v": 72
    },
    {
      "midi": 76,
      "hit": false,
      "t": 122666.5440000017,
      "d": 666.6659999999974,
      "v": 72
    },
    {
      "midi": 57,
      "hit": false,
      "t": 122833.210500001,
      "d": 166.66650000000664,
      "v": 72
    },
    {
      "midi": 57,
      "hit": false,
      "t": 122999.87700000101,
      "d": 166.66650000000664,
      "v": 72
    },
    {
      "midi": 57,
      "hit": false,
      "t": 123166.54350000102,
      "d": 166.66650000000664,
      "v": 72
    },
    {
      "midi": 57,
      "hit": false,
      "t": 123333.21000000103,
      "d": 166.66650000000664,
      "v": 72
    },
    {
      "midi": 76,
      "hit": false,
      "t": 123333.2100000017,
      "d": 499.99950000000536,
      "v": 72
    },
    {
      "midi": 79,
      "hit": false,
      "t": 123333.2100000017,
      "d": 499.99950000000536,
      "v": 72
    },
    {
      "midi": 57,
      "hit": false,
      "t": 123499.87650000103,
      "d": 166.66650000000664,
      "v": 72
    },
    {
      "midi": 57,
      "hit": false,
      "t": 123666.54300000104,
      "d": 166.66650000000664,
      "v": 72
    },
    {
      "midi": 57,
      "hit": false,
      "t": 123833.20950000104,
      "d": 166.66650000000664,
      "v": 72
    },
    {
      "midi": 57,
      "hit": false,
      "t": 123999.87600000105,
      "d": 166.66650000000664,
      "v": 72
    },
    {
      "midi": 74,
      "hit": false,
      "t": 123999.8760000017,
      "d": 166.66650000000664,
      "v": 72
    },
    {
      "midi": 77,
      "hit": false,
      "t": 123999.8760000017,
      "d": 166.66650000000664,
      "v": 72
    },
    {
      "midi": 57,
      "hit": false,
      "t": 124166.54250000106,
      "d": 166.66650000000664,
      "v": 79
    },
    {
      "midi": 57,
      "hit": false,
      "t": 124333.20900000106,
      "d": 166.66650000000664,
      "v": 87
    },
    {
      "midi": 67,
      "hit": false,
      "t": 124333.20900000172,
      "d": 666.6659999999974,
      "v": 87
    },
    {
      "midi": 70,
      "hit": false,
      "t": 124333.20900000172,
      "d": 666.6659999999974,
      "v": 87
    },
    {
      "midi": 73,
      "hit": false,
      "t": 124333.20900000172,
      "d": 666.6659999999974,
      "v": 87
    },
    {
      "midi": 76,
      "hit": false,
      "t": 124333.20900000172,
      "d": 666.6659999999974,
      "v": 87
    },
    {
      "midi": 57,
      "hit": false,
      "t": 124499.87550000107,
      "d": 166.66650000000664,
      "v": 95
    },
    {
      "midi": 57,
      "hit": false,
      "t": 124666.54200000108,
      "d": 166.66650000000664,
      "v": 96
    },
    {
      "midi": 57,
      "hit": false,
      "t": 124833.20850000108,
      "d": 166.66650000000664,
      "v": 96
    },
    {
      "midi": 57,
      "hit": false,
      "t": 124999.87500000109,
      "d": 166.66650000000664,
      "v": 96
    },
    {
      "midi": 77,
      "hit": false,
      "t": 124999.87500000172,
      "d": 166.66650000000664,
      "v": 96
    },
    {
      "midi": 68,
      "hit": false,
      "t": 124999.87500000172,
      "d": 333.33300000001327,
      "v": 96
    },
    {
      "midi": 71,
      "hit": false,
      "t": 124999.87500000172,
      "d": 333.33300000001327,
      "v": 96
    },
    {
      "midi": 57,
      "hit": false,
      "t": 125166.5415000011,
      "d": 166.66650000000664,
      "v": 72
    },
    {
      "midi": 57,
      "hit": false,
      "t": 125333.2080000011,
      "d": 166.66650000000664,
      "v": 72
    },
    {
      "midi": 74,
      "hit": false,
      "t": 125333.20800000173,
      "d": 166.66650000000664,
      "v": 72
    },
    {
      "midi": 69,
      "hit": false,
      "t": 125333.20800000173,
      "d": 666.666000000012,
      "v": 72
    },
    {
      "midi": 73,
      "hit": false,
      "t": 125333.20800000173,
      "d": 666.666000000012,
      "v": 72
    },
    {
      "midi": 57,
      "hit": false,
      "t": 125499.87450000111,
      "d": 166.66650000000664,
      "v": 75
    },
    {
      "midi": 57,
      "hit": false,
      "t": 125666.54100000112,
      "d": 166.66650000000664,
      "v": 78
    },
    {
      "midi": 57,
      "hit": false,
      "t": 125833.20750000112,
      "d": 166.66650000000664,
      "v": 81
    },
    {
      "midi": 57,
      "hit": false,
      "t": 125999.87400000113,
      "d": 166.66650000000664,
      "v": 84
    },
    {
      "midi": 57,
      "hit": false,
      "t": 126166.54050000114,
      "d": 166.66650000000664,
      "v": 88
    },
    {
      "midi": 73,
      "hit": false,
      "t": 126166.54050000175,
      "d": 166.66650000000664,
      "v": 88
    },
    {
      "midi": 76,
      "hit": false,
      "t": 126166.54050000175,
      "d": 166.66650000000664,
      "v": 88
    },
    {
      "midi": 57,
      "hit": false,
      "t": 126333.20700000114,
      "d": 166.66650000000664,
      "v": 91
    },
    {
      "midi": 76,
      "hit": false,
      "t": 126333.20700000176,
      "d": 166.66650000000664,
      "v": 91
    },
    {
      "midi": 79,
      "hit": false,
      "t": 126333.20700000176,
      "d": 166.66650000000664,
      "v": 91
    },
    {
      "midi": 57,
      "hit": false,
      "t": 126499.87350000115,
      "d": 166.66650000000664,
      "v": 94
    },
    {
      "midi": 57,
      "hit": false,
      "t": 126666.54000000116,
      "d": 166.66650000000664,
      "v": 72
    },
    {
      "midi": 74,
      "hit": false,
      "t": 126666.54000000177,
      "d": 166.66650000000664,
      "v": 96
    },
    {
      "midi": 77,
      "hit": false,
      "t": 126666.54000000177,
      "d": 166.66650000000664,
      "v": 96
    },
    {
      "midi": 57,
      "hit": false,
      "t": 126833.20650000116,
      "d": 166.66650000000664,
      "v": 72
    },
    {
      "midi": 57,
      "hit": false,
      "t": 126999.87300000117,
      "d": 166.66650000000664,
      "v": 72
    },
    {
      "midi": 67,
      "hit": false,
      "t": 126999.87300000178,
      "d": 666.6659999999974,
      "v": 72
    },
    {
      "midi": 70,
      "hit": false,
      "t": 126999.87300000178,
      "d": 666.6659999999974,
      "v": 72
    },
    {
      "midi": 73,
      "hit": false,
      "t": 126999.87300000178,
      "d": 666.6659999999974,
      "v": 72
    },
    {
      "midi": 76,
      "hit": false,
      "t": 126999.87300000178,
      "d": 666.6659999999974,
      "v": 72
    },
    {
      "midi": 57,
      "hit": false,
      "t": 127166.53950000118,
      "d": 166.66650000000664,
      "v": 72
    },
    {
      "midi": 57,
      "hit": false,
      "t": 127333.20600000118,
      "d": 166.66650000000664,
      "v": 72
    },
    {
      "midi": 57,
      "hit": false,
      "t": 127499.87250000119,
      "d": 166.66650000000664,
      "v": 72
    },
    {
      "midi": 57,
      "hit": false,
      "t": 127666.5390000012,
      "d": 166.66650000000664,
      "v": 72
    },
    {
      "midi": 77,
      "hit": false,
      "t": 127666.53900000178,
      "d": 166.66650000000664,
      "v": 72
    },
    {
      "midi": 68,
      "hit": false,
      "t": 127666.53900000178,
      "d": 333.33300000001327,
      "v": 72
    },
    {
      "midi": 71,
      "hit": false,
      "t": 127666.53900000178,
      "d": 333.33300000001327,
      "v": 72
    },
    {
      "midi": 57,
      "hit": false,
      "t": 127833.2055000012,
      "d": 166.66650000000664,
      "v": 72
    },
    {
      "midi": 57,
      "hit": false,
      "t": 127999.87200000121,
      "d": 166.66650000000664,
      "v": 72
    },
    {
      "midi": 74,
      "hit": false,
      "t": 127999.8720000018,
      "d": 166.66650000000664,
      "v": 72
    },
    {
      "midi": 64,
      "hit": false,
      "t": 127999.8720000018,
      "d": 333.33300000001327,
      "v": 72
    },
    {
      "midi": 69,
      "hit": false,
      "t": 127999.8720000018,
      "d": 333.33300000001327,
      "v": 72
    },
    {
      "midi": 73,
      "hit": false,
      "t": 127999.8720000018,
      "d": 333.33300000001327,
      "v": 72
    },
    {
      "midi": 57,
      "hit": false,
      "t": 128166.53850000122,
      "d": 166.66650000000664,
      "v": 72
    },
    {
      "midi": 57,
      "hit": false,
      "t": 128333.20500000122,
      "d": 166.66650000000664,
      "v": 72
    },
    {
      "midi": 67,
      "hit": false,
      "t": 128333.2050000018,
      "d": 666.6659999999974,
      "v": 72
    },
    {
      "midi": 70,
      "hit": false,
      "t": 128333.2050000018,
      "d": 666.6659999999974,
      "v": 72
    },
    {
      "midi": 73,
      "hit": false,
      "t": 128333.2050000018,
      "d": 666.6659999999974,
      "v": 110
    },
    {
      "midi": 76,
      "hit": false,
      "t": 128333.2050000018,
      "d": 666.6659999999974,
      "v": 72
    },
    {
      "midi": 57,
      "hit": false,
      "t": 128499.87150000123,
      "d": 166.66650000000664,
      "v": 72
    },
    {
      "midi": 57,
      "hit": false,
      "t": 128666.53800000124,
      "d": 166.66650000000664,
      "v": 72
    },
    {
      "midi": 57,
      "hit": false,
      "t": 128833.20450000124,
      "d": 166.66650000000664,
      "v": 72
    },
    {
      "midi": 57,
      "hit": false,
      "t": 128999.87100000125,
      "d": 166.66650000000664,
      "v": 72
    },
    {
      "midi": 77,
      "hit": false,
      "t": 128999.8710000018,
      "d": 166.66650000000664,
      "v": 72
    },
    {
      "midi": 68,
      "hit": false,
      "t": 128999.8710000018,
      "d": 333.33300000001327,
      "v": 72
    },
    {
      "midi": 71,
      "hit": false,
      "t": 128999.8710000018,
      "d": 333.33300000001327,
      "v": 72
    },
    {
      "midi": 57,
      "hit": false,
      "t": 129166.53750000126,
      "d": 166.66650000000664,
      "v": 72
    },
    {
      "midi": 57,
      "hit": false,
      "t": 129333.20400000126,
      "d": 166.66650000000664,
      "v": 72
    },
    {
      "midi": 64,
      "hit": false,
      "t": 129333.20400000182,
      "d": 166.66650000000664,
      "v": 72
    },
    {
      "midi": 69,
      "hit": false,
      "t": 129333.20400000182,
      "d": 166.66650000000664,
      "v": 72
    },
    {
      "midi": 73,
      "hit": false,
      "t": 129333.20400000182,
      "d": 166.66650000000664,
      "v": 72
    },
    {
      "midi": 74,
      "hit": false,
      "t": 129333.20400000182,
      "d": 166.66650000000664,
      "v": 72
    },
    {
      "midi": 57,
      "hit": false,
      "t": 129499.87050000127,
      "d": 166.66650000000664,
      "v": 72
    },
    {
      "midi": 57,
      "hit": false,
      "t": 129666.53700000128,
      "d": 166.66650000000664,
      "v": 72
    },
    {
      "midi": 76,
      "hit": false,
      "t": 129666.53700000183,
      "d": 166.66650000000664,
      "v": 72
    },
    {
      "midi": 77,
      "hit": false,
      "t": 129666.53700000183,
      "d": 166.66650000000664,
      "v": 110
    },
    {
      "midi": 68,
      "hit": false,
      "t": 129666.53700000183,
      "d": 333.33300000001327,
      "v": 72
    },
    {
      "midi": 71,
      "hit": false,
      "t": 129666.53700000183,
      "d": 333.33300000001327,
      "v": 72
    },
    {
      "midi": 57,
      "hit": false,
      "t": 129833.20350000128,
      "d": 166.66650000000664,
      "v": 72
    },
    {
      "midi": 57,
      "hit": false,
      "t": 129999.87000000129,
      "d": 166.66650000000664,
      "v": 72
    },
    {
      "midi": 64,
      "hit": false,
      "t": 129999.87000000184,
      "d": 166.66650000000664,
      "v": 72
    },
    {
      "midi": 69,
      "hit": false,
      "t": 129999.87000000184,
      "d": 166.66650000000664,
      "v": 72
    },
    {
      "midi": 73,
      "hit": false,
      "t": 129999.87000000184,
      "d": 166.66650000000664,
      "v": 72
    },
    {
      "midi": 74,
      "hit": false,
      "t": 129999.87000000184,
      "d": 166.66650000000664,
      "v": 72
    },
    {
      "midi": 57,
      "hit": false,
      "t": 130166.5365000013,
      "d": 166.66650000000664,
      "v": 72
    },
    {
      "midi": 57,
      "hit": false,
      "t": 130333.2030000013,
      "d": 166.66650000000664,
      "v": 72
    },
    {
      "midi": 76,
      "hit": false,
      "t": 130333.20300000186,
      "d": 166.66650000000664,
      "v": 72
    },
    {
      "midi": 77,
      "hit": false,
      "t": 130333.20300000186,
      "d": 166.66650000000664,
      "v": 110
    },
    {
      "midi": 68,
      "hit": false,
      "t": 130333.20300000186,
      "d": 333.33300000001327,
      "v": 72
    },
    {
      "midi": 71,
      "hit": false,
      "t": 130333.20300000186,
      "d": 333.33300000001327,
      "v": 72
    },
    {
      "midi": 57,
      "hit": false,
      "t": 130499.86950000131,
      "d": 166.66650000000664,
      "v": 72
    },
    {
      "midi": 57,
      "hit": false,
      "t": 130666.53600000132,
      "d": 333.3329999999987,
      "v": 72
    },
    {
      "midi": 74,
      "hit": false,
      "t": 130666.53600000187,
      "d": 166.66650000000664,
      "v": 72
    },
    {
      "midi": 64,
      "hit": false,
      "t": 130666.53600000187,
      "d": 333.33300000001327,
      "v": 72
    },
    {
      "midi": 69,
      "hit": false,
      "t": 130666.53600000187,
      "d": 333.33300000001327,
      "v": 72
    },
    {
      "midi": 73,
      "hit": false,
      "t": 130666.53600000187,
      "d": 333.33300000001327,
      "v": 72
    },
    {
      "midi": 76,
      "hit": false,
      "t": 131333.20200000188,
      "d": 666.6659999999974,
      "v": 72
    },
    {
      "midi": 79,
      "hit": false,
      "t": 131999.86800000188,
      "d": 999.9990000000107,
      "v": 72
    },
    {
      "midi": 61,
      "hit": false,
      "t": 132999.8670000019,
      "d": 333.33300000001327,
      "v": 72
    },
    {
      "midi": 73,
      "hit": false,
      "t": 132999.8670000019,
      "d": 333.33300000001327,
      "v": 72
    },
    {
      "midi": 38,
      "hit": false,
      "t": 133333.20000000132,
      "d": 166.66649999999208,
      "v": 72
    },
    {
      "midi": 62,
      "hit": false,
      "t": 133333.2000000019,
      "d": 666.6659999999974,
      "v": 72
    },
    {
      "midi": 74,
      "hit": false,
      "t": 133333.2000000019,
      "d": 666.6659999999974,
      "v": 72
    },
    {
      "midi": 50,
      "hit": false,
      "t": 133499.8665000013,
      "d": 166.66649999999208,
      "v": 72
    },
    {
      "midi": 45,
      "hit": false,
      "t": 133666.5330000013,
      "d": 166.66649999999208,
      "v": 72
    },
    {
      "midi": 50,
      "hit": false,
      "t": 133833.1995000013,
      "d": 166.66649999999208,
      "v": 72
    },
    {
      "midi": 37,
      "hit": false,
      "t": 133999.8660000013,
      "d": 166.66649999999208,
      "v": 72
    },
    {
      "midi": 69,
      "hit": false,
      "t": 133999.8660000019,
      "d": 666.6659999999974,
      "v": 72
    },
    {
      "midi": 81,
      "hit": false,
      "t": 133999.8660000019,
      "d": 666.6659999999974,
      "v": 72
    },
    {
      "midi": 49,
      "hit": false,
      "t": 134166.53250000128,
      "d": 166.66649999999208,
      "v": 72
    },
    {
      "midi": 45,
      "hit": false,
      "t": 134333.19900000127,
      "d": 166.66649999999208,
      "v": 72
    },
    {
      "midi": 49,
      "hit": false,
      "t": 134499.86550000127,
      "d": 166.66649999999208,
      "v": 72
    },
    {
      "midi": 38,
      "hit": false,
      "t": 134666.53200000126,
      "d": 166.66649999999208,
      "v": 72
    },
    {
      "midi": 67,
      "hit": false,
      "t": 134666.5320000019,
      "d": 333.33300000001327,
      "v": 72
    },
    {
      "midi": 79,
      "hit": false,
      "t": 134666.5320000019,
      "d": 333.33300000001327,
      "v": 72
    },
    {
      "midi": 50,
      "hit": false,
      "t": 134833.19850000125,
      "d": 166.66649999999208,
      "v": 72
    },
    {
      "midi": 45,
      "hit": false,
      "t": 134999.86500000124,
      "d": 166.66649999999208,
      "v": 72
    },
    {
      "midi": 65,
      "hit": false,
      "t": 134999.8650000019,
      "d": 166.66649999999208,
      "v": 72
    },
    {
      "midi": 77,
      "hit": false,
      "t": 134999.8650000019,
      "d": 166.66649999999208,
      "v": 72
    },
    {
      "midi": 50,
      "hit": false,
      "t": 135166.53150000123,
      "d": 166.66649999999208,
      "v": 72
    },
    {
      "midi": 38,
      "hit": false,
      "t": 135333.19800000123,
      "d": 166.66649999999208,
      "v": 72
    },
    {
      "midi": 64,
      "hit": false,
      "t": 135333.1980000019,
      "d": 166.66649999999208,
      "v": 72
    },
    {
      "midi": 76,
      "hit": false,
      "t": 135333.1980000019,
      "d": 166.66649999999208,
      "v": 72
    },
    {
      "midi": 62,
      "hit": false,
      "t": 135333.1980000019,
      "d": 333.33299999998417,
      "v": 72
    },
    {
      "midi": 74,
      "hit": false,
      "t": 135333.1980000019,
      "d": 333.33299999998417,
      "v": 72
    },
    {
      "midi": 50,
      "hit": false,
      "t": 135499.86450000122,
      "d": 166.66649999999208,
      "v": 72
    },
    {
      "midi": 35,
      "hit": false,
      "t": 135666.5310000012,
      "d": 166.66649999999208,
      "v": 72
    },
    {
      "midi": 67,
      "hit": false,
      "t": 135666.53100000188,
      "d": 333.33300000001327,
      "v": 110
    },
    {
      "midi": 79,
      "hit": false,
      "t": 135666.53100000188,
      "d": 333.33300000001327,
      "v": 72
    },
    {
      "midi": 47,
      "hit": false,
      "t": 135833.1975000012,
      "d": 166.66649999999208,
      "v": 72
    },
    {
      "midi": 36,
      "hit": false,
      "t": 135999.8640000012,
      "d": 166.66649999999208,
      "v": 72
    },
    {
      "midi": 65,
      "hit": false,
      "t": 135999.8640000019,
      "d": 333.33300000001327,
      "v": 72
    },
    {
      "midi": 77,
      "hit": false,
      "t": 135999.8640000019,
      "d": 333.33300000001327,
      "v": 72
    },
    {
      "midi": 48,
      "hit": false,
      "t": 136166.5305000012,
      "d": 166.66649999999208,
      "v": 72
    },
    {
      "midi": 43,
      "hit": false,
      "t": 136333.19700000118,
      "d": 166.66649999999208,
      "v": 72
    },
    {
      "midi": 64,
      "hit": false,
      "t": 136333.1970000019,
      "d": 166.66649999999208,
      "v": 72
    },
    {
      "midi": 76,
      "hit": false,
      "t": 136333.1970000019,
      "d": 166.66649999999208,
      "v": 72
    },
    {
      "midi": 48,
      "hit": false,
      "t": 136499.86350000117,
      "d": 166.66649999999208,
      "v": 72
    },
    {
      "midi": 36,
      "hit": false,
      "t": 136666.53000000116,
      "d": 166.66649999999208,
      "v": 72
    },
    {
      "midi": 62,
      "hit": false,
      "t": 136666.5300000019,
      "d": 166.66649999999208,
      "v": 72
    },
    {
      "midi": 74,
      "hit": false,
      "t": 136666.5300000019,
      "d": 166.66649999999208,
      "v": 72
    },
    {
      "midi": 60,
      "hit": false,
      "t": 136666.5300000019,
      "d": 333.33299999998417,
      "v": 72
    },
    {
      "midi": 72,
      "hit": false,
      "t": 136666.5300000019,
      "d": 333.33299999998417,
      "v": 72
    },
    {
      "midi": 48,
      "hit": false,
      "t": 136833.19650000116,
      "d": 166.66649999999208,
      "v": 72
    },
    {
      "midi": 37,
      "hit": false,
      "t": 136999.86300000115,
      "d": 166.66649999999208,
      "v": 72
    },
    {
      "midi": 69,
      "hit": false,
      "t": 136999.86300000187,
      "d": 333.33300000001327,
      "v": 72
    },
    {
      "midi": 81,
      "hit": false,
      "t": 136999.86300000187,
      "d": 333.33300000001327,
      "v": 110
    },
    {
      "midi": 49,
      "hit": false,
      "t": 137166.52950000114,
      "d": 166.66649999999208,
      "v": 72
    },
    {
      "midi": 38,
      "hit": false,
      "t": 137333.19600000113,
      "d": 166.66649999999208,
      "v": 72
    },
    {
      "midi": 67,
      "hit": false,
      "t": 137333.1960000019,
      "d": 333.33300000001327,
      "v": 72
    },
    {
      "midi": 79,
      "hit": false,
      "t": 137333.1960000019,
      "d": 333.33300000001327,
      "v": 72
    },
    {
      "midi": 50,
      "hit": false,
      "t": 137499.86250000112,
      "d": 166.66649999999208,
      "v": 72
    },
    {
      "midi": 45,
      "hit": false,
      "t": 137666.52900000112,
      "d": 166.66649999999208,
      "v": 72
    },
    {
      "midi": 65,
      "hit": false,
      "t": 137666.5290000019,
      "d": 166.66649999999208,
      "v": 72
    },
    {
      "midi": 77,
      "hit": false,
      "t": 137666.5290000019,
      "d": 166.66649999999208,
      "v": 72
    },
    {
      "midi": 50,
      "hit": false,
      "t": 137833.1955000011,
      "d": 166.66649999999208,
      "v": 72
    },
    {
      "midi": 38,
      "hit": false,
      "t": 137999.8620000011,
      "d": 166.66649999999208,
      "v": 72
    },
    {
      "midi": 64,
      "hit": false,
      "t": 137999.8620000019,
      "d": 166.66649999999208,
      "v": 72
    },
    {
      "midi": 76,
      "hit": false,
      "t": 137999.8620000019,
      "d": 166.66649999999208,
      "v": 72
    },
    {
      "midi": 62,
      "hit": false,
      "t": 137999.8620000019,
      "d": 333.33299999998417,
      "v": 72
    },
    {
      "midi": 74,
      "hit": false,
      "t": 137999.8620000019,
      "d": 333.33299999998417,
      "v": 72
    },
    {
      "midi": 50,
      "hit": false,
      "t": 138166.5285000011,
      "d": 166.66649999999208,
      "v": 87
    },
    {
      "midi": 42,
      "hit": false,
      "t": 138333.19500000108,
      "d": 166.66649999999208,
      "v": 96
    },
    {
      "midi": 74,
      "hit": false,
      "t": 138333.19500000187,
      "d": 166.66649999999208,
      "v": 96
    },
    {
      "midi": 86,
      "hit": false,
      "t": 138333.19500000187,
      "d": 166.66649999999208,
      "v": 96
    },
    {
      "midi": 54,
      "hit": false,
      "t": 138499.86150000108,
      "d": 166.66649999999208,
      "v": 111
    },
    {
      "midi": 43,
      "hit": false,
      "t": 138666.52800000107,
      "d": 166.66649999999208,
      "v": 105
    },
    {
      "midi": 72,
      "hit": false,
      "t": 138666.52800000185,
      "d": 166.66649999999208,
      "v": 119
    },
    {
      "midi": 84,
      "hit": false,
      "t": 138666.52800000185,
      "d": 166.66649999999208,
      "v": 119
    },
    {
      "midi": 55,
      "hit": false,
      "t": 138833.19450000106,
      "d": 166.66649999999208,
      "v": 105
    },
    {
      "midi": 70,
      "hit": false,
      "t": 138833.19450000185,
      "d": 166.66649999999208,
      "v": 105
    },
    {
      "midi": 82,
      "hit": false,
      "t": 138833.19450000185,
      "d": 166.66649999999208,
      "v": 105
    },
    {
      "midi": 46,
      "hit": false,
      "t": 138999.86100000105,
      "d": 166.66649999999208,
      "v": 105
    },
    {
      "midi": 69,
      "hit": false,
      "t": 138999.86100000184,
      "d": 166.66649999999208,
      "v": 105
    },
    {
      "midi": 81,
      "hit": false,
      "t": 138999.86100000184,
      "d": 166.66649999999208,
      "v": 105
    },
    {
      "midi": 58,
      "hit": false,
      "t": 139166.52750000104,
      "d": 166.66649999999208,
      "v": 105
    },
    {
      "midi": 68,
      "hit": false,
      "t": 139166.52750000183,
      "d": 166.66649999999208,
      "v": 105
    },
    {
      "midi": 80,
      "hit": false,
      "t": 139166.52750000183,
      "d": 166.66649999999208,
      "v": 105
    },
    {
      "midi": 45,
      "hit": false,
      "t": 139333.19400000104,
      "d": 166.66649999999208,
      "v": 105
    },
    {
      "midi": 68,
      "hit": false,
      "t": 139333.19400000182,
      "d": 166.66649999999208,
      "v": 105
    },
    {
      "midi": 80,
      "hit": false,
      "t": 139333.19400000182,
      "d": 166.66649999999208,
      "v": 105
    },
    {
      "midi": 57,
      "hit": false,
      "t": 139499.86050000103,
      "d": 166.66649999999208,
      "v": 105
    },
    {
      "midi": 69,
      "hit": false,
      "t": 139499.8605000018,
      "d": 333.33300000001327,
      "v": 105
    },
    {
      "midi": 81,
      "hit": false,
      "t": 139499.8605000018,
      "d": 333.33300000001327,
      "v": 105
    },
    {
      "midi": 33,
      "hit": false,
      "t": 139666.52700000102,
      "d": 166.66649999999208,
      "v": 105
    },
    {
      "midi": 45,
      "hit": false,
      "t": 139833.193500001,
      "d": 166.66649999999208,
      "v": 105
    },
    {
      "midi": 55,
      "hit": false,
      "t": 139833.19350000183,
      "d": 166.66649999999208,
      "v": 105
    },
    {
      "midi": 61,
      "hit": false,
      "t": 139833.19350000183,
      "d": 166.66649999999208,
      "v": 105
    },
    {
      "midi": 38,
      "hit": false,
      "t": 139999.860000001,
      "d": 166.66649999999208,
      "v": 72
    },
    {
      "midi": 55,
      "hit": false,
      "t": 139999.86000000182,
      "d": 666.6659999999974,
      "v": 72
    },
    {
      "midi": 61,
      "hit": false,
      "t": 139999.86000000182,
      "d": 666.6659999999974,
      "v": 72
    },
    {
      "midi": 64,
      "hit": false,
      "t": 139999.86000000182,
      "d": 666.6659999999974,
      "v": 72
    },
    {
      "midi": 50,
      "hit": false,
      "t": 140166.526500001,
      "d": 166.66649999999208,
      "v": 72
    },
    {
      "midi": 45,
      "hit": false,
      "t": 140333.193000001,
      "d": 166.66649999999208,
      "v": 72
    },
    {
      "midi": 50,
      "hit": false,
      "t": 140499.85950000098,
      "d": 166.66649999999208,
      "v": 72
    },
    {
      "midi": 38,
      "hit": false,
      "t": 140666.52600000097,
      "d": 166.66649999999208,
      "v": 72
    },
    {
      "midi": 57,
      "hit": false,
      "t": 140666.52600000182,
      "d": 166.66649999999208,
      "v": 72
    },
    {
      "midi": 53,
      "hit": false,
      "t": 140666.52600000182,
      "d": 333.33299999998417,
      "v": 72
    },
    {
      "midi": 62,
      "hit": false,
      "t": 140666.52600000182,
      "d": 333.33299999998417,
      "v": 72
    },
    {
      "midi": 57,
      "hit": false,
      "t": 140833.19250000097,
      "d": 166.66649999999208,
      "v": 72
    },
    {
      "midi": 53,
      "hit": false,
      "t": 140999.85900000096,
      "d": 166.66649999999208,
      "v": 72
    },
    {
      "midi": 50,
      "hit": false,
      "t": 141166.52550000095,
      "d": 166.66649999999208,
      "v": 72
    },
    {
      "midi": 45,
      "hit": false,
      "t": 141333.19200000094,
      "d": 166.66649999999208,
      "v": 72
    },
    {
      "midi": 73,
      "hit": false,
      "t": 141333.1920000018,
      "d": 666.6659999999974,
      "v": 72
    },
    {
      "midi": 76,
      "hit": false,
      "t": 141333.1920000018,
      "d": 666.6659999999974,
      "v": 72
    },
    {
      "midi": 57,
      "hit": false,
      "t": 141499.85850000093,
      "d": 166.66649999999208,
      "v": 72
    },
    {
      "midi": 57,
      "hit": false,
      "t": 141666.52500000093,
      "d": 166.66649999999208,
      "v": 72
    },
    {
      "midi": 57,
      "hit": false,
      "t": 141833.19150000092,
      "d": 166.66649999999208,
      "v": 72
    },
    {
      "midi": 57,
      "hit": false,
      "t": 141999.8580000009,
      "d": 166.66649999999208,
      "v": 72
    },
    {
      "midi": 76,
      "hit": false,
      "t": 141999.8580000018,
      "d": 499.99950000000536,
      "v": 72
    },
    {
      "midi": 79,
      "hit": false,
      "t": 141999.8580000018,
      "d": 499.99950000000536,
      "v": 72
    },
    {
      "midi": 57,
      "hit": false,
      "t": 142166.5245000009,
      "d": 166.66649999999208,
      "v": 72
    },
    {
      "midi": 57,
      "hit": false,
      "t": 142333.1910000009,
      "d": 166.66649999999208,
      "v": 72
    },
    {
      "midi": 57,
      "hit": false,
      "t": 142499.8575000009,
      "d": 166.66649999999208,
      "v": 72
    },
    {
      "midi": 57,
      "hit": false,
      "t": 142666.52400000088,
      "d": 166.66649999999208,
      "v": 72
    },
    {
      "midi": 74,
      "hit": false,
      "t": 142666.5240000018,
      "d": 166.66649999999208,
      "v": 72
    },
    {
      "midi": 77,
      "hit": false,
      "t": 142666.5240000018,
      "d": 166.66649999999208,
      "v": 72
    },
    {
      "midi": 57,
      "hit": false,
      "t": 142833.19050000087,
      "d": 166.66649999999208,
      "v": 72
    },
    {
      "midi": 57,
      "hit": false,
      "t": 142999.85700000086,
      "d": 166.66649999999208,
      "v": 72
    },
    {
      "midi": 73,
      "hit": false,
      "t": 142999.8570000018,
      "d": 333.33300000001327,
      "v": 72
    },
    {
      "midi": 76,
      "hit": false,
      "t": 142999.8570000018,
      "d": 333.33300000001327,
      "v": 72
    },
    {
      "midi": 67,
      "hit": false,
      "t": 142999.8570000018,
      "d": 499.99950000000536,
      "v": 72
    },
    {
      "midi": 70,
      "hit": false,
      "t": 142999.8570000018,
      "d": 499.99950000000536,
      "v": 72
    },
    {
      "midi": 57,
      "hit": false,
      "t": 143166.52350000085,
      "d": 166.66649999999208,
      "v": 72
    },
    {
      "midi": 57,
      "hit": false,
      "t": 143333.19000000085,
      "d": 166.66649999999208,
      "v": 72
    },
    {
      "midi": 57,
      "hit": false,
      "t": 143499.85650000084,
      "d": 166.66649999999208,
      "v": 72
    },
    {
      "midi": 76,
      "hit": false,
      "t": 143499.8565000018,
      "d": 166.66649999999208,
      "v": 72
    },
    {
      "midi": 77,
      "hit": false,
      "t": 143499.8565000018,
      "d": 166.66649999999208,
      "v": 72
    },
    {
      "midi": 57,
      "hit": false,
      "t": 143666.52300000083,
      "d": 166.66649999999208,
      "v": 72
    },
    {
      "midi": 68,
      "hit": false,
      "t": 143666.5230000018,
      "d": 166.66649999999208,
      "v": 72
    },
    {
      "midi": 71,
      "hit": false,
      "t": 143666.5230000018,
      "d": 166.66649999999208,
      "v": 72
    },
    {
      "midi": 76,
      "hit": false,
      "t": 143666.5230000018,
      "d": 166.66649999999208,
      "v": 72
    },
    {
      "midi": 79,
      "hit": false,
      "t": 143666.5230000018,
      "d": 166.66649999999208,
      "v": 72
    },
    {
      "midi": 57,
      "hit": false,
      "t": 143833.18950000082,
      "d": 166.66649999999208,
      "v": 72
    },
    {
      "midi": 76,
      "hit": false,
      "t": 143833.18950000178,
      "d": 166.66649999999208,
      "v": 72
    },
    {
      "midi": 77,
      "hit": false,
      "t": 143833.18950000178,
      "d": 166.66649999999208,
      "v": 72
    },
    {
      "midi": 57,
      "hit": false,
      "t": 143999.85600000081,
      "d": 166.66649999999208,
      "v": 72
    },
    {
      "midi": 69,
      "hit": false,
      "t": 143999.85600000178,
      "d": 166.66649999999208,
      "v": 72
    },
    {
      "midi": 73,
      "hit": false,
      "t": 143999.85600000178,
      "d": 166.66649999999208,
      "v": 72
    },
    {
      "midi": 74,
      "hit": false,
      "t": 143999.85600000178,
      "d": 166.66649999999208,
      "v": 72
    },
    {
      "midi": 60,
      "hit": false,
      "t": 144166.5225000008,
      "d": 166.66649999999208,
      "v": 73
    },
    {
      "midi": 61,
      "hit": false,
      "t": 144166.5225000008,
      "d": 166.66649999999208,
      "v": 75
    },
    {
      "midi": 75,
      "hit": false,
      "t": 144166.52250000177,
      "d": 166.66649999999208,
      "v": 73
    },
    {
      "midi": 76,
      "hit": false,
      "t": 144166.52250000177,
      "d": 166.66649999999208,
      "v": 75
    },
    {
      "midi": 60,
      "hit": false,
      "t": 144333.1890000008,
      "d": 166.66649999999208,
      "v": 77
    },
    {
      "midi": 61,
      "hit": false,
      "t": 144333.1890000008,
      "d": 166.66649999999208,
      "v": 79
    },
    {
      "midi": 75,
      "hit": false,
      "t": 144333.18900000176,
      "d": 166.66649999999208,
      "v": 77
    },
    {
      "midi": 76,
      "hit": false,
      "t": 144333.18900000176,
      "d": 166.66649999999208,
      "v": 79
    },
    {
      "midi": 63,
      "hit": false,
      "t": 144499.8555000008,
      "d": 166.66649999999208,
      "v": 81
    },
    {
      "midi": 64,
      "hit": false,
      "t": 144499.8555000008,
      "d": 166.66649999999208,
      "v": 83
    },
    {
      "midi": 78,
      "hit": false,
      "t": 144499.85550000175,
      "d": 166.66649999999208,
      "v": 81
    },
    {
      "midi": 79,
      "hit": false,
      "t": 144499.85550000175,
      "d": 166.66649999999208,
      "v": 83
    },
    {
      "midi": 63,
      "hit": false,
      "t": 144666.52200000078,
      "d": 166.66649999999208,
      "v": 85
    },
    {
      "midi": 64,
      "hit": false,
      "t": 144666.52200000078,
      "d": 166.66649999999208,
      "v": 87
    },
    {
      "midi": 78,
      "hit": false,
      "t": 144666.52200000174,
      "d": 166.66649999999208,
      "v": 85
    },
    {
      "midi": 79,
      "hit": false,
      "t": 144666.52200000174,
      "d": 166.66649999999208,
      "v": 87
    },
    {
      "midi": 66,
      "hit": false,
      "t": 144833.18850000078,
      "d": 166.66649999999208,
      "v": 89
    },
    {
      "midi": 67,
      "hit": false,
      "t": 144833.18850000078,
      "d": 166.66649999999208,
      "v": 91
    },
    {
      "midi": 81,
      "hit": false,
      "t": 144833.18850000174,
      "d": 166.66649999999208,
      "v": 89
    },
    {
      "midi": 82,
      "hit": false,
      "t": 144833.18850000174,
      "d": 166.66649999999208,
      "v": 91
    },
    {
      "midi": 66,
      "hit": false,
      "t": 144999.85500000077,
      "d": 166.66649999999208,
      "v": 93
    },
    {
      "midi": 67,
      "hit": false,
      "t": 144999.85500000077,
      "d": 166.66649999999208,
      "v": 95
    },
    {
      "midi": 81,
      "hit": false,
      "t": 144999.85500000173,
      "d": 166.66649999999208,
      "v": 93
    },
    {
      "midi": 82,
      "hit": false,
      "t": 144999.85500000173,
      "d": 166.66649999999208,
      "v": 95
    },
    {
      "midi": 64,
      "hit": false,
      "t": 145166.52150000076,
      "d": 166.66649999999208,
      "v": 87
    },
    {
      "midi": 65,
      "hit": false,
      "t": 145166.52150000076,
      "d": 166.66649999999208,
      "v": 96
    },
    {
      "midi": 79,
      "hit": false,
      "t": 145166.52150000172,
      "d": 166.66649999999208,
      "v": 87
    },
    {
      "midi": 81,
      "hit": false,
      "t": 145166.52150000172,
      "d": 166.66649999999208,
      "v": 96
    },
    {
      "midi": 57,
      "hit": false,
      "t": 145333.18800000075,
      "d": 166.66649999999208,
      "v": 72
    },
    {
      "midi": 62,
      "hit": false,
      "t": 145333.18800000075,
      "d": 166.66649999999208,
      "v": 77
    },
    {
      "midi": 67,
      "hit": false,
      "t": 145333.1880000017,
      "d": 166.66649999999208,
      "v": 72
    },
    {
      "midi": 70,
      "hit": false,
      "t": 145333.1880000017,
      "d": 166.66649999999208,
      "v": 72
    },
    {
      "midi": 77,
      "hit": false,
      "t": 145333.1880000017,
      "d": 166.66649999999208,
      "v": 77
    },
    {
      "midi": 57,
      "hit": false,
      "t": 145499.85450000074,
      "d": 166.66649999999208,
      "v": 79
    },
    {
      "midi": 75,
      "hit": false,
      "t": 145499.8545000017,
      "d": 166.66649999999208,
      "v": 79
    },
    {
      "midi": 76,
      "hit": false,
      "t": 145499.8545000017,
      "d": 166.66649999999208,
      "v": 75
    },
    {
      "midi": 57,
      "hit": false,
      "t": 145666.52100000074,
      "d": 166.66649999999208,
      "v": 86
    },
    {
      "midi": 67,
      "hit": false,
      "t": 145666.5210000017,
      "d": 166.66649999999208,
      "v": 86
    },
    {
      "midi": 70,
      "hit": false,
      "t": 145666.5210000017,
      "d": 166.66649999999208,
      "v": 86
    },
    {
      "midi": 75,
      "hit": false,
      "t": 145666.5210000017,
      "d": 166.66649999999208,
      "v": 86
    },
    {
      "midi": 76,
      "hit": false,
      "t": 145666.5210000017,
      "d": 166.66649999999208,
      "v": 82
    },
    {
      "midi": 57,
      "hit": false,
      "t": 145833.18750000073,
      "d": 166.66649999999208,
      "v": 93
    },
    {
      "midi": 75,
      "hit": false,
      "t": 145833.1875000017,
      "d": 166.66649999999208,
      "v": 93
    },
    {
      "midi": 76,
      "hit": false,
      "t": 145833.1875000017,
      "d": 166.66649999999208,
      "v": 90
    },
    {
      "midi": 57,
      "hit": false,
      "t": 145999.85400000072,
      "d": 166.66649999999208,
      "v": 96
    },
    {
      "midi": 75,
      "hit": false,
      "t": 145999.85400000168,
      "d": 166.66649999999208,
      "v": 96
    },
    {
      "midi": 76,
      "hit": false,
      "t": 145999.85400000168,
      "d": 166.66649999999208,
      "v": 96
    },
    {
      "midi": 57,
      "hit": false,
      "t": 146166.5205000007,
      "d": 166.66649999999208,
      "v": 89
    },
    {
      "midi": 76,
      "hit": false,
      "t": 146166.52050000167,
      "d": 166.66649999999208,
      "v": 93
    },
    {
      "midi": 77,
      "hit": false,
      "t": 146166.52050000167,
      "d": 166.66649999999208,
      "v": 89
    },
    {
      "midi": 57,
      "hit": false,
      "t": 146333.1870000007,
      "d": 166.66649999999208,
      "v": 82
    },
    {
      "midi": 68,
      "hit": false,
      "t": 146333.18700000166,
      "d": 166.66649999999208,
      "v": 82
    },
    {
      "midi": 71,
      "hit": false,
      "t": 146333.18700000166,
      "d": 166.66649999999208,
      "v": 82
    },
    {
      "midi": 76,
      "hit": false,
      "t": 146333.18700000166,
      "d": 166.66649999999208,
      "v": 86
    },
    {
      "midi": 79,
      "hit": false,
      "t": 146333.18700000166,
      "d": 166.66649999999208,
      "v": 82
    },
    {
      "midi": 57,
      "hit": false,
      "t": 146499.8535000007,
      "d": 166.66649999999208,
      "v": 75
    },
    {
      "midi": 76,
      "hit": false,
      "t": 146499.85350000166,
      "d": 166.66649999999208,
      "v": 75
    },
    {
      "midi": 77,
      "hit": false,
      "t": 146499.85350000166,
      "d": 166.66649999999208,
      "v": 79
    },
    {
      "midi": 57,
      "hit": false,
      "t": 146666.5200000007,
      "d": 166.66649999999208,
      "v": 72
    },
    {
      "midi": 64,
      "hit": false,
      "t": 146666.52000000165,
      "d": 166.66649999999208,
      "v": 72
    },
    {
      "midi": 69,
      "hit": false,
      "t": 146666.52000000165,
      "d": 166.66649999999208,
      "v": 72
    },
    {
      "midi": 73,
      "hit": false,
      "t": 146666.52000000165,
      "d": 166.66649999999208,
      "v": 72
    },
    {
      "midi": 74,
      "hit": false,
      "t": 146666.52000000165,
      "d": 166.66649999999208,
      "v": 72
    },
    {
      "midi": 57,
      "hit": false,
      "t": 146833.18650000068,
      "d": 166.66649999999208,
      "v": 72
    },
    {
      "midi": 75,
      "hit": false,
      "t": 146833.18650000164,
      "d": 166.66649999999208,
      "v": 72
    },
    {
      "midi": 76,
      "hit": false,
      "t": 146833.18650000164,
      "d": 166.66649999999208,
      "v": 72
    },
    {
      "midi": 57,
      "hit": false,
      "t": 146999.85300000067,
      "d": 166.66649999999208,
      "v": 110
    },
    {
      "midi": 67,
      "hit": false,
      "t": 146999.85300000163,
      "d": 166.66649999999208,
      "v": 72
    },
    {
      "midi": 70,
      "hit": false,
      "t": 146999.85300000163,
      "d": 166.66649999999208,
      "v": 72
    },
    {
      "midi": 75,
      "hit": false,
      "t": 146999.85300000163,
      "d": 166.66649999999208,
      "v": 72
    },
    {
      "midi": 76,
      "hit": false,
      "t": 146999.85300000163,
      "d": 166.66649999999208,
      "v": 72
    },
    {
      "midi": 57,
      "hit": false,
      "t": 147166.51950000066,
      "d": 166.66649999999208,
      "v": 72
    },
    {
      "midi": 75,
      "hit": false,
      "t": 147166.51950000162,
      "d": 166.66649999999208,
      "v": 72
    },
    {
      "midi": 76,
      "hit": false,
      "t": 147166.51950000162,
      "d": 166.66649999999208,
      "v": 72
    },
    {
      "midi": 57,
      "hit": false,
      "t": 147333.18600000066,
      "d": 166.66649999999208,
      "v": 72
    },
    {
      "midi": 75,
      "hit": false,
      "t": 147333.18600000162,
      "d": 166.66649999999208,
      "v": 72
    },
    {
      "midi": 76,
      "hit": false,
      "t": 147333.18600000162,
      "d": 166.66649999999208,
      "v": 72
    },
    {
      "midi": 57,
      "hit": false,
      "t": 147499.85250000065,
      "d": 166.66649999999208,
      "v": 72
    },
    {
      "midi": 76,
      "hit": false,
      "t": 147499.8525000016,
      "d": 166.66649999999208,
      "v": 72
    },
    {
      "midi": 77,
      "hit": false,
      "t": 147499.8525000016,
      "d": 166.66649999999208,
      "v": 72
    },
    {
      "midi": 57,
      "hit": false,
      "t": 147666.51900000064,
      "d": 166.66649999999208,
      "v": 72
    },
    {
      "midi": 68,
      "hit": false,
      "t": 147666.5190000016,
      "d": 166.66649999999208,
      "v": 72
    },
    {
      "midi": 71,
      "hit": false,
      "t": 147666.5190000016,
      "d": 166.66649999999208,
      "v": 72
    },
    {
      "midi": 76,
      "hit": false,
      "t": 147666.5190000016,
      "d": 166.66649999999208,
      "v": 72
    },
    {
      "midi": 79,
      "hit": false,
      "t": 147666.5190000016,
      "d": 166.66649999999208,
      "v": 72
    },
    {
      "midi": 57,
      "hit": false,
      "t": 147833.18550000063,
      "d": 166.66649999999208,
      "v": 72
    },
    {
      "midi": 76,
      "hit": false,
      "t": 147833.1855000016,
      "d": 166.66649999999208,
      "v": 72
    },
    {
      "midi": 77,
      "hit": false,
      "t": 147833.1855000016,
      "d": 166.66649999999208,
      "v": 72
    },
    {
      "midi": 57,
      "hit": false,
      "t": 147999.85200000062,
      "d": 166.66649999999208,
      "v": 72
    },
    {
      "midi": 64,
      "hit": false,
      "t": 147999.85200000159,
      "d": 166.66649999999208,
      "v": 72
    },
    {
      "midi": 69,
      "hit": false,
      "t": 147999.85200000159,
      "d": 166.66649999999208,
      "v": 72
    },
    {
      "midi": 73,
      "hit": false,
      "t": 147999.85200000159,
      "d": 166.66649999999208,
      "v": 72
    },
    {
      "midi": 74,
      "hit": false,
      "t": 147999.85200000159,
      "d": 166.66649999999208,
      "v": 72
    },
    {
      "midi": 57,
      "hit": false,
      "t": 148166.51850000062,
      "d": 166.66649999999208,
      "v": 72
    },
    {
      "midi": 76,
      "hit": false,
      "t": 148166.51850000158,
      "d": 166.66649999999208,
      "v": 72
    },
    {
      "midi": 77,
      "hit": false,
      "t": 148166.51850000158,
      "d": 166.66649999999208,
      "v": 72
    },
    {
      "midi": 57,
      "hit": false,
      "t": 148333.1850000006,
      "d": 166.66649999999208,
      "v": 110
    },
    {
      "midi": 68,
      "hit": false,
      "t": 148333.18500000157,
      "d": 166.66649999999208,
      "v": 72
    },
    {
      "midi": 71,
      "hit": false,
      "t": 148333.18500000157,
      "d": 166.66649999999208,
      "v": 72
    },
    {
      "midi": 76,
      "hit": false,
      "t": 148333.18500000157,
      "d": 166.66649999999208,
      "v": 72
    },
    {
      "midi": 79,
      "hit": false,
      "t": 148333.18500000157,
      "d": 166.66649999999208,
      "v": 72
    },
    {
      "midi": 57,
      "hit": false,
      "t": 148499.8515000006,
      "d": 166.66649999999208,
      "v": 72
    },
    {
      "midi": 76,
      "hit": false,
      "t": 148499.85150000156,
      "d": 166.66649999999208,
      "v": 72
    },
    {
      "midi": 77,
      "hit": false,
      "t": 148499.85150000156,
      "d": 166.66649999999208,
      "v": 72
    },
    {
      "midi": 57,
      "hit": false,
      "t": 148666.5180000006,
      "d": 166.66649999999208,
      "v": 72
    },
    {
      "midi": 64,
      "hit": false,
      "t": 148666.51800000155,
      "d": 166.66649999999208,
      "v": 72
    },
    {
      "midi": 69,
      "hit": false,
      "t": 148666.51800000155,
      "d": 166.66649999999208,
      "v": 72
    },
    {
      "midi": 73,
      "hit": false,
      "t": 148666.51800000155,
      "d": 166.66649999999208,
      "v": 72
    },
    {
      "midi": 74,
      "hit": false,
      "t": 148666.51800000155,
      "d": 166.66649999999208,
      "v": 72
    },
    {
      "midi": 57,
      "hit": false,
      "t": 148833.18450000059,
      "d": 166.66649999999208,
      "v": 72
    },
    {
      "midi": 76,
      "hit": false,
      "t": 148833.18450000155,
      "d": 166.66649999999208,
      "v": 72
    },
    {
      "midi": 77,
      "hit": false,
      "t": 148833.18450000155,
      "d": 166.66649999999208,
      "v": 72
    },
    {
      "midi": 57,
      "hit": false,
      "t": 148999.85100000058,
      "d": 166.66649999999208,
      "v": 72
    },
    {
      "midi": 68,
      "hit": false,
      "t": 148999.85100000154,
      "d": 166.66649999999208,
      "v": 72
    },
    {
      "midi": 71,
      "hit": false,
      "t": 148999.85100000154,
      "d": 166.66649999999208,
      "v": 72
    },
    {
      "midi": 76,
      "hit": false,
      "t": 148999.85100000154,
      "d": 166.66649999999208,
      "v": 72
    },
    {
      "midi": 79,
      "hit": false,
      "t": 148999.85100000154,
      "d": 166.66649999999208,
      "v": 110
    },
    {
      "midi": 57,
      "hit": false,
      "t": 149166.51750000057,
      "d": 166.66649999999208,
      "v": 72
    },
    {
      "midi": 76,
      "hit": false,
      "t": 149166.51750000153,
      "d": 166.66649999999208,
      "v": 72
    },
    {
      "midi": 77,
      "hit": false,
      "t": 149166.51750000153,
      "d": 166.66649999999208,
      "v": 72
    },
    {
      "midi": 57,
      "hit": false,
      "t": 149333.18400000056,
      "d": 333.33300000001327,
      "v": 72
    },
    {
      "midi": 64,
      "hit": false,
      "t": 149333.18400000056,
      "d": 333.33300000001327,
      "v": 72
    },
    {
      "midi": 69,
      "hit": false,
      "t": 149333.18400000056,
      "d": 333.33300000001327,
      "v": 72
    },
    {
      "midi": 73,
      "hit": false,
      "t": 149333.18400000152,
      "d": 166.66649999999208,
      "v": 72
    },
    {
      "midi": 74,
      "hit": false,
      "t": 149333.18400000152,
      "d": 166.66649999999208,
      "v": 72
    },
    {
      "midi": 75,
      "hit": false,
      "t": 149499.8505000015,
      "d": 166.66649999999208,
      "v": 72
    },
    {
      "midi": 76,
      "hit": false,
      "t": 149499.8505000015,
      "d": 166.66649999999208,
      "v": 73
    },
    {
      "midi": 75,
      "hit": false,
      "t": 149666.5170000015,
      "d": 166.66649999999208,
      "v": 74
    },
    {
      "midi": 76,
      "hit": false,
      "t": 149666.5170000015,
      "d": 166.66649999999208,
      "v": 75
    },
    {
      "midi": 78,
      "hit": false,
      "t": 149833.1835000015,
      "d": 166.66649999999208,
      "v": 76
    },
    {
      "midi": 79,
      "hit": false,
      "t": 149833.1835000015,
      "d": 166.66649999999208,
      "v": 76
    },
    {
      "midi": 78,
      "hit": false,
      "t": 149999.8500000015,
      "d": 166.66649999999208,
      "v": 77
    },
    {
      "midi": 79,
      "hit": false,
      "t": 149999.8500000015,
      "d": 166.66649999999208,
      "v": 78
    },
    {
      "midi": 81,
      "hit": false,
      "t": 150166.51650000148,
      "d": 166.66649999999208,
      "v": 79
    },
    {
      "midi": 82,
      "hit": false,
      "t": 150166.51650000148,
      "d": 166.66649999999208,
      "v": 80
    },
    {
      "midi": 81,
      "hit": false,
      "t": 150333.18300000147,
      "d": 166.66649999999208,
      "v": 81
    },
    {
      "midi": 84,
      "hit": false,
      "t": 150333.18300000147,
      "d": 166.66649999999208,
      "v": 81
    },
    {
      "midi": 81,
      "hit": false,
      "t": 150499.84950000147,
      "d": 166.66649999999208,
      "v": 83
    },
    {
      "midi": 82,
      "hit": false,
      "t": 150499.84950000147,
      "d": 166.66649999999208,
      "v": 82
    },
    {
      "midi": 77,
      "hit": false,
      "t": 150666.51600000146,
      "d": 166.66649999999208,
      "v": 85
    },
    {
      "midi": 79,
      "hit": false,
      "t": 150666.51600000146,
      "d": 166.66649999999208,
      "v": 84
    },
    {
      "midi": 74,
      "hit": false,
      "t": 150833.18250000145,
      "d": 166.66649999999208,
      "v": 86
    },
    {
      "midi": 76,
      "hit": false,
      "t": 150833.18250000145,
      "d": 166.66649999999208,
      "v": 85
    },
    {
      "midi": 70,
      "hit": false,
      "t": 150999.84900000144,
      "d": 166.66649999999208,
      "v": 88
    },
    {
      "midi": 73,
      "hit": false,
      "t": 150999.84900000144,
      "d": 166.66649999999208,
      "v": 87
    },
    {
      "midi": 67,
      "hit": false,
      "t": 151166.51550000143,
      "d": 166.66649999999208,
      "v": 90
    },
    {
      "midi": 69,
      "hit": false,
      "t": 151166.51550000143,
      "d": 166.66649999999208,
      "v": 89
    },
    {
      "midi": 64,
      "hit": false,
      "t": 151333.18200000143,
      "d": 166.66649999999208,
      "v": 91
    },
    {
      "midi": 65,
      "hit": false,
      "t": 151333.18200000143,
      "d": 166.66649999999208,
      "v": 90
    },
    {
      "midi": 61,
      "hit": false,
      "t": 151499.84850000142,
      "d": 166.66649999999208,
      "v": 93
    },
    {
      "midi": 62,
      "hit": false,
      "t": 151499.84850000142,
      "d": 166.66649999999208,
      "v": 92
    },
    {
      "midi": 57,
      "hit": false,
      "t": 151666.5150000014,
      "d": 166.66649999999208,
      "v": 94
    },
    {
      "midi": 58,
      "hit": false,
      "t": 151666.5150000014,
      "d": 166.66649999999208,
      "v": 94
    },
    {
      "midi": 53,
      "hit": false,
      "t": 151833.1815000014,
      "d": 166.66649999999208,
      "v": 96
    },
    {
      "midi": 55,
      "hit": false,
      "t": 151833.1815000014,
      "d": 166.66649999999208,
      "v": 95
    },
    {
      "midi": 38,
      "hit": false,
      "t": 151999.84800000058,
      "d": 166.66649999999208,
      "v": 92
    },
    {
      "midi": 50,
      "hit": false,
      "t": 151999.84800000058,
      "d": 166.66649999999208,
      "v": 92
    },
    {
      "midi": 52,
      "hit": false,
      "t": 151999.8480000014,
      "d": 166.66649999999208,
      "v": 96
    },
    {
      "midi": 50,
      "hit": false,
      "t": 152166.51450000057,
      "d": 166.66649999999208,
      "v": 92
    },
    {
      "midi": 62,
      "hit": false,
      "t": 152166.5145000014,
      "d": 166.66649999999208,
      "v": 92
    },
    {
      "midi": 65,
      "hit": false,
      "t": 152166.5145000014,
      "d": 166.66649999999208,
      "v": 92
    },
    {
      "midi": 45,
      "hit": false,
      "t": 152333.18100000056,
      "d": 166.66649999999208,
      "v": 92
    },
    {
      "midi": 69,
      "hit": false,
      "t": 152333.18100000138,
      "d": 166.66649999999208,
      "v": 92
    },
    {
      "midi": 74,
      "hit": false,
      "t": 152333.18100000138,
      "d": 166.66649999999208,
      "v": 92
    },
    {
      "midi": 50,
      "hit": false,
      "t": 152499.84750000056,
      "d": 166.66649999999208,
      "v": 92
    },
    {
      "midi": 76,
      "hit": false,
      "t": 152499.84750000137,
      "d": 166.66649999999208,
      "v": 92
    },
    {
      "midi": 77,
      "hit": false,
      "t": 152499.84750000137,
      "d": 166.66649999999208,
      "v": 92
    },
    {
      "midi": 37,
      "hit": false,
      "t": 152666.51400000055,
      "d": 166.66649999999208,
      "v": 92
    },
    {
      "midi": 79,
      "hit": false,
      "t": 152666.51400000136,
      "d": 166.66649999999208,
      "v": 92
    },
    {
      "midi": 80,
      "hit": false,
      "t": 152666.51400000136,
      "d": 166.66649999999208,
      "v": 92
    },
    {
      "midi": 49,
      "hit": false,
      "t": 152833.18050000054,
      "d": 166.66649999999208,
      "v": 92
    },
    {
      "midi": 80,
      "hit": false,
      "t": 152833.18050000136,
      "d": 166.66649999999208,
      "v": 92
    },
    {
      "midi": 81,
      "hit": false,
      "t": 152833.18050000136,
      "d": 166.66649999999208,
      "v": 92
    },
    {
      "midi": 45,
      "hit": false,
      "t": 152999.84700000053,
      "d": 166.66649999999208,
      "v": 92
    },
    {
      "midi": 80,
      "hit": false,
      "t": 152999.84700000135,
      "d": 166.66649999999208,
      "v": 92
    },
    {
      "midi": 81,
      "hit": false,
      "t": 152999.84700000135,
      "d": 166.66649999999208,
      "v": 92
    },
    {
      "midi": 49,
      "hit": false,
      "t": 153166.51350000052,
      "d": 166.66649999999208,
      "v": 92
    },
    {
      "midi": 81,
      "hit": false,
      "t": 153166.51350000134,
      "d": 166.66649999999208,
      "v": 92
    },
    {
      "midi": 82,
      "hit": false,
      "t": 153166.51350000134,
      "d": 166.66649999999208,
      "v": 92
    },
    {
      "midi": 38,
      "hit": false,
      "t": 153333.18000000052,
      "d": 166.66649999999208,
      "v": 92
    },
    {
      "midi": 79,
      "hit": false,
      "t": 153333.18000000133,
      "d": 166.66649999999208,
      "v": 92
    },
    {
      "midi": 81,
      "hit": false,
      "t": 153333.18000000133,
      "d": 166.66649999999208,
      "v": 92
    },
    {
      "midi": 50,
      "hit": false,
      "t": 153499.8465000005,
      "d": 166.66649999999208,
      "v": 92
    },
    {
      "midi": 77,
      "hit": false,
      "t": 153499.84650000132,
      "d": 166.66649999999208,
      "v": 92
    },
    {
      "midi": 81,
      "hit": false,
      "t": 153499.84650000132,
      "d": 166.66649999999208,
      "v": 92
    },
    {
      "midi": 45,
      "hit": false,
      "t": 153666.5130000005,
      "d": 166.66649999999208,
      "v": 92
    },
    {
      "midi": 77,
      "hit": false,
      "t": 153666.51300000132,
      "d": 166.66649999999208,
      "v": 92
    },
    {
      "midi": 79,
      "hit": false,
      "t": 153666.51300000132,
      "d": 166.66649999999208,
      "v": 92
    },
    {
      "midi": 50,
      "hit": false,
      "t": 153833.1795000005,
      "d": 166.66649999999208,
      "v": 92
    },
    {
      "midi": 76,
      "hit": false,
      "t": 153833.1795000013,
      "d": 166.66649999999208,
      "v": 92
    },
    {
      "midi": 79,
      "hit": false,
      "t": 153833.1795000013,
      "d": 166.66649999999208,
      "v": 92
    },
    {
      "midi": 38,
      "hit": false,
      "t": 153999.84600000049,
      "d": 166.66649999999208,
      "v": 92
    },
    {
      "midi": 74,
      "hit": false,
      "t": 153999.8460000013,
      "d": 166.66649999999208,
      "v": 92
    },
    {
      "midi": 77,
      "hit": false,
      "t": 153999.8460000013,
      "d": 166.66649999999208,
      "v": 92
    },
    {
      "midi": 50,
      "hit": false,
      "t": 154166.51250000048,
      "d": 166.66649999999208,
      "v": 92
    },
    {
      "midi": 76,
      "hit": false,
      "t": 154166.5125000013,
      "d": 166.66649999999208,
      "v": 92
    },
    {
      "midi": 77,
      "hit": false,
      "t": 154166.5125000013,
      "d": 166.66649999999208,
      "v": 92
    },
    {
      "midi": 35,
      "hit": false,
      "t": 154333.17900000047,
      "d": 166.66649999999208,
      "v": 92
    },
    {
      "midi": 78,
      "hit": false,
      "t": 154333.17900000128,
      "d": 166.66649999999208,
      "v": 92
    },
    {
      "midi": 79,
      "hit": false,
      "t": 154333.17900000128,
      "d": 166.66649999999208,
      "v": 110
    },
    {
      "midi": 47,
      "hit": false,
      "t": 154499.84550000046,
      "d": 166.66649999999208,
      "v": 92
    },
    {
      "midi": 78,
      "hit": false,
      "t": 154499.84550000128,
      "d": 166.66649999999208,
      "v": 92
    },
    {
      "midi": 81,
      "hit": false,
      "t": 154499.84550000128,
      "d": 166.66649999999208,
      "v": 92
    },
    {
      "midi": 36,
      "hit": false,
      "t": 154666.51200000045,
      "d": 166.66649999999208,
      "v": 92
    },
    {
      "midi": 77,
      "hit": false,
      "t": 154666.51200000127,
      "d": 166.66649999999208,
      "v": 92
    },
    {
      "midi": 79,
      "hit": false,
      "t": 154666.51200000127,
      "d": 166.66649999999208,
      "v": 92
    },
    {
      "midi": 48,
      "hit": false,
      "t": 154833.17850000045,
      "d": 166.66649999999208,
      "v": 92
    },
    {
      "midi": 76,
      "hit": false,
      "t": 154833.17850000126,
      "d": 166.66649999999208,
      "v": 92
    },
    {
      "midi": 79,
      "hit": false,
      "t": 154833.17850000126,
      "d": 166.66649999999208,
      "v": 92
    },
    {
      "midi": 43,
      "hit": false,
      "t": 154999.84500000044,
      "d": 166.66649999999208,
      "v": 92
    },
    {
      "midi": 76,
      "hit": false,
      "t": 154999.84500000125,
      "d": 166.66649999999208,
      "v": 92
    },
    {
      "midi": 77,
      "hit": false,
      "t": 154999.84500000125,
      "d": 166.66649999999208,
      "v": 92
    },
    {
      "midi": 48,
      "hit": false,
      "t": 155166.51150000043,
      "d": 166.66649999999208,
      "v": 92
    },
    {
      "midi": 74,
      "hit": false,
      "t": 155166.51150000124,
      "d": 166.66649999999208,
      "v": 92
    },
    {
      "midi": 77,
      "hit": false,
      "t": 155166.51150000124,
      "d": 166.66649999999208,
      "v": 92
    },
    {
      "midi": 36,
      "hit": false,
      "t": 155333.17800000042,
      "d": 166.66649999999208,
      "v": 92
    },
    {
      "midi": 72,
      "hit": false,
      "t": 155333.17800000124,
      "d": 166.66649999999208,
      "v": 92
    },
    {
      "midi": 76,
      "hit": false,
      "t": 155333.17800000124,
      "d": 166.66649999999208,
      "v": 92
    },
    {
      "midi": 48,
      "hit": false,
      "t": 155499.8445000004,
      "d": 166.66649999999208,
      "v": 92
    },
    {
      "midi": 76,
      "hit": false,
      "t": 155499.84450000123,
      "d": 166.66649999999208,
      "v": 92
    },
    {
      "midi": 77,
      "hit": false,
      "t": 155499.84450000123,
      "d": 166.66649999999208,
      "v": 92
    },
    {
      "midi": 37,
      "hit": false,
      "t": 155666.5110000004,
      "d": 166.66649999999208,
      "v": 92
    },
    {
      "midi": 79,
      "hit": false,
      "t": 155666.51100000122,
      "d": 166.66649999999208,
      "v": 92
    },
    {
      "midi": 81,
      "hit": false,
      "t": 155666.51100000122,
      "d": 166.66649999999208,
      "v": 110
    },
    {
      "midi": 49,
      "hit": false,
      "t": 155833.1775000004,
      "d": 166.66649999999208,
      "v": 92
    },
    {
      "midi": 80,
      "hit": false,
      "t": 155833.1775000012,
      "d": 166.66649999999208,
      "v": 92
    },
    {
      "midi": 82,
      "hit": false,
      "t": 155833.1775000012,
      "d": 166.66649999999208,
      "v": 92
    },
    {
      "midi": 38,
      "hit": false,
      "t": 155999.8440000004,
      "d": 166.66649999999208,
      "v": 92
    },
    {
      "midi": 79,
      "hit": false,
      "t": 155999.8440000012,
      "d": 166.66649999999208,
      "v": 92
    },
    {
      "midi": 81,
      "hit": false,
      "t": 155999.8440000012,
      "d": 166.66649999999208,
      "v": 92
    },
    {
      "midi": 50,
      "hit": false,
      "t": 156166.51050000038,
      "d": 166.66649999999208,
      "v": 93
    },
    {
      "midi": 77,
      "hit": false,
      "t": 156166.5105000012,
      "d": 166.66649999999208,
      "v": 92
    },
    {
      "midi": 81,
      "hit": false,
      "t": 156166.5105000012,
      "d": 166.66649999999208,
      "v": 93
    },
    {
      "midi": 45,
      "hit": false,
      "t": 156333.17700000037,
      "d": 166.66649999999208,
      "v": 95
    },
    {
      "midi": 77,
      "hit": false,
      "t": 156333.1770000012,
      "d": 166.66649999999208,
      "v": 95
    },
    {
      "midi": 79,
      "hit": false,
      "t": 156333.1770000012,
      "d": 166.66649999999208,
      "v": 94
    },
    {
      "midi": 50,
      "hit": false,
      "t": 156499.84350000037,
      "d": 166.66649999999208,
      "v": 96
    },
    {
      "midi": 76,
      "hit": false,
      "t": 156499.84350000118,
      "d": 166.66649999999208,
      "v": 96
    },
    {
      "midi": 79,
      "hit": false,
      "t": 156499.84350000118,
      "d": 166.66649999999208,
      "v": 95
    },
    {
      "midi": 38,
      "hit": false,
      "t": 156666.51000000036,
      "d": 166.66649999999208,
      "v": 98
    },
    {
      "midi": 74,
      "hit": false,
      "t": 156666.51000000117,
      "d": 166.66649999999208,
      "v": 98
    },
    {
      "midi": 77,
      "hit": false,
      "t": 156666.51000000117,
      "d": 166.66649999999208,
      "v": 97
    },
    {
      "midi": 50,
      "hit": false,
      "t": 156833.17650000035,
      "d": 166.66649999999208,
      "v": 99
    },
    {
      "midi": 85,
      "hit": false,
      "t": 156833.17650000117,
      "d": 166.66649999999208,
      "v": 99
    },
    {
      "midi": 86,
      "hit": false,
      "t": 156833.17650000117,
      "d": 166.66649999999208,
      "v": 99
    },
    {
      "midi": 42,
      "hit": false,
      "t": 156999.84300000034,
      "d": 166.66649999999208,
      "v": 101
    },
    {
      "midi": 85,
      "hit": false,
      "t": 156999.84300000116,
      "d": 166.66649999999208,
      "v": 101
    },
    {
      "midi": 86,
      "hit": false,
      "t": 156999.84300000116,
      "d": 166.66649999999208,
      "v": 100
    },
    {
      "midi": 54,
      "hit": false,
      "t": 157166.50950000033,
      "d": 166.66649999999208,
      "v": 103
    },
    {
      "midi": 86,
      "hit": false,
      "t": 157166.50950000115,
      "d": 166.66649999999208,
      "v": 102
    },
    {
      "midi": 88,
      "hit": false,
      "t": 157166.50950000115,
      "d": 166.66649999999208,
      "v": 103
    },
    {
      "midi": 43,
      "hit": false,
      "t": 157333.17600000033,
      "d": 166.66649999999208,
      "v": 104
    },
    {
      "midi": 84,
      "hit": false,
      "t": 157333.17600000114,
      "d": 166.66649999999208,
      "v": 104
    },
    {
      "midi": 86,
      "hit": false,
      "t": 157333.17600000114,
      "d": 166.66649999999208,
      "v": 103
    },
    {
      "midi": 55,
      "hit": false,
      "t": 157499.84250000032,
      "d": 166.66649999999208,
      "v": 106
    },
    {
      "midi": 81,
      "hit": false,
      "t": 157499.84250000113,
      "d": 166.66649999999208,
      "v": 106
    },
    {
      "midi": 82,
      "hit": false,
      "t": 157499.84250000113,
      "d": 166.66649999999208,
      "v": 105
    },
    {
      "midi": 46,
      "hit": false,
      "t": 157666.5090000003,
      "d": 166.66649999999208,
      "v": 107
    },
    {
      "midi": 77,
      "hit": false,
      "t": 157666.50900000113,
      "d": 166.66649999999208,
      "v": 107
    },
    {
      "midi": 79,
      "hit": false,
      "t": 157666.50900000113,
      "d": 166.66649999999208,
      "v": 107
    },
    {
      "midi": 58,
      "hit": false,
      "t": 157833.1755000003,
      "d": 166.66649999999208,
      "v": 109
    },
    {
      "midi": 76,
      "hit": false,
      "t": 157833.17550000112,
      "d": 166.66649999999208,
      "v": 108
    },
    {
      "midi": 77,
      "hit": false,
      "t": 157833.17550000112,
      "d": 166.66649999999208,
      "v": 109
    },
    {
      "midi": 45,
      "hit": false,
      "t": 157999.8420000003,
      "d": 166.66649999999208,
      "v": 110
    },
    {
      "midi": 79,
      "hit": false,
      "t": 157999.8420000011,
      "d": 166.66649999999208,
      "v": 110
    },
    {
      "midi": 80,
      "hit": false,
      "t": 157999.8420000011,
      "d": 166.66649999999208,
      "v": 110
    },
    {
      "midi": 57,
      "hit": false,
      "t": 158166.5085000003,
      "d": 166.66649999999208,
      "v": 112
    },
    {
      "midi": 74,
      "hit": false,
      "t": 158166.5085000011,
      "d": 166.66649999999208,
      "v": 112
    },
    {
      "midi": 81,
      "hit": false,
      "t": 158166.5085000011,
      "d": 166.66649999999208,
      "v": 111
    },
    {
      "midi": 33,
      "hit": false,
      "t": 158333.17500000028,
      "d": 166.66649999999208,
      "v": 114
    },
    {
      "midi": 74,
      "hit": false,
      "t": 158333.1750000011,
      "d": 166.66649999999208,
      "v": 113
    },
    {
      "midi": 80,
      "hit": false,
      "t": 158333.1750000011,
      "d": 166.66649999999208,
      "v": 114
    },
    {
      "midi": 45,
      "hit": false,
      "t": 158499.84150000027,
      "d": 166.66649999999208,
      "v": 115
    },
    {
      "midi": 73,
      "hit": false,
      "t": 158499.8415000011,
      "d": 166.66649999999208,
      "v": 115
    },
    {
      "midi": 81,
      "hit": false,
      "t": 158499.8415000011,
      "d": 166.66649999999208,
      "v": 114
    },
    {
      "midi": 50,
      "hit": false,
      "t": 158666.50800000026,
      "d": 166.66649999999208,
      "v": 105
    },
    {
      "midi": 73,
      "hit": false,
      "t": 158666.50800000108,
      "d": 166.66649999999208,
      "v": 116
    },
    {
      "midi": 80,
      "hit": false,
      "t": 158666.50800000108,
      "d": 166.66649999999208,
      "v": 105
    },
    {
      "midi": 55,
      "hit": false,
      "t": 158833.17450000026,
      "d": 166.66649999999208,
      "v": 105
    },
    {
      "midi": 64,
      "hit": false,
      "t": 158833.17450000026,
      "d": 166.66649999999208,
      "v": 105
    },
    {
      "midi": 73,
      "hit": false,
      "t": 158833.17450000107,
      "d": 166.66649999999208,
      "v": 105
    },
    {
      "midi": 81,
      "hit": false,
      "t": 158833.17450000107,
      "d": 166.66649999999208,
      "v": 105
    },
    {
      "midi": 50,
      "hit": false,
      "t": 158999.84100000025,
      "d": 166.66649999999208,
      "v": 105
    },
    {
      "midi": 80,
      "hit": false,
      "t": 158999.84100000106,
      "d": 166.66649999999208,
      "v": 105
    },
    {
      "midi": 81,
      "hit": false,
      "t": 158999.84100000106,
      "d": 166.66649999999208,
      "v": 105
    },
    {
      "midi": 55,
      "hit": false,
      "t": 159166.50750000024,
      "d": 166.66649999999208,
      "v": 105
    },
    {
      "midi": 64,
      "hit": false,
      "t": 159166.50750000024,
      "d": 166.66649999999208,
      "v": 105
    },
    {
      "midi": 73,
      "hit": false,
      "t": 159166.50750000105,
      "d": 166.66649999999208,
      "v": 105
    },
    {
      "midi": 81,
      "hit": false,
      "t": 159166.50750000105,
      "d": 166.66649999999208,
      "v": 105
    },
    {
      "midi": 50,
      "hit": false,
      "t": 159333.17400000023,
      "d": 166.66649999999208,
      "v": 105
    },
    {
      "midi": 53,
      "hit": false,
      "t": 159333.17400000023,
      "d": 166.66649999999208,
      "v": 105
    },
    {
      "midi": 62,
      "hit": false,
      "t": 159333.17400000105,
      "d": 166.66649999999208,
      "v": 105
    },
    {
      "midi": 74,
      "hit": false,
      "t": 159333.17400000105,
      "d": 166.66649999999208,
      "v": 105
    },
    {
      "midi": 81,
      "hit": false,
      "t": 159333.17400000105,
      "d": 166.66649999999208,
      "v": 105
    },
    {
      "midi": 57,
      "hit": false,
      "t": 159499.84050000022,
      "d": 166.66649999999208,
      "v": 105
    },
    {
      "midi": 58,
      "hit": false,
      "t": 159499.84050000022,
      "d": 166.66649999999208,
      "v": 105
    },
    {
      "midi": 69,
      "hit": false,
      "t": 159499.84050000104,
      "d": 166.66649999999208,
      "v": 105
    },
    {
      "midi": 70,
      "hit": false,
      "t": 159499.84050000104,
      "d": 166.66649999999208,
      "v": 105
    },
    {
      "midi": 56,
      "hit": false,
      "t": 159666.50700000022,
      "d": 166.66649999999208,
      "v": 105
    },
    {
      "midi": 57,
      "hit": false,
      "t": 159666.50700000022,
      "d": 166.66649999999208,
      "v": 105
    },
    {
      "midi": 68,
      "hit": false,
      "t": 159666.50700000103,
      "d": 166.66649999999208,
      "v": 105
    },
    {
      "midi": 69,
      "hit": false,
      "t": 159666.50700000103,
      "d": 166.66649999999208,
      "v": 105
    },
    {
      "midi": 53,
      "hit": false,
      "t": 159833.1735000002,
      "d": 166.66649999999208,
      "v": 105
    },
    {
      "midi": 55,
      "hit": false,
      "t": 159833.1735000002,
      "d": 166.66649999999208,
      "v": 105
    },
    {
      "midi": 65,
      "hit": false,
      "t": 159833.17350000102,
      "d": 166.66649999999208,
      "v": 105
    },
    {
      "midi": 67,
      "hit": false,
      "t": 159833.17350000102,
      "d": 166.66649999999208,
      "v": 105
    },
    {
      "midi": 52,
      "hit": false,
      "t": 159999.8400000002,
      "d": 166.66649999999208,
      "v": 105
    },
    {
      "midi": 50,
      "hit": false,
      "t": 159999.8400000002,
      "d": 666.6659999999974,
      "v": 72
    },
    {
      "midi": 53,
      "hit": false,
      "t": 159999.8400000002,
      "d": 666.6659999999974,
      "v": 72
    },
    {
      "midi": 64,
      "hit": false,
      "t": 159999.84000000102,
      "d": 166.66649999999208,
      "v": 105
    },
    {
      "midi": 57,
      "hit": false,
      "t": 159999.84000000102,
      "d": 666.6659999999974,
      "v": 72
    },
    {
      "midi": 62,
      "hit": false,
      "t": 159999.84000000102,
      "d": 666.6659999999974,
      "v": 72
    },
    {
      "midi": 49,
      "hit": false,
      "t": 160666.5060000002,
      "d": 666.6659999999974,
      "v": 72
    },
    {
      "midi": 52,
      "hit": false,
      "t": 160666.5060000002,
      "d": 666.6659999999974,
      "v": 72
    },
    {
      "midi": 57,
      "hit": false,
      "t": 160666.506000001,
      "d": 666.6659999999974,
      "v": 72
    },
    {
      "midi": 69,
      "hit": false,
      "t": 160666.506000001,
      "d": 666.6659999999974,
      "v": 72
    },
    {
      "midi": 50,
      "hit": false,
      "t": 161333.1720000002,
      "d": 999.9990000000107,
      "v": 72
    },
    {
      "midi": 53,
      "hit": false,
      "t": 161333.1720000002,
      "d": 999.9990000000107,
      "v": 72
    },
    {
      "midi": 57,
      "hit": false,
      "t": 161333.1720000002,
      "d": 999.9990000000107,
      "v": 72
    },
    {
      "midi": 67,
      "hit": false,
      "t": 161333.172000001,
      "d": 333.33300000001327,
      "v": 72
    },
    {
      "midi": 65,
      "hit": false,
      "t": 161666.50500000102,
      "d": 166.66649999999208,
      "v": 72
    },
    {
      "midi": 62,
      "hit": false,
      "t": 161999.838000001,
      "d": 166.66649999999208,
      "v": 72
    },
    {
      "midi": 64,
      "hit": false,
      "t": 161999.838000001,
      "d": 166.66649999999208,
      "v": 72
    },
    {
      "midi": 41,
      "hit": false,
      "t": 162333.1710000002,
      "d": 333.33300000001327,
      "v": 72
    },
    {
      "midi": 50,
      "hit": false,
      "t": 162333.1710000002,
      "d": 333.33300000001327,
      "v": 72
    },
    {
      "midi": 57,
      "hit": false,
      "t": 162333.171000001,
      "d": 333.33300000001327,
      "v": 72
    },
    {
      "midi": 62,
      "hit": false,
      "t": 162333.171000001,
      "d": 333.33300000001327,
      "v": 72
    },
    {
      "midi": 43,
      "hit": false,
      "t": 162666.50400000022,
      "d": 166.66649999999208,
      "v": 72
    },
    {
      "midi": 50,
      "hit": false,
      "t": 162666.50400000022,
      "d": 166.66649999999208,
      "v": 72
    },
    {
      "midi": 58,
      "hit": false,
      "t": 162666.504000001,
      "d": 166.66649999999208,
      "v": 72
    },
    {
      "midi": 62,
      "hit": false,
      "t": 162666.504000001,
      "d": 166.66649999999208,
      "v": 72
    },
    {
      "midi": 64,
      "hit": false,
      "t": 162666.504000001,
      "d": 166.66649999999208,
      "v": 72
    },
    {
      "midi": 45,
      "hit": false,
      "t": 162999.8370000002,
      "d": 166.66649999999208,
      "v": 78
    },
    {
      "midi": 50,
      "hit": false,
      "t": 162999.8370000002,
      "d": 166.66649999999208,
      "v": 78
    },
    {
      "midi": 57,
      "hit": false,
      "t": 162999.837000001,
      "d": 166.66649999999208,
      "v": 78
    },
    {
      "midi": 62,
      "hit": false,
      "t": 162999.837000001,
      "d": 166.66649999999208,
      "v": 78
    },
    {
      "midi": 64,
      "hit": false,
      "t": 162999.837000001,
      "d": 166.66649999999208,
      "v": 78
    },
    {
      "midi": 46,
      "hit": false,
      "t": 163333.1700000002,
      "d": 166.66649999999208,
      "v": 85
    },
    {
      "midi": 50,
      "hit": false,
      "t": 163333.1700000002,
      "d": 166.66649999999208,
      "v": 85
    },
    {
      "midi": 55,
      "hit": false,
      "t": 163333.17000000097,
      "d": 166.66649999999208,
      "v": 85
    },
    {
      "midi": 62,
      "hit": false,
      "t": 163333.17000000097,
      "d": 166.66649999999208,
      "v": 85
    },
    {
      "midi": 64,
      "hit": false,
      "t": 163333.17000000097,
      "d": 166.66649999999208,
      "v": 85
    },
    {
      "midi": 45,
      "hit": false,
      "t": 163666.50300000017,
      "d": 166.66649999999208,
      "v": 92
    },
    {
      "midi": 50,
      "hit": false,
      "t": 163666.50300000017,
      "d": 166.66649999999208,
      "v": 92
    },
    {
      "midi": 57,
      "hit": false,
      "t": 163666.50300000096,
      "d": 166.66649999999208,
      "v": 92
    },
    {
      "midi": 62,
      "hit": false,
      "t": 163666.50300000096,
      "d": 166.66649999999208,
      "v": 92
    },
    {
      "midi": 64,
      "hit": false,
      "t": 163666.50300000096,
      "d": 166.66649999999208,
      "v": 92
    },
    {
      "midi": 43,
      "hit": false,
      "t": 163999.83600000016,
      "d": 1333.3319999999949,
      "v": 72
    },
    {
      "midi": 50,
      "hit": false,
      "t": 163999.83600000016,
      "d": 1333.3319999999949,
      "v": 72
    },
    {
      "midi": 58,
      "hit": false,
      "t": 163999.83600000094,
      "d": 1333.3319999999949,
      "v": 72
    },
    {
      "midi": 62,
      "hit": false,
      "t": 163999.83600000094,
      "d": 1333.3319999999949,
      "v": 72
    },
    {
      "midi": 64,
      "hit": false,
      "t": 163999.83600000094,
      "d": 1333.3319999999949,
      "v": 72
    },
    {
      "midi": 44,
      "hit": false,
      "t": 165333.16800000015,
      "d": 166.66649999999208,
      "v": 72
    },
    {
      "midi": 50,
      "hit": false,
      "t": 165333.16800000015,
      "d": 166.66649999999208,
      "v": 72
    },
    {
      "midi": 59,
      "hit": false,
      "t": 165333.16800000094,
      "d": 166.66649999999208,
      "v": 72
    },
    {
      "midi": 62,
      "hit": false,
      "t": 165333.16800000094,
      "d": 166.66649999999208,
      "v": 72
    },
    {
      "midi": 64,
      "hit": false,
      "t": 165333.16800000094,
      "d": 166.66649999999208,
      "v": 72
    },
    {
      "midi": 45,
      "hit": false,
      "t": 165666.50100000013,
      "d": 166.66649999999208,
      "v": 78
    },
    {
      "midi": 50,
      "hit": false,
      "t": 165666.50100000013,
      "d": 166.66649999999208,
      "v": 78
    },
    {
      "midi": 57,
      "hit": false,
      "t": 165666.50100000092,
      "d": 166.66649999999208,
      "v": 78
    },
    {
      "midi": 62,
      "hit": false,
      "t": 165666.50100000092,
      "d": 166.66649999999208,
      "v": 78
    },
    {
      "midi": 64,
      "hit": false,
      "t": 165666.50100000092,
      "d": 166.66649999999208,
      "v": 78
    },
    {
      "midi": 47,
      "hit": false,
      "t": 165999.83400000012,
      "d": 166.66649999999208,
      "v": 84
    },
    {
      "midi": 50,
      "hit": false,
      "t": 165999.83400000012,
      "d": 166.66649999999208,
      "v": 84
    },
    {
      "midi": 56,
      "hit": false,
      "t": 165999.8340000009,
      "d": 166.66649999999208,
      "v": 84
    },
    {
      "midi": 62,
      "hit": false,
      "t": 165999.8340000009,
      "d": 166.66649999999208,
      "v": 84
    },
    {
      "midi": 64,
      "hit": false,
      "t": 165999.8340000009,
      "d": 166.66649999999208,
      "v": 84
    },
    {
      "midi": 45,
      "hit": false,
      "t": 166333.1670000001,
      "d": 166.66649999999208,
      "v": 91
    },
    {
      "midi": 50,
      "hit": false,
      "t": 166333.1670000001,
      "d": 166.66649999999208,
      "v": 91
    },
    {
      "midi": 57,
      "hit": false,
      "t": 166333.1670000009,
      "d": 166.66649999999208,
      "v": 91
    },
    {
      "midi": 62,
      "hit": false,
      "t": 166333.1670000009,
      "d": 166.66649999999208,
      "v": 91
    },
    {
      "midi": 64,
      "hit": false,
      "t": 166333.1670000009,
      "d": 166.66649999999208,
      "v": 91
    },
    {
      "midi": 44,
      "hit": false,
      "t": 166666.5000000001,
      "d": 1333.3319999999949,
      "v": 72
    },
    {
      "midi": 50,
      "hit": false,
      "t": 166666.5000000001,
      "d": 1333.3319999999949,
      "v": 72
    },
    {
      "midi": 59,
      "hit": false,
      "t": 166666.50000000087,
      "d": 1333.3319999999949,
      "v": 72
    },
    {
      "midi": 62,
      "hit": false,
      "t": 166666.50000000087,
      "d": 1333.3319999999949,
      "v": 72
    },
    {
      "midi": 64,
      "hit": false,
      "t": 166666.50000000087,
      "d": 1333.3319999999949,
      "v": 72
    },
    {
      "midi": 33,
      "hit": false,
      "t": 167999.83200000008,
      "d": 166.66649999999208,
      "v": 72
    },
    {
      "midi": 45,
      "hit": false,
      "t": 167999.83200000008,
      "d": 166.66649999999208,
      "v": 72
    },
    {
      "midi": 57,
      "hit": false,
      "t": 167999.83200000087,
      "d": 166.66649999999208,
      "v": 72
    },
    {
      "midi": 61,
      "hit": false,
      "t": 167999.83200000087,
      "d": 166.66649999999208,
      "v": 72
    },
    {
      "midi": 64,
      "hit": false,
      "t": 167999.83200000087,
      "d": 166.66649999999208,
      "v": 72
    },
    {
      "midi": 33,
      "hit": false,
      "t": 168333.16500000007,
      "d": 166.66649999999208,
      "v": 72
    },
    {
      "midi": 45,
      "hit": false,
      "t": 168333.16500000007,
      "d": 166.66649999999208,
      "v": 72
    },
    {
      "midi": 57,
      "hit": false,
      "t": 168333.16500000085,
      "d": 166.66649999999208,
      "v": 72
    },
    {
      "midi": 61,
      "hit": false,
      "t": 168333.16500000085,
      "d": 166.66649999999208,
      "v": 72
    },
    {
      "midi": 64,
      "hit": false,
      "t": 168333.16500000085,
      "d": 166.66649999999208,
      "v": 72
    },
    {
      "midi": 73,
      "hit": false,
      "t": 168666.49800000084,
      "d": 166.66649999999208,
      "v": 72
    },
    {
      "midi": 81,
      "hit": false,
      "t": 168833.16450000083,
      "d": 166.66649999999208,
      "v": 72
    },
    {
      "midi": 82,
      "hit": false,
      "t": 168833.16450000083,
      "d": 166.66649999999208,
      "v": 72
    },
    {
      "midi": 82,
      "hit": false,
      "t": 168999.83100000082,
      "d": 166.66649999999208,
      "v": 72
    },
    {
      "midi": 76,
      "hit": false,
      "t": 169166.4975000008,
      "d": 166.66649999999208,
      "v": 72
    },
    {
      "midi": 79,
      "hit": false,
      "t": 169166.4975000008,
      "d": 166.66649999999208,
      "v": 72
    },
    {
      "midi": 45,
      "hit": false,
      "t": 169333.16400000005,
      "d": 166.66649999999208,
      "v": 72
    },
    {
      "midi": 50,
      "hit": false,
      "t": 169333.16400000005,
      "d": 166.66649999999208,
      "v": 72
    },
    {
      "midi": 53,
      "hit": false,
      "t": 169333.1640000008,
      "d": 166.66649999999208,
      "v": 72
    },
    {
      "midi": 57,
      "hit": false,
      "t": 169333.1640000008,
      "d": 166.66649999999208,
      "v": 72
    },
    {
      "midi": 62,
      "hit": false,
      "t": 169333.1640000008,
      "d": 166.66649999999208,
      "v": 72
    },
    {
      "midi": 65,
      "hit": false,
      "t": 169333.1640000008,
      "d": 166.66649999999208,
      "v": 72
    },
    {
      "midi": 45,
      "hit": false,
      "t": 169666.49700000003,
      "d": 166.66649999999208,
      "v": 80
    },
    {
      "midi": 50,
      "hit": false,
      "t": 169666.49700000003,
      "d": 166.66649999999208,
      "v": 80
    },
    {
      "midi": 53,
      "hit": false,
      "t": 169666.4970000008,
      "d": 166.66649999999208,
      "v": 80
    },
    {
      "midi": 57,
      "hit": false,
      "t": 169666.4970000008,
      "d": 166.66649999999208,
      "v": 80
    },
    {
      "midi": 62,
      "hit": false,
      "t": 169666.4970000008,
      "d": 166.66649999999208,
      "v": 80
    },
    {
      "midi": 65,
      "hit": false,
      "t": 169666.4970000008,
      "d": 166.66649999999208,
      "v": 80
    },
    {
      "midi": 77,
      "hit": false,
      "t": 169999.83000000077,
      "d": 166.66649999999208,
      "v": 95
    },
    {
      "midi": 85,
      "hit": false,
      "t": 170166.49650000077,
      "d": 166.66649999999208,
      "v": 103
    },
    {
      "midi": 86,
      "hit": false,
      "t": 170166.49650000077,
      "d": 166.66649999999208,
      "v": 96
    },
    {
      "midi": 86,
      "hit": false,
      "t": 170333.16300000076,
      "d": 166.66649999999208,
      "v": 110
    },
    {
      "midi": 77,
      "hit": false,
      "t": 170499.82950000075,
      "d": 166.66649999999208,
      "v": 120
    },
    {
      "midi": 81,
      "hit": false,
      "t": 170499.82950000075,
      "d": 166.66649999999208,
      "v": 118
    },
    {
      "midi": 45,
      "hit": false,
      "t": 170666.496,
      "d": 166.66649999999208,
      "v": 105
    },
    {
      "midi": 49,
      "hit": false,
      "t": 170666.496,
      "d": 166.66649999999208,
      "v": 105
    },
    {
      "midi": 52,
      "hit": false,
      "t": 170666.496,
      "d": 166.66649999999208,
      "v": 105
    },
    {
      "midi": 55,
      "hit": false,
      "t": 170666.496,
      "d": 166.66649999999208,
      "v": 105
    },
    {
      "midi": 58,
      "hit": false,
      "t": 170666.49600000074,
      "d": 166.66649999999208,
      "v": 105
    },
    {
      "midi": 61,
      "hit": false,
      "t": 170666.49600000074,
      "d": 166.66649999999208,
      "v": 105
    },
    {
      "midi": 64,
      "hit": false,
      "t": 170666.49600000074,
      "d": 166.66649999999208,
      "v": 105
    },
    {
      "midi": 67,
      "hit": false,
      "t": 170666.49600000074,
      "d": 166.66649999999208,
      "v": 105
    },
    {
      "midi": 45,
      "hit": false,
      "t": 170999.829,
      "d": 166.66649999999208,
      "v": 105
    },
    {
      "midi": 49,
      "hit": false,
      "t": 170999.829,
      "d": 166.66649999999208,
      "v": 105
    },
    {
      "midi": 52,
      "hit": false,
      "t": 170999.829,
      "d": 166.66649999999208,
      "v": 105
    },
    {
      "midi": 55,
      "hit": false,
      "t": 170999.829,
      "d": 166.66649999999208,
      "v": 105
    },
    {
      "midi": 58,
      "hit": false,
      "t": 170999.82900000073,
      "d": 166.66649999999208,
      "v": 105
    },
    {
      "midi": 61,
      "hit": false,
      "t": 170999.82900000073,
      "d": 166.66649999999208,
      "v": 105
    },
    {
      "midi": 64,
      "hit": false,
      "t": 170999.82900000073,
      "d": 166.66649999999208,
      "v": 105
    },
    {
      "midi": 67,
      "hit": false,
      "t": 170999.82900000073,
      "d": 166.66649999999208,
      "v": 105
    },
    {
      "midi": 79,
      "hit": false,
      "t": 171333.1620000007,
      "d": 166.66649999999208,
      "v": 72
    },
    {
      "midi": 87,
      "hit": false,
      "t": 171499.8285000007,
      "d": 166.66649999999208,
      "v": 72
    },
    {
      "midi": 88,
      "hit": false,
      "t": 171499.8285000007,
      "d": 166.66649999999208,
      "v": 72
    },
    {
      "midi": 88,
      "hit": false,
      "t": 171666.4950000007,
      "d": 166.66649999999208,
      "v": 72
    },
    {
      "midi": 82,
      "hit": false,
      "t": 171833.1615000007,
      "d": 166.66649999999208,
      "v": 72
    },
    {
      "midi": 85,
      "hit": false,
      "t": 171833.1615000007,
      "d": 166.66649999999208,
      "v": 72
    },
    {
      "midi": 79,
      "hit": false,
      "t": 171999.82800000068,
      "d": 166.66649999999208,
      "v": 72
    },
    {
      "midi": 87,
      "hit": false,
      "t": 172166.49450000067,
      "d": 166.66649999999208,
      "v": 72
    },
    {
      "midi": 88,
      "hit": false,
      "t": 172166.49450000067,
      "d": 166.66649999999208,
      "v": 72
    },
    {
      "midi": 88,
      "hit": false,
      "t": 172333.16100000066,
      "d": 166.66649999999208,
      "v": 72
    },
    {
      "midi": 82,
      "hit": false,
      "t": 172499.82750000065,
      "d": 166.66649999999208,
      "v": 72
    },
    {
      "midi": 85,
      "hit": false,
      "t": 172499.82750000065,
      "d": 166.66649999999208,
      "v": 72
    },
    {
      "midi": 79,
      "hit": false,
      "t": 172666.49400000065,
      "d": 166.66649999999208,
      "v": 72
    },
    {
      "midi": 84,
      "hit": false,
      "t": 172833.16050000064,
      "d": 166.66649999999208,
      "v": 72
    },
    {
      "midi": 85,
      "hit": false,
      "t": 172833.16050000064,
      "d": 166.66649999999208,
      "v": 72
    },
    {
      "midi": 85,
      "hit": false,
      "t": 172999.82700000063,
      "d": 166.66649999999208,
      "v": 72
    },
    {
      "midi": 79,
      "hit": false,
      "t": 173166.49350000062,
      "d": 166.66649999999208,
      "v": 72
    },
    {
      "midi": 82,
      "hit": false,
      "t": 173166.49350000062,
      "d": 166.66649999999208,
      "v": 72
    },
    {
      "midi": 76,
      "hit": false,
      "t": 173333.16000000061,
      "d": 166.66649999999208,
      "v": 72
    },
    {
      "midi": 70,
      "hit": false,
      "t": 173499.8265000006,
      "d": 166.66649999999208,
      "v": 79
    },
    {
      "midi": 73,
      "hit": false,
      "t": 173499.8265000006,
      "d": 166.66649999999208,
      "v": 75
    },
    {
      "midi": 67,
      "hit": false,
      "t": 173666.4930000006,
      "d": 166.66649999999208,
      "v": 82
    },
    {
      "midi": 61,
      "hit": false,
      "t": 173833.1595000006,
      "d": 166.66649999999208,
      "v": 89
    },
    {
      "midi": 64,
      "hit": false,
      "t": 173833.1595000006,
      "d": 166.66649999999208,
      "v": 86
    },
    {
      "midi": 58,
      "hit": false,
      "t": 173999.82600000058,
      "d": 166.66649999999208,
      "v": 92
    },
    {
      "midi": 55,
      "hit": false,
      "t": 174166.49250000058,
      "d": 166.66649999999208,
      "v": 98
    },
    {
      "midi": 52,
      "hit": false,
      "t": 174333.15900000057,
      "d": 166.66649999999208,
      "v": 104
    },
    {
      "midi": 49,
      "hit": false,
      "t": 174499.82549999998,
      "d": 166.66649999999208,
      "v": 110
    },
    {
      "midi": 46,
      "hit": false,
      "t": 174666.49199999997,
      "d": 333.33300000001327,
      "v": 105
    },
    {
      "midi": 43,
      "hit": false,
      "t": 174999.82499999998,
      "d": 666.6659999999974,
      "v": 102
    },
    {
      "midi": 39,
      "hit": false,
      "t": 175833.15749999997,
      "d": 166.66649999999208,
      "v": 95
    },
    {
      "midi": 41,
      "hit": false,
      "t": 175833.15749999997,
      "d": 166.66649999999208,
      "v": 96
    },
    {
      "midi": 38,
      "hit": false,
      "t": 175999.82399999996,
      "d": 166.66649999999208,
      "v": 94
    },
    {
      "midi": 45,
      "hit": false,
      "t": 175999.82399999996,
      "d": 499.99950000000536,
      "v": 93
    },
    {
      "midi": 37,
      "hit": false,
      "t": 175999.82399999996,
      "d": 999.9990000000107,
      "v": 93
    },
    {
      "midi": 55,
      "hit": false,
      "t": 176666.49000000057,
      "d": 499.99950000000536,
      "v": 87
    },
    {
      "midi": 38,
      "hit": false,
      "t": 177333.156,
      "d": 499.99950000000536,
      "v": 81
    },
    {
      "midi": 53,
      "hit": false,
      "t": 177666.48900000058,
      "d": 166.66649999999208,
      "v": 81
    },
    {
      "midi": 62,
      "hit": false,
      "t": 177833.15550000058,
      "d": 166.66649999999208,
      "v": 81
    },
    {
      "midi": 31,
      "hit": false,
      "t": 177999.822,
      "d": 499.99950000000536,
      "v": 81
    },
    {
      "midi": 62,
      "hit": false,
      "t": 178333.15500000058,
      "d": 166.66649999999208,
      "v": 81
    },
    {
      "midi": 70,
      "hit": false,
      "t": 178499.82150000057,
      "d": 166.66649999999208,
      "v": 78
    },
    {
      "midi": 33,
      "hit": false,
      "t": 178666.48799999998,
      "d": 666.6659999999974,
      "v": 74
    },
    {
      "midi": 65,
      "hit": false,
      "t": 178999.82100000058,
      "d": 166.66649999999208,
      "v": 66
    },
    {
      "midi": 69,
      "hit": false,
      "t": 179166.48750000057,
      "d": 166.66649999999208,
      "v": 62
    },
    {
      "midi": 45,
      "hit": false,
      "t": 179333.15399999998,
      "d": 499.99950000000536,
      "v": 58
    },
    {
      "midi": 79,
      "hit": false,
      "t": 179666.48700000058,
      "d": 166.66649999999208,
      "v": 58
    },
    {
      "midi": 85,
      "hit": false,
      "t": 179833.15350000057,
      "d": 166.66649999999208,
      "v": 58
    },
    {
      "midi": 38,
      "hit": false,
      "t": 179999.81999999998,
      "d": 1333.3319999999949,
      "v": 58
    },
    {
      "midi": 45,
      "hit": false,
      "t": 179999.81999999998,
      "d": 1333.3319999999949,
      "v": 58
    },
    {
      "midi": 85,
      "hit": false,
      "t": 179999.82000000056,
      "d": 499.99950000000536,
      "v": 58
    },
    {
      "midi": 79,
      "hit": false,
      "t": 179999.82000000056,
      "d": 666.6659999999974,
      "v": 58
    },
    {
      "midi": 86,
      "hit": false,
      "t": 180666.48600000056,
      "d": 166.66649999999208,
      "v": 70
    },
    {
      "midi": 85,
      "hit": false,
      "t": 180833.15250000055,
      "d": 166.66649999999208,
      "v": 73
    },
    {
      "midi": 83,
      "hit": false,
      "t": 180999.81900000054,
      "d": 166.66649999999208,
      "v": 76
    },
    {
      "midi": 85,
      "hit": false,
      "t": 181166.48550000053,
      "d": 166.66649999999208,
      "v": 80
    },
    {
      "midi": 88,
      "hit": false,
      "t": 181333.15200000053,
      "d": 333.33300000001327,
      "v": 110
    },
    {
      "midi": 86,
      "hit": false,
      "t": 181833.15150000053,
      "d": 166.66649999999208,
      "v": 82
    },
    {
      "midi": 38,
      "hit": false,
      "t": 181999.81799999997,
      "d": 999.9990000000107,
      "v": 58
    },
    {
      "midi": 45,
      "hit": false,
      "t": 181999.81799999997,
      "d": 999.9990000000107,
      "v": 58
    },
    {
      "midi": 77,
      "hit": false,
      "t": 181999.81800000052,
      "d": 166.66649999999208,
      "v": 58
    },
    {
      "midi": 86,
      "hit": false,
      "t": 181999.81800000052,
      "d": 166.66649999999208,
      "v": 58
    }
  ]
}