{
  "jsonPath": "Blues/Soul Blues/Otis Redding/sittin-on-the-dock-of-the-bay.json",
  "path": "Blues\\Soul Blues\\Otis Redding\\(Sittin On) The Dock Of The Bay.mid",
  "name": "(Sittin On) The Dock Of The Bay",
  "difficulty": "Advanced",
  "bpm": 104.00001386666851,
  "notes": [
    {
      "midi": 55,
      "hit": false,
      "t": 11538.460000000001,
      "d": 1225.961374999999,
      "v": 83
    },
    {
      "midi": 59,
      "hit": false,
      "t": 11538.460000000001,
      "d": 1237.9806041666652,
      "v": 92
    },
    {
      "midi": 62,
      "hit": false,
      "t": 11538.460000000001,
      "d": 1237.9806041666652,
      "v": 86
    },
    {
      "midi": 43,
      "hit": false,
      "t": 11538.460000000001,
      "d": 1247.595987499999,
      "v": 92
    },
    {
      "midi": 50,
      "hit": false,
      "t": 12692.306,
      "d": 55.28845416666627,
      "v": 75
    },
    {
      "midi": 59,
      "hit": false,
      "t": 12980.7675,
      "d": 74.51922083333375,
      "v": 101
    },
    {
      "midi": 55,
      "hit": false,
      "t": 12980.7675,
      "d": 86.53845000000001,
      "v": 88
    },
    {
      "midi": 62,
      "hit": false,
      "t": 12980.7675,
      "d": 93.7499874999994,
      "v": 86
    },
    {
      "midi": 59,
      "hit": false,
      "t": 13557.690499999999,
      "d": 694.7114458333326,
      "v": 67
    },
    {
      "midi": 63,
      "hit": false,
      "t": 13557.690499999999,
      "d": 843.7498875000001,
      "v": 79
    },
    {
      "midi": 66,
      "hit": false,
      "t": 13557.690499999999,
      "d": 1151.442154166667,
      "v": 75
    },
    {
      "midi": 47,
      "hit": false,
      "t": 13557.690499999999,
      "d": 2060.095879166667,
      "v": 76
    },
    {
      "midi": 59,
      "hit": false,
      "t": 14423.074999999999,
      "d": 1112.980620833332,
      "v": 97
    },
    {
      "midi": 63,
      "hit": false,
      "t": 14711.536499999998,
      "d": 800.4806625000001,
      "v": 66
    },
    {
      "midi": 63,
      "hit": false,
      "t": 15576.920999999998,
      "d": 60.09614583333496,
      "v": 84
    },
    {
      "midi": 59,
      "hit": false,
      "t": 15576.920999999998,
      "d": 76.92306666666809,
      "v": 66
    },
    {
      "midi": 66,
      "hit": false,
      "t": 15576.920999999998,
      "d": 81.73075833333496,
      "v": 96
    },
    {
      "midi": 55,
      "hit": false,
      "t": 16153.844000000001,
      "d": 899.0383416666664,
      "v": 82
    },
    {
      "midi": 48,
      "hit": false,
      "t": 16153.844000000001,
      "d": 915.8652624999995,
      "v": 85
    },
    {
      "midi": 60,
      "hit": false,
      "t": 16153.844000000001,
      "d": 927.8844916666676,
      "v": 75
    },
    {
      "midi": 64,
      "hit": false,
      "t": 16153.844000000001,
      "d": 927.8844916666676,
      "v": 80
    },
    {
      "midi": 48,
      "hit": false,
      "t": 17307.690000000002,
      "d": 108.1730624999982,
      "v": 117
    },
    {
      "midi": 47,
      "hit": false,
      "t": 17596.1515,
      "d": 124.99998333333497,
      "v": 99
    },
    {
      "midi": 46,
      "hit": false,
      "t": 17884.613,
      "d": 100.9615249999988,
      "v": 96
    },
    {
      "midi": 45,
      "hit": false,
      "t": 18173.0745,
      "d": 1045.6729374999995,
      "v": 86
    },
    {
      "midi": 57,
      "hit": false,
      "t": 18173.0745,
      "d": 1225.961374999999,
      "v": 78
    },
    {
      "midi": 61,
      "hit": false,
      "t": 18173.0745,
      "d": 1461.5382666666665,
      "v": 68
    },
    {
      "midi": 64,
      "hit": false,
      "t": 18173.0745,
      "d": 2346.153533333334,
      "v": 73
    },
    {
      "midi": 45,
      "hit": false,
      "t": 19326.920499999997,
      "d": 1192.3075333333363,
      "v": 92
    },
    {
      "midi": 57,
      "hit": false,
      "t": 19615.381999999998,
      "d": 903.8460333333351,
      "v": 94
    },
    {
      "midi": 61,
      "hit": false,
      "t": 19903.8435,
      "d": 591.3460750000013,
      "v": 92
    },
    {
      "midi": 55,
      "hit": false,
      "t": 20769.228,
      "d": 1225.9613750000026,
      "v": 83
    },
    {
      "midi": 59,
      "hit": false,
      "t": 20769.228,
      "d": 1237.9806041666707,
      "v": 92
    },
    {
      "midi": 62,
      "hit": false,
      "t": 20769.228,
      "d": 1237.9806041666707,
      "v": 86
    },
    {
      "midi": 43,
      "hit": false,
      "t": 20769.228,
      "d": 1247.5959875000044,
      "v": 92
    },
    {
      "midi": 50,
      "hit": false,
      "t": 21923.074,
      "d": 55.28845416666809,
      "v": 75
    },
    {
      "midi": 59,
      "hit": false,
      "t": 22211.5355,
      "d": 74.51922083333193,
      "v": 101
    },
    {
      "midi": 55,
      "hit": false,
      "t": 22211.5355,
      "d": 86.53845000000001,
      "v": 88
    },
    {
      "midi": 62,
      "hit": false,
      "t": 22211.5355,
      "d": 93.7499874999994,
      "v": 86
    },
    {
      "midi": 59,
      "hit": false,
      "t": 22788.4585,
      "d": 694.7114458333344,
      "v": 67
    },
    {
      "midi": 63,
      "hit": false,
      "t": 22788.4585,
      "d": 843.7498875000019,
      "v": 79
    },
    {
      "midi": 66,
      "hit": false,
      "t": 22788.4585,
      "d": 1151.442154166667,
      "v": 75
    },
    {
      "midi": 47,
      "hit": false,
      "t": 22788.4585,
      "d": 2060.0958791666635,
      "v": 76
    },
    {
      "midi": 59,
      "hit": false,
      "t": 23653.843,
      "d": 1112.980620833332,
      "v": 97
    },
    {
      "midi": 63,
      "hit": false,
      "t": 23942.304500000002,
      "d": 800.4806624999983,
      "v": 66
    },
    {
      "midi": 63,
      "hit": false,
      "t": 24807.689,
      "d": 60.09614583333314,
      "v": 84
    },
    {
      "midi": 59,
      "hit": false,
      "t": 24807.689,
      "d": 76.92306666666627,
      "v": 66
    },
    {
      "midi": 66,
      "hit": false,
      "t": 24807.689,
      "d": 81.73075833333132,
      "v": 96
    },
    {
      "midi": 55,
      "hit": false,
      "t": 25384.611999999997,
      "d": 899.0383416666664,
      "v": 82
    },
    {
      "midi": 48,
      "hit": false,
      "t": 25384.611999999997,
      "d": 915.8652624999995,
      "v": 85
    },
    {
      "midi": 60,
      "hit": false,
      "t": 25384.611999999997,
      "d": 927.8844916666676,
      "v": 75
    },
    {
      "midi": 64,
      "hit": false,
      "t": 25384.611999999997,
      "d": 927.8844916666676,
      "v": 80
    },
    {
      "midi": 48,
      "hit": false,
      "t": 26538.458,
      "d": 108.1730624999982,
      "v": 117
    },
    {
      "midi": 47,
      "hit": false,
      "t": 26826.919499999996,
      "d": 124.99998333333497,
      "v": 99
    },
    {
      "midi": 46,
      "hit": false,
      "t": 27115.380999999998,
      "d": 100.9615249999988,
      "v": 96
    },
    {
      "midi": 45,
      "hit": false,
      "t": 27403.842499999995,
      "d": 1045.6729374999995,
      "v": 86
    },
    {
      "midi": 57,
      "hit": false,
      "t": 27403.842499999995,
      "d": 1225.961374999999,
      "v": 78
    },
    {
      "midi": 61,
      "hit": false,
      "t": 27403.842499999995,
      "d": 1461.5382666666665,
      "v": 68
    },
    {
      "midi": 64,
      "hit": false,
      "t": 27403.842499999995,
      "d": 2346.153533333334,
      "v": 73
    },
    {
      "midi": 45,
      "hit": false,
      "t": 28557.688499999993,
      "d": 1192.3075333333363,
      "v": 92
    },
    {
      "midi": 57,
      "hit": false,
      "t": 28846.149999999994,
      "d": 903.8460333333351,
      "v": 94
    },
    {
      "midi": 61,
      "hit": false,
      "t": 29134.611499999995,
      "d": 591.3460750000013,
      "v": 92
    },
    {
      "midi": 55,
      "hit": false,
      "t": 29999.995999999996,
      "d": 826.9229666666652,
      "v": 90
    },
    {
      "midi": 59,
      "hit": false,
      "t": 29999.995999999996,
      "d": 1057.692166666664,
      "v": 104
    },
    {
      "midi": 62,
      "hit": false,
      "t": 29999.995999999996,
      "d": 1146.6344624999983,
      "v": 88
    },
    {
      "midi": 43,
      "hit": false,
      "t": 29999.995999999996,
      "d": 1399.038274999999,
      "v": 99
    },
    {
      "midi": 50,
      "hit": false,
      "t": 30576.918999999994,
      "d": 389.42302500000005,
      "v": 92
    },
    {
      "midi": 50,
      "hit": false,
      "t": 31009.611249999994,
      "d": 93.7499874999994,
      "v": 101
    },
    {
      "midi": 55,
      "hit": false,
      "t": 31009.611249999994,
      "d": 132.21152083333436,
      "v": 83
    },
    {
      "midi": 59,
      "hit": false,
      "t": 31442.303499999995,
      "d": 60.09614583333314,
      "v": 107
    },
    {
      "midi": 55,
      "hit": false,
      "t": 31442.303499999995,
      "d": 64.90383749999819,
      "v": 92
    },
    {
      "midi": 62,
      "hit": false,
      "t": 31442.303499999995,
      "d": 100.9615249999988,
      "v": 92
    },
    {
      "midi": 56,
      "hit": false,
      "t": 32019.226499999993,
      "d": 389.42302500000005,
      "v": 84
    },
    {
      "midi": 59,
      "hit": false,
      "t": 32019.226499999993,
      "d": 411.05763749999824,
      "v": 94
    },
    {
      "midi": 64,
      "hit": false,
      "t": 32019.226499999993,
      "d": 442.30763333333016,
      "v": 85
    },
    {
      "midi": 40,
      "hit": false,
      "t": 32019.226499999993,
      "d": 1689.9036208333382,
      "v": 75
    },
    {
      "midi": 66,
      "hit": false,
      "t": 32884.61099999999,
      "d": 168.2692083333386,
      "v": 77
    },
    {
      "midi": 64,
      "hit": false,
      "t": 32884.61099999999,
      "d": 213.94227916667296,
      "v": 79
    },
    {
      "midi": 71,
      "hit": false,
      "t": 32884.61099999999,
      "d": 627.4037625000055,
      "v": 82
    },
    {
      "midi": 68,
      "hit": false,
      "t": 33028.84174999999,
      "d": 170.67305416666932,
      "v": 89
    },
    {
      "midi": 66,
      "hit": false,
      "t": 33173.072499999995,
      "d": 259.61535000000003,
      "v": 104
    },
    {
      "midi": 64,
      "hit": false,
      "t": 33461.53399999999,
      "d": 117.78844583333557,
      "v": 86
    },
    {
      "midi": 56,
      "hit": false,
      "t": 34038.456999999995,
      "d": 221.15381666666508,
      "v": 77
    },
    {
      "midi": 59,
      "hit": false,
      "t": 34038.456999999995,
      "d": 242.78842916666326,
      "v": 80
    },
    {
      "midi": 64,
      "hit": false,
      "t": 34038.456999999995,
      "d": 305.2884208333344,
      "v": 62
    },
    {
      "midi": 55,
      "hit": false,
      "t": 34615.38,
      "d": 675.4806791666706,
      "v": 80
    },
    {
      "midi": 59,
      "hit": false,
      "t": 34615.38,
      "d": 937.4998750000086,
      "v": 86
    },
    {
      "midi": 62,
      "hit": false,
      "t": 34615.38,
      "d": 1016.8267875000092,
      "v": 79
    },
    {
      "midi": 43,
      "hit": false,
      "t": 34615.38,
      "d": 1485.576724999999,
      "v": 85
    },
    {
      "midi": 50,
      "hit": false,
      "t": 35192.303,
      "d": 144.23075000000244,
      "v": 76
    },
    {
      "midi": 55,
      "hit": false,
      "t": 35480.764500000005,
      "d": 187.4999749999988,
      "v": 73
    },
    {
      "midi": 57,
      "hit": false,
      "t": 35769.226,
      "d": 346.15379999999277,
      "v": 104
    },
    {
      "midi": 62,
      "hit": false,
      "t": 35769.226,
      "d": 399.0384083333265,
      "v": 90
    },
    {
      "midi": 59,
      "hit": false,
      "t": 36057.6875,
      "d": 225.9615083333265,
      "v": 59
    },
    {
      "midi": 55,
      "hit": false,
      "t": 36346.14899999999,
      "d": 91.3461416666687,
      "v": 72
    },
    {
      "midi": 56,
      "hit": false,
      "t": 36634.610499999995,
      "d": 649.0383750000037,
      "v": 52
    },
    {
      "midi": 64,
      "hit": false,
      "t": 36634.610499999995,
      "d": 658.6537583333338,
      "v": 67
    },
    {
      "midi": 59,
      "hit": false,
      "t": 36634.610499999995,
      "d": 689.9037541666694,
      "v": 71
    },
    {
      "midi": 40,
      "hit": false,
      "t": 36634.610499999995,
      "d": 2206.7304749999967,
      "v": 92
    },
    {
      "midi": 56,
      "hit": false,
      "t": 37499.994999999995,
      "d": 324.51918750000186,
      "v": 84
    },
    {
      "midi": 59,
      "hit": false,
      "t": 37499.994999999995,
      "d": 353.36533749999944,
      "v": 99
    },
    {
      "midi": 64,
      "hit": false,
      "t": 37499.994999999995,
      "d": 389.4230249999964,
      "v": 86
    },
    {
      "midi": 76,
      "hit": false,
      "t": 38653.840999999986,
      "d": 137.01921250000305,
      "v": 88
    },
    {
      "midi": 64,
      "hit": false,
      "t": 38653.840999999986,
      "d": 161.05767083333922,
      "v": 68
    },
    {
      "midi": 55,
      "hit": false,
      "t": 39230.76399999999,
      "d": 634.6152999999977,
      "v": 86
    },
    {
      "midi": 59,
      "hit": false,
      "t": 39230.76399999999,
      "d": 853.365270833332,
      "v": 94
    },
    {
      "midi": 62,
      "hit": false,
      "t": 39230.76399999999,
      "d": 1177.884458333334,
      "v": 82
    },
    {
      "midi": 43,
      "hit": false,
      "t": 39519.225499999986,
      "d": 1151.4421541666743,
      "v": 78
    },
    {
      "midi": 50,
      "hit": false,
      "t": 39807.68699999998,
      "d": 322.11534166667116,
      "v": 101
    },
    {
      "midi": 55,
      "hit": false,
      "t": 40096.14849999999,
      "d": 326.92303333333257,
      "v": 92
    },
    {
      "midi": 50,
      "hit": false,
      "t": 40384.609999999986,
      "d": 122.59613750000426,
      "v": 80
    },
    {
      "midi": 57,
      "hit": false,
      "t": 40673.07149999999,
      "d": 161.05767083333194,
      "v": 117
    },
    {
      "midi": 62,
      "hit": false,
      "t": 40673.07149999999,
      "d": 225.96150833333377,
      "v": 97
    },
    {
      "midi": 59,
      "hit": false,
      "t": 40961.53299999999,
      "d": 88.94229583333072,
      "v": 97
    },
    {
      "midi": 62,
      "hit": false,
      "t": 40961.53299999999,
      "d": 120.19229166666628,
      "v": 68
    },
    {
      "midi": 64,
      "hit": false,
      "t": 41249.99449999999,
      "d": 699.5191374999995,
      "v": 88
    },
    {
      "midi": 57,
      "hit": false,
      "t": 41249.99449999999,
      "d": 723.5575958333357,
      "v": 92
    },
    {
      "midi": 61,
      "hit": false,
      "t": 41249.99449999999,
      "d": 735.5768250000037,
      "v": 96
    },
    {
      "midi": 52,
      "hit": false,
      "t": 41249.99449999999,
      "d": 944.711412500008,
      "v": 74
    },
    {
      "midi": 45,
      "hit": false,
      "t": 41249.99449999999,
      "d": 1478.3651875000141,
      "v": 90
    },
    {
      "midi": 57,
      "hit": false,
      "t": 42115.379,
      "d": 471.153783333335,
      "v": 74
    },
    {
      "midi": 64,
      "hit": false,
      "t": 42115.379,
      "d": 483.1730125000031,
      "v": 79
    },
    {
      "midi": 61,
      "hit": false,
      "t": 42115.379,
      "d": 487.9807041666718,
      "v": 79
    },
    {
      "midi": 52,
      "hit": false,
      "t": 42548.07125,
      "d": 93.74998750000668,
      "v": 70
    },
    {
      "midi": 61,
      "hit": false,
      "t": 42692.30200000001,
      "d": 52.884608333333745,
      "v": 92
    },
    {
      "midi": 57,
      "hit": false,
      "t": 42692.30200000001,
      "d": 57.69230000000243,
      "v": 82
    },
    {
      "midi": 64,
      "hit": false,
      "t": 42692.30200000001,
      "d": 57.69230000000243,
      "v": 85
    },
    {
      "midi": 57,
      "hit": false,
      "t": 42980.763500000015,
      "d": 382.211487499997,
      "v": 90
    },
    {
      "midi": 61,
      "hit": false,
      "t": 42980.763500000015,
      "d": 461.53839999999764,
      "v": 96
    },
    {
      "midi": 64,
      "hit": false,
      "t": 42980.763500000015,
      "d": 466.3460916666663,
      "v": 88
    },
    {
      "midi": 52,
      "hit": false,
      "t": 43269.22500000001,
      "d": 151.44228750000184,
      "v": 62
    },
    {
      "midi": 45,
      "hit": false,
      "t": 43269.22500000001,
      "d": 182.6922833333374,
      "v": 79
    },
    {
      "midi": 64,
      "hit": false,
      "t": 43557.68650000002,
      "d": 74.51922083333193,
      "v": 60
    },
    {
      "midi": 61,
      "hit": false,
      "t": 43557.68650000002,
      "d": 84.13460416666203,
      "v": 56
    },
    {
      "midi": 57,
      "hit": false,
      "t": 43557.68650000002,
      "d": 105.76921666666021,
      "v": 80
    },
    {
      "midi": 55,
      "hit": false,
      "t": 43846.14800000001,
      "d": 670.6729875000019,
      "v": 79
    },
    {
      "midi": 59,
      "hit": false,
      "t": 43846.14800000001,
      "d": 908.6537249999965,
      "v": 88
    },
    {
      "midi": 62,
      "hit": false,
      "t": 43846.14800000001,
      "d": 1002.4037124999959,
      "v": 78
    },
    {
      "midi": 43,
      "hit": false,
      "t": 43846.14800000001,
      "d": 1598.5574791666659,
      "v": 86
    },
    {
      "midi": 50,
      "hit": false,
      "t": 44423.07100000001,
      "d": 192.3076666666675,
      "v": 86
    },
    {
      "midi": 55,
      "hit": false,
      "t": 44711.53250000001,
      "d": 149.03844166666386,
      "v": 78
    },
    {
      "midi": 57,
      "hit": false,
      "t": 44999.994000000006,
      "d": 334.13457083333196,
      "v": 101
    },
    {
      "midi": 62,
      "hit": false,
      "t": 44999.994000000006,
      "d": 543.2691583333362,
      "v": 92
    },
    {
      "midi": 59,
      "hit": false,
      "t": 45288.455500000004,
      "d": 319.71149583334045,
      "v": 75
    },
    {
      "midi": 55,
      "hit": false,
      "t": 45576.91700000001,
      "d": 103.36537083333678,
      "v": 74
    },
    {
      "midi": 56,
      "hit": false,
      "t": 46153.84000000001,
      "d": 721.1537499999977,
      "v": 79
    },
    {
      "midi": 64,
      "hit": false,
      "t": 46153.84000000001,
      "d": 742.7883624999959,
      "v": 79
    },
    {
      "midi": 40,
      "hit": false,
      "t": 46153.84000000001,
      "d": 766.826820833332,
      "v": 75
    },
    {
      "midi": 59,
      "hit": false,
      "t": 46153.84000000001,
      "d": 766.826820833332,
      "v": 85
    },
    {
      "midi": 56,
      "hit": false,
      "t": 47019.22450000001,
      "d": 343.74995416666206,
      "v": 71
    },
    {
      "midi": 59,
      "hit": false,
      "t": 47019.22450000001,
      "d": 439.9037874999922,
      "v": 85
    },
    {
      "midi": 64,
      "hit": false,
      "t": 47019.22450000001,
      "d": 512.0191624999934,
      "v": 79
    },
    {
      "midi": 40,
      "hit": false,
      "t": 47307.68600000001,
      "d": 415.8653291666633,
      "v": 82
    },
    {
      "midi": 55,
      "hit": false,
      "t": 48461.532,
      "d": 1225.961374999999,
      "v": 83
    },
    {
      "midi": 59,
      "hit": false,
      "t": 48461.532,
      "d": 1237.980604166667,
      "v": 92
    },
    {
      "midi": 62,
      "hit": false,
      "t": 48461.532,
      "d": 1237.980604166667,
      "v": 86
    },
    {
      "midi": 43,
      "hit": false,
      "t": 48461.532,
      "d": 1247.5959874999971,
      "v": 92
    },
    {
      "midi": 50,
      "hit": false,
      "t": 49615.378,
      "d": 55.28845416666445,
      "v": 75
    },
    {
      "midi": 59,
      "hit": false,
      "t": 49903.839499999995,
      "d": 74.51922083333193,
      "v": 101
    },
    {
      "midi": 55,
      "hit": false,
      "t": 49903.839499999995,
      "d": 86.53845000000001,
      "v": 88
    },
    {
      "midi": 62,
      "hit": false,
      "t": 49903.839499999995,
      "d": 93.7499874999994,
      "v": 86
    },
    {
      "midi": 59,
      "hit": false,
      "t": 50480.7625,
      "d": 694.7114458333308,
      "v": 67
    },
    {
      "midi": 63,
      "hit": false,
      "t": 50480.7625,
      "d": 843.7498874999947,
      "v": 79
    },
    {
      "midi": 66,
      "hit": false,
      "t": 50480.7625,
      "d": 1151.4421541666597,
      "v": 75
    },
    {
      "midi": 47,
      "hit": false,
      "t": 50480.7625,
      "d": 2060.0958791666562,
      "v": 76
    },
    {
      "midi": 59,
      "hit": false,
      "t": 51346.14699999999,
      "d": 1112.980620833332,
      "v": 97
    },
    {
      "midi": 63,
      "hit": false,
      "t": 51634.60849999999,
      "d": 800.4806624999983,
      "v": 66
    },
    {
      "midi": 63,
      "hit": false,
      "t": 52499.99299999999,
      "d": 60.09614583333314,
      "v": 84
    },
    {
      "midi": 59,
      "hit": false,
      "t": 52499.99299999999,
      "d": 76.92306666666991,
      "v": 66
    },
    {
      "midi": 66,
      "hit": false,
      "t": 52499.99299999999,
      "d": 81.7307583333386,
      "v": 96
    },
    {
      "midi": 55,
      "hit": false,
      "t": 53076.91599999999,
      "d": 899.0383416666664,
      "v": 82
    },
    {
      "midi": 48,
      "hit": false,
      "t": 53076.91599999999,
      "d": 915.8652625000032,
      "v": 85
    },
    {
      "midi": 60,
      "hit": false,
      "t": 53076.91599999999,
      "d": 927.8844916666712,
      "v": 75
    },
    {
      "midi": 64,
      "hit": false,
      "t": 53076.91599999999,
      "d": 927.8844916666712,
      "v": 80
    },
    {
      "midi": 48,
      "hit": false,
      "t": 54230.761999999995,
      "d": 108.1730624999982,
      "v": 117
    },
    {
      "midi": 47,
      "hit": false,
      "t": 54519.22349999999,
      "d": 124.99998333333497,
      "v": 99
    },
    {
      "midi": 46,
      "hit": false,
      "t": 54807.685,
      "d": 100.9615249999988,
      "v": 96
    },
    {
      "midi": 45,
      "hit": false,
      "t": 55096.146499999995,
      "d": 1045.6729374999995,
      "v": 86
    },
    {
      "midi": 57,
      "hit": false,
      "t": 55096.146499999995,
      "d": 1225.961374999999,
      "v": 78
    },
    {
      "midi": 61,
      "hit": false,
      "t": 55096.146499999995,
      "d": 1461.5382666666628,
      "v": 68
    },
    {
      "midi": 64,
      "hit": false,
      "t": 55096.146499999995,
      "d": 2346.1535333333304,
      "v": 73
    },
    {
      "midi": 45,
      "hit": false,
      "t": 56249.99249999999,
      "d": 1192.3075333333327,
      "v": 92
    },
    {
      "midi": 57,
      "hit": false,
      "t": 56538.45399999999,
      "d": 903.8460333333351,
      "v": 94
    },
    {
      "midi": 61,
      "hit": false,
      "t": 56826.91549999999,
      "d": 591.3460750000013,
      "v": 92
    },
    {
      "midi": 55,
      "hit": false,
      "t": 57692.299999999996,
      "d": 1225.961374999999,
      "v": 83
    },
    {
      "midi": 59,
      "hit": false,
      "t": 57692.299999999996,
      "d": 1237.980604166667,
      "v": 92
    },
    {
      "midi": 62,
      "hit": false,
      "t": 57692.299999999996,
      "d": 1237.980604166667,
      "v": 86
    },
    {
      "midi": 43,
      "hit": false,
      "t": 57692.299999999996,
      "d": 1247.5959874999971,
      "v": 92
    },
    {
      "midi": 50,
      "hit": false,
      "t": 58846.14599999999,
      "d": 55.28845416666445,
      "v": 75
    },
    {
      "midi": 59,
      "hit": false,
      "t": 59134.60749999999,
      "d": 74.51922083333193,
      "v": 101
    },
    {
      "midi": 55,
      "hit": false,
      "t": 59134.60749999999,
      "d": 86.53845000000001,
      "v": 88
    },
    {
      "midi": 62,
      "hit": false,
      "t": 59134.60749999999,
      "d": 93.7499874999994,
      "v": 86
    },
    {
      "midi": 59,
      "hit": false,
      "t": 59711.53049999999,
      "d": 694.7114458333308,
      "v": 67
    },
    {
      "midi": 63,
      "hit": false,
      "t": 59711.53049999999,
      "d": 843.7498874999947,
      "v": 79
    },
    {
      "midi": 66,
      "hit": false,
      "t": 59711.53049999999,
      "d": 1151.4421541666597,
      "v": 75
    },
    {
      "midi": 47,
      "hit": false,
      "t": 59711.53049999999,
      "d": 2060.0958791666562,
      "v": 76
    },
    {
      "midi": 59,
      "hit": false,
      "t": 60576.914999999986,
      "d": 1112.980620833332,
      "v": 97
    },
    {
      "midi": 63,
      "hit": false,
      "t": 60865.376499999984,
      "d": 800.4806624999983,
      "v": 66
    },
    {
      "midi": 63,
      "hit": false,
      "t": 61730.760999999984,
      "d": 60.09614583333314,
      "v": 84
    },
    {
      "midi": 59,
      "hit": false,
      "t": 61730.760999999984,
      "d": 76.92306666666991,
      "v": 66
    },
    {
      "midi": 66,
      "hit": false,
      "t": 61730.760999999984,
      "d": 81.7307583333386,
      "v": 96
    },
    {
      "midi": 55,
      "hit": false,
      "t": 62307.68399999999,
      "d": 899.0383416666664,
      "v": 82
    },
    {
      "midi": 48,
      "hit": false,
      "t": 62307.68399999999,
      "d": 915.8652625000032,
      "v": 85
    },
    {
      "midi": 60,
      "hit": false,
      "t": 62307.68399999999,
      "d": 927.8844916666712,
      "v": 75
    },
    {
      "midi": 64,
      "hit": false,
      "t": 62307.68399999999,
      "d": 927.8844916666712,
      "v": 80
    },
    {
      "midi": 48,
      "hit": false,
      "t": 63461.52999999999,
      "d": 108.1730624999982,
      "v": 117
    },
    {
      "midi": 47,
      "hit": false,
      "t": 63749.99149999999,
      "d": 124.99998333333497,
      "v": 99
    },
    {
      "midi": 46,
      "hit": false,
      "t": 64038.452999999994,
      "d": 100.9615249999988,
      "v": 96
    },
    {
      "midi": 45,
      "hit": false,
      "t": 64326.91449999999,
      "d": 1045.6729374999995,
      "v": 86
    },
    {
      "midi": 57,
      "hit": false,
      "t": 64326.91449999999,
      "d": 1225.9613749999917,
      "v": 78
    },
    {
      "midi": 61,
      "hit": false,
      "t": 64326.91449999999,
      "d": 1461.5382666666483,
      "v": 68
    },
    {
      "midi": 64,
      "hit": false,
      "t": 64326.91449999999,
      "d": 2346.1535333333086,
      "v": 73
    },
    {
      "midi": 45,
      "hit": false,
      "t": 65480.76049999999,
      "d": 1192.3075333333109,
      "v": 92
    },
    {
      "midi": 57,
      "hit": false,
      "t": 65769.22199999998,
      "d": 903.8460333333205,
      "v": 94
    },
    {
      "midi": 61,
      "hit": false,
      "t": 66057.68349999997,
      "d": 591.346074999994,
      "v": 92
    },
    {
      "midi": 55,
      "hit": false,
      "t": 66923.06799999997,
      "d": 826.9229666666652,
      "v": 90
    },
    {
      "midi": 59,
      "hit": false,
      "t": 66923.06799999997,
      "d": 1057.6921666666603,
      "v": 104
    },
    {
      "midi": 62,
      "hit": false,
      "t": 66923.06799999997,
      "d": 1146.634462499991,
      "v": 88
    },
    {
      "midi": 43,
      "hit": false,
      "t": 66923.06799999997,
      "d": 1399.0382749999844,
      "v": 99
    },
    {
      "midi": 50,
      "hit": false,
      "t": 67499.99099999997,
      "d": 389.4230249999964,
      "v": 92
    },
    {
      "midi": 50,
      "hit": false,
      "t": 67932.68324999996,
      "d": 93.74998750000668,
      "v": 101
    },
    {
      "midi": 55,
      "hit": false,
      "t": 67932.68324999996,
      "d": 132.21152083334164,
      "v": 83
    },
    {
      "midi": 59,
      "hit": false,
      "t": 68365.37549999995,
      "d": 60.09614583333314,
      "v": 107
    },
    {
      "midi": 55,
      "hit": false,
      "t": 68365.37549999995,
      "d": 64.90383749999455,
      "v": 92
    },
    {
      "midi": 62,
      "hit": false,
      "t": 68365.37549999995,
      "d": 100.96152499999152,
      "v": 92
    },
    {
      "midi": 56,
      "hit": false,
      "t": 68942.29849999995,
      "d": 389.4230249999964,
      "v": 84
    },
    {
      "midi": 59,
      "hit": false,
      "t": 68942.29849999995,
      "d": 411.0576374999946,
      "v": 94
    },
    {
      "midi": 64,
      "hit": false,
      "t": 68942.29849999995,
      "d": 442.30763333333016,
      "v": 85
    },
    {
      "midi": 40,
      "hit": false,
      "t": 68942.29849999995,
      "d": 1689.9036208333127,
      "v": 75
    },
    {
      "midi": 66,
      "hit": false,
      "t": 69807.68299999995,
      "d": 168.26920833332406,
      "v": 77
    },
    {
      "midi": 64,
      "hit": false,
      "t": 69807.68299999995,
      "d": 213.9422791666584,
      "v": 79
    },
    {
      "midi": 71,
      "hit": false,
      "t": 69807.68299999995,
      "d": 627.4037624999764,
      "v": 82
    },
    {
      "midi": 68,
      "hit": false,
      "t": 69951.91374999993,
      "d": 170.67305416666204,
      "v": 89
    },
    {
      "midi": 66,
      "hit": false,
      "t": 70096.14449999994,
      "d": 259.61534999999276,
      "v": 104
    },
    {
      "midi": 64,
      "hit": false,
      "t": 70384.60599999993,
      "d": 117.7884458333283,
      "v": 86
    },
    {
      "midi": 56,
      "hit": false,
      "t": 70961.52899999992,
      "d": 221.15381666667236,
      "v": 77
    },
    {
      "midi": 59,
      "hit": false,
      "t": 70961.52899999992,
      "d": 242.78842916667054,
      "v": 80
    },
    {
      "midi": 64,
      "hit": false,
      "t": 70961.52899999992,
      "d": 305.2884208333271,
      "v": 62
    },
    {
      "midi": 55,
      "hit": false,
      "t": 71538.4519999999,
      "d": 675.4806791666633,
      "v": 80
    },
    {
      "midi": 59,
      "hit": false,
      "t": 71538.4519999999,
      "d": 937.4998749999941,
      "v": 86
    },
    {
      "midi": 62,
      "hit": false,
      "t": 71538.4519999999,
      "d": 1016.8267874999874,
      "v": 79
    },
    {
      "midi": 43,
      "hit": false,
      "t": 71538.4519999999,
      "d": 1485.5767249999772,
      "v": 85
    },
    {
      "midi": 50,
      "hit": false,
      "t": 72115.3749999999,
      "d": 144.23075000000244,
      "v": 76
    },
    {
      "midi": 55,
      "hit": false,
      "t": 72403.8364999999,
      "d": 187.49997499998426,
      "v": 73
    },
    {
      "midi": 57,
      "hit": false,
      "t": 72692.29799999988,
      "d": 346.15380000000005,
      "v": 104
    },
    {
      "midi": 62,
      "hit": false,
      "t": 72692.29799999988,
      "d": 399.0384083333338,
      "v": 90
    },
    {
      "midi": 59,
      "hit": false,
      "t": 72980.75949999988,
      "d": 225.96150833333377,
      "v": 59
    },
    {
      "midi": 55,
      "hit": false,
      "t": 73269.22099999989,
      "d": 91.3461416666687,
      "v": 72
    },
    {
      "midi": 56,
      "hit": false,
      "t": 73557.68249999988,
      "d": 649.0383749999892,
      "v": 52
    },
    {
      "midi": 64,
      "hit": false,
      "t": 73557.68249999988,
      "d": 658.6537583333266,
      "v": 67
    },
    {
      "midi": 59,
      "hit": false,
      "t": 73557.68249999988,
      "d": 689.9037541666621,
      "v": 71
    },
    {
      "midi": 40,
      "hit": false,
      "t": 73557.68249999988,
      "d": 2206.730475000004,
      "v": 92
    },
    {
      "midi": 56,
      "hit": false,
      "t": 74423.06699999988,
      "d": 324.51918750000186,
      "v": 84
    },
    {
      "midi": 59,
      "hit": false,
      "t": 74423.06699999988,
      "d": 353.36533749999944,
      "v": 99
    },
    {
      "midi": 64,
      "hit": false,
      "t": 74423.06699999988,
      "d": 389.4230249999964,
      "v": 86
    },
    {
      "midi": 76,
      "hit": false,
      "t": 75576.91299999988,
      "d": 137.01921250000305,
      "v": 88
    },
    {
      "midi": 64,
      "hit": false,
      "t": 75576.91299999988,
      "d": 161.05767083333922,
      "v": 68
    },
    {
      "midi": 55,
      "hit": false,
      "t": 76153.83599999988,
      "d": 634.6153000000049,
      "v": 86
    },
    {
      "midi": 59,
      "hit": false,
      "t": 76153.83599999988,
      "d": 853.3652708333393,
      "v": 94
    },
    {
      "midi": 62,
      "hit": false,
      "t": 76153.83599999988,
      "d": 1177.8844583333412,
      "v": 82
    },
    {
      "midi": 43,
      "hit": false,
      "t": 76442.29749999988,
      "d": 1151.442154166667,
      "v": 78
    },
    {
      "midi": 50,
      "hit": false,
      "t": 76730.75899999989,
      "d": 322.1153416666639,
      "v": 101
    },
    {
      "midi": 55,
      "hit": false,
      "t": 77019.22049999988,
      "d": 326.92303333333984,
      "v": 92
    },
    {
      "midi": 50,
      "hit": false,
      "t": 77307.68199999988,
      "d": 122.59613750000426,
      "v": 80
    },
    {
      "midi": 57,
      "hit": false,
      "t": 77596.14349999989,
      "d": 161.05767083333922,
      "v": 117
    },
    {
      "midi": 62,
      "hit": false,
      "t": 77596.14349999989,
      "d": 225.96150833333377,
      "v": 97
    },
    {
      "midi": 59,
      "hit": false,
      "t": 77884.6049999999,
      "d": 88.94229583333072,
      "v": 97
    },
    {
      "midi": 62,
      "hit": false,
      "t": 77884.6049999999,
      "d": 120.19229166666628,
      "v": 68
    },
    {
      "midi": 64,
      "hit": false,
      "t": 78173.0664999999,
      "d": 699.5191374999995,
      "v": 88
    },
    {
      "midi": 57,
      "hit": false,
      "t": 78173.0664999999,
      "d": 723.5575958333357,
      "v": 92
    },
    {
      "midi": 61,
      "hit": false,
      "t": 78173.0664999999,
      "d": 735.5768249999965,
      "v": 96
    },
    {
      "midi": 52,
      "hit": false,
      "t": 78173.0664999999,
      "d": 944.7114124999935,
      "v": 74
    },
    {
      "midi": 45,
      "hit": false,
      "t": 78173.0664999999,
      "d": 1478.3651874999778,
      "v": 90
    },
    {
      "midi": 57,
      "hit": false,
      "t": 79038.4509999999,
      "d": 471.15378333332774,
      "v": 74
    },
    {
      "midi": 64,
      "hit": false,
      "t": 79038.4509999999,
      "d": 483.17301249998854,
      "v": 79
    },
    {
      "midi": 61,
      "hit": false,
      "t": 79038.4509999999,
      "d": 487.98070416664996,
      "v": 79
    },
    {
      "midi": 52,
      "hit": false,
      "t": 79471.14324999989,
      "d": 93.74998749999213,
      "v": 70
    },
    {
      "midi": 61,
      "hit": false,
      "t": 79615.37399999988,
      "d": 52.884608333333745,
      "v": 92
    },
    {
      "midi": 57,
      "hit": false,
      "t": 79615.37399999988,
      "d": 57.69229999999516,
      "v": 82
    },
    {
      "midi": 64,
      "hit": false,
      "t": 79615.37399999988,
      "d": 57.69229999999516,
      "v": 85
    },
    {
      "midi": 57,
      "hit": false,
      "t": 79903.83549999987,
      "d": 382.2114875000116,
      "v": 90
    },
    {
      "midi": 61,
      "hit": false,
      "t": 79903.83549999987,
      "d": 461.5384000000049,
      "v": 96
    },
    {
      "midi": 64,
      "hit": false,
      "t": 79903.83549999987,
      "d": 466.3460916666663,
      "v": 88
    },
    {
      "midi": 52,
      "hit": false,
      "t": 80192.29699999987,
      "d": 151.44228750000184,
      "v": 62
    },
    {
      "midi": 45,
      "hit": false,
      "t": 80192.29699999987,
      "d": 182.69228333332285,
      "v": 79
    },
    {
      "midi": 64,
      "hit": false,
      "t": 80480.75849999987,
      "d": 74.51922083333193,
      "v": 60
    },
    {
      "midi": 61,
      "hit": false,
      "t": 80480.75849999987,
      "d": 84.1346041666693,
      "v": 56
    },
    {
      "midi": 57,
      "hit": false,
      "t": 80480.75849999987,
      "d": 105.76921666666749,
      "v": 80
    },
    {
      "midi": 55,
      "hit": false,
      "t": 80769.21999999987,
      "d": 670.6729875000165,
      "v": 79
    },
    {
      "midi": 59,
      "hit": false,
      "t": 80769.21999999987,
      "d": 908.653725000011,
      "v": 88
    },
    {
      "midi": 62,
      "hit": false,
      "t": 80769.21999999987,
      "d": 1002.4037125000177,
      "v": 78
    },
    {
      "midi": 43,
      "hit": false,
      "t": 80769.21999999987,
      "d": 1598.5574791666731,
      "v": 86
    },
    {
      "midi": 50,
      "hit": false,
      "t": 81346.14299999988,
      "d": 192.30766666667478,
      "v": 86
    },
    {
      "midi": 55,
      "hit": false,
      "t": 81634.60449999988,
      "d": 149.03844166666386,
      "v": 78
    },
    {
      "midi": 57,
      "hit": false,
      "t": 81923.06599999988,
      "d": 334.13457083333924,
      "v": 101
    },
    {
      "midi": 62,
      "hit": false,
      "t": 81923.06599999988,
      "d": 543.2691583333217,
      "v": 92
    },
    {
      "midi": 59,
      "hit": false,
      "t": 82211.52749999988,
      "d": 319.7114958333259,
      "v": 75
    },
    {
      "midi": 55,
      "hit": false,
      "t": 82499.98899999987,
      "d": 103.36537083332951,
      "v": 74
    },
    {
      "midi": 56,
      "hit": false,
      "t": 83076.91199999987,
      "d": 721.1537499999977,
      "v": 79
    },
    {
      "midi": 64,
      "hit": false,
      "t": 83076.91199999987,
      "d": 742.7883624999959,
      "v": 79
    },
    {
      "midi": 40,
      "hit": false,
      "t": 83076.91199999987,
      "d": 766.826820833332,
      "v": 75
    },
    {
      "midi": 59,
      "hit": false,
      "t": 83076.91199999987,
      "d": 766.826820833332,
      "v": 85
    },
    {
      "midi": 56,
      "hit": false,
      "t": 83942.29649999987,
      "d": 343.7499541666766,
      "v": 71
    },
    {
      "midi": 59,
      "hit": false,
      "t": 83942.29649999987,
      "d": 439.90378750000673,
      "v": 85
    },
    {
      "midi": 64,
      "hit": false,
      "t": 83942.29649999987,
      "d": 512.0191625000007,
      "v": 79
    },
    {
      "midi": 40,
      "hit": false,
      "t": 84230.75799999987,
      "d": 415.865329166656,
      "v": 82
    },
    {
      "midi": 43,
      "hit": false,
      "t": 85384.60399999986,
      "d": 365.38456666666025,
      "v": 110
    },
    {
      "midi": 55,
      "hit": false,
      "t": 85384.60399999986,
      "d": 403.8460999999952,
      "v": 90
    },
    {
      "midi": 62,
      "hit": false,
      "t": 85384.60399999986,
      "d": 423.0768666666554,
      "v": 88
    },
    {
      "midi": 59,
      "hit": false,
      "t": 85384.60399999986,
      "d": 432.6922499999928,
      "v": 101
    },
    {
      "midi": 59,
      "hit": false,
      "t": 85961.52699999986,
      "d": 76.92306666666991,
      "v": 104
    },
    {
      "midi": 55,
      "hit": false,
      "t": 85961.52699999986,
      "d": 91.3461416666687,
      "v": 88
    },
    {
      "midi": 62,
      "hit": false,
      "t": 85961.52699999986,
      "d": 105.76921666666749,
      "v": 88
    },
    {
      "midi": 50,
      "hit": false,
      "t": 86538.44999999987,
      "d": 76.92306666666991,
      "v": 88
    },
    {
      "midi": 57,
      "hit": false,
      "t": 86538.44999999987,
      "d": 76.92306666666991,
      "v": 78
    },
    {
      "midi": 62,
      "hit": false,
      "t": 86538.44999999987,
      "d": 81.73075833333132,
      "v": 88
    },
    {
      "midi": 66,
      "hit": false,
      "t": 86538.44999999987,
      "d": 88.94229583333072,
      "v": 92
    },
    {
      "midi": 69,
      "hit": false,
      "t": 86538.44999999987,
      "d": 96.15383333333011,
      "v": 92
    },
    {
      "midi": 57,
      "hit": false,
      "t": 86826.91149999986,
      "d": 240.38458333333256,
      "v": 90
    },
    {
      "midi": 50,
      "hit": false,
      "t": 86826.91149999986,
      "d": 278.8461166666675,
      "v": 99
    },
    {
      "midi": 69,
      "hit": false,
      "t": 86826.91149999986,
      "d": 283.6538083333289,
      "v": 97
    },
    {
      "midi": 66,
      "hit": false,
      "t": 86826.91149999986,
      "d": 290.8653458333283,
      "v": 100
    },
    {
      "midi": 62,
      "hit": false,
      "t": 86826.91149999986,
      "d": 298.0768833333277,
      "v": 94
    },
    {
      "midi": 67,
      "hit": false,
      "t": 87403.83449999985,
      "d": 622.5960708333441,
      "v": 94
    },
    {
      "midi": 60,
      "hit": false,
      "t": 87403.83449999985,
      "d": 627.4037625000055,
      "v": 90
    },
    {
      "midi": 64,
      "hit": false,
      "t": 87403.83449999985,
      "d": 639.4229916666663,
      "v": 104
    },
    {
      "midi": 48,
      "hit": false,
      "t": 87403.83449999985,
      "d": 2254.8073916666763,
      "v": 97
    },
    {
      "midi": 55,
      "hit": false,
      "t": 87980.75749999986,
      "d": 98.55767916665354,
      "v": 97
    },
    {
      "midi": 60,
      "hit": false,
      "t": 88269.21899999985,
      "d": 165.86536250000063,
      "v": 101
    },
    {
      "midi": 64,
      "hit": false,
      "t": 88269.21899999985,
      "d": 173.07690000000002,
      "v": 113
    },
    {
      "midi": 67,
      "hit": false,
      "t": 88269.21899999985,
      "d": 180.28843749999942,
      "v": 99
    },
    {
      "midi": 65,
      "hit": false,
      "t": 88557.68049999986,
      "d": 161.05767083333922,
      "v": 99
    },
    {
      "midi": 69,
      "hit": false,
      "t": 88557.68049999986,
      "d": 161.05767083333922,
      "v": 92
    },
    {
      "midi": 60,
      "hit": false,
      "t": 88557.68049999986,
      "d": 175.480745833338,
      "v": 85
    },
    {
      "midi": 70,
      "hit": false,
      "t": 88846.14199999986,
      "d": 197.1153583333362,
      "v": 104
    },
    {
      "midi": 67,
      "hit": false,
      "t": 88846.14199999986,
      "d": 209.134587499997,
      "v": 99
    },
    {
      "midi": 60,
      "hit": false,
      "t": 88846.14199999986,
      "d": 269.23073333333014,
      "v": 71
    },
    {
      "midi": 60,
      "hit": false,
      "t": 89134.60349999985,
      "d": 163.4615166666772,
      "v": 64
    },
    {
      "midi": 65,
      "hit": false,
      "t": 89134.60349999985,
      "d": 163.4615166666772,
      "v": 92
    },
    {
      "midi": 69,
      "hit": false,
      "t": 89134.60349999985,
      "d": 163.4615166666772,
      "v": 92
    },
    {
      "midi": 67,
      "hit": false,
      "t": 89423.06499999986,
      "d": 271.6345791666681,
      "v": 90
    },
    {
      "midi": 64,
      "hit": false,
      "t": 89423.06499999986,
      "d": 290.8653458333283,
      "v": 97
    },
    {
      "midi": 60,
      "hit": false,
      "t": 89423.06499999986,
      "d": 307.6922666666651,
      "v": 86
    },
    {
      "midi": 55,
      "hit": false,
      "t": 89999.98799999985,
      "d": 432.69225000000733,
      "v": 92
    },
    {
      "midi": 62,
      "hit": false,
      "t": 89999.98799999985,
      "d": 444.71147916666814,
      "v": 79
    },
    {
      "midi": 59,
      "hit": false,
      "t": 89999.98799999985,
      "d": 456.73070833332895,
      "v": 104
    },
    {
      "midi": 43,
      "hit": false,
      "t": 90288.44949999986,
      "d": 350.96149166666146,
      "v": 97
    },
    {
      "midi": 55,
      "hit": false,
      "t": 90576.91099999985,
      "d": 132.21152083334164,
      "v": 92
    },
    {
      "midi": 59,
      "hit": false,
      "t": 90576.91099999985,
      "d": 177.884591666676,
      "v": 104
    },
    {
      "midi": 62,
      "hit": false,
      "t": 90576.91099999985,
      "d": 209.13458750001155,
      "v": 92
    },
    {
      "midi": 57,
      "hit": false,
      "t": 90865.37249999985,
      "d": 40.86537916667294,
      "v": 14
    },
    {
      "midi": 54,
      "hit": false,
      "t": 91009.60324999985,
      "d": 81.73075833333132,
      "v": 51
    },
    {
      "midi": 50,
      "hit": false,
      "t": 91009.60324999985,
      "d": 100.96152499999152,
      "v": 83
    },
    {
      "midi": 66,
      "hit": false,
      "t": 91153.83399999986,
      "d": 57.69229999999516,
      "v": 96
    },
    {
      "midi": 57,
      "hit": false,
      "t": 91153.83399999986,
      "d": 81.73075833333132,
      "v": 85
    },
    {
      "midi": 62,
      "hit": false,
      "t": 91153.83399999986,
      "d": 81.73075833333132,
      "v": 88
    },
    {
      "midi": 69,
      "hit": false,
      "t": 91153.83399999986,
      "d": 86.53844999999274,
      "v": 94
    },
    {
      "midi": 69,
      "hit": false,
      "t": 91442.29549999985,
      "d": 274.03842499999155,
      "v": 97
    },
    {
      "midi": 66,
      "hit": false,
      "t": 91442.29549999985,
      "d": 281.24996249999094,
      "v": 100
    },
    {
      "midi": 62,
      "hit": false,
      "t": 91442.29549999985,
      "d": 286.05765416665236,
      "v": 97
    },
    {
      "midi": 55,
      "hit": false,
      "t": 91730.75699999984,
      "d": 74.51922083333193,
      "v": 94
    },
    {
      "midi": 60,
      "hit": false,
      "t": 92019.21849999983,
      "d": 615.3845333333302,
      "v": 85
    },
    {
      "midi": 67,
      "hit": false,
      "t": 92019.21849999983,
      "d": 615.3845333333302,
      "v": 90
    },
    {
      "midi": 64,
      "hit": false,
      "t": 92019.21849999983,
      "d": 663.4614500000025,
      "v": 94
    },
    {
      "midi": 48,
      "hit": false,
      "t": 92019.21849999983,
      "d": 1137.0190791666537,
      "v": 94
    },
    {
      "midi": 55,
      "hit": false,
      "t": 92596.14149999982,
      "d": 406.2499458333332,
      "v": 99
    },
    {
      "midi": 64,
      "hit": false,
      "t": 92884.60299999983,
      "d": 146.63459583332587,
      "v": 107
    },
    {
      "midi": 60,
      "hit": false,
      "t": 92884.60299999983,
      "d": 153.84613333332527,
      "v": 94
    },
    {
      "midi": 67,
      "hit": false,
      "t": 92884.60299999983,
      "d": 442.30763333333016,
      "v": 92
    },
    {
      "midi": 55,
      "hit": false,
      "t": 93173.06449999982,
      "d": 103.36537083332951,
      "v": 80
    },
    {
      "midi": 55,
      "hit": false,
      "t": 93317.29524999982,
      "d": 120.19229166666628,
      "v": 94
    },
    {
      "midi": 48,
      "hit": false,
      "t": 93317.29524999982,
      "d": 872.5960375000141,
      "v": 70
    },
    {
      "midi": 58,
      "hit": false,
      "t": 93461.52599999982,
      "d": 305.28842083334166,
      "v": 89
    },
    {
      "midi": 64,
      "hit": false,
      "t": 93461.52599999982,
      "d": 370.1922583333362,
      "v": 99
    },
    {
      "midi": 67,
      "hit": false,
      "t": 93461.52599999982,
      "d": 420.673020833332,
      "v": 88
    },
    {
      "midi": 55,
      "hit": false,
      "t": 93749.98749999983,
      "d": 348.55764583333803,
      "v": 104
    },
    {
      "midi": 64,
      "hit": false,
      "t": 94038.44899999983,
      "d": 228.36535416667175,
      "v": 101
    },
    {
      "midi": 67,
      "hit": false,
      "t": 94038.44899999983,
      "d": 228.36535416667175,
      "v": 90
    },
    {
      "midi": 60,
      "hit": false,
      "t": 94038.44899999983,
      "d": 252.40381250000792,
      "v": 90
    },
    {
      "midi": 55,
      "hit": false,
      "t": 94615.37199999984,
      "d": 408.6537916666566,
      "v": 90
    },
    {
      "midi": 62,
      "hit": false,
      "t": 94615.37199999984,
      "d": 408.6537916666566,
      "v": 88
    },
    {
      "midi": 59,
      "hit": false,
      "t": 94615.37199999984,
      "d": 418.269174999994,
      "v": 99
    },
    {
      "midi": 43,
      "hit": false,
      "t": 94615.37199999984,
      "d": 507.2114708333247,
      "v": 92
    },
    {
      "midi": 55,
      "hit": false,
      "t": 95192.29499999984,
      "d": 93.74998749999213,
      "v": 94
    },
    {
      "midi": 59,
      "hit": false,
      "t": 95192.29499999984,
      "d": 93.74998749999213,
      "v": 104
    },
    {
      "midi": 62,
      "hit": false,
      "t": 95192.29499999984,
      "d": 139.42305833332648,
      "v": 92
    },
    {
      "midi": 50,
      "hit": false,
      "t": 95769.21799999983,
      "d": 96.15383333333011,
      "v": 85
    },
    {
      "midi": 57,
      "hit": false,
      "t": 95769.21799999983,
      "d": 100.96152499999152,
      "v": 75
    },
    {
      "midi": 62,
      "hit": false,
      "t": 95769.21799999983,
      "d": 112.98075416665233,
      "v": 88
    },
    {
      "midi": 66,
      "hit": false,
      "t": 95769.21799999983,
      "d": 112.98075416665233,
      "v": 100
    },
    {
      "midi": 57,
      "hit": false,
      "t": 96057.67949999982,
      "d": 233.17304583333316,
      "v": 86
    },
    {
      "midi": 66,
      "hit": false,
      "t": 96057.67949999982,
      "d": 233.17304583333316,
      "v": 104
    },
    {
      "midi": 62,
      "hit": false,
      "t": 96057.67949999982,
      "d": 240.38458333333256,
      "v": 94
    },
    {
      "midi": 50,
      "hit": false,
      "t": 96057.67949999982,
      "d": 257.21150416666933,
      "v": 97
    },
    {
      "midi": 55,
      "hit": false,
      "t": 96634.60249999983,
      "d": 346.15380000000005,
      "v": 99
    },
    {
      "midi": 60,
      "hit": false,
      "t": 96634.60249999983,
      "d": 665.8652958333405,
      "v": 90
    },
    {
      "midi": 64,
      "hit": false,
      "t": 96634.60249999983,
      "d": 665.8652958333405,
      "v": 101
    },
    {
      "midi": 48,
      "hit": false,
      "t": 96634.60249999983,
      "d": 834.1345041666791,
      "v": 97
    },
    {
      "midi": 55,
      "hit": false,
      "t": 97211.52549999984,
      "d": 158.65382500000123,
      "v": 120
    },
    {
      "midi": 67,
      "hit": false,
      "t": 97499.98699999985,
      "d": 129.80767500000366,
      "v": 99
    },
    {
      "midi": 62,
      "hit": false,
      "t": 97499.98699999985,
      "d": 149.03844166666386,
      "v": 107
    },
    {
      "midi": 50,
      "hit": false,
      "t": 97788.44849999984,
      "d": 115.38460000000487,
      "v": 85
    },
    {
      "midi": 55,
      "hit": false,
      "t": 98076.90999999984,
      "d": 447.1153250000061,
      "v": 94
    },
    {
      "midi": 59,
      "hit": false,
      "t": 98076.90999999984,
      "d": 463.9422458333429,
      "v": 97
    },
    {
      "midi": 62,
      "hit": false,
      "t": 98076.90999999984,
      "d": 463.9422458333429,
      "v": 86
    },
    {
      "midi": 43,
      "hit": false,
      "t": 98076.90999999984,
      "d": 850.9614250000013,
      "v": 104
    },
    {
      "midi": 50,
      "hit": false,
      "t": 98365.37149999985,
      "d": 427.88455833333137,
      "v": 99
    },
    {
      "midi": 57,
      "hit": false,
      "t": 98653.83299999985,
      "d": 139.42305833332648,
      "v": 107
    },
    {
      "midi": 62,
      "hit": false,
      "t": 98653.83299999985,
      "d": 211.53843333332043,
      "v": 99
    },
    {
      "midi": 62,
      "hit": false,
      "t": 98942.29449999984,
      "d": 132.21152083332709,
      "v": 72
    },
    {
      "midi": 59,
      "hit": false,
      "t": 98942.29449999984,
      "d": 137.0192124999885,
      "v": 99
    },
    {
      "midi": 53,
      "hit": false,
      "t": 99230.75599999983,
      "d": 418.269174999994,
      "v": 90
    },
    {
      "midi": 60,
      "hit": false,
      "t": 99230.75599999983,
      "d": 454.32686249999097,
      "v": 92
    },
    {
      "midi": 57,
      "hit": false,
      "t": 99230.75599999983,
      "d": 466.3460916666518,
      "v": 101
    },
    {
      "midi": 41,
      "hit": false,
      "t": 99230.75599999983,
      "d": 1221.1536833332939,
      "v": 101
    },
    {
      "midi": 53,
      "hit": false,
      "t": 99807.67899999981,
      "d": 439.9037874999922,
      "v": 94
    },
    {
      "midi": 60,
      "hit": false,
      "t": 99807.67899999981,
      "d": 451.923016666653,
      "v": 92
    },
    {
      "midi": 57,
      "hit": false,
      "t": 99807.67899999981,
      "d": 463.9422458333138,
      "v": 104
    },
    {
      "midi": 48,
      "hit": false,
      "t": 100240.37124999981,
      "d": 62.49999166665657,
      "v": 86
    },
    {
      "midi": 53,
      "hit": false,
      "t": 100384.6019999998,
      "d": 60.09614583333314,
      "v": 90
    },
    {
      "midi": 57,
      "hit": false,
      "t": 100384.6019999998,
      "d": 60.09614583333314,
      "v": 104
    },
    {
      "midi": 60,
      "hit": false,
      "t": 100384.6019999998,
      "d": 67.30768333333253,
      "v": 90
    },
    {
      "midi": 53,
      "hit": false,
      "t": 100673.0634999998,
      "d": 225.96150833333377,
      "v": 99
    },
    {
      "midi": 57,
      "hit": false,
      "t": 100673.0634999998,
      "d": 259.6153500000073,
      "v": 113
    },
    {
      "midi": 60,
      "hit": false,
      "t": 100673.0634999998,
      "d": 278.84611666668206,
      "v": 97
    },
    {
      "midi": 57,
      "hit": false,
      "t": 100961.52499999982,
      "d": 52.884608333333745,
      "v": 48
    },
    {
      "midi": 62,
      "hit": false,
      "t": 101249.98649999982,
      "d": 271.63457916665357,
      "v": 92
    },
    {
      "midi": 69,
      "hit": false,
      "t": 101249.98649999982,
      "d": 271.63457916665357,
      "v": 90
    },
    {
      "midi": 66,
      "hit": false,
      "t": 101249.98649999982,
      "d": 286.05765416665236,
      "v": 96
    },
    {
      "midi": 57,
      "hit": false,
      "t": 101249.98649999982,
      "d": 1127.4036958333018,
      "v": 80
    },
    {
      "midi": 50,
      "hit": false,
      "t": 101249.98649999982,
      "d": 1538.4613333332964,
      "v": 94
    },
    {
      "midi": 62,
      "hit": false,
      "t": 101826.9094999998,
      "d": 67.30768333333253,
      "v": 80
    },
    {
      "midi": 74,
      "hit": false,
      "t": 101826.9094999998,
      "d": 67.30768333333253,
      "v": 75
    },
    {
      "midi": 74,
      "hit": false,
      "t": 101971.14024999981,
      "d": 72.11537499999395,
      "v": 85
    },
    {
      "midi": 62,
      "hit": false,
      "t": 101971.14024999981,
      "d": 76.92306666665536,
      "v": 83
    },
    {
      "midi": 62,
      "hit": false,
      "t": 102115.3709999998,
      "d": 341.3461083333241,
      "v": 82
    },
    {
      "midi": 74,
      "hit": false,
      "t": 102115.3709999998,
      "d": 358.17302916666085,
      "v": 97
    },
    {
      "midi": 57,
      "hit": false,
      "t": 102403.83249999979,
      "d": 317.30765000000247,
      "v": 88
    },
    {
      "midi": 62,
      "hit": false,
      "t": 102692.29399999979,
      "d": 377.40379583332106,
      "v": 101
    },
    {
      "midi": 74,
      "hit": false,
      "t": 102692.29399999979,
      "d": 377.40379583332106,
      "v": 110
    },
    {
      "midi": 50,
      "hit": false,
      "t": 102980.75549999978,
      "d": 79.32691249999334,
      "v": 86
    },
    {
      "midi": 57,
      "hit": false,
      "t": 102980.75549999978,
      "d": 100.96152499999152,
      "v": 80
    },
    {
      "midi": 62,
      "hit": false,
      "t": 103269.21699999977,
      "d": 319.71149583334045,
      "v": 92
    },
    {
      "midi": 57,
      "hit": false,
      "t": 103269.21699999977,
      "d": 326.92303333333984,
      "v": 83
    },
    {
      "midi": 50,
      "hit": false,
      "t": 103269.21699999977,
      "d": 338.94226250000065,
      "v": 99
    },
    {
      "midi": 74,
      "hit": false,
      "t": 103269.21699999977,
      "d": 338.94226250000065,
      "v": 97
    },
    {
      "midi": 55,
      "hit": false,
      "t": 103846.13999999977,
      "d": 1225.9613750000135,
      "v": 83
    },
    {
      "midi": 59,
      "hit": false,
      "t": 103846.13999999977,
      "d": 1237.9806041666743,
      "v": 92
    },
    {
      "midi": 62,
      "hit": false,
      "t": 103846.13999999977,
      "d": 1237.9806041666743,
      "v": 86
    },
    {
      "midi": 43,
      "hit": false,
      "t": 103846.13999999977,
      "d": 1247.5959875000117,
      "v": 92
    },
    {
      "midi": 50,
      "hit": false,
      "t": 104999.98599999977,
      "d": 55.28845416667173,
      "v": 75
    },
    {
      "midi": 59,
      "hit": false,
      "t": 105288.44749999978,
      "d": 74.51922083333193,
      "v": 101
    },
    {
      "midi": 55,
      "hit": false,
      "t": 105288.44749999978,
      "d": 86.53844999999274,
      "v": 88
    },
    {
      "midi": 62,
      "hit": false,
      "t": 105288.44749999978,
      "d": 93.74998749999213,
      "v": 86
    },
    {
      "midi": 59,
      "hit": false,
      "t": 105865.37049999977,
      "d": 694.7114458333381,
      "v": 67
    },
    {
      "midi": 63,
      "hit": false,
      "t": 105865.37049999977,
      "d": 843.7498875000019,
      "v": 79
    },
    {
      "midi": 66,
      "hit": false,
      "t": 105865.37049999977,
      "d": 1151.442154166667,
      "v": 75
    },
    {
      "midi": 47,
      "hit": false,
      "t": 105865.37049999977,
      "d": 2060.0958791666926,
      "v": 76
    },
    {
      "midi": 59,
      "hit": false,
      "t": 106730.75499999977,
      "d": 1112.9806208333466,
      "v": 97
    },
    {
      "midi": 63,
      "hit": false,
      "t": 107019.21649999978,
      "d": 800.4806625000056,
      "v": 66
    },
    {
      "midi": 63,
      "hit": false,
      "t": 107884.60099999979,
      "d": 60.09614583333314,
      "v": 84
    },
    {
      "midi": 59,
      "hit": false,
      "t": 107884.60099999979,
      "d": 76.92306666666991,
      "v": 66
    },
    {
      "midi": 66,
      "hit": false,
      "t": 107884.60099999979,
      "d": 81.73075833333132,
      "v": 96
    },
    {
      "midi": 55,
      "hit": false,
      "t": 108461.52399999979,
      "d": 899.0383416666737,
      "v": 82
    },
    {
      "midi": 48,
      "hit": false,
      "t": 108461.52399999979,
      "d": 915.8652625000104,
      "v": 85
    },
    {
      "midi": 60,
      "hit": false,
      "t": 108461.52399999979,
      "d": 927.8844916666712,
      "v": 75
    },
    {
      "midi": 64,
      "hit": false,
      "t": 108461.52399999979,
      "d": 927.8844916666712,
      "v": 80
    },
    {
      "midi": 48,
      "hit": false,
      "t": 109615.36999999979,
      "d": 108.17306250000547,
      "v": 117
    },
    {
      "midi": 47,
      "hit": false,
      "t": 109903.8314999998,
      "d": 124.99998333332769,
      "v": 99
    },
    {
      "midi": 46,
      "hit": false,
      "t": 110192.29299999979,
      "d": 100.96152500000608,
      "v": 96
    },
    {
      "midi": 45,
      "hit": false,
      "t": 110480.75449999979,
      "d": 1045.6729374999995,
      "v": 86
    },
    {
      "midi": 57,
      "hit": false,
      "t": 110480.75449999979,
      "d": 1225.961374999999,
      "v": 78
    },
    {
      "midi": 61,
      "hit": false,
      "t": 110480.75449999979,
      "d": 1461.5382666666555,
      "v": 68
    },
    {
      "midi": 64,
      "hit": false,
      "t": 110480.75449999979,
      "d": 2346.153533333316,
      "v": 73
    },
    {
      "midi": 45,
      "hit": false,
      "t": 111634.6004999998,
      "d": 1192.3075333333109,
      "v": 92
    },
    {
      "midi": 57,
      "hit": false,
      "t": 111923.06199999979,
      "d": 903.8460333333205,
      "v": 94
    },
    {
      "midi": 61,
      "hit": false,
      "t": 112211.52349999978,
      "d": 591.346074999994,
      "v": 92
    },
    {
      "midi": 55,
      "hit": false,
      "t": 113076.90799999978,
      "d": 1225.9613750000135,
      "v": 83
    },
    {
      "midi": 59,
      "hit": false,
      "t": 113076.90799999978,
      "d": 1237.9806041666743,
      "v": 92
    },
    {
      "midi": 62,
      "hit": false,
      "t": 113076.90799999978,
      "d": 1237.9806041666743,
      "v": 86
    },
    {
      "midi": 43,
      "hit": false,
      "t": 113076.90799999978,
      "d": 1247.5959875000117,
      "v": 92
    },
    {
      "midi": 50,
      "hit": false,
      "t": 114230.75399999978,
      "d": 55.28845416667173,
      "v": 75
    },
    {
      "midi": 59,
      "hit": false,
      "t": 114519.21549999979,
      "d": 74.51922083333193,
      "v": 101
    },
    {
      "midi": 55,
      "hit": false,
      "t": 114519.21549999979,
      "d": 86.53844999999274,
      "v": 88
    },
    {
      "midi": 62,
      "hit": false,
      "t": 114519.21549999979,
      "d": 93.74998749999213,
      "v": 86
    },
    {
      "midi": 59,
      "hit": false,
      "t": 115096.13849999978,
      "d": 694.7114458333381,
      "v": 67
    },
    {
      "midi": 63,
      "hit": false,
      "t": 115096.13849999978,
      "d": 843.7498875000019,
      "v": 79
    },
    {
      "midi": 66,
      "hit": false,
      "t": 115096.13849999978,
      "d": 1151.442154166667,
      "v": 75
    },
    {
      "midi": 47,
      "hit": false,
      "t": 115096.13849999978,
      "d": 2060.0958791666926,
      "v": 76
    },
    {
      "midi": 59,
      "hit": false,
      "t": 115961.52299999978,
      "d": 1112.9806208333466,
      "v": 97
    },
    {
      "midi": 63,
      "hit": false,
      "t": 116249.98449999979,
      "d": 800.4806625000056,
      "v": 66
    },
    {
      "midi": 63,
      "hit": false,
      "t": 117115.3689999998,
      "d": 60.09614583333314,
      "v": 84
    },
    {
      "midi": 59,
      "hit": false,
      "t": 117115.3689999998,
      "d": 76.92306666666991,
      "v": 66
    },
    {
      "midi": 66,
      "hit": false,
      "t": 117115.3689999998,
      "d": 81.73075833333132,
      "v": 96
    },
    {
      "midi": 55,
      "hit": false,
      "t": 117692.2919999998,
      "d": 899.0383416666737,
      "v": 82
    },
    {
      "midi": 48,
      "hit": false,
      "t": 117692.2919999998,
      "d": 915.8652625000104,
      "v": 85
    },
    {
      "midi": 60,
      "hit": false,
      "t": 117692.2919999998,
      "d": 927.8844916666712,
      "v": 75
    },
    {
      "midi": 64,
      "hit": false,
      "t": 117692.2919999998,
      "d": 927.8844916666712,
      "v": 80
    },
    {
      "midi": 48,
      "hit": false,
      "t": 118846.1379999998,
      "d": 108.17306250000547,
      "v": 117
    },
    {
      "midi": 47,
      "hit": false,
      "t": 119134.59949999981,
      "d": 124.99998333332769,
      "v": 99
    },
    {
      "midi": 46,
      "hit": false,
      "t": 119423.0609999998,
      "d": 100.96152500000608,
      "v": 96
    },
    {
      "midi": 45,
      "hit": false,
      "t": 119711.5224999998,
      "d": 1045.6729374999995,
      "v": 86
    },
    {
      "midi": 57,
      "hit": false,
      "t": 119711.5224999998,
      "d": 1225.961374999999,
      "v": 78
    },
    {
      "midi": 61,
      "hit": false,
      "t": 119711.5224999998,
      "d": 1461.5382666666555,
      "v": 68
    },
    {
      "midi": 64,
      "hit": false,
      "t": 119711.5224999998,
      "d": 2346.153533333316,
      "v": 73
    },
    {
      "midi": 45,
      "hit": false,
      "t": 120865.36849999981,
      "d": 1192.3075333333109,
      "v": 92
    },
    {
      "midi": 57,
      "hit": false,
      "t": 121153.8299999998,
      "d": 903.8460333333205,
      "v": 94
    },
    {
      "midi": 61,
      "hit": false,
      "t": 121442.29149999979,
      "d": 591.346074999994,
      "v": 92
    },
    {
      "midi": 55,
      "hit": false,
      "t": 122307.67599999979,
      "d": 826.9229666666652,
      "v": 90
    },
    {
      "midi": 59,
      "hit": false,
      "t": 122307.67599999979,
      "d": 1057.6921666666603,
      "v": 104
    },
    {
      "midi": 62,
      "hit": false,
      "t": 122307.67599999979,
      "d": 1146.634462499991,
      "v": 88
    },
    {
      "midi": 43,
      "hit": false,
      "t": 122307.67599999979,
      "d": 1399.0382749999844,
      "v": 99
    },
    {
      "midi": 50,
      "hit": false,
      "t": 122884.59899999978,
      "d": 389.4230249999964,
      "v": 92
    },
    {
      "midi": 50,
      "hit": false,
      "t": 123317.29124999978,
      "d": 93.74998750000668,
      "v": 101
    },
    {
      "midi": 55,
      "hit": false,
      "t": 123317.29124999978,
      "d": 132.21152083334164,
      "v": 83
    },
    {
      "midi": 59,
      "hit": false,
      "t": 123749.98349999977,
      "d": 60.09614583333314,
      "v": 107
    },
    {
      "midi": 55,
      "hit": false,
      "t": 123749.98349999977,
      "d": 64.90383749999455,
      "v": 92
    },
    {
      "midi": 62,
      "hit": false,
      "t": 123749.98349999977,
      "d": 100.96152499999152,
      "v": 92
    },
    {
      "midi": 56,
      "hit": false,
      "t": 124326.90649999976,
      "d": 389.4230249999964,
      "v": 84
    },
    {
      "midi": 59,
      "hit": false,
      "t": 124326.90649999976,
      "d": 411.0576374999946,
      "v": 94
    },
    {
      "midi": 64,
      "hit": false,
      "t": 124326.90649999976,
      "d": 442.30763333333016,
      "v": 85
    },
    {
      "midi": 40,
      "hit": false,
      "t": 124326.90649999976,
      "d": 1689.9036208333127,
      "v": 75
    },
    {
      "midi": 66,
      "hit": false,
      "t": 125192.29099999976,
      "d": 168.26920833332406,
      "v": 77
    },
    {
      "midi": 64,
      "hit": false,
      "t": 125192.29099999976,
      "d": 213.9422791666584,
      "v": 79
    },
    {
      "midi": 71,
      "hit": false,
      "t": 125192.29099999976,
      "d": 627.4037624999764,
      "v": 82
    },
    {
      "midi": 68,
      "hit": false,
      "t": 125336.52174999975,
      "d": 170.67305416666204,
      "v": 89
    },
    {
      "midi": 66,
      "hit": false,
      "t": 125480.75249999975,
      "d": 259.61534999999276,
      "v": 104
    },
    {
      "midi": 64,
      "hit": false,
      "t": 125769.21399999975,
      "d": 117.7884458333283,
      "v": 86
    },
    {
      "midi": 56,
      "hit": false,
      "t": 126346.13699999974,
      "d": 221.15381666667236,
      "v": 77
    },
    {
      "midi": 59,
      "hit": false,
      "t": 126346.13699999974,
      "d": 242.78842916667054,
      "v": 80
    },
    {
      "midi": 64,
      "hit": false,
      "t": 126346.13699999974,
      "d": 305.2884208333271,
      "v": 62
    },
    {
      "midi": 55,
      "hit": false,
      "t": 126923.05999999972,
      "d": 675.4806791666633,
      "v": 80
    },
    {
      "midi": 59,
      "hit": false,
      "t": 126923.05999999972,
      "d": 937.4998749999941,
      "v": 86
    },
    {
      "midi": 62,
      "hit": false,
      "t": 126923.05999999972,
      "d": 1016.8267874999874,
      "v": 79
    },
    {
      "midi": 43,
      "hit": false,
      "t": 126923.05999999972,
      "d": 1485.5767249999772,
      "v": 85
    },
    {
      "midi": 50,
      "hit": false,
      "t": 127499.98299999972,
      "d": 144.23075000000244,
      "v": 76
    },
    {
      "midi": 55,
      "hit": false,
      "t": 127788.44449999972,
      "d": 187.49997499998426,
      "v": 73
    },
    {
      "midi": 57,
      "hit": false,
      "t": 128076.9059999997,
      "d": 346.15380000000005,
      "v": 104
    },
    {
      "midi": 62,
      "hit": false,
      "t": 128076.9059999997,
      "d": 399.0384083333338,
      "v": 90
    },
    {
      "midi": 59,
      "hit": false,
      "t": 128365.3674999997,
      "d": 225.96150833333377,
      "v": 59
    },
    {
      "midi": 55,
      "hit": false,
      "t": 128653.8289999997,
      "d": 91.3461416666687,
      "v": 72
    },
    {
      "midi": 56,
      "hit": false,
      "t": 128942.2904999997,
      "d": 649.0383749999892,
      "v": 52
    },
    {
      "midi": 64,
      "hit": false,
      "t": 128942.2904999997,
      "d": 658.6537583333266,
      "v": 67
    },
    {
      "midi": 59,
      "hit": false,
      "t": 128942.2904999997,
      "d": 689.9037541666621,
      "v": 71
    },
    {
      "midi": 40,
      "hit": false,
      "t": 128942.2904999997,
      "d": 2206.730475000004,
      "v": 92
    },
    {
      "midi": 56,
      "hit": false,
      "t": 129807.6749999997,
      "d": 324.51918750000186,
      "v": 84
    },
    {
      "midi": 59,
      "hit": false,
      "t": 129807.6749999997,
      "d": 353.36533749999944,
      "v": 99
    },
    {
      "midi": 64,
      "hit": false,
      "t": 129807.6749999997,
      "d": 389.4230249999964,
      "v": 86
    },
    {
      "midi": 76,
      "hit": false,
      "t": 130961.5209999997,
      "d": 137.01921250000305,
      "v": 88
    },
    {
      "midi": 64,
      "hit": false,
      "t": 130961.5209999997,
      "d": 161.05767083332466,
      "v": 68
    },
    {
      "midi": 55,
      "hit": false,
      "t": 131538.4439999997,
      "d": 634.6153000000049,
      "v": 86
    },
    {
      "midi": 59,
      "hit": false,
      "t": 131538.4439999997,
      "d": 853.3652708333393,
      "v": 94
    },
    {
      "midi": 62,
      "hit": false,
      "t": 131538.4439999997,
      "d": 1177.8844583333412,
      "v": 82
    },
    {
      "midi": 43,
      "hit": false,
      "t": 131826.9054999997,
      "d": 1151.442154166667,
      "v": 78
    },
    {
      "midi": 50,
      "hit": false,
      "t": 132115.3669999997,
      "d": 322.11534166667843,
      "v": 101
    },
    {
      "midi": 55,
      "hit": false,
      "t": 132403.8284999997,
      "d": 326.9230333333253,
      "v": 92
    },
    {
      "midi": 50,
      "hit": false,
      "t": 132692.28999999972,
      "d": 122.59613749998971,
      "v": 80
    },
    {
      "midi": 57,
      "hit": false,
      "t": 132980.7514999997,
      "d": 161.05767083333922,
      "v": 117
    },
    {
      "midi": 62,
      "hit": false,
      "t": 132980.7514999997,
      "d": 225.96150833333377,
      "v": 97
    },
    {
      "midi": 59,
      "hit": false,
      "t": 133269.2129999997,
      "d": 88.94229583334527,
      "v": 97
    },
    {
      "midi": 62,
      "hit": false,
      "t": 133269.2129999997,
      "d": 120.19229166666628,
      "v": 68
    },
    {
      "midi": 64,
      "hit": false,
      "t": 133557.67449999967,
      "d": 699.5191374999995,
      "v": 88
    },
    {
      "midi": 57,
      "hit": false,
      "t": 133557.67449999967,
      "d": 723.5575958333211,
      "v": 92
    },
    {
      "midi": 61,
      "hit": false,
      "t": 133557.67449999967,
      "d": 735.5768249999965,
      "v": 96
    },
    {
      "midi": 52,
      "hit": false,
      "t": 133557.67449999967,
      "d": 944.7114124999789,
      "v": 74
    },
    {
      "midi": 45,
      "hit": false,
      "t": 133557.67449999967,
      "d": 1478.3651874999632,
      "v": 90
    },
    {
      "midi": 57,
      "hit": false,
      "t": 134423.05899999966,
      "d": 471.1537833333132,
      "v": 74
    },
    {
      "midi": 64,
      "hit": false,
      "t": 134423.05899999966,
      "d": 483.17301249998854,
      "v": 79
    },
    {
      "midi": 61,
      "hit": false,
      "t": 134423.05899999966,
      "d": 487.9807041666645,
      "v": 79
    },
    {
      "midi": 52,
      "hit": false,
      "t": 134855.75124999965,
      "d": 93.74998749999213,
      "v": 70
    },
    {
      "midi": 61,
      "hit": false,
      "t": 134999.98199999964,
      "d": 52.88460833331919,
      "v": 92
    },
    {
      "midi": 57,
      "hit": false,
      "t": 134999.98199999964,
      "d": 57.69229999999516,
      "v": 82
    },
    {
      "midi": 64,
      "hit": false,
      "t": 134999.98199999964,
      "d": 57.69229999999516,
      "v": 85
    },
    {
      "midi": 57,
      "hit": false,
      "t": 135288.44349999964,
      "d": 382.211487499997,
      "v": 90
    },
    {
      "midi": 61,
      "hit": false,
      "t": 135288.44349999964,
      "d": 461.53839999999036,
      "v": 96
    },
    {
      "midi": 64,
      "hit": false,
      "t": 135288.44349999964,
      "d": 466.3460916666663,
      "v": 88
    },
    {
      "midi": 52,
      "hit": false,
      "t": 135576.90499999965,
      "d": 151.4422874999873,
      "v": 62
    },
    {
      "midi": 45,
      "hit": false,
      "t": 135576.90499999965,
      "d": 182.6922833333374,
      "v": 79
    },
    {
      "midi": 64,
      "hit": false,
      "t": 135865.36649999965,
      "d": 74.51922083334648,
      "v": 60
    },
    {
      "midi": 61,
      "hit": false,
      "t": 135865.36649999965,
      "d": 84.1346041666693,
      "v": 56
    },
    {
      "midi": 57,
      "hit": false,
      "t": 135865.36649999965,
      "d": 105.76921666666749,
      "v": 80
    },
    {
      "midi": 55,
      "hit": false,
      "t": 136153.82799999966,
      "d": 670.6729874999728,
      "v": 79
    },
    {
      "midi": 59,
      "hit": false,
      "t": 136153.82799999966,
      "d": 908.6537249999819,
      "v": 88
    },
    {
      "midi": 62,
      "hit": false,
      "t": 136153.82799999966,
      "d": 1002.4037124999741,
      "v": 78
    },
    {
      "midi": 43,
      "hit": false,
      "t": 136153.82799999966,
      "d": 1598.5574791666586,
      "v": 86
    },
    {
      "midi": 50,
      "hit": false,
      "t": 136730.75099999964,
      "d": 192.30766666666023,
      "v": 86
    },
    {
      "midi": 55,
      "hit": false,
      "t": 137019.21249999964,
      "d": 149.03844166666386,
      "v": 78
    },
    {
      "midi": 57,
      "hit": false,
      "t": 137307.67399999965,
      "d": 334.1345708333247,
      "v": 101
    },
    {
      "midi": 62,
      "hit": false,
      "t": 137307.67399999965,
      "d": 543.2691583333362,
      "v": 92
    },
    {
      "midi": 59,
      "hit": false,
      "t": 137596.13549999965,
      "d": 319.7114958333259,
      "v": 75
    },
    {
      "midi": 55,
      "hit": false,
      "t": 137884.59699999966,
      "d": 103.36537083331496,
      "v": 74
    },
    {
      "midi": 56,
      "hit": false,
      "t": 138461.51999999964,
      "d": 721.1537499999977,
      "v": 79
    },
    {
      "midi": 64,
      "hit": false,
      "t": 138461.51999999964,
      "d": 742.7883624999959,
      "v": 79
    },
    {
      "midi": 40,
      "hit": false,
      "t": 138461.51999999964,
      "d": 766.8268208333175,
      "v": 75
    },
    {
      "midi": 59,
      "hit": false,
      "t": 138461.51999999964,
      "d": 766.8268208333175,
      "v": 85
    },
    {
      "midi": 56,
      "hit": false,
      "t": 139326.90449999963,
      "d": 343.7499541666766,
      "v": 71
    },
    {
      "midi": 59,
      "hit": false,
      "t": 139326.90449999963,
      "d": 439.9037875000213,
      "v": 85
    },
    {
      "midi": 64,
      "hit": false,
      "t": 139326.90449999963,
      "d": 512.0191625000152,
      "v": 79
    },
    {
      "midi": 40,
      "hit": false,
      "t": 139615.36599999963,
      "d": 415.86532916667056,
      "v": 82
    },
    {
      "midi": 43,
      "hit": false,
      "t": 140769.21199999965,
      "d": 1834.1343708333443,
      "v": 71
    },
    {
      "midi": 62,
      "hit": false,
      "t": 140769.21199999965,
      "d": 2002.403579166683,
      "v": 69
    },
    {
      "midi": 59,
      "hit": false,
      "t": 140769.21199999965,
      "d": 2057.6920333333255,
      "v": 71
    },
    {
      "midi": 55,
      "hit": false,
      "t": 140769.21199999965,
      "d": 2084.1343374999997,
      "v": 69
    },
    {
      "midi": 50,
      "hit": false,
      "t": 142788.44249999966,
      "d": 302.8845750000037,
      "v": 83
    },
    {
      "midi": 43,
      "hit": false,
      "t": 143076.90399999966,
      "d": 2086.538183333323,
      "v": 99
    },
    {
      "midi": 43,
      "hit": false,
      "t": 145384.59599999964,
      "d": 1661.0574708333297,
      "v": 72
    },
    {
      "midi": 62,
      "hit": false,
      "t": 145384.59599999964,
      "d": 1762.0189958333212,
      "v": 72
    },
    {
      "midi": 59,
      "hit": false,
      "t": 145384.59599999964,
      "d": 1771.634379166644,
      "v": 76
    },
    {
      "midi": 55,
      "hit": false,
      "t": 145384.59599999964,
      "d": 1790.8651458333188,
      "v": 73
    },
    {
      "midi": 52,
      "hit": false,
      "t": 147692.28799999962,
      "d": 1675.4805458333285,
      "v": 80
    },
    {
      "midi": 64,
      "hit": false,
      "t": 147692.28799999962,
      "d": 1728.3651541666477,
      "v": 79
    },
    {
      "midi": 55,
      "hit": false,
      "t": 147692.28799999962,
      "d": 1783.6536083333194,
      "v": 79
    },
    {
      "midi": 59,
      "hit": false,
      "t": 147692.28799999962,
      "d": 1798.0766833333182,
      "v": 79
    },
    {
      "midi": 43,
      "hit": false,
      "t": 149999.9799999996,
      "d": 1735.5766916666762,
      "v": 71
    },
    {
      "midi": 55,
      "hit": false,
      "t": 149999.9799999996,
      "d": 4442.307100000005,
      "v": 73
    },
    {
      "midi": 62,
      "hit": false,
      "t": 149999.9799999996,
      "d": 4449.518637500005,
      "v": 73
    },
    {
      "midi": 59,
      "hit": false,
      "t": 149999.9799999996,
      "d": 4454.326329166681,
      "v": 79
    },
    {
      "midi": 50,
      "hit": false,
      "t": 152019.2104999996,
      "d": 262.01919583333074,
      "v": 110
    },
    {
      "midi": 43,
      "hit": false,
      "t": 152307.6719999996,
      "d": 1877.4035958333407,
      "v": 92
    },
    {
      "midi": 43,
      "hit": false,
      "t": 154615.36399999962,
      "d": 1819.7112958333455,
      "v": 71
    },
    {
      "midi": 62,
      "hit": false,
      "t": 154615.36399999962,
      "d": 1850.9612916666665,
      "v": 67
    },
    {
      "midi": 55,
      "hit": false,
      "t": 154615.36399999962,
      "d": 1858.172829166666,
      "v": 67
    },
    {
      "midi": 59,
      "hit": false,
      "t": 154615.36399999962,
      "d": 1872.5959041666647,
      "v": 71
    },
    {
      "midi": 64,
      "hit": false,
      "t": 156923.05599999963,
      "d": 1949.5189708333346,
      "v": 71
    },
    {
      "midi": 40,
      "hit": false,
      "t": 156923.05599999963,
      "d": 1975.9612750000088,
      "v": 72
    },
    {
      "midi": 55,
      "hit": false,
      "t": 156923.05599999963,
      "d": 2086.538183333352,
      "v": 70
    },
    {
      "midi": 59,
      "hit": false,
      "t": 156923.05599999963,
      "d": 2132.211254166672,
      "v": 71
    },
    {
      "midi": 43,
      "hit": false,
      "t": 159230.74799999964,
      "d": 4709.133987500012,
      "v": 82
    },
    {
      "midi": 59,
      "hit": false,
      "t": 159230.74799999964,
      "d": 4713.941679166688,
      "v": 79
    },
    {
      "midi": 55,
      "hit": false,
      "t": 159230.74799999964,
      "d": 4723.557062500011,
      "v": 74
    },
    {
      "midi": 62,
      "hit": false,
      "t": 159230.74799999964,
      "d": 4728.364754166687,
      "v": 74
    }
  ]
}