{
  "jsonPath": "Ambient/Focus/Gordon/de-ware-liefde.json",
  "path": "Ambient\\Focus\\Gordon\\De Ware Liefde.mid",
  "name": "De Ware Liefde",
  "difficulty": "Advanced",
  "bpm": 71.00003550001774,
  "notes": [
    {
      "midi": 45,
      "hit": false,
      "t": 60853.84281250001,
      "d": 1676.935781250002,
      "v": 68
    },
    {
      "midi": 40,
      "hit": false,
      "t": 62530.77859375001,
      "d": 1672.534375000003,
      "v": 85
    },
    {
      "midi": 45,
      "hit": false,
      "t": 64225.320000000014,
      "d": 1676.935781250002,
      "v": 68
    },
    {
      "midi": 73,
      "hit": false,
      "t": 64634.65078125001,
      "d": 435.7392187500009,
      "v": 108
    },
    {
      "midi": 76,
      "hit": false,
      "t": 65083.59421875001,
      "d": 660.2109375000073,
      "v": 104
    },
    {
      "midi": 69,
      "hit": false,
      "t": 65484.12218750001,
      "d": 501.7603125000096,
      "v": 96
    },
    {
      "midi": 40,
      "hit": false,
      "t": 65906.65718750002,
      "d": 1703.344218750004,
      "v": 96
    },
    {
      "midi": 71,
      "hit": false,
      "t": 65924.26281250002,
      "d": 1249.9993749999994,
      "v": 80
    },
    {
      "midi": 45,
      "hit": false,
      "t": 67605.60000000002,
      "d": 1676.9357812500093,
      "v": 68
    },
    {
      "midi": 73,
      "hit": false,
      "t": 67618.80421875003,
      "d": 1249.9993749999994,
      "v": 91
    },
    {
      "midi": 71,
      "hit": false,
      "t": 68877.60640625002,
      "d": 224.4717187500064,
      "v": 94
    },
    {
      "midi": 69,
      "hit": false,
      "t": 69080.07109375003,
      "d": 224.4717187500064,
      "v": 99
    },
    {
      "midi": 71,
      "hit": false,
      "t": 69291.33859375003,
      "d": 1249.9993749999994,
      "v": 99
    },
    {
      "midi": 40,
      "hit": false,
      "t": 69295.74000000003,
      "d": 1703.344218750004,
      "v": 96
    },
    {
      "midi": 45,
      "hit": false,
      "t": 70985.88000000003,
      "d": 1703.3442187500186,
      "v": 96
    },
    {
      "midi": 64,
      "hit": false,
      "t": 71408.41500000004,
      "d": 404.929375000007,
      "v": 77
    },
    {
      "midi": 73,
      "hit": false,
      "t": 71826.54859375005,
      "d": 404.929375000007,
      "v": 95
    },
    {
      "midi": 76,
      "hit": false,
      "t": 72249.08359375005,
      "d": 1249.9993749999849,
      "v": 107
    },
    {
      "midi": 71,
      "hit": false,
      "t": 72680.42140625005,
      "d": 404.92937499999243,
      "v": 107
    },
    {
      "midi": 73,
      "hit": false,
      "t": 73102.95640625004,
      "d": 1249.9993749999994,
      "v": 78
    },
    {
      "midi": 64,
      "hit": false,
      "t": 74370.56140625004,
      "d": 1249.9993749999994,
      "v": 107
    },
    {
      "midi": 73,
      "hit": false,
      "t": 75202.42718750004,
      "d": 624.9996874999924,
      "v": 85
    },
    {
      "midi": 61,
      "hit": false,
      "t": 76060.70140625004,
      "d": 1404.0485937500052,
      "v": 87
    },
    {
      "midi": 64,
      "hit": false,
      "t": 76065.10281250004,
      "d": 1439.2598437499983,
      "v": 91
    },
    {
      "midi": 61,
      "hit": false,
      "t": 77733.23578125004,
      "d": 1390.8443750000006,
      "v": 83
    },
    {
      "midi": 64,
      "hit": false,
      "t": 77737.63718750005,
      "d": 1452.4640624999884,
      "v": 87
    },
    {
      "midi": 61,
      "hit": false,
      "t": 79432.17859375004,
      "d": 1553.6964062500047,
      "v": 103
    },
    {
      "midi": 64,
      "hit": false,
      "t": 79449.78421875004,
      "d": 941.9009375000023,
      "v": 107
    },
    {
      "midi": 69,
      "hit": false,
      "t": 80272.84718750004,
      "d": 611.7954687500023,
      "v": 103
    },
    {
      "midi": 64,
      "hit": false,
      "t": 80695.38218750004,
      "d": 404.929375000007,
      "v": 89
    },
    {
      "midi": 66,
      "hit": false,
      "t": 81122.31859375005,
      "d": 809.8587499999994,
      "v": 111
    },
    {
      "midi": 62,
      "hit": false,
      "t": 81131.12140625005,
      "d": 1694.5414062499913,
      "v": 103
    },
    {
      "midi": 69,
      "hit": false,
      "t": 81976.19140625006,
      "d": 823.0629687499895,
      "v": 99
    },
    {
      "midi": 66,
      "hit": false,
      "t": 82403.12781250005,
      "d": 413.7321874999907,
      "v": 91
    },
    {
      "midi": 78,
      "hit": false,
      "t": 82816.86000000004,
      "d": 919.8939062499994,
      "v": 109
    },
    {
      "midi": 69,
      "hit": false,
      "t": 83670.73281250005,
      "d": 1544.8935937499919,
      "v": 87
    },
    {
      "midi": 66,
      "hit": false,
      "t": 84080.06359375005,
      "d": 805.457343749993,
      "v": 83
    },
    {
      "midi": 62,
      "hit": false,
      "t": 84942.73921875004,
      "d": 941.9009375000023,
      "v": 73
    },
    {
      "midi": 69,
      "hit": false,
      "t": 85347.66859375004,
      "d": 906.6896874999948,
      "v": 91
    },
    {
      "midi": 66,
      "hit": false,
      "t": 85779.00640625005,
      "d": 400.5279687500006,
      "v": 87
    },
    {
      "midi": 71,
      "hit": false,
      "t": 86197.14000000004,
      "d": 862.6756249999889,
      "v": 109
    },
    {
      "midi": 76,
      "hit": false,
      "t": 87033.40718750004,
      "d": 796.6545312499948,
      "v": 89
    },
    {
      "midi": 57,
      "hit": false,
      "t": 87874.07578125004,
      "d": 334.50687499999185,
      "v": 87
    },
    {
      "midi": 62,
      "hit": false,
      "t": 87882.87859375004,
      "d": 748.2390624999825,
      "v": 83
    },
    {
      "midi": 57,
      "hit": false,
      "t": 88305.41359375003,
      "d": 334.50687499999185,
      "v": 95
    },
    {
      "midi": 66,
      "hit": false,
      "t": 88719.14578125002,
      "d": 743.8376562500052,
      "v": 99
    },
    {
      "midi": 62,
      "hit": false,
      "t": 88723.54718750002,
      "d": 774.6474999999919,
      "v": 93
    },
    {
      "midi": 57,
      "hit": false,
      "t": 89154.88500000002,
      "d": 343.3096874999901,
      "v": 93
    },
    {
      "midi": 64,
      "hit": false,
      "t": 89573.01859375002,
      "d": 809.858750000014,
      "v": 95
    },
    {
      "midi": 62,
      "hit": false,
      "t": 89577.42000000003,
      "d": 805.4573437500076,
      "v": 85
    },
    {
      "midi": 59,
      "hit": false,
      "t": 89999.95500000003,
      "d": 360.91531250000116,
      "v": 87
    },
    {
      "midi": 64,
      "hit": false,
      "t": 90426.89140625004,
      "d": 809.858750000014,
      "v": 95
    },
    {
      "midi": 59,
      "hit": false,
      "t": 90431.29281250005,
      "d": 761.4432812500017,
      "v": 101
    },
    {
      "midi": 62,
      "hit": false,
      "t": 91276.36281250005,
      "d": 699.8235937499994,
      "v": 87
    },
    {
      "midi": 66,
      "hit": false,
      "t": 91280.76421875006,
      "d": 730.633437499986,
      "v": 91
    },
    {
      "midi": 62,
      "hit": false,
      "t": 92099.42578125004,
      "d": 770.24609375,
      "v": 99
    },
    {
      "midi": 66,
      "hit": false,
      "t": 92108.22859375004,
      "d": 779.0489062499983,
      "v": 107
    },
    {
      "midi": 57,
      "hit": false,
      "t": 92521.96078125005,
      "d": 356.51390624999476,
      "v": 89
    },
    {
      "midi": 62,
      "hit": false,
      "t": 92948.89718750004,
      "d": 787.8517187500111,
      "v": 91
    },
    {
      "midi": 66,
      "hit": false,
      "t": 92962.10140625005,
      "d": 792.2531250000029,
      "v": 101
    },
    {
      "midi": 59,
      "hit": false,
      "t": 92966.50281250005,
      "d": 787.8517187499965,
      "v": 101
    },
    {
      "midi": 62,
      "hit": false,
      "t": 93798.36859375006,
      "d": 752.6404687500035,
      "v": 109
    },
    {
      "midi": 66,
      "hit": false,
      "t": 93802.77000000006,
      "d": 757.0418749999953,
      "v": 115
    },
    {
      "midi": 59,
      "hit": false,
      "t": 93811.57281250006,
      "d": 761.4432812500017,
      "v": 109
    },
    {
      "midi": 64,
      "hit": false,
      "t": 94639.03718750006,
      "d": 831.8657812500023,
      "v": 113
    },
    {
      "midi": 57,
      "hit": false,
      "t": 94643.43859375006,
      "d": 831.8657812500023,
      "v": 113
    },
    {
      "midi": 61,
      "hit": false,
      "t": 94652.24140625006,
      "d": 827.4643750000105,
      "v": 112
    },
    {
      "midi": 64,
      "hit": false,
      "t": 95484.10718750008,
      "d": 831.8657812500023,
      "v": 113
    },
    {
      "midi": 57,
      "hit": false,
      "t": 95488.50859375008,
      "d": 827.4643749999959,
      "v": 112
    },
    {
      "midi": 61,
      "hit": false,
      "t": 95488.50859375008,
      "d": 831.8657812500023,
      "v": 113
    },
    {
      "midi": 57,
      "hit": false,
      "t": 96324.7757812501,
      "d": 831.8657812500169,
      "v": 112
    },
    {
      "midi": 54,
      "hit": false,
      "t": 96337.9800000001,
      "d": 831.8657812500169,
      "v": 112
    },
    {
      "midi": 62,
      "hit": false,
      "t": 96342.3814062501,
      "d": 827.4643750000105,
      "v": 110
    },
    {
      "midi": 62,
      "hit": false,
      "t": 97178.64859375011,
      "d": 831.8657812500169,
      "v": 109
    },
    {
      "midi": 57,
      "hit": false,
      "t": 97191.85281250012,
      "d": 831.8657812500169,
      "v": 112
    },
    {
      "midi": 54,
      "hit": false,
      "t": 97196.25421875012,
      "d": 831.8657812500169,
      "v": 111
    },
    {
      "midi": 59,
      "hit": false,
      "t": 98019.31718750013,
      "d": 831.8657812500169,
      "v": 112
    },
    {
      "midi": 64,
      "hit": false,
      "t": 98028.12000000014,
      "d": 831.8657812500023,
      "v": 113
    },
    {
      "midi": 56,
      "hit": false,
      "t": 98041.32421875015,
      "d": 818.6615624999977,
      "v": 112
    },
    {
      "midi": 56,
      "hit": false,
      "t": 98868.78859375014,
      "d": 831.8657812500169,
      "v": 112
    },
    {
      "midi": 64,
      "hit": false,
      "t": 98881.99281250015,
      "d": 827.464375000025,
      "v": 112
    },
    {
      "midi": 59,
      "hit": false,
      "t": 98886.39421875015,
      "d": 831.8657812500169,
      "v": 109
    },
    {
      "midi": 61,
      "hit": false,
      "t": 99705.05578125016,
      "d": 831.8657812500169,
      "v": 110
    },
    {
      "midi": 64,
      "hit": false,
      "t": 99718.26000000017,
      "d": 831.8657812500169,
      "v": 112
    },
    {
      "midi": 57,
      "hit": false,
      "t": 99722.66140625018,
      "d": 831.8657812500169,
      "v": 111
    },
    {
      "midi": 57,
      "hit": false,
      "t": 100563.33000000019,
      "d": 831.8657812500169,
      "v": 111
    },
    {
      "midi": 64,
      "hit": false,
      "t": 100567.7314062502,
      "d": 831.8657812500169,
      "v": 112
    },
    {
      "midi": 61,
      "hit": false,
      "t": 100572.1328125002,
      "d": 831.8657812500169,
      "v": 113
    },
    {
      "midi": 61,
      "hit": false,
      "t": 101417.20281250023,
      "d": 831.8657812500023,
      "v": 111
    },
    {
      "midi": 64,
      "hit": false,
      "t": 101417.20281250023,
      "d": 831.8657812500023,
      "v": 113
    },
    {
      "midi": 57,
      "hit": false,
      "t": 101421.60421875023,
      "d": 831.8657812500023,
      "v": 111
    },
    {
      "midi": 61,
      "hit": false,
      "t": 102262.27281250023,
      "d": 831.8657812500023,
      "v": 111
    },
    {
      "midi": 64,
      "hit": false,
      "t": 102262.27281250023,
      "d": 831.8657812500023,
      "v": 111
    },
    {
      "midi": 57,
      "hit": false,
      "t": 102266.67421875024,
      "d": 827.4643749999959,
      "v": 112
    },
    {
      "midi": 54,
      "hit": false,
      "t": 103098.54000000024,
      "d": 831.8657812500169,
      "v": 110
    },
    {
      "midi": 57,
      "hit": false,
      "t": 103102.94140625025,
      "d": 827.4643750000105,
      "v": 109
    },
    {
      "midi": 62,
      "hit": false,
      "t": 103107.34281250025,
      "d": 831.8657812500023,
      "v": 111
    },
    {
      "midi": 54,
      "hit": false,
      "t": 103939.20859375026,
      "d": 831.8657812500023,
      "v": 110
    },
    {
      "midi": 57,
      "hit": false,
      "t": 103939.20859375026,
      "d": 831.8657812500023,
      "v": 112
    },
    {
      "midi": 62,
      "hit": false,
      "t": 103956.81421875025,
      "d": 831.8657812500023,
      "v": 111
    },
    {
      "midi": 56,
      "hit": false,
      "t": 104779.87718750026,
      "d": 831.8657812500023,
      "v": 109
    },
    {
      "midi": 64,
      "hit": false,
      "t": 104788.68000000025,
      "d": 831.8657812500023,
      "v": 112
    },
    {
      "midi": 59,
      "hit": false,
      "t": 104793.08140625026,
      "d": 831.8657812500023,
      "v": 112
    },
    {
      "midi": 56,
      "hit": false,
      "t": 105620.54578125026,
      "d": 831.8657812500169,
      "v": 110
    },
    {
      "midi": 59,
      "hit": false,
      "t": 105633.75000000026,
      "d": 831.8657812500169,
      "v": 110
    },
    {
      "midi": 64,
      "hit": false,
      "t": 105638.15140625027,
      "d": 818.6615625000122,
      "v": 112
    },
    {
      "midi": 57,
      "hit": false,
      "t": 106465.61578125028,
      "d": 831.8657812500023,
      "v": 109
    },
    {
      "midi": 64,
      "hit": false,
      "t": 106465.61578125028,
      "d": 831.8657812500023,
      "v": 111
    },
    {
      "midi": 61,
      "hit": false,
      "t": 106483.22140625028,
      "d": 823.0629687500041,
      "v": 110
    },
    {
      "midi": 61,
      "hit": false,
      "t": 107315.08718750028,
      "d": 831.8657812500023,
      "v": 110
    },
    {
      "midi": 57,
      "hit": false,
      "t": 107319.48859375028,
      "d": 831.8657812500023,
      "v": 112
    },
    {
      "midi": 64,
      "hit": false,
      "t": 107328.29140625028,
      "d": 827.4643750000105,
      "v": 112
    },
    {
      "midi": 61,
      "hit": false,
      "t": 108155.7557812503,
      "d": 831.8657812500023,
      "v": 111
    },
    {
      "midi": 64,
      "hit": false,
      "t": 108164.55859375029,
      "d": 827.4643750000105,
      "v": 112
    },
    {
      "midi": 57,
      "hit": false,
      "t": 108177.7628125003,
      "d": 823.0629687500041,
      "v": 111
    },
    {
      "midi": 64,
      "hit": false,
      "t": 109000.8257812503,
      "d": 831.8657812500023,
      "v": 113
    },
    {
      "midi": 57,
      "hit": false,
      "t": 109009.6285937503,
      "d": 827.4643750000105,
      "v": 110
    },
    {
      "midi": 61,
      "hit": false,
      "t": 109009.6285937503,
      "d": 831.8657812500169,
      "v": 111
    },
    {
      "midi": 57,
      "hit": false,
      "t": 109845.89578125032,
      "d": 831.8657812500023,
      "v": 110
    },
    {
      "midi": 54,
      "hit": false,
      "t": 109859.10000000033,
      "d": 831.8657812500023,
      "v": 110
    },
    {
      "midi": 62,
      "hit": false,
      "t": 109872.30421875033,
      "d": 831.8657812500023,
      "v": 111
    },
    {
      "midi": 54,
      "hit": false,
      "t": 110704.17000000033,
      "d": 831.8657812500169,
      "v": 111
    },
    {
      "midi": 57,
      "hit": false,
      "t": 110708.57140625034,
      "d": 831.8657812500169,
      "v": 110
    },
    {
      "midi": 62,
      "hit": false,
      "t": 110712.97281250035,
      "d": 831.8657812500169,
      "v": 112
    },
    {
      "midi": 54,
      "hit": false,
      "t": 111549.24000000037,
      "d": 831.8657812500023,
      "v": 109
    },
    {
      "midi": 63,
      "hit": false,
      "t": 111549.24000000037,
      "d": 831.8657812500023,
      "v": 110
    },
    {
      "midi": 59,
      "hit": false,
      "t": 111558.04281250037,
      "d": 814.2601562500058,
      "v": 111
    },
    {
      "midi": 59,
      "hit": false,
      "t": 112381.10578125037,
      "d": 831.8657812500023,
      "v": 110
    },
    {
      "midi": 54,
      "hit": false,
      "t": 112398.71140625037,
      "d": 831.8657812500023,
      "v": 111
    },
    {
      "midi": 63,
      "hit": false,
      "t": 112403.11281250037,
      "d": 831.8657812500023,
      "v": 111
    },
    {
      "midi": 53,
      "hit": false,
      "t": 113230.57718750037,
      "d": 831.8657812500023,
      "v": 107
    },
    {
      "midi": 57,
      "hit": false,
      "t": 113230.57718750037,
      "d": 831.8657812500023,
      "v": 111
    },
    {
      "midi": 62,
      "hit": false,
      "t": 113252.58421875037,
      "d": 814.2601562500058,
      "v": 108
    },
    {
      "midi": 57,
      "hit": false,
      "t": 114075.64718750038,
      "d": 831.8657812500023,
      "v": 109
    },
    {
      "midi": 62,
      "hit": false,
      "t": 114075.64718750038,
      "d": 831.8657812500023,
      "v": 111
    },
    {
      "midi": 53,
      "hit": false,
      "t": 114084.45000000038,
      "d": 831.8657812500023,
      "v": 109
    },
    {
      "midi": 57,
      "hit": false,
      "t": 114920.71718750038,
      "d": 831.8657812500023,
      "v": 108
    },
    {
      "midi": 61,
      "hit": false,
      "t": 114929.52000000038,
      "d": 831.8657812500023,
      "v": 110
    },
    {
      "midi": 64,
      "hit": false,
      "t": 114933.92140625039,
      "d": 831.8657812500023,
      "v": 110
    },
    {
      "midi": 61,
      "hit": false,
      "t": 115783.39281250039,
      "d": 831.8657812500023,
      "v": 110
    },
    {
      "midi": 64,
      "hit": false,
      "t": 115783.39281250039,
      "d": 831.8657812500023,
      "v": 112
    },
    {
      "midi": 57,
      "hit": false,
      "t": 115787.7942187504,
      "d": 831.8657812500023,
      "v": 106
    },
    {
      "midi": 54,
      "hit": false,
      "t": 116624.0614062504,
      "d": 827.464375000025,
      "v": 107
    },
    {
      "midi": 62,
      "hit": false,
      "t": 116628.46281250041,
      "d": 818.6615625000122,
      "v": 107
    },
    {
      "midi": 57,
      "hit": false,
      "t": 116632.86421875042,
      "d": 809.8587499999994,
      "v": 106
    },
    {
      "midi": 57,
      "hit": false,
      "t": 117451.52578125043,
      "d": 831.8657812500169,
      "v": 107
    },
    {
      "midi": 62,
      "hit": false,
      "t": 117455.92718750043,
      "d": 831.8657812500169,
      "v": 111
    },
    {
      "midi": 54,
      "hit": false,
      "t": 117460.32859375044,
      "d": 831.8657812500169,
      "v": 109
    },
    {
      "midi": 59,
      "hit": false,
      "t": 118305.39859375046,
      "d": 827.4643749999959,
      "v": 107
    },
    {
      "midi": 64,
      "hit": false,
      "t": 118314.20140625046,
      "d": 831.8657812500023,
      "v": 106
    },
    {
      "midi": 57,
      "hit": false,
      "t": 118323.00421875046,
      "d": 809.8587499999994,
      "v": 105
    },
    {
      "midi": 57,
      "hit": false,
      "t": 119141.66578125046,
      "d": 831.8657812500023,
      "v": 109
    },
    {
      "midi": 59,
      "hit": false,
      "t": 119141.66578125046,
      "d": 831.8657812500023,
      "v": 107
    },
    {
      "midi": 64,
      "hit": false,
      "t": 119154.87000000046,
      "d": 831.8657812500023,
      "v": 111
    },
    {
      "midi": 59,
      "hit": false,
      "t": 119995.53859375046,
      "d": 827.4643749999959,
      "v": 112
    },
    {
      "midi": 64,
      "hit": false,
      "t": 120004.34140625046,
      "d": 818.6615624999977,
      "v": 111
    },
    {
      "midi": 56,
      "hit": false,
      "t": 120013.14421875046,
      "d": 831.8657812500023,
      "v": 110
    },
    {
      "midi": 59,
      "hit": false,
      "t": 120831.80578125046,
      "d": 831.8657812500169,
      "v": 110
    },
    {
      "midi": 64,
      "hit": false,
      "t": 120831.80578125046,
      "d": 831.8657812500169,
      "v": 111
    },
    {
      "midi": 57,
      "hit": false,
      "t": 120849.41140625047,
      "d": 818.6615625000122,
      "v": 109
    },
    {
      "midi": 57,
      "hit": false,
      "t": 121676.87578125048,
      "d": 831.8657812500023,
      "v": 113
    },
    {
      "midi": 61,
      "hit": false,
      "t": 121685.67859375048,
      "d": 831.8657812500023,
      "v": 112
    },
    {
      "midi": 64,
      "hit": false,
      "t": 121685.67859375048,
      "d": 831.8657812500023,
      "v": 113
    },
    {
      "midi": 57,
      "hit": false,
      "t": 122521.94578125048,
      "d": 831.8657812500023,
      "v": 112
    },
    {
      "midi": 61,
      "hit": false,
      "t": 122535.15000000049,
      "d": 831.8657812500023,
      "v": 113
    },
    {
      "midi": 64,
      "hit": false,
      "t": 122543.95281250049,
      "d": 831.8657812500169,
      "v": 113
    },
    {
      "midi": 57,
      "hit": false,
      "t": 123371.4171875005,
      "d": 831.8657812500023,
      "v": 112
    },
    {
      "midi": 62,
      "hit": false,
      "t": 123384.6214062505,
      "d": 831.8657812500023,
      "v": 110
    },
    {
      "midi": 54,
      "hit": false,
      "t": 123393.4242187505,
      "d": 827.4643750000105,
      "v": 112
    },
    {
      "midi": 54,
      "hit": false,
      "t": 124229.69140625051,
      "d": 831.8657812500169,
      "v": 111
    },
    {
      "midi": 57,
      "hit": false,
      "t": 124234.09281250052,
      "d": 831.8657812500169,
      "v": 112
    },
    {
      "midi": 62,
      "hit": false,
      "t": 124234.09281250052,
      "d": 831.8657812500169,
      "v": 109
    },
    {
      "midi": 64,
      "hit": false,
      "t": 125057.15578125052,
      "d": 831.8657812500169,
      "v": 113
    },
    {
      "midi": 59,
      "hit": false,
      "t": 125079.16281250054,
      "d": 831.8657812500023,
      "v": 112
    },
    {
      "midi": 56,
      "hit": false,
      "t": 125083.56421875054,
      "d": 809.8587499999994,
      "v": 112
    },
    {
      "midi": 56,
      "hit": false,
      "t": 125902.22578125054,
      "d": 831.8657812500023,
      "v": 112
    },
    {
      "midi": 64,
      "hit": false,
      "t": 125924.23281250054,
      "d": 818.6615624999977,
      "v": 112
    },
    {
      "midi": 59,
      "hit": false,
      "t": 125928.63421875055,
      "d": 831.8657812500023,
      "v": 109
    },
    {
      "midi": 57,
      "hit": false,
      "t": 126751.69718750054,
      "d": 831.8657812500169,
      "v": 111
    },
    {
      "midi": 64,
      "hit": false,
      "t": 126751.69718750054,
      "d": 831.8657812500169,
      "v": 112
    },
    {
      "midi": 61,
      "hit": false,
      "t": 126756.09859375055,
      "d": 831.8657812500169,
      "v": 110
    },
    {
      "midi": 64,
      "hit": false,
      "t": 127601.16859375057,
      "d": 827.4643749999959,
      "v": 112
    },
    {
      "midi": 61,
      "hit": false,
      "t": 127601.16859375057,
      "d": 831.8657812500023,
      "v": 113
    },
    {
      "midi": 57,
      "hit": false,
      "t": 127618.77421875056,
      "d": 818.6615625000122,
      "v": 111
    },
    {
      "midi": 64,
      "hit": false,
      "t": 128437.43578125058,
      "d": 831.8657812499878,
      "v": 113
    },
    {
      "midi": 57,
      "hit": false,
      "t": 128446.23859375058,
      "d": 831.8657812499878,
      "v": 111
    },
    {
      "midi": 61,
      "hit": false,
      "t": 128463.84421875057,
      "d": 818.6615624999977,
      "v": 111
    },
    {
      "midi": 61,
      "hit": false,
      "t": 129291.30859375057,
      "d": 831.8657812500169,
      "v": 111
    },
    {
      "midi": 57,
      "hit": false,
      "t": 129295.71000000057,
      "d": 831.8657812500169,
      "v": 112
    },
    {
      "midi": 64,
      "hit": false,
      "t": 129300.11140625058,
      "d": 831.8657812500169,
      "v": 111
    },
    {
      "midi": 54,
      "hit": false,
      "t": 130136.3785937506,
      "d": 827.4643750000105,
      "v": 110
    },
    {
      "midi": 57,
      "hit": false,
      "t": 130145.1814062506,
      "d": 823.0629687500186,
      "v": 109
    },
    {
      "midi": 62,
      "hit": false,
      "t": 130149.58281250061,
      "d": 814.2601562500058,
      "v": 111
    },
    {
      "midi": 54,
      "hit": false,
      "t": 130972.64578125063,
      "d": 831.8657812500169,
      "v": 110
    },
    {
      "midi": 62,
      "hit": false,
      "t": 130972.64578125063,
      "d": 831.8657812500169,
      "v": 111
    },
    {
      "midi": 57,
      "hit": false,
      "t": 130977.04718750063,
      "d": 831.8657812500023,
      "v": 112
    },
    {
      "midi": 64,
      "hit": false,
      "t": 131817.71578125065,
      "d": 831.8657812500023,
      "v": 112
    },
    {
      "midi": 56,
      "hit": false,
      "t": 131835.32140625064,
      "d": 831.8657812500023,
      "v": 109
    },
    {
      "midi": 59,
      "hit": false,
      "t": 131839.72281250064,
      "d": 831.8657812500023,
      "v": 112
    },
    {
      "midi": 64,
      "hit": false,
      "t": 132671.58859375064,
      "d": 831.8657812500023,
      "v": 112
    },
    {
      "midi": 59,
      "hit": false,
      "t": 132680.39140625065,
      "d": 831.8657812499732,
      "v": 110
    },
    {
      "midi": 56,
      "hit": false,
      "t": 132684.79281250064,
      "d": 831.8657812499732,
      "v": 110
    },
    {
      "midi": 57,
      "hit": false,
      "t": 133507.85578125063,
      "d": 831.8657812500023,
      "v": 109
    },
    {
      "midi": 61,
      "hit": false,
      "t": 133507.85578125063,
      "d": 831.8657812500023,
      "v": 110
    },
    {
      "midi": 64,
      "hit": false,
      "t": 133525.46140625063,
      "d": 831.8657812500023,
      "v": 111
    },
    {
      "midi": 61,
      "hit": false,
      "t": 134352.92578125064,
      "d": 831.8657812500023,
      "v": 110
    },
    {
      "midi": 57,
      "hit": false,
      "t": 134370.53140625064,
      "d": 823.0629687500186,
      "v": 112
    },
    {
      "midi": 64,
      "hit": false,
      "t": 134374.93281250063,
      "d": 823.0629687500186,
      "v": 112
    },
    {
      "midi": 57,
      "hit": false,
      "t": 135202.39718750064,
      "d": 831.8657812500023,
      "v": 111
    },
    {
      "midi": 61,
      "hit": false,
      "t": 135206.79859375063,
      "d": 831.8657812500023,
      "v": 111
    },
    {
      "midi": 64,
      "hit": false,
      "t": 135206.79859375063,
      "d": 831.8657812500023,
      "v": 112
    },
    {
      "midi": 61,
      "hit": false,
      "t": 136047.46718750065,
      "d": 831.8657812500023,
      "v": 111
    },
    {
      "midi": 57,
      "hit": false,
      "t": 136060.67140625065,
      "d": 827.4643750000105,
      "v": 110
    },
    {
      "midi": 64,
      "hit": false,
      "t": 136060.67140625065,
      "d": 831.8657812500023,
      "v": 113
    },
    {
      "midi": 54,
      "hit": false,
      "t": 136892.53718750065,
      "d": 831.8657812500023,
      "v": 110
    },
    {
      "midi": 57,
      "hit": false,
      "t": 136896.93859375064,
      "d": 831.8657812500023,
      "v": 110
    },
    {
      "midi": 62,
      "hit": false,
      "t": 136910.14281250065,
      "d": 831.8657812500023,
      "v": 111
    },
    {
      "midi": 57,
      "hit": false,
      "t": 137746.41000000064,
      "d": 831.8657812500023,
      "v": 110
    },
    {
      "midi": 62,
      "hit": false,
      "t": 137755.21281250066,
      "d": 831.8657812500023,
      "v": 112
    },
    {
      "midi": 54,
      "hit": false,
      "t": 137759.61421875065,
      "d": 818.6615624999977,
      "v": 111
    },
    {
      "midi": 54,
      "hit": false,
      "t": 138587.07859375066,
      "d": 827.4643750000105,
      "v": 109
    },
    {
      "midi": 63,
      "hit": false,
      "t": 138604.68421875066,
      "d": 814.2601562500058,
      "v": 110
    },
    {
      "midi": 59,
      "hit": false,
      "t": 138604.68421875066,
      "d": 831.8657812500023,
      "v": 111
    },
    {
      "midi": 54,
      "hit": false,
      "t": 139423.34578125065,
      "d": 831.8657812500023,
      "v": 111
    },
    {
      "midi": 63,
      "hit": false,
      "t": 139427.74718750064,
      "d": 831.8657812500023,
      "v": 111
    },
    {
      "midi": 59,
      "hit": false,
      "t": 139449.75421875066,
      "d": 831.8657812499732,
      "v": 110
    },
    {
      "midi": 53,
      "hit": false,
      "t": 140272.81718750065,
      "d": 831.8657812500023,
      "v": 107
    },
    {
      "midi": 62,
      "hit": false,
      "t": 140277.21859375064,
      "d": 831.8657812500023,
      "v": 108
    },
    {
      "midi": 57,
      "hit": false,
      "t": 140294.82421875064,
      "d": 809.858750000014,
      "v": 111
    },
    {
      "midi": 57,
      "hit": false,
      "t": 141113.48578125064,
      "d": 831.8657812500023,
      "v": 109
    },
    {
      "midi": 53,
      "hit": false,
      "t": 141131.09140625063,
      "d": 831.8657812500023,
      "v": 109
    },
    {
      "midi": 62,
      "hit": false,
      "t": 141131.09140625063,
      "d": 831.8657812500023,
      "v": 111
    },
    {
      "midi": 57,
      "hit": false,
      "t": 141958.55578125064,
      "d": 831.8657812500023,
      "v": 108
    },
    {
      "midi": 64,
      "hit": false,
      "t": 141980.56281250063,
      "d": 823.0629687500186,
      "v": 110
    },
    {
      "midi": 61,
      "hit": false,
      "t": 141980.56281250063,
      "d": 831.8657812500314,
      "v": 110
    },
    {
      "midi": 57,
      "hit": false,
      "t": 142812.42859375066,
      "d": 831.8657812500023,
      "v": 106
    },
    {
      "midi": 64,
      "hit": false,
      "t": 142812.42859375066,
      "d": 831.8657812500023,
      "v": 112
    },
    {
      "midi": 61,
      "hit": false,
      "t": 142821.23140625068,
      "d": 831.8657812499732,
      "v": 110
    },
    {
      "midi": 54,
      "hit": false,
      "t": 143648.69578125066,
      "d": 831.8657812500023,
      "v": 107
    },
    {
      "midi": 57,
      "hit": false,
      "t": 143666.30140625066,
      "d": 831.8657812500023,
      "v": 106
    },
    {
      "midi": 62,
      "hit": false,
      "t": 143666.30140625066,
      "d": 831.8657812500023,
      "v": 107
    },
    {
      "midi": 62,
      "hit": false,
      "t": 144506.97000000067,
      "d": 831.8657812499732,
      "v": 111
    },
    {
      "midi": 54,
      "hit": false,
      "t": 144511.37140625066,
      "d": 831.8657812499732,
      "v": 109
    },
    {
      "midi": 57,
      "hit": false,
      "t": 144515.77281250065,
      "d": 831.8657812499732,
      "v": 107
    },
    {
      "midi": 69,
      "hit": false,
      "t": 145360.84281250063,
      "d": 198.06328125001164,
      "v": 95
    },
    {
      "midi": 68,
      "hit": false,
      "t": 145576.51171875064,
      "d": 198.06328125001164,
      "v": 101
    },
    {
      "midi": 69,
      "hit": false,
      "t": 145778.97640625064,
      "d": 198.06328124998254,
      "v": 103
    },
    {
      "midi": 76,
      "hit": false,
      "t": 145972.63828125063,
      "d": 1043.1332812499895,
      "v": 109
    },
    {
      "midi": 64,
      "hit": false,
      "t": 147033.37718750062,
      "d": 831.8657812500023,
      "v": 96
    },
    {
      "midi": 68,
      "hit": false,
      "t": 147050.98281250062,
      "d": 831.8657812500023,
      "v": 94
    },
    {
      "midi": 64,
      "hit": false,
      "t": 147891.65140625063,
      "d": 831.8657812500023,
      "v": 86
    },
    {
      "midi": 69,
      "hit": false,
      "t": 147900.45421875064,
      "d": 831.8657812500023,
      "v": 79
    },
    {
      "midi": 57,
      "hit": false,
      "t": 148741.12281250066,
      "d": 831.8657812500023,
      "v": 101
    },
    {
      "midi": 61,
      "hit": false,
      "t": 148741.12281250066,
      "d": 831.8657812500023,
      "v": 104
    },
    {
      "midi": 69,
      "hit": false,
      "t": 149146.05218750067,
      "d": 198.06328125001164,
      "v": 110
    },
    {
      "midi": 68,
      "hit": false,
      "t": 149379.32671875067,
      "d": 198.06328124998254,
      "v": 108
    },
    {
      "midi": 69,
      "hit": false,
      "t": 149581.79140625065,
      "d": 198.06328124998254,
      "v": 114
    },
    {
      "midi": 68,
      "hit": false,
      "t": 149775.45328125064,
      "d": 198.06328124998254,
      "v": 103
    },
    {
      "midi": 69,
      "hit": false,
      "t": 150008.7278125006,
      "d": 1043.1332812499895,
      "v": 115
    },
    {
      "midi": 57,
      "hit": false,
      "t": 152108.1985937506,
      "d": 1456.8654687499802,
      "v": 80
    },
    {
      "midi": 61,
      "hit": false,
      "t": 152121.4028125006,
      "d": 1421.6542187499872,
      "v": 84
    },
    {
      "midi": 69,
      "hit": false,
      "t": 152535.1350000006,
      "d": 272.8871874999895,
      "v": 98
    },
    {
      "midi": 68,
      "hit": false,
      "t": 152742.0010937506,
      "d": 268.4857812499977,
      "v": 106
    },
    {
      "midi": 69,
      "hit": false,
      "t": 152953.26859375057,
      "d": 453.34484375000466,
      "v": 106
    },
    {
      "midi": 68,
      "hit": false,
      "t": 153371.4021875006,
      "d": 264.0843749999767,
      "v": 109
    },
    {
      "midi": 69,
      "hit": false,
      "t": 153582.66968750057,
      "d": 5585.384531249962,
      "v": 106
    },
    {
      "midi": 57,
      "hit": false,
      "t": 153798.33859375055,
      "d": 783.4503125000047,
      "v": 81
    },
    {
      "midi": 62,
      "hit": false,
      "t": 153798.33859375055,
      "d": 783.4503125000047,
      "v": 80
    },
    {
      "midi": 62,
      "hit": false,
      "t": 154639.00718750057,
      "d": 783.4503124999756,
      "v": 80
    },
    {
      "midi": 57,
      "hit": false,
      "t": 154661.01421875056,
      "d": 783.4503124999756,
      "v": 80
    },
    {
      "midi": 62,
      "hit": false,
      "t": 155484.07718750054,
      "d": 783.4503125000047,
      "v": 80
    },
    {
      "midi": 57,
      "hit": false,
      "t": 155492.88000000056,
      "d": 783.4503125000047,
      "v": 80
    },
    {
      "midi": 62,
      "hit": false,
      "t": 156324.74578125056,
      "d": 779.0489062500128,
      "v": 88
    },
    {
      "midi": 54,
      "hit": false,
      "t": 156324.74578125056,
      "d": 783.4503125000047,
      "v": 98
    },
    {
      "midi": 57,
      "hit": false,
      "t": 156324.74578125056,
      "d": 783.4503125000047,
      "v": 92
    },
    {
      "midi": 57,
      "hit": false,
      "t": 157191.82281250056,
      "d": 779.0489062499837,
      "v": 73
    },
    {
      "midi": 62,
      "hit": false,
      "t": 157191.82281250056,
      "d": 779.0489062499837,
      "v": 74
    },
    {
      "midi": 59,
      "hit": false,
      "t": 157196.22421875055,
      "d": 779.0489062499837,
      "v": 77
    },
    {
      "midi": 57,
      "hit": false,
      "t": 158014.88578125054,
      "d": 779.0489062499837,
      "v": 77
    },
    {
      "midi": 59,
      "hit": false,
      "t": 158014.88578125054,
      "d": 779.0489062499837,
      "v": 77
    },
    {
      "midi": 62,
      "hit": false,
      "t": 158032.49140625054,
      "d": 779.0489062499837,
      "v": 77
    },
    {
      "midi": 40,
      "hit": false,
      "t": 158877.56140625052,
      "d": 994.7178124999919,
      "v": 98
    },
    {
      "midi": 47,
      "hit": false,
      "t": 159093.23031250053,
      "d": 994.7178124999919,
      "v": 85
    },
    {
      "midi": 52,
      "hit": false,
      "t": 159300.09640625052,
      "d": 994.7178124999919,
      "v": 87
    },
    {
      "midi": 57,
      "hit": false,
      "t": 159506.96250000052,
      "d": 994.7178124999919,
      "v": 93
    },
    {
      "midi": 62,
      "hit": false,
      "t": 159713.8285937505,
      "d": 994.7178124999919,
      "v": 98
    },
    {
      "midi": 45,
      "hit": false,
      "t": 160567.7014062505,
      "d": 1676.9357812499802,
      "v": 68
    },
    {
      "midi": 40,
      "hit": false,
      "t": 162240.2357812505,
      "d": 1672.5343749999884,
      "v": 85
    },
    {
      "midi": 45,
      "hit": false,
      "t": 163952.3828125005,
      "d": 1676.9357812500093,
      "v": 68
    },
    {
      "midi": 73,
      "hit": false,
      "t": 164370.5164062505,
      "d": 435.73921874997905,
      "v": 108
    },
    {
      "midi": 76,
      "hit": false,
      "t": 164784.2485937505,
      "d": 660.2109375,
      "v": 104
    },
    {
      "midi": 69,
      "hit": false,
      "t": 165224.3892187505,
      "d": 501.76031250003143,
      "v": 96
    },
    {
      "midi": 71,
      "hit": false,
      "t": 165638.12140625052,
      "d": 1249.999375000014,
      "v": 80
    },
    {
      "midi": 40,
      "hit": false,
      "t": 165638.12140625052,
      "d": 1703.3442187499895,
      "v": 96
    },
    {
      "midi": 73,
      "hit": false,
      "t": 167319.45859375052,
      "d": 1249.9993749999849,
      "v": 91
    },
    {
      "midi": 71,
      "hit": false,
      "t": 168600.2678125005,
      "d": 224.47171874999185,
      "v": 94
    },
    {
      "midi": 69,
      "hit": false,
      "t": 168811.5353125005,
      "d": 224.47171874999185,
      "v": 99
    },
    {
      "midi": 71,
      "hit": false,
      "t": 169018.4014062505,
      "d": 1249.9993749999849,
      "v": 99
    },
    {
      "midi": 64,
      "hit": false,
      "t": 171122.27359375046,
      "d": 404.929375000007,
      "v": 77
    },
    {
      "midi": 73,
      "hit": false,
      "t": 171553.61140625048,
      "d": 404.929375000007,
      "v": 95
    },
    {
      "midi": 76,
      "hit": false,
      "t": 171971.7450000005,
      "d": 1249.9993749999849,
      "v": 107
    },
    {
      "midi": 71,
      "hit": false,
      "t": 172385.47718750048,
      "d": 404.929375000007,
      "v": 107
    },
    {
      "midi": 73,
      "hit": false,
      "t": 172821.2164062505,
      "d": 1249.9993749999849,
      "v": 78
    },
    {
      "midi": 64,
      "hit": false,
      "t": 174084.42000000048,
      "d": 1249.9993749999849,
      "v": 107
    },
    {
      "midi": 73,
      "hit": false,
      "t": 174920.68718750047,
      "d": 624.9996874999779,
      "v": 85
    },
    {
      "midi": 61,
      "hit": false,
      "t": 175770.15859375044,
      "d": 1404.0485937499907,
      "v": 87
    },
    {
      "midi": 64,
      "hit": false,
      "t": 175774.56000000043,
      "d": 1439.2598437500128,
      "v": 91
    },
    {
      "midi": 61,
      "hit": false,
      "t": 177455.89718750044,
      "d": 1390.8443750000151,
      "v": 83
    },
    {
      "midi": 64,
      "hit": false,
      "t": 177464.70000000045,
      "d": 1452.4640624999884,
      "v": 87
    },
    {
      "midi": 64,
      "hit": false,
      "t": 179141.63578125043,
      "d": 941.9009375000023,
      "v": 107
    },
    {
      "midi": 61,
      "hit": false,
      "t": 179159.24140625042,
      "d": 1553.6964062499756,
      "v": 103
    },
    {
      "midi": 69,
      "hit": false,
      "t": 179986.70578125044,
      "d": 611.7954687499732,
      "v": 103
    },
    {
      "midi": 64,
      "hit": false,
      "t": 180435.64921875042,
      "d": 404.9293749999779,
      "v": 89
    },
    {
      "midi": 66,
      "hit": false,
      "t": 180849.3814062504,
      "d": 809.8587499999849,
      "v": 111
    },
    {
      "midi": 62,
      "hit": false,
      "t": 180853.7828125004,
      "d": 1694.5414062499767,
      "v": 103
    },
    {
      "midi": 69,
      "hit": false,
      "t": 181694.4514062504,
      "d": 823.0629687499895,
      "v": 99
    },
    {
      "midi": 66,
      "hit": false,
      "t": 182108.18359375038,
      "d": 413.7321874999907,
      "v": 91
    },
    {
      "midi": 78,
      "hit": false,
      "t": 182548.32421875038,
      "d": 919.893906250014,
      "v": 109
    },
    {
      "midi": 69,
      "hit": false,
      "t": 183380.19000000038,
      "d": 1544.8935937499919,
      "v": 87
    },
    {
      "midi": 66,
      "hit": false,
      "t": 183789.52078125038,
      "d": 805.457343749993,
      "v": 83
    },
    {
      "midi": 62,
      "hit": false,
      "t": 184643.39359375037,
      "d": 941.9009375000023,
      "v": 73
    },
    {
      "midi": 69,
      "hit": false,
      "t": 185061.52718750038,
      "d": 906.6896874999802,
      "v": 91
    },
    {
      "midi": 66,
      "hit": false,
      "t": 185484.06218750039,
      "d": 400.52796874998603,
      "v": 87
    },
    {
      "midi": 71,
      "hit": false,
      "t": 185915.40000000037,
      "d": 862.6756249999744,
      "v": 109
    },
    {
      "midi": 76,
      "hit": false,
      "t": 186773.67421875036,
      "d": 796.6545312499802,
      "v": 89
    },
    {
      "midi": 57,
      "hit": false,
      "t": 187601.13859375034,
      "d": 334.50687499999185,
      "v": 87
    },
    {
      "midi": 62,
      "hit": false,
      "t": 187605.54000000033,
      "d": 748.2390625000116,
      "v": 83
    },
    {
      "midi": 57,
      "hit": false,
      "t": 188028.07500000033,
      "d": 334.50687500002095,
      "v": 95
    },
    {
      "midi": 66,
      "hit": false,
      "t": 188446.20859375034,
      "d": 743.8376562500198,
      "v": 99
    },
    {
      "midi": 62,
      "hit": false,
      "t": 188455.01140625036,
      "d": 774.647500000021,
      "v": 93
    },
    {
      "midi": 57,
      "hit": false,
      "t": 188859.94078125036,
      "d": 343.30968750000466,
      "v": 93
    },
    {
      "midi": 62,
      "hit": false,
      "t": 189286.8771875004,
      "d": 805.457343749993,
      "v": 85
    },
    {
      "midi": 64,
      "hit": false,
      "t": 189286.8771875004,
      "d": 809.8587499999849,
      "v": 95
    },
    {
      "midi": 59,
      "hit": false,
      "t": 189731.41921875038,
      "d": 360.91531250000116,
      "v": 87
    },
    {
      "midi": 59,
      "hit": false,
      "t": 190131.94718750037,
      "d": 761.4432812499872,
      "v": 101
    },
    {
      "midi": 64,
      "hit": false,
      "t": 190153.95421875035,
      "d": 809.8587499999849,
      "v": 95
    },
    {
      "midi": 66,
      "hit": false,
      "t": 190977.01718750034,
      "d": 730.6334375000151,
      "v": 91
    },
    {
      "midi": 62,
      "hit": false,
      "t": 190981.41859375034,
      "d": 699.823593750014,
      "v": 87
    },
    {
      "midi": 66,
      "hit": false,
      "t": 191826.48859375037,
      "d": 779.0489062500128,
      "v": 107
    },
    {
      "midi": 62,
      "hit": false,
      "t": 191835.29140625038,
      "d": 770.24609375,
      "v": 99
    },
    {
      "midi": 57,
      "hit": false,
      "t": 192257.8264062504,
      "d": 356.5139062500093,
      "v": 89
    },
    {
      "midi": 59,
      "hit": false,
      "t": 192671.5585937504,
      "d": 787.8517187499965,
      "v": 101
    },
    {
      "midi": 62,
      "hit": false,
      "t": 192684.7628125004,
      "d": 787.8517187499965,
      "v": 91
    },
    {
      "midi": 66,
      "hit": false,
      "t": 192684.7628125004,
      "d": 792.2531249999884,
      "v": 101
    },
    {
      "midi": 62,
      "hit": false,
      "t": 193512.2271875004,
      "d": 752.6404687500035,
      "v": 109
    },
    {
      "midi": 59,
      "hit": false,
      "t": 193512.2271875004,
      "d": 761.4432812500163,
      "v": 109
    },
    {
      "midi": 66,
      "hit": false,
      "t": 193521.0300000004,
      "d": 757.0418749999953,
      "v": 115
    },
    {
      "midi": 57,
      "hit": false,
      "t": 194366.1000000004,
      "d": 831.8657812500023,
      "v": 113
    },
    {
      "midi": 61,
      "hit": false,
      "t": 194366.1000000004,
      "d": 831.8657812500023,
      "v": 112
    },
    {
      "midi": 64,
      "hit": false,
      "t": 194366.1000000004,
      "d": 831.8657812500023,
      "v": 113
    },
    {
      "midi": 64,
      "hit": false,
      "t": 195206.76859375043,
      "d": 831.8657812499732,
      "v": 113
    },
    {
      "midi": 57,
      "hit": false,
      "t": 195211.17000000042,
      "d": 823.0629687499895,
      "v": 112
    },
    {
      "midi": 61,
      "hit": false,
      "t": 195215.5714062504,
      "d": 831.8657812499732,
      "v": 113
    },
    {
      "midi": 57,
      "hit": false,
      "t": 196043.0357812504,
      "d": 831.8657812500023,
      "v": 112
    },
    {
      "midi": 62,
      "hit": false,
      "t": 196060.6414062504,
      "d": 827.4643750000105,
      "v": 110
    },
    {
      "midi": 54,
      "hit": false,
      "t": 196069.4442187504,
      "d": 827.4643750000105,
      "v": 112
    },
    {
      "midi": 62,
      "hit": false,
      "t": 196896.9085937504,
      "d": 831.8657812500023,
      "v": 109
    },
    {
      "midi": 54,
      "hit": false,
      "t": 196905.71140625043,
      "d": 831.8657812500023,
      "v": 111
    },
    {
      "midi": 57,
      "hit": false,
      "t": 196905.71140625043,
      "d": 831.8657812500023,
      "v": 112
    },
    {
      "midi": 56,
      "hit": false,
      "t": 197737.57718750043,
      "d": 831.8657812500314,
      "v": 112
    },
    {
      "midi": 64,
      "hit": false,
      "t": 197746.38000000044,
      "d": 823.0629687500186,
      "v": 113
    },
    {
      "midi": 59,
      "hit": false,
      "t": 197755.18281250045,
      "d": 823.0629687500186,
      "v": 112
    },
    {
      "midi": 56,
      "hit": false,
      "t": 198578.24578125047,
      "d": 831.8657812500023,
      "v": 112
    },
    {
      "midi": 64,
      "hit": false,
      "t": 198578.24578125047,
      "d": 831.8657812500023,
      "v": 112
    },
    {
      "midi": 59,
      "hit": false,
      "t": 198587.0485937505,
      "d": 831.8657812500023,
      "v": 109
    },
    {
      "midi": 57,
      "hit": false,
      "t": 199427.7171875005,
      "d": 831.8657812499732,
      "v": 111
    },
    {
      "midi": 64,
      "hit": false,
      "t": 199432.1185937505,
      "d": 831.8657812499732,
      "v": 112
    },
    {
      "midi": 61,
      "hit": false,
      "t": 199436.52000000048,
      "d": 831.8657812499732,
      "v": 110
    },
    {
      "midi": 57,
      "hit": false,
      "t": 200272.78718750045,
      "d": 831.8657812500023,
      "v": 111
    },
    {
      "midi": 61,
      "hit": false,
      "t": 200277.18859375044,
      "d": 831.8657812500023,
      "v": 113
    },
    {
      "midi": 64,
      "hit": false,
      "t": 200290.39281250045,
      "d": 823.0629687499895,
      "v": 112
    },
    {
      "midi": 64,
      "hit": false,
      "t": 201122.25859375045,
      "d": 827.4643750000105,
      "v": 113
    },
    {
      "midi": 57,
      "hit": false,
      "t": 201139.86421875044,
      "d": 809.858750000014,
      "v": 111
    },
    {
      "midi": 61,
      "hit": false,
      "t": 201139.86421875044,
      "d": 827.4643750000396,
      "v": 111
    },
    {
      "midi": 57,
      "hit": false,
      "t": 201958.52578125047,
      "d": 831.8657812500314,
      "v": 112
    },
    {
      "midi": 64,
      "hit": false,
      "t": 201958.52578125047,
      "d": 831.8657812500314,
      "v": 111
    },
    {
      "midi": 61,
      "hit": false,
      "t": 201976.1314062505,
      "d": 831.8657812500023,
      "v": 111
    },
    {
      "midi": 62,
      "hit": false,
      "t": 202803.5957812505,
      "d": 831.8657812500023,
      "v": 111
    },
    {
      "midi": 54,
      "hit": false,
      "t": 202807.9971875005,
      "d": 831.8657812500023,
      "v": 110
    },
    {
      "midi": 57,
      "hit": false,
      "t": 202825.6028125005,
      "d": 818.6615624999977,
      "v": 109
    },
    {
      "midi": 57,
      "hit": false,
      "t": 203653.0671875005,
      "d": 831.8657812500314,
      "v": 112
    },
    {
      "midi": 54,
      "hit": false,
      "t": 203666.2714062505,
      "d": 831.8657812500314,
      "v": 110
    },
    {
      "midi": 62,
      "hit": false,
      "t": 203675.07421875052,
      "d": 831.8657812500314,
      "v": 111
    },
    {
      "midi": 64,
      "hit": false,
      "t": 204493.73578125055,
      "d": 831.8657812500023,
      "v": 112
    },
    {
      "midi": 59,
      "hit": false,
      "t": 204506.94000000056,
      "d": 823.0629687499895,
      "v": 112
    },
    {
      "midi": 56,
      "hit": false,
      "t": 204506.94000000056,
      "d": 827.4643749999814,
      "v": 109
    },
    {
      "midi": 59,
      "hit": false,
      "t": 205338.80578125053,
      "d": 831.8657812500023,
      "v": 110
    },
    {
      "midi": 56,
      "hit": false,
      "t": 205343.20718750052,
      "d": 831.8657812500023,
      "v": 110
    },
    {
      "midi": 64,
      "hit": false,
      "t": 205356.41140625053,
      "d": 831.8657812500023,
      "v": 112
    },
    {
      "midi": 61,
      "hit": false,
      "t": 206188.27718750053,
      "d": 831.8657812500023,
      "v": 110
    },
    {
      "midi": 57,
      "hit": false,
      "t": 206201.48140625053,
      "d": 823.0629687499895,
      "v": 109
    },
    {
      "midi": 64,
      "hit": false,
      "t": 206201.48140625053,
      "d": 831.8657812500023,
      "v": 111
    },
    {
      "midi": 57,
      "hit": false,
      "t": 207033.34718750053,
      "d": 831.8657812500023,
      "v": 112
    },
    {
      "midi": 61,
      "hit": false,
      "t": 207037.74859375053,
      "d": 827.4643750000105,
      "v": 110
    },
    {
      "midi": 64,
      "hit": false,
      "t": 207050.95281250053,
      "d": 823.0629687500186,
      "v": 112
    },
    {
      "midi": 57,
      "hit": false,
      "t": 207874.01578125055,
      "d": 831.8657812500023,
      "v": 111
    },
    {
      "midi": 61,
      "hit": false,
      "t": 207874.01578125055,
      "d": 831.8657812500023,
      "v": 111
    },
    {
      "midi": 64,
      "hit": false,
      "t": 207882.81859375056,
      "d": 831.8657812500023,
      "v": 112
    },
    {
      "midi": 61,
      "hit": false,
      "t": 208727.88859375057,
      "d": 831.8657812500023,
      "v": 111
    },
    {
      "midi": 57,
      "hit": false,
      "t": 208745.49421875057,
      "d": 823.0629687500186,
      "v": 110
    },
    {
      "midi": 64,
      "hit": false,
      "t": 208745.49421875057,
      "d": 831.8657812500314,
      "v": 113
    },
    {
      "midi": 57,
      "hit": false,
      "t": 209577.3600000006,
      "d": 831.8657812500023,
      "v": 110
    },
    {
      "midi": 62,
      "hit": false,
      "t": 209581.7614062506,
      "d": 831.8657812500023,
      "v": 111
    },
    {
      "midi": 54,
      "hit": false,
      "t": 209590.5642187506,
      "d": 827.4643749999814,
      "v": 110
    },
    {
      "midi": 54,
      "hit": false,
      "t": 210426.8314062506,
      "d": 831.8657812499732,
      "v": 111
    },
    {
      "midi": 57,
      "hit": false,
      "t": 210431.2328125006,
      "d": 831.8657812499732,
      "v": 110
    },
    {
      "midi": 62,
      "hit": false,
      "t": 210435.63421875058,
      "d": 831.8657812499732,
      "v": 112
    },
    {
      "midi": 54,
      "hit": false,
      "t": 211276.30281250057,
      "d": 831.8657812500023,
      "v": 109
    },
    {
      "midi": 59,
      "hit": false,
      "t": 211276.30281250057,
      "d": 831.8657812500023,
      "v": 111
    },
    {
      "midi": 63,
      "hit": false,
      "t": 211280.70421875056,
      "d": 831.8657812500023,
      "v": 110
    },
    {
      "midi": 59,
      "hit": false,
      "t": 212121.37281250057,
      "d": 831.8657812499732,
      "v": 110
    },
    {
      "midi": 63,
      "hit": false,
      "t": 212121.37281250057,
      "d": 831.8657812499732,
      "v": 111
    },
    {
      "midi": 54,
      "hit": false,
      "t": 212125.77421875056,
      "d": 831.8657812499732,
      "v": 111
    },
    {
      "midi": 57,
      "hit": false,
      "t": 212948.83718750055,
      "d": 831.8657812499732,
      "v": 111
    },
    {
      "midi": 62,
      "hit": false,
      "t": 212953.23859375055,
      "d": 831.8657812499732,
      "v": 108
    },
    {
      "midi": 53,
      "hit": false,
      "t": 212957.64000000054,
      "d": 831.8657812499732,
      "v": 107
    },
    {
      "midi": 62,
      "hit": false,
      "t": 213793.9071875005,
      "d": 831.8657812500314,
      "v": 111
    },
    {
      "midi": 57,
      "hit": false,
      "t": 213807.1114062505,
      "d": 831.8657812500314,
      "v": 109
    },
    {
      "midi": 53,
      "hit": false,
      "t": 213815.91421875052,
      "d": 831.8657812500314,
      "v": 109
    },
    {
      "midi": 61,
      "hit": false,
      "t": 214634.57578125055,
      "d": 831.8657812500314,
      "v": 110
    },
    {
      "midi": 57,
      "hit": false,
      "t": 214647.78000000055,
      "d": 831.8657812500314,
      "v": 108
    },
    {
      "midi": 64,
      "hit": false,
      "t": 214656.58281250056,
      "d": 831.8657812500314,
      "v": 110
    },
    {
      "midi": 61,
      "hit": false,
      "t": 215488.4485937506,
      "d": 831.8657812500314,
      "v": 110
    },
    {
      "midi": 57,
      "hit": false,
      "t": 215497.2514062506,
      "d": 831.8657812500023,
      "v": 106
    },
    {
      "midi": 64,
      "hit": false,
      "t": 215506.05421875062,
      "d": 831.8657812500023,
      "v": 112
    },
    {
      "midi": 54,
      "hit": false,
      "t": 216324.71578125062,
      "d": 831.8657812500023,
      "v": 107
    },
    {
      "midi": 57,
      "hit": false,
      "t": 216342.32140625062,
      "d": 831.8657812500023,
      "v": 106
    },
    {
      "midi": 62,
      "hit": false,
      "t": 216351.12421875063,
      "d": 831.8657812500023,
      "v": 107
    },
    {
      "midi": 57,
      "hit": false,
      "t": 217182.99000000063,
      "d": 831.8657812500023,
      "v": 107
    },
    {
      "midi": 54,
      "hit": false,
      "t": 217196.19421875064,
      "d": 831.8657812500023,
      "v": 109
    },
    {
      "midi": 62,
      "hit": false,
      "t": 217196.19421875064,
      "d": 831.8657812500023,
      "v": 111
    },
    {
      "midi": 59,
      "hit": false,
      "t": 218019.25718750063,
      "d": 831.8657812500023,
      "v": 107
    },
    {
      "midi": 64,
      "hit": false,
      "t": 218019.25718750063,
      "d": 831.8657812500023,
      "v": 106
    },
    {
      "midi": 57,
      "hit": false,
      "t": 218032.46140625063,
      "d": 823.0629687499895,
      "v": 105
    },
    {
      "midi": 59,
      "hit": false,
      "t": 218859.9257812506,
      "d": 831.8657812500023,
      "v": 107
    },
    {
      "midi": 57,
      "hit": false,
      "t": 218864.3271875006,
      "d": 831.8657812500023,
      "v": 109
    },
    {
      "midi": 64,
      "hit": false,
      "t": 218873.13000000062,
      "d": 831.8657812500023,
      "v": 111
    },
    {
      "midi": 59,
      "hit": false,
      "t": 219704.99578125062,
      "d": 831.8657812500314,
      "v": 112
    },
    {
      "midi": 64,
      "hit": false,
      "t": 219718.20000000062,
      "d": 831.8657812500314,
      "v": 111
    },
    {
      "midi": 56,
      "hit": false,
      "t": 219727.00281250064,
      "d": 831.8657812500023,
      "v": 110
    },
    {
      "midi": 57,
      "hit": false,
      "t": 220554.46718750065,
      "d": 831.8657812499732,
      "v": 109
    },
    {
      "midi": 59,
      "hit": false,
      "t": 220563.27000000063,
      "d": 831.8657812500023,
      "v": 110
    },
    {
      "midi": 64,
      "hit": false,
      "t": 220563.27000000063,
      "d": 831.8657812500023,
      "v": 111
    },
    {
      "midi": 64,
      "hit": false,
      "t": 221408.34000000064,
      "d": 831.8657812500023,
      "v": 113
    },
    {
      "midi": 57,
      "hit": false,
      "t": 221412.74140625063,
      "d": 831.8657812500023,
      "v": 113
    },
    {
      "midi": 61,
      "hit": false,
      "t": 221421.54421875064,
      "d": 831.8657812499732,
      "v": 112
    },
    {
      "midi": 64,
      "hit": false,
      "t": 222249.00859375062,
      "d": 831.8657812500023,
      "v": 113
    },
    {
      "midi": 57,
      "hit": false,
      "t": 222262.21281250063,
      "d": 818.6615624999977,
      "v": 112
    },
    {
      "midi": 61,
      "hit": false,
      "t": 222262.21281250063,
      "d": 831.8657812499732,
      "v": 113
    },
    {
      "midi": 54,
      "hit": false,
      "t": 223085.27578125062,
      "d": 831.8657812499732,
      "v": 112
    },
    {
      "midi": 57,
      "hit": false,
      "t": 223089.6771875006,
      "d": 831.8657812499732,
      "v": 112
    },
    {
      "midi": 62,
      "hit": false,
      "t": 223098.4800000006,
      "d": 831.8657812500023,
      "v": 110
    },
    {
      "midi": 57,
      "hit": false,
      "t": 223930.3457812506,
      "d": 831.8657812500023,
      "v": 112
    },
    {
      "midi": 54,
      "hit": false,
      "t": 223943.5500000006,
      "d": 831.8657812500023,
      "v": 111
    },
    {
      "midi": 62,
      "hit": false,
      "t": 223956.7542187506,
      "d": 831.8657812500023,
      "v": 109
    },
    {
      "midi": 56,
      "hit": false,
      "t": 224779.8171875006,
      "d": 831.8657812500023,
      "v": 112
    },
    {
      "midi": 59,
      "hit": false,
      "t": 224793.0214062506,
      "d": 831.8657812500023,
      "v": 112
    },
    {
      "midi": 64,
      "hit": false,
      "t": 224797.4228125006,
      "d": 831.8657812500023,
      "v": 113
    },
    {
      "midi": 59,
      "hit": false,
      "t": 225638.0914062506,
      "d": 831.8657812499732,
      "v": 109
    },
    {
      "midi": 64,
      "hit": false,
      "t": 225642.4928125006,
      "d": 831.8657812499732,
      "v": 112
    },
    {
      "midi": 56,
      "hit": false,
      "t": 225646.8942187506,
      "d": 831.8657812499732,
      "v": 112
    },
    {
      "midi": 61,
      "hit": false,
      "t": 226465.5557812506,
      "d": 831.8657812499732,
      "v": 110
    },
    {
      "midi": 57,
      "hit": false,
      "t": 226491.96421875057,
      "d": 814.2601562500058,
      "v": 111
    },
    {
      "midi": 64,
      "hit": false,
      "t": 226491.96421875057,
      "d": 818.6615624999977,
      "v": 112
    },
    {
      "midi": 57,
      "hit": false,
      "t": 227315.02718750056,
      "d": 831.8657812500023,
      "v": 111
    },
    {
      "midi": 61,
      "hit": false,
      "t": 227315.02718750056,
      "d": 831.8657812500023,
      "v": 113
    },
    {
      "midi": 64,
      "hit": false,
      "t": 227319.42859375055,
      "d": 831.8657812500023,
      "v": 112
    },
    {
      "midi": 57,
      "hit": false,
      "t": 228155.69578125054,
      "d": 831.8657812500023,
      "v": 111
    },
    {
      "midi": 64,
      "hit": false,
      "t": 228173.30140625054,
      "d": 818.6615624999977,
      "v": 113
    },
    {
      "midi": 61,
      "hit": false,
      "t": 228173.30140625054,
      "d": 831.8657812500023,
      "v": 111
    },
    {
      "midi": 64,
      "hit": false,
      "t": 229000.76578125055,
      "d": 831.8657812500023,
      "v": 111
    },
    {
      "midi": 61,
      "hit": false,
      "t": 229018.37140625055,
      "d": 831.8657812500023,
      "v": 111
    },
    {
      "midi": 57,
      "hit": false,
      "t": 229027.17421875056,
      "d": 831.8657812499732,
      "v": 112
    },
    {
      "midi": 62,
      "hit": false,
      "t": 229850.23718750055,
      "d": 831.8657812500023,
      "v": 111
    },
    {
      "midi": 54,
      "hit": false,
      "t": 229854.63859375054,
      "d": 831.8657812500023,
      "v": 110
    },
    {
      "midi": 57,
      "hit": false,
      "t": 229867.84281250054,
      "d": 818.6615624999977,
      "v": 109
    },
    {
      "midi": 57,
      "hit": false,
      "t": 230695.30718750056,
      "d": 831.8657812500023,
      "v": 112
    },
    {
      "midi": 62,
      "hit": false,
      "t": 230695.30718750056,
      "d": 831.8657812500023,
      "v": 111
    },
    {
      "midi": 54,
      "hit": false,
      "t": 230717.31421875054,
      "d": 831.8657812500314,
      "v": 110
    },
    {
      "midi": 59,
      "hit": false,
      "t": 231535.97578125057,
      "d": 831.8657812500023,
      "v": 112
    },
    {
      "midi": 64,
      "hit": false,
      "t": 231544.77859375058,
      "d": 827.4643749999814,
      "v": 112
    },
    {
      "midi": 56,
      "hit": false,
      "t": 231549.18000000058,
      "d": 831.8657812500023,
      "v": 109
    },
    {
      "midi": 64,
      "hit": false,
      "t": 232381.04578125058,
      "d": 831.8657812500023,
      "v": 112
    },
    {
      "midi": 56,
      "hit": false,
      "t": 232407.4542187506,
      "d": 831.8657812500023,
      "v": 110
    },
    {
      "midi": 59,
      "hit": false,
      "t": 232407.4542187506,
      "d": 831.8657812500023,
      "v": 110
    },
    {
      "midi": 61,
      "hit": false,
      "t": 233239.3200000006,
      "d": 831.8657812499732,
      "v": 110
    },
    {
      "midi": 57,
      "hit": false,
      "t": 233243.72140625058,
      "d": 831.8657812499732,
      "v": 109
    },
    {
      "midi": 64,
      "hit": false,
      "t": 233248.12281250057,
      "d": 818.6615624999977,
      "v": 111
    },
    {
      "midi": 64,
      "hit": false,
      "t": 234075.58718750055,
      "d": 831.8657812500023,
      "v": 112
    },
    {
      "midi": 57,
      "hit": false,
      "t": 234084.39000000057,
      "d": 831.8657812500023,
      "v": 112
    },
    {
      "midi": 61,
      "hit": false,
      "t": 234088.79140625056,
      "d": 831.8657812500023,
      "v": 110
    },
    {
      "midi": 61,
      "hit": false,
      "t": 234929.46000000057,
      "d": 831.8657812500023,
      "v": 111
    },
    {
      "midi": 57,
      "hit": false,
      "t": 234942.66421875058,
      "d": 823.0629687499895,
      "v": 111
    },
    {
      "midi": 64,
      "hit": false,
      "t": 234942.66421875058,
      "d": 831.8657812500023,
      "v": 112
    },
    {
      "midi": 57,
      "hit": false,
      "t": 235774.53000000058,
      "d": 827.4643750000105,
      "v": 110
    },
    {
      "midi": 64,
      "hit": false,
      "t": 235783.3328125006,
      "d": 831.8657812500023,
      "v": 113
    },
    {
      "midi": 61,
      "hit": false,
      "t": 235787.7342187506,
      "d": 831.8657812500023,
      "v": 111
    },
    {
      "midi": 54,
      "hit": false,
      "t": 236610.7971875006,
      "d": 831.8657812499732,
      "v": 110
    },
    {
      "midi": 57,
      "hit": false,
      "t": 236610.7971875006,
      "d": 831.8657812499732,
      "v": 110
    },
    {
      "midi": 62,
      "hit": false,
      "t": 236615.1985937506,
      "d": 831.8657812499732,
      "v": 111
    },
    {
      "midi": 57,
      "hit": false,
      "t": 237464.67000000057,
      "d": 831.8657812500023,
      "v": 110
    },
    {
      "midi": 54,
      "hit": false,
      "t": 237473.47281250058,
      "d": 831.8657812500023,
      "v": 111
    },
    {
      "midi": 62,
      "hit": false,
      "t": 237473.47281250058,
      "d": 831.8657812500023,
      "v": 112
    },
    {
      "midi": 63,
      "hit": false,
      "t": 238305.33859375058,
      "d": 831.8657812500023,
      "v": 110
    },
    {
      "midi": 59,
      "hit": false,
      "t": 238314.1414062506,
      "d": 818.6615624999977,
      "v": 111
    },
    {
      "midi": 54,
      "hit": false,
      "t": 238318.5428125006,
      "d": 818.6615624999977,
      "v": 109
    },
    {
      "midi": 59,
      "hit": false,
      "t": 239141.60578125058,
      "d": 831.8657812499732,
      "v": 110
    },
    {
      "midi": 54,
      "hit": false,
      "t": 239146.00718750057,
      "d": 831.8657812499732,
      "v": 111
    },
    {
      "midi": 63,
      "hit": false,
      "t": 239168.01421875056,
      "d": 831.8657812500023,
      "v": 111
    },
    {
      "midi": 53,
      "hit": false,
      "t": 239986.67578125055,
      "d": 831.8657812500314,
      "v": 107
    },
    {
      "midi": 62,
      "hit": false,
      "t": 239995.47859375057,
      "d": 831.8657812500314,
      "v": 108
    },
    {
      "midi": 57,
      "hit": false,
      "t": 240008.68281250057,
      "d": 831.8657812500314,
      "v": 111
    },
    {
      "midi": 57,
      "hit": false,
      "t": 240849.35140625061,
      "d": 827.4643749999814,
      "v": 109
    },
    {
      "midi": 53,
      "hit": false,
      "t": 240849.35140625061,
      "d": 831.8657812499732,
      "v": 109
    },
    {
      "midi": 62,
      "hit": false,
      "t": 240853.7528125006,
      "d": 831.8657812499732,
      "v": 111
    },
    {
      "midi": 57,
      "hit": false,
      "t": 241685.61859375058,
      "d": 827.4643750000105,
      "v": 108
    },
    {
      "midi": 61,
      "hit": false,
      "t": 241698.82281250058,
      "d": 831.8657812500314,
      "v": 110
    },
    {
      "midi": 64,
      "hit": false,
      "t": 241703.22421875058,
      "d": 818.6615625000268,
      "v": 110
    },
    {
      "midi": 57,
      "hit": false,
      "t": 242521.8857812506,
      "d": 831.8657812500023,
      "v": 106
    },
    {
      "midi": 64,
      "hit": false,
      "t": 242530.68859375062,
      "d": 831.8657812500023,
      "v": 112
    },
    {
      "midi": 61,
      "hit": false,
      "t": 242548.2942187506,
      "d": 831.8657812500023,
      "v": 110
    },
    {
      "midi": 62,
      "hit": false,
      "t": 243375.75859375062,
      "d": 827.4643750000105,
      "v": 107
    },
    {
      "midi": 54,
      "hit": false,
      "t": 243393.36421875062,
      "d": 809.858750000014,
      "v": 107
    },
    {
      "midi": 57,
      "hit": false,
      "t": 243393.36421875062,
      "d": 818.6615625000268,
      "v": 106
    },
    {
      "midi": 54,
      "hit": false,
      "t": 244212.02578125065,
      "d": 831.8657812500023,
      "v": 109
    },
    {
      "midi": 62,
      "hit": false,
      "t": 244212.02578125065,
      "d": 831.8657812500023,
      "v": 111
    },
    {
      "midi": 57,
      "hit": false,
      "t": 244220.82859375066,
      "d": 831.8657812500023,
      "v": 107
    },
    {
      "midi": 69,
      "hit": false,
      "t": 245061.49718750067,
      "d": 198.06328125001164,
      "v": 95
    },
    {
      "midi": 68,
      "hit": false,
      "t": 245290.3703125007,
      "d": 198.06328125001164,
      "v": 101
    },
    {
      "midi": 69,
      "hit": false,
      "t": 245492.8350000007,
      "d": 198.06328125001164,
      "v": 103
    },
    {
      "midi": 76,
      "hit": false,
      "t": 245704.1025000007,
      "d": 1043.1332812499895,
      "v": 109
    },
    {
      "midi": 68,
      "hit": false,
      "t": 246747.2357812507,
      "d": 831.8657812500023,
      "v": 94
    },
    {
      "midi": 64,
      "hit": false,
      "t": 246760.4400000007,
      "d": 831.8657812500023,
      "v": 96
    },
    {
      "midi": 69,
      "hit": false,
      "t": 247596.7071875007,
      "d": 831.8657812500023,
      "v": 79
    },
    {
      "midi": 64,
      "hit": false,
      "t": 247601.1085937507,
      "d": 831.8657812500023,
      "v": 86
    },
    {
      "midi": 61,
      "hit": false,
      "t": 248450.5800000007,
      "d": 831.8657812500023,
      "v": 104
    },
    {
      "midi": 57,
      "hit": false,
      "t": 248459.3828125007,
      "d": 831.8657812500023,
      "v": 101
    },
    {
      "midi": 69,
      "hit": false,
      "t": 248859.91078125068,
      "d": 198.06328125001164,
      "v": 110
    },
    {
      "midi": 68,
      "hit": false,
      "t": 249079.98109375068,
      "d": 198.06328125001164,
      "v": 108
    },
    {
      "midi": 69,
      "hit": false,
      "t": 249308.8542187507,
      "d": 198.06328125001164,
      "v": 114
    },
    {
      "midi": 68,
      "hit": false,
      "t": 249506.9175000007,
      "d": 198.06328125001164,
      "v": 103
    },
    {
      "midi": 69,
      "hit": false,
      "t": 249704.98078125072,
      "d": 1043.1332812499895,
      "v": 115
    },
    {
      "midi": 61,
      "hit": false,
      "t": 251844.06421875072,
      "d": 1421.6542187500163,
      "v": 84
    },
    {
      "midi": 57,
      "hit": false,
      "t": 251844.06421875072,
      "d": 1456.8654687500093,
      "v": 80
    },
    {
      "midi": 69,
      "hit": false,
      "t": 252244.5921875007,
      "d": 272.8871875000186,
      "v": 98
    },
    {
      "midi": 68,
      "hit": false,
      "t": 252460.2610937507,
      "d": 268.4857812499977,
      "v": 106
    },
    {
      "midi": 69,
      "hit": false,
      "t": 252662.72578125072,
      "d": 453.34484375000466,
      "v": 106
    },
    {
      "midi": 68,
      "hit": false,
      "t": 253102.86640625072,
      "d": 264.0843750000349,
      "v": 109
    },
    {
      "midi": 69,
      "hit": false,
      "t": 253309.73250000074,
      "d": 2205.104531250021,
      "v": 106
    }
  ]
}