{
  "jsonPath": "Ambient/Focus/Gordon/weve-got-the-power-club-mix.json",
  "path": "Ambient\\Focus\\Gordon\\Weve Got The Power (Club Mix).mid",
  "name": "Weve Got The Power (Club Mix)",
  "difficulty": "Advanced",
  "bpm": 109.00172586065946,
  "notes": [
    {
      "midi": 88,
      "hit": false,
      "t": 15246.318229166667,
      "d": 2892.72942708333,
      "v": 89
    },
    {
      "midi": 86,
      "hit": false,
      "t": 15309.390625,
      "d": 2815.322395833333,
      "v": 89
    },
    {
      "midi": 83,
      "hit": false,
      "t": 15349.527604166668,
      "d": 2775.1854166666653,
      "v": 89
    },
    {
      "midi": 79,
      "hit": false,
      "t": 15383.930729166668,
      "d": 2746.5161458333296,
      "v": 89
    },
    {
      "midi": 67,
      "hit": false,
      "t": 15412.6,
      "d": 3646.731249999999,
      "v": 70
    },
    {
      "midi": 71,
      "hit": false,
      "t": 15412.6,
      "d": 3646.731249999999,
      "v": 85
    },
    {
      "midi": 74,
      "hit": false,
      "t": 15412.6,
      "d": 3646.731249999999,
      "v": 70
    },
    {
      "midi": 76,
      "hit": false,
      "t": 15412.6,
      "d": 3655.332031249998,
      "v": 67
    },
    {
      "midi": 52,
      "hit": false,
      "t": 15412.6,
      "d": 3678.2674479166653,
      "v": 73
    },
    {
      "midi": 78,
      "hit": false,
      "t": 15438.402343750002,
      "d": 2677.7098958333318,
      "v": 89
    },
    {
      "midi": 52,
      "hit": false,
      "t": 15452.736979166668,
      "d": 3397.3085937499964,
      "v": 80
    },
    {
      "midi": 62,
      "hit": false,
      "t": 19265.749999999996,
      "d": 275.22499999999854,
      "v": 79
    },
    {
      "midi": 64,
      "hit": false,
      "t": 19265.749999999996,
      "d": 275.22499999999854,
      "v": 79
    },
    {
      "midi": 67,
      "hit": false,
      "t": 19265.749999999996,
      "d": 275.22499999999854,
      "v": 79
    },
    {
      "midi": 71,
      "hit": false,
      "t": 19265.749999999996,
      "d": 275.22499999999854,
      "v": 79
    },
    {
      "midi": 52,
      "hit": false,
      "t": 19265.749999999996,
      "d": 3506.25182291666,
      "v": 80
    },
    {
      "midi": 64,
      "hit": false,
      "t": 19540.974999999995,
      "d": 1826.2325520833328,
      "v": 80
    },
    {
      "midi": 69,
      "hit": false,
      "t": 19540.974999999995,
      "d": 1874.9703124999978,
      "v": 80
    },
    {
      "midi": 62,
      "hit": false,
      "t": 19540.974999999995,
      "d": 1880.7041666666628,
      "v": 80
    },
    {
      "midi": 66,
      "hit": false,
      "t": 19540.974999999995,
      "d": 1880.7041666666628,
      "v": 80
    },
    {
      "midi": 64,
      "hit": false,
      "t": 20366.649999999998,
      "d": 143.34635416666424,
      "v": 94
    },
    {
      "midi": 66,
      "hit": false,
      "t": 20504.262499999997,
      "d": 894.4812500000007,
      "v": 114
    },
    {
      "midi": 69,
      "hit": false,
      "t": 20641.874999999996,
      "d": 756.8687500000015,
      "v": 104
    },
    {
      "midi": 74,
      "hit": false,
      "t": 20641.874999999996,
      "d": 1100.9000000000015,
      "v": 92
    },
    {
      "midi": 62,
      "hit": false,
      "t": 21467.549999999992,
      "d": 275.22499999999854,
      "v": 90
    },
    {
      "midi": 66,
      "hit": false,
      "t": 21467.549999999992,
      "d": 275.22499999999854,
      "v": 92
    },
    {
      "midi": 69,
      "hit": false,
      "t": 21467.549999999992,
      "d": 275.22499999999854,
      "v": 90
    },
    {
      "midi": 69,
      "hit": false,
      "t": 21467.55,
      "d": 249.42265625000073,
      "v": 78
    },
    {
      "midi": 66,
      "hit": false,
      "t": 21467.55,
      "d": 266.6242187499993,
      "v": 78
    },
    {
      "midi": 60,
      "hit": false,
      "t": 21742.77499999999,
      "d": 1376.125,
      "v": 70
    },
    {
      "midi": 64,
      "hit": false,
      "t": 21742.77499999999,
      "d": 1376.125,
      "v": 69
    },
    {
      "midi": 67,
      "hit": false,
      "t": 21742.77499999999,
      "d": 1376.125,
      "v": 72
    },
    {
      "midi": 64,
      "hit": false,
      "t": 21742.774999999998,
      "d": 1258.5809895833336,
      "v": 88
    },
    {
      "midi": 67,
      "hit": false,
      "t": 21742.774999999998,
      "d": 1267.1817708333328,
      "v": 79
    },
    {
      "midi": 57,
      "hit": false,
      "t": 23118.89999999999,
      "d": 412.83750000000146,
      "v": 81
    },
    {
      "midi": 67,
      "hit": false,
      "t": 23121.766927083325,
      "d": 409.97057291666715,
      "v": 81
    },
    {
      "midi": 64,
      "hit": false,
      "t": 23124.63385416666,
      "d": 407.10364583333285,
      "v": 81
    },
    {
      "midi": 72,
      "hit": false,
      "t": 23124.63385416666,
      "d": 412.8374999999978,
      "v": 81
    },
    {
      "midi": 67,
      "hit": false,
      "t": 23127.500781249997,
      "d": 501.7122395833321,
      "v": 61
    },
    {
      "midi": 72,
      "hit": false,
      "t": 23130.36770833333,
      "d": 490.24453124999854,
      "v": 68
    },
    {
      "midi": 64,
      "hit": false,
      "t": 23130.36770833333,
      "d": 521.780729166665,
      "v": 82
    },
    {
      "midi": 69,
      "hit": false,
      "t": 23657.882291666658,
      "d": 418.5713541666628,
      "v": 81
    },
    {
      "midi": 66,
      "hit": false,
      "t": 23663.616145833323,
      "d": 427.17213541666206,
      "v": 81
    },
    {
      "midi": 74,
      "hit": false,
      "t": 23663.616145833323,
      "d": 430.03906249999636,
      "v": 81
    },
    {
      "midi": 59,
      "hit": false,
      "t": 23669.349999999988,
      "d": 412.8374999999978,
      "v": 81
    },
    {
      "midi": 69,
      "hit": false,
      "t": 23698.01927083333,
      "d": 432.90598958333067,
      "v": 88
    },
    {
      "midi": 74,
      "hit": false,
      "t": 23703.753124999996,
      "d": 415.7044270833321,
      "v": 86
    },
    {
      "midi": 66,
      "hit": false,
      "t": 23715.22083333333,
      "d": 387.03515625,
      "v": 81
    },
    {
      "midi": 52,
      "hit": false,
      "t": 24219.799999999985,
      "d": 3715.5374999999985,
      "v": 74
    },
    {
      "midi": 67,
      "hit": false,
      "t": 24231.26770833332,
      "d": 3764.2752604166635,
      "v": 74
    },
    {
      "midi": 62,
      "hit": false,
      "t": 24237.001562499983,
      "d": 3752.8075520833336,
      "v": 74
    },
    {
      "midi": 71,
      "hit": false,
      "t": 24237.001562499983,
      "d": 3752.8075520833336,
      "v": 74
    },
    {
      "midi": 86,
      "hit": false,
      "t": 25595.924999999996,
      "d": 120.41093750000073,
      "v": 97
    },
    {
      "midi": 91,
      "hit": false,
      "t": 25733.537499999995,
      "d": 137.61249999999927,
      "v": 97
    },
    {
      "midi": 90,
      "hit": false,
      "t": 25871.149999999994,
      "d": 197.81796874999782,
      "v": 86
    },
    {
      "midi": 86,
      "hit": false,
      "t": 26008.762499999993,
      "d": 172.015625,
      "v": 101
    },
    {
      "midi": 81,
      "hit": false,
      "t": 26146.374999999993,
      "d": 172.015625,
      "v": 90
    },
    {
      "midi": 79,
      "hit": false,
      "t": 26283.987499999992,
      "d": 169.1486979166657,
      "v": 107
    },
    {
      "midi": 78,
      "hit": false,
      "t": 26418.73307291665,
      "d": 3239.6276041666642,
      "v": 77
    },
    {
      "midi": 78,
      "hit": false,
      "t": 26421.59999999999,
      "d": 1401.9273437500015,
      "v": 95
    },
    {
      "midi": 74,
      "hit": false,
      "t": 26848.77213541665,
      "d": 2812.4554687499985,
      "v": 66
    },
    {
      "midi": 81,
      "hit": false,
      "t": 27797.72499999999,
      "d": 192.0841145833365,
      "v": 87
    },
    {
      "midi": 74,
      "hit": false,
      "t": 27935.337499999994,
      "d": 275.22499999999854,
      "v": 70
    },
    {
      "midi": 52,
      "hit": false,
      "t": 28072.949999999983,
      "d": 2064.1875,
      "v": 32
    },
    {
      "midi": 71,
      "hit": false,
      "t": 28081.55078124998,
      "d": 266.6242187499993,
      "v": 80
    },
    {
      "midi": 62,
      "hit": false,
      "t": 28087.284635416647,
      "d": 260.8903645833343,
      "v": 80
    },
    {
      "midi": 67,
      "hit": false,
      "t": 28087.284635416647,
      "d": 260.8903645833343,
      "v": 83
    },
    {
      "midi": 62,
      "hit": false,
      "t": 28351.041927083315,
      "d": 1786.0955729166672,
      "v": 67
    },
    {
      "midi": 69,
      "hit": false,
      "t": 28356.77578124998,
      "d": 1066.4968750000007,
      "v": 64
    },
    {
      "midi": 66,
      "hit": false,
      "t": 28356.77578124998,
      "d": 1780.3617187500022,
      "v": 71
    },
    {
      "midi": 52,
      "hit": false,
      "t": 29357.333333333325,
      "d": 3325.6354166666715,
      "v": 9
    },
    {
      "midi": 66,
      "hit": false,
      "t": 29724.299999999992,
      "d": 412.83750000000146,
      "v": 38
    },
    {
      "midi": 69,
      "hit": false,
      "t": 29724.299999999992,
      "d": 412.83750000000146,
      "v": 48
    },
    {
      "midi": 74,
      "hit": false,
      "t": 29724.299999999992,
      "d": 412.83750000000146,
      "v": 58
    },
    {
      "midi": 66,
      "hit": false,
      "t": 30137.137499999993,
      "d": 412.83750000000146,
      "v": 44
    },
    {
      "midi": 69,
      "hit": false,
      "t": 30137.137499999993,
      "d": 412.83750000000146,
      "v": 60
    },
    {
      "midi": 74,
      "hit": false,
      "t": 30137.137499999993,
      "d": 412.83750000000146,
      "v": 76
    },
    {
      "midi": 62,
      "hit": false,
      "t": 30274.74999999998,
      "d": 275.22499999999854,
      "v": 69
    },
    {
      "midi": 66,
      "hit": false,
      "t": 30274.74999999998,
      "d": 275.22499999999854,
      "v": 77
    },
    {
      "midi": 69,
      "hit": false,
      "t": 30274.74999999998,
      "d": 275.22499999999854,
      "v": 71
    },
    {
      "midi": 64,
      "hit": false,
      "t": 30549.97499999998,
      "d": 1244.2463541666657,
      "v": 62
    },
    {
      "midi": 60,
      "hit": false,
      "t": 30549.97499999998,
      "d": 1247.11328125,
      "v": 62
    },
    {
      "midi": 67,
      "hit": false,
      "t": 30549.97499999998,
      "d": 1278.6494791666664,
      "v": 63
    },
    {
      "midi": 67,
      "hit": false,
      "t": 30549.974999999995,
      "d": 1287.2502604166657,
      "v": 55
    },
    {
      "midi": 72,
      "hit": false,
      "t": 30549.974999999995,
      "d": 1290.1171875,
      "v": 48
    },
    {
      "midi": 64,
      "hit": false,
      "t": 30549.974999999995,
      "d": 1292.9841145833343,
      "v": 54
    },
    {
      "midi": 64,
      "hit": false,
      "t": 31926.099999999995,
      "d": 1100.8999999999978,
      "v": 54
    },
    {
      "midi": 67,
      "hit": false,
      "t": 31926.099999999995,
      "d": 1100.8999999999978,
      "v": 55
    },
    {
      "midi": 72,
      "hit": false,
      "t": 31926.099999999995,
      "d": 1100.8999999999978,
      "v": 58
    },
    {
      "midi": 72,
      "hit": false,
      "t": 31934.70078124998,
      "d": 994.8236979166686,
      "v": 88
    },
    {
      "midi": 64,
      "hit": false,
      "t": 31937.567708333314,
      "d": 983.3559895833314,
      "v": 88
    },
    {
      "midi": 67,
      "hit": false,
      "t": 31937.567708333314,
      "d": 986.2229166666657,
      "v": 88
    },
    {
      "midi": 55,
      "hit": false,
      "t": 32777.577343749996,
      "d": 140.47942708332994,
      "v": 104
    },
    {
      "midi": 57,
      "hit": false,
      "t": 32880.786718749994,
      "d": 180.61640624999563,
      "v": 97
    },
    {
      "midi": 59,
      "hit": false,
      "t": 33026.99999999999,
      "d": 3162.220572916667,
      "v": 62
    },
    {
      "midi": 55,
      "hit": false,
      "t": 33026.99999999999,
      "d": 3165.0875000000015,
      "v": 57
    },
    {
      "midi": 64,
      "hit": false,
      "t": 33026.99999999999,
      "d": 3494.784114583337,
      "v": 83
    },
    {
      "midi": 52,
      "hit": false,
      "t": 33067.13697916665,
      "d": 3397.30859375,
      "v": 80
    },
    {
      "midi": 59,
      "hit": false,
      "t": 36880.14999999999,
      "d": 275.22499999999854,
      "v": 69
    },
    {
      "midi": 62,
      "hit": false,
      "t": 36880.14999999999,
      "d": 275.22499999999854,
      "v": 69
    },
    {
      "midi": 64,
      "hit": false,
      "t": 36880.14999999999,
      "d": 275.22499999999854,
      "v": 69
    },
    {
      "midi": 67,
      "hit": false,
      "t": 36880.14999999999,
      "d": 275.22499999999854,
      "v": 69
    },
    {
      "midi": 52,
      "hit": false,
      "t": 36880.14999999999,
      "d": 3506.251822916667,
      "v": 69
    },
    {
      "midi": 64,
      "hit": false,
      "t": 37155.374999999985,
      "d": 1826.2325520833328,
      "v": 69
    },
    {
      "midi": 57,
      "hit": false,
      "t": 37155.374999999985,
      "d": 1874.9703125000015,
      "v": 69
    },
    {
      "midi": 62,
      "hit": false,
      "t": 37155.374999999985,
      "d": 1880.70416666667,
      "v": 69
    },
    {
      "midi": 66,
      "hit": false,
      "t": 37155.374999999985,
      "d": 1880.70416666667,
      "v": 69
    },
    {
      "midi": 57,
      "hit": false,
      "t": 39081.94999999999,
      "d": 275.22499999999854,
      "v": 67
    },
    {
      "midi": 62,
      "hit": false,
      "t": 39081.94999999999,
      "d": 275.22499999999854,
      "v": 67
    },
    {
      "midi": 66,
      "hit": false,
      "t": 39081.94999999999,
      "d": 275.22499999999854,
      "v": 67
    },
    {
      "midi": 55,
      "hit": false,
      "t": 39357.17499999999,
      "d": 1926.574999999997,
      "v": 67
    },
    {
      "midi": 60,
      "hit": false,
      "t": 39357.17499999999,
      "d": 1926.574999999997,
      "v": 67
    },
    {
      "midi": 64,
      "hit": false,
      "t": 39357.17499999999,
      "d": 1926.574999999997,
      "v": 67
    },
    {
      "midi": 67,
      "hit": false,
      "t": 41283.749999999985,
      "d": 418.57135416667006,
      "v": 81
    },
    {
      "midi": 76,
      "hit": false,
      "t": 41283.749999999985,
      "d": 430.0390625,
      "v": 81
    },
    {
      "midi": 76,
      "hit": false,
      "t": 41283.75,
      "d": 415.70442708333576,
      "v": 90
    },
    {
      "midi": 67,
      "hit": false,
      "t": 41283.75,
      "d": 455.84140625000146,
      "v": 90
    },
    {
      "midi": 52,
      "hit": false,
      "t": 41834.19999999998,
      "d": 3715.5374999999985,
      "v": 74
    },
    {
      "midi": 66,
      "hit": false,
      "t": 41834.19999999998,
      "d": 3752.80755208333,
      "v": 74
    },
    {
      "midi": 66,
      "hit": false,
      "t": 41834.200000000004,
      "d": 2187.4653645833314,
      "v": 86
    },
    {
      "midi": 67,
      "hit": false,
      "t": 41834.200000000004,
      "d": 2201.7999999999956,
      "v": 73
    },
    {
      "midi": 71,
      "hit": false,
      "t": 41834.200000000004,
      "d": 2227.602343749997,
      "v": 80
    },
    {
      "midi": 67,
      "hit": false,
      "t": 41845.66770833331,
      "d": 3764.275260416667,
      "v": 74
    },
    {
      "midi": 71,
      "hit": false,
      "t": 41851.40156249998,
      "d": 3752.80755208333,
      "v": 74
    },
    {
      "midi": 54,
      "hit": false,
      "t": 43760.775,
      "d": 140.4794270833372,
      "v": 89
    },
    {
      "midi": 55,
      "hit": false,
      "t": 43898.387500000004,
      "d": 1651.3499999999985,
      "v": 83
    },
    {
      "midi": 64,
      "hit": false,
      "t": 44036,
      "d": 1530.9390625000015,
      "v": 88
    },
    {
      "midi": 52,
      "hit": false,
      "t": 45687.34999999998,
      "d": 2064.1875000000073,
      "v": 32
    },
    {
      "midi": 71,
      "hit": false,
      "t": 45695.95078124998,
      "d": 266.6242187500029,
      "v": 80
    },
    {
      "midi": 62,
      "hit": false,
      "t": 45701.68463541665,
      "d": 260.8903645833343,
      "v": 80
    },
    {
      "midi": 67,
      "hit": false,
      "t": 45701.68463541665,
      "d": 260.8903645833343,
      "v": 83
    },
    {
      "midi": 62,
      "hit": false,
      "t": 45965.44192708332,
      "d": 1786.0955729166672,
      "v": 67
    },
    {
      "midi": 66,
      "hit": false,
      "t": 45971.175781249985,
      "d": 1780.3617187499985,
      "v": 71
    },
    {
      "midi": 69,
      "hit": false,
      "t": 45971.175781249985,
      "d": 1780.3617187499985,
      "v": 64
    },
    {
      "midi": 66,
      "hit": false,
      "t": 47338.700000000004,
      "d": 814.2072916666657,
      "v": 49
    },
    {
      "midi": 74,
      "hit": false,
      "t": 47338.700000000004,
      "d": 828.5419270833299,
      "v": 62
    },
    {
      "midi": 69,
      "hit": false,
      "t": 47338.700000000004,
      "d": 834.2757812499985,
      "v": 68
    },
    {
      "midi": 62,
      "hit": false,
      "t": 47889.14999999999,
      "d": 275.22499999999854,
      "v": 69
    },
    {
      "midi": 66,
      "hit": false,
      "t": 47889.14999999999,
      "d": 275.22499999999854,
      "v": 77
    },
    {
      "midi": 69,
      "hit": false,
      "t": 47889.14999999999,
      "d": 275.22499999999854,
      "v": 71
    },
    {
      "midi": 64,
      "hit": false,
      "t": 48164.374999999985,
      "d": 1244.2463541666657,
      "v": 62
    },
    {
      "midi": 60,
      "hit": false,
      "t": 48164.374999999985,
      "d": 1247.11328125,
      "v": 62
    },
    {
      "midi": 67,
      "hit": false,
      "t": 48164.374999999985,
      "d": 1278.64947916667,
      "v": 63
    },
    {
      "midi": 72,
      "hit": false,
      "t": 48164.375,
      "d": 1186.9078125000015,
      "v": 65
    },
    {
      "midi": 67,
      "hit": false,
      "t": 48164.375,
      "d": 1192.64166666667,
      "v": 60
    },
    {
      "midi": 59,
      "hit": false,
      "t": 49540.499999999985,
      "d": 452.97447916666715,
      "v": 78
    },
    {
      "midi": 62,
      "hit": false,
      "t": 49540.499999999985,
      "d": 464.4421874999971,
      "v": 78
    },
    {
      "midi": 67,
      "hit": false,
      "t": 49540.499999999985,
      "d": 473.04296875,
      "v": 78
    },
    {
      "midi": 59,
      "hit": false,
      "t": 49540.5,
      "d": 450.10755208333285,
      "v": 79
    },
    {
      "midi": 62,
      "hit": false,
      "t": 49540.5,
      "d": 510.3130208333314,
      "v": 97
    },
    {
      "midi": 67,
      "hit": false,
      "t": 49540.5,
      "d": 977.6221354166628,
      "v": 85
    },
    {
      "midi": 55,
      "hit": false,
      "t": 50090.94999999998,
      "d": 427.1721354166657,
      "v": 78
    },
    {
      "midi": 60,
      "hit": false,
      "t": 50090.94999999998,
      "d": 430.0390625,
      "v": 78
    },
    {
      "midi": 64,
      "hit": false,
      "t": 50090.94999999998,
      "d": 432.9059895833343,
      "v": 78
    },
    {
      "midi": 60,
      "hit": false,
      "t": 50090.95,
      "d": 427.1721354166657,
      "v": 104
    },
    {
      "midi": 64,
      "hit": false,
      "t": 50090.95,
      "d": 430.0390625,
      "v": 94
    },
    {
      "midi": 57,
      "hit": false,
      "t": 50515.25520833333,
      "d": 1198.3755208333314,
      "v": 56
    },
    {
      "midi": 60,
      "hit": false,
      "t": 50563.99296875,
      "d": 1120.968489583327,
      "v": 65
    },
    {
      "midi": 50,
      "hit": false,
      "t": 50563.99296875,
      "d": 2307.8763020833285,
      "v": 68
    },
    {
      "midi": 62,
      "hit": false,
      "t": 50641.39999999999,
      "d": 1321.6533854166628,
      "v": 69
    },
    {
      "midi": 65,
      "hit": false,
      "t": 50641.39999999999,
      "d": 1327.3872395833314,
      "v": 69
    },
    {
      "midi": 60,
      "hit": false,
      "t": 50641.39999999999,
      "d": 1330.2541666666657,
      "v": 67
    },
    {
      "midi": 57,
      "hit": false,
      "t": 50641.39999999999,
      "d": 1344.58880208333,
      "v": 64
    },
    {
      "midi": 50,
      "hit": false,
      "t": 50641.39999999999,
      "d": 2955.8018229166555,
      "v": 90
    },
    {
      "midi": 65,
      "hit": false,
      "t": 50641.399999999994,
      "d": 1026.3598958333314,
      "v": 73
    },
    {
      "midi": 62,
      "hit": false,
      "t": 50641.399999999994,
      "d": 1063.6299479166628,
      "v": 64
    },
    {
      "midi": 53,
      "hit": false,
      "t": 52292.749999999985,
      "d": 1077.964583333327,
      "v": 52
    },
    {
      "midi": 57,
      "hit": false,
      "t": 52292.749999999985,
      "d": 1092.2992187499913,
      "v": 56
    },
    {
      "midi": 60,
      "hit": false,
      "t": 52292.749999999985,
      "d": 1112.3677083333241,
      "v": 60
    },
    {
      "midi": 53,
      "hit": false,
      "t": 52292.74999999999,
      "d": 315.36197916666424,
      "v": 53
    },
    {
      "midi": 57,
      "hit": false,
      "t": 52292.74999999999,
      "d": 329.6966145833285,
      "v": 51
    },
    {
      "midi": 60,
      "hit": false,
      "t": 52292.74999999999,
      "d": 338.2973958333314,
      "v": 58
    },
    {
      "midi": 65,
      "hit": false,
      "t": 53944.09999999998,
      "d": 473.04296875,
      "v": 75
    },
    {
      "midi": 62,
      "hit": false,
      "t": 53944.09999999998,
      "d": 602.0546874999927,
      "v": 69
    },
    {
      "midi": 56,
      "hit": false,
      "t": 53944.09999999998,
      "d": 656.5263020833227,
      "v": 66
    },
    {
      "midi": 59,
      "hit": false,
      "t": 53944.09999999998,
      "d": 659.393229166657,
      "v": 70
    },
    {
      "midi": 44,
      "hit": false,
      "t": 53944.09999999998,
      "d": 814.2072916666584,
      "v": 54
    },
    {
      "midi": 65,
      "hit": false,
      "t": 53944.09999999999,
      "d": 504.57916666667006,
      "v": 60
    },
    {
      "midi": 62,
      "hit": false,
      "t": 53944.09999999999,
      "d": 602.0546875000073,
      "v": 66
    },
    {
      "midi": 56,
      "hit": false,
      "t": 53944.09999999999,
      "d": 656.5263020833372,
      "v": 52
    },
    {
      "midi": 59,
      "hit": false,
      "t": 53944.09999999999,
      "d": 670.8609375000015,
      "v": 68
    },
    {
      "midi": 44,
      "hit": false,
      "t": 53944.09999999999,
      "d": 713.8648437500015,
      "v": 44
    },
    {
      "midi": 64,
      "hit": false,
      "t": 54494.549999999974,
      "d": 137.61249999999563,
      "v": 81
    },
    {
      "midi": 64,
      "hit": false,
      "t": 54494.549999999996,
      "d": 106.07630208333285,
      "v": 62
    },
    {
      "midi": 52,
      "hit": false,
      "t": 54769.774999999965,
      "d": 991.9567708333343,
      "v": 75
    },
    {
      "midi": 62,
      "hit": false,
      "t": 54769.774999999965,
      "d": 1000.5575520833372,
      "v": 80
    },
    {
      "midi": 59,
      "hit": false,
      "t": 54769.774999999965,
      "d": 1009.1583333333401,
      "v": 83
    },
    {
      "midi": 56,
      "hit": false,
      "t": 54769.774999999965,
      "d": 1049.2953125000058,
      "v": 63
    },
    {
      "midi": 45,
      "hit": false,
      "t": 54769.774999999965,
      "d": 4380.664583333346,
      "v": 60
    },
    {
      "midi": 56,
      "hit": false,
      "t": 54769.774999999994,
      "d": 1009.1583333333328,
      "v": 54
    },
    {
      "midi": 59,
      "hit": false,
      "t": 54769.774999999994,
      "d": 1017.7591145833358,
      "v": 61
    },
    {
      "midi": 62,
      "hit": false,
      "t": 54769.774999999994,
      "d": 1023.4929687500044,
      "v": 66
    },
    {
      "midi": 45,
      "hit": false,
      "t": 54769.774999999994,
      "d": 4435.136197916661,
      "v": 58
    },
    {
      "midi": 60,
      "hit": false,
      "t": 55870.674999999974,
      "d": 980.4890625000044,
      "v": 74
    },
    {
      "midi": 57,
      "hit": false,
      "t": 55870.674999999974,
      "d": 1003.4244791666715,
      "v": 83
    },
    {
      "midi": 52,
      "hit": false,
      "t": 55870.674999999974,
      "d": 1006.2914062500058,
      "v": 63
    },
    {
      "midi": 57,
      "hit": false,
      "t": 55870.674999999996,
      "d": 1006.2914062499985,
      "v": 55
    },
    {
      "midi": 60,
      "hit": false,
      "t": 55870.674999999996,
      "d": 1020.6260416666628,
      "v": 54
    },
    {
      "midi": 62,
      "hit": false,
      "t": 56971.574999999975,
      "d": 467.3091145833314,
      "v": 66
    },
    {
      "midi": 52,
      "hit": false,
      "t": 56971.574999999975,
      "d": 470.1760416666657,
      "v": 69
    },
    {
      "midi": 59,
      "hit": false,
      "t": 56971.574999999975,
      "d": 478.7768229166686,
      "v": 73
    },
    {
      "midi": 56,
      "hit": false,
      "t": 56971.574999999975,
      "d": 487.3776041666715,
      "v": 63
    },
    {
      "midi": 62,
      "hit": false,
      "t": 56971.57499999999,
      "d": 447.24062499999854,
      "v": 65
    },
    {
      "midi": 59,
      "hit": false,
      "t": 56971.57499999999,
      "d": 458.7083333333285,
      "v": 66
    },
    {
      "midi": 56,
      "hit": false,
      "t": 56971.57499999999,
      "d": 470.1760416666584,
      "v": 53
    },
    {
      "midi": 57,
      "hit": false,
      "t": 57522.02499999998,
      "d": 346.8981770833343,
      "v": 59
    },
    {
      "midi": 60,
      "hit": false,
      "t": 57522.02499999998,
      "d": 361.23281249999854,
      "v": 67
    },
    {
      "midi": 57,
      "hit": false,
      "t": 57522.02499999998,
      "d": 409.97057291666715,
      "v": 74
    },
    {
      "midi": 52,
      "hit": false,
      "t": 57522.02499999998,
      "d": 421.4382812499971,
      "v": 65
    },
    {
      "midi": 60,
      "hit": false,
      "t": 57522.02499999998,
      "d": 427.1721354166657,
      "v": 71
    },
    {
      "midi": 56,
      "hit": false,
      "t": 58072.47499999998,
      "d": 452.97447916666715,
      "v": 51
    },
    {
      "midi": 62,
      "hit": false,
      "t": 58072.47499999998,
      "d": 470.1760416666657,
      "v": 60
    },
    {
      "midi": 59,
      "hit": false,
      "t": 58072.47499999998,
      "d": 478.7768229166686,
      "v": 68
    },
    {
      "midi": 56,
      "hit": false,
      "t": 58072.474999999984,
      "d": 240.82187500000146,
      "v": 59
    },
    {
      "midi": 52,
      "hit": false,
      "t": 58072.474999999984,
      "d": 249.42265625000437,
      "v": 64
    },
    {
      "midi": 59,
      "hit": false,
      "t": 58072.474999999984,
      "d": 263.7572916666686,
      "v": 69
    },
    {
      "midi": 62,
      "hit": false,
      "t": 58072.474999999984,
      "d": 289.55963541667006,
      "v": 71
    },
    {
      "midi": 60,
      "hit": false,
      "t": 58622.92499999998,
      "d": 409.97057291666715,
      "v": 72
    },
    {
      "midi": 57,
      "hit": false,
      "t": 58622.92499999998,
      "d": 418.57135416667006,
      "v": 66
    },
    {
      "midi": 64,
      "hit": false,
      "t": 58622.92499999998,
      "d": 438.6398437500029,
      "v": 76
    },
    {
      "midi": 57,
      "hit": false,
      "t": 58622.92499999999,
      "d": 481.64374999999563,
      "v": 83
    },
    {
      "midi": 64,
      "hit": false,
      "t": 58622.92499999999,
      "d": 498.8453124999942,
      "v": 69
    },
    {
      "midi": 60,
      "hit": false,
      "t": 58622.92499999999,
      "d": 521.780729166654,
      "v": 78
    },
    {
      "midi": 58,
      "hit": false,
      "t": 59173.37499999998,
      "d": 819.9411458333343,
      "v": 68
    },
    {
      "midi": 62,
      "hit": false,
      "t": 59173.37499999998,
      "d": 1717.289322916673,
      "v": 92
    },
    {
      "midi": 65,
      "hit": false,
      "t": 59173.37499999998,
      "d": 1823.3656250000058,
      "v": 88
    },
    {
      "midi": 46,
      "hit": false,
      "t": 59173.37499999998,
      "d": 2144.4614583333387,
      "v": 81
    },
    {
      "midi": 58,
      "hit": false,
      "t": 59173.374999999985,
      "d": 1241.3794270833314,
      "v": 37
    },
    {
      "midi": 65,
      "hit": false,
      "t": 59173.374999999985,
      "d": 1734.4908854166642,
      "v": 53
    },
    {
      "midi": 62,
      "hit": false,
      "t": 59173.374999999985,
      "d": 1745.9585937499942,
      "v": 62
    },
    {
      "midi": 46,
      "hit": false,
      "t": 59173.374999999985,
      "d": 2098.59062499999,
      "v": 63
    },
    {
      "midi": 58,
      "hit": false,
      "t": 60274.27499999998,
      "d": 501.71223958333576,
      "v": 31
    },
    {
      "midi": 58,
      "hit": false,
      "t": 60824.724999999984,
      "d": 215.01953124999272,
      "v": 43
    },
    {
      "midi": 58,
      "hit": false,
      "t": 60824.724999999984,
      "d": 206.4187499999971,
      "v": 21
    },
    {
      "midi": 62,
      "hit": false,
      "t": 61099.949999999975,
      "d": 51.60468750000291,
      "v": 63
    },
    {
      "midi": 65,
      "hit": false,
      "t": 61099.949999999975,
      "d": 91.7416666666686,
      "v": 60
    },
    {
      "midi": 62,
      "hit": false,
      "t": 61099.94999999998,
      "d": 74.54010416667006,
      "v": 66
    },
    {
      "midi": 58,
      "hit": false,
      "t": 61099.94999999998,
      "d": 77.40703125000437,
      "v": 47
    },
    {
      "midi": 65,
      "hit": false,
      "t": 61099.94999999998,
      "d": 88.8747395833343,
      "v": 60
    },
    {
      "midi": 69,
      "hit": false,
      "t": 61375.174999999974,
      "d": 1244.2463541666657,
      "v": 68
    },
    {
      "midi": 65,
      "hit": false,
      "t": 61375.174999999974,
      "d": 1252.8471354166686,
      "v": 68
    },
    {
      "midi": 60,
      "hit": false,
      "t": 61375.174999999974,
      "d": 1258.5809895833372,
      "v": 62
    },
    {
      "midi": 51,
      "hit": false,
      "t": 61375.174999999974,
      "d": 1330.254166666673,
      "v": 64
    },
    {
      "midi": 60,
      "hit": false,
      "t": 61375.17499999998,
      "d": 1206.9763020833343,
      "v": 80
    },
    {
      "midi": 69,
      "hit": false,
      "t": 61375.17499999998,
      "d": 1255.714062500003,
      "v": 80
    },
    {
      "midi": 65,
      "hit": false,
      "t": 61375.17499999998,
      "d": 1261.4479166666715,
      "v": 90
    },
    {
      "midi": 51,
      "hit": false,
      "t": 61375.17499999998,
      "d": 1376.1250000000073,
      "v": 71
    },
    {
      "midi": 64,
      "hit": false,
      "t": 62751.29999999998,
      "d": 389.9020833333343,
      "v": 70
    },
    {
      "midi": 60,
      "hit": false,
      "t": 62751.29999999998,
      "d": 401.36979166666424,
      "v": 71
    },
    {
      "midi": 67,
      "hit": false,
      "t": 62751.29999999998,
      "d": 407.10364583333285,
      "v": 66
    },
    {
      "midi": 64,
      "hit": false,
      "t": 62751.29999999999,
      "d": 358.3658854166715,
      "v": 86
    },
    {
      "midi": 67,
      "hit": false,
      "t": 62751.29999999999,
      "d": 364.0997395833401,
      "v": 75
    },
    {
      "midi": 60,
      "hit": false,
      "t": 62751.29999999999,
      "d": 369.83359375000873,
      "v": 85
    },
    {
      "midi": 50,
      "hit": false,
      "t": 62751.29999999999,
      "d": 756.868750000016,
      "v": 90
    },
    {
      "midi": 72,
      "hit": false,
      "t": 62931.916406249984,
      "d": 97.47552083332994,
      "v": 127
    },
    {
      "midi": 57,
      "hit": false,
      "t": 63301.74999999998,
      "d": 100.34244791667152,
      "v": 61
    },
    {
      "midi": 63,
      "hit": false,
      "t": 63301.74999999998,
      "d": 103.20937500000582,
      "v": 71
    },
    {
      "midi": 66,
      "hit": false,
      "t": 63301.74999999998,
      "d": 114.67708333333576,
      "v": 84
    },
    {
      "midi": 57,
      "hit": false,
      "t": 63301.75,
      "d": 137.6125000000029,
      "v": 86
    },
    {
      "midi": 63,
      "hit": false,
      "t": 63301.75,
      "d": 137.6125000000029,
      "v": 86
    },
    {
      "midi": 66,
      "hit": false,
      "t": 63301.75,
      "d": 143.34635416667152,
      "v": 89
    },
    {
      "midi": 72,
      "hit": false,
      "t": 63350.48776041665,
      "d": 111.81015625000146,
      "v": 127
    },
    {
      "midi": 62,
      "hit": false,
      "t": 63576.974999999984,
      "d": 791.2718749999985,
      "v": 110
    },
    {
      "midi": 58,
      "hit": false,
      "t": 63576.974999999984,
      "d": 814.2072916666657,
      "v": 110
    },
    {
      "midi": 65,
      "hit": false,
      "t": 63576.974999999984,
      "d": 814.2072916666657,
      "v": 110
    },
    {
      "midi": 43,
      "hit": false,
      "t": 63576.974999999984,
      "d": 848.6104166666628,
      "v": 107
    },
    {
      "midi": 58,
      "hit": false,
      "t": 63576.975000000006,
      "d": 688.0625,
      "v": 76
    },
    {
      "midi": 62,
      "hit": false,
      "t": 63576.975000000006,
      "d": 688.0625,
      "v": 80
    },
    {
      "midi": 65,
      "hit": false,
      "t": 63576.975000000006,
      "d": 688.0625,
      "v": 78
    },
    {
      "midi": 67,
      "hit": false,
      "t": 64402.64999999998,
      "d": 226.4872395833372,
      "v": 99
    },
    {
      "midi": 55,
      "hit": false,
      "t": 64402.64999999998,
      "d": 246.55572916667006,
      "v": 90
    },
    {
      "midi": 65,
      "hit": false,
      "t": 64677.874999999985,
      "d": 131.8786458333343,
      "v": 80
    },
    {
      "midi": 53,
      "hit": false,
      "t": 64677.874999999985,
      "d": 146.21328125000582,
      "v": 79
    },
    {
      "midi": 55,
      "hit": false,
      "t": 64815.48749999999,
      "d": 894.4812500000116,
      "v": 92
    },
    {
      "midi": 67,
      "hit": false,
      "t": 64815.48749999999,
      "d": 905.9489583333489,
      "v": 94
    },
    {
      "midi": 62,
      "hit": false,
      "t": 64953.09999999999,
      "d": 716.731770833343,
      "v": 88
    },
    {
      "midi": 58,
      "hit": false,
      "t": 64953.09999999999,
      "d": 728.1994791666802,
      "v": 92
    },
    {
      "midi": 65,
      "hit": false,
      "t": 64953.09999999999,
      "d": 731.0664062500146,
      "v": 83
    },
    {
      "midi": 43,
      "hit": false,
      "t": 64953.09999999999,
      "d": 808.4734375000116,
      "v": 90
    },
    {
      "midi": 57,
      "hit": false,
      "t": 65778.77500000001,
      "d": 1485.0682291666453,
      "v": 97
    },
    {
      "midi": 65,
      "hit": false,
      "t": 65778.77500000001,
      "d": 1508.0036458333052,
      "v": 92
    },
    {
      "midi": 60,
      "hit": false,
      "t": 65778.77500000001,
      "d": 1519.4713541666424,
      "v": 107
    },
    {
      "midi": 45,
      "hit": false,
      "t": 65778.77500000001,
      "d": 1571.0760416666453,
      "v": 85
    },
    {
      "midi": 58,
      "hit": false,
      "t": 67430.12499999999,
      "d": 418.5713541666628,
      "v": 81
    },
    {
      "midi": 62,
      "hit": false,
      "t": 67430.12499999999,
      "d": 430.0390625,
      "v": 99
    },
    {
      "midi": 65,
      "hit": false,
      "t": 67430.12499999999,
      "d": 430.0390625,
      "v": 86
    },
    {
      "midi": 46,
      "hit": false,
      "t": 67430.12499999999,
      "d": 493.1114583333401,
      "v": 89
    },
    {
      "midi": 57,
      "hit": false,
      "t": 67980.575,
      "d": 412.8374999999942,
      "v": 97
    },
    {
      "midi": 60,
      "hit": false,
      "t": 67980.575,
      "d": 412.8374999999942,
      "v": 107
    },
    {
      "midi": 65,
      "hit": false,
      "t": 67980.575,
      "d": 412.8374999999942,
      "v": 90
    },
    {
      "midi": 48,
      "hit": false,
      "t": 67980.575,
      "d": 430.0390625,
      "v": 82
    },
    {
      "midi": 55,
      "hit": false,
      "t": 68531.025,
      "d": 91.7416666666686,
      "v": 76
    },
    {
      "midi": 64,
      "hit": false,
      "t": 68531.025,
      "d": 91.7416666666686,
      "v": 75
    },
    {
      "midi": 60,
      "hit": false,
      "t": 68531.025,
      "d": 94.60859375000291,
      "v": 82
    },
    {
      "midi": 48,
      "hit": false,
      "t": 68531.025,
      "d": 97.47552083333721,
      "v": 73
    },
    {
      "midi": 55,
      "hit": false,
      "t": 68806.25,
      "d": 117.54401041666279,
      "v": 83
    },
    {
      "midi": 60,
      "hit": false,
      "t": 68806.25,
      "d": 134.7455729166686,
      "v": 90
    },
    {
      "midi": 64,
      "hit": false,
      "t": 68806.25,
      "d": 140.4794270833372,
      "v": 82
    },
    {
      "midi": 48,
      "hit": false,
      "t": 68806.25,
      "d": 2680.576822916686,
      "v": 87
    },
    {
      "midi": 60,
      "hit": false,
      "t": 69219.08750000001,
      "d": 137.6125000000029,
      "v": 87
    },
    {
      "midi": 72,
      "hit": false,
      "t": 69356.70000000001,
      "d": 129.01171875,
      "v": 101
    },
    {
      "midi": 60,
      "hit": false,
      "t": 69494.31250000001,
      "d": 91.7416666666686,
      "v": 83
    },
    {
      "midi": 60,
      "hit": false,
      "t": 69769.53750000002,
      "d": 80.2739583333314,
      "v": 101
    },
    {
      "midi": 65,
      "hit": false,
      "t": 70182.37500000001,
      "d": 389.9020833333343,
      "v": 86
    },
    {
      "midi": 57,
      "hit": false,
      "t": 70182.37500000001,
      "d": 415.7044270833285,
      "v": 78
    },
    {
      "midi": 60,
      "hit": false,
      "t": 70182.37500000001,
      "d": 418.5713541666628,
      "v": 88
    },
    {
      "midi": 55,
      "hit": false,
      "t": 70732.82500000001,
      "d": 100.34244791667152,
      "v": 78
    },
    {
      "midi": 60,
      "hit": false,
      "t": 70732.82500000001,
      "d": 111.81015625000873,
      "v": 86
    },
    {
      "midi": 64,
      "hit": false,
      "t": 70732.82500000001,
      "d": 120.41093750001164,
      "v": 79
    },
    {
      "midi": 55,
      "hit": false,
      "t": 71008.05000000002,
      "d": 361.2328125000058,
      "v": 85
    },
    {
      "midi": 60,
      "hit": false,
      "t": 71008.05000000002,
      "d": 392.7690104166686,
      "v": 94
    },
    {
      "midi": 64,
      "hit": false,
      "t": 71008.05000000002,
      "d": 427.1721354166657,
      "v": 90
    },
    {
      "midi": 64,
      "hit": false,
      "t": 71558.50000000001,
      "d": 387.03515625,
      "v": 104
    },
    {
      "midi": 60,
      "hit": false,
      "t": 71558.50000000001,
      "d": 395.6359375000029,
      "v": 104
    },
    {
      "midi": 67,
      "hit": false,
      "t": 71558.50000000001,
      "d": 395.6359375000029,
      "v": 97
    },
    {
      "midi": 50,
      "hit": false,
      "t": 71558.50000000001,
      "d": 713.8648437500087,
      "v": 86
    },
    {
      "midi": 63,
      "hit": false,
      "t": 72108.95000000001,
      "d": 378.4343750000262,
      "v": 96
    },
    {
      "midi": 57,
      "hit": false,
      "t": 72108.95000000001,
      "d": 401.36979166668607,
      "v": 85
    },
    {
      "midi": 66,
      "hit": false,
      "t": 72108.95000000001,
      "d": 401.36979166668607,
      "v": 89
    },
    {
      "midi": 43,
      "hit": false,
      "t": 72384.17500000003,
      "d": 2153.0622395833634,
      "v": 68
    },
    {
      "midi": 58,
      "hit": false,
      "t": 72659.40000000004,
      "d": 1009.1583333333401,
      "v": 90
    },
    {
      "midi": 62,
      "hit": false,
      "t": 72659.40000000004,
      "d": 1857.7687500000175,
      "v": 90
    },
    {
      "midi": 65,
      "hit": false,
      "t": 72659.40000000004,
      "d": 1869.2364583333547,
      "v": 90
    },
    {
      "midi": 58,
      "hit": false,
      "t": 73760.30000000005,
      "d": 169.1486979166657,
      "v": 61
    },
    {
      "midi": 58,
      "hit": false,
      "t": 74035.52500000005,
      "d": 197.81796874999418,
      "v": 69
    },
    {
      "midi": 58,
      "hit": false,
      "t": 74310.75000000004,
      "d": 103.20937500000582,
      "v": 72
    },
    {
      "midi": 57,
      "hit": false,
      "t": 74585.97500000006,
      "d": 1462.1328125,
      "v": 88
    },
    {
      "midi": 60,
      "hit": false,
      "t": 74585.97500000006,
      "d": 1464.9997395833343,
      "v": 101
    },
    {
      "midi": 65,
      "hit": false,
      "t": 74585.97500000006,
      "d": 1482.2013020833401,
      "v": 97
    },
    {
      "midi": 45,
      "hit": false,
      "t": 74585.97500000006,
      "d": 1568.2091145833401,
      "v": 86
    },
    {
      "midi": 60,
      "hit": false,
      "t": 76237.32500000007,
      "d": 344.03125,
      "v": 110
    },
    {
      "midi": 65,
      "hit": false,
      "t": 76237.32500000007,
      "d": 355.4989583333372,
      "v": 107
    },
    {
      "midi": 69,
      "hit": false,
      "t": 76237.32500000007,
      "d": 378.4343749999971,
      "v": 101
    },
    {
      "midi": 46,
      "hit": false,
      "t": 76237.32500000007,
      "d": 455.8414062499942,
      "v": 92
    },
    {
      "midi": 74,
      "hit": false,
      "t": 76787.77500000007,
      "d": 418.5713541666628,
      "v": 104
    },
    {
      "midi": 65,
      "hit": false,
      "t": 76787.77500000007,
      "d": 427.1721354166657,
      "v": 99
    },
    {
      "midi": 69,
      "hit": false,
      "t": 76787.77500000007,
      "d": 430.0390625,
      "v": 113
    },
    {
      "midi": 48,
      "hit": false,
      "t": 76787.77500000007,
      "d": 452.9744791666599,
      "v": 79
    },
    {
      "midi": 64,
      "hit": false,
      "t": 77338.22500000006,
      "d": 77.40703124999709,
      "v": 97
    },
    {
      "midi": 67,
      "hit": false,
      "t": 77338.22500000006,
      "d": 100.34244791665697,
      "v": 104
    },
    {
      "midi": 72,
      "hit": false,
      "t": 77338.22500000006,
      "d": 108.94322916665988,
      "v": 99
    },
    {
      "midi": 48,
      "hit": false,
      "t": 77338.22500000006,
      "d": 111.81015624999418,
      "v": 83
    },
    {
      "midi": 72,
      "hit": false,
      "t": 77613.45000000006,
      "d": 854.3442708333314,
      "v": 104
    },
    {
      "midi": 64,
      "hit": false,
      "t": 77613.45000000006,
      "d": 871.5458333333372,
      "v": 104
    },
    {
      "midi": 67,
      "hit": false,
      "t": 77613.45000000006,
      "d": 871.5458333333372,
      "v": 113
    },
    {
      "midi": 48,
      "hit": false,
      "t": 77613.45000000006,
      "d": 1287.2502604166657,
      "v": 88
    },
    {
      "midi": 57,
      "hit": false,
      "t": 78989.57500000006,
      "d": 338.2973958333314,
      "v": 99
    },
    {
      "midi": 61,
      "hit": false,
      "t": 78989.57500000006,
      "d": 344.03125,
      "v": 109
    },
    {
      "midi": 66,
      "hit": false,
      "t": 78989.57500000006,
      "d": 358.3658854166715,
      "v": 104
    },
    {
      "midi": 47,
      "hit": false,
      "t": 78989.57500000006,
      "d": 2419.686458333381,
      "v": 86
    },
    {
      "midi": 59,
      "hit": false,
      "t": 79540.02500000007,
      "d": 88.8747395833343,
      "v": 107
    },
    {
      "midi": 71,
      "hit": false,
      "t": 79540.02500000007,
      "d": 108.94322916667443,
      "v": 110
    },
    {
      "midi": 59,
      "hit": false,
      "t": 79952.86250000008,
      "d": 103.20937500000582,
      "v": 107
    },
    {
      "midi": 71,
      "hit": false,
      "t": 79952.86250000008,
      "d": 126.1447916666657,
      "v": 104
    },
    {
      "midi": 59,
      "hit": false,
      "t": 80365.70000000007,
      "d": 97.47552083333721,
      "v": 117
    },
    {
      "midi": 71,
      "hit": false,
      "t": 80365.70000000007,
      "d": 114.67708333334303,
      "v": 113
    },
    {
      "midi": 59,
      "hit": false,
      "t": 80778.53750000008,
      "d": 94.60859375000291,
      "v": 110
    },
    {
      "midi": 71,
      "hit": false,
      "t": 80778.53750000008,
      "d": 106.07630208334012,
      "v": 104
    },
    {
      "midi": 59,
      "hit": false,
      "t": 81191.37500000009,
      "d": 157.68098958334303,
      "v": 110
    },
    {
      "midi": 71,
      "hit": false,
      "t": 81191.37500000009,
      "d": 160.54791666667734,
      "v": 107
    },
    {
      "midi": 52,
      "hit": false,
      "t": 81466.60000000011,
      "d": 1949.510416666686,
      "v": 90
    },
    {
      "midi": 59,
      "hit": false,
      "t": 81741.82500000011,
      "d": 94.60859375000291,
      "v": 86
    },
    {
      "midi": 67,
      "hit": false,
      "t": 81741.82500000011,
      "d": 94.60859375000291,
      "v": 90
    },
    {
      "midi": 62,
      "hit": false,
      "t": 81741.82500000011,
      "d": 97.47552083333721,
      "v": 99
    },
    {
      "midi": 59,
      "hit": false,
      "t": 82017.05000000012,
      "d": 83.1408854166657,
      "v": 86
    },
    {
      "midi": 67,
      "hit": false,
      "t": 82017.05000000012,
      "d": 83.1408854166657,
      "v": 94
    },
    {
      "midi": 62,
      "hit": false,
      "t": 82017.05000000012,
      "d": 91.7416666666686,
      "v": 101
    },
    {
      "midi": 67,
      "hit": false,
      "t": 82292.27500000013,
      "d": 83.1408854166657,
      "v": 92
    },
    {
      "midi": 59,
      "hit": false,
      "t": 82292.27500000013,
      "d": 94.60859375000291,
      "v": 88
    },
    {
      "midi": 62,
      "hit": false,
      "t": 82292.27500000013,
      "d": 94.60859375000291,
      "v": 101
    },
    {
      "midi": 67,
      "hit": false,
      "t": 82567.50000000013,
      "d": 344.03125,
      "v": 94
    },
    {
      "midi": 59,
      "hit": false,
      "t": 82567.50000000013,
      "d": 349.7651041666686,
      "v": 88
    },
    {
      "midi": 62,
      "hit": false,
      "t": 82567.50000000013,
      "d": 355.4989583333372,
      "v": 101
    },
    {
      "midi": 57,
      "hit": false,
      "t": 82980.33750000014,
      "d": 111.81015624999418,
      "v": 90
    },
    {
      "midi": 62,
      "hit": false,
      "t": 82980.33750000014,
      "d": 120.41093749999709,
      "v": 101
    },
    {
      "midi": 66,
      "hit": false,
      "t": 82980.33750000014,
      "d": 146.21328124999127,
      "v": 100
    },
    {
      "midi": 52,
      "hit": false,
      "t": 83668.40000000013,
      "d": 1949.5104166667152,
      "v": 99
    },
    {
      "midi": 59,
      "hit": false,
      "t": 83943.62500000013,
      "d": 86.0078125,
      "v": 85
    },
    {
      "midi": 62,
      "hit": false,
      "t": 83943.62500000013,
      "d": 91.7416666666686,
      "v": 97
    },
    {
      "midi": 67,
      "hit": false,
      "t": 83943.62500000013,
      "d": 97.47552083333721,
      "v": 86
    },
    {
      "midi": 59,
      "hit": false,
      "t": 84218.85000000014,
      "d": 88.8747395833343,
      "v": 86
    },
    {
      "midi": 62,
      "hit": false,
      "t": 84218.85000000014,
      "d": 94.60859375000291,
      "v": 101
    },
    {
      "midi": 67,
      "hit": false,
      "t": 84218.85000000014,
      "d": 97.47552083333721,
      "v": 94
    },
    {
      "midi": 59,
      "hit": false,
      "t": 84494.07500000014,
      "d": 83.1408854166657,
      "v": 88
    },
    {
      "midi": 62,
      "hit": false,
      "t": 84494.07500000014,
      "d": 86.0078125,
      "v": 104
    },
    {
      "midi": 67,
      "hit": false,
      "t": 84494.07500000014,
      "d": 86.0078125,
      "v": 97
    },
    {
      "midi": 59,
      "hit": false,
      "t": 84769.30000000015,
      "d": 298.1604166666657,
      "v": 92
    },
    {
      "midi": 67,
      "hit": false,
      "t": 84769.30000000015,
      "d": 301.02734375,
      "v": 99
    },
    {
      "midi": 62,
      "hit": false,
      "t": 84769.30000000015,
      "d": 309.6281250000029,
      "v": 104
    },
    {
      "midi": 57,
      "hit": false,
      "t": 85182.13750000016,
      "d": 94.60859375000291,
      "v": 92
    },
    {
      "midi": 62,
      "hit": false,
      "t": 85182.13750000016,
      "d": 106.07630208334012,
      "v": 101
    },
    {
      "midi": 66,
      "hit": false,
      "t": 85182.13750000016,
      "d": 123.27786458334594,
      "v": 96
    },
    {
      "midi": 52,
      "hit": false,
      "t": 85870.20000000017,
      "d": 2153.0622395833634,
      "v": 94
    },
    {
      "midi": 59,
      "hit": false,
      "t": 86145.42500000018,
      "d": 80.2739583333314,
      "v": 88
    },
    {
      "midi": 62,
      "hit": false,
      "t": 86145.42500000018,
      "d": 86.0078125,
      "v": 101
    },
    {
      "midi": 67,
      "hit": false,
      "t": 86145.42500000018,
      "d": 94.60859375000291,
      "v": 101
    },
    {
      "midi": 67,
      "hit": false,
      "t": 86420.65000000018,
      "d": 80.2739583333314,
      "v": 97
    },
    {
      "midi": 59,
      "hit": false,
      "t": 86420.65000000018,
      "d": 86.0078125,
      "v": 90
    },
    {
      "midi": 62,
      "hit": false,
      "t": 86420.65000000018,
      "d": 88.8747395833343,
      "v": 99
    },
    {
      "midi": 59,
      "hit": false,
      "t": 86695.87500000019,
      "d": 86.0078125,
      "v": 85
    },
    {
      "midi": 62,
      "hit": false,
      "t": 86695.87500000019,
      "d": 88.8747395833343,
      "v": 99
    },
    {
      "midi": 67,
      "hit": false,
      "t": 86695.87500000019,
      "d": 94.60859375000291,
      "v": 92
    },
    {
      "midi": 59,
      "hit": false,
      "t": 86971.1000000002,
      "d": 295.2934895833314,
      "v": 92
    },
    {
      "midi": 67,
      "hit": false,
      "t": 86971.1000000002,
      "d": 303.8942708333343,
      "v": 99
    },
    {
      "midi": 62,
      "hit": false,
      "t": 86971.1000000002,
      "d": 318.2289062500058,
      "v": 104
    },
    {
      "midi": 57,
      "hit": false,
      "t": 87383.9375000002,
      "d": 255.1565104166657,
      "v": 94
    },
    {
      "midi": 62,
      "hit": false,
      "t": 87383.9375000002,
      "d": 292.4265624999971,
      "v": 99
    },
    {
      "midi": 66,
      "hit": false,
      "t": 87383.9375000002,
      "d": 303.8942708333343,
      "v": 92
    },
    {
      "midi": 59,
      "hit": false,
      "t": 87796.7750000002,
      "d": 117.54401041666279,
      "v": 86
    },
    {
      "midi": 62,
      "hit": false,
      "t": 87796.7750000002,
      "d": 131.8786458333343,
      "v": 88
    },
    {
      "midi": 67,
      "hit": false,
      "t": 87796.7750000002,
      "d": 134.7455729166686,
      "v": 83
    },
    {
      "midi": 67,
      "hit": false,
      "t": 88072.0000000002,
      "d": 447.2406250000058,
      "v": 113
    },
    {
      "midi": 71,
      "hit": false,
      "t": 88072.0000000002,
      "d": 452.9744791666744,
      "v": 107
    },
    {
      "midi": 64,
      "hit": false,
      "t": 88072.0000000002,
      "d": 455.84140625000873,
      "v": 104
    },
    {
      "midi": 48,
      "hit": false,
      "t": 88072.0000000002,
      "d": 513.1799479166802,
      "v": 83
    },
    {
      "midi": 69,
      "hit": false,
      "t": 88622.45000000022,
      "d": 441.5067708333372,
      "v": 101
    },
    {
      "midi": 62,
      "hit": false,
      "t": 88622.45000000022,
      "d": 450.1075520833401,
      "v": 97
    },
    {
      "midi": 66,
      "hit": false,
      "t": 88622.45000000022,
      "d": 458.70833333334303,
      "v": 104
    },
    {
      "midi": 47,
      "hit": false,
      "t": 88622.45000000022,
      "d": 507.44609375001164,
      "v": 90
    },
    {
      "midi": 60,
      "hit": false,
      "t": 89172.90000000023,
      "d": 438.6398437500029,
      "v": 94
    },
    {
      "midi": 64,
      "hit": false,
      "t": 89172.90000000023,
      "d": 455.84140625000873,
      "v": 101
    },
    {
      "midi": 67,
      "hit": false,
      "t": 89172.90000000023,
      "d": 461.57526041667734,
      "v": 99
    },
    {
      "midi": 45,
      "hit": false,
      "t": 89172.90000000023,
      "d": 524.6476562500175,
      "v": 88
    },
    {
      "midi": 47,
      "hit": false,
      "t": 89723.35000000024,
      "d": 493.1114583333401,
      "v": 88
    },
    {
      "midi": 66,
      "hit": false,
      "t": 89723.35000000024,
      "d": 518.9138020833343,
      "v": 92
    },
    {
      "midi": 69,
      "hit": false,
      "t": 89723.35000000024,
      "d": 521.7807291666686,
      "v": 90
    },
    {
      "midi": 62,
      "hit": false,
      "t": 89723.35000000024,
      "d": 530.3815104166715,
      "v": 97
    },
    {
      "midi": 52,
      "hit": false,
      "t": 90273.80000000025,
      "d": 2026.9174479166977,
      "v": 97
    },
    {
      "midi": 62,
      "hit": false,
      "t": 90549.02500000026,
      "d": 80.2739583333314,
      "v": 97
    },
    {
      "midi": 59,
      "hit": false,
      "t": 90549.02500000026,
      "d": 83.1408854166657,
      "v": 86
    },
    {
      "midi": 67,
      "hit": false,
      "t": 90549.02500000026,
      "d": 83.1408854166657,
      "v": 94
    },
    {
      "midi": 67,
      "hit": false,
      "t": 90824.25000000026,
      "d": 71.67317708332848,
      "v": 92
    },
    {
      "midi": 62,
      "hit": false,
      "t": 90824.25000000026,
      "d": 80.2739583333314,
      "v": 104
    },
    {
      "midi": 59,
      "hit": false,
      "t": 90824.25000000026,
      "d": 83.1408854166657,
      "v": 88
    },
    {
      "midi": 67,
      "hit": false,
      "t": 91099.47500000027,
      "d": 97.47552083333721,
      "v": 92
    },
    {
      "midi": 59,
      "hit": false,
      "t": 91099.47500000027,
      "d": 103.20937500000582,
      "v": 86
    },
    {
      "midi": 62,
      "hit": false,
      "t": 91099.47500000027,
      "d": 103.20937500000582,
      "v": 101
    },
    {
      "midi": 67,
      "hit": false,
      "t": 91374.70000000027,
      "d": 301.02734375,
      "v": 94
    },
    {
      "midi": 59,
      "hit": false,
      "t": 91374.70000000027,
      "d": 309.6281250000029,
      "v": 86
    },
    {
      "midi": 62,
      "hit": false,
      "t": 91374.70000000027,
      "d": 315.3619791666715,
      "v": 97
    },
    {
      "midi": 57,
      "hit": false,
      "t": 91787.53750000028,
      "d": 501.7122395833285,
      "v": 90
    },
    {
      "midi": 62,
      "hit": false,
      "t": 91787.53750000028,
      "d": 507.4460937499971,
      "v": 101
    },
    {
      "midi": 66,
      "hit": false,
      "t": 91787.53750000028,
      "d": 521.7807291666686,
      "v": 96
    },
    {
      "midi": 52,
      "hit": false,
      "t": 92475.60000000028,
      "d": 2046.9859375000378,
      "v": 97
    },
    {
      "midi": 62,
      "hit": false,
      "t": 92750.82500000029,
      "d": 88.8747395833343,
      "v": 104
    },
    {
      "midi": 59,
      "hit": false,
      "t": 92750.82500000029,
      "d": 97.47552083333721,
      "v": 88
    },
    {
      "midi": 67,
      "hit": false,
      "t": 92750.82500000029,
      "d": 97.47552083333721,
      "v": 94
    },
    {
      "midi": 67,
      "hit": false,
      "t": 93026.0500000003,
      "d": 88.8747395833343,
      "v": 90
    },
    {
      "midi": 59,
      "hit": false,
      "t": 93026.0500000003,
      "d": 91.7416666666686,
      "v": 85
    },
    {
      "midi": 62,
      "hit": false,
      "t": 93026.0500000003,
      "d": 97.47552083333721,
      "v": 97
    },
    {
      "midi": 67,
      "hit": false,
      "t": 93301.2750000003,
      "d": 94.60859375000291,
      "v": 88
    },
    {
      "midi": 62,
      "hit": false,
      "t": 93301.2750000003,
      "d": 100.34244791667152,
      "v": 97
    },
    {
      "midi": 59,
      "hit": false,
      "t": 93301.2750000003,
      "d": 108.94322916667443,
      "v": 85
    },
    {
      "midi": 67,
      "hit": false,
      "t": 93576.5000000003,
      "d": 295.2934895833314,
      "v": 94
    },
    {
      "midi": 59,
      "hit": false,
      "t": 93576.5000000003,
      "d": 301.02734375,
      "v": 85
    },
    {
      "midi": 62,
      "hit": false,
      "t": 93576.5000000003,
      "d": 315.3619791666715,
      "v": 99
    },
    {
      "midi": 57,
      "hit": false,
      "t": 93989.33750000031,
      "d": 533.2484375000058,
      "v": 94
    },
    {
      "midi": 62,
      "hit": false,
      "t": 93989.33750000031,
      "d": 538.9822916666744,
      "v": 104
    },
    {
      "midi": 66,
      "hit": false,
      "t": 93989.33750000031,
      "d": 561.9177083333343,
      "v": 96
    },
    {
      "midi": 52,
      "hit": false,
      "t": 94677.40000000031,
      "d": 937.4851562500262,
      "v": 97
    },
    {
      "midi": 59,
      "hit": false,
      "t": 94952.62500000032,
      "d": 80.2739583333314,
      "v": 90
    },
    {
      "midi": 67,
      "hit": false,
      "t": 94952.62500000032,
      "d": 80.2739583333314,
      "v": 92
    },
    {
      "midi": 62,
      "hit": false,
      "t": 94952.62500000032,
      "d": 86.0078125,
      "v": 101
    },
    {
      "midi": 59,
      "hit": false,
      "t": 95227.85000000033,
      "d": 88.8747395833343,
      "v": 80
    },
    {
      "midi": 67,
      "hit": false,
      "t": 95227.85000000033,
      "d": 88.8747395833343,
      "v": 88
    },
    {
      "midi": 62,
      "hit": false,
      "t": 95227.85000000033,
      "d": 94.60859375000291,
      "v": 97
    },
    {
      "midi": 67,
      "hit": false,
      "t": 95503.07500000033,
      "d": 100.34244791667152,
      "v": 92
    },
    {
      "midi": 62,
      "hit": false,
      "t": 95503.07500000033,
      "d": 106.07630208334012,
      "v": 99
    },
    {
      "midi": 59,
      "hit": false,
      "t": 95503.07500000033,
      "d": 108.94322916667443,
      "v": 86
    },
    {
      "midi": 59,
      "hit": false,
      "t": 95778.30000000034,
      "d": 220.7533854166686,
      "v": 92
    },
    {
      "midi": 62,
      "hit": false,
      "t": 95778.30000000034,
      "d": 235.08802083334012,
      "v": 101
    },
    {
      "midi": 67,
      "hit": false,
      "t": 95778.30000000034,
      "d": 249.42265625001164,
      "v": 97
    },
    {
      "midi": 52,
      "hit": false,
      "t": 95778.30000000034,
      "d": 289.55963541667734,
      "v": 88
    },
    {
      "midi": 50,
      "hit": false,
      "t": 96191.13750000035,
      "d": 212.1526041666657,
      "v": 104
    },
    {
      "midi": 62,
      "hit": false,
      "t": 96191.13750000035,
      "d": 217.8864583333343,
      "v": 97
    },
    {
      "midi": 66,
      "hit": false,
      "t": 96191.13750000035,
      "d": 226.4872395833372,
      "v": 104
    },
    {
      "midi": 69,
      "hit": false,
      "t": 96191.13750000035,
      "d": 226.4872395833372,
      "v": 101
    },
    {
      "midi": 71,
      "hit": false,
      "t": 96603.97500000036,
      "d": 106.07630208334012,
      "v": 90
    },
    {
      "midi": 67,
      "hit": false,
      "t": 96603.97500000036,
      "d": 114.67708333334303,
      "v": 101
    },
    {
      "midi": 64,
      "hit": false,
      "t": 96603.97500000036,
      "d": 123.27786458334594,
      "v": 90
    },
    {
      "midi": 48,
      "hit": false,
      "t": 96603.97500000036,
      "d": 134.74557291668316,
      "v": 92
    },
    {
      "midi": 67,
      "hit": false,
      "t": 96879.20000000038,
      "d": 2058.4536458333314,
      "v": 110
    },
    {
      "midi": 64,
      "hit": false,
      "t": 96879.20000000038,
      "d": 2061.3205729166657,
      "v": 97
    },
    {
      "midi": 71,
      "hit": false,
      "t": 96879.20000000038,
      "d": 2064.1875,
      "v": 99
    },
    {
      "midi": 48,
      "hit": false,
      "t": 96879.20000000038,
      "d": 2095.723697916663,
      "v": 101
    },
    {
      "midi": 88,
      "hit": false,
      "t": 98914.71822916667,
      "d": 2892.729427083337,
      "v": 89
    },
    {
      "midi": 86,
      "hit": false,
      "t": 98977.79062500001,
      "d": 2815.3223958333256,
      "v": 89
    },
    {
      "midi": 83,
      "hit": false,
      "t": 99017.92760416667,
      "d": 2775.18541666666,
      "v": 89
    },
    {
      "midi": 79,
      "hit": false,
      "t": 99052.33072916667,
      "d": 2746.5161458333314,
      "v": 89
    },
    {
      "midi": 78,
      "hit": false,
      "t": 99081,
      "d": 2677.709895833337,
      "v": 89
    },
    {
      "midi": 52,
      "hit": false,
      "t": 99081,
      "d": 3397.30859375,
      "v": 80
    },
    {
      "midi": 74,
      "hit": false,
      "t": 99081.00000000038,
      "d": 2499.9604166666686,
      "v": 70
    },
    {
      "midi": 67,
      "hit": false,
      "t": 99081.00000000038,
      "d": 3646.7312500000116,
      "v": 70
    },
    {
      "midi": 71,
      "hit": false,
      "t": 99081.00000000038,
      "d": 3646.7312500000116,
      "v": 85
    },
    {
      "midi": 76,
      "hit": false,
      "t": 99081.00000000038,
      "d": 3655.3320312500146,
      "v": 67
    },
    {
      "midi": 52,
      "hit": false,
      "t": 99081.00000000038,
      "d": 3678.2674479166744,
      "v": 73
    },
    {
      "midi": 78,
      "hit": false,
      "t": 101282.80000000038,
      "d": 401.3697916666715,
      "v": 101
    },
    {
      "midi": 66,
      "hit": false,
      "t": 101282.80000000038,
      "d": 427.17213541668025,
      "v": 101
    },
    {
      "midi": 62,
      "hit": false,
      "t": 101695.63750000039,
      "d": 421.43828125001164,
      "v": 101
    },
    {
      "midi": 74,
      "hit": false,
      "t": 101695.63750000039,
      "d": 487.3776041666715,
      "v": 101
    },
    {
      "midi": 69,
      "hit": false,
      "t": 102108.4750000004,
      "d": 504.5791666666628,
      "v": 101
    },
    {
      "midi": 57,
      "hit": false,
      "t": 102108.4750000004,
      "d": 530.381510416657,
      "v": 101
    },
    {
      "midi": 54,
      "hit": false,
      "t": 102658.9250000004,
      "d": 521.780729166654,
      "v": 101
    },
    {
      "midi": 66,
      "hit": false,
      "t": 102658.9250000004,
      "d": 544.7161458333139,
      "v": 101
    },
    {
      "midi": 62,
      "hit": false,
      "t": 102934.15,
      "d": 553.3169270833314,
      "v": 79
    },
    {
      "midi": 57,
      "hit": false,
      "t": 102934.15,
      "d": 559.05078125,
      "v": 76
    },
    {
      "midi": 54,
      "hit": false,
      "t": 102934.15,
      "d": 564.7846354166686,
      "v": 53
    },
    {
      "midi": 67,
      "hit": false,
      "t": 103209.37500000038,
      "d": 352.6320312500029,
      "v": 101
    },
    {
      "midi": 55,
      "hit": false,
      "t": 103484.60000000038,
      "d": 94.60859375000291,
      "v": 57
    },
    {
      "midi": 59,
      "hit": false,
      "t": 103484.60000000038,
      "d": 3162.2205729166744,
      "v": 62
    },
    {
      "midi": 64,
      "hit": false,
      "t": 103484.60000000038,
      "d": 3494.784114583337,
      "v": 83
    },
    {
      "midi": 52,
      "hit": false,
      "t": 103524.73697916666,
      "d": 3397.30859375,
      "v": 80
    },
    {
      "midi": 59,
      "hit": false,
      "t": 107337.74999999999,
      "d": 275.2250000000058,
      "v": 69
    },
    {
      "midi": 62,
      "hit": false,
      "t": 107337.74999999999,
      "d": 275.2250000000058,
      "v": 69
    },
    {
      "midi": 64,
      "hit": false,
      "t": 107337.74999999999,
      "d": 275.2250000000058,
      "v": 69
    },
    {
      "midi": 67,
      "hit": false,
      "t": 107337.74999999999,
      "d": 275.2250000000058,
      "v": 69
    },
    {
      "midi": 52,
      "hit": false,
      "t": 107337.74999999999,
      "d": 3506.251822916689,
      "v": 69
    },
    {
      "midi": 64,
      "hit": false,
      "t": 107612.97499999999,
      "d": 1826.2325520833401,
      "v": 69
    },
    {
      "midi": 57,
      "hit": false,
      "t": 107612.97499999999,
      "d": 1874.9703125000087,
      "v": 69
    },
    {
      "midi": 62,
      "hit": false,
      "t": 107612.97499999999,
      "d": 1880.7041666666773,
      "v": 69
    },
    {
      "midi": 66,
      "hit": false,
      "t": 107612.97499999999,
      "d": 1880.7041666666773,
      "v": 69
    },
    {
      "midi": 81,
      "hit": false,
      "t": 108713.87500000038,
      "d": 1298.717968750003,
      "v": 97
    },
    {
      "midi": 74,
      "hit": false,
      "t": 108851.48750000038,
      "d": 1212.710156250003,
      "v": 76
    },
    {
      "midi": 69,
      "hit": false,
      "t": 108989.10000000038,
      "d": 1075.09765625,
      "v": 57
    },
    {
      "midi": 57,
      "hit": false,
      "t": 109539.55,
      "d": 275.2250000000058,
      "v": 67
    },
    {
      "midi": 62,
      "hit": false,
      "t": 109539.55,
      "d": 275.2250000000058,
      "v": 67
    },
    {
      "midi": 66,
      "hit": false,
      "t": 109539.55,
      "d": 275.2250000000058,
      "v": 67
    },
    {
      "midi": 55,
      "hit": false,
      "t": 109814.77500000001,
      "d": 1926.574999999997,
      "v": 67
    },
    {
      "midi": 60,
      "hit": false,
      "t": 109814.77500000001,
      "d": 1926.574999999997,
      "v": 67
    },
    {
      "midi": 64,
      "hit": false,
      "t": 109814.77500000001,
      "d": 1926.574999999997,
      "v": 67
    },
    {
      "midi": 67,
      "hit": false,
      "t": 111741.35,
      "d": 418.5713541666628,
      "v": 81
    },
    {
      "midi": 76,
      "hit": false,
      "t": 111741.35,
      "d": 430.0390625,
      "v": 81
    },
    {
      "midi": 76,
      "hit": false,
      "t": 111741.35000000038,
      "d": 415.7044270833285,
      "v": 90
    },
    {
      "midi": 67,
      "hit": false,
      "t": 111741.35000000038,
      "d": 455.8414062499942,
      "v": 90
    },
    {
      "midi": 52,
      "hit": false,
      "t": 112291.8,
      "d": 3715.537500000006,
      "v": 74
    },
    {
      "midi": 66,
      "hit": false,
      "t": 112291.8,
      "d": 3752.807552083337,
      "v": 74
    },
    {
      "midi": 66,
      "hit": false,
      "t": 112291.80000000038,
      "d": 2187.4653645833314,
      "v": 86
    },
    {
      "midi": 67,
      "hit": false,
      "t": 112291.80000000038,
      "d": 2201.800000000003,
      "v": 73
    },
    {
      "midi": 71,
      "hit": false,
      "t": 112291.80000000038,
      "d": 2227.602343749997,
      "v": 80
    },
    {
      "midi": 67,
      "hit": false,
      "t": 112303.26770833334,
      "d": 3764.2752604166744,
      "v": 74
    },
    {
      "midi": 71,
      "hit": false,
      "t": 112309.00156250001,
      "d": 3752.807552083337,
      "v": 74
    },
    {
      "midi": 76,
      "hit": false,
      "t": 114321.58437500038,
      "d": 1857.768750000003,
      "v": 50
    },
    {
      "midi": 79,
      "hit": false,
      "t": 114390.39062500038,
      "d": 1697.2208333333401,
      "v": 62
    },
    {
      "midi": 83,
      "hit": false,
      "t": 114487.86614583372,
      "d": 1628.4145833333314,
      "v": 57
    },
    {
      "midi": 52,
      "hit": false,
      "t": 116144.95000000001,
      "d": 2064.1875000000146,
      "v": 32
    },
    {
      "midi": 71,
      "hit": false,
      "t": 116153.55078125001,
      "d": 266.6242187500029,
      "v": 80
    },
    {
      "midi": 62,
      "hit": false,
      "t": 116159.28463541668,
      "d": 260.8903645833343,
      "v": 80
    },
    {
      "midi": 67,
      "hit": false,
      "t": 116159.28463541668,
      "d": 260.8903645833343,
      "v": 83
    },
    {
      "midi": 62,
      "hit": false,
      "t": 116423.04192708335,
      "d": 1786.0955729166744,
      "v": 67
    },
    {
      "midi": 66,
      "hit": false,
      "t": 116428.77578125002,
      "d": 1780.3617187500058,
      "v": 71
    },
    {
      "midi": 69,
      "hit": false,
      "t": 116428.77578125002,
      "d": 1780.3617187500058,
      "v": 64
    },
    {
      "midi": 66,
      "hit": false,
      "t": 117796.30000000038,
      "d": 814.2072916666657,
      "v": 49
    },
    {
      "midi": 74,
      "hit": false,
      "t": 117796.30000000038,
      "d": 828.5419270833372,
      "v": 62
    },
    {
      "midi": 69,
      "hit": false,
      "t": 117796.30000000038,
      "d": 834.2757812500058,
      "v": 68
    },
    {
      "midi": 62,
      "hit": false,
      "t": 118346.75000000003,
      "d": 275.2250000000058,
      "v": 69
    },
    {
      "midi": 66,
      "hit": false,
      "t": 118346.75000000003,
      "d": 275.2250000000058,
      "v": 77
    },
    {
      "midi": 69,
      "hit": false,
      "t": 118346.75000000003,
      "d": 275.2250000000058,
      "v": 71
    },
    {
      "midi": 64,
      "hit": false,
      "t": 118621.97500000003,
      "d": 1244.2463541666657,
      "v": 62
    },
    {
      "midi": 60,
      "hit": false,
      "t": 118621.97500000003,
      "d": 1247.11328125,
      "v": 62
    },
    {
      "midi": 67,
      "hit": false,
      "t": 118621.97500000003,
      "d": 1278.6494791666628,
      "v": 63
    },
    {
      "midi": 72,
      "hit": false,
      "t": 118621.97500000038,
      "d": 1186.9078125000087,
      "v": 65
    },
    {
      "midi": 67,
      "hit": false,
      "t": 118621.97500000038,
      "d": 1192.6416666666773,
      "v": 60
    },
    {
      "midi": 59,
      "hit": false,
      "t": 119998.10000000003,
      "d": 452.9744791666599,
      "v": 78
    },
    {
      "midi": 62,
      "hit": false,
      "t": 119998.10000000003,
      "d": 464.4421874999971,
      "v": 78
    },
    {
      "midi": 67,
      "hit": false,
      "t": 119998.10000000003,
      "d": 473.04296875,
      "v": 78
    },
    {
      "midi": 59,
      "hit": false,
      "t": 119998.1000000004,
      "d": 450.1075520833401,
      "v": 79
    },
    {
      "midi": 62,
      "hit": false,
      "t": 119998.1000000004,
      "d": 510.31302083334594,
      "v": 97
    },
    {
      "midi": 67,
      "hit": false,
      "t": 119998.1000000004,
      "d": 977.6221354166773,
      "v": 85
    },
    {
      "midi": 55,
      "hit": false,
      "t": 120548.55000000003,
      "d": 427.1721354166657,
      "v": 78
    },
    {
      "midi": 60,
      "hit": false,
      "t": 120548.55000000003,
      "d": 430.0390625,
      "v": 78
    },
    {
      "midi": 64,
      "hit": false,
      "t": 120548.55000000003,
      "d": 432.9059895833343,
      "v": 78
    },
    {
      "midi": 64,
      "hit": false,
      "t": 120548.55000000041,
      "d": 430.0390625,
      "v": 94
    },
    {
      "midi": 60,
      "hit": false,
      "t": 120961.3875000004,
      "d": 14.334635416671517,
      "v": 65
    },
    {
      "midi": 57,
      "hit": false,
      "t": 120961.3875000004,
      "d": 1198.3755208333314,
      "v": 56
    },
    {
      "midi": 50,
      "hit": false,
      "t": 120961.3875000004,
      "d": 2307.876302083343,
      "v": 68
    },
    {
      "midi": 62,
      "hit": false,
      "t": 121099.00000000003,
      "d": 1321.6533854166773,
      "v": 69
    },
    {
      "midi": 65,
      "hit": false,
      "t": 121099.00000000003,
      "d": 1327.387239583346,
      "v": 69
    },
    {
      "midi": 60,
      "hit": false,
      "t": 121099.00000000003,
      "d": 1330.2541666666802,
      "v": 67
    },
    {
      "midi": 57,
      "hit": false,
      "t": 121099.00000000003,
      "d": 1344.5888020833518,
      "v": 64
    },
    {
      "midi": 50,
      "hit": false,
      "t": 121099.00000000003,
      "d": 2955.8018229167064,
      "v": 90
    },
    {
      "midi": 65,
      "hit": false,
      "t": 121099.00000000041,
      "d": 1026.3598958333314,
      "v": 73
    },
    {
      "midi": 62,
      "hit": false,
      "t": 121099.00000000041,
      "d": 1063.6299479166628,
      "v": 64
    },
    {
      "midi": 53,
      "hit": false,
      "t": 122750.35000000005,
      "d": 1077.9645833333343,
      "v": 52
    },
    {
      "midi": 57,
      "hit": false,
      "t": 122750.35000000005,
      "d": 1092.2992187500058,
      "v": 56
    },
    {
      "midi": 60,
      "hit": false,
      "t": 122750.35000000005,
      "d": 1112.367708333346,
      "v": 60
    },
    {
      "midi": 53,
      "hit": false,
      "t": 122750.3500000004,
      "d": 315.3619791666715,
      "v": 53
    },
    {
      "midi": 57,
      "hit": false,
      "t": 122750.3500000004,
      "d": 329.69661458334303,
      "v": 51
    },
    {
      "midi": 60,
      "hit": false,
      "t": 122750.3500000004,
      "d": 338.29739583334594,
      "v": 58
    },
    {
      "midi": 65,
      "hit": false,
      "t": 124401.70000000007,
      "d": 473.04296875,
      "v": 75
    },
    {
      "midi": 62,
      "hit": false,
      "t": 124401.70000000007,
      "d": 602.0546875,
      "v": 69
    },
    {
      "midi": 56,
      "hit": false,
      "t": 124401.70000000007,
      "d": 656.5263020833372,
      "v": 66
    },
    {
      "midi": 59,
      "hit": false,
      "t": 124401.70000000007,
      "d": 659.3932291666715,
      "v": 70
    },
    {
      "midi": 44,
      "hit": false,
      "t": 124401.70000000007,
      "d": 814.2072916666657,
      "v": 54
    },
    {
      "midi": 65,
      "hit": false,
      "t": 124401.70000000042,
      "d": 504.5791666666628,
      "v": 60
    },
    {
      "midi": 62,
      "hit": false,
      "t": 124401.70000000042,
      "d": 602.0546875,
      "v": 66
    },
    {
      "midi": 56,
      "hit": false,
      "t": 124401.70000000042,
      "d": 656.5263020833372,
      "v": 52
    },
    {
      "midi": 59,
      "hit": false,
      "t": 124401.70000000042,
      "d": 670.8609375000087,
      "v": 68
    },
    {
      "midi": 44,
      "hit": false,
      "t": 124401.70000000042,
      "d": 713.8648437500087,
      "v": 44
    },
    {
      "midi": 64,
      "hit": false,
      "t": 124952.15000000007,
      "d": 137.6125000000029,
      "v": 81
    },
    {
      "midi": 64,
      "hit": false,
      "t": 124952.15000000042,
      "d": 106.07630208334012,
      "v": 62
    },
    {
      "midi": 52,
      "hit": false,
      "t": 125227.37500000007,
      "d": 991.9567708333343,
      "v": 75
    },
    {
      "midi": 62,
      "hit": false,
      "t": 125227.37500000007,
      "d": 1000.5575520833372,
      "v": 80
    },
    {
      "midi": 59,
      "hit": false,
      "t": 125227.37500000007,
      "d": 1009.1583333333401,
      "v": 83
    },
    {
      "midi": 56,
      "hit": false,
      "t": 125227.37500000007,
      "d": 1049.2953125000058,
      "v": 63
    },
    {
      "midi": 45,
      "hit": false,
      "t": 125227.37500000007,
      "d": 4380.6645833333605,
      "v": 60
    },
    {
      "midi": 56,
      "hit": false,
      "t": 125227.37500000042,
      "d": 1009.1583333333401,
      "v": 54
    },
    {
      "midi": 59,
      "hit": false,
      "t": 125227.37500000042,
      "d": 1017.759114583343,
      "v": 61
    },
    {
      "midi": 62,
      "hit": false,
      "t": 125227.37500000042,
      "d": 1023.4929687500116,
      "v": 66
    },
    {
      "midi": 45,
      "hit": false,
      "t": 125227.37500000042,
      "d": 4435.136197916698,
      "v": 58
    },
    {
      "midi": 60,
      "hit": false,
      "t": 126328.27500000008,
      "d": 980.4890624999971,
      "v": 74
    },
    {
      "midi": 57,
      "hit": false,
      "t": 126328.27500000008,
      "d": 1003.424479166657,
      "v": 83
    },
    {
      "midi": 52,
      "hit": false,
      "t": 126328.27500000008,
      "d": 1006.2914062499913,
      "v": 63
    },
    {
      "midi": 57,
      "hit": false,
      "t": 126328.27500000043,
      "d": 1006.2914062500058,
      "v": 55
    },
    {
      "midi": 60,
      "hit": false,
      "t": 126328.27500000043,
      "d": 1020.6260416666773,
      "v": 54
    },
    {
      "midi": 62,
      "hit": false,
      "t": 127429.17500000008,
      "d": 467.3091145833314,
      "v": 66
    },
    {
      "midi": 52,
      "hit": false,
      "t": 127429.17500000008,
      "d": 470.1760416666657,
      "v": 69
    },
    {
      "midi": 59,
      "hit": false,
      "t": 127429.17500000008,
      "d": 478.7768229166686,
      "v": 73
    },
    {
      "midi": 56,
      "hit": false,
      "t": 127429.17500000008,
      "d": 487.3776041666715,
      "v": 63
    },
    {
      "midi": 62,
      "hit": false,
      "t": 127429.17500000044,
      "d": 447.2406250000058,
      "v": 65
    },
    {
      "midi": 59,
      "hit": false,
      "t": 127429.17500000044,
      "d": 458.70833333334303,
      "v": 66
    },
    {
      "midi": 56,
      "hit": false,
      "t": 127429.17500000044,
      "d": 470.17604166668025,
      "v": 53
    },
    {
      "midi": 57,
      "hit": false,
      "t": 127979.62500000009,
      "d": 409.9705729166599,
      "v": 74
    },
    {
      "midi": 52,
      "hit": false,
      "t": 127979.62500000009,
      "d": 421.4382812499971,
      "v": 65
    },
    {
      "midi": 60,
      "hit": false,
      "t": 127979.62500000009,
      "d": 427.1721354166657,
      "v": 71
    },
    {
      "midi": 57,
      "hit": false,
      "t": 127979.62500000045,
      "d": 346.8981770833343,
      "v": 59
    },
    {
      "midi": 60,
      "hit": false,
      "t": 127979.62500000045,
      "d": 361.2328125000058,
      "v": 67
    },
    {
      "midi": 56,
      "hit": false,
      "t": 128530.07500000008,
      "d": 240.82187499999418,
      "v": 59
    },
    {
      "midi": 52,
      "hit": false,
      "t": 128530.07500000008,
      "d": 249.4226562499971,
      "v": 64
    },
    {
      "midi": 59,
      "hit": false,
      "t": 128530.07500000008,
      "d": 263.7572916666686,
      "v": 69
    },
    {
      "midi": 62,
      "hit": false,
      "t": 128530.07500000008,
      "d": 289.5596354166628,
      "v": 71
    },
    {
      "midi": 56,
      "hit": false,
      "t": 128530.07500000046,
      "d": 452.9744791666599,
      "v": 51
    },
    {
      "midi": 62,
      "hit": false,
      "t": 128530.07500000046,
      "d": 470.1760416666657,
      "v": 60
    },
    {
      "midi": 59,
      "hit": false,
      "t": 128530.07500000046,
      "d": 478.7768229166686,
      "v": 68
    },
    {
      "midi": 57,
      "hit": false,
      "t": 129080.52500000008,
      "d": 481.6437500000029,
      "v": 83
    },
    {
      "midi": 64,
      "hit": false,
      "t": 129080.52500000008,
      "d": 498.84531250000873,
      "v": 69
    },
    {
      "midi": 60,
      "hit": false,
      "t": 129080.52500000008,
      "d": 521.7807291666832,
      "v": 78
    },
    {
      "midi": 60,
      "hit": false,
      "t": 129080.52500000046,
      "d": 409.9705729166599,
      "v": 72
    },
    {
      "midi": 57,
      "hit": false,
      "t": 129080.52500000046,
      "d": 418.5713541666628,
      "v": 66
    },
    {
      "midi": 64,
      "hit": false,
      "t": 129080.52500000046,
      "d": 438.6398437500029,
      "v": 76
    },
    {
      "midi": 58,
      "hit": false,
      "t": 129630.9750000001,
      "d": 819.9411458333343,
      "v": 68
    },
    {
      "midi": 62,
      "hit": false,
      "t": 129630.9750000001,
      "d": 1717.2893229166802,
      "v": 92
    },
    {
      "midi": 65,
      "hit": false,
      "t": 129630.9750000001,
      "d": 1823.3656250000058,
      "v": 88
    },
    {
      "midi": 46,
      "hit": false,
      "t": 129630.9750000001,
      "d": 2144.4614583333314,
      "v": 81
    },
    {
      "midi": 58,
      "hit": false,
      "t": 129630.97500000046,
      "d": 1241.3794270833314,
      "v": 37
    },
    {
      "midi": 65,
      "hit": false,
      "t": 129630.97500000046,
      "d": 1734.4908854166715,
      "v": 53
    },
    {
      "midi": 62,
      "hit": false,
      "t": 129630.97500000046,
      "d": 1745.9585937500087,
      "v": 62
    },
    {
      "midi": 46,
      "hit": false,
      "t": 129630.97500000046,
      "d": 2098.590625000026,
      "v": 63
    },
    {
      "midi": 58,
      "hit": false,
      "t": 130731.87500000009,
      "d": 501.71223958334303,
      "v": 31
    },
    {
      "midi": 58,
      "hit": false,
      "t": 131282.3250000001,
      "d": 206.41875000001164,
      "v": 21
    },
    {
      "midi": 58,
      "hit": false,
      "t": 131282.32500000045,
      "d": 215.0195312500291,
      "v": 43
    },
    {
      "midi": 62,
      "hit": false,
      "t": 131557.5500000001,
      "d": 74.54010416666279,
      "v": 66
    },
    {
      "midi": 58,
      "hit": false,
      "t": 131557.5500000001,
      "d": 77.40703124998254,
      "v": 47
    },
    {
      "midi": 65,
      "hit": false,
      "t": 131557.5500000001,
      "d": 88.87473958331975,
      "v": 60
    },
    {
      "midi": 62,
      "hit": false,
      "t": 131557.55000000048,
      "d": 51.60468749998836,
      "v": 63
    },
    {
      "midi": 65,
      "hit": false,
      "t": 131557.55000000048,
      "d": 91.7416666666686,
      "v": 60
    },
    {
      "midi": 60,
      "hit": false,
      "t": 131832.77500000008,
      "d": 1206.9763020833489,
      "v": 80
    },
    {
      "midi": 69,
      "hit": false,
      "t": 131832.77500000008,
      "d": 1255.7140625000175,
      "v": 80
    },
    {
      "midi": 65,
      "hit": false,
      "t": 131832.77500000008,
      "d": 1261.447916666686,
      "v": 90
    },
    {
      "midi": 51,
      "hit": false,
      "t": 131832.77500000008,
      "d": 1376.125000000029,
      "v": 71
    },
    {
      "midi": 69,
      "hit": false,
      "t": 131832.7750000005,
      "d": 1244.2463541666802,
      "v": 68
    },
    {
      "midi": 65,
      "hit": false,
      "t": 131832.7750000005,
      "d": 1252.8471354166686,
      "v": 68
    },
    {
      "midi": 60,
      "hit": false,
      "t": 131832.7750000005,
      "d": 1258.5809895833372,
      "v": 62
    },
    {
      "midi": 51,
      "hit": false,
      "t": 131832.7750000005,
      "d": 1330.2541666666802,
      "v": 64
    },
    {
      "midi": 64,
      "hit": false,
      "t": 133208.9000000001,
      "d": 358.36588541665697,
      "v": 86
    },
    {
      "midi": 67,
      "hit": false,
      "t": 133208.9000000001,
      "d": 364.0997395833256,
      "v": 75
    },
    {
      "midi": 60,
      "hit": false,
      "t": 133208.9000000001,
      "d": 369.8335937499942,
      "v": 85
    },
    {
      "midi": 50,
      "hit": false,
      "t": 133208.9000000001,
      "d": 756.8687499999651,
      "v": 90
    },
    {
      "midi": 64,
      "hit": false,
      "t": 133208.9000000005,
      "d": 389.90208333331975,
      "v": 70
    },
    {
      "midi": 60,
      "hit": false,
      "t": 133208.9000000005,
      "d": 401.36979166665697,
      "v": 71
    },
    {
      "midi": 67,
      "hit": false,
      "t": 133208.9000000005,
      "d": 407.1036458333256,
      "v": 66
    },
    {
      "midi": 72,
      "hit": false,
      "t": 133389.51640625048,
      "d": 97.47552083333721,
      "v": 127
    },
    {
      "midi": 57,
      "hit": false,
      "t": 133759.3500000001,
      "d": 137.61249999998836,
      "v": 86
    },
    {
      "midi": 63,
      "hit": false,
      "t": 133759.3500000001,
      "d": 137.61249999998836,
      "v": 86
    },
    {
      "midi": 66,
      "hit": false,
      "t": 133759.3500000001,
      "d": 143.34635416665697,
      "v": 89
    },
    {
      "midi": 57,
      "hit": false,
      "t": 133759.35000000047,
      "d": 100.34244791665697,
      "v": 61
    },
    {
      "midi": 63,
      "hit": false,
      "t": 133759.35000000047,
      "d": 103.20937499997672,
      "v": 71
    },
    {
      "midi": 66,
      "hit": false,
      "t": 133759.35000000047,
      "d": 114.67708333331393,
      "v": 84
    },
    {
      "midi": 72,
      "hit": false,
      "t": 133808.08776041714,
      "d": 111.81015624996508,
      "v": 127
    },
    {
      "midi": 58,
      "hit": false,
      "t": 134034.57500000007,
      "d": 688.0625,
      "v": 76
    },
    {
      "midi": 62,
      "hit": false,
      "t": 134034.57500000007,
      "d": 688.0625,
      "v": 80
    },
    {
      "midi": 65,
      "hit": false,
      "t": 134034.57500000007,
      "d": 688.0625,
      "v": 78
    },
    {
      "midi": 62,
      "hit": false,
      "t": 134034.57500000045,
      "d": 791.2718750000058,
      "v": 110
    },
    {
      "midi": 58,
      "hit": false,
      "t": 134034.57500000045,
      "d": 814.2072916666802,
      "v": 110
    },
    {
      "midi": 65,
      "hit": false,
      "t": 134034.57500000045,
      "d": 814.2072916666802,
      "v": 110
    },
    {
      "midi": 43,
      "hit": false,
      "t": 134034.57500000045,
      "d": 848.6104166666919,
      "v": 107
    },
    {
      "midi": 67,
      "hit": false,
      "t": 134860.25000000047,
      "d": 226.4872395833372,
      "v": 99
    },
    {
      "midi": 55,
      "hit": false,
      "t": 134860.25000000047,
      "d": 246.5557291666628,
      "v": 90
    },
    {
      "midi": 65,
      "hit": false,
      "t": 135135.47500000047,
      "d": 131.87864583331975,
      "v": 80
    },
    {
      "midi": 53,
      "hit": false,
      "t": 135135.47500000047,
      "d": 146.21328124997672,
      "v": 79
    },
    {
      "midi": 55,
      "hit": false,
      "t": 135273.08750000046,
      "d": 894.4812499999534,
      "v": 92
    },
    {
      "midi": 67,
      "hit": false,
      "t": 135273.08750000046,
      "d": 905.9489583332906,
      "v": 94
    },
    {
      "midi": 62,
      "hit": false,
      "t": 135410.70000000045,
      "d": 716.7317708333139,
      "v": 88
    },
    {
      "midi": 58,
      "hit": false,
      "t": 135410.70000000045,
      "d": 728.1994791666511,
      "v": 92
    },
    {
      "midi": 65,
      "hit": false,
      "t": 135410.70000000045,
      "d": 731.0664062499709,
      "v": 83
    },
    {
      "midi": 43,
      "hit": false,
      "t": 135410.70000000045,
      "d": 808.4734374999825,
      "v": 90
    },
    {
      "midi": 57,
      "hit": false,
      "t": 136236.37500000044,
      "d": 1485.0682291666744,
      "v": 97
    },
    {
      "midi": 65,
      "hit": false,
      "t": 136236.37500000044,
      "d": 1508.0036458333489,
      "v": 92
    },
    {
      "midi": 60,
      "hit": false,
      "t": 136236.37500000044,
      "d": 1519.471354166686,
      "v": 107
    },
    {
      "midi": 45,
      "hit": false,
      "t": 136236.37500000044,
      "d": 1571.0760416666744,
      "v": 85
    },
    {
      "midi": 58,
      "hit": false,
      "t": 137887.72500000044,
      "d": 418.5713541666628,
      "v": 81
    },
    {
      "midi": 62,
      "hit": false,
      "t": 137887.72500000044,
      "d": 430.0390625,
      "v": 99
    },
    {
      "midi": 65,
      "hit": false,
      "t": 137887.72500000044,
      "d": 430.0390625,
      "v": 86
    },
    {
      "midi": 46,
      "hit": false,
      "t": 137887.72500000044,
      "d": 493.1114583333256,
      "v": 89
    },
    {
      "midi": 57,
      "hit": false,
      "t": 138438.17500000042,
      "d": 412.8374999999942,
      "v": 97
    },
    {
      "midi": 60,
      "hit": false,
      "t": 138438.17500000042,
      "d": 412.8374999999942,
      "v": 107
    },
    {
      "midi": 65,
      "hit": false,
      "t": 138438.17500000042,
      "d": 412.8374999999942,
      "v": 90
    },
    {
      "midi": 48,
      "hit": false,
      "t": 138438.17500000042,
      "d": 430.0390625,
      "v": 82
    },
    {
      "midi": 55,
      "hit": false,
      "t": 138988.62500000044,
      "d": 91.7416666666686,
      "v": 76
    },
    {
      "midi": 64,
      "hit": false,
      "t": 138988.62500000044,
      "d": 91.7416666666686,
      "v": 75
    },
    {
      "midi": 60,
      "hit": false,
      "t": 138988.62500000044,
      "d": 94.60859374998836,
      "v": 82
    },
    {
      "midi": 48,
      "hit": false,
      "t": 138988.62500000044,
      "d": 97.47552083330811,
      "v": 73
    },
    {
      "midi": 55,
      "hit": false,
      "t": 139263.8500000004,
      "d": 117.54401041666279,
      "v": 83
    },
    {
      "midi": 60,
      "hit": false,
      "t": 139263.8500000004,
      "d": 134.7455729166686,
      "v": 90
    },
    {
      "midi": 64,
      "hit": false,
      "t": 139263.8500000004,
      "d": 140.4794270833372,
      "v": 82
    },
    {
      "midi": 48,
      "hit": false,
      "t": 139263.8500000004,
      "d": 2680.5768229165697,
      "v": 87
    },
    {
      "midi": 60,
      "hit": false,
      "t": 139676.6875000004,
      "d": 137.61249999998836,
      "v": 87
    },
    {
      "midi": 72,
      "hit": false,
      "t": 139814.3000000004,
      "d": 129.01171875,
      "v": 101
    },
    {
      "midi": 60,
      "hit": false,
      "t": 139951.91250000038,
      "d": 91.7416666666686,
      "v": 83
    },
    {
      "midi": 60,
      "hit": false,
      "t": 140227.1375000004,
      "d": 80.2739583333314,
      "v": 101
    },
    {
      "midi": 65,
      "hit": false,
      "t": 140639.97500000038,
      "d": 389.90208333331975,
      "v": 86
    },
    {
      "midi": 57,
      "hit": false,
      "t": 140639.97500000038,
      "d": 415.70442708331393,
      "v": 78
    },
    {
      "midi": 60,
      "hit": false,
      "t": 140639.97500000038,
      "d": 418.5713541666337,
      "v": 88
    },
    {
      "midi": 55,
      "hit": false,
      "t": 141190.42500000034,
      "d": 100.34244791665697,
      "v": 78
    },
    {
      "midi": 60,
      "hit": false,
      "t": 141190.42500000034,
      "d": 111.81015624999418,
      "v": 86
    },
    {
      "midi": 64,
      "hit": false,
      "t": 141190.42500000034,
      "d": 120.41093749998254,
      "v": 79
    },
    {
      "midi": 55,
      "hit": false,
      "t": 141465.6500000003,
      "d": 361.2328125000058,
      "v": 85
    },
    {
      "midi": 60,
      "hit": false,
      "t": 141465.6500000003,
      "d": 392.7690104166686,
      "v": 94
    },
    {
      "midi": 64,
      "hit": false,
      "t": 141465.6500000003,
      "d": 427.17213541668025,
      "v": 90
    },
    {
      "midi": 64,
      "hit": false,
      "t": 142016.10000000033,
      "d": 387.03515625,
      "v": 104
    },
    {
      "midi": 60,
      "hit": false,
      "t": 142016.10000000033,
      "d": 395.63593749998836,
      "v": 104
    },
    {
      "midi": 67,
      "hit": false,
      "t": 142016.10000000033,
      "d": 395.63593749998836,
      "v": 97
    },
    {
      "midi": 50,
      "hit": false,
      "t": 142016.10000000033,
      "d": 713.8648437499942,
      "v": 86
    },
    {
      "midi": 63,
      "hit": false,
      "t": 142566.5500000003,
      "d": 378.43437500001164,
      "v": 96
    },
    {
      "midi": 57,
      "hit": false,
      "t": 142566.5500000003,
      "d": 401.36979166668607,
      "v": 85
    },
    {
      "midi": 66,
      "hit": false,
      "t": 142566.5500000003,
      "d": 401.36979166668607,
      "v": 89
    },
    {
      "midi": 43,
      "hit": false,
      "t": 142841.7750000003,
      "d": 2153.062239583349,
      "v": 68
    },
    {
      "midi": 58,
      "hit": false,
      "t": 143117.00000000032,
      "d": 1009.1583333333256,
      "v": 90
    },
    {
      "midi": 62,
      "hit": false,
      "t": 143117.00000000032,
      "d": 1857.7687500000175,
      "v": 90
    },
    {
      "midi": 65,
      "hit": false,
      "t": 143117.00000000032,
      "d": 1869.2364583333547,
      "v": 90
    },
    {
      "midi": 58,
      "hit": false,
      "t": 144217.9000000003,
      "d": 169.14869791668025,
      "v": 61
    },
    {
      "midi": 58,
      "hit": false,
      "t": 144493.12500000032,
      "d": 197.81796874999418,
      "v": 69
    },
    {
      "midi": 58,
      "hit": false,
      "t": 144768.35000000033,
      "d": 103.20937500000582,
      "v": 72
    },
    {
      "midi": 57,
      "hit": false,
      "t": 145043.57500000033,
      "d": 1462.1328125,
      "v": 88
    },
    {
      "midi": 60,
      "hit": false,
      "t": 145043.57500000033,
      "d": 1464.9997395833198,
      "v": 101
    },
    {
      "midi": 65,
      "hit": false,
      "t": 145043.57500000033,
      "d": 1482.2013020833256,
      "v": 97
    },
    {
      "midi": 45,
      "hit": false,
      "t": 145043.57500000033,
      "d": 1568.2091145833256,
      "v": 86
    },
    {
      "midi": 60,
      "hit": false,
      "t": 146694.92500000034,
      "d": 344.03125,
      "v": 110
    },
    {
      "midi": 65,
      "hit": false,
      "t": 146694.92500000034,
      "d": 355.4989583333372,
      "v": 107
    },
    {
      "midi": 69,
      "hit": false,
      "t": 146694.92500000034,
      "d": 378.43437500001164,
      "v": 101
    },
    {
      "midi": 46,
      "hit": false,
      "t": 146694.92500000034,
      "d": 455.8414062500233,
      "v": 92
    },
    {
      "midi": 74,
      "hit": false,
      "t": 147245.37500000038,
      "d": 418.5713541666628,
      "v": 104
    },
    {
      "midi": 65,
      "hit": false,
      "t": 147245.37500000038,
      "d": 427.17213541665114,
      "v": 99
    },
    {
      "midi": 69,
      "hit": false,
      "t": 147245.37500000038,
      "d": 430.0390624999709,
      "v": 113
    },
    {
      "midi": 48,
      "hit": false,
      "t": 147245.37500000038,
      "d": 452.9744791666453,
      "v": 79
    },
    {
      "midi": 64,
      "hit": false,
      "t": 147795.82500000036,
      "d": 77.40703125001164,
      "v": 97
    },
    {
      "midi": 67,
      "hit": false,
      "t": 147795.82500000036,
      "d": 100.34244791668607,
      "v": 104
    },
    {
      "midi": 72,
      "hit": false,
      "t": 147795.82500000036,
      "d": 108.94322916667443,
      "v": 99
    },
    {
      "midi": 48,
      "hit": false,
      "t": 147795.82500000036,
      "d": 111.81015624999418,
      "v": 83
    },
    {
      "midi": 72,
      "hit": false,
      "t": 148071.05000000037,
      "d": 854.3442708333314,
      "v": 104
    },
    {
      "midi": 64,
      "hit": false,
      "t": 148071.05000000037,
      "d": 871.5458333333372,
      "v": 104
    },
    {
      "midi": 67,
      "hit": false,
      "t": 148071.05000000037,
      "d": 871.5458333333372,
      "v": 113
    },
    {
      "midi": 48,
      "hit": false,
      "t": 148071.05000000037,
      "d": 1287.2502604166802,
      "v": 88
    },
    {
      "midi": 57,
      "hit": false,
      "t": 149447.17500000037,
      "d": 338.2973958333314,
      "v": 99
    },
    {
      "midi": 61,
      "hit": false,
      "t": 149447.17500000037,
      "d": 344.03125,
      "v": 109
    },
    {
      "midi": 66,
      "hit": false,
      "t": 149447.17500000037,
      "d": 358.36588541665697,
      "v": 104
    },
    {
      "midi": 47,
      "hit": false,
      "t": 149447.17500000037,
      "d": 2419.686458333279,
      "v": 86
    },
    {
      "midi": 59,
      "hit": false,
      "t": 149997.62500000035,
      "d": 88.87473958331975,
      "v": 107
    },
    {
      "midi": 71,
      "hit": false,
      "t": 149997.62500000035,
      "d": 108.94322916664532,
      "v": 110
    },
    {
      "midi": 59,
      "hit": false,
      "t": 150410.4625000003,
      "d": 103.20937500000582,
      "v": 107
    },
    {
      "midi": 71,
      "hit": false,
      "t": 150410.4625000003,
      "d": 126.14479166668025,
      "v": 104
    },
    {
      "midi": 59,
      "hit": false,
      "t": 150823.30000000034,
      "d": 97.47552083333721,
      "v": 117
    },
    {
      "midi": 71,
      "hit": false,
      "t": 150823.30000000034,
      "d": 114.67708333334303,
      "v": 113
    },
    {
      "midi": 59,
      "hit": false,
      "t": 151236.13750000036,
      "d": 94.60859374998836,
      "v": 110
    },
    {
      "midi": 71,
      "hit": false,
      "t": 151236.13750000036,
      "d": 106.07630208332557,
      "v": 104
    },
    {
      "midi": 59,
      "hit": false,
      "t": 151648.97500000036,
      "d": 157.68098958331393,
      "v": 110
    },
    {
      "midi": 71,
      "hit": false,
      "t": 151648.97500000036,
      "d": 160.54791666663368,
      "v": 107
    },
    {
      "midi": 52,
      "hit": false,
      "t": 151924.2000000003,
      "d": 1949.5104166666279,
      "v": 90
    },
    {
      "midi": 59,
      "hit": false,
      "t": 152199.4250000003,
      "d": 94.60859374998836,
      "v": 86
    },
    {
      "midi": 67,
      "hit": false,
      "t": 152199.4250000003,
      "d": 94.60859374998836,
      "v": 90
    },
    {
      "midi": 62,
      "hit": false,
      "t": 152199.4250000003,
      "d": 97.47552083330811,
      "v": 99
    },
    {
      "midi": 59,
      "hit": false,
      "t": 152474.65000000029,
      "d": 83.14088541668025,
      "v": 86
    },
    {
      "midi": 67,
      "hit": false,
      "t": 152474.65000000029,
      "d": 83.14088541668025,
      "v": 94
    },
    {
      "midi": 62,
      "hit": false,
      "t": 152474.65000000029,
      "d": 91.7416666666686,
      "v": 101
    },
    {
      "midi": 67,
      "hit": false,
      "t": 152749.8750000003,
      "d": 83.14088541668025,
      "v": 92
    },
    {
      "midi": 59,
      "hit": false,
      "t": 152749.8750000003,
      "d": 94.60859375001746,
      "v": 88
    },
    {
      "midi": 62,
      "hit": false,
      "t": 152749.8750000003,
      "d": 94.60859375001746,
      "v": 101
    },
    {
      "midi": 67,
      "hit": false,
      "t": 153025.1000000003,
      "d": 344.03125,
      "v": 94
    },
    {
      "midi": 59,
      "hit": false,
      "t": 153025.1000000003,
      "d": 349.7651041666686,
      "v": 88
    },
    {
      "midi": 62,
      "hit": false,
      "t": 153025.1000000003,
      "d": 355.4989583333372,
      "v": 101
    },
    {
      "midi": 57,
      "hit": false,
      "t": 153437.9375000003,
      "d": 111.81015624999418,
      "v": 90
    },
    {
      "midi": 62,
      "hit": false,
      "t": 153437.9375000003,
      "d": 120.41093749998254,
      "v": 101
    },
    {
      "midi": 66,
      "hit": false,
      "t": 153437.9375000003,
      "d": 146.21328124997672,
      "v": 100
    },
    {
      "midi": 52,
      "hit": false,
      "t": 154126.00000000026,
      "d": 1949.510416666657,
      "v": 99
    },
    {
      "midi": 59,
      "hit": false,
      "t": 154401.22500000027,
      "d": 86.0078125,
      "v": 85
    },
    {
      "midi": 62,
      "hit": false,
      "t": 154401.22500000027,
      "d": 91.7416666666686,
      "v": 97
    },
    {
      "midi": 67,
      "hit": false,
      "t": 154401.22500000027,
      "d": 97.47552083333721,
      "v": 86
    },
    {
      "midi": 59,
      "hit": false,
      "t": 154676.45000000027,
      "d": 88.87473958331975,
      "v": 86
    },
    {
      "midi": 62,
      "hit": false,
      "t": 154676.45000000027,
      "d": 94.60859374998836,
      "v": 101
    },
    {
      "midi": 67,
      "hit": false,
      "t": 154676.45000000027,
      "d": 97.47552083330811,
      "v": 94
    },
    {
      "midi": 59,
      "hit": false,
      "t": 154951.67500000025,
      "d": 83.14088541668025,
      "v": 88
    },
    {
      "midi": 62,
      "hit": false,
      "t": 154951.67500000025,
      "d": 86.0078125,
      "v": 104
    },
    {
      "midi": 67,
      "hit": false,
      "t": 154951.67500000025,
      "d": 86.0078125,
      "v": 97
    },
    {
      "midi": 59,
      "hit": false,
      "t": 155226.90000000026,
      "d": 298.16041666668025,
      "v": 92
    },
    {
      "midi": 67,
      "hit": false,
      "t": 155226.90000000026,
      "d": 301.02734375,
      "v": 99
    },
    {
      "midi": 62,
      "hit": false,
      "t": 155226.90000000026,
      "d": 309.62812499998836,
      "v": 104
    },
    {
      "midi": 57,
      "hit": false,
      "t": 155639.73750000025,
      "d": 94.60859374998836,
      "v": 92
    },
    {
      "midi": 62,
      "hit": false,
      "t": 155639.73750000025,
      "d": 106.07630208332557,
      "v": 101
    },
    {
      "midi": 66,
      "hit": false,
      "t": 155639.73750000025,
      "d": 123.2778645833314,
      "v": 96
    },
    {
      "midi": 52,
      "hit": false,
      "t": 156327.80000000025,
      "d": 2153.0622395832324,
      "v": 94
    },
    {
      "midi": 59,
      "hit": false,
      "t": 156603.02500000026,
      "d": 80.2739583333314,
      "v": 88
    },
    {
      "midi": 62,
      "hit": false,
      "t": 156603.02500000026,
      "d": 86.0078125,
      "v": 101
    },
    {
      "midi": 67,
      "hit": false,
      "t": 156603.02500000026,
      "d": 94.60859374998836,
      "v": 101
    },
    {
      "midi": 67,
      "hit": false,
      "t": 156878.25000000023,
      "d": 80.2739583333314,
      "v": 97
    },
    {
      "midi": 59,
      "hit": false,
      "t": 156878.25000000023,
      "d": 86.0078125,
      "v": 90
    },
    {
      "midi": 62,
      "hit": false,
      "t": 156878.25000000023,
      "d": 88.87473958331975,
      "v": 99
    },
    {
      "midi": 59,
      "hit": false,
      "t": 157153.4750000002,
      "d": 86.0078125,
      "v": 85
    },
    {
      "midi": 62,
      "hit": false,
      "t": 157153.4750000002,
      "d": 88.87473958331975,
      "v": 99
    },
    {
      "midi": 67,
      "hit": false,
      "t": 157153.4750000002,
      "d": 94.60859374998836,
      "v": 92
    },
    {
      "midi": 59,
      "hit": false,
      "t": 157428.7000000002,
      "d": 295.2934895833314,
      "v": 92
    },
    {
      "midi": 67,
      "hit": false,
      "t": 157428.7000000002,
      "d": 303.89427083331975,
      "v": 99
    },
    {
      "midi": 62,
      "hit": false,
      "t": 157428.7000000002,
      "d": 318.2289062499767,
      "v": 104
    },
    {
      "midi": 57,
      "hit": false,
      "t": 157841.53750000015,
      "d": 255.15651041668025,
      "v": 94
    },
    {
      "midi": 62,
      "hit": false,
      "t": 157841.53750000015,
      "d": 292.42656250001164,
      "v": 99
    },
    {
      "midi": 66,
      "hit": false,
      "t": 157841.53750000015,
      "d": 303.89427083334886,
      "v": 92
    },
    {
      "midi": 59,
      "hit": false,
      "t": 158254.37500000017,
      "d": 117.54401041666279,
      "v": 86
    },
    {
      "midi": 62,
      "hit": false,
      "t": 158254.37500000017,
      "d": 131.87864583331975,
      "v": 88
    },
    {
      "midi": 67,
      "hit": false,
      "t": 158254.37500000017,
      "d": 134.7455729166395,
      "v": 83
    },
    {
      "midi": 67,
      "hit": false,
      "t": 158529.60000000015,
      "d": 447.2406250000058,
      "v": 113
    },
    {
      "midi": 71,
      "hit": false,
      "t": 158529.60000000015,
      "d": 452.9744791666744,
      "v": 107
    },
    {
      "midi": 64,
      "hit": false,
      "t": 158529.60000000015,
      "d": 455.8414062499942,
      "v": 104
    },
    {
      "midi": 48,
      "hit": false,
      "t": 158529.60000000015,
      "d": 513.1799479166511,
      "v": 83
    },
    {
      "midi": 69,
      "hit": false,
      "t": 159080.05000000013,
      "d": 441.5067708333372,
      "v": 101
    },
    {
      "midi": 62,
      "hit": false,
      "t": 159080.05000000013,
      "d": 450.1075520833256,
      "v": 97
    },
    {
      "midi": 66,
      "hit": false,
      "t": 159080.05000000013,
      "d": 458.70833333331393,
      "v": 104
    },
    {
      "midi": 47,
      "hit": false,
      "t": 159080.05000000013,
      "d": 507.44609374998254,
      "v": 90
    },
    {
      "midi": 60,
      "hit": false,
      "t": 159630.50000000012,
      "d": 438.63984374998836,
      "v": 94
    },
    {
      "midi": 64,
      "hit": false,
      "t": 159630.50000000012,
      "d": 455.8414062499942,
      "v": 101
    },
    {
      "midi": 67,
      "hit": false,
      "t": 159630.50000000012,
      "d": 461.5752604166628,
      "v": 99
    },
    {
      "midi": 45,
      "hit": false,
      "t": 159630.50000000012,
      "d": 524.6476562499884,
      "v": 88
    },
    {
      "midi": 47,
      "hit": false,
      "t": 160180.9500000001,
      "d": 493.1114583333256,
      "v": 88
    },
    {
      "midi": 66,
      "hit": false,
      "t": 160180.9500000001,
      "d": 518.9138020833198,
      "v": 92
    },
    {
      "midi": 69,
      "hit": false,
      "t": 160180.9500000001,
      "d": 521.7807291666395,
      "v": 90
    },
    {
      "midi": 62,
      "hit": false,
      "t": 160180.9500000001,
      "d": 530.3815104166279,
      "v": 97
    },
    {
      "midi": 52,
      "hit": false,
      "t": 160731.40000000005,
      "d": 1949.5104166666279,
      "v": 90
    },
    {
      "midi": 59,
      "hit": false,
      "t": 161006.62500000006,
      "d": 94.60859374998836,
      "v": 86
    },
    {
      "midi": 67,
      "hit": false,
      "t": 161006.62500000006,
      "d": 94.60859374998836,
      "v": 90
    },
    {
      "midi": 62,
      "hit": false,
      "t": 161006.62500000006,
      "d": 97.47552083330811,
      "v": 99
    },
    {
      "midi": 59,
      "hit": false,
      "t": 161281.85000000003,
      "d": 83.14088541668025,
      "v": 86
    },
    {
      "midi": 67,
      "hit": false,
      "t": 161281.85000000003,
      "d": 83.14088541668025,
      "v": 94
    },
    {
      "midi": 62,
      "hit": false,
      "t": 161281.85000000003,
      "d": 91.7416666666686,
      "v": 101
    },
    {
      "midi": 67,
      "hit": false,
      "t": 161557.07500000004,
      "d": 83.14088541668025,
      "v": 92
    },
    {
      "midi": 59,
      "hit": false,
      "t": 161557.07500000004,
      "d": 94.60859375001746,
      "v": 88
    },
    {
      "midi": 62,
      "hit": false,
      "t": 161557.07500000004,
      "d": 94.60859375001746,
      "v": 101
    },
    {
      "midi": 67,
      "hit": false,
      "t": 161832.30000000005,
      "d": 344.03125,
      "v": 94
    },
    {
      "midi": 59,
      "hit": false,
      "t": 161832.30000000005,
      "d": 349.7651041666686,
      "v": 88
    },
    {
      "midi": 62,
      "hit": false,
      "t": 161832.30000000005,
      "d": 355.4989583333372,
      "v": 101
    },
    {
      "midi": 57,
      "hit": false,
      "t": 162245.13750000004,
      "d": 111.81015624999418,
      "v": 90
    },
    {
      "midi": 62,
      "hit": false,
      "t": 162245.13750000004,
      "d": 120.41093749998254,
      "v": 101
    },
    {
      "midi": 66,
      "hit": false,
      "t": 162245.13750000004,
      "d": 146.21328124997672,
      "v": 100
    },
    {
      "midi": 52,
      "hit": false,
      "t": 162933.2,
      "d": 1949.510416666657,
      "v": 99
    },
    {
      "midi": 59,
      "hit": false,
      "t": 163208.42500000002,
      "d": 86.0078125,
      "v": 85
    },
    {
      "midi": 62,
      "hit": false,
      "t": 163208.42500000002,
      "d": 91.7416666666686,
      "v": 97
    },
    {
      "midi": 67,
      "hit": false,
      "t": 163208.42500000002,
      "d": 97.47552083333721,
      "v": 86
    },
    {
      "midi": 59,
      "hit": false,
      "t": 163483.65000000002,
      "d": 88.87473958331975,
      "v": 86
    },
    {
      "midi": 62,
      "hit": false,
      "t": 163483.65000000002,
      "d": 94.60859374998836,
      "v": 101
    },
    {
      "midi": 67,
      "hit": false,
      "t": 163483.65000000002,
      "d": 97.47552083330811,
      "v": 94
    },
    {
      "midi": 59,
      "hit": false,
      "t": 163758.875,
      "d": 83.14088541668025,
      "v": 88
    },
    {
      "midi": 62,
      "hit": false,
      "t": 163758.875,
      "d": 86.0078125,
      "v": 104
    },
    {
      "midi": 67,
      "hit": false,
      "t": 163758.875,
      "d": 86.0078125,
      "v": 97
    },
    {
      "midi": 59,
      "hit": false,
      "t": 164034.1,
      "d": 298.16041666668025,
      "v": 92
    },
    {
      "midi": 67,
      "hit": false,
      "t": 164034.1,
      "d": 301.02734375,
      "v": 99
    },
    {
      "midi": 62,
      "hit": false,
      "t": 164034.1,
      "d": 309.62812499998836,
      "v": 104
    },
    {
      "midi": 57,
      "hit": false,
      "t": 164446.9375,
      "d": 94.60859374998836,
      "v": 92
    },
    {
      "midi": 62,
      "hit": false,
      "t": 164446.9375,
      "d": 106.07630208332557,
      "v": 101
    },
    {
      "midi": 66,
      "hit": false,
      "t": 164446.9375,
      "d": 123.2778645833314,
      "v": 96
    },
    {
      "midi": 52,
      "hit": false,
      "t": 165135,
      "d": 2153.0622395832324,
      "v": 94
    },
    {
      "midi": 59,
      "hit": false,
      "t": 165410.225,
      "d": 80.2739583333314,
      "v": 88
    },
    {
      "midi": 62,
      "hit": false,
      "t": 165410.225,
      "d": 86.0078125,
      "v": 101
    },
    {
      "midi": 67,
      "hit": false,
      "t": 165410.225,
      "d": 94.60859374998836,
      "v": 101
    },
    {
      "midi": 67,
      "hit": false,
      "t": 165685.44999999998,
      "d": 80.2739583333314,
      "v": 97
    },
    {
      "midi": 59,
      "hit": false,
      "t": 165685.44999999998,
      "d": 86.0078125,
      "v": 90
    },
    {
      "midi": 62,
      "hit": false,
      "t": 165685.44999999998,
      "d": 88.87473958331975,
      "v": 99
    },
    {
      "midi": 59,
      "hit": false,
      "t": 165960.67499999996,
      "d": 86.0078125,
      "v": 85
    },
    {
      "midi": 62,
      "hit": false,
      "t": 165960.67499999996,
      "d": 88.87473958331975,
      "v": 99
    },
    {
      "midi": 67,
      "hit": false,
      "t": 165960.67499999996,
      "d": 94.60859374998836,
      "v": 92
    },
    {
      "midi": 59,
      "hit": false,
      "t": 166235.89999999994,
      "d": 295.2934895833314,
      "v": 92
    },
    {
      "midi": 67,
      "hit": false,
      "t": 166235.89999999994,
      "d": 303.89427083331975,
      "v": 99
    },
    {
      "midi": 62,
      "hit": false,
      "t": 166235.89999999994,
      "d": 318.2289062499767,
      "v": 104
    },
    {
      "midi": 57,
      "hit": false,
      "t": 166648.7374999999,
      "d": 255.15651041668025,
      "v": 94
    },
    {
      "midi": 62,
      "hit": false,
      "t": 166648.7374999999,
      "d": 292.42656250001164,
      "v": 99
    },
    {
      "midi": 66,
      "hit": false,
      "t": 166648.7374999999,
      "d": 303.89427083334886,
      "v": 92
    },
    {
      "midi": 59,
      "hit": false,
      "t": 167061.57499999992,
      "d": 117.54401041666279,
      "v": 86
    },
    {
      "midi": 62,
      "hit": false,
      "t": 167061.57499999992,
      "d": 131.87864583331975,
      "v": 88
    },
    {
      "midi": 67,
      "hit": false,
      "t": 167061.57499999992,
      "d": 134.7455729166395,
      "v": 83
    },
    {
      "midi": 67,
      "hit": false,
      "t": 167336.7999999999,
      "d": 447.2406250000058,
      "v": 113
    },
    {
      "midi": 71,
      "hit": false,
      "t": 167336.7999999999,
      "d": 452.9744791666744,
      "v": 107
    },
    {
      "midi": 64,
      "hit": false,
      "t": 167336.7999999999,
      "d": 455.8414062499942,
      "v": 104
    },
    {
      "midi": 48,
      "hit": false,
      "t": 167336.7999999999,
      "d": 513.1799479166511,
      "v": 83
    },
    {
      "midi": 69,
      "hit": false,
      "t": 167887.24999999988,
      "d": 441.5067708333372,
      "v": 101
    },
    {
      "midi": 62,
      "hit": false,
      "t": 167887.24999999988,
      "d": 450.1075520833256,
      "v": 97
    },
    {
      "midi": 66,
      "hit": false,
      "t": 167887.24999999988,
      "d": 458.70833333331393,
      "v": 104
    },
    {
      "midi": 47,
      "hit": false,
      "t": 167887.24999999988,
      "d": 507.44609374998254,
      "v": 90
    },
    {
      "midi": 60,
      "hit": false,
      "t": 168437.69999999987,
      "d": 438.63984374998836,
      "v": 94
    },
    {
      "midi": 64,
      "hit": false,
      "t": 168437.69999999987,
      "d": 455.8414062499942,
      "v": 101
    },
    {
      "midi": 67,
      "hit": false,
      "t": 168437.69999999987,
      "d": 461.5752604166628,
      "v": 99
    },
    {
      "midi": 45,
      "hit": false,
      "t": 168437.69999999987,
      "d": 524.6476562499884,
      "v": 88
    },
    {
      "midi": 47,
      "hit": false,
      "t": 168988.14999999985,
      "d": 493.1114583333256,
      "v": 88
    },
    {
      "midi": 66,
      "hit": false,
      "t": 168988.14999999985,
      "d": 518.9138020833198,
      "v": 92
    },
    {
      "midi": 69,
      "hit": false,
      "t": 168988.14999999985,
      "d": 521.7807291666395,
      "v": 90
    },
    {
      "midi": 62,
      "hit": false,
      "t": 168988.14999999985,
      "d": 530.3815104166279,
      "v": 97
    },
    {
      "midi": 52,
      "hit": false,
      "t": 169538.5999999998,
      "d": 1949.5104166666279,
      "v": 90
    },
    {
      "midi": 59,
      "hit": false,
      "t": 169813.8249999998,
      "d": 94.60859374998836,
      "v": 86
    },
    {
      "midi": 67,
      "hit": false,
      "t": 169813.8249999998,
      "d": 94.60859374998836,
      "v": 90
    },
    {
      "midi": 62,
      "hit": false,
      "t": 169813.8249999998,
      "d": 97.47552083330811,
      "v": 99
    },
    {
      "midi": 59,
      "hit": false,
      "t": 170089.04999999978,
      "d": 83.14088541668025,
      "v": 86
    },
    {
      "midi": 67,
      "hit": false,
      "t": 170089.04999999978,
      "d": 83.14088541668025,
      "v": 94
    },
    {
      "midi": 62,
      "hit": false,
      "t": 170089.04999999978,
      "d": 91.7416666666686,
      "v": 101
    },
    {
      "midi": 67,
      "hit": false,
      "t": 170364.2749999998,
      "d": 83.14088541668025,
      "v": 92
    },
    {
      "midi": 59,
      "hit": false,
      "t": 170364.2749999998,
      "d": 94.60859375001746,
      "v": 88
    },
    {
      "midi": 62,
      "hit": false,
      "t": 170364.2749999998,
      "d": 94.60859375001746,
      "v": 101
    },
    {
      "midi": 67,
      "hit": false,
      "t": 170639.4999999998,
      "d": 344.03125,
      "v": 94
    },
    {
      "midi": 59,
      "hit": false,
      "t": 170639.4999999998,
      "d": 349.7651041666686,
      "v": 88
    },
    {
      "midi": 62,
      "hit": false,
      "t": 170639.4999999998,
      "d": 355.4989583333372,
      "v": 101
    },
    {
      "midi": 57,
      "hit": false,
      "t": 171052.3374999998,
      "d": 111.81015624999418,
      "v": 90
    },
    {
      "midi": 62,
      "hit": false,
      "t": 171052.3374999998,
      "d": 120.41093749998254,
      "v": 101
    },
    {
      "midi": 66,
      "hit": false,
      "t": 171052.3374999998,
      "d": 146.21328124997672,
      "v": 100
    },
    {
      "midi": 52,
      "hit": false,
      "t": 171740.39999999976,
      "d": 1949.510416666657,
      "v": 99
    },
    {
      "midi": 59,
      "hit": false,
      "t": 172015.62499999977,
      "d": 86.0078125,
      "v": 85
    },
    {
      "midi": 62,
      "hit": false,
      "t": 172015.62499999977,
      "d": 91.7416666666686,
      "v": 97
    },
    {
      "midi": 67,
      "hit": false,
      "t": 172015.62499999977,
      "d": 97.47552083333721,
      "v": 86
    },
    {
      "midi": 59,
      "hit": false,
      "t": 172290.84999999977,
      "d": 88.87473958331975,
      "v": 86
    },
    {
      "midi": 62,
      "hit": false,
      "t": 172290.84999999977,
      "d": 94.60859374998836,
      "v": 101
    },
    {
      "midi": 67,
      "hit": false,
      "t": 172290.84999999977,
      "d": 97.47552083330811,
      "v": 94
    },
    {
      "midi": 59,
      "hit": false,
      "t": 172566.07499999975,
      "d": 83.14088541668025,
      "v": 88
    },
    {
      "midi": 62,
      "hit": false,
      "t": 172566.07499999975,
      "d": 86.0078125,
      "v": 104
    },
    {
      "midi": 67,
      "hit": false,
      "t": 172566.07499999975,
      "d": 86.0078125,
      "v": 97
    },
    {
      "midi": 59,
      "hit": false,
      "t": 172841.29999999976,
      "d": 298.16041666668025,
      "v": 92
    },
    {
      "midi": 67,
      "hit": false,
      "t": 172841.29999999976,
      "d": 301.02734375,
      "v": 99
    },
    {
      "midi": 62,
      "hit": false,
      "t": 172841.29999999976,
      "d": 309.62812499998836,
      "v": 104
    },
    {
      "midi": 57,
      "hit": false,
      "t": 173254.13749999975,
      "d": 94.60859374998836,
      "v": 92
    },
    {
      "midi": 62,
      "hit": false,
      "t": 173254.13749999975,
      "d": 106.07630208332557,
      "v": 101
    },
    {
      "midi": 66,
      "hit": false,
      "t": 173254.13749999975,
      "d": 123.2778645833314,
      "v": 96
    },
    {
      "midi": 52,
      "hit": false,
      "t": 173942.19999999975,
      "d": 2153.0622395832324,
      "v": 94
    },
    {
      "midi": 59,
      "hit": false,
      "t": 174217.42499999976,
      "d": 80.2739583333314,
      "v": 88
    },
    {
      "midi": 62,
      "hit": false,
      "t": 174217.42499999976,
      "d": 86.0078125,
      "v": 101
    },
    {
      "midi": 67,
      "hit": false,
      "t": 174217.42499999976,
      "d": 94.60859374998836,
      "v": 101
    },
    {
      "midi": 67,
      "hit": false,
      "t": 174492.64999999973,
      "d": 80.2739583333314,
      "v": 97
    },
    {
      "midi": 59,
      "hit": false,
      "t": 174492.64999999973,
      "d": 86.0078125,
      "v": 90
    },
    {
      "midi": 62,
      "hit": false,
      "t": 174492.64999999973,
      "d": 88.87473958331975,
      "v": 99
    },
    {
      "midi": 59,
      "hit": false,
      "t": 174767.8749999997,
      "d": 86.0078125,
      "v": 85
    },
    {
      "midi": 62,
      "hit": false,
      "t": 174767.8749999997,
      "d": 88.87473958331975,
      "v": 99
    },
    {
      "midi": 67,
      "hit": false,
      "t": 174767.8749999997,
      "d": 94.60859374998836,
      "v": 92
    },
    {
      "midi": 59,
      "hit": false,
      "t": 175043.0999999997,
      "d": 295.2934895833314,
      "v": 92
    },
    {
      "midi": 67,
      "hit": false,
      "t": 175043.0999999997,
      "d": 303.89427083331975,
      "v": 99
    },
    {
      "midi": 62,
      "hit": false,
      "t": 175043.0999999997,
      "d": 318.2289062499767,
      "v": 104
    },
    {
      "midi": 57,
      "hit": false,
      "t": 175455.93749999965,
      "d": 255.15651041668025,
      "v": 94
    },
    {
      "midi": 62,
      "hit": false,
      "t": 175455.93749999965,
      "d": 292.42656250001164,
      "v": 99
    },
    {
      "midi": 66,
      "hit": false,
      "t": 175455.93749999965,
      "d": 303.89427083334886,
      "v": 92
    },
    {
      "midi": 59,
      "hit": false,
      "t": 175868.77499999967,
      "d": 117.54401041666279,
      "v": 86
    },
    {
      "midi": 62,
      "hit": false,
      "t": 175868.77499999967,
      "d": 131.87864583331975,
      "v": 88
    },
    {
      "midi": 67,
      "hit": false,
      "t": 175868.77499999967,
      "d": 134.7455729166395,
      "v": 83
    },
    {
      "midi": 67,
      "hit": false,
      "t": 176143.99999999965,
      "d": 447.2406250000058,
      "v": 122
    },
    {
      "midi": 71,
      "hit": false,
      "t": 176143.99999999965,
      "d": 452.9744791666744,
      "v": 122
    },
    {
      "midi": 64,
      "hit": false,
      "t": 176143.99999999965,
      "d": 455.8414062499942,
      "v": 122
    },
    {
      "midi": 48,
      "hit": false,
      "t": 176143.99999999965,
      "d": 513.1799479166511,
      "v": 122
    },
    {
      "midi": 69,
      "hit": false,
      "t": 176694.44999999963,
      "d": 441.5067708333372,
      "v": 114
    },
    {
      "midi": 62,
      "hit": false,
      "t": 176694.44999999963,
      "d": 450.1075520833256,
      "v": 114
    },
    {
      "midi": 66,
      "hit": false,
      "t": 176694.44999999963,
      "d": 458.70833333331393,
      "v": 114
    },
    {
      "midi": 47,
      "hit": false,
      "t": 176694.44999999963,
      "d": 507.44609374998254,
      "v": 114
    },
    {
      "midi": 60,
      "hit": false,
      "t": 177244.89999999962,
      "d": 438.63984374998836,
      "v": 118
    },
    {
      "midi": 64,
      "hit": false,
      "t": 177244.89999999962,
      "d": 455.8414062499942,
      "v": 118
    },
    {
      "midi": 67,
      "hit": false,
      "t": 177244.89999999962,
      "d": 461.5752604166628,
      "v": 118
    },
    {
      "midi": 41,
      "hit": false,
      "t": 177244.89999999962,
      "d": 524.6476562499884,
      "v": 118
    },
    {
      "midi": 38,
      "hit": false,
      "t": 177795.3499999996,
      "d": 493.1114583333256,
      "v": 123
    },
    {
      "midi": 64,
      "hit": false,
      "t": 177795.3499999996,
      "d": 518.9138020833198,
      "v": 123
    },
    {
      "midi": 67,
      "hit": false,
      "t": 177795.3499999996,
      "d": 521.7807291666395,
      "v": 123
    },
    {
      "midi": 60,
      "hit": false,
      "t": 177795.3499999996,
      "d": 530.3815104166279,
      "v": 123
    },
    {
      "midi": 43,
      "hit": false,
      "t": 178345.79999999996,
      "d": 183.4833333333081,
      "v": 127
    },
    {
      "midi": 31,
      "hit": false,
      "t": 178345.79999999996,
      "d": 206.41874999998254,
      "v": 127
    },
    {
      "midi": 55,
      "hit": false,
      "t": 178483.41249999995,
      "d": 63.07239583332557,
      "v": 114
    },
    {
      "midi": 67,
      "hit": false,
      "t": 178483.41249999995,
      "d": 71.67317708331393,
      "v": 99
    },
    {
      "midi": 43,
      "hit": false,
      "t": 178621.02499999994,
      "d": 68.80624999999418,
      "v": 127
    },
    {
      "midi": 31,
      "hit": false,
      "t": 178621.02499999994,
      "d": 74.54010416666279,
      "v": 127
    },
    {
      "midi": 55,
      "hit": false,
      "t": 178758.63749999992,
      "d": 255.15651041668025,
      "v": 127
    },
    {
      "midi": 67,
      "hit": false,
      "t": 178758.63749999992,
      "d": 266.62421875001746,
      "v": 127
    },
    {
      "midi": 67,
      "hit": false,
      "t": 179171.47499999995,
      "d": 48.73776041666861,
      "v": 102
    },
    {
      "midi": 55,
      "hit": false,
      "t": 179171.47499999995,
      "d": 54.471614583337214,
      "v": 110
    },
    {
      "midi": 36,
      "hit": false,
      "t": 179171.47499999995,
      "d": 97.47552083333721,
      "v": 114
    },
    {
      "midi": 24,
      "hit": false,
      "t": 179171.47499999995,
      "d": 154.81406250002328,
      "v": 119
    },
    {
      "midi": 37,
      "hit": false,
      "t": 179309.08749999997,
      "d": 83.14088541668025,
      "v": 124
    },
    {
      "midi": 25,
      "hit": false,
      "t": 179309.08749999997,
      "d": 97.47552083333721,
      "v": 127
    },
    {
      "midi": 36,
      "hit": false,
      "t": 179446.69999999998,
      "d": 103.20937500000582,
      "v": 110
    },
    {
      "midi": 38,
      "hit": false,
      "t": 179446.69999999998,
      "d": 106.07630208332557,
      "v": 112
    },
    {
      "midi": 26,
      "hit": false,
      "t": 179446.69999999998,
      "d": 163.41484374998254,
      "v": 127
    },
    {
      "midi": 55,
      "hit": false,
      "t": 179446.69999999998,
      "d": 174.88255208331975,
      "v": 127
    },
    {
      "midi": 67,
      "hit": false,
      "t": 179446.69999999998,
      "d": 189.21718749997672,
      "v": 127
    },
    {
      "midi": 37,
      "hit": false,
      "t": 179584.31249999997,
      "d": 100.34244791665697,
      "v": 124
    },
    {
      "midi": 25,
      "hit": false,
      "t": 179584.31249999997,
      "d": 111.81015624999418,
      "v": 127
    },
    {
      "midi": 55,
      "hit": false,
      "t": 179721.92499999996,
      "d": 51.60468749998836,
      "v": 96
    },
    {
      "midi": 67,
      "hit": false,
      "t": 179721.92499999996,
      "d": 57.338541666656965,
      "v": 91
    },
    {
      "midi": 26,
      "hit": false,
      "t": 179721.92499999996,
      "d": 94.60859374998836,
      "v": 127
    },
    {
      "midi": 38,
      "hit": false,
      "t": 179721.92499999996,
      "d": 97.47552083330811,
      "v": 121
    },
    {
      "midi": 26,
      "hit": false,
      "t": 179859.53749999995,
      "d": 48.73776041666861,
      "v": 82
    },
    {
      "midi": 27,
      "hit": false,
      "t": 179859.53749999995,
      "d": 298.16041666665114,
      "v": 127
    },
    {
      "midi": 39,
      "hit": false,
      "t": 179859.53749999995,
      "d": 315.36197916665697,
      "v": 127
    },
    {
      "midi": 55,
      "hit": false,
      "t": 179997.14999999994,
      "d": 117.54401041666279,
      "v": 127
    },
    {
      "midi": 67,
      "hit": false,
      "t": 179997.14999999994,
      "d": 131.87864583331975,
      "v": 127
    },
    {
      "midi": 39,
      "hit": false,
      "t": 180272.37499999994,
      "d": 51.60468749998836,
      "v": 127
    },
    {
      "midi": 27,
      "hit": false,
      "t": 180272.37499999994,
      "d": 54.47161458330811,
      "v": 127
    },
    {
      "midi": 55,
      "hit": false,
      "t": 180272.37499999994,
      "d": 65.93932291664532,
      "v": 124
    },
    {
      "midi": 67,
      "hit": false,
      "t": 180272.37499999994,
      "d": 83.14088541665114,
      "v": 119
    },
    {
      "midi": 67,
      "hit": false,
      "t": 180685.2124999999,
      "d": 45.87083333331975,
      "v": 103
    },
    {
      "midi": 55,
      "hit": false,
      "t": 180685.2124999999,
      "d": 60.20546874997672,
      "v": 114
    },
    {
      "midi": 28,
      "hit": false,
      "t": 180822.8249999999,
      "d": 40.13697916668025,
      "v": 127
    },
    {
      "midi": 40,
      "hit": false,
      "t": 180822.8249999999,
      "d": 51.60468750001746,
      "v": 127
    },
    {
      "midi": 55,
      "hit": false,
      "t": 180960.4374999999,
      "d": 258.0234375,
      "v": 127
    },
    {
      "midi": 67,
      "hit": false,
      "t": 180960.4374999999,
      "d": 263.7572916666686,
      "v": 127
    },
    {
      "midi": 41,
      "hit": false,
      "t": 181373.2749999999,
      "d": 65.93932291667443,
      "v": 108
    },
    {
      "midi": 55,
      "hit": false,
      "t": 181373.2749999999,
      "d": 68.80624999999418,
      "v": 114
    },
    {
      "midi": 29,
      "hit": false,
      "t": 181373.2749999999,
      "d": 71.67317708331393,
      "v": 117
    },
    {
      "midi": 67,
      "hit": false,
      "t": 181373.2749999999,
      "d": 80.27395833330229,
      "v": 114
    },
    {
      "midi": 38,
      "hit": false,
      "t": 181510.88749999987,
      "d": 68.80624999999418,
      "v": 117
    },
    {
      "midi": 26,
      "hit": false,
      "t": 181510.88749999987,
      "d": 71.67317708331393,
      "v": 119
    },
    {
      "midi": 41,
      "hit": false,
      "t": 181648.49999999985,
      "d": 366.9666666666744,
      "v": 127
    },
    {
      "midi": 29,
      "hit": false,
      "t": 181648.49999999985,
      "d": 407.1036458333547,
      "v": 127
    },
    {
      "midi": 60,
      "hit": false,
      "t": 181648.49999999985,
      "d": 409.9705729166744,
      "v": 127
    },
    {
      "midi": 57,
      "hit": false,
      "t": 181648.49999999985,
      "d": 427.17213541665114,
      "v": 127
    },
    {
      "midi": 67,
      "hit": false,
      "t": 181648.49999999985,
      "d": 430.0390624999709,
      "v": 127
    },
    {
      "midi": 38,
      "hit": false,
      "t": 182061.33749999985,
      "d": 77.40703124998254,
      "v": 114
    },
    {
      "midi": 26,
      "hit": false,
      "t": 182061.33749999985,
      "d": 83.14088541665114,
      "v": 105
    },
    {
      "midi": 42,
      "hit": false,
      "t": 182198.94999999984,
      "d": 392.7690104166686,
      "v": 127
    },
    {
      "midi": 30,
      "hit": false,
      "t": 182198.94999999984,
      "d": 395.63593749998836,
      "v": 127
    },
    {
      "midi": 58,
      "hit": false,
      "t": 182198.94999999984,
      "d": 421.43828124998254,
      "v": 127
    },
    {
      "midi": 67,
      "hit": false,
      "t": 182198.94999999984,
      "d": 424.3052083333023,
      "v": 127
    },
    {
      "midi": 61,
      "hit": false,
      "t": 182198.94999999984,
      "d": 432.90598958329065,
      "v": 127
    },
    {
      "midi": 38,
      "hit": false,
      "t": 182611.78749999983,
      "d": 65.93932291661622,
      "v": 119
    },
    {
      "midi": 26,
      "hit": false,
      "t": 182611.78749999983,
      "d": 80.27395833327319,
      "v": 112
    },
    {
      "midi": 55,
      "hit": false,
      "t": 182749.39999999976,
      "d": 220.7533854166686,
      "v": 127
    },
    {
      "midi": 67,
      "hit": false,
      "t": 182749.39999999976,
      "d": 220.7533854166686,
      "v": 127
    },
    {
      "midi": 62,
      "hit": false,
      "t": 182749.39999999976,
      "d": 232.22109375000582,
      "v": 127
    },
    {
      "midi": 43,
      "hit": false,
      "t": 183024.62499999977,
      "d": 48.73776041666861,
      "v": 112
    },
    {
      "midi": 31,
      "hit": false,
      "t": 183024.62499999977,
      "d": 63.07239583332557,
      "v": 112
    },
    {
      "midi": 67,
      "hit": false,
      "t": 183162.23749999976,
      "d": 126.14479166668025,
      "v": 127
    },
    {
      "midi": 55,
      "hit": false,
      "t": 183162.23749999976,
      "d": 129.01171875,
      "v": 124
    },
    {
      "midi": 55,
      "hit": false,
      "t": 183437.46249999976,
      "d": 77.40703125001164,
      "v": 127
    },
    {
      "midi": 67,
      "hit": false,
      "t": 183437.46249999976,
      "d": 83.14088541668025,
      "v": 121
    },
    {
      "midi": 36,
      "hit": false,
      "t": 183575.07499999978,
      "d": 97.47552083333721,
      "v": 114
    },
    {
      "midi": 24,
      "hit": false,
      "t": 183575.07499999978,
      "d": 140.4794270833372,
      "v": 88
    },
    {
      "midi": 37,
      "hit": false,
      "t": 183712.6874999998,
      "d": 86.0078125,
      "v": 104
    },
    {
      "midi": 25,
      "hit": false,
      "t": 183712.6874999998,
      "d": 123.2778645833314,
      "v": 116
    },
    {
      "midi": 55,
      "hit": false,
      "t": 183850.29999999978,
      "d": 91.7416666666686,
      "v": 127
    },
    {
      "midi": 67,
      "hit": false,
      "t": 183850.29999999978,
      "d": 106.07630208332557,
      "v": 127
    },
    {
      "midi": 38,
      "hit": false,
      "t": 183850.29999999978,
      "d": 126.14479166665114,
      "v": 121
    },
    {
      "midi": 26,
      "hit": false,
      "t": 183850.29999999978,
      "d": 160.5479166666628,
      "v": 121
    },
    {
      "midi": 37,
      "hit": false,
      "t": 183987.91249999977,
      "d": 108.94322916667443,
      "v": 106
    },
    {
      "midi": 25,
      "hit": false,
      "t": 183987.91249999977,
      "d": 123.2778645833314,
      "v": 127
    },
    {
      "midi": 55,
      "hit": false,
      "t": 184125.52499999976,
      "d": 68.80624999999418,
      "v": 99
    },
    {
      "midi": 67,
      "hit": false,
      "t": 184125.52499999976,
      "d": 71.67317708331393,
      "v": 100
    },
    {
      "midi": 26,
      "hit": false,
      "t": 184125.52499999976,
      "d": 94.60859374998836,
      "v": 121
    },
    {
      "midi": 38,
      "hit": false,
      "t": 184125.52499999976,
      "d": 100.34244791665697,
      "v": 117
    },
    {
      "midi": 26,
      "hit": false,
      "t": 184263.13749999975,
      "d": 25.80234374999418,
      "v": 87
    },
    {
      "midi": 27,
      "hit": false,
      "t": 184263.13749999975,
      "d": 418.5713541666628,
      "v": 127
    },
    {
      "midi": 39,
      "hit": false,
      "t": 184263.13749999975,
      "d": 424.3052083333314,
      "v": 127
    },
    {
      "midi": 55,
      "hit": false,
      "t": 184400.74999999974,
      "d": 117.54401041666279,
      "v": 127
    },
    {
      "midi": 67,
      "hit": false,
      "t": 184400.74999999974,
      "d": 134.7455729166686,
      "v": 127
    },
    {
      "midi": 55,
      "hit": false,
      "t": 184675.97499999974,
      "d": 97.47552083333721,
      "v": 124
    },
    {
      "midi": 67,
      "hit": false,
      "t": 184675.97499999974,
      "d": 114.67708333334303,
      "v": 114
    },
    {
      "midi": 27,
      "hit": false,
      "t": 184813.58749999976,
      "d": 54.471614583337214,
      "v": 127
    },
    {
      "midi": 39,
      "hit": false,
      "t": 184813.58749999976,
      "d": 54.471614583337214,
      "v": 109
    },
    {
      "midi": 67,
      "hit": false,
      "t": 185088.81249999977,
      "d": 48.73776041666861,
      "v": 99
    },
    {
      "midi": 55,
      "hit": false,
      "t": 185088.81249999977,
      "d": 51.60468749998836,
      "v": 108
    },
    {
      "midi": 40,
      "hit": false,
      "t": 185226.42499999976,
      "d": 63.07239583332557,
      "v": 127
    },
    {
      "midi": 28,
      "hit": false,
      "t": 185226.42499999976,
      "d": 77.40703124998254,
      "v": 127
    },
    {
      "midi": 55,
      "hit": false,
      "t": 185364.03749999974,
      "d": 243.68880208334303,
      "v": 127
    },
    {
      "midi": 67,
      "hit": false,
      "t": 185364.03749999974,
      "d": 255.15651041668025,
      "v": 127
    },
    {
      "midi": 29,
      "hit": false,
      "t": 185776.87499999977,
      "d": 83.14088541668025,
      "v": 114
    },
    {
      "midi": 41,
      "hit": false,
      "t": 185776.87499999977,
      "d": 83.14088541668025,
      "v": 121
    },
    {
      "midi": 55,
      "hit": false,
      "t": 185776.87499999977,
      "d": 91.7416666666686,
      "v": 124
    },
    {
      "midi": 67,
      "hit": false,
      "t": 185776.87499999977,
      "d": 120.41093750001164,
      "v": 119
    },
    {
      "midi": 26,
      "hit": false,
      "t": 185914.48749999978,
      "d": 65.93932291667443,
      "v": 121
    },
    {
      "midi": 38,
      "hit": false,
      "t": 185914.48749999978,
      "d": 77.40703125001164,
      "v": 121
    },
    {
      "midi": 61,
      "hit": false,
      "t": 186052.0999999998,
      "d": 137.61249999998836,
      "v": 127
    },
    {
      "midi": 56,
      "hit": false,
      "t": 186052.0999999998,
      "d": 154.81406249999418,
      "v": 127
    },
    {
      "midi": 65,
      "hit": false,
      "t": 186052.0999999998,
      "d": 157.68098958331393,
      "v": 127
    },
    {
      "midi": 41,
      "hit": false,
      "t": 186052.0999999998,
      "d": 361.2328124999767,
      "v": 127
    },
    {
      "midi": 29,
      "hit": false,
      "t": 186052.0999999998,
      "d": 418.5713541666628,
      "v": 127
    },
    {
      "midi": 64,
      "hit": false,
      "t": 186327.32499999978,
      "d": 71.67317708334303,
      "v": 127
    },
    {
      "midi": 60,
      "hit": false,
      "t": 186327.32499999978,
      "d": 108.94322916667443,
      "v": 127
    },
    {
      "midi": 55,
      "hit": false,
      "t": 186327.32499999978,
      "d": 126.14479166668025,
      "v": 127
    },
    {
      "midi": 38,
      "hit": false,
      "t": 186464.9374999998,
      "d": 77.40703125001164,
      "v": 112
    },
    {
      "midi": 26,
      "hit": false,
      "t": 186464.9374999998,
      "d": 88.87473958334886,
      "v": 95
    },
    {
      "midi": 58,
      "hit": false,
      "t": 186602.5499999998,
      "d": 48.73776041666861,
      "v": 127
    },
    {
      "midi": 53,
      "hit": false,
      "t": 186602.5499999998,
      "d": 54.471614583337214,
      "v": 127
    },
    {
      "midi": 62,
      "hit": false,
      "t": 186602.5499999998,
      "d": 54.471614583337214,
      "v": 127
    },
    {
      "midi": 42,
      "hit": false,
      "t": 186602.5499999998,
      "d": 375.5674479166919,
      "v": 127
    },
    {
      "midi": 30,
      "hit": false,
      "t": 186602.5499999998,
      "d": 421.43828125001164,
      "v": 127
    },
    {
      "midi": 55,
      "hit": false,
      "t": 186740.16249999983,
      "d": 149.08020833332557,
      "v": 127
    },
    {
      "midi": 60,
      "hit": false,
      "t": 186740.16249999983,
      "d": 149.08020833332557,
      "v": 127
    },
    {
      "midi": 64,
      "hit": false,
      "t": 186740.16249999983,
      "d": 166.2817708333314,
      "v": 127
    },
    {
      "midi": 38,
      "hit": false,
      "t": 187015.38749999984,
      "d": 77.40703124998254,
      "v": 114
    },
    {
      "midi": 26,
      "hit": false,
      "t": 187015.38749999984,
      "d": 88.87473958331975,
      "v": 108
    },
    {
      "midi": 58,
      "hit": false,
      "t": 187015.38749999984,
      "d": 111.81015624999418,
      "v": 127
    },
    {
      "midi": 62,
      "hit": false,
      "t": 187015.38749999984,
      "d": 111.81015624999418,
      "v": 127
    },
    {
      "midi": 53,
      "hit": false,
      "t": 187015.38749999984,
      "d": 114.67708333331393,
      "v": 127
    },
    {
      "midi": 25,
      "hit": false,
      "t": 187152.99999999983,
      "d": 31.536197916662786,
      "v": 89
    },
    {
      "midi": 79,
      "hit": false,
      "t": 187290.6124999998,
      "d": 60.20546875000582,
      "v": 112
    },
    {
      "midi": 67,
      "hit": false,
      "t": 187290.6124999998,
      "d": 63.07239583332557,
      "v": 124
    },
    {
      "midi": 31,
      "hit": false,
      "t": 187428.2249999998,
      "d": 54.471614583337214,
      "v": 112
    },
    {
      "midi": 43,
      "hit": false,
      "t": 187428.2249999998,
      "d": 54.471614583337214,
      "v": 127
    },
    {
      "midi": 67,
      "hit": false,
      "t": 187565.83749999982,
      "d": 286.69270833334303,
      "v": 127
    },
    {
      "midi": 79,
      "hit": false,
      "t": 187565.83749999982,
      "d": 286.69270833334303,
      "v": 127
    },
    {
      "midi": 79,
      "hit": false,
      "t": 187978.67499999984,
      "d": 48.73776041666861,
      "v": 102
    },
    {
      "midi": 67,
      "hit": false,
      "t": 187978.67499999984,
      "d": 57.338541666656965,
      "v": 110
    },
    {
      "midi": 36,
      "hit": false,
      "t": 187978.67499999984,
      "d": 88.87473958331975,
      "v": 112
    },
    {
      "midi": 24,
      "hit": false,
      "t": 187978.67499999984,
      "d": 146.21328124997672,
      "v": 127
    },
    {
      "midi": 37,
      "hit": false,
      "t": 188116.28749999983,
      "d": 68.80624999999418,
      "v": 127
    },
    {
      "midi": 25,
      "hit": false,
      "t": 188116.28749999983,
      "d": 97.47552083333721,
      "v": 127
    },
    {
      "midi": 73,
      "hit": false,
      "t": 188253.89999999985,
      "d": 17.20156250000582,
      "v": 106
    },
    {
      "midi": 67,
      "hit": false,
      "t": 188253.89999999985,
      "d": 166.2817708333605,
      "v": 127
    },
    {
      "midi": 38,
      "hit": false,
      "t": 188253.89999999985,
      "d": 169.14869791668025,
      "v": 127
    },
    {
      "midi": 26,
      "hit": false,
      "t": 188253.89999999985,
      "d": 180.61640625001746,
      "v": 127
    },
    {
      "midi": 79,
      "hit": false,
      "t": 188253.89999999985,
      "d": 186.35026041668607,
      "v": 127
    },
    {
      "midi": 37,
      "hit": false,
      "t": 188391.51249999987,
      "d": 108.94322916667443,
      "v": 127
    },
    {
      "midi": 25,
      "hit": false,
      "t": 188391.51249999987,
      "d": 126.14479166668025,
      "v": 124
    },
    {
      "midi": 67,
      "hit": false,
      "t": 188529.12499999988,
      "d": 63.07239583332557,
      "v": 95
    },
    {
      "midi": 79,
      "hit": false,
      "t": 188529.12499999988,
      "d": 65.93932291664532,
      "v": 92
    },
    {
      "midi": 38,
      "hit": false,
      "t": 188529.12499999988,
      "d": 157.68098958331393,
      "v": 124
    },
    {
      "midi": 26,
      "hit": false,
      "t": 188529.12499999988,
      "d": 160.54791666663368,
      "v": 124
    },
    {
      "midi": 27,
      "hit": false,
      "t": 188666.73749999987,
      "d": 341.16432291665114,
      "v": 127
    },
    {
      "midi": 39,
      "hit": false,
      "t": 188666.73749999987,
      "d": 358.36588541665697,
      "v": 127
    },
    {
      "midi": 67,
      "hit": false,
      "t": 188804.34999999986,
      "d": 111.81015624999418,
      "v": 127
    },
    {
      "midi": 79,
      "hit": false,
      "t": 188804.34999999986,
      "d": 137.61249999998836,
      "v": 127
    },
    {
      "midi": 67,
      "hit": false,
      "t": 189079.57499999987,
      "d": 88.87473958331975,
      "v": 114
    },
    {
      "midi": 79,
      "hit": false,
      "t": 189079.57499999987,
      "d": 111.81015624999418,
      "v": 121
    },
    {
      "midi": 39,
      "hit": false,
      "t": 189079.57499999987,
      "d": 220.7533854166686,
      "v": 124
    },
    {
      "midi": 27,
      "hit": false,
      "t": 189079.57499999987,
      "d": 269.4911458333372,
      "v": 127
    },
    {
      "midi": 79,
      "hit": false,
      "t": 189492.41249999986,
      "d": 57.338541666656965,
      "v": 110
    },
    {
      "midi": 67,
      "hit": false,
      "t": 189492.41249999986,
      "d": 68.80624999999418,
      "v": 112
    },
    {
      "midi": 40,
      "hit": false,
      "t": 189630.02499999985,
      "d": 65.93932291667443,
      "v": 127
    },
    {
      "midi": 28,
      "hit": false,
      "t": 189630.02499999985,
      "d": 68.80624999999418,
      "v": 127
    },
    {
      "midi": 79,
      "hit": false,
      "t": 189767.63749999984,
      "d": 260.89036458331975,
      "v": 127
    },
    {
      "midi": 67,
      "hit": false,
      "t": 189767.63749999984,
      "d": 266.62421874998836,
      "v": 127
    },
    {
      "midi": 67,
      "hit": false,
      "t": 190180.47499999983,
      "d": 68.80624999999418,
      "v": 119
    },
    {
      "midi": 79,
      "hit": false,
      "t": 190180.47499999983,
      "d": 80.2739583333314,
      "v": 119
    },
    {
      "midi": 29,
      "hit": false,
      "t": 190180.47499999983,
      "d": 86.0078125,
      "v": 110
    },
    {
      "midi": 41,
      "hit": false,
      "t": 190180.47499999983,
      "d": 88.87473958331975,
      "v": 106
    },
    {
      "midi": 26,
      "hit": false,
      "t": 190318.08749999982,
      "d": 65.93932291667443,
      "v": 105
    },
    {
      "midi": 38,
      "hit": false,
      "t": 190318.08749999982,
      "d": 68.80624999999418,
      "v": 117
    },
    {
      "midi": 27,
      "hit": false,
      "t": 190455.6999999998,
      "d": 22.935416666674428,
      "v": 83
    },
    {
      "midi": 73,
      "hit": false,
      "t": 190455.6999999998,
      "d": 143.34635416668607,
      "v": 127
    },
    {
      "midi": 85,
      "hit": false,
      "t": 190455.6999999998,
      "d": 160.5479166666919,
      "v": 127
    },
    {
      "midi": 41,
      "hit": false,
      "t": 190455.6999999998,
      "d": 369.8335937500524,
      "v": 127
    },
    {
      "midi": 29,
      "hit": false,
      "t": 190455.6999999998,
      "d": 404.23671875006403,
      "v": 127
    },
    {
      "midi": 85,
      "hit": false,
      "t": 190730.92499999984,
      "d": 22.935416666674428,
      "v": 106
    },
    {
      "midi": 74,
      "hit": false,
      "t": 190730.92499999984,
      "d": 34.40312500001164,
      "v": 127
    },
    {
      "midi": 72,
      "hit": false,
      "t": 190730.92499999984,
      "d": 88.87473958334886,
      "v": 127
    },
    {
      "midi": 84,
      "hit": false,
      "t": 190730.92499999984,
      "d": 106.07630208335468,
      "v": 127
    },
    {
      "midi": 26,
      "hit": false,
      "t": 190868.53749999986,
      "d": 68.80624999999418,
      "v": 89
    },
    {
      "midi": 38,
      "hit": false,
      "t": 190868.53749999986,
      "d": 74.54010416666279,
      "v": 100
    },
    {
      "midi": 82,
      "hit": false,
      "t": 191006.14999999985,
      "d": 60.20546875000582,
      "v": 124
    },
    {
      "midi": 70,
      "hit": false,
      "t": 191006.14999999985,
      "d": 68.80624999999418,
      "v": 124
    },
    {
      "midi": 42,
      "hit": false,
      "t": 191006.14999999985,
      "d": 387.0351562499709,
      "v": 127
    },
    {
      "midi": 30,
      "hit": false,
      "t": 191006.14999999985,
      "d": 395.63593749995925,
      "v": 127
    },
    {
      "midi": 72,
      "hit": false,
      "t": 191143.76249999984,
      "d": 91.7416666666686,
      "v": 127
    },
    {
      "midi": 84,
      "hit": false,
      "t": 191143.76249999984,
      "d": 100.34244791665697,
      "v": 127
    },
    {
      "midi": 40,
      "hit": false,
      "t": 191418.9874999998,
      "d": 31.536197916662786,
      "v": 78
    },
    {
      "midi": 38,
      "hit": false,
      "t": 191418.9874999998,
      "d": 51.60468749998836,
      "v": 93
    },
    {
      "midi": 26,
      "hit": false,
      "t": 191418.9874999998,
      "d": 71.67317708331393,
      "v": 86
    },
    {
      "midi": 80,
      "hit": false,
      "t": 191418.9874999998,
      "d": 100.34244791665697,
      "v": 43
    },
    {
      "midi": 82,
      "hit": false,
      "t": 191418.9874999998,
      "d": 100.34244791665697,
      "v": 127
    },
    {
      "midi": 70,
      "hit": false,
      "t": 191418.9874999998,
      "d": 131.87864583331975,
      "v": 127
    },
    {
      "midi": 81,
      "hit": false,
      "t": 191694.2124999998,
      "d": 14.334635416656965,
      "v": 92
    },
    {
      "midi": 67,
      "hit": false,
      "t": 191694.2124999998,
      "d": 71.67317708331393,
      "v": 103
    },
    {
      "midi": 79,
      "hit": false,
      "t": 191694.2124999998,
      "d": 77.40703124998254,
      "v": 98
    },
    {
      "midi": 43,
      "hit": false,
      "t": 191831.82499999978,
      "d": 63.07239583332557,
      "v": 127
    },
    {
      "midi": 31,
      "hit": false,
      "t": 191831.82499999978,
      "d": 71.67317708331393,
      "v": 112
    },
    {
      "midi": 67,
      "hit": false,
      "t": 191969.43749999977,
      "d": 278.0919270833256,
      "v": 127
    },
    {
      "midi": 79,
      "hit": false,
      "t": 191969.43749999977,
      "d": 280.9588541666453,
      "v": 127
    },
    {
      "midi": 67,
      "hit": false,
      "t": 192382.27499999973,
      "d": 60.20546875000582,
      "v": 94
    },
    {
      "midi": 79,
      "hit": false,
      "t": 192382.27499999973,
      "d": 65.93932291667443,
      "v": 106
    },
    {
      "midi": 36,
      "hit": false,
      "t": 192382.27499999973,
      "d": 86.0078125,
      "v": 112
    },
    {
      "midi": 24,
      "hit": false,
      "t": 192382.27499999973,
      "d": 146.21328124997672,
      "v": 102
    },
    {
      "midi": 37,
      "hit": false,
      "t": 192519.88749999972,
      "d": 74.54010416666279,
      "v": 124
    },
    {
      "midi": 25,
      "hit": false,
      "t": 192519.88749999972,
      "d": 108.94322916667443,
      "v": 127
    },
    {
      "midi": 67,
      "hit": false,
      "t": 192657.49999999974,
      "d": 140.4794270833081,
      "v": 127
    },
    {
      "midi": 38,
      "hit": false,
      "t": 192657.49999999974,
      "d": 151.94713541664532,
      "v": 127
    },
    {
      "midi": 79,
      "hit": false,
      "t": 192657.49999999974,
      "d": 160.54791666663368,
      "v": 127
    },
    {
      "midi": 26,
      "hit": false,
      "t": 192657.49999999974,
      "d": 169.14869791662204,
      "v": 127
    },
    {
      "midi": 37,
      "hit": false,
      "t": 192795.11249999973,
      "d": 103.20937499997672,
      "v": 120
    },
    {
      "midi": 25,
      "hit": false,
      "t": 192795.11249999973,
      "d": 111.81015624996508,
      "v": 127
    },
    {
      "midi": 79,
      "hit": false,
      "t": 192932.7249999997,
      "d": 57.338541666656965,
      "v": 91
    },
    {
      "midi": 67,
      "hit": false,
      "t": 192932.7249999997,
      "d": 68.80624999999418,
      "v": 100
    },
    {
      "midi": 26,
      "hit": false,
      "t": 192932.7249999997,
      "d": 88.87473958331975,
      "v": 121
    },
    {
      "midi": 38,
      "hit": false,
      "t": 192932.7249999997,
      "d": 157.68098958331393,
      "v": 117
    },
    {
      "midi": 26,
      "hit": false,
      "t": 193070.33749999967,
      "d": 28.66927083331393,
      "v": 82
    },
    {
      "midi": 27,
      "hit": false,
      "t": 193070.33749999967,
      "d": 303.89427083331975,
      "v": 127
    },
    {
      "midi": 39,
      "hit": false,
      "t": 193070.33749999967,
      "d": 315.36197916665697,
      "v": 127
    },
    {
      "midi": 78,
      "hit": false,
      "t": 193207.94999999966,
      "d": 17.20156250000582,
      "v": 74
    },
    {
      "midi": 67,
      "hit": false,
      "t": 193207.94999999966,
      "d": 134.7455729166686,
      "v": 127
    },
    {
      "midi": 79,
      "hit": false,
      "t": 193207.94999999966,
      "d": 149.08020833332557,
      "v": 127
    },
    {
      "midi": 67,
      "hit": false,
      "t": 193483.17499999967,
      "d": 100.34244791665697,
      "v": 124
    },
    {
      "midi": 79,
      "hit": false,
      "t": 193483.17499999967,
      "d": 106.07630208332557,
      "v": 117
    },
    {
      "midi": 39,
      "hit": false,
      "t": 193483.17499999967,
      "d": 220.7533854166686,
      "v": 127
    },
    {
      "midi": 27,
      "hit": false,
      "t": 193483.17499999967,
      "d": 249.42265625001164,
      "v": 127
    },
    {
      "midi": 40,
      "hit": false,
      "t": 193758.39999999967,
      "d": 157.68098958334303,
      "v": 127
    },
    {
      "midi": 28,
      "hit": false,
      "t": 193758.39999999967,
      "d": 163.41484375001164,
      "v": 127
    },
    {
      "midi": 59,
      "hit": false,
      "t": 194033.62499999968,
      "d": 1.4334635416744277,
      "v": 127
    },
    {
      "midi": 64,
      "hit": false,
      "t": 194033.62499999968,
      "d": 1.4334635416744277,
      "v": 127
    },
    {
      "midi": 55,
      "hit": false,
      "t": 194033.62499999968,
      "d": 286.69270833334303,
      "v": 69
    },
    {
      "midi": 67,
      "hit": false,
      "t": 194033.62499999968,
      "d": 303.89427083334886,
      "v": 127
    },
    {
      "midi": 48,
      "hit": false,
      "t": 194033.62499999968,
      "d": 369.8335937500233,
      "v": 127
    },
    {
      "midi": 36,
      "hit": false,
      "t": 194033.62499999968,
      "d": 387.0351562500291,
      "v": 127
    },
    {
      "midi": 57,
      "hit": false,
      "t": 194446.4624999997,
      "d": 1.4334635416744277,
      "v": 127
    },
    {
      "midi": 62,
      "hit": false,
      "t": 194446.4624999997,
      "d": 1.4334635416744277,
      "v": 127
    },
    {
      "midi": 54,
      "hit": false,
      "t": 194446.4624999997,
      "d": 295.2934895833314,
      "v": 69
    },
    {
      "midi": 66,
      "hit": false,
      "t": 194446.4624999997,
      "d": 306.7611979166686,
      "v": 127
    },
    {
      "midi": 47,
      "hit": false,
      "t": 194446.4624999997,
      "d": 366.9666666666744,
      "v": 127
    },
    {
      "midi": 35,
      "hit": false,
      "t": 194446.4624999997,
      "d": 369.8335937499942,
      "v": 127
    },
    {
      "midi": 55,
      "hit": false,
      "t": 194859.2999999997,
      "d": 1.4334635416744277,
      "v": 124
    },
    {
      "midi": 60,
      "hit": false,
      "t": 194859.2999999997,
      "d": 1.4334635416744277,
      "v": 127
    },
    {
      "midi": 52,
      "hit": false,
      "t": 194859.2999999997,
      "d": 255.15651041668025,
      "v": 69
    },
    {
      "midi": 64,
      "hit": false,
      "t": 194859.2999999997,
      "d": 292.42656250001164,
      "v": 127
    },
    {
      "midi": 29,
      "hit": false,
      "t": 194859.2999999997,
      "d": 384.16822916668025,
      "v": 127
    },
    {
      "midi": 41,
      "hit": false,
      "t": 194859.2999999997,
      "d": 384.16822916668025,
      "v": 127
    },
    {
      "midi": 57,
      "hit": false,
      "t": 195272.13749999972,
      "d": 1.4334635416744277,
      "v": 121
    },
    {
      "midi": 62,
      "hit": false,
      "t": 195272.13749999972,
      "d": 1.4334635416744277,
      "v": 127
    },
    {
      "midi": 66,
      "hit": false,
      "t": 195272.13749999972,
      "d": 1.4334635416744277,
      "v": 127
    },
    {
      "midi": 26,
      "hit": false,
      "t": 195272.13749999972,
      "d": 295.2934895833314,
      "v": 127
    },
    {
      "midi": 38,
      "hit": false,
      "t": 195272.13749999972,
      "d": 312.4950520833372,
      "v": 127
    },
    {
      "midi": 57,
      "hit": false,
      "t": 195684.97499999971,
      "d": 1.4334635416744277,
      "v": 117
    },
    {
      "midi": 62,
      "hit": false,
      "t": 195684.97499999971,
      "d": 1.4334635416744277,
      "v": 112
    },
    {
      "midi": 66,
      "hit": false,
      "t": 195684.97499999971,
      "d": 1.4334635416744277,
      "v": 116
    },
    {
      "midi": 26,
      "hit": false,
      "t": 195684.97499999971,
      "d": 114.67708333334303,
      "v": 127
    },
    {
      "midi": 38,
      "hit": false,
      "t": 195684.97499999971,
      "d": 146.21328125003492,
      "v": 127
    },
    {
      "midi": 59,
      "hit": false,
      "t": 195822.58749999973,
      "d": 1.4334635416744277,
      "v": 127
    },
    {
      "midi": 64,
      "hit": false,
      "t": 195822.58749999973,
      "d": 1.4334635416744277,
      "v": 127
    },
    {
      "midi": 40,
      "hit": false,
      "t": 195822.58749999973,
      "d": 100.34244791668607,
      "v": 127
    },
    {
      "midi": 55,
      "hit": false,
      "t": 195822.58749999973,
      "d": 100.34244791668607,
      "v": 69
    },
    {
      "midi": 28,
      "hit": false,
      "t": 195822.58749999973,
      "d": 111.81015625002328,
      "v": 127
    },
    {
      "midi": 67,
      "hit": false,
      "t": 195822.58749999973,
      "d": 120.41093750001164,
      "v": 127
    },
    {
      "midi": 52,
      "hit": false,
      "t": 195960.19999999955,
      "d": 1949.5104166666279,
      "v": 90
    },
    {
      "midi": 59,
      "hit": false,
      "t": 196235.42499999955,
      "d": 94.60859374998836,
      "v": 86
    },
    {
      "midi": 67,
      "hit": false,
      "t": 196235.42499999955,
      "d": 94.60859374998836,
      "v": 90
    },
    {
      "midi": 62,
      "hit": false,
      "t": 196235.42499999955,
      "d": 97.47552083330811,
      "v": 99
    },
    {
      "midi": 59,
      "hit": false,
      "t": 196510.64999999953,
      "d": 83.14088541668025,
      "v": 86
    },
    {
      "midi": 67,
      "hit": false,
      "t": 196510.64999999953,
      "d": 83.14088541668025,
      "v": 94
    },
    {
      "midi": 62,
      "hit": false,
      "t": 196510.64999999953,
      "d": 91.7416666666686,
      "v": 101
    },
    {
      "midi": 67,
      "hit": false,
      "t": 196785.87499999953,
      "d": 83.14088541668025,
      "v": 92
    },
    {
      "midi": 59,
      "hit": false,
      "t": 196785.87499999953,
      "d": 94.60859375001746,
      "v": 88
    },
    {
      "midi": 62,
      "hit": false,
      "t": 196785.87499999953,
      "d": 94.60859375001746,
      "v": 101
    },
    {
      "midi": 67,
      "hit": false,
      "t": 197061.09999999954,
      "d": 344.03125,
      "v": 94
    },
    {
      "midi": 59,
      "hit": false,
      "t": 197061.09999999954,
      "d": 349.7651041666686,
      "v": 88
    },
    {
      "midi": 62,
      "hit": false,
      "t": 197061.09999999954,
      "d": 355.4989583333372,
      "v": 101
    },
    {
      "midi": 57,
      "hit": false,
      "t": 197473.93749999953,
      "d": 111.81015624999418,
      "v": 90
    },
    {
      "midi": 62,
      "hit": false,
      "t": 197473.93749999953,
      "d": 120.41093749998254,
      "v": 101
    },
    {
      "midi": 66,
      "hit": false,
      "t": 197473.93749999953,
      "d": 146.21328124997672,
      "v": 100
    },
    {
      "midi": 52,
      "hit": false,
      "t": 198161.9999999995,
      "d": 1949.510416666657,
      "v": 99
    },
    {
      "midi": 59,
      "hit": false,
      "t": 198437.2249999995,
      "d": 86.0078125,
      "v": 85
    },
    {
      "midi": 62,
      "hit": false,
      "t": 198437.2249999995,
      "d": 91.7416666666686,
      "v": 97
    },
    {
      "midi": 67,
      "hit": false,
      "t": 198437.2249999995,
      "d": 97.47552083333721,
      "v": 86
    },
    {
      "midi": 59,
      "hit": false,
      "t": 198712.44999999952,
      "d": 88.87473958331975,
      "v": 86
    },
    {
      "midi": 62,
      "hit": false,
      "t": 198712.44999999952,
      "d": 94.60859374998836,
      "v": 101
    },
    {
      "midi": 67,
      "hit": false,
      "t": 198712.44999999952,
      "d": 97.47552083330811,
      "v": 94
    },
    {
      "midi": 59,
      "hit": false,
      "t": 198987.6749999995,
      "d": 83.14088541668025,
      "v": 88
    },
    {
      "midi": 62,
      "hit": false,
      "t": 198987.6749999995,
      "d": 86.0078125,
      "v": 104
    },
    {
      "midi": 67,
      "hit": false,
      "t": 198987.6749999995,
      "d": 86.0078125,
      "v": 97
    },
    {
      "midi": 59,
      "hit": false,
      "t": 199262.8999999995,
      "d": 298.16041666668025,
      "v": 92
    },
    {
      "midi": 67,
      "hit": false,
      "t": 199262.8999999995,
      "d": 301.02734375,
      "v": 99
    },
    {
      "midi": 62,
      "hit": false,
      "t": 199262.8999999995,
      "d": 309.62812499998836,
      "v": 104
    },
    {
      "midi": 57,
      "hit": false,
      "t": 199675.7374999995,
      "d": 94.60859374998836,
      "v": 92
    },
    {
      "midi": 62,
      "hit": false,
      "t": 199675.7374999995,
      "d": 106.07630208332557,
      "v": 101
    },
    {
      "midi": 66,
      "hit": false,
      "t": 199675.7374999995,
      "d": 123.2778645833314,
      "v": 96
    },
    {
      "midi": 52,
      "hit": false,
      "t": 200363.7999999995,
      "d": 2153.0622395832324,
      "v": 94
    },
    {
      "midi": 59,
      "hit": false,
      "t": 200639.0249999995,
      "d": 80.2739583333314,
      "v": 88
    },
    {
      "midi": 62,
      "hit": false,
      "t": 200639.0249999995,
      "d": 86.0078125,
      "v": 101
    },
    {
      "midi": 67,
      "hit": false,
      "t": 200639.0249999995,
      "d": 94.60859374998836,
      "v": 101
    },
    {
      "midi": 67,
      "hit": false,
      "t": 200914.24999999948,
      "d": 80.2739583333314,
      "v": 97
    },
    {
      "midi": 59,
      "hit": false,
      "t": 200914.24999999948,
      "d": 86.0078125,
      "v": 90
    },
    {
      "midi": 62,
      "hit": false,
      "t": 200914.24999999948,
      "d": 88.87473958331975,
      "v": 99
    },
    {
      "midi": 59,
      "hit": false,
      "t": 201189.47499999945,
      "d": 86.0078125,
      "v": 85
    },
    {
      "midi": 62,
      "hit": false,
      "t": 201189.47499999945,
      "d": 88.87473958331975,
      "v": 99
    },
    {
      "midi": 67,
      "hit": false,
      "t": 201189.47499999945,
      "d": 94.60859374998836,
      "v": 92
    },
    {
      "midi": 59,
      "hit": false,
      "t": 201464.69999999943,
      "d": 295.2934895833314,
      "v": 92
    },
    {
      "midi": 67,
      "hit": false,
      "t": 201464.69999999943,
      "d": 303.89427083331975,
      "v": 99
    },
    {
      "midi": 62,
      "hit": false,
      "t": 201464.69999999943,
      "d": 318.2289062499767,
      "v": 104
    },
    {
      "midi": 57,
      "hit": false,
      "t": 201877.5374999994,
      "d": 255.15651041668025,
      "v": 94
    },
    {
      "midi": 62,
      "hit": false,
      "t": 201877.5374999994,
      "d": 292.42656250001164,
      "v": 99
    },
    {
      "midi": 66,
      "hit": false,
      "t": 201877.5374999994,
      "d": 303.89427083334886,
      "v": 92
    },
    {
      "midi": 59,
      "hit": false,
      "t": 202290.37499999942,
      "d": 117.54401041666279,
      "v": 86
    },
    {
      "midi": 62,
      "hit": false,
      "t": 202290.37499999942,
      "d": 131.87864583331975,
      "v": 88
    },
    {
      "midi": 67,
      "hit": false,
      "t": 202290.37499999942,
      "d": 134.7455729166395,
      "v": 83
    },
    {
      "midi": 67,
      "hit": false,
      "t": 202565.5999999994,
      "d": 447.2406250000058,
      "v": 113
    },
    {
      "midi": 71,
      "hit": false,
      "t": 202565.5999999994,
      "d": 452.9744791666744,
      "v": 107
    },
    {
      "midi": 64,
      "hit": false,
      "t": 202565.5999999994,
      "d": 455.8414062499942,
      "v": 104
    },
    {
      "midi": 48,
      "hit": false,
      "t": 202565.5999999994,
      "d": 513.1799479166511,
      "v": 83
    },
    {
      "midi": 69,
      "hit": false,
      "t": 203116.04999999938,
      "d": 441.5067708333372,
      "v": 101
    },
    {
      "midi": 62,
      "hit": false,
      "t": 203116.04999999938,
      "d": 450.1075520833256,
      "v": 97
    },
    {
      "midi": 66,
      "hit": false,
      "t": 203116.04999999938,
      "d": 458.70833333331393,
      "v": 104
    },
    {
      "midi": 47,
      "hit": false,
      "t": 203116.04999999938,
      "d": 507.44609374998254,
      "v": 90
    },
    {
      "midi": 60,
      "hit": false,
      "t": 203666.49999999936,
      "d": 438.63984374998836,
      "v": 94
    },
    {
      "midi": 64,
      "hit": false,
      "t": 203666.49999999936,
      "d": 455.8414062499942,
      "v": 101
    },
    {
      "midi": 67,
      "hit": false,
      "t": 203666.49999999936,
      "d": 461.5752604166628,
      "v": 99
    },
    {
      "midi": 45,
      "hit": false,
      "t": 203666.49999999936,
      "d": 524.6476562499884,
      "v": 88
    },
    {
      "midi": 47,
      "hit": false,
      "t": 204216.94999999934,
      "d": 493.1114583333256,
      "v": 88
    },
    {
      "midi": 66,
      "hit": false,
      "t": 204216.94999999934,
      "d": 518.9138020833198,
      "v": 92
    },
    {
      "midi": 69,
      "hit": false,
      "t": 204216.94999999934,
      "d": 521.7807291666395,
      "v": 90
    },
    {
      "midi": 62,
      "hit": false,
      "t": 204216.94999999934,
      "d": 530.3815104166279,
      "v": 97
    },
    {
      "midi": 52,
      "hit": false,
      "t": 204767.3999999993,
      "d": 1949.5104166666279,
      "v": 90
    },
    {
      "midi": 59,
      "hit": false,
      "t": 205042.6249999993,
      "d": 94.60859374998836,
      "v": 86
    },
    {
      "midi": 67,
      "hit": false,
      "t": 205042.6249999993,
      "d": 94.60859374998836,
      "v": 90
    },
    {
      "midi": 62,
      "hit": false,
      "t": 205042.6249999993,
      "d": 97.47552083330811,
      "v": 99
    },
    {
      "midi": 59,
      "hit": false,
      "t": 205317.84999999928,
      "d": 83.14088541668025,
      "v": 86
    },
    {
      "midi": 67,
      "hit": false,
      "t": 205317.84999999928,
      "d": 83.14088541668025,
      "v": 94
    },
    {
      "midi": 62,
      "hit": false,
      "t": 205317.84999999928,
      "d": 91.7416666666686,
      "v": 101
    },
    {
      "midi": 67,
      "hit": false,
      "t": 205593.07499999928,
      "d": 83.14088541668025,
      "v": 92
    },
    {
      "midi": 59,
      "hit": false,
      "t": 205593.07499999928,
      "d": 94.60859375001746,
      "v": 88
    },
    {
      "midi": 62,
      "hit": false,
      "t": 205593.07499999928,
      "d": 94.60859375001746,
      "v": 101
    },
    {
      "midi": 67,
      "hit": false,
      "t": 205868.2999999993,
      "d": 344.03125,
      "v": 94
    },
    {
      "midi": 59,
      "hit": false,
      "t": 205868.2999999993,
      "d": 349.7651041666686,
      "v": 88
    },
    {
      "midi": 62,
      "hit": false,
      "t": 205868.2999999993,
      "d": 355.4989583333372,
      "v": 101
    },
    {
      "midi": 57,
      "hit": false,
      "t": 206281.13749999928,
      "d": 111.81015624999418,
      "v": 90
    },
    {
      "midi": 62,
      "hit": false,
      "t": 206281.13749999928,
      "d": 120.41093749998254,
      "v": 101
    },
    {
      "midi": 66,
      "hit": false,
      "t": 206281.13749999928,
      "d": 146.21328124997672,
      "v": 100
    },
    {
      "midi": 52,
      "hit": false,
      "t": 206969.19999999925,
      "d": 1949.510416666657,
      "v": 99
    },
    {
      "midi": 59,
      "hit": false,
      "t": 207244.42499999926,
      "d": 86.0078125,
      "v": 85
    },
    {
      "midi": 62,
      "hit": false,
      "t": 207244.42499999926,
      "d": 91.7416666666686,
      "v": 97
    },
    {
      "midi": 67,
      "hit": false,
      "t": 207244.42499999926,
      "d": 97.47552083333721,
      "v": 86
    },
    {
      "midi": 59,
      "hit": false,
      "t": 207519.64999999927,
      "d": 88.87473958331975,
      "v": 86
    },
    {
      "midi": 62,
      "hit": false,
      "t": 207519.64999999927,
      "d": 94.60859374998836,
      "v": 101
    },
    {
      "midi": 67,
      "hit": false,
      "t": 207519.64999999927,
      "d": 97.47552083330811,
      "v": 94
    },
    {
      "midi": 59,
      "hit": false,
      "t": 207794.87499999924,
      "d": 83.14088541668025,
      "v": 88
    },
    {
      "midi": 62,
      "hit": false,
      "t": 207794.87499999924,
      "d": 86.0078125,
      "v": 104
    },
    {
      "midi": 67,
      "hit": false,
      "t": 207794.87499999924,
      "d": 86.0078125,
      "v": 97
    },
    {
      "midi": 59,
      "hit": false,
      "t": 208070.09999999925,
      "d": 298.16041666668025,
      "v": 92
    },
    {
      "midi": 67,
      "hit": false,
      "t": 208070.09999999925,
      "d": 301.02734375,
      "v": 99
    },
    {
      "midi": 62,
      "hit": false,
      "t": 208070.09999999925,
      "d": 309.62812499998836,
      "v": 104
    },
    {
      "midi": 57,
      "hit": false,
      "t": 208482.93749999924,
      "d": 94.60859374998836,
      "v": 92
    },
    {
      "midi": 62,
      "hit": false,
      "t": 208482.93749999924,
      "d": 106.07630208332557,
      "v": 101
    },
    {
      "midi": 66,
      "hit": false,
      "t": 208482.93749999924,
      "d": 123.2778645833314,
      "v": 96
    },
    {
      "midi": 52,
      "hit": false,
      "t": 209170.99999999924,
      "d": 2153.0622395832324,
      "v": 94
    },
    {
      "midi": 59,
      "hit": false,
      "t": 209446.22499999925,
      "d": 80.2739583333314,
      "v": 88
    },
    {
      "midi": 62,
      "hit": false,
      "t": 209446.22499999925,
      "d": 86.0078125,
      "v": 101
    },
    {
      "midi": 67,
      "hit": false,
      "t": 209446.22499999925,
      "d": 94.60859374998836,
      "v": 101
    },
    {
      "midi": 67,
      "hit": false,
      "t": 209721.44999999923,
      "d": 80.2739583333314,
      "v": 97
    },
    {
      "midi": 59,
      "hit": false,
      "t": 209721.44999999923,
      "d": 86.0078125,
      "v": 90
    },
    {
      "midi": 62,
      "hit": false,
      "t": 209721.44999999923,
      "d": 88.87473958331975,
      "v": 99
    },
    {
      "midi": 59,
      "hit": false,
      "t": 209996.6749999992,
      "d": 86.0078125,
      "v": 85
    },
    {
      "midi": 62,
      "hit": false,
      "t": 209996.6749999992,
      "d": 88.87473958331975,
      "v": 99
    },
    {
      "midi": 67,
      "hit": false,
      "t": 209996.6749999992,
      "d": 94.60859374998836,
      "v": 92
    },
    {
      "midi": 59,
      "hit": false,
      "t": 210271.89999999918,
      "d": 295.2934895833314,
      "v": 92
    },
    {
      "midi": 67,
      "hit": false,
      "t": 210271.89999999918,
      "d": 303.89427083331975,
      "v": 99
    },
    {
      "midi": 62,
      "hit": false,
      "t": 210271.89999999918,
      "d": 318.2289062499767,
      "v": 104
    },
    {
      "midi": 57,
      "hit": false,
      "t": 210684.73749999914,
      "d": 255.15651041668025,
      "v": 94
    },
    {
      "midi": 62,
      "hit": false,
      "t": 210684.73749999914,
      "d": 292.42656250001164,
      "v": 99
    },
    {
      "midi": 66,
      "hit": false,
      "t": 210684.73749999914,
      "d": 303.89427083334886,
      "v": 92
    },
    {
      "midi": 59,
      "hit": false,
      "t": 211097.57499999917,
      "d": 117.54401041666279,
      "v": 86
    },
    {
      "midi": 62,
      "hit": false,
      "t": 211097.57499999917,
      "d": 131.87864583331975,
      "v": 88
    },
    {
      "midi": 67,
      "hit": false,
      "t": 211097.57499999917,
      "d": 134.7455729166395,
      "v": 83
    },
    {
      "midi": 59,
      "hit": false,
      "t": 211648.02499999915,
      "d": 1.4334635416744277,
      "v": 93
    },
    {
      "midi": 64,
      "hit": false,
      "t": 211648.02499999915,
      "d": 1.4334635416744277,
      "v": 93
    },
    {
      "midi": 55,
      "hit": false,
      "t": 211648.02499999915,
      "d": 286.69270833334303,
      "v": 93
    },
    {
      "midi": 67,
      "hit": false,
      "t": 211648.02499999915,
      "d": 303.89427083334886,
      "v": 93
    },
    {
      "midi": 48,
      "hit": false,
      "t": 211648.02499999915,
      "d": 369.8335937500233,
      "v": 93
    },
    {
      "midi": 57,
      "hit": false,
      "t": 212060.86249999917,
      "d": 1.4334635416744277,
      "v": 93
    },
    {
      "midi": 62,
      "hit": false,
      "t": 212060.86249999917,
      "d": 1.4334635416744277,
      "v": 93
    },
    {
      "midi": 54,
      "hit": false,
      "t": 212060.86249999917,
      "d": 295.2934895833314,
      "v": 93
    },
    {
      "midi": 66,
      "hit": false,
      "t": 212060.86249999917,
      "d": 306.7611979166686,
      "v": 93
    },
    {
      "midi": 47,
      "hit": false,
      "t": 212060.86249999917,
      "d": 366.9666666666744,
      "v": 93
    },
    {
      "midi": 55,
      "hit": false,
      "t": 212473.69999999917,
      "d": 1.4334635416744277,
      "v": 93
    },
    {
      "midi": 60,
      "hit": false,
      "t": 212473.69999999917,
      "d": 1.4334635416744277,
      "v": 93
    },
    {
      "midi": 52,
      "hit": false,
      "t": 212473.69999999917,
      "d": 255.15651041668025,
      "v": 93
    },
    {
      "midi": 64,
      "hit": false,
      "t": 212473.69999999917,
      "d": 292.42656250001164,
      "v": 93
    },
    {
      "midi": 41,
      "hit": false,
      "t": 212473.69999999917,
      "d": 384.16822916668025,
      "v": 93
    },
    {
      "midi": 57,
      "hit": false,
      "t": 212886.5374999992,
      "d": 1.4334635416744277,
      "v": 93
    },
    {
      "midi": 62,
      "hit": false,
      "t": 212886.5374999992,
      "d": 1.4334635416744277,
      "v": 93
    },
    {
      "midi": 66,
      "hit": false,
      "t": 212886.5374999992,
      "d": 1.4334635416744277,
      "v": 93
    },
    {
      "midi": 38,
      "hit": false,
      "t": 212886.5374999992,
      "d": 312.4950520833372,
      "v": 93
    },
    {
      "midi": 57,
      "hit": false,
      "t": 213299.37499999919,
      "d": 1.4334635416744277,
      "v": 93
    },
    {
      "midi": 62,
      "hit": false,
      "t": 213299.37499999919,
      "d": 1.4334635416744277,
      "v": 93
    },
    {
      "midi": 66,
      "hit": false,
      "t": 213299.37499999919,
      "d": 1.4334635416744277,
      "v": 93
    },
    {
      "midi": 38,
      "hit": false,
      "t": 213299.37499999919,
      "d": 146.21328125003492,
      "v": 93
    },
    {
      "midi": 59,
      "hit": false,
      "t": 213436.9874999992,
      "d": 1.4334635416744277,
      "v": 93
    },
    {
      "midi": 64,
      "hit": false,
      "t": 213436.9874999992,
      "d": 1.4334635416744277,
      "v": 93
    },
    {
      "midi": 40,
      "hit": false,
      "t": 213436.9874999992,
      "d": 100.34244791668607,
      "v": 93
    },
    {
      "midi": 55,
      "hit": false,
      "t": 213436.9874999992,
      "d": 100.34244791668607,
      "v": 93
    },
    {
      "midi": 67,
      "hit": false,
      "t": 213436.9874999992,
      "d": 120.41093750001164,
      "v": 93
    },
    {
      "midi": 52,
      "hit": false,
      "t": 213574.59999999922,
      "d": 1949.5104166666279,
      "v": 90
    },
    {
      "midi": 59,
      "hit": false,
      "t": 213849.82499999923,
      "d": 94.60859374998836,
      "v": 86
    },
    {
      "midi": 67,
      "hit": false,
      "t": 213849.82499999923,
      "d": 94.60859374998836,
      "v": 90
    },
    {
      "midi": 62,
      "hit": false,
      "t": 213849.82499999923,
      "d": 97.47552083330811,
      "v": 99
    },
    {
      "midi": 59,
      "hit": false,
      "t": 214125.0499999992,
      "d": 83.14088541668025,
      "v": 86
    },
    {
      "midi": 67,
      "hit": false,
      "t": 214125.0499999992,
      "d": 83.14088541668025,
      "v": 94
    },
    {
      "midi": 62,
      "hit": false,
      "t": 214125.0499999992,
      "d": 91.7416666666686,
      "v": 101
    },
    {
      "midi": 67,
      "hit": false,
      "t": 214400.2749999992,
      "d": 83.14088541668025,
      "v": 92
    },
    {
      "midi": 59,
      "hit": false,
      "t": 214400.2749999992,
      "d": 94.60859375001746,
      "v": 88
    },
    {
      "midi": 62,
      "hit": false,
      "t": 214400.2749999992,
      "d": 94.60859375001746,
      "v": 101
    },
    {
      "midi": 67,
      "hit": false,
      "t": 214675.4999999992,
      "d": 344.03125,
      "v": 94
    },
    {
      "midi": 59,
      "hit": false,
      "t": 214675.4999999992,
      "d": 349.7651041666686,
      "v": 88
    },
    {
      "midi": 62,
      "hit": false,
      "t": 214675.4999999992,
      "d": 355.4989583333372,
      "v": 101
    },
    {
      "midi": 57,
      "hit": false,
      "t": 215088.3374999992,
      "d": 111.81015624999418,
      "v": 90
    },
    {
      "midi": 62,
      "hit": false,
      "t": 215088.3374999992,
      "d": 120.41093749998254,
      "v": 101
    },
    {
      "midi": 66,
      "hit": false,
      "t": 215088.3374999992,
      "d": 146.21328124997672,
      "v": 100
    },
    {
      "midi": 52,
      "hit": false,
      "t": 215776.39999999918,
      "d": 1949.510416666657,
      "v": 99
    },
    {
      "midi": 59,
      "hit": false,
      "t": 216051.62499999919,
      "d": 86.0078125,
      "v": 85
    },
    {
      "midi": 62,
      "hit": false,
      "t": 216051.62499999919,
      "d": 91.7416666666686,
      "v": 97
    },
    {
      "midi": 67,
      "hit": false,
      "t": 216051.62499999919,
      "d": 97.47552083333721,
      "v": 86
    },
    {
      "midi": 59,
      "hit": false,
      "t": 216326.8499999992,
      "d": 88.87473958331975,
      "v": 86
    },
    {
      "midi": 62,
      "hit": false,
      "t": 216326.8499999992,
      "d": 94.60859374998836,
      "v": 101
    },
    {
      "midi": 67,
      "hit": false,
      "t": 216326.8499999992,
      "d": 97.47552083330811,
      "v": 94
    },
    {
      "midi": 59,
      "hit": false,
      "t": 216602.07499999917,
      "d": 83.14088541668025,
      "v": 88
    },
    {
      "midi": 62,
      "hit": false,
      "t": 216602.07499999917,
      "d": 86.0078125,
      "v": 104
    },
    {
      "midi": 67,
      "hit": false,
      "t": 216602.07499999917,
      "d": 86.0078125,
      "v": 97
    },
    {
      "midi": 59,
      "hit": false,
      "t": 216877.29999999917,
      "d": 298.16041666668025,
      "v": 92
    },
    {
      "midi": 67,
      "hit": false,
      "t": 216877.29999999917,
      "d": 301.02734375,
      "v": 99
    },
    {
      "midi": 62,
      "hit": false,
      "t": 216877.29999999917,
      "d": 309.62812499998836,
      "v": 104
    },
    {
      "midi": 57,
      "hit": false,
      "t": 217290.13749999917,
      "d": 94.60859374998836,
      "v": 92
    },
    {
      "midi": 62,
      "hit": false,
      "t": 217290.13749999917,
      "d": 106.07630208332557,
      "v": 101
    },
    {
      "midi": 66,
      "hit": false,
      "t": 217290.13749999917,
      "d": 123.2778645833314,
      "v": 96
    },
    {
      "midi": 52,
      "hit": false,
      "t": 217978.19999999917,
      "d": 2153.0622395832324,
      "v": 94
    },
    {
      "midi": 59,
      "hit": false,
      "t": 218253.42499999917,
      "d": 80.2739583333314,
      "v": 88
    },
    {
      "midi": 62,
      "hit": false,
      "t": 218253.42499999917,
      "d": 86.0078125,
      "v": 101
    },
    {
      "midi": 67,
      "hit": false,
      "t": 218253.42499999917,
      "d": 94.60859374998836,
      "v": 101
    },
    {
      "midi": 67,
      "hit": false,
      "t": 218528.64999999915,
      "d": 80.2739583333314,
      "v": 97
    },
    {
      "midi": 59,
      "hit": false,
      "t": 218528.64999999915,
      "d": 86.0078125,
      "v": 90
    },
    {
      "midi": 62,
      "hit": false,
      "t": 218528.64999999915,
      "d": 88.87473958331975,
      "v": 99
    },
    {
      "midi": 59,
      "hit": false,
      "t": 218803.87499999913,
      "d": 86.0078125,
      "v": 85
    },
    {
      "midi": 62,
      "hit": false,
      "t": 218803.87499999913,
      "d": 88.87473958331975,
      "v": 99
    },
    {
      "midi": 67,
      "hit": false,
      "t": 218803.87499999913,
      "d": 94.60859374998836,
      "v": 92
    },
    {
      "midi": 59,
      "hit": false,
      "t": 219079.0999999991,
      "d": 295.2934895833314,
      "v": 92
    },
    {
      "midi": 67,
      "hit": false,
      "t": 219079.0999999991,
      "d": 303.89427083331975,
      "v": 99
    },
    {
      "midi": 62,
      "hit": false,
      "t": 219079.0999999991,
      "d": 318.2289062499767,
      "v": 104
    },
    {
      "midi": 57,
      "hit": false,
      "t": 219491.93749999907,
      "d": 255.15651041668025,
      "v": 94
    },
    {
      "midi": 62,
      "hit": false,
      "t": 219491.93749999907,
      "d": 292.42656250001164,
      "v": 99
    },
    {
      "midi": 66,
      "hit": false,
      "t": 219491.93749999907,
      "d": 303.89427083334886,
      "v": 92
    },
    {
      "midi": 59,
      "hit": false,
      "t": 219904.7749999991,
      "d": 117.54401041666279,
      "v": 86
    },
    {
      "midi": 62,
      "hit": false,
      "t": 219904.7749999991,
      "d": 131.87864583331975,
      "v": 88
    },
    {
      "midi": 67,
      "hit": false,
      "t": 219904.7749999991,
      "d": 134.7455729166395,
      "v": 83
    },
    {
      "midi": 67,
      "hit": false,
      "t": 220179.99999999907,
      "d": 447.2406250000058,
      "v": 113
    },
    {
      "midi": 71,
      "hit": false,
      "t": 220179.99999999907,
      "d": 452.9744791666744,
      "v": 107
    },
    {
      "midi": 64,
      "hit": false,
      "t": 220179.99999999907,
      "d": 455.8414062499942,
      "v": 104
    },
    {
      "midi": 48,
      "hit": false,
      "t": 220179.99999999907,
      "d": 513.1799479166511,
      "v": 83
    },
    {
      "midi": 69,
      "hit": false,
      "t": 220730.44999999905,
      "d": 441.5067708333372,
      "v": 101
    },
    {
      "midi": 62,
      "hit": false,
      "t": 220730.44999999905,
      "d": 450.1075520833256,
      "v": 97
    },
    {
      "midi": 66,
      "hit": false,
      "t": 220730.44999999905,
      "d": 458.70833333331393,
      "v": 104
    },
    {
      "midi": 47,
      "hit": false,
      "t": 220730.44999999905,
      "d": 507.44609374998254,
      "v": 90
    },
    {
      "midi": 60,
      "hit": false,
      "t": 221280.89999999903,
      "d": 438.63984374998836,
      "v": 94
    },
    {
      "midi": 64,
      "hit": false,
      "t": 221280.89999999903,
      "d": 455.8414062499942,
      "v": 101
    },
    {
      "midi": 67,
      "hit": false,
      "t": 221280.89999999903,
      "d": 461.5752604166628,
      "v": 99
    },
    {
      "midi": 45,
      "hit": false,
      "t": 221280.89999999903,
      "d": 524.6476562499884,
      "v": 88
    },
    {
      "midi": 47,
      "hit": false,
      "t": 221831.34999999902,
      "d": 493.1114583333256,
      "v": 88
    },
    {
      "midi": 66,
      "hit": false,
      "t": 221831.34999999902,
      "d": 518.9138020833198,
      "v": 92
    },
    {
      "midi": 69,
      "hit": false,
      "t": 221831.34999999902,
      "d": 521.7807291666395,
      "v": 90
    },
    {
      "midi": 62,
      "hit": false,
      "t": 221831.34999999902,
      "d": 530.3815104166279,
      "v": 97
    },
    {
      "midi": 52,
      "hit": false,
      "t": 222381.79999999897,
      "d": 1949.5104166666279,
      "v": 90
    },
    {
      "midi": 59,
      "hit": false,
      "t": 222657.02499999898,
      "d": 94.60859374998836,
      "v": 86
    },
    {
      "midi": 67,
      "hit": false,
      "t": 222657.02499999898,
      "d": 94.60859374998836,
      "v": 90
    },
    {
      "midi": 62,
      "hit": false,
      "t": 222657.02499999898,
      "d": 97.47552083330811,
      "v": 99
    },
    {
      "midi": 59,
      "hit": false,
      "t": 222932.24999999895,
      "d": 83.14088541668025,
      "v": 86
    },
    {
      "midi": 67,
      "hit": false,
      "t": 222932.24999999895,
      "d": 83.14088541668025,
      "v": 94
    },
    {
      "midi": 62,
      "hit": false,
      "t": 222932.24999999895,
      "d": 91.7416666666686,
      "v": 101
    },
    {
      "midi": 67,
      "hit": false,
      "t": 223207.47499999896,
      "d": 83.14088541668025,
      "v": 92
    },
    {
      "midi": 59,
      "hit": false,
      "t": 223207.47499999896,
      "d": 94.60859375001746,
      "v": 88
    },
    {
      "midi": 62,
      "hit": false,
      "t": 223207.47499999896,
      "d": 94.60859375001746,
      "v": 101
    },
    {
      "midi": 67,
      "hit": false,
      "t": 223482.69999999896,
      "d": 344.03125,
      "v": 94
    },
    {
      "midi": 59,
      "hit": false,
      "t": 223482.69999999896,
      "d": 349.7651041666686,
      "v": 88
    },
    {
      "midi": 62,
      "hit": false,
      "t": 223482.69999999896,
      "d": 355.4989583333372,
      "v": 101
    },
    {
      "midi": 57,
      "hit": false,
      "t": 223895.53749999896,
      "d": 111.81015624999418,
      "v": 90
    },
    {
      "midi": 62,
      "hit": false,
      "t": 223895.53749999896,
      "d": 120.41093749998254,
      "v": 101
    },
    {
      "midi": 66,
      "hit": false,
      "t": 223895.53749999896,
      "d": 146.21328124997672,
      "v": 100
    },
    {
      "midi": 52,
      "hit": false,
      "t": 224583.59999999893,
      "d": 1949.510416666657,
      "v": 99
    },
    {
      "midi": 59,
      "hit": false,
      "t": 224858.82499999893,
      "d": 86.0078125,
      "v": 85
    },
    {
      "midi": 62,
      "hit": false,
      "t": 224858.82499999893,
      "d": 91.7416666666686,
      "v": 97
    },
    {
      "midi": 67,
      "hit": false,
      "t": 224858.82499999893,
      "d": 97.47552083333721,
      "v": 86
    },
    {
      "midi": 59,
      "hit": false,
      "t": 225134.04999999894,
      "d": 88.87473958331975,
      "v": 86
    },
    {
      "midi": 62,
      "hit": false,
      "t": 225134.04999999894,
      "d": 94.60859374998836,
      "v": 101
    },
    {
      "midi": 67,
      "hit": false,
      "t": 225134.04999999894,
      "d": 97.47552083330811,
      "v": 94
    },
    {
      "midi": 59,
      "hit": false,
      "t": 225409.27499999892,
      "d": 83.14088541668025,
      "v": 88
    },
    {
      "midi": 62,
      "hit": false,
      "t": 225409.27499999892,
      "d": 86.0078125,
      "v": 104
    },
    {
      "midi": 67,
      "hit": false,
      "t": 225409.27499999892,
      "d": 86.0078125,
      "v": 97
    },
    {
      "midi": 59,
      "hit": false,
      "t": 225684.49999999892,
      "d": 298.16041666668025,
      "v": 92
    },
    {
      "midi": 67,
      "hit": false,
      "t": 225684.49999999892,
      "d": 301.02734375,
      "v": 99
    },
    {
      "midi": 62,
      "hit": false,
      "t": 225684.49999999892,
      "d": 309.62812499998836,
      "v": 104
    },
    {
      "midi": 57,
      "hit": false,
      "t": 226097.33749999892,
      "d": 94.60859374998836,
      "v": 92
    },
    {
      "midi": 62,
      "hit": false,
      "t": 226097.33749999892,
      "d": 106.07630208332557,
      "v": 101
    },
    {
      "midi": 66,
      "hit": false,
      "t": 226097.33749999892,
      "d": 123.2778645833314,
      "v": 96
    },
    {
      "midi": 52,
      "hit": false,
      "t": 226785.39999999892,
      "d": 2153.0622395832324,
      "v": 94
    },
    {
      "midi": 59,
      "hit": false,
      "t": 227060.62499999892,
      "d": 80.2739583333314,
      "v": 88
    },
    {
      "midi": 62,
      "hit": false,
      "t": 227060.62499999892,
      "d": 86.0078125,
      "v": 101
    },
    {
      "midi": 67,
      "hit": false,
      "t": 227060.62499999892,
      "d": 94.60859374998836,
      "v": 101
    },
    {
      "midi": 67,
      "hit": false,
      "t": 227335.8499999989,
      "d": 80.2739583333314,
      "v": 97
    },
    {
      "midi": 59,
      "hit": false,
      "t": 227335.8499999989,
      "d": 86.0078125,
      "v": 90
    },
    {
      "midi": 62,
      "hit": false,
      "t": 227335.8499999989,
      "d": 88.87473958331975,
      "v": 99
    },
    {
      "midi": 59,
      "hit": false,
      "t": 227611.07499999888,
      "d": 86.0078125,
      "v": 85
    },
    {
      "midi": 62,
      "hit": false,
      "t": 227611.07499999888,
      "d": 88.87473958331975,
      "v": 99
    },
    {
      "midi": 67,
      "hit": false,
      "t": 227611.07499999888,
      "d": 94.60859374998836,
      "v": 92
    },
    {
      "midi": 59,
      "hit": false,
      "t": 227886.29999999885,
      "d": 295.2934895833314,
      "v": 92
    },
    {
      "midi": 67,
      "hit": false,
      "t": 227886.29999999885,
      "d": 303.89427083331975,
      "v": 99
    },
    {
      "midi": 62,
      "hit": false,
      "t": 227886.29999999885,
      "d": 318.2289062499767,
      "v": 104
    },
    {
      "midi": 57,
      "hit": false,
      "t": 228299.13749999882,
      "d": 255.15651041668025,
      "v": 94
    },
    {
      "midi": 62,
      "hit": false,
      "t": 228299.13749999882,
      "d": 292.42656250001164,
      "v": 99
    },
    {
      "midi": 66,
      "hit": false,
      "t": 228299.13749999882,
      "d": 303.89427083334886,
      "v": 92
    },
    {
      "midi": 59,
      "hit": false,
      "t": 228711.97499999884,
      "d": 117.54401041666279,
      "v": 86
    },
    {
      "midi": 62,
      "hit": false,
      "t": 228711.97499999884,
      "d": 131.87864583331975,
      "v": 88
    },
    {
      "midi": 67,
      "hit": false,
      "t": 228711.97499999884,
      "d": 134.7455729166395,
      "v": 83
    },
    {
      "midi": 59,
      "hit": false,
      "t": 229262.42499999882,
      "d": 1.4334635416744277,
      "v": 93
    },
    {
      "midi": 64,
      "hit": false,
      "t": 229262.42499999882,
      "d": 1.4334635416744277,
      "v": 93
    },
    {
      "midi": 55,
      "hit": false,
      "t": 229262.42499999882,
      "d": 286.69270833334303,
      "v": 93
    },
    {
      "midi": 67,
      "hit": false,
      "t": 229262.42499999882,
      "d": 303.89427083334886,
      "v": 93
    },
    {
      "midi": 48,
      "hit": false,
      "t": 229262.42499999882,
      "d": 369.8335937500233,
      "v": 93
    },
    {
      "midi": 57,
      "hit": false,
      "t": 229675.26249999885,
      "d": 1.4334635416744277,
      "v": 93
    },
    {
      "midi": 62,
      "hit": false,
      "t": 229675.26249999885,
      "d": 1.4334635416744277,
      "v": 93
    },
    {
      "midi": 54,
      "hit": false,
      "t": 229675.26249999885,
      "d": 295.2934895833314,
      "v": 93
    },
    {
      "midi": 66,
      "hit": false,
      "t": 229675.26249999885,
      "d": 306.7611979166686,
      "v": 93
    },
    {
      "midi": 47,
      "hit": false,
      "t": 229675.26249999885,
      "d": 366.9666666666744,
      "v": 93
    },
    {
      "midi": 55,
      "hit": false,
      "t": 230088.09999999884,
      "d": 1.4334635416744277,
      "v": 93
    },
    {
      "midi": 60,
      "hit": false,
      "t": 230088.09999999884,
      "d": 1.4334635416744277,
      "v": 93
    },
    {
      "midi": 52,
      "hit": false,
      "t": 230088.09999999884,
      "d": 255.15651041668025,
      "v": 93
    },
    {
      "midi": 64,
      "hit": false,
      "t": 230088.09999999884,
      "d": 292.42656250001164,
      "v": 93
    },
    {
      "midi": 41,
      "hit": false,
      "t": 230088.09999999884,
      "d": 384.16822916668025,
      "v": 93
    },
    {
      "midi": 57,
      "hit": false,
      "t": 230500.93749999886,
      "d": 1.4334635416744277,
      "v": 93
    },
    {
      "midi": 62,
      "hit": false,
      "t": 230500.93749999886,
      "d": 1.4334635416744277,
      "v": 93
    },
    {
      "midi": 66,
      "hit": false,
      "t": 230500.93749999886,
      "d": 1.4334635416744277,
      "v": 93
    },
    {
      "midi": 38,
      "hit": false,
      "t": 230500.93749999886,
      "d": 312.4950520833372,
      "v": 93
    },
    {
      "midi": 57,
      "hit": false,
      "t": 230913.77499999886,
      "d": 1.4334635416744277,
      "v": 93
    },
    {
      "midi": 62,
      "hit": false,
      "t": 230913.77499999886,
      "d": 1.4334635416744277,
      "v": 93
    },
    {
      "midi": 66,
      "hit": false,
      "t": 230913.77499999886,
      "d": 1.4334635416744277,
      "v": 93
    },
    {
      "midi": 38,
      "hit": false,
      "t": 230913.77499999886,
      "d": 146.21328125003492,
      "v": 93
    },
    {
      "midi": 59,
      "hit": false,
      "t": 231051.38749999888,
      "d": 1.4334635416744277,
      "v": 93
    },
    {
      "midi": 64,
      "hit": false,
      "t": 231051.38749999888,
      "d": 1.4334635416744277,
      "v": 93
    },
    {
      "midi": 40,
      "hit": false,
      "t": 231051.38749999888,
      "d": 100.34244791668607,
      "v": 93
    },
    {
      "midi": 55,
      "hit": false,
      "t": 231051.38749999888,
      "d": 100.34244791668607,
      "v": 93
    },
    {
      "midi": 67,
      "hit": false,
      "t": 231051.38749999888,
      "d": 120.41093750001164,
      "v": 93
    },
    {
      "midi": 52,
      "hit": false,
      "t": 231188.9999999989,
      "d": 1949.5104166665114,
      "v": 90
    },
    {
      "midi": 59,
      "hit": false,
      "t": 231464.22499999887,
      "d": 94.60859374998836,
      "v": 86
    },
    {
      "midi": 67,
      "hit": false,
      "t": 231464.22499999887,
      "d": 94.60859374998836,
      "v": 90
    },
    {
      "midi": 62,
      "hit": false,
      "t": 231464.22499999887,
      "d": 97.47552083330811,
      "v": 99
    },
    {
      "midi": 59,
      "hit": false,
      "t": 231739.44999999885,
      "d": 83.14088541665114,
      "v": 86
    },
    {
      "midi": 67,
      "hit": false,
      "t": 231739.44999999885,
      "d": 83.14088541665114,
      "v": 94
    },
    {
      "midi": 62,
      "hit": false,
      "t": 231739.44999999885,
      "d": 91.7416666666395,
      "v": 101
    },
    {
      "midi": 67,
      "hit": false,
      "t": 232014.67499999882,
      "d": 83.14088541665114,
      "v": 92
    },
    {
      "midi": 59,
      "hit": false,
      "t": 232014.67499999882,
      "d": 94.60859374998836,
      "v": 88
    },
    {
      "midi": 62,
      "hit": false,
      "t": 232014.67499999882,
      "d": 94.60859374998836,
      "v": 101
    },
    {
      "midi": 67,
      "hit": false,
      "t": 232289.8999999988,
      "d": 344.0312499999709,
      "v": 94
    },
    {
      "midi": 59,
      "hit": false,
      "t": 232289.8999999988,
      "d": 349.7651041666395,
      "v": 88
    },
    {
      "midi": 62,
      "hit": false,
      "t": 232289.8999999988,
      "d": 355.4989583333081,
      "v": 101
    },
    {
      "midi": 57,
      "hit": false,
      "t": 232702.73749999877,
      "d": 111.81015624999418,
      "v": 90
    },
    {
      "midi": 62,
      "hit": false,
      "t": 232702.73749999877,
      "d": 120.41093749998254,
      "v": 101
    },
    {
      "midi": 66,
      "hit": false,
      "t": 232702.73749999877,
      "d": 146.21328124997672,
      "v": 100
    },
    {
      "midi": 52,
      "hit": false,
      "t": 233390.7999999987,
      "d": 1949.5104166665406,
      "v": 99
    },
    {
      "midi": 59,
      "hit": false,
      "t": 233666.02499999868,
      "d": 86.0078125,
      "v": 85
    },
    {
      "midi": 62,
      "hit": false,
      "t": 233666.02499999868,
      "d": 91.7416666666686,
      "v": 97
    },
    {
      "midi": 67,
      "hit": false,
      "t": 233666.02499999868,
      "d": 97.47552083333721,
      "v": 86
    },
    {
      "midi": 59,
      "hit": false,
      "t": 233941.2499999987,
      "d": 88.87473958331975,
      "v": 86
    },
    {
      "midi": 62,
      "hit": false,
      "t": 233941.2499999987,
      "d": 94.60859374998836,
      "v": 101
    },
    {
      "midi": 67,
      "hit": false,
      "t": 233941.2499999987,
      "d": 97.47552083330811,
      "v": 94
    },
    {
      "midi": 59,
      "hit": false,
      "t": 234216.47499999867,
      "d": 83.14088541665114,
      "v": 88
    },
    {
      "midi": 62,
      "hit": false,
      "t": 234216.47499999867,
      "d": 86.0078124999709,
      "v": 104
    },
    {
      "midi": 67,
      "hit": false,
      "t": 234216.47499999867,
      "d": 86.0078124999709,
      "v": 97
    },
    {
      "midi": 59,
      "hit": false,
      "t": 234491.69999999864,
      "d": 298.16041666665114,
      "v": 92
    },
    {
      "midi": 67,
      "hit": false,
      "t": 234491.69999999864,
      "d": 301.0273437499709,
      "v": 99
    },
    {
      "midi": 62,
      "hit": false,
      "t": 234491.69999999864,
      "d": 309.62812499995925,
      "v": 104
    },
    {
      "midi": 57,
      "hit": false,
      "t": 234904.5374999986,
      "d": 94.60859374998836,
      "v": 92
    },
    {
      "midi": 62,
      "hit": false,
      "t": 234904.5374999986,
      "d": 106.07630208332557,
      "v": 101
    },
    {
      "midi": 66,
      "hit": false,
      "t": 234904.5374999986,
      "d": 123.2778645833314,
      "v": 96
    },
    {
      "midi": 52,
      "hit": false,
      "t": 235592.59999999858,
      "d": 2153.062239583116,
      "v": 94
    },
    {
      "midi": 59,
      "hit": false,
      "t": 235867.82499999856,
      "d": 80.2739583333314,
      "v": 88
    },
    {
      "midi": 62,
      "hit": false,
      "t": 235867.82499999856,
      "d": 86.0078125,
      "v": 101
    },
    {
      "midi": 67,
      "hit": false,
      "t": 235867.82499999856,
      "d": 94.60859374998836,
      "v": 101
    },
    {
      "midi": 67,
      "hit": false,
      "t": 236143.04999999853,
      "d": 80.2739583333314,
      "v": 97
    },
    {
      "midi": 59,
      "hit": false,
      "t": 236143.04999999853,
      "d": 86.0078125,
      "v": 90
    },
    {
      "midi": 62,
      "hit": false,
      "t": 236143.04999999853,
      "d": 88.87473958331975,
      "v": 99
    },
    {
      "midi": 59,
      "hit": false,
      "t": 236418.2749999985,
      "d": 86.0078125,
      "v": 85
    },
    {
      "midi": 62,
      "hit": false,
      "t": 236418.2749999985,
      "d": 88.87473958331975,
      "v": 99
    },
    {
      "midi": 67,
      "hit": false,
      "t": 236418.2749999985,
      "d": 94.60859374998836,
      "v": 92
    },
    {
      "midi": 59,
      "hit": false,
      "t": 236693.4999999985,
      "d": 295.2934895833023,
      "v": 92
    },
    {
      "midi": 67,
      "hit": false,
      "t": 236693.4999999985,
      "d": 303.89427083329065,
      "v": 99
    },
    {
      "midi": 62,
      "hit": false,
      "t": 236693.4999999985,
      "d": 318.2289062499476,
      "v": 104
    },
    {
      "midi": 57,
      "hit": false,
      "t": 237106.33749999842,
      "d": 255.15651041665114,
      "v": 94
    },
    {
      "midi": 62,
      "hit": false,
      "t": 237106.33749999842,
      "d": 292.42656249998254,
      "v": 99
    },
    {
      "midi": 66,
      "hit": false,
      "t": 237106.33749999842,
      "d": 303.89427083331975,
      "v": 92
    },
    {
      "midi": 59,
      "hit": false,
      "t": 237519.17499999842,
      "d": 117.54401041666279,
      "v": 86
    },
    {
      "midi": 62,
      "hit": false,
      "t": 237519.17499999842,
      "d": 131.87864583331975,
      "v": 88
    },
    {
      "midi": 67,
      "hit": false,
      "t": 237519.17499999842,
      "d": 134.7455729166395,
      "v": 83
    },
    {
      "midi": 67,
      "hit": false,
      "t": 237794.39999999836,
      "d": 447.2406249999767,
      "v": 113
    },
    {
      "midi": 71,
      "hit": false,
      "t": 237794.39999999836,
      "d": 452.9744791666453,
      "v": 107
    },
    {
      "midi": 64,
      "hit": false,
      "t": 237794.39999999836,
      "d": 455.8414062499651,
      "v": 104
    },
    {
      "midi": 48,
      "hit": false,
      "t": 237794.39999999836,
      "d": 513.179947916622,
      "v": 83
    },
    {
      "midi": 69,
      "hit": false,
      "t": 238344.84999999832,
      "d": 441.5067708333081,
      "v": 101
    },
    {
      "midi": 62,
      "hit": false,
      "t": 238344.84999999832,
      "d": 450.10755208329647,
      "v": 97
    },
    {
      "midi": 66,
      "hit": false,
      "t": 238344.84999999832,
      "d": 458.7083333332848,
      "v": 104
    },
    {
      "midi": 47,
      "hit": false,
      "t": 238344.84999999832,
      "d": 507.44609374995343,
      "v": 90
    },
    {
      "midi": 60,
      "hit": false,
      "t": 238895.29999999827,
      "d": 438.63984374995925,
      "v": 94
    },
    {
      "midi": 64,
      "hit": false,
      "t": 238895.29999999827,
      "d": 455.8414062499651,
      "v": 101
    },
    {
      "midi": 67,
      "hit": false,
      "t": 238895.29999999827,
      "d": 461.5752604166337,
      "v": 99
    },
    {
      "midi": 45,
      "hit": false,
      "t": 238895.29999999827,
      "d": 524.6476562499593,
      "v": 88
    },
    {
      "midi": 47,
      "hit": false,
      "t": 239445.74999999822,
      "d": 493.11145833329647,
      "v": 88
    },
    {
      "midi": 66,
      "hit": false,
      "t": 239445.74999999822,
      "d": 518.9138020832906,
      "v": 92
    },
    {
      "midi": 69,
      "hit": false,
      "t": 239445.74999999822,
      "d": 521.7807291666104,
      "v": 90
    },
    {
      "midi": 62,
      "hit": false,
      "t": 239445.74999999822,
      "d": 530.3815104165988,
      "v": 97
    },
    {
      "midi": 52,
      "hit": false,
      "t": 239996.19999999815,
      "d": 1949.5104166665114,
      "v": 90
    },
    {
      "midi": 59,
      "hit": false,
      "t": 240271.42499999813,
      "d": 94.60859374998836,
      "v": 86
    },
    {
      "midi": 67,
      "hit": false,
      "t": 240271.42499999813,
      "d": 94.60859374998836,
      "v": 90
    },
    {
      "midi": 62,
      "hit": false,
      "t": 240271.42499999813,
      "d": 97.47552083330811,
      "v": 99
    },
    {
      "midi": 59,
      "hit": false,
      "t": 240546.6499999981,
      "d": 83.14088541665114,
      "v": 86
    },
    {
      "midi": 67,
      "hit": false,
      "t": 240546.6499999981,
      "d": 83.14088541665114,
      "v": 94
    },
    {
      "midi": 62,
      "hit": false,
      "t": 240546.6499999981,
      "d": 91.7416666666395,
      "v": 101
    },
    {
      "midi": 67,
      "hit": false,
      "t": 240821.87499999808,
      "d": 83.14088541665114,
      "v": 92
    },
    {
      "midi": 59,
      "hit": false,
      "t": 240821.87499999808,
      "d": 94.60859374998836,
      "v": 88
    },
    {
      "midi": 62,
      "hit": false,
      "t": 240821.87499999808,
      "d": 94.60859374998836,
      "v": 101
    },
    {
      "midi": 67,
      "hit": false,
      "t": 241097.09999999806,
      "d": 344.0312499999709,
      "v": 94
    },
    {
      "midi": 59,
      "hit": false,
      "t": 241097.09999999806,
      "d": 349.7651041666395,
      "v": 88
    },
    {
      "midi": 62,
      "hit": false,
      "t": 241097.09999999806,
      "d": 355.4989583333081,
      "v": 101
    },
    {
      "midi": 57,
      "hit": false,
      "t": 241509.93749999802,
      "d": 111.81015624999418,
      "v": 90
    },
    {
      "midi": 62,
      "hit": false,
      "t": 241509.93749999802,
      "d": 120.41093749998254,
      "v": 101
    },
    {
      "midi": 66,
      "hit": false,
      "t": 241509.93749999802,
      "d": 146.21328124997672,
      "v": 100
    },
    {
      "midi": 52,
      "hit": false,
      "t": 242197.99999999796,
      "d": 1949.5104166665697,
      "v": 99
    },
    {
      "midi": 59,
      "hit": false,
      "t": 242473.22499999794,
      "d": 86.0078125,
      "v": 85
    },
    {
      "midi": 62,
      "hit": false,
      "t": 242473.22499999794,
      "d": 91.7416666666686,
      "v": 97
    },
    {
      "midi": 67,
      "hit": false,
      "t": 242473.22499999794,
      "d": 97.47552083333721,
      "v": 86
    },
    {
      "midi": 59,
      "hit": false,
      "t": 242748.44999999795,
      "d": 88.87473958331975,
      "v": 86
    },
    {
      "midi": 62,
      "hit": false,
      "t": 242748.44999999795,
      "d": 94.60859374998836,
      "v": 101
    },
    {
      "midi": 67,
      "hit": false,
      "t": 242748.44999999795,
      "d": 97.47552083330811,
      "v": 94
    },
    {
      "midi": 59,
      "hit": false,
      "t": 243023.67499999792,
      "d": 83.14088541665114,
      "v": 88
    },
    {
      "midi": 62,
      "hit": false,
      "t": 243023.67499999792,
      "d": 86.0078124999709,
      "v": 104
    },
    {
      "midi": 67,
      "hit": false,
      "t": 243023.67499999792,
      "d": 86.0078124999709,
      "v": 97
    },
    {
      "midi": 59,
      "hit": false,
      "t": 243298.8999999979,
      "d": 298.16041666665114,
      "v": 92
    },
    {
      "midi": 67,
      "hit": false,
      "t": 243298.8999999979,
      "d": 301.0273437499709,
      "v": 99
    },
    {
      "midi": 62,
      "hit": false,
      "t": 243298.8999999979,
      "d": 309.62812499995925,
      "v": 104
    },
    {
      "midi": 57,
      "hit": false,
      "t": 243711.73749999786,
      "d": 94.60859374998836,
      "v": 92
    },
    {
      "midi": 62,
      "hit": false,
      "t": 243711.73749999786,
      "d": 106.07630208332557,
      "v": 101
    },
    {
      "midi": 66,
      "hit": false,
      "t": 243711.73749999786,
      "d": 123.2778645833314,
      "v": 96
    },
    {
      "midi": 52,
      "hit": false,
      "t": 244399.79999999783,
      "d": 2153.062239583116,
      "v": 94
    },
    {
      "midi": 59,
      "hit": false,
      "t": 244675.0249999978,
      "d": 80.2739583333314,
      "v": 88
    },
    {
      "midi": 62,
      "hit": false,
      "t": 244675.0249999978,
      "d": 86.0078125,
      "v": 101
    },
    {
      "midi": 67,
      "hit": false,
      "t": 244675.0249999978,
      "d": 94.60859374998836,
      "v": 101
    },
    {
      "midi": 67,
      "hit": false,
      "t": 244950.2499999978,
      "d": 80.2739583333314,
      "v": 97
    },
    {
      "midi": 59,
      "hit": false,
      "t": 244950.2499999978,
      "d": 86.0078125,
      "v": 90
    },
    {
      "midi": 62,
      "hit": false,
      "t": 244950.2499999978,
      "d": 88.87473958331975,
      "v": 99
    },
    {
      "midi": 59,
      "hit": false,
      "t": 245225.47499999776,
      "d": 86.0078125,
      "v": 85
    },
    {
      "midi": 62,
      "hit": false,
      "t": 245225.47499999776,
      "d": 88.87473958331975,
      "v": 99
    },
    {
      "midi": 67,
      "hit": false,
      "t": 245225.47499999776,
      "d": 94.60859374998836,
      "v": 92
    },
    {
      "midi": 59,
      "hit": false,
      "t": 245500.69999999774,
      "d": 295.2934895833023,
      "v": 92
    },
    {
      "midi": 67,
      "hit": false,
      "t": 245500.69999999774,
      "d": 303.89427083329065,
      "v": 99
    },
    {
      "midi": 62,
      "hit": false,
      "t": 245500.69999999774,
      "d": 318.2289062499476,
      "v": 104
    },
    {
      "midi": 57,
      "hit": false,
      "t": 245913.53749999768,
      "d": 255.15651041665114,
      "v": 94
    },
    {
      "midi": 62,
      "hit": false,
      "t": 245913.53749999768,
      "d": 292.42656249998254,
      "v": 99
    },
    {
      "midi": 66,
      "hit": false,
      "t": 245913.53749999768,
      "d": 303.89427083331975,
      "v": 92
    },
    {
      "midi": 59,
      "hit": false,
      "t": 246326.37499999767,
      "d": 117.54401041666279,
      "v": 86
    },
    {
      "midi": 62,
      "hit": false,
      "t": 246326.37499999767,
      "d": 131.87864583331975,
      "v": 88
    },
    {
      "midi": 67,
      "hit": false,
      "t": 246326.37499999767,
      "d": 134.7455729166395,
      "v": 83
    },
    {
      "midi": 59,
      "hit": false,
      "t": 246876.8249999976,
      "d": 1.4334635416744277,
      "v": 93
    },
    {
      "midi": 64,
      "hit": false,
      "t": 246876.8249999976,
      "d": 1.4334635416744277,
      "v": 93
    },
    {
      "midi": 55,
      "hit": false,
      "t": 246876.8249999976,
      "d": 286.69270833334303,
      "v": 93
    },
    {
      "midi": 67,
      "hit": false,
      "t": 246876.8249999976,
      "d": 303.89427083334886,
      "v": 93
    },
    {
      "midi": 48,
      "hit": false,
      "t": 246876.8249999976,
      "d": 369.8335937500233,
      "v": 93
    },
    {
      "midi": 57,
      "hit": false,
      "t": 247289.66249999762,
      "d": 1.4334635416744277,
      "v": 93
    },
    {
      "midi": 62,
      "hit": false,
      "t": 247289.66249999762,
      "d": 1.4334635416744277,
      "v": 93
    },
    {
      "midi": 54,
      "hit": false,
      "t": 247289.66249999762,
      "d": 295.2934895833314,
      "v": 93
    },
    {
      "midi": 66,
      "hit": false,
      "t": 247289.66249999762,
      "d": 306.7611979166686,
      "v": 93
    },
    {
      "midi": 47,
      "hit": false,
      "t": 247289.66249999762,
      "d": 366.9666666666744,
      "v": 93
    },
    {
      "midi": 55,
      "hit": false,
      "t": 247702.4999999976,
      "d": 1.4334635416744277,
      "v": 93
    },
    {
      "midi": 60,
      "hit": false,
      "t": 247702.4999999976,
      "d": 1.4334635416744277,
      "v": 93
    },
    {
      "midi": 52,
      "hit": false,
      "t": 247702.4999999976,
      "d": 255.15651041668025,
      "v": 93
    },
    {
      "midi": 64,
      "hit": false,
      "t": 247702.4999999976,
      "d": 292.42656250001164,
      "v": 93
    },
    {
      "midi": 41,
      "hit": false,
      "t": 247702.4999999976,
      "d": 384.16822916668025,
      "v": 93
    },
    {
      "midi": 57,
      "hit": false,
      "t": 248115.33749999764,
      "d": 1.4334635416744277,
      "v": 93
    },
    {
      "midi": 62,
      "hit": false,
      "t": 248115.33749999764,
      "d": 1.4334635416744277,
      "v": 93
    },
    {
      "midi": 66,
      "hit": false,
      "t": 248115.33749999764,
      "d": 1.4334635416744277,
      "v": 93
    },
    {
      "midi": 38,
      "hit": false,
      "t": 248115.33749999764,
      "d": 312.4950520833372,
      "v": 93
    },
    {
      "midi": 57,
      "hit": false,
      "t": 248528.17499999763,
      "d": 1.4334635416744277,
      "v": 93
    },
    {
      "midi": 62,
      "hit": false,
      "t": 248528.17499999763,
      "d": 1.4334635416744277,
      "v": 93
    },
    {
      "midi": 66,
      "hit": false,
      "t": 248528.17499999763,
      "d": 1.4334635416744277,
      "v": 93
    },
    {
      "midi": 38,
      "hit": false,
      "t": 248528.17499999763,
      "d": 146.21328125003492,
      "v": 93
    },
    {
      "midi": 59,
      "hit": false,
      "t": 248665.78749999765,
      "d": 1.4334635416744277,
      "v": 93
    },
    {
      "midi": 64,
      "hit": false,
      "t": 248665.78749999765,
      "d": 1.4334635416744277,
      "v": 93
    },
    {
      "midi": 40,
      "hit": false,
      "t": 248665.78749999765,
      "d": 100.34244791668607,
      "v": 93
    },
    {
      "midi": 55,
      "hit": false,
      "t": 248665.78749999765,
      "d": 100.34244791668607,
      "v": 93
    },
    {
      "midi": 67,
      "hit": false,
      "t": 248665.78749999765,
      "d": 120.41093750001164,
      "v": 93
    }
  ]
}