{
  "jsonPath": "Rock/Country Rock/Dwight Yoakam/youre-the-one.json",
  "path": "Rock\\Country Rock\\Dwight Yoakam\\Youre The One.mid",
  "name": "Youre The One",
  "difficulty": "Advanced",
  "bpm": 130.00041166797027,
  "notes": [
    {
      "midi": 43,
      "hit": false,
      "t": 0,
      "d": 228.84542916666666,
      "v": 113
    },
    {
      "midi": 50,
      "hit": false,
      "t": 230.7685,
      "d": 74.9997625,
      "v": 98
    },
    {
      "midi": 55,
      "hit": false,
      "t": 461.53700000000003,
      "d": 259.61456250000003,
      "v": 78
    },
    {
      "midi": 59,
      "hit": false,
      "t": 692.3055,
      "d": 84.61511666666672,
      "v": 98
    },
    {
      "midi": 71,
      "hit": false,
      "t": 923.0740000000001,
      "d": 296.15290833333347,
      "v": 127
    },
    {
      "midi": 62,
      "hit": false,
      "t": 923.0740000000001,
      "d": 534.6136916666669,
      "v": 98
    },
    {
      "midi": 69,
      "hit": false,
      "t": 1153.8425000000002,
      "d": 290.3836958333334,
      "v": 69
    },
    {
      "midi": 67,
      "hit": false,
      "t": 1384.6110000000003,
      "d": 361.5373166666666,
      "v": 71
    },
    {
      "midi": 62,
      "hit": false,
      "t": 1615.3795000000002,
      "d": 111.53810833333341,
      "v": 78
    },
    {
      "midi": 64,
      "hit": false,
      "t": 1846.1480000000001,
      "d": 486.5369208333336,
      "v": 111
    },
    {
      "midi": 48,
      "hit": false,
      "t": 1846.1480000000001,
      "d": 1430.7647000000002,
      "v": 103
    },
    {
      "midi": 55,
      "hit": false,
      "t": 2076.9165000000003,
      "d": 1205.7654125,
      "v": 91
    },
    {
      "midi": 60,
      "hit": false,
      "t": 2307.6850000000004,
      "d": 123.07653333333337,
      "v": 82
    },
    {
      "midi": 62,
      "hit": false,
      "t": 2538.4535000000005,
      "d": 282.69141249999984,
      "v": 117
    },
    {
      "midi": 64,
      "hit": false,
      "t": 2999.9905000000003,
      "d": 203.84550833333333,
      "v": 127
    },
    {
      "midi": 60,
      "hit": false,
      "t": 3230.7590000000005,
      "d": 209.6147208333332,
      "v": 53
    },
    {
      "midi": 64,
      "hit": false,
      "t": 3461.5275,
      "d": 128.84574583333324,
      "v": 34
    },
    {
      "midi": 67,
      "hit": false,
      "t": 3692.2960000000003,
      "d": 507.6906999999992,
      "v": 126
    },
    {
      "midi": 45,
      "hit": false,
      "t": 3692.2960000000003,
      "d": 674.9978624999994,
      "v": 100
    },
    {
      "midi": 52,
      "hit": false,
      "t": 3923.0645,
      "d": 417.3063708333334,
      "v": 86
    },
    {
      "midi": 60,
      "hit": false,
      "t": 4153.833,
      "d": 69.23055000000022,
      "v": 78
    },
    {
      "midi": 60,
      "hit": false,
      "t": 4384.6015,
      "d": 290.38369583333315,
      "v": 127
    },
    {
      "midi": 52,
      "hit": false,
      "t": 4615.37,
      "d": 153.84566666666615,
      "v": 89
    },
    {
      "midi": 67,
      "hit": false,
      "t": 4846.138499999999,
      "d": 324.99897083333326,
      "v": 127
    },
    {
      "midi": 60,
      "hit": false,
      "t": 5076.906999999999,
      "d": 265.38377500000024,
      "v": 85
    },
    {
      "midi": 64,
      "hit": false,
      "t": 5307.675499999999,
      "d": 107.69196666666721,
      "v": 78
    },
    {
      "midi": 67,
      "hit": false,
      "t": 5538.4439999999995,
      "d": 411.53715833333354,
      "v": 127
    },
    {
      "midi": 50,
      "hit": false,
      "t": 5538.4439999999995,
      "d": 1232.6884041666672,
      "v": 103
    },
    {
      "midi": 57,
      "hit": false,
      "t": 5769.2125,
      "d": 990.3814791666673,
      "v": 80
    },
    {
      "midi": 66,
      "hit": false,
      "t": 5999.981,
      "d": 359.61424583333337,
      "v": 126
    },
    {
      "midi": 67,
      "hit": false,
      "t": 6461.518,
      "d": 340.3835374999999,
      "v": 127
    },
    {
      "midi": 64,
      "hit": false,
      "t": 6461.518,
      "d": 369.22959999999966,
      "v": 98
    },
    {
      "midi": 60,
      "hit": false,
      "t": 6461.518,
      "d": 394.2295208333326,
      "v": 68
    },
    {
      "midi": 64,
      "hit": false,
      "t": 6923.054999999999,
      "d": 105.76889583333377,
      "v": 108
    },
    {
      "midi": 60,
      "hit": false,
      "t": 6923.054999999999,
      "d": 113.46117916666753,
      "v": 117
    },
    {
      "midi": 69,
      "hit": false,
      "t": 6923.054999999999,
      "d": 126.92267500000071,
      "v": 108
    },
    {
      "midi": 62,
      "hit": false,
      "t": 7384.592,
      "d": 292.3067666666666,
      "v": 108
    },
    {
      "midi": 71,
      "hit": false,
      "t": 7384.592,
      "d": 303.8451916666663,
      "v": 127
    },
    {
      "midi": 47,
      "hit": false,
      "t": 7384.592,
      "d": 1307.688166666666,
      "v": 106
    },
    {
      "midi": 67,
      "hit": false,
      "t": 7846.128999999999,
      "d": 59.61519583333302,
      "v": 35
    },
    {
      "midi": 74,
      "hit": false,
      "t": 8307.666,
      "d": 86.53818750000028,
      "v": 96
    },
    {
      "midi": 83,
      "hit": false,
      "t": 8307.666,
      "d": 90.38432916666716,
      "v": 113
    },
    {
      "midi": 81,
      "hit": false,
      "t": 8538.4345,
      "d": 71.15362083333275,
      "v": 91
    },
    {
      "midi": 72,
      "hit": false,
      "t": 8538.4345,
      "d": 73.07669166666528,
      "v": 108
    },
    {
      "midi": 79,
      "hit": false,
      "t": 8769.203,
      "d": 138.46110000000044,
      "v": 100
    },
    {
      "midi": 79,
      "hit": false,
      "t": 8999.9715,
      "d": 132.6918874999992,
      "v": 55
    },
    {
      "midi": 84,
      "hit": false,
      "t": 9230.739999999998,
      "d": 346.1527500000011,
      "v": 120
    },
    {
      "midi": 76,
      "hit": false,
      "t": 9230.739999999998,
      "d": 367.30652916666804,
      "v": 89
    },
    {
      "midi": 48,
      "hit": false,
      "t": 9230.739999999998,
      "d": 1211.5346250000002,
      "v": 106
    },
    {
      "midi": 74,
      "hit": false,
      "t": 9692.277,
      "d": 86.53818750000028,
      "v": 86
    },
    {
      "midi": 83,
      "hit": false,
      "t": 9692.277,
      "d": 90.38432916666716,
      "v": 106
    },
    {
      "midi": 81,
      "hit": false,
      "t": 9923.0455,
      "d": 257.6914916666665,
      "v": 103
    },
    {
      "midi": 72,
      "hit": false,
      "t": 9923.0455,
      "d": 294.2298374999991,
      "v": 120
    },
    {
      "midi": 71,
      "hit": false,
      "t": 10384.582499999999,
      "d": 144.23031249999985,
      "v": 123
    },
    {
      "midi": 79,
      "hit": false,
      "t": 10384.582499999999,
      "d": 144.23031249999985,
      "v": 113
    },
    {
      "midi": 81,
      "hit": false,
      "t": 10846.119499999999,
      "d": 411.5371583333326,
      "v": 111
    },
    {
      "midi": 72,
      "hit": false,
      "t": 10846.119499999999,
      "d": 446.15243333333274,
      "v": 103
    },
    {
      "midi": 45,
      "hit": false,
      "t": 11076.887999999999,
      "d": 236.53771249999954,
      "v": 91
    },
    {
      "midi": 52,
      "hit": false,
      "t": 11307.6565,
      "d": 99.99968333333345,
      "v": 80
    },
    {
      "midi": 62,
      "hit": false,
      "t": 11538.425,
      "d": 105.76889583333286,
      "v": 80
    },
    {
      "midi": 64,
      "hit": false,
      "t": 11769.1935,
      "d": 117.3073208333335,
      "v": 123
    },
    {
      "midi": 57,
      "hit": false,
      "t": 11999.962,
      "d": 905.7663625000005,
      "v": 64
    },
    {
      "midi": 60,
      "hit": false,
      "t": 12230.7305,
      "d": 161.5379499999999,
      "v": 19
    },
    {
      "midi": 67,
      "hit": false,
      "t": 12461.499,
      "d": 253.8453499999996,
      "v": 123
    },
    {
      "midi": 60,
      "hit": false,
      "t": 12692.2675,
      "d": 359.6142458333343,
      "v": 68
    },
    {
      "midi": 64,
      "hit": false,
      "t": 12923.036,
      "d": 359.61424583333246,
      "v": 86
    },
    {
      "midi": 67,
      "hit": false,
      "t": 12923.036,
      "d": 396.1525916666651,
      "v": 103
    },
    {
      "midi": 50,
      "hit": false,
      "t": 12923.036,
      "d": 713.4592791666655,
      "v": 85
    },
    {
      "midi": 57,
      "hit": false,
      "t": 13153.8045,
      "d": 653.8440833333334,
      "v": 80
    },
    {
      "midi": 60,
      "hit": false,
      "t": 13384.572999999999,
      "d": 346.1527500000011,
      "v": 96
    },
    {
      "midi": 64,
      "hit": false,
      "t": 13615.341499999999,
      "d": 176.92251666666743,
      "v": 82
    },
    {
      "midi": 66,
      "hit": false,
      "t": 13846.11,
      "d": 265.3837749999984,
      "v": 98
    },
    {
      "midi": 69,
      "hit": false,
      "t": 13846.11,
      "d": 269.2299166666653,
      "v": 103
    },
    {
      "midi": 51,
      "hit": false,
      "t": 13846.11,
      "d": 492.3061333333317,
      "v": 94
    },
    {
      "midi": 57,
      "hit": false,
      "t": 14076.878499999999,
      "d": 303.84519166666723,
      "v": 63
    },
    {
      "midi": 63,
      "hit": false,
      "t": 14307.646999999999,
      "d": 186.53787083333373,
      "v": 60
    },
    {
      "midi": 66,
      "hit": false,
      "t": 14538.4155,
      "d": 273.076058333334,
      "v": 89
    },
    {
      "midi": 67,
      "hit": false,
      "t": 14769.184,
      "d": 605.7673125000019,
      "v": 113
    },
    {
      "midi": 52,
      "hit": false,
      "t": 14769.184,
      "d": 1696.148475,
      "v": 103
    },
    {
      "midi": 59,
      "hit": false,
      "t": 14999.952500000001,
      "d": 482.6907791666672,
      "v": 91
    },
    {
      "midi": 64,
      "hit": false,
      "t": 15230.721000000001,
      "d": 144.23031249999985,
      "v": 68
    },
    {
      "midi": 66,
      "hit": false,
      "t": 15461.489500000001,
      "d": 342.3066083333342,
      "v": 111
    },
    {
      "midi": 59,
      "hit": false,
      "t": 15692.258000000002,
      "d": 284.6144833333328,
      "v": 60
    },
    {
      "midi": 67,
      "hit": false,
      "t": 15923.026500000002,
      "d": 524.9983374999993,
      "v": 123
    },
    {
      "midi": 64,
      "hit": false,
      "t": 16153.795000000002,
      "d": 288.4606249999997,
      "v": 35
    },
    {
      "midi": 59,
      "hit": false,
      "t": 16384.5635,
      "d": 186.53787083333373,
      "v": 72
    },
    {
      "midi": 66,
      "hit": false,
      "t": 16615.332000000002,
      "d": 438.4601500000026,
      "v": 96
    },
    {
      "midi": 51,
      "hit": false,
      "t": 16615.332000000002,
      "d": 1494.226037499997,
      "v": 96
    },
    {
      "midi": 59,
      "hit": false,
      "t": 16846.100500000004,
      "d": 665.3825083333322,
      "v": 64
    },
    {
      "midi": 63,
      "hit": false,
      "t": 17076.869000000006,
      "d": 178.84558749999997,
      "v": 55
    },
    {
      "midi": 71,
      "hit": false,
      "t": 17307.637500000004,
      "d": 513.459912499995,
      "v": 113
    },
    {
      "midi": 63,
      "hit": false,
      "t": 17538.406000000003,
      "d": 271.15298749999783,
      "v": 48
    },
    {
      "midi": 59,
      "hit": false,
      "t": 17769.1745,
      "d": 288.4606249999997,
      "v": 63
    },
    {
      "midi": 66,
      "hit": false,
      "t": 17999.943,
      "d": 355.7681041666656,
      "v": 71
    },
    {
      "midi": 63,
      "hit": false,
      "t": 18230.711499999998,
      "d": 109.61503749999974,
      "v": 56
    },
    {
      "midi": 71,
      "hit": false,
      "t": 18461.48,
      "d": 555.7674708333361,
      "v": 113
    },
    {
      "midi": 62,
      "hit": false,
      "t": 18461.48,
      "d": 576.921250000003,
      "v": 86
    },
    {
      "midi": 50,
      "hit": false,
      "t": 18461.48,
      "d": 1548.0720208333332,
      "v": 91
    },
    {
      "midi": 69,
      "hit": false,
      "t": 19153.7855,
      "d": 342.3066083333324,
      "v": 108
    },
    {
      "midi": 62,
      "hit": false,
      "t": 19384.554,
      "d": 109.61503749999974,
      "v": 62
    },
    {
      "midi": 67,
      "hit": false,
      "t": 19615.322500000002,
      "d": 428.84479583333086,
      "v": 123
    },
    {
      "midi": 62,
      "hit": false,
      "t": 19846.091,
      "d": 290.3836958333304,
      "v": 82
    },
    {
      "midi": 55,
      "hit": false,
      "t": 20076.8595,
      "d": 67.30747916666587,
      "v": 106
    },
    {
      "midi": 64,
      "hit": false,
      "t": 20307.627999999997,
      "d": 290.38369583333406,
      "v": 111
    },
    {
      "midi": 61,
      "hit": false,
      "t": 20307.627999999997,
      "d": 307.6913333333323,
      "v": 92
    },
    {
      "midi": 45,
      "hit": false,
      "t": 20307.627999999997,
      "d": 1601.9180041666732,
      "v": 111
    },
    {
      "midi": 52,
      "hit": false,
      "t": 20538.3965,
      "d": 769.2283333333362,
      "v": 86
    },
    {
      "midi": 57,
      "hit": false,
      "t": 20769.164999999997,
      "d": 105.76889583333468,
      "v": 72
    },
    {
      "midi": 59,
      "hit": false,
      "t": 20999.9335,
      "d": 90.38432916666716,
      "v": 106
    },
    {
      "midi": 61,
      "hit": false,
      "t": 21230.702,
      "d": 515.382983333333,
      "v": 127
    },
    {
      "midi": 57,
      "hit": false,
      "t": 21692.239,
      "d": 55.76905416666705,
      "v": 85
    },
    {
      "midi": 52,
      "hit": false,
      "t": 21923.007500000003,
      "d": 157.69180833333303,
      "v": 42
    },
    {
      "midi": 64,
      "hit": false,
      "t": 21923.007500000003,
      "d": 392.30645000000004,
      "v": 55
    },
    {
      "midi": 72,
      "hit": false,
      "t": 22153.776000000005,
      "d": 271.15298749999783,
      "v": 120
    },
    {
      "midi": 67,
      "hit": false,
      "t": 22153.776000000005,
      "d": 348.0758208333318,
      "v": 78
    },
    {
      "midi": 45,
      "hit": false,
      "t": 22153.776000000005,
      "d": 976.9199833333369,
      "v": 98
    },
    {
      "midi": 52,
      "hit": false,
      "t": 22384.544500000004,
      "d": 551.9213291666711,
      "v": 69
    },
    {
      "midi": 64,
      "hit": false,
      "t": 22615.313000000006,
      "d": 90.38432916666716,
      "v": 85
    },
    {
      "midi": 71,
      "hit": false,
      "t": 22615.313000000006,
      "d": 92.30740000000151,
      "v": 96
    },
    {
      "midi": 72,
      "hit": false,
      "t": 22846.081500000008,
      "d": 123.07653333333292,
      "v": 123
    },
    {
      "midi": 64,
      "hit": false,
      "t": 22846.081500000008,
      "d": 180.76865833333432,
      "v": 100
    },
    {
      "midi": 64,
      "hit": false,
      "t": 23307.618500000008,
      "d": 224.9992874999989,
      "v": 113
    },
    {
      "midi": 57,
      "hit": false,
      "t": 23769.155500000008,
      "d": 96.15354166666657,
      "v": 69
    },
    {
      "midi": 60,
      "hit": false,
      "t": 23999.924000000006,
      "d": 324.99897083333417,
      "v": 60
    },
    {
      "midi": 67,
      "hit": false,
      "t": 23999.924000000006,
      "d": 359.6142458333343,
      "v": 111
    },
    {
      "midi": 64,
      "hit": false,
      "t": 23999.924000000006,
      "d": 374.9988125000018,
      "v": 86
    },
    {
      "midi": 50,
      "hit": false,
      "t": 23999.924000000006,
      "d": 1323.0727333333343,
      "v": 75
    },
    {
      "midi": 57,
      "hit": false,
      "t": 24230.69250000001,
      "d": 1082.6888791666643,
      "v": 73
    },
    {
      "midi": 60,
      "hit": false,
      "t": 24461.461000000007,
      "d": 176.92251666666562,
      "v": 70
    },
    {
      "midi": 64,
      "hit": false,
      "t": 24692.229500000005,
      "d": 146.1533833333342,
      "v": 71
    },
    {
      "midi": 62,
      "hit": false,
      "t": 24922.998000000007,
      "d": 294.2298374999991,
      "v": 108
    },
    {
      "midi": 66,
      "hit": false,
      "t": 24922.998000000007,
      "d": 513.4599124999986,
      "v": 127
    },
    {
      "midi": 60,
      "hit": false,
      "t": 25384.535000000007,
      "d": 101.92275416666598,
      "v": 106
    },
    {
      "midi": 55,
      "hit": false,
      "t": 25846.072000000007,
      "d": 244.22999583333512,
      "v": 67
    },
    {
      "midi": 59,
      "hit": false,
      "t": 25846.072000000007,
      "d": 301.9221208333365,
      "v": 83
    },
    {
      "midi": 43,
      "hit": false,
      "t": 25846.072000000007,
      "d": 1421.1493458333352,
      "v": 96
    },
    {
      "midi": 50,
      "hit": false,
      "t": 26076.84050000001,
      "d": 1221.1499791666683,
      "v": 65
    },
    {
      "midi": 59,
      "hit": false,
      "t": 26307.60900000001,
      "d": 821.1512458333309,
      "v": 86
    },
    {
      "midi": 67,
      "hit": false,
      "t": 26538.37750000001,
      "d": 526.9214083333318,
      "v": 96
    },
    {
      "midi": 64,
      "hit": false,
      "t": 27692.220000000012,
      "d": 571.1520374999964,
      "v": 82
    },
    {
      "midi": 43,
      "hit": false,
      "t": 27692.220000000012,
      "d": 1415.3801333333286,
      "v": 103
    },
    {
      "midi": 52,
      "hit": false,
      "t": 27922.98850000001,
      "d": 1249.9960416666618,
      "v": 71
    },
    {
      "midi": 57,
      "hit": false,
      "t": 28153.75700000001,
      "d": 942.3047083333331,
      "v": 69
    },
    {
      "midi": 61,
      "hit": false,
      "t": 28384.525500000007,
      "d": 663.4594375000015,
      "v": 96
    },
    {
      "midi": 55,
      "hit": false,
      "t": 29538.368000000006,
      "d": 286.537554166669,
      "v": 73
    },
    {
      "midi": 60,
      "hit": false,
      "t": 29538.368000000006,
      "d": 309.6144041666703,
      "v": 80
    },
    {
      "midi": 64,
      "hit": false,
      "t": 29538.368000000006,
      "d": 330.7681833333372,
      "v": 83
    },
    {
      "midi": 43,
      "hit": false,
      "t": 29538.368000000006,
      "d": 1403.841708333337,
      "v": 78
    },
    {
      "midi": 60,
      "hit": false,
      "t": 29999.90500000001,
      "d": 149.99952499999927,
      "v": 17
    },
    {
      "midi": 67,
      "hit": false,
      "t": 30230.673500000008,
      "d": 240.38385416666642,
      "v": 98
    },
    {
      "midi": 57,
      "hit": false,
      "t": 30692.21050000001,
      "d": 476.9215666666678,
      "v": 10
    },
    {
      "midi": 43,
      "hit": false,
      "t": 31384.51600000001,
      "d": 1103.8426583333276,
      "v": 93
    },
    {
      "midi": 50,
      "hit": false,
      "t": 31615.28450000001,
      "d": 867.3049458333298,
      "v": 62
    },
    {
      "midi": 55,
      "hit": false,
      "t": 31846.053000000007,
      "d": 171.1533041666662,
      "v": 71
    },
    {
      "midi": 57,
      "hit": false,
      "t": 32076.821500000005,
      "d": 401.92180416666815,
      "v": 108
    },
    {
      "midi": 60,
      "hit": false,
      "t": 32769.12700000001,
      "d": 155.76873750000232,
      "v": 127
    },
    {
      "midi": 50,
      "hit": false,
      "t": 32999.89550000001,
      "d": 201.9224374999976,
      "v": 73
    },
    {
      "midi": 55,
      "hit": false,
      "t": 33230.66400000001,
      "d": 328.84511249999923,
      "v": 60
    },
    {
      "midi": 62,
      "hit": false,
      "t": 33230.66400000001,
      "d": 386.53723750000063,
      "v": 82
    },
    {
      "midi": 59,
      "hit": false,
      "t": 33230.66400000001,
      "d": 413.460229166667,
      "v": 96
    },
    {
      "midi": 43,
      "hit": false,
      "t": 33230.66400000001,
      "d": 1338.4573000000019,
      "v": 91
    },
    {
      "midi": 50,
      "hit": false,
      "t": 33461.43250000001,
      "d": 1134.61179166667,
      "v": 73
    },
    {
      "midi": 55,
      "hit": false,
      "t": 33692.201000000015,
      "d": 138.46110000000044,
      "v": 80
    },
    {
      "midi": 59,
      "hit": false,
      "t": 33922.969500000014,
      "d": 719.2284916666686,
      "v": 123
    },
    {
      "midi": 62,
      "hit": false,
      "t": 34615.275000000016,
      "d": 99.99968333333527,
      "v": 62
    },
    {
      "midi": 57,
      "hit": false,
      "t": 35076.81200000002,
      "d": 396.1525916666651,
      "v": 83
    },
    {
      "midi": 64,
      "hit": false,
      "t": 35076.81200000002,
      "d": 453.8447166666665,
      "v": 96
    },
    {
      "midi": 61,
      "hit": false,
      "t": 35076.81200000002,
      "d": 476.92156666666415,
      "v": 92
    },
    {
      "midi": 43,
      "hit": false,
      "t": 35076.81200000002,
      "d": 1328.8419458333228,
      "v": 98
    },
    {
      "midi": 61,
      "hit": false,
      "t": 35769.117500000015,
      "d": 636.5364458333279,
      "v": 78
    },
    {
      "midi": 64,
      "hit": false,
      "t": 36230.65450000001,
      "d": 240.3838541666628,
      "v": 85
    },
    {
      "midi": 55,
      "hit": false,
      "t": 36922.96000000001,
      "d": 278.84527083332796,
      "v": 86
    },
    {
      "midi": 64,
      "hit": false,
      "t": 36922.96000000001,
      "d": 376.9218833333289,
      "v": 96
    },
    {
      "midi": 60,
      "hit": false,
      "t": 36922.96000000001,
      "d": 394.22952083333075,
      "v": 96
    },
    {
      "midi": 43,
      "hit": false,
      "t": 36922.96000000001,
      "d": 1199.9961999999941,
      "v": 85
    },
    {
      "midi": 55,
      "hit": false,
      "t": 37384.497,
      "d": 136.5380291666661,
      "v": 51
    },
    {
      "midi": 60,
      "hit": false,
      "t": 37615.2655,
      "d": 549.9982583333331,
      "v": 113
    },
    {
      "midi": 55,
      "hit": false,
      "t": 38076.8025,
      "d": 167.30716250000114,
      "v": 75
    },
    {
      "midi": 67,
      "hit": false,
      "t": 38769.10799999999,
      "d": 217.30700416666514,
      "v": 106
    },
    {
      "midi": 59,
      "hit": false,
      "t": 38769.10799999999,
      "d": 255.7684208333303,
      "v": 89
    },
    {
      "midi": 43,
      "hit": false,
      "t": 38769.10799999999,
      "d": 894.2279374999998,
      "v": 91
    },
    {
      "midi": 50,
      "hit": false,
      "t": 38999.87649999999,
      "d": 615.3826666666646,
      "v": 51
    },
    {
      "midi": 55,
      "hit": false,
      "t": 39230.64499999999,
      "d": 107.6919666666654,
      "v": 70
    },
    {
      "midi": 62,
      "hit": false,
      "t": 39461.41349999999,
      "d": 480.7677083333401,
      "v": 126
    },
    {
      "midi": 55,
      "hit": false,
      "t": 40153.719,
      "d": 230.7684999999983,
      "v": 108
    },
    {
      "midi": 31,
      "hit": false,
      "t": 40153.719,
      "d": 232.69157083333266,
      "v": 89
    },
    {
      "midi": 62,
      "hit": false,
      "t": 40153.719,
      "d": 299.99904999999853,
      "v": 108
    },
    {
      "midi": 33,
      "hit": false,
      "t": 40384.487499999996,
      "d": 155.76873750000232,
      "v": 89
    },
    {
      "midi": 35,
      "hit": false,
      "t": 40615.256,
      "d": 392.3064500000037,
      "v": 127
    },
    {
      "midi": 57,
      "hit": false,
      "t": 40615.256,
      "d": 417.3063708333357,
      "v": 123
    },
    {
      "midi": 62,
      "hit": false,
      "t": 40615.256,
      "d": 440.3832208333333,
      "v": 123
    },
    {
      "midi": 54,
      "hit": false,
      "t": 41076.793,
      "d": 128.84574583333597,
      "v": 48
    },
    {
      "midi": 62,
      "hit": false,
      "t": 41307.5615,
      "d": 855.7665208333347,
      "v": 120
    },
    {
      "midi": 57,
      "hit": false,
      "t": 41769.0985,
      "d": 182.69172916666867,
      "v": 33
    },
    {
      "midi": 54,
      "hit": false,
      "t": 41999.867000000006,
      "d": 219.2300749999995,
      "v": 78
    },
    {
      "midi": 55,
      "hit": false,
      "t": 42461.404,
      "d": 453.8447166666665,
      "v": 108
    },
    {
      "midi": 36,
      "hit": false,
      "t": 42461.404,
      "d": 1584.6103666666677,
      "v": 106
    },
    {
      "midi": 43,
      "hit": false,
      "t": 42692.1725,
      "d": 1038.4582500000033,
      "v": 64
    },
    {
      "midi": 52,
      "hit": false,
      "t": 42922.941,
      "d": 144.2303125000035,
      "v": 85
    },
    {
      "midi": 60,
      "hit": false,
      "t": 43153.709500000004,
      "d": 823.0743166666653,
      "v": 127
    },
    {
      "midi": 55,
      "hit": false,
      "t": 43615.2465,
      "d": 353.8450333333385,
      "v": 69
    },
    {
      "midi": 52,
      "hit": false,
      "t": 43846.01500000001,
      "d": 161.5379499999981,
      "v": 61
    },
    {
      "midi": 43,
      "hit": false,
      "t": 44076.783500000005,
      "d": 223.0762166666682,
      "v": 68
    },
    {
      "midi": 52,
      "hit": false,
      "t": 44307.552,
      "d": 498.07534583332745,
      "v": 78
    },
    {
      "midi": 61,
      "hit": false,
      "t": 44307.552,
      "d": 567.3058958333277,
      "v": 100
    },
    {
      "midi": 55,
      "hit": false,
      "t": 44307.552,
      "d": 584.6135333333295,
      "v": 106
    },
    {
      "midi": 37,
      "hit": false,
      "t": 44307.552,
      "d": 1299.9958833333221,
      "v": 107
    },
    {
      "midi": 49,
      "hit": false,
      "t": 44769.089,
      "d": 884.6125833333281,
      "v": 79
    },
    {
      "midi": 52,
      "hit": false,
      "t": 44999.8575,
      "d": 330.7681833333336,
      "v": 111
    },
    {
      "midi": 55,
      "hit": false,
      "t": 45461.394499999995,
      "d": 261.53763333333336,
      "v": 123
    },
    {
      "midi": 55,
      "hit": false,
      "t": 45922.93149999999,
      "d": 498.0753458333347,
      "v": 93
    },
    {
      "midi": 38,
      "hit": false,
      "t": 46153.7,
      "d": 461.5369999999966,
      "v": 103
    },
    {
      "midi": 54,
      "hit": false,
      "t": 46384.468499999995,
      "d": 340.38353749999806,
      "v": 113
    },
    {
      "midi": 52,
      "hit": false,
      "t": 46846.00549999999,
      "d": 344.22967916666676,
      "v": 98
    },
    {
      "midi": 36,
      "hit": false,
      "t": 47076.77399999999,
      "d": 513.4599125000022,
      "v": 96
    },
    {
      "midi": 50,
      "hit": false,
      "t": 47307.54249999999,
      "d": 238.4607833333357,
      "v": 120
    },
    {
      "midi": 35,
      "hit": false,
      "t": 47999.84799999999,
      "d": 236.53771250000136,
      "v": 106
    },
    {
      "midi": 50,
      "hit": false,
      "t": 47999.84799999999,
      "d": 257.69149166666466,
      "v": 85
    },
    {
      "midi": 59,
      "hit": false,
      "t": 47999.84799999999,
      "d": 271.15298749999783,
      "v": 103
    },
    {
      "midi": 55,
      "hit": false,
      "t": 47999.84799999999,
      "d": 276.9222000000009,
      "v": 91
    },
    {
      "midi": 50,
      "hit": false,
      "t": 48461.384999999995,
      "d": 111.5381083333341,
      "v": 48
    },
    {
      "midi": 55,
      "hit": false,
      "t": 48692.15349999999,
      "d": 317.3066875000004,
      "v": 106
    },
    {
      "midi": 43,
      "hit": false,
      "t": 48922.92199999999,
      "d": 578.8443208333338,
      "v": 63
    },
    {
      "midi": 59,
      "hit": false,
      "t": 49153.6905,
      "d": 365.38345833333005,
      "v": 91
    },
    {
      "midi": 55,
      "hit": false,
      "t": 49384.458999999995,
      "d": 178.84558749999997,
      "v": 73
    },
    {
      "midi": 50,
      "hit": false,
      "t": 49615.22749999999,
      "d": 71.15362083333457,
      "v": 49
    },
    {
      "midi": 60,
      "hit": false,
      "t": 49845.996,
      "d": 423.07558333333145,
      "v": 120
    },
    {
      "midi": 52,
      "hit": false,
      "t": 49845.996,
      "d": 486.5369208333286,
      "v": 98
    },
    {
      "midi": 36,
      "hit": false,
      "t": 49845.996,
      "d": 819.2281749999966,
      "v": 98
    },
    {
      "midi": 59,
      "hit": false,
      "t": 50307.532999999996,
      "d": 113.46117916666844,
      "v": 80
    },
    {
      "midi": 55,
      "hit": false,
      "t": 50538.301499999994,
      "d": 217.30700416666514,
      "v": 127
    },
    {
      "midi": 50,
      "hit": false,
      "t": 50999.83849999999,
      "d": 148.07645416666492,
      "v": 111
    },
    {
      "midi": 33,
      "hit": false,
      "t": 51692.14399999999,
      "d": 230.7684999999983,
      "v": 86
    },
    {
      "midi": 60,
      "hit": false,
      "t": 51692.14399999999,
      "d": 230.7684999999983,
      "v": 106
    },
    {
      "midi": 55,
      "hit": false,
      "t": 51692.14399999999,
      "d": 242.30692499999714,
      "v": 96
    },
    {
      "midi": 52,
      "hit": false,
      "t": 51692.14399999999,
      "d": 280.7683416666623,
      "v": 45
    },
    {
      "midi": 40,
      "hit": false,
      "t": 51922.91249999999,
      "d": 101.92275416666234,
      "v": 83
    },
    {
      "midi": 50,
      "hit": false,
      "t": 52153.68099999999,
      "d": 55.76905416666705,
      "v": 80
    },
    {
      "midi": 52,
      "hit": false,
      "t": 52384.44949999999,
      "d": 280.7683416666623,
      "v": 86
    },
    {
      "midi": 60,
      "hit": false,
      "t": 52615.217999999986,
      "d": 107.6919666666654,
      "v": 96
    },
    {
      "midi": 38,
      "hit": false,
      "t": 53538.29199999999,
      "d": 1299.9958833333149,
      "v": 103
    },
    {
      "midi": 45,
      "hit": false,
      "t": 53769.060499999985,
      "d": 992.3045499999862,
      "v": 77
    },
    {
      "midi": 48,
      "hit": false,
      "t": 53999.82899999998,
      "d": 153.8456666666607,
      "v": 71
    },
    {
      "midi": 52,
      "hit": false,
      "t": 54230.597499999974,
      "d": 257.69149166666466,
      "v": 86
    },
    {
      "midi": 55,
      "hit": false,
      "t": 54692.13449999997,
      "d": 361.53731666666135,
      "v": 100
    },
    {
      "midi": 45,
      "hit": false,
      "t": 55153.67149999997,
      "d": 73.07669166666892,
      "v": 1
    },
    {
      "midi": 52,
      "hit": false,
      "t": 55153.67149999997,
      "d": 132.69188750000467,
      "v": 58
    },
    {
      "midi": 57,
      "hit": false,
      "t": 55384.43999999997,
      "d": 569.2289666666693,
      "v": 49
    },
    {
      "midi": 54,
      "hit": false,
      "t": 55384.43999999997,
      "d": 574.9981791666723,
      "v": 77
    },
    {
      "midi": 50,
      "hit": false,
      "t": 55384.43999999997,
      "d": 644.2287291666726,
      "v": 51
    },
    {
      "midi": 38,
      "hit": false,
      "t": 55384.43999999997,
      "d": 1415.3801333333395,
      "v": 93
    },
    {
      "midi": 55,
      "hit": false,
      "t": 57230.58799999998,
      "d": 249.99920833333454,
      "v": 91
    },
    {
      "midi": 62,
      "hit": false,
      "t": 57230.58799999998,
      "d": 253.84535000000324,
      "v": 103
    },
    {
      "midi": 59,
      "hit": false,
      "t": 57230.58799999998,
      "d": 271.1529875000051,
      "v": 100
    },
    {
      "midi": 43,
      "hit": false,
      "t": 57230.58799999998,
      "d": 1317.3035208333313,
      "v": 93
    },
    {
      "midi": 55,
      "hit": false,
      "t": 57692.124999999985,
      "d": 221.15314583333384,
      "v": 50
    },
    {
      "midi": 50,
      "hit": false,
      "t": 57922.893499999984,
      "d": 646.1517999999924,
      "v": 60
    },
    {
      "midi": 59,
      "hit": false,
      "t": 58153.66199999998,
      "d": 492.3061333333317,
      "v": 91
    },
    {
      "midi": 62,
      "hit": false,
      "t": 58153.66199999998,
      "d": 511.5368416666679,
      "v": 98
    },
    {
      "midi": 55,
      "hit": false,
      "t": 58615.19899999998,
      "d": 80.76897500000632,
      "v": 58
    },
    {
      "midi": 57,
      "hit": false,
      "t": 59076.73599999998,
      "d": 459.61392916666955,
      "v": 85
    },
    {
      "midi": 64,
      "hit": false,
      "t": 59076.73599999998,
      "d": 465.3831416666726,
      "v": 106
    },
    {
      "midi": 61,
      "hit": false,
      "t": 59076.73599999998,
      "d": 480.7677083333401,
      "v": 104
    },
    {
      "midi": 43,
      "hit": false,
      "t": 59076.73599999998,
      "d": 1286.5343875000108,
      "v": 75
    },
    {
      "midi": 57,
      "hit": false,
      "t": 59999.80999999999,
      "d": 221.15314583333384,
      "v": 73
    },
    {
      "midi": 64,
      "hit": false,
      "t": 59999.80999999999,
      "d": 365.38345833333733,
      "v": 93
    },
    {
      "midi": 61,
      "hit": false,
      "t": 59999.80999999999,
      "d": 376.92188333333615,
      "v": 100
    },
    {
      "midi": 55,
      "hit": false,
      "t": 60922.884,
      "d": 311.53747499999736,
      "v": 100
    },
    {
      "midi": 64,
      "hit": false,
      "t": 60922.884,
      "d": 338.4604666666637,
      "v": 98
    },
    {
      "midi": 60,
      "hit": false,
      "t": 60922.884,
      "d": 348.0758208333282,
      "v": 89
    },
    {
      "midi": 48,
      "hit": false,
      "t": 60922.884,
      "d": 905.7663624999914,
      "v": 93
    },
    {
      "midi": 55,
      "hit": false,
      "t": 61845.95799999999,
      "d": 226.9223583333369,
      "v": 72
    },
    {
      "midi": 57,
      "hit": false,
      "t": 62307.494999999995,
      "d": 59.61519583333575,
      "v": 32
    },
    {
      "midi": 55,
      "hit": false,
      "t": 62538.2635,
      "d": 342.3066083333324,
      "v": 48
    },
    {
      "midi": 57,
      "hit": false,
      "t": 62769.032,
      "d": 65.38440833333152,
      "v": 1
    },
    {
      "midi": 62,
      "hit": false,
      "t": 62769.032,
      "d": 299.99904999999853,
      "v": 62
    },
    {
      "midi": 59,
      "hit": false,
      "t": 62769.032,
      "d": 330.7681833333336,
      "v": 77
    },
    {
      "midi": 43,
      "hit": false,
      "t": 62769.032,
      "d": 1013.4583291666786,
      "v": 77
    },
    {
      "midi": 50,
      "hit": false,
      "t": 62999.8005,
      "d": 736.5361291666777,
      "v": 65
    },
    {
      "midi": 55,
      "hit": false,
      "t": 63230.569,
      "d": 128.84574583333597,
      "v": 85
    },
    {
      "midi": 57,
      "hit": false,
      "t": 63461.33750000001,
      "d": 521.1521958333396,
      "v": 127
    },
    {
      "midi": 55,
      "hit": false,
      "t": 63922.87450000001,
      "d": 117.30732083333714,
      "v": 64
    },
    {
      "midi": 60,
      "hit": false,
      "t": 64153.64300000002,
      "d": 198.0762958333362,
      "v": 127
    },
    {
      "midi": 50,
      "hit": false,
      "t": 64384.411500000024,
      "d": 213.46086249999644,
      "v": 83
    },
    {
      "midi": 55,
      "hit": false,
      "t": 64615.18000000002,
      "d": 353.84503333333123,
      "v": 91
    },
    {
      "midi": 62,
      "hit": false,
      "t": 64615.18000000002,
      "d": 369.22959999999875,
      "v": 108
    },
    {
      "midi": 59,
      "hit": false,
      "t": 64615.18000000002,
      "d": 392.3064499999964,
      "v": 106
    },
    {
      "midi": 43,
      "hit": false,
      "t": 64615.18000000002,
      "d": 1253.8421833333268,
      "v": 106
    },
    {
      "midi": 55,
      "hit": false,
      "t": 65538.25400000002,
      "d": 332.69125416666793,
      "v": 89
    },
    {
      "midi": 62,
      "hit": false,
      "t": 65538.25400000002,
      "d": 338.460466666671,
      "v": 98
    },
    {
      "midi": 59,
      "hit": false,
      "t": 65538.25400000002,
      "d": 353.84503333333123,
      "v": 98
    },
    {
      "midi": 55,
      "hit": false,
      "t": 66461.32800000001,
      "d": 446.1524333333218,
      "v": 89
    },
    {
      "midi": 61,
      "hit": false,
      "t": 66461.32800000001,
      "d": 449.9985749999905,
      "v": 104
    },
    {
      "midi": 64,
      "hit": false,
      "t": 66461.32800000001,
      "d": 449.9985749999905,
      "v": 100
    },
    {
      "midi": 43,
      "hit": false,
      "t": 66461.32800000001,
      "d": 1251.919112499978,
      "v": 82
    },
    {
      "midi": 55,
      "hit": false,
      "t": 67384.402,
      "d": 234.61464166665974,
      "v": 103
    },
    {
      "midi": 64,
      "hit": false,
      "t": 67384.402,
      "d": 276.92219999998633,
      "v": 113
    },
    {
      "midi": 61,
      "hit": false,
      "t": 67384.402,
      "d": 299.999049999984,
      "v": 115
    },
    {
      "midi": 55,
      "hit": false,
      "t": 67845.93899999998,
      "d": 259.6145625000063,
      "v": 46
    },
    {
      "midi": 55,
      "hit": false,
      "t": 68307.47599999998,
      "d": 361.53731666666863,
      "v": 96
    },
    {
      "midi": 64,
      "hit": false,
      "t": 68307.47599999998,
      "d": 417.3063708333357,
      "v": 108
    },
    {
      "midi": 60,
      "hit": false,
      "t": 68307.47599999998,
      "d": 455.7677875000081,
      "v": 106
    },
    {
      "midi": 43,
      "hit": false,
      "t": 68307.47599999998,
      "d": 1280.7651750000223,
      "v": 70
    },
    {
      "midi": 55,
      "hit": false,
      "t": 68769.01299999999,
      "d": 111.5381083333341,
      "v": 55
    },
    {
      "midi": 64,
      "hit": false,
      "t": 68999.7815,
      "d": 315.38361666667333,
      "v": 108
    },
    {
      "midi": 60,
      "hit": false,
      "t": 69461.31850000001,
      "d": 224.999287499988,
      "v": 127
    },
    {
      "midi": 55,
      "hit": false,
      "t": 70153.624,
      "d": 278.84527083333523,
      "v": 77
    },
    {
      "midi": 62,
      "hit": false,
      "t": 70153.624,
      "d": 311.53747500000463,
      "v": 77
    },
    {
      "midi": 59,
      "hit": false,
      "t": 70153.624,
      "d": 338.460466666671,
      "v": 93
    },
    {
      "midi": 43,
      "hit": false,
      "t": 70153.624,
      "d": 999.9968333333527,
      "v": 82
    },
    {
      "midi": 50,
      "hit": false,
      "t": 70384.3925,
      "d": 696.1516416666709,
      "v": 72
    },
    {
      "midi": 55,
      "hit": false,
      "t": 70615.16100000001,
      "d": 109.61503749999974,
      "v": 78
    },
    {
      "midi": 57,
      "hit": false,
      "t": 70845.92950000001,
      "d": 294.2298374999955,
      "v": 126
    },
    {
      "midi": 62,
      "hit": false,
      "t": 70845.92950000001,
      "d": 305.7682625000016,
      "v": 126
    },
    {
      "midi": 59,
      "hit": false,
      "t": 71307.46650000001,
      "d": 155.76873749999504,
      "v": 93
    },
    {
      "midi": 55,
      "hit": false,
      "t": 71538.235,
      "d": 134.61495833333174,
      "v": 98
    },
    {
      "midi": 31,
      "hit": false,
      "t": 71538.235,
      "d": 217.30700416666514,
      "v": 120
    },
    {
      "midi": 33,
      "hit": false,
      "t": 71769.0035,
      "d": 134.61495833333174,
      "v": 89
    },
    {
      "midi": 35,
      "hit": false,
      "t": 71999.77200000001,
      "d": 434.6140083333303,
      "v": 127
    },
    {
      "midi": 57,
      "hit": false,
      "t": 71999.77200000001,
      "d": 449.9985749999905,
      "v": 123
    },
    {
      "midi": 62,
      "hit": false,
      "t": 71999.77200000001,
      "d": 482.6907791666599,
      "v": 120
    },
    {
      "midi": 62,
      "hit": false,
      "t": 72922.846,
      "d": 392.3064500000037,
      "v": 108
    },
    {
      "midi": 57,
      "hit": false,
      "t": 72922.846,
      "d": 399.9987333333411,
      "v": 106
    },
    {
      "midi": 36,
      "hit": false,
      "t": 73845.92000000001,
      "d": 261.5376333333261,
      "v": 100
    },
    {
      "midi": 60,
      "hit": false,
      "t": 73845.92000000001,
      "d": 326.9220416666649,
      "v": 106
    },
    {
      "midi": 55,
      "hit": false,
      "t": 73845.92000000001,
      "d": 363.460387500003,
      "v": 103
    },
    {
      "midi": 55,
      "hit": false,
      "t": 74768.99400000002,
      "d": 486.5369208333286,
      "v": 108
    },
    {
      "midi": 60,
      "hit": false,
      "t": 74768.99400000002,
      "d": 488.459991666663,
      "v": 103
    },
    {
      "midi": 52,
      "hit": false,
      "t": 75230.53100000002,
      "d": 149.99952500000654,
      "v": 62
    },
    {
      "midi": 57,
      "hit": false,
      "t": 75692.06800000001,
      "d": 471.1523541666684,
      "v": 100
    },
    {
      "midi": 61,
      "hit": false,
      "t": 75692.06800000001,
      "d": 499.9984166666691,
      "v": 100
    },
    {
      "midi": 52,
      "hit": false,
      "t": 75692.06800000001,
      "d": 509.6137708333408,
      "v": 89
    },
    {
      "midi": 37,
      "hit": false,
      "t": 75692.06800000001,
      "d": 1269.2267500000016,
      "v": 92
    },
    {
      "midi": 61,
      "hit": false,
      "t": 76615.14200000002,
      "d": 390.3833791666548,
      "v": 96
    },
    {
      "midi": 57,
      "hit": false,
      "t": 76615.14200000002,
      "d": 399.9987333333265,
      "v": 98
    },
    {
      "midi": 52,
      "hit": false,
      "t": 76615.14200000002,
      "d": 426.9217249999929,
      "v": 89
    },
    {
      "midi": 52,
      "hit": false,
      "t": 77538.21600000001,
      "d": 461.5370000000112,
      "v": 86
    },
    {
      "midi": 38,
      "hit": false,
      "t": 77538.21600000001,
      "d": 473.0754250000173,
      "v": 93
    },
    {
      "midi": 55,
      "hit": false,
      "t": 77538.21600000001,
      "d": 476.921566666686,
      "v": 103
    },
    {
      "midi": 52,
      "hit": false,
      "t": 78461.29000000004,
      "d": 486.5369208333286,
      "v": 86
    },
    {
      "midi": 36,
      "hit": false,
      "t": 78461.29000000004,
      "d": 519.229124999998,
      "v": 78
    },
    {
      "midi": 54,
      "hit": false,
      "t": 78461.29000000004,
      "d": 530.7675500000041,
      "v": 91
    },
    {
      "midi": 57,
      "hit": false,
      "t": 78461.29000000004,
      "d": 549.9982583333331,
      "v": 91
    },
    {
      "midi": 50,
      "hit": false,
      "t": 78922.82700000003,
      "d": 34.61527500000375,
      "v": 34
    },
    {
      "midi": 35,
      "hit": false,
      "t": 79384.36400000003,
      "d": 303.84519166666723,
      "v": 91
    },
    {
      "midi": 55,
      "hit": false,
      "t": 79384.36400000003,
      "d": 332.69125416666793,
      "v": 106
    },
    {
      "midi": 62,
      "hit": false,
      "t": 79384.36400000003,
      "d": 363.460387500003,
      "v": 108
    },
    {
      "midi": 59,
      "hit": false,
      "t": 79384.36400000003,
      "d": 374.9988125000091,
      "v": 108
    },
    {
      "midi": 62,
      "hit": false,
      "t": 80307.43800000004,
      "d": 503.8445583333523,
      "v": 126
    },
    {
      "midi": 59,
      "hit": false,
      "t": 80538.20650000004,
      "d": 267.3068458333437,
      "v": 46
    },
    {
      "midi": 55,
      "hit": false,
      "t": 80768.97500000005,
      "d": 111.5381083333341,
      "v": 60
    },
    {
      "midi": 60,
      "hit": false,
      "t": 81230.51200000005,
      "d": 549.9982583333331,
      "v": 113
    },
    {
      "midi": 52,
      "hit": false,
      "t": 81230.51200000005,
      "d": 563.4597541666735,
      "v": 98
    },
    {
      "midi": 36,
      "hit": false,
      "t": 81230.51200000005,
      "d": 1355.7649375000183,
      "v": 96
    },
    {
      "midi": 59,
      "hit": false,
      "t": 81922.81750000005,
      "d": 148.0764541666722,
      "v": 108
    },
    {
      "midi": 55,
      "hit": false,
      "t": 82384.35450000006,
      "d": 192.30708333333314,
      "v": 111
    },
    {
      "midi": 50,
      "hit": false,
      "t": 82384.35450000006,
      "d": 201.9224375000049,
      "v": 91
    },
    {
      "midi": 52,
      "hit": false,
      "t": 83076.66000000006,
      "d": 328.84511249999923,
      "v": 89
    },
    {
      "midi": 60,
      "hit": false,
      "t": 83076.66000000006,
      "d": 330.7681833333336,
      "v": 103
    },
    {
      "midi": 55,
      "hit": false,
      "t": 83076.66000000006,
      "d": 336.53739583333663,
      "v": 100
    },
    {
      "midi": 33,
      "hit": false,
      "t": 83076.66000000006,
      "d": 359.6142458333343,
      "v": 80
    },
    {
      "midi": 55,
      "hit": false,
      "t": 83999.73400000007,
      "d": 228.84542916667124,
      "v": 106
    },
    {
      "midi": 60,
      "hit": false,
      "t": 83999.73400000007,
      "d": 236.53771250000864,
      "v": 106
    },
    {
      "midi": 52,
      "hit": false,
      "t": 83999.73400000007,
      "d": 240.38385416667734,
      "v": 98
    },
    {
      "midi": 55,
      "hit": false,
      "t": 84922.80800000008,
      "d": 321.15282916666183,
      "v": 100
    },
    {
      "midi": 52,
      "hit": false,
      "t": 84922.80800000008,
      "d": 363.4603874999884,
      "v": 98
    },
    {
      "midi": 38,
      "hit": false,
      "t": 84922.80800000008,
      "d": 1199.9961999999941,
      "v": 100
    },
    {
      "midi": 45,
      "hit": false,
      "t": 85615.11350000006,
      "d": 374.9988125000091,
      "v": 11
    },
    {
      "midi": 48,
      "hit": false,
      "t": 85845.88200000007,
      "d": 119.2303916666715,
      "v": 75
    },
    {
      "midi": 52,
      "hit": false,
      "t": 86076.65050000008,
      "d": 88.4612583333219,
      "v": 72
    },
    {
      "midi": 55,
      "hit": false,
      "t": 86307.41900000007,
      "d": 253.84535000000324,
      "v": 123
    },
    {
      "midi": 45,
      "hit": false,
      "t": 86538.18750000007,
      "d": 167.3071624999866,
      "v": 77
    },
    {
      "midi": 50,
      "hit": false,
      "t": 86768.95600000006,
      "d": 230.76849999999104,
      "v": 106
    },
    {
      "midi": 54,
      "hit": false,
      "t": 86768.95600000006,
      "d": 267.30684583332913,
      "v": 108
    },
    {
      "midi": 57,
      "hit": false,
      "t": 86768.95600000006,
      "d": 269.2299166666635,
      "v": 117
    },
    {
      "midi": 38,
      "hit": false,
      "t": 86768.95600000006,
      "d": 986.5353374999977,
      "v": 98
    },
    {
      "midi": 57,
      "hit": false,
      "t": 88153.56700000007,
      "d": 349.99889166666253,
      "v": 66
    },
    {
      "midi": 59,
      "hit": false,
      "t": 88615.10400000006,
      "d": 276.9222000000009,
      "v": 117
    },
    {
      "midi": 67,
      "hit": false,
      "t": 88615.10400000006,
      "d": 276.9222000000009,
      "v": 123
    },
    {
      "midi": 62,
      "hit": false,
      "t": 88615.10400000006,
      "d": 294.2298374999955,
      "v": 120
    },
    {
      "midi": 43,
      "hit": false,
      "t": 88615.10400000006,
      "d": 1124.9964374999981,
      "v": 106
    },
    {
      "midi": 59,
      "hit": false,
      "t": 89538.17800000006,
      "d": 224.99928750000254,
      "v": 111
    },
    {
      "midi": 67,
      "hit": false,
      "t": 89538.17800000006,
      "d": 238.460783333343,
      "v": 108
    },
    {
      "midi": 62,
      "hit": false,
      "t": 89538.17800000006,
      "d": 251.92227916668344,
      "v": 111
    },
    {
      "midi": 59,
      "hit": false,
      "t": 89999.71500000007,
      "d": 157.6918083333294,
      "v": 51
    },
    {
      "midi": 62,
      "hit": false,
      "t": 90230.48350000006,
      "d": 86.5381875000021,
      "v": 48
    },
    {
      "midi": 36,
      "hit": false,
      "t": 90461.25200000005,
      "d": 348.07582083334273,
      "v": 93
    },
    {
      "midi": 67,
      "hit": false,
      "t": 90461.25200000005,
      "d": 423.0755833333387,
      "v": 123
    },
    {
      "midi": 64,
      "hit": false,
      "t": 90461.25200000005,
      "d": 426.9217250000074,
      "v": 111
    },
    {
      "midi": 60,
      "hit": false,
      "t": 90461.25200000005,
      "d": 428.8447958333418,
      "v": 117
    },
    {
      "midi": 60,
      "hit": false,
      "t": 91384.32600000006,
      "d": 328.84511249999923,
      "v": 108
    },
    {
      "midi": 67,
      "hit": false,
      "t": 91384.32600000006,
      "d": 359.6142458333343,
      "v": 111
    },
    {
      "midi": 64,
      "hit": false,
      "t": 91384.32600000006,
      "d": 373.07574166667473,
      "v": 108
    },
    {
      "midi": 60,
      "hit": false,
      "t": 92307.40000000007,
      "d": 421.1525125000044,
      "v": 103
    },
    {
      "midi": 64,
      "hit": false,
      "t": 92307.40000000007,
      "d": 434.6140083333448,
      "v": 91
    },
    {
      "midi": 67,
      "hit": false,
      "t": 92307.40000000007,
      "d": 436.5370791666792,
      "v": 108
    },
    {
      "midi": 57,
      "hit": false,
      "t": 92307.40000000007,
      "d": 440.3832208333479,
      "v": 96
    },
    {
      "midi": 45,
      "hit": false,
      "t": 92307.40000000007,
      "d": 1009.6121875000099,
      "v": 96
    },
    {
      "midi": 57,
      "hit": false,
      "t": 93230.47400000007,
      "d": 171.15330416666984,
      "v": 111
    },
    {
      "midi": 60,
      "hit": false,
      "t": 93230.47400000007,
      "d": 182.69172916667594,
      "v": 123
    },
    {
      "midi": 64,
      "hit": false,
      "t": 93230.47400000007,
      "d": 203.84550833333924,
      "v": 113
    },
    {
      "midi": 52,
      "hit": false,
      "t": 93461.24250000008,
      "d": 142.30724166666914,
      "v": 82
    },
    {
      "midi": 60,
      "hit": false,
      "t": 93692.01100000009,
      "d": 188.46094166666444,
      "v": 86
    },
    {
      "midi": 64,
      "hit": false,
      "t": 93922.77950000008,
      "d": 117.30732083333714,
      "v": 80
    },
    {
      "midi": 38,
      "hit": false,
      "t": 94153.54800000008,
      "d": 153.84566666667524,
      "v": 103
    },
    {
      "midi": 60,
      "hit": false,
      "t": 94153.54800000008,
      "d": 236.53771250000864,
      "v": 120
    },
    {
      "midi": 67,
      "hit": false,
      "t": 94153.54800000008,
      "d": 273.07605833334674,
      "v": 126
    },
    {
      "midi": 64,
      "hit": false,
      "t": 94153.54800000008,
      "d": 280.76834166668414,
      "v": 120
    },
    {
      "midi": 60,
      "hit": false,
      "t": 94615.0850000001,
      "d": 134.61495833333174,
      "v": 51
    },
    {
      "midi": 64,
      "hit": false,
      "t": 94845.8535000001,
      "d": 115.3842500000028,
      "v": 66
    },
    {
      "midi": 62,
      "hit": false,
      "t": 95076.6220000001,
      "d": 284.6144833333383,
      "v": 111
    },
    {
      "midi": 57,
      "hit": false,
      "t": 95076.6220000001,
      "d": 338.460466666671,
      "v": 85
    },
    {
      "midi": 50,
      "hit": false,
      "t": 95076.6220000001,
      "d": 353.84503333333123,
      "v": 72
    },
    {
      "midi": 69,
      "hit": false,
      "t": 95076.6220000001,
      "d": 413.460229166667,
      "v": 117
    },
    {
      "midi": 66,
      "hit": false,
      "t": 95076.6220000001,
      "d": 419.22944166667,
      "v": 120
    },
    {
      "midi": 59,
      "hit": false,
      "t": 95999.6960000001,
      "d": 369.22960000000603,
      "v": 120
    },
    {
      "midi": 67,
      "hit": false,
      "t": 95999.6960000001,
      "d": 371.1526708333404,
      "v": 123
    },
    {
      "midi": 62,
      "hit": false,
      "t": 95999.6960000001,
      "d": 374.9988125000091,
      "v": 120
    },
    {
      "midi": 43,
      "hit": false,
      "t": 95999.6960000001,
      "d": 1134.61179166667,
      "v": 100
    },
    {
      "midi": 67,
      "hit": false,
      "t": 96922.7700000001,
      "d": 251.9222791666689,
      "v": 113
    },
    {
      "midi": 62,
      "hit": false,
      "t": 96922.7700000001,
      "d": 259.6145625000063,
      "v": 120
    },
    {
      "midi": 59,
      "hit": false,
      "t": 97384.30700000012,
      "d": 224.99928750000254,
      "v": 82
    },
    {
      "midi": 62,
      "hit": false,
      "t": 97615.07550000012,
      "d": 117.30732083333714,
      "v": 63
    },
    {
      "midi": 36,
      "hit": false,
      "t": 97845.84400000011,
      "d": 267.30684583332913,
      "v": 82
    },
    {
      "midi": 67,
      "hit": false,
      "t": 97845.84400000011,
      "d": 369.2295999999915,
      "v": 120
    },
    {
      "midi": 60,
      "hit": false,
      "t": 97845.84400000011,
      "d": 386.5372374999861,
      "v": 111
    },
    {
      "midi": 64,
      "hit": false,
      "t": 97845.84400000011,
      "d": 394.2295208333235,
      "v": 108
    },
    {
      "midi": 67,
      "hit": false,
      "t": 98768.9180000001,
      "d": 298.0759791666642,
      "v": 111
    },
    {
      "midi": 60,
      "hit": false,
      "t": 98768.9180000001,
      "d": 323.0758999999962,
      "v": 108
    },
    {
      "midi": 64,
      "hit": false,
      "t": 98768.9180000001,
      "d": 323.0758999999962,
      "v": 111
    },
    {
      "midi": 57,
      "hit": false,
      "t": 99691.9920000001,
      "d": 296.15290833332983,
      "v": 98
    },
    {
      "midi": 60,
      "hit": false,
      "t": 99691.9920000001,
      "d": 309.6144041666703,
      "v": 113
    },
    {
      "midi": 64,
      "hit": false,
      "t": 99691.9920000001,
      "d": 330.7681833333336,
      "v": 108
    },
    {
      "midi": 45,
      "hit": false,
      "t": 99691.9920000001,
      "d": 980.7661249999946,
      "v": 108
    },
    {
      "midi": 64,
      "hit": false,
      "t": 100615.0660000001,
      "d": 176.9225166666729,
      "v": 117
    },
    {
      "midi": 67,
      "hit": false,
      "t": 100615.0660000001,
      "d": 182.69172916667594,
      "v": 117
    },
    {
      "midi": 60,
      "hit": false,
      "t": 100615.0660000001,
      "d": 186.53787083334464,
      "v": 113
    },
    {
      "midi": 52,
      "hit": false,
      "t": 100845.8345000001,
      "d": 111.5381083333341,
      "v": 96
    },
    {
      "midi": 60,
      "hit": false,
      "t": 101076.6030000001,
      "d": 176.9225166666729,
      "v": 89
    },
    {
      "midi": 64,
      "hit": false,
      "t": 101307.37150000011,
      "d": 107.6919666666654,
      "v": 75
    },
    {
      "midi": 60,
      "hit": false,
      "t": 101538.14000000012,
      "d": 303.84519166666723,
      "v": 123
    },
    {
      "midi": 64,
      "hit": false,
      "t": 101538.14000000012,
      "d": 317.3066875000077,
      "v": 123
    },
    {
      "midi": 67,
      "hit": false,
      "t": 101538.14000000012,
      "d": 321.1528291666764,
      "v": 126
    },
    {
      "midi": 38,
      "hit": false,
      "t": 101538.14000000012,
      "d": 1292.3036000000138,
      "v": 91
    },
    {
      "midi": 69,
      "hit": false,
      "t": 102461.21400000012,
      "d": 353.84503333333123,
      "v": 117
    },
    {
      "midi": 62,
      "hit": false,
      "t": 102461.21400000012,
      "d": 355.7681041666656,
      "v": 120
    },
    {
      "midi": 66,
      "hit": false,
      "t": 102461.21400000012,
      "d": 369.22960000000603,
      "v": 126
    },
    {
      "midi": 67,
      "hit": false,
      "t": 103384.28800000013,
      "d": 523.0752666666667,
      "v": 123
    },
    {
      "midi": 64,
      "hit": false,
      "t": 103384.28800000013,
      "d": 549.9982583333331,
      "v": 108
    },
    {
      "midi": 71,
      "hit": false,
      "t": 103384.28800000013,
      "d": 561.5366833333392,
      "v": 127
    },
    {
      "midi": 40,
      "hit": false,
      "t": 103384.28800000013,
      "d": 1142.3040750000073,
      "v": 89
    },
    {
      "midi": 67,
      "hit": false,
      "t": 104307.36200000014,
      "d": 419.22944166667,
      "v": 120
    },
    {
      "midi": 71,
      "hit": false,
      "t": 104307.36200000014,
      "d": 423.0755833333387,
      "v": 117
    },
    {
      "midi": 64,
      "hit": false,
      "t": 104307.36200000014,
      "d": 434.6140083333448,
      "v": 106
    },
    {
      "midi": 66,
      "hit": false,
      "t": 105230.43600000015,
      "d": 467.3062124999997,
      "v": 113
    },
    {
      "midi": 63,
      "hit": false,
      "t": 105230.43600000015,
      "d": 492.3061333333317,
      "v": 111
    },
    {
      "midi": 71,
      "hit": false,
      "t": 105230.43600000015,
      "d": 499.9984166666691,
      "v": 126
    },
    {
      "midi": 39,
      "hit": false,
      "t": 105230.43600000015,
      "d": 1055.7658875000052,
      "v": 100
    },
    {
      "midi": 66,
      "hit": false,
      "t": 106153.51000000015,
      "d": 198.0762958333362,
      "v": 123
    },
    {
      "midi": 63,
      "hit": false,
      "t": 106153.51000000015,
      "d": 203.84550833333924,
      "v": 115
    },
    {
      "midi": 71,
      "hit": false,
      "t": 106153.51000000015,
      "d": 211.53779166667664,
      "v": 126
    },
    {
      "midi": 71,
      "hit": false,
      "t": 107076.58400000016,
      "d": 409.6140874999983,
      "v": 126
    },
    {
      "midi": 67,
      "hit": false,
      "t": 107076.58400000016,
      "d": 419.22944166667,
      "v": 117
    },
    {
      "midi": 62,
      "hit": false,
      "t": 107076.58400000016,
      "d": 423.0755833333387,
      "v": 103
    },
    {
      "midi": 40,
      "hit": false,
      "t": 107076.58400000016,
      "d": 1313.4573791666771,
      "v": 89
    },
    {
      "midi": 67,
      "hit": false,
      "t": 107999.65800000017,
      "d": 396.1525916666724,
      "v": 106
    },
    {
      "midi": 71,
      "hit": false,
      "t": 107999.65800000017,
      "d": 411.5371583333326,
      "v": 120
    },
    {
      "midi": 62,
      "hit": false,
      "t": 107999.65800000017,
      "d": 442.3062916666677,
      "v": 93
    },
    {
      "midi": 67,
      "hit": false,
      "t": 108922.73200000018,
      "d": 499.9984166666691,
      "v": 106
    },
    {
      "midi": 64,
      "hit": false,
      "t": 108922.73200000018,
      "d": 503.8445583333378,
      "v": 111
    },
    {
      "midi": 61,
      "hit": false,
      "t": 108922.73200000018,
      "d": 511.5368416666752,
      "v": 96
    },
    {
      "midi": 71,
      "hit": false,
      "t": 108922.73200000018,
      "d": 523.0752666666813,
      "v": 113
    },
    {
      "midi": 33,
      "hit": false,
      "t": 108922.73200000018,
      "d": 659.6132958333474,
      "v": 82
    },
    {
      "midi": 67,
      "hit": false,
      "t": 109845.80600000019,
      "d": 299.99904999999853,
      "v": 111
    },
    {
      "midi": 64,
      "hit": false,
      "t": 109845.80600000019,
      "d": 309.6144041666703,
      "v": 108
    },
    {
      "midi": 61,
      "hit": false,
      "t": 109845.80600000019,
      "d": 336.53739583333663,
      "v": 96
    },
    {
      "midi": 71,
      "hit": false,
      "t": 109845.80600000019,
      "d": 342.3066083333397,
      "v": 100
    },
    {
      "midi": 67,
      "hit": false,
      "t": 110768.8800000002,
      "d": 192.30708333333314,
      "v": 117
    },
    {
      "midi": 64,
      "hit": false,
      "t": 110768.8800000002,
      "d": 209.61472083332774,
      "v": 111
    },
    {
      "midi": 60,
      "hit": false,
      "t": 110768.8800000002,
      "d": 248.0761375000002,
      "v": 106
    },
    {
      "midi": 45,
      "hit": false,
      "t": 110768.8800000002,
      "d": 3265.37427499998,
      "v": 91
    },
    {
      "midi": 60,
      "hit": false,
      "t": 111691.95400000019,
      "d": 132.6918874999974,
      "v": 71
    },
    {
      "midi": 52,
      "hit": false,
      "t": 111922.72250000018,
      "d": 1663.456270833325,
      "v": 51
    },
    {
      "midi": 60,
      "hit": false,
      "t": 112153.49100000018,
      "d": 267.3068458333437,
      "v": 86
    },
    {
      "midi": 64,
      "hit": false,
      "t": 112384.25950000019,
      "d": 94.2304708333395,
      "v": 78
    },
    {
      "midi": 72,
      "hit": false,
      "t": 112615.0280000002,
      "d": 321.15282916666183,
      "v": 126
    },
    {
      "midi": 64,
      "hit": false,
      "t": 112615.0280000002,
      "d": 349.99889166666253,
      "v": 106
    },
    {
      "midi": 71,
      "hit": false,
      "t": 113076.56500000019,
      "d": 99.999683333328,
      "v": 80
    },
    {
      "midi": 67,
      "hit": false,
      "t": 113307.33350000018,
      "d": 153.8456666666607,
      "v": 127
    },
    {
      "midi": 60,
      "hit": false,
      "t": 113768.87050000016,
      "d": 282.6914125000185,
      "v": 127
    },
    {
      "midi": 52,
      "hit": false,
      "t": 113999.63900000017,
      "d": 46.15370000000985,
      "v": 42
    },
    {
      "midi": 60,
      "hit": false,
      "t": 114230.40750000019,
      "d": 90.3843291666708,
      "v": 53
    },
    {
      "midi": 38,
      "hit": false,
      "t": 114461.1760000002,
      "d": 2805.760345833347,
      "v": 106
    },
    {
      "midi": 64,
      "hit": false,
      "t": 114461.1760000002,
      "d": 2882.6831791666773,
      "v": 127
    },
    {
      "midi": 60,
      "hit": false,
      "t": 114461.1760000002,
      "d": 2899.990816666672,
      "v": 127
    },
    {
      "midi": 67,
      "hit": false,
      "t": 114461.1760000002,
      "d": 2901.9138875000062,
      "v": 127
    },
    {
      "midi": 62,
      "hit": false,
      "t": 118153.4720000002,
      "d": 1099.9965166666661,
      "v": 78
    },
    {
      "midi": 59,
      "hit": false,
      "t": 118153.4720000002,
      "d": 1107.6888000000035,
      "v": 70
    },
    {
      "midi": 67,
      "hit": false,
      "t": 118153.4720000002,
      "d": 1126.9195083333325,
      "v": 66
    },
    {
      "midi": 43,
      "hit": false,
      "t": 118153.4720000002,
      "d": 2628.837829166674,
      "v": 86
    },
    {
      "midi": 71,
      "hit": false,
      "t": 120691.9255000002,
      "d": 330.7681833333336,
      "v": 120
    },
    {
      "midi": 62,
      "hit": false,
      "t": 120691.9255000002,
      "d": 365.38345833333733,
      "v": 111
    },
    {
      "midi": 69,
      "hit": false,
      "t": 120922.6940000002,
      "d": 326.92204166667943,
      "v": 67
    },
    {
      "midi": 67,
      "hit": false,
      "t": 121153.46250000021,
      "d": 305.7682625000016,
      "v": 62
    },
    {
      "midi": 62,
      "hit": false,
      "t": 121384.23100000022,
      "d": 80.76897499999905,
      "v": 113
    },
    {
      "midi": 63,
      "hit": false,
      "t": 121845.76800000021,
      "d": 592.3058166666742,
      "v": 111
    },
    {
      "midi": 58,
      "hit": false,
      "t": 121845.76800000021,
      "d": 607.6903833333345,
      "v": 119
    },
    {
      "midi": 67,
      "hit": false,
      "t": 121845.76800000021,
      "d": 615.3826666666719,
      "v": 117
    },
    {
      "midi": 39,
      "hit": false,
      "t": 121845.76800000021,
      "d": 888.458725000004,
      "v": 107
    },
    {
      "midi": 58,
      "hit": false,
      "t": 122768.84200000022,
      "d": 80.76897499999905,
      "v": 33
    },
    {
      "midi": 39,
      "hit": false,
      "t": 122999.61050000023,
      "d": 251.9222791666689,
      "v": 94
    },
    {
      "midi": 63,
      "hit": false,
      "t": 123230.37900000023,
      "d": 109.61503749999974,
      "v": 127
    },
    {
      "midi": 45,
      "hit": false,
      "t": 123461.14750000024,
      "d": 155.76873749999504,
      "v": 96
    },
    {
      "midi": 64,
      "hit": false,
      "t": 123691.91600000023,
      "d": 519.229124999998,
      "v": 126
    },
    {
      "midi": 60,
      "hit": false,
      "t": 123691.91600000023,
      "d": 523.0752666666667,
      "v": 120
    },
    {
      "midi": 67,
      "hit": false,
      "t": 123691.91600000023,
      "d": 551.9213291666674,
      "v": 126
    },
    {
      "midi": 38,
      "hit": false,
      "t": 123691.91600000023,
      "d": 1023.0736833333358,
      "v": 111
    },
    {
      "midi": 72,
      "hit": false,
      "t": 124614.99000000024,
      "d": 80.76897499999905,
      "v": 120
    },
    {
      "midi": 55,
      "hit": false,
      "t": 125538.06400000023,
      "d": 249.99920833333454,
      "v": 91
    },
    {
      "midi": 62,
      "hit": false,
      "t": 125538.06400000023,
      "d": 253.84535000000324,
      "v": 103
    },
    {
      "midi": 59,
      "hit": false,
      "t": 125538.06400000023,
      "d": 271.15298749999783,
      "v": 100
    },
    {
      "midi": 43,
      "hit": false,
      "t": 125538.06400000023,
      "d": 1317.3035208333458,
      "v": 93
    },
    {
      "midi": 55,
      "hit": false,
      "t": 125999.60100000023,
      "d": 221.15314583333384,
      "v": 50
    },
    {
      "midi": 50,
      "hit": false,
      "t": 126230.36950000023,
      "d": 646.1518000000069,
      "v": 60
    },
    {
      "midi": 59,
      "hit": false,
      "t": 126461.13800000024,
      "d": 492.3061333333317,
      "v": 91
    },
    {
      "midi": 62,
      "hit": false,
      "t": 126461.13800000024,
      "d": 511.5368416666606,
      "v": 98
    },
    {
      "midi": 55,
      "hit": false,
      "t": 126922.67500000024,
      "d": 80.76897499999905,
      "v": 58
    },
    {
      "midi": 57,
      "hit": false,
      "t": 127384.21200000023,
      "d": 459.6139291666623,
      "v": 85
    },
    {
      "midi": 64,
      "hit": false,
      "t": 127384.21200000023,
      "d": 465.3831416666653,
      "v": 106
    },
    {
      "midi": 61,
      "hit": false,
      "t": 127384.21200000023,
      "d": 480.7677083333256,
      "v": 104
    },
    {
      "midi": 43,
      "hit": false,
      "t": 127384.21200000023,
      "d": 1286.5343874999962,
      "v": 75
    },
    {
      "midi": 57,
      "hit": false,
      "t": 128307.28600000023,
      "d": 221.15314583333384,
      "v": 73
    },
    {
      "midi": 64,
      "hit": false,
      "t": 128307.28600000023,
      "d": 365.38345833333733,
      "v": 93
    },
    {
      "midi": 61,
      "hit": false,
      "t": 128307.28600000023,
      "d": 376.92188333334343,
      "v": 100
    },
    {
      "midi": 55,
      "hit": false,
      "t": 129230.36000000023,
      "d": 311.53747500000463,
      "v": 100
    },
    {
      "midi": 64,
      "hit": false,
      "t": 129230.36000000023,
      "d": 338.460466666671,
      "v": 98
    },
    {
      "midi": 60,
      "hit": false,
      "t": 129230.36000000023,
      "d": 348.07582083334273,
      "v": 89
    },
    {
      "midi": 48,
      "hit": false,
      "t": 129230.36000000023,
      "d": 905.7663625000132,
      "v": 93
    },
    {
      "midi": 55,
      "hit": false,
      "t": 130153.43400000024,
      "d": 226.9223583333369,
      "v": 72
    },
    {
      "midi": 57,
      "hit": false,
      "t": 130614.97100000024,
      "d": 59.61519583333575,
      "v": 32
    },
    {
      "midi": 55,
      "hit": false,
      "t": 130845.73950000024,
      "d": 342.30660833332513,
      "v": 48
    },
    {
      "midi": 57,
      "hit": false,
      "t": 131076.50800000023,
      "d": 65.3844083333388,
      "v": 1
    },
    {
      "midi": 62,
      "hit": false,
      "t": 131076.50800000023,
      "d": 299.9990500000131,
      "v": 62
    },
    {
      "midi": 59,
      "hit": false,
      "t": 131076.50800000023,
      "d": 330.7681833333336,
      "v": 77
    },
    {
      "midi": 43,
      "hit": false,
      "t": 131076.50800000023,
      "d": 1013.4583291666931,
      "v": 77
    },
    {
      "midi": 50,
      "hit": false,
      "t": 131307.27650000024,
      "d": 736.5361291666923,
      "v": 65
    },
    {
      "midi": 55,
      "hit": false,
      "t": 131538.04500000025,
      "d": 128.8457458333287,
      "v": 85
    },
    {
      "midi": 57,
      "hit": false,
      "t": 131768.81350000025,
      "d": 521.1521958333324,
      "v": 127
    },
    {
      "midi": 55,
      "hit": false,
      "t": 132230.35050000026,
      "d": 117.30732083332259,
      "v": 64
    },
    {
      "midi": 60,
      "hit": false,
      "t": 132461.11900000024,
      "d": 198.0762958333362,
      "v": 127
    },
    {
      "midi": 50,
      "hit": false,
      "t": 132691.88750000024,
      "d": 213.460862500011,
      "v": 83
    },
    {
      "midi": 55,
      "hit": false,
      "t": 132922.65600000025,
      "d": 353.8450333333458,
      "v": 91
    },
    {
      "midi": 62,
      "hit": false,
      "t": 132922.65600000025,
      "d": 369.2296000000206,
      "v": 108
    },
    {
      "midi": 59,
      "hit": false,
      "t": 132922.65600000025,
      "d": 392.3064500000328,
      "v": 106
    },
    {
      "midi": 43,
      "hit": false,
      "t": 132922.65600000025,
      "d": 1253.842183333356,
      "v": 106
    },
    {
      "midi": 55,
      "hit": false,
      "t": 133845.73000000027,
      "d": 332.6912541666534,
      "v": 89
    },
    {
      "midi": 62,
      "hit": false,
      "t": 133845.73000000027,
      "d": 338.4604666666419,
      "v": 98
    },
    {
      "midi": 59,
      "hit": false,
      "t": 133845.73000000027,
      "d": 353.8450333333167,
      "v": 98
    },
    {
      "midi": 55,
      "hit": false,
      "t": 134768.80400000024,
      "d": 446.1524333333364,
      "v": 89
    },
    {
      "midi": 61,
      "hit": false,
      "t": 134768.80400000024,
      "d": 449.9985750000051,
      "v": 104
    },
    {
      "midi": 64,
      "hit": false,
      "t": 134768.80400000024,
      "d": 449.9985750000051,
      "v": 100
    },
    {
      "midi": 43,
      "hit": false,
      "t": 134768.80400000024,
      "d": 1251.919112500007,
      "v": 82
    },
    {
      "midi": 55,
      "hit": false,
      "t": 135691.87800000023,
      "d": 234.6146416666743,
      "v": 103
    },
    {
      "midi": 64,
      "hit": false,
      "t": 135691.87800000023,
      "d": 276.9222000000009,
      "v": 113
    },
    {
      "midi": 61,
      "hit": false,
      "t": 135691.87800000023,
      "d": 299.9990500000131,
      "v": 115
    },
    {
      "midi": 55,
      "hit": false,
      "t": 136153.41500000024,
      "d": 259.6145625000063,
      "v": 46
    },
    {
      "midi": 55,
      "hit": false,
      "t": 136614.95200000025,
      "d": 361.5373166666541,
      "v": 96
    },
    {
      "midi": 64,
      "hit": false,
      "t": 136614.95200000025,
      "d": 417.3063708333066,
      "v": 108
    },
    {
      "midi": 60,
      "hit": false,
      "t": 136614.95200000025,
      "d": 455.76778749996447,
      "v": 106
    },
    {
      "midi": 43,
      "hit": false,
      "t": 136614.95200000025,
      "d": 1280.7651749999495,
      "v": 70
    },
    {
      "midi": 55,
      "hit": false,
      "t": 137076.4890000002,
      "d": 111.5381083333341,
      "v": 55
    },
    {
      "midi": 64,
      "hit": false,
      "t": 137307.2575000002,
      "d": 315.3836166666588,
      "v": 108
    },
    {
      "midi": 60,
      "hit": false,
      "t": 137768.7945000002,
      "d": 224.9992875000171,
      "v": 127
    },
    {
      "midi": 55,
      "hit": false,
      "t": 138461.1000000002,
      "d": 278.8452708333498,
      "v": 77
    },
    {
      "midi": 62,
      "hit": false,
      "t": 138461.1000000002,
      "d": 311.5374750000192,
      "v": 77
    },
    {
      "midi": 59,
      "hit": false,
      "t": 138461.1000000002,
      "d": 338.4604666667001,
      "v": 93
    },
    {
      "midi": 43,
      "hit": false,
      "t": 138461.1000000002,
      "d": 999.9968333333672,
      "v": 82
    },
    {
      "midi": 50,
      "hit": false,
      "t": 138691.86850000022,
      "d": 696.1516416667146,
      "v": 72
    },
    {
      "midi": 55,
      "hit": false,
      "t": 138922.63700000025,
      "d": 109.6150375000143,
      "v": 78
    },
    {
      "midi": 57,
      "hit": false,
      "t": 139153.40550000026,
      "d": 294.2298374999955,
      "v": 126
    },
    {
      "midi": 62,
      "hit": false,
      "t": 139153.40550000026,
      "d": 305.7682625000016,
      "v": 126
    },
    {
      "midi": 59,
      "hit": false,
      "t": 139614.94250000024,
      "d": 155.7687375000096,
      "v": 93
    },
    {
      "midi": 55,
      "hit": false,
      "t": 139845.71100000024,
      "d": 134.6149583333463,
      "v": 98
    },
    {
      "midi": 31,
      "hit": false,
      "t": 139845.71100000024,
      "d": 217.3070041666797,
      "v": 120
    },
    {
      "midi": 33,
      "hit": false,
      "t": 140076.47950000025,
      "d": 134.6149583333463,
      "v": 89
    },
    {
      "midi": 35,
      "hit": false,
      "t": 140307.24800000025,
      "d": 434.6140083333303,
      "v": 127
    },
    {
      "midi": 57,
      "hit": false,
      "t": 140307.24800000025,
      "d": 449.9985750000051,
      "v": 123
    },
    {
      "midi": 62,
      "hit": false,
      "t": 140307.24800000025,
      "d": 482.6907791666745,
      "v": 120
    },
    {
      "midi": 62,
      "hit": false,
      "t": 141230.32200000028,
      "d": 392.3064500000037,
      "v": 108
    },
    {
      "midi": 57,
      "hit": false,
      "t": 141230.32200000028,
      "d": 399.9987333333411,
      "v": 106
    },
    {
      "midi": 36,
      "hit": false,
      "t": 142153.39600000027,
      "d": 261.5376333333552,
      "v": 100
    },
    {
      "midi": 60,
      "hit": false,
      "t": 142153.39600000027,
      "d": 326.922041666694,
      "v": 106
    },
    {
      "midi": 55,
      "hit": false,
      "t": 142153.39600000027,
      "d": 363.4603875000321,
      "v": 103
    },
    {
      "midi": 55,
      "hit": false,
      "t": 143076.4700000003,
      "d": 486.5369208333432,
      "v": 108
    },
    {
      "midi": 60,
      "hit": false,
      "t": 143076.4700000003,
      "d": 488.459991666663,
      "v": 103
    },
    {
      "midi": 52,
      "hit": false,
      "t": 143538.0070000003,
      "d": 149.999524999992,
      "v": 62
    },
    {
      "midi": 57,
      "hit": false,
      "t": 143999.5440000003,
      "d": 471.1523541666684,
      "v": 100
    },
    {
      "midi": 61,
      "hit": false,
      "t": 143999.5440000003,
      "d": 499.9984166666691,
      "v": 100
    },
    {
      "midi": 52,
      "hit": false,
      "t": 143999.5440000003,
      "d": 509.61377083332627,
      "v": 89
    },
    {
      "midi": 37,
      "hit": false,
      "t": 143999.5440000003,
      "d": 1269.2267500000016,
      "v": 92
    },
    {
      "midi": 61,
      "hit": false,
      "t": 144922.61800000028,
      "d": 390.3833791666839,
      "v": 96
    },
    {
      "midi": 57,
      "hit": false,
      "t": 144922.61800000028,
      "d": 399.9987333333411,
      "v": 98
    },
    {
      "midi": 52,
      "hit": false,
      "t": 144922.61800000028,
      "d": 426.921725000022,
      "v": 89
    },
    {
      "midi": 52,
      "hit": false,
      "t": 145845.6920000003,
      "d": 461.5370000000112,
      "v": 86
    },
    {
      "midi": 38,
      "hit": false,
      "t": 145845.6920000003,
      "d": 473.0754250000173,
      "v": 93
    },
    {
      "midi": 55,
      "hit": false,
      "t": 145845.6920000003,
      "d": 476.921566666686,
      "v": 103
    },
    {
      "midi": 52,
      "hit": false,
      "t": 146768.76600000032,
      "d": 486.5369208333432,
      "v": 86
    },
    {
      "midi": 36,
      "hit": false,
      "t": 146768.76600000032,
      "d": 519.2291250000126,
      "v": 78
    },
    {
      "midi": 54,
      "hit": false,
      "t": 146768.76600000032,
      "d": 530.7675500000187,
      "v": 91
    },
    {
      "midi": 57,
      "hit": false,
      "t": 146768.76600000032,
      "d": 549.9982583333622,
      "v": 91
    },
    {
      "midi": 50,
      "hit": false,
      "t": 147230.30300000033,
      "d": 34.6152749999892,
      "v": 34
    },
    {
      "midi": 35,
      "hit": false,
      "t": 147691.84000000035,
      "d": 303.8451916666818,
      "v": 91
    },
    {
      "midi": 55,
      "hit": false,
      "t": 147691.84000000035,
      "d": 332.6912541666825,
      "v": 106
    },
    {
      "midi": 62,
      "hit": false,
      "t": 147691.84000000035,
      "d": 363.460387500003,
      "v": 108
    },
    {
      "midi": 59,
      "hit": false,
      "t": 147691.84000000035,
      "d": 374.9988125000091,
      "v": 108
    },
    {
      "midi": 62,
      "hit": false,
      "t": 148614.91400000037,
      "d": 503.8445583333378,
      "v": 126
    },
    {
      "midi": 59,
      "hit": false,
      "t": 148845.68250000037,
      "d": 267.3068458333437,
      "v": 46
    },
    {
      "midi": 55,
      "hit": false,
      "t": 149076.45100000038,
      "d": 111.5381083333341,
      "v": 60
    },
    {
      "midi": 60,
      "hit": false,
      "t": 149537.98800000036,
      "d": 549.9982583333331,
      "v": 113
    },
    {
      "midi": 52,
      "hit": false,
      "t": 149537.98800000036,
      "d": 563.459754166659,
      "v": 98
    },
    {
      "midi": 36,
      "hit": false,
      "t": 149537.98800000036,
      "d": 1355.7649375000037,
      "v": 96
    },
    {
      "midi": 59,
      "hit": false,
      "t": 150230.29350000035,
      "d": 148.0764541666722,
      "v": 108
    },
    {
      "midi": 55,
      "hit": false,
      "t": 150691.83050000036,
      "d": 192.3070833333477,
      "v": 111
    },
    {
      "midi": 50,
      "hit": false,
      "t": 150691.83050000036,
      "d": 201.9224375000049,
      "v": 91
    },
    {
      "midi": 52,
      "hit": false,
      "t": 151384.13600000035,
      "d": 328.8451125000138,
      "v": 89
    },
    {
      "midi": 60,
      "hit": false,
      "t": 151384.13600000035,
      "d": 330.7681833333336,
      "v": 103
    },
    {
      "midi": 55,
      "hit": false,
      "t": 151384.13600000035,
      "d": 336.5373958333221,
      "v": 100
    },
    {
      "midi": 33,
      "hit": false,
      "t": 151384.13600000035,
      "d": 359.6142458333343,
      "v": 80
    },
    {
      "midi": 55,
      "hit": false,
      "t": 152307.21000000034,
      "d": 228.8454291666567,
      "v": 106
    },
    {
      "midi": 60,
      "hit": false,
      "t": 152307.21000000034,
      "d": 236.5377124999941,
      "v": 106
    },
    {
      "midi": 52,
      "hit": false,
      "t": 152307.21000000034,
      "d": 240.3838541666628,
      "v": 98
    },
    {
      "midi": 55,
      "hit": false,
      "t": 153230.28400000033,
      "d": 321.1528291666764,
      "v": 100
    },
    {
      "midi": 52,
      "hit": false,
      "t": 153230.28400000033,
      "d": 363.460387500003,
      "v": 98
    },
    {
      "midi": 38,
      "hit": false,
      "t": 153230.28400000033,
      "d": 1199.9962000000232,
      "v": 100
    },
    {
      "midi": 45,
      "hit": false,
      "t": 153922.58950000035,
      "d": 374.9988125000091,
      "v": 11
    },
    {
      "midi": 48,
      "hit": false,
      "t": 154153.35800000036,
      "d": 119.2303916666715,
      "v": 75
    },
    {
      "midi": 52,
      "hit": false,
      "t": 154384.12650000036,
      "d": 88.4612583333219,
      "v": 72
    },
    {
      "midi": 55,
      "hit": false,
      "t": 154614.89500000034,
      "d": 253.8453500000178,
      "v": 123
    },
    {
      "midi": 45,
      "hit": false,
      "t": 154845.66350000034,
      "d": 167.3071625000157,
      "v": 77
    },
    {
      "midi": 50,
      "hit": false,
      "t": 155076.43200000035,
      "d": 230.7685000000056,
      "v": 106
    },
    {
      "midi": 54,
      "hit": false,
      "t": 155076.43200000035,
      "d": 267.3068458333437,
      "v": 108
    },
    {
      "midi": 57,
      "hit": false,
      "t": 155076.43200000035,
      "d": 269.2299166666635,
      "v": 117
    },
    {
      "midi": 38,
      "hit": false,
      "t": 155076.43200000035,
      "d": 986.5353374999831,
      "v": 98
    },
    {
      "midi": 57,
      "hit": false,
      "t": 156461.04300000033,
      "d": 349.9988916666771,
      "v": 66
    },
    {
      "midi": 59,
      "hit": false,
      "t": 156922.58000000034,
      "d": 276.9222000000009,
      "v": 117
    },
    {
      "midi": 67,
      "hit": false,
      "t": 156922.58000000034,
      "d": 276.9222000000009,
      "v": 123
    },
    {
      "midi": 62,
      "hit": false,
      "t": 156922.58000000034,
      "d": 294.2298374999955,
      "v": 120
    },
    {
      "midi": 43,
      "hit": false,
      "t": 156922.58000000034,
      "d": 1124.9964374999981,
      "v": 106
    },
    {
      "midi": 59,
      "hit": false,
      "t": 157845.65400000033,
      "d": 224.9992875000171,
      "v": 111
    },
    {
      "midi": 67,
      "hit": false,
      "t": 157845.65400000033,
      "d": 238.460783333343,
      "v": 108
    },
    {
      "midi": 62,
      "hit": false,
      "t": 157845.65400000033,
      "d": 251.9222791666689,
      "v": 111
    },
    {
      "midi": 59,
      "hit": false,
      "t": 158307.19100000034,
      "d": 157.6918083333294,
      "v": 51
    },
    {
      "midi": 62,
      "hit": false,
      "t": 158537.95950000035,
      "d": 86.5381875000021,
      "v": 48
    },
    {
      "midi": 36,
      "hit": false,
      "t": 158768.72800000035,
      "d": 348.0758208333282,
      "v": 93
    },
    {
      "midi": 67,
      "hit": false,
      "t": 158768.72800000035,
      "d": 423.0755833333242,
      "v": 123
    },
    {
      "midi": 64,
      "hit": false,
      "t": 158768.72800000035,
      "d": 426.9217249999929,
      "v": 111
    },
    {
      "midi": 60,
      "hit": false,
      "t": 158768.72800000035,
      "d": 428.8447958333127,
      "v": 117
    },
    {
      "midi": 60,
      "hit": false,
      "t": 159691.80200000035,
      "d": 328.8451125000138,
      "v": 108
    },
    {
      "midi": 67,
      "hit": false,
      "t": 159691.80200000035,
      "d": 359.6142458333343,
      "v": 111
    },
    {
      "midi": 64,
      "hit": false,
      "t": 159691.80200000035,
      "d": 373.0757416666602,
      "v": 108
    },
    {
      "midi": 60,
      "hit": false,
      "t": 160614.87600000034,
      "d": 421.1525125000044,
      "v": 103
    },
    {
      "midi": 64,
      "hit": false,
      "t": 160614.87600000034,
      "d": 434.6140083333303,
      "v": 91
    },
    {
      "midi": 67,
      "hit": false,
      "t": 160614.87600000034,
      "d": 436.5370791666501,
      "v": 108
    },
    {
      "midi": 57,
      "hit": false,
      "t": 160614.87600000034,
      "d": 440.3832208333188,
      "v": 96
    },
    {
      "midi": 45,
      "hit": false,
      "t": 160614.87600000034,
      "d": 1009.6121874999953,
      "v": 96
    },
    {
      "midi": 57,
      "hit": false,
      "t": 161537.95000000033,
      "d": 171.1533041666553,
      "v": 111
    },
    {
      "midi": 60,
      "hit": false,
      "t": 161537.95000000033,
      "d": 182.6917291666614,
      "v": 123
    },
    {
      "midi": 64,
      "hit": false,
      "t": 161537.95000000033,
      "d": 203.8455083333247,
      "v": 113
    },
    {
      "midi": 52,
      "hit": false,
      "t": 161768.71850000034,
      "d": 142.3072416666546,
      "v": 82
    },
    {
      "midi": 60,
      "hit": false,
      "t": 161999.4870000003,
      "d": 188.460941666679,
      "v": 86
    },
    {
      "midi": 64,
      "hit": false,
      "t": 162230.25550000032,
      "d": 117.30732083332259,
      "v": 80
    },
    {
      "midi": 38,
      "hit": false,
      "t": 162461.02400000033,
      "d": 153.8456666666607,
      "v": 103
    },
    {
      "midi": 60,
      "hit": false,
      "t": 162461.02400000033,
      "d": 236.5377124999941,
      "v": 120
    },
    {
      "midi": 67,
      "hit": false,
      "t": 162461.02400000033,
      "d": 273.0760583333322,
      "v": 126
    },
    {
      "midi": 64,
      "hit": false,
      "t": 162461.02400000033,
      "d": 280.7683416666696,
      "v": 120
    },
    {
      "midi": 60,
      "hit": false,
      "t": 162922.56100000034,
      "d": 134.6149583333463,
      "v": 51
    },
    {
      "midi": 64,
      "hit": false,
      "t": 163153.32950000034,
      "d": 115.3842500000028,
      "v": 66
    },
    {
      "midi": 62,
      "hit": false,
      "t": 163384.09800000035,
      "d": 284.6144833333383,
      "v": 111
    },
    {
      "midi": 57,
      "hit": false,
      "t": 163384.09800000035,
      "d": 338.460466666671,
      "v": 85
    },
    {
      "midi": 50,
      "hit": false,
      "t": 163384.09800000035,
      "d": 353.8450333333458,
      "v": 72
    },
    {
      "midi": 69,
      "hit": false,
      "t": 163384.09800000035,
      "d": 413.460229166667,
      "v": 117
    },
    {
      "midi": 66,
      "hit": false,
      "t": 163384.09800000035,
      "d": 419.2294416666555,
      "v": 120
    },
    {
      "midi": 59,
      "hit": false,
      "t": 164307.17200000034,
      "d": 369.2295999999915,
      "v": 120
    },
    {
      "midi": 67,
      "hit": false,
      "t": 164307.17200000034,
      "d": 371.1526708333113,
      "v": 123
    },
    {
      "midi": 62,
      "hit": false,
      "t": 164307.17200000034,
      "d": 374.99881249998,
      "v": 120
    },
    {
      "midi": 43,
      "hit": false,
      "t": 164307.17200000034,
      "d": 1134.6117916666553,
      "v": 100
    },
    {
      "midi": 67,
      "hit": false,
      "t": 165230.24600000033,
      "d": 251.9222791666689,
      "v": 113
    },
    {
      "midi": 62,
      "hit": false,
      "t": 165230.24600000033,
      "d": 259.6145625000063,
      "v": 120
    },
    {
      "midi": 59,
      "hit": false,
      "t": 165691.78300000035,
      "d": 224.999287499988,
      "v": 82
    },
    {
      "midi": 62,
      "hit": false,
      "t": 165922.55150000032,
      "d": 117.30732083332259,
      "v": 63
    },
    {
      "midi": 36,
      "hit": false,
      "t": 166153.32000000033,
      "d": 267.3068458333437,
      "v": 82
    },
    {
      "midi": 67,
      "hit": false,
      "t": 166153.32000000033,
      "d": 369.2296000000206,
      "v": 120
    },
    {
      "midi": 60,
      "hit": false,
      "t": 166153.32000000033,
      "d": 386.5372375000152,
      "v": 111
    },
    {
      "midi": 64,
      "hit": false,
      "t": 166153.32000000033,
      "d": 394.2295208333526,
      "v": 108
    },
    {
      "midi": 67,
      "hit": false,
      "t": 167076.39400000035,
      "d": 298.0759791666642,
      "v": 111
    },
    {
      "midi": 60,
      "hit": false,
      "t": 167076.39400000035,
      "d": 323.0758999999962,
      "v": 108
    },
    {
      "midi": 64,
      "hit": false,
      "t": 167076.39400000035,
      "d": 323.0758999999962,
      "v": 111
    },
    {
      "midi": 57,
      "hit": false,
      "t": 167999.46800000034,
      "d": 296.1529083333444,
      "v": 98
    },
    {
      "midi": 60,
      "hit": false,
      "t": 167999.46800000034,
      "d": 309.6144041666703,
      "v": 113
    },
    {
      "midi": 64,
      "hit": false,
      "t": 167999.46800000034,
      "d": 330.7681833333336,
      "v": 108
    },
    {
      "midi": 45,
      "hit": false,
      "t": 167999.46800000034,
      "d": 980.7661249999946,
      "v": 108
    },
    {
      "midi": 64,
      "hit": false,
      "t": 168922.54200000034,
      "d": 176.9225166666729,
      "v": 117
    },
    {
      "midi": 67,
      "hit": false,
      "t": 168922.54200000034,
      "d": 182.6917291666614,
      "v": 117
    },
    {
      "midi": 60,
      "hit": false,
      "t": 168922.54200000034,
      "d": 186.5378708333301,
      "v": 113
    },
    {
      "midi": 52,
      "hit": false,
      "t": 169153.31050000034,
      "d": 111.5381083333341,
      "v": 96
    },
    {
      "midi": 60,
      "hit": false,
      "t": 169384.07900000035,
      "d": 176.9225166666729,
      "v": 89
    },
    {
      "midi": 64,
      "hit": false,
      "t": 169614.84750000035,
      "d": 107.6919666666654,
      "v": 75
    },
    {
      "midi": 60,
      "hit": false,
      "t": 169845.61600000036,
      "d": 303.8451916666818,
      "v": 123
    },
    {
      "midi": 64,
      "hit": false,
      "t": 169845.61600000036,
      "d": 317.3066875000077,
      "v": 123
    },
    {
      "midi": 67,
      "hit": false,
      "t": 169845.61600000036,
      "d": 321.1528291666764,
      "v": 126
    },
    {
      "midi": 38,
      "hit": false,
      "t": 169845.61600000036,
      "d": 1292.3036000000138,
      "v": 91
    },
    {
      "midi": 69,
      "hit": false,
      "t": 170768.69000000038,
      "d": 353.8450333333458,
      "v": 117
    },
    {
      "midi": 62,
      "hit": false,
      "t": 170768.69000000038,
      "d": 355.7681041666656,
      "v": 120
    },
    {
      "midi": 66,
      "hit": false,
      "t": 170768.69000000038,
      "d": 369.2295999999915,
      "v": 126
    },
    {
      "midi": 67,
      "hit": false,
      "t": 171691.76400000037,
      "d": 523.0752666666522,
      "v": 123
    },
    {
      "midi": 64,
      "hit": false,
      "t": 171691.76400000037,
      "d": 549.9982583333331,
      "v": 108
    },
    {
      "midi": 71,
      "hit": false,
      "t": 171691.76400000037,
      "d": 561.5366833333392,
      "v": 127
    },
    {
      "midi": 40,
      "hit": false,
      "t": 171691.76400000037,
      "d": 1142.3040749999927,
      "v": 89
    },
    {
      "midi": 67,
      "hit": false,
      "t": 172614.83800000037,
      "d": 419.2294416666555,
      "v": 120
    },
    {
      "midi": 71,
      "hit": false,
      "t": 172614.83800000037,
      "d": 423.0755833333242,
      "v": 117
    },
    {
      "midi": 64,
      "hit": false,
      "t": 172614.83800000037,
      "d": 434.6140083333303,
      "v": 106
    },
    {
      "midi": 66,
      "hit": false,
      "t": 173537.91200000036,
      "d": 467.3062124999997,
      "v": 113
    },
    {
      "midi": 63,
      "hit": false,
      "t": 173537.91200000036,
      "d": 492.3061333333317,
      "v": 111
    },
    {
      "midi": 71,
      "hit": false,
      "t": 173537.91200000036,
      "d": 499.9984166666691,
      "v": 126
    },
    {
      "midi": 39,
      "hit": false,
      "t": 173537.91200000036,
      "d": 1055.7658874999906,
      "v": 100
    },
    {
      "midi": 66,
      "hit": false,
      "t": 174460.98600000035,
      "d": 198.0762958333362,
      "v": 123
    },
    {
      "midi": 63,
      "hit": false,
      "t": 174460.98600000035,
      "d": 203.8455083333247,
      "v": 115
    },
    {
      "midi": 71,
      "hit": false,
      "t": 174460.98600000035,
      "d": 211.5377916666621,
      "v": 126
    },
    {
      "midi": 71,
      "hit": false,
      "t": 175384.06000000035,
      "d": 409.6140874999983,
      "v": 126
    },
    {
      "midi": 67,
      "hit": false,
      "t": 175384.06000000035,
      "d": 419.2294416666555,
      "v": 117
    },
    {
      "midi": 62,
      "hit": false,
      "t": 175384.06000000035,
      "d": 423.0755833333242,
      "v": 103
    },
    {
      "midi": 40,
      "hit": false,
      "t": 175384.06000000035,
      "d": 1313.457379166648,
      "v": 89
    },
    {
      "midi": 67,
      "hit": false,
      "t": 176307.13400000034,
      "d": 396.1525916666433,
      "v": 106
    },
    {
      "midi": 71,
      "hit": false,
      "t": 176307.13400000034,
      "d": 411.5371583333181,
      "v": 120
    },
    {
      "midi": 62,
      "hit": false,
      "t": 176307.13400000034,
      "d": 442.3062916666386,
      "v": 93
    },
    {
      "midi": 67,
      "hit": false,
      "t": 177230.2080000003,
      "d": 499.9984166666691,
      "v": 106
    },
    {
      "midi": 64,
      "hit": false,
      "t": 177230.2080000003,
      "d": 503.8445583333378,
      "v": 111
    },
    {
      "midi": 61,
      "hit": false,
      "t": 177230.2080000003,
      "d": 511.5368416666752,
      "v": 96
    },
    {
      "midi": 71,
      "hit": false,
      "t": 177230.2080000003,
      "d": 523.0752666666813,
      "v": 113
    },
    {
      "midi": 33,
      "hit": false,
      "t": 177230.2080000003,
      "d": 659.6132958333474,
      "v": 82
    },
    {
      "midi": 67,
      "hit": false,
      "t": 178153.28200000033,
      "d": 299.9990500000131,
      "v": 111
    },
    {
      "midi": 64,
      "hit": false,
      "t": 178153.28200000033,
      "d": 309.6144041666703,
      "v": 108
    },
    {
      "midi": 61,
      "hit": false,
      "t": 178153.28200000033,
      "d": 336.5373958333512,
      "v": 96
    },
    {
      "midi": 71,
      "hit": false,
      "t": 178153.28200000033,
      "d": 342.3066083333397,
      "v": 100
    },
    {
      "midi": 67,
      "hit": false,
      "t": 179076.35600000035,
      "d": 192.3070833333477,
      "v": 117
    },
    {
      "midi": 64,
      "hit": false,
      "t": 179076.35600000035,
      "d": 209.6147208333423,
      "v": 111
    },
    {
      "midi": 60,
      "hit": false,
      "t": 179076.35600000035,
      "d": 248.0761375000002,
      "v": 106
    },
    {
      "midi": 45,
      "hit": false,
      "t": 179076.35600000035,
      "d": 3265.374275000009,
      "v": 91
    },
    {
      "midi": 60,
      "hit": false,
      "t": 179999.43000000034,
      "d": 132.6918874999974,
      "v": 71
    },
    {
      "midi": 52,
      "hit": false,
      "t": 180230.19850000035,
      "d": 1663.4562708333542,
      "v": 51
    },
    {
      "midi": 60,
      "hit": false,
      "t": 180460.96700000035,
      "d": 267.3068458333437,
      "v": 86
    },
    {
      "midi": 64,
      "hit": false,
      "t": 180691.73550000036,
      "d": 94.2304708333395,
      "v": 78
    },
    {
      "midi": 72,
      "hit": false,
      "t": 180922.50400000036,
      "d": 321.1528291666764,
      "v": 126
    },
    {
      "midi": 64,
      "hit": false,
      "t": 180922.50400000036,
      "d": 349.9988916666771,
      "v": 106
    },
    {
      "midi": 71,
      "hit": false,
      "t": 181384.04100000038,
      "d": 99.999683333328,
      "v": 80
    },
    {
      "midi": 67,
      "hit": false,
      "t": 181614.80950000038,
      "d": 153.8456666666607,
      "v": 127
    },
    {
      "midi": 60,
      "hit": false,
      "t": 182076.34650000036,
      "d": 282.6914124999894,
      "v": 127
    },
    {
      "midi": 52,
      "hit": false,
      "t": 182307.11500000037,
      "d": 46.1536999999953,
      "v": 42
    },
    {
      "midi": 60,
      "hit": false,
      "t": 182537.88350000035,
      "d": 90.3843291666708,
      "v": 53
    },
    {
      "midi": 60,
      "hit": false,
      "t": 182768.65200000035,
      "d": 461.5369999999821,
      "v": 127
    },
    {
      "midi": 64,
      "hit": false,
      "t": 182768.65200000035,
      "d": 467.30621249997057,
      "v": 127
    },
    {
      "midi": 67,
      "hit": false,
      "t": 182768.65200000035,
      "d": 503.84455833330867,
      "v": 127
    },
    {
      "midi": 57,
      "hit": false,
      "t": 182768.65200000035,
      "d": 1073.0735249999852,
      "v": 113
    },
    {
      "midi": 50,
      "hit": false,
      "t": 182768.65200000035,
      "d": 1109.6118708333233,
      "v": 111
    },
    {
      "midi": 86,
      "hit": false,
      "t": 184845.56850000034,
      "d": 232.6915708333254,
      "v": 47
    },
    {
      "midi": 84,
      "hit": false,
      "t": 185076.33700000035,
      "d": 101.92275416664779,
      "v": 82
    },
    {
      "midi": 83,
      "hit": false,
      "t": 185307.10550000033,
      "d": 140.3841708333348,
      "v": 120
    },
    {
      "midi": 81,
      "hit": false,
      "t": 185537.87400000033,
      "d": 273.0760583333322,
      "v": 93
    },
    {
      "midi": 79,
      "hit": false,
      "t": 185768.64250000034,
      "d": 311.5374750000192,
      "v": 68
    },
    {
      "midi": 78,
      "hit": false,
      "t": 185999.41100000034,
      "d": 415.3833000000159,
      "v": 82
    },
    {
      "midi": 79,
      "hit": false,
      "t": 186460.94800000035,
      "d": 301.922120833362,
      "v": 85
    },
    {
      "midi": 59,
      "hit": false,
      "t": 186460.94800000035,
      "d": 1348.0726541666954,
      "v": 86
    },
    {
      "midi": 71,
      "hit": false,
      "t": 186922.4850000004,
      "d": 107.6919666666654,
      "v": 69
    },
    {
      "midi": 76,
      "hit": false,
      "t": 187153.2535000004,
      "d": 146.1533833333233,
      "v": 89
    },
    {
      "midi": 71,
      "hit": false,
      "t": 187384.02200000038,
      "d": 96.1535416666593,
      "v": 36
    },
    {
      "midi": 79,
      "hit": false,
      "t": 187614.79050000038,
      "d": 428.8447958333418,
      "v": 111
    },
    {
      "midi": 71,
      "hit": false,
      "t": 187845.5590000004,
      "d": 203.8455083333247,
      "v": 55
    },
    {
      "midi": 76,
      "hit": false,
      "t": 188076.3275000004,
      "d": 99.999683333328,
      "v": 33
    },
    {
      "midi": 79,
      "hit": false,
      "t": 188307.0960000004,
      "d": 507.6907000000065,
      "v": 113
    },
    {
      "midi": 60,
      "hit": false,
      "t": 188307.0960000004,
      "d": 1698.0715458334016,
      "v": 96
    },
    {
      "midi": 67,
      "hit": false,
      "t": 188537.8645000004,
      "d": 999.9968333333672,
      "v": 62
    },
    {
      "midi": 72,
      "hit": false,
      "t": 188768.6330000004,
      "d": 119.2303916666715,
      "v": 73
    },
    {
      "midi": 74,
      "hit": false,
      "t": 188999.40150000041,
      "d": 105.7688958333456,
      "v": 96
    },
    {
      "midi": 72,
      "hit": false,
      "t": 189230.17000000042,
      "d": 99.999683333328,
      "v": 56
    },
    {
      "midi": 76,
      "hit": false,
      "t": 189460.93850000043,
      "d": 157.6918083333585,
      "v": 126
    },
    {
      "midi": 67,
      "hit": false,
      "t": 189691.70700000046,
      "d": 438.460149999999,
      "v": 46
    },
    {
      "midi": 79,
      "hit": false,
      "t": 189922.47550000047,
      "d": 151.9225958333409,
      "v": 65
    },
    {
      "midi": 79,
      "hit": false,
      "t": 190153.24400000047,
      "d": 498.0753458333493,
      "v": 96
    },
    {
      "midi": 61,
      "hit": false,
      "t": 190153.24400000047,
      "d": 1257.6883250000246,
      "v": 84
    },
    {
      "midi": 67,
      "hit": false,
      "t": 190384.01250000048,
      "d": 480.7677083333547,
      "v": 85
    },
    {
      "midi": 73,
      "hit": false,
      "t": 190614.78100000048,
      "d": 124.99960416665999,
      "v": 73
    },
    {
      "midi": 76,
      "hit": false,
      "t": 190845.5495000005,
      "d": 230.7685000000056,
      "v": 106
    },
    {
      "midi": 67,
      "hit": false,
      "t": 191076.3180000005,
      "d": 434.6140083333303,
      "v": 83
    },
    {
      "midi": 79,
      "hit": false,
      "t": 191307.0865000005,
      "d": 259.6145625000063,
      "v": 127
    },
    {
      "midi": 76,
      "hit": false,
      "t": 191537.8550000005,
      "d": 74.999762499996,
      "v": 53
    },
    {
      "midi": 72,
      "hit": false,
      "t": 191768.6235000005,
      "d": 365.3834583333519,
      "v": 63
    },
    {
      "midi": 79,
      "hit": false,
      "t": 191999.39200000052,
      "d": 342.3066083333397,
      "v": 98
    },
    {
      "midi": 76,
      "hit": false,
      "t": 191999.39200000052,
      "d": 344.2296791666595,
      "v": 71
    },
    {
      "midi": 62,
      "hit": false,
      "t": 191999.39200000052,
      "d": 655.7671541666496,
      "v": 78
    },
    {
      "midi": 69,
      "hit": false,
      "t": 192230.16050000052,
      "d": 442.3062916666386,
      "v": 75
    },
    {
      "midi": 78,
      "hit": false,
      "t": 192460.9290000005,
      "d": 101.9227541666769,
      "v": 108
    },
    {
      "midi": 76,
      "hit": false,
      "t": 192691.6975000005,
      "d": 380.7680249999976,
      "v": 123
    },
    {
      "midi": 60,
      "hit": false,
      "t": 192922.4660000005,
      "d": 669.2286499999755,
      "v": 89
    },
    {
      "midi": 74,
      "hit": false,
      "t": 193153.2345000005,
      "d": 255.7684208333376,
      "v": 123
    },
    {
      "midi": 67,
      "hit": false,
      "t": 193384.0030000005,
      "d": 292.3067666666466,
      "v": 103
    },
    {
      "midi": 71,
      "hit": false,
      "t": 193845.54000000047,
      "d": 324.9989708333451,
      "v": 93
    },
    {
      "midi": 79,
      "hit": false,
      "t": 193845.54000000047,
      "d": 346.1527500000084,
      "v": 108
    },
    {
      "midi": 59,
      "hit": false,
      "t": 193845.54000000047,
      "d": 1469.2261166666576,
      "v": 111
    },
    {
      "midi": 67,
      "hit": false,
      "t": 194076.30850000048,
      "d": 517.3060541666637,
      "v": 86
    },
    {
      "midi": 71,
      "hit": false,
      "t": 194307.07700000048,
      "d": 115.3842500000028,
      "v": 106
    },
    {
      "midi": 74,
      "hit": false,
      "t": 194537.8455000005,
      "d": 307.6913333333214,
      "v": 127
    },
    {
      "midi": 67,
      "hit": false,
      "t": 194768.61400000047,
      "d": 526.92140833335,
      "v": 82
    },
    {
      "midi": 79,
      "hit": false,
      "t": 194999.38250000047,
      "d": 367.3065291666717,
      "v": 117
    },
    {
      "midi": 74,
      "hit": false,
      "t": 195230.15100000048,
      "d": 82.6920458333334,
      "v": 46
    },
    {
      "midi": 84,
      "hit": false,
      "t": 195691.6880000005,
      "d": 324.998970833316,
      "v": 111
    },
    {
      "midi": 76,
      "hit": false,
      "t": 195691.6880000005,
      "d": 328.8451124999847,
      "v": 93
    },
    {
      "midi": 60,
      "hit": false,
      "t": 195691.6880000005,
      "d": 1317.303520833375,
      "v": 103
    },
    {
      "midi": 67,
      "hit": false,
      "t": 195922.4565000005,
      "d": 509.61377083332627,
      "v": 80
    },
    {
      "midi": 83,
      "hit": false,
      "t": 196153.22500000047,
      "d": 69.2305500000075,
      "v": 91
    },
    {
      "midi": 74,
      "hit": false,
      "t": 196153.22500000047,
      "d": 90.3843291666708,
      "v": 100
    },
    {
      "midi": 81,
      "hit": false,
      "t": 196383.99350000048,
      "d": 257.6914916666865,
      "v": 103
    },
    {
      "midi": 72,
      "hit": false,
      "t": 196383.99350000048,
      "d": 280.7683416666987,
      "v": 120
    },
    {
      "midi": 67,
      "hit": false,
      "t": 196614.76200000048,
      "d": 326.922041666694,
      "v": 48
    },
    {
      "midi": 71,
      "hit": false,
      "t": 196845.53050000052,
      "d": 123.0765333333402,
      "v": 126
    },
    {
      "midi": 79,
      "hit": false,
      "t": 196845.53050000052,
      "d": 159.6148791666783,
      "v": 120
    },
    {
      "midi": 64,
      "hit": false,
      "t": 197537.83600000053,
      "d": 55.769054166652495,
      "v": 10
    },
    {
      "midi": 81,
      "hit": false,
      "t": 197537.83600000053,
      "d": 138.4610999999859,
      "v": 93
    },
    {
      "midi": 76,
      "hit": false,
      "t": 197537.83600000053,
      "d": 186.5378708333301,
      "v": 89
    },
    {
      "midi": 72,
      "hit": false,
      "t": 197537.83600000053,
      "d": 263.460704166675,
      "v": 66
    },
    {
      "midi": 57,
      "hit": false,
      "t": 197537.83600000053,
      "d": 1019.2275416666816,
      "v": 96
    },
    {
      "midi": 60,
      "hit": false,
      "t": 197768.60450000054,
      "d": 844.2280958333286,
      "v": 91
    },
    {
      "midi": 64,
      "hit": false,
      "t": 197999.37300000055,
      "d": 109.6150375000143,
      "v": 53
    },
    {
      "midi": 67,
      "hit": false,
      "t": 198230.14150000055,
      "d": 94.2304708333395,
      "v": 85
    },
    {
      "midi": 72,
      "hit": false,
      "t": 198460.91000000056,
      "d": 205.76857916664449,
      "v": 127
    },
    {
      "midi": 71,
      "hit": false,
      "t": 198691.67850000053,
      "d": 130.7688166666776,
      "v": 77
    },
    {
      "midi": 67,
      "hit": false,
      "t": 198922.44700000054,
      "d": 163.461020833347,
      "v": 64
    },
    {
      "midi": 64,
      "hit": false,
      "t": 199153.21550000054,
      "d": 117.30732083332259,
      "v": 75
    },
    {
      "midi": 67,
      "hit": false,
      "t": 199383.98400000052,
      "d": 311.5374749999901,
      "v": 123
    },
    {
      "midi": 50,
      "hit": false,
      "t": 199383.98400000052,
      "d": 724.9977041666571,
      "v": 108
    },
    {
      "midi": 57,
      "hit": false,
      "t": 199614.75250000053,
      "d": 686.5362874999992,
      "v": 91
    },
    {
      "midi": 60,
      "hit": false,
      "t": 199845.5210000005,
      "d": 126.9226750000089,
      "v": 103
    },
    {
      "midi": 64,
      "hit": false,
      "t": 200076.2895000005,
      "d": 105.7688958333456,
      "v": 91
    },
    {
      "midi": 66,
      "hit": false,
      "t": 200307.0580000005,
      "d": 248.0761375000002,
      "v": 127
    },
    {
      "midi": 51,
      "hit": false,
      "t": 200307.0580000005,
      "d": 571.1520375000255,
      "v": 119
    },
    {
      "midi": 57,
      "hit": false,
      "t": 200537.82650000052,
      "d": 430.7678666666907,
      "v": 82
    },
    {
      "midi": 63,
      "hit": false,
      "t": 200768.59500000053,
      "d": 126.9226750000089,
      "v": 73
    },
    {
      "midi": 71,
      "hit": false,
      "t": 200999.36350000053,
      "d": 105.7688958333456,
      "v": 117
    },
    {
      "midi": 68,
      "hit": false,
      "t": 201230.13200000054,
      "d": 190.3840124999988,
      "v": 127
    },
    {
      "midi": 71,
      "hit": false,
      "t": 201230.13200000054,
      "d": 190.3840124999988,
      "v": 127
    },
    {
      "midi": 64,
      "hit": false,
      "t": 201230.13200000054,
      "d": 205.7685791666736,
      "v": 117
    },
    {
      "midi": 52,
      "hit": false,
      "t": 201230.13200000054,
      "d": 1078.8427374999737,
      "v": 123
    },
    {
      "midi": 68,
      "hit": false,
      "t": 202153.20600000053,
      "d": 153.8456666666607,
      "v": 127
    },
    {
      "midi": 71,
      "hit": false,
      "t": 202153.20600000053,
      "d": 159.6148791666492,
      "v": 127
    },
    {
      "midi": 64,
      "hit": false,
      "t": 202153.20600000053,
      "d": 194.23015416663839,
      "v": 120
    },
    {
      "midi": 64,
      "hit": false,
      "t": 203076.2800000005,
      "d": 371.1526708333404,
      "v": 123
    },
    {
      "midi": 61,
      "hit": false,
      "t": 203076.2800000005,
      "d": 382.6910958333465,
      "v": 127
    },
    {
      "midi": 57,
      "hit": false,
      "t": 203076.2800000005,
      "d": 396.1525916666724,
      "v": 113
    },
    {
      "midi": 45,
      "hit": false,
      "t": 203076.2800000005,
      "d": 1232.6884041666635,
      "v": 100
    },
    {
      "midi": 61,
      "hit": false,
      "t": 203999.3540000005,
      "d": 263.460704166675,
      "v": 127
    },
    {
      "midi": 64,
      "hit": false,
      "t": 203999.3540000005,
      "d": 274.9991291666811,
      "v": 127
    },
    {
      "midi": 57,
      "hit": false,
      "t": 203999.3540000005,
      "d": 284.6144833333383,
      "v": 127
    },
    {
      "midi": 64,
      "hit": false,
      "t": 204922.42800000048,
      "d": 428.8447958333418,
      "v": 103
    },
    {
      "midi": 57,
      "hit": false,
      "t": 204922.42800000048,
      "d": 430.7678666666616,
      "v": 113
    },
    {
      "midi": 61,
      "hit": false,
      "t": 204922.42800000048,
      "d": 446.1524333333364,
      "v": 96
    },
    {
      "midi": 54,
      "hit": false,
      "t": 204922.42800000048,
      "d": 453.8447166666738,
      "v": 120
    },
    {
      "midi": 42,
      "hit": false,
      "t": 204922.42800000048,
      "d": 1094.2273041666485,
      "v": 108
    },
    {
      "midi": 54,
      "hit": false,
      "t": 205845.50200000047,
      "d": 226.92235833330778,
      "v": 120
    },
    {
      "midi": 64,
      "hit": false,
      "t": 205845.50200000047,
      "d": 226.92235833330778,
      "v": 111
    },
    {
      "midi": 57,
      "hit": false,
      "t": 205845.50200000047,
      "d": 234.61464166664518,
      "v": 117
    },
    {
      "midi": 61,
      "hit": false,
      "t": 205845.50200000047,
      "d": 267.3068458333146,
      "v": 119
    },
    {
      "midi": 63,
      "hit": false,
      "t": 206768.57600000047,
      "d": 523.0752666666522,
      "v": 127
    },
    {
      "midi": 66,
      "hit": false,
      "t": 206768.57600000047,
      "d": 557.6905416666414,
      "v": 127
    },
    {
      "midi": 59,
      "hit": false,
      "t": 206768.57600000047,
      "d": 596.1519583332993,
      "v": 127
    },
    {
      "midi": 47,
      "hit": false,
      "t": 206768.57600000047,
      "d": 624.9980208333,
      "v": 85
    },
    {
      "midi": 63,
      "hit": false,
      "t": 207691.65000000043,
      "d": 455.7677874999936,
      "v": 127
    },
    {
      "midi": 66,
      "hit": false,
      "t": 207691.65000000043,
      "d": 461.5369999999821,
      "v": 127
    },
    {
      "midi": 45,
      "hit": false,
      "t": 207691.65000000043,
      "d": 476.9215666666569,
      "v": 108
    },
    {
      "midi": 57,
      "hit": false,
      "t": 207691.65000000043,
      "d": 494.22920416665147,
      "v": 120
    },
    {
      "midi": 55,
      "hit": false,
      "t": 208614.72400000042,
      "d": 365.3834583333228,
      "v": 126
    },
    {
      "midi": 59,
      "hit": false,
      "t": 208614.72400000042,
      "d": 365.3834583333228,
      "v": 127
    },
    {
      "midi": 62,
      "hit": false,
      "t": 208614.72400000042,
      "d": 380.7680249999976,
      "v": 126
    },
    {
      "midi": 43,
      "hit": false,
      "t": 208614.72400000042,
      "d": 1124.996437499969,
      "v": 111
    },
    {
      "midi": 62,
      "hit": false,
      "t": 209537.79800000042,
      "d": 153.8456666666607,
      "v": 127
    },
    {
      "midi": 59,
      "hit": false,
      "t": 209537.79800000042,
      "d": 171.1533041666553,
      "v": 127
    },
    {
      "midi": 67,
      "hit": false,
      "t": 209537.79800000042,
      "d": 173.0763749999751,
      "v": 127
    },
    {
      "midi": 64,
      "hit": false,
      "t": 210460.8720000004,
      "d": 498.07534583332017,
      "v": 127
    },
    {
      "midi": 67,
      "hit": false,
      "t": 210460.8720000004,
      "d": 507.69069999997737,
      "v": 127
    },
    {
      "midi": 60,
      "hit": false,
      "t": 210460.8720000004,
      "d": 530.7675499999896,
      "v": 127
    },
    {
      "midi": 48,
      "hit": false,
      "t": 210460.8720000004,
      "d": 1411.5339916666271,
      "v": 117
    },
    {
      "midi": 60,
      "hit": false,
      "t": 211383.9460000004,
      "d": 265.3837749999948,
      "v": 123
    },
    {
      "midi": 64,
      "hit": false,
      "t": 211383.9460000004,
      "d": 486.53692083331407,
      "v": 126
    },
    {
      "midi": 67,
      "hit": false,
      "t": 211383.9460000004,
      "d": 523.0752666666231,
      "v": 127
    },
    {
      "midi": 59,
      "hit": false,
      "t": 211845.4830000004,
      "d": 90.38432916664169,
      "v": 89
    },
    {
      "midi": 67,
      "hit": false,
      "t": 212307.02000000034,
      "d": 401.92180416669,
      "v": 127
    },
    {
      "midi": 60,
      "hit": false,
      "t": 212307.02000000034,
      "d": 417.3063708333648,
      "v": 127
    },
    {
      "midi": 64,
      "hit": false,
      "t": 212307.02000000034,
      "d": 417.3063708333648,
      "v": 126
    },
    {
      "midi": 45,
      "hit": false,
      "t": 212307.02000000034,
      "d": 1238.4576166666811,
      "v": 117
    },
    {
      "midi": 67,
      "hit": false,
      "t": 213230.09400000036,
      "d": 232.6915708333254,
      "v": 127
    },
    {
      "midi": 60,
      "hit": false,
      "t": 213230.09400000036,
      "d": 242.30692499998258,
      "v": 126
    },
    {
      "midi": 64,
      "hit": false,
      "t": 213230.09400000036,
      "d": 242.30692499998258,
      "v": 127
    },
    {
      "midi": 59,
      "hit": false,
      "t": 214153.16800000035,
      "d": 388.4603083333059,
      "v": 127
    },
    {
      "midi": 67,
      "hit": false,
      "t": 214153.16800000035,
      "d": 390.3833791666257,
      "v": 127
    },
    {
      "midi": 62,
      "hit": false,
      "t": 214153.16800000035,
      "d": 394.2295208332944,
      "v": 127
    },
    {
      "midi": 47,
      "hit": false,
      "t": 214153.16800000035,
      "d": 1267.3036791666527,
      "v": 117
    },
    {
      "midi": 62,
      "hit": false,
      "t": 215076.24200000032,
      "d": 274.9991291666811,
      "v": 113
    },
    {
      "midi": 71,
      "hit": false,
      "t": 215076.24200000032,
      "d": 384.6141666666954,
      "v": 127
    },
    {
      "midi": 67,
      "hit": false,
      "t": 215076.24200000032,
      "d": 428.8447958333709,
      "v": 126
    },
    {
      "midi": 62,
      "hit": false,
      "t": 215537.77900000036,
      "d": 186.5378708333301,
      "v": 26
    },
    {
      "midi": 64,
      "hit": false,
      "t": 215999.31600000034,
      "d": 484.6138499999943,
      "v": 126
    },
    {
      "midi": 67,
      "hit": false,
      "t": 215999.31600000034,
      "d": 484.6138499999943,
      "v": 127
    },
    {
      "midi": 60,
      "hit": false,
      "t": 215999.31600000034,
      "d": 490.38306249998277,
      "v": 123
    },
    {
      "midi": 36,
      "hit": false,
      "t": 215999.31600000034,
      "d": 1115.3810833333118,
      "v": 98
    },
    {
      "midi": 60,
      "hit": false,
      "t": 216922.39000000033,
      "d": 190.3840124999988,
      "v": 127
    },
    {
      "midi": 64,
      "hit": false,
      "t": 216922.39000000033,
      "d": 205.76857916664449,
      "v": 126
    },
    {
      "midi": 67,
      "hit": false,
      "t": 216922.39000000033,
      "d": 205.76857916664449,
      "v": 126
    },
    {
      "midi": 60,
      "hit": false,
      "t": 217383.92700000032,
      "d": 117.30732083332259,
      "v": 44
    },
    {
      "midi": 38,
      "hit": false,
      "t": 217845.4640000003,
      "d": 280.7683416666696,
      "v": 108
    },
    {
      "midi": 64,
      "hit": false,
      "t": 217845.4640000003,
      "d": 315.3836166666588,
      "v": 127
    },
    {
      "midi": 67,
      "hit": false,
      "t": 217845.4640000003,
      "d": 323.0758999999962,
      "v": 127
    },
    {
      "midi": 60,
      "hit": false,
      "t": 217845.4640000003,
      "d": 324.998970833316,
      "v": 123
    },
    {
      "midi": 64,
      "hit": false,
      "t": 218768.5380000003,
      "d": 82.6920458333334,
      "v": 65
    },
    {
      "midi": 67,
      "hit": false,
      "t": 218768.5380000003,
      "d": 188.460941666679,
      "v": 72
    },
    {
      "midi": 60,
      "hit": false,
      "t": 218768.5380000003,
      "d": 205.7685791666736,
      "v": 70
    },
    {
      "midi": 57,
      "hit": false,
      "t": 218999.3065000003,
      "d": 90.3843291666708,
      "v": 80
    },
    {
      "midi": 64,
      "hit": false,
      "t": 219230.0750000003,
      "d": 90.3843291666708,
      "v": 106
    },
    {
      "midi": 60,
      "hit": false,
      "t": 219230.0750000003,
      "d": 111.5381083333341,
      "v": 100
    },
    {
      "midi": 67,
      "hit": false,
      "t": 219460.8435000003,
      "d": 96.1535416666593,
      "v": 73
    },
    {
      "midi": 64,
      "hit": false,
      "t": 219460.8435000003,
      "d": 124.99960416665999,
      "v": 64
    },
    {
      "midi": 69,
      "hit": false,
      "t": 219691.6120000003,
      "d": 482.69077916664537,
      "v": 126
    },
    {
      "midi": 66,
      "hit": false,
      "t": 219691.6120000003,
      "d": 496.15227499997127,
      "v": 127
    },
    {
      "midi": 62,
      "hit": false,
      "t": 219691.6120000003,
      "d": 509.61377083329717,
      "v": 127
    },
    {
      "midi": 38,
      "hit": false,
      "t": 219691.6120000003,
      "d": 1390.380212499993,
      "v": 117
    },
    {
      "midi": 66,
      "hit": false,
      "t": 220614.68600000028,
      "d": 467.3062125000288,
      "v": 127
    },
    {
      "midi": 69,
      "hit": false,
      "t": 220614.68600000028,
      "d": 471.1523541666975,
      "v": 123
    },
    {
      "midi": 60,
      "hit": false,
      "t": 220614.68600000028,
      "d": 474.9984958333662,
      "v": 127
    },
    {
      "midi": 67,
      "hit": false,
      "t": 221537.7600000003,
      "d": 523.0752666666522,
      "v": 123
    },
    {
      "midi": 64,
      "hit": false,
      "t": 221537.7600000003,
      "d": 549.9982583333331,
      "v": 108
    },
    {
      "midi": 71,
      "hit": false,
      "t": 221537.7600000003,
      "d": 561.5366833333392,
      "v": 127
    },
    {
      "midi": 40,
      "hit": false,
      "t": 221537.7600000003,
      "d": 1142.3040749999927,
      "v": 89
    },
    {
      "midi": 67,
      "hit": false,
      "t": 222460.8340000003,
      "d": 419.2294416666555,
      "v": 120
    },
    {
      "midi": 71,
      "hit": false,
      "t": 222460.8340000003,
      "d": 423.0755833333242,
      "v": 117
    },
    {
      "midi": 64,
      "hit": false,
      "t": 222460.8340000003,
      "d": 434.6140083333303,
      "v": 106
    },
    {
      "midi": 66,
      "hit": false,
      "t": 223383.9080000003,
      "d": 467.3062124999997,
      "v": 113
    },
    {
      "midi": 63,
      "hit": false,
      "t": 223383.9080000003,
      "d": 492.3061333333317,
      "v": 111
    },
    {
      "midi": 71,
      "hit": false,
      "t": 223383.9080000003,
      "d": 499.9984166666691,
      "v": 126
    },
    {
      "midi": 39,
      "hit": false,
      "t": 223383.9080000003,
      "d": 1055.7658874999906,
      "v": 100
    },
    {
      "midi": 66,
      "hit": false,
      "t": 224306.98200000028,
      "d": 198.0762958333362,
      "v": 123
    },
    {
      "midi": 63,
      "hit": false,
      "t": 224306.98200000028,
      "d": 203.8455083333247,
      "v": 115
    },
    {
      "midi": 71,
      "hit": false,
      "t": 224306.98200000028,
      "d": 211.5377916666621,
      "v": 126
    },
    {
      "midi": 71,
      "hit": false,
      "t": 225230.05600000027,
      "d": 409.6140874999983,
      "v": 126
    },
    {
      "midi": 67,
      "hit": false,
      "t": 225230.05600000027,
      "d": 419.2294416666555,
      "v": 117
    },
    {
      "midi": 62,
      "hit": false,
      "t": 225230.05600000027,
      "d": 423.0755833333242,
      "v": 103
    },
    {
      "midi": 40,
      "hit": false,
      "t": 225230.05600000027,
      "d": 1313.457379166648,
      "v": 89
    },
    {
      "midi": 67,
      "hit": false,
      "t": 226153.13000000027,
      "d": 396.1525916666433,
      "v": 106
    },
    {
      "midi": 71,
      "hit": false,
      "t": 226153.13000000027,
      "d": 411.5371583333181,
      "v": 120
    },
    {
      "midi": 62,
      "hit": false,
      "t": 226153.13000000027,
      "d": 442.3062916666386,
      "v": 93
    },
    {
      "midi": 67,
      "hit": false,
      "t": 227076.20400000023,
      "d": 499.9984166666691,
      "v": 106
    },
    {
      "midi": 64,
      "hit": false,
      "t": 227076.20400000023,
      "d": 503.8445583333378,
      "v": 111
    },
    {
      "midi": 61,
      "hit": false,
      "t": 227076.20400000023,
      "d": 511.5368416666752,
      "v": 96
    },
    {
      "midi": 71,
      "hit": false,
      "t": 227076.20400000023,
      "d": 523.0752666666813,
      "v": 113
    },
    {
      "midi": 33,
      "hit": false,
      "t": 227076.20400000023,
      "d": 659.6132958333474,
      "v": 82
    },
    {
      "midi": 67,
      "hit": false,
      "t": 227999.27800000025,
      "d": 299.9990500000131,
      "v": 111
    },
    {
      "midi": 64,
      "hit": false,
      "t": 227999.27800000025,
      "d": 309.6144041666703,
      "v": 108
    },
    {
      "midi": 61,
      "hit": false,
      "t": 227999.27800000025,
      "d": 336.5373958333512,
      "v": 96
    },
    {
      "midi": 71,
      "hit": false,
      "t": 227999.27800000025,
      "d": 342.3066083333397,
      "v": 100
    },
    {
      "midi": 64,
      "hit": false,
      "t": 228926.19814166694,
      "d": 546.1521166666644,
      "v": 120
    },
    {
      "midi": 60,
      "hit": false,
      "t": 228926.19814166694,
      "d": 551.9213291666529,
      "v": 113
    },
    {
      "midi": 67,
      "hit": false,
      "t": 228926.19814166694,
      "d": 567.3058958333277,
      "v": 120
    },
    {
      "midi": 45,
      "hit": false,
      "t": 228926.19814166694,
      "d": 1053.8428166666417,
      "v": 103
    },
    {
      "midi": 64,
      "hit": false,
      "t": 229862.73363750026,
      "d": 180.7686583333125,
      "v": 113
    },
    {
      "midi": 67,
      "hit": false,
      "t": 229862.73363750026,
      "d": 192.3070833333186,
      "v": 120
    },
    {
      "midi": 50,
      "hit": false,
      "t": 230766.5769291669,
      "d": 1115.3810833333118,
      "v": 117
    },
    {
      "midi": 60,
      "hit": false,
      "t": 230768.50000000023,
      "d": 278.8452708333498,
      "v": 127
    },
    {
      "midi": 64,
      "hit": false,
      "t": 230768.50000000023,
      "d": 321.1528291666764,
      "v": 127
    },
    {
      "midi": 67,
      "hit": false,
      "t": 230768.50000000023,
      "d": 330.7681833333336,
      "v": 127
    },
    {
      "midi": 60,
      "hit": false,
      "t": 231220.42164583356,
      "d": 123.0765333333402,
      "v": 73
    },
    {
      "midi": 57,
      "hit": false,
      "t": 231455.03628750023,
      "d": 401.9218041666609,
      "v": 100
    },
    {
      "midi": 66,
      "hit": false,
      "t": 231685.80478750024,
      "d": 344.2296791666304,
      "v": 127
    },
    {
      "midi": 62,
      "hit": false,
      "t": 231687.72785833356,
      "d": 305.7682625000016,
      "v": 127
    },
    {
      "midi": 69,
      "hit": false,
      "t": 231687.72785833356,
      "d": 336.5373958333221,
      "v": 126
    },
    {
      "midi": 43,
      "hit": false,
      "t": 232591.5711500002,
      "d": 1148.0732874999812,
      "v": 111
    },
    {
      "midi": 59,
      "hit": false,
      "t": 232614.6480000002,
      "d": 276.9222000000009,
      "v": 117
    },
    {
      "midi": 67,
      "hit": false,
      "t": 232614.6480000002,
      "d": 276.9222000000009,
      "v": 123
    },
    {
      "midi": 62,
      "hit": false,
      "t": 232614.6480000002,
      "d": 294.2298374999955,
      "v": 120
    },
    {
      "midi": 67,
      "hit": false,
      "t": 233537.72200000018,
      "d": 238.460783333343,
      "v": 108
    },
    {
      "midi": 59,
      "hit": false,
      "t": 233999.2590000002,
      "d": 157.6918083333294,
      "v": 51
    },
    {
      "midi": 62,
      "hit": false,
      "t": 234230.0275000002,
      "d": 86.5381875000021,
      "v": 48
    },
    {
      "midi": 36,
      "hit": false,
      "t": 234460.7960000002,
      "d": 348.0758208333282,
      "v": 93
    },
    {
      "midi": 67,
      "hit": false,
      "t": 234460.7960000002,
      "d": 423.0755833333242,
      "v": 123
    },
    {
      "midi": 64,
      "hit": false,
      "t": 234460.7960000002,
      "d": 426.9217249999929,
      "v": 111
    },
    {
      "midi": 60,
      "hit": false,
      "t": 234460.7960000002,
      "d": 428.8447958333127,
      "v": 117
    },
    {
      "midi": 60,
      "hit": false,
      "t": 235383.8700000002,
      "d": 328.8451125000138,
      "v": 108
    },
    {
      "midi": 67,
      "hit": false,
      "t": 235383.8700000002,
      "d": 359.6142458333343,
      "v": 111
    },
    {
      "midi": 64,
      "hit": false,
      "t": 235383.8700000002,
      "d": 373.0757416666602,
      "v": 108
    },
    {
      "midi": 60,
      "hit": false,
      "t": 236306.9440000002,
      "d": 421.1525125000044,
      "v": 103
    },
    {
      "midi": 64,
      "hit": false,
      "t": 236306.9440000002,
      "d": 434.6140083333303,
      "v": 91
    },
    {
      "midi": 67,
      "hit": false,
      "t": 236306.9440000002,
      "d": 436.5370791666501,
      "v": 108
    },
    {
      "midi": 57,
      "hit": false,
      "t": 236306.9440000002,
      "d": 440.3832208333188,
      "v": 96
    },
    {
      "midi": 45,
      "hit": false,
      "t": 236306.9440000002,
      "d": 1009.6121874999953,
      "v": 96
    },
    {
      "midi": 57,
      "hit": false,
      "t": 237230.0180000002,
      "d": 171.1533041666553,
      "v": 111
    },
    {
      "midi": 60,
      "hit": false,
      "t": 237230.0180000002,
      "d": 182.6917291666614,
      "v": 123
    },
    {
      "midi": 64,
      "hit": false,
      "t": 237230.0180000002,
      "d": 203.8455083333247,
      "v": 113
    },
    {
      "midi": 52,
      "hit": false,
      "t": 237460.7865000002,
      "d": 142.3072416666546,
      "v": 82
    },
    {
      "midi": 60,
      "hit": false,
      "t": 237691.55500000017,
      "d": 188.460941666679,
      "v": 86
    },
    {
      "midi": 64,
      "hit": false,
      "t": 237922.32350000017,
      "d": 117.30732083332259,
      "v": 80
    },
    {
      "midi": 38,
      "hit": false,
      "t": 238153.09200000018,
      "d": 153.8456666666607,
      "v": 103
    },
    {
      "midi": 60,
      "hit": false,
      "t": 238153.09200000018,
      "d": 236.5377124999941,
      "v": 120
    },
    {
      "midi": 67,
      "hit": false,
      "t": 238153.09200000018,
      "d": 273.0760583333322,
      "v": 126
    },
    {
      "midi": 64,
      "hit": false,
      "t": 238153.09200000018,
      "d": 280.7683416666696,
      "v": 120
    },
    {
      "midi": 60,
      "hit": false,
      "t": 238614.6290000002,
      "d": 134.6149583333463,
      "v": 51
    },
    {
      "midi": 64,
      "hit": false,
      "t": 238845.3975000002,
      "d": 115.3842500000028,
      "v": 66
    },
    {
      "midi": 62,
      "hit": false,
      "t": 239076.1660000002,
      "d": 284.6144833333383,
      "v": 111
    },
    {
      "midi": 57,
      "hit": false,
      "t": 239076.1660000002,
      "d": 338.460466666671,
      "v": 85
    },
    {
      "midi": 50,
      "hit": false,
      "t": 239076.1660000002,
      "d": 353.8450333333458,
      "v": 72
    },
    {
      "midi": 69,
      "hit": false,
      "t": 239076.1660000002,
      "d": 413.460229166667,
      "v": 117
    },
    {
      "midi": 66,
      "hit": false,
      "t": 239076.1660000002,
      "d": 419.2294416666555,
      "v": 120
    },
    {
      "midi": 59,
      "hit": false,
      "t": 239999.2400000002,
      "d": 369.2295999999915,
      "v": 120
    },
    {
      "midi": 67,
      "hit": false,
      "t": 239999.2400000002,
      "d": 371.1526708333113,
      "v": 123
    },
    {
      "midi": 62,
      "hit": false,
      "t": 239999.2400000002,
      "d": 374.99881249998,
      "v": 120
    },
    {
      "midi": 43,
      "hit": false,
      "t": 239999.2400000002,
      "d": 1134.6117916666553,
      "v": 100
    },
    {
      "midi": 67,
      "hit": false,
      "t": 240922.3140000002,
      "d": 251.9222791666689,
      "v": 113
    },
    {
      "midi": 62,
      "hit": false,
      "t": 240922.3140000002,
      "d": 259.6145625000063,
      "v": 120
    },
    {
      "midi": 59,
      "hit": false,
      "t": 241383.8510000002,
      "d": 224.999287499988,
      "v": 82
    },
    {
      "midi": 62,
      "hit": false,
      "t": 241614.61950000018,
      "d": 117.30732083332259,
      "v": 63
    },
    {
      "midi": 36,
      "hit": false,
      "t": 241845.38800000018,
      "d": 267.3068458333437,
      "v": 82
    },
    {
      "midi": 67,
      "hit": false,
      "t": 241845.38800000018,
      "d": 369.2296000000206,
      "v": 120
    },
    {
      "midi": 60,
      "hit": false,
      "t": 241845.38800000018,
      "d": 386.5372375000152,
      "v": 111
    },
    {
      "midi": 64,
      "hit": false,
      "t": 241845.38800000018,
      "d": 394.2295208333526,
      "v": 108
    },
    {
      "midi": 67,
      "hit": false,
      "t": 242768.4620000002,
      "d": 298.0759791666642,
      "v": 111
    },
    {
      "midi": 60,
      "hit": false,
      "t": 242768.4620000002,
      "d": 323.0758999999962,
      "v": 108
    },
    {
      "midi": 64,
      "hit": false,
      "t": 242768.4620000002,
      "d": 323.0758999999962,
      "v": 111
    },
    {
      "midi": 57,
      "hit": false,
      "t": 243691.5360000002,
      "d": 296.1529083333444,
      "v": 98
    },
    {
      "midi": 60,
      "hit": false,
      "t": 243691.5360000002,
      "d": 309.6144041666703,
      "v": 113
    },
    {
      "midi": 64,
      "hit": false,
      "t": 243691.5360000002,
      "d": 330.7681833333336,
      "v": 108
    },
    {
      "midi": 45,
      "hit": false,
      "t": 243691.5360000002,
      "d": 980.7661249999946,
      "v": 108
    },
    {
      "midi": 64,
      "hit": false,
      "t": 244614.6100000002,
      "d": 176.9225166666729,
      "v": 117
    },
    {
      "midi": 67,
      "hit": false,
      "t": 244614.6100000002,
      "d": 182.6917291666614,
      "v": 117
    },
    {
      "midi": 60,
      "hit": false,
      "t": 244614.6100000002,
      "d": 186.5378708333301,
      "v": 113
    },
    {
      "midi": 52,
      "hit": false,
      "t": 244845.3785000002,
      "d": 111.5381083333341,
      "v": 96
    },
    {
      "midi": 60,
      "hit": false,
      "t": 245076.1470000002,
      "d": 176.9225166666729,
      "v": 89
    },
    {
      "midi": 64,
      "hit": false,
      "t": 245306.9155000002,
      "d": 107.6919666666654,
      "v": 75
    },
    {
      "midi": 60,
      "hit": false,
      "t": 245537.6840000002,
      "d": 303.8451916666818,
      "v": 123
    },
    {
      "midi": 64,
      "hit": false,
      "t": 245537.6840000002,
      "d": 317.3066875000077,
      "v": 123
    },
    {
      "midi": 67,
      "hit": false,
      "t": 245537.6840000002,
      "d": 321.1528291666764,
      "v": 126
    },
    {
      "midi": 38,
      "hit": false,
      "t": 245537.6840000002,
      "d": 1292.3036000000138,
      "v": 91
    },
    {
      "midi": 69,
      "hit": false,
      "t": 246460.75800000023,
      "d": 353.8450333333458,
      "v": 117
    },
    {
      "midi": 62,
      "hit": false,
      "t": 246460.75800000023,
      "d": 355.7681041666656,
      "v": 120
    },
    {
      "midi": 66,
      "hit": false,
      "t": 246460.75800000023,
      "d": 369.2295999999915,
      "v": 126
    },
    {
      "midi": 67,
      "hit": false,
      "t": 247383.83200000023,
      "d": 523.0752666666522,
      "v": 123
    },
    {
      "midi": 64,
      "hit": false,
      "t": 247383.83200000023,
      "d": 549.9982583333331,
      "v": 108
    },
    {
      "midi": 71,
      "hit": false,
      "t": 247383.83200000023,
      "d": 561.5366833333392,
      "v": 127
    },
    {
      "midi": 40,
      "hit": false,
      "t": 247383.83200000023,
      "d": 1142.3040749999927,
      "v": 89
    },
    {
      "midi": 67,
      "hit": false,
      "t": 248306.90600000022,
      "d": 419.2294416666555,
      "v": 120
    },
    {
      "midi": 71,
      "hit": false,
      "t": 248306.90600000022,
      "d": 423.0755833333242,
      "v": 117
    },
    {
      "midi": 64,
      "hit": false,
      "t": 248306.90600000022,
      "d": 434.6140083333303,
      "v": 106
    },
    {
      "midi": 66,
      "hit": false,
      "t": 249229.9800000002,
      "d": 467.3062124999997,
      "v": 113
    },
    {
      "midi": 63,
      "hit": false,
      "t": 249229.9800000002,
      "d": 492.3061333333317,
      "v": 111
    },
    {
      "midi": 71,
      "hit": false,
      "t": 249229.9800000002,
      "d": 499.9984166666691,
      "v": 126
    },
    {
      "midi": 39,
      "hit": false,
      "t": 249229.9800000002,
      "d": 1055.7658874999906,
      "v": 100
    },
    {
      "midi": 66,
      "hit": false,
      "t": 250153.0540000002,
      "d": 198.0762958333362,
      "v": 123
    },
    {
      "midi": 63,
      "hit": false,
      "t": 250153.0540000002,
      "d": 203.8455083333247,
      "v": 115
    },
    {
      "midi": 71,
      "hit": false,
      "t": 250153.0540000002,
      "d": 211.5377916666621,
      "v": 126
    },
    {
      "midi": 71,
      "hit": false,
      "t": 251076.1280000002,
      "d": 409.6140874999983,
      "v": 126
    },
    {
      "midi": 67,
      "hit": false,
      "t": 251076.1280000002,
      "d": 419.2294416666555,
      "v": 117
    },
    {
      "midi": 62,
      "hit": false,
      "t": 251076.1280000002,
      "d": 423.0755833333242,
      "v": 103
    },
    {
      "midi": 40,
      "hit": false,
      "t": 251076.1280000002,
      "d": 1313.457379166648,
      "v": 89
    },
    {
      "midi": 67,
      "hit": false,
      "t": 251999.2020000002,
      "d": 396.1525916666433,
      "v": 106
    },
    {
      "midi": 71,
      "hit": false,
      "t": 251999.2020000002,
      "d": 411.5371583333181,
      "v": 120
    },
    {
      "midi": 62,
      "hit": false,
      "t": 251999.2020000002,
      "d": 442.3062916666386,
      "v": 93
    },
    {
      "midi": 67,
      "hit": false,
      "t": 252922.27600000016,
      "d": 499.9984166666691,
      "v": 106
    },
    {
      "midi": 64,
      "hit": false,
      "t": 252922.27600000016,
      "d": 503.8445583333378,
      "v": 111
    },
    {
      "midi": 61,
      "hit": false,
      "t": 252922.27600000016,
      "d": 511.5368416666752,
      "v": 96
    },
    {
      "midi": 71,
      "hit": false,
      "t": 252922.27600000016,
      "d": 523.0752666666813,
      "v": 113
    },
    {
      "midi": 33,
      "hit": false,
      "t": 252922.27600000016,
      "d": 659.6132958333474,
      "v": 82
    },
    {
      "midi": 67,
      "hit": false,
      "t": 253845.35000000018,
      "d": 299.9990500000131,
      "v": 111
    },
    {
      "midi": 64,
      "hit": false,
      "t": 253845.35000000018,
      "d": 309.6144041666703,
      "v": 108
    },
    {
      "midi": 61,
      "hit": false,
      "t": 253845.35000000018,
      "d": 336.5373958333512,
      "v": 96
    },
    {
      "midi": 71,
      "hit": false,
      "t": 253845.35000000018,
      "d": 342.3066083333397,
      "v": 100
    },
    {
      "midi": 64,
      "hit": false,
      "t": 254772.27014166687,
      "d": 546.1521166666644,
      "v": 120
    },
    {
      "midi": 60,
      "hit": false,
      "t": 254772.27014166687,
      "d": 551.9213291666529,
      "v": 113
    },
    {
      "midi": 67,
      "hit": false,
      "t": 254772.27014166687,
      "d": 567.3058958333277,
      "v": 120
    },
    {
      "midi": 45,
      "hit": false,
      "t": 254772.27014166687,
      "d": 1053.8428166666417,
      "v": 103
    },
    {
      "midi": 64,
      "hit": false,
      "t": 255708.8056375002,
      "d": 180.7686583333125,
      "v": 113
    },
    {
      "midi": 67,
      "hit": false,
      "t": 255708.8056375002,
      "d": 192.3070833333186,
      "v": 120
    },
    {
      "midi": 50,
      "hit": false,
      "t": 256612.64892916684,
      "d": 1115.3810833333118,
      "v": 117
    },
    {
      "midi": 60,
      "hit": false,
      "t": 256614.57200000016,
      "d": 278.8452708333498,
      "v": 127
    },
    {
      "midi": 64,
      "hit": false,
      "t": 256614.57200000016,
      "d": 321.1528291666764,
      "v": 127
    },
    {
      "midi": 67,
      "hit": false,
      "t": 256614.57200000016,
      "d": 330.7681833333336,
      "v": 127
    },
    {
      "midi": 60,
      "hit": false,
      "t": 257066.49364583349,
      "d": 123.0765333333402,
      "v": 73
    },
    {
      "midi": 57,
      "hit": false,
      "t": 257301.10828750016,
      "d": 401.9218041666609,
      "v": 100
    },
    {
      "midi": 66,
      "hit": false,
      "t": 257531.87678750016,
      "d": 344.2296791666304,
      "v": 127
    },
    {
      "midi": 62,
      "hit": false,
      "t": 257533.79985833348,
      "d": 305.7682625000016,
      "v": 127
    },
    {
      "midi": 69,
      "hit": false,
      "t": 257533.79985833348,
      "d": 336.5373958333221,
      "v": 126
    },
    {
      "midi": 59,
      "hit": false,
      "t": 258460.72000000015,
      "d": 276.9222000000009,
      "v": 117
    },
    {
      "midi": 67,
      "hit": false,
      "t": 258460.72000000015,
      "d": 276.9222000000009,
      "v": 123
    },
    {
      "midi": 62,
      "hit": false,
      "t": 258460.72000000015,
      "d": 294.2298374999955,
      "v": 120
    },
    {
      "midi": 43,
      "hit": false,
      "t": 258460.72000000015,
      "d": 1124.9964374999981,
      "v": 106
    },
    {
      "midi": 59,
      "hit": false,
      "t": 259383.79400000014,
      "d": 224.9992875000171,
      "v": 111
    },
    {
      "midi": 67,
      "hit": false,
      "t": 259383.79400000014,
      "d": 238.460783333343,
      "v": 108
    },
    {
      "midi": 62,
      "hit": false,
      "t": 259383.79400000014,
      "d": 251.9222791666689,
      "v": 111
    },
    {
      "midi": 59,
      "hit": false,
      "t": 259845.33100000015,
      "d": 157.6918083333294,
      "v": 51
    },
    {
      "midi": 62,
      "hit": false,
      "t": 260076.09950000016,
      "d": 86.5381875000021,
      "v": 48
    },
    {
      "midi": 36,
      "hit": false,
      "t": 260306.86800000016,
      "d": 348.0758208333282,
      "v": 93
    },
    {
      "midi": 67,
      "hit": false,
      "t": 260306.86800000016,
      "d": 423.0755833333242,
      "v": 123
    },
    {
      "midi": 64,
      "hit": false,
      "t": 260306.86800000016,
      "d": 426.9217249999929,
      "v": 111
    },
    {
      "midi": 60,
      "hit": false,
      "t": 260306.86800000016,
      "d": 428.8447958333127,
      "v": 117
    },
    {
      "midi": 60,
      "hit": false,
      "t": 261229.94200000016,
      "d": 328.8451125000138,
      "v": 108
    },
    {
      "midi": 67,
      "hit": false,
      "t": 261229.94200000016,
      "d": 359.6142458333343,
      "v": 111
    },
    {
      "midi": 64,
      "hit": false,
      "t": 261229.94200000016,
      "d": 373.0757416666602,
      "v": 108
    },
    {
      "midi": 60,
      "hit": false,
      "t": 262153.0160000002,
      "d": 421.1525125000044,
      "v": 103
    },
    {
      "midi": 64,
      "hit": false,
      "t": 262153.0160000002,
      "d": 434.6140083333594,
      "v": 91
    },
    {
      "midi": 67,
      "hit": false,
      "t": 262153.0160000002,
      "d": 436.5370791666792,
      "v": 108
    },
    {
      "midi": 57,
      "hit": false,
      "t": 262153.0160000002,
      "d": 440.3832208333188,
      "v": 96
    },
    {
      "midi": 45,
      "hit": false,
      "t": 262153.0160000002,
      "d": 1009.6121874999371,
      "v": 96
    },
    {
      "midi": 57,
      "hit": false,
      "t": 263076.09000000014,
      "d": 171.15330416662619,
      "v": 111
    },
    {
      "midi": 60,
      "hit": false,
      "t": 263076.09000000014,
      "d": 182.69172916660318,
      "v": 123
    },
    {
      "midi": 64,
      "hit": false,
      "t": 263076.09000000014,
      "d": 203.84550833329558,
      "v": 113
    },
    {
      "midi": 52,
      "hit": false,
      "t": 263306.8585000001,
      "d": 142.3072416666546,
      "v": 82
    },
    {
      "midi": 60,
      "hit": false,
      "t": 263537.6270000001,
      "d": 188.460941666679,
      "v": 86
    },
    {
      "midi": 64,
      "hit": false,
      "t": 263768.3955000001,
      "d": 117.30732083332259,
      "v": 80
    },
    {
      "midi": 38,
      "hit": false,
      "t": 263999.1640000001,
      "d": 153.8456666666316,
      "v": 103
    },
    {
      "midi": 60,
      "hit": false,
      "t": 263999.1640000001,
      "d": 236.53771249996498,
      "v": 120
    },
    {
      "midi": 67,
      "hit": false,
      "t": 263999.1640000001,
      "d": 273.076058333274,
      "v": 126
    },
    {
      "midi": 64,
      "hit": false,
      "t": 263999.1640000001,
      "d": 280.7683416666114,
      "v": 120
    },
    {
      "midi": 60,
      "hit": false,
      "t": 264460.70100000006,
      "d": 134.6149583333172,
      "v": 51
    },
    {
      "midi": 64,
      "hit": false,
      "t": 264691.46950000006,
      "d": 115.3842500000028,
      "v": 66
    },
    {
      "midi": 62,
      "hit": false,
      "t": 264922.23800000007,
      "d": 284.6144833333092,
      "v": 111
    },
    {
      "midi": 57,
      "hit": false,
      "t": 264922.23800000007,
      "d": 338.460466666671,
      "v": 85
    },
    {
      "midi": 50,
      "hit": false,
      "t": 264922.23800000007,
      "d": 353.8450333333458,
      "v": 72
    },
    {
      "midi": 69,
      "hit": false,
      "t": 264922.23800000007,
      "d": 413.460229166667,
      "v": 117
    },
    {
      "midi": 66,
      "hit": false,
      "t": 264922.23800000007,
      "d": 419.2294416666846,
      "v": 120
    },
    {
      "midi": 59,
      "hit": false,
      "t": 265845.3120000001,
      "d": 369.2296000000206,
      "v": 120
    },
    {
      "midi": 67,
      "hit": false,
      "t": 265845.3120000001,
      "d": 371.1526708333404,
      "v": 123
    },
    {
      "midi": 62,
      "hit": false,
      "t": 265845.3120000001,
      "d": 374.99881249998,
      "v": 120
    },
    {
      "midi": 43,
      "hit": false,
      "t": 265845.3120000001,
      "d": 1134.6117916666553,
      "v": 100
    },
    {
      "midi": 67,
      "hit": false,
      "t": 266768.38600000006,
      "d": 251.922279166698,
      "v": 113
    },
    {
      "midi": 62,
      "hit": false,
      "t": 266768.38600000006,
      "d": 259.6145625000354,
      "v": 120
    },
    {
      "midi": 59,
      "hit": false,
      "t": 267229.92300000007,
      "d": 224.999287499988,
      "v": 82
    },
    {
      "midi": 62,
      "hit": false,
      "t": 267460.6915000001,
      "d": 117.30732083332259,
      "v": 63
    },
    {
      "midi": 36,
      "hit": false,
      "t": 267691.46,
      "d": 267.3068458333146,
      "v": 82
    },
    {
      "midi": 67,
      "hit": false,
      "t": 267691.46,
      "d": 369.2295999999624,
      "v": 120
    },
    {
      "midi": 60,
      "hit": false,
      "t": 267691.46,
      "d": 386.537237499957,
      "v": 111
    },
    {
      "midi": 64,
      "hit": false,
      "t": 267691.46,
      "d": 394.2295208332944,
      "v": 108
    },
    {
      "midi": 67,
      "hit": false,
      "t": 268614.534,
      "d": 298.0759791666642,
      "v": 111
    },
    {
      "midi": 60,
      "hit": false,
      "t": 268614.534,
      "d": 323.0758999999962,
      "v": 108
    },
    {
      "midi": 64,
      "hit": false,
      "t": 268614.534,
      "d": 323.0758999999962,
      "v": 111
    },
    {
      "midi": 57,
      "hit": false,
      "t": 269537.60799999995,
      "d": 296.1529083333444,
      "v": 98
    },
    {
      "midi": 60,
      "hit": false,
      "t": 269537.60799999995,
      "d": 309.6144041666994,
      "v": 113
    },
    {
      "midi": 64,
      "hit": false,
      "t": 269537.60799999995,
      "d": 330.7681833333918,
      "v": 108
    },
    {
      "midi": 45,
      "hit": false,
      "t": 269537.60799999995,
      "d": 980.766125000082,
      "v": 108
    },
    {
      "midi": 64,
      "hit": false,
      "t": 270460.68200000003,
      "d": 176.9225166666438,
      "v": 117
    },
    {
      "midi": 67,
      "hit": false,
      "t": 270460.68200000003,
      "d": 182.6917291666614,
      "v": 117
    },
    {
      "midi": 60,
      "hit": false,
      "t": 270460.68200000003,
      "d": 186.53787083330099,
      "v": 113
    },
    {
      "midi": 52,
      "hit": false,
      "t": 270691.4505,
      "d": 111.53810833330499,
      "v": 96
    },
    {
      "midi": 60,
      "hit": false,
      "t": 270922.2189999999,
      "d": 176.9225166666438,
      "v": 89
    },
    {
      "midi": 64,
      "hit": false,
      "t": 271152.98749999993,
      "d": 107.6919666666654,
      "v": 75
    },
    {
      "midi": 60,
      "hit": false,
      "t": 271383.75599999994,
      "d": 303.8451916666818,
      "v": 123
    },
    {
      "midi": 64,
      "hit": false,
      "t": 271383.75599999994,
      "d": 317.3066875000368,
      "v": 123
    },
    {
      "midi": 67,
      "hit": false,
      "t": 271383.75599999994,
      "d": 321.1528291666764,
      "v": 126
    },
    {
      "midi": 38,
      "hit": false,
      "t": 271383.75599999994,
      "d": 1292.3035999999847,
      "v": 91
    },
    {
      "midi": 69,
      "hit": false,
      "t": 272306.82999999996,
      "d": 353.8450333332876,
      "v": 117
    },
    {
      "midi": 62,
      "hit": false,
      "t": 272306.82999999996,
      "d": 355.7681041666074,
      "v": 120
    },
    {
      "midi": 66,
      "hit": false,
      "t": 272306.82999999996,
      "d": 369.2295999999624,
      "v": 126
    },
    {
      "midi": 67,
      "hit": false,
      "t": 273229.9039999999,
      "d": 523.0752666666522,
      "v": 123
    },
    {
      "midi": 64,
      "hit": false,
      "t": 273229.9039999999,
      "d": 549.998258333304,
      "v": 108
    },
    {
      "midi": 71,
      "hit": false,
      "t": 273229.9039999999,
      "d": 561.536683333281,
      "v": 127
    },
    {
      "midi": 40,
      "hit": false,
      "t": 273229.9039999999,
      "d": 1142.3040749999927,
      "v": 89
    },
    {
      "midi": 67,
      "hit": false,
      "t": 274152.9779999999,
      "d": 419.2294416666846,
      "v": 120
    },
    {
      "midi": 71,
      "hit": false,
      "t": 274152.9779999999,
      "d": 423.0755833333242,
      "v": 117
    },
    {
      "midi": 64,
      "hit": false,
      "t": 274152.9779999999,
      "d": 434.6140083333012,
      "v": 106
    },
    {
      "midi": 66,
      "hit": false,
      "t": 275076.05199999985,
      "d": 467.30621249997057,
      "v": 113
    },
    {
      "midi": 63,
      "hit": false,
      "t": 275076.05199999985,
      "d": 492.30613333330257,
      "v": 111
    },
    {
      "midi": 71,
      "hit": false,
      "t": 275076.05199999985,
      "d": 499.99841666663997,
      "v": 126
    },
    {
      "midi": 39,
      "hit": false,
      "t": 275076.05199999985,
      "d": 1055.7658874999615,
      "v": 100
    },
    {
      "midi": 66,
      "hit": false,
      "t": 275999.1259999998,
      "d": 198.0762958333362,
      "v": 123
    },
    {
      "midi": 63,
      "hit": false,
      "t": 275999.1259999998,
      "d": 203.8455083333538,
      "v": 115
    },
    {
      "midi": 71,
      "hit": false,
      "t": 275999.1259999998,
      "d": 211.5377916666912,
      "v": 126
    },
    {
      "midi": 71,
      "hit": false,
      "t": 276922.19999999984,
      "d": 409.6140875000274,
      "v": 126
    },
    {
      "midi": 67,
      "hit": false,
      "t": 276922.19999999984,
      "d": 419.2294416666846,
      "v": 117
    },
    {
      "midi": 62,
      "hit": false,
      "t": 276922.19999999984,
      "d": 423.0755833333242,
      "v": 103
    },
    {
      "midi": 40,
      "hit": false,
      "t": 276922.19999999984,
      "d": 1313.457379166619,
      "v": 89
    },
    {
      "midi": 67,
      "hit": false,
      "t": 277845.2739999998,
      "d": 396.1525916666724,
      "v": 106
    },
    {
      "midi": 71,
      "hit": false,
      "t": 277845.2739999998,
      "d": 411.5371583333472,
      "v": 120
    },
    {
      "midi": 62,
      "hit": false,
      "t": 277845.2739999998,
      "d": 442.3062916666968,
      "v": 93
    },
    {
      "midi": 67,
      "hit": false,
      "t": 278768.3479999998,
      "d": 499.9984166666982,
      "v": 106
    },
    {
      "midi": 64,
      "hit": false,
      "t": 278768.3479999998,
      "d": 503.8445583333378,
      "v": 111
    },
    {
      "midi": 61,
      "hit": false,
      "t": 278768.3479999998,
      "d": 511.5368416666752,
      "v": 96
    },
    {
      "midi": 71,
      "hit": false,
      "t": 278768.3479999998,
      "d": 523.0752666666522,
      "v": 113
    },
    {
      "midi": 33,
      "hit": false,
      "t": 278768.3479999998,
      "d": 659.6132958333474,
      "v": 82
    },
    {
      "midi": 67,
      "hit": false,
      "t": 279691.42199999985,
      "d": 299.999049999984,
      "v": 111
    },
    {
      "midi": 64,
      "hit": false,
      "t": 279691.42199999985,
      "d": 309.6144041666412,
      "v": 108
    },
    {
      "midi": 61,
      "hit": false,
      "t": 279691.42199999985,
      "d": 336.537395833293,
      "v": 96
    },
    {
      "midi": 71,
      "hit": false,
      "t": 279691.42199999985,
      "d": 342.3066083333106,
      "v": 100
    },
    {
      "midi": 64,
      "hit": false,
      "t": 280618.3421416665,
      "d": 546.1521166666644,
      "v": 120
    },
    {
      "midi": 60,
      "hit": false,
      "t": 280618.3421416665,
      "d": 551.921329166682,
      "v": 113
    },
    {
      "midi": 67,
      "hit": false,
      "t": 280618.3421416665,
      "d": 567.3058958333568,
      "v": 120
    },
    {
      "midi": 45,
      "hit": false,
      "t": 280618.3421416665,
      "d": 1053.8428166667,
      "v": 103
    },
    {
      "midi": 64,
      "hit": false,
      "t": 281554.8776374999,
      "d": 180.7686583333416,
      "v": 113
    },
    {
      "midi": 67,
      "hit": false,
      "t": 281554.8776374999,
      "d": 192.3070833333186,
      "v": 120
    },
    {
      "midi": 50,
      "hit": false,
      "t": 282458.72092916653,
      "d": 1115.3810833332827,
      "v": 117
    },
    {
      "midi": 60,
      "hit": false,
      "t": 282460.64399999985,
      "d": 278.8452708333498,
      "v": 127
    },
    {
      "midi": 64,
      "hit": false,
      "t": 282460.64399999985,
      "d": 321.1528291666764,
      "v": 127
    },
    {
      "midi": 67,
      "hit": false,
      "t": 282460.64399999985,
      "d": 330.7681833333336,
      "v": 127
    },
    {
      "midi": 60,
      "hit": false,
      "t": 282912.5656458332,
      "d": 123.0765333333402,
      "v": 73
    },
    {
      "midi": 57,
      "hit": false,
      "t": 283147.18028749985,
      "d": 401.9218041666318,
      "v": 100
    },
    {
      "midi": 66,
      "hit": false,
      "t": 283377.94878749986,
      "d": 344.2296791666304,
      "v": 127
    },
    {
      "midi": 62,
      "hit": false,
      "t": 283379.8718583332,
      "d": 305.7682624999434,
      "v": 127
    },
    {
      "midi": 69,
      "hit": false,
      "t": 283379.8718583332,
      "d": 336.537395833293,
      "v": 126
    },
    {
      "midi": 59,
      "hit": false,
      "t": 284306.79199999984,
      "d": 276.92220000003,
      "v": 117
    },
    {
      "midi": 67,
      "hit": false,
      "t": 284306.79199999984,
      "d": 276.92220000003,
      "v": 123
    },
    {
      "midi": 62,
      "hit": false,
      "t": 284306.79199999984,
      "d": 294.2298375000246,
      "v": 120
    },
    {
      "midi": 43,
      "hit": false,
      "t": 284306.79199999984,
      "d": 1124.9964374999981,
      "v": 106
    },
    {
      "midi": 59,
      "hit": false,
      "t": 285229.86599999986,
      "d": 224.999287499988,
      "v": 111
    },
    {
      "midi": 67,
      "hit": false,
      "t": 285229.86599999986,
      "d": 238.460783333343,
      "v": 108
    },
    {
      "midi": 62,
      "hit": false,
      "t": 285229.86599999986,
      "d": 251.922279166698,
      "v": 111
    },
    {
      "midi": 59,
      "hit": false,
      "t": 285691.4029999999,
      "d": 157.6918083333294,
      "v": 51
    },
    {
      "midi": 62,
      "hit": false,
      "t": 285922.1714999999,
      "d": 86.53818749997299,
      "v": 48
    },
    {
      "midi": 36,
      "hit": false,
      "t": 286152.9399999998,
      "d": 348.0758208333282,
      "v": 93
    },
    {
      "midi": 67,
      "hit": false,
      "t": 286152.9399999998,
      "d": 423.0755833333242,
      "v": 123
    },
    {
      "midi": 64,
      "hit": false,
      "t": 286152.9399999998,
      "d": 426.92172499996377,
      "v": 111
    },
    {
      "midi": 60,
      "hit": false,
      "t": 286152.9399999998,
      "d": 428.84479583328357,
      "v": 117
    },
    {
      "midi": 60,
      "hit": false,
      "t": 287076.0139999998,
      "d": 328.8451125000138,
      "v": 108
    },
    {
      "midi": 67,
      "hit": false,
      "t": 287076.0139999998,
      "d": 359.6142458333634,
      "v": 111
    },
    {
      "midi": 64,
      "hit": false,
      "t": 287076.0139999998,
      "d": 373.0757416667184,
      "v": 108
    },
    {
      "midi": 60,
      "hit": false,
      "t": 287999.0879999998,
      "d": 421.1525125000044,
      "v": 103
    },
    {
      "midi": 64,
      "hit": false,
      "t": 287999.0879999998,
      "d": 434.6140083333594,
      "v": 91
    },
    {
      "midi": 67,
      "hit": false,
      "t": 287999.0879999998,
      "d": 436.5370791666792,
      "v": 108
    },
    {
      "midi": 57,
      "hit": false,
      "t": 287999.0879999998,
      "d": 440.3832208333188,
      "v": 96
    },
    {
      "midi": 45,
      "hit": false,
      "t": 287999.0879999998,
      "d": 1009.6121874999371,
      "v": 96
    },
    {
      "midi": 57,
      "hit": false,
      "t": 288922.1619999998,
      "d": 171.15330416662619,
      "v": 111
    },
    {
      "midi": 60,
      "hit": false,
      "t": 288922.1619999998,
      "d": 182.69172916660318,
      "v": 123
    },
    {
      "midi": 64,
      "hit": false,
      "t": 288922.1619999998,
      "d": 203.84550833329558,
      "v": 113
    },
    {
      "midi": 52,
      "hit": false,
      "t": 289152.9304999997,
      "d": 142.3072416666546,
      "v": 82
    },
    {
      "midi": 60,
      "hit": false,
      "t": 289383.69899999973,
      "d": 188.460941666679,
      "v": 86
    },
    {
      "midi": 64,
      "hit": false,
      "t": 289614.46749999974,
      "d": 117.30732083332259,
      "v": 80
    },
    {
      "midi": 38,
      "hit": false,
      "t": 289845.23599999974,
      "d": 153.8456666666316,
      "v": 103
    },
    {
      "midi": 60,
      "hit": false,
      "t": 289845.23599999974,
      "d": 236.53771249996498,
      "v": 120
    },
    {
      "midi": 67,
      "hit": false,
      "t": 289845.23599999974,
      "d": 273.076058333274,
      "v": 126
    },
    {
      "midi": 64,
      "hit": false,
      "t": 289845.23599999974,
      "d": 280.7683416666114,
      "v": 120
    },
    {
      "midi": 60,
      "hit": false,
      "t": 290306.7729999997,
      "d": 134.6149583333172,
      "v": 51
    },
    {
      "midi": 64,
      "hit": false,
      "t": 290537.5414999997,
      "d": 115.3842500000028,
      "v": 66
    },
    {
      "midi": 62,
      "hit": false,
      "t": 290768.3099999997,
      "d": 284.6144833333092,
      "v": 111
    },
    {
      "midi": 57,
      "hit": false,
      "t": 290768.3099999997,
      "d": 338.460466666671,
      "v": 85
    },
    {
      "midi": 50,
      "hit": false,
      "t": 290768.3099999997,
      "d": 353.8450333333458,
      "v": 72
    },
    {
      "midi": 69,
      "hit": false,
      "t": 290768.3099999997,
      "d": 413.460229166667,
      "v": 117
    },
    {
      "midi": 66,
      "hit": false,
      "t": 290768.3099999997,
      "d": 419.2294416666846,
      "v": 120
    },
    {
      "midi": 59,
      "hit": false,
      "t": 291691.3839999997,
      "d": 369.2296000000206,
      "v": 120
    },
    {
      "midi": 67,
      "hit": false,
      "t": 291691.3839999997,
      "d": 371.1526708333404,
      "v": 123
    },
    {
      "midi": 62,
      "hit": false,
      "t": 291691.3839999997,
      "d": 374.99881249998,
      "v": 120
    },
    {
      "midi": 43,
      "hit": false,
      "t": 291691.3839999997,
      "d": 1134.6117916666553,
      "v": 100
    },
    {
      "midi": 67,
      "hit": false,
      "t": 292614.4579999997,
      "d": 251.922279166698,
      "v": 113
    },
    {
      "midi": 62,
      "hit": false,
      "t": 292614.4579999997,
      "d": 259.6145625000354,
      "v": 120
    },
    {
      "midi": 59,
      "hit": false,
      "t": 293075.9949999997,
      "d": 224.999287499988,
      "v": 82
    },
    {
      "midi": 62,
      "hit": false,
      "t": 293306.7634999997,
      "d": 117.30732083332259,
      "v": 63
    },
    {
      "midi": 36,
      "hit": false,
      "t": 293537.53199999966,
      "d": 267.3068458333146,
      "v": 82
    },
    {
      "midi": 67,
      "hit": false,
      "t": 293537.53199999966,
      "d": 369.2295999999624,
      "v": 120
    },
    {
      "midi": 60,
      "hit": false,
      "t": 293537.53199999966,
      "d": 386.537237499957,
      "v": 111
    },
    {
      "midi": 64,
      "hit": false,
      "t": 293537.53199999966,
      "d": 394.2295208332944,
      "v": 108
    },
    {
      "midi": 67,
      "hit": false,
      "t": 294460.6059999996,
      "d": 298.0759791666642,
      "v": 111
    },
    {
      "midi": 60,
      "hit": false,
      "t": 294460.6059999996,
      "d": 323.0758999999962,
      "v": 108
    },
    {
      "midi": 64,
      "hit": false,
      "t": 294460.6059999996,
      "d": 323.0758999999962,
      "v": 111
    },
    {
      "midi": 57,
      "hit": false,
      "t": 295383.6799999996,
      "d": 296.1529083333444,
      "v": 98
    },
    {
      "midi": 60,
      "hit": false,
      "t": 295383.6799999996,
      "d": 309.6144041666994,
      "v": 113
    },
    {
      "midi": 64,
      "hit": false,
      "t": 295383.6799999996,
      "d": 330.7681833333918,
      "v": 108
    },
    {
      "midi": 45,
      "hit": false,
      "t": 295383.6799999996,
      "d": 980.766125000082,
      "v": 108
    },
    {
      "midi": 64,
      "hit": false,
      "t": 296306.75399999967,
      "d": 176.9225166666438,
      "v": 117
    },
    {
      "midi": 67,
      "hit": false,
      "t": 296306.75399999967,
      "d": 182.6917291666614,
      "v": 117
    },
    {
      "midi": 60,
      "hit": false,
      "t": 296306.75399999967,
      "d": 186.53787083330099,
      "v": 113
    },
    {
      "midi": 52,
      "hit": false,
      "t": 296537.5224999996,
      "d": 111.53810833330499,
      "v": 96
    },
    {
      "midi": 60,
      "hit": false,
      "t": 296768.29099999956,
      "d": 176.9225166666438,
      "v": 89
    },
    {
      "midi": 64,
      "hit": false,
      "t": 296999.05949999957,
      "d": 107.6919666666654,
      "v": 75
    },
    {
      "midi": 60,
      "hit": false,
      "t": 297229.8279999996,
      "d": 303.8451916666818,
      "v": 123
    },
    {
      "midi": 64,
      "hit": false,
      "t": 297229.8279999996,
      "d": 317.3066875000368,
      "v": 123
    },
    {
      "midi": 67,
      "hit": false,
      "t": 297229.8279999996,
      "d": 321.1528291666764,
      "v": 126
    },
    {
      "midi": 38,
      "hit": false,
      "t": 297229.8279999996,
      "d": 1292.3035999999847,
      "v": 91
    },
    {
      "midi": 69,
      "hit": false,
      "t": 298152.9019999996,
      "d": 353.8450333332876,
      "v": 117
    },
    {
      "midi": 62,
      "hit": false,
      "t": 298152.9019999996,
      "d": 355.7681041666074,
      "v": 120
    },
    {
      "midi": 66,
      "hit": false,
      "t": 298152.9019999996,
      "d": 369.2295999999624,
      "v": 126
    },
    {
      "midi": 67,
      "hit": false,
      "t": 299075.97599999956,
      "d": 523.0752666666522,
      "v": 123
    },
    {
      "midi": 64,
      "hit": false,
      "t": 299075.97599999956,
      "d": 549.998258333304,
      "v": 108
    },
    {
      "midi": 71,
      "hit": false,
      "t": 299075.97599999956,
      "d": 561.536683333281,
      "v": 127
    },
    {
      "midi": 40,
      "hit": false,
      "t": 299075.97599999956,
      "d": 1142.3040749999927,
      "v": 89
    },
    {
      "midi": 67,
      "hit": false,
      "t": 299999.0499999995,
      "d": 419.2294416666846,
      "v": 120
    },
    {
      "midi": 71,
      "hit": false,
      "t": 299999.0499999995,
      "d": 423.0755833333242,
      "v": 117
    },
    {
      "midi": 64,
      "hit": false,
      "t": 299999.0499999995,
      "d": 434.6140083333012,
      "v": 106
    },
    {
      "midi": 66,
      "hit": false,
      "t": 300922.1239999995,
      "d": 467.30621249997057,
      "v": 113
    },
    {
      "midi": 63,
      "hit": false,
      "t": 300922.1239999995,
      "d": 492.30613333330257,
      "v": 111
    },
    {
      "midi": 71,
      "hit": false,
      "t": 300922.1239999995,
      "d": 499.99841666663997,
      "v": 126
    },
    {
      "midi": 39,
      "hit": false,
      "t": 300922.1239999995,
      "d": 1055.7658874999615,
      "v": 100
    },
    {
      "midi": 66,
      "hit": false,
      "t": 301845.19799999945,
      "d": 198.0762958333362,
      "v": 123
    },
    {
      "midi": 63,
      "hit": false,
      "t": 301845.19799999945,
      "d": 203.8455083333538,
      "v": 115
    },
    {
      "midi": 71,
      "hit": false,
      "t": 301845.19799999945,
      "d": 211.5377916666912,
      "v": 126
    },
    {
      "midi": 71,
      "hit": false,
      "t": 302768.2719999995,
      "d": 409.6140875000274,
      "v": 126
    },
    {
      "midi": 67,
      "hit": false,
      "t": 302768.2719999995,
      "d": 419.2294416666846,
      "v": 117
    },
    {
      "midi": 62,
      "hit": false,
      "t": 302768.2719999995,
      "d": 423.0755833333242,
      "v": 103
    },
    {
      "midi": 40,
      "hit": false,
      "t": 302768.2719999995,
      "d": 1313.457379166619,
      "v": 89
    },
    {
      "midi": 67,
      "hit": false,
      "t": 303691.34599999944,
      "d": 396.1525916666724,
      "v": 106
    },
    {
      "midi": 71,
      "hit": false,
      "t": 303691.34599999944,
      "d": 411.5371583333472,
      "v": 120
    },
    {
      "midi": 62,
      "hit": false,
      "t": 303691.34599999944,
      "d": 442.3062916666968,
      "v": 93
    },
    {
      "midi": 67,
      "hit": false,
      "t": 304614.41999999946,
      "d": 499.9984166666982,
      "v": 106
    },
    {
      "midi": 64,
      "hit": false,
      "t": 304614.41999999946,
      "d": 503.8445583333378,
      "v": 111
    },
    {
      "midi": 61,
      "hit": false,
      "t": 304614.41999999946,
      "d": 511.5368416666752,
      "v": 96
    },
    {
      "midi": 71,
      "hit": false,
      "t": 304614.41999999946,
      "d": 523.0752666666522,
      "v": 113
    },
    {
      "midi": 33,
      "hit": false,
      "t": 304614.41999999946,
      "d": 659.6132958333474,
      "v": 82
    },
    {
      "midi": 67,
      "hit": false,
      "t": 305537.4939999995,
      "d": 299.999049999984,
      "v": 111
    },
    {
      "midi": 64,
      "hit": false,
      "t": 305537.4939999995,
      "d": 309.6144041666412,
      "v": 108
    },
    {
      "midi": 61,
      "hit": false,
      "t": 305537.4939999995,
      "d": 336.537395833293,
      "v": 96
    },
    {
      "midi": 71,
      "hit": false,
      "t": 305537.4939999995,
      "d": 342.3066083333106,
      "v": 100
    },
    {
      "midi": 67,
      "hit": false,
      "t": 306460.56799999945,
      "d": 192.3070833333186,
      "v": 117
    },
    {
      "midi": 64,
      "hit": false,
      "t": 306460.56799999945,
      "d": 209.61472083331319,
      "v": 111
    },
    {
      "midi": 60,
      "hit": false,
      "t": 306460.56799999945,
      "d": 248.0761375000002,
      "v": 106
    },
    {
      "midi": 45,
      "hit": false,
      "t": 306460.56799999945,
      "d": 3265.374275000009,
      "v": 91
    },
    {
      "midi": 60,
      "hit": false,
      "t": 307383.64199999947,
      "d": 132.6918874999974,
      "v": 71
    },
    {
      "midi": 52,
      "hit": false,
      "t": 307614.4104999995,
      "d": 1663.456270833325,
      "v": 51
    },
    {
      "midi": 60,
      "hit": false,
      "t": 307845.1789999995,
      "d": 267.3068458333146,
      "v": 86
    },
    {
      "midi": 64,
      "hit": false,
      "t": 308075.9474999995,
      "d": 94.23047083331039,
      "v": 78
    },
    {
      "midi": 72,
      "hit": false,
      "t": 308306.7159999995,
      "d": 321.1528291666764,
      "v": 126
    },
    {
      "midi": 64,
      "hit": false,
      "t": 308306.7159999995,
      "d": 349.998891666648,
      "v": 106
    },
    {
      "midi": 71,
      "hit": false,
      "t": 308768.25299999944,
      "d": 99.999683333328,
      "v": 80
    },
    {
      "midi": 67,
      "hit": false,
      "t": 308999.02149999945,
      "d": 153.8456666666898,
      "v": 127
    },
    {
      "midi": 60,
      "hit": false,
      "t": 309460.55849999946,
      "d": 282.6914124999894,
      "v": 127
    },
    {
      "midi": 52,
      "hit": false,
      "t": 309691.32699999947,
      "d": 46.15369999996619,
      "v": 42
    },
    {
      "midi": 60,
      "hit": false,
      "t": 309922.0954999995,
      "d": 90.3843291666708,
      "v": 53
    },
    {
      "midi": 38,
      "hit": false,
      "t": 310152.8639999995,
      "d": 2805.760345833318,
      "v": 106
    },
    {
      "midi": 64,
      "hit": false,
      "t": 310152.8639999995,
      "d": 2882.6831791666336,
      "v": 127
    },
    {
      "midi": 60,
      "hit": false,
      "t": 310152.8639999995,
      "d": 2899.9908166666282,
      "v": 127
    },
    {
      "midi": 67,
      "hit": false,
      "t": 310152.8639999995,
      "d": 2901.913887499948,
      "v": 127
    },
    {
      "midi": 43,
      "hit": false,
      "t": 313845.15999999945,
      "d": 219.23007499997038,
      "v": 117
    },
    {
      "midi": 50,
      "hit": false,
      "t": 314075.9284999994,
      "d": 65.3844083333388,
      "v": 93
    },
    {
      "midi": 59,
      "hit": false,
      "t": 314306.6969999994,
      "d": 153.8456666666898,
      "v": 82
    },
    {
      "midi": 55,
      "hit": false,
      "t": 314537.4654999994,
      "d": 1084.6119499999913,
      "v": 77
    },
    {
      "midi": 71,
      "hit": false,
      "t": 314768.2339999994,
      "d": 253.8453500000178,
      "v": 123
    },
    {
      "midi": 62,
      "hit": false,
      "t": 314768.2339999994,
      "d": 526.92140833335,
      "v": 93
    },
    {
      "midi": 69,
      "hit": false,
      "t": 314999.0024999994,
      "d": 244.2299958333606,
      "v": 66
    },
    {
      "midi": 67,
      "hit": false,
      "t": 315229.7709999994,
      "d": 249.99920833331998,
      "v": 73
    },
    {
      "midi": 62,
      "hit": false,
      "t": 315460.53949999943,
      "d": 176.9225166666438,
      "v": 67
    },
    {
      "midi": 64,
      "hit": false,
      "t": 315691.30799999944,
      "d": 419.22944166662637,
      "v": 111
    },
    {
      "midi": 48,
      "hit": false,
      "t": 315691.30799999944,
      "d": 1361.5341499999631,
      "v": 100
    },
    {
      "midi": 55,
      "hit": false,
      "t": 315922.07649999944,
      "d": 1136.5348624999751,
      "v": 82
    },
    {
      "midi": 60,
      "hit": false,
      "t": 316152.8449999994,
      "d": 121.1534625000204,
      "v": 82
    },
    {
      "midi": 62,
      "hit": false,
      "t": 316383.6134999994,
      "d": 153.8456666666898,
      "v": 127
    },
    {
      "midi": 64,
      "hit": false,
      "t": 316845.1504999994,
      "d": 386.5372375000152,
      "v": 111
    },
    {
      "midi": 67,
      "hit": false,
      "t": 317306.6874999994,
      "d": 92.3073999999906,
      "v": 80
    },
    {
      "midi": 45,
      "hit": false,
      "t": 317537.4559999994,
      "d": 369.2295999999624,
      "v": 106
    },
    {
      "midi": 67,
      "hit": false,
      "t": 317537.4559999994,
      "d": 492.3061333333608,
      "v": 127
    },
    {
      "midi": 52,
      "hit": false,
      "t": 317768.2244999994,
      "d": 184.6147999999812,
      "v": 98
    },
    {
      "midi": 60,
      "hit": false,
      "t": 317998.99299999943,
      "d": 80.7689750000136,
      "v": 86
    },
    {
      "midi": 60,
      "hit": false,
      "t": 318229.76149999944,
      "d": 265.3837749999948,
      "v": 127
    },
    {
      "midi": 52,
      "hit": false,
      "t": 318460.52999999945,
      "d": 142.3072416666546,
      "v": 78
    },
    {
      "midi": 67,
      "hit": false,
      "t": 318691.29849999945,
      "d": 336.5373958333512,
      "v": 127
    },
    {
      "midi": 60,
      "hit": false,
      "t": 318922.06699999946,
      "d": 284.6144833333674,
      "v": 63
    },
    {
      "midi": 64,
      "hit": false,
      "t": 319152.83549999946,
      "d": 111.5381083333632,
      "v": 82
    },
    {
      "midi": 67,
      "hit": false,
      "t": 319383.60399999947,
      "d": 401.92180416669,
      "v": 127
    },
    {
      "midi": 50,
      "hit": false,
      "t": 319383.60399999947,
      "d": 1146.1502166666905,
      "v": 113
    },
    {
      "midi": 57,
      "hit": false,
      "t": 319614.3724999995,
      "d": 903.843291666708,
      "v": 75
    },
    {
      "midi": 66,
      "hit": false,
      "t": 319845.1409999995,
      "d": 113.461179166683,
      "v": 103
    },
    {
      "midi": 67,
      "hit": false,
      "t": 320075.9094999995,
      "d": 338.460466666671,
      "v": 127
    },
    {
      "midi": 69,
      "hit": false,
      "t": 320537.4464999995,
      "d": 219.2300750000286,
      "v": 111
    },
    {
      "midi": 60,
      "hit": false,
      "t": 320537.4464999995,
      "d": 226.922358333366,
      "v": 117
    },
    {
      "midi": 62,
      "hit": false,
      "t": 321229.7519999995,
      "d": 215.3839333333308,
      "v": 100
    },
    {
      "midi": 59,
      "hit": false,
      "t": 321229.7519999995,
      "d": 221.1531458333484,
      "v": 103
    },
    {
      "midi": 67,
      "hit": false,
      "t": 321229.7519999995,
      "d": 267.3068458333146,
      "v": 103
    },
    {
      "midi": 47,
      "hit": false,
      "t": 321229.7519999995,
      "d": 1544.2258791666827,
      "v": 103
    },
    {
      "midi": 55,
      "hit": false,
      "t": 321460.5204999995,
      "d": 1423.0724166667205,
      "v": 83
    },
    {
      "midi": 67,
      "hit": false,
      "t": 321691.28899999947,
      "d": 180.7686583333416,
      "v": 71
    },
    {
      "midi": 71,
      "hit": false,
      "t": 321922.0574999995,
      "d": 76.9228333333158,
      "v": 67
    },
    {
      "midi": 74,
      "hit": false,
      "t": 322152.8259999995,
      "d": 78.8459041666938,
      "v": 75
    },
    {
      "midi": 83,
      "hit": false,
      "t": 322152.8259999995,
      "d": 78.8459041666938,
      "v": 126
    },
    {
      "midi": 72,
      "hit": false,
      "t": 322383.5944999995,
      "d": 59.615195833321195,
      "v": 86
    },
    {
      "midi": 81,
      "hit": false,
      "t": 322383.5944999995,
      "d": 69.2305499999784,
      "v": 100
    },
    {
      "midi": 71,
      "hit": false,
      "t": 322614.3629999995,
      "d": 96.1535416666884,
      "v": 120
    },
    {
      "midi": 79,
      "hit": false,
      "t": 322614.3629999995,
      "d": 119.2303916667006,
      "v": 108
    },
    {
      "midi": 52,
      "hit": false,
      "t": 322845.13149999955,
      "d": 101.922754166706,
      "v": 60
    },
    {
      "midi": 84,
      "hit": false,
      "t": 323075.8999999996,
      "d": 338.460466666671,
      "v": 127
    },
    {
      "midi": 76,
      "hit": false,
      "t": 323075.8999999996,
      "d": 353.8450333333458,
      "v": 111
    },
    {
      "midi": 48,
      "hit": false,
      "t": 323075.8999999996,
      "d": 1348.0726541666663,
      "v": 117
    },
    {
      "midi": 83,
      "hit": false,
      "t": 323537.4369999996,
      "d": 78.8459041666938,
      "v": 100
    },
    {
      "midi": 74,
      "hit": false,
      "t": 323537.4369999996,
      "d": 82.6920458333334,
      "v": 89
    },
    {
      "midi": 81,
      "hit": false,
      "t": 323768.20549999963,
      "d": 263.460704166675,
      "v": 113
    },
    {
      "midi": 72,
      "hit": false,
      "t": 323768.20549999963,
      "d": 311.5374750000192,
      "v": 126
    },
    {
      "midi": 71,
      "hit": false,
      "t": 324229.74249999964,
      "d": 223.07621666660998,
      "v": 126
    },
    {
      "midi": 79,
      "hit": false,
      "t": 324229.74249999964,
      "d": 224.99928749992978,
      "v": 120
    },
    {
      "midi": 81,
      "hit": false,
      "t": 324922.04799999954,
      "d": 144.2303124999744,
      "v": 111
    },
    {
      "midi": 76,
      "hit": false,
      "t": 324922.04799999954,
      "d": 167.3071624999866,
      "v": 93
    },
    {
      "midi": 72,
      "hit": false,
      "t": 324922.04799999954,
      "d": 240.3838541666628,
      "v": 85
    },
    {
      "midi": 45,
      "hit": false,
      "t": 324922.04799999954,
      "d": 1365.3802916667773,
      "v": 103
    },
    {
      "midi": 52,
      "hit": false,
      "t": 325152.81649999955,
      "d": 698.0747125000344,
      "v": 67
    },
    {
      "midi": 57,
      "hit": false,
      "t": 325383.58499999956,
      "d": 124.99960416665999,
      "v": 82
    },
    {
      "midi": 59,
      "hit": false,
      "t": 325614.35349999956,
      "d": 105.7688958333456,
      "v": 103
    },
    {
      "midi": 60,
      "hit": false,
      "t": 325845.12199999957,
      "d": 126.922675000038,
      "v": 127
    },
    {
      "midi": 52,
      "hit": false,
      "t": 326075.89049999963,
      "d": 153.8456666666898,
      "v": 80
    },
    {
      "midi": 64,
      "hit": false,
      "t": 326306.65899999964,
      "d": 184.6147999999812,
      "v": 120
    },
    {
      "midi": 67,
      "hit": false,
      "t": 326768.1959999996,
      "d": 148.0764541666722,
      "v": 123
    },
    {
      "midi": 64,
      "hit": false,
      "t": 326768.1959999996,
      "d": 198.0762958333362,
      "v": 91
    },
    {
      "midi": 60,
      "hit": false,
      "t": 326768.1959999996,
      "d": 263.460704166675,
      "v": 54
    },
    {
      "midi": 38,
      "hit": false,
      "t": 326768.1959999996,
      "d": 2686.5299541667337,
      "v": 111
    },
    {
      "midi": 45,
      "hit": false,
      "t": 326998.9644999996,
      "d": 2430.761533333396,
      "v": 60
    },
    {
      "midi": 48,
      "hit": false,
      "t": 327229.7329999996,
      "d": 440.3832208333188,
      "v": 42
    },
    {
      "midi": 52,
      "hit": false,
      "t": 327460.5014999996,
      "d": 269.2299166666926,
      "v": 65
    },
    {
      "midi": 55,
      "hit": false,
      "t": 327691.2699999996,
      "d": 73.0766916666762,
      "v": 85
    },
    {
      "midi": 60,
      "hit": false,
      "t": 327922.0384999996,
      "d": 1669.2254833333427,
      "v": 86
    },
    {
      "midi": 64,
      "hit": false,
      "t": 328152.8069999996,
      "d": 1363.4572208333411,
      "v": 56
    },
    {
      "midi": 69,
      "hit": false,
      "t": 328614.34399999963,
      "d": 905.7663624999695,
      "v": 93
    },
    {
      "midi": 43,
      "hit": false,
      "t": 330460.4919999996,
      "d": 2292.3004333332647,
      "v": 117
    },
    {
      "midi": 50,
      "hit": false,
      "t": 330691.2604999996,
      "d": 2063.455004166579,
      "v": 68
    },
    {
      "midi": 55,
      "hit": false,
      "t": 330922.02899999963,
      "d": 724.9977041666862,
      "v": 71
    },
    {
      "midi": 57,
      "hit": false,
      "t": 331152.79749999964,
      "d": 505.76762916665757,
      "v": 77
    },
    {
      "midi": 59,
      "hit": false,
      "t": 331383.56599999964,
      "d": 267.3068458333146,
      "v": 82
    },
    {
      "midi": 62,
      "hit": false,
      "t": 331614.33449999965,
      "d": 88.46125833329279,
      "v": 93
    },
    {
      "midi": 67,
      "hit": false,
      "t": 331845.1029999996,
      "d": 903.8432916666497,
      "v": 98
    },
    {
      "midi": 69,
      "hit": false,
      "t": 332075.8714999996,
      "d": 207.6916499999934,
      "v": 67
    },
    {
      "midi": 71,
      "hit": false,
      "t": 332306.6399999996,
      "d": 474.99849583324976,
      "v": 98
    },
    {
      "midi": 62,
      "hit": false,
      "t": 332306.6399999996,
      "d": 490.38306249992456,
      "v": 86
    }
  ]
}