{
  "jsonPath": "Rap/Rap Latina/Mala/terima-kasih.json",
  "path": "Rap\\Rap Latina\\Mala\\Terima Kasih.mid",
  "name": "Terima Kasih",
  "difficulty": "Advanced",
  "bpm": 90.00171003249062,
  "notes": [
    {
      "midi": 64,
      "hit": false,
      "t": 1999.962,
      "d": 368.04856249999966,
      "v": 91
    },
    {
      "midi": 66,
      "hit": false,
      "t": 2333.2889999999998,
      "d": 263.883875,
      "v": 88
    },
    {
      "midi": 59,
      "hit": false,
      "t": 2666.6159999999995,
      "d": 343.7434687499999,
      "v": 82
    },
    {
      "midi": 52,
      "hit": false,
      "t": 2666.6159999999995,
      "d": 670.1261562499999,
      "v": 68
    },
    {
      "midi": 68,
      "hit": false,
      "t": 2666.6159999999995,
      "d": 788.1794687500001,
      "v": 91
    },
    {
      "midi": 56,
      "hit": false,
      "t": 2666.6159999999995,
      "d": 864.5669062500001,
      "v": 82
    },
    {
      "midi": 47,
      "hit": false,
      "t": 2666.6159999999995,
      "d": 2357.5940937500004,
      "v": 74
    },
    {
      "midi": 40,
      "hit": false,
      "t": 2666.6159999999995,
      "d": 2430.509375,
      "v": 74
    },
    {
      "midi": 64,
      "hit": false,
      "t": 2999.9429999999993,
      "d": 499.99050000000034,
      "v": 73
    },
    {
      "midi": 59,
      "hit": false,
      "t": 3333.2699999999995,
      "d": 215.27368750000005,
      "v": 80
    },
    {
      "midi": 59,
      "hit": false,
      "t": 3666.5969999999998,
      "d": 677.0704687500001,
      "v": 91
    },
    {
      "midi": 66,
      "hit": false,
      "t": 3666.5969999999998,
      "d": 677.0704687500001,
      "v": 95
    },
    {
      "midi": 51,
      "hit": false,
      "t": 3666.5969999999998,
      "d": 1340.2523124999998,
      "v": 67
    },
    {
      "midi": 54,
      "hit": false,
      "t": 3666.5969999999998,
      "d": 1493.0271874999999,
      "v": 91
    },
    {
      "midi": 63,
      "hit": false,
      "t": 4333.251,
      "d": 729.1528124999995,
      "v": 88
    },
    {
      "midi": 59,
      "hit": false,
      "t": 4999.905,
      "d": 364.5764062500002,
      "v": 82
    },
    {
      "midi": 56,
      "hit": false,
      "t": 5333.232,
      "d": 413.1865937500006,
      "v": 88
    },
    {
      "midi": 64,
      "hit": false,
      "t": 5333.232,
      "d": 798.5959375000002,
      "v": 88
    },
    {
      "midi": 49,
      "hit": false,
      "t": 5333.232,
      "d": 2409.6764374999993,
      "v": 73
    },
    {
      "midi": 52,
      "hit": false,
      "t": 5333.232,
      "d": 2444.3979999999992,
      "v": 78
    },
    {
      "midi": 61,
      "hit": false,
      "t": 5666.559,
      "d": 374.9928749999999,
      "v": 80
    },
    {
      "midi": 56,
      "hit": false,
      "t": 5999.886,
      "d": 1062.4798124999988,
      "v": 74
    },
    {
      "midi": 64,
      "hit": false,
      "t": 6333.213,
      "d": 677.0704687500001,
      "v": 91
    },
    {
      "midi": 61,
      "hit": false,
      "t": 6333.213,
      "d": 684.0147812499999,
      "v": 67
    },
    {
      "midi": 61,
      "hit": false,
      "t": 7333.1939999999995,
      "d": 402.770125,
      "v": 80
    },
    {
      "midi": 64,
      "hit": false,
      "t": 7333.1939999999995,
      "d": 423.6030624999994,
      "v": 85
    },
    {
      "midi": 56,
      "hit": false,
      "t": 7333.1939999999995,
      "d": 510.4069687500005,
      "v": 80
    },
    {
      "midi": 66,
      "hit": false,
      "t": 7666.521,
      "d": 159.71918749999986,
      "v": 78
    },
    {
      "midi": 59,
      "hit": false,
      "t": 7999.848,
      "d": 291.66112500000054,
      "v": 82
    },
    {
      "midi": 52,
      "hit": false,
      "t": 7999.848,
      "d": 572.9057812500014,
      "v": 62
    },
    {
      "midi": 56,
      "hit": false,
      "t": 7999.848,
      "d": 791.6516250000022,
      "v": 91
    },
    {
      "midi": 68,
      "hit": false,
      "t": 7999.848,
      "d": 802.0680937500019,
      "v": 91
    },
    {
      "midi": 40,
      "hit": false,
      "t": 7999.848,
      "d": 2291.6231250000037,
      "v": 76
    },
    {
      "midi": 47,
      "hit": false,
      "t": 7999.848,
      "d": 2312.456062500003,
      "v": 73
    },
    {
      "midi": 64,
      "hit": false,
      "t": 8333.175000000001,
      "d": 458.3246250000011,
      "v": 70
    },
    {
      "midi": 59,
      "hit": false,
      "t": 8666.502000000002,
      "d": 236.10662500000035,
      "v": 73
    },
    {
      "midi": 59,
      "hit": false,
      "t": 8999.829000000003,
      "d": 729.1528125000004,
      "v": 70
    },
    {
      "midi": 51,
      "hit": false,
      "t": 8999.829000000003,
      "d": 1333.307999999999,
      "v": 64
    },
    {
      "midi": 66,
      "hit": false,
      "t": 8999.829000000003,
      "d": 1413.1675937500004,
      "v": 91
    },
    {
      "midi": 54,
      "hit": false,
      "t": 8999.829000000003,
      "d": 1434.0005312499998,
      "v": 82
    },
    {
      "midi": 63,
      "hit": false,
      "t": 9666.483000000004,
      "d": 711.7920312499991,
      "v": 82
    },
    {
      "midi": 59,
      "hit": false,
      "t": 10333.137000000002,
      "d": 315.9662187499998,
      "v": 78
    },
    {
      "midi": 56,
      "hit": false,
      "t": 10666.464000000002,
      "d": 361.1042499999985,
      "v": 91
    },
    {
      "midi": 52,
      "hit": false,
      "t": 10666.464000000002,
      "d": 850.6782812499987,
      "v": 80
    },
    {
      "midi": 49,
      "hit": false,
      "t": 10666.464000000002,
      "d": 913.1770937499987,
      "v": 74
    },
    {
      "midi": 64,
      "hit": false,
      "t": 10666.464000000002,
      "d": 1690.9400937499959,
      "v": 85
    },
    {
      "midi": 61,
      "hit": false,
      "t": 10999.791000000001,
      "d": 392.3536562499994,
      "v": 74
    },
    {
      "midi": 59,
      "hit": false,
      "t": 11333.118,
      "d": 357.6320937499986,
      "v": 78
    },
    {
      "midi": 61,
      "hit": false,
      "t": 11666.445,
      "d": 659.7096874999988,
      "v": 80
    },
    {
      "midi": 45,
      "hit": false,
      "t": 11666.445,
      "d": 1298.5864374999983,
      "v": 85
    },
    {
      "midi": 52,
      "hit": false,
      "t": 11666.445,
      "d": 1333.307999999999,
      "v": 61
    },
    {
      "midi": 57,
      "hit": false,
      "t": 11666.445,
      "d": 1336.780156249999,
      "v": 82
    },
    {
      "midi": 59,
      "hit": false,
      "t": 12333.098999999998,
      "d": 374.9928749999999,
      "v": 82
    },
    {
      "midi": 61,
      "hit": false,
      "t": 12666.425999999998,
      "d": 361.1042500000003,
      "v": 80
    },
    {
      "midi": 64,
      "hit": false,
      "t": 12999.752999999999,
      "d": 104.16468749999876,
      "v": 91
    },
    {
      "midi": 59,
      "hit": false,
      "t": 13333.079999999998,
      "d": 315.9662187499998,
      "v": 82
    },
    {
      "midi": 52,
      "hit": false,
      "t": 13333.079999999998,
      "d": 694.4312499999978,
      "v": 68
    },
    {
      "midi": 68,
      "hit": false,
      "t": 13333.079999999998,
      "d": 788.1794687499987,
      "v": 91
    },
    {
      "midi": 56,
      "hit": false,
      "t": 13333.079999999998,
      "d": 791.6516249999986,
      "v": 80
    },
    {
      "midi": 47,
      "hit": false,
      "t": 13333.079999999998,
      "d": 2340.2333124999986,
      "v": 65
    },
    {
      "midi": 40,
      "hit": false,
      "t": 13333.079999999998,
      "d": 2385.3713437499973,
      "v": 74
    },
    {
      "midi": 64,
      "hit": false,
      "t": 13666.406999999997,
      "d": 458.3246249999993,
      "v": 74
    },
    {
      "midi": 59,
      "hit": false,
      "t": 13999.733999999997,
      "d": 180.55212500000016,
      "v": 76
    },
    {
      "midi": 59,
      "hit": false,
      "t": 14333.060999999996,
      "d": 701.3755625000013,
      "v": 73
    },
    {
      "midi": 51,
      "hit": false,
      "t": 14333.060999999996,
      "d": 1361.08525,
      "v": 73
    },
    {
      "midi": 66,
      "hit": false,
      "t": 14333.060999999996,
      "d": 1374.9738749999997,
      "v": 91
    },
    {
      "midi": 54,
      "hit": false,
      "t": 14333.060999999996,
      "d": 1423.5840625,
      "v": 88
    },
    {
      "midi": 63,
      "hit": false,
      "t": 14999.714999999997,
      "d": 711.7920312499991,
      "v": 82
    },
    {
      "midi": 59,
      "hit": false,
      "t": 15666.368999999997,
      "d": 274.30034374999923,
      "v": 82
    },
    {
      "midi": 56,
      "hit": false,
      "t": 15999.695999999996,
      "d": 385.4093437499978,
      "v": 95
    },
    {
      "midi": 52,
      "hit": false,
      "t": 15999.695999999996,
      "d": 916.6492499999986,
      "v": 80
    },
    {
      "midi": 49,
      "hit": false,
      "t": 15999.695999999996,
      "d": 940.9543437499997,
      "v": 78
    },
    {
      "midi": 64,
      "hit": false,
      "t": 15999.695999999996,
      "d": 986.0923750000002,
      "v": 91
    },
    {
      "midi": 61,
      "hit": false,
      "t": 16333.022999999996,
      "d": 385.4093437499996,
      "v": 71
    },
    {
      "midi": 59,
      "hit": false,
      "t": 16666.349999999995,
      "d": 305.54975000000195,
      "v": 68
    },
    {
      "midi": 57,
      "hit": false,
      "t": 16999.676999999996,
      "d": 1072.8962812499994,
      "v": 88
    },
    {
      "midi": 45,
      "hit": false,
      "t": 16999.676999999996,
      "d": 1086.784906249999,
      "v": 85
    },
    {
      "midi": 52,
      "hit": false,
      "t": 16999.676999999996,
      "d": 1086.784906249999,
      "v": 78
    },
    {
      "midi": 61,
      "hit": false,
      "t": 16999.676999999996,
      "d": 1090.2570625000008,
      "v": 82
    },
    {
      "midi": 64,
      "hit": false,
      "t": 16999.676999999996,
      "d": 1100.6735312500023,
      "v": 91
    },
    {
      "midi": 56,
      "hit": false,
      "t": 18666.311999999998,
      "d": 656.2375312500008,
      "v": 82
    },
    {
      "midi": 52,
      "hit": false,
      "t": 18666.311999999998,
      "d": 666.6540000000023,
      "v": 82
    },
    {
      "midi": 59,
      "hit": false,
      "t": 18666.312,
      "d": 802.0680937500001,
      "v": 58
    },
    {
      "midi": 64,
      "hit": false,
      "t": 18666.312,
      "d": 805.5402500000018,
      "v": 62
    },
    {
      "midi": 52,
      "hit": false,
      "t": 18666.312,
      "d": 809.0124062500036,
      "v": 61
    },
    {
      "midi": 56,
      "hit": false,
      "t": 18666.312,
      "d": 850.6782812500023,
      "v": 52
    },
    {
      "midi": 68,
      "hit": false,
      "t": 18666.312,
      "d": 850.6782812500023,
      "v": 57
    },
    {
      "midi": 59,
      "hit": false,
      "t": 19332.966,
      "d": 305.5497499999983,
      "v": 78
    },
    {
      "midi": 64,
      "hit": false,
      "t": 19332.966,
      "d": 315.9662187499998,
      "v": 78
    },
    {
      "midi": 68,
      "hit": false,
      "t": 19332.966,
      "d": 319.43837500000154,
      "v": 74
    },
    {
      "midi": 54,
      "hit": false,
      "t": 19666.293,
      "d": 666.6539999999986,
      "v": 78
    },
    {
      "midi": 51,
      "hit": false,
      "t": 19666.293,
      "d": 677.0704687500001,
      "v": 67
    },
    {
      "midi": 54,
      "hit": false,
      "t": 19666.293000000005,
      "d": 1409.6954374999987,
      "v": 64
    },
    {
      "midi": 59,
      "hit": false,
      "t": 19666.293000000005,
      "d": 1423.5840624999983,
      "v": 71
    },
    {
      "midi": 63,
      "hit": false,
      "t": 19666.293000000005,
      "d": 1434.0005312499998,
      "v": 68
    },
    {
      "midi": 66,
      "hit": false,
      "t": 19666.293000000005,
      "d": 1465.2499375000007,
      "v": 68
    },
    {
      "midi": 59,
      "hit": false,
      "t": 20332.947,
      "d": 520.8234375000029,
      "v": 80
    },
    {
      "midi": 63,
      "hit": false,
      "t": 20332.947,
      "d": 555.5450000000019,
      "v": 80
    },
    {
      "midi": 66,
      "hit": false,
      "t": 20332.947,
      "d": 555.5450000000019,
      "v": 78
    },
    {
      "midi": 59,
      "hit": false,
      "t": 20999.601000000002,
      "d": 319.43837500000154,
      "v": 78
    },
    {
      "midi": 63,
      "hit": false,
      "t": 20999.601000000002,
      "d": 343.74346875000265,
      "v": 71
    },
    {
      "midi": 66,
      "hit": false,
      "t": 20999.601000000002,
      "d": 354.15993750000416,
      "v": 73
    },
    {
      "midi": 49,
      "hit": false,
      "t": 21332.928000000004,
      "d": 677.0704687500038,
      "v": 73
    },
    {
      "midi": 56,
      "hit": false,
      "t": 21332.928000000004,
      "d": 694.4312500000051,
      "v": 78
    },
    {
      "midi": 61,
      "hit": false,
      "t": 21332.928000000007,
      "d": 732.6249687499985,
      "v": 74
    },
    {
      "midi": 56,
      "hit": false,
      "t": 21332.928000000007,
      "d": 749.9857499999998,
      "v": 78
    },
    {
      "midi": 64,
      "hit": false,
      "t": 21332.928000000007,
      "d": 829.8453437499993,
      "v": 78
    },
    {
      "midi": 68,
      "hit": false,
      "t": 21332.928000000007,
      "d": 840.2618125000008,
      "v": 78
    },
    {
      "midi": 59,
      "hit": false,
      "t": 21999.582000000006,
      "d": 378.46503125000163,
      "v": 74
    },
    {
      "midi": 64,
      "hit": false,
      "t": 21999.582000000006,
      "d": 413.1865937500006,
      "v": 76
    },
    {
      "midi": 68,
      "hit": false,
      "t": 21999.582000000006,
      "d": 440.9638437499998,
      "v": 78
    },
    {
      "midi": 68,
      "hit": false,
      "t": 22332.909000000007,
      "d": 871.5112187500017,
      "v": 73
    },
    {
      "midi": 64,
      "hit": false,
      "t": 22332.909000000007,
      "d": 888.872000000003,
      "v": 70
    },
    {
      "midi": 59,
      "hit": false,
      "t": 22332.909000000007,
      "d": 1142.3394062500047,
      "v": 76
    },
    {
      "midi": 56,
      "hit": false,
      "t": 22332.909000000007,
      "d": 1177.0609687500037,
      "v": 74
    },
    {
      "midi": 47,
      "hit": false,
      "t": 22332.909000000007,
      "d": 701.3755624999976,
      "v": 80
    },
    {
      "midi": 56,
      "hit": false,
      "t": 22332.909000000007,
      "d": 708.3198749999974,
      "v": 73
    },
    {
      "midi": 59,
      "hit": false,
      "t": 22999.563000000006,
      "d": 388.88149999999587,
      "v": 71
    },
    {
      "midi": 68,
      "hit": false,
      "t": 22999.563000000006,
      "d": 409.71443749999526,
      "v": 68
    },
    {
      "midi": 64,
      "hit": false,
      "t": 22999.563000000006,
      "d": 416.65874999999505,
      "v": 70
    },
    {
      "midi": 47,
      "hit": false,
      "t": 23332.890000000003,
      "d": 399.2979687499974,
      "v": 70
    },
    {
      "midi": 56,
      "hit": false,
      "t": 23332.890000000003,
      "d": 406.2422812499972,
      "v": 66
    },
    {
      "midi": 64,
      "hit": false,
      "t": 23332.89000000001,
      "d": 559.01715625,
      "v": 80
    },
    {
      "midi": 71,
      "hit": false,
      "t": 23332.89000000001,
      "d": 572.9057812499996,
      "v": 76
    },
    {
      "midi": 68,
      "hit": false,
      "t": 23332.89000000001,
      "d": 586.7944062499992,
      "v": 67
    },
    {
      "midi": 59,
      "hit": false,
      "t": 23666.217,
      "d": 288.18896875000064,
      "v": 74
    },
    {
      "midi": 64,
      "hit": false,
      "t": 23666.217,
      "d": 312.49406250000175,
      "v": 71
    },
    {
      "midi": 68,
      "hit": false,
      "t": 23666.217,
      "d": 315.96621875000346,
      "v": 80
    },
    {
      "midi": 52,
      "hit": false,
      "t": 23999.544000000005,
      "d": 684.0147812499999,
      "v": 76
    },
    {
      "midi": 57,
      "hit": false,
      "t": 23999.544000000005,
      "d": 722.2085000000006,
      "v": 78
    },
    {
      "midi": 61,
      "hit": false,
      "t": 23999.54400000001,
      "d": 760.4022187500013,
      "v": 74
    },
    {
      "midi": 64,
      "hit": false,
      "t": 23999.54400000001,
      "d": 833.317500000001,
      "v": 80
    },
    {
      "midi": 52,
      "hit": false,
      "t": 23999.54400000001,
      "d": 843.7339687500025,
      "v": 73
    },
    {
      "midi": 69,
      "hit": false,
      "t": 23999.54400000001,
      "d": 871.5112187500017,
      "v": 74
    },
    {
      "midi": 61,
      "hit": false,
      "t": 24666.198000000004,
      "d": 336.79915625000285,
      "v": 80
    },
    {
      "midi": 69,
      "hit": false,
      "t": 24666.198000000004,
      "d": 343.74346875000265,
      "v": 80
    },
    {
      "midi": 64,
      "hit": false,
      "t": 24666.198000000004,
      "d": 347.21562500000437,
      "v": 78
    },
    {
      "midi": 56,
      "hit": false,
      "t": 24999.525000000005,
      "d": 784.7073125000024,
      "v": 74
    },
    {
      "midi": 47,
      "hit": false,
      "t": 24999.525000000005,
      "d": 788.1794687500042,
      "v": 78
    },
    {
      "midi": 64,
      "hit": false,
      "t": 24999.525000000012,
      "d": 888.8719999999994,
      "v": 91
    },
    {
      "midi": 59,
      "hit": false,
      "t": 24999.525000000012,
      "d": 902.760624999999,
      "v": 85
    },
    {
      "midi": 68,
      "hit": false,
      "t": 24999.525000000012,
      "d": 934.0100312499999,
      "v": 82
    },
    {
      "midi": 59,
      "hit": false,
      "t": 25666.179000000007,
      "d": 420.1309062500004,
      "v": 70
    },
    {
      "midi": 64,
      "hit": false,
      "t": 25666.179000000007,
      "d": 465.2689375000009,
      "v": 73
    },
    {
      "midi": 68,
      "hit": false,
      "t": 25666.179000000007,
      "d": 493.0461875000001,
      "v": 71
    },
    {
      "midi": 47,
      "hit": false,
      "t": 25999.50600000001,
      "d": 374.9928749999963,
      "v": 68
    },
    {
      "midi": 56,
      "hit": false,
      "t": 25999.50600000001,
      "d": 381.93718749999607,
      "v": 62
    },
    {
      "midi": 59,
      "hit": false,
      "t": 25999.506000000012,
      "d": 434.01953125,
      "v": 61
    },
    {
      "midi": 56,
      "hit": false,
      "t": 25999.506000000012,
      "d": 499.9904999999999,
      "v": 73
    },
    {
      "midi": 64,
      "hit": false,
      "t": 25999.506000000012,
      "d": 645.8210624999992,
      "v": 91
    },
    {
      "midi": 59,
      "hit": false,
      "t": 26332.833000000006,
      "d": 274.3003437499974,
      "v": 73
    },
    {
      "midi": 64,
      "hit": false,
      "t": 26332.833000000006,
      "d": 315.9662187499962,
      "v": 76
    },
    {
      "midi": 68,
      "hit": false,
      "t": 26332.833000000006,
      "d": 340.2713124999973,
      "v": 82
    },
    {
      "midi": 49,
      "hit": false,
      "t": 26666.160000000003,
      "d": 628.4602812500016,
      "v": 68
    },
    {
      "midi": 57,
      "hit": false,
      "t": 26666.160000000003,
      "d": 666.6540000000023,
      "v": 78
    },
    {
      "midi": 61,
      "hit": false,
      "t": 26666.16000000001,
      "d": 878.4555312500015,
      "v": 88
    },
    {
      "midi": 54,
      "hit": false,
      "t": 26666.16000000001,
      "d": 888.872000000003,
      "v": 73
    },
    {
      "midi": 57,
      "hit": false,
      "t": 26666.16000000001,
      "d": 895.8163125000028,
      "v": 80
    },
    {
      "midi": 61,
      "hit": false,
      "t": 27332.814000000006,
      "d": 302.07759375000023,
      "v": 82
    },
    {
      "midi": 64,
      "hit": false,
      "t": 27332.814000000006,
      "d": 326.38268750000134,
      "v": 85
    },
    {
      "midi": 54,
      "hit": false,
      "t": 27666.141000000007,
      "d": 666.6539999999986,
      "v": 74
    },
    {
      "midi": 51,
      "hit": false,
      "t": 27666.141000000007,
      "d": 673.5983124999984,
      "v": 73
    },
    {
      "midi": 59,
      "hit": false,
      "t": 27666.141000000014,
      "d": 1243.0319375,
      "v": 71
    },
    {
      "midi": 63,
      "hit": false,
      "t": 27666.141000000014,
      "d": 1246.5040937500016,
      "v": 74
    },
    {
      "midi": 66,
      "hit": false,
      "t": 27666.141000000014,
      "d": 1246.5040937500016,
      "v": 73
    },
    {
      "midi": 54,
      "hit": false,
      "t": 27666.141000000014,
      "d": 1249.9762500000033,
      "v": 78
    },
    {
      "midi": 59,
      "hit": false,
      "t": 28332.795000000006,
      "d": 399.297968750001,
      "v": 80
    },
    {
      "midi": 63,
      "hit": false,
      "t": 28332.795000000006,
      "d": 402.77012500000274,
      "v": 82
    },
    {
      "midi": 66,
      "hit": false,
      "t": 28332.795000000006,
      "d": 420.13090625000405,
      "v": 80
    },
    {
      "midi": 47,
      "hit": false,
      "t": 28666.122000000007,
      "d": 395.82581250000294,
      "v": 71
    },
    {
      "midi": 54,
      "hit": false,
      "t": 28666.122000000007,
      "d": 413.18659375000425,
      "v": 66
    },
    {
      "midi": 59,
      "hit": false,
      "t": 28999.449000000008,
      "d": 309.02190625000367,
      "v": 71
    },
    {
      "midi": 63,
      "hit": false,
      "t": 28999.449000000008,
      "d": 329.85484375000306,
      "v": 74
    },
    {
      "midi": 66,
      "hit": false,
      "t": 28999.449000000008,
      "d": 364.5764062500057,
      "v": 74
    },
    {
      "midi": 56,
      "hit": false,
      "t": 29332.776000000013,
      "d": 659.7096875000025,
      "v": 68
    },
    {
      "midi": 52,
      "hit": false,
      "t": 29332.776000000013,
      "d": 673.5983125000021,
      "v": 76
    },
    {
      "midi": 59,
      "hit": false,
      "t": 29332.776000000016,
      "d": 829.8453437499993,
      "v": 74
    },
    {
      "midi": 64,
      "hit": false,
      "t": 29332.776000000016,
      "d": 833.317500000001,
      "v": 85
    },
    {
      "midi": 52,
      "hit": false,
      "t": 29332.776000000016,
      "d": 843.7339687500025,
      "v": 74
    },
    {
      "midi": 68,
      "hit": false,
      "t": 29332.776000000016,
      "d": 892.3441562500011,
      "v": 80
    },
    {
      "midi": 59,
      "hit": false,
      "t": 29999.430000000015,
      "d": 312.4940624999981,
      "v": 78
    },
    {
      "midi": 64,
      "hit": false,
      "t": 29999.430000000015,
      "d": 333.3269999999975,
      "v": 76
    },
    {
      "midi": 68,
      "hit": false,
      "t": 29999.430000000015,
      "d": 343.743468749999,
      "v": 82
    },
    {
      "midi": 51,
      "hit": false,
      "t": 30332.757000000012,
      "d": 746.5135937500017,
      "v": 71
    },
    {
      "midi": 54,
      "hit": false,
      "t": 30332.757000000012,
      "d": 746.5135937500017,
      "v": 80
    },
    {
      "midi": 63,
      "hit": false,
      "t": 30332.757000000016,
      "d": 902.760624999999,
      "v": 82
    },
    {
      "midi": 66,
      "hit": false,
      "t": 30332.757000000016,
      "d": 923.5935624999984,
      "v": 74
    },
    {
      "midi": 54,
      "hit": false,
      "t": 30332.757000000016,
      "d": 1253.4484062500014,
      "v": 80
    },
    {
      "midi": 59,
      "hit": false,
      "t": 30332.757000000016,
      "d": 1277.7535000000025,
      "v": 74
    },
    {
      "midi": 59,
      "hit": false,
      "t": 30999.411000000015,
      "d": 451.3803125000013,
      "v": 74
    },
    {
      "midi": 63,
      "hit": false,
      "t": 30999.411000000015,
      "d": 475.6854062500024,
      "v": 78
    },
    {
      "midi": 66,
      "hit": false,
      "t": 30999.411000000015,
      "d": 486.10187500000393,
      "v": 74
    },
    {
      "midi": 63,
      "hit": false,
      "t": 31332.738000000016,
      "d": 531.2399062500044,
      "v": 88
    },
    {
      "midi": 66,
      "hit": false,
      "t": 31332.738000000016,
      "d": 562.4893125000053,
      "v": 64
    },
    {
      "midi": 71,
      "hit": false,
      "t": 31332.738000000016,
      "d": 562.4893125000053,
      "v": 76
    },
    {
      "midi": 51,
      "hit": false,
      "t": 31332.738000000016,
      "d": 291.66112500000236,
      "v": 74
    },
    {
      "midi": 54,
      "hit": false,
      "t": 31332.738000000016,
      "d": 309.02190625000367,
      "v": 80
    },
    {
      "midi": 59,
      "hit": false,
      "t": 31666.06500000002,
      "d": 312.49406250000175,
      "v": 74
    },
    {
      "midi": 63,
      "hit": false,
      "t": 31666.06500000002,
      "d": 322.91053125000326,
      "v": 74
    },
    {
      "midi": 66,
      "hit": false,
      "t": 31666.06500000002,
      "d": 371.52071875000547,
      "v": 74
    },
    {
      "midi": 68,
      "hit": false,
      "t": 31999.39200000002,
      "d": 739.5692812499983,
      "v": 73
    },
    {
      "midi": 64,
      "hit": false,
      "t": 31999.39200000002,
      "d": 743.0414375,
      "v": 80
    },
    {
      "midi": 56,
      "hit": false,
      "t": 31999.39200000002,
      "d": 756.9300624999996,
      "v": 71
    },
    {
      "midi": 61,
      "hit": false,
      "t": 31999.39200000002,
      "d": 777.762999999999,
      "v": 68
    },
    {
      "midi": 49,
      "hit": false,
      "t": 31999.392000000025,
      "d": 697.9034062500032,
      "v": 82
    },
    {
      "midi": 56,
      "hit": false,
      "t": 31999.392000000025,
      "d": 729.1528125000041,
      "v": 80
    },
    {
      "midi": 59,
      "hit": false,
      "t": 32666.046000000028,
      "d": 267.35603125000125,
      "v": 73
    },
    {
      "midi": 64,
      "hit": false,
      "t": 32666.046000000028,
      "d": 309.02190625000003,
      "v": 73
    },
    {
      "midi": 68,
      "hit": false,
      "t": 32666.046000000028,
      "d": 322.9105312499996,
      "v": 78
    },
    {
      "midi": 57,
      "hit": false,
      "t": 32999.37300000002,
      "d": 1298.586437500002,
      "v": 82
    },
    {
      "midi": 61,
      "hit": false,
      "t": 32999.37300000002,
      "d": 1315.9472187499996,
      "v": 80
    },
    {
      "midi": 64,
      "hit": false,
      "t": 32999.37300000002,
      "d": 1319.4193749999977,
      "v": 85
    },
    {
      "midi": 57,
      "hit": false,
      "t": 32999.37300000003,
      "d": 718.7363437500026,
      "v": 74
    },
    {
      "midi": 52,
      "hit": false,
      "t": 32999.37300000003,
      "d": 739.5692812500056,
      "v": 82
    },
    {
      "midi": 61,
      "hit": false,
      "t": 33666.02700000003,
      "d": 538.1842187500079,
      "v": 78
    },
    {
      "midi": 69,
      "hit": false,
      "t": 33666.02700000003,
      "d": 538.1842187500079,
      "v": 78
    },
    {
      "midi": 64,
      "hit": false,
      "t": 33666.02700000003,
      "d": 545.1285312500113,
      "v": 74
    },
    {
      "midi": 57,
      "hit": false,
      "t": 33999.354000000036,
      "d": 336.79915625000285,
      "v": 74
    },
    {
      "midi": 52,
      "hit": false,
      "t": 33999.354000000036,
      "d": 354.1599375000005,
      "v": 73
    },
    {
      "midi": 61,
      "hit": false,
      "t": 34332.68100000004,
      "d": 368.0485625000001,
      "v": 66
    },
    {
      "midi": 69,
      "hit": false,
      "t": 34332.68100000004,
      "d": 378.46503125000163,
      "v": 73
    },
    {
      "midi": 64,
      "hit": false,
      "t": 34332.68100000004,
      "d": 399.29796875000466,
      "v": 70
    },
    {
      "midi": 59,
      "hit": false,
      "t": 34666.008000000016,
      "d": 309.0219062499964,
      "v": 88
    },
    {
      "midi": 64,
      "hit": false,
      "t": 34666.008000000016,
      "d": 843.7339687499989,
      "v": 88
    },
    {
      "midi": 57,
      "hit": false,
      "t": 34666.008000000016,
      "d": 871.5112187499981,
      "v": 82
    },
    {
      "midi": 57,
      "hit": false,
      "t": 34666.00800000004,
      "d": 649.2932187500046,
      "v": 78
    },
    {
      "midi": 52,
      "hit": false,
      "t": 34666.00800000004,
      "d": 694.4312500000015,
      "v": 82
    },
    {
      "midi": 61,
      "hit": false,
      "t": 34999.335000000014,
      "d": 590.2665625000009,
      "v": 88
    },
    {
      "midi": 69,
      "hit": false,
      "t": 35332.66200000004,
      "d": 354.1599375000005,
      "v": 80
    },
    {
      "midi": 61,
      "hit": false,
      "t": 35332.66200000004,
      "d": 364.57640625000204,
      "v": 82
    },
    {
      "midi": 64,
      "hit": false,
      "t": 35332.66200000004,
      "d": 371.52071875000547,
      "v": 80
    },
    {
      "midi": 56,
      "hit": false,
      "t": 35665.989000000016,
      "d": 1277.753499999999,
      "v": 57
    },
    {
      "midi": 59,
      "hit": false,
      "t": 35665.989000000016,
      "d": 1277.753499999999,
      "v": 76
    },
    {
      "midi": 68,
      "hit": false,
      "t": 35665.989000000016,
      "d": 1291.6421249999985,
      "v": 80
    },
    {
      "midi": 64,
      "hit": false,
      "t": 35665.989000000016,
      "d": 1322.8915312499958,
      "v": 73
    },
    {
      "midi": 56,
      "hit": false,
      "t": 35665.98900000004,
      "d": 826.3731875000085,
      "v": 82
    },
    {
      "midi": 47,
      "hit": false,
      "t": 35665.98900000004,
      "d": 861.0947500000111,
      "v": 80
    },
    {
      "midi": 59,
      "hit": false,
      "t": 36332.64300000005,
      "d": 496.5183437500018,
      "v": 76
    },
    {
      "midi": 64,
      "hit": false,
      "t": 36332.64300000005,
      "d": 548.6006875000021,
      "v": 80
    },
    {
      "midi": 68,
      "hit": false,
      "t": 36332.64300000005,
      "d": 555.5450000000055,
      "v": 80
    },
    {
      "midi": 47,
      "hit": false,
      "t": 36665.97000000005,
      "d": 354.1599375000005,
      "v": 78
    },
    {
      "midi": 56,
      "hit": false,
      "t": 36665.97000000005,
      "d": 458.3246250000011,
      "v": 74
    },
    {
      "midi": 59,
      "hit": false,
      "t": 36999.29700000005,
      "d": 284.71681250000256,
      "v": 85
    },
    {
      "midi": 68,
      "hit": false,
      "t": 36999.29700000005,
      "d": 312.49406250000175,
      "v": 91
    },
    {
      "midi": 64,
      "hit": false,
      "t": 36999.29700000005,
      "d": 329.8548437499994,
      "v": 76
    },
    {
      "midi": 61,
      "hit": false,
      "t": 37332.62400000001,
      "d": 715.2641874999972,
      "v": 74
    },
    {
      "midi": 64,
      "hit": false,
      "t": 37332.62400000001,
      "d": 770.8186874999956,
      "v": 76
    },
    {
      "midi": 69,
      "hit": false,
      "t": 37332.62400000001,
      "d": 802.0680937499928,
      "v": 74
    },
    {
      "midi": 57,
      "hit": false,
      "t": 37332.62400000001,
      "d": 843.7339687499916,
      "v": 80
    },
    {
      "midi": 54,
      "hit": false,
      "t": 37332.62400000001,
      "d": 857.6225937499912,
      "v": 73
    },
    {
      "midi": 54,
      "hit": false,
      "t": 37332.62400000005,
      "d": 645.8210624999992,
      "v": 82
    },
    {
      "midi": 57,
      "hit": false,
      "t": 37332.62400000005,
      "d": 659.7096874999988,
      "v": 78
    },
    {
      "midi": 61,
      "hit": false,
      "t": 37999.27800000005,
      "d": 315.9662187499998,
      "v": 88
    },
    {
      "midi": 64,
      "hit": false,
      "t": 37999.27800000005,
      "d": 350.68778124999517,
      "v": 82
    },
    {
      "midi": 66,
      "hit": false,
      "t": 38332.605,
      "d": 902.7606250000026,
      "v": 78
    },
    {
      "midi": 63,
      "hit": false,
      "t": 38332.605,
      "d": 913.1770937500041,
      "v": 82
    },
    {
      "midi": 59,
      "hit": false,
      "t": 38332.605,
      "d": 1371.5017187500052,
      "v": 76
    },
    {
      "midi": 54,
      "hit": false,
      "t": 38332.605,
      "d": 1416.639750000002,
      "v": 80
    },
    {
      "midi": 59,
      "hit": false,
      "t": 38332.60500000005,
      "d": 805.5402499999982,
      "v": 80
    },
    {
      "midi": 54,
      "hit": false,
      "t": 38332.60500000005,
      "d": 819.4288749999978,
      "v": 80
    },
    {
      "midi": 63,
      "hit": false,
      "t": 38999.25900000004,
      "d": 541.6563750000059,
      "v": 88
    },
    {
      "midi": 66,
      "hit": false,
      "t": 38999.25900000004,
      "d": 552.0728437500075,
      "v": 82
    },
    {
      "midi": 61,
      "hit": false,
      "t": 39332.58600000001,
      "d": 295.1332812499968,
      "v": 88
    },
    {
      "midi": 66,
      "hit": false,
      "t": 39332.58600000001,
      "d": 569.4336249999978,
      "v": 95
    },
    {
      "midi": 59,
      "hit": false,
      "t": 39332.58600000005,
      "d": 399.29796875000466,
      "v": 62
    },
    {
      "midi": 54,
      "hit": false,
      "t": 39332.58600000005,
      "d": 437.49168750000536,
      "v": 59
    },
    {
      "midi": 63,
      "hit": false,
      "t": 39665.91300000001,
      "d": 239.57878124999843,
      "v": 74
    },
    {
      "midi": 63,
      "hit": false,
      "t": 39665.91300000005,
      "d": 173.60781249999854,
      "v": 80
    },
    {
      "midi": 66,
      "hit": false,
      "t": 39665.91300000005,
      "d": 187.49643749999814,
      "v": 78
    },
    {
      "midi": 59,
      "hit": false,
      "t": 39999.240000000005,
      "d": 854.1504375000004,
      "v": 76
    },
    {
      "midi": 68,
      "hit": false,
      "t": 39999.240000000005,
      "d": 871.5112187499981,
      "v": 91
    },
    {
      "midi": 64,
      "hit": false,
      "t": 39999.240000000005,
      "d": 881.9276874999996,
      "v": 71
    },
    {
      "midi": 56,
      "hit": false,
      "t": 39999.240000000005,
      "d": 892.3441562500011,
      "v": 74
    },
    {
      "midi": 56,
      "hit": false,
      "t": 39999.24000000005,
      "d": 677.0704687500038,
      "v": 78
    },
    {
      "midi": 52,
      "hit": false,
      "t": 39999.24000000005,
      "d": 694.4312500000015,
      "v": 82
    },
    {
      "midi": 59,
      "hit": false,
      "t": 40665.89400000005,
      "d": 350.68778124999517,
      "v": 70
    },
    {
      "midi": 68,
      "hit": false,
      "t": 40665.89400000005,
      "d": 361.1042499999967,
      "v": 67
    },
    {
      "midi": 64,
      "hit": false,
      "t": 40665.89400000005,
      "d": 364.57640624999476,
      "v": 76
    },
    {
      "midi": 63,
      "hit": false,
      "t": 40999.221000000005,
      "d": 1444.4170000000013,
      "v": 78
    },
    {
      "midi": 66,
      "hit": false,
      "t": 40999.221000000005,
      "d": 1461.777781249999,
      "v": 78
    },
    {
      "midi": 59,
      "hit": false,
      "t": 40999.221000000005,
      "d": 1472.1942500000005,
      "v": 73
    },
    {
      "midi": 54,
      "hit": false,
      "t": 40999.221000000005,
      "d": 1513.8601249999992,
      "v": 78
    },
    {
      "midi": 54,
      "hit": false,
      "t": 40999.22100000005,
      "d": 729.1528124999968,
      "v": 74
    },
    {
      "midi": 51,
      "hit": false,
      "t": 40999.22100000005,
      "d": 736.0971250000002,
      "v": 66
    },
    {
      "midi": 59,
      "hit": false,
      "t": 41665.875000000044,
      "d": 440.96384375000343,
      "v": 76
    },
    {
      "midi": 63,
      "hit": false,
      "t": 41665.875000000044,
      "d": 444.4360000000015,
      "v": 74
    },
    {
      "midi": 66,
      "hit": false,
      "t": 41665.875000000044,
      "d": 458.3246250000011,
      "v": 78
    },
    {
      "midi": 51,
      "hit": false,
      "t": 41999.20200000005,
      "d": 333.3269999999975,
      "v": 66
    },
    {
      "midi": 54,
      "hit": false,
      "t": 41999.20200000005,
      "d": 350.68778124999517,
      "v": 68
    },
    {
      "midi": 59,
      "hit": false,
      "t": 42332.529000000046,
      "d": 322.910531249996,
      "v": 68
    },
    {
      "midi": 63,
      "hit": false,
      "t": 42332.529000000046,
      "d": 336.7991562499956,
      "v": 64
    },
    {
      "midi": 66,
      "hit": false,
      "t": 42332.529000000046,
      "d": 371.5207187499982,
      "v": 67
    },
    {
      "midi": 64,
      "hit": false,
      "t": 42665.85600000001,
      "d": 888.872000000003,
      "v": 82
    },
    {
      "midi": 59,
      "hit": false,
      "t": 42665.85600000001,
      "d": 892.3441562500011,
      "v": 74
    },
    {
      "midi": 68,
      "hit": false,
      "t": 42665.85600000001,
      "d": 895.8163124999992,
      "v": 80
    },
    {
      "midi": 56,
      "hit": false,
      "t": 42665.85600000001,
      "d": 913.1770937499969,
      "v": 82
    },
    {
      "midi": 49,
      "hit": false,
      "t": 42665.85600000004,
      "d": 684.0147812499999,
      "v": 71
    },
    {
      "midi": 56,
      "hit": false,
      "t": 42665.85600000004,
      "d": 690.9590937500034,
      "v": 74
    },
    {
      "midi": 59,
      "hit": false,
      "t": 43332.510000000046,
      "d": 350.68778124999517,
      "v": 67
    },
    {
      "midi": 64,
      "hit": false,
      "t": 43332.510000000046,
      "d": 368.04856249999284,
      "v": 68
    },
    {
      "midi": 68,
      "hit": false,
      "t": 43332.510000000046,
      "d": 381.93718749999243,
      "v": 73
    },
    {
      "midi": 59,
      "hit": false,
      "t": 43665.83700000001,
      "d": 1322.891531250003,
      "v": 78
    },
    {
      "midi": 71,
      "hit": false,
      "t": 43665.83700000001,
      "d": 1402.7511250000025,
      "v": 78
    },
    {
      "midi": 64,
      "hit": false,
      "t": 43665.83700000001,
      "d": 1413.167593750004,
      "v": 85
    },
    {
      "midi": 68,
      "hit": false,
      "t": 43665.83700000001,
      "d": 1423.5840625000055,
      "v": 82
    },
    {
      "midi": 52,
      "hit": false,
      "t": 43665.83700000001,
      "d": 1447.8891562500066,
      "v": 74
    },
    {
      "midi": 56,
      "hit": false,
      "t": 43665.83700000004,
      "d": 718.7363437499953,
      "v": 74
    },
    {
      "midi": 47,
      "hit": false,
      "t": 43665.83700000004,
      "d": 729.1528124999968,
      "v": 78
    },
    {
      "midi": 59,
      "hit": false,
      "t": 44332.49100000004,
      "d": 399.29796875000466,
      "v": 71
    },
    {
      "midi": 64,
      "hit": false,
      "t": 44332.49100000004,
      "d": 423.60306250000576,
      "v": 70
    },
    {
      "midi": 68,
      "hit": false,
      "t": 44332.49100000004,
      "d": 430.5473750000092,
      "v": 68
    },
    {
      "midi": 56,
      "hit": false,
      "t": 44665.81800000004,
      "d": 392.3536562500012,
      "v": 68
    },
    {
      "midi": 47,
      "hit": false,
      "t": 44665.81800000004,
      "d": 430.5473750000019,
      "v": 76
    },
    {
      "midi": 59,
      "hit": false,
      "t": 44999.14500000005,
      "d": 305.5497499999983,
      "v": 67
    },
    {
      "midi": 68,
      "hit": false,
      "t": 44999.14500000005,
      "d": 312.49406250000175,
      "v": 80
    },
    {
      "midi": 64,
      "hit": false,
      "t": 44999.14500000005,
      "d": 319.4383750000052,
      "v": 70
    },
    {
      "midi": 57,
      "hit": false,
      "t": 45332.472000000016,
      "d": 815.9567187499997,
      "v": 74
    },
    {
      "midi": 61,
      "hit": false,
      "t": 45332.472000000016,
      "d": 819.4288749999978,
      "v": 73
    },
    {
      "midi": 69,
      "hit": false,
      "t": 45332.472000000016,
      "d": 840.2618125000008,
      "v": 80
    },
    {
      "midi": 64,
      "hit": false,
      "t": 45332.472000000016,
      "d": 850.6782812500023,
      "v": 78
    },
    {
      "midi": 57,
      "hit": false,
      "t": 45332.47200000005,
      "d": 739.5692812500056,
      "v": 78
    },
    {
      "midi": 52,
      "hit": false,
      "t": 45332.47200000005,
      "d": 746.513593750009,
      "v": 82
    },
    {
      "midi": 69,
      "hit": false,
      "t": 45999.126000000055,
      "d": 350.68778125000244,
      "v": 74
    },
    {
      "midi": 61,
      "hit": false,
      "t": 45999.126000000055,
      "d": 357.6320937500059,
      "v": 73
    },
    {
      "midi": 64,
      "hit": false,
      "t": 45999.126000000055,
      "d": 371.52071875000547,
      "v": 73
    },
    {
      "midi": 64,
      "hit": false,
      "t": 46332.453000000016,
      "d": 826.3731875000012,
      "v": 82
    },
    {
      "midi": 59,
      "hit": false,
      "t": 46332.453000000016,
      "d": 840.2618125000008,
      "v": 78
    },
    {
      "midi": 68,
      "hit": false,
      "t": 46332.453000000016,
      "d": 899.2884687499973,
      "v": 73
    },
    {
      "midi": 56,
      "hit": false,
      "t": 46332.45300000006,
      "d": 749.9857499999998,
      "v": 68
    },
    {
      "midi": 52,
      "hit": false,
      "t": 46332.45300000006,
      "d": 791.6516249999986,
      "v": 73
    },
    {
      "midi": 59,
      "hit": false,
      "t": 46999.10700000006,
      "d": 520.8234374999956,
      "v": 80
    },
    {
      "midi": 64,
      "hit": false,
      "t": 46999.10700000006,
      "d": 541.6563749999987,
      "v": 73
    },
    {
      "midi": 68,
      "hit": false,
      "t": 46999.10700000006,
      "d": 559.0171562499963,
      "v": 80
    },
    {
      "midi": 64,
      "hit": false,
      "t": 47332.434000000016,
      "d": 454.852468750003,
      "v": 78
    },
    {
      "midi": 59,
      "hit": false,
      "t": 47332.434000000016,
      "d": 468.7410937500026,
      "v": 80
    },
    {
      "midi": 56,
      "hit": false,
      "t": 47332.434000000016,
      "d": 520.8234375000029,
      "v": 82
    },
    {
      "midi": 56,
      "hit": false,
      "t": 47332.43400000006,
      "d": 378.46503124999435,
      "v": 66
    },
    {
      "midi": 52,
      "hit": false,
      "t": 47332.43400000006,
      "d": 381.93718749999243,
      "v": 66
    },
    {
      "midi": 59,
      "hit": false,
      "t": 47665.76100000006,
      "d": 298.6054374999949,
      "v": 70
    },
    {
      "midi": 64,
      "hit": false,
      "t": 47665.76100000006,
      "d": 340.27131250000093,
      "v": 67
    },
    {
      "midi": 68,
      "hit": false,
      "t": 47665.76100000006,
      "d": 350.68778125000244,
      "v": 71
    },
    {
      "midi": 61,
      "hit": false,
      "t": 47999.08800000002,
      "d": 868.0390625,
      "v": 82
    },
    {
      "midi": 54,
      "hit": false,
      "t": 47999.08800000002,
      "d": 902.7606250000026,
      "v": 78
    },
    {
      "midi": 57,
      "hit": false,
      "t": 47999.08800000002,
      "d": 909.704937500006,
      "v": 82
    },
    {
      "midi": 57,
      "hit": false,
      "t": 47999.088000000054,
      "d": 652.7653750000027,
      "v": 71
    },
    {
      "midi": 54,
      "hit": false,
      "t": 47999.088000000054,
      "d": 690.9590937500034,
      "v": 74
    },
    {
      "midi": 61,
      "hit": false,
      "t": 48665.74200000006,
      "d": 319.4383749999979,
      "v": 74
    },
    {
      "midi": 64,
      "hit": false,
      "t": 48665.74200000006,
      "d": 347.2156249999971,
      "v": 74
    },
    {
      "midi": 66,
      "hit": false,
      "t": 48999.069000000025,
      "d": 1406.2232812500006,
      "v": 78
    },
    {
      "midi": 63,
      "hit": false,
      "t": 48999.069000000025,
      "d": 1413.167593750004,
      "v": 82
    },
    {
      "midi": 59,
      "hit": false,
      "t": 48999.069000000025,
      "d": 1458.3056250000009,
      "v": 82
    },
    {
      "midi": 54,
      "hit": false,
      "t": 48999.069000000025,
      "d": 1510.3879687500012,
      "v": 82
    },
    {
      "midi": 54,
      "hit": false,
      "t": 48999.069000000054,
      "d": 736.0971250000002,
      "v": 68
    },
    {
      "midi": 47,
      "hit": false,
      "t": 48999.069000000054,
      "d": 739.5692812499983,
      "v": 70
    },
    {
      "midi": 59,
      "hit": false,
      "t": 49665.723000000056,
      "d": 562.4893124999944,
      "v": 74
    },
    {
      "midi": 63,
      "hit": false,
      "t": 49665.723000000056,
      "d": 576.377937499994,
      "v": 73
    },
    {
      "midi": 66,
      "hit": false,
      "t": 49665.723000000056,
      "d": 593.7387187499917,
      "v": 78
    },
    {
      "midi": 47,
      "hit": false,
      "t": 49999.050000000054,
      "d": 392.35365624999395,
      "v": 74
    },
    {
      "midi": 54,
      "hit": false,
      "t": 49999.050000000054,
      "d": 447.9081562499923,
      "v": 71
    },
    {
      "midi": 59,
      "hit": false,
      "t": 50332.37700000005,
      "d": 309.0219062499964,
      "v": 71
    },
    {
      "midi": 63,
      "hit": false,
      "t": 50332.37700000005,
      "d": 319.4383749999979,
      "v": 66
    },
    {
      "midi": 66,
      "hit": false,
      "t": 50332.37700000005,
      "d": 347.2156249999971,
      "v": 60
    },
    {
      "midi": 64,
      "hit": false,
      "t": 50665.70400000003,
      "d": 864.5669062500019,
      "v": 85
    },
    {
      "midi": 59,
      "hit": false,
      "t": 50665.70400000003,
      "d": 885.399843750005,
      "v": 85
    },
    {
      "midi": 52,
      "hit": false,
      "t": 50665.70400000003,
      "d": 895.8163125000065,
      "v": 80
    },
    {
      "midi": 68,
      "hit": false,
      "t": 50665.70400000003,
      "d": 913.1770937500041,
      "v": 80
    },
    {
      "midi": 56,
      "hit": false,
      "t": 50665.70400000005,
      "d": 736.0971250000002,
      "v": 66
    },
    {
      "midi": 52,
      "hit": false,
      "t": 50665.70400000005,
      "d": 767.3465312499975,
      "v": 67
    },
    {
      "midi": 59,
      "hit": false,
      "t": 51332.35800000005,
      "d": 354.1599375000005,
      "v": 74
    },
    {
      "midi": 64,
      "hit": false,
      "t": 51332.35800000005,
      "d": 364.57640625000204,
      "v": 70
    },
    {
      "midi": 68,
      "hit": false,
      "t": 51332.35800000005,
      "d": 381.9371874999997,
      "v": 73
    },
    {
      "midi": 63,
      "hit": false,
      "t": 51665.685000000034,
      "d": 895.8163124999992,
      "v": 80
    },
    {
      "midi": 66,
      "hit": false,
      "t": 51665.685000000034,
      "d": 916.6492500000022,
      "v": 78
    },
    {
      "midi": 54,
      "hit": false,
      "t": 51665.685000000034,
      "d": 1142.339406250001,
      "v": 73
    },
    {
      "midi": 59,
      "hit": false,
      "t": 51665.685000000034,
      "d": 1145.8115624999991,
      "v": 74
    },
    {
      "midi": 51,
      "hit": false,
      "t": 51665.68500000005,
      "d": 739.5692812500056,
      "v": 68
    },
    {
      "midi": 54,
      "hit": false,
      "t": 51665.68500000005,
      "d": 743.0414375000037,
      "v": 74
    },
    {
      "midi": 59,
      "hit": false,
      "t": 52332.33900000005,
      "d": 559.0171562500036,
      "v": 74
    },
    {
      "midi": 63,
      "hit": false,
      "t": 52332.33900000005,
      "d": 576.3779375000013,
      "v": 74
    },
    {
      "midi": 66,
      "hit": false,
      "t": 52332.33900000005,
      "d": 583.3222500000047,
      "v": 74
    },
    {
      "midi": 63,
      "hit": false,
      "t": 52665.666000000034,
      "d": 520.8234375000029,
      "v": 78
    },
    {
      "midi": 66,
      "hit": false,
      "t": 52665.666000000034,
      "d": 531.2399062500044,
      "v": 66
    },
    {
      "midi": 71,
      "hit": false,
      "t": 52665.666000000034,
      "d": 545.128531250004,
      "v": 74
    },
    {
      "midi": 59,
      "hit": false,
      "t": 52998.99300000005,
      "d": 329.8548437499994,
      "v": 68
    },
    {
      "midi": 63,
      "hit": false,
      "t": 52998.99300000005,
      "d": 357.6320937499986,
      "v": 56
    },
    {
      "midi": 66,
      "hit": false,
      "t": 52998.99300000005,
      "d": 364.57640625000204,
      "v": 62
    },
    {
      "midi": 61,
      "hit": false,
      "t": 53332.320000000036,
      "d": 809.0124062499963,
      "v": 73
    },
    {
      "midi": 56,
      "hit": false,
      "t": 53332.320000000036,
      "d": 829.8453437499993,
      "v": 78
    },
    {
      "midi": 64,
      "hit": false,
      "t": 53332.320000000036,
      "d": 843.7339687499989,
      "v": 78
    },
    {
      "midi": 68,
      "hit": false,
      "t": 53332.320000000036,
      "d": 847.206124999997,
      "v": 78
    },
    {
      "midi": 56,
      "hit": false,
      "t": 53332.32000000005,
      "d": 635.404593750005,
      "v": 74
    },
    {
      "midi": 49,
      "hit": false,
      "t": 53332.32000000005,
      "d": 684.0147812499999,
      "v": 71
    },
    {
      "midi": 59,
      "hit": false,
      "t": 53998.97400000005,
      "d": 399.2979687499974,
      "v": 73
    },
    {
      "midi": 64,
      "hit": false,
      "t": 53998.97400000005,
      "d": 402.77012499999546,
      "v": 71
    },
    {
      "midi": 68,
      "hit": false,
      "t": 53998.97400000005,
      "d": 427.07521874999657,
      "v": 78
    },
    {
      "midi": 56,
      "hit": false,
      "t": 54332.301000000036,
      "d": 1177.0609687499964,
      "v": 68
    },
    {
      "midi": 59,
      "hit": false,
      "t": 54332.301000000036,
      "d": 1177.0609687499964,
      "v": 78
    },
    {
      "midi": 68,
      "hit": false,
      "t": 54332.301000000036,
      "d": 1211.782531249999,
      "v": 71
    },
    {
      "midi": 64,
      "hit": false,
      "t": 54332.301000000036,
      "d": 1225.6711562499986,
      "v": 80
    },
    {
      "midi": 56,
      "hit": false,
      "t": 54332.30100000005,
      "d": 736.0971250000002,
      "v": 78
    },
    {
      "midi": 47,
      "hit": false,
      "t": 54332.30100000005,
      "d": 760.4022187500013,
      "v": 78
    },
    {
      "midi": 59,
      "hit": false,
      "t": 54998.95500000005,
      "d": 385.4093437499978,
      "v": 68
    },
    {
      "midi": 64,
      "hit": false,
      "t": 54998.95500000005,
      "d": 402.77012499999546,
      "v": 71
    },
    {
      "midi": 68,
      "hit": false,
      "t": 54998.95500000005,
      "d": 406.24228124999354,
      "v": 73
    },
    {
      "midi": 47,
      "hit": false,
      "t": 55332.28200000005,
      "d": 364.57640624999476,
      "v": 73
    },
    {
      "midi": 56,
      "hit": false,
      "t": 55332.28200000005,
      "d": 385.4093437499978,
      "v": 67
    },
    {
      "midi": 59,
      "hit": false,
      "t": 55665.60900000005,
      "d": 309.02190625000367,
      "v": 71
    },
    {
      "midi": 68,
      "hit": false,
      "t": 55665.60900000005,
      "d": 329.8548437500067,
      "v": 80
    },
    {
      "midi": 64,
      "hit": false,
      "t": 55665.60900000005,
      "d": 357.6320937500059,
      "v": 71
    },
    {
      "midi": 52,
      "hit": false,
      "t": 55998.93600000004,
      "d": 788.1794687500005,
      "v": 73
    },
    {
      "midi": 64,
      "hit": false,
      "t": 55998.93600000004,
      "d": 809.0124062500036,
      "v": 85
    },
    {
      "midi": 57,
      "hit": false,
      "t": 55998.93600000004,
      "d": 812.4845625000016,
      "v": 82
    },
    {
      "midi": 61,
      "hit": false,
      "t": 55998.93600000004,
      "d": 833.3175000000047,
      "v": 82
    },
    {
      "midi": 57,
      "hit": false,
      "t": 55998.93600000005,
      "d": 701.3755625000049,
      "v": 68
    },
    {
      "midi": 52,
      "hit": false,
      "t": 55998.93600000005,
      "d": 732.6249687500022,
      "v": 73
    },
    {
      "midi": 61,
      "hit": false,
      "t": 56665.590000000055,
      "d": 374.9928749999963,
      "v": 74
    },
    {
      "midi": 64,
      "hit": false,
      "t": 56665.590000000055,
      "d": 392.35365624999395,
      "v": 76
    },
    {
      "midi": 69,
      "hit": false,
      "t": 56665.590000000055,
      "d": 395.825812499992,
      "v": 76
    },
    {
      "midi": 59,
      "hit": false,
      "t": 56998.917000000045,
      "d": 840.2618125000008,
      "v": 82
    },
    {
      "midi": 64,
      "hit": false,
      "t": 56998.917000000045,
      "d": 847.2061250000042,
      "v": 78
    },
    {
      "midi": 52,
      "hit": false,
      "t": 56998.917000000045,
      "d": 1343.724468750006,
      "v": 76
    },
    {
      "midi": 56,
      "hit": false,
      "t": 56998.917000000045,
      "d": 1541.6373750000057,
      "v": 74
    },
    {
      "midi": 56,
      "hit": false,
      "t": 56998.91700000005,
      "d": 746.5135937499945,
      "v": 74
    },
    {
      "midi": 52,
      "hit": false,
      "t": 56998.91700000005,
      "d": 777.7629999999917,
      "v": 74
    },
    {
      "midi": 59,
      "hit": false,
      "t": 57665.57100000005,
      "d": 444.43599999999424,
      "v": 82
    },
    {
      "midi": 68,
      "hit": false,
      "t": 57665.57100000005,
      "d": 458.32462499999383,
      "v": 80
    },
    {
      "midi": 64,
      "hit": false,
      "t": 57665.57100000005,
      "d": 479.15756249999686,
      "v": 74
    },
    {
      "midi": 52,
      "hit": false,
      "t": 57998.898000000045,
      "d": 281.2446562499972,
      "v": 74
    },
    {
      "midi": 56,
      "hit": false,
      "t": 57998.898000000045,
      "d": 329.8548437499994,
      "v": 74
    },
    {
      "midi": 64,
      "hit": false,
      "t": 57998.89800000005,
      "d": 541.6563749999987,
      "v": 80
    },
    {
      "midi": 68,
      "hit": false,
      "t": 57998.89800000005,
      "d": 565.9614687499998,
      "v": 88
    },
    {
      "midi": 59,
      "hit": false,
      "t": 58332.22500000004,
      "d": 166.6635000000024,
      "v": 65
    },
    {
      "midi": 64,
      "hit": false,
      "t": 58332.22500000004,
      "d": 201.385062500005,
      "v": 73
    },
    {
      "midi": 68,
      "hit": false,
      "t": 58332.22500000004,
      "d": 204.85721875000309,
      "v": 80
    },
    {
      "midi": 61,
      "hit": false,
      "t": 58665.55200000005,
      "d": 829.8453437499993,
      "v": 71
    },
    {
      "midi": 69,
      "hit": false,
      "t": 58665.55200000005,
      "d": 833.3174999999974,
      "v": 66
    },
    {
      "midi": 64,
      "hit": false,
      "t": 58665.55200000005,
      "d": 850.678281249995,
      "v": 70
    },
    {
      "midi": 57,
      "hit": false,
      "t": 58665.55200000005,
      "d": 916.6492499999949,
      "v": 78
    },
    {
      "midi": 49,
      "hit": false,
      "t": 58665.55200000005,
      "d": 934.0100312499926,
      "v": 78
    },
    {
      "midi": 61,
      "hit": false,
      "t": 58665.552000000054,
      "d": 774.2908437500009,
      "v": 82
    },
    {
      "midi": 54,
      "hit": false,
      "t": 58665.552000000054,
      "d": 840.2618125000008,
      "v": 67
    },
    {
      "midi": 64,
      "hit": false,
      "t": 58665.552000000054,
      "d": 854.1504375000004,
      "v": 82
    },
    {
      "midi": 57,
      "hit": false,
      "t": 58665.552000000054,
      "d": 857.6225937499985,
      "v": 82
    },
    {
      "midi": 59,
      "hit": false,
      "t": 59665.53300000004,
      "d": 1236.0876250000001,
      "v": 76
    },
    {
      "midi": 54,
      "hit": false,
      "t": 59665.53300000004,
      "d": 1239.5597812499982,
      "v": 82
    },
    {
      "midi": 51,
      "hit": false,
      "t": 59665.53300000004,
      "d": 1246.5040937500016,
      "v": 64
    },
    {
      "midi": 63,
      "hit": false,
      "t": 59665.53300000004,
      "d": 1246.5040937500016,
      "v": 74
    },
    {
      "midi": 66,
      "hit": false,
      "t": 59665.53300000004,
      "d": 1267.3370312500047,
      "v": 74
    },
    {
      "midi": 63,
      "hit": false,
      "t": 59665.533000000054,
      "d": 1184.0052812499998,
      "v": 82
    },
    {
      "midi": 59,
      "hit": false,
      "t": 59665.533000000054,
      "d": 1190.9495937500033,
      "v": 82
    },
    {
      "midi": 54,
      "hit": false,
      "t": 59665.533000000054,
      "d": 1194.4217500000013,
      "v": 80
    },
    {
      "midi": 66,
      "hit": false,
      "t": 59665.533000000054,
      "d": 1201.3660625000048,
      "v": 80
    },
    {
      "midi": 52,
      "hit": false,
      "t": 61332.16800000004,
      "d": 624.9881250000035,
      "v": 80
    },
    {
      "midi": 56,
      "hit": false,
      "t": 61332.16800000004,
      "d": 649.2932187500046,
      "v": 80
    },
    {
      "midi": 68,
      "hit": false,
      "t": 61332.168000000056,
      "d": 868.0390625,
      "v": 82
    },
    {
      "midi": 52,
      "hit": false,
      "t": 61332.168000000056,
      "d": 874.9833750000034,
      "v": 74
    },
    {
      "midi": 64,
      "hit": false,
      "t": 61332.168000000056,
      "d": 878.4555312500015,
      "v": 88
    },
    {
      "midi": 59,
      "hit": false,
      "t": 61332.168000000056,
      "d": 909.7049374999988,
      "v": 76
    },
    {
      "midi": 59,
      "hit": false,
      "t": 61998.822000000044,
      "d": 333.3269999999975,
      "v": 80
    },
    {
      "midi": 64,
      "hit": false,
      "t": 61998.822000000044,
      "d": 347.2156249999971,
      "v": 80
    },
    {
      "midi": 68,
      "hit": false,
      "t": 61998.822000000044,
      "d": 347.2156249999971,
      "v": 68
    },
    {
      "midi": 57,
      "hit": false,
      "t": 62332.14900000004,
      "d": 805.5402500000055,
      "v": 78
    },
    {
      "midi": 54,
      "hit": false,
      "t": 62332.14900000004,
      "d": 826.3731875000085,
      "v": 78
    },
    {
      "midi": 54,
      "hit": false,
      "t": 62332.149000000056,
      "d": 1329.8358437499992,
      "v": 68
    },
    {
      "midi": 57,
      "hit": false,
      "t": 62332.149000000056,
      "d": 1350.6687812500022,
      "v": 82
    },
    {
      "midi": 61,
      "hit": false,
      "t": 62332.149000000056,
      "d": 1364.5574062500018,
      "v": 78
    },
    {
      "midi": 66,
      "hit": false,
      "t": 62332.149000000056,
      "d": 1388.862500000003,
      "v": 73
    },
    {
      "midi": 61,
      "hit": false,
      "t": 62998.80300000004,
      "d": 461.79678125000646,
      "v": 82
    },
    {
      "midi": 66,
      "hit": false,
      "t": 62998.80300000004,
      "d": 475.68540625000605,
      "v": 80
    },
    {
      "midi": 54,
      "hit": false,
      "t": 63332.13000000005,
      "d": 402.77012500000274,
      "v": 71
    },
    {
      "midi": 57,
      "hit": false,
      "t": 63332.13000000005,
      "d": 402.77012500000274,
      "v": 78
    },
    {
      "midi": 61,
      "hit": false,
      "t": 63665.45700000005,
      "d": 180.5521249999947,
      "v": 80
    },
    {
      "midi": 66,
      "hit": false,
      "t": 63665.45700000005,
      "d": 204.8572187499958,
      "v": 80
    },
    {
      "midi": 61,
      "hit": false,
      "t": 63998.78400000005,
      "d": 541.6563749999987,
      "v": 80
    },
    {
      "midi": 64,
      "hit": false,
      "t": 63998.78400000005,
      "d": 545.1285312499967,
      "v": 82
    },
    {
      "midi": 57,
      "hit": false,
      "t": 63998.78400000005,
      "d": 562.4893124999944,
      "v": 78
    },
    {
      "midi": 52,
      "hit": false,
      "t": 63998.78400000005,
      "d": 576.377937499994,
      "v": 76
    },
    {
      "midi": 64,
      "hit": false,
      "t": 63998.78400000006,
      "d": 868.0390625,
      "v": 85
    },
    {
      "midi": 61,
      "hit": false,
      "t": 63998.78400000006,
      "d": 913.1770937499969,
      "v": 88
    },
    {
      "midi": 57,
      "hit": false,
      "t": 63998.78400000006,
      "d": 923.5935624999984,
      "v": 88
    },
    {
      "midi": 52,
      "hit": false,
      "t": 63998.78400000006,
      "d": 954.8429687499956,
      "v": 82
    },
    {
      "midi": 64,
      "hit": false,
      "t": 64665.438000000046,
      "d": 249.99524999999994,
      "v": 78
    },
    {
      "midi": 57,
      "hit": false,
      "t": 64665.438000000046,
      "d": 256.9395625000034,
      "v": 85
    },
    {
      "midi": 52,
      "hit": false,
      "t": 64665.438000000046,
      "d": 260.41171875000146,
      "v": 61
    },
    {
      "midi": 61,
      "hit": false,
      "t": 64665.438000000046,
      "d": 288.18896875000064,
      "v": 73
    },
    {
      "midi": 59,
      "hit": false,
      "t": 64998.76500000004,
      "d": 552.0728437499929,
      "v": 82
    },
    {
      "midi": 64,
      "hit": false,
      "t": 64998.76500000004,
      "d": 586.7944062499882,
      "v": 85
    },
    {
      "midi": 56,
      "hit": false,
      "t": 64998.76500000004,
      "d": 621.5159687499836,
      "v": 78
    },
    {
      "midi": 52,
      "hit": false,
      "t": 64998.76500000004,
      "d": 656.2375312499789,
      "v": 65
    },
    {
      "midi": 59,
      "hit": false,
      "t": 64998.76500000005,
      "d": 802.0680937499928,
      "v": 91
    },
    {
      "midi": 68,
      "hit": false,
      "t": 64998.76500000005,
      "d": 826.3731874999867,
      "v": 88
    },
    {
      "midi": 64,
      "hit": false,
      "t": 64998.76500000005,
      "d": 857.6225937499912,
      "v": 82
    },
    {
      "midi": 68,
      "hit": false,
      "t": 65665.41900000002,
      "d": 291.6611249999987,
      "v": 82
    },
    {
      "midi": 64,
      "hit": false,
      "t": 65665.41900000002,
      "d": 361.10425000000396,
      "v": 82
    },
    {
      "midi": 59,
      "hit": false,
      "t": 65998.74600000003,
      "d": 506.93481249999604,
      "v": 80
    },
    {
      "midi": 54,
      "hit": false,
      "t": 65998.74600000003,
      "d": 534.7120624999952,
      "v": 88
    },
    {
      "midi": 63,
      "hit": false,
      "t": 65998.74600000003,
      "d": 583.3222499999974,
      "v": 88
    },
    {
      "midi": 66,
      "hit": false,
      "t": 65998.74600000003,
      "d": 611.0994999999966,
      "v": 82
    },
    {
      "midi": 59,
      "hit": false,
      "t": 65998.74600000004,
      "d": 472.2132500000007,
      "v": 85
    },
    {
      "midi": 63,
      "hit": false,
      "t": 65998.74600000004,
      "d": 482.6297187500022,
      "v": 82
    },
    {
      "midi": 66,
      "hit": false,
      "t": 65998.74600000004,
      "d": 503.46265625000524,
      "v": 82
    },
    {
      "midi": 52,
      "hit": false,
      "t": 66665.40000000002,
      "d": 694.4312499999942,
      "v": 78
    },
    {
      "midi": 56,
      "hit": false,
      "t": 66665.40000000002,
      "d": 718.736343749988,
      "v": 82
    },
    {
      "midi": 68,
      "hit": false,
      "t": 66665.40000000005,
      "d": 871.5112187500054,
      "v": 91
    },
    {
      "midi": 59,
      "hit": false,
      "t": 66665.40000000005,
      "d": 881.9276875000069,
      "v": 91
    },
    {
      "midi": 64,
      "hit": false,
      "t": 66665.40000000005,
      "d": 913.1770937500114,
      "v": 88
    },
    {
      "midi": 59,
      "hit": false,
      "t": 67332.05400000002,
      "d": 274.3003437499865,
      "v": 82
    },
    {
      "midi": 68,
      "hit": false,
      "t": 67332.05400000002,
      "d": 277.77249999999185,
      "v": 88
    },
    {
      "midi": 64,
      "hit": false,
      "t": 67332.05400000002,
      "d": 388.8814999999886,
      "v": 82
    },
    {
      "midi": 61,
      "hit": false,
      "t": 67665.38100000001,
      "d": 545.1285312499967,
      "v": 82
    },
    {
      "midi": 54,
      "hit": false,
      "t": 67665.38100000001,
      "d": 548.6006875000021,
      "v": 78
    },
    {
      "midi": 57,
      "hit": false,
      "t": 67665.38100000001,
      "d": 552.0728437500075,
      "v": 76
    },
    {
      "midi": 66,
      "hit": false,
      "t": 67665.38100000001,
      "d": 552.0728437500075,
      "v": 80
    },
    {
      "midi": 61,
      "hit": false,
      "t": 67665.38100000007,
      "d": 1395.806812499999,
      "v": 82
    },
    {
      "midi": 66,
      "hit": false,
      "t": 67665.38100000007,
      "d": 1402.7511249999952,
      "v": 80
    },
    {
      "midi": 57,
      "hit": false,
      "t": 67665.38100000007,
      "d": 1406.2232812500006,
      "v": 78
    },
    {
      "midi": 54,
      "hit": false,
      "t": 67665.38100000007,
      "d": 1451.3613124999974,
      "v": 80
    },
    {
      "midi": 61,
      "hit": false,
      "t": 68332.03500000002,
      "d": 361.10425000000396,
      "v": 82
    },
    {
      "midi": 66,
      "hit": false,
      "t": 68332.03500000002,
      "d": 361.10425000000396,
      "v": 88
    },
    {
      "midi": 57,
      "hit": false,
      "t": 68665.36200000002,
      "d": 434.01953125,
      "v": 80
    },
    {
      "midi": 54,
      "hit": false,
      "t": 68665.36200000002,
      "d": 444.4360000000015,
      "v": 82
    },
    {
      "midi": 61,
      "hit": false,
      "t": 68998.68900000003,
      "d": 184.02428124999278,
      "v": 82
    },
    {
      "midi": 66,
      "hit": false,
      "t": 68998.68900000003,
      "d": 243.0509374999965,
      "v": 80
    },
    {
      "midi": 61,
      "hit": false,
      "t": 69332.01600000002,
      "d": 538.1842187500006,
      "v": 82
    },
    {
      "midi": 64,
      "hit": false,
      "t": 69332.01600000002,
      "d": 541.6563750000059,
      "v": 82
    },
    {
      "midi": 57,
      "hit": false,
      "t": 69332.01600000002,
      "d": 548.6006875000021,
      "v": 80
    },
    {
      "midi": 52,
      "hit": false,
      "t": 69332.01600000002,
      "d": 555.5449999999983,
      "v": 76
    },
    {
      "midi": 61,
      "hit": false,
      "t": 69332.01600000006,
      "d": 531.2399062500044,
      "v": 91
    },
    {
      "midi": 64,
      "hit": false,
      "t": 69332.01600000006,
      "d": 545.1285312500113,
      "v": 91
    },
    {
      "midi": 57,
      "hit": false,
      "t": 69332.01600000006,
      "d": 850.6782812500023,
      "v": 78
    },
    {
      "midi": 52,
      "hit": false,
      "t": 69332.01600000006,
      "d": 909.704937500006,
      "v": 80
    },
    {
      "midi": 57,
      "hit": false,
      "t": 69998.67000000001,
      "d": 142.35840625000128,
      "v": 82
    },
    {
      "midi": 52,
      "hit": false,
      "t": 69998.67000000001,
      "d": 152.7748750000028,
      "v": 62
    },
    {
      "midi": 64,
      "hit": false,
      "t": 69998.67000000001,
      "d": 187.49643749999814,
      "v": 85
    },
    {
      "midi": 61,
      "hit": false,
      "t": 69998.67000000001,
      "d": 197.91290624999965,
      "v": 80
    },
    {
      "midi": 64,
      "hit": false,
      "t": 69998.67000000007,
      "d": 239.57878124999115,
      "v": 88
    },
    {
      "midi": 61,
      "hit": false,
      "t": 69998.67000000007,
      "d": 267.35603124999034,
      "v": 88
    },
    {
      "midi": 59,
      "hit": false,
      "t": 70331.99700000002,
      "d": 541.6563750000059,
      "v": 80
    },
    {
      "midi": 64,
      "hit": false,
      "t": 70331.99700000002,
      "d": 559.0171562500036,
      "v": 82
    },
    {
      "midi": 52,
      "hit": false,
      "t": 70331.99700000002,
      "d": 572.9057812500105,
      "v": 61
    },
    {
      "midi": 56,
      "hit": false,
      "t": 70331.99700000002,
      "d": 586.7944062500173,
      "v": 78
    },
    {
      "midi": 59,
      "hit": false,
      "t": 70331.99700000006,
      "d": 874.9833749999962,
      "v": 95
    },
    {
      "midi": 68,
      "hit": false,
      "t": 70331.99700000006,
      "d": 895.8163124999992,
      "v": 88
    },
    {
      "midi": 64,
      "hit": false,
      "t": 70331.99700000006,
      "d": 913.1770937499969,
      "v": 76
    },
    {
      "midi": 68,
      "hit": false,
      "t": 70998.65100000004,
      "d": 315.9662187500071,
      "v": 91
    },
    {
      "midi": 64,
      "hit": false,
      "t": 70998.65100000004,
      "d": 381.937187500007,
      "v": 88
    },
    {
      "midi": 59,
      "hit": false,
      "t": 71331.97800000005,
      "d": 513.8791250000068,
      "v": 78
    },
    {
      "midi": 54,
      "hit": false,
      "t": 71331.97800000005,
      "d": 538.1842187500006,
      "v": 80
    },
    {
      "midi": 63,
      "hit": false,
      "t": 71331.97800000005,
      "d": 545.1285312499967,
      "v": 80
    },
    {
      "midi": 66,
      "hit": false,
      "t": 71331.97800000005,
      "d": 569.4336249999906,
      "v": 78
    },
    {
      "midi": 59,
      "hit": false,
      "t": 71331.97800000006,
      "d": 538.1842187500006,
      "v": 91
    },
    {
      "midi": 63,
      "hit": false,
      "t": 71331.97800000006,
      "d": 552.0728437500075,
      "v": 91
    },
    {
      "midi": 66,
      "hit": false,
      "t": 71331.97800000006,
      "d": 572.9057812500105,
      "v": 91
    },
    {
      "midi": 52,
      "hit": false,
      "t": 71998.63200000004,
      "d": 631.9324374999997,
      "v": 80
    },
    {
      "midi": 56,
      "hit": false,
      "t": 71998.63200000004,
      "d": 638.8767499999958,
      "v": 82
    },
    {
      "midi": 59,
      "hit": false,
      "t": 71998.63200000007,
      "d": 868.0390625,
      "v": 98
    },
    {
      "midi": 68,
      "hit": false,
      "t": 71998.63200000007,
      "d": 874.9833749999962,
      "v": 95
    },
    {
      "midi": 64,
      "hit": false,
      "t": 71998.63200000007,
      "d": 878.4555312500015,
      "v": 88
    },
    {
      "midi": 59,
      "hit": false,
      "t": 72665.28600000004,
      "d": 291.6611249999987,
      "v": 82
    },
    {
      "midi": 68,
      "hit": false,
      "t": 72665.28600000004,
      "d": 305.5497500000056,
      "v": 88
    },
    {
      "midi": 64,
      "hit": false,
      "t": 72665.28600000004,
      "d": 406.2422812500008,
      "v": 88
    },
    {
      "midi": 61,
      "hit": false,
      "t": 72998.61300000004,
      "d": 562.4893124999944,
      "v": 78
    },
    {
      "midi": 57,
      "hit": false,
      "t": 72998.61300000004,
      "d": 572.9057812499959,
      "v": 82
    },
    {
      "midi": 54,
      "hit": false,
      "t": 72998.61300000004,
      "d": 579.8500937499921,
      "v": 80
    },
    {
      "midi": 66,
      "hit": false,
      "t": 72998.61300000004,
      "d": 618.0438124999928,
      "v": 73
    },
    {
      "midi": 54,
      "hit": false,
      "t": 72998.61300000007,
      "d": 1451.3613124999974,
      "v": 78
    },
    {
      "midi": 57,
      "hit": false,
      "t": 72998.61300000007,
      "d": 1454.8334687500028,
      "v": 91
    },
    {
      "midi": 66,
      "hit": false,
      "t": 72998.61300000007,
      "d": 1461.777781249999,
      "v": 80
    },
    {
      "midi": 61,
      "hit": false,
      "t": 72998.61300000007,
      "d": 1475.6664062500058,
      "v": 82
    },
    {
      "midi": 57,
      "hit": false,
      "t": 73665.26700000004,
      "d": 65.97096874999988,
      "v": 74
    },
    {
      "midi": 61,
      "hit": false,
      "t": 73665.26700000004,
      "d": 69.44312500000524,
      "v": 82
    },
    {
      "midi": 64,
      "hit": false,
      "t": 73665.26700000004,
      "d": 79.85959375000675,
      "v": 80
    },
    {
      "midi": 54,
      "hit": false,
      "t": 73665.26700000004,
      "d": 86.80390625000291,
      "v": 66
    },
    {
      "midi": 57,
      "hit": false,
      "t": 73998.59400000004,
      "d": 402.77012500001,
      "v": 88
    },
    {
      "midi": 54,
      "hit": false,
      "t": 73998.59400000004,
      "d": 409.71443750000617,
      "v": 88
    },
    {
      "midi": 61,
      "hit": false,
      "t": 73998.59400000004,
      "d": 472.2132500000007,
      "v": 74
    },
    {
      "midi": 64,
      "hit": false,
      "t": 73998.59400000004,
      "d": 475.68540625000605,
      "v": 74
    },
    {
      "midi": 66,
      "hit": false,
      "t": 74331.92100000005,
      "d": 208.32937500000116,
      "v": 73
    },
    {
      "midi": 54,
      "hit": false,
      "t": 74665.24800000005,
      "d": 715.2641874999972,
      "v": 88
    },
    {
      "midi": 59,
      "hit": false,
      "t": 74665.24800000005,
      "d": 715.2641874999972,
      "v": 74
    },
    {
      "midi": 63,
      "hit": false,
      "t": 74665.24800000008,
      "d": 902.7606249999953,
      "v": 91
    },
    {
      "midi": 66,
      "hit": false,
      "t": 74665.24800000008,
      "d": 927.0657187499892,
      "v": 88
    },
    {
      "midi": 59,
      "hit": false,
      "t": 74665.24800000008,
      "d": 930.5378749999945,
      "v": 78
    },
    {
      "midi": 54,
      "hit": false,
      "t": 74665.24800000008,
      "d": 944.4265000000014,
      "v": 78
    },
    {
      "midi": 63,
      "hit": false,
      "t": 75331.90200000005,
      "d": 284.71681250000256,
      "v": 88
    },
    {
      "midi": 66,
      "hit": false,
      "t": 75331.90200000005,
      "d": 333.3270000000048,
      "v": 80
    },
    {
      "midi": 64,
      "hit": false,
      "t": 75665.22900000005,
      "d": 534.7120624999952,
      "v": 85
    },
    {
      "midi": 68,
      "hit": false,
      "t": 75665.22900000005,
      "d": 597.2108749999898,
      "v": 91
    },
    {
      "midi": 56,
      "hit": false,
      "t": 75665.22900000005,
      "d": 763.8743749999994,
      "v": 80
    },
    {
      "midi": 52,
      "hit": false,
      "t": 75665.22900000005,
      "d": 770.8186874999956,
      "v": 78
    },
    {
      "midi": 52,
      "hit": false,
      "t": 75665.22900000008,
      "d": 1427.0562187500036,
      "v": 85
    },
    {
      "midi": 61,
      "hit": false,
      "t": 75665.22900000008,
      "d": 1461.777781249999,
      "v": 88
    },
    {
      "midi": 56,
      "hit": false,
      "t": 75665.22900000008,
      "d": 1479.1385624999966,
      "v": 91
    },
    {
      "midi": 64,
      "hit": false,
      "t": 75665.22900000008,
      "d": 1479.1385624999966,
      "v": 85
    },
    {
      "midi": 61,
      "hit": false,
      "t": 76331.88300000005,
      "d": 83.33174999999756,
      "v": 82
    },
    {
      "midi": 64,
      "hit": false,
      "t": 76331.88300000005,
      "d": 83.33174999999756,
      "v": 80
    },
    {
      "midi": 61,
      "hit": false,
      "t": 76665.21000000005,
      "d": 319.4383749999979,
      "v": 78
    },
    {
      "midi": 52,
      "hit": false,
      "t": 76665.21000000005,
      "d": 371.52071875000547,
      "v": 66
    },
    {
      "midi": 56,
      "hit": false,
      "t": 76665.21000000005,
      "d": 402.77012500001,
      "v": 73
    },
    {
      "midi": 64,
      "hit": false,
      "t": 76665.21000000005,
      "d": 621.5159687500127,
      "v": 71
    },
    {
      "midi": 59,
      "hit": false,
      "t": 76998.53700000005,
      "d": 270.82818750001024,
      "v": 76
    },
    {
      "midi": 54,
      "hit": false,
      "t": 77331.86400000006,
      "d": 777.7629999999917,
      "v": 91
    },
    {
      "midi": 57,
      "hit": false,
      "t": 77331.86400000006,
      "d": 781.2351562499971,
      "v": 91
    },
    {
      "midi": 61,
      "hit": false,
      "t": 77331.86400000007,
      "d": 892.3441562499938,
      "v": 88
    },
    {
      "midi": 64,
      "hit": false,
      "t": 77331.86400000007,
      "d": 902.7606249999953,
      "v": 85
    },
    {
      "midi": 54,
      "hit": false,
      "t": 77331.86400000007,
      "d": 927.0657187499892,
      "v": 82
    },
    {
      "midi": 57,
      "hit": false,
      "t": 77331.86400000007,
      "d": 927.0657187499892,
      "v": 95
    },
    {
      "midi": 61,
      "hit": false,
      "t": 77998.51800000005,
      "d": 864.5669062500092,
      "v": 88
    },
    {
      "midi": 64,
      "hit": false,
      "t": 77998.51800000005,
      "d": 874.9833750000107,
      "v": 85
    },
    {
      "midi": 61,
      "hit": false,
      "t": 78331.84500000006,
      "d": 1427.0562187500036,
      "v": 91
    },
    {
      "midi": 57,
      "hit": false,
      "t": 78331.84500000006,
      "d": 1434.0005312499998,
      "v": 91
    },
    {
      "midi": 54,
      "hit": false,
      "t": 78331.84500000006,
      "d": 1437.4726875000051,
      "v": 74
    },
    {
      "midi": 69,
      "hit": false,
      "t": 78331.84500000006,
      "d": 1437.4726875000051,
      "v": 82
    },
    {
      "midi": 64,
      "hit": false,
      "t": 78331.84500000006,
      "d": 1458.3056250000081,
      "v": 88
    },
    {
      "midi": 57,
      "hit": false,
      "t": 78331.84500000006,
      "d": 1399.278968750019,
      "v": 76
    },
    {
      "midi": 54,
      "hit": false,
      "t": 78331.84500000006,
      "d": 1437.4726875000197,
      "v": 78
    },
    {
      "midi": 61,
      "hit": false,
      "t": 78998.49900000007,
      "d": 336.7991562500101,
      "v": 88
    },
    {
      "midi": 64,
      "hit": false,
      "t": 78998.49900000007,
      "d": 725.6806562500133,
      "v": 82
    },
    {
      "midi": 59,
      "hit": false,
      "t": 79331.82600000007,
      "d": 350.68778125000244,
      "v": 85
    },
    {
      "midi": 61,
      "hit": false,
      "t": 79665.15300000008,
      "d": 343.7434687500063,
      "v": 88
    },
    {
      "midi": 69,
      "hit": false,
      "t": 79998.48000000007,
      "d": 833.3175000000047,
      "v": 82
    },
    {
      "midi": 61,
      "hit": false,
      "t": 79998.48000000007,
      "d": 854.1504375000077,
      "v": 88
    },
    {
      "midi": 64,
      "hit": false,
      "t": 79998.48000000007,
      "d": 854.1504375000077,
      "v": 80
    },
    {
      "midi": 57,
      "hit": false,
      "t": 79998.48000000007,
      "d": 909.704937500006,
      "v": 95
    },
    {
      "midi": 57,
      "hit": false,
      "t": 79998.48000000008,
      "d": 795.123781250004,
      "v": 91
    },
    {
      "midi": 52,
      "hit": false,
      "t": 79998.48000000008,
      "d": 836.78965625001,
      "v": 85
    },
    {
      "midi": 59,
      "hit": false,
      "t": 80331.80700000009,
      "d": 333.3270000000048,
      "v": 91
    },
    {
      "midi": 64,
      "hit": false,
      "t": 80331.80700000009,
      "d": 437.49168750000536,
      "v": 88
    },
    {
      "midi": 61,
      "hit": false,
      "t": 80665.1340000001,
      "d": 298.6054374999949,
      "v": 80
    },
    {
      "midi": 68,
      "hit": false,
      "t": 80998.46100000007,
      "d": 847.206124999997,
      "v": 88
    },
    {
      "midi": 59,
      "hit": false,
      "t": 80998.46100000007,
      "d": 857.6225937499985,
      "v": 95
    },
    {
      "midi": 64,
      "hit": false,
      "t": 80998.46100000007,
      "d": 881.9276874999923,
      "v": 82
    },
    {
      "midi": 68,
      "hit": false,
      "t": 80998.46100000008,
      "d": 559.0171562500036,
      "v": 88
    },
    {
      "midi": 59,
      "hit": false,
      "t": 80998.46100000008,
      "d": 565.9614687499998,
      "v": 85
    },
    {
      "midi": 64,
      "hit": false,
      "t": 80998.46100000008,
      "d": 579.8500937500066,
      "v": 88
    },
    {
      "midi": 59,
      "hit": false,
      "t": 81665.11500000009,
      "d": 243.0509374999965,
      "v": 82
    },
    {
      "midi": 68,
      "hit": false,
      "t": 81665.11500000009,
      "d": 256.9395625000034,
      "v": 80
    },
    {
      "midi": 64,
      "hit": false,
      "t": 81665.11500000009,
      "d": 291.6611249999987,
      "v": 80
    },
    {
      "midi": 63,
      "hit": false,
      "t": 81998.44200000005,
      "d": 329.8548437499994,
      "v": 91
    },
    {
      "midi": 66,
      "hit": false,
      "t": 81998.44200000005,
      "d": 329.8548437499994,
      "v": 88
    },
    {
      "midi": 59,
      "hit": false,
      "t": 81998.44200000005,
      "d": 361.10425000000396,
      "v": 88
    },
    {
      "midi": 59,
      "hit": false,
      "t": 81998.4420000001,
      "d": 440.96384374999616,
      "v": 82
    },
    {
      "midi": 63,
      "hit": false,
      "t": 81998.4420000001,
      "d": 447.9081562499923,
      "v": 82
    },
    {
      "midi": 66,
      "hit": false,
      "t": 81998.4420000001,
      "d": 451.3803124999977,
      "v": 80
    },
    {
      "midi": 59,
      "hit": false,
      "t": 82665.09600000009,
      "d": 315.9662187500071,
      "v": 82
    },
    {
      "midi": 52,
      "hit": false,
      "t": 82665.09600000009,
      "d": 694.4312500000087,
      "v": 68
    },
    {
      "midi": 68,
      "hit": false,
      "t": 82665.09600000009,
      "d": 788.1794687500078,
      "v": 91
    },
    {
      "midi": 56,
      "hit": false,
      "t": 82665.09600000009,
      "d": 791.6516250000132,
      "v": 80
    },
    {
      "midi": 47,
      "hit": false,
      "t": 82665.09600000009,
      "d": 2340.2333125000005,
      "v": 65
    },
    {
      "midi": 40,
      "hit": false,
      "t": 82665.09600000009,
      "d": 2385.371343750012,
      "v": 74
    },
    {
      "midi": 64,
      "hit": false,
      "t": 82998.4230000001,
      "d": 458.3246250000084,
      "v": 74
    },
    {
      "midi": 59,
      "hit": false,
      "t": 83331.7500000001,
      "d": 180.55212500000198,
      "v": 76
    },
    {
      "midi": 59,
      "hit": false,
      "t": 83665.0770000001,
      "d": 701.3755624999903,
      "v": 73
    },
    {
      "midi": 51,
      "hit": false,
      "t": 83665.0770000001,
      "d": 1361.0852499999892,
      "v": 73
    },
    {
      "midi": 66,
      "hit": false,
      "t": 83665.0770000001,
      "d": 1374.973874999996,
      "v": 91
    },
    {
      "midi": 54,
      "hit": false,
      "t": 83665.0770000001,
      "d": 1423.5840624999983,
      "v": 88
    },
    {
      "midi": 63,
      "hit": false,
      "t": 84331.7310000001,
      "d": 711.7920312500064,
      "v": 82
    },
    {
      "midi": 59,
      "hit": false,
      "t": 84998.3850000001,
      "d": 274.30034375000105,
      "v": 82
    },
    {
      "midi": 56,
      "hit": false,
      "t": 85331.7120000001,
      "d": 385.4093437499978,
      "v": 95
    },
    {
      "midi": 52,
      "hit": false,
      "t": 85331.7120000001,
      "d": 916.6492499999877,
      "v": 80
    },
    {
      "midi": 49,
      "hit": false,
      "t": 85331.7120000001,
      "d": 940.9543437499815,
      "v": 78
    },
    {
      "midi": 64,
      "hit": false,
      "t": 85331.7120000001,
      "d": 986.0923749999929,
      "v": 91
    },
    {
      "midi": 61,
      "hit": false,
      "t": 85665.0390000001,
      "d": 385.40934374998324,
      "v": 71
    },
    {
      "midi": 59,
      "hit": false,
      "t": 85998.3660000001,
      "d": 305.54974999999104,
      "v": 68
    },
    {
      "midi": 57,
      "hit": false,
      "t": 86331.6930000001,
      "d": 1072.8962812499958,
      "v": 88
    },
    {
      "midi": 45,
      "hit": false,
      "t": 86331.6930000001,
      "d": 1086.7849062500027,
      "v": 85
    },
    {
      "midi": 52,
      "hit": false,
      "t": 86331.6930000001,
      "d": 1086.7849062500027,
      "v": 78
    },
    {
      "midi": 61,
      "hit": false,
      "t": 86331.6930000001,
      "d": 1090.257062500008,
      "v": 82
    },
    {
      "midi": 64,
      "hit": false,
      "t": 86331.6930000001,
      "d": 1100.6735312500095,
      "v": 91
    },
    {
      "midi": 64,
      "hit": false,
      "t": 87331.674,
      "d": 395.8258124999993,
      "v": 71
    },
    {
      "midi": 66,
      "hit": false,
      "t": 87665.001,
      "d": 357.63209374998405,
      "v": 80
    },
    {
      "midi": 68,
      "hit": false,
      "t": 87998.328,
      "d": 1031.2304062500043,
      "v": 74
    },
    {
      "midi": 59,
      "hit": false,
      "t": 87998.32800000011,
      "d": 315.9662187500071,
      "v": 82
    },
    {
      "midi": 52,
      "hit": false,
      "t": 87998.32800000011,
      "d": 694.4312500000087,
      "v": 68
    },
    {
      "midi": 68,
      "hit": false,
      "t": 87998.32800000011,
      "d": 788.1794687500078,
      "v": 91
    },
    {
      "midi": 56,
      "hit": false,
      "t": 87998.32800000011,
      "d": 791.6516250000132,
      "v": 80
    },
    {
      "midi": 47,
      "hit": false,
      "t": 87998.32800000011,
      "d": 2340.2333125000005,
      "v": 65
    },
    {
      "midi": 40,
      "hit": false,
      "t": 87998.32800000011,
      "d": 2385.371343750012,
      "v": 74
    },
    {
      "midi": 64,
      "hit": false,
      "t": 88331.65500000012,
      "d": 458.3246250000084,
      "v": 74
    },
    {
      "midi": 59,
      "hit": false,
      "t": 88664.98200000012,
      "d": 180.55212500000198,
      "v": 76
    },
    {
      "midi": 66,
      "hit": false,
      "t": 88998.309,
      "d": 1666.6350000000093,
      "v": 82
    },
    {
      "midi": 59,
      "hit": false,
      "t": 88998.30900000012,
      "d": 701.3755624999903,
      "v": 73
    },
    {
      "midi": 51,
      "hit": false,
      "t": 88998.30900000012,
      "d": 1361.0852499999892,
      "v": 73
    },
    {
      "midi": 66,
      "hit": false,
      "t": 88998.30900000012,
      "d": 1374.973874999996,
      "v": 91
    },
    {
      "midi": 54,
      "hit": false,
      "t": 88998.30900000012,
      "d": 1423.5840624999983,
      "v": 88
    },
    {
      "midi": 63,
      "hit": false,
      "t": 89664.96300000012,
      "d": 711.7920312500064,
      "v": 82
    },
    {
      "midi": 59,
      "hit": false,
      "t": 90331.61700000011,
      "d": 274.30034375000105,
      "v": 82
    },
    {
      "midi": 64,
      "hit": false,
      "t": 90664.944,
      "d": 996.5088437499944,
      "v": 78
    },
    {
      "midi": 56,
      "hit": false,
      "t": 90664.94400000012,
      "d": 385.4093437499978,
      "v": 95
    },
    {
      "midi": 52,
      "hit": false,
      "t": 90664.94400000012,
      "d": 916.6492499999877,
      "v": 80
    },
    {
      "midi": 49,
      "hit": false,
      "t": 90664.94400000012,
      "d": 940.9543437499815,
      "v": 78
    },
    {
      "midi": 64,
      "hit": false,
      "t": 90664.94400000012,
      "d": 986.0923749999929,
      "v": 91
    },
    {
      "midi": 61,
      "hit": false,
      "t": 90998.27100000012,
      "d": 385.40934374998324,
      "v": 71
    },
    {
      "midi": 59,
      "hit": false,
      "t": 91331.59800000011,
      "d": 305.54974999999104,
      "v": 68
    },
    {
      "midi": 61,
      "hit": false,
      "t": 91664.925,
      "d": 1142.339406250001,
      "v": 68
    },
    {
      "midi": 57,
      "hit": false,
      "t": 91664.92500000012,
      "d": 1072.8962812499958,
      "v": 88
    },
    {
      "midi": 45,
      "hit": false,
      "t": 91664.92500000012,
      "d": 1086.7849062500027,
      "v": 85
    },
    {
      "midi": 52,
      "hit": false,
      "t": 91664.92500000012,
      "d": 1086.7849062500027,
      "v": 78
    },
    {
      "midi": 61,
      "hit": false,
      "t": 91664.92500000012,
      "d": 1090.257062500008,
      "v": 82
    },
    {
      "midi": 64,
      "hit": false,
      "t": 91664.92500000012,
      "d": 1100.6735312500095,
      "v": 91
    },
    {
      "midi": 59,
      "hit": false,
      "t": 93331.56000000006,
      "d": 854.1504374999931,
      "v": 76
    },
    {
      "midi": 68,
      "hit": false,
      "t": 93331.56000000006,
      "d": 871.5112187499908,
      "v": 91
    },
    {
      "midi": 64,
      "hit": false,
      "t": 93331.56000000006,
      "d": 881.9276874999923,
      "v": 71
    },
    {
      "midi": 56,
      "hit": false,
      "t": 93331.56000000006,
      "d": 892.3441562499938,
      "v": 74
    },
    {
      "midi": 56,
      "hit": false,
      "t": 93331.56000000013,
      "d": 677.0704687499965,
      "v": 78
    },
    {
      "midi": 52,
      "hit": false,
      "t": 93331.56000000013,
      "d": 694.4312499999942,
      "v": 82
    },
    {
      "midi": 59,
      "hit": false,
      "t": 93998.21400000012,
      "d": 350.68778125000244,
      "v": 70
    },
    {
      "midi": 68,
      "hit": false,
      "t": 93998.21400000012,
      "d": 361.10425000000396,
      "v": 67
    },
    {
      "midi": 64,
      "hit": false,
      "t": 93998.21400000012,
      "d": 364.5764062500093,
      "v": 76
    },
    {
      "midi": 63,
      "hit": false,
      "t": 94331.54100000006,
      "d": 1444.4170000000013,
      "v": 78
    },
    {
      "midi": 66,
      "hit": false,
      "t": 94331.54100000006,
      "d": 1461.777781249999,
      "v": 78
    },
    {
      "midi": 59,
      "hit": false,
      "t": 94331.54100000006,
      "d": 1472.1942500000005,
      "v": 73
    },
    {
      "midi": 54,
      "hit": false,
      "t": 94331.54100000006,
      "d": 1513.8601250000065,
      "v": 78
    },
    {
      "midi": 54,
      "hit": false,
      "t": 94331.54100000013,
      "d": 729.1528125000041,
      "v": 74
    },
    {
      "midi": 51,
      "hit": false,
      "t": 94331.54100000013,
      "d": 736.0971250000002,
      "v": 66
    },
    {
      "midi": 59,
      "hit": false,
      "t": 94998.19500000014,
      "d": 440.96384374999616,
      "v": 76
    },
    {
      "midi": 63,
      "hit": false,
      "t": 94998.19500000014,
      "d": 444.4360000000015,
      "v": 74
    },
    {
      "midi": 66,
      "hit": false,
      "t": 94998.19500000014,
      "d": 458.3246250000084,
      "v": 78
    },
    {
      "midi": 51,
      "hit": false,
      "t": 95331.52200000013,
      "d": 333.3270000000193,
      "v": 66
    },
    {
      "midi": 54,
      "hit": false,
      "t": 95331.52200000013,
      "d": 350.687781250017,
      "v": 68
    },
    {
      "midi": 59,
      "hit": false,
      "t": 95664.84900000015,
      "d": 322.91053125000326,
      "v": 68
    },
    {
      "midi": 63,
      "hit": false,
      "t": 95664.84900000015,
      "d": 336.7991562500101,
      "v": 64
    },
    {
      "midi": 66,
      "hit": false,
      "t": 95664.84900000015,
      "d": 371.52071875000547,
      "v": 67
    },
    {
      "midi": 64,
      "hit": false,
      "t": 95998.17600000006,
      "d": 888.872000000003,
      "v": 82
    },
    {
      "midi": 59,
      "hit": false,
      "t": 95998.17600000006,
      "d": 892.3441562500084,
      "v": 74
    },
    {
      "midi": 68,
      "hit": false,
      "t": 95998.17600000006,
      "d": 895.8163125000137,
      "v": 80
    },
    {
      "midi": 56,
      "hit": false,
      "t": 95998.17600000006,
      "d": 913.1770937500114,
      "v": 82
    },
    {
      "midi": 49,
      "hit": false,
      "t": 95998.17600000015,
      "d": 684.0147812499927,
      "v": 71
    },
    {
      "midi": 56,
      "hit": false,
      "t": 95998.17600000015,
      "d": 690.9590937499888,
      "v": 74
    },
    {
      "midi": 59,
      "hit": false,
      "t": 96664.83000000015,
      "d": 350.6877812499879,
      "v": 67
    },
    {
      "midi": 64,
      "hit": false,
      "t": 96664.83000000015,
      "d": 368.04856249998556,
      "v": 68
    },
    {
      "midi": 68,
      "hit": false,
      "t": 96664.83000000015,
      "d": 381.93718749999243,
      "v": 73
    },
    {
      "midi": 59,
      "hit": false,
      "t": 96998.15700000008,
      "d": 1322.891531250003,
      "v": 78
    },
    {
      "midi": 71,
      "hit": false,
      "t": 96998.15700000008,
      "d": 1402.7511250000098,
      "v": 78
    },
    {
      "midi": 64,
      "hit": false,
      "t": 96998.15700000008,
      "d": 1413.1675937500113,
      "v": 85
    },
    {
      "midi": 68,
      "hit": false,
      "t": 96998.15700000008,
      "d": 1423.5840625000128,
      "v": 82
    },
    {
      "midi": 52,
      "hit": false,
      "t": 96998.15700000008,
      "d": 1447.8891562500066,
      "v": 74
    },
    {
      "midi": 56,
      "hit": false,
      "t": 96998.15700000014,
      "d": 718.736343749988,
      "v": 74
    },
    {
      "midi": 47,
      "hit": false,
      "t": 96998.15700000014,
      "d": 729.1528124999895,
      "v": 78
    },
    {
      "midi": 59,
      "hit": false,
      "t": 97664.81100000013,
      "d": 399.2979687499901,
      "v": 71
    },
    {
      "midi": 64,
      "hit": false,
      "t": 97664.81100000013,
      "d": 423.60306249998393,
      "v": 70
    },
    {
      "midi": 68,
      "hit": false,
      "t": 97664.81100000013,
      "d": 430.5473749999801,
      "v": 68
    },
    {
      "midi": 56,
      "hit": false,
      "t": 97998.13800000012,
      "d": 392.35365624999395,
      "v": 68
    },
    {
      "midi": 47,
      "hit": false,
      "t": 97998.13800000012,
      "d": 430.54737499999464,
      "v": 76
    },
    {
      "midi": 59,
      "hit": false,
      "t": 98331.46500000011,
      "d": 305.5497500000056,
      "v": 67
    },
    {
      "midi": 68,
      "hit": false,
      "t": 98331.46500000011,
      "d": 312.49406250000175,
      "v": 80
    },
    {
      "midi": 64,
      "hit": false,
      "t": 98331.46500000011,
      "d": 319.4383749999979,
      "v": 70
    },
    {
      "midi": 57,
      "hit": false,
      "t": 98664.79200000009,
      "d": 815.956718750007,
      "v": 74
    },
    {
      "midi": 61,
      "hit": false,
      "t": 98664.79200000009,
      "d": 819.4288750000123,
      "v": 73
    },
    {
      "midi": 69,
      "hit": false,
      "t": 98664.79200000009,
      "d": 840.2618125000154,
      "v": 80
    },
    {
      "midi": 64,
      "hit": false,
      "t": 98664.79200000009,
      "d": 850.6782812500169,
      "v": 78
    },
    {
      "midi": 57,
      "hit": false,
      "t": 98664.79200000012,
      "d": 739.569281249991,
      "v": 78
    },
    {
      "midi": 52,
      "hit": false,
      "t": 98664.79200000012,
      "d": 746.5135937499872,
      "v": 82
    },
    {
      "midi": 69,
      "hit": false,
      "t": 99331.44600000011,
      "d": 350.6877812499879,
      "v": 74
    },
    {
      "midi": 61,
      "hit": false,
      "t": 99331.44600000011,
      "d": 357.63209374998405,
      "v": 73
    },
    {
      "midi": 64,
      "hit": false,
      "t": 99331.44600000011,
      "d": 371.5207187499909,
      "v": 73
    },
    {
      "midi": 64,
      "hit": false,
      "t": 99664.7730000001,
      "d": 826.373187499994,
      "v": 82
    },
    {
      "midi": 59,
      "hit": false,
      "t": 99664.7730000001,
      "d": 840.2618125000008,
      "v": 78
    },
    {
      "midi": 68,
      "hit": false,
      "t": 99664.7730000001,
      "d": 899.2884687500045,
      "v": 73
    },
    {
      "midi": 56,
      "hit": false,
      "t": 99664.7730000001,
      "d": 749.9857499999925,
      "v": 68
    },
    {
      "midi": 52,
      "hit": false,
      "t": 99664.7730000001,
      "d": 791.6516249999986,
      "v": 73
    },
    {
      "midi": 59,
      "hit": false,
      "t": 100331.4270000001,
      "d": 520.8234375000029,
      "v": 80
    },
    {
      "midi": 64,
      "hit": false,
      "t": 100331.4270000001,
      "d": 541.6563750000059,
      "v": 73
    },
    {
      "midi": 68,
      "hit": false,
      "t": 100331.4270000001,
      "d": 559.0171562500036,
      "v": 80
    },
    {
      "midi": 64,
      "hit": false,
      "t": 100664.7540000001,
      "d": 454.852468750003,
      "v": 78
    },
    {
      "midi": 59,
      "hit": false,
      "t": 100664.7540000001,
      "d": 468.7410937500099,
      "v": 80
    },
    {
      "midi": 56,
      "hit": false,
      "t": 100664.7540000001,
      "d": 520.8234375000029,
      "v": 82
    },
    {
      "midi": 56,
      "hit": false,
      "t": 100664.7540000001,
      "d": 378.46503125000163,
      "v": 66
    },
    {
      "midi": 52,
      "hit": false,
      "t": 100664.7540000001,
      "d": 381.937187500007,
      "v": 66
    },
    {
      "midi": 59,
      "hit": false,
      "t": 100998.08100000011,
      "d": 298.60543750000943,
      "v": 70
    },
    {
      "midi": 64,
      "hit": false,
      "t": 100998.08100000011,
      "d": 340.27131250000093,
      "v": 67
    },
    {
      "midi": 68,
      "hit": false,
      "t": 100998.08100000011,
      "d": 350.68778125000244,
      "v": 71
    },
    {
      "midi": 61,
      "hit": false,
      "t": 101331.40800000011,
      "d": 868.0390625,
      "v": 82
    },
    {
      "midi": 54,
      "hit": false,
      "t": 101331.40800000011,
      "d": 902.7606249999953,
      "v": 78
    },
    {
      "midi": 57,
      "hit": false,
      "t": 101331.40800000011,
      "d": 909.7049374999915,
      "v": 82
    },
    {
      "midi": 57,
      "hit": false,
      "t": 101331.40800000011,
      "d": 652.7653750000027,
      "v": 71
    },
    {
      "midi": 54,
      "hit": false,
      "t": 101331.40800000011,
      "d": 690.9590937500034,
      "v": 74
    },
    {
      "midi": 61,
      "hit": false,
      "t": 101998.06200000012,
      "d": 319.4383749999979,
      "v": 74
    },
    {
      "midi": 64,
      "hit": false,
      "t": 101998.06200000012,
      "d": 347.21562500001164,
      "v": 74
    },
    {
      "midi": 66,
      "hit": false,
      "t": 102331.3890000001,
      "d": 1406.2232812500006,
      "v": 78
    },
    {
      "midi": 63,
      "hit": false,
      "t": 102331.3890000001,
      "d": 1413.1675937499967,
      "v": 82
    },
    {
      "midi": 59,
      "hit": false,
      "t": 102331.3890000001,
      "d": 1458.3056249999936,
      "v": 82
    },
    {
      "midi": 54,
      "hit": false,
      "t": 102331.3890000001,
      "d": 1510.3879687499866,
      "v": 82
    },
    {
      "midi": 54,
      "hit": false,
      "t": 102331.38900000013,
      "d": 736.0971250000148,
      "v": 68
    },
    {
      "midi": 47,
      "hit": false,
      "t": 102331.38900000013,
      "d": 739.5692812500201,
      "v": 70
    },
    {
      "midi": 59,
      "hit": false,
      "t": 102998.04300000014,
      "d": 562.489312500009,
      "v": 74
    },
    {
      "midi": 63,
      "hit": false,
      "t": 102998.04300000014,
      "d": 576.3779375000158,
      "v": 73
    },
    {
      "midi": 66,
      "hit": false,
      "t": 102998.04300000014,
      "d": 593.7387187500135,
      "v": 78
    },
    {
      "midi": 47,
      "hit": false,
      "t": 103331.37000000014,
      "d": 392.3536562500085,
      "v": 74
    },
    {
      "midi": 54,
      "hit": false,
      "t": 103331.37000000014,
      "d": 447.90815625000687,
      "v": 71
    },
    {
      "midi": 59,
      "hit": false,
      "t": 103664.69700000015,
      "d": 309.0219062499964,
      "v": 71
    },
    {
      "midi": 63,
      "hit": false,
      "t": 103664.69700000015,
      "d": 319.4383749999979,
      "v": 66
    },
    {
      "midi": 66,
      "hit": false,
      "t": 103664.69700000015,
      "d": 347.21562500001164,
      "v": 60
    },
    {
      "midi": 64,
      "hit": false,
      "t": 103998.02400000008,
      "d": 864.5669062499946,
      "v": 85
    },
    {
      "midi": 59,
      "hit": false,
      "t": 103998.02400000008,
      "d": 885.3998437499977,
      "v": 85
    },
    {
      "midi": 52,
      "hit": false,
      "t": 103998.02400000008,
      "d": 895.8163124999992,
      "v": 80
    },
    {
      "midi": 68,
      "hit": false,
      "t": 103998.02400000008,
      "d": 913.1770937499969,
      "v": 80
    },
    {
      "midi": 56,
      "hit": false,
      "t": 103998.02400000015,
      "d": 736.0971250000148,
      "v": 66
    },
    {
      "midi": 52,
      "hit": false,
      "t": 103998.02400000015,
      "d": 767.3465312500193,
      "v": 67
    },
    {
      "midi": 59,
      "hit": false,
      "t": 104664.67800000016,
      "d": 354.1599375000078,
      "v": 74
    },
    {
      "midi": 64,
      "hit": false,
      "t": 104664.67800000016,
      "d": 364.5764062500093,
      "v": 70
    },
    {
      "midi": 68,
      "hit": false,
      "t": 104664.67800000016,
      "d": 381.937187500007,
      "v": 73
    },
    {
      "midi": 63,
      "hit": false,
      "t": 104998.00500000008,
      "d": 895.8163124999992,
      "v": 80
    },
    {
      "midi": 66,
      "hit": false,
      "t": 104998.00500000008,
      "d": 916.6492500000022,
      "v": 78
    },
    {
      "midi": 54,
      "hit": false,
      "t": 104998.00500000008,
      "d": 1142.339406250001,
      "v": 73
    },
    {
      "midi": 59,
      "hit": false,
      "t": 104998.00500000008,
      "d": 1145.8115625000064,
      "v": 74
    },
    {
      "midi": 51,
      "hit": false,
      "t": 104998.00500000016,
      "d": 739.569281249991,
      "v": 68
    },
    {
      "midi": 54,
      "hit": false,
      "t": 104998.00500000016,
      "d": 743.0414374999964,
      "v": 74
    },
    {
      "midi": 59,
      "hit": false,
      "t": 105664.65900000016,
      "d": 559.0171562500036,
      "v": 74
    },
    {
      "midi": 63,
      "hit": false,
      "t": 105664.65900000016,
      "d": 576.3779375000013,
      "v": 74
    },
    {
      "midi": 66,
      "hit": false,
      "t": 105664.65900000016,
      "d": 583.3222499999974,
      "v": 74
    },
    {
      "midi": 63,
      "hit": false,
      "t": 105997.98600000008,
      "d": 520.8234375000029,
      "v": 78
    },
    {
      "midi": 66,
      "hit": false,
      "t": 105997.98600000008,
      "d": 531.2399062500044,
      "v": 66
    },
    {
      "midi": 71,
      "hit": false,
      "t": 105997.98600000008,
      "d": 545.1285312500113,
      "v": 74
    },
    {
      "midi": 59,
      "hit": false,
      "t": 106331.31300000015,
      "d": 329.8548437499994,
      "v": 68
    },
    {
      "midi": 63,
      "hit": false,
      "t": 106331.31300000015,
      "d": 357.6320937499986,
      "v": 56
    },
    {
      "midi": 66,
      "hit": false,
      "t": 106331.31300000015,
      "d": 364.57640624999476,
      "v": 62
    },
    {
      "midi": 61,
      "hit": false,
      "t": 106664.64000000009,
      "d": 809.0124062499963,
      "v": 73
    },
    {
      "midi": 56,
      "hit": false,
      "t": 106664.64000000009,
      "d": 829.8453437499993,
      "v": 78
    },
    {
      "midi": 64,
      "hit": false,
      "t": 106664.64000000009,
      "d": 843.7339687500062,
      "v": 78
    },
    {
      "midi": 68,
      "hit": false,
      "t": 106664.64000000009,
      "d": 847.2061250000115,
      "v": 78
    },
    {
      "midi": 56,
      "hit": false,
      "t": 106664.64000000016,
      "d": 635.4045937499905,
      "v": 74
    },
    {
      "midi": 49,
      "hit": false,
      "t": 106664.64000000016,
      "d": 684.0147812499927,
      "v": 71
    },
    {
      "midi": 59,
      "hit": false,
      "t": 107331.29400000015,
      "d": 399.29796875000466,
      "v": 73
    },
    {
      "midi": 64,
      "hit": false,
      "t": 107331.29400000015,
      "d": 402.77012500001,
      "v": 71
    },
    {
      "midi": 68,
      "hit": false,
      "t": 107331.29400000015,
      "d": 427.07521875000384,
      "v": 78
    },
    {
      "midi": 56,
      "hit": false,
      "t": 107664.6210000001,
      "d": 1177.0609687499964,
      "v": 68
    },
    {
      "midi": 59,
      "hit": false,
      "t": 107664.6210000001,
      "d": 1177.0609687499964,
      "v": 78
    },
    {
      "midi": 68,
      "hit": false,
      "t": 107664.6210000001,
      "d": 1211.7825312499917,
      "v": 71
    },
    {
      "midi": 64,
      "hit": false,
      "t": 107664.6210000001,
      "d": 1225.6711562499986,
      "v": 80
    },
    {
      "midi": 56,
      "hit": false,
      "t": 107664.62100000016,
      "d": 736.0971250000002,
      "v": 78
    },
    {
      "midi": 47,
      "hit": false,
      "t": 107664.62100000016,
      "d": 760.4022187499941,
      "v": 78
    },
    {
      "midi": 59,
      "hit": false,
      "t": 108331.27500000015,
      "d": 385.4093437499978,
      "v": 68
    },
    {
      "midi": 64,
      "hit": false,
      "t": 108331.27500000015,
      "d": 402.77012499999546,
      "v": 71
    },
    {
      "midi": 68,
      "hit": false,
      "t": 108331.27500000015,
      "d": 406.2422812500008,
      "v": 73
    },
    {
      "midi": 47,
      "hit": false,
      "t": 108664.60200000016,
      "d": 364.57640624999476,
      "v": 73
    },
    {
      "midi": 56,
      "hit": false,
      "t": 108664.60200000016,
      "d": 385.4093437499978,
      "v": 67
    },
    {
      "midi": 59,
      "hit": false,
      "t": 108997.92900000015,
      "d": 309.02190625001094,
      "v": 71
    },
    {
      "midi": 68,
      "hit": false,
      "t": 108997.92900000015,
      "d": 329.85484375001397,
      "v": 80
    },
    {
      "midi": 64,
      "hit": false,
      "t": 108997.92900000015,
      "d": 357.63209375001315,
      "v": 71
    },
    {
      "midi": 52,
      "hit": false,
      "t": 109331.2560000001,
      "d": 788.1794687499932,
      "v": 73
    },
    {
      "midi": 64,
      "hit": false,
      "t": 109331.2560000001,
      "d": 809.0124062499963,
      "v": 85
    },
    {
      "midi": 57,
      "hit": false,
      "t": 109331.2560000001,
      "d": 812.4845625000016,
      "v": 82
    },
    {
      "midi": 61,
      "hit": false,
      "t": 109331.2560000001,
      "d": 833.3175000000047,
      "v": 82
    },
    {
      "midi": 57,
      "hit": false,
      "t": 109331.25600000017,
      "d": 701.3755624999903,
      "v": 68
    },
    {
      "midi": 52,
      "hit": false,
      "t": 109331.25600000017,
      "d": 732.6249687499949,
      "v": 73
    },
    {
      "midi": 61,
      "hit": false,
      "t": 109997.91000000016,
      "d": 374.9928750000108,
      "v": 74
    },
    {
      "midi": 64,
      "hit": false,
      "t": 109997.91000000016,
      "d": 392.3536562500085,
      "v": 76
    },
    {
      "midi": 69,
      "hit": false,
      "t": 109997.91000000016,
      "d": 395.82581250001385,
      "v": 76
    },
    {
      "midi": 59,
      "hit": false,
      "t": 110331.2370000001,
      "d": 840.2618125000008,
      "v": 82
    },
    {
      "midi": 64,
      "hit": false,
      "t": 110331.2370000001,
      "d": 847.206124999997,
      "v": 78
    },
    {
      "midi": 52,
      "hit": false,
      "t": 110331.2370000001,
      "d": 1343.724468750006,
      "v": 76
    },
    {
      "midi": 56,
      "hit": false,
      "t": 110331.2370000001,
      "d": 1541.6373750000057,
      "v": 74
    },
    {
      "midi": 56,
      "hit": false,
      "t": 110331.23700000017,
      "d": 746.5135937500163,
      "v": 74
    },
    {
      "midi": 52,
      "hit": false,
      "t": 110331.23700000017,
      "d": 777.7630000000208,
      "v": 74
    },
    {
      "midi": 59,
      "hit": false,
      "t": 110997.89100000018,
      "d": 444.4360000000015,
      "v": 82
    },
    {
      "midi": 68,
      "hit": false,
      "t": 110997.89100000018,
      "d": 458.3246250000084,
      "v": 80
    },
    {
      "midi": 64,
      "hit": false,
      "t": 110997.89100000018,
      "d": 479.1575625000114,
      "v": 74
    },
    {
      "midi": 64,
      "hit": false,
      "t": 111331.2180000001,
      "d": 541.6563750000059,
      "v": 80
    },
    {
      "midi": 68,
      "hit": false,
      "t": 111331.2180000001,
      "d": 565.9614687499998,
      "v": 88
    },
    {
      "midi": 52,
      "hit": false,
      "t": 111331.21800000018,
      "d": 281.24465625001176,
      "v": 74
    },
    {
      "midi": 56,
      "hit": false,
      "t": 111331.21800000018,
      "d": 329.85484375001397,
      "v": 74
    },
    {
      "midi": 59,
      "hit": false,
      "t": 111664.5450000002,
      "d": 166.6634999999951,
      "v": 65
    },
    {
      "midi": 64,
      "hit": false,
      "t": 111664.5450000002,
      "d": 201.38506249999045,
      "v": 73
    },
    {
      "midi": 68,
      "hit": false,
      "t": 111664.5450000002,
      "d": 204.8572187499958,
      "v": 80
    },
    {
      "midi": 61,
      "hit": false,
      "t": 111997.87200000009,
      "d": 774.2908437500009,
      "v": 82
    },
    {
      "midi": 54,
      "hit": false,
      "t": 111997.87200000009,
      "d": 840.2618125000008,
      "v": 67
    },
    {
      "midi": 64,
      "hit": false,
      "t": 111997.87200000009,
      "d": 854.1504375000077,
      "v": 82
    },
    {
      "midi": 57,
      "hit": false,
      "t": 111997.87200000009,
      "d": 857.622593750013,
      "v": 82
    },
    {
      "midi": 61,
      "hit": false,
      "t": 111997.87200000019,
      "d": 829.8453437499993,
      "v": 71
    },
    {
      "midi": 69,
      "hit": false,
      "t": 111997.87200000019,
      "d": 833.3175000000047,
      "v": 66
    },
    {
      "midi": 64,
      "hit": false,
      "t": 111997.87200000019,
      "d": 850.6782812500023,
      "v": 70
    },
    {
      "midi": 57,
      "hit": false,
      "t": 111997.87200000019,
      "d": 916.6492500000022,
      "v": 78
    },
    {
      "midi": 49,
      "hit": false,
      "t": 111997.87200000019,
      "d": 934.0100312499999,
      "v": 78
    },
    {
      "midi": 63,
      "hit": false,
      "t": 112997.8530000001,
      "d": 1184.005281250007,
      "v": 82
    },
    {
      "midi": 59,
      "hit": false,
      "t": 112997.8530000001,
      "d": 1190.9495937500033,
      "v": 82
    },
    {
      "midi": 54,
      "hit": false,
      "t": 112997.8530000001,
      "d": 1194.4217500000086,
      "v": 80
    },
    {
      "midi": 66,
      "hit": false,
      "t": 112997.8530000001,
      "d": 1201.3660625000048,
      "v": 80
    },
    {
      "midi": 59,
      "hit": false,
      "t": 112997.85300000019,
      "d": 1236.0876250000001,
      "v": 76
    },
    {
      "midi": 54,
      "hit": false,
      "t": 112997.85300000019,
      "d": 1239.5597812500055,
      "v": 82
    },
    {
      "midi": 51,
      "hit": false,
      "t": 112997.85300000019,
      "d": 1246.5040937500016,
      "v": 64
    },
    {
      "midi": 63,
      "hit": false,
      "t": 112997.85300000019,
      "d": 1246.5040937500016,
      "v": 74
    },
    {
      "midi": 66,
      "hit": false,
      "t": 112997.85300000019,
      "d": 1267.3370312500047,
      "v": 74
    },
    {
      "midi": 68,
      "hit": false,
      "t": 114664.48800000011,
      "d": 868.0390625,
      "v": 82
    },
    {
      "midi": 52,
      "hit": false,
      "t": 114664.48800000011,
      "d": 874.9833749999962,
      "v": 74
    },
    {
      "midi": 64,
      "hit": false,
      "t": 114664.48800000011,
      "d": 878.4555312500015,
      "v": 88
    },
    {
      "midi": 59,
      "hit": false,
      "t": 114664.48800000011,
      "d": 909.704937500006,
      "v": 76
    },
    {
      "midi": 52,
      "hit": false,
      "t": 114664.4880000002,
      "d": 624.9881250000035,
      "v": 80
    },
    {
      "midi": 56,
      "hit": false,
      "t": 114664.4880000002,
      "d": 649.2932187499973,
      "v": 80
    },
    {
      "midi": 59,
      "hit": false,
      "t": 115331.1420000002,
      "d": 333.3270000000048,
      "v": 80
    },
    {
      "midi": 64,
      "hit": false,
      "t": 115331.1420000002,
      "d": 347.21562500001164,
      "v": 80
    },
    {
      "midi": 68,
      "hit": false,
      "t": 115331.1420000002,
      "d": 347.21562500001164,
      "v": 68
    },
    {
      "midi": 54,
      "hit": false,
      "t": 115664.46900000011,
      "d": 1329.8358437499992,
      "v": 68
    },
    {
      "midi": 57,
      "hit": false,
      "t": 115664.46900000011,
      "d": 1350.6687812500022,
      "v": 82
    },
    {
      "midi": 61,
      "hit": false,
      "t": 115664.46900000011,
      "d": 1364.557406250009,
      "v": 78
    },
    {
      "midi": 66,
      "hit": false,
      "t": 115664.46900000011,
      "d": 1388.862500000003,
      "v": 73
    },
    {
      "midi": 57,
      "hit": false,
      "t": 115664.4690000002,
      "d": 805.5402500000055,
      "v": 78
    },
    {
      "midi": 54,
      "hit": false,
      "t": 115664.4690000002,
      "d": 826.3731875000085,
      "v": 78
    },
    {
      "midi": 61,
      "hit": false,
      "t": 116331.12300000021,
      "d": 461.7967812499992,
      "v": 82
    },
    {
      "midi": 66,
      "hit": false,
      "t": 116331.12300000021,
      "d": 475.68540625000605,
      "v": 80
    },
    {
      "midi": 54,
      "hit": false,
      "t": 116664.45000000022,
      "d": 402.77012500001,
      "v": 71
    },
    {
      "midi": 57,
      "hit": false,
      "t": 116664.45000000022,
      "d": 402.77012500001,
      "v": 78
    },
    {
      "midi": 61,
      "hit": false,
      "t": 116997.77700000022,
      "d": 180.55212500000198,
      "v": 80
    },
    {
      "midi": 66,
      "hit": false,
      "t": 116997.77700000022,
      "d": 204.8572187499958,
      "v": 80
    },
    {
      "midi": 64,
      "hit": false,
      "t": 117331.10400000012,
      "d": 868.0390625,
      "v": 85
    },
    {
      "midi": 61,
      "hit": false,
      "t": 117331.10400000012,
      "d": 913.1770937499969,
      "v": 88
    },
    {
      "midi": 57,
      "hit": false,
      "t": 117331.10400000012,
      "d": 923.5935624999984,
      "v": 88
    },
    {
      "midi": 52,
      "hit": false,
      "t": 117331.10400000012,
      "d": 954.8429687500029,
      "v": 82
    },
    {
      "midi": 61,
      "hit": false,
      "t": 117331.10400000021,
      "d": 541.6563750000059,
      "v": 80
    },
    {
      "midi": 64,
      "hit": false,
      "t": 117331.10400000021,
      "d": 545.1285312500113,
      "v": 82
    },
    {
      "midi": 57,
      "hit": false,
      "t": 117331.10400000021,
      "d": 562.489312500009,
      "v": 78
    },
    {
      "midi": 52,
      "hit": false,
      "t": 117331.10400000021,
      "d": 576.3779375000158,
      "v": 76
    },
    {
      "midi": 64,
      "hit": false,
      "t": 117997.75800000022,
      "d": 249.99525000000722,
      "v": 78
    },
    {
      "midi": 57,
      "hit": false,
      "t": 117997.75800000022,
      "d": 256.9395625000034,
      "v": 85
    },
    {
      "midi": 52,
      "hit": false,
      "t": 117997.75800000022,
      "d": 260.41171875000873,
      "v": 61
    },
    {
      "midi": 61,
      "hit": false,
      "t": 117997.75800000022,
      "d": 288.1889687500079,
      "v": 73
    },
    {
      "midi": 59,
      "hit": false,
      "t": 118331.08500000012,
      "d": 802.0680937500001,
      "v": 91
    },
    {
      "midi": 68,
      "hit": false,
      "t": 118331.08500000012,
      "d": 826.373187499994,
      "v": 88
    },
    {
      "midi": 64,
      "hit": false,
      "t": 118331.08500000012,
      "d": 857.6225937499985,
      "v": 82
    },
    {
      "midi": 59,
      "hit": false,
      "t": 118331.08500000022,
      "d": 552.0728437499929,
      "v": 82
    },
    {
      "midi": 64,
      "hit": false,
      "t": 118331.08500000022,
      "d": 586.7944062499882,
      "v": 85
    },
    {
      "midi": 56,
      "hit": false,
      "t": 118331.08500000022,
      "d": 621.5159687499836,
      "v": 78
    },
    {
      "midi": 52,
      "hit": false,
      "t": 118331.08500000022,
      "d": 656.2375312499789,
      "v": 65
    },
    {
      "midi": 68,
      "hit": false,
      "t": 118997.7390000002,
      "d": 291.6611249999987,
      "v": 82
    },
    {
      "midi": 64,
      "hit": false,
      "t": 118997.7390000002,
      "d": 361.10425000000396,
      "v": 82
    },
    {
      "midi": 59,
      "hit": false,
      "t": 119331.06600000012,
      "d": 472.2132500000007,
      "v": 85
    },
    {
      "midi": 63,
      "hit": false,
      "t": 119331.06600000012,
      "d": 482.6297187500022,
      "v": 82
    },
    {
      "midi": 66,
      "hit": false,
      "t": 119331.06600000012,
      "d": 503.46265625000524,
      "v": 82
    },
    {
      "midi": 59,
      "hit": false,
      "t": 119331.06600000021,
      "d": 506.93481249999604,
      "v": 80
    },
    {
      "midi": 54,
      "hit": false,
      "t": 119331.06600000021,
      "d": 534.7120624999952,
      "v": 88
    },
    {
      "midi": 63,
      "hit": false,
      "t": 119331.06600000021,
      "d": 583.3222499999974,
      "v": 88
    },
    {
      "midi": 66,
      "hit": false,
      "t": 119331.06600000021,
      "d": 611.0994999999966,
      "v": 82
    },
    {
      "midi": 68,
      "hit": false,
      "t": 119997.72000000013,
      "d": 871.5112187500054,
      "v": 91
    },
    {
      "midi": 59,
      "hit": false,
      "t": 119997.72000000013,
      "d": 881.9276875000069,
      "v": 91
    },
    {
      "midi": 64,
      "hit": false,
      "t": 119997.72000000013,
      "d": 913.1770937500114,
      "v": 88
    },
    {
      "midi": 52,
      "hit": false,
      "t": 119997.7200000002,
      "d": 694.4312499999942,
      "v": 78
    },
    {
      "midi": 56,
      "hit": false,
      "t": 119997.7200000002,
      "d": 718.736343749988,
      "v": 82
    },
    {
      "midi": 59,
      "hit": false,
      "t": 120664.3740000002,
      "d": 274.3003437499865,
      "v": 82
    },
    {
      "midi": 68,
      "hit": false,
      "t": 120664.3740000002,
      "d": 277.77249999999185,
      "v": 88
    },
    {
      "midi": 64,
      "hit": false,
      "t": 120664.3740000002,
      "d": 388.8814999999886,
      "v": 82
    },
    {
      "midi": 61,
      "hit": false,
      "t": 120997.70100000015,
      "d": 1395.806812499999,
      "v": 82
    },
    {
      "midi": 66,
      "hit": false,
      "t": 120997.70100000015,
      "d": 1402.7511249999952,
      "v": 80
    },
    {
      "midi": 57,
      "hit": false,
      "t": 120997.70100000015,
      "d": 1406.2232812500006,
      "v": 78
    },
    {
      "midi": 54,
      "hit": false,
      "t": 120997.70100000015,
      "d": 1451.3613124999974,
      "v": 80
    },
    {
      "midi": 61,
      "hit": false,
      "t": 120997.70100000019,
      "d": 545.1285312499967,
      "v": 82
    },
    {
      "midi": 54,
      "hit": false,
      "t": 120997.70100000019,
      "d": 548.6006875000021,
      "v": 78
    },
    {
      "midi": 57,
      "hit": false,
      "t": 120997.70100000019,
      "d": 552.0728437500075,
      "v": 76
    },
    {
      "midi": 66,
      "hit": false,
      "t": 120997.70100000019,
      "d": 552.0728437500075,
      "v": 80
    },
    {
      "midi": 61,
      "hit": false,
      "t": 121664.3550000002,
      "d": 361.10425000000396,
      "v": 82
    },
    {
      "midi": 66,
      "hit": false,
      "t": 121664.3550000002,
      "d": 361.10425000000396,
      "v": 88
    },
    {
      "midi": 57,
      "hit": false,
      "t": 121997.6820000002,
      "d": 434.01953125,
      "v": 80
    },
    {
      "midi": 54,
      "hit": false,
      "t": 121997.6820000002,
      "d": 444.4360000000015,
      "v": 82
    },
    {
      "midi": 61,
      "hit": false,
      "t": 122331.00900000021,
      "d": 184.02428124999278,
      "v": 82
    },
    {
      "midi": 66,
      "hit": false,
      "t": 122331.00900000021,
      "d": 243.0509374999965,
      "v": 80
    },
    {
      "midi": 61,
      "hit": false,
      "t": 122664.33600000014,
      "d": 531.2399062500044,
      "v": 91
    },
    {
      "midi": 64,
      "hit": false,
      "t": 122664.33600000014,
      "d": 545.1285312500113,
      "v": 91
    },
    {
      "midi": 57,
      "hit": false,
      "t": 122664.33600000014,
      "d": 850.6782812500023,
      "v": 78
    },
    {
      "midi": 52,
      "hit": false,
      "t": 122664.33600000014,
      "d": 909.704937500006,
      "v": 80
    },
    {
      "midi": 61,
      "hit": false,
      "t": 122664.3360000002,
      "d": 538.1842187500006,
      "v": 82
    },
    {
      "midi": 64,
      "hit": false,
      "t": 122664.3360000002,
      "d": 541.6563750000059,
      "v": 82
    },
    {
      "midi": 57,
      "hit": false,
      "t": 122664.3360000002,
      "d": 548.6006875000021,
      "v": 80
    },
    {
      "midi": 52,
      "hit": false,
      "t": 122664.3360000002,
      "d": 555.5449999999983,
      "v": 76
    },
    {
      "midi": 64,
      "hit": false,
      "t": 123330.99000000015,
      "d": 239.57878124999115,
      "v": 88
    },
    {
      "midi": 61,
      "hit": false,
      "t": 123330.99000000015,
      "d": 267.35603124999034,
      "v": 88
    },
    {
      "midi": 57,
      "hit": false,
      "t": 123330.9900000002,
      "d": 142.35840625000128,
      "v": 82
    },
    {
      "midi": 52,
      "hit": false,
      "t": 123330.9900000002,
      "d": 152.7748750000028,
      "v": 62
    },
    {
      "midi": 64,
      "hit": false,
      "t": 123330.9900000002,
      "d": 187.49643749999814,
      "v": 85
    },
    {
      "midi": 61,
      "hit": false,
      "t": 123330.9900000002,
      "d": 197.91290624999965,
      "v": 80
    },
    {
      "midi": 59,
      "hit": false,
      "t": 123664.31700000014,
      "d": 874.9833749999962,
      "v": 95
    },
    {
      "midi": 68,
      "hit": false,
      "t": 123664.31700000014,
      "d": 895.8163124999992,
      "v": 88
    },
    {
      "midi": 64,
      "hit": false,
      "t": 123664.31700000014,
      "d": 913.1770937499969,
      "v": 76
    },
    {
      "midi": 59,
      "hit": false,
      "t": 123664.3170000002,
      "d": 541.6563750000059,
      "v": 80
    },
    {
      "midi": 64,
      "hit": false,
      "t": 123664.3170000002,
      "d": 559.0171562500036,
      "v": 82
    },
    {
      "midi": 52,
      "hit": false,
      "t": 123664.3170000002,
      "d": 572.9057812500105,
      "v": 61
    },
    {
      "midi": 56,
      "hit": false,
      "t": 123664.3170000002,
      "d": 586.7944062500173,
      "v": 78
    },
    {
      "midi": 68,
      "hit": false,
      "t": 124330.97100000022,
      "d": 315.9662187500071,
      "v": 91
    },
    {
      "midi": 64,
      "hit": false,
      "t": 124330.97100000022,
      "d": 381.937187500007,
      "v": 88
    },
    {
      "midi": 59,
      "hit": false,
      "t": 124664.29800000014,
      "d": 538.1842187500006,
      "v": 91
    },
    {
      "midi": 63,
      "hit": false,
      "t": 124664.29800000014,
      "d": 552.0728437500075,
      "v": 91
    },
    {
      "midi": 66,
      "hit": false,
      "t": 124664.29800000014,
      "d": 572.9057812500105,
      "v": 91
    },
    {
      "midi": 59,
      "hit": false,
      "t": 124664.29800000023,
      "d": 513.8791250000068,
      "v": 78
    },
    {
      "midi": 54,
      "hit": false,
      "t": 124664.29800000023,
      "d": 538.1842187500006,
      "v": 80
    },
    {
      "midi": 63,
      "hit": false,
      "t": 124664.29800000023,
      "d": 545.1285312499967,
      "v": 80
    },
    {
      "midi": 66,
      "hit": false,
      "t": 124664.29800000023,
      "d": 569.4336249999906,
      "v": 78
    },
    {
      "midi": 59,
      "hit": false,
      "t": 125330.95200000015,
      "d": 868.0390625,
      "v": 98
    },
    {
      "midi": 68,
      "hit": false,
      "t": 125330.95200000015,
      "d": 874.9833749999962,
      "v": 95
    },
    {
      "midi": 64,
      "hit": false,
      "t": 125330.95200000015,
      "d": 878.4555312500015,
      "v": 88
    },
    {
      "midi": 52,
      "hit": false,
      "t": 125330.95200000022,
      "d": 631.9324374999997,
      "v": 80
    },
    {
      "midi": 56,
      "hit": false,
      "t": 125330.95200000022,
      "d": 638.8767499999958,
      "v": 82
    },
    {
      "midi": 59,
      "hit": false,
      "t": 125997.60600000022,
      "d": 291.6611249999987,
      "v": 82
    },
    {
      "midi": 68,
      "hit": false,
      "t": 125997.60600000022,
      "d": 305.5497500000056,
      "v": 88
    },
    {
      "midi": 64,
      "hit": false,
      "t": 125997.60600000022,
      "d": 406.2422812500008,
      "v": 88
    },
    {
      "midi": 54,
      "hit": false,
      "t": 126330.93300000015,
      "d": 1451.3613124999974,
      "v": 78
    },
    {
      "midi": 57,
      "hit": false,
      "t": 126330.93300000015,
      "d": 1454.8334687500028,
      "v": 91
    },
    {
      "midi": 66,
      "hit": false,
      "t": 126330.93300000015,
      "d": 1461.777781249999,
      "v": 80
    },
    {
      "midi": 61,
      "hit": false,
      "t": 126330.93300000015,
      "d": 1475.6664062500058,
      "v": 82
    },
    {
      "midi": 61,
      "hit": false,
      "t": 126330.93300000022,
      "d": 562.4893124999944,
      "v": 78
    },
    {
      "midi": 57,
      "hit": false,
      "t": 126330.93300000022,
      "d": 572.9057812499959,
      "v": 82
    },
    {
      "midi": 54,
      "hit": false,
      "t": 126330.93300000022,
      "d": 579.8500937499921,
      "v": 80
    },
    {
      "midi": 66,
      "hit": false,
      "t": 126330.93300000022,
      "d": 618.0438124999928,
      "v": 73
    },
    {
      "midi": 57,
      "hit": false,
      "t": 126997.58700000022,
      "d": 65.97096874999988,
      "v": 74
    },
    {
      "midi": 61,
      "hit": false,
      "t": 126997.58700000022,
      "d": 69.44312500000524,
      "v": 82
    },
    {
      "midi": 64,
      "hit": false,
      "t": 126997.58700000022,
      "d": 79.85959375000675,
      "v": 80
    },
    {
      "midi": 54,
      "hit": false,
      "t": 126997.58700000022,
      "d": 86.80390625000291,
      "v": 66
    },
    {
      "midi": 57,
      "hit": false,
      "t": 127330.91400000022,
      "d": 402.77012500001,
      "v": 88
    },
    {
      "midi": 54,
      "hit": false,
      "t": 127330.91400000022,
      "d": 409.71443750000617,
      "v": 88
    },
    {
      "midi": 61,
      "hit": false,
      "t": 127330.91400000022,
      "d": 472.2132500000007,
      "v": 74
    },
    {
      "midi": 64,
      "hit": false,
      "t": 127330.91400000022,
      "d": 475.68540625000605,
      "v": 74
    },
    {
      "midi": 66,
      "hit": false,
      "t": 127664.24100000023,
      "d": 208.32937500000116,
      "v": 73
    },
    {
      "midi": 63,
      "hit": false,
      "t": 127997.56800000016,
      "d": 902.7606249999953,
      "v": 91
    },
    {
      "midi": 66,
      "hit": false,
      "t": 127997.56800000016,
      "d": 927.0657187499892,
      "v": 88
    },
    {
      "midi": 59,
      "hit": false,
      "t": 127997.56800000016,
      "d": 930.5378749999945,
      "v": 78
    },
    {
      "midi": 54,
      "hit": false,
      "t": 127997.56800000016,
      "d": 944.4265000000014,
      "v": 78
    },
    {
      "midi": 54,
      "hit": false,
      "t": 127997.56800000023,
      "d": 715.2641874999972,
      "v": 88
    },
    {
      "midi": 59,
      "hit": false,
      "t": 127997.56800000023,
      "d": 715.2641874999972,
      "v": 74
    },
    {
      "midi": 63,
      "hit": false,
      "t": 128664.22200000023,
      "d": 284.71681250000256,
      "v": 88
    },
    {
      "midi": 66,
      "hit": false,
      "t": 128664.22200000023,
      "d": 333.3270000000048,
      "v": 80
    },
    {
      "midi": 52,
      "hit": false,
      "t": 128997.54900000016,
      "d": 1427.0562187500036,
      "v": 85
    },
    {
      "midi": 61,
      "hit": false,
      "t": 128997.54900000016,
      "d": 1461.777781249999,
      "v": 88
    },
    {
      "midi": 56,
      "hit": false,
      "t": 128997.54900000016,
      "d": 1479.1385624999966,
      "v": 91
    },
    {
      "midi": 64,
      "hit": false,
      "t": 128997.54900000016,
      "d": 1479.1385624999966,
      "v": 85
    },
    {
      "midi": 64,
      "hit": false,
      "t": 128997.54900000023,
      "d": 534.7120624999952,
      "v": 85
    },
    {
      "midi": 68,
      "hit": false,
      "t": 128997.54900000023,
      "d": 597.2108749999898,
      "v": 91
    },
    {
      "midi": 56,
      "hit": false,
      "t": 128997.54900000023,
      "d": 763.8743749999994,
      "v": 80
    },
    {
      "midi": 52,
      "hit": false,
      "t": 128997.54900000023,
      "d": 770.8186874999956,
      "v": 78
    },
    {
      "midi": 61,
      "hit": false,
      "t": 129664.20300000023,
      "d": 83.33174999999756,
      "v": 82
    },
    {
      "midi": 64,
      "hit": false,
      "t": 129664.20300000023,
      "d": 83.33174999999756,
      "v": 80
    },
    {
      "midi": 61,
      "hit": false,
      "t": 129997.53000000023,
      "d": 319.4383749999979,
      "v": 78
    },
    {
      "midi": 52,
      "hit": false,
      "t": 129997.53000000023,
      "d": 371.52071875000547,
      "v": 66
    },
    {
      "midi": 56,
      "hit": false,
      "t": 129997.53000000023,
      "d": 402.77012500001,
      "v": 73
    },
    {
      "midi": 64,
      "hit": false,
      "t": 129997.53000000023,
      "d": 621.5159687500127,
      "v": 71
    },
    {
      "midi": 59,
      "hit": false,
      "t": 130330.85700000024,
      "d": 270.82818750001024,
      "v": 76
    },
    {
      "midi": 61,
      "hit": false,
      "t": 130664.18400000015,
      "d": 892.3441562500084,
      "v": 88
    },
    {
      "midi": 64,
      "hit": false,
      "t": 130664.18400000015,
      "d": 902.7606249999953,
      "v": 85
    },
    {
      "midi": 54,
      "hit": false,
      "t": 130664.18400000015,
      "d": 927.0657187500037,
      "v": 82
    },
    {
      "midi": 57,
      "hit": false,
      "t": 130664.18400000015,
      "d": 927.0657187500037,
      "v": 95
    },
    {
      "midi": 54,
      "hit": false,
      "t": 130664.18400000024,
      "d": 777.7630000000063,
      "v": 91
    },
    {
      "midi": 57,
      "hit": false,
      "t": 130664.18400000024,
      "d": 781.2351562500116,
      "v": 91
    },
    {
      "midi": 61,
      "hit": false,
      "t": 131330.83800000025,
      "d": 864.5669062499946,
      "v": 88
    },
    {
      "midi": 64,
      "hit": false,
      "t": 131330.83800000025,
      "d": 874.9833749999816,
      "v": 85
    },
    {
      "midi": 61,
      "hit": false,
      "t": 131664.16500000015,
      "d": 1427.056218749989,
      "v": 91
    },
    {
      "midi": 57,
      "hit": false,
      "t": 131664.16500000015,
      "d": 1434.0005312499998,
      "v": 91
    },
    {
      "midi": 54,
      "hit": false,
      "t": 131664.16500000015,
      "d": 1437.4726875000051,
      "v": 74
    },
    {
      "midi": 69,
      "hit": false,
      "t": 131664.16500000015,
      "d": 1437.4726875000051,
      "v": 82
    },
    {
      "midi": 64,
      "hit": false,
      "t": 131664.16500000015,
      "d": 1458.3056250000081,
      "v": 88
    },
    {
      "midi": 57,
      "hit": false,
      "t": 131664.16500000024,
      "d": 1399.2789687500044,
      "v": 76
    },
    {
      "midi": 54,
      "hit": false,
      "t": 131664.16500000024,
      "d": 1437.4726875000051,
      "v": 78
    },
    {
      "midi": 61,
      "hit": false,
      "t": 132330.81900000022,
      "d": 336.7991562499956,
      "v": 88
    },
    {
      "midi": 64,
      "hit": false,
      "t": 132330.81900000022,
      "d": 725.6806562500133,
      "v": 82
    },
    {
      "midi": 59,
      "hit": false,
      "t": 132664.1460000002,
      "d": 350.687781250017,
      "v": 85
    },
    {
      "midi": 61,
      "hit": false,
      "t": 132997.47300000023,
      "d": 343.7434687500063,
      "v": 88
    },
    {
      "midi": 69,
      "hit": false,
      "t": 133330.80000000016,
      "d": 833.3175000000047,
      "v": 82
    },
    {
      "midi": 61,
      "hit": false,
      "t": 133330.80000000016,
      "d": 854.1504375000077,
      "v": 88
    },
    {
      "midi": 64,
      "hit": false,
      "t": 133330.80000000016,
      "d": 854.1504375000077,
      "v": 80
    },
    {
      "midi": 57,
      "hit": false,
      "t": 133330.80000000016,
      "d": 909.704937500006,
      "v": 95
    },
    {
      "midi": 57,
      "hit": false,
      "t": 133330.80000000025,
      "d": 795.1237812499749,
      "v": 91
    },
    {
      "midi": 52,
      "hit": false,
      "t": 133330.80000000025,
      "d": 836.7896562499809,
      "v": 85
    },
    {
      "midi": 59,
      "hit": false,
      "t": 133664.12700000024,
      "d": 333.3269999999902,
      "v": 91
    },
    {
      "midi": 64,
      "hit": false,
      "t": 133664.12700000024,
      "d": 437.49168749997625,
      "v": 88
    },
    {
      "midi": 61,
      "hit": false,
      "t": 133997.45400000023,
      "d": 298.6054374999949,
      "v": 80
    },
    {
      "midi": 68,
      "hit": false,
      "t": 134330.78100000016,
      "d": 847.206124999997,
      "v": 88
    },
    {
      "midi": 59,
      "hit": false,
      "t": 134330.78100000016,
      "d": 857.6225937499839,
      "v": 95
    },
    {
      "midi": 64,
      "hit": false,
      "t": 134330.78100000016,
      "d": 881.9276874999923,
      "v": 82
    },
    {
      "midi": 68,
      "hit": false,
      "t": 134330.78100000022,
      "d": 559.0171562499891,
      "v": 88
    },
    {
      "midi": 59,
      "hit": false,
      "t": 134330.78100000022,
      "d": 565.9614687499998,
      "v": 85
    },
    {
      "midi": 64,
      "hit": false,
      "t": 134330.78100000022,
      "d": 579.8500937499921,
      "v": 88
    },
    {
      "midi": 59,
      "hit": false,
      "t": 134997.4350000002,
      "d": 243.0509374999965,
      "v": 82
    },
    {
      "midi": 68,
      "hit": false,
      "t": 134997.4350000002,
      "d": 256.9395624999888,
      "v": 80
    },
    {
      "midi": 64,
      "hit": false,
      "t": 134997.4350000002,
      "d": 291.66112499998417,
      "v": 80
    },
    {
      "midi": 63,
      "hit": false,
      "t": 135330.76200000016,
      "d": 329.85484375001397,
      "v": 91
    },
    {
      "midi": 66,
      "hit": false,
      "t": 135330.76200000016,
      "d": 329.85484375001397,
      "v": 88
    },
    {
      "midi": 59,
      "hit": false,
      "t": 135330.76200000016,
      "d": 361.10425000000396,
      "v": 88
    },
    {
      "midi": 59,
      "hit": false,
      "t": 135330.7620000002,
      "d": 440.9638437500107,
      "v": 82
    },
    {
      "midi": 63,
      "hit": false,
      "t": 135330.7620000002,
      "d": 447.9081562500214,
      "v": 82
    },
    {
      "midi": 66,
      "hit": false,
      "t": 135330.7620000002,
      "d": 451.3803125000268,
      "v": 80
    },
    {
      "midi": 68,
      "hit": false,
      "t": 135997.41600000017,
      "d": 868.0390625,
      "v": 82
    },
    {
      "midi": 52,
      "hit": false,
      "t": 135997.41600000017,
      "d": 874.9833750000107,
      "v": 74
    },
    {
      "midi": 64,
      "hit": false,
      "t": 135997.41600000017,
      "d": 878.4555312500161,
      "v": 88
    },
    {
      "midi": 59,
      "hit": false,
      "t": 135997.41600000017,
      "d": 909.704937500006,
      "v": 76
    },
    {
      "midi": 52,
      "hit": false,
      "t": 135997.41600000023,
      "d": 624.9881250000035,
      "v": 80
    },
    {
      "midi": 56,
      "hit": false,
      "t": 135997.41600000023,
      "d": 649.2932187500119,
      "v": 80
    },
    {
      "midi": 59,
      "hit": false,
      "t": 136664.07000000024,
      "d": 333.3269999999902,
      "v": 80
    },
    {
      "midi": 64,
      "hit": false,
      "t": 136664.07000000024,
      "d": 347.21562499998254,
      "v": 80
    },
    {
      "midi": 68,
      "hit": false,
      "t": 136664.07000000024,
      "d": 347.21562499998254,
      "v": 68
    },
    {
      "midi": 54,
      "hit": false,
      "t": 136997.39700000017,
      "d": 1329.8358437500137,
      "v": 68
    },
    {
      "midi": 57,
      "hit": false,
      "t": 136997.39700000017,
      "d": 1350.6687812500168,
      "v": 82
    },
    {
      "midi": 61,
      "hit": false,
      "t": 136997.39700000017,
      "d": 1364.557406250009,
      "v": 78
    },
    {
      "midi": 66,
      "hit": false,
      "t": 136997.39700000017,
      "d": 1388.8625000000175,
      "v": 73
    },
    {
      "midi": 57,
      "hit": false,
      "t": 136997.39700000023,
      "d": 805.5402499999909,
      "v": 78
    },
    {
      "midi": 54,
      "hit": false,
      "t": 136997.39700000023,
      "d": 826.373187499994,
      "v": 78
    },
    {
      "midi": 61,
      "hit": false,
      "t": 137664.0510000002,
      "d": 461.79678125001374,
      "v": 82
    },
    {
      "midi": 66,
      "hit": false,
      "t": 137664.0510000002,
      "d": 475.68540625000605,
      "v": 80
    },
    {
      "midi": 54,
      "hit": false,
      "t": 137997.37800000023,
      "d": 402.7701249999809,
      "v": 71
    },
    {
      "midi": 57,
      "hit": false,
      "t": 137997.37800000023,
      "d": 402.7701249999809,
      "v": 78
    },
    {
      "midi": 61,
      "hit": false,
      "t": 138330.70500000022,
      "d": 180.55212499998743,
      "v": 80
    },
    {
      "midi": 66,
      "hit": false,
      "t": 138330.70500000022,
      "d": 204.8572187499958,
      "v": 80
    },
    {
      "midi": 64,
      "hit": false,
      "t": 138664.03200000018,
      "d": 868.0390625,
      "v": 85
    },
    {
      "midi": 61,
      "hit": false,
      "t": 138664.03200000018,
      "d": 913.1770937500114,
      "v": 88
    },
    {
      "midi": 57,
      "hit": false,
      "t": 138664.03200000018,
      "d": 923.5935624999984,
      "v": 88
    },
    {
      "midi": 52,
      "hit": false,
      "t": 138664.03200000018,
      "d": 954.8429687499884,
      "v": 82
    },
    {
      "midi": 61,
      "hit": false,
      "t": 138664.0320000002,
      "d": 541.6563749999914,
      "v": 80
    },
    {
      "midi": 64,
      "hit": false,
      "t": 138664.0320000002,
      "d": 545.1285312499967,
      "v": 82
    },
    {
      "midi": 57,
      "hit": false,
      "t": 138664.0320000002,
      "d": 562.4893124999944,
      "v": 78
    },
    {
      "midi": 52,
      "hit": false,
      "t": 138664.0320000002,
      "d": 576.3779374999867,
      "v": 76
    },
    {
      "midi": 64,
      "hit": false,
      "t": 139330.6860000002,
      "d": 249.99525000000722,
      "v": 78
    },
    {
      "midi": 57,
      "hit": false,
      "t": 139330.6860000002,
      "d": 256.9395625000179,
      "v": 85
    },
    {
      "midi": 52,
      "hit": false,
      "t": 139330.6860000002,
      "d": 260.4117187500233,
      "v": 61
    },
    {
      "midi": 61,
      "hit": false,
      "t": 139330.6860000002,
      "d": 288.188968750037,
      "v": 73
    },
    {
      "midi": 59,
      "hit": false,
      "t": 139664.01300000018,
      "d": 802.0680937499856,
      "v": 91
    },
    {
      "midi": 68,
      "hit": false,
      "t": 139664.01300000018,
      "d": 826.373187499994,
      "v": 88
    },
    {
      "midi": 64,
      "hit": false,
      "t": 139664.01300000018,
      "d": 857.6225937499839,
      "v": 82
    },
    {
      "midi": 59,
      "hit": false,
      "t": 139664.01300000024,
      "d": 552.0728437500075,
      "v": 82
    },
    {
      "midi": 64,
      "hit": false,
      "t": 139664.01300000024,
      "d": 586.7944062500028,
      "v": 85
    },
    {
      "midi": 56,
      "hit": false,
      "t": 139664.01300000024,
      "d": 621.5159687499981,
      "v": 78
    },
    {
      "midi": 52,
      "hit": false,
      "t": 139664.01300000024,
      "d": 656.2375312499935,
      "v": 65
    },
    {
      "midi": 68,
      "hit": false,
      "t": 140330.66700000022,
      "d": 291.66112500001327,
      "v": 82
    },
    {
      "midi": 64,
      "hit": false,
      "t": 140330.66700000022,
      "d": 361.10425000003306,
      "v": 82
    },
    {
      "midi": 59,
      "hit": false,
      "t": 140663.99400000015,
      "d": 472.2132500000007,
      "v": 85
    },
    {
      "midi": 63,
      "hit": false,
      "t": 140663.99400000015,
      "d": 482.62971874998766,
      "v": 82
    },
    {
      "midi": 66,
      "hit": false,
      "t": 140663.99400000015,
      "d": 503.4626562499907,
      "v": 82
    },
    {
      "midi": 59,
      "hit": false,
      "t": 140663.99400000024,
      "d": 506.93481250002515,
      "v": 80
    },
    {
      "midi": 54,
      "hit": false,
      "t": 140663.99400000024,
      "d": 534.7120625000389,
      "v": 88
    },
    {
      "midi": 63,
      "hit": false,
      "t": 140663.99400000024,
      "d": 583.3222500000265,
      "v": 88
    },
    {
      "midi": 66,
      "hit": false,
      "t": 140663.99400000024,
      "d": 611.0995000000403,
      "v": 82
    },
    {
      "midi": 68,
      "hit": false,
      "t": 141330.64800000013,
      "d": 871.5112187500054,
      "v": 91
    },
    {
      "midi": 59,
      "hit": false,
      "t": 141330.64800000013,
      "d": 881.9276874999923,
      "v": 91
    },
    {
      "midi": 64,
      "hit": false,
      "t": 141330.64800000013,
      "d": 913.1770937499823,
      "v": 88
    },
    {
      "midi": 52,
      "hit": false,
      "t": 141330.64800000028,
      "d": 694.4312500000233,
      "v": 78
    },
    {
      "midi": 56,
      "hit": false,
      "t": 141330.64800000028,
      "d": 718.7363437500317,
      "v": 82
    },
    {
      "midi": 59,
      "hit": false,
      "t": 141997.3020000003,
      "d": 274.3003437500156,
      "v": 82
    },
    {
      "midi": 68,
      "hit": false,
      "t": 141997.3020000003,
      "d": 277.77250000002095,
      "v": 88
    },
    {
      "midi": 64,
      "hit": false,
      "t": 141997.3020000003,
      "d": 388.8815000000177,
      "v": 82
    },
    {
      "midi": 61,
      "hit": false,
      "t": 142330.6290000001,
      "d": 1395.806812499999,
      "v": 82
    },
    {
      "midi": 66,
      "hit": false,
      "t": 142330.6290000001,
      "d": 1402.7511250000098,
      "v": 80
    },
    {
      "midi": 57,
      "hit": false,
      "t": 142330.6290000001,
      "d": 1406.2232812500151,
      "v": 78
    },
    {
      "midi": 54,
      "hit": false,
      "t": 142330.6290000001,
      "d": 1451.3613125000265,
      "v": 80
    },
    {
      "midi": 61,
      "hit": false,
      "t": 142330.6290000003,
      "d": 545.1285312499967,
      "v": 82
    },
    {
      "midi": 54,
      "hit": false,
      "t": 142330.6290000003,
      "d": 548.6006875000021,
      "v": 78
    },
    {
      "midi": 57,
      "hit": false,
      "t": 142330.6290000003,
      "d": 552.0728437500075,
      "v": 76
    },
    {
      "midi": 66,
      "hit": false,
      "t": 142330.6290000003,
      "d": 552.0728437500075,
      "v": 80
    },
    {
      "midi": 61,
      "hit": false,
      "t": 142997.28300000032,
      "d": 361.10425000000396,
      "v": 82
    },
    {
      "midi": 66,
      "hit": false,
      "t": 142997.28300000032,
      "d": 361.10425000000396,
      "v": 88
    },
    {
      "midi": 57,
      "hit": false,
      "t": 143330.6100000003,
      "d": 434.0195312500291,
      "v": 80
    },
    {
      "midi": 54,
      "hit": false,
      "t": 143330.6100000003,
      "d": 444.43600000001607,
      "v": 82
    },
    {
      "midi": 61,
      "hit": false,
      "t": 143663.93700000033,
      "d": 184.02428124999278,
      "v": 82
    },
    {
      "midi": 66,
      "hit": false,
      "t": 143663.93700000033,
      "d": 243.0509374999965,
      "v": 80
    },
    {
      "midi": 61,
      "hit": false,
      "t": 143997.26400000014,
      "d": 531.2399062500044,
      "v": 91
    },
    {
      "midi": 64,
      "hit": false,
      "t": 143997.26400000014,
      "d": 545.1285312499967,
      "v": 91
    },
    {
      "midi": 57,
      "hit": false,
      "t": 143997.26400000014,
      "d": 850.6782812500023,
      "v": 78
    },
    {
      "midi": 52,
      "hit": false,
      "t": 143997.26400000014,
      "d": 909.704937500006,
      "v": 80
    },
    {
      "midi": 61,
      "hit": false,
      "t": 143997.26400000032,
      "d": 538.184218749986,
      "v": 82
    },
    {
      "midi": 64,
      "hit": false,
      "t": 143997.26400000032,
      "d": 541.6563749999914,
      "v": 82
    },
    {
      "midi": 57,
      "hit": false,
      "t": 143997.26400000032,
      "d": 548.6006875000021,
      "v": 80
    },
    {
      "midi": 52,
      "hit": false,
      "t": 143997.26400000032,
      "d": 555.5450000000128,
      "v": 76
    },
    {
      "midi": 64,
      "hit": false,
      "t": 144663.91800000015,
      "d": 239.57878124999115,
      "v": 88
    },
    {
      "midi": 61,
      "hit": false,
      "t": 144663.91800000015,
      "d": 267.3560312500049,
      "v": 88
    },
    {
      "midi": 57,
      "hit": false,
      "t": 144663.91800000033,
      "d": 142.35840624998673,
      "v": 82
    },
    {
      "midi": 52,
      "hit": false,
      "t": 144663.91800000033,
      "d": 152.7748749999737,
      "v": 62
    },
    {
      "midi": 64,
      "hit": false,
      "t": 144663.91800000033,
      "d": 187.49643749996903,
      "v": 85
    },
    {
      "midi": 61,
      "hit": false,
      "t": 144663.91800000033,
      "d": 197.912906249956,
      "v": 80
    },
    {
      "midi": 59,
      "hit": false,
      "t": 144997.24500000017,
      "d": 874.9833750000107,
      "v": 95
    },
    {
      "midi": 68,
      "hit": false,
      "t": 144997.24500000017,
      "d": 895.8163125000137,
      "v": 88
    },
    {
      "midi": 64,
      "hit": false,
      "t": 144997.24500000017,
      "d": 913.1770937500114,
      "v": 76
    },
    {
      "midi": 59,
      "hit": false,
      "t": 144997.2450000003,
      "d": 541.6563749999914,
      "v": 80
    },
    {
      "midi": 64,
      "hit": false,
      "t": 144997.2450000003,
      "d": 559.0171562499891,
      "v": 82
    },
    {
      "midi": 52,
      "hit": false,
      "t": 144997.2450000003,
      "d": 572.9057812499814,
      "v": 61
    },
    {
      "midi": 56,
      "hit": false,
      "t": 144997.2450000003,
      "d": 586.7944062499737,
      "v": 78
    },
    {
      "midi": 68,
      "hit": false,
      "t": 145663.89900000027,
      "d": 315.96621874999255,
      "v": 91
    },
    {
      "midi": 64,
      "hit": false,
      "t": 145663.89900000027,
      "d": 381.9371874999779,
      "v": 88
    },
    {
      "midi": 59,
      "hit": false,
      "t": 145997.22600000017,
      "d": 538.184218749986,
      "v": 91
    },
    {
      "midi": 63,
      "hit": false,
      "t": 145997.22600000017,
      "d": 552.0728437499783,
      "v": 91
    },
    {
      "midi": 66,
      "hit": false,
      "t": 145997.22600000017,
      "d": 572.9057812499814,
      "v": 91
    },
    {
      "midi": 59,
      "hit": false,
      "t": 145997.22600000026,
      "d": 513.8791249999776,
      "v": 78
    },
    {
      "midi": 54,
      "hit": false,
      "t": 145997.22600000026,
      "d": 538.184218749986,
      "v": 80
    },
    {
      "midi": 63,
      "hit": false,
      "t": 145997.22600000026,
      "d": 545.1285312499967,
      "v": 80
    },
    {
      "midi": 66,
      "hit": false,
      "t": 145997.22600000026,
      "d": 569.4336250000051,
      "v": 78
    },
    {
      "midi": 59,
      "hit": false,
      "t": 146663.88000000015,
      "d": 868.0390625,
      "v": 98
    },
    {
      "midi": 68,
      "hit": false,
      "t": 146663.88000000015,
      "d": 874.9833750000107,
      "v": 95
    },
    {
      "midi": 64,
      "hit": false,
      "t": 146663.88000000015,
      "d": 878.4555312500161,
      "v": 88
    },
    {
      "midi": 52,
      "hit": false,
      "t": 146663.88000000027,
      "d": 631.9324375000142,
      "v": 80
    },
    {
      "midi": 56,
      "hit": false,
      "t": 146663.88000000027,
      "d": 638.8767500000249,
      "v": 82
    },
    {
      "midi": 59,
      "hit": false,
      "t": 147330.5340000003,
      "d": 291.66112500001327,
      "v": 82
    },
    {
      "midi": 68,
      "hit": false,
      "t": 147330.5340000003,
      "d": 305.5497500000056,
      "v": 88
    },
    {
      "midi": 64,
      "hit": false,
      "t": 147330.5340000003,
      "d": 406.24228125001537,
      "v": 88
    },
    {
      "midi": 54,
      "hit": false,
      "t": 147663.86100000018,
      "d": 1451.3613124999974,
      "v": 78
    },
    {
      "midi": 57,
      "hit": false,
      "t": 147663.86100000018,
      "d": 1454.8334687500028,
      "v": 91
    },
    {
      "midi": 66,
      "hit": false,
      "t": 147663.86100000018,
      "d": 1461.7777812500135,
      "v": 80
    },
    {
      "midi": 61,
      "hit": false,
      "t": 147663.86100000018,
      "d": 1475.6664062500058,
      "v": 82
    },
    {
      "midi": 61,
      "hit": false,
      "t": 147663.86100000032,
      "d": 562.4893124999944,
      "v": 78
    },
    {
      "midi": 57,
      "hit": false,
      "t": 147663.86100000032,
      "d": 572.9057812499814,
      "v": 82
    },
    {
      "midi": 54,
      "hit": false,
      "t": 147663.86100000032,
      "d": 579.8500937499921,
      "v": 80
    },
    {
      "midi": 66,
      "hit": false,
      "t": 147663.86100000032,
      "d": 618.0438124999928,
      "v": 73
    },
    {
      "midi": 57,
      "hit": false,
      "t": 148330.5150000003,
      "d": 65.97096875001444,
      "v": 74
    },
    {
      "midi": 61,
      "hit": false,
      "t": 148330.5150000003,
      "d": 69.44312500001979,
      "v": 82
    },
    {
      "midi": 64,
      "hit": false,
      "t": 148330.5150000003,
      "d": 79.85959375000675,
      "v": 80
    },
    {
      "midi": 54,
      "hit": false,
      "t": 148330.5150000003,
      "d": 86.80390625001746,
      "v": 66
    },
    {
      "midi": 57,
      "hit": false,
      "t": 148663.84200000032,
      "d": 402.7701249999809,
      "v": 88
    },
    {
      "midi": 54,
      "hit": false,
      "t": 148663.84200000032,
      "d": 409.7144374999916,
      "v": 88
    },
    {
      "midi": 61,
      "hit": false,
      "t": 148663.84200000032,
      "d": 472.2132500000007,
      "v": 74
    },
    {
      "midi": 64,
      "hit": false,
      "t": 148663.84200000032,
      "d": 475.68540625000605,
      "v": 74
    },
    {
      "midi": 66,
      "hit": false,
      "t": 148997.16900000031,
      "d": 208.32937500003027,
      "v": 73
    },
    {
      "midi": 63,
      "hit": false,
      "t": 149330.4960000002,
      "d": 902.7606249999953,
      "v": 91
    },
    {
      "midi": 66,
      "hit": false,
      "t": 149330.4960000002,
      "d": 927.0657187500037,
      "v": 88
    },
    {
      "midi": 59,
      "hit": false,
      "t": 149330.4960000002,
      "d": 930.5378750000091,
      "v": 78
    },
    {
      "midi": 54,
      "hit": false,
      "t": 149330.4960000002,
      "d": 944.4265000000014,
      "v": 78
    },
    {
      "midi": 54,
      "hit": false,
      "t": 149330.49600000033,
      "d": 715.2641874999972,
      "v": 88
    },
    {
      "midi": 59,
      "hit": false,
      "t": 149330.49600000033,
      "d": 715.2641874999972,
      "v": 74
    },
    {
      "midi": 63,
      "hit": false,
      "t": 149997.15000000034,
      "d": 284.71681249997346,
      "v": 88
    },
    {
      "midi": 66,
      "hit": false,
      "t": 149997.15000000034,
      "d": 333.3269999999611,
      "v": 80
    },
    {
      "midi": 52,
      "hit": false,
      "t": 150330.4770000002,
      "d": 1427.056218749989,
      "v": 85
    },
    {
      "midi": 61,
      "hit": false,
      "t": 150330.4770000002,
      "d": 1461.7777812499844,
      "v": 88
    },
    {
      "midi": 56,
      "hit": false,
      "t": 150330.4770000002,
      "d": 1479.138562499982,
      "v": 91
    },
    {
      "midi": 64,
      "hit": false,
      "t": 150330.4770000002,
      "d": 1479.138562499982,
      "v": 85
    },
    {
      "midi": 64,
      "hit": false,
      "t": 150330.4770000003,
      "d": 534.7120625000098,
      "v": 85
    },
    {
      "midi": 68,
      "hit": false,
      "t": 150330.4770000003,
      "d": 597.2108750000189,
      "v": 91
    },
    {
      "midi": 56,
      "hit": false,
      "t": 150330.4770000003,
      "d": 763.874375000014,
      "v": 80
    },
    {
      "midi": 52,
      "hit": false,
      "t": 150330.4770000003,
      "d": 770.8186875000247,
      "v": 78
    },
    {
      "midi": 61,
      "hit": false,
      "t": 150997.1310000003,
      "d": 83.33175000001211,
      "v": 82
    },
    {
      "midi": 64,
      "hit": false,
      "t": 150997.1310000003,
      "d": 83.33175000001211,
      "v": 80
    },
    {
      "midi": 61,
      "hit": false,
      "t": 151330.45800000033,
      "d": 319.4383749999979,
      "v": 78
    },
    {
      "midi": 52,
      "hit": false,
      "t": 151330.45800000033,
      "d": 371.5207187499909,
      "v": 66
    },
    {
      "midi": 56,
      "hit": false,
      "t": 151330.45800000033,
      "d": 402.7701249999809,
      "v": 73
    },
    {
      "midi": 64,
      "hit": false,
      "t": 151330.45800000033,
      "d": 621.515968749969,
      "v": 71
    },
    {
      "midi": 59,
      "hit": false,
      "t": 151663.78500000032,
      "d": 270.82818749998114,
      "v": 76
    },
    {
      "midi": 61,
      "hit": false,
      "t": 151997.11200000017,
      "d": 892.3441562500084,
      "v": 88
    },
    {
      "midi": 64,
      "hit": false,
      "t": 151997.11200000017,
      "d": 902.7606249999953,
      "v": 85
    },
    {
      "midi": 54,
      "hit": false,
      "t": 151997.11200000017,
      "d": 927.0657187500037,
      "v": 82
    },
    {
      "midi": 57,
      "hit": false,
      "t": 151997.11200000017,
      "d": 927.0657187500037,
      "v": 95
    },
    {
      "midi": 54,
      "hit": false,
      "t": 151997.1120000003,
      "d": 777.7630000000063,
      "v": 91
    },
    {
      "midi": 57,
      "hit": false,
      "t": 151997.1120000003,
      "d": 781.2351562500116,
      "v": 91
    },
    {
      "midi": 61,
      "hit": false,
      "t": 152663.76600000032,
      "d": 864.5669062499946,
      "v": 88
    },
    {
      "midi": 64,
      "hit": false,
      "t": 152663.76600000032,
      "d": 874.9833749999816,
      "v": 85
    },
    {
      "midi": 61,
      "hit": false,
      "t": 152997.09300000017,
      "d": 1427.056218749989,
      "v": 91
    },
    {
      "midi": 57,
      "hit": false,
      "t": 152997.09300000017,
      "d": 1434.0005312499998,
      "v": 91
    },
    {
      "midi": 54,
      "hit": false,
      "t": 152997.09300000017,
      "d": 1437.4726875000051,
      "v": 74
    },
    {
      "midi": 69,
      "hit": false,
      "t": 152997.09300000017,
      "d": 1437.4726875000051,
      "v": 82
    },
    {
      "midi": 64,
      "hit": false,
      "t": 152997.09300000017,
      "d": 1458.3056250000081,
      "v": 88
    },
    {
      "midi": 57,
      "hit": false,
      "t": 152997.0930000003,
      "d": 1399.2789687500044,
      "v": 76
    },
    {
      "midi": 54,
      "hit": false,
      "t": 152997.0930000003,
      "d": 1437.4726875000051,
      "v": 78
    },
    {
      "midi": 61,
      "hit": false,
      "t": 153663.7470000003,
      "d": 336.7991562499956,
      "v": 88
    },
    {
      "midi": 64,
      "hit": false,
      "t": 153663.7470000003,
      "d": 725.6806562500133,
      "v": 82
    },
    {
      "midi": 59,
      "hit": false,
      "t": 153997.07400000028,
      "d": 350.687781250017,
      "v": 85
    },
    {
      "midi": 61,
      "hit": false,
      "t": 154330.4010000003,
      "d": 343.7434687500063,
      "v": 88
    },
    {
      "midi": 69,
      "hit": false,
      "t": 154663.72800000018,
      "d": 833.3175000000047,
      "v": 82
    },
    {
      "midi": 61,
      "hit": false,
      "t": 154663.72800000018,
      "d": 854.1504375000077,
      "v": 88
    },
    {
      "midi": 64,
      "hit": false,
      "t": 154663.72800000018,
      "d": 854.1504375000077,
      "v": 80
    },
    {
      "midi": 57,
      "hit": false,
      "t": 154663.72800000018,
      "d": 909.704937500006,
      "v": 95
    },
    {
      "midi": 57,
      "hit": false,
      "t": 154663.72800000032,
      "d": 795.1237812499749,
      "v": 91
    },
    {
      "midi": 52,
      "hit": false,
      "t": 154663.72800000032,
      "d": 836.7896562499809,
      "v": 85
    },
    {
      "midi": 59,
      "hit": false,
      "t": 154997.0550000003,
      "d": 333.3269999999902,
      "v": 91
    },
    {
      "midi": 64,
      "hit": false,
      "t": 154997.0550000003,
      "d": 437.49168749997625,
      "v": 88
    },
    {
      "midi": 61,
      "hit": false,
      "t": 155330.3820000003,
      "d": 298.6054374999949,
      "v": 80
    },
    {
      "midi": 68,
      "hit": false,
      "t": 155663.70900000018,
      "d": 847.206124999997,
      "v": 88
    },
    {
      "midi": 59,
      "hit": false,
      "t": 155663.70900000018,
      "d": 857.6225937499839,
      "v": 95
    },
    {
      "midi": 64,
      "hit": false,
      "t": 155663.70900000018,
      "d": 881.9276874999923,
      "v": 82
    },
    {
      "midi": 68,
      "hit": false,
      "t": 155663.7090000003,
      "d": 559.0171562499891,
      "v": 88
    },
    {
      "midi": 59,
      "hit": false,
      "t": 155663.7090000003,
      "d": 565.9614687499998,
      "v": 85
    },
    {
      "midi": 64,
      "hit": false,
      "t": 155663.7090000003,
      "d": 579.8500937499921,
      "v": 88
    },
    {
      "midi": 59,
      "hit": false,
      "t": 156330.36300000027,
      "d": 243.0509374999965,
      "v": 82
    },
    {
      "midi": 68,
      "hit": false,
      "t": 156330.36300000027,
      "d": 256.9395624999888,
      "v": 80
    },
    {
      "midi": 64,
      "hit": false,
      "t": 156330.36300000027,
      "d": 291.66112499998417,
      "v": 80
    },
    {
      "midi": 63,
      "hit": false,
      "t": 156663.69000000018,
      "d": 329.85484375001397,
      "v": 91
    },
    {
      "midi": 66,
      "hit": false,
      "t": 156663.69000000018,
      "d": 329.85484375001397,
      "v": 88
    },
    {
      "midi": 59,
      "hit": false,
      "t": 156663.69000000018,
      "d": 361.10425000000396,
      "v": 88
    },
    {
      "midi": 59,
      "hit": false,
      "t": 156663.69000000026,
      "d": 440.9638437500107,
      "v": 82
    },
    {
      "midi": 63,
      "hit": false,
      "t": 156663.69000000026,
      "d": 447.9081562500214,
      "v": 82
    },
    {
      "midi": 66,
      "hit": false,
      "t": 156663.69000000026,
      "d": 451.3803125000268,
      "v": 80
    },
    {
      "midi": 59,
      "hit": false,
      "t": 157330.3440000003,
      "d": 291.66112500001327,
      "v": 82
    },
    {
      "midi": 52,
      "hit": false,
      "t": 157330.3440000003,
      "d": 572.9057812500105,
      "v": 62
    },
    {
      "midi": 56,
      "hit": false,
      "t": 157330.3440000003,
      "d": 791.6516249999986,
      "v": 91
    },
    {
      "midi": 68,
      "hit": false,
      "t": 157330.3440000003,
      "d": 802.0680937499856,
      "v": 91
    },
    {
      "midi": 40,
      "hit": false,
      "t": 157330.3440000003,
      "d": 2291.623125000013,
      "v": 76
    },
    {
      "midi": 47,
      "hit": false,
      "t": 157330.3440000003,
      "d": 2312.456062500016,
      "v": 73
    },
    {
      "midi": 64,
      "hit": false,
      "t": 157663.67100000032,
      "d": 458.3246249999793,
      "v": 70
    },
    {
      "midi": 59,
      "hit": false,
      "t": 157996.9980000003,
      "d": 236.1066249999858,
      "v": 73
    },
    {
      "midi": 59,
      "hit": false,
      "t": 158330.3250000003,
      "d": 729.1528125000186,
      "v": 70
    },
    {
      "midi": 51,
      "hit": false,
      "t": 158330.3250000003,
      "d": 1333.308000000019,
      "v": 64
    },
    {
      "midi": 66,
      "hit": false,
      "t": 158330.3250000003,
      "d": 1413.1675937500258,
      "v": 91
    },
    {
      "midi": 54,
      "hit": false,
      "t": 158330.3250000003,
      "d": 1434.0005312500289,
      "v": 82
    },
    {
      "midi": 63,
      "hit": false,
      "t": 158996.9790000003,
      "d": 711.792031250021,
      "v": 82
    },
    {
      "midi": 59,
      "hit": false,
      "t": 159663.63300000032,
      "d": 315.96621875002165,
      "v": 78
    },
    {
      "midi": 56,
      "hit": false,
      "t": 159996.96000000034,
      "d": 361.10425000000396,
      "v": 91
    },
    {
      "midi": 52,
      "hit": false,
      "t": 159996.96000000034,
      "d": 850.6782812500023,
      "v": 80
    },
    {
      "midi": 49,
      "hit": false,
      "t": 159996.96000000034,
      "d": 913.1770937500114,
      "v": 74
    },
    {
      "midi": 64,
      "hit": false,
      "t": 159996.96000000034,
      "d": 1690.9400937500177,
      "v": 85
    },
    {
      "midi": 61,
      "hit": false,
      "t": 160330.28700000033,
      "d": 392.35365625002305,
      "v": 74
    },
    {
      "midi": 59,
      "hit": false,
      "t": 160663.61400000035,
      "d": 357.6320937499986,
      "v": 78
    },
    {
      "midi": 61,
      "hit": false,
      "t": 160996.94100000034,
      "d": 659.7096874999988,
      "v": 80
    },
    {
      "midi": 45,
      "hit": false,
      "t": 160996.94100000034,
      "d": 1298.5864375000237,
      "v": 85
    },
    {
      "midi": 52,
      "hit": false,
      "t": 160996.94100000034,
      "d": 1333.308000000019,
      "v": 61
    },
    {
      "midi": 57,
      "hit": false,
      "t": 160996.94100000034,
      "d": 1336.7801562500244,
      "v": 82
    },
    {
      "midi": 59,
      "hit": false,
      "t": 161663.59500000035,
      "d": 374.9928750000254,
      "v": 82
    },
    {
      "midi": 61,
      "hit": false,
      "t": 161996.92200000037,
      "d": 361.10425000000396,
      "v": 80
    },
    {
      "midi": 64,
      "hit": false,
      "t": 162330.24900000036,
      "d": 104.16468750001513,
      "v": 91
    },
    {
      "midi": 59,
      "hit": false,
      "t": 162663.57600000038,
      "d": 291.66112500001327,
      "v": 82
    },
    {
      "midi": 52,
      "hit": false,
      "t": 162663.57600000038,
      "d": 572.9057812500105,
      "v": 62
    },
    {
      "midi": 56,
      "hit": false,
      "t": 162663.57600000038,
      "d": 791.6516249999986,
      "v": 91
    },
    {
      "midi": 68,
      "hit": false,
      "t": 162663.57600000038,
      "d": 802.0680937499856,
      "v": 91
    },
    {
      "midi": 40,
      "hit": false,
      "t": 162663.57600000038,
      "d": 2291.623125000013,
      "v": 76
    },
    {
      "midi": 47,
      "hit": false,
      "t": 162663.57600000038,
      "d": 2312.456062500016,
      "v": 73
    },
    {
      "midi": 64,
      "hit": false,
      "t": 162996.9030000004,
      "d": 458.3246249999793,
      "v": 70
    },
    {
      "midi": 59,
      "hit": false,
      "t": 163330.2300000004,
      "d": 236.1066249999858,
      "v": 73
    },
    {
      "midi": 59,
      "hit": false,
      "t": 163663.55700000038,
      "d": 729.1528125000186,
      "v": 70
    },
    {
      "midi": 51,
      "hit": false,
      "t": 163663.55700000038,
      "d": 1333.308000000019,
      "v": 64
    },
    {
      "midi": 66,
      "hit": false,
      "t": 163663.55700000038,
      "d": 1413.1675937500258,
      "v": 91
    },
    {
      "midi": 54,
      "hit": false,
      "t": 163663.55700000038,
      "d": 1434.0005312500289,
      "v": 82
    },
    {
      "midi": 63,
      "hit": false,
      "t": 164330.2110000004,
      "d": 711.792031250021,
      "v": 82
    },
    {
      "midi": 59,
      "hit": false,
      "t": 164996.8650000004,
      "d": 315.96621875002165,
      "v": 78
    },
    {
      "midi": 56,
      "hit": false,
      "t": 165330.19200000042,
      "d": 361.10425000000396,
      "v": 91
    },
    {
      "midi": 52,
      "hit": false,
      "t": 165330.19200000042,
      "d": 850.6782812500023,
      "v": 80
    },
    {
      "midi": 49,
      "hit": false,
      "t": 165330.19200000042,
      "d": 913.1770937500114,
      "v": 74
    },
    {
      "midi": 64,
      "hit": false,
      "t": 165330.19200000042,
      "d": 1690.9400937500177,
      "v": 85
    },
    {
      "midi": 61,
      "hit": false,
      "t": 165663.5190000004,
      "d": 392.35365625002305,
      "v": 74
    },
    {
      "midi": 59,
      "hit": false,
      "t": 165996.84600000043,
      "d": 357.6320937499986,
      "v": 78
    },
    {
      "midi": 61,
      "hit": false,
      "t": 166330.17300000042,
      "d": 659.7096874999988,
      "v": 80
    },
    {
      "midi": 45,
      "hit": false,
      "t": 166330.17300000042,
      "d": 1298.5864375000237,
      "v": 85
    },
    {
      "midi": 52,
      "hit": false,
      "t": 166330.17300000042,
      "d": 1333.308000000019,
      "v": 61
    },
    {
      "midi": 57,
      "hit": false,
      "t": 166330.17300000042,
      "d": 1336.7801562500244,
      "v": 82
    },
    {
      "midi": 59,
      "hit": false,
      "t": 166996.82700000043,
      "d": 374.9928750000254,
      "v": 82
    },
    {
      "midi": 61,
      "hit": false,
      "t": 167330.15400000045,
      "d": 361.10425000000396,
      "v": 80
    },
    {
      "midi": 64,
      "hit": false,
      "t": 167663.48100000044,
      "d": 104.16468750001513,
      "v": 91
    },
    {
      "midi": 59,
      "hit": false,
      "t": 167996.80800000046,
      "d": 291.66112500001327,
      "v": 82
    },
    {
      "midi": 52,
      "hit": false,
      "t": 167996.80800000046,
      "d": 572.9057812500105,
      "v": 62
    },
    {
      "midi": 56,
      "hit": false,
      "t": 167996.80800000046,
      "d": 791.6516249999986,
      "v": 91
    },
    {
      "midi": 68,
      "hit": false,
      "t": 167996.80800000046,
      "d": 802.0680937499856,
      "v": 91
    },
    {
      "midi": 40,
      "hit": false,
      "t": 167996.80800000046,
      "d": 2291.623125000013,
      "v": 76
    },
    {
      "midi": 47,
      "hit": false,
      "t": 167996.80800000046,
      "d": 2312.456062500016,
      "v": 73
    },
    {
      "midi": 64,
      "hit": false,
      "t": 168330.13500000047,
      "d": 458.3246249999793,
      "v": 70
    },
    {
      "midi": 59,
      "hit": false,
      "t": 168663.46200000047,
      "d": 236.1066249999858,
      "v": 73
    },
    {
      "midi": 59,
      "hit": false,
      "t": 168996.78900000046,
      "d": 729.1528125000186,
      "v": 70
    },
    {
      "midi": 51,
      "hit": false,
      "t": 168996.78900000046,
      "d": 1333.308000000019,
      "v": 64
    },
    {
      "midi": 66,
      "hit": false,
      "t": 168996.78900000046,
      "d": 1413.1675937500258,
      "v": 91
    },
    {
      "midi": 54,
      "hit": false,
      "t": 168996.78900000046,
      "d": 1434.0005312500289,
      "v": 82
    },
    {
      "midi": 63,
      "hit": false,
      "t": 169663.44300000046,
      "d": 711.792031250021,
      "v": 82
    },
    {
      "midi": 59,
      "hit": false,
      "t": 170330.09700000047,
      "d": 315.96621875002165,
      "v": 78
    },
    {
      "midi": 56,
      "hit": false,
      "t": 170663.4240000005,
      "d": 361.10425000000396,
      "v": 91
    },
    {
      "midi": 52,
      "hit": false,
      "t": 170663.4240000005,
      "d": 850.6782812500023,
      "v": 80
    },
    {
      "midi": 49,
      "hit": false,
      "t": 170663.4240000005,
      "d": 913.1770937500114,
      "v": 74
    },
    {
      "midi": 64,
      "hit": false,
      "t": 170663.4240000005,
      "d": 1690.9400937500177,
      "v": 85
    },
    {
      "midi": 61,
      "hit": false,
      "t": 170996.75100000048,
      "d": 392.35365625002305,
      "v": 74
    },
    {
      "midi": 59,
      "hit": false,
      "t": 171330.0780000005,
      "d": 357.6320937499986,
      "v": 78
    },
    {
      "midi": 61,
      "hit": false,
      "t": 171663.4050000005,
      "d": 659.7096874999988,
      "v": 80
    },
    {
      "midi": 45,
      "hit": false,
      "t": 171663.4050000005,
      "d": 1298.5864375000237,
      "v": 85
    },
    {
      "midi": 52,
      "hit": false,
      "t": 171663.4050000005,
      "d": 1333.308000000019,
      "v": 61
    },
    {
      "midi": 57,
      "hit": false,
      "t": 171663.4050000005,
      "d": 1336.7801562500244,
      "v": 82
    },
    {
      "midi": 59,
      "hit": false,
      "t": 172330.0590000005,
      "d": 374.9928750000254,
      "v": 82
    },
    {
      "midi": 61,
      "hit": false,
      "t": 172663.38600000052,
      "d": 361.10425000000396,
      "v": 80
    },
    {
      "midi": 64,
      "hit": false,
      "t": 172996.7130000005,
      "d": 104.16468750001513,
      "v": 91
    },
    {
      "midi": 59,
      "hit": false,
      "t": 173330.04000000053,
      "d": 291.66112500001327,
      "v": 82
    },
    {
      "midi": 52,
      "hit": false,
      "t": 173330.04000000053,
      "d": 572.9057812500105,
      "v": 62
    },
    {
      "midi": 56,
      "hit": false,
      "t": 173330.04000000053,
      "d": 791.6516249999986,
      "v": 91
    },
    {
      "midi": 68,
      "hit": false,
      "t": 173330.04000000053,
      "d": 802.0680937499856,
      "v": 91
    },
    {
      "midi": 40,
      "hit": false,
      "t": 173330.04000000053,
      "d": 2291.623125000013,
      "v": 76
    },
    {
      "midi": 47,
      "hit": false,
      "t": 173330.04000000053,
      "d": 2312.456062500016,
      "v": 73
    },
    {
      "midi": 64,
      "hit": false,
      "t": 173663.36700000055,
      "d": 458.3246249999793,
      "v": 70
    },
    {
      "midi": 59,
      "hit": false,
      "t": 173996.69400000054,
      "d": 236.1066249999858,
      "v": 73
    },
    {
      "midi": 59,
      "hit": false,
      "t": 174330.02100000053,
      "d": 729.1528125000186,
      "v": 70
    },
    {
      "midi": 51,
      "hit": false,
      "t": 174330.02100000053,
      "d": 1333.308000000019,
      "v": 64
    },
    {
      "midi": 66,
      "hit": false,
      "t": 174330.02100000053,
      "d": 1413.1675937500258,
      "v": 91
    },
    {
      "midi": 54,
      "hit": false,
      "t": 174330.02100000053,
      "d": 1434.0005312500289,
      "v": 82
    },
    {
      "midi": 63,
      "hit": false,
      "t": 174996.67500000054,
      "d": 711.792031250021,
      "v": 82
    },
    {
      "midi": 59,
      "hit": false,
      "t": 175663.32900000055,
      "d": 315.96621875002165,
      "v": 78
    },
    {
      "midi": 56,
      "hit": false,
      "t": 175996.65600000057,
      "d": 361.10425000000396,
      "v": 91
    },
    {
      "midi": 52,
      "hit": false,
      "t": 175996.65600000057,
      "d": 850.6782812500023,
      "v": 80
    },
    {
      "midi": 49,
      "hit": false,
      "t": 175996.65600000057,
      "d": 913.1770937500114,
      "v": 74
    },
    {
      "midi": 64,
      "hit": false,
      "t": 175996.65600000057,
      "d": 1690.9400937500177,
      "v": 85
    },
    {
      "midi": 61,
      "hit": false,
      "t": 176329.98300000056,
      "d": 392.35365625002305,
      "v": 74
    },
    {
      "midi": 59,
      "hit": false,
      "t": 176663.31000000058,
      "d": 357.6320937499986,
      "v": 78
    },
    {
      "midi": 61,
      "hit": false,
      "t": 176996.63700000057,
      "d": 659.7096874999988,
      "v": 80
    },
    {
      "midi": 45,
      "hit": false,
      "t": 176996.63700000057,
      "d": 1298.5864375000237,
      "v": 85
    },
    {
      "midi": 52,
      "hit": false,
      "t": 176996.63700000057,
      "d": 1333.308000000019,
      "v": 61
    },
    {
      "midi": 57,
      "hit": false,
      "t": 176996.63700000057,
      "d": 1336.7801562500244,
      "v": 82
    },
    {
      "midi": 59,
      "hit": false,
      "t": 177663.29100000058,
      "d": 374.9928750000254,
      "v": 82
    },
    {
      "midi": 61,
      "hit": false,
      "t": 177996.6180000006,
      "d": 361.10425000000396,
      "v": 80
    },
    {
      "midi": 64,
      "hit": false,
      "t": 178329.9450000006,
      "d": 104.16468750001513,
      "v": 91
    },
    {
      "midi": 68,
      "hit": false,
      "t": 178663.27200000017,
      "d": 868.0390625,
      "v": 82
    },
    {
      "midi": 52,
      "hit": false,
      "t": 178663.27200000017,
      "d": 874.9833750000107,
      "v": 74
    },
    {
      "midi": 64,
      "hit": false,
      "t": 178663.27200000017,
      "d": 878.4555312500161,
      "v": 88
    },
    {
      "midi": 59,
      "hit": false,
      "t": 178663.27200000017,
      "d": 909.704937500006,
      "v": 76
    },
    {
      "midi": 52,
      "hit": false,
      "t": 178663.2720000006,
      "d": 624.9881250000035,
      "v": 80
    },
    {
      "midi": 56,
      "hit": false,
      "t": 178663.2720000006,
      "d": 649.2932187500119,
      "v": 80
    },
    {
      "midi": 59,
      "hit": false,
      "t": 179329.92600000062,
      "d": 333.3269999999902,
      "v": 80
    },
    {
      "midi": 64,
      "hit": false,
      "t": 179329.92600000062,
      "d": 347.21562499998254,
      "v": 80
    },
    {
      "midi": 68,
      "hit": false,
      "t": 179329.92600000062,
      "d": 347.21562499998254,
      "v": 68
    },
    {
      "midi": 54,
      "hit": false,
      "t": 179663.25300000017,
      "d": 1329.8358437500137,
      "v": 68
    },
    {
      "midi": 57,
      "hit": false,
      "t": 179663.25300000017,
      "d": 1350.6687812500168,
      "v": 82
    },
    {
      "midi": 61,
      "hit": false,
      "t": 179663.25300000017,
      "d": 1364.557406250009,
      "v": 78
    },
    {
      "midi": 66,
      "hit": false,
      "t": 179663.25300000017,
      "d": 1388.8625000000175,
      "v": 73
    },
    {
      "midi": 57,
      "hit": false,
      "t": 179663.2530000006,
      "d": 805.5402499999909,
      "v": 78
    },
    {
      "midi": 54,
      "hit": false,
      "t": 179663.2530000006,
      "d": 826.373187499994,
      "v": 78
    },
    {
      "midi": 61,
      "hit": false,
      "t": 180329.9070000006,
      "d": 461.79678125001374,
      "v": 82
    },
    {
      "midi": 66,
      "hit": false,
      "t": 180329.9070000006,
      "d": 475.68540625000605,
      "v": 80
    },
    {
      "midi": 54,
      "hit": false,
      "t": 180663.2340000006,
      "d": 402.7701249999809,
      "v": 71
    },
    {
      "midi": 57,
      "hit": false,
      "t": 180663.2340000006,
      "d": 402.7701249999809,
      "v": 78
    },
    {
      "midi": 61,
      "hit": false,
      "t": 180996.5610000006,
      "d": 180.55212499998743,
      "v": 80
    },
    {
      "midi": 66,
      "hit": false,
      "t": 180996.5610000006,
      "d": 204.8572187499958,
      "v": 80
    },
    {
      "midi": 64,
      "hit": false,
      "t": 181329.88800000018,
      "d": 868.0390625,
      "v": 85
    },
    {
      "midi": 61,
      "hit": false,
      "t": 181329.88800000018,
      "d": 913.1770937500114,
      "v": 88
    },
    {
      "midi": 57,
      "hit": false,
      "t": 181329.88800000018,
      "d": 923.5935624999984,
      "v": 88
    },
    {
      "midi": 52,
      "hit": false,
      "t": 181329.88800000018,
      "d": 954.8429687499884,
      "v": 82
    },
    {
      "midi": 61,
      "hit": false,
      "t": 181329.8880000006,
      "d": 541.6563749999914,
      "v": 80
    },
    {
      "midi": 64,
      "hit": false,
      "t": 181329.8880000006,
      "d": 545.1285312499967,
      "v": 82
    },
    {
      "midi": 57,
      "hit": false,
      "t": 181329.8880000006,
      "d": 562.4893124999944,
      "v": 78
    },
    {
      "midi": 52,
      "hit": false,
      "t": 181329.8880000006,
      "d": 576.3779374999867,
      "v": 76
    },
    {
      "midi": 64,
      "hit": false,
      "t": 181996.54200000057,
      "d": 249.99525000000722,
      "v": 78
    },
    {
      "midi": 57,
      "hit": false,
      "t": 181996.54200000057,
      "d": 256.9395625000179,
      "v": 85
    },
    {
      "midi": 52,
      "hit": false,
      "t": 181996.54200000057,
      "d": 260.4117187500233,
      "v": 61
    },
    {
      "midi": 61,
      "hit": false,
      "t": 181996.54200000057,
      "d": 288.188968750037,
      "v": 73
    },
    {
      "midi": 59,
      "hit": false,
      "t": 182329.86900000018,
      "d": 802.0680937499856,
      "v": 91
    },
    {
      "midi": 68,
      "hit": false,
      "t": 182329.86900000018,
      "d": 826.373187499994,
      "v": 88
    },
    {
      "midi": 64,
      "hit": false,
      "t": 182329.86900000018,
      "d": 857.6225937499839,
      "v": 82
    },
    {
      "midi": 59,
      "hit": false,
      "t": 182329.86900000062,
      "d": 552.0728437500075,
      "v": 82
    },
    {
      "midi": 64,
      "hit": false,
      "t": 182329.86900000062,
      "d": 586.7944062500028,
      "v": 85
    },
    {
      "midi": 56,
      "hit": false,
      "t": 182329.86900000062,
      "d": 621.5159687499981,
      "v": 78
    },
    {
      "midi": 52,
      "hit": false,
      "t": 182329.86900000062,
      "d": 656.2375312499935,
      "v": 65
    },
    {
      "midi": 68,
      "hit": false,
      "t": 182996.5230000006,
      "d": 291.66112500001327,
      "v": 82
    },
    {
      "midi": 64,
      "hit": false,
      "t": 182996.5230000006,
      "d": 361.10425000003306,
      "v": 82
    },
    {
      "midi": 59,
      "hit": false,
      "t": 183329.85000000015,
      "d": 472.2132500000007,
      "v": 85
    },
    {
      "midi": 63,
      "hit": false,
      "t": 183329.85000000015,
      "d": 482.62971874998766,
      "v": 82
    },
    {
      "midi": 66,
      "hit": false,
      "t": 183329.85000000015,
      "d": 503.4626562499907,
      "v": 82
    },
    {
      "midi": 59,
      "hit": false,
      "t": 183329.85000000062,
      "d": 506.93481250002515,
      "v": 80
    },
    {
      "midi": 54,
      "hit": false,
      "t": 183329.85000000062,
      "d": 534.7120625000389,
      "v": 88
    },
    {
      "midi": 63,
      "hit": false,
      "t": 183329.85000000062,
      "d": 583.3222500000265,
      "v": 88
    },
    {
      "midi": 66,
      "hit": false,
      "t": 183329.85000000062,
      "d": 611.0995000000403,
      "v": 82
    },
    {
      "midi": 68,
      "hit": false,
      "t": 183996.50400000013,
      "d": 871.5112187500054,
      "v": 91
    },
    {
      "midi": 59,
      "hit": false,
      "t": 183996.50400000013,
      "d": 881.9276874999923,
      "v": 91
    },
    {
      "midi": 64,
      "hit": false,
      "t": 183996.50400000013,
      "d": 913.1770937499823,
      "v": 88
    },
    {
      "midi": 52,
      "hit": false,
      "t": 183996.50400000066,
      "d": 694.4312500000233,
      "v": 78
    },
    {
      "midi": 56,
      "hit": false,
      "t": 183996.50400000066,
      "d": 718.7363437500317,
      "v": 82
    },
    {
      "midi": 59,
      "hit": false,
      "t": 184663.15800000067,
      "d": 274.3003437500156,
      "v": 82
    },
    {
      "midi": 68,
      "hit": false,
      "t": 184663.15800000067,
      "d": 277.77250000002095,
      "v": 88
    },
    {
      "midi": 64,
      "hit": false,
      "t": 184663.15800000067,
      "d": 388.8815000000177,
      "v": 82
    },
    {
      "midi": 61,
      "hit": false,
      "t": 184996.4850000001,
      "d": 1395.806812499999,
      "v": 82
    },
    {
      "midi": 66,
      "hit": false,
      "t": 184996.4850000001,
      "d": 1402.7511250000098,
      "v": 80
    },
    {
      "midi": 57,
      "hit": false,
      "t": 184996.4850000001,
      "d": 1406.2232812500151,
      "v": 78
    },
    {
      "midi": 54,
      "hit": false,
      "t": 184996.4850000001,
      "d": 1451.3613125000265,
      "v": 80
    },
    {
      "midi": 61,
      "hit": false,
      "t": 184996.48500000068,
      "d": 545.1285312499967,
      "v": 82
    },
    {
      "midi": 54,
      "hit": false,
      "t": 184996.48500000068,
      "d": 548.6006875000021,
      "v": 78
    },
    {
      "midi": 57,
      "hit": false,
      "t": 184996.48500000068,
      "d": 552.0728437500075,
      "v": 76
    },
    {
      "midi": 66,
      "hit": false,
      "t": 184996.48500000068,
      "d": 552.0728437500075,
      "v": 80
    },
    {
      "midi": 61,
      "hit": false,
      "t": 185663.1390000007,
      "d": 361.10425000000396,
      "v": 82
    },
    {
      "midi": 66,
      "hit": false,
      "t": 185663.1390000007,
      "d": 361.10425000000396,
      "v": 88
    },
    {
      "midi": 57,
      "hit": false,
      "t": 185996.46600000068,
      "d": 434.0195312500291,
      "v": 80
    },
    {
      "midi": 54,
      "hit": false,
      "t": 185996.46600000068,
      "d": 444.43600000001607,
      "v": 82
    },
    {
      "midi": 61,
      "hit": false,
      "t": 186329.7930000007,
      "d": 184.02428124999278,
      "v": 82
    },
    {
      "midi": 66,
      "hit": false,
      "t": 186329.7930000007,
      "d": 243.0509374999965,
      "v": 80
    },
    {
      "midi": 61,
      "hit": false,
      "t": 186663.12000000014,
      "d": 531.2399062500044,
      "v": 91
    },
    {
      "midi": 64,
      "hit": false,
      "t": 186663.12000000014,
      "d": 545.1285312499967,
      "v": 91
    },
    {
      "midi": 57,
      "hit": false,
      "t": 186663.12000000014,
      "d": 850.6782812500023,
      "v": 78
    },
    {
      "midi": 52,
      "hit": false,
      "t": 186663.12000000014,
      "d": 909.704937500006,
      "v": 80
    },
    {
      "midi": 61,
      "hit": false,
      "t": 186663.1200000007,
      "d": 538.184218749986,
      "v": 82
    },
    {
      "midi": 64,
      "hit": false,
      "t": 186663.1200000007,
      "d": 541.6563749999914,
      "v": 82
    },
    {
      "midi": 57,
      "hit": false,
      "t": 186663.1200000007,
      "d": 548.6006875000021,
      "v": 80
    },
    {
      "midi": 52,
      "hit": false,
      "t": 186663.1200000007,
      "d": 555.5450000000128,
      "v": 76
    },
    {
      "midi": 64,
      "hit": false,
      "t": 187329.77400000015,
      "d": 239.57878124999115,
      "v": 88
    },
    {
      "midi": 61,
      "hit": false,
      "t": 187329.77400000015,
      "d": 267.3560312500049,
      "v": 88
    },
    {
      "midi": 57,
      "hit": false,
      "t": 187329.7740000007,
      "d": 142.35840624998673,
      "v": 82
    },
    {
      "midi": 52,
      "hit": false,
      "t": 187329.7740000007,
      "d": 152.7748749999737,
      "v": 62
    },
    {
      "midi": 64,
      "hit": false,
      "t": 187329.7740000007,
      "d": 187.49643749996903,
      "v": 85
    },
    {
      "midi": 61,
      "hit": false,
      "t": 187329.7740000007,
      "d": 197.912906249956,
      "v": 80
    },
    {
      "midi": 59,
      "hit": false,
      "t": 187663.10100000017,
      "d": 874.9833750000107,
      "v": 95
    },
    {
      "midi": 68,
      "hit": false,
      "t": 187663.10100000017,
      "d": 895.8163125000137,
      "v": 88
    },
    {
      "midi": 64,
      "hit": false,
      "t": 187663.10100000017,
      "d": 913.1770937500114,
      "v": 76
    },
    {
      "midi": 59,
      "hit": false,
      "t": 187663.10100000066,
      "d": 541.6563749999914,
      "v": 80
    },
    {
      "midi": 64,
      "hit": false,
      "t": 187663.10100000066,
      "d": 559.0171562499891,
      "v": 82
    },
    {
      "midi": 52,
      "hit": false,
      "t": 187663.10100000066,
      "d": 572.9057812499814,
      "v": 61
    },
    {
      "midi": 56,
      "hit": false,
      "t": 187663.10100000066,
      "d": 586.7944062499737,
      "v": 78
    },
    {
      "midi": 68,
      "hit": false,
      "t": 188329.75500000064,
      "d": 315.96621874999255,
      "v": 91
    },
    {
      "midi": 64,
      "hit": false,
      "t": 188329.75500000064,
      "d": 381.9371874999779,
      "v": 88
    },
    {
      "midi": 59,
      "hit": false,
      "t": 188663.08200000017,
      "d": 538.184218749986,
      "v": 91
    },
    {
      "midi": 63,
      "hit": false,
      "t": 188663.08200000017,
      "d": 552.0728437499783,
      "v": 91
    },
    {
      "midi": 66,
      "hit": false,
      "t": 188663.08200000017,
      "d": 572.9057812499814,
      "v": 91
    },
    {
      "midi": 59,
      "hit": false,
      "t": 188663.08200000064,
      "d": 513.8791249999776,
      "v": 78
    },
    {
      "midi": 54,
      "hit": false,
      "t": 188663.08200000064,
      "d": 538.184218749986,
      "v": 80
    },
    {
      "midi": 63,
      "hit": false,
      "t": 188663.08200000064,
      "d": 545.1285312499967,
      "v": 80
    },
    {
      "midi": 66,
      "hit": false,
      "t": 188663.08200000064,
      "d": 569.4336250000051,
      "v": 78
    },
    {
      "midi": 59,
      "hit": false,
      "t": 189329.73600000015,
      "d": 868.0390625,
      "v": 98
    },
    {
      "midi": 68,
      "hit": false,
      "t": 189329.73600000015,
      "d": 874.9833750000107,
      "v": 95
    },
    {
      "midi": 64,
      "hit": false,
      "t": 189329.73600000015,
      "d": 878.4555312500161,
      "v": 88
    },
    {
      "midi": 52,
      "hit": false,
      "t": 189329.73600000064,
      "d": 631.9324375000142,
      "v": 80
    },
    {
      "midi": 56,
      "hit": false,
      "t": 189329.73600000064,
      "d": 638.8767500000249,
      "v": 82
    },
    {
      "midi": 59,
      "hit": false,
      "t": 189996.39000000068,
      "d": 291.66112500001327,
      "v": 82
    },
    {
      "midi": 68,
      "hit": false,
      "t": 189996.39000000068,
      "d": 305.5497500000056,
      "v": 88
    },
    {
      "midi": 64,
      "hit": false,
      "t": 189996.39000000068,
      "d": 406.24228125001537,
      "v": 88
    },
    {
      "midi": 54,
      "hit": false,
      "t": 190329.71700000018,
      "d": 1451.3613124999974,
      "v": 78
    },
    {
      "midi": 57,
      "hit": false,
      "t": 190329.71700000018,
      "d": 1454.8334687500028,
      "v": 91
    },
    {
      "midi": 66,
      "hit": false,
      "t": 190329.71700000018,
      "d": 1461.7777812500135,
      "v": 80
    },
    {
      "midi": 61,
      "hit": false,
      "t": 190329.71700000018,
      "d": 1475.6664062500058,
      "v": 82
    },
    {
      "midi": 61,
      "hit": false,
      "t": 190329.7170000007,
      "d": 562.4893124999944,
      "v": 78
    },
    {
      "midi": 57,
      "hit": false,
      "t": 190329.7170000007,
      "d": 572.9057812499814,
      "v": 82
    },
    {
      "midi": 54,
      "hit": false,
      "t": 190329.7170000007,
      "d": 579.8500937499921,
      "v": 80
    },
    {
      "midi": 66,
      "hit": false,
      "t": 190329.7170000007,
      "d": 618.0438124999928,
      "v": 73
    },
    {
      "midi": 57,
      "hit": false,
      "t": 190996.37100000068,
      "d": 65.97096875001444,
      "v": 74
    },
    {
      "midi": 61,
      "hit": false,
      "t": 190996.37100000068,
      "d": 69.44312500001979,
      "v": 82
    },
    {
      "midi": 64,
      "hit": false,
      "t": 190996.37100000068,
      "d": 79.85959375000675,
      "v": 80
    },
    {
      "midi": 54,
      "hit": false,
      "t": 190996.37100000068,
      "d": 86.80390625001746,
      "v": 66
    },
    {
      "midi": 57,
      "hit": false,
      "t": 191329.6980000007,
      "d": 402.7701249999809,
      "v": 88
    },
    {
      "midi": 54,
      "hit": false,
      "t": 191329.6980000007,
      "d": 409.7144374999916,
      "v": 88
    },
    {
      "midi": 61,
      "hit": false,
      "t": 191329.6980000007,
      "d": 472.2132500000007,
      "v": 74
    },
    {
      "midi": 64,
      "hit": false,
      "t": 191329.6980000007,
      "d": 475.68540625000605,
      "v": 74
    },
    {
      "midi": 66,
      "hit": false,
      "t": 191663.0250000007,
      "d": 208.32937500003027,
      "v": 73
    },
    {
      "midi": 63,
      "hit": false,
      "t": 191996.3520000002,
      "d": 902.7606249999953,
      "v": 91
    },
    {
      "midi": 66,
      "hit": false,
      "t": 191996.3520000002,
      "d": 927.0657187500037,
      "v": 88
    },
    {
      "midi": 59,
      "hit": false,
      "t": 191996.3520000002,
      "d": 930.5378750000091,
      "v": 78
    },
    {
      "midi": 54,
      "hit": false,
      "t": 191996.3520000002,
      "d": 944.4265000000014,
      "v": 78
    },
    {
      "midi": 54,
      "hit": false,
      "t": 191996.3520000007,
      "d": 715.2641874999972,
      "v": 88
    },
    {
      "midi": 59,
      "hit": false,
      "t": 191996.3520000007,
      "d": 715.2641874999972,
      "v": 74
    },
    {
      "midi": 63,
      "hit": false,
      "t": 192663.00600000072,
      "d": 284.71681249997346,
      "v": 88
    },
    {
      "midi": 66,
      "hit": false,
      "t": 192663.00600000072,
      "d": 333.3269999999611,
      "v": 80
    },
    {
      "midi": 52,
      "hit": false,
      "t": 192996.3330000002,
      "d": 1427.056218749989,
      "v": 85
    },
    {
      "midi": 61,
      "hit": false,
      "t": 192996.3330000002,
      "d": 1461.7777812499844,
      "v": 88
    },
    {
      "midi": 56,
      "hit": false,
      "t": 192996.3330000002,
      "d": 1479.138562499982,
      "v": 91
    },
    {
      "midi": 64,
      "hit": false,
      "t": 192996.3330000002,
      "d": 1479.138562499982,
      "v": 85
    },
    {
      "midi": 64,
      "hit": false,
      "t": 192996.33300000068,
      "d": 534.7120625000098,
      "v": 85
    },
    {
      "midi": 68,
      "hit": false,
      "t": 192996.33300000068,
      "d": 597.2108750000189,
      "v": 91
    },
    {
      "midi": 56,
      "hit": false,
      "t": 192996.33300000068,
      "d": 763.874375000014,
      "v": 80
    },
    {
      "midi": 52,
      "hit": false,
      "t": 192996.33300000068,
      "d": 770.8186875000247,
      "v": 78
    },
    {
      "midi": 61,
      "hit": false,
      "t": 193662.9870000007,
      "d": 83.33175000001211,
      "v": 82
    },
    {
      "midi": 64,
      "hit": false,
      "t": 193662.9870000007,
      "d": 83.33175000001211,
      "v": 80
    },
    {
      "midi": 61,
      "hit": false,
      "t": 193996.3140000007,
      "d": 319.4383749999979,
      "v": 78
    },
    {
      "midi": 52,
      "hit": false,
      "t": 193996.3140000007,
      "d": 371.5207187499909,
      "v": 66
    },
    {
      "midi": 56,
      "hit": false,
      "t": 193996.3140000007,
      "d": 402.7701249999809,
      "v": 73
    },
    {
      "midi": 64,
      "hit": false,
      "t": 193996.3140000007,
      "d": 621.515968749969,
      "v": 71
    },
    {
      "midi": 59,
      "hit": false,
      "t": 194329.6410000007,
      "d": 270.82818749998114,
      "v": 76
    },
    {
      "midi": 61,
      "hit": false,
      "t": 194662.96800000017,
      "d": 892.3441562500084,
      "v": 88
    },
    {
      "midi": 64,
      "hit": false,
      "t": 194662.96800000017,
      "d": 902.7606249999953,
      "v": 85
    },
    {
      "midi": 54,
      "hit": false,
      "t": 194662.96800000017,
      "d": 927.0657187500037,
      "v": 82
    },
    {
      "midi": 57,
      "hit": false,
      "t": 194662.96800000017,
      "d": 927.0657187500037,
      "v": 95
    },
    {
      "midi": 54,
      "hit": false,
      "t": 194662.9680000007,
      "d": 777.7630000000063,
      "v": 91
    },
    {
      "midi": 57,
      "hit": false,
      "t": 194662.9680000007,
      "d": 781.2351562500116,
      "v": 91
    },
    {
      "midi": 61,
      "hit": false,
      "t": 195329.6220000007,
      "d": 864.5669062499946,
      "v": 88
    },
    {
      "midi": 64,
      "hit": false,
      "t": 195329.6220000007,
      "d": 874.9833749999816,
      "v": 85
    },
    {
      "midi": 61,
      "hit": false,
      "t": 195662.94900000017,
      "d": 1427.056218749989,
      "v": 91
    },
    {
      "midi": 57,
      "hit": false,
      "t": 195662.94900000017,
      "d": 1434.0005312499998,
      "v": 91
    },
    {
      "midi": 54,
      "hit": false,
      "t": 195662.94900000017,
      "d": 1437.4726875000051,
      "v": 74
    },
    {
      "midi": 69,
      "hit": false,
      "t": 195662.94900000017,
      "d": 1437.4726875000051,
      "v": 82
    },
    {
      "midi": 64,
      "hit": false,
      "t": 195662.94900000017,
      "d": 1458.3056250000081,
      "v": 88
    },
    {
      "midi": 57,
      "hit": false,
      "t": 195662.9490000007,
      "d": 1399.2789687500044,
      "v": 76
    },
    {
      "midi": 54,
      "hit": false,
      "t": 195662.9490000007,
      "d": 1437.4726875000051,
      "v": 78
    },
    {
      "midi": 61,
      "hit": false,
      "t": 196329.60300000067,
      "d": 336.7991562499956,
      "v": 88
    },
    {
      "midi": 64,
      "hit": false,
      "t": 196329.60300000067,
      "d": 725.6806562500133,
      "v": 82
    },
    {
      "midi": 59,
      "hit": false,
      "t": 196662.93000000066,
      "d": 350.687781250017,
      "v": 85
    },
    {
      "midi": 61,
      "hit": false,
      "t": 196996.25700000068,
      "d": 343.7434687500063,
      "v": 88
    },
    {
      "midi": 69,
      "hit": false,
      "t": 197329.58400000018,
      "d": 833.3175000000047,
      "v": 82
    },
    {
      "midi": 61,
      "hit": false,
      "t": 197329.58400000018,
      "d": 854.1504375000077,
      "v": 88
    },
    {
      "midi": 64,
      "hit": false,
      "t": 197329.58400000018,
      "d": 854.1504375000077,
      "v": 80
    },
    {
      "midi": 57,
      "hit": false,
      "t": 197329.58400000018,
      "d": 909.704937500006,
      "v": 95
    },
    {
      "midi": 57,
      "hit": false,
      "t": 197329.5840000007,
      "d": 795.1237812499749,
      "v": 91
    },
    {
      "midi": 52,
      "hit": false,
      "t": 197329.5840000007,
      "d": 836.7896562499809,
      "v": 85
    },
    {
      "midi": 59,
      "hit": false,
      "t": 197662.9110000007,
      "d": 333.3269999999902,
      "v": 91
    },
    {
      "midi": 64,
      "hit": false,
      "t": 197662.9110000007,
      "d": 437.49168749997625,
      "v": 88
    },
    {
      "midi": 61,
      "hit": false,
      "t": 197996.23800000068,
      "d": 298.6054374999949,
      "v": 80
    },
    {
      "midi": 68,
      "hit": false,
      "t": 198329.56500000018,
      "d": 847.206124999997,
      "v": 88
    },
    {
      "midi": 59,
      "hit": false,
      "t": 198329.56500000018,
      "d": 857.6225937499839,
      "v": 95
    },
    {
      "midi": 64,
      "hit": false,
      "t": 198329.56500000018,
      "d": 881.9276874999923,
      "v": 82
    },
    {
      "midi": 68,
      "hit": false,
      "t": 198329.56500000067,
      "d": 559.0171562499891,
      "v": 88
    },
    {
      "midi": 59,
      "hit": false,
      "t": 198329.56500000067,
      "d": 565.9614687499998,
      "v": 85
    },
    {
      "midi": 64,
      "hit": false,
      "t": 198329.56500000067,
      "d": 579.8500937499921,
      "v": 88
    },
    {
      "midi": 59,
      "hit": false,
      "t": 198996.21900000065,
      "d": 243.0509374999965,
      "v": 82
    },
    {
      "midi": 68,
      "hit": false,
      "t": 198996.21900000065,
      "d": 256.9395624999888,
      "v": 80
    },
    {
      "midi": 64,
      "hit": false,
      "t": 198996.21900000065,
      "d": 291.66112499998417,
      "v": 80
    },
    {
      "midi": 63,
      "hit": false,
      "t": 199329.54600000018,
      "d": 329.85484375001397,
      "v": 91
    },
    {
      "midi": 66,
      "hit": false,
      "t": 199329.54600000018,
      "d": 329.85484375001397,
      "v": 88
    },
    {
      "midi": 59,
      "hit": false,
      "t": 199329.54600000018,
      "d": 361.10425000000396,
      "v": 88
    },
    {
      "midi": 59,
      "hit": false,
      "t": 199329.54600000064,
      "d": 440.9638437500107,
      "v": 82
    },
    {
      "midi": 63,
      "hit": false,
      "t": 199329.54600000064,
      "d": 447.9081562500214,
      "v": 82
    },
    {
      "midi": 66,
      "hit": false,
      "t": 199329.54600000064,
      "d": 451.3803125000268,
      "v": 80
    },
    {
      "midi": 68,
      "hit": false,
      "t": 199996.2000000002,
      "d": 868.0390625,
      "v": 82
    },
    {
      "midi": 52,
      "hit": false,
      "t": 199996.2000000002,
      "d": 874.9833750000107,
      "v": 74
    },
    {
      "midi": 64,
      "hit": false,
      "t": 199996.2000000002,
      "d": 878.4555312500161,
      "v": 88
    },
    {
      "midi": 59,
      "hit": false,
      "t": 199996.2000000002,
      "d": 909.704937500006,
      "v": 76
    },
    {
      "midi": 52,
      "hit": false,
      "t": 199996.20000000068,
      "d": 624.9881250000035,
      "v": 80
    },
    {
      "midi": 56,
      "hit": false,
      "t": 199996.20000000068,
      "d": 649.2932187500119,
      "v": 80
    },
    {
      "midi": 59,
      "hit": false,
      "t": 200662.8540000007,
      "d": 333.3269999999902,
      "v": 80
    },
    {
      "midi": 64,
      "hit": false,
      "t": 200662.8540000007,
      "d": 347.21562499998254,
      "v": 80
    },
    {
      "midi": 68,
      "hit": false,
      "t": 200662.8540000007,
      "d": 347.21562499998254,
      "v": 68
    },
    {
      "midi": 54,
      "hit": false,
      "t": 200996.1810000002,
      "d": 1329.8358437500137,
      "v": 68
    },
    {
      "midi": 57,
      "hit": false,
      "t": 200996.1810000002,
      "d": 1350.6687812500168,
      "v": 82
    },
    {
      "midi": 61,
      "hit": false,
      "t": 200996.1810000002,
      "d": 1364.557406250009,
      "v": 78
    },
    {
      "midi": 66,
      "hit": false,
      "t": 200996.1810000002,
      "d": 1388.8625000000175,
      "v": 73
    },
    {
      "midi": 57,
      "hit": false,
      "t": 200996.18100000068,
      "d": 805.5402499999909,
      "v": 78
    },
    {
      "midi": 54,
      "hit": false,
      "t": 200996.18100000068,
      "d": 826.373187499994,
      "v": 78
    },
    {
      "midi": 61,
      "hit": false,
      "t": 201662.83500000066,
      "d": 461.79678125001374,
      "v": 82
    },
    {
      "midi": 66,
      "hit": false,
      "t": 201662.83500000066,
      "d": 475.68540625000605,
      "v": 80
    },
    {
      "midi": 54,
      "hit": false,
      "t": 201996.16200000068,
      "d": 402.7701249999809,
      "v": 71
    },
    {
      "midi": 57,
      "hit": false,
      "t": 201996.16200000068,
      "d": 402.7701249999809,
      "v": 78
    },
    {
      "midi": 61,
      "hit": false,
      "t": 202329.48900000067,
      "d": 180.55212499998743,
      "v": 80
    },
    {
      "midi": 66,
      "hit": false,
      "t": 202329.48900000067,
      "d": 204.8572187499958,
      "v": 80
    },
    {
      "midi": 64,
      "hit": false,
      "t": 202662.8160000002,
      "d": 868.0390625,
      "v": 85
    },
    {
      "midi": 61,
      "hit": false,
      "t": 202662.8160000002,
      "d": 913.1770937500114,
      "v": 88
    },
    {
      "midi": 57,
      "hit": false,
      "t": 202662.8160000002,
      "d": 923.5935624999984,
      "v": 88
    },
    {
      "midi": 52,
      "hit": false,
      "t": 202662.8160000002,
      "d": 954.8429687499884,
      "v": 82
    },
    {
      "midi": 61,
      "hit": false,
      "t": 202662.81600000066,
      "d": 541.6563749999914,
      "v": 80
    },
    {
      "midi": 64,
      "hit": false,
      "t": 202662.81600000066,
      "d": 545.1285312499967,
      "v": 82
    },
    {
      "midi": 57,
      "hit": false,
      "t": 202662.81600000066,
      "d": 562.4893124999944,
      "v": 78
    },
    {
      "midi": 52,
      "hit": false,
      "t": 202662.81600000066,
      "d": 576.3779374999867,
      "v": 76
    },
    {
      "midi": 64,
      "hit": false,
      "t": 203329.47000000064,
      "d": 249.99525000000722,
      "v": 78
    },
    {
      "midi": 57,
      "hit": false,
      "t": 203329.47000000064,
      "d": 256.9395625000179,
      "v": 85
    },
    {
      "midi": 52,
      "hit": false,
      "t": 203329.47000000064,
      "d": 260.4117187500233,
      "v": 61
    },
    {
      "midi": 61,
      "hit": false,
      "t": 203329.47000000064,
      "d": 288.188968750037,
      "v": 73
    },
    {
      "midi": 59,
      "hit": false,
      "t": 203662.7970000002,
      "d": 802.0680937499856,
      "v": 91
    },
    {
      "midi": 68,
      "hit": false,
      "t": 203662.7970000002,
      "d": 826.373187499994,
      "v": 88
    },
    {
      "midi": 64,
      "hit": false,
      "t": 203662.7970000002,
      "d": 857.6225937499839,
      "v": 82
    },
    {
      "midi": 59,
      "hit": false,
      "t": 203662.7970000007,
      "d": 552.0728437500075,
      "v": 82
    },
    {
      "midi": 64,
      "hit": false,
      "t": 203662.7970000007,
      "d": 586.7944062500028,
      "v": 85
    },
    {
      "midi": 56,
      "hit": false,
      "t": 203662.7970000007,
      "d": 621.5159687499981,
      "v": 78
    },
    {
      "midi": 52,
      "hit": false,
      "t": 203662.7970000007,
      "d": 656.2375312499935,
      "v": 65
    },
    {
      "midi": 68,
      "hit": false,
      "t": 204329.45100000067,
      "d": 291.66112500001327,
      "v": 82
    },
    {
      "midi": 64,
      "hit": false,
      "t": 204329.45100000067,
      "d": 361.10425000003306,
      "v": 82
    },
    {
      "midi": 59,
      "hit": false,
      "t": 204662.77800000017,
      "d": 472.2132500000007,
      "v": 85
    },
    {
      "midi": 63,
      "hit": false,
      "t": 204662.77800000017,
      "d": 482.62971874998766,
      "v": 82
    },
    {
      "midi": 66,
      "hit": false,
      "t": 204662.77800000017,
      "d": 503.4626562499907,
      "v": 82
    },
    {
      "midi": 59,
      "hit": false,
      "t": 204662.7780000007,
      "d": 506.93481250002515,
      "v": 80
    },
    {
      "midi": 54,
      "hit": false,
      "t": 204662.7780000007,
      "d": 534.7120625000389,
      "v": 88
    },
    {
      "midi": 63,
      "hit": false,
      "t": 204662.7780000007,
      "d": 583.3222500000265,
      "v": 88
    },
    {
      "midi": 66,
      "hit": false,
      "t": 204662.7780000007,
      "d": 611.0995000000403,
      "v": 82
    },
    {
      "midi": 68,
      "hit": false,
      "t": 205329.43200000015,
      "d": 871.5112187500054,
      "v": 91
    },
    {
      "midi": 59,
      "hit": false,
      "t": 205329.43200000015,
      "d": 881.9276874999923,
      "v": 91
    },
    {
      "midi": 64,
      "hit": false,
      "t": 205329.43200000015,
      "d": 913.1770937499823,
      "v": 88
    },
    {
      "midi": 52,
      "hit": false,
      "t": 205329.43200000073,
      "d": 694.4312500000233,
      "v": 78
    },
    {
      "midi": 56,
      "hit": false,
      "t": 205329.43200000073,
      "d": 718.7363437500317,
      "v": 82
    },
    {
      "midi": 59,
      "hit": false,
      "t": 205996.08600000074,
      "d": 274.3003437500156,
      "v": 82
    },
    {
      "midi": 68,
      "hit": false,
      "t": 205996.08600000074,
      "d": 277.77250000002095,
      "v": 88
    },
    {
      "midi": 64,
      "hit": false,
      "t": 205996.08600000074,
      "d": 388.8815000000177,
      "v": 82
    },
    {
      "midi": 61,
      "hit": false,
      "t": 206329.41300000012,
      "d": 1395.806812499999,
      "v": 82
    },
    {
      "midi": 66,
      "hit": false,
      "t": 206329.41300000012,
      "d": 1402.7511250000098,
      "v": 80
    },
    {
      "midi": 57,
      "hit": false,
      "t": 206329.41300000012,
      "d": 1406.2232812500151,
      "v": 78
    },
    {
      "midi": 54,
      "hit": false,
      "t": 206329.41300000012,
      "d": 1451.3613125000265,
      "v": 80
    },
    {
      "midi": 61,
      "hit": false,
      "t": 206329.41300000076,
      "d": 545.1285312499967,
      "v": 82
    },
    {
      "midi": 54,
      "hit": false,
      "t": 206329.41300000076,
      "d": 548.6006875000021,
      "v": 78
    },
    {
      "midi": 57,
      "hit": false,
      "t": 206329.41300000076,
      "d": 552.0728437500075,
      "v": 76
    },
    {
      "midi": 66,
      "hit": false,
      "t": 206329.41300000076,
      "d": 552.0728437500075,
      "v": 80
    },
    {
      "midi": 61,
      "hit": false,
      "t": 206996.06700000077,
      "d": 361.10425000000396,
      "v": 82
    },
    {
      "midi": 66,
      "hit": false,
      "t": 206996.06700000077,
      "d": 361.10425000000396,
      "v": 88
    },
    {
      "midi": 57,
      "hit": false,
      "t": 207329.39400000076,
      "d": 434.0195312500291,
      "v": 80
    },
    {
      "midi": 54,
      "hit": false,
      "t": 207329.39400000076,
      "d": 444.43600000001607,
      "v": 82
    },
    {
      "midi": 61,
      "hit": false,
      "t": 207662.72100000078,
      "d": 184.02428124999278,
      "v": 82
    },
    {
      "midi": 66,
      "hit": false,
      "t": 207662.72100000078,
      "d": 243.0509374999965,
      "v": 80
    },
    {
      "midi": 61,
      "hit": false,
      "t": 207996.04800000016,
      "d": 531.2399062500044,
      "v": 91
    },
    {
      "midi": 64,
      "hit": false,
      "t": 207996.04800000016,
      "d": 545.1285312499967,
      "v": 91
    },
    {
      "midi": 57,
      "hit": false,
      "t": 207996.04800000016,
      "d": 850.6782812500023,
      "v": 78
    },
    {
      "midi": 52,
      "hit": false,
      "t": 207996.04800000016,
      "d": 909.704937500006,
      "v": 80
    },
    {
      "midi": 61,
      "hit": false,
      "t": 207996.04800000077,
      "d": 538.184218749986,
      "v": 82
    },
    {
      "midi": 64,
      "hit": false,
      "t": 207996.04800000077,
      "d": 541.6563749999914,
      "v": 82
    },
    {
      "midi": 57,
      "hit": false,
      "t": 207996.04800000077,
      "d": 548.6006875000021,
      "v": 80
    },
    {
      "midi": 52,
      "hit": false,
      "t": 207996.04800000077,
      "d": 555.5450000000128,
      "v": 76
    },
    {
      "midi": 64,
      "hit": false,
      "t": 208662.70200000016,
      "d": 239.57878124999115,
      "v": 88
    },
    {
      "midi": 61,
      "hit": false,
      "t": 208662.70200000016,
      "d": 267.3560312500049,
      "v": 88
    },
    {
      "midi": 57,
      "hit": false,
      "t": 208662.70200000078,
      "d": 142.35840624998673,
      "v": 82
    },
    {
      "midi": 52,
      "hit": false,
      "t": 208662.70200000078,
      "d": 152.7748749999737,
      "v": 62
    },
    {
      "midi": 64,
      "hit": false,
      "t": 208662.70200000078,
      "d": 187.49643749996903,
      "v": 85
    },
    {
      "midi": 61,
      "hit": false,
      "t": 208662.70200000078,
      "d": 197.912906249956,
      "v": 80
    },
    {
      "midi": 59,
      "hit": false,
      "t": 208996.02900000018,
      "d": 874.9833750000107,
      "v": 95
    },
    {
      "midi": 68,
      "hit": false,
      "t": 208996.02900000018,
      "d": 895.8163125000137,
      "v": 88
    },
    {
      "midi": 64,
      "hit": false,
      "t": 208996.02900000018,
      "d": 913.1770937500114,
      "v": 76
    },
    {
      "midi": 59,
      "hit": false,
      "t": 208996.02900000074,
      "d": 541.6563749999914,
      "v": 80
    },
    {
      "midi": 64,
      "hit": false,
      "t": 208996.02900000074,
      "d": 559.0171562499891,
      "v": 82
    },
    {
      "midi": 52,
      "hit": false,
      "t": 208996.02900000074,
      "d": 572.9057812499814,
      "v": 61
    },
    {
      "midi": 56,
      "hit": false,
      "t": 208996.02900000074,
      "d": 586.7944062499737,
      "v": 78
    },
    {
      "midi": 68,
      "hit": false,
      "t": 209662.68300000072,
      "d": 315.96621874999255,
      "v": 91
    },
    {
      "midi": 64,
      "hit": false,
      "t": 209662.68300000072,
      "d": 381.9371874999779,
      "v": 88
    },
    {
      "midi": 59,
      "hit": false,
      "t": 209996.01000000018,
      "d": 538.184218749986,
      "v": 91
    },
    {
      "midi": 63,
      "hit": false,
      "t": 209996.01000000018,
      "d": 552.0728437499783,
      "v": 91
    },
    {
      "midi": 66,
      "hit": false,
      "t": 209996.01000000018,
      "d": 572.9057812499814,
      "v": 91
    },
    {
      "midi": 59,
      "hit": false,
      "t": 209996.0100000007,
      "d": 513.8791249999776,
      "v": 78
    },
    {
      "midi": 54,
      "hit": false,
      "t": 209996.0100000007,
      "d": 538.184218749986,
      "v": 80
    },
    {
      "midi": 63,
      "hit": false,
      "t": 209996.0100000007,
      "d": 545.1285312499967,
      "v": 80
    },
    {
      "midi": 66,
      "hit": false,
      "t": 209996.0100000007,
      "d": 569.4336250000051,
      "v": 78
    },
    {
      "midi": 59,
      "hit": false,
      "t": 210662.66400000016,
      "d": 868.0390625,
      "v": 98
    },
    {
      "midi": 68,
      "hit": false,
      "t": 210662.66400000016,
      "d": 874.9833750000107,
      "v": 95
    },
    {
      "midi": 64,
      "hit": false,
      "t": 210662.66400000016,
      "d": 878.4555312500161,
      "v": 88
    },
    {
      "midi": 52,
      "hit": false,
      "t": 210662.66400000072,
      "d": 631.9324375000142,
      "v": 80
    },
    {
      "midi": 56,
      "hit": false,
      "t": 210662.66400000072,
      "d": 638.8767500000249,
      "v": 82
    },
    {
      "midi": 59,
      "hit": false,
      "t": 211329.31800000076,
      "d": 291.66112500001327,
      "v": 82
    },
    {
      "midi": 68,
      "hit": false,
      "t": 211329.31800000076,
      "d": 305.5497500000056,
      "v": 88
    },
    {
      "midi": 64,
      "hit": false,
      "t": 211329.31800000076,
      "d": 406.24228125001537,
      "v": 88
    },
    {
      "midi": 54,
      "hit": false,
      "t": 211662.6450000002,
      "d": 1451.3613124999974,
      "v": 78
    },
    {
      "midi": 57,
      "hit": false,
      "t": 211662.6450000002,
      "d": 1454.8334687500028,
      "v": 91
    },
    {
      "midi": 66,
      "hit": false,
      "t": 211662.6450000002,
      "d": 1461.7777812500135,
      "v": 80
    },
    {
      "midi": 61,
      "hit": false,
      "t": 211662.6450000002,
      "d": 1475.6664062500058,
      "v": 82
    },
    {
      "midi": 61,
      "hit": false,
      "t": 211662.64500000078,
      "d": 562.4893124999944,
      "v": 78
    },
    {
      "midi": 57,
      "hit": false,
      "t": 211662.64500000078,
      "d": 572.9057812499814,
      "v": 82
    },
    {
      "midi": 54,
      "hit": false,
      "t": 211662.64500000078,
      "d": 579.8500937499921,
      "v": 80
    },
    {
      "midi": 66,
      "hit": false,
      "t": 211662.64500000078,
      "d": 618.0438124999928,
      "v": 73
    },
    {
      "midi": 57,
      "hit": false,
      "t": 212329.29900000076,
      "d": 65.97096875001444,
      "v": 74
    },
    {
      "midi": 61,
      "hit": false,
      "t": 212329.29900000076,
      "d": 69.44312500001979,
      "v": 82
    },
    {
      "midi": 64,
      "hit": false,
      "t": 212329.29900000076,
      "d": 79.85959375000675,
      "v": 80
    },
    {
      "midi": 54,
      "hit": false,
      "t": 212329.29900000076,
      "d": 86.80390625001746,
      "v": 66
    },
    {
      "midi": 57,
      "hit": false,
      "t": 212662.62600000078,
      "d": 402.7701249999809,
      "v": 88
    },
    {
      "midi": 54,
      "hit": false,
      "t": 212662.62600000078,
      "d": 409.7144374999916,
      "v": 88
    },
    {
      "midi": 61,
      "hit": false,
      "t": 212662.62600000078,
      "d": 472.2132500000007,
      "v": 74
    },
    {
      "midi": 64,
      "hit": false,
      "t": 212662.62600000078,
      "d": 475.68540625000605,
      "v": 74
    },
    {
      "midi": 66,
      "hit": false,
      "t": 212995.95300000077,
      "d": 208.32937500003027,
      "v": 73
    },
    {
      "midi": 63,
      "hit": false,
      "t": 213329.2800000002,
      "d": 902.7606249999953,
      "v": 91
    },
    {
      "midi": 66,
      "hit": false,
      "t": 213329.2800000002,
      "d": 927.0657187500037,
      "v": 88
    },
    {
      "midi": 59,
      "hit": false,
      "t": 213329.2800000002,
      "d": 930.5378750000091,
      "v": 78
    },
    {
      "midi": 54,
      "hit": false,
      "t": 213329.2800000002,
      "d": 944.4265000000014,
      "v": 78
    },
    {
      "midi": 54,
      "hit": false,
      "t": 213329.28000000078,
      "d": 715.2641874999972,
      "v": 88
    },
    {
      "midi": 59,
      "hit": false,
      "t": 213329.28000000078,
      "d": 715.2641874999972,
      "v": 74
    },
    {
      "midi": 63,
      "hit": false,
      "t": 213995.9340000008,
      "d": 284.71681249997346,
      "v": 88
    },
    {
      "midi": 66,
      "hit": false,
      "t": 213995.9340000008,
      "d": 333.3269999999611,
      "v": 80
    },
    {
      "midi": 52,
      "hit": false,
      "t": 214329.2610000002,
      "d": 1427.056218749989,
      "v": 85
    },
    {
      "midi": 61,
      "hit": false,
      "t": 214329.2610000002,
      "d": 1461.7777812499844,
      "v": 88
    },
    {
      "midi": 56,
      "hit": false,
      "t": 214329.2610000002,
      "d": 1479.138562499982,
      "v": 91
    },
    {
      "midi": 64,
      "hit": false,
      "t": 214329.2610000002,
      "d": 1479.138562499982,
      "v": 85
    },
    {
      "midi": 64,
      "hit": false,
      "t": 214329.26100000076,
      "d": 534.7120625000098,
      "v": 85
    },
    {
      "midi": 68,
      "hit": false,
      "t": 214329.26100000076,
      "d": 597.2108750000189,
      "v": 91
    },
    {
      "midi": 56,
      "hit": false,
      "t": 214329.26100000076,
      "d": 763.874375000014,
      "v": 80
    },
    {
      "midi": 52,
      "hit": false,
      "t": 214329.26100000076,
      "d": 770.8186875000247,
      "v": 78
    },
    {
      "midi": 61,
      "hit": false,
      "t": 214995.91500000076,
      "d": 83.33175000001211,
      "v": 82
    },
    {
      "midi": 64,
      "hit": false,
      "t": 214995.91500000076,
      "d": 83.33175000001211,
      "v": 80
    },
    {
      "midi": 61,
      "hit": false,
      "t": 215329.24200000078,
      "d": 319.4383749999979,
      "v": 78
    },
    {
      "midi": 52,
      "hit": false,
      "t": 215329.24200000078,
      "d": 371.5207187499909,
      "v": 66
    },
    {
      "midi": 56,
      "hit": false,
      "t": 215329.24200000078,
      "d": 402.7701249999809,
      "v": 73
    },
    {
      "midi": 64,
      "hit": false,
      "t": 215329.24200000078,
      "d": 621.515968749969,
      "v": 71
    },
    {
      "midi": 59,
      "hit": false,
      "t": 215662.56900000077,
      "d": 270.82818749998114,
      "v": 76
    },
    {
      "midi": 61,
      "hit": false,
      "t": 215995.89600000018,
      "d": 892.3441562500084,
      "v": 88
    },
    {
      "midi": 64,
      "hit": false,
      "t": 215995.89600000018,
      "d": 902.7606249999953,
      "v": 85
    },
    {
      "midi": 54,
      "hit": false,
      "t": 215995.89600000018,
      "d": 927.0657187500037,
      "v": 82
    },
    {
      "midi": 57,
      "hit": false,
      "t": 215995.89600000018,
      "d": 927.0657187500037,
      "v": 95
    },
    {
      "midi": 54,
      "hit": false,
      "t": 215995.89600000076,
      "d": 777.7630000000063,
      "v": 91
    },
    {
      "midi": 57,
      "hit": false,
      "t": 215995.89600000076,
      "d": 781.2351562500116,
      "v": 91
    },
    {
      "midi": 61,
      "hit": false,
      "t": 216662.55000000077,
      "d": 864.5669062499946,
      "v": 88
    },
    {
      "midi": 64,
      "hit": false,
      "t": 216662.55000000077,
      "d": 874.9833749999816,
      "v": 85
    },
    {
      "midi": 61,
      "hit": false,
      "t": 216995.87700000018,
      "d": 1427.056218749989,
      "v": 91
    },
    {
      "midi": 57,
      "hit": false,
      "t": 216995.87700000018,
      "d": 1434.0005312499998,
      "v": 91
    },
    {
      "midi": 54,
      "hit": false,
      "t": 216995.87700000018,
      "d": 1437.4726875000051,
      "v": 74
    },
    {
      "midi": 69,
      "hit": false,
      "t": 216995.87700000018,
      "d": 1437.4726875000051,
      "v": 82
    },
    {
      "midi": 64,
      "hit": false,
      "t": 216995.87700000018,
      "d": 1458.3056250000081,
      "v": 88
    },
    {
      "midi": 57,
      "hit": false,
      "t": 216995.87700000076,
      "d": 1399.2789687500044,
      "v": 76
    },
    {
      "midi": 54,
      "hit": false,
      "t": 216995.87700000076,
      "d": 1437.4726875000051,
      "v": 78
    },
    {
      "midi": 61,
      "hit": false,
      "t": 217662.53100000074,
      "d": 336.7991562499956,
      "v": 88
    },
    {
      "midi": 64,
      "hit": false,
      "t": 217662.53100000074,
      "d": 725.6806562500133,
      "v": 82
    },
    {
      "midi": 59,
      "hit": false,
      "t": 217995.85800000074,
      "d": 350.687781250017,
      "v": 85
    },
    {
      "midi": 61,
      "hit": false,
      "t": 218329.18500000075,
      "d": 343.7434687500063,
      "v": 88
    },
    {
      "midi": 69,
      "hit": false,
      "t": 218662.5120000002,
      "d": 833.3175000000047,
      "v": 82
    },
    {
      "midi": 61,
      "hit": false,
      "t": 218662.5120000002,
      "d": 854.1504375000077,
      "v": 88
    },
    {
      "midi": 64,
      "hit": false,
      "t": 218662.5120000002,
      "d": 854.1504375000077,
      "v": 80
    },
    {
      "midi": 57,
      "hit": false,
      "t": 218662.5120000002,
      "d": 909.704937500006,
      "v": 95
    },
    {
      "midi": 57,
      "hit": false,
      "t": 218662.51200000077,
      "d": 795.1237812499749,
      "v": 91
    },
    {
      "midi": 52,
      "hit": false,
      "t": 218662.51200000077,
      "d": 836.7896562499809,
      "v": 85
    },
    {
      "midi": 59,
      "hit": false,
      "t": 218995.83900000076,
      "d": 333.3269999999902,
      "v": 91
    },
    {
      "midi": 64,
      "hit": false,
      "t": 218995.83900000076,
      "d": 437.49168749997625,
      "v": 88
    },
    {
      "midi": 61,
      "hit": false,
      "t": 219329.16600000075,
      "d": 298.6054374999949,
      "v": 80
    },
    {
      "midi": 68,
      "hit": false,
      "t": 219662.4930000002,
      "d": 847.206124999997,
      "v": 88
    },
    {
      "midi": 59,
      "hit": false,
      "t": 219662.4930000002,
      "d": 857.6225937499839,
      "v": 95
    },
    {
      "midi": 64,
      "hit": false,
      "t": 219662.4930000002,
      "d": 881.9276874999923,
      "v": 82
    },
    {
      "midi": 68,
      "hit": false,
      "t": 219662.49300000074,
      "d": 559.0171562499891,
      "v": 88
    },
    {
      "midi": 59,
      "hit": false,
      "t": 219662.49300000074,
      "d": 565.9614687499998,
      "v": 85
    },
    {
      "midi": 64,
      "hit": false,
      "t": 219662.49300000074,
      "d": 579.8500937499921,
      "v": 88
    },
    {
      "midi": 59,
      "hit": false,
      "t": 220329.14700000072,
      "d": 243.0509374999965,
      "v": 82
    },
    {
      "midi": 68,
      "hit": false,
      "t": 220329.14700000072,
      "d": 256.9395624999888,
      "v": 80
    },
    {
      "midi": 64,
      "hit": false,
      "t": 220329.14700000072,
      "d": 291.66112499998417,
      "v": 80
    },
    {
      "midi": 63,
      "hit": false,
      "t": 220662.4740000002,
      "d": 329.85484375001397,
      "v": 91
    },
    {
      "midi": 66,
      "hit": false,
      "t": 220662.4740000002,
      "d": 329.85484375001397,
      "v": 88
    },
    {
      "midi": 59,
      "hit": false,
      "t": 220662.4740000002,
      "d": 361.10425000000396,
      "v": 88
    },
    {
      "midi": 59,
      "hit": false,
      "t": 220662.47400000072,
      "d": 440.9638437500107,
      "v": 82
    },
    {
      "midi": 63,
      "hit": false,
      "t": 220662.47400000072,
      "d": 447.9081562500214,
      "v": 82
    },
    {
      "midi": 66,
      "hit": false,
      "t": 220662.47400000072,
      "d": 451.3803125000268,
      "v": 80
    },
    {
      "midi": 59,
      "hit": false,
      "t": 221329.12800000075,
      "d": 315.96621874999255,
      "v": 82
    },
    {
      "midi": 52,
      "hit": false,
      "t": 221329.12800000075,
      "d": 694.4312499999942,
      "v": 68
    },
    {
      "midi": 68,
      "hit": false,
      "t": 221329.12800000075,
      "d": 788.1794687499932,
      "v": 91
    },
    {
      "midi": 56,
      "hit": false,
      "t": 221329.12800000075,
      "d": 791.6516249999986,
      "v": 80
    },
    {
      "midi": 47,
      "hit": false,
      "t": 221329.12800000075,
      "d": 2340.2333125000296,
      "v": 65
    },
    {
      "midi": 40,
      "hit": false,
      "t": 221329.12800000075,
      "d": 2385.371343750041,
      "v": 74
    },
    {
      "midi": 64,
      "hit": false,
      "t": 221662.45500000074,
      "d": 458.3246250000084,
      "v": 74
    },
    {
      "midi": 59,
      "hit": false,
      "t": 221995.78200000073,
      "d": 180.55212500001653,
      "v": 76
    },
    {
      "midi": 59,
      "hit": false,
      "t": 222329.10900000075,
      "d": 701.3755625000049,
      "v": 73
    },
    {
      "midi": 51,
      "hit": false,
      "t": 222329.10900000075,
      "d": 1361.0852500000328,
      "v": 73
    },
    {
      "midi": 66,
      "hit": false,
      "t": 222329.10900000075,
      "d": 1374.9738750000251,
      "v": 91
    },
    {
      "midi": 54,
      "hit": false,
      "t": 222329.10900000075,
      "d": 1423.584062500042,
      "v": 88
    },
    {
      "midi": 63,
      "hit": false,
      "t": 222995.76300000076,
      "d": 711.792031250021,
      "v": 82
    },
    {
      "midi": 59,
      "hit": false,
      "t": 223662.41700000077,
      "d": 274.3003437500156,
      "v": 82
    },
    {
      "midi": 56,
      "hit": false,
      "t": 223995.7440000008,
      "d": 385.40934374998324,
      "v": 95
    },
    {
      "midi": 52,
      "hit": false,
      "t": 223995.7440000008,
      "d": 916.6492499999877,
      "v": 80
    },
    {
      "midi": 49,
      "hit": false,
      "t": 223995.7440000008,
      "d": 940.954343749996,
      "v": 78
    },
    {
      "midi": 64,
      "hit": false,
      "t": 223995.7440000008,
      "d": 986.0923749999783,
      "v": 91
    },
    {
      "midi": 61,
      "hit": false,
      "t": 224329.07100000078,
      "d": 385.40934374998324,
      "v": 71
    },
    {
      "midi": 59,
      "hit": false,
      "t": 224662.39800000077,
      "d": 305.5497500000056,
      "v": 68
    },
    {
      "midi": 57,
      "hit": false,
      "t": 224995.72500000076,
      "d": 1072.8962812499958,
      "v": 88
    },
    {
      "midi": 45,
      "hit": false,
      "t": 224995.72500000076,
      "d": 1086.7849062499881,
      "v": 85
    },
    {
      "midi": 52,
      "hit": false,
      "t": 224995.72500000076,
      "d": 1086.7849062499881,
      "v": 78
    },
    {
      "midi": 61,
      "hit": false,
      "t": 224995.72500000076,
      "d": 1090.2570624999935,
      "v": 82
    },
    {
      "midi": 64,
      "hit": false,
      "t": 224995.72500000076,
      "d": 1100.6735312499804,
      "v": 91
    },
    {
      "midi": 64,
      "hit": false,
      "t": 225995.706,
      "d": 395.8258124999993,
      "v": 71
    },
    {
      "midi": 66,
      "hit": false,
      "t": 226329.033,
      "d": 357.6320937500277,
      "v": 80
    },
    {
      "midi": 68,
      "hit": false,
      "t": 226662.36000000002,
      "d": 1031.2304062499898,
      "v": 74
    },
    {
      "midi": 59,
      "hit": false,
      "t": 226662.36000000074,
      "d": 315.96621874999255,
      "v": 82
    },
    {
      "midi": 52,
      "hit": false,
      "t": 226662.36000000074,
      "d": 694.4312499999942,
      "v": 68
    },
    {
      "midi": 68,
      "hit": false,
      "t": 226662.36000000074,
      "d": 788.1794687499932,
      "v": 91
    },
    {
      "midi": 56,
      "hit": false,
      "t": 226662.36000000074,
      "d": 791.6516249999986,
      "v": 80
    },
    {
      "midi": 47,
      "hit": false,
      "t": 226662.36000000074,
      "d": 2340.2333125000296,
      "v": 65
    },
    {
      "midi": 40,
      "hit": false,
      "t": 226662.36000000074,
      "d": 2385.371343750041,
      "v": 74
    },
    {
      "midi": 64,
      "hit": false,
      "t": 226995.68700000073,
      "d": 458.3246250000084,
      "v": 74
    },
    {
      "midi": 59,
      "hit": false,
      "t": 227329.01400000072,
      "d": 180.55212500001653,
      "v": 76
    },
    {
      "midi": 66,
      "hit": false,
      "t": 227662.34100000001,
      "d": 1666.6349999999802,
      "v": 82
    },
    {
      "midi": 59,
      "hit": false,
      "t": 227662.34100000074,
      "d": 701.3755625000049,
      "v": 73
    },
    {
      "midi": 51,
      "hit": false,
      "t": 227662.34100000074,
      "d": 1361.0852500000328,
      "v": 73
    },
    {
      "midi": 66,
      "hit": false,
      "t": 227662.34100000074,
      "d": 1374.9738750000251,
      "v": 91
    },
    {
      "midi": 54,
      "hit": false,
      "t": 227662.34100000074,
      "d": 1423.584062500042,
      "v": 88
    },
    {
      "midi": 63,
      "hit": false,
      "t": 228328.99500000075,
      "d": 711.792031250021,
      "v": 82
    },
    {
      "midi": 59,
      "hit": false,
      "t": 228995.64900000076,
      "d": 274.3003437500156,
      "v": 82
    },
    {
      "midi": 64,
      "hit": false,
      "t": 229328.976,
      "d": 996.5088437499944,
      "v": 78
    },
    {
      "midi": 56,
      "hit": false,
      "t": 229328.97600000078,
      "d": 385.40934374998324,
      "v": 95
    },
    {
      "midi": 52,
      "hit": false,
      "t": 229328.97600000078,
      "d": 916.6492499999877,
      "v": 80
    },
    {
      "midi": 49,
      "hit": false,
      "t": 229328.97600000078,
      "d": 940.954343749996,
      "v": 78
    },
    {
      "midi": 64,
      "hit": false,
      "t": 229328.97600000078,
      "d": 986.0923749999783,
      "v": 91
    },
    {
      "midi": 61,
      "hit": false,
      "t": 229662.30300000077,
      "d": 385.40934374998324,
      "v": 71
    },
    {
      "midi": 59,
      "hit": false,
      "t": 229995.63000000076,
      "d": 305.5497500000056,
      "v": 68
    },
    {
      "midi": 61,
      "hit": false,
      "t": 230328.957,
      "d": 1142.3394062499865,
      "v": 68
    },
    {
      "midi": 57,
      "hit": false,
      "t": 230328.95700000075,
      "d": 1072.8962812499958,
      "v": 88
    },
    {
      "midi": 45,
      "hit": false,
      "t": 230328.95700000075,
      "d": 1086.7849062499881,
      "v": 85
    },
    {
      "midi": 52,
      "hit": false,
      "t": 230328.95700000075,
      "d": 1086.7849062499881,
      "v": 78
    },
    {
      "midi": 61,
      "hit": false,
      "t": 230328.95700000075,
      "d": 1090.2570624999935,
      "v": 82
    },
    {
      "midi": 64,
      "hit": false,
      "t": 230328.95700000075,
      "d": 1100.6735312499804,
      "v": 91
    },
    {
      "midi": 40,
      "hit": false,
      "t": 231999.06415625074,
      "d": 6263.769874999998,
      "v": 88
    },
    {
      "midi": 47,
      "hit": false,
      "t": 232051.14650000073,
      "d": 6208.215375,
      "v": 82
    },
    {
      "midi": 56,
      "hit": false,
      "t": 232075.45159375074,
      "d": 6131.827937499969,
      "v": 80
    },
    {
      "midi": 52,
      "hit": false,
      "t": 232106.70100000073,
      "d": 6145.716562499991,
      "v": 64
    },
    {
      "midi": 59,
      "hit": false,
      "t": 232110.17315625073,
      "d": 6100.578531249979,
      "v": 80
    },
    {
      "midi": 64,
      "hit": false,
      "t": 232214.33784375072,
      "d": 6024.191093750007,
      "v": 65
    }
  ]
}