{
  "jsonPath": "Rock/Folk Rock/Neil Diamond/hello-again.json",
  "path": "Rock\\Folk Rock\\Neil Diamond\\Hello Again.mid",
  "name": "Hello Again",
  "difficulty": "Advanced",
  "bpm": 200,
  "notes": [
    {
      "midi": 66,
      "hit": false,
      "t": 30000,
      "d": 2937.5,
      "v": 77
    },
    {
      "midi": 78,
      "hit": false,
      "t": 30109.375,
      "d": 2828.125,
      "v": 77
    },
    {
      "midi": 69,
      "hit": false,
      "t": 33000,
      "d": 2937.5,
      "v": 83
    },
    {
      "midi": 81,
      "hit": false,
      "t": 33109.375,
      "d": 2890.625,
      "v": 83
    },
    {
      "midi": 81,
      "hit": false,
      "t": 36000,
      "d": 7437.5,
      "v": 83
    },
    {
      "midi": 93,
      "hit": false,
      "t": 36109.375,
      "d": 7328.125,
      "v": 83
    },
    {
      "midi": 76,
      "hit": false,
      "t": 39000,
      "d": 2937.5,
      "v": 87
    },
    {
      "midi": 88,
      "hit": false,
      "t": 39109.375,
      "d": 2828.125,
      "v": 87
    },
    {
      "midi": 77,
      "hit": false,
      "t": 45000,
      "d": 1437.5,
      "v": 93
    },
    {
      "midi": 89,
      "hit": false,
      "t": 45109.375,
      "d": 1328.125,
      "v": 93
    },
    {
      "midi": 36,
      "hit": false,
      "t": 48000,
      "d": 687.5,
      "v": 73
    },
    {
      "midi": 62,
      "hit": false,
      "t": 48000,
      "d": 1437.5,
      "v": 83
    },
    {
      "midi": 67,
      "hit": false,
      "t": 48000,
      "d": 1437.5,
      "v": 83
    },
    {
      "midi": 79,
      "hit": false,
      "t": 48000,
      "d": 1437.5,
      "v": 93
    },
    {
      "midi": 91,
      "hit": false,
      "t": 48109.375,
      "d": 1328.125,
      "v": 97
    },
    {
      "midi": 55,
      "hit": false,
      "t": 48750,
      "d": 1437.5,
      "v": 74
    },
    {
      "midi": 62,
      "hit": false,
      "t": 49500,
      "d": 1437.5,
      "v": 77
    },
    {
      "midi": 64,
      "hit": false,
      "t": 49500,
      "d": 1437.5,
      "v": 77
    },
    {
      "midi": 67,
      "hit": false,
      "t": 49500,
      "d": 1437.5,
      "v": 77
    },
    {
      "midi": 55,
      "hit": false,
      "t": 50250,
      "d": 1437.5,
      "v": 74
    },
    {
      "midi": 62,
      "hit": false,
      "t": 51000,
      "d": 1437.5,
      "v": 77
    },
    {
      "midi": 64,
      "hit": false,
      "t": 51000,
      "d": 1437.5,
      "v": 77
    },
    {
      "midi": 67,
      "hit": false,
      "t": 51000,
      "d": 1437.5,
      "v": 77
    },
    {
      "midi": 55,
      "hit": false,
      "t": 51750,
      "d": 1437.5,
      "v": 74
    },
    {
      "midi": 62,
      "hit": false,
      "t": 52500,
      "d": 1437.5,
      "v": 77
    },
    {
      "midi": 64,
      "hit": false,
      "t": 52500,
      "d": 1437.5,
      "v": 77
    },
    {
      "midi": 67,
      "hit": false,
      "t": 52500,
      "d": 1437.5,
      "v": 77
    },
    {
      "midi": 55,
      "hit": false,
      "t": 53250,
      "d": 687.5,
      "v": 74
    },
    {
      "midi": 36,
      "hit": false,
      "t": 54000,
      "d": 687.5,
      "v": 74
    },
    {
      "midi": 62,
      "hit": false,
      "t": 54000,
      "d": 1437.5,
      "v": 77
    },
    {
      "midi": 64,
      "hit": false,
      "t": 54000,
      "d": 1437.5,
      "v": 77
    },
    {
      "midi": 67,
      "hit": false,
      "t": 54000,
      "d": 1437.5,
      "v": 77
    },
    {
      "midi": 55,
      "hit": false,
      "t": 54750,
      "d": 1437.5,
      "v": 74
    },
    {
      "midi": 62,
      "hit": false,
      "t": 55500,
      "d": 1437.5,
      "v": 77
    },
    {
      "midi": 64,
      "hit": false,
      "t": 55500,
      "d": 1437.5,
      "v": 77
    },
    {
      "midi": 67,
      "hit": false,
      "t": 55500,
      "d": 1437.5,
      "v": 77
    },
    {
      "midi": 55,
      "hit": false,
      "t": 56250,
      "d": 1437.5,
      "v": 74
    },
    {
      "midi": 62,
      "hit": false,
      "t": 57000,
      "d": 1437.5,
      "v": 78
    },
    {
      "midi": 64,
      "hit": false,
      "t": 57000,
      "d": 1437.5,
      "v": 78
    },
    {
      "midi": 67,
      "hit": false,
      "t": 57000,
      "d": 1437.5,
      "v": 78
    },
    {
      "midi": 55,
      "hit": false,
      "t": 57750,
      "d": 1437.5,
      "v": 74
    },
    {
      "midi": 62,
      "hit": false,
      "t": 58500,
      "d": 1437.5,
      "v": 78
    },
    {
      "midi": 64,
      "hit": false,
      "t": 58500,
      "d": 1437.5,
      "v": 78
    },
    {
      "midi": 55,
      "hit": false,
      "t": 59250,
      "d": 687.5,
      "v": 74
    },
    {
      "midi": 67,
      "hit": false,
      "t": 59250,
      "d": 687.5,
      "v": 78
    },
    {
      "midi": 48,
      "hit": false,
      "t": 60000,
      "d": 687.5,
      "v": 74
    },
    {
      "midi": 62,
      "hit": false,
      "t": 60000,
      "d": 1437.5,
      "v": 78
    },
    {
      "midi": 64,
      "hit": false,
      "t": 60000,
      "d": 1437.5,
      "v": 78
    },
    {
      "midi": 67,
      "hit": false,
      "t": 60000,
      "d": 1437.5,
      "v": 78
    },
    {
      "midi": 55,
      "hit": false,
      "t": 60750,
      "d": 1437.5,
      "v": 74
    },
    {
      "midi": 62,
      "hit": false,
      "t": 61500,
      "d": 1437.5,
      "v": 78
    },
    {
      "midi": 64,
      "hit": false,
      "t": 61500,
      "d": 1437.5,
      "v": 78
    },
    {
      "midi": 67,
      "hit": false,
      "t": 61500,
      "d": 1437.5,
      "v": 78
    },
    {
      "midi": 55,
      "hit": false,
      "t": 62250,
      "d": 687.5,
      "v": 75
    },
    {
      "midi": 43,
      "hit": false,
      "t": 63000,
      "d": 687.5,
      "v": 75
    },
    {
      "midi": 60,
      "hit": false,
      "t": 63000,
      "d": 1437.5,
      "v": 79
    },
    {
      "midi": 62,
      "hit": false,
      "t": 63000,
      "d": 1437.5,
      "v": 79
    },
    {
      "midi": 65,
      "hit": false,
      "t": 63000,
      "d": 1437.5,
      "v": 79
    },
    {
      "midi": 55,
      "hit": false,
      "t": 63750,
      "d": 1437.5,
      "v": 75
    },
    {
      "midi": 60,
      "hit": false,
      "t": 64500,
      "d": 1437.5,
      "v": 79
    },
    {
      "midi": 62,
      "hit": false,
      "t": 64500,
      "d": 1437.5,
      "v": 79
    },
    {
      "midi": 65,
      "hit": false,
      "t": 64500,
      "d": 1437.5,
      "v": 79
    },
    {
      "midi": 55,
      "hit": false,
      "t": 65250,
      "d": 687.5,
      "v": 75
    },
    {
      "midi": 48,
      "hit": false,
      "t": 66000,
      "d": 687.5,
      "v": 75
    },
    {
      "midi": 62,
      "hit": false,
      "t": 66000,
      "d": 1437.5,
      "v": 79
    },
    {
      "midi": 64,
      "hit": false,
      "t": 66000,
      "d": 1437.5,
      "v": 79
    },
    {
      "midi": 67,
      "hit": false,
      "t": 66000,
      "d": 1437.5,
      "v": 79
    },
    {
      "midi": 55,
      "hit": false,
      "t": 66750,
      "d": 1437.5,
      "v": 75
    },
    {
      "midi": 62,
      "hit": false,
      "t": 67500,
      "d": 1437.5,
      "v": 79
    },
    {
      "midi": 64,
      "hit": false,
      "t": 67500,
      "d": 1437.5,
      "v": 79
    },
    {
      "midi": 67,
      "hit": false,
      "t": 67500,
      "d": 1437.5,
      "v": 79
    },
    {
      "midi": 55,
      "hit": false,
      "t": 68250,
      "d": 687.5,
      "v": 75
    },
    {
      "midi": 43,
      "hit": false,
      "t": 69000,
      "d": 687.5,
      "v": 75
    },
    {
      "midi": 60,
      "hit": false,
      "t": 69000,
      "d": 687.5,
      "v": 80
    },
    {
      "midi": 62,
      "hit": false,
      "t": 69000,
      "d": 687.5,
      "v": 80
    },
    {
      "midi": 55,
      "hit": false,
      "t": 69750,
      "d": 1437.5,
      "v": 75
    },
    {
      "midi": 64,
      "hit": false,
      "t": 69750,
      "d": 687.5,
      "v": 80
    },
    {
      "midi": 60,
      "hit": false,
      "t": 70500,
      "d": 687.5,
      "v": 80
    },
    {
      "midi": 62,
      "hit": false,
      "t": 70500,
      "d": 687.5,
      "v": 80
    },
    {
      "midi": 65,
      "hit": false,
      "t": 70500,
      "d": 687.5,
      "v": 80
    },
    {
      "midi": 55,
      "hit": false,
      "t": 71250,
      "d": 687.5,
      "v": 75
    },
    {
      "midi": 67,
      "hit": false,
      "t": 71250,
      "d": 687.5,
      "v": 80
    },
    {
      "midi": 48,
      "hit": false,
      "t": 72000,
      "d": 687.5,
      "v": 75
    },
    {
      "midi": 62,
      "hit": false,
      "t": 72000,
      "d": 1437.5,
      "v": 80
    },
    {
      "midi": 64,
      "hit": false,
      "t": 72000,
      "d": 1437.5,
      "v": 80
    },
    {
      "midi": 67,
      "hit": false,
      "t": 72000,
      "d": 1437.5,
      "v": 80
    },
    {
      "midi": 55,
      "hit": false,
      "t": 72750,
      "d": 1437.5,
      "v": 75
    },
    {
      "midi": 62,
      "hit": false,
      "t": 73500,
      "d": 1437.5,
      "v": 80
    },
    {
      "midi": 64,
      "hit": false,
      "t": 73500,
      "d": 1437.5,
      "v": 80
    },
    {
      "midi": 67,
      "hit": false,
      "t": 73500,
      "d": 1437.5,
      "v": 80
    },
    {
      "midi": 55,
      "hit": false,
      "t": 74250,
      "d": 687.5,
      "v": 76
    },
    {
      "midi": 43,
      "hit": false,
      "t": 75000,
      "d": 687.5,
      "v": 76
    },
    {
      "midi": 60,
      "hit": false,
      "t": 75000,
      "d": 1437.5,
      "v": 81
    },
    {
      "midi": 62,
      "hit": false,
      "t": 75000,
      "d": 1437.5,
      "v": 81
    },
    {
      "midi": 65,
      "hit": false,
      "t": 75000,
      "d": 1437.5,
      "v": 81
    },
    {
      "midi": 55,
      "hit": false,
      "t": 75750,
      "d": 1437.5,
      "v": 76
    },
    {
      "midi": 60,
      "hit": false,
      "t": 76500,
      "d": 1437.5,
      "v": 81
    },
    {
      "midi": 65,
      "hit": false,
      "t": 76500,
      "d": 1437.5,
      "v": 81
    },
    {
      "midi": 62,
      "hit": false,
      "t": 76500,
      "d": 1500,
      "v": 81
    },
    {
      "midi": 55,
      "hit": false,
      "t": 77250,
      "d": 687.5,
      "v": 76
    },
    {
      "midi": 48,
      "hit": false,
      "t": 78000,
      "d": 687.5,
      "v": 76
    },
    {
      "midi": 62,
      "hit": false,
      "t": 78000,
      "d": 1437.5,
      "v": 81
    },
    {
      "midi": 64,
      "hit": false,
      "t": 78000,
      "d": 1437.5,
      "v": 81
    },
    {
      "midi": 67,
      "hit": false,
      "t": 78000,
      "d": 1437.5,
      "v": 81
    },
    {
      "midi": 55,
      "hit": false,
      "t": 78750,
      "d": 1437.5,
      "v": 76
    },
    {
      "midi": 62,
      "hit": false,
      "t": 79500,
      "d": 1437.5,
      "v": 81
    },
    {
      "midi": 55,
      "hit": false,
      "t": 80250,
      "d": 687.5,
      "v": 76
    },
    {
      "midi": 47,
      "hit": false,
      "t": 81000,
      "d": 1437.5,
      "v": 76
    },
    {
      "midi": 62,
      "hit": false,
      "t": 81000,
      "d": 687.5,
      "v": 82
    },
    {
      "midi": 64,
      "hit": false,
      "t": 81000,
      "d": 687.5,
      "v": 82
    },
    {
      "midi": 67,
      "hit": false,
      "t": 81750,
      "d": 687.5,
      "v": 82
    },
    {
      "midi": 45,
      "hit": false,
      "t": 82500,
      "d": 1437.5,
      "v": 76
    },
    {
      "midi": 57,
      "hit": false,
      "t": 82500,
      "d": 1437.5,
      "v": 76
    },
    {
      "midi": 60,
      "hit": false,
      "t": 82500,
      "d": 687.5,
      "v": 82
    },
    {
      "midi": 69,
      "hit": false,
      "t": 82500,
      "d": 687.5,
      "v": 82
    },
    {
      "midi": 72,
      "hit": false,
      "t": 83250,
      "d": 687.5,
      "v": 82
    },
    {
      "midi": 41,
      "hit": false,
      "t": 84000,
      "d": 687.5,
      "v": 76
    },
    {
      "midi": 60,
      "hit": false,
      "t": 84000,
      "d": 2937.5,
      "v": 82
    },
    {
      "midi": 65,
      "hit": false,
      "t": 84000,
      "d": 2937.5,
      "v": 82
    },
    {
      "midi": 71,
      "hit": false,
      "t": 84000,
      "d": 3312.5,
      "v": 82
    },
    {
      "midi": 48,
      "hit": false,
      "t": 84750,
      "d": 687.5,
      "v": 76
    },
    {
      "midi": 57,
      "hit": false,
      "t": 85500,
      "d": 1437.5,
      "v": 76
    },
    {
      "midi": 72,
      "hit": false,
      "t": 86250,
      "d": 687.5,
      "v": 83
    },
    {
      "midi": 38,
      "hit": false,
      "t": 87000,
      "d": 687.5,
      "v": 77
    },
    {
      "midi": 69,
      "hit": false,
      "t": 87000,
      "d": 2250,
      "v": 83
    },
    {
      "midi": 60,
      "hit": false,
      "t": 87000,
      "d": 2937.5,
      "v": 83
    },
    {
      "midi": 65,
      "hit": false,
      "t": 87000,
      "d": 2937.5,
      "v": 83
    },
    {
      "midi": 45,
      "hit": false,
      "t": 87750,
      "d": 687.5,
      "v": 77
    },
    {
      "midi": 53,
      "hit": false,
      "t": 88500,
      "d": 1437.5,
      "v": 77
    },
    {
      "midi": 69,
      "hit": false,
      "t": 89250,
      "d": 687.5,
      "v": 83
    },
    {
      "midi": 40,
      "hit": false,
      "t": 90000,
      "d": 687.5,
      "v": 77
    },
    {
      "midi": 59,
      "hit": false,
      "t": 90000,
      "d": 2937.5,
      "v": 83
    },
    {
      "midi": 62,
      "hit": false,
      "t": 90000,
      "d": 2937.5,
      "v": 83
    },
    {
      "midi": 67,
      "hit": false,
      "t": 90000,
      "d": 2937.5,
      "v": 83
    },
    {
      "midi": 47,
      "hit": false,
      "t": 90750,
      "d": 687.5,
      "v": 77
    },
    {
      "midi": 55,
      "hit": false,
      "t": 91500,
      "d": 1437.5,
      "v": 77
    },
    {
      "midi": 69,
      "hit": false,
      "t": 92250,
      "d": 687.5,
      "v": 84
    },
    {
      "midi": 45,
      "hit": false,
      "t": 93000,
      "d": 687.5,
      "v": 77
    },
    {
      "midi": 60,
      "hit": false,
      "t": 93000,
      "d": 1437.5,
      "v": 84
    },
    {
      "midi": 52,
      "hit": false,
      "t": 93750,
      "d": 687.5,
      "v": 77
    },
    {
      "midi": 55,
      "hit": false,
      "t": 94500,
      "d": 1437.5,
      "v": 77
    },
    {
      "midi": 55,
      "hit": false,
      "t": 95250,
      "d": 312.5,
      "v": 84
    },
    {
      "midi": 55,
      "hit": false,
      "t": 95625,
      "d": 312.5,
      "v": 84
    },
    {
      "midi": 43,
      "hit": false,
      "t": 96000,
      "d": 687.5,
      "v": 77
    },
    {
      "midi": 64,
      "hit": false,
      "t": 96000,
      "d": 312.5,
      "v": 84
    },
    {
      "midi": 57,
      "hit": false,
      "t": 96000,
      "d": 5937.5,
      "v": 84
    },
    {
      "midi": 60,
      "hit": false,
      "t": 96000,
      "d": 5937.5,
      "v": 84
    },
    {
      "midi": 50,
      "hit": false,
      "t": 96750,
      "d": 687.5,
      "v": 77
    },
    {
      "midi": 62,
      "hit": false,
      "t": 96750,
      "d": 687.5,
      "v": 84
    },
    {
      "midi": 53,
      "hit": false,
      "t": 97500,
      "d": 687.5,
      "v": 77
    },
    {
      "midi": 62,
      "hit": false,
      "t": 97500,
      "d": 687.5,
      "v": 84
    },
    {
      "midi": 50,
      "hit": false,
      "t": 98250,
      "d": 687.5,
      "v": 77
    },
    {
      "midi": 55,
      "hit": false,
      "t": 99000,
      "d": 687.5,
      "v": 78
    },
    {
      "midi": 50,
      "hit": false,
      "t": 99750,
      "d": 687.5,
      "v": 78
    },
    {
      "midi": 53,
      "hit": false,
      "t": 100500,
      "d": 687.5,
      "v": 78
    },
    {
      "midi": 50,
      "hit": false,
      "t": 101250,
      "d": 687.5,
      "v": 78
    },
    {
      "midi": 55,
      "hit": false,
      "t": 101250,
      "d": 312.5,
      "v": 85
    },
    {
      "midi": 55,
      "hit": false,
      "t": 101625,
      "d": 312.5,
      "v": 85
    },
    {
      "midi": 43,
      "hit": false,
      "t": 102000,
      "d": 687.5,
      "v": 78
    },
    {
      "midi": 57,
      "hit": false,
      "t": 102000,
      "d": 1437.5,
      "v": 85
    },
    {
      "midi": 60,
      "hit": false,
      "t": 102000,
      "d": 1437.5,
      "v": 85
    },
    {
      "midi": 64,
      "hit": false,
      "t": 102000,
      "d": 1437.5,
      "v": 85
    },
    {
      "midi": 50,
      "hit": false,
      "t": 102750,
      "d": 687.5,
      "v": 78
    },
    {
      "midi": 62,
      "hit": false,
      "t": 102750,
      "d": 687.5,
      "v": 85
    },
    {
      "midi": 53,
      "hit": false,
      "t": 103500,
      "d": 687.5,
      "v": 78
    },
    {
      "midi": 62,
      "hit": false,
      "t": 103500,
      "d": 687.5,
      "v": 85
    },
    {
      "midi": 55,
      "hit": false,
      "t": 103500,
      "d": 1437.5,
      "v": 85
    },
    {
      "midi": 59,
      "hit": false,
      "t": 103500,
      "d": 1437.5,
      "v": 85
    },
    {
      "midi": 50,
      "hit": false,
      "t": 104250,
      "d": 687.5,
      "v": 78
    },
    {
      "midi": 55,
      "hit": false,
      "t": 105000,
      "d": 687.5,
      "v": 78
    },
    {
      "midi": 57,
      "hit": false,
      "t": 105000,
      "d": 1437.5,
      "v": 86
    },
    {
      "midi": 60,
      "hit": false,
      "t": 105000,
      "d": 1437.5,
      "v": 86
    },
    {
      "midi": 50,
      "hit": false,
      "t": 105750,
      "d": 687.5,
      "v": 78
    },
    {
      "midi": 53,
      "hit": false,
      "t": 106500,
      "d": 687.5,
      "v": 78
    },
    {
      "midi": 59,
      "hit": false,
      "t": 106500,
      "d": 1437.5,
      "v": 86
    },
    {
      "midi": 62,
      "hit": false,
      "t": 106500,
      "d": 1500,
      "v": 86
    },
    {
      "midi": 50,
      "hit": false,
      "t": 107250,
      "d": 687.5,
      "v": 78
    },
    {
      "midi": 67,
      "hit": false,
      "t": 107250,
      "d": 750,
      "v": 86
    },
    {
      "midi": 48,
      "hit": false,
      "t": 108000,
      "d": 687.5,
      "v": 78
    },
    {
      "midi": 62,
      "hit": false,
      "t": 108000,
      "d": 1437.5,
      "v": 86
    },
    {
      "midi": 64,
      "hit": false,
      "t": 108000,
      "d": 1437.5,
      "v": 86
    },
    {
      "midi": 67,
      "hit": false,
      "t": 108000,
      "d": 1437.5,
      "v": 86
    },
    {
      "midi": 55,
      "hit": false,
      "t": 108750,
      "d": 1437.5,
      "v": 78
    },
    {
      "midi": 62,
      "hit": false,
      "t": 109500,
      "d": 1437.5,
      "v": 86
    },
    {
      "midi": 64,
      "hit": false,
      "t": 109500,
      "d": 1437.5,
      "v": 86
    },
    {
      "midi": 67,
      "hit": false,
      "t": 109500,
      "d": 1437.5,
      "v": 86
    },
    {
      "midi": 55,
      "hit": false,
      "t": 110250,
      "d": 687.5,
      "v": 78
    },
    {
      "midi": 43,
      "hit": false,
      "t": 111000,
      "d": 687.5,
      "v": 78
    },
    {
      "midi": 60,
      "hit": false,
      "t": 111000,
      "d": 1437.5,
      "v": 87
    },
    {
      "midi": 62,
      "hit": false,
      "t": 111000,
      "d": 1437.5,
      "v": 87
    },
    {
      "midi": 65,
      "hit": false,
      "t": 111000,
      "d": 1437.5,
      "v": 87
    },
    {
      "midi": 55,
      "hit": false,
      "t": 111750,
      "d": 1437.5,
      "v": 79
    },
    {
      "midi": 60,
      "hit": false,
      "t": 112500,
      "d": 1437.5,
      "v": 87
    },
    {
      "midi": 62,
      "hit": false,
      "t": 112500,
      "d": 1437.5,
      "v": 87
    },
    {
      "midi": 65,
      "hit": false,
      "t": 112500,
      "d": 1437.5,
      "v": 87
    },
    {
      "midi": 55,
      "hit": false,
      "t": 113250,
      "d": 687.5,
      "v": 79
    },
    {
      "midi": 48,
      "hit": false,
      "t": 114000,
      "d": 687.5,
      "v": 79
    },
    {
      "midi": 62,
      "hit": false,
      "t": 114000,
      "d": 1437.5,
      "v": 87
    },
    {
      "midi": 64,
      "hit": false,
      "t": 114000,
      "d": 1437.5,
      "v": 87
    },
    {
      "midi": 67,
      "hit": false,
      "t": 114000,
      "d": 1437.5,
      "v": 87
    },
    {
      "midi": 55,
      "hit": false,
      "t": 114750,
      "d": 1437.5,
      "v": 79
    },
    {
      "midi": 62,
      "hit": false,
      "t": 115500,
      "d": 1437.5,
      "v": 87
    },
    {
      "midi": 64,
      "hit": false,
      "t": 115500,
      "d": 1437.5,
      "v": 87
    },
    {
      "midi": 67,
      "hit": false,
      "t": 115500,
      "d": 1437.5,
      "v": 87
    },
    {
      "midi": 55,
      "hit": false,
      "t": 116250,
      "d": 687.5,
      "v": 79
    },
    {
      "midi": 43,
      "hit": false,
      "t": 117000,
      "d": 687.5,
      "v": 79
    },
    {
      "midi": 60,
      "hit": false,
      "t": 117000,
      "d": 687.5,
      "v": 88
    },
    {
      "midi": 62,
      "hit": false,
      "t": 117000,
      "d": 687.5,
      "v": 88
    },
    {
      "midi": 55,
      "hit": false,
      "t": 117750,
      "d": 1437.5,
      "v": 79
    },
    {
      "midi": 64,
      "hit": false,
      "t": 117750,
      "d": 687.5,
      "v": 88
    },
    {
      "midi": 60,
      "hit": false,
      "t": 118500,
      "d": 687.5,
      "v": 88
    },
    {
      "midi": 62,
      "hit": false,
      "t": 118500,
      "d": 687.5,
      "v": 88
    },
    {
      "midi": 65,
      "hit": false,
      "t": 118500,
      "d": 687.5,
      "v": 88
    },
    {
      "midi": 55,
      "hit": false,
      "t": 119250,
      "d": 687.5,
      "v": 79
    },
    {
      "midi": 67,
      "hit": false,
      "t": 119250,
      "d": 687.5,
      "v": 88
    },
    {
      "midi": 48,
      "hit": false,
      "t": 120000,
      "d": 687.5,
      "v": 79
    },
    {
      "midi": 62,
      "hit": false,
      "t": 120000,
      "d": 1437.5,
      "v": 88
    },
    {
      "midi": 64,
      "hit": false,
      "t": 120000,
      "d": 1437.5,
      "v": 88
    },
    {
      "midi": 67,
      "hit": false,
      "t": 120000,
      "d": 1437.5,
      "v": 88
    },
    {
      "midi": 55,
      "hit": false,
      "t": 120750,
      "d": 1437.5,
      "v": 79
    },
    {
      "midi": 62,
      "hit": false,
      "t": 121500,
      "d": 1437.5,
      "v": 88
    },
    {
      "midi": 64,
      "hit": false,
      "t": 121500,
      "d": 1437.5,
      "v": 88
    },
    {
      "midi": 67,
      "hit": false,
      "t": 121500,
      "d": 1437.5,
      "v": 88
    },
    {
      "midi": 55,
      "hit": false,
      "t": 122250,
      "d": 687.5,
      "v": 79
    },
    {
      "midi": 43,
      "hit": false,
      "t": 123000,
      "d": 687.5,
      "v": 79
    },
    {
      "midi": 60,
      "hit": false,
      "t": 123000,
      "d": 1437.5,
      "v": 89
    },
    {
      "midi": 62,
      "hit": false,
      "t": 123000,
      "d": 1437.5,
      "v": 89
    },
    {
      "midi": 65,
      "hit": false,
      "t": 123000,
      "d": 1437.5,
      "v": 89
    },
    {
      "midi": 55,
      "hit": false,
      "t": 123750,
      "d": 1437.5,
      "v": 79
    },
    {
      "midi": 60,
      "hit": false,
      "t": 124500,
      "d": 1437.5,
      "v": 89
    },
    {
      "midi": 65,
      "hit": false,
      "t": 124500,
      "d": 1437.5,
      "v": 89
    },
    {
      "midi": 62,
      "hit": false,
      "t": 124500,
      "d": 1500,
      "v": 89
    },
    {
      "midi": 55,
      "hit": false,
      "t": 125250,
      "d": 687.5,
      "v": 80
    },
    {
      "midi": 48,
      "hit": false,
      "t": 126000,
      "d": 687.5,
      "v": 80
    },
    {
      "midi": 62,
      "hit": false,
      "t": 126000,
      "d": 1437.5,
      "v": 89
    },
    {
      "midi": 64,
      "hit": false,
      "t": 126000,
      "d": 1437.5,
      "v": 89
    },
    {
      "midi": 67,
      "hit": false,
      "t": 126000,
      "d": 1437.5,
      "v": 89
    },
    {
      "midi": 55,
      "hit": false,
      "t": 126750,
      "d": 1437.5,
      "v": 80
    },
    {
      "midi": 62,
      "hit": false,
      "t": 127500,
      "d": 1437.5,
      "v": 89
    },
    {
      "midi": 55,
      "hit": false,
      "t": 128250,
      "d": 687.5,
      "v": 80
    },
    {
      "midi": 47,
      "hit": false,
      "t": 129000,
      "d": 1437.5,
      "v": 80
    },
    {
      "midi": 62,
      "hit": false,
      "t": 129000,
      "d": 687.5,
      "v": 90
    },
    {
      "midi": 64,
      "hit": false,
      "t": 129000,
      "d": 687.5,
      "v": 90
    },
    {
      "midi": 67,
      "hit": false,
      "t": 129750,
      "d": 687.5,
      "v": 90
    },
    {
      "midi": 45,
      "hit": false,
      "t": 130500,
      "d": 1437.5,
      "v": 80
    },
    {
      "midi": 57,
      "hit": false,
      "t": 130500,
      "d": 1437.5,
      "v": 80
    },
    {
      "midi": 60,
      "hit": false,
      "t": 130500,
      "d": 687.5,
      "v": 90
    },
    {
      "midi": 69,
      "hit": false,
      "t": 130500,
      "d": 687.5,
      "v": 90
    },
    {
      "midi": 72,
      "hit": false,
      "t": 131250,
      "d": 687.5,
      "v": 90
    },
    {
      "midi": 41,
      "hit": false,
      "t": 132000,
      "d": 687.5,
      "v": 80
    },
    {
      "midi": 60,
      "hit": false,
      "t": 132000,
      "d": 2937.5,
      "v": 90
    },
    {
      "midi": 65,
      "hit": false,
      "t": 132000,
      "d": 2937.5,
      "v": 90
    },
    {
      "midi": 71,
      "hit": false,
      "t": 132000,
      "d": 3312.5,
      "v": 90
    },
    {
      "midi": 48,
      "hit": false,
      "t": 132750,
      "d": 687.5,
      "v": 80
    },
    {
      "midi": 57,
      "hit": false,
      "t": 133500,
      "d": 1437.5,
      "v": 80
    },
    {
      "midi": 72,
      "hit": false,
      "t": 134250,
      "d": 687.5,
      "v": 90
    },
    {
      "midi": 38,
      "hit": false,
      "t": 135000,
      "d": 687.5,
      "v": 80
    },
    {
      "midi": 69,
      "hit": false,
      "t": 135000,
      "d": 2250,
      "v": 91
    },
    {
      "midi": 60,
      "hit": false,
      "t": 135000,
      "d": 2937.5,
      "v": 91
    },
    {
      "midi": 65,
      "hit": false,
      "t": 135000,
      "d": 2937.5,
      "v": 91
    },
    {
      "midi": 45,
      "hit": false,
      "t": 135750,
      "d": 687.5,
      "v": 80
    },
    {
      "midi": 53,
      "hit": false,
      "t": 136500,
      "d": 1437.5,
      "v": 80
    },
    {
      "midi": 69,
      "hit": false,
      "t": 137250,
      "d": 687.5,
      "v": 91
    },
    {
      "midi": 40,
      "hit": false,
      "t": 138000,
      "d": 687.5,
      "v": 81
    },
    {
      "midi": 59,
      "hit": false,
      "t": 138000,
      "d": 2937.5,
      "v": 91
    },
    {
      "midi": 62,
      "hit": false,
      "t": 138000,
      "d": 2937.5,
      "v": 91
    },
    {
      "midi": 67,
      "hit": false,
      "t": 138000,
      "d": 2937.5,
      "v": 91
    },
    {
      "midi": 47,
      "hit": false,
      "t": 138750,
      "d": 687.5,
      "v": 81
    },
    {
      "midi": 55,
      "hit": false,
      "t": 139500,
      "d": 1437.5,
      "v": 81
    },
    {
      "midi": 69,
      "hit": false,
      "t": 140250,
      "d": 687.5,
      "v": 91
    },
    {
      "midi": 45,
      "hit": false,
      "t": 141000,
      "d": 687.5,
      "v": 81
    },
    {
      "midi": 60,
      "hit": false,
      "t": 141000,
      "d": 1437.5,
      "v": 92
    },
    {
      "midi": 52,
      "hit": false,
      "t": 141750,
      "d": 687.5,
      "v": 81
    },
    {
      "midi": 55,
      "hit": false,
      "t": 142500,
      "d": 1437.5,
      "v": 81
    },
    {
      "midi": 55,
      "hit": false,
      "t": 143250,
      "d": 312.5,
      "v": 92
    },
    {
      "midi": 55,
      "hit": false,
      "t": 143625,
      "d": 312.5,
      "v": 92
    },
    {
      "midi": 43,
      "hit": false,
      "t": 144000,
      "d": 687.5,
      "v": 81
    },
    {
      "midi": 64,
      "hit": false,
      "t": 144000,
      "d": 312.5,
      "v": 92
    },
    {
      "midi": 57,
      "hit": false,
      "t": 144000,
      "d": 5937.5,
      "v": 92
    },
    {
      "midi": 60,
      "hit": false,
      "t": 144000,
      "d": 5937.5,
      "v": 92
    },
    {
      "midi": 50,
      "hit": false,
      "t": 144750,
      "d": 687.5,
      "v": 81
    },
    {
      "midi": 62,
      "hit": false,
      "t": 144750,
      "d": 687.5,
      "v": 92
    },
    {
      "midi": 53,
      "hit": false,
      "t": 145500,
      "d": 687.5,
      "v": 81
    },
    {
      "midi": 62,
      "hit": false,
      "t": 145500,
      "d": 687.5,
      "v": 92
    },
    {
      "midi": 50,
      "hit": false,
      "t": 146250,
      "d": 687.5,
      "v": 81
    },
    {
      "midi": 55,
      "hit": false,
      "t": 147000,
      "d": 687.5,
      "v": 81
    },
    {
      "midi": 50,
      "hit": false,
      "t": 147750,
      "d": 687.5,
      "v": 81
    },
    {
      "midi": 53,
      "hit": false,
      "t": 148500,
      "d": 687.5,
      "v": 81
    },
    {
      "midi": 50,
      "hit": false,
      "t": 149250,
      "d": 687.5,
      "v": 82
    },
    {
      "midi": 55,
      "hit": false,
      "t": 149250,
      "d": 312.5,
      "v": 93
    },
    {
      "midi": 55,
      "hit": false,
      "t": 149625,
      "d": 312.5,
      "v": 93
    },
    {
      "midi": 43,
      "hit": false,
      "t": 150000,
      "d": 687.5,
      "v": 82
    },
    {
      "midi": 57,
      "hit": false,
      "t": 150000,
      "d": 1437.5,
      "v": 93
    },
    {
      "midi": 60,
      "hit": false,
      "t": 150000,
      "d": 1437.5,
      "v": 93
    },
    {
      "midi": 64,
      "hit": false,
      "t": 150000,
      "d": 1437.5,
      "v": 93
    },
    {
      "midi": 50,
      "hit": false,
      "t": 150750,
      "d": 687.5,
      "v": 82
    },
    {
      "midi": 62,
      "hit": false,
      "t": 150750,
      "d": 687.5,
      "v": 93
    },
    {
      "midi": 53,
      "hit": false,
      "t": 151500,
      "d": 687.5,
      "v": 82
    },
    {
      "midi": 62,
      "hit": false,
      "t": 151500,
      "d": 687.5,
      "v": 93
    },
    {
      "midi": 55,
      "hit": false,
      "t": 151500,
      "d": 1437.5,
      "v": 93
    },
    {
      "midi": 59,
      "hit": false,
      "t": 151500,
      "d": 1437.5,
      "v": 93
    },
    {
      "midi": 50,
      "hit": false,
      "t": 152250,
      "d": 687.5,
      "v": 82
    },
    {
      "midi": 55,
      "hit": false,
      "t": 153000,
      "d": 687.5,
      "v": 82
    },
    {
      "midi": 57,
      "hit": false,
      "t": 153000,
      "d": 1437.5,
      "v": 94
    },
    {
      "midi": 60,
      "hit": false,
      "t": 153000,
      "d": 1437.5,
      "v": 94
    },
    {
      "midi": 50,
      "hit": false,
      "t": 153750,
      "d": 687.5,
      "v": 82
    },
    {
      "midi": 53,
      "hit": false,
      "t": 154500,
      "d": 687.5,
      "v": 82
    },
    {
      "midi": 59,
      "hit": false,
      "t": 154500,
      "d": 1437.5,
      "v": 94
    },
    {
      "midi": 62,
      "hit": false,
      "t": 154500,
      "d": 1437.5,
      "v": 94
    },
    {
      "midi": 50,
      "hit": false,
      "t": 155250,
      "d": 687.5,
      "v": 82
    },
    {
      "midi": 67,
      "hit": false,
      "t": 155250,
      "d": 687.5,
      "v": 94
    },
    {
      "midi": 36,
      "hit": false,
      "t": 156000,
      "d": 687.5,
      "v": 82
    },
    {
      "midi": 60,
      "hit": false,
      "t": 156000,
      "d": 2937.5,
      "v": 94
    },
    {
      "midi": 55,
      "hit": false,
      "t": 156750,
      "d": 1437.5,
      "v": 82
    },
    {
      "midi": 62,
      "hit": false,
      "t": 157500,
      "d": 1437.5,
      "v": 94
    },
    {
      "midi": 64,
      "hit": false,
      "t": 157500,
      "d": 1437.5,
      "v": 94
    },
    {
      "midi": 67,
      "hit": false,
      "t": 157500,
      "d": 1437.5,
      "v": 94
    },
    {
      "midi": 55,
      "hit": false,
      "t": 158250,
      "d": 1437.5,
      "v": 82
    },
    {
      "midi": 62,
      "hit": false,
      "t": 159000,
      "d": 1437.5,
      "v": 95
    },
    {
      "midi": 64,
      "hit": false,
      "t": 159000,
      "d": 1437.5,
      "v": 95
    },
    {
      "midi": 67,
      "hit": false,
      "t": 159000,
      "d": 1437.5,
      "v": 95
    },
    {
      "midi": 55,
      "hit": false,
      "t": 159750,
      "d": 1437.5,
      "v": 82
    },
    {
      "midi": 62,
      "hit": false,
      "t": 160500,
      "d": 1437.5,
      "v": 95
    },
    {
      "midi": 64,
      "hit": false,
      "t": 160500,
      "d": 1437.5,
      "v": 95
    },
    {
      "midi": 67,
      "hit": false,
      "t": 160500,
      "d": 1437.5,
      "v": 95
    },
    {
      "midi": 55,
      "hit": false,
      "t": 161250,
      "d": 687.5,
      "v": 82
    },
    {
      "midi": 36,
      "hit": false,
      "t": 162000,
      "d": 687.5,
      "v": 83
    },
    {
      "midi": 62,
      "hit": false,
      "t": 162000,
      "d": 1437.5,
      "v": 95
    },
    {
      "midi": 64,
      "hit": false,
      "t": 162000,
      "d": 1437.5,
      "v": 95
    },
    {
      "midi": 67,
      "hit": false,
      "t": 162000,
      "d": 1437.5,
      "v": 95
    },
    {
      "midi": 55,
      "hit": false,
      "t": 162750,
      "d": 1437.5,
      "v": 83
    },
    {
      "midi": 62,
      "hit": false,
      "t": 163500,
      "d": 1437.5,
      "v": 95
    },
    {
      "midi": 64,
      "hit": false,
      "t": 163500,
      "d": 1437.5,
      "v": 95
    },
    {
      "midi": 67,
      "hit": false,
      "t": 163500,
      "d": 1437.5,
      "v": 95
    },
    {
      "midi": 55,
      "hit": false,
      "t": 164250,
      "d": 1437.5,
      "v": 83
    },
    {
      "midi": 62,
      "hit": false,
      "t": 165000,
      "d": 1437.5,
      "v": 96
    },
    {
      "midi": 64,
      "hit": false,
      "t": 165000,
      "d": 1437.5,
      "v": 96
    },
    {
      "midi": 67,
      "hit": false,
      "t": 165000,
      "d": 1437.5,
      "v": 96
    },
    {
      "midi": 55,
      "hit": false,
      "t": 165750,
      "d": 1437.5,
      "v": 83
    },
    {
      "midi": 62,
      "hit": false,
      "t": 166500,
      "d": 1437.5,
      "v": 96
    },
    {
      "midi": 64,
      "hit": false,
      "t": 166500,
      "d": 1437.5,
      "v": 96
    },
    {
      "midi": 67,
      "hit": false,
      "t": 166500,
      "d": 1437.5,
      "v": 96
    },
    {
      "midi": 55,
      "hit": false,
      "t": 167250,
      "d": 687.5,
      "v": 83
    },
    {
      "midi": 60,
      "hit": false,
      "t": 167250,
      "d": 687.5,
      "v": 96
    },
    {
      "midi": 41,
      "hit": false,
      "t": 168000,
      "d": 687.5,
      "v": 83
    },
    {
      "midi": 60,
      "hit": false,
      "t": 168000,
      "d": 2562.5,
      "v": 96
    },
    {
      "midi": 65,
      "hit": false,
      "t": 168000,
      "d": 2562.5,
      "v": 96
    },
    {
      "midi": 69,
      "hit": false,
      "t": 168000,
      "d": 2562.5,
      "v": 96
    },
    {
      "midi": 48,
      "hit": false,
      "t": 168750,
      "d": 687.5,
      "v": 83
    },
    {
      "midi": 57,
      "hit": false,
      "t": 169500,
      "d": 1437.5,
      "v": 83
    },
    {
      "midi": 40,
      "hit": false,
      "t": 171000,
      "d": 687.5,
      "v": 83
    },
    {
      "midi": 71,
      "hit": false,
      "t": 171000,
      "d": 312.5,
      "v": 97
    },
    {
      "midi": 62,
      "hit": false,
      "t": 171000,
      "d": 2562.5,
      "v": 97
    },
    {
      "midi": 67,
      "hit": false,
      "t": 171000,
      "d": 2562.5,
      "v": 97
    },
    {
      "midi": 47,
      "hit": false,
      "t": 171750,
      "d": 687.5,
      "v": 83
    },
    {
      "midi": 72,
      "hit": false,
      "t": 171750,
      "d": 687.5,
      "v": 97
    },
    {
      "midi": 55,
      "hit": false,
      "t": 172500,
      "d": 1437.5,
      "v": 83
    },
    {
      "midi": 74,
      "hit": false,
      "t": 172500,
      "d": 687.5,
      "v": 97
    },
    {
      "midi": 71,
      "hit": false,
      "t": 173250,
      "d": 312.5,
      "v": 97
    },
    {
      "midi": 62,
      "hit": false,
      "t": 173625,
      "d": 312.5,
      "v": 97
    },
    {
      "midi": 67,
      "hit": false,
      "t": 173625,
      "d": 312.5,
      "v": 97
    },
    {
      "midi": 41,
      "hit": false,
      "t": 174000,
      "d": 687.5,
      "v": 83
    },
    {
      "midi": 60,
      "hit": false,
      "t": 174000,
      "d": 2937.5,
      "v": 97
    },
    {
      "midi": 65,
      "hit": false,
      "t": 174000,
      "d": 2937.5,
      "v": 97
    },
    {
      "midi": 69,
      "hit": false,
      "t": 174000,
      "d": 2937.5,
      "v": 97
    },
    {
      "midi": 48,
      "hit": false,
      "t": 174750,
      "d": 687.5,
      "v": 84
    },
    {
      "midi": 57,
      "hit": false,
      "t": 175500,
      "d": 1437.5,
      "v": 84
    },
    {
      "midi": 55,
      "hit": false,
      "t": 177000,
      "d": 1437.5,
      "v": 84
    },
    {
      "midi": 59,
      "hit": false,
      "t": 177000,
      "d": 2937.5,
      "v": 98
    },
    {
      "midi": 62,
      "hit": false,
      "t": 177750,
      "d": 2187.5,
      "v": 98
    },
    {
      "midi": 48,
      "hit": false,
      "t": 178500,
      "d": 1437.5,
      "v": 84
    },
    {
      "midi": 55,
      "hit": false,
      "t": 178500,
      "d": 1437.5,
      "v": 84
    },
    {
      "midi": 64,
      "hit": false,
      "t": 178500,
      "d": 1437.5,
      "v": 98
    },
    {
      "midi": 67,
      "hit": false,
      "t": 179250,
      "d": 687.5,
      "v": 98
    },
    {
      "midi": 41,
      "hit": false,
      "t": 180000,
      "d": 687.5,
      "v": 84
    },
    {
      "midi": 60,
      "hit": false,
      "t": 180000,
      "d": 2937.5,
      "v": 98
    },
    {
      "midi": 65,
      "hit": false,
      "t": 180000,
      "d": 2937.5,
      "v": 98
    },
    {
      "midi": 69,
      "hit": false,
      "t": 180000,
      "d": 2937.5,
      "v": 98
    },
    {
      "midi": 48,
      "hit": false,
      "t": 180750,
      "d": 687.5,
      "v": 84
    },
    {
      "midi": 57,
      "hit": false,
      "t": 181500,
      "d": 1437.5,
      "v": 84
    },
    {
      "midi": 40,
      "hit": false,
      "t": 183000,
      "d": 687.5,
      "v": 84
    },
    {
      "midi": 71,
      "hit": false,
      "t": 183000,
      "d": 687.5,
      "v": 99
    },
    {
      "midi": 62,
      "hit": false,
      "t": 183000,
      "d": 2937.5,
      "v": 99
    },
    {
      "midi": 67,
      "hit": false,
      "t": 183000,
      "d": 2937.5,
      "v": 99
    },
    {
      "midi": 47,
      "hit": false,
      "t": 183750,
      "d": 687.5,
      "v": 84
    },
    {
      "midi": 72,
      "hit": false,
      "t": 183750,
      "d": 687.5,
      "v": 99
    },
    {
      "midi": 55,
      "hit": false,
      "t": 184500,
      "d": 1437.5,
      "v": 84
    },
    {
      "midi": 74,
      "hit": false,
      "t": 184500,
      "d": 687.5,
      "v": 99
    },
    {
      "midi": 71,
      "hit": false,
      "t": 185250,
      "d": 687.5,
      "v": 99
    },
    {
      "midi": 38,
      "hit": false,
      "t": 186000,
      "d": 687.5,
      "v": 84
    },
    {
      "midi": 72,
      "hit": false,
      "t": 186000,
      "d": 1437.5,
      "v": 99
    },
    {
      "midi": 60,
      "hit": false,
      "t": 186000,
      "d": 2250,
      "v": 99
    },
    {
      "midi": 65,
      "hit": false,
      "t": 186000,
      "d": 2250,
      "v": 99
    },
    {
      "midi": 45,
      "hit": false,
      "t": 186750,
      "d": 687.5,
      "v": 85
    },
    {
      "midi": 53,
      "hit": false,
      "t": 187500,
      "d": 1437.5,
      "v": 85
    },
    {
      "midi": 60,
      "hit": false,
      "t": 188250,
      "d": 687.5,
      "v": 99
    },
    {
      "midi": 65,
      "hit": false,
      "t": 188250,
      "d": 687.5,
      "v": 99
    },
    {
      "midi": 43,
      "hit": false,
      "t": 189000,
      "d": 1437.5,
      "v": 85
    },
    {
      "midi": 50,
      "hit": false,
      "t": 189000,
      "d": 1437.5,
      "v": 85
    },
    {
      "midi": 72,
      "hit": false,
      "t": 189000,
      "d": 687.5,
      "v": 100
    },
    {
      "midi": 62,
      "hit": false,
      "t": 189000,
      "d": 750,
      "v": 100
    },
    {
      "midi": 67,
      "hit": false,
      "t": 189000,
      "d": 1500,
      "v": 100
    },
    {
      "midi": 62,
      "hit": false,
      "t": 189750,
      "d": 1500,
      "v": 100
    },
    {
      "midi": 41,
      "hit": false,
      "t": 190500,
      "d": 1437.5,
      "v": 85
    },
    {
      "midi": 67,
      "hit": false,
      "t": 190500,
      "d": 687.5,
      "v": 100
    },
    {
      "midi": 71,
      "hit": false,
      "t": 190500,
      "d": 687.5,
      "v": 100
    },
    {
      "midi": 62,
      "hit": false,
      "t": 191250,
      "d": 312.5,
      "v": 100
    },
    {
      "midi": 72,
      "hit": false,
      "t": 191625,
      "d": 312.5,
      "v": 100
    },
    {
      "midi": 40,
      "hit": false,
      "t": 192000,
      "d": 687.5,
      "v": 85
    },
    {
      "midi": 62,
      "hit": false,
      "t": 192000,
      "d": 2187.5,
      "v": 100
    },
    {
      "midi": 67,
      "hit": false,
      "t": 192000,
      "d": 2187.5,
      "v": 100
    },
    {
      "midi": 47,
      "hit": false,
      "t": 192750,
      "d": 687.5,
      "v": 85
    },
    {
      "midi": 55,
      "hit": false,
      "t": 193500,
      "d": 1437.5,
      "v": 85
    },
    {
      "midi": 62,
      "hit": false,
      "t": 194250,
      "d": 687.5,
      "v": 100
    },
    {
      "midi": 67,
      "hit": false,
      "t": 194250,
      "d": 687.5,
      "v": 100
    },
    {
      "midi": 45,
      "hit": false,
      "t": 195000,
      "d": 687.5,
      "v": 85
    },
    {
      "midi": 72,
      "hit": false,
      "t": 195000,
      "d": 1437.5,
      "v": 101
    },
    {
      "midi": 64,
      "hit": false,
      "t": 195000,
      "d": 2187.5,
      "v": 101
    },
    {
      "midi": 69,
      "hit": false,
      "t": 195000,
      "d": 2187.5,
      "v": 101
    },
    {
      "midi": 52,
      "hit": false,
      "t": 195750,
      "d": 687.5,
      "v": 85
    },
    {
      "midi": 60,
      "hit": false,
      "t": 196500,
      "d": 1437.5,
      "v": 85
    },
    {
      "midi": 64,
      "hit": false,
      "t": 197250,
      "d": 687.5,
      "v": 101
    },
    {
      "midi": 72,
      "hit": false,
      "t": 197250,
      "d": 687.5,
      "v": 101
    },
    {
      "midi": 40,
      "hit": false,
      "t": 198000,
      "d": 687.5,
      "v": 85
    },
    {
      "midi": 64,
      "hit": false,
      "t": 198000,
      "d": 2187.5,
      "v": 101
    },
    {
      "midi": 67,
      "hit": false,
      "t": 198000,
      "d": 2187.5,
      "v": 101
    },
    {
      "midi": 71,
      "hit": false,
      "t": 198000,
      "d": 2187.5,
      "v": 101
    },
    {
      "midi": 47,
      "hit": false,
      "t": 198750,
      "d": 687.5,
      "v": 85
    },
    {
      "midi": 55,
      "hit": false,
      "t": 199500,
      "d": 1437.5,
      "v": 86
    },
    {
      "midi": 64,
      "hit": false,
      "t": 200250,
      "d": 687.5,
      "v": 101
    },
    {
      "midi": 71,
      "hit": false,
      "t": 200250,
      "d": 687.5,
      "v": 101
    },
    {
      "midi": 45,
      "hit": false,
      "t": 201000,
      "d": 687.5,
      "v": 86
    },
    {
      "midi": 69,
      "hit": false,
      "t": 201000,
      "d": 687.5,
      "v": 101
    },
    {
      "midi": 72,
      "hit": false,
      "t": 201000,
      "d": 687.5,
      "v": 101
    },
    {
      "midi": 64,
      "hit": false,
      "t": 201000,
      "d": 2937.5,
      "v": 101
    },
    {
      "midi": 52,
      "hit": false,
      "t": 201750,
      "d": 687.5,
      "v": 86
    },
    {
      "midi": 71,
      "hit": false,
      "t": 201750,
      "d": 687.5,
      "v": 102
    },
    {
      "midi": 60,
      "hit": false,
      "t": 202500,
      "d": 1437.5,
      "v": 86
    },
    {
      "midi": 69,
      "hit": false,
      "t": 202500,
      "d": 687.5,
      "v": 102
    },
    {
      "midi": 67,
      "hit": false,
      "t": 203250,
      "d": 687.5,
      "v": 102
    },
    {
      "midi": 40,
      "hit": false,
      "t": 204000,
      "d": 687.5,
      "v": 86
    },
    {
      "midi": 62,
      "hit": false,
      "t": 204000,
      "d": 2937.5,
      "v": 102
    },
    {
      "midi": 67,
      "hit": false,
      "t": 204000,
      "d": 2937.5,
      "v": 102
    },
    {
      "midi": 47,
      "hit": false,
      "t": 204750,
      "d": 687.5,
      "v": 86
    },
    {
      "midi": 55,
      "hit": false,
      "t": 205500,
      "d": 1437.5,
      "v": 86
    },
    {
      "midi": 45,
      "hit": false,
      "t": 207000,
      "d": 687.5,
      "v": 86
    },
    {
      "midi": 60,
      "hit": false,
      "t": 207000,
      "d": 1437.5,
      "v": 102
    },
    {
      "midi": 52,
      "hit": false,
      "t": 207750,
      "d": 687.5,
      "v": 86
    },
    {
      "midi": 64,
      "hit": false,
      "t": 207750,
      "d": 687.5,
      "v": 103
    },
    {
      "midi": 57,
      "hit": false,
      "t": 208500,
      "d": 1437.5,
      "v": 86
    },
    {
      "midi": 60,
      "hit": false,
      "t": 208500,
      "d": 1500,
      "v": 103
    },
    {
      "midi": 57,
      "hit": false,
      "t": 209250,
      "d": 687.5,
      "v": 103
    },
    {
      "midi": 38,
      "hit": false,
      "t": 210000,
      "d": 687.5,
      "v": 86
    },
    {
      "midi": 60,
      "hit": false,
      "t": 210000,
      "d": 2937.5,
      "v": 103
    },
    {
      "midi": 65,
      "hit": false,
      "t": 210000,
      "d": 2937.5,
      "v": 103
    },
    {
      "midi": 69,
      "hit": false,
      "t": 210000,
      "d": 2937.5,
      "v": 103
    },
    {
      "midi": 45,
      "hit": false,
      "t": 210750,
      "d": 687.5,
      "v": 86
    },
    {
      "midi": 50,
      "hit": false,
      "t": 211500,
      "d": 1437.5,
      "v": 86
    },
    {
      "midi": 43,
      "hit": false,
      "t": 213000,
      "d": 2187.5,
      "v": 87
    },
    {
      "midi": 53,
      "hit": false,
      "t": 213000,
      "d": 2187.5,
      "v": 87
    },
    {
      "midi": 59,
      "hit": false,
      "t": 213000,
      "d": 2187.5,
      "v": 103
    },
    {
      "midi": 62,
      "hit": false,
      "t": 213000,
      "d": 2187.5,
      "v": 103
    },
    {
      "midi": 67,
      "hit": false,
      "t": 213000,
      "d": 2187.5,
      "v": 103
    },
    {
      "midi": 55,
      "hit": false,
      "t": 215250,
      "d": 687.5,
      "v": 104
    },
    {
      "midi": 67,
      "hit": false,
      "t": 215250,
      "d": 687.5,
      "v": 104
    },
    {
      "midi": 48,
      "hit": false,
      "t": 216000,
      "d": 687.5,
      "v": 87
    },
    {
      "midi": 62,
      "hit": false,
      "t": 216000,
      "d": 1437.5,
      "v": 104
    },
    {
      "midi": 64,
      "hit": false,
      "t": 216000,
      "d": 1437.5,
      "v": 104
    },
    {
      "midi": 67,
      "hit": false,
      "t": 216000,
      "d": 1437.5,
      "v": 104
    },
    {
      "midi": 55,
      "hit": false,
      "t": 216750,
      "d": 1437.5,
      "v": 87
    },
    {
      "midi": 62,
      "hit": false,
      "t": 217500,
      "d": 1437.5,
      "v": 104
    },
    {
      "midi": 64,
      "hit": false,
      "t": 217500,
      "d": 1437.5,
      "v": 104
    },
    {
      "midi": 67,
      "hit": false,
      "t": 217500,
      "d": 1437.5,
      "v": 104
    },
    {
      "midi": 55,
      "hit": false,
      "t": 218250,
      "d": 687.5,
      "v": 87
    },
    {
      "midi": 43,
      "hit": false,
      "t": 219000,
      "d": 687.5,
      "v": 87
    },
    {
      "midi": 60,
      "hit": false,
      "t": 219000,
      "d": 1437.5,
      "v": 104
    },
    {
      "midi": 62,
      "hit": false,
      "t": 219000,
      "d": 1437.5,
      "v": 104
    },
    {
      "midi": 65,
      "hit": false,
      "t": 219000,
      "d": 1437.5,
      "v": 104
    },
    {
      "midi": 55,
      "hit": false,
      "t": 219750,
      "d": 1437.5,
      "v": 87
    },
    {
      "midi": 60,
      "hit": false,
      "t": 220500,
      "d": 1437.5,
      "v": 105
    },
    {
      "midi": 62,
      "hit": false,
      "t": 220500,
      "d": 1437.5,
      "v": 105
    },
    {
      "midi": 65,
      "hit": false,
      "t": 220500,
      "d": 1437.5,
      "v": 105
    },
    {
      "midi": 55,
      "hit": false,
      "t": 221250,
      "d": 687.5,
      "v": 87
    },
    {
      "midi": 48,
      "hit": false,
      "t": 222000,
      "d": 687.5,
      "v": 87
    },
    {
      "midi": 62,
      "hit": false,
      "t": 222000,
      "d": 1437.5,
      "v": 105
    },
    {
      "midi": 64,
      "hit": false,
      "t": 222000,
      "d": 1437.5,
      "v": 105
    },
    {
      "midi": 67,
      "hit": false,
      "t": 222000,
      "d": 1437.5,
      "v": 105
    },
    {
      "midi": 55,
      "hit": false,
      "t": 222750,
      "d": 1437.5,
      "v": 87
    },
    {
      "midi": 62,
      "hit": false,
      "t": 223500,
      "d": 1437.5,
      "v": 105
    },
    {
      "midi": 64,
      "hit": false,
      "t": 223500,
      "d": 1437.5,
      "v": 105
    },
    {
      "midi": 67,
      "hit": false,
      "t": 223500,
      "d": 1437.5,
      "v": 105
    },
    {
      "midi": 55,
      "hit": false,
      "t": 224250,
      "d": 687.5,
      "v": 87
    },
    {
      "midi": 43,
      "hit": false,
      "t": 225000,
      "d": 687.5,
      "v": 88
    },
    {
      "midi": 60,
      "hit": false,
      "t": 225000,
      "d": 687.5,
      "v": 105
    },
    {
      "midi": 62,
      "hit": false,
      "t": 225000,
      "d": 687.5,
      "v": 105
    },
    {
      "midi": 55,
      "hit": false,
      "t": 225750,
      "d": 1437.5,
      "v": 88
    },
    {
      "midi": 64,
      "hit": false,
      "t": 225750,
      "d": 687.5,
      "v": 106
    },
    {
      "midi": 60,
      "hit": false,
      "t": 226500,
      "d": 687.5,
      "v": 106
    },
    {
      "midi": 62,
      "hit": false,
      "t": 226500,
      "d": 687.5,
      "v": 106
    },
    {
      "midi": 65,
      "hit": false,
      "t": 226500,
      "d": 687.5,
      "v": 106
    },
    {
      "midi": 55,
      "hit": false,
      "t": 227250,
      "d": 687.5,
      "v": 88
    },
    {
      "midi": 67,
      "hit": false,
      "t": 227250,
      "d": 687.5,
      "v": 106
    },
    {
      "midi": 48,
      "hit": false,
      "t": 228000,
      "d": 687.5,
      "v": 88
    },
    {
      "midi": 62,
      "hit": false,
      "t": 228000,
      "d": 1437.5,
      "v": 106
    },
    {
      "midi": 64,
      "hit": false,
      "t": 228000,
      "d": 1437.5,
      "v": 106
    },
    {
      "midi": 67,
      "hit": false,
      "t": 228000,
      "d": 1437.5,
      "v": 106
    },
    {
      "midi": 55,
      "hit": false,
      "t": 228750,
      "d": 1437.5,
      "v": 88
    },
    {
      "midi": 62,
      "hit": false,
      "t": 229500,
      "d": 1437.5,
      "v": 106
    },
    {
      "midi": 64,
      "hit": false,
      "t": 229500,
      "d": 1437.5,
      "v": 106
    },
    {
      "midi": 67,
      "hit": false,
      "t": 229500,
      "d": 1437.5,
      "v": 106
    },
    {
      "midi": 55,
      "hit": false,
      "t": 230250,
      "d": 687.5,
      "v": 88
    },
    {
      "midi": 43,
      "hit": false,
      "t": 231000,
      "d": 687.5,
      "v": 88
    },
    {
      "midi": 60,
      "hit": false,
      "t": 231000,
      "d": 1437.5,
      "v": 106
    },
    {
      "midi": 62,
      "hit": false,
      "t": 231000,
      "d": 1437.5,
      "v": 106
    },
    {
      "midi": 65,
      "hit": false,
      "t": 231000,
      "d": 1437.5,
      "v": 106
    },
    {
      "midi": 55,
      "hit": false,
      "t": 231750,
      "d": 1437.5,
      "v": 88
    },
    {
      "midi": 60,
      "hit": false,
      "t": 232500,
      "d": 1437.5,
      "v": 107
    },
    {
      "midi": 65,
      "hit": false,
      "t": 232500,
      "d": 1437.5,
      "v": 107
    },
    {
      "midi": 62,
      "hit": false,
      "t": 232500,
      "d": 1500,
      "v": 107
    },
    {
      "midi": 55,
      "hit": false,
      "t": 233250,
      "d": 687.5,
      "v": 88
    },
    {
      "midi": 48,
      "hit": false,
      "t": 234000,
      "d": 687.5,
      "v": 88
    },
    {
      "midi": 62,
      "hit": false,
      "t": 234000,
      "d": 1437.5,
      "v": 107
    },
    {
      "midi": 64,
      "hit": false,
      "t": 234000,
      "d": 1437.5,
      "v": 107
    },
    {
      "midi": 67,
      "hit": false,
      "t": 234000,
      "d": 1437.5,
      "v": 107
    },
    {
      "midi": 55,
      "hit": false,
      "t": 234750,
      "d": 1437.5,
      "v": 88
    },
    {
      "midi": 62,
      "hit": false,
      "t": 235500,
      "d": 1437.5,
      "v": 107
    },
    {
      "midi": 55,
      "hit": false,
      "t": 236250,
      "d": 687.5,
      "v": 88
    },
    {
      "midi": 47,
      "hit": false,
      "t": 237000,
      "d": 1437.5,
      "v": 89
    },
    {
      "midi": 62,
      "hit": false,
      "t": 237000,
      "d": 687.5,
      "v": 107
    },
    {
      "midi": 64,
      "hit": false,
      "t": 237000,
      "d": 687.5,
      "v": 107
    },
    {
      "midi": 67,
      "hit": false,
      "t": 237750,
      "d": 687.5,
      "v": 108
    },
    {
      "midi": 45,
      "hit": false,
      "t": 238500,
      "d": 1437.5,
      "v": 89
    },
    {
      "midi": 57,
      "hit": false,
      "t": 238500,
      "d": 1437.5,
      "v": 89
    },
    {
      "midi": 60,
      "hit": false,
      "t": 238500,
      "d": 687.5,
      "v": 108
    },
    {
      "midi": 69,
      "hit": false,
      "t": 238500,
      "d": 687.5,
      "v": 108
    },
    {
      "midi": 72,
      "hit": false,
      "t": 239250,
      "d": 687.5,
      "v": 108
    },
    {
      "midi": 41,
      "hit": false,
      "t": 240000,
      "d": 687.5,
      "v": 89
    },
    {
      "midi": 60,
      "hit": false,
      "t": 240000,
      "d": 2937.5,
      "v": 108
    },
    {
      "midi": 65,
      "hit": false,
      "t": 240000,
      "d": 2937.5,
      "v": 108
    },
    {
      "midi": 71,
      "hit": false,
      "t": 240000,
      "d": 3312.5,
      "v": 108
    },
    {
      "midi": 48,
      "hit": false,
      "t": 240750,
      "d": 687.5,
      "v": 89
    },
    {
      "midi": 57,
      "hit": false,
      "t": 241500,
      "d": 1437.5,
      "v": 89
    },
    {
      "midi": 72,
      "hit": false,
      "t": 242250,
      "d": 687.5,
      "v": 108
    },
    {
      "midi": 38,
      "hit": false,
      "t": 243000,
      "d": 687.5,
      "v": 89
    },
    {
      "midi": 69,
      "hit": false,
      "t": 243000,
      "d": 2250,
      "v": 108
    },
    {
      "midi": 60,
      "hit": false,
      "t": 243000,
      "d": 2937.5,
      "v": 108
    },
    {
      "midi": 65,
      "hit": false,
      "t": 243000,
      "d": 2937.5,
      "v": 108
    },
    {
      "midi": 45,
      "hit": false,
      "t": 243750,
      "d": 687.5,
      "v": 89
    },
    {
      "midi": 53,
      "hit": false,
      "t": 244500,
      "d": 1437.5,
      "v": 89
    },
    {
      "midi": 69,
      "hit": false,
      "t": 245250,
      "d": 687.5,
      "v": 109
    },
    {
      "midi": 40,
      "hit": false,
      "t": 246000,
      "d": 687.5,
      "v": 89
    },
    {
      "midi": 59,
      "hit": false,
      "t": 246000,
      "d": 2937.5,
      "v": 109
    },
    {
      "midi": 62,
      "hit": false,
      "t": 246000,
      "d": 2937.5,
      "v": 109
    },
    {
      "midi": 67,
      "hit": false,
      "t": 246000,
      "d": 2937.5,
      "v": 109
    },
    {
      "midi": 47,
      "hit": false,
      "t": 246750,
      "d": 687.5,
      "v": 89
    },
    {
      "midi": 55,
      "hit": false,
      "t": 247500,
      "d": 1437.5,
      "v": 89
    },
    {
      "midi": 69,
      "hit": false,
      "t": 248250,
      "d": 687.5,
      "v": 109
    },
    {
      "midi": 45,
      "hit": false,
      "t": 249000,
      "d": 687.5,
      "v": 89
    },
    {
      "midi": 60,
      "hit": false,
      "t": 249000,
      "d": 1437.5,
      "v": 109
    },
    {
      "midi": 52,
      "hit": false,
      "t": 249750,
      "d": 687.5,
      "v": 90
    },
    {
      "midi": 55,
      "hit": false,
      "t": 250500,
      "d": 1437.5,
      "v": 90
    },
    {
      "midi": 55,
      "hit": false,
      "t": 251250,
      "d": 312.5,
      "v": 110
    },
    {
      "midi": 55,
      "hit": false,
      "t": 251625,
      "d": 312.5,
      "v": 110
    },
    {
      "midi": 43,
      "hit": false,
      "t": 252000,
      "d": 687.5,
      "v": 90
    },
    {
      "midi": 64,
      "hit": false,
      "t": 252000,
      "d": 312.5,
      "v": 110
    },
    {
      "midi": 57,
      "hit": false,
      "t": 252000,
      "d": 5937.5,
      "v": 110
    },
    {
      "midi": 60,
      "hit": false,
      "t": 252000,
      "d": 5937.5,
      "v": 110
    },
    {
      "midi": 50,
      "hit": false,
      "t": 252750,
      "d": 687.5,
      "v": 90
    },
    {
      "midi": 62,
      "hit": false,
      "t": 252750,
      "d": 687.5,
      "v": 110
    },
    {
      "midi": 53,
      "hit": false,
      "t": 253500,
      "d": 687.5,
      "v": 90
    },
    {
      "midi": 62,
      "hit": false,
      "t": 253500,
      "d": 687.5,
      "v": 110
    },
    {
      "midi": 50,
      "hit": false,
      "t": 254250,
      "d": 687.5,
      "v": 90
    },
    {
      "midi": 55,
      "hit": false,
      "t": 255000,
      "d": 687.5,
      "v": 90
    },
    {
      "midi": 50,
      "hit": false,
      "t": 255750,
      "d": 687.5,
      "v": 90
    },
    {
      "midi": 53,
      "hit": false,
      "t": 256500,
      "d": 687.5,
      "v": 90
    },
    {
      "midi": 50,
      "hit": false,
      "t": 257250,
      "d": 687.5,
      "v": 90
    },
    {
      "midi": 55,
      "hit": false,
      "t": 257250,
      "d": 312.5,
      "v": 111
    },
    {
      "midi": 55,
      "hit": false,
      "t": 257625,
      "d": 312.5,
      "v": 111
    },
    {
      "midi": 43,
      "hit": false,
      "t": 258000,
      "d": 687.5,
      "v": 90
    },
    {
      "midi": 57,
      "hit": false,
      "t": 258000,
      "d": 1437.5,
      "v": 111
    },
    {
      "midi": 60,
      "hit": false,
      "t": 258000,
      "d": 1437.5,
      "v": 111
    },
    {
      "midi": 64,
      "hit": false,
      "t": 258000,
      "d": 1437.5,
      "v": 111
    },
    {
      "midi": 50,
      "hit": false,
      "t": 258750,
      "d": 687.5,
      "v": 90
    },
    {
      "midi": 62,
      "hit": false,
      "t": 258750,
      "d": 687.5,
      "v": 111
    },
    {
      "midi": 53,
      "hit": false,
      "t": 259500,
      "d": 687.5,
      "v": 90
    },
    {
      "midi": 62,
      "hit": false,
      "t": 259500,
      "d": 687.5,
      "v": 111
    },
    {
      "midi": 55,
      "hit": false,
      "t": 259500,
      "d": 1437.5,
      "v": 111
    },
    {
      "midi": 59,
      "hit": false,
      "t": 259500,
      "d": 1437.5,
      "v": 111
    },
    {
      "midi": 50,
      "hit": false,
      "t": 260250,
      "d": 687.5,
      "v": 90
    },
    {
      "midi": 55,
      "hit": false,
      "t": 261000,
      "d": 687.5,
      "v": 90
    },
    {
      "midi": 57,
      "hit": false,
      "t": 261000,
      "d": 1437.5,
      "v": 111
    },
    {
      "midi": 60,
      "hit": false,
      "t": 261000,
      "d": 1437.5,
      "v": 111
    },
    {
      "midi": 50,
      "hit": false,
      "t": 261750,
      "d": 687.5,
      "v": 90
    },
    {
      "midi": 53,
      "hit": false,
      "t": 262500,
      "d": 687.5,
      "v": 91
    },
    {
      "midi": 59,
      "hit": false,
      "t": 262500,
      "d": 1437.5,
      "v": 112
    },
    {
      "midi": 62,
      "hit": false,
      "t": 262500,
      "d": 2937.5,
      "v": 112
    },
    {
      "midi": 50,
      "hit": false,
      "t": 263250,
      "d": 687.5,
      "v": 91
    },
    {
      "midi": 67,
      "hit": false,
      "t": 263250,
      "d": 2187.5,
      "v": 112
    },
    {
      "midi": 36,
      "hit": false,
      "t": 264000,
      "d": 687.5,
      "v": 91
    },
    {
      "midi": 60,
      "hit": false,
      "t": 264000,
      "d": 2937.5,
      "v": 112
    },
    {
      "midi": 55,
      "hit": false,
      "t": 264750,
      "d": 1437.5,
      "v": 91
    },
    {
      "midi": 62,
      "hit": false,
      "t": 265500,
      "d": 1437.5,
      "v": 112
    },
    {
      "midi": 64,
      "hit": false,
      "t": 265500,
      "d": 1437.5,
      "v": 112
    },
    {
      "midi": 67,
      "hit": false,
      "t": 265500,
      "d": 1437.5,
      "v": 112
    },
    {
      "midi": 55,
      "hit": false,
      "t": 266250,
      "d": 1437.5,
      "v": 91
    },
    {
      "midi": 55,
      "hit": false,
      "t": 267000,
      "d": 687.5,
      "v": 112
    },
    {
      "midi": 64,
      "hit": false,
      "t": 267000,
      "d": 1125,
      "v": 112
    },
    {
      "midi": 67,
      "hit": false,
      "t": 267000,
      "d": 1296.875,
      "v": 112
    },
    {
      "midi": 62,
      "hit": false,
      "t": 267000,
      "d": 1437.5,
      "v": 112
    },
    {
      "midi": 55,
      "hit": false,
      "t": 267750,
      "d": 1437.5,
      "v": 91
    },
    {
      "midi": 60,
      "hit": false,
      "t": 267750,
      "d": 312.5,
      "v": 113
    },
    {
      "midi": 64,
      "hit": false,
      "t": 268125,
      "d": 140.625,
      "v": 113
    },
    {
      "midi": 67,
      "hit": false,
      "t": 268296.875,
      "d": 140.625,
      "v": 113
    },
    {
      "midi": 60,
      "hit": false,
      "t": 268500,
      "d": 312.5,
      "v": 113
    },
    {
      "midi": 62,
      "hit": false,
      "t": 268500,
      "d": 375,
      "v": 113
    },
    {
      "midi": 64,
      "hit": false,
      "t": 268500,
      "d": 750,
      "v": 113
    },
    {
      "midi": 67,
      "hit": false,
      "t": 268500,
      "d": 1125,
      "v": 113
    },
    {
      "midi": 69,
      "hit": false,
      "t": 268500,
      "d": 1296.875,
      "v": 113
    },
    {
      "midi": 62,
      "hit": false,
      "t": 268875,
      "d": 312.5,
      "v": 113
    },
    {
      "midi": 55,
      "hit": false,
      "t": 269250,
      "d": 687.5,
      "v": 91
    },
    {
      "midi": 64,
      "hit": false,
      "t": 269250,
      "d": 125,
      "v": 113
    },
    {
      "midi": 65,
      "hit": false,
      "t": 269421.875,
      "d": 140.625,
      "v": 113
    },
    {
      "midi": 67,
      "hit": false,
      "t": 269625,
      "d": 125,
      "v": 113
    },
    {
      "midi": 69,
      "hit": false,
      "t": 269796.875,
      "d": 140.625,
      "v": 113
    },
    {
      "midi": 41,
      "hit": false,
      "t": 270000,
      "d": 687.5,
      "v": 91
    },
    {
      "midi": 79,
      "hit": false,
      "t": 270000,
      "d": 2187.5,
      "v": 113
    },
    {
      "midi": 83,
      "hit": false,
      "t": 270000,
      "d": 2187.5,
      "v": 113
    },
    {
      "midi": 48,
      "hit": false,
      "t": 270750,
      "d": 687.5,
      "v": 91
    },
    {
      "midi": 57,
      "hit": false,
      "t": 271500,
      "d": 1437.5,
      "v": 91
    },
    {
      "midi": 81,
      "hit": false,
      "t": 272250,
      "d": 687.5,
      "v": 113
    },
    {
      "midi": 84,
      "hit": false,
      "t": 272250,
      "d": 687.5,
      "v": 113
    },
    {
      "midi": 38,
      "hit": false,
      "t": 273000,
      "d": 687.5,
      "v": 91
    },
    {
      "midi": 83,
      "hit": false,
      "t": 273000,
      "d": 2187.5,
      "v": 113
    },
    {
      "midi": 91,
      "hit": false,
      "t": 273000,
      "d": 2187.5,
      "v": 113
    },
    {
      "midi": 45,
      "hit": false,
      "t": 273750,
      "d": 687.5,
      "v": 91
    },
    {
      "midi": 53,
      "hit": false,
      "t": 274500,
      "d": 1437.5,
      "v": 91
    },
    {
      "midi": 81,
      "hit": false,
      "t": 275250,
      "d": 687.5,
      "v": 114
    },
    {
      "midi": 89,
      "hit": false,
      "t": 275250,
      "d": 687.5,
      "v": 114
    },
    {
      "midi": 40,
      "hit": false,
      "t": 276000,
      "d": 687.5,
      "v": 92
    },
    {
      "midi": 79,
      "hit": false,
      "t": 276000,
      "d": 2187.5,
      "v": 114
    },
    {
      "midi": 88,
      "hit": false,
      "t": 276000,
      "d": 2187.5,
      "v": 114
    },
    {
      "midi": 47,
      "hit": false,
      "t": 276750,
      "d": 687.5,
      "v": 92
    },
    {
      "midi": 55,
      "hit": false,
      "t": 277500,
      "d": 1437.5,
      "v": 92
    },
    {
      "midi": 77,
      "hit": false,
      "t": 278250,
      "d": 187.5,
      "v": 114
    },
    {
      "midi": 86,
      "hit": false,
      "t": 278250,
      "d": 187.5,
      "v": 114
    },
    {
      "midi": 76,
      "hit": false,
      "t": 278500,
      "d": 187.5,
      "v": 114
    },
    {
      "midi": 84,
      "hit": false,
      "t": 278500,
      "d": 187.5,
      "v": 114
    },
    {
      "midi": 74,
      "hit": false,
      "t": 278750,
      "d": 187.5,
      "v": 114
    },
    {
      "midi": 83,
      "hit": false,
      "t": 278750,
      "d": 187.5,
      "v": 114
    },
    {
      "midi": 45,
      "hit": false,
      "t": 279000,
      "d": 687.5,
      "v": 92
    },
    {
      "midi": 76,
      "hit": false,
      "t": 279000,
      "d": 2187.5,
      "v": 114
    },
    {
      "midi": 84,
      "hit": false,
      "t": 279000,
      "d": 2187.5,
      "v": 114
    },
    {
      "midi": 52,
      "hit": false,
      "t": 279750,
      "d": 687.5,
      "v": 92
    },
    {
      "midi": 55,
      "hit": false,
      "t": 280500,
      "d": 1437.5,
      "v": 92
    },
    {
      "midi": 69,
      "hit": false,
      "t": 281250,
      "d": 687.5,
      "v": 115
    },
    {
      "midi": 77,
      "hit": false,
      "t": 281250,
      "d": 687.5,
      "v": 115
    },
    {
      "midi": 43,
      "hit": false,
      "t": 282000,
      "d": 687.5,
      "v": 92
    },
    {
      "midi": 76,
      "hit": false,
      "t": 282000,
      "d": 687.5,
      "v": 115
    },
    {
      "midi": 67,
      "hit": false,
      "t": 282000,
      "d": 5187.5,
      "v": 115
    },
    {
      "midi": 50,
      "hit": false,
      "t": 282750,
      "d": 687.5,
      "v": 92
    },
    {
      "midi": 77,
      "hit": false,
      "t": 282750,
      "d": 687.5,
      "v": 115
    },
    {
      "midi": 53,
      "hit": false,
      "t": 283500,
      "d": 687.5,
      "v": 92
    },
    {
      "midi": 74,
      "hit": false,
      "t": 283500,
      "d": 3687.5,
      "v": 115
    },
    {
      "midi": 50,
      "hit": false,
      "t": 284250,
      "d": 687.5,
      "v": 92
    },
    {
      "midi": 55,
      "hit": false,
      "t": 285000,
      "d": 687.5,
      "v": 92
    },
    {
      "midi": 50,
      "hit": false,
      "t": 285750,
      "d": 687.5,
      "v": 92
    },
    {
      "midi": 53,
      "hit": false,
      "t": 286500,
      "d": 687.5,
      "v": 92
    },
    {
      "midi": 50,
      "hit": false,
      "t": 287250,
      "d": 687.5,
      "v": 93
    },
    {
      "midi": 67,
      "hit": false,
      "t": 287250,
      "d": 687.5,
      "v": 116
    },
    {
      "midi": 44,
      "hit": false,
      "t": 288000,
      "d": 687.5,
      "v": 93
    },
    {
      "midi": 68,
      "hit": false,
      "t": 288000,
      "d": 1437.5,
      "v": 116
    },
    {
      "midi": 77,
      "hit": false,
      "t": 288000,
      "d": 1437.5,
      "v": 116
    },
    {
      "midi": 51,
      "hit": false,
      "t": 288750,
      "d": 687.5,
      "v": 93
    },
    {
      "midi": 54,
      "hit": false,
      "t": 289500,
      "d": 687.5,
      "v": 94
    },
    {
      "midi": 70,
      "hit": false,
      "t": 289500,
      "d": 1437.5,
      "v": 117
    },
    {
      "midi": 78,
      "hit": false,
      "t": 289500,
      "d": 1437.5,
      "v": 117
    },
    {
      "midi": 51,
      "hit": false,
      "t": 290250,
      "d": 687.5,
      "v": 95
    },
    {
      "midi": 56,
      "hit": false,
      "t": 291000,
      "d": 687.5,
      "v": 96
    },
    {
      "midi": 72,
      "hit": false,
      "t": 291000,
      "d": 1437.5,
      "v": 118
    },
    {
      "midi": 80,
      "hit": false,
      "t": 291000,
      "d": 1437.5,
      "v": 118
    },
    {
      "midi": 51,
      "hit": false,
      "t": 291750,
      "d": 687.5,
      "v": 97
    },
    {
      "midi": 54,
      "hit": false,
      "t": 292500,
      "d": 687.5,
      "v": 98
    },
    {
      "midi": 72,
      "hit": false,
      "t": 292500,
      "d": 1437.5,
      "v": 120
    },
    {
      "midi": 51,
      "hit": false,
      "t": 293250,
      "d": 687.5,
      "v": 99
    },
    {
      "midi": 75,
      "hit": false,
      "t": 293250,
      "d": 687.5,
      "v": 121
    },
    {
      "midi": 49,
      "hit": false,
      "t": 294000,
      "d": 687.5,
      "v": 101
    },
    {
      "midi": 63,
      "hit": false,
      "t": 294000,
      "d": 1437.5,
      "v": 125
    },
    {
      "midi": 65,
      "hit": false,
      "t": 294000,
      "d": 1437.5,
      "v": 125
    },
    {
      "midi": 68,
      "hit": false,
      "t": 294000,
      "d": 1437.5,
      "v": 125
    },
    {
      "midi": 75,
      "hit": false,
      "t": 294000,
      "d": 1437.5,
      "v": 125
    },
    {
      "midi": 80,
      "hit": false,
      "t": 294000,
      "d": 4437.5,
      "v": 125
    },
    {
      "midi": 56,
      "hit": false,
      "t": 294750,
      "d": 1437.5,
      "v": 101
    },
    {
      "midi": 63,
      "hit": false,
      "t": 295500,
      "d": 1437.5,
      "v": 125
    },
    {
      "midi": 65,
      "hit": false,
      "t": 295500,
      "d": 1437.5,
      "v": 125
    },
    {
      "midi": 68,
      "hit": false,
      "t": 295500,
      "d": 1437.5,
      "v": 125
    },
    {
      "midi": 73,
      "hit": false,
      "t": 295500,
      "d": 1437.5,
      "v": 125
    },
    {
      "midi": 56,
      "hit": false,
      "t": 296250,
      "d": 687.5,
      "v": 101
    },
    {
      "midi": 44,
      "hit": false,
      "t": 297000,
      "d": 687.5,
      "v": 101
    },
    {
      "midi": 61,
      "hit": false,
      "t": 297000,
      "d": 1437.5,
      "v": 125
    },
    {
      "midi": 63,
      "hit": false,
      "t": 297000,
      "d": 1437.5,
      "v": 125
    },
    {
      "midi": 66,
      "hit": false,
      "t": 297000,
      "d": 1437.5,
      "v": 125
    },
    {
      "midi": 70,
      "hit": false,
      "t": 297000,
      "d": 1437.5,
      "v": 125
    },
    {
      "midi": 85,
      "hit": false,
      "t": 297000,
      "d": 2187.5,
      "v": 125
    },
    {
      "midi": 56,
      "hit": false,
      "t": 297750,
      "d": 1437.5,
      "v": 101
    },
    {
      "midi": 61,
      "hit": false,
      "t": 298500,
      "d": 1437.5,
      "v": 126
    },
    {
      "midi": 63,
      "hit": false,
      "t": 298500,
      "d": 1437.5,
      "v": 126
    },
    {
      "midi": 66,
      "hit": false,
      "t": 298500,
      "d": 1437.5,
      "v": 126
    },
    {
      "midi": 56,
      "hit": false,
      "t": 299250,
      "d": 687.5,
      "v": 101
    },
    {
      "midi": 84,
      "hit": false,
      "t": 299250,
      "d": 687.5,
      "v": 126
    },
    {
      "midi": 49,
      "hit": false,
      "t": 300000,
      "d": 687.5,
      "v": 102
    },
    {
      "midi": 63,
      "hit": false,
      "t": 300000,
      "d": 1437.5,
      "v": 126
    },
    {
      "midi": 65,
      "hit": false,
      "t": 300000,
      "d": 1437.5,
      "v": 126
    },
    {
      "midi": 68,
      "hit": false,
      "t": 300000,
      "d": 1437.5,
      "v": 126
    },
    {
      "midi": 80,
      "hit": false,
      "t": 300000,
      "d": 5187.5,
      "v": 126
    },
    {
      "midi": 56,
      "hit": false,
      "t": 300750,
      "d": 1437.5,
      "v": 102
    },
    {
      "midi": 63,
      "hit": false,
      "t": 301500,
      "d": 1437.5,
      "v": 126
    },
    {
      "midi": 65,
      "hit": false,
      "t": 301500,
      "d": 1437.5,
      "v": 126
    },
    {
      "midi": 68,
      "hit": false,
      "t": 301500,
      "d": 1437.5,
      "v": 126
    },
    {
      "midi": 56,
      "hit": false,
      "t": 302250,
      "d": 687.5,
      "v": 102
    },
    {
      "midi": 44,
      "hit": false,
      "t": 303000,
      "d": 687.5,
      "v": 102
    },
    {
      "midi": 61,
      "hit": false,
      "t": 303000,
      "d": 687.5,
      "v": 126
    },
    {
      "midi": 63,
      "hit": false,
      "t": 303000,
      "d": 687.5,
      "v": 126
    },
    {
      "midi": 56,
      "hit": false,
      "t": 303750,
      "d": 1437.5,
      "v": 102
    },
    {
      "midi": 65,
      "hit": false,
      "t": 303750,
      "d": 1437.5,
      "v": 126
    },
    {
      "midi": 61,
      "hit": false,
      "t": 304500,
      "d": 687.5,
      "v": 127
    },
    {
      "midi": 63,
      "hit": false,
      "t": 304500,
      "d": 687.5,
      "v": 127
    },
    {
      "midi": 66,
      "hit": false,
      "t": 304500,
      "d": 687.5,
      "v": 127
    },
    {
      "midi": 56,
      "hit": false,
      "t": 305250,
      "d": 687.5,
      "v": 101
    },
    {
      "midi": 77,
      "hit": false,
      "t": 305250,
      "d": 312.5,
      "v": 127
    },
    {
      "midi": 68,
      "hit": false,
      "t": 305250,
      "d": 687.5,
      "v": 127
    },
    {
      "midi": 78,
      "hit": false,
      "t": 305625,
      "d": 312.5,
      "v": 127
    },
    {
      "midi": 49,
      "hit": false,
      "t": 306000,
      "d": 687.5,
      "v": 101
    },
    {
      "midi": 63,
      "hit": false,
      "t": 306000,
      "d": 1437.5,
      "v": 42
    },
    {
      "midi": 65,
      "hit": false,
      "t": 306000,
      "d": 1437.5,
      "v": 42
    },
    {
      "midi": 68,
      "hit": false,
      "t": 306000,
      "d": 1437.5,
      "v": 42
    },
    {
      "midi": 80,
      "hit": false,
      "t": 306000,
      "d": 2187.5,
      "v": 42
    },
    {
      "midi": 56,
      "hit": false,
      "t": 306750,
      "d": 1437.5,
      "v": 101
    },
    {
      "midi": 63,
      "hit": false,
      "t": 307500,
      "d": 1437.5,
      "v": 126
    },
    {
      "midi": 65,
      "hit": false,
      "t": 307500,
      "d": 1437.5,
      "v": 126
    },
    {
      "midi": 68,
      "hit": false,
      "t": 307500,
      "d": 1437.5,
      "v": 126
    },
    {
      "midi": 56,
      "hit": false,
      "t": 308250,
      "d": 687.5,
      "v": 101
    },
    {
      "midi": 85,
      "hit": false,
      "t": 308250,
      "d": 687.5,
      "v": 126
    },
    {
      "midi": 44,
      "hit": false,
      "t": 309000,
      "d": 687.5,
      "v": 101
    },
    {
      "midi": 61,
      "hit": false,
      "t": 309000,
      "d": 1437.5,
      "v": 126
    },
    {
      "midi": 63,
      "hit": false,
      "t": 309000,
      "d": 1437.5,
      "v": 126
    },
    {
      "midi": 66,
      "hit": false,
      "t": 309000,
      "d": 1437.5,
      "v": 126
    },
    {
      "midi": 87,
      "hit": false,
      "t": 309000,
      "d": 2187.5,
      "v": 126
    },
    {
      "midi": 56,
      "hit": false,
      "t": 309750,
      "d": 1437.5,
      "v": 101
    },
    {
      "midi": 61,
      "hit": false,
      "t": 310500,
      "d": 1437.5,
      "v": 126
    },
    {
      "midi": 63,
      "hit": false,
      "t": 310500,
      "d": 1437.5,
      "v": 126
    },
    {
      "midi": 66,
      "hit": false,
      "t": 310500,
      "d": 1437.5,
      "v": 126
    },
    {
      "midi": 56,
      "hit": false,
      "t": 311250,
      "d": 687.5,
      "v": 102
    },
    {
      "midi": 89,
      "hit": false,
      "t": 311250,
      "d": 312.5,
      "v": 127
    },
    {
      "midi": 90,
      "hit": false,
      "t": 311625,
      "d": 312.5,
      "v": 127
    },
    {
      "midi": 49,
      "hit": false,
      "t": 312000,
      "d": 687.5,
      "v": 102
    },
    {
      "midi": 63,
      "hit": false,
      "t": 312000,
      "d": 1437.5,
      "v": 127
    },
    {
      "midi": 65,
      "hit": false,
      "t": 312000,
      "d": 1437.5,
      "v": 127
    },
    {
      "midi": 68,
      "hit": false,
      "t": 312000,
      "d": 1437.5,
      "v": 127
    },
    {
      "midi": 89,
      "hit": false,
      "t": 312000,
      "d": 2187.5,
      "v": 127
    },
    {
      "midi": 56,
      "hit": false,
      "t": 312750,
      "d": 1437.5,
      "v": 102
    },
    {
      "midi": 63,
      "hit": false,
      "t": 313500,
      "d": 1437.5,
      "v": 127
    },
    {
      "midi": 56,
      "hit": false,
      "t": 314250,
      "d": 687.5,
      "v": 102
    },
    {
      "midi": 85,
      "hit": false,
      "t": 314250,
      "d": 687.5,
      "v": 127
    },
    {
      "midi": 48,
      "hit": false,
      "t": 315000,
      "d": 1437.5,
      "v": 102
    },
    {
      "midi": 63,
      "hit": false,
      "t": 315000,
      "d": 687.5,
      "v": 127
    },
    {
      "midi": 65,
      "hit": false,
      "t": 315000,
      "d": 687.5,
      "v": 127
    },
    {
      "midi": 80,
      "hit": false,
      "t": 315000,
      "d": 687.5,
      "v": 127
    },
    {
      "midi": 72,
      "hit": false,
      "t": 315000,
      "d": 1437.5,
      "v": 127
    },
    {
      "midi": 82,
      "hit": false,
      "t": 315750,
      "d": 312.5,
      "v": 127
    },
    {
      "midi": 68,
      "hit": false,
      "t": 315750,
      "d": 687.5,
      "v": 127
    },
    {
      "midi": 84,
      "hit": false,
      "t": 316125,
      "d": 312.5,
      "v": 127
    },
    {
      "midi": 46,
      "hit": false,
      "t": 316500,
      "d": 1437.5,
      "v": 102
    },
    {
      "midi": 58,
      "hit": false,
      "t": 316500,
      "d": 1437.5,
      "v": 102
    },
    {
      "midi": 61,
      "hit": false,
      "t": 316500,
      "d": 687.5,
      "v": 127
    },
    {
      "midi": 70,
      "hit": false,
      "t": 316500,
      "d": 687.5,
      "v": 127
    },
    {
      "midi": 73,
      "hit": false,
      "t": 316500,
      "d": 687.5,
      "v": 127
    },
    {
      "midi": 85,
      "hit": false,
      "t": 316500,
      "d": 687.5,
      "v": 127
    },
    {
      "midi": 87,
      "hit": false,
      "t": 317250,
      "d": 203.125,
      "v": 127
    },
    {
      "midi": 73,
      "hit": false,
      "t": 317250,
      "d": 687.5,
      "v": 127
    },
    {
      "midi": 89,
      "hit": false,
      "t": 317500,
      "d": 203.125,
      "v": 127
    },
    {
      "midi": 90,
      "hit": false,
      "t": 317750,
      "d": 187.5,
      "v": 127
    },
    {
      "midi": 42,
      "hit": false,
      "t": 318000,
      "d": 687.5,
      "v": 102
    },
    {
      "midi": 72,
      "hit": false,
      "t": 318000,
      "d": 2187.5,
      "v": 127
    },
    {
      "midi": 92,
      "hit": false,
      "t": 318000,
      "d": 2187.5,
      "v": 127
    },
    {
      "midi": 61,
      "hit": false,
      "t": 318000,
      "d": 2937.5,
      "v": 127
    },
    {
      "midi": 66,
      "hit": false,
      "t": 318000,
      "d": 2937.5,
      "v": 127
    },
    {
      "midi": 49,
      "hit": false,
      "t": 318750,
      "d": 687.5,
      "v": 103
    },
    {
      "midi": 58,
      "hit": false,
      "t": 319500,
      "d": 1437.5,
      "v": 103
    },
    {
      "midi": 73,
      "hit": false,
      "t": 320250,
      "d": 687.5,
      "v": 127
    },
    {
      "midi": 94,
      "hit": false,
      "t": 320250,
      "d": 687.5,
      "v": 127
    },
    {
      "midi": 39,
      "hit": false,
      "t": 321000,
      "d": 687.5,
      "v": 103
    },
    {
      "midi": 70,
      "hit": false,
      "t": 321000,
      "d": 2187.5,
      "v": 127
    },
    {
      "midi": 72,
      "hit": false,
      "t": 321000,
      "d": 2187.5,
      "v": 127
    },
    {
      "midi": 92,
      "hit": false,
      "t": 321000,
      "d": 2187.5,
      "v": 127
    },
    {
      "midi": 61,
      "hit": false,
      "t": 321000,
      "d": 2937.5,
      "v": 127
    },
    {
      "midi": 66,
      "hit": false,
      "t": 321000,
      "d": 2937.5,
      "v": 127
    },
    {
      "midi": 46,
      "hit": false,
      "t": 321750,
      "d": 687.5,
      "v": 103
    },
    {
      "midi": 54,
      "hit": false,
      "t": 322500,
      "d": 1437.5,
      "v": 103
    },
    {
      "midi": 70,
      "hit": false,
      "t": 323250,
      "d": 687.5,
      "v": 127
    },
    {
      "midi": 90,
      "hit": false,
      "t": 323250,
      "d": 687.5,
      "v": 127
    },
    {
      "midi": 41,
      "hit": false,
      "t": 324000,
      "d": 687.5,
      "v": 103
    },
    {
      "midi": 60,
      "hit": false,
      "t": 324000,
      "d": 2937.5,
      "v": 127
    },
    {
      "midi": 63,
      "hit": false,
      "t": 324000,
      "d": 2937.5,
      "v": 127
    },
    {
      "midi": 68,
      "hit": false,
      "t": 324000,
      "d": 2937.5,
      "v": 127
    },
    {
      "midi": 77,
      "hit": false,
      "t": 324000,
      "d": 2937.5,
      "v": 127
    },
    {
      "midi": 48,
      "hit": false,
      "t": 324750,
      "d": 687.5,
      "v": 103
    },
    {
      "midi": 56,
      "hit": false,
      "t": 325500,
      "d": 1437.5,
      "v": 103
    },
    {
      "midi": 70,
      "hit": false,
      "t": 326250,
      "d": 687.5,
      "v": 127
    },
    {
      "midi": 46,
      "hit": false,
      "t": 327000,
      "d": 687.5,
      "v": 104
    },
    {
      "midi": 77,
      "hit": false,
      "t": 327000,
      "d": 687.5,
      "v": 127
    },
    {
      "midi": 61,
      "hit": false,
      "t": 327000,
      "d": 1437.5,
      "v": 127
    },
    {
      "midi": 53,
      "hit": false,
      "t": 327750,
      "d": 687.5,
      "v": 104
    },
    {
      "midi": 75,
      "hit": false,
      "t": 327750,
      "d": 687.5,
      "v": 127
    },
    {
      "midi": 56,
      "hit": false,
      "t": 328500,
      "d": 1437.5,
      "v": 104
    },
    {
      "midi": 73,
      "hit": false,
      "t": 328500,
      "d": 13437.5,
      "v": 127
    },
    {
      "midi": 56,
      "hit": false,
      "t": 329250,
      "d": 312.5,
      "v": 127
    },
    {
      "midi": 56,
      "hit": false,
      "t": 329625,
      "d": 312.5,
      "v": 127
    },
    {
      "midi": 44,
      "hit": false,
      "t": 330000,
      "d": 5937.5,
      "v": 104
    },
    {
      "midi": 58,
      "hit": false,
      "t": 330000,
      "d": 1437.5,
      "v": 127
    },
    {
      "midi": 61,
      "hit": false,
      "t": 330000,
      "d": 1437.5,
      "v": 127
    },
    {
      "midi": 65,
      "hit": false,
      "t": 330000,
      "d": 1437.5,
      "v": 127
    },
    {
      "midi": 68,
      "hit": false,
      "t": 330000,
      "d": 2937.5,
      "v": 127
    },
    {
      "midi": 63,
      "hit": false,
      "t": 330750,
      "d": 312.5,
      "v": 127
    },
    {
      "midi": 58,
      "hit": false,
      "t": 331500,
      "d": 1437.5,
      "v": 127
    },
    {
      "midi": 61,
      "hit": false,
      "t": 331500,
      "d": 1437.5,
      "v": 127
    },
    {
      "midi": 63,
      "hit": false,
      "t": 331500,
      "d": 1437.5,
      "v": 127
    },
    {
      "midi": 61,
      "hit": false,
      "t": 333000,
      "d": 1437.5,
      "v": 127
    },
    {
      "midi": 63,
      "hit": false,
      "t": 333000,
      "d": 1437.5,
      "v": 127
    },
    {
      "midi": 66,
      "hit": false,
      "t": 333000,
      "d": 1437.5,
      "v": 127
    },
    {
      "midi": 70,
      "hit": false,
      "t": 333000,
      "d": 1437.5,
      "v": 127
    },
    {
      "midi": 58,
      "hit": false,
      "t": 334500,
      "d": 1437.5,
      "v": 127
    },
    {
      "midi": 61,
      "hit": false,
      "t": 334500,
      "d": 1437.5,
      "v": 127
    },
    {
      "midi": 63,
      "hit": false,
      "t": 334500,
      "d": 1437.5,
      "v": 127
    },
    {
      "midi": 66,
      "hit": false,
      "t": 334500,
      "d": 1437.5,
      "v": 127
    },
    {
      "midi": 56,
      "hit": false,
      "t": 335250,
      "d": 312.5,
      "v": 127
    },
    {
      "midi": 56,
      "hit": false,
      "t": 335625,
      "d": 312.5,
      "v": 127
    },
    {
      "midi": 44,
      "hit": false,
      "t": 336000,
      "d": 5937.5,
      "v": 105
    },
    {
      "midi": 56,
      "hit": false,
      "t": 336000,
      "d": 1437.5,
      "v": 127
    },
    {
      "midi": 58,
      "hit": false,
      "t": 336000,
      "d": 1437.5,
      "v": 127
    },
    {
      "midi": 61,
      "hit": false,
      "t": 336000,
      "d": 1437.5,
      "v": 127
    },
    {
      "midi": 65,
      "hit": false,
      "t": 336000,
      "d": 1437.5,
      "v": 127
    },
    {
      "midi": 68,
      "hit": false,
      "t": 336000,
      "d": 5187.5,
      "v": 127
    },
    {
      "midi": 63,
      "hit": false,
      "t": 336750,
      "d": 687.5,
      "v": 127
    },
    {
      "midi": 63,
      "hit": false,
      "t": 337500,
      "d": 687.5,
      "v": 127
    },
    {
      "midi": 54,
      "hit": false,
      "t": 337500,
      "d": 1437.5,
      "v": 127
    },
    {
      "midi": 56,
      "hit": false,
      "t": 337500,
      "d": 1437.5,
      "v": 127
    },
    {
      "midi": 60,
      "hit": false,
      "t": 337500,
      "d": 1437.5,
      "v": 127
    },
    {
      "midi": 58,
      "hit": false,
      "t": 339000,
      "d": 1437.5,
      "v": 127
    },
    {
      "midi": 61,
      "hit": false,
      "t": 339000,
      "d": 1437.5,
      "v": 127
    },
    {
      "midi": 56,
      "hit": false,
      "t": 339000,
      "d": 2937.5,
      "v": 127
    },
    {
      "midi": 60,
      "hit": false,
      "t": 340500,
      "d": 1437.5,
      "v": 127
    },
    {
      "midi": 63,
      "hit": false,
      "t": 340500,
      "d": 1437.5,
      "v": 127
    },
    {
      "midi": 68,
      "hit": false,
      "t": 341250,
      "d": 687.5,
      "v": 127
    },
    {
      "midi": 49,
      "hit": false,
      "t": 342000,
      "d": 2937.5,
      "v": 106
    },
    {
      "midi": 68,
      "hit": false,
      "t": 342000,
      "d": 5937.5,
      "v": 127
    },
    {
      "midi": 84,
      "hit": false,
      "t": 343500,
      "d": 687.5,
      "v": 127
    },
    {
      "midi": 77,
      "hit": false,
      "t": 343500,
      "d": 2937.5,
      "v": 127
    },
    {
      "midi": 80,
      "hit": false,
      "t": 343500,
      "d": 2937.5,
      "v": 127
    },
    {
      "midi": 85,
      "hit": false,
      "t": 344250,
      "d": 687.5,
      "v": 127
    },
    {
      "midi": 46,
      "hit": false,
      "t": 345000,
      "d": 2937.5,
      "v": 106
    },
    {
      "midi": 70,
      "hit": false,
      "t": 345000,
      "d": 1437.5,
      "v": 127
    },
    {
      "midi": 73,
      "hit": false,
      "t": 345000,
      "d": 1437.5,
      "v": 127
    },
    {
      "midi": 78,
      "hit": false,
      "t": 345000,
      "d": 1437.5,
      "v": 127
    },
    {
      "midi": 66,
      "hit": false,
      "t": 346500,
      "d": 1437.5,
      "v": 127
    },
    {
      "midi": 70,
      "hit": false,
      "t": 346500,
      "d": 1437.5,
      "v": 127
    },
    {
      "midi": 75,
      "hit": false,
      "t": 346500,
      "d": 1437.5,
      "v": 127
    },
    {
      "midi": 44,
      "hit": false,
      "t": 348000,
      "d": 2937.5,
      "v": 107
    },
    {
      "midi": 65,
      "hit": false,
      "t": 348000,
      "d": 1437.5,
      "v": 127
    },
    {
      "midi": 68,
      "hit": false,
      "t": 348000,
      "d": 1437.5,
      "v": 127
    },
    {
      "midi": 73,
      "hit": false,
      "t": 348000,
      "d": 1437.5,
      "v": 127
    },
    {
      "midi": 80,
      "hit": false,
      "t": 348000,
      "d": 1437.5,
      "v": 127
    },
    {
      "midi": 61,
      "hit": false,
      "t": 348750,
      "d": 687.5,
      "v": 127
    },
    {
      "midi": 65,
      "hit": false,
      "t": 349500,
      "d": 687.5,
      "v": 127
    },
    {
      "midi": 68,
      "hit": false,
      "t": 349500,
      "d": 1437.5,
      "v": 127
    },
    {
      "midi": 73,
      "hit": false,
      "t": 349500,
      "d": 1437.5,
      "v": 127
    },
    {
      "midi": 85,
      "hit": false,
      "t": 349500,
      "d": 1437.5,
      "v": 127
    },
    {
      "midi": 66,
      "hit": false,
      "t": 350250,
      "d": 687.5,
      "v": 127
    },
    {
      "midi": 44,
      "hit": false,
      "t": 351000,
      "d": 2937.5,
      "v": 107
    },
    {
      "midi": 66,
      "hit": false,
      "t": 351000,
      "d": 1437.5,
      "v": 127
    },
    {
      "midi": 70,
      "hit": false,
      "t": 351000,
      "d": 1437.5,
      "v": 127
    },
    {
      "midi": 73,
      "hit": false,
      "t": 351000,
      "d": 1437.5,
      "v": 127
    },
    {
      "midi": 75,
      "hit": false,
      "t": 351000,
      "d": 1437.5,
      "v": 127
    },
    {
      "midi": 68,
      "hit": false,
      "t": 351000,
      "d": 2937.5,
      "v": 127
    },
    {
      "midi": 72,
      "hit": false,
      "t": 352500,
      "d": 1437.5,
      "v": 127
    },
    {
      "midi": 75,
      "hit": false,
      "t": 352500,
      "d": 1437.5,
      "v": 127
    },
    {
      "midi": 80,
      "hit": false,
      "t": 352500,
      "d": 1437.5,
      "v": 127
    },
    {
      "midi": 37,
      "hit": false,
      "t": 354000,
      "d": 5937.5,
      "v": 107
    },
    {
      "midi": 44,
      "hit": false,
      "t": 354000,
      "d": 5937.5,
      "v": 107
    },
    {
      "midi": 53,
      "hit": false,
      "t": 354000,
      "d": 5937.5,
      "v": 107
    },
    {
      "midi": 77,
      "hit": false,
      "t": 354000,
      "d": 5937.5,
      "v": 127
    },
    {
      "midi": 85,
      "hit": false,
      "t": 354109.375,
      "d": 5828.125,
      "v": 50
    },
    {
      "midi": 92,
      "hit": false,
      "t": 354218.75,
      "d": 5718.75,
      "v": 126
    }
  ]
}