{
  "jsonPath": "Rock/Folk Rock/Neil Diamond/love-on-the-rocks.json",
  "path": "Rock\\Folk Rock\\Neil Diamond\\Love On The Rocks.mid",
  "name": "Love On The Rocks",
  "difficulty": "Advanced",
  "bpm": 80,
  "notes": [
    {
      "midi": 64,
      "hit": false,
      "t": 0,
      "d": 1500,
      "v": 107
    },
    {
      "midi": 69,
      "hit": false,
      "t": 0,
      "d": 1500,
      "v": 107
    },
    {
      "midi": 72,
      "hit": false,
      "t": 0,
      "d": 1500,
      "v": 107
    },
    {
      "midi": 45,
      "hit": false,
      "t": 0,
      "d": 3000,
      "v": 107
    },
    {
      "midi": 52,
      "hit": false,
      "t": 375,
      "d": 375,
      "v": 107
    },
    {
      "midi": 57,
      "hit": false,
      "t": 750,
      "d": 375,
      "v": 107
    },
    {
      "midi": 52,
      "hit": false,
      "t": 1125,
      "d": 1875,
      "v": 107
    },
    {
      "midi": 64,
      "hit": false,
      "t": 1500,
      "d": 750,
      "v": 107
    },
    {
      "midi": 60,
      "hit": false,
      "t": 1500,
      "d": 1500,
      "v": 107
    },
    {
      "midi": 69,
      "hit": false,
      "t": 2250,
      "d": 375,
      "v": 107
    },
    {
      "midi": 67,
      "hit": false,
      "t": 2625,
      "d": 375,
      "v": 107
    },
    {
      "midi": 65,
      "hit": false,
      "t": 3000,
      "d": 1875,
      "v": 107
    },
    {
      "midi": 41,
      "hit": false,
      "t": 3000,
      "d": 3000,
      "v": 107
    },
    {
      "midi": 60,
      "hit": false,
      "t": 3000,
      "d": 3000,
      "v": 107
    },
    {
      "midi": 50,
      "hit": false,
      "t": 3375,
      "d": 375,
      "v": 107
    },
    {
      "midi": 57,
      "hit": false,
      "t": 3750,
      "d": 375,
      "v": 107
    },
    {
      "midi": 50,
      "hit": false,
      "t": 4125,
      "d": 1875,
      "v": 107
    },
    {
      "midi": 67,
      "hit": false,
      "t": 4875,
      "d": 375,
      "v": 107
    },
    {
      "midi": 65,
      "hit": false,
      "t": 5250,
      "d": 375,
      "v": 107
    },
    {
      "midi": 64,
      "hit": false,
      "t": 5625,
      "d": 375,
      "v": 107
    },
    {
      "midi": 63,
      "hit": false,
      "t": 6000,
      "d": 1500,
      "v": 107
    },
    {
      "midi": 57,
      "hit": false,
      "t": 6000,
      "d": 3000,
      "v": 107
    },
    {
      "midi": 54,
      "hit": false,
      "t": 6375,
      "d": 375,
      "v": 107
    },
    {
      "midi": 59,
      "hit": false,
      "t": 6750,
      "d": 375,
      "v": 107
    },
    {
      "midi": 54,
      "hit": false,
      "t": 7125,
      "d": 750,
      "v": 107
    },
    {
      "midi": 63,
      "hit": false,
      "t": 7500,
      "d": 1500,
      "v": 107
    },
    {
      "midi": 69,
      "hit": false,
      "t": 7500,
      "d": 1500,
      "v": 107
    },
    {
      "midi": 59,
      "hit": false,
      "t": 7875,
      "d": 375,
      "v": 107
    },
    {
      "midi": 54,
      "hit": false,
      "t": 8250,
      "d": 375,
      "v": 107
    },
    {
      "midi": 47,
      "hit": false,
      "t": 8625,
      "d": 375,
      "v": 107
    },
    {
      "midi": 52,
      "hit": false,
      "t": 9000,
      "d": 3000,
      "v": 107
    },
    {
      "midi": 68,
      "hit": false,
      "t": 9000,
      "d": 3000,
      "v": 107
    },
    {
      "midi": 65,
      "hit": false,
      "t": 9750,
      "d": 750,
      "v": 107
    },
    {
      "midi": 74,
      "hit": false,
      "t": 9750,
      "d": 750,
      "v": 107
    },
    {
      "midi": 64,
      "hit": false,
      "t": 10500,
      "d": 750,
      "v": 107
    },
    {
      "midi": 72,
      "hit": false,
      "t": 10500,
      "d": 750,
      "v": 107
    },
    {
      "midi": 62,
      "hit": false,
      "t": 11250,
      "d": 750,
      "v": 107
    },
    {
      "midi": 71,
      "hit": false,
      "t": 11250,
      "d": 750,
      "v": 107
    },
    {
      "midi": 57,
      "hit": false,
      "t": 12000,
      "d": 267.1875,
      "v": 107
    },
    {
      "midi": 60,
      "hit": false,
      "t": 12000,
      "d": 465.625,
      "v": 107
    },
    {
      "midi": 69,
      "hit": false,
      "t": 12000,
      "d": 654.6875,
      "v": 107
    },
    {
      "midi": 64,
      "hit": false,
      "t": 12000,
      "d": 750,
      "v": 107
    },
    {
      "midi": 45,
      "hit": false,
      "t": 12007.8125,
      "d": 1854.6875,
      "v": 107
    },
    {
      "midi": 57,
      "hit": false,
      "t": 12375,
      "d": 1315.625,
      "v": 107
    },
    {
      "midi": 60,
      "hit": false,
      "t": 12750,
      "d": 820.3125,
      "v": 107
    },
    {
      "midi": 69,
      "hit": false,
      "t": 13125,
      "d": 407.8125,
      "v": 107
    },
    {
      "midi": 72,
      "hit": false,
      "t": 13500,
      "d": 775,
      "v": 107
    },
    {
      "midi": 69,
      "hit": false,
      "t": 13875,
      "d": 776.5625,
      "v": 107
    },
    {
      "midi": 64,
      "hit": false,
      "t": 14250,
      "d": 471.875,
      "v": 107
    },
    {
      "midi": 60,
      "hit": false,
      "t": 14625,
      "d": 226.5625,
      "v": 107
    },
    {
      "midi": 53,
      "hit": false,
      "t": 15000,
      "d": 257.8125,
      "v": 107
    },
    {
      "midi": 62,
      "hit": false,
      "t": 15000,
      "d": 521.875,
      "v": 107
    },
    {
      "midi": 69,
      "hit": false,
      "t": 15000,
      "d": 968.75,
      "v": 107
    },
    {
      "midi": 65,
      "hit": false,
      "t": 15000,
      "d": 1501.5625,
      "v": 107
    },
    {
      "midi": 41,
      "hit": false,
      "t": 15000,
      "d": 2815.625,
      "v": 107
    },
    {
      "midi": 53,
      "hit": false,
      "t": 15375,
      "d": 531.25,
      "v": 107
    },
    {
      "midi": 60,
      "hit": false,
      "t": 15750,
      "d": 481.25,
      "v": 107
    },
    {
      "midi": 62,
      "hit": false,
      "t": 15750,
      "d": 804.6875,
      "v": 107
    },
    {
      "midi": 53,
      "hit": false,
      "t": 16125,
      "d": 1740.625,
      "v": 107
    },
    {
      "midi": 60,
      "hit": false,
      "t": 16500,
      "d": 787.5,
      "v": 107
    },
    {
      "midi": 62,
      "hit": false,
      "t": 16875,
      "d": 987.5,
      "v": 107
    },
    {
      "midi": 69,
      "hit": false,
      "t": 17250,
      "d": 821.875,
      "v": 107
    },
    {
      "midi": 55,
      "hit": false,
      "t": 18000,
      "d": 451.5625,
      "v": 107
    },
    {
      "midi": 59,
      "hit": false,
      "t": 18000,
      "d": 895.3125,
      "v": 107
    },
    {
      "midi": 67,
      "hit": false,
      "t": 18000,
      "d": 978.125,
      "v": 107
    },
    {
      "midi": 62,
      "hit": false,
      "t": 18000,
      "d": 1015.625,
      "v": 107
    },
    {
      "midi": 43,
      "hit": false,
      "t": 18000,
      "d": 2731.25,
      "v": 107
    },
    {
      "midi": 55,
      "hit": false,
      "t": 18750,
      "d": 1610.9375,
      "v": 107
    },
    {
      "midi": 59,
      "hit": false,
      "t": 18937.5,
      "d": 459.375,
      "v": 107
    },
    {
      "midi": 62,
      "hit": false,
      "t": 19125,
      "d": 409.375,
      "v": 107
    },
    {
      "midi": 67,
      "hit": false,
      "t": 19312.5,
      "d": 248.4375,
      "v": 107
    },
    {
      "midi": 71,
      "hit": false,
      "t": 19500,
      "d": 773.4375,
      "v": 107
    },
    {
      "midi": 67,
      "hit": false,
      "t": 19875,
      "d": 820.3125,
      "v": 107
    },
    {
      "midi": 62,
      "hit": false,
      "t": 20250,
      "d": 657.8125,
      "v": 107
    },
    {
      "midi": 59,
      "hit": false,
      "t": 20625,
      "d": 260.9375,
      "v": 107
    },
    {
      "midi": 52,
      "hit": false,
      "t": 21000,
      "d": 639.0625,
      "v": 107
    },
    {
      "midi": 59,
      "hit": false,
      "t": 21000,
      "d": 731.25,
      "v": 107
    },
    {
      "midi": 62,
      "hit": false,
      "t": 21000,
      "d": 746.875,
      "v": 107
    },
    {
      "midi": 67,
      "hit": false,
      "t": 21000,
      "d": 1560.9375,
      "v": 107
    },
    {
      "midi": 40,
      "hit": false,
      "t": 21000,
      "d": 2726.5625,
      "v": 107
    },
    {
      "midi": 52,
      "hit": false,
      "t": 21750,
      "d": 1071.875,
      "v": 107
    },
    {
      "midi": 59,
      "hit": false,
      "t": 22125,
      "d": 854.6875,
      "v": 107
    },
    {
      "midi": 62,
      "hit": false,
      "t": 22500,
      "d": 753.125,
      "v": 107
    },
    {
      "midi": 64,
      "hit": false,
      "t": 22500,
      "d": 778.125,
      "v": 107
    },
    {
      "midi": 52,
      "hit": false,
      "t": 22875,
      "d": 892.1875,
      "v": 107
    },
    {
      "midi": 59,
      "hit": false,
      "t": 23250,
      "d": 570.3125,
      "v": 107
    },
    {
      "midi": 64,
      "hit": false,
      "t": 23625,
      "d": 226.5625,
      "v": 107
    },
    {
      "midi": 60,
      "hit": false,
      "t": 24000,
      "d": 553.125,
      "v": 107
    },
    {
      "midi": 65,
      "hit": false,
      "t": 24000,
      "d": 804.6875,
      "v": 107
    },
    {
      "midi": 69,
      "hit": false,
      "t": 24000,
      "d": 835.9375,
      "v": 107
    },
    {
      "midi": 53,
      "hit": false,
      "t": 24000,
      "d": 2089.0625,
      "v": 107
    },
    {
      "midi": 41,
      "hit": false,
      "t": 24000,
      "d": 2331.25,
      "v": 107
    },
    {
      "midi": 60,
      "hit": false,
      "t": 24750,
      "d": 778.125,
      "v": 107
    },
    {
      "midi": 69,
      "hit": false,
      "t": 25125,
      "d": 404.6875,
      "v": 107
    },
    {
      "midi": 72,
      "hit": false,
      "t": 25500,
      "d": 931.25,
      "v": 107
    },
    {
      "midi": 69,
      "hit": false,
      "t": 25875,
      "d": 792.1875,
      "v": 107
    },
    {
      "midi": 65,
      "hit": false,
      "t": 26250,
      "d": 467.1875,
      "v": 107
    },
    {
      "midi": 60,
      "hit": false,
      "t": 26625,
      "d": 232.8125,
      "v": 107
    },
    {
      "midi": 47,
      "hit": false,
      "t": 27000,
      "d": 584.375,
      "v": 107
    },
    {
      "midi": 35,
      "hit": false,
      "t": 27000,
      "d": 764.0625,
      "v": 107
    },
    {
      "midi": 59,
      "hit": false,
      "t": 27000,
      "d": 878.125,
      "v": 107
    },
    {
      "midi": 63,
      "hit": false,
      "t": 27000,
      "d": 1051.5625,
      "v": 107
    },
    {
      "midi": 66,
      "hit": false,
      "t": 27000,
      "d": 1175,
      "v": 107
    },
    {
      "midi": 47,
      "hit": false,
      "t": 27750,
      "d": 1859.375,
      "v": 107
    },
    {
      "midi": 59,
      "hit": false,
      "t": 28125,
      "d": 1478.125,
      "v": 107
    },
    {
      "midi": 66,
      "hit": false,
      "t": 28500,
      "d": 326.5625,
      "v": 107
    },
    {
      "midi": 63,
      "hit": false,
      "t": 28500,
      "d": 796.875,
      "v": 107
    },
    {
      "midi": 69,
      "hit": false,
      "t": 28500,
      "d": 1298.4375,
      "v": 107
    },
    {
      "midi": 66,
      "hit": false,
      "t": 29250,
      "d": 651.5625,
      "v": 107
    },
    {
      "midi": 63,
      "hit": false,
      "t": 29625,
      "d": 301.5625,
      "v": 107
    },
    {
      "midi": 52,
      "hit": false,
      "t": 30000,
      "d": 279.6875,
      "v": 107
    },
    {
      "midi": 64,
      "hit": false,
      "t": 30000,
      "d": 453.125,
      "v": 107
    },
    {
      "midi": 68,
      "hit": false,
      "t": 30000,
      "d": 742.1875,
      "v": 107
    },
    {
      "midi": 71,
      "hit": false,
      "t": 30000,
      "d": 753.125,
      "v": 107
    },
    {
      "midi": 40,
      "hit": false,
      "t": 30000,
      "d": 2707.8125,
      "v": 107
    },
    {
      "midi": 52,
      "hit": false,
      "t": 30375,
      "d": 2331.25,
      "v": 107
    },
    {
      "midi": 64,
      "hit": false,
      "t": 30750,
      "d": 484.375,
      "v": 107
    },
    {
      "midi": 68,
      "hit": false,
      "t": 31125,
      "d": 442.1875,
      "v": 107
    },
    {
      "midi": 76,
      "hit": false,
      "t": 31500,
      "d": 557.8125,
      "v": 107
    },
    {
      "midi": 71,
      "hit": false,
      "t": 31875,
      "d": 657.8125,
      "v": 107
    },
    {
      "midi": 68,
      "hit": false,
      "t": 32250,
      "d": 485.9375,
      "v": 107
    },
    {
      "midi": 64,
      "hit": false,
      "t": 32625,
      "d": 210.9375,
      "v": 107
    },
    {
      "midi": 68,
      "hit": false,
      "t": 33000,
      "d": 592.1875,
      "v": 107
    },
    {
      "midi": 76,
      "hit": false,
      "t": 33000,
      "d": 662.5,
      "v": 107
    },
    {
      "midi": 64,
      "hit": false,
      "t": 33018.75,
      "d": 518.75,
      "v": 107
    },
    {
      "midi": 40,
      "hit": false,
      "t": 33018.75,
      "d": 2482.8125,
      "v": 107
    },
    {
      "midi": 68,
      "hit": false,
      "t": 33750,
      "d": 618.75,
      "v": 107
    },
    {
      "midi": 74,
      "hit": false,
      "t": 33750,
      "d": 637.5,
      "v": 107
    },
    {
      "midi": 52,
      "hit": false,
      "t": 33750,
      "d": 1690.625,
      "v": 107
    },
    {
      "midi": 64,
      "hit": false,
      "t": 33750,
      "d": 2028.125,
      "v": 107
    },
    {
      "midi": 72,
      "hit": false,
      "t": 34500,
      "d": 695.3125,
      "v": 107
    },
    {
      "midi": 68,
      "hit": false,
      "t": 34500,
      "d": 1146.875,
      "v": 107
    },
    {
      "midi": 71,
      "hit": false,
      "t": 35250,
      "d": 507.8125,
      "v": 107
    },
    {
      "midi": 57,
      "hit": false,
      "t": 36000,
      "d": 228.125,
      "v": 107
    },
    {
      "midi": 60,
      "hit": false,
      "t": 36000,
      "d": 471.875,
      "v": 107
    },
    {
      "midi": 64,
      "hit": false,
      "t": 36000,
      "d": 757.8125,
      "v": 107
    },
    {
      "midi": 69,
      "hit": false,
      "t": 36000,
      "d": 779.6875,
      "v": 107
    },
    {
      "midi": 45,
      "hit": false,
      "t": 36000,
      "d": 2437.5,
      "v": 107
    },
    {
      "midi": 57,
      "hit": false,
      "t": 36375,
      "d": 1910.9375,
      "v": 107
    },
    {
      "midi": 60,
      "hit": false,
      "t": 36750,
      "d": 687.5,
      "v": 107
    },
    {
      "midi": 64,
      "hit": false,
      "t": 37125,
      "d": 420.3125,
      "v": 107
    },
    {
      "midi": 72,
      "hit": false,
      "t": 37500,
      "d": 931.25,
      "v": 107
    },
    {
      "midi": 69,
      "hit": false,
      "t": 37875,
      "d": 834.375,
      "v": 107
    },
    {
      "midi": 64,
      "hit": false,
      "t": 38250,
      "d": 432.8125,
      "v": 107
    },
    {
      "midi": 60,
      "hit": false,
      "t": 38625,
      "d": 210.9375,
      "v": 107
    },
    {
      "midi": 53,
      "hit": false,
      "t": 39000,
      "d": 268.75,
      "v": 107
    },
    {
      "midi": 62,
      "hit": false,
      "t": 39000,
      "d": 376.5625,
      "v": 107
    },
    {
      "midi": 65,
      "hit": false,
      "t": 39000,
      "d": 803.125,
      "v": 107
    },
    {
      "midi": 69,
      "hit": false,
      "t": 39000,
      "d": 831.25,
      "v": 107
    },
    {
      "midi": 41,
      "hit": false,
      "t": 39000,
      "d": 2792.1875,
      "v": 107
    },
    {
      "midi": 53,
      "hit": false,
      "t": 39375,
      "d": 2462.5,
      "v": 107
    },
    {
      "midi": 62,
      "hit": false,
      "t": 39750,
      "d": 457.8125,
      "v": 107
    },
    {
      "midi": 65,
      "hit": false,
      "t": 40125,
      "d": 618.75,
      "v": 107
    },
    {
      "midi": 62,
      "hit": false,
      "t": 40500,
      "d": 184.375,
      "v": 107
    },
    {
      "midi": 72,
      "hit": false,
      "t": 40500,
      "d": 895.3125,
      "v": 107
    },
    {
      "midi": 69,
      "hit": false,
      "t": 40875,
      "d": 785.9375,
      "v": 107
    },
    {
      "midi": 65,
      "hit": false,
      "t": 41250,
      "d": 492.1875,
      "v": 107
    },
    {
      "midi": 62,
      "hit": false,
      "t": 41625,
      "d": 228.125,
      "v": 107
    },
    {
      "midi": 62,
      "hit": false,
      "t": 42000,
      "d": 604.6875,
      "v": 107
    },
    {
      "midi": 67,
      "hit": false,
      "t": 42000,
      "d": 765.625,
      "v": 107
    },
    {
      "midi": 43,
      "hit": false,
      "t": 42000,
      "d": 2859.375,
      "v": 107
    },
    {
      "midi": 59,
      "hit": false,
      "t": 42750,
      "d": 412.5,
      "v": 107
    },
    {
      "midi": 62,
      "hit": false,
      "t": 42750,
      "d": 792.1875,
      "v": 107
    },
    {
      "midi": 55,
      "hit": false,
      "t": 43125,
      "d": 1709.375,
      "v": 107
    },
    {
      "midi": 71,
      "hit": false,
      "t": 43500,
      "d": 817.1875,
      "v": 107
    },
    {
      "midi": 67,
      "hit": false,
      "t": 43875,
      "d": 551.5625,
      "v": 107
    },
    {
      "midi": 62,
      "hit": false,
      "t": 44250,
      "d": 473.4375,
      "v": 107
    },
    {
      "midi": 59,
      "hit": false,
      "t": 44625,
      "d": 237.5,
      "v": 107
    },
    {
      "midi": 52,
      "hit": false,
      "t": 45000,
      "d": 220.3125,
      "v": 107
    },
    {
      "midi": 59,
      "hit": false,
      "t": 45000,
      "d": 503.125,
      "v": 107
    },
    {
      "midi": 67,
      "hit": false,
      "t": 45000,
      "d": 629.6875,
      "v": 107
    },
    {
      "midi": 62,
      "hit": false,
      "t": 45000,
      "d": 754.6875,
      "v": 107
    },
    {
      "midi": 64,
      "hit": false,
      "t": 45000,
      "d": 778.125,
      "v": 107
    },
    {
      "midi": 40,
      "hit": false,
      "t": 45000,
      "d": 2626.5625,
      "v": 107
    },
    {
      "midi": 52,
      "hit": false,
      "t": 45375,
      "d": 2310.9375,
      "v": 107
    },
    {
      "midi": 59,
      "hit": false,
      "t": 45750,
      "d": 779.6875,
      "v": 107
    },
    {
      "midi": 62,
      "hit": false,
      "t": 46125,
      "d": 462.5,
      "v": 107
    },
    {
      "midi": 67,
      "hit": false,
      "t": 46500,
      "d": 823.4375,
      "v": 107
    },
    {
      "midi": 64,
      "hit": false,
      "t": 46875,
      "d": 554.6875,
      "v": 107
    },
    {
      "midi": 62,
      "hit": false,
      "t": 47250,
      "d": 403.125,
      "v": 107
    },
    {
      "midi": 59,
      "hit": false,
      "t": 47625,
      "d": 198.4375,
      "v": 107
    },
    {
      "midi": 60,
      "hit": false,
      "t": 48000,
      "d": 612.5,
      "v": 107
    },
    {
      "midi": 65,
      "hit": false,
      "t": 48000,
      "d": 815.625,
      "v": 107
    },
    {
      "midi": 69,
      "hit": false,
      "t": 48000,
      "d": 834.375,
      "v": 107
    },
    {
      "midi": 41,
      "hit": false,
      "t": 48000,
      "d": 2175,
      "v": 107
    },
    {
      "midi": 53,
      "hit": false,
      "t": 48375,
      "d": 1651.5625,
      "v": 107
    },
    {
      "midi": 60,
      "hit": false,
      "t": 48750,
      "d": 428.125,
      "v": 107
    },
    {
      "midi": 65,
      "hit": false,
      "t": 49125,
      "d": 521.875,
      "v": 107
    },
    {
      "midi": 69,
      "hit": false,
      "t": 49500,
      "d": 825,
      "v": 107
    },
    {
      "midi": 60,
      "hit": false,
      "t": 49500,
      "d": 884.375,
      "v": 107
    },
    {
      "midi": 67,
      "hit": false,
      "t": 49875,
      "d": 485.9375,
      "v": 107
    },
    {
      "midi": 65,
      "hit": false,
      "t": 50250,
      "d": 445.3125,
      "v": 107
    },
    {
      "midi": 64,
      "hit": false,
      "t": 50625,
      "d": 251.5625,
      "v": 107
    },
    {
      "midi": 63,
      "hit": false,
      "t": 51000,
      "d": 634.375,
      "v": 107
    },
    {
      "midi": 66,
      "hit": false,
      "t": 51000,
      "d": 703.125,
      "v": 107
    },
    {
      "midi": 47,
      "hit": false,
      "t": 51000,
      "d": 956.25,
      "v": 107
    },
    {
      "midi": 59,
      "hit": false,
      "t": 51000,
      "d": 1160.9375,
      "v": 107
    },
    {
      "midi": 63,
      "hit": false,
      "t": 51750,
      "d": 657.8125,
      "v": 107
    },
    {
      "midi": 66,
      "hit": false,
      "t": 51750,
      "d": 675,
      "v": 107
    },
    {
      "midi": 47,
      "hit": false,
      "t": 52125,
      "d": 1314.0625,
      "v": 107
    },
    {
      "midi": 63,
      "hit": false,
      "t": 52500,
      "d": 618.75,
      "v": 107
    },
    {
      "midi": 66,
      "hit": false,
      "t": 52500,
      "d": 628.125,
      "v": 107
    },
    {
      "midi": 69,
      "hit": false,
      "t": 52500,
      "d": 635.9375,
      "v": 107
    },
    {
      "midi": 59,
      "hit": false,
      "t": 52500,
      "d": 640.625,
      "v": 107
    },
    {
      "midi": 59,
      "hit": false,
      "t": 53250,
      "d": 496.875,
      "v": 107
    },
    {
      "midi": 69,
      "hit": false,
      "t": 53250,
      "d": 526.5625,
      "v": 107
    },
    {
      "midi": 63,
      "hit": false,
      "t": 53250,
      "d": 534.375,
      "v": 107
    },
    {
      "midi": 66,
      "hit": false,
      "t": 53250,
      "d": 559.375,
      "v": 107
    },
    {
      "midi": 47,
      "hit": false,
      "t": 53625,
      "d": 132.8125,
      "v": 107
    },
    {
      "midi": 59,
      "hit": false,
      "t": 54000,
      "d": 465.625,
      "v": 107
    },
    {
      "midi": 52,
      "hit": false,
      "t": 54000,
      "d": 2493.75,
      "v": 107
    },
    {
      "midi": 68,
      "hit": false,
      "t": 54018.75,
      "d": 485.9375,
      "v": 107
    },
    {
      "midi": 64,
      "hit": false,
      "t": 54018.75,
      "d": 506.25,
      "v": 107
    },
    {
      "midi": 71,
      "hit": false,
      "t": 54018.75,
      "d": 526.5625,
      "v": 107
    },
    {
      "midi": 64,
      "hit": false,
      "t": 54750,
      "d": 621.875,
      "v": 107
    },
    {
      "midi": 68,
      "hit": false,
      "t": 54750,
      "d": 625,
      "v": 107
    },
    {
      "midi": 71,
      "hit": false,
      "t": 54750,
      "d": 626.5625,
      "v": 107
    },
    {
      "midi": 59,
      "hit": false,
      "t": 54768.75,
      "d": 526.5625,
      "v": 107
    },
    {
      "midi": 68,
      "hit": false,
      "t": 55500,
      "d": 521.875,
      "v": 107
    },
    {
      "midi": 64,
      "hit": false,
      "t": 55500,
      "d": 523.4375,
      "v": 107
    },
    {
      "midi": 71,
      "hit": false,
      "t": 55500,
      "d": 537.5,
      "v": 107
    },
    {
      "midi": 59,
      "hit": false,
      "t": 55559.375,
      "d": 406.25,
      "v": 107
    },
    {
      "midi": 64,
      "hit": false,
      "t": 56250,
      "d": 518.75,
      "v": 107
    },
    {
      "midi": 68,
      "hit": false,
      "t": 56250,
      "d": 531.25,
      "v": 107
    },
    {
      "midi": 71,
      "hit": false,
      "t": 56250,
      "d": 565.625,
      "v": 107
    },
    {
      "midi": 59,
      "hit": false,
      "t": 56289.0625,
      "d": 487.5,
      "v": 107
    },
    {
      "midi": 52,
      "hit": false,
      "t": 56625,
      "d": 262.5,
      "v": 107
    },
    {
      "midi": 64,
      "hit": false,
      "t": 57000,
      "d": 567.1875,
      "v": 107
    },
    {
      "midi": 68,
      "hit": false,
      "t": 57000,
      "d": 592.1875,
      "v": 107
    },
    {
      "midi": 71,
      "hit": false,
      "t": 57000,
      "d": 595.3125,
      "v": 107
    },
    {
      "midi": 74,
      "hit": false,
      "t": 57000,
      "d": 620.3125,
      "v": 107
    },
    {
      "midi": 52,
      "hit": false,
      "t": 57000,
      "d": 931.25,
      "v": 107
    },
    {
      "midi": 64,
      "hit": false,
      "t": 57750,
      "d": 573.4375,
      "v": 107
    },
    {
      "midi": 68,
      "hit": false,
      "t": 57750,
      "d": 584.375,
      "v": 107
    },
    {
      "midi": 71,
      "hit": false,
      "t": 57750,
      "d": 590.625,
      "v": 107
    },
    {
      "midi": 74,
      "hit": false,
      "t": 57750,
      "d": 612.5,
      "v": 107
    },
    {
      "midi": 52,
      "hit": false,
      "t": 58125,
      "d": 1551.5625,
      "v": 107
    },
    {
      "midi": 64,
      "hit": false,
      "t": 58500,
      "d": 556.25,
      "v": 107
    },
    {
      "midi": 74,
      "hit": false,
      "t": 58500,
      "d": 578.125,
      "v": 107
    },
    {
      "midi": 68,
      "hit": false,
      "t": 58500,
      "d": 582.8125,
      "v": 107
    },
    {
      "midi": 71,
      "hit": false,
      "t": 58500,
      "d": 592.1875,
      "v": 107
    },
    {
      "midi": 68,
      "hit": false,
      "t": 59250,
      "d": 525,
      "v": 107
    },
    {
      "midi": 74,
      "hit": false,
      "t": 59250,
      "d": 531.25,
      "v": 107
    },
    {
      "midi": 64,
      "hit": false,
      "t": 59250,
      "d": 532.8125,
      "v": 107
    },
    {
      "midi": 71,
      "hit": false,
      "t": 59250,
      "d": 532.8125,
      "v": 107
    },
    {
      "midi": 69,
      "hit": false,
      "t": 60000,
      "d": 551.5625,
      "v": 100
    },
    {
      "midi": 61,
      "hit": false,
      "t": 60001.5625,
      "d": 548.4375,
      "v": 123
    },
    {
      "midi": 64,
      "hit": false,
      "t": 60004.6875,
      "d": 523.4375,
      "v": 125
    },
    {
      "midi": 45,
      "hit": false,
      "t": 60010.9375,
      "d": 993.75,
      "v": 123
    },
    {
      "midi": 61,
      "hit": false,
      "t": 60743.75,
      "d": 471.875,
      "v": 125
    },
    {
      "midi": 69,
      "hit": false,
      "t": 60746.875,
      "d": 503.125,
      "v": 123
    },
    {
      "midi": 64,
      "hit": false,
      "t": 60751.5625,
      "d": 467.1875,
      "v": 125
    },
    {
      "midi": 45,
      "hit": false,
      "t": 61145.3125,
      "d": 514.0625,
      "v": 123
    },
    {
      "midi": 64,
      "hit": false,
      "t": 61504.6875,
      "d": 450,
      "v": 125
    },
    {
      "midi": 61,
      "hit": false,
      "t": 61509.375,
      "d": 445.3125,
      "v": 123
    },
    {
      "midi": 69,
      "hit": false,
      "t": 61510.9375,
      "d": 465.625,
      "v": 123
    },
    {
      "midi": 45,
      "hit": false,
      "t": 61862.5,
      "d": 531.25,
      "v": 123
    },
    {
      "midi": 64,
      "hit": false,
      "t": 62229.6875,
      "d": 514.0625,
      "v": 125
    },
    {
      "midi": 69,
      "hit": false,
      "t": 62232.8125,
      "d": 482.8125,
      "v": 125
    },
    {
      "midi": 61,
      "hit": false,
      "t": 62232.8125,
      "d": 507.8125,
      "v": 125
    },
    {
      "midi": 45,
      "hit": false,
      "t": 62600,
      "d": 234.375,
      "v": 125
    },
    {
      "midi": 45,
      "hit": false,
      "t": 62960.9375,
      "d": 942.1875,
      "v": 125
    },
    {
      "midi": 68,
      "hit": false,
      "t": 62965.625,
      "d": 585.9375,
      "v": 123
    },
    {
      "midi": 64,
      "hit": false,
      "t": 62975,
      "d": 568.75,
      "v": 125
    },
    {
      "midi": 61,
      "hit": false,
      "t": 62975,
      "d": 590.625,
      "v": 123
    },
    {
      "midi": 68,
      "hit": false,
      "t": 63740.625,
      "d": 526.5625,
      "v": 125
    },
    {
      "midi": 61,
      "hit": false,
      "t": 63745.3125,
      "d": 528.125,
      "v": 125
    },
    {
      "midi": 64,
      "hit": false,
      "t": 63751.5625,
      "d": 495.3125,
      "v": 125
    },
    {
      "midi": 45,
      "hit": false,
      "t": 64118.75,
      "d": 514.0625,
      "v": 123
    },
    {
      "midi": 68,
      "hit": false,
      "t": 64489.0625,
      "d": 493.75,
      "v": 125
    },
    {
      "midi": 61,
      "hit": false,
      "t": 64500,
      "d": 489.0625,
      "v": 123
    },
    {
      "midi": 64,
      "hit": false,
      "t": 64501.5625,
      "d": 460.9375,
      "v": 125
    },
    {
      "midi": 45,
      "hit": false,
      "t": 64853.125,
      "d": 509.375,
      "v": 123
    },
    {
      "midi": 68,
      "hit": false,
      "t": 65221.875,
      "d": 473.4375,
      "v": 123
    },
    {
      "midi": 61,
      "hit": false,
      "t": 65225,
      "d": 407.8125,
      "v": 125
    },
    {
      "midi": 64,
      "hit": false,
      "t": 65232.8125,
      "d": 451.5625,
      "v": 125
    },
    {
      "midi": 45,
      "hit": false,
      "t": 65576.5625,
      "d": 253.125,
      "v": 123
    },
    {
      "midi": 45,
      "hit": false,
      "t": 65971.875,
      "d": 821.875,
      "v": 125
    },
    {
      "midi": 67,
      "hit": false,
      "t": 65981.25,
      "d": 589.0625,
      "v": 123
    },
    {
      "midi": 64,
      "hit": false,
      "t": 65984.375,
      "d": 543.75,
      "v": 125
    },
    {
      "midi": 59,
      "hit": false,
      "t": 65984.375,
      "d": 557.8125,
      "v": 125
    },
    {
      "midi": 67,
      "hit": false,
      "t": 66715.625,
      "d": 534.375,
      "v": 123
    },
    {
      "midi": 59,
      "hit": false,
      "t": 66718.75,
      "d": 515.625,
      "v": 123
    },
    {
      "midi": 64,
      "hit": false,
      "t": 66723.4375,
      "d": 495.3125,
      "v": 123
    },
    {
      "midi": 45,
      "hit": false,
      "t": 67067.1875,
      "d": 579.6875,
      "v": 123
    },
    {
      "midi": 59,
      "hit": false,
      "t": 67464.0625,
      "d": 521.875,
      "v": 125
    },
    {
      "midi": 64,
      "hit": false,
      "t": 67467.1875,
      "d": 510.9375,
      "v": 125
    },
    {
      "midi": 67,
      "hit": false,
      "t": 67467.1875,
      "d": 535.9375,
      "v": 123
    },
    {
      "midi": 45,
      "hit": false,
      "t": 67835.9375,
      "d": 539.0625,
      "v": 125
    },
    {
      "midi": 59,
      "hit": false,
      "t": 68237.5,
      "d": 364.0625,
      "v": 125
    },
    {
      "midi": 67,
      "hit": false,
      "t": 68237.5,
      "d": 448.4375,
      "v": 123
    },
    {
      "midi": 64,
      "hit": false,
      "t": 68237.5,
      "d": 534.375,
      "v": 125
    },
    {
      "midi": 45,
      "hit": false,
      "t": 68593.75,
      "d": 228.125,
      "v": 123
    },
    {
      "midi": 66,
      "hit": false,
      "t": 68976.5625,
      "d": 600,
      "v": 125
    },
    {
      "midi": 45,
      "hit": false,
      "t": 68979.6875,
      "d": 867.1875,
      "v": 123
    },
    {
      "midi": 69,
      "hit": false,
      "t": 68987.5,
      "d": 589.0625,
      "v": 123
    },
    {
      "midi": 62,
      "hit": false,
      "t": 68989.0625,
      "d": 581.25,
      "v": 125
    },
    {
      "midi": 66,
      "hit": false,
      "t": 69710.9375,
      "d": 407.8125,
      "v": 125
    },
    {
      "midi": 69,
      "hit": false,
      "t": 69721.875,
      "d": 382.8125,
      "v": 123
    },
    {
      "midi": 62,
      "hit": false,
      "t": 69728.125,
      "d": 428.125,
      "v": 125
    },
    {
      "midi": 45,
      "hit": false,
      "t": 70084.375,
      "d": 176.5625,
      "v": 125
    },
    {
      "midi": 65,
      "hit": false,
      "t": 70450,
      "d": 550,
      "v": 125
    },
    {
      "midi": 60,
      "hit": false,
      "t": 70453.125,
      "d": 515.625,
      "v": 125
    },
    {
      "midi": 57,
      "hit": false,
      "t": 70454.6875,
      "d": 520.3125,
      "v": 125
    },
    {
      "midi": 62,
      "hit": false,
      "t": 71182.8125,
      "d": 532.8125,
      "v": 125
    },
    {
      "midi": 59,
      "hit": false,
      "t": 71185.9375,
      "d": 504.6875,
      "v": 125
    },
    {
      "midi": 67,
      "hit": false,
      "t": 71190.625,
      "d": 531.25,
      "v": 125
    },
    {
      "midi": 69,
      "hit": false,
      "t": 71982.8125,
      "d": 615.625,
      "v": 125
    },
    {
      "midi": 64,
      "hit": false,
      "t": 71987.5,
      "d": 601.5625,
      "v": 125
    },
    {
      "midi": 45,
      "hit": false,
      "t": 71996.875,
      "d": 925,
      "v": 123
    },
    {
      "midi": 61,
      "hit": false,
      "t": 72000,
      "d": 575,
      "v": 125
    },
    {
      "midi": 69,
      "hit": false,
      "t": 72729.6875,
      "d": 531.25,
      "v": 123
    },
    {
      "midi": 61,
      "hit": false,
      "t": 72734.375,
      "d": 506.25,
      "v": 123
    },
    {
      "midi": 64,
      "hit": false,
      "t": 72735.9375,
      "d": 515.625,
      "v": 123
    },
    {
      "midi": 45,
      "hit": false,
      "t": 73129.6875,
      "d": 576.5625,
      "v": 123
    },
    {
      "midi": 64,
      "hit": false,
      "t": 73490.625,
      "d": 485.9375,
      "v": 125
    },
    {
      "midi": 61,
      "hit": false,
      "t": 73492.1875,
      "d": 487.5,
      "v": 125
    },
    {
      "midi": 69,
      "hit": false,
      "t": 73496.875,
      "d": 485.9375,
      "v": 125
    },
    {
      "midi": 45,
      "hit": false,
      "t": 73865.625,
      "d": 668.75,
      "v": 123
    },
    {
      "midi": 61,
      "hit": false,
      "t": 74232.8125,
      "d": 471.875,
      "v": 125
    },
    {
      "midi": 69,
      "hit": false,
      "t": 74232.8125,
      "d": 487.5,
      "v": 123
    },
    {
      "midi": 64,
      "hit": false,
      "t": 74232.8125,
      "d": 495.3125,
      "v": 125
    },
    {
      "midi": 45,
      "hit": false,
      "t": 74604.6875,
      "d": 250,
      "v": 123
    },
    {
      "midi": 68,
      "hit": false,
      "t": 74971.875,
      "d": 579.6875,
      "v": 125
    },
    {
      "midi": 61,
      "hit": false,
      "t": 74976.5625,
      "d": 532.8125,
      "v": 125
    },
    {
      "midi": 64,
      "hit": false,
      "t": 74979.6875,
      "d": 553.125,
      "v": 125
    },
    {
      "midi": 45,
      "hit": false,
      "t": 74985.9375,
      "d": 998.4375,
      "v": 125
    },
    {
      "midi": 68,
      "hit": false,
      "t": 75737.5,
      "d": 581.25,
      "v": 125
    },
    {
      "midi": 64,
      "hit": false,
      "t": 75746.875,
      "d": 565.625,
      "v": 125
    },
    {
      "midi": 61,
      "hit": false,
      "t": 75750,
      "d": 568.75,
      "v": 125
    },
    {
      "midi": 45,
      "hit": false,
      "t": 76140.625,
      "d": 239.0625,
      "v": 123
    },
    {
      "midi": 45,
      "hit": false,
      "t": 76504.6875,
      "d": 907.8125,
      "v": 123
    },
    {
      "midi": 61,
      "hit": false,
      "t": 76526.5625,
      "d": 553.125,
      "v": 123
    },
    {
      "midi": 64,
      "hit": false,
      "t": 76528.125,
      "d": 573.4375,
      "v": 125
    },
    {
      "midi": 67,
      "hit": false,
      "t": 76532.8125,
      "d": 568.75,
      "v": 123
    },
    {
      "midi": 61,
      "hit": false,
      "t": 77284.375,
      "d": 414.0625,
      "v": 123
    },
    {
      "midi": 64,
      "hit": false,
      "t": 77285.9375,
      "d": 381.25,
      "v": 125
    },
    {
      "midi": 67,
      "hit": false,
      "t": 77287.5,
      "d": 414.0625,
      "v": 123
    },
    {
      "midi": 45,
      "hit": false,
      "t": 77629.6875,
      "d": 303.125,
      "v": 123
    },
    {
      "midi": 66,
      "hit": false,
      "t": 78032.8125,
      "d": 543.75,
      "v": 123
    },
    {
      "midi": 45,
      "hit": false,
      "t": 78032.8125,
      "d": 837.5,
      "v": 123
    },
    {
      "midi": 69,
      "hit": false,
      "t": 78037.5,
      "d": 550,
      "v": 123
    },
    {
      "midi": 62,
      "hit": false,
      "t": 78040.625,
      "d": 542.1875,
      "v": 123
    },
    {
      "midi": 66,
      "hit": false,
      "t": 78729.6875,
      "d": 485.9375,
      "v": 124
    },
    {
      "midi": 69,
      "hit": false,
      "t": 78751.5625,
      "d": 560.9375,
      "v": 123
    },
    {
      "midi": 62,
      "hit": false,
      "t": 78756.25,
      "d": 517.1875,
      "v": 123
    },
    {
      "midi": 45,
      "hit": false,
      "t": 79090.625,
      "d": 1340.625,
      "v": 123
    },
    {
      "midi": 65,
      "hit": false,
      "t": 79470.3125,
      "d": 634.375,
      "v": 123
    },
    {
      "midi": 69,
      "hit": false,
      "t": 79471.875,
      "d": 639.0625,
      "v": 123
    },
    {
      "midi": 62,
      "hit": false,
      "t": 79475,
      "d": 635.9375,
      "v": 123
    },
    {
      "midi": 65,
      "hit": false,
      "t": 80232.8125,
      "d": 437.5,
      "v": 123
    },
    {
      "midi": 69,
      "hit": false,
      "t": 80237.5,
      "d": 467.1875,
      "v": 123
    },
    {
      "midi": 62,
      "hit": false,
      "t": 80242.1875,
      "d": 454.6875,
      "v": 123
    },
    {
      "midi": 45,
      "hit": false,
      "t": 80629.6875,
      "d": 242.1875,
      "v": 123
    },
    {
      "midi": 45,
      "hit": false,
      "t": 80989.0625,
      "d": 946.875,
      "v": 123
    },
    {
      "midi": 64,
      "hit": false,
      "t": 81006.25,
      "d": 553.125,
      "v": 123
    },
    {
      "midi": 61,
      "hit": false,
      "t": 81014.0625,
      "d": 515.625,
      "v": 123
    },
    {
      "midi": 69,
      "hit": false,
      "t": 81015.625,
      "d": 545.3125,
      "v": 121
    },
    {
      "midi": 61,
      "hit": false,
      "t": 81743.75,
      "d": 507.8125,
      "v": 123
    },
    {
      "midi": 64,
      "hit": false,
      "t": 81745.3125,
      "d": 498.4375,
      "v": 125
    },
    {
      "midi": 69,
      "hit": false,
      "t": 81748.4375,
      "d": 506.25,
      "v": 123
    },
    {
      "midi": 45,
      "hit": false,
      "t": 82125,
      "d": 1221.875,
      "v": 123
    },
    {
      "midi": 61,
      "hit": false,
      "t": 82501.5625,
      "d": 514.0625,
      "v": 125
    },
    {
      "midi": 64,
      "hit": false,
      "t": 82503.125,
      "d": 518.75,
      "v": 125
    },
    {
      "midi": 69,
      "hit": false,
      "t": 82504.6875,
      "d": 551.5625,
      "v": 125
    },
    {
      "midi": 64,
      "hit": false,
      "t": 83262.5,
      "d": 393.75,
      "v": 125
    },
    {
      "midi": 69,
      "hit": false,
      "t": 83265.625,
      "d": 392.1875,
      "v": 125
    },
    {
      "midi": 61,
      "hit": false,
      "t": 83265.625,
      "d": 421.875,
      "v": 125
    },
    {
      "midi": 45,
      "hit": false,
      "t": 83612.5,
      "d": 242.1875,
      "v": 121
    },
    {
      "midi": 62,
      "hit": false,
      "t": 84021.875,
      "d": 2851.5625,
      "v": 124
    },
    {
      "midi": 67,
      "hit": false,
      "t": 84028.125,
      "d": 2851.5625,
      "v": 123
    },
    {
      "midi": 59,
      "hit": false,
      "t": 84032.8125,
      "d": 2825,
      "v": 125
    },
    {
      "midi": 43,
      "hit": false,
      "t": 84039.0625,
      "d": 2812.5,
      "v": 125
    },
    {
      "midi": 68,
      "hit": false,
      "t": 87667.1875,
      "d": 695.3125,
      "v": 121
    },
    {
      "midi": 71,
      "hit": false,
      "t": 87721.875,
      "d": 604.6875,
      "v": 121
    },
    {
      "midi": 64,
      "hit": false,
      "t": 87725,
      "d": 1401.5625,
      "v": 123
    },
    {
      "midi": 74,
      "hit": false,
      "t": 87796.875,
      "d": 495.3125,
      "v": 123
    },
    {
      "midi": 72,
      "hit": false,
      "t": 88500,
      "d": 482.8125,
      "v": 125
    },
    {
      "midi": 68,
      "hit": false,
      "t": 88504.6875,
      "d": 564.0625,
      "v": 125
    },
    {
      "midi": 68,
      "hit": false,
      "t": 89218.75,
      "d": 687.5,
      "v": 125
    },
    {
      "midi": 71,
      "hit": false,
      "t": 89220.3125,
      "d": 709.375,
      "v": 125
    },
    {
      "midi": 64,
      "hit": false,
      "t": 89259.375,
      "d": 676.5625,
      "v": 125
    },
    {
      "midi": 84,
      "hit": false,
      "t": 90000,
      "d": 182.8125,
      "v": 64
    },
    {
      "midi": 83,
      "hit": false,
      "t": 90125,
      "d": 204.6875,
      "v": 64
    },
    {
      "midi": 81,
      "hit": false,
      "t": 90250,
      "d": 156.25,
      "v": 64
    },
    {
      "midi": 76,
      "hit": false,
      "t": 90375,
      "d": 190.625,
      "v": 64
    },
    {
      "midi": 81,
      "hit": false,
      "t": 90500,
      "d": 212.5,
      "v": 64
    },
    {
      "midi": 83,
      "hit": false,
      "t": 90625,
      "d": 145.3125,
      "v": 64
    },
    {
      "midi": 84,
      "hit": false,
      "t": 90750,
      "d": 212.5,
      "v": 64
    },
    {
      "midi": 83,
      "hit": false,
      "t": 90875,
      "d": 187.5,
      "v": 64
    },
    {
      "midi": 81,
      "hit": false,
      "t": 91000,
      "d": 171.875,
      "v": 64
    },
    {
      "midi": 76,
      "hit": false,
      "t": 91125,
      "d": 218.75,
      "v": 64
    },
    {
      "midi": 81,
      "hit": false,
      "t": 91250,
      "d": 237.5,
      "v": 64
    },
    {
      "midi": 83,
      "hit": false,
      "t": 91375,
      "d": 150,
      "v": 64
    },
    {
      "midi": 84,
      "hit": false,
      "t": 91500,
      "d": 231.25,
      "v": 64
    },
    {
      "midi": 83,
      "hit": false,
      "t": 91625,
      "d": 162.5,
      "v": 64
    },
    {
      "midi": 81,
      "hit": false,
      "t": 91750,
      "d": 156.25,
      "v": 64
    },
    {
      "midi": 76,
      "hit": false,
      "t": 91875,
      "d": 200,
      "v": 64
    },
    {
      "midi": 81,
      "hit": false,
      "t": 92000,
      "d": 217.1875,
      "v": 64
    },
    {
      "midi": 83,
      "hit": false,
      "t": 92125,
      "d": 151.5625,
      "v": 64
    },
    {
      "midi": 84,
      "hit": false,
      "t": 92250,
      "d": 240.625,
      "v": 64
    },
    {
      "midi": 83,
      "hit": false,
      "t": 92375,
      "d": 171.875,
      "v": 64
    },
    {
      "midi": 81,
      "hit": false,
      "t": 92500,
      "d": 162.5,
      "v": 64
    },
    {
      "midi": 76,
      "hit": false,
      "t": 92625,
      "d": 217.1875,
      "v": 64
    },
    {
      "midi": 81,
      "hit": false,
      "t": 92750,
      "d": 225,
      "v": 64
    },
    {
      "midi": 83,
      "hit": false,
      "t": 92875,
      "d": 154.6875,
      "v": 64
    },
    {
      "midi": 84,
      "hit": false,
      "t": 93000,
      "d": 226.5625,
      "v": 64
    },
    {
      "midi": 83,
      "hit": false,
      "t": 93125,
      "d": 184.375,
      "v": 64
    },
    {
      "midi": 81,
      "hit": false,
      "t": 93250,
      "d": 150,
      "v": 64
    },
    {
      "midi": 77,
      "hit": false,
      "t": 93375,
      "d": 198.4375,
      "v": 64
    },
    {
      "midi": 81,
      "hit": false,
      "t": 93500,
      "d": 212.5,
      "v": 64
    },
    {
      "midi": 83,
      "hit": false,
      "t": 93625,
      "d": 162.5,
      "v": 64
    },
    {
      "midi": 84,
      "hit": false,
      "t": 93750,
      "d": 214.0625,
      "v": 64
    },
    {
      "midi": 83,
      "hit": false,
      "t": 93875,
      "d": 170.3125,
      "v": 64
    },
    {
      "midi": 81,
      "hit": false,
      "t": 94000,
      "d": 131.25,
      "v": 64
    },
    {
      "midi": 77,
      "hit": false,
      "t": 94125,
      "d": 200,
      "v": 64
    },
    {
      "midi": 81,
      "hit": false,
      "t": 94250,
      "d": 193.75,
      "v": 64
    },
    {
      "midi": 83,
      "hit": false,
      "t": 94375,
      "d": 173.4375,
      "v": 64
    },
    {
      "midi": 84,
      "hit": false,
      "t": 94500,
      "d": 212.5,
      "v": 64
    },
    {
      "midi": 83,
      "hit": false,
      "t": 94625,
      "d": 156.25,
      "v": 64
    },
    {
      "midi": 81,
      "hit": false,
      "t": 94750,
      "d": 140.625,
      "v": 64
    },
    {
      "midi": 77,
      "hit": false,
      "t": 94875,
      "d": 189.0625,
      "v": 64
    },
    {
      "midi": 81,
      "hit": false,
      "t": 95000,
      "d": 237.5,
      "v": 64
    },
    {
      "midi": 83,
      "hit": false,
      "t": 95125,
      "d": 153.125,
      "v": 64
    },
    {
      "midi": 84,
      "hit": false,
      "t": 95250,
      "d": 240.625,
      "v": 64
    },
    {
      "midi": 83,
      "hit": false,
      "t": 95375,
      "d": 135.9375,
      "v": 64
    },
    {
      "midi": 81,
      "hit": false,
      "t": 95500,
      "d": 193.75,
      "v": 64
    },
    {
      "midi": 77,
      "hit": false,
      "t": 95625,
      "d": 432.8125,
      "v": 64
    },
    {
      "midi": 83,
      "hit": false,
      "t": 96000,
      "d": 210.9375,
      "v": 64
    },
    {
      "midi": 81,
      "hit": false,
      "t": 96125,
      "d": 203.125,
      "v": 64
    },
    {
      "midi": 79,
      "hit": false,
      "t": 96250,
      "d": 160.9375,
      "v": 64
    },
    {
      "midi": 74,
      "hit": false,
      "t": 96375,
      "d": 206.25,
      "v": 64
    },
    {
      "midi": 79,
      "hit": false,
      "t": 96500,
      "d": 182.8125,
      "v": 64
    },
    {
      "midi": 81,
      "hit": false,
      "t": 96625,
      "d": 132.8125,
      "v": 64
    },
    {
      "midi": 83,
      "hit": false,
      "t": 96750,
      "d": 209.375,
      "v": 64
    },
    {
      "midi": 81,
      "hit": false,
      "t": 96875,
      "d": 182.8125,
      "v": 64
    },
    {
      "midi": 79,
      "hit": false,
      "t": 97000,
      "d": 137.5,
      "v": 64
    },
    {
      "midi": 74,
      "hit": false,
      "t": 97125,
      "d": 215.625,
      "v": 64
    },
    {
      "midi": 79,
      "hit": false,
      "t": 97250,
      "d": 178.125,
      "v": 64
    },
    {
      "midi": 81,
      "hit": false,
      "t": 97375,
      "d": 164.0625,
      "v": 64
    },
    {
      "midi": 83,
      "hit": false,
      "t": 97500,
      "d": 185.9375,
      "v": 64
    },
    {
      "midi": 81,
      "hit": false,
      "t": 97625,
      "d": 164.0625,
      "v": 64
    },
    {
      "midi": 79,
      "hit": false,
      "t": 97750,
      "d": 139.0625,
      "v": 64
    },
    {
      "midi": 74,
      "hit": false,
      "t": 97875,
      "d": 210.9375,
      "v": 64
    },
    {
      "midi": 79,
      "hit": false,
      "t": 98000,
      "d": 229.6875,
      "v": 64
    },
    {
      "midi": 81,
      "hit": false,
      "t": 98125,
      "d": 143.75,
      "v": 64
    },
    {
      "midi": 83,
      "hit": false,
      "t": 98250,
      "d": 206.25,
      "v": 64
    },
    {
      "midi": 81,
      "hit": false,
      "t": 98375,
      "d": 173.4375,
      "v": 64
    },
    {
      "midi": 79,
      "hit": false,
      "t": 98500,
      "d": 154.6875,
      "v": 64
    },
    {
      "midi": 74,
      "hit": false,
      "t": 98625,
      "d": 206.25,
      "v": 64
    },
    {
      "midi": 79,
      "hit": false,
      "t": 98750,
      "d": 187.5,
      "v": 64
    },
    {
      "midi": 81,
      "hit": false,
      "t": 98875,
      "d": 157.8125,
      "v": 64
    },
    {
      "midi": 83,
      "hit": false,
      "t": 99000,
      "d": 251.5625,
      "v": 64
    },
    {
      "midi": 81,
      "hit": false,
      "t": 99125,
      "d": 176.5625,
      "v": 64
    },
    {
      "midi": 79,
      "hit": false,
      "t": 99250,
      "d": 157.8125,
      "v": 64
    },
    {
      "midi": 76,
      "hit": false,
      "t": 99375,
      "d": 189.0625,
      "v": 64
    },
    {
      "midi": 79,
      "hit": false,
      "t": 99500,
      "d": 168.75,
      "v": 64
    },
    {
      "midi": 81,
      "hit": false,
      "t": 99625,
      "d": 148.4375,
      "v": 64
    },
    {
      "midi": 83,
      "hit": false,
      "t": 99750,
      "d": 243.75,
      "v": 64
    },
    {
      "midi": 81,
      "hit": false,
      "t": 99875,
      "d": 168.75,
      "v": 64
    },
    {
      "midi": 79,
      "hit": false,
      "t": 100000,
      "d": 146.875,
      "v": 64
    },
    {
      "midi": 76,
      "hit": false,
      "t": 100125,
      "d": 200,
      "v": 64
    },
    {
      "midi": 79,
      "hit": false,
      "t": 100250,
      "d": 182.8125,
      "v": 64
    },
    {
      "midi": 81,
      "hit": false,
      "t": 100375,
      "d": 148.4375,
      "v": 64
    },
    {
      "midi": 83,
      "hit": false,
      "t": 100500,
      "d": 212.5,
      "v": 64
    },
    {
      "midi": 81,
      "hit": false,
      "t": 100625,
      "d": 185.9375,
      "v": 64
    },
    {
      "midi": 79,
      "hit": false,
      "t": 100750,
      "d": 154.6875,
      "v": 64
    },
    {
      "midi": 76,
      "hit": false,
      "t": 100875,
      "d": 195.3125,
      "v": 64
    },
    {
      "midi": 79,
      "hit": false,
      "t": 101000,
      "d": 196.875,
      "v": 64
    },
    {
      "midi": 81,
      "hit": false,
      "t": 101125,
      "d": 160.9375,
      "v": 64
    },
    {
      "midi": 83,
      "hit": false,
      "t": 101250,
      "d": 209.375,
      "v": 64
    },
    {
      "midi": 81,
      "hit": false,
      "t": 101375,
      "d": 190.625,
      "v": 64
    },
    {
      "midi": 79,
      "hit": false,
      "t": 101500,
      "d": 189.0625,
      "v": 64
    },
    {
      "midi": 76,
      "hit": false,
      "t": 101625,
      "d": 342.1875,
      "v": 64
    },
    {
      "midi": 81,
      "hit": false,
      "t": 102000,
      "d": 231.25,
      "v": 64
    },
    {
      "midi": 79,
      "hit": false,
      "t": 102125,
      "d": 273.4375,
      "v": 64
    },
    {
      "midi": 77,
      "hit": false,
      "t": 102250,
      "d": 167.1875,
      "v": 64
    },
    {
      "midi": 72,
      "hit": false,
      "t": 102375,
      "d": 201.5625,
      "v": 64
    },
    {
      "midi": 77,
      "hit": false,
      "t": 102500,
      "d": 210.9375,
      "v": 64
    },
    {
      "midi": 79,
      "hit": false,
      "t": 102625,
      "d": 118.75,
      "v": 64
    },
    {
      "midi": 81,
      "hit": false,
      "t": 102750,
      "d": 232.8125,
      "v": 64
    },
    {
      "midi": 79,
      "hit": false,
      "t": 102875,
      "d": 162.5,
      "v": 64
    },
    {
      "midi": 77,
      "hit": false,
      "t": 103000,
      "d": 142.1875,
      "v": 64
    },
    {
      "midi": 72,
      "hit": false,
      "t": 103125,
      "d": 192.1875,
      "v": 64
    },
    {
      "midi": 77,
      "hit": false,
      "t": 103250,
      "d": 190.625,
      "v": 64
    },
    {
      "midi": 79,
      "hit": false,
      "t": 103375,
      "d": 154.6875,
      "v": 64
    },
    {
      "midi": 81,
      "hit": false,
      "t": 103500,
      "d": 290.625,
      "v": 64
    },
    {
      "midi": 79,
      "hit": false,
      "t": 103625,
      "d": 209.375,
      "v": 64
    },
    {
      "midi": 77,
      "hit": false,
      "t": 103750,
      "d": 157.8125,
      "v": 64
    },
    {
      "midi": 72,
      "hit": false,
      "t": 103875,
      "d": 221.875,
      "v": 64
    },
    {
      "midi": 77,
      "hit": false,
      "t": 104000,
      "d": 245.3125,
      "v": 64
    },
    {
      "midi": 79,
      "hit": false,
      "t": 104125,
      "d": 154.6875,
      "v": 64
    },
    {
      "midi": 81,
      "hit": false,
      "t": 104250,
      "d": 273.4375,
      "v": 64
    },
    {
      "midi": 79,
      "hit": false,
      "t": 104375,
      "d": 225,
      "v": 64
    },
    {
      "midi": 77,
      "hit": false,
      "t": 104500,
      "d": 157.8125,
      "v": 64
    },
    {
      "midi": 72,
      "hit": false,
      "t": 104625,
      "d": 243.75,
      "v": 64
    },
    {
      "midi": 77,
      "hit": false,
      "t": 104750,
      "d": 204.6875,
      "v": 64
    },
    {
      "midi": 79,
      "hit": false,
      "t": 104875,
      "d": 162.5,
      "v": 64
    },
    {
      "midi": 81,
      "hit": false,
      "t": 105000,
      "d": 231.25,
      "v": 64
    },
    {
      "midi": 79,
      "hit": false,
      "t": 105125,
      "d": 151.5625,
      "v": 64
    },
    {
      "midi": 78,
      "hit": false,
      "t": 105250,
      "d": 154.6875,
      "v": 64
    },
    {
      "midi": 71,
      "hit": false,
      "t": 105375,
      "d": 267.1875,
      "v": 64
    },
    {
      "midi": 78,
      "hit": false,
      "t": 105500,
      "d": 226.5625,
      "v": 64
    },
    {
      "midi": 79,
      "hit": false,
      "t": 105625,
      "d": 156.25,
      "v": 64
    },
    {
      "midi": 81,
      "hit": false,
      "t": 105750,
      "d": 223.4375,
      "v": 64
    },
    {
      "midi": 79,
      "hit": false,
      "t": 105875,
      "d": 167.1875,
      "v": 64
    },
    {
      "midi": 78,
      "hit": false,
      "t": 106000,
      "d": 143.75,
      "v": 64
    },
    {
      "midi": 71,
      "hit": false,
      "t": 106125,
      "d": 293.75,
      "v": 64
    },
    {
      "midi": 78,
      "hit": false,
      "t": 106250,
      "d": 193.75,
      "v": 64
    },
    {
      "midi": 79,
      "hit": false,
      "t": 106375,
      "d": 165.625,
      "v": 64
    },
    {
      "midi": 81,
      "hit": false,
      "t": 106500,
      "d": 221.875,
      "v": 64
    },
    {
      "midi": 79,
      "hit": false,
      "t": 106625,
      "d": 160.9375,
      "v": 64
    },
    {
      "midi": 78,
      "hit": false,
      "t": 106750,
      "d": 156.25,
      "v": 64
    },
    {
      "midi": 71,
      "hit": false,
      "t": 106875,
      "d": 232.8125,
      "v": 64
    },
    {
      "midi": 78,
      "hit": false,
      "t": 107000,
      "d": 195.3125,
      "v": 64
    },
    {
      "midi": 79,
      "hit": false,
      "t": 107125,
      "d": 159.375,
      "v": 64
    },
    {
      "midi": 81,
      "hit": false,
      "t": 107250,
      "d": 231.25,
      "v": 64
    },
    {
      "midi": 79,
      "hit": false,
      "t": 107375,
      "d": 162.5,
      "v": 64
    },
    {
      "midi": 78,
      "hit": false,
      "t": 107500,
      "d": 154.6875,
      "v": 64
    },
    {
      "midi": 71,
      "hit": false,
      "t": 107625,
      "d": 271.875,
      "v": 64
    },
    {
      "midi": 59,
      "hit": false,
      "t": 108000,
      "d": 465.625,
      "v": 100
    },
    {
      "midi": 52,
      "hit": false,
      "t": 108000,
      "d": 2493.75,
      "v": 125
    },
    {
      "midi": 68,
      "hit": false,
      "t": 108018.75,
      "d": 485.9375,
      "v": 105
    },
    {
      "midi": 64,
      "hit": false,
      "t": 108018.75,
      "d": 506.25,
      "v": 105
    },
    {
      "midi": 71,
      "hit": false,
      "t": 108018.75,
      "d": 526.5625,
      "v": 105
    },
    {
      "midi": 64,
      "hit": false,
      "t": 108750,
      "d": 621.875,
      "v": 105
    },
    {
      "midi": 68,
      "hit": false,
      "t": 108750,
      "d": 625,
      "v": 105
    },
    {
      "midi": 71,
      "hit": false,
      "t": 108750,
      "d": 626.5625,
      "v": 105
    },
    {
      "midi": 59,
      "hit": false,
      "t": 108768.75,
      "d": 526.5625,
      "v": 105
    },
    {
      "midi": 68,
      "hit": false,
      "t": 109500,
      "d": 521.875,
      "v": 105
    },
    {
      "midi": 64,
      "hit": false,
      "t": 109500,
      "d": 523.4375,
      "v": 105
    },
    {
      "midi": 71,
      "hit": false,
      "t": 109500,
      "d": 537.5,
      "v": 105
    },
    {
      "midi": 59,
      "hit": false,
      "t": 109559.375,
      "d": 406.25,
      "v": 105
    },
    {
      "midi": 64,
      "hit": false,
      "t": 110250,
      "d": 518.75,
      "v": 105
    },
    {
      "midi": 68,
      "hit": false,
      "t": 110250,
      "d": 531.25,
      "v": 105
    },
    {
      "midi": 71,
      "hit": false,
      "t": 110250,
      "d": 565.625,
      "v": 105
    },
    {
      "midi": 59,
      "hit": false,
      "t": 110289.0625,
      "d": 487.5,
      "v": 105
    },
    {
      "midi": 52,
      "hit": false,
      "t": 110625,
      "d": 262.5,
      "v": 105
    },
    {
      "midi": 64,
      "hit": false,
      "t": 111000,
      "d": 567.1875,
      "v": 105
    },
    {
      "midi": 68,
      "hit": false,
      "t": 111000,
      "d": 592.1875,
      "v": 105
    },
    {
      "midi": 71,
      "hit": false,
      "t": 111000,
      "d": 595.3125,
      "v": 105
    },
    {
      "midi": 74,
      "hit": false,
      "t": 111000,
      "d": 620.3125,
      "v": 105
    },
    {
      "midi": 52,
      "hit": false,
      "t": 111000,
      "d": 931.25,
      "v": 105
    },
    {
      "midi": 64,
      "hit": false,
      "t": 111750,
      "d": 573.4375,
      "v": 105
    },
    {
      "midi": 68,
      "hit": false,
      "t": 111750,
      "d": 584.375,
      "v": 105
    },
    {
      "midi": 71,
      "hit": false,
      "t": 111750,
      "d": 590.625,
      "v": 105
    },
    {
      "midi": 74,
      "hit": false,
      "t": 111750,
      "d": 612.5,
      "v": 105
    },
    {
      "midi": 52,
      "hit": false,
      "t": 112125,
      "d": 1551.5625,
      "v": 105
    },
    {
      "midi": 64,
      "hit": false,
      "t": 112500,
      "d": 556.25,
      "v": 105
    },
    {
      "midi": 74,
      "hit": false,
      "t": 112500,
      "d": 578.125,
      "v": 105
    },
    {
      "midi": 68,
      "hit": false,
      "t": 112500,
      "d": 582.8125,
      "v": 105
    },
    {
      "midi": 71,
      "hit": false,
      "t": 112500,
      "d": 592.1875,
      "v": 105
    },
    {
      "midi": 68,
      "hit": false,
      "t": 113250,
      "d": 525,
      "v": 105
    },
    {
      "midi": 74,
      "hit": false,
      "t": 113250,
      "d": 531.25,
      "v": 105
    },
    {
      "midi": 64,
      "hit": false,
      "t": 113250,
      "d": 532.8125,
      "v": 105
    },
    {
      "midi": 71,
      "hit": false,
      "t": 113250,
      "d": 532.8125,
      "v": 105
    },
    {
      "midi": 69,
      "hit": false,
      "t": 114000,
      "d": 551.5625,
      "v": 105
    },
    {
      "midi": 61,
      "hit": false,
      "t": 114001.5625,
      "d": 548.4375,
      "v": 105
    },
    {
      "midi": 64,
      "hit": false,
      "t": 114004.6875,
      "d": 523.4375,
      "v": 105
    },
    {
      "midi": 45,
      "hit": false,
      "t": 114010.9375,
      "d": 993.75,
      "v": 105
    },
    {
      "midi": 61,
      "hit": false,
      "t": 114743.75,
      "d": 471.875,
      "v": 105
    },
    {
      "midi": 69,
      "hit": false,
      "t": 114746.875,
      "d": 503.125,
      "v": 105
    },
    {
      "midi": 64,
      "hit": false,
      "t": 114751.5625,
      "d": 467.1875,
      "v": 105
    },
    {
      "midi": 45,
      "hit": false,
      "t": 115145.3125,
      "d": 514.0625,
      "v": 105
    },
    {
      "midi": 64,
      "hit": false,
      "t": 115504.6875,
      "d": 450,
      "v": 105
    },
    {
      "midi": 61,
      "hit": false,
      "t": 115509.375,
      "d": 445.3125,
      "v": 105
    },
    {
      "midi": 69,
      "hit": false,
      "t": 115510.9375,
      "d": 465.625,
      "v": 105
    },
    {
      "midi": 45,
      "hit": false,
      "t": 115862.5,
      "d": 531.25,
      "v": 105
    },
    {
      "midi": 64,
      "hit": false,
      "t": 116229.6875,
      "d": 514.0625,
      "v": 105
    },
    {
      "midi": 69,
      "hit": false,
      "t": 116232.8125,
      "d": 482.8125,
      "v": 105
    },
    {
      "midi": 61,
      "hit": false,
      "t": 116232.8125,
      "d": 507.8125,
      "v": 105
    },
    {
      "midi": 45,
      "hit": false,
      "t": 116600,
      "d": 234.375,
      "v": 105
    },
    {
      "midi": 45,
      "hit": false,
      "t": 116960.9375,
      "d": 942.1875,
      "v": 105
    },
    {
      "midi": 68,
      "hit": false,
      "t": 116965.625,
      "d": 585.9375,
      "v": 105
    },
    {
      "midi": 64,
      "hit": false,
      "t": 116975,
      "d": 568.75,
      "v": 105
    },
    {
      "midi": 61,
      "hit": false,
      "t": 116975,
      "d": 590.625,
      "v": 105
    },
    {
      "midi": 68,
      "hit": false,
      "t": 117740.625,
      "d": 526.5625,
      "v": 105
    },
    {
      "midi": 61,
      "hit": false,
      "t": 117745.3125,
      "d": 528.125,
      "v": 105
    },
    {
      "midi": 64,
      "hit": false,
      "t": 117751.5625,
      "d": 495.3125,
      "v": 105
    },
    {
      "midi": 45,
      "hit": false,
      "t": 118118.75,
      "d": 514.0625,
      "v": 105
    },
    {
      "midi": 68,
      "hit": false,
      "t": 118489.0625,
      "d": 493.75,
      "v": 105
    },
    {
      "midi": 61,
      "hit": false,
      "t": 118500,
      "d": 489.0625,
      "v": 105
    },
    {
      "midi": 64,
      "hit": false,
      "t": 118501.5625,
      "d": 460.9375,
      "v": 105
    },
    {
      "midi": 45,
      "hit": false,
      "t": 118853.125,
      "d": 509.375,
      "v": 105
    },
    {
      "midi": 68,
      "hit": false,
      "t": 119221.875,
      "d": 473.4375,
      "v": 105
    },
    {
      "midi": 61,
      "hit": false,
      "t": 119225,
      "d": 407.8125,
      "v": 105
    },
    {
      "midi": 64,
      "hit": false,
      "t": 119232.8125,
      "d": 451.5625,
      "v": 105
    },
    {
      "midi": 45,
      "hit": false,
      "t": 119576.5625,
      "d": 253.125,
      "v": 105
    },
    {
      "midi": 45,
      "hit": false,
      "t": 119971.875,
      "d": 821.875,
      "v": 105
    },
    {
      "midi": 67,
      "hit": false,
      "t": 119981.25,
      "d": 589.0625,
      "v": 105
    },
    {
      "midi": 64,
      "hit": false,
      "t": 119984.375,
      "d": 543.75,
      "v": 105
    },
    {
      "midi": 59,
      "hit": false,
      "t": 119984.375,
      "d": 557.8125,
      "v": 105
    },
    {
      "midi": 67,
      "hit": false,
      "t": 120715.625,
      "d": 534.375,
      "v": 105
    },
    {
      "midi": 59,
      "hit": false,
      "t": 120718.75,
      "d": 515.625,
      "v": 105
    },
    {
      "midi": 64,
      "hit": false,
      "t": 120723.4375,
      "d": 495.3125,
      "v": 105
    },
    {
      "midi": 45,
      "hit": false,
      "t": 121067.1875,
      "d": 579.6875,
      "v": 105
    },
    {
      "midi": 59,
      "hit": false,
      "t": 121464.0625,
      "d": 521.875,
      "v": 105
    },
    {
      "midi": 64,
      "hit": false,
      "t": 121467.1875,
      "d": 510.9375,
      "v": 105
    },
    {
      "midi": 67,
      "hit": false,
      "t": 121467.1875,
      "d": 535.9375,
      "v": 105
    },
    {
      "midi": 45,
      "hit": false,
      "t": 121835.9375,
      "d": 539.0625,
      "v": 105
    },
    {
      "midi": 59,
      "hit": false,
      "t": 122237.5,
      "d": 364.0625,
      "v": 105
    },
    {
      "midi": 67,
      "hit": false,
      "t": 122237.5,
      "d": 448.4375,
      "v": 105
    },
    {
      "midi": 64,
      "hit": false,
      "t": 122237.5,
      "d": 534.375,
      "v": 105
    },
    {
      "midi": 45,
      "hit": false,
      "t": 122593.75,
      "d": 228.125,
      "v": 105
    },
    {
      "midi": 66,
      "hit": false,
      "t": 122976.5625,
      "d": 600,
      "v": 105
    },
    {
      "midi": 45,
      "hit": false,
      "t": 122979.6875,
      "d": 867.1875,
      "v": 105
    },
    {
      "midi": 69,
      "hit": false,
      "t": 122987.5,
      "d": 589.0625,
      "v": 105
    },
    {
      "midi": 62,
      "hit": false,
      "t": 122989.0625,
      "d": 581.25,
      "v": 105
    },
    {
      "midi": 66,
      "hit": false,
      "t": 123710.9375,
      "d": 407.8125,
      "v": 105
    },
    {
      "midi": 69,
      "hit": false,
      "t": 123721.875,
      "d": 382.8125,
      "v": 105
    },
    {
      "midi": 62,
      "hit": false,
      "t": 123728.125,
      "d": 428.125,
      "v": 105
    },
    {
      "midi": 45,
      "hit": false,
      "t": 124084.375,
      "d": 176.5625,
      "v": 105
    },
    {
      "midi": 65,
      "hit": false,
      "t": 124450,
      "d": 550,
      "v": 105
    },
    {
      "midi": 60,
      "hit": false,
      "t": 124453.125,
      "d": 515.625,
      "v": 105
    },
    {
      "midi": 57,
      "hit": false,
      "t": 124454.6875,
      "d": 520.3125,
      "v": 105
    },
    {
      "midi": 62,
      "hit": false,
      "t": 125182.8125,
      "d": 532.8125,
      "v": 105
    },
    {
      "midi": 59,
      "hit": false,
      "t": 125185.9375,
      "d": 504.6875,
      "v": 105
    },
    {
      "midi": 67,
      "hit": false,
      "t": 125190.625,
      "d": 531.25,
      "v": 105
    },
    {
      "midi": 69,
      "hit": false,
      "t": 125982.8125,
      "d": 615.625,
      "v": 105
    },
    {
      "midi": 64,
      "hit": false,
      "t": 125987.5,
      "d": 601.5625,
      "v": 105
    },
    {
      "midi": 45,
      "hit": false,
      "t": 125996.875,
      "d": 925,
      "v": 105
    },
    {
      "midi": 61,
      "hit": false,
      "t": 126000,
      "d": 575,
      "v": 105
    },
    {
      "midi": 69,
      "hit": false,
      "t": 126729.6875,
      "d": 531.25,
      "v": 105
    },
    {
      "midi": 61,
      "hit": false,
      "t": 126734.375,
      "d": 506.25,
      "v": 105
    },
    {
      "midi": 64,
      "hit": false,
      "t": 126735.9375,
      "d": 515.625,
      "v": 105
    },
    {
      "midi": 45,
      "hit": false,
      "t": 127129.6875,
      "d": 576.5625,
      "v": 105
    },
    {
      "midi": 64,
      "hit": false,
      "t": 127490.625,
      "d": 485.9375,
      "v": 105
    },
    {
      "midi": 61,
      "hit": false,
      "t": 127492.1875,
      "d": 487.5,
      "v": 105
    },
    {
      "midi": 69,
      "hit": false,
      "t": 127496.875,
      "d": 485.9375,
      "v": 105
    },
    {
      "midi": 45,
      "hit": false,
      "t": 127865.625,
      "d": 668.75,
      "v": 105
    },
    {
      "midi": 61,
      "hit": false,
      "t": 128232.8125,
      "d": 471.875,
      "v": 105
    },
    {
      "midi": 69,
      "hit": false,
      "t": 128232.8125,
      "d": 487.5,
      "v": 105
    },
    {
      "midi": 64,
      "hit": false,
      "t": 128232.8125,
      "d": 495.3125,
      "v": 105
    },
    {
      "midi": 45,
      "hit": false,
      "t": 128604.6875,
      "d": 250,
      "v": 105
    },
    {
      "midi": 68,
      "hit": false,
      "t": 128971.875,
      "d": 579.6875,
      "v": 105
    },
    {
      "midi": 61,
      "hit": false,
      "t": 128976.5625,
      "d": 532.8125,
      "v": 105
    },
    {
      "midi": 64,
      "hit": false,
      "t": 128979.6875,
      "d": 553.125,
      "v": 105
    },
    {
      "midi": 45,
      "hit": false,
      "t": 128985.9375,
      "d": 998.4375,
      "v": 105
    },
    {
      "midi": 68,
      "hit": false,
      "t": 129737.5,
      "d": 581.25,
      "v": 105
    },
    {
      "midi": 64,
      "hit": false,
      "t": 129746.875,
      "d": 565.625,
      "v": 105
    },
    {
      "midi": 61,
      "hit": false,
      "t": 129750,
      "d": 568.75,
      "v": 105
    },
    {
      "midi": 45,
      "hit": false,
      "t": 130140.625,
      "d": 239.0625,
      "v": 105
    },
    {
      "midi": 45,
      "hit": false,
      "t": 130504.6875,
      "d": 907.8125,
      "v": 105
    },
    {
      "midi": 61,
      "hit": false,
      "t": 130526.5625,
      "d": 553.125,
      "v": 105
    },
    {
      "midi": 64,
      "hit": false,
      "t": 130528.125,
      "d": 573.4375,
      "v": 105
    },
    {
      "midi": 67,
      "hit": false,
      "t": 130532.8125,
      "d": 568.75,
      "v": 105
    },
    {
      "midi": 61,
      "hit": false,
      "t": 131284.375,
      "d": 414.0625,
      "v": 105
    },
    {
      "midi": 64,
      "hit": false,
      "t": 131285.9375,
      "d": 381.25,
      "v": 105
    },
    {
      "midi": 67,
      "hit": false,
      "t": 131287.5,
      "d": 414.0625,
      "v": 105
    },
    {
      "midi": 45,
      "hit": false,
      "t": 131629.6875,
      "d": 303.125,
      "v": 105
    },
    {
      "midi": 66,
      "hit": false,
      "t": 132032.8125,
      "d": 543.75,
      "v": 105
    },
    {
      "midi": 45,
      "hit": false,
      "t": 132032.8125,
      "d": 837.5,
      "v": 105
    },
    {
      "midi": 69,
      "hit": false,
      "t": 132037.5,
      "d": 550,
      "v": 105
    },
    {
      "midi": 62,
      "hit": false,
      "t": 132040.625,
      "d": 542.1875,
      "v": 105
    },
    {
      "midi": 66,
      "hit": false,
      "t": 132729.6875,
      "d": 485.9375,
      "v": 105
    },
    {
      "midi": 69,
      "hit": false,
      "t": 132751.5625,
      "d": 560.9375,
      "v": 105
    },
    {
      "midi": 62,
      "hit": false,
      "t": 132756.25,
      "d": 517.1875,
      "v": 105
    },
    {
      "midi": 45,
      "hit": false,
      "t": 133090.625,
      "d": 1340.625,
      "v": 105
    },
    {
      "midi": 65,
      "hit": false,
      "t": 133470.3125,
      "d": 634.375,
      "v": 105
    },
    {
      "midi": 69,
      "hit": false,
      "t": 133471.875,
      "d": 639.0625,
      "v": 105
    },
    {
      "midi": 62,
      "hit": false,
      "t": 133475,
      "d": 635.9375,
      "v": 105
    },
    {
      "midi": 65,
      "hit": false,
      "t": 134232.8125,
      "d": 437.5,
      "v": 105
    },
    {
      "midi": 69,
      "hit": false,
      "t": 134237.5,
      "d": 467.1875,
      "v": 105
    },
    {
      "midi": 62,
      "hit": false,
      "t": 134242.1875,
      "d": 454.6875,
      "v": 105
    },
    {
      "midi": 45,
      "hit": false,
      "t": 134629.6875,
      "d": 242.1875,
      "v": 105
    },
    {
      "midi": 45,
      "hit": false,
      "t": 134989.0625,
      "d": 946.875,
      "v": 105
    },
    {
      "midi": 64,
      "hit": false,
      "t": 135006.25,
      "d": 553.125,
      "v": 105
    },
    {
      "midi": 61,
      "hit": false,
      "t": 135014.0625,
      "d": 515.625,
      "v": 105
    },
    {
      "midi": 69,
      "hit": false,
      "t": 135015.625,
      "d": 545.3125,
      "v": 105
    },
    {
      "midi": 61,
      "hit": false,
      "t": 135743.75,
      "d": 507.8125,
      "v": 105
    },
    {
      "midi": 64,
      "hit": false,
      "t": 135745.3125,
      "d": 498.4375,
      "v": 105
    },
    {
      "midi": 69,
      "hit": false,
      "t": 135748.4375,
      "d": 506.25,
      "v": 105
    },
    {
      "midi": 45,
      "hit": false,
      "t": 136125,
      "d": 1221.875,
      "v": 105
    },
    {
      "midi": 61,
      "hit": false,
      "t": 136501.5625,
      "d": 514.0625,
      "v": 105
    },
    {
      "midi": 64,
      "hit": false,
      "t": 136503.125,
      "d": 518.75,
      "v": 105
    },
    {
      "midi": 69,
      "hit": false,
      "t": 136504.6875,
      "d": 551.5625,
      "v": 105
    },
    {
      "midi": 64,
      "hit": false,
      "t": 137262.5,
      "d": 393.75,
      "v": 105
    },
    {
      "midi": 69,
      "hit": false,
      "t": 137265.625,
      "d": 392.1875,
      "v": 105
    },
    {
      "midi": 61,
      "hit": false,
      "t": 137265.625,
      "d": 421.875,
      "v": 105
    },
    {
      "midi": 45,
      "hit": false,
      "t": 137612.5,
      "d": 242.1875,
      "v": 105
    },
    {
      "midi": 62,
      "hit": false,
      "t": 138021.875,
      "d": 2851.5625,
      "v": 105
    },
    {
      "midi": 67,
      "hit": false,
      "t": 138028.125,
      "d": 2851.5625,
      "v": 105
    },
    {
      "midi": 59,
      "hit": false,
      "t": 138032.8125,
      "d": 2825,
      "v": 105
    },
    {
      "midi": 43,
      "hit": false,
      "t": 138039.0625,
      "d": 2812.5,
      "v": 105
    },
    {
      "midi": 68,
      "hit": false,
      "t": 141667.1875,
      "d": 695.3125,
      "v": 105
    },
    {
      "midi": 71,
      "hit": false,
      "t": 141721.875,
      "d": 604.6875,
      "v": 105
    },
    {
      "midi": 64,
      "hit": false,
      "t": 141725,
      "d": 1401.5625,
      "v": 105
    },
    {
      "midi": 74,
      "hit": false,
      "t": 141796.875,
      "d": 495.3125,
      "v": 105
    },
    {
      "midi": 72,
      "hit": false,
      "t": 142500,
      "d": 482.8125,
      "v": 105
    },
    {
      "midi": 68,
      "hit": false,
      "t": 142504.6875,
      "d": 564.0625,
      "v": 105
    },
    {
      "midi": 68,
      "hit": false,
      "t": 143218.75,
      "d": 687.5,
      "v": 105
    },
    {
      "midi": 71,
      "hit": false,
      "t": 143220.3125,
      "d": 709.375,
      "v": 105
    },
    {
      "midi": 64,
      "hit": false,
      "t": 143259.375,
      "d": 676.5625,
      "v": 105
    },
    {
      "midi": 84,
      "hit": false,
      "t": 144000,
      "d": 182.8125,
      "v": 64
    },
    {
      "midi": 83,
      "hit": false,
      "t": 144125,
      "d": 204.6875,
      "v": 64
    },
    {
      "midi": 81,
      "hit": false,
      "t": 144250,
      "d": 156.25,
      "v": 64
    },
    {
      "midi": 76,
      "hit": false,
      "t": 144375,
      "d": 190.625,
      "v": 64
    },
    {
      "midi": 81,
      "hit": false,
      "t": 144500,
      "d": 212.5,
      "v": 64
    },
    {
      "midi": 83,
      "hit": false,
      "t": 144625,
      "d": 145.3125,
      "v": 64
    },
    {
      "midi": 84,
      "hit": false,
      "t": 144750,
      "d": 212.5,
      "v": 64
    },
    {
      "midi": 83,
      "hit": false,
      "t": 144875,
      "d": 187.5,
      "v": 64
    },
    {
      "midi": 81,
      "hit": false,
      "t": 145000,
      "d": 171.875,
      "v": 64
    },
    {
      "midi": 76,
      "hit": false,
      "t": 145125,
      "d": 218.75,
      "v": 64
    },
    {
      "midi": 81,
      "hit": false,
      "t": 145250,
      "d": 237.5,
      "v": 64
    },
    {
      "midi": 83,
      "hit": false,
      "t": 145375,
      "d": 150,
      "v": 64
    },
    {
      "midi": 84,
      "hit": false,
      "t": 145500,
      "d": 231.25,
      "v": 64
    },
    {
      "midi": 83,
      "hit": false,
      "t": 145625,
      "d": 162.5,
      "v": 64
    },
    {
      "midi": 81,
      "hit": false,
      "t": 145750,
      "d": 156.25,
      "v": 64
    },
    {
      "midi": 76,
      "hit": false,
      "t": 145875,
      "d": 200,
      "v": 64
    },
    {
      "midi": 81,
      "hit": false,
      "t": 146000,
      "d": 217.1875,
      "v": 64
    },
    {
      "midi": 83,
      "hit": false,
      "t": 146125,
      "d": 151.5625,
      "v": 64
    },
    {
      "midi": 84,
      "hit": false,
      "t": 146250,
      "d": 240.625,
      "v": 64
    },
    {
      "midi": 83,
      "hit": false,
      "t": 146375,
      "d": 171.875,
      "v": 64
    },
    {
      "midi": 81,
      "hit": false,
      "t": 146500,
      "d": 162.5,
      "v": 64
    },
    {
      "midi": 76,
      "hit": false,
      "t": 146625,
      "d": 217.1875,
      "v": 64
    },
    {
      "midi": 81,
      "hit": false,
      "t": 146750,
      "d": 225,
      "v": 64
    },
    {
      "midi": 83,
      "hit": false,
      "t": 146875,
      "d": 154.6875,
      "v": 64
    },
    {
      "midi": 84,
      "hit": false,
      "t": 147000,
      "d": 226.5625,
      "v": 64
    },
    {
      "midi": 83,
      "hit": false,
      "t": 147125,
      "d": 184.375,
      "v": 64
    },
    {
      "midi": 81,
      "hit": false,
      "t": 147250,
      "d": 150,
      "v": 64
    },
    {
      "midi": 77,
      "hit": false,
      "t": 147375,
      "d": 198.4375,
      "v": 64
    },
    {
      "midi": 81,
      "hit": false,
      "t": 147500,
      "d": 212.5,
      "v": 64
    },
    {
      "midi": 83,
      "hit": false,
      "t": 147625,
      "d": 162.5,
      "v": 64
    },
    {
      "midi": 84,
      "hit": false,
      "t": 147750,
      "d": 214.0625,
      "v": 64
    },
    {
      "midi": 83,
      "hit": false,
      "t": 147875,
      "d": 170.3125,
      "v": 64
    },
    {
      "midi": 81,
      "hit": false,
      "t": 148000,
      "d": 131.25,
      "v": 64
    },
    {
      "midi": 77,
      "hit": false,
      "t": 148125,
      "d": 200,
      "v": 64
    },
    {
      "midi": 81,
      "hit": false,
      "t": 148250,
      "d": 193.75,
      "v": 64
    },
    {
      "midi": 83,
      "hit": false,
      "t": 148375,
      "d": 173.4375,
      "v": 64
    },
    {
      "midi": 84,
      "hit": false,
      "t": 148500,
      "d": 212.5,
      "v": 64
    },
    {
      "midi": 83,
      "hit": false,
      "t": 148625,
      "d": 156.25,
      "v": 64
    },
    {
      "midi": 81,
      "hit": false,
      "t": 148750,
      "d": 140.625,
      "v": 64
    },
    {
      "midi": 77,
      "hit": false,
      "t": 148875,
      "d": 189.0625,
      "v": 64
    },
    {
      "midi": 81,
      "hit": false,
      "t": 149000,
      "d": 237.5,
      "v": 64
    },
    {
      "midi": 83,
      "hit": false,
      "t": 149125,
      "d": 153.125,
      "v": 64
    },
    {
      "midi": 84,
      "hit": false,
      "t": 149250,
      "d": 240.625,
      "v": 64
    },
    {
      "midi": 83,
      "hit": false,
      "t": 149375,
      "d": 135.9375,
      "v": 64
    },
    {
      "midi": 81,
      "hit": false,
      "t": 149500,
      "d": 193.75,
      "v": 64
    },
    {
      "midi": 77,
      "hit": false,
      "t": 149625,
      "d": 432.8125,
      "v": 64
    },
    {
      "midi": 83,
      "hit": false,
      "t": 150000,
      "d": 210.9375,
      "v": 64
    },
    {
      "midi": 81,
      "hit": false,
      "t": 150125,
      "d": 203.125,
      "v": 64
    },
    {
      "midi": 79,
      "hit": false,
      "t": 150250,
      "d": 160.9375,
      "v": 64
    },
    {
      "midi": 74,
      "hit": false,
      "t": 150375,
      "d": 206.25,
      "v": 64
    },
    {
      "midi": 79,
      "hit": false,
      "t": 150500,
      "d": 182.8125,
      "v": 64
    },
    {
      "midi": 81,
      "hit": false,
      "t": 150625,
      "d": 132.8125,
      "v": 64
    },
    {
      "midi": 83,
      "hit": false,
      "t": 150750,
      "d": 209.375,
      "v": 64
    },
    {
      "midi": 81,
      "hit": false,
      "t": 150875,
      "d": 182.8125,
      "v": 64
    },
    {
      "midi": 79,
      "hit": false,
      "t": 151000,
      "d": 137.5,
      "v": 64
    },
    {
      "midi": 74,
      "hit": false,
      "t": 151125,
      "d": 215.625,
      "v": 64
    },
    {
      "midi": 79,
      "hit": false,
      "t": 151250,
      "d": 178.125,
      "v": 64
    },
    {
      "midi": 81,
      "hit": false,
      "t": 151375,
      "d": 164.0625,
      "v": 64
    },
    {
      "midi": 83,
      "hit": false,
      "t": 151500,
      "d": 185.9375,
      "v": 64
    },
    {
      "midi": 81,
      "hit": false,
      "t": 151625,
      "d": 164.0625,
      "v": 64
    },
    {
      "midi": 79,
      "hit": false,
      "t": 151750,
      "d": 139.0625,
      "v": 64
    },
    {
      "midi": 74,
      "hit": false,
      "t": 151875,
      "d": 210.9375,
      "v": 64
    },
    {
      "midi": 79,
      "hit": false,
      "t": 152000,
      "d": 229.6875,
      "v": 64
    },
    {
      "midi": 81,
      "hit": false,
      "t": 152125,
      "d": 143.75,
      "v": 64
    },
    {
      "midi": 83,
      "hit": false,
      "t": 152250,
      "d": 206.25,
      "v": 64
    },
    {
      "midi": 81,
      "hit": false,
      "t": 152375,
      "d": 173.4375,
      "v": 64
    },
    {
      "midi": 79,
      "hit": false,
      "t": 152500,
      "d": 154.6875,
      "v": 64
    },
    {
      "midi": 74,
      "hit": false,
      "t": 152625,
      "d": 206.25,
      "v": 64
    },
    {
      "midi": 79,
      "hit": false,
      "t": 152750,
      "d": 187.5,
      "v": 64
    },
    {
      "midi": 81,
      "hit": false,
      "t": 152875,
      "d": 157.8125,
      "v": 64
    },
    {
      "midi": 83,
      "hit": false,
      "t": 153000,
      "d": 251.5625,
      "v": 64
    },
    {
      "midi": 81,
      "hit": false,
      "t": 153125,
      "d": 176.5625,
      "v": 64
    },
    {
      "midi": 79,
      "hit": false,
      "t": 153250,
      "d": 157.8125,
      "v": 64
    },
    {
      "midi": 76,
      "hit": false,
      "t": 153375,
      "d": 189.0625,
      "v": 64
    },
    {
      "midi": 79,
      "hit": false,
      "t": 153500,
      "d": 168.75,
      "v": 64
    },
    {
      "midi": 81,
      "hit": false,
      "t": 153625,
      "d": 148.4375,
      "v": 64
    },
    {
      "midi": 83,
      "hit": false,
      "t": 153750,
      "d": 243.75,
      "v": 64
    },
    {
      "midi": 81,
      "hit": false,
      "t": 153875,
      "d": 168.75,
      "v": 64
    },
    {
      "midi": 79,
      "hit": false,
      "t": 154000,
      "d": 146.875,
      "v": 64
    },
    {
      "midi": 76,
      "hit": false,
      "t": 154125,
      "d": 200,
      "v": 64
    },
    {
      "midi": 79,
      "hit": false,
      "t": 154250,
      "d": 182.8125,
      "v": 64
    },
    {
      "midi": 81,
      "hit": false,
      "t": 154375,
      "d": 148.4375,
      "v": 64
    },
    {
      "midi": 83,
      "hit": false,
      "t": 154500,
      "d": 212.5,
      "v": 64
    },
    {
      "midi": 81,
      "hit": false,
      "t": 154625,
      "d": 185.9375,
      "v": 64
    },
    {
      "midi": 79,
      "hit": false,
      "t": 154750,
      "d": 154.6875,
      "v": 64
    },
    {
      "midi": 76,
      "hit": false,
      "t": 154875,
      "d": 195.3125,
      "v": 64
    },
    {
      "midi": 79,
      "hit": false,
      "t": 155000,
      "d": 196.875,
      "v": 64
    },
    {
      "midi": 81,
      "hit": false,
      "t": 155125,
      "d": 160.9375,
      "v": 64
    },
    {
      "midi": 83,
      "hit": false,
      "t": 155250,
      "d": 209.375,
      "v": 64
    },
    {
      "midi": 81,
      "hit": false,
      "t": 155375,
      "d": 190.625,
      "v": 64
    },
    {
      "midi": 79,
      "hit": false,
      "t": 155500,
      "d": 189.0625,
      "v": 64
    },
    {
      "midi": 76,
      "hit": false,
      "t": 155625,
      "d": 342.1875,
      "v": 64
    },
    {
      "midi": 81,
      "hit": false,
      "t": 156000,
      "d": 231.25,
      "v": 64
    },
    {
      "midi": 79,
      "hit": false,
      "t": 156125,
      "d": 273.4375,
      "v": 64
    },
    {
      "midi": 77,
      "hit": false,
      "t": 156250,
      "d": 167.1875,
      "v": 64
    },
    {
      "midi": 72,
      "hit": false,
      "t": 156375,
      "d": 201.5625,
      "v": 64
    },
    {
      "midi": 77,
      "hit": false,
      "t": 156500,
      "d": 210.9375,
      "v": 64
    },
    {
      "midi": 79,
      "hit": false,
      "t": 156625,
      "d": 118.75,
      "v": 64
    },
    {
      "midi": 81,
      "hit": false,
      "t": 156750,
      "d": 232.8125,
      "v": 64
    },
    {
      "midi": 79,
      "hit": false,
      "t": 156875,
      "d": 162.5,
      "v": 64
    },
    {
      "midi": 77,
      "hit": false,
      "t": 157000,
      "d": 142.1875,
      "v": 64
    },
    {
      "midi": 72,
      "hit": false,
      "t": 157125,
      "d": 192.1875,
      "v": 64
    },
    {
      "midi": 77,
      "hit": false,
      "t": 157250,
      "d": 190.625,
      "v": 64
    },
    {
      "midi": 79,
      "hit": false,
      "t": 157375,
      "d": 154.6875,
      "v": 64
    },
    {
      "midi": 81,
      "hit": false,
      "t": 157500,
      "d": 290.625,
      "v": 64
    },
    {
      "midi": 79,
      "hit": false,
      "t": 157625,
      "d": 209.375,
      "v": 64
    },
    {
      "midi": 77,
      "hit": false,
      "t": 157750,
      "d": 157.8125,
      "v": 64
    },
    {
      "midi": 72,
      "hit": false,
      "t": 157875,
      "d": 221.875,
      "v": 64
    },
    {
      "midi": 77,
      "hit": false,
      "t": 158000,
      "d": 245.3125,
      "v": 64
    },
    {
      "midi": 79,
      "hit": false,
      "t": 158125,
      "d": 154.6875,
      "v": 64
    },
    {
      "midi": 81,
      "hit": false,
      "t": 158250,
      "d": 273.4375,
      "v": 64
    },
    {
      "midi": 79,
      "hit": false,
      "t": 158375,
      "d": 225,
      "v": 64
    },
    {
      "midi": 77,
      "hit": false,
      "t": 158500,
      "d": 157.8125,
      "v": 64
    },
    {
      "midi": 72,
      "hit": false,
      "t": 158625,
      "d": 243.75,
      "v": 64
    },
    {
      "midi": 77,
      "hit": false,
      "t": 158750,
      "d": 204.6875,
      "v": 64
    },
    {
      "midi": 79,
      "hit": false,
      "t": 158875,
      "d": 162.5,
      "v": 64
    },
    {
      "midi": 81,
      "hit": false,
      "t": 159000,
      "d": 231.25,
      "v": 64
    },
    {
      "midi": 79,
      "hit": false,
      "t": 159125,
      "d": 151.5625,
      "v": 64
    },
    {
      "midi": 78,
      "hit": false,
      "t": 159250,
      "d": 154.6875,
      "v": 64
    },
    {
      "midi": 71,
      "hit": false,
      "t": 159375,
      "d": 267.1875,
      "v": 64
    },
    {
      "midi": 78,
      "hit": false,
      "t": 159500,
      "d": 226.5625,
      "v": 64
    },
    {
      "midi": 79,
      "hit": false,
      "t": 159625,
      "d": 156.25,
      "v": 64
    },
    {
      "midi": 81,
      "hit": false,
      "t": 159750,
      "d": 223.4375,
      "v": 64
    },
    {
      "midi": 79,
      "hit": false,
      "t": 159875,
      "d": 167.1875,
      "v": 64
    },
    {
      "midi": 78,
      "hit": false,
      "t": 160000,
      "d": 143.75,
      "v": 64
    },
    {
      "midi": 71,
      "hit": false,
      "t": 160125,
      "d": 293.75,
      "v": 64
    },
    {
      "midi": 78,
      "hit": false,
      "t": 160250,
      "d": 193.75,
      "v": 64
    },
    {
      "midi": 79,
      "hit": false,
      "t": 160375,
      "d": 165.625,
      "v": 64
    },
    {
      "midi": 81,
      "hit": false,
      "t": 160500,
      "d": 221.875,
      "v": 64
    },
    {
      "midi": 79,
      "hit": false,
      "t": 160625,
      "d": 160.9375,
      "v": 64
    },
    {
      "midi": 78,
      "hit": false,
      "t": 160750,
      "d": 156.25,
      "v": 64
    },
    {
      "midi": 71,
      "hit": false,
      "t": 160875,
      "d": 232.8125,
      "v": 64
    },
    {
      "midi": 78,
      "hit": false,
      "t": 161000,
      "d": 195.3125,
      "v": 64
    },
    {
      "midi": 79,
      "hit": false,
      "t": 161125,
      "d": 159.375,
      "v": 64
    },
    {
      "midi": 81,
      "hit": false,
      "t": 161250,
      "d": 231.25,
      "v": 64
    },
    {
      "midi": 79,
      "hit": false,
      "t": 161375,
      "d": 162.5,
      "v": 64
    },
    {
      "midi": 78,
      "hit": false,
      "t": 161500,
      "d": 154.6875,
      "v": 64
    },
    {
      "midi": 71,
      "hit": false,
      "t": 161625,
      "d": 271.875,
      "v": 64
    },
    {
      "midi": 68,
      "hit": false,
      "t": 162000,
      "d": 684.375,
      "v": 100
    },
    {
      "midi": 64,
      "hit": false,
      "t": 162000,
      "d": 715.625,
      "v": 100
    },
    {
      "midi": 40,
      "hit": false,
      "t": 162000,
      "d": 3253.125,
      "v": 100
    },
    {
      "midi": 52,
      "hit": false,
      "t": 162000,
      "d": 3295.3125,
      "v": 100
    },
    {
      "midi": 76,
      "hit": false,
      "t": 162028.125,
      "d": 598.4375,
      "v": 123
    },
    {
      "midi": 64,
      "hit": false,
      "t": 162879.6875,
      "d": 710.9375,
      "v": 125
    },
    {
      "midi": 68,
      "hit": false,
      "t": 162881.25,
      "d": 723.4375,
      "v": 125
    },
    {
      "midi": 74,
      "hit": false,
      "t": 162882.8125,
      "d": 889.0625,
      "v": 123
    },
    {
      "midi": 68,
      "hit": false,
      "t": 163884.375,
      "d": 1943.75,
      "v": 123
    },
    {
      "midi": 72,
      "hit": false,
      "t": 163887.5,
      "d": 1012.5,
      "v": 123
    },
    {
      "midi": 64,
      "hit": false,
      "t": 163887.5,
      "d": 1978.125,
      "v": 125
    },
    {
      "midi": 71,
      "hit": false,
      "t": 164971.875,
      "d": 851.5625,
      "v": 125
    },
    {
      "midi": 45,
      "hit": false,
      "t": 166376.5625,
      "d": 4098.4375,
      "v": 117
    },
    {
      "midi": 60,
      "hit": false,
      "t": 166410.9375,
      "d": 326.5625,
      "v": 115
    },
    {
      "midi": 64,
      "hit": false,
      "t": 166412.5,
      "d": 495.3125,
      "v": 121
    },
    {
      "midi": 69,
      "hit": false,
      "t": 166431.25,
      "d": 550,
      "v": 121
    },
    {
      "midi": 57,
      "hit": false,
      "t": 166775,
      "d": 3671.875,
      "v": 121
    },
    {
      "midi": 60,
      "hit": false,
      "t": 167048.4375,
      "d": 434.375,
      "v": 121
    },
    {
      "midi": 64,
      "hit": false,
      "t": 167307.8125,
      "d": 325,
      "v": 123
    },
    {
      "midi": 69,
      "hit": false,
      "t": 167596.875,
      "d": 343.75,
      "v": 123
    },
    {
      "midi": 72,
      "hit": false,
      "t": 167920.3125,
      "d": 404.6875,
      "v": 123
    },
    {
      "midi": 76,
      "hit": false,
      "t": 168282.8125,
      "d": 470.3125,
      "v": 117
    },
    {
      "midi": 81,
      "hit": false,
      "t": 168696.875,
      "d": 1779.6875,
      "v": 123
    }
  ]
}