{
  "jsonPath": "Rock/Folk Rock/Neil Diamond/september-morn.json",
  "path": "Rock\\Folk Rock\\Neil Diamond\\September Morn.mid",
  "name": "September Morn",
  "difficulty": "Advanced",
  "bpm": 65.00048750365627,
  "notes": [
    {
      "midi": 53,
      "hit": false,
      "t": 7293.214531250001,
      "d": 1841.3323437500012,
      "v": 100
    },
    {
      "midi": 77,
      "hit": false,
      "t": 7341.291093750001,
      "d": 1841.3323437500012,
      "v": 100
    },
    {
      "midi": 60,
      "hit": false,
      "t": 7365.329375000001,
      "d": 1841.3323437500003,
      "v": 97
    },
    {
      "midi": 84,
      "hit": false,
      "t": 7384.56,
      "d": 456.7273437499998,
      "v": 100
    },
    {
      "midi": 82,
      "hit": false,
      "t": 7846.095,
      "d": 456.7273437499998,
      "v": 97
    },
    {
      "midi": 82,
      "hit": false,
      "t": 8307.63,
      "d": 456.7273437500007,
      "v": 101
    },
    {
      "midi": 81,
      "hit": false,
      "t": 8769.164999999999,
      "d": 456.7273437500007,
      "v": 98
    },
    {
      "midi": 51,
      "hit": false,
      "t": 9086.470312500001,
      "d": 1841.3323437500003,
      "v": 98
    },
    {
      "midi": 58,
      "hit": false,
      "t": 9134.546875000002,
      "d": 1841.3323437499985,
      "v": 97
    },
    {
      "midi": 75,
      "hit": false,
      "t": 9182.623437500002,
      "d": 1841.3323437499967,
      "v": 100
    },
    {
      "midi": 81,
      "hit": false,
      "t": 9230.699999999999,
      "d": 456.7273437500007,
      "v": 99
    },
    {
      "midi": 79,
      "hit": false,
      "t": 9692.234999999999,
      "d": 456.7273437500007,
      "v": 99
    },
    {
      "midi": 79,
      "hit": false,
      "t": 10153.769999999999,
      "d": 456.7273437500007,
      "v": 100
    },
    {
      "midi": 77,
      "hit": false,
      "t": 10615.304999999998,
      "d": 456.7273437500007,
      "v": 97
    },
    {
      "midi": 49,
      "hit": false,
      "t": 10932.6103125,
      "d": 1841.3323437499967,
      "v": 97
    },
    {
      "midi": 56,
      "hit": false,
      "t": 10980.686875,
      "d": 1841.3323437499967,
      "v": 101
    },
    {
      "midi": 65,
      "hit": false,
      "t": 11028.763437499998,
      "d": 1841.3323437499967,
      "v": 98
    },
    {
      "midi": 77,
      "hit": false,
      "t": 11076.839999999998,
      "d": 456.7273437500007,
      "v": 97
    },
    {
      "midi": 75,
      "hit": false,
      "t": 11538.374999999998,
      "d": 456.7273437500007,
      "v": 99
    },
    {
      "midi": 75,
      "hit": false,
      "t": 11999.909999999998,
      "d": 456.7273437500007,
      "v": 97
    },
    {
      "midi": 73,
      "hit": false,
      "t": 12461.444999999998,
      "d": 456.7273437499989,
      "v": 99
    },
    {
      "midi": 48,
      "hit": false,
      "t": 12778.750312499997,
      "d": 1841.3323437499967,
      "v": 98
    },
    {
      "midi": 58,
      "hit": false,
      "t": 12826.826874999995,
      "d": 1841.3323437499967,
      "v": 99
    },
    {
      "midi": 62,
      "hit": false,
      "t": 12874.903437499997,
      "d": 918.2623437499988,
      "v": 100
    },
    {
      "midi": 65,
      "hit": false,
      "t": 12922.979999999996,
      "d": 918.2623437500006,
      "v": 100
    },
    {
      "midi": 72,
      "hit": false,
      "t": 12922.979999999996,
      "d": 1894.2165624999998,
      "v": 101
    },
    {
      "midi": 64,
      "hit": false,
      "t": 13846.049999999996,
      "d": 918.2623437500006,
      "v": 101
    },
    {
      "midi": 67,
      "hit": false,
      "t": 13846.049999999996,
      "d": 918.2623437500006,
      "v": 98
    },
    {
      "midi": 46,
      "hit": false,
      "t": 14624.890312499992,
      "d": 3139.3995312499974,
      "v": 97
    },
    {
      "midi": 58,
      "hit": false,
      "t": 14672.966874999991,
      "d": 1841.3323437500003,
      "v": 98
    },
    {
      "midi": 60,
      "hit": false,
      "t": 14672.966874999996,
      "d": 1841.3323437499985,
      "v": 101
    },
    {
      "midi": 63,
      "hit": false,
      "t": 14721.043437499997,
      "d": 1841.3323437499967,
      "v": 100
    },
    {
      "midi": 68,
      "hit": false,
      "t": 14769.119999999995,
      "d": 1841.3323437499967,
      "v": 98
    },
    {
      "midi": 72,
      "hit": false,
      "t": 14817.196562499996,
      "d": 1552.87296875,
      "v": 98
    },
    {
      "midi": 65,
      "hit": false,
      "t": 16615.25999999999,
      "d": 456.7273437500007,
      "v": 98
    },
    {
      "midi": 62,
      "hit": false,
      "t": 16615.25999999999,
      "d": 1384.6049999999996,
      "v": 101
    },
    {
      "midi": 68,
      "hit": false,
      "t": 17076.79499999999,
      "d": 456.7273437500007,
      "v": 99
    },
    {
      "midi": 72,
      "hit": false,
      "t": 17538.32999999999,
      "d": 456.7273437500007,
      "v": 99
    },
    {
      "midi": 62,
      "hit": false,
      "t": 17999.86499999999,
      "d": 456.7273437500007,
      "v": 98
    },
    {
      "midi": 46,
      "hit": false,
      "t": 18312.36265624999,
      "d": 1841.3323437499967,
      "v": 101
    },
    {
      "midi": 58,
      "hit": false,
      "t": 18365.24687499999,
      "d": 1841.3323437499967,
      "v": 97
    },
    {
      "midi": 63,
      "hit": false,
      "t": 18413.323437499992,
      "d": 1841.3323437499967,
      "v": 97
    },
    {
      "midi": 67,
      "hit": false,
      "t": 18461.39999999999,
      "d": 1841.3323437499967,
      "v": 100
    },
    {
      "midi": 70,
      "hit": false,
      "t": 18509.47656249999,
      "d": 1841.3323437499967,
      "v": 101
    },
    {
      "midi": 46,
      "hit": false,
      "t": 20307.539999999986,
      "d": 1701.9103125000001,
      "v": 99
    },
    {
      "midi": 58,
      "hit": false,
      "t": 20307.539999999986,
      "d": 1749.9868749999987,
      "v": 98
    },
    {
      "midi": 58,
      "hit": false,
      "t": 20769.074999999986,
      "d": 456.7273437500007,
      "v": 99
    },
    {
      "midi": 62,
      "hit": false,
      "t": 20769.074999999986,
      "d": 456.7273437500007,
      "v": 99
    },
    {
      "midi": 58,
      "hit": false,
      "t": 21230.609999999986,
      "d": 456.7273437500007,
      "v": 100
    },
    {
      "midi": 63,
      "hit": false,
      "t": 21230.609999999986,
      "d": 456.7273437500007,
      "v": 100
    },
    {
      "midi": 67,
      "hit": false,
      "t": 21692.144999999986,
      "d": 456.7273437500007,
      "v": 100
    },
    {
      "midi": 46,
      "hit": false,
      "t": 22009.450312499986,
      "d": 1197.1064062499936,
      "v": 97
    },
    {
      "midi": 58,
      "hit": false,
      "t": 22057.526874999985,
      "d": 966.3389062499955,
      "v": 99
    },
    {
      "midi": 60,
      "hit": false,
      "t": 22105.603437499987,
      "d": 1841.3323437499967,
      "v": 99
    },
    {
      "midi": 63,
      "hit": false,
      "t": 22153.679999999986,
      "d": 1841.3323437499967,
      "v": 100
    },
    {
      "midi": 68,
      "hit": false,
      "t": 22201.756562499984,
      "d": 1841.3323437499967,
      "v": 98
    },
    {
      "midi": 62,
      "hit": false,
      "t": 23999.81999999998,
      "d": 918.2623437500006,
      "v": 100
    },
    {
      "midi": 65,
      "hit": false,
      "t": 23999.81999999998,
      "d": 918.2623437500006,
      "v": 100
    },
    {
      "midi": 46,
      "hit": false,
      "t": 23999.81999999998,
      "d": 1610.5648437499985,
      "v": 97
    },
    {
      "midi": 58,
      "hit": false,
      "t": 23999.81999999998,
      "d": 1610.5648437499985,
      "v": 101
    },
    {
      "midi": 62,
      "hit": false,
      "t": 24922.88999999998,
      "d": 456.7273437500007,
      "v": 100
    },
    {
      "midi": 65,
      "hit": false,
      "t": 24922.88999999998,
      "d": 456.7273437500007,
      "v": 101
    },
    {
      "midi": 58,
      "hit": false,
      "t": 25384.42499999998,
      "d": 413.4584375000013,
      "v": 97
    },
    {
      "midi": 46,
      "hit": false,
      "t": 25740.19156249998,
      "d": 774.0326562499977,
      "v": 101
    },
    {
      "midi": 58,
      "hit": false,
      "t": 25764.229843749978,
      "d": 918.262343749997,
      "v": 99
    },
    {
      "midi": 62,
      "hit": false,
      "t": 25845.95999999998,
      "d": 461.53499999999985,
      "v": 98
    },
    {
      "midi": 67,
      "hit": false,
      "t": 25894.03656249998,
      "d": 1615.3725000000013,
      "v": 100
    },
    {
      "midi": 62,
      "hit": false,
      "t": 26307.49499999998,
      "d": 456.7273437500007,
      "v": 98
    },
    {
      "midi": 63,
      "hit": false,
      "t": 26769.02999999998,
      "d": 918.2623437500006,
      "v": 98
    },
    {
      "midi": 46,
      "hit": false,
      "t": 27230.564999999973,
      "d": 918.2623437500006,
      "v": 99
    },
    {
      "midi": 58,
      "hit": false,
      "t": 27230.564999999973,
      "d": 918.2623437500006,
      "v": 100
    },
    {
      "midi": 70,
      "hit": false,
      "t": 27692.09999999998,
      "d": 456.7273437500007,
      "v": 100
    },
    {
      "midi": 62,
      "hit": false,
      "t": 27692.09999999998,
      "d": 918.2623437500006,
      "v": 99
    },
    {
      "midi": 67,
      "hit": false,
      "t": 27692.09999999998,
      "d": 918.2623437500006,
      "v": 100
    },
    {
      "midi": 63,
      "hit": false,
      "t": 28153.63499999998,
      "d": 456.7273437500007,
      "v": 98
    },
    {
      "midi": 67,
      "hit": false,
      "t": 28615.16999999998,
      "d": 456.7273437500007,
      "v": 99
    },
    {
      "midi": 58,
      "hit": false,
      "t": 28615.16999999998,
      "d": 918.2623437500006,
      "v": 101
    },
    {
      "midi": 70,
      "hit": false,
      "t": 29076.70499999998,
      "d": 456.7273437500007,
      "v": 99
    },
    {
      "midi": 44,
      "hit": false,
      "t": 29538.239999999976,
      "d": 1841.3323437500003,
      "v": 99
    },
    {
      "midi": 63,
      "hit": false,
      "t": 29538.23999999998,
      "d": 2764.40234375,
      "v": 97
    },
    {
      "midi": 71,
      "hit": false,
      "t": 29538.23999999998,
      "d": 2764.40234375,
      "v": 99
    },
    {
      "midi": 51,
      "hit": false,
      "t": 29999.774999999976,
      "d": 456.7273437500007,
      "v": 99
    },
    {
      "midi": 54,
      "hit": false,
      "t": 30461.309999999976,
      "d": 918.2623437500006,
      "v": 98
    },
    {
      "midi": 59,
      "hit": false,
      "t": 30922.844999999976,
      "d": 456.7273437500007,
      "v": 101
    },
    {
      "midi": 49,
      "hit": false,
      "t": 31384.379999999976,
      "d": 1841.3323437500003,
      "v": 99
    },
    {
      "midi": 53,
      "hit": false,
      "t": 31384.379999999976,
      "d": 1841.3323437500003,
      "v": 98
    },
    {
      "midi": 56,
      "hit": false,
      "t": 31845.914999999975,
      "d": 456.7273437500007,
      "v": 100
    },
    {
      "midi": 71,
      "hit": false,
      "t": 32307.44999999998,
      "d": 456.7273437500007,
      "v": 101
    },
    {
      "midi": 75,
      "hit": false,
      "t": 32768.98499999998,
      "d": 456.7273437499971,
      "v": 98
    },
    {
      "midi": 65,
      "hit": false,
      "t": 33230.519999999975,
      "d": 2764.40234375,
      "v": 98
    },
    {
      "midi": 70,
      "hit": false,
      "t": 33230.519999999975,
      "d": 2764.40234375,
      "v": 97
    },
    {
      "midi": 73,
      "hit": false,
      "t": 33230.519999999975,
      "d": 3225.9373437500035,
      "v": 97
    },
    {
      "midi": 42,
      "hit": false,
      "t": 33230.519999999975,
      "d": 1841.3323437500003,
      "v": 99
    },
    {
      "midi": 49,
      "hit": false,
      "t": 33692.05499999998,
      "d": 456.7273437499971,
      "v": 97
    },
    {
      "midi": 54,
      "hit": false,
      "t": 34153.589999999975,
      "d": 918.2623437500006,
      "v": 100
    },
    {
      "midi": 58,
      "hit": false,
      "t": 34615.12499999998,
      "d": 918.2623437499933,
      "v": 100
    },
    {
      "midi": 47,
      "hit": false,
      "t": 35076.659999999974,
      "d": 1841.332343749993,
      "v": 98
    },
    {
      "midi": 54,
      "hit": false,
      "t": 35538.19499999997,
      "d": 456.7273437499971,
      "v": 98
    },
    {
      "midi": 58,
      "hit": false,
      "t": 35999.72999999997,
      "d": 687.4948437499988,
      "v": 98
    },
    {
      "midi": 54,
      "hit": false,
      "t": 35999.72999999997,
      "d": 918.2623437500006,
      "v": 98
    },
    {
      "midi": 73,
      "hit": false,
      "t": 36461.26499999998,
      "d": 456.7273437499971,
      "v": 97
    },
    {
      "midi": 44,
      "hit": false,
      "t": 36922.79999999997,
      "d": 1841.3323437500003,
      "v": 101
    },
    {
      "midi": 71,
      "hit": false,
      "t": 36922.799999999974,
      "d": 456.7273437499971,
      "v": 101
    },
    {
      "midi": 63,
      "hit": false,
      "t": 36922.799999999974,
      "d": 918.2623437499933,
      "v": 97
    },
    {
      "midi": 70,
      "hit": false,
      "t": 37384.33499999997,
      "d": 456.7273437499971,
      "v": 97
    },
    {
      "midi": 68,
      "hit": false,
      "t": 37845.869999999966,
      "d": 456.7273437499971,
      "v": 97
    },
    {
      "midi": 63,
      "hit": false,
      "t": 38307.40499999996,
      "d": 456.7273437499971,
      "v": 99
    },
    {
      "midi": 69,
      "hit": false,
      "t": 38768.93999999996,
      "d": 456.7273437499971,
      "v": 99
    },
    {
      "midi": 60,
      "hit": false,
      "t": 38768.93999999996,
      "d": 918.2623437499933,
      "v": 101
    },
    {
      "midi": 63,
      "hit": false,
      "t": 38768.93999999996,
      "d": 918.2623437499933,
      "v": 98
    },
    {
      "midi": 45,
      "hit": false,
      "t": 38768.939999999966,
      "d": 1841.3323437500003,
      "v": 101
    },
    {
      "midi": 66,
      "hit": false,
      "t": 39230.474999999955,
      "d": 456.7273437499971,
      "v": 97
    },
    {
      "midi": 65,
      "hit": false,
      "t": 39692.00999999995,
      "d": 456.7273437499971,
      "v": 100
    },
    {
      "midi": 63,
      "hit": false,
      "t": 40153.54499999995,
      "d": 456.7273437499971,
      "v": 101
    },
    {
      "midi": 58,
      "hit": false,
      "t": 40615.07999999994,
      "d": 1841.3323437500003,
      "v": 100
    },
    {
      "midi": 63,
      "hit": false,
      "t": 40615.07999999994,
      "d": 1841.3323437500003,
      "v": 98
    },
    {
      "midi": 65,
      "hit": false,
      "t": 40615.07999999994,
      "d": 1841.3323437500003,
      "v": 100
    },
    {
      "midi": 46,
      "hit": false,
      "t": 40615.079999999965,
      "d": 1841.3323437500003,
      "v": 100
    },
    {
      "midi": 58,
      "hit": false,
      "t": 42461.21999999994,
      "d": 1841.3323437500003,
      "v": 99
    },
    {
      "midi": 62,
      "hit": false,
      "t": 42461.21999999994,
      "d": 1841.3323437500003,
      "v": 101
    },
    {
      "midi": 65,
      "hit": false,
      "t": 42461.21999999994,
      "d": 1841.3323437500003,
      "v": 97
    },
    {
      "midi": 58,
      "hit": false,
      "t": 44307.35999999994,
      "d": 1841.3323437500003,
      "v": 99
    },
    {
      "midi": 63,
      "hit": false,
      "t": 44307.35999999994,
      "d": 1841.3323437500003,
      "v": 100
    },
    {
      "midi": 67,
      "hit": false,
      "t": 44307.35999999994,
      "d": 1841.3323437500003,
      "v": 98
    },
    {
      "midi": 51,
      "hit": false,
      "t": 44307.359999999964,
      "d": 3687.4723437499997,
      "v": 97
    },
    {
      "midi": 58,
      "hit": false,
      "t": 46153.49999999994,
      "d": 1841.3323437500003,
      "v": 99
    },
    {
      "midi": 63,
      "hit": false,
      "t": 46153.49999999994,
      "d": 1841.3323437500003,
      "v": 97
    },
    {
      "midi": 67,
      "hit": false,
      "t": 46153.49999999994,
      "d": 1841.3323437500003,
      "v": 101
    },
    {
      "midi": 56,
      "hit": false,
      "t": 47999.63999999994,
      "d": 1841.3323437500003,
      "v": 98
    },
    {
      "midi": 61,
      "hit": false,
      "t": 47999.63999999994,
      "d": 3687.4723437499997,
      "v": 100
    },
    {
      "midi": 65,
      "hit": false,
      "t": 47999.63999999994,
      "d": 3687.4723437499997,
      "v": 98
    },
    {
      "midi": 46,
      "hit": false,
      "t": 47999.63999999996,
      "d": 1841.3323437500003,
      "v": 99
    },
    {
      "midi": 55,
      "hit": false,
      "t": 49845.77999999994,
      "d": 1841.3323437500003,
      "v": 97
    },
    {
      "midi": 51,
      "hit": false,
      "t": 49845.77999999996,
      "d": 1841.3323437500003,
      "v": 97
    },
    {
      "midi": 56,
      "hit": false,
      "t": 51691.91999999994,
      "d": 3687.4723437499997,
      "v": 101
    },
    {
      "midi": 60,
      "hit": false,
      "t": 51691.91999999994,
      "d": 3687.4723437499997,
      "v": 100
    },
    {
      "midi": 63,
      "hit": false,
      "t": 51691.91999999994,
      "d": 3687.4723437499997,
      "v": 97
    },
    {
      "midi": 44,
      "hit": false,
      "t": 51691.91999999996,
      "d": 3687.4723437499997,
      "v": 99
    },
    {
      "midi": 56,
      "hit": false,
      "t": 55384.19999999994,
      "d": 1841.3323437500003,
      "v": 98
    },
    {
      "midi": 59,
      "hit": false,
      "t": 55384.19999999994,
      "d": 1841.3323437500003,
      "v": 99
    },
    {
      "midi": 63,
      "hit": false,
      "t": 55384.19999999994,
      "d": 1841.3323437500003,
      "v": 98
    },
    {
      "midi": 44,
      "hit": false,
      "t": 55384.19999999996,
      "d": 1841.3323437500003,
      "v": 101
    },
    {
      "midi": 53,
      "hit": false,
      "t": 57230.33999999994,
      "d": 1841.3323437500003,
      "v": 101
    },
    {
      "midi": 59,
      "hit": false,
      "t": 57230.33999999994,
      "d": 1841.3323437500003,
      "v": 97
    },
    {
      "midi": 63,
      "hit": false,
      "t": 57230.33999999994,
      "d": 1841.3323437500003,
      "v": 97
    },
    {
      "midi": 49,
      "hit": false,
      "t": 57230.33999999996,
      "d": 1841.3323437500003,
      "v": 97
    },
    {
      "midi": 65,
      "hit": false,
      "t": 59076.47999999994,
      "d": 918.2623437500006,
      "v": 100
    },
    {
      "midi": 55,
      "hit": false,
      "t": 59076.47999999994,
      "d": 3687.4723437499997,
      "v": 98
    },
    {
      "midi": 58,
      "hit": false,
      "t": 59076.47999999994,
      "d": 3687.4723437499997,
      "v": 99
    },
    {
      "midi": 51,
      "hit": false,
      "t": 59076.47999999996,
      "d": 1841.3323437500003,
      "v": 101
    },
    {
      "midi": 63,
      "hit": false,
      "t": 59999.54999999994,
      "d": 918.2623437500006,
      "v": 98
    },
    {
      "midi": 65,
      "hit": false,
      "t": 60922.61999999994,
      "d": 918.2623437500006,
      "v": 97
    },
    {
      "midi": 48,
      "hit": false,
      "t": 60922.61999999996,
      "d": 1841.3323437500003,
      "v": 98
    },
    {
      "midi": 67,
      "hit": false,
      "t": 61845.68999999994,
      "d": 918.2623437500006,
      "v": 101
    },
    {
      "midi": 56,
      "hit": false,
      "t": 62768.75999999994,
      "d": 1841.3323437500003,
      "v": 101
    },
    {
      "midi": 60,
      "hit": false,
      "t": 62768.75999999994,
      "d": 1841.3323437500003,
      "v": 99
    },
    {
      "midi": 63,
      "hit": false,
      "t": 62768.75999999994,
      "d": 1841.3323437500003,
      "v": 98
    },
    {
      "midi": 53,
      "hit": false,
      "t": 62768.75999999996,
      "d": 1841.3323437500003,
      "v": 100
    },
    {
      "midi": 56,
      "hit": false,
      "t": 64614.899999999936,
      "d": 1841.332343749993,
      "v": 98
    },
    {
      "midi": 60,
      "hit": false,
      "t": 64614.899999999936,
      "d": 1841.332343749993,
      "v": 101
    },
    {
      "midi": 63,
      "hit": false,
      "t": 64614.899999999936,
      "d": 1841.332343749993,
      "v": 97
    },
    {
      "midi": 46,
      "hit": false,
      "t": 64614.89999999996,
      "d": 1841.3323437500003,
      "v": 97
    },
    {
      "midi": 39,
      "hit": false,
      "t": 66461.03999999996,
      "d": 918.2623437500006,
      "v": 100
    },
    {
      "midi": 46,
      "hit": false,
      "t": 66461.03999999996,
      "d": 918.2623437500006,
      "v": 100
    },
    {
      "midi": 55,
      "hit": false,
      "t": 66461.03999999996,
      "d": 918.2623437500006,
      "v": 97
    },
    {
      "midi": 58,
      "hit": false,
      "t": 67384.10999999997,
      "d": 918.2623437500006,
      "v": 97
    },
    {
      "midi": 63,
      "hit": false,
      "t": 67384.10999999997,
      "d": 918.2623437500006,
      "v": 100
    },
    {
      "midi": 67,
      "hit": false,
      "t": 67384.10999999997,
      "d": 918.2623437500006,
      "v": 99
    },
    {
      "midi": 77,
      "hit": false,
      "t": 67999.48999999993,
      "d": 149.03734374999476,
      "v": 101
    },
    {
      "midi": 75,
      "hit": false,
      "t": 68153.33499999993,
      "d": 149.03734374999476,
      "v": 98
    },
    {
      "midi": 74,
      "hit": false,
      "t": 68307.17999999993,
      "d": 456.7273437499971,
      "v": 98
    },
    {
      "midi": 60,
      "hit": false,
      "t": 68307.17999999998,
      "d": 918.2623437500006,
      "v": 100
    },
    {
      "midi": 63,
      "hit": false,
      "t": 68307.17999999998,
      "d": 918.2623437500006,
      "v": 98
    },
    {
      "midi": 67,
      "hit": false,
      "t": 68307.17999999998,
      "d": 918.2623437500006,
      "v": 97
    },
    {
      "midi": 75,
      "hit": false,
      "t": 68768.71499999994,
      "d": 456.7273437499971,
      "v": 100
    },
    {
      "midi": 60,
      "hit": false,
      "t": 69230.24999999999,
      "d": 918.2623437500006,
      "v": 101
    },
    {
      "midi": 63,
      "hit": false,
      "t": 69230.24999999999,
      "d": 918.2623437500006,
      "v": 101
    },
    {
      "midi": 67,
      "hit": false,
      "t": 69230.24999999999,
      "d": 918.2623437500006,
      "v": 99
    },
    {
      "midi": 79,
      "hit": false,
      "t": 69537.93999999993,
      "d": 302.8823437499959,
      "v": 97
    },
    {
      "midi": 82,
      "hit": false,
      "t": 69845.62999999993,
      "d": 302.8823437499959,
      "v": 97
    },
    {
      "midi": 84,
      "hit": false,
      "t": 70153.31999999993,
      "d": 456.7273437499971,
      "v": 99
    },
    {
      "midi": 60,
      "hit": false,
      "t": 70153.31999999999,
      "d": 918.2623437500006,
      "v": 101
    },
    {
      "midi": 63,
      "hit": false,
      "t": 70153.31999999999,
      "d": 918.2623437500006,
      "v": 101
    },
    {
      "midi": 68,
      "hit": false,
      "t": 70153.31999999999,
      "d": 918.2623437500006,
      "v": 101
    },
    {
      "midi": 87,
      "hit": false,
      "t": 70614.85499999994,
      "d": 456.7273437499971,
      "v": 97
    },
    {
      "midi": 60,
      "hit": false,
      "t": 71076.39,
      "d": 918.2623437500006,
      "v": 101
    },
    {
      "midi": 63,
      "hit": false,
      "t": 71076.39,
      "d": 918.2623437500006,
      "v": 97
    },
    {
      "midi": 68,
      "hit": false,
      "t": 71076.39,
      "d": 918.2623437500006,
      "v": 99
    },
    {
      "midi": 86,
      "hit": false,
      "t": 71999.45999999993,
      "d": 918.2623437500006,
      "v": 101
    },
    {
      "midi": 58,
      "hit": false,
      "t": 71999.46,
      "d": 918.2623437500006,
      "v": 99
    },
    {
      "midi": 62,
      "hit": false,
      "t": 71999.46,
      "d": 918.2623437500006,
      "v": 99
    },
    {
      "midi": 68,
      "hit": false,
      "t": 71999.46,
      "d": 918.2623437500006,
      "v": 101
    },
    {
      "midi": 58,
      "hit": false,
      "t": 72922.53000000001,
      "d": 918.2623437500006,
      "v": 99
    },
    {
      "midi": 62,
      "hit": false,
      "t": 72922.53000000001,
      "d": 918.2623437500006,
      "v": 100
    },
    {
      "midi": 68,
      "hit": false,
      "t": 72922.53000000001,
      "d": 918.2623437500006,
      "v": 99
    },
    {
      "midi": 84,
      "hit": false,
      "t": 73230.21999999993,
      "d": 302.8823437499959,
      "v": 97
    },
    {
      "midi": 79,
      "hit": false,
      "t": 73537.90999999993,
      "d": 302.8823437499959,
      "v": 97
    },
    {
      "midi": 82,
      "hit": false,
      "t": 73845.59999999993,
      "d": 1841.332343749993,
      "v": 97
    },
    {
      "midi": 51,
      "hit": false,
      "t": 73845.60000000002,
      "d": 918.2623437500006,
      "v": 99
    },
    {
      "midi": 62,
      "hit": false,
      "t": 73845.60000000002,
      "d": 918.2623437500006,
      "v": 97
    },
    {
      "midi": 67,
      "hit": false,
      "t": 73845.60000000002,
      "d": 918.2623437500006,
      "v": 97
    },
    {
      "midi": 58,
      "hit": false,
      "t": 74768.67000000003,
      "d": 918.2623437500006,
      "v": 98
    },
    {
      "midi": 62,
      "hit": false,
      "t": 74768.67000000003,
      "d": 918.2623437500006,
      "v": 101
    },
    {
      "midi": 67,
      "hit": false,
      "t": 74768.67000000003,
      "d": 918.2623437500006,
      "v": 101
    },
    {
      "midi": 58,
      "hit": false,
      "t": 75691.74000000003,
      "d": 918.2623437500006,
      "v": 99
    },
    {
      "midi": 60,
      "hit": false,
      "t": 75691.74000000003,
      "d": 918.2623437500006,
      "v": 100
    },
    {
      "midi": 63,
      "hit": false,
      "t": 75691.74000000003,
      "d": 918.2623437500006,
      "v": 98
    },
    {
      "midi": 67,
      "hit": false,
      "t": 75691.74000000003,
      "d": 918.2623437500006,
      "v": 100
    },
    {
      "midi": 58,
      "hit": false,
      "t": 76614.81000000004,
      "d": 918.2623437500006,
      "v": 100
    },
    {
      "midi": 60,
      "hit": false,
      "t": 76614.81000000004,
      "d": 918.2623437500006,
      "v": 99
    },
    {
      "midi": 63,
      "hit": false,
      "t": 76614.81000000004,
      "d": 918.2623437500006,
      "v": 101
    },
    {
      "midi": 67,
      "hit": false,
      "t": 76614.81000000004,
      "d": 918.2623437500006,
      "v": 99
    },
    {
      "midi": 82,
      "hit": false,
      "t": 77076.34499999993,
      "d": 225.95984374999534,
      "v": 101
    },
    {
      "midi": 75,
      "hit": false,
      "t": 77307.11249999993,
      "d": 225.95984374999534,
      "v": 101
    },
    {
      "midi": 80,
      "hit": false,
      "t": 77537.87999999993,
      "d": 1841.332343749993,
      "v": 100
    },
    {
      "midi": 60,
      "hit": false,
      "t": 77537.88000000005,
      "d": 918.2623437500006,
      "v": 99
    },
    {
      "midi": 63,
      "hit": false,
      "t": 77537.88000000005,
      "d": 918.2623437500006,
      "v": 98
    },
    {
      "midi": 68,
      "hit": false,
      "t": 77537.88000000005,
      "d": 918.2623437500006,
      "v": 100
    },
    {
      "midi": 60,
      "hit": false,
      "t": 78460.95000000006,
      "d": 918.2623437500006,
      "v": 97
    },
    {
      "midi": 63,
      "hit": false,
      "t": 78460.95000000006,
      "d": 918.2623437500006,
      "v": 97
    },
    {
      "midi": 68,
      "hit": false,
      "t": 78460.95000000006,
      "d": 918.2623437500006,
      "v": 98
    },
    {
      "midi": 58,
      "hit": false,
      "t": 79384.02000000006,
      "d": 918.2623437500006,
      "v": 97
    },
    {
      "midi": 62,
      "hit": false,
      "t": 79384.02000000006,
      "d": 918.2623437500006,
      "v": 99
    },
    {
      "midi": 68,
      "hit": false,
      "t": 79384.02000000006,
      "d": 918.2623437500006,
      "v": 97
    },
    {
      "midi": 58,
      "hit": false,
      "t": 80307.09000000007,
      "d": 918.2623437500006,
      "v": 98
    },
    {
      "midi": 62,
      "hit": false,
      "t": 80307.09000000007,
      "d": 918.2623437500006,
      "v": 98
    },
    {
      "midi": 68,
      "hit": false,
      "t": 80307.09000000007,
      "d": 918.2623437500006,
      "v": 97
    },
    {
      "midi": 70,
      "hit": false,
      "t": 80768.62499999993,
      "d": 456.7273437499971,
      "v": 101
    },
    {
      "midi": 67,
      "hit": false,
      "t": 81230.15999999993,
      "d": 918.2623437500006,
      "v": 100
    },
    {
      "midi": 79,
      "hit": false,
      "t": 81230.15999999993,
      "d": 918.2623437500006,
      "v": 101
    },
    {
      "midi": 58,
      "hit": false,
      "t": 81230.16000000008,
      "d": 918.2623437500006,
      "v": 98
    },
    {
      "midi": 63,
      "hit": false,
      "t": 81230.16000000008,
      "d": 918.2623437500006,
      "v": 98
    },
    {
      "midi": 67,
      "hit": false,
      "t": 81230.16000000008,
      "d": 918.2623437500006,
      "v": 100
    },
    {
      "midi": 68,
      "hit": false,
      "t": 82153.22999999994,
      "d": 918.2623437500006,
      "v": 97
    },
    {
      "midi": 80,
      "hit": false,
      "t": 82153.22999999994,
      "d": 918.2623437500006,
      "v": 101
    },
    {
      "midi": 60,
      "hit": false,
      "t": 82153.23000000008,
      "d": 918.2623437500006,
      "v": 101
    },
    {
      "midi": 65,
      "hit": false,
      "t": 82153.23000000008,
      "d": 918.2623437500006,
      "v": 97
    },
    {
      "midi": 68,
      "hit": false,
      "t": 82153.23000000008,
      "d": 918.2623437500006,
      "v": 99
    },
    {
      "midi": 69,
      "hit": false,
      "t": 83076.29999999994,
      "d": 918.2623437500006,
      "v": 101
    },
    {
      "midi": 81,
      "hit": false,
      "t": 83076.29999999994,
      "d": 918.2623437500006,
      "v": 97
    },
    {
      "midi": 60,
      "hit": false,
      "t": 83076.30000000009,
      "d": 918.2623437500006,
      "v": 100
    },
    {
      "midi": 66,
      "hit": false,
      "t": 83076.30000000009,
      "d": 918.2623437500006,
      "v": 99
    },
    {
      "midi": 69,
      "hit": false,
      "t": 83076.30000000009,
      "d": 918.2623437500006,
      "v": 97
    },
    {
      "midi": 70,
      "hit": false,
      "t": 83999.36999999995,
      "d": 918.2623437500006,
      "v": 99
    },
    {
      "midi": 82,
      "hit": false,
      "t": 83999.36999999995,
      "d": 918.2623437500006,
      "v": 98
    },
    {
      "midi": 61,
      "hit": false,
      "t": 83999.3700000001,
      "d": 918.2623437500006,
      "v": 98
    },
    {
      "midi": 67,
      "hit": false,
      "t": 83999.3700000001,
      "d": 918.2623437500006,
      "v": 100
    },
    {
      "midi": 70,
      "hit": false,
      "t": 83999.3700000001,
      "d": 918.2623437500006,
      "v": 98
    },
    {
      "midi": 78,
      "hit": false,
      "t": 84922.43999999996,
      "d": 1841.332343749993,
      "v": 99
    },
    {
      "midi": 56,
      "hit": false,
      "t": 84922.4400000001,
      "d": 918.2623437500006,
      "v": 100
    },
    {
      "midi": 59,
      "hit": false,
      "t": 84922.4400000001,
      "d": 918.2623437500006,
      "v": 99
    },
    {
      "midi": 66,
      "hit": false,
      "t": 84922.4400000001,
      "d": 918.2623437500006,
      "v": 99
    },
    {
      "midi": 56,
      "hit": false,
      "t": 85845.51000000011,
      "d": 918.2623437500006,
      "v": 100
    },
    {
      "midi": 59,
      "hit": false,
      "t": 85845.51000000011,
      "d": 918.2623437500006,
      "v": 99
    },
    {
      "midi": 66,
      "hit": false,
      "t": 85845.51000000011,
      "d": 918.2623437500006,
      "v": 99
    },
    {
      "midi": 77,
      "hit": false,
      "t": 86768.57999999996,
      "d": 1841.332343749993,
      "v": 97
    },
    {
      "midi": 56,
      "hit": false,
      "t": 86768.58000000012,
      "d": 918.2623437500006,
      "v": 99
    },
    {
      "midi": 59,
      "hit": false,
      "t": 86768.58000000012,
      "d": 918.2623437500006,
      "v": 97
    },
    {
      "midi": 65,
      "hit": false,
      "t": 86768.58000000012,
      "d": 918.2623437500006,
      "v": 99
    },
    {
      "midi": 56,
      "hit": false,
      "t": 87691.65000000013,
      "d": 918.2623437500006,
      "v": 100
    },
    {
      "midi": 59,
      "hit": false,
      "t": 87691.65000000013,
      "d": 918.2623437500006,
      "v": 100
    },
    {
      "midi": 65,
      "hit": false,
      "t": 87691.65000000013,
      "d": 918.2623437500006,
      "v": 100
    },
    {
      "midi": 77,
      "hit": false,
      "t": 88614.71999999996,
      "d": 1841.332343749993,
      "v": 97
    },
    {
      "midi": 54,
      "hit": false,
      "t": 88614.72000000013,
      "d": 918.2623437500006,
      "v": 99
    },
    {
      "midi": 58,
      "hit": false,
      "t": 88614.72000000013,
      "d": 918.2623437500006,
      "v": 100
    },
    {
      "midi": 65,
      "hit": false,
      "t": 88614.72000000013,
      "d": 918.2623437500006,
      "v": 100
    },
    {
      "midi": 54,
      "hit": false,
      "t": 89537.79000000014,
      "d": 918.2623437500006,
      "v": 98
    },
    {
      "midi": 58,
      "hit": false,
      "t": 89537.79000000014,
      "d": 918.2623437500006,
      "v": 98
    },
    {
      "midi": 65,
      "hit": false,
      "t": 89537.79000000014,
      "d": 918.2623437500006,
      "v": 101
    },
    {
      "midi": 75,
      "hit": false,
      "t": 90460.85999999996,
      "d": 1379.797343750004,
      "v": 100
    },
    {
      "midi": 54,
      "hit": false,
      "t": 90460.86000000015,
      "d": 918.2623437500006,
      "v": 101
    },
    {
      "midi": 58,
      "hit": false,
      "t": 90460.86000000015,
      "d": 918.2623437500006,
      "v": 98
    },
    {
      "midi": 63,
      "hit": false,
      "t": 90460.86000000015,
      "d": 918.2623437500006,
      "v": 100
    },
    {
      "midi": 54,
      "hit": false,
      "t": 91383.93000000015,
      "d": 918.2623437500006,
      "v": 99
    },
    {
      "midi": 58,
      "hit": false,
      "t": 91383.93000000015,
      "d": 918.2623437500006,
      "v": 101
    },
    {
      "midi": 63,
      "hit": false,
      "t": 91383.93000000015,
      "d": 918.2623437500006,
      "v": 97
    },
    {
      "midi": 78,
      "hit": false,
      "t": 91845.46499999997,
      "d": 456.7273437499971,
      "v": 99
    },
    {
      "midi": 68,
      "hit": false,
      "t": 92306.99999999997,
      "d": 1841.332343749993,
      "v": 101
    },
    {
      "midi": 56,
      "hit": false,
      "t": 92307.00000000016,
      "d": 918.2623437500006,
      "v": 97
    },
    {
      "midi": 59,
      "hit": false,
      "t": 92307.00000000016,
      "d": 918.2623437500006,
      "v": 98
    },
    {
      "midi": 63,
      "hit": false,
      "t": 92307.00000000016,
      "d": 918.2623437500006,
      "v": 100
    },
    {
      "midi": 56,
      "hit": false,
      "t": 93230.07000000017,
      "d": 918.2623437500006,
      "v": 100
    },
    {
      "midi": 59,
      "hit": false,
      "t": 93230.07000000017,
      "d": 918.2623437500006,
      "v": 100
    },
    {
      "midi": 63,
      "hit": false,
      "t": 93230.07000000017,
      "d": 918.2623437500006,
      "v": 101
    },
    {
      "midi": 69,
      "hit": false,
      "t": 94153.13999999997,
      "d": 1841.332343749993,
      "v": 100
    },
    {
      "midi": 54,
      "hit": false,
      "t": 94153.14000000017,
      "d": 918.2623437500006,
      "v": 101
    },
    {
      "midi": 60,
      "hit": false,
      "t": 94153.14000000017,
      "d": 918.2623437500006,
      "v": 99
    },
    {
      "midi": 63,
      "hit": false,
      "t": 94153.14000000017,
      "d": 918.2623437500006,
      "v": 97
    },
    {
      "midi": 54,
      "hit": false,
      "t": 95076.21000000018,
      "d": 918.2623437500006,
      "v": 97
    },
    {
      "midi": 60,
      "hit": false,
      "t": 95076.21000000018,
      "d": 918.2623437500006,
      "v": 100
    },
    {
      "midi": 63,
      "hit": false,
      "t": 95076.21000000018,
      "d": 918.2623437500006,
      "v": 99
    },
    {
      "midi": 70,
      "hit": false,
      "t": 95999.27999999997,
      "d": 3687.472343750007,
      "v": 100
    },
    {
      "midi": 53,
      "hit": false,
      "t": 95999.28000000019,
      "d": 918.2623437500006,
      "v": 97
    },
    {
      "midi": 58,
      "hit": false,
      "t": 95999.28000000019,
      "d": 918.2623437500006,
      "v": 99
    },
    {
      "midi": 63,
      "hit": false,
      "t": 95999.28000000019,
      "d": 918.2623437500006,
      "v": 100
    },
    {
      "midi": 53,
      "hit": false,
      "t": 96922.3500000002,
      "d": 918.2623437500006,
      "v": 97
    },
    {
      "midi": 58,
      "hit": false,
      "t": 96922.3500000002,
      "d": 918.2623437500006,
      "v": 98
    },
    {
      "midi": 63,
      "hit": false,
      "t": 96922.3500000002,
      "d": 918.2623437500006,
      "v": 100
    },
    {
      "midi": 53,
      "hit": false,
      "t": 97845.4200000002,
      "d": 1841.332343749993,
      "v": 101
    },
    {
      "midi": 58,
      "hit": false,
      "t": 97845.4200000002,
      "d": 1841.332343749993,
      "v": 101
    },
    {
      "midi": 62,
      "hit": false,
      "t": 97845.4200000002,
      "d": 1841.332343749993,
      "v": 98
    },
    {
      "midi": 58,
      "hit": false,
      "t": 99691.55999999998,
      "d": 1841.332343749993,
      "v": 99
    },
    {
      "midi": 63,
      "hit": false,
      "t": 99691.55999999998,
      "d": 1841.332343749993,
      "v": 98
    },
    {
      "midi": 67,
      "hit": false,
      "t": 99691.55999999998,
      "d": 1841.332343749993,
      "v": 97
    },
    {
      "midi": 51,
      "hit": false,
      "t": 99691.5600000002,
      "d": 3687.472343750007,
      "v": 101
    },
    {
      "midi": 58,
      "hit": false,
      "t": 101537.69999999998,
      "d": 1841.332343749993,
      "v": 101
    },
    {
      "midi": 63,
      "hit": false,
      "t": 101537.69999999998,
      "d": 1841.332343749993,
      "v": 101
    },
    {
      "midi": 67,
      "hit": false,
      "t": 101537.69999999998,
      "d": 1841.332343749993,
      "v": 98
    },
    {
      "midi": 56,
      "hit": false,
      "t": 103383.83999999998,
      "d": 1841.332343749993,
      "v": 101
    },
    {
      "midi": 61,
      "hit": false,
      "t": 103383.83999999998,
      "d": 3687.4723437499924,
      "v": 97
    },
    {
      "midi": 65,
      "hit": false,
      "t": 103383.83999999998,
      "d": 3687.4723437499924,
      "v": 98
    },
    {
      "midi": 46,
      "hit": false,
      "t": 103383.84000000021,
      "d": 1841.332343749993,
      "v": 99
    },
    {
      "midi": 55,
      "hit": false,
      "t": 105229.97999999998,
      "d": 1841.332343749993,
      "v": 98
    },
    {
      "midi": 51,
      "hit": false,
      "t": 105229.98000000021,
      "d": 1841.332343749993,
      "v": 101
    },
    {
      "midi": 56,
      "hit": false,
      "t": 107076.11999999998,
      "d": 3687.472343750007,
      "v": 101
    },
    {
      "midi": 60,
      "hit": false,
      "t": 107076.11999999998,
      "d": 3687.472343750007,
      "v": 99
    },
    {
      "midi": 63,
      "hit": false,
      "t": 107076.11999999998,
      "d": 3687.472343750007,
      "v": 99
    },
    {
      "midi": 44,
      "hit": false,
      "t": 107076.12000000021,
      "d": 3687.472343750007,
      "v": 97
    },
    {
      "midi": 56,
      "hit": false,
      "t": 110768.4,
      "d": 1841.332343749993,
      "v": 97
    },
    {
      "midi": 59,
      "hit": false,
      "t": 110768.4,
      "d": 1841.332343749993,
      "v": 98
    },
    {
      "midi": 63,
      "hit": false,
      "t": 110768.4,
      "d": 1841.332343749993,
      "v": 98
    },
    {
      "midi": 44,
      "hit": false,
      "t": 110768.40000000023,
      "d": 1841.332343749993,
      "v": 99
    },
    {
      "midi": 53,
      "hit": false,
      "t": 112614.54,
      "d": 1841.332343749993,
      "v": 100
    },
    {
      "midi": 59,
      "hit": false,
      "t": 112614.54,
      "d": 1841.332343749993,
      "v": 100
    },
    {
      "midi": 63,
      "hit": false,
      "t": 112614.54,
      "d": 1841.332343749993,
      "v": 97
    },
    {
      "midi": 49,
      "hit": false,
      "t": 112614.54000000023,
      "d": 1841.332343749993,
      "v": 98
    },
    {
      "midi": 65,
      "hit": false,
      "t": 114460.68,
      "d": 918.2623437500006,
      "v": 100
    },
    {
      "midi": 55,
      "hit": false,
      "t": 114460.68,
      "d": 3687.4723437500215,
      "v": 97
    },
    {
      "midi": 58,
      "hit": false,
      "t": 114460.68,
      "d": 3687.4723437500215,
      "v": 100
    },
    {
      "midi": 51,
      "hit": false,
      "t": 114460.68000000023,
      "d": 1841.332343749993,
      "v": 98
    },
    {
      "midi": 63,
      "hit": false,
      "t": 115383.75,
      "d": 918.2623437500006,
      "v": 98
    },
    {
      "midi": 65,
      "hit": false,
      "t": 116306.82,
      "d": 918.2623437500006,
      "v": 98
    },
    {
      "midi": 48,
      "hit": false,
      "t": 116306.82000000023,
      "d": 1841.332343749993,
      "v": 100
    },
    {
      "midi": 67,
      "hit": false,
      "t": 117229.89000000001,
      "d": 918.2623437500006,
      "v": 100
    },
    {
      "midi": 56,
      "hit": false,
      "t": 118152.96000000002,
      "d": 1841.332343749993,
      "v": 99
    },
    {
      "midi": 60,
      "hit": false,
      "t": 118152.96000000002,
      "d": 1841.332343749993,
      "v": 101
    },
    {
      "midi": 63,
      "hit": false,
      "t": 118152.96000000002,
      "d": 1841.332343749993,
      "v": 101
    },
    {
      "midi": 53,
      "hit": false,
      "t": 118152.96000000022,
      "d": 1841.332343749993,
      "v": 100
    },
    {
      "midi": 56,
      "hit": false,
      "t": 119999.10000000002,
      "d": 1841.332343749993,
      "v": 98
    },
    {
      "midi": 60,
      "hit": false,
      "t": 119999.10000000002,
      "d": 1841.332343749993,
      "v": 98
    },
    {
      "midi": 63,
      "hit": false,
      "t": 119999.10000000002,
      "d": 1841.332343749993,
      "v": 97
    },
    {
      "midi": 46,
      "hit": false,
      "t": 119999.10000000022,
      "d": 1841.332343749993,
      "v": 101
    },
    {
      "midi": 58,
      "hit": false,
      "t": 121845.24000000002,
      "d": 918.2623437500006,
      "v": 100
    },
    {
      "midi": 63,
      "hit": false,
      "t": 121845.24000000002,
      "d": 918.2623437500006,
      "v": 99
    },
    {
      "midi": 67,
      "hit": false,
      "t": 121845.24000000002,
      "d": 918.2623437500006,
      "v": 98
    },
    {
      "midi": 60,
      "hit": false,
      "t": 122768.31000000003,
      "d": 918.2623437500006,
      "v": 99
    },
    {
      "midi": 63,
      "hit": false,
      "t": 122768.31000000003,
      "d": 918.2623437500006,
      "v": 99
    },
    {
      "midi": 68,
      "hit": false,
      "t": 122768.31000000003,
      "d": 918.2623437500006,
      "v": 97
    },
    {
      "midi": 60,
      "hit": false,
      "t": 123691.38000000003,
      "d": 918.2623437500006,
      "v": 99
    },
    {
      "midi": 63,
      "hit": false,
      "t": 123691.38000000003,
      "d": 918.2623437500006,
      "v": 101
    },
    {
      "midi": 69,
      "hit": false,
      "t": 123691.38000000003,
      "d": 918.2623437500006,
      "v": 101
    },
    {
      "midi": 58,
      "hit": false,
      "t": 124614.45000000004,
      "d": 918.2623437500006,
      "v": 99
    },
    {
      "midi": 61,
      "hit": false,
      "t": 124614.45000000004,
      "d": 918.2623437500006,
      "v": 100
    },
    {
      "midi": 67,
      "hit": false,
      "t": 124614.45000000004,
      "d": 918.2623437500006,
      "v": 101
    },
    {
      "midi": 43,
      "hit": false,
      "t": 124922.14000000022,
      "d": 302.8823437499959,
      "v": 127
    },
    {
      "midi": 46,
      "hit": false,
      "t": 125229.83000000022,
      "d": 302.8823437499959,
      "v": 124
    },
    {
      "midi": 56,
      "hit": false,
      "t": 125537.52000000005,
      "d": 918.2623437500006,
      "v": 90
    },
    {
      "midi": 59,
      "hit": false,
      "t": 125537.52000000005,
      "d": 918.2623437500006,
      "v": 91
    },
    {
      "midi": 66,
      "hit": false,
      "t": 125537.52000000005,
      "d": 918.2623437500006,
      "v": 90
    },
    {
      "midi": 47,
      "hit": false,
      "t": 125537.52000000022,
      "d": 2764.40234375,
      "v": 127
    },
    {
      "midi": 56,
      "hit": false,
      "t": 126460.59000000005,
      "d": 918.2623437500006,
      "v": 90
    },
    {
      "midi": 59,
      "hit": false,
      "t": 126460.59000000005,
      "d": 918.2623437500006,
      "v": 87
    },
    {
      "midi": 66,
      "hit": false,
      "t": 126460.59000000005,
      "d": 918.2623437500006,
      "v": 87
    },
    {
      "midi": 56,
      "hit": false,
      "t": 127383.66000000006,
      "d": 918.2623437500006,
      "v": 90
    },
    {
      "midi": 59,
      "hit": false,
      "t": 127383.66000000006,
      "d": 918.2623437500006,
      "v": 88
    },
    {
      "midi": 65,
      "hit": false,
      "t": 127383.66000000006,
      "d": 918.2623437500006,
      "v": 88
    },
    {
      "midi": 56,
      "hit": false,
      "t": 128306.73000000007,
      "d": 918.2623437500006,
      "v": 89
    },
    {
      "midi": 59,
      "hit": false,
      "t": 128306.73000000007,
      "d": 918.2623437500006,
      "v": 90
    },
    {
      "midi": 65,
      "hit": false,
      "t": 128306.73000000007,
      "d": 918.2623437500006,
      "v": 91
    },
    {
      "midi": 44,
      "hit": false,
      "t": 128614.42000000022,
      "d": 302.8823437499959,
      "v": 127
    },
    {
      "midi": 45,
      "hit": false,
      "t": 128922.11000000022,
      "d": 302.8823437499959,
      "v": 125
    },
    {
      "midi": 54,
      "hit": false,
      "t": 129229.80000000008,
      "d": 918.2623437500006,
      "v": 88
    },
    {
      "midi": 58,
      "hit": false,
      "t": 129229.80000000008,
      "d": 918.2623437500006,
      "v": 87
    },
    {
      "midi": 65,
      "hit": false,
      "t": 129229.80000000008,
      "d": 918.2623437500006,
      "v": 90
    },
    {
      "midi": 46,
      "hit": false,
      "t": 129229.80000000022,
      "d": 2764.40234375,
      "v": 124
    },
    {
      "midi": 54,
      "hit": false,
      "t": 130152.87000000008,
      "d": 918.2623437500006,
      "v": 87
    },
    {
      "midi": 58,
      "hit": false,
      "t": 130152.87000000008,
      "d": 918.2623437500006,
      "v": 88
    },
    {
      "midi": 65,
      "hit": false,
      "t": 130152.87000000008,
      "d": 918.2623437500006,
      "v": 90
    },
    {
      "midi": 54,
      "hit": false,
      "t": 131075.9400000001,
      "d": 918.262343749986,
      "v": 90
    },
    {
      "midi": 58,
      "hit": false,
      "t": 131075.9400000001,
      "d": 918.262343749986,
      "v": 87
    },
    {
      "midi": 63,
      "hit": false,
      "t": 131075.9400000001,
      "d": 918.262343749986,
      "v": 90
    },
    {
      "midi": 54,
      "hit": false,
      "t": 131999.01000000007,
      "d": 918.262343749986,
      "v": 89
    },
    {
      "midi": 58,
      "hit": false,
      "t": 131999.01000000007,
      "d": 918.262343749986,
      "v": 89
    },
    {
      "midi": 63,
      "hit": false,
      "t": 131999.01000000007,
      "d": 918.262343749986,
      "v": 88
    },
    {
      "midi": 41,
      "hit": false,
      "t": 132306.70000000022,
      "d": 302.8823437500105,
      "v": 126
    },
    {
      "midi": 42,
      "hit": false,
      "t": 132614.39000000022,
      "d": 302.8823437500105,
      "v": 124
    },
    {
      "midi": 44,
      "hit": false,
      "t": 132922.08000000022,
      "d": 2764.402343750029,
      "v": 124
    },
    {
      "midi": 56,
      "hit": false,
      "t": 133383.61500000022,
      "d": 456.72734375001164,
      "v": 98
    },
    {
      "midi": 59,
      "hit": false,
      "t": 133845.15000000023,
      "d": 456.72734375001164,
      "v": 99
    },
    {
      "midi": 63,
      "hit": false,
      "t": 133845.15000000023,
      "d": 456.72734375001164,
      "v": 99
    },
    {
      "midi": 56,
      "hit": false,
      "t": 134306.68500000023,
      "d": 456.72734375001164,
      "v": 100
    },
    {
      "midi": 56,
      "hit": false,
      "t": 134768.22000000023,
      "d": 456.72734375001164,
      "v": 100
    },
    {
      "midi": 60,
      "hit": false,
      "t": 134768.22000000023,
      "d": 918.2623437500151,
      "v": 100
    },
    {
      "midi": 63,
      "hit": false,
      "t": 134768.22000000023,
      "d": 918.2623437500151,
      "v": 99
    },
    {
      "midi": 54,
      "hit": false,
      "t": 135229.75500000024,
      "d": 456.72734375001164,
      "v": 97
    },
    {
      "midi": 53,
      "hit": false,
      "t": 135691.29000000024,
      "d": 456.72734375001164,
      "v": 97
    },
    {
      "midi": 60,
      "hit": false,
      "t": 135691.29000000024,
      "d": 918.2623437500151,
      "v": 97
    },
    {
      "midi": 63,
      "hit": false,
      "t": 135691.29000000024,
      "d": 918.2623437500151,
      "v": 101
    },
    {
      "midi": 51,
      "hit": false,
      "t": 136152.82500000024,
      "d": 456.72734375001164,
      "v": 100
    },
    {
      "midi": 46,
      "hit": false,
      "t": 136523.01453125026,
      "d": 918.262343749986,
      "v": 100
    },
    {
      "midi": 56,
      "hit": false,
      "t": 136561.47578125025,
      "d": 918.262343749986,
      "v": 99
    },
    {
      "midi": 63,
      "hit": false,
      "t": 136580.70640625004,
      "d": 918.2623437500151,
      "v": 88
    },
    {
      "midi": 70,
      "hit": false,
      "t": 136623.97531250006,
      "d": 687.4948437499988,
      "v": 101
    },
    {
      "midi": 65,
      "hit": false,
      "t": 136648.01359375005,
      "d": 899.0317187499895,
      "v": 101
    },
    {
      "midi": 46,
      "hit": false,
      "t": 137479.73812500024,
      "d": 918.2623437500151,
      "v": 101
    },
    {
      "midi": 56,
      "hit": false,
      "t": 137513.39171875024,
      "d": 918.2623437500151,
      "v": 97
    },
    {
      "midi": 62,
      "hit": false,
      "t": 137537.43000000005,
      "d": 918.262343749986,
      "v": 99
    },
    {
      "midi": 70,
      "hit": false,
      "t": 137542.23765625004,
      "d": 456.72734374998254,
      "v": 97
    },
    {
      "midi": 65,
      "hit": false,
      "t": 137547.04531250003,
      "d": 225.95984374999534,
      "v": 100
    },
    {
      "midi": 70,
      "hit": false,
      "t": 137998.96500000003,
      "d": 456.72734375001164,
      "v": 101
    },
    {
      "midi": 48,
      "hit": false,
      "t": 138431.65406250025,
      "d": 1841.3323437500221,
      "v": 101
    },
    {
      "midi": 58,
      "hit": false,
      "t": 138460.50000000026,
      "d": 1841.3323437500221,
      "v": 100
    },
    {
      "midi": 64,
      "hit": false,
      "t": 138479.73062500003,
      "d": 1841.332343749993,
      "v": 99
    },
    {
      "midi": 69,
      "hit": false,
      "t": 138532.61484375002,
      "d": 1841.332343749993,
      "v": 99
    },
    {
      "midi": 72,
      "hit": false,
      "t": 138556.653125,
      "d": 1841.332343749993,
      "v": 97
    },
    {
      "midi": 57,
      "hit": false,
      "t": 140306.64,
      "d": 918.262343749986,
      "v": 99
    },
    {
      "midi": 60,
      "hit": false,
      "t": 140306.64,
      "d": 918.262343749986,
      "v": 99
    },
    {
      "midi": 65,
      "hit": false,
      "t": 140306.64,
      "d": 918.262343749986,
      "v": 98
    },
    {
      "midi": 41,
      "hit": false,
      "t": 140306.64000000028,
      "d": 3687.472343750007,
      "v": 101
    },
    {
      "midi": 57,
      "hit": false,
      "t": 141229.71,
      "d": 918.262343749986,
      "v": 99
    },
    {
      "midi": 60,
      "hit": false,
      "t": 141229.71,
      "d": 918.262343749986,
      "v": 101
    },
    {
      "midi": 65,
      "hit": false,
      "t": 141229.71,
      "d": 918.262343749986,
      "v": 97
    },
    {
      "midi": 57,
      "hit": false,
      "t": 142152.77999999997,
      "d": 918.262343749986,
      "v": 97
    },
    {
      "midi": 60,
      "hit": false,
      "t": 142152.77999999997,
      "d": 918.262343749986,
      "v": 99
    },
    {
      "midi": 65,
      "hit": false,
      "t": 142152.77999999997,
      "d": 918.262343749986,
      "v": 101
    },
    {
      "midi": 57,
      "hit": false,
      "t": 143075.84999999995,
      "d": 918.262343749986,
      "v": 98
    },
    {
      "midi": 60,
      "hit": false,
      "t": 143075.84999999995,
      "d": 918.262343749986,
      "v": 101
    },
    {
      "midi": 65,
      "hit": false,
      "t": 143075.84999999995,
      "d": 918.262343749986,
      "v": 99
    },
    {
      "midi": 58,
      "hit": false,
      "t": 143998.91999999993,
      "d": 918.262343749986,
      "v": 99
    },
    {
      "midi": 63,
      "hit": false,
      "t": 143998.91999999993,
      "d": 918.262343749986,
      "v": 97
    },
    {
      "midi": 67,
      "hit": false,
      "t": 143998.91999999993,
      "d": 918.262343749986,
      "v": 100
    },
    {
      "midi": 48,
      "hit": false,
      "t": 143998.92000000027,
      "d": 1841.332343749993,
      "v": 101
    },
    {
      "midi": 58,
      "hit": false,
      "t": 144921.9899999999,
      "d": 918.262343749986,
      "v": 100
    },
    {
      "midi": 63,
      "hit": false,
      "t": 144921.9899999999,
      "d": 918.262343749986,
      "v": 101
    },
    {
      "midi": 67,
      "hit": false,
      "t": 144921.9899999999,
      "d": 918.262343749986,
      "v": 97
    },
    {
      "midi": 57,
      "hit": false,
      "t": 145845.05999999988,
      "d": 918.262343749986,
      "v": 101
    },
    {
      "midi": 63,
      "hit": false,
      "t": 145845.05999999988,
      "d": 918.262343749986,
      "v": 101
    },
    {
      "midi": 67,
      "hit": false,
      "t": 145845.05999999988,
      "d": 918.262343749986,
      "v": 99
    },
    {
      "midi": 41,
      "hit": false,
      "t": 145845.06000000026,
      "d": 1841.332343749993,
      "v": 100
    },
    {
      "midi": 63,
      "hit": false,
      "t": 146768.12999999986,
      "d": 918.262343749986,
      "v": 99
    },
    {
      "midi": 67,
      "hit": false,
      "t": 146768.12999999986,
      "d": 918.262343749986,
      "v": 97
    },
    {
      "midi": 57,
      "hit": false,
      "t": 146768.12999999986,
      "d": 923.0699999999779,
      "v": 101
    },
    {
      "midi": 57,
      "hit": false,
      "t": 147691.19999999984,
      "d": 918.262343749986,
      "v": 100
    },
    {
      "midi": 62,
      "hit": false,
      "t": 147691.19999999984,
      "d": 918.262343749986,
      "v": 98
    },
    {
      "midi": 65,
      "hit": false,
      "t": 147691.19999999984,
      "d": 918.262343749986,
      "v": 97
    },
    {
      "midi": 46,
      "hit": false,
      "t": 147691.20000000024,
      "d": 3687.472343750007,
      "v": 98
    },
    {
      "midi": 57,
      "hit": false,
      "t": 148614.26999999981,
      "d": 918.262343749986,
      "v": 100
    },
    {
      "midi": 62,
      "hit": false,
      "t": 148614.26999999981,
      "d": 918.262343749986,
      "v": 99
    },
    {
      "midi": 65,
      "hit": false,
      "t": 148614.26999999981,
      "d": 918.262343749986,
      "v": 99
    },
    {
      "midi": 58,
      "hit": false,
      "t": 149537.3399999998,
      "d": 918.262343749986,
      "v": 100
    },
    {
      "midi": 62,
      "hit": false,
      "t": 149537.3399999998,
      "d": 918.262343749986,
      "v": 97
    },
    {
      "midi": 65,
      "hit": false,
      "t": 149537.3399999998,
      "d": 918.262343749986,
      "v": 100
    },
    {
      "midi": 58,
      "hit": false,
      "t": 150460.40999999977,
      "d": 918.262343749986,
      "v": 100
    },
    {
      "midi": 62,
      "hit": false,
      "t": 150460.40999999977,
      "d": 918.262343749986,
      "v": 99
    },
    {
      "midi": 65,
      "hit": false,
      "t": 150460.40999999977,
      "d": 918.262343749986,
      "v": 98
    },
    {
      "midi": 56,
      "hit": false,
      "t": 151383.47999999975,
      "d": 918.262343749986,
      "v": 99
    },
    {
      "midi": 61,
      "hit": false,
      "t": 151383.47999999975,
      "d": 918.262343749986,
      "v": 97
    },
    {
      "midi": 65,
      "hit": false,
      "t": 151383.47999999975,
      "d": 918.262343749986,
      "v": 101
    },
    {
      "midi": 46,
      "hit": false,
      "t": 151383.48000000024,
      "d": 1841.332343749993,
      "v": 99
    },
    {
      "midi": 56,
      "hit": false,
      "t": 152306.54999999973,
      "d": 918.262343749986,
      "v": 98
    },
    {
      "midi": 61,
      "hit": false,
      "t": 152306.54999999973,
      "d": 918.262343749986,
      "v": 97
    },
    {
      "midi": 65,
      "hit": false,
      "t": 152306.54999999973,
      "d": 918.262343749986,
      "v": 101
    },
    {
      "midi": 55,
      "hit": false,
      "t": 153229.6199999997,
      "d": 918.262343749986,
      "v": 100
    },
    {
      "midi": 61,
      "hit": false,
      "t": 153229.6199999997,
      "d": 918.262343749986,
      "v": 98
    },
    {
      "midi": 65,
      "hit": false,
      "t": 153229.6199999997,
      "d": 918.262343749986,
      "v": 100
    },
    {
      "midi": 39,
      "hit": false,
      "t": 153229.62000000023,
      "d": 1841.332343749993,
      "v": 98
    },
    {
      "midi": 55,
      "hit": false,
      "t": 154152.68999999968,
      "d": 918.262343749986,
      "v": 100
    },
    {
      "midi": 61,
      "hit": false,
      "t": 154152.68999999968,
      "d": 918.262343749986,
      "v": 100
    },
    {
      "midi": 65,
      "hit": false,
      "t": 154152.68999999968,
      "d": 918.262343749986,
      "v": 101
    },
    {
      "midi": 57,
      "hit": false,
      "t": 155075.75999999966,
      "d": 918.262343749986,
      "v": 100
    },
    {
      "midi": 60,
      "hit": false,
      "t": 155075.75999999966,
      "d": 918.262343749986,
      "v": 101
    },
    {
      "midi": 65,
      "hit": false,
      "t": 155075.75999999966,
      "d": 918.262343749986,
      "v": 99
    },
    {
      "midi": 41,
      "hit": false,
      "t": 155075.7600000002,
      "d": 1841.332343749993,
      "v": 97
    },
    {
      "midi": 57,
      "hit": false,
      "t": 155998.82999999964,
      "d": 918.262343749986,
      "v": 101
    },
    {
      "midi": 60,
      "hit": false,
      "t": 155998.82999999964,
      "d": 918.262343749986,
      "v": 100
    },
    {
      "midi": 65,
      "hit": false,
      "t": 155998.82999999964,
      "d": 918.262343749986,
      "v": 101
    },
    {
      "midi": 57,
      "hit": false,
      "t": 156921.89999999962,
      "d": 918.262343749986,
      "v": 99
    },
    {
      "midi": 62,
      "hit": false,
      "t": 156921.89999999962,
      "d": 918.262343749986,
      "v": 101
    },
    {
      "midi": 65,
      "hit": false,
      "t": 156921.89999999962,
      "d": 918.262343749986,
      "v": 101
    },
    {
      "midi": 38,
      "hit": false,
      "t": 156921.9000000002,
      "d": 1841.332343749993,
      "v": 100
    },
    {
      "midi": 57,
      "hit": false,
      "t": 157844.9699999996,
      "d": 918.262343749986,
      "v": 98
    },
    {
      "midi": 62,
      "hit": false,
      "t": 157844.9699999996,
      "d": 918.262343749986,
      "v": 99
    },
    {
      "midi": 65,
      "hit": false,
      "t": 157844.9699999996,
      "d": 918.262343749986,
      "v": 99
    },
    {
      "midi": 58,
      "hit": false,
      "t": 158768.03999999957,
      "d": 918.262343749986,
      "v": 97
    },
    {
      "midi": 62,
      "hit": false,
      "t": 158768.03999999957,
      "d": 918.262343749986,
      "v": 99
    },
    {
      "midi": 65,
      "hit": false,
      "t": 158768.03999999957,
      "d": 918.262343749986,
      "v": 101
    },
    {
      "midi": 43,
      "hit": false,
      "t": 158768.04000000018,
      "d": 1841.332343749993,
      "v": 99
    },
    {
      "midi": 58,
      "hit": false,
      "t": 159691.10999999955,
      "d": 918.262343749986,
      "v": 97
    },
    {
      "midi": 62,
      "hit": false,
      "t": 159691.10999999955,
      "d": 918.262343749986,
      "v": 99
    },
    {
      "midi": 65,
      "hit": false,
      "t": 159691.10999999955,
      "d": 918.262343749986,
      "v": 98
    },
    {
      "midi": 58,
      "hit": false,
      "t": 160614.17999999953,
      "d": 918.262343749986,
      "v": 97
    },
    {
      "midi": 64,
      "hit": false,
      "t": 160614.17999999953,
      "d": 918.262343749986,
      "v": 97
    },
    {
      "midi": 67,
      "hit": false,
      "t": 160614.17999999953,
      "d": 918.262343749986,
      "v": 100
    },
    {
      "midi": 48,
      "hit": false,
      "t": 160614.18000000017,
      "d": 1841.332343749993,
      "v": 99
    },
    {
      "midi": 58,
      "hit": false,
      "t": 161537.2499999995,
      "d": 918.262343749986,
      "v": 98
    },
    {
      "midi": 64,
      "hit": false,
      "t": 161537.2499999995,
      "d": 918.262343749986,
      "v": 101
    },
    {
      "midi": 67,
      "hit": false,
      "t": 161537.2499999995,
      "d": 918.262343749986,
      "v": 99
    },
    {
      "midi": 57,
      "hit": false,
      "t": 162460.31999999948,
      "d": 918.262343749986,
      "v": 100
    },
    {
      "midi": 60,
      "hit": false,
      "t": 162460.31999999948,
      "d": 918.262343749986,
      "v": 97
    },
    {
      "midi": 65,
      "hit": false,
      "t": 162460.31999999948,
      "d": 918.262343749986,
      "v": 97
    },
    {
      "midi": 41,
      "hit": false,
      "t": 162460.32000000015,
      "d": 918.262343749986,
      "v": 99
    },
    {
      "midi": 69,
      "hit": false,
      "t": 164306.45999999947,
      "d": 610.5723437500128,
      "v": 101
    },
    {
      "midi": 81,
      "hit": false,
      "t": 164306.45999999947,
      "d": 610.5723437500128,
      "v": 98
    },
    {
      "midi": 36,
      "hit": false,
      "t": 164306.46000000014,
      "d": 610.5723437500128,
      "v": 98
    },
    {
      "midi": 70,
      "hit": false,
      "t": 164921.83999999947,
      "d": 610.5723437500128,
      "v": 97
    },
    {
      "midi": 82,
      "hit": false,
      "t": 164921.83999999947,
      "d": 610.5723437500128,
      "v": 100
    },
    {
      "midi": 36,
      "hit": false,
      "t": 164921.84000000014,
      "d": 610.5723437500128,
      "v": 97
    },
    {
      "midi": 72,
      "hit": false,
      "t": 165537.21999999948,
      "d": 610.5723437500128,
      "v": 98
    },
    {
      "midi": 84,
      "hit": false,
      "t": 165537.21999999948,
      "d": 610.5723437500128,
      "v": 97
    },
    {
      "midi": 36,
      "hit": false,
      "t": 165537.22000000015,
      "d": 610.5723437500128,
      "v": 100
    },
    {
      "midi": 72,
      "hit": false,
      "t": 166152.59999999948,
      "d": 1841.332343749993,
      "v": 98
    },
    {
      "midi": 84,
      "hit": false,
      "t": 166152.59999999948,
      "d": 1841.332343749993,
      "v": 101
    },
    {
      "midi": 41,
      "hit": false,
      "t": 166152.60000000015,
      "d": 3687.472343750007,
      "v": 98
    },
    {
      "midi": 57,
      "hit": false,
      "t": 167075.6699999995,
      "d": 918.262343749986,
      "v": 100
    },
    {
      "midi": 60,
      "hit": false,
      "t": 167075.6699999995,
      "d": 918.262343749986,
      "v": 99
    },
    {
      "midi": 65,
      "hit": false,
      "t": 167075.6699999995,
      "d": 918.262343749986,
      "v": 98
    },
    {
      "midi": 57,
      "hit": false,
      "t": 167998.73999999947,
      "d": 918.262343749986,
      "v": 99
    },
    {
      "midi": 60,
      "hit": false,
      "t": 167998.73999999947,
      "d": 918.262343749986,
      "v": 98
    },
    {
      "midi": 65,
      "hit": false,
      "t": 167998.73999999947,
      "d": 918.262343749986,
      "v": 100
    },
    {
      "midi": 57,
      "hit": false,
      "t": 168921.80999999944,
      "d": 918.262343749986,
      "v": 100
    },
    {
      "midi": 60,
      "hit": false,
      "t": 168921.80999999944,
      "d": 918.262343749986,
      "v": 101
    },
    {
      "midi": 65,
      "hit": false,
      "t": 168921.80999999944,
      "d": 918.262343749986,
      "v": 99
    },
    {
      "midi": 58,
      "hit": false,
      "t": 169844.87999999942,
      "d": 918.262343749986,
      "v": 101
    },
    {
      "midi": 63,
      "hit": false,
      "t": 169844.87999999942,
      "d": 918.262343749986,
      "v": 100
    },
    {
      "midi": 67,
      "hit": false,
      "t": 169844.87999999942,
      "d": 918.262343749986,
      "v": 100
    },
    {
      "midi": 41,
      "hit": false,
      "t": 169844.88000000015,
      "d": 3687.472343750007,
      "v": 101
    },
    {
      "midi": 58,
      "hit": false,
      "t": 170767.9499999994,
      "d": 918.262343749986,
      "v": 101
    },
    {
      "midi": 63,
      "hit": false,
      "t": 170767.9499999994,
      "d": 918.262343749986,
      "v": 99
    },
    {
      "midi": 67,
      "hit": false,
      "t": 170767.9499999994,
      "d": 918.262343749986,
      "v": 97
    },
    {
      "midi": 57,
      "hit": false,
      "t": 171691.01999999938,
      "d": 918.262343749986,
      "v": 97
    },
    {
      "midi": 63,
      "hit": false,
      "t": 171691.01999999938,
      "d": 918.262343749986,
      "v": 99
    },
    {
      "midi": 67,
      "hit": false,
      "t": 171691.01999999938,
      "d": 918.262343749986,
      "v": 97
    },
    {
      "midi": 57,
      "hit": false,
      "t": 172614.08999999936,
      "d": 918.262343749986,
      "v": 99
    },
    {
      "midi": 63,
      "hit": false,
      "t": 172614.08999999936,
      "d": 918.262343749986,
      "v": 98
    },
    {
      "midi": 67,
      "hit": false,
      "t": 172614.08999999936,
      "d": 918.262343749986,
      "v": 99
    },
    {
      "midi": 57,
      "hit": false,
      "t": 173537.15999999933,
      "d": 918.262343749986,
      "v": 97
    },
    {
      "midi": 62,
      "hit": false,
      "t": 173537.15999999933,
      "d": 918.262343749986,
      "v": 97
    },
    {
      "midi": 65,
      "hit": false,
      "t": 173537.15999999933,
      "d": 918.262343749986,
      "v": 101
    },
    {
      "midi": 46,
      "hit": false,
      "t": 173537.16000000015,
      "d": 3687.472343750007,
      "v": 97
    },
    {
      "midi": 57,
      "hit": false,
      "t": 174460.2299999993,
      "d": 918.262343749986,
      "v": 97
    },
    {
      "midi": 62,
      "hit": false,
      "t": 174460.2299999993,
      "d": 918.262343749986,
      "v": 101
    },
    {
      "midi": 65,
      "hit": false,
      "t": 174460.2299999993,
      "d": 918.262343749986,
      "v": 97
    },
    {
      "midi": 58,
      "hit": false,
      "t": 175383.2999999993,
      "d": 918.262343749986,
      "v": 98
    },
    {
      "midi": 62,
      "hit": false,
      "t": 175383.2999999993,
      "d": 918.262343749986,
      "v": 101
    },
    {
      "midi": 65,
      "hit": false,
      "t": 175383.2999999993,
      "d": 918.262343749986,
      "v": 97
    },
    {
      "midi": 58,
      "hit": false,
      "t": 176306.36999999927,
      "d": 918.262343749986,
      "v": 98
    },
    {
      "midi": 62,
      "hit": false,
      "t": 176306.36999999927,
      "d": 918.262343749986,
      "v": 100
    },
    {
      "midi": 65,
      "hit": false,
      "t": 176306.36999999927,
      "d": 918.262343749986,
      "v": 98
    },
    {
      "midi": 55,
      "hit": false,
      "t": 177229.43999999925,
      "d": 918.262343749986,
      "v": 98
    },
    {
      "midi": 61,
      "hit": false,
      "t": 177229.43999999925,
      "d": 918.262343749986,
      "v": 101
    },
    {
      "midi": 65,
      "hit": false,
      "t": 177229.43999999925,
      "d": 918.262343749986,
      "v": 101
    },
    {
      "midi": 39,
      "hit": false,
      "t": 177229.44000000015,
      "d": 2764.40234375,
      "v": 101
    },
    {
      "midi": 55,
      "hit": false,
      "t": 178152.50999999922,
      "d": 918.262343749986,
      "v": 97
    },
    {
      "midi": 61,
      "hit": false,
      "t": 178152.50999999922,
      "d": 918.262343749986,
      "v": 100
    },
    {
      "midi": 65,
      "hit": false,
      "t": 178152.50999999922,
      "d": 918.262343749986,
      "v": 100
    },
    {
      "midi": 55,
      "hit": false,
      "t": 179075.5799999992,
      "d": 918.262343749986,
      "v": 100
    },
    {
      "midi": 61,
      "hit": false,
      "t": 179075.5799999992,
      "d": 918.262343749986,
      "v": 97
    },
    {
      "midi": 65,
      "hit": false,
      "t": 179075.5799999992,
      "d": 918.262343749986,
      "v": 97
    },
    {
      "midi": 55,
      "hit": false,
      "t": 179998.64999999918,
      "d": 918.262343749986,
      "v": 97
    },
    {
      "midi": 61,
      "hit": false,
      "t": 179998.64999999918,
      "d": 918.262343749986,
      "v": 98
    },
    {
      "midi": 65,
      "hit": false,
      "t": 179998.64999999918,
      "d": 918.262343749986,
      "v": 101
    },
    {
      "midi": 37,
      "hit": false,
      "t": 179998.65000000014,
      "d": 918.262343749986,
      "v": 99
    },
    {
      "midi": 57,
      "hit": false,
      "t": 180921.71999999916,
      "d": 918.262343749986,
      "v": 99
    },
    {
      "midi": 60,
      "hit": false,
      "t": 180921.71999999916,
      "d": 918.262343749986,
      "v": 97
    },
    {
      "midi": 65,
      "hit": false,
      "t": 180921.71999999916,
      "d": 918.262343749986,
      "v": 101
    },
    {
      "midi": 36,
      "hit": false,
      "t": 180921.72000000012,
      "d": 1841.332343749993,
      "v": 100
    },
    {
      "midi": 57,
      "hit": false,
      "t": 181844.78999999914,
      "d": 918.262343749986,
      "v": 97
    },
    {
      "midi": 60,
      "hit": false,
      "t": 181844.78999999914,
      "d": 918.262343749986,
      "v": 99
    },
    {
      "midi": 65,
      "hit": false,
      "t": 181844.78999999914,
      "d": 918.262343749986,
      "v": 101
    },
    {
      "midi": 57,
      "hit": false,
      "t": 182767.8599999991,
      "d": 918.262343749986,
      "v": 101
    },
    {
      "midi": 62,
      "hit": false,
      "t": 182767.8599999991,
      "d": 918.262343749986,
      "v": 101
    },
    {
      "midi": 65,
      "hit": false,
      "t": 182767.8599999991,
      "d": 918.262343749986,
      "v": 97
    },
    {
      "midi": 38,
      "hit": false,
      "t": 182767.8600000001,
      "d": 1841.332343749993,
      "v": 97
    },
    {
      "midi": 57,
      "hit": false,
      "t": 183690.9299999991,
      "d": 918.262343749986,
      "v": 100
    },
    {
      "midi": 62,
      "hit": false,
      "t": 183690.9299999991,
      "d": 918.262343749986,
      "v": 99
    },
    {
      "midi": 65,
      "hit": false,
      "t": 183690.9299999991,
      "d": 918.262343749986,
      "v": 99
    },
    {
      "midi": 58,
      "hit": false,
      "t": 184613.99999999907,
      "d": 918.262343749986,
      "v": 101
    },
    {
      "midi": 62,
      "hit": false,
      "t": 184613.99999999907,
      "d": 918.262343749986,
      "v": 97
    },
    {
      "midi": 65,
      "hit": false,
      "t": 184613.99999999907,
      "d": 918.262343749986,
      "v": 97
    },
    {
      "midi": 43,
      "hit": false,
      "t": 184614.0000000001,
      "d": 1841.332343749993,
      "v": 98
    },
    {
      "midi": 58,
      "hit": false,
      "t": 185537.06999999905,
      "d": 918.262343749986,
      "v": 97
    },
    {
      "midi": 62,
      "hit": false,
      "t": 185537.06999999905,
      "d": 918.262343749986,
      "v": 101
    },
    {
      "midi": 65,
      "hit": false,
      "t": 185537.06999999905,
      "d": 918.262343749986,
      "v": 100
    },
    {
      "midi": 58,
      "hit": false,
      "t": 186460.13999999902,
      "d": 918.262343749986,
      "v": 99
    },
    {
      "midi": 62,
      "hit": false,
      "t": 186460.13999999902,
      "d": 918.262343749986,
      "v": 100
    },
    {
      "midi": 67,
      "hit": false,
      "t": 186460.13999999902,
      "d": 918.262343749986,
      "v": 97
    },
    {
      "midi": 36,
      "hit": false,
      "t": 186460.14000000007,
      "d": 1841.332343749993,
      "v": 97
    },
    {
      "midi": 58,
      "hit": false,
      "t": 187383.209999999,
      "d": 918.262343749986,
      "v": 98
    },
    {
      "midi": 62,
      "hit": false,
      "t": 187383.209999999,
      "d": 918.262343749986,
      "v": 97
    },
    {
      "midi": 67,
      "hit": false,
      "t": 187383.209999999,
      "d": 918.262343749986,
      "v": 99
    },
    {
      "midi": 57,
      "hit": false,
      "t": 188306.27999999898,
      "d": 918.262343749986,
      "v": 100
    },
    {
      "midi": 60,
      "hit": false,
      "t": 188306.27999999898,
      "d": 918.262343749986,
      "v": 101
    },
    {
      "midi": 65,
      "hit": false,
      "t": 188306.27999999898,
      "d": 918.262343749986,
      "v": 100
    },
    {
      "midi": 41,
      "hit": false,
      "t": 188306.28000000006,
      "d": 918.262343749986,
      "v": 97
    },
    {
      "midi": 57,
      "hit": false,
      "t": 189229.34999999896,
      "d": 918.262343749986,
      "v": 97
    },
    {
      "midi": 60,
      "hit": false,
      "t": 189229.34999999896,
      "d": 918.262343749986,
      "v": 98
    },
    {
      "midi": 65,
      "hit": false,
      "t": 189229.34999999896,
      "d": 918.262343749986,
      "v": 97
    },
    {
      "midi": 48,
      "hit": false,
      "t": 189690.88500000004,
      "d": 225.95984374999534,
      "v": 99
    },
    {
      "midi": 49,
      "hit": false,
      "t": 189921.65250000003,
      "d": 225.95984374999534,
      "v": 97
    },
    {
      "midi": 57,
      "hit": false,
      "t": 190152.41999999894,
      "d": 918.262343749986,
      "v": 101
    },
    {
      "midi": 62,
      "hit": false,
      "t": 190152.41999999894,
      "d": 918.262343749986,
      "v": 100
    },
    {
      "midi": 65,
      "hit": false,
      "t": 190152.41999999894,
      "d": 918.262343749986,
      "v": 101
    },
    {
      "midi": 50,
      "hit": false,
      "t": 190152.42,
      "d": 1841.332343749993,
      "v": 98
    },
    {
      "midi": 57,
      "hit": false,
      "t": 191075.4899999989,
      "d": 918.262343749986,
      "v": 98
    },
    {
      "midi": 62,
      "hit": false,
      "t": 191075.4899999989,
      "d": 918.262343749986,
      "v": 99
    },
    {
      "midi": 65,
      "hit": false,
      "t": 191075.4899999989,
      "d": 918.262343749986,
      "v": 100
    },
    {
      "midi": 58,
      "hit": false,
      "t": 191998.5599999989,
      "d": 918.262343749986,
      "v": 100
    },
    {
      "midi": 62,
      "hit": false,
      "t": 191998.5599999989,
      "d": 918.262343749986,
      "v": 101
    },
    {
      "midi": 65,
      "hit": false,
      "t": 191998.5599999989,
      "d": 918.262343749986,
      "v": 101
    },
    {
      "midi": 43,
      "hit": false,
      "t": 191998.56,
      "d": 1841.332343749993,
      "v": 100
    },
    {
      "midi": 58,
      "hit": false,
      "t": 192921.62999999887,
      "d": 918.262343749986,
      "v": 100
    },
    {
      "midi": 62,
      "hit": false,
      "t": 192921.62999999887,
      "d": 918.262343749986,
      "v": 101
    },
    {
      "midi": 65,
      "hit": false,
      "t": 192921.62999999887,
      "d": 918.262343749986,
      "v": 101
    },
    {
      "midi": 58,
      "hit": false,
      "t": 193844.69999999885,
      "d": 918.262343749986,
      "v": 99
    },
    {
      "midi": 62,
      "hit": false,
      "t": 193844.69999999885,
      "d": 918.262343749986,
      "v": 97
    },
    {
      "midi": 65,
      "hit": false,
      "t": 193844.69999999885,
      "d": 918.262343749986,
      "v": 100
    },
    {
      "midi": 48,
      "hit": false,
      "t": 193844.69999999998,
      "d": 1841.332343749993,
      "v": 98
    },
    {
      "midi": 58,
      "hit": false,
      "t": 194767.76999999883,
      "d": 918.262343749986,
      "v": 101
    },
    {
      "midi": 62,
      "hit": false,
      "t": 194767.76999999883,
      "d": 918.262343749986,
      "v": 101
    },
    {
      "midi": 65,
      "hit": false,
      "t": 194767.76999999883,
      "d": 918.262343749986,
      "v": 98
    },
    {
      "midi": 57,
      "hit": false,
      "t": 195690.8399999988,
      "d": 918.262343749986,
      "v": 98
    },
    {
      "midi": 60,
      "hit": false,
      "t": 195690.8399999988,
      "d": 918.262343749986,
      "v": 99
    },
    {
      "midi": 65,
      "hit": false,
      "t": 195690.8399999988,
      "d": 918.262343749986,
      "v": 101
    },
    {
      "midi": 41,
      "hit": false,
      "t": 195690.83999999997,
      "d": 918.262343749986,
      "v": 97
    },
    {
      "midi": 57,
      "hit": false,
      "t": 196613.90999999878,
      "d": 918.262343749986,
      "v": 101
    },
    {
      "midi": 60,
      "hit": false,
      "t": 196613.90999999878,
      "d": 918.262343749986,
      "v": 100
    },
    {
      "midi": 65,
      "hit": false,
      "t": 196613.90999999878,
      "d": 918.262343749986,
      "v": 98
    },
    {
      "midi": 48,
      "hit": false,
      "t": 197075.44499999995,
      "d": 225.95984374999534,
      "v": 100
    },
    {
      "midi": 49,
      "hit": false,
      "t": 197306.21249999994,
      "d": 225.95984374999534,
      "v": 99
    },
    {
      "midi": 57,
      "hit": false,
      "t": 197536.97999999876,
      "d": 918.262343749986,
      "v": 98
    },
    {
      "midi": 62,
      "hit": false,
      "t": 197536.97999999876,
      "d": 918.262343749986,
      "v": 101
    },
    {
      "midi": 65,
      "hit": false,
      "t": 197536.97999999876,
      "d": 918.262343749986,
      "v": 97
    },
    {
      "midi": 50,
      "hit": false,
      "t": 197536.97999999992,
      "d": 1841.332343749993,
      "v": 100
    },
    {
      "midi": 57,
      "hit": false,
      "t": 198460.04999999874,
      "d": 918.262343749986,
      "v": 101
    },
    {
      "midi": 62,
      "hit": false,
      "t": 198460.04999999874,
      "d": 918.262343749986,
      "v": 99
    },
    {
      "midi": 65,
      "hit": false,
      "t": 198460.04999999874,
      "d": 918.262343749986,
      "v": 97
    },
    {
      "midi": 58,
      "hit": false,
      "t": 199383.11999999871,
      "d": 918.262343749986,
      "v": 101
    },
    {
      "midi": 62,
      "hit": false,
      "t": 199383.11999999871,
      "d": 918.262343749986,
      "v": 100
    },
    {
      "midi": 65,
      "hit": false,
      "t": 199383.11999999871,
      "d": 918.262343749986,
      "v": 98
    },
    {
      "midi": 43,
      "hit": false,
      "t": 199383.1199999999,
      "d": 1841.332343749993,
      "v": 101
    },
    {
      "midi": 58,
      "hit": false,
      "t": 200306.1899999987,
      "d": 918.262343749986,
      "v": 97
    },
    {
      "midi": 62,
      "hit": false,
      "t": 200306.1899999987,
      "d": 918.262343749986,
      "v": 98
    },
    {
      "midi": 65,
      "hit": false,
      "t": 200306.1899999987,
      "d": 918.262343749986,
      "v": 99
    },
    {
      "midi": 58,
      "hit": false,
      "t": 201229.25999999867,
      "d": 1841.332343749993,
      "v": 100
    },
    {
      "midi": 62,
      "hit": false,
      "t": 201229.25999999867,
      "d": 1841.332343749993,
      "v": 98
    },
    {
      "midi": 65,
      "hit": false,
      "t": 201229.25999999867,
      "d": 1841.332343749993,
      "v": 98
    },
    {
      "midi": 48,
      "hit": false,
      "t": 201229.2599999999,
      "d": 1841.3323437500221,
      "v": 98
    },
    {
      "midi": 53,
      "hit": false,
      "t": 202931.1703124999,
      "d": 1841.3323437500221,
      "v": 100
    },
    {
      "midi": 60,
      "hit": false,
      "t": 202979.2468749999,
      "d": 1841.3323437500221,
      "v": 101
    },
    {
      "midi": 77,
      "hit": false,
      "t": 203027.3234374999,
      "d": 1841.3323437500221,
      "v": 100
    },
    {
      "midi": 84,
      "hit": false,
      "t": 203075.39999999866,
      "d": 456.72734375001164,
      "v": 98
    },
    {
      "midi": 82,
      "hit": false,
      "t": 203536.93499999866,
      "d": 456.72734375001164,
      "v": 98
    },
    {
      "midi": 82,
      "hit": false,
      "t": 203998.46999999866,
      "d": 456.72734375001164,
      "v": 101
    },
    {
      "midi": 81,
      "hit": false,
      "t": 204460.00499999867,
      "d": 456.72734375001164,
      "v": 97
    },
    {
      "midi": 51,
      "hit": false,
      "t": 204777.3103124999,
      "d": 1841.332343749993,
      "v": 101
    },
    {
      "midi": 58,
      "hit": false,
      "t": 204825.3868749999,
      "d": 1841.332343749993,
      "v": 98
    },
    {
      "midi": 75,
      "hit": false,
      "t": 204873.46343749992,
      "d": 1841.332343749993,
      "v": 100
    },
    {
      "midi": 81,
      "hit": false,
      "t": 204921.53999999867,
      "d": 456.72734375001164,
      "v": 101
    },
    {
      "midi": 79,
      "hit": false,
      "t": 205383.07499999867,
      "d": 456.72734375001164,
      "v": 100
    },
    {
      "midi": 79,
      "hit": false,
      "t": 205844.60999999868,
      "d": 456.72734375001164,
      "v": 97
    },
    {
      "midi": 77,
      "hit": false,
      "t": 206306.14499999868,
      "d": 456.72734375001164,
      "v": 99
    },
    {
      "midi": 49,
      "hit": false,
      "t": 206623.4503124999,
      "d": 1841.3323437500221,
      "v": 100
    },
    {
      "midi": 56,
      "hit": false,
      "t": 206671.5268749999,
      "d": 1841.3323437500221,
      "v": 100
    },
    {
      "midi": 65,
      "hit": false,
      "t": 206719.6034374999,
      "d": 1841.3323437500221,
      "v": 99
    },
    {
      "midi": 77,
      "hit": false,
      "t": 206767.67999999868,
      "d": 456.72734375001164,
      "v": 99
    },
    {
      "midi": 75,
      "hit": false,
      "t": 207229.2149999987,
      "d": 456.72734375001164,
      "v": 100
    },
    {
      "midi": 75,
      "hit": false,
      "t": 207690.7499999987,
      "d": 456.72734375001164,
      "v": 100
    },
    {
      "midi": 73,
      "hit": false,
      "t": 208152.2849999987,
      "d": 456.72734375001164,
      "v": 99
    },
    {
      "midi": 48,
      "hit": false,
      "t": 208469.5903124999,
      "d": 1841.3323437500512,
      "v": 100
    },
    {
      "midi": 58,
      "hit": false,
      "t": 208517.6668749999,
      "d": 1841.3323437500512,
      "v": 98
    },
    {
      "midi": 73,
      "hit": false,
      "t": 208613.8199999987,
      "d": 456.72734375001164,
      "v": 100
    },
    {
      "midi": 73,
      "hit": false,
      "t": 208618.62765624994,
      "d": 1841.3323437500221,
      "v": 97
    },
    {
      "midi": 72,
      "hit": false,
      "t": 209075.3549999987,
      "d": 456.72734375001164,
      "v": 101
    },
    {
      "midi": 72,
      "hit": false,
      "t": 209536.8899999987,
      "d": 456.72734375001164,
      "v": 99
    },
    {
      "midi": 70,
      "hit": false,
      "t": 209998.4249999987,
      "d": 456.72734375001164,
      "v": 99
    },
    {
      "midi": 48,
      "hit": false,
      "t": 210349.38390624995,
      "d": 3139.3995312500047,
      "v": 99
    },
    {
      "midi": 60,
      "hit": false,
      "t": 210459.95999999996,
      "d": 1841.332343749993,
      "v": 100
    },
    {
      "midi": 62,
      "hit": false,
      "t": 210488.80593749872,
      "d": 1841.332343749993,
      "v": 97
    },
    {
      "midi": 65,
      "hit": false,
      "t": 210508.03656249872,
      "d": 1841.332343749993,
      "v": 101
    },
    {
      "midi": 69,
      "hit": false,
      "t": 210532.0748437487,
      "d": 850.9551562500128,
      "v": 100
    },
    {
      "midi": 72,
      "hit": false,
      "t": 210546.4978124987,
      "d": 1841.332343749993,
      "v": 100
    },
    {
      "midi": 69,
      "hit": false,
      "t": 211383.02999999872,
      "d": 850.9551562500128,
      "v": 100
    },
    {
      "midi": 81,
      "hit": false,
      "t": 211426.29890624873,
      "d": 918.262343749986,
      "v": 100
    },
    {
      "midi": 70,
      "hit": false,
      "t": 212306.09999999873,
      "d": 918.262343749986,
      "v": 99
    },
    {
      "midi": 82,
      "hit": false,
      "t": 212354.1765624987,
      "d": 918.2623437500151,
      "v": 101
    },
    {
      "midi": 72,
      "hit": false,
      "t": 213229.1699999987,
      "d": 918.2623437500151,
      "v": 100
    },
    {
      "midi": 84,
      "hit": false,
      "t": 213277.2465624987,
      "d": 918.2623437500151,
      "v": 99
    },
    {
      "midi": 41,
      "hit": false,
      "t": 214099.35578124996,
      "d": 6923.025000000023,
      "v": 101
    },
    {
      "midi": 53,
      "hit": false,
      "t": 214152.23999999996,
      "d": 6807.641250000015,
      "v": 101
    },
    {
      "midi": 57,
      "hit": false,
      "t": 214205.12421874874,
      "d": 6836.487187500054,
      "v": 100
    },
    {
      "midi": 60,
      "hit": false,
      "t": 214248.39312499875,
      "d": 6749.949375000026,
      "v": 99
    },
    {
      "midi": 69,
      "hit": false,
      "t": 214296.46968749876,
      "d": 6692.257500000007,
      "v": 99
    },
    {
      "midi": 65,
      "hit": false,
      "t": 214296.46968749876,
      "d": 6778.795312500035,
      "v": 100
    }
  ]
}