{
  "jsonPath": "Rock/Folk Rock/Neil Diamond/song-sung-blue.json",
  "path": "Rock\\Folk Rock\\Neil Diamond\\Song Sung Blue.mid",
  "name": "Song Sung Blue",
  "difficulty": "Advanced",
  "bpm": 105.99995053335641,
  "notes": [
    {
      "midi": 48,
      "hit": false,
      "t": 8000,
      "d": 2927.083333333334,
      "v": 98
    },
    {
      "midi": 64,
      "hit": false,
      "t": 8010.416666666667,
      "d": 1562.499999999999,
      "v": 114
    },
    {
      "midi": 60,
      "hit": false,
      "t": 8625,
      "d": 1833.3333333333321,
      "v": 83
    },
    {
      "midi": 55,
      "hit": false,
      "t": 9000,
      "d": 1833.333333333334,
      "v": 75
    },
    {
      "midi": 67,
      "hit": false,
      "t": 9583.333333333332,
      "d": 989.5833333333339,
      "v": 111
    },
    {
      "midi": 60,
      "hit": false,
      "t": 10625,
      "d": 1395.833333333334,
      "v": 104
    },
    {
      "midi": 55,
      "hit": false,
      "t": 10989.583333333334,
      "d": 1156.25,
      "v": 78
    },
    {
      "midi": 64,
      "hit": false,
      "t": 11593.75,
      "d": 1864.583333333334,
      "v": 114
    },
    {
      "midi": 46,
      "hit": false,
      "t": 12000,
      "d": 2937.5,
      "v": 98
    },
    {
      "midi": 60,
      "hit": false,
      "t": 12625,
      "d": 3000,
      "v": 80
    },
    {
      "midi": 55,
      "hit": false,
      "t": 13000,
      "d": 3062.5,
      "v": 79
    },
    {
      "midi": 65,
      "hit": false,
      "t": 13635.416666666668,
      "d": 1000,
      "v": 114
    },
    {
      "midi": 64,
      "hit": false,
      "t": 14645.833333333334,
      "d": 822.9166666666661,
      "v": 112
    },
    {
      "midi": 46,
      "hit": false,
      "t": 15000,
      "d": 927.0833333333339,
      "v": 100
    },
    {
      "midi": 62,
      "hit": false,
      "t": 15437.5,
      "d": 364.58333333333394,
      "v": 85
    },
    {
      "midi": 60,
      "hit": false,
      "t": 15718.75,
      "d": 385.41666666666606,
      "v": 98
    },
    {
      "midi": 45,
      "hit": false,
      "t": 16031.25,
      "d": 3968.7499999999964,
      "v": 97
    },
    {
      "midi": 64,
      "hit": false,
      "t": 16041.666666666666,
      "d": 1500.0000000000018,
      "v": 112
    },
    {
      "midi": 60,
      "hit": false,
      "t": 16677.083333333332,
      "d": 2166.666666666668,
      "v": 82
    },
    {
      "midi": 55,
      "hit": false,
      "t": 17093.75,
      "d": 2333.333333333332,
      "v": 79
    },
    {
      "midi": 67,
      "hit": false,
      "t": 17656.25,
      "d": 937.5,
      "v": 112
    },
    {
      "midi": 64,
      "hit": false,
      "t": 18625,
      "d": 354.1666666666679,
      "v": 97
    },
    {
      "midi": 60,
      "hit": false,
      "t": 19000,
      "d": 812.4999999999964,
      "v": 95
    },
    {
      "midi": 55,
      "hit": false,
      "t": 19572.916666666664,
      "d": 395.8333333333321,
      "v": 79
    },
    {
      "midi": 64,
      "hit": false,
      "t": 19999.999999999996,
      "d": 1770.8333333333358,
      "v": 107
    },
    {
      "midi": 43,
      "hit": false,
      "t": 19999.999999999996,
      "d": 4135.416666666668,
      "v": 94
    },
    {
      "midi": 60,
      "hit": false,
      "t": 20645.833333333332,
      "d": 3000,
      "v": 82
    },
    {
      "midi": 55,
      "hit": false,
      "t": 21000,
      "d": 2739.583333333332,
      "v": 74
    },
    {
      "midi": 65,
      "hit": false,
      "t": 21593.75,
      "d": 968.75,
      "v": 107
    },
    {
      "midi": 64,
      "hit": false,
      "t": 22666.666666666668,
      "d": 927.0833333333321,
      "v": 104
    },
    {
      "midi": 62,
      "hit": false,
      "t": 23468.75,
      "d": 364.5833333333321,
      "v": 95
    },
    {
      "midi": 60,
      "hit": false,
      "t": 23687.5,
      "d": 447.91666666666424,
      "v": 97
    },
    {
      "midi": 64,
      "hit": false,
      "t": 24020.833333333332,
      "d": 1479.1666666666642,
      "v": 112
    },
    {
      "midi": 60,
      "hit": false,
      "t": 24624.999999999996,
      "d": 3177.083333333332,
      "v": 97
    },
    {
      "midi": 55,
      "hit": false,
      "t": 24989.58333333333,
      "d": 2927.083333333332,
      "v": 86
    },
    {
      "midi": 67,
      "hit": false,
      "t": 25614.58333333333,
      "d": 979.1666666666679,
      "v": 118
    },
    {
      "midi": 64,
      "hit": false,
      "t": 26583.33333333333,
      "d": 875,
      "v": 104
    },
    {
      "midi": 64,
      "hit": false,
      "t": 27520.83333333333,
      "d": 1020.8333333333321,
      "v": 114
    },
    {
      "midi": 60,
      "hit": false,
      "t": 28656.249999999993,
      "d": 3302.0833333333358,
      "v": 83
    },
    {
      "midi": 55,
      "hit": false,
      "t": 29020.833333333325,
      "d": 3114.5833333333394,
      "v": 74
    },
    {
      "midi": 65,
      "hit": false,
      "t": 29624.999999999993,
      "d": 1041.6666666666679,
      "v": 118
    },
    {
      "midi": 64,
      "hit": false,
      "t": 30666.66666666666,
      "d": 739.5833333333358,
      "v": 112
    },
    {
      "midi": 62,
      "hit": false,
      "t": 31302.08333333333,
      "d": 375,
      "v": 90
    },
    {
      "midi": 64,
      "hit": false,
      "t": 31989.58333333333,
      "d": 687.5,
      "v": 112
    },
    {
      "midi": 60,
      "hit": false,
      "t": 32656.249999999996,
      "d": 2239.5833333333394,
      "v": 76
    },
    {
      "midi": 55,
      "hit": false,
      "t": 33010.416666666664,
      "d": 2843.75,
      "v": 79
    },
    {
      "midi": 67,
      "hit": false,
      "t": 33593.75,
      "d": 968.75,
      "v": 110
    },
    {
      "midi": 64,
      "hit": false,
      "t": 34625,
      "d": 406.25,
      "v": 81
    },
    {
      "midi": 60,
      "hit": false,
      "t": 35020.833333333336,
      "d": 500,
      "v": 90
    },
    {
      "midi": 65,
      "hit": false,
      "t": 35520.833333333336,
      "d": 1260.4166666666642,
      "v": 118
    },
    {
      "midi": 60,
      "hit": false,
      "t": 36552.083333333336,
      "d": 364.5833333333285,
      "v": 97
    },
    {
      "midi": 55,
      "hit": false,
      "t": 36968.75,
      "d": 760.4166666666642,
      "v": 96
    },
    {
      "midi": 62,
      "hit": false,
      "t": 37999.99999999999,
      "d": 760.4166666666715,
      "v": 99
    },
    {
      "midi": 59,
      "hit": false,
      "t": 38020.83333333333,
      "d": 718.75,
      "v": 100
    },
    {
      "midi": 55,
      "hit": false,
      "t": 38666.666666666664,
      "d": 1187.5,
      "v": 87
    },
    {
      "midi": 65,
      "hit": false,
      "t": 39000,
      "d": 927.0833333333285,
      "v": 100
    },
    {
      "midi": 62,
      "hit": false,
      "t": 39000,
      "d": 937.4999999999927,
      "v": 101
    },
    {
      "midi": 60,
      "hit": false,
      "t": 39958.33333333333,
      "d": 4000,
      "v": 93
    },
    {
      "midi": 64,
      "hit": false,
      "t": 39958.33333333333,
      "d": 4052.0833333333285,
      "v": 93
    },
    {
      "midi": 55,
      "hit": false,
      "t": 39968.74999999999,
      "d": 4000,
      "v": 89
    },
    {
      "midi": 60,
      "hit": false,
      "t": 43999.99999999999,
      "d": 3041.6666666666642,
      "v": 107
    },
    {
      "midi": 69,
      "hit": false,
      "t": 47604.16666666666,
      "d": 302.08333333333576,
      "v": 102
    },
    {
      "midi": 59,
      "hit": false,
      "t": 47927.08333333333,
      "d": 2208.3333333333285,
      "v": 97
    },
    {
      "midi": 67,
      "hit": false,
      "t": 47999.99999999999,
      "d": 2000,
      "v": 98
    },
    {
      "midi": 59,
      "hit": false,
      "t": 50666.66666666666,
      "d": 333.33333333333576,
      "v": 87
    },
    {
      "midi": 69,
      "hit": false,
      "t": 50968.74999999999,
      "d": 1020.8333333333358,
      "v": 96
    },
    {
      "midi": 59,
      "hit": false,
      "t": 51968.74999999999,
      "d": 1072.9166666666715,
      "v": 93
    },
    {
      "midi": 55,
      "hit": false,
      "t": 52947.916666666664,
      "d": 1062.5,
      "v": 102
    },
    {
      "midi": 62,
      "hit": false,
      "t": 53979.166666666664,
      "d": 1083.3333333333285,
      "v": 93
    },
    {
      "midi": 67,
      "hit": false,
      "t": 54989.58333333333,
      "d": 1395.8333333333285,
      "v": 104
    },
    {
      "midi": 62,
      "hit": false,
      "t": 55885.41666666666,
      "d": 2791.6666666666642,
      "v": 85
    },
    {
      "midi": 67,
      "hit": false,
      "t": 58947.91666666666,
      "d": 2843.7500000000073,
      "v": 108
    },
    {
      "midi": 60,
      "hit": false,
      "t": 58968.74999999999,
      "d": 927.0833333333358,
      "v": 112
    },
    {
      "midi": 59,
      "hit": false,
      "t": 59937.49999999999,
      "d": 1802.0833333333358,
      "v": 110
    },
    {
      "midi": 59,
      "hit": false,
      "t": 62000,
      "d": 1916.6666666666642,
      "v": 92
    },
    {
      "midi": 62,
      "hit": false,
      "t": 62010.416666666664,
      "d": 1708.3333333333358,
      "v": 98
    },
    {
      "midi": 67,
      "hit": false,
      "t": 62979.166666666664,
      "d": 2156.25,
      "v": 92
    },
    {
      "midi": 64,
      "hit": false,
      "t": 64010.416666666664,
      "d": 1125,
      "v": 97
    },
    {
      "midi": 60,
      "hit": false,
      "t": 65052.08333333333,
      "d": 1802.0833333333285,
      "v": 94
    },
    {
      "midi": 67,
      "hit": false,
      "t": 67020.83333333333,
      "d": 927.0833333333285,
      "v": 113
    },
    {
      "midi": 64,
      "hit": false,
      "t": 67999.99999999999,
      "d": 1583.3333333333285,
      "v": 110
    },
    {
      "midi": 60,
      "hit": false,
      "t": 69562.49999999999,
      "d": 1041.666666666657,
      "v": 108
    },
    {
      "midi": 60,
      "hit": false,
      "t": 71010.41666666664,
      "d": 854.1666666666715,
      "v": 102
    },
    {
      "midi": 58,
      "hit": false,
      "t": 71958.33333333331,
      "d": 3083.3333333333285,
      "v": 108
    },
    {
      "midi": 64,
      "hit": false,
      "t": 71968.74999999999,
      "d": 2989.5833333333285,
      "v": 107
    },
    {
      "midi": 72,
      "hit": false,
      "t": 75010.41666666664,
      "d": 1020.8333333333285,
      "v": 106
    },
    {
      "midi": 67,
      "hit": false,
      "t": 76083.3333333333,
      "d": 2979.1666666666715,
      "v": 100
    },
    {
      "midi": 64,
      "hit": false,
      "t": 79104.16666666664,
      "d": 3395.833333333343,
      "v": 107
    },
    {
      "midi": 58,
      "hit": false,
      "t": 80864.58333333331,
      "d": 979.1666666666715,
      "v": 107
    },
    {
      "midi": 65,
      "hit": false,
      "t": 81947.91666666666,
      "d": 4500,
      "v": 93
    },
    {
      "midi": 60,
      "hit": false,
      "t": 81968.74999999999,
      "d": 4197.9166666666715,
      "v": 95
    },
    {
      "midi": 69,
      "hit": false,
      "t": 81979.16666666666,
      "d": 4458.3333333333285,
      "v": 93
    },
    {
      "midi": 65,
      "hit": false,
      "t": 86947.91666666666,
      "d": 916.6666666666861,
      "v": 98
    },
    {
      "midi": 64,
      "hit": false,
      "t": 86958.33333333333,
      "d": 906.2500000000146,
      "v": 112
    },
    {
      "midi": 69,
      "hit": false,
      "t": 86968.75,
      "d": 854.1666666666715,
      "v": 93
    },
    {
      "midi": 62,
      "hit": false,
      "t": 87958.33333333334,
      "d": 854.166666666657,
      "v": 109
    },
    {
      "midi": 69,
      "hit": false,
      "t": 87979.16666666667,
      "d": 833.3333333333285,
      "v": 93
    },
    {
      "midi": 65,
      "hit": false,
      "t": 87979.16666666667,
      "d": 885.416666666657,
      "v": 72
    },
    {
      "midi": 65,
      "hit": false,
      "t": 88958.33333333333,
      "d": 895.833333333343,
      "v": 76
    },
    {
      "midi": 69,
      "hit": false,
      "t": 88968.75,
      "d": 760.4166666666715,
      "v": 76
    },
    {
      "midi": 60,
      "hit": false,
      "t": 88979.16666666667,
      "d": 822.9166666666715,
      "v": 107
    },
    {
      "midi": 62,
      "hit": false,
      "t": 89958.33333333334,
      "d": 5708.333333333343,
      "v": 93
    },
    {
      "midi": 59,
      "hit": false,
      "t": 89958.33333333334,
      "d": 5718.750000000015,
      "v": 100
    },
    {
      "midi": 67,
      "hit": false,
      "t": 89968.75000000001,
      "d": 5718.750000000015,
      "v": 89
    },
    {
      "midi": 59,
      "hit": false,
      "t": 95937.50000000003,
      "d": 1895.833333333343,
      "v": 101
    },
    {
      "midi": 67,
      "hit": false,
      "t": 95947.9166666667,
      "d": 1937.5,
      "v": 105
    },
    {
      "midi": 55,
      "hit": false,
      "t": 97927.08333333337,
      "d": 7739.5833333333285,
      "v": 99
    },
    {
      "midi": 64,
      "hit": false,
      "t": 97947.9166666667,
      "d": 8031.25,
      "v": 101
    },
    {
      "midi": 65,
      "hit": false,
      "t": 105927.08333333337,
      "d": 1291.666666666657,
      "v": 100
    },
    {
      "midi": 57,
      "hit": false,
      "t": 105927.08333333337,
      "d": 1343.7499999999854,
      "v": 103
    },
    {
      "midi": 57,
      "hit": false,
      "t": 108614.58333333336,
      "d": 322.9166666666715,
      "v": 107
    },
    {
      "midi": 60,
      "hit": false,
      "t": 108937.50000000003,
      "d": 968.75,
      "v": 103
    },
    {
      "midi": 59,
      "hit": false,
      "t": 109958.33333333336,
      "d": 1197.9166666666715,
      "v": 101
    },
    {
      "midi": 67,
      "hit": false,
      "t": 109968.75000000003,
      "d": 3812.5000000000146,
      "v": 99
    },
    {
      "midi": 55,
      "hit": false,
      "t": 111572.9166666667,
      "d": 947.9166666666715,
      "v": 107
    },
    {
      "midi": 55,
      "hit": false,
      "t": 112614.58333333337,
      "d": 291.6666666666715,
      "v": 112
    },
    {
      "midi": 59,
      "hit": false,
      "t": 113000.00000000004,
      "d": 812.5,
      "v": 104
    },
    {
      "midi": 71,
      "hit": false,
      "t": 123656.25000000004,
      "d": 1916.6666666666715,
      "v": 96
    },
    {
      "midi": 62,
      "hit": false,
      "t": 123666.66666666672,
      "d": 1916.6666666666715,
      "v": 97
    },
    {
      "midi": 74,
      "hit": false,
      "t": 125677.08333333339,
      "d": 1885.4166666666715,
      "v": 97
    },
    {
      "midi": 67,
      "hit": false,
      "t": 125708.33333333339,
      "d": 1791.6666666666715,
      "v": 95
    },
    {
      "midi": 71,
      "hit": false,
      "t": 127635.41666666673,
      "d": 2479.1666666666715,
      "v": 89
    },
    {
      "midi": 79,
      "hit": false,
      "t": 127656.25000000006,
      "d": 2385.4166666666715,
      "v": 89
    },
    {
      "midi": 72,
      "hit": false,
      "t": 139718.75000000006,
      "d": 1739.583333333343,
      "v": 91
    },
    {
      "midi": 64,
      "hit": false,
      "t": 139739.5833333334,
      "d": 1750,
      "v": 93
    },
    {
      "midi": 76,
      "hit": false,
      "t": 141635.41666666674,
      "d": 1947.916666666686,
      "v": 93
    },
    {
      "midi": 67,
      "hit": false,
      "t": 141656.2500000001,
      "d": 1875,
      "v": 93
    },
    {
      "midi": 79,
      "hit": false,
      "t": 143614.58333333343,
      "d": 2281.25,
      "v": 91
    },
    {
      "midi": 72,
      "hit": false,
      "t": 143614.58333333343,
      "d": 2291.666666666657,
      "v": 96
    },
    {
      "midi": 76,
      "hit": false,
      "t": 146052.08333333343,
      "d": 8916.666666666657,
      "v": 93
    },
    {
      "midi": 82,
      "hit": false,
      "t": 146072.91666666677,
      "d": 8822.916666666657,
      "v": 107
    },
    {
      "midi": 72,
      "hit": false,
      "t": 155958.33333333343,
      "d": 4281.25,
      "v": 93
    },
    {
      "midi": 81,
      "hit": false,
      "t": 155968.7500000001,
      "d": 4312.5,
      "v": 107
    },
    {
      "midi": 76,
      "hit": false,
      "t": 161031.2500000001,
      "d": 1000,
      "v": 107
    },
    {
      "midi": 67,
      "hit": false,
      "t": 161062.5000000001,
      "d": 1000,
      "v": 107
    },
    {
      "midi": 74,
      "hit": false,
      "t": 162000.0000000001,
      "d": 1000,
      "v": 107
    },
    {
      "midi": 65,
      "hit": false,
      "t": 162031.2500000001,
      "d": 1000,
      "v": 107
    },
    {
      "midi": 72,
      "hit": false,
      "t": 163000.0000000001,
      "d": 1000,
      "v": 105
    },
    {
      "midi": 64,
      "hit": false,
      "t": 163031.2500000001,
      "d": 1000,
      "v": 105
    },
    {
      "midi": 79,
      "hit": false,
      "t": 163989.58333333343,
      "d": 5145.833333333343,
      "v": 105
    },
    {
      "midi": 67,
      "hit": false,
      "t": 164052.08333333343,
      "d": 5145.833333333343,
      "v": 105
    },
    {
      "midi": 59,
      "hit": false,
      "t": 169635.41666666677,
      "d": 1385.416666666657,
      "v": 122
    },
    {
      "midi": 62,
      "hit": false,
      "t": 171072.91666666677,
      "d": 1041.666666666657,
      "v": 122
    },
    {
      "midi": 79,
      "hit": false,
      "t": 174989.58333333343,
      "d": 1395.833333333343,
      "v": 107
    },
    {
      "midi": 79,
      "hit": false,
      "t": 177041.66666666677,
      "d": 2479.166666666657,
      "v": 119
    },
    {
      "midi": 64,
      "hit": false,
      "t": 180062.5000000001,
      "d": 3697.916666666657,
      "v": 113
    },
    {
      "midi": 72,
      "hit": false,
      "t": 180072.91666666674,
      "d": 3802.083333333343,
      "v": 113
    },
    {
      "midi": 67,
      "hit": false,
      "t": 184031.2500000001,
      "d": 4156.25,
      "v": 107
    },
    {
      "midi": 76,
      "hit": false,
      "t": 184031.2500000001,
      "d": 4270.833333333343,
      "v": 107
    },
    {
      "midi": 74,
      "hit": false,
      "t": 191593.7500000001,
      "d": 1854.166666666657,
      "v": 119
    },
    {
      "midi": 71,
      "hit": false,
      "t": 191604.16666666674,
      "d": 1833.333333333343,
      "v": 107
    },
    {
      "midi": 74,
      "hit": false,
      "t": 193656.2500000001,
      "d": 2437.5,
      "v": 113
    },
    {
      "midi": 79,
      "hit": false,
      "t": 193666.66666666674,
      "d": 2458.333333333343,
      "v": 113
    },
    {
      "midi": 72,
      "hit": false,
      "t": 207666.66666666674,
      "d": 1885.416666666657,
      "v": 107
    },
    {
      "midi": 76,
      "hit": false,
      "t": 207666.66666666674,
      "d": 1906.25,
      "v": 113
    },
    {
      "midi": 79,
      "hit": false,
      "t": 209635.41666666674,
      "d": 2375,
      "v": 113
    },
    {
      "midi": 76,
      "hit": false,
      "t": 209656.2500000001,
      "d": 2218.75,
      "v": 103
    },
    {
      "midi": 55,
      "hit": false,
      "t": 212000,
      "d": 10020.833333333343,
      "v": 1
    },
    {
      "midi": 64,
      "hit": false,
      "t": 212000,
      "d": 10020.833333333343,
      "v": 1
    },
    {
      "midi": 64,
      "hit": false,
      "t": 215708.3333333334,
      "d": 3854.166666666657,
      "v": 119
    },
    {
      "midi": 65,
      "hit": false,
      "t": 221989.58333333334,
      "d": 7989.583333333343,
      "v": 1
    },
    {
      "midi": 65,
      "hit": false,
      "t": 221989.5833333334,
      "d": 5895.833333333343,
      "v": 113
    },
    {
      "midi": 53,
      "hit": false,
      "t": 222052.08333333334,
      "d": 7989.583333333343,
      "v": 1
    },
    {
      "midi": 67,
      "hit": false,
      "t": 242114.5833333334,
      "d": 218.75,
      "v": 116
    },
    {
      "midi": 59,
      "hit": false,
      "t": 242114.5833333334,
      "d": 229.16666666665697,
      "v": 114
    },
    {
      "midi": 67,
      "hit": false,
      "t": 243062.50000000006,
      "d": 1135.416666666657,
      "v": 119
    },
    {
      "midi": 59,
      "hit": false,
      "t": 243093.75000000006,
      "d": 979.166666666657,
      "v": 113
    },
    {
      "midi": 60,
      "hit": false,
      "t": 244104.16666666672,
      "d": 1083.333333333314,
      "v": 107
    },
    {
      "midi": 69,
      "hit": false,
      "t": 244114.58333333337,
      "d": 927.083333333343,
      "v": 127
    },
    {
      "midi": 71,
      "hit": false,
      "t": 245083.33333333337,
      "d": 958.3333333333139,
      "v": 113
    },
    {
      "midi": 62,
      "hit": false,
      "t": 245083.33333333337,
      "d": 1010.416666666657,
      "v": 119
    },
    {
      "midi": 64,
      "hit": false,
      "t": 247083.33333333334,
      "d": 1406.25,
      "v": 1
    },
    {
      "midi": 60,
      "hit": false,
      "t": 248989.58333333334,
      "d": 1239.583333333343,
      "v": 1
    },
    {
      "midi": 67,
      "hit": false,
      "t": 250937.50000000003,
      "d": 6302.083333333343,
      "v": 1
    },
    {
      "midi": 71,
      "hit": false,
      "t": 257718.75000000003,
      "d": 1781.25,
      "v": 107
    },
    {
      "midi": 67,
      "hit": false,
      "t": 257729.1666666667,
      "d": 1645.833333333343,
      "v": 107
    },
    {
      "midi": 67,
      "hit": false,
      "t": 259666.6666666667,
      "d": 1989.583333333314,
      "v": 107
    },
    {
      "midi": 74,
      "hit": false,
      "t": 259677.08333333334,
      "d": 1541.666666666657,
      "v": 119
    },
    {
      "midi": 79,
      "hit": false,
      "t": 261791.66666666666,
      "d": 4354.166666666657,
      "v": 113
    },
    {
      "midi": 71,
      "hit": false,
      "t": 261791.66666666666,
      "d": 4427.083333333343,
      "v": 102
    },
    {
      "midi": 62,
      "hit": false,
      "t": 263041.6666666667,
      "d": 1312.5,
      "v": 1
    },
    {
      "midi": 55,
      "hit": false,
      "t": 264968.75,
      "d": 1270.833333333314,
      "v": 1
    },
    {
      "midi": 67,
      "hit": false,
      "t": 266968.75,
      "d": 6770.833333333314,
      "v": 1
    },
    {
      "midi": 64,
      "hit": false,
      "t": 273677.0833333333,
      "d": 1708.3333333333721,
      "v": 119
    },
    {
      "midi": 72,
      "hit": false,
      "t": 273687.5,
      "d": 1781.25,
      "v": 113
    },
    {
      "midi": 67,
      "hit": false,
      "t": 275635.4166666667,
      "d": 1447.916666666686,
      "v": 98
    },
    {
      "midi": 76,
      "hit": false,
      "t": 275635.4166666667,
      "d": 1447.916666666686,
      "v": 119
    },
    {
      "midi": 69,
      "hit": false,
      "t": 277156.25000000006,
      "d": 937.5,
      "v": 116
    },
    {
      "midi": 77,
      "hit": false,
      "t": 277156.25000000006,
      "d": 937.5,
      "v": 119
    },
    {
      "midi": 55,
      "hit": false,
      "t": 278156.25,
      "d": 10010.416666666686,
      "v": 1
    },
    {
      "midi": 64,
      "hit": false,
      "t": 278166.6666666667,
      "d": 10041.666666666686,
      "v": 1
    },
    {
      "midi": 79,
      "hit": false,
      "t": 278218.75000000006,
      "d": 5000,
      "v": 107
    },
    {
      "midi": 70,
      "hit": false,
      "t": 278218.75000000006,
      "d": 5020.833333333314,
      "v": 105
    },
    {
      "midi": 53,
      "hit": false,
      "t": 288083.3333333334,
      "d": 3885.416666666686,
      "v": 1
    },
    {
      "midi": 65,
      "hit": false,
      "t": 288145.8333333334,
      "d": 4083.333333333372,
      "v": 1
    },
    {
      "midi": 67,
      "hit": false,
      "t": 312197.9166666667,
      "d": 1864.583333333314,
      "v": 113
    },
    {
      "midi": 64,
      "hit": false,
      "t": 312197.9166666667,
      "d": 1906.25,
      "v": 119
    },
    {
      "midi": 64,
      "hit": false,
      "t": 313166.66666666674,
      "d": 1406.25,
      "v": 1
    },
    {
      "midi": 72,
      "hit": false,
      "t": 314239.5833333334,
      "d": 1395.833333333314,
      "v": 113
    },
    {
      "midi": 67,
      "hit": false,
      "t": 314239.5833333334,
      "d": 1875,
      "v": 102
    },
    {
      "midi": 60,
      "hit": false,
      "t": 315072.91666666674,
      "d": 1239.583333333314,
      "v": 1
    },
    {
      "midi": 72,
      "hit": false,
      "t": 316197.9166666667,
      "d": 1812.5,
      "v": 107
    },
    {
      "midi": 76,
      "hit": false,
      "t": 316208.3333333334,
      "d": 1843.75,
      "v": 113
    },
    {
      "midi": 67,
      "hit": false,
      "t": 317020.8333333334,
      "d": 6302.083333333314,
      "v": 1
    },
    {
      "midi": 72,
      "hit": false,
      "t": 318187.50000000006,
      "d": 739.5833333333139,
      "v": 113
    },
    {
      "midi": 76,
      "hit": false,
      "t": 318187.50000000006,
      "d": 833.3333333333139,
      "v": 104
    },
    {
      "midi": 72,
      "hit": false,
      "t": 319156.25000000006,
      "d": 822.9166666666861,
      "v": 107
    },
    {
      "midi": 76,
      "hit": false,
      "t": 319156.25000000006,
      "d": 875,
      "v": 102
    },
    {
      "midi": 74,
      "hit": false,
      "t": 320104.16666666674,
      "d": 1989.583333333314,
      "v": 104
    },
    {
      "midi": 77,
      "hit": false,
      "t": 320125.00000000006,
      "d": 2010.416666666686,
      "v": 102
    },
    {
      "midi": 71,
      "hit": false,
      "t": 322156.25000000006,
      "d": 3854.166666666686,
      "v": 107
    },
    {
      "midi": 67,
      "hit": false,
      "t": 322166.66666666674,
      "d": 3822.916666666686,
      "v": 107
    },
    {
      "midi": 74,
      "hit": false,
      "t": 326218.75000000006,
      "d": 979.1666666666861,
      "v": 119
    },
    {
      "midi": 76,
      "hit": false,
      "t": 327270.83333333343,
      "d": 833.3333333333139,
      "v": 107
    },
    {
      "midi": 77,
      "hit": false,
      "t": 328166.66666666674,
      "d": 958.3333333333139,
      "v": 107
    },
    {
      "midi": 62,
      "hit": false,
      "t": 329125,
      "d": 1312.5,
      "v": 1
    },
    {
      "midi": 76,
      "hit": false,
      "t": 329177.0833333334,
      "d": 906.25,
      "v": 119
    },
    {
      "midi": 77,
      "hit": false,
      "t": 330177.0833333334,
      "d": 947.9166666666861,
      "v": 107
    },
    {
      "midi": 55,
      "hit": false,
      "t": 331052.0833333333,
      "d": 1270.833333333314,
      "v": 1
    },
    {
      "midi": 76,
      "hit": false,
      "t": 331145.8333333334,
      "d": 1000,
      "v": 113
    },
    {
      "midi": 77,
      "hit": false,
      "t": 332187.50000000006,
      "d": 885.4166666666861,
      "v": 98
    },
    {
      "midi": 67,
      "hit": false,
      "t": 333052.0833333333,
      "d": 6770.833333333314,
      "v": 1
    },
    {
      "midi": 67,
      "hit": false,
      "t": 333145.83333333343,
      "d": 1104.1666666666279,
      "v": 113
    },
    {
      "midi": 74,
      "hit": false,
      "t": 334197.91666666674,
      "d": 927.0833333333139,
      "v": 113
    },
    {
      "midi": 77,
      "hit": false,
      "t": 335177.0833333334,
      "d": 927.0833333333139,
      "v": 102
    },
    {
      "midi": 76,
      "hit": false,
      "t": 336177.0833333334,
      "d": 1625,
      "v": 89
    },
    {
      "midi": 72,
      "hit": false,
      "t": 337833.3333333334,
      "d": 4083.333333333314,
      "v": 102
    },
    {
      "midi": 64,
      "hit": false,
      "t": 342218.75,
      "d": 895.8333333333139,
      "v": 127
    },
    {
      "midi": 72,
      "hit": false,
      "t": 342218.75,
      "d": 958.3333333333139,
      "v": 102
    },
    {
      "midi": 74,
      "hit": false,
      "t": 343229.1666666666,
      "d": 958.3333333333139,
      "v": 113
    },
    {
      "midi": 65,
      "hit": false,
      "t": 343249.99999999994,
      "d": 875,
      "v": 107
    },
    {
      "midi": 55,
      "hit": false,
      "t": 344239.5833333333,
      "d": 10010.416666666686,
      "v": 1
    },
    {
      "midi": 64,
      "hit": false,
      "t": 344250,
      "d": 10041.666666666686,
      "v": 1
    },
    {
      "midi": 76,
      "hit": false,
      "t": 344302.08333333326,
      "d": 5000,
      "v": 107
    },
    {
      "midi": 70,
      "hit": false,
      "t": 344302.08333333326,
      "d": 5020.833333333314,
      "v": 105
    },
    {
      "midi": 53,
      "hit": false,
      "t": 354166.6666666667,
      "d": 3885.416666666686,
      "v": 1
    },
    {
      "midi": 65,
      "hit": false,
      "t": 354229.1666666667,
      "d": 4083.333333333372,
      "v": 1
    },
    {
      "midi": 77,
      "hit": false,
      "t": 358239.58333333326,
      "d": 875,
      "v": 113
    },
    {
      "midi": 69,
      "hit": false,
      "t": 358260.41666666657,
      "d": 864.5833333333721,
      "v": 127
    },
    {
      "midi": 76,
      "hit": false,
      "t": 359197.9166666666,
      "d": 906.2500000000582,
      "v": 113
    },
    {
      "midi": 67,
      "hit": false,
      "t": 359208.3333333333,
      "d": 854.1666666666861,
      "v": 119
    },
    {
      "midi": 74,
      "hit": false,
      "t": 360135.4166666667,
      "d": 958.3333333333139,
      "v": 127
    },
    {
      "midi": 65,
      "hit": false,
      "t": 360156.25,
      "d": 927.0833333333139,
      "v": 119
    },
    {
      "midi": 64,
      "hit": false,
      "t": 361166.6666666667,
      "d": 937.4999999999418,
      "v": 127
    },
    {
      "midi": 72,
      "hit": false,
      "t": 361187.5,
      "d": 770.8333333333139,
      "v": 127
    },
    {
      "midi": 62,
      "hit": false,
      "t": 362208.3333333333,
      "d": 3989.583333333314,
      "v": 119
    },
    {
      "midi": 71,
      "hit": false,
      "t": 362250,
      "d": 3833.333333333314,
      "v": 119
    },
    {
      "midi": 74,
      "hit": false,
      "t": 366208.3333333333,
      "d": 4062.5,
      "v": 119
    },
    {
      "midi": 65,
      "hit": false,
      "t": 366218.75,
      "d": 3989.583333333314,
      "v": 113
    },
    {
      "midi": 64,
      "hit": false,
      "t": 370270.8333333333,
      "d": 3812.5,
      "v": 127
    },
    {
      "midi": 72,
      "hit": false,
      "t": 370281.25,
      "d": 3822.916666666628,
      "v": 113
    },
    {
      "midi": 71,
      "hit": false,
      "t": 374218.74999999994,
      "d": 250,
      "v": 98
    },
    {
      "midi": 67,
      "hit": false,
      "t": 374229.1666666666,
      "d": 177.08333333331393,
      "v": 102
    },
    {
      "midi": 71,
      "hit": false,
      "t": 375208.33333333326,
      "d": 895.8333333333139,
      "v": 127
    },
    {
      "midi": 67,
      "hit": false,
      "t": 375208.33333333326,
      "d": 947.9166666666279,
      "v": 127
    },
    {
      "midi": 72,
      "hit": false,
      "t": 376208.3333333332,
      "d": 916.6666666666861,
      "v": 113
    },
    {
      "midi": 69,
      "hit": false,
      "t": 376218.7499999999,
      "d": 875,
      "v": 127
    },
    {
      "midi": 71,
      "hit": false,
      "t": 377218.7499999999,
      "d": 781.25,
      "v": 113
    },
    {
      "midi": 74,
      "hit": false,
      "t": 377229.16666666657,
      "d": 770.8333333333139,
      "v": 119
    },
    {
      "midi": 72,
      "hit": false,
      "t": 378218.7499999999,
      "d": 1947.916666666686,
      "v": 113
    },
    {
      "midi": 76,
      "hit": false,
      "t": 378218.7499999999,
      "d": 1947.916666666686,
      "v": 113
    },
    {
      "midi": 64,
      "hit": false,
      "t": 379250.00000000006,
      "d": 1406.25,
      "v": 1
    },
    {
      "midi": 67,
      "hit": false,
      "t": 380197.91666666657,
      "d": 2041.6666666666279,
      "v": 127
    },
    {
      "midi": 64,
      "hit": false,
      "t": 380218.7499999999,
      "d": 2041.6666666666279,
      "v": 113
    },
    {
      "midi": 60,
      "hit": false,
      "t": 381156.25000000006,
      "d": 1239.583333333314,
      "v": 1
    },
    {
      "midi": 72,
      "hit": false,
      "t": 382218.7499999999,
      "d": 1749.9999999999418,
      "v": 119
    },
    {
      "midi": 76,
      "hit": false,
      "t": 382218.7499999999,
      "d": 1749.9999999999418,
      "v": 119
    },
    {
      "midi": 67,
      "hit": false,
      "t": 383104.1666666667,
      "d": 9020.833333333314,
      "v": 1
    },
    {
      "midi": 69,
      "hit": false,
      "t": 384239.58333333314,
      "d": 739.5833333333721,
      "v": 109
    },
    {
      "midi": 77,
      "hit": false,
      "t": 384249.9999999998,
      "d": 781.25,
      "v": 113
    },
    {
      "midi": 69,
      "hit": false,
      "t": 385229.1666666665,
      "d": 968.75,
      "v": 110
    },
    {
      "midi": 77,
      "hit": false,
      "t": 385239.5833333332,
      "d": 968.75,
      "v": 101
    },
    {
      "midi": 76,
      "hit": false,
      "t": 386249.9999999999,
      "d": 5625,
      "v": 119
    },
    {
      "midi": 67,
      "hit": false,
      "t": 386249.9999999999,
      "d": 5687.5,
      "v": 113
    },
    {
      "midi": 71,
      "hit": false,
      "t": 386260.41666666657,
      "d": 5531.25,
      "v": 113
    }
  ]
}