{
  "jsonPath": "Rock/Country Rock/Emmylou Harris/youre-still-on-my-mind.json",
  "path": "Rock\\Country Rock\\Emmylou Harris\\Youre Still On My Mind.mid",
  "name": "Youre Still On My Mind",
  "difficulty": "Advanced",
  "bpm": 120,
  "notes": [
    {
      "midi": 54,
      "hit": false,
      "t": 2000,
      "d": 500,
      "v": 110
    },
    {
      "midi": 58,
      "hit": false,
      "t": 2333.3333333333335,
      "d": 166.66666666666652,
      "v": 109
    },
    {
      "midi": 61,
      "hit": false,
      "t": 2333.3333333333335,
      "d": 166.66666666666652,
      "v": 109
    },
    {
      "midi": 66,
      "hit": false,
      "t": 2333.3333333333335,
      "d": 166.66666666666652,
      "v": 109
    },
    {
      "midi": 51,
      "hit": false,
      "t": 2500,
      "d": 500,
      "v": 110
    },
    {
      "midi": 58,
      "hit": false,
      "t": 2833.3333333333335,
      "d": 166.66666666666652,
      "v": 110
    },
    {
      "midi": 61,
      "hit": false,
      "t": 2833.3333333333335,
      "d": 166.66666666666652,
      "v": 110
    },
    {
      "midi": 66,
      "hit": false,
      "t": 2833.3333333333335,
      "d": 166.66666666666652,
      "v": 110
    },
    {
      "midi": 49,
      "hit": false,
      "t": 3000,
      "d": 500,
      "v": 110
    },
    {
      "midi": 58,
      "hit": false,
      "t": 3333.3333333333335,
      "d": 166.66666666666652,
      "v": 110
    },
    {
      "midi": 61,
      "hit": false,
      "t": 3333.3333333333335,
      "d": 166.66666666666652,
      "v": 110
    },
    {
      "midi": 66,
      "hit": false,
      "t": 3333.3333333333335,
      "d": 166.66666666666652,
      "v": 110
    },
    {
      "midi": 46,
      "hit": false,
      "t": 3500,
      "d": 500,
      "v": 111
    },
    {
      "midi": 58,
      "hit": false,
      "t": 3833.3333333333335,
      "d": 166.66666666666652,
      "v": 110
    },
    {
      "midi": 61,
      "hit": false,
      "t": 3833.3333333333335,
      "d": 166.66666666666652,
      "v": 110
    },
    {
      "midi": 66,
      "hit": false,
      "t": 3833.3333333333335,
      "d": 166.66666666666652,
      "v": 110
    },
    {
      "midi": 49,
      "hit": false,
      "t": 4000,
      "d": 500,
      "v": 111
    },
    {
      "midi": 56,
      "hit": false,
      "t": 4333.333333333333,
      "d": 166.66666666666697,
      "v": 110
    },
    {
      "midi": 61,
      "hit": false,
      "t": 4333.333333333333,
      "d": 166.66666666666697,
      "v": 110
    },
    {
      "midi": 65,
      "hit": false,
      "t": 4333.333333333333,
      "d": 166.66666666666697,
      "v": 110
    },
    {
      "midi": 53,
      "hit": false,
      "t": 4500,
      "d": 500,
      "v": 111
    },
    {
      "midi": 56,
      "hit": false,
      "t": 4833.333333333333,
      "d": 166.66666666666697,
      "v": 111
    },
    {
      "midi": 61,
      "hit": false,
      "t": 4833.333333333333,
      "d": 166.66666666666697,
      "v": 111
    },
    {
      "midi": 65,
      "hit": false,
      "t": 4833.333333333333,
      "d": 166.66666666666697,
      "v": 111
    },
    {
      "midi": 56,
      "hit": false,
      "t": 5333.333333333333,
      "d": 166.66666666666697,
      "v": 111
    },
    {
      "midi": 61,
      "hit": false,
      "t": 5333.333333333333,
      "d": 166.66666666666697,
      "v": 111
    },
    {
      "midi": 65,
      "hit": false,
      "t": 5333.333333333333,
      "d": 166.66666666666697,
      "v": 111
    },
    {
      "midi": 53,
      "hit": false,
      "t": 5500,
      "d": 500,
      "v": 112
    },
    {
      "midi": 56,
      "hit": false,
      "t": 5833.333333333333,
      "d": 166.66666666666697,
      "v": 111
    },
    {
      "midi": 61,
      "hit": false,
      "t": 5833.333333333333,
      "d": 166.66666666666697,
      "v": 111
    },
    {
      "midi": 65,
      "hit": false,
      "t": 5833.333333333333,
      "d": 166.66666666666697,
      "v": 111
    },
    {
      "midi": 54,
      "hit": false,
      "t": 6000,
      "d": 500,
      "v": 112
    },
    {
      "midi": 58,
      "hit": false,
      "t": 6333.333333333333,
      "d": 166.66666666666697,
      "v": 112
    },
    {
      "midi": 61,
      "hit": false,
      "t": 6333.333333333333,
      "d": 166.66666666666697,
      "v": 112
    },
    {
      "midi": 66,
      "hit": false,
      "t": 6333.333333333333,
      "d": 166.66666666666697,
      "v": 112
    },
    {
      "midi": 51,
      "hit": false,
      "t": 6500,
      "d": 500,
      "v": 112
    },
    {
      "midi": 58,
      "hit": false,
      "t": 6833.333333333333,
      "d": 166.66666666666697,
      "v": 112
    },
    {
      "midi": 61,
      "hit": false,
      "t": 6833.333333333333,
      "d": 166.66666666666697,
      "v": 112
    },
    {
      "midi": 66,
      "hit": false,
      "t": 6833.333333333333,
      "d": 166.66666666666697,
      "v": 112
    },
    {
      "midi": 49,
      "hit": false,
      "t": 7000,
      "d": 500,
      "v": 113
    },
    {
      "midi": 58,
      "hit": false,
      "t": 7333.333333333333,
      "d": 166.66666666666697,
      "v": 112
    },
    {
      "midi": 61,
      "hit": false,
      "t": 7333.333333333333,
      "d": 166.66666666666697,
      "v": 112
    },
    {
      "midi": 66,
      "hit": false,
      "t": 7333.333333333333,
      "d": 166.66666666666697,
      "v": 112
    },
    {
      "midi": 46,
      "hit": false,
      "t": 7500,
      "d": 500,
      "v": 113
    },
    {
      "midi": 58,
      "hit": false,
      "t": 7833.333333333333,
      "d": 166.66666666666697,
      "v": 112
    },
    {
      "midi": 61,
      "hit": false,
      "t": 7833.333333333333,
      "d": 166.66666666666697,
      "v": 112
    },
    {
      "midi": 66,
      "hit": false,
      "t": 7833.333333333333,
      "d": 166.66666666666697,
      "v": 112
    },
    {
      "midi": 42,
      "hit": false,
      "t": 8000,
      "d": 500,
      "v": 113
    },
    {
      "midi": 58,
      "hit": false,
      "t": 8333.333333333334,
      "d": 166.66666666666606,
      "v": 113
    },
    {
      "midi": 61,
      "hit": false,
      "t": 8333.333333333334,
      "d": 166.66666666666606,
      "v": 113
    },
    {
      "midi": 66,
      "hit": false,
      "t": 8333.333333333334,
      "d": 166.66666666666606,
      "v": 113
    },
    {
      "midi": 37,
      "hit": false,
      "t": 8500,
      "d": 500,
      "v": 94
    },
    {
      "midi": 58,
      "hit": false,
      "t": 8833.333333333334,
      "d": 166.66666666666606,
      "v": 113
    },
    {
      "midi": 61,
      "hit": false,
      "t": 8833.333333333334,
      "d": 166.66666666666606,
      "v": 113
    },
    {
      "midi": 66,
      "hit": false,
      "t": 8833.333333333334,
      "d": 166.66666666666606,
      "v": 113
    },
    {
      "midi": 68,
      "hit": false,
      "t": 9000,
      "d": 166.66666666666606,
      "v": 101
    },
    {
      "midi": 73,
      "hit": false,
      "t": 9000,
      "d": 999.9999999999982,
      "v": 112
    },
    {
      "midi": 39,
      "hit": false,
      "t": 9000,
      "d": 500,
      "v": 97
    },
    {
      "midi": 70,
      "hit": false,
      "t": 9166.666666666666,
      "d": 666.6666666666661,
      "v": 68
    },
    {
      "midi": 58,
      "hit": false,
      "t": 9333.333333333334,
      "d": 166.66666666666606,
      "v": 113
    },
    {
      "midi": 61,
      "hit": false,
      "t": 9333.333333333334,
      "d": 166.66666666666606,
      "v": 113
    },
    {
      "midi": 66,
      "hit": false,
      "t": 9333.333333333334,
      "d": 166.66666666666606,
      "v": 113
    },
    {
      "midi": 41,
      "hit": false,
      "t": 9500,
      "d": 500,
      "v": 104
    },
    {
      "midi": 68,
      "hit": false,
      "t": 9833.333333333332,
      "d": 166.66666666666606,
      "v": 117
    },
    {
      "midi": 58,
      "hit": false,
      "t": 9833.333333333334,
      "d": 166.66666666666606,
      "v": 113
    },
    {
      "midi": 61,
      "hit": false,
      "t": 9833.333333333334,
      "d": 166.66666666666606,
      "v": 113
    },
    {
      "midi": 66,
      "hit": false,
      "t": 9833.333333333334,
      "d": 166.66666666666606,
      "v": 113
    },
    {
      "midi": 73,
      "hit": false,
      "t": 9999.999999999998,
      "d": 329.16666666666606,
      "v": 85
    },
    {
      "midi": 66,
      "hit": false,
      "t": 9999.999999999998,
      "d": 333.3333333333321,
      "v": 105
    },
    {
      "midi": 42,
      "hit": false,
      "t": 10000,
      "d": 500,
      "v": 97
    },
    {
      "midi": 61,
      "hit": false,
      "t": 10333.33333333333,
      "d": 2166.666666666666,
      "v": 115
    },
    {
      "midi": 66,
      "hit": false,
      "t": 10333.33333333333,
      "d": 2166.666666666666,
      "v": 104
    },
    {
      "midi": 58,
      "hit": false,
      "t": 10333.333333333334,
      "d": 166.66666666666606,
      "v": 97
    },
    {
      "midi": 61,
      "hit": false,
      "t": 10333.333333333334,
      "d": 166.66666666666606,
      "v": 97
    },
    {
      "midi": 66,
      "hit": false,
      "t": 10333.333333333334,
      "d": 166.66666666666606,
      "v": 97
    },
    {
      "midi": 46,
      "hit": false,
      "t": 10500,
      "d": 500,
      "v": 97
    },
    {
      "midi": 58,
      "hit": false,
      "t": 10833.333333333334,
      "d": 166.66666666666606,
      "v": 97
    },
    {
      "midi": 61,
      "hit": false,
      "t": 10833.333333333334,
      "d": 166.66666666666606,
      "v": 97
    },
    {
      "midi": 66,
      "hit": false,
      "t": 10833.333333333334,
      "d": 166.66666666666606,
      "v": 97
    },
    {
      "midi": 49,
      "hit": false,
      "t": 11000,
      "d": 500,
      "v": 97
    },
    {
      "midi": 58,
      "hit": false,
      "t": 11333.333333333334,
      "d": 166.66666666666606,
      "v": 97
    },
    {
      "midi": 61,
      "hit": false,
      "t": 11333.333333333334,
      "d": 166.66666666666606,
      "v": 97
    },
    {
      "midi": 66,
      "hit": false,
      "t": 11333.333333333334,
      "d": 166.66666666666606,
      "v": 97
    },
    {
      "midi": 46,
      "hit": false,
      "t": 11500,
      "d": 500,
      "v": 97
    },
    {
      "midi": 58,
      "hit": false,
      "t": 11833.333333333334,
      "d": 166.66666666666606,
      "v": 97
    },
    {
      "midi": 61,
      "hit": false,
      "t": 11833.333333333334,
      "d": 166.66666666666606,
      "v": 97
    },
    {
      "midi": 66,
      "hit": false,
      "t": 11833.333333333334,
      "d": 166.66666666666606,
      "v": 97
    },
    {
      "midi": 42,
      "hit": false,
      "t": 12000,
      "d": 500,
      "v": 98
    },
    {
      "midi": 58,
      "hit": false,
      "t": 12333.333333333334,
      "d": 166.66666666666606,
      "v": 98
    },
    {
      "midi": 61,
      "hit": false,
      "t": 12333.333333333334,
      "d": 166.66666666666606,
      "v": 98
    },
    {
      "midi": 66,
      "hit": false,
      "t": 12333.333333333334,
      "d": 166.66666666666606,
      "v": 98
    },
    {
      "midi": 46,
      "hit": false,
      "t": 12500,
      "d": 500,
      "v": 98
    },
    {
      "midi": 58,
      "hit": false,
      "t": 12833.333333333334,
      "d": 166.66666666666606,
      "v": 98
    },
    {
      "midi": 61,
      "hit": false,
      "t": 12833.333333333334,
      "d": 166.66666666666606,
      "v": 98
    },
    {
      "midi": 66,
      "hit": false,
      "t": 12833.333333333334,
      "d": 166.66666666666606,
      "v": 98
    },
    {
      "midi": 70,
      "hit": false,
      "t": 12999.999999999996,
      "d": 166.66666666666606,
      "v": 117
    },
    {
      "midi": 75,
      "hit": false,
      "t": 12999.999999999996,
      "d": 170.83333333333212,
      "v": 107
    },
    {
      "midi": 49,
      "hit": false,
      "t": 13000,
      "d": 500,
      "v": 98
    },
    {
      "midi": 71,
      "hit": false,
      "t": 13166.666666666662,
      "d": 145.83333333333212,
      "v": 103
    },
    {
      "midi": 58,
      "hit": false,
      "t": 13333.333333333334,
      "d": 166.66666666666606,
      "v": 98
    },
    {
      "midi": 61,
      "hit": false,
      "t": 13333.333333333334,
      "d": 166.66666666666606,
      "v": 98
    },
    {
      "midi": 66,
      "hit": false,
      "t": 13333.333333333334,
      "d": 166.66666666666606,
      "v": 98
    },
    {
      "midi": 46,
      "hit": false,
      "t": 13500,
      "d": 500,
      "v": 98
    },
    {
      "midi": 70,
      "hit": false,
      "t": 13549.999999999995,
      "d": 137.5,
      "v": 105
    },
    {
      "midi": 58,
      "hit": false,
      "t": 13833.333333333334,
      "d": 166.66666666666606,
      "v": 98
    },
    {
      "midi": 61,
      "hit": false,
      "t": 13833.333333333334,
      "d": 166.66666666666606,
      "v": 98
    },
    {
      "midi": 66,
      "hit": false,
      "t": 13833.333333333334,
      "d": 166.66666666666606,
      "v": 98
    },
    {
      "midi": 68,
      "hit": false,
      "t": 13858.333333333328,
      "d": 2241.666666666666,
      "v": 110
    },
    {
      "midi": 71,
      "hit": false,
      "t": 13858.333333333328,
      "d": 2241.666666666666,
      "v": 101
    },
    {
      "midi": 44,
      "hit": false,
      "t": 14000,
      "d": 500,
      "v": 99
    },
    {
      "midi": 59,
      "hit": false,
      "t": 14333.333333333334,
      "d": 166.66666666666606,
      "v": 99
    },
    {
      "midi": 63,
      "hit": false,
      "t": 14333.333333333334,
      "d": 166.66666666666606,
      "v": 99
    },
    {
      "midi": 68,
      "hit": false,
      "t": 14333.333333333334,
      "d": 166.66666666666606,
      "v": 99
    },
    {
      "midi": 47,
      "hit": false,
      "t": 14500,
      "d": 500,
      "v": 99
    },
    {
      "midi": 59,
      "hit": false,
      "t": 14833.333333333334,
      "d": 166.66666666666606,
      "v": 99
    },
    {
      "midi": 63,
      "hit": false,
      "t": 14833.333333333334,
      "d": 166.66666666666606,
      "v": 99
    },
    {
      "midi": 68,
      "hit": false,
      "t": 14833.333333333334,
      "d": 166.66666666666606,
      "v": 99
    },
    {
      "midi": 51,
      "hit": false,
      "t": 15000,
      "d": 500,
      "v": 99
    },
    {
      "midi": 59,
      "hit": false,
      "t": 15333.333333333334,
      "d": 166.66666666666606,
      "v": 99
    },
    {
      "midi": 63,
      "hit": false,
      "t": 15333.333333333334,
      "d": 166.66666666666606,
      "v": 99
    },
    {
      "midi": 68,
      "hit": false,
      "t": 15333.333333333334,
      "d": 166.66666666666606,
      "v": 99
    },
    {
      "midi": 47,
      "hit": false,
      "t": 15500,
      "d": 500,
      "v": 100
    },
    {
      "midi": 59,
      "hit": false,
      "t": 15833.333333333334,
      "d": 166.66666666666606,
      "v": 99
    },
    {
      "midi": 63,
      "hit": false,
      "t": 15833.333333333334,
      "d": 166.66666666666606,
      "v": 99
    },
    {
      "midi": 68,
      "hit": false,
      "t": 15833.333333333334,
      "d": 166.66666666666606,
      "v": 99
    },
    {
      "midi": 44,
      "hit": false,
      "t": 16000,
      "d": 500,
      "v": 100
    },
    {
      "midi": 59,
      "hit": false,
      "t": 16333.333333333334,
      "d": 166.66666666666606,
      "v": 100
    },
    {
      "midi": 63,
      "hit": false,
      "t": 16333.333333333334,
      "d": 166.66666666666606,
      "v": 100
    },
    {
      "midi": 68,
      "hit": false,
      "t": 16333.333333333334,
      "d": 166.66666666666606,
      "v": 100
    },
    {
      "midi": 47,
      "hit": false,
      "t": 16500,
      "d": 500,
      "v": 100
    },
    {
      "midi": 59,
      "hit": false,
      "t": 16833.333333333332,
      "d": 166.66666666666788,
      "v": 100
    },
    {
      "midi": 63,
      "hit": false,
      "t": 16833.333333333332,
      "d": 166.66666666666788,
      "v": 100
    },
    {
      "midi": 68,
      "hit": false,
      "t": 16833.333333333332,
      "d": 166.66666666666788,
      "v": 100
    },
    {
      "midi": 51,
      "hit": false,
      "t": 17000,
      "d": 500,
      "v": 100
    },
    {
      "midi": 66,
      "hit": false,
      "t": 17020.83333333333,
      "d": 187.50000000000364,
      "v": 104
    },
    {
      "midi": 71,
      "hit": false,
      "t": 17024.999999999996,
      "d": 675.0000000000036,
      "v": 101
    },
    {
      "midi": 68,
      "hit": false,
      "t": 17179.166666666664,
      "d": 504.1666666666679,
      "v": 72
    },
    {
      "midi": 59,
      "hit": false,
      "t": 17333.333333333332,
      "d": 166.66666666666788,
      "v": 100
    },
    {
      "midi": 63,
      "hit": false,
      "t": 17333.333333333332,
      "d": 166.66666666666788,
      "v": 100
    },
    {
      "midi": 68,
      "hit": false,
      "t": 17333.333333333332,
      "d": 166.66666666666788,
      "v": 100
    },
    {
      "midi": 47,
      "hit": false,
      "t": 17500,
      "d": 500,
      "v": 101
    },
    {
      "midi": 66,
      "hit": false,
      "t": 17762.5,
      "d": 120.83333333333576,
      "v": 99
    },
    {
      "midi": 71,
      "hit": false,
      "t": 17766.666666666668,
      "d": 112.5,
      "v": 93
    },
    {
      "midi": 59,
      "hit": false,
      "t": 17833.333333333332,
      "d": 166.66666666666788,
      "v": 101
    },
    {
      "midi": 63,
      "hit": false,
      "t": 17833.333333333332,
      "d": 166.66666666666788,
      "v": 101
    },
    {
      "midi": 68,
      "hit": false,
      "t": 17833.333333333332,
      "d": 166.66666666666788,
      "v": 101
    },
    {
      "midi": 63,
      "hit": false,
      "t": 18000,
      "d": 95.83333333333576,
      "v": 98
    },
    {
      "midi": 37,
      "hit": false,
      "t": 18000,
      "d": 500,
      "v": 101
    },
    {
      "midi": 68,
      "hit": false,
      "t": 18004.166666666668,
      "d": 237.5,
      "v": 104
    },
    {
      "midi": 65,
      "hit": false,
      "t": 18091.666666666668,
      "d": 141.66666666666788,
      "v": 93
    },
    {
      "midi": 68,
      "hit": false,
      "t": 18295.833333333336,
      "d": 1341.6666666666679,
      "v": 99
    },
    {
      "midi": 61,
      "hit": false,
      "t": 18300.000000000004,
      "d": 1287.5,
      "v": 105
    },
    {
      "midi": 61,
      "hit": false,
      "t": 18333.333333333332,
      "d": 166.66666666666788,
      "v": 101
    },
    {
      "midi": 65,
      "hit": false,
      "t": 18333.333333333332,
      "d": 166.66666666666788,
      "v": 101
    },
    {
      "midi": 68,
      "hit": false,
      "t": 18333.333333333332,
      "d": 166.66666666666788,
      "v": 101
    },
    {
      "midi": 41,
      "hit": false,
      "t": 18500,
      "d": 500,
      "v": 101
    },
    {
      "midi": 61,
      "hit": false,
      "t": 18833.333333333332,
      "d": 166.66666666666788,
      "v": 101
    },
    {
      "midi": 65,
      "hit": false,
      "t": 18833.333333333332,
      "d": 166.66666666666788,
      "v": 101
    },
    {
      "midi": 68,
      "hit": false,
      "t": 18833.333333333332,
      "d": 166.66666666666788,
      "v": 101
    },
    {
      "midi": 44,
      "hit": false,
      "t": 19000,
      "d": 500,
      "v": 102
    },
    {
      "midi": 61,
      "hit": false,
      "t": 19333.333333333332,
      "d": 166.66666666666788,
      "v": 101
    },
    {
      "midi": 65,
      "hit": false,
      "t": 19333.333333333332,
      "d": 166.66666666666788,
      "v": 101
    },
    {
      "midi": 68,
      "hit": false,
      "t": 19333.333333333332,
      "d": 166.66666666666788,
      "v": 101
    },
    {
      "midi": 46,
      "hit": false,
      "t": 19500,
      "d": 500,
      "v": 102
    },
    {
      "midi": 61,
      "hit": false,
      "t": 19833.333333333332,
      "d": 166.66666666666788,
      "v": 102
    },
    {
      "midi": 65,
      "hit": false,
      "t": 19833.333333333332,
      "d": 166.66666666666788,
      "v": 102
    },
    {
      "midi": 68,
      "hit": false,
      "t": 19833.333333333332,
      "d": 166.66666666666788,
      "v": 102
    },
    {
      "midi": 49,
      "hit": false,
      "t": 20000,
      "d": 166.66666666666788,
      "v": 102
    },
    {
      "midi": 49,
      "hit": false,
      "t": 20333.333333333336,
      "d": 166.66666666666788,
      "v": 102
    },
    {
      "midi": 61,
      "hit": false,
      "t": 20333.333333333336,
      "d": 166.66666666666788,
      "v": 102
    },
    {
      "midi": 65,
      "hit": false,
      "t": 20333.333333333336,
      "d": 166.66666666666788,
      "v": 102
    },
    {
      "midi": 68,
      "hit": false,
      "t": 20333.333333333336,
      "d": 166.66666666666788,
      "v": 102
    },
    {
      "midi": 61,
      "hit": false,
      "t": 20350.000000000004,
      "d": 379.1666666666679,
      "v": 89
    },
    {
      "midi": 47,
      "hit": false,
      "t": 20500.000000000004,
      "d": 500,
      "v": 102
    },
    {
      "midi": 61,
      "hit": false,
      "t": 20833.333333333336,
      "d": 166.66666666666788,
      "v": 102
    },
    {
      "midi": 65,
      "hit": false,
      "t": 20833.333333333336,
      "d": 166.66666666666788,
      "v": 102
    },
    {
      "midi": 68,
      "hit": false,
      "t": 20833.333333333336,
      "d": 166.66666666666788,
      "v": 102
    },
    {
      "midi": 61,
      "hit": false,
      "t": 20858.33333333334,
      "d": 120.83333333333212,
      "v": 117
    },
    {
      "midi": 46,
      "hit": false,
      "t": 21000.000000000004,
      "d": 500,
      "v": 103
    },
    {
      "midi": 73,
      "hit": false,
      "t": 21041.66666666667,
      "d": 395.8333333333321,
      "v": 127
    },
    {
      "midi": 68,
      "hit": false,
      "t": 21050.000000000004,
      "d": 150,
      "v": 117
    },
    {
      "midi": 70,
      "hit": false,
      "t": 21179.16666666667,
      "d": 241.66666666666424,
      "v": 64
    },
    {
      "midi": 61,
      "hit": false,
      "t": 21333.333333333336,
      "d": 166.66666666666788,
      "v": 102
    },
    {
      "midi": 65,
      "hit": false,
      "t": 21333.333333333336,
      "d": 166.66666666666788,
      "v": 102
    },
    {
      "midi": 68,
      "hit": false,
      "t": 21333.333333333336,
      "d": 166.66666666666788,
      "v": 102
    },
    {
      "midi": 66,
      "hit": false,
      "t": 21387.500000000004,
      "d": 100,
      "v": 93
    },
    {
      "midi": 44,
      "hit": false,
      "t": 21500.000000000004,
      "d": 500,
      "v": 103
    },
    {
      "midi": 68,
      "hit": false,
      "t": 21545.833333333336,
      "d": 229.16666666666424,
      "v": 107
    },
    {
      "midi": 73,
      "hit": false,
      "t": 21545.833333333336,
      "d": 237.49999999999636,
      "v": 127
    },
    {
      "midi": 61,
      "hit": false,
      "t": 21833.333333333336,
      "d": 166.66666666666788,
      "v": 103
    },
    {
      "midi": 65,
      "hit": false,
      "t": 21833.333333333336,
      "d": 166.66666666666788,
      "v": 103
    },
    {
      "midi": 68,
      "hit": false,
      "t": 21833.333333333336,
      "d": 166.66666666666788,
      "v": 103
    },
    {
      "midi": 73,
      "hit": false,
      "t": 21875,
      "d": 920.8333333333358,
      "v": 117
    },
    {
      "midi": 66,
      "hit": false,
      "t": 21875,
      "d": 941.6666666666679,
      "v": 119
    },
    {
      "midi": 42,
      "hit": false,
      "t": 22000.000000000004,
      "d": 500,
      "v": 103
    },
    {
      "midi": 58,
      "hit": false,
      "t": 22333.333333333336,
      "d": 166.66666666666788,
      "v": 103
    },
    {
      "midi": 61,
      "hit": false,
      "t": 22333.333333333336,
      "d": 166.66666666666788,
      "v": 103
    },
    {
      "midi": 66,
      "hit": false,
      "t": 22333.333333333336,
      "d": 166.66666666666788,
      "v": 103
    },
    {
      "midi": 39,
      "hit": false,
      "t": 22500.000000000004,
      "d": 500,
      "v": 103
    },
    {
      "midi": 58,
      "hit": false,
      "t": 22833.333333333336,
      "d": 166.66666666666788,
      "v": 103
    },
    {
      "midi": 61,
      "hit": false,
      "t": 22833.333333333336,
      "d": 166.66666666666788,
      "v": 103
    },
    {
      "midi": 66,
      "hit": false,
      "t": 22833.333333333336,
      "d": 166.66666666666788,
      "v": 103
    },
    {
      "midi": 37,
      "hit": false,
      "t": 23000.000000000004,
      "d": 500,
      "v": 104
    },
    {
      "midi": 61,
      "hit": false,
      "t": 23329.166666666668,
      "d": 212.50000000000364,
      "v": 104
    },
    {
      "midi": 66,
      "hit": false,
      "t": 23333.333333333336,
      "d": 237.50000000000364,
      "v": 110
    },
    {
      "midi": 58,
      "hit": false,
      "t": 23333.333333333336,
      "d": 166.66666666666788,
      "v": 103
    },
    {
      "midi": 61,
      "hit": false,
      "t": 23333.333333333336,
      "d": 166.66666666666788,
      "v": 103
    },
    {
      "midi": 66,
      "hit": false,
      "t": 23333.333333333336,
      "d": 166.66666666666788,
      "v": 103
    },
    {
      "midi": 34,
      "hit": false,
      "t": 23500.000000000004,
      "d": 500,
      "v": 104
    },
    {
      "midi": 59,
      "hit": false,
      "t": 23504.16666666667,
      "d": 350.00000000000364,
      "v": 82
    },
    {
      "midi": 58,
      "hit": false,
      "t": 23833.333333333336,
      "d": 166.66666666666788,
      "v": 104
    },
    {
      "midi": 61,
      "hit": false,
      "t": 23833.333333333336,
      "d": 166.66666666666788,
      "v": 104
    },
    {
      "midi": 66,
      "hit": false,
      "t": 23833.333333333336,
      "d": 166.66666666666788,
      "v": 104
    },
    {
      "midi": 57,
      "hit": false,
      "t": 23837.500000000007,
      "d": 158.33333333333576,
      "v": 71
    },
    {
      "midi": 30,
      "hit": false,
      "t": 24000.000000000004,
      "d": 500,
      "v": 104
    },
    {
      "midi": 58,
      "hit": false,
      "t": 24016.666666666675,
      "d": 350,
      "v": 115
    },
    {
      "midi": 58,
      "hit": false,
      "t": 24333.333333333336,
      "d": 166.66666666666788,
      "v": 104
    },
    {
      "midi": 61,
      "hit": false,
      "t": 24333.333333333336,
      "d": 166.66666666666788,
      "v": 104
    },
    {
      "midi": 66,
      "hit": false,
      "t": 24333.333333333336,
      "d": 166.66666666666788,
      "v": 104
    },
    {
      "midi": 66,
      "hit": false,
      "t": 24358.333333333343,
      "d": 200,
      "v": 119
    },
    {
      "midi": 49,
      "hit": false,
      "t": 24500.000000000004,
      "d": 500,
      "v": 105
    },
    {
      "midi": 58,
      "hit": false,
      "t": 24833.333333333336,
      "d": 166.66666666666788,
      "v": 104
    },
    {
      "midi": 61,
      "hit": false,
      "t": 24833.333333333336,
      "d": 166.66666666666788,
      "v": 104
    },
    {
      "midi": 66,
      "hit": false,
      "t": 24833.333333333336,
      "d": 166.66666666666788,
      "v": 104
    },
    {
      "midi": 61,
      "hit": false,
      "t": 24850.00000000001,
      "d": 129.16666666666788,
      "v": 99
    },
    {
      "midi": 51,
      "hit": false,
      "t": 25000.000000000004,
      "d": 500,
      "v": 105
    },
    {
      "midi": 73,
      "hit": false,
      "t": 25016.66666666668,
      "d": 550.0000000000036,
      "v": 127
    },
    {
      "midi": 68,
      "hit": false,
      "t": 25020.833333333347,
      "d": 170.83333333333576,
      "v": 119
    },
    {
      "midi": 70,
      "hit": false,
      "t": 25162.500000000015,
      "d": 420.83333333333576,
      "v": 85
    },
    {
      "midi": 58,
      "hit": false,
      "t": 25333.333333333336,
      "d": 166.66666666666788,
      "v": 105
    },
    {
      "midi": 61,
      "hit": false,
      "t": 25333.333333333336,
      "d": 166.66666666666788,
      "v": 105
    },
    {
      "midi": 66,
      "hit": false,
      "t": 25333.333333333336,
      "d": 166.66666666666788,
      "v": 105
    },
    {
      "midi": 53,
      "hit": false,
      "t": 25500.000000000004,
      "d": 500,
      "v": 105
    },
    {
      "midi": 68,
      "hit": false,
      "t": 25704.166666666682,
      "d": 154.16666666666788,
      "v": 104
    },
    {
      "midi": 73,
      "hit": false,
      "t": 25708.33333333335,
      "d": 191.66666666666788,
      "v": 117
    },
    {
      "midi": 58,
      "hit": false,
      "t": 25833.333333333336,
      "d": 166.66666666666788,
      "v": 105
    },
    {
      "midi": 61,
      "hit": false,
      "t": 25833.333333333336,
      "d": 166.66666666666788,
      "v": 105
    },
    {
      "midi": 66,
      "hit": false,
      "t": 25833.333333333336,
      "d": 166.66666666666788,
      "v": 105
    },
    {
      "midi": 54,
      "hit": false,
      "t": 26000.000000000004,
      "d": 500,
      "v": 105
    },
    {
      "midi": 73,
      "hit": false,
      "t": 26041.666666666686,
      "d": 145.83333333333576,
      "v": 107
    },
    {
      "midi": 66,
      "hit": false,
      "t": 26045.833333333354,
      "d": 158.33333333333576,
      "v": 107
    },
    {
      "midi": 58,
      "hit": false,
      "t": 26333.333333333336,
      "d": 166.66666666666788,
      "v": 105
    },
    {
      "midi": 61,
      "hit": false,
      "t": 26333.333333333336,
      "d": 166.66666666666788,
      "v": 105
    },
    {
      "midi": 66,
      "hit": false,
      "t": 26333.333333333336,
      "d": 166.66666666666788,
      "v": 105
    },
    {
      "midi": 61,
      "hit": false,
      "t": 26354.16666666669,
      "d": 1108.3333333333321,
      "v": 110
    },
    {
      "midi": 66,
      "hit": false,
      "t": 26358.333333333358,
      "d": 1124.9999999999964,
      "v": 112
    },
    {
      "midi": 51,
      "hit": false,
      "t": 26500.000000000004,
      "d": 500,
      "v": 106
    },
    {
      "midi": 58,
      "hit": false,
      "t": 26833.333333333336,
      "d": 166.66666666666788,
      "v": 105
    },
    {
      "midi": 61,
      "hit": false,
      "t": 26833.333333333336,
      "d": 166.66666666666788,
      "v": 105
    },
    {
      "midi": 66,
      "hit": false,
      "t": 26833.333333333336,
      "d": 166.66666666666788,
      "v": 105
    },
    {
      "midi": 49,
      "hit": false,
      "t": 27000.000000000004,
      "d": 500,
      "v": 106
    },
    {
      "midi": 58,
      "hit": false,
      "t": 27333.333333333336,
      "d": 166.66666666666788,
      "v": 106
    },
    {
      "midi": 61,
      "hit": false,
      "t": 27333.333333333336,
      "d": 166.66666666666788,
      "v": 106
    },
    {
      "midi": 66,
      "hit": false,
      "t": 27333.333333333336,
      "d": 166.66666666666788,
      "v": 106
    },
    {
      "midi": 46,
      "hit": false,
      "t": 27500.000000000004,
      "d": 500,
      "v": 106
    },
    {
      "midi": 58,
      "hit": false,
      "t": 27833.333333333336,
      "d": 166.66666666666788,
      "v": 106
    },
    {
      "midi": 61,
      "hit": false,
      "t": 27833.333333333336,
      "d": 166.66666666666788,
      "v": 106
    },
    {
      "midi": 66,
      "hit": false,
      "t": 27833.333333333336,
      "d": 166.66666666666788,
      "v": 106
    },
    {
      "midi": 42,
      "hit": false,
      "t": 28000.000000000004,
      "d": 495.8333333333321,
      "v": 107
    },
    {
      "midi": 58,
      "hit": false,
      "t": 28333.333333333336,
      "d": 166.66666666666788,
      "v": 106
    },
    {
      "midi": 61,
      "hit": false,
      "t": 28333.333333333336,
      "d": 166.66666666666788,
      "v": 106
    },
    {
      "midi": 66,
      "hit": false,
      "t": 28333.333333333336,
      "d": 166.66666666666788,
      "v": 106
    },
    {
      "midi": 61,
      "hit": false,
      "t": 28354.166666666686,
      "d": 162.5,
      "v": 94
    },
    {
      "midi": 42,
      "hit": false,
      "t": 28500.000000000004,
      "d": 500,
      "v": 107
    },
    {
      "midi": 66,
      "hit": false,
      "t": 28520.833333333354,
      "d": 200.00000000000364,
      "v": 119
    },
    {
      "midi": 73,
      "hit": false,
      "t": 28525.000000000022,
      "d": 195.83333333333576,
      "v": 123
    },
    {
      "midi": 58,
      "hit": false,
      "t": 28833.333333333336,
      "d": 166.66666666666788,
      "v": 106
    },
    {
      "midi": 61,
      "hit": false,
      "t": 28833.333333333336,
      "d": 166.66666666666788,
      "v": 106
    },
    {
      "midi": 66,
      "hit": false,
      "t": 28833.333333333336,
      "d": 166.66666666666788,
      "v": 106
    },
    {
      "midi": 66,
      "hit": false,
      "t": 28833.333333333358,
      "d": 125,
      "v": 112
    },
    {
      "midi": 73,
      "hit": false,
      "t": 28833.333333333358,
      "d": 145.83333333333212,
      "v": 119
    },
    {
      "midi": 44,
      "hit": false,
      "t": 29000.000000000004,
      "d": 500,
      "v": 107
    },
    {
      "midi": 68,
      "hit": false,
      "t": 29033.333333333358,
      "d": 225,
      "v": 105
    },
    {
      "midi": 73,
      "hit": false,
      "t": 29033.333333333358,
      "d": 225,
      "v": 105
    },
    {
      "midi": 58,
      "hit": false,
      "t": 29333.333333333336,
      "d": 166.66666666666788,
      "v": 107
    },
    {
      "midi": 61,
      "hit": false,
      "t": 29333.333333333336,
      "d": 166.66666666666788,
      "v": 107
    },
    {
      "midi": 66,
      "hit": false,
      "t": 29333.333333333336,
      "d": 166.66666666666788,
      "v": 107
    },
    {
      "midi": 68,
      "hit": false,
      "t": 29341.66666666669,
      "d": 208.33333333333212,
      "v": 105
    },
    {
      "midi": 73,
      "hit": false,
      "t": 29350.000000000022,
      "d": 333.3333333333321,
      "v": 107
    },
    {
      "midi": 46,
      "hit": false,
      "t": 29500.000000000004,
      "d": 500,
      "v": 107
    },
    {
      "midi": 70,
      "hit": false,
      "t": 29529.16666666669,
      "d": 120.83333333333212,
      "v": 112
    },
    {
      "midi": 58,
      "hit": false,
      "t": 29833.333333333336,
      "d": 166.66666666666788,
      "v": 107
    },
    {
      "midi": 61,
      "hit": false,
      "t": 29833.333333333336,
      "d": 166.66666666666788,
      "v": 107
    },
    {
      "midi": 66,
      "hit": false,
      "t": 29833.333333333336,
      "d": 166.66666666666788,
      "v": 107
    },
    {
      "midi": 66,
      "hit": false,
      "t": 29991.666666666686,
      "d": 370.83333333333576,
      "v": 105
    },
    {
      "midi": 71,
      "hit": false,
      "t": 29995.833333333354,
      "d": 354.1666666666679,
      "v": 97
    },
    {
      "midi": 47,
      "hit": false,
      "t": 30000.000000000004,
      "d": 500,
      "v": 108
    },
    {
      "midi": 59,
      "hit": false,
      "t": 30333.333333333336,
      "d": 166.66666666666788,
      "v": 107
    },
    {
      "midi": 63,
      "hit": false,
      "t": 30333.333333333336,
      "d": 166.66666666666788,
      "v": 107
    },
    {
      "midi": 66,
      "hit": false,
      "t": 30333.333333333336,
      "d": 166.66666666666788,
      "v": 107
    },
    {
      "midi": 51,
      "hit": false,
      "t": 30500.000000000004,
      "d": 500,
      "v": 108
    },
    {
      "midi": 59,
      "hit": false,
      "t": 30833.333333333336,
      "d": 166.66666666666788,
      "v": 108
    },
    {
      "midi": 63,
      "hit": false,
      "t": 30833.333333333336,
      "d": 166.66666666666788,
      "v": 108
    },
    {
      "midi": 66,
      "hit": false,
      "t": 30833.333333333336,
      "d": 166.66666666666788,
      "v": 108
    },
    {
      "midi": 61,
      "hit": false,
      "t": 30975.000000000022,
      "d": 191.66666666666424,
      "v": 107
    },
    {
      "midi": 66,
      "hit": false,
      "t": 30975.000000000022,
      "d": 1099.9999999999964,
      "v": 119
    },
    {
      "midi": 54,
      "hit": false,
      "t": 31000.000000000004,
      "d": 500,
      "v": 108
    },
    {
      "midi": 63,
      "hit": false,
      "t": 31145.833333333354,
      "d": 908.3333333333321,
      "v": 84
    },
    {
      "midi": 59,
      "hit": false,
      "t": 31333.333333333336,
      "d": 166.66666666666788,
      "v": 108
    },
    {
      "midi": 63,
      "hit": false,
      "t": 31333.333333333336,
      "d": 166.66666666666788,
      "v": 108
    },
    {
      "midi": 66,
      "hit": false,
      "t": 31333.333333333336,
      "d": 166.66666666666788,
      "v": 108
    },
    {
      "midi": 51,
      "hit": false,
      "t": 31500.000000000004,
      "d": 500,
      "v": 109
    },
    {
      "midi": 59,
      "hit": false,
      "t": 31833.333333333336,
      "d": 166.66666666666788,
      "v": 108
    },
    {
      "midi": 63,
      "hit": false,
      "t": 31833.333333333336,
      "d": 166.66666666666788,
      "v": 108
    },
    {
      "midi": 66,
      "hit": false,
      "t": 31833.333333333336,
      "d": 166.66666666666788,
      "v": 108
    },
    {
      "midi": 47,
      "hit": false,
      "t": 32000.000000000004,
      "d": 500,
      "v": 109
    },
    {
      "midi": 59,
      "hit": false,
      "t": 32333.333333333336,
      "d": 166.66666666666788,
      "v": 108
    },
    {
      "midi": 63,
      "hit": false,
      "t": 32333.333333333336,
      "d": 166.66666666666788,
      "v": 108
    },
    {
      "midi": 66,
      "hit": false,
      "t": 32333.333333333336,
      "d": 166.66666666666788,
      "v": 108
    },
    {
      "midi": 51,
      "hit": false,
      "t": 32500.000000000004,
      "d": 499.99999999999636,
      "v": 109
    },
    {
      "midi": 59,
      "hit": false,
      "t": 32833.333333333336,
      "d": 166.66666666666424,
      "v": 109
    },
    {
      "midi": 63,
      "hit": false,
      "t": 32833.333333333336,
      "d": 166.66666666666424,
      "v": 109
    },
    {
      "midi": 66,
      "hit": false,
      "t": 32833.333333333336,
      "d": 166.66666666666424,
      "v": 109
    },
    {
      "midi": 61,
      "hit": false,
      "t": 32854.166666666686,
      "d": 195.83333333332848,
      "v": 101
    },
    {
      "midi": 54,
      "hit": false,
      "t": 33000,
      "d": 500,
      "v": 109
    },
    {
      "midi": 73,
      "hit": false,
      "t": 33016.666666666686,
      "d": 345.8333333333285,
      "v": 110
    },
    {
      "midi": 66,
      "hit": false,
      "t": 33020.83333333335,
      "d": 320.8333333333285,
      "v": 105
    },
    {
      "midi": 59,
      "hit": false,
      "t": 33333.333333333336,
      "d": 166.66666666666424,
      "v": 109
    },
    {
      "midi": 63,
      "hit": false,
      "t": 33333.333333333336,
      "d": 166.66666666666424,
      "v": 109
    },
    {
      "midi": 66,
      "hit": false,
      "t": 33333.333333333336,
      "d": 166.66666666666424,
      "v": 109
    },
    {
      "midi": 56,
      "hit": false,
      "t": 33500,
      "d": 500,
      "v": 110
    },
    {
      "midi": 68,
      "hit": false,
      "t": 33512.500000000015,
      "d": 279.16666666666424,
      "v": 101
    },
    {
      "midi": 73,
      "hit": false,
      "t": 33512.500000000015,
      "d": 304.16666666666424,
      "v": 115
    },
    {
      "midi": 59,
      "hit": false,
      "t": 33833.333333333336,
      "d": 166.66666666666424,
      "v": 109
    },
    {
      "midi": 63,
      "hit": false,
      "t": 33833.333333333336,
      "d": 166.66666666666424,
      "v": 109
    },
    {
      "midi": 66,
      "hit": false,
      "t": 33833.333333333336,
      "d": 166.66666666666424,
      "v": 109
    },
    {
      "midi": 66,
      "hit": false,
      "t": 33833.33333333334,
      "d": 116.66666666666424,
      "v": 105
    },
    {
      "midi": 68,
      "hit": false,
      "t": 33995.83333333334,
      "d": 145.83333333333576,
      "v": 104
    },
    {
      "midi": 54,
      "hit": false,
      "t": 34000,
      "d": 500,
      "v": 110
    },
    {
      "midi": 73,
      "hit": false,
      "t": 34000.00000000001,
      "d": 241.66666666667152,
      "v": 112
    },
    {
      "midi": 70,
      "hit": false,
      "t": 34108.33333333334,
      "d": 91.66666666667152,
      "v": 110
    },
    {
      "midi": 58,
      "hit": false,
      "t": 34333.333333333336,
      "d": 166.66666666666424,
      "v": 109
    },
    {
      "midi": 61,
      "hit": false,
      "t": 34333.333333333336,
      "d": 166.66666666666424,
      "v": 109
    },
    {
      "midi": 66,
      "hit": false,
      "t": 34333.333333333336,
      "d": 166.66666666666424,
      "v": 109
    },
    {
      "midi": 73,
      "hit": false,
      "t": 34495.83333333335,
      "d": 258.3333333333285,
      "v": 101
    },
    {
      "midi": 51,
      "hit": false,
      "t": 34500,
      "d": 500,
      "v": 110
    },
    {
      "midi": 78,
      "hit": false,
      "t": 34504.166666666686,
      "d": 245.83333333332848,
      "v": 110
    },
    {
      "midi": 58,
      "hit": false,
      "t": 34833.333333333336,
      "d": 166.66666666666424,
      "v": 110
    },
    {
      "midi": 61,
      "hit": false,
      "t": 34833.333333333336,
      "d": 166.66666666666424,
      "v": 110
    },
    {
      "midi": 66,
      "hit": false,
      "t": 34833.333333333336,
      "d": 166.66666666666424,
      "v": 110
    },
    {
      "midi": 68,
      "hit": false,
      "t": 34995.83333333334,
      "d": 200,
      "v": 105
    },
    {
      "midi": 49,
      "hit": false,
      "t": 35000,
      "d": 500,
      "v": 110
    },
    {
      "midi": 73,
      "hit": false,
      "t": 35000.00000000001,
      "d": 379.1666666666715,
      "v": 119
    },
    {
      "midi": 70,
      "hit": false,
      "t": 35150.00000000001,
      "d": 229.16666666667152,
      "v": 72
    },
    {
      "midi": 58,
      "hit": false,
      "t": 35333.333333333336,
      "d": 166.66666666666424,
      "v": 110
    },
    {
      "midi": 61,
      "hit": false,
      "t": 35333.333333333336,
      "d": 166.66666666666424,
      "v": 110
    },
    {
      "midi": 66,
      "hit": false,
      "t": 35333.333333333336,
      "d": 166.66666666666424,
      "v": 110
    },
    {
      "midi": 66,
      "hit": false,
      "t": 35491.66666666668,
      "d": 79.16666666666424,
      "v": 98
    },
    {
      "midi": 73,
      "hit": false,
      "t": 35491.66666666668,
      "d": 100,
      "v": 105
    },
    {
      "midi": 46,
      "hit": false,
      "t": 35500,
      "d": 500,
      "v": 111
    },
    {
      "midi": 58,
      "hit": false,
      "t": 35833.333333333336,
      "d": 166.66666666666424,
      "v": 110
    },
    {
      "midi": 61,
      "hit": false,
      "t": 35833.333333333336,
      "d": 166.66666666666424,
      "v": 110
    },
    {
      "midi": 66,
      "hit": false,
      "t": 35833.333333333336,
      "d": 166.66666666666424,
      "v": 110
    },
    {
      "midi": 63,
      "hit": false,
      "t": 35995.83333333334,
      "d": 158.33333333333576,
      "v": 115
    },
    {
      "midi": 68,
      "hit": false,
      "t": 35995.83333333334,
      "d": 516.6666666666715,
      "v": 123
    },
    {
      "midi": 49,
      "hit": false,
      "t": 36000,
      "d": 500,
      "v": 111
    },
    {
      "midi": 65,
      "hit": false,
      "t": 36158.33333333334,
      "d": 333.33333333333576,
      "v": 65
    },
    {
      "midi": 56,
      "hit": false,
      "t": 36333.333333333336,
      "d": 166.66666666666424,
      "v": 110
    },
    {
      "midi": 61,
      "hit": false,
      "t": 36333.333333333336,
      "d": 166.66666666666424,
      "v": 110
    },
    {
      "midi": 65,
      "hit": false,
      "t": 36333.333333333336,
      "d": 166.66666666666424,
      "v": 110
    },
    {
      "midi": 53,
      "hit": false,
      "t": 36500,
      "d": 500,
      "v": 111
    },
    {
      "midi": 61,
      "hit": false,
      "t": 36512.500000000015,
      "d": 187.5,
      "v": 101
    },
    {
      "midi": 56,
      "hit": false,
      "t": 36833.333333333336,
      "d": 166.66666666666424,
      "v": 111
    },
    {
      "midi": 61,
      "hit": false,
      "t": 36833.333333333336,
      "d": 166.66666666666424,
      "v": 111
    },
    {
      "midi": 65,
      "hit": false,
      "t": 36833.333333333336,
      "d": 166.66666666666424,
      "v": 111
    },
    {
      "midi": 61,
      "hit": false,
      "t": 36850.000000000015,
      "d": 112.5,
      "v": 105
    },
    {
      "midi": 73,
      "hit": false,
      "t": 37012.500000000015,
      "d": 274.99999999998545,
      "v": 105
    },
    {
      "midi": 68,
      "hit": false,
      "t": 37016.66666666668,
      "d": 133.33333333332848,
      "v": 98
    },
    {
      "midi": 70,
      "hit": false,
      "t": 37125.00000000001,
      "d": 133.33333333332848,
      "v": 94
    },
    {
      "midi": 68,
      "hit": false,
      "t": 37216.66666666667,
      "d": 116.66666666666424,
      "v": 76
    },
    {
      "midi": 65,
      "hit": false,
      "t": 37295.833333333336,
      "d": 70.83333333333576,
      "v": 81
    },
    {
      "midi": 56,
      "hit": false,
      "t": 37333.333333333336,
      "d": 166.66666666666424,
      "v": 111
    },
    {
      "midi": 61,
      "hit": false,
      "t": 37333.333333333336,
      "d": 166.66666666666424,
      "v": 111
    },
    {
      "midi": 65,
      "hit": false,
      "t": 37333.333333333336,
      "d": 166.66666666666424,
      "v": 111
    },
    {
      "midi": 61,
      "hit": false,
      "t": 37366.66666666667,
      "d": 100,
      "v": 68
    },
    {
      "midi": 53,
      "hit": false,
      "t": 37500,
      "d": 500,
      "v": 112
    },
    {
      "midi": 68,
      "hit": false,
      "t": 37525.00000000001,
      "d": 129.16666666666424,
      "v": 110
    },
    {
      "midi": 73,
      "hit": false,
      "t": 37525.00000000001,
      "d": 195.83333333332848,
      "v": 115
    },
    {
      "midi": 56,
      "hit": false,
      "t": 37833.333333333336,
      "d": 166.66666666666424,
      "v": 111
    },
    {
      "midi": 61,
      "hit": false,
      "t": 37833.333333333336,
      "d": 166.66666666666424,
      "v": 111
    },
    {
      "midi": 65,
      "hit": false,
      "t": 37833.333333333336,
      "d": 166.66666666666424,
      "v": 111
    },
    {
      "midi": 73,
      "hit": false,
      "t": 37841.66666666667,
      "d": 716.6666666666642,
      "v": 110
    },
    {
      "midi": 66,
      "hit": false,
      "t": 37841.66666666667,
      "d": 729.1666666666642,
      "v": 112
    },
    {
      "midi": 54,
      "hit": false,
      "t": 38000,
      "d": 500,
      "v": 112
    },
    {
      "midi": 58,
      "hit": false,
      "t": 38333.333333333336,
      "d": 166.66666666666424,
      "v": 112
    },
    {
      "midi": 61,
      "hit": false,
      "t": 38333.333333333336,
      "d": 166.66666666666424,
      "v": 112
    },
    {
      "midi": 66,
      "hit": false,
      "t": 38333.333333333336,
      "d": 166.66666666666424,
      "v": 112
    },
    {
      "midi": 51,
      "hit": false,
      "t": 38500,
      "d": 500,
      "v": 112
    },
    {
      "midi": 54,
      "hit": false,
      "t": 38833.333333333336,
      "d": 166.66666666667152,
      "v": 70
    },
    {
      "midi": 58,
      "hit": false,
      "t": 38833.333333333336,
      "d": 166.66666666666424,
      "v": 112
    },
    {
      "midi": 61,
      "hit": false,
      "t": 38833.333333333336,
      "d": 166.66666666666424,
      "v": 112
    },
    {
      "midi": 66,
      "hit": false,
      "t": 38833.333333333336,
      "d": 166.66666666666424,
      "v": 112
    },
    {
      "midi": 49,
      "hit": false,
      "t": 39000,
      "d": 500,
      "v": 113
    },
    {
      "midi": 66,
      "hit": false,
      "t": 39000.00000000001,
      "d": 333.33333333333576,
      "v": 101
    },
    {
      "midi": 61,
      "hit": false,
      "t": 39000.00000000001,
      "d": 500,
      "v": 101
    },
    {
      "midi": 58,
      "hit": false,
      "t": 39333.333333333336,
      "d": 166.66666666666424,
      "v": 112
    },
    {
      "midi": 61,
      "hit": false,
      "t": 39333.333333333336,
      "d": 166.66666666666424,
      "v": 112
    },
    {
      "midi": 66,
      "hit": false,
      "t": 39333.333333333336,
      "d": 166.66666666666424,
      "v": 112
    },
    {
      "midi": 46,
      "hit": false,
      "t": 39500,
      "d": 500,
      "v": 113
    },
    {
      "midi": 59,
      "hit": false,
      "t": 39500.00000000001,
      "d": 333.33333333333576,
      "v": 110
    },
    {
      "midi": 58,
      "hit": false,
      "t": 39833.333333333336,
      "d": 166.66666666666424,
      "v": 112
    },
    {
      "midi": 61,
      "hit": false,
      "t": 39833.333333333336,
      "d": 166.66666666666424,
      "v": 112
    },
    {
      "midi": 66,
      "hit": false,
      "t": 39833.333333333336,
      "d": 166.66666666666424,
      "v": 112
    },
    {
      "midi": 57,
      "hit": false,
      "t": 39833.33333333334,
      "d": 166.66666666666424,
      "v": 93
    },
    {
      "midi": 42,
      "hit": false,
      "t": 40000,
      "d": 500,
      "v": 113
    },
    {
      "midi": 58,
      "hit": false,
      "t": 40000.00000000001,
      "d": 833.333333333343,
      "v": 104
    },
    {
      "midi": 58,
      "hit": false,
      "t": 40333.333333333336,
      "d": 166.66666666666424,
      "v": 113
    },
    {
      "midi": 61,
      "hit": false,
      "t": 40333.333333333336,
      "d": 166.66666666666424,
      "v": 113
    },
    {
      "midi": 66,
      "hit": false,
      "t": 40333.333333333336,
      "d": 166.66666666666424,
      "v": 113
    },
    {
      "midi": 66,
      "hit": false,
      "t": 40333.33333333334,
      "d": 500.0000000000073,
      "v": 101
    },
    {
      "midi": 37,
      "hit": false,
      "t": 40500,
      "d": 500,
      "v": 94
    },
    {
      "midi": 58,
      "hit": false,
      "t": 40833.333333333336,
      "d": 166.66666666666424,
      "v": 113
    },
    {
      "midi": 61,
      "hit": false,
      "t": 40833.333333333336,
      "d": 166.66666666666424,
      "v": 113
    },
    {
      "midi": 66,
      "hit": false,
      "t": 40833.333333333336,
      "d": 166.66666666666424,
      "v": 113
    },
    {
      "midi": 39,
      "hit": false,
      "t": 41000,
      "d": 500,
      "v": 97
    },
    {
      "midi": 68,
      "hit": false,
      "t": 41000.000000000015,
      "d": 166.66666666666424,
      "v": 101
    },
    {
      "midi": 73,
      "hit": false,
      "t": 41000.000000000015,
      "d": 999.9999999999927,
      "v": 112
    },
    {
      "midi": 70,
      "hit": false,
      "t": 41166.66666666668,
      "d": 666.6666666666642,
      "v": 68
    },
    {
      "midi": 58,
      "hit": false,
      "t": 41333.333333333336,
      "d": 166.66666666666424,
      "v": 113
    },
    {
      "midi": 61,
      "hit": false,
      "t": 41333.333333333336,
      "d": 166.66666666666424,
      "v": 113
    },
    {
      "midi": 66,
      "hit": false,
      "t": 41333.333333333336,
      "d": 166.66666666666424,
      "v": 113
    },
    {
      "midi": 41,
      "hit": false,
      "t": 41500,
      "d": 500,
      "v": 104
    },
    {
      "midi": 58,
      "hit": false,
      "t": 41833.333333333336,
      "d": 166.66666666666424,
      "v": 113
    },
    {
      "midi": 61,
      "hit": false,
      "t": 41833.333333333336,
      "d": 166.66666666666424,
      "v": 113
    },
    {
      "midi": 66,
      "hit": false,
      "t": 41833.333333333336,
      "d": 166.66666666666424,
      "v": 113
    },
    {
      "midi": 68,
      "hit": false,
      "t": 41833.33333333334,
      "d": 166.66666666666424,
      "v": 117
    },
    {
      "midi": 42,
      "hit": false,
      "t": 42000,
      "d": 500,
      "v": 97
    },
    {
      "midi": 73,
      "hit": false,
      "t": 42000.00000000001,
      "d": 329.16666666666424,
      "v": 85
    },
    {
      "midi": 66,
      "hit": false,
      "t": 42000.00000000001,
      "d": 333.3333333333285,
      "v": 105
    },
    {
      "midi": 61,
      "hit": false,
      "t": 42333.333333333336,
      "d": 2166.6666666666642,
      "v": 115
    },
    {
      "midi": 66,
      "hit": false,
      "t": 42333.333333333336,
      "d": 2166.6666666666642,
      "v": 104
    },
    {
      "midi": 58,
      "hit": false,
      "t": 42333.333333333336,
      "d": 166.66666666666424,
      "v": 97
    },
    {
      "midi": 61,
      "hit": false,
      "t": 42333.333333333336,
      "d": 166.66666666666424,
      "v": 97
    },
    {
      "midi": 66,
      "hit": false,
      "t": 42333.333333333336,
      "d": 166.66666666666424,
      "v": 97
    },
    {
      "midi": 46,
      "hit": false,
      "t": 42500,
      "d": 500,
      "v": 97
    },
    {
      "midi": 58,
      "hit": false,
      "t": 42833.333333333336,
      "d": 166.66666666666424,
      "v": 97
    },
    {
      "midi": 61,
      "hit": false,
      "t": 42833.333333333336,
      "d": 166.66666666666424,
      "v": 97
    },
    {
      "midi": 66,
      "hit": false,
      "t": 42833.333333333336,
      "d": 166.66666666666424,
      "v": 97
    },
    {
      "midi": 49,
      "hit": false,
      "t": 43000,
      "d": 500,
      "v": 97
    },
    {
      "midi": 58,
      "hit": false,
      "t": 43333.333333333336,
      "d": 166.66666666666424,
      "v": 97
    },
    {
      "midi": 61,
      "hit": false,
      "t": 43333.333333333336,
      "d": 166.66666666666424,
      "v": 97
    },
    {
      "midi": 66,
      "hit": false,
      "t": 43333.333333333336,
      "d": 166.66666666666424,
      "v": 97
    },
    {
      "midi": 46,
      "hit": false,
      "t": 43500,
      "d": 500,
      "v": 97
    },
    {
      "midi": 58,
      "hit": false,
      "t": 43833.333333333336,
      "d": 166.66666666666424,
      "v": 97
    },
    {
      "midi": 61,
      "hit": false,
      "t": 43833.333333333336,
      "d": 166.66666666666424,
      "v": 97
    },
    {
      "midi": 66,
      "hit": false,
      "t": 43833.333333333336,
      "d": 166.66666666666424,
      "v": 97
    },
    {
      "midi": 42,
      "hit": false,
      "t": 44000,
      "d": 500,
      "v": 98
    },
    {
      "midi": 58,
      "hit": false,
      "t": 44333.333333333336,
      "d": 166.66666666666424,
      "v": 98
    },
    {
      "midi": 61,
      "hit": false,
      "t": 44333.333333333336,
      "d": 166.66666666666424,
      "v": 98
    },
    {
      "midi": 66,
      "hit": false,
      "t": 44333.333333333336,
      "d": 166.66666666666424,
      "v": 98
    },
    {
      "midi": 46,
      "hit": false,
      "t": 44500,
      "d": 500,
      "v": 98
    },
    {
      "midi": 58,
      "hit": false,
      "t": 44833.333333333336,
      "d": 166.66666666666424,
      "v": 98
    },
    {
      "midi": 61,
      "hit": false,
      "t": 44833.333333333336,
      "d": 166.66666666666424,
      "v": 98
    },
    {
      "midi": 66,
      "hit": false,
      "t": 44833.333333333336,
      "d": 166.66666666666424,
      "v": 98
    },
    {
      "midi": 70,
      "hit": false,
      "t": 45000,
      "d": 166.66666666666424,
      "v": 117
    },
    {
      "midi": 75,
      "hit": false,
      "t": 45000,
      "d": 170.83333333332848,
      "v": 107
    },
    {
      "midi": 49,
      "hit": false,
      "t": 45000,
      "d": 500,
      "v": 98
    },
    {
      "midi": 71,
      "hit": false,
      "t": 45166.666666666664,
      "d": 145.83333333332848,
      "v": 103
    },
    {
      "midi": 58,
      "hit": false,
      "t": 45333.333333333336,
      "d": 166.66666666666424,
      "v": 98
    },
    {
      "midi": 61,
      "hit": false,
      "t": 45333.333333333336,
      "d": 166.66666666666424,
      "v": 98
    },
    {
      "midi": 66,
      "hit": false,
      "t": 45333.333333333336,
      "d": 166.66666666666424,
      "v": 98
    },
    {
      "midi": 46,
      "hit": false,
      "t": 45500,
      "d": 500,
      "v": 98
    },
    {
      "midi": 70,
      "hit": false,
      "t": 45549.99999999999,
      "d": 137.5,
      "v": 105
    },
    {
      "midi": 58,
      "hit": false,
      "t": 45833.333333333336,
      "d": 166.66666666666424,
      "v": 98
    },
    {
      "midi": 61,
      "hit": false,
      "t": 45833.333333333336,
      "d": 166.66666666666424,
      "v": 98
    },
    {
      "midi": 66,
      "hit": false,
      "t": 45833.333333333336,
      "d": 166.66666666666424,
      "v": 98
    },
    {
      "midi": 68,
      "hit": false,
      "t": 45858.33333333333,
      "d": 2241.6666666666642,
      "v": 110
    },
    {
      "midi": 71,
      "hit": false,
      "t": 45858.33333333333,
      "d": 2241.6666666666642,
      "v": 101
    },
    {
      "midi": 44,
      "hit": false,
      "t": 46000,
      "d": 500,
      "v": 99
    },
    {
      "midi": 59,
      "hit": false,
      "t": 46333.333333333336,
      "d": 166.66666666666424,
      "v": 99
    },
    {
      "midi": 63,
      "hit": false,
      "t": 46333.333333333336,
      "d": 166.66666666666424,
      "v": 99
    },
    {
      "midi": 68,
      "hit": false,
      "t": 46333.333333333336,
      "d": 166.66666666666424,
      "v": 99
    },
    {
      "midi": 47,
      "hit": false,
      "t": 46500,
      "d": 500,
      "v": 99
    },
    {
      "midi": 59,
      "hit": false,
      "t": 46833.333333333336,
      "d": 166.66666666666424,
      "v": 99
    },
    {
      "midi": 63,
      "hit": false,
      "t": 46833.333333333336,
      "d": 166.66666666666424,
      "v": 99
    },
    {
      "midi": 68,
      "hit": false,
      "t": 46833.333333333336,
      "d": 166.66666666666424,
      "v": 99
    },
    {
      "midi": 51,
      "hit": false,
      "t": 47000,
      "d": 500,
      "v": 99
    },
    {
      "midi": 59,
      "hit": false,
      "t": 47333.333333333336,
      "d": 166.66666666666424,
      "v": 99
    },
    {
      "midi": 63,
      "hit": false,
      "t": 47333.333333333336,
      "d": 166.66666666666424,
      "v": 99
    },
    {
      "midi": 68,
      "hit": false,
      "t": 47333.333333333336,
      "d": 166.66666666666424,
      "v": 99
    },
    {
      "midi": 47,
      "hit": false,
      "t": 47500,
      "d": 500,
      "v": 100
    },
    {
      "midi": 59,
      "hit": false,
      "t": 47833.333333333336,
      "d": 166.66666666666424,
      "v": 99
    },
    {
      "midi": 63,
      "hit": false,
      "t": 47833.333333333336,
      "d": 166.66666666666424,
      "v": 99
    },
    {
      "midi": 68,
      "hit": false,
      "t": 47833.333333333336,
      "d": 166.66666666666424,
      "v": 99
    },
    {
      "midi": 44,
      "hit": false,
      "t": 48000,
      "d": 500,
      "v": 100
    },
    {
      "midi": 59,
      "hit": false,
      "t": 48333.333333333336,
      "d": 166.66666666666424,
      "v": 100
    },
    {
      "midi": 63,
      "hit": false,
      "t": 48333.333333333336,
      "d": 166.66666666666424,
      "v": 100
    },
    {
      "midi": 68,
      "hit": false,
      "t": 48333.333333333336,
      "d": 166.66666666666424,
      "v": 100
    },
    {
      "midi": 47,
      "hit": false,
      "t": 48500,
      "d": 500,
      "v": 100
    },
    {
      "midi": 59,
      "hit": false,
      "t": 48833.333333333336,
      "d": 166.66666666666424,
      "v": 100
    },
    {
      "midi": 63,
      "hit": false,
      "t": 48833.333333333336,
      "d": 166.66666666666424,
      "v": 100
    },
    {
      "midi": 68,
      "hit": false,
      "t": 48833.333333333336,
      "d": 166.66666666666424,
      "v": 100
    },
    {
      "midi": 51,
      "hit": false,
      "t": 49000,
      "d": 500,
      "v": 100
    },
    {
      "midi": 66,
      "hit": false,
      "t": 49020.83333333333,
      "d": 187.49999999999272,
      "v": 104
    },
    {
      "midi": 71,
      "hit": false,
      "t": 49024.99999999999,
      "d": 674.9999999999927,
      "v": 101
    },
    {
      "midi": 68,
      "hit": false,
      "t": 49179.16666666666,
      "d": 504.16666666666424,
      "v": 72
    },
    {
      "midi": 59,
      "hit": false,
      "t": 49333.333333333336,
      "d": 166.66666666666424,
      "v": 100
    },
    {
      "midi": 63,
      "hit": false,
      "t": 49333.333333333336,
      "d": 166.66666666666424,
      "v": 100
    },
    {
      "midi": 68,
      "hit": false,
      "t": 49333.333333333336,
      "d": 166.66666666666424,
      "v": 100
    },
    {
      "midi": 47,
      "hit": false,
      "t": 49500,
      "d": 500,
      "v": 101
    },
    {
      "midi": 66,
      "hit": false,
      "t": 49762.499999999985,
      "d": 120.83333333332848,
      "v": 99
    },
    {
      "midi": 71,
      "hit": false,
      "t": 49766.66666666665,
      "d": 112.5,
      "v": 93
    },
    {
      "midi": 59,
      "hit": false,
      "t": 49833.333333333336,
      "d": 166.66666666666424,
      "v": 101
    },
    {
      "midi": 63,
      "hit": false,
      "t": 49833.333333333336,
      "d": 166.66666666666424,
      "v": 101
    },
    {
      "midi": 68,
      "hit": false,
      "t": 49833.333333333336,
      "d": 166.66666666666424,
      "v": 101
    },
    {
      "midi": 63,
      "hit": false,
      "t": 49999.999999999985,
      "d": 95.83333333332848,
      "v": 98
    },
    {
      "midi": 37,
      "hit": false,
      "t": 50000,
      "d": 500,
      "v": 101
    },
    {
      "midi": 68,
      "hit": false,
      "t": 50004.16666666665,
      "d": 237.5,
      "v": 104
    },
    {
      "midi": 65,
      "hit": false,
      "t": 50091.66666666665,
      "d": 141.66666666666424,
      "v": 93
    },
    {
      "midi": 68,
      "hit": false,
      "t": 50295.833333333314,
      "d": 1341.6666666666642,
      "v": 99
    },
    {
      "midi": 61,
      "hit": false,
      "t": 50299.99999999998,
      "d": 1287.5,
      "v": 105
    },
    {
      "midi": 61,
      "hit": false,
      "t": 50333.333333333336,
      "d": 166.66666666666424,
      "v": 101
    },
    {
      "midi": 65,
      "hit": false,
      "t": 50333.333333333336,
      "d": 166.66666666666424,
      "v": 101
    },
    {
      "midi": 68,
      "hit": false,
      "t": 50333.333333333336,
      "d": 166.66666666666424,
      "v": 101
    },
    {
      "midi": 41,
      "hit": false,
      "t": 50500,
      "d": 500,
      "v": 101
    },
    {
      "midi": 61,
      "hit": false,
      "t": 50833.333333333336,
      "d": 166.66666666666424,
      "v": 101
    },
    {
      "midi": 65,
      "hit": false,
      "t": 50833.333333333336,
      "d": 166.66666666666424,
      "v": 101
    },
    {
      "midi": 68,
      "hit": false,
      "t": 50833.333333333336,
      "d": 166.66666666666424,
      "v": 101
    },
    {
      "midi": 44,
      "hit": false,
      "t": 51000,
      "d": 500,
      "v": 102
    },
    {
      "midi": 61,
      "hit": false,
      "t": 51333.333333333336,
      "d": 166.66666666666424,
      "v": 101
    },
    {
      "midi": 65,
      "hit": false,
      "t": 51333.333333333336,
      "d": 166.66666666666424,
      "v": 101
    },
    {
      "midi": 68,
      "hit": false,
      "t": 51333.333333333336,
      "d": 166.66666666666424,
      "v": 101
    },
    {
      "midi": 46,
      "hit": false,
      "t": 51500,
      "d": 500,
      "v": 102
    },
    {
      "midi": 61,
      "hit": false,
      "t": 51833.333333333336,
      "d": 166.66666666666424,
      "v": 102
    },
    {
      "midi": 65,
      "hit": false,
      "t": 51833.333333333336,
      "d": 166.66666666666424,
      "v": 102
    },
    {
      "midi": 68,
      "hit": false,
      "t": 51833.333333333336,
      "d": 166.66666666666424,
      "v": 102
    },
    {
      "midi": 49,
      "hit": false,
      "t": 52000,
      "d": 166.66666666666424,
      "v": 102
    },
    {
      "midi": 49,
      "hit": false,
      "t": 52333.33333333333,
      "d": 166.66666666666424,
      "v": 102
    },
    {
      "midi": 61,
      "hit": false,
      "t": 52333.33333333333,
      "d": 166.66666666666424,
      "v": 102
    },
    {
      "midi": 65,
      "hit": false,
      "t": 52333.33333333333,
      "d": 166.66666666666424,
      "v": 102
    },
    {
      "midi": 68,
      "hit": false,
      "t": 52333.33333333333,
      "d": 166.66666666666424,
      "v": 102
    },
    {
      "midi": 61,
      "hit": false,
      "t": 52349.99999999998,
      "d": 379.16666666666424,
      "v": 89
    },
    {
      "midi": 47,
      "hit": false,
      "t": 52499.99999999999,
      "d": 500,
      "v": 102
    },
    {
      "midi": 61,
      "hit": false,
      "t": 52833.33333333333,
      "d": 166.66666666666424,
      "v": 102
    },
    {
      "midi": 65,
      "hit": false,
      "t": 52833.33333333333,
      "d": 166.66666666666424,
      "v": 102
    },
    {
      "midi": 68,
      "hit": false,
      "t": 52833.33333333333,
      "d": 166.66666666666424,
      "v": 102
    },
    {
      "midi": 61,
      "hit": false,
      "t": 52858.33333333331,
      "d": 120.83333333333576,
      "v": 117
    },
    {
      "midi": 46,
      "hit": false,
      "t": 52999.99999999999,
      "d": 500,
      "v": 103
    },
    {
      "midi": 73,
      "hit": false,
      "t": 53041.66666666664,
      "d": 395.83333333333576,
      "v": 127
    },
    {
      "midi": 68,
      "hit": false,
      "t": 53049.99999999998,
      "d": 150,
      "v": 117
    },
    {
      "midi": 70,
      "hit": false,
      "t": 53179.16666666664,
      "d": 241.66666666667152,
      "v": 64
    },
    {
      "midi": 61,
      "hit": false,
      "t": 53333.33333333333,
      "d": 166.66666666666424,
      "v": 102
    },
    {
      "midi": 65,
      "hit": false,
      "t": 53333.33333333333,
      "d": 166.66666666666424,
      "v": 102
    },
    {
      "midi": 68,
      "hit": false,
      "t": 53333.33333333333,
      "d": 166.66666666666424,
      "v": 102
    },
    {
      "midi": 66,
      "hit": false,
      "t": 53387.49999999998,
      "d": 100,
      "v": 93
    },
    {
      "midi": 44,
      "hit": false,
      "t": 53499.99999999999,
      "d": 500,
      "v": 103
    },
    {
      "midi": 68,
      "hit": false,
      "t": 53545.833333333314,
      "d": 229.16666666667152,
      "v": 107
    },
    {
      "midi": 73,
      "hit": false,
      "t": 53545.833333333314,
      "d": 237.50000000000728,
      "v": 127
    },
    {
      "midi": 61,
      "hit": false,
      "t": 53833.33333333333,
      "d": 166.66666666666424,
      "v": 103
    },
    {
      "midi": 65,
      "hit": false,
      "t": 53833.33333333333,
      "d": 166.66666666666424,
      "v": 103
    },
    {
      "midi": 68,
      "hit": false,
      "t": 53833.33333333333,
      "d": 166.66666666666424,
      "v": 103
    },
    {
      "midi": 73,
      "hit": false,
      "t": 53874.999999999985,
      "d": 920.8333333333285,
      "v": 117
    },
    {
      "midi": 66,
      "hit": false,
      "t": 53874.999999999985,
      "d": 941.6666666666642,
      "v": 119
    },
    {
      "midi": 42,
      "hit": false,
      "t": 53999.99999999999,
      "d": 500,
      "v": 103
    },
    {
      "midi": 58,
      "hit": false,
      "t": 54333.33333333333,
      "d": 166.66666666666424,
      "v": 103
    },
    {
      "midi": 61,
      "hit": false,
      "t": 54333.33333333333,
      "d": 166.66666666666424,
      "v": 103
    },
    {
      "midi": 66,
      "hit": false,
      "t": 54333.33333333333,
      "d": 166.66666666666424,
      "v": 103
    },
    {
      "midi": 39,
      "hit": false,
      "t": 54499.99999999999,
      "d": 500,
      "v": 103
    },
    {
      "midi": 66,
      "hit": false,
      "t": 54833.333333333314,
      "d": 166.66666666666424,
      "v": 110
    },
    {
      "midi": 58,
      "hit": false,
      "t": 54833.33333333333,
      "d": 166.66666666666424,
      "v": 103
    },
    {
      "midi": 61,
      "hit": false,
      "t": 54833.33333333333,
      "d": 166.66666666666424,
      "v": 103
    },
    {
      "midi": 66,
      "hit": false,
      "t": 54833.33333333333,
      "d": 166.66666666666424,
      "v": 103
    },
    {
      "midi": 73,
      "hit": false,
      "t": 54999.99999999998,
      "d": 166.66666666666424,
      "v": 111
    },
    {
      "midi": 37,
      "hit": false,
      "t": 54999.99999999999,
      "d": 500,
      "v": 104
    },
    {
      "midi": 75,
      "hit": false,
      "t": 55166.66666666664,
      "d": 333.33333333333576,
      "v": 112
    },
    {
      "midi": 78,
      "hit": false,
      "t": 55333.333333333314,
      "d": 166.66666666666424,
      "v": 112
    },
    {
      "midi": 73,
      "hit": false,
      "t": 55333.333333333314,
      "d": 333.3333333333285,
      "v": 114
    },
    {
      "midi": 58,
      "hit": false,
      "t": 55333.33333333333,
      "d": 166.66666666666424,
      "v": 103
    },
    {
      "midi": 61,
      "hit": false,
      "t": 55333.33333333333,
      "d": 166.66666666666424,
      "v": 103
    },
    {
      "midi": 66,
      "hit": false,
      "t": 55333.33333333333,
      "d": 166.66666666666424,
      "v": 103
    },
    {
      "midi": 34,
      "hit": false,
      "t": 55499.99999999999,
      "d": 500,
      "v": 104
    },
    {
      "midi": 68,
      "hit": false,
      "t": 55666.66666666664,
      "d": 333.33333333333576,
      "v": 117
    },
    {
      "midi": 73,
      "hit": false,
      "t": 55666.66666666664,
      "d": 333.33333333333576,
      "v": 117
    },
    {
      "midi": 58,
      "hit": false,
      "t": 55833.33333333333,
      "d": 166.66666666666424,
      "v": 104
    },
    {
      "midi": 61,
      "hit": false,
      "t": 55833.33333333333,
      "d": 166.66666666666424,
      "v": 104
    },
    {
      "midi": 66,
      "hit": false,
      "t": 55833.33333333333,
      "d": 166.66666666666424,
      "v": 104
    },
    {
      "midi": 68,
      "hit": false,
      "t": 55999.99999999998,
      "d": 166.66666666666424,
      "v": 119
    },
    {
      "midi": 73,
      "hit": false,
      "t": 55999.99999999998,
      "d": 833.3333333333285,
      "v": 119
    },
    {
      "midi": 30,
      "hit": false,
      "t": 55999.99999999999,
      "d": 500,
      "v": 104
    },
    {
      "midi": 70,
      "hit": false,
      "t": 56166.66666666664,
      "d": 666.6666666666642,
      "v": 121
    },
    {
      "midi": 58,
      "hit": false,
      "t": 56333.33333333333,
      "d": 166.66666666666424,
      "v": 104
    },
    {
      "midi": 61,
      "hit": false,
      "t": 56333.33333333333,
      "d": 166.66666666666424,
      "v": 104
    },
    {
      "midi": 66,
      "hit": false,
      "t": 56333.33333333333,
      "d": 166.66666666666424,
      "v": 104
    },
    {
      "midi": 49,
      "hit": false,
      "t": 56499.99999999999,
      "d": 500,
      "v": 105
    },
    {
      "midi": 58,
      "hit": false,
      "t": 56833.33333333333,
      "d": 166.66666666666424,
      "v": 104
    },
    {
      "midi": 61,
      "hit": false,
      "t": 56833.33333333333,
      "d": 166.66666666666424,
      "v": 104
    },
    {
      "midi": 66,
      "hit": false,
      "t": 56833.33333333333,
      "d": 166.66666666666424,
      "v": 104
    },
    {
      "midi": 61,
      "hit": false,
      "t": 56849.99999999997,
      "d": 129.16666666666424,
      "v": 99
    },
    {
      "midi": 51,
      "hit": false,
      "t": 56999.99999999999,
      "d": 500,
      "v": 105
    },
    {
      "midi": 73,
      "hit": false,
      "t": 57016.666666666635,
      "d": 549.9999999999927,
      "v": 127
    },
    {
      "midi": 68,
      "hit": false,
      "t": 57020.8333333333,
      "d": 170.83333333332848,
      "v": 119
    },
    {
      "midi": 70,
      "hit": false,
      "t": 57162.49999999996,
      "d": 420.8333333333285,
      "v": 85
    },
    {
      "midi": 58,
      "hit": false,
      "t": 57333.33333333333,
      "d": 166.66666666666424,
      "v": 105
    },
    {
      "midi": 61,
      "hit": false,
      "t": 57333.33333333333,
      "d": 166.66666666666424,
      "v": 105
    },
    {
      "midi": 66,
      "hit": false,
      "t": 57333.33333333333,
      "d": 166.66666666666424,
      "v": 105
    },
    {
      "midi": 53,
      "hit": false,
      "t": 57499.99999999999,
      "d": 500,
      "v": 105
    },
    {
      "midi": 68,
      "hit": false,
      "t": 57704.16666666663,
      "d": 154.16666666666424,
      "v": 104
    },
    {
      "midi": 73,
      "hit": false,
      "t": 57708.33333333329,
      "d": 191.66666666666424,
      "v": 117
    },
    {
      "midi": 58,
      "hit": false,
      "t": 57833.33333333333,
      "d": 166.66666666666424,
      "v": 105
    },
    {
      "midi": 61,
      "hit": false,
      "t": 57833.33333333333,
      "d": 166.66666666666424,
      "v": 105
    },
    {
      "midi": 66,
      "hit": false,
      "t": 57833.33333333333,
      "d": 166.66666666666424,
      "v": 105
    },
    {
      "midi": 54,
      "hit": false,
      "t": 57999.99999999999,
      "d": 500,
      "v": 105
    },
    {
      "midi": 73,
      "hit": false,
      "t": 58041.66666666662,
      "d": 145.83333333332848,
      "v": 107
    },
    {
      "midi": 66,
      "hit": false,
      "t": 58045.833333333285,
      "d": 158.33333333332848,
      "v": 107
    },
    {
      "midi": 58,
      "hit": false,
      "t": 58333.33333333333,
      "d": 166.66666666666424,
      "v": 105
    },
    {
      "midi": 61,
      "hit": false,
      "t": 58333.33333333333,
      "d": 166.66666666666424,
      "v": 105
    },
    {
      "midi": 66,
      "hit": false,
      "t": 58333.33333333333,
      "d": 166.66666666666424,
      "v": 105
    },
    {
      "midi": 61,
      "hit": false,
      "t": 58354.16666666661,
      "d": 1108.3333333333358,
      "v": 110
    },
    {
      "midi": 66,
      "hit": false,
      "t": 58358.33333333328,
      "d": 1125.0000000000073,
      "v": 112
    },
    {
      "midi": 51,
      "hit": false,
      "t": 58499.99999999999,
      "d": 500,
      "v": 106
    },
    {
      "midi": 58,
      "hit": false,
      "t": 58833.33333333333,
      "d": 166.66666666666424,
      "v": 105
    },
    {
      "midi": 61,
      "hit": false,
      "t": 58833.33333333333,
      "d": 166.66666666666424,
      "v": 105
    },
    {
      "midi": 66,
      "hit": false,
      "t": 58833.33333333333,
      "d": 166.66666666666424,
      "v": 105
    },
    {
      "midi": 49,
      "hit": false,
      "t": 58999.99999999999,
      "d": 500,
      "v": 106
    },
    {
      "midi": 58,
      "hit": false,
      "t": 59333.33333333333,
      "d": 166.66666666666424,
      "v": 106
    },
    {
      "midi": 61,
      "hit": false,
      "t": 59333.33333333333,
      "d": 166.66666666666424,
      "v": 106
    },
    {
      "midi": 66,
      "hit": false,
      "t": 59333.33333333333,
      "d": 166.66666666666424,
      "v": 106
    },
    {
      "midi": 46,
      "hit": false,
      "t": 59499.99999999999,
      "d": 500,
      "v": 106
    },
    {
      "midi": 58,
      "hit": false,
      "t": 59833.33333333333,
      "d": 166.66666666666424,
      "v": 106
    },
    {
      "midi": 61,
      "hit": false,
      "t": 59833.33333333333,
      "d": 166.66666666666424,
      "v": 106
    },
    {
      "midi": 66,
      "hit": false,
      "t": 59833.33333333333,
      "d": 166.66666666666424,
      "v": 106
    },
    {
      "midi": 42,
      "hit": false,
      "t": 59999.99999999999,
      "d": 495.83333333333576,
      "v": 107
    },
    {
      "midi": 58,
      "hit": false,
      "t": 60333.33333333333,
      "d": 166.66666666666424,
      "v": 106
    },
    {
      "midi": 61,
      "hit": false,
      "t": 60333.33333333333,
      "d": 166.66666666666424,
      "v": 106
    },
    {
      "midi": 66,
      "hit": false,
      "t": 60333.33333333333,
      "d": 166.66666666666424,
      "v": 106
    },
    {
      "midi": 61,
      "hit": false,
      "t": 60354.16666666662,
      "d": 162.5,
      "v": 94
    },
    {
      "midi": 42,
      "hit": false,
      "t": 60499.99999999999,
      "d": 500,
      "v": 107
    },
    {
      "midi": 66,
      "hit": false,
      "t": 60520.833333333285,
      "d": 199.99999999999272,
      "v": 119
    },
    {
      "midi": 73,
      "hit": false,
      "t": 60524.99999999995,
      "d": 195.83333333332848,
      "v": 123
    },
    {
      "midi": 66,
      "hit": false,
      "t": 60833.33333333328,
      "d": 125,
      "v": 112
    },
    {
      "midi": 73,
      "hit": false,
      "t": 60833.33333333328,
      "d": 145.83333333333576,
      "v": 119
    },
    {
      "midi": 58,
      "hit": false,
      "t": 60833.33333333333,
      "d": 166.66666666666424,
      "v": 106
    },
    {
      "midi": 61,
      "hit": false,
      "t": 60833.33333333333,
      "d": 166.66666666666424,
      "v": 106
    },
    {
      "midi": 66,
      "hit": false,
      "t": 60833.33333333333,
      "d": 166.66666666666424,
      "v": 106
    },
    {
      "midi": 44,
      "hit": false,
      "t": 60999.99999999999,
      "d": 500,
      "v": 107
    },
    {
      "midi": 68,
      "hit": false,
      "t": 61033.33333333328,
      "d": 225,
      "v": 105
    },
    {
      "midi": 73,
      "hit": false,
      "t": 61033.33333333328,
      "d": 225,
      "v": 105
    },
    {
      "midi": 58,
      "hit": false,
      "t": 61333.33333333333,
      "d": 166.66666666666424,
      "v": 107
    },
    {
      "midi": 61,
      "hit": false,
      "t": 61333.33333333333,
      "d": 166.66666666666424,
      "v": 107
    },
    {
      "midi": 66,
      "hit": false,
      "t": 61333.33333333333,
      "d": 166.66666666666424,
      "v": 107
    },
    {
      "midi": 68,
      "hit": false,
      "t": 61341.66666666661,
      "d": 208.33333333333576,
      "v": 105
    },
    {
      "midi": 73,
      "hit": false,
      "t": 61349.99999999995,
      "d": 333.33333333333576,
      "v": 107
    },
    {
      "midi": 46,
      "hit": false,
      "t": 61499.99999999999,
      "d": 500,
      "v": 107
    },
    {
      "midi": 70,
      "hit": false,
      "t": 61529.16666666661,
      "d": 120.83333333333576,
      "v": 112
    },
    {
      "midi": 58,
      "hit": false,
      "t": 61833.33333333333,
      "d": 166.66666666666424,
      "v": 107
    },
    {
      "midi": 61,
      "hit": false,
      "t": 61833.33333333333,
      "d": 166.66666666666424,
      "v": 107
    },
    {
      "midi": 66,
      "hit": false,
      "t": 61833.33333333333,
      "d": 166.66666666666424,
      "v": 107
    },
    {
      "midi": 66,
      "hit": false,
      "t": 61991.66666666662,
      "d": 370.8333333333285,
      "v": 105
    },
    {
      "midi": 71,
      "hit": false,
      "t": 61995.833333333285,
      "d": 354.16666666666424,
      "v": 97
    },
    {
      "midi": 47,
      "hit": false,
      "t": 61999.99999999999,
      "d": 500,
      "v": 108
    },
    {
      "midi": 59,
      "hit": false,
      "t": 62333.33333333333,
      "d": 166.66666666666424,
      "v": 107
    },
    {
      "midi": 63,
      "hit": false,
      "t": 62333.33333333333,
      "d": 166.66666666666424,
      "v": 107
    },
    {
      "midi": 66,
      "hit": false,
      "t": 62333.33333333333,
      "d": 166.66666666666424,
      "v": 107
    },
    {
      "midi": 51,
      "hit": false,
      "t": 62499.99999999999,
      "d": 500,
      "v": 108
    },
    {
      "midi": 59,
      "hit": false,
      "t": 62833.33333333333,
      "d": 166.66666666666424,
      "v": 108
    },
    {
      "midi": 63,
      "hit": false,
      "t": 62833.33333333333,
      "d": 166.66666666666424,
      "v": 108
    },
    {
      "midi": 66,
      "hit": false,
      "t": 62833.33333333333,
      "d": 166.66666666666424,
      "v": 108
    },
    {
      "midi": 61,
      "hit": false,
      "t": 62974.99999999995,
      "d": 191.66666666667152,
      "v": 107
    },
    {
      "midi": 66,
      "hit": false,
      "t": 62974.99999999995,
      "d": 1100.0000000000073,
      "v": 119
    },
    {
      "midi": 54,
      "hit": false,
      "t": 62999.99999999999,
      "d": 500,
      "v": 108
    },
    {
      "midi": 63,
      "hit": false,
      "t": 63145.833333333285,
      "d": 908.3333333333358,
      "v": 84
    },
    {
      "midi": 59,
      "hit": false,
      "t": 63333.33333333333,
      "d": 166.66666666666424,
      "v": 108
    },
    {
      "midi": 63,
      "hit": false,
      "t": 63333.33333333333,
      "d": 166.66666666666424,
      "v": 108
    },
    {
      "midi": 66,
      "hit": false,
      "t": 63333.33333333333,
      "d": 166.66666666666424,
      "v": 108
    },
    {
      "midi": 51,
      "hit": false,
      "t": 63499.99999999999,
      "d": 500,
      "v": 109
    },
    {
      "midi": 59,
      "hit": false,
      "t": 63833.33333333333,
      "d": 166.66666666666424,
      "v": 108
    },
    {
      "midi": 63,
      "hit": false,
      "t": 63833.33333333333,
      "d": 166.66666666666424,
      "v": 108
    },
    {
      "midi": 66,
      "hit": false,
      "t": 63833.33333333333,
      "d": 166.66666666666424,
      "v": 108
    },
    {
      "midi": 47,
      "hit": false,
      "t": 63999.99999999999,
      "d": 500,
      "v": 109
    },
    {
      "midi": 59,
      "hit": false,
      "t": 64333.33333333333,
      "d": 166.66666666666424,
      "v": 108
    },
    {
      "midi": 63,
      "hit": false,
      "t": 64333.33333333333,
      "d": 166.66666666666424,
      "v": 108
    },
    {
      "midi": 66,
      "hit": false,
      "t": 64333.33333333333,
      "d": 166.66666666666424,
      "v": 108
    },
    {
      "midi": 51,
      "hit": false,
      "t": 64499.99999999999,
      "d": 500,
      "v": 109
    },
    {
      "midi": 59,
      "hit": false,
      "t": 64833.33333333333,
      "d": 166.66666666666424,
      "v": 109
    },
    {
      "midi": 63,
      "hit": false,
      "t": 64833.33333333333,
      "d": 166.66666666666424,
      "v": 109
    },
    {
      "midi": 66,
      "hit": false,
      "t": 64833.33333333333,
      "d": 166.66666666666424,
      "v": 109
    },
    {
      "midi": 61,
      "hit": false,
      "t": 64854.16666666662,
      "d": 195.83333333332848,
      "v": 101
    },
    {
      "midi": 54,
      "hit": false,
      "t": 64999.99999999999,
      "d": 500,
      "v": 109
    },
    {
      "midi": 73,
      "hit": false,
      "t": 65016.66666666662,
      "d": 345.8333333333285,
      "v": 110
    },
    {
      "midi": 66,
      "hit": false,
      "t": 65020.833333333285,
      "d": 320.8333333333285,
      "v": 105
    },
    {
      "midi": 59,
      "hit": false,
      "t": 65333.33333333333,
      "d": 166.66666666666424,
      "v": 109
    },
    {
      "midi": 63,
      "hit": false,
      "t": 65333.33333333333,
      "d": 166.66666666666424,
      "v": 109
    },
    {
      "midi": 66,
      "hit": false,
      "t": 65333.33333333333,
      "d": 166.66666666666424,
      "v": 109
    },
    {
      "midi": 56,
      "hit": false,
      "t": 65499.99999999999,
      "d": 500.0000000000073,
      "v": 110
    },
    {
      "midi": 68,
      "hit": false,
      "t": 65512.49999999995,
      "d": 279.16666666666424,
      "v": 101
    },
    {
      "midi": 73,
      "hit": false,
      "t": 65512.49999999995,
      "d": 304.16666666666424,
      "v": 115
    },
    {
      "midi": 66,
      "hit": false,
      "t": 65833.33333333328,
      "d": 116.66666666667152,
      "v": 105
    },
    {
      "midi": 59,
      "hit": false,
      "t": 65833.33333333333,
      "d": 166.66666666667152,
      "v": 109
    },
    {
      "midi": 63,
      "hit": false,
      "t": 65833.33333333333,
      "d": 166.66666666667152,
      "v": 109
    },
    {
      "midi": 66,
      "hit": false,
      "t": 65833.33333333333,
      "d": 166.66666666667152,
      "v": 109
    },
    {
      "midi": 68,
      "hit": false,
      "t": 65999.99999999996,
      "d": 166.66666666667152,
      "v": 104
    },
    {
      "midi": 73,
      "hit": false,
      "t": 65999.99999999996,
      "d": 166.66666666667152,
      "v": 112
    },
    {
      "midi": 54,
      "hit": false,
      "t": 66000,
      "d": 500,
      "v": 110
    },
    {
      "midi": 70,
      "hit": false,
      "t": 66166.66666666663,
      "d": 166.66666666667152,
      "v": 110
    },
    {
      "midi": 70,
      "hit": false,
      "t": 66333.3333333333,
      "d": 166.66666666667152,
      "v": 105
    },
    {
      "midi": 73,
      "hit": false,
      "t": 66333.3333333333,
      "d": 166.66666666667152,
      "v": 101
    },
    {
      "midi": 58,
      "hit": false,
      "t": 66333.33333333333,
      "d": 166.66666666667152,
      "v": 109
    },
    {
      "midi": 61,
      "hit": false,
      "t": 66333.33333333333,
      "d": 166.66666666667152,
      "v": 109
    },
    {
      "midi": 66,
      "hit": false,
      "t": 66333.33333333333,
      "d": 166.66666666667152,
      "v": 109
    },
    {
      "midi": 73,
      "hit": false,
      "t": 66499.99999999997,
      "d": 333.3333333333285,
      "v": 101
    },
    {
      "midi": 78,
      "hit": false,
      "t": 66499.99999999997,
      "d": 333.3333333333285,
      "v": 110
    },
    {
      "midi": 51,
      "hit": false,
      "t": 66500,
      "d": 500,
      "v": 110
    },
    {
      "midi": 73,
      "hit": false,
      "t": 66833.3333333333,
      "d": 166.66666666667152,
      "v": 105
    },
    {
      "midi": 78,
      "hit": false,
      "t": 66833.3333333333,
      "d": 166.66666666667152,
      "v": 107
    },
    {
      "midi": 58,
      "hit": false,
      "t": 66833.33333333333,
      "d": 166.66666666667152,
      "v": 110
    },
    {
      "midi": 61,
      "hit": false,
      "t": 66833.33333333333,
      "d": 166.66666666667152,
      "v": 110
    },
    {
      "midi": 66,
      "hit": false,
      "t": 66833.33333333333,
      "d": 166.66666666667152,
      "v": 110
    },
    {
      "midi": 68,
      "hit": false,
      "t": 66999.99999999997,
      "d": 166.66666666667152,
      "v": 105
    },
    {
      "midi": 73,
      "hit": false,
      "t": 66999.99999999997,
      "d": 333.33333333334303,
      "v": 119
    },
    {
      "midi": 49,
      "hit": false,
      "t": 67000,
      "d": 500,
      "v": 110
    },
    {
      "midi": 70,
      "hit": false,
      "t": 67166.66666666664,
      "d": 166.66666666667152,
      "v": 72
    },
    {
      "midi": 70,
      "hit": false,
      "t": 67333.33333333331,
      "d": 166.66666666667152,
      "v": 117
    },
    {
      "midi": 73,
      "hit": false,
      "t": 67333.33333333331,
      "d": 166.66666666667152,
      "v": 115
    },
    {
      "midi": 58,
      "hit": false,
      "t": 67333.33333333333,
      "d": 166.66666666667152,
      "v": 110
    },
    {
      "midi": 61,
      "hit": false,
      "t": 67333.33333333333,
      "d": 166.66666666667152,
      "v": 110
    },
    {
      "midi": 66,
      "hit": false,
      "t": 67333.33333333333,
      "d": 166.66666666667152,
      "v": 110
    },
    {
      "midi": 66,
      "hit": false,
      "t": 67499.99999999999,
      "d": 166.66666666667152,
      "v": 98
    },
    {
      "midi": 73,
      "hit": false,
      "t": 67499.99999999999,
      "d": 166.66666666667152,
      "v": 105
    },
    {
      "midi": 46,
      "hit": false,
      "t": 67500,
      "d": 500,
      "v": 111
    },
    {
      "midi": 66,
      "hit": false,
      "t": 67833.33333333333,
      "d": 166.66666666667152,
      "v": 77
    },
    {
      "midi": 70,
      "hit": false,
      "t": 67833.33333333333,
      "d": 166.66666666667152,
      "v": 84
    },
    {
      "midi": 58,
      "hit": false,
      "t": 67833.33333333333,
      "d": 166.66666666667152,
      "v": 110
    },
    {
      "midi": 61,
      "hit": false,
      "t": 67833.33333333333,
      "d": 166.66666666667152,
      "v": 110
    },
    {
      "midi": 66,
      "hit": false,
      "t": 67833.33333333333,
      "d": 166.66666666667152,
      "v": 110
    },
    {
      "midi": 63,
      "hit": false,
      "t": 67995.83333333333,
      "d": 158.33333333334303,
      "v": 115
    },
    {
      "midi": 68,
      "hit": false,
      "t": 67995.83333333333,
      "d": 516.6666666666715,
      "v": 123
    },
    {
      "midi": 49,
      "hit": false,
      "t": 68000,
      "d": 500,
      "v": 111
    },
    {
      "midi": 65,
      "hit": false,
      "t": 68158.33333333334,
      "d": 333.3333333333285,
      "v": 65
    },
    {
      "midi": 56,
      "hit": false,
      "t": 68333.33333333333,
      "d": 166.66666666667152,
      "v": 110
    },
    {
      "midi": 61,
      "hit": false,
      "t": 68333.33333333333,
      "d": 166.66666666667152,
      "v": 110
    },
    {
      "midi": 65,
      "hit": false,
      "t": 68333.33333333333,
      "d": 166.66666666667152,
      "v": 110
    },
    {
      "midi": 53,
      "hit": false,
      "t": 68500,
      "d": 500,
      "v": 111
    },
    {
      "midi": 61,
      "hit": false,
      "t": 68512.5,
      "d": 187.5,
      "v": 101
    },
    {
      "midi": 56,
      "hit": false,
      "t": 68833.33333333333,
      "d": 166.66666666667152,
      "v": 111
    },
    {
      "midi": 61,
      "hit": false,
      "t": 68833.33333333333,
      "d": 166.66666666667152,
      "v": 111
    },
    {
      "midi": 65,
      "hit": false,
      "t": 68833.33333333333,
      "d": 166.66666666667152,
      "v": 111
    },
    {
      "midi": 61,
      "hit": false,
      "t": 68850,
      "d": 112.5,
      "v": 105
    },
    {
      "midi": 73,
      "hit": false,
      "t": 69012.5,
      "d": 275.0000000000291,
      "v": 105
    },
    {
      "midi": 68,
      "hit": false,
      "t": 69016.66666666667,
      "d": 133.33333333334303,
      "v": 98
    },
    {
      "midi": 70,
      "hit": false,
      "t": 69125.00000000001,
      "d": 133.33333333334303,
      "v": 94
    },
    {
      "midi": 68,
      "hit": false,
      "t": 69216.66666666669,
      "d": 116.66666666667152,
      "v": 76
    },
    {
      "midi": 65,
      "hit": false,
      "t": 69295.83333333336,
      "d": 70.83333333332848,
      "v": 81
    },
    {
      "midi": 56,
      "hit": false,
      "t": 69333.33333333333,
      "d": 166.66666666667152,
      "v": 111
    },
    {
      "midi": 61,
      "hit": false,
      "t": 69333.33333333333,
      "d": 166.66666666667152,
      "v": 111
    },
    {
      "midi": 65,
      "hit": false,
      "t": 69333.33333333333,
      "d": 166.66666666667152,
      "v": 111
    },
    {
      "midi": 61,
      "hit": false,
      "t": 69366.66666666669,
      "d": 100,
      "v": 68
    },
    {
      "midi": 53,
      "hit": false,
      "t": 69500,
      "d": 500,
      "v": 112
    },
    {
      "midi": 68,
      "hit": false,
      "t": 69525.00000000001,
      "d": 129.16666666667152,
      "v": 110
    },
    {
      "midi": 73,
      "hit": false,
      "t": 69525.00000000001,
      "d": 195.83333333334303,
      "v": 115
    },
    {
      "midi": 56,
      "hit": false,
      "t": 69833.33333333333,
      "d": 166.66666666667152,
      "v": 111
    },
    {
      "midi": 61,
      "hit": false,
      "t": 69833.33333333333,
      "d": 166.66666666667152,
      "v": 111
    },
    {
      "midi": 65,
      "hit": false,
      "t": 69833.33333333333,
      "d": 166.66666666667152,
      "v": 111
    },
    {
      "midi": 73,
      "hit": false,
      "t": 69841.66666666669,
      "d": 716.6666666666715,
      "v": 110
    },
    {
      "midi": 66,
      "hit": false,
      "t": 69841.66666666669,
      "d": 729.1666666666715,
      "v": 112
    },
    {
      "midi": 54,
      "hit": false,
      "t": 70000,
      "d": 500,
      "v": 112
    },
    {
      "midi": 58,
      "hit": false,
      "t": 70333.33333333333,
      "d": 166.66666666667152,
      "v": 112
    },
    {
      "midi": 61,
      "hit": false,
      "t": 70333.33333333333,
      "d": 166.66666666667152,
      "v": 112
    },
    {
      "midi": 66,
      "hit": false,
      "t": 70333.33333333333,
      "d": 166.66666666667152,
      "v": 112
    },
    {
      "midi": 51,
      "hit": false,
      "t": 70500,
      "d": 500,
      "v": 112
    },
    {
      "midi": 58,
      "hit": false,
      "t": 70833.33333333333,
      "d": 166.66666666667152,
      "v": 112
    },
    {
      "midi": 61,
      "hit": false,
      "t": 70833.33333333333,
      "d": 166.66666666667152,
      "v": 112
    },
    {
      "midi": 66,
      "hit": false,
      "t": 70833.33333333333,
      "d": 166.66666666667152,
      "v": 112
    },
    {
      "midi": 54,
      "hit": false,
      "t": 70833.33333333336,
      "d": 166.66666666665697,
      "v": 70
    },
    {
      "midi": 49,
      "hit": false,
      "t": 71000,
      "d": 500,
      "v": 113
    },
    {
      "midi": 66,
      "hit": false,
      "t": 71000.00000000001,
      "d": 333.3333333333285,
      "v": 101
    },
    {
      "midi": 61,
      "hit": false,
      "t": 71000.00000000001,
      "d": 500,
      "v": 101
    },
    {
      "midi": 58,
      "hit": false,
      "t": 71333.33333333333,
      "d": 166.66666666667152,
      "v": 112
    },
    {
      "midi": 61,
      "hit": false,
      "t": 71333.33333333333,
      "d": 166.66666666667152,
      "v": 112
    },
    {
      "midi": 66,
      "hit": false,
      "t": 71333.33333333333,
      "d": 166.66666666667152,
      "v": 112
    },
    {
      "midi": 46,
      "hit": false,
      "t": 71500,
      "d": 500,
      "v": 113
    },
    {
      "midi": 59,
      "hit": false,
      "t": 71500.00000000001,
      "d": 333.3333333333285,
      "v": 110
    },
    {
      "midi": 58,
      "hit": false,
      "t": 71833.33333333333,
      "d": 166.66666666667152,
      "v": 112
    },
    {
      "midi": 61,
      "hit": false,
      "t": 71833.33333333333,
      "d": 166.66666666667152,
      "v": 112
    },
    {
      "midi": 66,
      "hit": false,
      "t": 71833.33333333333,
      "d": 166.66666666667152,
      "v": 112
    },
    {
      "midi": 57,
      "hit": false,
      "t": 71833.33333333334,
      "d": 166.66666666667152,
      "v": 93
    },
    {
      "midi": 42,
      "hit": false,
      "t": 72000,
      "d": 500,
      "v": 113
    },
    {
      "midi": 58,
      "hit": false,
      "t": 72000.00000000001,
      "d": 833.3333333333139,
      "v": 104
    },
    {
      "midi": 58,
      "hit": false,
      "t": 72333.33333333333,
      "d": 166.66666666667152,
      "v": 113
    },
    {
      "midi": 61,
      "hit": false,
      "t": 72333.33333333333,
      "d": 166.66666666667152,
      "v": 113
    },
    {
      "midi": 66,
      "hit": false,
      "t": 72333.33333333333,
      "d": 166.66666666667152,
      "v": 113
    },
    {
      "midi": 66,
      "hit": false,
      "t": 72333.33333333334,
      "d": 499.99999999998545,
      "v": 101
    },
    {
      "midi": 42,
      "hit": false,
      "t": 72500,
      "d": 500,
      "v": 94
    },
    {
      "midi": 58,
      "hit": false,
      "t": 72833.33333333333,
      "d": 166.66666666667152,
      "v": 113
    },
    {
      "midi": 61,
      "hit": false,
      "t": 72833.33333333333,
      "d": 166.66666666667152,
      "v": 113
    },
    {
      "midi": 66,
      "hit": false,
      "t": 72833.33333333333,
      "d": 166.66666666667152,
      "v": 113
    },
    {
      "midi": 44,
      "hit": false,
      "t": 73000,
      "d": 500,
      "v": 97
    },
    {
      "midi": 58,
      "hit": false,
      "t": 73333.33333333333,
      "d": 166.66666666667152,
      "v": 113
    },
    {
      "midi": 61,
      "hit": false,
      "t": 73333.33333333333,
      "d": 166.66666666667152,
      "v": 113
    },
    {
      "midi": 66,
      "hit": false,
      "t": 73333.33333333333,
      "d": 166.66666666667152,
      "v": 113
    },
    {
      "midi": 66,
      "hit": false,
      "t": 73500,
      "d": 166.66666666667152,
      "v": 110
    },
    {
      "midi": 46,
      "hit": false,
      "t": 73500,
      "d": 500,
      "v": 104
    },
    {
      "midi": 65,
      "hit": false,
      "t": 73666.66666666667,
      "d": 166.66666666667152,
      "v": 104
    },
    {
      "midi": 58,
      "hit": false,
      "t": 73833.33333333333,
      "d": 166.66666666667152,
      "v": 113
    },
    {
      "midi": 61,
      "hit": false,
      "t": 73833.33333333333,
      "d": 166.66666666667152,
      "v": 113
    },
    {
      "midi": 66,
      "hit": false,
      "t": 73833.33333333333,
      "d": 166.66666666667152,
      "v": 113
    },
    {
      "midi": 64,
      "hit": false,
      "t": 73833.33333333334,
      "d": 166.66666666667152,
      "v": 95
    },
    {
      "midi": 47,
      "hit": false,
      "t": 74000,
      "d": 500,
      "v": 97
    },
    {
      "midi": 61,
      "hit": false,
      "t": 74000.00000000001,
      "d": 166.66666666667152,
      "v": 110
    },
    {
      "midi": 66,
      "hit": false,
      "t": 74000.00000000001,
      "d": 666.6666666666715,
      "v": 110
    },
    {
      "midi": 63,
      "hit": false,
      "t": 74166.66666666669,
      "d": 500,
      "v": 111
    },
    {
      "midi": 59,
      "hit": false,
      "t": 74333.33333333333,
      "d": 166.66666666667152,
      "v": 97
    },
    {
      "midi": 63,
      "hit": false,
      "t": 74333.33333333333,
      "d": 166.66666666667152,
      "v": 97
    },
    {
      "midi": 66,
      "hit": false,
      "t": 74333.33333333333,
      "d": 166.66666666667152,
      "v": 97
    },
    {
      "midi": 51,
      "hit": false,
      "t": 74500,
      "d": 500,
      "v": 97
    },
    {
      "midi": 59,
      "hit": false,
      "t": 74833.33333333333,
      "d": 166.66666666667152,
      "v": 97
    },
    {
      "midi": 63,
      "hit": false,
      "t": 74833.33333333333,
      "d": 166.66666666667152,
      "v": 97
    },
    {
      "midi": 66,
      "hit": false,
      "t": 74833.33333333333,
      "d": 166.66666666667152,
      "v": 97
    },
    {
      "midi": 63,
      "hit": false,
      "t": 74833.33333333336,
      "d": 166.66666666667152,
      "v": 116
    },
    {
      "midi": 66,
      "hit": false,
      "t": 74833.33333333336,
      "d": 166.66666666667152,
      "v": 116
    },
    {
      "midi": 54,
      "hit": false,
      "t": 75000,
      "d": 500,
      "v": 98
    },
    {
      "midi": 71,
      "hit": false,
      "t": 75000.00000000003,
      "d": 495.8333333333285,
      "v": 118
    },
    {
      "midi": 66,
      "hit": false,
      "t": 75000.00000000003,
      "d": 500,
      "v": 118
    },
    {
      "midi": 59,
      "hit": false,
      "t": 75333.33333333333,
      "d": 166.66666666667152,
      "v": 98
    },
    {
      "midi": 63,
      "hit": false,
      "t": 75333.33333333333,
      "d": 166.66666666667152,
      "v": 98
    },
    {
      "midi": 66,
      "hit": false,
      "t": 75333.33333333333,
      "d": 166.66666666667152,
      "v": 98
    },
    {
      "midi": 51,
      "hit": false,
      "t": 75500,
      "d": 500,
      "v": 98
    },
    {
      "midi": 66,
      "hit": false,
      "t": 75500.00000000003,
      "d": 333.3333333333285,
      "v": 123
    },
    {
      "midi": 71,
      "hit": false,
      "t": 75500.00000000003,
      "d": 333.3333333333285,
      "v": 123
    },
    {
      "midi": 59,
      "hit": false,
      "t": 75833.33333333333,
      "d": 166.66666666667152,
      "v": 98
    },
    {
      "midi": 63,
      "hit": false,
      "t": 75833.33333333333,
      "d": 166.66666666667152,
      "v": 98
    },
    {
      "midi": 66,
      "hit": false,
      "t": 75833.33333333333,
      "d": 166.66666666667152,
      "v": 98
    },
    {
      "midi": 70,
      "hit": false,
      "t": 75833.33333333336,
      "d": 125,
      "v": 125
    },
    {
      "midi": 75,
      "hit": false,
      "t": 75833.33333333336,
      "d": 1166.6666666666715,
      "v": 125
    },
    {
      "midi": 71,
      "hit": false,
      "t": 75958.33333333336,
      "d": 1000,
      "v": 127
    },
    {
      "midi": 47,
      "hit": false,
      "t": 76000,
      "d": 500,
      "v": 99
    },
    {
      "midi": 59,
      "hit": false,
      "t": 76333.33333333333,
      "d": 166.66666666667152,
      "v": 99
    },
    {
      "midi": 63,
      "hit": false,
      "t": 76333.33333333333,
      "d": 166.66666666667152,
      "v": 99
    },
    {
      "midi": 66,
      "hit": false,
      "t": 76333.33333333333,
      "d": 166.66666666667152,
      "v": 99
    },
    {
      "midi": 47,
      "hit": false,
      "t": 76500,
      "d": 500,
      "v": 99
    },
    {
      "midi": 59,
      "hit": false,
      "t": 76833.33333333333,
      "d": 166.66666666667152,
      "v": 100
    },
    {
      "midi": 63,
      "hit": false,
      "t": 76833.33333333333,
      "d": 166.66666666667152,
      "v": 100
    },
    {
      "midi": 66,
      "hit": false,
      "t": 76833.33333333333,
      "d": 166.66666666667152,
      "v": 100
    },
    {
      "midi": 46,
      "hit": false,
      "t": 77000,
      "d": 500,
      "v": 100
    },
    {
      "midi": 59,
      "hit": false,
      "t": 77333.33333333333,
      "d": 166.66666666667152,
      "v": 100
    },
    {
      "midi": 63,
      "hit": false,
      "t": 77333.33333333333,
      "d": 166.66666666667152,
      "v": 100
    },
    {
      "midi": 66,
      "hit": false,
      "t": 77333.33333333333,
      "d": 166.66666666667152,
      "v": 100
    },
    {
      "midi": 44,
      "hit": false,
      "t": 77500,
      "d": 500,
      "v": 101
    },
    {
      "midi": 61,
      "hit": false,
      "t": 77500.00000000003,
      "d": 166.66666666667152,
      "v": 110
    },
    {
      "midi": 66,
      "hit": false,
      "t": 77500.00000000003,
      "d": 500,
      "v": 110
    },
    {
      "midi": 63,
      "hit": false,
      "t": 77666.6666666667,
      "d": 333.3333333333285,
      "v": 110
    },
    {
      "midi": 59,
      "hit": false,
      "t": 77833.33333333333,
      "d": 166.66666666667152,
      "v": 101
    },
    {
      "midi": 63,
      "hit": false,
      "t": 77833.33333333333,
      "d": 166.66666666667152,
      "v": 101
    },
    {
      "midi": 66,
      "hit": false,
      "t": 77833.33333333333,
      "d": 166.66666666667152,
      "v": 101
    },
    {
      "midi": 42,
      "hit": false,
      "t": 78000,
      "d": 500,
      "v": 101
    },
    {
      "midi": 61,
      "hit": false,
      "t": 78000.00000000003,
      "d": 333.3333333333285,
      "v": 110
    },
    {
      "midi": 66,
      "hit": false,
      "t": 78000.00000000003,
      "d": 333.3333333333285,
      "v": 110
    },
    {
      "midi": 58,
      "hit": false,
      "t": 78333.33333333333,
      "d": 166.66666666667152,
      "v": 101
    },
    {
      "midi": 61,
      "hit": false,
      "t": 78333.33333333333,
      "d": 166.66666666667152,
      "v": 101
    },
    {
      "midi": 66,
      "hit": false,
      "t": 78333.33333333333,
      "d": 166.66666666667152,
      "v": 101
    },
    {
      "midi": 46,
      "hit": false,
      "t": 78500,
      "d": 500,
      "v": 102
    },
    {
      "midi": 58,
      "hit": false,
      "t": 78833.33333333333,
      "d": 166.66666666667152,
      "v": 102
    },
    {
      "midi": 61,
      "hit": false,
      "t": 78833.33333333333,
      "d": 166.66666666667152,
      "v": 102
    },
    {
      "midi": 66,
      "hit": false,
      "t": 78833.33333333333,
      "d": 166.66666666667152,
      "v": 102
    },
    {
      "midi": 61,
      "hit": false,
      "t": 78833.33333333336,
      "d": 166.66666666667152,
      "v": 112
    },
    {
      "midi": 49,
      "hit": false,
      "t": 79000,
      "d": 500,
      "v": 102
    },
    {
      "midi": 66,
      "hit": false,
      "t": 79000.00000000003,
      "d": 333.3333333333285,
      "v": 112
    },
    {
      "midi": 73,
      "hit": false,
      "t": 79000.00000000003,
      "d": 333.3333333333285,
      "v": 112
    },
    {
      "midi": 58,
      "hit": false,
      "t": 79333.33333333333,
      "d": 166.66666666667152,
      "v": 103
    },
    {
      "midi": 61,
      "hit": false,
      "t": 79333.33333333333,
      "d": 166.66666666667152,
      "v": 103
    },
    {
      "midi": 66,
      "hit": false,
      "t": 79333.33333333333,
      "d": 166.66666666667152,
      "v": 103
    },
    {
      "midi": 61,
      "hit": false,
      "t": 79333.33333333336,
      "d": 166.66666666667152,
      "v": 113
    },
    {
      "midi": 46,
      "hit": false,
      "t": 79500,
      "d": 500,
      "v": 103
    },
    {
      "midi": 68,
      "hit": false,
      "t": 79500.00000000003,
      "d": 333.3333333333285,
      "v": 113
    },
    {
      "midi": 73,
      "hit": false,
      "t": 79500.00000000003,
      "d": 333.3333333333285,
      "v": 113
    },
    {
      "midi": 58,
      "hit": false,
      "t": 79833.33333333333,
      "d": 166.66666666667152,
      "v": 103
    },
    {
      "midi": 61,
      "hit": false,
      "t": 79833.33333333333,
      "d": 166.66666666667152,
      "v": 103
    },
    {
      "midi": 66,
      "hit": false,
      "t": 79833.33333333333,
      "d": 166.66666666667152,
      "v": 103
    },
    {
      "midi": 68,
      "hit": false,
      "t": 79833.33333333336,
      "d": 166.66666666667152,
      "v": 113
    },
    {
      "midi": 73,
      "hit": false,
      "t": 79833.33333333336,
      "d": 1000,
      "v": 113
    },
    {
      "midi": 42,
      "hit": false,
      "t": 80000,
      "d": 500,
      "v": 103
    },
    {
      "midi": 70,
      "hit": false,
      "t": 80000.00000000003,
      "d": 833.3333333333285,
      "v": 114
    },
    {
      "midi": 58,
      "hit": false,
      "t": 80333.33333333333,
      "d": 166.66666666667152,
      "v": 104
    },
    {
      "midi": 61,
      "hit": false,
      "t": 80333.33333333333,
      "d": 166.66666666667152,
      "v": 104
    },
    {
      "midi": 66,
      "hit": false,
      "t": 80333.33333333333,
      "d": 166.66666666667152,
      "v": 104
    },
    {
      "midi": 41,
      "hit": false,
      "t": 80500,
      "d": 500,
      "v": 104
    },
    {
      "midi": 58,
      "hit": false,
      "t": 80833.33333333333,
      "d": 166.66666666667152,
      "v": 105
    },
    {
      "midi": 61,
      "hit": false,
      "t": 80833.33333333333,
      "d": 166.66666666667152,
      "v": 105
    },
    {
      "midi": 66,
      "hit": false,
      "t": 80833.33333333333,
      "d": 166.66666666667152,
      "v": 105
    },
    {
      "midi": 42,
      "hit": false,
      "t": 81000,
      "d": 500,
      "v": 105
    },
    {
      "midi": 70,
      "hit": false,
      "t": 81000.00000000003,
      "d": 125,
      "v": 116
    },
    {
      "midi": 73,
      "hit": false,
      "t": 81000.00000000003,
      "d": 125,
      "v": 116
    },
    {
      "midi": 58,
      "hit": false,
      "t": 81333.33333333333,
      "d": 166.66666666667152,
      "v": 105
    },
    {
      "midi": 61,
      "hit": false,
      "t": 81333.33333333333,
      "d": 166.66666666667152,
      "v": 105
    },
    {
      "midi": 66,
      "hit": false,
      "t": 81333.33333333333,
      "d": 166.66666666667152,
      "v": 105
    },
    {
      "midi": 43,
      "hit": false,
      "t": 81500,
      "d": 500,
      "v": 105
    },
    {
      "midi": 71,
      "hit": false,
      "t": 81500.00000000003,
      "d": 125,
      "v": 116
    },
    {
      "midi": 74,
      "hit": false,
      "t": 81500.00000000003,
      "d": 125,
      "v": 116
    },
    {
      "midi": 59,
      "hit": false,
      "t": 81833.33333333333,
      "d": 166.66666666667152,
      "v": 106
    },
    {
      "midi": 62,
      "hit": false,
      "t": 81833.33333333333,
      "d": 166.66666666667152,
      "v": 106
    },
    {
      "midi": 67,
      "hit": false,
      "t": 81833.33333333333,
      "d": 166.66666666667152,
      "v": 106
    },
    {
      "midi": 44,
      "hit": false,
      "t": 82000,
      "d": 500,
      "v": 106
    },
    {
      "midi": 72,
      "hit": false,
      "t": 82000.00000000003,
      "d": 333.33333333334303,
      "v": 117
    },
    {
      "midi": 75,
      "hit": false,
      "t": 82000.00000000003,
      "d": 333.33333333334303,
      "v": 117
    },
    {
      "midi": 60,
      "hit": false,
      "t": 82333.33333333333,
      "d": 166.66666666667152,
      "v": 106
    },
    {
      "midi": 63,
      "hit": false,
      "t": 82333.33333333333,
      "d": 166.66666666667152,
      "v": 106
    },
    {
      "midi": 68,
      "hit": false,
      "t": 82333.33333333333,
      "d": 166.66666666667152,
      "v": 106
    },
    {
      "midi": 72,
      "hit": false,
      "t": 82333.33333333337,
      "d": 166.66666666667152,
      "v": 118
    },
    {
      "midi": 75,
      "hit": false,
      "t": 82333.33333333337,
      "d": 166.66666666667152,
      "v": 118
    },
    {
      "midi": 48,
      "hit": false,
      "t": 82500,
      "d": 500,
      "v": 106
    },
    {
      "midi": 70,
      "hit": false,
      "t": 82500.00000000004,
      "d": 500,
      "v": 118
    },
    {
      "midi": 73,
      "hit": false,
      "t": 82500.00000000004,
      "d": 500,
      "v": 118
    },
    {
      "midi": 60,
      "hit": false,
      "t": 82833.33333333333,
      "d": 166.66666666667152,
      "v": 107
    },
    {
      "midi": 63,
      "hit": false,
      "t": 82833.33333333333,
      "d": 166.66666666667152,
      "v": 107
    },
    {
      "midi": 68,
      "hit": false,
      "t": 82833.33333333333,
      "d": 166.66666666667152,
      "v": 107
    },
    {
      "midi": 51,
      "hit": false,
      "t": 83000,
      "d": 500,
      "v": 107
    },
    {
      "midi": 68,
      "hit": false,
      "t": 83000.00000000004,
      "d": 166.66666666667152,
      "v": 119
    },
    {
      "midi": 72,
      "hit": false,
      "t": 83000.00000000004,
      "d": 166.66666666667152,
      "v": 119
    },
    {
      "midi": 60,
      "hit": false,
      "t": 83333.33333333333,
      "d": 166.66666666667152,
      "v": 108
    },
    {
      "midi": 63,
      "hit": false,
      "t": 83333.33333333333,
      "d": 166.66666666667152,
      "v": 108
    },
    {
      "midi": 68,
      "hit": false,
      "t": 83333.33333333333,
      "d": 166.66666666667152,
      "v": 108
    },
    {
      "midi": 53,
      "hit": false,
      "t": 83500,
      "d": 500,
      "v": 108
    },
    {
      "midi": 67,
      "hit": false,
      "t": 83500.00000000004,
      "d": 166.66666666665697,
      "v": 120
    },
    {
      "midi": 71,
      "hit": false,
      "t": 83500.00000000004,
      "d": 166.66666666665697,
      "v": 120
    },
    {
      "midi": 60,
      "hit": false,
      "t": 83833.33333333333,
      "d": 166.66666666667152,
      "v": 108
    },
    {
      "midi": 63,
      "hit": false,
      "t": 83833.33333333333,
      "d": 166.66666666667152,
      "v": 108
    },
    {
      "midi": 68,
      "hit": false,
      "t": 83833.33333333333,
      "d": 166.66666666667152,
      "v": 108
    },
    {
      "midi": 66,
      "hit": false,
      "t": 83833.33333333337,
      "d": 333.3333333333285,
      "v": 120
    },
    {
      "midi": 70,
      "hit": false,
      "t": 83833.33333333337,
      "d": 333.3333333333285,
      "v": 120
    },
    {
      "midi": 56,
      "hit": false,
      "t": 84000,
      "d": 166.66666666667152,
      "v": 108
    },
    {
      "midi": 56,
      "hit": false,
      "t": 84333.33333333334,
      "d": 166.66666666667152,
      "v": 109
    },
    {
      "midi": 60,
      "hit": false,
      "t": 84333.33333333334,
      "d": 166.66666666667152,
      "v": 109
    },
    {
      "midi": 63,
      "hit": false,
      "t": 84333.33333333334,
      "d": 166.66666666667152,
      "v": 109
    },
    {
      "midi": 68,
      "hit": false,
      "t": 84333.33333333334,
      "d": 166.66666666667152,
      "v": 109
    },
    {
      "midi": 63,
      "hit": false,
      "t": 84333.33333333337,
      "d": 333.3333333333285,
      "v": 121
    },
    {
      "midi": 68,
      "hit": false,
      "t": 84333.33333333337,
      "d": 333.3333333333285,
      "v": 121
    },
    {
      "midi": 54,
      "hit": false,
      "t": 84500.00000000001,
      "d": 500,
      "v": 109
    },
    {
      "midi": 60,
      "hit": false,
      "t": 84833.33333333334,
      "d": 166.66666666667152,
      "v": 110
    },
    {
      "midi": 63,
      "hit": false,
      "t": 84833.33333333334,
      "d": 166.66666666667152,
      "v": 110
    },
    {
      "midi": 68,
      "hit": false,
      "t": 84833.33333333334,
      "d": 166.66666666667152,
      "v": 110
    },
    {
      "midi": 53,
      "hit": false,
      "t": 85000.00000000001,
      "d": 500,
      "v": 109
    },
    {
      "midi": 68,
      "hit": false,
      "t": 85000.00000000003,
      "d": 166.66666666667152,
      "v": 122
    },
    {
      "midi": 73,
      "hit": false,
      "t": 85000.00000000003,
      "d": 500,
      "v": 122
    },
    {
      "midi": 70,
      "hit": false,
      "t": 85166.6666666667,
      "d": 166.66666666665697,
      "v": 122
    },
    {
      "midi": 60,
      "hit": false,
      "t": 85333.33333333334,
      "d": 166.66666666667152,
      "v": 110
    },
    {
      "midi": 63,
      "hit": false,
      "t": 85333.33333333334,
      "d": 166.66666666667152,
      "v": 110
    },
    {
      "midi": 68,
      "hit": false,
      "t": 85333.33333333334,
      "d": 166.66666666667152,
      "v": 110
    },
    {
      "midi": 51,
      "hit": false,
      "t": 85500.00000000001,
      "d": 500,
      "v": 110
    },
    {
      "midi": 69,
      "hit": false,
      "t": 85500.00000000003,
      "d": 333.3333333333285,
      "v": 123
    },
    {
      "midi": 60,
      "hit": false,
      "t": 85833.33333333334,
      "d": 166.66666666667152,
      "v": 111
    },
    {
      "midi": 63,
      "hit": false,
      "t": 85833.33333333334,
      "d": 166.66666666667152,
      "v": 111
    },
    {
      "midi": 68,
      "hit": false,
      "t": 85833.33333333334,
      "d": 166.66666666667152,
      "v": 111
    },
    {
      "midi": 68,
      "hit": false,
      "t": 85833.33333333336,
      "d": 1500,
      "v": 124
    },
    {
      "midi": 71,
      "hit": false,
      "t": 85833.33333333336,
      "d": 1500,
      "v": 124
    },
    {
      "midi": 49,
      "hit": false,
      "t": 86000.00000000001,
      "d": 500,
      "v": 110
    },
    {
      "midi": 61,
      "hit": false,
      "t": 86333.33333333334,
      "d": 166.66666666667152,
      "v": 111
    },
    {
      "midi": 65,
      "hit": false,
      "t": 86333.33333333334,
      "d": 166.66666666667152,
      "v": 111
    },
    {
      "midi": 68,
      "hit": false,
      "t": 86333.33333333334,
      "d": 166.66666666667152,
      "v": 111
    },
    {
      "midi": 53,
      "hit": false,
      "t": 86500.00000000001,
      "d": 500,
      "v": 111
    },
    {
      "midi": 61,
      "hit": false,
      "t": 86833.33333333334,
      "d": 166.66666666667152,
      "v": 112
    },
    {
      "midi": 65,
      "hit": false,
      "t": 86833.33333333334,
      "d": 166.66666666667152,
      "v": 112
    },
    {
      "midi": 68,
      "hit": false,
      "t": 86833.33333333334,
      "d": 166.66666666667152,
      "v": 112
    },
    {
      "midi": 56,
      "hit": false,
      "t": 87000.00000000001,
      "d": 500,
      "v": 112
    },
    {
      "midi": 61,
      "hit": false,
      "t": 87333.33333333334,
      "d": 166.66666666667152,
      "v": 113
    },
    {
      "midi": 65,
      "hit": false,
      "t": 87333.33333333334,
      "d": 166.66666666667152,
      "v": 113
    },
    {
      "midi": 68,
      "hit": false,
      "t": 87333.33333333334,
      "d": 166.66666666667152,
      "v": 113
    },
    {
      "midi": 58,
      "hit": false,
      "t": 87500.00000000001,
      "d": 500,
      "v": 112
    },
    {
      "midi": 61,
      "hit": false,
      "t": 87833.33333333334,
      "d": 166.66666666667152,
      "v": 113
    },
    {
      "midi": 65,
      "hit": false,
      "t": 87833.33333333334,
      "d": 166.66666666667152,
      "v": 113
    },
    {
      "midi": 68,
      "hit": false,
      "t": 87833.33333333334,
      "d": 166.66666666667152,
      "v": 113
    },
    {
      "midi": 61,
      "hit": false,
      "t": 88000.00000000001,
      "d": 83.33333333332848,
      "v": 113
    },
    {
      "midi": 56,
      "hit": false,
      "t": 88166.66666666667,
      "d": 83.33333333332848,
      "v": 113
    },
    {
      "midi": 53,
      "hit": false,
      "t": 88333.33333333333,
      "d": 83.33333333332848,
      "v": 113
    },
    {
      "midi": 49,
      "hit": false,
      "t": 88499.99999999999,
      "d": 166.66666666667152,
      "v": 113
    },
    {
      "midi": 68,
      "hit": false,
      "t": 89000.00000000003,
      "d": 166.66666666667152,
      "v": 101
    },
    {
      "midi": 73,
      "hit": false,
      "t": 89000.00000000003,
      "d": 1000.0000000000146,
      "v": 112
    },
    {
      "midi": 70,
      "hit": false,
      "t": 89166.6666666667,
      "d": 666.6666666666715,
      "v": 68
    },
    {
      "midi": 68,
      "hit": false,
      "t": 89833.33333333337,
      "d": 166.66666666667152,
      "v": 117
    },
    {
      "midi": 42,
      "hit": false,
      "t": 89999.99999999999,
      "d": 500,
      "v": 97
    },
    {
      "midi": 73,
      "hit": false,
      "t": 90000.00000000004,
      "d": 329.1666666666715,
      "v": 85
    },
    {
      "midi": 66,
      "hit": false,
      "t": 90000.00000000004,
      "d": 333.33333333334303,
      "v": 105
    },
    {
      "midi": 58,
      "hit": false,
      "t": 90333.33333333331,
      "d": 166.66666666667152,
      "v": 97
    },
    {
      "midi": 61,
      "hit": false,
      "t": 90333.33333333331,
      "d": 166.66666666667152,
      "v": 97
    },
    {
      "midi": 66,
      "hit": false,
      "t": 90333.33333333331,
      "d": 166.66666666667152,
      "v": 97
    },
    {
      "midi": 61,
      "hit": false,
      "t": 90333.33333333339,
      "d": 2166.6666666666715,
      "v": 115
    },
    {
      "midi": 66,
      "hit": false,
      "t": 90333.33333333339,
      "d": 2166.6666666666715,
      "v": 104
    },
    {
      "midi": 46,
      "hit": false,
      "t": 90499.99999999999,
      "d": 500,
      "v": 97
    },
    {
      "midi": 58,
      "hit": false,
      "t": 90833.33333333331,
      "d": 166.66666666667152,
      "v": 97
    },
    {
      "midi": 61,
      "hit": false,
      "t": 90833.33333333331,
      "d": 166.66666666667152,
      "v": 97
    },
    {
      "midi": 66,
      "hit": false,
      "t": 90833.33333333331,
      "d": 166.66666666667152,
      "v": 97
    },
    {
      "midi": 49,
      "hit": false,
      "t": 90999.99999999999,
      "d": 500,
      "v": 97
    },
    {
      "midi": 58,
      "hit": false,
      "t": 91333.33333333331,
      "d": 166.66666666667152,
      "v": 97
    },
    {
      "midi": 61,
      "hit": false,
      "t": 91333.33333333331,
      "d": 166.66666666667152,
      "v": 97
    },
    {
      "midi": 66,
      "hit": false,
      "t": 91333.33333333331,
      "d": 166.66666666667152,
      "v": 97
    },
    {
      "midi": 46,
      "hit": false,
      "t": 91499.99999999999,
      "d": 500,
      "v": 97
    },
    {
      "midi": 58,
      "hit": false,
      "t": 91833.33333333331,
      "d": 166.66666666667152,
      "v": 97
    },
    {
      "midi": 61,
      "hit": false,
      "t": 91833.33333333331,
      "d": 166.66666666667152,
      "v": 97
    },
    {
      "midi": 66,
      "hit": false,
      "t": 91833.33333333331,
      "d": 166.66666666667152,
      "v": 97
    },
    {
      "midi": 42,
      "hit": false,
      "t": 91999.99999999999,
      "d": 500,
      "v": 98
    },
    {
      "midi": 58,
      "hit": false,
      "t": 92333.33333333331,
      "d": 166.66666666667152,
      "v": 98
    },
    {
      "midi": 61,
      "hit": false,
      "t": 92333.33333333331,
      "d": 166.66666666667152,
      "v": 98
    },
    {
      "midi": 66,
      "hit": false,
      "t": 92333.33333333331,
      "d": 166.66666666667152,
      "v": 98
    },
    {
      "midi": 46,
      "hit": false,
      "t": 92499.99999999999,
      "d": 500,
      "v": 98
    },
    {
      "midi": 58,
      "hit": false,
      "t": 92833.33333333331,
      "d": 166.66666666667152,
      "v": 98
    },
    {
      "midi": 61,
      "hit": false,
      "t": 92833.33333333331,
      "d": 166.66666666667152,
      "v": 98
    },
    {
      "midi": 66,
      "hit": false,
      "t": 92833.33333333331,
      "d": 166.66666666667152,
      "v": 98
    },
    {
      "midi": 49,
      "hit": false,
      "t": 92999.99999999999,
      "d": 500,
      "v": 98
    },
    {
      "midi": 70,
      "hit": false,
      "t": 93000.00000000006,
      "d": 166.66666666667152,
      "v": 117
    },
    {
      "midi": 75,
      "hit": false,
      "t": 93000.00000000006,
      "d": 170.83333333334303,
      "v": 107
    },
    {
      "midi": 71,
      "hit": false,
      "t": 93166.66666666673,
      "d": 145.83333333334303,
      "v": 103
    },
    {
      "midi": 58,
      "hit": false,
      "t": 93333.33333333331,
      "d": 166.66666666667152,
      "v": 98
    },
    {
      "midi": 61,
      "hit": false,
      "t": 93333.33333333331,
      "d": 166.66666666667152,
      "v": 98
    },
    {
      "midi": 66,
      "hit": false,
      "t": 93333.33333333331,
      "d": 166.66666666667152,
      "v": 98
    },
    {
      "midi": 46,
      "hit": false,
      "t": 93499.99999999999,
      "d": 500,
      "v": 98
    },
    {
      "midi": 70,
      "hit": false,
      "t": 93550.00000000007,
      "d": 137.5,
      "v": 105
    },
    {
      "midi": 58,
      "hit": false,
      "t": 93833.33333333331,
      "d": 166.66666666667152,
      "v": 98
    },
    {
      "midi": 61,
      "hit": false,
      "t": 93833.33333333331,
      "d": 166.66666666667152,
      "v": 98
    },
    {
      "midi": 66,
      "hit": false,
      "t": 93833.33333333331,
      "d": 166.66666666667152,
      "v": 98
    },
    {
      "midi": 68,
      "hit": false,
      "t": 93858.3333333334,
      "d": 2241.6666666666715,
      "v": 110
    },
    {
      "midi": 71,
      "hit": false,
      "t": 93858.3333333334,
      "d": 2241.6666666666715,
      "v": 101
    },
    {
      "midi": 44,
      "hit": false,
      "t": 93999.99999999999,
      "d": 500,
      "v": 99
    },
    {
      "midi": 59,
      "hit": false,
      "t": 94333.33333333331,
      "d": 166.66666666667152,
      "v": 99
    },
    {
      "midi": 63,
      "hit": false,
      "t": 94333.33333333331,
      "d": 166.66666666667152,
      "v": 99
    },
    {
      "midi": 68,
      "hit": false,
      "t": 94333.33333333331,
      "d": 166.66666666667152,
      "v": 99
    },
    {
      "midi": 47,
      "hit": false,
      "t": 94499.99999999999,
      "d": 500,
      "v": 99
    },
    {
      "midi": 59,
      "hit": false,
      "t": 94833.33333333331,
      "d": 166.66666666667152,
      "v": 99
    },
    {
      "midi": 63,
      "hit": false,
      "t": 94833.33333333331,
      "d": 166.66666666667152,
      "v": 99
    },
    {
      "midi": 68,
      "hit": false,
      "t": 94833.33333333331,
      "d": 166.66666666667152,
      "v": 99
    },
    {
      "midi": 51,
      "hit": false,
      "t": 94999.99999999999,
      "d": 500,
      "v": 99
    },
    {
      "midi": 59,
      "hit": false,
      "t": 95333.33333333331,
      "d": 166.66666666667152,
      "v": 99
    },
    {
      "midi": 63,
      "hit": false,
      "t": 95333.33333333331,
      "d": 166.66666666667152,
      "v": 99
    },
    {
      "midi": 68,
      "hit": false,
      "t": 95333.33333333331,
      "d": 166.66666666667152,
      "v": 99
    },
    {
      "midi": 47,
      "hit": false,
      "t": 95499.99999999999,
      "d": 500,
      "v": 100
    },
    {
      "midi": 59,
      "hit": false,
      "t": 95833.33333333331,
      "d": 166.66666666667152,
      "v": 99
    },
    {
      "midi": 63,
      "hit": false,
      "t": 95833.33333333331,
      "d": 166.66666666667152,
      "v": 99
    },
    {
      "midi": 68,
      "hit": false,
      "t": 95833.33333333331,
      "d": 166.66666666667152,
      "v": 99
    },
    {
      "midi": 44,
      "hit": false,
      "t": 95999.99999999999,
      "d": 500,
      "v": 100
    },
    {
      "midi": 59,
      "hit": false,
      "t": 96333.33333333331,
      "d": 166.66666666667152,
      "v": 100
    },
    {
      "midi": 63,
      "hit": false,
      "t": 96333.33333333331,
      "d": 166.66666666667152,
      "v": 100
    },
    {
      "midi": 68,
      "hit": false,
      "t": 96333.33333333331,
      "d": 166.66666666667152,
      "v": 100
    },
    {
      "midi": 47,
      "hit": false,
      "t": 96499.99999999999,
      "d": 500,
      "v": 100
    },
    {
      "midi": 59,
      "hit": false,
      "t": 96833.33333333331,
      "d": 166.66666666667152,
      "v": 100
    },
    {
      "midi": 63,
      "hit": false,
      "t": 96833.33333333331,
      "d": 166.66666666667152,
      "v": 100
    },
    {
      "midi": 68,
      "hit": false,
      "t": 96833.33333333331,
      "d": 166.66666666667152,
      "v": 100
    },
    {
      "midi": 51,
      "hit": false,
      "t": 96999.99999999999,
      "d": 500,
      "v": 100
    },
    {
      "midi": 66,
      "hit": false,
      "t": 97020.8333333334,
      "d": 187.50000000001455,
      "v": 104
    },
    {
      "midi": 71,
      "hit": false,
      "t": 97025.00000000007,
      "d": 675.0000000000146,
      "v": 101
    },
    {
      "midi": 68,
      "hit": false,
      "t": 97179.16666666674,
      "d": 504.1666666666715,
      "v": 72
    },
    {
      "midi": 59,
      "hit": false,
      "t": 97333.33333333331,
      "d": 166.66666666667152,
      "v": 100
    },
    {
      "midi": 63,
      "hit": false,
      "t": 97333.33333333331,
      "d": 166.66666666667152,
      "v": 100
    },
    {
      "midi": 68,
      "hit": false,
      "t": 97333.33333333331,
      "d": 166.66666666667152,
      "v": 100
    },
    {
      "midi": 47,
      "hit": false,
      "t": 97499.99999999999,
      "d": 500,
      "v": 101
    },
    {
      "midi": 66,
      "hit": false,
      "t": 97762.50000000009,
      "d": 120.83333333334303,
      "v": 99
    },
    {
      "midi": 71,
      "hit": false,
      "t": 97766.66666666676,
      "d": 112.5,
      "v": 93
    },
    {
      "midi": 59,
      "hit": false,
      "t": 97833.33333333331,
      "d": 166.66666666667152,
      "v": 101
    },
    {
      "midi": 63,
      "hit": false,
      "t": 97833.33333333331,
      "d": 166.66666666667152,
      "v": 101
    },
    {
      "midi": 68,
      "hit": false,
      "t": 97833.33333333331,
      "d": 166.66666666667152,
      "v": 101
    },
    {
      "midi": 37,
      "hit": false,
      "t": 97999.99999999999,
      "d": 500,
      "v": 101
    },
    {
      "midi": 63,
      "hit": false,
      "t": 98000.00000000009,
      "d": 95.83333333334303,
      "v": 98
    },
    {
      "midi": 68,
      "hit": false,
      "t": 98004.16666666676,
      "d": 237.5,
      "v": 104
    },
    {
      "midi": 65,
      "hit": false,
      "t": 98091.66666666676,
      "d": 141.66666666667152,
      "v": 93
    },
    {
      "midi": 68,
      "hit": false,
      "t": 98295.83333333343,
      "d": 1341.6666666666715,
      "v": 99
    },
    {
      "midi": 61,
      "hit": false,
      "t": 98300.0000000001,
      "d": 1287.5,
      "v": 105
    },
    {
      "midi": 61,
      "hit": false,
      "t": 98333.33333333331,
      "d": 166.66666666667152,
      "v": 101
    },
    {
      "midi": 65,
      "hit": false,
      "t": 98333.33333333331,
      "d": 166.66666666667152,
      "v": 101
    },
    {
      "midi": 68,
      "hit": false,
      "t": 98333.33333333331,
      "d": 166.66666666667152,
      "v": 101
    },
    {
      "midi": 41,
      "hit": false,
      "t": 98499.99999999999,
      "d": 500,
      "v": 101
    },
    {
      "midi": 61,
      "hit": false,
      "t": 98833.33333333331,
      "d": 166.66666666667152,
      "v": 101
    },
    {
      "midi": 65,
      "hit": false,
      "t": 98833.33333333331,
      "d": 166.66666666667152,
      "v": 101
    },
    {
      "midi": 68,
      "hit": false,
      "t": 98833.33333333331,
      "d": 166.66666666667152,
      "v": 101
    },
    {
      "midi": 44,
      "hit": false,
      "t": 98999.99999999999,
      "d": 500,
      "v": 102
    },
    {
      "midi": 61,
      "hit": false,
      "t": 99333.33333333331,
      "d": 166.66666666667152,
      "v": 101
    },
    {
      "midi": 65,
      "hit": false,
      "t": 99333.33333333331,
      "d": 166.66666666667152,
      "v": 101
    },
    {
      "midi": 68,
      "hit": false,
      "t": 99333.33333333331,
      "d": 166.66666666667152,
      "v": 101
    },
    {
      "midi": 46,
      "hit": false,
      "t": 99499.99999999999,
      "d": 500,
      "v": 102
    },
    {
      "midi": 61,
      "hit": false,
      "t": 99833.33333333331,
      "d": 166.66666666667152,
      "v": 102
    },
    {
      "midi": 65,
      "hit": false,
      "t": 99833.33333333331,
      "d": 166.66666666667152,
      "v": 102
    },
    {
      "midi": 68,
      "hit": false,
      "t": 99833.33333333331,
      "d": 166.66666666667152,
      "v": 102
    },
    {
      "midi": 49,
      "hit": false,
      "t": 99999.99999999999,
      "d": 166.66666666667152,
      "v": 102
    },
    {
      "midi": 49,
      "hit": false,
      "t": 100333.33333333333,
      "d": 166.66666666667152,
      "v": 102
    },
    {
      "midi": 61,
      "hit": false,
      "t": 100333.33333333333,
      "d": 166.66666666667152,
      "v": 102
    },
    {
      "midi": 65,
      "hit": false,
      "t": 100333.33333333333,
      "d": 166.66666666667152,
      "v": 102
    },
    {
      "midi": 68,
      "hit": false,
      "t": 100333.33333333333,
      "d": 166.66666666667152,
      "v": 102
    },
    {
      "midi": 61,
      "hit": false,
      "t": 100350.0000000001,
      "d": 379.1666666666715,
      "v": 89
    },
    {
      "midi": 47,
      "hit": false,
      "t": 100500,
      "d": 500,
      "v": 102
    },
    {
      "midi": 61,
      "hit": false,
      "t": 100833.33333333333,
      "d": 166.66666666667152,
      "v": 102
    },
    {
      "midi": 65,
      "hit": false,
      "t": 100833.33333333333,
      "d": 166.66666666667152,
      "v": 102
    },
    {
      "midi": 68,
      "hit": false,
      "t": 100833.33333333333,
      "d": 166.66666666667152,
      "v": 102
    },
    {
      "midi": 61,
      "hit": false,
      "t": 100858.33333333344,
      "d": 120.83333333332848,
      "v": 117
    },
    {
      "midi": 46,
      "hit": false,
      "t": 101000,
      "d": 500,
      "v": 103
    },
    {
      "midi": 73,
      "hit": false,
      "t": 101041.66666666677,
      "d": 395.8333333333285,
      "v": 127
    },
    {
      "midi": 68,
      "hit": false,
      "t": 101050.0000000001,
      "d": 150,
      "v": 117
    },
    {
      "midi": 70,
      "hit": false,
      "t": 101179.16666666677,
      "d": 241.66666666665697,
      "v": 64
    },
    {
      "midi": 61,
      "hit": false,
      "t": 101333.33333333333,
      "d": 166.66666666667152,
      "v": 102
    },
    {
      "midi": 65,
      "hit": false,
      "t": 101333.33333333333,
      "d": 166.66666666667152,
      "v": 102
    },
    {
      "midi": 68,
      "hit": false,
      "t": 101333.33333333333,
      "d": 166.66666666667152,
      "v": 102
    },
    {
      "midi": 66,
      "hit": false,
      "t": 101387.5000000001,
      "d": 100,
      "v": 93
    },
    {
      "midi": 44,
      "hit": false,
      "t": 101500,
      "d": 500,
      "v": 103
    },
    {
      "midi": 68,
      "hit": false,
      "t": 101545.83333333343,
      "d": 229.16666666665697,
      "v": 107
    },
    {
      "midi": 73,
      "hit": false,
      "t": 101545.83333333343,
      "d": 237.49999999998545,
      "v": 127
    },
    {
      "midi": 61,
      "hit": false,
      "t": 101833.33333333333,
      "d": 166.66666666667152,
      "v": 103
    },
    {
      "midi": 65,
      "hit": false,
      "t": 101833.33333333333,
      "d": 166.66666666667152,
      "v": 103
    },
    {
      "midi": 68,
      "hit": false,
      "t": 101833.33333333333,
      "d": 166.66666666667152,
      "v": 103
    },
    {
      "midi": 73,
      "hit": false,
      "t": 101875.00000000009,
      "d": 920.833333333343,
      "v": 117
    },
    {
      "midi": 66,
      "hit": false,
      "t": 101875.00000000009,
      "d": 941.6666666666715,
      "v": 119
    },
    {
      "midi": 42,
      "hit": false,
      "t": 102000,
      "d": 500,
      "v": 103
    },
    {
      "midi": 58,
      "hit": false,
      "t": 102333.33333333333,
      "d": 166.66666666667152,
      "v": 103
    },
    {
      "midi": 61,
      "hit": false,
      "t": 102333.33333333333,
      "d": 166.66666666667152,
      "v": 103
    },
    {
      "midi": 66,
      "hit": false,
      "t": 102333.33333333333,
      "d": 166.66666666667152,
      "v": 103
    },
    {
      "midi": 39,
      "hit": false,
      "t": 102500,
      "d": 500,
      "v": 103
    },
    {
      "midi": 58,
      "hit": false,
      "t": 102833.33333333333,
      "d": 166.66666666667152,
      "v": 103
    },
    {
      "midi": 61,
      "hit": false,
      "t": 102833.33333333333,
      "d": 166.66666666667152,
      "v": 103
    },
    {
      "midi": 66,
      "hit": false,
      "t": 102833.33333333333,
      "d": 166.66666666667152,
      "v": 103
    },
    {
      "midi": 37,
      "hit": false,
      "t": 103000,
      "d": 500,
      "v": 104
    },
    {
      "midi": 61,
      "hit": false,
      "t": 103329.16666666676,
      "d": 212.50000000001455,
      "v": 104
    },
    {
      "midi": 58,
      "hit": false,
      "t": 103333.33333333333,
      "d": 166.66666666667152,
      "v": 103
    },
    {
      "midi": 61,
      "hit": false,
      "t": 103333.33333333333,
      "d": 166.66666666667152,
      "v": 103
    },
    {
      "midi": 66,
      "hit": false,
      "t": 103333.33333333333,
      "d": 166.66666666667152,
      "v": 103
    },
    {
      "midi": 66,
      "hit": false,
      "t": 103333.33333333343,
      "d": 237.50000000001455,
      "v": 110
    },
    {
      "midi": 34,
      "hit": false,
      "t": 103500,
      "d": 500,
      "v": 104
    },
    {
      "midi": 59,
      "hit": false,
      "t": 103504.16666666677,
      "d": 350.00000000001455,
      "v": 82
    },
    {
      "midi": 58,
      "hit": false,
      "t": 103833.33333333333,
      "d": 166.66666666667152,
      "v": 104
    },
    {
      "midi": 61,
      "hit": false,
      "t": 103833.33333333333,
      "d": 166.66666666667152,
      "v": 104
    },
    {
      "midi": 66,
      "hit": false,
      "t": 103833.33333333333,
      "d": 166.66666666667152,
      "v": 104
    },
    {
      "midi": 57,
      "hit": false,
      "t": 103837.50000000012,
      "d": 158.33333333334303,
      "v": 71
    },
    {
      "midi": 30,
      "hit": false,
      "t": 104000,
      "d": 500,
      "v": 104
    },
    {
      "midi": 58,
      "hit": false,
      "t": 104016.66666666679,
      "d": 350,
      "v": 115
    },
    {
      "midi": 58,
      "hit": false,
      "t": 104333.33333333333,
      "d": 166.66666666667152,
      "v": 104
    },
    {
      "midi": 61,
      "hit": false,
      "t": 104333.33333333333,
      "d": 166.66666666667152,
      "v": 104
    },
    {
      "midi": 66,
      "hit": false,
      "t": 104333.33333333333,
      "d": 166.66666666667152,
      "v": 104
    },
    {
      "midi": 66,
      "hit": false,
      "t": 104358.33333333346,
      "d": 200,
      "v": 119
    },
    {
      "midi": 49,
      "hit": false,
      "t": 104500,
      "d": 500,
      "v": 105
    },
    {
      "midi": 58,
      "hit": false,
      "t": 104833.33333333333,
      "d": 166.66666666667152,
      "v": 104
    },
    {
      "midi": 61,
      "hit": false,
      "t": 104833.33333333333,
      "d": 166.66666666667152,
      "v": 104
    },
    {
      "midi": 66,
      "hit": false,
      "t": 104833.33333333333,
      "d": 166.66666666667152,
      "v": 104
    },
    {
      "midi": 61,
      "hit": false,
      "t": 104850.00000000013,
      "d": 129.16666666667152,
      "v": 99
    },
    {
      "midi": 51,
      "hit": false,
      "t": 105000,
      "d": 500,
      "v": 105
    },
    {
      "midi": 73,
      "hit": false,
      "t": 105016.6666666668,
      "d": 550.0000000000146,
      "v": 127
    },
    {
      "midi": 68,
      "hit": false,
      "t": 105020.83333333347,
      "d": 170.83333333334303,
      "v": 119
    },
    {
      "midi": 70,
      "hit": false,
      "t": 105162.50000000015,
      "d": 420.83333333334303,
      "v": 85
    },
    {
      "midi": 58,
      "hit": false,
      "t": 105333.33333333333,
      "d": 166.66666666667152,
      "v": 105
    },
    {
      "midi": 61,
      "hit": false,
      "t": 105333.33333333333,
      "d": 166.66666666667152,
      "v": 105
    },
    {
      "midi": 66,
      "hit": false,
      "t": 105333.33333333333,
      "d": 166.66666666667152,
      "v": 105
    },
    {
      "midi": 53,
      "hit": false,
      "t": 105500,
      "d": 500,
      "v": 105
    },
    {
      "midi": 68,
      "hit": false,
      "t": 105704.16666666682,
      "d": 154.16666666667152,
      "v": 104
    },
    {
      "midi": 73,
      "hit": false,
      "t": 105708.33333333349,
      "d": 191.66666666667152,
      "v": 117
    },
    {
      "midi": 58,
      "hit": false,
      "t": 105833.33333333333,
      "d": 166.66666666667152,
      "v": 105
    },
    {
      "midi": 61,
      "hit": false,
      "t": 105833.33333333333,
      "d": 166.66666666667152,
      "v": 105
    },
    {
      "midi": 66,
      "hit": false,
      "t": 105833.33333333333,
      "d": 166.66666666667152,
      "v": 105
    },
    {
      "midi": 54,
      "hit": false,
      "t": 106000,
      "d": 500,
      "v": 105
    },
    {
      "midi": 73,
      "hit": false,
      "t": 106041.66666666683,
      "d": 145.83333333334303,
      "v": 107
    },
    {
      "midi": 66,
      "hit": false,
      "t": 106045.8333333335,
      "d": 158.33333333334303,
      "v": 107
    },
    {
      "midi": 58,
      "hit": false,
      "t": 106333.33333333333,
      "d": 166.66666666667152,
      "v": 105
    },
    {
      "midi": 61,
      "hit": false,
      "t": 106333.33333333333,
      "d": 166.66666666667152,
      "v": 105
    },
    {
      "midi": 66,
      "hit": false,
      "t": 106333.33333333333,
      "d": 166.66666666667152,
      "v": 105
    },
    {
      "midi": 61,
      "hit": false,
      "t": 106354.16666666685,
      "d": 1108.3333333333285,
      "v": 110
    },
    {
      "midi": 66,
      "hit": false,
      "t": 106358.33333333352,
      "d": 1124.9999999999854,
      "v": 112
    },
    {
      "midi": 51,
      "hit": false,
      "t": 106500,
      "d": 500,
      "v": 106
    },
    {
      "midi": 58,
      "hit": false,
      "t": 106833.33333333333,
      "d": 166.66666666667152,
      "v": 105
    },
    {
      "midi": 61,
      "hit": false,
      "t": 106833.33333333333,
      "d": 166.66666666667152,
      "v": 105
    },
    {
      "midi": 66,
      "hit": false,
      "t": 106833.33333333333,
      "d": 166.66666666667152,
      "v": 105
    },
    {
      "midi": 49,
      "hit": false,
      "t": 107000,
      "d": 500,
      "v": 106
    },
    {
      "midi": 58,
      "hit": false,
      "t": 107333.33333333333,
      "d": 166.66666666667152,
      "v": 106
    },
    {
      "midi": 61,
      "hit": false,
      "t": 107333.33333333333,
      "d": 166.66666666667152,
      "v": 106
    },
    {
      "midi": 66,
      "hit": false,
      "t": 107333.33333333333,
      "d": 166.66666666667152,
      "v": 106
    },
    {
      "midi": 46,
      "hit": false,
      "t": 107500,
      "d": 500,
      "v": 106
    },
    {
      "midi": 58,
      "hit": false,
      "t": 107833.33333333333,
      "d": 166.66666666667152,
      "v": 106
    },
    {
      "midi": 61,
      "hit": false,
      "t": 107833.33333333333,
      "d": 166.66666666667152,
      "v": 106
    },
    {
      "midi": 66,
      "hit": false,
      "t": 107833.33333333333,
      "d": 166.66666666667152,
      "v": 106
    },
    {
      "midi": 42,
      "hit": false,
      "t": 108000,
      "d": 495.8333333333285,
      "v": 107
    },
    {
      "midi": 58,
      "hit": false,
      "t": 108333.33333333333,
      "d": 166.66666666667152,
      "v": 106
    },
    {
      "midi": 61,
      "hit": false,
      "t": 108333.33333333333,
      "d": 166.66666666667152,
      "v": 106
    },
    {
      "midi": 66,
      "hit": false,
      "t": 108333.33333333333,
      "d": 166.66666666667152,
      "v": 106
    },
    {
      "midi": 61,
      "hit": false,
      "t": 108354.16666666683,
      "d": 162.5,
      "v": 94
    },
    {
      "midi": 42,
      "hit": false,
      "t": 108500,
      "d": 500,
      "v": 107
    },
    {
      "midi": 66,
      "hit": false,
      "t": 108520.8333333335,
      "d": 200.00000000001455,
      "v": 119
    },
    {
      "midi": 73,
      "hit": false,
      "t": 108525.00000000017,
      "d": 195.83333333334303,
      "v": 123
    },
    {
      "midi": 58,
      "hit": false,
      "t": 108833.33333333333,
      "d": 166.66666666667152,
      "v": 106
    },
    {
      "midi": 61,
      "hit": false,
      "t": 108833.33333333333,
      "d": 166.66666666667152,
      "v": 106
    },
    {
      "midi": 66,
      "hit": false,
      "t": 108833.33333333333,
      "d": 166.66666666667152,
      "v": 106
    },
    {
      "midi": 66,
      "hit": false,
      "t": 108833.33333333352,
      "d": 125,
      "v": 112
    },
    {
      "midi": 73,
      "hit": false,
      "t": 108833.33333333352,
      "d": 145.83333333332848,
      "v": 119
    },
    {
      "midi": 44,
      "hit": false,
      "t": 109000,
      "d": 500,
      "v": 107
    },
    {
      "midi": 68,
      "hit": false,
      "t": 109033.33333333352,
      "d": 225,
      "v": 105
    },
    {
      "midi": 73,
      "hit": false,
      "t": 109033.33333333352,
      "d": 225,
      "v": 105
    },
    {
      "midi": 58,
      "hit": false,
      "t": 109333.33333333333,
      "d": 166.66666666667152,
      "v": 107
    },
    {
      "midi": 61,
      "hit": false,
      "t": 109333.33333333333,
      "d": 166.66666666667152,
      "v": 107
    },
    {
      "midi": 66,
      "hit": false,
      "t": 109333.33333333333,
      "d": 166.66666666667152,
      "v": 107
    },
    {
      "midi": 68,
      "hit": false,
      "t": 109341.66666666685,
      "d": 208.33333333332848,
      "v": 105
    },
    {
      "midi": 73,
      "hit": false,
      "t": 109350.00000000017,
      "d": 333.3333333333285,
      "v": 107
    },
    {
      "midi": 46,
      "hit": false,
      "t": 109500,
      "d": 500,
      "v": 107
    },
    {
      "midi": 70,
      "hit": false,
      "t": 109529.16666666685,
      "d": 120.83333333332848,
      "v": 112
    },
    {
      "midi": 58,
      "hit": false,
      "t": 109833.33333333333,
      "d": 166.66666666667152,
      "v": 107
    },
    {
      "midi": 61,
      "hit": false,
      "t": 109833.33333333333,
      "d": 166.66666666667152,
      "v": 107
    },
    {
      "midi": 66,
      "hit": false,
      "t": 109833.33333333333,
      "d": 166.66666666667152,
      "v": 107
    },
    {
      "midi": 66,
      "hit": false,
      "t": 109991.66666666683,
      "d": 370.83333333334303,
      "v": 105
    },
    {
      "midi": 71,
      "hit": false,
      "t": 109995.8333333335,
      "d": 354.1666666666715,
      "v": 97
    },
    {
      "midi": 47,
      "hit": false,
      "t": 110000,
      "d": 500,
      "v": 108
    },
    {
      "midi": 59,
      "hit": false,
      "t": 110333.33333333333,
      "d": 166.66666666667152,
      "v": 107
    },
    {
      "midi": 63,
      "hit": false,
      "t": 110333.33333333333,
      "d": 166.66666666667152,
      "v": 107
    },
    {
      "midi": 66,
      "hit": false,
      "t": 110333.33333333333,
      "d": 166.66666666667152,
      "v": 107
    },
    {
      "midi": 51,
      "hit": false,
      "t": 110500,
      "d": 500,
      "v": 108
    },
    {
      "midi": 59,
      "hit": false,
      "t": 110833.33333333333,
      "d": 166.66666666667152,
      "v": 108
    },
    {
      "midi": 63,
      "hit": false,
      "t": 110833.33333333333,
      "d": 166.66666666667152,
      "v": 108
    },
    {
      "midi": 66,
      "hit": false,
      "t": 110833.33333333333,
      "d": 166.66666666667152,
      "v": 108
    },
    {
      "midi": 61,
      "hit": false,
      "t": 110975.00000000017,
      "d": 191.66666666665697,
      "v": 107
    },
    {
      "midi": 66,
      "hit": false,
      "t": 110975.00000000017,
      "d": 1099.9999999999854,
      "v": 119
    },
    {
      "midi": 54,
      "hit": false,
      "t": 111000,
      "d": 500,
      "v": 108
    },
    {
      "midi": 63,
      "hit": false,
      "t": 111145.8333333335,
      "d": 908.3333333333285,
      "v": 84
    },
    {
      "midi": 59,
      "hit": false,
      "t": 111333.33333333333,
      "d": 166.66666666667152,
      "v": 108
    },
    {
      "midi": 63,
      "hit": false,
      "t": 111333.33333333333,
      "d": 166.66666666667152,
      "v": 108
    },
    {
      "midi": 66,
      "hit": false,
      "t": 111333.33333333333,
      "d": 166.66666666667152,
      "v": 108
    },
    {
      "midi": 51,
      "hit": false,
      "t": 111500,
      "d": 500,
      "v": 109
    },
    {
      "midi": 59,
      "hit": false,
      "t": 111833.33333333333,
      "d": 166.66666666667152,
      "v": 108
    },
    {
      "midi": 63,
      "hit": false,
      "t": 111833.33333333333,
      "d": 166.66666666667152,
      "v": 108
    },
    {
      "midi": 66,
      "hit": false,
      "t": 111833.33333333333,
      "d": 166.66666666667152,
      "v": 108
    },
    {
      "midi": 47,
      "hit": false,
      "t": 112000,
      "d": 500,
      "v": 109
    },
    {
      "midi": 59,
      "hit": false,
      "t": 112333.33333333333,
      "d": 166.66666666667152,
      "v": 108
    },
    {
      "midi": 63,
      "hit": false,
      "t": 112333.33333333333,
      "d": 166.66666666667152,
      "v": 108
    },
    {
      "midi": 66,
      "hit": false,
      "t": 112333.33333333333,
      "d": 166.66666666667152,
      "v": 108
    },
    {
      "midi": 51,
      "hit": false,
      "t": 112500,
      "d": 500,
      "v": 109
    },
    {
      "midi": 59,
      "hit": false,
      "t": 112833.33333333333,
      "d": 166.66666666667152,
      "v": 109
    },
    {
      "midi": 63,
      "hit": false,
      "t": 112833.33333333333,
      "d": 166.66666666667152,
      "v": 109
    },
    {
      "midi": 66,
      "hit": false,
      "t": 112833.33333333333,
      "d": 166.66666666667152,
      "v": 109
    },
    {
      "midi": 61,
      "hit": false,
      "t": 112854.16666666683,
      "d": 195.83333333334303,
      "v": 101
    },
    {
      "midi": 54,
      "hit": false,
      "t": 113000,
      "d": 500,
      "v": 109
    },
    {
      "midi": 73,
      "hit": false,
      "t": 113016.66666666683,
      "d": 345.83333333334303,
      "v": 110
    },
    {
      "midi": 66,
      "hit": false,
      "t": 113020.8333333335,
      "d": 320.83333333334303,
      "v": 105
    },
    {
      "midi": 59,
      "hit": false,
      "t": 113333.33333333333,
      "d": 166.66666666667152,
      "v": 109
    },
    {
      "midi": 63,
      "hit": false,
      "t": 113333.33333333333,
      "d": 166.66666666667152,
      "v": 109
    },
    {
      "midi": 66,
      "hit": false,
      "t": 113333.33333333333,
      "d": 166.66666666667152,
      "v": 109
    },
    {
      "midi": 56,
      "hit": false,
      "t": 113500,
      "d": 500,
      "v": 110
    },
    {
      "midi": 68,
      "hit": false,
      "t": 113512.50000000017,
      "d": 279.1666666666715,
      "v": 101
    },
    {
      "midi": 73,
      "hit": false,
      "t": 113512.50000000017,
      "d": 304.1666666666715,
      "v": 115
    },
    {
      "midi": 59,
      "hit": false,
      "t": 113833.33333333333,
      "d": 166.66666666667152,
      "v": 109
    },
    {
      "midi": 63,
      "hit": false,
      "t": 113833.33333333333,
      "d": 166.66666666667152,
      "v": 109
    },
    {
      "midi": 66,
      "hit": false,
      "t": 113833.33333333333,
      "d": 166.66666666667152,
      "v": 109
    },
    {
      "midi": 66,
      "hit": false,
      "t": 113833.33333333352,
      "d": 116.66666666667152,
      "v": 105
    },
    {
      "midi": 54,
      "hit": false,
      "t": 114000,
      "d": 500,
      "v": 110
    },
    {
      "midi": 68,
      "hit": false,
      "t": 114000.00000000019,
      "d": 166.66666666667152,
      "v": 104
    },
    {
      "midi": 73,
      "hit": false,
      "t": 114000.00000000019,
      "d": 166.66666666667152,
      "v": 112
    },
    {
      "midi": 70,
      "hit": false,
      "t": 114166.66666666686,
      "d": 166.66666666667152,
      "v": 110
    },
    {
      "midi": 58,
      "hit": false,
      "t": 114333.33333333333,
      "d": 166.66666666667152,
      "v": 109
    },
    {
      "midi": 61,
      "hit": false,
      "t": 114333.33333333333,
      "d": 166.66666666667152,
      "v": 109
    },
    {
      "midi": 66,
      "hit": false,
      "t": 114333.33333333333,
      "d": 166.66666666667152,
      "v": 109
    },
    {
      "midi": 70,
      "hit": false,
      "t": 114333.33333333353,
      "d": 166.66666666667152,
      "v": 112
    },
    {
      "midi": 73,
      "hit": false,
      "t": 114333.33333333353,
      "d": 166.66666666667152,
      "v": 112
    },
    {
      "midi": 51,
      "hit": false,
      "t": 114500,
      "d": 500,
      "v": 110
    },
    {
      "midi": 73,
      "hit": false,
      "t": 114500.0000000002,
      "d": 333.3333333333285,
      "v": 101
    },
    {
      "midi": 78,
      "hit": false,
      "t": 114500.0000000002,
      "d": 333.3333333333285,
      "v": 110
    },
    {
      "midi": 58,
      "hit": false,
      "t": 114833.33333333333,
      "d": 166.66666666667152,
      "v": 110
    },
    {
      "midi": 61,
      "hit": false,
      "t": 114833.33333333333,
      "d": 166.66666666667152,
      "v": 110
    },
    {
      "midi": 66,
      "hit": false,
      "t": 114833.33333333333,
      "d": 166.66666666667152,
      "v": 110
    },
    {
      "midi": 73,
      "hit": false,
      "t": 114833.33333333353,
      "d": 166.66666666667152,
      "v": 90
    },
    {
      "midi": 78,
      "hit": false,
      "t": 114833.33333333353,
      "d": 166.66666666667152,
      "v": 90
    },
    {
      "midi": 49,
      "hit": false,
      "t": 115000,
      "d": 500,
      "v": 110
    },
    {
      "midi": 68,
      "hit": false,
      "t": 115000.0000000002,
      "d": 166.66666666667152,
      "v": 105
    },
    {
      "midi": 73,
      "hit": false,
      "t": 115000.0000000002,
      "d": 333.33333333334303,
      "v": 119
    },
    {
      "midi": 70,
      "hit": false,
      "t": 115166.66666666688,
      "d": 166.66666666667152,
      "v": 72
    },
    {
      "midi": 58,
      "hit": false,
      "t": 115333.33333333333,
      "d": 166.66666666667152,
      "v": 110
    },
    {
      "midi": 61,
      "hit": false,
      "t": 115333.33333333333,
      "d": 166.66666666667152,
      "v": 110
    },
    {
      "midi": 66,
      "hit": false,
      "t": 115333.33333333333,
      "d": 166.66666666667152,
      "v": 110
    },
    {
      "midi": 70,
      "hit": false,
      "t": 115333.33333333355,
      "d": 166.66666666667152,
      "v": 119
    },
    {
      "midi": 73,
      "hit": false,
      "t": 115333.33333333355,
      "d": 166.66666666667152,
      "v": 117
    },
    {
      "midi": 46,
      "hit": false,
      "t": 115500,
      "d": 500,
      "v": 111
    },
    {
      "midi": 66,
      "hit": false,
      "t": 115500.00000000022,
      "d": 166.66666666667152,
      "v": 98
    },
    {
      "midi": 73,
      "hit": false,
      "t": 115500.00000000022,
      "d": 166.66666666667152,
      "v": 105
    },
    {
      "midi": 58,
      "hit": false,
      "t": 115833.33333333333,
      "d": 166.66666666667152,
      "v": 110
    },
    {
      "midi": 61,
      "hit": false,
      "t": 115833.33333333333,
      "d": 166.66666666667152,
      "v": 110
    },
    {
      "midi": 66,
      "hit": false,
      "t": 115833.33333333333,
      "d": 166.66666666667152,
      "v": 110
    },
    {
      "midi": 66,
      "hit": false,
      "t": 115833.33333333356,
      "d": 166.66666666667152,
      "v": 110
    },
    {
      "midi": 70,
      "hit": false,
      "t": 115833.33333333356,
      "d": 166.66666666667152,
      "v": 104
    },
    {
      "midi": 49,
      "hit": false,
      "t": 116000,
      "d": 500,
      "v": 111
    },
    {
      "midi": 63,
      "hit": false,
      "t": 116000.00000000023,
      "d": 166.66666666667152,
      "v": 115
    },
    {
      "midi": 68,
      "hit": false,
      "t": 116000.00000000023,
      "d": 500,
      "v": 123
    },
    {
      "midi": 65,
      "hit": false,
      "t": 116166.6666666669,
      "d": 333.3333333333285,
      "v": 65
    },
    {
      "midi": 56,
      "hit": false,
      "t": 116333.33333333333,
      "d": 166.66666666667152,
      "v": 110
    },
    {
      "midi": 61,
      "hit": false,
      "t": 116333.33333333333,
      "d": 166.66666666667152,
      "v": 110
    },
    {
      "midi": 65,
      "hit": false,
      "t": 116333.33333333333,
      "d": 166.66666666667152,
      "v": 110
    },
    {
      "midi": 53,
      "hit": false,
      "t": 116500,
      "d": 500,
      "v": 111
    },
    {
      "midi": 61,
      "hit": false,
      "t": 116500.00000000023,
      "d": 166.66666666667152,
      "v": 101
    },
    {
      "midi": 56,
      "hit": false,
      "t": 116833.33333333333,
      "d": 166.66666666667152,
      "v": 111
    },
    {
      "midi": 61,
      "hit": false,
      "t": 116833.33333333333,
      "d": 166.66666666667152,
      "v": 111
    },
    {
      "midi": 65,
      "hit": false,
      "t": 116833.33333333333,
      "d": 166.66666666667152,
      "v": 111
    },
    {
      "midi": 61,
      "hit": false,
      "t": 116833.33333333358,
      "d": 166.66666666667152,
      "v": 105
    },
    {
      "midi": 73,
      "hit": false,
      "t": 117012.50000000025,
      "d": 275.0000000000291,
      "v": 105
    },
    {
      "midi": 68,
      "hit": false,
      "t": 117016.66666666692,
      "d": 133.33333333334303,
      "v": 98
    },
    {
      "midi": 70,
      "hit": false,
      "t": 117125.00000000026,
      "d": 133.33333333334303,
      "v": 94
    },
    {
      "midi": 68,
      "hit": false,
      "t": 117216.66666666693,
      "d": 116.66666666667152,
      "v": 76
    },
    {
      "midi": 65,
      "hit": false,
      "t": 117295.8333333336,
      "d": 70.83333333332848,
      "v": 81
    },
    {
      "midi": 56,
      "hit": false,
      "t": 117333.33333333333,
      "d": 166.66666666667152,
      "v": 111
    },
    {
      "midi": 61,
      "hit": false,
      "t": 117333.33333333333,
      "d": 166.66666666667152,
      "v": 111
    },
    {
      "midi": 65,
      "hit": false,
      "t": 117333.33333333333,
      "d": 166.66666666667152,
      "v": 111
    },
    {
      "midi": 61,
      "hit": false,
      "t": 117366.66666666693,
      "d": 100,
      "v": 68
    },
    {
      "midi": 53,
      "hit": false,
      "t": 117500,
      "d": 500,
      "v": 112
    },
    {
      "midi": 68,
      "hit": false,
      "t": 117525.00000000026,
      "d": 129.16666666667152,
      "v": 110
    },
    {
      "midi": 73,
      "hit": false,
      "t": 117525.00000000026,
      "d": 195.83333333334303,
      "v": 115
    },
    {
      "midi": 56,
      "hit": false,
      "t": 117833.33333333333,
      "d": 166.66666666667152,
      "v": 111
    },
    {
      "midi": 61,
      "hit": false,
      "t": 117833.33333333333,
      "d": 166.66666666667152,
      "v": 111
    },
    {
      "midi": 65,
      "hit": false,
      "t": 117833.33333333333,
      "d": 166.66666666667152,
      "v": 111
    },
    {
      "midi": 73,
      "hit": false,
      "t": 117841.66666666693,
      "d": 716.6666666666715,
      "v": 110
    },
    {
      "midi": 66,
      "hit": false,
      "t": 117841.66666666693,
      "d": 729.1666666666715,
      "v": 112
    },
    {
      "midi": 54,
      "hit": false,
      "t": 118000,
      "d": 500,
      "v": 112
    },
    {
      "midi": 58,
      "hit": false,
      "t": 118333.33333333333,
      "d": 166.66666666667152,
      "v": 112
    },
    {
      "midi": 61,
      "hit": false,
      "t": 118333.33333333333,
      "d": 166.66666666667152,
      "v": 112
    },
    {
      "midi": 66,
      "hit": false,
      "t": 118333.33333333333,
      "d": 166.66666666667152,
      "v": 112
    },
    {
      "midi": 51,
      "hit": false,
      "t": 118500,
      "d": 500,
      "v": 112
    },
    {
      "midi": 58,
      "hit": false,
      "t": 118833.33333333333,
      "d": 166.66666666667152,
      "v": 112
    },
    {
      "midi": 61,
      "hit": false,
      "t": 118833.33333333333,
      "d": 166.66666666667152,
      "v": 112
    },
    {
      "midi": 66,
      "hit": false,
      "t": 118833.33333333333,
      "d": 166.66666666667152,
      "v": 112
    },
    {
      "midi": 54,
      "hit": false,
      "t": 118833.3333333336,
      "d": 166.66666666665697,
      "v": 70
    },
    {
      "midi": 49,
      "hit": false,
      "t": 119000,
      "d": 500,
      "v": 113
    },
    {
      "midi": 66,
      "hit": false,
      "t": 119000.00000000026,
      "d": 333.3333333333285,
      "v": 101
    },
    {
      "midi": 61,
      "hit": false,
      "t": 119000.00000000026,
      "d": 500,
      "v": 101
    },
    {
      "midi": 58,
      "hit": false,
      "t": 119333.33333333333,
      "d": 166.66666666667152,
      "v": 112
    },
    {
      "midi": 61,
      "hit": false,
      "t": 119333.33333333333,
      "d": 166.66666666667152,
      "v": 112
    },
    {
      "midi": 66,
      "hit": false,
      "t": 119333.33333333333,
      "d": 166.66666666667152,
      "v": 112
    },
    {
      "midi": 46,
      "hit": false,
      "t": 119500,
      "d": 500,
      "v": 113
    },
    {
      "midi": 59,
      "hit": false,
      "t": 119500.00000000026,
      "d": 333.3333333333285,
      "v": 110
    },
    {
      "midi": 58,
      "hit": false,
      "t": 119833.33333333333,
      "d": 166.66666666667152,
      "v": 112
    },
    {
      "midi": 61,
      "hit": false,
      "t": 119833.33333333333,
      "d": 166.66666666667152,
      "v": 112
    },
    {
      "midi": 66,
      "hit": false,
      "t": 119833.33333333333,
      "d": 166.66666666667152,
      "v": 112
    },
    {
      "midi": 57,
      "hit": false,
      "t": 119833.33333333359,
      "d": 166.66666666667152,
      "v": 93
    },
    {
      "midi": 42,
      "hit": false,
      "t": 120000,
      "d": 500,
      "v": 113
    },
    {
      "midi": 58,
      "hit": false,
      "t": 120000.00000000026,
      "d": 833.3333333333139,
      "v": 104
    },
    {
      "midi": 58,
      "hit": false,
      "t": 120333.33333333333,
      "d": 166.66666666667152,
      "v": 113
    },
    {
      "midi": 61,
      "hit": false,
      "t": 120333.33333333333,
      "d": 166.66666666667152,
      "v": 113
    },
    {
      "midi": 66,
      "hit": false,
      "t": 120333.33333333333,
      "d": 166.66666666667152,
      "v": 113
    },
    {
      "midi": 66,
      "hit": false,
      "t": 120333.33333333359,
      "d": 499.99999999998545,
      "v": 101
    },
    {
      "midi": 42,
      "hit": false,
      "t": 120500,
      "d": 500,
      "v": 94
    },
    {
      "midi": 58,
      "hit": false,
      "t": 120833.33333333333,
      "d": 166.66666666667152,
      "v": 113
    },
    {
      "midi": 61,
      "hit": false,
      "t": 120833.33333333333,
      "d": 166.66666666667152,
      "v": 113
    },
    {
      "midi": 66,
      "hit": false,
      "t": 120833.33333333333,
      "d": 166.66666666667152,
      "v": 113
    },
    {
      "midi": 44,
      "hit": false,
      "t": 121000,
      "d": 500,
      "v": 97
    },
    {
      "midi": 58,
      "hit": false,
      "t": 121333.33333333333,
      "d": 166.66666666667152,
      "v": 113
    },
    {
      "midi": 61,
      "hit": false,
      "t": 121333.33333333333,
      "d": 166.66666666667152,
      "v": 113
    },
    {
      "midi": 66,
      "hit": false,
      "t": 121333.33333333333,
      "d": 166.66666666667152,
      "v": 113
    },
    {
      "midi": 46,
      "hit": false,
      "t": 121500,
      "d": 500,
      "v": 104
    },
    {
      "midi": 58,
      "hit": false,
      "t": 121833.33333333333,
      "d": 166.66666666667152,
      "v": 113
    },
    {
      "midi": 61,
      "hit": false,
      "t": 121833.33333333333,
      "d": 166.66666666667152,
      "v": 113
    },
    {
      "midi": 66,
      "hit": false,
      "t": 121833.33333333333,
      "d": 166.66666666667152,
      "v": 113
    },
    {
      "midi": 47,
      "hit": false,
      "t": 122000,
      "d": 500,
      "v": 97
    },
    {
      "midi": 59,
      "hit": false,
      "t": 122333.33333333333,
      "d": 166.66666666667152,
      "v": 97
    },
    {
      "midi": 63,
      "hit": false,
      "t": 122333.33333333333,
      "d": 166.66666666667152,
      "v": 97
    },
    {
      "midi": 66,
      "hit": false,
      "t": 122333.33333333333,
      "d": 166.66666666667152,
      "v": 97
    },
    {
      "midi": 51,
      "hit": false,
      "t": 122500,
      "d": 500,
      "v": 97
    },
    {
      "midi": 59,
      "hit": false,
      "t": 122833.33333333333,
      "d": 166.66666666667152,
      "v": 97
    },
    {
      "midi": 63,
      "hit": false,
      "t": 122833.33333333333,
      "d": 166.66666666667152,
      "v": 97
    },
    {
      "midi": 66,
      "hit": false,
      "t": 122833.33333333333,
      "d": 166.66666666667152,
      "v": 97
    },
    {
      "midi": 54,
      "hit": false,
      "t": 123000,
      "d": 500,
      "v": 98
    },
    {
      "midi": 59,
      "hit": false,
      "t": 123333.33333333333,
      "d": 166.66666666667152,
      "v": 98
    },
    {
      "midi": 63,
      "hit": false,
      "t": 123333.33333333333,
      "d": 166.66666666667152,
      "v": 98
    },
    {
      "midi": 66,
      "hit": false,
      "t": 123333.33333333333,
      "d": 166.66666666667152,
      "v": 98
    },
    {
      "midi": 51,
      "hit": false,
      "t": 123500,
      "d": 500,
      "v": 98
    },
    {
      "midi": 59,
      "hit": false,
      "t": 123833.33333333333,
      "d": 166.66666666667152,
      "v": 98
    },
    {
      "midi": 63,
      "hit": false,
      "t": 123833.33333333333,
      "d": 166.66666666667152,
      "v": 98
    },
    {
      "midi": 66,
      "hit": false,
      "t": 123833.33333333333,
      "d": 166.66666666667152,
      "v": 98
    },
    {
      "midi": 47,
      "hit": false,
      "t": 124000,
      "d": 500,
      "v": 99
    },
    {
      "midi": 59,
      "hit": false,
      "t": 124333.33333333333,
      "d": 166.66666666667152,
      "v": 99
    },
    {
      "midi": 63,
      "hit": false,
      "t": 124333.33333333333,
      "d": 166.66666666667152,
      "v": 99
    },
    {
      "midi": 66,
      "hit": false,
      "t": 124333.33333333333,
      "d": 166.66666666667152,
      "v": 99
    },
    {
      "midi": 47,
      "hit": false,
      "t": 124500,
      "d": 500,
      "v": 99
    },
    {
      "midi": 59,
      "hit": false,
      "t": 124833.33333333333,
      "d": 166.66666666667152,
      "v": 100
    },
    {
      "midi": 63,
      "hit": false,
      "t": 124833.33333333333,
      "d": 166.66666666667152,
      "v": 100
    },
    {
      "midi": 66,
      "hit": false,
      "t": 124833.33333333333,
      "d": 166.66666666667152,
      "v": 100
    },
    {
      "midi": 46,
      "hit": false,
      "t": 125000,
      "d": 500,
      "v": 100
    },
    {
      "midi": 59,
      "hit": false,
      "t": 125333.33333333333,
      "d": 166.66666666667152,
      "v": 100
    },
    {
      "midi": 63,
      "hit": false,
      "t": 125333.33333333333,
      "d": 166.66666666667152,
      "v": 100
    },
    {
      "midi": 66,
      "hit": false,
      "t": 125333.33333333333,
      "d": 166.66666666667152,
      "v": 100
    },
    {
      "midi": 44,
      "hit": false,
      "t": 125500,
      "d": 500,
      "v": 101
    },
    {
      "midi": 59,
      "hit": false,
      "t": 125833.33333333333,
      "d": 166.66666666667152,
      "v": 101
    },
    {
      "midi": 63,
      "hit": false,
      "t": 125833.33333333333,
      "d": 166.66666666667152,
      "v": 101
    },
    {
      "midi": 66,
      "hit": false,
      "t": 125833.33333333333,
      "d": 166.66666666667152,
      "v": 101
    },
    {
      "midi": 42,
      "hit": false,
      "t": 126000,
      "d": 500,
      "v": 101
    },
    {
      "midi": 58,
      "hit": false,
      "t": 126333.33333333333,
      "d": 166.66666666667152,
      "v": 101
    },
    {
      "midi": 61,
      "hit": false,
      "t": 126333.33333333333,
      "d": 166.66666666667152,
      "v": 101
    },
    {
      "midi": 66,
      "hit": false,
      "t": 126333.33333333333,
      "d": 166.66666666667152,
      "v": 101
    },
    {
      "midi": 46,
      "hit": false,
      "t": 126500,
      "d": 500,
      "v": 102
    },
    {
      "midi": 58,
      "hit": false,
      "t": 126833.33333333333,
      "d": 166.66666666667152,
      "v": 102
    },
    {
      "midi": 61,
      "hit": false,
      "t": 126833.33333333333,
      "d": 166.66666666667152,
      "v": 102
    },
    {
      "midi": 66,
      "hit": false,
      "t": 126833.33333333333,
      "d": 166.66666666667152,
      "v": 102
    },
    {
      "midi": 49,
      "hit": false,
      "t": 127000,
      "d": 500,
      "v": 102
    },
    {
      "midi": 58,
      "hit": false,
      "t": 127333.33333333333,
      "d": 166.66666666667152,
      "v": 103
    },
    {
      "midi": 61,
      "hit": false,
      "t": 127333.33333333333,
      "d": 166.66666666667152,
      "v": 103
    },
    {
      "midi": 66,
      "hit": false,
      "t": 127333.33333333333,
      "d": 166.66666666667152,
      "v": 103
    },
    {
      "midi": 46,
      "hit": false,
      "t": 127500,
      "d": 500,
      "v": 103
    },
    {
      "midi": 58,
      "hit": false,
      "t": 127833.33333333333,
      "d": 166.66666666667152,
      "v": 103
    },
    {
      "midi": 61,
      "hit": false,
      "t": 127833.33333333333,
      "d": 166.66666666667152,
      "v": 103
    },
    {
      "midi": 66,
      "hit": false,
      "t": 127833.33333333333,
      "d": 166.66666666667152,
      "v": 103
    },
    {
      "midi": 42,
      "hit": false,
      "t": 128000,
      "d": 500,
      "v": 103
    },
    {
      "midi": 58,
      "hit": false,
      "t": 128333.33333333333,
      "d": 166.66666666667152,
      "v": 104
    },
    {
      "midi": 61,
      "hit": false,
      "t": 128333.33333333333,
      "d": 166.66666666667152,
      "v": 104
    },
    {
      "midi": 66,
      "hit": false,
      "t": 128333.33333333333,
      "d": 166.66666666667152,
      "v": 104
    },
    {
      "midi": 41,
      "hit": false,
      "t": 128500,
      "d": 500,
      "v": 104
    },
    {
      "midi": 58,
      "hit": false,
      "t": 128833.33333333333,
      "d": 166.66666666667152,
      "v": 105
    },
    {
      "midi": 61,
      "hit": false,
      "t": 128833.33333333333,
      "d": 166.66666666667152,
      "v": 105
    },
    {
      "midi": 66,
      "hit": false,
      "t": 128833.33333333333,
      "d": 166.66666666667152,
      "v": 105
    },
    {
      "midi": 42,
      "hit": false,
      "t": 129000,
      "d": 500,
      "v": 105
    },
    {
      "midi": 58,
      "hit": false,
      "t": 129333.33333333333,
      "d": 166.66666666667152,
      "v": 105
    },
    {
      "midi": 61,
      "hit": false,
      "t": 129333.33333333333,
      "d": 166.66666666667152,
      "v": 105
    },
    {
      "midi": 66,
      "hit": false,
      "t": 129333.33333333333,
      "d": 166.66666666667152,
      "v": 105
    },
    {
      "midi": 43,
      "hit": false,
      "t": 129500,
      "d": 500,
      "v": 105
    },
    {
      "midi": 59,
      "hit": false,
      "t": 129833.33333333333,
      "d": 166.66666666667152,
      "v": 106
    },
    {
      "midi": 62,
      "hit": false,
      "t": 129833.33333333333,
      "d": 166.66666666667152,
      "v": 106
    },
    {
      "midi": 67,
      "hit": false,
      "t": 129833.33333333333,
      "d": 166.66666666667152,
      "v": 106
    },
    {
      "midi": 44,
      "hit": false,
      "t": 130000,
      "d": 500,
      "v": 106
    },
    {
      "midi": 60,
      "hit": false,
      "t": 130333.33333333333,
      "d": 166.66666666667152,
      "v": 106
    },
    {
      "midi": 63,
      "hit": false,
      "t": 130333.33333333333,
      "d": 166.66666666667152,
      "v": 106
    },
    {
      "midi": 68,
      "hit": false,
      "t": 130333.33333333333,
      "d": 166.66666666667152,
      "v": 106
    },
    {
      "midi": 48,
      "hit": false,
      "t": 130500,
      "d": 500,
      "v": 106
    },
    {
      "midi": 60,
      "hit": false,
      "t": 130833.33333333333,
      "d": 166.66666666667152,
      "v": 107
    },
    {
      "midi": 63,
      "hit": false,
      "t": 130833.33333333333,
      "d": 166.66666666667152,
      "v": 107
    },
    {
      "midi": 68,
      "hit": false,
      "t": 130833.33333333333,
      "d": 166.66666666667152,
      "v": 107
    },
    {
      "midi": 51,
      "hit": false,
      "t": 131000,
      "d": 500,
      "v": 107
    },
    {
      "midi": 60,
      "hit": false,
      "t": 131333.33333333334,
      "d": 166.66666666665697,
      "v": 108
    },
    {
      "midi": 63,
      "hit": false,
      "t": 131333.33333333334,
      "d": 166.66666666665697,
      "v": 108
    },
    {
      "midi": 68,
      "hit": false,
      "t": 131333.33333333334,
      "d": 166.66666666665697,
      "v": 108
    },
    {
      "midi": 53,
      "hit": false,
      "t": 131500,
      "d": 500,
      "v": 108
    },
    {
      "midi": 60,
      "hit": false,
      "t": 131833.33333333334,
      "d": 166.66666666665697,
      "v": 108
    },
    {
      "midi": 63,
      "hit": false,
      "t": 131833.33333333334,
      "d": 166.66666666665697,
      "v": 108
    },
    {
      "midi": 68,
      "hit": false,
      "t": 131833.33333333334,
      "d": 166.66666666665697,
      "v": 108
    },
    {
      "midi": 56,
      "hit": false,
      "t": 132000,
      "d": 166.66666666665697,
      "v": 108
    },
    {
      "midi": 56,
      "hit": false,
      "t": 132333.3333333333,
      "d": 166.66666666665697,
      "v": 109
    },
    {
      "midi": 60,
      "hit": false,
      "t": 132333.3333333333,
      "d": 166.66666666665697,
      "v": 109
    },
    {
      "midi": 63,
      "hit": false,
      "t": 132333.3333333333,
      "d": 166.66666666665697,
      "v": 109
    },
    {
      "midi": 68,
      "hit": false,
      "t": 132333.3333333333,
      "d": 166.66666666665697,
      "v": 109
    },
    {
      "midi": 54,
      "hit": false,
      "t": 132499.99999999997,
      "d": 500,
      "v": 109
    },
    {
      "midi": 60,
      "hit": false,
      "t": 132833.3333333333,
      "d": 166.66666666665697,
      "v": 110
    },
    {
      "midi": 63,
      "hit": false,
      "t": 132833.3333333333,
      "d": 166.66666666665697,
      "v": 110
    },
    {
      "midi": 68,
      "hit": false,
      "t": 132833.3333333333,
      "d": 166.66666666665697,
      "v": 110
    },
    {
      "midi": 53,
      "hit": false,
      "t": 132999.99999999997,
      "d": 500,
      "v": 109
    },
    {
      "midi": 60,
      "hit": false,
      "t": 133333.3333333333,
      "d": 166.66666666665697,
      "v": 110
    },
    {
      "midi": 63,
      "hit": false,
      "t": 133333.3333333333,
      "d": 166.66666666665697,
      "v": 110
    },
    {
      "midi": 68,
      "hit": false,
      "t": 133333.3333333333,
      "d": 166.66666666665697,
      "v": 110
    },
    {
      "midi": 51,
      "hit": false,
      "t": 133499.99999999997,
      "d": 500,
      "v": 110
    },
    {
      "midi": 60,
      "hit": false,
      "t": 133833.3333333333,
      "d": 166.66666666665697,
      "v": 111
    },
    {
      "midi": 63,
      "hit": false,
      "t": 133833.3333333333,
      "d": 166.66666666665697,
      "v": 111
    },
    {
      "midi": 68,
      "hit": false,
      "t": 133833.3333333333,
      "d": 166.66666666665697,
      "v": 111
    },
    {
      "midi": 49,
      "hit": false,
      "t": 133999.99999999997,
      "d": 500,
      "v": 110
    },
    {
      "midi": 61,
      "hit": false,
      "t": 134333.3333333333,
      "d": 166.66666666665697,
      "v": 111
    },
    {
      "midi": 65,
      "hit": false,
      "t": 134333.3333333333,
      "d": 166.66666666665697,
      "v": 111
    },
    {
      "midi": 68,
      "hit": false,
      "t": 134333.3333333333,
      "d": 166.66666666665697,
      "v": 111
    },
    {
      "midi": 53,
      "hit": false,
      "t": 134499.99999999997,
      "d": 500,
      "v": 111
    },
    {
      "midi": 61,
      "hit": false,
      "t": 134833.3333333333,
      "d": 166.66666666665697,
      "v": 112
    },
    {
      "midi": 65,
      "hit": false,
      "t": 134833.3333333333,
      "d": 166.66666666665697,
      "v": 112
    },
    {
      "midi": 68,
      "hit": false,
      "t": 134833.3333333333,
      "d": 166.66666666665697,
      "v": 112
    },
    {
      "midi": 56,
      "hit": false,
      "t": 134999.99999999997,
      "d": 500,
      "v": 112
    },
    {
      "midi": 61,
      "hit": false,
      "t": 135333.3333333333,
      "d": 166.66666666665697,
      "v": 113
    },
    {
      "midi": 65,
      "hit": false,
      "t": 135333.3333333333,
      "d": 166.66666666665697,
      "v": 113
    },
    {
      "midi": 68,
      "hit": false,
      "t": 135333.3333333333,
      "d": 166.66666666665697,
      "v": 113
    },
    {
      "midi": 58,
      "hit": false,
      "t": 135499.99999999997,
      "d": 500,
      "v": 112
    },
    {
      "midi": 61,
      "hit": false,
      "t": 135833.3333333333,
      "d": 166.66666666665697,
      "v": 113
    },
    {
      "midi": 65,
      "hit": false,
      "t": 135833.3333333333,
      "d": 166.66666666665697,
      "v": 113
    },
    {
      "midi": 68,
      "hit": false,
      "t": 135833.3333333333,
      "d": 166.66666666665697,
      "v": 113
    },
    {
      "midi": 61,
      "hit": false,
      "t": 135999.99999999997,
      "d": 83.33333333334303,
      "v": 113
    },
    {
      "midi": 56,
      "hit": false,
      "t": 136166.66666666666,
      "d": 83.33333333334303,
      "v": 113
    },
    {
      "midi": 53,
      "hit": false,
      "t": 136333.33333333334,
      "d": 83.33333333334303,
      "v": 113
    },
    {
      "midi": 49,
      "hit": false,
      "t": 136500.00000000003,
      "d": 166.66666666665697,
      "v": 113
    },
    {
      "midi": 69,
      "hit": false,
      "t": 137000.00000000023,
      "d": 166.66666666665697,
      "v": 101
    },
    {
      "midi": 74,
      "hit": false,
      "t": 137000.00000000023,
      "d": 999.9999999999709,
      "v": 112
    },
    {
      "midi": 71,
      "hit": false,
      "t": 137166.6666666669,
      "d": 666.666666666657,
      "v": 68
    },
    {
      "midi": 69,
      "hit": false,
      "t": 137833.33333333355,
      "d": 166.66666666665697,
      "v": 117
    },
    {
      "midi": 43,
      "hit": false,
      "t": 138000.00000000003,
      "d": 500,
      "v": 97
    },
    {
      "midi": 74,
      "hit": false,
      "t": 138000.0000000002,
      "d": 329.16666666665697,
      "v": 85
    },
    {
      "midi": 67,
      "hit": false,
      "t": 138000.0000000002,
      "d": 333.33333333331393,
      "v": 105
    },
    {
      "midi": 59,
      "hit": false,
      "t": 138333.33333333337,
      "d": 166.66666666665697,
      "v": 97
    },
    {
      "midi": 62,
      "hit": false,
      "t": 138333.33333333337,
      "d": 166.66666666665697,
      "v": 97
    },
    {
      "midi": 67,
      "hit": false,
      "t": 138333.33333333337,
      "d": 166.66666666665697,
      "v": 97
    },
    {
      "midi": 62,
      "hit": false,
      "t": 138333.33333333352,
      "d": 2166.666666666657,
      "v": 115
    },
    {
      "midi": 67,
      "hit": false,
      "t": 138333.33333333352,
      "d": 2166.666666666657,
      "v": 104
    },
    {
      "midi": 47,
      "hit": false,
      "t": 138500.00000000003,
      "d": 500,
      "v": 97
    },
    {
      "midi": 59,
      "hit": false,
      "t": 138833.33333333337,
      "d": 166.66666666665697,
      "v": 97
    },
    {
      "midi": 62,
      "hit": false,
      "t": 138833.33333333337,
      "d": 166.66666666665697,
      "v": 97
    },
    {
      "midi": 67,
      "hit": false,
      "t": 138833.33333333337,
      "d": 166.66666666665697,
      "v": 97
    },
    {
      "midi": 50,
      "hit": false,
      "t": 139000.00000000003,
      "d": 500,
      "v": 97
    },
    {
      "midi": 59,
      "hit": false,
      "t": 139333.33333333337,
      "d": 166.66666666665697,
      "v": 97
    },
    {
      "midi": 62,
      "hit": false,
      "t": 139333.33333333337,
      "d": 166.66666666665697,
      "v": 97
    },
    {
      "midi": 67,
      "hit": false,
      "t": 139333.33333333337,
      "d": 166.66666666665697,
      "v": 97
    },
    {
      "midi": 47,
      "hit": false,
      "t": 139500.00000000003,
      "d": 500,
      "v": 97
    },
    {
      "midi": 59,
      "hit": false,
      "t": 139833.33333333337,
      "d": 166.66666666665697,
      "v": 97
    },
    {
      "midi": 62,
      "hit": false,
      "t": 139833.33333333337,
      "d": 166.66666666665697,
      "v": 97
    },
    {
      "midi": 67,
      "hit": false,
      "t": 139833.33333333337,
      "d": 166.66666666665697,
      "v": 97
    },
    {
      "midi": 43,
      "hit": false,
      "t": 140000.00000000003,
      "d": 500,
      "v": 98
    },
    {
      "midi": 59,
      "hit": false,
      "t": 140333.33333333337,
      "d": 166.66666666665697,
      "v": 98
    },
    {
      "midi": 62,
      "hit": false,
      "t": 140333.33333333337,
      "d": 166.66666666665697,
      "v": 98
    },
    {
      "midi": 67,
      "hit": false,
      "t": 140333.33333333337,
      "d": 166.66666666665697,
      "v": 98
    },
    {
      "midi": 47,
      "hit": false,
      "t": 140500.00000000003,
      "d": 500,
      "v": 98
    },
    {
      "midi": 59,
      "hit": false,
      "t": 140833.33333333337,
      "d": 166.66666666665697,
      "v": 98
    },
    {
      "midi": 62,
      "hit": false,
      "t": 140833.33333333337,
      "d": 166.66666666665697,
      "v": 98
    },
    {
      "midi": 67,
      "hit": false,
      "t": 140833.33333333337,
      "d": 166.66666666665697,
      "v": 98
    },
    {
      "midi": 50,
      "hit": false,
      "t": 141000.00000000003,
      "d": 500,
      "v": 98
    },
    {
      "midi": 71,
      "hit": false,
      "t": 141000.00000000017,
      "d": 166.66666666665697,
      "v": 117
    },
    {
      "midi": 76,
      "hit": false,
      "t": 141000.00000000017,
      "d": 170.83333333331393,
      "v": 107
    },
    {
      "midi": 72,
      "hit": false,
      "t": 141166.66666666683,
      "d": 145.83333333331393,
      "v": 103
    },
    {
      "midi": 59,
      "hit": false,
      "t": 141333.33333333337,
      "d": 166.66666666665697,
      "v": 98
    },
    {
      "midi": 62,
      "hit": false,
      "t": 141333.33333333337,
      "d": 166.66666666665697,
      "v": 98
    },
    {
      "midi": 67,
      "hit": false,
      "t": 141333.33333333337,
      "d": 166.66666666665697,
      "v": 98
    },
    {
      "midi": 47,
      "hit": false,
      "t": 141500.00000000003,
      "d": 500,
      "v": 98
    },
    {
      "midi": 71,
      "hit": false,
      "t": 141550.00000000015,
      "d": 137.5,
      "v": 105
    },
    {
      "midi": 59,
      "hit": false,
      "t": 141833.33333333337,
      "d": 166.66666666665697,
      "v": 98
    },
    {
      "midi": 62,
      "hit": false,
      "t": 141833.33333333337,
      "d": 166.66666666665697,
      "v": 98
    },
    {
      "midi": 67,
      "hit": false,
      "t": 141833.33333333337,
      "d": 166.66666666665697,
      "v": 98
    },
    {
      "midi": 69,
      "hit": false,
      "t": 141858.3333333335,
      "d": 2241.666666666657,
      "v": 110
    },
    {
      "midi": 72,
      "hit": false,
      "t": 141858.3333333335,
      "d": 2241.666666666657,
      "v": 101
    },
    {
      "midi": 45,
      "hit": false,
      "t": 142000.00000000003,
      "d": 500,
      "v": 99
    },
    {
      "midi": 60,
      "hit": false,
      "t": 142333.33333333337,
      "d": 166.66666666665697,
      "v": 99
    },
    {
      "midi": 64,
      "hit": false,
      "t": 142333.33333333337,
      "d": 166.66666666665697,
      "v": 99
    },
    {
      "midi": 69,
      "hit": false,
      "t": 142333.33333333337,
      "d": 166.66666666665697,
      "v": 99
    },
    {
      "midi": 48,
      "hit": false,
      "t": 142500.00000000003,
      "d": 500,
      "v": 99
    },
    {
      "midi": 60,
      "hit": false,
      "t": 142833.33333333337,
      "d": 166.66666666665697,
      "v": 99
    },
    {
      "midi": 64,
      "hit": false,
      "t": 142833.33333333337,
      "d": 166.66666666665697,
      "v": 99
    },
    {
      "midi": 69,
      "hit": false,
      "t": 142833.33333333337,
      "d": 166.66666666665697,
      "v": 99
    },
    {
      "midi": 52,
      "hit": false,
      "t": 143000.00000000003,
      "d": 500,
      "v": 99
    },
    {
      "midi": 60,
      "hit": false,
      "t": 143333.33333333337,
      "d": 166.66666666665697,
      "v": 99
    },
    {
      "midi": 64,
      "hit": false,
      "t": 143333.33333333337,
      "d": 166.66666666665697,
      "v": 99
    },
    {
      "midi": 69,
      "hit": false,
      "t": 143333.33333333337,
      "d": 166.66666666665697,
      "v": 99
    },
    {
      "midi": 48,
      "hit": false,
      "t": 143500.00000000003,
      "d": 500,
      "v": 100
    },
    {
      "midi": 60,
      "hit": false,
      "t": 143833.33333333337,
      "d": 166.66666666665697,
      "v": 99
    },
    {
      "midi": 64,
      "hit": false,
      "t": 143833.33333333337,
      "d": 166.66666666665697,
      "v": 99
    },
    {
      "midi": 69,
      "hit": false,
      "t": 143833.33333333337,
      "d": 166.66666666665697,
      "v": 99
    },
    {
      "midi": 45,
      "hit": false,
      "t": 144000.00000000003,
      "d": 500,
      "v": 100
    },
    {
      "midi": 60,
      "hit": false,
      "t": 144333.33333333337,
      "d": 166.66666666665697,
      "v": 100
    },
    {
      "midi": 64,
      "hit": false,
      "t": 144333.33333333337,
      "d": 166.66666666665697,
      "v": 100
    },
    {
      "midi": 69,
      "hit": false,
      "t": 144333.33333333337,
      "d": 166.66666666665697,
      "v": 100
    },
    {
      "midi": 48,
      "hit": false,
      "t": 144500.00000000003,
      "d": 500,
      "v": 100
    },
    {
      "midi": 60,
      "hit": false,
      "t": 144833.33333333337,
      "d": 166.66666666665697,
      "v": 100
    },
    {
      "midi": 64,
      "hit": false,
      "t": 144833.33333333337,
      "d": 166.66666666665697,
      "v": 100
    },
    {
      "midi": 69,
      "hit": false,
      "t": 144833.33333333337,
      "d": 166.66666666665697,
      "v": 100
    },
    {
      "midi": 52,
      "hit": false,
      "t": 145000.00000000003,
      "d": 500,
      "v": 100
    },
    {
      "midi": 67,
      "hit": false,
      "t": 145020.8333333335,
      "d": 187.4999999999709,
      "v": 104
    },
    {
      "midi": 72,
      "hit": false,
      "t": 145025.00000000015,
      "d": 674.9999999999709,
      "v": 101
    },
    {
      "midi": 69,
      "hit": false,
      "t": 145179.1666666668,
      "d": 504.16666666665697,
      "v": 72
    },
    {
      "midi": 60,
      "hit": false,
      "t": 145333.33333333337,
      "d": 166.66666666665697,
      "v": 100
    },
    {
      "midi": 64,
      "hit": false,
      "t": 145333.33333333337,
      "d": 166.66666666665697,
      "v": 100
    },
    {
      "midi": 69,
      "hit": false,
      "t": 145333.33333333337,
      "d": 166.66666666665697,
      "v": 100
    },
    {
      "midi": 48,
      "hit": false,
      "t": 145500.00000000003,
      "d": 500,
      "v": 101
    },
    {
      "midi": 67,
      "hit": false,
      "t": 145762.50000000012,
      "d": 120.83333333331393,
      "v": 99
    },
    {
      "midi": 72,
      "hit": false,
      "t": 145766.66666666677,
      "d": 112.5,
      "v": 93
    },
    {
      "midi": 60,
      "hit": false,
      "t": 145833.33333333337,
      "d": 166.66666666665697,
      "v": 101
    },
    {
      "midi": 64,
      "hit": false,
      "t": 145833.33333333337,
      "d": 166.66666666665697,
      "v": 101
    },
    {
      "midi": 69,
      "hit": false,
      "t": 145833.33333333337,
      "d": 166.66666666665697,
      "v": 101
    },
    {
      "midi": 38,
      "hit": false,
      "t": 146000.00000000003,
      "d": 500,
      "v": 101
    },
    {
      "midi": 64,
      "hit": false,
      "t": 146000.00000000012,
      "d": 95.83333333331393,
      "v": 98
    },
    {
      "midi": 69,
      "hit": false,
      "t": 146004.16666666677,
      "d": 237.5,
      "v": 104
    },
    {
      "midi": 66,
      "hit": false,
      "t": 146091.66666666677,
      "d": 141.66666666665697,
      "v": 93
    },
    {
      "midi": 69,
      "hit": false,
      "t": 146295.83333333343,
      "d": 1341.666666666657,
      "v": 99
    },
    {
      "midi": 62,
      "hit": false,
      "t": 146300.0000000001,
      "d": 1287.5,
      "v": 105
    },
    {
      "midi": 62,
      "hit": false,
      "t": 146333.33333333337,
      "d": 166.66666666665697,
      "v": 101
    },
    {
      "midi": 66,
      "hit": false,
      "t": 146333.33333333337,
      "d": 166.66666666665697,
      "v": 101
    },
    {
      "midi": 69,
      "hit": false,
      "t": 146333.33333333337,
      "d": 166.66666666665697,
      "v": 101
    },
    {
      "midi": 42,
      "hit": false,
      "t": 146500.00000000003,
      "d": 500,
      "v": 101
    },
    {
      "midi": 62,
      "hit": false,
      "t": 146833.33333333337,
      "d": 166.66666666665697,
      "v": 101
    },
    {
      "midi": 66,
      "hit": false,
      "t": 146833.33333333337,
      "d": 166.66666666665697,
      "v": 101
    },
    {
      "midi": 69,
      "hit": false,
      "t": 146833.33333333337,
      "d": 166.66666666665697,
      "v": 101
    },
    {
      "midi": 45,
      "hit": false,
      "t": 147000.00000000003,
      "d": 500,
      "v": 102
    },
    {
      "midi": 62,
      "hit": false,
      "t": 147333.33333333337,
      "d": 166.66666666665697,
      "v": 101
    },
    {
      "midi": 66,
      "hit": false,
      "t": 147333.33333333337,
      "d": 166.66666666665697,
      "v": 101
    },
    {
      "midi": 69,
      "hit": false,
      "t": 147333.33333333337,
      "d": 166.66666666665697,
      "v": 101
    },
    {
      "midi": 47,
      "hit": false,
      "t": 147500.00000000003,
      "d": 500,
      "v": 102
    },
    {
      "midi": 62,
      "hit": false,
      "t": 147833.33333333337,
      "d": 166.66666666665697,
      "v": 102
    },
    {
      "midi": 66,
      "hit": false,
      "t": 147833.33333333337,
      "d": 166.66666666665697,
      "v": 102
    },
    {
      "midi": 69,
      "hit": false,
      "t": 147833.33333333337,
      "d": 166.66666666665697,
      "v": 102
    },
    {
      "midi": 50,
      "hit": false,
      "t": 148000.00000000003,
      "d": 166.66666666665697,
      "v": 102
    },
    {
      "midi": 50,
      "hit": false,
      "t": 148333.33333333334,
      "d": 166.66666666665697,
      "v": 102
    },
    {
      "midi": 62,
      "hit": false,
      "t": 148333.33333333334,
      "d": 166.66666666665697,
      "v": 102
    },
    {
      "midi": 66,
      "hit": false,
      "t": 148333.33333333334,
      "d": 166.66666666665697,
      "v": 102
    },
    {
      "midi": 69,
      "hit": false,
      "t": 148333.33333333334,
      "d": 166.66666666665697,
      "v": 102
    },
    {
      "midi": 62,
      "hit": false,
      "t": 148350.0000000001,
      "d": 379.16666666665697,
      "v": 89
    },
    {
      "midi": 48,
      "hit": false,
      "t": 148500,
      "d": 500,
      "v": 102
    },
    {
      "midi": 62,
      "hit": false,
      "t": 148833.33333333334,
      "d": 166.66666666665697,
      "v": 102
    },
    {
      "midi": 66,
      "hit": false,
      "t": 148833.33333333334,
      "d": 166.66666666665697,
      "v": 102
    },
    {
      "midi": 69,
      "hit": false,
      "t": 148833.33333333334,
      "d": 166.66666666665697,
      "v": 102
    },
    {
      "midi": 62,
      "hit": false,
      "t": 148858.3333333334,
      "d": 120.83333333334303,
      "v": 117
    },
    {
      "midi": 47,
      "hit": false,
      "t": 149000,
      "d": 500,
      "v": 103
    },
    {
      "midi": 74,
      "hit": false,
      "t": 149041.66666666674,
      "d": 395.83333333334303,
      "v": 127
    },
    {
      "midi": 69,
      "hit": false,
      "t": 149050.0000000001,
      "d": 150,
      "v": 117
    },
    {
      "midi": 71,
      "hit": false,
      "t": 149179.16666666674,
      "d": 241.66666666668607,
      "v": 64
    },
    {
      "midi": 62,
      "hit": false,
      "t": 149333.33333333334,
      "d": 166.66666666665697,
      "v": 102
    },
    {
      "midi": 66,
      "hit": false,
      "t": 149333.33333333334,
      "d": 166.66666666665697,
      "v": 102
    },
    {
      "midi": 69,
      "hit": false,
      "t": 149333.33333333334,
      "d": 166.66666666665697,
      "v": 102
    },
    {
      "midi": 67,
      "hit": false,
      "t": 149387.5000000001,
      "d": 100,
      "v": 93
    },
    {
      "midi": 45,
      "hit": false,
      "t": 149500,
      "d": 500,
      "v": 103
    },
    {
      "midi": 69,
      "hit": false,
      "t": 149545.83333333343,
      "d": 229.16666666668607,
      "v": 107
    },
    {
      "midi": 74,
      "hit": false,
      "t": 149545.83333333343,
      "d": 237.5000000000291,
      "v": 127
    },
    {
      "midi": 62,
      "hit": false,
      "t": 149833.33333333334,
      "d": 166.66666666665697,
      "v": 103
    },
    {
      "midi": 66,
      "hit": false,
      "t": 149833.33333333334,
      "d": 166.66666666665697,
      "v": 103
    },
    {
      "midi": 69,
      "hit": false,
      "t": 149833.33333333334,
      "d": 166.66666666665697,
      "v": 103
    },
    {
      "midi": 67,
      "hit": false,
      "t": 149875.00000000012,
      "d": 500,
      "v": 119
    },
    {
      "midi": 74,
      "hit": false,
      "t": 149875.00000000012,
      "d": 500,
      "v": 117
    },
    {
      "midi": 43,
      "hit": false,
      "t": 150000,
      "d": 500,
      "v": 103
    },
    {
      "midi": 59,
      "hit": false,
      "t": 150333.33333333334,
      "d": 166.66666666665697,
      "v": 103
    },
    {
      "midi": 62,
      "hit": false,
      "t": 150333.33333333334,
      "d": 166.66666666665697,
      "v": 103
    },
    {
      "midi": 67,
      "hit": false,
      "t": 150333.33333333334,
      "d": 166.66666666665697,
      "v": 103
    },
    {
      "midi": 62,
      "hit": false,
      "t": 150333.33333333346,
      "d": 499.9999999999709,
      "v": 120
    },
    {
      "midi": 40,
      "hit": false,
      "t": 150500,
      "d": 500,
      "v": 103
    },
    {
      "midi": 67,
      "hit": false,
      "t": 150500.00000000012,
      "d": 166.66666666665697,
      "v": 120
    },
    {
      "midi": 71,
      "hit": false,
      "t": 150666.66666666677,
      "d": 166.66666666665697,
      "v": 121
    },
    {
      "midi": 59,
      "hit": false,
      "t": 150833.33333333334,
      "d": 166.66666666665697,
      "v": 103
    },
    {
      "midi": 62,
      "hit": false,
      "t": 150833.33333333334,
      "d": 166.66666666665697,
      "v": 103
    },
    {
      "midi": 67,
      "hit": false,
      "t": 150833.33333333334,
      "d": 166.66666666665697,
      "v": 103
    },
    {
      "midi": 74,
      "hit": false,
      "t": 150833.33333333343,
      "d": 166.66666666665697,
      "v": 121
    },
    {
      "midi": 38,
      "hit": false,
      "t": 151000,
      "d": 500,
      "v": 104
    },
    {
      "midi": 74,
      "hit": false,
      "t": 151000.0000000001,
      "d": 166.66666666665697,
      "v": 122
    },
    {
      "midi": 79,
      "hit": false,
      "t": 151000.0000000001,
      "d": 333.33333333331393,
      "v": 122
    },
    {
      "midi": 76,
      "hit": false,
      "t": 151166.66666666674,
      "d": 166.66666666665697,
      "v": 122
    },
    {
      "midi": 59,
      "hit": false,
      "t": 151333.33333333334,
      "d": 166.66666666665697,
      "v": 103
    },
    {
      "midi": 62,
      "hit": false,
      "t": 151333.33333333334,
      "d": 166.66666666665697,
      "v": 103
    },
    {
      "midi": 67,
      "hit": false,
      "t": 151333.33333333334,
      "d": 166.66666666665697,
      "v": 103
    },
    {
      "midi": 74,
      "hit": false,
      "t": 151333.3333333334,
      "d": 166.66666666665697,
      "v": 123
    },
    {
      "midi": 79,
      "hit": false,
      "t": 151333.3333333334,
      "d": 166.66666666665697,
      "v": 123
    },
    {
      "midi": 35,
      "hit": false,
      "t": 151500,
      "d": 500,
      "v": 104
    },
    {
      "midi": 69,
      "hit": false,
      "t": 151666.66666666672,
      "d": 166.66666666665697,
      "v": 124
    },
    {
      "midi": 74,
      "hit": false,
      "t": 151666.66666666672,
      "d": 166.66666666665697,
      "v": 124
    },
    {
      "midi": 59,
      "hit": false,
      "t": 151833.33333333334,
      "d": 166.66666666665697,
      "v": 104
    },
    {
      "midi": 62,
      "hit": false,
      "t": 151833.33333333334,
      "d": 166.66666666665697,
      "v": 104
    },
    {
      "midi": 67,
      "hit": false,
      "t": 151833.33333333334,
      "d": 166.66666666665697,
      "v": 104
    },
    {
      "midi": 31,
      "hit": false,
      "t": 152000,
      "d": 500,
      "v": 104
    },
    {
      "midi": 69,
      "hit": false,
      "t": 152000.00000000003,
      "d": 166.66666666668607,
      "v": 125
    },
    {
      "midi": 74,
      "hit": false,
      "t": 152000.00000000003,
      "d": 500.0000000000291,
      "v": 125
    },
    {
      "midi": 71,
      "hit": false,
      "t": 152166.66666666672,
      "d": 333.33333333334303,
      "v": 125
    },
    {
      "midi": 59,
      "hit": false,
      "t": 152333.33333333334,
      "d": 166.66666666665697,
      "v": 104
    },
    {
      "midi": 62,
      "hit": false,
      "t": 152333.33333333334,
      "d": 166.66666666665697,
      "v": 104
    },
    {
      "midi": 67,
      "hit": false,
      "t": 152333.33333333334,
      "d": 166.66666666665697,
      "v": 104
    },
    {
      "midi": 50,
      "hit": false,
      "t": 152500,
      "d": 500,
      "v": 105
    },
    {
      "midi": 59,
      "hit": false,
      "t": 152833.33333333334,
      "d": 166.66666666665697,
      "v": 104
    },
    {
      "midi": 62,
      "hit": false,
      "t": 152833.33333333334,
      "d": 166.66666666665697,
      "v": 104
    },
    {
      "midi": 67,
      "hit": false,
      "t": 152833.33333333334,
      "d": 166.66666666665697,
      "v": 104
    },
    {
      "midi": 62,
      "hit": false,
      "t": 152850.00000000006,
      "d": 129.16666666665697,
      "v": 99
    },
    {
      "midi": 52,
      "hit": false,
      "t": 153000,
      "d": 500,
      "v": 105
    },
    {
      "midi": 74,
      "hit": false,
      "t": 153016.66666666672,
      "d": 549.9999999999709,
      "v": 127
    },
    {
      "midi": 69,
      "hit": false,
      "t": 153020.83333333337,
      "d": 170.83333333331393,
      "v": 119
    },
    {
      "midi": 71,
      "hit": false,
      "t": 153162.50000000003,
      "d": 420.83333333331393,
      "v": 85
    },
    {
      "midi": 59,
      "hit": false,
      "t": 153333.33333333334,
      "d": 166.66666666665697,
      "v": 105
    },
    {
      "midi": 62,
      "hit": false,
      "t": 153333.33333333334,
      "d": 166.66666666665697,
      "v": 105
    },
    {
      "midi": 67,
      "hit": false,
      "t": 153333.33333333334,
      "d": 166.66666666665697,
      "v": 105
    },
    {
      "midi": 54,
      "hit": false,
      "t": 153500,
      "d": 500,
      "v": 105
    },
    {
      "midi": 69,
      "hit": false,
      "t": 153704.1666666667,
      "d": 154.16666666665697,
      "v": 104
    },
    {
      "midi": 74,
      "hit": false,
      "t": 153708.33333333334,
      "d": 191.66666666665697,
      "v": 117
    },
    {
      "midi": 59,
      "hit": false,
      "t": 153833.33333333334,
      "d": 166.66666666665697,
      "v": 105
    },
    {
      "midi": 62,
      "hit": false,
      "t": 153833.33333333334,
      "d": 166.66666666665697,
      "v": 105
    },
    {
      "midi": 67,
      "hit": false,
      "t": 153833.33333333334,
      "d": 166.66666666665697,
      "v": 105
    },
    {
      "midi": 55,
      "hit": false,
      "t": 154000,
      "d": 500,
      "v": 105
    },
    {
      "midi": 74,
      "hit": false,
      "t": 154041.66666666666,
      "d": 145.83333333331393,
      "v": 107
    },
    {
      "midi": 67,
      "hit": false,
      "t": 154045.8333333333,
      "d": 158.33333333331393,
      "v": 107
    },
    {
      "midi": 59,
      "hit": false,
      "t": 154333.33333333334,
      "d": 166.66666666665697,
      "v": 105
    },
    {
      "midi": 62,
      "hit": false,
      "t": 154333.33333333334,
      "d": 166.66666666665697,
      "v": 105
    },
    {
      "midi": 67,
      "hit": false,
      "t": 154333.33333333334,
      "d": 166.66666666665697,
      "v": 105
    },
    {
      "midi": 62,
      "hit": false,
      "t": 154354.16666666663,
      "d": 1108.333333333343,
      "v": 110
    },
    {
      "midi": 67,
      "hit": false,
      "t": 154358.33333333328,
      "d": 1125.000000000029,
      "v": 112
    },
    {
      "midi": 52,
      "hit": false,
      "t": 154500,
      "d": 500,
      "v": 106
    },
    {
      "midi": 59,
      "hit": false,
      "t": 154833.33333333334,
      "d": 166.66666666665697,
      "v": 105
    },
    {
      "midi": 62,
      "hit": false,
      "t": 154833.33333333334,
      "d": 166.66666666665697,
      "v": 105
    },
    {
      "midi": 67,
      "hit": false,
      "t": 154833.33333333334,
      "d": 166.66666666665697,
      "v": 105
    },
    {
      "midi": 50,
      "hit": false,
      "t": 155000,
      "d": 500,
      "v": 106
    },
    {
      "midi": 59,
      "hit": false,
      "t": 155333.33333333334,
      "d": 166.66666666665697,
      "v": 106
    },
    {
      "midi": 62,
      "hit": false,
      "t": 155333.33333333334,
      "d": 166.66666666665697,
      "v": 106
    },
    {
      "midi": 67,
      "hit": false,
      "t": 155333.33333333334,
      "d": 166.66666666665697,
      "v": 106
    },
    {
      "midi": 47,
      "hit": false,
      "t": 155500,
      "d": 500,
      "v": 106
    },
    {
      "midi": 59,
      "hit": false,
      "t": 155833.33333333334,
      "d": 166.66666666665697,
      "v": 106
    },
    {
      "midi": 62,
      "hit": false,
      "t": 155833.33333333334,
      "d": 166.66666666665697,
      "v": 106
    },
    {
      "midi": 67,
      "hit": false,
      "t": 155833.33333333334,
      "d": 166.66666666665697,
      "v": 106
    },
    {
      "midi": 43,
      "hit": false,
      "t": 156000,
      "d": 495.83333333334303,
      "v": 107
    },
    {
      "midi": 59,
      "hit": false,
      "t": 156333.33333333334,
      "d": 166.66666666665697,
      "v": 106
    },
    {
      "midi": 62,
      "hit": false,
      "t": 156333.33333333334,
      "d": 166.66666666665697,
      "v": 106
    },
    {
      "midi": 67,
      "hit": false,
      "t": 156333.33333333334,
      "d": 166.66666666665697,
      "v": 106
    },
    {
      "midi": 62,
      "hit": false,
      "t": 156354.16666666666,
      "d": 162.5,
      "v": 94
    },
    {
      "midi": 43,
      "hit": false,
      "t": 156500,
      "d": 500,
      "v": 107
    },
    {
      "midi": 67,
      "hit": false,
      "t": 156520.8333333333,
      "d": 199.9999999999709,
      "v": 119
    },
    {
      "midi": 74,
      "hit": false,
      "t": 156524.99999999997,
      "d": 195.83333333331393,
      "v": 123
    },
    {
      "midi": 67,
      "hit": false,
      "t": 156833.33333333328,
      "d": 125,
      "v": 112
    },
    {
      "midi": 74,
      "hit": false,
      "t": 156833.33333333328,
      "d": 145.83333333334303,
      "v": 119
    },
    {
      "midi": 59,
      "hit": false,
      "t": 156833.33333333334,
      "d": 166.66666666665697,
      "v": 106
    },
    {
      "midi": 62,
      "hit": false,
      "t": 156833.33333333334,
      "d": 166.66666666665697,
      "v": 106
    },
    {
      "midi": 67,
      "hit": false,
      "t": 156833.33333333334,
      "d": 166.66666666665697,
      "v": 106
    },
    {
      "midi": 45,
      "hit": false,
      "t": 157000,
      "d": 500,
      "v": 107
    },
    {
      "midi": 69,
      "hit": false,
      "t": 157033.33333333328,
      "d": 225,
      "v": 105
    },
    {
      "midi": 74,
      "hit": false,
      "t": 157033.33333333328,
      "d": 225,
      "v": 105
    },
    {
      "midi": 59,
      "hit": false,
      "t": 157333.33333333334,
      "d": 166.66666666665697,
      "v": 107
    },
    {
      "midi": 62,
      "hit": false,
      "t": 157333.33333333334,
      "d": 166.66666666665697,
      "v": 107
    },
    {
      "midi": 67,
      "hit": false,
      "t": 157333.33333333334,
      "d": 166.66666666665697,
      "v": 107
    },
    {
      "midi": 69,
      "hit": false,
      "t": 157341.66666666663,
      "d": 208.33333333334303,
      "v": 105
    },
    {
      "midi": 74,
      "hit": false,
      "t": 157349.99999999997,
      "d": 333.33333333334303,
      "v": 107
    },
    {
      "midi": 47,
      "hit": false,
      "t": 157500,
      "d": 500,
      "v": 107
    },
    {
      "midi": 71,
      "hit": false,
      "t": 157529.16666666663,
      "d": 120.83333333334303,
      "v": 112
    },
    {
      "midi": 59,
      "hit": false,
      "t": 157833.33333333334,
      "d": 166.66666666665697,
      "v": 107
    },
    {
      "midi": 62,
      "hit": false,
      "t": 157833.33333333334,
      "d": 166.66666666665697,
      "v": 107
    },
    {
      "midi": 67,
      "hit": false,
      "t": 157833.33333333334,
      "d": 166.66666666665697,
      "v": 107
    },
    {
      "midi": 67,
      "hit": false,
      "t": 157991.66666666666,
      "d": 370.83333333331393,
      "v": 105
    },
    {
      "midi": 72,
      "hit": false,
      "t": 157995.8333333333,
      "d": 354.16666666665697,
      "v": 97
    },
    {
      "midi": 48,
      "hit": false,
      "t": 158000,
      "d": 500,
      "v": 108
    },
    {
      "midi": 60,
      "hit": false,
      "t": 158333.33333333334,
      "d": 166.66666666665697,
      "v": 107
    },
    {
      "midi": 64,
      "hit": false,
      "t": 158333.33333333334,
      "d": 166.66666666665697,
      "v": 107
    },
    {
      "midi": 67,
      "hit": false,
      "t": 158333.33333333334,
      "d": 166.66666666665697,
      "v": 107
    },
    {
      "midi": 52,
      "hit": false,
      "t": 158500,
      "d": 500,
      "v": 108
    },
    {
      "midi": 60,
      "hit": false,
      "t": 158833.33333333334,
      "d": 166.66666666665697,
      "v": 108
    },
    {
      "midi": 64,
      "hit": false,
      "t": 158833.33333333334,
      "d": 166.66666666665697,
      "v": 108
    },
    {
      "midi": 67,
      "hit": false,
      "t": 158833.33333333334,
      "d": 166.66666666665697,
      "v": 108
    },
    {
      "midi": 62,
      "hit": false,
      "t": 158974.99999999997,
      "d": 191.66666666668607,
      "v": 107
    },
    {
      "midi": 67,
      "hit": false,
      "t": 158974.99999999997,
      "d": 1100.000000000029,
      "v": 119
    },
    {
      "midi": 55,
      "hit": false,
      "t": 159000,
      "d": 500,
      "v": 108
    },
    {
      "midi": 64,
      "hit": false,
      "t": 159145.8333333333,
      "d": 908.333333333343,
      "v": 84
    },
    {
      "midi": 60,
      "hit": false,
      "t": 159333.33333333334,
      "d": 166.66666666665697,
      "v": 108
    },
    {
      "midi": 64,
      "hit": false,
      "t": 159333.33333333334,
      "d": 166.66666666665697,
      "v": 108
    },
    {
      "midi": 67,
      "hit": false,
      "t": 159333.33333333334,
      "d": 166.66666666665697,
      "v": 108
    },
    {
      "midi": 52,
      "hit": false,
      "t": 159500,
      "d": 500,
      "v": 109
    },
    {
      "midi": 60,
      "hit": false,
      "t": 159833.33333333334,
      "d": 166.66666666665697,
      "v": 108
    },
    {
      "midi": 64,
      "hit": false,
      "t": 159833.33333333334,
      "d": 166.66666666665697,
      "v": 108
    },
    {
      "midi": 67,
      "hit": false,
      "t": 159833.33333333334,
      "d": 166.66666666665697,
      "v": 108
    },
    {
      "midi": 48,
      "hit": false,
      "t": 160000,
      "d": 500,
      "v": 109
    },
    {
      "midi": 60,
      "hit": false,
      "t": 160333.33333333334,
      "d": 166.66666666665697,
      "v": 108
    },
    {
      "midi": 64,
      "hit": false,
      "t": 160333.33333333334,
      "d": 166.66666666665697,
      "v": 108
    },
    {
      "midi": 67,
      "hit": false,
      "t": 160333.33333333334,
      "d": 166.66666666665697,
      "v": 108
    },
    {
      "midi": 52,
      "hit": false,
      "t": 160500,
      "d": 500,
      "v": 109
    },
    {
      "midi": 60,
      "hit": false,
      "t": 160833.33333333334,
      "d": 166.66666666665697,
      "v": 109
    },
    {
      "midi": 64,
      "hit": false,
      "t": 160833.33333333334,
      "d": 166.66666666665697,
      "v": 109
    },
    {
      "midi": 67,
      "hit": false,
      "t": 160833.33333333334,
      "d": 166.66666666665697,
      "v": 109
    },
    {
      "midi": 62,
      "hit": false,
      "t": 160854.16666666666,
      "d": 195.83333333331393,
      "v": 101
    },
    {
      "midi": 55,
      "hit": false,
      "t": 161000,
      "d": 500,
      "v": 109
    },
    {
      "midi": 74,
      "hit": false,
      "t": 161016.66666666666,
      "d": 345.83333333331393,
      "v": 110
    },
    {
      "midi": 67,
      "hit": false,
      "t": 161020.8333333333,
      "d": 320.83333333331393,
      "v": 105
    },
    {
      "midi": 60,
      "hit": false,
      "t": 161333.33333333334,
      "d": 166.66666666665697,
      "v": 109
    },
    {
      "midi": 64,
      "hit": false,
      "t": 161333.33333333334,
      "d": 166.66666666665697,
      "v": 109
    },
    {
      "midi": 67,
      "hit": false,
      "t": 161333.33333333334,
      "d": 166.66666666665697,
      "v": 109
    },
    {
      "midi": 57,
      "hit": false,
      "t": 161500,
      "d": 500,
      "v": 110
    },
    {
      "midi": 69,
      "hit": false,
      "t": 161512.49999999997,
      "d": 279.16666666665697,
      "v": 101
    },
    {
      "midi": 74,
      "hit": false,
      "t": 161512.49999999997,
      "d": 304.16666666665697,
      "v": 115
    },
    {
      "midi": 67,
      "hit": false,
      "t": 161833.33333333328,
      "d": 116.66666666665697,
      "v": 105
    },
    {
      "midi": 60,
      "hit": false,
      "t": 161833.33333333334,
      "d": 166.66666666665697,
      "v": 109
    },
    {
      "midi": 64,
      "hit": false,
      "t": 161833.33333333334,
      "d": 166.66666666665697,
      "v": 109
    },
    {
      "midi": 67,
      "hit": false,
      "t": 161833.33333333334,
      "d": 166.66666666665697,
      "v": 109
    },
    {
      "midi": 69,
      "hit": false,
      "t": 161995.83333333328,
      "d": 145.83333333334303,
      "v": 104
    },
    {
      "midi": 74,
      "hit": false,
      "t": 161999.99999999994,
      "d": 241.66666666668607,
      "v": 112
    },
    {
      "midi": 55,
      "hit": false,
      "t": 162000,
      "d": 500,
      "v": 110
    },
    {
      "midi": 71,
      "hit": false,
      "t": 162108.33333333328,
      "d": 91.66666666668607,
      "v": 110
    },
    {
      "midi": 59,
      "hit": false,
      "t": 162333.33333333334,
      "d": 166.66666666665697,
      "v": 109
    },
    {
      "midi": 62,
      "hit": false,
      "t": 162333.33333333334,
      "d": 166.66666666665697,
      "v": 109
    },
    {
      "midi": 67,
      "hit": false,
      "t": 162333.33333333334,
      "d": 166.66666666665697,
      "v": 109
    },
    {
      "midi": 74,
      "hit": false,
      "t": 162495.8333333333,
      "d": 258.33333333331393,
      "v": 101
    },
    {
      "midi": 52,
      "hit": false,
      "t": 162500,
      "d": 500,
      "v": 110
    },
    {
      "midi": 79,
      "hit": false,
      "t": 162504.16666666666,
      "d": 245.83333333331393,
      "v": 110
    },
    {
      "midi": 59,
      "hit": false,
      "t": 162833.33333333334,
      "d": 166.66666666665697,
      "v": 110
    },
    {
      "midi": 62,
      "hit": false,
      "t": 162833.33333333334,
      "d": 166.66666666665697,
      "v": 110
    },
    {
      "midi": 67,
      "hit": false,
      "t": 162833.33333333334,
      "d": 166.66666666665697,
      "v": 110
    },
    {
      "midi": 69,
      "hit": false,
      "t": 162995.83333333328,
      "d": 200,
      "v": 105
    },
    {
      "midi": 74,
      "hit": false,
      "t": 162999.99999999994,
      "d": 379.16666666668607,
      "v": 119
    },
    {
      "midi": 50,
      "hit": false,
      "t": 163000,
      "d": 500,
      "v": 110
    },
    {
      "midi": 71,
      "hit": false,
      "t": 163149.99999999994,
      "d": 229.16666666668607,
      "v": 72
    },
    {
      "midi": 59,
      "hit": false,
      "t": 163333.33333333334,
      "d": 166.66666666665697,
      "v": 110
    },
    {
      "midi": 62,
      "hit": false,
      "t": 163333.33333333334,
      "d": 166.66666666665697,
      "v": 110
    },
    {
      "midi": 67,
      "hit": false,
      "t": 163333.33333333334,
      "d": 166.66666666665697,
      "v": 110
    },
    {
      "midi": 67,
      "hit": false,
      "t": 163491.66666666663,
      "d": 79.16666666665697,
      "v": 98
    },
    {
      "midi": 74,
      "hit": false,
      "t": 163491.66666666663,
      "d": 100,
      "v": 105
    },
    {
      "midi": 47,
      "hit": false,
      "t": 163500,
      "d": 500,
      "v": 111
    },
    {
      "midi": 59,
      "hit": false,
      "t": 163833.33333333334,
      "d": 166.66666666665697,
      "v": 110
    },
    {
      "midi": 62,
      "hit": false,
      "t": 163833.33333333334,
      "d": 166.66666666665697,
      "v": 110
    },
    {
      "midi": 67,
      "hit": false,
      "t": 163833.33333333334,
      "d": 166.66666666665697,
      "v": 110
    },
    {
      "midi": 64,
      "hit": false,
      "t": 163995.83333333328,
      "d": 158.33333333334303,
      "v": 115
    },
    {
      "midi": 69,
      "hit": false,
      "t": 163995.83333333328,
      "d": 516.6666666666861,
      "v": 123
    },
    {
      "midi": 50,
      "hit": false,
      "t": 164000,
      "d": 500,
      "v": 111
    },
    {
      "midi": 66,
      "hit": false,
      "t": 164158.33333333328,
      "d": 333.33333333334303,
      "v": 65
    },
    {
      "midi": 57,
      "hit": false,
      "t": 164333.33333333334,
      "d": 166.66666666665697,
      "v": 110
    },
    {
      "midi": 62,
      "hit": false,
      "t": 164333.33333333334,
      "d": 166.66666666665697,
      "v": 110
    },
    {
      "midi": 66,
      "hit": false,
      "t": 164333.33333333334,
      "d": 166.66666666665697,
      "v": 110
    },
    {
      "midi": 54,
      "hit": false,
      "t": 164500,
      "d": 500,
      "v": 111
    },
    {
      "midi": 62,
      "hit": false,
      "t": 164512.49999999997,
      "d": 187.5,
      "v": 101
    },
    {
      "midi": 57,
      "hit": false,
      "t": 164833.33333333334,
      "d": 166.66666666665697,
      "v": 111
    },
    {
      "midi": 62,
      "hit": false,
      "t": 164833.33333333334,
      "d": 166.66666666665697,
      "v": 111
    },
    {
      "midi": 66,
      "hit": false,
      "t": 164833.33333333334,
      "d": 166.66666666665697,
      "v": 111
    },
    {
      "midi": 62,
      "hit": false,
      "t": 164849.99999999997,
      "d": 112.5,
      "v": 105
    },
    {
      "midi": 74,
      "hit": false,
      "t": 165012.49999999997,
      "d": 274.9999999999418,
      "v": 105
    },
    {
      "midi": 69,
      "hit": false,
      "t": 165016.66666666663,
      "d": 133.33333333331393,
      "v": 98
    },
    {
      "midi": 71,
      "hit": false,
      "t": 165124.99999999994,
      "d": 133.33333333331393,
      "v": 94
    },
    {
      "midi": 69,
      "hit": false,
      "t": 165216.6666666666,
      "d": 116.66666666665697,
      "v": 76
    },
    {
      "midi": 66,
      "hit": false,
      "t": 165295.83333333326,
      "d": 70.83333333334303,
      "v": 81
    },
    {
      "midi": 57,
      "hit": false,
      "t": 165333.33333333334,
      "d": 166.66666666665697,
      "v": 111
    },
    {
      "midi": 62,
      "hit": false,
      "t": 165333.33333333334,
      "d": 166.66666666665697,
      "v": 111
    },
    {
      "midi": 66,
      "hit": false,
      "t": 165333.33333333334,
      "d": 166.66666666665697,
      "v": 111
    },
    {
      "midi": 62,
      "hit": false,
      "t": 165366.6666666666,
      "d": 100,
      "v": 68
    },
    {
      "midi": 54,
      "hit": false,
      "t": 165500,
      "d": 500,
      "v": 112
    },
    {
      "midi": 69,
      "hit": false,
      "t": 165524.99999999994,
      "d": 129.16666666665697,
      "v": 110
    },
    {
      "midi": 74,
      "hit": false,
      "t": 165524.99999999994,
      "d": 195.83333333331393,
      "v": 115
    },
    {
      "midi": 57,
      "hit": false,
      "t": 165833.33333333334,
      "d": 166.66666666665697,
      "v": 111
    },
    {
      "midi": 62,
      "hit": false,
      "t": 165833.33333333334,
      "d": 166.66666666665697,
      "v": 111
    },
    {
      "midi": 66,
      "hit": false,
      "t": 165833.33333333334,
      "d": 166.66666666665697,
      "v": 111
    },
    {
      "midi": 74,
      "hit": false,
      "t": 165841.6666666666,
      "d": 716.666666666657,
      "v": 110
    },
    {
      "midi": 67,
      "hit": false,
      "t": 165841.6666666666,
      "d": 729.166666666657,
      "v": 112
    },
    {
      "midi": 55,
      "hit": false,
      "t": 166000,
      "d": 500,
      "v": 112
    },
    {
      "midi": 59,
      "hit": false,
      "t": 166333.33333333334,
      "d": 166.66666666665697,
      "v": 112
    },
    {
      "midi": 62,
      "hit": false,
      "t": 166333.33333333334,
      "d": 166.66666666665697,
      "v": 112
    },
    {
      "midi": 67,
      "hit": false,
      "t": 166333.33333333334,
      "d": 166.66666666665697,
      "v": 112
    },
    {
      "midi": 52,
      "hit": false,
      "t": 166500,
      "d": 500,
      "v": 112
    },
    {
      "midi": 55,
      "hit": false,
      "t": 166833.33333333326,
      "d": 166.66666666668607,
      "v": 70
    },
    {
      "midi": 59,
      "hit": false,
      "t": 166833.33333333334,
      "d": 166.66666666665697,
      "v": 112
    },
    {
      "midi": 62,
      "hit": false,
      "t": 166833.33333333334,
      "d": 166.66666666665697,
      "v": 112
    },
    {
      "midi": 67,
      "hit": false,
      "t": 166833.33333333334,
      "d": 166.66666666665697,
      "v": 112
    },
    {
      "midi": 67,
      "hit": false,
      "t": 166999.99999999994,
      "d": 333.33333333334303,
      "v": 101
    },
    {
      "midi": 62,
      "hit": false,
      "t": 166999.99999999994,
      "d": 500,
      "v": 101
    },
    {
      "midi": 50,
      "hit": false,
      "t": 167000,
      "d": 500,
      "v": 113
    },
    {
      "midi": 59,
      "hit": false,
      "t": 167333.33333333334,
      "d": 166.66666666665697,
      "v": 112
    },
    {
      "midi": 62,
      "hit": false,
      "t": 167333.33333333334,
      "d": 166.66666666665697,
      "v": 112
    },
    {
      "midi": 67,
      "hit": false,
      "t": 167333.33333333334,
      "d": 166.66666666665697,
      "v": 112
    },
    {
      "midi": 60,
      "hit": false,
      "t": 167499.99999999994,
      "d": 333.33333333334303,
      "v": 110
    },
    {
      "midi": 47,
      "hit": false,
      "t": 167500,
      "d": 500,
      "v": 113
    },
    {
      "midi": 58,
      "hit": false,
      "t": 167833.33333333328,
      "d": 166.66666666665697,
      "v": 93
    },
    {
      "midi": 59,
      "hit": false,
      "t": 167833.33333333334,
      "d": 166.66666666665697,
      "v": 112
    },
    {
      "midi": 62,
      "hit": false,
      "t": 167833.33333333334,
      "d": 166.66666666665697,
      "v": 112
    },
    {
      "midi": 67,
      "hit": false,
      "t": 167833.33333333334,
      "d": 166.66666666665697,
      "v": 112
    },
    {
      "midi": 59,
      "hit": false,
      "t": 167999.99999999994,
      "d": 833.333333333343,
      "v": 104
    },
    {
      "midi": 43,
      "hit": false,
      "t": 168000,
      "d": 500,
      "v": 113
    },
    {
      "midi": 67,
      "hit": false,
      "t": 168333.33333333328,
      "d": 500,
      "v": 101
    },
    {
      "midi": 59,
      "hit": false,
      "t": 168333.33333333334,
      "d": 166.66666666665697,
      "v": 113
    },
    {
      "midi": 62,
      "hit": false,
      "t": 168333.33333333334,
      "d": 166.66666666665697,
      "v": 113
    },
    {
      "midi": 67,
      "hit": false,
      "t": 168333.33333333334,
      "d": 166.66666666665697,
      "v": 113
    },
    {
      "midi": 38,
      "hit": false,
      "t": 168500,
      "d": 500,
      "v": 94
    },
    {
      "midi": 62,
      "hit": false,
      "t": 168829.16666666663,
      "d": 208.33333333331393,
      "v": 87
    },
    {
      "midi": 59,
      "hit": false,
      "t": 168833.33333333334,
      "d": 166.66666666665697,
      "v": 113
    },
    {
      "midi": 62,
      "hit": false,
      "t": 168833.33333333334,
      "d": 166.66666666665697,
      "v": 113
    },
    {
      "midi": 67,
      "hit": false,
      "t": 168833.33333333334,
      "d": 166.66666666665697,
      "v": 113
    },
    {
      "midi": 40,
      "hit": false,
      "t": 169000,
      "d": 500,
      "v": 97
    },
    {
      "midi": 67,
      "hit": false,
      "t": 169024.99999999994,
      "d": 212.5,
      "v": 101
    },
    {
      "midi": 74,
      "hit": false,
      "t": 169029.1666666666,
      "d": 220.83333333334303,
      "v": 105
    },
    {
      "midi": 59,
      "hit": false,
      "t": 169333.33333333334,
      "d": 166.66666666665697,
      "v": 113
    },
    {
      "midi": 62,
      "hit": false,
      "t": 169333.33333333334,
      "d": 166.66666666665697,
      "v": 113
    },
    {
      "midi": 67,
      "hit": false,
      "t": 169333.33333333334,
      "d": 166.66666666665697,
      "v": 113
    },
    {
      "midi": 42,
      "hit": false,
      "t": 169500,
      "d": 500,
      "v": 104
    },
    {
      "midi": 74,
      "hit": false,
      "t": 169520.83333333328,
      "d": 270.83333333334303,
      "v": 95
    },
    {
      "midi": 69,
      "hit": false,
      "t": 169529.16666666663,
      "d": 258.33333333334303,
      "v": 97
    },
    {
      "midi": 59,
      "hit": false,
      "t": 169833.33333333334,
      "d": 166.66666666665697,
      "v": 113
    },
    {
      "midi": 62,
      "hit": false,
      "t": 169833.33333333334,
      "d": 166.66666666665697,
      "v": 113
    },
    {
      "midi": 67,
      "hit": false,
      "t": 169833.33333333334,
      "d": 166.66666666665697,
      "v": 113
    },
    {
      "midi": 71,
      "hit": false,
      "t": 169999.99999999997,
      "d": 166.66666666665697,
      "v": 110
    },
    {
      "midi": 74,
      "hit": false,
      "t": 169999.99999999997,
      "d": 166.66666666665697,
      "v": 112
    },
    {
      "midi": 55,
      "hit": false,
      "t": 170000,
      "d": 500,
      "v": 110
    },
    {
      "midi": 71,
      "hit": false,
      "t": 170333.33333333328,
      "d": 166.66666666665697,
      "v": 91
    },
    {
      "midi": 74,
      "hit": false,
      "t": 170333.33333333328,
      "d": 166.66666666665697,
      "v": 101
    },
    {
      "midi": 59,
      "hit": false,
      "t": 170333.33333333334,
      "d": 166.66666666665697,
      "v": 109
    },
    {
      "midi": 62,
      "hit": false,
      "t": 170333.33333333334,
      "d": 166.66666666665697,
      "v": 109
    },
    {
      "midi": 67,
      "hit": false,
      "t": 170333.33333333334,
      "d": 166.66666666665697,
      "v": 109
    },
    {
      "midi": 74,
      "hit": false,
      "t": 170499.99999999994,
      "d": 333.33333333334303,
      "v": 101
    },
    {
      "midi": 79,
      "hit": false,
      "t": 170499.99999999994,
      "d": 333.33333333334303,
      "v": 110
    },
    {
      "midi": 52,
      "hit": false,
      "t": 170500,
      "d": 500,
      "v": 110
    },
    {
      "midi": 74,
      "hit": false,
      "t": 170833.33333333328,
      "d": 166.66666666665697,
      "v": 97
    },
    {
      "midi": 79,
      "hit": false,
      "t": 170833.33333333328,
      "d": 166.66666666665697,
      "v": 105
    },
    {
      "midi": 59,
      "hit": false,
      "t": 170833.33333333334,
      "d": 166.66666666665697,
      "v": 110
    },
    {
      "midi": 62,
      "hit": false,
      "t": 170833.33333333334,
      "d": 166.66666666665697,
      "v": 110
    },
    {
      "midi": 67,
      "hit": false,
      "t": 170833.33333333334,
      "d": 166.66666666665697,
      "v": 110
    },
    {
      "midi": 69,
      "hit": false,
      "t": 170999.99999999994,
      "d": 166.66666666665697,
      "v": 105
    },
    {
      "midi": 74,
      "hit": false,
      "t": 170999.99999999994,
      "d": 333.33333333331393,
      "v": 119
    },
    {
      "midi": 50,
      "hit": false,
      "t": 171000,
      "d": 500,
      "v": 110
    },
    {
      "midi": 71,
      "hit": false,
      "t": 171166.6666666666,
      "d": 166.66666666665697,
      "v": 72
    },
    {
      "midi": 71,
      "hit": false,
      "t": 171333.33333333326,
      "d": 166.66666666665697,
      "v": 97
    },
    {
      "midi": 74,
      "hit": false,
      "t": 171333.33333333326,
      "d": 166.66666666665697,
      "v": 110
    },
    {
      "midi": 59,
      "hit": false,
      "t": 171333.33333333334,
      "d": 166.66666666665697,
      "v": 110
    },
    {
      "midi": 62,
      "hit": false,
      "t": 171333.33333333334,
      "d": 166.66666666665697,
      "v": 110
    },
    {
      "midi": 67,
      "hit": false,
      "t": 171333.33333333334,
      "d": 166.66666666665697,
      "v": 110
    },
    {
      "midi": 67,
      "hit": false,
      "t": 171499.9999999999,
      "d": 166.66666666665697,
      "v": 98
    },
    {
      "midi": 74,
      "hit": false,
      "t": 171499.9999999999,
      "d": 166.66666666665697,
      "v": 105
    },
    {
      "midi": 47,
      "hit": false,
      "t": 171500,
      "d": 500,
      "v": 111
    },
    {
      "midi": 67,
      "hit": false,
      "t": 171833.33333333323,
      "d": 166.66666666665697,
      "v": 91
    },
    {
      "midi": 71,
      "hit": false,
      "t": 171833.33333333323,
      "d": 166.66666666665697,
      "v": 95
    },
    {
      "midi": 59,
      "hit": false,
      "t": 171833.33333333334,
      "d": 166.66666666665697,
      "v": 110
    },
    {
      "midi": 62,
      "hit": false,
      "t": 171833.33333333334,
      "d": 166.66666666665697,
      "v": 110
    },
    {
      "midi": 67,
      "hit": false,
      "t": 171833.33333333334,
      "d": 166.66666666665697,
      "v": 110
    },
    {
      "midi": 64,
      "hit": false,
      "t": 171999.99999999988,
      "d": 166.66666666665697,
      "v": 115
    },
    {
      "midi": 50,
      "hit": false,
      "t": 172000,
      "d": 500,
      "v": 111
    },
    {
      "midi": 66,
      "hit": false,
      "t": 172333.3333333332,
      "d": 166.66666666668607,
      "v": 104
    },
    {
      "midi": 69,
      "hit": false,
      "t": 172333.3333333332,
      "d": 166.66666666668607,
      "v": 99
    },
    {
      "midi": 57,
      "hit": false,
      "t": 172333.33333333334,
      "d": 166.66666666665697,
      "v": 110
    },
    {
      "midi": 62,
      "hit": false,
      "t": 172333.33333333334,
      "d": 166.66666666665697,
      "v": 110
    },
    {
      "midi": 66,
      "hit": false,
      "t": 172333.33333333334,
      "d": 166.66666666665697,
      "v": 110
    },
    {
      "midi": 62,
      "hit": false,
      "t": 172499.99999999988,
      "d": 166.66666666665697,
      "v": 101
    },
    {
      "midi": 54,
      "hit": false,
      "t": 172500,
      "d": 500,
      "v": 111
    },
    {
      "midi": 57,
      "hit": false,
      "t": 172833.33333333334,
      "d": 166.66666666665697,
      "v": 111
    },
    {
      "midi": 62,
      "hit": false,
      "t": 172833.33333333334,
      "d": 166.66666666665697,
      "v": 111
    },
    {
      "midi": 66,
      "hit": false,
      "t": 172833.33333333334,
      "d": 166.66666666665697,
      "v": 111
    },
    {
      "midi": 62,
      "hit": false,
      "t": 172849.99999999988,
      "d": 112.5,
      "v": 105
    },
    {
      "midi": 74,
      "hit": false,
      "t": 173012.49999999988,
      "d": 274.9999999999418,
      "v": 105
    },
    {
      "midi": 69,
      "hit": false,
      "t": 173016.66666666654,
      "d": 133.33333333331393,
      "v": 98
    },
    {
      "midi": 71,
      "hit": false,
      "t": 173124.99999999985,
      "d": 133.33333333331393,
      "v": 94
    },
    {
      "midi": 69,
      "hit": false,
      "t": 173216.6666666665,
      "d": 116.66666666665697,
      "v": 76
    },
    {
      "midi": 66,
      "hit": false,
      "t": 173295.83333333317,
      "d": 70.83333333334303,
      "v": 81
    },
    {
      "midi": 57,
      "hit": false,
      "t": 173333.33333333334,
      "d": 166.66666666665697,
      "v": 111
    },
    {
      "midi": 62,
      "hit": false,
      "t": 173333.33333333334,
      "d": 166.66666666665697,
      "v": 111
    },
    {
      "midi": 66,
      "hit": false,
      "t": 173333.33333333334,
      "d": 166.66666666665697,
      "v": 111
    },
    {
      "midi": 62,
      "hit": false,
      "t": 173366.6666666665,
      "d": 100,
      "v": 68
    },
    {
      "midi": 69,
      "hit": false,
      "t": 173499.99999999985,
      "d": 329.16666666665697,
      "v": 110
    },
    {
      "midi": 74,
      "hit": false,
      "t": 173499.99999999985,
      "d": 333.33333333331393,
      "v": 115
    },
    {
      "midi": 54,
      "hit": false,
      "t": 173500,
      "d": 500,
      "v": 112
    },
    {
      "midi": 57,
      "hit": false,
      "t": 173833.33333333334,
      "d": 166.66666666665697,
      "v": 111
    },
    {
      "midi": 62,
      "hit": false,
      "t": 173833.33333333334,
      "d": 166.66666666665697,
      "v": 111
    },
    {
      "midi": 66,
      "hit": false,
      "t": 173833.33333333334,
      "d": 166.66666666665697,
      "v": 111
    },
    {
      "midi": 74,
      "hit": false,
      "t": 173841.6666666665,
      "d": 716.6666666666279,
      "v": 110
    },
    {
      "midi": 67,
      "hit": false,
      "t": 173841.6666666665,
      "d": 729.1666666666279,
      "v": 112
    },
    {
      "midi": 55,
      "hit": false,
      "t": 173999.99999999983,
      "d": 166.66666666665697,
      "v": 91
    },
    {
      "midi": 79,
      "hit": false,
      "t": 173999.99999999983,
      "d": 166.66666666665697,
      "v": 85
    },
    {
      "midi": 59,
      "hit": false,
      "t": 174000,
      "d": 166.66666666665697,
      "v": 86
    },
    {
      "midi": 55,
      "hit": false,
      "t": 174000,
      "d": 499.9999999999709,
      "v": 112
    },
    {
      "midi": 56,
      "hit": false,
      "t": 174166.66666666648,
      "d": 166.66666666665697,
      "v": 94
    },
    {
      "midi": 80,
      "hit": false,
      "t": 174166.66666666648,
      "d": 166.66666666665697,
      "v": 85
    },
    {
      "midi": 60,
      "hit": false,
      "t": 174166.66666666666,
      "d": 166.66666666665697,
      "v": 85
    },
    {
      "midi": 57,
      "hit": false,
      "t": 174333.33333333314,
      "d": 166.66666666665697,
      "v": 93
    },
    {
      "midi": 81,
      "hit": false,
      "t": 174333.33333333314,
      "d": 166.66666666665697,
      "v": 93
    },
    {
      "midi": 59,
      "hit": false,
      "t": 174333.3333333333,
      "d": 166.66666666665697,
      "v": 112
    },
    {
      "midi": 61,
      "hit": false,
      "t": 174333.3333333333,
      "d": 166.66666666665697,
      "v": 85
    },
    {
      "midi": 62,
      "hit": false,
      "t": 174333.3333333333,
      "d": 166.66666666665697,
      "v": 112
    },
    {
      "midi": 67,
      "hit": false,
      "t": 174333.3333333333,
      "d": 166.66666666665697,
      "v": 112
    },
    {
      "midi": 58,
      "hit": false,
      "t": 174499.9999999998,
      "d": 166.66666666668607,
      "v": 104
    },
    {
      "midi": 82,
      "hit": false,
      "t": 174499.9999999998,
      "d": 166.66666666668607,
      "v": 94
    },
    {
      "midi": 62,
      "hit": false,
      "t": 174499.99999999997,
      "d": 166.66666666665697,
      "v": 94
    },
    {
      "midi": 52,
      "hit": false,
      "t": 174499.99999999997,
      "d": 499.9999999999709,
      "v": 112
    },
    {
      "midi": 59,
      "hit": false,
      "t": 174666.66666666648,
      "d": 166.66666666665697,
      "v": 93
    },
    {
      "midi": 83,
      "hit": false,
      "t": 174666.66666666648,
      "d": 166.66666666665697,
      "v": 83
    },
    {
      "midi": 63,
      "hit": false,
      "t": 174666.66666666663,
      "d": 166.66666666665697,
      "v": 88
    },
    {
      "midi": 60,
      "hit": false,
      "t": 174833.33333333314,
      "d": 166.66666666668607,
      "v": 101
    },
    {
      "midi": 84,
      "hit": false,
      "t": 174833.33333333314,
      "d": 166.66666666668607,
      "v": 90
    },
    {
      "midi": 59,
      "hit": false,
      "t": 174833.33333333328,
      "d": 166.66666666665697,
      "v": 112
    },
    {
      "midi": 62,
      "hit": false,
      "t": 174833.33333333328,
      "d": 166.66666666665697,
      "v": 112
    },
    {
      "midi": 64,
      "hit": false,
      "t": 174833.33333333328,
      "d": 166.66666666665697,
      "v": 94
    },
    {
      "midi": 67,
      "hit": false,
      "t": 174833.33333333328,
      "d": 166.66666666665697,
      "v": 112
    },
    {
      "midi": 61,
      "hit": false,
      "t": 174999.99999999983,
      "d": 166.66666666665697,
      "v": 99
    },
    {
      "midi": 85,
      "hit": false,
      "t": 174999.99999999983,
      "d": 166.66666666665697,
      "v": 94
    },
    {
      "midi": 65,
      "hit": false,
      "t": 174999.99999999994,
      "d": 166.66666666665697,
      "v": 86
    },
    {
      "midi": 50,
      "hit": false,
      "t": 174999.99999999994,
      "d": 499.9999999999709,
      "v": 113
    },
    {
      "midi": 62,
      "hit": false,
      "t": 175166.66666666648,
      "d": 166.66666666665697,
      "v": 83
    },
    {
      "midi": 86,
      "hit": false,
      "t": 175166.66666666648,
      "d": 166.66666666665697,
      "v": 70
    },
    {
      "midi": 66,
      "hit": false,
      "t": 175166.6666666666,
      "d": 166.66666666665697,
      "v": 88
    },
    {
      "midi": 63,
      "hit": false,
      "t": 175333.33333333314,
      "d": 166.66666666665697,
      "v": 104
    },
    {
      "midi": 87,
      "hit": false,
      "t": 175333.33333333314,
      "d": 166.66666666665697,
      "v": 89
    },
    {
      "midi": 59,
      "hit": false,
      "t": 175333.33333333326,
      "d": 166.66666666665697,
      "v": 112
    },
    {
      "midi": 62,
      "hit": false,
      "t": 175333.33333333326,
      "d": 166.66666666665697,
      "v": 112
    },
    {
      "midi": 67,
      "hit": false,
      "t": 175333.33333333326,
      "d": 166.66666666665697,
      "v": 112
    },
    {
      "midi": 64,
      "hit": false,
      "t": 175499.9999999998,
      "d": 166.66666666668607,
      "v": 97
    },
    {
      "midi": 88,
      "hit": false,
      "t": 175499.9999999998,
      "d": 166.66666666668607,
      "v": 85
    },
    {
      "midi": 68,
      "hit": false,
      "t": 175499.9999999999,
      "d": 166.66666666665697,
      "v": 88
    },
    {
      "midi": 47,
      "hit": false,
      "t": 175499.9999999999,
      "d": 499.9999999999709,
      "v": 113
    },
    {
      "midi": 65,
      "hit": false,
      "t": 175666.66666666648,
      "d": 166.66666666665697,
      "v": 105
    },
    {
      "midi": 89,
      "hit": false,
      "t": 175666.66666666648,
      "d": 166.66666666665697,
      "v": 89
    },
    {
      "midi": 69,
      "hit": false,
      "t": 175666.66666666657,
      "d": 166.66666666665697,
      "v": 86
    },
    {
      "midi": 66,
      "hit": false,
      "t": 175833.33333333314,
      "d": 166.66666666665697,
      "v": 105
    },
    {
      "midi": 90,
      "hit": false,
      "t": 175833.33333333314,
      "d": 166.66666666665697,
      "v": 101
    },
    {
      "midi": 59,
      "hit": false,
      "t": 175833.33333333323,
      "d": 166.66666666665697,
      "v": 112
    },
    {
      "midi": 62,
      "hit": false,
      "t": 175833.33333333323,
      "d": 166.66666666665697,
      "v": 112
    },
    {
      "midi": 67,
      "hit": false,
      "t": 175833.33333333323,
      "d": 166.66666666665697,
      "v": 112
    },
    {
      "midi": 70,
      "hit": false,
      "t": 175833.33333333323,
      "d": 166.66666666665697,
      "v": 88
    },
    {
      "midi": 67,
      "hit": false,
      "t": 175999.9999999998,
      "d": 250,
      "v": 117
    },
    {
      "midi": 91,
      "hit": false,
      "t": 175999.9999999998,
      "d": 250,
      "v": 107
    },
    {
      "midi": 71,
      "hit": false,
      "t": 175999.99999999988,
      "d": 166.66666666665697,
      "v": 97
    },
    {
      "midi": 43,
      "hit": false,
      "t": 175999.99999999988,
      "d": 250,
      "v": 92
    }
  ]
}