{
  "jsonPath": "Rock/Blues Rock/The Fabulous Thunderbirds/rainin-in-my-heart.json",
  "path": "Rock\\Blues Rock\\The Fabulous Thunderbirds\\Rainin In My Heart.mid",
  "name": "Rainin In My Heart",
  "difficulty": "Advanced",
  "bpm": 75,
  "notes": [
    {
      "midi": 57,
      "hit": false,
      "t": 4086.6666666666665,
      "d": 126.66666666666652,
      "v": 62
    },
    {
      "midi": 52,
      "hit": false,
      "t": 4340,
      "d": 126.66666666666697,
      "v": 62
    },
    {
      "midi": 57,
      "hit": false,
      "t": 4586.666666666667,
      "d": 133.33333333333394,
      "v": 62
    },
    {
      "midi": 61,
      "hit": false,
      "t": 4866.666666666668,
      "d": 140,
      "v": 62
    },
    {
      "midi": 57,
      "hit": false,
      "t": 5133.333333333335,
      "d": 160,
      "v": 62
    },
    {
      "midi": 61,
      "hit": false,
      "t": 5380.000000000002,
      "d": 106.66666666666697,
      "v": 62
    },
    {
      "midi": 64,
      "hit": false,
      "t": 5666.666666666669,
      "d": 153.33333333333303,
      "v": 62
    },
    {
      "midi": 61,
      "hit": false,
      "t": 5900.000000000002,
      "d": 126.66666666666697,
      "v": 62
    },
    {
      "midi": 64,
      "hit": false,
      "t": 6140.000000000003,
      "d": 100,
      "v": 62
    },
    {
      "midi": 81,
      "hit": false,
      "t": 6420,
      "d": 733.333333333333,
      "v": 127
    },
    {
      "midi": 62,
      "hit": false,
      "t": 6420.000000000003,
      "d": 2866.666666666665,
      "v": 62
    },
    {
      "midi": 74,
      "hit": false,
      "t": 6433.333333333333,
      "d": 733.333333333333,
      "v": 127
    },
    {
      "midi": 78,
      "hit": false,
      "t": 6433.333333333333,
      "d": 740,
      "v": 127
    },
    {
      "midi": 38,
      "hit": false,
      "t": 6433.333333333333,
      "d": 960.0000000000018,
      "v": 62
    },
    {
      "midi": 66,
      "hit": false,
      "t": 6433.333333333336,
      "d": 433.33333333333394,
      "v": 62
    },
    {
      "midi": 57,
      "hit": false,
      "t": 6440.000000000003,
      "d": 326.66666666666697,
      "v": 62
    },
    {
      "midi": 66,
      "hit": false,
      "t": 6453.333333333333,
      "d": 140,
      "v": 62
    },
    {
      "midi": 69,
      "hit": false,
      "t": 6466.666666666666,
      "d": 126.66666666666697,
      "v": 60
    },
    {
      "midi": 74,
      "hit": false,
      "t": 6466.666666666666,
      "d": 126.66666666666697,
      "v": 58
    },
    {
      "midi": 66,
      "hit": false,
      "t": 6700,
      "d": 100,
      "v": 56
    },
    {
      "midi": 69,
      "hit": false,
      "t": 6700,
      "d": 126.66666666666697,
      "v": 44
    },
    {
      "midi": 74,
      "hit": false,
      "t": 6700,
      "d": 133.33333333333394,
      "v": 44
    },
    {
      "midi": 57,
      "hit": false,
      "t": 6866.66666666667,
      "d": 153.33333333333303,
      "v": 52
    },
    {
      "midi": 66,
      "hit": false,
      "t": 6940.000000000001,
      "d": 106.66666666666697,
      "v": 58
    },
    {
      "midi": 74,
      "hit": false,
      "t": 6940.000000000001,
      "d": 126.66666666666697,
      "v": 48
    },
    {
      "midi": 69,
      "hit": false,
      "t": 6946.666666666668,
      "d": 120,
      "v": 52
    },
    {
      "midi": 57,
      "hit": false,
      "t": 7120.000000000003,
      "d": 340,
      "v": 34
    },
    {
      "midi": 74,
      "hit": false,
      "t": 7206.666666666668,
      "d": 160,
      "v": 60
    },
    {
      "midi": 66,
      "hit": false,
      "t": 7213.333333333335,
      "d": 126.66666666666606,
      "v": 62
    },
    {
      "midi": 69,
      "hit": false,
      "t": 7213.333333333335,
      "d": 133.33333333333303,
      "v": 58
    },
    {
      "midi": 69,
      "hit": false,
      "t": 7220.000000000003,
      "d": 106.66666666666697,
      "v": 40
    },
    {
      "midi": 50,
      "hit": false,
      "t": 7233.333333333335,
      "d": 73.33333333333303,
      "v": 62
    },
    {
      "midi": 78,
      "hit": false,
      "t": 7253.333333333333,
      "d": 93.33333333333303,
      "v": 127
    },
    {
      "midi": 81,
      "hit": false,
      "t": 7253.333333333333,
      "d": 100,
      "v": 127
    },
    {
      "midi": 74,
      "hit": false,
      "t": 7253.333333333333,
      "d": 106.66666666666697,
      "v": 127
    },
    {
      "midi": 66,
      "hit": false,
      "t": 7466.666666666668,
      "d": 106.66666666666697,
      "v": 60
    },
    {
      "midi": 69,
      "hit": false,
      "t": 7466.666666666668,
      "d": 133.33333333333394,
      "v": 58
    },
    {
      "midi": 74,
      "hit": false,
      "t": 7473.333333333335,
      "d": 100,
      "v": 54
    },
    {
      "midi": 69,
      "hit": false,
      "t": 7500.000000000003,
      "d": 86.66666666666697,
      "v": 50
    },
    {
      "midi": 57,
      "hit": false,
      "t": 7600.000000000003,
      "d": 100,
      "v": 48
    },
    {
      "midi": 69,
      "hit": false,
      "t": 7700.000000000003,
      "d": 93.33333333333303,
      "v": 50
    },
    {
      "midi": 66,
      "hit": false,
      "t": 7720.000000000002,
      "d": 140,
      "v": 58
    },
    {
      "midi": 74,
      "hit": false,
      "t": 7720.000000000002,
      "d": 140,
      "v": 52
    },
    {
      "midi": 69,
      "hit": false,
      "t": 7720.000000000002,
      "d": 153.33333333333303,
      "v": 54
    },
    {
      "midi": 42,
      "hit": false,
      "t": 7720.000000000002,
      "d": 233.33333333333303,
      "v": 62
    },
    {
      "midi": 66,
      "hit": false,
      "t": 7733.333333333336,
      "d": 73.33333333333303,
      "v": 54
    },
    {
      "midi": 81,
      "hit": false,
      "t": 7773.333333333333,
      "d": 93.33333333333394,
      "v": 127
    },
    {
      "midi": 74,
      "hit": false,
      "t": 7780,
      "d": 86.66666666666697,
      "v": 127
    },
    {
      "midi": 78,
      "hit": false,
      "t": 7780,
      "d": 86.66666666666697,
      "v": 127
    },
    {
      "midi": 57,
      "hit": false,
      "t": 7806.666666666669,
      "d": 140,
      "v": 54
    },
    {
      "midi": 69,
      "hit": false,
      "t": 7933.333333333336,
      "d": 73.33333333333303,
      "v": 50
    },
    {
      "midi": 66,
      "hit": false,
      "t": 7933.333333333336,
      "d": 126.66666666666697,
      "v": 60
    },
    {
      "midi": 66,
      "hit": false,
      "t": 8000.000000000002,
      "d": 133.33333333333394,
      "v": 60
    },
    {
      "midi": 69,
      "hit": false,
      "t": 8000.000000000002,
      "d": 160.0000000000009,
      "v": 56
    },
    {
      "midi": 74,
      "hit": false,
      "t": 8006.666666666669,
      "d": 126.66666666666697,
      "v": 54
    },
    {
      "midi": 81,
      "hit": false,
      "t": 8033.333333333334,
      "d": 686.6666666666661,
      "v": 127
    },
    {
      "midi": 74,
      "hit": false,
      "t": 8033.333333333334,
      "d": 700,
      "v": 127
    },
    {
      "midi": 78,
      "hit": false,
      "t": 8033.333333333334,
      "d": 726.6666666666661,
      "v": 127
    },
    {
      "midi": 45,
      "hit": false,
      "t": 8033.333333333336,
      "d": 533.3333333333321,
      "v": 62
    },
    {
      "midi": 57,
      "hit": false,
      "t": 8053.333333333336,
      "d": 120.00000000000091,
      "v": 54
    },
    {
      "midi": 69,
      "hit": false,
      "t": 8166.66666666667,
      "d": 100,
      "v": 42
    },
    {
      "midi": 66,
      "hit": false,
      "t": 8173.333333333337,
      "d": 99.99999999999909,
      "v": 52
    },
    {
      "midi": 66,
      "hit": false,
      "t": 8253.333333333336,
      "d": 106.66666666666606,
      "v": 58
    },
    {
      "midi": 69,
      "hit": false,
      "t": 8253.333333333336,
      "d": 133.33333333333212,
      "v": 54
    },
    {
      "midi": 74,
      "hit": false,
      "t": 8273.333333333336,
      "d": 106.66666666666606,
      "v": 52
    },
    {
      "midi": 57,
      "hit": false,
      "t": 8300.000000000002,
      "d": 106.66666666666606,
      "v": 50
    },
    {
      "midi": 66,
      "hit": false,
      "t": 8420.000000000002,
      "d": 73.33333333333394,
      "v": 54
    },
    {
      "midi": 66,
      "hit": false,
      "t": 8506.666666666668,
      "d": 126.66666666666788,
      "v": 58
    },
    {
      "midi": 69,
      "hit": false,
      "t": 8513.333333333334,
      "d": 120.00000000000182,
      "v": 54
    },
    {
      "midi": 57,
      "hit": false,
      "t": 8520.000000000002,
      "d": 120,
      "v": 52
    },
    {
      "midi": 74,
      "hit": false,
      "t": 8533.333333333334,
      "d": 86.66666666666788,
      "v": 46
    },
    {
      "midi": 66,
      "hit": false,
      "t": 8653.333333333336,
      "d": 93.33333333333394,
      "v": 58
    },
    {
      "midi": 57,
      "hit": false,
      "t": 8746.66666666667,
      "d": 126.66666666666606,
      "v": 50
    },
    {
      "midi": 42,
      "hit": false,
      "t": 8766.66666666667,
      "d": 259.9999999999982,
      "v": 62
    },
    {
      "midi": 66,
      "hit": false,
      "t": 8773.333333333336,
      "d": 126.66666666666606,
      "v": 62
    },
    {
      "midi": 69,
      "hit": false,
      "t": 8773.333333333336,
      "d": 126.66666666666606,
      "v": 58
    },
    {
      "midi": 74,
      "hit": false,
      "t": 8786.66666666667,
      "d": 106.66666666666606,
      "v": 52
    },
    {
      "midi": 74,
      "hit": false,
      "t": 8833.333333333334,
      "d": 126.6666666666697,
      "v": 127
    },
    {
      "midi": 81,
      "hit": false,
      "t": 8846.666666666668,
      "d": 53.33333333333394,
      "v": 127
    },
    {
      "midi": 69,
      "hit": false,
      "t": 8846.666666666668,
      "d": 86.66666666666788,
      "v": 127
    },
    {
      "midi": 78,
      "hit": false,
      "t": 8846.666666666668,
      "d": 100.00000000000182,
      "v": 127
    },
    {
      "midi": 66,
      "hit": false,
      "t": 8880.000000000002,
      "d": 86.66666666666606,
      "v": 52
    },
    {
      "midi": 69,
      "hit": false,
      "t": 8900.000000000002,
      "d": 60,
      "v": 40
    },
    {
      "midi": 57,
      "hit": false,
      "t": 8973.333333333334,
      "d": 126.66666666666606,
      "v": 50
    },
    {
      "midi": 66,
      "hit": false,
      "t": 9033.333333333334,
      "d": 100,
      "v": 60
    },
    {
      "midi": 69,
      "hit": false,
      "t": 9033.333333333334,
      "d": 106.66666666666606,
      "v": 56
    },
    {
      "midi": 74,
      "hit": false,
      "t": 9053.333333333334,
      "d": 40,
      "v": 40
    },
    {
      "midi": 69,
      "hit": false,
      "t": 9113.333333333334,
      "d": 73.33333333333394,
      "v": 44
    },
    {
      "midi": 66,
      "hit": false,
      "t": 9113.333333333334,
      "d": 153.33333333333394,
      "v": 62
    },
    {
      "midi": 57,
      "hit": false,
      "t": 9220.000000000002,
      "d": 126.66666666666606,
      "v": 52
    },
    {
      "midi": 69,
      "hit": false,
      "t": 9286.666666666666,
      "d": 106.66666666666606,
      "v": 62
    },
    {
      "midi": 66,
      "hit": false,
      "t": 9286.666666666666,
      "d": 120,
      "v": 62
    },
    {
      "midi": 45,
      "hit": false,
      "t": 9286.666666666666,
      "d": 173.33333333333394,
      "v": 62
    },
    {
      "midi": 74,
      "hit": false,
      "t": 9300,
      "d": 86.66666666666606,
      "v": 56
    },
    {
      "midi": 69,
      "hit": false,
      "t": 9373.333333333338,
      "d": 100,
      "v": 127
    },
    {
      "midi": 78,
      "hit": false,
      "t": 9386.666666666672,
      "d": 86.66666666666606,
      "v": 127
    },
    {
      "midi": 74,
      "hit": false,
      "t": 9400.000000000005,
      "d": 66.66666666666606,
      "v": 127
    },
    {
      "midi": 57,
      "hit": false,
      "t": 9473.333333333334,
      "d": 160,
      "v": 52
    },
    {
      "midi": 62,
      "hit": false,
      "t": 9566.666666666666,
      "d": 140,
      "v": 62
    },
    {
      "midi": 66,
      "hit": false,
      "t": 9573.333333333332,
      "d": 160,
      "v": 62
    },
    {
      "midi": 69,
      "hit": false,
      "t": 9573.333333333332,
      "d": 160,
      "v": 62
    },
    {
      "midi": 38,
      "hit": false,
      "t": 9573.333333333332,
      "d": 1073.333333333334,
      "v": 62
    },
    {
      "midi": 62,
      "hit": false,
      "t": 9600,
      "d": 93.33333333333394,
      "v": 56
    },
    {
      "midi": 66,
      "hit": false,
      "t": 9600,
      "d": 153.33333333333394,
      "v": 62
    },
    {
      "midi": 69,
      "hit": false,
      "t": 9620,
      "d": 106.66666666666788,
      "v": 60
    },
    {
      "midi": 69,
      "hit": false,
      "t": 9633.333333333338,
      "d": 733.3333333333339,
      "v": 127
    },
    {
      "midi": 74,
      "hit": false,
      "t": 9633.333333333338,
      "d": 740,
      "v": 127
    },
    {
      "midi": 78,
      "hit": false,
      "t": 9633.333333333338,
      "d": 766.6666666666661,
      "v": 127
    },
    {
      "midi": 62,
      "hit": false,
      "t": 9833.333333333332,
      "d": 106.66666666666606,
      "v": 52
    },
    {
      "midi": 66,
      "hit": false,
      "t": 9833.333333333332,
      "d": 106.66666666666606,
      "v": 58
    },
    {
      "midi": 69,
      "hit": false,
      "t": 9839.999999999998,
      "d": 100,
      "v": 54
    },
    {
      "midi": 69,
      "hit": false,
      "t": 10079.999999999998,
      "d": 120,
      "v": 56
    },
    {
      "midi": 66,
      "hit": false,
      "t": 10079.999999999998,
      "d": 133.33333333333394,
      "v": 56
    },
    {
      "midi": 62,
      "hit": false,
      "t": 10099.999999999998,
      "d": 133.33333333333394,
      "v": 54
    },
    {
      "midi": 62,
      "hit": false,
      "t": 10166.666666666668,
      "d": 306.6666666666679,
      "v": 62
    },
    {
      "midi": 69,
      "hit": false,
      "t": 10379.999999999998,
      "d": 140,
      "v": 62
    },
    {
      "midi": 62,
      "hit": false,
      "t": 10379.999999999998,
      "d": 153.33333333333394,
      "v": 60
    },
    {
      "midi": 66,
      "hit": false,
      "t": 10379.999999999998,
      "d": 153.33333333333394,
      "v": 62
    },
    {
      "midi": 50,
      "hit": false,
      "t": 10406.666666666664,
      "d": 93.33333333333394,
      "v": 62
    },
    {
      "midi": 66,
      "hit": false,
      "t": 10453.333333333336,
      "d": 240,
      "v": 62
    },
    {
      "midi": 69,
      "hit": false,
      "t": 10453.333333333336,
      "d": 340,
      "v": 62
    },
    {
      "midi": 69,
      "hit": false,
      "t": 10466.66666666667,
      "d": 93.33333333333212,
      "v": 127
    },
    {
      "midi": 74,
      "hit": false,
      "t": 10466.66666666667,
      "d": 93.33333333333212,
      "v": 127
    },
    {
      "midi": 78,
      "hit": false,
      "t": 10473.333333333336,
      "d": 86.66666666666606,
      "v": 127
    },
    {
      "midi": 69,
      "hit": false,
      "t": 10653.333333333332,
      "d": 106.66666666666788,
      "v": 54
    },
    {
      "midi": 66,
      "hit": false,
      "t": 10653.333333333332,
      "d": 120.00000000000182,
      "v": 56
    },
    {
      "midi": 62,
      "hit": false,
      "t": 10666.666666666666,
      "d": 106.66666666666788,
      "v": 54
    },
    {
      "midi": 62,
      "hit": false,
      "t": 10713.333333333336,
      "d": 220,
      "v": 62
    },
    {
      "midi": 42,
      "hit": false,
      "t": 10920,
      "d": 240.00000000000182,
      "v": 62
    },
    {
      "midi": 69,
      "hit": false,
      "t": 10933.333333333334,
      "d": 133.33333333333394,
      "v": 60
    },
    {
      "midi": 62,
      "hit": false,
      "t": 10933.333333333334,
      "d": 140,
      "v": 58
    },
    {
      "midi": 66,
      "hit": false,
      "t": 10933.333333333334,
      "d": 153.33333333333394,
      "v": 58
    },
    {
      "midi": 69,
      "hit": false,
      "t": 10940.000000000002,
      "d": 93.33333333333394,
      "v": 127
    },
    {
      "midi": 67,
      "hit": false,
      "t": 10953.333333333336,
      "d": 173.33333333333394,
      "v": 62
    },
    {
      "midi": 71,
      "hit": false,
      "t": 10953.333333333336,
      "d": 333.33333333333576,
      "v": 62
    },
    {
      "midi": 69,
      "hit": false,
      "t": 11200.000000000002,
      "d": 733.3333333333339,
      "v": 127
    },
    {
      "midi": 74,
      "hit": false,
      "t": 11200.000000000002,
      "d": 733.3333333333339,
      "v": 127
    },
    {
      "midi": 78,
      "hit": false,
      "t": 11200.000000000002,
      "d": 766.6666666666679,
      "v": 127
    },
    {
      "midi": 65,
      "hit": false,
      "t": 11220.000000000004,
      "d": 140.00000000000182,
      "v": 62
    },
    {
      "midi": 69,
      "hit": false,
      "t": 11233.333333333336,
      "d": 140,
      "v": 60
    },
    {
      "midi": 62,
      "hit": false,
      "t": 11233.333333333336,
      "d": 153.33333333333394,
      "v": 60
    },
    {
      "midi": 66,
      "hit": false,
      "t": 11233.333333333336,
      "d": 166.66666666666788,
      "v": 62
    },
    {
      "midi": 45,
      "hit": false,
      "t": 11253.333333333336,
      "d": 699.9999999999982,
      "v": 62
    },
    {
      "midi": 69,
      "hit": false,
      "t": 11253.333333333338,
      "d": 66.66666666666788,
      "v": 54
    },
    {
      "midi": 66,
      "hit": false,
      "t": 11273.333333333338,
      "d": 160.00000000000182,
      "v": 56
    },
    {
      "midi": 74,
      "hit": false,
      "t": 11466.666666666673,
      "d": 133.33333333333394,
      "v": 54
    },
    {
      "midi": 71,
      "hit": false,
      "t": 11500.000000000007,
      "d": 166.66666666666788,
      "v": 58
    },
    {
      "midi": 62,
      "hit": false,
      "t": 11513.333333333338,
      "d": 126.66666666666606,
      "v": 54
    },
    {
      "midi": 66,
      "hit": false,
      "t": 11513.333333333338,
      "d": 133.33333333333212,
      "v": 58
    },
    {
      "midi": 69,
      "hit": false,
      "t": 11533.333333333338,
      "d": 100,
      "v": 50
    },
    {
      "midi": 69,
      "hit": false,
      "t": 11586.666666666673,
      "d": 126.66666666666788,
      "v": 60
    },
    {
      "midi": 66,
      "hit": false,
      "t": 11653.333333333341,
      "d": 133.33333333333394,
      "v": 62
    },
    {
      "midi": 62,
      "hit": false,
      "t": 11713.333333333341,
      "d": 200.00000000000182,
      "v": 62
    },
    {
      "midi": 66,
      "hit": false,
      "t": 11773.333333333336,
      "d": 139.99999999999818,
      "v": 60
    },
    {
      "midi": 62,
      "hit": false,
      "t": 11780.000000000002,
      "d": 126.66666666666606,
      "v": 56
    },
    {
      "midi": 69,
      "hit": false,
      "t": 11786.666666666668,
      "d": 120,
      "v": 56
    },
    {
      "midi": 66,
      "hit": false,
      "t": 12000.00000000001,
      "d": 193.33333333333394,
      "v": 62
    },
    {
      "midi": 60,
      "hit": false,
      "t": 12006.666666666675,
      "d": 206.66666666666788,
      "v": 62
    },
    {
      "midi": 74,
      "hit": false,
      "t": 12020.000000000004,
      "d": 100,
      "v": 127
    },
    {
      "midi": 78,
      "hit": false,
      "t": 12020.000000000004,
      "d": 100,
      "v": 127
    },
    {
      "midi": 69,
      "hit": false,
      "t": 12020.000000000004,
      "d": 106.66666666666606,
      "v": 127
    },
    {
      "midi": 42,
      "hit": false,
      "t": 12033.333333333334,
      "d": 386.66666666666424,
      "v": 62
    },
    {
      "midi": 62,
      "hit": false,
      "t": 12040,
      "d": 126.66666666666606,
      "v": 58
    },
    {
      "midi": 69,
      "hit": false,
      "t": 12040,
      "d": 126.66666666666606,
      "v": 60
    },
    {
      "midi": 66,
      "hit": false,
      "t": 12040,
      "d": 133.33333333333212,
      "v": 62
    },
    {
      "midi": 57,
      "hit": false,
      "t": 12253.333333333343,
      "d": 273.33333333333394,
      "v": 58
    },
    {
      "midi": 62,
      "hit": false,
      "t": 12286.666666666666,
      "d": 100,
      "v": 56
    },
    {
      "midi": 66,
      "hit": false,
      "t": 12286.666666666666,
      "d": 106.66666666666606,
      "v": 60
    },
    {
      "midi": 69,
      "hit": false,
      "t": 12300,
      "d": 93.33333333333212,
      "v": 56
    },
    {
      "midi": 45,
      "hit": false,
      "t": 12506.666666666664,
      "d": 240,
      "v": 62
    },
    {
      "midi": 60,
      "hit": false,
      "t": 12520.000000000011,
      "d": 120,
      "v": 62
    },
    {
      "midi": 66,
      "hit": false,
      "t": 12520.000000000011,
      "d": 160,
      "v": 62
    },
    {
      "midi": 62,
      "hit": false,
      "t": 12533.33333333333,
      "d": 120,
      "v": 58
    },
    {
      "midi": 66,
      "hit": false,
      "t": 12533.33333333333,
      "d": 153.33333333333394,
      "v": 58
    },
    {
      "midi": 69,
      "hit": false,
      "t": 12533.333333333336,
      "d": 106.66666666666606,
      "v": 127
    },
    {
      "midi": 69,
      "hit": false,
      "t": 12539.999999999996,
      "d": 100,
      "v": 56
    },
    {
      "midi": 64,
      "hit": false,
      "t": 12800.000000000011,
      "d": 766.6666666666679,
      "v": 60
    },
    {
      "midi": 61,
      "hit": false,
      "t": 12813.33333333333,
      "d": 133.33333333333394,
      "v": 62
    },
    {
      "midi": 69,
      "hit": false,
      "t": 12813.33333333333,
      "d": 140,
      "v": 54
    },
    {
      "midi": 64,
      "hit": false,
      "t": 12813.33333333333,
      "d": 153.33333333333394,
      "v": 56
    },
    {
      "midi": 33,
      "hit": false,
      "t": 12813.33333333333,
      "d": 993.3333333333321,
      "v": 62
    },
    {
      "midi": 57,
      "hit": false,
      "t": 12813.333333333345,
      "d": 693.3333333333339,
      "v": 60
    },
    {
      "midi": 61,
      "hit": false,
      "t": 12820.000000000011,
      "d": 693.3333333333339,
      "v": 62
    },
    {
      "midi": 73,
      "hit": false,
      "t": 12833.333333333336,
      "d": 733.3333333333339,
      "v": 127
    },
    {
      "midi": 76,
      "hit": false,
      "t": 12833.333333333336,
      "d": 733.3333333333339,
      "v": 127
    },
    {
      "midi": 69,
      "hit": false,
      "t": 12833.333333333336,
      "d": 940,
      "v": 127
    },
    {
      "midi": 61,
      "hit": false,
      "t": 13079.999999999998,
      "d": 120,
      "v": 58
    },
    {
      "midi": 64,
      "hit": false,
      "t": 13079.999999999998,
      "d": 126.66666666666606,
      "v": 54
    },
    {
      "midi": 69,
      "hit": false,
      "t": 13099.999999999998,
      "d": 100,
      "v": 46
    },
    {
      "midi": 61,
      "hit": false,
      "t": 13339.999999999998,
      "d": 139.99999999999818,
      "v": 58
    },
    {
      "midi": 64,
      "hit": false,
      "t": 13346.666666666664,
      "d": 139.99999999999818,
      "v": 54
    },
    {
      "midi": 69,
      "hit": false,
      "t": 13353.33333333333,
      "d": 106.66666666666606,
      "v": 48
    },
    {
      "midi": 45,
      "hit": false,
      "t": 13619.999999999996,
      "d": 153.33333333333212,
      "v": 62
    },
    {
      "midi": 61,
      "hit": false,
      "t": 13633.33333333333,
      "d": 133.33333333333212,
      "v": 62
    },
    {
      "midi": 64,
      "hit": false,
      "t": 13633.33333333333,
      "d": 139.99999999999818,
      "v": 58
    },
    {
      "midi": 69,
      "hit": false,
      "t": 13639.999999999996,
      "d": 126.66666666666606,
      "v": 56
    },
    {
      "midi": 73,
      "hit": false,
      "t": 13646.66666666667,
      "d": 120,
      "v": 127
    },
    {
      "midi": 76,
      "hit": false,
      "t": 13646.66666666667,
      "d": 120,
      "v": 127
    },
    {
      "midi": 57,
      "hit": false,
      "t": 13686.666666666679,
      "d": 106.66666666666788,
      "v": 60
    },
    {
      "midi": 64,
      "hit": false,
      "t": 13686.666666666679,
      "d": 140.00000000000182,
      "v": 60
    },
    {
      "midi": 69,
      "hit": false,
      "t": 13686.666666666679,
      "d": 153.33333333333576,
      "v": 56
    },
    {
      "midi": 61,
      "hit": false,
      "t": 13700.000000000013,
      "d": 160.00000000000182,
      "v": 62
    },
    {
      "midi": 35,
      "hit": false,
      "t": 13879.999999999996,
      "d": 166.66666666666424,
      "v": 62
    },
    {
      "midi": 61,
      "hit": false,
      "t": 13899.999999999996,
      "d": 126.66666666666606,
      "v": 62
    },
    {
      "midi": 64,
      "hit": false,
      "t": 13899.999999999996,
      "d": 139.99999999999818,
      "v": 58
    },
    {
      "midi": 69,
      "hit": false,
      "t": 13906.666666666662,
      "d": 126.66666666666606,
      "v": 52
    },
    {
      "midi": 59,
      "hit": false,
      "t": 13933.333333333348,
      "d": 133.33333333333212,
      "v": 60
    },
    {
      "midi": 62,
      "hit": false,
      "t": 13940.000000000015,
      "d": 120,
      "v": 62
    },
    {
      "midi": 69,
      "hit": false,
      "t": 13940.000000000015,
      "d": 140,
      "v": 54
    },
    {
      "midi": 37,
      "hit": false,
      "t": 14173.333333333327,
      "d": 126.66666666666606,
      "v": 62
    },
    {
      "midi": 61,
      "hit": false,
      "t": 14173.333333333327,
      "d": 126.66666666666606,
      "v": 62
    },
    {
      "midi": 69,
      "hit": false,
      "t": 14179.999999999993,
      "d": 106.66666666666606,
      "v": 46
    },
    {
      "midi": 64,
      "hit": false,
      "t": 14179.999999999993,
      "d": 120,
      "v": 58
    },
    {
      "midi": 64,
      "hit": false,
      "t": 14186.66666666668,
      "d": 133.33333333333212,
      "v": 60
    },
    {
      "midi": 69,
      "hit": false,
      "t": 14186.66666666668,
      "d": 153.33333333333212,
      "v": 42
    },
    {
      "midi": 61,
      "hit": false,
      "t": 14186.66666666668,
      "d": 166.66666666666606,
      "v": 62
    },
    {
      "midi": 66,
      "hit": false,
      "t": 14200.000000000002,
      "d": 1000,
      "v": 127
    },
    {
      "midi": 69,
      "hit": false,
      "t": 14446.666666666659,
      "d": 140,
      "v": 62
    },
    {
      "midi": 66,
      "hit": false,
      "t": 14446.666666666659,
      "d": 166.66666666666606,
      "v": 62
    },
    {
      "midi": 62,
      "hit": false,
      "t": 14453.333333333325,
      "d": 140,
      "v": 62
    },
    {
      "midi": 38,
      "hit": false,
      "t": 14466.666666666659,
      "d": 686.6666666666661,
      "v": 62
    },
    {
      "midi": 69,
      "hit": false,
      "t": 14466.66666666668,
      "d": 666.6666666666661,
      "v": 62
    },
    {
      "midi": 66,
      "hit": false,
      "t": 14466.66666666668,
      "d": 706.6666666666661,
      "v": 62
    },
    {
      "midi": 62,
      "hit": false,
      "t": 14473.333333333347,
      "d": 673.3333333333339,
      "v": 62
    },
    {
      "midi": 74,
      "hit": false,
      "t": 14506.666666666668,
      "d": 660,
      "v": 127
    },
    {
      "midi": 69,
      "hit": false,
      "t": 14506.666666666668,
      "d": 693.3333333333339,
      "v": 127
    },
    {
      "midi": 62,
      "hit": false,
      "t": 14739.99999999999,
      "d": 126.66666666666606,
      "v": 60
    },
    {
      "midi": 66,
      "hit": false,
      "t": 14739.99999999999,
      "d": 140,
      "v": 60
    },
    {
      "midi": 69,
      "hit": false,
      "t": 14766.666666666657,
      "d": 100,
      "v": 54
    },
    {
      "midi": 66,
      "hit": false,
      "t": 15013.333333333325,
      "d": 140,
      "v": 62
    },
    {
      "midi": 69,
      "hit": false,
      "t": 15019.99999999999,
      "d": 106.66666666666606,
      "v": 58
    },
    {
      "midi": 62,
      "hit": false,
      "t": 15019.99999999999,
      "d": 120,
      "v": 60
    },
    {
      "midi": 66,
      "hit": false,
      "t": 15266.666666666668,
      "d": 126.66666666666606,
      "v": 127
    },
    {
      "midi": 69,
      "hit": false,
      "t": 15266.666666666668,
      "d": 126.66666666666606,
      "v": 127
    },
    {
      "midi": 66,
      "hit": false,
      "t": 15266.66666666668,
      "d": 200,
      "v": 62
    },
    {
      "midi": 74,
      "hit": false,
      "t": 15273.333333333334,
      "d": 120,
      "v": 127
    },
    {
      "midi": 62,
      "hit": false,
      "t": 15273.333333333347,
      "d": 133.33333333333394,
      "v": 62
    },
    {
      "midi": 69,
      "hit": false,
      "t": 15273.333333333347,
      "d": 166.66666666666788,
      "v": 62
    },
    {
      "midi": 38,
      "hit": false,
      "t": 15286.666666666659,
      "d": 153.33333333333394,
      "v": 62
    },
    {
      "midi": 62,
      "hit": false,
      "t": 15299.999999999993,
      "d": 133.33333333333394,
      "v": 62
    },
    {
      "midi": 69,
      "hit": false,
      "t": 15299.999999999993,
      "d": 140,
      "v": 62
    },
    {
      "midi": 66,
      "hit": false,
      "t": 15299.999999999993,
      "d": 166.66666666666606,
      "v": 62
    },
    {
      "midi": 64,
      "hit": false,
      "t": 15506.66666666668,
      "d": 133.33333333333394,
      "v": 58
    },
    {
      "midi": 69,
      "hit": false,
      "t": 15520.000000000015,
      "d": 133.33333333333394,
      "v": 42
    },
    {
      "midi": 61,
      "hit": false,
      "t": 15533.333333333348,
      "d": 160,
      "v": 62
    },
    {
      "midi": 37,
      "hit": false,
      "t": 15553.333333333325,
      "d": 126.66666666666606,
      "v": 62
    },
    {
      "midi": 64,
      "hit": false,
      "t": 15566.666666666659,
      "d": 166.66666666666606,
      "v": 62
    },
    {
      "midi": 69,
      "hit": false,
      "t": 15573.333333333325,
      "d": 126.66666666666606,
      "v": 58
    },
    {
      "midi": 59,
      "hit": false,
      "t": 15766.666666666682,
      "d": 140,
      "v": 62
    },
    {
      "midi": 62,
      "hit": false,
      "t": 15773.333333333348,
      "d": 133.33333333333394,
      "v": 62
    },
    {
      "midi": 35,
      "hit": false,
      "t": 15786.666666666659,
      "d": 133.33333333333394,
      "v": 62
    },
    {
      "midi": 69,
      "hit": false,
      "t": 15786.666666666682,
      "d": 100,
      "v": 58
    },
    {
      "midi": 64,
      "hit": false,
      "t": 15800,
      "d": 440,
      "v": 127
    },
    {
      "midi": 66,
      "hit": false,
      "t": 15800.000000000016,
      "d": 153.33333333333212,
      "v": 62
    },
    {
      "midi": 62,
      "hit": false,
      "t": 15806.666666666659,
      "d": 126.66666666666788,
      "v": 62
    },
    {
      "midi": 69,
      "hit": false,
      "t": 15806.666666666659,
      "d": 140.00000000000182,
      "v": 60
    },
    {
      "midi": 33,
      "hit": false,
      "t": 16039.999999999995,
      "d": 173.33333333333394,
      "v": 62
    },
    {
      "midi": 69,
      "hit": false,
      "t": 16053.333333333328,
      "d": 160,
      "v": 62
    },
    {
      "midi": 61,
      "hit": false,
      "t": 16066.666666666662,
      "d": 153.33333333333212,
      "v": 62
    },
    {
      "midi": 64,
      "hit": false,
      "t": 16066.666666666662,
      "d": 166.66666666666606,
      "v": 62
    },
    {
      "midi": 73,
      "hit": false,
      "t": 16086.666666666666,
      "d": 140,
      "v": 127
    },
    {
      "midi": 69,
      "hit": false,
      "t": 16086.666666666666,
      "d": 153.33333333333394,
      "v": 127
    },
    {
      "midi": 57,
      "hit": false,
      "t": 16086.666666666682,
      "d": 153.33333333333394,
      "v": 62
    },
    {
      "midi": 61,
      "hit": false,
      "t": 16086.666666666682,
      "d": 160,
      "v": 62
    },
    {
      "midi": 64,
      "hit": false,
      "t": 16086.666666666682,
      "d": 160,
      "v": 62
    },
    {
      "midi": 69,
      "hit": false,
      "t": 16086.666666666682,
      "d": 160,
      "v": 62
    },
    {
      "midi": 57,
      "hit": false,
      "t": 16906.666666666668,
      "d": 226.66666666666788,
      "v": 121
    },
    {
      "midi": 57,
      "hit": false,
      "t": 17433.333333333336,
      "d": 206.66666666666788,
      "v": 121
    },
    {
      "midi": 61,
      "hit": false,
      "t": 17713.333333333336,
      "d": 186.66666666666788,
      "v": 121
    },
    {
      "midi": 61,
      "hit": false,
      "t": 18220.000000000004,
      "d": 206.66666666666788,
      "v": 121
    },
    {
      "midi": 64,
      "hit": false,
      "t": 18506.66666666667,
      "d": 226.66666666666788,
      "v": 121
    },
    {
      "midi": 64,
      "hit": false,
      "t": 19000.000000000007,
      "d": 186.66666666666788,
      "v": 118
    },
    {
      "midi": 38,
      "hit": false,
      "t": 19166.66666666666,
      "d": 1066.6666666666606,
      "v": 62
    },
    {
      "midi": 69,
      "hit": false,
      "t": 19166.666666666668,
      "d": 726.6666666666642,
      "v": 127
    },
    {
      "midi": 69,
      "hit": false,
      "t": 19179.999999999993,
      "d": 133.33333333333212,
      "v": 62
    },
    {
      "midi": 66,
      "hit": false,
      "t": 19179.999999999993,
      "d": 140,
      "v": 62
    },
    {
      "midi": 62,
      "hit": false,
      "t": 19179.999999999993,
      "d": 153.33333333333212,
      "v": 60
    },
    {
      "midi": 74,
      "hit": false,
      "t": 19180,
      "d": 660,
      "v": 127
    },
    {
      "midi": 66,
      "hit": false,
      "t": 19180,
      "d": 693.3333333333321,
      "v": 127
    },
    {
      "midi": 69,
      "hit": false,
      "t": 19266.666666666675,
      "d": 473.33333333333576,
      "v": 121
    },
    {
      "midi": 62,
      "hit": false,
      "t": 19266.666666666675,
      "d": 3186.6666666666715,
      "v": 99
    },
    {
      "midi": 66,
      "hit": false,
      "t": 19453.333333333325,
      "d": 100,
      "v": 54
    },
    {
      "midi": 69,
      "hit": false,
      "t": 19466.666666666657,
      "d": 66.66666666666788,
      "v": 48
    },
    {
      "midi": 62,
      "hit": false,
      "t": 19466.666666666657,
      "d": 100,
      "v": 48
    },
    {
      "midi": 57,
      "hit": false,
      "t": 19713.333333333343,
      "d": 2733.3333333333358,
      "v": 109
    },
    {
      "midi": 66,
      "hit": false,
      "t": 19713.333333333343,
      "d": 2740.0000000000036,
      "v": 121
    },
    {
      "midi": 66,
      "hit": false,
      "t": 19719.99999999999,
      "d": 93.33333333333212,
      "v": 54
    },
    {
      "midi": 62,
      "hit": false,
      "t": 19719.99999999999,
      "d": 120,
      "v": 48
    },
    {
      "midi": 69,
      "hit": false,
      "t": 19739.99999999999,
      "d": 60,
      "v": 46
    },
    {
      "midi": 66,
      "hit": false,
      "t": 19946.666666666664,
      "d": 93.33333333333212,
      "v": 127
    },
    {
      "midi": 74,
      "hit": false,
      "t": 19946.666666666664,
      "d": 100,
      "v": 127
    },
    {
      "midi": 69,
      "hit": false,
      "t": 19946.666666666664,
      "d": 106.66666666666788,
      "v": 127
    },
    {
      "midi": 50,
      "hit": false,
      "t": 19973.33333333332,
      "d": 60,
      "v": 56
    },
    {
      "midi": 66,
      "hit": false,
      "t": 19979.99999999999,
      "d": 120,
      "v": 62
    },
    {
      "midi": 62,
      "hit": false,
      "t": 19986.666666666657,
      "d": 106.66666666666424,
      "v": 60
    },
    {
      "midi": 69,
      "hit": false,
      "t": 19999.99999999999,
      "d": 100,
      "v": 62
    },
    {
      "midi": 66,
      "hit": false,
      "t": 20239.99999999999,
      "d": 93.33333333333212,
      "v": 52
    },
    {
      "midi": 62,
      "hit": false,
      "t": 20239.99999999999,
      "d": 100,
      "v": 50
    },
    {
      "midi": 66,
      "hit": false,
      "t": 20506.666666666664,
      "d": 66.66666666666788,
      "v": 127
    },
    {
      "midi": 42,
      "hit": false,
      "t": 20513.33333333332,
      "d": 233.33333333333576,
      "v": 62
    },
    {
      "midi": 66,
      "hit": false,
      "t": 20519.99999999999,
      "d": 133.33333333333212,
      "v": 56
    },
    {
      "midi": 69,
      "hit": false,
      "t": 20533.33333333332,
      "d": 120,
      "v": 56
    },
    {
      "midi": 62,
      "hit": false,
      "t": 20533.33333333332,
      "d": 126.66666666666788,
      "v": 56
    },
    {
      "midi": 69,
      "hit": false,
      "t": 20753.333333333332,
      "d": 773.3333333333358,
      "v": 127
    },
    {
      "midi": 74,
      "hit": false,
      "t": 20773.333333333332,
      "d": 726.6666666666679,
      "v": 127
    },
    {
      "midi": 66,
      "hit": false,
      "t": 20773.333333333332,
      "d": 733.3333333333358,
      "v": 127
    },
    {
      "midi": 66,
      "hit": false,
      "t": 20779.99999999999,
      "d": 153.33333333333212,
      "v": 56
    },
    {
      "midi": 69,
      "hit": false,
      "t": 20786.666666666657,
      "d": 126.66666666666424,
      "v": 54
    },
    {
      "midi": 62,
      "hit": false,
      "t": 20786.666666666657,
      "d": 139.99999999999636,
      "v": 54
    },
    {
      "midi": 45,
      "hit": false,
      "t": 20799.99999999999,
      "d": 700,
      "v": 62
    },
    {
      "midi": 62,
      "hit": false,
      "t": 21053.33333333332,
      "d": 120,
      "v": 48
    },
    {
      "midi": 66,
      "hit": false,
      "t": 21066.666666666653,
      "d": 100,
      "v": 56
    },
    {
      "midi": 69,
      "hit": false,
      "t": 21079.999999999985,
      "d": 60,
      "v": 44
    },
    {
      "midi": 62,
      "hit": false,
      "t": 21319.99999999999,
      "d": 106.66666666666788,
      "v": 50
    },
    {
      "midi": 66,
      "hit": false,
      "t": 21333.33333333332,
      "d": 93.33333333333576,
      "v": 56
    },
    {
      "midi": 69,
      "hit": false,
      "t": 21339.99999999999,
      "d": 66.66666666666788,
      "v": 46
    },
    {
      "midi": 62,
      "hit": false,
      "t": 21579.99999999999,
      "d": 120,
      "v": 56
    },
    {
      "midi": 66,
      "hit": false,
      "t": 21579.99999999999,
      "d": 120,
      "v": 60
    },
    {
      "midi": 42,
      "hit": false,
      "t": 21579.99999999999,
      "d": 200,
      "v": 62
    },
    {
      "midi": 69,
      "hit": false,
      "t": 21599.99999999999,
      "d": 73.33333333333212,
      "v": 56
    },
    {
      "midi": 66,
      "hit": false,
      "t": 21600,
      "d": 66.66666666666788,
      "v": 127
    },
    {
      "midi": 69,
      "hit": false,
      "t": 21600,
      "d": 93.33333333333576,
      "v": 127
    },
    {
      "midi": 74,
      "hit": false,
      "t": 21600,
      "d": 100.00000000000364,
      "v": 127
    },
    {
      "midi": 66,
      "hit": false,
      "t": 21839.99999999999,
      "d": 86.66666666666788,
      "v": 52
    },
    {
      "midi": 69,
      "hit": false,
      "t": 21846.666666666657,
      "d": 66.66666666666788,
      "v": 50
    },
    {
      "midi": 62,
      "hit": false,
      "t": 21846.666666666657,
      "d": 86.66666666666788,
      "v": 50
    },
    {
      "midi": 66,
      "hit": false,
      "t": 22106.666666666657,
      "d": 126.66666666666424,
      "v": 56
    },
    {
      "midi": 62,
      "hit": false,
      "t": 22106.666666666657,
      "d": 133.33333333333212,
      "v": 54
    },
    {
      "midi": 69,
      "hit": false,
      "t": 22119.99999999999,
      "d": 93.33333333333212,
      "v": 52
    },
    {
      "midi": 45,
      "hit": false,
      "t": 22119.99999999999,
      "d": 153.33333333333212,
      "v": 62
    },
    {
      "midi": 69,
      "hit": false,
      "t": 22120.000000000004,
      "d": 86.66666666666788,
      "v": 127
    },
    {
      "midi": 74,
      "hit": false,
      "t": 22120.000000000004,
      "d": 86.66666666666788,
      "v": 127
    },
    {
      "midi": 66,
      "hit": false,
      "t": 22140.000000000004,
      "d": 60,
      "v": 127
    },
    {
      "midi": 74,
      "hit": false,
      "t": 22333.33333333334,
      "d": 806.6666666666679,
      "v": 127
    },
    {
      "midi": 69,
      "hit": false,
      "t": 22333.33333333334,
      "d": 826.6666666666679,
      "v": 127
    },
    {
      "midi": 62,
      "hit": false,
      "t": 22373.33333333332,
      "d": 140.00000000000364,
      "v": 56
    },
    {
      "midi": 66,
      "hit": false,
      "t": 22373.33333333332,
      "d": 153.33333333333576,
      "v": 56
    },
    {
      "midi": 69,
      "hit": false,
      "t": 22399.99999999999,
      "d": 86.66666666666788,
      "v": 52
    },
    {
      "midi": 38,
      "hit": false,
      "t": 22399.99999999999,
      "d": 1000.0000000000036,
      "v": 62
    },
    {
      "midi": 66,
      "hit": false,
      "t": 22400.000000000007,
      "d": 800,
      "v": 127
    },
    {
      "midi": 62,
      "hit": false,
      "t": 22653.333333333325,
      "d": 106.66666666666788,
      "v": 50
    },
    {
      "midi": 66,
      "hit": false,
      "t": 22653.333333333325,
      "d": 106.66666666666788,
      "v": 56
    },
    {
      "midi": 69,
      "hit": false,
      "t": 22666.666666666657,
      "d": 66.66666666666788,
      "v": 42
    },
    {
      "midi": 62,
      "hit": false,
      "t": 22913.333333333325,
      "d": 120,
      "v": 52
    },
    {
      "midi": 66,
      "hit": false,
      "t": 22913.333333333325,
      "d": 120,
      "v": 56
    },
    {
      "midi": 69,
      "hit": false,
      "t": 22933.333333333325,
      "d": 86.66666666666788,
      "v": 46
    },
    {
      "midi": 50,
      "hit": false,
      "t": 23179.999999999993,
      "d": 100,
      "v": 62
    },
    {
      "midi": 66,
      "hit": false,
      "t": 23180.000000000015,
      "d": 140,
      "v": 121
    },
    {
      "midi": 69,
      "hit": false,
      "t": 23199.999999999993,
      "d": 100,
      "v": 60
    },
    {
      "midi": 62,
      "hit": false,
      "t": 23199.999999999993,
      "d": 120,
      "v": 60
    },
    {
      "midi": 66,
      "hit": false,
      "t": 23199.999999999993,
      "d": 120,
      "v": 62
    },
    {
      "midi": 62,
      "hit": false,
      "t": 23200.000000000015,
      "d": 93.33333333333212,
      "v": 121
    },
    {
      "midi": 57,
      "hit": false,
      "t": 23200.000000000015,
      "d": 166.66666666666788,
      "v": 120
    },
    {
      "midi": 66,
      "hit": false,
      "t": 23233.33333333334,
      "d": 86.66666666666788,
      "v": 127
    },
    {
      "midi": 69,
      "hit": false,
      "t": 23240.000000000007,
      "d": 93.33333333333212,
      "v": 127
    },
    {
      "midi": 74,
      "hit": false,
      "t": 23246.666666666675,
      "d": 73.33333333333212,
      "v": 127
    },
    {
      "midi": 66,
      "hit": false,
      "t": 23466.66666666666,
      "d": 86.66666666666788,
      "v": 50
    },
    {
      "midi": 62,
      "hit": false,
      "t": 23466.66666666666,
      "d": 93.33333333333576,
      "v": 48
    },
    {
      "midi": 69,
      "hit": false,
      "t": 23486.66666666666,
      "d": 40,
      "v": 38
    },
    {
      "midi": 62,
      "hit": false,
      "t": 23719.999999999996,
      "d": 140,
      "v": 56
    },
    {
      "midi": 42,
      "hit": false,
      "t": 23719.999999999996,
      "d": 240,
      "v": 62
    },
    {
      "midi": 66,
      "hit": false,
      "t": 23733.33333333333,
      "d": 133.33333333333576,
      "v": 56
    },
    {
      "midi": 69,
      "hit": false,
      "t": 23739.999999999996,
      "d": 100,
      "v": 54
    },
    {
      "midi": 66,
      "hit": false,
      "t": 23766.66666666667,
      "d": 73.33333333333212,
      "v": 127
    },
    {
      "midi": 69,
      "hit": false,
      "t": 23766.66666666667,
      "d": 73.33333333333212,
      "v": 127
    },
    {
      "midi": 74,
      "hit": false,
      "t": 23766.66666666667,
      "d": 73.33333333333212,
      "v": 127
    },
    {
      "midi": 57,
      "hit": false,
      "t": 23966.666666666682,
      "d": 140,
      "v": 109
    },
    {
      "midi": 62,
      "hit": false,
      "t": 23973.33333333335,
      "d": 160,
      "v": 121
    },
    {
      "midi": 62,
      "hit": false,
      "t": 23986.666666666664,
      "d": 133.33333333333576,
      "v": 56
    },
    {
      "midi": 66,
      "hit": false,
      "t": 23986.666666666664,
      "d": 140.00000000000364,
      "v": 58
    },
    {
      "midi": 69,
      "hit": false,
      "t": 24006.666666666664,
      "d": 106.66666666666788,
      "v": 56
    },
    {
      "midi": 45,
      "hit": false,
      "t": 24006.666666666664,
      "d": 760.0000000000036,
      "v": 62
    },
    {
      "midi": 69,
      "hit": false,
      "t": 24020.000000000004,
      "d": 740,
      "v": 127
    },
    {
      "midi": 66,
      "hit": false,
      "t": 24033.333333333336,
      "d": 726.6666666666679,
      "v": 127
    },
    {
      "midi": 74,
      "hit": false,
      "t": 24040.000000000004,
      "d": 686.6666666666679,
      "v": 127
    },
    {
      "midi": 66,
      "hit": false,
      "t": 24266.666666666668,
      "d": 106.66666666666424,
      "v": 54
    },
    {
      "midi": 62,
      "hit": false,
      "t": 24266.666666666668,
      "d": 119.99999999999636,
      "v": 54
    },
    {
      "midi": 69,
      "hit": false,
      "t": 24280,
      "d": 60,
      "v": 48
    },
    {
      "midi": 62,
      "hit": false,
      "t": 24539.999999999996,
      "d": 120.00000000000364,
      "v": 54
    },
    {
      "midi": 66,
      "hit": false,
      "t": 24539.999999999996,
      "d": 120.00000000000364,
      "v": 56
    },
    {
      "midi": 69,
      "hit": false,
      "t": 24566.666666666664,
      "d": 66.66666666666788,
      "v": 50
    },
    {
      "midi": 57,
      "hit": false,
      "t": 24566.666666666682,
      "d": 133.33333333333212,
      "v": 121
    },
    {
      "midi": 66,
      "hit": false,
      "t": 24813.333333333336,
      "d": 120,
      "v": 58
    },
    {
      "midi": 62,
      "hit": false,
      "t": 24813.333333333336,
      "d": 126.66666666666788,
      "v": 58
    },
    {
      "midi": 69,
      "hit": false,
      "t": 24833.333333333336,
      "d": 100,
      "v": 56
    },
    {
      "midi": 42,
      "hit": false,
      "t": 24833.333333333336,
      "d": 400,
      "v": 62
    },
    {
      "midi": 69,
      "hit": false,
      "t": 24840.000000000004,
      "d": 93.33333333333212,
      "v": 127
    },
    {
      "midi": 66,
      "hit": false,
      "t": 24840.000000000004,
      "d": 100,
      "v": 127
    },
    {
      "midi": 74,
      "hit": false,
      "t": 24840.000000000004,
      "d": 120,
      "v": 127
    },
    {
      "midi": 66,
      "hit": false,
      "t": 25080.000000000004,
      "d": 93.33333333333212,
      "v": 54
    },
    {
      "midi": 62,
      "hit": false,
      "t": 25080.000000000004,
      "d": 100,
      "v": 54
    },
    {
      "midi": 61,
      "hit": false,
      "t": 25080.000000000015,
      "d": 426.6666666666679,
      "v": 121
    },
    {
      "midi": 66,
      "hit": false,
      "t": 25080.000000000015,
      "d": 440,
      "v": 121
    },
    {
      "midi": 45,
      "hit": false,
      "t": 25333.333333333336,
      "d": 206.66666666666788,
      "v": 60
    },
    {
      "midi": 66,
      "hit": false,
      "t": 25346.666666666668,
      "d": 140.00000000000364,
      "v": 58
    },
    {
      "midi": 62,
      "hit": false,
      "t": 25353.333333333336,
      "d": 106.66666666666788,
      "v": 58
    },
    {
      "midi": 69,
      "hit": false,
      "t": 25353.333333333336,
      "d": 106.66666666666788,
      "v": 56
    },
    {
      "midi": 74,
      "hit": false,
      "t": 25373.333333333336,
      "d": 100,
      "v": 127
    },
    {
      "midi": 66,
      "hit": false,
      "t": 25373.333333333336,
      "d": 153.33333333333212,
      "v": 127
    },
    {
      "midi": 69,
      "hit": false,
      "t": 25400.000000000004,
      "d": 106.66666666666424,
      "v": 127
    },
    {
      "midi": 64,
      "hit": false,
      "t": 25620.000000000015,
      "d": 2399.9999999999964,
      "v": 109
    },
    {
      "midi": 69,
      "hit": false,
      "t": 25633.333333333336,
      "d": 686.6666666666642,
      "v": 127
    },
    {
      "midi": 61,
      "hit": false,
      "t": 25633.333333333336,
      "d": 133.33333333333212,
      "v": 62
    },
    {
      "midi": 64,
      "hit": false,
      "t": 25633.333333333336,
      "d": 153.33333333333212,
      "v": 56
    },
    {
      "midi": 33,
      "hit": false,
      "t": 25633.333333333336,
      "d": 999.9999999999964,
      "v": 62
    },
    {
      "midi": 57,
      "hit": false,
      "t": 25633.333333333347,
      "d": 2333.333333333332,
      "v": 101
    },
    {
      "midi": 61,
      "hit": false,
      "t": 25633.333333333347,
      "d": 2333.333333333332,
      "v": 110
    },
    {
      "midi": 73,
      "hit": false,
      "t": 25653.333333333336,
      "d": 640,
      "v": 127
    },
    {
      "midi": 64,
      "hit": false,
      "t": 25653.333333333336,
      "d": 653.3333333333321,
      "v": 127
    },
    {
      "midi": 69,
      "hit": false,
      "t": 25653.333333333336,
      "d": 93.33333333333212,
      "v": 46
    },
    {
      "midi": 61,
      "hit": false,
      "t": 25900,
      "d": 106.66666666666424,
      "v": 56
    },
    {
      "midi": 64,
      "hit": false,
      "t": 25900,
      "d": 126.66666666666424,
      "v": 48
    },
    {
      "midi": 69,
      "hit": false,
      "t": 25920,
      "d": 73.33333333333212,
      "v": 38
    },
    {
      "midi": 61,
      "hit": false,
      "t": 26153.333333333332,
      "d": 120,
      "v": 54
    },
    {
      "midi": 69,
      "hit": false,
      "t": 26166.666666666664,
      "d": 106.66666666666788,
      "v": 42
    },
    {
      "midi": 64,
      "hit": false,
      "t": 26166.666666666664,
      "d": 120,
      "v": 52
    },
    {
      "midi": 45,
      "hit": false,
      "t": 26413.333333333332,
      "d": 106.66666666666788,
      "v": 60
    },
    {
      "midi": 64,
      "hit": false,
      "t": 26413.333333333332,
      "d": 153.33333333333212,
      "v": 56
    },
    {
      "midi": 69,
      "hit": false,
      "t": 26413.333333333332,
      "d": 153.33333333333212,
      "v": 54
    },
    {
      "midi": 64,
      "hit": false,
      "t": 26420,
      "d": 106.66666666666424,
      "v": 127
    },
    {
      "midi": 73,
      "hit": false,
      "t": 26433.333333333332,
      "d": 93.33333333333212,
      "v": 127
    },
    {
      "midi": 69,
      "hit": false,
      "t": 26433.333333333332,
      "d": 100,
      "v": 127
    },
    {
      "midi": 61,
      "hit": false,
      "t": 26433.333333333332,
      "d": 120,
      "v": 58
    },
    {
      "midi": 61,
      "hit": false,
      "t": 26686.666666666664,
      "d": 106.66666666666424,
      "v": 52
    },
    {
      "midi": 64,
      "hit": false,
      "t": 26699.999999999996,
      "d": 100,
      "v": 54
    },
    {
      "midi": 69,
      "hit": false,
      "t": 26699.999999999996,
      "d": 100,
      "v": 40
    },
    {
      "midi": 37,
      "hit": false,
      "t": 26933.33333333333,
      "d": 220.00000000000364,
      "v": 62
    },
    {
      "midi": 61,
      "hit": false,
      "t": 26939.999999999996,
      "d": 153.33333333333576,
      "v": 58
    },
    {
      "midi": 64,
      "hit": false,
      "t": 26946.666666666664,
      "d": 140,
      "v": 54
    },
    {
      "midi": 69,
      "hit": false,
      "t": 26946.666666666664,
      "d": 140,
      "v": 48
    },
    {
      "midi": 69,
      "hit": false,
      "t": 26966.666666666664,
      "d": 100,
      "v": 127
    },
    {
      "midi": 76,
      "hit": false,
      "t": 26966.666666666664,
      "d": 100,
      "v": 127
    },
    {
      "midi": 73,
      "hit": false,
      "t": 26986.666666666664,
      "d": 40,
      "v": 127
    },
    {
      "midi": 61,
      "hit": false,
      "t": 27220,
      "d": 133.33333333333212,
      "v": 58
    },
    {
      "midi": 40,
      "hit": false,
      "t": 27220,
      "d": 733.3333333333358,
      "v": 60
    },
    {
      "midi": 69,
      "hit": false,
      "t": 27233.333333333332,
      "d": 126.66666666666788,
      "v": 48
    },
    {
      "midi": 76,
      "hit": false,
      "t": 27239.999999999996,
      "d": 726.6666666666642,
      "v": 127
    },
    {
      "midi": 69,
      "hit": false,
      "t": 27239.999999999996,
      "d": 733.3333333333321,
      "v": 127
    },
    {
      "midi": 64,
      "hit": false,
      "t": 27240,
      "d": 120,
      "v": 56
    },
    {
      "midi": 73,
      "hit": false,
      "t": 27253.33333333333,
      "d": 720,
      "v": 127
    },
    {
      "midi": 61,
      "hit": false,
      "t": 27480,
      "d": 126.66666666666788,
      "v": 56
    },
    {
      "midi": 69,
      "hit": false,
      "t": 27500,
      "d": 106.66666666666788,
      "v": 44
    },
    {
      "midi": 64,
      "hit": false,
      "t": 27500,
      "d": 120,
      "v": 56
    },
    {
      "midi": 61,
      "hit": false,
      "t": 27733.333333333332,
      "d": 133.33333333333576,
      "v": 56
    },
    {
      "midi": 69,
      "hit": false,
      "t": 27740,
      "d": 106.66666666666788,
      "v": 44
    },
    {
      "midi": 64,
      "hit": false,
      "t": 27740,
      "d": 126.66666666666788,
      "v": 58
    },
    {
      "midi": 61,
      "hit": false,
      "t": 28000.000000000004,
      "d": 133.33333333333212,
      "v": 58
    },
    {
      "midi": 64,
      "hit": false,
      "t": 28000.000000000004,
      "d": 153.33333333333212,
      "v": 54
    },
    {
      "midi": 69,
      "hit": false,
      "t": 28006.66666666667,
      "d": 126.66666666666424,
      "v": 50
    },
    {
      "midi": 37,
      "hit": false,
      "t": 28020.000000000004,
      "d": 300,
      "v": 62
    },
    {
      "midi": 69,
      "hit": false,
      "t": 28066.66666666666,
      "d": 100,
      "v": 127
    },
    {
      "midi": 76,
      "hit": false,
      "t": 28066.66666666666,
      "d": 100,
      "v": 127
    },
    {
      "midi": 73,
      "hit": false,
      "t": 28079.999999999993,
      "d": 86.66666666666788,
      "v": 127
    },
    {
      "midi": 61,
      "hit": false,
      "t": 28273.333333333336,
      "d": 100,
      "v": 52
    },
    {
      "midi": 64,
      "hit": false,
      "t": 28280.000000000004,
      "d": 100,
      "v": 54
    },
    {
      "midi": 69,
      "hit": false,
      "t": 28300.000000000004,
      "d": 53.33333333333212,
      "v": 36
    },
    {
      "midi": 61,
      "hit": false,
      "t": 28533.333333333336,
      "d": 126.66666666666788,
      "v": 56
    },
    {
      "midi": 40,
      "hit": false,
      "t": 28533.333333333336,
      "d": 160.00000000000364,
      "v": 62
    },
    {
      "midi": 69,
      "hit": false,
      "t": 28540.000000000004,
      "d": 106.66666666666788,
      "v": 46
    },
    {
      "midi": 64,
      "hit": false,
      "t": 28540.000000000004,
      "d": 126.66666666666788,
      "v": 52
    },
    {
      "midi": 76,
      "hit": false,
      "t": 28566.66666666666,
      "d": 73.33333333333212,
      "v": 127
    },
    {
      "midi": 69,
      "hit": false,
      "t": 28566.66666666666,
      "d": 86.66666666666424,
      "v": 127
    },
    {
      "midi": 73,
      "hit": false,
      "t": 28566.66666666666,
      "d": 86.66666666666424,
      "v": 127
    },
    {
      "midi": 61,
      "hit": false,
      "t": 28806.66666666667,
      "d": 126.66666666666424,
      "v": 58
    },
    {
      "midi": 69,
      "hit": false,
      "t": 28806.66666666667,
      "d": 139.99999999999636,
      "v": 48
    },
    {
      "midi": 64,
      "hit": false,
      "t": 28820.000000000004,
      "d": 126.66666666666424,
      "v": 58
    },
    {
      "midi": 33,
      "hit": false,
      "t": 28833.333333333336,
      "d": 1233.3333333333285,
      "v": 62
    },
    {
      "midi": 69,
      "hit": false,
      "t": 28839.999999999993,
      "d": 660,
      "v": 127
    },
    {
      "midi": 76,
      "hit": false,
      "t": 28839.999999999993,
      "d": 666.6666666666679,
      "v": 127
    },
    {
      "midi": 73,
      "hit": false,
      "t": 28846.66666666666,
      "d": 666.6666666666679,
      "v": 127
    },
    {
      "midi": 69,
      "hit": false,
      "t": 29073.333333333336,
      "d": 106.66666666666424,
      "v": 42
    },
    {
      "midi": 61,
      "hit": false,
      "t": 29073.333333333336,
      "d": 119.99999999999636,
      "v": 56
    },
    {
      "midi": 64,
      "hit": false,
      "t": 29086.666666666668,
      "d": 106.66666666666424,
      "v": 56
    },
    {
      "midi": 61,
      "hit": false,
      "t": 29320,
      "d": 126.66666666666424,
      "v": 54
    },
    {
      "midi": 69,
      "hit": false,
      "t": 29333.333333333332,
      "d": 100,
      "v": 40
    },
    {
      "midi": 64,
      "hit": false,
      "t": 29333.333333333332,
      "d": 120,
      "v": 54
    },
    {
      "midi": 45,
      "hit": false,
      "t": 29580,
      "d": 120,
      "v": 62
    },
    {
      "midi": 69,
      "hit": false,
      "t": 29580,
      "d": 120,
      "v": 48
    },
    {
      "midi": 61,
      "hit": false,
      "t": 29580,
      "d": 133.33333333333212,
      "v": 60
    },
    {
      "midi": 64,
      "hit": false,
      "t": 29580,
      "d": 140,
      "v": 58
    },
    {
      "midi": 69,
      "hit": false,
      "t": 29606.66666666666,
      "d": 93.33333333333212,
      "v": 127
    },
    {
      "midi": 73,
      "hit": false,
      "t": 29606.66666666666,
      "d": 93.33333333333212,
      "v": 127
    },
    {
      "midi": 76,
      "hit": false,
      "t": 29606.66666666666,
      "d": 93.33333333333212,
      "v": 127
    },
    {
      "midi": 66,
      "hit": false,
      "t": 29606.666666666675,
      "d": 420.00000000000364,
      "v": 121
    },
    {
      "midi": 69,
      "hit": false,
      "t": 29613.333333333343,
      "d": 386.6666666666679,
      "v": 121
    },
    {
      "midi": 61,
      "hit": false,
      "t": 29853.333333333332,
      "d": 120,
      "v": 56
    },
    {
      "midi": 69,
      "hit": false,
      "t": 29866.666666666664,
      "d": 100,
      "v": 40
    },
    {
      "midi": 64,
      "hit": false,
      "t": 29866.666666666664,
      "d": 120,
      "v": 54
    },
    {
      "midi": 73,
      "hit": false,
      "t": 30119.999999999993,
      "d": 73.33333333333212,
      "v": 127
    },
    {
      "midi": 76,
      "hit": false,
      "t": 30119.999999999993,
      "d": 73.33333333333212,
      "v": 127
    },
    {
      "midi": 69,
      "hit": false,
      "t": 30119.999999999993,
      "d": 86.66666666666424,
      "v": 127
    },
    {
      "midi": 61,
      "hit": false,
      "t": 30133.333333333332,
      "d": 106.66666666666424,
      "v": 58
    },
    {
      "midi": 69,
      "hit": false,
      "t": 30133.333333333332,
      "d": 106.66666666666424,
      "v": 46
    },
    {
      "midi": 64,
      "hit": false,
      "t": 30133.333333333332,
      "d": 126.66666666666424,
      "v": 54
    },
    {
      "midi": 69,
      "hit": false,
      "t": 30133.333333333347,
      "d": 186.66666666666788,
      "v": 109
    },
    {
      "midi": 64,
      "hit": false,
      "t": 30140.000000000015,
      "d": 193.33333333333212,
      "v": 104
    },
    {
      "midi": 37,
      "hit": false,
      "t": 30146.666666666664,
      "d": 186.66666666666424,
      "v": 62
    },
    {
      "midi": 69,
      "hit": false,
      "t": 30399.99999999999,
      "d": 706.6666666666679,
      "v": 127
    },
    {
      "midi": 73,
      "hit": false,
      "t": 30399.99999999999,
      "d": 733.3333333333358,
      "v": 127
    },
    {
      "midi": 61,
      "hit": false,
      "t": 30399.999999999996,
      "d": 126.66666666666788,
      "v": 60
    },
    {
      "midi": 64,
      "hit": false,
      "t": 30399.999999999996,
      "d": 133.33333333333576,
      "v": 56
    },
    {
      "midi": 69,
      "hit": false,
      "t": 30399.999999999996,
      "d": 133.33333333333576,
      "v": 48
    },
    {
      "midi": 76,
      "hit": false,
      "t": 30406.666666666657,
      "d": 700,
      "v": 127
    },
    {
      "midi": 40,
      "hit": false,
      "t": 30419.999999999996,
      "d": 673.3333333333394,
      "v": 62
    },
    {
      "midi": 69,
      "hit": false,
      "t": 30466.66666666668,
      "d": 366.66666666666424,
      "v": 121
    },
    {
      "midi": 66,
      "hit": false,
      "t": 30466.66666666668,
      "d": 406.66666666666424,
      "v": 121
    },
    {
      "midi": 61,
      "hit": false,
      "t": 30666.666666666664,
      "d": 106.66666666666788,
      "v": 60
    },
    {
      "midi": 69,
      "hit": false,
      "t": 30666.666666666664,
      "d": 126.66666666666788,
      "v": 44
    },
    {
      "midi": 64,
      "hit": false,
      "t": 30666.666666666664,
      "d": 133.33333333333576,
      "v": 56
    },
    {
      "midi": 61,
      "hit": false,
      "t": 30913.333333333332,
      "d": 120.00000000000364,
      "v": 56
    },
    {
      "midi": 64,
      "hit": false,
      "t": 30913.333333333332,
      "d": 126.66666666667152,
      "v": 56
    },
    {
      "midi": 69,
      "hit": false,
      "t": 30920,
      "d": 106.66666666666788,
      "v": 42
    },
    {
      "midi": 69,
      "hit": false,
      "t": 31000.000000000007,
      "d": 153.33333333333212,
      "v": 120
    },
    {
      "midi": 64,
      "hit": false,
      "t": 31000.000000000007,
      "d": 200,
      "v": 118
    },
    {
      "midi": 76,
      "hit": false,
      "t": 31166.666666666657,
      "d": 126.66666666666788,
      "v": 127
    },
    {
      "midi": 61,
      "hit": false,
      "t": 31166.666666666668,
      "d": 126.66666666666788,
      "v": 60
    },
    {
      "midi": 64,
      "hit": false,
      "t": 31166.666666666668,
      "d": 133.33333333333576,
      "v": 56
    },
    {
      "midi": 69,
      "hit": false,
      "t": 31166.666666666668,
      "d": 133.33333333333576,
      "v": 52
    },
    {
      "midi": 69,
      "hit": false,
      "t": 31186.666666666657,
      "d": 100,
      "v": 127
    },
    {
      "midi": 73,
      "hit": false,
      "t": 31186.666666666657,
      "d": 100,
      "v": 127
    },
    {
      "midi": 37,
      "hit": false,
      "t": 31213.333333333336,
      "d": 526.6666666666715,
      "v": 62
    },
    {
      "midi": 61,
      "hit": false,
      "t": 31440.000000000004,
      "d": 120.00000000000364,
      "v": 56
    },
    {
      "midi": 69,
      "hit": false,
      "t": 31446.66666666667,
      "d": 106.66666666666788,
      "v": 44
    },
    {
      "midi": 64,
      "hit": false,
      "t": 31466.66666666667,
      "d": 100.00000000000364,
      "v": 56
    },
    {
      "midi": 59,
      "hit": false,
      "t": 31473.333333333343,
      "d": 126.66666666666788,
      "v": 120
    },
    {
      "midi": 64,
      "hit": false,
      "t": 31473.333333333343,
      "d": 420.00000000000364,
      "v": 115
    },
    {
      "midi": 61,
      "hit": false,
      "t": 31500.00000000001,
      "d": 426.6666666666679,
      "v": 121
    },
    {
      "midi": 69,
      "hit": false,
      "t": 31679.999999999993,
      "d": 106.66666666666788,
      "v": 127
    },
    {
      "midi": 40,
      "hit": false,
      "t": 31686.666666666675,
      "d": 133.33333333333212,
      "v": 52
    },
    {
      "midi": 73,
      "hit": false,
      "t": 31699.999999999993,
      "d": 66.66666666666788,
      "v": 127
    },
    {
      "midi": 69,
      "hit": false,
      "t": 31706.666666666675,
      "d": 120,
      "v": 54
    },
    {
      "midi": 61,
      "hit": false,
      "t": 31706.666666666675,
      "d": 133.33333333333212,
      "v": 62
    },
    {
      "midi": 64,
      "hit": false,
      "t": 31706.666666666675,
      "d": 133.33333333333212,
      "v": 56
    },
    {
      "midi": 76,
      "hit": false,
      "t": 31953.33333333333,
      "d": 693.3333333333358,
      "v": 127
    },
    {
      "midi": 71,
      "hit": false,
      "t": 31953.33333333333,
      "d": 720.0000000000036,
      "v": 127
    },
    {
      "midi": 68,
      "hit": false,
      "t": 31979.999999999996,
      "d": 666.6666666666679,
      "v": 127
    },
    {
      "midi": 68,
      "hit": false,
      "t": 32000.000000000007,
      "d": 120,
      "v": 60
    },
    {
      "midi": 62,
      "hit": false,
      "t": 32000.000000000007,
      "d": 126.66666666666788,
      "v": 58
    },
    {
      "midi": 64,
      "hit": false,
      "t": 32000.000000000007,
      "d": 140,
      "v": 54
    },
    {
      "midi": 59,
      "hit": false,
      "t": 32000.00000000001,
      "d": 993.3333333333321,
      "v": 110
    },
    {
      "midi": 64,
      "hit": false,
      "t": 32000.00000000001,
      "d": 999.9999999999964,
      "v": 110
    },
    {
      "midi": 40,
      "hit": false,
      "t": 32013.33333333334,
      "d": 1119.9999999999964,
      "v": 62
    },
    {
      "midi": 64,
      "hit": false,
      "t": 32266.666666666675,
      "d": 126.66666666666424,
      "v": 48
    },
    {
      "midi": 62,
      "hit": false,
      "t": 32280.000000000007,
      "d": 86.66666666666424,
      "v": 50
    },
    {
      "midi": 68,
      "hit": false,
      "t": 32300.000000000007,
      "d": 53.33333333333212,
      "v": 48
    },
    {
      "midi": 62,
      "hit": false,
      "t": 32533.33333333334,
      "d": 100,
      "v": 54
    },
    {
      "midi": 64,
      "hit": false,
      "t": 32533.33333333334,
      "d": 126.66666666666788,
      "v": 50
    },
    {
      "midi": 68,
      "hit": false,
      "t": 32546.66666666667,
      "d": 86.66666666666788,
      "v": 54
    },
    {
      "midi": 68,
      "hit": false,
      "t": 32766.666666666664,
      "d": 100,
      "v": 127
    },
    {
      "midi": 71,
      "hit": false,
      "t": 32766.666666666664,
      "d": 100,
      "v": 127
    },
    {
      "midi": 76,
      "hit": false,
      "t": 32766.666666666664,
      "d": 100,
      "v": 127
    },
    {
      "midi": 62,
      "hit": false,
      "t": 32800.00000000001,
      "d": 100,
      "v": 52
    },
    {
      "midi": 64,
      "hit": false,
      "t": 32800.00000000001,
      "d": 126.66666666666424,
      "v": 50
    },
    {
      "midi": 68,
      "hit": false,
      "t": 32806.66666666667,
      "d": 100,
      "v": 54
    },
    {
      "midi": 52,
      "hit": false,
      "t": 32820.00000000001,
      "d": 73.33333333333576,
      "v": 62
    },
    {
      "midi": 64,
      "hit": false,
      "t": 33066.66666666667,
      "d": 99.99999999999272,
      "v": 48
    },
    {
      "midi": 68,
      "hit": false,
      "t": 33073.333333333336,
      "d": 66.66666666666424,
      "v": 48
    },
    {
      "midi": 62,
      "hit": false,
      "t": 33073.333333333336,
      "d": 86.66666666666424,
      "v": 50
    },
    {
      "midi": 68,
      "hit": false,
      "t": 33306.666666666664,
      "d": 66.66666666666424,
      "v": 127
    },
    {
      "midi": 62,
      "hit": false,
      "t": 33333.33333333333,
      "d": 133.33333333333576,
      "v": 52
    },
    {
      "midi": 64,
      "hit": false,
      "t": 33333.33333333333,
      "d": 133.33333333333576,
      "v": 50
    },
    {
      "midi": 44,
      "hit": false,
      "t": 33333.33333333333,
      "d": 220,
      "v": 62
    },
    {
      "midi": 68,
      "hit": false,
      "t": 33346.666666666664,
      "d": 93.33333333333576,
      "v": 56
    },
    {
      "midi": 71,
      "hit": false,
      "t": 33573.33333333333,
      "d": 753.3333333333285,
      "v": 127
    },
    {
      "midi": 76,
      "hit": false,
      "t": 33579.99999999999,
      "d": 673.3333333333358,
      "v": 127
    },
    {
      "midi": 68,
      "hit": false,
      "t": 33599.99999999999,
      "d": 700,
      "v": 127
    },
    {
      "midi": 62,
      "hit": false,
      "t": 33599.99999999999,
      "d": 126.66666666666424,
      "v": 52
    },
    {
      "midi": 64,
      "hit": false,
      "t": 33599.99999999999,
      "d": 133.33333333332848,
      "v": 52
    },
    {
      "midi": 68,
      "hit": false,
      "t": 33613.33333333333,
      "d": 106.66666666666424,
      "v": 54
    },
    {
      "midi": 47,
      "hit": false,
      "t": 33613.33333333333,
      "d": 659.9999999999927,
      "v": 62
    },
    {
      "midi": 68,
      "hit": false,
      "t": 33853.33333333332,
      "d": 93.33333333333576,
      "v": 52
    },
    {
      "midi": 62,
      "hit": false,
      "t": 33853.33333333332,
      "d": 106.66666666667152,
      "v": 50
    },
    {
      "midi": 64,
      "hit": false,
      "t": 33853.33333333332,
      "d": 106.66666666667152,
      "v": 50
    },
    {
      "midi": 62,
      "hit": false,
      "t": 34119.99999999999,
      "d": 106.66666666666424,
      "v": 52
    },
    {
      "midi": 64,
      "hit": false,
      "t": 34119.99999999999,
      "d": 133.33333333332848,
      "v": 50
    },
    {
      "midi": 68,
      "hit": false,
      "t": 34119.99999999999,
      "d": 133.33333333332848,
      "v": 52
    },
    {
      "midi": 76,
      "hit": false,
      "t": 34379.99999999999,
      "d": 106.66666666666424,
      "v": 127
    },
    {
      "midi": 44,
      "hit": false,
      "t": 34386.66666666666,
      "d": 333.3333333333285,
      "v": 62
    },
    {
      "midi": 68,
      "hit": false,
      "t": 34399.99999999999,
      "d": 86.66666666666424,
      "v": 127
    },
    {
      "midi": 71,
      "hit": false,
      "t": 34399.99999999999,
      "d": 100,
      "v": 127
    },
    {
      "midi": 62,
      "hit": false,
      "t": 34399.99999999999,
      "d": 106.66666666666424,
      "v": 52
    },
    {
      "midi": 64,
      "hit": false,
      "t": 34399.99999999999,
      "d": 126.66666666666424,
      "v": 50
    },
    {
      "midi": 68,
      "hit": false,
      "t": 34399.99999999999,
      "d": 126.66666666666424,
      "v": 54
    },
    {
      "midi": 62,
      "hit": false,
      "t": 34666.66666666666,
      "d": 86.66666666666424,
      "v": 46
    },
    {
      "midi": 64,
      "hit": false,
      "t": 34666.66666666666,
      "d": 93.33333333332848,
      "v": 46
    },
    {
      "midi": 68,
      "hit": false,
      "t": 34673.33333333332,
      "d": 60,
      "v": 44
    },
    {
      "midi": 47,
      "hit": false,
      "t": 34913.33333333332,
      "d": 160,
      "v": 62
    },
    {
      "midi": 62,
      "hit": false,
      "t": 34933.33333333332,
      "d": 100,
      "v": 50
    },
    {
      "midi": 68,
      "hit": false,
      "t": 34933.33333333332,
      "d": 100,
      "v": 54
    },
    {
      "midi": 64,
      "hit": false,
      "t": 34933.33333333332,
      "d": 120,
      "v": 52
    },
    {
      "midi": 68,
      "hit": false,
      "t": 34946.66666666666,
      "d": 86.66666666666424,
      "v": 127
    },
    {
      "midi": 62,
      "hit": false,
      "t": 35199.999999999985,
      "d": 133.33333333333576,
      "v": 52
    },
    {
      "midi": 68,
      "hit": false,
      "t": 35199.999999999985,
      "d": 133.33333333333576,
      "v": 54
    },
    {
      "midi": 64,
      "hit": false,
      "t": 35199.999999999985,
      "d": 140,
      "v": 54
    },
    {
      "midi": 40,
      "hit": false,
      "t": 35199.999999999985,
      "d": 1260,
      "v": 62
    },
    {
      "midi": 76,
      "hit": false,
      "t": 35219.999999999985,
      "d": 633.3333333333358,
      "v": 127
    },
    {
      "midi": 68,
      "hit": false,
      "t": 35219.999999999985,
      "d": 673.3333333333358,
      "v": 127
    },
    {
      "midi": 74,
      "hit": false,
      "t": 35219.999999999985,
      "d": 673.3333333333358,
      "v": 127
    },
    {
      "midi": 71,
      "hit": false,
      "t": 35219.999999999985,
      "d": 693.3333333333358,
      "v": 127
    },
    {
      "midi": 64,
      "hit": false,
      "t": 35466.66666666665,
      "d": 126.66666666666424,
      "v": 48
    },
    {
      "midi": 62,
      "hit": false,
      "t": 35473.333333333314,
      "d": 100,
      "v": 50
    },
    {
      "midi": 68,
      "hit": false,
      "t": 35473.333333333314,
      "d": 100,
      "v": 50
    },
    {
      "midi": 62,
      "hit": false,
      "t": 35733.333333333314,
      "d": 106.66666666666424,
      "v": 50
    },
    {
      "midi": 68,
      "hit": false,
      "t": 35733.333333333314,
      "d": 106.66666666666424,
      "v": 50
    },
    {
      "midi": 64,
      "hit": false,
      "t": 35733.333333333314,
      "d": 120,
      "v": 50
    },
    {
      "midi": 69,
      "hit": false,
      "t": 35980.00000000001,
      "d": 400,
      "v": 121
    },
    {
      "midi": 66,
      "hit": false,
      "t": 35980.00000000001,
      "d": 506.66666666666424,
      "v": 121
    },
    {
      "midi": 62,
      "hit": false,
      "t": 35999.99999999998,
      "d": 126.66666666667152,
      "v": 54
    },
    {
      "midi": 64,
      "hit": false,
      "t": 35999.99999999998,
      "d": 133.33333333333576,
      "v": 54
    },
    {
      "midi": 68,
      "hit": false,
      "t": 35999.99999999998,
      "d": 133.33333333333576,
      "v": 54
    },
    {
      "midi": 52,
      "hit": false,
      "t": 36019.99999999998,
      "d": 73.33333333333576,
      "v": 62
    },
    {
      "midi": 71,
      "hit": false,
      "t": 36019.999999999985,
      "d": 73.33333333333576,
      "v": 127
    },
    {
      "midi": 76,
      "hit": false,
      "t": 36019.999999999985,
      "d": 86.66666666666424,
      "v": 127
    },
    {
      "midi": 68,
      "hit": false,
      "t": 36019.999999999985,
      "d": 93.33333333332848,
      "v": 127
    },
    {
      "midi": 74,
      "hit": false,
      "t": 36033.33333333332,
      "d": 66.66666666666424,
      "v": 127
    },
    {
      "midi": 62,
      "hit": false,
      "t": 36266.66666666665,
      "d": 106.66666666666424,
      "v": 50
    },
    {
      "midi": 68,
      "hit": false,
      "t": 36266.66666666665,
      "d": 120,
      "v": 50
    },
    {
      "midi": 64,
      "hit": false,
      "t": 36266.66666666665,
      "d": 133.33333333333576,
      "v": 50
    },
    {
      "midi": 68,
      "hit": false,
      "t": 36533.333333333314,
      "d": 73.33333333333576,
      "v": 127
    },
    {
      "midi": 62,
      "hit": false,
      "t": 36539.999999999985,
      "d": 106.66666666666424,
      "v": 48
    },
    {
      "midi": 64,
      "hit": false,
      "t": 36539.999999999985,
      "d": 126.66666666666424,
      "v": 50
    },
    {
      "midi": 68,
      "hit": false,
      "t": 36539.999999999985,
      "d": 126.66666666666424,
      "v": 52
    },
    {
      "midi": 44,
      "hit": false,
      "t": 36586.66666666665,
      "d": 173.33333333333576,
      "v": 62
    },
    {
      "midi": 66,
      "hit": false,
      "t": 36753.333333333336,
      "d": 440,
      "v": 121
    },
    {
      "midi": 69,
      "hit": false,
      "t": 36766.66666666667,
      "d": 400,
      "v": 120
    },
    {
      "midi": 74,
      "hit": false,
      "t": 36806.66666666665,
      "d": 693.3333333333285,
      "v": 127
    },
    {
      "midi": 71,
      "hit": false,
      "t": 36806.66666666665,
      "d": 733.3333333333285,
      "v": 127
    },
    {
      "midi": 62,
      "hit": false,
      "t": 36819.999999999985,
      "d": 126.66666666666424,
      "v": 54
    },
    {
      "midi": 68,
      "hit": false,
      "t": 36819.999999999985,
      "d": 133.33333333332848,
      "v": 56
    },
    {
      "midi": 64,
      "hit": false,
      "t": 36819.999999999985,
      "d": 139.99999999999272,
      "v": 54
    },
    {
      "midi": 76,
      "hit": false,
      "t": 36833.333333333314,
      "d": 660,
      "v": 127
    },
    {
      "midi": 68,
      "hit": false,
      "t": 36833.333333333314,
      "d": 686.6666666666642,
      "v": 127
    },
    {
      "midi": 47,
      "hit": false,
      "t": 36866.66666666665,
      "d": 686.6666666666715,
      "v": 62
    },
    {
      "midi": 62,
      "hit": false,
      "t": 37079.99999999998,
      "d": 93.33333333333576,
      "v": 50
    },
    {
      "midi": 68,
      "hit": false,
      "t": 37079.99999999998,
      "d": 93.33333333333576,
      "v": 54
    },
    {
      "midi": 64,
      "hit": false,
      "t": 37079.99999999998,
      "d": 120,
      "v": 52
    },
    {
      "midi": 69,
      "hit": false,
      "t": 37320,
      "d": 420.0000000000073,
      "v": 112
    },
    {
      "midi": 64,
      "hit": false,
      "t": 37333.333333333336,
      "d": 433.33333333333576,
      "v": 115
    },
    {
      "midi": 62,
      "hit": false,
      "t": 37339.99999999998,
      "d": 106.66666666667152,
      "v": 48
    },
    {
      "midi": 64,
      "hit": false,
      "t": 37339.99999999998,
      "d": 120.00000000000728,
      "v": 50
    },
    {
      "midi": 68,
      "hit": false,
      "t": 37353.333333333314,
      "d": 93.33333333333576,
      "v": 54
    },
    {
      "midi": 76,
      "hit": false,
      "t": 37599.99999999998,
      "d": 100,
      "v": 127
    },
    {
      "midi": 68,
      "hit": false,
      "t": 37599.99999999998,
      "d": 106.66666666666424,
      "v": 127
    },
    {
      "midi": 71,
      "hit": false,
      "t": 37599.99999999998,
      "d": 106.66666666666424,
      "v": 127
    },
    {
      "midi": 74,
      "hit": false,
      "t": 37619.99999999998,
      "d": 73.33333333333576,
      "v": 127
    },
    {
      "midi": 62,
      "hit": false,
      "t": 37619.999999999985,
      "d": 106.66666666667152,
      "v": 56
    },
    {
      "midi": 64,
      "hit": false,
      "t": 37619.999999999985,
      "d": 126.66666666667152,
      "v": 54
    },
    {
      "midi": 68,
      "hit": false,
      "t": 37619.999999999985,
      "d": 126.66666666667152,
      "v": 58
    },
    {
      "midi": 44,
      "hit": false,
      "t": 37633.33333333332,
      "d": 466.66666666665697,
      "v": 62
    },
    {
      "midi": 64,
      "hit": false,
      "t": 37873.33333333332,
      "d": 119.99999999999272,
      "v": 50
    },
    {
      "midi": 62,
      "hit": false,
      "t": 37879.999999999985,
      "d": 93.33333333332848,
      "v": 52
    },
    {
      "midi": 66,
      "hit": false,
      "t": 37880.00000000001,
      "d": 386.66666666666424,
      "v": 121
    },
    {
      "midi": 68,
      "hit": false,
      "t": 37886.66666666665,
      "d": 86.66666666666424,
      "v": 52
    },
    {
      "midi": 69,
      "hit": false,
      "t": 37900.00000000001,
      "d": 340,
      "v": 121
    },
    {
      "midi": 62,
      "hit": false,
      "t": 38133.333333333314,
      "d": 120,
      "v": 56
    },
    {
      "midi": 68,
      "hit": false,
      "t": 38133.333333333314,
      "d": 133.33333333333576,
      "v": 56
    },
    {
      "midi": 64,
      "hit": false,
      "t": 38133.333333333314,
      "d": 153.33333333333576,
      "v": 54
    },
    {
      "midi": 45,
      "hit": false,
      "t": 38146.66666666665,
      "d": 226.66666666666424,
      "v": 62
    },
    {
      "midi": 76,
      "hit": false,
      "t": 38399.99999999998,
      "d": 700,
      "v": 127
    },
    {
      "midi": 73,
      "hit": false,
      "t": 38399.99999999998,
      "d": 726.6666666666642,
      "v": 127
    },
    {
      "midi": 69,
      "hit": false,
      "t": 38399.99999999998,
      "d": 733.3333333333285,
      "v": 127
    },
    {
      "midi": 69,
      "hit": false,
      "t": 38400.00000000001,
      "d": 1559.9999999999927,
      "v": 120
    },
    {
      "midi": 64,
      "hit": false,
      "t": 38406.66666666667,
      "d": 1493.3333333333285,
      "v": 121
    },
    {
      "midi": 64,
      "hit": false,
      "t": 38413.333333333314,
      "d": 153.33333333332848,
      "v": 56
    },
    {
      "midi": 69,
      "hit": false,
      "t": 38413.333333333314,
      "d": 166.66666666666424,
      "v": 54
    },
    {
      "midi": 61,
      "hit": false,
      "t": 38433.333333333314,
      "d": 126.66666666666424,
      "v": 62
    },
    {
      "midi": 33,
      "hit": false,
      "t": 38433.333333333314,
      "d": 973.3333333333285,
      "v": 62
    },
    {
      "midi": 61,
      "hit": false,
      "t": 38673.333333333314,
      "d": 140,
      "v": 56
    },
    {
      "midi": 64,
      "hit": false,
      "t": 38699.99999999998,
      "d": 120,
      "v": 52
    },
    {
      "midi": 69,
      "hit": false,
      "t": 38699.99999999998,
      "d": 133.33333333333576,
      "v": 46
    },
    {
      "midi": 61,
      "hit": false,
      "t": 38939.99999999998,
      "d": 133.33333333333576,
      "v": 56
    },
    {
      "midi": 64,
      "hit": false,
      "t": 38953.333333333314,
      "d": 126.66666666666424,
      "v": 52
    },
    {
      "midi": 69,
      "hit": false,
      "t": 38953.333333333314,
      "d": 133.33333333332848,
      "v": 46
    },
    {
      "midi": 69,
      "hit": false,
      "t": 39206.66666666664,
      "d": 100,
      "v": 127
    },
    {
      "midi": 76,
      "hit": false,
      "t": 39206.66666666664,
      "d": 120,
      "v": 127
    },
    {
      "midi": 61,
      "hit": false,
      "t": 39213.33333333331,
      "d": 140,
      "v": 62
    },
    {
      "midi": 45,
      "hit": false,
      "t": 39213.33333333331,
      "d": 153.33333333333576,
      "v": 62
    },
    {
      "midi": 64,
      "hit": false,
      "t": 39213.33333333331,
      "d": 153.33333333333576,
      "v": 58
    },
    {
      "midi": 69,
      "hit": false,
      "t": 39213.33333333331,
      "d": 153.33333333333576,
      "v": 56
    },
    {
      "midi": 73,
      "hit": false,
      "t": 39233.33333333331,
      "d": 86.66666666667152,
      "v": 127
    },
    {
      "midi": 35,
      "hit": false,
      "t": 39453.33333333331,
      "d": 173.3333333333212,
      "v": 62
    },
    {
      "midi": 61,
      "hit": false,
      "t": 39473.33333333331,
      "d": 133.33333333332848,
      "v": 58
    },
    {
      "midi": 69,
      "hit": false,
      "t": 39479.99999999997,
      "d": 133.33333333332848,
      "v": 50
    },
    {
      "midi": 64,
      "hit": false,
      "t": 39479.99999999997,
      "d": 139.99999999999272,
      "v": 56
    },
    {
      "midi": 37,
      "hit": false,
      "t": 39706.66666666663,
      "d": 133.33333333332848,
      "v": 62
    },
    {
      "midi": 69,
      "hit": false,
      "t": 39733.33333333329,
      "d": 106.66666666666424,
      "v": 46
    },
    {
      "midi": 64,
      "hit": false,
      "t": 39733.33333333329,
      "d": 120,
      "v": 56
    },
    {
      "midi": 61,
      "hit": false,
      "t": 39733.33333333329,
      "d": 133.33333333333576,
      "v": 60
    },
    {
      "midi": 76,
      "hit": false,
      "t": 39799.99999999998,
      "d": 66.66666666666424,
      "v": 127
    },
    {
      "midi": 69,
      "hit": false,
      "t": 39799.99999999998,
      "d": 73.33333333332848,
      "v": 127
    },
    {
      "midi": 73,
      "hit": false,
      "t": 39799.99999999998,
      "d": 73.33333333332848,
      "v": 127
    },
    {
      "midi": 66,
      "hit": false,
      "t": 39979.99999999996,
      "d": 166.66666666666424,
      "v": 62
    },
    {
      "midi": 69,
      "hit": false,
      "t": 39986.66666666663,
      "d": 140,
      "v": 58
    },
    {
      "midi": 62,
      "hit": false,
      "t": 39999.99999999996,
      "d": 133.33333333332848,
      "v": 62
    },
    {
      "midi": 38,
      "hit": false,
      "t": 39999.99999999996,
      "d": 653.3333333333285,
      "v": 62
    },
    {
      "midi": 74,
      "hit": false,
      "t": 39999.99999999997,
      "d": 560,
      "v": 127
    },
    {
      "midi": 66,
      "hit": false,
      "t": 39999.99999999997,
      "d": 586.6666666666642,
      "v": 127
    },
    {
      "midi": 69,
      "hit": false,
      "t": 39999.99999999997,
      "d": 626.6666666666642,
      "v": 127
    },
    {
      "midi": 62,
      "hit": false,
      "t": 40246.66666666663,
      "d": 133.33333333333576,
      "v": 58
    },
    {
      "midi": 66,
      "hit": false,
      "t": 40246.66666666663,
      "d": 153.33333333333576,
      "v": 62
    },
    {
      "midi": 69,
      "hit": false,
      "t": 40266.66666666663,
      "d": 100,
      "v": 50
    },
    {
      "midi": 66,
      "hit": false,
      "t": 40499.99999999996,
      "d": 166.66666666666424,
      "v": 62
    },
    {
      "midi": 69,
      "hit": false,
      "t": 40506.66666666663,
      "d": 126.66666666666424,
      "v": 48
    },
    {
      "midi": 62,
      "hit": false,
      "t": 40506.66666666663,
      "d": 140,
      "v": 56
    },
    {
      "midi": 38,
      "hit": false,
      "t": 40766.66666666663,
      "d": 173.33333333332848,
      "v": 62
    },
    {
      "midi": 66,
      "hit": false,
      "t": 40773.33333333329,
      "d": 166.66666666666424,
      "v": 62
    },
    {
      "midi": 62,
      "hit": false,
      "t": 40779.999999999956,
      "d": 133.33333333333576,
      "v": 62
    },
    {
      "midi": 69,
      "hit": false,
      "t": 40779.999999999956,
      "d": 140,
      "v": 62
    },
    {
      "midi": 69,
      "hit": false,
      "t": 40779.99999999997,
      "d": 120,
      "v": 127
    },
    {
      "midi": 74,
      "hit": false,
      "t": 40779.99999999997,
      "d": 120,
      "v": 127
    },
    {
      "midi": 66,
      "hit": false,
      "t": 40799.99999999997,
      "d": 100,
      "v": 127
    },
    {
      "midi": 37,
      "hit": false,
      "t": 41013.33333333329,
      "d": 153.33333333333576,
      "v": 62
    },
    {
      "midi": 69,
      "hit": false,
      "t": 41033.33333333329,
      "d": 120,
      "v": 54
    },
    {
      "midi": 62,
      "hit": false,
      "t": 41033.33333333329,
      "d": 133.33333333333576,
      "v": 62
    },
    {
      "midi": 66,
      "hit": false,
      "t": 41033.33333333329,
      "d": 133.33333333333576,
      "v": 62
    },
    {
      "midi": 35,
      "hit": false,
      "t": 41266.66666666663,
      "d": 133.33333333333576,
      "v": 62
    },
    {
      "midi": 62,
      "hit": false,
      "t": 41266.66666666663,
      "d": 153.33333333333576,
      "v": 62
    },
    {
      "midi": 66,
      "hit": false,
      "t": 41266.66666666663,
      "d": 173.33333333333576,
      "v": 62
    },
    {
      "midi": 69,
      "hit": false,
      "t": 41279.99999999996,
      "d": 120,
      "v": 56
    },
    {
      "midi": 74,
      "hit": false,
      "t": 41319.99999999997,
      "d": 139.99999999999272,
      "v": 127
    },
    {
      "midi": 66,
      "hit": false,
      "t": 41346.666666666635,
      "d": 106.66666666666424,
      "v": 127
    },
    {
      "midi": 69,
      "hit": false,
      "t": 41366.666666666635,
      "d": 126.66666666666424,
      "v": 127
    },
    {
      "midi": 33,
      "hit": false,
      "t": 41566.66666666663,
      "d": 173.33333333332848,
      "v": 62
    },
    {
      "midi": 61,
      "hit": false,
      "t": 41566.66666666663,
      "d": 173.33333333332848,
      "v": 62
    },
    {
      "midi": 64,
      "hit": false,
      "t": 41566.66666666663,
      "d": 186.66666666666424,
      "v": 62
    },
    {
      "midi": 69,
      "hit": false,
      "t": 41573.33333333329,
      "d": 166.66666666666424,
      "v": 62
    },
    {
      "midi": 64,
      "hit": false,
      "t": 41606.666666666635,
      "d": 133.33333333332848,
      "v": 127
    },
    {
      "midi": 69,
      "hit": false,
      "t": 41613.3333333333,
      "d": 153.33333333332848,
      "v": 127
    },
    {
      "midi": 73,
      "hit": false,
      "t": 41633.3333333333,
      "d": 106.66666666666424,
      "v": 127
    },
    {
      "midi": 57,
      "hit": false,
      "t": 42400,
      "d": 173.33333333333576,
      "v": 121
    },
    {
      "midi": 57,
      "hit": false,
      "t": 42980,
      "d": 186.66666666666424,
      "v": 121
    },
    {
      "midi": 61,
      "hit": false,
      "t": 43213.33333333329,
      "d": 1520,
      "v": 62
    },
    {
      "midi": 37,
      "hit": false,
      "t": 43219.999999999956,
      "d": 1466.6666666666715,
      "v": 62
    },
    {
      "midi": 65,
      "hit": false,
      "t": 43219.999999999956,
      "d": 1466.6666666666715,
      "v": 60
    },
    {
      "midi": 69,
      "hit": false,
      "t": 43233.33333333329,
      "d": 1460,
      "v": 60
    },
    {
      "midi": 61,
      "hit": false,
      "t": 43246.666666666664,
      "d": 173.33333333333576,
      "v": 121
    },
    {
      "midi": 61,
      "hit": false,
      "t": 43786.666666666664,
      "d": 193.33333333333576,
      "v": 121
    },
    {
      "midi": 64,
      "hit": false,
      "t": 44086.666666666664,
      "d": 173.33333333333576,
      "v": 121
    },
    {
      "midi": 64,
      "hit": false,
      "t": 44573.333333333336,
      "d": 166.66666666666424,
      "v": 120
    },
    {
      "midi": 74,
      "hit": false,
      "t": 44786.66666666663,
      "d": 640,
      "v": 127
    },
    {
      "midi": 69,
      "hit": false,
      "t": 44786.66666666663,
      "d": 686.6666666666642,
      "v": 127
    },
    {
      "midi": 66,
      "hit": false,
      "t": 44799.99999999996,
      "d": 666.6666666666642,
      "v": 127
    },
    {
      "midi": 69,
      "hit": false,
      "t": 44806.666666666664,
      "d": 500.0000000000073,
      "v": 115
    },
    {
      "midi": 69,
      "hit": false,
      "t": 44819.999999999956,
      "d": 133.33333333333576,
      "v": 62
    },
    {
      "midi": 66,
      "hit": false,
      "t": 44819.999999999956,
      "d": 160.00000000000728,
      "v": 62
    },
    {
      "midi": 38,
      "hit": false,
      "t": 44819.999999999956,
      "d": 1220.000000000029,
      "v": 62
    },
    {
      "midi": 62,
      "hit": false,
      "t": 44820,
      "d": 2193.333333333343,
      "v": 113
    },
    {
      "midi": 62,
      "hit": false,
      "t": 44839.999999999956,
      "d": 126.66666666667152,
      "v": 62
    },
    {
      "midi": 62,
      "hit": false,
      "t": 45073.3333333333,
      "d": 120.00000000000728,
      "v": 54
    },
    {
      "midi": 66,
      "hit": false,
      "t": 45073.3333333333,
      "d": 126.66666666667152,
      "v": 58
    },
    {
      "midi": 69,
      "hit": false,
      "t": 45086.666666666635,
      "d": 93.33333333333576,
      "v": 48
    },
    {
      "midi": 57,
      "hit": false,
      "t": 45273.333333333336,
      "d": 1686.6666666666715,
      "v": 112
    },
    {
      "midi": 66,
      "hit": false,
      "t": 45273.333333333336,
      "d": 1706.6666666666715,
      "v": 121
    },
    {
      "midi": 62,
      "hit": false,
      "t": 45319.99999999997,
      "d": 126.66666666667152,
      "v": 52
    },
    {
      "midi": 66,
      "hit": false,
      "t": 45319.99999999997,
      "d": 126.66666666667152,
      "v": 58
    },
    {
      "midi": 69,
      "hit": false,
      "t": 45333.33333333331,
      "d": 100,
      "v": 50
    },
    {
      "midi": 69,
      "hit": false,
      "t": 45539.999999999956,
      "d": 93.33333333333576,
      "v": 127
    },
    {
      "midi": 74,
      "hit": false,
      "t": 45539.999999999956,
      "d": 93.33333333333576,
      "v": 127
    },
    {
      "midi": 66,
      "hit": false,
      "t": 45553.33333333329,
      "d": 73.33333333333576,
      "v": 127
    },
    {
      "midi": 62,
      "hit": false,
      "t": 45586.66666666664,
      "d": 133.33333333334303,
      "v": 56
    },
    {
      "midi": 66,
      "hit": false,
      "t": 45586.66666666664,
      "d": 140.00000000000728,
      "v": 56
    },
    {
      "midi": 69,
      "hit": false,
      "t": 45599.99999999998,
      "d": 106.66666666667152,
      "v": 56
    },
    {
      "midi": 50,
      "hit": false,
      "t": 45633.333333333314,
      "d": 106.66666666667152,
      "v": 62
    },
    {
      "midi": 62,
      "hit": false,
      "t": 45846.66666666665,
      "d": 120,
      "v": 50
    },
    {
      "midi": 66,
      "hit": false,
      "t": 45846.66666666665,
      "d": 120,
      "v": 54
    },
    {
      "midi": 69,
      "hit": false,
      "t": 45866.66666666665,
      "d": 73.33333333333576,
      "v": 50
    },
    {
      "midi": 66,
      "hit": false,
      "t": 46106.66666666663,
      "d": 126.66666666666424,
      "v": 127
    },
    {
      "midi": 66,
      "hit": false,
      "t": 46113.33333333332,
      "d": 126.66666666666424,
      "v": 56
    },
    {
      "midi": 62,
      "hit": false,
      "t": 46113.33333333332,
      "d": 133.33333333332848,
      "v": 50
    },
    {
      "midi": 69,
      "hit": false,
      "t": 46133.33333333332,
      "d": 86.66666666666424,
      "v": 48
    },
    {
      "midi": 42,
      "hit": false,
      "t": 46133.33333333332,
      "d": 233.33333333332848,
      "v": 62
    },
    {
      "midi": 66,
      "hit": false,
      "t": 46319.999999999956,
      "d": 773.3333333333358,
      "v": 127
    },
    {
      "midi": 69,
      "hit": false,
      "t": 46366.66666666662,
      "d": 753.3333333333358,
      "v": 127
    },
    {
      "midi": 62,
      "hit": false,
      "t": 46366.66666666665,
      "d": 133.33333333332848,
      "v": 52
    },
    {
      "midi": 66,
      "hit": false,
      "t": 46366.66666666665,
      "d": 133.33333333332848,
      "v": 54
    },
    {
      "midi": 74,
      "hit": false,
      "t": 46379.999999999956,
      "d": 620,
      "v": 127
    },
    {
      "midi": 69,
      "hit": false,
      "t": 46399.999999999985,
      "d": 73.33333333332848,
      "v": 48
    },
    {
      "midi": 45,
      "hit": false,
      "t": 46406.66666666665,
      "d": 719.9999999999927,
      "v": 62
    },
    {
      "midi": 66,
      "hit": false,
      "t": 46633.333333333314,
      "d": 100,
      "v": 56
    },
    {
      "midi": 62,
      "hit": false,
      "t": 46633.333333333314,
      "d": 106.66666666666424,
      "v": 50
    },
    {
      "midi": 69,
      "hit": false,
      "t": 46653.333333333314,
      "d": 53.33333333333576,
      "v": 44
    },
    {
      "midi": 62,
      "hit": false,
      "t": 46886.66666666664,
      "d": 140,
      "v": 50
    },
    {
      "midi": 66,
      "hit": false,
      "t": 46899.99999999998,
      "d": 126.66666666666424,
      "v": 56
    },
    {
      "midi": 69,
      "hit": false,
      "t": 46906.66666666664,
      "d": 100,
      "v": 44
    },
    {
      "midi": 62,
      "hit": false,
      "t": 47153.33333333331,
      "d": 140,
      "v": 54
    },
    {
      "midi": 66,
      "hit": false,
      "t": 47166.66666666664,
      "d": 133.33333333332848,
      "v": 58
    },
    {
      "midi": 69,
      "hit": false,
      "t": 47173.33333333331,
      "d": 93.33333333333576,
      "v": 50
    },
    {
      "midi": 42,
      "hit": false,
      "t": 47173.33333333331,
      "d": 240,
      "v": 62
    },
    {
      "midi": 66,
      "hit": false,
      "t": 47199.999999999956,
      "d": 100,
      "v": 127
    },
    {
      "midi": 69,
      "hit": false,
      "t": 47199.999999999956,
      "d": 100,
      "v": 127
    },
    {
      "midi": 74,
      "hit": false,
      "t": 47199.999999999956,
      "d": 100,
      "v": 127
    },
    {
      "midi": 66,
      "hit": false,
      "t": 47419.99999999997,
      "d": 100,
      "v": 54
    },
    {
      "midi": 62,
      "hit": false,
      "t": 47419.99999999997,
      "d": 106.66666666666424,
      "v": 50
    },
    {
      "midi": 62,
      "hit": false,
      "t": 47673.3333333333,
      "d": 133.33333333332848,
      "v": 52
    },
    {
      "midi": 66,
      "hit": false,
      "t": 47679.99999999996,
      "d": 120,
      "v": 54
    },
    {
      "midi": 45,
      "hit": false,
      "t": 47679.99999999996,
      "d": 166.66666666666424,
      "v": 62
    },
    {
      "midi": 66,
      "hit": false,
      "t": 47699.999999999956,
      "d": 66.66666666666424,
      "v": 127
    },
    {
      "midi": 69,
      "hit": false,
      "t": 47699.99999999996,
      "d": 73.33333333333576,
      "v": 46
    },
    {
      "midi": 62,
      "hit": false,
      "t": 47939.99999999996,
      "d": 159.99999999999272,
      "v": 52
    },
    {
      "midi": 66,
      "hit": false,
      "t": 47946.66666666663,
      "d": 153.33333333332848,
      "v": 56
    },
    {
      "midi": 66,
      "hit": false,
      "t": 47966.66666666662,
      "d": 686.6666666666642,
      "v": 127
    },
    {
      "midi": 74,
      "hit": false,
      "t": 47966.66666666662,
      "d": 686.6666666666642,
      "v": 127
    },
    {
      "midi": 69,
      "hit": false,
      "t": 47966.66666666662,
      "d": 706.6666666666642,
      "v": 127
    },
    {
      "midi": 69,
      "hit": false,
      "t": 47966.66666666663,
      "d": 126.66666666666424,
      "v": 50
    },
    {
      "midi": 38,
      "hit": false,
      "t": 47973.33333333329,
      "d": 1253.3333333333212,
      "v": 62
    },
    {
      "midi": 62,
      "hit": false,
      "t": 48219.999999999956,
      "d": 106.66666666666424,
      "v": 52
    },
    {
      "midi": 66,
      "hit": false,
      "t": 48233.33333333329,
      "d": 99.99999999999272,
      "v": 58
    },
    {
      "midi": 69,
      "hit": false,
      "t": 48239.999999999956,
      "d": 66.66666666666424,
      "v": 46
    },
    {
      "midi": 62,
      "hit": false,
      "t": 48479.99999999995,
      "d": 120,
      "v": 50
    },
    {
      "midi": 66,
      "hit": false,
      "t": 48479.99999999995,
      "d": 120,
      "v": 56
    },
    {
      "midi": 69,
      "hit": false,
      "t": 48506.66666666661,
      "d": 60,
      "v": 48
    },
    {
      "midi": 62,
      "hit": false,
      "t": 48739.99999999995,
      "d": 139.99999999999272,
      "v": 56
    },
    {
      "midi": 50,
      "hit": false,
      "t": 48746.66666666661,
      "d": 86.66666666666424,
      "v": 62
    },
    {
      "midi": 66,
      "hit": false,
      "t": 48746.66666666661,
      "d": 133.33333333332848,
      "v": 58
    },
    {
      "midi": 69,
      "hit": false,
      "t": 48766.66666666661,
      "d": 106.66666666666424,
      "v": 54
    },
    {
      "midi": 66,
      "hit": false,
      "t": 48766.66666666662,
      "d": 93.33333333333576,
      "v": 127
    },
    {
      "midi": 69,
      "hit": false,
      "t": 48766.66666666662,
      "d": 100,
      "v": 127
    },
    {
      "midi": 74,
      "hit": false,
      "t": 48766.66666666662,
      "d": 100,
      "v": 127
    },
    {
      "midi": 66,
      "hit": false,
      "t": 48780.00000000001,
      "d": 626.6666666666642,
      "v": 121
    },
    {
      "midi": 69,
      "hit": false,
      "t": 48800.00000000001,
      "d": 566.6666666666642,
      "v": 121
    },
    {
      "midi": 62,
      "hit": false,
      "t": 49013.33333333328,
      "d": 106.66666666666424,
      "v": 50
    },
    {
      "midi": 66,
      "hit": false,
      "t": 49013.33333333328,
      "d": 120,
      "v": 56
    },
    {
      "midi": 69,
      "hit": false,
      "t": 49033.33333333328,
      "d": 86.66666666666424,
      "v": 48
    },
    {
      "midi": 66,
      "hit": false,
      "t": 49286.66666666662,
      "d": 93.33333333333576,
      "v": 127
    },
    {
      "midi": 62,
      "hit": false,
      "t": 49299.99999999995,
      "d": 120,
      "v": 56
    },
    {
      "midi": 66,
      "hit": false,
      "t": 49299.99999999995,
      "d": 126.66666666666424,
      "v": 58
    },
    {
      "midi": 69,
      "hit": false,
      "t": 49313.333333333285,
      "d": 86.66666666666424,
      "v": 50
    },
    {
      "midi": 42,
      "hit": false,
      "t": 49333.333333333285,
      "d": 199.99999999999272,
      "v": 62
    },
    {
      "midi": 66,
      "hit": false,
      "t": 49533.33333333329,
      "d": 706.6666666666642,
      "v": 127
    },
    {
      "midi": 69,
      "hit": false,
      "t": 49540.00000000001,
      "d": 360,
      "v": 121
    },
    {
      "midi": 74,
      "hit": false,
      "t": 49553.33333333329,
      "d": 666.6666666666642,
      "v": 127
    },
    {
      "midi": 69,
      "hit": false,
      "t": 49553.33333333329,
      "d": 706.6666666666642,
      "v": 127
    },
    {
      "midi": 62,
      "hit": false,
      "t": 49553.33333333334,
      "d": 366.66666666666424,
      "v": 121
    },
    {
      "midi": 62,
      "hit": false,
      "t": 49573.33333333328,
      "d": 133.33333333332848,
      "v": 54
    },
    {
      "midi": 66,
      "hit": false,
      "t": 49573.33333333328,
      "d": 133.33333333332848,
      "v": 56
    },
    {
      "midi": 69,
      "hit": false,
      "t": 49599.99999999994,
      "d": 100,
      "v": 52
    },
    {
      "midi": 45,
      "hit": false,
      "t": 49606.666666666606,
      "d": 760.0000000000073,
      "v": 62
    },
    {
      "midi": 66,
      "hit": false,
      "t": 49846.666666666606,
      "d": 93.33333333333576,
      "v": 52
    },
    {
      "midi": 62,
      "hit": false,
      "t": 49846.666666666606,
      "d": 106.66666666667152,
      "v": 52
    },
    {
      "midi": 69,
      "hit": false,
      "t": 49866.666666666606,
      "d": 60,
      "v": 44
    },
    {
      "midi": 69,
      "hit": false,
      "t": 50100.00000000001,
      "d": 360,
      "v": 106
    },
    {
      "midi": 62,
      "hit": false,
      "t": 50113.33333333328,
      "d": 120,
      "v": 56
    },
    {
      "midi": 66,
      "hit": false,
      "t": 50113.33333333328,
      "d": 120,
      "v": 56
    },
    {
      "midi": 57,
      "hit": false,
      "t": 50113.33333333334,
      "d": 366.66666666666424,
      "v": 121
    },
    {
      "midi": 69,
      "hit": false,
      "t": 50133.33333333328,
      "d": 86.66666666666424,
      "v": 52
    },
    {
      "midi": 66,
      "hit": false,
      "t": 50333.33333333329,
      "d": 100,
      "v": 127
    },
    {
      "midi": 74,
      "hit": false,
      "t": 50333.33333333329,
      "d": 106.66666666666424,
      "v": 127
    },
    {
      "midi": 69,
      "hit": false,
      "t": 50333.33333333329,
      "d": 120,
      "v": 127
    },
    {
      "midi": 62,
      "hit": false,
      "t": 50379.99999999995,
      "d": 133.33333333333576,
      "v": 58
    },
    {
      "midi": 66,
      "hit": false,
      "t": 50379.99999999995,
      "d": 140,
      "v": 60
    },
    {
      "midi": 69,
      "hit": false,
      "t": 50399.99999999995,
      "d": 100,
      "v": 54
    },
    {
      "midi": 42,
      "hit": false,
      "t": 50399.99999999995,
      "d": 500,
      "v": 62
    },
    {
      "midi": 62,
      "hit": false,
      "t": 50639.99999999995,
      "d": 126.66666666666424,
      "v": 54
    },
    {
      "midi": 66,
      "hit": false,
      "t": 50639.99999999995,
      "d": 126.66666666666424,
      "v": 56
    },
    {
      "midi": 69,
      "hit": false,
      "t": 50666.66666666661,
      "d": 66.66666666666424,
      "v": 50
    },
    {
      "midi": 69,
      "hit": false,
      "t": 50713.33333333334,
      "d": 300,
      "v": 120
    },
    {
      "midi": 66,
      "hit": false,
      "t": 50713.33333333334,
      "d": 386.66666666666424,
      "v": 100
    },
    {
      "midi": 66,
      "hit": false,
      "t": 50866.66666666663,
      "d": 120,
      "v": 127
    },
    {
      "midi": 66,
      "hit": false,
      "t": 50899.99999999995,
      "d": 160,
      "v": 56
    },
    {
      "midi": 62,
      "hit": false,
      "t": 50913.333333333285,
      "d": 120,
      "v": 54
    },
    {
      "midi": 69,
      "hit": false,
      "t": 50919.99999999995,
      "d": 93.33333333333576,
      "v": 52
    },
    {
      "midi": 45,
      "hit": false,
      "t": 50933.333333333285,
      "d": 220,
      "v": 62
    },
    {
      "midi": 64,
      "hit": false,
      "t": 51139.99999999996,
      "d": 726.6666666666642,
      "v": 127
    },
    {
      "midi": 73,
      "hit": false,
      "t": 51166.66666666663,
      "d": 720,
      "v": 127
    },
    {
      "midi": 69,
      "hit": false,
      "t": 51166.66666666663,
      "d": 733.3333333333358,
      "v": 127
    },
    {
      "midi": 61,
      "hit": false,
      "t": 51199.99999999995,
      "d": 126.66666666666424,
      "v": 62
    },
    {
      "midi": 69,
      "hit": false,
      "t": 51199.99999999995,
      "d": 126.66666666666424,
      "v": 52
    },
    {
      "midi": 64,
      "hit": false,
      "t": 51199.99999999995,
      "d": 133.33333333332848,
      "v": 56
    },
    {
      "midi": 33,
      "hit": false,
      "t": 51199.99999999995,
      "d": 1173.3333333333212,
      "v": 62
    },
    {
      "midi": 64,
      "hit": false,
      "t": 51246.66666666668,
      "d": 3186.6666666666642,
      "v": 96
    },
    {
      "midi": 69,
      "hit": false,
      "t": 51246.66666666668,
      "d": 3186.6666666666642,
      "v": 113
    },
    {
      "midi": 61,
      "hit": false,
      "t": 51453.33333333328,
      "d": 119.99999999999272,
      "v": 56
    },
    {
      "midi": 64,
      "hit": false,
      "t": 51453.33333333328,
      "d": 133.33333333332848,
      "v": 46
    },
    {
      "midi": 69,
      "hit": false,
      "t": 51479.99999999994,
      "d": 86.66666666666424,
      "v": 38
    },
    {
      "midi": 61,
      "hit": false,
      "t": 51719.99999999994,
      "d": 106.66666666666424,
      "v": 56
    },
    {
      "midi": 64,
      "hit": false,
      "t": 51719.99999999994,
      "d": 126.66666666666424,
      "v": 52
    },
    {
      "midi": 69,
      "hit": false,
      "t": 51739.99999999994,
      "d": 93.33333333332848,
      "v": 42
    },
    {
      "midi": 64,
      "hit": false,
      "t": 51966.66666666663,
      "d": 106.66666666667152,
      "v": 127
    },
    {
      "midi": 69,
      "hit": false,
      "t": 51973.33333333329,
      "d": 106.66666666667152,
      "v": 127
    },
    {
      "midi": 61,
      "hit": false,
      "t": 51979.99999999994,
      "d": 133.33333333332848,
      "v": 56
    },
    {
      "midi": 64,
      "hit": false,
      "t": 51979.99999999994,
      "d": 139.99999999999272,
      "v": 54
    },
    {
      "midi": 73,
      "hit": false,
      "t": 51986.66666666663,
      "d": 73.33333333333576,
      "v": 127
    },
    {
      "midi": 45,
      "hit": false,
      "t": 51999.99999999994,
      "d": 86.66666666666424,
      "v": 62
    },
    {
      "midi": 69,
      "hit": false,
      "t": 51999.99999999994,
      "d": 133.33333333332848,
      "v": 50
    },
    {
      "midi": 61,
      "hit": false,
      "t": 52253.33333333327,
      "d": 106.66666666667152,
      "v": 54
    },
    {
      "midi": 64,
      "hit": false,
      "t": 52253.33333333327,
      "d": 106.66666666667152,
      "v": 48
    },
    {
      "midi": 69,
      "hit": false,
      "t": 52266.666666666606,
      "d": 100,
      "v": 40
    },
    {
      "midi": 37,
      "hit": false,
      "t": 52499.999999999935,
      "d": 226.66666666666424,
      "v": 62
    },
    {
      "midi": 61,
      "hit": false,
      "t": 52506.6666666666,
      "d": 140,
      "v": 56
    },
    {
      "midi": 64,
      "hit": false,
      "t": 52513.33333333326,
      "d": 133.33333333333576,
      "v": 52
    },
    {
      "midi": 64,
      "hit": false,
      "t": 52513.3333333333,
      "d": 166.66666666666424,
      "v": 127
    },
    {
      "midi": 69,
      "hit": false,
      "t": 52533.33333333326,
      "d": 120,
      "v": 44
    },
    {
      "midi": 61,
      "hit": false,
      "t": 52786.6666666666,
      "d": 126.66666666667152,
      "v": 58
    },
    {
      "midi": 40,
      "hit": false,
      "t": 52786.6666666666,
      "d": 720.0000000000146,
      "v": 62
    },
    {
      "midi": 64,
      "hit": false,
      "t": 52799.999999999935,
      "d": 133.33333333333576,
      "v": 54
    },
    {
      "midi": 69,
      "hit": false,
      "t": 52799.999999999935,
      "d": 133.33333333333576,
      "v": 46
    },
    {
      "midi": 76,
      "hit": false,
      "t": 52833.3333333333,
      "d": 600,
      "v": 127
    },
    {
      "midi": 73,
      "hit": false,
      "t": 52833.3333333333,
      "d": 660,
      "v": 127
    },
    {
      "midi": 64,
      "hit": false,
      "t": 52839.99999999996,
      "d": 573.3333333333358,
      "v": 127
    },
    {
      "midi": 69,
      "hit": false,
      "t": 52839.99999999996,
      "d": 653.3333333333358,
      "v": 127
    },
    {
      "midi": 61,
      "hit": false,
      "t": 53066.666666666606,
      "d": 106.66666666667152,
      "v": 56
    },
    {
      "midi": 64,
      "hit": false,
      "t": 53066.666666666606,
      "d": 126.66666666667152,
      "v": 52
    },
    {
      "midi": 69,
      "hit": false,
      "t": 53079.99999999994,
      "d": 93.33333333333576,
      "v": 38
    },
    {
      "midi": 61,
      "hit": false,
      "t": 53319.99999999994,
      "d": 106.66666666667152,
      "v": 52
    },
    {
      "midi": 69,
      "hit": false,
      "t": 53333.33333333328,
      "d": 120,
      "v": 44
    },
    {
      "midi": 64,
      "hit": false,
      "t": 53333.33333333328,
      "d": 133.33333333333576,
      "v": 50
    },
    {
      "midi": 64,
      "hit": false,
      "t": 53586.66666666661,
      "d": 140,
      "v": 54
    },
    {
      "midi": 61,
      "hit": false,
      "t": 53599.99999999995,
      "d": 120,
      "v": 56
    },
    {
      "midi": 69,
      "hit": false,
      "t": 53599.99999999995,
      "d": 126.66666666666424,
      "v": 42
    },
    {
      "midi": 37,
      "hit": false,
      "t": 53599.99999999995,
      "d": 200,
      "v": 62
    },
    {
      "midi": 69,
      "hit": false,
      "t": 53613.3333333333,
      "d": 100,
      "v": 127
    },
    {
      "midi": 73,
      "hit": false,
      "t": 53619.99999999996,
      "d": 73.33333333333576,
      "v": 127
    },
    {
      "midi": 76,
      "hit": false,
      "t": 53619.99999999996,
      "d": 73.33333333333576,
      "v": 127
    },
    {
      "midi": 64,
      "hit": false,
      "t": 53633.3333333333,
      "d": 73.33333333333576,
      "v": 127
    },
    {
      "midi": 61,
      "hit": false,
      "t": 53866.66666666661,
      "d": 93.33333333332848,
      "v": 52
    },
    {
      "midi": 64,
      "hit": false,
      "t": 53873.33333333328,
      "d": 93.33333333332848,
      "v": 48
    },
    {
      "midi": 69,
      "hit": false,
      "t": 53879.99999999994,
      "d": 53.33333333333576,
      "v": 38
    },
    {
      "midi": 64,
      "hit": false,
      "t": 54119.99999999994,
      "d": 140,
      "v": 50
    },
    {
      "midi": 61,
      "hit": false,
      "t": 54133.33333333328,
      "d": 126.66666666666424,
      "v": 58
    },
    {
      "midi": 69,
      "hit": false,
      "t": 54133.33333333328,
      "d": 126.66666666666424,
      "v": 46
    },
    {
      "midi": 40,
      "hit": false,
      "t": 54133.33333333328,
      "d": 166.66666666666424,
      "v": 62
    },
    {
      "midi": 64,
      "hit": false,
      "t": 54166.666666666635,
      "d": 33.33333333333576,
      "v": 127
    },
    {
      "midi": 61,
      "hit": false,
      "t": 54399.99999999994,
      "d": 133.33333333333576,
      "v": 58
    },
    {
      "midi": 64,
      "hit": false,
      "t": 54399.99999999994,
      "d": 133.33333333333576,
      "v": 56
    },
    {
      "midi": 69,
      "hit": false,
      "t": 54399.99999999994,
      "d": 133.33333333333576,
      "v": 48
    },
    {
      "midi": 33,
      "hit": false,
      "t": 54419.99999999994,
      "d": 1273.3333333333285,
      "v": 62
    },
    {
      "midi": 76,
      "hit": false,
      "t": 54433.33333333331,
      "d": 600,
      "v": 127
    },
    {
      "midi": 64,
      "hit": false,
      "t": 54433.33333333331,
      "d": 606.6666666666642,
      "v": 127
    },
    {
      "midi": 69,
      "hit": false,
      "t": 54433.33333333331,
      "d": 686.6666666666642,
      "v": 127
    },
    {
      "midi": 73,
      "hit": false,
      "t": 54446.66666666664,
      "d": 686.6666666666642,
      "v": 127
    },
    {
      "midi": 61,
      "hit": false,
      "t": 54666.66666666661,
      "d": 120,
      "v": 54
    },
    {
      "midi": 64,
      "hit": false,
      "t": 54666.66666666661,
      "d": 133.33333333333576,
      "v": 50
    },
    {
      "midi": 69,
      "hit": false,
      "t": 54679.99999999995,
      "d": 120,
      "v": 42
    },
    {
      "midi": 61,
      "hit": false,
      "t": 54919.99999999995,
      "d": 120,
      "v": 56
    },
    {
      "midi": 64,
      "hit": false,
      "t": 54919.99999999995,
      "d": 126.66666666666424,
      "v": 52
    },
    {
      "midi": 69,
      "hit": false,
      "t": 54919.99999999995,
      "d": 133.33333333332848,
      "v": 44
    },
    {
      "midi": 45,
      "hit": false,
      "t": 55173.33333333328,
      "d": 126.66666666666424,
      "v": 62
    },
    {
      "midi": 61,
      "hit": false,
      "t": 55179.99999999994,
      "d": 126.66666666666424,
      "v": 58
    },
    {
      "midi": 76,
      "hit": false,
      "t": 55179.99999999997,
      "d": 93.33333333332848,
      "v": 127
    },
    {
      "midi": 64,
      "hit": false,
      "t": 55186.666666666606,
      "d": 140,
      "v": 54
    },
    {
      "midi": 69,
      "hit": false,
      "t": 55186.666666666606,
      "d": 140,
      "v": 48
    },
    {
      "midi": 73,
      "hit": false,
      "t": 55186.666666666635,
      "d": 93.33333333332848,
      "v": 127
    },
    {
      "midi": 69,
      "hit": false,
      "t": 55186.666666666635,
      "d": 99.99999999999272,
      "v": 127
    },
    {
      "midi": 64,
      "hit": false,
      "t": 55206.666666666635,
      "d": 60,
      "v": 127
    },
    {
      "midi": 69,
      "hit": false,
      "t": 55233.33333333334,
      "d": 293.3333333333285,
      "v": 121
    },
    {
      "midi": 66,
      "hit": false,
      "t": 55233.33333333334,
      "d": 299.9999999999927,
      "v": 121
    },
    {
      "midi": 69,
      "hit": false,
      "t": 55453.33333333327,
      "d": 140,
      "v": 42
    },
    {
      "midi": 61,
      "hit": false,
      "t": 55466.666666666606,
      "d": 106.66666666666424,
      "v": 58
    },
    {
      "midi": 64,
      "hit": false,
      "t": 55466.666666666606,
      "d": 133.33333333332848,
      "v": 52
    },
    {
      "midi": 61,
      "hit": false,
      "t": 55706.666666666606,
      "d": 126.66666666666424,
      "v": 60
    },
    {
      "midi": 69,
      "hit": false,
      "t": 55706.666666666606,
      "d": 126.66666666666424,
      "v": 44
    },
    {
      "midi": 64,
      "hit": false,
      "t": 55706.666666666606,
      "d": 153.33333333332848,
      "v": 54
    },
    {
      "midi": 64,
      "hit": false,
      "t": 55706.66666666663,
      "d": 86.66666666666424,
      "v": 127
    },
    {
      "midi": 37,
      "hit": false,
      "t": 55733.33333333327,
      "d": 193.33333333332848,
      "v": 62
    },
    {
      "midi": 69,
      "hit": false,
      "t": 55733.333333333336,
      "d": 140,
      "v": 112
    },
    {
      "midi": 64,
      "hit": false,
      "t": 55740,
      "d": 166.66666666667152,
      "v": 116
    },
    {
      "midi": 61,
      "hit": false,
      "t": 55979.999999999935,
      "d": 133.33333333332848,
      "v": 58
    },
    {
      "midi": 64,
      "hit": false,
      "t": 55979.999999999935,
      "d": 153.33333333332848,
      "v": 56
    },
    {
      "midi": 69,
      "hit": false,
      "t": 55979.999999999935,
      "d": 153.33333333332848,
      "v": 46
    },
    {
      "midi": 64,
      "hit": false,
      "t": 55979.999999999956,
      "d": 706.6666666666642,
      "v": 127
    },
    {
      "midi": 40,
      "hit": false,
      "t": 56006.6666666666,
      "d": 759.9999999999927,
      "v": 62
    },
    {
      "midi": 76,
      "hit": false,
      "t": 56006.66666666662,
      "d": 673.3333333333358,
      "v": 127
    },
    {
      "midi": 69,
      "hit": false,
      "t": 56006.66666666662,
      "d": 693.3333333333358,
      "v": 127
    },
    {
      "midi": 73,
      "hit": false,
      "t": 56006.66666666662,
      "d": 720,
      "v": 127
    },
    {
      "midi": 69,
      "hit": false,
      "t": 56040.00000000001,
      "d": 333.33333333333576,
      "v": 121
    },
    {
      "midi": 66,
      "hit": false,
      "t": 56040.00000000001,
      "d": 386.6666666666715,
      "v": 121
    },
    {
      "midi": 61,
      "hit": false,
      "t": 56266.6666666666,
      "d": 99.99999999999272,
      "v": 52
    },
    {
      "midi": 64,
      "hit": false,
      "t": 56266.6666666666,
      "d": 106.66666666665697,
      "v": 48
    },
    {
      "midi": 69,
      "hit": false,
      "t": 56273.33333333326,
      "d": 66.66666666666424,
      "v": 34
    },
    {
      "midi": 69,
      "hit": false,
      "t": 56506.66666666659,
      "d": 120,
      "v": 44
    },
    {
      "midi": 61,
      "hit": false,
      "t": 56506.66666666659,
      "d": 133.33333333333576,
      "v": 58
    },
    {
      "midi": 64,
      "hit": false,
      "t": 56506.66666666659,
      "d": 140,
      "v": 56
    },
    {
      "midi": 69,
      "hit": false,
      "t": 56540.000000000015,
      "d": 160,
      "v": 116
    },
    {
      "midi": 64,
      "hit": false,
      "t": 56540.000000000015,
      "d": 186.66666666666424,
      "v": 118
    },
    {
      "midi": 61,
      "hit": false,
      "t": 56773.333333333256,
      "d": 133.33333333333576,
      "v": 58
    },
    {
      "midi": 64,
      "hit": false,
      "t": 56773.333333333256,
      "d": 153.33333333333576,
      "v": 54
    },
    {
      "midi": 69,
      "hit": false,
      "t": 56786.66666666659,
      "d": 126.66666666666424,
      "v": 48
    },
    {
      "midi": 76,
      "hit": false,
      "t": 56786.66666666662,
      "d": 106.66666666666424,
      "v": 127
    },
    {
      "midi": 73,
      "hit": false,
      "t": 56799.999999999956,
      "d": 99.99999999999272,
      "v": 127
    },
    {
      "midi": 37,
      "hit": false,
      "t": 56806.66666666659,
      "d": 566.6666666666642,
      "v": 62
    },
    {
      "midi": 64,
      "hit": false,
      "t": 56806.66666666662,
      "d": 93.33333333332848,
      "v": 127
    },
    {
      "midi": 69,
      "hit": false,
      "t": 56806.66666666662,
      "d": 93.33333333332848,
      "v": 127
    },
    {
      "midi": 61,
      "hit": false,
      "t": 56833.33333333334,
      "d": 633.3333333333358,
      "v": 121
    },
    {
      "midi": 69,
      "hit": false,
      "t": 56846.66666666668,
      "d": 600,
      "v": 121
    },
    {
      "midi": 61,
      "hit": false,
      "t": 57046.66666666659,
      "d": 126.66666666666424,
      "v": 56
    },
    {
      "midi": 64,
      "hit": false,
      "t": 57046.66666666659,
      "d": 140,
      "v": 52
    },
    {
      "midi": 69,
      "hit": false,
      "t": 57066.66666666659,
      "d": 86.66666666666424,
      "v": 48
    },
    {
      "midi": 64,
      "hit": false,
      "t": 57286.66666666661,
      "d": 140,
      "v": 127
    },
    {
      "midi": 61,
      "hit": false,
      "t": 57313.333333333256,
      "d": 120,
      "v": 58
    },
    {
      "midi": 64,
      "hit": false,
      "t": 57313.333333333256,
      "d": 133.33333333332848,
      "v": 52
    },
    {
      "midi": 69,
      "hit": false,
      "t": 57319.99999999992,
      "d": 100,
      "v": 52
    },
    {
      "midi": 40,
      "hit": false,
      "t": 57333.333333333256,
      "d": 106.66666666666424,
      "v": 62
    },
    {
      "midi": 64,
      "hit": false,
      "t": 57579.99999999992,
      "d": 166.66666666666424,
      "v": 58
    },
    {
      "midi": 76,
      "hit": false,
      "t": 57579.99999999995,
      "d": 626.6666666666715,
      "v": 127
    },
    {
      "midi": 68,
      "hit": false,
      "t": 57579.99999999995,
      "d": 720.0000000000073,
      "v": 127
    },
    {
      "midi": 68,
      "hit": false,
      "t": 57599.99999999992,
      "d": 106.66666666666424,
      "v": 62
    },
    {
      "midi": 62,
      "hit": false,
      "t": 57599.99999999992,
      "d": 133.33333333332848,
      "v": 56
    },
    {
      "midi": 40,
      "hit": false,
      "t": 57599.99999999992,
      "d": 1186.666666666657,
      "v": 62
    },
    {
      "midi": 71,
      "hit": false,
      "t": 57613.333333333285,
      "d": 700.0000000000073,
      "v": 127
    },
    {
      "midi": 68,
      "hit": false,
      "t": 57620.00000000001,
      "d": 3240,
      "v": 121
    },
    {
      "midi": 59,
      "hit": false,
      "t": 57620.00000000001,
      "d": 3253.3333333333358,
      "v": 110
    },
    {
      "midi": 62,
      "hit": false,
      "t": 57899.99999999992,
      "d": 100,
      "v": 52
    },
    {
      "midi": 64,
      "hit": false,
      "t": 57899.99999999992,
      "d": 106.66666666666424,
      "v": 50
    },
    {
      "midi": 68,
      "hit": false,
      "t": 57913.333333333256,
      "d": 86.66666666666424,
      "v": 54
    },
    {
      "midi": 62,
      "hit": false,
      "t": 58139.99999999992,
      "d": 126.66666666666424,
      "v": 52
    },
    {
      "midi": 64,
      "hit": false,
      "t": 58139.99999999992,
      "d": 133.33333333332848,
      "v": 52
    },
    {
      "midi": 68,
      "hit": false,
      "t": 58139.99999999992,
      "d": 133.33333333332848,
      "v": 54
    },
    {
      "midi": 76,
      "hit": false,
      "t": 58366.66666666663,
      "d": 133.33333333332848,
      "v": 127
    },
    {
      "midi": 68,
      "hit": false,
      "t": 58386.66666666663,
      "d": 106.66666666666424,
      "v": 127
    },
    {
      "midi": 71,
      "hit": false,
      "t": 58386.66666666663,
      "d": 106.66666666666424,
      "v": 127
    },
    {
      "midi": 62,
      "hit": false,
      "t": 58399.99999999991,
      "d": 133.33333333333576,
      "v": 54
    },
    {
      "midi": 64,
      "hit": false,
      "t": 58399.99999999991,
      "d": 140,
      "v": 52
    },
    {
      "midi": 68,
      "hit": false,
      "t": 58399.99999999991,
      "d": 140,
      "v": 54
    },
    {
      "midi": 52,
      "hit": false,
      "t": 58446.66666666658,
      "d": 73.33333333333576,
      "v": 62
    },
    {
      "midi": 62,
      "hit": false,
      "t": 58666.66666666658,
      "d": 100,
      "v": 50
    },
    {
      "midi": 68,
      "hit": false,
      "t": 58666.66666666658,
      "d": 100,
      "v": 50
    },
    {
      "midi": 64,
      "hit": false,
      "t": 58666.66666666658,
      "d": 120,
      "v": 48
    },
    {
      "midi": 62,
      "hit": false,
      "t": 58913.33333333324,
      "d": 120,
      "v": 52
    },
    {
      "midi": 68,
      "hit": false,
      "t": 58913.33333333324,
      "d": 120,
      "v": 50
    },
    {
      "midi": 64,
      "hit": false,
      "t": 58913.33333333324,
      "d": 133.33333333333576,
      "v": 48
    },
    {
      "midi": 44,
      "hit": false,
      "t": 58913.33333333324,
      "d": 226.66666666667152,
      "v": 62
    },
    {
      "midi": 62,
      "hit": false,
      "t": 59199.99999999991,
      "d": 106.66666666666424,
      "v": 48
    },
    {
      "midi": 64,
      "hit": false,
      "t": 59199.99999999991,
      "d": 120,
      "v": 48
    },
    {
      "midi": 68,
      "hit": false,
      "t": 59199.99999999991,
      "d": 120,
      "v": 52
    },
    {
      "midi": 68,
      "hit": false,
      "t": 59199.999999999956,
      "d": 693.3333333333285,
      "v": 127
    },
    {
      "midi": 71,
      "hit": false,
      "t": 59199.999999999956,
      "d": 706.6666666666642,
      "v": 127
    },
    {
      "midi": 47,
      "hit": false,
      "t": 59206.66666666658,
      "d": 666.6666666666642,
      "v": 62
    },
    {
      "midi": 76,
      "hit": false,
      "t": 59206.66666666662,
      "d": 666.6666666666642,
      "v": 127
    },
    {
      "midi": 62,
      "hit": false,
      "t": 59446.66666666658,
      "d": 106.66666666666424,
      "v": 50
    },
    {
      "midi": 64,
      "hit": false,
      "t": 59446.66666666658,
      "d": 120,
      "v": 50
    },
    {
      "midi": 68,
      "hit": false,
      "t": 59453.33333333324,
      "d": 86.66666666666424,
      "v": 48
    },
    {
      "midi": 62,
      "hit": false,
      "t": 59706.66666666658,
      "d": 126.66666666666424,
      "v": 52
    },
    {
      "midi": 64,
      "hit": false,
      "t": 59706.66666666658,
      "d": 133.33333333332848,
      "v": 50
    },
    {
      "midi": 68,
      "hit": false,
      "t": 59733.33333333324,
      "d": 100,
      "v": 54
    },
    {
      "midi": 44,
      "hit": false,
      "t": 59973.33333333324,
      "d": 266.66666666665697,
      "v": 62
    },
    {
      "midi": 64,
      "hit": false,
      "t": 59979.999999999905,
      "d": 133.33333333332848,
      "v": 52
    },
    {
      "midi": 68,
      "hit": false,
      "t": 59979.999999999905,
      "d": 133.33333333332848,
      "v": 54
    },
    {
      "midi": 62,
      "hit": false,
      "t": 59986.66666666657,
      "d": 106.66666666666424,
      "v": 54
    },
    {
      "midi": 68,
      "hit": false,
      "t": 59999.999999999956,
      "d": 133.33333333332848,
      "v": 127
    },
    {
      "midi": 76,
      "hit": false,
      "t": 60006.66666666662,
      "d": 100,
      "v": 127
    },
    {
      "midi": 71,
      "hit": false,
      "t": 60019.999999999956,
      "d": 86.66666666666424,
      "v": 127
    },
    {
      "midi": 68,
      "hit": false,
      "t": 60266.66666666656,
      "d": 66.66666666666424,
      "v": 44
    },
    {
      "midi": 62,
      "hit": false,
      "t": 60266.66666666656,
      "d": 93.33333333332848,
      "v": 48
    },
    {
      "midi": 64,
      "hit": false,
      "t": 60266.66666666656,
      "d": 99.99999999999272,
      "v": 48
    },
    {
      "midi": 47,
      "hit": false,
      "t": 60479.99999999989,
      "d": 159.99999999999272,
      "v": 62
    },
    {
      "midi": 68,
      "hit": false,
      "t": 60499.99999999995,
      "d": 133.33333333333576,
      "v": 127
    },
    {
      "midi": 62,
      "hit": false,
      "t": 60513.33333333323,
      "d": 119.99999999999272,
      "v": 52
    },
    {
      "midi": 64,
      "hit": false,
      "t": 60513.33333333323,
      "d": 126.66666666665697,
      "v": 52
    },
    {
      "midi": 68,
      "hit": false,
      "t": 60519.99999999989,
      "d": 86.66666666666424,
      "v": 52
    },
    {
      "midi": 76,
      "hit": false,
      "t": 60773.333333333285,
      "d": 720,
      "v": 127
    },
    {
      "midi": 68,
      "hit": false,
      "t": 60773.333333333285,
      "d": 740,
      "v": 127
    },
    {
      "midi": 71,
      "hit": false,
      "t": 60773.333333333285,
      "d": 766.6666666666642,
      "v": 127
    },
    {
      "midi": 62,
      "hit": false,
      "t": 60786.66666666655,
      "d": 133.33333333333576,
      "v": 54
    },
    {
      "midi": 64,
      "hit": false,
      "t": 60786.66666666655,
      "d": 140,
      "v": 52
    },
    {
      "midi": 68,
      "hit": false,
      "t": 60799.99999999988,
      "d": 120,
      "v": 54
    },
    {
      "midi": 40,
      "hit": false,
      "t": 60799.99999999988,
      "d": 1199.9999999999927,
      "v": 62
    },
    {
      "midi": 62,
      "hit": false,
      "t": 61066.66666666655,
      "d": 100.00000000000728,
      "v": 48
    },
    {
      "midi": 64,
      "hit": false,
      "t": 61066.66666666655,
      "d": 126.66666666667152,
      "v": 48
    },
    {
      "midi": 68,
      "hit": false,
      "t": 61079.99999999988,
      "d": 73.33333333333576,
      "v": 48
    },
    {
      "midi": 64,
      "hit": false,
      "t": 61306.666666666555,
      "d": 140,
      "v": 48
    },
    {
      "midi": 62,
      "hit": false,
      "t": 61313.33333333322,
      "d": 120,
      "v": 50
    },
    {
      "midi": 68,
      "hit": false,
      "t": 61333.33333333322,
      "d": 93.33333333333576,
      "v": 52
    },
    {
      "midi": 52,
      "hit": false,
      "t": 61566.666666666555,
      "d": 73.33333333332848,
      "v": 62
    },
    {
      "midi": 62,
      "hit": false,
      "t": 61573.33333333322,
      "d": 126.66666666666424,
      "v": 52
    },
    {
      "midi": 68,
      "hit": false,
      "t": 61573.33333333322,
      "d": 133.33333333332848,
      "v": 54
    },
    {
      "midi": 64,
      "hit": false,
      "t": 61573.33333333322,
      "d": 139.99999999999272,
      "v": 52
    },
    {
      "midi": 71,
      "hit": false,
      "t": 61599.99999999995,
      "d": 86.66666666666424,
      "v": 127
    },
    {
      "midi": 76,
      "hit": false,
      "t": 61599.99999999995,
      "d": 86.66666666666424,
      "v": 127
    },
    {
      "midi": 68,
      "hit": false,
      "t": 61599.99999999995,
      "d": 100,
      "v": 127
    },
    {
      "midi": 69,
      "hit": false,
      "t": 61613.33333333334,
      "d": 653.3333333333358,
      "v": 121
    },
    {
      "midi": 66,
      "hit": false,
      "t": 61613.33333333334,
      "d": 693.3333333333358,
      "v": 121
    },
    {
      "midi": 64,
      "hit": false,
      "t": 61839.999999999876,
      "d": 106.66666666666424,
      "v": 48
    },
    {
      "midi": 62,
      "hit": false,
      "t": 61846.66666666654,
      "d": 93.33333333333576,
      "v": 48
    },
    {
      "midi": 68,
      "hit": false,
      "t": 61853.333333333205,
      "d": 73.33333333333576,
      "v": 48
    },
    {
      "midi": 68,
      "hit": false,
      "t": 62099.999999999876,
      "d": 120,
      "v": 50
    },
    {
      "midi": 62,
      "hit": false,
      "t": 62099.999999999876,
      "d": 126.66666666666424,
      "v": 50
    },
    {
      "midi": 64,
      "hit": false,
      "t": 62099.999999999876,
      "d": 133.33333333332848,
      "v": 50
    },
    {
      "midi": 44,
      "hit": false,
      "t": 62099.999999999876,
      "d": 233.33333333332848,
      "v": 62
    },
    {
      "midi": 68,
      "hit": false,
      "t": 62133.333333333285,
      "d": 106.66666666666424,
      "v": 127
    },
    {
      "midi": 62,
      "hit": false,
      "t": 62379.99999999987,
      "d": 120,
      "v": 54
    },
    {
      "midi": 68,
      "hit": false,
      "t": 62379.99999999987,
      "d": 126.66666666666424,
      "v": 54
    },
    {
      "midi": 64,
      "hit": false,
      "t": 62379.99999999987,
      "d": 140,
      "v": 52
    },
    {
      "midi": 69,
      "hit": false,
      "t": 62400.000000000015,
      "d": 373.33333333333576,
      "v": 121
    },
    {
      "midi": 66,
      "hit": false,
      "t": 62400.000000000015,
      "d": 406.6666666666715,
      "v": 120
    },
    {
      "midi": 47,
      "hit": false,
      "t": 62433.333333333205,
      "d": 693.3333333333285,
      "v": 62
    },
    {
      "midi": 76,
      "hit": false,
      "t": 62433.333333333285,
      "d": 606.6666666666642,
      "v": 127
    },
    {
      "midi": 68,
      "hit": false,
      "t": 62433.333333333285,
      "d": 653.3333333333285,
      "v": 127
    },
    {
      "midi": 74,
      "hit": false,
      "t": 62433.333333333285,
      "d": 653.3333333333285,
      "v": 127
    },
    {
      "midi": 71,
      "hit": false,
      "t": 62433.333333333285,
      "d": 666.6666666666642,
      "v": 127
    },
    {
      "midi": 64,
      "hit": false,
      "t": 62646.66666666653,
      "d": 126.66666666667152,
      "v": 48
    },
    {
      "midi": 68,
      "hit": false,
      "t": 62653.3333333332,
      "d": 86.66666666667152,
      "v": 48
    },
    {
      "midi": 62,
      "hit": false,
      "t": 62666.66666666653,
      "d": 93.33333333333576,
      "v": 50
    },
    {
      "midi": 62,
      "hit": false,
      "t": 62913.333333333205,
      "d": 120,
      "v": 52
    },
    {
      "midi": 68,
      "hit": false,
      "t": 62913.333333333205,
      "d": 126.66666666666424,
      "v": 54
    },
    {
      "midi": 64,
      "hit": false,
      "t": 62913.333333333205,
      "d": 133.33333333332848,
      "v": 52
    },
    {
      "midi": 69,
      "hit": false,
      "t": 62913.33333333335,
      "d": 153.33333333333576,
      "v": 121
    },
    {
      "midi": 64,
      "hit": false,
      "t": 62913.33333333335,
      "d": 226.66666666667152,
      "v": 116
    },
    {
      "midi": 62,
      "hit": false,
      "t": 63179.99999999987,
      "d": 120,
      "v": 54
    },
    {
      "midi": 68,
      "hit": false,
      "t": 63179.99999999987,
      "d": 126.66666666666424,
      "v": 56
    },
    {
      "midi": 64,
      "hit": false,
      "t": 63179.99999999987,
      "d": 153.33333333332848,
      "v": 52
    },
    {
      "midi": 44,
      "hit": false,
      "t": 63179.99999999987,
      "d": 473.3333333333285,
      "v": 62
    },
    {
      "midi": 68,
      "hit": false,
      "t": 63186.66666666661,
      "d": 106.66666666666424,
      "v": 127
    },
    {
      "midi": 74,
      "hit": false,
      "t": 63206.66666666661,
      "d": 86.66666666666424,
      "v": 127
    },
    {
      "midi": 71,
      "hit": false,
      "t": 63206.66666666661,
      "d": 93.33333333332848,
      "v": 127
    },
    {
      "midi": 76,
      "hit": false,
      "t": 63206.66666666661,
      "d": 93.33333333332848,
      "v": 127
    },
    {
      "midi": 62,
      "hit": false,
      "t": 63466.66666666653,
      "d": 93.33333333332848,
      "v": 48
    },
    {
      "midi": 64,
      "hit": false,
      "t": 63466.66666666653,
      "d": 106.66666666666424,
      "v": 48
    },
    {
      "midi": 64,
      "hit": false,
      "t": 63466.66666666669,
      "d": 400,
      "v": 113
    },
    {
      "midi": 68,
      "hit": false,
      "t": 63473.3333333332,
      "d": 60,
      "v": 46
    },
    {
      "midi": 59,
      "hit": false,
      "t": 63473.33333333336,
      "d": 93.33333333332848,
      "v": 118
    },
    {
      "midi": 61,
      "hit": false,
      "t": 63500.00000000002,
      "d": 233.33333333333576,
      "v": 121
    },
    {
      "midi": 59,
      "hit": false,
      "t": 63680.00000000002,
      "d": 193.33333333333576,
      "v": 112
    },
    {
      "midi": 45,
      "hit": false,
      "t": 63699.99999999986,
      "d": 260,
      "v": 62
    },
    {
      "midi": 62,
      "hit": false,
      "t": 63706.666666666526,
      "d": 120,
      "v": 54
    },
    {
      "midi": 64,
      "hit": false,
      "t": 63706.666666666526,
      "d": 153.33333333333576,
      "v": 52
    },
    {
      "midi": 68,
      "hit": false,
      "t": 63706.666666666606,
      "d": 100,
      "v": 127
    },
    {
      "midi": 68,
      "hit": false,
      "t": 63733.33333333319,
      "d": 106.66666666667152,
      "v": 54
    },
    {
      "midi": 57,
      "hit": false,
      "t": 63953.33333333336,
      "d": 1433.3333333333358,
      "v": 116
    },
    {
      "midi": 64,
      "hit": false,
      "t": 63966.66666666669,
      "d": 1360,
      "v": 121
    },
    {
      "midi": 76,
      "hit": false,
      "t": 63973.33333333327,
      "d": 626.6666666666642,
      "v": 127
    },
    {
      "midi": 69,
      "hit": false,
      "t": 63973.33333333327,
      "d": 686.6666666666642,
      "v": 127
    },
    {
      "midi": 64,
      "hit": false,
      "t": 63979.99999999986,
      "d": 160,
      "v": 54
    },
    {
      "midi": 73,
      "hit": false,
      "t": 63979.999999999935,
      "d": 666.6666666666642,
      "v": 127
    },
    {
      "midi": 61,
      "hit": false,
      "t": 63999.99999999986,
      "d": 133.33333333333576,
      "v": 62
    },
    {
      "midi": 69,
      "hit": false,
      "t": 63999.99999999986,
      "d": 140,
      "v": 54
    },
    {
      "midi": 33,
      "hit": false,
      "t": 63999.99999999986,
      "d": 1000.0000000000073,
      "v": 62
    },
    {
      "midi": 61,
      "hit": false,
      "t": 64253.3333333332,
      "d": 133.33333333333576,
      "v": 58
    },
    {
      "midi": 64,
      "hit": false,
      "t": 64253.3333333332,
      "d": 140,
      "v": 50
    },
    {
      "midi": 69,
      "hit": false,
      "t": 64273.3333333332,
      "d": 126.66666666666424,
      "v": 44
    },
    {
      "midi": 61,
      "hit": false,
      "t": 64519.99999999986,
      "d": 140,
      "v": 58
    },
    {
      "midi": 64,
      "hit": false,
      "t": 64519.99999999986,
      "d": 140,
      "v": 52
    },
    {
      "midi": 69,
      "hit": false,
      "t": 64533.3333333332,
      "d": 126.66666666666424,
      "v": 48
    },
    {
      "midi": 69,
      "hit": false,
      "t": 64746.6666666666,
      "d": 133.33333333333576,
      "v": 127
    },
    {
      "midi": 76,
      "hit": false,
      "t": 64753.33333333326,
      "d": 106.66666666667152,
      "v": 127
    },
    {
      "midi": 73,
      "hit": false,
      "t": 64766.6666666666,
      "d": 126.66666666667152,
      "v": 127
    },
    {
      "midi": 61,
      "hit": false,
      "t": 64799.99999999986,
      "d": 140,
      "v": 58
    },
    {
      "midi": 69,
      "hit": false,
      "t": 64799.99999999986,
      "d": 153.33333333333576,
      "v": 50
    },
    {
      "midi": 64,
      "hit": false,
      "t": 64799.99999999986,
      "d": 166.66666666667152,
      "v": 54
    },
    {
      "midi": 64,
      "hit": false,
      "t": 64799.999999999935,
      "d": 53.33333333333576,
      "v": 127
    },
    {
      "midi": 45,
      "hit": false,
      "t": 64813.3333333332,
      "d": 153.33333333333576,
      "v": 62
    },
    {
      "midi": 64,
      "hit": false,
      "t": 65033.33333333327,
      "d": 73.33333333333576,
      "v": 127
    },
    {
      "midi": 35,
      "hit": false,
      "t": 65046.66666666653,
      "d": 160,
      "v": 62
    },
    {
      "midi": 61,
      "hit": false,
      "t": 65066.66666666653,
      "d": 120,
      "v": 58
    },
    {
      "midi": 64,
      "hit": false,
      "t": 65066.66666666653,
      "d": 133.33333333333576,
      "v": 54
    },
    {
      "midi": 69,
      "hit": false,
      "t": 65079.99999999987,
      "d": 120,
      "v": 46
    },
    {
      "midi": 37,
      "hit": false,
      "t": 65299.99999999987,
      "d": 133.33333333332848,
      "v": 62
    },
    {
      "midi": 64,
      "hit": false,
      "t": 65306.666666666606,
      "d": 60,
      "v": 127
    },
    {
      "midi": 64,
      "hit": false,
      "t": 65313.333333333205,
      "d": 126.66666666665697,
      "v": 54
    },
    {
      "midi": 61,
      "hit": false,
      "t": 65313.333333333205,
      "d": 153.3333333333212,
      "v": 58
    },
    {
      "midi": 69,
      "hit": false,
      "t": 65319.99999999987,
      "d": 106.66666666666424,
      "v": 44
    },
    {
      "midi": 66,
      "hit": false,
      "t": 65586.66666666653,
      "d": 153.33333333334303,
      "v": 62
    },
    {
      "midi": 38,
      "hit": false,
      "t": 65586.66666666653,
      "d": 640.0000000000291,
      "v": 62
    },
    {
      "midi": 66,
      "hit": false,
      "t": 65586.6666666666,
      "d": 666.666666666657,
      "v": 127
    },
    {
      "midi": 69,
      "hit": false,
      "t": 65586.6666666666,
      "d": 673.3333333333285,
      "v": 127
    },
    {
      "midi": 62,
      "hit": false,
      "t": 65599.99999999985,
      "d": 133.33333333334303,
      "v": 62
    },
    {
      "midi": 69,
      "hit": false,
      "t": 65606.66666666653,
      "d": 106.66666666667152,
      "v": 54
    },
    {
      "midi": 74,
      "hit": false,
      "t": 65606.6666666666,
      "d": 553.3333333333285,
      "v": 127
    },
    {
      "midi": 54,
      "hit": false,
      "t": 65633.33333333336,
      "d": 973.3333333333139,
      "v": 108
    },
    {
      "midi": 62,
      "hit": false,
      "t": 65633.33333333336,
      "d": 1039.9999999999854,
      "v": 101
    },
    {
      "midi": 57,
      "hit": false,
      "t": 65633.33333333336,
      "d": 1093.333333333314,
      "v": 108
    },
    {
      "midi": 66,
      "hit": false,
      "t": 65839.99999999987,
      "d": 160.00000000001455,
      "v": 58
    },
    {
      "midi": 62,
      "hit": false,
      "t": 65866.66666666654,
      "d": 120.00000000001455,
      "v": 56
    },
    {
      "midi": 69,
      "hit": false,
      "t": 65873.33333333321,
      "d": 86.66666666667152,
      "v": 44
    },
    {
      "midi": 62,
      "hit": false,
      "t": 66119.99999999988,
      "d": 140,
      "v": 58
    },
    {
      "midi": 66,
      "hit": false,
      "t": 66119.99999999988,
      "d": 160,
      "v": 60
    },
    {
      "midi": 69,
      "hit": false,
      "t": 66139.99999999988,
      "d": 120,
      "v": 50
    },
    {
      "midi": 74,
      "hit": false,
      "t": 66339.99999999993,
      "d": 106.66666666667152,
      "v": 127
    },
    {
      "midi": 69,
      "hit": false,
      "t": 66346.6666666666,
      "d": 126.66666666667152,
      "v": 127
    },
    {
      "midi": 38,
      "hit": false,
      "t": 66366.66666666656,
      "d": 153.33333333332848,
      "v": 62
    },
    {
      "midi": 66,
      "hit": false,
      "t": 66366.6666666666,
      "d": 100,
      "v": 127
    },
    {
      "midi": 62,
      "hit": false,
      "t": 66399.99999999988,
      "d": 133.33333333332848,
      "v": 62
    },
    {
      "midi": 66,
      "hit": false,
      "t": 66399.99999999988,
      "d": 153.33333333332848,
      "v": 62
    },
    {
      "midi": 69,
      "hit": false,
      "t": 66406.66666666656,
      "d": 126.66666666665697,
      "v": 54
    },
    {
      "midi": 37,
      "hit": false,
      "t": 66633.33333333321,
      "d": 160,
      "v": 62
    },
    {
      "midi": 66,
      "hit": false,
      "t": 66653.33333333321,
      "d": 140,
      "v": 62
    },
    {
      "midi": 69,
      "hit": false,
      "t": 66666.66666666654,
      "d": 100,
      "v": 50
    },
    {
      "midi": 62,
      "hit": false,
      "t": 66666.66666666654,
      "d": 126.66666666667152,
      "v": 60
    },
    {
      "midi": 62,
      "hit": false,
      "t": 66899.99999999988,
      "d": 133.33333333332848,
      "v": 60
    },
    {
      "midi": 35,
      "hit": false,
      "t": 66899.99999999988,
      "d": 166.66666666665697,
      "v": 62
    },
    {
      "midi": 66,
      "hit": false,
      "t": 66899.99999999988,
      "d": 166.66666666665697,
      "v": 62
    },
    {
      "midi": 69,
      "hit": false,
      "t": 66913.33333333321,
      "d": 106.66666666667152,
      "v": 52
    },
    {
      "midi": 66,
      "hit": false,
      "t": 66913.33333333327,
      "d": 153.33333333332848,
      "v": 127
    },
    {
      "midi": 61,
      "hit": false,
      "t": 67153.33333333334,
      "d": 153.33333333334303,
      "v": 101
    },
    {
      "midi": 61,
      "hit": false,
      "t": 67166.66666666654,
      "d": 153.33333333332848,
      "v": 62
    },
    {
      "midi": 69,
      "hit": false,
      "t": 67166.66666666654,
      "d": 153.33333333332848,
      "v": 54
    },
    {
      "midi": 33,
      "hit": false,
      "t": 67166.66666666654,
      "d": 1240,
      "v": 62
    },
    {
      "midi": 52,
      "hit": false,
      "t": 67166.66666666667,
      "d": 126.66666666667152,
      "v": 95
    },
    {
      "midi": 57,
      "hit": false,
      "t": 67166.66666666667,
      "d": 133.33333333334303,
      "v": 99
    },
    {
      "midi": 64,
      "hit": false,
      "t": 67179.99999999987,
      "d": 153.33333333332848,
      "v": 60
    },
    {
      "midi": 64,
      "hit": false,
      "t": 67199.99999999993,
      "d": 786.666666666657,
      "v": 127
    },
    {
      "midi": 69,
      "hit": false,
      "t": 67199.99999999993,
      "d": 826.666666666657,
      "v": 127
    },
    {
      "midi": 73,
      "hit": false,
      "t": 67233.33333333326,
      "d": 800,
      "v": 127
    },
    {
      "midi": 61,
      "hit": false,
      "t": 67433.3333333332,
      "d": 133.33333333334303,
      "v": 56
    },
    {
      "midi": 69,
      "hit": false,
      "t": 67433.3333333332,
      "d": 140.00000000001455,
      "v": 44
    },
    {
      "midi": 64,
      "hit": false,
      "t": 67453.3333333332,
      "d": 106.66666666667152,
      "v": 54
    },
    {
      "midi": 61,
      "hit": false,
      "t": 67699.99999999988,
      "d": 153.33333333332848,
      "v": 56
    },
    {
      "midi": 64,
      "hit": false,
      "t": 67713.33333333321,
      "d": 126.66666666667152,
      "v": 54
    },
    {
      "midi": 69,
      "hit": false,
      "t": 67713.33333333321,
      "d": 126.66666666667152,
      "v": 52
    },
    {
      "midi": 45,
      "hit": false,
      "t": 67986.66666666654,
      "d": 120,
      "v": 62
    },
    {
      "midi": 61,
      "hit": false,
      "t": 67986.66666666654,
      "d": 133.33333333332848,
      "v": 60
    },
    {
      "midi": 64,
      "hit": false,
      "t": 67986.66666666654,
      "d": 140,
      "v": 56
    },
    {
      "midi": 69,
      "hit": false,
      "t": 68006.66666666654,
      "d": 120,
      "v": 54
    },
    {
      "midi": 64,
      "hit": false,
      "t": 68066.66666666658,
      "d": 86.66666666667152,
      "v": 127
    },
    {
      "midi": 61,
      "hit": false,
      "t": 68253.33333333321,
      "d": 126.66666666665697,
      "v": 54
    },
    {
      "midi": 64,
      "hit": false,
      "t": 68253.33333333321,
      "d": 133.33333333332848,
      "v": 52
    },
    {
      "midi": 69,
      "hit": false,
      "t": 68266.66666666654,
      "d": 100,
      "v": 50
    },
    {
      "midi": 64,
      "hit": false,
      "t": 68300.00000000001,
      "d": 426.6666666666715,
      "v": 121
    },
    {
      "midi": 37,
      "hit": false,
      "t": 68479.99999999987,
      "d": 186.66666666668607,
      "v": 62
    },
    {
      "midi": 61,
      "hit": false,
      "t": 68499.99999999987,
      "d": 133.33333333334303,
      "v": 60
    },
    {
      "midi": 64,
      "hit": false,
      "t": 68506.66666666654,
      "d": 153.33333333334303,
      "v": 54
    },
    {
      "midi": 69,
      "hit": false,
      "t": 68513.33333333321,
      "d": 93.33333333332848,
      "v": 52
    },
    {
      "midi": 64,
      "hit": false,
      "t": 68519.99999999993,
      "d": 33.33333333332848,
      "v": 127
    },
    {
      "midi": 64,
      "hit": false,
      "t": 68766.66666666656,
      "d": 166.66666666665697,
      "v": 62
    },
    {
      "midi": 68,
      "hit": false,
      "t": 68779.99999999988,
      "d": 126.66666666667152,
      "v": 62
    },
    {
      "midi": 62,
      "hit": false,
      "t": 68779.99999999988,
      "d": 140,
      "v": 62
    },
    {
      "midi": 40,
      "hit": false,
      "t": 68786.66666666656,
      "d": 766.6666666666424,
      "v": 62
    },
    {
      "midi": 71,
      "hit": false,
      "t": 68799.99999999993,
      "d": 666.6666666666715,
      "v": 127
    },
    {
      "midi": 76,
      "hit": false,
      "t": 68806.6666666666,
      "d": 606.6666666666715,
      "v": 127
    },
    {
      "midi": 68,
      "hit": false,
      "t": 68806.6666666666,
      "d": 640,
      "v": 127
    },
    {
      "midi": 59,
      "hit": false,
      "t": 68806.66666666669,
      "d": 566.6666666666715,
      "v": 121
    },
    {
      "midi": 68,
      "hit": false,
      "t": 69046.66666666654,
      "d": 120,
      "v": 52
    },
    {
      "midi": 62,
      "hit": false,
      "t": 69046.66666666654,
      "d": 133.33333333332848,
      "v": 52
    },
    {
      "midi": 64,
      "hit": false,
      "t": 69046.66666666654,
      "d": 133.33333333332848,
      "v": 52
    },
    {
      "midi": 62,
      "hit": false,
      "t": 69313.3333333332,
      "d": 133.33333333332848,
      "v": 56
    },
    {
      "midi": 68,
      "hit": false,
      "t": 69313.3333333332,
      "d": 140,
      "v": 58
    },
    {
      "midi": 64,
      "hit": false,
      "t": 69313.3333333332,
      "d": 153.33333333332848,
      "v": 54
    },
    {
      "midi": 76,
      "hit": false,
      "t": 69573.33333333327,
      "d": 106.66666666665697,
      "v": 127
    },
    {
      "midi": 62,
      "hit": false,
      "t": 69586.66666666653,
      "d": 126.66666666667152,
      "v": 58
    },
    {
      "midi": 64,
      "hit": false,
      "t": 69586.66666666653,
      "d": 140,
      "v": 56
    },
    {
      "midi": 68,
      "hit": false,
      "t": 69586.66666666653,
      "d": 153.33333333332848,
      "v": 60
    },
    {
      "midi": 74,
      "hit": false,
      "t": 69586.6666666666,
      "d": 106.66666666665697,
      "v": 127
    },
    {
      "midi": 68,
      "hit": false,
      "t": 69586.6666666666,
      "d": 133.33333333332848,
      "v": 127
    },
    {
      "midi": 36,
      "hit": false,
      "t": 69606.66666666653,
      "d": 540,
      "v": 62
    },
    {
      "midi": 35,
      "hit": false,
      "t": 69606.66666666653,
      "d": 573.3333333333285,
      "v": 60
    },
    {
      "midi": 62,
      "hit": false,
      "t": 69853.33333333318,
      "d": 106.66666666667152,
      "v": 56
    },
    {
      "midi": 64,
      "hit": false,
      "t": 69853.33333333318,
      "d": 120,
      "v": 52
    },
    {
      "midi": 68,
      "hit": false,
      "t": 69853.33333333318,
      "d": 120,
      "v": 52
    },
    {
      "midi": 61,
      "hit": false,
      "t": 69873.33333333336,
      "d": 166.66666666667152,
      "v": 121
    },
    {
      "midi": 62,
      "hit": false,
      "t": 70099.99999999985,
      "d": 126.66666666667152,
      "v": 56
    },
    {
      "midi": 68,
      "hit": false,
      "t": 70099.99999999985,
      "d": 140,
      "v": 56
    },
    {
      "midi": 64,
      "hit": false,
      "t": 70099.99999999985,
      "d": 160,
      "v": 56
    },
    {
      "midi": 62,
      "hit": false,
      "t": 70133.33333333336,
      "d": 166.66666666667152,
      "v": 121
    },
    {
      "midi": 33,
      "hit": false,
      "t": 70366.66666666653,
      "d": 1199.9999999999854,
      "v": 62
    },
    {
      "midi": 61,
      "hit": false,
      "t": 70373.3333333332,
      "d": 160,
      "v": 62
    },
    {
      "midi": 64,
      "hit": false,
      "t": 70373.3333333332,
      "d": 160,
      "v": 56
    },
    {
      "midi": 69,
      "hit": false,
      "t": 70373.3333333332,
      "d": 173.33333333332848,
      "v": 54
    },
    {
      "midi": 63,
      "hit": false,
      "t": 70500.00000000003,
      "d": 100,
      "v": 115
    },
    {
      "midi": 64,
      "hit": false,
      "t": 70533.33333333336,
      "d": 386.6666666666715,
      "v": 109
    },
    {
      "midi": 61,
      "hit": false,
      "t": 70646.66666666653,
      "d": 126.66666666667152,
      "v": 56
    },
    {
      "midi": 64,
      "hit": false,
      "t": 70646.66666666653,
      "d": 126.66666666667152,
      "v": 50
    },
    {
      "midi": 69,
      "hit": false,
      "t": 70646.66666666653,
      "d": 133.33333333334303,
      "v": 38
    },
    {
      "midi": 64,
      "hit": false,
      "t": 70866.66666666669,
      "d": 260,
      "v": 62
    },
    {
      "midi": 61,
      "hit": false,
      "t": 70899.99999999987,
      "d": 153.33333333332848,
      "v": 58
    },
    {
      "midi": 64,
      "hit": false,
      "t": 70899.99999999987,
      "d": 166.66666666665697,
      "v": 54
    },
    {
      "midi": 69,
      "hit": false,
      "t": 70899.99999999987,
      "d": 166.66666666665697,
      "v": 46
    },
    {
      "midi": 63,
      "hit": false,
      "t": 70986.6666666667,
      "d": 93.33333333332848,
      "v": 116
    },
    {
      "midi": 64,
      "hit": false,
      "t": 71020.00000000003,
      "d": 353.3333333333285,
      "v": 109
    },
    {
      "midi": 69,
      "hit": false,
      "t": 71166.6666666666,
      "d": 53.33333333332848,
      "v": 127
    },
    {
      "midi": 76,
      "hit": false,
      "t": 71166.6666666666,
      "d": 53.33333333332848,
      "v": 127
    },
    {
      "midi": 73,
      "hit": false,
      "t": 71166.6666666666,
      "d": 100,
      "v": 127
    },
    {
      "midi": 61,
      "hit": false,
      "t": 71180.00000000001,
      "d": 473.3333333333285,
      "v": 62
    },
    {
      "midi": 45,
      "hit": false,
      "t": 71199.99999999985,
      "d": 100,
      "v": 62
    },
    {
      "midi": 61,
      "hit": false,
      "t": 71199.99999999985,
      "d": 133.33333333332848,
      "v": 58
    },
    {
      "midi": 64,
      "hit": false,
      "t": 71199.99999999985,
      "d": 133.33333333332848,
      "v": 52
    },
    {
      "midi": 69,
      "hit": false,
      "t": 71206.66666666653,
      "d": 126.66666666665697,
      "v": 52
    },
    {
      "midi": 63,
      "hit": false,
      "t": 71446.66666666669,
      "d": 100,
      "v": 113
    },
    {
      "midi": 61,
      "hit": false,
      "t": 71473.33333333318,
      "d": 100,
      "v": 54
    },
    {
      "midi": 64,
      "hit": false,
      "t": 71473.33333333318,
      "d": 126.66666666667152,
      "v": 46
    },
    {
      "midi": 69,
      "hit": false,
      "t": 71486.66666666651,
      "d": 93.33333333334303,
      "v": 44
    },
    {
      "midi": 64,
      "hit": false,
      "t": 71500.00000000001,
      "d": 1866.6666666666715,
      "v": 98
    },
    {
      "midi": 37,
      "hit": false,
      "t": 71713.33333333318,
      "d": 233.33333333332848,
      "v": 62
    },
    {
      "midi": 61,
      "hit": false,
      "t": 71733.33333333318,
      "d": 126.66666666667152,
      "v": 56
    },
    {
      "midi": 64,
      "hit": false,
      "t": 71733.33333333327,
      "d": 33.33333333332848,
      "v": 127
    },
    {
      "midi": 64,
      "hit": false,
      "t": 71739.99999999985,
      "d": 133.33333333332848,
      "v": 48
    },
    {
      "midi": 69,
      "hit": false,
      "t": 71753.33333333318,
      "d": 100,
      "v": 44
    },
    {
      "midi": 62,
      "hit": false,
      "t": 71753.33333333334,
      "d": 253.33333333332848,
      "v": 62
    },
    {
      "midi": 76,
      "hit": false,
      "t": 71999.99999999993,
      "d": 700,
      "v": 127
    },
    {
      "midi": 69,
      "hit": false,
      "t": 71999.99999999993,
      "d": 733.3333333333285,
      "v": 127
    },
    {
      "midi": 73,
      "hit": false,
      "t": 71999.99999999993,
      "d": 740,
      "v": 127
    },
    {
      "midi": 61,
      "hit": false,
      "t": 72006.66666666651,
      "d": 126.66666666667152,
      "v": 58
    },
    {
      "midi": 64,
      "hit": false,
      "t": 72013.33333333318,
      "d": 133.33333333332848,
      "v": 52
    },
    {
      "midi": 40,
      "hit": false,
      "t": 72019.99999999985,
      "d": 733.333333333343,
      "v": 62
    },
    {
      "midi": 69,
      "hit": false,
      "t": 72033.33333333318,
      "d": 100,
      "v": 46
    },
    {
      "midi": 64,
      "hit": false,
      "t": 72073.33333333334,
      "d": 653.3333333333285,
      "v": 62
    },
    {
      "midi": 61,
      "hit": false,
      "t": 72273.33333333318,
      "d": 120,
      "v": 52
    },
    {
      "midi": 64,
      "hit": false,
      "t": 72273.33333333318,
      "d": 140,
      "v": 48
    },
    {
      "midi": 69,
      "hit": false,
      "t": 72299.99999999985,
      "d": 100,
      "v": 44
    },
    {
      "midi": 61,
      "hit": false,
      "t": 72539.99999999985,
      "d": 133.33333333334303,
      "v": 54
    },
    {
      "midi": 64,
      "hit": false,
      "t": 72546.66666666653,
      "d": 140,
      "v": 50
    },
    {
      "midi": 69,
      "hit": false,
      "t": 72566.66666666653,
      "d": 100,
      "v": 48
    },
    {
      "midi": 61,
      "hit": false,
      "t": 72813.3333333332,
      "d": 140,
      "v": 56
    },
    {
      "midi": 64,
      "hit": false,
      "t": 72833.3333333332,
      "d": 140,
      "v": 54
    },
    {
      "midi": 37,
      "hit": false,
      "t": 72833.3333333332,
      "d": 433.33333333334303,
      "v": 62
    },
    {
      "midi": 64,
      "hit": false,
      "t": 72833.33333333326,
      "d": 100,
      "v": 127
    },
    {
      "midi": 73,
      "hit": false,
      "t": 72833.33333333326,
      "d": 100,
      "v": 127
    },
    {
      "midi": 69,
      "hit": false,
      "t": 72839.99999999987,
      "d": 100,
      "v": 48
    },
    {
      "midi": 69,
      "hit": false,
      "t": 72846.66666666658,
      "d": 86.66666666667152,
      "v": 127
    },
    {
      "midi": 76,
      "hit": false,
      "t": 72846.66666666658,
      "d": 86.66666666667152,
      "v": 127
    },
    {
      "midi": 66,
      "hit": false,
      "t": 72866.66666666667,
      "d": 420,
      "v": 62
    },
    {
      "midi": 61,
      "hit": false,
      "t": 73079.99999999987,
      "d": 120,
      "v": 56
    },
    {
      "midi": 64,
      "hit": false,
      "t": 73079.99999999987,
      "d": 140,
      "v": 48
    },
    {
      "midi": 69,
      "hit": false,
      "t": 73099.99999999987,
      "d": 93.33333333332848,
      "v": 48
    },
    {
      "midi": 64,
      "hit": false,
      "t": 73339.99999999987,
      "d": 173.33333333332848,
      "v": 52
    },
    {
      "midi": 69,
      "hit": false,
      "t": 73346.66666666654,
      "d": 120,
      "v": 54
    },
    {
      "midi": 61,
      "hit": false,
      "t": 73346.66666666654,
      "d": 166.66666666665697,
      "v": 58
    },
    {
      "midi": 64,
      "hit": false,
      "t": 73346.66666666658,
      "d": 1000,
      "v": 127
    },
    {
      "midi": 40,
      "hit": false,
      "t": 73353.33333333321,
      "d": 126.66666666665697,
      "v": 62
    },
    {
      "midi": 64,
      "hit": false,
      "t": 73386.66666666667,
      "d": 1933.3333333333285,
      "v": 62
    },
    {
      "midi": 64,
      "hit": false,
      "t": 73619.99999999987,
      "d": 153.33333333332848,
      "v": 58
    },
    {
      "midi": 68,
      "hit": false,
      "t": 73633.3333333332,
      "d": 120,
      "v": 62
    },
    {
      "midi": 62,
      "hit": false,
      "t": 73633.3333333332,
      "d": 133.33333333332848,
      "v": 58
    },
    {
      "midi": 40,
      "hit": false,
      "t": 73633.3333333332,
      "d": 1220.0000000000146,
      "v": 62
    },
    {
      "midi": 68,
      "hit": false,
      "t": 73666.66666666658,
      "d": 700,
      "v": 127
    },
    {
      "midi": 76,
      "hit": false,
      "t": 73673.33333333326,
      "d": 660,
      "v": 127
    },
    {
      "midi": 71,
      "hit": false,
      "t": 73673.33333333326,
      "d": 700,
      "v": 127
    },
    {
      "midi": 62,
      "hit": false,
      "t": 73906.66666666653,
      "d": 120,
      "v": 50
    },
    {
      "midi": 68,
      "hit": false,
      "t": 73906.66666666653,
      "d": 120,
      "v": 46
    },
    {
      "midi": 64,
      "hit": false,
      "t": 73906.66666666653,
      "d": 126.66666666667152,
      "v": 46
    },
    {
      "midi": 62,
      "hit": false,
      "t": 74166.66666666653,
      "d": 140.00000000001455,
      "v": 52
    },
    {
      "midi": 64,
      "hit": false,
      "t": 74166.66666666653,
      "d": 153.33333333334303,
      "v": 50
    },
    {
      "midi": 68,
      "hit": false,
      "t": 74173.3333333332,
      "d": 126.66666666667152,
      "v": 50
    },
    {
      "midi": 52,
      "hit": false,
      "t": 74439.99999999987,
      "d": 73.33333333334303,
      "v": 62
    },
    {
      "midi": 62,
      "hit": false,
      "t": 74439.99999999987,
      "d": 120.00000000001455,
      "v": 54
    },
    {
      "midi": 64,
      "hit": false,
      "t": 74439.99999999987,
      "d": 133.33333333334303,
      "v": 54
    },
    {
      "midi": 68,
      "hit": false,
      "t": 74446.66666666654,
      "d": 106.66666666667152,
      "v": 54
    },
    {
      "midi": 64,
      "hit": false,
      "t": 74466.66666666658,
      "d": 93.33333333332848,
      "v": 127
    },
    {
      "midi": 68,
      "hit": false,
      "t": 74466.66666666658,
      "d": 93.33333333332848,
      "v": 127
    },
    {
      "midi": 71,
      "hit": false,
      "t": 74466.66666666658,
      "d": 93.33333333332848,
      "v": 127
    },
    {
      "midi": 76,
      "hit": false,
      "t": 74473.33333333326,
      "d": 73.33333333332848,
      "v": 127
    },
    {
      "midi": 64,
      "hit": false,
      "t": 74706.66666666654,
      "d": 106.66666666667152,
      "v": 46
    },
    {
      "midi": 62,
      "hit": false,
      "t": 74713.33333333321,
      "d": 100,
      "v": 50
    },
    {
      "midi": 68,
      "hit": false,
      "t": 74719.99999999988,
      "d": 73.33333333332848,
      "v": 50
    },
    {
      "midi": 64,
      "hit": false,
      "t": 74786.66666666669,
      "d": 386.6666666666715,
      "v": 121
    },
    {
      "midi": 62,
      "hit": false,
      "t": 74966.66666666654,
      "d": 133.33333333334303,
      "v": 52
    },
    {
      "midi": 44,
      "hit": false,
      "t": 74966.66666666654,
      "d": 220.00000000001455,
      "v": 62
    },
    {
      "midi": 68,
      "hit": false,
      "t": 74973.33333333321,
      "d": 120,
      "v": 52
    },
    {
      "midi": 64,
      "hit": false,
      "t": 74973.33333333321,
      "d": 133.33333333334303,
      "v": 52
    },
    {
      "midi": 64,
      "hit": false,
      "t": 74979.99999999991,
      "d": 1126.666666666657,
      "v": 127
    },
    {
      "midi": 62,
      "hit": false,
      "t": 75239.99999999988,
      "d": 133.33333333334303,
      "v": 50
    },
    {
      "midi": 64,
      "hit": false,
      "t": 75246.66666666656,
      "d": 140,
      "v": 50
    },
    {
      "midi": 68,
      "hit": false,
      "t": 75266.66666666656,
      "d": 100,
      "v": 52
    },
    {
      "midi": 47,
      "hit": false,
      "t": 75266.66666666656,
      "d": 673.333333333343,
      "v": 62
    },
    {
      "midi": 59,
      "hit": false,
      "t": 75266.66666666669,
      "d": 500,
      "v": 121
    },
    {
      "midi": 68,
      "hit": false,
      "t": 75279.99999999991,
      "d": 686.6666666666715,
      "v": 127
    },
    {
      "midi": 76,
      "hit": false,
      "t": 75279.99999999991,
      "d": 686.6666666666715,
      "v": 127
    },
    {
      "midi": 71,
      "hit": false,
      "t": 75279.99999999991,
      "d": 700,
      "v": 127
    },
    {
      "midi": 62,
      "hit": false,
      "t": 75513.33333333323,
      "d": 106.66666666667152,
      "v": 52
    },
    {
      "midi": 64,
      "hit": false,
      "t": 75513.33333333323,
      "d": 120,
      "v": 52
    },
    {
      "midi": 68,
      "hit": false,
      "t": 75533.33333333323,
      "d": 66.66666666667152,
      "v": 52
    },
    {
      "midi": 62,
      "hit": false,
      "t": 75773.33333333323,
      "d": 120,
      "v": 50
    },
    {
      "midi": 64,
      "hit": false,
      "t": 75773.33333333323,
      "d": 126.66666666667152,
      "v": 50
    },
    {
      "midi": 68,
      "hit": false,
      "t": 75799.9999999999,
      "d": 73.33333333332848,
      "v": 52
    },
    {
      "midi": 61,
      "hit": false,
      "t": 75840.00000000001,
      "d": 386.6666666666715,
      "v": 121
    },
    {
      "midi": 44,
      "hit": false,
      "t": 76013.33333333323,
      "d": 493.3333333333285,
      "v": 62
    },
    {
      "midi": 62,
      "hit": false,
      "t": 76033.33333333323,
      "d": 120,
      "v": 56
    },
    {
      "midi": 68,
      "hit": false,
      "t": 76033.33333333323,
      "d": 120,
      "v": 58
    },
    {
      "midi": 64,
      "hit": false,
      "t": 76033.33333333323,
      "d": 133.33333333332848,
      "v": 56
    },
    {
      "midi": 76,
      "hit": false,
      "t": 76033.33333333324,
      "d": 126.66666666667152,
      "v": 127
    },
    {
      "midi": 71,
      "hit": false,
      "t": 76046.66666666657,
      "d": 100,
      "v": 127
    },
    {
      "midi": 68,
      "hit": false,
      "t": 76046.66666666657,
      "d": 106.66666666667152,
      "v": 127
    },
    {
      "midi": 62,
      "hit": false,
      "t": 76299.99999999988,
      "d": 93.33333333332848,
      "v": 52
    },
    {
      "midi": 64,
      "hit": false,
      "t": 76299.99999999988,
      "d": 100,
      "v": 50
    },
    {
      "midi": 68,
      "hit": false,
      "t": 76299.99999999988,
      "d": 100,
      "v": 52
    },
    {
      "midi": 62,
      "hit": false,
      "t": 76353.33333333334,
      "d": 306.6666666666715,
      "v": 121
    },
    {
      "midi": 64,
      "hit": false,
      "t": 76499.99999999991,
      "d": 1040,
      "v": 127
    },
    {
      "midi": 64,
      "hit": false,
      "t": 76533.33333333323,
      "d": 140.00000000001455,
      "v": 52
    },
    {
      "midi": 68,
      "hit": false,
      "t": 76533.33333333323,
      "d": 140.00000000001455,
      "v": 54
    },
    {
      "midi": 62,
      "hit": false,
      "t": 76539.9999999999,
      "d": 106.66666666667152,
      "v": 56
    },
    {
      "midi": 45,
      "hit": false,
      "t": 76566.66666666657,
      "d": 160,
      "v": 62
    },
    {
      "midi": 61,
      "hit": false,
      "t": 76799.9999999999,
      "d": 140,
      "v": 58
    },
    {
      "midi": 64,
      "hit": false,
      "t": 76799.9999999999,
      "d": 153.33333333332848,
      "v": 52
    },
    {
      "midi": 69,
      "hit": false,
      "t": 76799.9999999999,
      "d": 153.33333333332848,
      "v": 56
    },
    {
      "midi": 76,
      "hit": false,
      "t": 76799.99999999991,
      "d": 693.3333333333285,
      "v": 127
    },
    {
      "midi": 69,
      "hit": false,
      "t": 76799.99999999991,
      "d": 733.3333333333285,
      "v": 127
    },
    {
      "midi": 73,
      "hit": false,
      "t": 76799.99999999991,
      "d": 760,
      "v": 127
    },
    {
      "midi": 33,
      "hit": false,
      "t": 76806.66666666657,
      "d": 1286.6666666666715,
      "v": 62
    },
    {
      "midi": 63,
      "hit": false,
      "t": 76840.00000000001,
      "d": 100,
      "v": 121
    },
    {
      "midi": 64,
      "hit": false,
      "t": 76886.66666666669,
      "d": 4160,
      "v": 101
    },
    {
      "midi": 61,
      "hit": false,
      "t": 77073.33333333323,
      "d": 126.66666666665697,
      "v": 54
    },
    {
      "midi": 64,
      "hit": false,
      "t": 77073.33333333323,
      "d": 133.33333333332848,
      "v": 50
    },
    {
      "midi": 69,
      "hit": false,
      "t": 77086.66666666656,
      "d": 120,
      "v": 44
    },
    {
      "midi": 61,
      "hit": false,
      "t": 77333.33333333323,
      "d": 133.33333333334303,
      "v": 58
    },
    {
      "midi": 64,
      "hit": false,
      "t": 77333.33333333323,
      "d": 140.00000000001455,
      "v": 52
    },
    {
      "midi": 64,
      "hit": false,
      "t": 77333.33333333333,
      "d": 253.33333333332848,
      "v": 62
    },
    {
      "midi": 69,
      "hit": false,
      "t": 77339.9999999999,
      "d": 126.66666666667152,
      "v": 44
    },
    {
      "midi": 64,
      "hit": false,
      "t": 77599.99999999991,
      "d": 160,
      "v": 56
    },
    {
      "midi": 61,
      "hit": false,
      "t": 77606.66666666658,
      "d": 126.66666666665697,
      "v": 60
    },
    {
      "midi": 45,
      "hit": false,
      "t": 77606.66666666658,
      "d": 153.33333333332848,
      "v": 62
    },
    {
      "midi": 69,
      "hit": false,
      "t": 77619.99999999991,
      "d": 133.33333333332848,
      "v": 52
    },
    {
      "midi": 69,
      "hit": false,
      "t": 77633.33333333324,
      "d": 86.66666666665697,
      "v": 127
    },
    {
      "midi": 73,
      "hit": false,
      "t": 77633.33333333324,
      "d": 93.33333333332848,
      "v": 127
    },
    {
      "midi": 76,
      "hit": false,
      "t": 77633.33333333324,
      "d": 100,
      "v": 127
    },
    {
      "midi": 61,
      "hit": false,
      "t": 77633.33333333333,
      "d": 433.3333333333285,
      "v": 62
    },
    {
      "midi": 64,
      "hit": false,
      "t": 77646.66666666657,
      "d": 86.66666666667152,
      "v": 127
    },
    {
      "midi": 61,
      "hit": false,
      "t": 77873.33333333324,
      "d": 126.66666666667152,
      "v": 56
    },
    {
      "midi": 64,
      "hit": false,
      "t": 77873.33333333324,
      "d": 140,
      "v": 50
    },
    {
      "midi": 69,
      "hit": false,
      "t": 77899.99999999991,
      "d": 133.33333333332848,
      "v": 46
    },
    {
      "midi": 64,
      "hit": false,
      "t": 78133.33333333324,
      "d": 1033.333333333343,
      "v": 127
    },
    {
      "midi": 69,
      "hit": false,
      "t": 78133.33333333324,
      "d": 100,
      "v": 44
    },
    {
      "midi": 61,
      "hit": false,
      "t": 78133.33333333324,
      "d": 133.33333333332848,
      "v": 60
    },
    {
      "midi": 64,
      "hit": false,
      "t": 78133.33333333324,
      "d": 133.33333333332848,
      "v": 54
    },
    {
      "midi": 37,
      "hit": false,
      "t": 78146.66666666657,
      "d": 220,
      "v": 62
    },
    {
      "midi": 62,
      "hit": false,
      "t": 78146.66666666666,
      "d": 273.3333333333285,
      "v": 62
    },
    {
      "midi": 61,
      "hit": false,
      "t": 78406.66666666657,
      "d": 140.00000000001455,
      "v": 60
    },
    {
      "midi": 64,
      "hit": false,
      "t": 78413.33333333324,
      "d": 153.33333333334303,
      "v": 56
    },
    {
      "midi": 76,
      "hit": false,
      "t": 78419.99999999991,
      "d": 706.6666666666715,
      "v": 127
    },
    {
      "midi": 69,
      "hit": false,
      "t": 78419.99999999991,
      "d": 753.333333333343,
      "v": 127
    },
    {
      "midi": 73,
      "hit": false,
      "t": 78419.99999999991,
      "d": 760.0000000000146,
      "v": 127
    },
    {
      "midi": 69,
      "hit": false,
      "t": 78433.33333333324,
      "d": 120.00000000001455,
      "v": 52
    },
    {
      "midi": 40,
      "hit": false,
      "t": 78439.99999999991,
      "d": 693.333333333343,
      "v": 62
    },
    {
      "midi": 64,
      "hit": false,
      "t": 78473.33333333331,
      "d": 700,
      "v": 62
    },
    {
      "midi": 61,
      "hit": false,
      "t": 78666.66666666658,
      "d": 133.33333333332848,
      "v": 56
    },
    {
      "midi": 64,
      "hit": false,
      "t": 78666.66666666658,
      "d": 140,
      "v": 48
    },
    {
      "midi": 69,
      "hit": false,
      "t": 78686.66666666658,
      "d": 93.33333333332848,
      "v": 40
    },
    {
      "midi": 61,
      "hit": false,
      "t": 78933.33333333326,
      "d": 133.33333333332848,
      "v": 58
    },
    {
      "midi": 64,
      "hit": false,
      "t": 78933.33333333326,
      "d": 133.33333333332848,
      "v": 54
    },
    {
      "midi": 69,
      "hit": false,
      "t": 78946.66666666658,
      "d": 86.66666666667152,
      "v": 44
    },
    {
      "midi": 61,
      "hit": false,
      "t": 79206.66666666658,
      "d": 133.33333333332848,
      "v": 62
    },
    {
      "midi": 64,
      "hit": false,
      "t": 79206.66666666658,
      "d": 140,
      "v": 58
    },
    {
      "midi": 37,
      "hit": false,
      "t": 79206.66666666658,
      "d": 360.00000000001455,
      "v": 62
    },
    {
      "midi": 69,
      "hit": false,
      "t": 79219.99999999991,
      "d": 106.66666666667152,
      "v": 48
    },
    {
      "midi": 66,
      "hit": false,
      "t": 79239.99999999999,
      "d": 420,
      "v": 62
    },
    {
      "midi": 73,
      "hit": false,
      "t": 79266.6666666666,
      "d": 100,
      "v": 127
    },
    {
      "midi": 76,
      "hit": false,
      "t": 79266.6666666666,
      "d": 100,
      "v": 127
    },
    {
      "midi": 69,
      "hit": false,
      "t": 79279.99999999993,
      "d": 86.66666666667152,
      "v": 127
    },
    {
      "midi": 64,
      "hit": false,
      "t": 79279.99999999993,
      "d": 93.33333333334303,
      "v": 127
    },
    {
      "midi": 64,
      "hit": false,
      "t": 79473.33333333326,
      "d": 126.66666666667152,
      "v": 56
    },
    {
      "midi": 61,
      "hit": false,
      "t": 79479.99999999993,
      "d": 120,
      "v": 58
    },
    {
      "midi": 64,
      "hit": false,
      "t": 79739.99999999999,
      "d": 2033.3333333333285,
      "v": 62
    },
    {
      "midi": 61,
      "hit": false,
      "t": 79753.33333333326,
      "d": 126.66666666665697,
      "v": 60
    },
    {
      "midi": 64,
      "hit": false,
      "t": 79753.33333333326,
      "d": 133.33333333332848,
      "v": 52
    },
    {
      "midi": 40,
      "hit": false,
      "t": 79766.66666666658,
      "d": 193.33333333332848,
      "v": 62
    },
    {
      "midi": 69,
      "hit": false,
      "t": 79773.33333333326,
      "d": 93.33333333332848,
      "v": 46
    },
    {
      "midi": 64,
      "hit": false,
      "t": 79786.6666666666,
      "d": 953.3333333333285,
      "v": 127
    },
    {
      "midi": 61,
      "hit": false,
      "t": 80033.33333333324,
      "d": 133.33333333332848,
      "v": 60
    },
    {
      "midi": 64,
      "hit": false,
      "t": 80033.33333333324,
      "d": 140,
      "v": 54
    },
    {
      "midi": 69,
      "hit": false,
      "t": 80053.33333333324,
      "d": 100,
      "v": 46
    },
    {
      "midi": 33,
      "hit": false,
      "t": 80053.33333333324,
      "d": 1253.3333333333576,
      "v": 62
    },
    {
      "midi": 76,
      "hit": false,
      "t": 80053.33333333327,
      "d": 673.3333333333285,
      "v": 127
    },
    {
      "midi": 73,
      "hit": false,
      "t": 80053.33333333327,
      "d": 719.9999999999854,
      "v": 127
    },
    {
      "midi": 69,
      "hit": false,
      "t": 80086.6666666666,
      "d": 673.3333333333285,
      "v": 127
    },
    {
      "midi": 64,
      "hit": false,
      "t": 80299.99999999991,
      "d": 133.33333333334303,
      "v": 52
    },
    {
      "midi": 61,
      "hit": false,
      "t": 80306.66666666658,
      "d": 106.66666666667152,
      "v": 58
    },
    {
      "midi": 61,
      "hit": false,
      "t": 80553.33333333326,
      "d": 120,
      "v": 60
    },
    {
      "midi": 64,
      "hit": false,
      "t": 80553.33333333326,
      "d": 133.33333333332848,
      "v": 52
    },
    {
      "midi": 64,
      "hit": false,
      "t": 80819.99999999991,
      "d": 140,
      "v": 56
    },
    {
      "midi": 45,
      "hit": false,
      "t": 80833.33333333324,
      "d": 100,
      "v": 62
    },
    {
      "midi": 61,
      "hit": false,
      "t": 80833.33333333324,
      "d": 120,
      "v": 60
    },
    {
      "midi": 69,
      "hit": false,
      "t": 80846.66666666657,
      "d": 93.33333333334303,
      "v": 50
    },
    {
      "midi": 76,
      "hit": false,
      "t": 80866.66666666658,
      "d": 100,
      "v": 127
    },
    {
      "midi": 69,
      "hit": false,
      "t": 80866.66666666658,
      "d": 106.66666666667152,
      "v": 127
    },
    {
      "midi": 73,
      "hit": false,
      "t": 80866.66666666658,
      "d": 106.66666666667152,
      "v": 127
    },
    {
      "midi": 64,
      "hit": false,
      "t": 80866.66666666658,
      "d": 133.33333333334303,
      "v": 127
    },
    {
      "midi": 61,
      "hit": false,
      "t": 81086.66666666658,
      "d": 126.66666666667152,
      "v": 58
    },
    {
      "midi": 64,
      "hit": false,
      "t": 81086.66666666658,
      "d": 133.33333333334303,
      "v": 52
    },
    {
      "midi": 64,
      "hit": false,
      "t": 81246.66666666669,
      "d": 320,
      "v": 121
    },
    {
      "midi": 37,
      "hit": false,
      "t": 81339.99999999993,
      "d": 206.66666666667152,
      "v": 62
    },
    {
      "midi": 64,
      "hit": false,
      "t": 81353.33333333326,
      "d": 1000,
      "v": 127
    },
    {
      "midi": 61,
      "hit": false,
      "t": 81353.33333333326,
      "d": 133.33333333334303,
      "v": 62
    },
    {
      "midi": 64,
      "hit": false,
      "t": 81353.33333333326,
      "d": 140.00000000001455,
      "v": 54
    },
    {
      "midi": 69,
      "hit": false,
      "t": 81379.99999999993,
      "d": 86.66666666667152,
      "v": 48
    },
    {
      "midi": 61,
      "hit": false,
      "t": 81619.99999999993,
      "d": 133.33333333332848,
      "v": 60
    },
    {
      "midi": 64,
      "hit": false,
      "t": 81619.99999999993,
      "d": 153.33333333332848,
      "v": 56
    },
    {
      "midi": 40,
      "hit": false,
      "t": 81633.33333333326,
      "d": 753.3333333333139,
      "v": 62
    },
    {
      "midi": 69,
      "hit": false,
      "t": 81646.66666666658,
      "d": 100,
      "v": 50
    },
    {
      "midi": 76,
      "hit": false,
      "t": 81673.33333333326,
      "d": 600,
      "v": 127
    },
    {
      "midi": 69,
      "hit": false,
      "t": 81673.33333333326,
      "d": 666.6666666666715,
      "v": 127
    },
    {
      "midi": 73,
      "hit": false,
      "t": 81673.33333333326,
      "d": 666.6666666666715,
      "v": 127
    },
    {
      "midi": 63,
      "hit": false,
      "t": 81680.00000000001,
      "d": 386.6666666666715,
      "v": 121
    },
    {
      "midi": 61,
      "hit": false,
      "t": 81886.66666666658,
      "d": 126.66666666665697,
      "v": 62
    },
    {
      "midi": 64,
      "hit": false,
      "t": 81886.66666666658,
      "d": 139.99999999998545,
      "v": 58
    },
    {
      "midi": 69,
      "hit": false,
      "t": 81906.66666666658,
      "d": 93.33333333332848,
      "v": 54
    },
    {
      "midi": 61,
      "hit": false,
      "t": 82146.66666666657,
      "d": 140,
      "v": 60
    },
    {
      "midi": 64,
      "hit": false,
      "t": 82146.66666666657,
      "d": 153.33333333332848,
      "v": 56
    },
    {
      "midi": 69,
      "hit": false,
      "t": 82166.66666666657,
      "d": 106.66666666667152,
      "v": 52
    },
    {
      "midi": 64,
      "hit": false,
      "t": 82213.33333333336,
      "d": 360,
      "v": 121
    },
    {
      "midi": 37,
      "hit": false,
      "t": 82413.33333333324,
      "d": 566.666666666657,
      "v": 62
    },
    {
      "midi": 61,
      "hit": false,
      "t": 82419.99999999991,
      "d": 140,
      "v": 58
    },
    {
      "midi": 64,
      "hit": false,
      "t": 82433.33333333324,
      "d": 133.33333333334303,
      "v": 58
    },
    {
      "midi": 76,
      "hit": false,
      "t": 82433.33333333326,
      "d": 106.66666666667152,
      "v": 127
    },
    {
      "midi": 73,
      "hit": false,
      "t": 82433.33333333326,
      "d": 120,
      "v": 127
    },
    {
      "midi": 69,
      "hit": false,
      "t": 82433.33333333326,
      "d": 126.66666666667152,
      "v": 127
    },
    {
      "midi": 69,
      "hit": false,
      "t": 82439.99999999991,
      "d": 126.66666666667152,
      "v": 50
    },
    {
      "midi": 61,
      "hit": false,
      "t": 82679.99999999991,
      "d": 126.66666666667152,
      "v": 60
    },
    {
      "midi": 64,
      "hit": false,
      "t": 82679.99999999991,
      "d": 140,
      "v": 56
    },
    {
      "midi": 66,
      "hit": false,
      "t": 82686.66666666669,
      "d": 406.6666666666715,
      "v": 121
    },
    {
      "midi": 69,
      "hit": false,
      "t": 82699.99999999991,
      "d": 100,
      "v": 52
    },
    {
      "midi": 64,
      "hit": false,
      "t": 82913.33333333326,
      "d": 140,
      "v": 127
    },
    {
      "midi": 69,
      "hit": false,
      "t": 82933.33333333324,
      "d": 99.99999999998545,
      "v": 58
    },
    {
      "midi": 61,
      "hit": false,
      "t": 82933.33333333324,
      "d": 139.99999999998545,
      "v": 62
    },
    {
      "midi": 64,
      "hit": false,
      "t": 82933.33333333324,
      "d": 153.33333333331393,
      "v": 56
    },
    {
      "midi": 40,
      "hit": false,
      "t": 82946.66666666657,
      "d": 153.33333333331393,
      "v": 62
    },
    {
      "midi": 64,
      "hit": false,
      "t": 83199.99999999988,
      "d": 166.66666666667152,
      "v": 54
    },
    {
      "midi": 68,
      "hit": false,
      "t": 83206.66666666656,
      "d": 126.66666666665697,
      "v": 62
    },
    {
      "midi": 61,
      "hit": false,
      "t": 83206.66666666656,
      "d": 153.33333333332848,
      "v": 60
    },
    {
      "midi": 68,
      "hit": false,
      "t": 83206.66666666658,
      "d": 726.6666666666715,
      "v": 127
    },
    {
      "midi": 76,
      "hit": false,
      "t": 83233.33333333326,
      "d": 620,
      "v": 127
    },
    {
      "midi": 73,
      "hit": false,
      "t": 83233.33333333326,
      "d": 700,
      "v": 127
    },
    {
      "midi": 68,
      "hit": false,
      "t": 83233.33333333336,
      "d": 633.3333333333285,
      "v": 121
    },
    {
      "midi": 37,
      "hit": false,
      "t": 83239.99999999988,
      "d": 1160.0000000000146,
      "v": 62
    },
    {
      "midi": 36,
      "hit": false,
      "t": 83273.33333333321,
      "d": 66.66666666667152,
      "v": 54
    },
    {
      "midi": 61,
      "hit": false,
      "t": 83479.99999999988,
      "d": 133.33333333334303,
      "v": 56
    },
    {
      "midi": 64,
      "hit": false,
      "t": 83479.99999999988,
      "d": 140.00000000001455,
      "v": 52
    },
    {
      "midi": 68,
      "hit": false,
      "t": 83486.66666666656,
      "d": 106.66666666667152,
      "v": 54
    },
    {
      "midi": 68,
      "hit": false,
      "t": 83699.99999999999,
      "d": 326.6666666666715,
      "v": 62
    },
    {
      "midi": 61,
      "hit": false,
      "t": 83733.33333333323,
      "d": 153.33333333334303,
      "v": 56
    },
    {
      "midi": 68,
      "hit": false,
      "t": 83739.9999999999,
      "d": 140,
      "v": 52
    },
    {
      "midi": 64,
      "hit": false,
      "t": 83739.9999999999,
      "d": 160,
      "v": 50
    },
    {
      "midi": 49,
      "hit": false,
      "t": 83999.9999999999,
      "d": 140,
      "v": 62
    },
    {
      "midi": 68,
      "hit": false,
      "t": 83999.99999999993,
      "d": 126.66666666667152,
      "v": 127
    },
    {
      "midi": 76,
      "hit": false,
      "t": 84006.6666666666,
      "d": 126.66666666667152,
      "v": 127
    },
    {
      "midi": 61,
      "hit": false,
      "t": 84013.33333333323,
      "d": 133.33333333334303,
      "v": 58
    },
    {
      "midi": 64,
      "hit": false,
      "t": 84013.33333333323,
      "d": 153.33333333334303,
      "v": 54
    },
    {
      "midi": 68,
      "hit": false,
      "t": 84013.33333333323,
      "d": 153.33333333334303,
      "v": 56
    },
    {
      "midi": 73,
      "hit": false,
      "t": 84019.99999999993,
      "d": 100,
      "v": 127
    },
    {
      "midi": 68,
      "hit": false,
      "t": 84033.33333333336,
      "d": 326.6666666666715,
      "v": 121
    },
    {
      "midi": 64,
      "hit": false,
      "t": 84039.99999999999,
      "d": 406.6666666666715,
      "v": 60
    },
    {
      "midi": 68,
      "hit": false,
      "t": 84279.9999999999,
      "d": 126.66666666667152,
      "v": 54
    },
    {
      "midi": 61,
      "hit": false,
      "t": 84279.9999999999,
      "d": 133.33333333334303,
      "v": 56
    },
    {
      "midi": 64,
      "hit": false,
      "t": 84279.9999999999,
      "d": 153.33333333334303,
      "v": 52
    },
    {
      "midi": 66,
      "hit": false,
      "t": 84479.99999999999,
      "d": 266.6666666666715,
      "v": 62
    },
    {
      "midi": 68,
      "hit": false,
      "t": 84500.00000000003,
      "d": 2920,
      "v": 121
    },
    {
      "midi": 64,
      "hit": false,
      "t": 84506.6666666666,
      "d": 253.33333333332848,
      "v": 127
    },
    {
      "midi": 40,
      "hit": false,
      "t": 84519.99999999991,
      "d": 239.99999999998545,
      "v": 62
    },
    {
      "midi": 61,
      "hit": false,
      "t": 84533.33333333324,
      "d": 160,
      "v": 58
    },
    {
      "midi": 64,
      "hit": false,
      "t": 84533.33333333324,
      "d": 173.33333333332848,
      "v": 54
    },
    {
      "midi": 68,
      "hit": false,
      "t": 84539.99999999991,
      "d": 153.33333333332848,
      "v": 58
    },
    {
      "midi": 76,
      "hit": false,
      "t": 84799.99999999993,
      "d": 666.6666666666715,
      "v": 127
    },
    {
      "midi": 73,
      "hit": false,
      "t": 84799.99999999993,
      "d": 693.333333333343,
      "v": 127
    },
    {
      "midi": 68,
      "hit": false,
      "t": 84799.99999999993,
      "d": 700.0000000000146,
      "v": 127
    },
    {
      "midi": 68,
      "hit": false,
      "t": 84799.99999999999,
      "d": 726.6666666666715,
      "v": 62
    },
    {
      "midi": 61,
      "hit": false,
      "t": 84806.66666666657,
      "d": 133.33333333334303,
      "v": 54
    },
    {
      "midi": 64,
      "hit": false,
      "t": 84806.66666666657,
      "d": 160.00000000001455,
      "v": 50
    },
    {
      "midi": 68,
      "hit": false,
      "t": 84833.33333333324,
      "d": 106.66666666667152,
      "v": 56
    },
    {
      "midi": 44,
      "hit": false,
      "t": 84833.33333333324,
      "d": 693.3333333333721,
      "v": 62
    },
    {
      "midi": 61,
      "hit": false,
      "t": 85073.33333333326,
      "d": 126.66666666667152,
      "v": 54
    },
    {
      "midi": 64,
      "hit": false,
      "t": 85073.33333333326,
      "d": 153.33333333334303,
      "v": 52
    },
    {
      "midi": 68,
      "hit": false,
      "t": 85079.99999999993,
      "d": 106.66666666667152,
      "v": 54
    },
    {
      "midi": 68,
      "hit": false,
      "t": 85333.33333333327,
      "d": 126.66666666667152,
      "v": 54
    },
    {
      "midi": 61,
      "hit": false,
      "t": 85333.33333333327,
      "d": 133.33333333334303,
      "v": 54
    },
    {
      "midi": 64,
      "hit": false,
      "t": 85333.33333333327,
      "d": 160.00000000001455,
      "v": 52
    },
    {
      "midi": 40,
      "hit": false,
      "t": 85539.99999999994,
      "d": 506.66666666668607,
      "v": 60
    },
    {
      "midi": 76,
      "hit": false,
      "t": 85586.66666666661,
      "d": 120,
      "v": 127
    },
    {
      "midi": 68,
      "hit": false,
      "t": 85586.66666666661,
      "d": 160,
      "v": 127
    },
    {
      "midi": 73,
      "hit": false,
      "t": 85599.99999999994,
      "d": 126.66666666667152,
      "v": 127
    },
    {
      "midi": 61,
      "hit": false,
      "t": 85599.99999999994,
      "d": 133.33333333334303,
      "v": 56
    },
    {
      "midi": 64,
      "hit": false,
      "t": 85599.99999999994,
      "d": 153.33333333334303,
      "v": 52
    },
    {
      "midi": 68,
      "hit": false,
      "t": 85606.66666666661,
      "d": 126.66666666667152,
      "v": 54
    },
    {
      "midi": 69,
      "hit": false,
      "t": 85619.99999999999,
      "d": 373.3333333333285,
      "v": 62
    },
    {
      "midi": 61,
      "hit": false,
      "t": 85866.66666666661,
      "d": 120.00000000001455,
      "v": 50
    },
    {
      "midi": 64,
      "hit": false,
      "t": 85873.33333333328,
      "d": 126.66666666667152,
      "v": 50
    },
    {
      "midi": 68,
      "hit": false,
      "t": 85879.99999999996,
      "d": 86.66666666667152,
      "v": 50
    },
    {
      "midi": 68,
      "hit": false,
      "t": 86099.99999999999,
      "d": 2473.3333333333285,
      "v": 62
    },
    {
      "midi": 68,
      "hit": false,
      "t": 86113.33333333328,
      "d": 93.33333333332848,
      "v": 127
    },
    {
      "midi": 61,
      "hit": false,
      "t": 86113.3333333333,
      "d": 120,
      "v": 56
    },
    {
      "midi": 64,
      "hit": false,
      "t": 86119.99999999997,
      "d": 126.66666666665697,
      "v": 54
    },
    {
      "midi": 68,
      "hit": false,
      "t": 86133.3333333333,
      "d": 120,
      "v": 58
    },
    {
      "midi": 44,
      "hit": false,
      "t": 86133.3333333333,
      "d": 266.6666666666715,
      "v": 62
    },
    {
      "midi": 68,
      "hit": false,
      "t": 86399.99999999994,
      "d": 886.6666666666715,
      "v": 127
    },
    {
      "midi": 63,
      "hit": false,
      "t": 86399.99999999997,
      "d": 133.33333333332848,
      "v": 62
    },
    {
      "midi": 68,
      "hit": false,
      "t": 86399.99999999997,
      "d": 140,
      "v": 62
    },
    {
      "midi": 60,
      "hit": false,
      "t": 86413.3333333333,
      "d": 193.33333333334303,
      "v": 52
    },
    {
      "midi": 32,
      "hit": false,
      "t": 86413.3333333333,
      "d": 1193.3333333333576,
      "v": 62
    },
    {
      "midi": 63,
      "hit": false,
      "t": 86666.66666666664,
      "d": 126.66666666667152,
      "v": 62
    },
    {
      "midi": 60,
      "hit": false,
      "t": 86666.66666666664,
      "d": 133.33333333334303,
      "v": 40
    },
    {
      "midi": 68,
      "hit": false,
      "t": 86673.33333333331,
      "d": 126.66666666667152,
      "v": 62
    },
    {
      "midi": 60,
      "hit": false,
      "t": 86906.66666666666,
      "d": 160,
      "v": 56
    },
    {
      "midi": 68,
      "hit": false,
      "t": 86913.33333333333,
      "d": 160,
      "v": 62
    },
    {
      "midi": 63,
      "hit": false,
      "t": 86920,
      "d": 133.33333333332848,
      "v": 62
    },
    {
      "midi": 44,
      "hit": false,
      "t": 87173.33333333333,
      "d": 160,
      "v": 62
    },
    {
      "midi": 63,
      "hit": false,
      "t": 87186.66666666666,
      "d": 140,
      "v": 62
    },
    {
      "midi": 60,
      "hit": false,
      "t": 87199.99999999999,
      "d": 133.33333333334303,
      "v": 54
    },
    {
      "midi": 68,
      "hit": false,
      "t": 87199.99999999999,
      "d": 133.33333333334303,
      "v": 62
    },
    {
      "midi": 80,
      "hit": false,
      "t": 87213.33333333327,
      "d": 86.66666666667152,
      "v": 127
    },
    {
      "midi": 72,
      "hit": false,
      "t": 87213.33333333327,
      "d": 106.66666666667152,
      "v": 127
    },
    {
      "midi": 75,
      "hit": false,
      "t": 87239.99999999994,
      "d": 86.66666666667152,
      "v": 127
    },
    {
      "midi": 63,
      "hit": false,
      "t": 87466.66666666666,
      "d": 120,
      "v": 60
    },
    {
      "midi": 68,
      "hit": false,
      "t": 87466.66666666666,
      "d": 126.66666666667152,
      "v": 62
    },
    {
      "midi": 60,
      "hit": false,
      "t": 87473.33333333333,
      "d": 93.33333333332848,
      "v": 46
    },
    {
      "midi": 68,
      "hit": false,
      "t": 87540.00000000003,
      "d": 406.6666666666715,
      "v": 121
    },
    {
      "midi": 63,
      "hit": false,
      "t": 87706.66666666666,
      "d": 153.33333333334303,
      "v": 62
    },
    {
      "midi": 36,
      "hit": false,
      "t": 87706.66666666666,
      "d": 193.33333333334303,
      "v": 62
    },
    {
      "midi": 60,
      "hit": false,
      "t": 87719.99999999999,
      "d": 126.66666666667152,
      "v": 52
    },
    {
      "midi": 68,
      "hit": false,
      "t": 87719.99999999999,
      "d": 133.33333333334303,
      "v": 62
    },
    {
      "midi": 68,
      "hit": false,
      "t": 87733.33333333328,
      "d": 926.6666666666715,
      "v": 127
    },
    {
      "midi": 60,
      "hit": false,
      "t": 87980,
      "d": 140,
      "v": 54
    },
    {
      "midi": 63,
      "hit": false,
      "t": 87980,
      "d": 140,
      "v": 62
    },
    {
      "midi": 68,
      "hit": false,
      "t": 87980,
      "d": 153.33333333332848,
      "v": 62
    },
    {
      "midi": 39,
      "hit": false,
      "t": 88000,
      "d": 699.9999999999854,
      "v": 62
    },
    {
      "midi": 63,
      "hit": false,
      "t": 88013.33333333337,
      "d": 426.6666666666715,
      "v": 121
    },
    {
      "midi": 72,
      "hit": false,
      "t": 88019.99999999996,
      "d": 633.3333333333285,
      "v": 127
    },
    {
      "midi": 75,
      "hit": false,
      "t": 88033.33333333328,
      "d": 660,
      "v": 127
    },
    {
      "midi": 60,
      "hit": false,
      "t": 88246.66666666666,
      "d": 120,
      "v": 54
    },
    {
      "midi": 63,
      "hit": false,
      "t": 88246.66666666666,
      "d": 120,
      "v": 60
    },
    {
      "midi": 68,
      "hit": false,
      "t": 88253.33333333333,
      "d": 126.66666666665697,
      "v": 62
    },
    {
      "midi": 60,
      "hit": false,
      "t": 88506.66666666666,
      "d": 126.66666666667152,
      "v": 54
    },
    {
      "midi": 63,
      "hit": false,
      "t": 88513.33333333333,
      "d": 120,
      "v": 62
    },
    {
      "midi": 68,
      "hit": false,
      "t": 88520,
      "d": 126.66666666665697,
      "v": 62
    },
    {
      "midi": 64,
      "hit": false,
      "t": 88573.33333333337,
      "d": 393.3333333333285,
      "v": 121
    },
    {
      "midi": 36,
      "hit": false,
      "t": 88739.99999999999,
      "d": 533.333333333343,
      "v": 62
    },
    {
      "midi": 60,
      "hit": false,
      "t": 88773.33333333331,
      "d": 133.33333333332848,
      "v": 54
    },
    {
      "midi": 63,
      "hit": false,
      "t": 88773.33333333331,
      "d": 133.33333333332848,
      "v": 62
    },
    {
      "midi": 68,
      "hit": false,
      "t": 88773.33333333331,
      "d": 140,
      "v": 62
    },
    {
      "midi": 68,
      "hit": false,
      "t": 88799.99999999996,
      "d": 93.33333333332848,
      "v": 127
    },
    {
      "midi": 75,
      "hit": false,
      "t": 88799.99999999996,
      "d": 106.66666666665697,
      "v": 127
    },
    {
      "midi": 72,
      "hit": false,
      "t": 88813.33333333328,
      "d": 73.33333333332848,
      "v": 127
    },
    {
      "midi": 60,
      "hit": false,
      "t": 89039.99999999999,
      "d": 126.66666666667152,
      "v": 52
    },
    {
      "midi": 63,
      "hit": false,
      "t": 89039.99999999999,
      "d": 126.66666666667152,
      "v": 60
    },
    {
      "midi": 68,
      "hit": false,
      "t": 89039.99999999999,
      "d": 126.66666666667152,
      "v": 62
    },
    {
      "midi": 66,
      "hit": false,
      "t": 89066.6666666667,
      "d": 360,
      "v": 121
    },
    {
      "midi": 63,
      "hit": false,
      "t": 89300,
      "d": 133.33333333332848,
      "v": 62
    },
    {
      "midi": 68,
      "hit": false,
      "t": 89300,
      "d": 153.33333333332848,
      "v": 62
    },
    {
      "midi": 60,
      "hit": false,
      "t": 89300,
      "d": 160,
      "v": 54
    },
    {
      "midi": 39,
      "hit": false,
      "t": 89313.33333333333,
      "d": 153.33333333334303,
      "v": 62
    },
    {
      "midi": 64,
      "hit": false,
      "t": 89346.66666666661,
      "d": 840,
      "v": 90
    },
    {
      "midi": 68,
      "hit": false,
      "t": 89553.33333333337,
      "d": 3133.3333333333285,
      "v": 121
    },
    {
      "midi": 61,
      "hit": false,
      "t": 89600,
      "d": 133.33333333334303,
      "v": 58
    },
    {
      "midi": 68,
      "hit": false,
      "t": 89600,
      "d": 153.33333333334303,
      "v": 56
    },
    {
      "midi": 64,
      "hit": false,
      "t": 89606.66666666667,
      "d": 153.33333333334303,
      "v": 56
    },
    {
      "midi": 37,
      "hit": false,
      "t": 89633.33333333334,
      "d": 1233.3333333333721,
      "v": 62
    },
    {
      "midi": 76,
      "hit": false,
      "t": 89646.66666666661,
      "d": 460,
      "v": 127
    },
    {
      "midi": 61,
      "hit": false,
      "t": 89866.66666666669,
      "d": 106.66666666667152,
      "v": 56
    },
    {
      "midi": 64,
      "hit": false,
      "t": 89866.66666666669,
      "d": 133.33333333334303,
      "v": 48
    },
    {
      "midi": 68,
      "hit": false,
      "t": 89866.66666666669,
      "d": 133.33333333334303,
      "v": 52
    },
    {
      "midi": 68,
      "hit": false,
      "t": 90086.66666666664,
      "d": 273.3333333333285,
      "v": 62
    },
    {
      "midi": 64,
      "hit": false,
      "t": 90113.33333333336,
      "d": 160.00000000001455,
      "v": 50
    },
    {
      "midi": 68,
      "hit": false,
      "t": 90113.33333333336,
      "d": 160.00000000001455,
      "v": 54
    },
    {
      "midi": 61,
      "hit": false,
      "t": 90120.00000000003,
      "d": 126.66666666667152,
      "v": 56
    },
    {
      "midi": 73,
      "hit": false,
      "t": 90379.99999999994,
      "d": 93.33333333332848,
      "v": 127
    },
    {
      "midi": 68,
      "hit": false,
      "t": 90379.99999999994,
      "d": 100,
      "v": 127
    },
    {
      "midi": 49,
      "hit": false,
      "t": 90380.00000000004,
      "d": 166.66666666665697,
      "v": 62
    },
    {
      "midi": 76,
      "hit": false,
      "t": 90386.66666666661,
      "d": 73.33333333332848,
      "v": 127
    },
    {
      "midi": 64,
      "hit": false,
      "t": 90399.99999999997,
      "d": 460,
      "v": 62
    },
    {
      "midi": 61,
      "hit": false,
      "t": 90400.00000000004,
      "d": 133.33333333332848,
      "v": 58
    },
    {
      "midi": 68,
      "hit": false,
      "t": 90400.00000000004,
      "d": 153.33333333332848,
      "v": 58
    },
    {
      "midi": 64,
      "hit": false,
      "t": 90400.00000000004,
      "d": 160,
      "v": 52
    },
    {
      "midi": 61,
      "hit": false,
      "t": 90666.66666666672,
      "d": 120,
      "v": 56
    },
    {
      "midi": 68,
      "hit": false,
      "t": 90666.66666666672,
      "d": 133.33333333332848,
      "v": 58
    },
    {
      "midi": 64,
      "hit": false,
      "t": 90666.66666666672,
      "d": 140,
      "v": 52
    },
    {
      "midi": 64,
      "hit": false,
      "t": 90913.33333333327,
      "d": 1019.9999999999854,
      "v": 127
    },
    {
      "midi": 66,
      "hit": false,
      "t": 90913.3333333333,
      "d": 293.3333333333285,
      "v": 62
    },
    {
      "midi": 61,
      "hit": false,
      "t": 90920.00000000004,
      "d": 140,
      "v": 58
    },
    {
      "midi": 68,
      "hit": false,
      "t": 90920.00000000004,
      "d": 140,
      "v": 58
    },
    {
      "midi": 64,
      "hit": false,
      "t": 90920.00000000004,
      "d": 166.66666666667152,
      "v": 56
    },
    {
      "midi": 40,
      "hit": false,
      "t": 90920.00000000004,
      "d": 233.33333333334303,
      "v": 62
    },
    {
      "midi": 68,
      "hit": false,
      "t": 91186.6666666666,
      "d": 773.3333333333285,
      "v": 127
    },
    {
      "midi": 76,
      "hit": false,
      "t": 91199.99999999993,
      "d": 693.3333333333285,
      "v": 127
    },
    {
      "midi": 73,
      "hit": false,
      "t": 91199.99999999993,
      "d": 733.3333333333285,
      "v": 127
    },
    {
      "midi": 61,
      "hit": false,
      "t": 91200.00000000006,
      "d": 133.33333333332848,
      "v": 56
    },
    {
      "midi": 64,
      "hit": false,
      "t": 91206.66666666673,
      "d": 139.99999999998545,
      "v": 52
    },
    {
      "midi": 68,
      "hit": false,
      "t": 91206.66666666673,
      "d": 139.99999999998545,
      "v": 54
    },
    {
      "midi": 44,
      "hit": false,
      "t": 91220.00000000006,
      "d": 733.3333333333285,
      "v": 62
    },
    {
      "midi": 68,
      "hit": false,
      "t": 91233.3333333333,
      "d": 773.3333333333285,
      "v": 62
    },
    {
      "midi": 61,
      "hit": false,
      "t": 91466.66666666672,
      "d": 126.66666666667152,
      "v": 56
    },
    {
      "midi": 68,
      "hit": false,
      "t": 91466.66666666672,
      "d": 133.33333333334303,
      "v": 58
    },
    {
      "midi": 64,
      "hit": false,
      "t": 91466.66666666672,
      "d": 140.00000000001455,
      "v": 54
    },
    {
      "midi": 61,
      "hit": false,
      "t": 91720.00000000006,
      "d": 126.66666666667152,
      "v": 56
    },
    {
      "midi": 64,
      "hit": false,
      "t": 91720.00000000006,
      "d": 140,
      "v": 56
    },
    {
      "midi": 68,
      "hit": false,
      "t": 91720.00000000006,
      "d": 140,
      "v": 56
    },
    {
      "midi": 68,
      "hit": false,
      "t": 91980.00000000006,
      "d": 153.33333333334303,
      "v": 62
    },
    {
      "midi": 64,
      "hit": false,
      "t": 91980.00000000006,
      "d": 160.00000000001455,
      "v": 58
    },
    {
      "midi": 61,
      "hit": false,
      "t": 91986.66666666673,
      "d": 140,
      "v": 60
    },
    {
      "midi": 37,
      "hit": false,
      "t": 92006.66666666673,
      "d": 526.666666666657,
      "v": 62
    },
    {
      "midi": 76,
      "hit": false,
      "t": 92039.99999999993,
      "d": 126.66666666667152,
      "v": 127
    },
    {
      "midi": 68,
      "hit": false,
      "t": 92039.99999999993,
      "d": 160.00000000001455,
      "v": 127
    },
    {
      "midi": 73,
      "hit": false,
      "t": 92066.6666666666,
      "d": 106.66666666667152,
      "v": 127
    },
    {
      "midi": 64,
      "hit": false,
      "t": 92066.66666666663,
      "d": 433.3333333333285,
      "v": 62
    },
    {
      "midi": 61,
      "hit": false,
      "t": 92253.3333333334,
      "d": 133.33333333332848,
      "v": 60
    },
    {
      "midi": 68,
      "hit": false,
      "t": 92253.3333333334,
      "d": 133.33333333332848,
      "v": 60
    },
    {
      "midi": 64,
      "hit": false,
      "t": 92253.3333333334,
      "d": 153.33333333332848,
      "v": 56
    },
    {
      "midi": 44,
      "hit": false,
      "t": 92506.66666666673,
      "d": 160,
      "v": 62
    },
    {
      "midi": 68,
      "hit": false,
      "t": 92520.00000000006,
      "d": 140,
      "v": 62
    },
    {
      "midi": 61,
      "hit": false,
      "t": 92520.00000000006,
      "d": 160,
      "v": 62
    },
    {
      "midi": 64,
      "hit": false,
      "t": 92520.00000000006,
      "d": 160,
      "v": 60
    },
    {
      "midi": 64,
      "hit": false,
      "t": 92553.33333333327,
      "d": 106.66666666667152,
      "v": 127
    },
    {
      "midi": 62,
      "hit": false,
      "t": 92566.66666666663,
      "d": 953.3333333333285,
      "v": 62
    },
    {
      "midi": 68,
      "hit": false,
      "t": 92813.33333333339,
      "d": 186.66666666667152,
      "v": 62
    },
    {
      "midi": 62,
      "hit": false,
      "t": 92813.33333333339,
      "d": 193.33333333334303,
      "v": 62
    },
    {
      "midi": 64,
      "hit": false,
      "t": 92813.33333333339,
      "d": 200.00000000001455,
      "v": 62
    },
    {
      "midi": 40,
      "hit": false,
      "t": 92833.33333333339,
      "d": 253.33333333334303,
      "v": 62
    },
    {
      "midi": 74,
      "hit": false,
      "t": 92879.99999999994,
      "d": 66.66666666667152,
      "v": 127
    },
    {
      "midi": 68,
      "hit": false,
      "t": 92879.99999999994,
      "d": 73.33333333334303,
      "v": 127
    },
    {
      "midi": 57,
      "hit": false,
      "t": 93640.00000000003,
      "d": 186.66666666667152,
      "v": 121
    },
    {
      "midi": 57,
      "hit": false,
      "t": 94153.33333333337,
      "d": 173.33333333332848,
      "v": 121
    },
    {
      "midi": 61,
      "hit": false,
      "t": 94433.33333333337,
      "d": 160,
      "v": 121
    },
    {
      "midi": 61,
      "hit": false,
      "t": 94966.6666666667,
      "d": 166.66666666667152,
      "v": 121
    },
    {
      "midi": 64,
      "hit": false,
      "t": 95233.33333333337,
      "d": 193.33333333332848,
      "v": 118
    },
    {
      "midi": 64,
      "hit": false,
      "t": 95766.6666666667,
      "d": 200,
      "v": 112
    },
    {
      "midi": 69,
      "hit": false,
      "t": 95973.3333333334,
      "d": 120,
      "v": 62
    },
    {
      "midi": 62,
      "hit": false,
      "t": 95973.3333333334,
      "d": 133.33333333332848,
      "v": 62
    },
    {
      "midi": 66,
      "hit": false,
      "t": 95973.3333333334,
      "d": 133.33333333332848,
      "v": 62
    },
    {
      "midi": 38,
      "hit": false,
      "t": 95973.3333333334,
      "d": 1173.333333333343,
      "v": 62
    },
    {
      "midi": 74,
      "hit": false,
      "t": 95999.99999999996,
      "d": 566.6666666666715,
      "v": 127
    },
    {
      "midi": 66,
      "hit": false,
      "t": 95999.99999999996,
      "d": 633.333333333343,
      "v": 127
    },
    {
      "midi": 69,
      "hit": false,
      "t": 95999.99999999996,
      "d": 640.0000000000146,
      "v": 127
    },
    {
      "midi": 69,
      "hit": false,
      "t": 96033.33333333337,
      "d": 500,
      "v": 121
    },
    {
      "midi": 62,
      "hit": false,
      "t": 96033.33333333337,
      "d": 3240,
      "v": 121
    },
    {
      "midi": 66,
      "hit": false,
      "t": 96220.00000000006,
      "d": 140,
      "v": 56
    },
    {
      "midi": 62,
      "hit": false,
      "t": 96240.00000000006,
      "d": 106.66666666667152,
      "v": 50
    },
    {
      "midi": 69,
      "hit": false,
      "t": 96246.66666666673,
      "d": 66.66666666667152,
      "v": 46
    },
    {
      "midi": 66,
      "hit": false,
      "t": 96480.00000000003,
      "d": 2766.6666666666715,
      "v": 121
    },
    {
      "midi": 66,
      "hit": false,
      "t": 96480.00000000006,
      "d": 133.33333333334303,
      "v": 56
    },
    {
      "midi": 57,
      "hit": false,
      "t": 96486.6666666667,
      "d": 2720,
      "v": 106
    },
    {
      "midi": 62,
      "hit": false,
      "t": 96486.66666666673,
      "d": 120,
      "v": 52
    },
    {
      "midi": 69,
      "hit": false,
      "t": 96506.66666666673,
      "d": 66.66666666667152,
      "v": 46
    },
    {
      "midi": 66,
      "hit": false,
      "t": 96719.99999999997,
      "d": 73.33333333332848,
      "v": 127
    },
    {
      "midi": 69,
      "hit": false,
      "t": 96719.99999999997,
      "d": 73.33333333332848,
      "v": 127
    },
    {
      "midi": 74,
      "hit": false,
      "t": 96733.3333333333,
      "d": 66.66666666667152,
      "v": 127
    },
    {
      "midi": 50,
      "hit": false,
      "t": 96753.3333333334,
      "d": 66.66666666667152,
      "v": 62
    },
    {
      "midi": 66,
      "hit": false,
      "t": 96753.3333333334,
      "d": 140.00000000001455,
      "v": 54
    },
    {
      "midi": 62,
      "hit": false,
      "t": 96766.66666666673,
      "d": 133.3333333333576,
      "v": 52
    },
    {
      "midi": 69,
      "hit": false,
      "t": 96773.3333333334,
      "d": 93.33333333334303,
      "v": 48
    },
    {
      "midi": 62,
      "hit": false,
      "t": 97033.33333333342,
      "d": 100,
      "v": 46
    },
    {
      "midi": 66,
      "hit": false,
      "t": 97033.33333333342,
      "d": 100,
      "v": 50
    },
    {
      "midi": 62,
      "hit": false,
      "t": 97300.00000000007,
      "d": 126.66666666665697,
      "v": 50
    },
    {
      "midi": 66,
      "hit": false,
      "t": 97300.00000000007,
      "d": 133.33333333332848,
      "v": 56
    },
    {
      "midi": 42,
      "hit": false,
      "t": 97300.00000000007,
      "d": 233.33333333332848,
      "v": 62
    },
    {
      "midi": 69,
      "hit": false,
      "t": 97320.00000000007,
      "d": 73.33333333332848,
      "v": 46
    },
    {
      "midi": 66,
      "hit": false,
      "t": 97553.3333333333,
      "d": 666.6666666666715,
      "v": 127
    },
    {
      "midi": 66,
      "hit": false,
      "t": 97553.3333333334,
      "d": 153.33333333332848,
      "v": 58
    },
    {
      "midi": 62,
      "hit": false,
      "t": 97566.66666666673,
      "d": 133.33333333332848,
      "v": 48
    },
    {
      "midi": 74,
      "hit": false,
      "t": 97573.3333333333,
      "d": 600,
      "v": 127
    },
    {
      "midi": 69,
      "hit": false,
      "t": 97573.3333333333,
      "d": 673.333333333343,
      "v": 127
    },
    {
      "midi": 69,
      "hit": false,
      "t": 97580.00000000006,
      "d": 106.66666666667152,
      "v": 48
    },
    {
      "midi": 45,
      "hit": false,
      "t": 97580.00000000006,
      "d": 720,
      "v": 62
    },
    {
      "midi": 62,
      "hit": false,
      "t": 97833.3333333334,
      "d": 120,
      "v": 48
    },
    {
      "midi": 66,
      "hit": false,
      "t": 97833.3333333334,
      "d": 133.33333333332848,
      "v": 56
    },
    {
      "midi": 62,
      "hit": false,
      "t": 98100.00000000006,
      "d": 133.33333333332848,
      "v": 50
    },
    {
      "midi": 66,
      "hit": false,
      "t": 98100.00000000006,
      "d": 140,
      "v": 56
    },
    {
      "midi": 69,
      "hit": false,
      "t": 98120.00000000006,
      "d": 100,
      "v": 46
    },
    {
      "midi": 66,
      "hit": false,
      "t": 98333.33333333331,
      "d": 106.66666666667152,
      "v": 127
    },
    {
      "midi": 74,
      "hit": false,
      "t": 98333.33333333331,
      "d": 106.66666666667152,
      "v": 127
    },
    {
      "midi": 69,
      "hit": false,
      "t": 98333.33333333331,
      "d": 120,
      "v": 127
    },
    {
      "midi": 42,
      "hit": false,
      "t": 98366.66666666673,
      "d": 260,
      "v": 62
    },
    {
      "midi": 62,
      "hit": false,
      "t": 98373.3333333334,
      "d": 133.33333333332848,
      "v": 54
    },
    {
      "midi": 66,
      "hit": false,
      "t": 98373.3333333334,
      "d": 140,
      "v": 58
    },
    {
      "midi": 69,
      "hit": false,
      "t": 98386.66666666673,
      "d": 106.66666666667152,
      "v": 52
    },
    {
      "midi": 66,
      "hit": false,
      "t": 98640.00000000006,
      "d": 126.66666666667152,
      "v": 56
    },
    {
      "midi": 62,
      "hit": false,
      "t": 98646.66666666673,
      "d": 120,
      "v": 48
    },
    {
      "midi": 69,
      "hit": false,
      "t": 98673.3333333334,
      "d": 53.33333333332848,
      "v": 38
    },
    {
      "midi": 66,
      "hit": false,
      "t": 98866.66666666664,
      "d": 120,
      "v": 127
    },
    {
      "midi": 45,
      "hit": false,
      "t": 98900.00000000006,
      "d": 200.00000000001455,
      "v": 62
    },
    {
      "midi": 62,
      "hit": false,
      "t": 98906.66666666673,
      "d": 120.00000000001455,
      "v": 54
    },
    {
      "midi": 66,
      "hit": false,
      "t": 98913.3333333334,
      "d": 106.66666666667152,
      "v": 54
    },
    {
      "midi": 69,
      "hit": false,
      "t": 98933.3333333334,
      "d": 66.66666666667152,
      "v": 48
    },
    {
      "midi": 66,
      "hit": false,
      "t": 99133.33333333331,
      "d": 733.333333333343,
      "v": 127
    },
    {
      "midi": 74,
      "hit": false,
      "t": 99139.99999999999,
      "d": 726.6666666666715,
      "v": 127
    },
    {
      "midi": 69,
      "hit": false,
      "t": 99139.99999999999,
      "d": 753.333333333343,
      "v": 127
    },
    {
      "midi": 66,
      "hit": false,
      "t": 99153.3333333334,
      "d": 159.99999999998545,
      "v": 58
    },
    {
      "midi": 62,
      "hit": false,
      "t": 99166.66666666673,
      "d": 133.33333333332848,
      "v": 52
    },
    {
      "midi": 69,
      "hit": false,
      "t": 99180.00000000006,
      "d": 120,
      "v": 48
    },
    {
      "midi": 38,
      "hit": false,
      "t": 99180.00000000006,
      "d": 1266.666666666657,
      "v": 62
    },
    {
      "midi": 66,
      "hit": false,
      "t": 99433.33333333339,
      "d": 133.33333333334303,
      "v": 58
    },
    {
      "midi": 62,
      "hit": false,
      "t": 99440.00000000006,
      "d": 126.66666666667152,
      "v": 50
    },
    {
      "midi": 69,
      "hit": false,
      "t": 99466.66666666673,
      "d": 73.33333333332848,
      "v": 42
    },
    {
      "midi": 62,
      "hit": false,
      "t": 99700.00000000006,
      "d": 126.66666666667152,
      "v": 52
    },
    {
      "midi": 66,
      "hit": false,
      "t": 99700.00000000006,
      "d": 126.66666666667152,
      "v": 58
    },
    {
      "midi": 69,
      "hit": false,
      "t": 99713.33333333339,
      "d": 86.66666666667152,
      "v": 46
    },
    {
      "midi": 66,
      "hit": false,
      "t": 99966.66666666666,
      "d": 86.66666666667152,
      "v": 127
    },
    {
      "midi": 69,
      "hit": false,
      "t": 99966.66666666666,
      "d": 86.66666666667152,
      "v": 127
    },
    {
      "midi": 74,
      "hit": false,
      "t": 99966.66666666666,
      "d": 100,
      "v": 127
    },
    {
      "midi": 57,
      "hit": false,
      "t": 99966.6666666667,
      "d": 560,
      "v": 115
    },
    {
      "midi": 66,
      "hit": false,
      "t": 99966.6666666667,
      "d": 600,
      "v": 121
    },
    {
      "midi": 50,
      "hit": false,
      "t": 99966.66666666673,
      "d": 86.66666666665697,
      "v": 62
    },
    {
      "midi": 62,
      "hit": false,
      "t": 99966.66666666673,
      "d": 133.33333333332848,
      "v": 56
    },
    {
      "midi": 66,
      "hit": false,
      "t": 99966.66666666673,
      "d": 133.33333333332848,
      "v": 60
    },
    {
      "midi": 69,
      "hit": false,
      "t": 99980.00000000006,
      "d": 120,
      "v": 54
    },
    {
      "midi": 62,
      "hit": false,
      "t": 100233.33333333339,
      "d": 120,
      "v": 50
    },
    {
      "midi": 66,
      "hit": false,
      "t": 100233.33333333339,
      "d": 120,
      "v": 56
    },
    {
      "midi": 69,
      "hit": false,
      "t": 100266.66666666672,
      "d": 60,
      "v": 44
    },
    {
      "midi": 62,
      "hit": false,
      "t": 100486.66666666672,
      "d": 133.33333333334303,
      "v": 54
    },
    {
      "midi": 66,
      "hit": false,
      "t": 100486.66666666672,
      "d": 140.00000000001455,
      "v": 58
    },
    {
      "midi": 69,
      "hit": false,
      "t": 100506.66666666672,
      "d": 106.66666666667152,
      "v": 48
    },
    {
      "midi": 42,
      "hit": false,
      "t": 100506.66666666672,
      "d": 220.00000000001455,
      "v": 62
    },
    {
      "midi": 66,
      "hit": false,
      "t": 100519.99999999999,
      "d": 206.66666666667152,
      "v": 127
    },
    {
      "midi": 62,
      "hit": false,
      "t": 100740.00000000003,
      "d": 406.6666666666715,
      "v": 121
    },
    {
      "midi": 66,
      "hit": false,
      "t": 100766.66666666666,
      "d": 700,
      "v": 127
    },
    {
      "midi": 62,
      "hit": false,
      "t": 100773.3333333334,
      "d": 153.33333333332848,
      "v": 58
    },
    {
      "midi": 66,
      "hit": false,
      "t": 100773.3333333334,
      "d": 160,
      "v": 60
    },
    {
      "midi": 74,
      "hit": false,
      "t": 100779.99999999999,
      "d": 566.6666666666715,
      "v": 127
    },
    {
      "midi": 69,
      "hit": false,
      "t": 100786.66666666666,
      "d": 700,
      "v": 127
    },
    {
      "midi": 69,
      "hit": false,
      "t": 100786.66666666673,
      "d": 133.33333333332848,
      "v": 54
    },
    {
      "midi": 45,
      "hit": false,
      "t": 100800.00000000006,
      "d": 766.6666666666715,
      "v": 62
    },
    {
      "midi": 66,
      "hit": false,
      "t": 101053.3333333334,
      "d": 120,
      "v": 60
    },
    {
      "midi": 69,
      "hit": false,
      "t": 101066.66666666673,
      "d": 86.66666666667152,
      "v": 46
    },
    {
      "midi": 62,
      "hit": false,
      "t": 101066.66666666673,
      "d": 100,
      "v": 54
    },
    {
      "midi": 57,
      "hit": false,
      "t": 101300.00000000003,
      "d": 466.6666666666715,
      "v": 121
    },
    {
      "midi": 62,
      "hit": false,
      "t": 101313.3333333334,
      "d": 133.33333333332848,
      "v": 56
    },
    {
      "midi": 66,
      "hit": false,
      "t": 101313.3333333334,
      "d": 133.33333333332848,
      "v": 58
    },
    {
      "midi": 69,
      "hit": false,
      "t": 101333.3333333334,
      "d": 100,
      "v": 50
    },
    {
      "midi": 66,
      "hit": false,
      "t": 101566.66666666666,
      "d": 100,
      "v": 127
    },
    {
      "midi": 69,
      "hit": false,
      "t": 101566.66666666666,
      "d": 100,
      "v": 127
    },
    {
      "midi": 74,
      "hit": false,
      "t": 101566.66666666666,
      "d": 120,
      "v": 127
    },
    {
      "midi": 69,
      "hit": false,
      "t": 101600.00000000006,
      "d": 120,
      "v": 54
    },
    {
      "midi": 62,
      "hit": false,
      "t": 101600.00000000006,
      "d": 126.66666666667152,
      "v": 58
    },
    {
      "midi": 66,
      "hit": false,
      "t": 101600.00000000006,
      "d": 133.33333333334303,
      "v": 60
    },
    {
      "midi": 42,
      "hit": false,
      "t": 101613.33333333339,
      "d": 453.33333333334303,
      "v": 62
    },
    {
      "midi": 66,
      "hit": false,
      "t": 101820.00000000003,
      "d": 433.33333333331393,
      "v": 121
    },
    {
      "midi": 62,
      "hit": false,
      "t": 101833.33333333336,
      "d": 399.99999999998545,
      "v": 121
    },
    {
      "midi": 62,
      "hit": false,
      "t": 101866.66666666673,
      "d": 120,
      "v": 56
    },
    {
      "midi": 66,
      "hit": false,
      "t": 101866.66666666673,
      "d": 120,
      "v": 58
    },
    {
      "midi": 69,
      "hit": false,
      "t": 101880.00000000006,
      "d": 66.66666666667152,
      "v": 46
    },
    {
      "midi": 64,
      "hit": false,
      "t": 102053.33333333333,
      "d": 1206.666666666686,
      "v": 127
    },
    {
      "midi": 45,
      "hit": false,
      "t": 102100.00000000006,
      "d": 260,
      "v": 62
    },
    {
      "midi": 66,
      "hit": false,
      "t": 102106.66666666673,
      "d": 166.66666666665697,
      "v": 62
    },
    {
      "midi": 62,
      "hit": false,
      "t": 102120.00000000006,
      "d": 120,
      "v": 60
    },
    {
      "midi": 69,
      "hit": false,
      "t": 102133.33333333339,
      "d": 100,
      "v": 52
    },
    {
      "midi": 64,
      "hit": false,
      "t": 102346.66666666667,
      "d": 3373.3333333333285,
      "v": 118
    },
    {
      "midi": 76,
      "hit": false,
      "t": 102353.33333333333,
      "d": 673.333333333343,
      "v": 127
    },
    {
      "midi": 61,
      "hit": false,
      "t": 102366.66666666667,
      "d": 3373.3333333333285,
      "v": 121
    },
    {
      "midi": 69,
      "hit": false,
      "t": 102380,
      "d": 666.6666666666715,
      "v": 127
    },
    {
      "midi": 73,
      "hit": false,
      "t": 102380,
      "d": 666.6666666666715,
      "v": 127
    },
    {
      "midi": 61,
      "hit": false,
      "t": 102406.66666666673,
      "d": 140,
      "v": 62
    },
    {
      "midi": 64,
      "hit": false,
      "t": 102406.66666666673,
      "d": 160,
      "v": 56
    },
    {
      "midi": 69,
      "hit": false,
      "t": 102420.00000000006,
      "d": 140,
      "v": 50
    },
    {
      "midi": 33,
      "hit": false,
      "t": 102420.00000000006,
      "d": 1160.000000000029,
      "v": 62
    },
    {
      "midi": 64,
      "hit": false,
      "t": 102673.3333333334,
      "d": 140,
      "v": 46
    },
    {
      "midi": 61,
      "hit": false,
      "t": 102686.66666666673,
      "d": 106.66666666667152,
      "v": 56
    },
    {
      "midi": 69,
      "hit": false,
      "t": 102686.66666666673,
      "d": 106.66666666667152,
      "v": 38
    },
    {
      "midi": 64,
      "hit": false,
      "t": 102933.3333333334,
      "d": 140.00000000001455,
      "v": 54
    },
    {
      "midi": 61,
      "hit": false,
      "t": 102940.00000000007,
      "d": 126.66666666667152,
      "v": 60
    },
    {
      "midi": 69,
      "hit": false,
      "t": 102953.3333333334,
      "d": 106.66666666667152,
      "v": 46
    },
    {
      "midi": 69,
      "hit": false,
      "t": 103153.33333333334,
      "d": 86.66666666667152,
      "v": 127
    },
    {
      "midi": 73,
      "hit": false,
      "t": 103153.33333333334,
      "d": 86.66666666667152,
      "v": 127
    },
    {
      "midi": 76,
      "hit": false,
      "t": 103153.33333333334,
      "d": 86.66666666667152,
      "v": 127
    },
    {
      "midi": 45,
      "hit": false,
      "t": 103213.33333333342,
      "d": 120,
      "v": 62
    },
    {
      "midi": 61,
      "hit": false,
      "t": 103213.33333333342,
      "d": 133.33333333332848,
      "v": 60
    },
    {
      "midi": 64,
      "hit": false,
      "t": 103213.33333333342,
      "d": 140,
      "v": 54
    },
    {
      "midi": 69,
      "hit": false,
      "t": 103233.33333333342,
      "d": 120,
      "v": 44
    },
    {
      "midi": 61,
      "hit": false,
      "t": 103500.00000000009,
      "d": 100,
      "v": 56
    },
    {
      "midi": 64,
      "hit": false,
      "t": 103500.00000000009,
      "d": 106.66666666667152,
      "v": 50
    },
    {
      "midi": 64,
      "hit": false,
      "t": 103713.33333333334,
      "d": 1233.333333333343,
      "v": 127
    },
    {
      "midi": 61,
      "hit": false,
      "t": 103733.33333333343,
      "d": 140,
      "v": 58
    },
    {
      "midi": 37,
      "hit": false,
      "t": 103733.33333333343,
      "d": 220,
      "v": 62
    },
    {
      "midi": 64,
      "hit": false,
      "t": 103740.0000000001,
      "d": 140,
      "v": 50
    },
    {
      "midi": 76,
      "hit": false,
      "t": 103980.00000000001,
      "d": 626.6666666666715,
      "v": 127
    },
    {
      "midi": 73,
      "hit": false,
      "t": 103980.00000000001,
      "d": 726.6666666666715,
      "v": 127
    },
    {
      "midi": 61,
      "hit": false,
      "t": 104000.0000000001,
      "d": 133.33333333332848,
      "v": 58
    },
    {
      "midi": 64,
      "hit": false,
      "t": 104000.0000000001,
      "d": 153.33333333332848,
      "v": 54
    },
    {
      "midi": 69,
      "hit": false,
      "t": 104006.66666666669,
      "d": 693.3333333333285,
      "v": 127
    },
    {
      "midi": 69,
      "hit": false,
      "t": 104020.0000000001,
      "d": 93.33333333332848,
      "v": 44
    },
    {
      "midi": 40,
      "hit": false,
      "t": 104020.0000000001,
      "d": 686.6666666666715,
      "v": 62
    },
    {
      "midi": 61,
      "hit": false,
      "t": 104273.33333333343,
      "d": 126.66666666667152,
      "v": 56
    },
    {
      "midi": 64,
      "hit": false,
      "t": 104273.33333333343,
      "d": 133.33333333334303,
      "v": 52
    },
    {
      "midi": 61,
      "hit": false,
      "t": 104533.33333333344,
      "d": 133.33333333332848,
      "v": 58
    },
    {
      "midi": 64,
      "hit": false,
      "t": 104533.33333333344,
      "d": 133.33333333332848,
      "v": 54
    },
    {
      "midi": 69,
      "hit": false,
      "t": 104553.33333333344,
      "d": 100,
      "v": 40
    },
    {
      "midi": 37,
      "hit": false,
      "t": 104786.66666666677,
      "d": 320,
      "v": 62
    },
    {
      "midi": 61,
      "hit": false,
      "t": 104800.0000000001,
      "d": 133.33333333334303,
      "v": 58
    },
    {
      "midi": 64,
      "hit": false,
      "t": 104806.66666666677,
      "d": 153.33333333334303,
      "v": 52
    },
    {
      "midi": 69,
      "hit": false,
      "t": 104813.33333333344,
      "d": 106.66666666667152,
      "v": 48
    },
    {
      "midi": 69,
      "hit": false,
      "t": 104840.00000000001,
      "d": 106.66666666667152,
      "v": 127
    },
    {
      "midi": 73,
      "hit": false,
      "t": 104846.66666666669,
      "d": 100,
      "v": 127
    },
    {
      "midi": 76,
      "hit": false,
      "t": 104846.66666666669,
      "d": 100,
      "v": 127
    },
    {
      "midi": 69,
      "hit": false,
      "t": 105073.33333333344,
      "d": 106.66666666665697,
      "v": 44
    },
    {
      "midi": 61,
      "hit": false,
      "t": 105073.33333333344,
      "d": 119.99999999998545,
      "v": 56
    },
    {
      "midi": 64,
      "hit": false,
      "t": 105073.33333333344,
      "d": 126.66666666665697,
      "v": 48
    },
    {
      "midi": 40,
      "hit": false,
      "t": 105300.0000000001,
      "d": 173.33333333332848,
      "v": 62
    },
    {
      "midi": 64,
      "hit": false,
      "t": 105320.00000000001,
      "d": 1219.9999999999854,
      "v": 127
    },
    {
      "midi": 69,
      "hit": false,
      "t": 105333.33333333343,
      "d": 120,
      "v": 52
    },
    {
      "midi": 61,
      "hit": false,
      "t": 105333.33333333343,
      "d": 133.33333333332848,
      "v": 58
    },
    {
      "midi": 64,
      "hit": false,
      "t": 105333.33333333343,
      "d": 133.33333333332848,
      "v": 54
    },
    {
      "midi": 61,
      "hit": false,
      "t": 105600.0000000001,
      "d": 140,
      "v": 58
    },
    {
      "midi": 64,
      "hit": false,
      "t": 105600.0000000001,
      "d": 160,
      "v": 54
    },
    {
      "midi": 69,
      "hit": false,
      "t": 105600.0000000001,
      "d": 160,
      "v": 48
    },
    {
      "midi": 76,
      "hit": false,
      "t": 105633.33333333334,
      "d": 533.3333333333285,
      "v": 127
    },
    {
      "midi": 69,
      "hit": false,
      "t": 105633.33333333334,
      "d": 666.666666666657,
      "v": 127
    },
    {
      "midi": 73,
      "hit": false,
      "t": 105633.33333333334,
      "d": 686.666666666657,
      "v": 127
    },
    {
      "midi": 33,
      "hit": false,
      "t": 105633.33333333343,
      "d": 1253.333333333343,
      "v": 62
    },
    {
      "midi": 64,
      "hit": false,
      "t": 105866.66666666677,
      "d": 140.00000000001455,
      "v": 52
    },
    {
      "midi": 69,
      "hit": false,
      "t": 105866.66666666677,
      "d": 140.00000000001455,
      "v": 42
    },
    {
      "midi": 61,
      "hit": false,
      "t": 105873.33333333344,
      "d": 126.66666666667152,
      "v": 58
    },
    {
      "midi": 61,
      "hit": false,
      "t": 106120.00000000012,
      "d": 133.33333333332848,
      "v": 60
    },
    {
      "midi": 64,
      "hit": false,
      "t": 106120.00000000012,
      "d": 140,
      "v": 54
    },
    {
      "midi": 69,
      "hit": false,
      "t": 106133.33333333344,
      "d": 126.66666666667152,
      "v": 46
    },
    {
      "midi": 69,
      "hit": false,
      "t": 106400,
      "d": 566.6666666666715,
      "v": 121
    },
    {
      "midi": 66,
      "hit": false,
      "t": 106400,
      "d": 620,
      "v": 121
    },
    {
      "midi": 73,
      "hit": false,
      "t": 106400,
      "d": 100,
      "v": 127
    },
    {
      "midi": 61,
      "hit": false,
      "t": 106400.00000000012,
      "d": 133.33333333332848,
      "v": 62
    },
    {
      "midi": 69,
      "hit": false,
      "t": 106400.00000000012,
      "d": 133.33333333332848,
      "v": 50
    },
    {
      "midi": 64,
      "hit": false,
      "t": 106400.00000000012,
      "d": 153.33333333332848,
      "v": 56
    },
    {
      "midi": 69,
      "hit": false,
      "t": 106406.66666666667,
      "d": 93.33333333332848,
      "v": 127
    },
    {
      "midi": 76,
      "hit": false,
      "t": 106406.66666666667,
      "d": 93.33333333332848,
      "v": 127
    },
    {
      "midi": 45,
      "hit": false,
      "t": 106406.66666666679,
      "d": 93.33333333332848,
      "v": 62
    },
    {
      "midi": 61,
      "hit": false,
      "t": 106673.33333333344,
      "d": 126.66666666667152,
      "v": 60
    },
    {
      "midi": 64,
      "hit": false,
      "t": 106673.33333333344,
      "d": 140,
      "v": 54
    },
    {
      "midi": 69,
      "hit": false,
      "t": 106680.00000000012,
      "d": 120,
      "v": 44
    },
    {
      "midi": 64,
      "hit": false,
      "t": 106900,
      "d": 1260,
      "v": 127
    },
    {
      "midi": 61,
      "hit": false,
      "t": 106940.0000000001,
      "d": 133.33333333332848,
      "v": 60
    },
    {
      "midi": 64,
      "hit": false,
      "t": 106940.0000000001,
      "d": 160,
      "v": 54
    },
    {
      "midi": 69,
      "hit": false,
      "t": 106966.66666666677,
      "d": 93.33333333332848,
      "v": 44
    },
    {
      "midi": 37,
      "hit": false,
      "t": 106966.66666666677,
      "d": 200,
      "v": 62
    },
    {
      "midi": 61,
      "hit": false,
      "t": 107206.66666666677,
      "d": 140,
      "v": 60
    },
    {
      "midi": 69,
      "hit": false,
      "t": 107206.66666666677,
      "d": 140,
      "v": 50
    },
    {
      "midi": 64,
      "hit": false,
      "t": 107206.66666666677,
      "d": 160,
      "v": 56
    },
    {
      "midi": 66,
      "hit": false,
      "t": 107233.33333333333,
      "d": 426.6666666666715,
      "v": 121
    },
    {
      "midi": 69,
      "hit": false,
      "t": 107240,
      "d": 373.3333333333285,
      "v": 121
    },
    {
      "midi": 76,
      "hit": false,
      "t": 107240,
      "d": 593.3333333333285,
      "v": 127
    },
    {
      "midi": 69,
      "hit": false,
      "t": 107240,
      "d": 626.666666666657,
      "v": 127
    },
    {
      "midi": 73,
      "hit": false,
      "t": 107240,
      "d": 626.666666666657,
      "v": 127
    },
    {
      "midi": 40,
      "hit": false,
      "t": 107253.33333333344,
      "d": 626.6666666666715,
      "v": 62
    },
    {
      "midi": 61,
      "hit": false,
      "t": 107473.33333333344,
      "d": 126.66666666667152,
      "v": 58
    },
    {
      "midi": 64,
      "hit": false,
      "t": 107473.33333333344,
      "d": 140,
      "v": 54
    },
    {
      "midi": 69,
      "hit": false,
      "t": 107500.00000000012,
      "d": 66.66666666667152,
      "v": 42
    },
    {
      "midi": 64,
      "hit": false,
      "t": 107720.00000000012,
      "d": 140,
      "v": 56
    },
    {
      "midi": 61,
      "hit": false,
      "t": 107733.33333333344,
      "d": 133.33333333334303,
      "v": 60
    },
    {
      "midi": 69,
      "hit": false,
      "t": 107740.00000000012,
      "d": 93.33333333332848,
      "v": 48
    },
    {
      "midi": 69,
      "hit": false,
      "t": 107773.33333333333,
      "d": 393.3333333333285,
      "v": 120
    },
    {
      "midi": 64,
      "hit": false,
      "t": 107773.33333333333,
      "d": 486.6666666666715,
      "v": 118
    },
    {
      "midi": 76,
      "hit": false,
      "t": 107966.66666666666,
      "d": 106.66666666667152,
      "v": 127
    },
    {
      "midi": 69,
      "hit": false,
      "t": 107973.33333333333,
      "d": 126.66666666667152,
      "v": 127
    },
    {
      "midi": 37,
      "hit": false,
      "t": 107973.33333333344,
      "d": 493.3333333333285,
      "v": 62
    },
    {
      "midi": 73,
      "hit": false,
      "t": 107986.66666666666,
      "d": 106.66666666667152,
      "v": 127
    },
    {
      "midi": 61,
      "hit": false,
      "t": 107986.66666666677,
      "d": 126.66666666665697,
      "v": 62
    },
    {
      "midi": 64,
      "hit": false,
      "t": 107986.66666666677,
      "d": 140,
      "v": 56
    },
    {
      "midi": 69,
      "hit": false,
      "t": 108000.0000000001,
      "d": 120,
      "v": 50
    },
    {
      "midi": 64,
      "hit": false,
      "t": 108240.0000000001,
      "d": 160,
      "v": 56
    },
    {
      "midi": 61,
      "hit": false,
      "t": 108246.66666666677,
      "d": 126.66666666665697,
      "v": 62
    },
    {
      "midi": 69,
      "hit": false,
      "t": 108266.66666666677,
      "d": 93.33333333332848,
      "v": 46
    },
    {
      "midi": 61,
      "hit": false,
      "t": 108313.33333333333,
      "d": 306.6666666666715,
      "v": 118
    },
    {
      "midi": 69,
      "hit": false,
      "t": 108313.33333333333,
      "d": 393.33333333334303,
      "v": 115
    },
    {
      "midi": 64,
      "hit": false,
      "t": 108480,
      "d": 1286.666666666657,
      "v": 127
    },
    {
      "midi": 64,
      "hit": false,
      "t": 108500.0000000001,
      "d": 160,
      "v": 52
    },
    {
      "midi": 69,
      "hit": false,
      "t": 108506.66666666677,
      "d": 120,
      "v": 54
    },
    {
      "midi": 61,
      "hit": false,
      "t": 108506.66666666677,
      "d": 153.33333333332848,
      "v": 60
    },
    {
      "midi": 40,
      "hit": false,
      "t": 108520.0000000001,
      "d": 106.66666666667152,
      "v": 60
    },
    {
      "midi": 64,
      "hit": false,
      "t": 108786.66666666677,
      "d": 160,
      "v": 58
    },
    {
      "midi": 62,
      "hit": false,
      "t": 108800.0000000001,
      "d": 133.33333333334303,
      "v": 60
    },
    {
      "midi": 68,
      "hit": false,
      "t": 108806.66666666677,
      "d": 106.66666666667152,
      "v": 62
    },
    {
      "midi": 40,
      "hit": false,
      "t": 108813.33333333344,
      "d": 1206.6666666666715,
      "v": 62
    },
    {
      "midi": 76,
      "hit": false,
      "t": 108833.33333333333,
      "d": 653.3333333333285,
      "v": 127
    },
    {
      "midi": 68,
      "hit": false,
      "t": 108833.33333333333,
      "d": 673.3333333333285,
      "v": 127
    },
    {
      "midi": 59,
      "hit": false,
      "t": 108840,
      "d": 3740,
      "v": 105
    },
    {
      "midi": 68,
      "hit": false,
      "t": 108840,
      "d": 3826.6666666666715,
      "v": 121
    },
    {
      "midi": 71,
      "hit": false,
      "t": 108866.66666666666,
      "d": 640,
      "v": 127
    },
    {
      "midi": 74,
      "hit": false,
      "t": 108866.66666666666,
      "d": 640,
      "v": 127
    },
    {
      "midi": 62,
      "hit": false,
      "t": 109066.66666666677,
      "d": 126.66666666665697,
      "v": 54
    },
    {
      "midi": 64,
      "hit": false,
      "t": 109066.66666666677,
      "d": 133.33333333332848,
      "v": 52
    },
    {
      "midi": 68,
      "hit": false,
      "t": 109080.0000000001,
      "d": 100,
      "v": 54
    },
    {
      "midi": 68,
      "hit": false,
      "t": 109320.0000000001,
      "d": 126.66666666667152,
      "v": 56
    },
    {
      "midi": 62,
      "hit": false,
      "t": 109320.0000000001,
      "d": 133.33333333334303,
      "v": 56
    },
    {
      "midi": 64,
      "hit": false,
      "t": 109320.0000000001,
      "d": 140.00000000001455,
      "v": 52
    },
    {
      "midi": 68,
      "hit": false,
      "t": 109599.99999999999,
      "d": 120,
      "v": 127
    },
    {
      "midi": 62,
      "hit": false,
      "t": 109606.66666666679,
      "d": 133.33333333332848,
      "v": 56
    },
    {
      "midi": 68,
      "hit": false,
      "t": 109606.66666666679,
      "d": 133.33333333332848,
      "v": 58
    },
    {
      "midi": 64,
      "hit": false,
      "t": 109606.66666666679,
      "d": 153.33333333332848,
      "v": 54
    },
    {
      "midi": 71,
      "hit": false,
      "t": 109619.99999999999,
      "d": 73.33333333332848,
      "v": 127
    },
    {
      "midi": 74,
      "hit": false,
      "t": 109619.99999999999,
      "d": 73.33333333332848,
      "v": 127
    },
    {
      "midi": 76,
      "hit": false,
      "t": 109619.99999999999,
      "d": 73.33333333332848,
      "v": 127
    },
    {
      "midi": 52,
      "hit": false,
      "t": 109653.33333333346,
      "d": 73.33333333332848,
      "v": 62
    },
    {
      "midi": 64,
      "hit": false,
      "t": 109886.66666666679,
      "d": 106.66666666665697,
      "v": 50
    },
    {
      "midi": 62,
      "hit": false,
      "t": 109900.00000000012,
      "d": 93.33333333332848,
      "v": 50
    },
    {
      "midi": 68,
      "hit": false,
      "t": 109900.00000000012,
      "d": 93.33333333332848,
      "v": 52
    },
    {
      "midi": 64,
      "hit": false,
      "t": 110119.99999999999,
      "d": 173.33333333332848,
      "v": 127
    },
    {
      "midi": 62,
      "hit": false,
      "t": 110140.00000000012,
      "d": 126.66666666667152,
      "v": 54
    },
    {
      "midi": 68,
      "hit": false,
      "t": 110140.00000000012,
      "d": 126.66666666667152,
      "v": 54
    },
    {
      "midi": 64,
      "hit": false,
      "t": 110140.00000000012,
      "d": 140,
      "v": 50
    },
    {
      "midi": 44,
      "hit": false,
      "t": 110140.00000000012,
      "d": 220,
      "v": 62
    },
    {
      "midi": 62,
      "hit": false,
      "t": 110406.66666666679,
      "d": 126.66666666667152,
      "v": 52
    },
    {
      "midi": 64,
      "hit": false,
      "t": 110406.66666666679,
      "d": 140,
      "v": 50
    },
    {
      "midi": 74,
      "hit": false,
      "t": 110413.33333333331,
      "d": 566.6666666666715,
      "v": 127
    },
    {
      "midi": 68,
      "hit": false,
      "t": 110413.33333333346,
      "d": 120,
      "v": 52
    },
    {
      "midi": 64,
      "hit": false,
      "t": 110419.99999999999,
      "d": 893.333333333343,
      "v": 118
    },
    {
      "midi": 47,
      "hit": false,
      "t": 110433.33333333346,
      "d": 666.666666666657,
      "v": 62
    },
    {
      "midi": 71,
      "hit": false,
      "t": 110439.99999999999,
      "d": 660,
      "v": 127
    },
    {
      "midi": 76,
      "hit": false,
      "t": 110446.66666666666,
      "d": 606.666666666657,
      "v": 127
    },
    {
      "midi": 68,
      "hit": false,
      "t": 110446.66666666666,
      "d": 653.3333333333285,
      "v": 127
    },
    {
      "midi": 62,
      "hit": false,
      "t": 110666.66666666679,
      "d": 126.66666666665697,
      "v": 50
    },
    {
      "midi": 64,
      "hit": false,
      "t": 110666.66666666679,
      "d": 133.33333333332848,
      "v": 50
    },
    {
      "midi": 68,
      "hit": false,
      "t": 110680.00000000012,
      "d": 93.33333333332848,
      "v": 52
    },
    {
      "midi": 62,
      "hit": false,
      "t": 110933.33333333344,
      "d": 126.66666666667152,
      "v": 52
    },
    {
      "midi": 64,
      "hit": false,
      "t": 110933.33333333344,
      "d": 140,
      "v": 52
    },
    {
      "midi": 68,
      "hit": false,
      "t": 110940.00000000012,
      "d": 106.66666666667152,
      "v": 54
    },
    {
      "midi": 76,
      "hit": false,
      "t": 111186.66666666666,
      "d": 106.66666666667152,
      "v": 127
    },
    {
      "midi": 62,
      "hit": false,
      "t": 111200.00000000012,
      "d": 126.66666666667152,
      "v": 54
    },
    {
      "midi": 68,
      "hit": false,
      "t": 111200.00000000012,
      "d": 126.66666666667152,
      "v": 56
    },
    {
      "midi": 64,
      "hit": false,
      "t": 111200.00000000012,
      "d": 140,
      "v": 54
    },
    {
      "midi": 44,
      "hit": false,
      "t": 111200.00000000012,
      "d": 253.33333333332848,
      "v": 62
    },
    {
      "midi": 71,
      "hit": false,
      "t": 111233.33333333333,
      "d": 86.66666666667152,
      "v": 127
    },
    {
      "midi": 68,
      "hit": false,
      "t": 111233.33333333333,
      "d": 93.33333333334303,
      "v": 127
    },
    {
      "midi": 68,
      "hit": false,
      "t": 111466.66666666677,
      "d": 93.33333333332848,
      "v": 52
    },
    {
      "midi": 62,
      "hit": false,
      "t": 111466.66666666677,
      "d": 106.66666666665697,
      "v": 52
    },
    {
      "midi": 64,
      "hit": false,
      "t": 111466.66666666677,
      "d": 119.99999999998545,
      "v": 50
    },
    {
      "midi": 47,
      "hit": false,
      "t": 111700.00000000009,
      "d": 153.33333333334303,
      "v": 62
    },
    {
      "midi": 62,
      "hit": false,
      "t": 111706.66666666676,
      "d": 133.33333333332848,
      "v": 50
    },
    {
      "midi": 64,
      "hit": false,
      "t": 111720,
      "d": 1120,
      "v": 127
    },
    {
      "midi": 68,
      "hit": false,
      "t": 111720.00000000009,
      "d": 100,
      "v": 52
    },
    {
      "midi": 64,
      "hit": false,
      "t": 111720.00000000009,
      "d": 126.66666666667152,
      "v": 52
    },
    {
      "midi": 62,
      "hit": false,
      "t": 111980.0000000001,
      "d": 140,
      "v": 56
    },
    {
      "midi": 68,
      "hit": false,
      "t": 111986.66666666677,
      "d": 133.33333333332848,
      "v": 58
    },
    {
      "midi": 64,
      "hit": false,
      "t": 111986.66666666677,
      "d": 140,
      "v": 56
    },
    {
      "midi": 40,
      "hit": false,
      "t": 112000.0000000001,
      "d": 1193.3333333333576,
      "v": 62
    },
    {
      "midi": 76,
      "hit": false,
      "t": 112006.66666666667,
      "d": 620,
      "v": 127
    },
    {
      "midi": 68,
      "hit": false,
      "t": 112006.66666666667,
      "d": 653.3333333333285,
      "v": 127
    },
    {
      "midi": 71,
      "hit": false,
      "t": 112006.66666666667,
      "d": 666.666666666657,
      "v": 127
    },
    {
      "midi": 68,
      "hit": false,
      "t": 112266.66666666677,
      "d": 100,
      "v": 52
    },
    {
      "midi": 62,
      "hit": false,
      "t": 112266.66666666677,
      "d": 120,
      "v": 52
    },
    {
      "midi": 64,
      "hit": false,
      "t": 112266.66666666677,
      "d": 133.33333333332848,
      "v": 54
    },
    {
      "midi": 62,
      "hit": false,
      "t": 112533.33333333343,
      "d": 126.66666666667152,
      "v": 54
    },
    {
      "midi": 68,
      "hit": false,
      "t": 112533.33333333343,
      "d": 126.66666666667152,
      "v": 54
    },
    {
      "midi": 64,
      "hit": false,
      "t": 112533.33333333343,
      "d": 140,
      "v": 54
    },
    {
      "midi": 76,
      "hit": false,
      "t": 112733.33333333333,
      "d": 120,
      "v": 127
    },
    {
      "midi": 71,
      "hit": false,
      "t": 112753.33333333333,
      "d": 120,
      "v": 127
    },
    {
      "midi": 68,
      "hit": false,
      "t": 112753.33333333333,
      "d": 126.66666666667152,
      "v": 127
    },
    {
      "midi": 52,
      "hit": false,
      "t": 112780.0000000001,
      "d": 66.66666666667152,
      "v": 62
    },
    {
      "midi": 62,
      "hit": false,
      "t": 112786.66666666677,
      "d": 126.66666666667152,
      "v": 58
    },
    {
      "midi": 64,
      "hit": false,
      "t": 112786.66666666677,
      "d": 140.00000000001455,
      "v": 58
    },
    {
      "midi": 68,
      "hit": false,
      "t": 112800.0000000001,
      "d": 120.00000000001455,
      "v": 58
    },
    {
      "midi": 66,
      "hit": false,
      "t": 112833.33333333334,
      "d": 666.6666666666715,
      "v": 121
    },
    {
      "midi": 69,
      "hit": false,
      "t": 112846.66666666667,
      "d": 653.333333333343,
      "v": 113
    },
    {
      "midi": 68,
      "hit": false,
      "t": 113046.66666666679,
      "d": 106.66666666667152,
      "v": 56
    },
    {
      "midi": 64,
      "hit": false,
      "t": 113046.66666666679,
      "d": 120,
      "v": 54
    },
    {
      "midi": 62,
      "hit": false,
      "t": 113053.33333333346,
      "d": 100,
      "v": 52
    },
    {
      "midi": 64,
      "hit": false,
      "t": 113273.33333333333,
      "d": 126.66666666667152,
      "v": 127
    },
    {
      "midi": 44,
      "hit": false,
      "t": 113300.00000000013,
      "d": 206.66666666667152,
      "v": 62
    },
    {
      "midi": 62,
      "hit": false,
      "t": 113306.6666666668,
      "d": 126.66666666667152,
      "v": 56
    },
    {
      "midi": 68,
      "hit": false,
      "t": 113306.6666666668,
      "d": 126.66666666667152,
      "v": 58
    },
    {
      "midi": 64,
      "hit": false,
      "t": 113306.6666666668,
      "d": 140,
      "v": 56
    },
    {
      "midi": 68,
      "hit": false,
      "t": 113566.6666666668,
      "d": 153.33333333334303,
      "v": 58
    },
    {
      "midi": 64,
      "hit": false,
      "t": 113573.33333333347,
      "d": 153.33333333334303,
      "v": 56
    },
    {
      "midi": 62,
      "hit": false,
      "t": 113580.00000000015,
      "d": 126.66666666667152,
      "v": 54
    },
    {
      "midi": 47,
      "hit": false,
      "t": 113600.00000000015,
      "d": 726.6666666666861,
      "v": 62
    },
    {
      "midi": 68,
      "hit": false,
      "t": 113606.66666666667,
      "d": 693.333333333343,
      "v": 127
    },
    {
      "midi": 64,
      "hit": false,
      "t": 113606.66666666667,
      "d": 866.666666666657,
      "v": 127
    },
    {
      "midi": 76,
      "hit": false,
      "t": 113613.33333333334,
      "d": 666.6666666666715,
      "v": 127
    },
    {
      "midi": 71,
      "hit": false,
      "t": 113613.33333333334,
      "d": 700,
      "v": 127
    },
    {
      "midi": 69,
      "hit": false,
      "t": 113620.00000000001,
      "d": 393.3333333333285,
      "v": 113
    },
    {
      "midi": 66,
      "hit": false,
      "t": 113633.33333333334,
      "d": 453.3333333333285,
      "v": 121
    },
    {
      "midi": 62,
      "hit": false,
      "t": 113840.00000000015,
      "d": 120,
      "v": 54
    },
    {
      "midi": 68,
      "hit": false,
      "t": 113840.00000000015,
      "d": 120,
      "v": 56
    },
    {
      "midi": 64,
      "hit": false,
      "t": 113840.00000000015,
      "d": 133.33333333332848,
      "v": 54
    },
    {
      "midi": 64,
      "hit": false,
      "t": 114100.00000000015,
      "d": 140.00000000001455,
      "v": 54
    },
    {
      "midi": 62,
      "hit": false,
      "t": 114106.66666666682,
      "d": 126.66666666667152,
      "v": 54
    },
    {
      "midi": 68,
      "hit": false,
      "t": 114106.66666666682,
      "d": 126.66666666667152,
      "v": 54
    },
    {
      "midi": 64,
      "hit": false,
      "t": 114173.33333333334,
      "d": 260,
      "v": 115
    },
    {
      "midi": 69,
      "hit": false,
      "t": 114173.33333333334,
      "d": 260,
      "v": 112
    },
    {
      "midi": 62,
      "hit": false,
      "t": 114373.3333333335,
      "d": 120,
      "v": 56
    },
    {
      "midi": 68,
      "hit": false,
      "t": 114373.3333333335,
      "d": 126.66666666667152,
      "v": 56
    },
    {
      "midi": 64,
      "hit": false,
      "t": 114373.3333333335,
      "d": 140,
      "v": 54
    },
    {
      "midi": 76,
      "hit": false,
      "t": 114386.66666666667,
      "d": 106.66666666665697,
      "v": 127
    },
    {
      "midi": 68,
      "hit": false,
      "t": 114400,
      "d": 100,
      "v": 127
    },
    {
      "midi": 71,
      "hit": false,
      "t": 114400,
      "d": 100,
      "v": 127
    },
    {
      "midi": 44,
      "hit": false,
      "t": 114400.00000000017,
      "d": 386.66666666665697,
      "v": 62
    },
    {
      "midi": 68,
      "hit": false,
      "t": 114646.66666666683,
      "d": 93.33333333332848,
      "v": 54
    },
    {
      "midi": 62,
      "hit": false,
      "t": 114646.66666666683,
      "d": 100,
      "v": 54
    },
    {
      "midi": 64,
      "hit": false,
      "t": 114646.66666666683,
      "d": 106.66666666667152,
      "v": 54
    },
    {
      "midi": 59,
      "hit": false,
      "t": 114733.33333333334,
      "d": 100,
      "v": 115
    },
    {
      "midi": 64,
      "hit": false,
      "t": 114733.33333333334,
      "d": 200,
      "v": 108
    },
    {
      "midi": 61,
      "hit": false,
      "t": 114766.66666666667,
      "d": 140,
      "v": 121
    },
    {
      "midi": 45,
      "hit": false,
      "t": 114840.00000000016,
      "d": 260.00000000001455,
      "v": 60
    },
    {
      "midi": 62,
      "hit": false,
      "t": 114886.66666666683,
      "d": 120,
      "v": 56
    },
    {
      "midi": 64,
      "hit": false,
      "t": 114900,
      "d": 1173.3333333333285,
      "v": 127
    },
    {
      "midi": 68,
      "hit": false,
      "t": 114900.00000000016,
      "d": 100,
      "v": 54
    },
    {
      "midi": 64,
      "hit": false,
      "t": 114900.00000000016,
      "d": 133.33333333334303,
      "v": 54
    },
    {
      "midi": 59,
      "hit": false,
      "t": 114966.66666666667,
      "d": 140,
      "v": 113
    },
    {
      "midi": 64,
      "hit": false,
      "t": 114966.66666666667,
      "d": 153.33333333332848,
      "v": 75
    },
    {
      "midi": 61,
      "hit": false,
      "t": 115173.3333333335,
      "d": 160,
      "v": 62
    },
    {
      "midi": 64,
      "hit": false,
      "t": 115173.3333333335,
      "d": 160,
      "v": 56
    },
    {
      "midi": 69,
      "hit": false,
      "t": 115186.66666666683,
      "d": 140,
      "v": 56
    },
    {
      "midi": 76,
      "hit": false,
      "t": 115200,
      "d": 653.3333333333285,
      "v": 127
    },
    {
      "midi": 73,
      "hit": false,
      "t": 115200,
      "d": 673.3333333333285,
      "v": 127
    },
    {
      "midi": 69,
      "hit": false,
      "t": 115200,
      "d": 686.666666666657,
      "v": 127
    },
    {
      "midi": 33,
      "hit": false,
      "t": 115200.00000000016,
      "d": 986.6666666666715,
      "v": 62
    },
    {
      "midi": 64,
      "hit": false,
      "t": 115213.33333333333,
      "d": 1153.3333333333285,
      "v": 115
    },
    {
      "midi": 57,
      "hit": false,
      "t": 115213.33333333333,
      "d": 1186.666666666657,
      "v": 116
    },
    {
      "midi": 61,
      "hit": false,
      "t": 115446.66666666683,
      "d": 140,
      "v": 54
    },
    {
      "midi": 64,
      "hit": false,
      "t": 115446.66666666683,
      "d": 153.33333333332848,
      "v": 52
    },
    {
      "midi": 69,
      "hit": false,
      "t": 115466.66666666683,
      "d": 106.66666666667152,
      "v": 46
    },
    {
      "midi": 61,
      "hit": false,
      "t": 115720.00000000016,
      "d": 153.33333333334303,
      "v": 58
    },
    {
      "midi": 64,
      "hit": false,
      "t": 115720.00000000016,
      "d": 153.33333333334303,
      "v": 54
    },
    {
      "midi": 69,
      "hit": false,
      "t": 115740.00000000016,
      "d": 126.66666666667152,
      "v": 48
    },
    {
      "midi": 76,
      "hit": false,
      "t": 115966.66666666666,
      "d": 133.33333333334303,
      "v": 127
    },
    {
      "midi": 69,
      "hit": false,
      "t": 115986.66666666666,
      "d": 120.00000000001455,
      "v": 127
    },
    {
      "midi": 73,
      "hit": false,
      "t": 115986.66666666666,
      "d": 140.00000000001455,
      "v": 127
    },
    {
      "midi": 45,
      "hit": false,
      "t": 116000.00000000017,
      "d": 140,
      "v": 62
    },
    {
      "midi": 61,
      "hit": false,
      "t": 116000.00000000017,
      "d": 140,
      "v": 60
    },
    {
      "midi": 64,
      "hit": false,
      "t": 116000.00000000017,
      "d": 153.33333333332848,
      "v": 56
    },
    {
      "midi": 69,
      "hit": false,
      "t": 116020.00000000017,
      "d": 106.66666666667152,
      "v": 52
    },
    {
      "midi": 35,
      "hit": false,
      "t": 116233.3333333335,
      "d": 159.99999999998545,
      "v": 62
    },
    {
      "midi": 64,
      "hit": false,
      "t": 116240,
      "d": 100,
      "v": 127
    },
    {
      "midi": 61,
      "hit": false,
      "t": 116266.66666666683,
      "d": 133.33333333332848,
      "v": 60
    },
    {
      "midi": 64,
      "hit": false,
      "t": 116266.66666666683,
      "d": 140,
      "v": 56
    },
    {
      "midi": 69,
      "hit": false,
      "t": 116280.00000000016,
      "d": 100,
      "v": 48
    },
    {
      "midi": 37,
      "hit": false,
      "t": 116473.3333333335,
      "d": 153.33333333332848,
      "v": 62
    },
    {
      "midi": 61,
      "hit": false,
      "t": 116520.00000000017,
      "d": 139.99999999998545,
      "v": 58
    },
    {
      "midi": 64,
      "hit": false,
      "t": 116533.33333333333,
      "d": 66.66666666667152,
      "v": 127
    },
    {
      "midi": 64,
      "hit": false,
      "t": 116533.3333333335,
      "d": 119.99999999998545,
      "v": 56
    },
    {
      "midi": 69,
      "hit": false,
      "t": 116546.66666666683,
      "d": 93.33333333332848,
      "v": 46
    },
    {
      "midi": 66,
      "hit": false,
      "t": 116780.00000000016,
      "d": 166.66666666665697,
      "v": 62
    },
    {
      "midi": 38,
      "hit": false,
      "t": 116780.00000000016,
      "d": 660,
      "v": 62
    },
    {
      "midi": 66,
      "hit": false,
      "t": 116800,
      "d": 726.6666666666715,
      "v": 127
    },
    {
      "midi": 69,
      "hit": false,
      "t": 116800.00000000016,
      "d": 120,
      "v": 54
    },
    {
      "midi": 62,
      "hit": false,
      "t": 116800.00000000016,
      "d": 133.33333333332848,
      "v": 62
    },
    {
      "midi": 69,
      "hit": false,
      "t": 116806.66666666667,
      "d": 953.3333333333285,
      "v": 127
    },
    {
      "midi": 74,
      "hit": false,
      "t": 116820,
      "d": 640,
      "v": 127
    },
    {
      "midi": 62,
      "hit": false,
      "t": 117053.33333333349,
      "d": 133.33333333332848,
      "v": 58
    },
    {
      "midi": 66,
      "hit": false,
      "t": 117053.33333333349,
      "d": 153.33333333332848,
      "v": 60
    },
    {
      "midi": 69,
      "hit": false,
      "t": 117073.33333333349,
      "d": 93.33333333332848,
      "v": 48
    },
    {
      "midi": 66,
      "hit": false,
      "t": 117313.33333333349,
      "d": 153.33333333334303,
      "v": 62
    },
    {
      "midi": 62,
      "hit": false,
      "t": 117320.00000000016,
      "d": 126.66666666667152,
      "v": 58
    },
    {
      "midi": 69,
      "hit": false,
      "t": 117333.33333333349,
      "d": 106.66666666667152,
      "v": 50
    },
    {
      "midi": 38,
      "hit": false,
      "t": 117546.66666666683,
      "d": 153.33333333334303,
      "v": 62
    },
    {
      "midi": 62,
      "hit": false,
      "t": 117573.3333333335,
      "d": 133.33333333334303,
      "v": 62
    },
    {
      "midi": 66,
      "hit": false,
      "t": 117573.3333333335,
      "d": 153.33333333334303,
      "v": 62
    },
    {
      "midi": 74,
      "hit": false,
      "t": 117586.66666666667,
      "d": 160,
      "v": 127
    },
    {
      "midi": 69,
      "hit": false,
      "t": 117600.00000000017,
      "d": 106.66666666667152,
      "v": 56
    },
    {
      "midi": 66,
      "hit": false,
      "t": 117606.66666666667,
      "d": 166.66666666665697,
      "v": 127
    },
    {
      "midi": 37,
      "hit": false,
      "t": 117800.00000000017,
      "d": 140,
      "v": 62
    },
    {
      "midi": 62,
      "hit": false,
      "t": 117833.3333333335,
      "d": 133.33333333334303,
      "v": 62
    },
    {
      "midi": 66,
      "hit": false,
      "t": 117833.3333333335,
      "d": 140.00000000001455,
      "v": 62
    },
    {
      "midi": 69,
      "hit": false,
      "t": 117840.00000000017,
      "d": 100,
      "v": 54
    },
    {
      "midi": 62,
      "hit": false,
      "t": 117886.66666666666,
      "d": 93.33333333332848,
      "v": 127
    },
    {
      "midi": 35,
      "hit": false,
      "t": 118066.66666666685,
      "d": 133.33333333334303,
      "v": 62
    },
    {
      "midi": 66,
      "hit": false,
      "t": 118073.33333333352,
      "d": 166.66666666667152,
      "v": 62
    },
    {
      "midi": 62,
      "hit": false,
      "t": 118080.00000000019,
      "d": 126.66666666667152,
      "v": 60
    },
    {
      "midi": 69,
      "hit": false,
      "t": 118100.00000000019,
      "d": 100,
      "v": 54
    },
    {
      "midi": 62,
      "hit": false,
      "t": 118119.99999999999,
      "d": 93.33333333332848,
      "v": 127
    },
    {
      "midi": 33,
      "hit": false,
      "t": 118340.00000000019,
      "d": 1326.6666666667006,
      "v": 62
    },
    {
      "midi": 61,
      "hit": false,
      "t": 118366.66666666686,
      "d": 140,
      "v": 62
    },
    {
      "midi": 64,
      "hit": false,
      "t": 118366.66666666686,
      "d": 166.66666666667152,
      "v": 58
    },
    {
      "midi": 69,
      "hit": false,
      "t": 118366.66666666686,
      "d": 166.66666666667152,
      "v": 56
    },
    {
      "midi": 64,
      "hit": false,
      "t": 118399.99999999999,
      "d": 666.666666666657,
      "v": 127
    },
    {
      "midi": 69,
      "hit": false,
      "t": 118399.99999999999,
      "d": 693.3333333333285,
      "v": 127
    },
    {
      "midi": 73,
      "hit": false,
      "t": 118413.33333333331,
      "d": 686.6666666666715,
      "v": 127
    },
    {
      "midi": 61,
      "hit": false,
      "t": 118633.33333333353,
      "d": 126.66666666667152,
      "v": 60
    },
    {
      "midi": 69,
      "hit": false,
      "t": 118633.33333333353,
      "d": 126.66666666667152,
      "v": 38
    },
    {
      "midi": 64,
      "hit": false,
      "t": 118633.33333333353,
      "d": 133.33333333334303,
      "v": 52
    },
    {
      "midi": 61,
      "hit": false,
      "t": 118900.0000000002,
      "d": 133.33333333334303,
      "v": 60
    },
    {
      "midi": 64,
      "hit": false,
      "t": 118900.0000000002,
      "d": 133.33333333334303,
      "v": 56
    },
    {
      "midi": 69,
      "hit": false,
      "t": 118906.66666666688,
      "d": 106.66666666667152,
      "v": 44
    },
    {
      "midi": 57,
      "hit": false,
      "t": 119153.33333333331,
      "d": 373.3333333333285,
      "v": 121
    },
    {
      "midi": 61,
      "hit": false,
      "t": 119166.66666666688,
      "d": 133.33333333334303,
      "v": 62
    },
    {
      "midi": 64,
      "hit": false,
      "t": 119166.66666666688,
      "d": 153.33333333334303,
      "v": 60
    },
    {
      "midi": 45,
      "hit": false,
      "t": 119173.33333333355,
      "d": 133.33333333334303,
      "v": 62
    },
    {
      "midi": 73,
      "hit": false,
      "t": 119186.66666666666,
      "d": 93.33333333332848,
      "v": 127
    },
    {
      "midi": 64,
      "hit": false,
      "t": 119186.66666666666,
      "d": 100,
      "v": 127
    },
    {
      "midi": 69,
      "hit": false,
      "t": 119186.66666666688,
      "d": 106.66666666667152,
      "v": 54
    },
    {
      "midi": 69,
      "hit": false,
      "t": 119199.99999999999,
      "d": 73.33333333332848,
      "v": 127
    },
    {
      "midi": 61,
      "hit": false,
      "t": 119433.33333333355,
      "d": 120,
      "v": 56
    },
    {
      "midi": 64,
      "hit": false,
      "t": 119440.00000000022,
      "d": 120,
      "v": 54
    },
    {
      "midi": 61,
      "hit": false,
      "t": 119700.00000000022,
      "d": 133.33333333334303,
      "v": 62
    },
    {
      "midi": 64,
      "hit": false,
      "t": 119700.00000000022,
      "d": 133.33333333334303,
      "v": 56
    },
    {
      "midi": 37,
      "hit": false,
      "t": 119700.00000000022,
      "d": 200.00000000001455,
      "v": 62
    },
    {
      "midi": 57,
      "hit": false,
      "t": 119713.33333333331,
      "d": 186.66666666667152,
      "v": 121
    },
    {
      "midi": 64,
      "hit": false,
      "t": 119719.99999999999,
      "d": 140,
      "v": 127
    },
    {
      "midi": 69,
      "hit": false,
      "t": 119720.00000000022,
      "d": 86.66666666667152,
      "v": 48
    },
    {
      "midi": 61,
      "hit": false,
      "t": 119973.33333333356,
      "d": 139.99999999998545,
      "v": 62
    },
    {
      "midi": 64,
      "hit": false,
      "t": 119973.33333333356,
      "d": 153.33333333332848,
      "v": 60
    },
    {
      "midi": 61,
      "hit": false,
      "t": 119986.66666666666,
      "d": 220,
      "v": 121
    },
    {
      "midi": 73,
      "hit": false,
      "t": 119986.66666666666,
      "d": 566.6666666666715,
      "v": 127
    },
    {
      "midi": 69,
      "hit": false,
      "t": 119986.66666666666,
      "d": 626.6666666666715,
      "v": 127
    },
    {
      "midi": 64,
      "hit": false,
      "t": 119986.66666666666,
      "d": 640,
      "v": 127
    },
    {
      "midi": 69,
      "hit": false,
      "t": 119986.66666666689,
      "d": 133.33333333332848,
      "v": 54
    },
    {
      "midi": 40,
      "hit": false,
      "t": 120000.00000000022,
      "d": 726.6666666666715,
      "v": 62
    },
    {
      "midi": 61,
      "hit": false,
      "t": 120253.33333333356,
      "d": 126.66666666665697,
      "v": 60
    },
    {
      "midi": 64,
      "hit": false,
      "t": 120253.33333333356,
      "d": 139.99999999998545,
      "v": 58
    },
    {
      "midi": 69,
      "hit": false,
      "t": 120266.66666666689,
      "d": 100,
      "v": 44
    },
    {
      "midi": 61,
      "hit": false,
      "t": 120499.99999999999,
      "d": 166.66666666667152,
      "v": 121
    },
    {
      "midi": 61,
      "hit": false,
      "t": 120513.33333333355,
      "d": 153.33333333334303,
      "v": 62
    },
    {
      "midi": 64,
      "hit": false,
      "t": 120520.00000000022,
      "d": 140,
      "v": 56
    },
    {
      "midi": 69,
      "hit": false,
      "t": 120533.33333333355,
      "d": 106.66666666667152,
      "v": 46
    },
    {
      "midi": 64,
      "hit": false,
      "t": 120753.33333333333,
      "d": 126.66666666665697,
      "v": 127
    },
    {
      "midi": 69,
      "hit": false,
      "t": 120766.66666666666,
      "d": 100,
      "v": 127
    },
    {
      "midi": 73,
      "hit": false,
      "t": 120766.66666666666,
      "d": 133.33333333332848,
      "v": 127
    },
    {
      "midi": 64,
      "hit": false,
      "t": 120779.99999999999,
      "d": 200,
      "v": 121
    },
    {
      "midi": 61,
      "hit": false,
      "t": 120800.00000000022,
      "d": 133.33333333332848,
      "v": 62
    },
    {
      "midi": 64,
      "hit": false,
      "t": 120800.00000000022,
      "d": 153.33333333332848,
      "v": 60
    },
    {
      "midi": 69,
      "hit": false,
      "t": 120806.66666666689,
      "d": 126.66666666665697,
      "v": 52
    },
    {
      "midi": 37,
      "hit": false,
      "t": 120820.00000000022,
      "d": 440,
      "v": 62
    },
    {
      "midi": 61,
      "hit": false,
      "t": 121066.66666666688,
      "d": 106.66666666667152,
      "v": 60
    },
    {
      "midi": 64,
      "hit": false,
      "t": 121066.66666666688,
      "d": 126.66666666667152,
      "v": 56
    },
    {
      "midi": 69,
      "hit": false,
      "t": 121086.66666666688,
      "d": 60,
      "v": 42
    },
    {
      "midi": 64,
      "hit": false,
      "t": 121266.66666666666,
      "d": 133.33333333332848,
      "v": 127
    },
    {
      "midi": 64,
      "hit": false,
      "t": 121286.66666666666,
      "d": 160,
      "v": 121
    },
    {
      "midi": 64,
      "hit": false,
      "t": 121320.00000000022,
      "d": 126.66666666665697,
      "v": 56
    },
    {
      "midi": 40,
      "hit": false,
      "t": 121320.00000000022,
      "d": 139.99999999998545,
      "v": 62
    },
    {
      "midi": 61,
      "hit": false,
      "t": 121320.00000000022,
      "d": 153.33333333331393,
      "v": 62
    },
    {
      "midi": 69,
      "hit": false,
      "t": 121340.00000000022,
      "d": 93.33333333332848,
      "v": 44
    },
    {
      "midi": 62,
      "hit": false,
      "t": 121566.66666666666,
      "d": 466.6666666666715,
      "v": 121
    },
    {
      "midi": 69,
      "hit": false,
      "t": 121579.99999999999,
      "d": 460.00000000001455,
      "v": 121
    },
    {
      "midi": 74,
      "hit": false,
      "t": 121579.99999999999,
      "d": 653.3333333333285,
      "v": 124
    },
    {
      "midi": 66,
      "hit": false,
      "t": 121599.99999999999,
      "d": 700,
      "v": 127
    },
    {
      "midi": 69,
      "hit": false,
      "t": 121599.99999999999,
      "d": 706.6666666666715,
      "v": 127
    },
    {
      "midi": 66,
      "hit": false,
      "t": 121600.0000000002,
      "d": 160.00000000001455,
      "v": 62
    },
    {
      "midi": 62,
      "hit": false,
      "t": 121606.66666666688,
      "d": 126.66666666667152,
      "v": 60
    },
    {
      "midi": 69,
      "hit": false,
      "t": 121620.0000000002,
      "d": 86.66666666667152,
      "v": 50
    },
    {
      "midi": 38,
      "hit": false,
      "t": 121620.0000000002,
      "d": 1173.3333333333721,
      "v": 62
    },
    {
      "midi": 62,
      "hit": false,
      "t": 121866.66666666689,
      "d": 120,
      "v": 58
    },
    {
      "midi": 66,
      "hit": false,
      "t": 121866.66666666689,
      "d": 126.66666666667152,
      "v": 58
    },
    {
      "midi": 69,
      "hit": false,
      "t": 121900.00000000022,
      "d": 60,
      "v": 46
    },
    {
      "midi": 62,
      "hit": false,
      "t": 122080,
      "d": 2653.3333333333285,
      "v": 94
    },
    {
      "midi": 66,
      "hit": false,
      "t": 122080,
      "d": 2660,
      "v": 121
    },
    {
      "midi": 57,
      "hit": false,
      "t": 122100,
      "d": 2640,
      "v": 113
    },
    {
      "midi": 62,
      "hit": false,
      "t": 122120.00000000023,
      "d": 126.66666666665697,
      "v": 58
    },
    {
      "midi": 66,
      "hit": false,
      "t": 122120.00000000023,
      "d": 133.33333333332848,
      "v": 60
    },
    {
      "midi": 69,
      "hit": false,
      "t": 122133.33333333356,
      "d": 100,
      "v": 48
    },
    {
      "midi": 50,
      "hit": false,
      "t": 122380.00000000023,
      "d": 120,
      "v": 62
    },
    {
      "midi": 66,
      "hit": false,
      "t": 122399.99999999999,
      "d": 100,
      "v": 127
    },
    {
      "midi": 74,
      "hit": false,
      "t": 122399.99999999999,
      "d": 100,
      "v": 127
    },
    {
      "midi": 62,
      "hit": false,
      "t": 122400.00000000023,
      "d": 120,
      "v": 62
    },
    {
      "midi": 66,
      "hit": false,
      "t": 122400.00000000023,
      "d": 133.33333333332848,
      "v": 62
    },
    {
      "midi": 69,
      "hit": false,
      "t": 122406.66666666666,
      "d": 93.33333333332848,
      "v": 127
    },
    {
      "midi": 69,
      "hit": false,
      "t": 122406.6666666669,
      "d": 126.66666666665697,
      "v": 58
    },
    {
      "midi": 66,
      "hit": false,
      "t": 122653.33333333356,
      "d": 106.66666666667152,
      "v": 54
    },
    {
      "midi": 62,
      "hit": false,
      "t": 122666.66666666689,
      "d": 100.00000000001455,
      "v": 50
    },
    {
      "midi": 69,
      "hit": false,
      "t": 122673.33333333356,
      "d": 86.66666666667152,
      "v": 44
    },
    {
      "midi": 62,
      "hit": false,
      "t": 122920.00000000025,
      "d": 133.33333333332848,
      "v": 56
    },
    {
      "midi": 66,
      "hit": false,
      "t": 122920.00000000025,
      "d": 133.33333333332848,
      "v": 56
    },
    {
      "midi": 42,
      "hit": false,
      "t": 122920.00000000025,
      "d": 220,
      "v": 62
    },
    {
      "midi": 69,
      "hit": false,
      "t": 122933.33333333358,
      "d": 120,
      "v": 50
    },
    {
      "midi": 66,
      "hit": false,
      "t": 122966.66666666666,
      "d": 240,
      "v": 127
    },
    {
      "midi": 62,
      "hit": false,
      "t": 123200.00000000025,
      "d": 140,
      "v": 58
    },
    {
      "midi": 66,
      "hit": false,
      "t": 123200.00000000025,
      "d": 140,
      "v": 58
    },
    {
      "midi": 45,
      "hit": false,
      "t": 123200.00000000025,
      "d": 726.666666666657,
      "v": 62
    },
    {
      "midi": 69,
      "hit": false,
      "t": 123213.33333333358,
      "d": 120,
      "v": 52
    },
    {
      "midi": 66,
      "hit": false,
      "t": 123246.66666666666,
      "d": 720,
      "v": 127
    },
    {
      "midi": 69,
      "hit": false,
      "t": 123266.66666666666,
      "d": 720,
      "v": 127
    },
    {
      "midi": 74,
      "hit": false,
      "t": 123273.33333333333,
      "d": 600,
      "v": 127
    },
    {
      "midi": 62,
      "hit": false,
      "t": 123466.66666666692,
      "d": 119.99999999998545,
      "v": 56
    },
    {
      "midi": 66,
      "hit": false,
      "t": 123466.66666666692,
      "d": 119.99999999998545,
      "v": 58
    },
    {
      "midi": 69,
      "hit": false,
      "t": 123480.00000000025,
      "d": 73.33333333332848,
      "v": 46
    },
    {
      "midi": 62,
      "hit": false,
      "t": 123733.33333333358,
      "d": 133.33333333332848,
      "v": 54
    },
    {
      "midi": 66,
      "hit": false,
      "t": 123733.33333333358,
      "d": 133.33333333332848,
      "v": 56
    },
    {
      "midi": 69,
      "hit": false,
      "t": 123746.6666666669,
      "d": 120,
      "v": 52
    },
    {
      "midi": 42,
      "hit": false,
      "t": 124000.00000000023,
      "d": 300.00000000001455,
      "v": 62
    },
    {
      "midi": 62,
      "hit": false,
      "t": 124006.6666666669,
      "d": 133.33333333334303,
      "v": 58
    },
    {
      "midi": 66,
      "hit": false,
      "t": 124006.6666666669,
      "d": 140.00000000001455,
      "v": 58
    },
    {
      "midi": 69,
      "hit": false,
      "t": 124033.33333333358,
      "d": 106.66666666667152,
      "v": 54
    },
    {
      "midi": 74,
      "hit": false,
      "t": 124066.66666666666,
      "d": 126.66666666667152,
      "v": 127
    },
    {
      "midi": 69,
      "hit": false,
      "t": 124066.66666666666,
      "d": 133.33333333334303,
      "v": 127
    },
    {
      "midi": 66,
      "hit": false,
      "t": 124073.33333333333,
      "d": 120,
      "v": 127
    },
    {
      "midi": 62,
      "hit": false,
      "t": 124280.00000000025,
      "d": 100,
      "v": 50
    },
    {
      "midi": 66,
      "hit": false,
      "t": 124280.00000000025,
      "d": 100,
      "v": 54
    },
    {
      "midi": 69,
      "hit": false,
      "t": 124300.00000000025,
      "d": 66.66666666667152,
      "v": 44
    },
    {
      "midi": 45,
      "hit": false,
      "t": 124533.33333333358,
      "d": 193.33333333332848,
      "v": 62
    },
    {
      "midi": 62,
      "hit": false,
      "t": 124546.6666666669,
      "d": 120,
      "v": 52
    },
    {
      "midi": 66,
      "hit": false,
      "t": 124546.6666666669,
      "d": 126.66666666667152,
      "v": 56
    },
    {
      "midi": 62,
      "hit": false,
      "t": 124566.66666666667,
      "d": 1186.666666666657,
      "v": 127
    },
    {
      "midi": 69,
      "hit": false,
      "t": 124566.6666666669,
      "d": 86.66666666667152,
      "v": 50
    },
    {
      "midi": 62,
      "hit": false,
      "t": 124813.33333333358,
      "d": 160.00000000001455,
      "v": 56
    },
    {
      "midi": 66,
      "hit": false,
      "t": 124820.00000000025,
      "d": 160.00000000001455,
      "v": 54
    },
    {
      "midi": 69,
      "hit": false,
      "t": 124833.33333333358,
      "d": 133.33333333334303,
      "v": 48
    },
    {
      "midi": 38,
      "hit": false,
      "t": 124840.00000000025,
      "d": 1253.3333333333576,
      "v": 62
    },
    {
      "midi": 66,
      "hit": false,
      "t": 124846.66666666667,
      "d": 693.3333333333285,
      "v": 127
    },
    {
      "midi": 69,
      "hit": false,
      "t": 124846.66666666667,
      "d": 693.3333333333285,
      "v": 127
    },
    {
      "midi": 74,
      "hit": false,
      "t": 124873.33333333334,
      "d": 493.3333333333285,
      "v": 127
    },
    {
      "midi": 62,
      "hit": false,
      "t": 125100.00000000026,
      "d": 106.66666666667152,
      "v": 54
    },
    {
      "midi": 66,
      "hit": false,
      "t": 125100.00000000026,
      "d": 106.66666666667152,
      "v": 58
    },
    {
      "midi": 69,
      "hit": false,
      "t": 125106.66666666693,
      "d": 93.33333333332848,
      "v": 50
    },
    {
      "midi": 62,
      "hit": false,
      "t": 125353.3333333336,
      "d": 140,
      "v": 54
    },
    {
      "midi": 66,
      "hit": false,
      "t": 125353.3333333336,
      "d": 140,
      "v": 58
    },
    {
      "midi": 69,
      "hit": false,
      "t": 125373.3333333336,
      "d": 106.66666666667152,
      "v": 50
    },
    {
      "midi": 50,
      "hit": false,
      "t": 125633.3333333336,
      "d": 100,
      "v": 62
    },
    {
      "midi": 62,
      "hit": false,
      "t": 125633.3333333336,
      "d": 133.33333333332848,
      "v": 60
    },
    {
      "midi": 66,
      "hit": false,
      "t": 125633.3333333336,
      "d": 133.33333333332848,
      "v": 62
    },
    {
      "midi": 66,
      "hit": false,
      "t": 125646.66666666667,
      "d": 473.33333333334303,
      "v": 121
    },
    {
      "midi": 74,
      "hit": false,
      "t": 125646.66666666667,
      "d": 93.33333333332848,
      "v": 127
    },
    {
      "midi": 69,
      "hit": false,
      "t": 125646.66666666667,
      "d": 106.66666666665697,
      "v": 127
    },
    {
      "midi": 66,
      "hit": false,
      "t": 125646.66666666667,
      "d": 119.99999999998545,
      "v": 127
    },
    {
      "midi": 69,
      "hit": false,
      "t": 125646.66666666693,
      "d": 120,
      "v": 58
    },
    {
      "midi": 62,
      "hit": false,
      "t": 125653.33333333334,
      "d": 366.6666666666715,
      "v": 121
    },
    {
      "midi": 57,
      "hit": false,
      "t": 125653.33333333334,
      "d": 406.6666666666715,
      "v": 121
    },
    {
      "midi": 66,
      "hit": false,
      "t": 125886.66666666693,
      "d": 126.66666666667152,
      "v": 58
    },
    {
      "midi": 69,
      "hit": false,
      "t": 125900.00000000026,
      "d": 106.66666666667152,
      "v": 54
    },
    {
      "midi": 62,
      "hit": false,
      "t": 125900.00000000026,
      "d": 120.00000000001455,
      "v": 56
    },
    {
      "midi": 66,
      "hit": false,
      "t": 126166.66666666666,
      "d": 1033.333333333343,
      "v": 127
    },
    {
      "midi": 62,
      "hit": false,
      "t": 126166.66666666693,
      "d": 133.33333333332848,
      "v": 60
    },
    {
      "midi": 66,
      "hit": false,
      "t": 126166.66666666693,
      "d": 133.33333333332848,
      "v": 62
    },
    {
      "midi": 42,
      "hit": false,
      "t": 126166.66666666693,
      "d": 186.66666666665697,
      "v": 62
    },
    {
      "midi": 69,
      "hit": false,
      "t": 126180.00000000026,
      "d": 100,
      "v": 56
    },
    {
      "midi": 62,
      "hit": false,
      "t": 126440.00000000026,
      "d": 133.33333333332848,
      "v": 60
    },
    {
      "midi": 69,
      "hit": false,
      "t": 126440.00000000026,
      "d": 133.33333333332848,
      "v": 58
    },
    {
      "midi": 66,
      "hit": false,
      "t": 126440.00000000026,
      "d": 153.33333333332848,
      "v": 62
    },
    {
      "midi": 45,
      "hit": false,
      "t": 126440.00000000026,
      "d": 786.6666666666715,
      "v": 62
    },
    {
      "midi": 74,
      "hit": false,
      "t": 126453.33333333333,
      "d": 726.6666666666715,
      "v": 127
    },
    {
      "midi": 69,
      "hit": false,
      "t": 126453.33333333333,
      "d": 760,
      "v": 127
    },
    {
      "midi": 62,
      "hit": false,
      "t": 126453.33333333334,
      "d": 293.3333333333285,
      "v": 121
    },
    {
      "midi": 62,
      "hit": false,
      "t": 126713.33333333359,
      "d": 120,
      "v": 58
    },
    {
      "midi": 66,
      "hit": false,
      "t": 126713.33333333359,
      "d": 120,
      "v": 60
    },
    {
      "midi": 69,
      "hit": false,
      "t": 126733.33333333359,
      "d": 73.33333333332848,
      "v": 50
    },
    {
      "midi": 62,
      "hit": false,
      "t": 126980.00000000026,
      "d": 133.33333333332848,
      "v": 62
    },
    {
      "midi": 66,
      "hit": false,
      "t": 126980.00000000026,
      "d": 140,
      "v": 62
    },
    {
      "midi": 69,
      "hit": false,
      "t": 127000.00000000026,
      "d": 120,
      "v": 56
    },
    {
      "midi": 57,
      "hit": false,
      "t": 127033.33333333334,
      "d": 300,
      "v": 121
    },
    {
      "midi": 62,
      "hit": false,
      "t": 127253.3333333336,
      "d": 139.99999999998545,
      "v": 62
    },
    {
      "midi": 66,
      "hit": false,
      "t": 127253.3333333336,
      "d": 139.99999999998545,
      "v": 62
    },
    {
      "midi": 69,
      "hit": false,
      "t": 127266.66666666693,
      "d": 126.66666666665697,
      "v": 58
    },
    {
      "midi": 42,
      "hit": false,
      "t": 127280.00000000026,
      "d": 453.3333333333285,
      "v": 62
    },
    {
      "midi": 66,
      "hit": false,
      "t": 127286.66666666666,
      "d": 120,
      "v": 127
    },
    {
      "midi": 69,
      "hit": false,
      "t": 127286.66666666666,
      "d": 126.66666666667152,
      "v": 127
    },
    {
      "midi": 74,
      "hit": false,
      "t": 127286.66666666666,
      "d": 126.66666666667152,
      "v": 127
    },
    {
      "midi": 60,
      "hit": false,
      "t": 127520.00000000001,
      "d": 360,
      "v": 121
    },
    {
      "midi": 66,
      "hit": false,
      "t": 127520.00000000001,
      "d": 406.6666666666715,
      "v": 121
    },
    {
      "midi": 69,
      "hit": false,
      "t": 127533.33333333359,
      "d": 100,
      "v": 54
    },
    {
      "midi": 62,
      "hit": false,
      "t": 127533.33333333359,
      "d": 106.66666666667152,
      "v": 60
    },
    {
      "midi": 66,
      "hit": false,
      "t": 127533.33333333359,
      "d": 120,
      "v": 62
    },
    {
      "midi": 62,
      "hit": false,
      "t": 127766.66666666692,
      "d": 120,
      "v": 62
    },
    {
      "midi": 66,
      "hit": false,
      "t": 127766.66666666692,
      "d": 160,
      "v": 62
    },
    {
      "midi": 69,
      "hit": false,
      "t": 127780.00000000025,
      "d": 106.66666666667152,
      "v": 58
    },
    {
      "midi": 45,
      "hit": false,
      "t": 127780.00000000025,
      "d": 186.66666666667152,
      "v": 62
    },
    {
      "midi": 64,
      "hit": false,
      "t": 127800,
      "d": 1226.666666666686,
      "v": 127
    },
    {
      "midi": 33,
      "hit": false,
      "t": 128033.33333333359,
      "d": 1160.0000000000146,
      "v": 62
    },
    {
      "midi": 61,
      "hit": false,
      "t": 128040.00000000026,
      "d": 133.33333333332848,
      "v": 62
    },
    {
      "midi": 69,
      "hit": false,
      "t": 128040.00000000026,
      "d": 153.33333333332848,
      "v": 54
    },
    {
      "midi": 64,
      "hit": false,
      "t": 128040.00000000026,
      "d": 160,
      "v": 60
    },
    {
      "midi": 64,
      "hit": false,
      "t": 128066.66666666669,
      "d": 3766.666666666657,
      "v": 116
    },
    {
      "midi": 57,
      "hit": false,
      "t": 128073.33333333336,
      "d": 3400.0000000000146,
      "v": 105
    },
    {
      "midi": 61,
      "hit": false,
      "t": 128073.33333333336,
      "d": 3486.6666666666715,
      "v": 121
    },
    {
      "midi": 73,
      "hit": false,
      "t": 128080,
      "d": 720.0000000000146,
      "v": 127
    },
    {
      "midi": 69,
      "hit": false,
      "t": 128086.66666666667,
      "d": 706.6666666666715,
      "v": 127
    },
    {
      "midi": 61,
      "hit": false,
      "t": 128306.66666666693,
      "d": 106.66666666667152,
      "v": 58
    },
    {
      "midi": 64,
      "hit": false,
      "t": 128306.66666666693,
      "d": 126.66666666667152,
      "v": 50
    },
    {
      "midi": 69,
      "hit": false,
      "t": 128333.3333333336,
      "d": 73.33333333332848,
      "v": 38
    },
    {
      "midi": 61,
      "hit": false,
      "t": 128566.66666666693,
      "d": 133.33333333334303,
      "v": 62
    },
    {
      "midi": 64,
      "hit": false,
      "t": 128566.66666666693,
      "d": 133.33333333334303,
      "v": 56
    },
    {
      "midi": 69,
      "hit": false,
      "t": 128573.3333333336,
      "d": 126.66666666667152,
      "v": 50
    },
    {
      "midi": 45,
      "hit": false,
      "t": 128833.3333333336,
      "d": 86.66666666667152,
      "v": 62
    },
    {
      "midi": 61,
      "hit": false,
      "t": 128833.3333333336,
      "d": 133.33333333334303,
      "v": 60
    },
    {
      "midi": 64,
      "hit": false,
      "t": 128833.3333333336,
      "d": 133.33333333334303,
      "v": 56
    },
    {
      "midi": 69,
      "hit": false,
      "t": 128833.3333333336,
      "d": 133.33333333334303,
      "v": 50
    },
    {
      "midi": 76,
      "hit": false,
      "t": 128886.66666666669,
      "d": 93.33333333332848,
      "v": 127
    },
    {
      "midi": 69,
      "hit": false,
      "t": 128886.66666666669,
      "d": 133.33333333332848,
      "v": 127
    },
    {
      "midi": 73,
      "hit": false,
      "t": 128900.00000000001,
      "d": 100,
      "v": 127
    },
    {
      "midi": 61,
      "hit": false,
      "t": 129100.00000000028,
      "d": 106.66666666665697,
      "v": 54
    },
    {
      "midi": 64,
      "hit": false,
      "t": 129100.00000000028,
      "d": 119.99999999998545,
      "v": 52
    },
    {
      "midi": 69,
      "hit": false,
      "t": 129113.3333333336,
      "d": 93.33333333332848,
      "v": 38
    },
    {
      "midi": 37,
      "hit": false,
      "t": 129333.33333333359,
      "d": 206.66666666667152,
      "v": 62
    },
    {
      "midi": 61,
      "hit": false,
      "t": 129346.66666666692,
      "d": 126.66666666667152,
      "v": 58
    },
    {
      "midi": 64,
      "hit": false,
      "t": 129353.33333333359,
      "d": 106.66666666665697,
      "v": 52
    },
    {
      "midi": 69,
      "hit": false,
      "t": 129366.66666666692,
      "d": 100,
      "v": 46
    },
    {
      "midi": 69,
      "hit": false,
      "t": 129406.66666666669,
      "d": 1026.666666666657,
      "v": 127
    },
    {
      "midi": 61,
      "hit": false,
      "t": 129613.33333333359,
      "d": 126.66666666667152,
      "v": 58
    },
    {
      "midi": 64,
      "hit": false,
      "t": 129613.33333333359,
      "d": 133.33333333334303,
      "v": 54
    },
    {
      "midi": 69,
      "hit": false,
      "t": 129613.33333333359,
      "d": 153.33333333334303,
      "v": 48
    },
    {
      "midi": 40,
      "hit": false,
      "t": 129640.00000000026,
      "d": 673.3333333333576,
      "v": 62
    },
    {
      "midi": 76,
      "hit": false,
      "t": 129680.00000000001,
      "d": 720,
      "v": 127
    },
    {
      "midi": 64,
      "hit": false,
      "t": 129686.66666666669,
      "d": 706.666666666657,
      "v": 127
    },
    {
      "midi": 73,
      "hit": false,
      "t": 129700.00000000001,
      "d": 733.3333333333285,
      "v": 127
    },
    {
      "midi": 61,
      "hit": false,
      "t": 129880.00000000026,
      "d": 126.66666666667152,
      "v": 56
    },
    {
      "midi": 64,
      "hit": false,
      "t": 129886.66666666693,
      "d": 126.66666666667152,
      "v": 52
    },
    {
      "midi": 69,
      "hit": false,
      "t": 129900.00000000026,
      "d": 133.33333333334303,
      "v": 40
    },
    {
      "midi": 61,
      "hit": false,
      "t": 130140.00000000028,
      "d": 126.66666666667152,
      "v": 58
    },
    {
      "midi": 69,
      "hit": false,
      "t": 130140.00000000028,
      "d": 126.66666666667152,
      "v": 44
    },
    {
      "midi": 64,
      "hit": false,
      "t": 130146.66666666695,
      "d": 120,
      "v": 56
    },
    {
      "midi": 61,
      "hit": false,
      "t": 130406.66666666695,
      "d": 140,
      "v": 60
    },
    {
      "midi": 64,
      "hit": false,
      "t": 130406.66666666695,
      "d": 153.33333333332848,
      "v": 56
    },
    {
      "midi": 69,
      "hit": false,
      "t": 130406.66666666695,
      "d": 153.33333333332848,
      "v": 52
    },
    {
      "midi": 37,
      "hit": false,
      "t": 130406.66666666695,
      "d": 373.3333333333285,
      "v": 62
    },
    {
      "midi": 76,
      "hit": false,
      "t": 130513.33333333334,
      "d": 100,
      "v": 127
    },
    {
      "midi": 73,
      "hit": false,
      "t": 130513.33333333334,
      "d": 106.66666666667152,
      "v": 127
    },
    {
      "midi": 69,
      "hit": false,
      "t": 130533.33333333334,
      "d": 100,
      "v": 127
    },
    {
      "midi": 64,
      "hit": false,
      "t": 130533.33333333334,
      "d": 120,
      "v": 127
    },
    {
      "midi": 61,
      "hit": false,
      "t": 130686.66666666695,
      "d": 120,
      "v": 56
    },
    {
      "midi": 64,
      "hit": false,
      "t": 130686.66666666695,
      "d": 120,
      "v": 50
    },
    {
      "midi": 69,
      "hit": false,
      "t": 130700.00000000028,
      "d": 100,
      "v": 42
    },
    {
      "midi": 61,
      "hit": false,
      "t": 130940.00000000028,
      "d": 140.00000000001455,
      "v": 56
    },
    {
      "midi": 40,
      "hit": false,
      "t": 130940.00000000028,
      "d": 173.3333333333576,
      "v": 62
    },
    {
      "midi": 69,
      "hit": false,
      "t": 130953.3333333336,
      "d": 106.66666666667152,
      "v": 44
    },
    {
      "midi": 64,
      "hit": false,
      "t": 130953.3333333336,
      "d": 126.66666666668607,
      "v": 54
    },
    {
      "midi": 64,
      "hit": false,
      "t": 130966.66666666667,
      "d": 960.0000000000146,
      "v": 127
    },
    {
      "midi": 61,
      "hit": false,
      "t": 131220.0000000003,
      "d": 133.33333333334303,
      "v": 54
    },
    {
      "midi": 64,
      "hit": false,
      "t": 131233.33333333363,
      "d": 133.33333333334303,
      "v": 52
    },
    {
      "midi": 33,
      "hit": false,
      "t": 131233.33333333363,
      "d": 1186.666666666686,
      "v": 62
    },
    {
      "midi": 69,
      "hit": false,
      "t": 131240.0000000003,
      "d": 126.66666666668607,
      "v": 48
    },
    {
      "midi": 76,
      "hit": false,
      "t": 131273.33333333334,
      "d": 540,
      "v": 127
    },
    {
      "midi": 69,
      "hit": false,
      "t": 131280,
      "d": 606.6666666666861,
      "v": 127
    },
    {
      "midi": 73,
      "hit": false,
      "t": 131300,
      "d": 600.0000000000291,
      "v": 127
    },
    {
      "midi": 61,
      "hit": false,
      "t": 131500.00000000032,
      "d": 120.0000000000291,
      "v": 56
    },
    {
      "midi": 64,
      "hit": false,
      "t": 131500.00000000032,
      "d": 126.66666666668607,
      "v": 52
    },
    {
      "midi": 69,
      "hit": false,
      "t": 131513.33333333366,
      "d": 93.33333333334303,
      "v": 44
    },
    {
      "midi": 61,
      "hit": false,
      "t": 131740.00000000035,
      "d": 139.9999999999709,
      "v": 56
    },
    {
      "midi": 64,
      "hit": false,
      "t": 131740.00000000035,
      "d": 139.9999999999709,
      "v": 52
    },
    {
      "midi": 61,
      "hit": false,
      "t": 131746.6666666667,
      "d": 340,
      "v": 121
    },
    {
      "midi": 69,
      "hit": false,
      "t": 131766.666666667,
      "d": 106.66666666665697,
      "v": 48
    },
    {
      "midi": 45,
      "hit": false,
      "t": 132020.00000000032,
      "d": 93.33333333334303,
      "v": 62
    },
    {
      "midi": 61,
      "hit": false,
      "t": 132020.00000000032,
      "d": 133.33333333334303,
      "v": 60
    },
    {
      "midi": 69,
      "hit": false,
      "t": 132033.33333333334,
      "d": 573.333333333343,
      "v": 121
    },
    {
      "midi": 66,
      "hit": false,
      "t": 132033.33333333334,
      "d": 600,
      "v": 121
    },
    {
      "midi": 64,
      "hit": false,
      "t": 132033.33333333334,
      "d": 126.66666666665697,
      "v": 127
    },
    {
      "midi": 69,
      "hit": false,
      "t": 132033.33333333366,
      "d": 120,
      "v": 52
    },
    {
      "midi": 64,
      "hit": false,
      "t": 132033.33333333366,
      "d": 126.66666666665697,
      "v": 56
    },
    {
      "midi": 76,
      "hit": false,
      "t": 132040,
      "d": 93.33333333334303,
      "v": 127
    },
    {
      "midi": 69,
      "hit": false,
      "t": 132040,
      "d": 100,
      "v": 127
    },
    {
      "midi": 73,
      "hit": false,
      "t": 132040,
      "d": 100,
      "v": 127
    },
    {
      "midi": 61,
      "hit": false,
      "t": 132300.00000000032,
      "d": 120,
      "v": 58
    },
    {
      "midi": 64,
      "hit": false,
      "t": 132300.00000000032,
      "d": 126.66666666665697,
      "v": 52
    },
    {
      "midi": 69,
      "hit": false,
      "t": 132313.33333333366,
      "d": 86.66666666665697,
      "v": 44
    },
    {
      "midi": 37,
      "hit": false,
      "t": 132533.33333333363,
      "d": 226.66666666665697,
      "v": 62
    },
    {
      "midi": 64,
      "hit": false,
      "t": 132540,
      "d": 1260,
      "v": 127
    },
    {
      "midi": 61,
      "hit": false,
      "t": 132566.66666666698,
      "d": 133.33333333331393,
      "v": 60
    },
    {
      "midi": 64,
      "hit": false,
      "t": 132566.66666666698,
      "d": 133.33333333331393,
      "v": 56
    },
    {
      "midi": 69,
      "hit": false,
      "t": 132573.33333333363,
      "d": 126.66666666665697,
      "v": 48
    },
    {
      "midi": 64,
      "hit": false,
      "t": 132586.6666666667,
      "d": 173.33333333331393,
      "v": 112
    },
    {
      "midi": 61,
      "hit": false,
      "t": 132833.33333333363,
      "d": 133.33333333334303,
      "v": 62
    },
    {
      "midi": 64,
      "hit": false,
      "t": 132833.33333333363,
      "d": 153.33333333334303,
      "v": 56
    },
    {
      "midi": 76,
      "hit": false,
      "t": 132846.66666666666,
      "d": 686.666666666657,
      "v": 127
    },
    {
      "midi": 69,
      "hit": false,
      "t": 132846.66666666666,
      "d": 706.666666666657,
      "v": 127
    },
    {
      "midi": 73,
      "hit": false,
      "t": 132846.66666666666,
      "d": 706.666666666657,
      "v": 127
    },
    {
      "midi": 69,
      "hit": false,
      "t": 132853.33333333363,
      "d": 126.66666666668607,
      "v": 54
    },
    {
      "midi": 40,
      "hit": false,
      "t": 132853.33333333363,
      "d": 653.3333333333721,
      "v": 62
    },
    {
      "midi": 69,
      "hit": false,
      "t": 132866.66666666666,
      "d": 400,
      "v": 121
    },
    {
      "midi": 66,
      "hit": false,
      "t": 132866.66666666666,
      "d": 440,
      "v": 121
    },
    {
      "midi": 64,
      "hit": false,
      "t": 133100.00000000032,
      "d": 153.33333333334303,
      "v": 56
    },
    {
      "midi": 61,
      "hit": false,
      "t": 133106.66666666698,
      "d": 126.66666666668607,
      "v": 60
    },
    {
      "midi": 69,
      "hit": false,
      "t": 133120.00000000032,
      "d": 100,
      "v": 50
    },
    {
      "midi": 61,
      "hit": false,
      "t": 133366.666666667,
      "d": 133.33333333334303,
      "v": 60
    },
    {
      "midi": 64,
      "hit": false,
      "t": 133366.666666667,
      "d": 133.33333333334303,
      "v": 56
    },
    {
      "midi": 69,
      "hit": false,
      "t": 133380.00000000035,
      "d": 106.66666666665697,
      "v": 52
    },
    {
      "midi": 64,
      "hit": false,
      "t": 133386.66666666666,
      "d": 973.333333333343,
      "v": 113
    },
    {
      "midi": 69,
      "hit": false,
      "t": 133400,
      "d": 206.66666666665697,
      "v": 120
    },
    {
      "midi": 64,
      "hit": false,
      "t": 133620.00000000035,
      "d": 140,
      "v": 58
    },
    {
      "midi": 37,
      "hit": false,
      "t": 133620.00000000035,
      "d": 566.666666666657,
      "v": 62
    },
    {
      "midi": 61,
      "hit": false,
      "t": 133633.3333333337,
      "d": 120,
      "v": 62
    },
    {
      "midi": 69,
      "hit": false,
      "t": 133633.3333333337,
      "d": 133.33333333331393,
      "v": 56
    },
    {
      "midi": 76,
      "hit": false,
      "t": 133653.3333333333,
      "d": 106.66666666668607,
      "v": 127
    },
    {
      "midi": 69,
      "hit": false,
      "t": 133653.3333333333,
      "d": 126.66666666668607,
      "v": 127
    },
    {
      "midi": 73,
      "hit": false,
      "t": 133666.66666666666,
      "d": 120,
      "v": 127
    },
    {
      "midi": 61,
      "hit": false,
      "t": 133686.66666666666,
      "d": 406.66666666668607,
      "v": 121
    },
    {
      "midi": 69,
      "hit": false,
      "t": 133706.66666666666,
      "d": 153.33333333334303,
      "v": 48
    },
    {
      "midi": 61,
      "hit": false,
      "t": 133900.00000000035,
      "d": 106.66666666665697,
      "v": 56
    },
    {
      "midi": 64,
      "hit": false,
      "t": 133900.00000000035,
      "d": 133.33333333331393,
      "v": 52
    },
    {
      "midi": 69,
      "hit": false,
      "t": 133906.666666667,
      "d": 100,
      "v": 48
    },
    {
      "midi": 64,
      "hit": false,
      "t": 134120,
      "d": 1226.666666666686,
      "v": 127
    },
    {
      "midi": 69,
      "hit": false,
      "t": 134133.33333333366,
      "d": 120,
      "v": 54
    },
    {
      "midi": 40,
      "hit": false,
      "t": 134133.33333333366,
      "d": 133.33333333334303,
      "v": 62
    },
    {
      "midi": 64,
      "hit": false,
      "t": 134133.33333333366,
      "d": 153.33333333334303,
      "v": 56
    },
    {
      "midi": 61,
      "hit": false,
      "t": 134146.666666667,
      "d": 120,
      "v": 62
    },
    {
      "midi": 57,
      "hit": false,
      "t": 134153.33333333334,
      "d": 160,
      "v": 116
    },
    {
      "midi": 64,
      "hit": false,
      "t": 134400.00000000035,
      "d": 153.33333333334303,
      "v": 58
    },
    {
      "midi": 76,
      "hit": false,
      "t": 134406.66666666666,
      "d": 733.333333333343,
      "v": 127
    },
    {
      "midi": 68,
      "hit": false,
      "t": 134406.666666667,
      "d": 153.33333333334303,
      "v": 62
    },
    {
      "midi": 68,
      "hit": false,
      "t": 134420,
      "d": 740,
      "v": 127
    },
    {
      "midi": 40,
      "hit": false,
      "t": 134420.00000000035,
      "d": 1173.3333333332848,
      "v": 62
    },
    {
      "midi": 71,
      "hit": false,
      "t": 134433.33333333334,
      "d": 740,
      "v": 127
    },
    {
      "midi": 62,
      "hit": false,
      "t": 134440.00000000035,
      "d": 120,
      "v": 52
    },
    {
      "midi": 59,
      "hit": false,
      "t": 134453.33333333334,
      "d": 3440,
      "v": 115
    },
    {
      "midi": 64,
      "hit": false,
      "t": 134480,
      "d": 3700,
      "v": 116
    },
    {
      "midi": 62,
      "hit": false,
      "t": 134686.666666667,
      "d": 120,
      "v": 50
    },
    {
      "midi": 64,
      "hit": false,
      "t": 134686.666666667,
      "d": 120,
      "v": 50
    },
    {
      "midi": 68,
      "hit": false,
      "t": 134686.666666667,
      "d": 120,
      "v": 48
    },
    {
      "midi": 62,
      "hit": false,
      "t": 134940.00000000035,
      "d": 119.9999999999709,
      "v": 50
    },
    {
      "midi": 64,
      "hit": false,
      "t": 134940.00000000035,
      "d": 126.66666666662786,
      "v": 48
    },
    {
      "midi": 68,
      "hit": false,
      "t": 134946.666666667,
      "d": 119.9999999999709,
      "v": 52
    },
    {
      "midi": 71,
      "hit": false,
      "t": 134966.666666667,
      "d": 86.66666666665697,
      "v": 46
    },
    {
      "midi": 62,
      "hit": false,
      "t": 135213.33333333363,
      "d": 120,
      "v": 52
    },
    {
      "midi": 68,
      "hit": false,
      "t": 135213.33333333363,
      "d": 126.66666666665697,
      "v": 52
    },
    {
      "midi": 64,
      "hit": false,
      "t": 135213.33333333363,
      "d": 133.33333333331393,
      "v": 50
    },
    {
      "midi": 52,
      "hit": false,
      "t": 135233.33333333363,
      "d": 86.66666666665697,
      "v": 62
    },
    {
      "midi": 71,
      "hit": false,
      "t": 135233.33333333363,
      "d": 100,
      "v": 48
    },
    {
      "midi": 76,
      "hit": false,
      "t": 135246.6666666667,
      "d": 93.33333333334303,
      "v": 127
    },
    {
      "midi": 71,
      "hit": false,
      "t": 135246.6666666667,
      "d": 106.66666666665697,
      "v": 127
    },
    {
      "midi": 68,
      "hit": false,
      "t": 135246.6666666667,
      "d": 120,
      "v": 127
    },
    {
      "midi": 64,
      "hit": false,
      "t": 135486.66666666695,
      "d": 120,
      "v": 46
    },
    {
      "midi": 62,
      "hit": false,
      "t": 135500.0000000003,
      "d": 100,
      "v": 50
    },
    {
      "midi": 68,
      "hit": false,
      "t": 135500.0000000003,
      "d": 100,
      "v": 48
    },
    {
      "midi": 64,
      "hit": false,
      "t": 135713.33333333334,
      "d": 1206.6666666666279,
      "v": 127
    },
    {
      "midi": 62,
      "hit": false,
      "t": 135746.66666666695,
      "d": 133.33333333334303,
      "v": 52
    },
    {
      "midi": 64,
      "hit": false,
      "t": 135746.66666666695,
      "d": 133.33333333334303,
      "v": 52
    },
    {
      "midi": 68,
      "hit": false,
      "t": 135746.66666666695,
      "d": 133.33333333334303,
      "v": 54
    },
    {
      "midi": 44,
      "hit": false,
      "t": 135746.66666666695,
      "d": 220,
      "v": 62
    },
    {
      "midi": 71,
      "hit": false,
      "t": 135773.3333333336,
      "d": 93.33333333334303,
      "v": 46
    },
    {
      "midi": 76,
      "hit": false,
      "t": 136033.33333333334,
      "d": 666.666666666657,
      "v": 127
    },
    {
      "midi": 68,
      "hit": false,
      "t": 136033.33333333334,
      "d": 693.3333333333139,
      "v": 127
    },
    {
      "midi": 71,
      "hit": false,
      "t": 136033.33333333334,
      "d": 699.9999999999709,
      "v": 127
    },
    {
      "midi": 62,
      "hit": false,
      "t": 136033.3333333336,
      "d": 133.33333333334303,
      "v": 52
    },
    {
      "midi": 64,
      "hit": false,
      "t": 136033.3333333336,
      "d": 140,
      "v": 50
    },
    {
      "midi": 68,
      "hit": false,
      "t": 136033.3333333336,
      "d": 140,
      "v": 50
    },
    {
      "midi": 47,
      "hit": false,
      "t": 136033.3333333336,
      "d": 600,
      "v": 62
    },
    {
      "midi": 71,
      "hit": false,
      "t": 136046.66666666695,
      "d": 120,
      "v": 46
    },
    {
      "midi": 62,
      "hit": false,
      "t": 136300.00000000026,
      "d": 126.66666666665697,
      "v": 50
    },
    {
      "midi": 64,
      "hit": false,
      "t": 136300.00000000026,
      "d": 133.33333333331393,
      "v": 48
    },
    {
      "midi": 68,
      "hit": false,
      "t": 136306.66666666692,
      "d": 100,
      "v": 52
    },
    {
      "midi": 62,
      "hit": false,
      "t": 136546.66666666692,
      "d": 126.66666666668607,
      "v": 50
    },
    {
      "midi": 64,
      "hit": false,
      "t": 136546.66666666692,
      "d": 140.0000000000291,
      "v": 52
    },
    {
      "midi": 68,
      "hit": false,
      "t": 136566.66666666692,
      "d": 126.66666666668607,
      "v": 56
    },
    {
      "midi": 71,
      "hit": false,
      "t": 136580.00000000026,
      "d": 86.66666666668607,
      "v": 42
    },
    {
      "midi": 44,
      "hit": false,
      "t": 136773.3333333336,
      "d": 386.66666666665697,
      "v": 62
    },
    {
      "midi": 64,
      "hit": false,
      "t": 136800.00000000026,
      "d": 133.33333333331393,
      "v": 54
    },
    {
      "midi": 62,
      "hit": false,
      "t": 136806.66666666692,
      "d": 120,
      "v": 56
    },
    {
      "midi": 68,
      "hit": false,
      "t": 136806.66666666692,
      "d": 126.66666666665697,
      "v": 58
    },
    {
      "midi": 68,
      "hit": false,
      "t": 136819.99999999997,
      "d": 106.66666666665697,
      "v": 127
    },
    {
      "midi": 76,
      "hit": false,
      "t": 136819.99999999997,
      "d": 106.66666666665697,
      "v": 127
    },
    {
      "midi": 71,
      "hit": false,
      "t": 136820.00000000026,
      "d": 100,
      "v": 48
    },
    {
      "midi": 71,
      "hit": false,
      "t": 136833.3333333333,
      "d": 119.9999999999709,
      "v": 127
    },
    {
      "midi": 68,
      "hit": false,
      "t": 137053.33333333358,
      "d": 120,
      "v": 52
    },
    {
      "midi": 64,
      "hit": false,
      "t": 137053.33333333358,
      "d": 126.66666666665697,
      "v": 52
    },
    {
      "midi": 62,
      "hit": false,
      "t": 137066.66666666692,
      "d": 100,
      "v": 52
    },
    {
      "midi": 62,
      "hit": false,
      "t": 137313.33333333358,
      "d": 120,
      "v": 54
    },
    {
      "midi": 68,
      "hit": false,
      "t": 137313.33333333358,
      "d": 126.66666666665697,
      "v": 52
    },
    {
      "midi": 64,
      "hit": false,
      "t": 137313.33333333358,
      "d": 133.33333333331393,
      "v": 54
    },
    {
      "midi": 64,
      "hit": false,
      "t": 137333.33333333328,
      "d": 1220.000000000029,
      "v": 127
    },
    {
      "midi": 47,
      "hit": false,
      "t": 137333.33333333358,
      "d": 166.66666666665697,
      "v": 62
    },
    {
      "midi": 64,
      "hit": false,
      "t": 137566.6666666669,
      "d": 153.33333333331393,
      "v": 54
    },
    {
      "midi": 62,
      "hit": false,
      "t": 137573.33333333355,
      "d": 126.66666666665697,
      "v": 56
    },
    {
      "midi": 68,
      "hit": false,
      "t": 137573.33333333355,
      "d": 140,
      "v": 56
    },
    {
      "midi": 68,
      "hit": false,
      "t": 137599.99999999994,
      "d": 733.333333333343,
      "v": 127
    },
    {
      "midi": 71,
      "hit": false,
      "t": 137613.33333333328,
      "d": 720,
      "v": 127
    },
    {
      "midi": 76,
      "hit": false,
      "t": 137613.33333333328,
      "d": 720,
      "v": 127
    },
    {
      "midi": 40,
      "hit": false,
      "t": 137613.33333333355,
      "d": 1193.3333333332557,
      "v": 62
    },
    {
      "midi": 62,
      "hit": false,
      "t": 137846.66666666686,
      "d": 120,
      "v": 52
    },
    {
      "midi": 64,
      "hit": false,
      "t": 137846.66666666686,
      "d": 120,
      "v": 52
    },
    {
      "midi": 68,
      "hit": false,
      "t": 137846.66666666686,
      "d": 120,
      "v": 52
    },
    {
      "midi": 62,
      "hit": false,
      "t": 138100.0000000002,
      "d": 133.33333333331393,
      "v": 52
    },
    {
      "midi": 64,
      "hit": false,
      "t": 138100.0000000002,
      "d": 139.9999999999709,
      "v": 52
    },
    {
      "midi": 68,
      "hit": false,
      "t": 138106.66666666686,
      "d": 126.66666666665697,
      "v": 50
    },
    {
      "midi": 52,
      "hit": false,
      "t": 138366.66666666683,
      "d": 100,
      "v": 62
    },
    {
      "midi": 64,
      "hit": false,
      "t": 138366.66666666683,
      "d": 133.33333333331393,
      "v": 56
    },
    {
      "midi": 68,
      "hit": false,
      "t": 138366.66666666683,
      "d": 139.9999999999709,
      "v": 56
    },
    {
      "midi": 69,
      "hit": false,
      "t": 138380,
      "d": 653.333333333343,
      "v": 120
    },
    {
      "midi": 66,
      "hit": false,
      "t": 138380,
      "d": 693.333333333343,
      "v": 121
    },
    {
      "midi": 62,
      "hit": false,
      "t": 138386.66666666683,
      "d": 106.66666666665697,
      "v": 54
    },
    {
      "midi": 71,
      "hit": false,
      "t": 138400.00000000017,
      "d": 99.9999999999709,
      "v": 48
    },
    {
      "midi": 76,
      "hit": false,
      "t": 138419.99999999994,
      "d": 106.66666666668607,
      "v": 127
    },
    {
      "midi": 68,
      "hit": false,
      "t": 138419.99999999994,
      "d": 140.0000000000291,
      "v": 127
    },
    {
      "midi": 71,
      "hit": false,
      "t": 138433.33333333328,
      "d": 106.66666666668607,
      "v": 127
    },
    {
      "midi": 62,
      "hit": false,
      "t": 138640.00000000015,
      "d": 126.66666666665697,
      "v": 48
    },
    {
      "midi": 64,
      "hit": false,
      "t": 138646.6666666668,
      "d": 120,
      "v": 54
    },
    {
      "midi": 68,
      "hit": false,
      "t": 138646.6666666668,
      "d": 120,
      "v": 52
    },
    {
      "midi": 71,
      "hit": false,
      "t": 138666.6666666668,
      "d": 100,
      "v": 44
    },
    {
      "midi": 64,
      "hit": false,
      "t": 138899.99999999997,
      "d": 926.666666666657,
      "v": 127
    },
    {
      "midi": 64,
      "hit": false,
      "t": 138906.6666666668,
      "d": 133.33333333337214,
      "v": 54
    },
    {
      "midi": 68,
      "hit": false,
      "t": 138906.6666666668,
      "d": 133.33333333337214,
      "v": 54
    },
    {
      "midi": 62,
      "hit": false,
      "t": 138920.00000000015,
      "d": 106.66666666668607,
      "v": 54
    },
    {
      "midi": 71,
      "hit": false,
      "t": 138920.00000000015,
      "d": 106.66666666668607,
      "v": 46
    },
    {
      "midi": 44,
      "hit": false,
      "t": 138953.3333333335,
      "d": 173.33333333334303,
      "v": 62
    },
    {
      "midi": 69,
      "hit": false,
      "t": 139166.6666666667,
      "d": 400,
      "v": 121
    },
    {
      "midi": 66,
      "hit": false,
      "t": 139166.6666666667,
      "d": 433.33333333334303,
      "v": 121
    },
    {
      "midi": 62,
      "hit": false,
      "t": 139173.3333333335,
      "d": 153.33333333331393,
      "v": 54
    },
    {
      "midi": 64,
      "hit": false,
      "t": 139173.3333333335,
      "d": 153.33333333331393,
      "v": 56
    },
    {
      "midi": 68,
      "hit": false,
      "t": 139173.3333333335,
      "d": 153.33333333331393,
      "v": 58
    },
    {
      "midi": 71,
      "hit": false,
      "t": 139186.66666666683,
      "d": 133.33333333331393,
      "v": 48
    },
    {
      "midi": 76,
      "hit": false,
      "t": 139199.99999999997,
      "d": 600,
      "v": 127
    },
    {
      "midi": 74,
      "hit": false,
      "t": 139199.99999999997,
      "d": 686.666666666657,
      "v": 127
    },
    {
      "midi": 68,
      "hit": false,
      "t": 139199.99999999997,
      "d": 693.3333333333139,
      "v": 127
    },
    {
      "midi": 71,
      "hit": false,
      "t": 139199.99999999997,
      "d": 693.3333333333139,
      "v": 127
    },
    {
      "midi": 47,
      "hit": false,
      "t": 139213.3333333335,
      "d": 739.9999999999709,
      "v": 62
    },
    {
      "midi": 64,
      "hit": false,
      "t": 139453.33333333346,
      "d": 140,
      "v": 52
    },
    {
      "midi": 68,
      "hit": false,
      "t": 139466.6666666668,
      "d": 106.66666666665697,
      "v": 50
    },
    {
      "midi": 62,
      "hit": false,
      "t": 139466.6666666668,
      "d": 120,
      "v": 52
    },
    {
      "midi": 69,
      "hit": false,
      "t": 139686.6666666667,
      "d": 300,
      "v": 120
    },
    {
      "midi": 64,
      "hit": false,
      "t": 139686.6666666667,
      "d": 373.33333333334303,
      "v": 120
    },
    {
      "midi": 62,
      "hit": false,
      "t": 139733.33333333346,
      "d": 133.33333333334303,
      "v": 56
    },
    {
      "midi": 64,
      "hit": false,
      "t": 139733.33333333346,
      "d": 140,
      "v": 56
    },
    {
      "midi": 68,
      "hit": false,
      "t": 139733.33333333346,
      "d": 140,
      "v": 56
    },
    {
      "midi": 71,
      "hit": false,
      "t": 139746.6666666668,
      "d": 120,
      "v": 50
    },
    {
      "midi": 71,
      "hit": false,
      "t": 139973.33333333328,
      "d": 133.33333333331393,
      "v": 127
    },
    {
      "midi": 76,
      "hit": false,
      "t": 139973.33333333328,
      "d": 133.33333333331393,
      "v": 127
    },
    {
      "midi": 68,
      "hit": false,
      "t": 139973.33333333328,
      "d": 153.33333333331393,
      "v": 127
    },
    {
      "midi": 74,
      "hit": false,
      "t": 139999.99999999994,
      "d": 106.66666666665697,
      "v": 127
    },
    {
      "midi": 64,
      "hit": false,
      "t": 140000.00000000012,
      "d": 139.9999999999709,
      "v": 54
    },
    {
      "midi": 68,
      "hit": false,
      "t": 140000.00000000012,
      "d": 153.33333333331393,
      "v": 54
    },
    {
      "midi": 62,
      "hit": false,
      "t": 140006.66666666677,
      "d": 126.66666666665697,
      "v": 54
    },
    {
      "midi": 44,
      "hit": false,
      "t": 140006.66666666677,
      "d": 426.66666666665697,
      "v": 62
    },
    {
      "midi": 71,
      "hit": false,
      "t": 140033.33333333343,
      "d": 106.66666666665697,
      "v": 46
    },
    {
      "midi": 62,
      "hit": false,
      "t": 140273.33333333343,
      "d": 106.66666666665697,
      "v": 54
    },
    {
      "midi": 64,
      "hit": false,
      "t": 140273.33333333343,
      "d": 126.66666666665697,
      "v": 52
    },
    {
      "midi": 68,
      "hit": false,
      "t": 140273.33333333343,
      "d": 126.66666666665697,
      "v": 52
    },
    {
      "midi": 59,
      "hit": false,
      "t": 140300.00000000003,
      "d": 66.66666666665697,
      "v": 112
    },
    {
      "midi": 64,
      "hit": false,
      "t": 140300.00000000003,
      "d": 140,
      "v": 110
    },
    {
      "midi": 61,
      "hit": false,
      "t": 140306.6666666667,
      "d": 153.33333333334303,
      "v": 121
    },
    {
      "midi": 64,
      "hit": false,
      "t": 140466.6666666666,
      "d": 1333.333333333314,
      "v": 127
    },
    {
      "midi": 59,
      "hit": false,
      "t": 140500.00000000003,
      "d": 153.33333333331393,
      "v": 110
    },
    {
      "midi": 64,
      "hit": false,
      "t": 140506.6666666667,
      "d": 120,
      "v": 96
    },
    {
      "midi": 45,
      "hit": false,
      "t": 140506.66666666677,
      "d": 220,
      "v": 62
    },
    {
      "midi": 62,
      "hit": false,
      "t": 140533.33333333343,
      "d": 120,
      "v": 54
    },
    {
      "midi": 68,
      "hit": false,
      "t": 140533.33333333343,
      "d": 140,
      "v": 54
    },
    {
      "midi": 64,
      "hit": false,
      "t": 140533.33333333343,
      "d": 153.33333333334303,
      "v": 54
    },
    {
      "midi": 71,
      "hit": false,
      "t": 140546.66666666677,
      "d": 66.66666666665697,
      "v": 44
    },
    {
      "midi": 64,
      "hit": false,
      "t": 140780,
      "d": 773.3333333333139,
      "v": 116
    },
    {
      "midi": 61,
      "hit": false,
      "t": 140780,
      "d": 793.3333333333139,
      "v": 121
    },
    {
      "midi": 64,
      "hit": false,
      "t": 140800.00000000012,
      "d": 160,
      "v": 58
    },
    {
      "midi": 69,
      "hit": false,
      "t": 140806.66666666677,
      "d": 133.33333333334303,
      "v": 50
    },
    {
      "midi": 76,
      "hit": false,
      "t": 140819.99999999994,
      "d": 660,
      "v": 127
    },
    {
      "midi": 73,
      "hit": false,
      "t": 140819.99999999994,
      "d": 686.666666666657,
      "v": 127
    },
    {
      "midi": 61,
      "hit": false,
      "t": 140820.00000000012,
      "d": 120,
      "v": 62
    },
    {
      "midi": 33,
      "hit": false,
      "t": 140820.00000000012,
      "d": 1239.9999999999418,
      "v": 62
    },
    {
      "midi": 69,
      "hit": false,
      "t": 140833.33333333328,
      "d": 673.3333333333139,
      "v": 127
    },
    {
      "midi": 61,
      "hit": false,
      "t": 141066.66666666677,
      "d": 133.33333333334303,
      "v": 60
    },
    {
      "midi": 64,
      "hit": false,
      "t": 141066.66666666677,
      "d": 140,
      "v": 54
    },
    {
      "midi": 69,
      "hit": false,
      "t": 141080.00000000012,
      "d": 106.66666666665697,
      "v": 44
    },
    {
      "midi": 61,
      "hit": false,
      "t": 141333.33333333343,
      "d": 119.9999999999709,
      "v": 60
    },
    {
      "midi": 64,
      "hit": false,
      "t": 141333.33333333343,
      "d": 133.33333333331393,
      "v": 54
    },
    {
      "midi": 69,
      "hit": false,
      "t": 141340.0000000001,
      "d": 106.66666666665697,
      "v": 46
    },
    {
      "midi": 76,
      "hit": false,
      "t": 141599.99999999994,
      "d": 166.66666666665697,
      "v": 127
    },
    {
      "midi": 73,
      "hit": false,
      "t": 141599.99999999994,
      "d": 173.33333333331393,
      "v": 127
    },
    {
      "midi": 61,
      "hit": false,
      "t": 141600.0000000001,
      "d": 133.33333333334303,
      "v": 62
    },
    {
      "midi": 64,
      "hit": false,
      "t": 141600.0000000001,
      "d": 140,
      "v": 58
    },
    {
      "midi": 69,
      "hit": false,
      "t": 141606.6666666666,
      "d": 160,
      "v": 127
    },
    {
      "midi": 69,
      "hit": false,
      "t": 141613.33333333343,
      "d": 120,
      "v": 54
    },
    {
      "midi": 45,
      "hit": false,
      "t": 141620.0000000001,
      "d": 140,
      "v": 62
    },
    {
      "midi": 61,
      "hit": false,
      "t": 141866.66666666674,
      "d": 119.9999999999709,
      "v": 62
    },
    {
      "midi": 64,
      "hit": false,
      "t": 141866.66666666674,
      "d": 133.33333333331393,
      "v": 58
    },
    {
      "midi": 69,
      "hit": false,
      "t": 141873.3333333334,
      "d": 106.66666666665697,
      "v": 46
    },
    {
      "midi": 64,
      "hit": false,
      "t": 142120.00000000006,
      "d": 133.33333333334303,
      "v": 60
    },
    {
      "midi": 69,
      "hit": false,
      "t": 142120.00000000006,
      "d": 133.33333333334303,
      "v": 48
    },
    {
      "midi": 37,
      "hit": false,
      "t": 142120.00000000006,
      "d": 140,
      "v": 62
    },
    {
      "midi": 61,
      "hit": false,
      "t": 142120.00000000006,
      "d": 153.33333333334303,
      "v": 62
    },
    {
      "midi": 64,
      "hit": false,
      "t": 142133.33333333326,
      "d": 193.33333333334303,
      "v": 127
    },
    {
      "midi": 69,
      "hit": false,
      "t": 142400.00000000006,
      "d": 140,
      "v": 56
    },
    {
      "midi": 66,
      "hit": false,
      "t": 142400.00000000006,
      "d": 160,
      "v": 62
    },
    {
      "midi": 74,
      "hit": false,
      "t": 142406.6666666666,
      "d": 620,
      "v": 127
    },
    {
      "midi": 62,
      "hit": false,
      "t": 142406.66666666672,
      "d": 153.33333333334303,
      "v": 60
    },
    {
      "midi": 66,
      "hit": false,
      "t": 142413.33333333326,
      "d": 673.333333333343,
      "v": 127
    },
    {
      "midi": 69,
      "hit": false,
      "t": 142413.33333333326,
      "d": 860,
      "v": 127
    },
    {
      "midi": 38,
      "hit": false,
      "t": 142420.00000000006,
      "d": 673.3333333332848,
      "v": 62
    },
    {
      "midi": 66,
      "hit": false,
      "t": 142653.3333333334,
      "d": 153.33333333331393,
      "v": 62
    },
    {
      "midi": 69,
      "hit": false,
      "t": 142666.66666666674,
      "d": 126.66666666665697,
      "v": 54
    },
    {
      "midi": 62,
      "hit": false,
      "t": 142666.66666666674,
      "d": 133.33333333331393,
      "v": 62
    },
    {
      "midi": 66,
      "hit": false,
      "t": 142913.33333333337,
      "d": 153.33333333331393,
      "v": 62
    },
    {
      "midi": 69,
      "hit": false,
      "t": 142933.33333333337,
      "d": 106.66666666665697,
      "v": 52
    },
    {
      "midi": 62,
      "hit": false,
      "t": 142933.33333333337,
      "d": 126.66666666665697,
      "v": 60
    },
    {
      "midi": 74,
      "hit": false,
      "t": 143146.6666666666,
      "d": 140,
      "v": 127
    },
    {
      "midi": 66,
      "hit": false,
      "t": 143146.6666666666,
      "d": 153.33333333334303,
      "v": 127
    },
    {
      "midi": 66,
      "hit": false,
      "t": 143186.6666666667,
      "d": 160,
      "v": 62
    },
    {
      "midi": 62,
      "hit": false,
      "t": 143200.00000000003,
      "d": 133.33333333331393,
      "v": 62
    },
    {
      "midi": 69,
      "hit": false,
      "t": 143200.00000000003,
      "d": 133.33333333331393,
      "v": 60
    },
    {
      "midi": 45,
      "hit": false,
      "t": 143206.6666666667,
      "d": 373.33333333331393,
      "v": 62
    },
    {
      "midi": 69,
      "hit": false,
      "t": 143446.6666666667,
      "d": 120,
      "v": 54
    },
    {
      "midi": 62,
      "hit": false,
      "t": 143446.6666666667,
      "d": 126.66666666665697,
      "v": 62
    },
    {
      "midi": 66,
      "hit": false,
      "t": 143446.6666666667,
      "d": 133.33333333331393,
      "v": 62
    },
    {
      "midi": 62,
      "hit": false,
      "t": 143700,
      "d": 133.33333333334303,
      "v": 62
    },
    {
      "midi": 66,
      "hit": false,
      "t": 143700,
      "d": 166.66666666668607,
      "v": 62
    },
    {
      "midi": 69,
      "hit": false,
      "t": 143713.33333333334,
      "d": 93.33333333334303,
      "v": 56
    },
    {
      "midi": 42,
      "hit": false,
      "t": 143713.33333333334,
      "d": 173.33333333334303,
      "v": 62
    },
    {
      "midi": 64,
      "hit": false,
      "t": 143733.33333333328,
      "d": 200,
      "v": 127
    },
    {
      "midi": 65,
      "hit": false,
      "t": 143753.33333333328,
      "d": 60,
      "v": 127
    },
    {
      "midi": 61,
      "hit": false,
      "t": 143973.33333333334,
      "d": 140,
      "v": 62
    },
    {
      "midi": 69,
      "hit": false,
      "t": 143973.33333333334,
      "d": 153.33333333334303,
      "v": 54
    },
    {
      "midi": 64,
      "hit": false,
      "t": 143973.33333333334,
      "d": 160,
      "v": 62
    },
    {
      "midi": 64,
      "hit": false,
      "t": 143999.99999999994,
      "d": 786.6666666666861,
      "v": 127
    },
    {
      "midi": 69,
      "hit": false,
      "t": 143999.99999999994,
      "d": 826.6666666666861,
      "v": 127
    },
    {
      "midi": 73,
      "hit": false,
      "t": 144033.33333333328,
      "d": 800,
      "v": 127
    },
    {
      "midi": 61,
      "hit": false,
      "t": 144233.33333333334,
      "d": 133.33333333331393,
      "v": 56
    },
    {
      "midi": 69,
      "hit": false,
      "t": 144233.33333333334,
      "d": 139.9999999999709,
      "v": 44
    },
    {
      "midi": 64,
      "hit": false,
      "t": 144253.33333333334,
      "d": 106.66666666665697,
      "v": 54
    },
    {
      "midi": 61,
      "hit": false,
      "t": 144499.99999999997,
      "d": 153.33333333334303,
      "v": 56
    },
    {
      "midi": 64,
      "hit": false,
      "t": 144513.3333333333,
      "d": 126.66666666665697,
      "v": 54
    },
    {
      "midi": 69,
      "hit": false,
      "t": 144513.3333333333,
      "d": 126.66666666665697,
      "v": 52
    },
    {
      "midi": 45,
      "hit": false,
      "t": 144786.66666666666,
      "d": 120,
      "v": 62
    },
    {
      "midi": 61,
      "hit": false,
      "t": 144786.66666666666,
      "d": 133.33333333334303,
      "v": 60
    },
    {
      "midi": 64,
      "hit": false,
      "t": 144786.66666666666,
      "d": 140,
      "v": 56
    },
    {
      "midi": 69,
      "hit": false,
      "t": 144806.66666666666,
      "d": 120,
      "v": 54
    },
    {
      "midi": 64,
      "hit": false,
      "t": 144866.66666666663,
      "d": 86.66666666665697,
      "v": 127
    },
    {
      "midi": 61,
      "hit": false,
      "t": 145053.3333333333,
      "d": 126.66666666668607,
      "v": 54
    },
    {
      "midi": 64,
      "hit": false,
      "t": 145053.3333333333,
      "d": 133.33333333334303,
      "v": 52
    },
    {
      "midi": 69,
      "hit": false,
      "t": 145066.66666666666,
      "d": 100,
      "v": 50
    },
    {
      "midi": 64,
      "hit": false,
      "t": 145099.99999999997,
      "d": 426.66666666665697,
      "v": 121
    },
    {
      "midi": 37,
      "hit": false,
      "t": 145280,
      "d": 186.66666666662786,
      "v": 62
    },
    {
      "midi": 61,
      "hit": false,
      "t": 145300,
      "d": 133.33333333331393,
      "v": 60
    },
    {
      "midi": 64,
      "hit": false,
      "t": 145306.66666666666,
      "d": 153.33333333331393,
      "v": 54
    },
    {
      "midi": 69,
      "hit": false,
      "t": 145313.3333333333,
      "d": 93.33333333334303,
      "v": 52
    },
    {
      "midi": 64,
      "hit": false,
      "t": 145319.99999999994,
      "d": 33.333333333343035,
      "v": 127
    },
    {
      "midi": 64,
      "hit": false,
      "t": 145566.66666666663,
      "d": 166.66666666668607,
      "v": 62
    },
    {
      "midi": 68,
      "hit": false,
      "t": 145579.99999999997,
      "d": 126.66666666665697,
      "v": 62
    },
    {
      "midi": 62,
      "hit": false,
      "t": 145579.99999999997,
      "d": 140,
      "v": 62
    },
    {
      "midi": 40,
      "hit": false,
      "t": 145586.66666666663,
      "d": 766.6666666667152,
      "v": 62
    },
    {
      "midi": 71,
      "hit": false,
      "t": 145599.99999999994,
      "d": 666.666666666657,
      "v": 127
    },
    {
      "midi": 76,
      "hit": false,
      "t": 145606.6666666666,
      "d": 606.666666666657,
      "v": 127
    },
    {
      "midi": 68,
      "hit": false,
      "t": 145606.6666666666,
      "d": 640,
      "v": 127
    },
    {
      "midi": 59,
      "hit": false,
      "t": 145606.66666666663,
      "d": 566.666666666657,
      "v": 121
    },
    {
      "midi": 68,
      "hit": false,
      "t": 145846.66666666666,
      "d": 120,
      "v": 52
    },
    {
      "midi": 62,
      "hit": false,
      "t": 145846.66666666666,
      "d": 133.33333333334303,
      "v": 52
    },
    {
      "midi": 64,
      "hit": false,
      "t": 145846.66666666666,
      "d": 133.33333333334303,
      "v": 52
    },
    {
      "midi": 62,
      "hit": false,
      "t": 146113.33333333334,
      "d": 133.33333333334303,
      "v": 56
    },
    {
      "midi": 68,
      "hit": false,
      "t": 146113.33333333334,
      "d": 140,
      "v": 58
    },
    {
      "midi": 64,
      "hit": false,
      "t": 146113.33333333334,
      "d": 153.33333333334303,
      "v": 54
    },
    {
      "midi": 76,
      "hit": false,
      "t": 146373.33333333326,
      "d": 106.66666666668607,
      "v": 127
    },
    {
      "midi": 74,
      "hit": false,
      "t": 146386.6666666666,
      "d": 106.66666666668607,
      "v": 127
    },
    {
      "midi": 68,
      "hit": false,
      "t": 146386.6666666666,
      "d": 133.33333333334303,
      "v": 127
    },
    {
      "midi": 62,
      "hit": false,
      "t": 146386.6666666667,
      "d": 126.66666666665697,
      "v": 58
    },
    {
      "midi": 64,
      "hit": false,
      "t": 146386.6666666667,
      "d": 140,
      "v": 56
    },
    {
      "midi": 68,
      "hit": false,
      "t": 146386.6666666667,
      "d": 153.33333333334303,
      "v": 60
    },
    {
      "midi": 36,
      "hit": false,
      "t": 146406.6666666667,
      "d": 540,
      "v": 62
    },
    {
      "midi": 35,
      "hit": false,
      "t": 146406.6666666667,
      "d": 573.333333333343,
      "v": 60
    },
    {
      "midi": 62,
      "hit": false,
      "t": 146653.33333333337,
      "d": 106.66666666665697,
      "v": 56
    },
    {
      "midi": 64,
      "hit": false,
      "t": 146653.33333333337,
      "d": 120,
      "v": 52
    },
    {
      "midi": 68,
      "hit": false,
      "t": 146653.33333333337,
      "d": 120,
      "v": 52
    },
    {
      "midi": 61,
      "hit": false,
      "t": 146673.33333333328,
      "d": 166.66666666665697,
      "v": 121
    },
    {
      "midi": 62,
      "hit": false,
      "t": 146900.00000000003,
      "d": 126.66666666665697,
      "v": 56
    },
    {
      "midi": 68,
      "hit": false,
      "t": 146900.00000000003,
      "d": 140,
      "v": 56
    },
    {
      "midi": 64,
      "hit": false,
      "t": 146900.00000000003,
      "d": 160,
      "v": 56
    },
    {
      "midi": 62,
      "hit": false,
      "t": 146933.33333333328,
      "d": 166.66666666665697,
      "v": 121
    },
    {
      "midi": 33,
      "hit": false,
      "t": 147166.6666666667,
      "d": 1200.000000000029,
      "v": 62
    },
    {
      "midi": 61,
      "hit": false,
      "t": 147173.33333333334,
      "d": 160,
      "v": 62
    },
    {
      "midi": 64,
      "hit": false,
      "t": 147173.33333333334,
      "d": 160,
      "v": 56
    },
    {
      "midi": 69,
      "hit": false,
      "t": 147173.33333333334,
      "d": 173.33333333334303,
      "v": 54
    },
    {
      "midi": 63,
      "hit": false,
      "t": 147299.99999999994,
      "d": 100,
      "v": 115
    },
    {
      "midi": 64,
      "hit": false,
      "t": 147333.33333333328,
      "d": 386.66666666665697,
      "v": 109
    },
    {
      "midi": 61,
      "hit": false,
      "t": 147446.6666666667,
      "d": 126.66666666665697,
      "v": 56
    },
    {
      "midi": 64,
      "hit": false,
      "t": 147446.6666666667,
      "d": 126.66666666665697,
      "v": 50
    },
    {
      "midi": 69,
      "hit": false,
      "t": 147446.6666666667,
      "d": 133.33333333331393,
      "v": 38
    },
    {
      "midi": 64,
      "hit": false,
      "t": 147666.66666666663,
      "d": 260,
      "v": 62
    },
    {
      "midi": 61,
      "hit": false,
      "t": 147700,
      "d": 153.33333333334303,
      "v": 58
    },
    {
      "midi": 64,
      "hit": false,
      "t": 147700,
      "d": 166.66666666668607,
      "v": 54
    },
    {
      "midi": 69,
      "hit": false,
      "t": 147700,
      "d": 166.66666666668607,
      "v": 46
    },
    {
      "midi": 63,
      "hit": false,
      "t": 147786.6666666666,
      "d": 93.33333333334303,
      "v": 116
    },
    {
      "midi": 64,
      "hit": false,
      "t": 147819.99999999994,
      "d": 353.33333333334303,
      "v": 109
    },
    {
      "midi": 69,
      "hit": false,
      "t": 147966.6666666666,
      "d": 53.333333333343035,
      "v": 127
    },
    {
      "midi": 76,
      "hit": false,
      "t": 147966.6666666666,
      "d": 53.333333333343035,
      "v": 127
    },
    {
      "midi": 73,
      "hit": false,
      "t": 147966.6666666666,
      "d": 100,
      "v": 127
    },
    {
      "midi": 61,
      "hit": false,
      "t": 147979.99999999997,
      "d": 473.33333333334303,
      "v": 62
    },
    {
      "midi": 45,
      "hit": false,
      "t": 148000.00000000003,
      "d": 100,
      "v": 62
    },
    {
      "midi": 61,
      "hit": false,
      "t": 148000.00000000003,
      "d": 133.33333333334303,
      "v": 58
    },
    {
      "midi": 64,
      "hit": false,
      "t": 148000.00000000003,
      "d": 133.33333333334303,
      "v": 52
    },
    {
      "midi": 69,
      "hit": false,
      "t": 148006.6666666667,
      "d": 126.66666666668607,
      "v": 52
    },
    {
      "midi": 63,
      "hit": false,
      "t": 148246.66666666663,
      "d": 100,
      "v": 113
    },
    {
      "midi": 61,
      "hit": false,
      "t": 148273.33333333337,
      "d": 100,
      "v": 54
    },
    {
      "midi": 64,
      "hit": false,
      "t": 148273.33333333337,
      "d": 126.66666666665697,
      "v": 46
    },
    {
      "midi": 69,
      "hit": false,
      "t": 148286.66666666672,
      "d": 93.33333333331393,
      "v": 44
    },
    {
      "midi": 64,
      "hit": false,
      "t": 148299.99999999997,
      "d": 1866.666666666657,
      "v": 98
    },
    {
      "midi": 37,
      "hit": false,
      "t": 148513.33333333337,
      "d": 233.33333333334303,
      "v": 62
    },
    {
      "midi": 64,
      "hit": false,
      "t": 148533.33333333326,
      "d": 33.333333333343035,
      "v": 127
    },
    {
      "midi": 61,
      "hit": false,
      "t": 148533.33333333337,
      "d": 126.66666666665697,
      "v": 56
    },
    {
      "midi": 64,
      "hit": false,
      "t": 148540.00000000003,
      "d": 133.33333333334303,
      "v": 48
    },
    {
      "midi": 62,
      "hit": false,
      "t": 148553.3333333333,
      "d": 253.33333333334303,
      "v": 62
    },
    {
      "midi": 69,
      "hit": false,
      "t": 148553.33333333337,
      "d": 100,
      "v": 44
    },
    {
      "midi": 76,
      "hit": false,
      "t": 148799.99999999994,
      "d": 700,
      "v": 127
    },
    {
      "midi": 69,
      "hit": false,
      "t": 148799.99999999994,
      "d": 733.333333333343,
      "v": 127
    },
    {
      "midi": 73,
      "hit": false,
      "t": 148799.99999999994,
      "d": 740,
      "v": 127
    },
    {
      "midi": 61,
      "hit": false,
      "t": 148806.66666666672,
      "d": 126.66666666665697,
      "v": 58
    },
    {
      "midi": 64,
      "hit": false,
      "t": 148813.33333333337,
      "d": 133.33333333334303,
      "v": 52
    },
    {
      "midi": 40,
      "hit": false,
      "t": 148820.00000000003,
      "d": 733.3333333333139,
      "v": 62
    },
    {
      "midi": 69,
      "hit": false,
      "t": 148833.33333333337,
      "d": 100,
      "v": 46
    },
    {
      "midi": 64,
      "hit": false,
      "t": 148873.3333333333,
      "d": 653.333333333343,
      "v": 62
    },
    {
      "midi": 61,
      "hit": false,
      "t": 149073.33333333337,
      "d": 120,
      "v": 52
    },
    {
      "midi": 64,
      "hit": false,
      "t": 149073.33333333337,
      "d": 140,
      "v": 48
    },
    {
      "midi": 69,
      "hit": false,
      "t": 149100.00000000003,
      "d": 100,
      "v": 44
    },
    {
      "midi": 61,
      "hit": false,
      "t": 149340.00000000003,
      "d": 133.33333333331393,
      "v": 54
    },
    {
      "midi": 64,
      "hit": false,
      "t": 149346.6666666667,
      "d": 140,
      "v": 50
    },
    {
      "midi": 69,
      "hit": false,
      "t": 149366.6666666667,
      "d": 100,
      "v": 48
    },
    {
      "midi": 61,
      "hit": false,
      "t": 149613.33333333334,
      "d": 140,
      "v": 56
    },
    {
      "midi": 64,
      "hit": false,
      "t": 149633.33333333328,
      "d": 100,
      "v": 127
    },
    {
      "midi": 73,
      "hit": false,
      "t": 149633.33333333328,
      "d": 100,
      "v": 127
    },
    {
      "midi": 64,
      "hit": false,
      "t": 149633.33333333334,
      "d": 140,
      "v": 54
    },
    {
      "midi": 37,
      "hit": false,
      "t": 149633.33333333334,
      "d": 433.33333333331393,
      "v": 62
    },
    {
      "midi": 69,
      "hit": false,
      "t": 149640,
      "d": 100,
      "v": 48
    },
    {
      "midi": 69,
      "hit": false,
      "t": 149646.66666666663,
      "d": 86.66666666665697,
      "v": 127
    },
    {
      "midi": 76,
      "hit": false,
      "t": 149646.66666666663,
      "d": 86.66666666665697,
      "v": 127
    },
    {
      "midi": 66,
      "hit": false,
      "t": 149666.66666666666,
      "d": 420,
      "v": 62
    },
    {
      "midi": 61,
      "hit": false,
      "t": 149880,
      "d": 120,
      "v": 56
    },
    {
      "midi": 64,
      "hit": false,
      "t": 149880,
      "d": 140,
      "v": 48
    },
    {
      "midi": 69,
      "hit": false,
      "t": 149900,
      "d": 93.33333333334303,
      "v": 48
    },
    {
      "midi": 64,
      "hit": false,
      "t": 150140,
      "d": 173.33333333334303,
      "v": 52
    },
    {
      "midi": 64,
      "hit": false,
      "t": 150146.66666666663,
      "d": 1000,
      "v": 127
    },
    {
      "midi": 69,
      "hit": false,
      "t": 150146.66666666666,
      "d": 120,
      "v": 54
    },
    {
      "midi": 61,
      "hit": false,
      "t": 150146.66666666666,
      "d": 166.66666666668607,
      "v": 58
    },
    {
      "midi": 40,
      "hit": false,
      "t": 150153.3333333333,
      "d": 126.66666666668607,
      "v": 62
    },
    {
      "midi": 64,
      "hit": false,
      "t": 150186.66666666666,
      "d": 1933.333333333343,
      "v": 62
    },
    {
      "midi": 64,
      "hit": false,
      "t": 150420,
      "d": 153.33333333334303,
      "v": 58
    },
    {
      "midi": 68,
      "hit": false,
      "t": 150433.33333333334,
      "d": 120,
      "v": 62
    },
    {
      "midi": 62,
      "hit": false,
      "t": 150433.33333333334,
      "d": 133.33333333334303,
      "v": 58
    },
    {
      "midi": 40,
      "hit": false,
      "t": 150433.33333333334,
      "d": 1219.999999999971,
      "v": 62
    },
    {
      "midi": 68,
      "hit": false,
      "t": 150466.66666666663,
      "d": 700,
      "v": 127
    },
    {
      "midi": 76,
      "hit": false,
      "t": 150473.33333333328,
      "d": 660,
      "v": 127
    },
    {
      "midi": 71,
      "hit": false,
      "t": 150473.33333333328,
      "d": 700,
      "v": 127
    },
    {
      "midi": 62,
      "hit": false,
      "t": 150706.6666666667,
      "d": 120,
      "v": 50
    },
    {
      "midi": 68,
      "hit": false,
      "t": 150706.6666666667,
      "d": 120,
      "v": 46
    },
    {
      "midi": 64,
      "hit": false,
      "t": 150706.6666666667,
      "d": 126.66666666665697,
      "v": 46
    },
    {
      "midi": 62,
      "hit": false,
      "t": 150966.6666666667,
      "d": 139.9999999999709,
      "v": 52
    },
    {
      "midi": 64,
      "hit": false,
      "t": 150966.6666666667,
      "d": 153.33333333331393,
      "v": 50
    },
    {
      "midi": 68,
      "hit": false,
      "t": 150973.33333333334,
      "d": 126.66666666665697,
      "v": 50
    },
    {
      "midi": 52,
      "hit": false,
      "t": 151240,
      "d": 73.33333333331393,
      "v": 62
    },
    {
      "midi": 62,
      "hit": false,
      "t": 151240,
      "d": 119.9999999999709,
      "v": 54
    },
    {
      "midi": 64,
      "hit": false,
      "t": 151240,
      "d": 133.33333333331393,
      "v": 54
    },
    {
      "midi": 68,
      "hit": false,
      "t": 151246.66666666666,
      "d": 106.66666666665697,
      "v": 54
    },
    {
      "midi": 64,
      "hit": false,
      "t": 151266.66666666663,
      "d": 93.33333333334303,
      "v": 127
    },
    {
      "midi": 68,
      "hit": false,
      "t": 151266.66666666663,
      "d": 93.33333333334303,
      "v": 127
    },
    {
      "midi": 71,
      "hit": false,
      "t": 151266.66666666663,
      "d": 93.33333333334303,
      "v": 127
    },
    {
      "midi": 76,
      "hit": false,
      "t": 151273.33333333328,
      "d": 73.33333333334303,
      "v": 127
    },
    {
      "midi": 64,
      "hit": false,
      "t": 151506.66666666666,
      "d": 106.66666666665697,
      "v": 46
    },
    {
      "midi": 62,
      "hit": false,
      "t": 151513.3333333333,
      "d": 100,
      "v": 50
    },
    {
      "midi": 68,
      "hit": false,
      "t": 151519.99999999997,
      "d": 73.33333333334303,
      "v": 50
    },
    {
      "midi": 64,
      "hit": false,
      "t": 151586.66666666663,
      "d": 386.66666666665697,
      "v": 121
    },
    {
      "midi": 62,
      "hit": false,
      "t": 151766.66666666666,
      "d": 133.33333333331393,
      "v": 52
    },
    {
      "midi": 44,
      "hit": false,
      "t": 151766.66666666666,
      "d": 219.9999999999709,
      "v": 62
    },
    {
      "midi": 68,
      "hit": false,
      "t": 151773.3333333333,
      "d": 120,
      "v": 52
    },
    {
      "midi": 64,
      "hit": false,
      "t": 151773.3333333333,
      "d": 133.33333333331393,
      "v": 52
    },
    {
      "midi": 64,
      "hit": false,
      "t": 151779.99999999997,
      "d": 1126.666666666686,
      "v": 127
    },
    {
      "midi": 62,
      "hit": false,
      "t": 152039.99999999997,
      "d": 133.33333333331393,
      "v": 50
    },
    {
      "midi": 64,
      "hit": false,
      "t": 152046.66666666663,
      "d": 140,
      "v": 50
    },
    {
      "midi": 59,
      "hit": false,
      "t": 152066.66666666663,
      "d": 500,
      "v": 121
    },
    {
      "midi": 68,
      "hit": false,
      "t": 152066.66666666663,
      "d": 100,
      "v": 52
    },
    {
      "midi": 47,
      "hit": false,
      "t": 152066.66666666663,
      "d": 673.3333333333139,
      "v": 62
    },
    {
      "midi": 68,
      "hit": false,
      "t": 152079.99999999997,
      "d": 686.666666666657,
      "v": 127
    },
    {
      "midi": 76,
      "hit": false,
      "t": 152079.99999999997,
      "d": 686.666666666657,
      "v": 127
    },
    {
      "midi": 71,
      "hit": false,
      "t": 152079.99999999997,
      "d": 700,
      "v": 127
    },
    {
      "midi": 62,
      "hit": false,
      "t": 152313.33333333328,
      "d": 106.66666666665697,
      "v": 52
    },
    {
      "midi": 64,
      "hit": false,
      "t": 152313.33333333328,
      "d": 120,
      "v": 52
    },
    {
      "midi": 68,
      "hit": false,
      "t": 152333.33333333328,
      "d": 66.66666666665697,
      "v": 52
    },
    {
      "midi": 62,
      "hit": false,
      "t": 152573.33333333328,
      "d": 120,
      "v": 50
    },
    {
      "midi": 64,
      "hit": false,
      "t": 152573.33333333328,
      "d": 126.66666666665697,
      "v": 50
    },
    {
      "midi": 68,
      "hit": false,
      "t": 152599.99999999994,
      "d": 73.33333333334303,
      "v": 52
    },
    {
      "midi": 61,
      "hit": false,
      "t": 152639.99999999997,
      "d": 386.66666666665697,
      "v": 121
    },
    {
      "midi": 44,
      "hit": false,
      "t": 152813.33333333328,
      "d": 493.33333333334303,
      "v": 62
    },
    {
      "midi": 62,
      "hit": false,
      "t": 152833.33333333328,
      "d": 120,
      "v": 56
    },
    {
      "midi": 68,
      "hit": false,
      "t": 152833.33333333328,
      "d": 120,
      "v": 58
    },
    {
      "midi": 64,
      "hit": false,
      "t": 152833.33333333328,
      "d": 133.33333333334303,
      "v": 56
    },
    {
      "midi": 76,
      "hit": false,
      "t": 152833.3333333333,
      "d": 126.66666666665697,
      "v": 127
    },
    {
      "midi": 71,
      "hit": false,
      "t": 152846.66666666666,
      "d": 100,
      "v": 127
    },
    {
      "midi": 68,
      "hit": false,
      "t": 152846.66666666666,
      "d": 106.66666666665697,
      "v": 127
    },
    {
      "midi": 62,
      "hit": false,
      "t": 153099.99999999997,
      "d": 93.33333333334303,
      "v": 52
    },
    {
      "midi": 64,
      "hit": false,
      "t": 153099.99999999997,
      "d": 100,
      "v": 50
    },
    {
      "midi": 68,
      "hit": false,
      "t": 153099.99999999997,
      "d": 100,
      "v": 52
    },
    {
      "midi": 62,
      "hit": false,
      "t": 153153.3333333333,
      "d": 306.66666666665697,
      "v": 121
    },
    {
      "midi": 64,
      "hit": false,
      "t": 153299.99999999997,
      "d": 1040,
      "v": 127
    },
    {
      "midi": 64,
      "hit": false,
      "t": 153333.33333333328,
      "d": 139.9999999999709,
      "v": 52
    },
    {
      "midi": 68,
      "hit": false,
      "t": 153333.33333333328,
      "d": 139.9999999999709,
      "v": 54
    },
    {
      "midi": 62,
      "hit": false,
      "t": 153339.99999999994,
      "d": 106.66666666665697,
      "v": 56
    },
    {
      "midi": 45,
      "hit": false,
      "t": 153366.6666666666,
      "d": 160,
      "v": 62
    },
    {
      "midi": 61,
      "hit": false,
      "t": 153599.99999999994,
      "d": 140,
      "v": 58
    },
    {
      "midi": 64,
      "hit": false,
      "t": 153599.99999999994,
      "d": 153.33333333334303,
      "v": 52
    },
    {
      "midi": 69,
      "hit": false,
      "t": 153599.99999999994,
      "d": 153.33333333334303,
      "v": 56
    },
    {
      "midi": 76,
      "hit": false,
      "t": 153599.99999999997,
      "d": 693.333333333343,
      "v": 127
    },
    {
      "midi": 69,
      "hit": false,
      "t": 153599.99999999997,
      "d": 733.333333333343,
      "v": 127
    },
    {
      "midi": 73,
      "hit": false,
      "t": 153599.99999999997,
      "d": 760,
      "v": 127
    },
    {
      "midi": 33,
      "hit": false,
      "t": 153606.6666666666,
      "d": 1286.666666666657,
      "v": 62
    },
    {
      "midi": 63,
      "hit": false,
      "t": 153639.99999999997,
      "d": 100,
      "v": 121
    },
    {
      "midi": 64,
      "hit": false,
      "t": 153686.66666666663,
      "d": 4160,
      "v": 101
    },
    {
      "midi": 61,
      "hit": false,
      "t": 153873.33333333328,
      "d": 126.66666666668607,
      "v": 54
    },
    {
      "midi": 64,
      "hit": false,
      "t": 153873.33333333328,
      "d": 133.33333333334303,
      "v": 50
    },
    {
      "midi": 69,
      "hit": false,
      "t": 153886.66666666663,
      "d": 120,
      "v": 44
    },
    {
      "midi": 61,
      "hit": false,
      "t": 154133.33333333328,
      "d": 133.33333333331393,
      "v": 58
    },
    {
      "midi": 64,
      "hit": false,
      "t": 154133.33333333328,
      "d": 139.9999999999709,
      "v": 52
    },
    {
      "midi": 64,
      "hit": false,
      "t": 154133.33333333334,
      "d": 253.33333333334303,
      "v": 62
    },
    {
      "midi": 69,
      "hit": false,
      "t": 154139.99999999994,
      "d": 126.66666666665697,
      "v": 44
    },
    {
      "midi": 64,
      "hit": false,
      "t": 154399.9999999999,
      "d": 160,
      "v": 56
    },
    {
      "midi": 61,
      "hit": false,
      "t": 154406.66666666657,
      "d": 126.66666666668607,
      "v": 60
    },
    {
      "midi": 45,
      "hit": false,
      "t": 154406.66666666657,
      "d": 153.33333333334303,
      "v": 62
    },
    {
      "midi": 69,
      "hit": false,
      "t": 154419.9999999999,
      "d": 133.33333333334303,
      "v": 52
    },
    {
      "midi": 69,
      "hit": false,
      "t": 154433.3333333333,
      "d": 86.66666666668607,
      "v": 127
    },
    {
      "midi": 73,
      "hit": false,
      "t": 154433.3333333333,
      "d": 93.33333333334303,
      "v": 127
    },
    {
      "midi": 76,
      "hit": false,
      "t": 154433.3333333333,
      "d": 100,
      "v": 127
    },
    {
      "midi": 61,
      "hit": false,
      "t": 154433.33333333334,
      "d": 433.33333333334303,
      "v": 62
    },
    {
      "midi": 64,
      "hit": false,
      "t": 154446.66666666666,
      "d": 86.66666666665697,
      "v": 127
    },
    {
      "midi": 61,
      "hit": false,
      "t": 154673.33333333326,
      "d": 126.66666666665697,
      "v": 56
    },
    {
      "midi": 64,
      "hit": false,
      "t": 154673.33333333326,
      "d": 140,
      "v": 50
    },
    {
      "midi": 69,
      "hit": false,
      "t": 154699.9999999999,
      "d": 133.33333333334303,
      "v": 46
    },
    {
      "midi": 69,
      "hit": false,
      "t": 154933.33333333326,
      "d": 100,
      "v": 44
    },
    {
      "midi": 61,
      "hit": false,
      "t": 154933.33333333326,
      "d": 133.33333333334303,
      "v": 60
    },
    {
      "midi": 64,
      "hit": false,
      "t": 154933.33333333326,
      "d": 133.33333333334303,
      "v": 54
    },
    {
      "midi": 64,
      "hit": false,
      "t": 154933.3333333333,
      "d": 1033.333333333314,
      "v": 127
    },
    {
      "midi": 37,
      "hit": false,
      "t": 154946.6666666666,
      "d": 220,
      "v": 62
    },
    {
      "midi": 62,
      "hit": false,
      "t": 154946.6666666667,
      "d": 273.33333333334303,
      "v": 62
    },
    {
      "midi": 61,
      "hit": false,
      "t": 155206.6666666666,
      "d": 139.9999999999709,
      "v": 60
    },
    {
      "midi": 64,
      "hit": false,
      "t": 155213.33333333326,
      "d": 153.33333333331393,
      "v": 56
    },
    {
      "midi": 76,
      "hit": false,
      "t": 155219.99999999997,
      "d": 706.666666666657,
      "v": 127
    },
    {
      "midi": 69,
      "hit": false,
      "t": 155219.99999999997,
      "d": 753.3333333333139,
      "v": 127
    },
    {
      "midi": 73,
      "hit": false,
      "t": 155219.99999999997,
      "d": 759.9999999999709,
      "v": 127
    },
    {
      "midi": 69,
      "hit": false,
      "t": 155233.33333333326,
      "d": 119.9999999999709,
      "v": 52
    },
    {
      "midi": 40,
      "hit": false,
      "t": 155239.9999999999,
      "d": 693.3333333333139,
      "v": 62
    },
    {
      "midi": 64,
      "hit": false,
      "t": 155273.33333333337,
      "d": 700,
      "v": 62
    },
    {
      "midi": 61,
      "hit": false,
      "t": 155466.66666666657,
      "d": 133.33333333334303,
      "v": 56
    },
    {
      "midi": 64,
      "hit": false,
      "t": 155466.66666666657,
      "d": 140,
      "v": 48
    },
    {
      "midi": 69,
      "hit": false,
      "t": 155486.66666666657,
      "d": 93.33333333334303,
      "v": 40
    },
    {
      "midi": 61,
      "hit": false,
      "t": 155733.33333333323,
      "d": 133.33333333334303,
      "v": 58
    },
    {
      "midi": 64,
      "hit": false,
      "t": 155733.33333333323,
      "d": 133.33333333334303,
      "v": 54
    },
    {
      "midi": 69,
      "hit": false,
      "t": 155746.66666666657,
      "d": 86.66666666665697,
      "v": 44
    },
    {
      "midi": 61,
      "hit": false,
      "t": 156006.66666666657,
      "d": 133.33333333334303,
      "v": 62
    },
    {
      "midi": 64,
      "hit": false,
      "t": 156006.66666666657,
      "d": 140,
      "v": 58
    },
    {
      "midi": 37,
      "hit": false,
      "t": 156006.66666666657,
      "d": 359.9999999999709,
      "v": 62
    },
    {
      "midi": 69,
      "hit": false,
      "t": 156019.9999999999,
      "d": 106.66666666665697,
      "v": 48
    },
    {
      "midi": 66,
      "hit": false,
      "t": 156040.00000000003,
      "d": 420,
      "v": 62
    },
    {
      "midi": 73,
      "hit": false,
      "t": 156066.6666666666,
      "d": 100,
      "v": 127
    },
    {
      "midi": 76,
      "hit": false,
      "t": 156066.6666666666,
      "d": 100,
      "v": 127
    },
    {
      "midi": 69,
      "hit": false,
      "t": 156079.99999999994,
      "d": 86.66666666665697,
      "v": 127
    },
    {
      "midi": 64,
      "hit": false,
      "t": 156079.99999999994,
      "d": 93.33333333331393,
      "v": 127
    },
    {
      "midi": 64,
      "hit": false,
      "t": 156273.33333333323,
      "d": 126.66666666665697,
      "v": 56
    },
    {
      "midi": 61,
      "hit": false,
      "t": 156279.99999999988,
      "d": 120,
      "v": 58
    },
    {
      "midi": 64,
      "hit": false,
      "t": 156540.00000000003,
      "d": 2033.333333333343,
      "v": 62
    },
    {
      "midi": 61,
      "hit": false,
      "t": 156553.33333333323,
      "d": 126.66666666668607,
      "v": 60
    },
    {
      "midi": 64,
      "hit": false,
      "t": 156553.33333333323,
      "d": 133.33333333334303,
      "v": 52
    },
    {
      "midi": 40,
      "hit": false,
      "t": 156566.66666666657,
      "d": 193.33333333334303,
      "v": 62
    },
    {
      "midi": 69,
      "hit": false,
      "t": 156573.33333333323,
      "d": 93.33333333334303,
      "v": 46
    },
    {
      "midi": 64,
      "hit": false,
      "t": 156586.6666666666,
      "d": 953.333333333343,
      "v": 127
    },
    {
      "midi": 61,
      "hit": false,
      "t": 156833.33333333326,
      "d": 133.33333333334303,
      "v": 60
    },
    {
      "midi": 64,
      "hit": false,
      "t": 156833.33333333326,
      "d": 140,
      "v": 54
    },
    {
      "midi": 76,
      "hit": false,
      "t": 156853.33333333326,
      "d": 673.333333333343,
      "v": 127
    },
    {
      "midi": 73,
      "hit": false,
      "t": 156853.33333333326,
      "d": 720.0000000000291,
      "v": 127
    },
    {
      "midi": 69,
      "hit": false,
      "t": 156853.33333333326,
      "d": 100,
      "v": 46
    },
    {
      "midi": 33,
      "hit": false,
      "t": 156853.33333333326,
      "d": 1253.3333333332848,
      "v": 62
    },
    {
      "midi": 69,
      "hit": false,
      "t": 156886.6666666666,
      "d": 673.333333333343,
      "v": 127
    },
    {
      "midi": 64,
      "hit": false,
      "t": 157099.9999999999,
      "d": 133.33333333331393,
      "v": 52
    },
    {
      "midi": 61,
      "hit": false,
      "t": 157106.66666666657,
      "d": 106.66666666665697,
      "v": 58
    },
    {
      "midi": 61,
      "hit": false,
      "t": 157353.33333333323,
      "d": 120,
      "v": 60
    },
    {
      "midi": 64,
      "hit": false,
      "t": 157353.33333333323,
      "d": 133.33333333334303,
      "v": 52
    },
    {
      "midi": 64,
      "hit": false,
      "t": 157619.9999999999,
      "d": 140,
      "v": 56
    },
    {
      "midi": 45,
      "hit": false,
      "t": 157633.33333333326,
      "d": 100,
      "v": 62
    },
    {
      "midi": 61,
      "hit": false,
      "t": 157633.33333333326,
      "d": 120,
      "v": 60
    },
    {
      "midi": 69,
      "hit": false,
      "t": 157646.6666666666,
      "d": 93.33333333331393,
      "v": 50
    },
    {
      "midi": 76,
      "hit": false,
      "t": 157666.66666666663,
      "d": 100,
      "v": 127
    },
    {
      "midi": 69,
      "hit": false,
      "t": 157666.66666666663,
      "d": 106.66666666665697,
      "v": 127
    },
    {
      "midi": 73,
      "hit": false,
      "t": 157666.66666666663,
      "d": 106.66666666665697,
      "v": 127
    },
    {
      "midi": 64,
      "hit": false,
      "t": 157666.66666666663,
      "d": 133.33333333331393,
      "v": 127
    },
    {
      "midi": 61,
      "hit": false,
      "t": 157886.66666666657,
      "d": 126.66666666665697,
      "v": 58
    },
    {
      "midi": 64,
      "hit": false,
      "t": 157886.66666666657,
      "d": 133.33333333331393,
      "v": 52
    },
    {
      "midi": 64,
      "hit": false,
      "t": 158046.66666666663,
      "d": 320,
      "v": 121
    },
    {
      "midi": 37,
      "hit": false,
      "t": 158139.99999999988,
      "d": 206.66666666665697,
      "v": 62
    },
    {
      "midi": 61,
      "hit": false,
      "t": 158153.33333333323,
      "d": 133.33333333331393,
      "v": 62
    },
    {
      "midi": 64,
      "hit": false,
      "t": 158153.33333333323,
      "d": 139.9999999999709,
      "v": 54
    },
    {
      "midi": 64,
      "hit": false,
      "t": 158153.33333333328,
      "d": 1000,
      "v": 127
    },
    {
      "midi": 69,
      "hit": false,
      "t": 158179.99999999988,
      "d": 86.66666666665697,
      "v": 48
    },
    {
      "midi": 61,
      "hit": false,
      "t": 158419.99999999988,
      "d": 133.33333333334303,
      "v": 60
    },
    {
      "midi": 64,
      "hit": false,
      "t": 158419.99999999988,
      "d": 153.33333333334303,
      "v": 56
    },
    {
      "midi": 40,
      "hit": false,
      "t": 158433.33333333323,
      "d": 753.3333333333721,
      "v": 62
    },
    {
      "midi": 69,
      "hit": false,
      "t": 158446.66666666657,
      "d": 100,
      "v": 50
    },
    {
      "midi": 76,
      "hit": false,
      "t": 158473.33333333328,
      "d": 600,
      "v": 127
    },
    {
      "midi": 69,
      "hit": false,
      "t": 158473.33333333328,
      "d": 666.666666666657,
      "v": 127
    },
    {
      "midi": 73,
      "hit": false,
      "t": 158473.33333333328,
      "d": 666.666666666657,
      "v": 127
    },
    {
      "midi": 63,
      "hit": false,
      "t": 158479.99999999997,
      "d": 386.66666666665697,
      "v": 121
    },
    {
      "midi": 61,
      "hit": false,
      "t": 158686.66666666657,
      "d": 126.66666666668607,
      "v": 62
    },
    {
      "midi": 64,
      "hit": false,
      "t": 158686.66666666657,
      "d": 140.0000000000291,
      "v": 58
    },
    {
      "midi": 69,
      "hit": false,
      "t": 158706.66666666657,
      "d": 93.33333333334303,
      "v": 54
    },
    {
      "midi": 61,
      "hit": false,
      "t": 158946.6666666666,
      "d": 140,
      "v": 60
    },
    {
      "midi": 64,
      "hit": false,
      "t": 158946.6666666666,
      "d": 153.33333333334303,
      "v": 56
    },
    {
      "midi": 69,
      "hit": false,
      "t": 158966.6666666666,
      "d": 106.66666666665697,
      "v": 52
    },
    {
      "midi": 64,
      "hit": false,
      "t": 159013.33333333328,
      "d": 360,
      "v": 121
    },
    {
      "midi": 37,
      "hit": false,
      "t": 159213.33333333326,
      "d": 566.6666666666861,
      "v": 62
    },
    {
      "midi": 61,
      "hit": false,
      "t": 159219.9999999999,
      "d": 140,
      "v": 58
    },
    {
      "midi": 64,
      "hit": false,
      "t": 159233.33333333326,
      "d": 133.33333333331393,
      "v": 58
    },
    {
      "midi": 76,
      "hit": false,
      "t": 159233.33333333328,
      "d": 106.66666666665697,
      "v": 127
    },
    {
      "midi": 73,
      "hit": false,
      "t": 159233.33333333328,
      "d": 120,
      "v": 127
    },
    {
      "midi": 69,
      "hit": false,
      "t": 159233.33333333328,
      "d": 126.66666666665697,
      "v": 127
    },
    {
      "midi": 69,
      "hit": false,
      "t": 159239.9999999999,
      "d": 126.66666666665697,
      "v": 50
    },
    {
      "midi": 61,
      "hit": false,
      "t": 159479.9999999999,
      "d": 126.66666666665697,
      "v": 60
    },
    {
      "midi": 64,
      "hit": false,
      "t": 159479.9999999999,
      "d": 140,
      "v": 56
    },
    {
      "midi": 66,
      "hit": false,
      "t": 159486.66666666663,
      "d": 406.66666666665697,
      "v": 121
    },
    {
      "midi": 69,
      "hit": false,
      "t": 159499.9999999999,
      "d": 100,
      "v": 52
    },
    {
      "midi": 64,
      "hit": false,
      "t": 159713.33333333328,
      "d": 140,
      "v": 127
    },
    {
      "midi": 69,
      "hit": false,
      "t": 159733.33333333326,
      "d": 100.0000000000291,
      "v": 58
    },
    {
      "midi": 61,
      "hit": false,
      "t": 159733.33333333326,
      "d": 140.0000000000291,
      "v": 62
    },
    {
      "midi": 64,
      "hit": false,
      "t": 159733.33333333326,
      "d": 153.33333333337214,
      "v": 56
    },
    {
      "midi": 40,
      "hit": false,
      "t": 159746.6666666666,
      "d": 153.33333333337214,
      "v": 62
    },
    {
      "midi": 64,
      "hit": false,
      "t": 159999.99999999997,
      "d": 166.66666666665697,
      "v": 54
    },
    {
      "midi": 68,
      "hit": false,
      "t": 160006.66666666663,
      "d": 726.666666666657,
      "v": 127
    },
    {
      "midi": 68,
      "hit": false,
      "t": 160006.66666666663,
      "d": 126.66666666668607,
      "v": 62
    },
    {
      "midi": 61,
      "hit": false,
      "t": 160006.66666666663,
      "d": 153.33333333334303,
      "v": 60
    },
    {
      "midi": 68,
      "hit": false,
      "t": 160033.33333333328,
      "d": 633.333333333343,
      "v": 121
    },
    {
      "midi": 76,
      "hit": false,
      "t": 160033.33333333328,
      "d": 620,
      "v": 127
    },
    {
      "midi": 73,
      "hit": false,
      "t": 160033.33333333328,
      "d": 700,
      "v": 127
    },
    {
      "midi": 37,
      "hit": false,
      "t": 160039.99999999997,
      "d": 1159.999999999971,
      "v": 62
    },
    {
      "midi": 36,
      "hit": false,
      "t": 160073.3333333333,
      "d": 66.66666666665697,
      "v": 54
    },
    {
      "midi": 61,
      "hit": false,
      "t": 160279.99999999997,
      "d": 133.33333333331393,
      "v": 56
    },
    {
      "midi": 64,
      "hit": false,
      "t": 160279.99999999997,
      "d": 139.9999999999709,
      "v": 52
    },
    {
      "midi": 68,
      "hit": false,
      "t": 160286.66666666663,
      "d": 106.66666666665697,
      "v": 54
    },
    {
      "midi": 68,
      "hit": false,
      "t": 160500.00000000003,
      "d": 326.66666666665697,
      "v": 62
    },
    {
      "midi": 61,
      "hit": false,
      "t": 160533.33333333328,
      "d": 153.33333333331393,
      "v": 56
    },
    {
      "midi": 68,
      "hit": false,
      "t": 160539.99999999994,
      "d": 140,
      "v": 52
    },
    {
      "midi": 64,
      "hit": false,
      "t": 160539.99999999994,
      "d": 160,
      "v": 50
    },
    {
      "midi": 68,
      "hit": false,
      "t": 160799.99999999994,
      "d": 126.66666666665697,
      "v": 127
    },
    {
      "midi": 49,
      "hit": false,
      "t": 160799.99999999994,
      "d": 140,
      "v": 62
    },
    {
      "midi": 76,
      "hit": false,
      "t": 160806.6666666666,
      "d": 126.66666666665697,
      "v": 127
    },
    {
      "midi": 61,
      "hit": false,
      "t": 160813.33333333328,
      "d": 133.33333333331393,
      "v": 58
    },
    {
      "midi": 64,
      "hit": false,
      "t": 160813.33333333328,
      "d": 153.33333333331393,
      "v": 54
    },
    {
      "midi": 68,
      "hit": false,
      "t": 160813.33333333328,
      "d": 153.33333333331393,
      "v": 56
    },
    {
      "midi": 73,
      "hit": false,
      "t": 160819.99999999994,
      "d": 100,
      "v": 127
    },
    {
      "midi": 68,
      "hit": false,
      "t": 160833.33333333328,
      "d": 326.66666666665697,
      "v": 121
    },
    {
      "midi": 64,
      "hit": false,
      "t": 160840.00000000003,
      "d": 406.66666666665697,
      "v": 60
    },
    {
      "midi": 68,
      "hit": false,
      "t": 161079.99999999994,
      "d": 126.66666666665697,
      "v": 54
    },
    {
      "midi": 61,
      "hit": false,
      "t": 161079.99999999994,
      "d": 133.33333333331393,
      "v": 56
    },
    {
      "midi": 64,
      "hit": false,
      "t": 161079.99999999994,
      "d": 153.33333333331393,
      "v": 52
    },
    {
      "midi": 66,
      "hit": false,
      "t": 161280.00000000003,
      "d": 266.66666666665697,
      "v": 62
    },
    {
      "midi": 68,
      "hit": false,
      "t": 161299.99999999994,
      "d": 2920,
      "v": 121
    },
    {
      "midi": 64,
      "hit": false,
      "t": 161306.6666666666,
      "d": 253.33333333334303,
      "v": 127
    },
    {
      "midi": 40,
      "hit": false,
      "t": 161319.9999999999,
      "d": 240.0000000000291,
      "v": 62
    },
    {
      "midi": 61,
      "hit": false,
      "t": 161333.33333333326,
      "d": 160,
      "v": 58
    },
    {
      "midi": 64,
      "hit": false,
      "t": 161333.33333333326,
      "d": 173.33333333334303,
      "v": 54
    },
    {
      "midi": 68,
      "hit": false,
      "t": 161339.9999999999,
      "d": 153.33333333334303,
      "v": 58
    },
    {
      "midi": 76,
      "hit": false,
      "t": 161599.99999999994,
      "d": 666.666666666657,
      "v": 127
    },
    {
      "midi": 73,
      "hit": false,
      "t": 161599.99999999994,
      "d": 693.3333333333139,
      "v": 127
    },
    {
      "midi": 68,
      "hit": false,
      "t": 161599.99999999994,
      "d": 699.9999999999709,
      "v": 127
    },
    {
      "midi": 68,
      "hit": false,
      "t": 161600.00000000003,
      "d": 726.666666666657,
      "v": 62
    },
    {
      "midi": 61,
      "hit": false,
      "t": 161606.6666666666,
      "d": 133.33333333331393,
      "v": 54
    },
    {
      "midi": 64,
      "hit": false,
      "t": 161606.6666666666,
      "d": 159.9999999999709,
      "v": 50
    },
    {
      "midi": 68,
      "hit": false,
      "t": 161633.33333333326,
      "d": 106.66666666665697,
      "v": 56
    },
    {
      "midi": 44,
      "hit": false,
      "t": 161633.33333333326,
      "d": 693.3333333332557,
      "v": 62
    },
    {
      "midi": 61,
      "hit": false,
      "t": 161873.33333333323,
      "d": 126.66666666665697,
      "v": 54
    },
    {
      "midi": 64,
      "hit": false,
      "t": 161873.33333333323,
      "d": 153.33333333331393,
      "v": 52
    },
    {
      "midi": 68,
      "hit": false,
      "t": 161879.99999999988,
      "d": 106.66666666665697,
      "v": 54
    },
    {
      "midi": 68,
      "hit": false,
      "t": 162133.3333333332,
      "d": 126.66666666665697,
      "v": 54
    },
    {
      "midi": 61,
      "hit": false,
      "t": 162133.3333333332,
      "d": 133.33333333331393,
      "v": 54
    },
    {
      "midi": 64,
      "hit": false,
      "t": 162133.3333333332,
      "d": 159.9999999999709,
      "v": 52
    },
    {
      "midi": 40,
      "hit": false,
      "t": 162339.99999999985,
      "d": 506.66666666662786,
      "v": 60
    },
    {
      "midi": 76,
      "hit": false,
      "t": 162386.66666666657,
      "d": 120,
      "v": 127
    },
    {
      "midi": 68,
      "hit": false,
      "t": 162386.66666666657,
      "d": 160,
      "v": 127
    },
    {
      "midi": 61,
      "hit": false,
      "t": 162399.99999999985,
      "d": 133.33333333331393,
      "v": 56
    },
    {
      "midi": 64,
      "hit": false,
      "t": 162399.99999999985,
      "d": 153.33333333331393,
      "v": 52
    },
    {
      "midi": 73,
      "hit": false,
      "t": 162399.9999999999,
      "d": 126.66666666665697,
      "v": 127
    },
    {
      "midi": 68,
      "hit": false,
      "t": 162406.6666666665,
      "d": 126.66666666665697,
      "v": 54
    },
    {
      "midi": 69,
      "hit": false,
      "t": 162420.00000000003,
      "d": 373.33333333334303,
      "v": 62
    },
    {
      "midi": 61,
      "hit": false,
      "t": 162666.6666666665,
      "d": 119.9999999999709,
      "v": 50
    },
    {
      "midi": 64,
      "hit": false,
      "t": 162673.33333333317,
      "d": 126.66666666665697,
      "v": 50
    },
    {
      "midi": 68,
      "hit": false,
      "t": 162679.99999999983,
      "d": 86.66666666665697,
      "v": 50
    },
    {
      "midi": 68,
      "hit": false,
      "t": 162900.00000000003,
      "d": 2473.333333333343,
      "v": 62
    },
    {
      "midi": 61,
      "hit": false,
      "t": 162913.33333333314,
      "d": 120,
      "v": 56
    },
    {
      "midi": 68,
      "hit": false,
      "t": 162913.33333333323,
      "d": 93.33333333334303,
      "v": 127
    },
    {
      "midi": 64,
      "hit": false,
      "t": 162919.9999999998,
      "d": 126.66666666668607,
      "v": 54
    },
    {
      "midi": 68,
      "hit": false,
      "t": 162933.33333333314,
      "d": 120,
      "v": 58
    },
    {
      "midi": 44,
      "hit": false,
      "t": 162933.33333333314,
      "d": 266.66666666665697,
      "v": 62
    },
    {
      "midi": 63,
      "hit": false,
      "t": 163199.9999999998,
      "d": 133.33333333334303,
      "v": 62
    },
    {
      "midi": 68,
      "hit": false,
      "t": 163199.9999999998,
      "d": 140,
      "v": 62
    },
    {
      "midi": 68,
      "hit": false,
      "t": 163199.9999999999,
      "d": 886.666666666657,
      "v": 127
    },
    {
      "midi": 60,
      "hit": false,
      "t": 163213.33333333314,
      "d": 193.33333333331393,
      "v": 52
    },
    {
      "midi": 32,
      "hit": false,
      "t": 163213.33333333314,
      "d": 1193.3333333332848,
      "v": 62
    },
    {
      "midi": 63,
      "hit": false,
      "t": 163466.66666666645,
      "d": 126.66666666665697,
      "v": 62
    },
    {
      "midi": 60,
      "hit": false,
      "t": 163466.66666666645,
      "d": 133.33333333331393,
      "v": 40
    },
    {
      "midi": 68,
      "hit": false,
      "t": 163473.3333333331,
      "d": 126.66666666665697,
      "v": 62
    },
    {
      "midi": 60,
      "hit": false,
      "t": 163706.66666666642,
      "d": 160,
      "v": 56
    },
    {
      "midi": 68,
      "hit": false,
      "t": 163713.33333333308,
      "d": 160,
      "v": 62
    },
    {
      "midi": 63,
      "hit": false,
      "t": 163719.99999999974,
      "d": 133.33333333334303,
      "v": 62
    },
    {
      "midi": 44,
      "hit": false,
      "t": 163973.33333333308,
      "d": 160,
      "v": 62
    },
    {
      "midi": 63,
      "hit": false,
      "t": 163986.66666666642,
      "d": 140,
      "v": 62
    },
    {
      "midi": 60,
      "hit": false,
      "t": 163999.99999999977,
      "d": 133.33333333331393,
      "v": 54
    },
    {
      "midi": 68,
      "hit": false,
      "t": 163999.99999999977,
      "d": 133.33333333331393,
      "v": 62
    },
    {
      "midi": 80,
      "hit": false,
      "t": 164013.33333333326,
      "d": 86.66666666665697,
      "v": 127
    },
    {
      "midi": 72,
      "hit": false,
      "t": 164013.33333333326,
      "d": 106.66666666665697,
      "v": 127
    },
    {
      "midi": 75,
      "hit": false,
      "t": 164039.9999999999,
      "d": 86.66666666665697,
      "v": 127
    },
    {
      "midi": 63,
      "hit": false,
      "t": 164266.66666666642,
      "d": 120,
      "v": 60
    },
    {
      "midi": 68,
      "hit": false,
      "t": 164266.66666666642,
      "d": 126.66666666665697,
      "v": 62
    },
    {
      "midi": 60,
      "hit": false,
      "t": 164273.33333333308,
      "d": 93.33333333334303,
      "v": 46
    },
    {
      "midi": 68,
      "hit": false,
      "t": 164339.99999999994,
      "d": 406.66666666665697,
      "v": 121
    },
    {
      "midi": 63,
      "hit": false,
      "t": 164506.66666666642,
      "d": 153.33333333331393,
      "v": 62
    },
    {
      "midi": 36,
      "hit": false,
      "t": 164506.66666666642,
      "d": 193.33333333331393,
      "v": 62
    },
    {
      "midi": 60,
      "hit": false,
      "t": 164519.99999999977,
      "d": 126.66666666665697,
      "v": 52
    },
    {
      "midi": 68,
      "hit": false,
      "t": 164519.99999999977,
      "d": 133.33333333331393,
      "v": 62
    },
    {
      "midi": 68,
      "hit": false,
      "t": 164533.33333333323,
      "d": 926.666666666657,
      "v": 127
    },
    {
      "midi": 60,
      "hit": false,
      "t": 164779.99999999974,
      "d": 140,
      "v": 54
    },
    {
      "midi": 63,
      "hit": false,
      "t": 164779.99999999974,
      "d": 140,
      "v": 62
    },
    {
      "midi": 68,
      "hit": false,
      "t": 164779.99999999974,
      "d": 153.33333333334303,
      "v": 62
    },
    {
      "midi": 39,
      "hit": false,
      "t": 164799.99999999974,
      "d": 700.0000000000291,
      "v": 62
    },
    {
      "midi": 63,
      "hit": false,
      "t": 164813.33333333326,
      "d": 426.66666666665697,
      "v": 121
    },
    {
      "midi": 72,
      "hit": false,
      "t": 164819.99999999988,
      "d": 633.333333333343,
      "v": 127
    },
    {
      "midi": 75,
      "hit": false,
      "t": 164833.33333333323,
      "d": 660,
      "v": 127
    },
    {
      "midi": 60,
      "hit": false,
      "t": 165046.66666666642,
      "d": 120,
      "v": 54
    },
    {
      "midi": 63,
      "hit": false,
      "t": 165046.66666666642,
      "d": 120,
      "v": 60
    },
    {
      "midi": 68,
      "hit": false,
      "t": 165053.33333333308,
      "d": 126.66666666668607,
      "v": 62
    },
    {
      "midi": 60,
      "hit": false,
      "t": 165306.66666666642,
      "d": 126.66666666665697,
      "v": 54
    },
    {
      "midi": 63,
      "hit": false,
      "t": 165313.33333333308,
      "d": 120,
      "v": 62
    },
    {
      "midi": 68,
      "hit": false,
      "t": 165319.99999999974,
      "d": 126.66666666668607,
      "v": 62
    },
    {
      "midi": 64,
      "hit": false,
      "t": 165373.33333333326,
      "d": 393.33333333334303,
      "v": 121
    },
    {
      "midi": 36,
      "hit": false,
      "t": 165539.99999999977,
      "d": 533.3333333333139,
      "v": 62
    },
    {
      "midi": 60,
      "hit": false,
      "t": 165573.3333333331,
      "d": 133.33333333334303,
      "v": 54
    },
    {
      "midi": 63,
      "hit": false,
      "t": 165573.3333333331,
      "d": 133.33333333334303,
      "v": 62
    },
    {
      "midi": 68,
      "hit": false,
      "t": 165573.3333333331,
      "d": 140,
      "v": 62
    },
    {
      "midi": 68,
      "hit": false,
      "t": 165599.99999999988,
      "d": 93.33333333334303,
      "v": 127
    },
    {
      "midi": 75,
      "hit": false,
      "t": 165599.99999999988,
      "d": 106.66666666668607,
      "v": 127
    },
    {
      "midi": 72,
      "hit": false,
      "t": 165613.33333333323,
      "d": 73.33333333334303,
      "v": 127
    },
    {
      "midi": 60,
      "hit": false,
      "t": 165839.99999999977,
      "d": 126.66666666665697,
      "v": 52
    },
    {
      "midi": 63,
      "hit": false,
      "t": 165839.99999999977,
      "d": 126.66666666665697,
      "v": 60
    },
    {
      "midi": 68,
      "hit": false,
      "t": 165839.99999999977,
      "d": 126.66666666665697,
      "v": 62
    },
    {
      "midi": 66,
      "hit": false,
      "t": 165866.6666666666,
      "d": 360,
      "v": 121
    },
    {
      "midi": 63,
      "hit": false,
      "t": 166099.99999999974,
      "d": 133.33333333334303,
      "v": 62
    },
    {
      "midi": 68,
      "hit": false,
      "t": 166099.99999999974,
      "d": 153.33333333334303,
      "v": 62
    },
    {
      "midi": 60,
      "hit": false,
      "t": 166099.99999999974,
      "d": 160,
      "v": 54
    },
    {
      "midi": 39,
      "hit": false,
      "t": 166113.33333333308,
      "d": 153.33333333331393,
      "v": 62
    },
    {
      "midi": 64,
      "hit": false,
      "t": 166146.66666666657,
      "d": 840,
      "v": 90
    },
    {
      "midi": 68,
      "hit": false,
      "t": 166353.33333333326,
      "d": 3133.333333333343,
      "v": 121
    },
    {
      "midi": 61,
      "hit": false,
      "t": 166399.99999999974,
      "d": 133.33333333331393,
      "v": 58
    },
    {
      "midi": 68,
      "hit": false,
      "t": 166399.99999999974,
      "d": 153.33333333331393,
      "v": 56
    },
    {
      "midi": 64,
      "hit": false,
      "t": 166406.6666666664,
      "d": 153.33333333331393,
      "v": 56
    },
    {
      "midi": 37,
      "hit": false,
      "t": 166433.33333333305,
      "d": 1233.3333333332557,
      "v": 62
    },
    {
      "midi": 76,
      "hit": false,
      "t": 166446.66666666657,
      "d": 460,
      "v": 127
    },
    {
      "midi": 61,
      "hit": false,
      "t": 166666.66666666637,
      "d": 106.66666666665697,
      "v": 56
    },
    {
      "midi": 64,
      "hit": false,
      "t": 166666.66666666637,
      "d": 133.33333333331393,
      "v": 48
    },
    {
      "midi": 68,
      "hit": false,
      "t": 166666.66666666637,
      "d": 133.33333333331393,
      "v": 52
    },
    {
      "midi": 68,
      "hit": false,
      "t": 166886.66666666672,
      "d": 273.33333333334303,
      "v": 62
    },
    {
      "midi": 64,
      "hit": false,
      "t": 166913.33333333302,
      "d": 159.9999999999709,
      "v": 50
    },
    {
      "midi": 68,
      "hit": false,
      "t": 166913.33333333302,
      "d": 159.9999999999709,
      "v": 54
    },
    {
      "midi": 61,
      "hit": false,
      "t": 166919.99999999968,
      "d": 126.66666666665697,
      "v": 56
    },
    {
      "midi": 49,
      "hit": false,
      "t": 167179.99999999965,
      "d": 166.66666666668607,
      "v": 62
    },
    {
      "midi": 73,
      "hit": false,
      "t": 167179.9999999999,
      "d": 93.33333333334303,
      "v": 127
    },
    {
      "midi": 68,
      "hit": false,
      "t": 167179.9999999999,
      "d": 100,
      "v": 127
    },
    {
      "midi": 76,
      "hit": false,
      "t": 167186.66666666657,
      "d": 73.33333333334303,
      "v": 127
    },
    {
      "midi": 61,
      "hit": false,
      "t": 167199.99999999965,
      "d": 133.33333333334303,
      "v": 58
    },
    {
      "midi": 68,
      "hit": false,
      "t": 167199.99999999965,
      "d": 153.33333333334303,
      "v": 58
    },
    {
      "midi": 64,
      "hit": false,
      "t": 167199.99999999965,
      "d": 160,
      "v": 52
    },
    {
      "midi": 64,
      "hit": false,
      "t": 167200.00000000006,
      "d": 460,
      "v": 62
    },
    {
      "midi": 61,
      "hit": false,
      "t": 167466.6666666663,
      "d": 120,
      "v": 56
    },
    {
      "midi": 68,
      "hit": false,
      "t": 167466.6666666663,
      "d": 133.33333333334303,
      "v": 58
    },
    {
      "midi": 64,
      "hit": false,
      "t": 167466.6666666663,
      "d": 140,
      "v": 52
    },
    {
      "midi": 64,
      "hit": false,
      "t": 167713.33333333326,
      "d": 1020.0000000000291,
      "v": 127
    },
    {
      "midi": 66,
      "hit": false,
      "t": 167713.3333333334,
      "d": 293.33333333334303,
      "v": 62
    },
    {
      "midi": 61,
      "hit": false,
      "t": 167719.99999999965,
      "d": 140,
      "v": 58
    },
    {
      "midi": 68,
      "hit": false,
      "t": 167719.99999999965,
      "d": 140,
      "v": 58
    },
    {
      "midi": 64,
      "hit": false,
      "t": 167719.99999999965,
      "d": 166.66666666665697,
      "v": 56
    },
    {
      "midi": 40,
      "hit": false,
      "t": 167719.99999999965,
      "d": 233.33333333331393,
      "v": 62
    },
    {
      "midi": 68,
      "hit": false,
      "t": 167986.6666666666,
      "d": 773.333333333343,
      "v": 127
    },
    {
      "midi": 61,
      "hit": false,
      "t": 167999.99999999962,
      "d": 133.33333333334303,
      "v": 56
    },
    {
      "midi": 76,
      "hit": false,
      "t": 167999.99999999994,
      "d": 693.333333333343,
      "v": 127
    },
    {
      "midi": 73,
      "hit": false,
      "t": 167999.99999999994,
      "d": 733.333333333343,
      "v": 127
    },
    {
      "midi": 64,
      "hit": false,
      "t": 168006.66666666628,
      "d": 140.0000000000291,
      "v": 52
    },
    {
      "midi": 68,
      "hit": false,
      "t": 168006.66666666628,
      "d": 140.0000000000291,
      "v": 54
    },
    {
      "midi": 44,
      "hit": false,
      "t": 168019.99999999962,
      "d": 733.333333333343,
      "v": 62
    },
    {
      "midi": 68,
      "hit": false,
      "t": 168033.3333333334,
      "d": 773.333333333343,
      "v": 62
    },
    {
      "midi": 61,
      "hit": false,
      "t": 168266.6666666663,
      "d": 126.66666666665697,
      "v": 56
    },
    {
      "midi": 68,
      "hit": false,
      "t": 168266.6666666663,
      "d": 133.33333333331393,
      "v": 58
    },
    {
      "midi": 64,
      "hit": false,
      "t": 168266.6666666663,
      "d": 139.9999999999709,
      "v": 54
    },
    {
      "midi": 61,
      "hit": false,
      "t": 168519.99999999962,
      "d": 126.66666666665697,
      "v": 56
    },
    {
      "midi": 64,
      "hit": false,
      "t": 168519.99999999962,
      "d": 140,
      "v": 56
    },
    {
      "midi": 68,
      "hit": false,
      "t": 168519.99999999962,
      "d": 140,
      "v": 56
    },
    {
      "midi": 68,
      "hit": false,
      "t": 168779.99999999962,
      "d": 153.33333333331393,
      "v": 62
    },
    {
      "midi": 64,
      "hit": false,
      "t": 168779.99999999962,
      "d": 159.9999999999709,
      "v": 58
    },
    {
      "midi": 61,
      "hit": false,
      "t": 168786.66666666628,
      "d": 140,
      "v": 60
    },
    {
      "midi": 37,
      "hit": false,
      "t": 168806.66666666628,
      "d": 526.6666666666861,
      "v": 62
    },
    {
      "midi": 76,
      "hit": false,
      "t": 168839.99999999994,
      "d": 126.66666666665697,
      "v": 127
    },
    {
      "midi": 68,
      "hit": false,
      "t": 168839.99999999994,
      "d": 159.9999999999709,
      "v": 127
    },
    {
      "midi": 73,
      "hit": false,
      "t": 168866.6666666666,
      "d": 106.66666666665697,
      "v": 127
    },
    {
      "midi": 64,
      "hit": false,
      "t": 168866.66666666674,
      "d": 433.33333333334303,
      "v": 62
    },
    {
      "midi": 61,
      "hit": false,
      "t": 169053.33333333294,
      "d": 133.33333333334303,
      "v": 60
    },
    {
      "midi": 68,
      "hit": false,
      "t": 169053.33333333294,
      "d": 133.33333333334303,
      "v": 60
    },
    {
      "midi": 64,
      "hit": false,
      "t": 169053.33333333294,
      "d": 153.33333333334303,
      "v": 56
    },
    {
      "midi": 44,
      "hit": false,
      "t": 169306.66666666628,
      "d": 160,
      "v": 62
    },
    {
      "midi": 68,
      "hit": false,
      "t": 169319.99999999962,
      "d": 140,
      "v": 62
    },
    {
      "midi": 61,
      "hit": false,
      "t": 169319.99999999962,
      "d": 160,
      "v": 62
    },
    {
      "midi": 64,
      "hit": false,
      "t": 169319.99999999962,
      "d": 160,
      "v": 60
    },
    {
      "midi": 64,
      "hit": false,
      "t": 169353.33333333326,
      "d": 106.66666666665697,
      "v": 127
    },
    {
      "midi": 62,
      "hit": false,
      "t": 169366.66666666674,
      "d": 953.333333333343,
      "v": 62
    },
    {
      "midi": 45,
      "hit": false,
      "t": 169606.66666666628,
      "d": 733.3333333333139,
      "v": 62
    },
    {
      "midi": 76,
      "hit": false,
      "t": 169619.9999999999,
      "d": 593.333333333343,
      "v": 127
    },
    {
      "midi": 69,
      "hit": false,
      "t": 169619.9999999999,
      "d": 633.333333333343,
      "v": 127
    },
    {
      "midi": 73,
      "hit": false,
      "t": 169639.9999999999,
      "d": 620,
      "v": 127
    },
    {
      "midi": 57,
      "hit": false,
      "t": 169653.33333333326,
      "d": 140,
      "v": 121
    },
    {
      "midi": 69,
      "hit": false,
      "t": 169833.33333333294,
      "d": 133.33333333334303,
      "v": 46
    },
    {
      "midi": 61,
      "hit": false,
      "t": 169833.33333333294,
      "d": 140,
      "v": 62
    },
    {
      "midi": 64,
      "hit": false,
      "t": 169833.33333333294,
      "d": 140,
      "v": 54
    },
    {
      "midi": 57,
      "hit": false,
      "t": 169899.9999999999,
      "d": 100,
      "v": 118
    },
    {
      "midi": 69,
      "hit": false,
      "t": 170099.9999999996,
      "d": 120,
      "v": 50
    },
    {
      "midi": 61,
      "hit": false,
      "t": 170099.9999999996,
      "d": 133.33333333334303,
      "v": 62
    },
    {
      "midi": 64,
      "hit": false,
      "t": 170099.9999999996,
      "d": 133.33333333334303,
      "v": 58
    },
    {
      "midi": 57,
      "hit": false,
      "t": 170139.9999999999,
      "d": 133.33333333334303,
      "v": 121
    },
    {
      "midi": 69,
      "hit": false,
      "t": 170353.33333333326,
      "d": 120,
      "v": 127
    },
    {
      "midi": 76,
      "hit": false,
      "t": 170353.33333333326,
      "d": 126.66666666665697,
      "v": 127
    },
    {
      "midi": 33,
      "hit": false,
      "t": 170366.66666666625,
      "d": 333.33333333334303,
      "v": 62
    },
    {
      "midi": 73,
      "hit": false,
      "t": 170366.6666666666,
      "d": 106.66666666665697,
      "v": 127
    },
    {
      "midi": 61,
      "hit": false,
      "t": 170373.3333333329,
      "d": 133.33333333331393,
      "v": 62
    },
    {
      "midi": 64,
      "hit": false,
      "t": 170373.3333333329,
      "d": 160,
      "v": 62
    },
    {
      "midi": 69,
      "hit": false,
      "t": 170379.99999999956,
      "d": 140,
      "v": 60
    },
    {
      "midi": 57,
      "hit": false,
      "t": 170399.9999999999,
      "d": 133.33333333331393,
      "v": 121
    },
    {
      "midi": 61,
      "hit": false,
      "t": 170406.66666666657,
      "d": 133.33333333331393,
      "v": 121
    },
    {
      "midi": 61,
      "hit": false,
      "t": 170619.99999999956,
      "d": 140.0000000000291,
      "v": 62
    },
    {
      "midi": 69,
      "hit": false,
      "t": 170633.3333333329,
      "d": 120.0000000000291,
      "v": 50
    },
    {
      "midi": 64,
      "hit": false,
      "t": 170633.3333333329,
      "d": 133.33333333334303,
      "v": 60
    },
    {
      "midi": 57,
      "hit": false,
      "t": 170653.33333333323,
      "d": 93.33333333334303,
      "v": 113
    },
    {
      "midi": 61,
      "hit": false,
      "t": 170653.33333333323,
      "d": 106.66666666668607,
      "v": 121
    },
    {
      "midi": 45,
      "hit": false,
      "t": 170686.66666666625,
      "d": 206.66666666665697,
      "v": 62
    },
    {
      "midi": 57,
      "hit": false,
      "t": 170873.33333333326,
      "d": 126.66666666668607,
      "v": 115
    },
    {
      "midi": 64,
      "hit": false,
      "t": 170879.9999999999,
      "d": 100,
      "v": 127
    },
    {
      "midi": 69,
      "hit": false,
      "t": 170886.66666666625,
      "d": 139.9999999999709,
      "v": 56
    },
    {
      "midi": 64,
      "hit": false,
      "t": 170886.66666666625,
      "d": 159.9999999999709,
      "v": 62
    },
    {
      "midi": 61,
      "hit": false,
      "t": 170886.6666666666,
      "d": 120,
      "v": 121
    },
    {
      "midi": 33,
      "hit": false,
      "t": 170899.99999999956,
      "d": 126.66666666665697,
      "v": 62
    },
    {
      "midi": 61,
      "hit": false,
      "t": 170899.99999999956,
      "d": 140,
      "v": 62
    },
    {
      "midi": 64,
      "hit": false,
      "t": 171153.33333333326,
      "d": 140,
      "v": 121
    },
    {
      "midi": 76,
      "hit": false,
      "t": 171153.33333333326,
      "d": 673.333333333343,
      "v": 127
    },
    {
      "midi": 67,
      "hit": false,
      "t": 171153.33333333326,
      "d": 700,
      "v": 127
    },
    {
      "midi": 73,
      "hit": false,
      "t": 171153.33333333326,
      "d": 700,
      "v": 127
    },
    {
      "midi": 61,
      "hit": false,
      "t": 171166.66666666622,
      "d": 160,
      "v": 62
    },
    {
      "midi": 64,
      "hit": false,
      "t": 171166.66666666622,
      "d": 166.66666666665697,
      "v": 62
    },
    {
      "midi": 69,
      "hit": false,
      "t": 171166.66666666622,
      "d": 166.66666666665697,
      "v": 56
    },
    {
      "midi": 61,
      "hit": false,
      "t": 171166.6666666666,
      "d": 106.66666666665697,
      "v": 121
    },
    {
      "midi": 35,
      "hit": false,
      "t": 171173.33333333288,
      "d": 260,
      "v": 62
    },
    {
      "midi": 64,
      "hit": false,
      "t": 171406.6666666666,
      "d": 126.66666666665697,
      "v": 109
    },
    {
      "midi": 61,
      "hit": false,
      "t": 171413.33333333326,
      "d": 86.66666666665697,
      "v": 110
    },
    {
      "midi": 61,
      "hit": false,
      "t": 171433.33333333288,
      "d": 133.33333333334303,
      "v": 62
    },
    {
      "midi": 64,
      "hit": false,
      "t": 171433.33333333288,
      "d": 133.33333333334303,
      "v": 60
    },
    {
      "midi": 69,
      "hit": false,
      "t": 171446.66666666622,
      "d": 100,
      "v": 52
    },
    {
      "midi": 47,
      "hit": false,
      "t": 171466.66666666622,
      "d": 160,
      "v": 62
    },
    {
      "midi": 64,
      "hit": false,
      "t": 171666.6666666666,
      "d": 133.33333333331393,
      "v": 110
    },
    {
      "midi": 69,
      "hit": false,
      "t": 171686.66666666622,
      "d": 133.33333333334303,
      "v": 54
    },
    {
      "midi": 35,
      "hit": false,
      "t": 171686.66666666622,
      "d": 140,
      "v": 62
    },
    {
      "midi": 61,
      "hit": false,
      "t": 171686.66666666622,
      "d": 140,
      "v": 62
    },
    {
      "midi": 64,
      "hit": false,
      "t": 171686.66666666622,
      "d": 153.33333333334303,
      "v": 62
    },
    {
      "midi": 61,
      "hit": false,
      "t": 171686.6666666666,
      "d": 86.66666666665697,
      "v": 112
    },
    {
      "midi": 37,
      "hit": false,
      "t": 171719.99999999956,
      "d": 20,
      "v": 58
    },
    {
      "midi": 61,
      "hit": false,
      "t": 171946.66666666622,
      "d": 160,
      "v": 62
    },
    {
      "midi": 64,
      "hit": false,
      "t": 171946.66666666622,
      "d": 173.33333333334303,
      "v": 62
    },
    {
      "midi": 69,
      "hit": false,
      "t": 171946.66666666657,
      "d": 153.33333333334303,
      "v": 121
    },
    {
      "midi": 69,
      "hit": false,
      "t": 171953.33333333288,
      "d": 140,
      "v": 52
    },
    {
      "midi": 37,
      "hit": false,
      "t": 171966.66666666622,
      "d": 233.33333333334303,
      "v": 62
    },
    {
      "midi": 61,
      "hit": false,
      "t": 171966.66666666657,
      "d": 120,
      "v": 121
    },
    {
      "midi": 67,
      "hit": false,
      "t": 171966.6666666666,
      "d": 100,
      "v": 127
    },
    {
      "midi": 73,
      "hit": false,
      "t": 171966.6666666666,
      "d": 100,
      "v": 127
    },
    {
      "midi": 76,
      "hit": false,
      "t": 171966.6666666666,
      "d": 100,
      "v": 127
    },
    {
      "midi": 49,
      "hit": false,
      "t": 172206.66666666622,
      "d": 260,
      "v": 62
    },
    {
      "midi": 61,
      "hit": false,
      "t": 172206.66666666657,
      "d": 100,
      "v": 121
    },
    {
      "midi": 69,
      "hit": false,
      "t": 172206.66666666657,
      "d": 120,
      "v": 115
    },
    {
      "midi": 61,
      "hit": false,
      "t": 172233.33333333288,
      "d": 120,
      "v": 62
    },
    {
      "midi": 69,
      "hit": false,
      "t": 172233.33333333288,
      "d": 120,
      "v": 50
    },
    {
      "midi": 64,
      "hit": false,
      "t": 172233.33333333288,
      "d": 133.33333333334303,
      "v": 60
    },
    {
      "midi": 69,
      "hit": false,
      "t": 172439.9999999999,
      "d": 126.66666666665697,
      "v": 115
    },
    {
      "midi": 61,
      "hit": false,
      "t": 172439.9999999999,
      "d": 133.33333333331393,
      "v": 121
    },
    {
      "midi": 69,
      "hit": false,
      "t": 172473.33333333288,
      "d": 133.33333333334303,
      "v": 54
    },
    {
      "midi": 37,
      "hit": false,
      "t": 172473.33333333288,
      "d": 140,
      "v": 62
    },
    {
      "midi": 64,
      "hit": false,
      "t": 172473.33333333288,
      "d": 153.33333333331393,
      "v": 62
    },
    {
      "midi": 61,
      "hit": false,
      "t": 172486.66666666622,
      "d": 133.33333333331393,
      "v": 62
    },
    {
      "midi": 64,
      "hit": false,
      "t": 172499.99999999994,
      "d": 86.66666666665697,
      "v": 127
    },
    {
      "midi": 69,
      "hit": false,
      "t": 172699.99999999988,
      "d": 473.33333333334303,
      "v": 121
    },
    {
      "midi": 62,
      "hit": false,
      "t": 172713.33333333323,
      "d": 453.33333333334303,
      "v": 121
    },
    {
      "midi": 38,
      "hit": false,
      "t": 172739.99999999953,
      "d": 1126.666666666657,
      "v": 62
    },
    {
      "midi": 66,
      "hit": false,
      "t": 172753.33333333326,
      "d": 693.333333333343,
      "v": 127
    },
    {
      "midi": 69,
      "hit": false,
      "t": 172753.33333333326,
      "d": 706.6666666666861,
      "v": 127
    },
    {
      "midi": 69,
      "hit": false,
      "t": 172766.6666666662,
      "d": 133.33333333334303,
      "v": 60
    },
    {
      "midi": 62,
      "hit": false,
      "t": 172766.6666666662,
      "d": 140,
      "v": 62
    },
    {
      "midi": 66,
      "hit": false,
      "t": 172766.6666666662,
      "d": 153.33333333334303,
      "v": 62
    },
    {
      "midi": 74,
      "hit": false,
      "t": 172766.6666666666,
      "d": 633.333333333343,
      "v": 127
    },
    {
      "midi": 66,
      "hit": false,
      "t": 173006.6666666662,
      "d": 153.33333333334303,
      "v": 62
    },
    {
      "midi": 62,
      "hit": false,
      "t": 173019.99999999953,
      "d": 120,
      "v": 58
    },
    {
      "midi": 69,
      "hit": false,
      "t": 173033.33333333288,
      "d": 100,
      "v": 46
    },
    {
      "midi": 62,
      "hit": false,
      "t": 173213.33333333323,
      "d": 2733.333333333314,
      "v": 89
    },
    {
      "midi": 57,
      "hit": false,
      "t": 173213.33333333323,
      "d": 2753.333333333314,
      "v": 118
    },
    {
      "midi": 66,
      "hit": false,
      "t": 173213.33333333323,
      "d": 2753.333333333314,
      "v": 121
    },
    {
      "midi": 62,
      "hit": false,
      "t": 173273.33333333288,
      "d": 160,
      "v": 58
    },
    {
      "midi": 66,
      "hit": false,
      "t": 173273.33333333288,
      "d": 160,
      "v": 60
    },
    {
      "midi": 69,
      "hit": false,
      "t": 173286.66666666622,
      "d": 140,
      "v": 52
    },
    {
      "midi": 74,
      "hit": false,
      "t": 173519.99999999994,
      "d": 120,
      "v": 127
    },
    {
      "midi": 69,
      "hit": false,
      "t": 173519.99999999994,
      "d": 140,
      "v": 127
    },
    {
      "midi": 66,
      "hit": false,
      "t": 173533.33333333328,
      "d": 106.66666666665697,
      "v": 127
    },
    {
      "midi": 50,
      "hit": false,
      "t": 173553.33333333288,
      "d": 86.66666666668607,
      "v": 62
    },
    {
      "midi": 62,
      "hit": false,
      "t": 173566.66666666622,
      "d": 133.33333333334303,
      "v": 62
    },
    {
      "midi": 66,
      "hit": false,
      "t": 173566.66666666622,
      "d": 140,
      "v": 62
    },
    {
      "midi": 69,
      "hit": false,
      "t": 173579.99999999956,
      "d": 120,
      "v": 58
    },
    {
      "midi": 62,
      "hit": false,
      "t": 173833.33333333288,
      "d": 106.66666666662786,
      "v": 56
    },
    {
      "midi": 66,
      "hit": false,
      "t": 173833.33333333288,
      "d": 119.9999999999709,
      "v": 58
    },
    {
      "midi": 69,
      "hit": false,
      "t": 173839.99999999953,
      "d": 93.33333333331393,
      "v": 48
    },
    {
      "midi": 66,
      "hit": false,
      "t": 174079.9999999995,
      "d": 159.9999999999709,
      "v": 58
    },
    {
      "midi": 62,
      "hit": false,
      "t": 174079.99999999994,
      "d": 53.333333333343035,
      "v": 127
    },
    {
      "midi": 62,
      "hit": false,
      "t": 174086.66666666616,
      "d": 140,
      "v": 56
    },
    {
      "midi": 69,
      "hit": false,
      "t": 174099.9999999995,
      "d": 133.33333333331393,
      "v": 52
    },
    {
      "midi": 42,
      "hit": false,
      "t": 174099.9999999995,
      "d": 219.9999999999709,
      "v": 62
    },
    {
      "midi": 66,
      "hit": false,
      "t": 174346.66666666613,
      "d": 166.66666666665697,
      "v": 62
    },
    {
      "midi": 62,
      "hit": false,
      "t": 174353.3333333328,
      "d": 140,
      "v": 58
    },
    {
      "midi": 69,
      "hit": false,
      "t": 174366.66666666613,
      "d": 133.33333333331393,
      "v": 54
    },
    {
      "midi": 66,
      "hit": false,
      "t": 174366.66666666663,
      "d": 626.6666666666861,
      "v": 127
    },
    {
      "midi": 69,
      "hit": false,
      "t": 174373.33333333328,
      "d": 633.3333333333721,
      "v": 127
    },
    {
      "midi": 45,
      "hit": false,
      "t": 174386.66666666613,
      "d": 700,
      "v": 62
    },
    {
      "midi": 74,
      "hit": false,
      "t": 174386.66666666663,
      "d": 553.333333333343,
      "v": 127
    },
    {
      "midi": 62,
      "hit": false,
      "t": 174633.3333333328,
      "d": 133.33333333334303,
      "v": 58
    },
    {
      "midi": 66,
      "hit": false,
      "t": 174633.3333333328,
      "d": 140,
      "v": 62
    },
    {
      "midi": 69,
      "hit": false,
      "t": 174646.66666666613,
      "d": 93.33333333334303,
      "v": 52
    },
    {
      "midi": 62,
      "hit": false,
      "t": 174906.66666666613,
      "d": 140,
      "v": 56
    },
    {
      "midi": 66,
      "hit": false,
      "t": 174906.66666666613,
      "d": 160,
      "v": 60
    },
    {
      "midi": 69,
      "hit": false,
      "t": 174933.3333333328,
      "d": 133.33333333334303,
      "v": 50
    },
    {
      "midi": 74,
      "hit": false,
      "t": 175146.66666666666,
      "d": 133.33333333331393,
      "v": 127
    },
    {
      "midi": 66,
      "hit": false,
      "t": 175153.3333333333,
      "d": 126.66666666665697,
      "v": 127
    },
    {
      "midi": 69,
      "hit": false,
      "t": 175153.3333333333,
      "d": 126.66666666665697,
      "v": 127
    },
    {
      "midi": 69,
      "hit": false,
      "t": 175179.99999999948,
      "d": 133.33333333334303,
      "v": 60
    },
    {
      "midi": 62,
      "hit": false,
      "t": 175179.99999999948,
      "d": 140,
      "v": 62
    },
    {
      "midi": 66,
      "hit": false,
      "t": 175179.99999999948,
      "d": 153.33333333334303,
      "v": 62
    },
    {
      "midi": 42,
      "hit": false,
      "t": 175199.99999999948,
      "d": 260,
      "v": 62
    },
    {
      "midi": 62,
      "hit": false,
      "t": 175453.33333333282,
      "d": 106.66666666665697,
      "v": 56
    },
    {
      "midi": 66,
      "hit": false,
      "t": 175453.33333333282,
      "d": 120,
      "v": 60
    },
    {
      "midi": 69,
      "hit": false,
      "t": 175473.33333333282,
      "d": 60,
      "v": 46
    },
    {
      "midi": 62,
      "hit": false,
      "t": 175699.99999999997,
      "d": 333.33333333334303,
      "v": 127
    },
    {
      "midi": 62,
      "hit": false,
      "t": 175706.66666666616,
      "d": 126.66666666665697,
      "v": 58
    },
    {
      "midi": 66,
      "hit": false,
      "t": 175706.66666666616,
      "d": 133.33333333331393,
      "v": 58
    },
    {
      "midi": 45,
      "hit": false,
      "t": 175706.66666666616,
      "d": 159.9999999999709,
      "v": 62
    },
    {
      "midi": 69,
      "hit": false,
      "t": 175733.33333333282,
      "d": 60,
      "v": 50
    },
    {
      "midi": 66,
      "hit": false,
      "t": 175933.3333333333,
      "d": 700,
      "v": 127
    },
    {
      "midi": 74,
      "hit": false,
      "t": 175946.66666666666,
      "d": 493.33333333331393,
      "v": 127
    },
    {
      "midi": 69,
      "hit": false,
      "t": 175946.66666666666,
      "d": 733.3333333333139,
      "v": 127
    },
    {
      "midi": 62,
      "hit": false,
      "t": 175979.99999999948,
      "d": 140.0000000000291,
      "v": 60
    },
    {
      "midi": 66,
      "hit": false,
      "t": 175979.99999999948,
      "d": 153.33333333337214,
      "v": 62
    },
    {
      "midi": 69,
      "hit": false,
      "t": 175999.99999999948,
      "d": 106.66666666668607,
      "v": 54
    },
    {
      "midi": 38,
      "hit": false,
      "t": 176013.33333333282,
      "d": 1206.666666666657,
      "v": 62
    },
    {
      "midi": 62,
      "hit": false,
      "t": 176253.33333333285,
      "d": 126.66666666665697,
      "v": 56
    },
    {
      "midi": 66,
      "hit": false,
      "t": 176253.33333333285,
      "d": 133.33333333331393,
      "v": 58
    },
    {
      "midi": 69,
      "hit": false,
      "t": 176273.33333333285,
      "d": 86.66666666665697,
      "v": 48
    },
    {
      "midi": 66,
      "hit": false,
      "t": 176513.33333333282,
      "d": 153.33333333334303,
      "v": 62
    },
    {
      "midi": 62,
      "hit": false,
      "t": 176519.99999999948,
      "d": 126.66666666668607,
      "v": 56
    },
    {
      "midi": 69,
      "hit": false,
      "t": 176533.33333333282,
      "d": 100,
      "v": 50
    },
    {
      "midi": 62,
      "hit": false,
      "t": 176773.3333333332,
      "d": 306.66666666665697,
      "v": 121
    },
    {
      "midi": 66,
      "hit": false,
      "t": 176773.3333333332,
      "d": 359.9999999999709,
      "v": 121
    },
    {
      "midi": 57,
      "hit": false,
      "t": 176779.99999999985,
      "d": 326.66666666665697,
      "v": 120
    },
    {
      "midi": 62,
      "hit": false,
      "t": 176786.66666666616,
      "d": 140,
      "v": 62
    },
    {
      "midi": 66,
      "hit": false,
      "t": 176786.66666666616,
      "d": 140,
      "v": 62
    },
    {
      "midi": 69,
      "hit": false,
      "t": 176806.66666666616,
      "d": 100,
      "v": 56
    },
    {
      "midi": 74,
      "hit": false,
      "t": 176806.66666666663,
      "d": 106.66666666665697,
      "v": 127
    },
    {
      "midi": 66,
      "hit": false,
      "t": 176806.66666666663,
      "d": 126.66666666665697,
      "v": 127
    },
    {
      "midi": 69,
      "hit": false,
      "t": 176806.66666666663,
      "d": 126.66666666665697,
      "v": 127
    },
    {
      "midi": 50,
      "hit": false,
      "t": 176813.33333333282,
      "d": 53.333333333343035,
      "v": 62
    },
    {
      "midi": 66,
      "hit": false,
      "t": 177053.33333333282,
      "d": 126.66666666665697,
      "v": 58
    },
    {
      "midi": 69,
      "hit": false,
      "t": 177066.66666666616,
      "d": 86.66666666665697,
      "v": 44
    },
    {
      "midi": 62,
      "hit": false,
      "t": 177066.66666666616,
      "d": 106.66666666665697,
      "v": 54
    },
    {
      "midi": 62,
      "hit": false,
      "t": 177313.33333333328,
      "d": 60,
      "v": 127
    },
    {
      "midi": 62,
      "hit": false,
      "t": 177333.33333333282,
      "d": 126.66666666665697,
      "v": 56
    },
    {
      "midi": 66,
      "hit": false,
      "t": 177333.33333333282,
      "d": 133.33333333331393,
      "v": 58
    },
    {
      "midi": 42,
      "hit": false,
      "t": 177333.33333333282,
      "d": 199.9999999999709,
      "v": 62
    },
    {
      "midi": 69,
      "hit": false,
      "t": 177346.66666666616,
      "d": 86.66666666665697,
      "v": 50
    },
    {
      "midi": 62,
      "hit": false,
      "t": 177599.99999999983,
      "d": 440,
      "v": 121
    },
    {
      "midi": 62,
      "hit": false,
      "t": 177619.99999999945,
      "d": 120,
      "v": 58
    },
    {
      "midi": 66,
      "hit": false,
      "t": 177619.99999999945,
      "d": 140,
      "v": 60
    },
    {
      "midi": 69,
      "hit": false,
      "t": 177633.3333333328,
      "d": 106.66666666665697,
      "v": 54
    },
    {
      "midi": 74,
      "hit": false,
      "t": 177633.33333333328,
      "d": 660,
      "v": 127
    },
    {
      "midi": 66,
      "hit": false,
      "t": 177633.33333333328,
      "d": 673.333333333343,
      "v": 127
    },
    {
      "midi": 69,
      "hit": false,
      "t": 177633.33333333328,
      "d": 693.333333333343,
      "v": 127
    },
    {
      "midi": 45,
      "hit": false,
      "t": 177639.99999999945,
      "d": 733.333333333343,
      "v": 62
    },
    {
      "midi": 62,
      "hit": false,
      "t": 177886.6666666661,
      "d": 106.66666666668607,
      "v": 56
    },
    {
      "midi": 66,
      "hit": false,
      "t": 177886.6666666661,
      "d": 106.66666666668607,
      "v": 58
    },
    {
      "midi": 69,
      "hit": false,
      "t": 177899.99999999945,
      "d": 73.33333333334303,
      "v": 44
    },
    {
      "midi": 62,
      "hit": false,
      "t": 178146.66666666613,
      "d": 126.66666666665697,
      "v": 58
    },
    {
      "midi": 66,
      "hit": false,
      "t": 178146.66666666613,
      "d": 133.33333333331393,
      "v": 60
    },
    {
      "midi": 69,
      "hit": false,
      "t": 178166.66666666613,
      "d": 100,
      "v": 52
    },
    {
      "midi": 57,
      "hit": false,
      "t": 178166.66666666648,
      "d": 340,
      "v": 121
    },
    {
      "midi": 62,
      "hit": false,
      "t": 178413.3333333328,
      "d": 133.33333333334303,
      "v": 60
    },
    {
      "midi": 66,
      "hit": false,
      "t": 178413.3333333328,
      "d": 140,
      "v": 62
    },
    {
      "midi": 74,
      "hit": false,
      "t": 178419.99999999997,
      "d": 126.66666666668607,
      "v": 127
    },
    {
      "midi": 69,
      "hit": false,
      "t": 178433.3333333328,
      "d": 100,
      "v": 54
    },
    {
      "midi": 42,
      "hit": false,
      "t": 178433.3333333328,
      "d": 440,
      "v": 62
    },
    {
      "midi": 69,
      "hit": false,
      "t": 178433.3333333333,
      "d": 133.33333333334303,
      "v": 127
    },
    {
      "midi": 66,
      "hit": false,
      "t": 178433.3333333333,
      "d": 140,
      "v": 127
    },
    {
      "midi": 62,
      "hit": false,
      "t": 178679.99999999945,
      "d": 120,
      "v": 58
    },
    {
      "midi": 66,
      "hit": false,
      "t": 178679.99999999945,
      "d": 120,
      "v": 60
    },
    {
      "midi": 66,
      "hit": false,
      "t": 178686.66666666648,
      "d": 460.0000000000291,
      "v": 121
    },
    {
      "midi": 69,
      "hit": false,
      "t": 178699.99999999945,
      "d": 73.33333333334303,
      "v": 50
    },
    {
      "midi": 60,
      "hit": false,
      "t": 178699.99999999983,
      "d": 393.33333333334303,
      "v": 121
    },
    {
      "midi": 66,
      "hit": false,
      "t": 178939.99999999945,
      "d": 153.33333333331393,
      "v": 60
    },
    {
      "midi": 62,
      "hit": false,
      "t": 178946.6666666661,
      "d": 120,
      "v": 60
    },
    {
      "midi": 64,
      "hit": false,
      "t": 178946.66666666666,
      "d": 920.0000000000291,
      "v": 127
    },
    {
      "midi": 69,
      "hit": false,
      "t": 178966.6666666661,
      "d": 100,
      "v": 54
    },
    {
      "midi": 45,
      "hit": false,
      "t": 178966.6666666661,
      "d": 140,
      "v": 54
    },
    {
      "midi": 76,
      "hit": false,
      "t": 179220,
      "d": 573.333333333343,
      "v": 127
    },
    {
      "midi": 73,
      "hit": false,
      "t": 179220,
      "d": 720.0000000000291,
      "v": 127
    },
    {
      "midi": 69,
      "hit": false,
      "t": 179233.33333333276,
      "d": 133.33333333331393,
      "v": 54
    },
    {
      "midi": 61,
      "hit": false,
      "t": 179233.33333333276,
      "d": 139.9999999999709,
      "v": 62
    },
    {
      "midi": 64,
      "hit": false,
      "t": 179233.33333333276,
      "d": 153.33333333331393,
      "v": 60
    },
    {
      "midi": 33,
      "hit": false,
      "t": 179239.99999999942,
      "d": 1120,
      "v": 62
    },
    {
      "midi": 69,
      "hit": false,
      "t": 179253.33333333334,
      "d": 686.6666666666861,
      "v": 127
    },
    {
      "midi": 64,
      "hit": false,
      "t": 179266.6666666665,
      "d": 3486.666666666657,
      "v": 109
    },
    {
      "midi": 61,
      "hit": false,
      "t": 179273.33333333317,
      "d": 3473.333333333343,
      "v": 118
    },
    {
      "midi": 57,
      "hit": false,
      "t": 179286.6666666665,
      "d": 4800.000000000029,
      "v": 81
    },
    {
      "midi": 61,
      "hit": false,
      "t": 179499.99999999942,
      "d": 126.66666666668607,
      "v": 56
    },
    {
      "midi": 64,
      "hit": false,
      "t": 179499.99999999942,
      "d": 126.66666666668607,
      "v": 52
    },
    {
      "midi": 69,
      "hit": false,
      "t": 179513.33333333276,
      "d": 93.33333333334303,
      "v": 40
    },
    {
      "midi": 61,
      "hit": false,
      "t": 179766.6666666661,
      "d": 133.33333333334303,
      "v": 58
    },
    {
      "midi": 69,
      "hit": false,
      "t": 179766.6666666661,
      "d": 133.33333333334303,
      "v": 46
    },
    {
      "midi": 64,
      "hit": false,
      "t": 179766.6666666661,
      "d": 153.33333333334303,
      "v": 56
    },
    {
      "midi": 69,
      "hit": false,
      "t": 180033.33333333337,
      "d": 100,
      "v": 127
    },
    {
      "midi": 76,
      "hit": false,
      "t": 180033.33333333337,
      "d": 100,
      "v": 127
    },
    {
      "midi": 61,
      "hit": false,
      "t": 180039.99999999945,
      "d": 133.33333333331393,
      "v": 62
    },
    {
      "midi": 64,
      "hit": false,
      "t": 180039.99999999945,
      "d": 133.33333333331393,
      "v": 58
    },
    {
      "midi": 69,
      "hit": false,
      "t": 180046.6666666661,
      "d": 120,
      "v": 46
    },
    {
      "midi": 64,
      "hit": false,
      "t": 180053.33333333337,
      "d": 73.33333333334303,
      "v": 127
    },
    {
      "midi": 73,
      "hit": false,
      "t": 180053.33333333337,
      "d": 73.33333333334303,
      "v": 127
    },
    {
      "midi": 45,
      "hit": false,
      "t": 180066.6666666661,
      "d": 66.66666666665697,
      "v": 62
    },
    {
      "midi": 61,
      "hit": false,
      "t": 180306.6666666661,
      "d": 119.9999999999709,
      "v": 60
    },
    {
      "midi": 64,
      "hit": false,
      "t": 180306.6666666661,
      "d": 126.66666666662786,
      "v": 56
    },
    {
      "midi": 69,
      "hit": false,
      "t": 180313.33333333276,
      "d": 106.66666666665697,
      "v": 44
    },
    {
      "midi": 37,
      "hit": false,
      "t": 180519.9999999994,
      "d": 206.66666666662786,
      "v": 62
    },
    {
      "midi": 61,
      "hit": false,
      "t": 180546.66666666605,
      "d": 133.33333333331393,
      "v": 60
    },
    {
      "midi": 64,
      "hit": false,
      "t": 180546.66666666605,
      "d": 153.33333333331393,
      "v": 56
    },
    {
      "midi": 69,
      "hit": false,
      "t": 180566.66666666605,
      "d": 106.66666666665697,
      "v": 46
    },
    {
      "midi": 64,
      "hit": false,
      "t": 180573.33333333337,
      "d": 1166.666666666657,
      "v": 127
    },
    {
      "midi": 61,
      "hit": false,
      "t": 180806.66666666602,
      "d": 126.66666666665697,
      "v": 62
    },
    {
      "midi": 64,
      "hit": false,
      "t": 180806.66666666602,
      "d": 153.33333333331393,
      "v": 58
    },
    {
      "midi": 40,
      "hit": false,
      "t": 180806.66666666602,
      "d": 606.6666666666279,
      "v": 62
    },
    {
      "midi": 69,
      "hit": false,
      "t": 180813.33333333267,
      "d": 126.66666666665697,
      "v": 48
    },
    {
      "midi": 76,
      "hit": false,
      "t": 180866.66666666672,
      "d": 626.666666666657,
      "v": 127
    },
    {
      "midi": 69,
      "hit": false,
      "t": 180866.66666666672,
      "d": 653.3333333333139,
      "v": 127
    },
    {
      "midi": 73,
      "hit": false,
      "t": 180866.66666666672,
      "d": 659.9999999999709,
      "v": 127
    },
    {
      "midi": 61,
      "hit": false,
      "t": 181073.33333333267,
      "d": 126.66666666665697,
      "v": 60
    },
    {
      "midi": 64,
      "hit": false,
      "t": 181073.33333333267,
      "d": 133.33333333331393,
      "v": 56
    },
    {
      "midi": 69,
      "hit": false,
      "t": 181086.66666666602,
      "d": 106.66666666665697,
      "v": 44
    },
    {
      "midi": 61,
      "hit": false,
      "t": 181333.33333333264,
      "d": 126.66666666665697,
      "v": 58
    },
    {
      "midi": 64,
      "hit": false,
      "t": 181333.33333333264,
      "d": 133.33333333331393,
      "v": 56
    },
    {
      "midi": 69,
      "hit": false,
      "t": 181346.666666666,
      "d": 119.9999999999709,
      "v": 48
    },
    {
      "midi": 37,
      "hit": false,
      "t": 181566.66666666596,
      "d": 353.33333333331393,
      "v": 62
    },
    {
      "midi": 61,
      "hit": false,
      "t": 181599.9999999993,
      "d": 126.66666666665697,
      "v": 62
    },
    {
      "midi": 64,
      "hit": false,
      "t": 181599.9999999993,
      "d": 133.33333333331393,
      "v": 60
    },
    {
      "midi": 69,
      "hit": false,
      "t": 181599.9999999993,
      "d": 133.33333333331393,
      "v": 52
    },
    {
      "midi": 76,
      "hit": false,
      "t": 181600.00000000003,
      "d": 100,
      "v": 127
    },
    {
      "midi": 73,
      "hit": false,
      "t": 181613.33333333337,
      "d": 86.66666666665697,
      "v": 127
    },
    {
      "midi": 69,
      "hit": false,
      "t": 181613.33333333337,
      "d": 93.33333333331393,
      "v": 127
    },
    {
      "midi": 64,
      "hit": false,
      "t": 181853.33333333262,
      "d": 119.9999999999709,
      "v": 52
    },
    {
      "midi": 69,
      "hit": false,
      "t": 181853.33333333262,
      "d": 119.9999999999709,
      "v": 46
    },
    {
      "midi": 61,
      "hit": false,
      "t": 181873.33333333262,
      "d": 93.33333333331393,
      "v": 56
    },
    {
      "midi": 69,
      "hit": false,
      "t": 182099.99999999924,
      "d": 153.33333333334303,
      "v": 54
    },
    {
      "midi": 40,
      "hit": false,
      "t": 182099.99999999924,
      "d": 173.33333333334303,
      "v": 62
    },
    {
      "midi": 61,
      "hit": false,
      "t": 182119.99999999924,
      "d": 120,
      "v": 58
    },
    {
      "midi": 64,
      "hit": false,
      "t": 182119.99999999924,
      "d": 133.33333333334303,
      "v": 54
    },
    {
      "midi": 64,
      "hit": false,
      "t": 182186.6666666667,
      "d": 906.666666666657,
      "v": 127
    },
    {
      "midi": 69,
      "hit": false,
      "t": 182379.99999999924,
      "d": 160,
      "v": 46
    },
    {
      "midi": 61,
      "hit": false,
      "t": 182386.6666666659,
      "d": 140,
      "v": 58
    },
    {
      "midi": 64,
      "hit": false,
      "t": 182386.6666666659,
      "d": 140,
      "v": 54
    },
    {
      "midi": 33,
      "hit": false,
      "t": 182413.33333333256,
      "d": 1139.999999999971,
      "v": 62
    },
    {
      "midi": 69,
      "hit": false,
      "t": 182420.00000000003,
      "d": 673.3333333333139,
      "v": 127
    },
    {
      "midi": 73,
      "hit": false,
      "t": 182433.33333333337,
      "d": 633.3333333333139,
      "v": 127
    },
    {
      "midi": 76,
      "hit": false,
      "t": 182440.00000000003,
      "d": 520,
      "v": 127
    },
    {
      "midi": 61,
      "hit": false,
      "t": 182666.6666666659,
      "d": 120,
      "v": 58
    },
    {
      "midi": 64,
      "hit": false,
      "t": 182666.6666666659,
      "d": 133.33333333334303,
      "v": 54
    },
    {
      "midi": 69,
      "hit": false,
      "t": 182666.6666666659,
      "d": 133.33333333334303,
      "v": 46
    },
    {
      "midi": 69,
      "hit": false,
      "t": 182919.99999999924,
      "d": 140,
      "v": 44
    },
    {
      "midi": 61,
      "hit": false,
      "t": 182933.3333333326,
      "d": 120,
      "v": 58
    },
    {
      "midi": 64,
      "hit": false,
      "t": 182933.3333333326,
      "d": 133.33333333331393,
      "v": 56
    },
    {
      "midi": 66,
      "hit": false,
      "t": 183173.33333333317,
      "d": 460.0000000000291,
      "v": 121
    },
    {
      "midi": 61,
      "hit": false,
      "t": 183186.6666666659,
      "d": 133.33333333331393,
      "v": 60
    },
    {
      "midi": 69,
      "hit": false,
      "t": 183186.6666666665,
      "d": 393.33333333334303,
      "v": 121
    },
    {
      "midi": 64,
      "hit": false,
      "t": 183199.99999999924,
      "d": 126.66666666662786,
      "v": 56
    },
    {
      "midi": 69,
      "hit": false,
      "t": 183199.99999999924,
      "d": 126.66666666662786,
      "v": 48
    },
    {
      "midi": 64,
      "hit": false,
      "t": 183200,
      "d": 120,
      "v": 127
    },
    {
      "midi": 76,
      "hit": false,
      "t": 183200,
      "d": 126.66666666665697,
      "v": 127
    },
    {
      "midi": 45,
      "hit": false,
      "t": 183206.6666666659,
      "d": 86.66666666665697,
      "v": 62
    },
    {
      "midi": 73,
      "hit": false,
      "t": 183213.33333333334,
      "d": 106.66666666665697,
      "v": 127
    },
    {
      "midi": 69,
      "hit": false,
      "t": 183213.33333333334,
      "d": 119.9999999999709,
      "v": 127
    },
    {
      "midi": 61,
      "hit": false,
      "t": 183453.33333333253,
      "d": 120,
      "v": 62
    },
    {
      "midi": 69,
      "hit": false,
      "t": 183453.33333333253,
      "d": 126.66666666665697,
      "v": 50
    },
    {
      "midi": 64,
      "hit": false,
      "t": 183453.33333333253,
      "d": 133.33333333331393,
      "v": 58
    },
    {
      "midi": 69,
      "hit": false,
      "t": 183699.99999999985,
      "d": 166.66666666668607,
      "v": 99
    },
    {
      "midi": 37,
      "hit": false,
      "t": 183713.3333333325,
      "d": 226.66666666668607,
      "v": 62
    },
    {
      "midi": 64,
      "hit": false,
      "t": 183713.3333333332,
      "d": 153.33333333334303,
      "v": 104
    },
    {
      "midi": 61,
      "hit": false,
      "t": 183719.99999999916,
      "d": 133.33333333334303,
      "v": 62
    },
    {
      "midi": 69,
      "hit": false,
      "t": 183733.3333333325,
      "d": 120,
      "v": 48
    },
    {
      "midi": 64,
      "hit": false,
      "t": 183733.3333333325,
      "d": 133.33333333334303,
      "v": 58
    },
    {
      "midi": 64,
      "hit": false,
      "t": 183733.3333333333,
      "d": 1133.333333333314,
      "v": 112
    },
    {
      "midi": 69,
      "hit": false,
      "t": 183986.66666666654,
      "d": 373.33333333334303,
      "v": 121
    },
    {
      "midi": 66,
      "hit": false,
      "t": 183986.66666666654,
      "d": 426.66666666668607,
      "v": 121
    },
    {
      "midi": 61,
      "hit": false,
      "t": 183999.99999999919,
      "d": 133.33333333331393,
      "v": 62
    },
    {
      "midi": 64,
      "hit": false,
      "t": 183999.99999999919,
      "d": 153.33333333331393,
      "v": 58
    },
    {
      "midi": 69,
      "hit": false,
      "t": 183999.99999999997,
      "d": 700,
      "v": 127
    },
    {
      "midi": 69,
      "hit": false,
      "t": 184006.66666666584,
      "d": 133.33333333331393,
      "v": 50
    },
    {
      "midi": 76,
      "hit": false,
      "t": 184013.3333333333,
      "d": 606.666666666657,
      "v": 127
    },
    {
      "midi": 73,
      "hit": false,
      "t": 184013.3333333333,
      "d": 693.3333333333139,
      "v": 127
    },
    {
      "midi": 40,
      "hit": false,
      "t": 184033.3333333325,
      "d": 673.333333333343,
      "v": 62
    },
    {
      "midi": 64,
      "hit": false,
      "t": 184266.66666666584,
      "d": 140,
      "v": 56
    },
    {
      "midi": 61,
      "hit": false,
      "t": 184273.3333333325,
      "d": 120,
      "v": 60
    },
    {
      "midi": 69,
      "hit": false,
      "t": 184279.99999999916,
      "d": 100,
      "v": 44
    },
    {
      "midi": 61,
      "hit": false,
      "t": 184519.99999999919,
      "d": 126.66666666665697,
      "v": 58
    },
    {
      "midi": 64,
      "hit": false,
      "t": 184519.99999999919,
      "d": 140,
      "v": 54
    },
    {
      "midi": 69,
      "hit": false,
      "t": 184519.99999999988,
      "d": 173.33333333334303,
      "v": 121
    },
    {
      "midi": 64,
      "hit": false,
      "t": 184533.33333333323,
      "d": 226.66666666665697,
      "v": 113
    },
    {
      "midi": 69,
      "hit": false,
      "t": 184539.99999999919,
      "d": 106.66666666665697,
      "v": 46
    },
    {
      "midi": 76,
      "hit": false,
      "t": 184779.99999999997,
      "d": 106.66666666665697,
      "v": 127
    },
    {
      "midi": 69,
      "hit": false,
      "t": 184779.99999999997,
      "d": 126.66666666665697,
      "v": 127
    },
    {
      "midi": 73,
      "hit": false,
      "t": 184786.66666666663,
      "d": 120,
      "v": 127
    },
    {
      "midi": 61,
      "hit": false,
      "t": 184799.99999999919,
      "d": 133.33333333331393,
      "v": 62
    },
    {
      "midi": 64,
      "hit": false,
      "t": 184799.99999999919,
      "d": 133.33333333331393,
      "v": 58
    },
    {
      "midi": 69,
      "hit": false,
      "t": 184806.66666666584,
      "d": 106.66666666665697,
      "v": 52
    },
    {
      "midi": 37,
      "hit": false,
      "t": 184806.66666666584,
      "d": 460,
      "v": 62
    },
    {
      "midi": 61,
      "hit": false,
      "t": 184833.33333333323,
      "d": 406.66666666665697,
      "v": 121
    },
    {
      "midi": 69,
      "hit": false,
      "t": 184833.33333333323,
      "d": 433.33333333331393,
      "v": 113
    },
    {
      "midi": 61,
      "hit": false,
      "t": 185053.3333333325,
      "d": 133.33333333334303,
      "v": 60
    },
    {
      "midi": 64,
      "hit": false,
      "t": 185053.3333333325,
      "d": 140,
      "v": 56
    },
    {
      "midi": 69,
      "hit": false,
      "t": 185073.3333333325,
      "d": 93.33333333334303,
      "v": 48
    },
    {
      "midi": 64,
      "hit": false,
      "t": 185299.99999999997,
      "d": 1206.666666666657,
      "v": 127
    },
    {
      "midi": 40,
      "hit": false,
      "t": 185306.66666666584,
      "d": 126.66666666665697,
      "v": 62
    },
    {
      "midi": 61,
      "hit": false,
      "t": 185306.66666666584,
      "d": 140,
      "v": 62
    },
    {
      "midi": 64,
      "hit": false,
      "t": 185306.66666666584,
      "d": 140,
      "v": 58
    },
    {
      "midi": 57,
      "hit": false,
      "t": 185313.3333333332,
      "d": 173.33333333334303,
      "v": 115
    },
    {
      "midi": 69,
      "hit": false,
      "t": 185319.99999999919,
      "d": 106.66666666665697,
      "v": 56
    },
    {
      "midi": 64,
      "hit": false,
      "t": 185573.3333333325,
      "d": 166.66666666665697,
      "v": 62
    },
    {
      "midi": 76,
      "hit": false,
      "t": 185586.66666666663,
      "d": 700,
      "v": 127
    },
    {
      "midi": 68,
      "hit": false,
      "t": 185586.66666666663,
      "d": 720,
      "v": 127
    },
    {
      "midi": 71,
      "hit": false,
      "t": 185586.66666666663,
      "d": 726.666666666657,
      "v": 127
    },
    {
      "midi": 68,
      "hit": false,
      "t": 185599.99999999916,
      "d": 120,
      "v": 62
    },
    {
      "midi": 62,
      "hit": false,
      "t": 185599.99999999916,
      "d": 126.66666666665697,
      "v": 60
    },
    {
      "midi": 40,
      "hit": false,
      "t": 185599.99999999916,
      "d": 1173.3333333332848,
      "v": 62
    },
    {
      "midi": 68,
      "hit": false,
      "t": 185619.99999999988,
      "d": 3133.333333333343,
      "v": 118
    },
    {
      "midi": 59,
      "hit": false,
      "t": 185619.99999999988,
      "d": 3160,
      "v": 113
    },
    {
      "midi": 62,
      "hit": false,
      "t": 185866.6666666658,
      "d": 133.33333333334303,
      "v": 56
    },
    {
      "midi": 64,
      "hit": false,
      "t": 185866.6666666658,
      "d": 133.33333333334303,
      "v": 54
    },
    {
      "midi": 68,
      "hit": false,
      "t": 185866.6666666658,
      "d": 133.33333333334303,
      "v": 54
    },
    {
      "midi": 68,
      "hit": false,
      "t": 186133.3333333325,
      "d": 126.66666666665697,
      "v": 58
    },
    {
      "midi": 62,
      "hit": false,
      "t": 186133.3333333325,
      "d": 133.33333333331393,
      "v": 56
    },
    {
      "midi": 64,
      "hit": false,
      "t": 186133.3333333325,
      "d": 153.33333333331393,
      "v": 56
    },
    {
      "midi": 76,
      "hit": false,
      "t": 186399.99999999994,
      "d": 106.66666666668607,
      "v": 127
    },
    {
      "midi": 62,
      "hit": false,
      "t": 186413.33333333247,
      "d": 133.33333333331393,
      "v": 60
    },
    {
      "midi": 64,
      "hit": false,
      "t": 186413.33333333247,
      "d": 139.9999999999709,
      "v": 58
    },
    {
      "midi": 68,
      "hit": false,
      "t": 186413.33333333247,
      "d": 153.33333333331393,
      "v": 60
    },
    {
      "midi": 68,
      "hit": false,
      "t": 186413.33333333328,
      "d": 106.66666666668607,
      "v": 127
    },
    {
      "midi": 71,
      "hit": false,
      "t": 186413.33333333328,
      "d": 120.0000000000291,
      "v": 127
    },
    {
      "midi": 52,
      "hit": false,
      "t": 186433.33333333247,
      "d": 66.66666666665697,
      "v": 62
    },
    {
      "midi": 68,
      "hit": false,
      "t": 186679.99999999913,
      "d": 119.9999999999709,
      "v": 56
    },
    {
      "midi": 62,
      "hit": false,
      "t": 186686.66666666578,
      "d": 106.66666666665697,
      "v": 54
    },
    {
      "midi": 64,
      "hit": false,
      "t": 186686.66666666578,
      "d": 126.66666666665697,
      "v": 54
    },
    {
      "midi": 44,
      "hit": false,
      "t": 186933.33333333244,
      "d": 200,
      "v": 62
    },
    {
      "midi": 64,
      "hit": false,
      "t": 186933.3333333333,
      "d": 966.6666666666861,
      "v": 127
    },
    {
      "midi": 62,
      "hit": false,
      "t": 186939.9999999991,
      "d": 133.33333333334303,
      "v": 58
    },
    {
      "midi": 68,
      "hit": false,
      "t": 186939.9999999991,
      "d": 133.33333333334303,
      "v": 62
    },
    {
      "midi": 64,
      "hit": false,
      "t": 186939.9999999991,
      "d": 153.33333333334303,
      "v": 60
    },
    {
      "midi": 62,
      "hit": false,
      "t": 187206.66666666578,
      "d": 140,
      "v": 56
    },
    {
      "midi": 64,
      "hit": false,
      "t": 187206.66666666578,
      "d": 153.33333333334303,
      "v": 56
    },
    {
      "midi": 68,
      "hit": false,
      "t": 187206.66666666578,
      "d": 153.33333333334303,
      "v": 58
    },
    {
      "midi": 47,
      "hit": false,
      "t": 187206.66666666578,
      "d": 653.3333333333139,
      "v": 62
    },
    {
      "midi": 76,
      "hit": false,
      "t": 187206.66666666666,
      "d": 666.6666666666861,
      "v": 127
    },
    {
      "midi": 68,
      "hit": false,
      "t": 187206.66666666666,
      "d": 733.333333333343,
      "v": 127
    },
    {
      "midi": 71,
      "hit": false,
      "t": 187220,
      "d": 726.666666666657,
      "v": 127
    },
    {
      "midi": 62,
      "hit": false,
      "t": 187466.66666666578,
      "d": 133.33333333331393,
      "v": 54
    },
    {
      "midi": 68,
      "hit": false,
      "t": 187473.33333333244,
      "d": 126.66666666665697,
      "v": 54
    },
    {
      "midi": 64,
      "hit": false,
      "t": 187473.33333333244,
      "d": 140,
      "v": 54
    },
    {
      "midi": 62,
      "hit": false,
      "t": 187733.33333333244,
      "d": 133.33333333331393,
      "v": 56
    },
    {
      "midi": 68,
      "hit": false,
      "t": 187733.33333333244,
      "d": 133.33333333331393,
      "v": 58
    },
    {
      "midi": 64,
      "hit": false,
      "t": 187733.33333333244,
      "d": 139.9999999999709,
      "v": 56
    },
    {
      "midi": 44,
      "hit": false,
      "t": 187986.66666666575,
      "d": 273.33333333334303,
      "v": 62
    },
    {
      "midi": 68,
      "hit": false,
      "t": 187999.9999999991,
      "d": 126.66666666665697,
      "v": 58
    },
    {
      "midi": 62,
      "hit": false,
      "t": 187999.9999999991,
      "d": 133.33333333331393,
      "v": 58
    },
    {
      "midi": 64,
      "hit": false,
      "t": 187999.9999999991,
      "d": 133.33333333331393,
      "v": 58
    },
    {
      "midi": 76,
      "hit": false,
      "t": 188033.3333333333,
      "d": 100.0000000000291,
      "v": 127
    },
    {
      "midi": 64,
      "hit": false,
      "t": 188046.66666666666,
      "d": 73.33333333334303,
      "v": 127
    },
    {
      "midi": 68,
      "hit": false,
      "t": 188046.66666666666,
      "d": 100.0000000000291,
      "v": 127
    },
    {
      "midi": 71,
      "hit": false,
      "t": 188046.66666666666,
      "d": 100.0000000000291,
      "v": 127
    },
    {
      "midi": 62,
      "hit": false,
      "t": 188246.66666666575,
      "d": 120,
      "v": 54
    },
    {
      "midi": 64,
      "hit": false,
      "t": 188246.66666666575,
      "d": 120,
      "v": 56
    },
    {
      "midi": 68,
      "hit": false,
      "t": 188266.66666666575,
      "d": 66.66666666665697,
      "v": 54
    },
    {
      "midi": 47,
      "hit": false,
      "t": 188486.66666666575,
      "d": 186.66666666668607,
      "v": 62
    },
    {
      "midi": 62,
      "hit": false,
      "t": 188499.9999999991,
      "d": 133.33333333334303,
      "v": 54
    },
    {
      "midi": 64,
      "hit": false,
      "t": 188499.9999999991,
      "d": 133.33333333334303,
      "v": 56
    },
    {
      "midi": 68,
      "hit": false,
      "t": 188499.9999999991,
      "d": 133.33333333334303,
      "v": 56
    },
    {
      "midi": 64,
      "hit": false,
      "t": 188533.33333333334,
      "d": 200,
      "v": 127
    },
    {
      "midi": 62,
      "hit": false,
      "t": 188779.9999999991,
      "d": 153.33333333334303,
      "v": 58
    },
    {
      "midi": 64,
      "hit": false,
      "t": 188779.9999999991,
      "d": 153.33333333334303,
      "v": 60
    },
    {
      "midi": 68,
      "hit": false,
      "t": 188779.9999999991,
      "d": 153.33333333334303,
      "v": 60
    },
    {
      "midi": 40,
      "hit": false,
      "t": 188799.9999999991,
      "d": 1226.666666666657,
      "v": 62
    },
    {
      "midi": 64,
      "hit": false,
      "t": 188800,
      "d": 700,
      "v": 116
    },
    {
      "midi": 68,
      "hit": false,
      "t": 188800,
      "d": 733.333333333343,
      "v": 127
    },
    {
      "midi": 76,
      "hit": false,
      "t": 188800,
      "d": 733.333333333343,
      "v": 127
    },
    {
      "midi": 71,
      "hit": false,
      "t": 188800,
      "d": 753.333333333343,
      "v": 127
    },
    {
      "midi": 62,
      "hit": false,
      "t": 189066.66666666578,
      "d": 106.66666666665697,
      "v": 52
    },
    {
      "midi": 68,
      "hit": false,
      "t": 189066.66666666578,
      "d": 106.66666666665697,
      "v": 54
    },
    {
      "midi": 64,
      "hit": false,
      "t": 189066.66666666578,
      "d": 126.66666666665697,
      "v": 52
    },
    {
      "midi": 69,
      "hit": false,
      "t": 189233.33333333323,
      "d": 186.66666666665697,
      "v": 121
    },
    {
      "midi": 66,
      "hit": false,
      "t": 189233.33333333323,
      "d": 200,
      "v": 121
    },
    {
      "midi": 68,
      "hit": false,
      "t": 189313.33333333244,
      "d": 126.66666666665697,
      "v": 54
    },
    {
      "midi": 62,
      "hit": false,
      "t": 189313.33333333244,
      "d": 133.33333333331393,
      "v": 52
    },
    {
      "midi": 64,
      "hit": false,
      "t": 189313.33333333244,
      "d": 139.9999999999709,
      "v": 54
    },
    {
      "midi": 69,
      "hit": false,
      "t": 189513.33333333323,
      "d": 386.66666666668607,
      "v": 115
    },
    {
      "midi": 66,
      "hit": false,
      "t": 189513.33333333323,
      "d": 420.0000000000291,
      "v": 120
    },
    {
      "midi": 62,
      "hit": false,
      "t": 189586.66666666575,
      "d": 126.66666666668607,
      "v": 56
    },
    {
      "midi": 68,
      "hit": false,
      "t": 189586.66666666575,
      "d": 133.33333333334303,
      "v": 58
    },
    {
      "midi": 64,
      "hit": false,
      "t": 189586.66666666575,
      "d": 140,
      "v": 58
    },
    {
      "midi": 52,
      "hit": false,
      "t": 189599.9999999991,
      "d": 120,
      "v": 62
    },
    {
      "midi": 68,
      "hit": false,
      "t": 189633.33333333334,
      "d": 100.0000000000291,
      "v": 127
    },
    {
      "midi": 71,
      "hit": false,
      "t": 189633.33333333334,
      "d": 100.0000000000291,
      "v": 127
    },
    {
      "midi": 76,
      "hit": false,
      "t": 189633.33333333334,
      "d": 100.0000000000291,
      "v": 127
    },
    {
      "midi": 64,
      "hit": false,
      "t": 189666.6666666667,
      "d": 53.333333333343035,
      "v": 127
    },
    {
      "midi": 64,
      "hit": false,
      "t": 189853.3333333324,
      "d": 140,
      "v": 56
    },
    {
      "midi": 68,
      "hit": false,
      "t": 189866.66666666575,
      "d": 100,
      "v": 54
    },
    {
      "midi": 62,
      "hit": false,
      "t": 189866.66666666575,
      "d": 120,
      "v": 54
    },
    {
      "midi": 69,
      "hit": false,
      "t": 190066.6666666666,
      "d": 173.33333333331393,
      "v": 112
    },
    {
      "midi": 64,
      "hit": false,
      "t": 190073.33333333326,
      "d": 166.66666666665697,
      "v": 115
    },
    {
      "midi": 62,
      "hit": false,
      "t": 190133.3333333324,
      "d": 133.33333333334303,
      "v": 56
    },
    {
      "midi": 68,
      "hit": false,
      "t": 190133.3333333324,
      "d": 133.33333333334303,
      "v": 58
    },
    {
      "midi": 64,
      "hit": false,
      "t": 190133.3333333324,
      "d": 160,
      "v": 56
    },
    {
      "midi": 44,
      "hit": false,
      "t": 190133.3333333324,
      "d": 233.33333333334303,
      "v": 62
    },
    {
      "midi": 64,
      "hit": false,
      "t": 190153.33333333337,
      "d": 100,
      "v": 127
    },
    {
      "midi": 69,
      "hit": false,
      "t": 190386.66666666657,
      "d": 333.33333333334303,
      "v": 121
    },
    {
      "midi": 66,
      "hit": false,
      "t": 190386.66666666657,
      "d": 373.33333333334303,
      "v": 121
    },
    {
      "midi": 76,
      "hit": false,
      "t": 190400.00000000003,
      "d": 686.666666666657,
      "v": 127
    },
    {
      "midi": 68,
      "hit": false,
      "t": 190400.00000000003,
      "d": 726.666666666657,
      "v": 127
    },
    {
      "midi": 71,
      "hit": false,
      "t": 190400.00000000003,
      "d": 733.3333333333139,
      "v": 127
    },
    {
      "midi": 62,
      "hit": false,
      "t": 190419.9999999991,
      "d": 126.66666666665697,
      "v": 58
    },
    {
      "midi": 68,
      "hit": false,
      "t": 190419.9999999991,
      "d": 140,
      "v": 58
    },
    {
      "midi": 64,
      "hit": false,
      "t": 190419.9999999991,
      "d": 153.33333333334303,
      "v": 58
    },
    {
      "midi": 64,
      "hit": false,
      "t": 190420.00000000003,
      "d": 666.666666666657,
      "v": 127
    },
    {
      "midi": 47,
      "hit": false,
      "t": 190466.66666666575,
      "d": 700,
      "v": 62
    },
    {
      "midi": 62,
      "hit": false,
      "t": 190699.9999999991,
      "d": 106.66666666665697,
      "v": 56
    },
    {
      "midi": 68,
      "hit": false,
      "t": 190699.9999999991,
      "d": 106.66666666665697,
      "v": 58
    },
    {
      "midi": 64,
      "hit": false,
      "t": 190699.9999999991,
      "d": 126.66666666665697,
      "v": 56
    },
    {
      "midi": 69,
      "hit": false,
      "t": 190899.9999999999,
      "d": 73.33333333334303,
      "v": 115
    },
    {
      "midi": 64,
      "hit": false,
      "t": 190913.33333333326,
      "d": 106.66666666665697,
      "v": 118
    },
    {
      "midi": 62,
      "hit": false,
      "t": 190953.3333333324,
      "d": 126.66666666665697,
      "v": 56
    },
    {
      "midi": 68,
      "hit": false,
      "t": 190953.3333333324,
      "d": 126.66666666665697,
      "v": 58
    },
    {
      "midi": 64,
      "hit": false,
      "t": 190953.3333333324,
      "d": 140,
      "v": 56
    },
    {
      "midi": 59,
      "hit": false,
      "t": 191199.9999999999,
      "d": 140,
      "v": 121
    },
    {
      "midi": 64,
      "hit": false,
      "t": 191199.9999999999,
      "d": 286.66666666665697,
      "v": 116
    },
    {
      "midi": 76,
      "hit": false,
      "t": 191200,
      "d": 140.0000000000291,
      "v": 127
    },
    {
      "midi": 62,
      "hit": false,
      "t": 191219.9999999991,
      "d": 133.33333333334303,
      "v": 60
    },
    {
      "midi": 64,
      "hit": false,
      "t": 191219.9999999991,
      "d": 153.33333333334303,
      "v": 60
    },
    {
      "midi": 68,
      "hit": false,
      "t": 191220,
      "d": 106.66666666668607,
      "v": 127
    },
    {
      "midi": 71,
      "hit": false,
      "t": 191220,
      "d": 133.33333333337214,
      "v": 127
    },
    {
      "midi": 68,
      "hit": false,
      "t": 191233.33333333244,
      "d": 133.33333333334303,
      "v": 60
    },
    {
      "midi": 61,
      "hit": false,
      "t": 191233.33333333326,
      "d": 433.33333333331393,
      "v": 108
    },
    {
      "midi": 64,
      "hit": false,
      "t": 191233.33333333334,
      "d": 73.33333333334303,
      "v": 127
    },
    {
      "midi": 44,
      "hit": false,
      "t": 191246.66666666578,
      "d": 420,
      "v": 62
    },
    {
      "midi": 64,
      "hit": false,
      "t": 191499.9999999991,
      "d": 126.66666666668607,
      "v": 58
    },
    {
      "midi": 62,
      "hit": false,
      "t": 191506.66666666575,
      "d": 93.33333333334303,
      "v": 56
    },
    {
      "midi": 68,
      "hit": false,
      "t": 191506.66666666575,
      "d": 106.66666666668607,
      "v": 58
    },
    {
      "midi": 64,
      "hit": false,
      "t": 191713.33333333326,
      "d": 186.66666666665697,
      "v": 109
    },
    {
      "midi": 59,
      "hit": false,
      "t": 191713.33333333326,
      "d": 233.33333333331393,
      "v": 115
    },
    {
      "midi": 45,
      "hit": false,
      "t": 191719.99999999913,
      "d": 206.66666666668607,
      "v": 62
    },
    {
      "midi": 64,
      "hit": false,
      "t": 191720.00000000003,
      "d": 1220,
      "v": 127
    },
    {
      "midi": 62,
      "hit": false,
      "t": 191739.99999999913,
      "d": 120,
      "v": 58
    },
    {
      "midi": 64,
      "hit": false,
      "t": 191746.66666666578,
      "d": 126.66666666668607,
      "v": 54
    },
    {
      "midi": 68,
      "hit": false,
      "t": 191746.66666666578,
      "d": 126.66666666668607,
      "v": 58
    },
    {
      "midi": 61,
      "hit": false,
      "t": 191999.99999999916,
      "d": 153.33333333334303,
      "v": 62
    },
    {
      "midi": 64,
      "hit": false,
      "t": 191999.99999999916,
      "d": 153.33333333334303,
      "v": 56
    },
    {
      "midi": 69,
      "hit": false,
      "t": 191999.99999999916,
      "d": 153.33333333334303,
      "v": 54
    },
    {
      "midi": 33,
      "hit": false,
      "t": 191999.99999999916,
      "d": 1000.0000000000291,
      "v": 62
    },
    {
      "midi": 57,
      "hit": false,
      "t": 192033.33333333323,
      "d": 886.6666666666279,
      "v": 116
    },
    {
      "midi": 76,
      "hit": false,
      "t": 192033.33333333337,
      "d": 666.666666666657,
      "v": 127
    },
    {
      "midi": 69,
      "hit": false,
      "t": 192033.33333333337,
      "d": 700,
      "v": 127
    },
    {
      "midi": 73,
      "hit": false,
      "t": 192033.33333333337,
      "d": 700,
      "v": 127
    },
    {
      "midi": 64,
      "hit": false,
      "t": 192039.99999999988,
      "d": 873.3333333333139,
      "v": 113
    },
    {
      "midi": 61,
      "hit": false,
      "t": 192266.66666666584,
      "d": 133.33333333334303,
      "v": 58
    },
    {
      "midi": 69,
      "hit": false,
      "t": 192266.66666666584,
      "d": 133.33333333334303,
      "v": 44
    },
    {
      "midi": 64,
      "hit": false,
      "t": 192266.66666666584,
      "d": 140,
      "v": 52
    },
    {
      "midi": 61,
      "hit": false,
      "t": 192533.3333333325,
      "d": 140,
      "v": 58
    },
    {
      "midi": 64,
      "hit": false,
      "t": 192533.3333333325,
      "d": 153.33333333334303,
      "v": 54
    },
    {
      "midi": 69,
      "hit": false,
      "t": 192546.66666666584,
      "d": 120,
      "v": 46
    },
    {
      "midi": 45,
      "hit": false,
      "t": 192799.99999999919,
      "d": 133.33333333334303,
      "v": 62
    },
    {
      "midi": 61,
      "hit": false,
      "t": 192806.66666666584,
      "d": 160,
      "v": 62
    },
    {
      "midi": 64,
      "hit": false,
      "t": 192806.66666666584,
      "d": 160,
      "v": 58
    },
    {
      "midi": 69,
      "hit": false,
      "t": 192819.99999999919,
      "d": 120,
      "v": 52
    },
    {
      "midi": 76,
      "hit": false,
      "t": 192820.00000000003,
      "d": 206.66666666665697,
      "v": 127
    },
    {
      "midi": 69,
      "hit": false,
      "t": 192833.33333333337,
      "d": 133.33333333331393,
      "v": 127
    },
    {
      "midi": 73,
      "hit": false,
      "t": 192840.00000000003,
      "d": 166.66666666665697,
      "v": 127
    },
    {
      "midi": 35,
      "hit": false,
      "t": 193053.33333333253,
      "d": 166.66666666668607,
      "v": 62
    },
    {
      "midi": 61,
      "hit": false,
      "t": 193073.33333333253,
      "d": 133.33333333334303,
      "v": 62
    },
    {
      "midi": 64,
      "hit": false,
      "t": 193073.33333333253,
      "d": 153.33333333334303,
      "v": 56
    },
    {
      "midi": 69,
      "hit": false,
      "t": 193086.66666666587,
      "d": 106.66666666665697,
      "v": 52
    },
    {
      "midi": 64,
      "hit": false,
      "t": 193100.00000000003,
      "d": 73.33333333334303,
      "v": 127
    },
    {
      "midi": 37,
      "hit": false,
      "t": 193319.9999999992,
      "d": 120,
      "v": 62
    },
    {
      "midi": 64,
      "hit": false,
      "t": 193333.33333333256,
      "d": 133.33333333331393,
      "v": 58
    },
    {
      "midi": 61,
      "hit": false,
      "t": 193333.33333333256,
      "d": 153.33333333331393,
      "v": 62
    },
    {
      "midi": 69,
      "hit": false,
      "t": 193339.9999999992,
      "d": 120,
      "v": 50
    },
    {
      "midi": 66,
      "hit": false,
      "t": 193353.33333333337,
      "d": 106.66666666665697,
      "v": 127
    },
    {
      "midi": 66,
      "hit": false,
      "t": 193599.9999999992,
      "d": 160,
      "v": 62
    },
    {
      "midi": 38,
      "hit": false,
      "t": 193599.9999999992,
      "d": 673.3333333332848,
      "v": 62
    },
    {
      "midi": 69,
      "hit": false,
      "t": 193606.66666666587,
      "d": 126.66666666665697,
      "v": 60
    },
    {
      "midi": 62,
      "hit": false,
      "t": 193606.66666666587,
      "d": 140,
      "v": 62
    },
    {
      "midi": 66,
      "hit": false,
      "t": 193640.00000000003,
      "d": 726.666666666657,
      "v": 127
    },
    {
      "midi": 69,
      "hit": false,
      "t": 193640.00000000003,
      "d": 753.3333333333139,
      "v": 127
    },
    {
      "midi": 74,
      "hit": false,
      "t": 193646.6666666667,
      "d": 673.333333333343,
      "v": 127
    },
    {
      "midi": 69,
      "hit": false,
      "t": 193866.66666666587,
      "d": 120,
      "v": 50
    },
    {
      "midi": 62,
      "hit": false,
      "t": 193866.66666666587,
      "d": 133.33333333334303,
      "v": 60
    },
    {
      "midi": 66,
      "hit": false,
      "t": 193866.66666666587,
      "d": 140,
      "v": 62
    },
    {
      "midi": 66,
      "hit": false,
      "t": 194113.33333333253,
      "d": 153.33333333331393,
      "v": 62
    },
    {
      "midi": 62,
      "hit": false,
      "t": 194119.99999999919,
      "d": 140,
      "v": 60
    },
    {
      "midi": 69,
      "hit": false,
      "t": 194133.33333333253,
      "d": 120,
      "v": 52
    },
    {
      "midi": 38,
      "hit": false,
      "t": 194366.66666666584,
      "d": 153.33333333334303,
      "v": 62
    },
    {
      "midi": 62,
      "hit": false,
      "t": 194386.66666666584,
      "d": 140,
      "v": 62
    },
    {
      "midi": 66,
      "hit": false,
      "t": 194386.66666666584,
      "d": 140,
      "v": 62
    },
    {
      "midi": 69,
      "hit": false,
      "t": 194406.66666666584,
      "d": 126.66666666665697,
      "v": 60
    },
    {
      "midi": 69,
      "hit": false,
      "t": 194453.33333333334,
      "d": 140,
      "v": 127
    },
    {
      "midi": 74,
      "hit": false,
      "t": 194453.33333333334,
      "d": 140,
      "v": 127
    },
    {
      "midi": 66,
      "hit": false,
      "t": 194453.33333333334,
      "d": 160,
      "v": 127
    },
    {
      "midi": 37,
      "hit": false,
      "t": 194633.3333333325,
      "d": 140,
      "v": 62
    },
    {
      "midi": 62,
      "hit": false,
      "t": 194646.66666666584,
      "d": 126.66666666665697,
      "v": 62
    },
    {
      "midi": 66,
      "hit": false,
      "t": 194646.66666666584,
      "d": 140,
      "v": 62
    },
    {
      "midi": 69,
      "hit": false,
      "t": 194666.66666666584,
      "d": 106.66666666665697,
      "v": 58
    },
    {
      "midi": 64,
      "hit": false,
      "t": 194720,
      "d": 106.66666666665697,
      "v": 127
    },
    {
      "midi": 35,
      "hit": false,
      "t": 194886.66666666584,
      "d": 140,
      "v": 62
    },
    {
      "midi": 62,
      "hit": false,
      "t": 194886.66666666584,
      "d": 140,
      "v": 62
    },
    {
      "midi": 66,
      "hit": false,
      "t": 194886.66666666584,
      "d": 173.33333333334303,
      "v": 62
    },
    {
      "midi": 69,
      "hit": false,
      "t": 194906.66666666584,
      "d": 106.66666666665697,
      "v": 58
    },
    {
      "midi": 64,
      "hit": false,
      "t": 194946.66666666666,
      "d": 166.66666666665697,
      "v": 127
    },
    {
      "midi": 61,
      "hit": false,
      "t": 195166.66666666584,
      "d": 206.66666666665697,
      "v": 62
    },
    {
      "midi": 69,
      "hit": false,
      "t": 195166.66666666584,
      "d": 206.66666666665697,
      "v": 60
    },
    {
      "midi": 33,
      "hit": false,
      "t": 195166.66666666584,
      "d": 220,
      "v": 62
    },
    {
      "midi": 64,
      "hit": false,
      "t": 195173.3333333325,
      "d": 226.66666666668607,
      "v": 62
    },
    {
      "midi": 45,
      "hit": false,
      "t": 195206.66666666584,
      "d": 733.333333333343,
      "v": 62
    },
    {
      "midi": 76,
      "hit": false,
      "t": 195219.99999999997,
      "d": 593.333333333343,
      "v": 127
    },
    {
      "midi": 69,
      "hit": false,
      "t": 195219.99999999997,
      "d": 633.333333333343,
      "v": 127
    },
    {
      "midi": 73,
      "hit": false,
      "t": 195239.99999999997,
      "d": 620,
      "v": 127
    },
    {
      "midi": 57,
      "hit": false,
      "t": 195253.3333333332,
      "d": 140,
      "v": 121
    },
    {
      "midi": 69,
      "hit": false,
      "t": 195433.33333333253,
      "d": 133.33333333334303,
      "v": 46
    },
    {
      "midi": 61,
      "hit": false,
      "t": 195433.33333333253,
      "d": 140,
      "v": 62
    },
    {
      "midi": 64,
      "hit": false,
      "t": 195433.33333333253,
      "d": 140,
      "v": 54
    },
    {
      "midi": 57,
      "hit": false,
      "t": 195499.99999999985,
      "d": 100,
      "v": 118
    },
    {
      "midi": 69,
      "hit": false,
      "t": 195699.99999999919,
      "d": 120,
      "v": 50
    },
    {
      "midi": 61,
      "hit": false,
      "t": 195699.99999999919,
      "d": 133.33333333334303,
      "v": 62
    },
    {
      "midi": 64,
      "hit": false,
      "t": 195699.99999999919,
      "d": 133.33333333334303,
      "v": 58
    },
    {
      "midi": 57,
      "hit": false,
      "t": 195739.99999999985,
      "d": 133.33333333334303,
      "v": 121
    },
    {
      "midi": 69,
      "hit": false,
      "t": 195953.3333333333,
      "d": 120,
      "v": 127
    },
    {
      "midi": 76,
      "hit": false,
      "t": 195953.3333333333,
      "d": 126.66666666665697,
      "v": 127
    },
    {
      "midi": 33,
      "hit": false,
      "t": 195966.66666666584,
      "d": 333.33333333334303,
      "v": 62
    },
    {
      "midi": 73,
      "hit": false,
      "t": 195966.66666666666,
      "d": 106.66666666665697,
      "v": 127
    },
    {
      "midi": 61,
      "hit": false,
      "t": 195973.3333333325,
      "d": 133.33333333331393,
      "v": 62
    },
    {
      "midi": 64,
      "hit": false,
      "t": 195973.3333333325,
      "d": 160,
      "v": 62
    },
    {
      "midi": 69,
      "hit": false,
      "t": 195979.99999999916,
      "d": 140,
      "v": 60
    },
    {
      "midi": 57,
      "hit": false,
      "t": 195999.99999999985,
      "d": 133.33333333331393,
      "v": 121
    },
    {
      "midi": 61,
      "hit": false,
      "t": 196006.6666666665,
      "d": 133.33333333331393,
      "v": 121
    },
    {
      "midi": 61,
      "hit": false,
      "t": 196219.99999999916,
      "d": 140.0000000000291,
      "v": 62
    },
    {
      "midi": 69,
      "hit": false,
      "t": 196233.3333333325,
      "d": 120.0000000000291,
      "v": 50
    },
    {
      "midi": 64,
      "hit": false,
      "t": 196233.3333333325,
      "d": 133.33333333334303,
      "v": 60
    },
    {
      "midi": 57,
      "hit": false,
      "t": 196253.33333333317,
      "d": 93.33333333334303,
      "v": 113
    },
    {
      "midi": 61,
      "hit": false,
      "t": 196253.33333333317,
      "d": 106.66666666668607,
      "v": 121
    },
    {
      "midi": 45,
      "hit": false,
      "t": 196286.66666666584,
      "d": 206.66666666665697,
      "v": 62
    },
    {
      "midi": 57,
      "hit": false,
      "t": 196473.3333333332,
      "d": 126.66666666668607,
      "v": 115
    },
    {
      "midi": 64,
      "hit": false,
      "t": 196479.99999999997,
      "d": 100,
      "v": 127
    },
    {
      "midi": 69,
      "hit": false,
      "t": 196486.66666666584,
      "d": 139.9999999999709,
      "v": 56
    },
    {
      "midi": 64,
      "hit": false,
      "t": 196486.66666666584,
      "d": 159.9999999999709,
      "v": 62
    },
    {
      "midi": 61,
      "hit": false,
      "t": 196486.66666666654,
      "d": 120,
      "v": 121
    },
    {
      "midi": 33,
      "hit": false,
      "t": 196499.99999999916,
      "d": 126.66666666665697,
      "v": 62
    },
    {
      "midi": 61,
      "hit": false,
      "t": 196499.99999999916,
      "d": 140,
      "v": 62
    },
    {
      "midi": 64,
      "hit": false,
      "t": 196753.3333333332,
      "d": 140,
      "v": 121
    },
    {
      "midi": 76,
      "hit": false,
      "t": 196753.3333333333,
      "d": 673.333333333343,
      "v": 127
    },
    {
      "midi": 67,
      "hit": false,
      "t": 196753.3333333333,
      "d": 700,
      "v": 127
    },
    {
      "midi": 73,
      "hit": false,
      "t": 196753.3333333333,
      "d": 700,
      "v": 127
    },
    {
      "midi": 61,
      "hit": false,
      "t": 196766.6666666658,
      "d": 160,
      "v": 62
    },
    {
      "midi": 64,
      "hit": false,
      "t": 196766.6666666658,
      "d": 166.66666666665697,
      "v": 62
    },
    {
      "midi": 69,
      "hit": false,
      "t": 196766.6666666658,
      "d": 166.66666666665697,
      "v": 56
    },
    {
      "midi": 61,
      "hit": false,
      "t": 196766.66666666654,
      "d": 106.66666666665697,
      "v": 121
    },
    {
      "midi": 35,
      "hit": false,
      "t": 196773.33333333247,
      "d": 260,
      "v": 62
    },
    {
      "midi": 64,
      "hit": false,
      "t": 197006.66666666654,
      "d": 126.66666666665697,
      "v": 109
    },
    {
      "midi": 61,
      "hit": false,
      "t": 197013.3333333332,
      "d": 86.66666666665697,
      "v": 110
    },
    {
      "midi": 61,
      "hit": false,
      "t": 197033.33333333247,
      "d": 133.33333333334303,
      "v": 62
    },
    {
      "midi": 64,
      "hit": false,
      "t": 197033.33333333247,
      "d": 133.33333333334303,
      "v": 60
    },
    {
      "midi": 69,
      "hit": false,
      "t": 197046.6666666658,
      "d": 100,
      "v": 52
    },
    {
      "midi": 47,
      "hit": false,
      "t": 197066.6666666658,
      "d": 160,
      "v": 62
    },
    {
      "midi": 64,
      "hit": false,
      "t": 197266.66666666654,
      "d": 133.33333333331393,
      "v": 110
    },
    {
      "midi": 69,
      "hit": false,
      "t": 197286.6666666658,
      "d": 133.33333333334303,
      "v": 54
    },
    {
      "midi": 35,
      "hit": false,
      "t": 197286.6666666658,
      "d": 140,
      "v": 62
    },
    {
      "midi": 61,
      "hit": false,
      "t": 197286.6666666658,
      "d": 140,
      "v": 62
    },
    {
      "midi": 64,
      "hit": false,
      "t": 197286.6666666658,
      "d": 153.33333333334303,
      "v": 62
    },
    {
      "midi": 61,
      "hit": false,
      "t": 197286.66666666654,
      "d": 86.66666666665697,
      "v": 112
    },
    {
      "midi": 37,
      "hit": false,
      "t": 197319.99999999916,
      "d": 20,
      "v": 58
    },
    {
      "midi": 61,
      "hit": false,
      "t": 197546.6666666658,
      "d": 160,
      "v": 62
    },
    {
      "midi": 64,
      "hit": false,
      "t": 197546.6666666658,
      "d": 173.33333333334303,
      "v": 62
    },
    {
      "midi": 69,
      "hit": false,
      "t": 197546.6666666665,
      "d": 153.33333333334303,
      "v": 121
    },
    {
      "midi": 69,
      "hit": false,
      "t": 197553.33333333247,
      "d": 140,
      "v": 52
    },
    {
      "midi": 37,
      "hit": false,
      "t": 197566.6666666658,
      "d": 233.33333333334303,
      "v": 62
    },
    {
      "midi": 61,
      "hit": false,
      "t": 197566.6666666665,
      "d": 120,
      "v": 121
    },
    {
      "midi": 67,
      "hit": false,
      "t": 197566.66666666666,
      "d": 100,
      "v": 127
    },
    {
      "midi": 73,
      "hit": false,
      "t": 197566.66666666666,
      "d": 100,
      "v": 127
    },
    {
      "midi": 76,
      "hit": false,
      "t": 197566.66666666666,
      "d": 100,
      "v": 127
    },
    {
      "midi": 49,
      "hit": false,
      "t": 197806.6666666658,
      "d": 260,
      "v": 62
    },
    {
      "midi": 61,
      "hit": false,
      "t": 197806.6666666665,
      "d": 100,
      "v": 121
    },
    {
      "midi": 69,
      "hit": false,
      "t": 197806.6666666665,
      "d": 120,
      "v": 115
    },
    {
      "midi": 61,
      "hit": false,
      "t": 197833.33333333247,
      "d": 120,
      "v": 62
    },
    {
      "midi": 69,
      "hit": false,
      "t": 197833.33333333247,
      "d": 120,
      "v": 50
    },
    {
      "midi": 64,
      "hit": false,
      "t": 197833.33333333247,
      "d": 133.33333333334303,
      "v": 60
    },
    {
      "midi": 69,
      "hit": false,
      "t": 198039.99999999985,
      "d": 126.66666666665697,
      "v": 115
    },
    {
      "midi": 61,
      "hit": false,
      "t": 198039.99999999985,
      "d": 133.33333333331393,
      "v": 121
    },
    {
      "midi": 69,
      "hit": false,
      "t": 198073.33333333247,
      "d": 133.33333333334303,
      "v": 54
    },
    {
      "midi": 37,
      "hit": false,
      "t": 198073.33333333247,
      "d": 140,
      "v": 62
    },
    {
      "midi": 64,
      "hit": false,
      "t": 198073.33333333247,
      "d": 153.33333333331393,
      "v": 62
    },
    {
      "midi": 61,
      "hit": false,
      "t": 198086.6666666658,
      "d": 133.33333333331393,
      "v": 62
    },
    {
      "midi": 64,
      "hit": false,
      "t": 198100,
      "d": 86.66666666665697,
      "v": 127
    },
    {
      "midi": 38,
      "hit": false,
      "t": 198339.99999999913,
      "d": 1126.666666666686,
      "v": 62
    },
    {
      "midi": 69,
      "hit": false,
      "t": 198366.66666666578,
      "d": 133.33333333334303,
      "v": 60
    },
    {
      "midi": 62,
      "hit": false,
      "t": 198366.66666666578,
      "d": 140,
      "v": 62
    },
    {
      "midi": 66,
      "hit": false,
      "t": 198366.66666666578,
      "d": 153.33333333334303,
      "v": 62
    },
    {
      "midi": 69,
      "hit": false,
      "t": 198406.6666666665,
      "d": 366.66666666665697,
      "v": 121
    },
    {
      "midi": 62,
      "hit": false,
      "t": 198419.99999999985,
      "d": 346.66666666665697,
      "v": 121
    },
    {
      "midi": 69,
      "hit": false,
      "t": 198433.3333333333,
      "d": 626.6666666666861,
      "v": 127
    },
    {
      "midi": 74,
      "hit": false,
      "t": 198446.66666666666,
      "d": 553.333333333343,
      "v": 127
    },
    {
      "midi": 66,
      "hit": false,
      "t": 198446.66666666666,
      "d": 600,
      "v": 127
    },
    {
      "midi": 66,
      "hit": false,
      "t": 198619.99999999913,
      "d": 126.66666666668607,
      "v": 60
    },
    {
      "midi": 69,
      "hit": false,
      "t": 198633.33333333247,
      "d": 86.66666666665697,
      "v": 48
    },
    {
      "midi": 62,
      "hit": false,
      "t": 198633.33333333247,
      "d": 100,
      "v": 52
    },
    {
      "midi": 62,
      "hit": false,
      "t": 198873.33333333247,
      "d": 133.33333333334303,
      "v": 56
    },
    {
      "midi": 66,
      "hit": false,
      "t": 198873.33333333247,
      "d": 153.33333333334303,
      "v": 60
    },
    {
      "midi": 69,
      "hit": false,
      "t": 198886.6666666658,
      "d": 93.33333333334303,
      "v": 50
    },
    {
      "midi": 57,
      "hit": false,
      "t": 198886.6666666665,
      "d": 2733.333333333343,
      "v": 115
    },
    {
      "midi": 66,
      "hit": false,
      "t": 198886.6666666665,
      "d": 2793.333333333343,
      "v": 121
    },
    {
      "midi": 50,
      "hit": false,
      "t": 199133.33333333247,
      "d": 86.66666666668607,
      "v": 62
    },
    {
      "midi": 66,
      "hit": false,
      "t": 199146.6666666658,
      "d": 140,
      "v": 60
    },
    {
      "midi": 62,
      "hit": false,
      "t": 199153.33333333247,
      "d": 126.66666666668607,
      "v": 58
    },
    {
      "midi": 69,
      "hit": false,
      "t": 199166.6666666658,
      "d": 100,
      "v": 52
    },
    {
      "midi": 69,
      "hit": false,
      "t": 199180,
      "d": 100,
      "v": 127
    },
    {
      "midi": 74,
      "hit": false,
      "t": 199180,
      "d": 106.66666666665697,
      "v": 127
    },
    {
      "midi": 66,
      "hit": false,
      "t": 199180,
      "d": 120,
      "v": 127
    },
    {
      "midi": 62,
      "hit": false,
      "t": 199419.99999999916,
      "d": 106.66666666665697,
      "v": 50
    },
    {
      "midi": 66,
      "hit": false,
      "t": 199419.99999999916,
      "d": 106.66666666665697,
      "v": 52
    },
    {
      "midi": 42,
      "hit": false,
      "t": 199666.6666666658,
      "d": 260,
      "v": 62
    },
    {
      "midi": 62,
      "hit": false,
      "t": 199679.99999999916,
      "d": 153.33333333334303,
      "v": 56
    },
    {
      "midi": 66,
      "hit": false,
      "t": 199679.99999999916,
      "d": 160,
      "v": 58
    },
    {
      "midi": 69,
      "hit": false,
      "t": 199699.99999999916,
      "d": 133.33333333334303,
      "v": 50
    },
    {
      "midi": 66,
      "hit": false,
      "t": 199753.33333333334,
      "d": 100,
      "v": 127
    },
    {
      "midi": 66,
      "hit": false,
      "t": 199953.33333333247,
      "d": 159.9999999999709,
      "v": 58
    },
    {
      "midi": 62,
      "hit": false,
      "t": 199966.6666666658,
      "d": 133.33333333331393,
      "v": 56
    },
    {
      "midi": 69,
      "hit": false,
      "t": 199966.6666666658,
      "d": 139.9999999999709,
      "v": 52
    },
    {
      "midi": 45,
      "hit": false,
      "t": 199973.33333333247,
      "d": 739.9999999999709,
      "v": 62
    },
    {
      "midi": 74,
      "hit": false,
      "t": 200006.6666666667,
      "d": 700,
      "v": 127
    },
    {
      "midi": 66,
      "hit": false,
      "t": 200006.6666666667,
      "d": 720,
      "v": 127
    },
    {
      "midi": 69,
      "hit": false,
      "t": 200006.6666666667,
      "d": 720,
      "v": 127
    },
    {
      "midi": 62,
      "hit": false,
      "t": 200233.33333333244,
      "d": 120,
      "v": 52
    },
    {
      "midi": 66,
      "hit": false,
      "t": 200233.33333333244,
      "d": 133.33333333334303,
      "v": 56
    },
    {
      "midi": 69,
      "hit": false,
      "t": 200246.66666666578,
      "d": 86.66666666665697,
      "v": 46
    },
    {
      "midi": 62,
      "hit": false,
      "t": 200486.66666666578,
      "d": 140,
      "v": 52
    },
    {
      "midi": 66,
      "hit": false,
      "t": 200486.66666666578,
      "d": 153.33333333331393,
      "v": 58
    },
    {
      "midi": 69,
      "hit": false,
      "t": 200506.66666666578,
      "d": 126.66666666665697,
      "v": 50
    },
    {
      "midi": 66,
      "hit": false,
      "t": 200766.66666666578,
      "d": 153.33333333331393,
      "v": 60
    },
    {
      "midi": 62,
      "hit": false,
      "t": 200773.33333333244,
      "d": 126.66666666665697,
      "v": 58
    },
    {
      "midi": 69,
      "hit": false,
      "t": 200779.9999999991,
      "d": 106.66666666665697,
      "v": 52
    },
    {
      "midi": 42,
      "hit": false,
      "t": 200786.66666666575,
      "d": 233.33333333334303,
      "v": 62
    },
    {
      "midi": 66,
      "hit": false,
      "t": 200813.33333333334,
      "d": 120,
      "v": 127
    },
    {
      "midi": 69,
      "hit": false,
      "t": 200813.33333333334,
      "d": 120,
      "v": 127
    },
    {
      "midi": 74,
      "hit": false,
      "t": 200813.33333333334,
      "d": 120,
      "v": 127
    },
    {
      "midi": 62,
      "hit": false,
      "t": 201066.66666666575,
      "d": 73.33333333334303,
      "v": 46
    },
    {
      "midi": 66,
      "hit": false,
      "t": 201066.66666666575,
      "d": 73.33333333334303,
      "v": 50
    },
    {
      "midi": 62,
      "hit": false,
      "t": 201299.9999999991,
      "d": 133.33333333334303,
      "v": 56
    },
    {
      "midi": 66,
      "hit": false,
      "t": 201299.9999999991,
      "d": 133.33333333334303,
      "v": 56
    },
    {
      "midi": 45,
      "hit": false,
      "t": 201299.9999999991,
      "d": 226.66666666668607,
      "v": 62
    },
    {
      "midi": 69,
      "hit": false,
      "t": 201333.33333333244,
      "d": 66.66666666665697,
      "v": 50
    },
    {
      "midi": 66,
      "hit": false,
      "t": 201346.6666666667,
      "d": 93.33333333334303,
      "v": 127
    },
    {
      "midi": 66,
      "hit": false,
      "t": 201566.66666666578,
      "d": 166.66666666662786,
      "v": 60
    },
    {
      "midi": 62,
      "hit": false,
      "t": 201573.33333333244,
      "d": 139.9999999999709,
      "v": 56
    },
    {
      "midi": 69,
      "hit": false,
      "t": 201579.9999999991,
      "d": 139.9999999999709,
      "v": 54
    },
    {
      "midi": 38,
      "hit": false,
      "t": 201606.66666666575,
      "d": 1273.3333333332848,
      "v": 62
    },
    {
      "midi": 66,
      "hit": false,
      "t": 201613.33333333337,
      "d": 760,
      "v": 127
    },
    {
      "midi": 69,
      "hit": false,
      "t": 201613.33333333337,
      "d": 773.333333333343,
      "v": 127
    },
    {
      "midi": 74,
      "hit": false,
      "t": 201633.33333333337,
      "d": 706.666666666657,
      "v": 127
    },
    {
      "midi": 62,
      "hit": false,
      "t": 201853.3333333324,
      "d": 106.66666666668607,
      "v": 54
    },
    {
      "midi": 66,
      "hit": false,
      "t": 201853.3333333324,
      "d": 120,
      "v": 60
    },
    {
      "midi": 69,
      "hit": false,
      "t": 201866.66666666575,
      "d": 100,
      "v": 46
    },
    {
      "midi": 62,
      "hit": false,
      "t": 202106.66666666575,
      "d": 126.66666666665697,
      "v": 54
    },
    {
      "midi": 66,
      "hit": false,
      "t": 202106.66666666575,
      "d": 140,
      "v": 58
    },
    {
      "midi": 69,
      "hit": false,
      "t": 202113.3333333324,
      "d": 120,
      "v": 52
    },
    {
      "midi": 62,
      "hit": false,
      "t": 202373.3333333324,
      "d": 133.33333333334303,
      "v": 58
    },
    {
      "midi": 69,
      "hit": false,
      "t": 202373.3333333324,
      "d": 133.33333333334303,
      "v": 56
    },
    {
      "midi": 66,
      "hit": false,
      "t": 202373.3333333324,
      "d": 153.33333333334303,
      "v": 62
    },
    {
      "midi": 50,
      "hit": false,
      "t": 202399.99999999907,
      "d": 93.33333333334303,
      "v": 62
    },
    {
      "midi": 69,
      "hit": false,
      "t": 202406.6666666665,
      "d": 626.666666666657,
      "v": 121
    },
    {
      "midi": 66,
      "hit": false,
      "t": 202406.6666666665,
      "d": 660,
      "v": 121
    },
    {
      "midi": 66,
      "hit": false,
      "t": 202466.66666666672,
      "d": 106.66666666665697,
      "v": 127
    },
    {
      "midi": 69,
      "hit": false,
      "t": 202466.66666666672,
      "d": 120,
      "v": 127
    },
    {
      "midi": 74,
      "hit": false,
      "t": 202466.66666666672,
      "d": 120,
      "v": 127
    },
    {
      "midi": 62,
      "hit": false,
      "t": 202633.3333333324,
      "d": 133.33333333331393,
      "v": 58
    },
    {
      "midi": 66,
      "hit": false,
      "t": 202633.3333333324,
      "d": 139.9999999999709,
      "v": 62
    },
    {
      "midi": 69,
      "hit": false,
      "t": 202653.3333333324,
      "d": 106.66666666665697,
      "v": 54
    },
    {
      "midi": 62,
      "hit": false,
      "t": 202899.99999999904,
      "d": 126.66666666665697,
      "v": 58
    },
    {
      "midi": 66,
      "hit": false,
      "t": 202899.99999999904,
      "d": 133.33333333331393,
      "v": 62
    },
    {
      "midi": 69,
      "hit": false,
      "t": 202906.6666666657,
      "d": 120,
      "v": 56
    },
    {
      "midi": 42,
      "hit": false,
      "t": 202966.6666666657,
      "d": 200,
      "v": 62
    },
    {
      "midi": 66,
      "hit": false,
      "t": 202986.66666666672,
      "d": 93.33333333334303,
      "v": 127
    },
    {
      "midi": 62,
      "hit": false,
      "t": 203173.33333333235,
      "d": 133.33333333334303,
      "v": 62
    },
    {
      "midi": 66,
      "hit": false,
      "t": 203173.33333333235,
      "d": 160,
      "v": 62
    },
    {
      "midi": 69,
      "hit": false,
      "t": 203186.6666666657,
      "d": 120,
      "v": 60
    },
    {
      "midi": 62,
      "hit": false,
      "t": 203219.99999999985,
      "d": 440,
      "v": 121
    },
    {
      "midi": 69,
      "hit": false,
      "t": 203233.3333333332,
      "d": 520,
      "v": 121
    },
    {
      "midi": 45,
      "hit": false,
      "t": 203253.33333333235,
      "d": 633.3333333333139,
      "v": 62
    },
    {
      "midi": 74,
      "hit": false,
      "t": 203266.66666666672,
      "d": 740,
      "v": 127
    },
    {
      "midi": 66,
      "hit": false,
      "t": 203266.66666666672,
      "d": 766.666666666657,
      "v": 127
    },
    {
      "midi": 69,
      "hit": false,
      "t": 203266.66666666672,
      "d": 766.666666666657,
      "v": 127
    },
    {
      "midi": 66,
      "hit": false,
      "t": 203446.6666666657,
      "d": 120,
      "v": 58
    },
    {
      "midi": 69,
      "hit": false,
      "t": 203453.33333333235,
      "d": 93.33333333334303,
      "v": 54
    },
    {
      "midi": 62,
      "hit": false,
      "t": 203453.33333333235,
      "d": 106.66666666668607,
      "v": 58
    },
    {
      "midi": 62,
      "hit": false,
      "t": 203713.33333333235,
      "d": 126.66666666665697,
      "v": 60
    },
    {
      "midi": 66,
      "hit": false,
      "t": 203713.33333333235,
      "d": 133.33333333331393,
      "v": 62
    },
    {
      "midi": 69,
      "hit": false,
      "t": 203733.33333333235,
      "d": 100,
      "v": 54
    },
    {
      "midi": 57,
      "hit": false,
      "t": 203773.3333333332,
      "d": 360,
      "v": 121
    },
    {
      "midi": 42,
      "hit": false,
      "t": 203966.66666666567,
      "d": 433.33333333334303,
      "v": 62
    },
    {
      "midi": 62,
      "hit": false,
      "t": 203979.999999999,
      "d": 126.66666666665697,
      "v": 62
    },
    {
      "midi": 66,
      "hit": false,
      "t": 203979.999999999,
      "d": 133.33333333331393,
      "v": 62
    },
    {
      "midi": 69,
      "hit": false,
      "t": 203986.66666666567,
      "d": 106.66666666665697,
      "v": 58
    },
    {
      "midi": 66,
      "hit": false,
      "t": 204106.66666666672,
      "d": 126.66666666665697,
      "v": 127
    },
    {
      "midi": 74,
      "hit": false,
      "t": 204106.66666666672,
      "d": 126.66666666665697,
      "v": 127
    },
    {
      "midi": 69,
      "hit": false,
      "t": 204106.66666666672,
      "d": 133.33333333331393,
      "v": 127
    },
    {
      "midi": 66,
      "hit": false,
      "t": 204233.3333333332,
      "d": 473.33333333331393,
      "v": 121
    },
    {
      "midi": 62,
      "hit": false,
      "t": 204239.99999999898,
      "d": 100.0000000000291,
      "v": 58
    },
    {
      "midi": 66,
      "hit": false,
      "t": 204239.99999999898,
      "d": 120.0000000000291,
      "v": 58
    },
    {
      "midi": 60,
      "hit": false,
      "t": 204239.99999999985,
      "d": 373.33333333331393,
      "v": 121
    },
    {
      "midi": 69,
      "hit": false,
      "t": 204253.33333333232,
      "d": 73.33333333334303,
      "v": 50
    },
    {
      "midi": 66,
      "hit": false,
      "t": 204486.66666666567,
      "d": 160,
      "v": 62
    },
    {
      "midi": 45,
      "hit": false,
      "t": 204486.66666666567,
      "d": 220,
      "v": 62
    },
    {
      "midi": 62,
      "hit": false,
      "t": 204499.999999999,
      "d": 120,
      "v": 60
    },
    {
      "midi": 69,
      "hit": false,
      "t": 204499.999999999,
      "d": 120,
      "v": 54
    },
    {
      "midi": 64,
      "hit": false,
      "t": 204506.6666666667,
      "d": 960,
      "v": 127
    },
    {
      "midi": 61,
      "hit": false,
      "t": 204766.66666666567,
      "d": 133.33333333334303,
      "v": 62
    },
    {
      "midi": 64,
      "hit": false,
      "t": 204766.66666666567,
      "d": 153.33333333334303,
      "v": 58
    },
    {
      "midi": 69,
      "hit": false,
      "t": 204766.66666666567,
      "d": 160,
      "v": 52
    },
    {
      "midi": 33,
      "hit": false,
      "t": 204766.66666666567,
      "d": 1126.6666666666279,
      "v": 62
    },
    {
      "midi": 64,
      "hit": false,
      "t": 204786.6666666665,
      "d": 3526.666666666657,
      "v": 109
    },
    {
      "midi": 57,
      "hit": false,
      "t": 204786.6666666665,
      "d": 5340.000000000029,
      "v": 71
    },
    {
      "midi": 61,
      "hit": false,
      "t": 204799.99999999985,
      "d": 3706.666666666657,
      "v": 121
    },
    {
      "midi": 69,
      "hit": false,
      "t": 204800.00000000003,
      "d": 673.3333333333139,
      "v": 127
    },
    {
      "midi": 76,
      "hit": false,
      "t": 204806.6666666667,
      "d": 626.666666666657,
      "v": 127
    },
    {
      "midi": 73,
      "hit": false,
      "t": 204806.6666666667,
      "d": 660,
      "v": 127
    },
    {
      "midi": 61,
      "hit": false,
      "t": 205039.999999999,
      "d": 126.66666666665697,
      "v": 58
    },
    {
      "midi": 64,
      "hit": false,
      "t": 205039.999999999,
      "d": 133.33333333331393,
      "v": 52
    },
    {
      "midi": 69,
      "hit": false,
      "t": 205066.66666666567,
      "d": 93.33333333334303,
      "v": 42
    },
    {
      "midi": 61,
      "hit": false,
      "t": 205306.66666666567,
      "d": 126.66666666665697,
      "v": 60
    },
    {
      "midi": 64,
      "hit": false,
      "t": 205306.66666666567,
      "d": 126.66666666665697,
      "v": 54
    },
    {
      "midi": 69,
      "hit": false,
      "t": 205333.33333333232,
      "d": 100,
      "v": 44
    },
    {
      "midi": 61,
      "hit": false,
      "t": 205573.33333333232,
      "d": 126.66666666665697,
      "v": 60
    },
    {
      "midi": 64,
      "hit": false,
      "t": 205573.33333333232,
      "d": 133.33333333331393,
      "v": 56
    },
    {
      "midi": 45,
      "hit": false,
      "t": 205586.66666666567,
      "d": 66.66666666665697,
      "v": 62
    },
    {
      "midi": 69,
      "hit": false,
      "t": 205586.66666666567,
      "d": 106.66666666665697,
      "v": 48
    },
    {
      "midi": 69,
      "hit": false,
      "t": 205586.6666666667,
      "d": 93.33333333334303,
      "v": 127
    },
    {
      "midi": 73,
      "hit": false,
      "t": 205586.6666666667,
      "d": 100,
      "v": 127
    },
    {
      "midi": 76,
      "hit": false,
      "t": 205586.6666666667,
      "d": 106.66666666665697,
      "v": 127
    },
    {
      "midi": 64,
      "hit": false,
      "t": 205606.6666666667,
      "d": 73.33333333334303,
      "v": 127
    },
    {
      "midi": 61,
      "hit": false,
      "t": 205839.99999999898,
      "d": 106.66666666662786,
      "v": 56
    },
    {
      "midi": 64,
      "hit": false,
      "t": 205839.99999999898,
      "d": 119.9999999999709,
      "v": 52
    },
    {
      "midi": 69,
      "hit": false,
      "t": 205866.66666666564,
      "d": 73.33333333331393,
      "v": 40
    },
    {
      "midi": 37,
      "hit": false,
      "t": 206086.6666666656,
      "d": 220,
      "v": 62
    },
    {
      "midi": 61,
      "hit": false,
      "t": 206106.6666666656,
      "d": 140,
      "v": 62
    },
    {
      "midi": 64,
      "hit": false,
      "t": 206106.6666666656,
      "d": 153.33333333334303,
      "v": 56
    },
    {
      "midi": 64,
      "hit": false,
      "t": 206113.33333333334,
      "d": 953.333333333343,
      "v": 127
    },
    {
      "midi": 69,
      "hit": false,
      "t": 206119.99999999895,
      "d": 126.66666666665697,
      "v": 50
    },
    {
      "midi": 61,
      "hit": false,
      "t": 206386.6666666656,
      "d": 133.33333333334303,
      "v": 60
    },
    {
      "midi": 69,
      "hit": false,
      "t": 206386.6666666656,
      "d": 160,
      "v": 50
    },
    {
      "midi": 64,
      "hit": false,
      "t": 206386.6666666656,
      "d": 166.66666666665697,
      "v": 56
    },
    {
      "midi": 40,
      "hit": false,
      "t": 206399.99999999895,
      "d": 693.3333333333139,
      "v": 62
    },
    {
      "midi": 69,
      "hit": false,
      "t": 206400,
      "d": 700.0000000000291,
      "v": 127
    },
    {
      "midi": 76,
      "hit": false,
      "t": 206413.33333333334,
      "d": 633.333333333343,
      "v": 127
    },
    {
      "midi": 73,
      "hit": false,
      "t": 206413.33333333334,
      "d": 686.6666666666861,
      "v": 127
    },
    {
      "midi": 69,
      "hit": false,
      "t": 206646.6666666656,
      "d": 120,
      "v": 46
    },
    {
      "midi": 64,
      "hit": false,
      "t": 206646.6666666656,
      "d": 140,
      "v": 56
    },
    {
      "midi": 61,
      "hit": false,
      "t": 206653.33333333227,
      "d": 126.66666666668607,
      "v": 60
    },
    {
      "midi": 61,
      "hit": false,
      "t": 206913.33333333227,
      "d": 133.33333333334303,
      "v": 58
    },
    {
      "midi": 64,
      "hit": false,
      "t": 206913.33333333227,
      "d": 153.33333333334303,
      "v": 54
    },
    {
      "midi": 69,
      "hit": false,
      "t": 206933.33333333227,
      "d": 133.33333333334303,
      "v": 46
    },
    {
      "midi": 69,
      "hit": false,
      "t": 207186.6666666656,
      "d": 120,
      "v": 54
    },
    {
      "midi": 37,
      "hit": false,
      "t": 207186.6666666656,
      "d": 206.66666666665697,
      "v": 62
    },
    {
      "midi": 76,
      "hit": false,
      "t": 207186.6666666667,
      "d": 106.66666666665697,
      "v": 127
    },
    {
      "midi": 61,
      "hit": false,
      "t": 207199.99999999895,
      "d": 126.66666666665697,
      "v": 60
    },
    {
      "midi": 64,
      "hit": false,
      "t": 207199.99999999895,
      "d": 126.66666666665697,
      "v": 56
    },
    {
      "midi": 64,
      "hit": false,
      "t": 207213.33333333334,
      "d": 66.66666666665697,
      "v": 127
    },
    {
      "midi": 69,
      "hit": false,
      "t": 207213.33333333334,
      "d": 93.33333333334303,
      "v": 127
    },
    {
      "midi": 73,
      "hit": false,
      "t": 207213.33333333334,
      "d": 93.33333333334303,
      "v": 127
    },
    {
      "midi": 64,
      "hit": false,
      "t": 207466.6666666656,
      "d": 106.66666666665697,
      "v": 48
    },
    {
      "midi": 61,
      "hit": false,
      "t": 207466.6666666656,
      "d": 120,
      "v": 54
    },
    {
      "midi": 40,
      "hit": false,
      "t": 207706.6666666656,
      "d": 153.33333333331393,
      "v": 62
    },
    {
      "midi": 64,
      "hit": false,
      "t": 207720.00000000003,
      "d": 1173.333333333343,
      "v": 127
    },
    {
      "midi": 64,
      "hit": false,
      "t": 207739.99999999895,
      "d": 139.9999999999709,
      "v": 52
    },
    {
      "midi": 61,
      "hit": false,
      "t": 207746.6666666656,
      "d": 126.66666666665697,
      "v": 54
    },
    {
      "midi": 69,
      "hit": false,
      "t": 207766.6666666656,
      "d": 66.66666666665697,
      "v": 42
    },
    {
      "midi": 76,
      "hit": false,
      "t": 208000.00000000003,
      "d": 693.333333333343,
      "v": 127
    },
    {
      "midi": 69,
      "hit": false,
      "t": 208000.00000000003,
      "d": 700,
      "v": 127
    },
    {
      "midi": 73,
      "hit": false,
      "t": 208000.00000000003,
      "d": 706.666666666657,
      "v": 127
    },
    {
      "midi": 61,
      "hit": false,
      "t": 208006.66666666558,
      "d": 133.33333333331393,
      "v": 58
    },
    {
      "midi": 33,
      "hit": false,
      "t": 208006.66666666558,
      "d": 1273.3333333332848,
      "v": 62
    },
    {
      "midi": 64,
      "hit": false,
      "t": 208013.33333333224,
      "d": 133.33333333331393,
      "v": 56
    },
    {
      "midi": 69,
      "hit": false,
      "t": 208019.9999999989,
      "d": 140,
      "v": 48
    },
    {
      "midi": 61,
      "hit": false,
      "t": 208273.33333333224,
      "d": 126.66666666665697,
      "v": 58
    },
    {
      "midi": 64,
      "hit": false,
      "t": 208273.33333333224,
      "d": 160,
      "v": 56
    },
    {
      "midi": 69,
      "hit": false,
      "t": 208273.33333333224,
      "d": 160,
      "v": 46
    },
    {
      "midi": 61,
      "hit": false,
      "t": 208533.33333333224,
      "d": 133.33333333334303,
      "v": 60
    },
    {
      "midi": 64,
      "hit": false,
      "t": 208533.33333333224,
      "d": 140,
      "v": 54
    },
    {
      "midi": 69,
      "hit": false,
      "t": 208546.66666666558,
      "d": 100,
      "v": 46
    },
    {
      "midi": 64,
      "hit": false,
      "t": 208799.9999999989,
      "d": 160,
      "v": 58
    },
    {
      "midi": 66,
      "hit": false,
      "t": 208799.99999999985,
      "d": 440,
      "v": 121
    },
    {
      "midi": 76,
      "hit": false,
      "t": 208800.00000000003,
      "d": 126.66666666668607,
      "v": 127
    },
    {
      "midi": 61,
      "hit": false,
      "t": 208806.66666666555,
      "d": 126.66666666668607,
      "v": 62
    },
    {
      "midi": 69,
      "hit": false,
      "t": 208806.6666666665,
      "d": 373.33333333334303,
      "v": 121
    },
    {
      "midi": 45,
      "hit": false,
      "t": 208819.9999999989,
      "d": 93.33333333334303,
      "v": 62
    },
    {
      "midi": 69,
      "hit": false,
      "t": 208819.9999999989,
      "d": 106.66666666668607,
      "v": 48
    },
    {
      "midi": 73,
      "hit": false,
      "t": 208833.33333333337,
      "d": 73.33333333334303,
      "v": 127
    },
    {
      "midi": 69,
      "hit": false,
      "t": 208833.33333333337,
      "d": 93.33333333334303,
      "v": 127
    },
    {
      "midi": 64,
      "hit": false,
      "t": 209066.66666666555,
      "d": 139.9999999999709,
      "v": 54
    },
    {
      "midi": 69,
      "hit": false,
      "t": 209073.3333333322,
      "d": 106.66666666665697,
      "v": 44
    },
    {
      "midi": 61,
      "hit": false,
      "t": 209073.3333333322,
      "d": 126.66666666665697,
      "v": 60
    },
    {
      "midi": 37,
      "hit": false,
      "t": 209319.99999999886,
      "d": 206.66666666665697,
      "v": 62
    },
    {
      "midi": 64,
      "hit": false,
      "t": 209320.00000000006,
      "d": 1139.999999999971,
      "v": 127
    },
    {
      "midi": 64,
      "hit": false,
      "t": 209333.3333333322,
      "d": 153.33333333331393,
      "v": 54
    },
    {
      "midi": 69,
      "hit": false,
      "t": 209333.3333333332,
      "d": 140,
      "v": 89
    },
    {
      "midi": 61,
      "hit": false,
      "t": 209339.99999999886,
      "d": 120,
      "v": 60
    },
    {
      "midi": 69,
      "hit": false,
      "t": 209346.66666666552,
      "d": 100,
      "v": 44
    },
    {
      "midi": 64,
      "hit": false,
      "t": 209366.66666666654,
      "d": 166.66666666665697,
      "v": 113
    },
    {
      "midi": 64,
      "hit": false,
      "t": 209599.99999999886,
      "d": 166.66666666662786,
      "v": 56
    },
    {
      "midi": 76,
      "hit": false,
      "t": 209600.00000000006,
      "d": 686.666666666657,
      "v": 127
    },
    {
      "midi": 73,
      "hit": false,
      "t": 209600.00000000006,
      "d": 726.666666666657,
      "v": 127
    },
    {
      "midi": 61,
      "hit": false,
      "t": 209606.66666666552,
      "d": 133.33333333331393,
      "v": 62
    },
    {
      "midi": 69,
      "hit": false,
      "t": 209606.66666666552,
      "d": 133.33333333331393,
      "v": 48
    },
    {
      "midi": 69,
      "hit": false,
      "t": 209606.66666666672,
      "d": 700,
      "v": 127
    },
    {
      "midi": 40,
      "hit": false,
      "t": 209633.33333333218,
      "d": 693.3333333333139,
      "v": 62
    },
    {
      "midi": 69,
      "hit": false,
      "t": 209633.3333333332,
      "d": 353.33333333334303,
      "v": 121
    },
    {
      "midi": 66,
      "hit": false,
      "t": 209633.3333333332,
      "d": 400,
      "v": 121
    },
    {
      "midi": 64,
      "hit": false,
      "t": 209866.6666666655,
      "d": 160,
      "v": 54
    },
    {
      "midi": 69,
      "hit": false,
      "t": 209879.99999999884,
      "d": 106.66666666665697,
      "v": 46
    },
    {
      "midi": 61,
      "hit": false,
      "t": 209879.99999999884,
      "d": 120,
      "v": 60
    },
    {
      "midi": 69,
      "hit": false,
      "t": 210133.3333333332,
      "d": 186.66666666665697,
      "v": 120
    },
    {
      "midi": 64,
      "hit": false,
      "t": 210133.3333333332,
      "d": 906.666666666657,
      "v": 108
    },
    {
      "midi": 64,
      "hit": false,
      "t": 210146.6666666655,
      "d": 140,
      "v": 54
    },
    {
      "midi": 61,
      "hit": false,
      "t": 210153.33333333215,
      "d": 100,
      "v": 58
    },
    {
      "midi": 69,
      "hit": false,
      "t": 210166.6666666655,
      "d": 100,
      "v": 44
    },
    {
      "midi": 76,
      "hit": false,
      "t": 210373.33333333337,
      "d": 126.66666666665697,
      "v": 127
    },
    {
      "midi": 37,
      "hit": false,
      "t": 210379.99999999884,
      "d": 619.9999999999709,
      "v": 62
    },
    {
      "midi": 69,
      "hit": false,
      "t": 210399.99999999884,
      "d": 153.33333333331393,
      "v": 48
    },
    {
      "midi": 69,
      "hit": false,
      "t": 210400.00000000003,
      "d": 100,
      "v": 127
    },
    {
      "midi": 73,
      "hit": false,
      "t": 210400.00000000003,
      "d": 100,
      "v": 127
    },
    {
      "midi": 64,
      "hit": false,
      "t": 210406.6666666655,
      "d": 160,
      "v": 60
    },
    {
      "midi": 61,
      "hit": false,
      "t": 210419.99999999884,
      "d": 106.66666666665697,
      "v": 62
    },
    {
      "midi": 69,
      "hit": false,
      "t": 210419.99999999985,
      "d": 473.33333333334303,
      "v": 100
    },
    {
      "midi": 61,
      "hit": false,
      "t": 210433.3333333332,
      "d": 460,
      "v": 121
    },
    {
      "midi": 61,
      "hit": false,
      "t": 210673.33333333215,
      "d": 126.66666666665697,
      "v": 62
    },
    {
      "midi": 69,
      "hit": false,
      "t": 210673.33333333215,
      "d": 133.33333333331393,
      "v": 52
    },
    {
      "midi": 64,
      "hit": false,
      "t": 210673.33333333215,
      "d": 153.33333333331393,
      "v": 54
    },
    {
      "midi": 69,
      "hit": false,
      "t": 210919.9999999988,
      "d": 126.66666666665697,
      "v": 58
    },
    {
      "midi": 64,
      "hit": false,
      "t": 210919.9999999988,
      "d": 153.33333333331393,
      "v": 56
    },
    {
      "midi": 40,
      "hit": false,
      "t": 210933.33333333215,
      "d": 133.33333333331393,
      "v": 62
    },
    {
      "midi": 61,
      "hit": false,
      "t": 210933.33333333215,
      "d": 133.33333333331393,
      "v": 62
    },
    {
      "midi": 57,
      "hit": false,
      "t": 210933.3333333332,
      "d": 166.66666666665697,
      "v": 108
    },
    {
      "midi": 64,
      "hit": false,
      "t": 210933.33333333337,
      "d": 206.66666666665697,
      "v": 127
    },
    {
      "midi": 76,
      "hit": false,
      "t": 211200.00000000003,
      "d": 666.666666666657,
      "v": 127
    },
    {
      "midi": 68,
      "hit": false,
      "t": 211200.00000000003,
      "d": 686.666666666657,
      "v": 127
    },
    {
      "midi": 71,
      "hit": false,
      "t": 211200.00000000003,
      "d": 720,
      "v": 127
    },
    {
      "midi": 64,
      "hit": false,
      "t": 211206.66666666546,
      "d": 159.9999999999709,
      "v": 56
    },
    {
      "midi": 62,
      "hit": false,
      "t": 211233.33333333212,
      "d": 126.66666666665697,
      "v": 60
    },
    {
      "midi": 68,
      "hit": false,
      "t": 211233.33333333212,
      "d": 126.66666666665697,
      "v": 60
    },
    {
      "midi": 40,
      "hit": false,
      "t": 211233.33333333212,
      "d": 1166.6666666665988,
      "v": 62
    },
    {
      "midi": 59,
      "hit": false,
      "t": 211233.3333333332,
      "d": 3400,
      "v": 116
    },
    {
      "midi": 64,
      "hit": false,
      "t": 211233.3333333332,
      "d": 3466.666666666657,
      "v": 105
    },
    {
      "midi": 62,
      "hit": false,
      "t": 211486.66666666543,
      "d": 120,
      "v": 58
    },
    {
      "midi": 68,
      "hit": false,
      "t": 211486.66666666543,
      "d": 120,
      "v": 58
    },
    {
      "midi": 64,
      "hit": false,
      "t": 211486.66666666543,
      "d": 133.33333333334303,
      "v": 56
    },
    {
      "midi": 62,
      "hit": false,
      "t": 211746.66666666543,
      "d": 120,
      "v": 60
    },
    {
      "midi": 68,
      "hit": false,
      "t": 211746.66666666543,
      "d": 120,
      "v": 56
    },
    {
      "midi": 64,
      "hit": false,
      "t": 211746.66666666543,
      "d": 140,
      "v": 56
    },
    {
      "midi": 68,
      "hit": false,
      "t": 212000.00000000003,
      "d": 100,
      "v": 127
    },
    {
      "midi": 71,
      "hit": false,
      "t": 212000.00000000003,
      "d": 100,
      "v": 127
    },
    {
      "midi": 76,
      "hit": false,
      "t": 212000.00000000003,
      "d": 106.66666666665697,
      "v": 127
    },
    {
      "midi": 52,
      "hit": false,
      "t": 212013.3333333321,
      "d": 86.66666666665697,
      "v": 62
    },
    {
      "midi": 68,
      "hit": false,
      "t": 212013.3333333321,
      "d": 153.33333333331393,
      "v": 58
    },
    {
      "midi": 64,
      "hit": false,
      "t": 212019.99999999875,
      "d": 140,
      "v": 56
    },
    {
      "midi": 62,
      "hit": false,
      "t": 212033.3333333321,
      "d": 100,
      "v": 58
    },
    {
      "midi": 64,
      "hit": false,
      "t": 212286.6666666654,
      "d": 86.66666666665697,
      "v": 54
    },
    {
      "midi": 68,
      "hit": false,
      "t": 212286.6666666654,
      "d": 93.33333333331393,
      "v": 56
    },
    {
      "midi": 62,
      "hit": false,
      "t": 212299.99999999875,
      "d": 66.66666666665697,
      "v": 52
    },
    {
      "midi": 62,
      "hit": false,
      "t": 212533.33333333206,
      "d": 106.66666666665697,
      "v": 58
    },
    {
      "midi": 68,
      "hit": false,
      "t": 212533.33333333206,
      "d": 120,
      "v": 60
    },
    {
      "midi": 64,
      "hit": false,
      "t": 212533.33333333206,
      "d": 126.66666666665697,
      "v": 58
    },
    {
      "midi": 64,
      "hit": false,
      "t": 212533.33333333334,
      "d": 100,
      "v": 127
    },
    {
      "midi": 44,
      "hit": false,
      "t": 212539.99999999872,
      "d": 186.66666666665697,
      "v": 62
    },
    {
      "midi": 76,
      "hit": false,
      "t": 212780,
      "d": 720,
      "v": 127
    },
    {
      "midi": 71,
      "hit": false,
      "t": 212780,
      "d": 766.6666666666861,
      "v": 127
    },
    {
      "midi": 62,
      "hit": false,
      "t": 212799.99999999872,
      "d": 133.33333333334303,
      "v": 58
    },
    {
      "midi": 68,
      "hit": false,
      "t": 212799.99999999872,
      "d": 140,
      "v": 58
    },
    {
      "midi": 64,
      "hit": false,
      "t": 212799.99999999872,
      "d": 153.33333333334303,
      "v": 58
    },
    {
      "midi": 47,
      "hit": false,
      "t": 212799.99999999872,
      "d": 686.666666666657,
      "v": 62
    },
    {
      "midi": 68,
      "hit": false,
      "t": 212800,
      "d": 733.333333333343,
      "v": 127
    },
    {
      "midi": 68,
      "hit": false,
      "t": 213066.6666666654,
      "d": 106.66666666665697,
      "v": 54
    },
    {
      "midi": 64,
      "hit": false,
      "t": 213066.6666666654,
      "d": 126.66666666665697,
      "v": 52
    },
    {
      "midi": 62,
      "hit": false,
      "t": 213073.33333333206,
      "d": 100,
      "v": 54
    },
    {
      "midi": 62,
      "hit": false,
      "t": 213333.33333333206,
      "d": 126.66666666665697,
      "v": 56
    },
    {
      "midi": 68,
      "hit": false,
      "t": 213333.33333333206,
      "d": 126.66666666665697,
      "v": 56
    },
    {
      "midi": 64,
      "hit": false,
      "t": 213333.33333333206,
      "d": 133.33333333331393,
      "v": 54
    },
    {
      "midi": 62,
      "hit": false,
      "t": 213599.99999999872,
      "d": 126.66666666665697,
      "v": 58
    },
    {
      "midi": 68,
      "hit": false,
      "t": 213599.99999999872,
      "d": 126.66666666665697,
      "v": 60
    },
    {
      "midi": 64,
      "hit": false,
      "t": 213599.99999999872,
      "d": 133.33333333331393,
      "v": 58
    },
    {
      "midi": 44,
      "hit": false,
      "t": 213599.99999999872,
      "d": 353.33333333334303,
      "v": 62
    },
    {
      "midi": 76,
      "hit": false,
      "t": 213620.00000000003,
      "d": 100,
      "v": 127
    },
    {
      "midi": 71,
      "hit": false,
      "t": 213620.00000000003,
      "d": 106.66666666665697,
      "v": 127
    },
    {
      "midi": 68,
      "hit": false,
      "t": 213633.33333333337,
      "d": 93.33333333331393,
      "v": 127
    },
    {
      "midi": 62,
      "hit": false,
      "t": 213866.66666666538,
      "d": 100.0000000000291,
      "v": 50
    },
    {
      "midi": 64,
      "hit": false,
      "t": 213866.66666666538,
      "d": 100.0000000000291,
      "v": 50
    },
    {
      "midi": 68,
      "hit": false,
      "t": 213879.99999999872,
      "d": 53.333333333343035,
      "v": 44
    },
    {
      "midi": 47,
      "hit": false,
      "t": 214099.99999999875,
      "d": 140,
      "v": 62
    },
    {
      "midi": 62,
      "hit": false,
      "t": 214113.3333333321,
      "d": 133.33333333331393,
      "v": 58
    },
    {
      "midi": 68,
      "hit": false,
      "t": 214113.3333333321,
      "d": 133.33333333331393,
      "v": 60
    },
    {
      "midi": 64,
      "hit": false,
      "t": 214133.3333333321,
      "d": 133.33333333331393,
      "v": 58
    },
    {
      "midi": 64,
      "hit": false,
      "t": 214166.6666666667,
      "d": 126.66666666665697,
      "v": 127
    },
    {
      "midi": 62,
      "hit": false,
      "t": 214386.6666666654,
      "d": 140,
      "v": 58
    },
    {
      "midi": 68,
      "hit": false,
      "t": 214386.6666666654,
      "d": 140,
      "v": 58
    },
    {
      "midi": 64,
      "hit": false,
      "t": 214386.6666666654,
      "d": 153.33333333334303,
      "v": 58
    },
    {
      "midi": 40,
      "hit": false,
      "t": 214386.6666666654,
      "d": 1293.333333333314,
      "v": 62
    },
    {
      "midi": 68,
      "hit": false,
      "t": 214433.33333333334,
      "d": 660,
      "v": 127
    },
    {
      "midi": 76,
      "hit": false,
      "t": 214453.33333333334,
      "d": 620,
      "v": 127
    },
    {
      "midi": 71,
      "hit": false,
      "t": 214453.33333333334,
      "d": 640,
      "v": 127
    },
    {
      "midi": 64,
      "hit": false,
      "t": 214646.6666666654,
      "d": 133.33333333331393,
      "v": 54
    },
    {
      "midi": 62,
      "hit": false,
      "t": 214653.33333333206,
      "d": 106.66666666665697,
      "v": 54
    },
    {
      "midi": 68,
      "hit": false,
      "t": 214653.33333333206,
      "d": 106.66666666665697,
      "v": 54
    },
    {
      "midi": 62,
      "hit": false,
      "t": 214899.99999999872,
      "d": 133.33333333334303,
      "v": 54
    },
    {
      "midi": 68,
      "hit": false,
      "t": 214899.99999999872,
      "d": 133.33333333334303,
      "v": 54
    },
    {
      "midi": 64,
      "hit": false,
      "t": 214899.99999999872,
      "d": 140,
      "v": 54
    },
    {
      "midi": 62,
      "hit": false,
      "t": 215173.33333333206,
      "d": 133.33333333331393,
      "v": 60
    },
    {
      "midi": 68,
      "hit": false,
      "t": 215173.33333333206,
      "d": 139.9999999999709,
      "v": 58
    },
    {
      "midi": 64,
      "hit": false,
      "t": 215173.33333333206,
      "d": 153.33333333331393,
      "v": 60
    },
    {
      "midi": 52,
      "hit": false,
      "t": 215199.99999999872,
      "d": 100,
      "v": 62
    },
    {
      "midi": 69,
      "hit": false,
      "t": 215199.99999999985,
      "d": 600,
      "v": 121
    },
    {
      "midi": 66,
      "hit": false,
      "t": 215199.99999999985,
      "d": 666.666666666657,
      "v": 121
    },
    {
      "midi": 68,
      "hit": false,
      "t": 215200,
      "d": 106.66666666665697,
      "v": 127
    },
    {
      "midi": 76,
      "hit": false,
      "t": 215200,
      "d": 126.66666666665697,
      "v": 127
    },
    {
      "midi": 71,
      "hit": false,
      "t": 215220,
      "d": 86.66666666665697,
      "v": 127
    },
    {
      "midi": 62,
      "hit": false,
      "t": 215439.99999999872,
      "d": 120,
      "v": 56
    },
    {
      "midi": 64,
      "hit": false,
      "t": 215439.99999999872,
      "d": 126.66666666665697,
      "v": 56
    },
    {
      "midi": 68,
      "hit": false,
      "t": 215439.99999999872,
      "d": 126.66666666665697,
      "v": 58
    },
    {
      "midi": 62,
      "hit": false,
      "t": 215699.99999999872,
      "d": 126.66666666665697,
      "v": 56
    },
    {
      "midi": 64,
      "hit": false,
      "t": 215699.99999999872,
      "d": 140,
      "v": 54
    },
    {
      "midi": 68,
      "hit": false,
      "t": 215699.99999999872,
      "d": 140,
      "v": 56
    },
    {
      "midi": 44,
      "hit": false,
      "t": 215719.99999999872,
      "d": 193.33333333334303,
      "v": 62
    },
    {
      "midi": 64,
      "hit": false,
      "t": 215733.3333333333,
      "d": 160,
      "v": 127
    },
    {
      "midi": 68,
      "hit": false,
      "t": 215953.33333333206,
      "d": 153.33333333334303,
      "v": 60
    },
    {
      "midi": 64,
      "hit": false,
      "t": 215953.33333333206,
      "d": 160,
      "v": 60
    },
    {
      "midi": 62,
      "hit": false,
      "t": 215966.6666666654,
      "d": 133.33333333334303,
      "v": 60
    },
    {
      "midi": 69,
      "hit": false,
      "t": 215973.33333333317,
      "d": 393.33333333334303,
      "v": 118
    },
    {
      "midi": 66,
      "hit": false,
      "t": 215973.33333333317,
      "d": 460,
      "v": 120
    },
    {
      "midi": 47,
      "hit": false,
      "t": 215979.99999999875,
      "d": 753.3333333333139,
      "v": 62
    },
    {
      "midi": 76,
      "hit": false,
      "t": 216006.66666666666,
      "d": 586.666666666657,
      "v": 127
    },
    {
      "midi": 74,
      "hit": false,
      "t": 216006.66666666666,
      "d": 606.666666666657,
      "v": 127
    },
    {
      "midi": 68,
      "hit": false,
      "t": 216006.66666666666,
      "d": 626.666666666657,
      "v": 127
    },
    {
      "midi": 71,
      "hit": false,
      "t": 216013.3333333333,
      "d": 620,
      "v": 127
    },
    {
      "midi": 62,
      "hit": false,
      "t": 216233.33333333206,
      "d": 126.66666666665697,
      "v": 54
    },
    {
      "midi": 64,
      "hit": false,
      "t": 216233.33333333206,
      "d": 126.66666666665697,
      "v": 54
    },
    {
      "midi": 68,
      "hit": false,
      "t": 216246.6666666654,
      "d": 86.66666666665697,
      "v": 54
    },
    {
      "midi": 62,
      "hit": false,
      "t": 216499.99999999872,
      "d": 120,
      "v": 58
    },
    {
      "midi": 64,
      "hit": false,
      "t": 216499.99999999872,
      "d": 133.33333333334303,
      "v": 56
    },
    {
      "midi": 68,
      "hit": false,
      "t": 216513.33333333206,
      "d": 100,
      "v": 54
    },
    {
      "midi": 69,
      "hit": false,
      "t": 216519.99999999983,
      "d": 160,
      "v": 115
    },
    {
      "midi": 64,
      "hit": false,
      "t": 216533.33333333317,
      "d": 200,
      "v": 113
    },
    {
      "midi": 76,
      "hit": false,
      "t": 216746.66666666666,
      "d": 93.33333333334303,
      "v": 127
    },
    {
      "midi": 68,
      "hit": false,
      "t": 216746.66666666666,
      "d": 153.33333333334303,
      "v": 127
    },
    {
      "midi": 62,
      "hit": false,
      "t": 216766.6666666654,
      "d": 133.33333333331393,
      "v": 58
    },
    {
      "midi": 64,
      "hit": false,
      "t": 216766.6666666654,
      "d": 139.9999999999709,
      "v": 56
    },
    {
      "midi": 74,
      "hit": false,
      "t": 216766.66666666666,
      "d": 73.33333333334303,
      "v": 127
    },
    {
      "midi": 71,
      "hit": false,
      "t": 216766.66666666666,
      "d": 100,
      "v": 127
    },
    {
      "midi": 68,
      "hit": false,
      "t": 216773.33333333206,
      "d": 133.33333333331393,
      "v": 56
    },
    {
      "midi": 44,
      "hit": false,
      "t": 216799.99999999872,
      "d": 459.9999999999418,
      "v": 62
    },
    {
      "midi": 62,
      "hit": false,
      "t": 217033.33333333203,
      "d": 119.9999999999709,
      "v": 58
    },
    {
      "midi": 64,
      "hit": false,
      "t": 217033.33333333203,
      "d": 139.9999999999709,
      "v": 56
    },
    {
      "midi": 68,
      "hit": false,
      "t": 217039.9999999987,
      "d": 106.66666666665697,
      "v": 56
    },
    {
      "midi": 64,
      "hit": false,
      "t": 217086.6666666665,
      "d": 173.33333333334303,
      "v": 108
    },
    {
      "midi": 59,
      "hit": false,
      "t": 217099.99999999985,
      "d": 100,
      "v": 110
    },
    {
      "midi": 61,
      "hit": false,
      "t": 217106.6666666665,
      "d": 160,
      "v": 121
    },
    {
      "midi": 62,
      "hit": false,
      "t": 217286.66666666532,
      "d": 126.66666666665697,
      "v": 56
    },
    {
      "midi": 64,
      "hit": false,
      "t": 217286.66666666532,
      "d": 153.33333333331393,
      "v": 54
    },
    {
      "midi": 68,
      "hit": false,
      "t": 217306.66666666532,
      "d": 133.33333333331393,
      "v": 56
    },
    {
      "midi": 45,
      "hit": false,
      "t": 217306.66666666532,
      "d": 226.66666666665697,
      "v": 62
    },
    {
      "midi": 61,
      "hit": false,
      "t": 217306.6666666665,
      "d": 53.333333333343035,
      "v": 74
    },
    {
      "midi": 59,
      "hit": false,
      "t": 217306.6666666665,
      "d": 160,
      "v": 110
    },
    {
      "midi": 64,
      "hit": false,
      "t": 217306.6666666665,
      "d": 160,
      "v": 76
    },
    {
      "midi": 64,
      "hit": false,
      "t": 217306.66666666666,
      "d": 1153.333333333343,
      "v": 127
    },
    {
      "midi": 61,
      "hit": false,
      "t": 217573.33333333198,
      "d": 153.33333333334303,
      "v": 60
    },
    {
      "midi": 64,
      "hit": false,
      "t": 217573.33333333198,
      "d": 153.33333333334303,
      "v": 52
    },
    {
      "midi": 69,
      "hit": false,
      "t": 217586.66666666532,
      "d": 140,
      "v": 52
    },
    {
      "midi": 33,
      "hit": false,
      "t": 217586.66666666532,
      "d": 1073.333333333314,
      "v": 62
    },
    {
      "midi": 64,
      "hit": false,
      "t": 217586.6666666665,
      "d": 3299.999999999971,
      "v": 120
    },
    {
      "midi": 57,
      "hit": false,
      "t": 217586.6666666665,
      "d": 3306.666666666628,
      "v": 110
    },
    {
      "midi": 76,
      "hit": false,
      "t": 217600,
      "d": 653.333333333343,
      "v": 127
    },
    {
      "midi": 69,
      "hit": false,
      "t": 217600,
      "d": 673.333333333343,
      "v": 127
    },
    {
      "midi": 73,
      "hit": false,
      "t": 217600,
      "d": 673.333333333343,
      "v": 127
    },
    {
      "midi": 61,
      "hit": false,
      "t": 217839.99999999866,
      "d": 126.66666666665697,
      "v": 54
    },
    {
      "midi": 64,
      "hit": false,
      "t": 217846.66666666532,
      "d": 120,
      "v": 56
    },
    {
      "midi": 69,
      "hit": false,
      "t": 217846.66666666532,
      "d": 133.33333333334303,
      "v": 42
    },
    {
      "midi": 69,
      "hit": false,
      "t": 218106.66666666532,
      "d": 133.33333333334303,
      "v": 48
    },
    {
      "midi": 61,
      "hit": false,
      "t": 218106.66666666532,
      "d": 140,
      "v": 58
    },
    {
      "midi": 64,
      "hit": false,
      "t": 218106.66666666532,
      "d": 153.33333333334303,
      "v": 56
    },
    {
      "midi": 76,
      "hit": false,
      "t": 218380,
      "d": 140,
      "v": 127
    },
    {
      "midi": 61,
      "hit": false,
      "t": 218386.66666666532,
      "d": 153.33333333331393,
      "v": 62
    },
    {
      "midi": 64,
      "hit": false,
      "t": 218386.66666666532,
      "d": 153.33333333331393,
      "v": 58
    },
    {
      "midi": 69,
      "hit": false,
      "t": 218400,
      "d": 120,
      "v": 127
    },
    {
      "midi": 73,
      "hit": false,
      "t": 218400,
      "d": 133.33333333334303,
      "v": 127
    },
    {
      "midi": 69,
      "hit": false,
      "t": 218406.66666666532,
      "d": 126.66666666665697,
      "v": 52
    },
    {
      "midi": 45,
      "hit": false,
      "t": 218406.66666666532,
      "d": 159.9999999999709,
      "v": 62
    },
    {
      "midi": 35,
      "hit": false,
      "t": 218646.6666666653,
      "d": 193.33333333334303,
      "v": 62
    },
    {
      "midi": 62,
      "hit": false,
      "t": 218666.6666666653,
      "d": 140,
      "v": 62
    },
    {
      "midi": 69,
      "hit": false,
      "t": 218666.6666666653,
      "d": 140,
      "v": 58
    },
    {
      "midi": 64,
      "hit": false,
      "t": 218700,
      "d": 93.33333333334303,
      "v": 127
    },
    {
      "midi": 61,
      "hit": false,
      "t": 218919.99999999863,
      "d": 140,
      "v": 62
    },
    {
      "midi": 37,
      "hit": false,
      "t": 218919.99999999863,
      "d": 153.33333333331393,
      "v": 62
    },
    {
      "midi": 64,
      "hit": false,
      "t": 218920,
      "d": 106.66666666665697,
      "v": 127
    },
    {
      "midi": 64,
      "hit": false,
      "t": 218939.99999999863,
      "d": 126.66666666665697,
      "v": 60
    },
    {
      "midi": 69,
      "hit": false,
      "t": 218939.99999999863,
      "d": 126.66666666665697,
      "v": 52
    },
    {
      "midi": 38,
      "hit": false,
      "t": 219199.9999999986,
      "d": 693.3333333333139,
      "v": 62
    },
    {
      "midi": 74,
      "hit": false,
      "t": 219213.3333333333,
      "d": 593.333333333343,
      "v": 127
    },
    {
      "midi": 62,
      "hit": false,
      "t": 219219.9999999986,
      "d": 133.33333333334303,
      "v": 62
    },
    {
      "midi": 69,
      "hit": false,
      "t": 219233.33333333195,
      "d": 126.66666666665697,
      "v": 62
    },
    {
      "midi": 66,
      "hit": false,
      "t": 219233.33333333195,
      "d": 133.33333333331393,
      "v": 62
    },
    {
      "midi": 69,
      "hit": false,
      "t": 219233.3333333333,
      "d": 653.333333333343,
      "v": 127
    },
    {
      "midi": 66,
      "hit": false,
      "t": 219233.3333333333,
      "d": 660,
      "v": 127
    },
    {
      "midi": 62,
      "hit": false,
      "t": 219466.66666666526,
      "d": 133.33333333334303,
      "v": 62
    },
    {
      "midi": 69,
      "hit": false,
      "t": 219466.66666666526,
      "d": 133.33333333334303,
      "v": 56
    },
    {
      "midi": 66,
      "hit": false,
      "t": 219466.66666666526,
      "d": 160,
      "v": 62
    },
    {
      "midi": 69,
      "hit": false,
      "t": 219733.33333333192,
      "d": 133.33333333334303,
      "v": 58
    },
    {
      "midi": 62,
      "hit": false,
      "t": 219733.33333333192,
      "d": 153.33333333334303,
      "v": 62
    },
    {
      "midi": 66,
      "hit": false,
      "t": 219733.33333333192,
      "d": 160,
      "v": 62
    },
    {
      "midi": 69,
      "hit": false,
      "t": 219999.99999999997,
      "d": 133.33333333331393,
      "v": 127
    },
    {
      "midi": 74,
      "hit": false,
      "t": 220006.66666666663,
      "d": 126.66666666665697,
      "v": 127
    },
    {
      "midi": 66,
      "hit": false,
      "t": 220006.66666666663,
      "d": 133.33333333331393,
      "v": 127
    },
    {
      "midi": 38,
      "hit": false,
      "t": 220013.33333333192,
      "d": 160,
      "v": 62
    },
    {
      "midi": 62,
      "hit": false,
      "t": 220019.99999999857,
      "d": 153.33333333334303,
      "v": 62
    },
    {
      "midi": 69,
      "hit": false,
      "t": 220019.99999999857,
      "d": 153.33333333334303,
      "v": 62
    },
    {
      "midi": 66,
      "hit": false,
      "t": 220019.99999999857,
      "d": 193.33333333334303,
      "v": 62
    },
    {
      "midi": 62,
      "hit": false,
      "t": 220266.6666666666,
      "d": 66.66666666665697,
      "v": 127
    },
    {
      "midi": 37,
      "hit": false,
      "t": 220299.99999999857,
      "d": 166.66666666665697,
      "v": 62
    },
    {
      "midi": 64,
      "hit": false,
      "t": 220306.66666666523,
      "d": 160,
      "v": 62
    },
    {
      "midi": 69,
      "hit": false,
      "t": 220306.66666666523,
      "d": 160,
      "v": 62
    },
    {
      "midi": 62,
      "hit": false,
      "t": 220499.9999999999,
      "d": 100,
      "v": 127
    },
    {
      "midi": 35,
      "hit": false,
      "t": 220573.3333333319,
      "d": 206.66666666662786,
      "v": 62
    },
    {
      "midi": 62,
      "hit": false,
      "t": 220579.99999999854,
      "d": 173.33333333331393,
      "v": 62
    },
    {
      "midi": 69,
      "hit": false,
      "t": 220586.6666666652,
      "d": 166.66666666665697,
      "v": 62
    },
    {
      "midi": 64,
      "hit": false,
      "t": 220613.33333333186,
      "d": 26.666666666656965,
      "v": 48
    },
    {
      "midi": 64,
      "hit": false,
      "t": 220773.33333333326,
      "d": 193.33333333331393,
      "v": 127
    },
    {
      "midi": 69,
      "hit": false,
      "t": 220799.9999999999,
      "d": 186.66666666665697,
      "v": 127
    },
    {
      "midi": 73,
      "hit": false,
      "t": 220799.9999999999,
      "d": 186.66666666665697,
      "v": 127
    },
    {
      "midi": 69,
      "hit": false,
      "t": 220899.99999999852,
      "d": 240,
      "v": 58
    },
    {
      "midi": 64,
      "hit": false,
      "t": 220899.99999999852,
      "d": 266.66666666665697,
      "v": 62
    },
    {
      "midi": 61,
      "hit": false,
      "t": 220899.99999999852,
      "d": 286.66666666665697,
      "v": 62
    },
    {
      "midi": 33,
      "hit": false,
      "t": 220906.66666666517,
      "d": 326.66666666665697,
      "v": 62
    },
    {
      "midi": 45,
      "hit": false,
      "t": 220919.99999999852,
      "d": 293.33333333331393,
      "v": 62
    },
    {
      "midi": 63,
      "hit": false,
      "t": 221639.9999999999,
      "d": 326.66666666665697,
      "v": 127
    },
    {
      "midi": 72,
      "hit": false,
      "t": 221666.66666666657,
      "d": 360,
      "v": 127
    },
    {
      "midi": 68,
      "hit": false,
      "t": 221666.66666666657,
      "d": 426.66666666665697,
      "v": 127
    },
    {
      "midi": 60,
      "hit": false,
      "t": 221746.66666666517,
      "d": 420,
      "v": 56
    },
    {
      "midi": 66,
      "hit": false,
      "t": 221746.66666666517,
      "d": 486.66666666668607,
      "v": 62
    },
    {
      "midi": 44,
      "hit": false,
      "t": 221766.66666666517,
      "d": 433.33333333334303,
      "v": 62
    },
    {
      "midi": 68,
      "hit": false,
      "t": 221766.66666666517,
      "d": 433.33333333334303,
      "v": 62
    },
    {
      "midi": 63,
      "hit": false,
      "t": 221766.66666666517,
      "d": 506.66666666668607,
      "v": 56
    },
    {
      "midi": 32,
      "hit": false,
      "t": 221773.33333333183,
      "d": 460.0000000000291,
      "v": 62
    },
    {
      "midi": 73,
      "hit": false,
      "t": 222139.99999999988,
      "d": 3893.333333333314,
      "v": 127
    },
    {
      "midi": 69,
      "hit": false,
      "t": 222166.66666666654,
      "d": 3866.666666666657,
      "v": 127
    },
    {
      "midi": 64,
      "hit": false,
      "t": 222166.66666666654,
      "d": 3873.333333333314,
      "v": 127
    },
    {
      "midi": 66,
      "hit": false,
      "t": 222286.6666666652,
      "d": 4220.000000000029,
      "v": 56
    },
    {
      "midi": 33,
      "hit": false,
      "t": 222299.99999999854,
      "d": 4266.666666666657,
      "v": 62
    },
    {
      "midi": 45,
      "hit": false,
      "t": 222306.6666666652,
      "d": 4160.000000000029,
      "v": 62
    },
    {
      "midi": 61,
      "hit": false,
      "t": 222319.99999999854,
      "d": 4193.333333333343,
      "v": 62
    },
    {
      "midi": 69,
      "hit": false,
      "t": 222333.3333333319,
      "d": 4153.333333333343,
      "v": 54
    },
    {
      "midi": 64,
      "hit": false,
      "t": 222333.3333333319,
      "d": 4186.666666666657,
      "v": 58
    }
  ]
}