{
  "jsonPath": "Rock/Pop Rock/All Saints/black-coffee-version-2.json",
  "path": "Rock\\Pop Rock\\All Saints\\Black Coffee (Version 2).mid",
  "name": "Black Coffee (Version 2)",
  "difficulty": "Advanced",
  "bpm": 120,
  "notes": [
    {
      "midi": 57,
      "hit": false,
      "t": 20750,
      "d": 247.91666666666788,
      "v": 1
    },
    {
      "midi": 64,
      "hit": false,
      "t": 20750,
      "d": 247.91666666666788,
      "v": 1
    },
    {
      "midi": 62,
      "hit": false,
      "t": 21000,
      "d": 997.9166666666679,
      "v": 1
    },
    {
      "midi": 69,
      "hit": false,
      "t": 21000,
      "d": 997.9166666666679,
      "v": 1
    },
    {
      "midi": 61,
      "hit": false,
      "t": 22000,
      "d": 747.9166666666679,
      "v": 1
    },
    {
      "midi": 68,
      "hit": false,
      "t": 22000,
      "d": 2497.916666666668,
      "v": 1
    },
    {
      "midi": 59,
      "hit": false,
      "t": 22750,
      "d": 497.9166666666679,
      "v": 1
    },
    {
      "midi": 57,
      "hit": false,
      "t": 23250,
      "d": 497.9166666666679,
      "v": 1
    },
    {
      "midi": 59,
      "hit": false,
      "t": 23750,
      "d": 747.9166666666679,
      "v": 1
    },
    {
      "midi": 54,
      "hit": false,
      "t": 25000,
      "d": 747.9166666666679,
      "v": 1
    },
    {
      "midi": 62,
      "hit": false,
      "t": 25000,
      "d": 747.9166666666679,
      "v": 1
    },
    {
      "midi": 52,
      "hit": false,
      "t": 25750,
      "d": 497.9166666666679,
      "v": 1
    },
    {
      "midi": 61,
      "hit": false,
      "t": 25750,
      "d": 497.9166666666679,
      "v": 1
    },
    {
      "midi": 52,
      "hit": false,
      "t": 26250,
      "d": 1997.9166666666679,
      "v": 1
    },
    {
      "midi": 59,
      "hit": false,
      "t": 26250,
      "d": 1997.9166666666679,
      "v": 1
    },
    {
      "midi": 57,
      "hit": false,
      "t": 28750,
      "d": 247.91666666666788,
      "v": 1
    },
    {
      "midi": 64,
      "hit": false,
      "t": 28750,
      "d": 247.91666666666788,
      "v": 1
    },
    {
      "midi": 62,
      "hit": false,
      "t": 29000,
      "d": 997.9166666666679,
      "v": 1
    },
    {
      "midi": 69,
      "hit": false,
      "t": 29000,
      "d": 997.9166666666679,
      "v": 1
    },
    {
      "midi": 61,
      "hit": false,
      "t": 30000,
      "d": 747.9166666666679,
      "v": 1
    },
    {
      "midi": 68,
      "hit": false,
      "t": 30000,
      "d": 747.9166666666679,
      "v": 1
    },
    {
      "midi": 59,
      "hit": false,
      "t": 30750,
      "d": 497.9166666666679,
      "v": 1
    },
    {
      "midi": 66,
      "hit": false,
      "t": 30750,
      "d": 508.3333333333321,
      "v": 1
    },
    {
      "midi": 64,
      "hit": false,
      "t": 31250,
      "d": 497.91666666666424,
      "v": 1
    },
    {
      "midi": 57,
      "hit": false,
      "t": 31250,
      "d": 1247.9166666666642,
      "v": 1
    },
    {
      "midi": 66,
      "hit": false,
      "t": 31749.999999999996,
      "d": 747.9166666666679,
      "v": 1
    },
    {
      "midi": 54,
      "hit": false,
      "t": 33000,
      "d": 747.9166666666642,
      "v": 1
    },
    {
      "midi": 62,
      "hit": false,
      "t": 33000,
      "d": 747.9166666666642,
      "v": 1
    },
    {
      "midi": 52,
      "hit": false,
      "t": 33750,
      "d": 497.91666666666424,
      "v": 1
    },
    {
      "midi": 61,
      "hit": false,
      "t": 33750,
      "d": 497.91666666666424,
      "v": 1
    },
    {
      "midi": 52,
      "hit": false,
      "t": 34250,
      "d": 1872.9166666666642,
      "v": 1
    },
    {
      "midi": 59,
      "hit": false,
      "t": 34250,
      "d": 1872.9166666666642,
      "v": 1
    },
    {
      "midi": 57,
      "hit": false,
      "t": 37750,
      "d": 497.91666666666424,
      "v": 1
    },
    {
      "midi": 62,
      "hit": false,
      "t": 37750,
      "d": 497.91666666666424,
      "v": 1
    },
    {
      "midi": 59,
      "hit": false,
      "t": 38250,
      "d": 497.91666666666424,
      "v": 1
    },
    {
      "midi": 64,
      "hit": false,
      "t": 38250,
      "d": 497.91666666666424,
      "v": 1
    },
    {
      "midi": 57,
      "hit": false,
      "t": 38750,
      "d": 247.91666666666424,
      "v": 1
    },
    {
      "midi": 62,
      "hit": false,
      "t": 38750,
      "d": 247.91666666666424,
      "v": 1
    },
    {
      "midi": 59,
      "hit": false,
      "t": 39000,
      "d": 747.9166666666642,
      "v": 1
    },
    {
      "midi": 64,
      "hit": false,
      "t": 39000,
      "d": 747.9166666666642,
      "v": 1
    },
    {
      "midi": 69,
      "hit": false,
      "t": 40000,
      "d": 258.33333333333576,
      "v": 1
    },
    {
      "midi": 57,
      "hit": false,
      "t": 40000,
      "d": 260.4166666666715,
      "v": 1
    },
    {
      "midi": 59,
      "hit": false,
      "t": 40250,
      "d": 247.91666666667152,
      "v": 1
    },
    {
      "midi": 71,
      "hit": false,
      "t": 40250,
      "d": 258.33333333334303,
      "v": 1
    },
    {
      "midi": 61,
      "hit": false,
      "t": 40500.00000000001,
      "d": 497.9166666666715,
      "v": 1
    },
    {
      "midi": 73,
      "hit": false,
      "t": 40500.00000000001,
      "d": 497.9166666666715,
      "v": 1
    },
    {
      "midi": 71,
      "hit": false,
      "t": 41000.000000000015,
      "d": 487.5,
      "v": 1
    },
    {
      "midi": 59,
      "hit": false,
      "t": 41000.000000000015,
      "d": 500,
      "v": 1
    },
    {
      "midi": 57,
      "hit": false,
      "t": 41500.000000000015,
      "d": 747.9166666666642,
      "v": 1
    },
    {
      "midi": 69,
      "hit": false,
      "t": 41500.000000000015,
      "d": 747.9166666666642,
      "v": 1
    },
    {
      "midi": 57,
      "hit": false,
      "t": 42500.000000000015,
      "d": 747.9166666666642,
      "v": 1
    },
    {
      "midi": 69,
      "hit": false,
      "t": 42500.000000000015,
      "d": 758.3333333333358,
      "v": 1
    },
    {
      "midi": 68,
      "hit": false,
      "t": 43250.000000000015,
      "d": 126.04166666666424,
      "v": 1
    },
    {
      "midi": 56,
      "hit": false,
      "t": 43250.000000000015,
      "d": 133.33333333332848,
      "v": 1
    },
    {
      "midi": 54,
      "hit": false,
      "t": 43375.000000000015,
      "d": 1247.9166666666642,
      "v": 1
    },
    {
      "midi": 66,
      "hit": false,
      "t": 43375.000000000015,
      "d": 1253.125,
      "v": 1
    },
    {
      "midi": 57,
      "hit": false,
      "t": 44750.000000000015,
      "d": 247.91666666666424,
      "v": 1
    },
    {
      "midi": 64,
      "hit": false,
      "t": 44750.000000000015,
      "d": 247.91666666666424,
      "v": 1
    },
    {
      "midi": 62,
      "hit": false,
      "t": 45000.000000000015,
      "d": 247.91666666666424,
      "v": 1
    },
    {
      "midi": 69,
      "hit": false,
      "t": 45000.000000000015,
      "d": 247.91666666666424,
      "v": 1
    },
    {
      "midi": 61,
      "hit": false,
      "t": 45250.000000000015,
      "d": 247.91666666666424,
      "v": 1
    },
    {
      "midi": 68,
      "hit": false,
      "t": 45250.000000000015,
      "d": 247.91666666666424,
      "v": 1
    },
    {
      "midi": 62,
      "hit": false,
      "t": 45500.000000000015,
      "d": 247.91666666666424,
      "v": 1
    },
    {
      "midi": 69,
      "hit": false,
      "t": 45500.000000000015,
      "d": 247.91666666666424,
      "v": 1
    },
    {
      "midi": 61,
      "hit": false,
      "t": 45750.000000000015,
      "d": 247.91666666666424,
      "v": 1
    },
    {
      "midi": 68,
      "hit": false,
      "t": 45750.000000000015,
      "d": 247.91666666666424,
      "v": 1
    },
    {
      "midi": 62,
      "hit": false,
      "t": 46000.000000000015,
      "d": 2497.9166666666642,
      "v": 1
    },
    {
      "midi": 69,
      "hit": false,
      "t": 46000.000000000015,
      "d": 2497.9166666666642,
      "v": 1
    },
    {
      "midi": 54,
      "hit": false,
      "t": 49000.000000000015,
      "d": 497.91666666666424,
      "v": 1
    },
    {
      "midi": 59,
      "hit": false,
      "t": 49000.000000000015,
      "d": 497.91666666666424,
      "v": 1
    },
    {
      "midi": 66,
      "hit": false,
      "t": 49000.000000000015,
      "d": 497.91666666666424,
      "v": 1
    },
    {
      "midi": 57,
      "hit": false,
      "t": 49500.000000000015,
      "d": 747.9166666666642,
      "v": 1
    },
    {
      "midi": 61,
      "hit": false,
      "t": 49500.000000000015,
      "d": 747.9166666666642,
      "v": 1
    },
    {
      "midi": 69,
      "hit": false,
      "t": 49500.000000000015,
      "d": 747.9166666666642,
      "v": 1
    },
    {
      "midi": 52,
      "hit": false,
      "t": 50250.000000000015,
      "d": 1622.9166666666642,
      "v": 1
    },
    {
      "midi": 57,
      "hit": false,
      "t": 50250.000000000015,
      "d": 1622.9166666666642,
      "v": 1
    },
    {
      "midi": 64,
      "hit": false,
      "t": 50250.000000000015,
      "d": 1622.9166666666642,
      "v": 1
    },
    {
      "midi": 62,
      "hit": false,
      "t": 52000.000000000015,
      "d": 247.91666666666424,
      "v": 1
    },
    {
      "midi": 66,
      "hit": false,
      "t": 52000.000000000015,
      "d": 247.91666666666424,
      "v": 1
    },
    {
      "midi": 61,
      "hit": false,
      "t": 52250.000000000015,
      "d": 497.91666666666424,
      "v": 1
    },
    {
      "midi": 66,
      "hit": false,
      "t": 52250.000000000015,
      "d": 497.91666666666424,
      "v": 1
    },
    {
      "midi": 62,
      "hit": false,
      "t": 52750.000000000015,
      "d": 487.5,
      "v": 1
    },
    {
      "midi": 66,
      "hit": false,
      "t": 52750.000000000015,
      "d": 510.41666666666424,
      "v": 1
    },
    {
      "midi": 64,
      "hit": false,
      "t": 53250.000000000015,
      "d": 497.91666666666424,
      "v": 1
    },
    {
      "midi": 61,
      "hit": false,
      "t": 53250.000000000015,
      "d": 506.25,
      "v": 1
    },
    {
      "midi": 62,
      "hit": false,
      "t": 53750.000000000015,
      "d": 497.91666666666424,
      "v": 1
    },
    {
      "midi": 69,
      "hit": false,
      "t": 53750.000000000015,
      "d": 497.91666666666424,
      "v": 1
    },
    {
      "midi": 64,
      "hit": false,
      "t": 54250.000000000015,
      "d": 497.91666666666424,
      "v": 1
    },
    {
      "midi": 71,
      "hit": false,
      "t": 54250.000000000015,
      "d": 497.91666666666424,
      "v": 1
    },
    {
      "midi": 62,
      "hit": false,
      "t": 54750.000000000015,
      "d": 247.91666666666424,
      "v": 1
    },
    {
      "midi": 69,
      "hit": false,
      "t": 54750.000000000015,
      "d": 247.91666666666424,
      "v": 1
    },
    {
      "midi": 64,
      "hit": false,
      "t": 55000.000000000015,
      "d": 872.9166666666642,
      "v": 1
    },
    {
      "midi": 71,
      "hit": false,
      "t": 55000.000000000015,
      "d": 872.9166666666642,
      "v": 1
    },
    {
      "midi": 69,
      "hit": false,
      "t": 56000.000000000015,
      "d": 253.125,
      "v": 1
    },
    {
      "midi": 62,
      "hit": false,
      "t": 56000.000000000015,
      "d": 260.41666666666424,
      "v": 1
    },
    {
      "midi": 64,
      "hit": false,
      "t": 56250.000000000015,
      "d": 227.08333333332848,
      "v": 1
    },
    {
      "midi": 71,
      "hit": false,
      "t": 56250.000000000015,
      "d": 247.91666666666424,
      "v": 1
    },
    {
      "midi": 66,
      "hit": false,
      "t": 56500.000000000015,
      "d": 497.91666666666424,
      "v": 1
    },
    {
      "midi": 73,
      "hit": false,
      "t": 56500.000000000015,
      "d": 497.91666666666424,
      "v": 1
    },
    {
      "midi": 64,
      "hit": false,
      "t": 57000.000000000015,
      "d": 497.91666666666424,
      "v": 1
    },
    {
      "midi": 71,
      "hit": false,
      "t": 57000.000000000015,
      "d": 497.91666666666424,
      "v": 1
    },
    {
      "midi": 62,
      "hit": false,
      "t": 57500.000000000015,
      "d": 872.9166666666642,
      "v": 1
    },
    {
      "midi": 69,
      "hit": false,
      "t": 57500.000000000015,
      "d": 872.9166666666642,
      "v": 1
    },
    {
      "midi": 69,
      "hit": false,
      "t": 58500.000000000015,
      "d": 737.5,
      "v": 1
    },
    {
      "midi": 66,
      "hit": false,
      "t": 58500.000000000015,
      "d": 738.5416666666642,
      "v": 1
    },
    {
      "midi": 57,
      "hit": false,
      "t": 58500.000000000015,
      "d": 747.9166666666642,
      "v": 1
    },
    {
      "midi": 68,
      "hit": false,
      "t": 59250.000000000015,
      "d": 123.95833333333576,
      "v": 1
    },
    {
      "midi": 64,
      "hit": false,
      "t": 59250.000000000015,
      "d": 130.20833333333576,
      "v": 1
    },
    {
      "midi": 56,
      "hit": false,
      "t": 59250.000000000015,
      "d": 133.33333333333576,
      "v": 1
    },
    {
      "midi": 66,
      "hit": false,
      "t": 59375.000000000015,
      "d": 383.33333333333576,
      "v": 1
    },
    {
      "midi": 54,
      "hit": false,
      "t": 59375.000000000015,
      "d": 1247.9166666666715,
      "v": 1
    },
    {
      "midi": 62,
      "hit": false,
      "t": 59375.000000000015,
      "d": 1372.9166666666715,
      "v": 1
    },
    {
      "midi": 69,
      "hit": false,
      "t": 59750.000000000015,
      "d": 997.9166666666715,
      "v": 1
    },
    {
      "midi": 62,
      "hit": false,
      "t": 61000.00000000002,
      "d": 247.91666666666424,
      "v": 1
    },
    {
      "midi": 69,
      "hit": false,
      "t": 61000.00000000002,
      "d": 275,
      "v": 1
    },
    {
      "midi": 61,
      "hit": false,
      "t": 61250.00000000002,
      "d": 247.91666666666424,
      "v": 1
    },
    {
      "midi": 68,
      "hit": false,
      "t": 61250.00000000002,
      "d": 247.91666666666424,
      "v": 1
    },
    {
      "midi": 62,
      "hit": false,
      "t": 61500.00000000002,
      "d": 247.91666666666424,
      "v": 1
    },
    {
      "midi": 69,
      "hit": false,
      "t": 61500.00000000002,
      "d": 259.375,
      "v": 1
    },
    {
      "midi": 61,
      "hit": false,
      "t": 61750.00000000002,
      "d": 247.91666666666424,
      "v": 1
    },
    {
      "midi": 68,
      "hit": false,
      "t": 61750.00000000002,
      "d": 247.91666666666424,
      "v": 1
    },
    {
      "midi": 62,
      "hit": false,
      "t": 62000.00000000002,
      "d": 1247.9166666666642,
      "v": 1
    },
    {
      "midi": 69,
      "hit": false,
      "t": 62000.00000000002,
      "d": 1247.9166666666642,
      "v": 1
    },
    {
      "midi": 62,
      "hit": false,
      "t": 63250.00000000002,
      "d": 497.91666666666424,
      "v": 1
    },
    {
      "midi": 66,
      "hit": false,
      "t": 63250.00000000002,
      "d": 497.91666666666424,
      "v": 1
    },
    {
      "midi": 61,
      "hit": false,
      "t": 63750.00000000002,
      "d": 247.91666666666424,
      "v": 1
    },
    {
      "midi": 64,
      "hit": false,
      "t": 63750.00000000002,
      "d": 247.91666666666424,
      "v": 1
    },
    {
      "midi": 62,
      "hit": false,
      "t": 64000.00000000002,
      "d": 258.33333333333576,
      "v": 1
    },
    {
      "midi": 66,
      "hit": false,
      "t": 64000.00000000002,
      "d": 259.375,
      "v": 1
    },
    {
      "midi": 61,
      "hit": false,
      "t": 64250.00000000002,
      "d": 247.91666666666424,
      "v": 1
    },
    {
      "midi": 64,
      "hit": false,
      "t": 64250.00000000002,
      "d": 247.91666666666424,
      "v": 1
    },
    {
      "midi": 59,
      "hit": false,
      "t": 64500.00000000002,
      "d": 497.91666666666424,
      "v": 1
    },
    {
      "midi": 62,
      "hit": false,
      "t": 64500.00000000002,
      "d": 497.91666666666424,
      "v": 1
    },
    {
      "midi": 54,
      "hit": false,
      "t": 65000.00000000002,
      "d": 497.91666666666424,
      "v": 1
    },
    {
      "midi": 59,
      "hit": false,
      "t": 65000.00000000002,
      "d": 497.91666666666424,
      "v": 1
    },
    {
      "midi": 66,
      "hit": false,
      "t": 65000.00000000002,
      "d": 497.91666666666424,
      "v": 1
    },
    {
      "midi": 57,
      "hit": false,
      "t": 65500.00000000002,
      "d": 247.91666666666424,
      "v": 1
    },
    {
      "midi": 61,
      "hit": false,
      "t": 65500.00000000002,
      "d": 247.91666666666424,
      "v": 1
    },
    {
      "midi": 69,
      "hit": false,
      "t": 65500.00000000002,
      "d": 247.91666666666424,
      "v": 1
    },
    {
      "midi": 57,
      "hit": false,
      "t": 65750.00000000001,
      "d": 497.9166666666715,
      "v": 1
    },
    {
      "midi": 61,
      "hit": false,
      "t": 65750.00000000001,
      "d": 497.9166666666715,
      "v": 1
    },
    {
      "midi": 69,
      "hit": false,
      "t": 65750.00000000001,
      "d": 497.9166666666715,
      "v": 1
    },
    {
      "midi": 52,
      "hit": false,
      "t": 66250.00000000001,
      "d": 1997.9166666666715,
      "v": 1
    },
    {
      "midi": 57,
      "hit": false,
      "t": 66250.00000000001,
      "d": 1997.9166666666715,
      "v": 1
    },
    {
      "midi": 64,
      "hit": false,
      "t": 66250.00000000001,
      "d": 1997.9166666666715,
      "v": 1
    },
    {
      "midi": 64,
      "hit": false,
      "t": 74000,
      "d": 3992.7083333333285,
      "v": 113
    },
    {
      "midi": 57,
      "hit": false,
      "t": 74000,
      "d": 3994.791666666657,
      "v": 111
    },
    {
      "midi": 54,
      "hit": false,
      "t": 74000,
      "d": 3997.916666666657,
      "v": 110
    },
    {
      "midi": 59,
      "hit": false,
      "t": 77999.99999999999,
      "d": 1.0416666666715173,
      "v": 97
    },
    {
      "midi": 66,
      "hit": false,
      "t": 77999.99999999999,
      "d": 3992.708333333343,
      "v": 97
    },
    {
      "midi": 61,
      "hit": false,
      "t": 77999.99999999999,
      "d": 3994.7916666666715,
      "v": 97
    },
    {
      "midi": 62,
      "hit": false,
      "t": 77999.99999999999,
      "d": 4001.0416666666715,
      "v": 97
    },
    {
      "midi": 64,
      "hit": false,
      "t": 81999.99999999999,
      "d": 3992.708333333343,
      "v": 97
    },
    {
      "midi": 57,
      "hit": false,
      "t": 81999.99999999999,
      "d": 3994.7916666666715,
      "v": 97
    },
    {
      "midi": 54,
      "hit": false,
      "t": 81999.99999999999,
      "d": 3997.9166666666715,
      "v": 97
    },
    {
      "midi": 59,
      "hit": false,
      "t": 85999.99999999999,
      "d": 1.0416666666715173,
      "v": 97
    },
    {
      "midi": 66,
      "hit": false,
      "t": 85999.99999999999,
      "d": 3992.708333333343,
      "v": 97
    },
    {
      "midi": 61,
      "hit": false,
      "t": 85999.99999999999,
      "d": 3994.7916666666715,
      "v": 97
    },
    {
      "midi": 62,
      "hit": false,
      "t": 85999.99999999999,
      "d": 4001.0416666666715,
      "v": 97
    },
    {
      "midi": 64,
      "hit": false,
      "t": 89999.99999999999,
      "d": 3992.708333333343,
      "v": 97
    },
    {
      "midi": 57,
      "hit": false,
      "t": 89999.99999999999,
      "d": 3994.7916666666715,
      "v": 97
    },
    {
      "midi": 54,
      "hit": false,
      "t": 89999.99999999999,
      "d": 3997.9166666666715,
      "v": 97
    },
    {
      "midi": 59,
      "hit": false,
      "t": 89999.99999999999,
      "d": 4001.0416666666715,
      "v": 97
    },
    {
      "midi": 57,
      "hit": false,
      "t": 94750.00000000001,
      "d": 247.91666666667152,
      "v": 1
    },
    {
      "midi": 64,
      "hit": false,
      "t": 94750.00000000001,
      "d": 247.91666666667152,
      "v": 1
    },
    {
      "midi": 62,
      "hit": false,
      "t": 95000.00000000001,
      "d": 997.9166666666715,
      "v": 1
    },
    {
      "midi": 69,
      "hit": false,
      "t": 95000.00000000001,
      "d": 997.9166666666715,
      "v": 1
    },
    {
      "midi": 61,
      "hit": false,
      "t": 96000.00000000001,
      "d": 747.9166666666715,
      "v": 1
    },
    {
      "midi": 68,
      "hit": false,
      "t": 96000.00000000001,
      "d": 2497.9166666666715,
      "v": 1
    },
    {
      "midi": 59,
      "hit": false,
      "t": 96750.00000000001,
      "d": 497.9166666666715,
      "v": 1
    },
    {
      "midi": 57,
      "hit": false,
      "t": 97250.00000000001,
      "d": 497.9166666666715,
      "v": 1
    },
    {
      "midi": 59,
      "hit": false,
      "t": 97750.00000000001,
      "d": 747.9166666666715,
      "v": 1
    },
    {
      "midi": 54,
      "hit": false,
      "t": 99000.00000000001,
      "d": 747.9166666666715,
      "v": 1
    },
    {
      "midi": 62,
      "hit": false,
      "t": 99000.00000000001,
      "d": 747.9166666666715,
      "v": 1
    },
    {
      "midi": 52,
      "hit": false,
      "t": 99750.00000000001,
      "d": 497.9166666666715,
      "v": 1
    },
    {
      "midi": 61,
      "hit": false,
      "t": 99750.00000000001,
      "d": 497.9166666666715,
      "v": 1
    },
    {
      "midi": 52,
      "hit": false,
      "t": 100250.00000000001,
      "d": 1997.9166666666715,
      "v": 1
    },
    {
      "midi": 59,
      "hit": false,
      "t": 100250.00000000001,
      "d": 1997.9166666666715,
      "v": 1
    },
    {
      "midi": 57,
      "hit": false,
      "t": 102750.00000000001,
      "d": 247.91666666667152,
      "v": 1
    },
    {
      "midi": 64,
      "hit": false,
      "t": 102750.00000000001,
      "d": 247.91666666667152,
      "v": 1
    },
    {
      "midi": 62,
      "hit": false,
      "t": 103000.00000000001,
      "d": 997.9166666666715,
      "v": 1
    },
    {
      "midi": 69,
      "hit": false,
      "t": 103000.00000000001,
      "d": 997.9166666666715,
      "v": 1
    },
    {
      "midi": 61,
      "hit": false,
      "t": 104000.00000000001,
      "d": 747.9166666666715,
      "v": 1
    },
    {
      "midi": 68,
      "hit": false,
      "t": 104000.00000000001,
      "d": 747.9166666666715,
      "v": 1
    },
    {
      "midi": 59,
      "hit": false,
      "t": 104750.00000000001,
      "d": 497.9166666666715,
      "v": 1
    },
    {
      "midi": 66,
      "hit": false,
      "t": 104750.00000000001,
      "d": 508.3333333333285,
      "v": 1
    },
    {
      "midi": 64,
      "hit": false,
      "t": 105250.00000000001,
      "d": 497.91666666665697,
      "v": 1
    },
    {
      "midi": 57,
      "hit": false,
      "t": 105250.00000000001,
      "d": 1247.916666666657,
      "v": 1
    },
    {
      "midi": 66,
      "hit": false,
      "t": 105750,
      "d": 747.9166666666715,
      "v": 1
    },
    {
      "midi": 54,
      "hit": false,
      "t": 107000,
      "d": 747.9166666666715,
      "v": 1
    },
    {
      "midi": 62,
      "hit": false,
      "t": 107000,
      "d": 747.9166666666715,
      "v": 1
    },
    {
      "midi": 69,
      "hit": false,
      "t": 107000,
      "d": 747.9166666666715,
      "v": 1
    },
    {
      "midi": 52,
      "hit": false,
      "t": 107750,
      "d": 497.9166666666715,
      "v": 1
    },
    {
      "midi": 61,
      "hit": false,
      "t": 107750,
      "d": 497.9166666666715,
      "v": 1
    },
    {
      "midi": 68,
      "hit": false,
      "t": 107750,
      "d": 497.9166666666715,
      "v": 1
    },
    {
      "midi": 52,
      "hit": false,
      "t": 108250,
      "d": 1872.9166666666715,
      "v": 1
    },
    {
      "midi": 59,
      "hit": false,
      "t": 108250,
      "d": 1872.9166666666715,
      "v": 1
    },
    {
      "midi": 66,
      "hit": false,
      "t": 108250,
      "d": 1872.9166666666715,
      "v": 1
    },
    {
      "midi": 57,
      "hit": false,
      "t": 111750,
      "d": 497.9166666666715,
      "v": 1
    },
    {
      "midi": 62,
      "hit": false,
      "t": 111750,
      "d": 497.9166666666715,
      "v": 1
    },
    {
      "midi": 69,
      "hit": false,
      "t": 111750,
      "d": 497.9166666666715,
      "v": 1
    },
    {
      "midi": 59,
      "hit": false,
      "t": 112250,
      "d": 497.9166666666715,
      "v": 1
    },
    {
      "midi": 64,
      "hit": false,
      "t": 112250,
      "d": 497.9166666666715,
      "v": 1
    },
    {
      "midi": 71,
      "hit": false,
      "t": 112250,
      "d": 497.9166666666715,
      "v": 1
    },
    {
      "midi": 57,
      "hit": false,
      "t": 112750,
      "d": 247.91666666667152,
      "v": 1
    },
    {
      "midi": 62,
      "hit": false,
      "t": 112750,
      "d": 247.91666666667152,
      "v": 1
    },
    {
      "midi": 69,
      "hit": false,
      "t": 112750,
      "d": 247.91666666667152,
      "v": 1
    },
    {
      "midi": 59,
      "hit": false,
      "t": 113000,
      "d": 872.9166666666715,
      "v": 1
    },
    {
      "midi": 64,
      "hit": false,
      "t": 113000,
      "d": 872.9166666666715,
      "v": 1
    },
    {
      "midi": 71,
      "hit": false,
      "t": 113000,
      "d": 872.9166666666715,
      "v": 1
    },
    {
      "midi": 57,
      "hit": false,
      "t": 114000,
      "d": 260.4166666666715,
      "v": 1
    },
    {
      "midi": 62,
      "hit": false,
      "t": 114000,
      "d": 264.58333333334303,
      "v": 1
    },
    {
      "midi": 69,
      "hit": false,
      "t": 114000,
      "d": 286.45833333334303,
      "v": 1
    },
    {
      "midi": 59,
      "hit": false,
      "t": 114250,
      "d": 247.91666666667152,
      "v": 1
    },
    {
      "midi": 71,
      "hit": false,
      "t": 114250,
      "d": 269.7916666666715,
      "v": 1
    },
    {
      "midi": 64,
      "hit": false,
      "t": 114250,
      "d": 287.5,
      "v": 1
    },
    {
      "midi": 61,
      "hit": false,
      "t": 114500,
      "d": 497.9166666666715,
      "v": 1
    },
    {
      "midi": 66,
      "hit": false,
      "t": 114500,
      "d": 497.9166666666715,
      "v": 1
    },
    {
      "midi": 73,
      "hit": false,
      "t": 114500,
      "d": 497.9166666666715,
      "v": 1
    },
    {
      "midi": 64,
      "hit": false,
      "t": 115000,
      "d": 494.7916666666715,
      "v": 1
    },
    {
      "midi": 59,
      "hit": false,
      "t": 115000,
      "d": 500,
      "v": 1
    },
    {
      "midi": 71,
      "hit": false,
      "t": 115000,
      "d": 506.25,
      "v": 1
    },
    {
      "midi": 57,
      "hit": false,
      "t": 115500,
      "d": 997.9166666666715,
      "v": 1
    },
    {
      "midi": 62,
      "hit": false,
      "t": 115500,
      "d": 997.9166666666715,
      "v": 1
    },
    {
      "midi": 69,
      "hit": false,
      "t": 115500,
      "d": 997.9166666666715,
      "v": 1
    },
    {
      "midi": 57,
      "hit": false,
      "t": 116500,
      "d": 747.9166666666715,
      "v": 1
    },
    {
      "midi": 62,
      "hit": false,
      "t": 116500,
      "d": 758.3333333333285,
      "v": 1
    },
    {
      "midi": 69,
      "hit": false,
      "t": 116500,
      "d": 758.3333333333285,
      "v": 1
    },
    {
      "midi": 61,
      "hit": false,
      "t": 117250,
      "d": 126.04166666667152,
      "v": 1
    },
    {
      "midi": 68,
      "hit": false,
      "t": 117250,
      "d": 126.04166666667152,
      "v": 1
    },
    {
      "midi": 56,
      "hit": false,
      "t": 117250,
      "d": 133.33333333334303,
      "v": 1
    },
    {
      "midi": 54,
      "hit": false,
      "t": 117375,
      "d": 1247.9166666666715,
      "v": 1
    },
    {
      "midi": 59,
      "hit": false,
      "t": 117375,
      "d": 1253.125,
      "v": 1
    },
    {
      "midi": 66,
      "hit": false,
      "t": 117375,
      "d": 1253.125,
      "v": 1
    },
    {
      "midi": 57,
      "hit": false,
      "t": 118750,
      "d": 247.91666666667152,
      "v": 1
    },
    {
      "midi": 64,
      "hit": false,
      "t": 118750,
      "d": 247.91666666667152,
      "v": 1
    },
    {
      "midi": 62,
      "hit": false,
      "t": 119000,
      "d": 247.91666666667152,
      "v": 1
    },
    {
      "midi": 69,
      "hit": false,
      "t": 119000,
      "d": 247.91666666667152,
      "v": 1
    },
    {
      "midi": 61,
      "hit": false,
      "t": 119250,
      "d": 247.91666666667152,
      "v": 1
    },
    {
      "midi": 68,
      "hit": false,
      "t": 119250,
      "d": 247.91666666667152,
      "v": 1
    },
    {
      "midi": 62,
      "hit": false,
      "t": 119500,
      "d": 247.91666666667152,
      "v": 1
    },
    {
      "midi": 69,
      "hit": false,
      "t": 119500,
      "d": 247.91666666667152,
      "v": 1
    },
    {
      "midi": 61,
      "hit": false,
      "t": 119750,
      "d": 247.91666666667152,
      "v": 1
    },
    {
      "midi": 68,
      "hit": false,
      "t": 119750,
      "d": 247.91666666667152,
      "v": 1
    },
    {
      "midi": 62,
      "hit": false,
      "t": 120000,
      "d": 2247.9166666666715,
      "v": 1
    },
    {
      "midi": 69,
      "hit": false,
      "t": 120000,
      "d": 2247.9166666666715,
      "v": 1
    },
    {
      "midi": 54,
      "hit": false,
      "t": 123000,
      "d": 497.9166666666715,
      "v": 1
    },
    {
      "midi": 59,
      "hit": false,
      "t": 123000,
      "d": 497.9166666666715,
      "v": 1
    },
    {
      "midi": 66,
      "hit": false,
      "t": 123000,
      "d": 497.9166666666715,
      "v": 1
    },
    {
      "midi": 57,
      "hit": false,
      "t": 123500,
      "d": 747.9166666666715,
      "v": 1
    },
    {
      "midi": 61,
      "hit": false,
      "t": 123500,
      "d": 747.9166666666715,
      "v": 1
    },
    {
      "midi": 69,
      "hit": false,
      "t": 123500,
      "d": 747.9166666666715,
      "v": 1
    },
    {
      "midi": 52,
      "hit": false,
      "t": 124250,
      "d": 1622.9166666666715,
      "v": 1
    },
    {
      "midi": 57,
      "hit": false,
      "t": 124250,
      "d": 1622.9166666666715,
      "v": 1
    },
    {
      "midi": 64,
      "hit": false,
      "t": 124250,
      "d": 1622.9166666666715,
      "v": 1
    },
    {
      "midi": 62,
      "hit": false,
      "t": 126000,
      "d": 247.91666666667152,
      "v": 1
    },
    {
      "midi": 66,
      "hit": false,
      "t": 126000,
      "d": 247.91666666667152,
      "v": 1
    },
    {
      "midi": 61,
      "hit": false,
      "t": 126250,
      "d": 497.9166666666715,
      "v": 1
    },
    {
      "midi": 66,
      "hit": false,
      "t": 126250,
      "d": 497.9166666666715,
      "v": 1
    },
    {
      "midi": 62,
      "hit": false,
      "t": 126750,
      "d": 487.5,
      "v": 1
    },
    {
      "midi": 66,
      "hit": false,
      "t": 126750,
      "d": 510.4166666666715,
      "v": 1
    },
    {
      "midi": 64,
      "hit": false,
      "t": 127250,
      "d": 497.9166666666715,
      "v": 1
    },
    {
      "midi": 61,
      "hit": false,
      "t": 127250,
      "d": 506.25,
      "v": 1
    },
    {
      "midi": 62,
      "hit": false,
      "t": 127750,
      "d": 497.9166666666715,
      "v": 1
    },
    {
      "midi": 69,
      "hit": false,
      "t": 127750,
      "d": 497.9166666666715,
      "v": 1
    },
    {
      "midi": 64,
      "hit": false,
      "t": 128250,
      "d": 497.9166666666715,
      "v": 1
    },
    {
      "midi": 71,
      "hit": false,
      "t": 128250,
      "d": 497.9166666666715,
      "v": 1
    },
    {
      "midi": 62,
      "hit": false,
      "t": 128750,
      "d": 247.91666666667152,
      "v": 1
    },
    {
      "midi": 69,
      "hit": false,
      "t": 128750,
      "d": 247.91666666667152,
      "v": 1
    },
    {
      "midi": 64,
      "hit": false,
      "t": 129000,
      "d": 872.9166666666715,
      "v": 1
    },
    {
      "midi": 71,
      "hit": false,
      "t": 129000,
      "d": 872.9166666666715,
      "v": 1
    },
    {
      "midi": 69,
      "hit": false,
      "t": 130000,
      "d": 253.125,
      "v": 1
    },
    {
      "midi": 62,
      "hit": false,
      "t": 130000,
      "d": 260.4166666666715,
      "v": 1
    },
    {
      "midi": 64,
      "hit": false,
      "t": 130250,
      "d": 227.08333333334303,
      "v": 1
    },
    {
      "midi": 71,
      "hit": false,
      "t": 130250,
      "d": 247.91666666667152,
      "v": 1
    },
    {
      "midi": 66,
      "hit": false,
      "t": 130500,
      "d": 497.9166666666715,
      "v": 1
    },
    {
      "midi": 73,
      "hit": false,
      "t": 130500,
      "d": 497.9166666666715,
      "v": 1
    },
    {
      "midi": 64,
      "hit": false,
      "t": 131000,
      "d": 497.91666666665697,
      "v": 1
    },
    {
      "midi": 71,
      "hit": false,
      "t": 131000,
      "d": 497.91666666665697,
      "v": 1
    },
    {
      "midi": 62,
      "hit": false,
      "t": 131500,
      "d": 997.916666666657,
      "v": 1
    },
    {
      "midi": 69,
      "hit": false,
      "t": 131500,
      "d": 997.916666666657,
      "v": 1
    },
    {
      "midi": 69,
      "hit": false,
      "t": 132500,
      "d": 737.5,
      "v": 1
    },
    {
      "midi": 66,
      "hit": false,
      "t": 132500,
      "d": 738.541666666657,
      "v": 1
    },
    {
      "midi": 57,
      "hit": false,
      "t": 132500,
      "d": 747.916666666657,
      "v": 1
    },
    {
      "midi": 68,
      "hit": false,
      "t": 133250,
      "d": 123.95833333334303,
      "v": 1
    },
    {
      "midi": 64,
      "hit": false,
      "t": 133250,
      "d": 130.20833333334303,
      "v": 1
    },
    {
      "midi": 56,
      "hit": false,
      "t": 133250,
      "d": 133.33333333334303,
      "v": 1
    },
    {
      "midi": 66,
      "hit": false,
      "t": 133375,
      "d": 383.33333333334303,
      "v": 1
    },
    {
      "midi": 54,
      "hit": false,
      "t": 133375,
      "d": 1247.916666666686,
      "v": 1
    },
    {
      "midi": 62,
      "hit": false,
      "t": 133375,
      "d": 1372.916666666686,
      "v": 1
    },
    {
      "midi": 69,
      "hit": false,
      "t": 133750,
      "d": 997.9166666666861,
      "v": 1
    },
    {
      "midi": 57,
      "hit": false,
      "t": 135000.00000000003,
      "d": 247.91666666665697,
      "v": 1
    },
    {
      "midi": 62,
      "hit": false,
      "t": 135000.00000000003,
      "d": 247.91666666665697,
      "v": 1
    },
    {
      "midi": 69,
      "hit": false,
      "t": 135000.00000000003,
      "d": 275,
      "v": 1
    },
    {
      "midi": 56,
      "hit": false,
      "t": 135250.00000000003,
      "d": 247.91666666665697,
      "v": 1
    },
    {
      "midi": 61,
      "hit": false,
      "t": 135250.00000000003,
      "d": 247.91666666665697,
      "v": 1
    },
    {
      "midi": 68,
      "hit": false,
      "t": 135250.00000000003,
      "d": 247.91666666665697,
      "v": 1
    },
    {
      "midi": 57,
      "hit": false,
      "t": 135500.00000000003,
      "d": 247.91666666665697,
      "v": 1
    },
    {
      "midi": 62,
      "hit": false,
      "t": 135500.00000000003,
      "d": 247.91666666665697,
      "v": 1
    },
    {
      "midi": 69,
      "hit": false,
      "t": 135500.00000000003,
      "d": 259.375,
      "v": 1
    },
    {
      "midi": 56,
      "hit": false,
      "t": 135750.00000000003,
      "d": 227.08333333334303,
      "v": 1
    },
    {
      "midi": 61,
      "hit": false,
      "t": 135750.00000000003,
      "d": 247.91666666668607,
      "v": 1
    },
    {
      "midi": 68,
      "hit": false,
      "t": 135750.00000000003,
      "d": 247.91666666668607,
      "v": 1
    },
    {
      "midi": 62,
      "hit": false,
      "t": 136000.00000000006,
      "d": 1247.916666666657,
      "v": 1
    },
    {
      "midi": 69,
      "hit": false,
      "t": 136000.00000000006,
      "d": 1247.916666666657,
      "v": 1
    },
    {
      "midi": 57,
      "hit": false,
      "t": 136000.00000000006,
      "d": 1547.916666666657,
      "v": 1
    },
    {
      "midi": 62,
      "hit": false,
      "t": 137250.00000000006,
      "d": 497.91666666665697,
      "v": 1
    },
    {
      "midi": 66,
      "hit": false,
      "t": 137250.00000000006,
      "d": 497.91666666665697,
      "v": 1
    },
    {
      "midi": 61,
      "hit": false,
      "t": 137750.00000000006,
      "d": 247.91666666665697,
      "v": 1
    },
    {
      "midi": 64,
      "hit": false,
      "t": 137750.00000000006,
      "d": 247.91666666665697,
      "v": 1
    },
    {
      "midi": 62,
      "hit": false,
      "t": 138000.00000000006,
      "d": 258.33333333334303,
      "v": 1
    },
    {
      "midi": 66,
      "hit": false,
      "t": 138000.00000000006,
      "d": 259.375,
      "v": 1
    },
    {
      "midi": 61,
      "hit": false,
      "t": 138250.00000000006,
      "d": 247.91666666665697,
      "v": 1
    },
    {
      "midi": 64,
      "hit": false,
      "t": 138250.00000000006,
      "d": 247.91666666665697,
      "v": 1
    },
    {
      "midi": 59,
      "hit": false,
      "t": 138500.00000000006,
      "d": 497.91666666665697,
      "v": 1
    },
    {
      "midi": 62,
      "hit": false,
      "t": 138500.00000000006,
      "d": 497.91666666665697,
      "v": 1
    },
    {
      "midi": 54,
      "hit": false,
      "t": 139000.00000000006,
      "d": 497.91666666665697,
      "v": 1
    },
    {
      "midi": 59,
      "hit": false,
      "t": 139000.00000000006,
      "d": 497.91666666665697,
      "v": 1
    },
    {
      "midi": 66,
      "hit": false,
      "t": 139000.00000000006,
      "d": 497.91666666665697,
      "v": 1
    },
    {
      "midi": 57,
      "hit": false,
      "t": 139500.00000000006,
      "d": 247.91666666665697,
      "v": 1
    },
    {
      "midi": 61,
      "hit": false,
      "t": 139500.00000000006,
      "d": 247.91666666665697,
      "v": 1
    },
    {
      "midi": 69,
      "hit": false,
      "t": 139500.00000000006,
      "d": 247.91666666665697,
      "v": 1
    },
    {
      "midi": 57,
      "hit": false,
      "t": 139750.00000000006,
      "d": 497.91666666665697,
      "v": 1
    },
    {
      "midi": 61,
      "hit": false,
      "t": 139750.00000000006,
      "d": 497.91666666665697,
      "v": 1
    },
    {
      "midi": 69,
      "hit": false,
      "t": 139750.00000000006,
      "d": 497.91666666665697,
      "v": 1
    },
    {
      "midi": 52,
      "hit": false,
      "t": 140250.00000000006,
      "d": 1997.916666666657,
      "v": 1
    },
    {
      "midi": 57,
      "hit": false,
      "t": 140250.00000000006,
      "d": 1997.916666666657,
      "v": 1
    },
    {
      "midi": 64,
      "hit": false,
      "t": 140250.00000000006,
      "d": 1997.916666666657,
      "v": 1
    },
    {
      "midi": 62,
      "hit": false,
      "t": 161000.00000000006,
      "d": 747.916666666657,
      "v": 1
    },
    {
      "midi": 69,
      "hit": false,
      "t": 161000.00000000006,
      "d": 747.916666666657,
      "v": 1
    },
    {
      "midi": 61,
      "hit": false,
      "t": 161750.00000000006,
      "d": 105.20833333334303,
      "v": 1
    },
    {
      "midi": 68,
      "hit": false,
      "t": 161750.00000000006,
      "d": 130.20833333334303,
      "v": 1
    },
    {
      "midi": 69,
      "hit": false,
      "t": 161875.00000000006,
      "d": 112.5,
      "v": 1
    },
    {
      "midi": 62,
      "hit": false,
      "t": 161875.00000000006,
      "d": 144.79166666665697,
      "v": 1
    },
    {
      "midi": 61,
      "hit": false,
      "t": 162000.00000000006,
      "d": 758.333333333343,
      "v": 1
    },
    {
      "midi": 68,
      "hit": false,
      "t": 162000.00000000006,
      "d": 758.333333333343,
      "v": 1
    },
    {
      "midi": 59,
      "hit": false,
      "t": 162750.00000000006,
      "d": 493.75,
      "v": 1
    },
    {
      "midi": 66,
      "hit": false,
      "t": 162750.00000000006,
      "d": 508.33333333334303,
      "v": 1
    },
    {
      "midi": 64,
      "hit": false,
      "t": 163250.00000000006,
      "d": 477.08333333334303,
      "v": 1
    },
    {
      "midi": 57,
      "hit": false,
      "t": 163250.00000000006,
      "d": 508.33333333334303,
      "v": 1
    },
    {
      "midi": 59,
      "hit": false,
      "t": 163750.00000000006,
      "d": 997.9166666666861,
      "v": 1
    },
    {
      "midi": 66,
      "hit": false,
      "t": 163750.00000000006,
      "d": 997.9166666666861,
      "v": 1
    },
    {
      "midi": 54,
      "hit": false,
      "t": 165000.0000000001,
      "d": 247.91666666665697,
      "v": 1
    },
    {
      "midi": 66,
      "hit": false,
      "t": 165000.0000000001,
      "d": 247.91666666665697,
      "v": 1
    },
    {
      "midi": 69,
      "hit": false,
      "t": 165000.0000000001,
      "d": 247.91666666665697,
      "v": 1
    },
    {
      "midi": 52,
      "hit": false,
      "t": 165250.0000000001,
      "d": 247.91666666665697,
      "v": 1
    },
    {
      "midi": 64,
      "hit": false,
      "t": 165250.0000000001,
      "d": 247.91666666665697,
      "v": 1
    },
    {
      "midi": 68,
      "hit": false,
      "t": 165250.0000000001,
      "d": 247.91666666665697,
      "v": 1
    },
    {
      "midi": 54,
      "hit": false,
      "t": 165500.0000000001,
      "d": 747.916666666657,
      "v": 1
    },
    {
      "midi": 66,
      "hit": false,
      "t": 165500.0000000001,
      "d": 747.916666666657,
      "v": 1
    },
    {
      "midi": 69,
      "hit": false,
      "t": 165500.0000000001,
      "d": 747.916666666657,
      "v": 1
    },
    {
      "midi": 52,
      "hit": false,
      "t": 166250.0000000001,
      "d": 1997.916666666657,
      "v": 1
    },
    {
      "midi": 64,
      "hit": false,
      "t": 166250.0000000001,
      "d": 1997.916666666657,
      "v": 1
    },
    {
      "midi": 68,
      "hit": false,
      "t": 166250.0000000001,
      "d": 1997.916666666657,
      "v": 1
    },
    {
      "midi": 57,
      "hit": false,
      "t": 168750.0000000001,
      "d": 247.91666666665697,
      "v": 1
    },
    {
      "midi": 64,
      "hit": false,
      "t": 168750.0000000001,
      "d": 247.91666666665697,
      "v": 1
    },
    {
      "midi": 62,
      "hit": false,
      "t": 169000.0000000001,
      "d": 997.916666666657,
      "v": 1
    },
    {
      "midi": 69,
      "hit": false,
      "t": 169000.0000000001,
      "d": 997.916666666657,
      "v": 1
    },
    {
      "midi": 61,
      "hit": false,
      "t": 170000.0000000001,
      "d": 747.916666666657,
      "v": 1
    },
    {
      "midi": 68,
      "hit": false,
      "t": 170000.0000000001,
      "d": 747.916666666657,
      "v": 1
    },
    {
      "midi": 59,
      "hit": false,
      "t": 170750.0000000001,
      "d": 497.91666666665697,
      "v": 1
    },
    {
      "midi": 66,
      "hit": false,
      "t": 170750.0000000001,
      "d": 508.33333333334303,
      "v": 1
    },
    {
      "midi": 64,
      "hit": false,
      "t": 171250.0000000001,
      "d": 497.91666666668607,
      "v": 1
    },
    {
      "midi": 57,
      "hit": false,
      "t": 171250.0000000001,
      "d": 1247.916666666686,
      "v": 1
    },
    {
      "midi": 66,
      "hit": false,
      "t": 171750.00000000012,
      "d": 747.916666666657,
      "v": 1
    },
    {
      "midi": 54,
      "hit": false,
      "t": 173000.00000000012,
      "d": 747.916666666657,
      "v": 1
    },
    {
      "midi": 62,
      "hit": false,
      "t": 173000.00000000012,
      "d": 747.916666666657,
      "v": 1
    },
    {
      "midi": 69,
      "hit": false,
      "t": 173000.00000000012,
      "d": 747.916666666657,
      "v": 1
    },
    {
      "midi": 52,
      "hit": false,
      "t": 173750.00000000012,
      "d": 497.91666666665697,
      "v": 1
    },
    {
      "midi": 61,
      "hit": false,
      "t": 173750.00000000012,
      "d": 497.91666666665697,
      "v": 1
    },
    {
      "midi": 68,
      "hit": false,
      "t": 173750.00000000012,
      "d": 497.91666666665697,
      "v": 1
    },
    {
      "midi": 52,
      "hit": false,
      "t": 174250.00000000012,
      "d": 1872.916666666657,
      "v": 1
    },
    {
      "midi": 59,
      "hit": false,
      "t": 174250.00000000012,
      "d": 1872.916666666657,
      "v": 1
    },
    {
      "midi": 66,
      "hit": false,
      "t": 174250.00000000012,
      "d": 1872.916666666657,
      "v": 1
    },
    {
      "midi": 57,
      "hit": false,
      "t": 177750.00000000012,
      "d": 497.91666666665697,
      "v": 1
    },
    {
      "midi": 62,
      "hit": false,
      "t": 177750.00000000012,
      "d": 497.91666666665697,
      "v": 1
    },
    {
      "midi": 69,
      "hit": false,
      "t": 177750.00000000012,
      "d": 497.91666666665697,
      "v": 1
    },
    {
      "midi": 59,
      "hit": false,
      "t": 178250.00000000012,
      "d": 497.91666666665697,
      "v": 1
    },
    {
      "midi": 64,
      "hit": false,
      "t": 178250.00000000012,
      "d": 497.91666666665697,
      "v": 1
    },
    {
      "midi": 71,
      "hit": false,
      "t": 178250.00000000012,
      "d": 497.91666666665697,
      "v": 1
    },
    {
      "midi": 57,
      "hit": false,
      "t": 178750.00000000012,
      "d": 247.91666666665697,
      "v": 1
    },
    {
      "midi": 62,
      "hit": false,
      "t": 178750.00000000012,
      "d": 247.91666666665697,
      "v": 1
    },
    {
      "midi": 69,
      "hit": false,
      "t": 178750.00000000012,
      "d": 247.91666666665697,
      "v": 1
    },
    {
      "midi": 59,
      "hit": false,
      "t": 179000.00000000012,
      "d": 872.916666666657,
      "v": 1
    },
    {
      "midi": 64,
      "hit": false,
      "t": 179000.00000000012,
      "d": 872.916666666657,
      "v": 1
    },
    {
      "midi": 71,
      "hit": false,
      "t": 179000.00000000012,
      "d": 872.916666666657,
      "v": 1
    },
    {
      "midi": 57,
      "hit": false,
      "t": 180000.00000000012,
      "d": 260.41666666665697,
      "v": 1
    },
    {
      "midi": 62,
      "hit": false,
      "t": 180000.00000000012,
      "d": 264.58333333331393,
      "v": 1
    },
    {
      "midi": 69,
      "hit": false,
      "t": 180000.00000000012,
      "d": 286.45833333331393,
      "v": 1
    },
    {
      "midi": 59,
      "hit": false,
      "t": 180250.00000000012,
      "d": 247.91666666665697,
      "v": 1
    },
    {
      "midi": 71,
      "hit": false,
      "t": 180250.00000000012,
      "d": 269.79166666665697,
      "v": 1
    },
    {
      "midi": 64,
      "hit": false,
      "t": 180250.00000000012,
      "d": 287.5,
      "v": 1
    },
    {
      "midi": 61,
      "hit": false,
      "t": 180500.00000000012,
      "d": 497.91666666665697,
      "v": 1
    },
    {
      "midi": 66,
      "hit": false,
      "t": 180500.00000000012,
      "d": 497.91666666665697,
      "v": 1
    },
    {
      "midi": 73,
      "hit": false,
      "t": 180500.00000000012,
      "d": 497.91666666665697,
      "v": 1
    },
    {
      "midi": 64,
      "hit": false,
      "t": 181000.00000000012,
      "d": 494.79166666665697,
      "v": 1
    },
    {
      "midi": 59,
      "hit": false,
      "t": 181000.00000000012,
      "d": 500,
      "v": 1
    },
    {
      "midi": 71,
      "hit": false,
      "t": 181000.00000000012,
      "d": 506.25,
      "v": 1
    },
    {
      "midi": 57,
      "hit": false,
      "t": 181500.00000000012,
      "d": 997.916666666657,
      "v": 1
    },
    {
      "midi": 62,
      "hit": false,
      "t": 181500.00000000012,
      "d": 997.916666666657,
      "v": 1
    },
    {
      "midi": 69,
      "hit": false,
      "t": 181500.00000000012,
      "d": 997.916666666657,
      "v": 1
    },
    {
      "midi": 57,
      "hit": false,
      "t": 182500.00000000012,
      "d": 747.916666666657,
      "v": 1
    },
    {
      "midi": 62,
      "hit": false,
      "t": 182500.00000000012,
      "d": 758.333333333343,
      "v": 1
    },
    {
      "midi": 69,
      "hit": false,
      "t": 182500.00000000012,
      "d": 758.333333333343,
      "v": 1
    },
    {
      "midi": 61,
      "hit": false,
      "t": 183250.00000000012,
      "d": 126.04166666665697,
      "v": 1
    },
    {
      "midi": 68,
      "hit": false,
      "t": 183250.00000000012,
      "d": 126.04166666665697,
      "v": 1
    },
    {
      "midi": 56,
      "hit": false,
      "t": 183250.00000000012,
      "d": 133.33333333331393,
      "v": 1
    },
    {
      "midi": 54,
      "hit": false,
      "t": 183375.00000000012,
      "d": 1247.916666666657,
      "v": 1
    },
    {
      "midi": 59,
      "hit": false,
      "t": 183375.00000000012,
      "d": 1253.125,
      "v": 1
    },
    {
      "midi": 66,
      "hit": false,
      "t": 183375.00000000012,
      "d": 1253.125,
      "v": 1
    },
    {
      "midi": 57,
      "hit": false,
      "t": 184750.00000000012,
      "d": 247.91666666665697,
      "v": 1
    },
    {
      "midi": 64,
      "hit": false,
      "t": 184750.00000000012,
      "d": 247.91666666665697,
      "v": 1
    },
    {
      "midi": 62,
      "hit": false,
      "t": 185000.00000000012,
      "d": 247.91666666665697,
      "v": 1
    },
    {
      "midi": 69,
      "hit": false,
      "t": 185000.00000000012,
      "d": 247.91666666665697,
      "v": 1
    },
    {
      "midi": 61,
      "hit": false,
      "t": 185250.00000000012,
      "d": 247.91666666665697,
      "v": 1
    },
    {
      "midi": 68,
      "hit": false,
      "t": 185250.00000000012,
      "d": 247.91666666665697,
      "v": 1
    },
    {
      "midi": 62,
      "hit": false,
      "t": 185500.00000000012,
      "d": 247.91666666665697,
      "v": 1
    },
    {
      "midi": 69,
      "hit": false,
      "t": 185500.00000000012,
      "d": 247.91666666665697,
      "v": 1
    },
    {
      "midi": 61,
      "hit": false,
      "t": 185750.00000000012,
      "d": 247.91666666665697,
      "v": 1
    },
    {
      "midi": 68,
      "hit": false,
      "t": 185750.00000000012,
      "d": 247.91666666665697,
      "v": 1
    },
    {
      "midi": 62,
      "hit": false,
      "t": 186000.00000000012,
      "d": 2247.916666666657,
      "v": 1
    },
    {
      "midi": 69,
      "hit": false,
      "t": 186000.00000000012,
      "d": 2247.916666666657,
      "v": 1
    },
    {
      "midi": 54,
      "hit": false,
      "t": 189000.00000000012,
      "d": 497.91666666665697,
      "v": 1
    },
    {
      "midi": 59,
      "hit": false,
      "t": 189000.00000000012,
      "d": 497.91666666665697,
      "v": 1
    },
    {
      "midi": 66,
      "hit": false,
      "t": 189000.00000000012,
      "d": 497.91666666665697,
      "v": 1
    },
    {
      "midi": 57,
      "hit": false,
      "t": 189500.00000000012,
      "d": 747.916666666657,
      "v": 1
    },
    {
      "midi": 61,
      "hit": false,
      "t": 189500.00000000012,
      "d": 747.916666666657,
      "v": 1
    },
    {
      "midi": 69,
      "hit": false,
      "t": 189500.00000000012,
      "d": 747.916666666657,
      "v": 1
    },
    {
      "midi": 52,
      "hit": false,
      "t": 190250.00000000012,
      "d": 1622.916666666657,
      "v": 1
    },
    {
      "midi": 57,
      "hit": false,
      "t": 190250.00000000012,
      "d": 1622.916666666657,
      "v": 1
    },
    {
      "midi": 64,
      "hit": false,
      "t": 190250.00000000012,
      "d": 1622.916666666657,
      "v": 1
    },
    {
      "midi": 62,
      "hit": false,
      "t": 192000.00000000012,
      "d": 247.91666666665697,
      "v": 1
    },
    {
      "midi": 66,
      "hit": false,
      "t": 192000.00000000012,
      "d": 247.91666666665697,
      "v": 1
    },
    {
      "midi": 61,
      "hit": false,
      "t": 192250.00000000012,
      "d": 497.91666666665697,
      "v": 1
    },
    {
      "midi": 66,
      "hit": false,
      "t": 192250.00000000012,
      "d": 497.91666666665697,
      "v": 1
    },
    {
      "midi": 62,
      "hit": false,
      "t": 192750.00000000012,
      "d": 487.5,
      "v": 1
    },
    {
      "midi": 66,
      "hit": false,
      "t": 192750.00000000012,
      "d": 510.41666666665697,
      "v": 1
    },
    {
      "midi": 64,
      "hit": false,
      "t": 193250.00000000012,
      "d": 497.91666666665697,
      "v": 1
    },
    {
      "midi": 61,
      "hit": false,
      "t": 193250.00000000012,
      "d": 506.25,
      "v": 1
    },
    {
      "midi": 62,
      "hit": false,
      "t": 193750.00000000012,
      "d": 497.91666666665697,
      "v": 1
    },
    {
      "midi": 69,
      "hit": false,
      "t": 193750.00000000012,
      "d": 497.91666666665697,
      "v": 1
    },
    {
      "midi": 64,
      "hit": false,
      "t": 194250.00000000012,
      "d": 497.91666666665697,
      "v": 1
    },
    {
      "midi": 71,
      "hit": false,
      "t": 194250.00000000012,
      "d": 497.91666666665697,
      "v": 1
    },
    {
      "midi": 62,
      "hit": false,
      "t": 194750.00000000012,
      "d": 247.91666666665697,
      "v": 1
    },
    {
      "midi": 69,
      "hit": false,
      "t": 194750.00000000012,
      "d": 247.91666666665697,
      "v": 1
    },
    {
      "midi": 64,
      "hit": false,
      "t": 195000.00000000012,
      "d": 872.916666666657,
      "v": 1
    },
    {
      "midi": 71,
      "hit": false,
      "t": 195000.00000000012,
      "d": 872.916666666657,
      "v": 1
    },
    {
      "midi": 69,
      "hit": false,
      "t": 196000.00000000012,
      "d": 253.125,
      "v": 1
    },
    {
      "midi": 62,
      "hit": false,
      "t": 196000.00000000012,
      "d": 260.41666666665697,
      "v": 1
    },
    {
      "midi": 64,
      "hit": false,
      "t": 196250.00000000012,
      "d": 227.08333333331393,
      "v": 1
    },
    {
      "midi": 71,
      "hit": false,
      "t": 196250.00000000012,
      "d": 247.91666666665697,
      "v": 1
    },
    {
      "midi": 66,
      "hit": false,
      "t": 196500.00000000012,
      "d": 497.91666666665697,
      "v": 1
    },
    {
      "midi": 73,
      "hit": false,
      "t": 196500.00000000012,
      "d": 497.91666666665697,
      "v": 1
    },
    {
      "midi": 64,
      "hit": false,
      "t": 197000.00000000012,
      "d": 497.91666666665697,
      "v": 1
    },
    {
      "midi": 71,
      "hit": false,
      "t": 197000.00000000012,
      "d": 497.91666666665697,
      "v": 1
    },
    {
      "midi": 62,
      "hit": false,
      "t": 197500.00000000012,
      "d": 997.916666666657,
      "v": 1
    },
    {
      "midi": 69,
      "hit": false,
      "t": 197500.00000000012,
      "d": 997.916666666657,
      "v": 1
    },
    {
      "midi": 69,
      "hit": false,
      "t": 198500.00000000012,
      "d": 737.5,
      "v": 1
    },
    {
      "midi": 66,
      "hit": false,
      "t": 198500.00000000012,
      "d": 738.541666666657,
      "v": 1
    },
    {
      "midi": 57,
      "hit": false,
      "t": 198500.00000000012,
      "d": 747.916666666657,
      "v": 1
    },
    {
      "midi": 68,
      "hit": false,
      "t": 199250.00000000012,
      "d": 123.95833333334303,
      "v": 1
    },
    {
      "midi": 64,
      "hit": false,
      "t": 199250.00000000012,
      "d": 130.20833333334303,
      "v": 1
    },
    {
      "midi": 56,
      "hit": false,
      "t": 199250.00000000012,
      "d": 133.33333333334303,
      "v": 1
    },
    {
      "midi": 66,
      "hit": false,
      "t": 199375.00000000012,
      "d": 383.33333333334303,
      "v": 1
    },
    {
      "midi": 54,
      "hit": false,
      "t": 199375.00000000012,
      "d": 1372.916666666686,
      "v": 1
    },
    {
      "midi": 62,
      "hit": false,
      "t": 199375.00000000012,
      "d": 1372.916666666686,
      "v": 1
    },
    {
      "midi": 69,
      "hit": false,
      "t": 199750.00000000012,
      "d": 997.9166666666861,
      "v": 1
    },
    {
      "midi": 57,
      "hit": false,
      "t": 201000.00000000015,
      "d": 247.91666666665697,
      "v": 1
    },
    {
      "midi": 62,
      "hit": false,
      "t": 201000.00000000015,
      "d": 247.91666666665697,
      "v": 1
    },
    {
      "midi": 69,
      "hit": false,
      "t": 201000.00000000015,
      "d": 275,
      "v": 1
    },
    {
      "midi": 56,
      "hit": false,
      "t": 201250.00000000015,
      "d": 247.91666666665697,
      "v": 1
    },
    {
      "midi": 61,
      "hit": false,
      "t": 201250.00000000015,
      "d": 247.91666666665697,
      "v": 1
    },
    {
      "midi": 68,
      "hit": false,
      "t": 201250.00000000015,
      "d": 247.91666666665697,
      "v": 1
    },
    {
      "midi": 57,
      "hit": false,
      "t": 201500.00000000015,
      "d": 247.91666666665697,
      "v": 1
    },
    {
      "midi": 62,
      "hit": false,
      "t": 201500.00000000015,
      "d": 247.91666666665697,
      "v": 1
    },
    {
      "midi": 69,
      "hit": false,
      "t": 201500.00000000015,
      "d": 259.375,
      "v": 1
    },
    {
      "midi": 56,
      "hit": false,
      "t": 201750.00000000015,
      "d": 227.08333333334303,
      "v": 1
    },
    {
      "midi": 61,
      "hit": false,
      "t": 201750.00000000015,
      "d": 247.91666666668607,
      "v": 1
    },
    {
      "midi": 68,
      "hit": false,
      "t": 201750.00000000015,
      "d": 247.91666666668607,
      "v": 1
    },
    {
      "midi": 62,
      "hit": false,
      "t": 202000.00000000017,
      "d": 1247.916666666657,
      "v": 1
    },
    {
      "midi": 69,
      "hit": false,
      "t": 202000.00000000017,
      "d": 1247.916666666657,
      "v": 1
    },
    {
      "midi": 57,
      "hit": false,
      "t": 202000.00000000017,
      "d": 1547.916666666657,
      "v": 1
    },
    {
      "midi": 62,
      "hit": false,
      "t": 203250.00000000017,
      "d": 497.91666666665697,
      "v": 1
    },
    {
      "midi": 66,
      "hit": false,
      "t": 203250.00000000017,
      "d": 497.91666666665697,
      "v": 1
    },
    {
      "midi": 61,
      "hit": false,
      "t": 203750.00000000017,
      "d": 247.91666666665697,
      "v": 1
    },
    {
      "midi": 64,
      "hit": false,
      "t": 203750.00000000017,
      "d": 247.91666666665697,
      "v": 1
    },
    {
      "midi": 62,
      "hit": false,
      "t": 204000.00000000017,
      "d": 258.33333333334303,
      "v": 1
    },
    {
      "midi": 66,
      "hit": false,
      "t": 204000.00000000017,
      "d": 259.375,
      "v": 1
    },
    {
      "midi": 61,
      "hit": false,
      "t": 204250.00000000017,
      "d": 247.91666666665697,
      "v": 1
    },
    {
      "midi": 64,
      "hit": false,
      "t": 204250.00000000017,
      "d": 247.91666666665697,
      "v": 1
    },
    {
      "midi": 59,
      "hit": false,
      "t": 204500.00000000017,
      "d": 497.91666666665697,
      "v": 1
    },
    {
      "midi": 62,
      "hit": false,
      "t": 204500.00000000017,
      "d": 497.91666666665697,
      "v": 1
    },
    {
      "midi": 54,
      "hit": false,
      "t": 205000.00000000017,
      "d": 497.91666666665697,
      "v": 1
    },
    {
      "midi": 59,
      "hit": false,
      "t": 205000.00000000017,
      "d": 497.91666666665697,
      "v": 1
    },
    {
      "midi": 66,
      "hit": false,
      "t": 205000.00000000017,
      "d": 497.91666666665697,
      "v": 1
    },
    {
      "midi": 57,
      "hit": false,
      "t": 205500.00000000017,
      "d": 247.91666666665697,
      "v": 1
    },
    {
      "midi": 61,
      "hit": false,
      "t": 205500.00000000017,
      "d": 247.91666666665697,
      "v": 1
    },
    {
      "midi": 69,
      "hit": false,
      "t": 205500.00000000017,
      "d": 247.91666666665697,
      "v": 1
    },
    {
      "midi": 57,
      "hit": false,
      "t": 205750.00000000017,
      "d": 497.91666666665697,
      "v": 1
    },
    {
      "midi": 61,
      "hit": false,
      "t": 205750.00000000017,
      "d": 497.91666666665697,
      "v": 1
    },
    {
      "midi": 69,
      "hit": false,
      "t": 205750.00000000017,
      "d": 497.91666666665697,
      "v": 1
    },
    {
      "midi": 52,
      "hit": false,
      "t": 206250.00000000017,
      "d": 1997.916666666657,
      "v": 1
    },
    {
      "midi": 57,
      "hit": false,
      "t": 206250.00000000017,
      "d": 1997.916666666657,
      "v": 1
    },
    {
      "midi": 64,
      "hit": false,
      "t": 206250.00000000017,
      "d": 1997.916666666657,
      "v": 1
    },
    {
      "midi": 57,
      "hit": false,
      "t": 209750.00000000017,
      "d": 497.91666666665697,
      "v": 1
    },
    {
      "midi": 62,
      "hit": false,
      "t": 209750.00000000017,
      "d": 497.91666666665697,
      "v": 1
    },
    {
      "midi": 69,
      "hit": false,
      "t": 209750.00000000017,
      "d": 497.91666666665697,
      "v": 1
    },
    {
      "midi": 59,
      "hit": false,
      "t": 210250.00000000017,
      "d": 497.91666666665697,
      "v": 1
    },
    {
      "midi": 64,
      "hit": false,
      "t": 210250.00000000017,
      "d": 497.91666666665697,
      "v": 1
    },
    {
      "midi": 71,
      "hit": false,
      "t": 210250.00000000017,
      "d": 497.91666666665697,
      "v": 1
    },
    {
      "midi": 57,
      "hit": false,
      "t": 210750.00000000017,
      "d": 247.91666666665697,
      "v": 1
    },
    {
      "midi": 62,
      "hit": false,
      "t": 210750.00000000017,
      "d": 247.91666666665697,
      "v": 1
    },
    {
      "midi": 69,
      "hit": false,
      "t": 210750.00000000017,
      "d": 247.91666666665697,
      "v": 1
    },
    {
      "midi": 59,
      "hit": false,
      "t": 211000.00000000017,
      "d": 872.916666666657,
      "v": 1
    },
    {
      "midi": 64,
      "hit": false,
      "t": 211000.00000000017,
      "d": 872.916666666657,
      "v": 1
    },
    {
      "midi": 71,
      "hit": false,
      "t": 211000.00000000017,
      "d": 872.916666666657,
      "v": 1
    },
    {
      "midi": 57,
      "hit": false,
      "t": 212000.00000000017,
      "d": 260.41666666665697,
      "v": 1
    },
    {
      "midi": 62,
      "hit": false,
      "t": 212000.00000000017,
      "d": 264.58333333331393,
      "v": 1
    },
    {
      "midi": 69,
      "hit": false,
      "t": 212000.00000000017,
      "d": 286.45833333331393,
      "v": 1
    },
    {
      "midi": 59,
      "hit": false,
      "t": 212250.00000000017,
      "d": 247.91666666665697,
      "v": 1
    },
    {
      "midi": 71,
      "hit": false,
      "t": 212250.00000000017,
      "d": 269.79166666665697,
      "v": 1
    },
    {
      "midi": 64,
      "hit": false,
      "t": 212250.00000000017,
      "d": 287.5,
      "v": 1
    },
    {
      "midi": 61,
      "hit": false,
      "t": 212500.00000000017,
      "d": 497.91666666665697,
      "v": 1
    },
    {
      "midi": 66,
      "hit": false,
      "t": 212500.00000000017,
      "d": 497.91666666665697,
      "v": 1
    },
    {
      "midi": 73,
      "hit": false,
      "t": 212500.00000000017,
      "d": 497.91666666665697,
      "v": 1
    },
    {
      "midi": 64,
      "hit": false,
      "t": 213000.00000000017,
      "d": 494.79166666665697,
      "v": 1
    },
    {
      "midi": 59,
      "hit": false,
      "t": 213000.00000000017,
      "d": 500,
      "v": 1
    },
    {
      "midi": 71,
      "hit": false,
      "t": 213000.00000000017,
      "d": 506.25,
      "v": 1
    },
    {
      "midi": 57,
      "hit": false,
      "t": 213500.00000000017,
      "d": 997.916666666657,
      "v": 1
    },
    {
      "midi": 62,
      "hit": false,
      "t": 213500.00000000017,
      "d": 997.916666666657,
      "v": 1
    },
    {
      "midi": 69,
      "hit": false,
      "t": 213500.00000000017,
      "d": 997.916666666657,
      "v": 1
    },
    {
      "midi": 57,
      "hit": false,
      "t": 214500.00000000017,
      "d": 747.916666666657,
      "v": 1
    },
    {
      "midi": 62,
      "hit": false,
      "t": 214500.00000000017,
      "d": 758.333333333343,
      "v": 1
    },
    {
      "midi": 69,
      "hit": false,
      "t": 214500.00000000017,
      "d": 758.333333333343,
      "v": 1
    },
    {
      "midi": 61,
      "hit": false,
      "t": 215250.00000000017,
      "d": 126.04166666665697,
      "v": 1
    },
    {
      "midi": 68,
      "hit": false,
      "t": 215250.00000000017,
      "d": 126.04166666665697,
      "v": 1
    },
    {
      "midi": 56,
      "hit": false,
      "t": 215250.00000000017,
      "d": 133.33333333331393,
      "v": 1
    },
    {
      "midi": 54,
      "hit": false,
      "t": 215375.00000000017,
      "d": 1247.916666666657,
      "v": 1
    },
    {
      "midi": 59,
      "hit": false,
      "t": 215375.00000000017,
      "d": 1253.125,
      "v": 1
    },
    {
      "midi": 66,
      "hit": false,
      "t": 215375.00000000017,
      "d": 1253.125,
      "v": 1
    },
    {
      "midi": 57,
      "hit": false,
      "t": 216750.00000000017,
      "d": 247.91666666665697,
      "v": 1
    },
    {
      "midi": 64,
      "hit": false,
      "t": 216750.00000000017,
      "d": 247.91666666665697,
      "v": 1
    },
    {
      "midi": 62,
      "hit": false,
      "t": 217000.00000000017,
      "d": 247.91666666665697,
      "v": 1
    },
    {
      "midi": 69,
      "hit": false,
      "t": 217000.00000000017,
      "d": 247.91666666665697,
      "v": 1
    },
    {
      "midi": 61,
      "hit": false,
      "t": 217250.00000000017,
      "d": 247.91666666665697,
      "v": 1
    },
    {
      "midi": 68,
      "hit": false,
      "t": 217250.00000000017,
      "d": 247.91666666665697,
      "v": 1
    },
    {
      "midi": 62,
      "hit": false,
      "t": 217500.00000000017,
      "d": 247.91666666665697,
      "v": 1
    },
    {
      "midi": 69,
      "hit": false,
      "t": 217500.00000000017,
      "d": 247.91666666665697,
      "v": 1
    },
    {
      "midi": 61,
      "hit": false,
      "t": 217750.00000000017,
      "d": 247.91666666665697,
      "v": 1
    },
    {
      "midi": 68,
      "hit": false,
      "t": 217750.00000000017,
      "d": 247.91666666665697,
      "v": 1
    },
    {
      "midi": 62,
      "hit": false,
      "t": 218000.00000000017,
      "d": 2247.916666666657,
      "v": 1
    },
    {
      "midi": 69,
      "hit": false,
      "t": 218000.00000000017,
      "d": 2247.916666666657,
      "v": 1
    },
    {
      "midi": 54,
      "hit": false,
      "t": 221000.00000000017,
      "d": 497.91666666665697,
      "v": 1
    },
    {
      "midi": 59,
      "hit": false,
      "t": 221000.00000000017,
      "d": 497.91666666665697,
      "v": 1
    },
    {
      "midi": 66,
      "hit": false,
      "t": 221000.00000000017,
      "d": 497.91666666665697,
      "v": 1
    },
    {
      "midi": 57,
      "hit": false,
      "t": 221500.00000000017,
      "d": 747.916666666657,
      "v": 1
    },
    {
      "midi": 61,
      "hit": false,
      "t": 221500.00000000017,
      "d": 747.916666666657,
      "v": 1
    },
    {
      "midi": 69,
      "hit": false,
      "t": 221500.00000000017,
      "d": 747.916666666657,
      "v": 1
    },
    {
      "midi": 52,
      "hit": false,
      "t": 222250.00000000017,
      "d": 1622.916666666657,
      "v": 1
    },
    {
      "midi": 57,
      "hit": false,
      "t": 222250.00000000017,
      "d": 1622.916666666657,
      "v": 1
    },
    {
      "midi": 64,
      "hit": false,
      "t": 222250.00000000017,
      "d": 1622.916666666657,
      "v": 1
    },
    {
      "midi": 62,
      "hit": false,
      "t": 224000.00000000017,
      "d": 247.91666666665697,
      "v": 1
    },
    {
      "midi": 66,
      "hit": false,
      "t": 224000.00000000017,
      "d": 247.91666666665697,
      "v": 1
    },
    {
      "midi": 61,
      "hit": false,
      "t": 224250.00000000017,
      "d": 497.91666666665697,
      "v": 1
    },
    {
      "midi": 66,
      "hit": false,
      "t": 224250.00000000017,
      "d": 497.91666666665697,
      "v": 1
    },
    {
      "midi": 62,
      "hit": false,
      "t": 224750.00000000017,
      "d": 487.5,
      "v": 1
    },
    {
      "midi": 66,
      "hit": false,
      "t": 224750.00000000017,
      "d": 510.41666666665697,
      "v": 1
    },
    {
      "midi": 64,
      "hit": false,
      "t": 225250.00000000017,
      "d": 497.91666666665697,
      "v": 1
    },
    {
      "midi": 61,
      "hit": false,
      "t": 225250.00000000017,
      "d": 506.25,
      "v": 1
    },
    {
      "midi": 62,
      "hit": false,
      "t": 225750.00000000017,
      "d": 497.91666666665697,
      "v": 1
    },
    {
      "midi": 69,
      "hit": false,
      "t": 225750.00000000017,
      "d": 497.91666666665697,
      "v": 1
    },
    {
      "midi": 64,
      "hit": false,
      "t": 226250.00000000017,
      "d": 497.91666666665697,
      "v": 1
    },
    {
      "midi": 71,
      "hit": false,
      "t": 226250.00000000017,
      "d": 497.91666666665697,
      "v": 1
    },
    {
      "midi": 62,
      "hit": false,
      "t": 226750.00000000017,
      "d": 247.91666666665697,
      "v": 1
    },
    {
      "midi": 69,
      "hit": false,
      "t": 226750.00000000017,
      "d": 247.91666666665697,
      "v": 1
    },
    {
      "midi": 64,
      "hit": false,
      "t": 227000.00000000017,
      "d": 872.916666666657,
      "v": 1
    },
    {
      "midi": 71,
      "hit": false,
      "t": 227000.00000000017,
      "d": 872.916666666657,
      "v": 1
    },
    {
      "midi": 69,
      "hit": false,
      "t": 228000.00000000017,
      "d": 253.125,
      "v": 1
    },
    {
      "midi": 62,
      "hit": false,
      "t": 228000.00000000017,
      "d": 260.41666666665697,
      "v": 1
    },
    {
      "midi": 64,
      "hit": false,
      "t": 228250.00000000017,
      "d": 227.08333333331393,
      "v": 1
    },
    {
      "midi": 71,
      "hit": false,
      "t": 228250.00000000017,
      "d": 247.91666666665697,
      "v": 1
    },
    {
      "midi": 66,
      "hit": false,
      "t": 228500.00000000017,
      "d": 497.91666666665697,
      "v": 1
    },
    {
      "midi": 73,
      "hit": false,
      "t": 228500.00000000017,
      "d": 497.91666666665697,
      "v": 1
    },
    {
      "midi": 64,
      "hit": false,
      "t": 229000.00000000017,
      "d": 497.91666666665697,
      "v": 1
    },
    {
      "midi": 71,
      "hit": false,
      "t": 229000.00000000017,
      "d": 497.91666666665697,
      "v": 1
    },
    {
      "midi": 62,
      "hit": false,
      "t": 229500.00000000017,
      "d": 997.916666666657,
      "v": 1
    },
    {
      "midi": 69,
      "hit": false,
      "t": 229500.00000000017,
      "d": 997.916666666657,
      "v": 1
    },
    {
      "midi": 69,
      "hit": false,
      "t": 230500.00000000017,
      "d": 737.5,
      "v": 1
    },
    {
      "midi": 66,
      "hit": false,
      "t": 230500.00000000017,
      "d": 738.541666666657,
      "v": 1
    },
    {
      "midi": 57,
      "hit": false,
      "t": 230500.00000000017,
      "d": 747.916666666657,
      "v": 1
    },
    {
      "midi": 68,
      "hit": false,
      "t": 231250.00000000017,
      "d": 123.95833333334303,
      "v": 1
    },
    {
      "midi": 64,
      "hit": false,
      "t": 231250.00000000017,
      "d": 130.20833333334303,
      "v": 1
    },
    {
      "midi": 56,
      "hit": false,
      "t": 231250.00000000017,
      "d": 133.33333333334303,
      "v": 1
    },
    {
      "midi": 66,
      "hit": false,
      "t": 231375.00000000017,
      "d": 383.33333333334303,
      "v": 1
    },
    {
      "midi": 54,
      "hit": false,
      "t": 231375.00000000017,
      "d": 1247.916666666686,
      "v": 1
    },
    {
      "midi": 62,
      "hit": false,
      "t": 231375.00000000017,
      "d": 1372.916666666686,
      "v": 1
    },
    {
      "midi": 69,
      "hit": false,
      "t": 231750.00000000017,
      "d": 997.9166666666861,
      "v": 1
    },
    {
      "midi": 57,
      "hit": false,
      "t": 233000.0000000002,
      "d": 247.91666666665697,
      "v": 1
    },
    {
      "midi": 62,
      "hit": false,
      "t": 233000.0000000002,
      "d": 247.91666666665697,
      "v": 1
    },
    {
      "midi": 69,
      "hit": false,
      "t": 233000.0000000002,
      "d": 275,
      "v": 1
    },
    {
      "midi": 56,
      "hit": false,
      "t": 233250.0000000002,
      "d": 247.91666666665697,
      "v": 1
    },
    {
      "midi": 61,
      "hit": false,
      "t": 233250.0000000002,
      "d": 247.91666666665697,
      "v": 1
    },
    {
      "midi": 68,
      "hit": false,
      "t": 233250.0000000002,
      "d": 247.91666666665697,
      "v": 1
    },
    {
      "midi": 57,
      "hit": false,
      "t": 233500.0000000002,
      "d": 247.91666666665697,
      "v": 1
    },
    {
      "midi": 62,
      "hit": false,
      "t": 233500.0000000002,
      "d": 247.91666666665697,
      "v": 1
    },
    {
      "midi": 69,
      "hit": false,
      "t": 233500.0000000002,
      "d": 259.375,
      "v": 1
    },
    {
      "midi": 56,
      "hit": false,
      "t": 233750.0000000002,
      "d": 227.08333333334303,
      "v": 1
    },
    {
      "midi": 61,
      "hit": false,
      "t": 233750.0000000002,
      "d": 247.91666666668607,
      "v": 1
    },
    {
      "midi": 68,
      "hit": false,
      "t": 233750.0000000002,
      "d": 247.91666666668607,
      "v": 1
    },
    {
      "midi": 62,
      "hit": false,
      "t": 234000.00000000023,
      "d": 1247.916666666657,
      "v": 1
    },
    {
      "midi": 69,
      "hit": false,
      "t": 234000.00000000023,
      "d": 1247.916666666657,
      "v": 1
    },
    {
      "midi": 57,
      "hit": false,
      "t": 234000.00000000023,
      "d": 1547.916666666657,
      "v": 1
    },
    {
      "midi": 62,
      "hit": false,
      "t": 235250.00000000023,
      "d": 497.91666666665697,
      "v": 1
    },
    {
      "midi": 66,
      "hit": false,
      "t": 235250.00000000023,
      "d": 497.91666666665697,
      "v": 1
    },
    {
      "midi": 61,
      "hit": false,
      "t": 235750.00000000023,
      "d": 247.91666666665697,
      "v": 1
    },
    {
      "midi": 64,
      "hit": false,
      "t": 235750.00000000023,
      "d": 247.91666666665697,
      "v": 1
    },
    {
      "midi": 62,
      "hit": false,
      "t": 236000.00000000023,
      "d": 258.33333333334303,
      "v": 1
    },
    {
      "midi": 66,
      "hit": false,
      "t": 236000.00000000023,
      "d": 259.375,
      "v": 1
    },
    {
      "midi": 61,
      "hit": false,
      "t": 236250.00000000023,
      "d": 247.91666666665697,
      "v": 1
    },
    {
      "midi": 64,
      "hit": false,
      "t": 236250.00000000023,
      "d": 247.91666666665697,
      "v": 1
    },
    {
      "midi": 59,
      "hit": false,
      "t": 236500.00000000023,
      "d": 497.91666666665697,
      "v": 1
    },
    {
      "midi": 62,
      "hit": false,
      "t": 236500.00000000023,
      "d": 497.91666666665697,
      "v": 1
    },
    {
      "midi": 54,
      "hit": false,
      "t": 237000.00000000023,
      "d": 497.91666666665697,
      "v": 1
    },
    {
      "midi": 59,
      "hit": false,
      "t": 237000.00000000023,
      "d": 497.91666666665697,
      "v": 1
    },
    {
      "midi": 66,
      "hit": false,
      "t": 237000.00000000023,
      "d": 497.91666666665697,
      "v": 1
    },
    {
      "midi": 57,
      "hit": false,
      "t": 237500.00000000023,
      "d": 247.91666666665697,
      "v": 1
    },
    {
      "midi": 61,
      "hit": false,
      "t": 237500.00000000023,
      "d": 247.91666666665697,
      "v": 1
    },
    {
      "midi": 69,
      "hit": false,
      "t": 237500.00000000023,
      "d": 247.91666666665697,
      "v": 1
    },
    {
      "midi": 57,
      "hit": false,
      "t": 237750.00000000023,
      "d": 497.91666666665697,
      "v": 1
    },
    {
      "midi": 61,
      "hit": false,
      "t": 237750.00000000023,
      "d": 497.91666666665697,
      "v": 1
    },
    {
      "midi": 69,
      "hit": false,
      "t": 237750.00000000023,
      "d": 497.91666666665697,
      "v": 1
    },
    {
      "midi": 52,
      "hit": false,
      "t": 238250.00000000023,
      "d": 1997.916666666657,
      "v": 1
    },
    {
      "midi": 57,
      "hit": false,
      "t": 238250.00000000023,
      "d": 1997.916666666657,
      "v": 1
    },
    {
      "midi": 64,
      "hit": false,
      "t": 238250.00000000023,
      "d": 1997.916666666657,
      "v": 1
    }
  ]
}