{
  "jsonPath": "Rock/Pop Rock/All Saints/never-ever-nice-hat-mix.json",
  "path": "Rock\\Pop Rock\\All Saints\\Never Ever (Nice Hat Mix).mid",
  "name": "Never Ever (Nice Hat Mix)",
  "difficulty": "Advanced",
  "bpm": 67.00002903334591,
  "notes": [
    {
      "midi": 56,
      "hit": false,
      "t": 3582.0879999999997,
      "d": 2619.40185,
      "v": 127
    },
    {
      "midi": 61,
      "hit": false,
      "t": 3582.0879999999997,
      "d": 2626.8645333333334,
      "v": 127
    },
    {
      "midi": 37,
      "hit": false,
      "t": 3582.0879999999997,
      "d": 3440.2970166666664,
      "v": 127
    },
    {
      "midi": 65,
      "hit": false,
      "t": 6268.6539999999995,
      "d": 813.432483333333,
      "v": 127
    },
    {
      "midi": 65,
      "hit": false,
      "t": 7164.1759999999995,
      "d": 2417.9094000000005,
      "v": 127
    },
    {
      "midi": 56,
      "hit": false,
      "t": 7164.1759999999995,
      "d": 2499.9989166666674,
      "v": 127
    },
    {
      "midi": 59,
      "hit": false,
      "t": 7164.1759999999995,
      "d": 2529.84965,
      "v": 127
    },
    {
      "midi": 37,
      "hit": false,
      "t": 7164.1759999999995,
      "d": 2776.118200000001,
      "v": 127
    },
    {
      "midi": 56,
      "hit": false,
      "t": 9850.742,
      "d": 783.5817500000012,
      "v": 127
    },
    {
      "midi": 63,
      "hit": false,
      "t": 9850.742,
      "d": 835.8205333333353,
      "v": 127
    },
    {
      "midi": 37,
      "hit": false,
      "t": 10298.503,
      "d": 499.9997833333364,
      "v": 127
    },
    {
      "midi": 58,
      "hit": false,
      "t": 10746.264000000003,
      "d": 2388.0586666666677,
      "v": 127
    },
    {
      "midi": 61,
      "hit": false,
      "t": 10746.264000000003,
      "d": 2499.9989166666674,
      "v": 127
    },
    {
      "midi": 54,
      "hit": false,
      "t": 10746.264000000003,
      "d": 2626.8645333333334,
      "v": 127
    },
    {
      "midi": 42,
      "hit": false,
      "t": 10746.264000000003,
      "d": 2895.5211333333336,
      "v": 127
    },
    {
      "midi": 58,
      "hit": false,
      "t": 13432.830000000004,
      "d": 768.656383333333,
      "v": 127
    },
    {
      "midi": 42,
      "hit": false,
      "t": 13880.591000000004,
      "d": 365.6714833333317,
      "v": 100
    },
    {
      "midi": 61,
      "hit": false,
      "t": 14328.352000000003,
      "d": 2544.7750166666665,
      "v": 127
    },
    {
      "midi": 56,
      "hit": false,
      "t": 14328.352000000003,
      "d": 2574.6257499999992,
      "v": 127
    },
    {
      "midi": 37,
      "hit": false,
      "t": 14328.352000000003,
      "d": 3395.520916666661,
      "v": 123
    },
    {
      "midi": 56,
      "hit": false,
      "t": 17014.918,
      "d": 634.3280833333301,
      "v": 127
    },
    {
      "midi": 53,
      "hit": false,
      "t": 17910.439999999995,
      "d": 2432.834766666667,
      "v": 82
    },
    {
      "midi": 56,
      "hit": false,
      "t": 17910.439999999995,
      "d": 2492.5362333333323,
      "v": 125
    },
    {
      "midi": 61,
      "hit": false,
      "t": 17910.439999999995,
      "d": 2522.386966666665,
      "v": 127
    },
    {
      "midi": 37,
      "hit": false,
      "t": 17910.439999999995,
      "d": 3350.7448166666654,
      "v": 110
    },
    {
      "midi": 65,
      "hit": false,
      "t": 20597.005999999994,
      "d": 611.9400333333324,
      "v": 125
    },
    {
      "midi": 56,
      "hit": false,
      "t": 21194.02066666666,
      "d": 283.58196666666845,
      "v": 78
    },
    {
      "midi": 56,
      "hit": false,
      "t": 21492.527999999995,
      "d": 1798.506683333333,
      "v": 127
    },
    {
      "midi": 59,
      "hit": false,
      "t": 21492.527999999995,
      "d": 1813.4320499999994,
      "v": 116
    },
    {
      "midi": 65,
      "hit": false,
      "t": 21492.527999999995,
      "d": 1828.3574166666658,
      "v": 121
    },
    {
      "midi": 37,
      "hit": false,
      "t": 21492.527999999995,
      "d": 3462.685066666665,
      "v": 116
    },
    {
      "midi": 59,
      "hit": false,
      "t": 24179.093999999994,
      "d": 365.6714833333317,
      "v": 98
    },
    {
      "midi": 65,
      "hit": false,
      "t": 24179.093999999994,
      "d": 783.5817500000012,
      "v": 127
    },
    {
      "midi": 68,
      "hit": false,
      "t": 24179.093999999994,
      "d": 783.5817500000012,
      "v": 127
    },
    {
      "midi": 59,
      "hit": false,
      "t": 24626.854999999992,
      "d": 320.8953833333326,
      "v": 2
    },
    {
      "midi": 63,
      "hit": false,
      "t": 25074.615999999995,
      "d": 2231.342316666669,
      "v": 127
    },
    {
      "midi": 56,
      "hit": false,
      "t": 25074.615999999995,
      "d": 2246.2676833333353,
      "v": 97
    },
    {
      "midi": 60,
      "hit": false,
      "t": 25074.615999999995,
      "d": 2268.6557333333367,
      "v": 123
    },
    {
      "midi": 44,
      "hit": false,
      "t": 25074.615999999995,
      "d": 3305.96871666667,
      "v": 127
    },
    {
      "midi": 60,
      "hit": false,
      "t": 27761.181999999997,
      "d": 477.611733333335,
      "v": 127
    },
    {
      "midi": 66,
      "hit": false,
      "t": 28656.703999999998,
      "d": 2134.327433333332,
      "v": 127
    },
    {
      "midi": 63,
      "hit": false,
      "t": 28656.703999999998,
      "d": 2164.1781666666648,
      "v": 127
    },
    {
      "midi": 60,
      "hit": false,
      "t": 28656.703999999998,
      "d": 2276.1184166666644,
      "v": 110
    },
    {
      "midi": 44,
      "hit": false,
      "t": 28656.703999999998,
      "d": 3492.535799999998,
      "v": 125
    },
    {
      "midi": 60,
      "hit": false,
      "t": 31343.269999999997,
      "d": 664.1788166666665,
      "v": 82
    },
    {
      "midi": 68,
      "hit": false,
      "t": 31343.269999999997,
      "d": 828.3578500000003,
      "v": 127
    },
    {
      "midi": 63,
      "hit": false,
      "t": 31343.269999999997,
      "d": 843.2832166666667,
      "v": 127
    },
    {
      "midi": 53,
      "hit": false,
      "t": 32238.791999999998,
      "d": 2447.760133333333,
      "v": 76
    },
    {
      "midi": 56,
      "hit": false,
      "t": 32238.791999999998,
      "d": 2492.536233333336,
      "v": 127
    },
    {
      "midi": 61,
      "hit": false,
      "t": 32238.791999999998,
      "d": 2507.461600000006,
      "v": 127
    },
    {
      "midi": 37,
      "hit": false,
      "t": 32238.791999999998,
      "d": 3261.192616666671,
      "v": 110
    },
    {
      "midi": 65,
      "hit": false,
      "t": 34925.358,
      "d": 477.61173333333136,
      "v": 127
    },
    {
      "midi": 37,
      "hit": false,
      "t": 35820.880000000005,
      "d": 1723.8798499999975,
      "v": 127
    },
    {
      "midi": 65,
      "hit": false,
      "t": 35820.880000000005,
      "d": 3470.1477499999964,
      "v": 127
    },
    {
      "midi": 59,
      "hit": false,
      "t": 35820.880000000005,
      "d": 3492.535799999998,
      "v": 102
    },
    {
      "midi": 56,
      "hit": false,
      "t": 35820.880000000005,
      "d": 3604.4760500000048,
      "v": 93
    },
    {
      "midi": 39,
      "hit": false,
      "t": 37611.924,
      "d": 828.3578500000003,
      "v": 127
    },
    {
      "midi": 41,
      "hit": false,
      "t": 38507.445999999996,
      "d": 805.9698000000062,
      "v": 127
    },
    {
      "midi": 54,
      "hit": false,
      "t": 39402.96800000001,
      "d": 2067.163283333335,
      "v": 127
    },
    {
      "midi": 58,
      "hit": false,
      "t": 39402.96800000001,
      "d": 2074.6259666666665,
      "v": 127
    },
    {
      "midi": 61,
      "hit": false,
      "t": 39402.96800000001,
      "d": 2171.6408500000034,
      "v": 127
    },
    {
      "midi": 42,
      "hit": false,
      "t": 39402.96800000001,
      "d": 3499.9984833333365,
      "v": 127
    },
    {
      "midi": 54,
      "hit": false,
      "t": 42089.534000000014,
      "d": 186.56708333333518,
      "v": 123
    },
    {
      "midi": 58,
      "hit": false,
      "t": 42089.534000000014,
      "d": 447.7609999999986,
      "v": 127
    },
    {
      "midi": 53,
      "hit": false,
      "t": 42985.05600000001,
      "d": 2223.8796333333303,
      "v": 110
    },
    {
      "midi": 56,
      "hit": false,
      "t": 42985.05600000001,
      "d": 2358.2079333333313,
      "v": 125
    },
    {
      "midi": 61,
      "hit": false,
      "t": 42985.05600000001,
      "d": 2395.5213499999954,
      "v": 115
    },
    {
      "midi": 37,
      "hit": false,
      "t": 42985.05600000001,
      "d": 2432.8347666666596,
      "v": 125
    },
    {
      "midi": 56,
      "hit": false,
      "t": 45671.622,
      "d": 499.99978333333274,
      "v": 127
    },
    {
      "midi": 37,
      "hit": false,
      "t": 46119.383,
      "d": 2507.4616000000024,
      "v": 117
    },
    {
      "midi": 56,
      "hit": false,
      "t": 46567.144,
      "d": 1686.5664333333334,
      "v": 125
    },
    {
      "midi": 65,
      "hit": false,
      "t": 46567.144,
      "d": 1708.9544833333348,
      "v": 117
    },
    {
      "midi": 61,
      "hit": false,
      "t": 46567.144,
      "d": 1716.4171666666662,
      "v": 121
    },
    {
      "midi": 65,
      "hit": false,
      "t": 48358.188,
      "d": 671.6414999999979,
      "v": 115
    },
    {
      "midi": 61,
      "hit": false,
      "t": 48358.188,
      "d": 708.954916666662,
      "v": 110
    },
    {
      "midi": 37,
      "hit": false,
      "t": 48805.949,
      "d": 791.0444333333289,
      "v": 101
    },
    {
      "midi": 61,
      "hit": false,
      "t": 49253.71,
      "d": 514.9251499999955,
      "v": 127
    },
    {
      "midi": 65,
      "hit": false,
      "t": 49253.71,
      "d": 768.6563833333275,
      "v": 127
    },
    {
      "midi": 37,
      "hit": false,
      "t": 49701.471,
      "d": 358.20879999999306,
      "v": 97
    },
    {
      "midi": 60,
      "hit": false,
      "t": 50149.23199999999,
      "d": 1544.7754499999937,
      "v": 125
    },
    {
      "midi": 63,
      "hit": false,
      "t": 50149.23199999999,
      "d": 1641.7903333333306,
      "v": 127
    },
    {
      "midi": 56,
      "hit": false,
      "t": 50149.23199999999,
      "d": 1664.178383333332,
      "v": 127
    },
    {
      "midi": 44,
      "hit": false,
      "t": 50149.23199999999,
      "d": 3492.535799999998,
      "v": 127
    },
    {
      "midi": 56,
      "hit": false,
      "t": 51940.27599999999,
      "d": 164.1790333333338,
      "v": 102
    },
    {
      "midi": 60,
      "hit": false,
      "t": 51940.27599999999,
      "d": 425.3729499999972,
      "v": 105
    },
    {
      "midi": 63,
      "hit": false,
      "t": 51940.27599999999,
      "d": 485.0744166666627,
      "v": 115
    },
    {
      "midi": 56,
      "hit": false,
      "t": 52462.66383333332,
      "d": 283.5819666666648,
      "v": 47
    },
    {
      "midi": 56,
      "hit": false,
      "t": 52835.79799999998,
      "d": 126.86561666666967,
      "v": 110
    },
    {
      "midi": 60,
      "hit": false,
      "t": 52835.79799999998,
      "d": 462.6863666666686,
      "v": 110
    },
    {
      "midi": 63,
      "hit": false,
      "t": 52835.79799999998,
      "d": 477.61173333333863,
      "v": 127
    },
    {
      "midi": 56,
      "hit": false,
      "t": 53358.18583333332,
      "d": 171.64171666666516,
      "v": 90
    },
    {
      "midi": 42,
      "hit": false,
      "t": 53731.319999999985,
      "d": 1664.178383333332,
      "v": 127
    },
    {
      "midi": 54,
      "hit": false,
      "t": 53731.319999999985,
      "d": 1708.9544833333348,
      "v": 123
    },
    {
      "midi": 58,
      "hit": false,
      "t": 53731.319999999985,
      "d": 1708.9544833333348,
      "v": 116
    },
    {
      "midi": 61,
      "hit": false,
      "t": 53731.319999999985,
      "d": 1708.9544833333348,
      "v": 127
    },
    {
      "midi": 41,
      "hit": false,
      "t": 55522.36399999999,
      "d": 888.0593166666658,
      "v": 115
    },
    {
      "midi": 56,
      "hit": false,
      "t": 55522.36399999999,
      "d": 888.0593166666658,
      "v": 123
    },
    {
      "midi": 61,
      "hit": false,
      "t": 55522.36399999999,
      "d": 888.0593166666658,
      "v": 123
    },
    {
      "midi": 39,
      "hit": false,
      "t": 56417.885999999984,
      "d": 865.6712666666645,
      "v": 127
    },
    {
      "midi": 54,
      "hit": false,
      "t": 56417.885999999984,
      "d": 888.0593166666658,
      "v": 123
    },
    {
      "midi": 61,
      "hit": false,
      "t": 56417.885999999984,
      "d": 888.0593166666658,
      "v": 123
    },
    {
      "midi": 53,
      "hit": false,
      "t": 57313.40799999998,
      "d": 2380.5959833333327,
      "v": 117
    },
    {
      "midi": 56,
      "hit": false,
      "t": 57313.40799999998,
      "d": 2380.5959833333327,
      "v": 127
    },
    {
      "midi": 61,
      "hit": false,
      "t": 57313.40799999998,
      "d": 2380.5959833333327,
      "v": 127
    },
    {
      "midi": 37,
      "hit": false,
      "t": 57313.40799999998,
      "d": 2679.1033166666675,
      "v": 105
    },
    {
      "midi": 56,
      "hit": false,
      "t": 59999.97399999998,
      "d": 813.4324833333303,
      "v": 117
    },
    {
      "midi": 53,
      "hit": false,
      "t": 60917.88405,
      "d": 2238.8050000000003,
      "v": 90
    },
    {
      "midi": 56,
      "hit": false,
      "t": 60917.88405,
      "d": 2246.2676833333317,
      "v": 108
    },
    {
      "midi": 61,
      "hit": false,
      "t": 60917.88405,
      "d": 2253.730366666663,
      "v": 108
    },
    {
      "midi": 61,
      "hit": false,
      "t": 63604.45005,
      "d": 611.9400333333324,
      "v": 97
    },
    {
      "midi": 65,
      "hit": false,
      "t": 63604.45005,
      "d": 619.4027166666638,
      "v": 92
    },
    {
      "midi": 59,
      "hit": false,
      "t": 64470.121316666664,
      "d": 2544.7750166666738,
      "v": 90
    },
    {
      "midi": 65,
      "hit": false,
      "t": 64470.121316666664,
      "d": 2567.163066666668,
      "v": 81
    },
    {
      "midi": 56,
      "hit": false,
      "t": 64470.121316666664,
      "d": 2597.013800000008,
      "v": 85
    },
    {
      "midi": 61,
      "hit": false,
      "t": 64470.121316666664,
      "d": 2604.4764833333393,
      "v": 83
    },
    {
      "midi": 63,
      "hit": false,
      "t": 67179.07536666667,
      "d": 597.0146666666697,
      "v": 105
    },
    {
      "midi": 56,
      "hit": false,
      "t": 67194.00073333333,
      "d": 582.0893000000069,
      "v": 108
    },
    {
      "midi": 59,
      "hit": false,
      "t": 67201.46341666667,
      "d": 537.3132000000041,
      "v": 90
    },
    {
      "midi": 54,
      "hit": false,
      "t": 68089.52273333335,
      "d": 2014.9244999999937,
      "v": 114
    },
    {
      "midi": 58,
      "hit": false,
      "t": 68096.98541666668,
      "d": 1947.7603499999968,
      "v": 108
    },
    {
      "midi": 61,
      "hit": false,
      "t": 68096.98541666668,
      "d": 1985.0737666666682,
      "v": 105
    },
    {
      "midi": 54,
      "hit": false,
      "t": 70753.70068333334,
      "d": 470.14905000000726,
      "v": 114
    },
    {
      "midi": 59,
      "hit": false,
      "t": 70753.70068333334,
      "d": 477.61173333333863,
      "v": 104
    },
    {
      "midi": 63,
      "hit": false,
      "t": 70753.70068333334,
      "d": 485.07441666667,
      "v": 114
    },
    {
      "midi": 53,
      "hit": false,
      "t": 71664.14805,
      "d": 2350.7452499999927,
      "v": 95
    },
    {
      "midi": 56,
      "hit": false,
      "t": 71671.61073333333,
      "d": 2440.297449999998,
      "v": 114
    },
    {
      "midi": 61,
      "hit": false,
      "t": 71671.61073333333,
      "d": 2455.222816666661,
      "v": 114
    },
    {
      "midi": 53,
      "hit": false,
      "t": 75246.23604999999,
      "d": 2559.7003833333292,
      "v": 90
    },
    {
      "midi": 61,
      "hit": false,
      "t": 75246.23604999999,
      "d": 2574.625749999992,
      "v": 113
    },
    {
      "midi": 56,
      "hit": false,
      "t": 75246.23604999999,
      "d": 2597.013799999986,
      "v": 114
    },
    {
      "midi": 56,
      "hit": false,
      "t": 77895.48863333331,
      "d": 425.37294999998994,
      "v": 81
    },
    {
      "midi": 61,
      "hit": false,
      "t": 77910.41399999998,
      "d": 402.98489999999583,
      "v": 97
    },
    {
      "midi": 65,
      "hit": false,
      "t": 78776.08526666663,
      "d": 2477.610866666655,
      "v": 85
    },
    {
      "midi": 59,
      "hit": false,
      "t": 78783.54794999996,
      "d": 2455.222816666661,
      "v": 86
    },
    {
      "midi": 61,
      "hit": false,
      "t": 78783.54794999996,
      "d": 2455.222816666661,
      "v": 92
    },
    {
      "midi": 56,
      "hit": false,
      "t": 78783.54794999996,
      "d": 2485.0735499999864,
      "v": 94
    },
    {
      "midi": 60,
      "hit": false,
      "t": 82395.48668333328,
      "d": 1858.2081499999913,
      "v": 105
    },
    {
      "midi": 63,
      "hit": false,
      "t": 82395.48668333328,
      "d": 2037.3125499999878,
      "v": 114
    },
    {
      "midi": 54,
      "hit": false,
      "t": 82395.48668333328,
      "d": 2044.7752333333192,
      "v": 114
    },
    {
      "midi": 54,
      "hit": false,
      "t": 84910.41096666659,
      "d": 97.01488333333691,
      "v": 56
    },
    {
      "midi": 60,
      "hit": false,
      "t": 85074.58999999994,
      "d": 492.5371000000014,
      "v": 108
    },
    {
      "midi": 65,
      "hit": false,
      "t": 85082.05268333327,
      "d": 470.14905000000726,
      "v": 108
    },
    {
      "midi": 60,
      "hit": false,
      "t": 85977.57468333328,
      "d": 2485.073550000001,
      "v": 108
    },
    {
      "midi": 66,
      "hit": false,
      "t": 85977.57468333328,
      "d": 2499.9989166666637,
      "v": 114
    },
    {
      "midi": 60,
      "hit": false,
      "t": 88656.67799999994,
      "d": 843.2832166666631,
      "v": 108
    },
    {
      "midi": 65,
      "hit": false,
      "t": 88664.14068333327,
      "d": 828.3578500000003,
      "v": 104
    },
    {
      "midi": 61,
      "hit": false,
      "t": 89552.19999999994,
      "d": 3074.6255333333393,
      "v": 110
    },
    {
      "midi": 53,
      "hit": false,
      "t": 89552.19999999994,
      "d": 3089.550900000002,
      "v": 94
    },
    {
      "midi": 56,
      "hit": false,
      "t": 89552.19999999994,
      "d": 3089.550900000002,
      "v": 114
    },
    {
      "midi": 53,
      "hit": false,
      "t": 93141.75068333327,
      "d": 2485.073550000001,
      "v": 100
    },
    {
      "midi": 59,
      "hit": false,
      "t": 93141.75068333327,
      "d": 2664.1779499999975,
      "v": 108
    },
    {
      "midi": 61,
      "hit": false,
      "t": 93141.75068333327,
      "d": 3067.1628499999933,
      "v": 105
    },
    {
      "midi": 56,
      "hit": false,
      "t": 93141.75068333327,
      "d": 3082.088216666656,
      "v": 114
    },
    {
      "midi": 53,
      "hit": false,
      "t": 95850.70473333327,
      "d": 350.7461166666617,
      "v": 83
    },
    {
      "midi": 61,
      "hit": false,
      "t": 96738.76404999993,
      "d": 1485.0739833333355,
      "v": 114
    },
    {
      "midi": 58,
      "hit": false,
      "t": 96738.76404999993,
      "d": 1544.775450000001,
      "v": 108
    },
    {
      "midi": 54,
      "hit": false,
      "t": 96746.22673333326,
      "d": 1447.760566666664,
      "v": 114
    },
    {
      "midi": 54,
      "hit": false,
      "t": 98313.39023333327,
      "d": 97.01488333333691,
      "v": 64
    },
    {
      "midi": 63,
      "hit": false,
      "t": 98514.88268333327,
      "d": 820.895166666669,
      "v": 114
    },
    {
      "midi": 59,
      "hit": false,
      "t": 98522.3453666666,
      "d": 656.7161333333352,
      "v": 101
    },
    {
      "midi": 54,
      "hit": false,
      "t": 98522.3453666666,
      "d": 805.9698000000062,
      "v": 114
    },
    {
      "midi": 54,
      "hit": false,
      "t": 99380.55394999994,
      "d": 835.8205333333317,
      "v": 101
    },
    {
      "midi": 58,
      "hit": false,
      "t": 99380.55394999994,
      "d": 843.2832166666631,
      "v": 114
    },
    {
      "midi": 61,
      "hit": false,
      "t": 99380.55394999994,
      "d": 843.2832166666631,
      "v": 104
    },
    {
      "midi": 53,
      "hit": false,
      "t": 100298.46399999993,
      "d": 3171.6404166666616,
      "v": 101
    },
    {
      "midi": 61,
      "hit": false,
      "t": 100298.46399999993,
      "d": 3291.0433499999926,
      "v": 114
    },
    {
      "midi": 56,
      "hit": false,
      "t": 100298.46399999993,
      "d": 3335.8194499999954,
      "v": 114
    },
    {
      "midi": 56,
      "hit": false,
      "t": 103895.4773666666,
      "d": 3171.6404166666616,
      "v": 108
    },
    {
      "midi": 61,
      "hit": false,
      "t": 103895.4773666666,
      "d": 3186.5657833333244,
      "v": 103
    },
    {
      "midi": 53,
      "hit": false,
      "t": 103902.94004999993,
      "d": 3141.789683333336,
      "v": 81
    },
    {
      "midi": 63,
      "hit": false,
      "t": 107455.1773166666,
      "d": 2470.1481833333382,
      "v": 97
    },
    {
      "midi": 56,
      "hit": false,
      "t": 107455.1773166666,
      "d": 2492.5362333333323,
      "v": 108
    },
    {
      "midi": 60,
      "hit": false,
      "t": 107462.63999999993,
      "d": 2470.1481833333382,
      "v": 114
    }
  ]
}