{
  "jsonPath": "Soundtracks/Video Game Music/SpongeBob SquarePants Battle for Bikini Bottom/spongebob-squarepants-battle-for-bikini-bottom-spongebobsneighborhood.json",
  "path": "Soundtracks\\Video Game Music\\SpongeBob SquarePants Battle for Bikini Bottom\\SpongeBob_SquarePants_Battle_for_Bikini_Bottom_SpongeBobsNeighborhood.mid",
  "name": "SpongeBob_SquarePants_Battle_for_Bikini_Bottom_SpongeBobsNeighborhood",
  "difficulty": "Advanced",
  "bpm": 120,
  "notes": [
    {
      "midi": 62,
      "hit": false,
      "t": 1736.4583333333333,
      "d": 141.66666666666652,
      "v": 56
    },
    {
      "midi": 59,
      "hit": false,
      "t": 1832.2916666666665,
      "d": 140.625,
      "v": 79
    },
    {
      "midi": 55,
      "hit": false,
      "t": 1974.9999999999998,
      "d": 288.54166666666674,
      "v": 72
    },
    {
      "midi": 43,
      "hit": false,
      "t": 2000,
      "d": 253.125,
      "v": 63
    },
    {
      "midi": 50,
      "hit": false,
      "t": 2203.125,
      "d": 105.20833333333348,
      "v": 61
    },
    {
      "midi": 47,
      "hit": false,
      "t": 2213.5416666666665,
      "d": 72.91666666666697,
      "v": 72
    },
    {
      "midi": 59,
      "hit": false,
      "t": 2225,
      "d": 296.87499999999955,
      "v": 72
    },
    {
      "midi": 38,
      "hit": false,
      "t": 2464.5833333333335,
      "d": 277.0833333333335,
      "v": 68
    },
    {
      "midi": 62,
      "hit": false,
      "t": 2495.833333333333,
      "d": 264.58333333333303,
      "v": 72
    },
    {
      "midi": 47,
      "hit": false,
      "t": 2721.875,
      "d": 81.25000000000045,
      "v": 66
    },
    {
      "midi": 50,
      "hit": false,
      "t": 2723.9583333333335,
      "d": 84.37500000000045,
      "v": 51
    },
    {
      "midi": 67,
      "hit": false,
      "t": 2724.9999999999995,
      "d": 92.70833333333303,
      "v": 75
    },
    {
      "midi": 67,
      "hit": false,
      "t": 2980.2083333333326,
      "d": 138.54166666666652,
      "v": 79
    },
    {
      "midi": 43,
      "hit": false,
      "t": 2991.6666666666674,
      "d": 258.3333333333335,
      "v": 76
    },
    {
      "midi": 69,
      "hit": false,
      "t": 3102.0833333333326,
      "d": 185.41666666666652,
      "v": 62
    },
    {
      "midi": 67,
      "hit": false,
      "t": 3217.7083333333326,
      "d": 158.33333333333303,
      "v": 85
    },
    {
      "midi": 50,
      "hit": false,
      "t": 3238.5416666666674,
      "d": 136.45833333333394,
      "v": 56
    },
    {
      "midi": 47,
      "hit": false,
      "t": 3252.0833333333344,
      "d": 105.20833333333348,
      "v": 63
    },
    {
      "midi": 66,
      "hit": false,
      "t": 3341.6666666666656,
      "d": 115.625,
      "v": 96
    },
    {
      "midi": 67,
      "hit": false,
      "t": 3479.1666666666656,
      "d": 523.9583333333335,
      "v": 90
    },
    {
      "midi": 38,
      "hit": false,
      "t": 3482.291666666668,
      "d": 277.0833333333335,
      "v": 71
    },
    {
      "midi": 47,
      "hit": false,
      "t": 3722.916666666668,
      "d": 82.29166666666697,
      "v": 72
    },
    {
      "midi": 50,
      "hit": false,
      "t": 3726.041666666668,
      "d": 98.95833333333348,
      "v": 64
    },
    {
      "midi": 64,
      "hit": false,
      "t": 3984.374999999999,
      "d": 310.41666666666606,
      "v": 72
    },
    {
      "midi": 48,
      "hit": false,
      "t": 4015.6250000000014,
      "d": 287.50000000000045,
      "v": 72
    },
    {
      "midi": 52,
      "hit": false,
      "t": 4231.250000000002,
      "d": 90.625,
      "v": 71
    },
    {
      "midi": 55,
      "hit": false,
      "t": 4232.291666666669,
      "d": 104.16666666666606,
      "v": 62
    },
    {
      "midi": 60,
      "hit": false,
      "t": 4252.083333333332,
      "d": 323.95833333333303,
      "v": 76
    },
    {
      "midi": 43,
      "hit": false,
      "t": 4469.791666666668,
      "d": 290.625,
      "v": 75
    },
    {
      "midi": 64,
      "hit": false,
      "t": 4501.041666666665,
      "d": 298.95833333333303,
      "v": 69
    },
    {
      "midi": 55,
      "hit": false,
      "t": 4722.916666666668,
      "d": 111.45833333333303,
      "v": 56
    },
    {
      "midi": 52,
      "hit": false,
      "t": 4727.083333333335,
      "d": 102.08333333333303,
      "v": 69
    },
    {
      "midi": 67,
      "hit": false,
      "t": 4749.999999999998,
      "d": 90.625,
      "v": 71
    },
    {
      "midi": 48,
      "hit": false,
      "t": 4975.000000000001,
      "d": 280.20833333333303,
      "v": 72
    },
    {
      "midi": 67,
      "hit": false,
      "t": 4993.749999999998,
      "d": 115.625,
      "v": 78
    },
    {
      "midi": 69,
      "hit": false,
      "t": 5102.083333333331,
      "d": 190.625,
      "v": 64
    },
    {
      "midi": 55,
      "hit": false,
      "t": 5208.333333333334,
      "d": 156.25,
      "v": 58
    },
    {
      "midi": 52,
      "hit": false,
      "t": 5217.708333333334,
      "d": 132.29166666666697,
      "v": 66
    },
    {
      "midi": 67,
      "hit": false,
      "t": 5234.374999999998,
      "d": 170.83333333333303,
      "v": 77
    },
    {
      "midi": 66,
      "hit": false,
      "t": 5348.958333333331,
      "d": 116.66666666666697,
      "v": 89
    },
    {
      "midi": 43,
      "hit": false,
      "t": 5477.083333333334,
      "d": 290.625,
      "v": 58
    },
    {
      "midi": 67,
      "hit": false,
      "t": 5483.333333333331,
      "d": 548.958333333333,
      "v": 82
    },
    {
      "midi": 52,
      "hit": false,
      "t": 5739.583333333334,
      "d": 89.58333333333303,
      "v": 70
    },
    {
      "midi": 55,
      "hit": false,
      "t": 5740.625000000001,
      "d": 114.58333333333303,
      "v": 59
    },
    {
      "midi": 50,
      "hit": false,
      "t": 5983.333333333334,
      "d": 303.125,
      "v": 56
    },
    {
      "midi": 66,
      "hit": false,
      "t": 6004.166666666664,
      "d": 263.54166666666606,
      "v": 74
    },
    {
      "midi": 54,
      "hit": false,
      "t": 6232.291666666667,
      "d": 103.125,
      "v": 66
    },
    {
      "midi": 57,
      "hit": false,
      "t": 6238.541666666667,
      "d": 114.58333333333303,
      "v": 63
    },
    {
      "midi": 62,
      "hit": false,
      "t": 6246.874999999997,
      "d": 394.79166666666697,
      "v": 69
    },
    {
      "midi": 45,
      "hit": false,
      "t": 6483.333333333333,
      "d": 276.04166666666606,
      "v": 82
    },
    {
      "midi": 66,
      "hit": false,
      "t": 6490.624999999997,
      "d": 309.375,
      "v": 57
    },
    {
      "midi": 57,
      "hit": false,
      "t": 6747.916666666666,
      "d": 111.45833333333303,
      "v": 62
    },
    {
      "midi": 69,
      "hit": false,
      "t": 6751.041666666664,
      "d": 85.41666666666606,
      "v": 77
    },
    {
      "midi": 54,
      "hit": false,
      "t": 6751.041666666666,
      "d": 103.125,
      "v": 76
    },
    {
      "midi": 50,
      "hit": false,
      "t": 6981.249999999999,
      "d": 283.33333333333394,
      "v": 72
    },
    {
      "midi": 74,
      "hit": false,
      "t": 7001.041666666663,
      "d": 153.125,
      "v": 77
    },
    {
      "midi": 76,
      "hit": false,
      "t": 7115.624999999996,
      "d": 194.79166666666697,
      "v": 79
    },
    {
      "midi": 54,
      "hit": false,
      "t": 7218.749999999999,
      "d": 178.1250000000009,
      "v": 59
    },
    {
      "midi": 57,
      "hit": false,
      "t": 7219.791666666666,
      "d": 202.08333333333394,
      "v": 59
    },
    {
      "midi": 74,
      "hit": false,
      "t": 7249.999999999996,
      "d": 152.08333333333394,
      "v": 82
    },
    {
      "midi": 72,
      "hit": false,
      "t": 7355.20833333333,
      "d": 188.54166666666697,
      "v": 37
    },
    {
      "midi": 45,
      "hit": false,
      "t": 7482.291666666667,
      "d": 307.29166666666697,
      "v": 64
    },
    {
      "midi": 74,
      "hit": false,
      "t": 7511.45833333333,
      "d": 382.29166666666697,
      "v": 102
    },
    {
      "midi": 57,
      "hit": false,
      "t": 7735.416666666667,
      "d": 89.58333333333394,
      "v": 55
    },
    {
      "midi": 54,
      "hit": false,
      "t": 7742.708333333334,
      "d": 107.29166666666697,
      "v": 61
    },
    {
      "midi": 72,
      "hit": false,
      "t": 7880.20833333333,
      "d": 143.75,
      "v": 74
    },
    {
      "midi": 43,
      "hit": false,
      "t": 7992.708333333334,
      "d": 285.41666666666606,
      "v": 67
    },
    {
      "midi": 71,
      "hit": false,
      "t": 8011.45833333333,
      "d": 1427.083333333334,
      "v": 89
    },
    {
      "midi": 47,
      "hit": false,
      "t": 8227.083333333334,
      "d": 104.16666666666606,
      "v": 68
    },
    {
      "midi": 50,
      "hit": false,
      "t": 8233.333333333334,
      "d": 116.66666666666606,
      "v": 51
    },
    {
      "midi": 38,
      "hit": false,
      "t": 8498.958333333334,
      "d": 257.29166666666606,
      "v": 77
    },
    {
      "midi": 47,
      "hit": false,
      "t": 8737.5,
      "d": 94.79166666666606,
      "v": 70
    },
    {
      "midi": 50,
      "hit": false,
      "t": 8741.666666666666,
      "d": 108.33333333333394,
      "v": 58
    },
    {
      "midi": 43,
      "hit": false,
      "t": 8991.666666666666,
      "d": 263.54166666666606,
      "v": 58
    },
    {
      "midi": 47,
      "hit": false,
      "t": 9241.666666666666,
      "d": 110.41666666666606,
      "v": 82
    },
    {
      "midi": 50,
      "hit": false,
      "t": 9247.916666666666,
      "d": 80.20833333333212,
      "v": 59
    },
    {
      "midi": 38,
      "hit": false,
      "t": 9472.916666666666,
      "d": 291.66666666666606,
      "v": 75
    },
    {
      "midi": 47,
      "hit": false,
      "t": 9737.5,
      "d": 117.70833333333212,
      "v": 75
    },
    {
      "midi": 50,
      "hit": false,
      "t": 9741.666666666666,
      "d": 132.29166666666606,
      "v": 68
    },
    {
      "midi": 62,
      "hit": false,
      "t": 9749.999999999998,
      "d": 138.54166666666606,
      "v": 69
    },
    {
      "midi": 59,
      "hit": false,
      "t": 9846.874999999998,
      "d": 151.04166666666606,
      "v": 89
    },
    {
      "midi": 43,
      "hit": false,
      "t": 9969.791666666666,
      "d": 297.9166666666679,
      "v": 88
    },
    {
      "midi": 55,
      "hit": false,
      "t": 9996.874999999998,
      "d": 256.25,
      "v": 81
    },
    {
      "midi": 50,
      "hit": false,
      "t": 10218.75,
      "d": 123.95833333333394,
      "v": 63
    },
    {
      "midi": 47,
      "hit": false,
      "t": 10223.958333333334,
      "d": 120.83333333333394,
      "v": 55
    },
    {
      "midi": 59,
      "hit": false,
      "t": 10255.208333333332,
      "d": 294.79166666666606,
      "v": 75
    },
    {
      "midi": 38,
      "hit": false,
      "t": 10495.833333333334,
      "d": 272.91666666666606,
      "v": 56
    },
    {
      "midi": 62,
      "hit": false,
      "t": 10499.999999999998,
      "d": 280.20833333333394,
      "v": 79
    },
    {
      "midi": 47,
      "hit": false,
      "t": 10732.291666666668,
      "d": 91.66666666666606,
      "v": 74
    },
    {
      "midi": 50,
      "hit": false,
      "t": 10739.583333333334,
      "d": 97.91666666666606,
      "v": 61
    },
    {
      "midi": 67,
      "hit": false,
      "t": 10740.624999999998,
      "d": 93.75,
      "v": 73
    },
    {
      "midi": 43,
      "hit": false,
      "t": 10975,
      "d": 266.66666666666606,
      "v": 82
    },
    {
      "midi": 67,
      "hit": false,
      "t": 11008.333333333332,
      "d": 115.625,
      "v": 78
    },
    {
      "midi": 69,
      "hit": false,
      "t": 11114.583333333332,
      "d": 167.70833333333212,
      "v": 64
    },
    {
      "midi": 50,
      "hit": false,
      "t": 11234.375,
      "d": 138.54166666666606,
      "v": 59
    },
    {
      "midi": 67,
      "hit": false,
      "t": 11240.624999999998,
      "d": 133.33333333333212,
      "v": 82
    },
    {
      "midi": 47,
      "hit": false,
      "t": 11240.625,
      "d": 121.875,
      "v": 66
    },
    {
      "midi": 66,
      "hit": false,
      "t": 11338.541666666664,
      "d": 120.83333333333212,
      "v": 90
    },
    {
      "midi": 67,
      "hit": false,
      "t": 11494.791666666662,
      "d": 538.5416666666661,
      "v": 81
    },
    {
      "midi": 38,
      "hit": false,
      "t": 11498.958333333332,
      "d": 282.29166666666606,
      "v": 54
    },
    {
      "midi": 47,
      "hit": false,
      "t": 11731.249999999998,
      "d": 94.79166666666606,
      "v": 69
    },
    {
      "midi": 50,
      "hit": false,
      "t": 11742.708333333332,
      "d": 112.49999999999818,
      "v": 63
    },
    {
      "midi": 48,
      "hit": false,
      "t": 11991.666666666664,
      "d": 281.25,
      "v": 76
    },
    {
      "midi": 64,
      "hit": false,
      "t": 12001.041666666662,
      "d": 262.5,
      "v": 58
    },
    {
      "midi": 55,
      "hit": false,
      "t": 12237.499999999998,
      "d": 103.125,
      "v": 65
    },
    {
      "midi": 60,
      "hit": false,
      "t": 12238.541666666662,
      "d": 300,
      "v": 74
    },
    {
      "midi": 52,
      "hit": false,
      "t": 12243.749999999998,
      "d": 84.375,
      "v": 72
    },
    {
      "midi": 43,
      "hit": false,
      "t": 12481.249999999998,
      "d": 257.29166666666606,
      "v": 77
    },
    {
      "midi": 64,
      "hit": false,
      "t": 12488.541666666662,
      "d": 292.70833333333394,
      "v": 74
    },
    {
      "midi": 52,
      "hit": false,
      "t": 12724.999999999998,
      "d": 100,
      "v": 69
    },
    {
      "midi": 55,
      "hit": false,
      "t": 12729.166666666664,
      "d": 95.83333333333394,
      "v": 60
    },
    {
      "midi": 67,
      "hit": false,
      "t": 12734.374999999996,
      "d": 106.25,
      "v": 61
    },
    {
      "midi": 48,
      "hit": false,
      "t": 12974.999999999998,
      "d": 258.3333333333321,
      "v": 69
    },
    {
      "midi": 67,
      "hit": false,
      "t": 12986.45833333333,
      "d": 117.70833333333212,
      "v": 82
    },
    {
      "midi": 69,
      "hit": false,
      "t": 13078.124999999996,
      "d": 235.41666666666606,
      "v": 76
    },
    {
      "midi": 55,
      "hit": false,
      "t": 13201.041666666664,
      "d": 173.95833333333212,
      "v": 59
    },
    {
      "midi": 52,
      "hit": false,
      "t": 13205.20833333333,
      "d": 134.375,
      "v": 69
    },
    {
      "midi": 67,
      "hit": false,
      "t": 13229.166666666662,
      "d": 162.5,
      "v": 89
    },
    {
      "midi": 66,
      "hit": false,
      "t": 13342.708333333328,
      "d": 132.29166666666788,
      "v": 66
    },
    {
      "midi": 67,
      "hit": false,
      "t": 13484.374999999996,
      "d": 557.2916666666661,
      "v": 88
    },
    {
      "midi": 43,
      "hit": false,
      "t": 13490.624999999996,
      "d": 323.95833333333394,
      "v": 56
    },
    {
      "midi": 55,
      "hit": false,
      "t": 13745.83333333333,
      "d": 101.04166666666788,
      "v": 63
    },
    {
      "midi": 52,
      "hit": false,
      "t": 13761.45833333333,
      "d": 73.95833333333394,
      "v": 60
    },
    {
      "midi": 50,
      "hit": false,
      "t": 14003.124999999998,
      "d": 288.54166666666606,
      "v": 72
    },
    {
      "midi": 66,
      "hit": false,
      "t": 14012.499999999996,
      "d": 246.875,
      "v": 82
    },
    {
      "midi": 57,
      "hit": false,
      "t": 14238.541666666664,
      "d": 125,
      "v": 61
    },
    {
      "midi": 54,
      "hit": false,
      "t": 14241.666666666664,
      "d": 111.45833333333394,
      "v": 72
    },
    {
      "midi": 62,
      "hit": false,
      "t": 14253.124999999996,
      "d": 348.95833333333394,
      "v": 63
    },
    {
      "midi": 45,
      "hit": false,
      "t": 14501.041666666664,
      "d": 255.20833333333394,
      "v": 79
    },
    {
      "midi": 66,
      "hit": false,
      "t": 14508.33333333333,
      "d": 273.9583333333321,
      "v": 66
    },
    {
      "midi": 69,
      "hit": false,
      "t": 14734.374999999996,
      "d": 92.70833333333212,
      "v": 73
    },
    {
      "midi": 57,
      "hit": false,
      "t": 14745.83333333333,
      "d": 123.95833333333394,
      "v": 60
    },
    {
      "midi": 54,
      "hit": false,
      "t": 14747.916666666664,
      "d": 102.08333333333394,
      "v": 70
    },
    {
      "midi": 74,
      "hit": false,
      "t": 14999.999999999995,
      "d": 150,
      "v": 75
    },
    {
      "midi": 50,
      "hit": false,
      "t": 14999.999999999998,
      "d": 267.7083333333321,
      "v": 69
    },
    {
      "midi": 76,
      "hit": false,
      "t": 15116.66666666666,
      "d": 173.95833333333394,
      "v": 72
    },
    {
      "midi": 54,
      "hit": false,
      "t": 15219.791666666664,
      "d": 159.375,
      "v": 66
    },
    {
      "midi": 74,
      "hit": false,
      "t": 15237.499999999995,
      "d": 159.375,
      "v": 99
    },
    {
      "midi": 57,
      "hit": false,
      "t": 15238.541666666664,
      "d": 196.875,
      "v": 51
    },
    {
      "midi": 72,
      "hit": false,
      "t": 15359.374999999995,
      "d": 151.04166666666606,
      "v": 72
    },
    {
      "midi": 45,
      "hit": false,
      "t": 15483.33333333333,
      "d": 336.4583333333321,
      "v": 59
    },
    {
      "midi": 74,
      "hit": false,
      "t": 15494.79166666666,
      "d": 389.58333333333394,
      "v": 102
    },
    {
      "midi": 54,
      "hit": false,
      "t": 15728.124999999996,
      "d": 123.95833333333394,
      "v": 39
    },
    {
      "midi": 57,
      "hit": false,
      "t": 15740.624999999996,
      "d": 81.25,
      "v": 56
    },
    {
      "midi": 72,
      "hit": false,
      "t": 15851.04166666666,
      "d": 156.25000000000182,
      "v": 66
    },
    {
      "midi": 43,
      "hit": false,
      "t": 15967.70833333333,
      "d": 311.45833333333394,
      "v": 75
    },
    {
      "midi": 71,
      "hit": false,
      "t": 15992.708333333328,
      "d": 2036.4583333333321,
      "v": 92
    },
    {
      "midi": 47,
      "hit": false,
      "t": 16247.916666666664,
      "d": 89.58333333333394,
      "v": 69
    },
    {
      "midi": 50,
      "hit": false,
      "t": 16258.33333333333,
      "d": 70.83333333333394,
      "v": 48
    },
    {
      "midi": 38,
      "hit": false,
      "t": 16504.166666666664,
      "d": 260.41666666666424,
      "v": 77
    },
    {
      "midi": 47,
      "hit": false,
      "t": 16741.666666666664,
      "d": 102.08333333333212,
      "v": 72
    },
    {
      "midi": 50,
      "hit": false,
      "t": 16749.999999999996,
      "d": 113.54166666666788,
      "v": 59
    },
    {
      "midi": 43,
      "hit": false,
      "t": 17002.083333333332,
      "d": 272.9166666666679,
      "v": 70
    },
    {
      "midi": 47,
      "hit": false,
      "t": 17246.875,
      "d": 93.75,
      "v": 71
    },
    {
      "midi": 50,
      "hit": false,
      "t": 17253.125,
      "d": 98.95833333333212,
      "v": 53
    },
    {
      "midi": 38,
      "hit": false,
      "t": 17513.541666666664,
      "d": 260.41666666666424,
      "v": 58
    },
    {
      "midi": 47,
      "hit": false,
      "t": 17728.124999999996,
      "d": 113.54166666666424,
      "v": 65
    },
    {
      "midi": 50,
      "hit": false,
      "t": 17736.45833333333,
      "d": 107.29166666666424,
      "v": 57
    },
    {
      "midi": 48,
      "hit": false,
      "t": 17991.66666666666,
      "d": 265.625,
      "v": 77
    },
    {
      "midi": 72,
      "hit": false,
      "t": 17995.83333333333,
      "d": 266.66666666666424,
      "v": 72
    },
    {
      "midi": 52,
      "hit": false,
      "t": 18230.20833333333,
      "d": 110.41666666666424,
      "v": 66
    },
    {
      "midi": 55,
      "hit": false,
      "t": 18241.66666666666,
      "d": 106.25,
      "v": 69
    },
    {
      "midi": 71,
      "hit": false,
      "t": 18244.79166666666,
      "d": 282.2916666666679,
      "v": 79
    },
    {
      "midi": 43,
      "hit": false,
      "t": 18477.08333333333,
      "d": 266.66666666666424,
      "v": 73
    },
    {
      "midi": 72,
      "hit": false,
      "t": 18479.16666666666,
      "d": 303.125,
      "v": 69
    },
    {
      "midi": 52,
      "hit": false,
      "t": 18726.04166666666,
      "d": 138.54166666666424,
      "v": 65
    },
    {
      "midi": 55,
      "hit": false,
      "t": 18732.29166666666,
      "d": 157.29166666666424,
      "v": 57
    },
    {
      "midi": 74,
      "hit": false,
      "t": 18742.70833333333,
      "d": 282.29166666666424,
      "v": 70
    },
    {
      "midi": 48,
      "hit": false,
      "t": 18980.208333333325,
      "d": 143.75,
      "v": 78
    },
    {
      "midi": 76,
      "hit": false,
      "t": 18985.41666666666,
      "d": 88.54166666666424,
      "v": 72
    },
    {
      "midi": 76,
      "hit": false,
      "t": 19222.916666666657,
      "d": 295.83333333333576,
      "v": 77
    },
    {
      "midi": 52,
      "hit": false,
      "t": 19224.999999999993,
      "d": 144.79166666666788,
      "v": 77
    },
    {
      "midi": 55,
      "hit": false,
      "t": 19234.374999999993,
      "d": 252.08333333333576,
      "v": 78
    },
    {
      "midi": 74,
      "hit": false,
      "t": 19458.333333333325,
      "d": 291.6666666666679,
      "v": 71
    },
    {
      "midi": 43,
      "hit": false,
      "t": 19469.79166666666,
      "d": 298.95833333333576,
      "v": 72
    },
    {
      "midi": 72,
      "hit": false,
      "t": 19717.708333333325,
      "d": 267.7083333333321,
      "v": 63
    },
    {
      "midi": 55,
      "hit": false,
      "t": 19718.749999999996,
      "d": 89.58333333333212,
      "v": 66
    },
    {
      "midi": 52,
      "hit": false,
      "t": 19726.041666666664,
      "d": 88.54166666666424,
      "v": 70
    },
    {
      "midi": 74,
      "hit": false,
      "t": 19955.208333333325,
      "d": 289.5833333333321,
      "v": 75
    },
    {
      "midi": 43,
      "hit": false,
      "t": 19955.20833333333,
      "d": 271.87500000000364,
      "v": 68
    },
    {
      "midi": 50,
      "hit": false,
      "t": 20203.124999999996,
      "d": 262.50000000000364,
      "v": 63
    },
    {
      "midi": 47,
      "hit": false,
      "t": 20207.291666666664,
      "d": 105.20833333333576,
      "v": 71
    },
    {
      "midi": 71,
      "hit": false,
      "t": 20234.37499999999,
      "d": 539.5833333333358,
      "v": 76
    },
    {
      "midi": 38,
      "hit": false,
      "t": 20472.916666666668,
      "d": 192.70833333333212,
      "v": 67
    },
    {
      "midi": 47,
      "hit": false,
      "t": 20709.375,
      "d": 147.91666666666788,
      "v": 63
    },
    {
      "midi": 50,
      "hit": false,
      "t": 20710.416666666668,
      "d": 164.58333333333212,
      "v": 58
    },
    {
      "midi": 67,
      "hit": false,
      "t": 20723.958333333325,
      "d": 1328.125,
      "v": 67
    },
    {
      "midi": 43,
      "hit": false,
      "t": 20964.583333333332,
      "d": 319.7916666666679,
      "v": 67
    },
    {
      "midi": 47,
      "hit": false,
      "t": 21221.875,
      "d": 129.16666666666788,
      "v": 64
    },
    {
      "midi": 50,
      "hit": false,
      "t": 21233.333333333332,
      "d": 132.29166666666788,
      "v": 50
    },
    {
      "midi": 38,
      "hit": false,
      "t": 21497.916666666668,
      "d": 276.04166666666424,
      "v": 52
    },
    {
      "midi": 50,
      "hit": false,
      "t": 21738.541666666668,
      "d": 97.91666666666424,
      "v": 61
    },
    {
      "midi": 47,
      "hit": false,
      "t": 21740.625,
      "d": 77.08333333333212,
      "v": 72
    },
    {
      "midi": 50,
      "hit": false,
      "t": 21993.75,
      "d": 281.25,
      "v": 43
    },
    {
      "midi": 66,
      "hit": false,
      "t": 22012.499999999993,
      "d": 261.4583333333321,
      "v": 77
    },
    {
      "midi": 54,
      "hit": false,
      "t": 22232.291666666668,
      "d": 116.66666666666424,
      "v": 70
    },
    {
      "midi": 57,
      "hit": false,
      "t": 22241.666666666668,
      "d": 123.95833333333212,
      "v": 64
    },
    {
      "midi": 62,
      "hit": false,
      "t": 22249.999999999993,
      "d": 295.8333333333321,
      "v": 62
    },
    {
      "midi": 45,
      "hit": false,
      "t": 22485.416666666668,
      "d": 288.5416666666679,
      "v": 50
    },
    {
      "midi": 66,
      "hit": false,
      "t": 22492.708333333325,
      "d": 330.20833333333576,
      "v": 61
    },
    {
      "midi": 54,
      "hit": false,
      "t": 22730.208333333336,
      "d": 133.33333333333212,
      "v": 69
    },
    {
      "midi": 57,
      "hit": false,
      "t": 22731.250000000004,
      "d": 135.41666666666424,
      "v": 59
    },
    {
      "midi": 69,
      "hit": false,
      "t": 22749.999999999993,
      "d": 114.58333333333576,
      "v": 72
    },
    {
      "midi": 50,
      "hit": false,
      "t": 22997.916666666668,
      "d": 188.54166666666788,
      "v": 66
    },
    {
      "midi": 72,
      "hit": false,
      "t": 23009.374999999996,
      "d": 120.83333333333212,
      "v": 79
    },
    {
      "midi": 54,
      "hit": false,
      "t": 23250.000000000004,
      "d": 165.625,
      "v": 74
    },
    {
      "midi": 72,
      "hit": false,
      "t": 23251.04166666666,
      "d": 315.625,
      "v": 85
    },
    {
      "midi": 57,
      "hit": false,
      "t": 23254.16666666667,
      "d": 262.49999999999636,
      "v": 77
    },
    {
      "midi": 45,
      "hit": false,
      "t": 23492.708333333336,
      "d": 270.8333333333321,
      "v": 71
    },
    {
      "midi": 71,
      "hit": false,
      "t": 23510.41666666666,
      "d": 281.25,
      "v": 81
    },
    {
      "midi": 54,
      "hit": false,
      "t": 23742.708333333336,
      "d": 117.70833333333212,
      "v": 69
    },
    {
      "midi": 57,
      "hit": false,
      "t": 23745.833333333336,
      "d": 92.70833333333212,
      "v": 55
    },
    {
      "midi": 69,
      "hit": false,
      "t": 23746.874999999993,
      "d": 265.62500000000364,
      "v": 69
    },
    {
      "midi": 71,
      "hit": false,
      "t": 23989.58333333333,
      "d": 288.5416666666679,
      "v": 71
    },
    {
      "midi": 43,
      "hit": false,
      "t": 23994.791666666668,
      "d": 263.54166666666424,
      "v": 69
    },
    {
      "midi": 50,
      "hit": false,
      "t": 24234.375,
      "d": 133.33333333333212,
      "v": 63
    },
    {
      "midi": 47,
      "hit": false,
      "t": 24243.75,
      "d": 98.95833333333212,
      "v": 69
    },
    {
      "midi": 67,
      "hit": false,
      "t": 24261.45833333333,
      "d": 541.6666666666679,
      "v": 68
    },
    {
      "midi": 38,
      "hit": false,
      "t": 24487.5,
      "d": 265.625,
      "v": 63
    },
    {
      "midi": 47,
      "hit": false,
      "t": 24728.125,
      "d": 198.95833333333212,
      "v": 69
    },
    {
      "midi": 50,
      "hit": false,
      "t": 24740.625,
      "d": 217.70833333333212,
      "v": 52
    },
    {
      "midi": 62,
      "hit": false,
      "t": 24756.249999999996,
      "d": 1260.4166666666642,
      "v": 66
    },
    {
      "midi": 43,
      "hit": false,
      "t": 24984.375,
      "d": 292.7083333333321,
      "v": 68
    },
    {
      "midi": 47,
      "hit": false,
      "t": 25227.083333333332,
      "d": 128.125,
      "v": 58
    },
    {
      "midi": 50,
      "hit": false,
      "t": 25231.25,
      "d": 177.08333333333212,
      "v": 55
    },
    {
      "midi": 38,
      "hit": false,
      "t": 25482.291666666664,
      "d": 282.29166666666424,
      "v": 61
    },
    {
      "midi": 47,
      "hit": false,
      "t": 25719.791666666664,
      "d": 85.41666666666424,
      "v": 70
    },
    {
      "midi": 50,
      "hit": false,
      "t": 25731.249999999996,
      "d": 105.20833333333212,
      "v": 64
    },
    {
      "midi": 48,
      "hit": false,
      "t": 25970.83333333333,
      "d": 278.125,
      "v": 76
    },
    {
      "midi": 72,
      "hit": false,
      "t": 25983.33333333333,
      "d": 264.5833333333321,
      "v": 69
    },
    {
      "midi": 52,
      "hit": false,
      "t": 26214.58333333333,
      "d": 115.625,
      "v": 66
    },
    {
      "midi": 55,
      "hit": false,
      "t": 26218.749999999996,
      "d": 142.70833333333212,
      "v": 49
    },
    {
      "midi": 71,
      "hit": false,
      "t": 26224.999999999993,
      "d": 311.45833333333576,
      "v": 47
    },
    {
      "midi": 43,
      "hit": false,
      "t": 26467.70833333333,
      "d": 294.79166666666424,
      "v": 69
    },
    {
      "midi": 72,
      "hit": false,
      "t": 26485.41666666666,
      "d": 302.08333333333576,
      "v": 68
    },
    {
      "midi": 52,
      "hit": false,
      "t": 26719.79166666666,
      "d": 127.08333333333212,
      "v": 66
    },
    {
      "midi": 55,
      "hit": false,
      "t": 26722.91666666666,
      "d": 152.08333333333212,
      "v": 53
    },
    {
      "midi": 74,
      "hit": false,
      "t": 26734.374999999996,
      "d": 100,
      "v": 63
    },
    {
      "midi": 48,
      "hit": false,
      "t": 26970.833333333325,
      "d": 251.04166666666788,
      "v": 79
    },
    {
      "midi": 76,
      "hit": false,
      "t": 26985.416666666664,
      "d": 126.04166666666788,
      "v": 77
    },
    {
      "midi": 55,
      "hit": false,
      "t": 27234.374999999993,
      "d": 193.74999999999636,
      "v": 64
    },
    {
      "midi": 52,
      "hit": false,
      "t": 27242.708333333325,
      "d": 142.70833333333212,
      "v": 70
    },
    {
      "midi": 76,
      "hit": false,
      "t": 27243.75,
      "d": 306.25,
      "v": 70
    },
    {
      "midi": 43,
      "hit": false,
      "t": 27478.12499999999,
      "d": 327.0833333333321,
      "v": 72
    },
    {
      "midi": 74,
      "hit": false,
      "t": 27484.375,
      "d": 298.95833333333576,
      "v": 70
    },
    {
      "midi": 72,
      "hit": false,
      "t": 27732.291666666668,
      "d": 117.70833333333576,
      "v": 74
    },
    {
      "midi": 55,
      "hit": false,
      "t": 27738.541666666657,
      "d": 95.83333333333212,
      "v": 72
    },
    {
      "midi": 52,
      "hit": false,
      "t": 27746.87499999999,
      "d": 87.5,
      "v": 70
    },
    {
      "midi": 43,
      "hit": false,
      "t": 27981.24999999999,
      "d": 290.62499999999636,
      "v": 77
    },
    {
      "midi": 74,
      "hit": false,
      "t": 28004.16666666667,
      "d": 305.2083333333321,
      "v": 85
    },
    {
      "midi": 47,
      "hit": false,
      "t": 28242.70833333332,
      "d": 110.41666666666424,
      "v": 70
    },
    {
      "midi": 79,
      "hit": false,
      "t": 28246.875000000004,
      "d": 493.75,
      "v": 67
    },
    {
      "midi": 50,
      "hit": false,
      "t": 28247.916666666653,
      "d": 173.95833333333212,
      "v": 63
    },
    {
      "midi": 38,
      "hit": false,
      "t": 28492.708333333318,
      "d": 170.83333333333212,
      "v": 72
    },
    {
      "midi": 67,
      "hit": false,
      "t": 28751.04166666667,
      "d": 367.7083333333321,
      "v": 59
    },
    {
      "midi": 47,
      "hit": false,
      "t": 28753.12499999998,
      "d": 127.08333333333212,
      "v": 69
    },
    {
      "midi": 50,
      "hit": false,
      "t": 28756.24999999998,
      "d": 141.66666666666424,
      "v": 66
    },
    {
      "midi": 43,
      "hit": false,
      "t": 29013.541666666646,
      "d": 259.375,
      "v": 63
    },
    {
      "midi": 67,
      "hit": false,
      "t": 29239.583333333336,
      "d": 245.83333333333576,
      "v": 90
    },
    {
      "midi": 47,
      "hit": false,
      "t": 29251.041666666646,
      "d": 121.875,
      "v": 69
    },
    {
      "midi": 50,
      "hit": false,
      "t": 29257.291666666646,
      "d": 195.83333333333212,
      "v": 55
    },
    {
      "midi": 69,
      "hit": false,
      "t": 29468.750000000004,
      "d": 322.9166666666679,
      "v": 70
    },
    {
      "midi": 38,
      "hit": false,
      "t": 29486.45833333331,
      "d": 262.50000000000364,
      "v": 75
    },
    {
      "midi": 47,
      "hit": false,
      "t": 29740.624999999978,
      "d": 81.25000000000364,
      "v": 70
    },
    {
      "midi": 50,
      "hit": false,
      "t": 29744.791666666646,
      "d": 91.66666666666788,
      "v": 64
    },
    {
      "midi": 71,
      "hit": false,
      "t": 29754.16666666667,
      "d": 261.4583333333321,
      "v": 69
    },
    {
      "midi": 50,
      "hit": false,
      "t": 29985.416666666646,
      "d": 176.04166666666788,
      "v": 86
    },
    {
      "midi": 72,
      "hit": false,
      "t": 29987.500000000004,
      "d": 89.58333333333212,
      "v": 81
    },
    {
      "midi": 54,
      "hit": false,
      "t": 30221.87499999998,
      "d": 165.625,
      "v": 83
    },
    {
      "midi": 57,
      "hit": false,
      "t": 30224.99999999998,
      "d": 340.625,
      "v": 69
    },
    {
      "midi": 72,
      "hit": false,
      "t": 30237.500000000004,
      "d": 318.75,
      "v": 68
    },
    {
      "midi": 45,
      "hit": false,
      "t": 30484.37499999998,
      "d": 265.625,
      "v": 76
    },
    {
      "midi": 71,
      "hit": false,
      "t": 30492.708333333336,
      "d": 289.58333333333576,
      "v": 67
    },
    {
      "midi": 54,
      "hit": false,
      "t": 30742.708333333314,
      "d": 258.3333333333321,
      "v": 71
    },
    {
      "midi": 69,
      "hit": false,
      "t": 30751.04166666667,
      "d": 256.25,
      "v": 62
    },
    {
      "midi": 57,
      "hit": false,
      "t": 30752.083333333314,
      "d": 238.54166666666424,
      "v": 58
    },
    {
      "midi": 50,
      "hit": false,
      "t": 30982.291666666646,
      "d": 155.20833333333212,
      "v": 81
    },
    {
      "midi": 71,
      "hit": false,
      "t": 30992.70833333334,
      "d": 103.125,
      "v": 69
    },
    {
      "midi": 54,
      "hit": false,
      "t": 31234.374999999978,
      "d": 170.83333333333576,
      "v": 76
    },
    {
      "midi": 57,
      "hit": false,
      "t": 31235.416666666646,
      "d": 262.50000000000364,
      "v": 78
    },
    {
      "midi": 66,
      "hit": false,
      "t": 31241.66666666667,
      "d": 532.2916666666679,
      "v": 89
    },
    {
      "midi": 45,
      "hit": false,
      "t": 31471.87499999998,
      "d": 271.875,
      "v": 67
    },
    {
      "midi": 67,
      "hit": false,
      "t": 31729.16666666667,
      "d": 1766.6666666666715,
      "v": 74
    },
    {
      "midi": 57,
      "hit": false,
      "t": 31737.49999999998,
      "d": 113.54166666666788,
      "v": 68
    },
    {
      "midi": 54,
      "hit": false,
      "t": 31738.54166666665,
      "d": 131.25,
      "v": 71
    },
    {
      "midi": 43,
      "hit": false,
      "t": 31983.333333333318,
      "d": 288.5416666666679,
      "v": 69
    },
    {
      "midi": 50,
      "hit": false,
      "t": 32238.54166666665,
      "d": 102.08333333333576,
      "v": 64
    },
    {
      "midi": 47,
      "hit": false,
      "t": 32242.708333333318,
      "d": 104.16666666666788,
      "v": 74
    },
    {
      "midi": 38,
      "hit": false,
      "t": 32476.041666666653,
      "d": 268.75,
      "v": 76
    },
    {
      "midi": 47,
      "hit": false,
      "t": 32719.791666666653,
      "d": 131.25000000000364,
      "v": 75
    },
    {
      "midi": 50,
      "hit": false,
      "t": 32733.33333333332,
      "d": 123.95833333333576,
      "v": 66
    },
    {
      "midi": 43,
      "hit": false,
      "t": 32977.08333333332,
      "d": 336.45833333333576,
      "v": 85
    },
    {
      "midi": 50,
      "hit": false,
      "t": 33220.83333333332,
      "d": 103.125,
      "v": 54
    },
    {
      "midi": 47,
      "hit": false,
      "t": 33226.04166666666,
      "d": 80.20833333333576,
      "v": 68
    },
    {
      "midi": 43,
      "hit": false,
      "t": 33486.45833333332,
      "d": 113.54166666667152,
      "v": 100
    },
    {
      "midi": 50,
      "hit": false,
      "t": 33492.70833333332,
      "d": 75,
      "v": 99
    },
    {
      "midi": 47,
      "hit": false,
      "t": 33493.749999999985,
      "d": 76.04166666667152,
      "v": 122
    },
    {
      "midi": 62,
      "hit": false,
      "t": 33736.45833333334,
      "d": 141.66666666667152,
      "v": 56
    },
    {
      "midi": 59,
      "hit": false,
      "t": 33832.29166666668,
      "d": 140.625,
      "v": 79
    },
    {
      "midi": 43,
      "hit": false,
      "t": 33948.95833333333,
      "d": 253.125,
      "v": 63
    },
    {
      "midi": 55,
      "hit": false,
      "t": 33975.000000000015,
      "d": 288.54166666666424,
      "v": 72
    },
    {
      "midi": 50,
      "hit": false,
      "t": 34203.12499999999,
      "d": 105.20833333332848,
      "v": 61
    },
    {
      "midi": 47,
      "hit": false,
      "t": 34213.54166666666,
      "d": 72.91666666666424,
      "v": 72
    },
    {
      "midi": 59,
      "hit": false,
      "t": 34225.000000000015,
      "d": 296.8749999999927,
      "v": 72
    },
    {
      "midi": 38,
      "hit": false,
      "t": 34464.58333333332,
      "d": 277.08333333333576,
      "v": 68
    },
    {
      "midi": 62,
      "hit": false,
      "t": 34495.83333333334,
      "d": 264.5833333333285,
      "v": 72
    },
    {
      "midi": 47,
      "hit": false,
      "t": 34721.874999999985,
      "d": 81.25000000000728,
      "v": 66
    },
    {
      "midi": 50,
      "hit": false,
      "t": 34723.95833333332,
      "d": 84.37500000000728,
      "v": 51
    },
    {
      "midi": 67,
      "hit": false,
      "t": 34725.00000000001,
      "d": 92.70833333332848,
      "v": 75
    },
    {
      "midi": 67,
      "hit": false,
      "t": 34980.208333333336,
      "d": 138.54166666666424,
      "v": 79
    },
    {
      "midi": 43,
      "hit": false,
      "t": 34991.666666666664,
      "d": 258.33333333333576,
      "v": 76
    },
    {
      "midi": 69,
      "hit": false,
      "t": 35102.083333333336,
      "d": 185.41666666666424,
      "v": 62
    },
    {
      "midi": 67,
      "hit": false,
      "t": 35217.708333333336,
      "d": 158.33333333332848,
      "v": 85
    },
    {
      "midi": 50,
      "hit": false,
      "t": 35238.541666666664,
      "d": 136.45833333334303,
      "v": 56
    },
    {
      "midi": 47,
      "hit": false,
      "t": 35252.083333333336,
      "d": 105.20833333333576,
      "v": 63
    },
    {
      "midi": 66,
      "hit": false,
      "t": 35341.666666666664,
      "d": 115.625,
      "v": 96
    },
    {
      "midi": 67,
      "hit": false,
      "t": 35479.166666666664,
      "d": 523.9583333333358,
      "v": 90
    },
    {
      "midi": 38,
      "hit": false,
      "t": 35482.29166666667,
      "d": 277.08333333333576,
      "v": 71
    },
    {
      "midi": 47,
      "hit": false,
      "t": 35722.91666666667,
      "d": 82.29166666667152,
      "v": 72
    },
    {
      "midi": 50,
      "hit": false,
      "t": 35726.04166666667,
      "d": 98.95833333333576,
      "v": 64
    },
    {
      "midi": 48,
      "hit": false,
      "t": 35977.08333333334,
      "d": 287.4999999999927,
      "v": 72
    },
    {
      "midi": 64,
      "hit": false,
      "t": 35984.375,
      "d": 310.4166666666715,
      "v": 72
    },
    {
      "midi": 52,
      "hit": false,
      "t": 36231.25000000001,
      "d": 90.62499999999272,
      "v": 71
    },
    {
      "midi": 55,
      "hit": false,
      "t": 36232.29166666667,
      "d": 104.16666666666424,
      "v": 62
    },
    {
      "midi": 60,
      "hit": false,
      "t": 36252.083333333336,
      "d": 323.95833333333576,
      "v": 76
    },
    {
      "midi": 43,
      "hit": false,
      "t": 36469.79166666667,
      "d": 290.625,
      "v": 75
    },
    {
      "midi": 64,
      "hit": false,
      "t": 36501.04166666667,
      "d": 298.95833333333576,
      "v": 69
    },
    {
      "midi": 55,
      "hit": false,
      "t": 36722.91666666667,
      "d": 111.45833333333576,
      "v": 56
    },
    {
      "midi": 52,
      "hit": false,
      "t": 36727.083333333336,
      "d": 102.08333333333576,
      "v": 69
    },
    {
      "midi": 67,
      "hit": false,
      "t": 36750.00000000001,
      "d": 90.625,
      "v": 71
    },
    {
      "midi": 48,
      "hit": false,
      "t": 36975.00000000001,
      "d": 280.20833333333576,
      "v": 72
    },
    {
      "midi": 67,
      "hit": false,
      "t": 36993.75000000001,
      "d": 115.625,
      "v": 78
    },
    {
      "midi": 69,
      "hit": false,
      "t": 37102.08333333334,
      "d": 190.625,
      "v": 64
    },
    {
      "midi": 55,
      "hit": false,
      "t": 37208.33333333334,
      "d": 156.25,
      "v": 58
    },
    {
      "midi": 52,
      "hit": false,
      "t": 37217.70833333334,
      "d": 132.29166666666424,
      "v": 66
    },
    {
      "midi": 67,
      "hit": false,
      "t": 37234.37500000001,
      "d": 170.83333333333576,
      "v": 77
    },
    {
      "midi": 66,
      "hit": false,
      "t": 37348.95833333334,
      "d": 116.66666666666424,
      "v": 89
    },
    {
      "midi": 43,
      "hit": false,
      "t": 37477.08333333334,
      "d": 290.625,
      "v": 58
    },
    {
      "midi": 67,
      "hit": false,
      "t": 37483.33333333334,
      "d": 548.9583333333358,
      "v": 82
    },
    {
      "midi": 52,
      "hit": false,
      "t": 37739.58333333334,
      "d": 89.58333333333576,
      "v": 70
    },
    {
      "midi": 55,
      "hit": false,
      "t": 37740.62500000001,
      "d": 114.58333333333576,
      "v": 59
    },
    {
      "midi": 50,
      "hit": false,
      "t": 37983.33333333334,
      "d": 303.125,
      "v": 56
    },
    {
      "midi": 66,
      "hit": false,
      "t": 38004.16666666668,
      "d": 263.5416666666715,
      "v": 74
    },
    {
      "midi": 54,
      "hit": false,
      "t": 38232.29166666668,
      "d": 103.125,
      "v": 66
    },
    {
      "midi": 57,
      "hit": false,
      "t": 38238.54166666668,
      "d": 114.58333333333576,
      "v": 63
    },
    {
      "midi": 62,
      "hit": false,
      "t": 38246.875000000015,
      "d": 394.79166666666424,
      "v": 69
    },
    {
      "midi": 45,
      "hit": false,
      "t": 38483.33333333335,
      "d": 276.0416666666715,
      "v": 82
    },
    {
      "midi": 66,
      "hit": false,
      "t": 38490.625000000015,
      "d": 309.375,
      "v": 57
    },
    {
      "midi": 57,
      "hit": false,
      "t": 38747.916666666686,
      "d": 111.45833333333576,
      "v": 62
    },
    {
      "midi": 69,
      "hit": false,
      "t": 38751.04166666668,
      "d": 85.41666666667152,
      "v": 77
    },
    {
      "midi": 54,
      "hit": false,
      "t": 38751.041666666686,
      "d": 103.125,
      "v": 76
    },
    {
      "midi": 50,
      "hit": false,
      "t": 38981.25000000002,
      "d": 283.3333333333285,
      "v": 72
    },
    {
      "midi": 74,
      "hit": false,
      "t": 39001.041666666686,
      "d": 153.125,
      "v": 77
    },
    {
      "midi": 76,
      "hit": false,
      "t": 39115.62500000002,
      "d": 194.79166666666424,
      "v": 79
    },
    {
      "midi": 54,
      "hit": false,
      "t": 39218.75000000002,
      "d": 178.12499999999272,
      "v": 59
    },
    {
      "midi": 57,
      "hit": false,
      "t": 39219.791666666686,
      "d": 202.08333333332848,
      "v": 59
    },
    {
      "midi": 74,
      "hit": false,
      "t": 39250.00000000002,
      "d": 152.08333333332848,
      "v": 82
    },
    {
      "midi": 72,
      "hit": false,
      "t": 39355.20833333335,
      "d": 188.54166666666424,
      "v": 37
    },
    {
      "midi": 45,
      "hit": false,
      "t": 39482.29166666668,
      "d": 307.29166666666424,
      "v": 64
    },
    {
      "midi": 74,
      "hit": false,
      "t": 39511.45833333335,
      "d": 382.29166666666424,
      "v": 102
    },
    {
      "midi": 57,
      "hit": false,
      "t": 39735.41666666668,
      "d": 89.58333333332848,
      "v": 55
    },
    {
      "midi": 54,
      "hit": false,
      "t": 39742.70833333334,
      "d": 107.29166666666424,
      "v": 61
    },
    {
      "midi": 72,
      "hit": false,
      "t": 39880.20833333335,
      "d": 143.75,
      "v": 74
    },
    {
      "midi": 43,
      "hit": false,
      "t": 39992.70833333334,
      "d": 285.41666666666424,
      "v": 67
    },
    {
      "midi": 71,
      "hit": false,
      "t": 40011.45833333335,
      "d": 1427.0833333333358,
      "v": 89
    },
    {
      "midi": 47,
      "hit": false,
      "t": 40227.08333333334,
      "d": 104.16666666666424,
      "v": 68
    },
    {
      "midi": 50,
      "hit": false,
      "t": 40233.33333333334,
      "d": 116.66666666666424,
      "v": 51
    },
    {
      "midi": 38,
      "hit": false,
      "t": 40498.95833333334,
      "d": 257.29166666666424,
      "v": 77
    },
    {
      "midi": 47,
      "hit": false,
      "t": 40737.50000000001,
      "d": 94.79166666666424,
      "v": 70
    },
    {
      "midi": 50,
      "hit": false,
      "t": 40741.66666666667,
      "d": 108.33333333333576,
      "v": 58
    },
    {
      "midi": 43,
      "hit": false,
      "t": 40991.66666666667,
      "d": 263.54166666666424,
      "v": 58
    },
    {
      "midi": 47,
      "hit": false,
      "t": 41241.66666666667,
      "d": 110.41666666666424,
      "v": 82
    },
    {
      "midi": 50,
      "hit": false,
      "t": 41247.91666666667,
      "d": 80.20833333332848,
      "v": 59
    },
    {
      "midi": 38,
      "hit": false,
      "t": 41472.91666666667,
      "d": 291.66666666666424,
      "v": 75
    },
    {
      "midi": 47,
      "hit": false,
      "t": 41737.50000000001,
      "d": 117.70833333332848,
      "v": 75
    },
    {
      "midi": 50,
      "hit": false,
      "t": 41741.66666666667,
      "d": 132.29166666666424,
      "v": 68
    },
    {
      "midi": 62,
      "hit": false,
      "t": 41750.00000000002,
      "d": 138.54166666666424,
      "v": 69
    },
    {
      "midi": 59,
      "hit": false,
      "t": 41846.87500000002,
      "d": 151.04166666666424,
      "v": 89
    },
    {
      "midi": 43,
      "hit": false,
      "t": 41969.79166666667,
      "d": 297.9166666666715,
      "v": 88
    },
    {
      "midi": 55,
      "hit": false,
      "t": 41996.87500000002,
      "d": 256.25,
      "v": 81
    },
    {
      "midi": 50,
      "hit": false,
      "t": 42218.75000000001,
      "d": 123.95833333333576,
      "v": 63
    },
    {
      "midi": 47,
      "hit": false,
      "t": 42223.95833333334,
      "d": 120.83333333333576,
      "v": 55
    },
    {
      "midi": 59,
      "hit": false,
      "t": 42255.20833333336,
      "d": 294.79166666666424,
      "v": 75
    },
    {
      "midi": 38,
      "hit": false,
      "t": 42495.83333333334,
      "d": 272.91666666666424,
      "v": 56
    },
    {
      "midi": 62,
      "hit": false,
      "t": 42500.00000000002,
      "d": 280.20833333333576,
      "v": 79
    },
    {
      "midi": 47,
      "hit": false,
      "t": 42732.29166666668,
      "d": 91.66666666666424,
      "v": 74
    },
    {
      "midi": 50,
      "hit": false,
      "t": 42739.58333333334,
      "d": 97.91666666666424,
      "v": 61
    },
    {
      "midi": 67,
      "hit": false,
      "t": 42740.62500000002,
      "d": 93.75,
      "v": 73
    },
    {
      "midi": 43,
      "hit": false,
      "t": 42975.00000000001,
      "d": 266.66666666666424,
      "v": 82
    },
    {
      "midi": 67,
      "hit": false,
      "t": 43008.33333333336,
      "d": 115.625,
      "v": 78
    },
    {
      "midi": 69,
      "hit": false,
      "t": 43114.58333333336,
      "d": 167.70833333332848,
      "v": 64
    },
    {
      "midi": 50,
      "hit": false,
      "t": 43234.37500000001,
      "d": 138.54166666666424,
      "v": 59
    },
    {
      "midi": 47,
      "hit": false,
      "t": 43240.62500000001,
      "d": 121.875,
      "v": 66
    },
    {
      "midi": 67,
      "hit": false,
      "t": 43240.62500000002,
      "d": 133.33333333332848,
      "v": 82
    },
    {
      "midi": 66,
      "hit": false,
      "t": 43338.541666666686,
      "d": 120.83333333332848,
      "v": 90
    },
    {
      "midi": 67,
      "hit": false,
      "t": 43494.79166666668,
      "d": 538.5416666666642,
      "v": 81
    },
    {
      "midi": 38,
      "hit": false,
      "t": 43498.958333333336,
      "d": 282.29166666666424,
      "v": 54
    },
    {
      "midi": 47,
      "hit": false,
      "t": 43731.25,
      "d": 94.79166666666424,
      "v": 69
    },
    {
      "midi": 50,
      "hit": false,
      "t": 43742.708333333336,
      "d": 112.49999999999272,
      "v": 63
    },
    {
      "midi": 48,
      "hit": false,
      "t": 43991.666666666664,
      "d": 281.25,
      "v": 76
    },
    {
      "midi": 64,
      "hit": false,
      "t": 44001.04166666668,
      "d": 262.5,
      "v": 58
    },
    {
      "midi": 55,
      "hit": false,
      "t": 44237.5,
      "d": 103.125,
      "v": 65
    },
    {
      "midi": 60,
      "hit": false,
      "t": 44238.54166666668,
      "d": 300,
      "v": 74
    },
    {
      "midi": 52,
      "hit": false,
      "t": 44243.75,
      "d": 84.375,
      "v": 72
    },
    {
      "midi": 43,
      "hit": false,
      "t": 44481.25,
      "d": 257.29166666666424,
      "v": 77
    },
    {
      "midi": 64,
      "hit": false,
      "t": 44488.54166666668,
      "d": 292.70833333333576,
      "v": 74
    },
    {
      "midi": 52,
      "hit": false,
      "t": 44725,
      "d": 100,
      "v": 69
    },
    {
      "midi": 55,
      "hit": false,
      "t": 44729.166666666664,
      "d": 95.83333333333576,
      "v": 60
    },
    {
      "midi": 67,
      "hit": false,
      "t": 44734.375000000015,
      "d": 106.25,
      "v": 61
    },
    {
      "midi": 48,
      "hit": false,
      "t": 44975,
      "d": 258.3333333333285,
      "v": 69
    },
    {
      "midi": 67,
      "hit": false,
      "t": 44986.45833333335,
      "d": 117.70833333332848,
      "v": 82
    },
    {
      "midi": 69,
      "hit": false,
      "t": 45078.125000000015,
      "d": 235.41666666666424,
      "v": 76
    },
    {
      "midi": 55,
      "hit": false,
      "t": 45201.041666666664,
      "d": 173.95833333332848,
      "v": 59
    },
    {
      "midi": 52,
      "hit": false,
      "t": 45205.20833333333,
      "d": 134.375,
      "v": 69
    },
    {
      "midi": 67,
      "hit": false,
      "t": 45229.16666666668,
      "d": 162.5,
      "v": 89
    },
    {
      "midi": 66,
      "hit": false,
      "t": 45342.70833333334,
      "d": 132.29166666667152,
      "v": 66
    },
    {
      "midi": 67,
      "hit": false,
      "t": 45484.375000000015,
      "d": 557.2916666666642,
      "v": 88
    },
    {
      "midi": 43,
      "hit": false,
      "t": 45490.62499999999,
      "d": 323.95833333333576,
      "v": 56
    },
    {
      "midi": 55,
      "hit": false,
      "t": 45745.83333333333,
      "d": 101.04166666667152,
      "v": 63
    },
    {
      "midi": 52,
      "hit": false,
      "t": 45761.45833333333,
      "d": 73.95833333333576,
      "v": 60
    },
    {
      "midi": 50,
      "hit": false,
      "t": 46003.125,
      "d": 288.54166666666424,
      "v": 72
    },
    {
      "midi": 66,
      "hit": false,
      "t": 46012.500000000015,
      "d": 246.875,
      "v": 82
    },
    {
      "midi": 57,
      "hit": false,
      "t": 46238.541666666664,
      "d": 125,
      "v": 61
    },
    {
      "midi": 54,
      "hit": false,
      "t": 46241.666666666664,
      "d": 111.45833333333576,
      "v": 72
    },
    {
      "midi": 62,
      "hit": false,
      "t": 46253.125000000015,
      "d": 348.95833333333576,
      "v": 63
    },
    {
      "midi": 45,
      "hit": false,
      "t": 46501.041666666664,
      "d": 255.20833333333576,
      "v": 79
    },
    {
      "midi": 66,
      "hit": false,
      "t": 46508.33333333335,
      "d": 273.9583333333285,
      "v": 66
    },
    {
      "midi": 69,
      "hit": false,
      "t": 46734.375000000015,
      "d": 92.70833333332848,
      "v": 73
    },
    {
      "midi": 57,
      "hit": false,
      "t": 46745.83333333333,
      "d": 123.95833333333576,
      "v": 60
    },
    {
      "midi": 54,
      "hit": false,
      "t": 46747.916666666664,
      "d": 102.08333333333576,
      "v": 70
    },
    {
      "midi": 50,
      "hit": false,
      "t": 47000,
      "d": 267.7083333333285,
      "v": 69
    },
    {
      "midi": 74,
      "hit": false,
      "t": 47000.00000000001,
      "d": 150,
      "v": 75
    },
    {
      "midi": 76,
      "hit": false,
      "t": 47116.66666666667,
      "d": 173.95833333333576,
      "v": 72
    },
    {
      "midi": 54,
      "hit": false,
      "t": 47219.791666666664,
      "d": 159.375,
      "v": 66
    },
    {
      "midi": 74,
      "hit": false,
      "t": 47237.50000000001,
      "d": 159.375,
      "v": 99
    },
    {
      "midi": 57,
      "hit": false,
      "t": 47238.541666666664,
      "d": 196.875,
      "v": 51
    },
    {
      "midi": 72,
      "hit": false,
      "t": 47359.37500000001,
      "d": 151.04166666666424,
      "v": 72
    },
    {
      "midi": 45,
      "hit": false,
      "t": 47483.33333333333,
      "d": 336.4583333333285,
      "v": 59
    },
    {
      "midi": 74,
      "hit": false,
      "t": 47494.79166666667,
      "d": 389.58333333333576,
      "v": 102
    },
    {
      "midi": 54,
      "hit": false,
      "t": 47728.12499999999,
      "d": 123.95833333333576,
      "v": 39
    },
    {
      "midi": 57,
      "hit": false,
      "t": 47740.62499999999,
      "d": 81.25,
      "v": 56
    },
    {
      "midi": 72,
      "hit": false,
      "t": 47851.04166666667,
      "d": 156.25000000000728,
      "v": 66
    },
    {
      "midi": 43,
      "hit": false,
      "t": 47967.70833333333,
      "d": 311.45833333333576,
      "v": 75
    },
    {
      "midi": 71,
      "hit": false,
      "t": 47992.70833333334,
      "d": 2036.4583333333358,
      "v": 92
    },
    {
      "midi": 47,
      "hit": false,
      "t": 48247.916666666664,
      "d": 89.58333333333576,
      "v": 69
    },
    {
      "midi": 50,
      "hit": false,
      "t": 48258.33333333333,
      "d": 70.83333333333576,
      "v": 48
    },
    {
      "midi": 38,
      "hit": false,
      "t": 48504.166666666664,
      "d": 260.4166666666715,
      "v": 77
    },
    {
      "midi": 47,
      "hit": false,
      "t": 48741.666666666664,
      "d": 102.08333333333576,
      "v": 72
    },
    {
      "midi": 50,
      "hit": false,
      "t": 48750,
      "d": 113.54166666666424,
      "v": 59
    },
    {
      "midi": 43,
      "hit": false,
      "t": 49002.08333333333,
      "d": 272.91666666666424,
      "v": 70
    },
    {
      "midi": 47,
      "hit": false,
      "t": 49246.87499999999,
      "d": 93.75,
      "v": 71
    },
    {
      "midi": 50,
      "hit": false,
      "t": 49253.12499999999,
      "d": 98.95833333333576,
      "v": 53
    },
    {
      "midi": 38,
      "hit": false,
      "t": 49513.541666666664,
      "d": 260.4166666666715,
      "v": 58
    },
    {
      "midi": 47,
      "hit": false,
      "t": 49728.125,
      "d": 113.54166666667152,
      "v": 65
    },
    {
      "midi": 50,
      "hit": false,
      "t": 49736.458333333336,
      "d": 107.29166666667152,
      "v": 57
    },
    {
      "midi": 48,
      "hit": false,
      "t": 49991.66666666667,
      "d": 265.625,
      "v": 77
    },
    {
      "midi": 72,
      "hit": false,
      "t": 49995.83333333334,
      "d": 266.6666666666715,
      "v": 72
    },
    {
      "midi": 52,
      "hit": false,
      "t": 50230.208333333336,
      "d": 110.41666666667152,
      "v": 66
    },
    {
      "midi": 55,
      "hit": false,
      "t": 50241.66666666667,
      "d": 106.25,
      "v": 69
    },
    {
      "midi": 71,
      "hit": false,
      "t": 50244.79166666668,
      "d": 282.29166666666424,
      "v": 79
    },
    {
      "midi": 43,
      "hit": false,
      "t": 50477.083333333336,
      "d": 266.6666666666715,
      "v": 73
    },
    {
      "midi": 72,
      "hit": false,
      "t": 50479.16666666668,
      "d": 303.125,
      "v": 69
    },
    {
      "midi": 52,
      "hit": false,
      "t": 50726.04166666667,
      "d": 138.54166666667152,
      "v": 65
    },
    {
      "midi": 55,
      "hit": false,
      "t": 50732.29166666667,
      "d": 157.29166666667152,
      "v": 57
    },
    {
      "midi": 74,
      "hit": false,
      "t": 50742.70833333334,
      "d": 282.2916666666715,
      "v": 70
    },
    {
      "midi": 48,
      "hit": false,
      "t": 50980.20833333334,
      "d": 143.75,
      "v": 78
    },
    {
      "midi": 76,
      "hit": false,
      "t": 50985.41666666668,
      "d": 88.54166666667152,
      "v": 72
    },
    {
      "midi": 76,
      "hit": false,
      "t": 51222.916666666686,
      "d": 295.8333333333285,
      "v": 77
    },
    {
      "midi": 52,
      "hit": false,
      "t": 51225.00000000001,
      "d": 144.79166666666424,
      "v": 77
    },
    {
      "midi": 55,
      "hit": false,
      "t": 51234.37500000001,
      "d": 252.08333333332848,
      "v": 78
    },
    {
      "midi": 74,
      "hit": false,
      "t": 51458.33333333335,
      "d": 291.66666666666424,
      "v": 71
    },
    {
      "midi": 43,
      "hit": false,
      "t": 51469.79166666667,
      "d": 298.9583333333285,
      "v": 72
    },
    {
      "midi": 72,
      "hit": false,
      "t": 51717.70833333335,
      "d": 267.70833333333576,
      "v": 63
    },
    {
      "midi": 55,
      "hit": false,
      "t": 51718.75,
      "d": 89.58333333333576,
      "v": 66
    },
    {
      "midi": 52,
      "hit": false,
      "t": 51726.041666666664,
      "d": 88.54166666667152,
      "v": 70
    },
    {
      "midi": 43,
      "hit": false,
      "t": 51955.208333333336,
      "d": 271.8749999999927,
      "v": 68
    },
    {
      "midi": 74,
      "hit": false,
      "t": 51955.20833333335,
      "d": 289.58333333333576,
      "v": 75
    },
    {
      "midi": 50,
      "hit": false,
      "t": 52203.125,
      "d": 262.4999999999927,
      "v": 63
    },
    {
      "midi": 47,
      "hit": false,
      "t": 52207.291666666664,
      "d": 105.20833333332848,
      "v": 71
    },
    {
      "midi": 71,
      "hit": false,
      "t": 52234.37500000002,
      "d": 539.5833333333285,
      "v": 76
    },
    {
      "midi": 38,
      "hit": false,
      "t": 52472.91666666666,
      "d": 192.70833333333576,
      "v": 67
    },
    {
      "midi": 47,
      "hit": false,
      "t": 52709.37499999999,
      "d": 147.91666666666424,
      "v": 63
    },
    {
      "midi": 50,
      "hit": false,
      "t": 52710.41666666666,
      "d": 164.58333333333576,
      "v": 58
    },
    {
      "midi": 67,
      "hit": false,
      "t": 52723.95833333335,
      "d": 1328.125,
      "v": 67
    },
    {
      "midi": 43,
      "hit": false,
      "t": 52964.58333333333,
      "d": 319.79166666666424,
      "v": 67
    },
    {
      "midi": 47,
      "hit": false,
      "t": 53221.87499999999,
      "d": 129.16666666666424,
      "v": 64
    },
    {
      "midi": 50,
      "hit": false,
      "t": 53233.33333333333,
      "d": 132.29166666666424,
      "v": 50
    },
    {
      "midi": 38,
      "hit": false,
      "t": 53497.91666666666,
      "d": 276.0416666666715,
      "v": 52
    },
    {
      "midi": 50,
      "hit": false,
      "t": 53738.54166666666,
      "d": 97.91666666667152,
      "v": 61
    },
    {
      "midi": 47,
      "hit": false,
      "t": 53740.62499999999,
      "d": 77.08333333333576,
      "v": 72
    },
    {
      "midi": 50,
      "hit": false,
      "t": 53993.74999999999,
      "d": 281.25,
      "v": 43
    },
    {
      "midi": 66,
      "hit": false,
      "t": 54012.500000000015,
      "d": 261.45833333333576,
      "v": 77
    },
    {
      "midi": 54,
      "hit": false,
      "t": 54232.29166666666,
      "d": 116.66666666667152,
      "v": 70
    },
    {
      "midi": 57,
      "hit": false,
      "t": 54241.66666666666,
      "d": 123.95833333333576,
      "v": 64
    },
    {
      "midi": 62,
      "hit": false,
      "t": 54250.000000000015,
      "d": 295.83333333333576,
      "v": 62
    },
    {
      "midi": 45,
      "hit": false,
      "t": 54485.41666666666,
      "d": 288.54166666666424,
      "v": 50
    },
    {
      "midi": 66,
      "hit": false,
      "t": 54492.70833333335,
      "d": 330.2083333333285,
      "v": 61
    },
    {
      "midi": 54,
      "hit": false,
      "t": 54730.20833333332,
      "d": 133.33333333333576,
      "v": 69
    },
    {
      "midi": 57,
      "hit": false,
      "t": 54731.249999999985,
      "d": 135.41666666667152,
      "v": 59
    },
    {
      "midi": 69,
      "hit": false,
      "t": 54750.000000000015,
      "d": 114.58333333332848,
      "v": 72
    },
    {
      "midi": 50,
      "hit": false,
      "t": 54997.91666666666,
      "d": 188.54166666666424,
      "v": 66
    },
    {
      "midi": 72,
      "hit": false,
      "t": 55009.37500000001,
      "d": 120.83333333333576,
      "v": 79
    },
    {
      "midi": 54,
      "hit": false,
      "t": 55249.999999999985,
      "d": 165.625,
      "v": 74
    },
    {
      "midi": 72,
      "hit": false,
      "t": 55251.04166666668,
      "d": 315.625,
      "v": 85
    },
    {
      "midi": 57,
      "hit": false,
      "t": 55254.16666666665,
      "d": 262.5000000000073,
      "v": 77
    },
    {
      "midi": 45,
      "hit": false,
      "t": 55492.70833333332,
      "d": 270.83333333333576,
      "v": 71
    },
    {
      "midi": 71,
      "hit": false,
      "t": 55510.41666666668,
      "d": 281.25,
      "v": 81
    },
    {
      "midi": 54,
      "hit": false,
      "t": 55742.70833333332,
      "d": 117.70833333333576,
      "v": 69
    },
    {
      "midi": 57,
      "hit": false,
      "t": 55745.83333333332,
      "d": 92.70833333333576,
      "v": 55
    },
    {
      "midi": 69,
      "hit": false,
      "t": 55746.875000000015,
      "d": 265.6249999999927,
      "v": 69
    },
    {
      "midi": 71,
      "hit": false,
      "t": 55989.58333333334,
      "d": 288.54166666666424,
      "v": 71
    },
    {
      "midi": 43,
      "hit": false,
      "t": 55994.79166666666,
      "d": 263.5416666666715,
      "v": 69
    },
    {
      "midi": 50,
      "hit": false,
      "t": 56234.37499999999,
      "d": 133.33333333333576,
      "v": 63
    },
    {
      "midi": 47,
      "hit": false,
      "t": 56243.74999999999,
      "d": 98.95833333333576,
      "v": 69
    },
    {
      "midi": 67,
      "hit": false,
      "t": 56261.45833333334,
      "d": 541.6666666666642,
      "v": 68
    },
    {
      "midi": 38,
      "hit": false,
      "t": 56487.49999999999,
      "d": 265.625,
      "v": 63
    },
    {
      "midi": 47,
      "hit": false,
      "t": 56728.12499999999,
      "d": 198.95833333333576,
      "v": 69
    },
    {
      "midi": 50,
      "hit": false,
      "t": 56740.62499999999,
      "d": 217.70833333333576,
      "v": 52
    },
    {
      "midi": 62,
      "hit": false,
      "t": 56756.25000000001,
      "d": 1260.4166666666715,
      "v": 66
    },
    {
      "midi": 43,
      "hit": false,
      "t": 56984.37499999999,
      "d": 292.70833333333576,
      "v": 68
    },
    {
      "midi": 47,
      "hit": false,
      "t": 57227.08333333333,
      "d": 128.125,
      "v": 58
    },
    {
      "midi": 50,
      "hit": false,
      "t": 57231.24999999999,
      "d": 177.08333333333576,
      "v": 55
    },
    {
      "midi": 38,
      "hit": false,
      "t": 57482.291666666664,
      "d": 282.2916666666715,
      "v": 61
    },
    {
      "midi": 47,
      "hit": false,
      "t": 57719.791666666664,
      "d": 85.41666666667152,
      "v": 70
    },
    {
      "midi": 50,
      "hit": false,
      "t": 57731.25,
      "d": 105.20833333333576,
      "v": 64
    },
    {
      "midi": 48,
      "hit": false,
      "t": 57970.833333333336,
      "d": 278.125,
      "v": 76
    },
    {
      "midi": 72,
      "hit": false,
      "t": 57983.33333333334,
      "d": 264.58333333333576,
      "v": 69
    },
    {
      "midi": 52,
      "hit": false,
      "t": 58214.583333333336,
      "d": 115.625,
      "v": 66
    },
    {
      "midi": 55,
      "hit": false,
      "t": 58218.75,
      "d": 142.70833333333576,
      "v": 49
    },
    {
      "midi": 71,
      "hit": false,
      "t": 58225.000000000015,
      "d": 311.4583333333285,
      "v": 47
    },
    {
      "midi": 43,
      "hit": false,
      "t": 58467.708333333336,
      "d": 294.7916666666715,
      "v": 69
    },
    {
      "midi": 72,
      "hit": false,
      "t": 58485.41666666668,
      "d": 302.0833333333285,
      "v": 68
    },
    {
      "midi": 52,
      "hit": false,
      "t": 58719.79166666667,
      "d": 127.08333333333576,
      "v": 66
    },
    {
      "midi": 55,
      "hit": false,
      "t": 58722.91666666667,
      "d": 152.08333333333576,
      "v": 53
    },
    {
      "midi": 74,
      "hit": false,
      "t": 58734.37500000001,
      "d": 100,
      "v": 63
    },
    {
      "midi": 48,
      "hit": false,
      "t": 58970.83333333334,
      "d": 251.04166666666424,
      "v": 79
    },
    {
      "midi": 76,
      "hit": false,
      "t": 58985.41666666667,
      "d": 126.04166666666424,
      "v": 77
    },
    {
      "midi": 55,
      "hit": false,
      "t": 59234.37500000001,
      "d": 193.75000000000728,
      "v": 64
    },
    {
      "midi": 52,
      "hit": false,
      "t": 59242.70833333334,
      "d": 142.70833333333576,
      "v": 70
    },
    {
      "midi": 76,
      "hit": false,
      "t": 59243.75,
      "d": 306.25,
      "v": 70
    },
    {
      "midi": 43,
      "hit": false,
      "t": 59478.125000000015,
      "d": 327.08333333333576,
      "v": 72
    },
    {
      "midi": 74,
      "hit": false,
      "t": 59484.375,
      "d": 298.9583333333285,
      "v": 70
    },
    {
      "midi": 72,
      "hit": false,
      "t": 59732.291666666664,
      "d": 117.70833333332848,
      "v": 74
    },
    {
      "midi": 55,
      "hit": false,
      "t": 59738.54166666668,
      "d": 95.83333333333576,
      "v": 72
    },
    {
      "midi": 52,
      "hit": false,
      "t": 59746.875000000015,
      "d": 87.5,
      "v": 70
    },
    {
      "midi": 43,
      "hit": false,
      "t": 59981.250000000015,
      "d": 290.6250000000073,
      "v": 77
    },
    {
      "midi": 74,
      "hit": false,
      "t": 60004.16666666666,
      "d": 305.20833333333576,
      "v": 85
    },
    {
      "midi": 47,
      "hit": false,
      "t": 60242.70833333335,
      "d": 110.41666666667152,
      "v": 70
    },
    {
      "midi": 79,
      "hit": false,
      "t": 60246.87499999999,
      "d": 493.75,
      "v": 67
    },
    {
      "midi": 50,
      "hit": false,
      "t": 60247.916666666686,
      "d": 173.95833333333576,
      "v": 63
    },
    {
      "midi": 38,
      "hit": false,
      "t": 60492.70833333336,
      "d": 170.83333333333576,
      "v": 72
    },
    {
      "midi": 67,
      "hit": false,
      "t": 60751.04166666666,
      "d": 367.70833333333576,
      "v": 59
    },
    {
      "midi": 47,
      "hit": false,
      "t": 60753.12500000003,
      "d": 127.08333333333576,
      "v": 69
    },
    {
      "midi": 50,
      "hit": false,
      "t": 60756.25000000003,
      "d": 141.66666666667152,
      "v": 66
    },
    {
      "midi": 43,
      "hit": false,
      "t": 61013.5416666667,
      "d": 259.375,
      "v": 63
    },
    {
      "midi": 67,
      "hit": false,
      "t": 61239.58333333333,
      "d": 245.83333333332848,
      "v": 90
    },
    {
      "midi": 47,
      "hit": false,
      "t": 61251.0416666667,
      "d": 121.875,
      "v": 69
    },
    {
      "midi": 50,
      "hit": false,
      "t": 61257.2916666667,
      "d": 195.83333333333576,
      "v": 55
    },
    {
      "midi": 69,
      "hit": false,
      "t": 61468.74999999999,
      "d": 322.91666666666424,
      "v": 70
    },
    {
      "midi": 38,
      "hit": false,
      "t": 61486.45833333337,
      "d": 262.4999999999927,
      "v": 75
    },
    {
      "midi": 47,
      "hit": false,
      "t": 61740.62500000004,
      "d": 81.24999999999272,
      "v": 70
    },
    {
      "midi": 50,
      "hit": false,
      "t": 61744.7916666667,
      "d": 91.66666666666424,
      "v": 64
    },
    {
      "midi": 71,
      "hit": false,
      "t": 61754.16666666666,
      "d": 261.45833333333576,
      "v": 69
    },
    {
      "midi": 50,
      "hit": false,
      "t": 61985.4166666667,
      "d": 176.04166666666424,
      "v": 86
    },
    {
      "midi": 72,
      "hit": false,
      "t": 61987.49999999999,
      "d": 89.58333333333576,
      "v": 81
    },
    {
      "midi": 54,
      "hit": false,
      "t": 62221.87500000003,
      "d": 165.625,
      "v": 83
    },
    {
      "midi": 57,
      "hit": false,
      "t": 62225.00000000003,
      "d": 340.625,
      "v": 69
    },
    {
      "midi": 72,
      "hit": false,
      "t": 62237.49999999999,
      "d": 318.75,
      "v": 68
    },
    {
      "midi": 45,
      "hit": false,
      "t": 62484.37500000003,
      "d": 265.625,
      "v": 76
    },
    {
      "midi": 71,
      "hit": false,
      "t": 62492.70833333333,
      "d": 289.5833333333285,
      "v": 67
    },
    {
      "midi": 54,
      "hit": false,
      "t": 62742.708333333365,
      "d": 258.33333333333576,
      "v": 71
    },
    {
      "midi": 69,
      "hit": false,
      "t": 62751.04166666666,
      "d": 256.25,
      "v": 62
    },
    {
      "midi": 57,
      "hit": false,
      "t": 62752.083333333365,
      "d": 238.54166666667152,
      "v": 58
    },
    {
      "midi": 50,
      "hit": false,
      "t": 62982.2916666667,
      "d": 155.20833333333576,
      "v": 81
    },
    {
      "midi": 71,
      "hit": false,
      "t": 62992.70833333332,
      "d": 103.125,
      "v": 69
    },
    {
      "midi": 54,
      "hit": false,
      "t": 63234.37500000004,
      "d": 170.83333333332848,
      "v": 76
    },
    {
      "midi": 57,
      "hit": false,
      "t": 63235.4166666667,
      "d": 262.4999999999927,
      "v": 78
    },
    {
      "midi": 66,
      "hit": false,
      "t": 63241.66666666666,
      "d": 532.2916666666642,
      "v": 89
    },
    {
      "midi": 45,
      "hit": false,
      "t": 63471.87500000003,
      "d": 271.875,
      "v": 67
    },
    {
      "midi": 67,
      "hit": false,
      "t": 63729.16666666666,
      "d": 1766.6666666666642,
      "v": 74
    },
    {
      "midi": 57,
      "hit": false,
      "t": 63737.50000000003,
      "d": 113.54166666666424,
      "v": 68
    },
    {
      "midi": 54,
      "hit": false,
      "t": 63738.54166666669,
      "d": 131.25,
      "v": 71
    },
    {
      "midi": 43,
      "hit": false,
      "t": 63983.33333333336,
      "d": 288.54166666666424,
      "v": 69
    },
    {
      "midi": 50,
      "hit": false,
      "t": 64238.54166666669,
      "d": 102.08333333332848,
      "v": 64
    },
    {
      "midi": 47,
      "hit": false,
      "t": 64242.70833333336,
      "d": 104.16666666666424,
      "v": 74
    },
    {
      "midi": 38,
      "hit": false,
      "t": 64476.041666666686,
      "d": 268.75,
      "v": 76
    },
    {
      "midi": 47,
      "hit": false,
      "t": 64719.791666666686,
      "d": 131.25,
      "v": 75
    },
    {
      "midi": 50,
      "hit": false,
      "t": 64733.33333333335,
      "d": 123.95833333333576,
      "v": 66
    },
    {
      "midi": 43,
      "hit": false,
      "t": 64977.08333333335,
      "d": 336.45833333333576,
      "v": 85
    },
    {
      "midi": 50,
      "hit": false,
      "t": 65220.83333333335,
      "d": 103.125,
      "v": 54
    },
    {
      "midi": 47,
      "hit": false,
      "t": 65226.041666666686,
      "d": 80.20833333333576,
      "v": 68
    },
    {
      "midi": 43,
      "hit": false,
      "t": 65486.45833333335,
      "d": 113.54166666664969,
      "v": 100
    },
    {
      "midi": 50,
      "hit": false,
      "t": 65492.70833333335,
      "d": 74.99999999999272,
      "v": 99
    },
    {
      "midi": 47,
      "hit": false,
      "t": 65493.750000000015,
      "d": 76.04166666665697,
      "v": 122
    },
    {
      "midi": 43,
      "hit": false,
      "t": 66000,
      "d": 253.125,
      "v": 63
    },
    {
      "midi": 55,
      "hit": false,
      "t": 66014.58333333331,
      "d": 86.45833333332848,
      "v": 100
    },
    {
      "midi": 50,
      "hit": false,
      "t": 66203.125,
      "d": 105.20833333332848,
      "v": 61
    },
    {
      "midi": 47,
      "hit": false,
      "t": 66213.54166666667,
      "d": 72.91666666665697,
      "v": 72
    },
    {
      "midi": 55,
      "hit": false,
      "t": 66388.54166666664,
      "d": 117.70833333332848,
      "v": 62
    },
    {
      "midi": 38,
      "hit": false,
      "t": 66464.58333333333,
      "d": 277.0833333333285,
      "v": 68
    },
    {
      "midi": 62,
      "hit": false,
      "t": 66509.37499999997,
      "d": 230.20833333332848,
      "v": 67
    },
    {
      "midi": 47,
      "hit": false,
      "t": 66721.875,
      "d": 81.24999999998545,
      "v": 66
    },
    {
      "midi": 50,
      "hit": false,
      "t": 66723.95833333333,
      "d": 84.37499999998545,
      "v": 51
    },
    {
      "midi": 67,
      "hit": false,
      "t": 66730.2083333333,
      "d": 150,
      "v": 73
    },
    {
      "midi": 43,
      "hit": false,
      "t": 66991.66666666664,
      "d": 258.3333333333285,
      "v": 76
    },
    {
      "midi": 50,
      "hit": false,
      "t": 67238.54166666664,
      "d": 136.45833333331393,
      "v": 56
    },
    {
      "midi": 47,
      "hit": false,
      "t": 67252.0833333333,
      "d": 105.20833333332848,
      "v": 63
    },
    {
      "midi": 38,
      "hit": false,
      "t": 67482.29166666663,
      "d": 277.0833333333285,
      "v": 71
    },
    {
      "midi": 47,
      "hit": false,
      "t": 67722.91666666663,
      "d": 82.29166666665697,
      "v": 72
    },
    {
      "midi": 50,
      "hit": false,
      "t": 67726.04166666663,
      "d": 98.95833333332848,
      "v": 64
    },
    {
      "midi": 67,
      "hit": false,
      "t": 67749.99999999997,
      "d": 152.08333333332848,
      "v": 38
    },
    {
      "midi": 66,
      "hit": false,
      "t": 67868.74999999997,
      "d": 119.79166666665697,
      "v": 82
    },
    {
      "midi": 69,
      "hit": false,
      "t": 68003.12499999996,
      "d": 296.875,
      "v": 64
    },
    {
      "midi": 48,
      "hit": false,
      "t": 68015.62499999996,
      "d": 287.5,
      "v": 72
    },
    {
      "midi": 52,
      "hit": false,
      "t": 68231.24999999996,
      "d": 90.625,
      "v": 71
    },
    {
      "midi": 55,
      "hit": false,
      "t": 68232.29166666663,
      "d": 104.16666666665697,
      "v": 62
    },
    {
      "midi": 67,
      "hit": false,
      "t": 68242.70833333328,
      "d": 159.375,
      "v": 65
    },
    {
      "midi": 43,
      "hit": false,
      "t": 68469.79166666661,
      "d": 290.625,
      "v": 75
    },
    {
      "midi": 64,
      "hit": false,
      "t": 68473.95833333328,
      "d": 187.5,
      "v": 68
    },
    {
      "midi": 55,
      "hit": false,
      "t": 68722.91666666661,
      "d": 111.45833333332848,
      "v": 56
    },
    {
      "midi": 60,
      "hit": false,
      "t": 68723.95833333328,
      "d": 156.25,
      "v": 77
    },
    {
      "midi": 52,
      "hit": false,
      "t": 68727.08333333328,
      "d": 102.08333333332848,
      "v": 69
    },
    {
      "midi": 48,
      "hit": false,
      "t": 68974.99999999994,
      "d": 280.2083333333285,
      "v": 72
    },
    {
      "midi": 55,
      "hit": false,
      "t": 69208.33333333327,
      "d": 156.25,
      "v": 58
    },
    {
      "midi": 52,
      "hit": false,
      "t": 69217.70833333327,
      "d": 132.29166666667152,
      "v": 66
    },
    {
      "midi": 43,
      "hit": false,
      "t": 69477.08333333327,
      "d": 290.625,
      "v": 58
    },
    {
      "midi": 52,
      "hit": false,
      "t": 69739.58333333327,
      "d": 89.58333333332848,
      "v": 70
    },
    {
      "midi": 55,
      "hit": false,
      "t": 69740.62499999994,
      "d": 114.58333333332848,
      "v": 59
    },
    {
      "midi": 67,
      "hit": false,
      "t": 69760.41666666661,
      "d": 93.75,
      "v": 52
    },
    {
      "midi": 64,
      "hit": false,
      "t": 69863.54166666661,
      "d": 134.375,
      "v": 77
    },
    {
      "midi": 50,
      "hit": false,
      "t": 69983.33333333327,
      "d": 303.125,
      "v": 56
    },
    {
      "midi": 66,
      "hit": false,
      "t": 70013.54166666661,
      "d": 241.66666666665697,
      "v": 73
    },
    {
      "midi": 54,
      "hit": false,
      "t": 70232.2916666666,
      "d": 103.125,
      "v": 66
    },
    {
      "midi": 57,
      "hit": false,
      "t": 70238.5416666666,
      "d": 114.58333333332848,
      "v": 63
    },
    {
      "midi": 62,
      "hit": false,
      "t": 70243.74999999994,
      "d": 291.66666666665697,
      "v": 53
    },
    {
      "midi": 45,
      "hit": false,
      "t": 70483.33333333326,
      "d": 276.04166666665697,
      "v": 82
    },
    {
      "midi": 66,
      "hit": false,
      "t": 70510.4166666666,
      "d": 238.54166666667152,
      "v": 74
    },
    {
      "midi": 69,
      "hit": false,
      "t": 70739.58333333327,
      "d": 111.45833333332848,
      "v": 69
    },
    {
      "midi": 57,
      "hit": false,
      "t": 70747.91666666658,
      "d": 111.45833333332848,
      "v": 62
    },
    {
      "midi": 54,
      "hit": false,
      "t": 70751.04166666658,
      "d": 103.125,
      "v": 76
    },
    {
      "midi": 50,
      "hit": false,
      "t": 70981.24999999991,
      "d": 283.33333333334303,
      "v": 72
    },
    {
      "midi": 54,
      "hit": false,
      "t": 71218.74999999991,
      "d": 178.12500000001455,
      "v": 59
    },
    {
      "midi": 57,
      "hit": false,
      "t": 71219.79166666658,
      "d": 202.08333333334303,
      "v": 59
    },
    {
      "midi": 45,
      "hit": false,
      "t": 71482.2916666666,
      "d": 307.2916666666715,
      "v": 64
    },
    {
      "midi": 57,
      "hit": false,
      "t": 71735.4166666666,
      "d": 89.58333333334303,
      "v": 55
    },
    {
      "midi": 54,
      "hit": false,
      "t": 71742.70833333327,
      "d": 107.29166666667152,
      "v": 61
    },
    {
      "midi": 69,
      "hit": false,
      "t": 71751.0416666666,
      "d": 151.04166666667152,
      "v": 66
    },
    {
      "midi": 66,
      "hit": false,
      "t": 71864.58333333327,
      "d": 146.875,
      "v": 92
    },
    {
      "midi": 67,
      "hit": false,
      "t": 71999.99999999994,
      "d": 243.75,
      "v": 81
    },
    {
      "midi": 43,
      "hit": false,
      "t": 72015.62499999994,
      "d": 253.125,
      "v": 63
    },
    {
      "midi": 50,
      "hit": false,
      "t": 72218.74999999994,
      "d": 105.20833333332848,
      "v": 61
    },
    {
      "midi": 47,
      "hit": false,
      "t": 72229.16666666661,
      "d": 72.91666666665697,
      "v": 72
    },
    {
      "midi": 62,
      "hit": false,
      "t": 72247.91666666661,
      "d": 276.0416666666715,
      "v": 55
    },
    {
      "midi": 38,
      "hit": false,
      "t": 72480.20833333327,
      "d": 277.0833333333285,
      "v": 68
    },
    {
      "midi": 59,
      "hit": false,
      "t": 72491.66666666661,
      "d": 205.20833333334303,
      "v": 93
    },
    {
      "midi": 47,
      "hit": false,
      "t": 72737.49999999994,
      "d": 81.24999999998545,
      "v": 66
    },
    {
      "midi": 50,
      "hit": false,
      "t": 72739.58333333327,
      "d": 84.37499999998545,
      "v": 51
    },
    {
      "midi": 55,
      "hit": false,
      "t": 72743.74999999996,
      "d": 136.45833333332848,
      "v": 99
    },
    {
      "midi": 43,
      "hit": false,
      "t": 73007.29166666658,
      "d": 258.3333333333285,
      "v": 76
    },
    {
      "midi": 50,
      "hit": false,
      "t": 73254.16666666658,
      "d": 136.45833333331393,
      "v": 56
    },
    {
      "midi": 47,
      "hit": false,
      "t": 73267.70833333324,
      "d": 105.20833333332848,
      "v": 63
    },
    {
      "midi": 38,
      "hit": false,
      "t": 73497.91666666657,
      "d": 277.0833333333285,
      "v": 71
    },
    {
      "midi": 47,
      "hit": false,
      "t": 73738.54166666657,
      "d": 82.29166666665697,
      "v": 72
    },
    {
      "midi": 50,
      "hit": false,
      "t": 73741.66666666657,
      "d": 98.95833333332848,
      "v": 64
    },
    {
      "midi": 43,
      "hit": false,
      "t": 73999.9999999999,
      "d": 253.125,
      "v": 63
    },
    {
      "midi": 55,
      "hit": false,
      "t": 74002.08333333328,
      "d": 513.5416666666715,
      "v": 62
    },
    {
      "midi": 50,
      "hit": false,
      "t": 74203.1249999999,
      "d": 105.20833333332848,
      "v": 61
    },
    {
      "midi": 47,
      "hit": false,
      "t": 74213.54166666657,
      "d": 72.91666666665697,
      "v": 72
    },
    {
      "midi": 38,
      "hit": false,
      "t": 74464.58333333323,
      "d": 277.0833333333285,
      "v": 68
    },
    {
      "midi": 62,
      "hit": false,
      "t": 74478.12499999996,
      "d": 230.20833333332848,
      "v": 67
    },
    {
      "midi": 67,
      "hit": false,
      "t": 74698.95833333328,
      "d": 150,
      "v": 73
    },
    {
      "midi": 47,
      "hit": false,
      "t": 74721.8749999999,
      "d": 81.24999999998545,
      "v": 66
    },
    {
      "midi": 50,
      "hit": false,
      "t": 74723.95833333323,
      "d": 84.37499999998545,
      "v": 51
    },
    {
      "midi": 43,
      "hit": false,
      "t": 74991.66666666654,
      "d": 258.3333333333285,
      "v": 76
    },
    {
      "midi": 50,
      "hit": false,
      "t": 75238.54166666654,
      "d": 136.45833333331393,
      "v": 56
    },
    {
      "midi": 47,
      "hit": false,
      "t": 75252.0833333332,
      "d": 105.20833333332848,
      "v": 63
    },
    {
      "midi": 38,
      "hit": false,
      "t": 75482.29166666653,
      "d": 277.0833333333285,
      "v": 71
    },
    {
      "midi": 67,
      "hit": false,
      "t": 75718.74999999996,
      "d": 152.08333333332848,
      "v": 38
    },
    {
      "midi": 47,
      "hit": false,
      "t": 75722.91666666653,
      "d": 82.29166666665697,
      "v": 72
    },
    {
      "midi": 50,
      "hit": false,
      "t": 75726.04166666653,
      "d": 98.95833333332848,
      "v": 64
    },
    {
      "midi": 66,
      "hit": false,
      "t": 75837.49999999996,
      "d": 119.79166666665697,
      "v": 82
    },
    {
      "midi": 69,
      "hit": false,
      "t": 75971.87499999994,
      "d": 296.875,
      "v": 64
    },
    {
      "midi": 48,
      "hit": false,
      "t": 76015.62499999985,
      "d": 287.5,
      "v": 72
    },
    {
      "midi": 67,
      "hit": false,
      "t": 76211.45833333327,
      "d": 159.375,
      "v": 65
    },
    {
      "midi": 52,
      "hit": false,
      "t": 76231.24999999985,
      "d": 90.625,
      "v": 71
    },
    {
      "midi": 55,
      "hit": false,
      "t": 76232.29166666653,
      "d": 104.16666666665697,
      "v": 62
    },
    {
      "midi": 64,
      "hit": false,
      "t": 76442.70833333327,
      "d": 187.5,
      "v": 68
    },
    {
      "midi": 43,
      "hit": false,
      "t": 76469.79166666651,
      "d": 290.625,
      "v": 75
    },
    {
      "midi": 60,
      "hit": false,
      "t": 76692.70833333327,
      "d": 156.25,
      "v": 77
    },
    {
      "midi": 55,
      "hit": false,
      "t": 76722.91666666651,
      "d": 111.45833333332848,
      "v": 56
    },
    {
      "midi": 52,
      "hit": false,
      "t": 76727.08333333318,
      "d": 102.08333333332848,
      "v": 69
    },
    {
      "midi": 48,
      "hit": false,
      "t": 76974.99999999984,
      "d": 280.2083333333285,
      "v": 72
    },
    {
      "midi": 55,
      "hit": false,
      "t": 77208.33333333317,
      "d": 156.25,
      "v": 58
    },
    {
      "midi": 52,
      "hit": false,
      "t": 77217.70833333317,
      "d": 132.29166666667152,
      "v": 66
    },
    {
      "midi": 43,
      "hit": false,
      "t": 77477.08333333317,
      "d": 290.625,
      "v": 58
    },
    {
      "midi": 67,
      "hit": false,
      "t": 77729.1666666666,
      "d": 93.75,
      "v": 52
    },
    {
      "midi": 52,
      "hit": false,
      "t": 77739.58333333317,
      "d": 89.58333333332848,
      "v": 70
    },
    {
      "midi": 55,
      "hit": false,
      "t": 77740.62499999984,
      "d": 114.58333333332848,
      "v": 59
    },
    {
      "midi": 64,
      "hit": false,
      "t": 77832.2916666666,
      "d": 134.375,
      "v": 77
    },
    {
      "midi": 66,
      "hit": false,
      "t": 77982.2916666666,
      "d": 241.66666666665697,
      "v": 73
    },
    {
      "midi": 50,
      "hit": false,
      "t": 77983.33333333317,
      "d": 303.125,
      "v": 56
    },
    {
      "midi": 62,
      "hit": false,
      "t": 78212.49999999993,
      "d": 291.66666666665697,
      "v": 53
    },
    {
      "midi": 54,
      "hit": false,
      "t": 78232.2916666665,
      "d": 103.125,
      "v": 66
    },
    {
      "midi": 57,
      "hit": false,
      "t": 78238.5416666665,
      "d": 114.58333333332848,
      "v": 63
    },
    {
      "midi": 66,
      "hit": false,
      "t": 78479.16666666658,
      "d": 238.54166666667152,
      "v": 74
    },
    {
      "midi": 45,
      "hit": false,
      "t": 78483.33333333315,
      "d": 276.04166666665697,
      "v": 82
    },
    {
      "midi": 69,
      "hit": false,
      "t": 78708.33333333326,
      "d": 111.45833333332848,
      "v": 69
    },
    {
      "midi": 57,
      "hit": false,
      "t": 78747.91666666648,
      "d": 111.45833333332848,
      "v": 62
    },
    {
      "midi": 54,
      "hit": false,
      "t": 78751.04166666648,
      "d": 103.125,
      "v": 76
    },
    {
      "midi": 50,
      "hit": false,
      "t": 78981.24999999981,
      "d": 283.33333333334303,
      "v": 72
    },
    {
      "midi": 54,
      "hit": false,
      "t": 79218.74999999981,
      "d": 178.12500000001455,
      "v": 59
    },
    {
      "midi": 57,
      "hit": false,
      "t": 79219.79166666648,
      "d": 202.08333333334303,
      "v": 59
    },
    {
      "midi": 45,
      "hit": false,
      "t": 79482.2916666665,
      "d": 307.2916666666715,
      "v": 64
    },
    {
      "midi": 69,
      "hit": false,
      "t": 79719.79166666658,
      "d": 151.04166666667152,
      "v": 66
    },
    {
      "midi": 57,
      "hit": false,
      "t": 79735.4166666665,
      "d": 89.58333333334303,
      "v": 55
    },
    {
      "midi": 54,
      "hit": false,
      "t": 79742.70833333317,
      "d": 107.29166666667152,
      "v": 61
    },
    {
      "midi": 66,
      "hit": false,
      "t": 79833.33333333326,
      "d": 146.875,
      "v": 92
    },
    {
      "midi": 67,
      "hit": false,
      "t": 79968.74999999993,
      "d": 243.75,
      "v": 81
    },
    {
      "midi": 43,
      "hit": false,
      "t": 79999.99999999984,
      "d": 253.125,
      "v": 63
    },
    {
      "midi": 50,
      "hit": false,
      "t": 80203.12499999984,
      "d": 105.20833333332848,
      "v": 61
    },
    {
      "midi": 47,
      "hit": false,
      "t": 80213.54166666651,
      "d": 72.91666666665697,
      "v": 72
    },
    {
      "midi": 62,
      "hit": false,
      "t": 80216.6666666666,
      "d": 276.0416666666715,
      "v": 55
    },
    {
      "midi": 59,
      "hit": false,
      "t": 80460.4166666666,
      "d": 205.20833333334303,
      "v": 93
    },
    {
      "midi": 38,
      "hit": false,
      "t": 80464.58333333317,
      "d": 277.0833333333285,
      "v": 68
    },
    {
      "midi": 55,
      "hit": false,
      "t": 80712.49999999994,
      "d": 136.45833333332848,
      "v": 99
    },
    {
      "midi": 47,
      "hit": false,
      "t": 80721.87499999984,
      "d": 81.24999999998545,
      "v": 66
    },
    {
      "midi": 50,
      "hit": false,
      "t": 80723.95833333317,
      "d": 84.37499999998545,
      "v": 51
    },
    {
      "midi": 43,
      "hit": false,
      "t": 80991.66666666648,
      "d": 258.3333333333285,
      "v": 76
    },
    {
      "midi": 50,
      "hit": false,
      "t": 81238.54166666648,
      "d": 136.45833333331393,
      "v": 56
    },
    {
      "midi": 47,
      "hit": false,
      "t": 81252.08333333314,
      "d": 105.20833333332848,
      "v": 63
    },
    {
      "midi": 38,
      "hit": false,
      "t": 81482.29166666647,
      "d": 277.0833333333285,
      "v": 71
    },
    {
      "midi": 47,
      "hit": false,
      "t": 81722.91666666647,
      "d": 82.29166666665697,
      "v": 72
    },
    {
      "midi": 50,
      "hit": false,
      "t": 81726.04166666647,
      "d": 98.95833333332848,
      "v": 64
    },
    {
      "midi": 62,
      "hit": false,
      "t": 81736.45833333327,
      "d": 141.66666666665697,
      "v": 56
    },
    {
      "midi": 59,
      "hit": false,
      "t": 81832.2916666666,
      "d": 140.625,
      "v": 79
    },
    {
      "midi": 55,
      "hit": false,
      "t": 81974.99999999993,
      "d": 288.5416666666715,
      "v": 72
    },
    {
      "midi": 43,
      "hit": false,
      "t": 81999.9999999998,
      "d": 253.125,
      "v": 63
    },
    {
      "midi": 50,
      "hit": false,
      "t": 82203.1249999998,
      "d": 105.20833333332848,
      "v": 61
    },
    {
      "midi": 47,
      "hit": false,
      "t": 82213.54166666647,
      "d": 72.91666666665697,
      "v": 72
    },
    {
      "midi": 59,
      "hit": false,
      "t": 82224.99999999993,
      "d": 296.87500000001455,
      "v": 72
    },
    {
      "midi": 38,
      "hit": false,
      "t": 82464.58333333312,
      "d": 277.0833333333285,
      "v": 68
    },
    {
      "midi": 62,
      "hit": false,
      "t": 82495.83333333327,
      "d": 264.58333333334303,
      "v": 72
    },
    {
      "midi": 47,
      "hit": false,
      "t": 82721.8749999998,
      "d": 81.24999999998545,
      "v": 66
    },
    {
      "midi": 50,
      "hit": false,
      "t": 82723.95833333312,
      "d": 84.37499999998545,
      "v": 51
    },
    {
      "midi": 67,
      "hit": false,
      "t": 82724.99999999994,
      "d": 92.70833333334303,
      "v": 75
    },
    {
      "midi": 67,
      "hit": false,
      "t": 82980.20833333328,
      "d": 138.54166666667152,
      "v": 79
    },
    {
      "midi": 43,
      "hit": false,
      "t": 82991.66666666644,
      "d": 258.3333333333285,
      "v": 76
    },
    {
      "midi": 69,
      "hit": false,
      "t": 83102.08333333328,
      "d": 185.41666666667152,
      "v": 62
    },
    {
      "midi": 67,
      "hit": false,
      "t": 83217.70833333328,
      "d": 158.33333333334303,
      "v": 85
    },
    {
      "midi": 50,
      "hit": false,
      "t": 83238.54166666644,
      "d": 136.45833333331393,
      "v": 56
    },
    {
      "midi": 47,
      "hit": false,
      "t": 83252.0833333331,
      "d": 105.20833333332848,
      "v": 63
    },
    {
      "midi": 66,
      "hit": false,
      "t": 83341.66666666663,
      "d": 115.625,
      "v": 96
    },
    {
      "midi": 67,
      "hit": false,
      "t": 83479.16666666663,
      "d": 523.9583333333285,
      "v": 90
    },
    {
      "midi": 38,
      "hit": false,
      "t": 83482.29166666642,
      "d": 277.0833333333285,
      "v": 71
    },
    {
      "midi": 47,
      "hit": false,
      "t": 83722.91666666642,
      "d": 82.29166666665697,
      "v": 72
    },
    {
      "midi": 50,
      "hit": false,
      "t": 83726.04166666642,
      "d": 98.95833333332848,
      "v": 64
    },
    {
      "midi": 64,
      "hit": false,
      "t": 83984.37499999996,
      "d": 310.41666666665697,
      "v": 72
    },
    {
      "midi": 48,
      "hit": false,
      "t": 84015.62499999975,
      "d": 287.5,
      "v": 72
    },
    {
      "midi": 52,
      "hit": false,
      "t": 84231.24999999975,
      "d": 90.625,
      "v": 71
    },
    {
      "midi": 55,
      "hit": false,
      "t": 84232.29166666642,
      "d": 104.16666666665697,
      "v": 62
    },
    {
      "midi": 60,
      "hit": false,
      "t": 84252.08333333328,
      "d": 323.9583333333285,
      "v": 76
    },
    {
      "midi": 43,
      "hit": false,
      "t": 84469.79166666641,
      "d": 290.625,
      "v": 75
    },
    {
      "midi": 64,
      "hit": false,
      "t": 84501.04166666661,
      "d": 298.9583333333285,
      "v": 69
    },
    {
      "midi": 55,
      "hit": false,
      "t": 84722.91666666641,
      "d": 111.45833333332848,
      "v": 56
    },
    {
      "midi": 52,
      "hit": false,
      "t": 84727.08333333308,
      "d": 102.08333333332848,
      "v": 69
    },
    {
      "midi": 67,
      "hit": false,
      "t": 84749.99999999994,
      "d": 90.625,
      "v": 71
    },
    {
      "midi": 48,
      "hit": false,
      "t": 84974.99999999974,
      "d": 280.2083333333285,
      "v": 72
    },
    {
      "midi": 67,
      "hit": false,
      "t": 84993.74999999994,
      "d": 115.625,
      "v": 78
    },
    {
      "midi": 69,
      "hit": false,
      "t": 85102.08333333327,
      "d": 190.625,
      "v": 64
    },
    {
      "midi": 55,
      "hit": false,
      "t": 85208.33333333307,
      "d": 156.25,
      "v": 58
    },
    {
      "midi": 52,
      "hit": false,
      "t": 85217.70833333307,
      "d": 132.29166666667152,
      "v": 66
    },
    {
      "midi": 67,
      "hit": false,
      "t": 85234.37499999994,
      "d": 170.83333333332848,
      "v": 77
    },
    {
      "midi": 66,
      "hit": false,
      "t": 85348.95833333327,
      "d": 116.66666666667152,
      "v": 89
    },
    {
      "midi": 43,
      "hit": false,
      "t": 85477.08333333307,
      "d": 290.625,
      "v": 58
    },
    {
      "midi": 67,
      "hit": false,
      "t": 85483.33333333327,
      "d": 548.9583333333285,
      "v": 82
    },
    {
      "midi": 52,
      "hit": false,
      "t": 85739.58333333307,
      "d": 89.58333333332848,
      "v": 70
    },
    {
      "midi": 55,
      "hit": false,
      "t": 85740.62499999974,
      "d": 114.58333333332848,
      "v": 59
    },
    {
      "midi": 50,
      "hit": false,
      "t": 85983.33333333307,
      "d": 303.125,
      "v": 56
    },
    {
      "midi": 66,
      "hit": false,
      "t": 86004.1666666666,
      "d": 263.54166666665697,
      "v": 74
    },
    {
      "midi": 54,
      "hit": false,
      "t": 86232.2916666664,
      "d": 103.125,
      "v": 66
    },
    {
      "midi": 57,
      "hit": false,
      "t": 86238.5416666664,
      "d": 114.58333333332848,
      "v": 63
    },
    {
      "midi": 62,
      "hit": false,
      "t": 86246.87499999993,
      "d": 394.7916666666715,
      "v": 69
    },
    {
      "midi": 45,
      "hit": false,
      "t": 86483.33333333305,
      "d": 276.04166666665697,
      "v": 82
    },
    {
      "midi": 66,
      "hit": false,
      "t": 86490.62499999993,
      "d": 309.375,
      "v": 57
    },
    {
      "midi": 57,
      "hit": false,
      "t": 86747.91666666638,
      "d": 111.45833333332848,
      "v": 62
    },
    {
      "midi": 54,
      "hit": false,
      "t": 86751.04166666638,
      "d": 103.125,
      "v": 76
    },
    {
      "midi": 69,
      "hit": false,
      "t": 86751.0416666666,
      "d": 85.41666666665697,
      "v": 77
    },
    {
      "midi": 50,
      "hit": false,
      "t": 86981.24999999971,
      "d": 283.33333333334303,
      "v": 72
    },
    {
      "midi": 74,
      "hit": false,
      "t": 87001.04166666658,
      "d": 153.125,
      "v": 77
    },
    {
      "midi": 76,
      "hit": false,
      "t": 87115.62499999991,
      "d": 194.79166666667152,
      "v": 79
    },
    {
      "midi": 54,
      "hit": false,
      "t": 87218.74999999971,
      "d": 178.12500000001455,
      "v": 59
    },
    {
      "midi": 57,
      "hit": false,
      "t": 87219.79166666638,
      "d": 202.08333333334303,
      "v": 59
    },
    {
      "midi": 74,
      "hit": false,
      "t": 87249.99999999991,
      "d": 152.08333333334303,
      "v": 82
    },
    {
      "midi": 72,
      "hit": false,
      "t": 87355.20833333326,
      "d": 188.54166666667152,
      "v": 37
    },
    {
      "midi": 45,
      "hit": false,
      "t": 87482.2916666664,
      "d": 307.2916666666715,
      "v": 64
    },
    {
      "midi": 74,
      "hit": false,
      "t": 87511.45833333326,
      "d": 382.2916666666715,
      "v": 102
    },
    {
      "midi": 57,
      "hit": false,
      "t": 87735.4166666664,
      "d": 89.58333333334303,
      "v": 55
    },
    {
      "midi": 54,
      "hit": false,
      "t": 87742.70833333307,
      "d": 107.29166666667152,
      "v": 61
    },
    {
      "midi": 72,
      "hit": false,
      "t": 87880.20833333326,
      "d": 143.75,
      "v": 74
    },
    {
      "midi": 43,
      "hit": false,
      "t": 87992.70833333307,
      "d": 285.4166666666715,
      "v": 67
    },
    {
      "midi": 71,
      "hit": false,
      "t": 88011.45833333326,
      "d": 1427.0833333333285,
      "v": 89
    },
    {
      "midi": 47,
      "hit": false,
      "t": 88227.08333333307,
      "d": 104.16666666667152,
      "v": 68
    },
    {
      "midi": 50,
      "hit": false,
      "t": 88233.33333333307,
      "d": 116.66666666667152,
      "v": 51
    },
    {
      "midi": 38,
      "hit": false,
      "t": 88498.95833333307,
      "d": 257.2916666666715,
      "v": 77
    },
    {
      "midi": 47,
      "hit": false,
      "t": 88737.49999999974,
      "d": 94.79166666667152,
      "v": 70
    },
    {
      "midi": 50,
      "hit": false,
      "t": 88741.66666666641,
      "d": 108.33333333332848,
      "v": 58
    },
    {
      "midi": 43,
      "hit": false,
      "t": 88991.66666666641,
      "d": 263.5416666666715,
      "v": 58
    },
    {
      "midi": 47,
      "hit": false,
      "t": 89241.66666666641,
      "d": 110.41666666667152,
      "v": 82
    },
    {
      "midi": 50,
      "hit": false,
      "t": 89247.91666666641,
      "d": 80.20833333334303,
      "v": 59
    },
    {
      "midi": 38,
      "hit": false,
      "t": 89472.91666666641,
      "d": 291.6666666666715,
      "v": 75
    },
    {
      "midi": 47,
      "hit": false,
      "t": 89737.49999999974,
      "d": 117.70833333334303,
      "v": 75
    },
    {
      "midi": 50,
      "hit": false,
      "t": 89741.66666666641,
      "d": 132.29166666667152,
      "v": 68
    },
    {
      "midi": 62,
      "hit": false,
      "t": 89749.99999999991,
      "d": 138.54166666667152,
      "v": 69
    },
    {
      "midi": 59,
      "hit": false,
      "t": 89846.87499999991,
      "d": 151.04166666667152,
      "v": 89
    },
    {
      "midi": 43,
      "hit": false,
      "t": 89969.79166666641,
      "d": 297.91666666665697,
      "v": 88
    },
    {
      "midi": 55,
      "hit": false,
      "t": 89996.87499999991,
      "d": 256.25,
      "v": 81
    },
    {
      "midi": 50,
      "hit": false,
      "t": 90218.74999999974,
      "d": 123.95833333332848,
      "v": 63
    },
    {
      "midi": 47,
      "hit": false,
      "t": 90223.95833333307,
      "d": 120.83333333332848,
      "v": 55
    },
    {
      "midi": 59,
      "hit": false,
      "t": 90255.20833333324,
      "d": 294.7916666666715,
      "v": 75
    },
    {
      "midi": 38,
      "hit": false,
      "t": 90495.83333333307,
      "d": 272.9166666666715,
      "v": 56
    },
    {
      "midi": 62,
      "hit": false,
      "t": 90499.99999999991,
      "d": 280.2083333333285,
      "v": 79
    },
    {
      "midi": 47,
      "hit": false,
      "t": 90732.2916666664,
      "d": 91.66666666667152,
      "v": 74
    },
    {
      "midi": 50,
      "hit": false,
      "t": 90739.58333333307,
      "d": 97.91666666667152,
      "v": 61
    },
    {
      "midi": 67,
      "hit": false,
      "t": 90740.62499999991,
      "d": 93.75,
      "v": 73
    },
    {
      "midi": 43,
      "hit": false,
      "t": 90974.99999999974,
      "d": 266.6666666666715,
      "v": 82
    },
    {
      "midi": 67,
      "hit": false,
      "t": 91008.33333333324,
      "d": 115.625,
      "v": 78
    },
    {
      "midi": 69,
      "hit": false,
      "t": 91114.58333333324,
      "d": 167.70833333334303,
      "v": 64
    },
    {
      "midi": 50,
      "hit": false,
      "t": 91234.37499999974,
      "d": 138.54166666667152,
      "v": 59
    },
    {
      "midi": 47,
      "hit": false,
      "t": 91240.62499999974,
      "d": 121.875,
      "v": 66
    },
    {
      "midi": 67,
      "hit": false,
      "t": 91240.62499999991,
      "d": 133.33333333334303,
      "v": 82
    },
    {
      "midi": 66,
      "hit": false,
      "t": 91338.54166666658,
      "d": 120.83333333334303,
      "v": 90
    },
    {
      "midi": 67,
      "hit": false,
      "t": 91494.7916666666,
      "d": 538.5416666666715,
      "v": 81
    },
    {
      "midi": 38,
      "hit": false,
      "t": 91498.95833333308,
      "d": 282.2916666666715,
      "v": 54
    },
    {
      "midi": 47,
      "hit": false,
      "t": 91731.24999999975,
      "d": 94.79166666667152,
      "v": 69
    },
    {
      "midi": 50,
      "hit": false,
      "t": 91742.70833333308,
      "d": 112.50000000001455,
      "v": 63
    },
    {
      "midi": 48,
      "hit": false,
      "t": 91991.66666666642,
      "d": 281.25,
      "v": 76
    },
    {
      "midi": 64,
      "hit": false,
      "t": 92001.0416666666,
      "d": 262.5,
      "v": 58
    },
    {
      "midi": 55,
      "hit": false,
      "t": 92237.49999999975,
      "d": 103.125,
      "v": 65
    },
    {
      "midi": 60,
      "hit": false,
      "t": 92238.5416666666,
      "d": 300,
      "v": 74
    },
    {
      "midi": 52,
      "hit": false,
      "t": 92243.74999999975,
      "d": 84.375,
      "v": 72
    },
    {
      "midi": 43,
      "hit": false,
      "t": 92481.24999999975,
      "d": 257.2916666666715,
      "v": 77
    },
    {
      "midi": 64,
      "hit": false,
      "t": 92488.5416666666,
      "d": 292.7083333333285,
      "v": 74
    },
    {
      "midi": 52,
      "hit": false,
      "t": 92724.99999999975,
      "d": 100,
      "v": 69
    },
    {
      "midi": 55,
      "hit": false,
      "t": 92729.16666666642,
      "d": 95.83333333332848,
      "v": 60
    },
    {
      "midi": 67,
      "hit": false,
      "t": 92734.37499999993,
      "d": 106.25,
      "v": 61
    },
    {
      "midi": 48,
      "hit": false,
      "t": 92974.99999999975,
      "d": 258.33333333334303,
      "v": 69
    },
    {
      "midi": 67,
      "hit": false,
      "t": 92986.45833333326,
      "d": 117.70833333334303,
      "v": 82
    },
    {
      "midi": 69,
      "hit": false,
      "t": 93078.12499999993,
      "d": 235.41666666667152,
      "v": 76
    },
    {
      "midi": 55,
      "hit": false,
      "t": 93201.04166666642,
      "d": 173.95833333334303,
      "v": 59
    },
    {
      "midi": 52,
      "hit": false,
      "t": 93205.2083333331,
      "d": 134.375,
      "v": 69
    },
    {
      "midi": 67,
      "hit": false,
      "t": 93229.1666666666,
      "d": 162.5,
      "v": 89
    },
    {
      "midi": 66,
      "hit": false,
      "t": 93342.70833333327,
      "d": 132.29166666665697,
      "v": 66
    },
    {
      "midi": 67,
      "hit": false,
      "t": 93484.37499999993,
      "d": 557.2916666666715,
      "v": 88
    },
    {
      "midi": 43,
      "hit": false,
      "t": 93490.62499999977,
      "d": 323.9583333333285,
      "v": 56
    },
    {
      "midi": 55,
      "hit": false,
      "t": 93745.8333333331,
      "d": 101.04166666665697,
      "v": 63
    },
    {
      "midi": 52,
      "hit": false,
      "t": 93761.4583333331,
      "d": 73.95833333332848,
      "v": 60
    },
    {
      "midi": 50,
      "hit": false,
      "t": 94003.12499999975,
      "d": 288.5416666666715,
      "v": 72
    },
    {
      "midi": 66,
      "hit": false,
      "t": 94012.49999999993,
      "d": 246.875,
      "v": 82
    },
    {
      "midi": 57,
      "hit": false,
      "t": 94238.54166666642,
      "d": 125,
      "v": 61
    },
    {
      "midi": 54,
      "hit": false,
      "t": 94241.66666666642,
      "d": 111.45833333332848,
      "v": 72
    },
    {
      "midi": 62,
      "hit": false,
      "t": 94253.12499999993,
      "d": 348.9583333333285,
      "v": 63
    },
    {
      "midi": 45,
      "hit": false,
      "t": 94501.04166666642,
      "d": 255.20833333332848,
      "v": 79
    },
    {
      "midi": 66,
      "hit": false,
      "t": 94508.33333333326,
      "d": 273.95833333334303,
      "v": 66
    },
    {
      "midi": 69,
      "hit": false,
      "t": 94734.37499999993,
      "d": 92.70833333334303,
      "v": 73
    },
    {
      "midi": 57,
      "hit": false,
      "t": 94745.8333333331,
      "d": 123.95833333332848,
      "v": 60
    },
    {
      "midi": 54,
      "hit": false,
      "t": 94747.91666666642,
      "d": 102.08333333332848,
      "v": 70
    },
    {
      "midi": 50,
      "hit": false,
      "t": 94999.99999999975,
      "d": 267.70833333334303,
      "v": 69
    },
    {
      "midi": 74,
      "hit": false,
      "t": 94999.99999999994,
      "d": 150,
      "v": 75
    },
    {
      "midi": 76,
      "hit": false,
      "t": 95116.66666666661,
      "d": 173.95833333332848,
      "v": 72
    },
    {
      "midi": 54,
      "hit": false,
      "t": 95219.79166666642,
      "d": 159.375,
      "v": 66
    },
    {
      "midi": 74,
      "hit": false,
      "t": 95237.49999999994,
      "d": 159.375,
      "v": 99
    },
    {
      "midi": 57,
      "hit": false,
      "t": 95238.54166666642,
      "d": 196.875,
      "v": 51
    },
    {
      "midi": 72,
      "hit": false,
      "t": 95359.37499999994,
      "d": 151.04166666667152,
      "v": 72
    },
    {
      "midi": 45,
      "hit": false,
      "t": 95483.3333333331,
      "d": 336.45833333334303,
      "v": 59
    },
    {
      "midi": 74,
      "hit": false,
      "t": 95494.79166666661,
      "d": 389.5833333333285,
      "v": 102
    },
    {
      "midi": 54,
      "hit": false,
      "t": 95728.12499999977,
      "d": 123.95833333332848,
      "v": 39
    },
    {
      "midi": 57,
      "hit": false,
      "t": 95740.62499999977,
      "d": 81.25,
      "v": 56
    },
    {
      "midi": 72,
      "hit": false,
      "t": 95851.04166666661,
      "d": 156.24999999998545,
      "v": 66
    },
    {
      "midi": 43,
      "hit": false,
      "t": 95967.7083333331,
      "d": 311.4583333333285,
      "v": 75
    },
    {
      "midi": 71,
      "hit": false,
      "t": 95992.70833333327,
      "d": 2036.4583333333285,
      "v": 92
    },
    {
      "midi": 47,
      "hit": false,
      "t": 96247.91666666642,
      "d": 89.58333333332848,
      "v": 69
    },
    {
      "midi": 50,
      "hit": false,
      "t": 96258.3333333331,
      "d": 70.83333333332848,
      "v": 48
    },
    {
      "midi": 38,
      "hit": false,
      "t": 96504.16666666642,
      "d": 260.41666666665697,
      "v": 77
    },
    {
      "midi": 47,
      "hit": false,
      "t": 96741.66666666642,
      "d": 102.08333333332848,
      "v": 72
    },
    {
      "midi": 50,
      "hit": false,
      "t": 96749.99999999975,
      "d": 113.54166666667152,
      "v": 59
    },
    {
      "midi": 43,
      "hit": false,
      "t": 97002.0833333331,
      "d": 272.9166666666715,
      "v": 70
    },
    {
      "midi": 47,
      "hit": false,
      "t": 97246.87499999977,
      "d": 93.75,
      "v": 71
    },
    {
      "midi": 50,
      "hit": false,
      "t": 97253.12499999977,
      "d": 98.95833333332848,
      "v": 53
    },
    {
      "midi": 38,
      "hit": false,
      "t": 97513.54166666642,
      "d": 260.41666666665697,
      "v": 58
    },
    {
      "midi": 47,
      "hit": false,
      "t": 97728.12499999975,
      "d": 113.54166666665697,
      "v": 65
    },
    {
      "midi": 50,
      "hit": false,
      "t": 97736.45833333308,
      "d": 107.29166666665697,
      "v": 57
    },
    {
      "midi": 48,
      "hit": false,
      "t": 97991.66666666641,
      "d": 265.625,
      "v": 77
    },
    {
      "midi": 72,
      "hit": false,
      "t": 97995.83333333327,
      "d": 266.66666666665697,
      "v": 72
    },
    {
      "midi": 52,
      "hit": false,
      "t": 98230.20833333308,
      "d": 110.41666666665697,
      "v": 66
    },
    {
      "midi": 55,
      "hit": false,
      "t": 98241.66666666641,
      "d": 106.25,
      "v": 69
    },
    {
      "midi": 71,
      "hit": false,
      "t": 98244.7916666666,
      "d": 282.2916666666715,
      "v": 79
    },
    {
      "midi": 43,
      "hit": false,
      "t": 98477.08333333308,
      "d": 266.66666666665697,
      "v": 73
    },
    {
      "midi": 72,
      "hit": false,
      "t": 98479.1666666666,
      "d": 303.125,
      "v": 69
    },
    {
      "midi": 52,
      "hit": false,
      "t": 98726.04166666641,
      "d": 138.54166666665697,
      "v": 65
    },
    {
      "midi": 55,
      "hit": false,
      "t": 98732.29166666641,
      "d": 157.29166666665697,
      "v": 57
    },
    {
      "midi": 74,
      "hit": false,
      "t": 98742.70833333327,
      "d": 282.29166666665697,
      "v": 70
    },
    {
      "midi": 48,
      "hit": false,
      "t": 98980.20833333307,
      "d": 143.75,
      "v": 78
    },
    {
      "midi": 76,
      "hit": false,
      "t": 98985.4166666666,
      "d": 88.54166666665697,
      "v": 72
    },
    {
      "midi": 76,
      "hit": false,
      "t": 99222.91666666658,
      "d": 295.83333333334303,
      "v": 77
    },
    {
      "midi": 52,
      "hit": false,
      "t": 99224.99999999974,
      "d": 144.79166666667152,
      "v": 77
    },
    {
      "midi": 55,
      "hit": false,
      "t": 99234.37499999974,
      "d": 252.08333333334303,
      "v": 78
    },
    {
      "midi": 74,
      "hit": false,
      "t": 99458.33333333326,
      "d": 291.6666666666715,
      "v": 71
    },
    {
      "midi": 43,
      "hit": false,
      "t": 99469.79166666641,
      "d": 298.95833333334303,
      "v": 72
    },
    {
      "midi": 72,
      "hit": false,
      "t": 99717.70833333326,
      "d": 267.7083333333285,
      "v": 63
    },
    {
      "midi": 55,
      "hit": false,
      "t": 99718.74999999975,
      "d": 89.58333333332848,
      "v": 66
    },
    {
      "midi": 52,
      "hit": false,
      "t": 99726.04166666642,
      "d": 88.54166666665697,
      "v": 70
    },
    {
      "midi": 43,
      "hit": false,
      "t": 99955.20833333308,
      "d": 271.87500000001455,
      "v": 68
    },
    {
      "midi": 74,
      "hit": false,
      "t": 99955.20833333326,
      "d": 289.5833333333285,
      "v": 75
    },
    {
      "midi": 50,
      "hit": false,
      "t": 100203.12499999975,
      "d": 262.50000000001455,
      "v": 63
    },
    {
      "midi": 47,
      "hit": false,
      "t": 100207.29166666642,
      "d": 105.20833333334303,
      "v": 71
    },
    {
      "midi": 71,
      "hit": false,
      "t": 100234.37499999991,
      "d": 539.583333333343,
      "v": 76
    },
    {
      "midi": 38,
      "hit": false,
      "t": 100472.91666666644,
      "d": 192.70833333332848,
      "v": 67
    },
    {
      "midi": 47,
      "hit": false,
      "t": 100709.37499999977,
      "d": 147.91666666667152,
      "v": 63
    },
    {
      "midi": 50,
      "hit": false,
      "t": 100710.41666666644,
      "d": 164.58333333332848,
      "v": 58
    },
    {
      "midi": 67,
      "hit": false,
      "t": 100723.95833333326,
      "d": 1328.125,
      "v": 67
    },
    {
      "midi": 43,
      "hit": false,
      "t": 100964.5833333331,
      "d": 319.7916666666715,
      "v": 67
    },
    {
      "midi": 47,
      "hit": false,
      "t": 101221.87499999977,
      "d": 129.16666666667152,
      "v": 64
    },
    {
      "midi": 50,
      "hit": false,
      "t": 101233.3333333331,
      "d": 132.29166666667152,
      "v": 50
    },
    {
      "midi": 38,
      "hit": false,
      "t": 101497.91666666644,
      "d": 276.04166666665697,
      "v": 52
    },
    {
      "midi": 50,
      "hit": false,
      "t": 101738.54166666644,
      "d": 97.91666666665697,
      "v": 61
    },
    {
      "midi": 47,
      "hit": false,
      "t": 101740.62499999977,
      "d": 77.08333333332848,
      "v": 72
    },
    {
      "midi": 50,
      "hit": false,
      "t": 101993.74999999977,
      "d": 281.25,
      "v": 43
    },
    {
      "midi": 66,
      "hit": false,
      "t": 102012.49999999993,
      "d": 261.4583333333285,
      "v": 77
    },
    {
      "midi": 54,
      "hit": false,
      "t": 102232.29166666644,
      "d": 116.66666666665697,
      "v": 70
    },
    {
      "midi": 57,
      "hit": false,
      "t": 102241.66666666644,
      "d": 123.95833333332848,
      "v": 64
    },
    {
      "midi": 62,
      "hit": false,
      "t": 102249.99999999993,
      "d": 295.8333333333285,
      "v": 62
    },
    {
      "midi": 45,
      "hit": false,
      "t": 102485.41666666644,
      "d": 288.5416666666715,
      "v": 50
    },
    {
      "midi": 66,
      "hit": false,
      "t": 102492.70833333326,
      "d": 330.20833333334303,
      "v": 61
    },
    {
      "midi": 54,
      "hit": false,
      "t": 102730.20833333311,
      "d": 133.33333333332848,
      "v": 69
    },
    {
      "midi": 57,
      "hit": false,
      "t": 102731.24999999978,
      "d": 135.41666666665697,
      "v": 59
    },
    {
      "midi": 69,
      "hit": false,
      "t": 102749.99999999993,
      "d": 114.58333333334303,
      "v": 72
    },
    {
      "midi": 50,
      "hit": false,
      "t": 102997.91666666644,
      "d": 188.54166666667152,
      "v": 66
    },
    {
      "midi": 72,
      "hit": false,
      "t": 103009.37499999994,
      "d": 120.83333333332848,
      "v": 79
    },
    {
      "midi": 54,
      "hit": false,
      "t": 103249.99999999978,
      "d": 165.625,
      "v": 74
    },
    {
      "midi": 72,
      "hit": false,
      "t": 103251.0416666666,
      "d": 315.625,
      "v": 85
    },
    {
      "midi": 57,
      "hit": false,
      "t": 103254.16666666645,
      "d": 262.49999999998545,
      "v": 77
    },
    {
      "midi": 45,
      "hit": false,
      "t": 103492.70833333311,
      "d": 270.8333333333285,
      "v": 71
    },
    {
      "midi": 71,
      "hit": false,
      "t": 103510.4166666666,
      "d": 281.25,
      "v": 81
    },
    {
      "midi": 54,
      "hit": false,
      "t": 103742.70833333311,
      "d": 117.70833333332848,
      "v": 69
    },
    {
      "midi": 57,
      "hit": false,
      "t": 103745.83333333311,
      "d": 92.70833333332848,
      "v": 55
    },
    {
      "midi": 69,
      "hit": false,
      "t": 103746.87499999993,
      "d": 265.62500000001455,
      "v": 69
    },
    {
      "midi": 71,
      "hit": false,
      "t": 103989.58333333327,
      "d": 288.5416666666715,
      "v": 71
    },
    {
      "midi": 43,
      "hit": false,
      "t": 103994.79166666644,
      "d": 263.54166666665697,
      "v": 69
    },
    {
      "midi": 50,
      "hit": false,
      "t": 104234.37499999977,
      "d": 133.33333333332848,
      "v": 63
    },
    {
      "midi": 47,
      "hit": false,
      "t": 104243.74999999977,
      "d": 98.95833333332848,
      "v": 69
    },
    {
      "midi": 67,
      "hit": false,
      "t": 104261.45833333327,
      "d": 541.6666666666715,
      "v": 68
    },
    {
      "midi": 38,
      "hit": false,
      "t": 104487.49999999977,
      "d": 265.625,
      "v": 63
    },
    {
      "midi": 47,
      "hit": false,
      "t": 104728.12499999977,
      "d": 198.95833333332848,
      "v": 69
    },
    {
      "midi": 50,
      "hit": false,
      "t": 104740.62499999977,
      "d": 217.70833333332848,
      "v": 52
    },
    {
      "midi": 62,
      "hit": false,
      "t": 104756.24999999994,
      "d": 1260.416666666657,
      "v": 66
    },
    {
      "midi": 43,
      "hit": false,
      "t": 104984.37499999977,
      "d": 292.7083333333285,
      "v": 68
    },
    {
      "midi": 47,
      "hit": false,
      "t": 105227.0833333331,
      "d": 128.125,
      "v": 58
    },
    {
      "midi": 50,
      "hit": false,
      "t": 105231.24999999977,
      "d": 177.08333333332848,
      "v": 55
    },
    {
      "midi": 38,
      "hit": false,
      "t": 105482.29166666642,
      "d": 282.29166666665697,
      "v": 61
    },
    {
      "midi": 47,
      "hit": false,
      "t": 105719.79166666642,
      "d": 85.41666666665697,
      "v": 70
    },
    {
      "midi": 50,
      "hit": false,
      "t": 105731.24999999975,
      "d": 105.20833333332848,
      "v": 64
    },
    {
      "midi": 48,
      "hit": false,
      "t": 105970.83333333308,
      "d": 278.125,
      "v": 76
    },
    {
      "midi": 72,
      "hit": false,
      "t": 105983.33333333327,
      "d": 264.5833333333285,
      "v": 69
    },
    {
      "midi": 52,
      "hit": false,
      "t": 106214.58333333308,
      "d": 115.625,
      "v": 66
    },
    {
      "midi": 55,
      "hit": false,
      "t": 106218.74999999975,
      "d": 142.70833333332848,
      "v": 49
    },
    {
      "midi": 71,
      "hit": false,
      "t": 106224.99999999993,
      "d": 311.45833333334303,
      "v": 47
    },
    {
      "midi": 43,
      "hit": false,
      "t": 106467.70833333308,
      "d": 294.79166666665697,
      "v": 69
    },
    {
      "midi": 72,
      "hit": false,
      "t": 106485.4166666666,
      "d": 302.08333333334303,
      "v": 68
    },
    {
      "midi": 52,
      "hit": false,
      "t": 106719.79166666641,
      "d": 127.08333333332848,
      "v": 66
    },
    {
      "midi": 55,
      "hit": false,
      "t": 106722.91666666641,
      "d": 152.08333333332848,
      "v": 53
    },
    {
      "midi": 74,
      "hit": false,
      "t": 106734.37499999994,
      "d": 100,
      "v": 63
    },
    {
      "midi": 48,
      "hit": false,
      "t": 106970.83333333307,
      "d": 251.04166666667152,
      "v": 79
    },
    {
      "midi": 76,
      "hit": false,
      "t": 106985.41666666661,
      "d": 126.04166666667152,
      "v": 77
    },
    {
      "midi": 55,
      "hit": false,
      "t": 107234.37499999974,
      "d": 193.74999999998545,
      "v": 64
    },
    {
      "midi": 52,
      "hit": false,
      "t": 107242.70833333307,
      "d": 142.70833333332848,
      "v": 70
    },
    {
      "midi": 76,
      "hit": false,
      "t": 107243.74999999996,
      "d": 306.25,
      "v": 70
    },
    {
      "midi": 43,
      "hit": false,
      "t": 107478.12499999972,
      "d": 327.0833333333285,
      "v": 72
    },
    {
      "midi": 74,
      "hit": false,
      "t": 107484.37499999996,
      "d": 298.95833333334303,
      "v": 70
    },
    {
      "midi": 72,
      "hit": false,
      "t": 107732.29166666663,
      "d": 117.70833333334303,
      "v": 74
    },
    {
      "midi": 55,
      "hit": false,
      "t": 107738.5416666664,
      "d": 95.83333333332848,
      "v": 72
    },
    {
      "midi": 52,
      "hit": false,
      "t": 107746.87499999972,
      "d": 87.5,
      "v": 70
    },
    {
      "midi": 43,
      "hit": false,
      "t": 107981.24999999972,
      "d": 290.62499999998545,
      "v": 77
    },
    {
      "midi": 74,
      "hit": false,
      "t": 108004.16666666664,
      "d": 305.2083333333285,
      "v": 85
    },
    {
      "midi": 47,
      "hit": false,
      "t": 108242.70833333305,
      "d": 110.41666666665697,
      "v": 70
    },
    {
      "midi": 79,
      "hit": false,
      "t": 108246.87499999997,
      "d": 493.75,
      "v": 67
    },
    {
      "midi": 50,
      "hit": false,
      "t": 108247.91666666638,
      "d": 173.95833333332848,
      "v": 63
    },
    {
      "midi": 38,
      "hit": false,
      "t": 108492.70833333304,
      "d": 170.83333333332848,
      "v": 72
    },
    {
      "midi": 67,
      "hit": false,
      "t": 108751.04166666664,
      "d": 367.7083333333285,
      "v": 59
    },
    {
      "midi": 47,
      "hit": false,
      "t": 108753.1249999997,
      "d": 127.08333333332848,
      "v": 69
    },
    {
      "midi": 50,
      "hit": false,
      "t": 108756.2499999997,
      "d": 141.66666666665697,
      "v": 66
    },
    {
      "midi": 43,
      "hit": false,
      "t": 109013.54166666635,
      "d": 259.375,
      "v": 63
    },
    {
      "midi": 67,
      "hit": false,
      "t": 109239.5833333333,
      "d": 245.83333333334303,
      "v": 90
    },
    {
      "midi": 47,
      "hit": false,
      "t": 109251.04166666635,
      "d": 121.875,
      "v": 69
    },
    {
      "midi": 50,
      "hit": false,
      "t": 109257.29166666635,
      "d": 195.83333333332848,
      "v": 55
    },
    {
      "midi": 69,
      "hit": false,
      "t": 109468.74999999997,
      "d": 322.9166666666715,
      "v": 70
    },
    {
      "midi": 38,
      "hit": false,
      "t": 109486.45833333301,
      "d": 262.50000000001455,
      "v": 75
    },
    {
      "midi": 47,
      "hit": false,
      "t": 109740.62499999968,
      "d": 81.25000000001455,
      "v": 70
    },
    {
      "midi": 50,
      "hit": false,
      "t": 109744.79166666635,
      "d": 91.66666666667152,
      "v": 64
    },
    {
      "midi": 71,
      "hit": false,
      "t": 109754.16666666664,
      "d": 261.4583333333285,
      "v": 69
    },
    {
      "midi": 50,
      "hit": false,
      "t": 109985.41666666635,
      "d": 176.04166666667152,
      "v": 86
    },
    {
      "midi": 72,
      "hit": false,
      "t": 109987.49999999997,
      "d": 89.58333333332848,
      "v": 81
    },
    {
      "midi": 54,
      "hit": false,
      "t": 110221.8749999997,
      "d": 165.625,
      "v": 83
    },
    {
      "midi": 57,
      "hit": false,
      "t": 110224.9999999997,
      "d": 340.625,
      "v": 69
    },
    {
      "midi": 72,
      "hit": false,
      "t": 110237.49999999997,
      "d": 318.75,
      "v": 68
    },
    {
      "midi": 45,
      "hit": false,
      "t": 110484.3749999997,
      "d": 265.625,
      "v": 76
    },
    {
      "midi": 71,
      "hit": false,
      "t": 110492.7083333333,
      "d": 289.58333333334303,
      "v": 67
    },
    {
      "midi": 54,
      "hit": false,
      "t": 110742.70833333302,
      "d": 258.3333333333285,
      "v": 71
    },
    {
      "midi": 69,
      "hit": false,
      "t": 110751.04166666664,
      "d": 256.25,
      "v": 62
    },
    {
      "midi": 57,
      "hit": false,
      "t": 110752.08333333302,
      "d": 238.54166666665697,
      "v": 58
    },
    {
      "midi": 50,
      "hit": false,
      "t": 110982.29166666635,
      "d": 155.20833333332848,
      "v": 81
    },
    {
      "midi": 71,
      "hit": false,
      "t": 110992.70833333331,
      "d": 103.125,
      "v": 69
    },
    {
      "midi": 54,
      "hit": false,
      "t": 111234.37499999968,
      "d": 170.83333333334303,
      "v": 76
    },
    {
      "midi": 57,
      "hit": false,
      "t": 111235.41666666635,
      "d": 262.50000000001455,
      "v": 78
    },
    {
      "midi": 66,
      "hit": false,
      "t": 111241.66666666664,
      "d": 532.2916666666715,
      "v": 89
    },
    {
      "midi": 45,
      "hit": false,
      "t": 111471.8749999997,
      "d": 271.875,
      "v": 67
    },
    {
      "midi": 67,
      "hit": false,
      "t": 111729.16666666664,
      "d": 1766.6666666666715,
      "v": 74
    },
    {
      "midi": 57,
      "hit": false,
      "t": 111737.4999999997,
      "d": 113.54166666667152,
      "v": 68
    },
    {
      "midi": 54,
      "hit": false,
      "t": 111738.54166666637,
      "d": 131.25,
      "v": 71
    },
    {
      "midi": 43,
      "hit": false,
      "t": 111983.33333333304,
      "d": 288.5416666666715,
      "v": 69
    },
    {
      "midi": 50,
      "hit": false,
      "t": 112238.54166666637,
      "d": 102.08333333334303,
      "v": 64
    },
    {
      "midi": 47,
      "hit": false,
      "t": 112242.70833333304,
      "d": 104.16666666667152,
      "v": 74
    },
    {
      "midi": 38,
      "hit": false,
      "t": 112476.04166666638,
      "d": 268.75,
      "v": 76
    },
    {
      "midi": 47,
      "hit": false,
      "t": 112719.79166666638,
      "d": 131.25,
      "v": 75
    },
    {
      "midi": 50,
      "hit": false,
      "t": 112733.33333333305,
      "d": 123.95833333332848,
      "v": 66
    },
    {
      "midi": 43,
      "hit": false,
      "t": 112977.08333333305,
      "d": 336.4583333333285,
      "v": 85
    },
    {
      "midi": 50,
      "hit": false,
      "t": 113220.83333333305,
      "d": 103.125,
      "v": 54
    },
    {
      "midi": 47,
      "hit": false,
      "t": 113226.04166666638,
      "d": 80.20833333332848,
      "v": 68
    },
    {
      "midi": 55,
      "hit": false,
      "t": 113483.33333333305,
      "d": 124.99999999998545,
      "v": 100
    },
    {
      "midi": 43,
      "hit": false,
      "t": 113486.45833333305,
      "d": 113.54166666665697,
      "v": 100
    },
    {
      "midi": 50,
      "hit": false,
      "t": 113492.70833333305,
      "d": 75,
      "v": 99
    },
    {
      "midi": 47,
      "hit": false,
      "t": 113493.74999999972,
      "d": 76.04166666665697,
      "v": 122
    }
  ]
}