{
  "jsonPath": "Children/Children'S Music/Kidz Bop Kids/paparazzi.json",
  "path": "Children\\Children'S Music\\Kidz Bop Kids\\Paparazzi.mid",
  "name": "Paparazzi",
  "difficulty": "Advanced",
  "bpm": 115.00002875000719,
  "notes": [
    {
      "midi": 67,
      "hit": false,
      "t": 12521.736,
      "d": 451.0868437499994,
      "v": 109
    },
    {
      "midi": 60,
      "hit": false,
      "t": 13043.475,
      "d": 98.91301874999954,
      "v": 110
    },
    {
      "midi": 60,
      "hit": false,
      "t": 13304.3445,
      "d": 226.08690000000024,
      "v": 112
    },
    {
      "midi": 60,
      "hit": false,
      "t": 14086.953,
      "d": 188.04343125000014,
      "v": 112
    },
    {
      "midi": 67,
      "hit": false,
      "t": 14608.692,
      "d": 79.34780624999985,
      "v": 113
    },
    {
      "midi": 67,
      "hit": false,
      "t": 14869.5615,
      "d": 159.7825687500008,
      "v": 111
    },
    {
      "midi": 67,
      "hit": false,
      "t": 15130.431,
      "d": 105.43475625000065,
      "v": 110
    },
    {
      "midi": 60,
      "hit": false,
      "t": 15391.300500000001,
      "d": 243.47819999999956,
      "v": 109
    },
    {
      "midi": 60,
      "hit": false,
      "t": 16173.909000000001,
      "d": 188.04343125000014,
      "v": 112
    },
    {
      "midi": 60,
      "hit": false,
      "t": 16434.7785,
      "d": 188.04343125000014,
      "v": 112
    },
    {
      "midi": 67,
      "hit": false,
      "t": 16695.648,
      "d": 79.34780624999985,
      "v": 113
    },
    {
      "midi": 67,
      "hit": false,
      "t": 16956.5175,
      "d": 159.7825687500008,
      "v": 111
    },
    {
      "midi": 67,
      "hit": false,
      "t": 17217.387000000002,
      "d": 105.43475625000065,
      "v": 110
    },
    {
      "midi": 60,
      "hit": false,
      "t": 17478.256500000003,
      "d": 243.47820000000138,
      "v": 109
    },
    {
      "midi": 60,
      "hit": false,
      "t": 18260.865000000005,
      "d": 188.04343125000014,
      "v": 112
    },
    {
      "midi": 60,
      "hit": false,
      "t": 18521.734500000006,
      "d": 188.04343125000014,
      "v": 112
    },
    {
      "midi": 67,
      "hit": false,
      "t": 18782.604000000007,
      "d": 79.34780624999985,
      "v": 113
    },
    {
      "midi": 68,
      "hit": false,
      "t": 19043.473500000007,
      "d": 159.7825687500008,
      "v": 111
    },
    {
      "midi": 70,
      "hit": false,
      "t": 19304.343000000008,
      "d": 254.3477625000014,
      "v": 110
    },
    {
      "midi": 68,
      "hit": false,
      "t": 19565.21250000001,
      "d": 515.2172624999985,
      "v": 109
    },
    {
      "midi": 67,
      "hit": false,
      "t": 20086.951500000006,
      "d": 243.47820000000138,
      "v": 109
    },
    {
      "midi": 63,
      "hit": false,
      "t": 20608.690500000008,
      "d": 243.47820000000138,
      "v": 109
    },
    {
      "midi": 62,
      "hit": false,
      "t": 20869.56000000001,
      "d": 515.2172624999985,
      "v": 109
    },
    {
      "midi": 63,
      "hit": false,
      "t": 21391.299000000006,
      "d": 243.47820000000138,
      "v": 109
    },
    {
      "midi": 60,
      "hit": false,
      "t": 21652.168500000007,
      "d": 634.7824499999988,
      "v": 109
    },
    {
      "midi": 67,
      "hit": false,
      "t": 22956.516000000007,
      "d": 373.91295000000173,
      "v": 109
    },
    {
      "midi": 63,
      "hit": false,
      "t": 23478.25500000001,
      "d": 373.91295000000173,
      "v": 109
    },
    {
      "midi": 62,
      "hit": false,
      "t": 23999.99400000001,
      "d": 373.91295000000173,
      "v": 109
    },
    {
      "midi": 60,
      "hit": false,
      "t": 24521.73300000001,
      "d": 373.91295000000173,
      "v": 109
    },
    {
      "midi": 62,
      "hit": false,
      "t": 25043.472000000012,
      "d": 515.2172624999985,
      "v": 109
    },
    {
      "midi": 63,
      "hit": false,
      "t": 25565.21100000001,
      "d": 243.47820000000138,
      "v": 109
    },
    {
      "midi": 60,
      "hit": false,
      "t": 25826.08050000001,
      "d": 634.7824499999988,
      "v": 109
    },
    {
      "midi": 67,
      "hit": false,
      "t": 29217.38400000001,
      "d": 79.34780624999985,
      "v": 113
    },
    {
      "midi": 67,
      "hit": false,
      "t": 29478.25350000001,
      "d": 159.7825687500008,
      "v": 111
    },
    {
      "midi": 67,
      "hit": false,
      "t": 29739.12300000001,
      "d": 105.43475625000065,
      "v": 110
    },
    {
      "midi": 60,
      "hit": false,
      "t": 29999.99250000001,
      "d": 243.47820000000138,
      "v": 109
    },
    {
      "midi": 60,
      "hit": false,
      "t": 30782.601000000013,
      "d": 188.04343125000014,
      "v": 112
    },
    {
      "midi": 67,
      "hit": false,
      "t": 31304.340000000015,
      "d": 79.34780624999985,
      "v": 113
    },
    {
      "midi": 67,
      "hit": false,
      "t": 31565.209500000015,
      "d": 159.7825687500008,
      "v": 111
    },
    {
      "midi": 67,
      "hit": false,
      "t": 31826.079000000016,
      "d": 105.43475625000065,
      "v": 110
    },
    {
      "midi": 60,
      "hit": false,
      "t": 32086.948500000017,
      "d": 243.47820000000138,
      "v": 109
    },
    {
      "midi": 60,
      "hit": false,
      "t": 32869.557000000015,
      "d": 188.04343125000014,
      "v": 112
    },
    {
      "midi": 67,
      "hit": false,
      "t": 33391.29600000002,
      "d": 79.34780624999985,
      "v": 113
    },
    {
      "midi": 67,
      "hit": false,
      "t": 33652.16550000002,
      "d": 159.7825687500008,
      "v": 111
    },
    {
      "midi": 67,
      "hit": false,
      "t": 33913.03500000002,
      "d": 105.43475624999701,
      "v": 110
    },
    {
      "midi": 60,
      "hit": false,
      "t": 34173.90450000001,
      "d": 243.47819999999774,
      "v": 109
    },
    {
      "midi": 60,
      "hit": false,
      "t": 34956.513000000006,
      "d": 188.04343125000014,
      "v": 112
    },
    {
      "midi": 60,
      "hit": false,
      "t": 35217.38250000001,
      "d": 188.04343125000014,
      "v": 112
    },
    {
      "midi": 67,
      "hit": false,
      "t": 35478.25200000001,
      "d": 79.34780624999985,
      "v": 113
    },
    {
      "midi": 68,
      "hit": false,
      "t": 35739.12150000001,
      "d": 159.7825687500008,
      "v": 111
    },
    {
      "midi": 70,
      "hit": false,
      "t": 35999.99100000001,
      "d": 254.3477625000014,
      "v": 110
    },
    {
      "midi": 68,
      "hit": false,
      "t": 36260.86050000001,
      "d": 515.2172625000021,
      "v": 109
    },
    {
      "midi": 67,
      "hit": false,
      "t": 36782.59950000001,
      "d": 243.47819999999774,
      "v": 109
    },
    {
      "midi": 63,
      "hit": false,
      "t": 37304.33850000001,
      "d": 243.47819999999774,
      "v": 109
    },
    {
      "midi": 60,
      "hit": false,
      "t": 37565.208,
      "d": 1954.347337500003,
      "v": 1
    },
    {
      "midi": 63,
      "hit": false,
      "t": 37565.208,
      "d": 1954.347337500003,
      "v": 1
    },
    {
      "midi": 62,
      "hit": false,
      "t": 37565.20800000001,
      "d": 515.2172625000021,
      "v": 109
    },
    {
      "midi": 63,
      "hit": false,
      "t": 38086.947000000015,
      "d": 243.47819999999774,
      "v": 109
    },
    {
      "midi": 60,
      "hit": false,
      "t": 38347.816500000015,
      "d": 634.7824499999988,
      "v": 109
    },
    {
      "midi": 65,
      "hit": false,
      "t": 39652.16400000001,
      "d": 373.9129499999981,
      "v": 109
    },
    {
      "midi": 63,
      "hit": false,
      "t": 40173.90300000001,
      "d": 373.9129499999981,
      "v": 109
    },
    {
      "midi": 62,
      "hit": false,
      "t": 40695.642000000014,
      "d": 373.9129499999981,
      "v": 109
    },
    {
      "midi": 60,
      "hit": false,
      "t": 41217.381000000016,
      "d": 373.9129499999981,
      "v": 109
    },
    {
      "midi": 60,
      "hit": false,
      "t": 41739.12,
      "d": 1563.043087500002,
      "v": 1
    },
    {
      "midi": 63,
      "hit": false,
      "t": 41739.12,
      "d": 1563.043087500002,
      "v": 1
    },
    {
      "midi": 62,
      "hit": false,
      "t": 41739.12000000002,
      "d": 515.2172625000021,
      "v": 109
    },
    {
      "midi": 63,
      "hit": false,
      "t": 42260.85900000002,
      "d": 243.47819999999774,
      "v": 109
    },
    {
      "midi": 60,
      "hit": false,
      "t": 42521.72850000002,
      "d": 634.7824499999988,
      "v": 109
    },
    {
      "midi": 67,
      "hit": false,
      "t": 43590.20649375002,
      "d": 64.13041874999908,
      "v": 110
    },
    {
      "midi": 67,
      "hit": false,
      "t": 43714.11950625002,
      "d": 94.56519375000062,
      "v": 113
    },
    {
      "midi": 67,
      "hit": false,
      "t": 43856.51077500002,
      "d": 204.347775000002,
      "v": 113
    },
    {
      "midi": 65,
      "hit": false,
      "t": 44114.11940625002,
      "d": 213.04342500000348,
      "v": 112
    },
    {
      "midi": 67,
      "hit": false,
      "t": 44333.684568750024,
      "d": 195.65212500000052,
      "v": 111
    },
    {
      "midi": 70,
      "hit": false,
      "t": 44601.075806250024,
      "d": 229.34776874999807,
      "v": 111
    },
    {
      "midi": 67,
      "hit": false,
      "t": 44864.11921875002,
      "d": 549.9998625000007,
      "v": 108
    },
    {
      "midi": 63,
      "hit": false,
      "t": 45913.03200000001,
      "d": 3910.868587500001,
      "v": 1
    },
    {
      "midi": 68,
      "hit": false,
      "t": 45913.03200000002,
      "d": 159.7825687500008,
      "v": 111
    },
    {
      "midi": 68,
      "hit": false,
      "t": 46173.90150000002,
      "d": 85.86954374999914,
      "v": 108
    },
    {
      "midi": 68,
      "hit": false,
      "t": 46434.77100000002,
      "d": 120.65214374999778,
      "v": 108
    },
    {
      "midi": 68,
      "hit": false,
      "t": 46695.64050000002,
      "d": 115.21736249999958,
      "v": 112
    },
    {
      "midi": 68,
      "hit": false,
      "t": 46956.510000000024,
      "d": 490.21726874999877,
      "v": 109
    },
    {
      "midi": 70,
      "hit": false,
      "t": 47478.249000000025,
      "d": 83.69563124999695,
      "v": 112
    },
    {
      "midi": 67,
      "hit": false,
      "t": 47739.11850000002,
      "d": 424.9998937499986,
      "v": 109
    },
    {
      "midi": 67,
      "hit": false,
      "t": 48260.85750000002,
      "d": 123.91301250000106,
      "v": 111
    },
    {
      "midi": 67,
      "hit": false,
      "t": 48521.72700000002,
      "d": 141.30431249999674,
      "v": 111
    },
    {
      "midi": 67,
      "hit": false,
      "t": 48782.596500000014,
      "d": 164.1303937499979,
      "v": 112
    },
    {
      "midi": 67,
      "hit": false,
      "t": 49043.466000000015,
      "d": 473.9129249999969,
      "v": 111
    },
    {
      "midi": 68,
      "hit": false,
      "t": 49565.20500000001,
      "d": 97.82606249999662,
      "v": 110
    },
    {
      "midi": 72,
      "hit": false,
      "t": 49826.0745,
      "d": 384.78251250000176,
      "v": 110
    },
    {
      "midi": 65,
      "hit": false,
      "t": 49826.07450000001,
      "d": 519.5650874999992,
      "v": 1
    },
    {
      "midi": 68,
      "hit": false,
      "t": 50347.813500000004,
      "d": 572.8259437500019,
      "v": 110
    },
    {
      "midi": 60,
      "hit": false,
      "t": 50347.81350000001,
      "d": 336.95643749999726,
      "v": 1
    },
    {
      "midi": 65,
      "hit": false,
      "t": 51130.422000000006,
      "d": 317.3912249999994,
      "v": 108
    },
    {
      "midi": 67,
      "hit": false,
      "t": 51521.72625000001,
      "d": 289.13036250000005,
      "v": 113
    },
    {
      "midi": 65,
      "hit": false,
      "t": 52173.90000000001,
      "d": 277.17384375000256,
      "v": 110
    },
    {
      "midi": 67,
      "hit": false,
      "t": 52565.20425000001,
      "d": 233.69559375000244,
      "v": 112
    },
    {
      "midi": 72,
      "hit": false,
      "t": 52956.50850000001,
      "d": 279.3477562499975,
      "v": 112
    },
    {
      "midi": 68,
      "hit": false,
      "t": 53478.247500000005,
      "d": 393.47816250000324,
      "v": 113
    },
    {
      "midi": 68,
      "hit": false,
      "t": 54260.85600000001,
      "d": 159.7825687500008,
      "v": 111
    },
    {
      "midi": 63,
      "hit": false,
      "t": 54260.85600000001,
      "d": 3910.868587500001,
      "v": 1
    },
    {
      "midi": 68,
      "hit": false,
      "t": 54521.72550000001,
      "d": 85.86954374999914,
      "v": 108
    },
    {
      "midi": 68,
      "hit": false,
      "t": 54782.59500000001,
      "d": 120.65214374999778,
      "v": 108
    },
    {
      "midi": 68,
      "hit": false,
      "t": 55043.46450000001,
      "d": 115.21736249999958,
      "v": 112
    },
    {
      "midi": 68,
      "hit": false,
      "t": 55304.33400000001,
      "d": 490.21726874999877,
      "v": 109
    },
    {
      "midi": 70,
      "hit": false,
      "t": 55826.07300000001,
      "d": 83.69563124999695,
      "v": 112
    },
    {
      "midi": 67,
      "hit": false,
      "t": 56086.942500000005,
      "d": 424.9998937499986,
      "v": 109
    },
    {
      "midi": 67,
      "hit": false,
      "t": 56608.681500000006,
      "d": 123.91301250000106,
      "v": 111
    },
    {
      "midi": 67,
      "hit": false,
      "t": 56869.55100000001,
      "d": 141.30431249999674,
      "v": 111
    },
    {
      "midi": 67,
      "hit": false,
      "t": 57130.4205,
      "d": 164.1303937499979,
      "v": 112
    },
    {
      "midi": 67,
      "hit": false,
      "t": 57391.29,
      "d": 473.9129249999969,
      "v": 111
    },
    {
      "midi": 68,
      "hit": false,
      "t": 57913.028999999995,
      "d": 97.82606249999662,
      "v": 110
    },
    {
      "midi": 72,
      "hit": false,
      "t": 58173.89849999999,
      "d": 384.78251250000176,
      "v": 110
    },
    {
      "midi": 65,
      "hit": false,
      "t": 58173.89850000001,
      "d": 519.5650874999992,
      "v": 1
    },
    {
      "midi": 68,
      "hit": false,
      "t": 58695.63749999999,
      "d": 572.8259437500019,
      "v": 110
    },
    {
      "midi": 60,
      "hit": false,
      "t": 58695.63750000001,
      "d": 336.95643749999726,
      "v": 1
    },
    {
      "midi": 65,
      "hit": false,
      "t": 59478.24599999999,
      "d": 317.3912249999994,
      "v": 108
    },
    {
      "midi": 67,
      "hit": false,
      "t": 59869.55024999999,
      "d": 289.13036250000005,
      "v": 113
    },
    {
      "midi": 65,
      "hit": false,
      "t": 60521.723999999995,
      "d": 277.17384375000256,
      "v": 110
    },
    {
      "midi": 67,
      "hit": false,
      "t": 60913.028249999996,
      "d": 233.69559375000244,
      "v": 112
    },
    {
      "midi": 72,
      "hit": false,
      "t": 61304.3325,
      "d": 279.3477562499975,
      "v": 112
    },
    {
      "midi": 68,
      "hit": false,
      "t": 61826.07149999999,
      "d": 393.47816250000324,
      "v": 113
    },
    {
      "midi": 72,
      "hit": false,
      "t": 62608.67999999999,
      "d": 343.47817499999655,
      "v": 111
    },
    {
      "midi": 75,
      "hit": false,
      "t": 62608.68000000001,
      "d": 519.5650874999992,
      "v": 1
    },
    {
      "midi": 70,
      "hit": false,
      "t": 63130.41899999999,
      "d": 311.9564437500012,
      "v": 108
    },
    {
      "midi": 73,
      "hit": false,
      "t": 63130.41900000001,
      "d": 519.5650874999992,
      "v": 1
    },
    {
      "midi": 68,
      "hit": false,
      "t": 63652.15799999999,
      "d": 234.78255000000354,
      "v": 103
    },
    {
      "midi": 72,
      "hit": false,
      "t": 63652.15800000001,
      "d": 258.6955874999985,
      "v": 1
    },
    {
      "midi": 67,
      "hit": false,
      "t": 63913.02749999999,
      "d": 515.2172625000021,
      "v": 102
    },
    {
      "midi": 70,
      "hit": false,
      "t": 63913.02750000001,
      "d": 519.5650874999992,
      "v": 1
    },
    {
      "midi": 65,
      "hit": false,
      "t": 64434.76649999999,
      "d": 515.2172625000021,
      "v": 102
    },
    {
      "midi": 67,
      "hit": false,
      "t": 64434.76650000001,
      "d": 505.43465624999953,
      "v": 1
    },
    {
      "midi": 63,
      "hit": false,
      "t": 65478.24449999999,
      "d": 113.04345000000467,
      "v": 112
    },
    {
      "midi": 63,
      "hit": false,
      "t": 65739.114,
      "d": 203.2608187500009,
      "v": 112
    },
    {
      "midi": 63,
      "hit": false,
      "t": 65999.9835,
      "d": 126.08692499999597,
      "v": 105
    },
    {
      "midi": 63,
      "hit": false,
      "t": 66260.853,
      "d": 141.30431249999674,
      "v": 109
    },
    {
      "midi": 63,
      "hit": false,
      "t": 66521.7225,
      "d": 129.34779374999925,
      "v": 104
    },
    {
      "midi": 75,
      "hit": false,
      "t": 66782.59200000002,
      "d": 519.5650874999992,
      "v": 1
    },
    {
      "midi": 72,
      "hit": false,
      "t": 66804.331125,
      "d": 344.56513124999765,
      "v": 109
    },
    {
      "midi": 73,
      "hit": false,
      "t": 67304.33100000002,
      "d": 519.5650874999992,
      "v": 1
    },
    {
      "midi": 70,
      "hit": false,
      "t": 67308.678825,
      "d": 355.43469374999404,
      "v": 111
    },
    {
      "midi": 72,
      "hit": false,
      "t": 67826.07000000002,
      "d": 258.6955874999985,
      "v": 1
    },
    {
      "midi": 68,
      "hit": false,
      "t": 67856.504775,
      "d": 230.43472499999916,
      "v": 108
    },
    {
      "midi": 70,
      "hit": false,
      "t": 68086.93950000002,
      "d": 519.5650874999992,
      "v": 1
    },
    {
      "midi": 67,
      "hit": false,
      "t": 68139.11339999999,
      "d": 334.78252500000235,
      "v": 107
    },
    {
      "midi": 68,
      "hit": false,
      "t": 68608.67850000002,
      "d": 505.43465624999953,
      "v": 1
    },
    {
      "midi": 65,
      "hit": false,
      "t": 68652.15675,
      "d": 465.2172750000027,
      "v": 104
    },
    {
      "midi": 68,
      "hit": false,
      "t": 70956.504,
      "d": 159.7825687500008,
      "v": 111
    },
    {
      "midi": 63,
      "hit": false,
      "t": 70956.50400000003,
      "d": 3910.8685874999937,
      "v": 1
    },
    {
      "midi": 68,
      "hit": false,
      "t": 71217.3735,
      "d": 85.86954374999914,
      "v": 108
    },
    {
      "midi": 68,
      "hit": false,
      "t": 71478.243,
      "d": 120.65214375000505,
      "v": 108
    },
    {
      "midi": 68,
      "hit": false,
      "t": 71739.1125,
      "d": 115.21736249999958,
      "v": 112
    },
    {
      "midi": 68,
      "hit": false,
      "t": 71999.982,
      "d": 490.21726874999877,
      "v": 109
    },
    {
      "midi": 70,
      "hit": false,
      "t": 72521.721,
      "d": 83.69563124999695,
      "v": 112
    },
    {
      "midi": 67,
      "hit": false,
      "t": 72782.5905,
      "d": 424.99989375000587,
      "v": 109
    },
    {
      "midi": 67,
      "hit": false,
      "t": 73304.3295,
      "d": 123.91301249999378,
      "v": 111
    },
    {
      "midi": 67,
      "hit": false,
      "t": 73565.19900000001,
      "d": 141.30431249999674,
      "v": 111
    },
    {
      "midi": 67,
      "hit": false,
      "t": 73826.06850000001,
      "d": 164.13039375000517,
      "v": 112
    },
    {
      "midi": 67,
      "hit": false,
      "t": 74086.93800000001,
      "d": 473.9129249999969,
      "v": 111
    },
    {
      "midi": 68,
      "hit": false,
      "t": 74608.67700000001,
      "d": 97.82606249999662,
      "v": 110
    },
    {
      "midi": 72,
      "hit": false,
      "t": 74869.54650000001,
      "d": 384.7825124999945,
      "v": 110
    },
    {
      "midi": 65,
      "hit": false,
      "t": 74869.54650000003,
      "d": 519.5650874999992,
      "v": 1
    },
    {
      "midi": 68,
      "hit": false,
      "t": 75391.28550000001,
      "d": 572.8259437499946,
      "v": 110
    },
    {
      "midi": 60,
      "hit": false,
      "t": 75391.28550000003,
      "d": 336.95643750000454,
      "v": 1
    },
    {
      "midi": 65,
      "hit": false,
      "t": 76173.894,
      "d": 317.3912249999994,
      "v": 108
    },
    {
      "midi": 67,
      "hit": false,
      "t": 76565.19825,
      "d": 289.13036250000005,
      "v": 113
    },
    {
      "midi": 65,
      "hit": false,
      "t": 77217.372,
      "d": 277.17384375000256,
      "v": 110
    },
    {
      "midi": 67,
      "hit": false,
      "t": 77608.67625,
      "d": 233.69559375000244,
      "v": 112
    },
    {
      "midi": 72,
      "hit": false,
      "t": 77999.9805,
      "d": 279.34775625000475,
      "v": 112
    },
    {
      "midi": 68,
      "hit": false,
      "t": 78521.7195,
      "d": 393.47816250000324,
      "v": 113
    },
    {
      "midi": 67,
      "hit": false,
      "t": 87652.152,
      "d": 79.34780625000712,
      "v": 113
    },
    {
      "midi": 67,
      "hit": false,
      "t": 87913.0215,
      "d": 159.7825687500008,
      "v": 111
    },
    {
      "midi": 67,
      "hit": false,
      "t": 88173.891,
      "d": 254.34776249999413,
      "v": 110
    },
    {
      "midi": 60,
      "hit": false,
      "t": 88434.7605,
      "d": 229.34776874999807,
      "v": 110
    },
    {
      "midi": 60,
      "hit": false,
      "t": 89217.369,
      "d": 188.04343125000014,
      "v": 112
    },
    {
      "midi": 67,
      "hit": false,
      "t": 89739.10800000001,
      "d": 79.34780625000712,
      "v": 113
    },
    {
      "midi": 67,
      "hit": false,
      "t": 89999.97750000001,
      "d": 159.7825687500008,
      "v": 111
    },
    {
      "midi": 67,
      "hit": false,
      "t": 90260.84700000001,
      "d": 105.43475625000428,
      "v": 110
    },
    {
      "midi": 60,
      "hit": false,
      "t": 90521.71650000001,
      "d": 243.47819999999774,
      "v": 109
    },
    {
      "midi": 60,
      "hit": false,
      "t": 91304.32500000001,
      "d": 188.04343125000014,
      "v": 112
    },
    {
      "midi": 60,
      "hit": false,
      "t": 91565.19450000001,
      "d": 188.04343125000014,
      "v": 112
    },
    {
      "midi": 67,
      "hit": false,
      "t": 91826.06400000001,
      "d": 79.34780625000712,
      "v": 113
    },
    {
      "midi": 67,
      "hit": false,
      "t": 92086.93350000001,
      "d": 159.7825687500008,
      "v": 111
    },
    {
      "midi": 67,
      "hit": false,
      "t": 92347.80300000001,
      "d": 105.43475625000428,
      "v": 110
    },
    {
      "midi": 60,
      "hit": false,
      "t": 92608.67250000002,
      "d": 243.47819999999774,
      "v": 109
    },
    {
      "midi": 60,
      "hit": false,
      "t": 93391.28100000002,
      "d": 188.04343125000014,
      "v": 112
    },
    {
      "midi": 60,
      "hit": false,
      "t": 93652.15050000002,
      "d": 188.04343125000014,
      "v": 112
    },
    {
      "midi": 67,
      "hit": false,
      "t": 93913.02000000002,
      "d": 79.34780625000712,
      "v": 113
    },
    {
      "midi": 68,
      "hit": false,
      "t": 94173.88950000002,
      "d": 159.7825687500008,
      "v": 111
    },
    {
      "midi": 70,
      "hit": false,
      "t": 94434.75900000002,
      "d": 254.34776249999413,
      "v": 110
    },
    {
      "midi": 68,
      "hit": false,
      "t": 94695.62850000002,
      "d": 515.2172624999948,
      "v": 109
    },
    {
      "midi": 67,
      "hit": false,
      "t": 95217.36750000002,
      "d": 515.2172624999948,
      "v": 109
    },
    {
      "midi": 63,
      "hit": false,
      "t": 95739.10650000002,
      "d": 243.47819999999774,
      "v": 109
    },
    {
      "midi": 62,
      "hit": false,
      "t": 95999.97600000002,
      "d": 515.2172624999948,
      "v": 109
    },
    {
      "midi": 63,
      "hit": false,
      "t": 96521.71500000003,
      "d": 243.47819999999774,
      "v": 109
    },
    {
      "midi": 60,
      "hit": false,
      "t": 96782.58450000003,
      "d": 634.7824499999988,
      "v": 109
    },
    {
      "midi": 65,
      "hit": false,
      "t": 98086.93200000003,
      "d": 373.9129499999981,
      "v": 109
    },
    {
      "midi": 63,
      "hit": false,
      "t": 98608.67100000003,
      "d": 373.9129499999981,
      "v": 109
    },
    {
      "midi": 62,
      "hit": false,
      "t": 99130.41000000003,
      "d": 373.9129499999981,
      "v": 109
    },
    {
      "midi": 60,
      "hit": false,
      "t": 99652.14900000003,
      "d": 373.9129499999981,
      "v": 109
    },
    {
      "midi": 62,
      "hit": false,
      "t": 100173.88800000004,
      "d": 515.2172624999948,
      "v": 109
    },
    {
      "midi": 63,
      "hit": false,
      "t": 100695.62700000004,
      "d": 243.47819999999774,
      "v": 109
    },
    {
      "midi": 60,
      "hit": false,
      "t": 100956.49650000004,
      "d": 634.7824499999988,
      "v": 109
    },
    {
      "midi": 67,
      "hit": false,
      "t": 104347.80000000003,
      "d": 79.34780625000712,
      "v": 113
    },
    {
      "midi": 67,
      "hit": false,
      "t": 104608.66950000003,
      "d": 159.7825687500008,
      "v": 111
    },
    {
      "midi": 67,
      "hit": false,
      "t": 104869.53900000003,
      "d": 105.43475625000428,
      "v": 110
    },
    {
      "midi": 60,
      "hit": false,
      "t": 105130.40850000003,
      "d": 243.47819999999774,
      "v": 109
    },
    {
      "midi": 60,
      "hit": false,
      "t": 105913.01700000004,
      "d": 188.04343125000014,
      "v": 112
    },
    {
      "midi": 67,
      "hit": false,
      "t": 106434.75600000004,
      "d": 79.34780625000712,
      "v": 113
    },
    {
      "midi": 67,
      "hit": false,
      "t": 106695.62550000004,
      "d": 159.7825687500008,
      "v": 111
    },
    {
      "midi": 67,
      "hit": false,
      "t": 106956.49500000004,
      "d": 105.43475625000428,
      "v": 110
    },
    {
      "midi": 60,
      "hit": false,
      "t": 107217.36450000004,
      "d": 243.47819999999774,
      "v": 109
    },
    {
      "midi": 60,
      "hit": false,
      "t": 107999.97300000004,
      "d": 188.04343125000014,
      "v": 112
    },
    {
      "midi": 67,
      "hit": false,
      "t": 108521.71200000004,
      "d": 79.34780625000712,
      "v": 113
    },
    {
      "midi": 67,
      "hit": false,
      "t": 108782.58150000004,
      "d": 159.7825687500008,
      "v": 111
    },
    {
      "midi": 67,
      "hit": false,
      "t": 109043.45100000004,
      "d": 105.43475625000428,
      "v": 110
    },
    {
      "midi": 60,
      "hit": false,
      "t": 109304.32050000005,
      "d": 243.47819999999774,
      "v": 109
    },
    {
      "midi": 60,
      "hit": false,
      "t": 110086.92900000005,
      "d": 188.04343125000014,
      "v": 112
    },
    {
      "midi": 60,
      "hit": false,
      "t": 110347.79850000005,
      "d": 188.04343125000014,
      "v": 112
    },
    {
      "midi": 67,
      "hit": false,
      "t": 110608.66800000005,
      "d": 79.34780625000712,
      "v": 113
    },
    {
      "midi": 68,
      "hit": false,
      "t": 110869.53750000005,
      "d": 159.7825687500008,
      "v": 111
    },
    {
      "midi": 70,
      "hit": false,
      "t": 111130.40700000005,
      "d": 254.34776249999413,
      "v": 110
    },
    {
      "midi": 68,
      "hit": false,
      "t": 111391.27650000005,
      "d": 515.2172624999948,
      "v": 109
    },
    {
      "midi": 67,
      "hit": false,
      "t": 111913.01550000005,
      "d": 243.47819999999774,
      "v": 109
    },
    {
      "midi": 63,
      "hit": false,
      "t": 112434.75450000005,
      "d": 243.47819999999774,
      "v": 109
    },
    {
      "midi": 60,
      "hit": false,
      "t": 112695.62400000004,
      "d": 1954.347337500003,
      "v": 1
    },
    {
      "midi": 63,
      "hit": false,
      "t": 112695.62400000004,
      "d": 1954.347337500003,
      "v": 1
    },
    {
      "midi": 62,
      "hit": false,
      "t": 112695.62400000005,
      "d": 515.2172624999948,
      "v": 109
    },
    {
      "midi": 63,
      "hit": false,
      "t": 113217.36300000006,
      "d": 243.47819999999774,
      "v": 109
    },
    {
      "midi": 60,
      "hit": false,
      "t": 113478.23250000006,
      "d": 634.7824499999988,
      "v": 109
    },
    {
      "midi": 65,
      "hit": false,
      "t": 114782.58000000006,
      "d": 373.9129499999981,
      "v": 109
    },
    {
      "midi": 63,
      "hit": false,
      "t": 115304.31900000006,
      "d": 373.9129499999981,
      "v": 109
    },
    {
      "midi": 62,
      "hit": false,
      "t": 115826.05800000006,
      "d": 373.9129499999981,
      "v": 109
    },
    {
      "midi": 60,
      "hit": false,
      "t": 116347.79700000006,
      "d": 373.9129499999981,
      "v": 109
    },
    {
      "midi": 60,
      "hit": false,
      "t": 116869.53600000004,
      "d": 1563.043087500002,
      "v": 1
    },
    {
      "midi": 63,
      "hit": false,
      "t": 116869.53600000004,
      "d": 1563.043087500002,
      "v": 1
    },
    {
      "midi": 62,
      "hit": false,
      "t": 116869.53600000007,
      "d": 515.2172624999948,
      "v": 109
    },
    {
      "midi": 63,
      "hit": false,
      "t": 117391.27500000007,
      "d": 243.47819999999774,
      "v": 109
    },
    {
      "midi": 60,
      "hit": false,
      "t": 117652.14450000007,
      "d": 634.7824499999988,
      "v": 109
    },
    {
      "midi": 67,
      "hit": false,
      "t": 118720.62249375007,
      "d": 64.13041875000636,
      "v": 110
    },
    {
      "midi": 67,
      "hit": false,
      "t": 118844.53550625007,
      "d": 94.56519374999334,
      "v": 113
    },
    {
      "midi": 67,
      "hit": false,
      "t": 118986.92677500007,
      "d": 204.347775000002,
      "v": 113
    },
    {
      "midi": 65,
      "hit": false,
      "t": 119244.53540625007,
      "d": 213.0434249999962,
      "v": 112
    },
    {
      "midi": 67,
      "hit": false,
      "t": 119464.10056875007,
      "d": 195.65212499999325,
      "v": 111
    },
    {
      "midi": 70,
      "hit": false,
      "t": 119731.49180625007,
      "d": 229.34776874999807,
      "v": 111
    },
    {
      "midi": 67,
      "hit": false,
      "t": 119994.53521875007,
      "d": 549.9998625000007,
      "v": 108
    },
    {
      "midi": 63,
      "hit": false,
      "t": 121043.44800000003,
      "d": 3910.8685874999937,
      "v": 1
    },
    {
      "midi": 68,
      "hit": false,
      "t": 121043.44800000006,
      "d": 159.7825687500008,
      "v": 111
    },
    {
      "midi": 68,
      "hit": false,
      "t": 121304.31750000006,
      "d": 85.86954374999914,
      "v": 108
    },
    {
      "midi": 68,
      "hit": false,
      "t": 121565.18700000006,
      "d": 120.65214375000505,
      "v": 108
    },
    {
      "midi": 68,
      "hit": false,
      "t": 121826.05650000006,
      "d": 115.21736249999958,
      "v": 112
    },
    {
      "midi": 68,
      "hit": false,
      "t": 122086.92600000006,
      "d": 490.21726874999877,
      "v": 109
    },
    {
      "midi": 70,
      "hit": false,
      "t": 122608.66500000007,
      "d": 83.69563124999695,
      "v": 112
    },
    {
      "midi": 67,
      "hit": false,
      "t": 122869.53450000007,
      "d": 424.99989375000587,
      "v": 109
    },
    {
      "midi": 67,
      "hit": false,
      "t": 123391.27350000007,
      "d": 123.91301249999378,
      "v": 111
    },
    {
      "midi": 67,
      "hit": false,
      "t": 123652.14300000007,
      "d": 141.30431249999674,
      "v": 111
    },
    {
      "midi": 67,
      "hit": false,
      "t": 123913.01250000007,
      "d": 164.13039375000517,
      "v": 112
    },
    {
      "midi": 67,
      "hit": false,
      "t": 124173.88200000007,
      "d": 473.9129249999969,
      "v": 111
    },
    {
      "midi": 68,
      "hit": false,
      "t": 124695.62100000007,
      "d": 97.82606249999662,
      "v": 110
    },
    {
      "midi": 65,
      "hit": false,
      "t": 124956.49050000003,
      "d": 519.5650874999992,
      "v": 1
    },
    {
      "midi": 72,
      "hit": false,
      "t": 124956.49050000007,
      "d": 384.7825124999945,
      "v": 110
    },
    {
      "midi": 60,
      "hit": false,
      "t": 125478.22950000003,
      "d": 336.95643750000454,
      "v": 1
    },
    {
      "midi": 68,
      "hit": false,
      "t": 125478.22950000007,
      "d": 572.8259437499946,
      "v": 110
    },
    {
      "midi": 65,
      "hit": false,
      "t": 126260.83800000006,
      "d": 317.3912249999994,
      "v": 108
    },
    {
      "midi": 67,
      "hit": false,
      "t": 126652.14225000006,
      "d": 289.13036250000005,
      "v": 113
    },
    {
      "midi": 65,
      "hit": false,
      "t": 127304.31600000006,
      "d": 277.17384375000256,
      "v": 110
    },
    {
      "midi": 67,
      "hit": false,
      "t": 127695.62025000007,
      "d": 233.69559375000244,
      "v": 112
    },
    {
      "midi": 72,
      "hit": false,
      "t": 128086.92450000007,
      "d": 279.34775625000475,
      "v": 112
    },
    {
      "midi": 68,
      "hit": false,
      "t": 128608.66350000007,
      "d": 393.47816250000324,
      "v": 113
    },
    {
      "midi": 63,
      "hit": false,
      "t": 129391.27200000004,
      "d": 3910.8685874999937,
      "v": 1
    },
    {
      "midi": 68,
      "hit": false,
      "t": 129391.27200000007,
      "d": 159.7825687500008,
      "v": 111
    },
    {
      "midi": 68,
      "hit": false,
      "t": 129652.14150000007,
      "d": 85.86954374999914,
      "v": 108
    },
    {
      "midi": 68,
      "hit": false,
      "t": 129913.01100000007,
      "d": 120.65214375000505,
      "v": 108
    },
    {
      "midi": 68,
      "hit": false,
      "t": 130173.88050000007,
      "d": 115.21736249999958,
      "v": 112
    },
    {
      "midi": 68,
      "hit": false,
      "t": 130434.75000000007,
      "d": 490.21726874999877,
      "v": 109
    },
    {
      "midi": 70,
      "hit": false,
      "t": 130956.48900000007,
      "d": 83.69563124999695,
      "v": 112
    },
    {
      "midi": 67,
      "hit": false,
      "t": 131217.35850000006,
      "d": 424.99989375000587,
      "v": 109
    },
    {
      "midi": 67,
      "hit": false,
      "t": 131739.09750000006,
      "d": 123.91301250000834,
      "v": 111
    },
    {
      "midi": 67,
      "hit": false,
      "t": 131999.96700000006,
      "d": 141.30431249999674,
      "v": 111
    },
    {
      "midi": 67,
      "hit": false,
      "t": 132260.83650000006,
      "d": 164.13039375000517,
      "v": 112
    },
    {
      "midi": 67,
      "hit": false,
      "t": 132521.70600000006,
      "d": 473.91292500001146,
      "v": 111
    },
    {
      "midi": 68,
      "hit": false,
      "t": 133043.44500000007,
      "d": 97.82606250001118,
      "v": 110
    },
    {
      "midi": 65,
      "hit": false,
      "t": 133304.31450000004,
      "d": 519.5650874999992,
      "v": 1
    },
    {
      "midi": 72,
      "hit": false,
      "t": 133304.31450000007,
      "d": 384.78251250000903,
      "v": 110
    },
    {
      "midi": 60,
      "hit": false,
      "t": 133826.05350000004,
      "d": 336.95643749999,
      "v": 1
    },
    {
      "midi": 68,
      "hit": false,
      "t": 133826.05350000007,
      "d": 572.8259437500092,
      "v": 110
    },
    {
      "midi": 65,
      "hit": false,
      "t": 134608.66200000007,
      "d": 317.3912249999994,
      "v": 108
    },
    {
      "midi": 67,
      "hit": false,
      "t": 134999.96625000006,
      "d": 289.13036250000005,
      "v": 113
    },
    {
      "midi": 65,
      "hit": false,
      "t": 135652.14000000004,
      "d": 277.17384375000256,
      "v": 110
    },
    {
      "midi": 67,
      "hit": false,
      "t": 136043.44425000006,
      "d": 233.6955937499879,
      "v": 112
    },
    {
      "midi": 72,
      "hit": false,
      "t": 136434.74850000005,
      "d": 279.34775625000475,
      "v": 112
    },
    {
      "midi": 68,
      "hit": false,
      "t": 136956.48750000005,
      "d": 393.4781624999887,
      "v": 113
    },
    {
      "midi": 75,
      "hit": false,
      "t": 137739.09600000002,
      "d": 519.5650874999992,
      "v": 1
    },
    {
      "midi": 72,
      "hit": false,
      "t": 137739.09600000005,
      "d": 343.47817499999655,
      "v": 111
    },
    {
      "midi": 73,
      "hit": false,
      "t": 138260.83500000002,
      "d": 519.5650874999992,
      "v": 1
    },
    {
      "midi": 70,
      "hit": false,
      "t": 138260.83500000005,
      "d": 311.9564437500085,
      "v": 108
    },
    {
      "midi": 72,
      "hit": false,
      "t": 138782.57400000002,
      "d": 258.6955874999985,
      "v": 1
    },
    {
      "midi": 68,
      "hit": false,
      "t": 138782.57400000005,
      "d": 234.78255000000354,
      "v": 103
    },
    {
      "midi": 70,
      "hit": false,
      "t": 139043.44350000002,
      "d": 519.5650874999992,
      "v": 1
    },
    {
      "midi": 67,
      "hit": false,
      "t": 139043.44350000005,
      "d": 515.2172624999948,
      "v": 102
    },
    {
      "midi": 67,
      "hit": false,
      "t": 139565.18250000002,
      "d": 505.43465624999953,
      "v": 1
    },
    {
      "midi": 65,
      "hit": false,
      "t": 139565.18250000005,
      "d": 515.2172624999948,
      "v": 102
    },
    {
      "midi": 63,
      "hit": false,
      "t": 140608.66050000006,
      "d": 113.04344999999739,
      "v": 112
    },
    {
      "midi": 63,
      "hit": false,
      "t": 140869.53000000006,
      "d": 203.26081874998636,
      "v": 112
    },
    {
      "midi": 63,
      "hit": false,
      "t": 141130.39950000006,
      "d": 126.08692500001052,
      "v": 105
    },
    {
      "midi": 63,
      "hit": false,
      "t": 141391.26900000006,
      "d": 141.30431249999674,
      "v": 109
    },
    {
      "midi": 63,
      "hit": false,
      "t": 141652.13850000006,
      "d": 129.34779374999925,
      "v": 104
    },
    {
      "midi": 75,
      "hit": false,
      "t": 141913.00800000003,
      "d": 519.5650874999992,
      "v": 1
    },
    {
      "midi": 72,
      "hit": false,
      "t": 141934.74712500005,
      "d": 344.5651312500122,
      "v": 109
    },
    {
      "midi": 73,
      "hit": false,
      "t": 142434.74700000003,
      "d": 519.5650874999992,
      "v": 1
    },
    {
      "midi": 70,
      "hit": false,
      "t": 142439.09482500007,
      "d": 355.43469374999404,
      "v": 111
    },
    {
      "midi": 72,
      "hit": false,
      "t": 142956.48600000003,
      "d": 258.6955874999985,
      "v": 1
    },
    {
      "midi": 68,
      "hit": false,
      "t": 142986.92077500006,
      "d": 230.43472499999916,
      "v": 108
    },
    {
      "midi": 70,
      "hit": false,
      "t": 143217.35550000003,
      "d": 519.5650874999992,
      "v": 1
    },
    {
      "midi": 67,
      "hit": false,
      "t": 143269.52940000006,
      "d": 334.7825249999878,
      "v": 107
    },
    {
      "midi": 68,
      "hit": false,
      "t": 143739.09450000004,
      "d": 505.43465624999953,
      "v": 1
    },
    {
      "midi": 65,
      "hit": false,
      "t": 143782.57275000005,
      "d": 465.2172750000027,
      "v": 104
    },
    {
      "midi": 68,
      "hit": false,
      "t": 146086.92000000004,
      "d": 159.7825687500008,
      "v": 111
    },
    {
      "midi": 63,
      "hit": false,
      "t": 146086.92000000004,
      "d": 3910.8685875000083,
      "v": 1
    },
    {
      "midi": 68,
      "hit": false,
      "t": 146347.78950000004,
      "d": 85.86954375001369,
      "v": 108
    },
    {
      "midi": 68,
      "hit": false,
      "t": 146608.65900000004,
      "d": 120.6521437499905,
      "v": 108
    },
    {
      "midi": 68,
      "hit": false,
      "t": 146869.52850000004,
      "d": 115.21736249999958,
      "v": 112
    },
    {
      "midi": 68,
      "hit": false,
      "t": 147130.39800000004,
      "d": 490.2172687500133,
      "v": 109
    },
    {
      "midi": 70,
      "hit": false,
      "t": 147652.13700000005,
      "d": 83.6956312500115,
      "v": 112
    },
    {
      "midi": 67,
      "hit": false,
      "t": 147913.00650000005,
      "d": 424.99989375000587,
      "v": 109
    },
    {
      "midi": 67,
      "hit": false,
      "t": 148434.74550000005,
      "d": 123.91301250000834,
      "v": 111
    },
    {
      "midi": 67,
      "hit": false,
      "t": 148695.61500000005,
      "d": 141.30431249999674,
      "v": 111
    },
    {
      "midi": 67,
      "hit": false,
      "t": 148956.48450000005,
      "d": 164.13039375000517,
      "v": 112
    },
    {
      "midi": 67,
      "hit": false,
      "t": 149217.35400000005,
      "d": 473.91292500001146,
      "v": 111
    },
    {
      "midi": 68,
      "hit": false,
      "t": 149739.09300000005,
      "d": 97.82606250001118,
      "v": 110
    },
    {
      "midi": 72,
      "hit": false,
      "t": 149999.96250000005,
      "d": 384.78251250000903,
      "v": 110
    },
    {
      "midi": 65,
      "hit": false,
      "t": 149999.96250000005,
      "d": 519.5650874999992,
      "v": 1
    },
    {
      "midi": 68,
      "hit": false,
      "t": 150521.70150000005,
      "d": 572.8259437500092,
      "v": 110
    },
    {
      "midi": 60,
      "hit": false,
      "t": 150521.70150000005,
      "d": 336.95643749999,
      "v": 1
    },
    {
      "midi": 65,
      "hit": false,
      "t": 151304.31000000006,
      "d": 317.3912249999994,
      "v": 108
    },
    {
      "midi": 67,
      "hit": false,
      "t": 151695.61425000004,
      "d": 289.13036250000005,
      "v": 113
    },
    {
      "midi": 65,
      "hit": false,
      "t": 152347.78800000003,
      "d": 277.17384375000256,
      "v": 110
    },
    {
      "midi": 67,
      "hit": false,
      "t": 152739.09225000005,
      "d": 233.6955937499879,
      "v": 112
    },
    {
      "midi": 72,
      "hit": false,
      "t": 153130.39650000003,
      "d": 279.34775625000475,
      "v": 112
    },
    {
      "midi": 68,
      "hit": false,
      "t": 153652.13550000003,
      "d": 393.4781624999887,
      "v": 113
    },
    {
      "midi": 67,
      "hit": false,
      "t": 154434.74400000004,
      "d": 738.0432937500009,
      "v": 110
    },
    {
      "midi": 60,
      "hit": false,
      "t": 155217.35250000004,
      "d": 423.9129374999902,
      "v": 108
    },
    {
      "midi": 63,
      "hit": false,
      "t": 155999.96100000004,
      "d": 103.2608437500021,
      "v": 107
    },
    {
      "midi": 60,
      "hit": false,
      "t": 156260.83050000004,
      "d": 264.13036874998943,
      "v": 111
    },
    {
      "midi": 60,
      "hit": false,
      "t": 156782.56950000004,
      "d": 319.5651375000016,
      "v": 107
    },
    {
      "midi": 60,
      "hit": false,
      "t": 157304.30850000004,
      "d": 145.65213750000112,
      "v": 108
    },
    {
      "midi": 61,
      "hit": false,
      "t": 157565.17800000004,
      "d": 208.69560000000638,
      "v": 114
    },
    {
      "midi": 63,
      "hit": false,
      "t": 157826.04750000004,
      "d": 244.56515624999884,
      "v": 110
    },
    {
      "midi": 60,
      "hit": false,
      "t": 158086.91700000004,
      "d": 213.04342500001076,
      "v": 108
    },
    {
      "midi": 67,
      "hit": false,
      "t": 158626.04730000006,
      "d": 739.1302499999874,
      "v": 110
    },
    {
      "midi": 60,
      "hit": false,
      "t": 159410.82971250004,
      "d": 423.9129374999902,
      "v": 108
    },
    {
      "midi": 67,
      "hit": false,
      "t": 160173.87300000002,
      "d": 103.2608437500021,
      "v": 107
    },
    {
      "midi": 60,
      "hit": false,
      "t": 160434.74250000002,
      "d": 264.13036874998943,
      "v": 111
    },
    {
      "midi": 60,
      "hit": false,
      "t": 160956.48150000002,
      "d": 319.5651375000016,
      "v": 107
    },
    {
      "midi": 60,
      "hit": false,
      "t": 161478.22050000002,
      "d": 145.65213750000112,
      "v": 108
    },
    {
      "midi": 61,
      "hit": false,
      "t": 161739.09000000003,
      "d": 208.69560000000638,
      "v": 114
    },
    {
      "midi": 63,
      "hit": false,
      "t": 161999.95950000003,
      "d": 244.56515624999884,
      "v": 110
    },
    {
      "midi": 60,
      "hit": false,
      "t": 162260.82900000003,
      "d": 213.04342500001076,
      "v": 108
    },
    {
      "midi": 67,
      "hit": false,
      "t": 163333.65481875004,
      "d": 306.52166249998845,
      "v": 112
    },
    {
      "midi": 60,
      "hit": false,
      "t": 163858.65468750003,
      "d": 429.34771875001024,
      "v": 111
    },
    {
      "midi": 60,
      "hit": false,
      "t": 164891.26312500006,
      "d": 107.60866875000647,
      "v": 110
    },
    {
      "midi": 60,
      "hit": false,
      "t": 165133.65436875005,
      "d": 249.99993749998976,
      "v": 111
    },
    {
      "midi": 63,
      "hit": false,
      "t": 165396.69778125006,
      "d": 236.95646250000573,
      "v": 109
    },
    {
      "midi": 60,
      "hit": false,
      "t": 165661.91510625006,
      "d": 445.6520625000121,
      "v": 109
    },
    {
      "midi": 67,
      "hit": false,
      "t": 167478.21900000007,
      "d": 405.43468124998617,
      "v": 110
    },
    {
      "midi": 60,
      "hit": false,
      "t": 167999.95800000004,
      "d": 105.43475625000428,
      "v": 110
    },
    {
      "midi": 67,
      "hit": false,
      "t": 167999.95800000004,
      "d": 1041.3040875000006,
      "v": 1
    },
    {
      "midi": 60,
      "hit": false,
      "t": 168260.82750000004,
      "d": 84.78258749999804,
      "v": 109
    },
    {
      "midi": 60,
      "hit": false,
      "t": 168521.69700000004,
      "d": 105.43475625000428,
      "v": 110
    },
    {
      "midi": 60,
      "hit": false,
      "t": 168782.56650000004,
      "d": 113.04344999999739,
      "v": 109
    },
    {
      "midi": 65,
      "hit": false,
      "t": 169043.43600000005,
      "d": 105.43475625000428,
      "v": 110
    },
    {
      "midi": 72,
      "hit": false,
      "t": 169043.43600000005,
      "d": 2084.7820875000034,
      "v": 1
    },
    {
      "midi": 65,
      "hit": false,
      "t": 169565.17500000005,
      "d": 113.04344999999739,
      "v": 109
    },
    {
      "midi": 65,
      "hit": false,
      "t": 170086.91400000005,
      "d": 113.04344999999739,
      "v": 109
    },
    {
      "midi": 44,
      "hit": false,
      "t": 171130.39200000002,
      "d": 2080.434262499999,
      "v": 115
    },
    {
      "midi": 60,
      "hit": false,
      "t": 171130.39200000002,
      "d": 2080.434262499999,
      "v": 115
    },
    {
      "midi": 63,
      "hit": false,
      "t": 171130.39200000002,
      "d": 2080.434262499999,
      "v": 115
    },
    {
      "midi": 68,
      "hit": false,
      "t": 171130.39200000002,
      "d": 2080.434262499999,
      "v": 115
    },
    {
      "midi": 68,
      "hit": false,
      "t": 171130.39200000005,
      "d": 159.7825687500008,
      "v": 111
    },
    {
      "midi": 63,
      "hit": false,
      "t": 171130.39200000005,
      "d": 3910.8685875000083,
      "v": 1
    },
    {
      "midi": 68,
      "hit": false,
      "t": 171391.26150000005,
      "d": 85.86954375001369,
      "v": 108
    },
    {
      "midi": 68,
      "hit": false,
      "t": 171652.13100000005,
      "d": 120.6521437499905,
      "v": 108
    },
    {
      "midi": 68,
      "hit": false,
      "t": 171913.00050000005,
      "d": 115.21736249999958,
      "v": 112
    },
    {
      "midi": 68,
      "hit": false,
      "t": 172173.87000000005,
      "d": 490.2172687500133,
      "v": 109
    },
    {
      "midi": 70,
      "hit": false,
      "t": 172695.60900000005,
      "d": 83.6956312500115,
      "v": 112
    },
    {
      "midi": 67,
      "hit": false,
      "t": 172956.47850000006,
      "d": 424.99989375000587,
      "v": 109
    },
    {
      "midi": 39,
      "hit": false,
      "t": 173217.34800000003,
      "d": 2080.434262499999,
      "v": 115
    },
    {
      "midi": 58,
      "hit": false,
      "t": 173217.34800000003,
      "d": 2080.434262499999,
      "v": 115
    },
    {
      "midi": 63,
      "hit": false,
      "t": 173217.34800000003,
      "d": 2080.434262499999,
      "v": 115
    },
    {
      "midi": 67,
      "hit": false,
      "t": 173217.34800000003,
      "d": 2080.434262499999,
      "v": 115
    },
    {
      "midi": 67,
      "hit": false,
      "t": 173478.21750000006,
      "d": 123.91301250000834,
      "v": 111
    },
    {
      "midi": 67,
      "hit": false,
      "t": 173739.08700000006,
      "d": 141.30431249999674,
      "v": 111
    },
    {
      "midi": 67,
      "hit": false,
      "t": 173999.95650000006,
      "d": 164.13039375000517,
      "v": 112
    },
    {
      "midi": 67,
      "hit": false,
      "t": 174260.82600000006,
      "d": 473.91292500001146,
      "v": 111
    },
    {
      "midi": 68,
      "hit": false,
      "t": 174782.56500000006,
      "d": 97.82606250001118,
      "v": 110
    },
    {
      "midi": 72,
      "hit": false,
      "t": 175043.43450000006,
      "d": 384.78251250000903,
      "v": 110
    },
    {
      "midi": 65,
      "hit": false,
      "t": 175043.43450000006,
      "d": 519.5650874999992,
      "v": 1
    },
    {
      "midi": 41,
      "hit": false,
      "t": 175304.30400000003,
      "d": 2080.434262499999,
      "v": 115
    },
    {
      "midi": 60,
      "hit": false,
      "t": 175304.30400000003,
      "d": 2080.434262499999,
      "v": 115
    },
    {
      "midi": 65,
      "hit": false,
      "t": 175304.30400000003,
      "d": 2080.434262499999,
      "v": 115
    },
    {
      "midi": 68,
      "hit": false,
      "t": 175304.30400000003,
      "d": 2080.434262499999,
      "v": 115
    },
    {
      "midi": 68,
      "hit": false,
      "t": 175565.17350000006,
      "d": 572.8259437500092,
      "v": 110
    },
    {
      "midi": 60,
      "hit": false,
      "t": 175565.17350000006,
      "d": 336.95643749999,
      "v": 1
    },
    {
      "midi": 65,
      "hit": false,
      "t": 176347.78200000006,
      "d": 317.3912249999994,
      "v": 108
    },
    {
      "midi": 67,
      "hit": false,
      "t": 176739.08625000005,
      "d": 289.13036250000005,
      "v": 113
    },
    {
      "midi": 65,
      "hit": false,
      "t": 177391.26000000004,
      "d": 277.17384375000256,
      "v": 110
    },
    {
      "midi": 37,
      "hit": false,
      "t": 177391.26000000004,
      "d": 2080.434262499999,
      "v": 115
    },
    {
      "midi": 61,
      "hit": false,
      "t": 177391.26000000004,
      "d": 2080.434262499999,
      "v": 115
    },
    {
      "midi": 65,
      "hit": false,
      "t": 177391.26000000004,
      "d": 2080.434262499999,
      "v": 115
    },
    {
      "midi": 68,
      "hit": false,
      "t": 177391.26000000004,
      "d": 2080.434262499999,
      "v": 115
    },
    {
      "midi": 67,
      "hit": false,
      "t": 177782.56425000005,
      "d": 233.6955937499879,
      "v": 112
    },
    {
      "midi": 72,
      "hit": false,
      "t": 178173.86850000004,
      "d": 279.34775625000475,
      "v": 112
    },
    {
      "midi": 68,
      "hit": false,
      "t": 178695.60750000004,
      "d": 393.4781624999887,
      "v": 113
    },
    {
      "midi": 68,
      "hit": false,
      "t": 179478.21600000004,
      "d": 159.7825687500008,
      "v": 111
    },
    {
      "midi": 63,
      "hit": false,
      "t": 179478.21600000004,
      "d": 3910.8685875000083,
      "v": 1
    },
    {
      "midi": 44,
      "hit": false,
      "t": 179478.21600000004,
      "d": 2080.434262499999,
      "v": 115
    },
    {
      "midi": 60,
      "hit": false,
      "t": 179478.21600000004,
      "d": 2080.434262499999,
      "v": 115
    },
    {
      "midi": 63,
      "hit": false,
      "t": 179478.21600000004,
      "d": 2080.434262499999,
      "v": 115
    },
    {
      "midi": 68,
      "hit": false,
      "t": 179478.21600000004,
      "d": 2080.434262499999,
      "v": 115
    },
    {
      "midi": 68,
      "hit": false,
      "t": 179739.08550000004,
      "d": 85.86954375001369,
      "v": 108
    },
    {
      "midi": 68,
      "hit": false,
      "t": 179999.95500000005,
      "d": 120.6521437499905,
      "v": 108
    },
    {
      "midi": 68,
      "hit": false,
      "t": 180260.82450000005,
      "d": 115.21736249999958,
      "v": 112
    },
    {
      "midi": 68,
      "hit": false,
      "t": 180521.69400000005,
      "d": 490.2172687500133,
      "v": 109
    },
    {
      "midi": 70,
      "hit": false,
      "t": 181043.43300000005,
      "d": 83.6956312500115,
      "v": 112
    },
    {
      "midi": 67,
      "hit": false,
      "t": 181304.30250000005,
      "d": 424.99989375000587,
      "v": 109
    },
    {
      "midi": 39,
      "hit": false,
      "t": 181565.17200000005,
      "d": 2080.434262499999,
      "v": 115
    },
    {
      "midi": 58,
      "hit": false,
      "t": 181565.17200000005,
      "d": 2080.434262499999,
      "v": 115
    },
    {
      "midi": 63,
      "hit": false,
      "t": 181565.17200000005,
      "d": 2080.434262499999,
      "v": 115
    },
    {
      "midi": 67,
      "hit": false,
      "t": 181565.17200000005,
      "d": 2080.434262499999,
      "v": 115
    },
    {
      "midi": 67,
      "hit": false,
      "t": 181826.04150000005,
      "d": 123.91301250000834,
      "v": 111
    },
    {
      "midi": 67,
      "hit": false,
      "t": 182086.91100000005,
      "d": 141.30431249999674,
      "v": 111
    },
    {
      "midi": 67,
      "hit": false,
      "t": 182347.78050000005,
      "d": 164.13039375000517,
      "v": 112
    },
    {
      "midi": 67,
      "hit": false,
      "t": 182608.65000000005,
      "d": 473.91292500001146,
      "v": 111
    },
    {
      "midi": 68,
      "hit": false,
      "t": 183130.38900000005,
      "d": 97.82606250001118,
      "v": 110
    },
    {
      "midi": 72,
      "hit": false,
      "t": 183391.25850000005,
      "d": 384.78251250000903,
      "v": 110
    },
    {
      "midi": 65,
      "hit": false,
      "t": 183391.25850000005,
      "d": 519.5650874999992,
      "v": 1
    },
    {
      "midi": 41,
      "hit": false,
      "t": 183652.12800000006,
      "d": 2080.434262499999,
      "v": 115
    },
    {
      "midi": 60,
      "hit": false,
      "t": 183652.12800000006,
      "d": 2080.434262499999,
      "v": 115
    },
    {
      "midi": 65,
      "hit": false,
      "t": 183652.12800000006,
      "d": 2080.434262499999,
      "v": 115
    },
    {
      "midi": 68,
      "hit": false,
      "t": 183652.12800000006,
      "d": 2080.434262499999,
      "v": 115
    },
    {
      "midi": 68,
      "hit": false,
      "t": 183912.99750000006,
      "d": 572.8259437500092,
      "v": 110
    },
    {
      "midi": 60,
      "hit": false,
      "t": 183912.99750000006,
      "d": 336.95643749999,
      "v": 1
    },
    {
      "midi": 65,
      "hit": false,
      "t": 184695.60600000006,
      "d": 317.3912249999994,
      "v": 108
    },
    {
      "midi": 67,
      "hit": false,
      "t": 185086.91025000004,
      "d": 289.13036250000005,
      "v": 113
    },
    {
      "midi": 65,
      "hit": false,
      "t": 185739.08400000003,
      "d": 277.17384375000256,
      "v": 110
    },
    {
      "midi": 37,
      "hit": false,
      "t": 185739.08400000006,
      "d": 2080.434262499999,
      "v": 115
    },
    {
      "midi": 61,
      "hit": false,
      "t": 185739.08400000006,
      "d": 2080.434262499999,
      "v": 115
    },
    {
      "midi": 65,
      "hit": false,
      "t": 185739.08400000006,
      "d": 2080.434262499999,
      "v": 115
    },
    {
      "midi": 68,
      "hit": false,
      "t": 185739.08400000006,
      "d": 2080.434262499999,
      "v": 115
    },
    {
      "midi": 67,
      "hit": false,
      "t": 186130.38825000005,
      "d": 233.6955937499879,
      "v": 112
    },
    {
      "midi": 72,
      "hit": false,
      "t": 186521.69250000003,
      "d": 279.34775625000475,
      "v": 112
    },
    {
      "midi": 68,
      "hit": false,
      "t": 187043.43150000004,
      "d": 393.4781624999887,
      "v": 113
    },
    {
      "midi": 72,
      "hit": false,
      "t": 187826.04000000004,
      "d": 343.47817499999655,
      "v": 111
    },
    {
      "midi": 75,
      "hit": false,
      "t": 187826.04000000004,
      "d": 519.5650874999992,
      "v": 1
    },
    {
      "midi": 70,
      "hit": false,
      "t": 188347.77900000004,
      "d": 311.9564437500085,
      "v": 108
    },
    {
      "midi": 73,
      "hit": false,
      "t": 188347.77900000004,
      "d": 519.5650874999992,
      "v": 1
    },
    {
      "midi": 68,
      "hit": false,
      "t": 188869.51800000004,
      "d": 234.78255000000354,
      "v": 103
    },
    {
      "midi": 72,
      "hit": false,
      "t": 188869.51800000004,
      "d": 258.6955874999985,
      "v": 1
    },
    {
      "midi": 67,
      "hit": false,
      "t": 189130.38750000004,
      "d": 515.2172624999948,
      "v": 102
    },
    {
      "midi": 70,
      "hit": false,
      "t": 189130.38750000004,
      "d": 519.5650874999992,
      "v": 1
    },
    {
      "midi": 65,
      "hit": false,
      "t": 189652.12650000004,
      "d": 515.2172624999948,
      "v": 102
    },
    {
      "midi": 67,
      "hit": false,
      "t": 189652.12650000004,
      "d": 505.43465624999953,
      "v": 1
    },
    {
      "midi": 63,
      "hit": false,
      "t": 190695.60450000004,
      "d": 113.04344999999739,
      "v": 112
    },
    {
      "midi": 63,
      "hit": false,
      "t": 190956.47400000005,
      "d": 203.26081874998636,
      "v": 112
    },
    {
      "midi": 63,
      "hit": false,
      "t": 191217.34350000005,
      "d": 126.08692500001052,
      "v": 105
    },
    {
      "midi": 63,
      "hit": false,
      "t": 191478.21300000005,
      "d": 141.30431249999674,
      "v": 109
    },
    {
      "midi": 63,
      "hit": false,
      "t": 191739.08250000005,
      "d": 129.34779374999925,
      "v": 104
    },
    {
      "midi": 75,
      "hit": false,
      "t": 191999.95200000005,
      "d": 519.5650874999992,
      "v": 1
    },
    {
      "midi": 72,
      "hit": false,
      "t": 192021.69112500004,
      "d": 344.5651312500122,
      "v": 109
    },
    {
      "midi": 73,
      "hit": false,
      "t": 192521.69100000005,
      "d": 519.5650874999992,
      "v": 1
    },
    {
      "midi": 70,
      "hit": false,
      "t": 192526.03882500005,
      "d": 355.43469374999404,
      "v": 111
    },
    {
      "midi": 72,
      "hit": false,
      "t": 193043.43000000005,
      "d": 258.6955874999985,
      "v": 1
    },
    {
      "midi": 68,
      "hit": false,
      "t": 193073.86477500005,
      "d": 230.43472499999916,
      "v": 108
    },
    {
      "midi": 70,
      "hit": false,
      "t": 193304.29950000005,
      "d": 519.5650874999992,
      "v": 1
    },
    {
      "midi": 67,
      "hit": false,
      "t": 193356.47340000005,
      "d": 334.7825249999878,
      "v": 107
    },
    {
      "midi": 68,
      "hit": false,
      "t": 193826.03850000005,
      "d": 505.43465624999953,
      "v": 1
    },
    {
      "midi": 65,
      "hit": false,
      "t": 193869.51675000004,
      "d": 465.2172750000027,
      "v": 104
    },
    {
      "midi": 68,
      "hit": false,
      "t": 196173.86400000003,
      "d": 159.7825687500008,
      "v": 111
    },
    {
      "midi": 63,
      "hit": false,
      "t": 196173.86400000006,
      "d": 3910.8685875000083,
      "v": 1
    },
    {
      "midi": 68,
      "hit": false,
      "t": 196434.73350000003,
      "d": 85.86954375001369,
      "v": 108
    },
    {
      "midi": 68,
      "hit": false,
      "t": 196695.60300000003,
      "d": 120.6521437499905,
      "v": 108
    },
    {
      "midi": 68,
      "hit": false,
      "t": 196956.47250000003,
      "d": 115.21736249999958,
      "v": 112
    },
    {
      "midi": 68,
      "hit": false,
      "t": 197217.34200000003,
      "d": 490.2172687500133,
      "v": 109
    },
    {
      "midi": 70,
      "hit": false,
      "t": 197739.08100000003,
      "d": 83.6956312500115,
      "v": 112
    },
    {
      "midi": 67,
      "hit": false,
      "t": 197999.95050000004,
      "d": 424.99989375000587,
      "v": 109
    },
    {
      "midi": 67,
      "hit": false,
      "t": 198521.68950000004,
      "d": 123.91301250000834,
      "v": 111
    },
    {
      "midi": 67,
      "hit": false,
      "t": 198782.55900000004,
      "d": 141.30431249999674,
      "v": 111
    },
    {
      "midi": 67,
      "hit": false,
      "t": 199043.42850000004,
      "d": 164.13039375000517,
      "v": 112
    },
    {
      "midi": 67,
      "hit": false,
      "t": 199304.29800000004,
      "d": 473.91292500001146,
      "v": 111
    },
    {
      "midi": 68,
      "hit": false,
      "t": 199826.03700000004,
      "d": 97.82606250001118,
      "v": 110
    },
    {
      "midi": 72,
      "hit": false,
      "t": 200086.90650000004,
      "d": 384.78251250000903,
      "v": 110
    },
    {
      "midi": 65,
      "hit": false,
      "t": 200086.90650000007,
      "d": 519.5650874999992,
      "v": 1
    },
    {
      "midi": 68,
      "hit": false,
      "t": 200608.64550000004,
      "d": 572.8259437500092,
      "v": 110
    },
    {
      "midi": 60,
      "hit": false,
      "t": 200608.64550000007,
      "d": 336.95643749999,
      "v": 1
    },
    {
      "midi": 65,
      "hit": false,
      "t": 201391.25400000004,
      "d": 317.3912249999994,
      "v": 108
    },
    {
      "midi": 67,
      "hit": false,
      "t": 201782.55825000003,
      "d": 289.13036250000005,
      "v": 113
    },
    {
      "midi": 65,
      "hit": false,
      "t": 202434.73200000002,
      "d": 277.17384375000256,
      "v": 110
    },
    {
      "midi": 67,
      "hit": false,
      "t": 202826.03625000003,
      "d": 233.6955937499879,
      "v": 112
    },
    {
      "midi": 72,
      "hit": false,
      "t": 203217.34050000002,
      "d": 279.34775625000475,
      "v": 112
    },
    {
      "midi": 68,
      "hit": false,
      "t": 203739.07950000002,
      "d": 393.4781624999887,
      "v": 113
    }
  ]
}