{
  "jsonPath": "Soul/Neo Soul/Carl Thomas/make-it-alright-album-version.json",
  "path": "Soul\\Neo Soul\\Carl Thomas\\Make It Alright (Album Version).mid",
  "name": "Make It Alright (Album Version)",
  "difficulty": "Advanced",
  "bpm": 180.00018000018,
  "notes": [
    {
      "midi": 32,
      "hit": false,
      "t": 0,
      "d": 1218.7487812499999,
      "v": 100
    },
    {
      "midi": 56,
      "hit": false,
      "t": 0,
      "d": 406.24959375,
      "v": 88
    },
    {
      "midi": 63,
      "hit": false,
      "t": 0,
      "d": 517.36059375,
      "v": 78
    },
    {
      "midi": 60,
      "hit": false,
      "t": 0,
      "d": 538.19390625,
      "v": 82
    },
    {
      "midi": 32,
      "hit": false,
      "t": 0,
      "d": 857.6380312499999,
      "v": 76
    },
    {
      "midi": 44,
      "hit": false,
      "t": 0,
      "d": 881.9435625,
      "v": 77
    },
    {
      "midi": 56,
      "hit": false,
      "t": 555.5550000000001,
      "d": 65.97215625000001,
      "v": 78
    },
    {
      "midi": 56,
      "hit": false,
      "t": 666.666,
      "d": 27.77774999999997,
      "v": 43
    },
    {
      "midi": 60,
      "hit": false,
      "t": 666.666,
      "d": 211.8053437499999,
      "v": 85
    },
    {
      "midi": 63,
      "hit": false,
      "t": 666.666,
      "d": 225.69421875,
      "v": 96
    },
    {
      "midi": 56,
      "hit": false,
      "t": 888.888,
      "d": 97.222125,
      "v": 96
    },
    {
      "midi": 32,
      "hit": false,
      "t": 1222.2209999999998,
      "d": 107.63878124999997,
      "v": 93
    },
    {
      "midi": 36,
      "hit": false,
      "t": 1333.3319999999997,
      "d": 329.86078124999995,
      "v": 100
    },
    {
      "midi": 55,
      "hit": false,
      "t": 1333.332,
      "d": 409.72181249999994,
      "v": 73
    },
    {
      "midi": 58,
      "hit": false,
      "t": 1333.332,
      "d": 503.4717187499998,
      "v": 66
    },
    {
      "midi": 63,
      "hit": false,
      "t": 1333.332,
      "d": 517.3605937499999,
      "v": 61
    },
    {
      "midi": 60,
      "hit": false,
      "t": 1333.332,
      "d": 531.24946875,
      "v": 69
    },
    {
      "midi": 36,
      "hit": false,
      "t": 1333.332,
      "d": 552.0827812499999,
      "v": 78
    },
    {
      "midi": 48,
      "hit": false,
      "t": 1333.332,
      "d": 1111.11,
      "v": 71
    },
    {
      "midi": 36,
      "hit": false,
      "t": 1666.6649999999995,
      "d": 711.8048437500001,
      "v": 95
    },
    {
      "midi": 55,
      "hit": false,
      "t": 1888.887,
      "d": 218.7497812500003,
      "v": 75
    },
    {
      "midi": 58,
      "hit": false,
      "t": 1999.998,
      "d": 378.47184375000006,
      "v": 85
    },
    {
      "midi": 63,
      "hit": false,
      "t": 1999.998,
      "d": 385.4162812499999,
      "v": 96
    },
    {
      "midi": 60,
      "hit": false,
      "t": 1999.998,
      "d": 388.8885,
      "v": 85
    },
    {
      "midi": 36,
      "hit": false,
      "t": 2222.2200000000003,
      "d": 243.05531249999967,
      "v": 82
    },
    {
      "midi": 55,
      "hit": false,
      "t": 2222.2200000000003,
      "d": 243.05531249999967,
      "v": 96
    },
    {
      "midi": 36,
      "hit": false,
      "t": 2555.553,
      "d": 107.63878125000019,
      "v": 92
    },
    {
      "midi": 53,
      "hit": false,
      "t": 2666.6639999999998,
      "d": 454.8606562499999,
      "v": 75
    },
    {
      "midi": 56,
      "hit": false,
      "t": 2666.6639999999998,
      "d": 541.6661249999997,
      "v": 72
    },
    {
      "midi": 61,
      "hit": false,
      "t": 2666.6639999999998,
      "d": 541.6661249999997,
      "v": 72
    },
    {
      "midi": 58,
      "hit": false,
      "t": 2666.6639999999998,
      "d": 576.3883124999998,
      "v": 71
    },
    {
      "midi": 34,
      "hit": false,
      "t": 2666.6639999999998,
      "d": 624.9993749999999,
      "v": 65
    },
    {
      "midi": 46,
      "hit": false,
      "t": 2666.6639999999998,
      "d": 1152.776625,
      "v": 60
    },
    {
      "midi": 34,
      "hit": false,
      "t": 2666.664,
      "d": 1048.6100625,
      "v": 100
    },
    {
      "midi": 53,
      "hit": false,
      "t": 3222.2189999999996,
      "d": 274.30528125,
      "v": 78
    },
    {
      "midi": 56,
      "hit": false,
      "t": 3333.3299999999995,
      "d": 444.44399999999996,
      "v": 93
    },
    {
      "midi": 61,
      "hit": false,
      "t": 3333.3299999999995,
      "d": 458.33287500000006,
      "v": 96
    },
    {
      "midi": 58,
      "hit": false,
      "t": 3333.3299999999995,
      "d": 472.22175000000016,
      "v": 96
    },
    {
      "midi": 34,
      "hit": false,
      "t": 3555.5519999999997,
      "d": 249.99974999999995,
      "v": 90
    },
    {
      "midi": 53,
      "hit": false,
      "t": 3555.5519999999997,
      "d": 274.30528125,
      "v": 78
    },
    {
      "midi": 34,
      "hit": false,
      "t": 3888.885,
      "d": 107.63878125000019,
      "v": 102
    },
    {
      "midi": 53,
      "hit": false,
      "t": 3999.9959999999996,
      "d": 288.1941562500001,
      "v": 67
    },
    {
      "midi": 56,
      "hit": false,
      "t": 3999.9959999999996,
      "d": 506.9439374999997,
      "v": 67
    },
    {
      "midi": 61,
      "hit": false,
      "t": 3999.9959999999996,
      "d": 517.3605937500001,
      "v": 70
    },
    {
      "midi": 58,
      "hit": false,
      "t": 3999.9959999999996,
      "d": 538.19390625,
      "v": 65
    },
    {
      "midi": 51,
      "hit": false,
      "t": 3999.9959999999996,
      "d": 1010.4156562500007,
      "v": 85
    },
    {
      "midi": 39,
      "hit": false,
      "t": 3999.9959999999996,
      "d": 1027.7767500000004,
      "v": 50
    },
    {
      "midi": 39,
      "hit": false,
      "t": 3999.9960000000005,
      "d": 329.86078124999995,
      "v": 96
    },
    {
      "midi": 39,
      "hit": false,
      "t": 4333.329000000001,
      "d": 545.1383437499999,
      "v": 102
    },
    {
      "midi": 53,
      "hit": false,
      "t": 4555.5509999999995,
      "d": 152.77762500000063,
      "v": 82
    },
    {
      "midi": 56,
      "hit": false,
      "t": 4666.662,
      "d": 284.7219374999995,
      "v": 100
    },
    {
      "midi": 58,
      "hit": false,
      "t": 4666.662,
      "d": 312.4996874999997,
      "v": 100
    },
    {
      "midi": 61,
      "hit": false,
      "t": 4666.662,
      "d": 315.97190624999985,
      "v": 96
    },
    {
      "midi": 53,
      "hit": false,
      "t": 4888.884,
      "d": 104.16656250000051,
      "v": 91
    },
    {
      "midi": 44,
      "hit": false,
      "t": 4888.884000000001,
      "d": 218.74978124999961,
      "v": 116
    },
    {
      "midi": 53,
      "hit": false,
      "t": 5111.106,
      "d": 104.1665624999996,
      "v": 91
    },
    {
      "midi": 41,
      "hit": false,
      "t": 5111.106000000001,
      "d": 100.69434375000037,
      "v": 96
    },
    {
      "midi": 39,
      "hit": false,
      "t": 5222.2170000000015,
      "d": 100.69434375000037,
      "v": 96
    },
    {
      "midi": 56,
      "hit": false,
      "t": 5333.3279999999995,
      "d": 406.2495937499998,
      "v": 88
    },
    {
      "midi": 63,
      "hit": false,
      "t": 5333.3279999999995,
      "d": 517.3605937499997,
      "v": 78
    },
    {
      "midi": 60,
      "hit": false,
      "t": 5333.3279999999995,
      "d": 538.1939062499996,
      "v": 82
    },
    {
      "midi": 32,
      "hit": false,
      "t": 5333.3279999999995,
      "d": 857.6380312499996,
      "v": 76
    },
    {
      "midi": 44,
      "hit": false,
      "t": 5333.3279999999995,
      "d": 881.9435624999996,
      "v": 77
    },
    {
      "midi": 32,
      "hit": false,
      "t": 5333.328000000002,
      "d": 1218.7487812499994,
      "v": 100
    },
    {
      "midi": 56,
      "hit": false,
      "t": 5888.882999999999,
      "d": 65.9721562499999,
      "v": 78
    },
    {
      "midi": 56,
      "hit": false,
      "t": 5999.993999999999,
      "d": 27.777750000000196,
      "v": 43
    },
    {
      "midi": 60,
      "hit": false,
      "t": 5999.993999999999,
      "d": 211.80534375000025,
      "v": 85
    },
    {
      "midi": 63,
      "hit": false,
      "t": 5999.993999999999,
      "d": 225.6942187500008,
      "v": 96
    },
    {
      "midi": 56,
      "hit": false,
      "t": 6222.215999999999,
      "d": 97.22212500000023,
      "v": 96
    },
    {
      "midi": 32,
      "hit": false,
      "t": 6555.549000000002,
      "d": 107.63878124999974,
      "v": 93
    },
    {
      "midi": 55,
      "hit": false,
      "t": 6666.659999999999,
      "d": 409.72181249999994,
      "v": 73
    },
    {
      "midi": 58,
      "hit": false,
      "t": 6666.659999999999,
      "d": 503.47171875000004,
      "v": 66
    },
    {
      "midi": 63,
      "hit": false,
      "t": 6666.659999999999,
      "d": 517.3605937499997,
      "v": 61
    },
    {
      "midi": 60,
      "hit": false,
      "t": 6666.659999999999,
      "d": 531.2494687499993,
      "v": 69
    },
    {
      "midi": 36,
      "hit": false,
      "t": 6666.659999999999,
      "d": 552.0827812499992,
      "v": 78
    },
    {
      "midi": 48,
      "hit": false,
      "t": 6666.659999999999,
      "d": 1111.1099999999997,
      "v": 71
    },
    {
      "midi": 36,
      "hit": false,
      "t": 6666.660000000002,
      "d": 329.8607812500004,
      "v": 100
    },
    {
      "midi": 36,
      "hit": false,
      "t": 6999.993000000002,
      "d": 711.8048437500001,
      "v": 95
    },
    {
      "midi": 55,
      "hit": false,
      "t": 7222.214999999998,
      "d": 218.74978124999961,
      "v": 75
    },
    {
      "midi": 58,
      "hit": false,
      "t": 7333.325999999998,
      "d": 378.4718437499996,
      "v": 85
    },
    {
      "midi": 63,
      "hit": false,
      "t": 7333.325999999998,
      "d": 385.4162812499999,
      "v": 96
    },
    {
      "midi": 60,
      "hit": false,
      "t": 7333.325999999998,
      "d": 388.8885,
      "v": 85
    },
    {
      "midi": 36,
      "hit": false,
      "t": 7555.547999999998,
      "d": 243.05531250000058,
      "v": 82
    },
    {
      "midi": 55,
      "hit": false,
      "t": 7555.547999999998,
      "d": 243.05531250000058,
      "v": 96
    },
    {
      "midi": 36,
      "hit": false,
      "t": 7888.881000000002,
      "d": 107.63878124999974,
      "v": 92
    },
    {
      "midi": 53,
      "hit": false,
      "t": 7999.991999999999,
      "d": 454.8606562499999,
      "v": 75
    },
    {
      "midi": 56,
      "hit": false,
      "t": 7999.991999999999,
      "d": 541.6661249999988,
      "v": 72
    },
    {
      "midi": 61,
      "hit": false,
      "t": 7999.991999999999,
      "d": 541.6661249999988,
      "v": 72
    },
    {
      "midi": 58,
      "hit": false,
      "t": 7999.991999999999,
      "d": 576.3883124999984,
      "v": 71
    },
    {
      "midi": 34,
      "hit": false,
      "t": 7999.991999999999,
      "d": 624.9993749999985,
      "v": 65
    },
    {
      "midi": 46,
      "hit": false,
      "t": 7999.991999999999,
      "d": 1152.7766249999995,
      "v": 60
    },
    {
      "midi": 34,
      "hit": false,
      "t": 7999.992000000002,
      "d": 1048.6100625,
      "v": 100
    },
    {
      "midi": 53,
      "hit": false,
      "t": 8555.546999999999,
      "d": 274.3052812499991,
      "v": 78
    },
    {
      "midi": 56,
      "hit": false,
      "t": 8666.657999999998,
      "d": 444.4439999999995,
      "v": 93
    },
    {
      "midi": 61,
      "hit": false,
      "t": 8666.657999999998,
      "d": 458.33287500000006,
      "v": 96
    },
    {
      "midi": 58,
      "hit": false,
      "t": 8666.657999999998,
      "d": 472.2217500000006,
      "v": 96
    },
    {
      "midi": 34,
      "hit": false,
      "t": 8888.879999999997,
      "d": 249.99975000000086,
      "v": 90
    },
    {
      "midi": 53,
      "hit": false,
      "t": 8888.879999999997,
      "d": 274.3052812500009,
      "v": 78
    },
    {
      "midi": 34,
      "hit": false,
      "t": 9222.213000000002,
      "d": 107.63878124999974,
      "v": 102
    },
    {
      "midi": 53,
      "hit": false,
      "t": 9333.323999999999,
      "d": 288.19415625000147,
      "v": 67
    },
    {
      "midi": 56,
      "hit": false,
      "t": 9333.323999999999,
      "d": 506.943937500002,
      "v": 67
    },
    {
      "midi": 61,
      "hit": false,
      "t": 9333.323999999999,
      "d": 517.3605937500015,
      "v": 70
    },
    {
      "midi": 58,
      "hit": false,
      "t": 9333.323999999999,
      "d": 538.1939062500023,
      "v": 65
    },
    {
      "midi": 51,
      "hit": false,
      "t": 9333.323999999999,
      "d": 1010.4156562499993,
      "v": 85
    },
    {
      "midi": 39,
      "hit": false,
      "t": 9333.323999999999,
      "d": 1027.776749999999,
      "v": 50
    },
    {
      "midi": 39,
      "hit": false,
      "t": 9333.324,
      "d": 329.8607812499995,
      "v": 96
    },
    {
      "midi": 39,
      "hit": false,
      "t": 9666.657,
      "d": 545.1383437500008,
      "v": 102
    },
    {
      "midi": 53,
      "hit": false,
      "t": 9888.879,
      "d": 152.77762500000063,
      "v": 82
    },
    {
      "midi": 56,
      "hit": false,
      "t": 9999.990000000002,
      "d": 284.7219374999986,
      "v": 100
    },
    {
      "midi": 58,
      "hit": false,
      "t": 9999.990000000002,
      "d": 312.4996874999979,
      "v": 100
    },
    {
      "midi": 61,
      "hit": false,
      "t": 9999.990000000002,
      "d": 315.9719062499971,
      "v": 96
    },
    {
      "midi": 44,
      "hit": false,
      "t": 10222.212,
      "d": 218.74978125000052,
      "v": 116
    },
    {
      "midi": 53,
      "hit": false,
      "t": 10222.212000000001,
      "d": 104.16656249999687,
      "v": 91
    },
    {
      "midi": 53,
      "hit": false,
      "t": 10444.433999999997,
      "d": 104.16656250000051,
      "v": 91
    },
    {
      "midi": 41,
      "hit": false,
      "t": 10444.434,
      "d": 100.69434374999946,
      "v": 96
    },
    {
      "midi": 39,
      "hit": false,
      "t": 10555.544999999998,
      "d": 100.69434374999946,
      "v": 96
    },
    {
      "midi": 32,
      "hit": false,
      "t": 10666.655999999997,
      "d": 1218.7487812500003,
      "v": 100
    },
    {
      "midi": 56,
      "hit": false,
      "t": 10666.655999999997,
      "d": 406.2495937500007,
      "v": 88
    },
    {
      "midi": 63,
      "hit": false,
      "t": 10666.655999999997,
      "d": 517.3605937500015,
      "v": 78
    },
    {
      "midi": 60,
      "hit": false,
      "t": 10666.655999999997,
      "d": 538.1939062500023,
      "v": 82
    },
    {
      "midi": 32,
      "hit": false,
      "t": 10666.655999999997,
      "d": 857.6380312500023,
      "v": 76
    },
    {
      "midi": 44,
      "hit": false,
      "t": 10666.655999999997,
      "d": 881.9435625000024,
      "v": 77
    },
    {
      "midi": 56,
      "hit": false,
      "t": 11222.211,
      "d": 65.9721562499999,
      "v": 78
    },
    {
      "midi": 56,
      "hit": false,
      "t": 11333.322,
      "d": 27.777749999999287,
      "v": 43
    },
    {
      "midi": 60,
      "hit": false,
      "t": 11333.322,
      "d": 211.80534375000025,
      "v": 85
    },
    {
      "midi": 63,
      "hit": false,
      "t": 11333.322,
      "d": 225.69421874999898,
      "v": 96
    },
    {
      "midi": 56,
      "hit": false,
      "t": 11555.544,
      "d": 97.22212499999841,
      "v": 96
    },
    {
      "midi": 32,
      "hit": false,
      "t": 11888.876999999997,
      "d": 107.63878124999974,
      "v": 93
    },
    {
      "midi": 36,
      "hit": false,
      "t": 11999.987999999996,
      "d": 329.8607812499995,
      "v": 100
    },
    {
      "midi": 55,
      "hit": false,
      "t": 11999.987999999998,
      "d": 409.72181249999994,
      "v": 73
    },
    {
      "midi": 58,
      "hit": false,
      "t": 11999.987999999998,
      "d": 503.47171875000095,
      "v": 66
    },
    {
      "midi": 63,
      "hit": false,
      "t": 11999.987999999998,
      "d": 517.3605937500015,
      "v": 61
    },
    {
      "midi": 60,
      "hit": false,
      "t": 11999.987999999998,
      "d": 531.249468750002,
      "v": 69
    },
    {
      "midi": 36,
      "hit": false,
      "t": 11999.987999999998,
      "d": 552.0827812500029,
      "v": 78
    },
    {
      "midi": 48,
      "hit": false,
      "t": 11999.987999999998,
      "d": 1111.1100000000006,
      "v": 71
    },
    {
      "midi": 36,
      "hit": false,
      "t": 12333.320999999994,
      "d": 711.8048437500001,
      "v": 95
    },
    {
      "midi": 55,
      "hit": false,
      "t": 12555.543,
      "d": 218.7497812499987,
      "v": 75
    },
    {
      "midi": 58,
      "hit": false,
      "t": 12666.653999999999,
      "d": 378.4718437499996,
      "v": 85
    },
    {
      "midi": 63,
      "hit": false,
      "t": 12666.653999999999,
      "d": 385.4162812499999,
      "v": 96
    },
    {
      "midi": 60,
      "hit": false,
      "t": 12666.653999999999,
      "d": 388.8884999999991,
      "v": 85
    },
    {
      "midi": 36,
      "hit": false,
      "t": 12888.875999999998,
      "d": 243.05531250000058,
      "v": 82
    },
    {
      "midi": 55,
      "hit": false,
      "t": 12888.875999999998,
      "d": 243.05531250000058,
      "v": 96
    },
    {
      "midi": 36,
      "hit": false,
      "t": 13222.208999999995,
      "d": 107.63878124999974,
      "v": 92
    },
    {
      "midi": 34,
      "hit": false,
      "t": 13333.319999999994,
      "d": 1048.6100625,
      "v": 100
    },
    {
      "midi": 53,
      "hit": false,
      "t": 13333.32,
      "d": 454.860656249999,
      "v": 75
    },
    {
      "midi": 56,
      "hit": false,
      "t": 13333.32,
      "d": 541.6661249999979,
      "v": 72
    },
    {
      "midi": 61,
      "hit": false,
      "t": 13333.32,
      "d": 541.6661249999979,
      "v": 72
    },
    {
      "midi": 58,
      "hit": false,
      "t": 13333.32,
      "d": 576.3883124999975,
      "v": 71
    },
    {
      "midi": 34,
      "hit": false,
      "t": 13333.32,
      "d": 624.9993749999976,
      "v": 65
    },
    {
      "midi": 46,
      "hit": false,
      "t": 13333.32,
      "d": 1152.7766249999986,
      "v": 60
    },
    {
      "midi": 53,
      "hit": false,
      "t": 13888.874999999998,
      "d": 274.3052812499991,
      "v": 78
    },
    {
      "midi": 56,
      "hit": false,
      "t": 13999.985999999997,
      "d": 444.4439999999995,
      "v": 93
    },
    {
      "midi": 61,
      "hit": false,
      "t": 13999.985999999997,
      "d": 458.33287500000006,
      "v": 96
    },
    {
      "midi": 58,
      "hit": false,
      "t": 13999.985999999997,
      "d": 472.2217500000006,
      "v": 96
    },
    {
      "midi": 34,
      "hit": false,
      "t": 14222.207999999997,
      "d": 249.99975000000086,
      "v": 90
    },
    {
      "midi": 53,
      "hit": false,
      "t": 14222.207999999997,
      "d": 274.3052812500009,
      "v": 78
    },
    {
      "midi": 34,
      "hit": false,
      "t": 14555.540999999994,
      "d": 107.63878124999974,
      "v": 102
    },
    {
      "midi": 39,
      "hit": false,
      "t": 14666.651999999993,
      "d": 329.8607812499995,
      "v": 96
    },
    {
      "midi": 53,
      "hit": false,
      "t": 14666.651999999998,
      "d": 288.19415625000147,
      "v": 67
    },
    {
      "midi": 56,
      "hit": false,
      "t": 14666.651999999998,
      "d": 506.943937500002,
      "v": 67
    },
    {
      "midi": 61,
      "hit": false,
      "t": 14666.651999999998,
      "d": 517.3605937500015,
      "v": 70
    },
    {
      "midi": 58,
      "hit": false,
      "t": 14666.651999999998,
      "d": 538.1939062500023,
      "v": 65
    },
    {
      "midi": 51,
      "hit": false,
      "t": 14666.651999999998,
      "d": 1010.4156562499993,
      "v": 85
    },
    {
      "midi": 39,
      "hit": false,
      "t": 14666.651999999998,
      "d": 1027.776749999999,
      "v": 50
    },
    {
      "midi": 39,
      "hit": false,
      "t": 14999.984999999991,
      "d": 545.1383437500008,
      "v": 102
    },
    {
      "midi": 53,
      "hit": false,
      "t": 15222.207,
      "d": 152.77762500000063,
      "v": 82
    },
    {
      "midi": 56,
      "hit": false,
      "t": 15333.318000000001,
      "d": 284.7219374999986,
      "v": 100
    },
    {
      "midi": 58,
      "hit": false,
      "t": 15333.318000000001,
      "d": 312.4996874999979,
      "v": 100
    },
    {
      "midi": 61,
      "hit": false,
      "t": 15333.318000000001,
      "d": 315.9719062499971,
      "v": 96
    },
    {
      "midi": 44,
      "hit": false,
      "t": 15555.539999999992,
      "d": 218.74978125000052,
      "v": 116
    },
    {
      "midi": 53,
      "hit": false,
      "t": 15555.54,
      "d": 104.16656249999687,
      "v": 91
    },
    {
      "midi": 41,
      "hit": false,
      "t": 15777.761999999992,
      "d": 100.69434374999946,
      "v": 96
    },
    {
      "midi": 53,
      "hit": false,
      "t": 15777.761999999997,
      "d": 104.16656250000051,
      "v": 91
    },
    {
      "midi": 39,
      "hit": false,
      "t": 15888.87299999999,
      "d": 100.69434374999946,
      "v": 96
    },
    {
      "midi": 32,
      "hit": false,
      "t": 15999.98399999999,
      "d": 1218.7487812500003,
      "v": 100
    },
    {
      "midi": 56,
      "hit": false,
      "t": 15999.983999999997,
      "d": 406.2495937499989,
      "v": 88
    },
    {
      "midi": 63,
      "hit": false,
      "t": 15999.983999999997,
      "d": 517.3605937499997,
      "v": 78
    },
    {
      "midi": 60,
      "hit": false,
      "t": 15999.983999999997,
      "d": 538.1939062499987,
      "v": 82
    },
    {
      "midi": 32,
      "hit": false,
      "t": 15999.983999999997,
      "d": 857.6380312500005,
      "v": 76
    },
    {
      "midi": 44,
      "hit": false,
      "t": 15999.983999999997,
      "d": 881.9435625000006,
      "v": 77
    },
    {
      "midi": 56,
      "hit": false,
      "t": 16555.538999999997,
      "d": 65.97215625000172,
      "v": 78
    },
    {
      "midi": 56,
      "hit": false,
      "t": 16666.649999999998,
      "d": 27.777750000001106,
      "v": 43
    },
    {
      "midi": 60,
      "hit": false,
      "t": 16666.649999999998,
      "d": 211.80534374999843,
      "v": 85
    },
    {
      "midi": 63,
      "hit": false,
      "t": 16666.649999999998,
      "d": 225.69421874999898,
      "v": 96
    },
    {
      "midi": 56,
      "hit": false,
      "t": 16888.871999999996,
      "d": 97.22212500000023,
      "v": 96
    },
    {
      "midi": 32,
      "hit": false,
      "t": 17222.20499999999,
      "d": 107.63878124999974,
      "v": 93
    },
    {
      "midi": 36,
      "hit": false,
      "t": 17333.31599999999,
      "d": 329.8607812500013,
      "v": 100
    },
    {
      "midi": 55,
      "hit": false,
      "t": 17333.316,
      "d": 409.72181249999994,
      "v": 73
    },
    {
      "midi": 58,
      "hit": false,
      "t": 17333.316,
      "d": 503.4717187499991,
      "v": 66
    },
    {
      "midi": 63,
      "hit": false,
      "t": 17333.316,
      "d": 517.3605937499997,
      "v": 61
    },
    {
      "midi": 60,
      "hit": false,
      "t": 17333.316,
      "d": 531.2494687500002,
      "v": 69
    },
    {
      "midi": 36,
      "hit": false,
      "t": 17333.316,
      "d": 552.0827812499992,
      "v": 78
    },
    {
      "midi": 48,
      "hit": false,
      "t": 17333.316,
      "d": 1111.109999999997,
      "v": 71
    },
    {
      "midi": 36,
      "hit": false,
      "t": 17666.648999999994,
      "d": 711.8048437500001,
      "v": 95
    },
    {
      "midi": 55,
      "hit": false,
      "t": 17888.871,
      "d": 218.74978125000052,
      "v": 75
    },
    {
      "midi": 58,
      "hit": false,
      "t": 17999.982,
      "d": 378.4718437499978,
      "v": 85
    },
    {
      "midi": 63,
      "hit": false,
      "t": 17999.982,
      "d": 385.41628124999625,
      "v": 96
    },
    {
      "midi": 60,
      "hit": false,
      "t": 17999.982,
      "d": 388.8884999999973,
      "v": 85
    },
    {
      "midi": 36,
      "hit": false,
      "t": 18222.203999999998,
      "d": 243.05531249999694,
      "v": 82
    },
    {
      "midi": 55,
      "hit": false,
      "t": 18222.203999999998,
      "d": 243.05531249999694,
      "v": 96
    },
    {
      "midi": 36,
      "hit": false,
      "t": 18555.536999999993,
      "d": 107.63878124999974,
      "v": 92
    },
    {
      "midi": 34,
      "hit": false,
      "t": 18666.647999999994,
      "d": 1048.6100625,
      "v": 100
    },
    {
      "midi": 53,
      "hit": false,
      "t": 18666.647999999994,
      "d": 454.860656249999,
      "v": 75
    },
    {
      "midi": 56,
      "hit": false,
      "t": 18666.647999999994,
      "d": 541.6661249999997,
      "v": 72
    },
    {
      "midi": 61,
      "hit": false,
      "t": 18666.647999999994,
      "d": 541.6661249999997,
      "v": 72
    },
    {
      "midi": 58,
      "hit": false,
      "t": 18666.647999999994,
      "d": 576.3883125000029,
      "v": 71
    },
    {
      "midi": 34,
      "hit": false,
      "t": 18666.647999999994,
      "d": 624.999375000003,
      "v": 65
    },
    {
      "midi": 46,
      "hit": false,
      "t": 18666.647999999994,
      "d": 1152.7766250000059,
      "v": 60
    },
    {
      "midi": 53,
      "hit": false,
      "t": 19222.202999999994,
      "d": 274.3052812500064,
      "v": 78
    },
    {
      "midi": 56,
      "hit": false,
      "t": 19333.314,
      "d": 444.4439999999995,
      "v": 93
    },
    {
      "midi": 61,
      "hit": false,
      "t": 19333.314,
      "d": 458.33287500000006,
      "v": 96
    },
    {
      "midi": 58,
      "hit": false,
      "t": 19333.314,
      "d": 472.2217500000006,
      "v": 96
    },
    {
      "midi": 34,
      "hit": false,
      "t": 19555.536,
      "d": 249.99974999999904,
      "v": 90
    },
    {
      "midi": 53,
      "hit": false,
      "t": 19555.536,
      "d": 274.3052812499991,
      "v": 78
    },
    {
      "midi": 34,
      "hit": false,
      "t": 19888.868999999995,
      "d": 107.63878124999974,
      "v": 102
    },
    {
      "midi": 39,
      "hit": false,
      "t": 19999.979999999996,
      "d": 329.8607812500013,
      "v": 96
    },
    {
      "midi": 53,
      "hit": false,
      "t": 19999.98,
      "d": 288.19415624999965,
      "v": 67
    },
    {
      "midi": 56,
      "hit": false,
      "t": 19999.98,
      "d": 506.9439375000002,
      "v": 67
    },
    {
      "midi": 61,
      "hit": false,
      "t": 19999.98,
      "d": 517.3605937499997,
      "v": 70
    },
    {
      "midi": 58,
      "hit": false,
      "t": 19999.98,
      "d": 538.1939062499987,
      "v": 65
    },
    {
      "midi": 51,
      "hit": false,
      "t": 19999.98,
      "d": 1010.4156562500029,
      "v": 85
    },
    {
      "midi": 39,
      "hit": false,
      "t": 19999.98,
      "d": 1027.7767500000045,
      "v": 50
    },
    {
      "midi": 39,
      "hit": false,
      "t": 20333.313,
      "d": 545.1383437500008,
      "v": 102
    },
    {
      "midi": 53,
      "hit": false,
      "t": 20555.535,
      "d": 152.7776249999988,
      "v": 82
    },
    {
      "midi": 56,
      "hit": false,
      "t": 20666.645999999997,
      "d": 284.72193750000224,
      "v": 100
    },
    {
      "midi": 58,
      "hit": false,
      "t": 20666.645999999997,
      "d": 312.49968750000335,
      "v": 100
    },
    {
      "midi": 61,
      "hit": false,
      "t": 20666.645999999997,
      "d": 315.9719062500044,
      "v": 96
    },
    {
      "midi": 44,
      "hit": false,
      "t": 20888.868,
      "d": 218.74978125000052,
      "v": 116
    },
    {
      "midi": 53,
      "hit": false,
      "t": 20888.868,
      "d": 104.16656250000233,
      "v": 91
    },
    {
      "midi": 41,
      "hit": false,
      "t": 21111.09,
      "d": 100.69434375000128,
      "v": 96
    },
    {
      "midi": 53,
      "hit": false,
      "t": 21111.090000000004,
      "d": 104.16656249999869,
      "v": 91
    },
    {
      "midi": 39,
      "hit": false,
      "t": 21222.201,
      "d": 100.69434375000128,
      "v": 96
    },
    {
      "midi": 32,
      "hit": false,
      "t": 21333.312,
      "d": 1218.7487812500003,
      "v": 100
    },
    {
      "midi": 56,
      "hit": false,
      "t": 21333.312,
      "d": 406.2495937499989,
      "v": 88
    },
    {
      "midi": 63,
      "hit": false,
      "t": 21333.312,
      "d": 517.3605937499997,
      "v": 78
    },
    {
      "midi": 60,
      "hit": false,
      "t": 21333.312,
      "d": 538.1939062499987,
      "v": 82
    },
    {
      "midi": 32,
      "hit": false,
      "t": 21333.312,
      "d": 857.6380312500005,
      "v": 76
    },
    {
      "midi": 44,
      "hit": false,
      "t": 21333.312,
      "d": 881.9435625000006,
      "v": 77
    },
    {
      "midi": 56,
      "hit": false,
      "t": 21888.867000000002,
      "d": 65.97215625000172,
      "v": 78
    },
    {
      "midi": 56,
      "hit": false,
      "t": 21999.978000000003,
      "d": 27.777750000001106,
      "v": 43
    },
    {
      "midi": 60,
      "hit": false,
      "t": 21999.978000000003,
      "d": 211.80534374999843,
      "v": 85
    },
    {
      "midi": 63,
      "hit": false,
      "t": 21999.978000000003,
      "d": 225.69421874999898,
      "v": 96
    },
    {
      "midi": 56,
      "hit": false,
      "t": 22222.2,
      "d": 97.22212500000023,
      "v": 96
    },
    {
      "midi": 32,
      "hit": false,
      "t": 22555.533000000003,
      "d": 107.63878124999974,
      "v": 93
    },
    {
      "midi": 36,
      "hit": false,
      "t": 22666.644000000004,
      "d": 329.8607812500013,
      "v": 100
    },
    {
      "midi": 55,
      "hit": false,
      "t": 22666.644000000004,
      "d": 409.72181249999994,
      "v": 73
    },
    {
      "midi": 58,
      "hit": false,
      "t": 22666.644000000004,
      "d": 503.4717187499991,
      "v": 66
    },
    {
      "midi": 63,
      "hit": false,
      "t": 22666.644000000004,
      "d": 517.3605937499997,
      "v": 61
    },
    {
      "midi": 60,
      "hit": false,
      "t": 22666.644000000004,
      "d": 531.2494687500002,
      "v": 69
    },
    {
      "midi": 36,
      "hit": false,
      "t": 22666.644000000004,
      "d": 552.0827812499992,
      "v": 78
    },
    {
      "midi": 48,
      "hit": false,
      "t": 22666.644000000004,
      "d": 1111.109999999997,
      "v": 71
    },
    {
      "midi": 36,
      "hit": false,
      "t": 22999.977000000006,
      "d": 711.8048437500001,
      "v": 95
    },
    {
      "midi": 55,
      "hit": false,
      "t": 23222.199000000004,
      "d": 218.74978125000052,
      "v": 75
    },
    {
      "midi": 58,
      "hit": false,
      "t": 23333.310000000005,
      "d": 378.4718437499978,
      "v": 85
    },
    {
      "midi": 63,
      "hit": false,
      "t": 23333.310000000005,
      "d": 385.41628124999625,
      "v": 96
    },
    {
      "midi": 60,
      "hit": false,
      "t": 23333.310000000005,
      "d": 388.8884999999973,
      "v": 85
    },
    {
      "midi": 36,
      "hit": false,
      "t": 23555.532000000003,
      "d": 243.05531249999694,
      "v": 82
    },
    {
      "midi": 55,
      "hit": false,
      "t": 23555.532000000003,
      "d": 243.05531249999694,
      "v": 96
    },
    {
      "midi": 36,
      "hit": false,
      "t": 23888.865000000005,
      "d": 107.63878124999974,
      "v": 92
    },
    {
      "midi": 53,
      "hit": false,
      "t": 23999.976,
      "d": 454.860656249999,
      "v": 75
    },
    {
      "midi": 56,
      "hit": false,
      "t": 23999.976,
      "d": 541.6661249999997,
      "v": 72
    },
    {
      "midi": 61,
      "hit": false,
      "t": 23999.976,
      "d": 541.6661249999997,
      "v": 72
    },
    {
      "midi": 58,
      "hit": false,
      "t": 23999.976,
      "d": 576.3883125000029,
      "v": 71
    },
    {
      "midi": 34,
      "hit": false,
      "t": 23999.976,
      "d": 624.999375000003,
      "v": 65
    },
    {
      "midi": 46,
      "hit": false,
      "t": 23999.976,
      "d": 1152.7766250000059,
      "v": 60
    },
    {
      "midi": 34,
      "hit": false,
      "t": 23999.976000000006,
      "d": 1048.6100625,
      "v": 100
    },
    {
      "midi": 53,
      "hit": false,
      "t": 24555.531,
      "d": 274.3052812500064,
      "v": 78
    },
    {
      "midi": 56,
      "hit": false,
      "t": 24666.642000000003,
      "d": 444.4439999999995,
      "v": 93
    },
    {
      "midi": 61,
      "hit": false,
      "t": 24666.642000000003,
      "d": 458.33287500000006,
      "v": 96
    },
    {
      "midi": 58,
      "hit": false,
      "t": 24666.642000000003,
      "d": 472.2217500000006,
      "v": 96
    },
    {
      "midi": 34,
      "hit": false,
      "t": 24888.864000000005,
      "d": 249.99974999999904,
      "v": 90
    },
    {
      "midi": 53,
      "hit": false,
      "t": 24888.864000000005,
      "d": 274.3052812499991,
      "v": 78
    },
    {
      "midi": 34,
      "hit": false,
      "t": 25222.197000000007,
      "d": 107.63878124999974,
      "v": 102
    },
    {
      "midi": 53,
      "hit": false,
      "t": 25333.308000000005,
      "d": 288.19415624999965,
      "v": 67
    },
    {
      "midi": 56,
      "hit": false,
      "t": 25333.308000000005,
      "d": 506.9439375000002,
      "v": 67
    },
    {
      "midi": 61,
      "hit": false,
      "t": 25333.308000000005,
      "d": 517.3605937499997,
      "v": 70
    },
    {
      "midi": 58,
      "hit": false,
      "t": 25333.308000000005,
      "d": 538.1939062499987,
      "v": 65
    },
    {
      "midi": 51,
      "hit": false,
      "t": 25333.308000000005,
      "d": 1010.4156562500029,
      "v": 85
    },
    {
      "midi": 39,
      "hit": false,
      "t": 25333.308000000005,
      "d": 1027.7767500000045,
      "v": 50
    },
    {
      "midi": 39,
      "hit": false,
      "t": 25333.308000000008,
      "d": 329.8607812500013,
      "v": 96
    },
    {
      "midi": 39,
      "hit": false,
      "t": 25666.64100000001,
      "d": 545.1383437500008,
      "v": 102
    },
    {
      "midi": 53,
      "hit": false,
      "t": 25888.863000000005,
      "d": 152.7776249999988,
      "v": 82
    },
    {
      "midi": 56,
      "hit": false,
      "t": 25999.974000000002,
      "d": 284.72193750000224,
      "v": 100
    },
    {
      "midi": 58,
      "hit": false,
      "t": 25999.974000000002,
      "d": 312.49968750000335,
      "v": 100
    },
    {
      "midi": 61,
      "hit": false,
      "t": 25999.974000000002,
      "d": 315.9719062500044,
      "v": 96
    },
    {
      "midi": 53,
      "hit": false,
      "t": 26222.196000000004,
      "d": 104.16656250000233,
      "v": 91
    },
    {
      "midi": 44,
      "hit": false,
      "t": 26222.19600000001,
      "d": 218.74978125000052,
      "v": 116
    },
    {
      "midi": 53,
      "hit": false,
      "t": 26444.41800000001,
      "d": 104.16656249999869,
      "v": 91
    },
    {
      "midi": 41,
      "hit": false,
      "t": 26444.418000000012,
      "d": 100.69434375000128,
      "v": 96
    },
    {
      "midi": 39,
      "hit": false,
      "t": 26555.529000000013,
      "d": 100.69434375000128,
      "v": 96
    },
    {
      "midi": 56,
      "hit": false,
      "t": 26666.640000000007,
      "d": 406.2495937499989,
      "v": 88
    },
    {
      "midi": 63,
      "hit": false,
      "t": 26666.640000000007,
      "d": 517.3605937499997,
      "v": 78
    },
    {
      "midi": 60,
      "hit": false,
      "t": 26666.640000000007,
      "d": 538.1939062499987,
      "v": 82
    },
    {
      "midi": 32,
      "hit": false,
      "t": 26666.640000000007,
      "d": 857.6380312500005,
      "v": 76
    },
    {
      "midi": 44,
      "hit": false,
      "t": 26666.640000000007,
      "d": 881.9435625000006,
      "v": 77
    },
    {
      "midi": 32,
      "hit": false,
      "t": 26666.640000000014,
      "d": 1218.7487812500003,
      "v": 100
    },
    {
      "midi": 56,
      "hit": false,
      "t": 27222.195000000007,
      "d": 65.97215625000172,
      "v": 78
    },
    {
      "midi": 56,
      "hit": false,
      "t": 27333.306000000008,
      "d": 27.777750000001106,
      "v": 43
    },
    {
      "midi": 60,
      "hit": false,
      "t": 27333.306000000008,
      "d": 211.80534374999843,
      "v": 85
    },
    {
      "midi": 63,
      "hit": false,
      "t": 27333.306000000008,
      "d": 225.69421874999898,
      "v": 96
    },
    {
      "midi": 56,
      "hit": false,
      "t": 27555.528000000006,
      "d": 97.22212500000023,
      "v": 96
    },
    {
      "midi": 32,
      "hit": false,
      "t": 27888.861000000015,
      "d": 107.63878124999974,
      "v": 93
    },
    {
      "midi": 55,
      "hit": false,
      "t": 27999.97200000001,
      "d": 409.72181249999994,
      "v": 73
    },
    {
      "midi": 58,
      "hit": false,
      "t": 27999.97200000001,
      "d": 503.4717187499991,
      "v": 66
    },
    {
      "midi": 63,
      "hit": false,
      "t": 27999.97200000001,
      "d": 517.3605937499997,
      "v": 61
    },
    {
      "midi": 60,
      "hit": false,
      "t": 27999.97200000001,
      "d": 531.2494687500002,
      "v": 69
    },
    {
      "midi": 36,
      "hit": false,
      "t": 27999.97200000001,
      "d": 552.0827812499992,
      "v": 78
    },
    {
      "midi": 48,
      "hit": false,
      "t": 27999.97200000001,
      "d": 1111.109999999997,
      "v": 71
    },
    {
      "midi": 36,
      "hit": false,
      "t": 27999.972000000016,
      "d": 329.8607812500013,
      "v": 100
    },
    {
      "midi": 36,
      "hit": false,
      "t": 28333.30500000002,
      "d": 711.8048437500001,
      "v": 95
    },
    {
      "midi": 55,
      "hit": false,
      "t": 28555.52700000001,
      "d": 218.74978125000052,
      "v": 75
    },
    {
      "midi": 58,
      "hit": false,
      "t": 28666.63800000001,
      "d": 378.4718437499978,
      "v": 85
    },
    {
      "midi": 63,
      "hit": false,
      "t": 28666.63800000001,
      "d": 385.41628124999625,
      "v": 96
    },
    {
      "midi": 60,
      "hit": false,
      "t": 28666.63800000001,
      "d": 388.8884999999973,
      "v": 85
    },
    {
      "midi": 36,
      "hit": false,
      "t": 28888.860000000008,
      "d": 243.05531249999694,
      "v": 82
    },
    {
      "midi": 55,
      "hit": false,
      "t": 28888.860000000008,
      "d": 243.05531249999694,
      "v": 96
    },
    {
      "midi": 36,
      "hit": false,
      "t": 29222.193000000017,
      "d": 107.63878124999974,
      "v": 92
    },
    {
      "midi": 53,
      "hit": false,
      "t": 29333.304000000004,
      "d": 454.860656249999,
      "v": 75
    },
    {
      "midi": 56,
      "hit": false,
      "t": 29333.304000000004,
      "d": 541.6661249999997,
      "v": 72
    },
    {
      "midi": 61,
      "hit": false,
      "t": 29333.304000000004,
      "d": 541.6661249999997,
      "v": 72
    },
    {
      "midi": 58,
      "hit": false,
      "t": 29333.304000000004,
      "d": 576.3883125000029,
      "v": 71
    },
    {
      "midi": 34,
      "hit": false,
      "t": 29333.304000000004,
      "d": 624.999375000003,
      "v": 65
    },
    {
      "midi": 46,
      "hit": false,
      "t": 29333.304000000004,
      "d": 1152.7766250000059,
      "v": 60
    },
    {
      "midi": 34,
      "hit": false,
      "t": 29333.30400000002,
      "d": 1048.6100625,
      "v": 100
    },
    {
      "midi": 53,
      "hit": false,
      "t": 29888.859000000004,
      "d": 274.3052812500064,
      "v": 78
    },
    {
      "midi": 56,
      "hit": false,
      "t": 29999.97000000001,
      "d": 444.4439999999995,
      "v": 93
    },
    {
      "midi": 61,
      "hit": false,
      "t": 29999.97000000001,
      "d": 458.33287500000006,
      "v": 96
    },
    {
      "midi": 58,
      "hit": false,
      "t": 29999.97000000001,
      "d": 472.2217500000006,
      "v": 96
    },
    {
      "midi": 34,
      "hit": false,
      "t": 30222.19200000001,
      "d": 249.99974999999904,
      "v": 90
    },
    {
      "midi": 53,
      "hit": false,
      "t": 30222.19200000001,
      "d": 274.3052812499991,
      "v": 78
    },
    {
      "midi": 34,
      "hit": false,
      "t": 30555.52500000002,
      "d": 107.63878124999974,
      "v": 102
    },
    {
      "midi": 53,
      "hit": false,
      "t": 30666.63600000001,
      "d": 288.19415624999965,
      "v": 67
    },
    {
      "midi": 56,
      "hit": false,
      "t": 30666.63600000001,
      "d": 506.9439375000002,
      "v": 67
    },
    {
      "midi": 61,
      "hit": false,
      "t": 30666.63600000001,
      "d": 517.3605937499997,
      "v": 70
    },
    {
      "midi": 58,
      "hit": false,
      "t": 30666.63600000001,
      "d": 538.1939062499987,
      "v": 65
    },
    {
      "midi": 51,
      "hit": false,
      "t": 30666.63600000001,
      "d": 1010.4156562500029,
      "v": 85
    },
    {
      "midi": 39,
      "hit": false,
      "t": 30666.63600000001,
      "d": 1027.7767500000045,
      "v": 50
    },
    {
      "midi": 39,
      "hit": false,
      "t": 30666.63600000002,
      "d": 329.8607812500013,
      "v": 96
    },
    {
      "midi": 39,
      "hit": false,
      "t": 30999.969000000023,
      "d": 545.1383437500008,
      "v": 102
    },
    {
      "midi": 53,
      "hit": false,
      "t": 31222.19100000001,
      "d": 152.7776249999988,
      "v": 82
    },
    {
      "midi": 56,
      "hit": false,
      "t": 31333.302000000007,
      "d": 284.72193750000224,
      "v": 100
    },
    {
      "midi": 58,
      "hit": false,
      "t": 31333.302000000007,
      "d": 312.49968750000335,
      "v": 100
    },
    {
      "midi": 61,
      "hit": false,
      "t": 31333.302000000007,
      "d": 315.9719062500044,
      "v": 96
    },
    {
      "midi": 53,
      "hit": false,
      "t": 31555.52400000001,
      "d": 104.16656250000233,
      "v": 91
    },
    {
      "midi": 44,
      "hit": false,
      "t": 31555.524000000023,
      "d": 218.74978125000052,
      "v": 116
    },
    {
      "midi": 53,
      "hit": false,
      "t": 31777.746000000014,
      "d": 104.16656249999869,
      "v": 91
    },
    {
      "midi": 41,
      "hit": false,
      "t": 31777.746000000025,
      "d": 100.69434375000128,
      "v": 96
    },
    {
      "midi": 39,
      "hit": false,
      "t": 31888.857000000025,
      "d": 100.69434375000128,
      "v": 96
    },
    {
      "midi": 56,
      "hit": false,
      "t": 31999.96800000001,
      "d": 406.2495937499989,
      "v": 88
    },
    {
      "midi": 63,
      "hit": false,
      "t": 31999.96800000001,
      "d": 517.3605937499997,
      "v": 78
    },
    {
      "midi": 60,
      "hit": false,
      "t": 31999.96800000001,
      "d": 538.1939062499987,
      "v": 82
    },
    {
      "midi": 32,
      "hit": false,
      "t": 31999.96800000001,
      "d": 857.6380312500005,
      "v": 76
    },
    {
      "midi": 44,
      "hit": false,
      "t": 31999.96800000001,
      "d": 881.9435625000006,
      "v": 77
    },
    {
      "midi": 32,
      "hit": false,
      "t": 31999.968000000026,
      "d": 1218.7487812500003,
      "v": 100
    },
    {
      "midi": 56,
      "hit": false,
      "t": 32555.523000000012,
      "d": 65.97215625000172,
      "v": 78
    },
    {
      "midi": 56,
      "hit": false,
      "t": 32666.634000000013,
      "d": 27.777750000001106,
      "v": 43
    },
    {
      "midi": 60,
      "hit": false,
      "t": 32666.634000000013,
      "d": 211.80534374999843,
      "v": 85
    },
    {
      "midi": 63,
      "hit": false,
      "t": 32666.634000000013,
      "d": 225.69421875000262,
      "v": 96
    },
    {
      "midi": 56,
      "hit": false,
      "t": 32888.856000000014,
      "d": 97.22212500000023,
      "v": 96
    },
    {
      "midi": 32,
      "hit": false,
      "t": 33222.18900000003,
      "d": 107.63878125000338,
      "v": 93
    },
    {
      "midi": 55,
      "hit": false,
      "t": 33333.30000000002,
      "d": 409.72181249999994,
      "v": 73
    },
    {
      "midi": 58,
      "hit": false,
      "t": 33333.30000000002,
      "d": 503.4717187499991,
      "v": 66
    },
    {
      "midi": 63,
      "hit": false,
      "t": 33333.30000000002,
      "d": 517.360593749996,
      "v": 61
    },
    {
      "midi": 60,
      "hit": false,
      "t": 33333.30000000002,
      "d": 531.249468749993,
      "v": 69
    },
    {
      "midi": 36,
      "hit": false,
      "t": 33333.30000000002,
      "d": 552.082781249992,
      "v": 78
    },
    {
      "midi": 48,
      "hit": false,
      "t": 33333.30000000002,
      "d": 1111.1100000000006,
      "v": 71
    },
    {
      "midi": 36,
      "hit": false,
      "t": 33333.30000000003,
      "d": 329.8607812499977,
      "v": 100
    },
    {
      "midi": 36,
      "hit": false,
      "t": 33666.63300000003,
      "d": 711.8048437499965,
      "v": 95
    },
    {
      "midi": 55,
      "hit": false,
      "t": 33888.85500000001,
      "d": 218.74978125000052,
      "v": 75
    },
    {
      "midi": 58,
      "hit": false,
      "t": 33999.96600000001,
      "d": 378.47184375000506,
      "v": 85
    },
    {
      "midi": 63,
      "hit": false,
      "t": 33999.96600000001,
      "d": 385.41628125000716,
      "v": 96
    },
    {
      "midi": 60,
      "hit": false,
      "t": 33999.96600000001,
      "d": 388.8885000000082,
      "v": 85
    },
    {
      "midi": 36,
      "hit": false,
      "t": 34222.18800000001,
      "d": 243.05531250000786,
      "v": 82
    },
    {
      "midi": 55,
      "hit": false,
      "t": 34222.18800000001,
      "d": 243.05531250000786,
      "v": 96
    },
    {
      "midi": 36,
      "hit": false,
      "t": 34555.52100000003,
      "d": 107.63878125000338,
      "v": 92
    },
    {
      "midi": 53,
      "hit": false,
      "t": 34666.63200000002,
      "d": 454.860656249999,
      "v": 75
    },
    {
      "midi": 56,
      "hit": false,
      "t": 34666.63200000002,
      "d": 541.6661250000034,
      "v": 72
    },
    {
      "midi": 61,
      "hit": false,
      "t": 34666.63200000002,
      "d": 541.6661250000034,
      "v": 72
    },
    {
      "midi": 58,
      "hit": false,
      "t": 34666.63200000002,
      "d": 576.3883124999993,
      "v": 71
    },
    {
      "midi": 34,
      "hit": false,
      "t": 34666.63200000002,
      "d": 624.9993749999994,
      "v": 65
    },
    {
      "midi": 46,
      "hit": false,
      "t": 34666.63200000002,
      "d": 1152.7766249999913,
      "v": 60
    },
    {
      "midi": 34,
      "hit": false,
      "t": 34666.632000000034,
      "d": 1048.6100625000036,
      "v": 100
    },
    {
      "midi": 53,
      "hit": false,
      "t": 35222.18700000002,
      "d": 274.30528124999546,
      "v": 78
    },
    {
      "midi": 56,
      "hit": false,
      "t": 35333.29800000002,
      "d": 444.44400000000314,
      "v": 93
    },
    {
      "midi": 61,
      "hit": false,
      "t": 35333.29800000002,
      "d": 458.33287500000006,
      "v": 96
    },
    {
      "midi": 58,
      "hit": false,
      "t": 35333.29800000002,
      "d": 472.221749999997,
      "v": 96
    },
    {
      "midi": 34,
      "hit": false,
      "t": 35555.52000000002,
      "d": 249.9997499999954,
      "v": 90
    },
    {
      "midi": 53,
      "hit": false,
      "t": 35555.52000000002,
      "d": 274.30528124999546,
      "v": 78
    },
    {
      "midi": 34,
      "hit": false,
      "t": 35888.85300000004,
      "d": 107.63878125000338,
      "v": 102
    },
    {
      "midi": 53,
      "hit": false,
      "t": 35999.964000000014,
      "d": 288.19415624999965,
      "v": 67
    },
    {
      "midi": 56,
      "hit": false,
      "t": 35999.964000000014,
      "d": 506.9439375000002,
      "v": 67
    },
    {
      "midi": 61,
      "hit": false,
      "t": 35999.964000000014,
      "d": 517.3605937500033,
      "v": 70
    },
    {
      "midi": 58,
      "hit": false,
      "t": 35999.964000000014,
      "d": 538.1939062500023,
      "v": 65
    },
    {
      "midi": 51,
      "hit": false,
      "t": 35999.964000000014,
      "d": 1010.4156562500139,
      "v": 85
    },
    {
      "midi": 39,
      "hit": false,
      "t": 35999.964000000014,
      "d": 1027.7767500000118,
      "v": 50
    },
    {
      "midi": 39,
      "hit": false,
      "t": 35999.96400000004,
      "d": 329.8607812499977,
      "v": 96
    },
    {
      "midi": 39,
      "hit": false,
      "t": 36333.29700000004,
      "d": 545.1383437499971,
      "v": 102
    },
    {
      "midi": 53,
      "hit": false,
      "t": 36555.519000000015,
      "d": 152.77762500000244,
      "v": 82
    },
    {
      "midi": 56,
      "hit": false,
      "t": 36666.63000000002,
      "d": 284.7219375000059,
      "v": 100
    },
    {
      "midi": 58,
      "hit": false,
      "t": 36666.63000000002,
      "d": 312.499687500007,
      "v": 100
    },
    {
      "midi": 61,
      "hit": false,
      "t": 36666.63000000002,
      "d": 315.97190625000803,
      "v": 96
    },
    {
      "midi": 53,
      "hit": false,
      "t": 36888.85200000002,
      "d": 104.1665625000096,
      "v": 91
    },
    {
      "midi": 44,
      "hit": false,
      "t": 36888.85200000004,
      "d": 218.74978125000052,
      "v": 116
    },
    {
      "midi": 53,
      "hit": false,
      "t": 37111.07400000003,
      "d": 104.16656250000233,
      "v": 91
    },
    {
      "midi": 41,
      "hit": false,
      "t": 37111.074000000044,
      "d": 100.69434375000128,
      "v": 96
    },
    {
      "midi": 39,
      "hit": false,
      "t": 37222.18500000005,
      "d": 100.69434375000128,
      "v": 96
    },
    {
      "midi": 56,
      "hit": false,
      "t": 37333.29600000003,
      "d": 406.2495937499989,
      "v": 88
    },
    {
      "midi": 63,
      "hit": false,
      "t": 37333.29600000003,
      "d": 517.360593749996,
      "v": 78
    },
    {
      "midi": 60,
      "hit": false,
      "t": 37333.29600000003,
      "d": 538.193906249995,
      "v": 82
    },
    {
      "midi": 32,
      "hit": false,
      "t": 37333.29600000003,
      "d": 857.6380312499896,
      "v": 76
    },
    {
      "midi": 44,
      "hit": false,
      "t": 37333.29600000003,
      "d": 881.9435624999896,
      "v": 77
    },
    {
      "midi": 32,
      "hit": false,
      "t": 37333.29600000005,
      "d": 1218.7487812499967,
      "v": 100
    },
    {
      "midi": 56,
      "hit": false,
      "t": 37888.851000000024,
      "d": 65.97215624999808,
      "v": 78
    },
    {
      "midi": 56,
      "hit": false,
      "t": 37999.96200000002,
      "d": 27.777750000001106,
      "v": 43
    },
    {
      "midi": 60,
      "hit": false,
      "t": 37999.96200000002,
      "d": 211.80534374999843,
      "v": 85
    },
    {
      "midi": 63,
      "hit": false,
      "t": 37999.96200000002,
      "d": 225.69421875000262,
      "v": 96
    },
    {
      "midi": 56,
      "hit": false,
      "t": 38222.18400000002,
      "d": 97.22212500000023,
      "v": 96
    },
    {
      "midi": 32,
      "hit": false,
      "t": 38555.51700000005,
      "d": 107.63878125000338,
      "v": 93
    },
    {
      "midi": 55,
      "hit": false,
      "t": 38666.628000000026,
      "d": 409.72181249999994,
      "v": 73
    },
    {
      "midi": 58,
      "hit": false,
      "t": 38666.628000000026,
      "d": 503.4717187499991,
      "v": 66
    },
    {
      "midi": 63,
      "hit": false,
      "t": 38666.628000000026,
      "d": 517.360593749996,
      "v": 61
    },
    {
      "midi": 60,
      "hit": false,
      "t": 38666.628000000026,
      "d": 531.249468749993,
      "v": 69
    },
    {
      "midi": 36,
      "hit": false,
      "t": 38666.628000000026,
      "d": 552.082781249992,
      "v": 78
    },
    {
      "midi": 48,
      "hit": false,
      "t": 38666.628000000026,
      "d": 1111.1100000000006,
      "v": 71
    },
    {
      "midi": 36,
      "hit": false,
      "t": 38666.628000000055,
      "d": 329.8607812499977,
      "v": 100
    },
    {
      "midi": 36,
      "hit": false,
      "t": 38999.961000000054,
      "d": 711.8048437499965,
      "v": 95
    },
    {
      "midi": 55,
      "hit": false,
      "t": 39222.18300000002,
      "d": 218.74978125000052,
      "v": 75
    },
    {
      "midi": 58,
      "hit": false,
      "t": 39333.294000000016,
      "d": 378.47184375000506,
      "v": 85
    },
    {
      "midi": 63,
      "hit": false,
      "t": 39333.294000000016,
      "d": 385.41628125000716,
      "v": 96
    },
    {
      "midi": 60,
      "hit": false,
      "t": 39333.294000000016,
      "d": 388.8885000000082,
      "v": 85
    },
    {
      "midi": 36,
      "hit": false,
      "t": 39555.51600000002,
      "d": 243.05531250000786,
      "v": 82
    },
    {
      "midi": 55,
      "hit": false,
      "t": 39555.51600000002,
      "d": 243.05531250000786,
      "v": 96
    },
    {
      "midi": 36,
      "hit": false,
      "t": 39888.84900000005,
      "d": 107.63878125000338,
      "v": 92
    },
    {
      "midi": 53,
      "hit": false,
      "t": 39999.96000000003,
      "d": 454.860656249999,
      "v": 75
    },
    {
      "midi": 56,
      "hit": false,
      "t": 39999.96000000003,
      "d": 541.6661250000034,
      "v": 72
    },
    {
      "midi": 61,
      "hit": false,
      "t": 39999.96000000003,
      "d": 541.6661250000034,
      "v": 72
    },
    {
      "midi": 58,
      "hit": false,
      "t": 39999.96000000003,
      "d": 576.3883124999993,
      "v": 71
    },
    {
      "midi": 34,
      "hit": false,
      "t": 39999.96000000003,
      "d": 624.9993749999994,
      "v": 65
    },
    {
      "midi": 46,
      "hit": false,
      "t": 39999.96000000003,
      "d": 1152.7766249999913,
      "v": 60
    },
    {
      "midi": 34,
      "hit": false,
      "t": 39999.96000000006,
      "d": 1048.6100625000036,
      "v": 100
    },
    {
      "midi": 53,
      "hit": false,
      "t": 40555.51500000003,
      "d": 274.30528124999546,
      "v": 78
    },
    {
      "midi": 56,
      "hit": false,
      "t": 40666.626000000026,
      "d": 444.44400000000314,
      "v": 93
    },
    {
      "midi": 61,
      "hit": false,
      "t": 40666.626000000026,
      "d": 458.33287500000006,
      "v": 96
    },
    {
      "midi": 58,
      "hit": false,
      "t": 40666.626000000026,
      "d": 472.221749999997,
      "v": 96
    },
    {
      "midi": 34,
      "hit": false,
      "t": 40888.84800000003,
      "d": 249.9997499999954,
      "v": 90
    },
    {
      "midi": 53,
      "hit": false,
      "t": 40888.84800000003,
      "d": 274.30528124999546,
      "v": 78
    },
    {
      "midi": 34,
      "hit": false,
      "t": 41222.18100000006,
      "d": 107.63878125000338,
      "v": 102
    },
    {
      "midi": 53,
      "hit": false,
      "t": 41333.29200000002,
      "d": 288.19415624999965,
      "v": 67
    },
    {
      "midi": 56,
      "hit": false,
      "t": 41333.29200000002,
      "d": 506.9439375000002,
      "v": 67
    },
    {
      "midi": 61,
      "hit": false,
      "t": 41333.29200000002,
      "d": 517.3605937500033,
      "v": 70
    },
    {
      "midi": 58,
      "hit": false,
      "t": 41333.29200000002,
      "d": 538.1939062500023,
      "v": 65
    },
    {
      "midi": 51,
      "hit": false,
      "t": 41333.29200000002,
      "d": 1010.4156562500139,
      "v": 85
    },
    {
      "midi": 39,
      "hit": false,
      "t": 41333.29200000002,
      "d": 1027.7767500000118,
      "v": 50
    },
    {
      "midi": 39,
      "hit": false,
      "t": 41333.29200000007,
      "d": 329.8607812499977,
      "v": 96
    },
    {
      "midi": 39,
      "hit": false,
      "t": 41666.625000000065,
      "d": 545.1383437499971,
      "v": 102
    },
    {
      "midi": 53,
      "hit": false,
      "t": 41888.84700000002,
      "d": 152.77762500000244,
      "v": 82
    },
    {
      "midi": 56,
      "hit": false,
      "t": 41999.95800000003,
      "d": 284.7219375000059,
      "v": 100
    },
    {
      "midi": 58,
      "hit": false,
      "t": 41999.95800000003,
      "d": 312.499687500007,
      "v": 100
    },
    {
      "midi": 61,
      "hit": false,
      "t": 41999.95800000003,
      "d": 315.97190625000803,
      "v": 96
    },
    {
      "midi": 53,
      "hit": false,
      "t": 42222.18000000003,
      "d": 104.1665625000096,
      "v": 91
    },
    {
      "midi": 44,
      "hit": false,
      "t": 42222.180000000066,
      "d": 218.74978125000052,
      "v": 116
    },
    {
      "midi": 53,
      "hit": false,
      "t": 42444.40200000004,
      "d": 104.16656250000233,
      "v": 91
    },
    {
      "midi": 41,
      "hit": false,
      "t": 42444.40200000007,
      "d": 100.69434375000128,
      "v": 96
    },
    {
      "midi": 39,
      "hit": false,
      "t": 42555.51300000007,
      "d": 100.69434375000128,
      "v": 96
    },
    {
      "midi": 56,
      "hit": false,
      "t": 42666.62400000004,
      "d": 406.2495937499989,
      "v": 88
    },
    {
      "midi": 63,
      "hit": false,
      "t": 42666.62400000004,
      "d": 517.360593749996,
      "v": 78
    },
    {
      "midi": 60,
      "hit": false,
      "t": 42666.62400000004,
      "d": 538.193906249995,
      "v": 82
    },
    {
      "midi": 32,
      "hit": false,
      "t": 42666.62400000004,
      "d": 857.6380312499896,
      "v": 76
    },
    {
      "midi": 44,
      "hit": false,
      "t": 42666.62400000004,
      "d": 881.9435624999896,
      "v": 77
    },
    {
      "midi": 32,
      "hit": false,
      "t": 42666.624000000076,
      "d": 1218.7487812499967,
      "v": 100
    },
    {
      "midi": 56,
      "hit": false,
      "t": 43222.17900000003,
      "d": 65.97215624999808,
      "v": 78
    },
    {
      "midi": 56,
      "hit": false,
      "t": 43333.29000000003,
      "d": 27.777750000001106,
      "v": 43
    },
    {
      "midi": 60,
      "hit": false,
      "t": 43333.29000000003,
      "d": 211.80534374999843,
      "v": 85
    },
    {
      "midi": 63,
      "hit": false,
      "t": 43333.29000000003,
      "d": 225.69421875000262,
      "v": 96
    },
    {
      "midi": 56,
      "hit": false,
      "t": 43555.51200000003,
      "d": 97.22212500000023,
      "v": 96
    },
    {
      "midi": 32,
      "hit": false,
      "t": 43888.845000000074,
      "d": 107.63878125000338,
      "v": 93
    },
    {
      "midi": 55,
      "hit": false,
      "t": 43999.956000000035,
      "d": 409.72181249999994,
      "v": 73
    },
    {
      "midi": 58,
      "hit": false,
      "t": 43999.956000000035,
      "d": 503.4717187499991,
      "v": 66
    },
    {
      "midi": 63,
      "hit": false,
      "t": 43999.956000000035,
      "d": 517.360593749996,
      "v": 61
    },
    {
      "midi": 60,
      "hit": false,
      "t": 43999.956000000035,
      "d": 531.249468749993,
      "v": 69
    },
    {
      "midi": 36,
      "hit": false,
      "t": 43999.956000000035,
      "d": 552.082781249992,
      "v": 78
    },
    {
      "midi": 48,
      "hit": false,
      "t": 43999.956000000035,
      "d": 1111.1100000000006,
      "v": 71
    },
    {
      "midi": 36,
      "hit": false,
      "t": 43999.95600000008,
      "d": 329.8607812499977,
      "v": 100
    },
    {
      "midi": 36,
      "hit": false,
      "t": 44333.28900000008,
      "d": 711.8048437499965,
      "v": 95
    },
    {
      "midi": 55,
      "hit": false,
      "t": 44555.51100000003,
      "d": 218.74978125000052,
      "v": 75
    },
    {
      "midi": 58,
      "hit": false,
      "t": 44666.622000000025,
      "d": 378.47184375000506,
      "v": 85
    },
    {
      "midi": 63,
      "hit": false,
      "t": 44666.622000000025,
      "d": 385.41628125000716,
      "v": 96
    },
    {
      "midi": 60,
      "hit": false,
      "t": 44666.622000000025,
      "d": 388.8885000000082,
      "v": 85
    },
    {
      "midi": 36,
      "hit": false,
      "t": 44888.84400000003,
      "d": 243.05531250000786,
      "v": 82
    },
    {
      "midi": 55,
      "hit": false,
      "t": 44888.84400000003,
      "d": 243.05531250000786,
      "v": 96
    },
    {
      "midi": 36,
      "hit": false,
      "t": 45222.177000000076,
      "d": 107.63878125000338,
      "v": 92
    },
    {
      "midi": 53,
      "hit": false,
      "t": 45333.28800000004,
      "d": 454.860656249999,
      "v": 75
    },
    {
      "midi": 56,
      "hit": false,
      "t": 45333.28800000004,
      "d": 541.6661250000034,
      "v": 72
    },
    {
      "midi": 61,
      "hit": false,
      "t": 45333.28800000004,
      "d": 541.6661250000034,
      "v": 72
    },
    {
      "midi": 58,
      "hit": false,
      "t": 45333.28800000004,
      "d": 576.3883124999993,
      "v": 71
    },
    {
      "midi": 34,
      "hit": false,
      "t": 45333.28800000004,
      "d": 624.9993749999994,
      "v": 65
    },
    {
      "midi": 46,
      "hit": false,
      "t": 45333.28800000004,
      "d": 1152.7766249999913,
      "v": 60
    },
    {
      "midi": 34,
      "hit": false,
      "t": 45333.28800000008,
      "d": 1048.6100625000036,
      "v": 100
    },
    {
      "midi": 53,
      "hit": false,
      "t": 45888.84300000004,
      "d": 274.30528124999546,
      "v": 78
    },
    {
      "midi": 56,
      "hit": false,
      "t": 45999.954000000034,
      "d": 444.44400000000314,
      "v": 93
    },
    {
      "midi": 61,
      "hit": false,
      "t": 45999.954000000034,
      "d": 458.33287500000006,
      "v": 96
    },
    {
      "midi": 58,
      "hit": false,
      "t": 45999.954000000034,
      "d": 472.221749999997,
      "v": 96
    },
    {
      "midi": 34,
      "hit": false,
      "t": 46222.176000000036,
      "d": 249.9997499999954,
      "v": 90
    },
    {
      "midi": 53,
      "hit": false,
      "t": 46222.176000000036,
      "d": 274.30528124999546,
      "v": 78
    },
    {
      "midi": 34,
      "hit": false,
      "t": 46555.509000000086,
      "d": 107.63878125000338,
      "v": 102
    },
    {
      "midi": 53,
      "hit": false,
      "t": 46666.62000000003,
      "d": 288.19415624999965,
      "v": 67
    },
    {
      "midi": 56,
      "hit": false,
      "t": 46666.62000000003,
      "d": 506.9439375000002,
      "v": 67
    },
    {
      "midi": 61,
      "hit": false,
      "t": 46666.62000000003,
      "d": 517.3605937500033,
      "v": 70
    },
    {
      "midi": 58,
      "hit": false,
      "t": 46666.62000000003,
      "d": 538.1939062500023,
      "v": 65
    },
    {
      "midi": 51,
      "hit": false,
      "t": 46666.62000000003,
      "d": 1010.4156562500139,
      "v": 85
    },
    {
      "midi": 39,
      "hit": false,
      "t": 46666.62000000003,
      "d": 1027.7767500000118,
      "v": 50
    },
    {
      "midi": 39,
      "hit": false,
      "t": 46666.62000000009,
      "d": 329.8607812499977,
      "v": 96
    },
    {
      "midi": 39,
      "hit": false,
      "t": 46999.95300000009,
      "d": 545.1383437499971,
      "v": 102
    },
    {
      "midi": 53,
      "hit": false,
      "t": 47222.17500000003,
      "d": 152.77762500000244,
      "v": 82
    },
    {
      "midi": 56,
      "hit": false,
      "t": 47333.28600000004,
      "d": 284.7219375000059,
      "v": 100
    },
    {
      "midi": 58,
      "hit": false,
      "t": 47333.28600000004,
      "d": 312.499687500007,
      "v": 100
    },
    {
      "midi": 61,
      "hit": false,
      "t": 47333.28600000004,
      "d": 315.97190625000803,
      "v": 96
    },
    {
      "midi": 53,
      "hit": false,
      "t": 47555.50800000004,
      "d": 104.1665625000096,
      "v": 91
    },
    {
      "midi": 44,
      "hit": false,
      "t": 47555.50800000009,
      "d": 218.74978125000052,
      "v": 116
    },
    {
      "midi": 53,
      "hit": false,
      "t": 47777.73000000005,
      "d": 104.16656250000233,
      "v": 91
    },
    {
      "midi": 41,
      "hit": false,
      "t": 47777.73000000009,
      "d": 100.69434375000128,
      "v": 96
    },
    {
      "midi": 39,
      "hit": false,
      "t": 47888.841000000095,
      "d": 100.69434375000128,
      "v": 96
    },
    {
      "midi": 56,
      "hit": false,
      "t": 47999.95200000005,
      "d": 406.2495937499989,
      "v": 88
    },
    {
      "midi": 63,
      "hit": false,
      "t": 47999.95200000005,
      "d": 517.360593749996,
      "v": 78
    },
    {
      "midi": 60,
      "hit": false,
      "t": 47999.95200000005,
      "d": 538.193906249995,
      "v": 82
    },
    {
      "midi": 32,
      "hit": false,
      "t": 47999.95200000005,
      "d": 857.6380312499896,
      "v": 76
    },
    {
      "midi": 44,
      "hit": false,
      "t": 47999.95200000005,
      "d": 881.9435624999896,
      "v": 77
    },
    {
      "midi": 32,
      "hit": false,
      "t": 47999.9520000001,
      "d": 1218.7487812499967,
      "v": 100
    },
    {
      "midi": 56,
      "hit": false,
      "t": 48555.50700000004,
      "d": 65.97215624999808,
      "v": 78
    },
    {
      "midi": 56,
      "hit": false,
      "t": 48666.61800000004,
      "d": 27.777750000001106,
      "v": 43
    },
    {
      "midi": 60,
      "hit": false,
      "t": 48666.61800000004,
      "d": 211.80534374999843,
      "v": 85
    },
    {
      "midi": 63,
      "hit": false,
      "t": 48666.61800000004,
      "d": 225.69421875000262,
      "v": 96
    },
    {
      "midi": 56,
      "hit": false,
      "t": 48888.84000000004,
      "d": 97.22212500000023,
      "v": 96
    },
    {
      "midi": 32,
      "hit": false,
      "t": 49222.1730000001,
      "d": 107.63878125000338,
      "v": 93
    },
    {
      "midi": 55,
      "hit": false,
      "t": 49333.28400000004,
      "d": 409.72181249999994,
      "v": 73
    },
    {
      "midi": 58,
      "hit": false,
      "t": 49333.28400000004,
      "d": 503.4717187499991,
      "v": 66
    },
    {
      "midi": 63,
      "hit": false,
      "t": 49333.28400000004,
      "d": 517.360593749996,
      "v": 61
    },
    {
      "midi": 60,
      "hit": false,
      "t": 49333.28400000004,
      "d": 531.249468749993,
      "v": 69
    },
    {
      "midi": 36,
      "hit": false,
      "t": 49333.28400000004,
      "d": 552.082781249992,
      "v": 78
    },
    {
      "midi": 48,
      "hit": false,
      "t": 49333.28400000004,
      "d": 1111.1100000000006,
      "v": 71
    },
    {
      "midi": 36,
      "hit": false,
      "t": 49333.2840000001,
      "d": 329.8607812499977,
      "v": 100
    },
    {
      "midi": 36,
      "hit": false,
      "t": 49666.6170000001,
      "d": 711.8048437499965,
      "v": 95
    },
    {
      "midi": 55,
      "hit": false,
      "t": 49888.839000000036,
      "d": 218.74978125000052,
      "v": 75
    },
    {
      "midi": 58,
      "hit": false,
      "t": 49999.95000000003,
      "d": 378.47184375000506,
      "v": 85
    },
    {
      "midi": 63,
      "hit": false,
      "t": 49999.95000000003,
      "d": 385.41628125000716,
      "v": 96
    },
    {
      "midi": 60,
      "hit": false,
      "t": 49999.95000000003,
      "d": 388.8885000000082,
      "v": 85
    },
    {
      "midi": 36,
      "hit": false,
      "t": 50222.172000000035,
      "d": 243.05531250000786,
      "v": 82
    },
    {
      "midi": 55,
      "hit": false,
      "t": 50222.172000000035,
      "d": 243.05531250000786,
      "v": 96
    },
    {
      "midi": 36,
      "hit": false,
      "t": 50555.5050000001,
      "d": 107.63878125000338,
      "v": 92
    },
    {
      "midi": 53,
      "hit": false,
      "t": 50666.616000000045,
      "d": 454.860656249999,
      "v": 75
    },
    {
      "midi": 56,
      "hit": false,
      "t": 50666.616000000045,
      "d": 541.6661250000034,
      "v": 72
    },
    {
      "midi": 61,
      "hit": false,
      "t": 50666.616000000045,
      "d": 541.6661250000034,
      "v": 72
    },
    {
      "midi": 58,
      "hit": false,
      "t": 50666.616000000045,
      "d": 576.3883124999993,
      "v": 71
    },
    {
      "midi": 34,
      "hit": false,
      "t": 50666.616000000045,
      "d": 624.9993749999994,
      "v": 65
    },
    {
      "midi": 46,
      "hit": false,
      "t": 50666.616000000045,
      "d": 1152.7766249999913,
      "v": 60
    },
    {
      "midi": 34,
      "hit": false,
      "t": 50666.616000000104,
      "d": 1048.6100625000036,
      "v": 100
    },
    {
      "midi": 53,
      "hit": false,
      "t": 51222.171000000046,
      "d": 274.30528124999546,
      "v": 78
    },
    {
      "midi": 56,
      "hit": false,
      "t": 51333.28200000004,
      "d": 444.44400000000314,
      "v": 93
    },
    {
      "midi": 61,
      "hit": false,
      "t": 51333.28200000004,
      "d": 458.33287500000006,
      "v": 96
    },
    {
      "midi": 58,
      "hit": false,
      "t": 51333.28200000004,
      "d": 472.221749999997,
      "v": 96
    },
    {
      "midi": 34,
      "hit": false,
      "t": 51555.504000000044,
      "d": 249.9997499999954,
      "v": 90
    },
    {
      "midi": 53,
      "hit": false,
      "t": 51555.504000000044,
      "d": 274.30528124999546,
      "v": 78
    },
    {
      "midi": 34,
      "hit": false,
      "t": 51888.83700000011,
      "d": 107.63878125000338,
      "v": 102
    },
    {
      "midi": 53,
      "hit": false,
      "t": 51999.94800000004,
      "d": 288.19415624999965,
      "v": 67
    },
    {
      "midi": 56,
      "hit": false,
      "t": 51999.94800000004,
      "d": 506.9439375000002,
      "v": 67
    },
    {
      "midi": 61,
      "hit": false,
      "t": 51999.94800000004,
      "d": 517.3605937500033,
      "v": 70
    },
    {
      "midi": 58,
      "hit": false,
      "t": 51999.94800000004,
      "d": 538.1939062500023,
      "v": 65
    },
    {
      "midi": 51,
      "hit": false,
      "t": 51999.94800000004,
      "d": 1010.4156562500139,
      "v": 85
    },
    {
      "midi": 39,
      "hit": false,
      "t": 51999.94800000004,
      "d": 1027.7767500000118,
      "v": 50
    },
    {
      "midi": 39,
      "hit": false,
      "t": 51999.94800000011,
      "d": 329.8607812499977,
      "v": 96
    },
    {
      "midi": 39,
      "hit": false,
      "t": 52333.28100000011,
      "d": 545.1383437499971,
      "v": 102
    },
    {
      "midi": 53,
      "hit": false,
      "t": 52555.50300000004,
      "d": 152.77762500000244,
      "v": 82
    },
    {
      "midi": 56,
      "hit": false,
      "t": 52666.614000000045,
      "d": 284.7219375000059,
      "v": 100
    },
    {
      "midi": 58,
      "hit": false,
      "t": 52666.614000000045,
      "d": 312.499687500007,
      "v": 100
    },
    {
      "midi": 61,
      "hit": false,
      "t": 52666.614000000045,
      "d": 315.97190625000803,
      "v": 96
    },
    {
      "midi": 53,
      "hit": false,
      "t": 52888.83600000005,
      "d": 104.1665625000096,
      "v": 91
    },
    {
      "midi": 44,
      "hit": false,
      "t": 52888.83600000011,
      "d": 218.74978125000052,
      "v": 116
    },
    {
      "midi": 53,
      "hit": false,
      "t": 53111.058000000055,
      "d": 104.16656250000233,
      "v": 91
    },
    {
      "midi": 41,
      "hit": false,
      "t": 53111.058000000114,
      "d": 100.69434375000128,
      "v": 96
    },
    {
      "midi": 39,
      "hit": false,
      "t": 53222.16900000012,
      "d": 100.69434375000128,
      "v": 96
    },
    {
      "midi": 56,
      "hit": false,
      "t": 53333.28000000006,
      "d": 406.2495937499989,
      "v": 88
    },
    {
      "midi": 63,
      "hit": false,
      "t": 53333.28000000006,
      "d": 517.360593749996,
      "v": 78
    },
    {
      "midi": 60,
      "hit": false,
      "t": 53333.28000000006,
      "d": 538.193906249995,
      "v": 82
    },
    {
      "midi": 32,
      "hit": false,
      "t": 53333.28000000006,
      "d": 857.6380312499896,
      "v": 76
    },
    {
      "midi": 44,
      "hit": false,
      "t": 53333.28000000006,
      "d": 881.9435624999896,
      "v": 77
    },
    {
      "midi": 32,
      "hit": false,
      "t": 53333.28000000012,
      "d": 1218.7487812499967,
      "v": 100
    },
    {
      "midi": 56,
      "hit": false,
      "t": 53888.83500000005,
      "d": 65.97215624999808,
      "v": 78
    },
    {
      "midi": 56,
      "hit": false,
      "t": 53999.94600000005,
      "d": 27.777750000001106,
      "v": 43
    },
    {
      "midi": 60,
      "hit": false,
      "t": 53999.94600000005,
      "d": 211.80534374999843,
      "v": 85
    },
    {
      "midi": 63,
      "hit": false,
      "t": 53999.94600000005,
      "d": 225.69421875000262,
      "v": 96
    },
    {
      "midi": 56,
      "hit": false,
      "t": 54222.16800000005,
      "d": 97.22212500000023,
      "v": 96
    },
    {
      "midi": 32,
      "hit": false,
      "t": 54555.50100000012,
      "d": 107.63878125000338,
      "v": 93
    },
    {
      "midi": 55,
      "hit": false,
      "t": 54666.61200000005,
      "d": 409.72181249999994,
      "v": 73
    },
    {
      "midi": 58,
      "hit": false,
      "t": 54666.61200000005,
      "d": 503.4717187499991,
      "v": 66
    },
    {
      "midi": 63,
      "hit": false,
      "t": 54666.61200000005,
      "d": 517.360593749996,
      "v": 61
    },
    {
      "midi": 60,
      "hit": false,
      "t": 54666.61200000005,
      "d": 531.249468749993,
      "v": 69
    },
    {
      "midi": 36,
      "hit": false,
      "t": 54666.61200000005,
      "d": 552.082781249992,
      "v": 78
    },
    {
      "midi": 48,
      "hit": false,
      "t": 54666.61200000005,
      "d": 1111.1100000000006,
      "v": 71
    },
    {
      "midi": 36,
      "hit": false,
      "t": 54666.612000000125,
      "d": 329.8607812499977,
      "v": 100
    },
    {
      "midi": 36,
      "hit": false,
      "t": 54999.94500000012,
      "d": 711.8048437499965,
      "v": 95
    },
    {
      "midi": 55,
      "hit": false,
      "t": 55222.167000000045,
      "d": 218.74978125000052,
      "v": 75
    },
    {
      "midi": 58,
      "hit": false,
      "t": 55333.27800000004,
      "d": 378.47184375000506,
      "v": 85
    },
    {
      "midi": 63,
      "hit": false,
      "t": 55333.27800000004,
      "d": 385.41628125000716,
      "v": 96
    },
    {
      "midi": 60,
      "hit": false,
      "t": 55333.27800000004,
      "d": 388.8885000000082,
      "v": 85
    },
    {
      "midi": 36,
      "hit": false,
      "t": 55555.500000000044,
      "d": 243.05531250000786,
      "v": 82
    },
    {
      "midi": 55,
      "hit": false,
      "t": 55555.500000000044,
      "d": 243.05531250000786,
      "v": 96
    },
    {
      "midi": 36,
      "hit": false,
      "t": 55888.83300000012,
      "d": 107.63878125000338,
      "v": 92
    },
    {
      "midi": 53,
      "hit": false,
      "t": 55999.944000000054,
      "d": 454.860656249999,
      "v": 75
    },
    {
      "midi": 56,
      "hit": false,
      "t": 55999.944000000054,
      "d": 541.6661250000034,
      "v": 72
    },
    {
      "midi": 61,
      "hit": false,
      "t": 55999.944000000054,
      "d": 541.6661250000034,
      "v": 72
    },
    {
      "midi": 58,
      "hit": false,
      "t": 55999.944000000054,
      "d": 576.3883124999993,
      "v": 71
    },
    {
      "midi": 34,
      "hit": false,
      "t": 55999.944000000054,
      "d": 624.9993749999994,
      "v": 65
    },
    {
      "midi": 46,
      "hit": false,
      "t": 55999.944000000054,
      "d": 1152.7766249999913,
      "v": 60
    },
    {
      "midi": 34,
      "hit": false,
      "t": 55999.94400000013,
      "d": 1048.6100625000036,
      "v": 100
    },
    {
      "midi": 53,
      "hit": false,
      "t": 56555.499000000054,
      "d": 274.30528124999546,
      "v": 78
    },
    {
      "midi": 56,
      "hit": false,
      "t": 56666.61000000005,
      "d": 444.44400000000314,
      "v": 93
    },
    {
      "midi": 61,
      "hit": false,
      "t": 56666.61000000005,
      "d": 458.33287500000006,
      "v": 96
    },
    {
      "midi": 58,
      "hit": false,
      "t": 56666.61000000005,
      "d": 472.221749999997,
      "v": 96
    },
    {
      "midi": 34,
      "hit": false,
      "t": 56888.83200000005,
      "d": 249.9997499999954,
      "v": 90
    },
    {
      "midi": 53,
      "hit": false,
      "t": 56888.83200000005,
      "d": 274.30528124999546,
      "v": 78
    },
    {
      "midi": 34,
      "hit": false,
      "t": 57222.16500000013,
      "d": 107.63878125000338,
      "v": 102
    },
    {
      "midi": 53,
      "hit": false,
      "t": 57333.27600000005,
      "d": 288.19415624999965,
      "v": 67
    },
    {
      "midi": 56,
      "hit": false,
      "t": 57333.27600000005,
      "d": 506.9439375000002,
      "v": 67
    },
    {
      "midi": 61,
      "hit": false,
      "t": 57333.27600000005,
      "d": 517.3605937500033,
      "v": 70
    },
    {
      "midi": 58,
      "hit": false,
      "t": 57333.27600000005,
      "d": 538.1939062500023,
      "v": 65
    },
    {
      "midi": 51,
      "hit": false,
      "t": 57333.27600000005,
      "d": 1010.4156562500139,
      "v": 85
    },
    {
      "midi": 39,
      "hit": false,
      "t": 57333.27600000005,
      "d": 1027.7767500000118,
      "v": 50
    },
    {
      "midi": 39,
      "hit": false,
      "t": 57333.276000000136,
      "d": 329.8607812499977,
      "v": 96
    },
    {
      "midi": 39,
      "hit": false,
      "t": 57666.609000000135,
      "d": 545.1383437499971,
      "v": 102
    },
    {
      "midi": 53,
      "hit": false,
      "t": 57888.83100000005,
      "d": 152.77762500000244,
      "v": 82
    },
    {
      "midi": 56,
      "hit": false,
      "t": 57999.942000000054,
      "d": 284.7219375000059,
      "v": 100
    },
    {
      "midi": 58,
      "hit": false,
      "t": 57999.942000000054,
      "d": 312.499687500007,
      "v": 100
    },
    {
      "midi": 61,
      "hit": false,
      "t": 57999.942000000054,
      "d": 315.97190625000803,
      "v": 96
    },
    {
      "midi": 53,
      "hit": false,
      "t": 58222.164000000055,
      "d": 104.1665625000096,
      "v": 91
    },
    {
      "midi": 44,
      "hit": false,
      "t": 58222.164000000135,
      "d": 218.74978125000052,
      "v": 116
    },
    {
      "midi": 53,
      "hit": false,
      "t": 58444.386000000064,
      "d": 104.16656250000233,
      "v": 91
    },
    {
      "midi": 41,
      "hit": false,
      "t": 58444.38600000014,
      "d": 100.69434375000128,
      "v": 96
    },
    {
      "midi": 39,
      "hit": false,
      "t": 58555.49700000014,
      "d": 100.69434375000128,
      "v": 96
    },
    {
      "midi": 56,
      "hit": false,
      "t": 58666.608000000066,
      "d": 406.2495937499989,
      "v": 88
    },
    {
      "midi": 63,
      "hit": false,
      "t": 58666.608000000066,
      "d": 517.360593749996,
      "v": 78
    },
    {
      "midi": 60,
      "hit": false,
      "t": 58666.608000000066,
      "d": 538.193906249995,
      "v": 82
    },
    {
      "midi": 32,
      "hit": false,
      "t": 58666.608000000066,
      "d": 857.6380312499896,
      "v": 76
    },
    {
      "midi": 44,
      "hit": false,
      "t": 58666.608000000066,
      "d": 881.9435624999896,
      "v": 77
    },
    {
      "midi": 32,
      "hit": false,
      "t": 58666.608000000146,
      "d": 1218.7487812499967,
      "v": 100
    },
    {
      "midi": 56,
      "hit": false,
      "t": 59222.16300000006,
      "d": 65.97215624999808,
      "v": 78
    },
    {
      "midi": 56,
      "hit": false,
      "t": 59333.274000000056,
      "d": 27.777750000001106,
      "v": 43
    },
    {
      "midi": 60,
      "hit": false,
      "t": 59333.274000000056,
      "d": 211.80534374999843,
      "v": 85
    },
    {
      "midi": 63,
      "hit": false,
      "t": 59333.274000000056,
      "d": 225.69421875000262,
      "v": 96
    },
    {
      "midi": 56,
      "hit": false,
      "t": 59555.49600000006,
      "d": 97.22212500000023,
      "v": 96
    },
    {
      "midi": 32,
      "hit": false,
      "t": 59888.82900000014,
      "d": 107.63878125000338,
      "v": 93
    },
    {
      "midi": 55,
      "hit": false,
      "t": 59999.94000000006,
      "d": 409.72181249999994,
      "v": 73
    },
    {
      "midi": 58,
      "hit": false,
      "t": 59999.94000000006,
      "d": 503.4717187499991,
      "v": 66
    },
    {
      "midi": 63,
      "hit": false,
      "t": 59999.94000000006,
      "d": 517.360593749996,
      "v": 61
    },
    {
      "midi": 60,
      "hit": false,
      "t": 59999.94000000006,
      "d": 531.249468749993,
      "v": 69
    },
    {
      "midi": 36,
      "hit": false,
      "t": 59999.94000000006,
      "d": 552.082781249992,
      "v": 78
    },
    {
      "midi": 48,
      "hit": false,
      "t": 59999.94000000006,
      "d": 1111.1100000000006,
      "v": 71
    },
    {
      "midi": 36,
      "hit": false,
      "t": 59999.94000000015,
      "d": 329.8607812499977,
      "v": 100
    },
    {
      "midi": 36,
      "hit": false,
      "t": 60333.27300000015,
      "d": 711.8048437499965,
      "v": 95
    },
    {
      "midi": 55,
      "hit": false,
      "t": 60555.49500000005,
      "d": 218.74978125000052,
      "v": 75
    },
    {
      "midi": 58,
      "hit": false,
      "t": 60666.60600000005,
      "d": 378.47184375000506,
      "v": 85
    },
    {
      "midi": 63,
      "hit": false,
      "t": 60666.60600000005,
      "d": 385.41628125000716,
      "v": 96
    },
    {
      "midi": 60,
      "hit": false,
      "t": 60666.60600000005,
      "d": 388.8885000000082,
      "v": 85
    },
    {
      "midi": 36,
      "hit": false,
      "t": 60888.82800000005,
      "d": 243.05531250000786,
      "v": 82
    },
    {
      "midi": 55,
      "hit": false,
      "t": 60888.82800000005,
      "d": 243.05531250000786,
      "v": 96
    },
    {
      "midi": 36,
      "hit": false,
      "t": 61222.161000000146,
      "d": 107.63878125000338,
      "v": 92
    },
    {
      "midi": 53,
      "hit": false,
      "t": 61333.27200000006,
      "d": 454.860656249999,
      "v": 75
    },
    {
      "midi": 56,
      "hit": false,
      "t": 61333.27200000006,
      "d": 541.6661250000034,
      "v": 72
    },
    {
      "midi": 61,
      "hit": false,
      "t": 61333.27200000006,
      "d": 541.6661250000034,
      "v": 72
    },
    {
      "midi": 58,
      "hit": false,
      "t": 61333.27200000006,
      "d": 576.3883124999993,
      "v": 71
    },
    {
      "midi": 34,
      "hit": false,
      "t": 61333.27200000006,
      "d": 624.9993749999994,
      "v": 65
    },
    {
      "midi": 46,
      "hit": false,
      "t": 61333.27200000006,
      "d": 1152.7766249999913,
      "v": 60
    },
    {
      "midi": 34,
      "hit": false,
      "t": 61333.27200000015,
      "d": 1048.6100625000036,
      "v": 100
    },
    {
      "midi": 53,
      "hit": false,
      "t": 61888.82700000006,
      "d": 274.30528124999546,
      "v": 78
    },
    {
      "midi": 56,
      "hit": false,
      "t": 61999.93800000006,
      "d": 444.44400000000314,
      "v": 93
    },
    {
      "midi": 61,
      "hit": false,
      "t": 61999.93800000006,
      "d": 458.33287500000006,
      "v": 96
    },
    {
      "midi": 58,
      "hit": false,
      "t": 61999.93800000006,
      "d": 472.221749999997,
      "v": 96
    },
    {
      "midi": 34,
      "hit": false,
      "t": 62222.16000000006,
      "d": 249.9997499999954,
      "v": 90
    },
    {
      "midi": 53,
      "hit": false,
      "t": 62222.16000000006,
      "d": 274.30528124999546,
      "v": 78
    },
    {
      "midi": 34,
      "hit": false,
      "t": 62555.493000000155,
      "d": 107.63878125000338,
      "v": 102
    },
    {
      "midi": 53,
      "hit": false,
      "t": 62666.60400000006,
      "d": 288.19415624999965,
      "v": 67
    },
    {
      "midi": 56,
      "hit": false,
      "t": 62666.60400000006,
      "d": 506.9439375000002,
      "v": 67
    },
    {
      "midi": 61,
      "hit": false,
      "t": 62666.60400000006,
      "d": 517.3605937500033,
      "v": 70
    },
    {
      "midi": 58,
      "hit": false,
      "t": 62666.60400000006,
      "d": 538.1939062500023,
      "v": 65
    },
    {
      "midi": 51,
      "hit": false,
      "t": 62666.60400000006,
      "d": 1010.4156562500139,
      "v": 85
    },
    {
      "midi": 39,
      "hit": false,
      "t": 62666.60400000006,
      "d": 1027.7767500000118,
      "v": 50
    },
    {
      "midi": 39,
      "hit": false,
      "t": 62666.60400000016,
      "d": 329.8607812499977,
      "v": 96
    },
    {
      "midi": 39,
      "hit": false,
      "t": 62999.93700000016,
      "d": 545.1383437499971,
      "v": 102
    },
    {
      "midi": 53,
      "hit": false,
      "t": 63222.15900000006,
      "d": 152.77762500000244,
      "v": 82
    },
    {
      "midi": 56,
      "hit": false,
      "t": 63333.27000000006,
      "d": 284.7219375000059,
      "v": 100
    },
    {
      "midi": 58,
      "hit": false,
      "t": 63333.27000000006,
      "d": 312.499687500007,
      "v": 100
    },
    {
      "midi": 61,
      "hit": false,
      "t": 63333.27000000006,
      "d": 315.97190625000803,
      "v": 96
    },
    {
      "midi": 53,
      "hit": false,
      "t": 63555.492000000064,
      "d": 104.1665625000096,
      "v": 91
    },
    {
      "midi": 44,
      "hit": false,
      "t": 63555.49200000016,
      "d": 218.74978125000052,
      "v": 116
    },
    {
      "midi": 53,
      "hit": false,
      "t": 63777.71400000007,
      "d": 104.16656250000233,
      "v": 91
    },
    {
      "midi": 41,
      "hit": false,
      "t": 63777.71400000016,
      "d": 100.69434375000128,
      "v": 96
    },
    {
      "midi": 39,
      "hit": false,
      "t": 63888.825000000164,
      "d": 100.69434375000128,
      "v": 96
    },
    {
      "midi": 56,
      "hit": false,
      "t": 63999.936000000074,
      "d": 406.2495937499989,
      "v": 88
    },
    {
      "midi": 63,
      "hit": false,
      "t": 63999.936000000074,
      "d": 517.360593749996,
      "v": 78
    },
    {
      "midi": 60,
      "hit": false,
      "t": 63999.936000000074,
      "d": 538.193906249995,
      "v": 82
    },
    {
      "midi": 32,
      "hit": false,
      "t": 63999.936000000074,
      "d": 857.6380312499896,
      "v": 76
    },
    {
      "midi": 44,
      "hit": false,
      "t": 63999.936000000074,
      "d": 881.9435624999896,
      "v": 77
    },
    {
      "midi": 32,
      "hit": false,
      "t": 63999.93600000017,
      "d": 1218.7487812499967,
      "v": 100
    },
    {
      "midi": 56,
      "hit": false,
      "t": 64555.49100000007,
      "d": 65.97215624999808,
      "v": 78
    },
    {
      "midi": 56,
      "hit": false,
      "t": 64666.602000000064,
      "d": 27.777750000001106,
      "v": 43
    },
    {
      "midi": 60,
      "hit": false,
      "t": 64666.602000000064,
      "d": 211.80534374999843,
      "v": 85
    },
    {
      "midi": 63,
      "hit": false,
      "t": 64666.602000000064,
      "d": 225.69421875000262,
      "v": 96
    },
    {
      "midi": 56,
      "hit": false,
      "t": 64888.824000000066,
      "d": 97.22212500000023,
      "v": 96
    },
    {
      "midi": 32,
      "hit": false,
      "t": 65222.15700000017,
      "d": 107.63878125000338,
      "v": 93
    },
    {
      "midi": 55,
      "hit": false,
      "t": 65333.26800000007,
      "d": 409.7218125000072,
      "v": 73
    },
    {
      "midi": 58,
      "hit": false,
      "t": 65333.26800000007,
      "d": 503.4717187500064,
      "v": 66
    },
    {
      "midi": 63,
      "hit": false,
      "t": 65333.26800000007,
      "d": 517.3605937500106,
      "v": 61
    },
    {
      "midi": 60,
      "hit": false,
      "t": 65333.26800000007,
      "d": 531.2494687500148,
      "v": 69
    },
    {
      "midi": 36,
      "hit": false,
      "t": 65333.26800000007,
      "d": 552.0827812500211,
      "v": 78
    },
    {
      "midi": 48,
      "hit": false,
      "t": 65333.26800000007,
      "d": 1111.1100000000442,
      "v": 71
    },
    {
      "midi": 36,
      "hit": false,
      "t": 65333.26800000017,
      "d": 329.8607812499977,
      "v": 100
    },
    {
      "midi": 36,
      "hit": false,
      "t": 65666.60100000017,
      "d": 711.8048437499965,
      "v": 95
    },
    {
      "midi": 55,
      "hit": false,
      "t": 65888.82300000009,
      "d": 218.7497812500078,
      "v": 75
    },
    {
      "midi": 58,
      "hit": false,
      "t": 65999.9340000001,
      "d": 378.47184375001234,
      "v": 85
    },
    {
      "midi": 63,
      "hit": false,
      "t": 65999.9340000001,
      "d": 385.41628125001444,
      "v": 96
    },
    {
      "midi": 60,
      "hit": false,
      "t": 65999.9340000001,
      "d": 388.8885000000155,
      "v": 85
    },
    {
      "midi": 36,
      "hit": false,
      "t": 66222.1560000001,
      "d": 243.05531250001513,
      "v": 82
    },
    {
      "midi": 55,
      "hit": false,
      "t": 66222.1560000001,
      "d": 243.05531250001513,
      "v": 96
    },
    {
      "midi": 36,
      "hit": false,
      "t": 66555.48900000016,
      "d": 107.63878125000338,
      "v": 92
    },
    {
      "midi": 53,
      "hit": false,
      "t": 66666.60000000012,
      "d": 454.8606562500063,
      "v": 75
    },
    {
      "midi": 56,
      "hit": false,
      "t": 66666.60000000012,
      "d": 541.6661250000034,
      "v": 72
    },
    {
      "midi": 61,
      "hit": false,
      "t": 66666.60000000012,
      "d": 541.6661250000034,
      "v": 72
    },
    {
      "midi": 58,
      "hit": false,
      "t": 66666.60000000012,
      "d": 576.3883125000139,
      "v": 71
    },
    {
      "midi": 34,
      "hit": false,
      "t": 66666.60000000012,
      "d": 624.999375000014,
      "v": 65
    },
    {
      "midi": 46,
      "hit": false,
      "t": 66666.60000000012,
      "d": 1152.7766250000277,
      "v": 60
    },
    {
      "midi": 34,
      "hit": false,
      "t": 66666.60000000017,
      "d": 1048.6100624999963,
      "v": 100
    },
    {
      "midi": 53,
      "hit": false,
      "t": 67222.15500000013,
      "d": 274.30528124999546,
      "v": 78
    },
    {
      "midi": 56,
      "hit": false,
      "t": 67333.26600000013,
      "d": 444.44400000000314,
      "v": 93
    },
    {
      "midi": 61,
      "hit": false,
      "t": 67333.26600000013,
      "d": 458.33287500000733,
      "v": 96
    },
    {
      "midi": 58,
      "hit": false,
      "t": 67333.26600000013,
      "d": 472.2217500000115,
      "v": 96
    },
    {
      "midi": 34,
      "hit": false,
      "t": 67555.48800000013,
      "d": 249.99975000001723,
      "v": 90
    },
    {
      "midi": 53,
      "hit": false,
      "t": 67555.48800000013,
      "d": 274.30528125002456,
      "v": 78
    },
    {
      "midi": 34,
      "hit": false,
      "t": 67888.82100000016,
      "d": 107.63878125000338,
      "v": 102
    },
    {
      "midi": 53,
      "hit": false,
      "t": 67999.93200000015,
      "d": 288.19415624999965,
      "v": 67
    },
    {
      "midi": 56,
      "hit": false,
      "t": 67999.93200000015,
      "d": 506.9439374999929,
      "v": 67
    },
    {
      "midi": 61,
      "hit": false,
      "t": 67999.93200000015,
      "d": 517.360593749996,
      "v": 70
    },
    {
      "midi": 58,
      "hit": false,
      "t": 67999.93200000015,
      "d": 538.1939062500023,
      "v": 65
    },
    {
      "midi": 51,
      "hit": false,
      "t": 67999.93200000015,
      "d": 1010.4156562499993,
      "v": 85
    },
    {
      "midi": 39,
      "hit": false,
      "t": 67999.93200000015,
      "d": 1027.7767500000045,
      "v": 50
    },
    {
      "midi": 39,
      "hit": false,
      "t": 67999.93200000016,
      "d": 329.8607812499977,
      "v": 96
    },
    {
      "midi": 39,
      "hit": false,
      "t": 68333.26500000016,
      "d": 545.1383437500044,
      "v": 102
    },
    {
      "midi": 53,
      "hit": false,
      "t": 68555.48700000015,
      "d": 152.77762500000244,
      "v": 82
    },
    {
      "midi": 56,
      "hit": false,
      "t": 68666.59800000016,
      "d": 284.72193749998405,
      "v": 100
    },
    {
      "midi": 58,
      "hit": false,
      "t": 68666.59800000016,
      "d": 312.4996874999779,
      "v": 100
    },
    {
      "midi": 61,
      "hit": false,
      "t": 68666.59800000016,
      "d": 315.97190624997893,
      "v": 96
    },
    {
      "midi": 53,
      "hit": false,
      "t": 68888.82000000015,
      "d": 104.16656249998778,
      "v": 91
    },
    {
      "midi": 44,
      "hit": false,
      "t": 68888.82000000017,
      "d": 218.74978124999325,
      "v": 116
    },
    {
      "midi": 53,
      "hit": false,
      "t": 69111.04200000015,
      "d": 104.16656250000233,
      "v": 91
    },
    {
      "midi": 41,
      "hit": false,
      "t": 69111.04200000016,
      "d": 100.69434375000128,
      "v": 96
    },
    {
      "midi": 39,
      "hit": false,
      "t": 69222.15300000017,
      "d": 100.69434375000128,
      "v": 96
    },
    {
      "midi": 56,
      "hit": false,
      "t": 69333.26400000016,
      "d": 406.24959375000617,
      "v": 88
    },
    {
      "midi": 63,
      "hit": false,
      "t": 69333.26400000016,
      "d": 517.3605937500106,
      "v": 78
    },
    {
      "midi": 60,
      "hit": false,
      "t": 69333.26400000016,
      "d": 538.1939062500169,
      "v": 82
    },
    {
      "midi": 32,
      "hit": false,
      "t": 69333.26400000016,
      "d": 857.6380312500114,
      "v": 76
    },
    {
      "midi": 44,
      "hit": false,
      "t": 69333.26400000016,
      "d": 881.9435625000187,
      "v": 77
    },
    {
      "midi": 32,
      "hit": false,
      "t": 69333.26400000017,
      "d": 1218.748781250004,
      "v": 100
    },
    {
      "midi": 56,
      "hit": false,
      "t": 69888.81900000018,
      "d": 65.97215625000536,
      "v": 78
    },
    {
      "midi": 56,
      "hit": false,
      "t": 69999.93000000018,
      "d": 27.77774999999383,
      "v": 43
    },
    {
      "midi": 60,
      "hit": false,
      "t": 69999.93000000018,
      "d": 211.80534374999115,
      "v": 85
    },
    {
      "midi": 63,
      "hit": false,
      "t": 69999.93000000018,
      "d": 225.69421874999534,
      "v": 96
    },
    {
      "midi": 56,
      "hit": false,
      "t": 70222.15200000018,
      "d": 97.22212500000023,
      "v": 96
    },
    {
      "midi": 32,
      "hit": false,
      "t": 70555.48500000018,
      "d": 107.63878125000338,
      "v": 93
    },
    {
      "midi": 36,
      "hit": false,
      "t": 70666.59600000018,
      "d": 329.8607812499977,
      "v": 100
    },
    {
      "midi": 55,
      "hit": false,
      "t": 70666.59600000018,
      "d": 409.7218125000072,
      "v": 73
    },
    {
      "midi": 58,
      "hit": false,
      "t": 70666.59600000018,
      "d": 503.4717187500064,
      "v": 66
    },
    {
      "midi": 63,
      "hit": false,
      "t": 70666.59600000018,
      "d": 517.3605937500106,
      "v": 61
    },
    {
      "midi": 60,
      "hit": false,
      "t": 70666.59600000018,
      "d": 531.2494687500148,
      "v": 69
    },
    {
      "midi": 36,
      "hit": false,
      "t": 70666.59600000018,
      "d": 552.0827812500211,
      "v": 78
    },
    {
      "midi": 48,
      "hit": false,
      "t": 70666.59600000018,
      "d": 1111.1100000000442,
      "v": 71
    },
    {
      "midi": 36,
      "hit": false,
      "t": 70999.92900000018,
      "d": 711.8048437499965,
      "v": 95
    },
    {
      "midi": 55,
      "hit": false,
      "t": 71222.1510000002,
      "d": 218.7497812500078,
      "v": 75
    },
    {
      "midi": 58,
      "hit": false,
      "t": 71333.2620000002,
      "d": 378.47184375001234,
      "v": 85
    },
    {
      "midi": 63,
      "hit": false,
      "t": 71333.2620000002,
      "d": 385.41628125001444,
      "v": 96
    },
    {
      "midi": 60,
      "hit": false,
      "t": 71333.2620000002,
      "d": 388.8885000000155,
      "v": 85
    },
    {
      "midi": 36,
      "hit": false,
      "t": 71555.48400000022,
      "d": 243.05531250001513,
      "v": 82
    },
    {
      "midi": 55,
      "hit": false,
      "t": 71555.48400000022,
      "d": 243.05531250001513,
      "v": 96
    },
    {
      "midi": 36,
      "hit": false,
      "t": 71888.81700000017,
      "d": 107.63878125000338,
      "v": 92
    },
    {
      "midi": 34,
      "hit": false,
      "t": 71999.92800000017,
      "d": 1048.6100624999963,
      "v": 100
    },
    {
      "midi": 53,
      "hit": false,
      "t": 71999.92800000023,
      "d": 454.8606562500063,
      "v": 75
    },
    {
      "midi": 56,
      "hit": false,
      "t": 71999.92800000023,
      "d": 541.6661250000034,
      "v": 72
    },
    {
      "midi": 61,
      "hit": false,
      "t": 71999.92800000023,
      "d": 541.6661250000034,
      "v": 72
    },
    {
      "midi": 58,
      "hit": false,
      "t": 71999.92800000023,
      "d": 576.3883125000139,
      "v": 71
    },
    {
      "midi": 34,
      "hit": false,
      "t": 71999.92800000023,
      "d": 624.999375000014,
      "v": 65
    },
    {
      "midi": 46,
      "hit": false,
      "t": 71999.92800000023,
      "d": 1152.7766250000277,
      "v": 60
    },
    {
      "midi": 53,
      "hit": false,
      "t": 72555.48300000024,
      "d": 274.30528124999546,
      "v": 78
    },
    {
      "midi": 56,
      "hit": false,
      "t": 72666.59400000024,
      "d": 444.44400000000314,
      "v": 93
    },
    {
      "midi": 61,
      "hit": false,
      "t": 72666.59400000024,
      "d": 458.33287500000733,
      "v": 96
    },
    {
      "midi": 58,
      "hit": false,
      "t": 72666.59400000024,
      "d": 472.2217500000115,
      "v": 96
    },
    {
      "midi": 34,
      "hit": false,
      "t": 72888.81600000024,
      "d": 249.99975000001723,
      "v": 90
    },
    {
      "midi": 53,
      "hit": false,
      "t": 72888.81600000024,
      "d": 274.30528125002456,
      "v": 78
    },
    {
      "midi": 34,
      "hit": false,
      "t": 73222.14900000016,
      "d": 107.63878125000338,
      "v": 102
    },
    {
      "midi": 39,
      "hit": false,
      "t": 73333.26000000017,
      "d": 329.8607812499977,
      "v": 96
    },
    {
      "midi": 53,
      "hit": false,
      "t": 73333.26000000026,
      "d": 288.19415624999965,
      "v": 67
    },
    {
      "midi": 56,
      "hit": false,
      "t": 73333.26000000026,
      "d": 506.9439374999929,
      "v": 67
    },
    {
      "midi": 61,
      "hit": false,
      "t": 73333.26000000026,
      "d": 517.360593749996,
      "v": 70
    },
    {
      "midi": 58,
      "hit": false,
      "t": 73333.26000000026,
      "d": 538.1939062500023,
      "v": 65
    },
    {
      "midi": 51,
      "hit": false,
      "t": 73333.26000000026,
      "d": 1010.4156562499993,
      "v": 85
    },
    {
      "midi": 39,
      "hit": false,
      "t": 73333.26000000026,
      "d": 1027.7767500000045,
      "v": 50
    },
    {
      "midi": 39,
      "hit": false,
      "t": 73666.59300000017,
      "d": 545.1383437500044,
      "v": 102
    },
    {
      "midi": 53,
      "hit": false,
      "t": 73888.81500000026,
      "d": 152.77762500000244,
      "v": 82
    },
    {
      "midi": 56,
      "hit": false,
      "t": 73999.92600000027,
      "d": 284.72193749998405,
      "v": 100
    },
    {
      "midi": 58,
      "hit": false,
      "t": 73999.92600000027,
      "d": 312.4996874999779,
      "v": 100
    },
    {
      "midi": 61,
      "hit": false,
      "t": 73999.92600000027,
      "d": 315.97190624997893,
      "v": 96
    },
    {
      "midi": 44,
      "hit": false,
      "t": 74222.14800000018,
      "d": 218.74978124999325,
      "v": 116
    },
    {
      "midi": 53,
      "hit": false,
      "t": 74222.14800000026,
      "d": 104.16656249998778,
      "v": 91
    },
    {
      "midi": 41,
      "hit": false,
      "t": 74444.37000000017,
      "d": 100.69434375000128,
      "v": 96
    },
    {
      "midi": 53,
      "hit": false,
      "t": 74444.37000000026,
      "d": 104.16656250000233,
      "v": 91
    },
    {
      "midi": 39,
      "hit": false,
      "t": 74555.48100000017,
      "d": 100.69434375000128,
      "v": 96
    },
    {
      "midi": 32,
      "hit": false,
      "t": 74666.59200000018,
      "d": 1218.748781250004,
      "v": 100
    },
    {
      "midi": 56,
      "hit": false,
      "t": 74666.59200000027,
      "d": 406.24959375000617,
      "v": 88
    },
    {
      "midi": 63,
      "hit": false,
      "t": 74666.59200000027,
      "d": 517.3605937500106,
      "v": 78
    },
    {
      "midi": 60,
      "hit": false,
      "t": 74666.59200000027,
      "d": 538.1939062500169,
      "v": 82
    },
    {
      "midi": 32,
      "hit": false,
      "t": 74666.59200000027,
      "d": 857.6380312500114,
      "v": 76
    },
    {
      "midi": 44,
      "hit": false,
      "t": 74666.59200000027,
      "d": 881.9435625000187,
      "v": 77
    },
    {
      "midi": 56,
      "hit": false,
      "t": 75222.14700000029,
      "d": 65.97215625000536,
      "v": 78
    },
    {
      "midi": 56,
      "hit": false,
      "t": 75333.25800000029,
      "d": 27.77774999999383,
      "v": 43
    },
    {
      "midi": 60,
      "hit": false,
      "t": 75333.25800000029,
      "d": 211.80534374999115,
      "v": 85
    },
    {
      "midi": 63,
      "hit": false,
      "t": 75333.25800000029,
      "d": 225.69421874999534,
      "v": 96
    },
    {
      "midi": 56,
      "hit": false,
      "t": 75555.48000000029,
      "d": 97.22212500000023,
      "v": 96
    },
    {
      "midi": 32,
      "hit": false,
      "t": 75888.81300000018,
      "d": 107.63878125000338,
      "v": 93
    },
    {
      "midi": 36,
      "hit": false,
      "t": 75999.92400000019,
      "d": 329.8607812499977,
      "v": 100
    },
    {
      "midi": 55,
      "hit": false,
      "t": 75999.92400000028,
      "d": 409.7218125000072,
      "v": 73
    },
    {
      "midi": 58,
      "hit": false,
      "t": 75999.92400000028,
      "d": 503.4717187500064,
      "v": 66
    },
    {
      "midi": 63,
      "hit": false,
      "t": 75999.92400000028,
      "d": 517.3605937500106,
      "v": 61
    },
    {
      "midi": 60,
      "hit": false,
      "t": 75999.92400000028,
      "d": 531.2494687500148,
      "v": 69
    },
    {
      "midi": 36,
      "hit": false,
      "t": 75999.92400000028,
      "d": 552.0827812500211,
      "v": 78
    },
    {
      "midi": 48,
      "hit": false,
      "t": 75999.92400000028,
      "d": 1111.1100000000442,
      "v": 71
    },
    {
      "midi": 36,
      "hit": false,
      "t": 76333.25700000019,
      "d": 711.8048437499965,
      "v": 95
    },
    {
      "midi": 55,
      "hit": false,
      "t": 76555.4790000003,
      "d": 218.7497812500078,
      "v": 75
    },
    {
      "midi": 58,
      "hit": false,
      "t": 76666.5900000003,
      "d": 378.47184375001234,
      "v": 85
    },
    {
      "midi": 63,
      "hit": false,
      "t": 76666.5900000003,
      "d": 385.41628125001444,
      "v": 96
    },
    {
      "midi": 60,
      "hit": false,
      "t": 76666.5900000003,
      "d": 388.8885000000155,
      "v": 85
    },
    {
      "midi": 36,
      "hit": false,
      "t": 76888.81200000031,
      "d": 243.05531250001513,
      "v": 82
    },
    {
      "midi": 55,
      "hit": false,
      "t": 76888.81200000031,
      "d": 243.05531250001513,
      "v": 96
    },
    {
      "midi": 36,
      "hit": false,
      "t": 77222.14500000018,
      "d": 107.63878125000338,
      "v": 92
    },
    {
      "midi": 34,
      "hit": false,
      "t": 77333.25600000018,
      "d": 1048.6100624999963,
      "v": 100
    },
    {
      "midi": 53,
      "hit": false,
      "t": 77333.25600000033,
      "d": 454.8606562500063,
      "v": 75
    },
    {
      "midi": 56,
      "hit": false,
      "t": 77333.25600000033,
      "d": 541.6661250000034,
      "v": 72
    },
    {
      "midi": 61,
      "hit": false,
      "t": 77333.25600000033,
      "d": 541.6661250000034,
      "v": 72
    },
    {
      "midi": 58,
      "hit": false,
      "t": 77333.25600000033,
      "d": 576.3883125000139,
      "v": 71
    },
    {
      "midi": 34,
      "hit": false,
      "t": 77333.25600000033,
      "d": 624.999375000014,
      "v": 65
    },
    {
      "midi": 46,
      "hit": false,
      "t": 77333.25600000033,
      "d": 1152.7766250000277,
      "v": 60
    },
    {
      "midi": 53,
      "hit": false,
      "t": 77888.81100000034,
      "d": 274.30528124999546,
      "v": 78
    },
    {
      "midi": 56,
      "hit": false,
      "t": 77999.92200000034,
      "d": 444.44400000000314,
      "v": 93
    },
    {
      "midi": 61,
      "hit": false,
      "t": 77999.92200000034,
      "d": 458.33287500000733,
      "v": 96
    },
    {
      "midi": 58,
      "hit": false,
      "t": 77999.92200000034,
      "d": 472.2217500000115,
      "v": 96
    },
    {
      "midi": 34,
      "hit": false,
      "t": 78222.14400000033,
      "d": 249.99975000001723,
      "v": 90
    },
    {
      "midi": 53,
      "hit": false,
      "t": 78222.14400000033,
      "d": 274.30528125002456,
      "v": 78
    },
    {
      "midi": 34,
      "hit": false,
      "t": 78555.47700000017,
      "d": 107.63878125000338,
      "v": 102
    },
    {
      "midi": 39,
      "hit": false,
      "t": 78666.58800000018,
      "d": 329.8607812499977,
      "v": 96
    },
    {
      "midi": 53,
      "hit": false,
      "t": 78666.58800000035,
      "d": 288.19415624999965,
      "v": 67
    },
    {
      "midi": 56,
      "hit": false,
      "t": 78666.58800000035,
      "d": 506.9439374999929,
      "v": 67
    },
    {
      "midi": 61,
      "hit": false,
      "t": 78666.58800000035,
      "d": 517.360593749996,
      "v": 70
    },
    {
      "midi": 58,
      "hit": false,
      "t": 78666.58800000035,
      "d": 538.1939062500023,
      "v": 65
    },
    {
      "midi": 51,
      "hit": false,
      "t": 78666.58800000035,
      "d": 1010.4156562499993,
      "v": 85
    },
    {
      "midi": 39,
      "hit": false,
      "t": 78666.58800000035,
      "d": 1027.7767500000045,
      "v": 50
    },
    {
      "midi": 39,
      "hit": false,
      "t": 78999.92100000018,
      "d": 545.1383437500044,
      "v": 102
    },
    {
      "midi": 53,
      "hit": false,
      "t": 79222.14300000036,
      "d": 152.77762500000244,
      "v": 82
    },
    {
      "midi": 56,
      "hit": false,
      "t": 79333.25400000036,
      "d": 284.72193749998405,
      "v": 100
    },
    {
      "midi": 58,
      "hit": false,
      "t": 79333.25400000036,
      "d": 312.4996874999779,
      "v": 100
    },
    {
      "midi": 61,
      "hit": false,
      "t": 79333.25400000036,
      "d": 315.97190624997893,
      "v": 96
    },
    {
      "midi": 44,
      "hit": false,
      "t": 79555.47600000018,
      "d": 218.74978124999325,
      "v": 116
    },
    {
      "midi": 53,
      "hit": false,
      "t": 79555.47600000036,
      "d": 104.16656249998778,
      "v": 91
    },
    {
      "midi": 41,
      "hit": false,
      "t": 79777.69800000018,
      "d": 100.69434375000128,
      "v": 96
    },
    {
      "midi": 53,
      "hit": false,
      "t": 79777.69800000035,
      "d": 104.16656250000233,
      "v": 91
    },
    {
      "midi": 39,
      "hit": false,
      "t": 79888.80900000018,
      "d": 100.69434375000128,
      "v": 96
    },
    {
      "midi": 32,
      "hit": false,
      "t": 79999.92000000019,
      "d": 1218.748781250004,
      "v": 100
    },
    {
      "midi": 56,
      "hit": false,
      "t": 79999.92000000036,
      "d": 406.24959375000617,
      "v": 88
    },
    {
      "midi": 63,
      "hit": false,
      "t": 79999.92000000036,
      "d": 517.3605937500106,
      "v": 78
    },
    {
      "midi": 60,
      "hit": false,
      "t": 79999.92000000036,
      "d": 538.1939062500169,
      "v": 82
    },
    {
      "midi": 32,
      "hit": false,
      "t": 79999.92000000036,
      "d": 857.6380312500114,
      "v": 76
    },
    {
      "midi": 44,
      "hit": false,
      "t": 79999.92000000036,
      "d": 881.9435625000187,
      "v": 77
    },
    {
      "midi": 56,
      "hit": false,
      "t": 80555.47500000038,
      "d": 65.97215625000536,
      "v": 78
    },
    {
      "midi": 56,
      "hit": false,
      "t": 80666.58600000039,
      "d": 27.77774999999383,
      "v": 43
    },
    {
      "midi": 60,
      "hit": false,
      "t": 80666.58600000039,
      "d": 211.80534374999115,
      "v": 85
    },
    {
      "midi": 63,
      "hit": false,
      "t": 80666.58600000039,
      "d": 225.69421874999534,
      "v": 96
    },
    {
      "midi": 56,
      "hit": false,
      "t": 80888.80800000038,
      "d": 97.22212500000023,
      "v": 96
    },
    {
      "midi": 32,
      "hit": false,
      "t": 81222.14100000019,
      "d": 107.63878125000338,
      "v": 93
    },
    {
      "midi": 36,
      "hit": false,
      "t": 81333.2520000002,
      "d": 329.8607812499977,
      "v": 100
    },
    {
      "midi": 55,
      "hit": false,
      "t": 81333.25200000039,
      "d": 409.7218125000072,
      "v": 73
    },
    {
      "midi": 58,
      "hit": false,
      "t": 81333.25200000039,
      "d": 503.4717187500064,
      "v": 66
    },
    {
      "midi": 63,
      "hit": false,
      "t": 81333.25200000039,
      "d": 517.3605937500106,
      "v": 61
    },
    {
      "midi": 60,
      "hit": false,
      "t": 81333.25200000039,
      "d": 531.2494687500148,
      "v": 69
    },
    {
      "midi": 36,
      "hit": false,
      "t": 81333.25200000039,
      "d": 552.0827812500211,
      "v": 78
    },
    {
      "midi": 48,
      "hit": false,
      "t": 81333.25200000039,
      "d": 1111.1100000000442,
      "v": 71
    },
    {
      "midi": 36,
      "hit": false,
      "t": 81666.5850000002,
      "d": 711.8048437499965,
      "v": 95
    },
    {
      "midi": 55,
      "hit": false,
      "t": 81888.80700000041,
      "d": 218.7497812500078,
      "v": 75
    },
    {
      "midi": 58,
      "hit": false,
      "t": 81999.91800000041,
      "d": 378.47184375001234,
      "v": 85
    },
    {
      "midi": 63,
      "hit": false,
      "t": 81999.91800000041,
      "d": 385.41628125001444,
      "v": 96
    },
    {
      "midi": 60,
      "hit": false,
      "t": 81999.91800000041,
      "d": 388.8885000000155,
      "v": 85
    },
    {
      "midi": 36,
      "hit": false,
      "t": 82222.14000000042,
      "d": 243.05531250001513,
      "v": 82
    },
    {
      "midi": 55,
      "hit": false,
      "t": 82222.14000000042,
      "d": 243.05531250001513,
      "v": 96
    },
    {
      "midi": 36,
      "hit": false,
      "t": 82555.47300000019,
      "d": 107.63878125000338,
      "v": 92
    },
    {
      "midi": 34,
      "hit": false,
      "t": 82666.58400000019,
      "d": 1048.6100624999963,
      "v": 100
    },
    {
      "midi": 53,
      "hit": false,
      "t": 82666.58400000044,
      "d": 454.8606562500063,
      "v": 75
    },
    {
      "midi": 56,
      "hit": false,
      "t": 82666.58400000044,
      "d": 541.6661250000034,
      "v": 72
    },
    {
      "midi": 61,
      "hit": false,
      "t": 82666.58400000044,
      "d": 541.6661250000034,
      "v": 72
    },
    {
      "midi": 58,
      "hit": false,
      "t": 82666.58400000044,
      "d": 576.3883125000139,
      "v": 71
    },
    {
      "midi": 34,
      "hit": false,
      "t": 82666.58400000044,
      "d": 624.999375000014,
      "v": 65
    },
    {
      "midi": 46,
      "hit": false,
      "t": 82666.58400000044,
      "d": 1152.7766250000277,
      "v": 60
    },
    {
      "midi": 53,
      "hit": false,
      "t": 83222.13900000045,
      "d": 274.30528124999546,
      "v": 78
    },
    {
      "midi": 56,
      "hit": false,
      "t": 83333.25000000045,
      "d": 444.44400000000314,
      "v": 93
    },
    {
      "midi": 61,
      "hit": false,
      "t": 83333.25000000045,
      "d": 458.33287500000733,
      "v": 96
    },
    {
      "midi": 58,
      "hit": false,
      "t": 83333.25000000045,
      "d": 472.2217500000115,
      "v": 96
    },
    {
      "midi": 34,
      "hit": false,
      "t": 83555.47200000045,
      "d": 249.99975000001723,
      "v": 90
    },
    {
      "midi": 53,
      "hit": false,
      "t": 83555.47200000045,
      "d": 274.30528125002456,
      "v": 78
    },
    {
      "midi": 34,
      "hit": false,
      "t": 83888.80500000018,
      "d": 107.63878125000338,
      "v": 102
    },
    {
      "midi": 39,
      "hit": false,
      "t": 83999.91600000019,
      "d": 329.8607812499977,
      "v": 96
    },
    {
      "midi": 53,
      "hit": false,
      "t": 83999.91600000046,
      "d": 288.19415624999965,
      "v": 67
    },
    {
      "midi": 56,
      "hit": false,
      "t": 83999.91600000046,
      "d": 506.9439374999929,
      "v": 67
    },
    {
      "midi": 61,
      "hit": false,
      "t": 83999.91600000046,
      "d": 517.360593749996,
      "v": 70
    },
    {
      "midi": 58,
      "hit": false,
      "t": 83999.91600000046,
      "d": 538.1939062500023,
      "v": 65
    },
    {
      "midi": 51,
      "hit": false,
      "t": 83999.91600000046,
      "d": 1010.4156562499993,
      "v": 85
    },
    {
      "midi": 39,
      "hit": false,
      "t": 83999.91600000046,
      "d": 1027.7767500000045,
      "v": 50
    },
    {
      "midi": 39,
      "hit": false,
      "t": 84333.24900000019,
      "d": 545.1383437500044,
      "v": 102
    },
    {
      "midi": 53,
      "hit": false,
      "t": 84555.47100000047,
      "d": 152.77762500000244,
      "v": 82
    },
    {
      "midi": 56,
      "hit": false,
      "t": 84666.58200000048,
      "d": 284.72193749998405,
      "v": 100
    },
    {
      "midi": 58,
      "hit": false,
      "t": 84666.58200000048,
      "d": 312.4996874999779,
      "v": 100
    },
    {
      "midi": 61,
      "hit": false,
      "t": 84666.58200000048,
      "d": 315.97190624997893,
      "v": 96
    },
    {
      "midi": 44,
      "hit": false,
      "t": 84888.8040000002,
      "d": 218.74978124999325,
      "v": 116
    },
    {
      "midi": 53,
      "hit": false,
      "t": 84888.80400000047,
      "d": 104.16656249998778,
      "v": 91
    },
    {
      "midi": 41,
      "hit": false,
      "t": 85111.02600000019,
      "d": 100.69434375000128,
      "v": 96
    },
    {
      "midi": 53,
      "hit": false,
      "t": 85111.02600000046,
      "d": 104.16656250000233,
      "v": 91
    },
    {
      "midi": 39,
      "hit": false,
      "t": 85222.13700000019,
      "d": 100.69434375000128,
      "v": 96
    },
    {
      "midi": 32,
      "hit": false,
      "t": 85333.2480000002,
      "d": 1218.748781250004,
      "v": 100
    },
    {
      "midi": 56,
      "hit": false,
      "t": 85333.24800000047,
      "d": 406.24959375000617,
      "v": 88
    },
    {
      "midi": 63,
      "hit": false,
      "t": 85333.24800000047,
      "d": 517.3605937500106,
      "v": 78
    },
    {
      "midi": 60,
      "hit": false,
      "t": 85333.24800000047,
      "d": 538.1939062500169,
      "v": 82
    },
    {
      "midi": 32,
      "hit": false,
      "t": 85333.24800000047,
      "d": 857.6380312500114,
      "v": 76
    },
    {
      "midi": 44,
      "hit": false,
      "t": 85333.24800000047,
      "d": 881.9435625000187,
      "v": 77
    },
    {
      "midi": 56,
      "hit": false,
      "t": 85888.8030000005,
      "d": 65.97215625000536,
      "v": 78
    },
    {
      "midi": 56,
      "hit": false,
      "t": 85999.9140000005,
      "d": 27.77774999999383,
      "v": 43
    },
    {
      "midi": 60,
      "hit": false,
      "t": 85999.9140000005,
      "d": 211.80534374999115,
      "v": 85
    },
    {
      "midi": 63,
      "hit": false,
      "t": 85999.9140000005,
      "d": 225.69421874999534,
      "v": 96
    },
    {
      "midi": 56,
      "hit": false,
      "t": 86222.1360000005,
      "d": 97.22212500000023,
      "v": 96
    },
    {
      "midi": 32,
      "hit": false,
      "t": 86555.4690000002,
      "d": 107.63878125000338,
      "v": 93
    },
    {
      "midi": 36,
      "hit": false,
      "t": 86666.5800000002,
      "d": 329.8607812499977,
      "v": 100
    },
    {
      "midi": 55,
      "hit": false,
      "t": 86666.58000000048,
      "d": 409.7218125000072,
      "v": 73
    },
    {
      "midi": 58,
      "hit": false,
      "t": 86666.58000000048,
      "d": 503.4717187500064,
      "v": 66
    },
    {
      "midi": 63,
      "hit": false,
      "t": 86666.58000000048,
      "d": 517.3605937500106,
      "v": 61
    },
    {
      "midi": 60,
      "hit": false,
      "t": 86666.58000000048,
      "d": 531.2494687500148,
      "v": 69
    },
    {
      "midi": 36,
      "hit": false,
      "t": 86666.58000000048,
      "d": 552.0827812500211,
      "v": 78
    },
    {
      "midi": 48,
      "hit": false,
      "t": 86666.58000000048,
      "d": 1111.1100000000442,
      "v": 71
    },
    {
      "midi": 36,
      "hit": false,
      "t": 86999.9130000002,
      "d": 711.8048437499965,
      "v": 95
    },
    {
      "midi": 55,
      "hit": false,
      "t": 87222.1350000005,
      "d": 218.7497812500078,
      "v": 75
    },
    {
      "midi": 58,
      "hit": false,
      "t": 87333.24600000051,
      "d": 378.47184375001234,
      "v": 85
    },
    {
      "midi": 63,
      "hit": false,
      "t": 87333.24600000051,
      "d": 385.41628125001444,
      "v": 96
    },
    {
      "midi": 60,
      "hit": false,
      "t": 87333.24600000051,
      "d": 388.8885000000155,
      "v": 85
    },
    {
      "midi": 36,
      "hit": false,
      "t": 87555.46800000052,
      "d": 243.05531250001513,
      "v": 82
    },
    {
      "midi": 55,
      "hit": false,
      "t": 87555.46800000052,
      "d": 243.05531250001513,
      "v": 96
    },
    {
      "midi": 36,
      "hit": false,
      "t": 87888.8010000002,
      "d": 107.63878125000338,
      "v": 92
    },
    {
      "midi": 34,
      "hit": false,
      "t": 87999.9120000002,
      "d": 1048.6100624999963,
      "v": 100
    },
    {
      "midi": 53,
      "hit": false,
      "t": 87999.91200000054,
      "d": 454.8606562500063,
      "v": 75
    },
    {
      "midi": 56,
      "hit": false,
      "t": 87999.91200000054,
      "d": 541.6661250000034,
      "v": 72
    },
    {
      "midi": 61,
      "hit": false,
      "t": 87999.91200000054,
      "d": 541.6661250000034,
      "v": 72
    },
    {
      "midi": 58,
      "hit": false,
      "t": 87999.91200000054,
      "d": 576.3883125000139,
      "v": 71
    },
    {
      "midi": 34,
      "hit": false,
      "t": 87999.91200000054,
      "d": 624.999375000014,
      "v": 65
    },
    {
      "midi": 46,
      "hit": false,
      "t": 87999.91200000054,
      "d": 1152.7766250000277,
      "v": 60
    },
    {
      "midi": 53,
      "hit": false,
      "t": 88555.46700000054,
      "d": 274.30528124999546,
      "v": 78
    },
    {
      "midi": 56,
      "hit": false,
      "t": 88666.57800000055,
      "d": 444.44400000000314,
      "v": 93
    },
    {
      "midi": 61,
      "hit": false,
      "t": 88666.57800000055,
      "d": 458.33287500000733,
      "v": 96
    },
    {
      "midi": 58,
      "hit": false,
      "t": 88666.57800000055,
      "d": 472.2217500000115,
      "v": 96
    },
    {
      "midi": 34,
      "hit": false,
      "t": 88888.80000000054,
      "d": 249.99975000001723,
      "v": 90
    },
    {
      "midi": 53,
      "hit": false,
      "t": 88888.80000000054,
      "d": 274.30528125002456,
      "v": 78
    },
    {
      "midi": 34,
      "hit": false,
      "t": 89222.13300000019,
      "d": 107.63878125000338,
      "v": 102
    },
    {
      "midi": 39,
      "hit": false,
      "t": 89333.2440000002,
      "d": 329.8607812499977,
      "v": 96
    },
    {
      "midi": 53,
      "hit": false,
      "t": 89333.24400000056,
      "d": 288.19415624999965,
      "v": 67
    },
    {
      "midi": 56,
      "hit": false,
      "t": 89333.24400000056,
      "d": 506.9439374999929,
      "v": 67
    },
    {
      "midi": 61,
      "hit": false,
      "t": 89333.24400000056,
      "d": 517.360593749996,
      "v": 70
    },
    {
      "midi": 58,
      "hit": false,
      "t": 89333.24400000056,
      "d": 538.1939062500023,
      "v": 65
    },
    {
      "midi": 51,
      "hit": false,
      "t": 89333.24400000056,
      "d": 1010.4156562499993,
      "v": 85
    },
    {
      "midi": 39,
      "hit": false,
      "t": 89333.24400000056,
      "d": 1027.7767500000045,
      "v": 50
    },
    {
      "midi": 39,
      "hit": false,
      "t": 89666.5770000002,
      "d": 545.1383437500044,
      "v": 102
    },
    {
      "midi": 53,
      "hit": false,
      "t": 89888.79900000057,
      "d": 152.77762500000244,
      "v": 82
    },
    {
      "midi": 56,
      "hit": false,
      "t": 89999.91000000057,
      "d": 284.72193749998405,
      "v": 100
    },
    {
      "midi": 58,
      "hit": false,
      "t": 89999.91000000057,
      "d": 312.4996874999779,
      "v": 100
    },
    {
      "midi": 61,
      "hit": false,
      "t": 89999.91000000057,
      "d": 315.97190624997893,
      "v": 96
    },
    {
      "midi": 44,
      "hit": false,
      "t": 90222.1320000002,
      "d": 218.74978124999325,
      "v": 116
    },
    {
      "midi": 53,
      "hit": false,
      "t": 90222.13200000057,
      "d": 104.16656249998778,
      "v": 91
    },
    {
      "midi": 41,
      "hit": false,
      "t": 90444.3540000002,
      "d": 100.69434375000128,
      "v": 96
    },
    {
      "midi": 53,
      "hit": false,
      "t": 90444.35400000056,
      "d": 104.16656250000233,
      "v": 91
    },
    {
      "midi": 39,
      "hit": false,
      "t": 90555.4650000002,
      "d": 100.69434375000128,
      "v": 96
    },
    {
      "midi": 32,
      "hit": false,
      "t": 90666.5760000002,
      "d": 1218.748781250004,
      "v": 100
    },
    {
      "midi": 56,
      "hit": false,
      "t": 90666.57600000057,
      "d": 406.24959375000617,
      "v": 88
    },
    {
      "midi": 63,
      "hit": false,
      "t": 90666.57600000057,
      "d": 517.3605937500106,
      "v": 78
    },
    {
      "midi": 60,
      "hit": false,
      "t": 90666.57600000057,
      "d": 538.1939062500169,
      "v": 82
    },
    {
      "midi": 32,
      "hit": false,
      "t": 90666.57600000057,
      "d": 857.6380312500114,
      "v": 76
    },
    {
      "midi": 44,
      "hit": false,
      "t": 90666.57600000057,
      "d": 881.9435625000187,
      "v": 77
    },
    {
      "midi": 56,
      "hit": false,
      "t": 91222.13100000059,
      "d": 65.97215625000536,
      "v": 78
    },
    {
      "midi": 56,
      "hit": false,
      "t": 91333.2420000006,
      "d": 27.77774999999383,
      "v": 43
    },
    {
      "midi": 60,
      "hit": false,
      "t": 91333.2420000006,
      "d": 211.80534374999115,
      "v": 85
    },
    {
      "midi": 63,
      "hit": false,
      "t": 91333.2420000006,
      "d": 225.69421874999534,
      "v": 96
    },
    {
      "midi": 56,
      "hit": false,
      "t": 91555.46400000059,
      "d": 97.22212500000023,
      "v": 96
    },
    {
      "midi": 32,
      "hit": false,
      "t": 91888.79700000021,
      "d": 107.63878125000338,
      "v": 93
    },
    {
      "midi": 36,
      "hit": false,
      "t": 91999.90800000021,
      "d": 329.8607812499977,
      "v": 100
    },
    {
      "midi": 55,
      "hit": false,
      "t": 91999.90800000059,
      "d": 409.7218125000072,
      "v": 73
    },
    {
      "midi": 58,
      "hit": false,
      "t": 91999.90800000059,
      "d": 503.4717187500064,
      "v": 66
    },
    {
      "midi": 63,
      "hit": false,
      "t": 91999.90800000059,
      "d": 517.3605937500106,
      "v": 61
    },
    {
      "midi": 60,
      "hit": false,
      "t": 91999.90800000059,
      "d": 531.2494687500148,
      "v": 69
    },
    {
      "midi": 36,
      "hit": false,
      "t": 91999.90800000059,
      "d": 552.0827812500211,
      "v": 78
    },
    {
      "midi": 48,
      "hit": false,
      "t": 91999.90800000059,
      "d": 1111.1100000000442,
      "v": 71
    },
    {
      "midi": 36,
      "hit": false,
      "t": 92333.24100000021,
      "d": 711.8048437499965,
      "v": 95
    },
    {
      "midi": 55,
      "hit": false,
      "t": 92555.46300000061,
      "d": 218.7497812500078,
      "v": 75
    },
    {
      "midi": 58,
      "hit": false,
      "t": 92666.57400000062,
      "d": 378.47184375001234,
      "v": 85
    },
    {
      "midi": 63,
      "hit": false,
      "t": 92666.57400000062,
      "d": 385.41628125001444,
      "v": 96
    },
    {
      "midi": 60,
      "hit": false,
      "t": 92666.57400000062,
      "d": 388.8885000000155,
      "v": 85
    },
    {
      "midi": 36,
      "hit": false,
      "t": 92888.79600000063,
      "d": 243.05531250001513,
      "v": 82
    },
    {
      "midi": 55,
      "hit": false,
      "t": 92888.79600000063,
      "d": 243.05531250001513,
      "v": 96
    },
    {
      "midi": 36,
      "hit": false,
      "t": 93222.1290000002,
      "d": 107.63878125000338,
      "v": 92
    },
    {
      "midi": 34,
      "hit": false,
      "t": 93333.24000000021,
      "d": 1048.6100624999963,
      "v": 100
    },
    {
      "midi": 53,
      "hit": false,
      "t": 93333.24000000065,
      "d": 454.8606562500063,
      "v": 75
    },
    {
      "midi": 56,
      "hit": false,
      "t": 93333.24000000065,
      "d": 541.6661250000034,
      "v": 72
    },
    {
      "midi": 61,
      "hit": false,
      "t": 93333.24000000065,
      "d": 541.6661250000034,
      "v": 72
    },
    {
      "midi": 58,
      "hit": false,
      "t": 93333.24000000065,
      "d": 576.3883125000139,
      "v": 71
    },
    {
      "midi": 34,
      "hit": false,
      "t": 93333.24000000065,
      "d": 624.999375000014,
      "v": 65
    },
    {
      "midi": 46,
      "hit": false,
      "t": 93333.24000000065,
      "d": 1152.7766250000277,
      "v": 60
    },
    {
      "midi": 53,
      "hit": false,
      "t": 93888.79500000065,
      "d": 274.30528124999546,
      "v": 78
    },
    {
      "midi": 56,
      "hit": false,
      "t": 93999.90600000066,
      "d": 444.44400000000314,
      "v": 93
    },
    {
      "midi": 61,
      "hit": false,
      "t": 93999.90600000066,
      "d": 458.33287500000733,
      "v": 96
    },
    {
      "midi": 58,
      "hit": false,
      "t": 93999.90600000066,
      "d": 472.2217500000115,
      "v": 96
    },
    {
      "midi": 34,
      "hit": false,
      "t": 94222.12800000065,
      "d": 249.99975000001723,
      "v": 90
    },
    {
      "midi": 53,
      "hit": false,
      "t": 94222.12800000065,
      "d": 274.30528125002456,
      "v": 78
    },
    {
      "midi": 34,
      "hit": false,
      "t": 94555.4610000002,
      "d": 107.63878125000338,
      "v": 102
    },
    {
      "midi": 39,
      "hit": false,
      "t": 94666.5720000002,
      "d": 329.8607812499977,
      "v": 96
    },
    {
      "midi": 53,
      "hit": false,
      "t": 94666.57200000067,
      "d": 288.19415624999965,
      "v": 67
    },
    {
      "midi": 56,
      "hit": false,
      "t": 94666.57200000067,
      "d": 506.9439374999929,
      "v": 67
    },
    {
      "midi": 61,
      "hit": false,
      "t": 94666.57200000067,
      "d": 517.360593749996,
      "v": 70
    },
    {
      "midi": 58,
      "hit": false,
      "t": 94666.57200000067,
      "d": 538.1939062500023,
      "v": 65
    },
    {
      "midi": 51,
      "hit": false,
      "t": 94666.57200000067,
      "d": 1010.4156562499993,
      "v": 85
    },
    {
      "midi": 39,
      "hit": false,
      "t": 94666.57200000067,
      "d": 1027.7767500000045,
      "v": 50
    },
    {
      "midi": 39,
      "hit": false,
      "t": 94999.9050000002,
      "d": 545.1383437500044,
      "v": 102
    },
    {
      "midi": 53,
      "hit": false,
      "t": 95222.12700000068,
      "d": 152.77762500000244,
      "v": 82
    },
    {
      "midi": 56,
      "hit": false,
      "t": 95333.23800000068,
      "d": 284.72193749998405,
      "v": 100
    },
    {
      "midi": 58,
      "hit": false,
      "t": 95333.23800000068,
      "d": 312.4996874999779,
      "v": 100
    },
    {
      "midi": 61,
      "hit": false,
      "t": 95333.23800000068,
      "d": 315.97190624997893,
      "v": 96
    },
    {
      "midi": 44,
      "hit": false,
      "t": 95555.46000000021,
      "d": 218.74978124999325,
      "v": 116
    },
    {
      "midi": 53,
      "hit": false,
      "t": 95555.46000000068,
      "d": 104.16656249998778,
      "v": 91
    },
    {
      "midi": 41,
      "hit": false,
      "t": 95777.6820000002,
      "d": 100.69434375000128,
      "v": 96
    },
    {
      "midi": 53,
      "hit": false,
      "t": 95777.68200000067,
      "d": 104.16656250000233,
      "v": 91
    },
    {
      "midi": 39,
      "hit": false,
      "t": 95888.79300000021,
      "d": 100.69434375000128,
      "v": 96
    },
    {
      "midi": 32,
      "hit": false,
      "t": 95999.90400000021,
      "d": 1218.748781250004,
      "v": 100
    },
    {
      "midi": 56,
      "hit": false,
      "t": 95999.90400000068,
      "d": 406.24959375000617,
      "v": 88
    },
    {
      "midi": 63,
      "hit": false,
      "t": 95999.90400000068,
      "d": 517.3605937500106,
      "v": 78
    },
    {
      "midi": 60,
      "hit": false,
      "t": 95999.90400000068,
      "d": 538.1939062500169,
      "v": 82
    },
    {
      "midi": 32,
      "hit": false,
      "t": 95999.90400000068,
      "d": 857.6380312500114,
      "v": 76
    },
    {
      "midi": 44,
      "hit": false,
      "t": 95999.90400000068,
      "d": 881.9435625000187,
      "v": 77
    },
    {
      "midi": 56,
      "hit": false,
      "t": 96555.4590000007,
      "d": 65.97215625000536,
      "v": 78
    },
    {
      "midi": 56,
      "hit": false,
      "t": 96666.5700000007,
      "d": 27.77774999999383,
      "v": 43
    },
    {
      "midi": 60,
      "hit": false,
      "t": 96666.5700000007,
      "d": 211.80534374999115,
      "v": 85
    },
    {
      "midi": 63,
      "hit": false,
      "t": 96666.5700000007,
      "d": 225.69421874999534,
      "v": 96
    },
    {
      "midi": 56,
      "hit": false,
      "t": 96888.7920000007,
      "d": 97.22212500000023,
      "v": 96
    },
    {
      "midi": 32,
      "hit": false,
      "t": 97222.12500000022,
      "d": 107.63878125000338,
      "v": 93
    },
    {
      "midi": 36,
      "hit": false,
      "t": 97333.23600000022,
      "d": 329.8607812499977,
      "v": 100
    },
    {
      "midi": 55,
      "hit": false,
      "t": 97333.2360000007,
      "d": 409.7218125000072,
      "v": 73
    },
    {
      "midi": 58,
      "hit": false,
      "t": 97333.2360000007,
      "d": 503.4717187500064,
      "v": 66
    },
    {
      "midi": 63,
      "hit": false,
      "t": 97333.2360000007,
      "d": 517.3605937500106,
      "v": 61
    },
    {
      "midi": 60,
      "hit": false,
      "t": 97333.2360000007,
      "d": 531.2494687500148,
      "v": 69
    },
    {
      "midi": 36,
      "hit": false,
      "t": 97333.2360000007,
      "d": 552.0827812500211,
      "v": 78
    },
    {
      "midi": 48,
      "hit": false,
      "t": 97333.2360000007,
      "d": 1111.1100000000442,
      "v": 71
    },
    {
      "midi": 36,
      "hit": false,
      "t": 97666.56900000022,
      "d": 711.8048437499965,
      "v": 95
    },
    {
      "midi": 55,
      "hit": false,
      "t": 97888.79100000073,
      "d": 218.7497812500078,
      "v": 75
    },
    {
      "midi": 58,
      "hit": false,
      "t": 97999.90200000073,
      "d": 378.47184375001234,
      "v": 85
    },
    {
      "midi": 63,
      "hit": false,
      "t": 97999.90200000073,
      "d": 385.41628125001444,
      "v": 96
    },
    {
      "midi": 60,
      "hit": false,
      "t": 97999.90200000073,
      "d": 388.8885000000155,
      "v": 85
    },
    {
      "midi": 36,
      "hit": false,
      "t": 98222.12400000074,
      "d": 243.05531250001513,
      "v": 82
    },
    {
      "midi": 55,
      "hit": false,
      "t": 98222.12400000074,
      "d": 243.05531250001513,
      "v": 96
    },
    {
      "midi": 36,
      "hit": false,
      "t": 98555.45700000021,
      "d": 107.63878125000338,
      "v": 92
    },
    {
      "midi": 34,
      "hit": false,
      "t": 98666.56800000022,
      "d": 1048.6100624999963,
      "v": 100
    },
    {
      "midi": 53,
      "hit": false,
      "t": 98666.56800000076,
      "d": 454.8606562500063,
      "v": 75
    },
    {
      "midi": 56,
      "hit": false,
      "t": 98666.56800000076,
      "d": 541.6661250000034,
      "v": 72
    },
    {
      "midi": 61,
      "hit": false,
      "t": 98666.56800000076,
      "d": 541.6661250000034,
      "v": 72
    },
    {
      "midi": 58,
      "hit": false,
      "t": 98666.56800000076,
      "d": 576.3883125000139,
      "v": 71
    },
    {
      "midi": 34,
      "hit": false,
      "t": 98666.56800000076,
      "d": 624.999375000014,
      "v": 65
    },
    {
      "midi": 46,
      "hit": false,
      "t": 98666.56800000076,
      "d": 1152.7766250000277,
      "v": 60
    },
    {
      "midi": 53,
      "hit": false,
      "t": 99222.12300000076,
      "d": 274.30528124999546,
      "v": 78
    },
    {
      "midi": 56,
      "hit": false,
      "t": 99333.23400000077,
      "d": 444.44400000000314,
      "v": 93
    },
    {
      "midi": 61,
      "hit": false,
      "t": 99333.23400000077,
      "d": 458.33287500000733,
      "v": 96
    },
    {
      "midi": 58,
      "hit": false,
      "t": 99333.23400000077,
      "d": 472.2217500000115,
      "v": 96
    },
    {
      "midi": 34,
      "hit": false,
      "t": 99555.45600000076,
      "d": 249.99975000001723,
      "v": 90
    },
    {
      "midi": 53,
      "hit": false,
      "t": 99555.45600000076,
      "d": 274.30528125002456,
      "v": 78
    },
    {
      "midi": 34,
      "hit": false,
      "t": 99888.78900000021,
      "d": 107.63878125000338,
      "v": 102
    },
    {
      "midi": 39,
      "hit": false,
      "t": 99999.90000000021,
      "d": 329.8607812499977,
      "v": 96
    },
    {
      "midi": 53,
      "hit": false,
      "t": 99999.90000000078,
      "d": 288.19415624999965,
      "v": 67
    },
    {
      "midi": 56,
      "hit": false,
      "t": 99999.90000000078,
      "d": 506.9439374999929,
      "v": 67
    },
    {
      "midi": 61,
      "hit": false,
      "t": 99999.90000000078,
      "d": 517.360593749996,
      "v": 70
    },
    {
      "midi": 58,
      "hit": false,
      "t": 99999.90000000078,
      "d": 538.1939062500023,
      "v": 65
    },
    {
      "midi": 51,
      "hit": false,
      "t": 99999.90000000078,
      "d": 1010.4156562499993,
      "v": 85
    },
    {
      "midi": 39,
      "hit": false,
      "t": 99999.90000000078,
      "d": 1027.7767500000045,
      "v": 50
    },
    {
      "midi": 39,
      "hit": false,
      "t": 100333.23300000021,
      "d": 545.1383437500044,
      "v": 102
    },
    {
      "midi": 53,
      "hit": false,
      "t": 100555.45500000079,
      "d": 152.77762500000244,
      "v": 82
    },
    {
      "midi": 56,
      "hit": false,
      "t": 100666.56600000079,
      "d": 284.72193749998405,
      "v": 100
    },
    {
      "midi": 58,
      "hit": false,
      "t": 100666.56600000079,
      "d": 312.4996874999779,
      "v": 100
    },
    {
      "midi": 61,
      "hit": false,
      "t": 100666.56600000079,
      "d": 315.97190624997893,
      "v": 96
    },
    {
      "midi": 44,
      "hit": false,
      "t": 100888.78800000022,
      "d": 218.74978124999325,
      "v": 116
    },
    {
      "midi": 53,
      "hit": false,
      "t": 100888.78800000079,
      "d": 104.16656249998778,
      "v": 91
    },
    {
      "midi": 41,
      "hit": false,
      "t": 101111.01000000021,
      "d": 100.69434375000128,
      "v": 96
    },
    {
      "midi": 53,
      "hit": false,
      "t": 101111.01000000078,
      "d": 104.16656250000233,
      "v": 91
    },
    {
      "midi": 39,
      "hit": false,
      "t": 101222.12100000022,
      "d": 100.69434375000128,
      "v": 96
    },
    {
      "midi": 32,
      "hit": false,
      "t": 101333.23200000022,
      "d": 1218.748781250004,
      "v": 100
    },
    {
      "midi": 56,
      "hit": false,
      "t": 101333.23200000079,
      "d": 406.24959375000617,
      "v": 88
    },
    {
      "midi": 63,
      "hit": false,
      "t": 101333.23200000079,
      "d": 517.3605937500106,
      "v": 78
    },
    {
      "midi": 60,
      "hit": false,
      "t": 101333.23200000079,
      "d": 538.1939062500169,
      "v": 82
    },
    {
      "midi": 32,
      "hit": false,
      "t": 101333.23200000079,
      "d": 857.6380312500114,
      "v": 76
    },
    {
      "midi": 44,
      "hit": false,
      "t": 101333.23200000079,
      "d": 881.9435625000187,
      "v": 77
    },
    {
      "midi": 56,
      "hit": false,
      "t": 101888.78700000081,
      "d": 65.97215625000536,
      "v": 78
    },
    {
      "midi": 56,
      "hit": false,
      "t": 101999.89800000082,
      "d": 27.77774999999383,
      "v": 43
    },
    {
      "midi": 60,
      "hit": false,
      "t": 101999.89800000082,
      "d": 211.80534374999115,
      "v": 85
    },
    {
      "midi": 63,
      "hit": false,
      "t": 101999.89800000082,
      "d": 225.69421874999534,
      "v": 96
    },
    {
      "midi": 56,
      "hit": false,
      "t": 102222.12000000081,
      "d": 97.22212500000023,
      "v": 96
    },
    {
      "midi": 32,
      "hit": false,
      "t": 102555.45300000023,
      "d": 107.63878125000338,
      "v": 93
    },
    {
      "midi": 36,
      "hit": false,
      "t": 102666.56400000023,
      "d": 329.8607812499977,
      "v": 100
    },
    {
      "midi": 55,
      "hit": false,
      "t": 102666.56400000081,
      "d": 409.7218125000072,
      "v": 73
    },
    {
      "midi": 58,
      "hit": false,
      "t": 102666.56400000081,
      "d": 503.4717187500064,
      "v": 66
    },
    {
      "midi": 63,
      "hit": false,
      "t": 102666.56400000081,
      "d": 517.3605937500106,
      "v": 61
    },
    {
      "midi": 60,
      "hit": false,
      "t": 102666.56400000081,
      "d": 531.2494687500148,
      "v": 69
    },
    {
      "midi": 36,
      "hit": false,
      "t": 102666.56400000081,
      "d": 552.0827812500211,
      "v": 78
    },
    {
      "midi": 48,
      "hit": false,
      "t": 102666.56400000081,
      "d": 1111.1100000000442,
      "v": 71
    },
    {
      "midi": 36,
      "hit": false,
      "t": 102999.89700000023,
      "d": 711.8048437499965,
      "v": 95
    },
    {
      "midi": 55,
      "hit": false,
      "t": 103222.11900000084,
      "d": 218.7497812500078,
      "v": 75
    },
    {
      "midi": 58,
      "hit": false,
      "t": 103333.23000000084,
      "d": 378.47184375001234,
      "v": 85
    },
    {
      "midi": 63,
      "hit": false,
      "t": 103333.23000000084,
      "d": 385.41628125001444,
      "v": 96
    },
    {
      "midi": 60,
      "hit": false,
      "t": 103333.23000000084,
      "d": 388.8885000000155,
      "v": 85
    },
    {
      "midi": 36,
      "hit": false,
      "t": 103555.45200000085,
      "d": 243.05531250001513,
      "v": 82
    },
    {
      "midi": 55,
      "hit": false,
      "t": 103555.45200000085,
      "d": 243.05531250001513,
      "v": 96
    },
    {
      "midi": 36,
      "hit": false,
      "t": 103888.78500000022,
      "d": 107.63878125000338,
      "v": 92
    },
    {
      "midi": 34,
      "hit": false,
      "t": 103999.89600000023,
      "d": 1048.6100624999963,
      "v": 100
    },
    {
      "midi": 53,
      "hit": false,
      "t": 103999.89600000087,
      "d": 454.8606562500063,
      "v": 75
    },
    {
      "midi": 56,
      "hit": false,
      "t": 103999.89600000087,
      "d": 541.6661250000034,
      "v": 72
    },
    {
      "midi": 61,
      "hit": false,
      "t": 103999.89600000087,
      "d": 541.6661250000034,
      "v": 72
    },
    {
      "midi": 58,
      "hit": false,
      "t": 103999.89600000087,
      "d": 576.3883125000139,
      "v": 71
    },
    {
      "midi": 34,
      "hit": false,
      "t": 103999.89600000087,
      "d": 624.999375000014,
      "v": 65
    },
    {
      "midi": 46,
      "hit": false,
      "t": 103999.89600000087,
      "d": 1152.7766250000277,
      "v": 60
    },
    {
      "midi": 53,
      "hit": false,
      "t": 104555.45100000087,
      "d": 274.30528124999546,
      "v": 78
    },
    {
      "midi": 56,
      "hit": false,
      "t": 104666.56200000088,
      "d": 444.44400000000314,
      "v": 93
    },
    {
      "midi": 61,
      "hit": false,
      "t": 104666.56200000088,
      "d": 458.33287500000733,
      "v": 96
    },
    {
      "midi": 58,
      "hit": false,
      "t": 104666.56200000088,
      "d": 472.2217500000115,
      "v": 96
    },
    {
      "midi": 34,
      "hit": false,
      "t": 104888.78400000087,
      "d": 249.99975000001723,
      "v": 90
    },
    {
      "midi": 53,
      "hit": false,
      "t": 104888.78400000087,
      "d": 274.30528125002456,
      "v": 78
    },
    {
      "midi": 34,
      "hit": false,
      "t": 105222.11700000022,
      "d": 107.63878125000338,
      "v": 102
    },
    {
      "midi": 39,
      "hit": false,
      "t": 105333.22800000022,
      "d": 329.8607812499977,
      "v": 96
    },
    {
      "midi": 53,
      "hit": false,
      "t": 105333.22800000089,
      "d": 288.19415624999965,
      "v": 67
    },
    {
      "midi": 56,
      "hit": false,
      "t": 105333.22800000089,
      "d": 506.9439374999929,
      "v": 67
    },
    {
      "midi": 61,
      "hit": false,
      "t": 105333.22800000089,
      "d": 517.360593749996,
      "v": 70
    },
    {
      "midi": 58,
      "hit": false,
      "t": 105333.22800000089,
      "d": 538.1939062500023,
      "v": 65
    },
    {
      "midi": 51,
      "hit": false,
      "t": 105333.22800000089,
      "d": 1010.4156562499993,
      "v": 85
    },
    {
      "midi": 39,
      "hit": false,
      "t": 105333.22800000089,
      "d": 1027.7767500000045,
      "v": 50
    },
    {
      "midi": 39,
      "hit": false,
      "t": 105666.56100000022,
      "d": 545.1383437500044,
      "v": 102
    },
    {
      "midi": 53,
      "hit": false,
      "t": 105888.7830000009,
      "d": 152.77762500000244,
      "v": 82
    },
    {
      "midi": 56,
      "hit": false,
      "t": 105999.8940000009,
      "d": 284.72193749998405,
      "v": 100
    },
    {
      "midi": 58,
      "hit": false,
      "t": 105999.8940000009,
      "d": 312.4996874999779,
      "v": 100
    },
    {
      "midi": 61,
      "hit": false,
      "t": 105999.8940000009,
      "d": 315.97190624997893,
      "v": 96
    },
    {
      "midi": 44,
      "hit": false,
      "t": 106222.11600000023,
      "d": 218.74978124999325,
      "v": 116
    },
    {
      "midi": 53,
      "hit": false,
      "t": 106222.1160000009,
      "d": 104.16656249998778,
      "v": 91
    },
    {
      "midi": 41,
      "hit": false,
      "t": 106444.33800000022,
      "d": 100.69434375000128,
      "v": 96
    },
    {
      "midi": 53,
      "hit": false,
      "t": 106444.33800000089,
      "d": 104.16656250000233,
      "v": 91
    },
    {
      "midi": 39,
      "hit": false,
      "t": 106555.44900000023,
      "d": 100.69434375000128,
      "v": 96
    },
    {
      "midi": 32,
      "hit": false,
      "t": 106666.56000000023,
      "d": 1218.748781250004,
      "v": 100
    },
    {
      "midi": 56,
      "hit": false,
      "t": 106666.5600000009,
      "d": 406.24959375000617,
      "v": 88
    },
    {
      "midi": 63,
      "hit": false,
      "t": 106666.5600000009,
      "d": 517.3605937500106,
      "v": 78
    },
    {
      "midi": 60,
      "hit": false,
      "t": 106666.5600000009,
      "d": 538.1939062500169,
      "v": 82
    },
    {
      "midi": 32,
      "hit": false,
      "t": 106666.5600000009,
      "d": 857.6380312500114,
      "v": 76
    },
    {
      "midi": 44,
      "hit": false,
      "t": 106666.5600000009,
      "d": 881.9435625000187,
      "v": 77
    },
    {
      "midi": 56,
      "hit": false,
      "t": 107222.11500000092,
      "d": 65.97215625000536,
      "v": 78
    },
    {
      "midi": 56,
      "hit": false,
      "t": 107333.22600000093,
      "d": 27.77774999999383,
      "v": 43
    },
    {
      "midi": 60,
      "hit": false,
      "t": 107333.22600000093,
      "d": 211.80534374999115,
      "v": 85
    },
    {
      "midi": 63,
      "hit": false,
      "t": 107333.22600000093,
      "d": 225.69421874999534,
      "v": 96
    },
    {
      "midi": 56,
      "hit": false,
      "t": 107555.44800000092,
      "d": 97.22212500000023,
      "v": 96
    },
    {
      "midi": 32,
      "hit": false,
      "t": 107888.78100000024,
      "d": 107.63878125000338,
      "v": 93
    },
    {
      "midi": 36,
      "hit": false,
      "t": 107999.89200000024,
      "d": 329.8607812499977,
      "v": 100
    },
    {
      "midi": 55,
      "hit": false,
      "t": 107999.89200000091,
      "d": 409.7218125000072,
      "v": 73
    },
    {
      "midi": 58,
      "hit": false,
      "t": 107999.89200000091,
      "d": 503.4717187500064,
      "v": 66
    },
    {
      "midi": 63,
      "hit": false,
      "t": 107999.89200000091,
      "d": 517.3605937500106,
      "v": 61
    },
    {
      "midi": 60,
      "hit": false,
      "t": 107999.89200000091,
      "d": 531.2494687500148,
      "v": 69
    },
    {
      "midi": 36,
      "hit": false,
      "t": 107999.89200000091,
      "d": 552.0827812500211,
      "v": 78
    },
    {
      "midi": 48,
      "hit": false,
      "t": 107999.89200000091,
      "d": 1111.1100000000442,
      "v": 71
    },
    {
      "midi": 36,
      "hit": false,
      "t": 108333.22500000024,
      "d": 711.8048437499965,
      "v": 95
    },
    {
      "midi": 55,
      "hit": false,
      "t": 108555.44700000093,
      "d": 218.7497812500078,
      "v": 75
    },
    {
      "midi": 58,
      "hit": false,
      "t": 108666.55800000094,
      "d": 378.47184375001234,
      "v": 85
    },
    {
      "midi": 63,
      "hit": false,
      "t": 108666.55800000094,
      "d": 385.41628125001444,
      "v": 96
    },
    {
      "midi": 60,
      "hit": false,
      "t": 108666.55800000094,
      "d": 388.8885000000155,
      "v": 85
    },
    {
      "midi": 36,
      "hit": false,
      "t": 108888.78000000094,
      "d": 243.05531250001513,
      "v": 82
    },
    {
      "midi": 55,
      "hit": false,
      "t": 108888.78000000094,
      "d": 243.05531250001513,
      "v": 96
    },
    {
      "midi": 36,
      "hit": false,
      "t": 109222.11300000023,
      "d": 107.63878125000338,
      "v": 92
    },
    {
      "midi": 34,
      "hit": false,
      "t": 109333.22400000023,
      "d": 1048.6100624999963,
      "v": 100
    },
    {
      "midi": 53,
      "hit": false,
      "t": 109333.22400000096,
      "d": 454.8606562500063,
      "v": 75
    },
    {
      "midi": 56,
      "hit": false,
      "t": 109333.22400000096,
      "d": 541.6661250000034,
      "v": 72
    },
    {
      "midi": 61,
      "hit": false,
      "t": 109333.22400000096,
      "d": 541.6661250000034,
      "v": 72
    },
    {
      "midi": 58,
      "hit": false,
      "t": 109333.22400000096,
      "d": 576.3883125000139,
      "v": 71
    },
    {
      "midi": 34,
      "hit": false,
      "t": 109333.22400000096,
      "d": 624.999375000014,
      "v": 65
    },
    {
      "midi": 46,
      "hit": false,
      "t": 109333.22400000096,
      "d": 1152.7766250000277,
      "v": 60
    },
    {
      "midi": 53,
      "hit": false,
      "t": 109888.77900000097,
      "d": 274.30528124999546,
      "v": 78
    },
    {
      "midi": 56,
      "hit": false,
      "t": 109999.89000000097,
      "d": 444.44400000000314,
      "v": 93
    },
    {
      "midi": 61,
      "hit": false,
      "t": 109999.89000000097,
      "d": 458.33287500000733,
      "v": 96
    },
    {
      "midi": 58,
      "hit": false,
      "t": 109999.89000000097,
      "d": 472.2217500000115,
      "v": 96
    },
    {
      "midi": 34,
      "hit": false,
      "t": 110222.11200000097,
      "d": 249.99975000001723,
      "v": 90
    },
    {
      "midi": 53,
      "hit": false,
      "t": 110222.11200000097,
      "d": 274.30528125002456,
      "v": 78
    },
    {
      "midi": 34,
      "hit": false,
      "t": 110555.44500000023,
      "d": 107.63878125000338,
      "v": 102
    },
    {
      "midi": 39,
      "hit": false,
      "t": 110666.55600000023,
      "d": 329.8607812499977,
      "v": 96
    },
    {
      "midi": 53,
      "hit": false,
      "t": 110666.55600000099,
      "d": 288.19415624999965,
      "v": 67
    },
    {
      "midi": 56,
      "hit": false,
      "t": 110666.55600000099,
      "d": 506.9439374999929,
      "v": 67
    },
    {
      "midi": 61,
      "hit": false,
      "t": 110666.55600000099,
      "d": 517.360593749996,
      "v": 70
    },
    {
      "midi": 58,
      "hit": false,
      "t": 110666.55600000099,
      "d": 538.1939062500023,
      "v": 65
    },
    {
      "midi": 51,
      "hit": false,
      "t": 110666.55600000099,
      "d": 1010.4156562499993,
      "v": 85
    },
    {
      "midi": 39,
      "hit": false,
      "t": 110666.55600000099,
      "d": 1027.7767500000045,
      "v": 50
    },
    {
      "midi": 39,
      "hit": false,
      "t": 110999.88900000023,
      "d": 545.1383437500044,
      "v": 102
    },
    {
      "midi": 53,
      "hit": false,
      "t": 111222.111000001,
      "d": 152.77762500000244,
      "v": 82
    },
    {
      "midi": 56,
      "hit": false,
      "t": 111333.222000001,
      "d": 284.72193749998405,
      "v": 100
    },
    {
      "midi": 58,
      "hit": false,
      "t": 111333.222000001,
      "d": 312.4996874999779,
      "v": 100
    },
    {
      "midi": 61,
      "hit": false,
      "t": 111333.222000001,
      "d": 315.97190624997893,
      "v": 96
    },
    {
      "midi": 44,
      "hit": false,
      "t": 111555.44400000024,
      "d": 218.74978124999325,
      "v": 116
    },
    {
      "midi": 53,
      "hit": false,
      "t": 111555.44400000099,
      "d": 104.16656249998778,
      "v": 91
    },
    {
      "midi": 41,
      "hit": false,
      "t": 111777.66600000023,
      "d": 100.69434375000128,
      "v": 96
    },
    {
      "midi": 53,
      "hit": false,
      "t": 111777.66600000099,
      "d": 104.16656250000233,
      "v": 91
    },
    {
      "midi": 39,
      "hit": false,
      "t": 111888.77700000023,
      "d": 100.69434375000128,
      "v": 96
    },
    {
      "midi": 32,
      "hit": false,
      "t": 111999.88800000024,
      "d": 1218.748781250004,
      "v": 100
    },
    {
      "midi": 56,
      "hit": false,
      "t": 111999.888000001,
      "d": 406.24959375000617,
      "v": 88
    },
    {
      "midi": 63,
      "hit": false,
      "t": 111999.888000001,
      "d": 517.3605937500106,
      "v": 78
    },
    {
      "midi": 60,
      "hit": false,
      "t": 111999.888000001,
      "d": 538.1939062500169,
      "v": 82
    },
    {
      "midi": 32,
      "hit": false,
      "t": 111999.888000001,
      "d": 857.6380312500114,
      "v": 76
    },
    {
      "midi": 44,
      "hit": false,
      "t": 111999.888000001,
      "d": 881.9435625000187,
      "v": 77
    },
    {
      "midi": 56,
      "hit": false,
      "t": 112555.44300000102,
      "d": 65.97215625000536,
      "v": 78
    },
    {
      "midi": 56,
      "hit": false,
      "t": 112666.55400000102,
      "d": 27.77774999999383,
      "v": 43
    },
    {
      "midi": 60,
      "hit": false,
      "t": 112666.55400000102,
      "d": 211.80534374999115,
      "v": 85
    },
    {
      "midi": 63,
      "hit": false,
      "t": 112666.55400000102,
      "d": 225.69421874999534,
      "v": 96
    },
    {
      "midi": 56,
      "hit": false,
      "t": 112888.77600000102,
      "d": 97.22212500000023,
      "v": 96
    },
    {
      "midi": 32,
      "hit": false,
      "t": 113222.10900000024,
      "d": 107.63878125000338,
      "v": 93
    },
    {
      "midi": 36,
      "hit": false,
      "t": 113333.22000000025,
      "d": 329.8607812499977,
      "v": 100
    },
    {
      "midi": 55,
      "hit": false,
      "t": 113333.22000000102,
      "d": 409.7218125000072,
      "v": 73
    },
    {
      "midi": 58,
      "hit": false,
      "t": 113333.22000000102,
      "d": 503.4717187500064,
      "v": 66
    },
    {
      "midi": 63,
      "hit": false,
      "t": 113333.22000000102,
      "d": 517.3605937500106,
      "v": 61
    },
    {
      "midi": 60,
      "hit": false,
      "t": 113333.22000000102,
      "d": 531.2494687500148,
      "v": 69
    },
    {
      "midi": 36,
      "hit": false,
      "t": 113333.22000000102,
      "d": 552.0827812500211,
      "v": 78
    },
    {
      "midi": 48,
      "hit": false,
      "t": 113333.22000000102,
      "d": 1111.1100000000442,
      "v": 71
    },
    {
      "midi": 36,
      "hit": false,
      "t": 113666.55300000025,
      "d": 711.8048437499965,
      "v": 95
    },
    {
      "midi": 55,
      "hit": false,
      "t": 113888.77500000104,
      "d": 218.7497812500078,
      "v": 75
    },
    {
      "midi": 58,
      "hit": false,
      "t": 113999.88600000105,
      "d": 378.47184375001234,
      "v": 85
    },
    {
      "midi": 63,
      "hit": false,
      "t": 113999.88600000105,
      "d": 385.41628125001444,
      "v": 96
    },
    {
      "midi": 60,
      "hit": false,
      "t": 113999.88600000105,
      "d": 388.8885000000155,
      "v": 85
    },
    {
      "midi": 36,
      "hit": false,
      "t": 114222.10800000106,
      "d": 243.05531250001513,
      "v": 82
    },
    {
      "midi": 55,
      "hit": false,
      "t": 114222.10800000106,
      "d": 243.05531250001513,
      "v": 96
    },
    {
      "midi": 36,
      "hit": false,
      "t": 114555.44100000024,
      "d": 107.63878125000338,
      "v": 92
    },
    {
      "midi": 34,
      "hit": false,
      "t": 114666.55200000024,
      "d": 1048.6100624999963,
      "v": 100
    },
    {
      "midi": 53,
      "hit": false,
      "t": 114666.55200000107,
      "d": 454.8606562500063,
      "v": 75
    },
    {
      "midi": 56,
      "hit": false,
      "t": 114666.55200000107,
      "d": 541.6661250000034,
      "v": 72
    },
    {
      "midi": 61,
      "hit": false,
      "t": 114666.55200000107,
      "d": 541.6661250000034,
      "v": 72
    },
    {
      "midi": 58,
      "hit": false,
      "t": 114666.55200000107,
      "d": 576.3883125000139,
      "v": 71
    },
    {
      "midi": 34,
      "hit": false,
      "t": 114666.55200000107,
      "d": 624.999375000014,
      "v": 65
    },
    {
      "midi": 46,
      "hit": false,
      "t": 114666.55200000107,
      "d": 1152.7766250000277,
      "v": 60
    },
    {
      "midi": 53,
      "hit": false,
      "t": 115222.10700000108,
      "d": 274.30528124999546,
      "v": 78
    },
    {
      "midi": 56,
      "hit": false,
      "t": 115333.21800000108,
      "d": 444.44400000000314,
      "v": 93
    },
    {
      "midi": 61,
      "hit": false,
      "t": 115333.21800000108,
      "d": 458.33287500000733,
      "v": 96
    },
    {
      "midi": 58,
      "hit": false,
      "t": 115333.21800000108,
      "d": 472.2217500000115,
      "v": 96
    },
    {
      "midi": 34,
      "hit": false,
      "t": 115555.44000000108,
      "d": 249.99975000001723,
      "v": 90
    },
    {
      "midi": 53,
      "hit": false,
      "t": 115555.44000000108,
      "d": 274.30528125002456,
      "v": 78
    },
    {
      "midi": 34,
      "hit": false,
      "t": 115888.77300000023,
      "d": 107.63878125000338,
      "v": 102
    },
    {
      "midi": 39,
      "hit": false,
      "t": 115999.88400000024,
      "d": 329.8607812499977,
      "v": 96
    },
    {
      "midi": 53,
      "hit": false,
      "t": 115999.8840000011,
      "d": 288.19415624999965,
      "v": 67
    },
    {
      "midi": 56,
      "hit": false,
      "t": 115999.8840000011,
      "d": 506.9439374999929,
      "v": 67
    },
    {
      "midi": 61,
      "hit": false,
      "t": 115999.8840000011,
      "d": 517.360593749996,
      "v": 70
    },
    {
      "midi": 58,
      "hit": false,
      "t": 115999.8840000011,
      "d": 538.1939062500023,
      "v": 65
    },
    {
      "midi": 51,
      "hit": false,
      "t": 115999.8840000011,
      "d": 1010.4156562499993,
      "v": 85
    },
    {
      "midi": 39,
      "hit": false,
      "t": 115999.8840000011,
      "d": 1027.7767500000045,
      "v": 50
    },
    {
      "midi": 39,
      "hit": false,
      "t": 116333.21700000024,
      "d": 545.1383437500044,
      "v": 102
    },
    {
      "midi": 53,
      "hit": false,
      "t": 116555.4390000011,
      "d": 152.77762500000244,
      "v": 82
    },
    {
      "midi": 56,
      "hit": false,
      "t": 116666.55000000111,
      "d": 284.72193749998405,
      "v": 100
    },
    {
      "midi": 58,
      "hit": false,
      "t": 116666.55000000111,
      "d": 312.4996874999779,
      "v": 100
    },
    {
      "midi": 61,
      "hit": false,
      "t": 116666.55000000111,
      "d": 315.97190624997893,
      "v": 96
    },
    {
      "midi": 44,
      "hit": false,
      "t": 116888.77200000024,
      "d": 218.74978124999325,
      "v": 116
    },
    {
      "midi": 53,
      "hit": false,
      "t": 116888.7720000011,
      "d": 104.16656249998778,
      "v": 91
    },
    {
      "midi": 41,
      "hit": false,
      "t": 117110.99400000024,
      "d": 100.69434375000128,
      "v": 96
    },
    {
      "midi": 53,
      "hit": false,
      "t": 117110.9940000011,
      "d": 104.16656250000233,
      "v": 91
    },
    {
      "midi": 39,
      "hit": false,
      "t": 117222.10500000024,
      "d": 100.69434375000128,
      "v": 96
    },
    {
      "midi": 32,
      "hit": false,
      "t": 117333.21600000025,
      "d": 1218.748781250004,
      "v": 100
    },
    {
      "midi": 56,
      "hit": false,
      "t": 117333.2160000011,
      "d": 406.24959375000617,
      "v": 88
    },
    {
      "midi": 63,
      "hit": false,
      "t": 117333.2160000011,
      "d": 517.3605937500106,
      "v": 78
    },
    {
      "midi": 60,
      "hit": false,
      "t": 117333.2160000011,
      "d": 538.1939062500169,
      "v": 82
    },
    {
      "midi": 32,
      "hit": false,
      "t": 117333.2160000011,
      "d": 857.6380312500114,
      "v": 76
    },
    {
      "midi": 44,
      "hit": false,
      "t": 117333.2160000011,
      "d": 881.9435625000187,
      "v": 77
    },
    {
      "midi": 56,
      "hit": false,
      "t": 117888.77100000113,
      "d": 65.97215625000536,
      "v": 78
    },
    {
      "midi": 56,
      "hit": false,
      "t": 117999.88200000113,
      "d": 27.77774999999383,
      "v": 43
    },
    {
      "midi": 60,
      "hit": false,
      "t": 117999.88200000113,
      "d": 211.80534374999115,
      "v": 85
    },
    {
      "midi": 63,
      "hit": false,
      "t": 117999.88200000113,
      "d": 225.69421874999534,
      "v": 96
    },
    {
      "midi": 56,
      "hit": false,
      "t": 118222.10400000113,
      "d": 97.22212500000023,
      "v": 96
    },
    {
      "midi": 32,
      "hit": false,
      "t": 118555.43700000025,
      "d": 107.63878125000338,
      "v": 93
    },
    {
      "midi": 36,
      "hit": false,
      "t": 118666.54800000026,
      "d": 329.8607812499977,
      "v": 100
    },
    {
      "midi": 55,
      "hit": false,
      "t": 118666.54800000112,
      "d": 409.7218125000072,
      "v": 73
    },
    {
      "midi": 58,
      "hit": false,
      "t": 118666.54800000112,
      "d": 503.4717187500064,
      "v": 66
    },
    {
      "midi": 63,
      "hit": false,
      "t": 118666.54800000112,
      "d": 517.3605937500106,
      "v": 61
    },
    {
      "midi": 60,
      "hit": false,
      "t": 118666.54800000112,
      "d": 531.2494687500148,
      "v": 69
    },
    {
      "midi": 36,
      "hit": false,
      "t": 118666.54800000112,
      "d": 552.0827812500211,
      "v": 78
    },
    {
      "midi": 48,
      "hit": false,
      "t": 118666.54800000112,
      "d": 1111.1100000000442,
      "v": 71
    },
    {
      "midi": 36,
      "hit": false,
      "t": 118999.88100000026,
      "d": 711.8048437499965,
      "v": 95
    },
    {
      "midi": 55,
      "hit": false,
      "t": 119222.10300000114,
      "d": 218.7497812500078,
      "v": 75
    },
    {
      "midi": 58,
      "hit": false,
      "t": 119333.21400000114,
      "d": 378.47184375001234,
      "v": 85
    },
    {
      "midi": 63,
      "hit": false,
      "t": 119333.21400000114,
      "d": 385.41628125001444,
      "v": 96
    },
    {
      "midi": 60,
      "hit": false,
      "t": 119333.21400000114,
      "d": 388.8885000000155,
      "v": 85
    },
    {
      "midi": 36,
      "hit": false,
      "t": 119555.43600000115,
      "d": 243.05531250001513,
      "v": 82
    },
    {
      "midi": 55,
      "hit": false,
      "t": 119555.43600000115,
      "d": 243.05531250001513,
      "v": 96
    },
    {
      "midi": 36,
      "hit": false,
      "t": 119888.76900000025,
      "d": 107.63878125000338,
      "v": 92
    },
    {
      "midi": 34,
      "hit": false,
      "t": 119999.88000000025,
      "d": 1048.6100624999963,
      "v": 100
    },
    {
      "midi": 53,
      "hit": false,
      "t": 119999.88000000117,
      "d": 454.8606562500063,
      "v": 75
    },
    {
      "midi": 56,
      "hit": false,
      "t": 119999.88000000117,
      "d": 541.6661250000034,
      "v": 72
    },
    {
      "midi": 61,
      "hit": false,
      "t": 119999.88000000117,
      "d": 541.6661250000034,
      "v": 72
    },
    {
      "midi": 58,
      "hit": false,
      "t": 119999.88000000117,
      "d": 576.3883125000139,
      "v": 71
    },
    {
      "midi": 34,
      "hit": false,
      "t": 119999.88000000117,
      "d": 624.999375000014,
      "v": 65
    },
    {
      "midi": 46,
      "hit": false,
      "t": 119999.88000000117,
      "d": 1152.7766250000277,
      "v": 60
    },
    {
      "midi": 53,
      "hit": false,
      "t": 120555.43500000118,
      "d": 274.30528124999546,
      "v": 78
    },
    {
      "midi": 56,
      "hit": false,
      "t": 120666.54600000118,
      "d": 444.44400000000314,
      "v": 93
    },
    {
      "midi": 61,
      "hit": false,
      "t": 120666.54600000118,
      "d": 458.33287500000733,
      "v": 96
    },
    {
      "midi": 58,
      "hit": false,
      "t": 120666.54600000118,
      "d": 472.2217500000115,
      "v": 96
    },
    {
      "midi": 34,
      "hit": false,
      "t": 120888.76800000118,
      "d": 249.99975000001723,
      "v": 90
    },
    {
      "midi": 53,
      "hit": false,
      "t": 120888.76800000118,
      "d": 274.30528125002456,
      "v": 78
    },
    {
      "midi": 34,
      "hit": false,
      "t": 121222.10100000024,
      "d": 107.63878125000338,
      "v": 102
    },
    {
      "midi": 39,
      "hit": false,
      "t": 121333.21200000025,
      "d": 329.8607812499977,
      "v": 96
    },
    {
      "midi": 53,
      "hit": false,
      "t": 121333.2120000012,
      "d": 288.19415624999965,
      "v": 67
    },
    {
      "midi": 56,
      "hit": false,
      "t": 121333.2120000012,
      "d": 506.9439374999929,
      "v": 67
    },
    {
      "midi": 61,
      "hit": false,
      "t": 121333.2120000012,
      "d": 517.360593749996,
      "v": 70
    },
    {
      "midi": 58,
      "hit": false,
      "t": 121333.2120000012,
      "d": 538.1939062500023,
      "v": 65
    },
    {
      "midi": 51,
      "hit": false,
      "t": 121333.2120000012,
      "d": 1010.4156562499993,
      "v": 85
    },
    {
      "midi": 39,
      "hit": false,
      "t": 121333.2120000012,
      "d": 1027.7767500000045,
      "v": 50
    },
    {
      "midi": 39,
      "hit": false,
      "t": 121666.54500000025,
      "d": 545.1383437500044,
      "v": 102
    },
    {
      "midi": 53,
      "hit": false,
      "t": 121888.7670000012,
      "d": 152.77762500000244,
      "v": 82
    },
    {
      "midi": 56,
      "hit": false,
      "t": 121999.8780000012,
      "d": 284.72193749998405,
      "v": 100
    },
    {
      "midi": 58,
      "hit": false,
      "t": 121999.8780000012,
      "d": 312.4996874999779,
      "v": 100
    },
    {
      "midi": 61,
      "hit": false,
      "t": 121999.8780000012,
      "d": 315.97190624997893,
      "v": 96
    },
    {
      "midi": 44,
      "hit": false,
      "t": 122222.10000000025,
      "d": 218.74978124999325,
      "v": 116
    },
    {
      "midi": 53,
      "hit": false,
      "t": 122222.1000000012,
      "d": 104.16656249998778,
      "v": 91
    },
    {
      "midi": 41,
      "hit": false,
      "t": 122444.32200000025,
      "d": 100.69434375000128,
      "v": 96
    },
    {
      "midi": 53,
      "hit": false,
      "t": 122444.3220000012,
      "d": 104.16656250000233,
      "v": 91
    },
    {
      "midi": 39,
      "hit": false,
      "t": 122555.43300000025,
      "d": 100.69434375000128,
      "v": 96
    },
    {
      "midi": 32,
      "hit": false,
      "t": 122666.54400000026,
      "d": 1218.748781250004,
      "v": 100
    },
    {
      "midi": 56,
      "hit": false,
      "t": 122666.5440000012,
      "d": 406.24959375000617,
      "v": 88
    },
    {
      "midi": 63,
      "hit": false,
      "t": 122666.5440000012,
      "d": 517.3605937500106,
      "v": 78
    },
    {
      "midi": 60,
      "hit": false,
      "t": 122666.5440000012,
      "d": 538.1939062500169,
      "v": 82
    },
    {
      "midi": 32,
      "hit": false,
      "t": 122666.5440000012,
      "d": 857.6380312500114,
      "v": 76
    },
    {
      "midi": 44,
      "hit": false,
      "t": 122666.5440000012,
      "d": 881.9435625000187,
      "v": 77
    },
    {
      "midi": 56,
      "hit": false,
      "t": 123222.09900000122,
      "d": 65.97215625000536,
      "v": 78
    },
    {
      "midi": 56,
      "hit": false,
      "t": 123333.21000000123,
      "d": 27.77774999999383,
      "v": 43
    },
    {
      "midi": 60,
      "hit": false,
      "t": 123333.21000000123,
      "d": 211.80534374999115,
      "v": 85
    },
    {
      "midi": 63,
      "hit": false,
      "t": 123333.21000000123,
      "d": 225.69421874999534,
      "v": 96
    },
    {
      "midi": 56,
      "hit": false,
      "t": 123555.43200000122,
      "d": 97.22212500000023,
      "v": 96
    },
    {
      "midi": 32,
      "hit": false,
      "t": 123888.76500000026,
      "d": 107.63878125000338,
      "v": 93
    },
    {
      "midi": 36,
      "hit": false,
      "t": 123999.87600000027,
      "d": 329.8607812499977,
      "v": 100
    },
    {
      "midi": 55,
      "hit": false,
      "t": 123999.87600000123,
      "d": 409.7218125000072,
      "v": 73
    },
    {
      "midi": 58,
      "hit": false,
      "t": 123999.87600000123,
      "d": 503.4717187500064,
      "v": 66
    },
    {
      "midi": 63,
      "hit": false,
      "t": 123999.87600000123,
      "d": 517.3605937500106,
      "v": 61
    },
    {
      "midi": 60,
      "hit": false,
      "t": 123999.87600000123,
      "d": 531.2494687500148,
      "v": 69
    },
    {
      "midi": 36,
      "hit": false,
      "t": 123999.87600000123,
      "d": 552.0827812500211,
      "v": 78
    },
    {
      "midi": 48,
      "hit": false,
      "t": 123999.87600000123,
      "d": 1111.1100000000442,
      "v": 71
    },
    {
      "midi": 36,
      "hit": false,
      "t": 124333.20900000026,
      "d": 711.8048437499965,
      "v": 95
    },
    {
      "midi": 55,
      "hit": false,
      "t": 124555.43100000125,
      "d": 218.7497812500078,
      "v": 75
    },
    {
      "midi": 58,
      "hit": false,
      "t": 124666.54200000125,
      "d": 378.47184375001234,
      "v": 85
    },
    {
      "midi": 63,
      "hit": false,
      "t": 124666.54200000125,
      "d": 385.41628125001444,
      "v": 96
    },
    {
      "midi": 60,
      "hit": false,
      "t": 124666.54200000125,
      "d": 388.8885000000155,
      "v": 85
    },
    {
      "midi": 36,
      "hit": false,
      "t": 124888.76400000126,
      "d": 243.05531250001513,
      "v": 82
    },
    {
      "midi": 55,
      "hit": false,
      "t": 124888.76400000126,
      "d": 243.05531250001513,
      "v": 96
    },
    {
      "midi": 36,
      "hit": false,
      "t": 125222.09700000026,
      "d": 107.63878125000338,
      "v": 92
    },
    {
      "midi": 34,
      "hit": false,
      "t": 125333.20800000026,
      "d": 1048.6100624999963,
      "v": 100
    },
    {
      "midi": 53,
      "hit": false,
      "t": 125333.20800000128,
      "d": 454.8606562500063,
      "v": 75
    },
    {
      "midi": 56,
      "hit": false,
      "t": 125333.20800000128,
      "d": 541.6661250000034,
      "v": 72
    },
    {
      "midi": 61,
      "hit": false,
      "t": 125333.20800000128,
      "d": 541.6661250000034,
      "v": 72
    },
    {
      "midi": 58,
      "hit": false,
      "t": 125333.20800000128,
      "d": 576.3883125000139,
      "v": 71
    },
    {
      "midi": 34,
      "hit": false,
      "t": 125333.20800000128,
      "d": 624.999375000014,
      "v": 65
    },
    {
      "midi": 46,
      "hit": false,
      "t": 125333.20800000128,
      "d": 1152.7766250000277,
      "v": 60
    },
    {
      "midi": 53,
      "hit": false,
      "t": 125888.76300000129,
      "d": 274.30528124999546,
      "v": 78
    },
    {
      "midi": 56,
      "hit": false,
      "t": 125999.87400000129,
      "d": 444.44400000000314,
      "v": 93
    },
    {
      "midi": 61,
      "hit": false,
      "t": 125999.87400000129,
      "d": 458.33287500000733,
      "v": 96
    },
    {
      "midi": 58,
      "hit": false,
      "t": 125999.87400000129,
      "d": 472.2217500000115,
      "v": 96
    },
    {
      "midi": 34,
      "hit": false,
      "t": 126222.09600000129,
      "d": 249.99975000001723,
      "v": 90
    },
    {
      "midi": 53,
      "hit": false,
      "t": 126222.09600000129,
      "d": 274.30528125002456,
      "v": 78
    },
    {
      "midi": 34,
      "hit": false,
      "t": 126555.42900000025,
      "d": 107.63878125000338,
      "v": 102
    },
    {
      "midi": 39,
      "hit": false,
      "t": 126666.54000000026,
      "d": 329.8607812499977,
      "v": 96
    },
    {
      "midi": 53,
      "hit": false,
      "t": 126666.5400000013,
      "d": 288.19415624999965,
      "v": 67
    },
    {
      "midi": 56,
      "hit": false,
      "t": 126666.5400000013,
      "d": 506.9439374999929,
      "v": 67
    },
    {
      "midi": 61,
      "hit": false,
      "t": 126666.5400000013,
      "d": 517.360593749996,
      "v": 70
    },
    {
      "midi": 58,
      "hit": false,
      "t": 126666.5400000013,
      "d": 538.1939062500023,
      "v": 65
    },
    {
      "midi": 51,
      "hit": false,
      "t": 126666.5400000013,
      "d": 1010.4156562499993,
      "v": 85
    },
    {
      "midi": 39,
      "hit": false,
      "t": 126666.5400000013,
      "d": 1027.7767500000045,
      "v": 50
    },
    {
      "midi": 39,
      "hit": false,
      "t": 126999.87300000025,
      "d": 545.1383437500044,
      "v": 102
    },
    {
      "midi": 53,
      "hit": false,
      "t": 127222.09500000131,
      "d": 152.77762500000244,
      "v": 82
    },
    {
      "midi": 56,
      "hit": false,
      "t": 127333.20600000132,
      "d": 284.72193749998405,
      "v": 100
    },
    {
      "midi": 58,
      "hit": false,
      "t": 127333.20600000132,
      "d": 312.4996874999779,
      "v": 100
    },
    {
      "midi": 61,
      "hit": false,
      "t": 127333.20600000132,
      "d": 315.97190624997893,
      "v": 96
    },
    {
      "midi": 44,
      "hit": false,
      "t": 127555.42800000026,
      "d": 218.74978124999325,
      "v": 116
    },
    {
      "midi": 53,
      "hit": false,
      "t": 127555.42800000131,
      "d": 104.16656249998778,
      "v": 91
    },
    {
      "midi": 41,
      "hit": false,
      "t": 127777.65000000026,
      "d": 100.69434375000128,
      "v": 96
    },
    {
      "midi": 53,
      "hit": false,
      "t": 127777.6500000013,
      "d": 104.16656250000233,
      "v": 91
    },
    {
      "midi": 39,
      "hit": false,
      "t": 127888.76100000026,
      "d": 100.69434375000128,
      "v": 96
    },
    {
      "midi": 32,
      "hit": false,
      "t": 127999.87200000026,
      "d": 1218.748781250004,
      "v": 100
    },
    {
      "midi": 56,
      "hit": false,
      "t": 127999.87200000131,
      "d": 406.24959375000617,
      "v": 88
    },
    {
      "midi": 63,
      "hit": false,
      "t": 127999.87200000131,
      "d": 517.3605937500106,
      "v": 78
    },
    {
      "midi": 60,
      "hit": false,
      "t": 127999.87200000131,
      "d": 538.1939062500169,
      "v": 82
    },
    {
      "midi": 32,
      "hit": false,
      "t": 127999.87200000131,
      "d": 857.6380312500114,
      "v": 76
    },
    {
      "midi": 44,
      "hit": false,
      "t": 127999.87200000131,
      "d": 881.9435625000187,
      "v": 77
    },
    {
      "midi": 56,
      "hit": false,
      "t": 128555.42700000133,
      "d": 65.97215625000536,
      "v": 78
    },
    {
      "midi": 56,
      "hit": false,
      "t": 128666.53800000134,
      "d": 27.77774999999383,
      "v": 43
    },
    {
      "midi": 60,
      "hit": false,
      "t": 128666.53800000134,
      "d": 211.80534374999115,
      "v": 85
    },
    {
      "midi": 63,
      "hit": false,
      "t": 128666.53800000134,
      "d": 225.69421874999534,
      "v": 96
    },
    {
      "midi": 56,
      "hit": false,
      "t": 128888.76000000133,
      "d": 97.22212500000023,
      "v": 96
    },
    {
      "midi": 32,
      "hit": false,
      "t": 129222.09300000027,
      "d": 107.63878125000338,
      "v": 93
    },
    {
      "midi": 36,
      "hit": false,
      "t": 129333.20400000027,
      "d": 329.8607812499977,
      "v": 100
    },
    {
      "midi": 55,
      "hit": false,
      "t": 129333.20400000132,
      "d": 409.7218125000072,
      "v": 73
    },
    {
      "midi": 58,
      "hit": false,
      "t": 129333.20400000132,
      "d": 503.4717187500064,
      "v": 66
    },
    {
      "midi": 63,
      "hit": false,
      "t": 129333.20400000132,
      "d": 517.3605937500106,
      "v": 61
    },
    {
      "midi": 60,
      "hit": false,
      "t": 129333.20400000132,
      "d": 531.2494687500148,
      "v": 69
    },
    {
      "midi": 36,
      "hit": false,
      "t": 129333.20400000132,
      "d": 552.0827812500211,
      "v": 78
    },
    {
      "midi": 48,
      "hit": false,
      "t": 129333.20400000132,
      "d": 1111.1100000000442,
      "v": 71
    },
    {
      "midi": 36,
      "hit": false,
      "t": 129666.53700000027,
      "d": 711.8048437499965,
      "v": 95
    },
    {
      "midi": 55,
      "hit": false,
      "t": 129888.75900000134,
      "d": 218.7497812500078,
      "v": 75
    },
    {
      "midi": 58,
      "hit": false,
      "t": 129999.87000000135,
      "d": 378.47184375001234,
      "v": 85
    },
    {
      "midi": 63,
      "hit": false,
      "t": 129999.87000000135,
      "d": 385.41628125001444,
      "v": 96
    },
    {
      "midi": 60,
      "hit": false,
      "t": 129999.87000000135,
      "d": 388.8885000000155,
      "v": 85
    },
    {
      "midi": 36,
      "hit": false,
      "t": 130222.09200000136,
      "d": 243.05531250001513,
      "v": 82
    },
    {
      "midi": 55,
      "hit": false,
      "t": 130222.09200000136,
      "d": 243.05531250001513,
      "v": 96
    },
    {
      "midi": 36,
      "hit": false,
      "t": 130555.42500000026,
      "d": 107.63878125000338,
      "v": 92
    },
    {
      "midi": 34,
      "hit": false,
      "t": 130666.53600000027,
      "d": 1048.6100625000108,
      "v": 100
    },
    {
      "midi": 53,
      "hit": false,
      "t": 130666.53600000138,
      "d": 454.86065625002084,
      "v": 75
    },
    {
      "midi": 56,
      "hit": false,
      "t": 130666.53600000138,
      "d": 541.6661250000034,
      "v": 72
    },
    {
      "midi": 61,
      "hit": false,
      "t": 130666.53600000138,
      "d": 541.6661250000034,
      "v": 72
    },
    {
      "midi": 58,
      "hit": false,
      "t": 130666.53600000138,
      "d": 576.3883124999847,
      "v": 71
    },
    {
      "midi": 34,
      "hit": false,
      "t": 130666.53600000138,
      "d": 624.9993749999703,
      "v": 65
    },
    {
      "midi": 46,
      "hit": false,
      "t": 130666.53600000138,
      "d": 1152.776624999984,
      "v": 60
    },
    {
      "midi": 53,
      "hit": false,
      "t": 131222.09100000138,
      "d": 274.3052812499809,
      "v": 78
    },
    {
      "midi": 56,
      "hit": false,
      "t": 131333.20200000136,
      "d": 444.4439999999886,
      "v": 93
    },
    {
      "midi": 61,
      "hit": false,
      "t": 131333.20200000136,
      "d": 458.3328749999928,
      "v": 96
    },
    {
      "midi": 58,
      "hit": false,
      "t": 131333.20200000136,
      "d": 472.221749999997,
      "v": 96
    },
    {
      "midi": 34,
      "hit": false,
      "t": 131555.42400000137,
      "d": 249.99974999998813,
      "v": 90
    },
    {
      "midi": 53,
      "hit": false,
      "t": 131555.42400000137,
      "d": 274.3052812499809,
      "v": 78
    },
    {
      "midi": 34,
      "hit": false,
      "t": 131888.75700000027,
      "d": 107.63878124998882,
      "v": 102
    },
    {
      "midi": 39,
      "hit": false,
      "t": 131999.86800000025,
      "d": 329.8607812499977,
      "v": 96
    },
    {
      "midi": 53,
      "hit": false,
      "t": 131999.86800000136,
      "d": 288.1941562500142,
      "v": 67
    },
    {
      "midi": 56,
      "hit": false,
      "t": 131999.86800000136,
      "d": 506.94393750000745,
      "v": 67
    },
    {
      "midi": 61,
      "hit": false,
      "t": 131999.86800000136,
      "d": 517.360593749996,
      "v": 70
    },
    {
      "midi": 58,
      "hit": false,
      "t": 131999.86800000136,
      "d": 538.1939062500023,
      "v": 65
    },
    {
      "midi": 51,
      "hit": false,
      "t": 131999.86800000136,
      "d": 1010.4156562499702,
      "v": 85
    },
    {
      "midi": 39,
      "hit": false,
      "t": 131999.86800000136,
      "d": 1027.7767499999609,
      "v": 50
    },
    {
      "midi": 39,
      "hit": false,
      "t": 132333.20100000023,
      "d": 545.1383437500044,
      "v": 102
    },
    {
      "midi": 53,
      "hit": false,
      "t": 132555.42300000135,
      "d": 152.7776249999879,
      "v": 82
    },
    {
      "midi": 56,
      "hit": false,
      "t": 132666.53400000132,
      "d": 284.7219375000277,
      "v": 100
    },
    {
      "midi": 58,
      "hit": false,
      "t": 132666.53400000132,
      "d": 312.4996875000361,
      "v": 100
    },
    {
      "midi": 61,
      "hit": false,
      "t": 132666.53400000132,
      "d": 315.9719062500226,
      "v": 96
    },
    {
      "midi": 44,
      "hit": false,
      "t": 132888.75600000023,
      "d": 218.74978124999325,
      "v": 116
    },
    {
      "midi": 53,
      "hit": false,
      "t": 132888.75600000133,
      "d": 104.16656250000233,
      "v": 91
    },
    {
      "midi": 41,
      "hit": false,
      "t": 133110.9780000002,
      "d": 100.69434374998673,
      "v": 96
    },
    {
      "midi": 53,
      "hit": false,
      "t": 133110.9780000013,
      "d": 104.16656250000233,
      "v": 91
    },
    {
      "midi": 39,
      "hit": false,
      "t": 133222.08900000018,
      "d": 100.69434374998673,
      "v": 96
    },
    {
      "midi": 32,
      "hit": false,
      "t": 133333.20000000016,
      "d": 1218.748781250004,
      "v": 100
    },
    {
      "midi": 56,
      "hit": false,
      "t": 133333.20000000132,
      "d": 406.2495937499916,
      "v": 88
    },
    {
      "midi": 63,
      "hit": false,
      "t": 133333.20000000132,
      "d": 517.360593749996,
      "v": 78
    },
    {
      "midi": 60,
      "hit": false,
      "t": 133333.20000000132,
      "d": 538.1939062500023,
      "v": 82
    },
    {
      "midi": 32,
      "hit": false,
      "t": 133333.20000000132,
      "d": 857.6380312500114,
      "v": 76
    },
    {
      "midi": 44,
      "hit": false,
      "t": 133333.20000000132,
      "d": 881.9435625000042,
      "v": 77
    },
    {
      "midi": 56,
      "hit": false,
      "t": 133888.7550000013,
      "d": 65.97215625000536,
      "v": 78
    },
    {
      "midi": 56,
      "hit": false,
      "t": 133999.86600000132,
      "d": 27.777750000008382,
      "v": 43
    },
    {
      "midi": 60,
      "hit": false,
      "t": 133999.86600000132,
      "d": 211.80534375002026,
      "v": 85
    },
    {
      "midi": 63,
      "hit": false,
      "t": 133999.86600000132,
      "d": 225.69421874999534,
      "v": 96
    },
    {
      "midi": 56,
      "hit": false,
      "t": 134222.08800000133,
      "d": 97.22212500000023,
      "v": 96
    },
    {
      "midi": 32,
      "hit": false,
      "t": 134555.42100000015,
      "d": 107.63878124998882,
      "v": 93
    },
    {
      "midi": 36,
      "hit": false,
      "t": 134666.53200000012,
      "d": 329.8607812499977,
      "v": 100
    },
    {
      "midi": 55,
      "hit": false,
      "t": 134666.53200000132,
      "d": 409.7218125000072,
      "v": 73
    },
    {
      "midi": 58,
      "hit": false,
      "t": 134666.53200000132,
      "d": 503.47171874999185,
      "v": 66
    },
    {
      "midi": 63,
      "hit": false,
      "t": 134666.53200000132,
      "d": 517.360593749996,
      "v": 61
    },
    {
      "midi": 60,
      "hit": false,
      "t": 134666.53200000132,
      "d": 531.2494687500002,
      "v": 69
    },
    {
      "midi": 36,
      "hit": false,
      "t": 134666.53200000132,
      "d": 552.0827812500065,
      "v": 78
    },
    {
      "midi": 48,
      "hit": false,
      "t": 134666.53200000132,
      "d": 1111.109999999957,
      "v": 71
    },
    {
      "midi": 36,
      "hit": false,
      "t": 134999.8650000001,
      "d": 711.8048437499965,
      "v": 95
    },
    {
      "midi": 55,
      "hit": false,
      "t": 135222.0870000013,
      "d": 218.74978124999325,
      "v": 75
    },
    {
      "midi": 58,
      "hit": false,
      "t": 135333.1980000013,
      "d": 378.47184374998324,
      "v": 85
    },
    {
      "midi": 63,
      "hit": false,
      "t": 135333.1980000013,
      "d": 385.41628124998533,
      "v": 96
    },
    {
      "midi": 60,
      "hit": false,
      "t": 135333.1980000013,
      "d": 388.8884999999718,
      "v": 85
    },
    {
      "midi": 36,
      "hit": false,
      "t": 135555.4200000013,
      "d": 243.05531249998603,
      "v": 82
    },
    {
      "midi": 55,
      "hit": false,
      "t": 135555.4200000013,
      "d": 243.05531249998603,
      "v": 96
    },
    {
      "midi": 36,
      "hit": false,
      "t": 135888.7530000001,
      "d": 107.63878124998882,
      "v": 92
    },
    {
      "midi": 34,
      "hit": false,
      "t": 135999.8640000001,
      "d": 1048.6100624999963,
      "v": 100
    },
    {
      "midi": 53,
      "hit": false,
      "t": 135999.86400000125,
      "d": 454.8606562500063,
      "v": 75
    },
    {
      "midi": 56,
      "hit": false,
      "t": 135999.86400000125,
      "d": 541.6661249999888,
      "v": 72
    },
    {
      "midi": 61,
      "hit": false,
      "t": 135999.86400000125,
      "d": 541.6661249999888,
      "v": 72
    },
    {
      "midi": 58,
      "hit": false,
      "t": 135999.86400000125,
      "d": 576.3883124999702,
      "v": 71
    },
    {
      "midi": 34,
      "hit": false,
      "t": 135999.86400000125,
      "d": 624.9993749999558,
      "v": 65
    },
    {
      "midi": 46,
      "hit": false,
      "t": 135999.86400000125,
      "d": 1152.7766249999695,
      "v": 60
    },
    {
      "midi": 53,
      "hit": false,
      "t": 136555.41900000125,
      "d": 274.3052812499809,
      "v": 78
    },
    {
      "midi": 56,
      "hit": false,
      "t": 136666.53000000122,
      "d": 444.4439999999886,
      "v": 93
    },
    {
      "midi": 61,
      "hit": false,
      "t": 136666.53000000122,
      "d": 458.3328749999928,
      "v": 96
    },
    {
      "midi": 58,
      "hit": false,
      "t": 136666.53000000122,
      "d": 472.221749999997,
      "v": 96
    },
    {
      "midi": 34,
      "hit": false,
      "t": 136888.75200000123,
      "d": 249.99974999998813,
      "v": 90
    },
    {
      "midi": 53,
      "hit": false,
      "t": 136888.75200000123,
      "d": 274.3052812499809,
      "v": 78
    },
    {
      "midi": 34,
      "hit": false,
      "t": 137222.08500000008,
      "d": 107.63878124998882,
      "v": 102
    },
    {
      "midi": 39,
      "hit": false,
      "t": 137333.19600000005,
      "d": 329.8607812499977,
      "v": 96
    },
    {
      "midi": 53,
      "hit": false,
      "t": 137333.19600000122,
      "d": 288.1941562500142,
      "v": 67
    },
    {
      "midi": 56,
      "hit": false,
      "t": 137333.19600000122,
      "d": 506.94393750000745,
      "v": 67
    },
    {
      "midi": 61,
      "hit": false,
      "t": 137333.19600000122,
      "d": 517.360593749996,
      "v": 70
    },
    {
      "midi": 58,
      "hit": false,
      "t": 137333.19600000122,
      "d": 538.1939062500023,
      "v": 65
    },
    {
      "midi": 51,
      "hit": false,
      "t": 137333.19600000122,
      "d": 1010.4156562499702,
      "v": 85
    },
    {
      "midi": 39,
      "hit": false,
      "t": 137333.19600000122,
      "d": 1027.7767499999609,
      "v": 50
    },
    {
      "midi": 39,
      "hit": false,
      "t": 137666.52900000004,
      "d": 545.1383437500044,
      "v": 102
    },
    {
      "midi": 53,
      "hit": false,
      "t": 137888.7510000012,
      "d": 152.7776249999879,
      "v": 82
    },
    {
      "midi": 56,
      "hit": false,
      "t": 137999.8620000012,
      "d": 284.7219375000277,
      "v": 100
    },
    {
      "midi": 58,
      "hit": false,
      "t": 137999.8620000012,
      "d": 312.4996875000361,
      "v": 100
    },
    {
      "midi": 61,
      "hit": false,
      "t": 137999.8620000012,
      "d": 315.9719062500226,
      "v": 96
    },
    {
      "midi": 44,
      "hit": false,
      "t": 138222.08400000003,
      "d": 218.74978124999325,
      "v": 116
    },
    {
      "midi": 53,
      "hit": false,
      "t": 138222.0840000012,
      "d": 104.16656250000233,
      "v": 91
    },
    {
      "midi": 41,
      "hit": false,
      "t": 138444.306,
      "d": 100.69434374998673,
      "v": 96
    },
    {
      "midi": 53,
      "hit": false,
      "t": 138444.30600000118,
      "d": 104.16656250000233,
      "v": 91
    },
    {
      "midi": 39,
      "hit": false,
      "t": 138555.417,
      "d": 100.69434374998673,
      "v": 96
    },
    {
      "midi": 32,
      "hit": false,
      "t": 138666.52799999996,
      "d": 1218.748781250004,
      "v": 100
    },
    {
      "midi": 56,
      "hit": false,
      "t": 138666.52800000118,
      "d": 406.2495937499916,
      "v": 88
    },
    {
      "midi": 63,
      "hit": false,
      "t": 138666.52800000118,
      "d": 517.360593749996,
      "v": 78
    },
    {
      "midi": 60,
      "hit": false,
      "t": 138666.52800000118,
      "d": 538.1939062500023,
      "v": 82
    },
    {
      "midi": 32,
      "hit": false,
      "t": 138666.52800000118,
      "d": 857.6380312500114,
      "v": 76
    },
    {
      "midi": 44,
      "hit": false,
      "t": 138666.52800000118,
      "d": 881.9435625000042,
      "v": 77
    },
    {
      "midi": 56,
      "hit": false,
      "t": 139222.08300000118,
      "d": 65.97215625000536,
      "v": 78
    },
    {
      "midi": 56,
      "hit": false,
      "t": 139333.19400000118,
      "d": 27.777750000008382,
      "v": 43
    },
    {
      "midi": 60,
      "hit": false,
      "t": 139333.19400000118,
      "d": 211.80534375002026,
      "v": 85
    },
    {
      "midi": 63,
      "hit": false,
      "t": 139333.19400000118,
      "d": 225.69421874999534,
      "v": 96
    },
    {
      "midi": 56,
      "hit": false,
      "t": 139555.4160000012,
      "d": 97.22212500000023,
      "v": 96
    },
    {
      "midi": 32,
      "hit": false,
      "t": 139888.74899999995,
      "d": 107.63878124998882,
      "v": 93
    },
    {
      "midi": 36,
      "hit": false,
      "t": 139999.85999999993,
      "d": 329.8607812499977,
      "v": 100
    },
    {
      "midi": 55,
      "hit": false,
      "t": 139999.86000000118,
      "d": 409.7218125000072,
      "v": 73
    },
    {
      "midi": 58,
      "hit": false,
      "t": 139999.86000000118,
      "d": 503.47171874999185,
      "v": 66
    },
    {
      "midi": 63,
      "hit": false,
      "t": 139999.86000000118,
      "d": 517.360593749996,
      "v": 61
    },
    {
      "midi": 60,
      "hit": false,
      "t": 139999.86000000118,
      "d": 531.2494687500002,
      "v": 69
    },
    {
      "midi": 36,
      "hit": false,
      "t": 139999.86000000118,
      "d": 552.0827812500065,
      "v": 78
    },
    {
      "midi": 48,
      "hit": false,
      "t": 139999.86000000118,
      "d": 1111.109999999957,
      "v": 71
    },
    {
      "midi": 36,
      "hit": false,
      "t": 140333.1929999999,
      "d": 711.8048437499965,
      "v": 95
    },
    {
      "midi": 55,
      "hit": false,
      "t": 140555.41500000117,
      "d": 218.74978124999325,
      "v": 75
    },
    {
      "midi": 58,
      "hit": false,
      "t": 140666.52600000118,
      "d": 378.47184374998324,
      "v": 85
    },
    {
      "midi": 63,
      "hit": false,
      "t": 140666.52600000118,
      "d": 385.41628124998533,
      "v": 96
    },
    {
      "midi": 60,
      "hit": false,
      "t": 140666.52600000118,
      "d": 388.8884999999718,
      "v": 85
    },
    {
      "midi": 36,
      "hit": false,
      "t": 140888.74800000116,
      "d": 243.05531249998603,
      "v": 82
    },
    {
      "midi": 55,
      "hit": false,
      "t": 140888.74800000116,
      "d": 243.05531249998603,
      "v": 96
    },
    {
      "midi": 36,
      "hit": false,
      "t": 141222.08099999992,
      "d": 107.63878124998882,
      "v": 92
    },
    {
      "midi": 34,
      "hit": false,
      "t": 141333.1919999999,
      "d": 1048.6100624999963,
      "v": 100
    },
    {
      "midi": 53,
      "hit": false,
      "t": 141333.19200000112,
      "d": 454.8606562500063,
      "v": 75
    },
    {
      "midi": 56,
      "hit": false,
      "t": 141333.19200000112,
      "d": 541.6661249999888,
      "v": 72
    },
    {
      "midi": 61,
      "hit": false,
      "t": 141333.19200000112,
      "d": 541.6661249999888,
      "v": 72
    },
    {
      "midi": 58,
      "hit": false,
      "t": 141333.19200000112,
      "d": 576.3883124999702,
      "v": 71
    },
    {
      "midi": 34,
      "hit": false,
      "t": 141333.19200000112,
      "d": 624.9993749999558,
      "v": 65
    },
    {
      "midi": 46,
      "hit": false,
      "t": 141333.19200000112,
      "d": 1152.7766249999695,
      "v": 60
    },
    {
      "midi": 53,
      "hit": false,
      "t": 141888.7470000011,
      "d": 274.3052812499809,
      "v": 78
    },
    {
      "midi": 56,
      "hit": false,
      "t": 141999.85800000108,
      "d": 444.4439999999886,
      "v": 93
    },
    {
      "midi": 61,
      "hit": false,
      "t": 141999.85800000108,
      "d": 458.3328749999928,
      "v": 96
    },
    {
      "midi": 58,
      "hit": false,
      "t": 141999.85800000108,
      "d": 472.221749999997,
      "v": 96
    },
    {
      "midi": 34,
      "hit": false,
      "t": 142222.0800000011,
      "d": 249.99974999998813,
      "v": 90
    },
    {
      "midi": 53,
      "hit": false,
      "t": 142222.0800000011,
      "d": 274.3052812499809,
      "v": 78
    },
    {
      "midi": 34,
      "hit": false,
      "t": 142555.41299999988,
      "d": 107.63878124998882,
      "v": 102
    },
    {
      "midi": 39,
      "hit": false,
      "t": 142666.52399999986,
      "d": 329.8607812499977,
      "v": 96
    },
    {
      "midi": 53,
      "hit": false,
      "t": 142666.52400000108,
      "d": 288.1941562500142,
      "v": 67
    },
    {
      "midi": 56,
      "hit": false,
      "t": 142666.52400000108,
      "d": 506.94393750000745,
      "v": 67
    },
    {
      "midi": 61,
      "hit": false,
      "t": 142666.52400000108,
      "d": 517.360593749996,
      "v": 70
    },
    {
      "midi": 58,
      "hit": false,
      "t": 142666.52400000108,
      "d": 538.1939062500023,
      "v": 65
    },
    {
      "midi": 51,
      "hit": false,
      "t": 142666.52400000108,
      "d": 1010.4156562499702,
      "v": 85
    },
    {
      "midi": 39,
      "hit": false,
      "t": 142666.52400000108,
      "d": 1027.7767499999609,
      "v": 50
    },
    {
      "midi": 39,
      "hit": false,
      "t": 142999.85699999984,
      "d": 545.1383437500044,
      "v": 102
    },
    {
      "midi": 53,
      "hit": false,
      "t": 143222.07900000107,
      "d": 152.7776249999879,
      "v": 82
    },
    {
      "midi": 56,
      "hit": false,
      "t": 143333.19000000105,
      "d": 284.7219375000277,
      "v": 100
    },
    {
      "midi": 58,
      "hit": false,
      "t": 143333.19000000105,
      "d": 312.4996875000361,
      "v": 100
    },
    {
      "midi": 61,
      "hit": false,
      "t": 143333.19000000105,
      "d": 315.9719062500226,
      "v": 96
    },
    {
      "midi": 44,
      "hit": false,
      "t": 143555.41199999984,
      "d": 218.74978124999325,
      "v": 116
    },
    {
      "midi": 53,
      "hit": false,
      "t": 143555.41200000106,
      "d": 104.16656250000233,
      "v": 91
    },
    {
      "midi": 41,
      "hit": false,
      "t": 143777.63399999982,
      "d": 100.69434374998673,
      "v": 96
    },
    {
      "midi": 53,
      "hit": false,
      "t": 143777.63400000104,
      "d": 104.16656250000233,
      "v": 91
    },
    {
      "midi": 39,
      "hit": false,
      "t": 143888.7449999998,
      "d": 100.69434374998673,
      "v": 96
    },
    {
      "midi": 32,
      "hit": false,
      "t": 143999.85599999977,
      "d": 1218.748781250004,
      "v": 100
    },
    {
      "midi": 56,
      "hit": false,
      "t": 143999.85600000105,
      "d": 406.2495937499916,
      "v": 88
    },
    {
      "midi": 63,
      "hit": false,
      "t": 143999.85600000105,
      "d": 517.360593749996,
      "v": 78
    },
    {
      "midi": 60,
      "hit": false,
      "t": 143999.85600000105,
      "d": 538.1939062500023,
      "v": 82
    },
    {
      "midi": 32,
      "hit": false,
      "t": 143999.85600000105,
      "d": 857.6380312500114,
      "v": 76
    },
    {
      "midi": 44,
      "hit": false,
      "t": 143999.85600000105,
      "d": 881.9435625000042,
      "v": 77
    },
    {
      "midi": 56,
      "hit": false,
      "t": 144555.41100000104,
      "d": 65.97215625000536,
      "v": 78
    },
    {
      "midi": 56,
      "hit": false,
      "t": 144666.52200000104,
      "d": 27.777750000008382,
      "v": 43
    },
    {
      "midi": 60,
      "hit": false,
      "t": 144666.52200000104,
      "d": 211.80534375002026,
      "v": 85
    },
    {
      "midi": 63,
      "hit": false,
      "t": 144666.52200000104,
      "d": 225.69421874999534,
      "v": 96
    },
    {
      "midi": 56,
      "hit": false,
      "t": 144888.74400000105,
      "d": 97.22212500000023,
      "v": 96
    },
    {
      "midi": 32,
      "hit": false,
      "t": 145222.07699999976,
      "d": 107.63878124998882,
      "v": 93
    },
    {
      "midi": 36,
      "hit": false,
      "t": 145333.18799999973,
      "d": 329.8607812499977,
      "v": 100
    },
    {
      "midi": 55,
      "hit": false,
      "t": 145333.18800000104,
      "d": 409.7218125000072,
      "v": 73
    },
    {
      "midi": 58,
      "hit": false,
      "t": 145333.18800000104,
      "d": 503.47171874999185,
      "v": 66
    },
    {
      "midi": 63,
      "hit": false,
      "t": 145333.18800000104,
      "d": 517.360593749996,
      "v": 61
    },
    {
      "midi": 60,
      "hit": false,
      "t": 145333.18800000104,
      "d": 531.2494687500002,
      "v": 69
    },
    {
      "midi": 36,
      "hit": false,
      "t": 145333.18800000104,
      "d": 552.0827812500065,
      "v": 78
    },
    {
      "midi": 48,
      "hit": false,
      "t": 145333.18800000104,
      "d": 1111.109999999957,
      "v": 71
    },
    {
      "midi": 36,
      "hit": false,
      "t": 145666.52099999972,
      "d": 711.8048437499965,
      "v": 95
    },
    {
      "midi": 55,
      "hit": false,
      "t": 145888.74300000104,
      "d": 218.74978124999325,
      "v": 75
    },
    {
      "midi": 58,
      "hit": false,
      "t": 145999.85400000104,
      "d": 378.47184374998324,
      "v": 85
    },
    {
      "midi": 63,
      "hit": false,
      "t": 145999.85400000104,
      "d": 385.41628124998533,
      "v": 96
    },
    {
      "midi": 60,
      "hit": false,
      "t": 145999.85400000104,
      "d": 388.8884999999718,
      "v": 85
    },
    {
      "midi": 36,
      "hit": false,
      "t": 146222.07600000102,
      "d": 243.05531249998603,
      "v": 82
    },
    {
      "midi": 55,
      "hit": false,
      "t": 146222.07600000102,
      "d": 243.05531249998603,
      "v": 96
    },
    {
      "midi": 36,
      "hit": false,
      "t": 146555.40899999972,
      "d": 107.63878124998882,
      "v": 92
    },
    {
      "midi": 34,
      "hit": false,
      "t": 146666.5199999997,
      "d": 1048.6100624999963,
      "v": 100
    },
    {
      "midi": 53,
      "hit": false,
      "t": 146666.52000000098,
      "d": 454.8606562500063,
      "v": 75
    },
    {
      "midi": 56,
      "hit": false,
      "t": 146666.52000000098,
      "d": 541.6661249999888,
      "v": 72
    },
    {
      "midi": 61,
      "hit": false,
      "t": 146666.52000000098,
      "d": 541.6661249999888,
      "v": 72
    },
    {
      "midi": 58,
      "hit": false,
      "t": 146666.52000000098,
      "d": 576.3883124999702,
      "v": 71
    },
    {
      "midi": 34,
      "hit": false,
      "t": 146666.52000000098,
      "d": 624.9993749999558,
      "v": 65
    },
    {
      "midi": 46,
      "hit": false,
      "t": 146666.52000000098,
      "d": 1152.7766249999695,
      "v": 60
    },
    {
      "midi": 53,
      "hit": false,
      "t": 147222.07500000097,
      "d": 274.3052812499809,
      "v": 78
    },
    {
      "midi": 56,
      "hit": false,
      "t": 147333.18600000095,
      "d": 444.4439999999886,
      "v": 93
    },
    {
      "midi": 61,
      "hit": false,
      "t": 147333.18600000095,
      "d": 458.3328749999928,
      "v": 96
    },
    {
      "midi": 58,
      "hit": false,
      "t": 147333.18600000095,
      "d": 472.221749999997,
      "v": 96
    },
    {
      "midi": 34,
      "hit": false,
      "t": 147555.40800000096,
      "d": 249.99974999998813,
      "v": 90
    },
    {
      "midi": 53,
      "hit": false,
      "t": 147555.40800000096,
      "d": 274.3052812499809,
      "v": 78
    },
    {
      "midi": 34,
      "hit": false,
      "t": 147888.7409999997,
      "d": 107.63878124998882,
      "v": 102
    },
    {
      "midi": 39,
      "hit": false,
      "t": 147999.85199999966,
      "d": 329.8607812499977,
      "v": 96
    },
    {
      "midi": 53,
      "hit": false,
      "t": 147999.85200000094,
      "d": 288.1941562500142,
      "v": 67
    },
    {
      "midi": 56,
      "hit": false,
      "t": 147999.85200000094,
      "d": 506.94393750000745,
      "v": 67
    },
    {
      "midi": 61,
      "hit": false,
      "t": 147999.85200000094,
      "d": 517.360593749996,
      "v": 70
    },
    {
      "midi": 58,
      "hit": false,
      "t": 147999.85200000094,
      "d": 538.1939062500023,
      "v": 65
    },
    {
      "midi": 51,
      "hit": false,
      "t": 147999.85200000094,
      "d": 1010.4156562499702,
      "v": 85
    },
    {
      "midi": 39,
      "hit": false,
      "t": 147999.85200000094,
      "d": 1027.7767499999609,
      "v": 50
    },
    {
      "midi": 39,
      "hit": false,
      "t": 148333.18499999965,
      "d": 545.1383437500044,
      "v": 102
    },
    {
      "midi": 53,
      "hit": false,
      "t": 148555.40700000094,
      "d": 152.7776249999879,
      "v": 82
    },
    {
      "midi": 56,
      "hit": false,
      "t": 148666.5180000009,
      "d": 284.7219375000277,
      "v": 100
    },
    {
      "midi": 58,
      "hit": false,
      "t": 148666.5180000009,
      "d": 312.4996875000361,
      "v": 100
    },
    {
      "midi": 61,
      "hit": false,
      "t": 148666.5180000009,
      "d": 315.9719062500226,
      "v": 96
    },
    {
      "midi": 44,
      "hit": false,
      "t": 148888.73999999964,
      "d": 218.74978124999325,
      "v": 116
    },
    {
      "midi": 53,
      "hit": false,
      "t": 148888.74000000092,
      "d": 104.16656250000233,
      "v": 91
    },
    {
      "midi": 41,
      "hit": false,
      "t": 149110.96199999962,
      "d": 100.69434374998673,
      "v": 96
    },
    {
      "midi": 53,
      "hit": false,
      "t": 149110.9620000009,
      "d": 104.16656250000233,
      "v": 91
    },
    {
      "midi": 39,
      "hit": false,
      "t": 149222.0729999996,
      "d": 100.69434374998673,
      "v": 96
    },
    {
      "midi": 32,
      "hit": false,
      "t": 149333.18399999957,
      "d": 1218.748781250004,
      "v": 100
    },
    {
      "midi": 56,
      "hit": false,
      "t": 149333.1840000009,
      "d": 406.2495937499916,
      "v": 88
    },
    {
      "midi": 63,
      "hit": false,
      "t": 149333.1840000009,
      "d": 517.360593749996,
      "v": 78
    },
    {
      "midi": 60,
      "hit": false,
      "t": 149333.1840000009,
      "d": 538.1939062500023,
      "v": 82
    },
    {
      "midi": 32,
      "hit": false,
      "t": 149333.1840000009,
      "d": 857.6380312500114,
      "v": 76
    },
    {
      "midi": 44,
      "hit": false,
      "t": 149333.1840000009,
      "d": 881.9435625000042,
      "v": 77
    },
    {
      "midi": 56,
      "hit": false,
      "t": 149888.7390000009,
      "d": 65.97215625000536,
      "v": 78
    },
    {
      "midi": 56,
      "hit": false,
      "t": 149999.8500000009,
      "d": 27.777750000008382,
      "v": 43
    },
    {
      "midi": 60,
      "hit": false,
      "t": 149999.8500000009,
      "d": 211.80534375002026,
      "v": 85
    },
    {
      "midi": 63,
      "hit": false,
      "t": 149999.8500000009,
      "d": 225.69421874999534,
      "v": 96
    },
    {
      "midi": 56,
      "hit": false,
      "t": 150222.07200000092,
      "d": 97.22212500000023,
      "v": 96
    },
    {
      "midi": 32,
      "hit": false,
      "t": 150555.40499999956,
      "d": 107.63878124998882,
      "v": 93
    },
    {
      "midi": 36,
      "hit": false,
      "t": 150666.51599999954,
      "d": 329.8607812499977,
      "v": 100
    },
    {
      "midi": 55,
      "hit": false,
      "t": 150666.5160000009,
      "d": 409.7218125000072,
      "v": 73
    },
    {
      "midi": 58,
      "hit": false,
      "t": 150666.5160000009,
      "d": 503.47171874999185,
      "v": 66
    },
    {
      "midi": 63,
      "hit": false,
      "t": 150666.5160000009,
      "d": 517.360593749996,
      "v": 61
    },
    {
      "midi": 60,
      "hit": false,
      "t": 150666.5160000009,
      "d": 531.2494687500002,
      "v": 69
    },
    {
      "midi": 36,
      "hit": false,
      "t": 150666.5160000009,
      "d": 552.0827812500065,
      "v": 78
    },
    {
      "midi": 48,
      "hit": false,
      "t": 150666.5160000009,
      "d": 1111.109999999957,
      "v": 71
    },
    {
      "midi": 36,
      "hit": false,
      "t": 150999.84899999952,
      "d": 711.8048437499965,
      "v": 95
    },
    {
      "midi": 55,
      "hit": false,
      "t": 151222.0710000009,
      "d": 218.74978124999325,
      "v": 75
    },
    {
      "midi": 58,
      "hit": false,
      "t": 151333.1820000009,
      "d": 378.47184374998324,
      "v": 85
    },
    {
      "midi": 63,
      "hit": false,
      "t": 151333.1820000009,
      "d": 385.41628124998533,
      "v": 96
    },
    {
      "midi": 60,
      "hit": false,
      "t": 151333.1820000009,
      "d": 388.8884999999718,
      "v": 85
    },
    {
      "midi": 36,
      "hit": false,
      "t": 151555.40400000088,
      "d": 243.05531249998603,
      "v": 82
    },
    {
      "midi": 55,
      "hit": false,
      "t": 151555.40400000088,
      "d": 243.05531249998603,
      "v": 96
    },
    {
      "midi": 36,
      "hit": false,
      "t": 151888.73699999953,
      "d": 107.63878124998882,
      "v": 92
    },
    {
      "midi": 34,
      "hit": false,
      "t": 151999.8479999995,
      "d": 1048.6100624999963,
      "v": 100
    },
    {
      "midi": 53,
      "hit": false,
      "t": 151999.84800000084,
      "d": 454.8606562500063,
      "v": 75
    },
    {
      "midi": 56,
      "hit": false,
      "t": 151999.84800000084,
      "d": 541.6661249999888,
      "v": 72
    },
    {
      "midi": 61,
      "hit": false,
      "t": 151999.84800000084,
      "d": 541.6661249999888,
      "v": 72
    },
    {
      "midi": 58,
      "hit": false,
      "t": 151999.84800000084,
      "d": 576.3883124999702,
      "v": 71
    },
    {
      "midi": 34,
      "hit": false,
      "t": 151999.84800000084,
      "d": 624.9993749999558,
      "v": 65
    },
    {
      "midi": 46,
      "hit": false,
      "t": 151999.84800000084,
      "d": 1152.7766249999695,
      "v": 60
    },
    {
      "midi": 53,
      "hit": false,
      "t": 152555.40300000084,
      "d": 274.3052812499809,
      "v": 78
    },
    {
      "midi": 56,
      "hit": false,
      "t": 152666.5140000008,
      "d": 444.4439999999886,
      "v": 93
    },
    {
      "midi": 61,
      "hit": false,
      "t": 152666.5140000008,
      "d": 458.3328749999928,
      "v": 96
    },
    {
      "midi": 58,
      "hit": false,
      "t": 152666.5140000008,
      "d": 472.221749999997,
      "v": 96
    },
    {
      "midi": 34,
      "hit": false,
      "t": 152888.73600000082,
      "d": 249.99974999998813,
      "v": 90
    },
    {
      "midi": 53,
      "hit": false,
      "t": 152888.73600000082,
      "d": 274.3052812499809,
      "v": 78
    },
    {
      "midi": 34,
      "hit": false,
      "t": 153222.0689999995,
      "d": 107.63878124998882,
      "v": 102
    },
    {
      "midi": 39,
      "hit": false,
      "t": 153333.17999999947,
      "d": 329.8607812499977,
      "v": 96
    },
    {
      "midi": 53,
      "hit": false,
      "t": 153333.1800000008,
      "d": 288.1941562500142,
      "v": 67
    },
    {
      "midi": 56,
      "hit": false,
      "t": 153333.1800000008,
      "d": 506.94393750000745,
      "v": 67
    },
    {
      "midi": 61,
      "hit": false,
      "t": 153333.1800000008,
      "d": 517.360593749996,
      "v": 70
    },
    {
      "midi": 58,
      "hit": false,
      "t": 153333.1800000008,
      "d": 538.1939062500023,
      "v": 65
    },
    {
      "midi": 51,
      "hit": false,
      "t": 153333.1800000008,
      "d": 1010.4156562499702,
      "v": 85
    },
    {
      "midi": 39,
      "hit": false,
      "t": 153333.1800000008,
      "d": 1027.7767499999609,
      "v": 50
    },
    {
      "midi": 39,
      "hit": false,
      "t": 153666.51299999945,
      "d": 545.1383437500044,
      "v": 102
    },
    {
      "midi": 53,
      "hit": false,
      "t": 153888.7350000008,
      "d": 152.7776249999879,
      "v": 82
    },
    {
      "midi": 56,
      "hit": false,
      "t": 153999.84600000078,
      "d": 284.7219375000277,
      "v": 100
    },
    {
      "midi": 58,
      "hit": false,
      "t": 153999.84600000078,
      "d": 312.4996875000361,
      "v": 100
    },
    {
      "midi": 61,
      "hit": false,
      "t": 153999.84600000078,
      "d": 315.9719062500226,
      "v": 96
    },
    {
      "midi": 44,
      "hit": false,
      "t": 154222.06799999945,
      "d": 218.74978124999325,
      "v": 116
    },
    {
      "midi": 53,
      "hit": false,
      "t": 154222.06800000079,
      "d": 104.16656250000233,
      "v": 91
    },
    {
      "midi": 41,
      "hit": false,
      "t": 154444.28999999943,
      "d": 100.69434374998673,
      "v": 96
    },
    {
      "midi": 53,
      "hit": false,
      "t": 154444.29000000076,
      "d": 104.16656250000233,
      "v": 91
    },
    {
      "midi": 39,
      "hit": false,
      "t": 154555.4009999994,
      "d": 100.69434374998673,
      "v": 96
    },
    {
      "midi": 32,
      "hit": false,
      "t": 154666.51199999938,
      "d": 1218.748781250004,
      "v": 100
    },
    {
      "midi": 56,
      "hit": false,
      "t": 154666.51200000077,
      "d": 406.2495937499916,
      "v": 88
    },
    {
      "midi": 63,
      "hit": false,
      "t": 154666.51200000077,
      "d": 517.360593749996,
      "v": 78
    },
    {
      "midi": 60,
      "hit": false,
      "t": 154666.51200000077,
      "d": 538.1939062500023,
      "v": 82
    },
    {
      "midi": 32,
      "hit": false,
      "t": 154666.51200000077,
      "d": 857.6380312500114,
      "v": 76
    },
    {
      "midi": 44,
      "hit": false,
      "t": 154666.51200000077,
      "d": 881.9435625000042,
      "v": 77
    },
    {
      "midi": 56,
      "hit": false,
      "t": 155222.06700000077,
      "d": 65.97215625000536,
      "v": 78
    },
    {
      "midi": 56,
      "hit": false,
      "t": 155333.17800000077,
      "d": 27.777750000008382,
      "v": 43
    },
    {
      "midi": 60,
      "hit": false,
      "t": 155333.17800000077,
      "d": 211.80534375002026,
      "v": 85
    },
    {
      "midi": 63,
      "hit": false,
      "t": 155333.17800000077,
      "d": 225.69421874999534,
      "v": 96
    },
    {
      "midi": 56,
      "hit": false,
      "t": 155555.40000000078,
      "d": 97.22212500000023,
      "v": 96
    },
    {
      "midi": 32,
      "hit": false,
      "t": 155888.73299999937,
      "d": 107.63878124998882,
      "v": 93
    },
    {
      "midi": 36,
      "hit": false,
      "t": 155999.84399999934,
      "d": 329.8607812499977,
      "v": 100
    },
    {
      "midi": 55,
      "hit": false,
      "t": 155999.84400000077,
      "d": 409.7218125000072,
      "v": 73
    },
    {
      "midi": 58,
      "hit": false,
      "t": 155999.84400000077,
      "d": 503.47171874999185,
      "v": 66
    },
    {
      "midi": 63,
      "hit": false,
      "t": 155999.84400000077,
      "d": 517.360593749996,
      "v": 61
    },
    {
      "midi": 60,
      "hit": false,
      "t": 155999.84400000077,
      "d": 531.2494687500002,
      "v": 69
    },
    {
      "midi": 36,
      "hit": false,
      "t": 155999.84400000077,
      "d": 552.0827812500065,
      "v": 78
    },
    {
      "midi": 48,
      "hit": false,
      "t": 155999.84400000077,
      "d": 1111.109999999957,
      "v": 71
    },
    {
      "midi": 36,
      "hit": false,
      "t": 156333.17699999933,
      "d": 711.8048437499965,
      "v": 95
    },
    {
      "midi": 55,
      "hit": false,
      "t": 156555.39900000076,
      "d": 218.74978124999325,
      "v": 75
    },
    {
      "midi": 58,
      "hit": false,
      "t": 156666.51000000077,
      "d": 378.47184374998324,
      "v": 85
    },
    {
      "midi": 63,
      "hit": false,
      "t": 156666.51000000077,
      "d": 385.41628124998533,
      "v": 96
    },
    {
      "midi": 60,
      "hit": false,
      "t": 156666.51000000077,
      "d": 388.8884999999718,
      "v": 85
    },
    {
      "midi": 36,
      "hit": false,
      "t": 156888.73200000075,
      "d": 243.05531249998603,
      "v": 82
    },
    {
      "midi": 55,
      "hit": false,
      "t": 156888.73200000075,
      "d": 243.05531249998603,
      "v": 96
    },
    {
      "midi": 36,
      "hit": false,
      "t": 157222.06499999933,
      "d": 107.63878124998882,
      "v": 92
    },
    {
      "midi": 34,
      "hit": false,
      "t": 157333.1759999993,
      "d": 1048.6100624999963,
      "v": 100
    },
    {
      "midi": 53,
      "hit": false,
      "t": 157333.1760000007,
      "d": 454.8606562500063,
      "v": 75
    },
    {
      "midi": 56,
      "hit": false,
      "t": 157333.1760000007,
      "d": 541.6661249999888,
      "v": 72
    },
    {
      "midi": 61,
      "hit": false,
      "t": 157333.1760000007,
      "d": 541.6661249999888,
      "v": 72
    },
    {
      "midi": 58,
      "hit": false,
      "t": 157333.1760000007,
      "d": 576.3883124999702,
      "v": 71
    },
    {
      "midi": 34,
      "hit": false,
      "t": 157333.1760000007,
      "d": 624.9993749999558,
      "v": 65
    },
    {
      "midi": 46,
      "hit": false,
      "t": 157333.1760000007,
      "d": 1152.7766249999695,
      "v": 60
    },
    {
      "midi": 53,
      "hit": false,
      "t": 157888.7310000007,
      "d": 274.3052812499809,
      "v": 78
    },
    {
      "midi": 56,
      "hit": false,
      "t": 157999.84200000067,
      "d": 444.4439999999886,
      "v": 93
    },
    {
      "midi": 61,
      "hit": false,
      "t": 157999.84200000067,
      "d": 458.3328749999928,
      "v": 96
    },
    {
      "midi": 58,
      "hit": false,
      "t": 157999.84200000067,
      "d": 472.221749999997,
      "v": 96
    },
    {
      "midi": 34,
      "hit": false,
      "t": 158222.06400000068,
      "d": 249.99974999998813,
      "v": 90
    },
    {
      "midi": 53,
      "hit": false,
      "t": 158222.06400000068,
      "d": 274.3052812499809,
      "v": 78
    },
    {
      "midi": 34,
      "hit": false,
      "t": 158555.3969999993,
      "d": 107.63878124998882,
      "v": 102
    },
    {
      "midi": 39,
      "hit": false,
      "t": 158666.50799999927,
      "d": 329.8607812499977,
      "v": 96
    },
    {
      "midi": 53,
      "hit": false,
      "t": 158666.50800000067,
      "d": 288.1941562500142,
      "v": 67
    },
    {
      "midi": 56,
      "hit": false,
      "t": 158666.50800000067,
      "d": 506.94393750000745,
      "v": 67
    },
    {
      "midi": 61,
      "hit": false,
      "t": 158666.50800000067,
      "d": 517.360593749996,
      "v": 70
    },
    {
      "midi": 58,
      "hit": false,
      "t": 158666.50800000067,
      "d": 538.1939062500023,
      "v": 65
    },
    {
      "midi": 51,
      "hit": false,
      "t": 158666.50800000067,
      "d": 1010.4156562499702,
      "v": 85
    },
    {
      "midi": 39,
      "hit": false,
      "t": 158666.50800000067,
      "d": 1027.7767499999609,
      "v": 50
    },
    {
      "midi": 39,
      "hit": false,
      "t": 158999.84099999926,
      "d": 545.1383437500044,
      "v": 102
    },
    {
      "midi": 53,
      "hit": false,
      "t": 159222.06300000066,
      "d": 152.7776249999879,
      "v": 82
    },
    {
      "midi": 56,
      "hit": false,
      "t": 159333.17400000064,
      "d": 284.7219375000277,
      "v": 100
    },
    {
      "midi": 58,
      "hit": false,
      "t": 159333.17400000064,
      "d": 312.4996875000361,
      "v": 100
    },
    {
      "midi": 61,
      "hit": false,
      "t": 159333.17400000064,
      "d": 315.9719062500226,
      "v": 96
    },
    {
      "midi": 44,
      "hit": false,
      "t": 159555.39599999925,
      "d": 218.74978124999325,
      "v": 116
    },
    {
      "midi": 53,
      "hit": false,
      "t": 159555.39600000065,
      "d": 104.16656250000233,
      "v": 91
    },
    {
      "midi": 41,
      "hit": false,
      "t": 159777.61799999923,
      "d": 100.69434374998673,
      "v": 96
    },
    {
      "midi": 53,
      "hit": false,
      "t": 159777.61800000063,
      "d": 104.16656250000233,
      "v": 91
    },
    {
      "midi": 39,
      "hit": false,
      "t": 159888.7289999992,
      "d": 100.69434374998673,
      "v": 96
    },
    {
      "midi": 32,
      "hit": false,
      "t": 159999.83999999918,
      "d": 1218.748781250004,
      "v": 100
    },
    {
      "midi": 56,
      "hit": false,
      "t": 159999.84000000064,
      "d": 406.2495937499916,
      "v": 88
    },
    {
      "midi": 63,
      "hit": false,
      "t": 159999.84000000064,
      "d": 517.360593749996,
      "v": 78
    },
    {
      "midi": 60,
      "hit": false,
      "t": 159999.84000000064,
      "d": 538.1939062500023,
      "v": 82
    },
    {
      "midi": 32,
      "hit": false,
      "t": 159999.84000000064,
      "d": 857.6380312500114,
      "v": 76
    },
    {
      "midi": 44,
      "hit": false,
      "t": 159999.84000000064,
      "d": 881.9435625000042,
      "v": 77
    },
    {
      "midi": 56,
      "hit": false,
      "t": 160555.39500000063,
      "d": 65.97215625000536,
      "v": 78
    },
    {
      "midi": 56,
      "hit": false,
      "t": 160666.50600000063,
      "d": 27.777750000008382,
      "v": 43
    },
    {
      "midi": 60,
      "hit": false,
      "t": 160666.50600000063,
      "d": 211.80534375002026,
      "v": 85
    },
    {
      "midi": 63,
      "hit": false,
      "t": 160666.50600000063,
      "d": 225.69421874999534,
      "v": 96
    },
    {
      "midi": 56,
      "hit": false,
      "t": 160888.72800000064,
      "d": 97.22212500000023,
      "v": 96
    },
    {
      "midi": 32,
      "hit": false,
      "t": 161222.06099999917,
      "d": 107.63878124998882,
      "v": 93
    },
    {
      "midi": 36,
      "hit": false,
      "t": 161333.17199999915,
      "d": 329.8607812499977,
      "v": 100
    },
    {
      "midi": 55,
      "hit": false,
      "t": 161333.17200000063,
      "d": 409.7218125000072,
      "v": 73
    },
    {
      "midi": 58,
      "hit": false,
      "t": 161333.17200000063,
      "d": 503.47171874999185,
      "v": 66
    },
    {
      "midi": 63,
      "hit": false,
      "t": 161333.17200000063,
      "d": 517.360593749996,
      "v": 61
    },
    {
      "midi": 60,
      "hit": false,
      "t": 161333.17200000063,
      "d": 531.2494687500002,
      "v": 69
    },
    {
      "midi": 36,
      "hit": false,
      "t": 161333.17200000063,
      "d": 552.0827812500065,
      "v": 78
    },
    {
      "midi": 48,
      "hit": false,
      "t": 161333.17200000063,
      "d": 1111.109999999957,
      "v": 71
    },
    {
      "midi": 36,
      "hit": false,
      "t": 161666.50499999913,
      "d": 711.8048437499965,
      "v": 95
    },
    {
      "midi": 55,
      "hit": false,
      "t": 161888.72700000062,
      "d": 218.74978124999325,
      "v": 75
    },
    {
      "midi": 58,
      "hit": false,
      "t": 161999.83800000063,
      "d": 378.47184374998324,
      "v": 85
    },
    {
      "midi": 63,
      "hit": false,
      "t": 161999.83800000063,
      "d": 385.41628124998533,
      "v": 96
    },
    {
      "midi": 60,
      "hit": false,
      "t": 161999.83800000063,
      "d": 388.8884999999718,
      "v": 85
    },
    {
      "midi": 36,
      "hit": false,
      "t": 162222.0600000006,
      "d": 243.05531249998603,
      "v": 82
    },
    {
      "midi": 55,
      "hit": false,
      "t": 162222.0600000006,
      "d": 243.05531249998603,
      "v": 96
    },
    {
      "midi": 36,
      "hit": false,
      "t": 162555.39299999914,
      "d": 107.63878124998882,
      "v": 92
    },
    {
      "midi": 34,
      "hit": false,
      "t": 162666.5039999991,
      "d": 1048.6100624999963,
      "v": 100
    },
    {
      "midi": 53,
      "hit": false,
      "t": 162666.50400000057,
      "d": 454.8606562500063,
      "v": 75
    },
    {
      "midi": 56,
      "hit": false,
      "t": 162666.50400000057,
      "d": 541.6661249999888,
      "v": 72
    },
    {
      "midi": 61,
      "hit": false,
      "t": 162666.50400000057,
      "d": 541.6661249999888,
      "v": 72
    },
    {
      "midi": 58,
      "hit": false,
      "t": 162666.50400000057,
      "d": 576.3883124999702,
      "v": 71
    },
    {
      "midi": 34,
      "hit": false,
      "t": 162666.50400000057,
      "d": 624.9993749999558,
      "v": 65
    },
    {
      "midi": 46,
      "hit": false,
      "t": 162666.50400000057,
      "d": 1152.7766249999695,
      "v": 60
    },
    {
      "midi": 53,
      "hit": false,
      "t": 163222.05900000056,
      "d": 274.3052812499809,
      "v": 78
    },
    {
      "midi": 56,
      "hit": false,
      "t": 163333.17000000054,
      "d": 444.4439999999886,
      "v": 93
    },
    {
      "midi": 61,
      "hit": false,
      "t": 163333.17000000054,
      "d": 458.3328749999928,
      "v": 96
    },
    {
      "midi": 58,
      "hit": false,
      "t": 163333.17000000054,
      "d": 472.221749999997,
      "v": 96
    },
    {
      "midi": 34,
      "hit": false,
      "t": 163555.39200000055,
      "d": 249.99974999998813,
      "v": 90
    },
    {
      "midi": 53,
      "hit": false,
      "t": 163555.39200000055,
      "d": 274.3052812499809,
      "v": 78
    },
    {
      "midi": 34,
      "hit": false,
      "t": 163888.7249999991,
      "d": 107.63878124998882,
      "v": 102
    },
    {
      "midi": 39,
      "hit": false,
      "t": 163999.83599999908,
      "d": 329.8607812499977,
      "v": 96
    },
    {
      "midi": 53,
      "hit": false,
      "t": 163999.83600000053,
      "d": 288.1941562500142,
      "v": 67
    },
    {
      "midi": 56,
      "hit": false,
      "t": 163999.83600000053,
      "d": 506.94393750000745,
      "v": 67
    },
    {
      "midi": 61,
      "hit": false,
      "t": 163999.83600000053,
      "d": 517.360593749996,
      "v": 70
    },
    {
      "midi": 58,
      "hit": false,
      "t": 163999.83600000053,
      "d": 538.1939062500023,
      "v": 65
    },
    {
      "midi": 51,
      "hit": false,
      "t": 163999.83600000053,
      "d": 1010.4156562499702,
      "v": 85
    },
    {
      "midi": 39,
      "hit": false,
      "t": 163999.83600000053,
      "d": 1027.7767499999609,
      "v": 50
    },
    {
      "midi": 39,
      "hit": false,
      "t": 164333.16899999906,
      "d": 545.1383437500044,
      "v": 102
    },
    {
      "midi": 53,
      "hit": false,
      "t": 164555.39100000053,
      "d": 152.7776249999879,
      "v": 82
    },
    {
      "midi": 56,
      "hit": false,
      "t": 164666.5020000005,
      "d": 284.7219375000277,
      "v": 100
    },
    {
      "midi": 58,
      "hit": false,
      "t": 164666.5020000005,
      "d": 312.4996875000361,
      "v": 100
    },
    {
      "midi": 61,
      "hit": false,
      "t": 164666.5020000005,
      "d": 315.9719062500226,
      "v": 96
    },
    {
      "midi": 44,
      "hit": false,
      "t": 164888.72399999906,
      "d": 218.74978124999325,
      "v": 116
    },
    {
      "midi": 53,
      "hit": false,
      "t": 164888.7240000005,
      "d": 104.16656250000233,
      "v": 91
    },
    {
      "midi": 41,
      "hit": false,
      "t": 165110.94599999904,
      "d": 100.69434374998673,
      "v": 96
    },
    {
      "midi": 53,
      "hit": false,
      "t": 165110.9460000005,
      "d": 104.16656250000233,
      "v": 91
    },
    {
      "midi": 39,
      "hit": false,
      "t": 165222.056999999,
      "d": 100.69434374998673,
      "v": 96
    },
    {
      "midi": 32,
      "hit": false,
      "t": 165333.167999999,
      "d": 1218.748781250004,
      "v": 100
    },
    {
      "midi": 56,
      "hit": false,
      "t": 165333.1680000005,
      "d": 406.2495937499916,
      "v": 88
    },
    {
      "midi": 63,
      "hit": false,
      "t": 165333.1680000005,
      "d": 517.360593749996,
      "v": 78
    },
    {
      "midi": 60,
      "hit": false,
      "t": 165333.1680000005,
      "d": 538.1939062500023,
      "v": 82
    },
    {
      "midi": 32,
      "hit": false,
      "t": 165333.1680000005,
      "d": 857.6380312500114,
      "v": 76
    },
    {
      "midi": 44,
      "hit": false,
      "t": 165333.1680000005,
      "d": 881.9435625000042,
      "v": 77
    },
    {
      "midi": 56,
      "hit": false,
      "t": 165888.7230000005,
      "d": 65.97215625000536,
      "v": 78
    },
    {
      "midi": 56,
      "hit": false,
      "t": 165999.8340000005,
      "d": 27.777750000008382,
      "v": 43
    },
    {
      "midi": 60,
      "hit": false,
      "t": 165999.8340000005,
      "d": 211.80534375002026,
      "v": 85
    },
    {
      "midi": 63,
      "hit": false,
      "t": 165999.8340000005,
      "d": 225.69421874999534,
      "v": 96
    },
    {
      "midi": 56,
      "hit": false,
      "t": 166222.0560000005,
      "d": 97.22212500000023,
      "v": 96
    },
    {
      "midi": 32,
      "hit": false,
      "t": 166555.38899999898,
      "d": 107.63878124998882,
      "v": 93
    },
    {
      "midi": 36,
      "hit": false,
      "t": 166666.49999999895,
      "d": 329.8607812499977,
      "v": 100
    },
    {
      "midi": 55,
      "hit": false,
      "t": 166666.5000000005,
      "d": 409.7218125000072,
      "v": 73
    },
    {
      "midi": 58,
      "hit": false,
      "t": 166666.5000000005,
      "d": 503.47171874999185,
      "v": 66
    },
    {
      "midi": 63,
      "hit": false,
      "t": 166666.5000000005,
      "d": 517.360593749996,
      "v": 61
    },
    {
      "midi": 60,
      "hit": false,
      "t": 166666.5000000005,
      "d": 531.2494687500002,
      "v": 69
    },
    {
      "midi": 36,
      "hit": false,
      "t": 166666.5000000005,
      "d": 552.0827812500065,
      "v": 78
    },
    {
      "midi": 48,
      "hit": false,
      "t": 166666.5000000005,
      "d": 1111.109999999957,
      "v": 71
    },
    {
      "midi": 36,
      "hit": false,
      "t": 166999.83299999894,
      "d": 711.8048437499965,
      "v": 95
    },
    {
      "midi": 55,
      "hit": false,
      "t": 167222.0550000005,
      "d": 218.74978124999325,
      "v": 75
    },
    {
      "midi": 58,
      "hit": false,
      "t": 167333.1660000005,
      "d": 378.47184374998324,
      "v": 85
    },
    {
      "midi": 63,
      "hit": false,
      "t": 167333.1660000005,
      "d": 385.41628124998533,
      "v": 96
    },
    {
      "midi": 60,
      "hit": false,
      "t": 167333.1660000005,
      "d": 388.8884999999718,
      "v": 85
    },
    {
      "midi": 36,
      "hit": false,
      "t": 167555.38800000047,
      "d": 243.05531249998603,
      "v": 82
    },
    {
      "midi": 55,
      "hit": false,
      "t": 167555.38800000047,
      "d": 243.05531249998603,
      "v": 96
    },
    {
      "midi": 36,
      "hit": false,
      "t": 167888.72099999894,
      "d": 107.63878124998882,
      "v": 92
    },
    {
      "midi": 34,
      "hit": false,
      "t": 167999.83199999892,
      "d": 1048.6100624999963,
      "v": 100
    },
    {
      "midi": 53,
      "hit": false,
      "t": 167999.83200000043,
      "d": 454.8606562500063,
      "v": 75
    },
    {
      "midi": 56,
      "hit": false,
      "t": 167999.83200000043,
      "d": 541.6661249999888,
      "v": 72
    },
    {
      "midi": 61,
      "hit": false,
      "t": 167999.83200000043,
      "d": 541.6661249999888,
      "v": 72
    },
    {
      "midi": 58,
      "hit": false,
      "t": 167999.83200000043,
      "d": 576.3883124999702,
      "v": 71
    },
    {
      "midi": 34,
      "hit": false,
      "t": 167999.83200000043,
      "d": 624.9993749999558,
      "v": 65
    },
    {
      "midi": 46,
      "hit": false,
      "t": 167999.83200000043,
      "d": 1152.7766249999695,
      "v": 60
    },
    {
      "midi": 53,
      "hit": false,
      "t": 168555.38700000042,
      "d": 274.3052812499809,
      "v": 78
    },
    {
      "midi": 56,
      "hit": false,
      "t": 168666.4980000004,
      "d": 444.4439999999886,
      "v": 93
    },
    {
      "midi": 61,
      "hit": false,
      "t": 168666.4980000004,
      "d": 458.3328749999928,
      "v": 96
    },
    {
      "midi": 58,
      "hit": false,
      "t": 168666.4980000004,
      "d": 472.221749999997,
      "v": 96
    },
    {
      "midi": 34,
      "hit": false,
      "t": 168888.7200000004,
      "d": 249.99974999998813,
      "v": 90
    },
    {
      "midi": 53,
      "hit": false,
      "t": 168888.7200000004,
      "d": 274.3052812499809,
      "v": 78
    },
    {
      "midi": 34,
      "hit": false,
      "t": 169222.0529999989,
      "d": 107.63878124998882,
      "v": 102
    },
    {
      "midi": 39,
      "hit": false,
      "t": 169333.16399999888,
      "d": 329.8607812499977,
      "v": 96
    },
    {
      "midi": 53,
      "hit": false,
      "t": 169333.16400000037,
      "d": 288.1941562500142,
      "v": 67
    },
    {
      "midi": 56,
      "hit": false,
      "t": 169333.16400000037,
      "d": 506.94393750000745,
      "v": 67
    },
    {
      "midi": 61,
      "hit": false,
      "t": 169333.16400000037,
      "d": 517.360593749996,
      "v": 70
    },
    {
      "midi": 58,
      "hit": false,
      "t": 169333.16400000037,
      "d": 538.1939062500023,
      "v": 65
    },
    {
      "midi": 51,
      "hit": false,
      "t": 169333.16400000037,
      "d": 1010.4156562499702,
      "v": 85
    },
    {
      "midi": 39,
      "hit": false,
      "t": 169333.16400000037,
      "d": 1027.7767499999609,
      "v": 50
    },
    {
      "midi": 39,
      "hit": false,
      "t": 169666.49699999887,
      "d": 545.1383437500044,
      "v": 102
    },
    {
      "midi": 53,
      "hit": false,
      "t": 169888.71900000036,
      "d": 152.7776249999879,
      "v": 82
    },
    {
      "midi": 56,
      "hit": false,
      "t": 169999.83000000034,
      "d": 284.7219375000277,
      "v": 100
    },
    {
      "midi": 58,
      "hit": false,
      "t": 169999.83000000034,
      "d": 312.4996875000361,
      "v": 100
    },
    {
      "midi": 61,
      "hit": false,
      "t": 169999.83000000034,
      "d": 315.9719062500226,
      "v": 96
    },
    {
      "midi": 44,
      "hit": false,
      "t": 170222.05199999886,
      "d": 218.74978124999325,
      "v": 116
    },
    {
      "midi": 53,
      "hit": false,
      "t": 170222.05200000035,
      "d": 104.16656250000233,
      "v": 91
    },
    {
      "midi": 41,
      "hit": false,
      "t": 170444.27399999884,
      "d": 100.69434374998673,
      "v": 96
    },
    {
      "midi": 53,
      "hit": false,
      "t": 170444.27400000033,
      "d": 104.16656250000233,
      "v": 91
    },
    {
      "midi": 39,
      "hit": false,
      "t": 170555.38499999882,
      "d": 100.69434374998673,
      "v": 96
    },
    {
      "midi": 32,
      "hit": false,
      "t": 170666.4959999988,
      "d": 1218.748781250004,
      "v": 100
    },
    {
      "midi": 56,
      "hit": false,
      "t": 170666.49600000033,
      "d": 406.2495937499916,
      "v": 88
    },
    {
      "midi": 63,
      "hit": false,
      "t": 170666.49600000033,
      "d": 517.360593749996,
      "v": 78
    },
    {
      "midi": 60,
      "hit": false,
      "t": 170666.49600000033,
      "d": 538.1939062500023,
      "v": 82
    },
    {
      "midi": 32,
      "hit": false,
      "t": 170666.49600000033,
      "d": 857.6380312500114,
      "v": 76
    },
    {
      "midi": 44,
      "hit": false,
      "t": 170666.49600000033,
      "d": 881.9435625000042,
      "v": 77
    },
    {
      "midi": 56,
      "hit": false,
      "t": 171222.05100000033,
      "d": 65.97215625000536,
      "v": 78
    },
    {
      "midi": 56,
      "hit": false,
      "t": 171333.16200000033,
      "d": 27.777750000008382,
      "v": 43
    },
    {
      "midi": 60,
      "hit": false,
      "t": 171333.16200000033,
      "d": 211.80534375002026,
      "v": 85
    },
    {
      "midi": 63,
      "hit": false,
      "t": 171333.16200000033,
      "d": 225.69421874999534,
      "v": 96
    },
    {
      "midi": 56,
      "hit": false,
      "t": 171555.38400000034,
      "d": 97.22212500000023,
      "v": 96
    },
    {
      "midi": 32,
      "hit": false,
      "t": 171888.71699999878,
      "d": 107.63878124998882,
      "v": 93
    },
    {
      "midi": 36,
      "hit": false,
      "t": 171999.82799999876,
      "d": 329.8607812499977,
      "v": 100
    },
    {
      "midi": 55,
      "hit": false,
      "t": 171999.82800000033,
      "d": 409.7218125000072,
      "v": 73
    },
    {
      "midi": 58,
      "hit": false,
      "t": 171999.82800000033,
      "d": 503.47171874999185,
      "v": 66
    },
    {
      "midi": 63,
      "hit": false,
      "t": 171999.82800000033,
      "d": 517.360593749996,
      "v": 61
    },
    {
      "midi": 60,
      "hit": false,
      "t": 171999.82800000033,
      "d": 531.2494687500002,
      "v": 69
    },
    {
      "midi": 36,
      "hit": false,
      "t": 171999.82800000033,
      "d": 552.0827812500065,
      "v": 78
    },
    {
      "midi": 48,
      "hit": false,
      "t": 171999.82800000033,
      "d": 1111.109999999957,
      "v": 71
    },
    {
      "midi": 36,
      "hit": false,
      "t": 172333.16099999874,
      "d": 711.8048437499965,
      "v": 95
    },
    {
      "midi": 55,
      "hit": false,
      "t": 172555.38300000032,
      "d": 218.74978124999325,
      "v": 75
    },
    {
      "midi": 58,
      "hit": false,
      "t": 172666.49400000033,
      "d": 378.47184374998324,
      "v": 85
    },
    {
      "midi": 63,
      "hit": false,
      "t": 172666.49400000033,
      "d": 385.41628124998533,
      "v": 96
    },
    {
      "midi": 60,
      "hit": false,
      "t": 172666.49400000033,
      "d": 388.8884999999718,
      "v": 85
    },
    {
      "midi": 36,
      "hit": false,
      "t": 172888.7160000003,
      "d": 243.05531249998603,
      "v": 82
    },
    {
      "midi": 55,
      "hit": false,
      "t": 172888.7160000003,
      "d": 243.05531249998603,
      "v": 96
    },
    {
      "midi": 36,
      "hit": false,
      "t": 173222.04899999875,
      "d": 107.63878124998882,
      "v": 92
    },
    {
      "midi": 34,
      "hit": false,
      "t": 173333.15999999872,
      "d": 1048.6100624999963,
      "v": 100
    },
    {
      "midi": 53,
      "hit": false,
      "t": 173333.16000000027,
      "d": 454.8606562500063,
      "v": 75
    },
    {
      "midi": 56,
      "hit": false,
      "t": 173333.16000000027,
      "d": 541.6661249999888,
      "v": 72
    },
    {
      "midi": 61,
      "hit": false,
      "t": 173333.16000000027,
      "d": 541.6661249999888,
      "v": 72
    },
    {
      "midi": 58,
      "hit": false,
      "t": 173333.16000000027,
      "d": 576.3883124999702,
      "v": 71
    },
    {
      "midi": 34,
      "hit": false,
      "t": 173333.16000000027,
      "d": 624.9993749999558,
      "v": 65
    },
    {
      "midi": 46,
      "hit": false,
      "t": 173333.16000000027,
      "d": 1152.7766249999695,
      "v": 60
    },
    {
      "midi": 53,
      "hit": false,
      "t": 173888.71500000026,
      "d": 274.3052812499809,
      "v": 78
    },
    {
      "midi": 56,
      "hit": false,
      "t": 173999.82600000023,
      "d": 444.4439999999886,
      "v": 93
    },
    {
      "midi": 61,
      "hit": false,
      "t": 173999.82600000023,
      "d": 458.3328749999928,
      "v": 96
    },
    {
      "midi": 58,
      "hit": false,
      "t": 173999.82600000023,
      "d": 472.221749999997,
      "v": 96
    },
    {
      "midi": 34,
      "hit": false,
      "t": 174222.04800000024,
      "d": 249.99974999998813,
      "v": 90
    },
    {
      "midi": 53,
      "hit": false,
      "t": 174222.04800000024,
      "d": 274.3052812499809,
      "v": 78
    },
    {
      "midi": 34,
      "hit": false,
      "t": 174555.3809999987,
      "d": 107.63878124998882,
      "v": 102
    },
    {
      "midi": 39,
      "hit": false,
      "t": 174666.4919999987,
      "d": 329.8607812499977,
      "v": 96
    },
    {
      "midi": 53,
      "hit": false,
      "t": 174666.49200000023,
      "d": 288.1941562500142,
      "v": 67
    },
    {
      "midi": 56,
      "hit": false,
      "t": 174666.49200000023,
      "d": 506.94393750000745,
      "v": 67
    },
    {
      "midi": 61,
      "hit": false,
      "t": 174666.49200000023,
      "d": 517.360593749996,
      "v": 70
    },
    {
      "midi": 58,
      "hit": false,
      "t": 174666.49200000023,
      "d": 538.1939062500023,
      "v": 65
    },
    {
      "midi": 51,
      "hit": false,
      "t": 174666.49200000023,
      "d": 1010.4156562499702,
      "v": 85
    },
    {
      "midi": 39,
      "hit": false,
      "t": 174666.49200000023,
      "d": 1027.7767499999609,
      "v": 50
    },
    {
      "midi": 39,
      "hit": false,
      "t": 174999.82499999867,
      "d": 545.1383437500044,
      "v": 102
    },
    {
      "midi": 53,
      "hit": false,
      "t": 175222.04700000022,
      "d": 152.7776249999879,
      "v": 82
    },
    {
      "midi": 56,
      "hit": false,
      "t": 175333.1580000002,
      "d": 284.7219375000277,
      "v": 100
    },
    {
      "midi": 58,
      "hit": false,
      "t": 175333.1580000002,
      "d": 312.4996875000361,
      "v": 100
    },
    {
      "midi": 61,
      "hit": false,
      "t": 175333.1580000002,
      "d": 315.9719062500226,
      "v": 96
    },
    {
      "midi": 44,
      "hit": false,
      "t": 175555.37999999867,
      "d": 218.74978124999325,
      "v": 116
    },
    {
      "midi": 53,
      "hit": false,
      "t": 175555.3800000002,
      "d": 104.16656250000233,
      "v": 91
    },
    {
      "midi": 41,
      "hit": false,
      "t": 175777.60199999865,
      "d": 100.69434374998673,
      "v": 96
    },
    {
      "midi": 53,
      "hit": false,
      "t": 175777.6020000002,
      "d": 104.16656250000233,
      "v": 91
    },
    {
      "midi": 39,
      "hit": false,
      "t": 175888.71299999862,
      "d": 100.69434374998673,
      "v": 96
    },
    {
      "midi": 32,
      "hit": false,
      "t": 175999.8239999986,
      "d": 1218.748781250004,
      "v": 100
    },
    {
      "midi": 56,
      "hit": false,
      "t": 175999.8240000002,
      "d": 406.2495937499916,
      "v": 88
    },
    {
      "midi": 63,
      "hit": false,
      "t": 175999.8240000002,
      "d": 517.360593749996,
      "v": 78
    },
    {
      "midi": 60,
      "hit": false,
      "t": 175999.8240000002,
      "d": 538.1939062500023,
      "v": 82
    },
    {
      "midi": 32,
      "hit": false,
      "t": 175999.8240000002,
      "d": 857.6380312500114,
      "v": 76
    },
    {
      "midi": 44,
      "hit": false,
      "t": 175999.8240000002,
      "d": 881.9435625000042,
      "v": 77
    },
    {
      "midi": 56,
      "hit": false,
      "t": 176555.3790000002,
      "d": 65.97215625000536,
      "v": 78
    },
    {
      "midi": 56,
      "hit": false,
      "t": 176666.4900000002,
      "d": 27.777750000008382,
      "v": 43
    },
    {
      "midi": 60,
      "hit": false,
      "t": 176666.4900000002,
      "d": 211.80534375002026,
      "v": 85
    },
    {
      "midi": 63,
      "hit": false,
      "t": 176666.4900000002,
      "d": 225.69421874999534,
      "v": 96
    },
    {
      "midi": 56,
      "hit": false,
      "t": 176888.7120000002,
      "d": 97.22212500000023,
      "v": 96
    },
    {
      "midi": 32,
      "hit": false,
      "t": 177222.0449999986,
      "d": 107.63878124998882,
      "v": 93
    },
    {
      "midi": 55,
      "hit": false,
      "t": 177329.6837812502,
      "d": 409.7218125000072,
      "v": 73
    },
    {
      "midi": 58,
      "hit": false,
      "t": 177329.6837812502,
      "d": 503.47171874999185,
      "v": 66
    },
    {
      "midi": 63,
      "hit": false,
      "t": 177329.6837812502,
      "d": 517.360593749996,
      "v": 61
    },
    {
      "midi": 60,
      "hit": false,
      "t": 177329.6837812502,
      "d": 531.2494687500002,
      "v": 69
    },
    {
      "midi": 36,
      "hit": false,
      "t": 177329.6837812502,
      "d": 552.0827812500065,
      "v": 78
    },
    {
      "midi": 48,
      "hit": false,
      "t": 177329.6837812502,
      "d": 1111.109999999957,
      "v": 71
    },
    {
      "midi": 36,
      "hit": false,
      "t": 177333.15599999856,
      "d": 329.8607812499977,
      "v": 100
    },
    {
      "midi": 36,
      "hit": false,
      "t": 177666.48899999855,
      "d": 711.8048437499965,
      "v": 95
    },
    {
      "midi": 55,
      "hit": false,
      "t": 177885.2387812502,
      "d": 218.74978124999325,
      "v": 75
    },
    {
      "midi": 58,
      "hit": false,
      "t": 177996.3497812502,
      "d": 378.47184374998324,
      "v": 85
    },
    {
      "midi": 63,
      "hit": false,
      "t": 177996.3497812502,
      "d": 385.41628124998533,
      "v": 96
    },
    {
      "midi": 60,
      "hit": false,
      "t": 177996.3497812502,
      "d": 388.8884999999718,
      "v": 85
    },
    {
      "midi": 36,
      "hit": false,
      "t": 178218.57178125018,
      "d": 243.05531249998603,
      "v": 82
    },
    {
      "midi": 55,
      "hit": false,
      "t": 178218.57178125018,
      "d": 243.05531249998603,
      "v": 96
    },
    {
      "midi": 36,
      "hit": false,
      "t": 178555.37699999855,
      "d": 107.63878124998882,
      "v": 92
    },
    {
      "midi": 53,
      "hit": false,
      "t": 178663.01578125014,
      "d": 454.8606562500063,
      "v": 75
    },
    {
      "midi": 56,
      "hit": false,
      "t": 178663.01578125014,
      "d": 541.6661249999888,
      "v": 72
    },
    {
      "midi": 61,
      "hit": false,
      "t": 178663.01578125014,
      "d": 541.6661249999888,
      "v": 72
    },
    {
      "midi": 58,
      "hit": false,
      "t": 178663.01578125014,
      "d": 576.3883124999702,
      "v": 71
    },
    {
      "midi": 34,
      "hit": false,
      "t": 178663.01578125014,
      "d": 624.9993749999558,
      "v": 65
    },
    {
      "midi": 46,
      "hit": false,
      "t": 178663.01578125014,
      "d": 1152.7766249999695,
      "v": 60
    },
    {
      "midi": 34,
      "hit": false,
      "t": 178666.48799999853,
      "d": 1048.6100624999963,
      "v": 100
    },
    {
      "midi": 53,
      "hit": false,
      "t": 179218.57078125014,
      "d": 274.3052812499809,
      "v": 78
    },
    {
      "midi": 56,
      "hit": false,
      "t": 179329.6817812501,
      "d": 444.4439999999886,
      "v": 93
    },
    {
      "midi": 61,
      "hit": false,
      "t": 179329.6817812501,
      "d": 458.3328749999928,
      "v": 96
    },
    {
      "midi": 58,
      "hit": false,
      "t": 179329.6817812501,
      "d": 472.221749999997,
      "v": 96
    },
    {
      "midi": 34,
      "hit": false,
      "t": 179551.90378125012,
      "d": 249.99974999998813,
      "v": 90
    },
    {
      "midi": 53,
      "hit": false,
      "t": 179551.90378125012,
      "d": 274.3052812499809,
      "v": 78
    },
    {
      "midi": 34,
      "hit": false,
      "t": 179888.70899999852,
      "d": 107.63878124998882,
      "v": 102
    },
    {
      "midi": 53,
      "hit": false,
      "t": 179996.3477812501,
      "d": 288.1941562500142,
      "v": 67
    },
    {
      "midi": 56,
      "hit": false,
      "t": 179996.3477812501,
      "d": 506.94393750000745,
      "v": 67
    },
    {
      "midi": 61,
      "hit": false,
      "t": 179996.3477812501,
      "d": 517.360593749996,
      "v": 70
    },
    {
      "midi": 58,
      "hit": false,
      "t": 179996.3477812501,
      "d": 538.1939062500023,
      "v": 65
    },
    {
      "midi": 51,
      "hit": false,
      "t": 179996.3477812501,
      "d": 1010.4156562499702,
      "v": 85
    },
    {
      "midi": 39,
      "hit": false,
      "t": 179996.3477812501,
      "d": 1027.7767499999609,
      "v": 50
    },
    {
      "midi": 39,
      "hit": false,
      "t": 179999.8199999985,
      "d": 329.8607812499977,
      "v": 96
    },
    {
      "midi": 39,
      "hit": false,
      "t": 180333.15299999848,
      "d": 545.1383437500044,
      "v": 102
    },
    {
      "midi": 53,
      "hit": false,
      "t": 180551.9027812501,
      "d": 152.7776249999879,
      "v": 82
    },
    {
      "midi": 56,
      "hit": false,
      "t": 180663.01378125008,
      "d": 284.7219375000277,
      "v": 100
    },
    {
      "midi": 58,
      "hit": false,
      "t": 180663.01378125008,
      "d": 312.4996875000361,
      "v": 100
    },
    {
      "midi": 61,
      "hit": false,
      "t": 180663.01378125008,
      "d": 315.9719062500226,
      "v": 96
    },
    {
      "midi": 53,
      "hit": false,
      "t": 180885.23578125008,
      "d": 104.16656250000233,
      "v": 91
    },
    {
      "midi": 44,
      "hit": false,
      "t": 180888.70799999847,
      "d": 218.74978124999325,
      "v": 116
    },
    {
      "midi": 53,
      "hit": false,
      "t": 181107.45778125006,
      "d": 104.16656250000233,
      "v": 91
    },
    {
      "midi": 41,
      "hit": false,
      "t": 181110.92999999845,
      "d": 100.69434374998673,
      "v": 96
    },
    {
      "midi": 39,
      "hit": false,
      "t": 181222.04099999843,
      "d": 100.69434374998673,
      "v": 96
    },
    {
      "midi": 56,
      "hit": false,
      "t": 181329.67978125007,
      "d": 406.2495937499916,
      "v": 88
    },
    {
      "midi": 63,
      "hit": false,
      "t": 181329.67978125007,
      "d": 517.360593749996,
      "v": 78
    },
    {
      "midi": 60,
      "hit": false,
      "t": 181329.67978125007,
      "d": 538.1939062500023,
      "v": 82
    },
    {
      "midi": 32,
      "hit": false,
      "t": 181329.67978125007,
      "d": 857.6380312500114,
      "v": 76
    },
    {
      "midi": 44,
      "hit": false,
      "t": 181329.67978125007,
      "d": 881.9435625000042,
      "v": 77
    },
    {
      "midi": 32,
      "hit": false,
      "t": 181333.1519999984,
      "d": 1218.748781250004,
      "v": 100
    },
    {
      "midi": 56,
      "hit": false,
      "t": 181885.23478125007,
      "d": 65.97215625000536,
      "v": 78
    },
    {
      "midi": 56,
      "hit": false,
      "t": 181996.34578125007,
      "d": 27.777750000008382,
      "v": 43
    },
    {
      "midi": 60,
      "hit": false,
      "t": 181996.34578125007,
      "d": 211.80534375002026,
      "v": 85
    },
    {
      "midi": 63,
      "hit": false,
      "t": 181996.34578125007,
      "d": 225.69421874999534,
      "v": 96
    },
    {
      "midi": 56,
      "hit": false,
      "t": 182218.56778125008,
      "d": 97.22212500000023,
      "v": 96
    },
    {
      "midi": 32,
      "hit": false,
      "t": 182555.3729999984,
      "d": 107.63878124998882,
      "v": 93
    },
    {
      "midi": 55,
      "hit": false,
      "t": 182663.01178125007,
      "d": 409.7218125000072,
      "v": 73
    },
    {
      "midi": 58,
      "hit": false,
      "t": 182663.01178125007,
      "d": 503.47171874999185,
      "v": 66
    },
    {
      "midi": 63,
      "hit": false,
      "t": 182663.01178125007,
      "d": 517.360593749996,
      "v": 61
    },
    {
      "midi": 60,
      "hit": false,
      "t": 182663.01178125007,
      "d": 531.2494687500002,
      "v": 69
    },
    {
      "midi": 36,
      "hit": false,
      "t": 182663.01178125007,
      "d": 552.0827812500065,
      "v": 78
    },
    {
      "midi": 48,
      "hit": false,
      "t": 182663.01178125007,
      "d": 1111.109999999957,
      "v": 71
    },
    {
      "midi": 36,
      "hit": false,
      "t": 182666.48399999837,
      "d": 329.8607812499977,
      "v": 100
    },
    {
      "midi": 36,
      "hit": false,
      "t": 182999.81699999835,
      "d": 711.8048437499965,
      "v": 95
    },
    {
      "midi": 55,
      "hit": false,
      "t": 183218.56678125006,
      "d": 218.74978124999325,
      "v": 75
    },
    {
      "midi": 58,
      "hit": false,
      "t": 183329.67778125007,
      "d": 378.47184374998324,
      "v": 85
    },
    {
      "midi": 63,
      "hit": false,
      "t": 183329.67778125007,
      "d": 385.41628124998533,
      "v": 96
    },
    {
      "midi": 60,
      "hit": false,
      "t": 183329.67778125007,
      "d": 388.8884999999718,
      "v": 85
    },
    {
      "midi": 36,
      "hit": false,
      "t": 183551.89978125005,
      "d": 243.05531249998603,
      "v": 82
    },
    {
      "midi": 55,
      "hit": false,
      "t": 183551.89978125005,
      "d": 243.05531249998603,
      "v": 96
    },
    {
      "midi": 36,
      "hit": false,
      "t": 183888.70499999836,
      "d": 107.63878124998882,
      "v": 92
    },
    {
      "midi": 53,
      "hit": false,
      "t": 183996.34378125,
      "d": 454.8606562500063,
      "v": 75
    },
    {
      "midi": 56,
      "hit": false,
      "t": 183996.34378125,
      "d": 541.6661249999888,
      "v": 72
    },
    {
      "midi": 61,
      "hit": false,
      "t": 183996.34378125,
      "d": 541.6661249999888,
      "v": 72
    },
    {
      "midi": 58,
      "hit": false,
      "t": 183996.34378125,
      "d": 576.3883124999702,
      "v": 71
    },
    {
      "midi": 34,
      "hit": false,
      "t": 183996.34378125,
      "d": 624.9993749999558,
      "v": 65
    },
    {
      "midi": 46,
      "hit": false,
      "t": 183996.34378125,
      "d": 1152.7766249999695,
      "v": 60
    },
    {
      "midi": 34,
      "hit": false,
      "t": 183999.81599999833,
      "d": 1048.6100624999963,
      "v": 100
    },
    {
      "midi": 53,
      "hit": false,
      "t": 184551.89878125,
      "d": 274.3052812499809,
      "v": 78
    },
    {
      "midi": 56,
      "hit": false,
      "t": 184663.00978124997,
      "d": 444.4439999999886,
      "v": 93
    },
    {
      "midi": 61,
      "hit": false,
      "t": 184663.00978124997,
      "d": 458.3328749999928,
      "v": 96
    },
    {
      "midi": 58,
      "hit": false,
      "t": 184663.00978124997,
      "d": 472.221749999997,
      "v": 96
    },
    {
      "midi": 34,
      "hit": false,
      "t": 184885.23178124998,
      "d": 249.99974999998813,
      "v": 90
    },
    {
      "midi": 53,
      "hit": false,
      "t": 184885.23178124998,
      "d": 274.3052812499809,
      "v": 78
    },
    {
      "midi": 34,
      "hit": false,
      "t": 185222.03699999832,
      "d": 107.63878124998882,
      "v": 102
    },
    {
      "midi": 53,
      "hit": false,
      "t": 185329.67578124997,
      "d": 288.1941562500142,
      "v": 67
    },
    {
      "midi": 56,
      "hit": false,
      "t": 185329.67578124997,
      "d": 506.94393750000745,
      "v": 67
    },
    {
      "midi": 61,
      "hit": false,
      "t": 185329.67578124997,
      "d": 517.360593749996,
      "v": 70
    },
    {
      "midi": 58,
      "hit": false,
      "t": 185329.67578124997,
      "d": 538.1939062500023,
      "v": 65
    },
    {
      "midi": 51,
      "hit": false,
      "t": 185329.67578124997,
      "d": 1010.4156562499702,
      "v": 85
    },
    {
      "midi": 39,
      "hit": false,
      "t": 185329.67578124997,
      "d": 1027.7767499999609,
      "v": 50
    },
    {
      "midi": 39,
      "hit": false,
      "t": 185333.1479999983,
      "d": 329.8607812499977,
      "v": 96
    },
    {
      "midi": 39,
      "hit": false,
      "t": 185666.48099999828,
      "d": 545.1383437500044,
      "v": 102
    },
    {
      "midi": 53,
      "hit": false,
      "t": 185885.23078124996,
      "d": 152.7776249999879,
      "v": 82
    },
    {
      "midi": 56,
      "hit": false,
      "t": 185996.34178124994,
      "d": 284.7219375000277,
      "v": 100
    },
    {
      "midi": 58,
      "hit": false,
      "t": 185996.34178124994,
      "d": 312.4996875000361,
      "v": 100
    },
    {
      "midi": 61,
      "hit": false,
      "t": 185996.34178124994,
      "d": 315.9719062500226,
      "v": 96
    },
    {
      "midi": 53,
      "hit": false,
      "t": 186218.56378124995,
      "d": 104.16656250000233,
      "v": 91
    },
    {
      "midi": 44,
      "hit": false,
      "t": 186222.03599999828,
      "d": 218.74978124999325,
      "v": 116
    },
    {
      "midi": 53,
      "hit": false,
      "t": 186440.78578124993,
      "d": 104.16656250000233,
      "v": 91
    },
    {
      "midi": 41,
      "hit": false,
      "t": 186444.25799999826,
      "d": 100.69434374998673,
      "v": 96
    },
    {
      "midi": 39,
      "hit": false,
      "t": 186555.36899999823,
      "d": 100.69434374998673,
      "v": 96
    },
    {
      "midi": 56,
      "hit": false,
      "t": 186663.00778124994,
      "d": 406.2495937499916,
      "v": 88
    },
    {
      "midi": 63,
      "hit": false,
      "t": 186663.00778124994,
      "d": 517.360593749996,
      "v": 78
    },
    {
      "midi": 60,
      "hit": false,
      "t": 186663.00778124994,
      "d": 538.1939062500023,
      "v": 82
    },
    {
      "midi": 32,
      "hit": false,
      "t": 186663.00778124994,
      "d": 857.6380312500114,
      "v": 76
    },
    {
      "midi": 44,
      "hit": false,
      "t": 186663.00778124994,
      "d": 881.9435625000042,
      "v": 77
    },
    {
      "midi": 32,
      "hit": false,
      "t": 186666.4799999982,
      "d": 1218.748781250004,
      "v": 100
    },
    {
      "midi": 56,
      "hit": false,
      "t": 187218.56278124993,
      "d": 65.97215625000536,
      "v": 78
    },
    {
      "midi": 56,
      "hit": false,
      "t": 187329.67378124993,
      "d": 27.777750000008382,
      "v": 43
    },
    {
      "midi": 60,
      "hit": false,
      "t": 187329.67378124993,
      "d": 211.80534375002026,
      "v": 85
    },
    {
      "midi": 63,
      "hit": false,
      "t": 187329.67378124993,
      "d": 225.69421874999534,
      "v": 96
    },
    {
      "midi": 56,
      "hit": false,
      "t": 187551.89578124994,
      "d": 97.22212500000023,
      "v": 96
    },
    {
      "midi": 32,
      "hit": false,
      "t": 187888.7009999982,
      "d": 107.63878124998882,
      "v": 93
    },
    {
      "midi": 55,
      "hit": false,
      "t": 187996.33978124993,
      "d": 409.7218125000072,
      "v": 73
    },
    {
      "midi": 58,
      "hit": false,
      "t": 187996.33978124993,
      "d": 503.47171874999185,
      "v": 66
    },
    {
      "midi": 63,
      "hit": false,
      "t": 187996.33978124993,
      "d": 517.360593749996,
      "v": 61
    },
    {
      "midi": 60,
      "hit": false,
      "t": 187996.33978124993,
      "d": 531.2494687500002,
      "v": 69
    },
    {
      "midi": 36,
      "hit": false,
      "t": 187996.33978124993,
      "d": 552.0827812500065,
      "v": 78
    },
    {
      "midi": 48,
      "hit": false,
      "t": 187996.33978124993,
      "d": 1111.109999999957,
      "v": 71
    },
    {
      "midi": 36,
      "hit": false,
      "t": 187999.81199999817,
      "d": 329.8607812499977,
      "v": 100
    },
    {
      "midi": 36,
      "hit": false,
      "t": 188333.14499999816,
      "d": 711.8048437499965,
      "v": 95
    },
    {
      "midi": 55,
      "hit": false,
      "t": 188551.89478124992,
      "d": 218.74978124999325,
      "v": 75
    },
    {
      "midi": 58,
      "hit": false,
      "t": 188663.00578124993,
      "d": 378.47184374998324,
      "v": 85
    },
    {
      "midi": 63,
      "hit": false,
      "t": 188663.00578124993,
      "d": 385.41628124998533,
      "v": 96
    },
    {
      "midi": 60,
      "hit": false,
      "t": 188663.00578124993,
      "d": 388.8884999999718,
      "v": 85
    },
    {
      "midi": 36,
      "hit": false,
      "t": 188885.2277812499,
      "d": 243.05531249998603,
      "v": 82
    },
    {
      "midi": 55,
      "hit": false,
      "t": 188885.2277812499,
      "d": 243.05531249998603,
      "v": 96
    },
    {
      "midi": 36,
      "hit": false,
      "t": 189222.03299999816,
      "d": 107.63878124998882,
      "v": 92
    },
    {
      "midi": 53,
      "hit": false,
      "t": 189329.67178124987,
      "d": 454.8606562500063,
      "v": 75
    },
    {
      "midi": 56,
      "hit": false,
      "t": 189329.67178124987,
      "d": 541.6661249999888,
      "v": 72
    },
    {
      "midi": 61,
      "hit": false,
      "t": 189329.67178124987,
      "d": 541.6661249999888,
      "v": 72
    },
    {
      "midi": 58,
      "hit": false,
      "t": 189329.67178124987,
      "d": 576.3883124999702,
      "v": 71
    },
    {
      "midi": 34,
      "hit": false,
      "t": 189329.67178124987,
      "d": 624.9993749999558,
      "v": 65
    },
    {
      "midi": 46,
      "hit": false,
      "t": 189329.67178124987,
      "d": 1152.7766249999695,
      "v": 60
    },
    {
      "midi": 34,
      "hit": false,
      "t": 189333.14399999814,
      "d": 1048.6100624999963,
      "v": 100
    },
    {
      "midi": 53,
      "hit": false,
      "t": 189885.22678124986,
      "d": 274.3052812499809,
      "v": 78
    },
    {
      "midi": 56,
      "hit": false,
      "t": 189996.33778124984,
      "d": 444.4439999999886,
      "v": 93
    },
    {
      "midi": 61,
      "hit": false,
      "t": 189996.33778124984,
      "d": 458.3328749999928,
      "v": 96
    },
    {
      "midi": 58,
      "hit": false,
      "t": 189996.33778124984,
      "d": 472.221749999997,
      "v": 96
    },
    {
      "midi": 34,
      "hit": false,
      "t": 190218.55978124985,
      "d": 249.99974999998813,
      "v": 90
    },
    {
      "midi": 53,
      "hit": false,
      "t": 190218.55978124985,
      "d": 274.3052812499809,
      "v": 78
    },
    {
      "midi": 34,
      "hit": false,
      "t": 190555.36499999813,
      "d": 107.63878124998882,
      "v": 102
    },
    {
      "midi": 53,
      "hit": false,
      "t": 190663.00378124983,
      "d": 288.1941562500142,
      "v": 67
    },
    {
      "midi": 56,
      "hit": false,
      "t": 190663.00378124983,
      "d": 506.94393750000745,
      "v": 67
    },
    {
      "midi": 61,
      "hit": false,
      "t": 190663.00378124983,
      "d": 517.360593749996,
      "v": 70
    },
    {
      "midi": 58,
      "hit": false,
      "t": 190663.00378124983,
      "d": 538.1939062500023,
      "v": 65
    },
    {
      "midi": 51,
      "hit": false,
      "t": 190663.00378124983,
      "d": 1010.4156562499702,
      "v": 85
    },
    {
      "midi": 39,
      "hit": false,
      "t": 190663.00378124983,
      "d": 1027.7767499999609,
      "v": 50
    },
    {
      "midi": 39,
      "hit": false,
      "t": 190666.4759999981,
      "d": 329.8607812499977,
      "v": 96
    },
    {
      "midi": 39,
      "hit": false,
      "t": 190999.8089999981,
      "d": 545.1383437500044,
      "v": 102
    },
    {
      "midi": 53,
      "hit": false,
      "t": 191218.55878124983,
      "d": 152.7776249999879,
      "v": 82
    },
    {
      "midi": 56,
      "hit": false,
      "t": 191329.6697812498,
      "d": 284.7219375000277,
      "v": 100
    },
    {
      "midi": 58,
      "hit": false,
      "t": 191329.6697812498,
      "d": 312.4996875000361,
      "v": 100
    },
    {
      "midi": 61,
      "hit": false,
      "t": 191329.6697812498,
      "d": 315.9719062500226,
      "v": 96
    },
    {
      "midi": 53,
      "hit": false,
      "t": 191551.8917812498,
      "d": 104.16656250000233,
      "v": 91
    },
    {
      "midi": 44,
      "hit": false,
      "t": 191555.36399999808,
      "d": 218.74978124999325,
      "v": 116
    },
    {
      "midi": 53,
      "hit": false,
      "t": 191774.1137812498,
      "d": 104.16656250000233,
      "v": 91
    },
    {
      "midi": 41,
      "hit": false,
      "t": 191777.58599999806,
      "d": 100.69434374998673,
      "v": 96
    },
    {
      "midi": 39,
      "hit": false,
      "t": 191888.69699999804,
      "d": 100.69434374998673,
      "v": 96
    },
    {
      "midi": 56,
      "hit": false,
      "t": 191996.3357812498,
      "d": 406.2495937499916,
      "v": 88
    },
    {
      "midi": 63,
      "hit": false,
      "t": 191996.3357812498,
      "d": 517.360593749996,
      "v": 78
    },
    {
      "midi": 60,
      "hit": false,
      "t": 191996.3357812498,
      "d": 538.1939062500023,
      "v": 82
    },
    {
      "midi": 32,
      "hit": false,
      "t": 191996.3357812498,
      "d": 857.6380312500114,
      "v": 76
    },
    {
      "midi": 44,
      "hit": false,
      "t": 191996.3357812498,
      "d": 881.9435625000042,
      "v": 77
    },
    {
      "midi": 32,
      "hit": false,
      "t": 191999.807999998,
      "d": 1218.748781250004,
      "v": 100
    },
    {
      "midi": 56,
      "hit": false,
      "t": 192551.8907812498,
      "d": 65.97215625000536,
      "v": 78
    },
    {
      "midi": 56,
      "hit": false,
      "t": 192663.0017812498,
      "d": 27.777750000008382,
      "v": 43
    },
    {
      "midi": 60,
      "hit": false,
      "t": 192663.0017812498,
      "d": 211.80534375002026,
      "v": 85
    },
    {
      "midi": 63,
      "hit": false,
      "t": 192663.0017812498,
      "d": 225.69421874999534,
      "v": 96
    },
    {
      "midi": 56,
      "hit": false,
      "t": 192885.2237812498,
      "d": 97.22212500000023,
      "v": 96
    },
    {
      "midi": 32,
      "hit": false,
      "t": 193222.028999998,
      "d": 107.63878124998882,
      "v": 93
    },
    {
      "midi": 55,
      "hit": false,
      "t": 193329.6677812498,
      "d": 409.7218125000072,
      "v": 73
    },
    {
      "midi": 58,
      "hit": false,
      "t": 193329.6677812498,
      "d": 503.47171874999185,
      "v": 66
    },
    {
      "midi": 63,
      "hit": false,
      "t": 193329.6677812498,
      "d": 517.360593749996,
      "v": 61
    },
    {
      "midi": 60,
      "hit": false,
      "t": 193329.6677812498,
      "d": 531.2494687500002,
      "v": 69
    },
    {
      "midi": 36,
      "hit": false,
      "t": 193329.6677812498,
      "d": 552.0827812500065,
      "v": 78
    },
    {
      "midi": 48,
      "hit": false,
      "t": 193329.6677812498,
      "d": 1111.109999999957,
      "v": 71
    },
    {
      "midi": 36,
      "hit": false,
      "t": 193333.13999999798,
      "d": 329.8607812499977,
      "v": 100
    },
    {
      "midi": 36,
      "hit": false,
      "t": 193666.47299999796,
      "d": 711.8048437499965,
      "v": 95
    },
    {
      "midi": 55,
      "hit": false,
      "t": 193885.2227812498,
      "d": 218.74978124999325,
      "v": 75
    },
    {
      "midi": 58,
      "hit": false,
      "t": 193996.3337812498,
      "d": 378.47184374998324,
      "v": 85
    },
    {
      "midi": 63,
      "hit": false,
      "t": 193996.3337812498,
      "d": 385.41628124998533,
      "v": 96
    },
    {
      "midi": 60,
      "hit": false,
      "t": 193996.3337812498,
      "d": 388.8884999999718,
      "v": 85
    },
    {
      "midi": 36,
      "hit": false,
      "t": 194218.55578124977,
      "d": 243.05531249998603,
      "v": 82
    },
    {
      "midi": 55,
      "hit": false,
      "t": 194218.55578124977,
      "d": 243.05531249998603,
      "v": 96
    },
    {
      "midi": 36,
      "hit": false,
      "t": 194555.36099999797,
      "d": 107.63878124998882,
      "v": 92
    },
    {
      "midi": 53,
      "hit": false,
      "t": 194662.99978124973,
      "d": 454.8606562500063,
      "v": 75
    },
    {
      "midi": 56,
      "hit": false,
      "t": 194662.99978124973,
      "d": 541.6661249999888,
      "v": 72
    },
    {
      "midi": 61,
      "hit": false,
      "t": 194662.99978124973,
      "d": 541.6661249999888,
      "v": 72
    },
    {
      "midi": 58,
      "hit": false,
      "t": 194662.99978124973,
      "d": 576.3883124999702,
      "v": 71
    },
    {
      "midi": 34,
      "hit": false,
      "t": 194662.99978124973,
      "d": 624.9993749999558,
      "v": 65
    },
    {
      "midi": 46,
      "hit": false,
      "t": 194662.99978124973,
      "d": 1152.7766249999695,
      "v": 60
    },
    {
      "midi": 34,
      "hit": false,
      "t": 194666.47199999794,
      "d": 1048.6100624999963,
      "v": 100
    },
    {
      "midi": 53,
      "hit": false,
      "t": 195218.55478124972,
      "d": 274.3052812499809,
      "v": 78
    },
    {
      "midi": 56,
      "hit": false,
      "t": 195329.6657812497,
      "d": 444.4439999999886,
      "v": 93
    },
    {
      "midi": 61,
      "hit": false,
      "t": 195329.6657812497,
      "d": 458.3328749999928,
      "v": 96
    },
    {
      "midi": 58,
      "hit": false,
      "t": 195329.6657812497,
      "d": 472.221749999997,
      "v": 96
    },
    {
      "midi": 34,
      "hit": false,
      "t": 195551.8877812497,
      "d": 249.99974999998813,
      "v": 90
    },
    {
      "midi": 53,
      "hit": false,
      "t": 195551.8877812497,
      "d": 274.3052812499809,
      "v": 78
    },
    {
      "midi": 34,
      "hit": false,
      "t": 195888.69299999793,
      "d": 107.63878124998882,
      "v": 102
    },
    {
      "midi": 53,
      "hit": false,
      "t": 195996.3317812497,
      "d": 288.1941562500142,
      "v": 67
    },
    {
      "midi": 56,
      "hit": false,
      "t": 195996.3317812497,
      "d": 506.94393750000745,
      "v": 67
    },
    {
      "midi": 61,
      "hit": false,
      "t": 195996.3317812497,
      "d": 517.360593749996,
      "v": 70
    },
    {
      "midi": 58,
      "hit": false,
      "t": 195996.3317812497,
      "d": 538.1939062500023,
      "v": 65
    },
    {
      "midi": 51,
      "hit": false,
      "t": 195996.3317812497,
      "d": 1010.4156562499702,
      "v": 85
    },
    {
      "midi": 39,
      "hit": false,
      "t": 195996.3317812497,
      "d": 1027.7767499999609,
      "v": 50
    },
    {
      "midi": 39,
      "hit": false,
      "t": 195999.8039999979,
      "d": 329.8607812499977,
      "v": 96
    },
    {
      "midi": 39,
      "hit": false,
      "t": 196333.1369999979,
      "d": 545.1383437500044,
      "v": 102
    },
    {
      "midi": 53,
      "hit": false,
      "t": 196551.8867812497,
      "d": 152.7776249999879,
      "v": 82
    },
    {
      "midi": 56,
      "hit": false,
      "t": 196662.99778124967,
      "d": 284.7219375000277,
      "v": 100
    },
    {
      "midi": 58,
      "hit": false,
      "t": 196662.99778124967,
      "d": 312.4996875000361,
      "v": 100
    },
    {
      "midi": 61,
      "hit": false,
      "t": 196662.99778124967,
      "d": 315.9719062500226,
      "v": 96
    },
    {
      "midi": 53,
      "hit": false,
      "t": 196885.21978124967,
      "d": 104.16656250000233,
      "v": 91
    },
    {
      "midi": 44,
      "hit": false,
      "t": 196888.69199999789,
      "d": 218.74978124999325,
      "v": 116
    },
    {
      "midi": 53,
      "hit": false,
      "t": 197107.44178124965,
      "d": 104.16656250000233,
      "v": 91
    },
    {
      "midi": 41,
      "hit": false,
      "t": 197110.91399999787,
      "d": 100.69434374998673,
      "v": 96
    },
    {
      "midi": 39,
      "hit": false,
      "t": 197222.02499999784,
      "d": 100.69434374998673,
      "v": 96
    },
    {
      "midi": 56,
      "hit": false,
      "t": 197329.66378124966,
      "d": 406.2495937499916,
      "v": 88
    },
    {
      "midi": 63,
      "hit": false,
      "t": 197329.66378124966,
      "d": 517.360593749996,
      "v": 78
    },
    {
      "midi": 60,
      "hit": false,
      "t": 197329.66378124966,
      "d": 538.1939062500023,
      "v": 82
    },
    {
      "midi": 32,
      "hit": false,
      "t": 197329.66378124966,
      "d": 857.6380312500114,
      "v": 76
    },
    {
      "midi": 44,
      "hit": false,
      "t": 197329.66378124966,
      "d": 881.9435625000042,
      "v": 77
    },
    {
      "midi": 32,
      "hit": false,
      "t": 197333.13599999782,
      "d": 1218.748781250004,
      "v": 100
    },
    {
      "midi": 56,
      "hit": false,
      "t": 197885.21878124966,
      "d": 65.97215625000536,
      "v": 78
    },
    {
      "midi": 56,
      "hit": false,
      "t": 197996.32978124966,
      "d": 27.777750000008382,
      "v": 43
    },
    {
      "midi": 60,
      "hit": false,
      "t": 197996.32978124966,
      "d": 211.80534375002026,
      "v": 85
    },
    {
      "midi": 63,
      "hit": false,
      "t": 197996.32978124966,
      "d": 225.69421874999534,
      "v": 96
    },
    {
      "midi": 56,
      "hit": false,
      "t": 198218.55178124967,
      "d": 97.22212500000023,
      "v": 96
    },
    {
      "midi": 32,
      "hit": false,
      "t": 198555.3569999978,
      "d": 107.63878124998882,
      "v": 93
    },
    {
      "midi": 55,
      "hit": false,
      "t": 198662.99578124966,
      "d": 409.7218125000072,
      "v": 73
    },
    {
      "midi": 58,
      "hit": false,
      "t": 198662.99578124966,
      "d": 503.47171874999185,
      "v": 66
    },
    {
      "midi": 63,
      "hit": false,
      "t": 198662.99578124966,
      "d": 517.360593749996,
      "v": 61
    },
    {
      "midi": 60,
      "hit": false,
      "t": 198662.99578124966,
      "d": 531.2494687500002,
      "v": 69
    },
    {
      "midi": 36,
      "hit": false,
      "t": 198662.99578124966,
      "d": 552.0827812500065,
      "v": 78
    },
    {
      "midi": 48,
      "hit": false,
      "t": 198662.99578124966,
      "d": 1111.109999999957,
      "v": 71
    },
    {
      "midi": 36,
      "hit": false,
      "t": 198666.46799999778,
      "d": 329.8607812499977,
      "v": 100
    },
    {
      "midi": 36,
      "hit": false,
      "t": 198999.80099999777,
      "d": 711.8048437499965,
      "v": 95
    },
    {
      "midi": 55,
      "hit": false,
      "t": 199218.55078124965,
      "d": 218.74978124999325,
      "v": 75
    },
    {
      "midi": 58,
      "hit": false,
      "t": 199329.66178124966,
      "d": 378.47184374998324,
      "v": 85
    },
    {
      "midi": 63,
      "hit": false,
      "t": 199329.66178124966,
      "d": 385.41628124998533,
      "v": 96
    },
    {
      "midi": 60,
      "hit": false,
      "t": 199329.66178124966,
      "d": 388.8884999999718,
      "v": 85
    },
    {
      "midi": 36,
      "hit": false,
      "t": 199551.88378124963,
      "d": 243.05531249998603,
      "v": 82
    },
    {
      "midi": 55,
      "hit": false,
      "t": 199551.88378124963,
      "d": 243.05531249998603,
      "v": 96
    },
    {
      "midi": 36,
      "hit": false,
      "t": 199888.68899999777,
      "d": 107.63878124998882,
      "v": 92
    },
    {
      "midi": 53,
      "hit": false,
      "t": 199996.3277812496,
      "d": 454.8606562500063,
      "v": 75
    },
    {
      "midi": 56,
      "hit": false,
      "t": 199996.3277812496,
      "d": 541.6661249999888,
      "v": 72
    },
    {
      "midi": 61,
      "hit": false,
      "t": 199996.3277812496,
      "d": 541.6661249999888,
      "v": 72
    },
    {
      "midi": 58,
      "hit": false,
      "t": 199996.3277812496,
      "d": 576.3883124999702,
      "v": 71
    },
    {
      "midi": 34,
      "hit": false,
      "t": 199996.3277812496,
      "d": 624.9993749999558,
      "v": 65
    },
    {
      "midi": 46,
      "hit": false,
      "t": 199996.3277812496,
      "d": 1152.7766249999695,
      "v": 60
    },
    {
      "midi": 34,
      "hit": false,
      "t": 199999.79999999775,
      "d": 1048.6100624999963,
      "v": 100
    },
    {
      "midi": 53,
      "hit": false,
      "t": 200551.8827812496,
      "d": 274.3052812499809,
      "v": 78
    },
    {
      "midi": 56,
      "hit": false,
      "t": 200662.99378124956,
      "d": 444.4439999999886,
      "v": 93
    },
    {
      "midi": 61,
      "hit": false,
      "t": 200662.99378124956,
      "d": 458.3328749999928,
      "v": 96
    },
    {
      "midi": 58,
      "hit": false,
      "t": 200662.99378124956,
      "d": 472.221749999997,
      "v": 96
    },
    {
      "midi": 34,
      "hit": false,
      "t": 200885.21578124957,
      "d": 249.99974999998813,
      "v": 90
    },
    {
      "midi": 53,
      "hit": false,
      "t": 200885.21578124957,
      "d": 274.3052812499809,
      "v": 78
    },
    {
      "midi": 34,
      "hit": false,
      "t": 201222.02099999774,
      "d": 107.63878124998882,
      "v": 102
    },
    {
      "midi": 53,
      "hit": false,
      "t": 201329.65978124956,
      "d": 288.1941562500142,
      "v": 67
    },
    {
      "midi": 56,
      "hit": false,
      "t": 201329.65978124956,
      "d": 506.94393750000745,
      "v": 67
    },
    {
      "midi": 61,
      "hit": false,
      "t": 201329.65978124956,
      "d": 517.360593749996,
      "v": 70
    },
    {
      "midi": 58,
      "hit": false,
      "t": 201329.65978124956,
      "d": 538.1939062500023,
      "v": 65
    },
    {
      "midi": 51,
      "hit": false,
      "t": 201329.65978124956,
      "d": 1010.4156562499702,
      "v": 85
    },
    {
      "midi": 39,
      "hit": false,
      "t": 201329.65978124956,
      "d": 1027.7767499999609,
      "v": 50
    },
    {
      "midi": 39,
      "hit": false,
      "t": 201333.1319999977,
      "d": 329.8607812499977,
      "v": 96
    },
    {
      "midi": 39,
      "hit": false,
      "t": 201666.4649999977,
      "d": 545.1383437500044,
      "v": 102
    },
    {
      "midi": 53,
      "hit": false,
      "t": 201885.21478124955,
      "d": 152.7776249999879,
      "v": 82
    },
    {
      "midi": 56,
      "hit": false,
      "t": 201996.32578124953,
      "d": 284.7219375000277,
      "v": 100
    },
    {
      "midi": 58,
      "hit": false,
      "t": 201996.32578124953,
      "d": 312.4996875000361,
      "v": 100
    },
    {
      "midi": 61,
      "hit": false,
      "t": 201996.32578124953,
      "d": 315.9719062500226,
      "v": 96
    },
    {
      "midi": 53,
      "hit": false,
      "t": 202218.54778124954,
      "d": 104.16656250000233,
      "v": 91
    },
    {
      "midi": 44,
      "hit": false,
      "t": 202222.0199999977,
      "d": 218.74978124999325,
      "v": 116
    },
    {
      "midi": 53,
      "hit": false,
      "t": 202440.76978124952,
      "d": 104.16656250000233,
      "v": 91
    },
    {
      "midi": 41,
      "hit": false,
      "t": 202444.24199999767,
      "d": 100.69434374998673,
      "v": 96
    },
    {
      "midi": 39,
      "hit": false,
      "t": 202555.35299999765,
      "d": 100.69434374998673,
      "v": 96
    },
    {
      "midi": 56,
      "hit": false,
      "t": 202662.99178124953,
      "d": 406.2495937499916,
      "v": 88
    },
    {
      "midi": 63,
      "hit": false,
      "t": 202662.99178124953,
      "d": 517.360593749996,
      "v": 78
    },
    {
      "midi": 60,
      "hit": false,
      "t": 202662.99178124953,
      "d": 538.1939062500023,
      "v": 82
    },
    {
      "midi": 32,
      "hit": false,
      "t": 202662.99178124953,
      "d": 857.6380312500114,
      "v": 76
    },
    {
      "midi": 44,
      "hit": false,
      "t": 202662.99178124953,
      "d": 881.9435625000042,
      "v": 77
    },
    {
      "midi": 32,
      "hit": false,
      "t": 202666.46399999762,
      "d": 1218.748781250004,
      "v": 100
    },
    {
      "midi": 56,
      "hit": false,
      "t": 203218.54678124952,
      "d": 65.97215625000536,
      "v": 78
    },
    {
      "midi": 56,
      "hit": false,
      "t": 203329.65778124952,
      "d": 27.777750000008382,
      "v": 43
    },
    {
      "midi": 60,
      "hit": false,
      "t": 203329.65778124952,
      "d": 211.80534375002026,
      "v": 85
    },
    {
      "midi": 63,
      "hit": false,
      "t": 203329.65778124952,
      "d": 225.69421874999534,
      "v": 96
    },
    {
      "midi": 56,
      "hit": false,
      "t": 203551.87978124953,
      "d": 97.22212500000023,
      "v": 96
    },
    {
      "midi": 32,
      "hit": false,
      "t": 203888.6849999976,
      "d": 107.63878124998882,
      "v": 93
    },
    {
      "midi": 55,
      "hit": false,
      "t": 203996.32378124952,
      "d": 409.7218125000072,
      "v": 73
    },
    {
      "midi": 58,
      "hit": false,
      "t": 203996.32378124952,
      "d": 503.47171874999185,
      "v": 66
    },
    {
      "midi": 63,
      "hit": false,
      "t": 203996.32378124952,
      "d": 517.360593749996,
      "v": 61
    },
    {
      "midi": 60,
      "hit": false,
      "t": 203996.32378124952,
      "d": 531.2494687500002,
      "v": 69
    },
    {
      "midi": 36,
      "hit": false,
      "t": 203996.32378124952,
      "d": 552.0827812500065,
      "v": 78
    },
    {
      "midi": 48,
      "hit": false,
      "t": 203996.32378124952,
      "d": 1111.109999999957,
      "v": 71
    },
    {
      "midi": 36,
      "hit": false,
      "t": 203999.7959999976,
      "d": 329.8607812499977,
      "v": 100
    },
    {
      "midi": 36,
      "hit": false,
      "t": 204333.12899999757,
      "d": 711.8048437499965,
      "v": 95
    },
    {
      "midi": 55,
      "hit": false,
      "t": 204551.8787812495,
      "d": 218.74978124999325,
      "v": 75
    },
    {
      "midi": 58,
      "hit": false,
      "t": 204662.98978124952,
      "d": 378.47184374998324,
      "v": 85
    },
    {
      "midi": 63,
      "hit": false,
      "t": 204662.98978124952,
      "d": 385.41628124998533,
      "v": 96
    },
    {
      "midi": 60,
      "hit": false,
      "t": 204662.98978124952,
      "d": 388.8884999999718,
      "v": 85
    },
    {
      "midi": 36,
      "hit": false,
      "t": 204885.2117812495,
      "d": 243.05531249998603,
      "v": 82
    },
    {
      "midi": 55,
      "hit": false,
      "t": 204885.2117812495,
      "d": 243.05531249998603,
      "v": 96
    },
    {
      "midi": 36,
      "hit": false,
      "t": 205222.01699999758,
      "d": 107.63878124998882,
      "v": 92
    },
    {
      "midi": 53,
      "hit": false,
      "t": 205329.65578124946,
      "d": 454.8606562500063,
      "v": 75
    },
    {
      "midi": 56,
      "hit": false,
      "t": 205329.65578124946,
      "d": 541.6661249999888,
      "v": 72
    },
    {
      "midi": 61,
      "hit": false,
      "t": 205329.65578124946,
      "d": 541.6661249999888,
      "v": 72
    },
    {
      "midi": 58,
      "hit": false,
      "t": 205329.65578124946,
      "d": 576.3883124999702,
      "v": 71
    },
    {
      "midi": 34,
      "hit": false,
      "t": 205329.65578124946,
      "d": 624.9993749999558,
      "v": 65
    },
    {
      "midi": 46,
      "hit": false,
      "t": 205329.65578124946,
      "d": 1152.7766249999695,
      "v": 60
    },
    {
      "midi": 34,
      "hit": false,
      "t": 205333.12799999755,
      "d": 1048.6100624999963,
      "v": 100
    },
    {
      "midi": 53,
      "hit": false,
      "t": 205885.21078124945,
      "d": 274.3052812499809,
      "v": 78
    },
    {
      "midi": 56,
      "hit": false,
      "t": 205996.32178124943,
      "d": 444.4439999999886,
      "v": 93
    },
    {
      "midi": 61,
      "hit": false,
      "t": 205996.32178124943,
      "d": 458.3328749999928,
      "v": 96
    },
    {
      "midi": 58,
      "hit": false,
      "t": 205996.32178124943,
      "d": 472.221749999997,
      "v": 96
    },
    {
      "midi": 34,
      "hit": false,
      "t": 206218.54378124943,
      "d": 249.99974999998813,
      "v": 90
    },
    {
      "midi": 53,
      "hit": false,
      "t": 206218.54378124943,
      "d": 274.3052812499809,
      "v": 78
    },
    {
      "midi": 34,
      "hit": false,
      "t": 206555.34899999754,
      "d": 107.63878124998882,
      "v": 102
    },
    {
      "midi": 53,
      "hit": false,
      "t": 206662.98778124942,
      "d": 288.1941562500142,
      "v": 67
    },
    {
      "midi": 56,
      "hit": false,
      "t": 206662.98778124942,
      "d": 506.94393750000745,
      "v": 67
    },
    {
      "midi": 61,
      "hit": false,
      "t": 206662.98778124942,
      "d": 517.360593749996,
      "v": 70
    },
    {
      "midi": 58,
      "hit": false,
      "t": 206662.98778124942,
      "d": 538.1939062500023,
      "v": 65
    },
    {
      "midi": 51,
      "hit": false,
      "t": 206662.98778124942,
      "d": 1010.4156562499702,
      "v": 85
    },
    {
      "midi": 39,
      "hit": false,
      "t": 206662.98778124942,
      "d": 1027.7767499999609,
      "v": 50
    },
    {
      "midi": 39,
      "hit": false,
      "t": 206666.45999999752,
      "d": 329.8607812499977,
      "v": 96
    },
    {
      "midi": 39,
      "hit": false,
      "t": 206999.7929999975,
      "d": 545.1383437500044,
      "v": 102
    },
    {
      "midi": 53,
      "hit": false,
      "t": 207218.54278124942,
      "d": 152.7776249999879,
      "v": 82
    },
    {
      "midi": 56,
      "hit": false,
      "t": 207329.6537812494,
      "d": 284.7219375000277,
      "v": 100
    },
    {
      "midi": 58,
      "hit": false,
      "t": 207329.6537812494,
      "d": 312.4996875000361,
      "v": 100
    },
    {
      "midi": 61,
      "hit": false,
      "t": 207329.6537812494,
      "d": 315.9719062500226,
      "v": 96
    },
    {
      "midi": 53,
      "hit": false,
      "t": 207551.8757812494,
      "d": 104.16656250000233,
      "v": 91
    },
    {
      "midi": 44,
      "hit": false,
      "t": 207555.3479999975,
      "d": 218.74978124999325,
      "v": 116
    },
    {
      "midi": 53,
      "hit": false,
      "t": 207774.09778124938,
      "d": 104.16656250000233,
      "v": 91
    },
    {
      "midi": 41,
      "hit": false,
      "t": 207777.56999999747,
      "d": 100.69434374998673,
      "v": 96
    },
    {
      "midi": 39,
      "hit": false,
      "t": 207888.68099999745,
      "d": 100.69434374998673,
      "v": 96
    },
    {
      "midi": 56,
      "hit": false,
      "t": 207996.3197812494,
      "d": 406.2495937499916,
      "v": 88
    },
    {
      "midi": 63,
      "hit": false,
      "t": 207996.3197812494,
      "d": 517.360593749996,
      "v": 78
    },
    {
      "midi": 60,
      "hit": false,
      "t": 207996.3197812494,
      "d": 538.1939062500023,
      "v": 82
    },
    {
      "midi": 32,
      "hit": false,
      "t": 207996.3197812494,
      "d": 857.6380312500114,
      "v": 76
    },
    {
      "midi": 44,
      "hit": false,
      "t": 207996.3197812494,
      "d": 881.9435625000042,
      "v": 77
    },
    {
      "midi": 32,
      "hit": false,
      "t": 207999.79199999743,
      "d": 1218.748781250004,
      "v": 100
    },
    {
      "midi": 56,
      "hit": false,
      "t": 208551.87478124938,
      "d": 65.97215625000536,
      "v": 78
    },
    {
      "midi": 56,
      "hit": false,
      "t": 208662.9857812494,
      "d": 27.777750000008382,
      "v": 43
    },
    {
      "midi": 60,
      "hit": false,
      "t": 208662.9857812494,
      "d": 211.80534375002026,
      "v": 85
    },
    {
      "midi": 63,
      "hit": false,
      "t": 208662.9857812494,
      "d": 225.69421874999534,
      "v": 96
    },
    {
      "midi": 56,
      "hit": false,
      "t": 208885.2077812494,
      "d": 97.22212500000023,
      "v": 96
    },
    {
      "midi": 32,
      "hit": false,
      "t": 209222.01299999742,
      "d": 107.63878124998882,
      "v": 93
    },
    {
      "midi": 55,
      "hit": false,
      "t": 209329.65178124938,
      "d": 409.7218125000072,
      "v": 73
    },
    {
      "midi": 58,
      "hit": false,
      "t": 209329.65178124938,
      "d": 503.47171874999185,
      "v": 66
    },
    {
      "midi": 63,
      "hit": false,
      "t": 209329.65178124938,
      "d": 517.360593749996,
      "v": 61
    },
    {
      "midi": 60,
      "hit": false,
      "t": 209329.65178124938,
      "d": 531.2494687500002,
      "v": 69
    },
    {
      "midi": 36,
      "hit": false,
      "t": 209329.65178124938,
      "d": 552.0827812500065,
      "v": 78
    },
    {
      "midi": 48,
      "hit": false,
      "t": 209329.65178124938,
      "d": 1111.109999999957,
      "v": 71
    },
    {
      "midi": 36,
      "hit": false,
      "t": 209333.1239999974,
      "d": 329.8607812499977,
      "v": 100
    },
    {
      "midi": 36,
      "hit": false,
      "t": 209666.45699999738,
      "d": 711.8048437499965,
      "v": 95
    },
    {
      "midi": 55,
      "hit": false,
      "t": 209885.20678124938,
      "d": 218.74978124999325,
      "v": 75
    },
    {
      "midi": 58,
      "hit": false,
      "t": 209996.31778124938,
      "d": 378.47184374998324,
      "v": 85
    },
    {
      "midi": 63,
      "hit": false,
      "t": 209996.31778124938,
      "d": 385.41628124998533,
      "v": 96
    },
    {
      "midi": 60,
      "hit": false,
      "t": 209996.31778124938,
      "d": 388.8884999999718,
      "v": 85
    },
    {
      "midi": 36,
      "hit": false,
      "t": 210218.53978124936,
      "d": 243.05531249998603,
      "v": 82
    },
    {
      "midi": 55,
      "hit": false,
      "t": 210218.53978124936,
      "d": 243.05531249998603,
      "v": 96
    },
    {
      "midi": 36,
      "hit": false,
      "t": 210555.34499999738,
      "d": 107.63878124998882,
      "v": 92
    },
    {
      "midi": 53,
      "hit": false,
      "t": 210662.98378124932,
      "d": 454.8606562500063,
      "v": 75
    },
    {
      "midi": 56,
      "hit": false,
      "t": 210662.98378124932,
      "d": 541.6661249999888,
      "v": 72
    },
    {
      "midi": 61,
      "hit": false,
      "t": 210662.98378124932,
      "d": 541.6661249999888,
      "v": 72
    },
    {
      "midi": 58,
      "hit": false,
      "t": 210662.98378124932,
      "d": 576.3883124999702,
      "v": 71
    },
    {
      "midi": 34,
      "hit": false,
      "t": 210662.98378124932,
      "d": 624.9993749999558,
      "v": 65
    },
    {
      "midi": 46,
      "hit": false,
      "t": 210662.98378124932,
      "d": 1152.7766249999695,
      "v": 60
    },
    {
      "midi": 34,
      "hit": false,
      "t": 210666.45599999736,
      "d": 1048.6100624999963,
      "v": 100
    },
    {
      "midi": 53,
      "hit": false,
      "t": 211218.5387812493,
      "d": 274.3052812499809,
      "v": 78
    },
    {
      "midi": 56,
      "hit": false,
      "t": 211329.6497812493,
      "d": 444.4439999999886,
      "v": 93
    },
    {
      "midi": 61,
      "hit": false,
      "t": 211329.6497812493,
      "d": 458.3328749999928,
      "v": 96
    },
    {
      "midi": 58,
      "hit": false,
      "t": 211329.6497812493,
      "d": 472.221749999997,
      "v": 96
    },
    {
      "midi": 34,
      "hit": false,
      "t": 211551.8717812493,
      "d": 249.99974999998813,
      "v": 90
    },
    {
      "midi": 53,
      "hit": false,
      "t": 211551.8717812493,
      "d": 274.3052812499809,
      "v": 78
    },
    {
      "midi": 34,
      "hit": false,
      "t": 211888.67699999735,
      "d": 107.63878124998882,
      "v": 102
    },
    {
      "midi": 53,
      "hit": false,
      "t": 211996.3157812493,
      "d": 288.1941562500142,
      "v": 67
    },
    {
      "midi": 56,
      "hit": false,
      "t": 211996.3157812493,
      "d": 506.94393750000745,
      "v": 67
    },
    {
      "midi": 61,
      "hit": false,
      "t": 211996.3157812493,
      "d": 517.360593749996,
      "v": 70
    },
    {
      "midi": 58,
      "hit": false,
      "t": 211996.3157812493,
      "d": 538.1939062500023,
      "v": 65
    },
    {
      "midi": 51,
      "hit": false,
      "t": 211996.3157812493,
      "d": 1010.4156562499702,
      "v": 85
    },
    {
      "midi": 39,
      "hit": false,
      "t": 211996.3157812493,
      "d": 1027.7767499999609,
      "v": 50
    },
    {
      "midi": 39,
      "hit": false,
      "t": 211999.78799999732,
      "d": 329.8607812499977,
      "v": 96
    },
    {
      "midi": 39,
      "hit": false,
      "t": 212333.1209999973,
      "d": 545.1383437500044,
      "v": 102
    },
    {
      "midi": 53,
      "hit": false,
      "t": 212551.87078124928,
      "d": 152.7776249999879,
      "v": 82
    },
    {
      "midi": 56,
      "hit": false,
      "t": 212662.98178124925,
      "d": 284.7219375000277,
      "v": 100
    },
    {
      "midi": 58,
      "hit": false,
      "t": 212662.98178124925,
      "d": 312.4996875000361,
      "v": 100
    },
    {
      "midi": 61,
      "hit": false,
      "t": 212662.98178124925,
      "d": 315.9719062500226,
      "v": 96
    },
    {
      "midi": 53,
      "hit": false,
      "t": 212885.20378124926,
      "d": 104.16656250000233,
      "v": 91
    },
    {
      "midi": 44,
      "hit": false,
      "t": 212888.6759999973,
      "d": 218.74978124999325,
      "v": 116
    },
    {
      "midi": 53,
      "hit": false,
      "t": 213107.42578124924,
      "d": 104.16656250000233,
      "v": 91
    },
    {
      "midi": 41,
      "hit": false,
      "t": 213110.89799999728,
      "d": 100.69434374998673,
      "v": 96
    },
    {
      "midi": 39,
      "hit": false,
      "t": 213222.00899999726,
      "d": 100.69434374998673,
      "v": 96
    },
    {
      "midi": 56,
      "hit": false,
      "t": 213329.64778124925,
      "d": 406.2495937499916,
      "v": 88
    },
    {
      "midi": 63,
      "hit": false,
      "t": 213329.64778124925,
      "d": 517.360593749996,
      "v": 78
    },
    {
      "midi": 60,
      "hit": false,
      "t": 213329.64778124925,
      "d": 538.1939062500023,
      "v": 82
    },
    {
      "midi": 32,
      "hit": false,
      "t": 213329.64778124925,
      "d": 857.6380312500114,
      "v": 76
    },
    {
      "midi": 44,
      "hit": false,
      "t": 213329.64778124925,
      "d": 881.9435625000042,
      "v": 77
    },
    {
      "midi": 32,
      "hit": false,
      "t": 213333.11999999723,
      "d": 1218.748781250004,
      "v": 100
    }
  ]
}