{
  "jsonPath": "Rap/Chinese Hip Hop/C-Block/eternal-grace.json",
  "path": "Rap\\Chinese Hip Hop\\C-Block\\Eternal Grace.mid",
  "name": "Eternal Grace",
  "difficulty": "Advanced",
  "bpm": 49.00043202047565,
  "notes": [
    {
      "midi": 26,
      "hit": false,
      "t": 24489.579999999994,
      "d": 4760.799861979165,
      "v": 97
    },
    {
      "midi": 38,
      "hit": false,
      "t": 24489.579999999994,
      "d": 4760.799861979165,
      "v": 92
    },
    {
      "midi": 65,
      "hit": false,
      "t": 29387.495999999992,
      "d": 998.0779348958349,
      "v": 88
    },
    {
      "midi": 69,
      "hit": false,
      "t": 29387.495999999992,
      "d": 1023.5879140625002,
      "v": 92
    },
    {
      "midi": 74,
      "hit": false,
      "t": 29387.495999999992,
      "d": 1049.0978932291655,
      "v": 92
    },
    {
      "midi": 38,
      "hit": false,
      "t": 29387.495999999992,
      "d": 1176.6477890624992,
      "v": 97
    },
    {
      "midi": 69,
      "hit": false,
      "t": 30602.408757812493,
      "d": 1112.8728411458324,
      "v": 97
    },
    {
      "midi": 65,
      "hit": false,
      "t": 30602.408757812493,
      "d": 1125.627830729165,
      "v": 92
    },
    {
      "midi": 74,
      "hit": false,
      "t": 30602.408757812493,
      "d": 1144.7603151041658,
      "v": 88
    },
    {
      "midi": 38,
      "hit": false,
      "t": 30615.163747395825,
      "d": 1138.3828203125013,
      "v": 88
    },
    {
      "midi": 69,
      "hit": false,
      "t": 31826.887757812492,
      "d": 1061.8528828124945,
      "v": 85
    },
    {
      "midi": 64,
      "hit": false,
      "t": 31836.45399999999,
      "d": 1036.3429036458328,
      "v": 70
    },
    {
      "midi": 67,
      "hit": false,
      "t": 31836.45399999999,
      "d": 1061.8528828124981,
      "v": 92
    },
    {
      "midi": 72,
      "hit": false,
      "t": 31836.45399999999,
      "d": 1087.3628619791634,
      "v": 97
    },
    {
      "midi": 45,
      "hit": false,
      "t": 31836.45399999999,
      "d": 1141.571567708328,
      "v": 97
    },
    {
      "midi": 64,
      "hit": false,
      "t": 33051.36675781249,
      "d": 742.9781432291638,
      "v": 107
    },
    {
      "midi": 69,
      "hit": false,
      "t": 33051.36675781249,
      "d": 742.9781432291638,
      "v": 85
    },
    {
      "midi": 67,
      "hit": false,
      "t": 33051.36675781249,
      "d": 883.2830286458338,
      "v": 97
    },
    {
      "midi": 72,
      "hit": false,
      "t": 33051.36675781249,
      "d": 896.0380182291701,
      "v": 85
    },
    {
      "midi": 45,
      "hit": false,
      "t": 33073.68798958332,
      "d": 1179.836536458337,
      "v": 85
    },
    {
      "midi": 65,
      "hit": false,
      "t": 34285.41199999999,
      "d": 1116.06158854167,
      "v": 97
    },
    {
      "midi": 72,
      "hit": false,
      "t": 34288.60074739582,
      "d": 1119.2503359375041,
      "v": 85
    },
    {
      "midi": 62,
      "hit": false,
      "t": 34288.60074739582,
      "d": 1125.6278307291723,
      "v": 85
    },
    {
      "midi": 46,
      "hit": false,
      "t": 34288.60074739582,
      "d": 1189.4027786458391,
      "v": 97
    },
    {
      "midi": 65,
      "hit": false,
      "t": 35500.324757812494,
      "d": 1010.8329244791676,
      "v": 107
    },
    {
      "midi": 70,
      "hit": false,
      "t": 35500.324757812494,
      "d": 1055.4753880208373,
      "v": 102
    },
    {
      "midi": 62,
      "hit": false,
      "t": 35500.324757812494,
      "d": 1080.9853671875026,
      "v": 72
    },
    {
      "midi": 46,
      "hit": false,
      "t": 35500.324757812494,
      "d": 1202.1577682291681,
      "v": 97
    },
    {
      "midi": 72,
      "hit": false,
      "t": 36724.80375781249,
      "d": 1049.0978932291691,
      "v": 92
    },
    {
      "midi": 67,
      "hit": false,
      "t": 36724.80375781249,
      "d": 1087.3628619791707,
      "v": 102
    },
    {
      "midi": 65,
      "hit": false,
      "t": 36724.80375781249,
      "d": 1106.4953463541679,
      "v": 101
    },
    {
      "midi": 62,
      "hit": false,
      "t": 36724.80375781249,
      "d": 1112.872841145836,
      "v": 92
    },
    {
      "midi": 43,
      "hit": false,
      "t": 36734.369999999995,
      "d": 1192.591526041666,
      "v": 92
    },
    {
      "midi": 67,
      "hit": false,
      "t": 37949.28275781249,
      "d": 845.0180598958395,
      "v": 88
    },
    {
      "midi": 62,
      "hit": false,
      "t": 37949.28275781249,
      "d": 1080.9853671875098,
      "v": 72
    },
    {
      "midi": 65,
      "hit": false,
      "t": 37949.28275781249,
      "d": 1080.9853671875098,
      "v": 85
    },
    {
      "midi": 70,
      "hit": false,
      "t": 37958.848999999995,
      "d": 1090.5516093750048,
      "v": 98
    },
    {
      "midi": 43,
      "hit": false,
      "t": 37962.03774739583,
      "d": 1176.6477890625029,
      "v": 88
    },
    {
      "midi": 65,
      "hit": false,
      "t": 39183.328,
      "d": 998.0779348958313,
      "v": 88
    },
    {
      "midi": 69,
      "hit": false,
      "t": 39183.328,
      "d": 1023.5879140624966,
      "v": 92
    },
    {
      "midi": 74,
      "hit": false,
      "t": 39183.328,
      "d": 1049.0978932291619,
      "v": 92
    },
    {
      "midi": 38,
      "hit": false,
      "t": 39183.328,
      "d": 1176.6477890624956,
      "v": 97
    },
    {
      "midi": 69,
      "hit": false,
      "t": 40398.2407578125,
      "d": 1112.872841145836,
      "v": 97
    },
    {
      "midi": 65,
      "hit": false,
      "t": 40398.2407578125,
      "d": 1125.6278307291723,
      "v": 92
    },
    {
      "midi": 74,
      "hit": false,
      "t": 40398.2407578125,
      "d": 1144.7603151041694,
      "v": 88
    },
    {
      "midi": 38,
      "hit": false,
      "t": 40410.995747395835,
      "d": 1138.3828203125013,
      "v": 88
    },
    {
      "midi": 69,
      "hit": false,
      "t": 41622.719757812505,
      "d": 1061.8528828124981,
      "v": 85
    },
    {
      "midi": 64,
      "hit": false,
      "t": 41632.28600000001,
      "d": 1036.3429036458328,
      "v": 70
    },
    {
      "midi": 67,
      "hit": false,
      "t": 41632.28600000001,
      "d": 1061.8528828124981,
      "v": 92
    },
    {
      "midi": 72,
      "hit": false,
      "t": 41632.28600000001,
      "d": 1087.3628619791634,
      "v": 97
    },
    {
      "midi": 45,
      "hit": false,
      "t": 41632.28600000001,
      "d": 1141.571567708328,
      "v": 97
    },
    {
      "midi": 64,
      "hit": false,
      "t": 42847.198757812504,
      "d": 742.9781432291638,
      "v": 107
    },
    {
      "midi": 69,
      "hit": false,
      "t": 42847.198757812504,
      "d": 742.9781432291638,
      "v": 85
    },
    {
      "midi": 67,
      "hit": false,
      "t": 42847.198757812504,
      "d": 883.2830286458338,
      "v": 97
    },
    {
      "midi": 72,
      "hit": false,
      "t": 42847.198757812504,
      "d": 896.0380182291701,
      "v": 85
    },
    {
      "midi": 45,
      "hit": false,
      "t": 42869.519989583336,
      "d": 1179.836536458337,
      "v": 85
    },
    {
      "midi": 65,
      "hit": false,
      "t": 44081.244000000006,
      "d": 1116.06158854167,
      "v": 97
    },
    {
      "midi": 72,
      "hit": false,
      "t": 44084.43274739584,
      "d": 1119.2503359375041,
      "v": 85
    },
    {
      "midi": 62,
      "hit": false,
      "t": 44084.43274739584,
      "d": 1125.6278307291723,
      "v": 85
    },
    {
      "midi": 46,
      "hit": false,
      "t": 44084.43274739584,
      "d": 1189.4027786458391,
      "v": 97
    },
    {
      "midi": 65,
      "hit": false,
      "t": 45296.15675781251,
      "d": 1010.8329244791676,
      "v": 107
    },
    {
      "midi": 70,
      "hit": false,
      "t": 45296.15675781251,
      "d": 1055.4753880208373,
      "v": 102
    },
    {
      "midi": 62,
      "hit": false,
      "t": 45296.15675781251,
      "d": 1080.9853671875026,
      "v": 72
    },
    {
      "midi": 46,
      "hit": false,
      "t": 45296.15675781251,
      "d": 1202.1577682291681,
      "v": 97
    },
    {
      "midi": 72,
      "hit": false,
      "t": 46520.63575781251,
      "d": 1049.0978932291691,
      "v": 92
    },
    {
      "midi": 67,
      "hit": false,
      "t": 46520.63575781251,
      "d": 1087.3628619791707,
      "v": 102
    },
    {
      "midi": 65,
      "hit": false,
      "t": 46520.63575781251,
      "d": 1106.4953463541679,
      "v": 101
    },
    {
      "midi": 62,
      "hit": false,
      "t": 46520.63575781251,
      "d": 1112.872841145836,
      "v": 92
    },
    {
      "midi": 43,
      "hit": false,
      "t": 46530.20200000001,
      "d": 1192.591526041666,
      "v": 92
    },
    {
      "midi": 67,
      "hit": false,
      "t": 47745.11475781251,
      "d": 845.0180598958395,
      "v": 88
    },
    {
      "midi": 62,
      "hit": false,
      "t": 47745.11475781251,
      "d": 1080.9853671875098,
      "v": 72
    },
    {
      "midi": 65,
      "hit": false,
      "t": 47745.11475781251,
      "d": 1080.9853671875098,
      "v": 85
    },
    {
      "midi": 70,
      "hit": false,
      "t": 47754.68100000001,
      "d": 1090.5516093750048,
      "v": 98
    },
    {
      "midi": 43,
      "hit": false,
      "t": 47757.869747395845,
      "d": 1176.6477890625029,
      "v": 88
    },
    {
      "midi": 86,
      "hit": false,
      "t": 48599.69905989585,
      "d": 1546.5424869791677,
      "v": 88
    },
    {
      "midi": 81,
      "hit": false,
      "t": 48714.49396614585,
      "d": 1431.7475807291703,
      "v": 88
    },
    {
      "midi": 77,
      "hit": false,
      "t": 48791.02390364585,
      "d": 1374.3501276041643,
      "v": 70
    },
    {
      "midi": 74,
      "hit": false,
      "t": 48880.308830729184,
      "d": 1297.8201901041684,
      "v": 92
    },
    {
      "midi": 50,
      "hit": false,
      "t": 48979.16000000002,
      "d": 1138.3828203125013,
      "v": 102
    },
    {
      "midi": 69,
      "hit": false,
      "t": 48979.16000000002,
      "d": 1138.3828203125013,
      "v": 97
    },
    {
      "midi": 50,
      "hit": false,
      "t": 50190.88401041669,
      "d": 1112.872841145836,
      "v": 78
    },
    {
      "midi": 77,
      "hit": false,
      "t": 50203.639000000025,
      "d": 1125.627830729165,
      "v": 97
    },
    {
      "midi": 69,
      "hit": false,
      "t": 50203.639000000025,
      "d": 1179.8365364583296,
      "v": 85
    },
    {
      "midi": 74,
      "hit": false,
      "t": 50206.82774739586,
      "d": 1144.7603151041621,
      "v": 97
    },
    {
      "midi": 72,
      "hit": false,
      "t": 51431.30674739585,
      "d": 991.7004401041704,
      "v": 88
    },
    {
      "midi": 76,
      "hit": false,
      "t": 51431.30674739585,
      "d": 1004.4554296875067,
      "v": 105
    },
    {
      "midi": 67,
      "hit": false,
      "t": 51431.30674739585,
      "d": 1163.8927994791738,
      "v": 88
    },
    {
      "midi": 57,
      "hit": false,
      "t": 51440.87298958335,
      "d": 1163.8927994791738,
      "v": 92
    },
    {
      "midi": 67,
      "hit": false,
      "t": 52665.35198958336,
      "d": 985.3229453125023,
      "v": 88
    },
    {
      "midi": 57,
      "hit": false,
      "t": 52665.35198958336,
      "d": 1087.3628619791707,
      "v": 92
    },
    {
      "midi": 72,
      "hit": false,
      "t": 52665.35198958336,
      "d": 1100.117851562507,
      "v": 102
    },
    {
      "midi": 76,
      "hit": false,
      "t": 52665.35198958336,
      "d": 1189.4027786458391,
      "v": 107
    },
    {
      "midi": 70,
      "hit": false,
      "t": 53889.830989583366,
      "d": 1125.627830729165,
      "v": 103
    },
    {
      "midi": 72,
      "hit": false,
      "t": 53889.830989583366,
      "d": 1138.3828203125013,
      "v": 92
    },
    {
      "midi": 55,
      "hit": false,
      "t": 53889.830989583366,
      "d": 1151.1378098958376,
      "v": 85
    },
    {
      "midi": 74,
      "hit": false,
      "t": 53889.830989583366,
      "d": 1163.8927994791738,
      "v": 107
    },
    {
      "midi": 65,
      "hit": false,
      "t": 53905.77472656253,
      "d": 1170.270294270842,
      "v": 92
    },
    {
      "midi": 55,
      "hit": false,
      "t": 55114.30998958337,
      "d": 1100.117851562507,
      "v": 92
    },
    {
      "midi": 74,
      "hit": false,
      "t": 55114.30998958337,
      "d": 1116.06158854167,
      "v": 88
    },
    {
      "midi": 70,
      "hit": false,
      "t": 55117.49873697921,
      "d": 1029.965408854172,
      "v": 107
    },
    {
      "midi": 72,
      "hit": false,
      "t": 55117.49873697921,
      "d": 1029.965408854172,
      "v": 97
    },
    {
      "midi": 65,
      "hit": false,
      "t": 55130.25372656254,
      "d": 1074.6078723958344,
      "v": 72
    },
    {
      "midi": 65,
      "hit": false,
      "t": 56329.22274739588,
      "d": 1157.5153046875057,
      "v": 97
    },
    {
      "midi": 70,
      "hit": false,
      "t": 56338.78898958338,
      "d": 1167.0815468750006,
      "v": 99
    },
    {
      "midi": 74,
      "hit": false,
      "t": 56338.78898958338,
      "d": 1176.6477890625029,
      "v": 65
    },
    {
      "midi": 55,
      "hit": false,
      "t": 56338.78898958338,
      "d": 1179.836536458337,
      "v": 81
    },
    {
      "midi": 65,
      "hit": false,
      "t": 57563.267989583386,
      "d": 1112.872841145836,
      "v": 88
    },
    {
      "midi": 55,
      "hit": false,
      "t": 57576.02297916672,
      "d": 1202.1577682291681,
      "v": 97
    },
    {
      "midi": 70,
      "hit": false,
      "t": 57579.21172656256,
      "d": 1132.0053255208331,
      "v": 104
    },
    {
      "midi": 74,
      "hit": false,
      "t": 57579.21172656256,
      "d": 1138.3828203125013,
      "v": 92
    },
    {
      "midi": 74,
      "hit": false,
      "t": 58778.18074739589,
      "d": 1068.2303776041663,
      "v": 92
    },
    {
      "midi": 67,
      "hit": false,
      "t": 58778.18074739589,
      "d": 1080.9853671875026,
      "v": 85
    },
    {
      "midi": 70,
      "hit": false,
      "t": 58778.18074739589,
      "d": 1080.9853671875026,
      "v": 107
    },
    {
      "midi": 77,
      "hit": false,
      "t": 58778.18074739589,
      "d": 1112.872841145836,
      "v": 85
    },
    {
      "midi": 58,
      "hit": false,
      "t": 58787.74698958339,
      "d": 1116.06158854167,
      "v": 85
    },
    {
      "midi": 77,
      "hit": false,
      "t": 59989.90475781256,
      "d": 940.6804817708326,
      "v": 63
    },
    {
      "midi": 70,
      "hit": false,
      "t": 59999.47100000006,
      "d": 972.567955729166,
      "v": 107
    },
    {
      "midi": 67,
      "hit": false,
      "t": 59999.47100000006,
      "d": 1049.0978932291691,
      "v": 85
    },
    {
      "midi": 74,
      "hit": false,
      "t": 59999.47100000006,
      "d": 1052.2866406250032,
      "v": 97
    },
    {
      "midi": 58,
      "hit": false,
      "t": 60002.6597473959,
      "d": 1087.3628619791707,
      "v": 81
    },
    {
      "midi": 76,
      "hit": false,
      "t": 61211.19501041673,
      "d": 947.0579765625007,
      "v": 113
    },
    {
      "midi": 74,
      "hit": false,
      "t": 61211.19501041673,
      "d": 1151.1378098958303,
      "v": 92
    },
    {
      "midi": 55,
      "hit": false,
      "t": 61211.19501041673,
      "d": 1176.6477890624956,
      "v": 88
    },
    {
      "midi": 67,
      "hit": false,
      "t": 61214.38375781257,
      "d": 1119.2503359374969,
      "v": 78
    },
    {
      "midi": 70,
      "hit": false,
      "t": 61214.38375781257,
      "d": 1125.627830729165,
      "v": 113
    },
    {
      "midi": 74,
      "hit": false,
      "t": 62438.86275781256,
      "d": 1151.1378098958376,
      "v": 97
    },
    {
      "midi": 55,
      "hit": false,
      "t": 62438.86275781256,
      "d": 1214.9127578125044,
      "v": 92
    },
    {
      "midi": 67,
      "hit": false,
      "t": 62448.42900000006,
      "d": 1036.3429036458328,
      "v": 75
    },
    {
      "midi": 70,
      "hit": false,
      "t": 62448.42900000006,
      "d": 1049.0978932291691,
      "v": 107
    },
    {
      "midi": 57,
      "hit": false,
      "t": 63685.6629895834,
      "d": 1036.3429036458328,
      "v": 97
    },
    {
      "midi": 76,
      "hit": false,
      "t": 63685.6629895834,
      "d": 1036.3429036458328,
      "v": 107
    },
    {
      "midi": 69,
      "hit": false,
      "t": 63685.6629895834,
      "d": 1039.531651041667,
      "v": 88
    },
    {
      "midi": 74,
      "hit": false,
      "t": 63685.6629895834,
      "d": 1065.0416302083322,
      "v": 97
    },
    {
      "midi": 57,
      "hit": false,
      "t": 64884.63201041673,
      "d": 1189.4027786458391,
      "v": 92
    },
    {
      "midi": 74,
      "hit": false,
      "t": 64887.820757812566,
      "d": 1100.1178515624997,
      "v": 88
    },
    {
      "midi": 67,
      "hit": false,
      "t": 64887.820757812566,
      "d": 1163.8927994791666,
      "v": 92
    },
    {
      "midi": 76,
      "hit": false,
      "t": 64887.820757812566,
      "d": 1183.025283854171,
      "v": 107
    },
    {
      "midi": 73,
      "hit": false,
      "t": 66134.6209895834,
      "d": 963.001713541671,
      "v": 105
    },
    {
      "midi": 67,
      "hit": false,
      "t": 66134.6209895834,
      "d": 985.3229453125095,
      "v": 85
    },
    {
      "midi": 76,
      "hit": false,
      "t": 66134.6209895834,
      "d": 1010.8329244791821,
      "v": 107
    },
    {
      "midi": 57,
      "hit": false,
      "t": 66134.6209895834,
      "d": 1036.3429036458547,
      "v": 88
    },
    {
      "midi": 67,
      "hit": false,
      "t": 67333.59001041675,
      "d": 1138.3828203125013,
      "v": 78
    },
    {
      "midi": 76,
      "hit": false,
      "t": 67333.59001041675,
      "d": 1151.1378098958376,
      "v": 102
    },
    {
      "midi": 57,
      "hit": false,
      "t": 67336.77875781259,
      "d": 1119.2503359374969,
      "v": 88
    },
    {
      "midi": 73,
      "hit": false,
      "t": 67336.77875781259,
      "d": 1119.2503359374969,
      "v": 105
    },
    {
      "midi": 66,
      "hit": false,
      "t": 68570.8240000001,
      "d": 2273.5768932291685,
      "v": 98
    },
    {
      "midi": 74,
      "hit": false,
      "t": 68570.8240000001,
      "d": 2273.5768932291685,
      "v": 97
    },
    {
      "midi": 69,
      "hit": false,
      "t": 68570.8240000001,
      "d": 2286.331882812505,
      "v": 97
    },
    {
      "midi": 38,
      "hit": false,
      "t": 68570.8240000001,
      "d": 2452.1467473958473,
      "v": 97
    },
    {
      "midi": 66,
      "hit": false,
      "t": 71010.2157578126,
      "d": 1954.7021536458342,
      "v": 97
    },
    {
      "midi": 74,
      "hit": false,
      "t": 71010.2157578126,
      "d": 2005.7221119791648,
      "v": 107
    },
    {
      "midi": 69,
      "hit": false,
      "t": 71010.2157578126,
      "d": 2260.821903645832,
      "v": 107
    },
    {
      "midi": 42,
      "hit": false,
      "t": 71010.2157578126,
      "d": 2452.146747395833,
      "v": 105
    },
    {
      "midi": 67,
      "hit": false,
      "t": 73459.1737578126,
      "d": 2114.139523437494,
      "v": 92
    },
    {
      "midi": 74,
      "hit": false,
      "t": 73459.1737578126,
      "d": 2126.8945130208303,
      "v": 97
    },
    {
      "midi": 71,
      "hit": false,
      "t": 73459.1737578126,
      "d": 2260.821903645832,
      "v": 104
    },
    {
      "midi": 43,
      "hit": false,
      "t": 73459.1737578126,
      "d": 4799.06483072917,
      "v": 85
    },
    {
      "midi": 42,
      "hit": false,
      "t": 75917.6980000001,
      "d": 121.17240104166558,
      "v": 88
    },
    {
      "midi": 74,
      "hit": false,
      "t": 75917.6980000001,
      "d": 2302.2756197916606,
      "v": 92
    },
    {
      "midi": 69,
      "hit": false,
      "t": 75917.6980000001,
      "d": 2315.030609374997,
      "v": 85
    },
    {
      "midi": 66,
      "hit": false,
      "t": 75917.6980000001,
      "d": 2366.050567708342,
      "v": 101
    },
    {
      "midi": 38,
      "hit": false,
      "t": 88136.97802083344,
      "d": 2528.676684895836,
      "v": 92
    },
    {
      "midi": 66,
      "hit": false,
      "t": 88140.16676822928,
      "d": 2203.4244505208335,
      "v": 107
    },
    {
      "midi": 69,
      "hit": false,
      "t": 88140.16676822928,
      "d": 2209.8019453125016,
      "v": 97
    },
    {
      "midi": 74,
      "hit": false,
      "t": 88140.16676822928,
      "d": 2248.066914062496,
      "v": 97
    },
    {
      "midi": 69,
      "hit": false,
      "t": 90598.69101041678,
      "d": 1128.816578124999,
      "v": 102
    },
    {
      "midi": 74,
      "hit": false,
      "t": 90598.69101041678,
      "d": 1128.816578124999,
      "v": 127
    },
    {
      "midi": 45,
      "hit": false,
      "t": 90598.69101041678,
      "d": 1240.422736979177,
      "v": 72
    },
    {
      "midi": 66,
      "hit": false,
      "t": 90601.87975781261,
      "d": 1106.4953463541606,
      "v": 113
    },
    {
      "midi": 72,
      "hit": false,
      "t": 90601.87975781261,
      "d": 1132.0053255208331,
      "v": 102
    },
    {
      "midi": 38,
      "hit": false,
      "t": 91823.17001041678,
      "d": 1253.1777265625133,
      "v": 88
    },
    {
      "midi": 74,
      "hit": false,
      "t": 91826.35875781262,
      "d": 1036.3429036458401,
      "v": 107
    },
    {
      "midi": 72,
      "hit": false,
      "t": 91835.92500000012,
      "d": 615.4282473958301,
      "v": 102
    },
    {
      "midi": 66,
      "hit": false,
      "t": 91835.92500000012,
      "d": 959.812966145837,
      "v": 107
    },
    {
      "midi": 69,
      "hit": false,
      "t": 91835.92500000012,
      "d": 988.5116927083436,
      "v": 97
    },
    {
      "midi": 67,
      "hit": false,
      "t": 93050.83775781262,
      "d": 2075.8745546875143,
      "v": 88
    },
    {
      "midi": 71,
      "hit": false,
      "t": 93060.40400000013,
      "d": 1983.4008802083408,
      "v": 102
    },
    {
      "midi": 74,
      "hit": false,
      "t": 93060.40400000013,
      "d": 2260.8219036458468,
      "v": 102
    },
    {
      "midi": 43,
      "hit": false,
      "t": 93060.40400000013,
      "d": 2417.070526041687,
      "v": 92
    },
    {
      "midi": 66,
      "hit": false,
      "t": 95496.60701041682,
      "d": 2426.63676822916,
      "v": 88
    },
    {
      "midi": 42,
      "hit": false,
      "t": 95496.60701041682,
      "d": 2455.335494791667,
      "v": 82
    },
    {
      "midi": 74,
      "hit": false,
      "t": 95496.60701041682,
      "d": 3029.3100260416686,
      "v": 74
    },
    {
      "midi": 69,
      "hit": false,
      "t": 95499.79575781265,
      "d": 2968.723825520836,
      "v": 71
    },
    {
      "midi": 47,
      "hit": false,
      "t": 97948.75375781265,
      "d": 2426.6367682291457,
      "v": 84
    },
    {
      "midi": 66,
      "hit": false,
      "t": 98557.80451041681,
      "d": 1444.5025703124847,
      "v": 92
    },
    {
      "midi": 71,
      "hit": false,
      "t": 99157.28902083347,
      "d": 1036.3429036458256,
      "v": 73
    },
    {
      "midi": 74,
      "hit": false,
      "t": 99759.96227864597,
      "d": 379.4609401041671,
      "v": 75
    },
    {
      "midi": 64,
      "hit": false,
      "t": 100381.76802083346,
      "d": 411.3484140625078,
      "v": 78
    },
    {
      "midi": 45,
      "hit": false,
      "t": 100381.76802083346,
      "d": 2464.9017369791836,
      "v": 78
    },
    {
      "midi": 69,
      "hit": false,
      "t": 100384.9567682293,
      "d": 589.9182682291721,
      "v": 71
    },
    {
      "midi": 73,
      "hit": false,
      "t": 100384.9567682293,
      "d": 813.1305859375134,
      "v": 85
    },
    {
      "midi": 64,
      "hit": false,
      "t": 100994.00752083347,
      "d": 1256.3664739583328,
      "v": 83
    },
    {
      "midi": 69,
      "hit": false,
      "t": 101596.68077864598,
      "d": 3644.7382734374987,
      "v": 58
    },
    {
      "midi": 73,
      "hit": false,
      "t": 102218.48652083348,
      "d": 296.5535078124958,
      "v": 82
    },
    {
      "midi": 66,
      "hit": false,
      "t": 102830.72602083348,
      "d": 4228.279046875003,
      "v": 92
    },
    {
      "midi": 38,
      "hit": false,
      "t": 102833.91476822931,
      "d": 1967.4571432291705,
      "v": 70
    },
    {
      "midi": 74,
      "hit": false,
      "t": 102833.91476822931,
      "d": 2407.5042838541704,
      "v": 81
    },
    {
      "midi": 65,
      "hit": false,
      "t": 105241.41905208348,
      "d": 3.1887473958340706,
      "v": 75
    },
    {
      "midi": 62,
      "hit": false,
      "t": 105254.17404166682,
      "d": 1830.3410052083345,
      "v": 72
    },
    {
      "midi": 57,
      "hit": false,
      "t": 105257.36278906265,
      "d": 1827.1522578125005,
      "v": 58
    },
    {
      "midi": 26,
      "hit": false,
      "t": 105292.43901041681,
      "d": 2184.2919661458436,
      "v": 88
    },
    {
      "midi": 38,
      "hit": false,
      "t": 105295.62775781265,
      "d": 2203.424450520848,
      "v": 92
    },
    {
      "midi": 55,
      "hit": false,
      "t": 107078.13755208348,
      "d": 389.0271822916693,
      "v": 97
    },
    {
      "midi": 64,
      "hit": false,
      "t": 107078.13755208348,
      "d": 618.6169947916787,
      "v": 113
    },
    {
      "midi": 62,
      "hit": false,
      "t": 107706.32078906267,
      "d": 1986.589627604175,
      "v": 88
    },
    {
      "midi": 53,
      "hit": false,
      "t": 107728.6420208335,
      "d": 1970.6458906250045,
      "v": 107
    },
    {
      "midi": 69,
      "hit": false,
      "t": 108940.36603125017,
      "d": 793.9981015624944,
      "v": 77
    },
    {
      "midi": 69,
      "hit": false,
      "t": 110168.033778646,
      "d": 972.5679557291587,
      "v": 88
    },
    {
      "midi": 67,
      "hit": false,
      "t": 110177.6000208335,
      "d": 742.9781432291638,
      "v": 81
    },
    {
      "midi": 72,
      "hit": false,
      "t": 110180.78876822934,
      "d": 921.5479973958281,
      "v": 78
    },
    {
      "midi": 76,
      "hit": false,
      "t": 110180.78876822934,
      "d": 921.5479973958281,
      "v": 89
    },
    {
      "midi": 72,
      "hit": false,
      "t": 111392.51277864599,
      "d": 1138.3828203125158,
      "v": 88
    },
    {
      "midi": 69,
      "hit": false,
      "t": 111402.0790208335,
      "d": 972.5679557291733,
      "v": 92
    },
    {
      "midi": 67,
      "hit": false,
      "t": 111402.0790208335,
      "d": 1077.796619791683,
      "v": 92
    },
    {
      "midi": 76,
      "hit": false,
      "t": 111405.26776822933,
      "d": 1061.8528828125127,
      "v": 99
    },
    {
      "midi": 74,
      "hit": false,
      "t": 112677.57797916685,
      "d": 1014.0216718750016,
      "v": 68
    },
    {
      "midi": 65,
      "hit": false,
      "t": 112680.76672656268,
      "d": 1004.4554296874994,
      "v": 70
    },
    {
      "midi": 70,
      "hit": false,
      "t": 112690.33296875018,
      "d": 1049.0978932291619,
      "v": 85
    },
    {
      "midi": 72,
      "hit": false,
      "t": 112703.08795833352,
      "d": 950.2467239583348,
      "v": 81
    },
    {
      "midi": 74,
      "hit": false,
      "t": 113815.96079947935,
      "d": 781.2431119791581,
      "v": 81
    },
    {
      "midi": 65,
      "hit": false,
      "t": 113825.52704166685,
      "d": 730.2231536458276,
      "v": 88
    },
    {
      "midi": 70,
      "hit": false,
      "t": 113828.71578906268,
      "d": 927.9254921874817,
      "v": 99
    },
    {
      "midi": 74,
      "hit": false,
      "t": 114989.419841146,
      "d": 1176.6477890625101,
      "v": 72
    },
    {
      "midi": 70,
      "hit": false,
      "t": 114998.9860833335,
      "d": 1167.081546875008,
      "v": 81
    },
    {
      "midi": 67,
      "hit": false,
      "t": 115014.92982031267,
      "d": 1100.117851562507,
      "v": 97
    },
    {
      "midi": 69,
      "hit": false,
      "t": 115024.49606250017,
      "d": 1090.5516093750048,
      "v": 85
    },
    {
      "midi": 74,
      "hit": false,
      "t": 116277.67378906267,
      "d": 902.4155130208383,
      "v": 81
    },
    {
      "midi": 67,
      "hit": false,
      "t": 116287.24003125017,
      "d": 848.2068072916736,
      "v": 97
    },
    {
      "midi": 70,
      "hit": false,
      "t": 116290.428778646,
      "d": 908.7930078125064,
      "v": 100
    },
    {
      "midi": 74,
      "hit": false,
      "t": 117460.69907291685,
      "d": 1010.8329244791676,
      "v": 78
    },
    {
      "midi": 65,
      "hit": false,
      "t": 117476.64280989602,
      "d": 934.3029869791644,
      "v": 61
    },
    {
      "midi": 69,
      "hit": false,
      "t": 117476.64280989602,
      "d": 947.0579765625007,
      "v": 75
    },
    {
      "midi": 72,
      "hit": false,
      "t": 117486.20905208352,
      "d": 985.322945312495,
      "v": 48
    },
    {
      "midi": 74,
      "hit": false,
      "t": 118752.14176822935,
      "d": 915.1705026041745,
      "v": 72
    },
    {
      "midi": 65,
      "hit": false,
      "t": 118761.70801041686,
      "d": 860.9617968750099,
      "v": 81
    },
    {
      "midi": 69,
      "hit": false,
      "t": 118761.70801041686,
      "d": 873.7167864583462,
      "v": 92
    },
    {
      "midi": 72,
      "hit": false,
      "t": 118774.46300000019,
      "d": 896.0380182291701,
      "v": 63
    },
    {
      "midi": 69,
      "hit": false,
      "t": 119963.86577864602,
      "d": 972.5679557291587,
      "v": 88
    },
    {
      "midi": 67,
      "hit": false,
      "t": 119973.43202083353,
      "d": 742.9781432291638,
      "v": 81
    },
    {
      "midi": 72,
      "hit": false,
      "t": 119976.62076822936,
      "d": 921.5479973958281,
      "v": 78
    },
    {
      "midi": 76,
      "hit": false,
      "t": 119976.62076822936,
      "d": 921.5479973958281,
      "v": 89
    },
    {
      "midi": 72,
      "hit": false,
      "t": 121188.34477864602,
      "d": 1138.3828203125158,
      "v": 88
    },
    {
      "midi": 69,
      "hit": false,
      "t": 121197.91102083352,
      "d": 972.5679557291733,
      "v": 92
    },
    {
      "midi": 67,
      "hit": false,
      "t": 121197.91102083352,
      "d": 1077.796619791683,
      "v": 92
    },
    {
      "midi": 76,
      "hit": false,
      "t": 121201.09976822935,
      "d": 1061.8528828125127,
      "v": 99
    },
    {
      "midi": 74,
      "hit": false,
      "t": 122473.40997916687,
      "d": 1014.0216718750016,
      "v": 68
    },
    {
      "midi": 65,
      "hit": false,
      "t": 122476.5987265627,
      "d": 1004.4554296874994,
      "v": 70
    },
    {
      "midi": 70,
      "hit": false,
      "t": 122486.1649687502,
      "d": 1049.0978932291619,
      "v": 85
    },
    {
      "midi": 72,
      "hit": false,
      "t": 122498.91995833354,
      "d": 950.2467239583348,
      "v": 81
    },
    {
      "midi": 74,
      "hit": false,
      "t": 123611.79279947937,
      "d": 781.2431119791581,
      "v": 81
    },
    {
      "midi": 65,
      "hit": false,
      "t": 123621.35904166687,
      "d": 730.2231536458276,
      "v": 88
    },
    {
      "midi": 70,
      "hit": false,
      "t": 123624.54778906271,
      "d": 927.9254921874817,
      "v": 99
    },
    {
      "midi": 74,
      "hit": false,
      "t": 124785.25184114602,
      "d": 1176.6477890625101,
      "v": 72
    },
    {
      "midi": 70,
      "hit": false,
      "t": 124794.81808333352,
      "d": 1167.081546875008,
      "v": 81
    },
    {
      "midi": 67,
      "hit": false,
      "t": 124810.76182031269,
      "d": 1100.117851562507,
      "v": 97
    },
    {
      "midi": 69,
      "hit": false,
      "t": 124820.3280625002,
      "d": 1090.5516093750048,
      "v": 85
    },
    {
      "midi": 74,
      "hit": false,
      "t": 126073.50578906269,
      "d": 902.4155130208383,
      "v": 81
    },
    {
      "midi": 67,
      "hit": false,
      "t": 126083.0720312502,
      "d": 848.2068072916736,
      "v": 97
    },
    {
      "midi": 70,
      "hit": false,
      "t": 126086.26077864603,
      "d": 908.7930078125064,
      "v": 100
    },
    {
      "midi": 26,
      "hit": false,
      "t": 127294.79604166686,
      "d": 1865.4172265625093,
      "v": 92
    },
    {
      "midi": 38,
      "hit": false,
      "t": 127307.5510312502,
      "d": 1830.3410052083345,
      "v": 107
    },
    {
      "midi": 74,
      "hit": false,
      "t": 127307.5510312502,
      "d": 4913.859736979168,
      "v": 92
    },
    {
      "midi": 65,
      "hit": false,
      "t": 127320.30602083354,
      "d": 4862.839778645852,
      "v": 88
    },
    {
      "midi": 72,
      "hit": false,
      "t": 127320.30602083354,
      "d": 4901.1047473958315,
      "v": 88
    },
    {
      "midi": 69,
      "hit": false,
      "t": 127323.49476822937,
      "d": 4894.727252604178,
      "v": 88
    },
    {
      "midi": 28,
      "hit": false,
      "t": 129144.2695312502,
      "d": 656.881963541673,
      "v": 92
    },
    {
      "midi": 40,
      "hit": false,
      "t": 129147.45827864604,
      "d": 653.693216145839,
      "v": 107
    },
    {
      "midi": 29,
      "hit": false,
      "t": 129769.26402083354,
      "d": 2468.0904843749886,
      "v": 72
    },
    {
      "midi": 41,
      "hit": false,
      "t": 129772.45276822937,
      "d": 2477.656726562491,
      "v": 107
    },
    {
      "midi": 43,
      "hit": false,
      "t": 132218.22202083355,
      "d": 2401.1267890624003,
      "v": 92
    },
    {
      "midi": 31,
      "hit": false,
      "t": 132221.41076822937,
      "d": 2388.371799479093,
      "v": 107
    },
    {
      "midi": 67,
      "hit": false,
      "t": 132269.24197916687,
      "d": 896.0380182291265,
      "v": 92
    },
    {
      "midi": 62,
      "hit": false,
      "t": 132272.43072656268,
      "d": 883.2830286458193,
      "v": 81
    },
    {
      "midi": 70,
      "hit": false,
      "t": 132272.43072656268,
      "d": 896.0380182291265,
      "v": 97
    },
    {
      "midi": 67,
      "hit": false,
      "t": 133471.39974739598,
      "d": 717.4681640624767,
      "v": 92
    },
    {
      "midi": 70,
      "hit": false,
      "t": 133480.96598958346,
      "d": 551.6532994791633,
      "v": 97
    },
    {
      "midi": 62,
      "hit": false,
      "t": 133480.96598958346,
      "d": 755.7331328124856,
      "v": 78
    },
    {
      "midi": 45,
      "hit": false,
      "t": 134628.91505208344,
      "d": 4875.594768229028,
      "v": 97
    },
    {
      "midi": 33,
      "hit": false,
      "t": 134628.91505208344,
      "d": 4901.1047473957005,
      "v": 107
    },
    {
      "midi": 67,
      "hit": false,
      "t": 134670.36876822927,
      "d": 947.0579765624716,
      "v": 88
    },
    {
      "midi": 64,
      "hit": false,
      "t": 134679.93501041675,
      "d": 832.2630703125033,
      "v": 107
    },
    {
      "midi": 62,
      "hit": false,
      "t": 134679.93501041675,
      "d": 860.9617968749953,
      "v": 85
    },
    {
      "midi": 64,
      "hit": false,
      "t": 135904.41401041675,
      "d": 857.7730494791467,
      "v": 40
    },
    {
      "midi": 61,
      "hit": false,
      "t": 135904.41401041675,
      "d": 972.5679557291442,
      "v": 102
    },
    {
      "midi": 67,
      "hit": false,
      "t": 135907.60275781256,
      "d": 972.5679557291442,
      "v": 97
    },
    {
      "midi": 67,
      "hit": false,
      "t": 137132.08175781253,
      "d": 1068.2303776041372,
      "v": 92
    },
    {
      "midi": 64,
      "hit": false,
      "t": 137132.08175781253,
      "d": 1080.9853671874735,
      "v": 113
    },
    {
      "midi": 59,
      "hit": false,
      "t": 137141.64800000002,
      "d": 1036.3429036458256,
      "v": 97
    },
    {
      "midi": 67,
      "hit": false,
      "t": 138356.5607578125,
      "d": 1010.832924479153,
      "v": 81
    },
    {
      "midi": 64,
      "hit": false,
      "t": 138366.12699999998,
      "d": 1023.5879140624893,
      "v": 113
    },
    {
      "midi": 61,
      "hit": false,
      "t": 138366.12699999998,
      "d": 1039.531651041645,
      "v": 102
    },
    {
      "midi": 66,
      "hit": false,
      "t": 139590.60599999997,
      "d": 2273.576893229154,
      "v": 98
    },
    {
      "midi": 74,
      "hit": false,
      "t": 139590.60599999997,
      "d": 2273.576893229154,
      "v": 97
    },
    {
      "midi": 69,
      "hit": false,
      "t": 139590.60599999997,
      "d": 2286.33188281249,
      "v": 97
    },
    {
      "midi": 38,
      "hit": false,
      "t": 139590.60599999997,
      "d": 2452.146747395833,
      "v": 97
    },
    {
      "midi": 66,
      "hit": false,
      "t": 142029.99775781247,
      "d": 1954.7021536458342,
      "v": 97
    },
    {
      "midi": 74,
      "hit": false,
      "t": 142029.99775781247,
      "d": 2005.7221119791793,
      "v": 107
    },
    {
      "midi": 69,
      "hit": false,
      "t": 142029.99775781247,
      "d": 2260.8219036458468,
      "v": 107
    },
    {
      "midi": 42,
      "hit": false,
      "t": 142029.99775781247,
      "d": 2452.146747395833,
      "v": 105
    },
    {
      "midi": 67,
      "hit": false,
      "t": 144478.95575781248,
      "d": 2114.1395234374795,
      "v": 92
    },
    {
      "midi": 74,
      "hit": false,
      "t": 144478.95575781248,
      "d": 2126.894513020816,
      "v": 97
    },
    {
      "midi": 71,
      "hit": false,
      "t": 144478.95575781248,
      "d": 2260.8219036458177,
      "v": 104
    },
    {
      "midi": 43,
      "hit": false,
      "t": 144478.95575781248,
      "d": 4799.064830729156,
      "v": 85
    },
    {
      "midi": 42,
      "hit": false,
      "t": 146937.47999999995,
      "d": 121.17240104166558,
      "v": 88
    },
    {
      "midi": 74,
      "hit": false,
      "t": 146937.47999999995,
      "d": 2302.275619791675,
      "v": 92
    },
    {
      "midi": 69,
      "hit": false,
      "t": 146937.47999999995,
      "d": 2315.0306093750114,
      "v": 85
    },
    {
      "midi": 66,
      "hit": false,
      "t": 146937.47999999995,
      "d": 2366.0505677083565,
      "v": 101
    },
    {
      "midi": 38,
      "hit": false,
      "t": 159156.76002083332,
      "d": 2528.6766848957923,
      "v": 92
    },
    {
      "midi": 66,
      "hit": false,
      "t": 159159.94876822914,
      "d": 2203.4244505208335,
      "v": 107
    },
    {
      "midi": 69,
      "hit": false,
      "t": 159159.94876822914,
      "d": 2209.8019453125016,
      "v": 97
    },
    {
      "midi": 74,
      "hit": false,
      "t": 159159.94876822914,
      "d": 2248.0669140625105,
      "v": 97
    },
    {
      "midi": 69,
      "hit": false,
      "t": 161618.47301041664,
      "d": 1128.81657812497,
      "v": 102
    },
    {
      "midi": 74,
      "hit": false,
      "t": 161618.47301041664,
      "d": 1128.81657812497,
      "v": 127
    },
    {
      "midi": 45,
      "hit": false,
      "t": 161618.47301041664,
      "d": 1240.4227369790897,
      "v": 72
    },
    {
      "midi": 66,
      "hit": false,
      "t": 161621.66175781246,
      "d": 1106.495346354146,
      "v": 113
    },
    {
      "midi": 72,
      "hit": false,
      "t": 161621.66175781246,
      "d": 1132.0053255208186,
      "v": 102
    },
    {
      "midi": 38,
      "hit": false,
      "t": 162842.9520104166,
      "d": 1253.177726562426,
      "v": 88
    },
    {
      "midi": 74,
      "hit": false,
      "t": 162846.14075781242,
      "d": 1036.3429036457965,
      "v": 107
    },
    {
      "midi": 72,
      "hit": false,
      "t": 162855.7069999999,
      "d": 615.4282473958156,
      "v": 102
    },
    {
      "midi": 66,
      "hit": false,
      "t": 162855.7069999999,
      "d": 959.8129661458079,
      "v": 107
    },
    {
      "midi": 69,
      "hit": false,
      "t": 162855.7069999999,
      "d": 988.5116927083,
      "v": 97
    },
    {
      "midi": 67,
      "hit": false,
      "t": 164070.61975781238,
      "d": 2075.8745546874707,
      "v": 88
    },
    {
      "midi": 71,
      "hit": false,
      "t": 164080.18599999987,
      "d": 1983.4008802083263,
      "v": 102
    },
    {
      "midi": 74,
      "hit": false,
      "t": 164080.18599999987,
      "d": 2260.8219036458177,
      "v": 102
    },
    {
      "midi": 43,
      "hit": false,
      "t": 164080.18599999987,
      "d": 2417.0705260416435,
      "v": 92
    },
    {
      "midi": 66,
      "hit": false,
      "t": 166516.38901041652,
      "d": 2426.63676822916,
      "v": 88
    },
    {
      "midi": 42,
      "hit": false,
      "t": 166516.38901041652,
      "d": 2455.3354947916523,
      "v": 82
    },
    {
      "midi": 74,
      "hit": false,
      "t": 166516.38901041652,
      "d": 3029.3100260416686,
      "v": 74
    },
    {
      "midi": 69,
      "hit": false,
      "t": 166519.57775781234,
      "d": 2968.723825520836,
      "v": 71
    },
    {
      "midi": 47,
      "hit": false,
      "t": 168968.53575781235,
      "d": 2426.63676822916,
      "v": 84
    },
    {
      "midi": 66,
      "hit": false,
      "t": 169577.58651041653,
      "d": 1444.5025703124993,
      "v": 92
    },
    {
      "midi": 71,
      "hit": false,
      "t": 170177.0710208332,
      "d": 1036.3429036458256,
      "v": 73
    },
    {
      "midi": 74,
      "hit": false,
      "t": 170779.7442786457,
      "d": 379.46094010415254,
      "v": 75
    },
    {
      "midi": 64,
      "hit": false,
      "t": 171401.55002083318,
      "d": 411.34841406249325,
      "v": 78
    },
    {
      "midi": 45,
      "hit": false,
      "t": 171401.55002083318,
      "d": 2464.90173697914,
      "v": 78
    },
    {
      "midi": 69,
      "hit": false,
      "t": 171404.738768229,
      "d": 589.9182682291721,
      "v": 71
    },
    {
      "midi": 73,
      "hit": false,
      "t": 171404.738768229,
      "d": 813.1305859374988,
      "v": 85
    },
    {
      "midi": 64,
      "hit": false,
      "t": 172013.78952083318,
      "d": 1256.3664739583328,
      "v": 83
    },
    {
      "midi": 69,
      "hit": false,
      "t": 172616.46277864565,
      "d": 3644.7382734375133,
      "v": 58
    },
    {
      "midi": 73,
      "hit": false,
      "t": 173238.26852083317,
      "d": 296.5535078124958,
      "v": 82
    },
    {
      "midi": 66,
      "hit": false,
      "t": 173850.50802083316,
      "d": 2337.3518411458354,
      "v": 92
    },
    {
      "midi": 38,
      "hit": false,
      "t": 173853.69676822898,
      "d": 1967.4571432291705,
      "v": 70
    },
    {
      "midi": 74,
      "hit": false,
      "t": 173853.69676822898,
      "d": 2407.504283854185,
      "v": 81
    },
    {
      "midi": 64,
      "hit": false,
      "t": 176261.20105208317,
      "d": 1817.5860156249546,
      "v": 75
    },
    {
      "midi": 60,
      "hit": false,
      "t": 176273.9560416665,
      "d": 1830.3410052082909,
      "v": 72
    },
    {
      "midi": 55,
      "hit": false,
      "t": 176277.14478906232,
      "d": 1827.1522578124714,
      "v": 58
    },
    {
      "midi": 24,
      "hit": false,
      "t": 176312.22101041648,
      "d": 2184.2919661458,
      "v": 88
    },
    {
      "midi": 36,
      "hit": false,
      "t": 176315.4097578123,
      "d": 2203.4244505208044,
      "v": 92
    },
    {
      "midi": 62,
      "hit": false,
      "t": 178764.3677578123,
      "d": 4843.707294270833,
      "v": 88
    },
    {
      "midi": 65,
      "hit": false,
      "t": 178777.12274739562,
      "d": 4824.574809895828,
      "v": 107
    },
    {
      "midi": 70,
      "hit": false,
      "t": 178777.12274739562,
      "d": 4824.574809895828,
      "v": 107
    },
    {
      "midi": 58,
      "hit": false,
      "t": 183059.61049999998,
      "d": 593.1070156249916,
      "v": 1
    },
    {
      "midi": 70,
      "hit": false,
      "t": 183059.61049999998,
      "d": 593.1070156249916,
      "v": 1
    },
    {
      "midi": 67,
      "hit": false,
      "t": 183671.84999999977,
      "d": 2273.576893229154,
      "v": 98
    },
    {
      "midi": 75,
      "hit": false,
      "t": 183671.84999999977,
      "d": 2273.576893229154,
      "v": 97
    },
    {
      "midi": 70,
      "hit": false,
      "t": 183671.84999999977,
      "d": 2286.33188281249,
      "v": 97
    },
    {
      "midi": 39,
      "hit": false,
      "t": 183671.84999999977,
      "d": 2452.146747395833,
      "v": 97
    },
    {
      "midi": 55,
      "hit": false,
      "t": 183671.84999999998,
      "d": 2429.825515625009,
      "v": 1
    },
    {
      "midi": 67,
      "hit": false,
      "t": 183671.84999999998,
      "d": 2429.825515625009,
      "v": 1
    },
    {
      "midi": 70,
      "hit": false,
      "t": 183671.84999999998,
      "d": 2429.825515625009,
      "v": 1
    },
    {
      "midi": 75,
      "hit": false,
      "t": 183671.84999999998,
      "d": 2429.825515625009,
      "v": 1
    },
    {
      "midi": 67,
      "hit": false,
      "t": 186111.24175781227,
      "d": 1954.7021536458342,
      "v": 97
    },
    {
      "midi": 75,
      "hit": false,
      "t": 186111.24175781227,
      "d": 2005.7221119791793,
      "v": 107
    },
    {
      "midi": 70,
      "hit": false,
      "t": 186111.24175781227,
      "d": 2260.8219036458468,
      "v": 107
    },
    {
      "midi": 43,
      "hit": false,
      "t": 186111.24175781227,
      "d": 2452.146747395833,
      "v": 105
    },
    {
      "midi": 79,
      "hit": false,
      "t": 186120.808,
      "d": 1339.2739062499895,
      "v": 1
    },
    {
      "midi": 55,
      "hit": false,
      "t": 186120.808,
      "d": 2429.825515625009,
      "v": 1
    },
    {
      "midi": 67,
      "hit": false,
      "t": 186120.808,
      "d": 2429.825515625009,
      "v": 1
    },
    {
      "midi": 70,
      "hit": false,
      "t": 186120.808,
      "d": 2480.845473958354,
      "v": 1
    },
    {
      "midi": 77,
      "hit": false,
      "t": 187345.28699999998,
      "d": 286.98726562500815,
      "v": 1
    },
    {
      "midi": 75,
      "hit": false,
      "t": 187651.40675,
      "d": 899.2267656250042,
      "v": 1
    },
    {
      "midi": 68,
      "hit": false,
      "t": 188560.19975781228,
      "d": 2114.1395234374795,
      "v": 92
    },
    {
      "midi": 75,
      "hit": false,
      "t": 188560.19975781228,
      "d": 2126.894513020816,
      "v": 97
    },
    {
      "midi": 72,
      "hit": false,
      "t": 188560.19975781228,
      "d": 2260.8219036458177,
      "v": 104
    },
    {
      "midi": 44,
      "hit": false,
      "t": 188560.19975781228,
      "d": 4799.064830729156,
      "v": 85
    },
    {
      "midi": 56,
      "hit": false,
      "t": 188569.766,
      "d": 2429.825515625009,
      "v": 1
    },
    {
      "midi": 63,
      "hit": false,
      "t": 188569.766,
      "d": 2429.825515625009,
      "v": 1
    },
    {
      "midi": 72,
      "hit": false,
      "t": 188569.766,
      "d": 2429.825515625009,
      "v": 1
    },
    {
      "midi": 75,
      "hit": false,
      "t": 188569.766,
      "d": 2429.825515625009,
      "v": 1
    },
    {
      "midi": 43,
      "hit": false,
      "t": 191018.72399999975,
      "d": 121.17240104166558,
      "v": 88
    },
    {
      "midi": 75,
      "hit": false,
      "t": 191018.72399999975,
      "d": 2302.275619791675,
      "v": 92
    },
    {
      "midi": 70,
      "hit": false,
      "t": 191018.72399999975,
      "d": 2315.0306093750114,
      "v": 85
    },
    {
      "midi": 67,
      "hit": false,
      "t": 191018.72399999975,
      "d": 2366.0505677083565,
      "v": 101
    },
    {
      "midi": 55,
      "hit": false,
      "t": 191018.72400000002,
      "d": 1817.5860156250128,
      "v": 1
    },
    {
      "midi": 63,
      "hit": false,
      "t": 191018.72400000002,
      "d": 1817.5860156250128,
      "v": 1
    },
    {
      "midi": 70,
      "hit": false,
      "t": 191018.72400000002,
      "d": 1817.5860156250128,
      "v": 1
    },
    {
      "midi": 75,
      "hit": false,
      "t": 191018.72400000002,
      "d": 1817.5860156250128,
      "v": 1
    },
    {
      "midi": 60,
      "hit": false,
      "t": 192855.44250000003,
      "d": 2429.825515625009,
      "v": 1
    },
    {
      "midi": 67,
      "hit": false,
      "t": 192855.44250000003,
      "d": 2429.825515625009,
      "v": 1
    },
    {
      "midi": 67,
      "hit": false,
      "t": 195304.40050000005,
      "d": 2429.825515625009,
      "v": 1
    },
    {
      "midi": 72,
      "hit": false,
      "t": 195304.40050000005,
      "d": 2429.825515625009,
      "v": 1
    },
    {
      "midi": 63,
      "hit": false,
      "t": 197753.35850000006,
      "d": 593.1070156249916,
      "v": 1
    },
    {
      "midi": 65,
      "hit": false,
      "t": 197753.35850000006,
      "d": 593.1070156249916,
      "v": 1
    },
    {
      "midi": 75,
      "hit": false,
      "t": 197753.35850000006,
      "d": 593.1070156249916,
      "v": 1
    },
    {
      "midi": 63,
      "hit": false,
      "t": 198365.59800000006,
      "d": 2429.825515625009,
      "v": 1
    },
    {
      "midi": 75,
      "hit": false,
      "t": 198365.59800000006,
      "d": 2429.825515625009,
      "v": 1
    },
    {
      "midi": 70,
      "hit": false,
      "t": 198365.59800000006,
      "d": 4292.053994791699,
      "v": 1
    },
    {
      "midi": 65,
      "hit": false,
      "t": 198365.59800000006,
      "d": 4374.961427083355,
      "v": 1
    },
    {
      "midi": 62,
      "hit": false,
      "t": 200814.55600000007,
      "d": 1817.5860156250128,
      "v": 1
    },
    {
      "midi": 74,
      "hit": false,
      "t": 200814.55600000007,
      "d": 1817.5860156250128,
      "v": 1
    },
    {
      "midi": 72,
      "hit": false,
      "t": 202651.2745000001,
      "d": 389.0271822916402,
      "v": 1
    },
    {
      "midi": 67,
      "hit": false,
      "t": 202651.2745000001,
      "d": 433.6696458333172,
      "v": 1
    },
    {
      "midi": 70,
      "hit": false,
      "t": 202957.39425000007,
      "d": 1817.5860156250128,
      "v": 1
    },
    {
      "midi": 75,
      "hit": false,
      "t": 202957.39425000007,
      "d": 1817.5860156250128,
      "v": 1
    },
    {
      "midi": 39,
      "hit": false,
      "t": 203238.00402083312,
      "d": 2528.6766848957923,
      "v": 92
    },
    {
      "midi": 67,
      "hit": false,
      "t": 203241.19276822894,
      "d": 2203.4244505208335,
      "v": 107
    },
    {
      "midi": 70,
      "hit": false,
      "t": 203241.19276822894,
      "d": 2209.8019453125016,
      "v": 97
    },
    {
      "midi": 75,
      "hit": false,
      "t": 203241.19276822894,
      "d": 2248.0669140625105,
      "v": 97
    },
    {
      "midi": 67,
      "hit": false,
      "t": 204794.1127500001,
      "d": 286.98726562500815,
      "v": 1
    },
    {
      "midi": 75,
      "hit": false,
      "t": 204794.1127500001,
      "d": 286.98726562500815,
      "v": 1
    },
    {
      "midi": 65,
      "hit": false,
      "t": 205100.2325000001,
      "d": 286.98726562500815,
      "v": 1
    },
    {
      "midi": 72,
      "hit": false,
      "t": 205100.2325000001,
      "d": 286.98726562500815,
      "v": 1
    },
    {
      "midi": 63,
      "hit": false,
      "t": 205406.3522500001,
      "d": 286.98726562500815,
      "v": 1
    },
    {
      "midi": 70,
      "hit": false,
      "t": 205406.3522500001,
      "d": 286.98726562500815,
      "v": 1
    },
    {
      "midi": 70,
      "hit": false,
      "t": 205699.71701041644,
      "d": 1128.81657812497,
      "v": 102
    },
    {
      "midi": 75,
      "hit": false,
      "t": 205699.71701041644,
      "d": 1128.81657812497,
      "v": 127
    },
    {
      "midi": 46,
      "hit": false,
      "t": 205699.71701041644,
      "d": 1240.4227369790897,
      "v": 72
    },
    {
      "midi": 67,
      "hit": false,
      "t": 205702.90575781226,
      "d": 1106.495346354146,
      "v": 113
    },
    {
      "midi": 73,
      "hit": false,
      "t": 205702.90575781226,
      "d": 1132.0053255208186,
      "v": 102
    },
    {
      "midi": 70,
      "hit": false,
      "t": 205712.47200000013,
      "d": 1881.3609635416651,
      "v": 1
    },
    {
      "midi": 39,
      "hit": false,
      "t": 206924.1960104164,
      "d": 1253.177726562426,
      "v": 88
    },
    {
      "midi": 75,
      "hit": false,
      "t": 206927.38475781222,
      "d": 1036.3429036457965,
      "v": 107
    },
    {
      "midi": 73,
      "hit": false,
      "t": 206936.9509999997,
      "d": 615.4282473958156,
      "v": 102
    },
    {
      "midi": 67,
      "hit": false,
      "t": 206936.9509999997,
      "d": 959.8129661458079,
      "v": 107
    },
    {
      "midi": 70,
      "hit": false,
      "t": 206936.9509999997,
      "d": 988.5116927083,
      "v": 97
    },
    {
      "midi": 67,
      "hit": false,
      "t": 207549.1905000001,
      "d": 6.377494791668141,
      "v": 1
    },
    {
      "midi": 60,
      "hit": false,
      "t": 207549.1905000001,
      "d": 593.1070156250207,
      "v": 1
    },
    {
      "midi": 63,
      "hit": false,
      "t": 207549.1905000001,
      "d": 593.1070156250207,
      "v": 1
    },
    {
      "midi": 65,
      "hit": false,
      "t": 207855.31025000013,
      "d": 286.98726562500815,
      "v": 1
    },
    {
      "midi": 68,
      "hit": false,
      "t": 208151.86375781219,
      "d": 2075.8745546874707,
      "v": 88
    },
    {
      "midi": 72,
      "hit": false,
      "t": 208161.42999999967,
      "d": 1983.4008802083263,
      "v": 102
    },
    {
      "midi": 75,
      "hit": false,
      "t": 208161.42999999967,
      "d": 2260.8219036458177,
      "v": 102
    },
    {
      "midi": 44,
      "hit": false,
      "t": 208161.42999999967,
      "d": 2417.0705260416435,
      "v": 92
    },
    {
      "midi": 60,
      "hit": false,
      "t": 208161.43000000014,
      "d": 2429.825515625009,
      "v": 1
    },
    {
      "midi": 63,
      "hit": false,
      "t": 208161.43000000014,
      "d": 2429.825515625009,
      "v": 1
    },
    {
      "midi": 68,
      "hit": false,
      "t": 208161.43000000014,
      "d": 2429.825515625009,
      "v": 1
    },
    {
      "midi": 67,
      "hit": false,
      "t": 210597.63301041632,
      "d": 2426.63676822916,
      "v": 88
    },
    {
      "midi": 43,
      "hit": false,
      "t": 210597.63301041632,
      "d": 2455.3354947916523,
      "v": 82
    },
    {
      "midi": 75,
      "hit": false,
      "t": 210597.63301041632,
      "d": 3029.3100260416686,
      "v": 74
    },
    {
      "midi": 70,
      "hit": false,
      "t": 210600.82175781214,
      "d": 2968.723825520836,
      "v": 71
    },
    {
      "midi": 58,
      "hit": false,
      "t": 210610.38800000015,
      "d": 1817.5860156250128,
      "v": 1
    },
    {
      "midi": 63,
      "hit": false,
      "t": 210610.38800000015,
      "d": 1817.5860156250128,
      "v": 1
    },
    {
      "midi": 67,
      "hit": false,
      "t": 210610.38800000015,
      "d": 1817.5860156250128,
      "v": 1
    },
    {
      "midi": 63,
      "hit": false,
      "t": 212447.10650000017,
      "d": 580.3520260416553,
      "v": 1
    },
    {
      "midi": 55,
      "hit": false,
      "t": 212447.10650000017,
      "d": 599.4845104166598,
      "v": 1
    },
    {
      "midi": 70,
      "hit": false,
      "t": 212447.10650000017,
      "d": 599.4845104166598,
      "v": 1
    },
    {
      "midi": 48,
      "hit": false,
      "t": 213049.77975781215,
      "d": 2426.63676822916,
      "v": 84
    },
    {
      "midi": 60,
      "hit": false,
      "t": 213059.34600000017,
      "d": 2429.825515625009,
      "v": 1
    },
    {
      "midi": 63,
      "hit": false,
      "t": 213059.34600000017,
      "d": 2429.825515625009,
      "v": 1
    },
    {
      "midi": 67,
      "hit": false,
      "t": 213059.34600000017,
      "d": 2429.825515625009,
      "v": 1
    },
    {
      "midi": 75,
      "hit": false,
      "t": 213059.34600000017,
      "d": 2429.825515625009,
      "v": 1
    },
    {
      "midi": 67,
      "hit": false,
      "t": 213658.83051041633,
      "d": 1444.5025703124993,
      "v": 92
    },
    {
      "midi": 72,
      "hit": false,
      "t": 214258.315020833,
      "d": 1036.3429036458256,
      "v": 73
    },
    {
      "midi": 75,
      "hit": false,
      "t": 214860.9882786455,
      "d": 379.46094010415254,
      "v": 75
    },
    {
      "midi": 65,
      "hit": false,
      "t": 215482.79402083298,
      "d": 411.34841406249325,
      "v": 78
    },
    {
      "midi": 46,
      "hit": false,
      "t": 215482.79402083298,
      "d": 2464.90173697914,
      "v": 78
    },
    {
      "midi": 70,
      "hit": false,
      "t": 215485.9827682288,
      "d": 589.9182682291721,
      "v": 71
    },
    {
      "midi": 74,
      "hit": false,
      "t": 215485.9827682288,
      "d": 813.1305859374988,
      "v": 85
    },
    {
      "midi": 58,
      "hit": false,
      "t": 215508.30400000018,
      "d": 1817.5860156250128,
      "v": 1
    },
    {
      "midi": 65,
      "hit": false,
      "t": 215508.30400000018,
      "d": 1817.5860156250128,
      "v": 1
    },
    {
      "midi": 75,
      "hit": false,
      "t": 215508.30400000018,
      "d": 1817.5860156250128,
      "v": 1
    },
    {
      "midi": 79,
      "hit": false,
      "t": 215508.30400000018,
      "d": 1817.5860156250128,
      "v": 1
    },
    {
      "midi": 65,
      "hit": false,
      "t": 216095.03352083298,
      "d": 1256.3664739583328,
      "v": 83
    },
    {
      "midi": 70,
      "hit": false,
      "t": 216697.70677864546,
      "d": 3644.7382734375133,
      "v": 58
    },
    {
      "midi": 74,
      "hit": false,
      "t": 217319.51252083297,
      "d": 296.5535078124958,
      "v": 82
    },
    {
      "midi": 58,
      "hit": false,
      "t": 217345.0225000002,
      "d": 593.1070156249916,
      "v": 1
    },
    {
      "midi": 65,
      "hit": false,
      "t": 217345.0225000002,
      "d": 593.1070156249916,
      "v": 1
    },
    {
      "midi": 74,
      "hit": false,
      "t": 217345.0225000002,
      "d": 593.1070156249916,
      "v": 1
    },
    {
      "midi": 77,
      "hit": false,
      "t": 217345.0225000002,
      "d": 593.1070156249916,
      "v": 1
    },
    {
      "midi": 67,
      "hit": false,
      "t": 217931.75202083297,
      "d": 2337.3518411458354,
      "v": 92
    },
    {
      "midi": 39,
      "hit": false,
      "t": 217934.9407682288,
      "d": 1967.4571432291705,
      "v": 70
    },
    {
      "midi": 75,
      "hit": false,
      "t": 217934.9407682288,
      "d": 2407.504283854185,
      "v": 81
    },
    {
      "midi": 63,
      "hit": false,
      "t": 217957.2620000002,
      "d": 5491.023015624989,
      "v": 1
    },
    {
      "midi": 67,
      "hit": false,
      "t": 217957.2620000002,
      "d": 5491.023015624989,
      "v": 1
    },
    {
      "midi": 70,
      "hit": false,
      "t": 217957.2620000002,
      "d": 5491.023015624989,
      "v": 1
    },
    {
      "midi": 75,
      "hit": false,
      "t": 217957.2620000002,
      "d": 5491.023015624989,
      "v": 1
    }
  ]
}