{
  "jsonPath": "Rock/South Carolina Indie/Contour/la-primavera.json",
  "path": "Rock\\South Carolina Indie\\Contour\\La Primavera.mid",
  "name": "La Primavera",
  "difficulty": "Advanced",
  "bpm": 137.00725910127804,
  "notes": [
    {
      "midi": 65,
      "hit": false,
      "t": 15765.588000000002,
      "d": 2148.608781249999,
      "v": 92
    },
    {
      "midi": 56,
      "hit": false,
      "t": 15765.588000000002,
      "d": 2175.9795937500003,
      "v": 60
    },
    {
      "midi": 37,
      "hit": false,
      "t": 15765.588000000002,
      "d": 2645.8452083333304,
      "v": 73
    },
    {
      "midi": 61,
      "hit": false,
      "t": 15766.500360416669,
      "d": 2176.8919541666673,
      "v": 70
    },
    {
      "midi": 85,
      "hit": false,
      "t": 15781.098127083336,
      "d": 394.1396999999997,
      "v": 87
    },
    {
      "midi": 73,
      "hit": false,
      "t": 15788.39701041667,
      "d": 419.6857916666668,
      "v": 87
    },
    {
      "midi": 68,
      "hit": false,
      "t": 16409.714454166668,
      "d": 80.2877166666658,
      "v": 87
    },
    {
      "midi": 80,
      "hit": false,
      "t": 16417.925697916668,
      "d": 87.58659999999873,
      "v": 73
    },
    {
      "midi": 80,
      "hit": false,
      "t": 16647.840522916667,
      "d": 1068.3740479166663,
      "v": 87
    },
    {
      "midi": 68,
      "hit": false,
      "t": 16652.402325,
      "d": 1060.1628041666663,
      "v": 85
    },
    {
      "midi": 65,
      "hit": false,
      "t": 18185.167825,
      "d": 110.39561041666457,
      "v": 92
    },
    {
      "midi": 77,
      "hit": false,
      "t": 18192.466708333333,
      "d": 110.39561041666457,
      "v": 92
    },
    {
      "midi": 66,
      "hit": false,
      "t": 18388.62419791667,
      "d": 624.9668854166594,
      "v": 73
    },
    {
      "midi": 66,
      "hit": false,
      "t": 18390.448918749997,
      "d": 433.37119791666555,
      "v": 92
    },
    {
      "midi": 58,
      "hit": false,
      "t": 18393.186,
      "d": 396.8767812499973,
      "v": 73
    },
    {
      "midi": 54,
      "hit": false,
      "t": 18397.747802083333,
      "d": 469.86561458333017,
      "v": 63
    },
    {
      "midi": 61,
      "hit": false,
      "t": 18399.572522916667,
      "d": 410.56218749999607,
      "v": 73
    },
    {
      "midi": 78,
      "hit": false,
      "t": 18406.871406249997,
      "d": 438.84536041666433,
      "v": 82
    },
    {
      "midi": 44,
      "hit": false,
      "t": 18406.87140625,
      "d": 898.6750104166604,
      "v": 74
    },
    {
      "midi": 56,
      "hit": false,
      "t": 18803.748187499998,
      "d": 411.47454791666314,
      "v": 55
    },
    {
      "midi": 60,
      "hit": false,
      "t": 18813.78415208333,
      "d": 415.1239895833278,
      "v": 66
    },
    {
      "midi": 70,
      "hit": false,
      "t": 19004.467479166662,
      "d": 147.8023874999999,
      "v": 77
    },
    {
      "midi": 82,
      "hit": false,
      "t": 19018.15288541666,
      "d": 118.6068541666682,
      "v": 87
    },
    {
      "midi": 68,
      "hit": false,
      "t": 19250.804791666662,
      "d": 576.6117833333301,
      "v": 86
    },
    {
      "midi": 80,
      "hit": false,
      "t": 19255.366593749994,
      "d": 603.0702354166642,
      "v": 87
    },
    {
      "midi": 37,
      "hit": false,
      "t": 19266.31491874999,
      "d": 2647.6699291666737,
      "v": 66
    },
    {
      "midi": 56,
      "hit": false,
      "t": 19269.051999999992,
      "d": 1708.8510604166695,
      "v": 57
    },
    {
      "midi": 61,
      "hit": false,
      "t": 19280.000324999994,
      "d": 1697.9027354166683,
      "v": 73
    },
    {
      "midi": 65,
      "hit": false,
      "t": 19282.737406249995,
      "d": 1695.165654166667,
      "v": 98
    },
    {
      "midi": 73,
      "hit": false,
      "t": 19957.884114583325,
      "d": 100.35964583333043,
      "v": 77
    },
    {
      "midi": 61,
      "hit": false,
      "t": 19962.445916666657,
      "d": 110.39561041666457,
      "v": 77
    },
    {
      "midi": 61,
      "hit": false,
      "t": 20158.60340624999,
      "d": 905.9738937499969,
      "v": 77
    },
    {
      "midi": 73,
      "hit": false,
      "t": 20164.077568749988,
      "d": 876.7783604166652,
      "v": 87
    },
    {
      "midi": 58,
      "hit": false,
      "t": 20999.79971041666,
      "d": 270.0586833333364,
      "v": 73
    },
    {
      "midi": 54,
      "hit": false,
      "t": 21257.99770833333,
      "d": 251.81147500000225,
      "v": 57
    },
    {
      "midi": 56,
      "hit": false,
      "t": 21454.155197916665,
      "d": 1095.7448604166675,
      "v": 52
    },
    {
      "midi": 65,
      "hit": false,
      "t": 21688.631824999986,
      "d": 110.39561041666457,
      "v": 92
    },
    {
      "midi": 77,
      "hit": false,
      "t": 21695.93070833332,
      "d": 110.39561041666457,
      "v": 92
    },
    {
      "midi": 61,
      "hit": false,
      "t": 21882.96459375,
      "d": 2391.2966520833324,
      "v": 39
    },
    {
      "midi": 44,
      "hit": false,
      "t": 21892.088197916666,
      "d": 880.4278020833335,
      "v": 39
    },
    {
      "midi": 66,
      "hit": false,
      "t": 21893.912918749982,
      "d": 433.37119791666555,
      "v": 92
    },
    {
      "midi": 53,
      "hit": false,
      "t": 21906.685964583332,
      "d": 593.9466312500008,
      "v": 70
    },
    {
      "midi": 78,
      "hit": false,
      "t": 21910.335406249982,
      "d": 438.84536041666433,
      "v": 82
    },
    {
      "midi": 70,
      "hit": false,
      "t": 22507.931479166647,
      "d": 147.8023874999999,
      "v": 77
    },
    {
      "midi": 82,
      "hit": false,
      "t": 22521.616885416646,
      "d": 118.6068541666682,
      "v": 87
    },
    {
      "midi": 68,
      "hit": false,
      "t": 22754.268791666647,
      "d": 576.6117833333301,
      "v": 83
    },
    {
      "midi": 80,
      "hit": false,
      "t": 22758.83059374998,
      "d": 603.0702354166642,
      "v": 83
    },
    {
      "midi": 58,
      "hit": false,
      "t": 22781.639604166667,
      "d": 1573.8217187499977,
      "v": 73
    },
    {
      "midi": 46,
      "hit": false,
      "t": 22781.639604166667,
      "d": 1666.8824812499988,
      "v": 46
    },
    {
      "midi": 53,
      "hit": false,
      "t": 22795.325010416665,
      "d": 1575.6464395833318,
      "v": 63
    },
    {
      "midi": 73,
      "hit": false,
      "t": 23461.34811458331,
      "d": 100.35964583333043,
      "v": 77
    },
    {
      "midi": 61,
      "hit": false,
      "t": 23465.909916666642,
      "d": 110.39561041666457,
      "v": 77
    },
    {
      "midi": 61,
      "hit": false,
      "t": 23662.067406249975,
      "d": 905.9738937499969,
      "v": 77
    },
    {
      "midi": 73,
      "hit": false,
      "t": 23667.541568749974,
      "d": 876.7783604166652,
      "v": 87
    },
    {
      "midi": 54,
      "hit": false,
      "t": 24469.506374999997,
      "d": 515.4836354166655,
      "v": 63
    },
    {
      "midi": 42,
      "hit": false,
      "t": 24542.49520833333,
      "d": 759.9962270833312,
      "v": 70
    },
    {
      "midi": 56,
      "hit": false,
      "t": 24918.387699999996,
      "d": 351.2587604166656,
      "v": 66
    },
    {
      "midi": 61,
      "hit": false,
      "t": 25173.848616666637,
      "d": 120.43157500000234,
      "v": 85
    },
    {
      "midi": 73,
      "hit": false,
      "t": 25192.09582499997,
      "d": 100.35964583333407,
      "v": 80
    },
    {
      "midi": 44,
      "hit": false,
      "t": 25378.217349999995,
      "d": 914.1851374999969,
      "v": 71
    },
    {
      "midi": 56,
      "hit": false,
      "t": 25395.552197916662,
      "d": 699.7804395833336,
      "v": 73
    },
    {
      "midi": 61,
      "hit": false,
      "t": 25400.113999999972,
      "d": 248.16203333333397,
      "v": 83
    },
    {
      "midi": 61,
      "hit": false,
      "t": 25404.67580208333,
      "d": 697.9557187499995,
      "v": 70
    },
    {
      "midi": 73,
      "hit": false,
      "t": 25409.23760416664,
      "d": 225.35302291666812,
      "v": 90
    },
    {
      "midi": 51,
      "hit": false,
      "t": 25409.23760416666,
      "d": 520.0454375000008,
      "v": 60
    },
    {
      "midi": 63,
      "hit": false,
      "t": 25701.192937499975,
      "d": 250.89911458333154,
      "v": 73
    },
    {
      "midi": 75,
      "hit": false,
      "t": 25707.57946041664,
      "d": 197.98221041666693,
      "v": 87
    },
    {
      "midi": 77,
      "hit": false,
      "t": 25984.937027083306,
      "d": 212.57997708332914,
      "v": 82
    },
    {
      "midi": 65,
      "hit": false,
      "t": 25989.498829166638,
      "d": 201.63165208333157,
      "v": 87
    },
    {
      "midi": 56,
      "hit": false,
      "t": 26271.41819791666,
      "d": 2983.418562499999,
      "v": 73
    },
    {
      "midi": 37,
      "hit": false,
      "t": 26271.41819791666,
      "d": 3179.5760520833355,
      "v": 67
    },
    {
      "midi": 77,
      "hit": false,
      "t": 26280.541802083302,
      "d": 1803.7365437499975,
      "v": 94
    },
    {
      "midi": 65,
      "hit": false,
      "t": 26285.103604166634,
      "d": 1803.7365437499975,
      "v": 84
    },
    {
      "midi": 61,
      "hit": false,
      "t": 26286.928324999993,
      "d": 2970.6455166666674,
      "v": 66
    },
    {
      "midi": 53,
      "hit": false,
      "t": 26286.928324999993,
      "d": 3070.0928020833344,
      "v": 77
    },
    {
      "midi": 56,
      "hit": false,
      "t": 29329.650314583327,
      "d": 362.20708541667045,
      "v": 77
    },
    {
      "midi": 63,
      "hit": false,
      "t": 29333.299756249995,
      "d": 333.9239125000022,
      "v": 73
    },
    {
      "midi": 60,
      "hit": false,
      "t": 29341.510999999995,
      "d": 323.88794791666805,
      "v": 98
    },
    {
      "midi": 56,
      "hit": false,
      "t": 29779.443999999996,
      "d": 1661.40831875,
      "v": 60
    },
    {
      "midi": 65,
      "hit": false,
      "t": 29779.443999999996,
      "d": 1665.0577604166683,
      "v": 92
    },
    {
      "midi": 37,
      "hit": false,
      "t": 29779.443999999996,
      "d": 2645.8452083333323,
      "v": 73
    },
    {
      "midi": 61,
      "hit": false,
      "t": 29780.356360416663,
      "d": 1638.5993083333342,
      "v": 70
    },
    {
      "midi": 85,
      "hit": false,
      "t": 29794.9541270833,
      "d": 394.1396999999997,
      "v": 87
    },
    {
      "midi": 73,
      "hit": false,
      "t": 29802.253010416633,
      "d": 419.6857916666668,
      "v": 87
    },
    {
      "midi": 68,
      "hit": false,
      "t": 30423.57045416663,
      "d": 80.2877166666658,
      "v": 87
    },
    {
      "midi": 80,
      "hit": false,
      "t": 30431.78169791663,
      "d": 87.58659999999873,
      "v": 73
    },
    {
      "midi": 80,
      "hit": false,
      "t": 30661.69652291663,
      "d": 1068.3740479166663,
      "v": 87
    },
    {
      "midi": 68,
      "hit": false,
      "t": 30666.258324999962,
      "d": 1060.1628041666663,
      "v": 85
    },
    {
      "midi": 65,
      "hit": false,
      "t": 32199.023824999964,
      "d": 110.39561041666457,
      "v": 92
    },
    {
      "midi": 77,
      "hit": false,
      "t": 32206.322708333297,
      "d": 110.39561041666457,
      "v": 92
    },
    {
      "midi": 66,
      "hit": false,
      "t": 32402.480197916666,
      "d": 624.9668854166666,
      "v": 73
    },
    {
      "midi": 66,
      "hit": false,
      "t": 32404.30491874996,
      "d": 433.37119791666555,
      "v": 92
    },
    {
      "midi": 58,
      "hit": false,
      "t": 32407.041999999998,
      "d": 396.8767812499973,
      "v": 73
    },
    {
      "midi": 54,
      "hit": false,
      "t": 32411.60380208333,
      "d": 469.86561458333745,
      "v": 63
    },
    {
      "midi": 61,
      "hit": false,
      "t": 32413.428522916663,
      "d": 410.5621874999997,
      "v": 73
    },
    {
      "midi": 78,
      "hit": false,
      "t": 32420.72740624996,
      "d": 438.845360416668,
      "v": 82
    },
    {
      "midi": 44,
      "hit": false,
      "t": 32420.727406249996,
      "d": 898.6750104166749,
      "v": 74
    },
    {
      "midi": 56,
      "hit": false,
      "t": 32817.604187499994,
      "d": 411.47454791667406,
      "v": 55
    },
    {
      "midi": 60,
      "hit": false,
      "t": 32827.64015208333,
      "d": 415.12398958333506,
      "v": 66
    },
    {
      "midi": 70,
      "hit": false,
      "t": 33018.323479166625,
      "d": 147.8023874999999,
      "v": 77
    },
    {
      "midi": 82,
      "hit": false,
      "t": 33032.008885416624,
      "d": 118.6068541666682,
      "v": 87
    },
    {
      "midi": 68,
      "hit": false,
      "t": 33264.660791666625,
      "d": 576.6117833333337,
      "v": 86
    },
    {
      "midi": 80,
      "hit": false,
      "t": 33269.22259374996,
      "d": 603.0702354166642,
      "v": 87
    },
    {
      "midi": 56,
      "hit": false,
      "t": 33282.908,
      "d": 1708.8510604166659,
      "v": 57
    },
    {
      "midi": 61,
      "hit": false,
      "t": 33293.856325,
      "d": 1697.9027354166683,
      "v": 73
    },
    {
      "midi": 65,
      "hit": false,
      "t": 33296.59340625,
      "d": 1695.165654166667,
      "v": 98
    },
    {
      "midi": 44,
      "hit": false,
      "t": 33693.4701875,
      "d": 478.9892187500009,
      "v": 74
    },
    {
      "midi": 73,
      "hit": false,
      "t": 33971.74011458329,
      "d": 100.35964583333407,
      "v": 77
    },
    {
      "midi": 61,
      "hit": false,
      "t": 33976.30191666663,
      "d": 110.39561041666457,
      "v": 77
    },
    {
      "midi": 37,
      "hit": false,
      "t": 34156.036918750004,
      "d": 849.407547916664,
      "v": 66
    },
    {
      "midi": 61,
      "hit": false,
      "t": 34172.45940624996,
      "d": 905.9738937500078,
      "v": 77
    },
    {
      "midi": 73,
      "hit": false,
      "t": 34177.93356874996,
      "d": 876.7783604166689,
      "v": 87
    },
    {
      "midi": 58,
      "hit": false,
      "t": 35013.65571041667,
      "d": 270.0586833333291,
      "v": 73
    },
    {
      "midi": 54,
      "hit": false,
      "t": 35271.853708333336,
      "d": 251.81147500000225,
      "v": 57
    },
    {
      "midi": 56,
      "hit": false,
      "t": 35468.01119791667,
      "d": 1095.7448604166639,
      "v": 52
    },
    {
      "midi": 65,
      "hit": false,
      "t": 35702.48782499997,
      "d": 110.39561041667184,
      "v": 92
    },
    {
      "midi": 77,
      "hit": false,
      "t": 35709.786708333304,
      "d": 110.39561041667184,
      "v": 92
    },
    {
      "midi": 61,
      "hit": false,
      "t": 35896.82059375,
      "d": 2391.2966520833215,
      "v": 39
    },
    {
      "midi": 44,
      "hit": false,
      "t": 35905.944197916666,
      "d": 880.4278020833299,
      "v": 39
    },
    {
      "midi": 66,
      "hit": false,
      "t": 35907.76891874998,
      "d": 433.3711979166692,
      "v": 92
    },
    {
      "midi": 53,
      "hit": false,
      "t": 35920.54196458333,
      "d": 593.9466312500008,
      "v": 46
    },
    {
      "midi": 78,
      "hit": false,
      "t": 35924.19140624998,
      "d": 438.8453604166716,
      "v": 82
    },
    {
      "midi": 70,
      "hit": false,
      "t": 36521.78747916665,
      "d": 147.8023874999999,
      "v": 77
    },
    {
      "midi": 82,
      "hit": false,
      "t": 36535.472885416646,
      "d": 118.6068541666682,
      "v": 87
    },
    {
      "midi": 68,
      "hit": false,
      "t": 36768.12479166665,
      "d": 576.6117833333337,
      "v": 83
    },
    {
      "midi": 80,
      "hit": false,
      "t": 36772.68659374998,
      "d": 603.0702354166642,
      "v": 83
    },
    {
      "midi": 58,
      "hit": false,
      "t": 36795.49560416666,
      "d": 1573.8217187499977,
      "v": 73
    },
    {
      "midi": 46,
      "hit": false,
      "t": 36795.49560416666,
      "d": 1666.8824812499952,
      "v": 46
    },
    {
      "midi": 53,
      "hit": false,
      "t": 36809.18101041666,
      "d": 1575.6464395833318,
      "v": 63
    },
    {
      "midi": 73,
      "hit": false,
      "t": 37475.204114583314,
      "d": 100.35964583333407,
      "v": 77
    },
    {
      "midi": 61,
      "hit": false,
      "t": 37479.76591666665,
      "d": 110.39561041666457,
      "v": 77
    },
    {
      "midi": 61,
      "hit": false,
      "t": 37675.92340624998,
      "d": 905.9738937500078,
      "v": 77
    },
    {
      "midi": 73,
      "hit": false,
      "t": 37681.397568749984,
      "d": 876.7783604166689,
      "v": 87
    },
    {
      "midi": 54,
      "hit": false,
      "t": 38483.36237499999,
      "d": 515.4836354166691,
      "v": 63
    },
    {
      "midi": 42,
      "hit": false,
      "t": 38556.351208333326,
      "d": 759.9962270833348,
      "v": 70
    },
    {
      "midi": 56,
      "hit": false,
      "t": 38932.24369999999,
      "d": 351.25876041666925,
      "v": 66
    },
    {
      "midi": 61,
      "hit": false,
      "t": 39187.704616666655,
      "d": 120.43157500000234,
      "v": 85
    },
    {
      "midi": 73,
      "hit": false,
      "t": 39205.95182499999,
      "d": 100.35964583333407,
      "v": 80
    },
    {
      "midi": 44,
      "hit": false,
      "t": 39392.07334999999,
      "d": 914.1851374999969,
      "v": 71
    },
    {
      "midi": 58,
      "hit": false,
      "t": 39409.40819791666,
      "d": 319.32614583332906,
      "v": 86
    },
    {
      "midi": 61,
      "hit": false,
      "t": 39413.969999999994,
      "d": 248.1620333333267,
      "v": 83
    },
    {
      "midi": 73,
      "hit": false,
      "t": 39423.09360416666,
      "d": 225.3530229166645,
      "v": 90
    },
    {
      "midi": 51,
      "hit": false,
      "t": 39423.09360416666,
      "d": 520.0454374999972,
      "v": 60
    },
    {
      "midi": 63,
      "hit": false,
      "t": 39715.04893749999,
      "d": 250.89911458333518,
      "v": 73
    },
    {
      "midi": 75,
      "hit": false,
      "t": 39721.43546041666,
      "d": 197.98221041666693,
      "v": 87
    },
    {
      "midi": 61,
      "hit": false,
      "t": 39746.98155208332,
      "d": 419.68579166666314,
      "v": 88
    },
    {
      "midi": 56,
      "hit": false,
      "t": 39760.66695833332,
      "d": 419.68579166666314,
      "v": 88
    },
    {
      "midi": 77,
      "hit": false,
      "t": 39998.793027083324,
      "d": 212.57997708334005,
      "v": 82
    },
    {
      "midi": 65,
      "hit": false,
      "t": 40003.35482916666,
      "d": 201.6316520833352,
      "v": 87
    },
    {
      "midi": 37,
      "hit": false,
      "t": 40285.27419791665,
      "d": 3179.5760520833355,
      "v": 67
    },
    {
      "midi": 56,
      "hit": false,
      "t": 40287.09891874999,
      "d": 307.4654604166717,
      "v": 60
    },
    {
      "midi": 73,
      "hit": false,
      "t": 40294.39780208333,
      "d": 1803.7365437500048,
      "v": 94
    },
    {
      "midi": 61,
      "hit": false,
      "t": 40298.95960416667,
      "d": 1803.7365437500048,
      "v": 84
    },
    {
      "midi": 61,
      "hit": false,
      "t": 40303.52140624999,
      "d": 1738.046593750012,
      "v": 48
    },
    {
      "midi": 53,
      "hit": false,
      "t": 40308.99556874999,
      "d": 1744.4331166666743,
      "v": 70
    },
    {
      "midi": 56,
      "hit": false,
      "t": 40765.17577708333,
      "d": 535.5555645833301,
      "v": 87
    },
    {
      "midi": 56,
      "hit": false,
      "t": 41585.38779166666,
      "d": 456.18020833333867,
      "v": 87
    },
    {
      "midi": 49,
      "hit": false,
      "t": 42027.88259374999,
      "d": 1775.4533708333256,
      "v": 73
    },
    {
      "midi": 54,
      "hit": false,
      "t": 42032.44439583333,
      "d": 315.67670416666806,
      "v": 82
    },
    {
      "midi": 58,
      "hit": false,
      "t": 42034.26911666666,
      "d": 950.6795541666652,
      "v": 42
    },
    {
      "midi": 54,
      "hit": false,
      "t": 42511.43361458333,
      "d": 1282.778745833326,
      "v": 77
    },
    {
      "midi": 58,
      "hit": false,
      "t": 43324.346745833325,
      "d": 492.6746249999924,
      "v": 83
    },
    {
      "midi": 65,
      "hit": false,
      "t": 43793.29999999999,
      "d": 2148.6087812499973,
      "v": 107
    },
    {
      "midi": 56,
      "hit": false,
      "t": 43793.29999999999,
      "d": 2175.979593749995,
      "v": 75
    },
    {
      "midi": 37,
      "hit": false,
      "t": 43793.29999999999,
      "d": 2645.8452083333395,
      "v": 88
    },
    {
      "midi": 61,
      "hit": false,
      "t": 43794.212360416655,
      "d": 2176.891954166662,
      "v": 85
    },
    {
      "midi": 85,
      "hit": false,
      "t": 43822.495533333335,
      "d": 394.1396999999997,
      "v": 102
    },
    {
      "midi": 73,
      "hit": false,
      "t": 43829.79441666667,
      "d": 419.68579166666314,
      "v": 102
    },
    {
      "midi": 68,
      "hit": false,
      "t": 44451.11186041667,
      "d": 80.28771666667308,
      "v": 102
    },
    {
      "midi": 80,
      "hit": false,
      "t": 44459.32310416667,
      "d": 87.58660000000236,
      "v": 88
    },
    {
      "midi": 80,
      "hit": false,
      "t": 44689.23792916667,
      "d": 1068.3740479166736,
      "v": 102
    },
    {
      "midi": 68,
      "hit": false,
      "t": 44693.79973125001,
      "d": 1060.16280416667,
      "v": 100
    },
    {
      "midi": 65,
      "hit": false,
      "t": 46226.56523125002,
      "d": 110.39561041667184,
      "v": 107
    },
    {
      "midi": 77,
      "hit": false,
      "t": 46233.86411458335,
      "d": 110.39561041667184,
      "v": 107
    },
    {
      "midi": 66,
      "hit": false,
      "t": 46416.33619791665,
      "d": 624.9668854166812,
      "v": 88
    },
    {
      "midi": 58,
      "hit": false,
      "t": 46420.89799999999,
      "d": 396.8767812500082,
      "v": 88
    },
    {
      "midi": 54,
      "hit": false,
      "t": 46425.45980208332,
      "d": 469.8656145833447,
      "v": 78
    },
    {
      "midi": 61,
      "hit": false,
      "t": 46427.284522916656,
      "d": 410.562187500007,
      "v": 88
    },
    {
      "midi": 66,
      "hit": false,
      "t": 46431.84632500003,
      "d": 433.3711979166692,
      "v": 107
    },
    {
      "midi": 44,
      "hit": false,
      "t": 46434.58340624999,
      "d": 898.6750104166786,
      "v": 89
    },
    {
      "midi": 78,
      "hit": false,
      "t": 46448.26881250003,
      "d": 438.8453604166716,
      "v": 97
    },
    {
      "midi": 56,
      "hit": false,
      "t": 46831.46018749999,
      "d": 411.47454791667406,
      "v": 70
    },
    {
      "midi": 60,
      "hit": false,
      "t": 46841.49615208333,
      "d": 415.12398958333506,
      "v": 81
    },
    {
      "midi": 70,
      "hit": false,
      "t": 47045.8648854167,
      "d": 147.8023874999999,
      "v": 92
    },
    {
      "midi": 82,
      "hit": false,
      "t": 47059.550291666696,
      "d": 118.6068541666682,
      "v": 102
    },
    {
      "midi": 68,
      "hit": false,
      "t": 47292.2021979167,
      "d": 576.6117833333337,
      "v": 101
    },
    {
      "midi": 37,
      "hit": false,
      "t": 47294.02691875,
      "d": 2647.6699291666664,
      "v": 81
    },
    {
      "midi": 56,
      "hit": false,
      "t": 47296.764,
      "d": 1708.8510604166659,
      "v": 72
    },
    {
      "midi": 80,
      "hit": false,
      "t": 47296.76400000003,
      "d": 603.0702354166642,
      "v": 102
    },
    {
      "midi": 61,
      "hit": false,
      "t": 47307.712325,
      "d": 1697.9027354166683,
      "v": 88
    },
    {
      "midi": 65,
      "hit": false,
      "t": 47310.44940625,
      "d": 1695.165654166667,
      "v": 113
    },
    {
      "midi": 73,
      "hit": false,
      "t": 47999.28152083336,
      "d": 100.35964583333407,
      "v": 92
    },
    {
      "midi": 61,
      "hit": false,
      "t": 48003.8433229167,
      "d": 110.39561041666457,
      "v": 92
    },
    {
      "midi": 61,
      "hit": false,
      "t": 48200.00081250003,
      "d": 905.9738937500078,
      "v": 92
    },
    {
      "midi": 73,
      "hit": false,
      "t": 48205.474975000034,
      "d": 876.7783604166689,
      "v": 102
    },
    {
      "midi": 58,
      "hit": false,
      "t": 49027.51171041667,
      "d": 270.0586833333291,
      "v": 88
    },
    {
      "midi": 54,
      "hit": false,
      "t": 49285.709708333336,
      "d": 251.81147500000225,
      "v": 72
    },
    {
      "midi": 56,
      "hit": false,
      "t": 49481.86719791667,
      "d": 1095.7448604166639,
      "v": 67
    },
    {
      "midi": 65,
      "hit": false,
      "t": 49730.02923125004,
      "d": 110.39561041667184,
      "v": 107
    },
    {
      "midi": 77,
      "hit": false,
      "t": 49737.328114583375,
      "d": 110.39561041667184,
      "v": 107
    },
    {
      "midi": 61,
      "hit": false,
      "t": 49910.67659375,
      "d": 2391.2966520833215,
      "v": 54
    },
    {
      "midi": 44,
      "hit": false,
      "t": 49919.800197916666,
      "d": 880.4278020833299,
      "v": 54
    },
    {
      "midi": 53,
      "hit": false,
      "t": 49934.39796458333,
      "d": 593.9466312500008,
      "v": 85
    },
    {
      "midi": 66,
      "hit": false,
      "t": 49935.31032500005,
      "d": 433.3711979166692,
      "v": 107
    },
    {
      "midi": 78,
      "hit": false,
      "t": 49951.73281250005,
      "d": 438.8453604166716,
      "v": 97
    },
    {
      "midi": 70,
      "hit": false,
      "t": 50549.32888541672,
      "d": 147.8023874999999,
      "v": 92
    },
    {
      "midi": 82,
      "hit": false,
      "t": 50563.01429166672,
      "d": 118.6068541666682,
      "v": 102
    },
    {
      "midi": 68,
      "hit": false,
      "t": 50795.66619791672,
      "d": 576.6117833333337,
      "v": 98
    },
    {
      "midi": 80,
      "hit": false,
      "t": 50800.228000000054,
      "d": 603.0702354166642,
      "v": 98
    },
    {
      "midi": 58,
      "hit": false,
      "t": 50809.35160416666,
      "d": 1573.8217187499977,
      "v": 88
    },
    {
      "midi": 46,
      "hit": false,
      "t": 50809.35160416666,
      "d": 1666.8824812499952,
      "v": 61
    },
    {
      "midi": 53,
      "hit": false,
      "t": 50823.03701041666,
      "d": 1575.6464395833318,
      "v": 78
    },
    {
      "midi": 73,
      "hit": false,
      "t": 51502.745520833385,
      "d": 100.35964583333407,
      "v": 92
    },
    {
      "midi": 61,
      "hit": false,
      "t": 51507.30732291672,
      "d": 110.39561041666457,
      "v": 92
    },
    {
      "midi": 61,
      "hit": false,
      "t": 51703.46481250005,
      "d": 905.9738937500078,
      "v": 92
    },
    {
      "midi": 73,
      "hit": false,
      "t": 51708.938975000056,
      "d": 876.7783604166689,
      "v": 102
    },
    {
      "midi": 54,
      "hit": false,
      "t": 52497.21837499999,
      "d": 515.4836354166691,
      "v": 78
    },
    {
      "midi": 42,
      "hit": false,
      "t": 52570.207208333326,
      "d": 759.9962270833348,
      "v": 85
    },
    {
      "midi": 56,
      "hit": false,
      "t": 52946.09969999999,
      "d": 351.25876041666925,
      "v": 81
    },
    {
      "midi": 61,
      "hit": false,
      "t": 53215.246022916726,
      "d": 120.43157500000234,
      "v": 100
    },
    {
      "midi": 73,
      "hit": false,
      "t": 53233.49323125006,
      "d": 100.35964583333407,
      "v": 95
    },
    {
      "midi": 44,
      "hit": false,
      "t": 53405.92934999999,
      "d": 914.1851375000042,
      "v": 86
    },
    {
      "midi": 56,
      "hit": false,
      "t": 53423.26419791666,
      "d": 699.78043958333,
      "v": 88
    },
    {
      "midi": 61,
      "hit": false,
      "t": 53432.38780208332,
      "d": 697.9557187500031,
      "v": 85
    },
    {
      "midi": 51,
      "hit": false,
      "t": 53436.94960416666,
      "d": 520.0454374999972,
      "v": 75
    },
    {
      "midi": 61,
      "hit": false,
      "t": 53441.511406250065,
      "d": 248.1620333333267,
      "v": 98
    },
    {
      "midi": 73,
      "hit": false,
      "t": 53450.63501041673,
      "d": 225.3530229166645,
      "v": 105
    },
    {
      "midi": 63,
      "hit": false,
      "t": 53742.59034375006,
      "d": 250.89911458333518,
      "v": 88
    },
    {
      "midi": 75,
      "hit": false,
      "t": 53748.97686666673,
      "d": 197.98221041666693,
      "v": 102
    },
    {
      "midi": 77,
      "hit": false,
      "t": 54026.334433333395,
      "d": 212.57997708334005,
      "v": 97
    },
    {
      "midi": 65,
      "hit": false,
      "t": 54030.89623541673,
      "d": 201.6316520833352,
      "v": 102
    },
    {
      "midi": 56,
      "hit": false,
      "t": 54299.13019791666,
      "d": 2983.4185625000027,
      "v": 88
    },
    {
      "midi": 37,
      "hit": false,
      "t": 54299.13019791666,
      "d": 3179.576052083343,
      "v": 82
    },
    {
      "midi": 61,
      "hit": false,
      "t": 54314.64032499999,
      "d": 2970.645516666671,
      "v": 81
    },
    {
      "midi": 53,
      "hit": false,
      "t": 54314.64032499999,
      "d": 3070.0928020833453,
      "v": 92
    },
    {
      "midi": 77,
      "hit": false,
      "t": 54321.9392083334,
      "d": 1803.7365437500048,
      "v": 109
    },
    {
      "midi": 65,
      "hit": false,
      "t": 54326.50101041674,
      "d": 1803.7365437500048,
      "v": 99
    },
    {
      "midi": 56,
      "hit": false,
      "t": 57357.36231458333,
      "d": 362.2070854166741,
      "v": 92
    },
    {
      "midi": 63,
      "hit": false,
      "t": 57361.01175625,
      "d": 333.9239125000022,
      "v": 88
    },
    {
      "midi": 60,
      "hit": false,
      "t": 57369.223000000005,
      "d": 323.8879479166644,
      "v": 113
    },
    {
      "midi": 65,
      "hit": false,
      "t": 57793.47059375001,
      "d": 2203.3504062499997,
      "v": 107
    },
    {
      "midi": 56,
      "hit": false,
      "t": 57807.15600000001,
      "d": 2175.979593750002,
      "v": 75
    },
    {
      "midi": 37,
      "hit": false,
      "t": 57807.15600000001,
      "d": 2645.845208333347,
      "v": 88
    },
    {
      "midi": 61,
      "hit": false,
      "t": 57808.06836041668,
      "d": 2176.891954166669,
      "v": 85
    },
    {
      "midi": 85,
      "hit": false,
      "t": 57836.35153333341,
      "d": 394.1396999999997,
      "v": 102
    },
    {
      "midi": 73,
      "hit": false,
      "t": 57843.650416666744,
      "d": 419.68579166666314,
      "v": 102
    },
    {
      "midi": 68,
      "hit": false,
      "t": 58464.96786041674,
      "d": 80.28771666667308,
      "v": 102
    },
    {
      "midi": 80,
      "hit": false,
      "t": 58473.179104166746,
      "d": 87.58660000000236,
      "v": 88
    },
    {
      "midi": 80,
      "hit": false,
      "t": 58703.093929166746,
      "d": 1068.3740479166736,
      "v": 102
    },
    {
      "midi": 68,
      "hit": false,
      "t": 58707.65573125008,
      "d": 1060.16280416667,
      "v": 100
    },
    {
      "midi": 65,
      "hit": false,
      "t": 60240.42123125009,
      "d": 110.39561041667184,
      "v": 107
    },
    {
      "midi": 77,
      "hit": false,
      "t": 60247.720114583426,
      "d": 110.39561041667184,
      "v": 107
    },
    {
      "midi": 66,
      "hit": false,
      "t": 60430.19219791668,
      "d": 624.9668854166812,
      "v": 88
    },
    {
      "midi": 58,
      "hit": false,
      "t": 60434.754000000015,
      "d": 396.8767812500082,
      "v": 88
    },
    {
      "midi": 54,
      "hit": false,
      "t": 60439.31580208335,
      "d": 469.8656145833447,
      "v": 78
    },
    {
      "midi": 61,
      "hit": false,
      "t": 60441.140522916685,
      "d": 410.562187500007,
      "v": 88
    },
    {
      "midi": 66,
      "hit": false,
      "t": 60445.7023250001,
      "d": 433.3711979166692,
      "v": 107
    },
    {
      "midi": 44,
      "hit": false,
      "t": 60448.43940625002,
      "d": 898.6750104166786,
      "v": 89
    },
    {
      "midi": 78,
      "hit": false,
      "t": 60462.1248125001,
      "d": 438.8453604166716,
      "v": 97
    },
    {
      "midi": 56,
      "hit": false,
      "t": 60845.31618750002,
      "d": 411.47454791667406,
      "v": 70
    },
    {
      "midi": 60,
      "hit": false,
      "t": 60855.35215208336,
      "d": 415.12398958333506,
      "v": 81
    },
    {
      "midi": 70,
      "hit": false,
      "t": 61059.72088541677,
      "d": 147.8023874999999,
      "v": 92
    },
    {
      "midi": 82,
      "hit": false,
      "t": 61073.40629166677,
      "d": 118.6068541666682,
      "v": 102
    },
    {
      "midi": 56,
      "hit": false,
      "t": 61310.62000000003,
      "d": 1708.8510604166659,
      "v": 72
    },
    {
      "midi": 61,
      "hit": false,
      "t": 61321.56832500003,
      "d": 1697.9027354166683,
      "v": 88
    },
    {
      "midi": 65,
      "hit": false,
      "t": 61324.30540625003,
      "d": 1695.165654166667,
      "v": 113
    },
    {
      "midi": 68,
      "hit": false,
      "t": 61333.42901041677,
      "d": 576.6117833333337,
      "v": 101
    },
    {
      "midi": 80,
      "hit": false,
      "t": 61337.9908125001,
      "d": 603.0702354166642,
      "v": 102
    },
    {
      "midi": 44,
      "hit": false,
      "t": 61721.18218750003,
      "d": 478.9892187500009,
      "v": 89
    },
    {
      "midi": 73,
      "hit": false,
      "t": 62013.137520833436,
      "d": 100.35964583333407,
      "v": 92
    },
    {
      "midi": 61,
      "hit": false,
      "t": 62017.69932291677,
      "d": 110.39561041666457,
      "v": 92
    },
    {
      "midi": 37,
      "hit": false,
      "t": 62183.74891875003,
      "d": 849.407547916664,
      "v": 81
    },
    {
      "midi": 61,
      "hit": false,
      "t": 62213.856812500104,
      "d": 905.9738937500078,
      "v": 92
    },
    {
      "midi": 73,
      "hit": false,
      "t": 62219.330975000106,
      "d": 876.7783604166689,
      "v": 102
    },
    {
      "midi": 58,
      "hit": false,
      "t": 63041.3677104167,
      "d": 270.0586833333291,
      "v": 88
    },
    {
      "midi": 54,
      "hit": false,
      "t": 63299.565708333364,
      "d": 251.81147500000225,
      "v": 72
    },
    {
      "midi": 56,
      "hit": false,
      "t": 63495.7231979167,
      "d": 1095.7448604166639,
      "v": 67
    },
    {
      "midi": 65,
      "hit": false,
      "t": 63743.88523125011,
      "d": 110.39561041667184,
      "v": 107
    },
    {
      "midi": 77,
      "hit": false,
      "t": 63751.18411458345,
      "d": 110.39561041667184,
      "v": 107
    },
    {
      "midi": 61,
      "hit": false,
      "t": 63924.53259375003,
      "d": 2391.296652083329,
      "v": 54
    },
    {
      "midi": 44,
      "hit": false,
      "t": 63933.656197916695,
      "d": 880.4278020833299,
      "v": 54
    },
    {
      "midi": 53,
      "hit": false,
      "t": 63948.25396458336,
      "d": 593.9466312500008,
      "v": 61
    },
    {
      "midi": 66,
      "hit": false,
      "t": 63949.16632500012,
      "d": 433.3711979166692,
      "v": 107
    },
    {
      "midi": 78,
      "hit": false,
      "t": 63965.58881250012,
      "d": 438.8453604166716,
      "v": 97
    },
    {
      "midi": 70,
      "hit": false,
      "t": 64563.18488541679,
      "d": 147.8023874999999,
      "v": 92
    },
    {
      "midi": 82,
      "hit": false,
      "t": 64576.87029166679,
      "d": 118.6068541666682,
      "v": 102
    },
    {
      "midi": 58,
      "hit": false,
      "t": 64823.20760416669,
      "d": 1573.8217187500122,
      "v": 88
    },
    {
      "midi": 46,
      "hit": false,
      "t": 64823.20760416669,
      "d": 1666.8824812500243,
      "v": 61
    },
    {
      "midi": 53,
      "hit": false,
      "t": 64836.89301041669,
      "d": 1575.6464395833536,
      "v": 78
    },
    {
      "midi": 68,
      "hit": false,
      "t": 64836.89301041679,
      "d": 576.6117833333337,
      "v": 98
    },
    {
      "midi": 80,
      "hit": false,
      "t": 64841.454812500124,
      "d": 603.0702354166642,
      "v": 98
    },
    {
      "midi": 73,
      "hit": false,
      "t": 65516.60152083346,
      "d": 100.35964583333407,
      "v": 92
    },
    {
      "midi": 61,
      "hit": false,
      "t": 65521.16332291679,
      "d": 110.39561041667184,
      "v": 92
    },
    {
      "midi": 61,
      "hit": false,
      "t": 65717.32081250013,
      "d": 905.9738937499933,
      "v": 92
    },
    {
      "midi": 73,
      "hit": false,
      "t": 65722.79497500013,
      "d": 876.7783604166616,
      "v": 102
    },
    {
      "midi": 54,
      "hit": false,
      "t": 66511.07437500004,
      "d": 515.4836354166764,
      "v": 78
    },
    {
      "midi": 42,
      "hit": false,
      "t": 66584.06320833338,
      "d": 759.9962270833348,
      "v": 85
    },
    {
      "midi": 56,
      "hit": false,
      "t": 66959.95570000005,
      "d": 351.25876041666197,
      "v": 81
    },
    {
      "midi": 61,
      "hit": false,
      "t": 67229.10202291679,
      "d": 120.43157499999506,
      "v": 100
    },
    {
      "midi": 73,
      "hit": false,
      "t": 67247.34923125012,
      "d": 100.35964583333407,
      "v": 95
    },
    {
      "midi": 44,
      "hit": false,
      "t": 67419.78535000005,
      "d": 914.1851375000115,
      "v": 86
    },
    {
      "midi": 58,
      "hit": false,
      "t": 67437.12019791671,
      "d": 319.3261458333436,
      "v": 101
    },
    {
      "midi": 51,
      "hit": false,
      "t": 67450.80560416672,
      "d": 520.0454374999972,
      "v": 75
    },
    {
      "midi": 61,
      "hit": false,
      "t": 67455.36740625012,
      "d": 248.16203333334124,
      "v": 98
    },
    {
      "midi": 73,
      "hit": false,
      "t": 67464.4910104168,
      "d": 225.3530229166645,
      "v": 105
    },
    {
      "midi": 63,
      "hit": false,
      "t": 67756.44634375013,
      "d": 250.89911458334245,
      "v": 88
    },
    {
      "midi": 75,
      "hit": false,
      "t": 67762.8328666668,
      "d": 197.98221041666693,
      "v": 102
    },
    {
      "midi": 61,
      "hit": false,
      "t": 67774.69355208338,
      "d": 419.68579166666314,
      "v": 103
    },
    {
      "midi": 56,
      "hit": false,
      "t": 67788.37895833339,
      "d": 419.68579166666314,
      "v": 103
    },
    {
      "midi": 77,
      "hit": false,
      "t": 68040.19043333347,
      "d": 212.57997708334005,
      "v": 97
    },
    {
      "midi": 65,
      "hit": false,
      "t": 68044.7522354168,
      "d": 201.6316520833352,
      "v": 102
    },
    {
      "midi": 37,
      "hit": false,
      "t": 68312.98619791672,
      "d": 3179.576052083372,
      "v": 82
    },
    {
      "midi": 56,
      "hit": false,
      "t": 68314.81091875005,
      "d": 307.4654604166717,
      "v": 75
    },
    {
      "midi": 61,
      "hit": false,
      "t": 68331.23340625006,
      "d": 1738.046593750012,
      "v": 63
    },
    {
      "midi": 53,
      "hit": false,
      "t": 68336.70756875006,
      "d": 1744.4331166666816,
      "v": 85
    },
    {
      "midi": 73,
      "hit": false,
      "t": 68349.48061458347,
      "d": 1803.7365437499975,
      "v": 109
    },
    {
      "midi": 61,
      "hit": false,
      "t": 68354.04241666681,
      "d": 1803.7365437499975,
      "v": 99
    },
    {
      "midi": 56,
      "hit": false,
      "t": 68792.8877770834,
      "d": 535.5555645833374,
      "v": 102
    },
    {
      "midi": 56,
      "hit": false,
      "t": 69613.09979166673,
      "d": 456.18020833334594,
      "v": 102
    },
    {
      "midi": 49,
      "hit": false,
      "t": 70055.59459375007,
      "d": 1775.453370833362,
      "v": 88
    },
    {
      "midi": 54,
      "hit": false,
      "t": 70060.1563958334,
      "d": 315.67670416667534,
      "v": 97
    },
    {
      "midi": 58,
      "hit": false,
      "t": 70061.98111666674,
      "d": 950.6795541666797,
      "v": 57
    },
    {
      "midi": 54,
      "hit": false,
      "t": 70539.14561458341,
      "d": 1282.7787458333478,
      "v": 92
    },
    {
      "midi": 58,
      "hit": false,
      "t": 71352.05874583342,
      "d": 492.6746250000142,
      "v": 98
    },
    {
      "midi": 65,
      "hit": false,
      "t": 71821.01200000009,
      "d": 2148.6087812500045,
      "v": 107
    },
    {
      "midi": 56,
      "hit": false,
      "t": 71821.01200000009,
      "d": 2175.979593750002,
      "v": 75
    },
    {
      "midi": 37,
      "hit": false,
      "t": 71821.01200000009,
      "d": 2645.8452083333395,
      "v": 88
    },
    {
      "midi": 61,
      "hit": false,
      "t": 71821.92436041676,
      "d": 2176.891954166669,
      "v": 85
    },
    {
      "midi": 85,
      "hit": false,
      "t": 71850.20753333348,
      "d": 394.1396999999997,
      "v": 102
    },
    {
      "midi": 73,
      "hit": false,
      "t": 71857.50641666682,
      "d": 419.68579166666314,
      "v": 102
    },
    {
      "midi": 68,
      "hit": false,
      "t": 72478.82386041681,
      "d": 80.28771666667308,
      "v": 102
    },
    {
      "midi": 80,
      "hit": false,
      "t": 72487.03510416682,
      "d": 87.58660000000964,
      "v": 88
    },
    {
      "midi": 80,
      "hit": false,
      "t": 72716.94992916683,
      "d": 1068.3740479166736,
      "v": 102
    },
    {
      "midi": 68,
      "hit": false,
      "t": 72721.51173125017,
      "d": 1060.16280416667,
      "v": 100
    },
    {
      "midi": 65,
      "hit": false,
      "t": 74254.27723125018,
      "d": 110.39561041667184,
      "v": 107
    },
    {
      "midi": 77,
      "hit": false,
      "t": 74261.57611458351,
      "d": 110.39561041667184,
      "v": 107
    },
    {
      "midi": 66,
      "hit": false,
      "t": 74444.04819791675,
      "d": 624.9668854166812,
      "v": 88
    },
    {
      "midi": 58,
      "hit": false,
      "t": 74448.61000000009,
      "d": 396.87678125000093,
      "v": 88
    },
    {
      "midi": 54,
      "hit": false,
      "t": 74453.17180208342,
      "d": 469.86561458333745,
      "v": 78
    },
    {
      "midi": 61,
      "hit": false,
      "t": 74454.99652291676,
      "d": 410.562187500007,
      "v": 88
    },
    {
      "midi": 66,
      "hit": false,
      "t": 74459.55832500018,
      "d": 433.3711979166692,
      "v": 107
    },
    {
      "midi": 44,
      "hit": false,
      "t": 74462.2954062501,
      "d": 898.6750104166858,
      "v": 89
    },
    {
      "midi": 78,
      "hit": false,
      "t": 74475.98081250019,
      "d": 438.84536041665706,
      "v": 97
    },
    {
      "midi": 56,
      "hit": false,
      "t": 74859.1721875001,
      "d": 411.47454791667406,
      "v": 70
    },
    {
      "midi": 60,
      "hit": false,
      "t": 74869.20815208343,
      "d": 415.12398958334234,
      "v": 81
    },
    {
      "midi": 70,
      "hit": false,
      "t": 75073.57688541684,
      "d": 147.80238750000717,
      "v": 92
    },
    {
      "midi": 82,
      "hit": false,
      "t": 75087.26229166685,
      "d": 118.60685416666092,
      "v": 102
    },
    {
      "midi": 68,
      "hit": false,
      "t": 75319.91419791685,
      "d": 576.611783333341,
      "v": 101
    },
    {
      "midi": 37,
      "hit": false,
      "t": 75321.73891875011,
      "d": 2647.6699291666737,
      "v": 81
    },
    {
      "midi": 56,
      "hit": false,
      "t": 75324.47600000011,
      "d": 1708.8510604166659,
      "v": 72
    },
    {
      "midi": 80,
      "hit": false,
      "t": 75324.47600000018,
      "d": 603.0702354166715,
      "v": 102
    },
    {
      "midi": 61,
      "hit": false,
      "t": 75335.42432500012,
      "d": 1697.902735416661,
      "v": 88
    },
    {
      "midi": 65,
      "hit": false,
      "t": 75338.16140625012,
      "d": 1695.1656541666598,
      "v": 113
    },
    {
      "midi": 73,
      "hit": false,
      "t": 76026.99352083352,
      "d": 100.35964583333407,
      "v": 92
    },
    {
      "midi": 61,
      "hit": false,
      "t": 76031.55532291686,
      "d": 110.39561041667184,
      "v": 92
    },
    {
      "midi": 61,
      "hit": false,
      "t": 76227.71281250019,
      "d": 905.9738937499933,
      "v": 92
    },
    {
      "midi": 73,
      "hit": false,
      "t": 76233.1869750002,
      "d": 876.7783604166616,
      "v": 102
    },
    {
      "midi": 58,
      "hit": false,
      "t": 77055.22371041677,
      "d": 270.0586833333364,
      "v": 88
    },
    {
      "midi": 54,
      "hit": false,
      "t": 77313.42170833344,
      "d": 251.81147499999497,
      "v": 72
    },
    {
      "midi": 56,
      "hit": false,
      "t": 77509.57919791677,
      "d": 1095.7448604166857,
      "v": 67
    },
    {
      "midi": 65,
      "hit": false,
      "t": 77757.74123125018,
      "d": 110.39561041667184,
      "v": 107
    },
    {
      "midi": 77,
      "hit": false,
      "t": 77765.04011458352,
      "d": 110.39561041667184,
      "v": 107
    },
    {
      "midi": 61,
      "hit": false,
      "t": 77938.3885937501,
      "d": 2391.296652083358,
      "v": 54
    },
    {
      "midi": 44,
      "hit": false,
      "t": 77947.51219791677,
      "d": 880.4278020833444,
      "v": 54
    },
    {
      "midi": 53,
      "hit": false,
      "t": 77962.10996458345,
      "d": 593.9466312500008,
      "v": 85
    },
    {
      "midi": 66,
      "hit": false,
      "t": 77963.02232500019,
      "d": 433.3711979166692,
      "v": 107
    },
    {
      "midi": 78,
      "hit": false,
      "t": 77979.4448125002,
      "d": 438.84536041665706,
      "v": 97
    },
    {
      "midi": 70,
      "hit": false,
      "t": 78577.04088541685,
      "d": 147.80238750000717,
      "v": 92
    },
    {
      "midi": 82,
      "hit": false,
      "t": 78590.72629166686,
      "d": 118.60685416666092,
      "v": 102
    },
    {
      "midi": 68,
      "hit": false,
      "t": 78823.37819791686,
      "d": 576.611783333341,
      "v": 98
    },
    {
      "midi": 80,
      "hit": false,
      "t": 78827.94000000019,
      "d": 603.0702354166715,
      "v": 98
    },
    {
      "midi": 58,
      "hit": false,
      "t": 78837.06360416679,
      "d": 1573.8217187500122,
      "v": 88
    },
    {
      "midi": 46,
      "hit": false,
      "t": 78837.06360416679,
      "d": 1666.8824812500243,
      "v": 61
    },
    {
      "midi": 53,
      "hit": false,
      "t": 78850.7490104168,
      "d": 1575.6464395833464,
      "v": 78
    },
    {
      "midi": 73,
      "hit": false,
      "t": 79530.45752083353,
      "d": 100.35964583333407,
      "v": 92
    },
    {
      "midi": 61,
      "hit": false,
      "t": 79535.01932291687,
      "d": 110.39561041667184,
      "v": 92
    },
    {
      "midi": 61,
      "hit": false,
      "t": 79731.1768125002,
      "d": 905.9738937499933,
      "v": 92
    },
    {
      "midi": 73,
      "hit": false,
      "t": 79736.6509750002,
      "d": 876.7783604166616,
      "v": 102
    },
    {
      "midi": 54,
      "hit": false,
      "t": 80524.93037500014,
      "d": 515.4836354166764,
      "v": 78
    },
    {
      "midi": 42,
      "hit": false,
      "t": 80597.91920833348,
      "d": 759.9962270833348,
      "v": 85
    },
    {
      "midi": 56,
      "hit": false,
      "t": 80973.81170000015,
      "d": 351.25876041666197,
      "v": 81
    },
    {
      "midi": 61,
      "hit": false,
      "t": 81242.95802291686,
      "d": 120.43157499999506,
      "v": 100
    },
    {
      "midi": 73,
      "hit": false,
      "t": 81261.20523125019,
      "d": 100.35964583333407,
      "v": 95
    },
    {
      "midi": 44,
      "hit": false,
      "t": 81433.64135000015,
      "d": 914.1851375000115,
      "v": 86
    },
    {
      "midi": 56,
      "hit": false,
      "t": 81450.97619791681,
      "d": 699.7804395833373,
      "v": 88
    },
    {
      "midi": 61,
      "hit": false,
      "t": 81460.09980208348,
      "d": 697.9557187500031,
      "v": 85
    },
    {
      "midi": 51,
      "hit": false,
      "t": 81464.66160416682,
      "d": 520.0454374999972,
      "v": 75
    },
    {
      "midi": 61,
      "hit": false,
      "t": 81469.2234062502,
      "d": 248.16203333334124,
      "v": 98
    },
    {
      "midi": 73,
      "hit": false,
      "t": 81478.34701041687,
      "d": 225.3530229166645,
      "v": 105
    },
    {
      "midi": 63,
      "hit": false,
      "t": 81770.3023437502,
      "d": 250.89911458334245,
      "v": 88
    },
    {
      "midi": 75,
      "hit": false,
      "t": 81776.68886666687,
      "d": 197.98221041666693,
      "v": 102
    },
    {
      "midi": 77,
      "hit": false,
      "t": 82054.04643333354,
      "d": 212.57997708334005,
      "v": 97
    },
    {
      "midi": 65,
      "hit": false,
      "t": 82058.60823541688,
      "d": 201.6316520833352,
      "v": 102
    },
    {
      "midi": 56,
      "hit": false,
      "t": 82326.84219791682,
      "d": 2983.41856250001,
      "v": 88
    },
    {
      "midi": 37,
      "hit": false,
      "t": 82326.84219791682,
      "d": 3179.5760520833574,
      "v": 82
    },
    {
      "midi": 61,
      "hit": false,
      "t": 82342.35232500016,
      "d": 2970.645516666671,
      "v": 81
    },
    {
      "midi": 53,
      "hit": false,
      "t": 82342.35232500016,
      "d": 3070.0928020833526,
      "v": 92
    },
    {
      "midi": 77,
      "hit": false,
      "t": 82349.65120833354,
      "d": 1803.7365437499975,
      "v": 109
    },
    {
      "midi": 65,
      "hit": false,
      "t": 82354.21301041688,
      "d": 1803.7365437499975,
      "v": 99
    },
    {
      "midi": 56,
      "hit": false,
      "t": 85385.0743145835,
      "d": 362.2070854166668,
      "v": 92
    },
    {
      "midi": 63,
      "hit": false,
      "t": 85388.72375625017,
      "d": 333.9239125000022,
      "v": 88
    },
    {
      "midi": 60,
      "hit": false,
      "t": 85396.93500000017,
      "d": 323.8879479166644,
      "v": 113
    },
    {
      "midi": 65,
      "hit": false,
      "t": 85821.18259375017,
      "d": 2203.350406250014,
      "v": 107
    },
    {
      "midi": 56,
      "hit": false,
      "t": 85834.86800000018,
      "d": 2175.979593750002,
      "v": 75
    },
    {
      "midi": 37,
      "hit": false,
      "t": 85834.86800000018,
      "d": 2645.845208333354,
      "v": 88
    },
    {
      "midi": 61,
      "hit": false,
      "t": 85835.78036041684,
      "d": 2176.891954166669,
      "v": 85
    },
    {
      "midi": 85,
      "hit": false,
      "t": 85864.06353333354,
      "d": 394.1396999999997,
      "v": 102
    },
    {
      "midi": 73,
      "hit": false,
      "t": 85871.36241666687,
      "d": 419.68579166666314,
      "v": 102
    },
    {
      "midi": 68,
      "hit": false,
      "t": 86492.67986041687,
      "d": 80.28771666667308,
      "v": 102
    },
    {
      "midi": 80,
      "hit": false,
      "t": 86500.89110416688,
      "d": 87.58660000000964,
      "v": 88
    },
    {
      "midi": 80,
      "hit": false,
      "t": 86730.80592916689,
      "d": 1068.3740479166736,
      "v": 102
    },
    {
      "midi": 68,
      "hit": false,
      "t": 86735.36773125023,
      "d": 1060.16280416667,
      "v": 100
    },
    {
      "midi": 65,
      "hit": false,
      "t": 88268.13323125023,
      "d": 110.39561041667184,
      "v": 107
    },
    {
      "midi": 77,
      "hit": false,
      "t": 88275.43211458357,
      "d": 110.39561041667184,
      "v": 107
    },
    {
      "midi": 66,
      "hit": false,
      "t": 88457.90419791685,
      "d": 624.9668854166812,
      "v": 88
    },
    {
      "midi": 58,
      "hit": false,
      "t": 88462.46600000019,
      "d": 396.87678125000093,
      "v": 88
    },
    {
      "midi": 54,
      "hit": false,
      "t": 88467.02780208352,
      "d": 469.86561458333745,
      "v": 78
    },
    {
      "midi": 61,
      "hit": false,
      "t": 88468.85252291686,
      "d": 410.562187500007,
      "v": 88
    },
    {
      "midi": 66,
      "hit": false,
      "t": 88473.41432500024,
      "d": 433.3711979166692,
      "v": 107
    },
    {
      "midi": 44,
      "hit": false,
      "t": 88476.1514062502,
      "d": 898.6750104166858,
      "v": 89
    },
    {
      "midi": 78,
      "hit": false,
      "t": 88489.83681250025,
      "d": 438.84536041665706,
      "v": 97
    },
    {
      "midi": 56,
      "hit": false,
      "t": 88873.0281875002,
      "d": 411.47454791667406,
      "v": 70
    },
    {
      "midi": 60,
      "hit": false,
      "t": 88883.06415208353,
      "d": 415.12398958334234,
      "v": 81
    },
    {
      "midi": 70,
      "hit": false,
      "t": 89087.4328854169,
      "d": 147.80238750000717,
      "v": 92
    },
    {
      "midi": 82,
      "hit": false,
      "t": 89101.1182916669,
      "d": 118.60685416666092,
      "v": 102
    },
    {
      "midi": 56,
      "hit": false,
      "t": 89338.33200000021,
      "d": 1708.8510604166804,
      "v": 72
    },
    {
      "midi": 61,
      "hit": false,
      "t": 89349.28032500022,
      "d": 1697.9027354166756,
      "v": 88
    },
    {
      "midi": 65,
      "hit": false,
      "t": 89352.01740625022,
      "d": 1695.1656541666744,
      "v": 113
    },
    {
      "midi": 68,
      "hit": false,
      "t": 89361.1410104169,
      "d": 576.611783333341,
      "v": 101
    },
    {
      "midi": 80,
      "hit": false,
      "t": 89365.70281250024,
      "d": 603.0702354166715,
      "v": 102
    },
    {
      "midi": 44,
      "hit": false,
      "t": 89748.89418750022,
      "d": 478.98921875000815,
      "v": 89
    },
    {
      "midi": 73,
      "hit": false,
      "t": 90040.84952083358,
      "d": 100.35964583333407,
      "v": 92
    },
    {
      "midi": 61,
      "hit": false,
      "t": 90045.41132291692,
      "d": 110.39561041667184,
      "v": 92
    },
    {
      "midi": 37,
      "hit": false,
      "t": 90211.46091875022,
      "d": 849.4075479166786,
      "v": 81
    },
    {
      "midi": 61,
      "hit": false,
      "t": 90241.56881250025,
      "d": 905.9738937499933,
      "v": 92
    },
    {
      "midi": 73,
      "hit": false,
      "t": 90247.04297500025,
      "d": 876.7783604166616,
      "v": 102
    },
    {
      "midi": 58,
      "hit": false,
      "t": 91069.0797104169,
      "d": 270.0586833333364,
      "v": 88
    },
    {
      "midi": 54,
      "hit": false,
      "t": 91327.27770833357,
      "d": 251.81147499999497,
      "v": 72
    },
    {
      "midi": 56,
      "hit": false,
      "t": 91523.4351979169,
      "d": 1095.7448604166857,
      "v": 67
    },
    {
      "midi": 65,
      "hit": false,
      "t": 91771.59723125024,
      "d": 110.39561041667184,
      "v": 107
    },
    {
      "midi": 77,
      "hit": false,
      "t": 91778.89611458358,
      "d": 110.39561041667184,
      "v": 107
    },
    {
      "midi": 61,
      "hit": false,
      "t": 91952.24459375023,
      "d": 2391.296652083358,
      "v": 54
    },
    {
      "midi": 44,
      "hit": false,
      "t": 91961.3681979169,
      "d": 880.4278020833444,
      "v": 54
    },
    {
      "midi": 53,
      "hit": false,
      "t": 91975.96596458358,
      "d": 593.9466312500008,
      "v": 61
    },
    {
      "midi": 66,
      "hit": false,
      "t": 91976.87832500025,
      "d": 433.3711979166692,
      "v": 107
    },
    {
      "midi": 78,
      "hit": false,
      "t": 91993.30081250025,
      "d": 438.84536041665706,
      "v": 97
    },
    {
      "midi": 70,
      "hit": false,
      "t": 92590.8968854169,
      "d": 147.80238750000717,
      "v": 92
    },
    {
      "midi": 82,
      "hit": false,
      "t": 92604.58229166691,
      "d": 118.60685416666092,
      "v": 102
    },
    {
      "midi": 58,
      "hit": false,
      "t": 92850.91960416692,
      "d": 1573.8217187500122,
      "v": 88
    },
    {
      "midi": 46,
      "hit": false,
      "t": 92850.91960416692,
      "d": 1666.8824812500243,
      "v": 61
    },
    {
      "midi": 68,
      "hit": false,
      "t": 92864.60501041691,
      "d": 576.611783333341,
      "v": 98
    },
    {
      "midi": 53,
      "hit": false,
      "t": 92864.60501041693,
      "d": 1575.6464395833464,
      "v": 78
    },
    {
      "midi": 80,
      "hit": false,
      "t": 92869.16681250025,
      "d": 603.0702354166715,
      "v": 98
    },
    {
      "midi": 73,
      "hit": false,
      "t": 93544.31352083359,
      "d": 100.35964583333407,
      "v": 92
    },
    {
      "midi": 61,
      "hit": false,
      "t": 93548.87532291692,
      "d": 110.39561041667184,
      "v": 92
    },
    {
      "midi": 61,
      "hit": false,
      "t": 93745.03281250026,
      "d": 905.9738937499933,
      "v": 92
    },
    {
      "midi": 73,
      "hit": false,
      "t": 93750.50697500026,
      "d": 876.7783604166616,
      "v": 102
    },
    {
      "midi": 54,
      "hit": false,
      "t": 94538.78637500027,
      "d": 515.4836354166764,
      "v": 78
    },
    {
      "midi": 42,
      "hit": false,
      "t": 94611.77520833361,
      "d": 759.9962270833348,
      "v": 85
    },
    {
      "midi": 56,
      "hit": false,
      "t": 94987.66770000028,
      "d": 351.25876041666197,
      "v": 81
    },
    {
      "midi": 61,
      "hit": false,
      "t": 95256.81402291692,
      "d": 120.43157499999506,
      "v": 100
    },
    {
      "midi": 73,
      "hit": false,
      "t": 95275.06123125025,
      "d": 100.35964583333407,
      "v": 95
    },
    {
      "midi": 44,
      "hit": false,
      "t": 95447.49735000028,
      "d": 914.1851375000115,
      "v": 86
    },
    {
      "midi": 58,
      "hit": false,
      "t": 95464.83219791694,
      "d": 319.3261458333436,
      "v": 101
    },
    {
      "midi": 51,
      "hit": false,
      "t": 95478.51760416695,
      "d": 520.0454374999972,
      "v": 75
    },
    {
      "midi": 61,
      "hit": false,
      "t": 95483.07940625025,
      "d": 248.16203333334124,
      "v": 98
    },
    {
      "midi": 73,
      "hit": false,
      "t": 95492.20301041692,
      "d": 225.3530229166645,
      "v": 105
    },
    {
      "midi": 63,
      "hit": false,
      "t": 95784.15834375026,
      "d": 250.89911458334245,
      "v": 88
    },
    {
      "midi": 75,
      "hit": false,
      "t": 95790.54486666693,
      "d": 197.98221041666693,
      "v": 102
    },
    {
      "midi": 61,
      "hit": false,
      "t": 95802.40555208361,
      "d": 419.68579166666314,
      "v": 103
    },
    {
      "midi": 56,
      "hit": false,
      "t": 95816.09095833362,
      "d": 419.68579166666314,
      "v": 103
    },
    {
      "midi": 77,
      "hit": false,
      "t": 96067.9024333336,
      "d": 212.57997708334005,
      "v": 97
    },
    {
      "midi": 65,
      "hit": false,
      "t": 96072.46423541693,
      "d": 201.6316520833352,
      "v": 102
    },
    {
      "midi": 37,
      "hit": false,
      "t": 96340.69819791695,
      "d": 3179.576052083372,
      "v": 82
    },
    {
      "midi": 56,
      "hit": false,
      "t": 96342.52291875028,
      "d": 307.4654604166717,
      "v": 75
    },
    {
      "midi": 61,
      "hit": false,
      "t": 96358.94540625029,
      "d": 1738.046593750012,
      "v": 63
    },
    {
      "midi": 53,
      "hit": false,
      "t": 96364.4195687503,
      "d": 1744.4331166666816,
      "v": 85
    },
    {
      "midi": 73,
      "hit": false,
      "t": 96377.1926145836,
      "d": 1803.7365437499975,
      "v": 109
    },
    {
      "midi": 61,
      "hit": false,
      "t": 96381.75441666694,
      "d": 1803.7365437499975,
      "v": 99
    },
    {
      "midi": 56,
      "hit": false,
      "t": 96820.59977708363,
      "d": 535.5555645833374,
      "v": 102
    },
    {
      "midi": 56,
      "hit": false,
      "t": 97640.81179166696,
      "d": 456.18020833334594,
      "v": 102
    },
    {
      "midi": 49,
      "hit": false,
      "t": 98083.3065937503,
      "d": 1775.453370833362,
      "v": 88
    },
    {
      "midi": 54,
      "hit": false,
      "t": 98087.86839583363,
      "d": 315.67670416667534,
      "v": 97
    },
    {
      "midi": 58,
      "hit": false,
      "t": 98089.69311666697,
      "d": 950.6795541666797,
      "v": 57
    },
    {
      "midi": 54,
      "hit": false,
      "t": 98566.85761458364,
      "d": 1282.7787458333478,
      "v": 92
    },
    {
      "midi": 58,
      "hit": false,
      "t": 99379.77074583365,
      "d": 492.6746250000142,
      "v": 98
    },
    {
      "midi": 65,
      "hit": false,
      "t": 127876.43600000034,
      "d": 2148.6087812500045,
      "v": 107
    },
    {
      "midi": 56,
      "hit": false,
      "t": 127876.43600000034,
      "d": 2175.979593750002,
      "v": 75
    },
    {
      "midi": 37,
      "hit": false,
      "t": 127876.43600000034,
      "d": 2645.8452083333395,
      "v": 88
    },
    {
      "midi": 61,
      "hit": false,
      "t": 127877.348360417,
      "d": 2176.891954166669,
      "v": 85
    },
    {
      "midi": 85,
      "hit": false,
      "t": 127905.63153333361,
      "d": 394.1396999999997,
      "v": 102
    },
    {
      "midi": 73,
      "hit": false,
      "t": 127912.93041666695,
      "d": 419.68579166666314,
      "v": 102
    },
    {
      "midi": 68,
      "hit": false,
      "t": 128534.24786041694,
      "d": 80.28771666667308,
      "v": 102
    },
    {
      "midi": 80,
      "hit": false,
      "t": 128542.45910416695,
      "d": 87.58660000000964,
      "v": 88
    },
    {
      "midi": 80,
      "hit": false,
      "t": 128772.37392916696,
      "d": 1068.3740479166736,
      "v": 102
    },
    {
      "midi": 68,
      "hit": false,
      "t": 128776.9357312503,
      "d": 1060.16280416667,
      "v": 100
    },
    {
      "midi": 65,
      "hit": false,
      "t": 130309.7012312503,
      "d": 110.39561041667184,
      "v": 107
    },
    {
      "midi": 77,
      "hit": false,
      "t": 130317.00011458364,
      "d": 110.39561041667184,
      "v": 107
    },
    {
      "midi": 66,
      "hit": false,
      "t": 130499.472197917,
      "d": 624.9668854166812,
      "v": 88
    },
    {
      "midi": 58,
      "hit": false,
      "t": 130504.03400000033,
      "d": 396.87678125000093,
      "v": 88
    },
    {
      "midi": 54,
      "hit": false,
      "t": 130508.59580208367,
      "d": 469.86561458333745,
      "v": 78
    },
    {
      "midi": 61,
      "hit": false,
      "t": 130510.420522917,
      "d": 410.562187500007,
      "v": 88
    },
    {
      "midi": 66,
      "hit": false,
      "t": 130514.98232500031,
      "d": 433.3711979166692,
      "v": 107
    },
    {
      "midi": 44,
      "hit": false,
      "t": 130517.71940625034,
      "d": 898.6750104166858,
      "v": 89
    },
    {
      "midi": 78,
      "hit": false,
      "t": 130531.40481250032,
      "d": 438.84536041665706,
      "v": 97
    },
    {
      "midi": 56,
      "hit": false,
      "t": 130914.59618750034,
      "d": 411.47454791667406,
      "v": 70
    },
    {
      "midi": 60,
      "hit": false,
      "t": 130924.63215208368,
      "d": 415.12398958334234,
      "v": 81
    },
    {
      "midi": 70,
      "hit": false,
      "t": 131129.000885417,
      "d": 147.80238750000717,
      "v": 92
    },
    {
      "midi": 82,
      "hit": false,
      "t": 131142.686291667,
      "d": 118.60685416666092,
      "v": 102
    },
    {
      "midi": 68,
      "hit": false,
      "t": 131375.338197917,
      "d": 576.6117833333265,
      "v": 101
    },
    {
      "midi": 37,
      "hit": false,
      "t": 131377.16291875034,
      "d": 2647.669929166703,
      "v": 81
    },
    {
      "midi": 80,
      "hit": false,
      "t": 131379.90000000034,
      "d": 603.0702354166715,
      "v": 102
    },
    {
      "midi": 56,
      "hit": false,
      "t": 131379.90000000034,
      "d": 1708.851060416695,
      "v": 72
    },
    {
      "midi": 61,
      "hit": false,
      "t": 131390.84832500035,
      "d": 1697.9027354166901,
      "v": 88
    },
    {
      "midi": 65,
      "hit": false,
      "t": 131393.58540625035,
      "d": 1695.165654166689,
      "v": 113
    },
    {
      "midi": 73,
      "hit": false,
      "t": 132082.41752083367,
      "d": 100.35964583334862,
      "v": 92
    },
    {
      "midi": 61,
      "hit": false,
      "t": 132086.979322917,
      "d": 110.3956104166864,
      "v": 92
    },
    {
      "midi": 61,
      "hit": false,
      "t": 132283.13681250036,
      "d": 905.9738937500224,
      "v": 92
    },
    {
      "midi": 73,
      "hit": false,
      "t": 132288.61097500037,
      "d": 876.7783604166762,
      "v": 102
    },
    {
      "midi": 58,
      "hit": false,
      "t": 133110.64771041705,
      "d": 270.0586833333364,
      "v": 88
    },
    {
      "midi": 54,
      "hit": false,
      "t": 133368.8457083337,
      "d": 251.81147499999497,
      "v": 72
    },
    {
      "midi": 56,
      "hit": false,
      "t": 133565.00319791705,
      "d": 1095.7448604166566,
      "v": 67
    },
    {
      "midi": 65,
      "hit": false,
      "t": 133813.1652312504,
      "d": 110.39561041665729,
      "v": 107
    },
    {
      "midi": 77,
      "hit": false,
      "t": 133820.46411458374,
      "d": 110.39561041665729,
      "v": 107
    },
    {
      "midi": 61,
      "hit": false,
      "t": 133993.81259375036,
      "d": 2391.2966520833725,
      "v": 54
    },
    {
      "midi": 44,
      "hit": false,
      "t": 134002.93619791704,
      "d": 880.4278020833444,
      "v": 54
    },
    {
      "midi": 53,
      "hit": false,
      "t": 134017.5339645837,
      "d": 593.9466312500008,
      "v": 85
    },
    {
      "midi": 66,
      "hit": false,
      "t": 134018.4463250004,
      "d": 433.37119791668374,
      "v": 107
    },
    {
      "midi": 78,
      "hit": false,
      "t": 134034.8688125004,
      "d": 438.84536041668616,
      "v": 97
    },
    {
      "midi": 70,
      "hit": false,
      "t": 134632.4648854171,
      "d": 147.80238750000717,
      "v": 92
    },
    {
      "midi": 82,
      "hit": false,
      "t": 134646.15029166712,
      "d": 118.60685416666092,
      "v": 102
    },
    {
      "midi": 68,
      "hit": false,
      "t": 134878.80219791713,
      "d": 576.6117833333265,
      "v": 98
    },
    {
      "midi": 80,
      "hit": false,
      "t": 134883.36400000047,
      "d": 603.0702354166715,
      "v": 98
    },
    {
      "midi": 58,
      "hit": false,
      "t": 134892.48760416705,
      "d": 1573.8217187500268,
      "v": 88
    },
    {
      "midi": 46,
      "hit": false,
      "t": 134892.48760416705,
      "d": 1666.8824812500388,
      "v": 61
    },
    {
      "midi": 53,
      "hit": false,
      "t": 134906.17301041706,
      "d": 1575.646439583361,
      "v": 78
    },
    {
      "midi": 73,
      "hit": false,
      "t": 135585.8815208338,
      "d": 100.35964583334862,
      "v": 92
    },
    {
      "midi": 61,
      "hit": false,
      "t": 135590.44332291713,
      "d": 110.3956104166864,
      "v": 92
    },
    {
      "midi": 61,
      "hit": false,
      "t": 135786.6008125005,
      "d": 905.9738937500224,
      "v": 92
    },
    {
      "midi": 73,
      "hit": false,
      "t": 135792.0749750005,
      "d": 876.7783604166762,
      "v": 102
    },
    {
      "midi": 54,
      "hit": false,
      "t": 136580.35437500043,
      "d": 515.4836354166619,
      "v": 78
    },
    {
      "midi": 42,
      "hit": false,
      "t": 136653.34320833377,
      "d": 759.9962270833494,
      "v": 85
    },
    {
      "midi": 56,
      "hit": false,
      "t": 137029.23570000043,
      "d": 351.2587604166765,
      "v": 81
    },
    {
      "midi": 61,
      "hit": false,
      "t": 137298.38202291718,
      "d": 120.43157499999506,
      "v": 100
    },
    {
      "midi": 73,
      "hit": false,
      "t": 137316.62923125052,
      "d": 100.35964583331952,
      "v": 95
    },
    {
      "midi": 44,
      "hit": false,
      "t": 137489.06535000046,
      "d": 914.1851374999969,
      "v": 86
    },
    {
      "midi": 56,
      "hit": false,
      "t": 137506.40019791713,
      "d": 699.7804395833227,
      "v": 88
    },
    {
      "midi": 61,
      "hit": false,
      "t": 137515.5238020838,
      "d": 697.9557187499886,
      "v": 85
    },
    {
      "midi": 51,
      "hit": false,
      "t": 137520.08560416714,
      "d": 520.0454374999972,
      "v": 75
    },
    {
      "midi": 61,
      "hit": false,
      "t": 137524.6474062505,
      "d": 248.1620333333558,
      "v": 98
    },
    {
      "midi": 73,
      "hit": false,
      "t": 137533.77101041717,
      "d": 225.35302291667904,
      "v": 105
    },
    {
      "midi": 63,
      "hit": false,
      "t": 137825.72634375052,
      "d": 250.8991145833279,
      "v": 88
    },
    {
      "midi": 75,
      "hit": false,
      "t": 137832.1128666672,
      "d": 197.98221041666693,
      "v": 102
    },
    {
      "midi": 77,
      "hit": false,
      "t": 138109.47043333386,
      "d": 212.57997708334005,
      "v": 97
    },
    {
      "midi": 65,
      "hit": false,
      "t": 138114.0322354172,
      "d": 201.6316520833352,
      "v": 102
    },
    {
      "midi": 56,
      "hit": false,
      "t": 138382.2661979171,
      "d": 2983.41856250001,
      "v": 88
    },
    {
      "midi": 37,
      "hit": false,
      "t": 138382.2661979171,
      "d": 3179.576052083372,
      "v": 82
    },
    {
      "midi": 61,
      "hit": false,
      "t": 138397.77632500045,
      "d": 2970.645516666671,
      "v": 81
    },
    {
      "midi": 53,
      "hit": false,
      "t": 138397.77632500045,
      "d": 3070.0928020833526,
      "v": 92
    },
    {
      "midi": 77,
      "hit": false,
      "t": 138405.07520833387,
      "d": 1803.736543750012,
      "v": 109
    },
    {
      "midi": 65,
      "hit": false,
      "t": 138409.6370104172,
      "d": 1803.736543750012,
      "v": 99
    },
    {
      "midi": 56,
      "hit": false,
      "t": 141440.4983145838,
      "d": 362.20708541671047,
      "v": 92
    },
    {
      "midi": 63,
      "hit": false,
      "t": 141444.14775625046,
      "d": 333.9239125000313,
      "v": 88
    },
    {
      "midi": 60,
      "hit": false,
      "t": 141452.35900000046,
      "d": 323.8879479166935,
      "v": 113
    },
    {
      "midi": 65,
      "hit": false,
      "t": 141876.6065937505,
      "d": 2203.350406250014,
      "v": 107
    },
    {
      "midi": 56,
      "hit": false,
      "t": 141890.2920000005,
      "d": 2175.979593750002,
      "v": 75
    },
    {
      "midi": 37,
      "hit": false,
      "t": 141890.2920000005,
      "d": 2645.8452083333395,
      "v": 88
    },
    {
      "midi": 61,
      "hit": false,
      "t": 141891.20436041718,
      "d": 2176.891954166669,
      "v": 85
    },
    {
      "midi": 85,
      "hit": false,
      "t": 141919.4875333339,
      "d": 394.1396999999997,
      "v": 102
    },
    {
      "midi": 73,
      "hit": false,
      "t": 141926.78641666722,
      "d": 419.6857916666777,
      "v": 102
    },
    {
      "midi": 68,
      "hit": false,
      "t": 142548.10386041724,
      "d": 80.28771666667308,
      "v": 102
    },
    {
      "midi": 80,
      "hit": false,
      "t": 142556.31510416724,
      "d": 87.58660000000964,
      "v": 88
    },
    {
      "midi": 80,
      "hit": false,
      "t": 142786.22992916725,
      "d": 1068.3740479166736,
      "v": 102
    },
    {
      "midi": 68,
      "hit": false,
      "t": 142790.7917312506,
      "d": 1060.16280416667,
      "v": 100
    },
    {
      "midi": 65,
      "hit": false,
      "t": 144323.5572312506,
      "d": 110.39561041665729,
      "v": 107
    },
    {
      "midi": 77,
      "hit": false,
      "t": 144330.85611458393,
      "d": 110.39561041665729,
      "v": 107
    },
    {
      "midi": 66,
      "hit": false,
      "t": 144513.32819791717,
      "d": 624.9668854166812,
      "v": 88
    },
    {
      "midi": 58,
      "hit": false,
      "t": 144517.8900000005,
      "d": 396.87678125000093,
      "v": 88
    },
    {
      "midi": 54,
      "hit": false,
      "t": 144522.45180208384,
      "d": 469.86561458333745,
      "v": 78
    },
    {
      "midi": 61,
      "hit": false,
      "t": 144524.27652291718,
      "d": 410.562187500007,
      "v": 88
    },
    {
      "midi": 66,
      "hit": false,
      "t": 144528.8383250006,
      "d": 433.37119791668374,
      "v": 107
    },
    {
      "midi": 44,
      "hit": false,
      "t": 144531.57540625051,
      "d": 898.6750104166858,
      "v": 89
    },
    {
      "midi": 78,
      "hit": false,
      "t": 144545.2608125006,
      "d": 438.84536041668616,
      "v": 97
    },
    {
      "midi": 56,
      "hit": false,
      "t": 144928.45218750052,
      "d": 411.47454791667406,
      "v": 70
    },
    {
      "midi": 60,
      "hit": false,
      "t": 144938.48815208385,
      "d": 415.12398958334234,
      "v": 81
    },
    {
      "midi": 70,
      "hit": false,
      "t": 145142.8568854173,
      "d": 147.80238750000717,
      "v": 92
    },
    {
      "midi": 82,
      "hit": false,
      "t": 145156.5422916673,
      "d": 118.60685416666092,
      "v": 102
    },
    {
      "midi": 56,
      "hit": false,
      "t": 145393.75600000052,
      "d": 1708.851060416695,
      "v": 72
    },
    {
      "midi": 61,
      "hit": false,
      "t": 145404.70432500052,
      "d": 1697.9027354166901,
      "v": 88
    },
    {
      "midi": 65,
      "hit": false,
      "t": 145407.44140625052,
      "d": 1695.165654166689,
      "v": 113
    },
    {
      "midi": 68,
      "hit": false,
      "t": 145416.5650104173,
      "d": 576.6117833333265,
      "v": 101
    },
    {
      "midi": 80,
      "hit": false,
      "t": 145421.12681250065,
      "d": 603.0702354166715,
      "v": 102
    },
    {
      "midi": 44,
      "hit": false,
      "t": 145804.31818750052,
      "d": 478.98921875000815,
      "v": 89
    },
    {
      "midi": 73,
      "hit": false,
      "t": 146096.273520834,
      "d": 100.35964583334862,
      "v": 92
    },
    {
      "midi": 61,
      "hit": false,
      "t": 146100.83532291732,
      "d": 110.3956104166864,
      "v": 92
    },
    {
      "midi": 37,
      "hit": false,
      "t": 146266.88491875053,
      "d": 849.4075479166931,
      "v": 81
    },
    {
      "midi": 61,
      "hit": false,
      "t": 146296.99281250068,
      "d": 905.9738937500224,
      "v": 92
    },
    {
      "midi": 73,
      "hit": false,
      "t": 146302.4669750007,
      "d": 876.7783604166762,
      "v": 102
    },
    {
      "midi": 58,
      "hit": false,
      "t": 147124.50371041722,
      "d": 270.0586833333364,
      "v": 88
    },
    {
      "midi": 54,
      "hit": false,
      "t": 147382.7017083339,
      "d": 251.81147499999497,
      "v": 72
    },
    {
      "midi": 56,
      "hit": false,
      "t": 147578.85919791722,
      "d": 1095.7448604166566,
      "v": 67
    },
    {
      "midi": 65,
      "hit": false,
      "t": 147827.02123125072,
      "d": 110.39561041665729,
      "v": 107
    },
    {
      "midi": 77,
      "hit": false,
      "t": 147834.32011458406,
      "d": 110.39561041665729,
      "v": 107
    },
    {
      "midi": 61,
      "hit": false,
      "t": 148007.66859375054,
      "d": 2391.2966520833725,
      "v": 54
    },
    {
      "midi": 44,
      "hit": false,
      "t": 148016.7921979172,
      "d": 880.4278020833444,
      "v": 54
    },
    {
      "midi": 53,
      "hit": false,
      "t": 148031.38996458388,
      "d": 593.9466312500008,
      "v": 61
    },
    {
      "midi": 66,
      "hit": false,
      "t": 148032.30232500072,
      "d": 433.37119791668374,
      "v": 107
    },
    {
      "midi": 78,
      "hit": false,
      "t": 148048.72481250073,
      "d": 438.84536041668616,
      "v": 97
    },
    {
      "midi": 70,
      "hit": false,
      "t": 148646.32088541743,
      "d": 147.80238750000717,
      "v": 92
    },
    {
      "midi": 82,
      "hit": false,
      "t": 148660.00629166744,
      "d": 118.60685416666092,
      "v": 102
    },
    {
      "midi": 58,
      "hit": false,
      "t": 148906.34360416722,
      "d": 1573.8217187500268,
      "v": 88
    },
    {
      "midi": 46,
      "hit": false,
      "t": 148906.34360416722,
      "d": 1666.8824812500388,
      "v": 61
    },
    {
      "midi": 53,
      "hit": false,
      "t": 148920.02901041723,
      "d": 1575.646439583361,
      "v": 78
    },
    {
      "midi": 68,
      "hit": false,
      "t": 148920.02901041743,
      "d": 576.6117833333265,
      "v": 98
    },
    {
      "midi": 80,
      "hit": false,
      "t": 148924.59081250077,
      "d": 603.0702354166715,
      "v": 98
    },
    {
      "midi": 73,
      "hit": false,
      "t": 149599.7375208341,
      "d": 100.35964583334862,
      "v": 92
    },
    {
      "midi": 61,
      "hit": false,
      "t": 149604.29932291745,
      "d": 110.3956104166864,
      "v": 92
    },
    {
      "midi": 61,
      "hit": false,
      "t": 149800.4568125008,
      "d": 905.9738937500224,
      "v": 92
    },
    {
      "midi": 73,
      "hit": false,
      "t": 149805.9309750008,
      "d": 876.7783604166762,
      "v": 102
    },
    {
      "midi": 54,
      "hit": false,
      "t": 150594.2103750006,
      "d": 515.4836354166619,
      "v": 78
    },
    {
      "midi": 42,
      "hit": false,
      "t": 150667.19920833394,
      "d": 759.9962270833494,
      "v": 85
    },
    {
      "midi": 56,
      "hit": false,
      "t": 151043.0917000006,
      "d": 351.2587604166765,
      "v": 81
    },
    {
      "midi": 61,
      "hit": false,
      "t": 151312.2380229175,
      "d": 120.43157499999506,
      "v": 100
    },
    {
      "midi": 73,
      "hit": false,
      "t": 151330.48523125084,
      "d": 100.35964583331952,
      "v": 95
    },
    {
      "midi": 44,
      "hit": false,
      "t": 151502.92135000063,
      "d": 914.185137500026,
      "v": 86
    },
    {
      "midi": 58,
      "hit": false,
      "t": 151520.2561979173,
      "d": 319.32614583332906,
      "v": 101
    },
    {
      "midi": 51,
      "hit": false,
      "t": 151533.9416041673,
      "d": 520.0454374999972,
      "v": 75
    },
    {
      "midi": 61,
      "hit": false,
      "t": 151538.50340625082,
      "d": 248.1620333333558,
      "v": 98
    },
    {
      "midi": 73,
      "hit": false,
      "t": 151547.6270104175,
      "d": 225.35302291667904,
      "v": 105
    },
    {
      "midi": 63,
      "hit": false,
      "t": 151839.58234375084,
      "d": 250.8991145833279,
      "v": 88
    },
    {
      "midi": 75,
      "hit": false,
      "t": 151845.9688666675,
      "d": 197.98221041666693,
      "v": 102
    },
    {
      "midi": 61,
      "hit": false,
      "t": 151857.82955208397,
      "d": 419.6857916666777,
      "v": 103
    },
    {
      "midi": 56,
      "hit": false,
      "t": 151871.51495833398,
      "d": 419.6857916666777,
      "v": 103
    },
    {
      "midi": 77,
      "hit": false,
      "t": 152123.32643333418,
      "d": 212.57997708334005,
      "v": 97
    },
    {
      "midi": 65,
      "hit": false,
      "t": 152127.88823541751,
      "d": 201.6316520833352,
      "v": 102
    },
    {
      "midi": 37,
      "hit": false,
      "t": 152396.1221979173,
      "d": 3179.576052083401,
      "v": 82
    },
    {
      "midi": 56,
      "hit": false,
      "t": 152397.94691875065,
      "d": 307.46546041668626,
      "v": 75
    },
    {
      "midi": 61,
      "hit": false,
      "t": 152414.36940625065,
      "d": 1738.046593750012,
      "v": 63
    },
    {
      "midi": 53,
      "hit": false,
      "t": 152419.84356875066,
      "d": 1744.4331166666816,
      "v": 85
    },
    {
      "midi": 73,
      "hit": false,
      "t": 152432.6166145842,
      "d": 1803.736543750012,
      "v": 109
    },
    {
      "midi": 61,
      "hit": false,
      "t": 152437.17841666754,
      "d": 1803.736543750012,
      "v": 99
    },
    {
      "midi": 56,
      "hit": false,
      "t": 152876.023777084,
      "d": 535.5555645833374,
      "v": 102
    },
    {
      "midi": 56,
      "hit": false,
      "t": 153696.23579166734,
      "d": 456.1802083333314,
      "v": 102
    },
    {
      "midi": 49,
      "hit": false,
      "t": 154138.73059375066,
      "d": 1775.453370833391,
      "v": 88
    },
    {
      "midi": 54,
      "hit": false,
      "t": 154143.292395834,
      "d": 315.6767041666899,
      "v": 97
    },
    {
      "midi": 58,
      "hit": false,
      "t": 154145.11711666733,
      "d": 950.6795541667088,
      "v": 57
    },
    {
      "midi": 54,
      "hit": false,
      "t": 154622.28161458403,
      "d": 1282.7787458333478,
      "v": 92
    },
    {
      "midi": 58,
      "hit": false,
      "t": 155435.19474583404,
      "d": 492.6746250000142,
      "v": 98
    },
    {
      "midi": 37,
      "hit": false,
      "t": 155904.1480000007,
      "d": 1661.4083187500364,
      "v": 85
    },
    {
      "midi": 85,
      "hit": false,
      "t": 155919.6581270842,
      "d": 394.1396999999997,
      "v": 87
    },
    {
      "midi": 73,
      "hit": false,
      "t": 155926.95701041754,
      "d": 419.6857916666777,
      "v": 87
    },
    {
      "midi": 49,
      "hit": false,
      "t": 156110.34145416738,
      "d": 520.0454375000263,
      "v": 81
    },
    {
      "midi": 56,
      "hit": false,
      "t": 156328.39559375073,
      "d": 232.6519062500156,
      "v": 78
    },
    {
      "midi": 61,
      "hit": false,
      "t": 156529.1148854174,
      "d": 269.1463229166693,
      "v": 88
    },
    {
      "midi": 68,
      "hit": false,
      "t": 156548.27445416755,
      "d": 80.28771666667308,
      "v": 87
    },
    {
      "midi": 80,
      "hit": false,
      "t": 156556.48569791755,
      "d": 87.58660000000964,
      "v": 73
    },
    {
      "midi": 56,
      "hit": false,
      "t": 156743.51958333407,
      "d": 266.4092416666681,
      "v": 85
    },
    {
      "midi": 80,
      "hit": false,
      "t": 156786.40052291757,
      "d": 1068.3740479166736,
      "v": 87
    },
    {
      "midi": 68,
      "hit": false,
      "t": 156790.9623250009,
      "d": 1060.16280416667,
      "v": 85
    },
    {
      "midi": 49,
      "hit": false,
      "t": 156982.55801250073,
      "d": 416.0363500000094,
      "v": 78
    },
    {
      "midi": 56,
      "hit": false,
      "t": 157200.61215208407,
      "d": 310.20254166668747,
      "v": 82
    },
    {
      "midi": 61,
      "hit": false,
      "t": 157414.10448958408,
      "d": 202.54401250000228,
      "v": 85
    },
    {
      "midi": 42,
      "hit": false,
      "t": 157634.89571041742,
      "d": 921.4840208333917,
      "v": 89
    },
    {
      "midi": 54,
      "hit": false,
      "t": 157888.53190625075,
      "d": 435.1959187500179,
      "v": 85
    },
    {
      "midi": 56,
      "hit": false,
      "t": 158116.62201041743,
      "d": 298.34185625001555,
      "v": 78
    },
    {
      "midi": 65,
      "hit": false,
      "t": 158323.7278250009,
      "d": 110.39561041665729,
      "v": 92
    },
    {
      "midi": 77,
      "hit": false,
      "t": 158331.02670833425,
      "d": 110.39561041665729,
      "v": 92
    },
    {
      "midi": 44,
      "hit": false,
      "t": 158513.49879166746,
      "d": 878.6030812500103,
      "v": 86
    },
    {
      "midi": 66,
      "hit": false,
      "t": 158529.00891875091,
      "d": 433.37119791668374,
      "v": 92
    },
    {
      "midi": 58,
      "hit": false,
      "t": 158533.57072083413,
      "d": 246.33731249999255,
      "v": 72
    },
    {
      "midi": 78,
      "hit": false,
      "t": 158545.43140625092,
      "d": 438.84536041668616,
      "v": 82
    },
    {
      "midi": 56,
      "hit": false,
      "t": 158737.93945416747,
      "d": 293.7800541666511,
      "v": 80
    },
    {
      "midi": 60,
      "hit": false,
      "t": 158957.81831458412,
      "d": 238.12606875001802,
      "v": 81
    },
    {
      "midi": 70,
      "hit": false,
      "t": 159143.02747916762,
      "d": 147.80238750000717,
      "v": 77
    },
    {
      "midi": 82,
      "hit": false,
      "t": 159156.71288541763,
      "d": 118.60685416666092,
      "v": 87
    },
    {
      "midi": 61,
      "hit": false,
      "t": 159179.52189583413,
      "d": 223.5283020833449,
      "v": 79
    },
    {
      "midi": 37,
      "hit": false,
      "t": 159386.62771041747,
      "d": 1821.9837520833826,
      "v": 85
    },
    {
      "midi": 68,
      "hit": false,
      "t": 159389.36479166764,
      "d": 576.6117833333265,
      "v": 86
    },
    {
      "midi": 80,
      "hit": false,
      "t": 159393.92659375098,
      "d": 603.0702354166715,
      "v": 87
    },
    {
      "midi": 49,
      "hit": false,
      "t": 159613.80545416748,
      "d": 520.0454375000263,
      "v": 81
    },
    {
      "midi": 56,
      "hit": false,
      "t": 159831.85959375082,
      "d": 232.6519062500156,
      "v": 78
    },
    {
      "midi": 61,
      "hit": false,
      "t": 160032.5788854175,
      "d": 269.1463229166693,
      "v": 88
    },
    {
      "midi": 73,
      "hit": false,
      "t": 160096.4441145843,
      "d": 100.35964583334862,
      "v": 77
    },
    {
      "midi": 61,
      "hit": false,
      "t": 160101.00591666764,
      "d": 110.3956104166864,
      "v": 77
    },
    {
      "midi": 56,
      "hit": false,
      "t": 160246.98358333416,
      "d": 266.4092416666681,
      "v": 85
    },
    {
      "midi": 61,
      "hit": false,
      "t": 160297.163406251,
      "d": 905.9738937500224,
      "v": 77
    },
    {
      "midi": 73,
      "hit": false,
      "t": 160302.637568751,
      "d": 876.7783604166762,
      "v": 87
    },
    {
      "midi": 49,
      "hit": false,
      "t": 160486.02201250082,
      "d": 416.0363500000094,
      "v": 78
    },
    {
      "midi": 56,
      "hit": false,
      "t": 160704.07615208416,
      "d": 310.20254166668747,
      "v": 78
    },
    {
      "midi": 61,
      "hit": false,
      "t": 160917.56848958417,
      "d": 202.54401250000228,
      "v": 85
    },
    {
      "midi": 42,
      "hit": false,
      "t": 161147.48331458418,
      "d": 926.9581833333359,
      "v": 80
    },
    {
      "midi": 54,
      "hit": false,
      "t": 161391.99590625084,
      "d": 435.1959187500179,
      "v": 85
    },
    {
      "midi": 56,
      "hit": false,
      "t": 161620.08601041752,
      "d": 298.34185625001555,
      "v": 78
    },
    {
      "midi": 65,
      "hit": false,
      "t": 161827.19182500103,
      "d": 110.39561041665729,
      "v": 92
    },
    {
      "midi": 77,
      "hit": false,
      "t": 161834.49070833437,
      "d": 110.39561041665729,
      "v": 92
    },
    {
      "midi": 44,
      "hit": false,
      "t": 162027.91111666753,
      "d": 859.4435124999727,
      "v": 89
    },
    {
      "midi": 66,
      "hit": false,
      "t": 162032.47291875104,
      "d": 433.37119791668374,
      "v": 92
    },
    {
      "midi": 58,
      "hit": false,
      "t": 162037.0347208342,
      "d": 246.33731249996345,
      "v": 72
    },
    {
      "midi": 78,
      "hit": false,
      "t": 162048.89540625105,
      "d": 438.84536041668616,
      "v": 82
    },
    {
      "midi": 56,
      "hit": false,
      "t": 162241.4034541675,
      "d": 293.7800541666511,
      "v": 80
    },
    {
      "midi": 60,
      "hit": false,
      "t": 162461.28231458415,
      "d": 238.12606875001802,
      "v": 81
    },
    {
      "midi": 70,
      "hit": false,
      "t": 162646.49147916774,
      "d": 147.80238750000717,
      "v": 77
    },
    {
      "midi": 82,
      "hit": false,
      "t": 162660.17688541775,
      "d": 118.60685416666092,
      "v": 87
    },
    {
      "midi": 61,
      "hit": false,
      "t": 162682.98589583416,
      "d": 223.5283020833449,
      "v": 79
    },
    {
      "midi": 46,
      "hit": false,
      "t": 162892.8287916675,
      "d": 1797.3500208334008,
      "v": 93
    },
    {
      "midi": 68,
      "hit": false,
      "t": 162892.82879166777,
      "d": 576.6117833333265,
      "v": 83
    },
    {
      "midi": 80,
      "hit": false,
      "t": 162897.3905937511,
      "d": 603.0702354166715,
      "v": 83
    },
    {
      "midi": 56,
      "hit": false,
      "t": 163117.26945416752,
      "d": 293.7800541666802,
      "v": 80
    },
    {
      "midi": 60,
      "hit": false,
      "t": 163337.1483145842,
      "d": 238.12606875001802,
      "v": 81
    },
    {
      "midi": 61,
      "hit": false,
      "t": 163558.8518958342,
      "d": 194.33276874999865,
      "v": 79
    },
    {
      "midi": 73,
      "hit": false,
      "t": 163599.90811458442,
      "d": 100.35964583334862,
      "v": 77
    },
    {
      "midi": 61,
      "hit": false,
      "t": 163604.46991666776,
      "d": 110.3956104166864,
      "v": 77
    },
    {
      "midi": 61,
      "hit": false,
      "t": 163760.48354791754,
      "d": 903.2368125000212,
      "v": 80
    },
    {
      "midi": 61,
      "hit": false,
      "t": 163800.62740625112,
      "d": 905.9738937500224,
      "v": 77
    },
    {
      "midi": 73,
      "hit": false,
      "t": 163806.10156875112,
      "d": 876.7783604166762,
      "v": 87
    },
    {
      "midi": 42,
      "hit": false,
      "t": 164644.56079166755,
      "d": 912.3604166666919,
      "v": 93
    },
    {
      "midi": 54,
      "hit": false,
      "t": 164868.0890937509,
      "d": 435.1959187500179,
      "v": 85
    },
    {
      "midi": 56,
      "hit": false,
      "t": 165096.17919791758,
      "d": 298.34185625001555,
      "v": 78
    },
    {
      "midi": 61,
      "hit": false,
      "t": 165312.40861666782,
      "d": 120.43157499999506,
      "v": 85
    },
    {
      "midi": 73,
      "hit": false,
      "t": 165330.65582500116,
      "d": 100.35964583331952,
      "v": 80
    },
    {
      "midi": 58,
      "hit": false,
      "t": 165513.12790833425,
      "d": 246.33731249999255,
      "v": 72
    },
    {
      "midi": 44,
      "hit": false,
      "t": 165520.4267916676,
      "d": 884.9896041666798,
      "v": 89
    },
    {
      "midi": 61,
      "hit": false,
      "t": 165538.67400000113,
      "d": 248.1620333333558,
      "v": 83
    },
    {
      "midi": 73,
      "hit": false,
      "t": 165547.7976041678,
      "d": 225.35302291667904,
      "v": 90
    },
    {
      "midi": 56,
      "hit": false,
      "t": 165717.4966416676,
      "d": 293.7800541666511,
      "v": 80
    },
    {
      "midi": 63,
      "hit": false,
      "t": 165839.75293750115,
      "d": 250.8991145833279,
      "v": 73
    },
    {
      "midi": 75,
      "hit": false,
      "t": 165846.13946041782,
      "d": 197.98221041666693,
      "v": 87
    },
    {
      "midi": 60,
      "hit": false,
      "t": 165937.37550208424,
      "d": 238.12606875001802,
      "v": 81
    },
    {
      "midi": 77,
      "hit": false,
      "t": 166123.4970270845,
      "d": 212.57997708334005,
      "v": 82
    },
    {
      "midi": 65,
      "hit": false,
      "t": 166128.05882916783,
      "d": 201.6316520833352,
      "v": 87
    },
    {
      "midi": 61,
      "hit": false,
      "t": 166159.07908333425,
      "d": 223.5283020833449,
      "v": 79
    },
    {
      "midi": 61,
      "hit": false,
      "t": 166388.99390833426,
      "d": 238.12606875001802,
      "v": 81
    },
    {
      "midi": 37,
      "hit": false,
      "t": 166405.41639583427,
      "d": 1683.304968750017,
      "v": 93
    },
    {
      "midi": 77,
      "hit": false,
      "t": 166419.1018020845,
      "d": 1803.736543750012,
      "v": 94
    },
    {
      "midi": 65,
      "hit": false,
      "t": 166423.66360416784,
      "d": 1803.736543750012,
      "v": 84
    },
    {
      "midi": 56,
      "hit": false,
      "t": 166620.7334541676,
      "d": 293.7800541666802,
      "v": 80
    },
    {
      "midi": 60,
      "hit": false,
      "t": 166840.6123145843,
      "d": 238.12606875001802,
      "v": 81
    },
    {
      "midi": 61,
      "hit": false,
      "t": 167062.3158958343,
      "d": 194.33276874999865,
      "v": 79
    },
    {
      "midi": 61,
      "hit": false,
      "t": 167263.94754791763,
      "d": 903.2368124999921,
      "v": 80
    },
    {
      "midi": 37,
      "hit": false,
      "t": 168152.58659375095,
      "d": 766.3827500000189,
      "v": 89
    },
    {
      "midi": 49,
      "hit": false,
      "t": 168387.0632208343,
      "d": 535.5555645833374,
      "v": 85
    },
    {
      "midi": 56,
      "hit": false,
      "t": 168568.62294375096,
      "d": 499.97350833332166,
      "v": 72
    },
    {
      "midi": 61,
      "hit": false,
      "t": 168796.71304791764,
      "d": 380.45429374996456,
      "v": 85
    },
    {
      "midi": 37,
      "hit": false,
      "t": 169028.45259375096,
      "d": 805.6142479166447,
      "v": 96
    },
    {
      "midi": 63,
      "hit": false,
      "t": 169461.82379166762,
      "d": 442.49480208332534,
      "v": 97
    },
    {
      "midi": 60,
      "hit": false,
      "t": 169468.21031458428,
      "d": 434.2835583333217,
      "v": 97
    },
    {
      "midi": 37,
      "hit": false,
      "t": 169918.00400000095,
      "d": 1661.4083187500364,
      "v": 85
    },
    {
      "midi": 85,
      "hit": false,
      "t": 169933.51412708452,
      "d": 394.1396999999997,
      "v": 87
    },
    {
      "midi": 73,
      "hit": false,
      "t": 169940.81301041786,
      "d": 419.6857916666777,
      "v": 87
    },
    {
      "midi": 49,
      "hit": false,
      "t": 170124.19745416762,
      "d": 520.0454375000263,
      "v": 81
    },
    {
      "midi": 56,
      "hit": false,
      "t": 170342.25159375096,
      "d": 232.6519062500156,
      "v": 78
    },
    {
      "midi": 61,
      "hit": false,
      "t": 170542.97088541763,
      "d": 269.1463229166693,
      "v": 88
    },
    {
      "midi": 68,
      "hit": false,
      "t": 170562.13045416787,
      "d": 80.28771666667308,
      "v": 87
    },
    {
      "midi": 80,
      "hit": false,
      "t": 170570.34169791787,
      "d": 87.58660000000964,
      "v": 73
    },
    {
      "midi": 56,
      "hit": false,
      "t": 170757.3755833343,
      "d": 266.4092416666681,
      "v": 85
    },
    {
      "midi": 80,
      "hit": false,
      "t": 170800.2565229179,
      "d": 1068.3740479166736,
      "v": 87
    },
    {
      "midi": 68,
      "hit": false,
      "t": 170804.81832500122,
      "d": 1060.16280416667,
      "v": 85
    },
    {
      "midi": 49,
      "hit": false,
      "t": 170996.41401250096,
      "d": 416.0363500000094,
      "v": 78
    },
    {
      "midi": 56,
      "hit": false,
      "t": 171214.4681520843,
      "d": 310.20254166668747,
      "v": 82
    },
    {
      "midi": 61,
      "hit": false,
      "t": 171427.9604895843,
      "d": 202.54401250000228,
      "v": 85
    },
    {
      "midi": 42,
      "hit": false,
      "t": 171648.75171041765,
      "d": 921.4840208333917,
      "v": 89
    },
    {
      "midi": 54,
      "hit": false,
      "t": 171902.38790625098,
      "d": 435.1959187500179,
      "v": 85
    },
    {
      "midi": 56,
      "hit": false,
      "t": 172130.47801041766,
      "d": 298.34185625001555,
      "v": 78
    },
    {
      "midi": 65,
      "hit": false,
      "t": 172337.58382500123,
      "d": 110.39561041665729,
      "v": 92
    },
    {
      "midi": 77,
      "hit": false,
      "t": 172344.88270833457,
      "d": 110.39561041665729,
      "v": 92
    },
    {
      "midi": 44,
      "hit": false,
      "t": 172527.3547916677,
      "d": 878.6030812500103,
      "v": 86
    },
    {
      "midi": 66,
      "hit": false,
      "t": 172542.86491875123,
      "d": 433.37119791668374,
      "v": 92
    },
    {
      "midi": 58,
      "hit": false,
      "t": 172547.42672083437,
      "d": 246.33731249999255,
      "v": 72
    },
    {
      "midi": 78,
      "hit": false,
      "t": 172559.28740625124,
      "d": 438.84536041668616,
      "v": 82
    },
    {
      "midi": 56,
      "hit": false,
      "t": 172751.7954541677,
      "d": 293.7800541666511,
      "v": 80
    },
    {
      "midi": 60,
      "hit": false,
      "t": 172971.67431458435,
      "d": 238.12606875001802,
      "v": 81
    },
    {
      "midi": 70,
      "hit": false,
      "t": 173156.88347916794,
      "d": 147.80238750000717,
      "v": 77
    },
    {
      "midi": 82,
      "hit": false,
      "t": 173170.56888541795,
      "d": 118.60685416666092,
      "v": 87
    },
    {
      "midi": 61,
      "hit": false,
      "t": 173193.37789583436,
      "d": 223.5283020833449,
      "v": 79
    },
    {
      "midi": 37,
      "hit": false,
      "t": 173400.4837104177,
      "d": 1821.9837520833826,
      "v": 85
    },
    {
      "midi": 68,
      "hit": false,
      "t": 173403.22079166796,
      "d": 576.6117833333265,
      "v": 86
    },
    {
      "midi": 80,
      "hit": false,
      "t": 173407.7825937513,
      "d": 603.0702354166715,
      "v": 87
    },
    {
      "midi": 49,
      "hit": false,
      "t": 173627.6614541677,
      "d": 520.0454375000263,
      "v": 81
    },
    {
      "midi": 56,
      "hit": false,
      "t": 173845.71559375105,
      "d": 232.6519062500156,
      "v": 78
    },
    {
      "midi": 61,
      "hit": false,
      "t": 174046.43488541772,
      "d": 269.1463229166693,
      "v": 88
    },
    {
      "midi": 73,
      "hit": false,
      "t": 174110.30011458462,
      "d": 100.35964583334862,
      "v": 77
    },
    {
      "midi": 61,
      "hit": false,
      "t": 174114.86191666796,
      "d": 110.3956104166864,
      "v": 77
    },
    {
      "midi": 56,
      "hit": false,
      "t": 174260.8395833344,
      "d": 266.4092416666681,
      "v": 85
    },
    {
      "midi": 61,
      "hit": false,
      "t": 174311.01940625132,
      "d": 905.9738937500224,
      "v": 77
    },
    {
      "midi": 73,
      "hit": false,
      "t": 174316.49356875132,
      "d": 876.7783604166762,
      "v": 87
    },
    {
      "midi": 49,
      "hit": false,
      "t": 174499.87801250105,
      "d": 416.0363500000094,
      "v": 78
    },
    {
      "midi": 56,
      "hit": false,
      "t": 174717.9321520844,
      "d": 310.20254166668747,
      "v": 78
    },
    {
      "midi": 61,
      "hit": false,
      "t": 174931.4244895844,
      "d": 202.54401250000228,
      "v": 85
    },
    {
      "midi": 42,
      "hit": false,
      "t": 175161.33931458442,
      "d": 926.9581833333359,
      "v": 80
    },
    {
      "midi": 54,
      "hit": false,
      "t": 175405.85190625107,
      "d": 435.1959187500179,
      "v": 85
    },
    {
      "midi": 56,
      "hit": false,
      "t": 175633.94201041776,
      "d": 298.34185625001555,
      "v": 78
    },
    {
      "midi": 65,
      "hit": false,
      "t": 175841.04782500135,
      "d": 110.39561041665729,
      "v": 92
    },
    {
      "midi": 77,
      "hit": false,
      "t": 175848.3467083347,
      "d": 110.39561041665729,
      "v": 92
    },
    {
      "midi": 44,
      "hit": false,
      "t": 176041.76711666776,
      "d": 859.4435124999727,
      "v": 89
    },
    {
      "midi": 66,
      "hit": false,
      "t": 176046.32891875136,
      "d": 433.37119791668374,
      "v": 92
    },
    {
      "midi": 58,
      "hit": false,
      "t": 176050.89072083443,
      "d": 246.33731249996345,
      "v": 72
    },
    {
      "midi": 78,
      "hit": false,
      "t": 176062.75140625137,
      "d": 438.84536041668616,
      "v": 82
    },
    {
      "midi": 56,
      "hit": false,
      "t": 176255.25945416774,
      "d": 293.7800541666511,
      "v": 80
    },
    {
      "midi": 60,
      "hit": false,
      "t": 176475.1383145844,
      "d": 238.12606875001802,
      "v": 81
    },
    {
      "midi": 70,
      "hit": false,
      "t": 176660.34747916806,
      "d": 147.80238750000717,
      "v": 77
    },
    {
      "midi": 82,
      "hit": false,
      "t": 176674.03288541807,
      "d": 118.60685416666092,
      "v": 87
    },
    {
      "midi": 61,
      "hit": false,
      "t": 176696.8418958344,
      "d": 223.5283020833449,
      "v": 79
    },
    {
      "midi": 46,
      "hit": false,
      "t": 176906.68479166774,
      "d": 1797.3500208334008,
      "v": 93
    },
    {
      "midi": 68,
      "hit": false,
      "t": 176906.68479166809,
      "d": 576.6117833333265,
      "v": 83
    },
    {
      "midi": 80,
      "hit": false,
      "t": 176911.24659375142,
      "d": 603.0702354166715,
      "v": 83
    },
    {
      "midi": 56,
      "hit": false,
      "t": 177131.12545416775,
      "d": 293.7800541666802,
      "v": 80
    },
    {
      "midi": 60,
      "hit": false,
      "t": 177351.00431458442,
      "d": 238.12606875001802,
      "v": 81
    },
    {
      "midi": 61,
      "hit": false,
      "t": 177572.70789583444,
      "d": 194.33276874999865,
      "v": 79
    },
    {
      "midi": 73,
      "hit": false,
      "t": 177613.76411458474,
      "d": 100.35964583334862,
      "v": 77
    },
    {
      "midi": 61,
      "hit": false,
      "t": 177618.32591666808,
      "d": 110.3956104166864,
      "v": 77
    },
    {
      "midi": 61,
      "hit": false,
      "t": 177774.33954791777,
      "d": 903.2368125000212,
      "v": 80
    },
    {
      "midi": 61,
      "hit": false,
      "t": 177814.48340625144,
      "d": 905.9738937500224,
      "v": 77
    },
    {
      "midi": 73,
      "hit": false,
      "t": 177819.95756875144,
      "d": 876.7783604166762,
      "v": 87
    },
    {
      "midi": 42,
      "hit": false,
      "t": 178658.41679166778,
      "d": 912.3604166666919,
      "v": 93
    },
    {
      "midi": 54,
      "hit": false,
      "t": 178881.94509375113,
      "d": 435.1959187500179,
      "v": 85
    },
    {
      "midi": 56,
      "hit": false,
      "t": 179110.0351979178,
      "d": 298.34185625001555,
      "v": 78
    },
    {
      "midi": 61,
      "hit": false,
      "t": 179326.26461666814,
      "d": 120.43157499999506,
      "v": 85
    },
    {
      "midi": 73,
      "hit": false,
      "t": 179344.51182500148,
      "d": 100.35964583331952,
      "v": 80
    },
    {
      "midi": 58,
      "hit": false,
      "t": 179526.98390833449,
      "d": 246.33731249999255,
      "v": 72
    },
    {
      "midi": 44,
      "hit": false,
      "t": 179534.28279166782,
      "d": 884.9896041666798,
      "v": 89
    },
    {
      "midi": 61,
      "hit": false,
      "t": 179552.53000000145,
      "d": 248.1620333333558,
      "v": 83
    },
    {
      "midi": 73,
      "hit": false,
      "t": 179561.65360416812,
      "d": 225.35302291667904,
      "v": 90
    },
    {
      "midi": 56,
      "hit": false,
      "t": 179731.35264166782,
      "d": 293.7800541666511,
      "v": 80
    },
    {
      "midi": 63,
      "hit": false,
      "t": 179853.60893750147,
      "d": 250.8991145833279,
      "v": 73
    },
    {
      "midi": 75,
      "hit": false,
      "t": 179859.99546041814,
      "d": 197.98221041666693,
      "v": 87
    },
    {
      "midi": 60,
      "hit": false,
      "t": 179951.23150208447,
      "d": 238.12606875001802,
      "v": 81
    },
    {
      "midi": 77,
      "hit": false,
      "t": 180137.3530270848,
      "d": 212.57997708334005,
      "v": 82
    },
    {
      "midi": 65,
      "hit": false,
      "t": 180141.91482916815,
      "d": 201.6316520833352,
      "v": 87
    },
    {
      "midi": 61,
      "hit": false,
      "t": 180172.93508333448,
      "d": 223.5283020833449,
      "v": 79
    },
    {
      "midi": 61,
      "hit": false,
      "t": 180402.8499083345,
      "d": 238.12606875001802,
      "v": 81
    },
    {
      "midi": 37,
      "hit": false,
      "t": 180419.2723958345,
      "d": 1683.304968750017,
      "v": 93
    },
    {
      "midi": 73,
      "hit": false,
      "t": 180432.95780208483,
      "d": 1803.736543750012,
      "v": 94
    },
    {
      "midi": 61,
      "hit": false,
      "t": 180437.51960416816,
      "d": 1803.736543750012,
      "v": 84
    },
    {
      "midi": 56,
      "hit": false,
      "t": 180634.58945416784,
      "d": 293.7800541666802,
      "v": 80
    },
    {
      "midi": 60,
      "hit": false,
      "t": 180854.46831458452,
      "d": 238.12606875001802,
      "v": 81
    },
    {
      "midi": 61,
      "hit": false,
      "t": 181076.17189583453,
      "d": 194.33276874999865,
      "v": 79
    },
    {
      "midi": 61,
      "hit": false,
      "t": 181277.80354791787,
      "d": 903.2368124999921,
      "v": 80
    },
    {
      "midi": 37,
      "hit": false,
      "t": 182166.44259375118,
      "d": 1696.990375000023,
      "v": 89
    },
    {
      "midi": 54,
      "hit": false,
      "t": 182394.53269791786,
      "d": 687.0073937500129,
      "v": 97
    },
    {
      "midi": 61,
      "hit": false,
      "t": 182610.76211666787,
      "d": 467.12853333333624,
      "v": 85
    },
    {
      "midi": 73,
      "hit": false,
      "t": 182828.81625625122,
      "d": 255.46091666666325,
      "v": 97
    },
    {
      "midi": 73,
      "hit": false,
      "t": 183042.3085937515,
      "d": 328.44974999999977,
      "v": 120
    },
    {
      "midi": 54,
      "hit": false,
      "t": 183066.02996458486,
      "d": 416.0363500000094,
      "v": 80
    },
    {
      "midi": 68,
      "hit": false,
      "t": 183389.91791250152,
      "d": 82.11243750000722,
      "v": 102
    },
    {
      "midi": 73,
      "hit": false,
      "t": 183480.24159375153,
      "d": 328.44974999999977,
      "v": 108
    },
    {
      "midi": 56,
      "hit": false,
      "t": 183493.92700000154,
      "d": 412.3869083333411,
      "v": 76
    },
    {
      "midi": 68,
      "hit": false,
      "t": 183827.85091250154,
      "d": 82.11243750000722,
      "v": 90
    },
    {
      "midi": 37,
      "hit": false,
      "t": 183904.4891875012,
      "d": 4830.948406250012,
      "v": 67
    },
    {
      "midi": 73,
      "hit": false,
      "t": 183918.17459375155,
      "d": 328.44974999999977,
      "v": 96
    },
    {
      "midi": 54,
      "hit": false,
      "t": 183941.8959645849,
      "d": 416.0363500000094,
      "v": 56
    },
    {
      "midi": 68,
      "hit": false,
      "t": 184265.78391250156,
      "d": 82.11243750000722,
      "v": 78
    },
    {
      "midi": 73,
      "hit": false,
      "t": 184356.10759375157,
      "d": 328.44974999999977,
      "v": 84
    },
    {
      "midi": 56,
      "hit": false,
      "t": 184369.79300000158,
      "d": 412.3869083333411,
      "v": 52
    },
    {
      "midi": 68,
      "hit": false,
      "t": 184703.71691250158,
      "d": 82.11243750000722,
      "v": 66
    },
    {
      "midi": 73,
      "hit": false,
      "t": 184794.0405937516,
      "d": 328.44974999999977,
      "v": 72
    },
    {
      "midi": 54,
      "hit": false,
      "t": 184817.76196458493,
      "d": 416.0363500000094,
      "v": 32
    },
    {
      "midi": 68,
      "hit": false,
      "t": 185141.6499125016,
      "d": 82.11243750000722,
      "v": 54
    },
    {
      "midi": 73,
      "hit": false,
      "t": 185231.9735937516,
      "d": 328.44974999999977,
      "v": 60
    },
    {
      "midi": 56,
      "hit": false,
      "t": 185245.65900000161,
      "d": 412.3869083333411,
      "v": 28
    },
    {
      "midi": 68,
      "hit": false,
      "t": 185579.58291250162,
      "d": 82.11243750000722,
      "v": 42
    },
    {
      "midi": 73,
      "hit": false,
      "t": 185669.90659375163,
      "d": 328.44974999999977,
      "v": 48
    },
    {
      "midi": 54,
      "hit": false,
      "t": 185693.62796458497,
      "d": 416.0363500000094,
      "v": 8
    },
    {
      "midi": 68,
      "hit": false,
      "t": 186017.51591250164,
      "d": 82.11243750000722,
      "v": 30
    },
    {
      "midi": 73,
      "hit": false,
      "t": 186107.83959375165,
      "d": 328.44974999999977,
      "v": 36
    },
    {
      "midi": 56,
      "hit": false,
      "t": 186121.52500000165,
      "d": 412.3869083333411,
      "v": 4
    },
    {
      "midi": 68,
      "hit": false,
      "t": 186455.44891250166,
      "d": 82.11243750000722,
      "v": 18
    }
  ]
}